<svg width="16px" height="16px" viewBox="0 0 16 16" xmlns="http://www.w3.org/2000/svg"><title>icon/social/youtube/brand</title><g id="icon/social/youtube/brand" stroke="none" stroke-width="1" fill="none" fill-rule="evenodd"><path d="M15.6656048,3.74875911 C16,4.99664979 16,7.59990122 16,7.59990122 C16,7.59990122 16,10.2032844 15.6656048,11.4510433 C15.481615,12.1393258 14.9395234,12.6816809 14.2511092,12.865539 C13.0033502,13.1999341 7.99993415,13.1999341 7.99993415,13.1999341 C7.99993415,13.1999341 2.99664979,13.1999341 1.74889081,12.865539 C1.0604766,12.6816809 0.518384986,12.1393258 0.334395193,11.4510433 C0,10.2032844 0,7.59990122 0,7.59990122 C0,7.59990122 0,4.99664979 0.334395193,3.74875911 C0.518384986,3.0604766 1.0604766,2.51825328 1.74889081,2.33426349 C2.99664979,2 7.99993415,2 7.99993415,2 C7.99993415,2 13.0033502,2 14.2511092,2.33426349 C14.9395234,2.51825328 15.481615,3.0604766 15.6656048,3.74875911 Z M6.4,9.99993415 L10.5566942,7.60003293 L6.4,5.1998683 L6.4,9.99993415 Z" id="icon" fill="#D9252A"></path></g></svg>
