<svg xmlns="http://www.w3.org/2000/svg" width="640" height="360" fill="none" viewBox="0 0 640 360">
  <path fill="#333336" d="M0 0h640v360H0z"/>
  <path fill="#0290FF" stroke="#333336" stroke-width="1.8" d="M122.333 72.667c0-3.3137 2.686-6 6-6h261.333c3.314 0 6 2.6863 6 6v14H122.333v-14Z"/>
  <ellipse cx="136.039" cy="76.4644" fill="#333336" rx="2.70555" ry="2.66651"/>
  <ellipse cx="146.315" cy="76.4644" fill="#333336" rx="2.70555" ry="2.66651"/>
  <ellipse cx="156.602" cy="76.4644" fill="#333336" rx="2.70555" ry="2.66651"/>
  <path fill="#F8F6F4" stroke="#333336" stroke-width="1.8" d="M122.333 86.667h273.333v158c0 3.314-2.686 6-6 6H128.333c-3.314 0-6-2.686-6-6v-158Z"/>
  <path fill="#FF7139" stroke="#333336" stroke-width="1.8" d="M269 132.667c0-3.314 2.687-6 6-6h261.334c3.314 0 6 2.686 6 6v14H269v-14Z"/>
  <ellipse cx="282.706" cy="136.464" fill="#333336" rx="2.70554" ry="2.66648"/>
  <ellipse cx="292.982" cy="136.464" fill="#333336" rx="2.70554" ry="2.66648"/>
  <ellipse cx="303.268" cy="136.464" fill="#333336" rx="2.70554" ry="2.66648"/>
  <path fill="#F8F6F4" stroke="#333336" stroke-width="1.8" d="M269 146.667h273.334v158c0 3.314-2.686 6-6 6H275c-3.313 0-6-2.686-6-6v-158Z"/>
  <rect width="53.3333" height="53.3333" x="154" y="227.667" fill="#0290FF" stroke="#333336" stroke-width="1.8" rx="6.4"/>
  <path fill="#fff" fill-rule="evenodd" d="M182.675 237 164.9 258.331h15.998l-1.778 14.22 17.776-21.331h-15.998l1.777-14.22Z" clip-rule="evenodd"/>
  <path fill="#FBF0BA" stroke="#333336" stroke-width="1.8" d="M312 171h128v32H312z"/>
  <path fill="#333336" d="M406.431 191v-8.541h5.499v1.568h-3.837v1.977h3.837v1.545h-3.837V191h-1.662Zm8.321.129c-1.38 0-2.199-.772-2.199-1.884 0-1.31 1.088-2.118 2.843-2.118h1.661v-.082c0-.678-.456-1.146-1.369-1.146-.713 0-1.193.304-1.486.831l-1.486-.738c.644-.842 1.568-1.439 2.984-1.439 1.86 0 2.925.971 2.925 2.563V191h-1.556v-.971c-.456.655-1.322 1.1-2.317 1.1Zm.468-1.334c.772 0 1.533-.468 1.849-1.147v-.339h-1.486c-.959 0-1.346.304-1.346.796 0 .456.316.69.983.69Zm6.931 1.334c-1.498 0-2.445-.562-2.949-1.568l1.557-.608c.28.561.783.854 1.45.854.656 0 1.007-.316 1.007-.691 0-.456-.679-.561-1.486-.725-1.065-.222-2.247-.55-2.247-1.884 0-1.064 1.03-1.989 2.586-1.977 1.334 0 2.129.503 2.714 1.345l-1.474.597c-.257-.421-.655-.667-1.24-.667-.632 0-.936.258-.936.609 0 .397.515.503 1.439.702 1.053.21 2.293.573 2.293 1.93 0 .983-.877 2.094-2.714 2.083Zm2.988-5.02v-1.427h1.17v-1.369l1.591-.936v2.305h1.662v1.427H427.9v2.598c0 .667.281.901.691.901.222 0 .398-.07.585-.234l.737 1.263c-.41.305-.924.48-1.509.48-1.323 0-2.095-.632-2.095-2.352v-2.656h-1.17Z"/>
  <path fill="#333336" d="M312.749 219v-8.541h5.744v1.556h-4.095v1.919h4.095v1.556h-4.095v1.942h4.095V219h-5.744Zm8.8.129c-1.38 0-2.199-.772-2.199-1.884 0-1.31 1.088-2.118 2.843-2.118h1.661v-.082c0-.678-.456-1.146-1.369-1.146-.713 0-1.193.304-1.485.831l-1.486-.738c.643-.842 1.567-1.439 2.983-1.439 1.86 0 2.925.971 2.925 2.563V219h-1.556v-.971c-.456.655-1.322 1.1-2.317 1.1Zm.468-1.334c.773 0 1.533-.468 1.849-1.147v-.339h-1.486c-.959 0-1.345.304-1.345.796 0 .456.316.69.982.69Zm4.45 1.205v-6.318h1.591v.971c.304-.749.936-1.088 1.743-1.088.421 0 .796.105 1.065.246l-.585 1.591c-.176-.129-.48-.222-.842-.222-.831 0-1.369.421-1.369 1.486V219h-1.603Zm5.009 0v-9.22h1.615V219h-1.615Zm3.405 2.504c-.667 0-1.334-.246-1.802-.585l.936-1.311c.222.234.492.386.854.386.574 0 .925-.257 1.24-1.006l.106-.257-2.539-6.049h1.72l1.638 4.072 1.556-4.072h1.685l-2.726 6.657c-.656 1.615-1.334 2.165-2.668 2.165Zm8.457-2.504v-1.381c0-1.544 1.264-2.398 2.399-3.088.947-.585 1.755-1.053 1.755-1.744 0-.596-.433-1.018-1.217-1.018s-1.346.515-1.627 1.206l-1.462-.714c.573-1.158 1.661-1.919 3.112-1.919 1.802 0 2.855 1.076 2.855 2.457 0 1.381-1.158 2.118-2.246 2.773-.936.573-1.802 1.076-1.849 1.86h4.06V219h-5.78Zm9.956-1.462c1.041 0 1.684-.597 1.684-2.68v-.351c0-2.071-.678-2.597-1.673-2.597-1.018 0-1.696.585-1.696 2.597v.351c0 2.106.643 2.68 1.685 2.68Zm0 1.579c-1.978 0-3.335-1.135-3.335-4.235v-.398c0-2.96 1.463-4.142 3.335-4.142 1.907 0 3.346 1.217 3.346 4.142v.398c0 3.135-1.393 4.235-3.346 4.235Zm4.085-.117v-1.381c0-1.544 1.263-2.398 2.398-3.088.948-.585 1.755-1.053 1.755-1.744 0-.596-.433-1.018-1.217-1.018-.783 0-1.345.515-1.626 1.206l-1.462-.714c.573-1.158 1.661-1.919 3.112-1.919 1.802 0 2.855 1.076 2.855 2.457 0 1.381-1.159 2.118-2.247 2.773-.936.573-1.802 1.076-1.848 1.86h4.06V219h-5.78Zm9.46.117c-1.509 0-2.445-.48-3.182-1.462l1.38-1.018c.421.69 1.018.982 1.802.982.842 0 1.439-.444 1.439-1.158 0-.678-.597-1.088-1.486-1.088h-.948v-1.486h.878c.901 0 1.369-.48 1.369-1.111 0-.562-.421-1.03-1.299-1.03-.772 0-1.275.339-1.603.936l-1.369-.819c.62-.948 1.65-1.521 2.96-1.521 1.837 0 2.949.959 2.949 2.387 0 .784-.386 1.416-1.006 1.825.748.386 1.216 1.03 1.216 1.942 0 1.486-1.17 2.621-3.1 2.621Z"/>
  <path fill="#FBB397" stroke="#333336" stroke-width="1.8" d="M312 237h187v32H312z"/>
  <path fill="#333336" d="M425.903 257v-8.541h5.499v1.568h-3.837v1.977h3.837v1.545h-3.837V257h-1.662Zm8.321.129c-1.381 0-2.2-.772-2.2-1.884 0-1.31 1.088-2.118 2.843-2.118h1.662v-.082c0-.678-.456-1.146-1.369-1.146-.714 0-1.193.304-1.486.831l-1.486-.738c.644-.842 1.568-1.439 2.984-1.439 1.86 0 2.925.971 2.925 2.563V257h-1.556v-.971c-.457.655-1.323 1.1-2.317 1.1Zm.468-1.334c.772 0 1.533-.468 1.849-1.147v-.339h-1.486c-.96 0-1.346.304-1.346.796 0 .456.316.69.983.69Zm6.427 1.334c-1.381 0-2.2-.772-2.2-1.884 0-1.31 1.088-2.118 2.843-2.118h1.661v-.082c0-.678-.456-1.146-1.368-1.146-.714 0-1.194.304-1.486.831l-1.486-.738c.643-.842 1.568-1.439 2.983-1.439 1.861 0 2.925.971 2.925 2.563V257h-1.556v-.971c-.456.655-1.322 1.1-2.316 1.1Zm.468-1.334c.772 0 1.532-.468 1.848-1.147v-.339h-1.486c-.959 0-1.345.304-1.345.796 0 .456.316.69.983.69Zm6.426 1.334c-1.38 0-2.199-.772-2.199-1.884 0-1.31 1.088-2.118 2.843-2.118h1.661v-.082c0-.678-.456-1.146-1.369-1.146-.713 0-1.193.304-1.486.831l-1.486-.738c.644-.842 1.568-1.439 2.984-1.439 1.86 0 2.925.971 2.925 2.563V257h-1.556v-.971c-.457.655-1.322 1.1-2.317 1.1Zm.468-1.334c.772 0 1.533-.468 1.849-1.147v-.339h-1.486c-.959 0-1.346.304-1.346.796 0 .456.316.69.983.69Zm6.427 1.334c-1.381 0-2.2-.772-2.2-1.884 0-1.31 1.088-2.118 2.843-2.118h1.662v-.082c0-.678-.457-1.146-1.369-1.146-.714 0-1.194.304-1.486.831l-1.486-.738c.644-.842 1.568-1.439 2.984-1.439 1.86 0 2.925.971 2.925 2.563V257h-1.557v-.971c-.456.655-1.322 1.1-2.316 1.1Zm.468-1.334c.772 0 1.533-.468 1.848-1.147v-.339h-1.485c-.96 0-1.346.304-1.346.796 0 .456.316.69.983.69Zm6.426 1.334c-1.38 0-2.199-.772-2.199-1.884 0-1.31 1.088-2.118 2.843-2.118h1.661v-.082c0-.678-.456-1.146-1.369-1.146-.713 0-1.193.304-1.485.831l-1.486-.738c.643-.842 1.567-1.439 2.983-1.439 1.86 0 2.925.971 2.925 2.563V257h-1.556v-.971c-.456.655-1.322 1.1-2.317 1.1Zm.468-1.334c.773 0 1.533-.468 1.849-1.147v-.339h-1.486c-.959 0-1.345.304-1.345.796 0 .456.316.69.982.69Zm6.931 1.334c-1.498 0-2.445-.562-2.948-1.568l1.556-.608c.281.561.784.854 1.451.854.655 0 1.006-.316 1.006-.691 0-.456-.679-.561-1.486-.725-1.065-.222-2.247-.55-2.247-1.884 0-1.064 1.03-1.989 2.586-1.977 1.334 0 2.13.503 2.715 1.345l-1.475.597c-.257-.421-.655-.667-1.24-.667-.632 0-.936.258-.936.609 0 .397.515.503 1.439.702 1.053.21 2.293.573 2.293 1.93 0 .983-.877 2.094-2.714 2.083Zm2.988-5.02v-1.427h1.17v-1.369l1.592-.936v2.305h1.661v1.427h-1.661v2.598c0 .667.28.901.69.901.222 0 .398-.07.585-.234l.737 1.263c-.409.305-.924.48-1.509.48-1.322 0-2.095-.632-2.095-2.352v-2.656h-1.17Zm8.131 5.02c-2.036 0-3.346-1.439-3.346-3.276 0-1.837 1.427-3.3 3.311-3.3 1.895 0 3.264 1.369 3.264 3.241v.609h-5.019c.211.819.878 1.333 1.814 1.333.748 0 1.251-.327 1.567-.842l1.322.772c-.631.889-1.521 1.463-2.913 1.463Zm-.035-5.207c-.819 0-1.451.48-1.708 1.217h3.369c-.21-.784-.819-1.217-1.661-1.217Zm4.114 5.078v-6.318h1.591v.971c.304-.749.936-1.088 1.743-1.088.421 0 .796.105 1.065.246l-.585 1.591c-.176-.129-.48-.222-.842-.222-.831 0-1.369.421-1.369 1.486V257h-1.603Z"/>
  <path fill="#333336" d="M314.902 285v-7.02h-2.376v-1.521h6.354v1.521h-2.352V285h-1.626Zm6.572.129c-1.896 0-3.335-1.474-3.335-3.288 0-1.825 1.439-3.288 3.335-3.288 1.883 0 3.346 1.463 3.346 3.288 0 1.814-1.439 3.288-3.346 3.288Zm.011-1.533c.96 0 1.732-.784 1.732-1.767 0-.982-.772-1.766-1.732-1.766-.971 0-1.731.784-1.731 1.766 0 .983.76 1.767 1.731 1.767Zm7.048 1.533c-1.556 0-3.042-1.276-3.042-3.288 0-2.012 1.451-3.288 3.065-3.288.831 0 1.521.351 1.954.936v-3.72h1.591V285h-1.591v-.866c-.444.62-1.158.995-1.977.995Zm.316-1.521c.994 0 1.755-.796 1.755-1.779 0-.982-.761-1.778-1.755-1.778-.971 0-1.755.784-1.755 1.778 0 .995.784 1.779 1.755 1.779Zm6.284 1.521c-1.381 0-2.2-.772-2.2-1.884 0-1.31 1.089-2.118 2.844-2.118h1.661v-.082c0-.678-.456-1.146-1.369-1.146-.714 0-1.193.304-1.486.831l-1.486-.738c.644-.842 1.568-1.439 2.984-1.439 1.86 0 2.925.971 2.925 2.563V285h-1.556v-.971c-.457.655-1.322 1.1-2.317 1.1Zm.468-1.334c.772 0 1.533-.468 1.849-1.147v-.339h-1.486c-.96 0-1.346.304-1.346.796 0 .456.316.69.983.69Zm4.833 3.709c-.667 0-1.334-.246-1.802-.585l.936-1.311c.222.234.491.386.854.386.573 0 .924-.257 1.24-1.006l.106-.257-2.539-6.049h1.72l1.638 4.072 1.556-4.072h1.685l-2.727 6.657c-.655 1.615-1.333 2.165-2.667 2.165Z"/>
  <path fill="#333336" d="M155.594 137v-18.177h7.171c4.083 0 6.822 2.938 6.822 6.598 0 3.611-2.739 6.624-6.847 6.624h-3.611V137h-3.535Zm6.947-14.965h-3.412v6.748h3.412c2.091 0 3.486-1.419 3.486-3.362 0-1.967-1.395-3.386-3.486-3.386Zm12.739 15.239c-2.939 0-4.682-1.644-4.682-4.009 0-2.789 2.316-4.507 6.051-4.507h3.536v-.174c0-1.444-.971-2.44-2.913-2.44-1.519 0-2.54.647-3.163 1.767l-3.162-1.568c1.369-1.793 3.337-3.063 6.349-3.063 3.96 0 6.225 2.067 6.225 5.453V137h-3.311v-2.067c-.971 1.395-2.814 2.341-4.93 2.341Zm.996-2.839c1.643 0 3.261-.996 3.934-2.44v-.722h-3.163c-2.041 0-2.863.647-2.863 1.693 0 .971.672 1.469 2.092 1.469Zm15.698 2.764c-3.312 0-6.474-2.689-6.474-6.947s3.087-6.972 6.523-6.972c1.793 0 3.287.797 4.184 2.042v-1.768h3.436v12.45c0 3.909-2.913 6.748-7.047 6.748-3.063 0-5.079-.896-6.598-2.664l2.838-2.217c.897 1.171 1.893 1.818 3.661 1.818 2.166 0 3.71-1.469 3.71-3.585v-1.021c-.947 1.319-2.49 2.116-4.233 2.116Zm.672-3.187c2.116 0 3.735-1.668 3.735-3.785 0-2.116-1.619-3.785-3.735-3.785-2.067 0-3.735 1.644-3.735 3.785 0 2.117 1.668 3.785 3.735 3.785Zm16.14 3.262c-4.333 0-7.122-3.063-7.122-6.972 0-3.909 3.038-7.022 7.047-7.022 4.034 0 6.947 2.913 6.947 6.897v1.295h-10.682c.448 1.743 1.867 2.839 3.859 2.839 1.594 0 2.665-.697 3.337-1.793l2.814 1.643c-1.345 1.893-3.237 3.113-6.2 3.113Zm-.075-11.081c-1.743 0-3.088 1.021-3.635 2.59h7.171c-.448-1.668-1.743-2.59-3.536-2.59ZM155.345 164v-19.621h3.436V164h-3.436Zm12.527.274c-4.034 0-7.096-3.138-7.096-6.997 0-3.884 3.062-6.997 7.096-6.997 4.009 0 7.122 3.113 7.122 6.997 0 3.859-3.063 6.997-7.122 6.997Zm.025-3.262c2.042 0 3.685-1.668 3.685-3.76 0-2.092-1.643-3.76-3.685-3.76-2.067 0-3.685 1.668-3.685 3.76 0 2.092 1.618 3.76 3.685 3.76Zm13.14 3.262c-2.938 0-4.681-1.644-4.681-4.009 0-2.789 2.315-4.507 6.05-4.507h3.536v-.174c0-1.444-.971-2.44-2.913-2.44-1.519 0-2.54.647-3.163 1.767l-3.162-1.568c1.37-1.793 3.337-3.063 6.35-3.063 3.959 0 6.225 2.067 6.225 5.453V164h-3.312v-2.067c-.971 1.395-2.814 2.341-4.93 2.341Zm.996-2.839c1.643 0 3.262-.996 3.934-2.44v-.722h-3.162c-2.042 0-2.864.647-2.864 1.693 0 .971.672 1.469 2.092 1.469Zm15.698 2.839c-3.312 0-6.474-2.714-6.474-6.997 0-4.283 3.087-6.997 6.524-6.997 1.768 0 3.237.747 4.158 1.992v-7.918h3.386V164h-3.386v-1.843c-.946 1.32-2.465 2.117-4.208 2.117Zm.672-3.237c2.117 0 3.735-1.693 3.735-3.785s-1.618-3.785-3.735-3.785c-2.067 0-3.735 1.669-3.735 3.785 0 2.117 1.668 3.785 3.735 3.785Zm-37.705 30.237c-3.187 0-5.204-1.195-6.275-3.337l3.312-1.295c.598 1.196 1.668 1.818 3.088 1.818 1.394 0 2.141-.672 2.141-1.469 0-.971-1.444-1.195-3.162-1.544-2.266-.473-4.781-1.17-4.781-4.009 0-2.266 2.191-4.233 5.503-4.208 2.838 0 4.532 1.071 5.777 2.864l-3.138 1.27c-.548-.897-1.394-1.42-2.639-1.42-1.345 0-1.992.548-1.992 1.295 0 .847 1.095 1.071 3.063 1.494 2.241.448 4.88 1.22 4.88 4.109 0 2.091-1.868 4.457-5.777 4.432Zm15.319 0c-1.818 0-3.337-.672-4.233-1.917v7.021h-3.412v-18.824h3.387v1.867c.896-1.319 2.415-2.141 4.233-2.141 3.386 0 6.474 2.714 6.474 6.997 0 4.283-3.138 6.997-6.449 6.997Zm-.698-3.237c2.067 0 3.711-1.668 3.711-3.785 0-2.116-1.644-3.785-3.711-3.785-2.116 0-3.735 1.693-3.735 3.785s1.619 3.785 3.735 3.785Zm15.867 3.237c-4.332 0-7.121-3.063-7.121-6.972 0-3.909 3.038-7.022 7.047-7.022 4.033 0 6.947 2.913 6.947 6.897v1.295h-10.682c.448 1.743 1.867 2.839 3.859 2.839 1.594 0 2.664-.697 3.337-1.793l2.813 1.643c-1.344 1.893-3.237 3.113-6.2 3.113Zm-.074-11.081c-1.743 0-3.088 1.021-3.636 2.59h7.171c-.448-1.668-1.743-2.59-3.535-2.59Zm15.655 11.081c-4.332 0-7.121-3.063-7.121-6.972 0-3.909 3.038-7.022 7.047-7.022 4.033 0 6.947 2.913 6.947 6.897v1.295h-10.682c.448 1.743 1.867 2.839 3.859 2.839 1.594 0 2.664-.697 3.337-1.793l2.813 1.643c-1.344 1.893-3.237 3.113-6.2 3.113Zm-.074-11.081c-1.743 0-3.088 1.021-3.636 2.59h7.171c-.448-1.668-1.743-2.59-3.535-2.59Zm15.008 11.081c-3.312 0-6.474-2.714-6.474-6.997 0-4.283 3.088-6.997 6.524-6.997 1.768 0 3.237.747 4.158 1.992v-7.918h3.386V191h-3.386v-1.843c-.946 1.32-2.465 2.117-4.208 2.117Zm.672-3.237c2.117 0 3.735-1.693 3.735-3.785s-1.618-3.785-3.735-3.785c-2.066 0-3.735 1.669-3.735 3.785 0 2.117 1.669 3.785 3.735 3.785Z"/>
</svg>
