<?xml version="1.0" encoding="utf-8"?>
<!-- Generator: Adobe Illustrator 16.0.0, SVG Export Plug-In . SVG Version: 6.00 Build 0)  -->
<!DOCTYPE svg PUBLIC "-//W3C//DTD SVG 1.1//EN" "http://www.w3.org/Graphics/SVG/1.1/DTD/svg11.dtd">
<svg version="1.1" id="PT_Download_on_the" xmlns="http://www.w3.org/2000/svg" xmlns:xlink="http://www.w3.org/1999/xlink" x="0px"
	 y="0px" width="135px" height="40px" viewBox="0 0 135 40" enable-background="new 0 0 135 40" xml:space="preserve">
<g>
	<path fill="#A6A6A6" d="M130.197,40H4.729C2.122,40,0,37.872,0,35.267V4.726C0,2.12,2.122,0,4.729,0h125.468
		C132.803,0,135,2.12,135,4.726v30.541C135,37.872,132.803,40,130.197,40L130.197,40z"/>
	<path d="M134.032,35.268c0,2.116-1.714,3.83-3.834,3.83H4.729c-2.119,0-3.839-1.714-3.839-3.83V4.725
		c0-2.115,1.72-3.835,3.839-3.835h125.468c2.121,0,3.834,1.72,3.834,3.835L134.032,35.268L134.032,35.268z"/>
	<g>
		<g>
			<path fill="#FFFFFF" d="M30.128,19.784c-0.029-3.223,2.639-4.791,2.761-4.864c-1.511-2.203-3.853-2.504-4.676-2.528
				c-1.967-0.207-3.875,1.177-4.877,1.177c-1.022,0-2.565-1.157-4.228-1.123c-2.14,0.033-4.142,1.272-5.24,3.196
				c-2.266,3.923-0.576,9.688,1.595,12.859c1.086,1.553,2.355,3.287,4.016,3.226c1.625-0.067,2.232-1.036,4.193-1.036
				c1.943,0,2.513,1.036,4.207,0.997c1.744-0.028,2.842-1.56,3.89-3.127c1.255-1.78,1.759-3.533,1.779-3.623
				C33.507,24.924,30.161,23.647,30.128,19.784z"/>
			<path fill="#FFFFFF" d="M26.928,10.306c0.874-1.093,1.472-2.58,1.306-4.089c-1.265,0.056-2.847,0.875-3.758,1.944
				c-0.806,0.942-1.526,2.486-1.34,3.938C24.557,12.205,26.016,11.382,26.928,10.306z"/>
		</g>
	</g>
	<g>
		<path fill="#FFFFFF" d="M53.717,31.504h-2.271l-1.244-3.909h-4.324l-1.185,3.909h-2.211l4.284-13.308h2.646L53.717,31.504z
			 M49.828,25.955l-1.125-3.475c-0.119-0.355-0.342-1.191-0.671-2.507h-0.04c-0.131,0.566-0.342,1.402-0.632,2.507l-1.105,3.475
			H49.828z"/>
		<path fill="#FFFFFF" d="M64.734,26.588c0,1.632-0.441,2.922-1.323,3.869c-0.79,0.843-1.771,1.264-2.942,1.264
			c-1.264,0-2.172-0.454-2.725-1.362h-0.04v5.055h-2.132V25.067c0-1.026-0.027-2.079-0.079-3.159h1.875l0.119,1.521h0.04
			c0.711-1.146,1.79-1.718,3.238-1.718c1.132,0,2.077,0.447,2.833,1.342C64.356,23.949,64.734,25.127,64.734,26.588z M62.562,26.666
			c0-0.934-0.21-1.704-0.632-2.31c-0.461-0.632-1.08-0.948-1.856-0.948c-0.526,0-1.004,0.176-1.431,0.523
			c-0.428,0.35-0.708,0.807-0.839,1.373c-0.066,0.264-0.099,0.48-0.099,0.65v1.6c0,0.698,0.214,1.287,0.642,1.768
			s0.984,0.721,1.668,0.721c0.803,0,1.428-0.31,1.875-0.928C62.338,28.496,62.562,27.68,62.562,26.666z"/>
		<path fill="#FFFFFF" d="M75.771,26.588c0,1.632-0.441,2.922-1.324,3.869c-0.789,0.843-1.77,1.264-2.941,1.264
			c-1.264,0-2.172-0.454-2.724-1.362h-0.039v5.055H66.61V25.067c0-1.026-0.027-2.079-0.079-3.159h1.875l0.119,1.521h0.04
			c0.71-1.146,1.789-1.718,3.238-1.718c1.131,0,2.076,0.447,2.834,1.342C75.393,23.949,75.771,25.127,75.771,26.588z M73.6,26.666
			c0-0.934-0.211-1.704-0.633-2.31c-0.461-0.632-1.078-0.948-1.855-0.948c-0.527,0-1.004,0.176-1.432,0.523
			c-0.428,0.35-0.707,0.807-0.838,1.373c-0.065,0.264-0.099,0.48-0.099,0.65v1.6c0,0.698,0.214,1.287,0.64,1.768
			c0.428,0.48,0.984,0.721,1.67,0.721c0.803,0,1.428-0.31,1.875-0.928C73.375,28.496,73.6,27.68,73.6,26.666z"/>
		<path fill="#FFFFFF" d="M88.111,27.772c0,1.132-0.393,2.053-1.182,2.764c-0.867,0.777-2.074,1.165-3.625,1.165
			c-1.432,0-2.58-0.276-3.449-0.829l0.494-1.777c0.936,0.566,1.963,0.85,3.082,0.85c0.803,0,1.428-0.182,1.877-0.544
			c0.447-0.362,0.67-0.848,0.67-1.454c0-0.54-0.184-0.995-0.553-1.364c-0.367-0.369-0.98-0.712-1.836-1.029
			c-2.33-0.869-3.494-2.142-3.494-3.816c0-1.094,0.408-1.991,1.225-2.689c0.814-0.699,1.9-1.048,3.258-1.048
			c1.211,0,2.217,0.211,3.02,0.632l-0.533,1.738c-0.75-0.408-1.598-0.612-2.547-0.612c-0.75,0-1.336,0.185-1.756,0.553
			c-0.355,0.329-0.533,0.73-0.533,1.205c0,0.526,0.203,0.961,0.611,1.303c0.355,0.316,1,0.658,1.936,1.027
			c1.145,0.461,1.986,1,2.527,1.618C87.842,26.081,88.111,26.852,88.111,27.772z"/>
		<path fill="#FFFFFF" d="M95.16,23.508h-2.35v4.659c0,1.185,0.414,1.777,1.244,1.777c0.381,0,0.697-0.033,0.947-0.099l0.059,1.619
			c-0.42,0.157-0.973,0.236-1.658,0.236c-0.842,0-1.5-0.257-1.975-0.77c-0.473-0.514-0.711-1.376-0.711-2.587v-4.837h-1.4v-1.6h1.4
			v-1.757l2.094-0.632v2.389h2.35V23.508z"/>
		<path fill="#FFFFFF" d="M105.764,26.627c0,1.475-0.422,2.686-1.264,3.633c-0.883,0.975-2.055,1.461-3.516,1.461
			c-1.408,0-2.529-0.467-3.365-1.401s-1.254-2.113-1.254-3.534c0-1.487,0.43-2.705,1.293-3.652c0.861-0.948,2.023-1.422,3.484-1.422
			c1.408,0,2.541,0.467,3.396,1.402C105.355,24.021,105.764,25.192,105.764,26.627z M103.551,26.696
			c0-0.885-0.189-1.644-0.572-2.277c-0.447-0.766-1.086-1.148-1.914-1.148c-0.857,0-1.508,0.383-1.955,1.148
			c-0.383,0.634-0.572,1.405-0.572,2.317c0,0.885,0.189,1.644,0.572,2.276c0.461,0.766,1.105,1.148,1.936,1.148
			c0.814,0,1.453-0.39,1.914-1.168C103.354,28.347,103.551,27.58,103.551,26.696z"/>
		<path fill="#FFFFFF" d="M112.693,23.783c-0.211-0.039-0.436-0.059-0.672-0.059c-0.75,0-1.33,0.283-1.738,0.85
			c-0.355,0.5-0.533,1.132-0.533,1.895v5.035h-2.131l0.02-6.574c0-1.106-0.027-2.113-0.08-3.021h1.857l0.078,1.836h0.059
			c0.225-0.631,0.58-1.139,1.066-1.52c0.475-0.343,0.988-0.514,1.541-0.514c0.197,0,0.375,0.014,0.533,0.039V23.783z"/>
		<path fill="#FFFFFF" d="M122.229,26.252c0,0.382-0.025,0.704-0.078,0.967h-6.396c0.025,0.948,0.334,1.673,0.928,2.173
			c0.539,0.447,1.236,0.671,2.092,0.671c0.947,0,1.811-0.151,2.588-0.454l0.334,1.48c-0.908,0.396-1.98,0.593-3.217,0.593
			c-1.488,0-2.656-0.438-3.506-1.313c-0.848-0.875-1.273-2.05-1.273-3.524c0-1.447,0.395-2.652,1.186-3.613
			c0.828-1.026,1.947-1.539,3.355-1.539c1.383,0,2.43,0.513,3.141,1.539C121.945,24.047,122.229,25.055,122.229,26.252z
			 M120.195,25.699c0.014-0.632-0.125-1.178-0.414-1.639c-0.369-0.593-0.936-0.889-1.699-0.889c-0.697,0-1.264,0.289-1.697,0.869
			c-0.355,0.461-0.566,1.014-0.631,1.658H120.195z"/>
	</g>
	<g>
		<g>
			<path fill="#FFFFFF" d="M49.123,10.009c0,1.177-0.353,2.063-1.058,2.658c-0.653,0.549-1.581,0.824-2.783,0.824
				c-0.596,0-1.106-0.026-1.533-0.078V6.982c0.557-0.09,1.157-0.136,1.805-0.136c1.145,0,2.008,0.249,2.59,0.747
				C48.795,8.156,49.123,8.961,49.123,10.009z M48.017,10.038c0-0.763-0.202-1.348-0.606-1.756
				c-0.404-0.407-0.994-0.611-1.771-0.611c-0.33,0-0.611,0.022-0.844,0.068v4.889c0.129,0.02,0.365,0.029,0.708,0.029
				c0.802,0,1.421-0.223,1.857-0.669S48.017,10.892,48.017,10.038z"/>
			<path fill="#FFFFFF" d="M54.554,10.853c0,0.188-0.014,0.346-0.039,0.475h-3.143c0.013,0.466,0.164,0.821,0.455,1.067
				c0.266,0.22,0.608,0.33,1.028,0.33c0.466,0,0.89-0.074,1.271-0.223l0.164,0.728c-0.446,0.194-0.973,0.291-1.581,0.291
				c-0.73,0-1.305-0.215-1.722-0.645s-0.625-1.007-0.625-1.731c0-0.711,0.193-1.303,0.582-1.775
				c0.407-0.504,0.956-0.756,1.648-0.756c0.679,0,1.193,0.252,1.542,0.756C54.415,9.77,54.554,10.265,54.554,10.853z M53.554,10.582
				c0.007-0.311-0.062-0.579-0.203-0.805c-0.182-0.291-0.459-0.437-0.834-0.437c-0.343,0-0.621,0.142-0.835,0.427
				c-0.174,0.227-0.277,0.498-0.31,0.815H53.554z"/>
			<path fill="#FFFFFF" d="M58.957,12.079c0,0.438-0.161,0.79-0.484,1.055s-0.77,0.397-1.339,0.397c-0.537,0-0.992-0.107-1.367-0.32
				l0.223-0.776c0.362,0.22,0.747,0.33,1.154,0.33c0.537,0,0.805-0.197,0.805-0.592c0-0.174-0.058-0.318-0.174-0.432
				c-0.117-0.113-0.324-0.225-0.621-0.334c-0.841-0.311-1.261-0.763-1.261-1.358c0-0.407,0.155-0.747,0.465-1.019
				c0.311-0.271,0.722-0.407,1.232-0.407c0.466,0,0.863,0.095,1.193,0.285L58.559,9.66c-0.304-0.181-0.624-0.271-0.96-0.271
				c-0.22,0-0.392,0.052-0.515,0.155c-0.122,0.104-0.184,0.235-0.184,0.397c0,0.161,0.064,0.293,0.193,0.396
				c0.11,0.097,0.323,0.203,0.641,0.319C58.549,10.966,58.957,11.44,58.957,12.079z"/>
			<path fill="#FFFFFF" d="M63.885,8.845l-0.203,0.795c-0.266-0.129-0.569-0.194-0.912-0.194c-0.459,0-0.823,0.154-1.092,0.461
				c-0.268,0.307-0.402,0.697-0.402,1.169c0,0.498,0.141,0.892,0.422,1.183s0.639,0.437,1.072,0.437c0.323,0,0.64-0.064,0.95-0.194
				l0.146,0.786c-0.343,0.162-0.775,0.243-1.3,0.243c-0.718,0-1.29-0.218-1.717-0.655s-0.64-1.02-0.64-1.751
				c0-0.73,0.229-1.331,0.688-1.799s1.076-0.703,1.853-0.703C63.19,8.622,63.569,8.696,63.885,8.845z"/>
			<path fill="#FFFFFF" d="M68.851,13.433H67.91l-0.077-0.543h-0.029c-0.323,0.433-0.782,0.65-1.377,0.65
				c-0.446,0-0.806-0.143-1.077-0.427c-0.246-0.258-0.368-0.579-0.368-0.96c0-0.576,0.24-1.015,0.723-1.319
				c0.481-0.304,1.159-0.453,2.032-0.446V10.3c0-0.621-0.326-0.931-0.978-0.931c-0.465,0-0.875,0.117-1.229,0.349l-0.213-0.688
				c0.438-0.271,0.979-0.407,1.617-0.407c1.233,0,1.85,0.65,1.85,1.95v1.736C68.783,12.78,68.806,13.155,68.851,13.433z
				 M67.764,11.813v-0.727c-1.157-0.02-1.735,0.297-1.735,0.95c0,0.246,0.067,0.43,0.202,0.553c0.135,0.123,0.306,0.184,0.511,0.184
				c0.231,0,0.445-0.073,0.642-0.218s0.317-0.331,0.362-0.558C67.758,11.946,67.764,11.884,67.764,11.813z"/>
			<path fill="#FFFFFF" d="M73.109,9.641c-0.104-0.02-0.213-0.029-0.33-0.029c-0.369,0-0.652,0.139-0.854,0.417
				c-0.174,0.246-0.262,0.556-0.262,0.931v2.474h-1.049l0.01-3.23c0-0.543-0.012-1.038-0.037-1.484h0.91l0.039,0.902h0.029
				c0.109-0.311,0.285-0.56,0.523-0.747c0.234-0.168,0.486-0.252,0.758-0.252c0.096,0,0.184,0.006,0.262,0.019V9.641z"/>
			<path fill="#FFFFFF" d="M76.939,9.641c-0.104-0.02-0.213-0.029-0.33-0.029c-0.367,0-0.652,0.139-0.854,0.417
				c-0.174,0.246-0.262,0.556-0.262,0.931v2.474h-1.047l0.01-3.23c0-0.543-0.014-1.038-0.039-1.484h0.912l0.039,0.902h0.029
				c0.109-0.311,0.283-0.56,0.523-0.747c0.232-0.168,0.484-0.252,0.756-0.252c0.098,0,0.186,0.006,0.262,0.019V9.641z"/>
			<path fill="#FFFFFF" d="M82.16,10.853c0,0.188-0.014,0.346-0.039,0.475h-3.143c0.012,0.466,0.164,0.821,0.455,1.067
				c0.266,0.22,0.607,0.33,1.027,0.33c0.467,0,0.891-0.074,1.271-0.223l0.164,0.728c-0.445,0.194-0.973,0.291-1.58,0.291
				c-0.73,0-1.305-0.215-1.723-0.645c-0.416-0.43-0.625-1.007-0.625-1.731c0-0.711,0.193-1.303,0.582-1.775
				c0.408-0.504,0.957-0.756,1.648-0.756c0.68,0,1.193,0.252,1.543,0.756C82.02,9.77,82.16,10.265,82.16,10.853z M81.16,10.582
				c0.006-0.311-0.062-0.579-0.203-0.805c-0.182-0.291-0.459-0.437-0.834-0.437c-0.344,0-0.621,0.142-0.836,0.427
				c-0.174,0.227-0.277,0.498-0.309,0.815H81.16z"/>
			<path fill="#FFFFFF" d="M87.814,8.719c-0.027,0.382-0.039,0.828-0.039,1.339v2.696c0,1.015-0.227,1.727-0.68,2.134
				c-0.414,0.375-0.996,0.562-1.746,0.562c-0.652,0-1.18-0.123-1.58-0.369l0.242-0.805c0.395,0.239,0.84,0.359,1.338,0.359
				c0.926,0,1.387-0.498,1.387-1.494v-0.456h-0.02c-0.291,0.479-0.752,0.718-1.387,0.718c-0.568,0-1.037-0.216-1.406-0.65
				c-0.369-0.433-0.553-0.983-0.553-1.649c0-0.756,0.213-1.368,0.641-1.833c0.395-0.433,0.875-0.65,1.445-0.65
				c0.641,0,1.1,0.249,1.377,0.747h0.02l0.039-0.65H87.814z M86.727,11.416v-0.834c0-0.317-0.098-0.588-0.297-0.815
				c-0.197-0.227-0.459-0.339-0.783-0.339c-0.357,0-0.652,0.148-0.883,0.446c-0.23,0.298-0.346,0.695-0.346,1.193
				c0,0.453,0.107,0.818,0.322,1.096c0.221,0.304,0.523,0.456,0.906,0.456c0.232,0,0.443-0.069,0.627-0.208
				c0.186-0.139,0.318-0.328,0.395-0.567C86.707,11.726,86.727,11.583,86.727,11.416z"/>
			<path fill="#FFFFFF" d="M93.168,13.433h-0.941l-0.078-0.543h-0.029c-0.322,0.433-0.781,0.65-1.377,0.65
				c-0.445,0-0.805-0.143-1.076-0.427c-0.246-0.258-0.369-0.579-0.369-0.96c0-0.576,0.24-1.015,0.723-1.319
				c0.482-0.304,1.16-0.453,2.033-0.446V10.3c0-0.621-0.326-0.931-0.979-0.931c-0.465,0-0.875,0.117-1.229,0.349l-0.213-0.688
				c0.438-0.271,0.979-0.407,1.617-0.407c1.232,0,1.85,0.65,1.85,1.95v1.736C93.1,12.78,93.123,13.155,93.168,13.433z M92.08,11.813
				v-0.727c-1.156-0.02-1.734,0.297-1.734,0.95c0,0.246,0.066,0.43,0.201,0.553c0.135,0.123,0.307,0.184,0.512,0.184
				c0.23,0,0.445-0.073,0.641-0.218c0.197-0.146,0.318-0.331,0.363-0.558C92.074,11.946,92.08,11.884,92.08,11.813z"/>
			<path fill="#FFFFFF" d="M97.426,9.641c-0.104-0.02-0.213-0.029-0.33-0.029c-0.369,0-0.652,0.139-0.854,0.417
				c-0.174,0.246-0.262,0.556-0.262,0.931v2.474h-1.049l0.01-3.23c0-0.543-0.012-1.038-0.037-1.484h0.91l0.039,0.902h0.029
				c0.109-0.311,0.285-0.56,0.523-0.747c0.234-0.168,0.486-0.252,0.758-0.252c0.096,0,0.184,0.006,0.262,0.019V9.641z"/>
			<path fill="#FFFFFF" d="M105.689,13.433h-1.047v-2.7c0-0.832-0.316-1.248-0.951-1.248c-0.311,0-0.562,0.114-0.756,0.343
				s-0.291,0.499-0.291,0.808v2.796h-1.049v-3.366c0-0.414-0.012-0.863-0.037-1.349h0.92l0.049,0.737h0.029
				c0.123-0.229,0.305-0.418,0.543-0.569c0.285-0.176,0.602-0.265,0.951-0.265c0.439,0,0.805,0.142,1.096,0.427
				c0.363,0.349,0.543,0.87,0.543,1.562V13.433z"/>
			<path fill="#FFFFFF" d="M111.064,13.433h-0.941l-0.078-0.543h-0.029c-0.322,0.433-0.781,0.65-1.377,0.65
				c-0.445,0-0.805-0.143-1.076-0.427c-0.246-0.258-0.369-0.579-0.369-0.96c0-0.576,0.24-1.015,0.723-1.319
				c0.482-0.304,1.16-0.453,2.033-0.446V10.3c0-0.621-0.326-0.931-0.979-0.931c-0.465,0-0.875,0.117-1.229,0.349l-0.213-0.688
				c0.438-0.271,0.979-0.407,1.617-0.407c1.232,0,1.85,0.65,1.85,1.95v1.736C110.996,12.78,111.02,13.155,111.064,13.433z
				 M109.977,11.813v-0.727c-1.156-0.02-1.734,0.297-1.734,0.95c0,0.246,0.066,0.43,0.201,0.553
				c0.135,0.123,0.307,0.184,0.512,0.184c0.23,0,0.445-0.073,0.641-0.218c0.197-0.146,0.318-0.331,0.363-0.558
				C109.971,11.946,109.977,11.884,109.977,11.813z"/>
		</g>
	</g>
</g>
</svg>
