<svg id="Layer_1" data-name="Layer 1" xmlns="http://www.w3.org/2000/svg" xmlns:xlink="http://www.w3.org/1999/xlink" viewBox="0 0 98 110"><defs><style>.cls-1{fill:url(#linear-gradient);}.cls-2{fill:url(#radial-gradient);}.cls-3{fill:url(#radial-gradient-2);}.cls-4{fill:url(#radial-gradient-3);}.cls-5{fill:url(#radial-gradient-4);}.cls-6{fill:url(#radial-gradient-5);}.cls-7{fill:url(#radial-gradient-6);}.cls-8{fill:url(#radial-gradient-7);}.cls-9{fill:url(#radial-gradient-8);}.cls-10{fill:url(#radial-gradient-9);}.cls-11{fill:url(#radial-gradient-10);}.cls-12{fill:url(#linear-gradient-2);}.cls-13,.cls-14{fill-rule:evenodd;}.cls-14{stroke:#fff;stroke-width:1.3px;}</style><linearGradient id="linear-gradient" x1="-49.77" y1="130.93" x2="-49.91" y2="130.79" gradientTransform="matrix(480, 0, 0, -496, 23966.18, 64956.83)" gradientUnits="userSpaceOnUse"><stop offset="0.05" stop-color="#fff44f"/><stop offset="0.37" stop-color="#ff980e"/><stop offset="0.53" stop-color="#ff3647"/><stop offset="0.7" stop-color="#e31587"/></linearGradient><radialGradient id="radial-gradient" cx="-49.93" cy="131.3" r="0.23" gradientTransform="matrix(384, 0, 0, -390.47, 19251.51, 51288.21)" gradientUnits="userSpaceOnUse"><stop offset="0.13" stop-color="#ffbd4f"/><stop offset="0.28" stop-color="#ff980e"/><stop offset="0.47" stop-color="#ff3750"/><stop offset="0.78" stop-color="#eb0878"/><stop offset="0.86" stop-color="#e50080"/></radialGradient><radialGradient id="radial-gradient-2" cx="-49.91" cy="131.1" r="0.23" gradientTransform="matrix(393.6, 0, 0, -390.47, 19688.4, 51237.84)" gradientUnits="userSpaceOnUse"><stop offset="0.3" stop-color="#960e18"/><stop offset="0.35" stop-color="#b11927" stop-opacity="0.74"/><stop offset="0.43" stop-color="#db293d" stop-opacity="0.34"/><stop offset="0.5" stop-color="#f5334b" stop-opacity="0.09"/><stop offset="0.53" stop-color="#ff3750" stop-opacity="0"/></radialGradient><radialGradient id="radial-gradient-3" cx="-51.25" cy="130.92" r="0.26" gradientTransform="matrix(115.24, 0, 0, -195.64, 5959.98, 25610.16)" gradientUnits="userSpaceOnUse"><stop offset="0.13" stop-color="#fff44f"/><stop offset="0.53" stop-color="#ff980e"/></radialGradient><radialGradient id="radial-gradient-4" cx="-50.3" cy="131.18" r="0.18" gradientTransform="matrix(213.48, 0, 0, -233.98, 10772.59, 30765.48)" gradientUnits="userSpaceOnUse"><stop offset="0.35" stop-color="#3a8ee6"/><stop offset="0.67" stop-color="#9059ff"/><stop offset="1" stop-color="#c139e6"/></radialGradient><radialGradient id="radial-gradient-5" cx="-50.28" cy="131.32" r="0.11" gradientTransform="matrix(192.13, 0, 0, -233.98, 9705.17, 30765.48)" gradientUnits="userSpaceOnUse"><stop offset="0.21" stop-color="#9059ff" stop-opacity="0"/><stop offset="0.97" stop-color="#6e008b" stop-opacity="0.6"/></radialGradient><radialGradient id="radial-gradient-6" cx="-50.42" cy="132.17" r="0.53" gradientTransform="matrix(58.52, 0, 0, -58.73, 2993.49, 7770.5)" gradientUnits="userSpaceOnUse"><stop offset="0.1" stop-color="#ffe226"/><stop offset="0.79" stop-color="#ff7139"/></radialGradient><radialGradient id="radial-gradient-7" cx="-49.77" cy="131.19" r="0.33" gradientTransform="matrix(450.15, 0, 0, -377.88, 22474.79, 49563.36)" gradientUnits="userSpaceOnUse"><stop offset="0.11" stop-color="#fff44f"/><stop offset="0.46" stop-color="#ff980e"/><stop offset="0.72" stop-color="#ff3647"/><stop offset="0.9" stop-color="#e31587"/></radialGradient><radialGradient id="radial-gradient-8" cx="-49.53" cy="129.73" r="0.64" gradientTransform="matrix(16.08, 151.87, 153.03, -15.96, -18997.66, 9582.61)" gradientUnits="userSpaceOnUse"><stop offset="0" stop-color="#fff44f"/><stop offset="0.3" stop-color="#ff980e"/><stop offset="0.57" stop-color="#ff3647"/><stop offset="0.74" stop-color="#e31587"/></radialGradient><radialGradient id="radial-gradient-9" cx="-50.58" cy="131.74" r="0.44" gradientTransform="matrix(195.14, 0, 0, -191.71, 9912.14, 25275.12)" gradientUnits="userSpaceOnUse"><stop offset="0.14" stop-color="#fff44f"/><stop offset="0.48" stop-color="#ff980e"/><stop offset="0.66" stop-color="#ff3647"/><stop offset="0.9" stop-color="#e31587"/></radialGradient><radialGradient id="radial-gradient-10" cx="-49.79" cy="131.96" r="0.57" gradientTransform="matrix(178.59, 0, 0, -159.77, 8957.86, 21107.61)" gradientUnits="userSpaceOnUse"><stop offset="0.09" stop-color="#fff44f"/><stop offset="0.63" stop-color="#ff980e"/></radialGradient><linearGradient id="linear-gradient-2" x1="-49.78" y1="130.93" x2="-49.89" y2="130.8" gradientTransform="matrix(480, 0, 0, -496, 23965.98, 64956.83)" gradientUnits="userSpaceOnUse"><stop offset="0.17" stop-color="#fff44f" stop-opacity="0.8"/><stop offset="0.6" stop-color="#fff44f" stop-opacity="0"/></linearGradient></defs><path id="shape-base" class="cls-1" d="M86.19,31.8c-1.91-4.61-5.79-9.59-8.84-11.16A45.75,45.75,0,0,1,81.81,34a.38.38,0,0,1,0,.08c-5-12.43-13.44-17.44-20.34-28.35-.35-.55-.7-1.1-1-1.69-.17-.3-.33-.6-.48-.91a7.79,7.79,0,0,1-.66-1.74.12.12,0,0,0-.1-.12.14.14,0,0,0-.09,0h0l0,0,0,0C48,7.78,44.25,19.78,43.9,25.78a22,22,0,0,0-12.13,4.68q-.56-.47-1.14-.87a20.4,20.4,0,0,1-.13-10.77A32.57,32.57,0,0,0,19.89,27h0c-1.75-2.21-1.63-9.52-1.53-11a8.61,8.61,0,0,0-1.47.78,32.93,32.93,0,0,0-4.31,3.69,38.88,38.88,0,0,0-4.11,4.94h0A37.19,37.19,0,0,0,2.53,38.74l-.06.3c-.08.38-.38,2.33-.43,2.75a.28.28,0,0,0,0,.09A41.48,41.48,0,0,0,1.31,48v.22a44.09,44.09,0,0,0,87.54,7.46c.08-.56.14-1.13.2-1.7A45.29,45.29,0,0,0,86.19,31.8ZM35.38,66.31l.61.3h0Zm46.44-32.2v0Z"/><path id="body-outer-ring" class="cls-2" d="M86.19,31.8c-1.91-4.61-5.79-9.59-8.84-11.16A45.75,45.75,0,0,1,81.81,34s0,0,0,0v0C86,45.39,83.72,56.85,80.45,63.86c-5,10.84-17.28,22-36.42,21.41-20.69-.58-38.91-15.93-42.31-36-.62-3.17,0-4.78.31-7.36A32.85,32.85,0,0,0,1.31,48v.22a44.09,44.09,0,0,0,87.54,7.46c.08-.56.14-1.13.2-1.7A45.29,45.29,0,0,0,86.19,31.8Z"/><path id="body-outer-ring-shadow" class="cls-3" d="M86.19,31.8c-1.91-4.61-5.79-9.59-8.84-11.16A45.75,45.75,0,0,1,81.81,34s0,0,0,0v0C86,45.39,83.72,56.85,80.45,63.86c-5,10.84-17.28,22-36.42,21.41-20.69-.58-38.91-15.93-42.31-36-.62-3.17,0-4.78.31-7.36A32.85,32.85,0,0,0,1.31,48v.22a44.09,44.09,0,0,0,87.54,7.46c.08-.56.14-1.13.2-1.7A45.29,45.29,0,0,0,86.19,31.8Z"/><path id="tail-tip" class="cls-4" d="M64.77,37l.27.2A23.83,23.83,0,0,0,61,31.84C47.24,18.14,57.36,2.13,59.06,1.32l0,0C48,7.78,44.25,19.78,43.9,25.78c.52,0,1-.08,1.55-.08A22.27,22.27,0,0,1,64.77,37Z"/><path id="globe-base" class="cls-5" d="M45.48,39.72c-.07,1.09-3.95,4.88-5.3,4.88-12.54,0-14.58,7.58-14.58,7.58.56,6.38,5,11.64,10.39,14.43l.74.35c.43.19.86.37,1.3.53a19.67,19.67,0,0,0,5.73,1.11c22,1,26.24-26.27,10.38-34.2A15.23,15.23,0,0,1,64.77,37,22.27,22.27,0,0,0,45.45,25.7c-.52,0-1,0-1.55.08a22,22,0,0,0-12.13,4.68c.67.56,1.43,1.32,3,2.9,3,3,10.66,6,10.68,6.36Z"/><path id="globe-shadow" class="cls-6" d="M45.48,39.72c-.07,1.09-3.95,4.88-5.3,4.88-12.54,0-14.58,7.58-14.58,7.58.56,6.38,5,11.64,10.39,14.43l.74.35c.43.19.86.37,1.3.53a19.67,19.67,0,0,0,5.73,1.11c22,1,26.24-26.27,10.38-34.2A15.23,15.23,0,0,1,64.77,37,22.27,22.27,0,0,0,45.45,25.7c-.52,0-1,0-1.55.08a22,22,0,0,0-12.13,4.68c.67.56,1.43,1.32,3,2.9,3,3,10.66,6,10.68,6.36Z"/><path id="ear" class="cls-7" d="M29.71,29l.92.6a20.4,20.4,0,0,1-.13-10.77A32.57,32.57,0,0,0,19.89,27c.21,0,6.61-.12,9.82,2Z"/><path id="body" class="cls-8" d="M1.72,49.24c3.4,20.1,21.62,35.45,42.31,36,19.14.55,31.37-10.57,36.42-21.41,3.27-7,5.54-18.47,1.38-29.75h0v0s0-.05,0,0a.38.38,0,0,1,0,.08c1.56,10.21-3.63,20.1-11.75,26.79l0,0c-15.82,12.89-31,7.78-34,5.69l-.64-.32c-9.23-4.41-13-12.82-12.22-20a11.31,11.31,0,0,1-10.44-6.57,16.6,16.6,0,0,1,16.2-.65,22,22,0,0,0,16.56.65c0-.36-7.69-3.41-10.68-6.36-1.6-1.57-2.36-2.33-3-2.9q-.56-.47-1.14-.87l-.92-.6c-3.21-2.09-9.61-2-9.82-2h0c-1.75-2.21-1.63-9.52-1.53-11a7.38,7.38,0,0,0-1.47.78,32.93,32.93,0,0,0-4.31,3.69,38.88,38.88,0,0,0-4.11,4.94h0A37.19,37.19,0,0,0,2.53,38.74c0,.1-1.59,6.95-.81,10.5Z"/><path id="tail-flame" class="cls-9" d="M61,31.84A23.83,23.83,0,0,1,65,37.18c.24.19.47.37.66.54,10,9.21,4.76,22.24,4.37,23.17C78.19,54.2,83.38,44.31,81.82,34.1c-5-12.43-13.44-17.44-20.34-28.35-.35-.55-.7-1.1-1-1.69-.17-.3-.33-.6-.48-.91a7.79,7.79,0,0,1-.66-1.74.12.12,0,0,0-.1-.12.14.14,0,0,0-.09,0h0l0,0c-1.7.81-11.82,16.82,1.89,30.52Z"/><path id="tail-small" class="cls-10" d="M65.7,37.72c-.19-.17-.42-.35-.66-.54l-.27-.2A15.23,15.23,0,0,0,54.14,34.4C70,42.33,65.74,69.63,43.76,68.6A19.67,19.67,0,0,1,38,67.49c-.44-.16-.87-.34-1.3-.53L36,66.61h0c3.07,2.1,18.21,7.21,34-5.68l0,0c.39-.93,5.63-14-4.37-23.17Z"/><path id="cheek-tufts" class="cls-11" d="M25.6,52.18s2-7.58,14.58-7.58c1.35,0,5.23-3.79,5.3-4.88s-8,3.36-16.56-.65a16.6,16.6,0,0,0-16.2.65,11.31,11.31,0,0,0,10.44,6.57c-.82,7.2,3,15.61,12.22,20l.61.3C30.61,63.82,26.16,58.56,25.6,52.18Z"/><path id="overlay-yellow" class="cls-12" d="M86.19,31.8c-1.91-4.61-5.79-9.59-8.84-11.16A45.75,45.75,0,0,1,81.81,34a.38.38,0,0,1,0,.08c-5-12.43-13.44-17.44-20.34-28.35-.35-.55-.7-1.1-1-1.69-.17-.3-.33-.6-.48-.91a7.79,7.79,0,0,1-.66-1.74.12.12,0,0,0-.1-.12.14.14,0,0,0-.09,0h0l0,0,0,0C48,7.78,44.25,19.78,43.9,25.78c.51,0,1-.08,1.55-.08A22.28,22.28,0,0,1,64.77,37,15.23,15.23,0,0,0,54.14,34.4C70,42.33,65.74,69.63,43.76,68.6A19.67,19.67,0,0,1,38,67.49c-.44-.16-.87-.34-1.3-.53L36,66.61h0l-.64-.31.61.3c-5.39-2.79-9.83-8-10.39-14.43,0,0,2-7.58,14.57-7.58,1.36,0,5.23-3.79,5.31-4.88,0-.36-7.69-3.41-10.68-6.36-1.6-1.57-2.36-2.33-3-2.9a13.87,13.87,0,0,0-1.15-.87,20.5,20.5,0,0,1-.12-10.77A32.57,32.57,0,0,0,19.89,27h0c-1.75-2.21-1.63-9.52-1.53-11a8,8,0,0,0-1.47.78,32.93,32.93,0,0,0-4.31,3.69,38.88,38.88,0,0,0-4.11,4.94h0A37.19,37.19,0,0,0,2.53,38.74l-.06.3c-.08.38-.45,2.35-.51,2.78,0,0,0,0,0,0A52.76,52.76,0,0,0,1.31,48v.22a44.09,44.09,0,0,0,87.54,7.46c.08-.56.14-1.13.2-1.7A45.29,45.29,0,0,0,86.19,31.8Zm-4.37,2.26v0h0Z"/><polygon id="img-mac-step-3-d" class="cls-13" points="73.19 76.9 73.19 101.8 78.69 96.5 81.89 103.9 86.89 101.7 83.69 94.3 91.19 93.8 73.19 76.9"/><polygon id="img-mac-step-3-d-2" data-name="img-mac-step-3-d" class="cls-14" points="73.19 76.9 73.19 101.8 78.69 96.5 81.89 103.9 86.89 101.7 83.69 94.3 91.19 93.8 73.19 76.9"/></svg>