<svg data-name="Layer 1" xmlns="http://www.w3.org/2000/svg" viewBox="0 0 98 110"><defs><linearGradient id="a" x1="-49.77" y1="130.93" x2="-49.91" y2="130.79" gradientTransform="matrix(480 0 0 -496 23966.18 64956.83)" gradientUnits="userSpaceOnUse"><stop offset=".05" stop-color="#fff44f"/><stop offset=".37" stop-color="#ff980e"/><stop offset=".53" stop-color="#ff3647"/><stop offset=".7" stop-color="#e31587"/></linearGradient><radialGradient id="b" cx="-49.93" cy="131.3" r=".23" gradientTransform="matrix(384 0 0 -390.47 19251.51 51288.21)" gradientUnits="userSpaceOnUse"><stop offset=".13" stop-color="#ffbd4f"/><stop offset=".28" stop-color="#ff980e"/><stop offset=".47" stop-color="#ff3750"/><stop offset=".78" stop-color="#eb0878"/><stop offset=".86" stop-color="#e50080"/></radialGradient><radialGradient id="c" cx="-49.91" cy="131.1" r=".23" gradientTransform="matrix(393.6 0 0 -390.47 19688.4 51237.84)" gradientUnits="userSpaceOnUse"><stop offset=".3" stop-color="#960e18"/><stop offset=".35" stop-color="#b11927" stop-opacity=".74"/><stop offset=".43" stop-color="#db293d" stop-opacity=".34"/><stop offset=".5" stop-color="#f5334b" stop-opacity=".09"/><stop offset=".53" stop-color="#ff3750" stop-opacity="0"/></radialGradient><radialGradient id="d" cx="-51.25" cy="130.92" r=".26" gradientTransform="matrix(115.24 0 0 -195.64 5959.98 25610.16)" gradientUnits="userSpaceOnUse"><stop offset=".13" stop-color="#fff44f"/><stop offset=".53" stop-color="#ff980e"/></radialGradient><radialGradient id="e" cx="-50.3" cy="131.18" r=".18" gradientTransform="matrix(213.48 0 0 -233.98 10772.59 30765.48)" gradientUnits="userSpaceOnUse"><stop offset=".35" stop-color="#3a8ee6"/><stop offset=".67" stop-color="#9059ff"/><stop offset="1" stop-color="#c139e6"/></radialGradient><radialGradient id="f" cx="-50.28" cy="131.32" r=".11" gradientTransform="matrix(192.13 0 0 -233.98 9705.17 30765.48)" gradientUnits="userSpaceOnUse"><stop offset=".21" stop-color="#9059ff" stop-opacity="0"/><stop offset=".97" stop-color="#6e008b" stop-opacity=".6"/></radialGradient><radialGradient id="g" cx="-50.42" cy="132.17" r=".53" gradientTransform="matrix(58.52 0 0 -58.73 2993.49 7770.5)" gradientUnits="userSpaceOnUse"><stop offset=".1" stop-color="#ffe226"/><stop offset=".79" stop-color="#ff7139"/></radialGradient><radialGradient id="h" cx="-49.77" cy="131.19" r=".33" gradientTransform="matrix(450.15 0 0 -377.88 22474.79 49563.36)" gradientUnits="userSpaceOnUse"><stop offset=".11" stop-color="#fff44f"/><stop offset=".46" stop-color="#ff980e"/><stop offset=".72" stop-color="#ff3647"/><stop offset=".9" stop-color="#e31587"/></radialGradient><radialGradient id="i" cx="-49.53" cy="129.73" r=".64" gradientTransform="matrix(16.08 151.87 153.03 -15.96 -18997.66 9582.61)" gradientUnits="userSpaceOnUse"><stop offset="0" stop-color="#fff44f"/><stop offset=".3" stop-color="#ff980e"/><stop offset=".57" stop-color="#ff3647"/><stop offset=".74" stop-color="#e31587"/></radialGradient><radialGradient id="j" cx="-50.58" cy="131.74" r=".44" gradientTransform="matrix(195.14 0 0 -191.71 9912.14 25275.12)" gradientUnits="userSpaceOnUse"><stop offset=".14" stop-color="#fff44f"/><stop offset=".48" stop-color="#ff980e"/><stop offset=".66" stop-color="#ff3647"/><stop offset=".9" stop-color="#e31587"/></radialGradient><radialGradient id="k" cx="-49.79" cy="131.96" r=".57" gradientTransform="matrix(178.59 0 0 -159.77 8957.86 21107.61)" gradientUnits="userSpaceOnUse"><stop offset=".09" stop-color="#fff44f"/><stop offset=".63" stop-color="#ff980e"/></radialGradient><linearGradient id="l" x1="-49.78" y1="130.93" x2="-49.89" y2="130.8" gradientTransform="matrix(480 0 0 -496 23965.98 64956.83)" gradientUnits="userSpaceOnUse"><stop offset=".17" stop-color="#fff44f" stop-opacity=".8"/><stop offset=".6" stop-color="#fff44f" stop-opacity="0"/></linearGradient></defs><path d="M86.19 31.8c-1.91-4.61-5.79-9.59-8.84-11.16A45.75 45.75 0 0 1 81.81 34a.38.38 0 0 1 0 .08c-5-12.43-13.44-17.44-20.34-28.35-.35-.55-.7-1.1-1-1.69-.17-.3-.33-.6-.48-.91a7.79 7.79 0 0 1-.66-1.74.12.12 0 0 0-.1-.12.14.14 0 0 0-.09 0C48 7.78 44.25 19.78 43.9 25.78a22 22 0 0 0-12.13 4.68q-.56-.47-1.14-.87a20.4 20.4 0 0 1-.13-10.77A32.57 32.57 0 0 0 19.89 27c-1.75-2.21-1.63-9.52-1.53-11a8.61 8.61 0 0 0-1.47.78 32.93 32.93 0 0 0-4.31 3.69 38.88 38.88 0 0 0-4.11 4.94 37.19 37.19 0 0 0-5.94 13.33l-.06.3c-.08.38-.38 2.33-.43 2.75a.28.28 0 0 0 0 .09A41.48 41.48 0 0 0 1.31 48v.22a44.09 44.09 0 0 0 87.54 7.46c.08-.56.14-1.13.2-1.7a45.29 45.29 0 0 0-2.86-22.18zM35.38 66.31l.61.3zm46.44-32.2z" fill="url(#a)"/><path d="M86.19 31.8c-1.91-4.61-5.79-9.59-8.84-11.16A45.75 45.75 0 0 1 81.81 34c4.19 11.39 1.91 22.85-1.36 29.86-5 10.84-17.28 22-36.42 21.41-20.69-.58-38.91-15.93-42.31-36-.62-3.17 0-4.78.31-7.36A32.85 32.85 0 0 0 1.31 48v.22a44.09 44.09 0 0 0 87.54 7.46c.08-.56.14-1.13.2-1.7a45.29 45.29 0 0 0-2.86-22.18z" fill="url(#b)"/><path d="M86.19 31.8c-1.91-4.61-5.79-9.59-8.84-11.16A45.75 45.75 0 0 1 81.81 34c4.19 11.39 1.91 22.85-1.36 29.86-5 10.84-17.28 22-36.42 21.41-20.69-.58-38.91-15.93-42.31-36-.62-3.17 0-4.78.31-7.36A32.85 32.85 0 0 0 1.31 48v.22a44.09 44.09 0 0 0 87.54 7.46c.08-.56.14-1.13.2-1.7a45.29 45.29 0 0 0-2.86-22.18z" fill="url(#c)"/><path d="M64.77 37l.27.2A23.83 23.83 0 0 0 61 31.84c-13.76-13.7-3.64-29.71-1.94-30.52C48 7.78 44.25 19.78 43.9 25.78c.52 0 1-.08 1.55-.08A22.27 22.27 0 0 1 64.77 37z" fill="url(#d)"/><path d="M45.48 39.72c-.07 1.09-3.95 4.88-5.3 4.88-12.54 0-14.58 7.58-14.58 7.58.56 6.38 5 11.64 10.39 14.43l.74.35c.43.19.86.37 1.3.53a19.67 19.67 0 0 0 5.73 1.11c22 1 26.24-26.27 10.38-34.2A15.23 15.23 0 0 1 64.77 37a22.27 22.27 0 0 0-19.32-11.3c-.52 0-1 0-1.55.08a22 22 0 0 0-12.13 4.68c.67.56 1.43 1.32 3 2.9 3 3 10.66 6 10.68 6.36z" fill="url(#e)"/><path d="M45.48 39.72c-.07 1.09-3.95 4.88-5.3 4.88-12.54 0-14.58 7.58-14.58 7.58.56 6.38 5 11.64 10.39 14.43l.74.35c.43.19.86.37 1.3.53a19.67 19.67 0 0 0 5.73 1.11c22 1 26.24-26.27 10.38-34.2A15.23 15.23 0 0 1 64.77 37a22.27 22.27 0 0 0-19.32-11.3c-.52 0-1 0-1.55.08a22 22 0 0 0-12.13 4.68c.67.56 1.43 1.32 3 2.9 3 3 10.66 6 10.68 6.36z" fill="url(#f)"/><path d="M29.71 29l.92.6a20.4 20.4 0 0 1-.13-10.77A32.57 32.57 0 0 0 19.89 27c.21 0 6.61-.12 9.82 2z" fill="url(#g)"/><path d="M1.72 49.24c3.4 20.1 21.62 35.45 42.31 36 19.14.55 31.37-10.57 36.42-21.41 3.27-7 5.54-18.47 1.38-29.75s0-.05 0 0a.38.38 0 0 1 0 .08c1.56 10.21-3.63 20.1-11.75 26.79-15.82 12.89-31 7.78-34 5.69l-.64-.32c-9.23-4.41-13-12.82-12.22-20a11.31 11.31 0 0 1-10.44-6.57 16.6 16.6 0 0 1 16.2-.65 22 22 0 0 0 16.56.65c0-.36-7.69-3.41-10.68-6.36-1.6-1.57-2.36-2.33-3-2.9q-.56-.47-1.14-.87l-.92-.6c-3.21-2.09-9.61-2-9.82-2-1.75-2.21-1.63-9.52-1.53-11a7.38 7.38 0 0 0-1.47.78 32.93 32.93 0 0 0-4.31 3.69 38.88 38.88 0 0 0-4.11 4.94 37.19 37.19 0 0 0-6.03 13.31c0 .1-1.59 6.95-.81 10.5z" fill="url(#h)"/><path d="M61 31.84a23.83 23.83 0 0 1 4 5.34c.24.19.47.37.66.54 10 9.21 4.76 22.24 4.37 23.17 8.16-6.69 13.35-16.58 11.79-26.79-5-12.43-13.44-17.44-20.34-28.35-.35-.55-.7-1.1-1-1.69-.17-.3-.33-.6-.48-.91a7.79 7.79 0 0 1-.66-1.74.12.12 0 0 0-.1-.12.14.14 0 0 0-.09 0c-1.7.81-11.82 16.82 1.89 30.52z" fill="url(#i)"/><path d="M65.7 37.72c-.19-.17-.42-.35-.66-.54l-.27-.2a15.23 15.23 0 0 0-10.63-2.58C70 42.33 65.74 69.63 43.76 68.6A19.67 19.67 0 0 1 38 67.49c-.44-.16-.87-.34-1.3-.53l-.7-.35c3.07 2.1 18.21 7.21 34-5.68.39-.93 5.63-14-4.37-23.17z" fill="url(#j)"/><path d="M25.6 52.18s2-7.58 14.58-7.58c1.35 0 5.23-3.79 5.3-4.88s-8 3.36-16.56-.65a16.6 16.6 0 0 0-16.2.65 11.31 11.31 0 0 0 10.44 6.57c-.82 7.2 3 15.61 12.22 20l.61.3c-5.38-2.77-9.83-8.03-10.39-14.41z" fill="url(#k)"/><path d="M86.19 31.8c-1.91-4.61-5.79-9.59-8.84-11.16A45.75 45.75 0 0 1 81.81 34a.38.38 0 0 1 0 .08c-5-12.43-13.44-17.44-20.34-28.35-.35-.55-.7-1.1-1-1.69-.17-.3-.33-.6-.48-.91a7.79 7.79 0 0 1-.66-1.74.12.12 0 0 0-.1-.12.14.14 0 0 0-.09 0C48 7.78 44.25 19.78 43.9 25.78c.51 0 1-.08 1.55-.08A22.28 22.28 0 0 1 64.77 37a15.23 15.23 0 0 0-10.63-2.6C70 42.33 65.74 69.63 43.76 68.6A19.67 19.67 0 0 1 38 67.49c-.44-.16-.87-.34-1.3-.53l-.7-.35-.64-.31.61.3c-5.39-2.79-9.83-8-10.39-14.43 0 0 2-7.58 14.57-7.58 1.36 0 5.23-3.79 5.31-4.88 0-.36-7.69-3.41-10.68-6.36-1.6-1.57-2.36-2.33-3-2.9a13.87 13.87 0 0 0-1.15-.87 20.5 20.5 0 0 1-.12-10.77A32.57 32.57 0 0 0 19.89 27c-1.75-2.21-1.63-9.52-1.53-11a8 8 0 0 0-1.47.78 32.93 32.93 0 0 0-4.31 3.69 38.88 38.88 0 0 0-4.11 4.94 37.19 37.19 0 0 0-5.94 13.33l-.06.3c-.08.38-.45 2.35-.51 2.78A52.76 52.76 0 0 0 1.31 48v.22a44.09 44.09 0 0 0 87.54 7.46c.08-.56.14-1.13.2-1.7a45.29 45.29 0 0 0-2.86-22.18zm-4.37 2.26z" fill="url(#l)"/><path fill-rule="evenodd" d="M73.19 76.9v24.9l5.5-5.3 3.2 7.4 5-2.2-3.2-7.4 7.5-.5-18-16.9z"/><path data-name="img-mac-step-3-d" stroke="#fff" stroke-width="1.3" fill-rule="evenodd" d="M73.19 76.9v24.9l5.5-5.3 3.2 7.4 5-2.2-3.2-7.4 7.5-.5-18-16.9z"/></svg>
