<svg xmlns="http://www.w3.org/2000/svg" width="195" height="102" fill="none" viewBox="0 0 195 102"><path fill="#333336" stroke="#333336" stroke-width=".669" d="M5.029 10.731a3.656 3.656 0 0 1 3.656-3.656h181.981a3.656 3.656 0 0 1 3.656 3.656v8.905H5.029v-8.905Z"/><path fill="#333336" stroke="#333336" stroke-linecap="round" stroke-linejoin="round" stroke-width=".669" d="M16.948 15.595c1.612 0 2.918-.866 2.918-1.935s-1.306-1.935-2.918-1.935-2.919.866-2.919 1.935 1.307 1.935 2.919 1.935ZM29.178 15.596c1.611 0 2.918-.867 2.918-1.936 0-1.068-1.306-1.935-2.918-1.935s-2.92.867-2.92 1.935c0 1.07 1.308 1.936 2.92 1.936ZM41.425 15.596c1.612 0 2.919-.867 2.919-1.936 0-1.068-1.307-1.935-2.919-1.935s-2.919.867-2.919 1.935c0 1.07 1.307 1.936 2.919 1.936Z"/><path stroke="#333336" stroke-linecap="round" stroke-linejoin="round" stroke-width=".669" d="m181.479 11.88 5.372 3.549M181.479 15.429l5.372-3.55"/><path fill="#333336" stroke="#333336" stroke-width=".669" d="M5.029 20.305h189.293v77.706a3.654 3.654 0 0 1-3.655 3.654H8.683a3.654 3.654 0 0 1-3.654-3.654V20.305Z"/><mask id="a" fill="#fff"><path d="M0 15h190v79.01a3.99 3.99 0 0 1-3.989 3.99H3.989A3.99 3.99 0 0 1 0 94.01V15Z"/></mask><path fill="#fff" d="M0 15h190v79.01a3.99 3.99 0 0 1-3.989 3.99H3.989A3.99 3.99 0 0 1 0 94.01V15Z"/><path fill="#333336" d="M0 15h190H0Zm191.249 79.01a5.238 5.238 0 0 1-5.238 5.24H3.989a5.239 5.239 0 0 1-5.238-5.24h2.498a2.74 2.74 0 0 0 2.74 2.74h182.022a2.74 2.74 0 0 0 2.74-2.74h2.498ZM3.989 99.25a5.239 5.239 0 0 1-5.238-5.24V15h2.498v79.01a2.74 2.74 0 0 0 2.74 2.74v2.5ZM191.25 15v79.01a5.238 5.238 0 0 1-5.238 5.24v-2.5a2.74 2.74 0 0 0 2.74-2.74V15h2.498Z" mask="url(#a)"/><path fill="#DCD4FF" stroke="#333336" stroke-width="1.249" d="M.625 3.99A3.366 3.366 0 0 1 3.99.626h182.018a3.366 3.366 0 0 1 3.366 3.366V17.59H.625V3.99Z"/><path stroke="#333336" stroke-linecap="round" stroke-linejoin="round" stroke-width="1.249" d="m176.785 7.75 5.372 5.354M176.785 13.104l5.372-5.354"/><rect width="73.18" height="15.18" x="12.41" y="66.41" fill="#D9BFFF" stroke="#333336" stroke-width=".82" rx="1.09"/><path fill="#000" d="M44.761 74.415V77h-1.352v-2.576l-2.255-4.248h1.48l1.476 3.109 1.49-3.109h1.416l-2.255 4.239Zm4.185.37c.026.325.1.59.222.794.125.204.285.354.479.449.194.095.41.143.646.143.25 0 .485-.04.706-.118.22-.08.437-.19.65-.33l.544.744a2.917 2.917 0 0 1-.874.493 3.158 3.158 0 0 1-1.11.188c-.566 0-1.043-.117-1.43-.35a2.233 2.233 0 0 1-.874-.972c-.197-.415-.296-.892-.296-1.431 0-.52.097-.989.291-1.406.194-.418.474-.749.839-.992.365-.247.806-.37 1.322-.37.48 0 .895.105 1.243.316.35.21.619.513.81.907.19.392.286.864.286 1.417 0 .088-.003.179-.01.27a4.53 4.53 0 0 1-.015.248h-3.429Zm1.12-2.24c-.316 0-.576.113-.78.34-.2.224-.319.579-.355 1.066h2.2c-.006-.441-.098-.785-.276-1.031-.174-.25-.437-.375-.789-.375Zm5.675 3.64c.306 0 .551-.052.735-.157.188-.109.282-.26.282-.454a.552.552 0 0 0-.094-.326c-.06-.088-.178-.17-.355-.246a5.822 5.822 0 0 0-.8-.262 4.518 4.518 0 0 1-.883-.316 1.588 1.588 0 0 1-.587-.493c-.138-.2-.207-.454-.207-.76s.085-.574.256-.804c.171-.234.418-.415.74-.543.326-.131.717-.197 1.175-.197.447 0 .839.06 1.174.178.336.115.623.26.864.434l-.533.794a3.06 3.06 0 0 0-.686-.326 2.366 2.366 0 0 0-.79-.128c-.306 0-.53.045-.67.133a.417.417 0 0 0-.208.37.42.42 0 0 0 .104.287c.072.075.2.15.385.222.187.069.453.153.799.251.339.092.633.2.883.326.253.125.449.291.587.498.138.208.207.479.207.814 0 .379-.11.691-.33.938-.22.246-.512.43-.873.552a3.708 3.708 0 0 1-1.17.178c-.493 0-.924-.07-1.293-.212a3.105 3.105 0 0 1-.937-.548l.676-.76c.204.162.436.295.696.4.263.105.547.158.853.158Z"/><rect width="73.18" height="15.18" x="104.41" y="66.41" fill="#fff" stroke="#333336" stroke-width=".82" rx="1.09"/><path fill="#000" d="m139.685 77-2.008-5.67a18.891 18.891 0 0 1 .123 1.155c.023.25.041.515.054.795.017.28.025.562.025.848V77h-1.174v-6.824h1.717l1.988 5.66c-.026-.168-.056-.39-.089-.666a23.715 23.715 0 0 1-.079-.953c-.023-.358-.034-.74-.034-1.144v-2.897h1.174V77h-1.697Zm5.28-5.373c.52 0 .961.113 1.323.34.361.227.636.548.824.963.19.41.286.892.286 1.445 0 .566-.096 1.056-.286 1.47a2.18 2.18 0 0 1-.829.963c-.362.226-.803.34-1.323.34-.516 0-.957-.11-1.322-.33a2.154 2.154 0 0 1-.829-.953c-.191-.414-.286-.908-.286-1.48 0-.546.095-1.026.286-1.44.191-.415.469-.737.834-.968.365-.233.806-.35 1.322-.35Zm0 .982c-.365 0-.638.143-.819.429-.177.286-.266.735-.266 1.347 0 .618.089 1.07.266 1.357.178.283.449.424.814.424.366 0 .637-.141.815-.424.177-.286.266-.742.266-1.367 0-.608-.089-1.054-.266-1.337-.178-.286-.448-.43-.81-.43Z"/><g clip-path="url(#b)"><path fill="url(#c)" d="M30.002 41.373c-.399-.962-1.21-2.001-1.843-2.33.452.878.766 1.82.93 2.794l.002.016c-1.04-2.595-2.801-3.641-4.24-5.92a11.122 11.122 0 0 1-.217-.352 2.925 2.925 0 0 1-.101-.19 1.677 1.677 0 0 1-.143-.38.024.024 0 0 0-.015-.008.034.034 0 0 0-.017 0c-.002 0-.003.002-.005.003l-.007.003.004-.006c-2.309 1.354-3.092 3.86-3.164 5.113a4.593 4.593 0 0 0-2.53.977 2.743 2.743 0 0 0-.236-.18 4.274 4.274 0 0 1-.026-2.25 6.808 6.808 0 0 0-2.212 1.712h-.005c-.364-.462-.338-1.987-.317-2.305-.108.043-.211.098-.307.163-.322.23-.622.488-.899.77-.314.32-.602.665-.859 1.033v.001-.001a7.778 7.778 0 0 0-1.233 2.789l-.012.06a14.67 14.67 0 0 0-.09.575c0 .007-.002.014-.003.02-.08.42-.13.843-.149 1.27v.047a9.213 9.213 0 0 0 2.425 6.222 9.18 9.18 0 0 0 12.384 1.056 9.207 9.207 0 0 0 3.44-5.722c.015-.118.028-.236.042-.356a9.48 9.48 0 0 0-.597-4.624ZM19.41 48.58c.042.02.083.042.127.062l.006.004a4.896 4.896 0 0 1-.133-.067Zm9.682-6.724v-.009l.001.01-.001-.001Z"/><path fill="url(#d)" d="M30.002 41.371c-.399-.962-1.21-2.001-1.843-2.33.452.878.766 1.82.93 2.794v.009l.002.01a8.348 8.348 0 0 1-.286 6.212c-1.053 2.264-3.603 4.584-7.594 4.471-4.312-.122-8.11-3.327-8.82-7.525-.13-.662 0-.997.065-1.535a6.867 6.867 0 0 0-.148 1.27v.048a9.213 9.213 0 0 0 2.425 6.221 9.186 9.186 0 0 0 12.383 1.057 9.208 9.208 0 0 0 3.44-5.722c.016-.118.029-.236.043-.356a9.48 9.48 0 0 0-.597-4.624Z"/><path fill="url(#e)" d="M30.002 41.371c-.399-.962-1.21-2.001-1.843-2.33.452.878.766 1.82.93 2.794v.009l.002.01a8.348 8.348 0 0 1-.286 6.212c-1.053 2.264-3.603 4.584-7.594 4.471-4.312-.122-8.11-3.327-8.82-7.525-.13-.662 0-.997.065-1.535a6.867 6.867 0 0 0-.148 1.27v.048a9.213 9.213 0 0 0 2.425 6.221 9.186 9.186 0 0 0 12.383 1.057 9.208 9.208 0 0 0 3.44-5.722c.016-.118.029-.236.043-.356a9.48 9.48 0 0 0-.597-4.624Z"/><path fill="url(#f)" d="m25.536 42.454.057.042a5.007 5.007 0 0 0-.853-1.115c-2.857-2.861-.749-6.204-.393-6.374l.003-.005c-2.309 1.354-3.092 3.86-3.164 5.113.107-.007.214-.016.323-.016a4.634 4.634 0 0 1 4.027 2.355Z"/><path fill="url(#g)" d="M21.515 43.026c-.015.228-.823 1.018-1.105 1.018-2.614 0-3.038 1.584-3.038 1.584.116 1.333 1.044 2.431 2.165 3.012.05.026.103.05.155.074.09.04.18.077.27.11.385.137.788.215 1.196.232 4.58.215 5.468-5.486 2.162-7.14a3.17 3.17 0 0 1 2.216.538A4.643 4.643 0 0 0 21.51 40.1c-.109 0-.216.009-.323.016a4.593 4.593 0 0 0-2.53.977c.141.118.3.277.632.606.624.615 2.224 1.253 2.227 1.328Z"/><path fill="url(#h)" d="M21.515 43.026c-.015.228-.823 1.018-1.105 1.018-2.614 0-3.038 1.584-3.038 1.584.116 1.333 1.044 2.431 2.165 3.012.05.026.103.05.155.074.09.04.18.077.27.11.385.137.788.215 1.196.232 4.58.215 5.468-5.486 2.162-7.14a3.17 3.17 0 0 1 2.216.538A4.643 4.643 0 0 0 21.51 40.1c-.109 0-.216.009-.323.016a4.593 4.593 0 0 0-2.53.977c.141.118.3.277.632.606.624.615 2.224 1.253 2.227 1.328Z"/><path fill="url(#i)" d="M18.228 40.786c.064.041.128.083.19.127a4.274 4.274 0 0 1-.026-2.25 6.808 6.808 0 0 0-2.212 1.712c.045-.001 1.378-.025 2.048.411Z"/><path fill="url(#j)" d="M12.392 45.013c.71 4.198 4.508 7.403 8.82 7.525 3.991.113 6.54-2.207 7.594-4.47a8.348 8.348 0 0 0 .286-6.213V41.837l.002.015c.326 2.133-.757 4.198-2.45 5.595l-.005.012c-3.298 2.69-6.454 1.623-7.093 1.187a5.04 5.04 0 0 1-.134-.066c-1.922-.921-2.717-2.676-2.547-4.18a2.358 2.358 0 0 1-2.177-1.372 3.463 3.463 0 0 1 3.38-.136 4.57 4.57 0 0 0 3.45.136c-.004-.075-1.603-.713-2.227-1.328-.333-.329-.491-.487-.631-.606a2.763 2.763 0 0 0-.237-.18 13.268 13.268 0 0 0-.19-.126c-.67-.437-2.004-.413-2.048-.411h-.004c-.364-.463-.339-1.988-.318-2.306-.108.043-.21.098-.307.163a6.69 6.69 0 0 0-.898.77 8.027 8.027 0 0 0-.863 1.03v.002-.002a7.778 7.778 0 0 0-1.233 2.79c-.004.018-.33 1.448-.17 2.19Z"/><path fill="url(#k)" d="M24.74 41.382c.336.33.623.706.854 1.117.047.035.093.073.138.113 2.083 1.923.992 4.643.91 4.836 1.693-1.397 2.775-3.462 2.45-5.594-1.04-2.596-2.802-3.642-4.241-5.92a11.122 11.122 0 0 1-.217-.353 2.879 2.879 0 0 1-.101-.19 1.671 1.671 0 0 1-.143-.38.024.024 0 0 0-.015-.008.034.034 0 0 0-.017 0c-.002 0-.003.002-.005.003l-.007.003c-.355.17-2.463 3.512.394 6.373Z"/><path fill="url(#l)" d="M25.73 42.61a1.939 1.939 0 0 0-.138-.113l-.057-.042a3.17 3.17 0 0 0-2.216-.54c3.306 1.656 2.419 7.357-2.162 7.142a4.083 4.083 0 0 1-1.196-.232 4.789 4.789 0 0 1-.425-.184l.006.004c.64.436 3.794 1.504 7.093-1.188l.006-.012c.082-.192 1.174-2.912-.91-4.835Z"/><path fill="url(#m)" d="M17.372 45.628s.424-1.583 3.038-1.583c.282 0 1.09-.79 1.105-1.019a4.57 4.57 0 0 1-3.45-.136 3.463 3.463 0 0 0-3.38.136 2.363 2.363 0 0 0 2.177 1.372c-.17 1.505.625 3.26 2.548 4.18.042.02.083.043.127.062-1.122-.58-2.05-1.679-2.165-3.012Z"/><path fill="url(#n)" d="M30.002 41.373c-.399-.962-1.21-2.001-1.843-2.33.452.878.766 1.82.93 2.794l.002.016c-1.04-2.595-2.801-3.641-4.24-5.92a11.122 11.122 0 0 1-.217-.352 2.925 2.925 0 0 1-.101-.19 1.677 1.677 0 0 1-.143-.38.024.024 0 0 0-.015-.008.034.034 0 0 0-.017 0c-.002 0-.003.002-.005.003l-.007.003.004-.006c-2.309 1.354-3.092 3.86-3.164 5.113.107-.007.213-.016.323-.016a4.633 4.633 0 0 1 4.027 2.355 3.17 3.17 0 0 0-2.216-.539c3.306 1.656 2.419 7.356-2.162 7.141a4.082 4.082 0 0 1-1.196-.231 4.792 4.792 0 0 1-.425-.185l.006.004a4.896 4.896 0 0 1-.133-.067c.042.021.083.043.127.063-1.122-.58-2.05-1.679-2.165-3.012 0 0 .424-1.584 3.038-1.584.282 0 1.09-.79 1.105-1.018-.004-.075-1.603-.713-2.227-1.328-.333-.329-.491-.487-.631-.606a2.743 2.743 0 0 0-.237-.18 4.274 4.274 0 0 1-.026-2.25 6.808 6.808 0 0 0-2.212 1.712h-.005c-.364-.462-.338-1.987-.317-2.305-.108.043-.211.098-.307.163-.322.23-.622.488-.899.77-.314.32-.602.665-.859 1.033v.001-.001a7.778 7.778 0 0 0-1.233 2.789l-.012.06c-.017.081-.095.493-.106.581 0-.007 0 .007 0 0-.071.425-.116.853-.136 1.283v.048a9.213 9.213 0 0 0 2.425 6.222 9.18 9.18 0 0 0 12.384 1.056 9.207 9.207 0 0 0 3.44-5.722c.015-.118.028-.236.042-.356a9.48 9.48 0 0 0-.597-4.624Zm-.912.473.002.01-.002-.01Z"/></g><path fill="#000" d="M41.292 42.257h-4.554v2.486h4.103v.814h-4.103V49h-.869v-7.557h5.423v.814Zm1.654.022a.552.552 0 0 1-.55-.55.55.55 0 0 1 .55-.539c.297 0 .54.253.54.539a.55.55 0 0 1-.54.55ZM42.528 49v-5.687h.825V49h-.825Zm3.384-4.576c.34-.759 1.155-1.243 2.2-1.243v.737c-1.287 0-2.2.792-2.2 1.903V49h-.825v-5.687h.825v1.111Zm5.904 3.971c.671 0 1.441-.297 1.793-.682l.506.539c-.495.539-1.496.88-2.288.88-1.518 0-2.882-1.243-2.882-2.992 0-1.694 1.276-2.959 2.805-2.959 1.716 0 2.695 1.298 2.695 3.289h-4.653c.121 1.111.902 1.925 2.024 1.925Zm-.033-4.477c-1.012 0-1.826.715-1.98 1.815h3.828c-.11-1.023-.715-1.815-1.848-1.815Zm5.299-1.386v.781h1.397v.737h-1.397V49h-.825v-4.95h-.891v-.737h.891v-.781c0-.847.572-1.452 1.386-1.452.385 0 .759.132 1.056.363l-.407.605c-.121-.132-.341-.231-.594-.231-.33 0-.616.297-.616.715Zm5.21 6.6c-1.596 0-2.949-1.364-2.949-2.981 0-1.617 1.353-2.97 2.948-2.97s2.937 1.353 2.937 2.97c0 1.617-1.342 2.981-2.937 2.981Zm0-.737c1.121 0 2.067-1.023 2.067-2.244 0-1.21-.946-2.233-2.068-2.233-1.133 0-2.079 1.023-2.079 2.233 0 1.221.946 2.244 2.08 2.244Zm9.172.605h-.968l-1.705-2.266L67.075 49h-.968l2.2-2.904-2.112-2.783h.968l1.628 2.145 1.617-2.145h.968l-2.101 2.783L71.464 49Zm4.409 0v-7.557h.858V49h-.858Zm5.272-5.819c1.255 0 2.135.913 2.135 2.2V49h-.826v-3.509c0-.924-.582-1.573-1.418-1.573-.957 0-1.76.671-1.76 1.463V49h-.825v-5.687h.825v.913c.33-.605 1.067-1.045 1.87-1.045Zm5.817 5.951a3.862 3.862 0 0 1-2.354-.847l.43-.605c.648.473 1.297.715 1.924.715.748 0 1.254-.352 1.254-.891 0-.616-.66-.814-1.43-1.034-1.375-.396-1.903-.803-1.903-1.617 0-1.034.858-1.672 1.991-1.672.704 0 1.43.242 2.035.638l-.396.638c-.572-.363-1.133-.539-1.639-.539-.638 0-1.166.286-1.166.836 0 .495.418.649 1.474.99.913.286 1.86.594 1.86 1.672 0 1.045-.903 1.716-2.08 1.716Zm5.941-.968.407.605a1.729 1.729 0 0 1-1.056.363c-.814 0-1.386-.605-1.386-1.452v-3.63h-.89v-.737h.89v-1.562h.825v1.562h1.397v.737h-1.397v3.63c0 .418.286.715.616.715.253 0 .473-.099.594-.231Zm3.885-4.983c1.55 0 2.31.979 2.31 2.354V49h-.825v-.891c-.407.671-1.254 1.023-2.002 1.023-1.2 0-2.08-.693-2.08-1.815 0-1.133 1.013-1.892 2.234-1.892.616 0 1.265.132 1.848.319v-.209c0-.77-.308-1.65-1.54-1.65-.572 0-1.144.253-1.661.517l-.33-.671c.814-.407 1.496-.55 2.046-.55Zm-.374 5.225c.748 0 1.639-.385 1.859-1.188v-.869a6.472 6.472 0 0 0-1.716-.231c-.847 0-1.562.484-1.562 1.166 0 .704.616 1.122 1.419 1.122Zm4.369.594v-7.689h.825V49h-.825Zm2.492 0v-7.689h.825V49h-.825Zm5.056-.605c.671 0 1.441-.297 1.793-.682l.506.539c-.495.539-1.496.88-2.288.88-1.518 0-2.882-1.243-2.882-2.992 0-1.694 1.276-2.959 2.805-2.959 1.716 0 2.695 1.298 2.695 3.289h-4.653c.121 1.111.902 1.925 2.024 1.925Zm-.033-4.477c-1.012 0-1.826.715-1.98 1.815h3.828c-.11-1.023-.715-1.815-1.848-1.815Zm4.914.506c.341-.759 1.155-1.243 2.2-1.243v.737c-1.287 0-2.2.792-2.2 1.903V49h-.825v-5.687h.825v1.111Z"/><defs><radialGradient id="d" cx="0" cy="0" r="1" gradientTransform="matrix(18.7993 0 0 19.1368 25.125 37.143)" gradientUnits="userSpaceOnUse"><stop offset=".13" stop-color="#FFBD4F"/><stop offset=".28" stop-color="#FF980E"/><stop offset=".47" stop-color="#FF3750"/><stop offset=".78" stop-color="#EB0878"/><stop offset=".86" stop-color="#E50080"/></radialGradient><radialGradient id="e" cx="0" cy="0" r="1" gradientTransform="matrix(19.2693 0 0 19.1368 19.65 45.022)" gradientUnits="userSpaceOnUse"><stop offset=".3" stop-color="#960E18"/><stop offset=".35" stop-color="#B11927" stop-opacity=".74"/><stop offset=".43" stop-color="#DB293D" stop-opacity=".34"/><stop offset=".5" stop-color="#F5334B" stop-opacity=".09"/><stop offset=".53" stop-color="#FF3750" stop-opacity="0"/></radialGradient><radialGradient id="f" cx="0" cy="0" r="1" gradientTransform="matrix(6.17002 0 0 10.492 23.302 34.102)" gradientUnits="userSpaceOnUse"><stop offset=".13" stop-color="#FFF44F"/><stop offset=".53" stop-color="#FF980E"/></radialGradient><radialGradient id="g" cx="0" cy="0" r="1" gradientTransform="matrix(8.16409 0 0 8.96301 19.23 49.968)" gradientUnits="userSpaceOnUse"><stop offset=".35" stop-color="#3A8EE6"/><stop offset=".67" stop-color="#9059FF"/><stop offset="1" stop-color="#C139E6"/></radialGradient><radialGradient id="h" cx="0" cy="0" r="1" gradientTransform="matrix(4.33513 0 0 5.28817 20.656 43.057)" gradientUnits="userSpaceOnUse"><stop offset=".21" stop-color="#9059FF" stop-opacity="0"/><stop offset=".97" stop-color="#6E008B" stop-opacity=".6"/></radialGradient><radialGradient id="i" cx="0" cy="0" r="1" gradientTransform="matrix(6.49043 0 0 6.52453 20.88 36.413)" gradientUnits="userSpaceOnUse"><stop offset=".1" stop-color="#FFE226"/><stop offset=".79" stop-color="#FF7139"/></radialGradient><radialGradient id="j" cx="0" cy="0" r="1" gradientTransform="matrix(30.979 0 0 26.0483 26.805 32.138)" gradientUnits="userSpaceOnUse"><stop offset=".11" stop-color="#FFF44F"/><stop offset=".46" stop-color="#FF980E"/><stop offset=".72" stop-color="#FF3647"/><stop offset=".9" stop-color="#E31587"/></radialGradient><radialGradient id="k" cx="0" cy="0" r="1" gradientTransform="rotate(77.413 -17.515 29.983) scale(9.84577 42.5377)" gradientUnits="userSpaceOnUse"><stop stop-color="#FFF44F"/><stop offset=".3" stop-color="#FF980E"/><stop offset=".57" stop-color="#FF3647"/><stop offset=".74" stop-color="#E31587"/></radialGradient><radialGradient id="l" cx="0" cy="0" r="1" gradientTransform="matrix(17.793 0 0 17.487 20.947 38.772)" gradientUnits="userSpaceOnUse"><stop offset=".14" stop-color="#FFF44F"/><stop offset=".48" stop-color="#FF980E"/><stop offset=".66" stop-color="#FF3647"/><stop offset=".9" stop-color="#E31587"/></radialGradient><radialGradient id="m" cx="0" cy="0" r="1" gradientTransform="matrix(21.3839 0 0 19.1794 25.565 39.775)" gradientUnits="userSpaceOnUse"><stop offset=".09" stop-color="#FFF44F"/><stop offset=".63" stop-color="#FF980E"/></radialGradient><linearGradient id="c" x1="28.326" x2="13.551" y1="37.946" y2="52.182" gradientUnits="userSpaceOnUse"><stop offset=".05" stop-color="#FFF44F"/><stop offset=".37" stop-color="#FF980E"/><stop offset=".53" stop-color="#FF3647"/><stop offset=".7" stop-color="#E31587"/></linearGradient><linearGradient id="n" x1="26.995" x2="15.178" y1="37.661" y2="50.557" gradientUnits="userSpaceOnUse"><stop offset=".17" stop-color="#FFF44F" stop-opacity=".8"/><stop offset=".6" stop-color="#FFF44F" stop-opacity="0"/></linearGradient><clipPath id="b"><path fill="#fff" d="M12 35h19v19H12z"/></clipPath></defs></svg>
