<svg xmlns="http://www.w3.org/2000/svg" width="195" height="102" fill="none" viewBox="0 0 195 102"><path fill="#333336" stroke="#333336" stroke-width=".669" d="M5.029 10.731a3.656 3.656 0 0 1 3.656-3.656h181.981a3.656 3.656 0 0 1 3.656 3.656v8.905H5.029v-8.905Z"/><path fill="#333336" stroke="#333336" stroke-linecap="round" stroke-linejoin="round" stroke-width=".669" d="M16.948 15.595c1.612 0 2.918-.866 2.918-1.935s-1.306-1.935-2.918-1.935-2.919.866-2.919 1.935 1.307 1.935 2.919 1.935ZM29.178 15.596c1.611 0 2.918-.867 2.918-1.936 0-1.068-1.306-1.935-2.918-1.935s-2.92.867-2.92 1.935c0 1.07 1.308 1.936 2.92 1.936ZM41.425 15.596c1.612 0 2.919-.867 2.919-1.936 0-1.068-1.307-1.935-2.919-1.935s-2.919.867-2.919 1.935c0 1.07 1.307 1.936 2.919 1.936Z"/><path stroke="#333336" stroke-linecap="round" stroke-linejoin="round" stroke-width=".669" d="m181.479 11.88 5.372 3.549M181.479 15.429l5.372-3.55"/><path fill="#333336" stroke="#333336" stroke-width=".669" d="M5.029 20.305h189.293v77.706a3.654 3.654 0 0 1-3.655 3.654H8.683a3.654 3.654 0 0 1-3.654-3.654V20.305Z"/><mask id="a" fill="#fff"><path d="M0 15h190v79.01a3.99 3.99 0 0 1-3.989 3.99H3.989A3.99 3.99 0 0 1 0 94.01V15Z"/></mask><path fill="#fff" d="M0 15h190v79.01a3.99 3.99 0 0 1-3.989 3.99H3.989A3.99 3.99 0 0 1 0 94.01V15Z"/><path fill="#333336" d="M0 15h190H0Zm191.249 79.01a5.238 5.238 0 0 1-5.238 5.24H3.989a5.239 5.239 0 0 1-5.238-5.24h2.498a2.74 2.74 0 0 0 2.74 2.74h182.022a2.74 2.74 0 0 0 2.74-2.74h2.498ZM3.989 99.25a5.239 5.239 0 0 1-5.238-5.24V15h2.498v79.01a2.74 2.74 0 0 0 2.74 2.74v2.5ZM191.25 15v79.01a5.238 5.238 0 0 1-5.238 5.24v-2.5a2.74 2.74 0 0 0 2.74-2.74V15h2.498Z" mask="url(#a)"/><path fill="#DCD4FF" stroke="#333336" stroke-width="1.249" d="M.625 3.99A3.366 3.366 0 0 1 3.99.626h182.018a3.366 3.366 0 0 1 3.366 3.366V17.59H.625V3.99Z"/><path stroke="#333336" stroke-linecap="round" stroke-linejoin="round" stroke-width="1.249" d="m176.785 7.75 5.372 5.354M176.785 13.104l5.372-5.354"/><rect width="148.18" height="10.18" x="22.41" y="58.41" fill="#fff" stroke="#333336" stroke-width=".82" rx="1.09"/><path fill="#9059FF" stroke="#333336" stroke-width=".82" d="M22.41 59.5c0-.602.488-1.09 1.09-1.09h82.09v10.18H23.5a1.09 1.09 0 0 1-1.09-1.09v-8Z"/><path fill="#000" d="M22.869 49v-7.557h3.069c1.562 0 2.783 1.001 2.783 2.42s-1.221 2.42-2.783 2.42h-2.211V49h-.858Zm.858-3.531h2.057c1.232 0 2.068-.594 2.068-1.606s-.836-1.606-2.068-1.606h-2.057v3.212Zm7.09-1.045c.341-.759 1.155-1.243 2.2-1.243v.737c-1.287 0-2.2.792-2.2 1.903V49h-.825v-5.687h.825v1.111Zm5.799 4.708c-1.595 0-2.948-1.364-2.948-2.981 0-1.617 1.353-2.97 2.948-2.97s2.937 1.353 2.937 2.97c0 1.617-1.342 2.981-2.937 2.981Zm0-.737c1.122 0 2.068-1.023 2.068-2.244 0-1.21-.946-2.233-2.068-2.233-1.133 0-2.08 1.023-2.08 2.233 0 1.221.947 2.244 2.08 2.244Zm8.721-5.082h.825v5.082c0 1.463-1.155 2.497-2.794 2.497-.924 0-1.782-.319-2.299-.759l.363-.649c.44.418 1.122.671 1.826.671 1.31 0 2.08-.649 2.08-1.76v-.924c-.44.693-1.167 1.111-2.069 1.111-1.529 0-2.618-1.122-2.618-2.706 0-1.584 1.09-2.695 2.618-2.695.902 0 1.628.418 2.068 1.111v-.979Zm-1.914 4.532c1.122 0 1.914-.814 1.914-1.969 0-1.144-.792-1.958-1.914-1.958-1.11 0-1.903.814-1.903 1.958 0 1.155.792 1.969 1.903 1.969Zm5.387-3.421c.341-.759 1.155-1.243 2.2-1.243v.737c-1.287 0-2.2.792-2.2 1.903V49h-.825v-5.687h.825v1.111Zm5.904 3.971c.671 0 1.441-.297 1.793-.682l.506.539c-.495.539-1.496.88-2.288.88-1.518 0-2.882-1.243-2.882-2.992 0-1.694 1.276-2.959 2.805-2.959 1.716 0 2.695 1.298 2.695 3.289H52.69c.121 1.111.902 1.925 2.024 1.925Zm-.033-4.477c-1.012 0-1.826.715-1.98 1.815h3.828c-.11-1.023-.715-1.815-1.848-1.815Zm6.025 5.214a3.862 3.862 0 0 1-2.354-.847l.43-.605c.648.473 1.297.715 1.924.715.748 0 1.254-.352 1.254-.891 0-.616-.66-.814-1.43-1.034-1.375-.396-1.903-.803-1.903-1.617 0-1.034.858-1.672 1.991-1.672.704 0 1.43.242 2.035.638l-.396.638c-.572-.363-1.133-.539-1.639-.539-.638 0-1.166.286-1.166.836 0 .495.418.649 1.474.99.913.286 1.86.594 1.86 1.672 0 1.045-.903 1.716-2.08 1.716Zm5.457 0a3.862 3.862 0 0 1-2.353-.847l.428-.605c.65.473 1.299.715 1.925.715.749 0 1.255-.352 1.255-.891 0-.616-.66-.814-1.43-1.034-1.376-.396-1.903-.803-1.903-1.617 0-1.034.858-1.672 1.99-1.672.704 0 1.43.242 2.035.638l-.395.638c-.573-.363-1.133-.539-1.64-.539-.638 0-1.166.286-1.166.836 0 .495.418.649 1.474.99.913.286 1.86.594 1.86 1.672 0 1.045-.902 1.716-2.08 1.716Z"/></svg>
