<svg version="1.1" id="Layer_1" xmlns="http://www.w3.org/2000/svg" xmlns:xlink="http://www.w3.org/1999/xlink" x="0" y="0" viewBox="0 0 242 152" xml:space="preserve"><style>.st0{fill:#fff}.st5{enable-background:new}</style><g id="Layer_1_1_"><image width="256" height="166" xlink:href="8B85C5E7E710D03E.png" transform="translate(-7 -7)" overflow="visible" opacity=".17"/><path id="img-win-step-2-b" class="st0" d="M9.3 5H232c.7 0 1.3.6 1.3 1.3v132.5c0 .7-.6 1.3-1.3 1.3H9.3c-.7 0-1.3-.6-1.3-1.3V6.3C8 5.6 8.6 5 9.3 5z"/><path d="M17 113.2h99.2c.7 0 1.3.6 1.3 1.3v16.6c0 .7-.6 1.3-1.3 1.3H17c-.7 0-1.3-.6-1.3-1.3v-16.6c0-.7.5-1.3 1.3-1.3-.1 0 0 0 0 0z" fill-rule="evenodd" clip-rule="evenodd" fill="#0060df"/><path d="M125.1 113.2h99.2c.7 0 1.3.6 1.3 1.3v16.6c0 .7-.6 1.3-1.3 1.3h-99.2c-.7 0-1.3-.6-1.3-1.3v-16.6c0-.7.5-1.3 1.3-1.3-.1 0 0 0 0 0z" fill-rule="evenodd" clip-rule="evenodd" fill="#f1f3f4"/><path d="M9.3 5H232c.7 0 1.3.6 1.3 1.3v50.6H8V6.3C8 5.6 8.6 5 9.3 5z" fill-rule="evenodd" clip-rule="evenodd" fill="#dfe1e5"/><path d="M17.6 24.8h162.6c1 0 1.9.9 1.9 1.9 0 1-.9 1.9-1.9 1.9H17.6c-1 0-1.9-.9-1.9-1.9 0-1 .9-1.9 1.9-1.9zm0 9.6H129c1 0 1.9.9 1.9 1.9 0 1-.9 1.9-1.9 1.9H17.6c-1 0-1.9-.9-1.9-1.9 0-1 .9-1.9 1.9-1.9zm25.6 37.8h66.6c1 0 1.9.9 1.9 1.9 0 1-.9 1.9-1.9 1.9H43.2c-1 0-1.9-.9-1.9-1.9 0-1 .9-1.9 1.9-1.9zm0 14.1h92.2c1 0 1.9.9 1.9 1.9 0 1-.9 1.9-1.9 1.9H43.2c-1 0-1.9-.9-1.9-1.9 0-1 .8-1.9 1.8-1.9h.1zm0 8.9h60.2c1 0 1.9.9 1.9 1.9 0 1-.9 1.9-1.9 1.9H43.2c-1 0-1.9-.9-1.9-1.9 0-1 .9-1.9 1.9-1.9z" fill-rule="evenodd" clip-rule="evenodd" fill="#9595a3"/><g class="st5"><path class="st0" d="M57.9 119l1.5 2.8h.1L61 119h1.5l-2.4 4.2v2.3h-1.4v-2.3l-2.4-4.2h1.6z"/></g><g class="st5"><path class="st0" d="M62 123.1c0-1.5.9-2.5 2.4-2.5 1.3 0 2.3.8 2.3 2.5v.4h-3.3c0 .7.4 1.2 1.1 1.2.5 0 .8-.2.9-.6l1.3.1c-.2.9-1 1.5-2.2 1.5-1.6-.1-2.5-1.1-2.5-2.6zm3.4-.5c0-.6-.4-1-1-1s-1 .4-1.1 1h2.1zm5-.5c-.1-.3-.3-.6-.8-.6-.4 0-.8.2-.7.5 0 .2.2.4.6.5l.9.2c1 .2 1.4.6 1.4 1.3 0 1-.9 1.6-2.2 1.6-1.3 0-2.1-.6-2.2-1.5l1.3-.1c.1.4.4.6.9.6s.8-.2.8-.5c0-.2-.2-.4-.6-.5l-.8-.2c-1-.2-1.4-.7-1.4-1.4 0-.9.8-1.5 2.1-1.5 1.2 0 2 .6 2.1 1.5l-1.4.1z"/></g><linearGradient id="shape-base_1_" gradientUnits="userSpaceOnUse" x1="41.949" y1=".131" x2="41.919" y2=".161" gradientTransform="matrix(480 0 0 496 -20102.08 1.797)"><stop offset=".05" stop-color="#fff44f"/><stop offset=".37" stop-color="#ff980e"/><stop offset=".53" stop-color="#ff3647"/><stop offset=".7" stop-color="#e31587"/></linearGradient><path id="shape-base" d="M34 71c-.4-.9-1-1.7-1.8-2.3.5.9.8 1.8.9 2.8-1-2.6-2.8-3.6-4.2-5.8l-.2-.3c0-.1-.1-.1-.1-.2-.1-.1-.1-.2-.1-.4-1.8 1.1-2.9 3-3.1 5.1-.9.1-1.8.4-2.5 1l-.2-.2c-.2-.7-.2-1.5 0-2.2-.9.4-1.6.9-2.3 1.6-.3-.7-.4-1.5-.3-2.3-.1 0-.2.1-.3.2-.3.2-.6.5-.9.8-.3.3-.6.6-.9 1-.6.8-1 1.8-1.2 2.8v.1c0 .1-.1.5-.1.6-.1.4-.1.8-.1 1.3 0 5 4 9.1 9 9.2 4.4 0 8.2-3.1 9-7.5V76c.2-2 0-3.5-.6-5zm-10.4 7.1l.1.1-.1-.1z" fill="url(#shape-base_1_)"/><radialGradient id="body-outer-ring_1_" cx="41.715" cy="-.233" r=".05" gradientTransform="matrix(384 0 0 390.47 -15984.59 157.6)" gradientUnits="userSpaceOnUse"><stop offset=".13" stop-color="#ffbd4f"/><stop offset=".28" stop-color="#ff980e"/><stop offset=".47" stop-color="#ff3750"/><stop offset=".78" stop-color="#eb0878"/><stop offset=".86" stop-color="#e50080"/></radialGradient><path id="body-outer-ring" d="M34 71c-.4-.9-1-1.7-1.8-2.3.5.9.8 1.8.9 2.8.7 2 .6 4.2-.3 6.1-1.4 2.9-4.3 4.6-7.5 4.4-4.3-.1-7.9-3.2-8.7-7.4-.1-.5-.1-1 .1-1.5-.1.4-.1.8-.1 1.3 0 5 4 9.1 9 9.2 4.5 0 8.3-3.2 9-7.6v-.3c.2-1.7 0-3.2-.6-4.7z" fill="url(#body-outer-ring_1_)"/><radialGradient id="body-outer-ring-shadow_1_" cx="41.807" cy="-.083" r=".05" gradientTransform="matrix(393.6 0 0 390.47 -16430.9 107.229)" gradientUnits="userSpaceOnUse"><stop offset=".3" stop-color="#960e18"/><stop offset=".35" stop-color="#b11927" stop-opacity=".74"/><stop offset=".43" stop-color="#db293d" stop-opacity=".34"/><stop offset=".5" stop-color="#f5334b" stop-opacity=".09"/><stop offset=".53" stop-color="#ff3750" stop-opacity="0"/></radialGradient><path id="body-outer-ring-shadow" d="M34 71c-.4-.9-1-1.7-1.8-2.3.5.9.8 1.8.9 2.8.7 2 .6 4.2-.3 6.1-1.4 2.9-4.3 4.6-7.5 4.4-4.3-.1-7.9-3.2-8.7-7.4-.1-.5-.1-1 .1-1.5-.1.4-.1.8-.1 1.3 0 5 4 9.1 9 9.2 4.5 0 8.3-3.2 9-7.6v-.3c.2-1.7 0-3.2-.6-4.7z" fill="url(#body-outer-ring-shadow_1_)"/><radialGradient id="tail-tip_1_" cx="39.718" cy=".315" r=".05" gradientTransform="matrix(115.24 0 0 195.64 -4549.82 2.36)" gradientUnits="userSpaceOnUse"><stop offset=".13" stop-color="#fff44f"/><stop offset=".53" stop-color="#ff980e"/></radialGradient><path id="tail-tip" d="M29.6 72.1c-.2-.4-.5-.8-.8-1.1-1.8-1.7-2-4.4-.4-6.3-1.8 1.1-2.9 3-3.1 5.1h.3c1.7-.1 3.2.8 4 2.3z" fill="url(#tail-tip_1_)"/><radialGradient id="globe-base_1_" cx="41.222" cy="-.234" r=".04" gradientTransform="matrix(213.48 0 0 233.98 -8775.78 135.099)" gradientUnits="userSpaceOnUse"><stop offset=".35" stop-color="#3a8ee6"/><stop offset=".67" stop-color="#9059ff"/><stop offset="1" stop-color="#c139e6"/></radialGradient><path id="globe-base" d="M25.6 72.6c-.2.4-.6.8-1.1 1-2.6 0-3 1.6-3 1.6.2 1.3 1 2.4 2.1 3l.1.1.3.1c.4.1.8.2 1.2.2 2.1.1 3.9-1.4 4-3.5.1-1.4-.6-2.8-1.9-3.5.8-.1 1.6.1 2.2.5-.8-1.4-2.3-2.3-4-2.3h-.3c-.9.1-1.8.4-2.5 1l.6.6c.8.5 1.6 1 2.3 1.2z" fill="url(#globe-base_1_)"/><radialGradient id="globe-shadow_1_" cx="41.141" cy="-.264" r=".02" gradientTransform="matrix(192.13 0 0 233.98 -7879.12 135.099)" gradientUnits="userSpaceOnUse"><stop offset=".21" stop-color="#9059ff" stop-opacity="0"/><stop offset=".97" stop-color="#6e008b" stop-opacity=".6"/></radialGradient><path id="globe-shadow" d="M25.6 72.6c-.2.4-.6.8-1.1 1-2.6 0-3 1.6-3 1.6.2 1.3 1 2.4 2.1 3l.1.1.3.1c.4.1.8.2 1.2.2 2.1.1 3.9-1.4 4-3.5.1-1.4-.6-2.8-1.9-3.5.8-.1 1.6.1 2.2.5-.8-1.4-2.3-2.3-4-2.3h-.3c-.9.1-1.8.4-2.5 1l.6.6c.8.5 1.6 1 2.3 1.2z" fill="url(#globe-shadow_1_)"/><radialGradient id="ear_1_" cx="39.701" cy="-.537" r=".11" gradientTransform="matrix(58.52 0 0 58.73 -2298.64 97.91)" gradientUnits="userSpaceOnUse"><stop offset=".1" stop-color="#ffe226"/><stop offset=".79" stop-color="#ff7139"/></radialGradient><path id="ear" d="M22.4 70.4l.2.1c-.2-.7-.2-1.5 0-2.2-.8.4-1.6 1-2.2 1.7.6 0 1.3.1 2 .4z" fill="url(#ear_1_)"/><radialGradient id="body_1_" cx="41.933" cy="-.053" r=".07" gradientTransform="matrix(450.15 0 0 377.88 -18847.34 82.08)" gradientUnits="userSpaceOnUse"><stop offset=".11" stop-color="#fff44f"/><stop offset=".46" stop-color="#ff980e"/><stop offset=".72" stop-color="#ff3647"/><stop offset=".9" stop-color="#e31587"/></radialGradient><path id="body" d="M16.6 74.6c.8 4.2 4.4 7.3 8.7 7.4 3.2.2 6.1-1.6 7.5-4.4.9-1.9 1-4.1.3-6.1.2 2.1-.7 4.2-2.4 5.5-3.3 2.7-6.4 1.6-7 1.2l-.1-.1c-1.7-.7-2.7-2.3-2.6-4.1-.9 0-1.8-.5-2.2-1.4 1-.6 2.3-.7 3.4-.1 1.1.5 2.3.5 3.4.1-.8-.4-1.5-.8-2.2-1.3l-.6-.6-.2-.2-.2-.1c-.6-.3-1.3-.4-2-.4-.3-.7-.4-1.5-.3-2.3-.1 0-.2.1-.3.2-.3.2-.6.5-.9.8-.3.3-.6.6-.9 1-.6.8-1 1.8-1.2 2.8-.2.6-.3 1.4-.2 2.1z" fill="url(#body_1_)"/><radialGradient id="tail-flame_1_" cx="42.719" cy="2.095" r=".13" gradientTransform="matrix(16.08 151.87 -153.03 15.96 -338.47 -6459.21)" gradientUnits="userSpaceOnUse"><stop offset="0" stop-color="#fff44f"/><stop offset=".3" stop-color="#ff980e"/><stop offset=".57" stop-color="#ff3647"/><stop offset=".74" stop-color="#e31587"/></radialGradient><path id="tail-flame" d="M28.8 71c.3.3.6.7.8 1.1l.1.1c1.2 1.3 1.6 3.2.9 4.8 1.7-1.3 2.6-3.4 2.4-5.5-1-2.6-2.8-3.6-4.2-5.8l-.2-.3c0-.1-.1-.1-.1-.2-.1-.1-.1-.2-.1-.4-1.5 1.8-1.3 4.6.4 6.2z" fill="url(#tail-flame_1_)"/><radialGradient id="tail-small_1_" cx="40.862" cy="-.595" r=".09" gradientTransform="matrix(195.14 0 0 191.71 -7948.87 182.18)" gradientUnits="userSpaceOnUse"><stop offset=".14" stop-color="#fff44f"/><stop offset=".48" stop-color="#ff980e"/><stop offset=".66" stop-color="#ff3647"/><stop offset=".9" stop-color="#e31587"/></radialGradient><path id="tail-small" d="M29.8 72.2l-.1-.1c-.6-.4-1.4-.6-2.2-.5 1.8 1 2.4 3.3 1.4 5.1-.7 1.2-2.1 2-3.5 1.9-.4 0-.8-.1-1.2-.2l-.3-.1-.1-.1c.6.4 3.8 1.5 7-1.2.6-1.6.2-3.5-1-4.8z" fill="url(#tail-small_1_)"/><radialGradient id="cheek-tufts_1_" cx="41.492" cy="-.806" r=".12" gradientTransform="matrix(178.59 0 0 159.77 -7380.67 198.81)" gradientUnits="userSpaceOnUse"><stop offset=".09" stop-color="#fff44f"/><stop offset=".63" stop-color="#ff980e"/></radialGradient><path id="cheek-tufts" d="M21.5 75.2s.4-1.6 3-1.6c.5-.2.9-.6 1.1-1 0-.2-1.7.7-3.4-.1-1.1-.5-2.3-.5-3.4.1.4.8 1.2 1.4 2.1 1.3-.1 1.8.9 3.4 2.5 4.1l.1.1c-1-.5-1.8-1.6-2-2.9z" fill="url(#cheek-tufts_1_)"/><linearGradient id="overlay-yellow_1_" gradientUnits="userSpaceOnUse" x1="41.945" y1=".127" x2="41.925" y2=".157" gradientTransform="matrix(480 0 0 496 -20101.99 1.797)"><stop offset=".17" stop-color="#fff44f" stop-opacity=".8"/><stop offset=".6" stop-color="#fff44f" stop-opacity="0"/></linearGradient><path id="overlay-yellow" d="M34 71c-.4-.9-1-1.7-1.8-2.3.5.9.8 1.8.9 2.8-1-2.6-2.8-3.6-4.2-5.8l-.2-.3c0-.1-.1-.1-.1-.2-.1-.1-.1-.2-.1-.4-1.8 1.1-2.9 3-3.1 5.1h.3c1.7 0 3.2.9 4 2.3-.6-.4-1.4-.6-2.2-.5 1.8 1 2.4 3.3 1.4 5.1-.7 1.2-2.1 2-3.5 1.9-.4 0-.8-.1-1.2-.2l-.3-.1-.1-.1-.1-.1.1.1c-1.2-.6-2-1.7-2.1-3 0 0 .4-1.6 3-1.6.5-.2.9-.6 1.1-1-.8-.4-1.5-.8-2.2-1.3l-.6-.6-.2-.2c-.2-.7-.2-1.5 0-2.2-.9.4-1.6 1-2.3 1.7-.3-.7-.4-1.5-.4-2.3-.1 0-.2.1-.3.2-.3.2-.6.5-.9.8-.3.3-.6.6-.9 1-.6.8-1 1.8-1.2 2.8v.1c0 .1-.1.5-.1.6-.1.4-.1.8-.1 1.3-.2 5 3.8 9.2 8.8 9.4 4.6.1 8.6-3.2 9.3-7.8v-.3c.1-1.9-.1-3.4-.7-4.9zm-.9.5z" fill="url(#overlay-yellow_1_)"/></g><path id="img-win-step-3-d-2" fill-rule="evenodd" clip-rule="evenodd" stroke="#fff" stroke-width="1.3" d="M80.3 122.6v24.9l5.5-5.3 3.2 7.4 5-2.2-3.2-7.5 7.5-.5z"/></svg>
