<?xml version="1.0" encoding="utf-8"?>
<!-- Generator: Adobe Illustrator 24.1.2, SVG Export Plug-In . SVG Version: 6.00 Build 0)  -->
<svg version="1.1" id="Layer_1" xmlns="http://www.w3.org/2000/svg" xmlns:xlink="http://www.w3.org/1999/xlink" x="0px" y="0px"
	 viewBox="0 0 242 152" style="enable-background:new 0 0 242 152;" xml:space="preserve">
<style type="text/css">
	.st0{fill:#FFFFFF;}
	.st1{fill-rule:evenodd;clip-rule:evenodd;fill:#0060DF;}
	.st2{fill-rule:evenodd;clip-rule:evenodd;fill:#F1F3F4;}
	.st3{fill-rule:evenodd;clip-rule:evenodd;fill:#DFE1E5;}
	.st4{fill-rule:evenodd;clip-rule:evenodd;fill:#9595A3;}
	.st5{enable-background:new    ;}
	.st6{fill:url(#shape-base_1_);}
	.st7{fill:url(#body-outer-ring_1_);}
	.st8{fill:url(#body-outer-ring-shadow_1_);}
	.st9{fill:url(#tail-tip_1_);}
	.st10{fill:url(#globe-base_1_);}
	.st11{fill:url(#globe-shadow_1_);}
	.st12{fill:url(#ear_1_);}
	.st13{fill:url(#body_1_);}
	.st14{fill:url(#tail-flame_1_);}
	.st15{fill:url(#tail-small_1_);}
	.st16{fill:url(#cheek-tufts_1_);}
	.st17{fill:url(#overlay-yellow_1_);}
	.st18{fill-rule:evenodd;clip-rule:evenodd;stroke:#FFFFFF;stroke-width:1.3;}
</style>
<g>
	<g id="Layer_1_1_">
		
			<image style="overflow:visible;opacity:0.17;enable-background:new    ;" width="256" height="166" xlink:href="8B85C5E7E710D03E.png"  transform="matrix(1 0 0 1 -7 -7)">
		</image>
		<path id="img-win-step-2-b" class="st0" d="M9.3,5H232c0.7,0,1.3,0.6,1.3,1.3v132.5c0,0.7-0.6,1.3-1.3,1.3H9.3
			c-0.7,0-1.3-0.6-1.3-1.3V6.3C8,5.6,8.6,5,9.3,5z"/>
		<path class="st1" d="M17,113.2h99.2c0.7,0,1.3,0.6,1.3,1.3v16.6c0,0.7-0.6,1.3-1.3,1.3H17c-0.7,0-1.3-0.6-1.3-1.3v-16.6
			C15.7,113.8,16.2,113.2,17,113.2C16.9,113.2,17,113.2,17,113.2z"/>
		<path class="st2" d="M125.1,113.2h99.2c0.7,0,1.3,0.6,1.3,1.3v16.6c0,0.7-0.6,1.3-1.3,1.3h-99.2c-0.7,0-1.3-0.6-1.3-1.3v-16.6
			C123.8,113.8,124.3,113.2,125.1,113.2C125,113.2,125.1,113.2,125.1,113.2z"/>
		<path class="st3" d="M9.3,5H232c0.7,0,1.3,0.6,1.3,1.3v50.6H8V6.3C8,5.6,8.6,5,9.3,5z"/>
		<path class="st4" d="M17.6,24.8h162.6c1,0,1.9,0.9,1.9,1.9l0,0c0,1-0.9,1.9-1.9,1.9H17.6c-1,0-1.9-0.9-1.9-1.9l0,0
			C15.7,25.7,16.6,24.8,17.6,24.8z"/>
		<path class="st4" d="M17.6,34.4H129c1,0,1.9,0.9,1.9,1.9l0,0c0,1-0.9,1.9-1.9,1.9H17.6c-1,0-1.9-0.9-1.9-1.9l0,0l0,0
			C15.7,35.3,16.6,34.4,17.6,34.4C17.6,34.4,17.6,34.4,17.6,34.4z"/>
		<path class="st4" d="M43.2,72.2h66.6c1,0,1.9,0.9,1.9,1.9l0,0l0,0c0,1-0.9,1.9-1.9,1.9l0,0H43.2c-1,0-1.9-0.9-1.9-1.9l0,0l0,0
			C41.3,73.1,42.2,72.2,43.2,72.2L43.2,72.2z"/>
		<path class="st4" d="M43.2,86.3h92.2c1,0,1.9,0.9,1.9,1.9l0,0c0,1-0.9,1.9-1.9,1.9H43.2c-1,0-1.9-0.9-1.9-1.9l0,0l0,0
			c0-1,0.8-1.9,1.8-1.9C43.1,86.3,43.2,86.3,43.2,86.3z"/>
		<path class="st4" d="M43.2,95.2h60.2c1,0,1.9,0.9,1.9,1.9l0,0l0,0c0,1-0.9,1.9-1.9,1.9l0,0H43.2c-1,0-1.9-0.9-1.9-1.9l0,0l0,0
			C41.3,96.1,42.2,95.2,43.2,95.2L43.2,95.2z"/>
		<g class="st5">
			<path class="st0" d="M57.9,119l1.5,2.8h0.1l1.5-2.8h1.5l-2.4,4.2v2.3h-1.4v-2.3l-2.4-4.2H57.9z"/>
		</g>
		<g class="st5">
			<path class="st0" d="M62,123.1c0-1.5,0.9-2.5,2.4-2.5c1.3,0,2.3,0.8,2.3,2.5v0.4h-3.3v0c0,0.7,0.4,1.2,1.1,1.2
				c0.5,0,0.8-0.2,0.9-0.6l1.3,0.1c-0.2,0.9-1,1.5-2.2,1.5C62.9,125.6,62,124.6,62,123.1z M65.4,122.6c0-0.6-0.4-1-1-1
				c-0.6,0-1,0.4-1.1,1H65.4z"/>
			<path class="st0" d="M70.4,122.1c-0.1-0.3-0.3-0.6-0.8-0.6c-0.4,0-0.8,0.2-0.7,0.5c0,0.2,0.2,0.4,0.6,0.5l0.9,0.2
				c1,0.2,1.4,0.6,1.4,1.3c0,1-0.9,1.6-2.2,1.6c-1.3,0-2.1-0.6-2.2-1.5l1.3-0.1c0.1,0.4,0.4,0.6,0.9,0.6c0.5,0,0.8-0.2,0.8-0.5
				c0-0.2-0.2-0.4-0.6-0.5l-0.8-0.2c-1-0.2-1.4-0.7-1.4-1.4c0-0.9,0.8-1.5,2.1-1.5c1.2,0,2,0.6,2.1,1.5L70.4,122.1z"/>
		</g>
		
			<linearGradient id="shape-base_1_" gradientUnits="userSpaceOnUse" x1="41.9488" y1="0.1306" x2="41.9188" y2="0.1606" gradientTransform="matrix(480 0 0 496 -20102.0801 1.7969)">
			<stop  offset="5.000000e-02" style="stop-color:#FFF44F"/>
			<stop  offset="0.37" style="stop-color:#FF980E"/>
			<stop  offset="0.53" style="stop-color:#FF3647"/>
			<stop  offset="0.7" style="stop-color:#E31587"/>
		</linearGradient>
		<path id="shape-base" class="st6" d="M34,71c-0.4-0.9-1-1.7-1.8-2.3c0.5,0.9,0.8,1.8,0.9,2.8l0,0c-1-2.6-2.8-3.6-4.2-5.8l-0.2-0.3
			c0-0.1-0.1-0.1-0.1-0.2c-0.1-0.1-0.1-0.2-0.1-0.4l0,0l0,0c-1.8,1.1-2.9,3-3.1,5.1c-0.9,0.1-1.8,0.4-2.5,1l-0.2-0.2
			c-0.2-0.7-0.2-1.5,0-2.2c-0.9,0.4-1.6,0.9-2.3,1.6l0,0c-0.3-0.7-0.4-1.5-0.3-2.3c-0.1,0-0.2,0.1-0.3,0.2c-0.3,0.2-0.6,0.5-0.9,0.8
			c-0.3,0.3-0.6,0.6-0.9,1l0,0c-0.6,0.8-1,1.8-1.2,2.8v0.1c0,0.1-0.1,0.5-0.1,0.6l0,0c-0.1,0.4-0.1,0.8-0.1,1.3l0,0c0,5,4,9.1,9,9.2
			c4.4,0,8.2-3.1,9-7.5c0-0.1,0-0.2,0-0.3C34.8,74,34.6,72.5,34,71z M23.6,78.1l0.1,0.1l0,0L23.6,78.1z"/>
		
			<radialGradient id="body-outer-ring_1_" cx="41.7153" cy="-0.2326" r="5.000000e-02" gradientTransform="matrix(384 0 0 390.47 -15984.5898 157.6001)" gradientUnits="userSpaceOnUse">
			<stop  offset="0.13" style="stop-color:#FFBD4F"/>
			<stop  offset="0.28" style="stop-color:#FF980E"/>
			<stop  offset="0.47" style="stop-color:#FF3750"/>
			<stop  offset="0.78" style="stop-color:#EB0878"/>
			<stop  offset="0.86" style="stop-color:#E50080"/>
		</radialGradient>
		<path id="body-outer-ring" class="st7" d="M34,71c-0.4-0.9-1-1.7-1.8-2.3c0.5,0.9,0.8,1.8,0.9,2.8l0,0c0.7,2,0.6,4.2-0.3,6.1
			c-1.4,2.9-4.3,4.6-7.5,4.4c-4.3-0.1-7.9-3.2-8.7-7.4c-0.1-0.5-0.1-1,0.1-1.5c-0.1,0.4-0.1,0.8-0.1,1.3l0,0c0,5,4,9.1,9,9.2
			c4.5,0,8.3-3.2,9-7.6c0-0.1,0-0.2,0-0.3C34.8,74,34.6,72.5,34,71z"/>
		
			<radialGradient id="body-outer-ring-shadow_1_" cx="41.8066" cy="-8.256285e-02" r="5.000000e-02" gradientTransform="matrix(393.6 0 0 390.47 -16430.9004 107.229)" gradientUnits="userSpaceOnUse">
			<stop  offset="0.3" style="stop-color:#960E18"/>
			<stop  offset="0.35" style="stop-color:#B11927;stop-opacity:0.74"/>
			<stop  offset="0.43" style="stop-color:#DB293D;stop-opacity:0.34"/>
			<stop  offset="0.5" style="stop-color:#F5334B;stop-opacity:9.000000e-02"/>
			<stop  offset="0.53" style="stop-color:#FF3750;stop-opacity:0"/>
		</radialGradient>
		<path id="body-outer-ring-shadow" class="st8" d="M34,71c-0.4-0.9-1-1.7-1.8-2.3c0.5,0.9,0.8,1.8,0.9,2.8l0,0
			c0.7,2,0.6,4.2-0.3,6.1c-1.4,2.9-4.3,4.6-7.5,4.4c-4.3-0.1-7.9-3.2-8.7-7.4c-0.1-0.5-0.1-1,0.1-1.5c-0.1,0.4-0.1,0.8-0.1,1.3l0,0
			c0,5,4,9.1,9,9.2c4.5,0,8.3-3.2,9-7.6c0-0.1,0-0.2,0-0.3C34.8,74,34.6,72.5,34,71z"/>
		
			<radialGradient id="tail-tip_1_" cx="39.7178" cy="0.3149" r="5.000000e-02" gradientTransform="matrix(115.24 0 0 195.64 -4549.8198 2.3601)" gradientUnits="userSpaceOnUse">
			<stop  offset="0.13" style="stop-color:#FFF44F"/>
			<stop  offset="0.53" style="stop-color:#FF980E"/>
		</radialGradient>
		<path id="tail-tip" class="st9" d="M29.6,72.1L29.6,72.1c-0.2-0.4-0.5-0.8-0.8-1.1c-1.8-1.7-2-4.4-0.4-6.3l0,0
			c-1.8,1.1-2.9,3-3.1,5.1h0.3C27.3,69.7,28.8,70.6,29.6,72.1L29.6,72.1z"/>
		
			<radialGradient id="globe-base_1_" cx="41.2216" cy="-0.2343" r="4.000000e-02" gradientTransform="matrix(213.48 0 0 233.98 -8775.7803 135.0988)" gradientUnits="userSpaceOnUse">
			<stop  offset="0.35" style="stop-color:#3A8EE6"/>
			<stop  offset="0.67" style="stop-color:#9059FF"/>
			<stop  offset="1" style="stop-color:#C139E6"/>
		</radialGradient>
		<path id="globe-base" class="st10" d="M25.6,72.6c-0.2,0.4-0.6,0.8-1.1,1c-2.6,0-3,1.6-3,1.6c0.2,1.3,1,2.4,2.1,3l0.1,0.1l0.3,0.1
			c0.4,0.1,0.8,0.2,1.2,0.2c2.1,0.1,3.9-1.4,4-3.5c0.1-1.4-0.6-2.8-1.9-3.5c0.8-0.1,1.6,0.1,2.2,0.5c-0.8-1.4-2.3-2.3-4-2.3h-0.3
			c-0.9,0.1-1.8,0.4-2.5,1l0.6,0.6C24.1,71.9,24.9,72.4,25.6,72.6L25.6,72.6z"/>
		
			<radialGradient id="globe-shadow_1_" cx="41.1407" cy="-0.2643" r="2.000000e-02" gradientTransform="matrix(192.13 0 0 233.98 -7879.1201 135.0988)" gradientUnits="userSpaceOnUse">
			<stop  offset="0.21" style="stop-color:#9059FF;stop-opacity:0"/>
			<stop  offset="0.97" style="stop-color:#6E008B;stop-opacity:0.6"/>
		</radialGradient>
		<path id="globe-shadow" class="st11" d="M25.6,72.6c-0.2,0.4-0.6,0.8-1.1,1c-2.6,0-3,1.6-3,1.6c0.2,1.3,1,2.4,2.1,3l0.1,0.1
			l0.3,0.1c0.4,0.1,0.8,0.2,1.2,0.2c2.1,0.1,3.9-1.4,4-3.5c0.1-1.4-0.6-2.8-1.9-3.5c0.8-0.1,1.6,0.1,2.2,0.5c-0.8-1.4-2.3-2.3-4-2.3
			h-0.3c-0.9,0.1-1.8,0.4-2.5,1l0.6,0.6C24.1,71.9,24.9,72.4,25.6,72.6L25.6,72.6z"/>
		
			<radialGradient id="ear_1_" cx="39.7011" cy="-0.537" r="0.11" gradientTransform="matrix(58.52 0 0 58.73 -2298.6399 97.9097)" gradientUnits="userSpaceOnUse">
			<stop  offset="0.1" style="stop-color:#FFE226"/>
			<stop  offset="0.79" style="stop-color:#FF7139"/>
		</radialGradient>
		<path id="ear" class="st12" d="M22.4,70.4l0.2,0.1c-0.2-0.7-0.2-1.5,0-2.2c-0.8,0.4-1.6,1-2.2,1.7C21,70,21.7,70.1,22.4,70.4
			L22.4,70.4z"/>
		
			<radialGradient id="body_1_" cx="41.9333" cy="-5.264939e-02" r="7.000000e-02" gradientTransform="matrix(450.15 0 0 377.88 -18847.3398 82.0802)" gradientUnits="userSpaceOnUse">
			<stop  offset="0.11" style="stop-color:#FFF44F"/>
			<stop  offset="0.46" style="stop-color:#FF980E"/>
			<stop  offset="0.72" style="stop-color:#FF3647"/>
			<stop  offset="0.9" style="stop-color:#E31587"/>
		</radialGradient>
		<path id="body" class="st13" d="M16.6,74.6c0.8,4.2,4.4,7.3,8.7,7.4c3.2,0.2,6.1-1.6,7.5-4.4c0.9-1.9,1-4.1,0.3-6.1l0,0
			c0.2,2.1-0.7,4.2-2.4,5.5l0,0c-3.3,2.7-6.4,1.6-7,1.2l-0.1-0.1c-1.7-0.7-2.7-2.3-2.6-4.1c-0.9,0-1.8-0.5-2.2-1.4
			c1-0.6,2.3-0.7,3.4-0.1c1.1,0.5,2.3,0.5,3.4,0.1c-0.8-0.4-1.5-0.8-2.2-1.3l-0.6-0.6l-0.2-0.2l-0.2-0.1c-0.6-0.3-1.3-0.4-2-0.4l0,0
			c-0.3-0.7-0.4-1.5-0.3-2.3c-0.1,0-0.2,0.1-0.3,0.2c-0.3,0.2-0.6,0.5-0.9,0.8c-0.3,0.3-0.6,0.6-0.9,1l0,0c-0.6,0.8-1,1.8-1.2,2.8
			C16.6,73.1,16.5,73.9,16.6,74.6L16.6,74.6z"/>
		
			<radialGradient id="tail-flame_1_" cx="42.7192" cy="2.0951" r="0.13" gradientTransform="matrix(16.08 151.87 -153.03 15.96 -338.4705 -6459.21)" gradientUnits="userSpaceOnUse">
			<stop  offset="0" style="stop-color:#FFF44F"/>
			<stop  offset="0.3" style="stop-color:#FF980E"/>
			<stop  offset="0.57" style="stop-color:#FF3647"/>
			<stop  offset="0.74" style="stop-color:#E31587"/>
		</radialGradient>
		<path id="tail-flame" class="st14" d="M28.8,71c0.3,0.3,0.6,0.7,0.8,1.1l0.1,0.1c1.2,1.3,1.6,3.2,0.9,4.8c1.7-1.3,2.6-3.4,2.4-5.5
			c-1-2.6-2.8-3.6-4.2-5.8l-0.2-0.3c0-0.1-0.1-0.1-0.1-0.2c-0.1-0.1-0.1-0.2-0.1-0.4l0,0l0,0C26.9,66.6,27.1,69.4,28.8,71L28.8,71z"
			/>
		
			<radialGradient id="tail-small_1_" cx="40.8624" cy="-0.5952" r="9.000000e-02" gradientTransform="matrix(195.14 0 0 191.71 -7948.8701 182.1796)" gradientUnits="userSpaceOnUse">
			<stop  offset="0.14" style="stop-color:#FFF44F"/>
			<stop  offset="0.48" style="stop-color:#FF980E"/>
			<stop  offset="0.66" style="stop-color:#FF3647"/>
			<stop  offset="0.9" style="stop-color:#E31587"/>
		</radialGradient>
		<path id="tail-small" class="st15" d="M29.8,72.2l-0.1-0.1h0c-0.6-0.4-1.4-0.6-2.2-0.5c1.8,1,2.4,3.3,1.4,5.1
			c-0.7,1.2-2.1,2-3.5,1.9c-0.4,0-0.8-0.1-1.2-0.2l-0.3-0.1l-0.1-0.1l0,0c0.6,0.4,3.8,1.5,7-1.2l0,0C31.4,75.4,31,73.5,29.8,72.2
			L29.8,72.2z"/>
		
			<radialGradient id="cheek-tufts_1_" cx="41.4924" cy="-0.8063" r="0.12" gradientTransform="matrix(178.59 0 0 159.77 -7380.6699 198.8094)" gradientUnits="userSpaceOnUse">
			<stop  offset="9.000000e-02" style="stop-color:#FFF44F"/>
			<stop  offset="0.63" style="stop-color:#FF980E"/>
		</radialGradient>
		<path id="cheek-tufts" class="st16" d="M21.5,75.2c0,0,0.4-1.6,3-1.6c0.5-0.2,0.9-0.6,1.1-1c0-0.2-1.7,0.7-3.4-0.1
			c-1.1-0.5-2.3-0.5-3.4,0.1c0.4,0.8,1.2,1.4,2.1,1.3c-0.1,1.8,0.9,3.4,2.5,4.1l0.1,0.1C22.5,77.6,21.7,76.5,21.5,75.2z"/>
		
			<linearGradient id="overlay-yellow_1_" gradientUnits="userSpaceOnUse" x1="41.9454" y1="0.1274" x2="41.9254" y2="0.1574" gradientTransform="matrix(480 0 0 496 -20101.9902 1.7969)">
			<stop  offset="0.17" style="stop-color:#FFF44F;stop-opacity:0.8"/>
			<stop  offset="0.6" style="stop-color:#FFF44F;stop-opacity:0"/>
		</linearGradient>
		<path id="overlay-yellow" class="st17" d="M34,71c-0.4-0.9-1-1.7-1.8-2.3c0.5,0.9,0.8,1.8,0.9,2.8l0,0c-1-2.6-2.8-3.6-4.2-5.8
			l-0.2-0.3c0-0.1-0.1-0.1-0.1-0.2c-0.1-0.1-0.1-0.2-0.1-0.4l0,0l0,0c-1.8,1.1-2.9,3-3.1,5.1h0.3c1.7,0,3.2,0.9,4,2.3
			c-0.6-0.4-1.4-0.6-2.2-0.5c1.8,1,2.4,3.3,1.4,5.1c-0.7,1.2-2.1,2-3.5,1.9c-0.4,0-0.8-0.1-1.2-0.2l-0.3-0.1l-0.1-0.1l0,0l-0.1-0.1
			l0.1,0.1c-1.2-0.6-2-1.7-2.1-3c0,0,0.4-1.6,3-1.6c0.5-0.2,0.9-0.6,1.1-1c-0.8-0.4-1.5-0.8-2.2-1.3l-0.6-0.6l-0.2-0.2
			c-0.2-0.7-0.2-1.5,0-2.2c-0.9,0.4-1.6,1-2.3,1.7l0,0c-0.3-0.7-0.4-1.5-0.4-2.3c-0.1,0-0.2,0.1-0.3,0.2c-0.3,0.2-0.6,0.5-0.9,0.8
			c-0.3,0.3-0.6,0.6-0.9,1l0,0c-0.6,0.8-1,1.8-1.2,2.8v0.1c0,0.1-0.1,0.5-0.1,0.6l0,0c-0.1,0.4-0.1,0.8-0.1,1.3l0,0
			c-0.2,5,3.8,9.2,8.8,9.4c4.6,0.1,8.6-3.2,9.3-7.8c0-0.1,0-0.2,0-0.3C34.8,74,34.6,72.5,34,71z M33.1,71.5L33.1,71.5z"/>
	</g>
	<polygon id="img-win-step-3-d-2" class="st18" points="80.3,122.6 80.3,147.5 85.8,142.2 89,149.6 94,147.4 90.8,139.9 98.3,139.4 
			"/>
</g>
</svg>
