<?xml version="1.0" encoding="utf-8"?>
<!-- Generator: Adobe Illustrator 24.1.2, SVG Export Plug-In . SVG Version: 6.00 Build 0)  -->
<svg version="1.1" id="Layer_1" xmlns="http://www.w3.org/2000/svg" xmlns:xlink="http://www.w3.org/1999/xlink" x="0px" y="0px"
	 viewBox="0 0 236 154" style="enable-background:new 0 0 236 154;" xml:space="preserve">
<style type="text/css">
	.st0{fill:#DFE1E5;}
	.st1{fill:#FF5A52;}
	.st2{fill:#E6C029;}
	.st3{fill:#53C22B;}
	.st4{fill:#FFFFFF;}
	.st5{fill:#B1B1BC;}
	.st6{fill-rule:evenodd;clip-rule:evenodd;fill:#B1B1BC;}
	.st7{fill:#F1F3F4;}
	.st8{fill:#9595A3;}
	.st9{fill-rule:evenodd;clip-rule:evenodd;fill:#9595A3;}
	.st10{fill-rule:evenodd;clip-rule:evenodd;fill:#FFFFFF;}
	.st11{fill:#0060DF;}
	.st12{fill:none;stroke:#0060DF;stroke-width:1.15;}
	.st13{fill-rule:evenodd;clip-rule:evenodd;stroke:#FFFFFF;stroke-width:1.3;}
</style>
<g id="Layer_1_1_">
	<path id="img-win-step-1-c" class="st0" d="M21.6,5h203.9c0.9,0,1.7,0.8,1.7,1.7v10.2H19.9V6.7C19.9,5.8,20.7,5,21.6,5z"/>
	
		<image style="overflow:visible;opacity:0.17;enable-background:new    ;" width="239" height="154" xlink:href="8B7D5ADB2D027BF7.png"  transform="matrix(1 0 0 1 4 -7)">
	</image>
	<path class="st0" d="M227.2,6.9V6.7c0-0.9-0.8-1.7-1.7-1.7H21.6c-0.9,0-1.7,0.8-1.7,1.7V127c0,0.9,0.8,1.7,1.7,1.7h203.9
		c0.9,0,1.7-0.8,1.7-1.7L227.2,6.9L227.2,6.9z"/>
	<circle class="st1" cx="29.2" cy="10.9" r="2.5"/>
	<circle class="st2" cx="36" cy="10.9" r="2.5"/>
	<circle class="st3" cx="42.8" cy="10.9" r="2.5"/>
	<path class="st4" d="M99.5,16.8c-1.1,0-1.7-0.8-1.7-2.4v-6c0.1-0.8-0.5-1.6-1.3-1.7c-0.1,0-0.2,0-0.4,0H53.8
		C53,6.6,52.2,7.2,52.1,8c0,0.1,0,0.2,0,0.4v6.1c0,1.3-0.4,2-1.1,2.3H19.9v110c0,0.9,0.8,1.7,1.7,1.7h203.9c0.9,0,1.7-0.8,1.7-1.7
		v-110H99.5z"/>
	<path id="img-win-step-1-e" class="st0" d="M19.9,115h207.3v11.8c0,0.9-0.8,1.7-1.7,1.7H21.6c-0.9,0-1.7-0.8-1.7-1.7V115z"/>
	<path id="img-win-step-1-e-2" class="st0" d="M19.9,115h207.3v11.8c0,0.9-0.8,1.7-1.7,1.7H21.6c-0.9,0-1.7-0.8-1.7-1.7V115z"/>
	<path class="st5" d="M25,118.4h3.4c0.9,0,1.7,0.8,1.7,1.7v3.4c0,0.9-0.8,1.7-1.7,1.7H25c-0.9,0-1.7-0.8-1.7-1.7v-3.4
		C23.3,119.2,24,118.4,25,118.4C25,118.4,25,118.4,25,118.4z"/>
	<path class="st6" d="M35.1,120.1h11.8c0.9,0,1.7,0.8,1.7,1.7l0,0c0,0.9-0.8,1.7-1.7,1.7H35.1c-0.9,0-1.7-0.8-1.7-1.7l0,0
		C33.4,120.9,34.2,120.1,35.1,120.1z"/>
	<path class="st6" d="M53.8,120.1h11.8c0.9,0,1.7,0.8,1.7,1.7l0,0c0,0.9-0.8,1.7-1.7,1.7H53.8c-0.9,0-1.7-0.8-1.7-1.7l0,0
		C52.1,120.9,52.9,120.1,53.8,120.1C53.8,120.1,53.8,120.1,53.8,120.1z"/>
	<path class="st7" d="M59.7,20.2h141.1c2.3,0,4.2,1.9,4.2,4.2l0,0c0,2.3-1.9,4.2-4.2,4.2H59.7c-2.3,0-4.2-1.9-4.2-4.2l0,0
		c-0.1-2.3,1.7-4.1,4-4.2C59.6,20.2,59.7,20.2,59.7,20.2z"/>
	<path class="st8" d="M29.2,22L29.2,22c0.1,0.1,0.1,0.3,0,0.4l-1.6,1.7h3.8c0.1,0,0.3,0.1,0.3,0.2c0,0,0,0,0,0.1l0,0
		c0,0.1-0.1,0.3-0.2,0.3c0,0,0,0-0.1,0h-3.8l1.6,1.7c0.1,0.1,0.1,0.2,0,0.3c0,0,0,0,0,0v0.1l0,0c0,0.1-0.2,0.2-0.3,0.1
		c0,0-0.1,0-0.1,0l0,0l-2.1-2.2c-0.1-0.1-0.1-0.1-0.1-0.2c0-0.1,0-0.2,0.1-0.2l2.1-2.3C28.9,21.9,29.1,21.9,29.2,22z"/>
	<path class="st8" d="M37.6,22L37.6,22c-0.1,0.1-0.1,0.3,0,0.4l1.6,1.7h-3.8c-0.1,0-0.3,0.1-0.3,0.2c0,0,0,0,0,0.1l0,0
		c0,0.1,0.1,0.3,0.2,0.3c0,0,0,0,0.1,0h3.8l-1.6,1.7c-0.1,0.1-0.1,0.2,0,0.3c0,0,0,0,0,0v0.1l0,0c0.1,0.1,0.3,0.1,0.4,0l0,0l2.1-2.2
		c0.1-0.1,0.1-0.1,0.1-0.2c0-0.1,0-0.2-0.1-0.2L38,22C37.9,21.9,37.8,21.9,37.6,22z"/>
	<path class="st9" d="M48.7,24.1V22l-0.8,0.9c-0.5-0.5-1.1-0.8-1.8-0.8c-1.3,0-2.4,1.1-2.4,2.4c0,0,0,0.1,0,0.1
		c-0.1,1.3,1,2.5,2.3,2.5c1.1,0,2-0.6,2.4-1.6v-0.1c0-0.1-0.1-0.3-0.2-0.3c0,0,0,0-0.1,0c-0.1,0-0.2,0.1-0.3,0.2l0,0
		c-0.4,1-1.4,1.4-2.4,1.1c-0.7-0.3-1.2-1-1.2-1.8c0-1,0.8-1.9,1.8-1.9c0,0,0.1,0,0.1,0c0.5,0,1.1,0.2,1.4,0.6l-0.8,0.9
		C47.4,24.1,48.1,24.1,48.7,24.1"/>
	<circle class="st8" cx="216.1" cy="24.5" r="4.2"/>
	
		<image style="overflow:visible;opacity:0.17;enable-background:new    ;" width="177" height="49" xlink:href="8B7D5ADB2D027BF5.png"  transform="matrix(1 0 0 1 5 95)">
	</image>
	<path id="img-win-step-1-h" class="st0" d="M13.4,98.3h162.1v36.1H13.4c-1.2,0-2.2-1-2.2-2.2v-31.7C11.2,99.3,12.2,98.3,13.4,98.3z
		"/>
	<path class="st10" d="M11.2,107.5h164.4v26.9H12.8c-0.8,0-1.5-0.7-1.5-1.5v-25.4H11.2z"/>
	<path id="img-win-step-1-j" class="st8" d="M31.3,118.9c-0.1-0.1-0.1-0.1-0.1-0.2l-4.8-4.9c-0.1-0.1-0.1-0.1-0.2-0.1
		c-0.1-0.1-0.2-0.1-0.3-0.1H21c-1.1,0-2.1,0.9-2.1,2c0,0,0,0.1,0,0.1v11.1c0,1.1,0.9,2.1,2,2.1c0,0,0.1,0,0.1,0h8.3
		c1.1,0,2.1-0.9,2.1-2c0,0,0-0.1,0-0.1v-7.6C31.4,119.1,31.4,119,31.3,118.9z M26.5,116l2.5,2.5h-2.5V116z M29.3,127.5H21
		c-0.4,0-0.7-0.3-0.7-0.7c0,0,0,0,0,0v-11.1c0-0.4,0.3-0.7,0.7-0.7c0,0,0,0,0,0h4.2v4.2c0,0.4,0.3,0.7,0.7,0.7c0,0,0,0,0,0H30v6.9
		c0,0.3-0.2,0.7-0.6,0.7C29.4,127.5,29.3,127.5,29.3,127.5L29.3,127.5z"/>
	<path class="st9" d="M40.4,118.3h28.4c1.7,0,3.1,1.4,3.1,3.1l0,0c0,1.7-1.4,3.1-3.1,3.1H40.4c-1.7,0-3.1-1.4-3.1-3.1l0,0
		c0-1.7,1.3-3.1,3-3.1C40.3,118.3,40.4,118.3,40.4,118.3z"/>
	<path class="st9" d="M82.6,118.3H111c1.7,0,3.1,1.4,3.1,3.1l0,0c0,1.7-1.4,3.1-3.1,3.1H82.6c-1.7,0-3.1-1.4-3.1-3.1l0,0
		C79.5,119.7,80.9,118.3,82.6,118.3z"/>
	<path class="st11" d="M28.8,94.8c0.4,0.4,1,0.4,1.4,0l5-5c0.3-0.4,0.2-1.1-0.2-1.4c-0.4-0.3-0.8-0.3-1.2,0l-3.3,3.3V80.1
		c0-0.6-0.4-1-1-1c-0.5,0-1,0.4-1,0.9c0,0,0,0.1,0,0.1v11.6l-3.3-3.3c-0.4-0.3-1.1-0.2-1.4,0.2c-0.3,0.4-0.3,0.8,0,1.2L28.8,94.8z"
		/>
	<path class="st12" d="M3,97.7h171.6c0.8,0,1.5,0.7,1.5,1.5v43.4c0,0.8-0.7,1.5-1.5,1.5H3c-0.8,0-1.5-0.7-1.5-1.5V99.2
		c0-0.8,0.6-1.5,1.3-1.5C2.9,97.7,2.9,97.7,3,97.7z"/>
</g>
<polygon id="img-win-step-3-d-2" class="st13" points="28.3,125.5 28.3,150.4 33.8,145.1 37,152.5 42,150.3 38.8,142.8 46.3,142.3 
	"/>
</svg>
