<svg version="1.1" id="Layer_1" xmlns="http://www.w3.org/2000/svg" xmlns:xlink="http://www.w3.org/1999/xlink" x="0" y="0" viewBox="0 0 236 154" xml:space="preserve"><style>.st0{fill:#dfe1e5}.st8,.st9{fill:#9595a3}.st9{fill-rule:evenodd;clip-rule:evenodd}</style><g id="Layer_1_1_"><path id="img-win-step-1-c" class="st0" d="M21.6 5h203.9c.9 0 1.7.8 1.7 1.7v10.2H19.9V6.7c0-.9.8-1.7 1.7-1.7z"/><image width="239" height="154" xlink:href="8B7D5ADB2D027BF7.png" transform="translate(4 -7)" overflow="visible" opacity=".17"/><path class="st0" d="M227.2 6.9v-.2c0-.9-.8-1.7-1.7-1.7H21.6c-.9 0-1.7.8-1.7 1.7V127c0 .9.8 1.7 1.7 1.7h203.9c.9 0 1.7-.8 1.7-1.7V6.9z"/><circle cx="29.2" cy="10.9" r="2.5" fill="#ff5a52"/><circle cx="36" cy="10.9" r="2.5" fill="#e6c029"/><circle cx="42.8" cy="10.9" r="2.5" fill="#53c22b"/><path d="M99.5 16.8c-1.1 0-1.7-.8-1.7-2.4v-6c.1-.8-.5-1.6-1.3-1.7H53.8c-.8-.1-1.6.5-1.7 1.3v6.5c0 1.3-.4 2-1.1 2.3H19.9v110c0 .9.8 1.7 1.7 1.7h203.9c.9 0 1.7-.8 1.7-1.7v-110H99.5z" fill="#fff"/><path id="img-win-step-1-e" class="st0" d="M19.9 115h207.3v11.8c0 .9-.8 1.7-1.7 1.7H21.6c-.9 0-1.7-.8-1.7-1.7V115z"/><path id="img-win-step-1-e-2" class="st0" d="M19.9 115h207.3v11.8c0 .9-.8 1.7-1.7 1.7H21.6c-.9 0-1.7-.8-1.7-1.7V115z"/><path d="M25 118.4h3.4c.9 0 1.7.8 1.7 1.7v3.4c0 .9-.8 1.7-1.7 1.7H25c-.9 0-1.7-.8-1.7-1.7v-3.4c0-.9.7-1.7 1.7-1.7z" fill="#b1b1bc"/><path d="M35.1 120.1h11.8c.9 0 1.7.8 1.7 1.7 0 .9-.8 1.7-1.7 1.7H35.1c-.9 0-1.7-.8-1.7-1.7 0-.9.8-1.7 1.7-1.7zm18.7 0h11.8c.9 0 1.7.8 1.7 1.7 0 .9-.8 1.7-1.7 1.7H53.8c-.9 0-1.7-.8-1.7-1.7 0-.9.8-1.7 1.7-1.7z" fill-rule="evenodd" clip-rule="evenodd" fill="#b1b1bc"/><path d="M59.7 20.2h141.1c2.3 0 4.2 1.9 4.2 4.2 0 2.3-1.9 4.2-4.2 4.2H59.7c-2.3 0-4.2-1.9-4.2-4.2-.1-2.3 1.7-4.1 4-4.2h.2z" fill="#f1f3f4"/><path class="st8" d="M29.2 22c.1.1.1.3 0 .4l-1.6 1.7h3.8c.1 0 .3.1.3.2v.1c0 .1-.1.3-.2.3h-3.9l1.6 1.7c.1.1.1.2 0 .3v.1c0 .1-.2.2-.3.1h-.1l-2.1-2.2c-.1-.1-.1-.1-.1-.2s0-.2.1-.2l2.1-2.3c.1-.1.3-.1.4 0zm8.4 0c-.1.1-.1.3 0 .4l1.6 1.7h-3.8c-.1 0-.3.1-.3.2v.1c0 .1.1.3.2.3h3.9l-1.6 1.7c-.1.1-.1.2 0 .3v.1c.1.1.3.1.4 0l2.1-2.2c.1-.1.1-.1.1-.2s0-.2-.1-.2L38 22c-.1-.1-.2-.1-.4 0z"/><path class="st9" d="M48.7 24.1V22l-.8.9c-.5-.5-1.1-.8-1.8-.8-1.3 0-2.4 1.1-2.4 2.4v.1c-.1 1.3 1 2.5 2.3 2.5 1.1 0 2-.6 2.4-1.6v-.1c0-.1-.1-.3-.2-.3h-.1c-.1 0-.2.1-.3.2-.4 1-1.4 1.4-2.4 1.1-.7-.3-1.2-1-1.2-1.8 0-1 .8-1.9 1.8-1.9h.1c.5 0 1.1.2 1.4.6l-.8.9c.7-.1 1.4-.1 2-.1"/><circle class="st8" cx="216.1" cy="24.5" r="4.2"/><image width="177" height="49" xlink:href="8B7D5ADB2D027BF5.png" transform="translate(5 95)" overflow="visible" opacity=".17"/><path id="img-win-step-1-h" class="st0" d="M13.4 98.3h162.1v36.1H13.4c-1.2 0-2.2-1-2.2-2.2v-31.7c0-1.2 1-2.2 2.2-2.2z"/><path d="M11.2 107.5h164.4v26.9H12.8c-.8 0-1.5-.7-1.5-1.5v-25.4h-.1z" fill-rule="evenodd" clip-rule="evenodd" fill="#fff"/><path id="img-win-step-1-j" class="st8" d="M31.3 118.9c-.1-.1-.1-.1-.1-.2l-4.8-4.9c-.1-.1-.1-.1-.2-.1-.1-.1-.2-.1-.3-.1H21c-1.1 0-2.1.9-2.1 2v11.2c0 1.1.9 2.1 2 2.1h8.4c1.1 0 2.1-.9 2.1-2v-7.7c0-.1 0-.2-.1-.3zm-4.8-2.9l2.5 2.5h-2.5V116zm2.8 11.5H21c-.4 0-.7-.3-.7-.7v-11.1c0-.4.3-.7.7-.7h4.2v4.2c0 .4.3.7.7.7H30v6.9c0 .3-.2.7-.6.7h-.1z"/><path class="st9" d="M40.4 118.3h28.4c1.7 0 3.1 1.4 3.1 3.1 0 1.7-1.4 3.1-3.1 3.1H40.4c-1.7 0-3.1-1.4-3.1-3.1 0-1.7 1.3-3.1 3-3.1h.1zm42.2 0H111c1.7 0 3.1 1.4 3.1 3.1 0 1.7-1.4 3.1-3.1 3.1H82.6c-1.7 0-3.1-1.4-3.1-3.1 0-1.7 1.4-3.1 3.1-3.1z"/><path d="M28.8 94.8c.4.4 1 .4 1.4 0l5-5c.3-.4.2-1.1-.2-1.4-.4-.3-.8-.3-1.2 0l-3.3 3.3V80.1c0-.6-.4-1-1-1-.5 0-1 .4-1 .9v11.7l-3.3-3.3c-.4-.3-1.1-.2-1.4.2-.3.4-.3.8 0 1.2l5 5z" fill="#0060df"/><path d="M3 97.7h171.6c.8 0 1.5.7 1.5 1.5v43.4c0 .8-.7 1.5-1.5 1.5H3c-.8 0-1.5-.7-1.5-1.5V99.2c0-.8.6-1.5 1.3-1.5H3z" fill="none" stroke="#0060df" stroke-width="1.15"/></g><path id="img-win-step-3-d-2" fill-rule="evenodd" clip-rule="evenodd" stroke="#fff" stroke-width="1.3" d="M28.3 125.5v24.9l5.5-5.3 3.2 7.4 5-2.2-3.2-7.5 7.5-.5z"/></svg>
