<svg xmlns="http://www.w3.org/2000/svg" xmlns:xlink="http://www.w3.org/1999/xlink" width="44" height="548">
    <defs>
        <g id="icon-encryption">
            <!-- 31x43 -->
            <path d="M30.7201463,27.8225189 C30.7201463,36.1037531 24.0070949,42.8168046 15.7258606,42.8168046 C7.44462629,42.8168046 0.731574857,36.1037531 0.731574857,27.8225189 C0.731574857,19.5412846 7.44462629,12.8282331 15.7258606,12.8282331 C24.0070949,12.8282331 30.7201463,19.5412846 30.7201463,27.8225189 L30.7201463,27.8225189 Z"></path>
            <path d="M17.7544046,30.1606034 C16.6250789,31.291392 14.7935817,31.291392 13.6627931,30.1606034 C12.5320046,29.0312777 12.5334674,27.1983177 13.6627931,26.068992 C14.7935817,24.9396663 16.623616,24.9396663 17.7544046,26.068992 C18.8837303,27.1997806 18.8837303,29.0312777 17.7544046,30.1606034 L17.7544046,30.1606034 Z"></path>
            <path d="M17.7538194,26.0692846 L19.8427794,24.0095817"></path>
            <path d="M7.91581257,14.8870583 L7.89240686,8.39197257 C7.89240686,4.16138971 11.4661669,0.730989714 15.8737554,0.730989714 C20.281344,0.730989714 23.855104,4.16138971 23.855104,8.39197257 L23.855104,15.084544"></path>
            <path d="M24.7734857,28.4132206 L26.4938057,28.4132206"></path>
            <path d="M4.94167771,28.4132206 L6.66199771,28.4132206"></path>
            <path d="M15.1186286,37.170176 L15.1186286,38.890496"></path>
            <path d="M16.4688457,17.3388069 L16.4688457,19.0591269"></path>
            <path d="M22.3035977,21.5288686 L23.5206949,20.3117714"></path>
            <path d="M7.91537371,35.9168 L9.13247086,34.6997029"></path>
            <path d="M22.3038903,34.6998491 L23.5209874,35.9169463"></path>
            <path d="M7.91581257,20.3122103 L9.13290971,21.5293074"></path>
        </g>
        <g id="icon-teachtheweb">
            <!-- 32x32 -->
            <path class="cls-1" d="M16,32A16,16,0,1,1,32,16,16,16,0,0,1,16,32ZM16,1A15,15,0,1,0,31,16,15,15,0,0,0,16,1Z"/>
            <path class="cls-1" d="M16.08,32a0.5,0.5,0,1,1,0-1c4,0,7.25-6.73,7.25-15S20.08,1,16.08,1a0.5,0.5,0,0,1,0-1c4.63,0,8.25,7,8.25,16S20.71,32,16.08,32Z"/>
            <path class="cls-1" d="M16,32c-4.63,0-8.25-7-8.25-16S11.33,0,16,0a0.5,0.5,0,0,1,0,1C12,1,8.71,7.73,8.71,16S12,31,16,31A0.5,0.5,0,0,1,16,32Z"/>
            <path class="cls-1" d="M15.42,32a0.5,0.5,0,0,1-.5-0.5V0.5a0.5,0.5,0,0,1,1,0v31A0.5,0.5,0,0,1,15.42,32Z"/>
            <path class="cls-1" d="M31.49,17.12H0.5a0.5,0.5,0,0,1,0-1h31A0.5,0.5,0,0,1,31.49,17.12Z"/>
            <path class="cls-1" d="M30.32,11H1.68a0.5,0.5,0,1,1,0-1H30.32A0.5,0.5,0,0,1,30.32,11Z"/>
            <path class="cls-1" d="M29.61,23.05H2a0.5,0.5,0,0,1,0-1H29.61A0.5,0.5,0,0,1,29.61,23.05Z"/>
        </g>
        <g id="icon-leandata">
            <!-- 32x34 -->
            <title>lean data toolkit icon</title>
            <path d="M8.22,31.43h0a1.56,1.56,0,0,1-1.57-1.55h0a1.57,1.57,0,0,1,3.14,0A1.54,1.54,0,0,1,9.33,31,1.56,1.56,0,0,1,8.22,31.43Zm0-2.11a0.55,0.55,0,1,0,0,1.11h0a0.57,0.57,0,0,0,.4-0.16,0.54,0.54,0,0,0,.16-0.39A0.56,0.56,0,0,0,8.22,29.32Z"/>
            <path d="M8.17,33.95a4.58,4.58,0,0,1-4.6-4.55l1.1-15.74C3.29,12.76,0,10.25,0,7A8,8,0,0,1,3.63.3a0.5,0.5,0,0,1,.51,0,0.5,0.5,0,0,1,.26.44V5.5L6.23,8.23H10.1L11.93,5.5V0.71A0.5,0.5,0,0,1,12.19.27a0.49,0.49,0,0,1,.51,0A8,8,0,0,1,16.33,7c0,3.24-3.29,5.75-4.66,6.65l1.1,15.7A4.59,4.59,0,0,1,8.17,33.95ZM3.41,1.72A7,7,0,0,0,1,7c0,3,3.4,5.31,4.45,6a0.5,0.5,0,0,1,.23.46l-1.12,16a3.61,3.61,0,0,0,7.21,0l-1.12-16A0.5,0.5,0,0,1,10.89,13c1-.65,4.45-3,4.45-6a7,7,0,0,0-2.41-5.28V5.65a0.5,0.5,0,0,1-.08.28L10.79,9a0.5,0.5,0,0,1-.42.22H6A0.5,0.5,0,0,1,5.54,9L3.49,5.92a0.5,0.5,0,0,1-.08-0.28V1.72Z"/>
            <path d="M23.16,34c-2.67,0-4.84-1.79-4.84-4V21.84a0.5,0.5,0,0,1,.29-0.45,1.5,1.5,0,0,0,1-1.3,1.5,1.5,0,0,0-1-1.3,0.5,0.5,0,0,1-.29-0.45v-3a0.5,0.5,0,0,1,.5-0.5H27.5a0.5,0.5,0,0,1,.5.5v3a0.5,0.5,0,0,1-.29.45,1.5,1.5,0,0,0-1,1.3,1.52,1.52,0,0,0,1,1.3,0.5,0.5,0,0,1,.29.45V30C28,32.21,25.83,34,23.16,34ZM19.32,22.15V30c0,1.65,1.72,3,3.84,3S27,31.66,27,30V22.15A2.3,2.3,0,0,1,27,18V15.85H19.32V18A2.3,2.3,0,0,1,19.32,22.15Z"/>
            <path d="M23.16,15.85a0.5,0.5,0,0,1-.5-0.5V4.22a0.5,0.5,0,1,1,1,0V15.35A0.5,0.5,0,0,1,23.16,15.85Z"/>
            <path d="M24,4.72H22.3a0.5,0.5,0,0,1-.48-0.35L21.15,2.24a0.5,0.5,0,0,1,0-.34l0.67-1.59A0.5,0.5,0,0,1,22.3,0H24a0.5,0.5,0,0,1,.46.31L25.15,1.9a0.5,0.5,0,0,1,0,.34L24.5,4.37A0.5,0.5,0,0,1,24,4.72Zm-1.36-1h1l0.5-1.6L23.69,1H22.63L22.16,2.12Z"/>
            <path d="M23.16,30.37a0.5,0.5,0,0,1-.5-0.5V23.12a0.5,0.5,0,0,1,1,0v6.76A0.5,0.5,0,0,1,23.16,30.37Z"/>
        </g>
        <g id="icon-gaming">
            <!-- 33x34 -->
            <path d="M18.75,12.81a0.5,0.5,0,0,1-.5-0.5c0-.63-0.13-0.84-1.43-1.69C14.38,9,11.33,7.06,13.17,3.48l1.76-3.22a0.5,0.5,0,0,1,.88.48L14.05,3.95c-1.32,2.57.46,4,3.31,5.84,1.33,0.87,1.88,1.34,1.88,2.52a0.5,0.5,0,0,1-.5.5h0Z"/>
            <path d="M30.42,34c-3.08,0-8.2-3.4-10-7.43H15.13C13.28,30.71,8.48,34,5.58,34,0,34,0,26.36,0,23.1a8.54,8.54,0,0,1,8.3-8.74H27.7A8.54,8.54,0,0,1,36,23.1C36,26.36,36,34,30.42,34ZM14.8,25.57h5.92a0.5,0.5,0,0,1,.46.31C22.84,29.94,27.92,33,30.42,33c4,0,4.58-5,4.58-9.9a7.54,7.54,0,0,0-7.3-7.74v0H8.33A7.54,7.54,0,0,0,1,23.1C1,28,1.54,33,5.58,33c2.64,0,7.2-3.28,8.75-7.12A0.5,0.5,0,0,1,14.8,25.57ZM27.7,15.35h0Z"/>
            <path d="M7.71,25.84a3.5,3.5,0,1,1,3.44-3.5A3.48,3.48,0,0,1,7.71,25.84Zm0-6a2.5,2.5,0,1,0,2.44,2.5A2.48,2.48,0,0,0,7.71,19.83Z"/>
            <path d="M28.3,25.84a0.5,0.5,0,0,1-.5-0.5v-6a0.5,0.5,0,1,1,1,0v6A0.5,0.5,0,0,1,28.3,25.84Z"/>
            <path d="M31.24,22.84H25.36a0.5,0.5,0,0,1,0-1h5.88A0.5,0.5,0,0,1,31.24,22.84Z"/>
        </g>
        <g id="icon-vr">
            <!-- 40x23 -->
            <path d="M29.51,22c-4.5,0-6.2-1.75-7.69-3.29l-0.54-.54a1.78,1.78,0,0,0-2.22,0l-0.33.32A10.07,10.07,0,0,1,10.49,22a9.07,9.07,0,0,1-2.18-.27C5.24,21,1,19.42.21,14.79-0.07,13.21-.55,6,2.54,2.35A6.4,6.4,0,0,1,7.5,0a7,7,0,0,1,.88.06C10.42,0.31,14.88.47,20,.47S29.58,0.31,31.63.06a6.32,6.32,0,0,1,5.83,2.29C40.55,6,40.07,13.21,39.79,14.79c-0.83,4.64-5,6.18-8.1,6.94A9.11,9.11,0,0,1,29.51,22Zm-9.34-5.22a2.59,2.59,0,0,1,1.81.67h0L22.53,18a8.22,8.22,0,0,0,7,3,8.12,8.12,0,0,0,1.94-.24c2.81-.69,6.62-2.08,7.35-6.15,0.27-1.49.73-8.24-2.11-11.62A5.41,5.41,0,0,0,32.5,1a5.85,5.85,0,0,0-.75,0c-2.1.26-6.6,0.42-11.76,0.42S10.34,1.31,8.25,1A5.92,5.92,0,0,0,7.5,1,5.41,5.41,0,0,0,3.3,3C0.47,6.37.93,13.12,1.2,14.61c0.73,4.07,4.55,5.46,7.36,6.15a8.09,8.09,0,0,0,1.94.24A9.12,9.12,0,0,0,18,17.78l0.33-.33A2.6,2.6,0,0,1,20.17,16.78Z"/>
            <path d="M29.42,18.94c-3.65,0-5.79-3.39-6.41-4.55a7.87,7.87,0,0,1-.66-1.63c-0.18-.6-0.18-0.61-2-0.51-2.05-.1-2.05-0.1-2.35.71a11.18,11.18,0,0,1-.64,1.44c-1.51,2.81-4.65,5.25-8.27,4.35s-5.4-2.25-5.81-4.5C3,12.73,2.74,6.59,5.07,4.13A3.27,3.27,0,0,1,8,3.1H8a163.47,163.47,0,0,0,24,0,3.27,3.27,0,0,1,2.92,1c2.33,2.46,2.1,8.6,1.82,10.11-0.41,2.25-2.14,3.6-5.81,4.5A6.4,6.4,0,0,1,29.42,18.94ZM7.5,4.07a2.25,2.25,0,0,0-1.7.75c-1.91,2-1.89,7.43-1.56,9.25S6,17,9.29,17.78s5.92-1.57,7.15-3.86A10.06,10.06,0,0,0,17,12.6c0.52-1.38.94-1.47,3.29-1.35,2.19-.11,2.61,0,3,1.23a6.87,6.87,0,0,0,.58,1.44c0.79,1.47,3,4.79,6.82,3.86,3.27-.8,4.73-1.88,5.06-3.71s0.34-7.24-1.57-9.25a2.28,2.28,0,0,0-2.07-.73,165,165,0,0,1-24.27,0Z"/>
            <path d="M7.16,11.5a0.5,0.5,0,0,1-.35-0.86l3.9-3.82a0.5,0.5,0,0,1,.7.71l-3.9,3.82A0.5,0.5,0,0,1,7.16,11.5Z"/>
            <path d="M10.57,13a0.5,0.5,0,0,1-.35-0.86l2-1.95a0.5,0.5,0,1,1,.7.71l-2,1.95A0.5,0.5,0,0,1,10.57,13Z"/>
        </g>
        <g id="icon-servo">
            <!-- 32x30 -->
            <path d="M19.7,24.58H13.22a0.5,0.5,0,0,1,0-1H19.7A0.5,0.5,0,0,1,19.7,24.58Z"/>
            <path d="M6.6,24.58a0.5,0.5,0,0,1-.38-0.83l4.33-5-4.33-5A0.5,0.5,0,1,1,7,13.11l4.61,5.32a0.5,0.5,0,0,1,0,.65L7,24.4A0.5,0.5,0,0,1,6.6,24.58Z"/>
            <path d="M28.49,6.48a0.5,0.5,0,0,1-.36-0.15L25.67,3.8a0.5,0.5,0,1,1,.72-0.7l2.46,2.53A0.5,0.5,0,0,1,28.49,6.48Z"/>
            <path d="M26,6.48a0.5,0.5,0,0,1-.36-0.85L28.13,3.1a0.5,0.5,0,0,1,.72.7L26.38,6.33A0.5,0.5,0,0,1,26,6.48Z"/>
            <path d="M31.5,30H0.5A0.5,0.5,0,0,1,0,29.5V0.5A0.5,0.5,0,0,1,.5,0h31a0.5,0.5,0,0,1,.5.5v29A0.5,0.5,0,0,1,31.5,30ZM1,29H31V1H1V29Z"/>
            <path d="M31.5,9.59H0.5a0.5,0.5,0,0,1,0-1h31A0.5,0.5,0,0,1,31.5,9.59Z"/>
            <path d="M22.95,6.37H20.81a0.5,0.5,0,0,1-.5-0.5V3.72a0.5,0.5,0,0,1,.5-0.5h2.14a0.5,0.5,0,0,1,.5.5V5.87A0.5,0.5,0,0,1,22.95,6.37Zm-1.64-1h1.14V4.22H21.31V5.37Z"/>
            <path d="M17.6,6.37H15.47a0.5,0.5,0,0,1,0-1H17.6A0.5,0.5,0,0,1,17.6,6.37Z"/>
        </g>
        <g id="icon-rust">
            <!-- 33x35 -->
            <path class="cls-1" d="M17,34a1,1,0,0,1-.83-0.46l-0.69-1.11-0.89,1a1,1,0,0,1-.9.29A1,1,0,0,1,13,33.06L12.5,31.83l-1.06.76A1,1,0,0,1,9.9,32L9.69,30.67l-1.19.54a1,1,0,0,1-.95-0.08,1,1,0,0,1-.43-0.85l0-1.31-1.27.3a1,1,0,0,1-1.18-1.17L5,26.83l-1.31,0a1,1,0,0,1-.85-0.43,1,1,0,0,1-.08-0.95l0.54-1.19L2,24.1a1,1,0,0,1-.75-0.59,1,1,0,0,1,.11-0.95L2.17,21.5,0.94,21a1,1,0,0,1-.32-1.63l1-.89-1.11-.69a1,1,0,0,1,0-1.66l1.11-.69-1-.89A1,1,0,0,1,.94,13l1.23-.46L1.4,11.44A1,1,0,0,1,2,9.9l1.29-.21L2.79,8.5a1,1,0,0,1,.08-0.95,1,1,0,0,1,.84-0.43L5,7.17,4.72,5.89A1,1,0,0,1,5.89,4.72L7.17,5l0-1.31A1,1,0,0,1,8.5,2.79L9.69,3.33,9.9,2a1,1,0,0,1,.59-0.75,1,1,0,0,1,.94.11L12.5,2.17,13,0.94A1,1,0,0,1,13.68.33a1,1,0,0,1,.9.29l0.89,1,0.69-1.11a1,1,0,0,1,1.66,0l0.69,1.11,0.89-1a1,1,0,0,1,.9-0.29A1,1,0,0,1,21,.94L21.5,2.17l1.06-.76A1,1,0,0,1,24.1,2l0.21,1.29,1.19-.54a1,1,0,0,1,.95.08,1,1,0,0,1,.43.85l0,1.31,1.27-.3a1,1,0,0,1,1.17,1.18L29,7.17l1.31,0a1,1,0,0,1,.85.43,1,1,0,0,1,.08.95L30.67,9.69,32,9.9a1,1,0,0,1,.64,1.54L31.83,12.5,33.06,13a1,1,0,0,1,.32,1.63l-1,.89,1.11,0.69a1,1,0,0,1,0,1.66l-1.11.69,1,0.89A1,1,0,0,1,33.06,21l-1.23.46,0.76,1.06a1,1,0,0,1,.11.95,1,1,0,0,1-.75.59l-1.29.21,0.54,1.19a1,1,0,0,1-.08.95,1,1,0,0,1-.85.43l-1.3,0,0.3,1.27a1,1,0,0,1-1.17,1.17L26.83,29l0,1.31a1,1,0,0,1-.43.85,1,1,0,0,1-.95.08l-1.19-.54L24.1,32a1,1,0,0,1-.59.75,1,1,0,0,1-.95-0.11l-1.06-.76L21,33.06a1,1,0,0,1-.72.62,1,1,0,0,1-.91-0.29l-0.89-1-0.69,1.11A1,1,0,0,1,17,34Zm-1.67-2.65h0.06l0.39,0a0.51,0.51,0,0,1,.38.23L17,33l0.82-1.38a0.5,0.5,0,0,1,.38-0.24l0.39,0a0.52,0.52,0,0,1,.42.16l1.11,1.19,0.53-1.51A0.5,0.5,0,0,1,21,30.88l0.38-.12a0.5,0.5,0,0,1,.44.07l1.32,0.95,0.23-1.59a0.5,0.5,0,0,1,.26-0.36l0.31-.17a0.61,0.61,0,0,1,.49,0l1.48,0.67-0.09-1.61A0.5,0.5,0,0,1,26,28.29l0.3-.25a0.49,0.49,0,0,1,.44-0.11l1.59,0.37-0.4-1.56a0.5,0.5,0,0,1,.1-0.44l0.25-.3a0.53,0.53,0,0,1,.41-0.19l1.63,0.06-0.7-1.45a0.5,0.5,0,0,1,0-.45l0.19-.35a0.5,0.5,0,0,1,.37-0.27l1.6-.26-1-1.28a0.5,0.5,0,0,1-.07-0.44L30.88,21a0.5,0.5,0,0,1,.31-0.33l1.52-.57L31.51,19a0.5,0.5,0,0,1-.16-0.42l0-.39a0.5,0.5,0,0,1,.24-0.38L33,17l-1.35-.84a0.5,0.5,0,0,1-.23-0.38l0-.39A0.5,0.5,0,0,1,31.51,15l1.19-1.11-1.51-.53A0.5,0.5,0,0,1,30.88,13l-0.12-.38a0.5,0.5,0,0,1,.07-0.44l0.95-1.32-1.59-.23a0.5,0.5,0,0,1-.36-0.27L29.64,10a0.5,0.5,0,0,1,0-.45L30.3,8.09l-1.61.09A0.48,0.48,0,0,1,28.29,8L28,7.69a0.5,0.5,0,0,1-.11-0.44l0.37-1.59-1.56.4A0.5,0.5,0,0,1,26.31,6L26,5.71a0.5,0.5,0,0,1-.19-0.41l0.06-1.63-1.45.7a0.5,0.5,0,0,1-.45,0l-0.35-.19a0.5,0.5,0,0,1-.26-0.36L23.11,2.2l-1.28,1a0.5,0.5,0,0,1-.44.07L21,3.12a0.5,0.5,0,0,1-.33-0.31L20.1,1.29,19,2.49a0.52,0.52,0,0,1-.42.16l-0.39,0a0.5,0.5,0,0,1-.38-0.24L17,1,16.16,2.37a0.5,0.5,0,0,1-.38.23l-0.39,0A0.51,0.51,0,0,1,15,2.49L13.86,1.3,13.33,2.81a0.5,0.5,0,0,1-.33.31l-0.38.11a0.5,0.5,0,0,1-.44-0.07l-1.32-.95L10.63,3.81a0.5,0.5,0,0,1-.26.36L10,4.36a0.5,0.5,0,0,1-.45,0L8.09,3.7,8.18,5.3A0.5,0.5,0,0,1,8,5.71L7.69,6a0.5,0.5,0,0,1-.44.1L5.66,5.69l0.4,1.56a0.5,0.5,0,0,1-.1.44L5.71,8a0.49,0.49,0,0,1-.41.19L3.68,8.12l0.7,1.45a0.5,0.5,0,0,1,0,.45l-0.19.35a0.5,0.5,0,0,1-.36.26l-1.6.26,1,1.28a0.5,0.5,0,0,1,.07.44L3.12,13a0.5,0.5,0,0,1-.31.33l-1.52.57L2.49,15a0.5,0.5,0,0,1,.16.42c0,0.13,0,.26,0,0.39a0.5,0.5,0,0,1-.23.38L1,17l1.39,0.82a0.5,0.5,0,0,1,.23.38c0,0.13,0,.26,0,0.39a0.5,0.5,0,0,1-.16.42L1.3,20.14l1.51,0.53a0.5,0.5,0,0,1,.31.33l0.11,0.38a0.5,0.5,0,0,1-.07.44L2.22,23.15,3.8,23.37a0.5,0.5,0,0,1,.36.26L4.36,24a0.5,0.5,0,0,1,0,.45L3.7,25.91l1.61-.09a0.5,0.5,0,0,1,.41.19L6,26.31a0.5,0.5,0,0,1,.11.44L5.69,28.33l1.56-.4a0.49,0.49,0,0,1,.44.11L8,28.29a0.5,0.5,0,0,1,.19.41L8.12,30.32l1.45-.7a0.5,0.5,0,0,1,.45,0l0.35,0.19a0.5,0.5,0,0,1,.26.36l0.26,1.6,1.28-1a0.5,0.5,0,0,1,.44-0.07L13,30.88a0.5,0.5,0,0,1,.33.31l0.57,1.52L15,31.51A0.5,0.5,0,0,1,15.33,31.35ZM33,17h0ZM21.63,24.56c-1.1,0-2-1.33-2.22-2A17,17,0,0,1,19,20.72c-0.07-.34-0.13-0.65-0.17-0.82a1.46,1.46,0,0,0-1.43-1.29H14.77v1.21h2.38a0.62,0.62,0,0,1,.69.62v3.49a0.62,0.62,0,0,1-.69.62H7.29a0.5,0.5,0,0,1-.5-0.5V20.2a0.5,0.5,0,0,1,.5-0.5H8.34V13H7.13a0.5,0.5,0,0,1-.5-0.5l0-3.65a0.5,0.5,0,0,1,.5-0.5H20.81a5.89,5.89,0,0,1,2.87.93,4.37,4.37,0,0,1,2.12,3.6,4.39,4.39,0,0,1-2.14,3.46,4.64,4.64,0,0,1,1.62,3.18,1.19,1.19,0,0,0,.87.24,1,1,0,0,0,1-1.21V18a0.67,0.67,0,0,1,.67-0.7H29a0.5,0.5,0,0,1,.5.5v3.53a3,3,0,0,1-3,3.24H21.63Zm-7.36-6.94h3.12a2.47,2.47,0,0,1,2.4,2c0,0.18.11,0.5,0.18,0.87,0.12,0.58.28,1.37,0.38,1.66a2.12,2.12,0,0,0,1.28,1.38h4.91a2,2,0,0,0,2-2.24v-3H28.12v0.27a2,2,0,0,1-1.86,2.2,1.8,1.8,0,0,1-2-1,3.78,3.78,0,0,0-1.72-3,0.58,0.58,0,0,1-.22-0.44,0.52,0.52,0,0,1,.2-0.42c1.49-.95,2.24-2,2.24-3a3.4,3.4,0,0,0-1.67-2.77,4.85,4.85,0,0,0-2.31-.77H7.62V12H8.84a0.5,0.5,0,0,1,.5.5V20.2a0.5,0.5,0,0,1-.5.5H7.79v2.85h9V20.82H14.27a0.5,0.5,0,0,1-.5-0.5V18.11A0.5,0.5,0,0,1,14.27,17.61ZM18,15.35H14.27a0.5,0.5,0,0,1-.5-0.5V12.58a0.5,0.5,0,0,1,.5-0.5h4.07c0.51,0,2,.42,2,1.7C20.32,14.72,19.41,15.35,18,15.35Zm-3.27-1H18c0.5,0,1.28-.16,1.28-0.58s-1-.7-1-0.7H14.77v1.27Z"/>
        </g>
        <g id="icon-arrow">
            <!-- 44x44 -->
            <circle cx="21" cy="21" r="20" stroke-width="1" />
            <polyline points="19.386 30 11 21 19.386 12"></polyline>
            <path d="M31.293,21 L11,21"></path>
        </g>
    </defs>

    <!-- red/white icons for mobile & float (no flexbox) -->
    <use x="0" y="0" style="stroke:#c33b32; fill:none" xlink:href="#icon-encryption"/>
    <use x="0" y="43" style="fill:#c33b32" xlink:href="#icon-teachtheweb"/>
    <use x="0" y="75" style="fill:#c33b32" xlink:href="#icon-leandata"/>
    <use x="0" y="109" style="fill:#fff" xlink:href="#icon-gaming"/>
    <use x="0" y="143" style="fill:#fff" xlink:href="#icon-vr"/>
    <use x="0" y="166" style="fill:#fff" xlink:href="#icon-servo"/>
    <use x="0" y="196" style="fill:#fff" xlink:href="#icon-rust"/>

    <!-- white/teal icons for desktop/flexbox -->
    <use x="0" y="229" style="stroke:#fff; fill:none" xlink:href="#icon-encryption"/>
    <use x="0" y="272" style="fill:#fff" xlink:href="#icon-teachtheweb"/>
    <use x="0" y="304" style="fill:#fff" xlink:href="#icon-leandata"/>
    <use x="0" y="338" style="fill:#008b89" xlink:href="#icon-gaming"/>
    <use x="0" y="372" style="fill:#008b89" xlink:href="#icon-vr"/>
    <use x="0" y="395" style="fill:#008b89" xlink:href="#icon-servo"/>
    <use x="0" y="425" style="fill:#008b89" xlink:href="#icon-rust"/>

    <!-- arrow for "open" state of who (flipped over the y axis to point right) -->
    <use x="0" y="460" style="stroke:#c33b32; fill:none" transform="translate(42) scale(-1, 1)" xlink:href="#icon-arrow"/>

    <!-- arrow for "open" state of innovate -->
    <use x="0" y="504" style="stroke:#fff; fill:none" xlink:href="#icon-arrow"/>
</svg>
