<svg xmlns="http://www.w3.org/2000/svg" width="0" height="0" overflow="visible" viewBox="0 0 100% 100%">
  <defs>
    <clipPath id="wobble">
      <path d="M0 598V1.533l3.27-.018 11.72-.06c3.907-.03 7.814-.046 11.722.075 7.814 1.285 15.628.258 23.442-.117 15.63-.825 31.257 2.028 46.886.05 7.814-.627 15.628-1.34 23.442-1.117l23.443.722 23.443.67c7.814.173 15.628.43 23.442.302 1.954-.043 3.907-.056 5.86-.134 1.955-.082 3.908-.26 5.862-.393 3.907-.327 7.814-.286 11.72-.344 7.815-.004 15.63.08 23.444.25l11.72.322c3.908.146 7.815.225 11.722.217 3.908.02 7.815-.207 11.722-.417 3.907-.224 7.814-.315 11.72-.39 31.258-1.145 62.515 2 93.772.5 3.907-.137 7.814-.316 11.72-.377 3.908-.05 7.815.01 11.722.125l11.722.426c3.907.117 7.814.15 11.72.117 7.815-.03 15.63-.26 23.444-.443 7.814-.184 15.628-.268 23.443-.275l23.442-.054 23.443.08c15.628.09 31.257.14 46.885.34 7.814.128 15.63.026 23.443.504 3.907.17 7.814.205 11.72-.427 1.955-.273 3.908-.424 5.862-.413 1.953-.014 3.907.01 5.86.053l11.722.43c3.907.102 7.814.104 11.72-.054 7.815-.305 15.63-1.092 23.444-.275 3.907.373 7.814.407 11.72.554 3.908.105 7.815.13 11.722-.033 3.908-.207 7.815-.662 11.722-.682 3.907-.05 7.814-.1 11.72-.074l46.887.134c7.813.022 15.628.053 23.442-.02 3.906-.023 7.814-.167 11.722-.206 3.906-.05 7.812-.025 11.72.055 15.628.25 31.257.902 46.885 1.268 7.815.18 15.63.28 23.443.247 7.814-.024 15.628-.93 23.443-1.258 15.63-.55 31.257.346 46.886.23 3.907-.002 7.813-.104 11.72-.278L964.42.68c3.906-.21 7.813-.363 11.72-.353 1.954.005 3.908-.042 5.86.128 1.954.14 3.908.462 5.86.784 1.955.344 3.908.633 5.862.837.977.085 1.954.173 2.93.18.978 0 1.954-.138 2.93-.297 1.954-.382 3.908-.44 5.86-.57 1.955-.145 3.908-.203 5.862-.23l23.442-.112 11.722.05 5.86.025 2.93.012c.49.002.978 0 1.466.025.49.033.977.113 1.465.18.976.178 1.953.184 2.93.117.978-.047 1.953-.07 2.93-.14 1.955-.107 3.907-.28 5.86-.428 3.908-.325 7.815-.58 11.723-.562 15.63.077 31.257.062 46.885.27l46.886.598 23.443.324c3.907.054 7.813.107 11.72.265 3.908.14 7.815.296 11.722.24 3.906-.023 7.813-.45 11.722-.61 3.906-.11 7.813-.118 11.72-.18 7.815-.12 15.63-.186 23.444-.13 3.906.02 7.813.016 11.72.152l11.722.573c3.907.157 7.815.406 11.723.53 1.953.075 3.907.092 5.86.092 1.954.005 3.907-.292 5.86-.508 7.814-.45 15.63-.5 23.444-.614 3.906-.092 7.813.033 11.72.15l11.722.407c15.63.383 31.257-.91 46.886-1.54 3.907-.136 7.814-.262 11.722-.3 1.953-.007 3.906-.15 5.86.106 1.953.238 3.907.792 5.86 1.083 1.954.318 3.907.234 5.86.272l5.86.058 11.723.08c15.628.043 31.257-.053 46.885-.148l3.245-.02v.055l3.27-.018 11.72-.06c3.907-.03 7.814-.046 11.722.075 7.813 1.285 15.627.258 23.44-.117 15.63-.825 31.258 2.028 46.887.05 7.814-.627 15.628-1.34 23.442-1.117l23.442.722 23.443.67c7.814.173 15.628.43 23.442.302 1.954-.043 3.907-.056 5.86-.134 1.955-.082 3.908-.26 5.862-.393 3.906-.327 7.813-.286 11.72-.344 7.814-.004 15.628.08 23.443.25l11.72.322c3.908.146 7.815.225 11.722.217 3.908.02 7.815-.207 11.722-.417 3.907-.224 7.814-.315 11.72-.39 31.258-1.145 62.515 2 93.772.5 3.906-.137 7.813-.316 11.72-.377 3.907-.05 7.814.01 11.72.125l11.723.426c3.907.117 7.814.15 11.72.117 7.815-.03 15.63-.26 23.444-.443 7.814-.184 15.628-.268 23.443-.275l23.442-.054 23.443.08c15.628.09 31.257.14 46.885.34 7.814.128 15.63.026 23.443.504 3.907.17 7.814.205 11.72-.427 1.955-.273 3.908-.424 5.862-.413 1.953-.014 3.907.01 5.86.053l11.722.43c3.907.102 7.814.104 11.72-.054 7.815-.305 15.63-1.092 23.444-.275 3.908.373 7.815.407 11.722.554 3.907.105 7.814.13 11.72-.033 3.91-.207 7.816-.662 11.723-.682 3.907-.05 7.814-.1 11.72-.074l46.887.134c7.813.022 15.628.053 23.442-.02 3.906-.023 7.814-.167 11.722-.206 3.907-.05 7.813-.025 11.72.055 15.63.25 31.258.902 46.886 1.268 7.815.18 15.63.28 23.443.247 7.814-.024 15.628-.93 23.443-1.258 15.628-.55 31.256.346 46.885.23 3.907-.002 7.813-.104 11.72-.278l11.723-.666c3.907-.21 7.814-.363 11.722-.353 1.953.005 3.907-.042 5.86.128 1.953.14 3.907.462 5.86.784 1.954.344 3.907.633 5.86.837.978.085 1.955.173 2.93.18.98 0 1.955-.138 2.932-.297 1.953-.382 3.907-.44 5.86-.57 1.954-.145 3.907-.203 5.86-.23l23.443-.112 11.722.05 5.86.025 2.93.012c.49.002.978 0 1.466.025.49.033.978.113 1.466.18.977.178 1.954.184 2.93.117.98-.047 1.954-.07 2.932-.14 1.954-.107 3.906-.28 5.86-.428 3.907-.325 7.814-.58 11.722-.562 15.63.077 31.257.062 46.885.27l46.886.598 23.444.324c3.907.054 7.813.107 11.72.265 3.908.14 7.815.296 11.722.24 3.907-.023 7.814-.45 11.723-.61 3.905-.11 7.812-.118 11.72-.18 7.814-.12 15.628-.186 23.443-.13 3.906.02 7.813.016 11.72.152l11.722.573c3.907.157 7.815.406 11.723.53 1.952.075 3.906.092 5.86.092 1.953.005 3.906-.292 5.86-.508 7.813-.45 15.628-.5 23.443-.614 3.907-.092 7.814.033 11.722.15l11.72.407c15.63.383 31.258-.91 46.887-1.54 3.906-.136 7.813-.262 11.72-.3 1.954-.007 3.907-.15 5.86.106 1.954.238 3.908.792 5.86 1.083 1.955.318 3.908.234 5.862.272l5.86.058 11.722.08c15.628.043 31.257-.053 46.885-.148l3.244-.02-.694.055 3.27-.018 11.72-.06c3.907-.03 7.814-.046 11.722.075 7.814 1.285 15.628.258 23.442-.117 15.63-.825 31.257 2.028 46.886.05 7.814-.627 15.628-1.34 23.442-1.117l23.443.722 23.443.67c7.814.173 15.628.43 23.442.302 1.954-.043 3.907-.056 5.86-.134 1.955-.082 3.908-.26 5.862-.393 3.907-.327 7.814-.286 11.72-.344 7.815-.004 15.63.08 23.444.25l11.72.322c3.908.146 7.815.225 11.722.217 3.908.02 7.815-.207 11.722-.417 3.907-.224 7.814-.315 11.72-.39 31.258-1.145 62.515 2 93.772.5 3.907-.137 7.814-.316 11.72-.377 3.908-.05 7.815.01 11.722.125l11.722.426c3.907.117 7.814.15 11.72.117 7.815-.03 15.63-.26 23.444-.443 7.814-.184 15.628-.268 23.443-.275l23.442-.054 23.443.08c15.628.09 31.257.14 46.885.34 7.814.128 15.63.026 23.443.504 3.907.17 7.814.205 11.72-.427 1.955-.273 3.908-.424 5.862-.413 1.953-.014 3.907.01 5.86.053l11.722.43c3.907.102 7.814.104 11.72-.054 7.815-.305 15.63-1.092 23.444-.275 3.907.373 7.814.407 11.72.554 3.908.105 7.815.13 11.722-.033 3.908-.207 7.815-.662 11.722-.682 3.907-.05 7.814-.1 11.72-.074l46.887.134c7.813.022 15.628.053 23.442-.02 3.906-.023 7.814-.167 11.722-.206 3.906-.05 7.812-.025 11.72.055 15.628.25 31.257.902 46.885 1.268 7.815.18 15.63.28 23.443.247 7.814-.024 15.628-.93 23.443-1.258 15.63-.55 31.257.346 46.886.23 3.907-.002 7.813-.104 11.72-.278L3977.42.68c3.906-.21 7.813-.363 11.72-.353 1.954.005 3.908-.042 5.86.128 1.954.14 3.908.462 5.86.784 1.955.344 3.908.633 5.862.837.977.085 1.954.173 2.93.18.978 0 1.954-.138 2.93-.297 1.954-.382 3.908-.44 5.86-.57 1.955-.145 3.908-.203 5.862-.23l23.442-.112 11.722.05 5.86.025 2.93.012c.49.002.978 0 1.466.025.49.033.977.113 1.465.18.976.178 1.953.184 2.93.117.978-.047 1.953-.07 2.93-.14 1.955-.107 3.907-.28 5.86-.428 3.908-.325 7.815-.58 11.723-.562 15.63.077 31.257.062 46.885.27l46.886.598 23.443.324c3.907.054 7.813.107 11.72.265 3.908.14 7.815.296 11.722.24 3.906-.023 7.813-.45 11.722-.61 3.906-.11 7.813-.118 11.72-.18 7.815-.12 15.63-.186 23.444-.13 3.906.02 7.813.016 11.72.152l11.722.573c3.907.157 7.815.406 11.723.53 1.953.075 3.907.092 5.86.092 1.954.005 3.907-.292 5.86-.508 7.814-.45 15.63-.5 23.444-.614 3.906-.092 7.813.033 11.72.15l11.722.407c15.63.383 31.257-.91 46.886-1.54 3.907-.136 7.814-.262 11.722-.3 1.953-.007 3.906-.15 5.86.106 1.953.238 3.907.792 5.86 1.083 1.954.318 3.907.234 5.86.272l5.86.058 11.723.08c15.628.043 31.257-.053 46.885-.148l3.245-.02v.055l3.27-.018 11.72-.06c3.907-.03 7.814-.046 11.722.075 7.813 1.285 15.627.258 23.44-.117 15.63-.825 31.258 2.028 46.887.05 7.814-.627 15.628-1.34 23.442-1.117l23.442.722 23.443.67c7.814.173 15.628.43 23.442.302 1.954-.043 3.907-.056 5.86-.134 1.955-.082 3.908-.26 5.862-.393 3.906-.327 7.813-.286 11.72-.344 7.814-.004 15.628.08 23.443.25l11.72.322c3.908.146 7.815.225 11.722.217 3.908.02 7.815-.207 11.722-.417 3.907-.224 7.814-.315 11.72-.39 31.258-1.145 62.515 2 93.772.5 3.905-.137 7.812-.316 11.72-.377 3.906-.05 7.813.01 11.72.125l11.724.426c3.906.117 7.813.15 11.72.117 7.814-.03 15.63-.26 23.444-.443 7.813-.184 15.627-.268 23.442-.275l23.442-.054 23.442.08c15.628.09 31.257.14 46.886.34 7.813.128 15.63.026 23.442.504 3.907.17 7.813.205 11.722-.427 1.953-.273 3.906-.424 5.86-.413 1.953-.014 3.907.01 5.86.053l11.722.43c3.907.102 7.813.104 11.722-.054 7.813-.305 15.63-1.092 23.442-.275 3.907.373 7.813.407 11.72.554 3.908.105 7.814.13 11.723-.033 3.908-.207 7.814-.662 11.722-.682 3.907-.05 7.813-.1 11.72-.074l46.887.134c7.814.022 15.63.053 23.443-.02 3.906-.023 7.814-.167 11.72-.206 3.91-.05 7.815-.025 11.722.055 15.63.25 31.258.902 46.885 1.268 7.816.18 15.63.28 23.443.247 7.814-.024 15.63-.93 23.443-1.258 15.63-.55 31.256.346 46.885.23 3.908-.002 7.814-.104 11.72-.278l11.724-.666c3.906-.21 7.814-.363 11.72-.353 1.954.005 3.91-.042 5.862.128 1.952.14 3.905.462 5.858.784 1.955.344 3.908.633 5.86.837.978.085 1.956.173 2.93.18.98 0 1.956-.138 2.933-.297 1.954-.382 3.907-.44 5.86-.57 1.955-.145 3.908-.203 5.86-.23l23.444-.112 11.72.05 5.862.025 2.93.012c.488.002.977 0 1.465.025.49.033.978.113 1.466.18.977.178 1.955.184 2.932.117.977-.047 1.953-.07 2.93-.14 1.955-.107 3.906-.28 5.86-.428 3.907-.325 7.815-.58 11.722-.562 15.63.077 31.258.062 46.885.27l46.887.598 23.443.324c3.906.054 7.812.107 11.72.265 3.907.14 7.815.296 11.722.24 3.906-.023 7.814-.45 11.723-.61 3.906-.11 7.812-.118 11.72-.18 7.815-.12 15.628-.186 23.444-.13 3.906.02 7.812.016 11.72.152l11.722.573c3.906.157 7.814.406 11.723.53 1.95.075 3.905.092 5.858.092 1.953.005 3.906-.292 5.86-.508 7.813-.45 15.628-.5 23.444-.614 3.906-.092 7.812.033 11.72.15l11.722.407c15.63.383 31.256-.91 46.885-1.54 3.907-.136 7.813-.262 11.722-.3 1.953-.007 3.906-.15 5.86.106 1.952.238 3.907.792 5.86 1.083 1.953.318 3.906.234 5.86.272l5.86.058 11.723.08c15.627.043 31.256-.053 46.885-.148l3.244-.02.002.055 3.27-.018 11.72-.06c3.907-.03 7.814-.046 11.722.075 7.814 1.285 15.63.258 23.442-.117 15.63-.825 31.257 2.028 46.886.05 7.814-.627 15.63-1.34 23.442-1.117l23.442.722 23.443.67c7.814.173 15.63.43 23.442.302 1.954-.043 3.907-.056 5.86-.134 1.955-.082 3.908-.26 5.86-.393 3.908-.327 7.815-.286 11.722-.344 7.814-.004 15.63.08 23.443.25l11.72.322c3.908.146 7.815.225 11.723.217 3.907.02 7.815-.207 11.722-.417 3.907-.224 7.814-.315 11.72-.39 31.26-1.145 62.515 2 93.772.5 3.906-.137 7.814-.316 11.72-.377 3.908-.05 7.815.01 11.722.125l11.722.426c3.906.117 7.814.15 11.72.117 7.815-.03 15.63-.26 23.444-.443 7.814-.184 15.628-.268 23.443-.275l23.44-.054 23.44.08c15.628.09 31.257.14 46.885.34 7.814.128 15.63.026 23.443.504 3.906.17 7.813.205 11.72-.427 1.955-.273 3.907-.424 5.862-.413 1.953-.014 3.906.01 5.86.053l11.722.43c3.906.102 7.813.104 11.72-.054 7.815-.305 15.63-1.092 23.444-.275 3.906.373 7.813.407 11.72.554 3.907.105 7.814.13 11.722-.033 3.908-.207 7.814-.662 11.723-.682 3.907-.05 7.814-.1 11.722-.074l46.886.134c7.813.022 15.628.053 23.442-.02 3.906-.023 7.814-.167 11.722-.206 3.907-.05 7.813-.025 11.72.055 15.63.25 31.258.902 46.886 1.268 7.815.18 15.63.28 23.443.247 7.815-.024 15.63-.93 23.444-1.258 15.628-.55 31.256.346 46.885.23 3.906-.002 7.812-.104 11.72-.278l11.722-.666c3.907-.21 7.814-.363 11.722-.353 1.953.005 3.907-.042 5.86.128 1.953.14 3.907.462 5.86.784 1.954.344 3.907.633 5.86.837.978.085 1.955.173 2.93.18.98 0 1.955-.138 2.932-.297 1.953-.382 3.907-.44 5.86-.57 1.954-.145 3.907-.203 5.86-.23l23.443-.112 11.72.05 5.86.025 2.932.012c.488.002.977 0 1.465.025.49.033.977.113 1.465.18.977.178 1.954.184 2.93.117.98-.047 1.954-.07 2.932-.14 1.954-.107 3.906-.28 5.86-.428 3.907-.325 7.814-.58 11.722-.562 15.63.077 31.257.062 46.885.27l46.887.598 23.443.324c3.907.054 7.813.107 11.72.265 3.908.14 7.815.296 11.722.24 3.907-.023 7.814-.45 11.723-.61 3.906-.11 7.813-.118 11.72-.18 7.815-.12 15.63-.186 23.444-.13 3.905.02 7.812.016 11.72.152l11.72.573c3.908.157 7.816.406 11.724.53 1.952.075 3.906.092 5.86.092 1.953.005 3.906-.292 5.86-.508 7.813-.45 15.628-.5 23.443-.614 3.906-.092 7.813.033 11.72.15l11.722.407c15.628.383 31.256-.91 46.885-1.54 3.907-.136 7.814-.262 11.722-.3 1.953-.007 3.906-.15 5.86.106 1.953.238 3.907.792 5.86 1.083 1.954.318 3.907.234 5.86.272l5.86.058 11.723.08c15.628.043 31.257-.053 46.885-.148l3.245-.02v.055l3.27-.018 11.72-.06c3.908-.03 7.814-.046 11.723.075 7.814 1.285 15.628.258 23.44-.117 15.63-.825 31.26 2.028 46.888.05 7.815-.627 15.63-1.34 23.442-1.117l23.443.722 23.443.67c7.814.173 15.628.43 23.44.302 1.956-.043 3.908-.056 5.862-.134 1.954-.082 3.907-.26 5.86-.393 3.907-.327 7.815-.286 11.722-.344 7.814-.004 15.628.08 23.443.25l11.72.322c3.907.146 7.815.225 11.722.217 3.908.02 7.815-.207 11.723-.417 3.906-.224 7.813-.315 11.72-.39 31.258-1.145 62.515 2 93.772.5 3.906-.137 7.813-.316 11.72-.377 3.907-.05 7.814.01 11.722.125l11.723.426c3.906.117 7.813.15 11.72.117 7.814-.03 15.63-.26 23.444-.443 7.814-.184 15.628-.268 23.443-.275l23.442-.054 23.442.08c15.628.09 31.257.14 46.886.34 7.813.128 15.63.026 23.442.504 3.907.17 7.813.205 11.722-.427 1.953-.273 3.906-.424 5.86-.413 1.953-.014 3.907.01 5.86.053l11.722.43c3.906.102 7.812.104 11.72-.054 7.814-.305 15.63-1.092 23.444-.275 3.906.373 7.812.407 11.72.554 3.907.105 7.813.13 11.722-.033 3.908-.207 7.814-.662 11.723-.682 3.905-.05 7.81-.1 11.72-.074l46.885.134c7.814.022 15.63.053 23.443-.02 3.906-.023 7.814-.167 11.72-.206 3.91-.05 7.815-.025 11.722.055 15.63.25 31.258.902 46.885 1.268 7.816.18 15.63.28 23.443.247 7.814-.024 15.63-.93 23.443-1.258 15.63-.55 31.257.346 46.886.23 3.908-.002 7.814-.104 11.72-.278L8497.96.68c3.906-.21 7.814-.363 11.72-.353 1.954.005 3.91-.042 5.862.128 1.953.14 3.906.462 5.86.784 1.954.344 3.907.633 5.86.837.977.085 1.955.173 2.93.18.98 0 1.955-.138 2.932-.297 1.953-.382 3.906-.44 5.86-.57 1.954-.145 3.907-.203 5.86-.23l23.443-.112 11.72.05 5.862.025 2.93.012c.487.002.976 0 1.464.025.49.033.977.113 1.465.18.976.178 1.954.184 2.93.117.978-.047 1.954-.07 2.93-.14 1.956-.107 3.907-.28 5.862-.428 3.906-.325 7.814-.58 11.72-.562 15.63.077 31.26.062 46.886.27l46.887.598 23.443.324c3.906.054 7.812.107 11.72.265 3.907.14 7.815.296 11.722.24 3.906-.023 7.814-.45 11.723-.61 3.906-.11 7.812-.118 11.72-.18 7.815-.12 15.628-.186 23.444-.13 3.906.02 7.812.016 11.72.152l11.722.573c3.905.157 7.813.406 11.722.53 1.95.075 3.906.092 5.86.092 1.952.005 3.905-.292 5.86-.508 7.812-.45 15.627-.5 23.443-.614 3.906-.092 7.812.033 11.72.15l11.722.407c15.63.383 31.256-.91 46.885-1.54 3.908-.136 7.814-.262 11.723-.3 1.953-.007 3.906-.15 5.86.106 1.952.238 3.907.792 5.86 1.083 1.953.318 3.906.234 5.86.272l5.86.058 11.723.08c15.627.043 31.256-.053 46.885-.148l3.244-.02-.69.055 3.27-.018 11.722-.06c3.905-.03 7.813-.046 11.72.075 7.814 1.285 15.63.258 23.443-.117 15.63-.825 31.256 2.028 46.885.05 7.814-.627 15.63-1.34 23.443-1.117l23.442.722 23.443.67c7.814.173 15.63.43 23.443.302 1.953-.043 3.906-.056 5.86-.134 1.954-.082 3.907-.26 5.86-.393 3.908-.327 7.814-.286 11.72-.344 7.815-.004 15.63.08 23.444.25l11.72.322c3.91.146 7.815.225 11.724.217 3.906.02 7.814-.207 11.72-.417 3.91-.224 7.815-.315 11.722-.39 31.258-1.145 62.514 2 93.77.5 3.907-.137 7.815-.316 11.722-.377 3.908-.05 7.814.01 11.72.125l11.724.426c3.906.117 7.814.15 11.72.117 7.815-.03 15.63-.26 23.444-.443 7.814-.184 15.63-.268 23.443-.275l23.442-.054 23.443.08c15.63.09 31.258.14 46.885.34 7.814.128 15.63.026 23.443.504 3.906.17 7.814.205 11.72-.427 1.956-.273 3.907-.424 5.862-.413 1.953-.014 3.906.01 5.86.053l11.722.43c3.906.102 7.814.104 11.72-.054 7.815-.305 15.63-1.092 23.444-.275 3.907.373 7.815.407 11.722.554 3.906.105 7.814.13 11.72-.033 3.91-.207 7.815-.662 11.724-.682 3.906-.05 7.814-.1 11.72-.074l46.888.134c7.812.022 15.627.053 23.44-.02 3.907-.023 7.815-.167 11.724-.206 3.906-.05 7.812-.025 11.72.055 15.628.25 31.257.902 46.886 1.268 7.814.18 15.63.28 23.443.247 7.814-.024 15.627-.93 23.443-1.258 15.627-.55 31.256.346 46.885.23 3.906-.002 7.812-.104 11.72-.278l11.722-.666c3.908-.21 7.814-.363 11.723-.353 1.953.005 3.906-.042 5.86.128 1.952.14 3.907.462 5.86.784 1.953.344 3.906.633 5.86.837.978.085 1.954.173 2.93.18.978 0 1.954-.138 2.93-.297 1.954-.382 3.91-.44 5.862-.57 1.953-.145 3.906-.203 5.86-.23l23.442-.112 11.723.05 5.86.025 2.93.012c.49.002.978 0 1.466.025.488.033.977.113 1.465.18.977.178 1.953.184 2.93.117.98-.047 1.953-.07 2.932-.14 1.953-.107 3.906-.28 5.86-.428 3.907-.325 7.813-.58 11.722-.562 15.63.077 31.256.062 46.885.27l46.885.598 23.443.324c3.908.054 7.814.107 11.72.265 3.91.14 7.815.296 11.722.24 3.908-.023 7.814-.45 11.723-.61 3.906-.11 7.814-.118 11.72-.18 7.815-.12 15.63-.186 23.444-.13 3.906.02 7.814.016 11.72.152l11.722.573c3.908.157 7.816.406 11.723.53 1.952.075 3.905.092 5.858.092 1.955.005 3.908-.292 5.86-.508 7.815-.45 15.63-.5 23.444-.614 3.906-.092 7.814.033 11.72.15l11.722.407c15.63.383 31.258-.91 46.887-1.54 3.907-.136 7.815-.262 11.722-.3 1.953-.007 3.906-.15 5.86.106 1.954.238 3.907.792 5.86 1.083 1.955.318 3.908.234 5.86.272l5.862.058 11.72.08c15.63.043 31.26-.053 46.886-.148l3.246-.02v.055l3.268-.018 11.72-.06c3.91-.03 7.815-.046 11.724.075 7.814 1.285 15.63.258 23.44-.117 15.63-.825 31.26 2.028 46.888.05 7.814-.627 15.63-1.34 23.44-1.117l23.444.722 23.443.67c7.814.173 15.63.43 23.44.302 1.956-.043 3.91-.056 5.862-.134 1.955-.082 3.908-.26 5.86-.393 3.907-.327 7.815-.286 11.722-.344 7.814-.004 15.63.08 23.443.25l11.72.322c3.907.146 7.815.225 11.722.217 3.908.02 7.816-.207 11.723-.417 3.906-.224 7.814-.315 11.72-.39 31.26-1.145 62.515 2 93.772.5 3.906-.137 7.814-.316 11.72-.377 3.907-.05 7.815.01 11.722.125l11.722.426c3.906.117 7.814.15 11.72.117 7.815-.03 15.63-.26 23.444-.443 7.814-.184 15.627-.268 23.443-.275l23.44-.054 23.443.08c15.627.09 31.256.14 46.885.34 7.814.128 15.63.026 23.443.504 3.907.17 7.813.205 11.722-.427 1.953-.273 3.906-.424 5.86-.413 1.954-.014 3.907.01 5.86.053l11.723.43c3.906.102 7.812.104 11.72-.054 7.815-.305 15.63-1.092 23.444-.275 3.905.373 7.81.407 11.72.554 3.906.105 7.812.13 11.72-.033 3.91-.207 7.815-.662 11.724-.682 3.906-.05 7.812-.1 11.72-.074l46.886.134c7.814.022 15.63.053 23.443-.02 3.906-.023 7.814-.167 11.72-.206 3.91-.05 7.815-.025 11.722.055 15.63.25 31.258.902 46.885 1.268 7.816.18 15.63.28 23.443.247 7.814-.024 15.63-.93 23.443-1.258 15.63-.55 31.256.346 46.885.23 3.91-.002 7.815-.104 11.722-.278l11.723-.666c3.906-.21 7.814-.363 11.72-.353 1.954.005 3.91-.042 5.862.128 1.953.14 3.906.462 5.86.784 1.954.344 3.907.633 5.86.837.977.085 1.955.173 2.93.18.98 0 1.955-.138 2.932-.297 1.952-.382 3.905-.44 5.858-.57 1.955-.145 3.908-.203 5.86-.23l23.444-.112 11.72.05 5.862.025 2.93.012c.488.002.977 0 1.465.025.49.033.976.113 1.464.18.977.178 1.955.184 2.932.117.977-.047 1.953-.07 2.93-.14 1.955-.107 3.906-.28 5.86-.428 3.907-.325 7.815-.58 11.722-.562 15.63.077 31.258.062 46.885.27l46.887.598 23.443.324c3.906.054 7.812.107 11.72.265 3.907.14 7.815.296 11.722.24 3.906-.023 7.814-.45 11.723-.61 3.906-.11 7.812-.118 11.72-.18 7.815-.12 15.628-.186 23.444-.13 3.906.02 7.812.016 11.72.152l11.722.573c3.906.157 7.814.406 11.723.53 1.95.075 3.906.092 5.86.092 1.952.005 3.905-.292 5.86-.508 7.812-.45 15.627-.5 23.443-.614 3.906-.092 7.812.033 11.72.15l11.722.407c15.63.383 31.256-.91 46.885-1.54 3.908-.136 7.814-.262 11.723-.3 1.953-.007 3.906-.15 5.86.106 1.952.238 3.907.792 5.86 1.083 1.953.318 3.906.234 5.86.272l5.86.058 11.723.08c15.627.043 31.256-.053 46.885-.148l3.244-.02V600H0z"/>
    </clipPath>
  </defs>
</svg>
