<?xml version="1.0" encoding="utf-8"?>
<!-- Generator: Adobe Illustrator 16.0.0, SVG Export Plug-In . SVG Version: 6.00 Build 0)  -->
<!DOCTYPE svg PUBLIC "-//W3C//DTD SVG 1.1//EN" "http://www.w3.org/Graphics/SVG/1.1/DTD/svg11.dtd">
<svg version="1.1" id="PL_Download_on_the_App_Store"
	 xmlns="http://www.w3.org/2000/svg" xmlns:xlink="http://www.w3.org/1999/xlink" x="0px" y="0px" width="135px" height="40px"
	 viewBox="0 0 135 40" enable-background="new 0 0 135 40" xml:space="preserve">
<g>
	<path fill="#A6A6A6" d="M130.197,40H4.729C2.122,40,0,37.872,0,35.267V4.726C0,2.12,2.122,0,4.729,0h125.468
		C132.803,0,135,2.12,135,4.726v30.541C135,37.872,132.803,40,130.197,40L130.197,40z"/>
	<path d="M134.032,35.268c0,2.116-1.714,3.83-3.834,3.83H4.729c-2.119,0-3.839-1.714-3.839-3.83V4.725
		c0-2.115,1.72-3.835,3.839-3.835h125.468c2.121,0,3.834,1.72,3.834,3.835L134.032,35.268L134.032,35.268z"/>
	<g>
		<g>
			<path fill="#FFFFFF" d="M30.128,19.795c-0.029-3.223,2.639-4.791,2.761-4.864c-1.511-2.203-3.853-2.504-4.676-2.528
				c-1.967-0.207-3.875,1.177-4.877,1.177c-1.022,0-2.565-1.157-4.228-1.123c-2.14,0.033-4.142,1.272-5.24,3.196
				c-2.266,3.923-0.576,9.688,1.595,12.858c1.086,1.553,2.355,3.287,4.016,3.226c1.625-0.067,2.232-1.036,4.193-1.036
				c1.943,0,2.513,1.036,4.207,0.997c1.744-0.028,2.842-1.56,3.89-3.127c1.255-1.78,1.759-3.533,1.779-3.623
				C33.508,24.935,30.162,23.658,30.128,19.795z"/>
			<path fill="#FFFFFF" d="M26.928,10.317c0.874-1.093,1.472-2.58,1.306-4.089c-1.265,0.056-2.847,0.875-3.758,1.944
				c-0.806,0.942-1.526,2.486-1.34,3.938C24.557,12.216,26.016,11.394,26.928,10.317z"/>
		</g>
	</g>
	<g>
		<path fill="#FFFFFF" d="M53.646,31.516h-2.271l-1.244-3.91h-4.324l-1.185,3.91h-2.211l4.284-13.308h2.646L53.646,31.516z
			 M49.756,25.967l-1.125-3.475c-0.119-0.355-0.342-1.191-0.671-2.508h-0.04c-0.131,0.566-0.342,1.402-0.632,2.508l-1.105,3.475
			H49.756z"/>
		<path fill="#FFFFFF" d="M64.663,26.599c0,1.632-0.441,2.923-1.323,3.87c-0.79,0.842-1.771,1.264-2.942,1.264
			c-1.264,0-2.172-0.455-2.725-1.363h-0.04v5.055h-2.132V25.078c0-1.026-0.027-2.079-0.079-3.158h1.875l0.119,1.52h0.04
			c0.711-1.145,1.79-1.717,3.238-1.717c1.132,0,2.077,0.447,2.833,1.342C64.284,23.96,64.663,25.138,64.663,26.599z M62.491,26.678
			c0-0.935-0.21-1.705-0.632-2.311c-0.461-0.631-1.08-0.947-1.856-0.947c-0.526,0-1.004,0.175-1.431,0.523
			c-0.428,0.349-0.708,0.807-0.839,1.372c-0.066,0.264-0.099,0.48-0.099,0.651v1.6c0,0.697,0.214,1.287,0.642,1.768
			s0.984,0.721,1.668,0.721c0.803,0,1.428-0.311,1.875-0.928C62.267,28.508,62.491,27.691,62.491,26.678z"/>
		<path fill="#FFFFFF" d="M75.7,26.599c0,1.632-0.441,2.923-1.324,3.87c-0.789,0.842-1.77,1.264-2.941,1.264
			c-1.264,0-2.172-0.455-2.725-1.363h-0.039v5.055h-2.132V25.078c0-1.026-0.027-2.079-0.079-3.158h1.875l0.119,1.52h0.04
			c0.711-1.145,1.789-1.717,3.238-1.717c1.131,0,2.076,0.447,2.834,1.342C75.321,23.96,75.7,25.138,75.7,26.599z M73.528,26.678
			c0-0.935-0.211-1.705-0.633-2.311c-0.461-0.631-1.078-0.947-1.855-0.947c-0.527,0-1.004,0.175-1.432,0.523
			s-0.707,0.807-0.839,1.372c-0.065,0.264-0.099,0.48-0.099,0.651v1.6c0,0.697,0.214,1.287,0.641,1.768
			c0.428,0.48,0.984,0.721,1.67,0.721c0.803,0,1.428-0.311,1.875-0.928C73.304,28.508,73.528,27.691,73.528,26.678z"/>
		<path fill="#FFFFFF" d="M88.04,27.783c0,1.133-0.394,2.053-1.182,2.764c-0.867,0.777-2.075,1.166-3.625,1.166
			c-1.432,0-2.581-0.277-3.449-0.83l0.494-1.777c0.935,0.566,1.962,0.85,3.081,0.85c0.804,0,1.429-0.182,1.877-0.543
			c0.447-0.363,0.671-0.848,0.671-1.455c0-0.539-0.185-0.994-0.553-1.363s-0.98-0.713-1.836-1.029
			c-2.33-0.869-3.495-2.143-3.495-3.816c0-1.094,0.408-1.991,1.225-2.69c0.815-0.699,1.901-1.048,3.258-1.048
			c1.211,0,2.218,0.211,3.021,0.632l-0.533,1.738c-0.75-0.408-1.599-0.612-2.547-0.612c-0.75,0-1.336,0.185-1.757,0.553
			c-0.355,0.329-0.533,0.73-0.533,1.204c0,0.526,0.204,0.961,0.612,1.304c0.355,0.315,1,0.658,1.935,1.026
			c1.146,0.461,1.987,1.001,2.527,1.618C87.771,26.092,88.04,26.862,88.04,27.783z"/>
		<path fill="#FFFFFF" d="M95.088,23.519h-2.35v4.659c0,1.186,0.415,1.777,1.244,1.777c0.382,0,0.697-0.033,0.948-0.098l0.059,1.619
			c-0.421,0.156-0.974,0.236-1.658,0.236c-0.843,0-1.501-0.258-1.975-0.77c-0.474-0.514-0.711-1.377-0.711-2.588v-4.837h-1.401
			V21.92h1.401v-1.758l2.093-0.632v2.39h2.35V23.519z"/>
		<path fill="#FFFFFF" d="M105.691,26.639c0,1.475-0.422,2.686-1.264,3.633c-0.882,0.975-2.054,1.461-3.515,1.461
			c-1.409,0-2.53-0.467-3.366-1.402c-0.836-0.934-1.254-2.113-1.254-3.533c0-1.488,0.431-2.705,1.293-3.653s2.024-1.421,3.485-1.421
			c1.408,0,2.54,0.467,3.396,1.401C105.283,24.032,105.691,25.203,105.691,26.639z M103.479,26.707c0-0.885-0.19-1.643-0.572-2.277
			c-0.447-0.766-1.086-1.148-1.915-1.148c-0.856,0-1.508,0.383-1.955,1.148c-0.382,0.635-0.572,1.406-0.572,2.317
			c0,0.885,0.19,1.644,0.572,2.276c0.461,0.766,1.105,1.148,1.936,1.148c0.815,0,1.454-0.389,1.915-1.168
			C103.282,28.357,103.479,27.592,103.479,26.707z"/>
		<path fill="#FFFFFF" d="M112.621,23.795c-0.211-0.039-0.435-0.059-0.671-0.059c-0.751,0-1.33,0.283-1.738,0.849
			c-0.355,0.501-0.533,1.132-0.533,1.896v5.035h-2.132l0.02-6.575c0-1.106-0.026-2.112-0.079-3.021h1.856l0.079,1.836h0.059
			c0.224-0.632,0.579-1.139,1.066-1.521c0.474-0.343,0.987-0.513,1.54-0.513c0.197,0,0.375,0.013,0.533,0.039V23.795z"/>
		<path fill="#FFFFFF" d="M122.157,26.264c0,0.381-0.026,0.703-0.079,0.967h-6.396c0.025,0.947,0.335,1.672,0.928,2.172
			c0.539,0.447,1.237,0.672,2.093,0.672c0.947,0,1.81-0.152,2.587-0.455l0.335,1.48c-0.908,0.396-1.981,0.594-3.218,0.594
			c-1.488,0-2.656-0.438-3.505-1.314c-0.849-0.875-1.273-2.049-1.273-3.523c0-1.447,0.395-2.652,1.185-3.613
			c0.829-1.027,1.948-1.54,3.356-1.54c1.382,0,2.429,0.513,3.14,1.54C121.874,24.059,122.157,25.065,122.157,26.264z
			 M120.124,25.711c0.013-0.633-0.126-1.179-0.415-1.64c-0.368-0.593-0.935-0.888-1.698-0.888c-0.697,0-1.264,0.289-1.697,0.868
			c-0.355,0.461-0.566,1.014-0.632,1.659H120.124z"/>
	</g>
	<g>
		<g>
			<path fill="#FFFFFF" d="M47.867,8.808c0,0.602-0.178,1.083-0.533,1.445c-0.459,0.472-1.129,0.708-2.008,0.708
				c-0.259,0-0.46-0.016-0.602-0.048v2.532h-1.048V6.994c0.499-0.09,1.069-0.136,1.711-0.136c0.83,0,1.455,0.178,1.877,0.534
				C47.666,7.741,47.867,8.213,47.867,8.808z M46.819,8.856c0-0.382-0.122-0.674-0.366-0.878c-0.245-0.204-0.586-0.306-1.023-0.306
				c-0.29,0-0.525,0.02-0.705,0.058v2.348c0.147,0.039,0.351,0.058,0.608,0.058c0.463,0,0.827-0.113,1.091-0.339
				C46.688,9.571,46.819,9.257,46.819,8.856z"/>
			<path fill="#FFFFFF" d="M53.727,11.048c0,0.725-0.207,1.319-0.621,1.785c-0.434,0.479-1.009,0.718-1.727,0.718
				c-0.692,0-1.243-0.229-1.654-0.689c-0.41-0.459-0.615-1.038-0.615-1.736c0-0.73,0.211-1.329,0.635-1.794s0.994-0.698,1.712-0.698
				c0.692,0,1.248,0.229,1.669,0.688C53.525,9.768,53.727,10.344,53.727,11.048z M52.64,11.083c0-0.435-0.094-0.808-0.281-1.119
				c-0.22-0.376-0.533-0.564-0.94-0.564c-0.421,0-0.741,0.188-0.961,0.564c-0.188,0.311-0.281,0.69-0.281,1.138
				c0,0.435,0.094,0.808,0.281,1.119c0.227,0.376,0.543,0.564,0.951,0.564c0.4,0,0.714-0.191,0.94-0.574
				C52.543,11.893,52.64,11.517,52.64,11.083z"/>
			<path fill="#FFFFFF" d="M59.769,11.02c0,0.795-0.22,1.429-0.659,1.901c-0.388,0.42-0.863,0.631-1.426,0.631
				c-0.673,0-1.168-0.278-1.484-0.834h-0.02l-0.058,0.728h-0.893c0.025-0.381,0.038-0.805,0.038-1.271V6.567h1.048v2.852h0.02
				c0.311-0.524,0.812-0.786,1.504-0.786c0.568,0,1.032,0.218,1.392,0.655C59.589,9.725,59.769,10.302,59.769,11.02z M58.702,11.058
				c0-0.459-0.104-0.834-0.311-1.125c-0.227-0.317-0.534-0.476-0.922-0.476c-0.259,0-0.491,0.084-0.698,0.252
				s-0.346,0.391-0.417,0.669c-0.026,0.11-0.039,0.22-0.039,0.33v0.824c0,0.324,0.108,0.602,0.325,0.834s0.486,0.349,0.81,0.349
				c0.395,0,0.702-0.148,0.922-0.446C58.592,11.973,58.702,11.569,58.702,11.058z"/>
			<path fill="#FFFFFF" d="M62.485,7.324c0,0.188-0.062,0.339-0.184,0.456c-0.123,0.117-0.281,0.175-0.476,0.175
				c-0.175,0-0.322-0.06-0.441-0.179c-0.12-0.12-0.18-0.27-0.18-0.451s0.062-0.33,0.185-0.446s0.274-0.175,0.456-0.175
				c0.181,0,0.333,0.059,0.456,0.175C62.424,6.994,62.485,7.143,62.485,7.324z M62.369,13.444h-1.048V8.73h1.048V13.444z"/>
			<path fill="#FFFFFF" d="M68.111,10.864c0,0.188-0.014,0.346-0.039,0.475H64.93c0.013,0.466,0.164,0.821,0.455,1.067
				c0.266,0.22,0.608,0.33,1.028,0.33c0.466,0,0.89-0.074,1.271-0.223l0.164,0.728c-0.446,0.194-0.973,0.291-1.581,0.291
				c-0.73,0-1.305-0.215-1.722-0.645s-0.625-1.007-0.625-1.731c0-0.711,0.193-1.303,0.582-1.775
				c0.407-0.504,0.956-0.756,1.648-0.756c0.679,0,1.193,0.252,1.542,0.756C67.972,9.781,68.111,10.276,68.111,10.864z
				 M67.111,10.593c0.007-0.311-0.062-0.579-0.203-0.805c-0.182-0.291-0.459-0.437-0.834-0.437c-0.343,0-0.621,0.142-0.835,0.427
				c-0.174,0.227-0.277,0.498-0.31,0.815H67.111z"/>
			<path fill="#FFFFFF" d="M72.126,9.652c-0.104-0.02-0.213-0.029-0.33-0.029c-0.368,0-0.652,0.139-0.854,0.417
				c-0.174,0.246-0.262,0.556-0.262,0.931v2.474h-1.048l0.01-3.23c0-0.543-0.013-1.038-0.038-1.484h0.911l0.039,0.902h0.029
				c0.109-0.311,0.284-0.56,0.523-0.747c0.233-0.168,0.485-0.252,0.757-0.252c0.097,0,0.185,0.006,0.262,0.019V9.652z"/>
			<path fill="#FFFFFF" d="M76.83,13.444h-3.841v-0.611l1.882-2.473c0.116-0.155,0.329-0.411,0.64-0.767V9.574h-2.338V8.73h3.608
				v0.65l-1.843,2.435c-0.207,0.265-0.42,0.521-0.64,0.766v0.02h2.531V13.444z"/>
			<path fill="#FFFFFF" d="M87.365,8.73l-1.475,4.714h-0.96l-0.611-2.047c-0.155-0.511-0.281-1.019-0.379-1.523h-0.019
				c-0.091,0.518-0.217,1.025-0.379,1.523l-0.649,2.047h-0.971L80.536,8.73h1.077l0.533,2.241c0.129,0.53,0.235,1.035,0.32,1.513
				h0.019c0.078-0.394,0.207-0.896,0.389-1.503l0.669-2.25h0.854l0.641,2.202c0.155,0.537,0.281,1.054,0.378,1.552h0.029
				c0.071-0.485,0.178-1.002,0.32-1.552l0.572-2.202H87.365z"/>
		</g>
	</g>
</g>
</svg>
