<svg xmlns="http://www.w3.org/2000/svg" version="1.1" viewBox="0 0 500 500" width="500" height="500" xml:space="preserve">
  <style>
    .st0{fill:#fff}.st2{fill:#bfbfc9}.st3,.st4{fill:none;stroke:#3fe1b0;stroke-width:7;stroke-linecap:round;stroke-linejoin:round}.st4{stroke:#f770ff}.st6{fill:#afafbb}.st11{fill:none;stroke:#7542e5;stroke-width:4;stroke-linecap:round;stroke-linejoin:round}.st12{opacity:.5;fill:#fff;enable-background:new}
  </style>
  <path d="M175 175h150v150H175z" class="st0"/>
  <path fill="#ebebf0" d="M29.8 75h350.4c2.7 0 4.8 2.1 4.8 4.8v262.4c0 2.7-2.1 4.8-4.8 4.8H29.8c-2.7 0-4.8-2.1-4.8-4.8V79.8c0-2.7 2.1-4.8 4.8-4.8z"/>
  <path d="M48.2 171.5h74.2c1.1 0 2 .9 2 2v7.9c0 1.1-.9 2-2 2H48.2c-1.1 0-2-.9-2-2v-7.9c0-1.1.9-2 2-2z" class="st2"/>
  <path d="M48.2 231.4h94.7c1.1 0 2 .9 2 2v7.9c0 1.1-.9 2-2 2H48.2c-1.1 0-2-.9-2-2v-7.9c0-1.1.9-2 2-2z" class="st2"/>
  <path d="M48.2 291.3h64c1.1 0 2 .9 2 2v7.9c0 1.1-.9 2-2 2h-64c-1.1 0-2-.9-2-2v-7.9c0-1.1.9-2 2-2z" class="st2"/>
  <path d="M183 179.4l9.1 9.1 22.1-22.1" class="st3"/>
  <path d="M253.1 179.4l9.1 9.1 22.1-22.1" class="st3"/>
  <path d="M327.1 189.4l23.8-23.8" class="st4"/>
  <path d="M350.9 189.4l-23.8-23.8" class="st4"/>
  <path d="M183 239.3l9.1 9.1 22.1-22.1" class="st3"/>
  <path d="M253.1 239.3l9.1 9.1 22.1-22.1" class="st3"/>
  <path d="M327.1 249.3l23.8-23.8" class="st4"/>
  <path d="M350.9 249.3l-23.8-23.8" class="st4"/>
  <path d="M183 299.2l9.1 9.1 22.1-22.1" class="st3"/>
  <path d="M323.4 299.2l9.1 9.1 22.1-22.1" class="st3"/>
  <path d="M253.1 309.2l23.9-23.8" class="st4"/>
  <path d="M277 309.2l-23.9-23.8" class="st4"/>
  <path fill="#cfcfd8" d="M29.8 75h350.4c2.7 0 4.8 2.1 4.8 4.8v16H25v-16c0-2.7 2.1-4.8 4.8-4.8z"/>
  <path d="M25 96.1h360v38.4H25z" class="st6"/>
  <path d="M58.8 106.5h281.6c1.8 0 3.2 1.4 3.2 3.2v11.2c0 1.8-1.4 3.2-3.2 3.2H58.8c-1.8 0-3.2-1.4-3.2-3.2v-11.2c0-1.8 1.5-3.2 3.2-3.2z" class="st0"/>
  <path d="M56.4 79h64c.4 0 .8.4.8.8V91c0 .4-.4.8-.8.8h-64c-.4 0-.8-.4-.8-.8V79.8c0-.4.4-.8.8-.8z" class="st6"/>
  <path fill="#c38afa" d="M475 413.6c0 6.3-5.1 11.4-11.4 11.4H349.8c-6.3 0-11.4-5.1-11.4-11.4V214.4c0-6.3 5.1-11.4 11.4-11.4h113.9c6.3 0 11.4 5.1 11.4 11.4"/>
  <path fill="#7542e5" d="M463.6 220.1V408c0 3.1-2.5 5.7-5.7 5.7H355.5c-3.1 0-5.7-2.5-5.7-5.7V220.1c0-3.1 2.5-5.7 5.7-5.7H458c3.1 0 5.6 2.5 5.6 5.7z"/>
  <path fill="#fff" d="M349.8 225.8v113.8l113.9-113.8H349.8z" opacity=".33"/>
  <path fill="#592acb" d="M355.5 214.4H458c3.1 0 5.7 2.5 5.7 5.7v5.7H349.8v-5.7c0-3.2 2.5-5.7 5.7-5.7z"/>
  <path d="M400 419.3h13.3" class="st11"/>
  <path d="M405.3 208.7h2.9" class="st11"/>
  <path d="M361 236.6h15.9c2.1 0 3.8 1.7 3.8 3.8v15.9c0 2.1-1.7 3.8-3.8 3.8H361c-2.1 0-3.8-1.7-3.8-3.8v-15.9c0-2.1 1.7-3.8 3.8-3.8z" class="st12"/>
  <path d="M398.8 236.6h15.9c2.1 0 3.8 1.7 3.8 3.8v15.9c0 2.1-1.7 3.8-3.8 3.8h-15.9c-2.1 0-3.8-1.7-3.8-3.8v-15.9c0-2.1 1.7-3.8 3.8-3.8z" class="st12"/>
  <path d="M436.6 236.6h15.9c2.1 0 3.8 1.7 3.8 3.8v15.9c0 2.1-1.7 3.8-3.8 3.8h-15.9c-2.1 0-3.8-1.7-3.8-3.8v-15.9c0-2.1 1.7-3.8 3.8-3.8z" class="st12"/>
  <path d="M361 271.3h15.9c2.1 0 3.8 1.7 3.8 3.8V291c0 2.1-1.7 3.8-3.8 3.8H361c-2.1 0-3.8-1.7-3.8-3.8v-15.9c0-2.1 1.7-3.8 3.8-3.8z" class="st12"/>
  <path d="M398.8 271.3h15.9c2.1 0 3.8 1.7 3.8 3.8V291c0 2.1-1.7 3.8-3.8 3.8h-15.9c-2.1 0-3.8-1.7-3.8-3.8v-15.9c0-2.1 1.7-3.8 3.8-3.8z" class="st12"/>
  <path d="M436.6 271.3h15.9c2.1 0 3.8 1.7 3.8 3.8V291c0 2.1-1.7 3.8-3.8 3.8h-15.9c-2.1 0-3.8-1.7-3.8-3.8v-15.9c0-2.1 1.7-3.8 3.8-3.8z" class="st12"/>
</svg>
