<svg height="1083" width="1083" xmlns="http://www.w3.org/2000/svg"><path d="M0 0h1083v1083H0z" fill="#fff"/><g stroke-width=".19"><path d="M190 38h19v19h-19zM209 38h19v19h-19zM247 38h19v19h-19zM266 38h19v19h-19zM304 38h19v19h-19zM342 38h19v19h-19zM399 38h19v19h-19zM418 38h19v19h-19zM437 38h19v19h-19zM456 38h19v19h-19zM551 38h19v19h-19zM589 38h19v19h-19zM608 38h19v19h-19zM684 38h19v19h-19zM703 38h19v19h-19zM741 38h19v19h-19zM760 38h19v19h-19zM798 38h19v19h-19zM836 38h19v19h-19zM190 57h19v19h-19zM209 57h19v19h-19zM342 57h19v19h-19zM380 57h19v19h-19zM437 57h19v19h-19zM513 57h19v19h-19zM551 57h19v19h-19zM589 57h19v19h-19zM627 57h19v19h-19zM646 57h19v19h-19zM684 57h19v19h-19zM703 57h19v19h-19zM779 57h19v19h-19zM836 57h19v19h-19zM855 57h19v19h-19zM190 76h19v19h-19zM209 76h19v19h-19zM228 76h19v19h-19zM247 76h19v19h-19zM266 76h19v19h-19zM304 76h19v19h-19zM361 76h19v19h-19zM380 76h19v19h-19zM399 76h19v19h-19zM437 76h19v19h-19zM456 76h19v19h-19zM475 76h19v19h-19zM532 76h19v19h-19zM551 76h19v19h-19zM608 76h19v19h-19zM646 76h19v19h-19zM684 76h19v19h-19zM722 76h19v19h-19zM855 76h19v19h-19zM209 95h19v19h-19zM228 95h19v19h-19zM323 95h19v19h-19zM342 95h19v19h-19zM380 95h19v19h-19zM399 95h19v19h-19zM418 95h19v19h-19zM437 95h19v19h-19zM456 95h19v19h-19zM532 95h19v19h-19zM551 95h19v19h-19zM570 95h19v19h-19zM646 95h19v19h-19zM665 95h19v19h-19zM684 95h19v19h-19zM703 95h19v19h-19zM760 95h19v19h-19zM779 95h19v19h-19zM798 95h19v19h-19zM836 95h19v19h-19zM874 95h19v19h-19zM190 114h19v19h-19zM228 114h19v19h-19zM285 114h19v19h-19zM304 114h19v19h-19zM342 114h19v19h-19zM380 114h19v19h-19zM399 114h19v19h-19zM437 114h19v19h-19zM456 114h19v19h-19zM494 114h19v19h-19zM513 114h19v19h-19zM532 114h19v19h-19zM551 114h19v19h-19zM570 114h19v19h-19zM608 114h19v19h-19zM646 114h19v19h-19zM703 114h19v19h-19zM741 114h19v19h-19zM760 114h19v19h-19zM798 114h19v19h-19zM836 114h19v19h-19zM209 133h19v19h-19zM247 133h19v19h-19zM304 133h19v19h-19zM342 133h19v19h-19zM399 133h19v19h-19zM456 133h19v19h-19zM475 133h19v19h-19zM494 133h19v19h-19zM570 133h19v19h-19zM589 133h19v19h-19zM608 133h19v19h-19zM646 133h19v19h-19zM665 133h19v19h-19zM760 133h19v19h-19zM779 133h19v19h-19zM817 133h19v19h-19zM836 133h19v19h-19zM190 152h19v19h-19zM228 152h19v19h-19zM266 152h19v19h-19zM304 152h19v19h-19zM342 152h19v19h-19zM380 152h19v19h-19zM418 152h19v19h-19zM456 152h19v19h-19zM494 152h19v19h-19zM532 152h19v19h-19zM570 152h19v19h-19zM608 152h19v19h-19zM646 152h19v19h-19zM684 152h19v19h-19zM722 152h19v19h-19zM760 152h19v19h-19zM798 152h19v19h-19zM836 152h19v19h-19zM874 152h19v19h-19zM247 171h19v19h-19zM266 171h19v19h-19zM304 171h19v19h-19zM323 171h19v19h-19zM342 171h19v19h-19zM399 171h19v19h-19zM456 171h19v19h-19zM475 171h19v19h-19zM494 171h19v19h-19zM570 171h19v19h-19zM608 171h19v19h-19zM646 171h19v19h-19zM703 171h19v19h-19zM760 171h19v19h-19zM779 171h19v19h-19zM798 171h19v19h-19zM836 171h19v19h-19zM874 171h19v19h-19zM38 190h19v19H38zM95 190h19v19H95zM114 190h19v19h-19zM133 190h19v19h-19zM152 190h19v19h-19zM171 190h19v19h-19zM190 190h19v19h-19zM266 190h19v19h-19zM285 190h19v19h-19zM304 190h19v19h-19zM342 190h19v19h-19zM399 190h19v19h-19zM456 190h19v19h-19zM494 190h19v19h-19zM513 190h19v19h-19zM532 190h19v19h-19zM551 190h19v19h-19zM570 190h19v19h-19zM627 190h19v19h-19zM684 190h19v19h-19zM703 190h19v19h-19zM722 190h19v19h-19zM798 190h19v19h-19zM817 190h19v19h-19zM836 190h19v19h-19zM855 190h19v19h-19zM874 190h19v19h-19zM893 190h19v19h-19zM950 190h19v19h-19zM988 190h19v19h-19zM1007 190h19v19h-19zM1026 190h19v19h-19zM171 209h19v19h-19zM190 209h19v19h-19zM247 209h19v19h-19zM285 209h19v19h-19zM342 209h19v19h-19zM361 209h19v19h-19zM418 209h19v19h-19zM532 209h19v19h-19zM589 209h19v19h-19zM608 209h19v19h-19zM627 209h19v19h-19zM646 209h19v19h-19zM684 209h19v19h-19zM760 209h19v19h-19zM798 209h19v19h-19zM817 209h19v19h-19zM836 209h19v19h-19zM855 209h19v19h-19zM874 209h19v19h-19zM912 209h19v19h-19zM931 209h19v19h-19zM969 209h19v19h-19zM988 209h19v19h-19zM1007 209h19v19h-19zM38 228h19v19H38zM57 228h19v19H57zM114 228h19v19h-19zM152 228h19v19h-19zM190 228h19v19h-19zM209 228h19v19h-19zM323 228h19v19h-19zM399 228h19v19h-19zM418 228h19v19h-19zM437 228h19v19h-19zM456 228h19v19h-19zM475 228h19v19h-19zM532 228h19v19h-19zM551 228h19v19h-19zM646 228h19v19h-19zM665 228h19v19h-19zM684 228h19v19h-19zM703 228h19v19h-19zM722 228h19v19h-19zM741 228h19v19h-19zM912 228h19v19h-19zM931 228h19v19h-19zM950 228h19v19h-19zM969 228h19v19h-19zM988 228h19v19h-19zM57 247h19v19H57zM76 247h19v19H76zM95 247h19v19H95zM133 247h19v19h-19zM228 247h19v19h-19zM266 247h19v19h-19zM323 247h19v19h-19zM380 247h19v19h-19zM418 247h19v19h-19zM437 247h19v19h-19zM456 247h19v19h-19zM494 247h19v19h-19zM551 247h19v19h-19zM627 247h19v19h-19zM646 247h19v19h-19zM684 247h19v19h-19zM703 247h19v19h-19zM722 247h19v19h-19zM741 247h19v19h-19zM836 247h19v19h-19zM855 247h19v19h-19zM912 247h19v19h-19zM969 247h19v19h-19zM1026 247h19v19h-19zM38 266h19v19H38zM76 266h19v19H76zM114 266h19v19h-19zM133 266h19v19h-19zM152 266h19v19h-19zM209 266h19v19h-19zM228 266h19v19h-19zM323 266h19v19h-19zM342 266h19v19h-19zM361 266h19v19h-19zM380 266h19v19h-19zM399 266h19v19h-19zM418 266h19v19h-19zM456 266h19v19h-19zM475 266h19v19h-19zM570 266h19v19h-19zM589 266h19v19h-19zM646 266h19v19h-19zM665 266h19v19h-19zM722 266h19v19h-19zM741 266h19v19h-19zM760 266h19v19h-19zM798 266h19v19h-19zM836 266h19v19h-19zM855 266h19v19h-19zM893 266h19v19h-19zM950 266h19v19h-19zM1007 266h19v19h-19zM38 285h19v19H38zM247 285h19v19h-19zM304 285h19v19h-19zM323 285h19v19h-19zM380 285h19v19h-19zM399 285h19v19h-19zM456 285h19v19h-19zM532 285h19v19h-19zM551 285h19v19h-19zM570 285h19v19h-19zM589 285h19v19h-19zM646 285h19v19h-19zM665 285h19v19h-19zM703 285h19v19h-19zM760 285h19v19h-19zM798 285h19v19h-19zM817 285h19v19h-19zM836 285h19v19h-19zM874 285h19v19h-19zM931 285h19v19h-19zM950 285h19v19h-19zM988 285h19v19h-19zM1026 285h19v19h-19zM38 304h19v19H38zM57 304h19v19H57zM76 304h19v19H76zM114 304h19v19h-19zM133 304h19v19h-19zM152 304h19v19h-19zM190 304h19v19h-19zM228 304h19v19h-19zM266 304h19v19h-19zM285 304h19v19h-19zM342 304h19v19h-19zM361 304h19v19h-19zM380 304h19v19h-19zM475 304h19v19h-19zM570 304h19v19h-19zM608 304h19v19h-19zM665 304h19v19h-19zM722 304h19v19h-19zM760 304h19v19h-19zM798 304h19v19h-19zM893 304h19v19h-19zM931 304h19v19h-19zM950 304h19v19h-19zM1026 304h19v19h-19zM38 323h19v19H38zM57 323h19v19H57zM95 323h19v19H95zM133 323h19v19h-19zM190 323h19v19h-19zM304 323h19v19h-19zM399 323h19v19h-19zM456 323h19v19h-19zM475 323h19v19h-19zM494 323h19v19h-19zM513 323h19v19h-19zM532 323h19v19h-19zM551 323h19v19h-19zM570 323h19v19h-19zM608 323h19v19h-19zM627 323h19v19h-19zM684 323h19v19h-19zM703 323h19v19h-19zM836 323h19v19h-19zM874 323h19v19h-19zM893 323h19v19h-19zM988 323h19v19h-19zM57 342h19v19H57zM95 342h19v19H95zM152 342h19v19h-19zM171 342h19v19h-19zM190 342h19v19h-19zM247 342h19v19h-19zM266 342h19v19h-19zM399 342h19v19h-19zM418 342h19v19h-19zM494 342h19v19h-19zM570 342h19v19h-19zM608 342h19v19h-19zM646 342h19v19h-19zM722 342h19v19h-19zM760 342h19v19h-19zM893 342h19v19h-19zM931 342h19v19h-19zM950 342h19v19h-19zM38 361h19v19H38zM95 361h19v19H95zM171 361h19v19h-19zM190 361h19v19h-19zM228 361h19v19h-19zM247 361h19v19h-19zM266 361h19v19h-19zM323 361h19v19h-19zM380 361h19v19h-19zM399 361h19v19h-19zM475 361h19v19h-19zM494 361h19v19h-19zM513 361h19v19h-19zM532 361h19v19h-19zM551 361h19v19h-19zM589 361h19v19h-19zM608 361h19v19h-19zM627 361h19v19h-19zM684 361h19v19h-19zM779 361h19v19h-19zM798 361h19v19h-19zM836 361h19v19h-19zM855 361h19v19h-19zM893 361h19v19h-19zM912 361h19v19h-19zM969 361h19v19h-19zM988 361h19v19h-19zM38 380h19v19H38zM57 380h19v19H57zM152 380h19v19h-19zM209 380h19v19h-19zM228 380h19v19h-19zM266 380h19v19h-19zM285 380h19v19h-19zM304 380h19v19h-19zM323 380h19v19h-19zM361 380h19v19h-19zM399 380h19v19h-19zM418 380h19v19h-19zM437 380h19v19h-19zM456 380h19v19h-19zM475 380h19v19h-19zM513 380h19v19h-19zM551 380h19v19h-19zM570 380h19v19h-19zM646 380h19v19h-19zM684 380h19v19h-19zM703 380h19v19h-19zM722 380h19v19h-19zM741 380h19v19h-19zM779 380h19v19h-19zM798 380h19v19h-19zM817 380h19v19h-19zM855 380h19v19h-19zM893 380h19v19h-19zM950 380h19v19h-19zM969 380h19v19h-19zM1007 380h19v19h-19zM1026 380h19v19h-19zM38 399h19v19H38zM76 399h19v19H76zM171 399h19v19h-19zM228 399h19v19h-19zM247 399h19v19h-19zM266 399h19v19h-19zM323 399h19v19h-19zM342 399h19v19h-19zM361 399h19v19h-19zM380 399h19v19h-19zM399 399h19v19h-19zM418 399h19v19h-19zM437 399h19v19h-19zM475 399h19v19h-19zM494 399h19v19h-19zM532 399h19v19h-19zM551 399h19v19h-19zM570 399h19v19h-19zM608 399h19v19h-19zM627 399h19v19h-19zM741 399h19v19h-19zM760 399h19v19h-19zM798 399h19v19h-19zM855 399h19v19h-19zM874 399h19v19h-19zM893 399h19v19h-19zM988 399h19v19h-19zM1007 399h19v19h-19zM38 418h19v19H38zM95 418h19v19H95zM152 418h19v19h-19zM190 418h19v19h-19zM228 418h19v19h-19zM285 418h19v19h-19zM304 418h19v19h-19zM323 418h19v19h-19zM361 418h19v19h-19zM399 418h19v19h-19zM418 418h19v19h-19zM437 418h19v19h-19zM456 418h19v19h-19zM475 418h19v19h-19zM494 418h19v19h-19zM513 418h19v19h-19zM532 418h19v19h-19zM570 418h19v19h-19zM589 418h19v19h-19zM608 418h19v19h-19zM722 418h19v19h-19zM760 418h19v19h-19zM779 418h19v19h-19zM798 418h19v19h-19zM817 418h19v19h-19zM836 418h19v19h-19zM855 418h19v19h-19zM874 418h19v19h-19zM912 418h19v19h-19zM931 418h19v19h-19zM950 418h19v19h-19zM969 418h19v19h-19zM988 418h19v19h-19zM1007 418h19v19h-19zM1026 418h19v19h-19zM57 437h19v19H57zM114 437h19v19h-19zM190 437h19v19h-19zM209 437h19v19h-19zM228 437h19v19h-19zM247 437h19v19h-19zM266 437h19v19h-19zM399 437h19v19h-19zM418 437h19v19h-19zM437 437h19v19h-19zM456 437h19v19h-19zM494 437h19v19h-19zM513 437h19v19h-19zM551 437h19v19h-19zM570 437h19v19h-19zM608 437h19v19h-19zM627 437h19v19h-19zM646 437h19v19h-19zM665 437h19v19h-19zM684 437h19v19h-19zM722 437h19v19h-19zM741 437h19v19h-19zM760 437h19v19h-19zM817 437h19v19h-19zM836 437h19v19h-19zM855 437h19v19h-19zM874 437h19v19h-19zM912 437h19v19h-19zM931 437h19v19h-19zM950 437h19v19h-19zM969 437h19v19h-19zM988 437h19v19h-19zM57 456h19v19H57zM114 456h19v19h-19zM133 456h19v19h-19zM152 456h19v19h-19zM171 456h19v19h-19zM190 456h19v19h-19zM247 456h19v19h-19zM304 456h19v19h-19zM323 456h19v19h-19zM361 456h19v19h-19zM418 456h19v19h-19zM494 456h19v19h-19zM513 456h19v19h-19zM532 456h19v19h-19zM551 456h19v19h-19zM627 456h19v19h-19zM665 456h19v19h-19zM684 456h19v19h-19zM722 456h19v19h-19zM760 456h19v19h-19zM855 456h19v19h-19zM912 456h19v19h-19zM931 456h19v19h-19zM950 456h19v19h-19zM95 475h19v19H95zM114 475h19v19h-19zM171 475h19v19h-19zM190 475h19v19h-19zM228 475h19v19h-19zM266 475h19v19h-19zM285 475h19v19h-19zM323 475h19v19h-19zM342 475h19v19h-19zM380 475h19v19h-19zM418 475h19v19h-19zM437 475h19v19h-19zM475 475h19v19h-19zM494 475h19v19h-19zM513 475h19v19h-19zM551 475h19v19h-19zM570 475h19v19h-19zM608 475h19v19h-19zM627 475h19v19h-19zM646 475h19v19h-19zM684 475h19v19h-19zM703 475h19v19h-19zM722 475h19v19h-19zM760 475h19v19h-19zM836 475h19v19h-19zM855 475h19v19h-19zM874 475h19v19h-19zM912 475h19v19h-19zM931 475h19v19h-19zM969 475h19v19h-19zM1026 475h19v19h-19zM76 494h19v19H76zM114 494h19v19h-19zM133 494h19v19h-19zM152 494h19v19h-19zM171 494h19v19h-19zM190 494h19v19h-19zM228 494h19v19h-19zM266 494h19v19h-19zM304 494h19v19h-19zM323 494h19v19h-19zM361 494h19v19h-19zM399 494h19v19h-19zM456 494h19v19h-19zM494 494h19v19h-19zM513 494h19v19h-19zM532 494h19v19h-19zM551 494h19v19h-19zM570 494h19v19h-19zM589 494h19v19h-19zM646 494h19v19h-19zM703 494h19v19h-19zM722 494h19v19h-19zM741 494h19v19h-19zM798 494h19v19h-19zM836 494h19v19h-19zM855 494h19v19h-19zM874 494h19v19h-19zM893 494h19v19h-19zM912 494h19v19h-19zM931 494h19v19h-19zM950 494h19v19h-19zM969 494h19v19h-19zM1026 494h19v19h-19zM57 513h19v19H57zM76 513h19v19H76zM95 513h19v19H95zM114 513h19v19h-19zM190 513h19v19h-19zM247 513h19v19h-19zM266 513h19v19h-19zM285 513h19v19h-19zM323 513h19v19h-19zM342 513h19v19h-19zM380 513h19v19h-19zM399 513h19v19h-19zM437 513h19v19h-19zM456 513h19v19h-19zM494 513h19v19h-19zM570 513h19v19h-19zM589 513h19v19h-19zM608 513h19v19h-19zM760 513h19v19h-19zM798 513h19v19h-19zM836 513h19v19h-19zM855 513h19v19h-19zM874 513h19v19h-19zM950 513h19v19h-19zM988 513h19v19h-19zM1007 513h19v19h-19zM1026 513h19v19h-19zM38 532h19v19H38zM57 532h19v19H57zM76 532h19v19H76zM95 532h19v19H95zM114 532h19v19h-19zM152 532h19v19h-19zM190 532h19v19h-19zM209 532h19v19h-19zM247 532h19v19h-19zM285 532h19v19h-19zM323 532h19v19h-19zM342 532h19v19h-19zM399 532h19v19h-19zM418 532h19v19h-19zM437 532h19v19h-19zM456 532h19v19h-19zM494 532h19v19h-19zM532 532h19v19h-19zM570 532h19v19h-19zM589 532h19v19h-19zM646 532h19v19h-19zM665 532h19v19h-19zM722 532h19v19h-19zM760 532h19v19h-19zM798 532h19v19h-19zM817 532h19v19h-19zM874 532h19v19h-19zM912 532h19v19h-19zM950 532h19v19h-19zM969 532h19v19h-19zM1026 532h19v19h-19zM57 551h19v19H57zM76 551h19v19H76zM114 551h19v19h-19zM190 551h19v19h-19zM266 551h19v19h-19zM304 551h19v19h-19zM380 551h19v19h-19zM399 551h19v19h-19zM437 551h19v19h-19zM494 551h19v19h-19zM570 551h19v19h-19zM608 551h19v19h-19zM646 551h19v19h-19zM665 551h19v19h-19zM684 551h19v19h-19zM741 551h19v19h-19zM779 551h19v19h-19zM836 551h19v19h-19zM874 551h19v19h-19zM950 551h19v19h-19zM969 551h19v19h-19zM988 551h19v19h-19zM1007 551h19v19h-19zM76 570h19v19H76zM95 570h19v19H95zM114 570h19v19h-19zM133 570h19v19h-19zM152 570h19v19h-19zM171 570h19v19h-19zM190 570h19v19h-19zM247 570h19v19h-19zM285 570h19v19h-19zM304 570h19v19h-19zM361 570h19v19h-19zM380 570h19v19h-19zM399 570h19v19h-19zM475 570h19v19h-19zM494 570h19v19h-19zM513 570h19v19h-19zM532 570h19v19h-19zM551 570h19v19h-19zM570 570h19v19h-19zM627 570h19v19h-19zM722 570h19v19h-19zM741 570h19v19h-19zM760 570h19v19h-19zM817 570h19v19h-19zM836 570h19v19h-19zM874 570h19v19h-19zM893 570h19v19h-19zM912 570h19v19h-19zM931 570h19v19h-19zM950 570h19v19h-19zM969 570h19v19h-19zM1026 570h19v19h-19zM57 589h19v19H57zM95 589h19v19H95zM114 589h19v19h-19zM171 589h19v19h-19zM190 589h19v19h-19zM209 589h19v19h-19zM228 589h19v19h-19zM266 589h19v19h-19zM285 589h19v19h-19zM304 589h19v19h-19zM323 589h19v19h-19zM342 589h19v19h-19zM399 589h19v19h-19zM418 589h19v19h-19zM532 589h19v19h-19zM570 589h19v19h-19zM589 589h19v19h-19zM608 589h19v19h-19zM646 589h19v19h-19zM684 589h19v19h-19zM703 589h19v19h-19zM741 589h19v19h-19zM798 589h19v19h-19zM836 589h19v19h-19zM855 589h19v19h-19zM893 589h19v19h-19zM950 589h19v19h-19zM38 608h19v19H38zM133 608h19v19h-19zM152 608h19v19h-19zM190 608h19v19h-19zM209 608h19v19h-19zM247 608h19v19h-19zM304 608h19v19h-19zM323 608h19v19h-19zM342 608h19v19h-19zM361 608h19v19h-19zM475 608h19v19h-19zM494 608h19v19h-19zM513 608h19v19h-19zM532 608h19v19h-19zM551 608h19v19h-19zM570 608h19v19h-19zM589 608h19v19h-19zM722 608h19v19h-19zM741 608h19v19h-19zM779 608h19v19h-19zM855 608h19v19h-19zM874 608h19v19h-19zM893 608h19v19h-19zM912 608h19v19h-19zM931 608h19v19h-19zM950 608h19v19h-19zM969 608h19v19h-19zM988 608h19v19h-19zM1026 608h19v19h-19zM57 627h19v19H57zM114 627h19v19h-19zM171 627h19v19h-19zM190 627h19v19h-19zM266 627h19v19h-19zM361 627h19v19h-19zM399 627h19v19h-19zM418 627h19v19h-19zM475 627h19v19h-19zM494 627h19v19h-19zM532 627h19v19h-19zM551 627h19v19h-19zM608 627h19v19h-19zM627 627h19v19h-19zM665 627h19v19h-19zM684 627h19v19h-19zM703 627h19v19h-19zM741 627h19v19h-19zM760 627h19v19h-19zM779 627h19v19h-19zM798 627h19v19h-19zM836 627h19v19h-19zM912 627h19v19h-19zM950 627h19v19h-19zM969 627h19v19h-19zM988 627h19v19h-19zM1026 627h19v19h-19zM38 646h19v19H38zM57 646h19v19H57zM95 646h19v19H95zM114 646h19v19h-19zM152 646h19v19h-19zM190 646h19v19h-19zM228 646h19v19h-19zM247 646h19v19h-19zM285 646h19v19h-19zM304 646h19v19h-19zM342 646h19v19h-19zM361 646h19v19h-19zM380 646h19v19h-19zM418 646h19v19h-19zM456 646h19v19h-19zM513 646h19v19h-19zM551 646h19v19h-19zM589 646h19v19h-19zM608 646h19v19h-19zM722 646h19v19h-19zM741 646h19v19h-19zM798 646h19v19h-19zM817 646h19v19h-19zM836 646h19v19h-19zM855 646h19v19h-19zM893 646h19v19h-19zM931 646h19v19h-19zM988 646h19v19h-19zM1007 646h19v19h-19zM1026 646h19v19h-19zM38 665h19v19H38zM57 665h19v19H57zM76 665h19v19H76zM114 665h19v19h-19zM171 665h19v19h-19zM190 665h19v19h-19zM209 665h19v19h-19zM247 665h19v19h-19zM285 665h19v19h-19zM342 665h19v19h-19zM361 665h19v19h-19zM380 665h19v19h-19zM418 665h19v19h-19zM475 665h19v19h-19zM513 665h19v19h-19zM532 665h19v19h-19zM570 665h19v19h-19zM608 665h19v19h-19zM627 665h19v19h-19zM665 665h19v19h-19zM684 665h19v19h-19zM703 665h19v19h-19zM722 665h19v19h-19zM741 665h19v19h-19zM760 665h19v19h-19zM779 665h19v19h-19zM798 665h19v19h-19zM817 665h19v19h-19zM836 665h19v19h-19zM855 665h19v19h-19zM931 665h19v19h-19zM950 665h19v19h-19zM969 665h19v19h-19zM988 665h19v19h-19zM1026 665h19v19h-19zM38 684h19v19H38zM76 684h19v19H76zM95 684h19v19H95zM114 684h19v19h-19zM133 684h19v19h-19zM152 684h19v19h-19zM190 684h19v19h-19zM247 684h19v19h-19zM285 684h19v19h-19zM304 684h19v19h-19zM323 684h19v19h-19zM418 684h19v19h-19zM475 684h19v19h-19zM532 684h19v19h-19zM570 684h19v19h-19zM608 684h19v19h-19zM646 684h19v19h-19zM684 684h19v19h-19zM722 684h19v19h-19zM741 684h19v19h-19zM779 684h19v19h-19zM798 684h19v19h-19zM874 684h19v19h-19zM893 684h19v19h-19zM931 684h19v19h-19zM950 684h19v19h-19zM57 703h19v19H57zM76 703h19v19H76zM95 703h19v19H95zM114 703h19v19h-19zM133 703h19v19h-19zM171 703h19v19h-19zM209 703h19v19h-19zM228 703h19v19h-19zM247 703h19v19h-19zM304 703h19v19h-19zM323 703h19v19h-19zM342 703h19v19h-19zM437 703h19v19h-19zM456 703h19v19h-19zM513 703h19v19h-19zM551 703h19v19h-19zM570 703h19v19h-19zM589 703h19v19h-19zM608 703h19v19h-19zM646 703h19v19h-19zM665 703h19v19h-19zM703 703h19v19h-19zM741 703h19v19h-19zM817 703h19v19h-19zM855 703h19v19h-19zM874 703h19v19h-19zM931 703h19v19h-19zM950 703h19v19h-19zM969 703h19v19h-19zM38 722h19v19H38zM57 722h19v19H57zM152 722h19v19h-19zM171 722h19v19h-19zM190 722h19v19h-19zM209 722h19v19h-19zM285 722h19v19h-19zM323 722h19v19h-19zM380 722h19v19h-19zM437 722h19v19h-19zM456 722h19v19h-19zM513 722h19v19h-19zM532 722h19v19h-19zM627 722h19v19h-19zM646 722h19v19h-19zM665 722h19v19h-19zM722 722h19v19h-19zM760 722h19v19h-19zM798 722h19v19h-19zM855 722h19v19h-19zM874 722h19v19h-19zM912 722h19v19h-19zM969 722h19v19h-19zM1007 722h19v19h-19zM1026 722h19v19h-19zM95 741h19v19H95zM209 741h19v19h-19zM228 741h19v19h-19zM247 741h19v19h-19zM266 741h19v19h-19zM304 741h19v19h-19zM323 741h19v19h-19zM342 741h19v19h-19zM380 741h19v19h-19zM399 741h19v19h-19zM456 741h19v19h-19zM475 741h19v19h-19zM551 741h19v19h-19zM608 741h19v19h-19zM627 741h19v19h-19zM665 741h19v19h-19zM684 741h19v19h-19zM703 741h19v19h-19zM741 741h19v19h-19zM760 741h19v19h-19zM798 741h19v19h-19zM836 741h19v19h-19zM874 741h19v19h-19zM912 741h19v19h-19zM931 741h19v19h-19zM950 741h19v19h-19zM1026 741h19v19h-19zM38 760h19v19H38zM76 760h19v19H76zM95 760h19v19H95zM133 760h19v19h-19zM152 760h19v19h-19zM171 760h19v19h-19zM209 760h19v19h-19zM228 760h19v19h-19zM285 760h19v19h-19zM304 760h19v19h-19zM342 760h19v19h-19zM361 760h19v19h-19zM399 760h19v19h-19zM513 760h19v19h-19zM532 760h19v19h-19zM551 760h19v19h-19zM589 760h19v19h-19zM665 760h19v19h-19zM684 760h19v19h-19zM703 760h19v19h-19zM760 760h19v19h-19zM817 760h19v19h-19zM855 760h19v19h-19zM874 760h19v19h-19zM912 760h19v19h-19zM931 760h19v19h-19zM988 760h19v19h-19zM1026 760h19v19h-19zM57 779h19v19H57zM133 779h19v19h-19zM171 779h19v19h-19zM209 779h19v19h-19zM228 779h19v19h-19zM247 779h19v19h-19zM361 779h19v19h-19zM380 779h19v19h-19zM399 779h19v19h-19zM513 779h19v19h-19zM570 779h19v19h-19zM589 779h19v19h-19zM608 779h19v19h-19zM665 779h19v19h-19zM703 779h19v19h-19zM741 779h19v19h-19zM760 779h19v19h-19zM779 779h19v19h-19zM836 779h19v19h-19zM855 779h19v19h-19zM950 779h19v19h-19zM969 779h19v19h-19zM988 779h19v19h-19zM1026 779h19v19h-19zM38 798h19v19H38zM76 798h19v19H76zM95 798h19v19H95zM133 798h19v19h-19zM152 798h19v19h-19zM190 798h19v19h-19zM209 798h19v19h-19zM228 798h19v19h-19zM266 798h19v19h-19zM304 798h19v19h-19zM323 798h19v19h-19zM380 798h19v19h-19zM418 798h19v19h-19zM456 798h19v19h-19zM494 798h19v19h-19zM532 798h19v19h-19zM627 798h19v19h-19zM646 798h19v19h-19zM684 798h19v19h-19zM722 798h19v19h-19zM760 798h19v19h-19zM817 798h19v19h-19zM912 798h19v19h-19zM931 798h19v19h-19zM969 798h19v19h-19zM1026 798h19v19h-19zM38 817h19v19H38zM57 817h19v19H57zM114 817h19v19h-19zM133 817h19v19h-19zM285 817h19v19h-19zM304 817h19v19h-19zM342 817h19v19h-19zM380 817h19v19h-19zM456 817h19v19h-19zM532 817h19v19h-19zM570 817h19v19h-19zM589 817h19v19h-19zM608 817h19v19h-19zM627 817h19v19h-19zM646 817h19v19h-19zM665 817h19v19h-19zM684 817h19v19h-19zM741 817h19v19h-19zM836 817h19v19h-19zM855 817h19v19h-19zM912 817h19v19h-19zM950 817h19v19h-19zM969 817h19v19h-19zM988 817h19v19h-19zM38 836h19v19H38zM57 836h19v19H57zM95 836h19v19H95zM114 836h19v19h-19zM133 836h19v19h-19zM152 836h19v19h-19zM171 836h19v19h-19zM209 836h19v19h-19zM266 836h19v19h-19zM304 836h19v19h-19zM323 836h19v19h-19zM342 836h19v19h-19zM361 836h19v19h-19zM380 836h19v19h-19zM418 836h19v19h-19zM456 836h19v19h-19zM475 836h19v19h-19zM665 836h19v19h-19zM703 836h19v19h-19zM722 836h19v19h-19zM798 836h19v19h-19zM817 836h19v19h-19zM855 836h19v19h-19zM874 836h19v19h-19zM912 836h19v19h-19zM931 836h19v19h-19zM1026 836h19v19h-19zM57 855h19v19H57zM76 855h19v19H76zM190 855h19v19h-19zM209 855h19v19h-19zM228 855h19v19h-19zM266 855h19v19h-19zM285 855h19v19h-19zM361 855h19v19h-19zM418 855h19v19h-19zM437 855h19v19h-19zM475 855h19v19h-19zM532 855h19v19h-19zM551 855h19v19h-19zM589 855h19v19h-19zM608 855h19v19h-19zM627 855h19v19h-19zM665 855h19v19h-19zM684 855h19v19h-19zM760 855h19v19h-19zM798 855h19v19h-19zM836 855h19v19h-19zM874 855h19v19h-19zM912 855h19v19h-19zM950 855h19v19h-19zM988 855h19v19h-19zM1007 855h19v19h-19zM1026 855h19v19h-19zM95 874h19v19H95zM152 874h19v19h-19zM209 874h19v19h-19zM266 874h19v19h-19zM285 874h19v19h-19zM361 874h19v19h-19zM380 874h19v19h-19zM418 874h19v19h-19zM437 874h19v19h-19zM456 874h19v19h-19zM475 874h19v19h-19zM494 874h19v19h-19zM513 874h19v19h-19zM532 874h19v19h-19zM551 874h19v19h-19zM570 874h19v19h-19zM589 874h19v19h-19zM627 874h19v19h-19zM684 874h19v19h-19zM703 874h19v19h-19zM722 874h19v19h-19zM798 874h19v19h-19zM817 874h19v19h-19zM855 874h19v19h-19zM874 874h19v19h-19zM893 874h19v19h-19zM912 874h19v19h-19zM931 874h19v19h-19zM950 874h19v19h-19zM969 874h19v19h-19zM988 874h19v19h-19zM190 893h19v19h-19zM228 893h19v19h-19zM247 893h19v19h-19zM266 893h19v19h-19zM361 893h19v19h-19zM399 893h19v19h-19zM437 893h19v19h-19zM494 893h19v19h-19zM570 893h19v19h-19zM589 893h19v19h-19zM608 893h19v19h-19zM627 893h19v19h-19zM646 893h19v19h-19zM665 893h19v19h-19zM684 893h19v19h-19zM722 893h19v19h-19zM741 893h19v19h-19zM760 893h19v19h-19zM779 893h19v19h-19zM798 893h19v19h-19zM817 893h19v19h-19zM836 893h19v19h-19zM855 893h19v19h-19zM874 893h19v19h-19zM950 893h19v19h-19zM969 893h19v19h-19zM988 893h19v19h-19zM190 912h19v19h-19zM209 912h19v19h-19zM266 912h19v19h-19zM342 912h19v19h-19zM380 912h19v19h-19zM399 912h19v19h-19zM418 912h19v19h-19zM437 912h19v19h-19zM475 912h19v19h-19zM494 912h19v19h-19zM532 912h19v19h-19zM570 912h19v19h-19zM627 912h19v19h-19zM665 912h19v19h-19zM684 912h19v19h-19zM703 912h19v19h-19zM722 912h19v19h-19zM741 912h19v19h-19zM817 912h19v19h-19zM836 912h19v19h-19zM855 912h19v19h-19zM874 912h19v19h-19zM912 912h19v19h-19zM950 912h19v19h-19zM988 912h19v19h-19zM190 931h19v19h-19zM209 931h19v19h-19zM266 931h19v19h-19zM323 931h19v19h-19zM342 931h19v19h-19zM437 931h19v19h-19zM456 931h19v19h-19zM494 931h19v19h-19zM570 931h19v19h-19zM608 931h19v19h-19zM627 931h19v19h-19zM684 931h19v19h-19zM703 931h19v19h-19zM722 931h19v19h-19zM741 931h19v19h-19zM817 931h19v19h-19zM836 931h19v19h-19zM855 931h19v19h-19zM874 931h19v19h-19zM950 931h19v19h-19zM969 931h19v19h-19zM190 950h19v19h-19zM266 950h19v19h-19zM304 950h19v19h-19zM323 950h19v19h-19zM399 950h19v19h-19zM418 950h19v19h-19zM437 950h19v19h-19zM456 950h19v19h-19zM494 950h19v19h-19zM513 950h19v19h-19zM532 950h19v19h-19zM551 950h19v19h-19zM570 950h19v19h-19zM608 950h19v19h-19zM627 950h19v19h-19zM646 950h19v19h-19zM665 950h19v19h-19zM722 950h19v19h-19zM741 950h19v19h-19zM798 950h19v19h-19zM817 950h19v19h-19zM836 950h19v19h-19zM874 950h19v19h-19zM893 950h19v19h-19zM912 950h19v19h-19zM931 950h19v19h-19zM950 950h19v19h-19zM1007 950h19v19h-19zM1026 950h19v19h-19zM190 969h19v19h-19zM209 969h19v19h-19zM228 969h19v19h-19zM247 969h19v19h-19zM266 969h19v19h-19zM285 969h19v19h-19zM323 969h19v19h-19zM361 969h19v19h-19zM399 969h19v19h-19zM437 969h19v19h-19zM532 969h19v19h-19zM608 969h19v19h-19zM646 969h19v19h-19zM665 969h19v19h-19zM760 969h19v19h-19zM779 969h19v19h-19zM836 969h19v19h-19zM1026 969h19v19h-19zM209 988h19v19h-19zM247 988h19v19h-19zM342 988h19v19h-19zM361 988h19v19h-19zM418 988h19v19h-19zM456 988h19v19h-19zM475 988h19v19h-19zM513 988h19v19h-19zM532 988h19v19h-19zM570 988h19v19h-19zM589 988h19v19h-19zM627 988h19v19h-19zM665 988h19v19h-19zM684 988h19v19h-19zM722 988h19v19h-19zM741 988h19v19h-19zM760 988h19v19h-19zM855 988h19v19h-19zM893 988h19v19h-19zM931 988h19v19h-19zM950 988h19v19h-19zM1007 988h19v19h-19zM266 1007h19v19h-19zM285 1007h19v19h-19zM304 1007h19v19h-19zM323 1007h19v19h-19zM342 1007h19v19h-19zM361 1007h19v19h-19zM399 1007h19v19h-19zM513 1007h19v19h-19zM570 1007h19v19h-19zM589 1007h19v19h-19zM627 1007h19v19h-19zM665 1007h19v19h-19zM684 1007h19v19h-19zM760 1007h19v19h-19zM817 1007h19v19h-19zM836 1007h19v19h-19zM855 1007h19v19h-19zM874 1007h19v19h-19zM893 1007h19v19h-19zM912 1007h19v19h-19zM969 1007h19v19h-19zM988 1007h19v19h-19zM1026 1007h19v19h-19zM190 1026h19v19h-19zM285 1026h19v19h-19zM304 1026h19v19h-19zM342 1026h19v19h-19zM361 1026h19v19h-19zM399 1026h19v19h-19zM494 1026h19v19h-19zM513 1026h19v19h-19zM570 1026h19v19h-19zM589 1026h19v19h-19zM627 1026h19v19h-19zM646 1026h19v19h-19zM684 1026h19v19h-19zM703 1026h19v19h-19zM722 1026h19v19h-19zM741 1026h19v19h-19zM817 1026h19v19h-19zM836 1026h19v19h-19zM855 1026h19v19h-19zM874 1026h19v19h-19zM893 1026h19v19h-19zM950 1026h19v19h-19zM969 1026h19v19h-19z"/></g><path d="M57.95 57.95h93.1v93.1h-93.1z" fill="none"/><path d="M151.05 38H38v133h133V38zm0 113.05h-93.1v-93.1h93.1z"/><path d="M931.95 57.95h93.1v93.1h-93.1z" fill="none"/><path d="M1025.05 38H912v133h133V38zm0 113.05h-93.1v-93.1h93.1z"/><path d="M57.95 931.95h93.1v93.1h-93.1z" fill="none"/><path d="M151.05 912H38v133h133V912zm0 113.05h-93.1v-93.1h93.1z"/><g stroke-width=".57"><path d="M76 76h57v57H76zM950 76h57v57h-57zM76 950h57v57H76z"/></g></svg>
