<svg width="1441" height="666" fill="none" xmlns="http://www.w3.org/2000/svg"><path d="M58.574.92-1230.03 894.291M120.431.92-1046.8 894.291M182.287.92-863.602 894.291M244.144.92l-924.523 893.372M306.019.92l-803.175 893.372M367.874.92l-681.81 893.372M429.731.92l-560.444 893.372M491.587.92 52.49 894.291M553.444.92 235.713 894.291M615.301.92 418.936 894.291M677.157.92l-75.001 893.372M739.014.92l46.365 893.372M800.869.92l167.713 893.372M862.725.92 1151.8 894.291M924.58.92l410.44 893.372M986.439.92l531.811 893.372M1048.29.92l653.18 893.372M1110.17.92l774.5 893.372M1172.03.92l895.86 893.372M1233.88.92l1017.24 893.372M1295.74.92l1138.6 893.372M1357.59.92l1259.97 893.372M1419.45.92l1381.31 893.372" stroke="#592ACB" stroke-width="1.306" stroke-miterlimit="10"/><path d="M2809.2 3.172h-4130.96M2809.2 83.987h-4130.96m4130.96 80.807h-4130.96m4130.96 80.8h-4130.96m4130.96 80.808h-4130.96m4130.96 80.802h-4130.96m4130.96 80.805h-4130.96M2809.2 568.82h-4130.96m4130.96 80.798h-4130.96" stroke="#592ACB" stroke-width="2.212" stroke-miterlimit="10"/></svg>