<svg width="1441" height="641" fill="none" xmlns="http://www.w3.org/2000/svg"><g clip-path="url(#a)" stroke="#CB9EFF" stroke-width="3.427" stroke-miterlimit="10"><path d="M1013.64 568.415c61.71-104.469 133.65-199.558 213.81-282.674-260.122-156.553-690.758-160.903-961.872-9.738 77.128 84.712 146.433 181.238 206.039 286.924 152.778-85.191 395.456-82.737 542.043 5.488h-.02Z"/><path d="M841.928 508.847c23.288-117.779 50.467-228.414 80.799-328.812M647.464 506.891c-20.234-118.238-43.722-229.352-69.823-330.328M471.618 562.927c-59.587-105.686-128.912-202.212-206.039-286.925C-5.535 427.187-14.455 676.635 245.643 833.188c80.381-6.406 152.619 8.301 214.72 43.723-146.572-88.225-141.543-228.793 11.235-313.984h.02Z"/><path d="M368.229 662.606c-82.735-83.375-178.98-153.939-286.1-209.735m920.301 429.548c59.21-34.185 128.19-47.475 205.1-39.473 271.11-151.185 280.03-400.632 19.94-557.185-80.16 83.116-152.1 178.225-213.81 282.673 146.58 88.225 141.55 228.793-11.23 313.985Z"/><path d="M1109.83 670.109c83.23-81.699 180.22-150.307 288.3-203.908m-170.68-180.46c82.99-86.049 171.21-155.416 262.21-206.163C1090.53-160.65 429.711-167.335 13.682 64.65c87.304 52.543 172.055 123.666 251.896 211.351 271.114-151.185 701.75-146.814 961.872 9.739Z"/><path d="M1312.1 205.319C1007.08 21.746 502.109 16.637 184.18 193.904"/><path d="M1399.68 136.471C1048.23-75.06 466.369-80.947 100.049 123.32"/><path d="M922.729 180.055c31.409-103.95 64.815-192.314 99.341-262.658M577.66 176.563C550.641 72.035 522.005-16.968 492.551-87.951M265.579 276.023C185.738 188.317 100.987 117.214 13.683 64.671c-416.03 231.986-429.719 614.778-30.572 855.005 90.997-50.747 179.339-79.823 262.553-86.468-260.118-156.553-251.198-406.02 19.935-557.185h-.02Z"/><path d="M184.18 193.924c-317.909 177.268-328.385 469.799-23.367 653.373"/><path d="M100.05 123.321c-366.32 204.267-378.373 541.32-26.92 752.852"/><path d="M82.13 452.87c-110.913-57.752-228.649-97.064-349.958-116.821M74.966 652.768c-112.129-23.907-231.143-27.28-353.788-9.978M1207.53 842.946c79.62 8.282 164.25 39.114 251.56 91.657 416.03-231.986 429.72-614.778 30.57-855.005-91 50.747-179.22 120.114-262.21 206.163 260.12 156.553 251.2 406.02-19.94 557.185h.02Z"/><path d="M1288.73 858.711c317.91-177.267 328.39-469.799 23.37-653.372"/><path d="M1372.76 889.323c366.32-204.267 378.38-541.32 26.92-752.851"/><path d="M1398.14 466.181c111.89-55.497 230.81-92.415 353.45-109.717M869.867 891.02c33.684-109.597 82.056-218.157 143.783-322.605-146.577-88.225-389.254-90.679-542.052-5.488C531.184 668.613 578.06 778.13 610.886 888.406c72.997-40.71 188.937-39.533 258.981 2.614Z"/><path d="M956.433 674.12c-116.16-69.905-308.45-71.86-429.519-4.35"/><path d="M787.83 862.563c12.612-116.901 30.811-235.917 54.099-353.716m-147.01 352.778c-11.235-117.14-27.219-236.516-47.454-354.734m-36.558 381.515c-32.826-110.276-79.682-219.793-139.288-325.479-152.778 85.191-157.807 225.78-11.235 313.985 62.101 35.421 110.952 89.761 145.155 161.498-70.023-42.143-67.629-109.314 5.368-150.024v.02Z"/><path d="M1013.65 568.415c61.7-104.469 133.64-199.558 213.8-282.674-260.12-156.553-690.756-160.903-961.87-9.738 77.128 84.712 146.433 181.238 206.039 286.924 152.778-85.191 395.456-82.737 542.051 5.488h-.02Z"/><path d="M841.93 508.847c23.288-117.779 50.467-228.414 80.799-328.812M647.466 506.891c-20.234-118.238-43.722-229.352-69.823-330.328M471.62 562.927c-59.587-105.686-128.912-202.212-206.039-286.925C-5.533 427.187-14.453 676.635 245.645 833.188c80.381-6.406 152.619 8.301 214.72 43.723-146.572-88.225-141.543-228.793 11.235-313.984h.02Z"/><path d="M368.231 662.606c-82.735-83.375-178.98-153.939-286.1-209.735m782.387 588.179c32.307-71.065 78.723-124.447 137.912-158.631 152.78-85.191 157.81-225.78 11.23-313.984-61.698 104.468-110.09 213.008-143.774 322.605 70.023 42.146 67.628 109.32-5.368 150.03v-.02Z"/><path d="M1002.43 882.419c59.21-34.185 128.19-47.475 205.1-39.473 271.11-151.185 280.03-400.632 19.94-557.185-80.16 83.116-152.1 178.225-213.81 282.673 146.58 88.225 141.55 228.793-11.23 313.985Z"/><path d="M864.516 1041.05c32.307-71.065 78.724-124.447 137.914-158.631 152.78-85.191 157.8-225.78 11.23-313.984-61.7 104.468-110.092 213.008-143.776 322.605 70.023 42.146 67.628 109.32-5.368 150.03v-.02Z"/><path d="M1002.43 882.419c59.21-34.185 128.19-47.475 205.1-39.473 271.11-151.185 280.03-400.632 19.94-557.185-80.16 83.116-152.1 178.225-213.81 282.673 146.58 88.225 141.55 228.793-11.23 313.985Z"/><path d="M1109.83 670.109c83.23-81.699 180.22-150.307 288.3-203.908M869.867 891.02c33.684-109.597 82.056-218.157 143.783-322.605-146.577-88.225-389.254-90.679-542.052-5.488C531.184 668.613 578.06 778.13 610.886 888.406c72.997-40.71 188.937-39.533 258.981 2.614Z"/><path d="M787.83 862.563c12.612-116.901 30.811-235.917 54.099-353.716m-147.01 352.778c-11.235-117.141-27.219-236.516-47.454-354.734m-36.558 381.514c-32.826-110.276-79.682-219.793-139.288-325.479-152.778 85.191-157.807 225.78-11.235 313.985 62.101 35.421 110.952 89.761 145.155 161.499-70.023-42.144-67.629-109.315 5.368-150.025v.02Z"/><path d="M1013.64 568.415c61.71-104.469 133.65-199.558 213.81-282.674-260.122-156.553-690.758-160.903-961.872-9.738 77.128 84.712 146.433 181.238 206.039 286.924 152.778-85.191 395.456-82.737 542.043 5.488h-.02Z"/><path d="M1078.7 467.179c-181.134-109.019-481.043-112.052-669.841-6.785"/><path d="M1150.1 372.768c-219.071-131.848-581.739-135.519-810.069-8.202"/><path d="M841.928 508.847c23.288-117.779 50.467-228.414 80.799-328.812M647.464 506.891c-20.234-118.238-43.722-229.352-69.823-330.328M471.618 562.927c-59.587-105.686-128.912-202.212-206.039-286.925C-5.535 427.187-14.455 676.635 245.643 833.188c80.381-6.406 152.619 8.301 214.72 43.723-146.572-88.225-141.543-228.793 11.235-313.984h.02Z"/><path d="M408.859 460.394C220.061 565.68 213.835 739.395 394.99 848.414"/><path d="M340.032 364.566c-228.329 127.318-235.853 337.412-16.783 469.26"/><path d="M368.229 662.606c-82.735-83.375-178.98-153.939-286.1-209.735m1145.321-167.13c82.99-86.049 171.21-155.416 262.21-206.163C1090.53-160.65 429.711-167.335 13.682 64.65c87.304 52.543 172.055 123.666 251.896 211.351 271.114-151.185 701.75-146.814 961.872 9.739Z"/><path d="M922.729 180.055c31.409-103.95 64.815-192.314 99.341-262.658M577.66 176.563C550.641 72.035 522.005-16.968 492.551-87.951M265.579 276.023C185.738 188.317 100.987 117.214 13.683 64.671c-416.03 231.986-429.719 614.778-30.572 855.005 90.997-50.747 179.339-79.823 262.553-86.468-260.118-156.553-251.198-406.02 19.935-557.185h-.02Z"/><path d="M82.13 452.87c-110.913-57.752-228.649-97.064-349.958-116.821M74.966 652.768c-112.129-23.907-231.143-27.28-353.788-9.978M864.52 1041.05c32.307-71.066 78.723-124.447 137.91-158.632 152.78-85.191 157.81-225.779 11.24-313.984-61.706 104.469-110.098 213.008-143.782 322.605 70.023 42.147 67.628 109.321-5.368 150.031v-.02Z"/><path d="M1002.43 882.418c59.21-34.184 128.19-47.475 205.1-39.472 271.11-151.185 280.03-400.633 19.94-557.186-80.16 83.116-152.1 178.225-213.81 282.674 146.58 88.224 141.55 228.793-11.23 313.984Z"/><path d="M1064.81 855.198c188.8-105.286 195.02-279.001 13.87-388.02"/><path d="M1133.32 842.027c228.33-127.318 235.85-337.412 16.78-469.26"/><path d="M1109.83 670.108c83.23-81.699 180.22-150.307 288.3-203.908"/><path d="M1207.53 842.946c79.62 8.281 164.25 39.113 251.56 91.657 416.03-231.986 429.72-614.778 30.57-855.006-91 50.748-179.22 120.114-262.21 206.163 260.12 156.553 251.2 406.021-19.94 557.186h.02Z"/><path d="M1398.15 466.181c111.89-55.497 230.8-92.415 353.45-109.717"/></g><defs><clipPath id="a"><path fill="#fff" transform="translate(-309.516 -107.049)" d="M0 0h2091.8v1433.74H0z"/></clipPath></defs></svg>