<svg width="1441" height="641" fill="none" xmlns="http://www.w3.org/2000/svg"><path d="M1440.75-183.701c-411.16 248.746-1039.403 248.746-1450.559 0" stroke="#FF9AA2" stroke-width=".893" stroke-miterlimit="10"/><path d="M1440.75-96.475c-411.16 248.747-1039.403 248.747-1450.559 0" stroke="#FF9AA2" stroke-width=".893" stroke-miterlimit="10"/><path d="M1440.75-9.237C1029.59 239.51 401.347 239.51-9.809-9.237" stroke="#FF9AA2" stroke-width=".893" stroke-miterlimit="10"/><path d="M1440.75 78.001c-411.16 248.747-1039.403 248.747-1450.559 0" stroke="#FF9AA2" stroke-width=".893" stroke-miterlimit="10"/><path d="M1440.75 165.229c-411.16 248.747-1039.403 248.747-1450.559 0" stroke="#FF9AA2" stroke-width=".893" stroke-miterlimit="10"/><path d="M1440.75 252.467c-411.16 248.747-1039.403 248.747-1450.559 0" stroke="#FF9AA2" stroke-width=".893" stroke-miterlimit="10"/><path d="M1440.75 339.707c-411.16 248.747-1039.403 248.747-1450.559 0" stroke="#FF9AA2" stroke-width=".893" stroke-miterlimit="10"/><path d="M1440.75 426.932c-411.16 248.747-1039.403 248.747-1450.559 0" stroke="#FF9AA2" stroke-width=".893" stroke-miterlimit="10"/><path d="M1440.75 514.171c-411.16 248.747-1039.403 248.747-1450.559 0M110.371-386.089v964.447M235.773-337.064v964.447M367.975-300.289v964.448M505.025-275.774v964.447M644.988-263.524v964.447M785.922-263.524v964.447M925.906-275.774v964.447M1062.96-300.289v964.448M1195.16-337.064v964.447M1320.56-386.089v964.447M1437.21-447.366v964.447" stroke="#FF9AA2" stroke-width=".893" stroke-miterlimit="10"/></svg>