<svg width="481" height="52" fill="none" xmlns="http://www.w3.org/2000/svg"><path d="M-3.48 51.068h20.624c14.943 0 24.816-11.089 26.98-23.598C46.49 13.608 36.955 1.64 22.35 1.707H5.175L-3.48 51.068Zm24.207-38.61c8.453 0 12.645 6.424 11.293 14.336-1.15 6.761-7.168 13.388-14.403 13.388h-7.438l4.8-27.724h5.748Zm52.024 39.287c14.064 0 24.951-9.94 27.182-22.99 2.502-14.741-7.64-27.724-22.922-27.724-13.591 0-25.019 9.94-27.25 22.99-2.502 14.74 7.573 27.724 22.99 27.724Zm.947-11.63c-8.453 0-13.456-7.168-12.104-15.012 1.285-7.032 6.83-12.51 14.335-12.51 8.452 0 13.524 7.168 12.104 15.08-1.218 7.032-6.83 12.441-14.335 12.441Zm55.049 11.63c14.065 0 24.951-9.94 27.183-22.99 2.501-14.741-7.641-27.724-22.923-27.724-13.591 0-25.019 9.94-27.25 22.99-2.502 14.74 7.573 27.724 22.99 27.724Zm.947-11.63c-8.452 0-13.456-7.168-12.104-15.012 1.285-7.032 6.83-12.51 14.335-12.51 8.452 0 13.524 7.168 12.104 15.08-1.217 7.032-6.83 12.441-14.335 12.441Zm28.541 10.953h11.563l5.477-31.104 10.008 16.567 15.687-15.958-5.342 30.495h11.563l8.655-49.36H205.23l-17.581 17.85-10.751-17.85h-10.007l-8.656 49.36Zm75.735.744c11.021 0 18.392-6.288 19.744-13.93 2.029-11.494-6.424-14.807-13.456-17.039-5.071-1.623-9.399-2.705-8.858-5.68.406-2.366 2.637-3.922 6.492-3.922 5.071 0 8.519 2.773 10.007 5.613l10.346-6.965C253.917 4.344 248.44.963 238.703.963c-9.196 0-17.581 5.14-19.001 13.254-1.825 10.548 6.018 13.523 12.915 15.755 5.207 1.69 9.873 2.84 9.264 6.49-.406 2.435-3.178 4.193-6.762 4.193-5.274 0-9.128-2.57-11.36-7.1l-10.886 7.912c3.786 5.68 10.954 10.345 21.097 10.345Zm48.378-.067c10.819-.068 17.716-5.004 22.585-12.172l-10.481-6.559c-2.772 4.463-6.694 7.1-11.36 7.1-8.587 0-13.524-7.167-12.104-15.079 1.285-7.302 7.1-12.441 14.403-12.441 5.95 0 9.669 3.313 11.292 7.911l11.495-5.545c-3.381-8.046-11.292-13.929-21.84-13.929-13.93 0-25.019 9.737-27.25 22.652-2.57 14.876 6.559 28.197 23.26 28.062Zm25.122-.677h11.834l2.637-15.146h7.438l7.167 15.146h13.186l-8.723-16.904c6.829-2.57 11.089-7.776 12.104-13.456 1.96-11.157-5.748-19-16.634-19h-20.354l-8.655 49.36Zm26.371-38.812c5.613 0 7.641 3.178 6.965 7.1-.676 4.057-4.125 6.085-8.993 6.085h-8.047l2.299-13.185h7.776ZM380.4 51.745c14.064 0 24.951-9.94 27.182-22.99 2.502-14.741-7.641-27.724-22.923-27.724-13.591 0-25.018 9.94-27.25 22.99-2.501 14.74 7.574 27.724 22.991 27.724Zm.946-11.63c-8.452 0-13.456-7.168-12.103-15.012 1.284-7.032 6.829-12.51 14.335-12.51 8.452 0 13.523 7.168 12.103 15.08-1.217 7.032-6.829 12.441-14.335 12.441Zm28.542 10.953h31.307l1.961-11.292h-19.474l6.694-38.069h-11.833l-8.655 49.361Zm37.573 0h31.307l1.961-11.292h-19.474l6.694-38.069h-11.833l-8.655 49.361Z" fill="#E4DFFB"/><path d="m-3.48 51.068-1.271-.223-.266 1.514h1.537v-1.29ZM44.123 27.47l1.272.22v-.003l-1.272-.217ZM22.35 1.707v1.291h.006l-.006-1.29Zm-17.175 0V.417H4.091l-.187 1.067 1.271.223ZM32.02 26.794l-1.273-.218v.001l1.273.216ZM10.179 40.181l-1.272-.22-.262 1.51h1.534v-1.29Zm4.8-27.724v-1.29h-1.086l-.185 1.07 1.272.22ZM-3.48 52.36h20.624v-2.581H-3.48v2.581Zm20.624 0c15.692 0 26.002-11.668 28.251-24.67l-2.544-.44C40.773 39.268 31.34 49.779 17.144 49.779v2.581Zm28.252-24.672C47.893 13.062 37.78.345 22.344.417l.012 2.581c13.776-.064 22.731 11.156 20.495 24.254l2.545.435ZM22.35.417H5.175v2.581H22.35V.416ZM3.904 1.483l-8.655 49.361 2.543.446 8.655-49.36-2.543-.447ZM20.727 13.75c3.878 0 6.63 1.458 8.288 3.682 1.68 2.25 2.363 5.455 1.732 9.145l2.545.435c.722-4.22-.014-8.184-2.207-11.124-2.212-2.965-5.783-4.72-10.358-4.72v2.582Zm10.02 12.828c-.527 3.098-2.181 6.202-4.55 8.524-2.366 2.319-5.37 3.79-8.58 3.79v2.582c4.024 0 7.647-1.842 10.387-4.528 2.736-2.681 4.665-6.271 5.288-9.935l-2.545-.433Zm-13.13 12.314h-7.438v2.582h7.438V38.89Zm-6.166 1.511 4.8-27.723-2.543-.44-4.8 27.723 2.543.44ZM14.98 13.75h5.747v-2.581H14.98v2.581Zm84.953 15.005 1.273.218v-.002l-1.273-.216Zm-50.172-4.733-1.273-.217v.001l1.273.216Zm11.833 1.082-1.27-.232-.002.013 1.272.22Zm26.439 2.57-1.27-.228-.002.007 1.272.22ZM72.75 53.034c14.721 0 26.122-10.42 28.455-24.063l-2.545-.435c-2.13 12.458-12.502 21.917-25.91 21.917v2.581Zm28.455-24.065C103.833 13.493 93.142-.26 77.011-.26v2.582c14.432 0 24.026 12.213 21.65 26.216l2.545.432ZM77.011-.26c-14.23 0-26.187 10.403-28.522 24.064l2.544.435C53.16 11.799 64.06 2.322 77.011 2.322V-.26ZM48.488 23.805c-2.627 15.478 7.996 29.23 24.263 29.23v-2.581c-14.567 0-24.094-12.213-21.717-26.217l-2.546-.432Zm25.21 15.018c-7.54 0-12.068-6.33-10.832-13.5l-2.544-.44c-1.469 8.518 4.01 16.522 13.376 16.522v-2.582ZM62.864 25.335c1.19-6.51 6.271-11.45 13.065-11.45v-2.582c-8.217 0-14.225 6.014-15.605 13.568l2.54.464Zm13.065-11.45c7.545 0 12.13 6.335 10.833 13.56l2.541.456c1.544-8.598-4.014-16.598-13.374-16.598v2.582Zm10.832 13.567c-1.122 6.482-6.253 11.371-13.063 11.371v2.582c8.2 0 14.294-5.93 15.607-13.512l-2.544-.44Zm69.169 1.302 1.272.218v-.002l-1.272-.216Zm-50.173-4.733-1.272-.217-.001.001 1.273.216Zm11.833 1.082-1.27-.232-.002.013 1.272.22Zm26.439 2.57-1.271-.228-.001.007 1.272.22Zm-15.282 25.362c14.721 0 26.122-10.42 28.455-24.063l-2.545-.435c-2.13 12.458-12.502 21.917-25.91 21.917v2.581Zm28.455-24.065c2.627-15.477-8.063-29.23-24.195-29.23v2.582c14.432 0 24.027 12.213 21.65 26.216l2.545.432ZM133.007-.26c-14.23 0-26.187 10.403-28.522 24.064l2.544.435c2.128-12.44 13.026-21.917 25.978-21.917V-.26Zm-28.523 24.065c-2.627 15.478 7.996 29.23 24.263 29.23v-2.581c-14.567 0-24.094-12.213-21.717-26.217l-2.546-.432Zm25.21 15.018c-7.539 0-12.068-6.33-10.832-13.5l-2.544-.44c-1.468 8.518 4.01 16.522 13.376 16.522v-2.582ZM118.86 25.335c1.189-6.51 6.271-11.45 13.065-11.45v-2.582c-8.217 0-14.225 6.014-15.605 13.568l2.54.464Zm13.065-11.45c7.545 0 12.13 6.335 10.833 13.56l2.541.456c1.544-8.598-4.014-16.598-13.374-16.598v2.582Zm10.832 13.567c-1.122 6.482-6.253 11.371-13.063 11.371v2.582c8.2 0 14.294-5.93 15.607-13.512l-2.544-.44Zm15.478 23.616-1.271-.223-.265 1.514h1.536v-1.29Zm11.563 0v1.291h1.084l.187-1.067-1.271-.224Zm5.477-31.104 1.105-.667-1.779-2.946-.597 3.39 1.271.223Zm10.008 16.567-1.105.667.859 1.423 1.166-1.186-.92-.904Zm15.687-15.958 1.272.222.715-4.085-2.908 2.958.921.905Zm-5.342 30.495-1.271-.222-.265 1.513h1.536v-1.29Zm11.563 0v1.291h1.084l.187-1.068-1.271-.223Zm8.655-49.36 1.271.222.266-1.514h-1.537v1.291Zm-10.616 0V.415h-.541l-.379.385.92.906Zm-17.581 17.85-1.106.666.859 1.425 1.167-1.185-.92-.906Zm-10.751-17.85 1.106-.667-.377-.625h-.729v1.291Zm-10.007 0V.415h-1.085l-.187 1.068 1.272.223Zm-8.656 50.651h11.563v-2.581h-11.563v2.581Zm12.834-1.067 5.478-31.104-2.543-.448-5.477 31.104 2.542.448Zm3.101-30.66 10.008 16.566 2.21-1.335-10.008-16.566-2.21 1.335Zm12.033 16.803 15.688-15.957-1.842-1.81-15.687 15.958 1.841 1.81Zm13.495-17.085-5.341 30.496 2.543.445 5.342-30.496-2.544-.445Zm-4.07 32.01h11.563v-2.582h-11.563v2.581Zm12.834-1.069 8.655-49.36-2.543-.447-8.655 49.361 2.543.446ZM215.846.416H205.23v2.582h10.616V.416ZM204.31.801l-17.58 17.852 1.839 1.811 17.581-17.85L204.31.8Zm-15.555 18.091-10.751-17.85-2.212 1.331 10.751 17.851 2.212-1.332ZM176.898.416h-10.007v2.582h10.007V.416Zm-11.279 1.068-8.655 49.361 2.543.446 8.655-49.36-2.543-.447Zm88.095 36.399 1.271.225-1.271-.225Zm-13.456-17.04-.393 1.23h.003l.39-1.23Zm-8.858-5.68 1.27.231.003-.013-1.273-.218Zm16.499 1.69-1.144.6.669 1.276 1.196-.805-.721-1.07Zm10.346-6.964.72 1.07 1.149-.772-.852-1.092-1.017.794Zm-38.543 4.328-1.271-.223-.001.002 1.272.22Zm12.915 15.755.399-1.228h-.001l-.398 1.228Zm9.264 6.49 1.273.213-1.273-.212Zm-18.122-2.907 1.158-.57-.677-1.375-1.24.901.759 1.044Zm-10.886 7.912-.759-1.045-1.003.73.688 1.03 1.074-.715Zm21.097 11.636c11.515 0 19.532-6.616 21.015-14.995l-2.542-.45c-1.222 6.902-7.945 12.863-18.473 12.863v2.582Zm21.015-14.996c1.084-6.141-.636-10.296-3.722-13.164-2.977-2.765-7.115-4.22-10.614-5.33l-.781 2.46c3.533 1.122 7.137 2.439 9.637 4.762 2.391 2.22 3.883 5.47 2.938 10.823l2.542.45Zm-14.333-18.493c-2.618-.838-4.814-1.47-6.338-2.252-.751-.385-1.2-.741-1.438-1.059-.199-.264-.275-.527-.206-.909l-2.54-.462c-.201 1.106.061 2.094.68 2.92.58.773 1.428 1.347 2.325 1.807 1.772.908 4.276 1.629 6.73 2.414l.787-2.46Zm-7.979-4.233c.138-.805.573-1.475 1.366-1.973.824-.517 2.084-.876 3.853-.876V9.95c-2.087 0-3.869.42-5.226 1.272-1.387.87-2.271 2.162-2.538 3.723l2.545.436Zm5.219-2.849c4.565 0 7.586 2.482 8.863 4.92l2.287-1.197c-1.698-3.242-5.573-6.305-11.15-6.305v2.582Zm10.728 5.392 10.345-6.964-1.441-2.142-10.346 6.965 1.442 2.141Zm10.642-8.83c-2.251-2.884-4.846-5.26-8.19-6.905-3.341-1.644-7.349-2.516-12.369-2.516v2.581c4.716 0 8.316.818 11.229 2.251 2.911 1.432 5.219 3.518 7.295 6.178l2.035-1.588ZM238.703-.326c-9.567 0-18.705 5.367-20.272 14.321l2.543.445c1.273-7.274 8.904-12.185 17.729-12.185V-.327ZM218.43 13.996c-.485 2.802-.341 5.184.323 7.219.666 2.04 1.83 3.656 3.271 4.956 2.829 2.553 6.779 3.923 10.196 5.029l.795-2.457c-3.48-1.125-6.901-2.359-9.261-4.488-1.154-1.042-2.04-2.287-2.547-3.84-.508-1.56-.661-3.506-.233-5.978l-2.544-.44ZM232.219 31.2c2.695.875 4.988 1.536 6.59 2.415.781.428 1.27.845 1.54 1.25.243.362.359.783.259 1.387l2.546.424c.204-1.222-.034-2.314-.659-3.247-.595-.89-1.485-1.551-2.444-2.078-1.88-1.031-4.524-1.79-7.035-2.606l-.797 2.455Zm8.389 5.052c-.253 1.518-2.183 3.113-5.489 3.113v2.582c3.861 0 7.477-1.92 8.035-5.27l-2.546-.425Zm-5.489 3.113c-4.763 0-8.179-2.272-10.202-6.38l-2.316 1.142c2.44 4.954 6.733 7.82 12.518 7.82v-2.582ZM223 32.511l-10.886 7.911 1.518 2.089 10.886-7.911L223 32.51Zm-11.201 9.672c4.029 6.044 11.603 10.92 22.171 10.92v-2.582c-9.718 0-16.479-4.455-20.023-9.77l-2.148 1.432Zm70.549 9.562-.008-1.291h-.002l.01 1.29Zm22.585-12.172L306 40.3l.754-1.109-1.137-.711-.684 1.094Zm-10.481-6.559.685-1.094-1.098-.687-.684 1.1 1.097.681Zm-23.464-7.979 1.271.229.001-.005-1.272-.224Zm25.695-4.53-1.217.43.48 1.359 1.298-.626-.561-1.163Zm11.495-5.545.561 1.163 1.104-.533-.475-1.13-1.19.5Zm-49.09 8.723-1.272-.22 1.272.22Zm23.268 29.352c11.311-.07 18.578-5.277 23.644-12.736l-2.135-1.451c-4.67 6.875-11.198 11.541-21.525 11.606l.016 2.581Zm23.261-14.556-10.48-6.559-1.37 2.189 10.481 6.559 1.369-2.189Zm-12.262-6.146c-2.602 4.19-6.155 6.49-10.263 6.49v2.582c5.223 0 9.514-2.973 12.456-7.71l-2.193-1.362Zm-10.263 6.49c-3.909 0-6.904-1.618-8.78-4.066-1.888-2.465-2.705-5.86-2.053-9.493l-2.541-.457c-.768 4.277.173 8.423 2.545 11.52 2.384 3.113 6.151 5.078 10.829 5.078v-2.582ZM272.26 25.26c1.183-6.724 6.494-11.374 13.131-11.374v-2.582c-7.968 0-14.287 5.628-15.674 13.509l2.543.447Zm13.131-11.374c2.725 0 4.864.754 6.496 1.974 1.639 1.226 2.838 2.976 3.579 5.076l2.435-.86c-.882-2.498-2.355-4.703-4.468-6.284-2.121-1.586-4.816-2.488-8.042-2.488v2.582Zm11.853 7.783 11.495-5.545-1.122-2.325-11.495 5.544 1.122 2.326Zm12.124-7.208c-3.581-8.524-11.96-14.72-23.03-14.72v2.582c10.026 0 17.47 5.57 20.65 13.138l2.38-1ZM286.338-.26c-14.561 0-26.185 10.193-28.522 23.723l2.544.44c2.125-12.3 12.68-21.581 25.978-21.581V-.26Zm-28.522 23.723c-1.339 7.752.358 15.181 4.659 20.676 4.314 5.512 11.164 8.967 19.884 8.896l-.021-2.581c-7.982.064-14.048-3.074-17.83-7.907-3.797-4.85-5.379-11.52-4.148-18.644l-2.544-.44Zm49.654 27.605-1.271-.223-.266 1.514h1.537v-1.29Zm11.834 0v1.291h1.085l.186-1.07-1.271-.22Zm2.637-15.146V34.63h-1.086l-.186 1.07 1.272.22Zm7.438 0 1.166-.552-.349-.739h-.817v1.29Zm7.167 15.146-1.167.553.35.738h.817v-1.29Zm13.186 0v1.291h2.118l-.971-1.883-1.147.592Zm-8.723-16.904-.455-1.208-1.358.51.666 1.29 1.147-.592Zm12.104-13.456 1.27.227.001-.004-1.271-.223Zm-36.988-19V.415h-1.084l-.187 1.068 1.271.223Zm24.681 17.648-1.272-.22-.001.007 1.273.212Zm-17.04 6.085-1.271-.222-.264 1.513h1.535v-1.29Zm2.299-13.185v-1.291h-1.085l-.186 1.069 1.271.222ZM307.47 52.359h11.834v-2.581H307.47v2.581Zm13.105-1.07 2.637-15.146-2.543-.443-2.637 15.147 2.543.443Zm1.366-14.076h7.438V34.63h-7.438v2.582Zm6.271-.739 7.167 15.147 2.334-1.105-7.168-15.146-2.333 1.104Zm8.334 15.885h13.186v-2.581h-13.186v2.581Zm14.333-1.883-8.723-16.904-2.294 1.184 8.722 16.904 2.295-1.184Zm-9.416-15.104c7.207-2.711 11.817-8.26 12.92-14.437l-2.541-.454c-.926 5.182-4.835 10.047-11.288 12.475l.909 2.416Zm12.921-14.44c1.043-5.934-.479-11.097-3.814-14.775-3.323-3.665-8.34-5.74-14.091-5.74v2.581c5.134 0 9.415 1.846 12.178 4.893 2.75 3.033 4.102 7.37 3.184 12.593l2.543.447ZM336.479.415h-20.354v2.582h20.354V.416Zm-21.625 1.068-8.655 49.361 2.543.446 8.655-49.36-2.543-.447Zm18.987 12.063c2.579 0 4.072.726 4.869 1.638.795.908 1.117 2.25.824 3.951l2.544.439c.383-2.22.029-4.43-1.425-6.09-1.45-1.658-3.778-2.52-6.812-2.52v2.582Zm5.692 5.596c-.28 1.677-1.108 2.881-2.357 3.695-1.283.837-3.093 1.312-5.363 1.312v2.582c2.598 0 4.946-.54 6.774-1.731 1.862-1.214 3.096-3.053 3.492-5.433l-2.546-.425Zm-7.72 5.007h-8.047v2.582h8.047V24.15Zm-6.775 1.513 2.299-13.186-2.543-.443-2.299 13.185 2.543.444Zm1.027-12.117h7.776v-2.581h-7.776v2.582Zm81.517 15.208 1.272.218.001-.002-1.273-.216Zm-50.173-4.733-1.272-.217v.001l1.272.216Zm11.834 1.082-1.27-.232-.003.013 1.273.22Zm26.438 2.57-1.27-.228-.002.007 1.272.22ZM380.4 53.034c14.721 0 26.122-10.42 28.454-24.063l-2.544-.435c-2.131 12.458-12.503 21.917-25.91 21.917v2.581Zm28.455-24.065c2.627-15.477-8.064-29.23-24.196-29.23v2.582c14.432 0 24.027 12.213 21.65 26.216l2.546.432ZM384.659-.26c-14.23 0-26.186 10.403-28.522 24.064l2.545.435c2.127-12.44 13.026-21.917 25.977-21.917V-.26Zm-28.522 24.065c-2.627 15.478 7.996 29.23 24.263 29.23v-2.581c-14.567 0-24.095-12.213-21.718-26.217l-2.545-.432Zm25.209 15.018c-7.539 0-12.067-6.33-10.831-13.5l-2.545-.44c-1.468 8.518 4.011 16.522 13.376 16.522v-2.582Zm-10.834-13.488c1.19-6.51 6.272-11.45 13.066-11.45v-2.582c-8.218 0-14.225 6.014-15.605 13.568l2.539.464Zm13.066-11.45c7.544 0 12.129 6.335 10.833 13.56l2.541.456c1.543-8.598-4.015-16.598-13.374-16.598v2.582Zm10.831 13.567c-1.122 6.482-6.252 11.371-13.063 11.371v2.582c8.201 0 14.295-5.93 15.607-13.512l-2.544-.44Zm15.479 23.616-1.272-.223-.265 1.514h1.537v-1.29Zm31.307 0v1.291h1.086l.186-1.07-1.272-.22Zm1.961-11.292 1.272.221.262-1.512h-1.534v1.291Zm-19.474 0-1.271-.223-.267 1.514h1.538v-1.29Zm6.694-38.069 1.271.224.267-1.515h-1.538v1.291Zm-11.833 0V.417h-1.084l-.188 1.067 1.272.223Zm-8.655 50.652h31.307v-2.581h-31.307v2.581Zm32.579-1.07 1.961-11.292-2.544-.442-1.961 11.292 2.544.442Zm.689-12.804h-19.474v2.582h19.474v-2.582ZM424.953 40l6.694-38.07-2.542-.446-6.694 38.069 2.542.447ZM430.376.416h-11.833v2.582h11.833V.416Zm-13.105 1.068-8.655 49.361 2.543.446 8.655-49.36-2.543-.447Zm30.19 49.584-1.272-.223-.265 1.514h1.537v-1.29Zm31.307 0v1.291h1.086l.186-1.07-1.272-.22Zm1.961-11.292 1.272.221.262-1.512h-1.534v1.291Zm-19.474 0-1.272-.223-.266 1.514h1.538v-1.29Zm6.694-38.069 1.271.224.267-1.515h-1.538v1.291Zm-11.833 0V.417h-1.084l-.188 1.067 1.272.223Zm-8.655 50.652h31.307v-2.581h-31.307v2.581Zm32.579-1.07 1.961-11.292-2.544-.442-1.961 11.292 2.544.442Zm.689-12.804h-19.474v2.582h19.474v-2.582ZM462.526 40l6.694-38.07-2.542-.446-6.695 38.069 2.543.447ZM467.949.416h-11.833v2.582h11.833V.416Zm-13.105 1.068-8.655 49.361 2.543.446 8.655-49.36-2.543-.447Z" fill="#AB71FF"/></svg>