<svg xmlns="http://www.w3.org/2000/svg" viewBox="0 0 215 163" width="215" height="163" xml:space="preserve">
  <style>
    .st1{fill:#0090ed}.st2{fill:#008ef0}.st3{fill:#00b2f7}.st4{fill:#7bebff}.st6{fill:#ff45a2}.st7{fill:#ffdef0}.st12{fill:#e7dfff}
  </style>
  <path fill="#f2f2f2" d="M182.1 81.3c0 44.7-36.3 81-81 81s-81-36.3-81-81 36.3-81 81-81 81 36.2 81 81"/>
  <path d="M65.1 23.8c-.7-.7-1.9-.6-2.6.1-.7.7-.6 1.9.1 2.6 5.3 4.9 8.3 11.8 8.2 19L70.4 69c0 1 .8 1.8 1.8 1.8S74 70 74 69l.4-23.5c.1-8.2-3.3-16.1-9.3-21.7" class="st1"/>
  <path d="M25.5 28.5c.5 0 1-.2 1.4-.6 4.9-5.3 11.8-8.3 19-8.2 4.1.1 8.2 1.1 11.8 3.1.9.5 2 .2 2.5-.7.5-.9.2-2-.7-2.5-4.1-2.3-8.8-3.5-13.5-3.6-8.2-.1-16.1 3.3-21.7 9.3-.7.7-.6 1.9.1 2.6.3.4.7.6 1.1.6" class="st1"/>
  <path d="M18 64.6c1 0 1.8-.8 1.8-1.8l.3-18.1c.1-3.5.8-6.9 2.3-10.1.4-.9 0-2-.9-2.4-.9-.4-2 0-2.4.9-1.7 3.6-2.5 7.5-2.6 11.5l-.3 18.1c0 1 .8 1.8 1.8 1.9" class="st1"/>
  <path d="M41.5 68.5l.3-23.5c0-.4.1-.8.2-1.2.2-.6.6-1.1 1-1.5.7-.6 1.5-.9 2.4-.9 2 0 3.6 1.7 3.6 3.7l-.2 16.3-.1 9c0 1 .8 1.8 1.8 1.8s1.8-.8 1.8-1.8l.1-9 .2-16.3c.1-4-3.1-7.3-7.1-7.3-1.8 0-3.5.6-4.9 1.8-.9.8-1.6 1.8-2 2.9-.3.8-.4 1.6-.5 2.4l-.4 23.5c-.1 9.4-7.8 12.5-8.1 12.7-.9.4-1.4 1.4-1 2.3.3.7.9 1.2 1.7 1.2.2 0 .5 0 .7-.1.5-.1 10.3-4 10.5-16" class="st1"/>
  <path d="M43.7 45l-.3 19.9c0 1 .8 1.8 1.8 1.8s1.8-.8 1.8-1.8l.3-19.9c0-1-.8-1.8-1.8-1.8s-1.8.8-1.8 1.8" class="st1"/>
  <path d="M45.1 68.6c-1 0-1.8.8-1.8 1.8-.2 9.6-8.1 14.4-8.4 14.6-.9.5-1.2 1.6-.7 2.5.3.6.9.9 1.5.9.3 0 .6-.1.9-.2.4-.2 10-5.9 10.2-17.7.1-1.1-.7-1.9-1.7-1.9" class="st1"/>
  <path d="M50.4 74.1c-1-.2-1.9.4-2.2 1.4-1.4 6.6-6.5 11.6-6.5 11.7-.7.7-.7 1.8 0 2.6.3.4.8.5 1.3.5s.9-.2 1.3-.5c.2-.2 5.9-5.8 7.6-13.5.1-1-.5-2-1.5-2.2" class="st1"/>
  <path d="M45.7 32.4c-7-.1-12.8 5.5-12.9 12.5l-.3 19.9c-.2 10.9-7.5 12.5-7.8 12.6-1 .2-1.6 1.1-1.5 2.1.2.9.9 1.5 1.8 1.5h.4c.1 0 10.5-2.1 10.7-16.1l.3-19.9c.1-5 4.2-9 9.2-8.9 5 .1 9 4.2 8.9 9.2l-.1 9-.3 18.1c-.1 9.8-5 14.8-5.1 14.9-.7.7-.7 1.8 0 2.6.3.4.8.5 1.3.6.5 0 .9-.2 1.3-.5.2-.2 6.1-6 6.2-17.5l.2-18.2.1-9c.1-7-5.5-12.8-12.4-12.9" class="st1"/>
  <path d="M30.7 64.8l.3-20c0-2.3.6-4.5 1.7-6.6.5-.9.1-2-.7-2.5-.9-.5-2-.1-2.5.7-1.4 2.5-2.1 5.4-2.1 8.2l-.3 19.9c0 .3-.2 7.2-5.5 7.2-1 0-1.8.8-1.8 1.8s.8 1.8 1.8 1.8c7 .3 9-6.8 9.1-10.5" class="st1"/>
  <path d="M45.7 27c-3.6-.1-7.1 1-10.1 2.9-.8.5-1.1 1.7-.5 2.5.5.8 1.7 1.1 2.5.5 2.4-1.6 5.2-2.4 8.1-2.3 8 .1 14.4 6.7 14.3 14.7l-.4 29c-.1 6.6-1.7 9.9-1.8 10-.5.9-.1 2 .8 2.4.3.1.5.2.8.2.7 0 1.3-.3 1.6-1 .1-.2 2.1-4.1 2.2-11.6l.4-29c.1-9.9-7.9-18.2-17.9-18.3" class="st1"/>
  <path d="M25.3 62.9l.3-18.1c.1-9.6 7.4-17.9 16.9-19.4 1-.2 1.7-1.1 1.5-2.1-.2-1-1.1-1.7-2.1-1.5-11.4 1.8-19.8 11.4-20 22.9l-.3 18.1c0 .6-.2 3.6-3.7 3.6-1 0-1.8.8-1.8 1.8s.8 1.8 1.8 1.8c5.3.1 7.3-4.2 7.4-7.1" class="st1"/>
  <path d="M49.7 21.9c-1-.2-1.9.5-2.1 1.5-.2 1 .5 1.9 1.5 2.1 9.4 1.7 16.4 10.3 16.3 19.9l-.1 5.4c0 1 .8 1.8 1.8 1.8s1.8-.8 1.8-1.8l.1-5.4c.2-11.5-7.9-21.4-19.3-23.5" class="st1"/>
  <path d="M67 56.2c-1 0-1.8.8-1.8 1.8l-.3 19.9c0 1 .8 1.8 1.8 1.8s1.8-.8 1.8-1.8l.3-19.9c0-.9-.8-1.7-1.8-1.8" class="st1"/>
  <g>
    <path d="M206.3 103.1h-69.4c-3.4 0-6.2 2.8-6.2 6.2v5.6c0 3.4 2.8 6.2 6.2 6.2h69.4c3.4 0 5.2-2.8 5.2-6.2v-5.6c0-3.4-2.8-6.2-6.2-6.2" class="st2"/>
    <path d="M205.3 122.5h-68.4c-4.2 0-7.7-3.5-7.7-7.7v-5.6c0-4.2 3.5-7.7 7.7-7.7h68.4c4.2 0 7.7 3.5 7.7 7.7v5.6c0 4.3-3.4 7.7-7.7 7.7zm-68.4-17.9c-2.5 0-4.6 2.1-4.6 4.6v5.6c0 2.5 2.1 4.6 4.6 4.6h68.4c2.5 0 4.6-2.1 4.6-4.6v-5.6c0-2.5-2.1-4.6-4.6-4.6h-68.4z" class="st3"/>
    <path d="M169.2 113.4c.1 0 .2.1.2.2v.3l-.8 1.3-.2.2c-.1 0-.2 0-.3-.1l-1.6-1.3.3 2.1c0 .1 0 .2-.1.3-.1.1-.2.1-.3.1h-1.5c-.1 0-.2 0-.3-.1-.1-.1-.1-.2-.1-.3l.3-2.2-1.8 1.3c-.1.1-.2.1-.3.1-.1 0-.2-.1-.2-.2l-.7-1.3v-.3c0-.1.1-.2.2-.2l2-.8-2-.9c-.1 0-.2-.1-.2-.2v-.3l.8-1.3.2-.2c.1 0 .2 0 .3.1l1.8 1.3-.3-2.1c0-.1 0-.2.1-.3.1-.1.2-.1.3-.1h1.5c.1 0 .2 0 .3.1.1.1.1.2.1.3l-.3 2.2 1.8-1.3c.1-.1.2-.1.3-.1.1 0 .2.1.2.2l.7 1.3v.3c0 .1-.1.2-.2.2l-2 .9 1.8.8z" class="st4"/>
    <path d="M180.2 113.4c.1 0 .2.1.2.2v.3l-.8 1.3-.2.2c-.1 0-.2 0-.3-.1l-1.6-1.3.3 2.1c0 .1 0 .2-.1.3-.1.1-.2.1-.3.1h-1.5c-.1 0-.2 0-.3-.1-.1-.1-.1-.2-.1-.3l.3-2.2-1.8 1.3c-.1.1-.2.1-.3.1-.1 0-.2-.1-.2-.2l-.7-1.3v-.3c0-.1.1-.2.2-.2l2-.8-2-.9c-.1 0-.2-.1-.2-.2v-.3l.8-1.3.2-.2c.1 0 .2 0 .3.1l1.8 1.3-.3-2.1c0-.1 0-.2.1-.3.1-.1.2-.1.3-.1h1.5c.1 0 .2 0 .3.1.1.1.1.2.1.3l-.3 2.2 1.8-1.3c.1-.1.2-.1.3-.1.1 0 .2.1.2.2l.7 1.3v.3c0 .1-.1.2-.2.2l-2 .9 1.8.8z" class="st4"/>
    <path d="M191.1 113.4c.1 0 .2.1.2.2v.3l-.8 1.3-.2.2c-.1 0-.2 0-.3-.1l-1.6-1.3.3 2.1c0 .1 0 .2-.1.3-.1.1-.2.1-.3.1h-1.5c-.1 0-.2 0-.3-.1-.1-.1-.1-.2-.1-.3l.3-2.2-1.8 1.3c-.1.1-.2.1-.3.1-.1 0-.2-.1-.2-.2l-.7-1.3v-.3c0-.1.1-.2.2-.2l2-.8-2-.9c-.1 0-.2-.1-.2-.2v-.3l.8-1.3.2-.2c.1 0 .2 0 .3.1l1.8 1.3-.3-2.1c0-.1 0-.2.1-.3.1-.1.2-.1.3-.1h1.5c.1 0 .2 0 .3.1.1.1.1.2.1.3l-.3 2.2 1.8-1.3c.1-.1.2-.1.3-.1.1 0 .2.1.2.2l.7 1.3v.3c0 .1-.1.2-.2.2l-2 .9 1.8.8z" class="st4"/>
    <path d="M202 113.4c.1 0 .2.1.2.2v.3l-.8 1.3-.2.2c-.1 0-.2 0-.3-.1l-1.6-1.3.3 2.1c0 .1 0 .2-.1.3-.1.1-.2.1-.3.1h-1.5c-.1 0-.2 0-.3-.1-.1-.1-.1-.2-.1-.3l.3-2.2-1.8 1.3c-.1.1-.2.1-.3.1-.1 0-.2-.1-.2-.2l-.7-1.3v-.3c0-.1.1-.2.2-.2l2-.8-2-.9c-.1 0-.2-.1-.2-.2v-.3l.8-1.3.2-.2c.1 0 .2 0 .3.1l1.8 1.3-.3-2.1c0-.1 0-.2.1-.3.1-.1.2-.1.3-.1h1.5c.1 0 .2 0 .3.1.1.1.1.2.1.3l-.3 2.2 1.8-1.3c.1-.1.2-.1.3-.1.1 0 .2.1.2.2l.7 1.3v.3c0 .1-.1.2-.2.2l-2 .9 1.8.8z" class="st4"/>
    <path d="M158.4 113.4c.1 0 .2.1.2.2v.3l-.8 1.3-.2.2c-.1 0-.2 0-.3-.1l-1.7-1.3.3 2.2c0 .1 0 .2-.1.3-.1.1-.2.1-.3.1h-1.6c-.1 0-.2 0-.3-.1-.1-.1-.1-.2-.1-.3l.3-2.2-1.8 1.3c-.1.1-.2.1-.3.1-.1 0-.2-.1-.2-.2l-.8-1.3v-.3c0-.1.1-.2.2-.2l2-.8-2-.9c-.1 0-.2-.1-.2-.2v-.3l.8-1.3c.1-.1.1-.2.2-.2s.2 0 .3.1l1.7 1.4-.3-2.1c0-.1 0-.2.1-.3.1-.1.2-.1.3-.1h1.5c.1 0 .2 0 .3.1.1.1.1.2.1.3l-.2 2.1 1.8-1.3c.1-.1.2-.1.3-.1.1 0 .2.1.2.2l.8 1.3v.3c0 .1-.1.2-.2.2l-2 .9 2 .7z" class="st4"/>
    <path d="M147.5 113.4c.1 0 .2.1.2.2v.3l-.8 1.3c0 .1-.1.2-.2.2s-.2 0-.3-.1l-1.7-1.3.3 2.2c0 .1 0 .2-.1.3-.1.1-.2.1-.3.1H143c-.1 0-.2 0-.3-.1-.1-.1-.1-.2-.1-.3l.3-2.2-1.8 1.3c-.1.1-.2.1-.3.1-.1 0-.2-.1-.2-.2l-.8-1.3v-.3c0-.1.1-.2.2-.2l2-.8-2-.9c-.1 0-.2-.1-.2-.2v-.3l.8-1.3c0-.1.1-.2.2-.2s.2 0 .3.1l1.8 1.4-.3-2.1c0-.1 0-.2.1-.3.1-.1.2-.1.3-.1h1.5c.1 0 .2 0 .3.1.1.1.1.2.1.3l-.3 2.1 1.8-1.3c.1-.1.2-.1.3-.1.1 0 .2.1.2.2l.7 1.3v.3c0 .1-.1.2-.2.2l-2 .9 2.1.7z" class="st4"/>
    <g>
      <path d="M182.7 126.9h-68.4c-3.4 0-6.2 2.8-6.2 6.2v5.6c0 3.4 2.8 6.2 6.2 6.2h68.4c3.4 0 6.2-2.8 6.2-6.2v-5.6c0-3.4-2.8-6.1-6.2-6.2" class="st2"/>
      <path d="M182.7 146.4h-68.4c-4.2 0-7.7-3.5-7.7-7.7v-5.6c0-4.2 3.5-7.7 7.7-7.7h68.4c4.2 0 7.7 3.5 7.7 7.7v5.6c0 4.2-3.5 7.7-7.7 7.7zm-68.4-17.9c-2.5 0-4.6 2.1-4.6 4.6v5.6c0 2.5 2.1 4.6 4.6 4.6h68.4c2.5 0 4.6-2.1 4.6-4.6v-5.6c0-2.5-2.1-4.6-4.6-4.6h-68.4z" class="st3"/>
      <path d="M146.6 137.2c.1 0 .2.1.2.2v.3l-.8 1.3-.2.2c-.1 0-.2 0-.3-.1l-1.6-1.3.3 2.1c0 .1 0 .2-.1.3-.1.1-.2.1-.3.1h-1.5c-.1 0-.2 0-.3-.1-.1-.1-.1-.2-.1-.3l.3-2.2-1.8 1.3c-.1.1-.2.1-.3.1-.1 0-.2-.1-.2-.2l-.7-1.3v-.3c0-.1.1-.2.2-.2l2-.8-2-.9c-.1 0-.2-.1-.2-.2v-.3l.8-1.3.2-.2c.1 0 .2 0 .3.1l1.8 1.3-.3-2.1c0-.1 0-.2.1-.3.1-.1.2-.1.3-.1h1.5c.1 0 .2 0 .3.1.1.1.1.2.1.3l-.3 2.2 1.8-1.3c.1-.1.2-.1.3-.1.1 0 .2.1.2.2l.7 1.3v.3c0 .1-.1.2-.2.2l-2 .9 1.8.8z" class="st4"/>
      <path d="M157.6 137.2c.1 0 .2.1.2.2v.3l-.8 1.3-.2.2c-.1 0-.2 0-.3-.1l-1.6-1.3.3 2.1c0 .1 0 .2-.1.3-.1.1-.2.1-.3.1h-1.5c-.1 0-.2 0-.3-.1-.1-.1-.1-.2-.1-.3l.3-2.2-1.8 1.3c-.1.1-.2.1-.3.1-.1 0-.2-.1-.2-.2l-.7-1.3v-.3c0-.1.1-.2.2-.2l2-.8-2-.9c-.1 0-.2-.1-.2-.2v-.3l.8-1.3.2-.2c.1 0 .2 0 .3.1l1.8 1.3-.3-2.1c0-.1 0-.2.1-.3.1-.1.2-.1.3-.1h1.5c.1 0 .2 0 .3.1.1.1.1.2.1.3l-.3 2.2 1.8-1.3c.1-.1.2-.1.3-.1.1 0 .2.1.2.2l.7 1.3v.3c0 .1-.1.2-.2.2l-2 .9 1.8.8z" class="st4"/>
      <path d="M168.5 137.2c.1 0 .2.1.2.2v.3l-.8 1.3-.2.2c-.1 0-.2 0-.3-.1l-1.6-1.3.3 2.1c0 .1 0 .2-.1.3-.1.1-.2.1-.3.1h-1.5c-.1 0-.2 0-.3-.1-.1-.1-.1-.2-.1-.3l.3-2.2-1.8 1.3c-.1.1-.2.1-.3.1-.1 0-.2-.1-.2-.2l-.7-1.3v-.3c0-.1.1-.2.2-.2l2-.8-2-.9c-.1 0-.2-.1-.2-.2v-.3l.8-1.3.2-.2c.1 0 .2 0 .3.1l1.8 1.3-.3-2.1c0-.1 0-.2.1-.3.1-.1.2-.1.3-.1h1.5c.1 0 .2 0 .3.1.1.1.1.2.1.3l-.3 2.2 1.8-1.3c.1-.1.2-.1.3-.1.1 0 .2.1.2.2l.7 1.3v.3c0 .1-.1.2-.2.2l-2 .9 1.8.8z" class="st4"/>
      <path d="M179.4 137.2c.1 0 .2.1.2.2v.3l-.8 1.3-.2.2c-.1 0-.2 0-.3-.1l-1.6-1.3.3 2.1c0 .1 0 .2-.1.3-.1.1-.2.1-.3.1H175c-.1 0-.2 0-.3-.1-.1-.1-.1-.2-.1-.3l.3-2.2-1.8 1.3c-.1.1-.2.1-.3.1-.1 0-.2-.1-.2-.2l-.7-1.3v-.3c0-.1.1-.2.2-.2l2-.8-2-.9c-.1 0-.2-.1-.2-.2v-.3l.8-1.3.2-.2c.1 0 .2 0 .3.1l1.8 1.3-.3-2.1c0-.1 0-.2.1-.3.1-.1.2-.1.3-.1h1.5c.1 0 .2 0 .3.1.1.1.1.2.1.3l-.3 2.2 1.8-1.3c.1-.1.2-.1.3-.1.1 0 .2.1.2.2l.7 1.3v.3c0 .1-.1.2-.2.2l-2 .9 1.9.8z" class="st4"/>
      <path d="M135.7 137.2c.1 0 .2.1.2.2v.3l-.8 1.3-.2.2c-.1 0-.2 0-.3-.1l-1.7-1.3.3 2.2c0 .1 0 .2-.1.3-.1.1-.2.1-.3.1h-1.6c-.1 0-.2 0-.3-.1-.1-.1-.1-.2-.1-.3l.3-2.2-1.8 1.3c-.1.1-.2.1-.3.1-.1 0-.2-.1-.2-.2l-.8-1.3v-.3c0-.1.1-.2.2-.2l2-.8-2-.9c-.1 0-.2-.1-.2-.2v-.3l.8-1.3c.1-.1.1-.2.2-.2s.2 0 .3.1l1.7 1.4-.3-2.1c0-.1 0-.2.1-.3.1-.1.2-.1.3-.1h1.5c.1 0 .2 0 .3.1.1.1.1.2.1.3l-.2 2.1 1.8-1.3c.1-.1.2-.1.3-.1.1 0 .2.1.2.2l.8 1.3v.3c0 .1-.1.2-.2.2l-2 .9 2 .7z" class="st4"/>
      <path d="M124.9 137.2c.1 0 .2.1.2.2v.3l-.8 1.3c0 .1-.1.2-.2.2s-.2 0-.3-.1l-1.7-1.3.3 2.2c0 .1 0 .2-.1.3-.1.1-.2.1-.3.1h-1.6c-.1 0-.2 0-.3-.1-.1-.1-.1-.2-.1-.3l.3-2.2-1.8 1.3c-.1.1-.2.1-.3.1-.1 0-.2-.1-.2-.2l-.8-1.3v-.3c0-.1.1-.2.2-.2l2-.8-2-.9c-.1 0-.2-.1-.2-.2v-.3l.8-1.3c0-.1.1-.2.2-.2s.2 0 .3.1l1.8 1.4-.3-2.1c0-.1 0-.2.1-.3s.2-.1.3-.1h1.5c.1 0 .2 0 .3.1.1.1.1.2.1.3l-.3 2.1 1.8-1.3c.1-.1.2-.1.3-.1.1 0 .2.1.2.2l.7 1.3v.3c0 .1-.1.2-.2.2l-2 .9 2.1.7z" class="st4"/>
    </g>
  </g>
  <g>
    <path fill="#ff88c6" d="M153.6 84c-19.2 0-34.8-15.6-34.8-34.8 0-19.2 15.6-34.8 34.8-34.8s34.8 15.6 34.8 34.8c0 19.1-15.6 34.8-34.8 34.8"/>
    <path d="M153.6 78.9c-16.4 0-29.7-13.3-29.7-29.7s13.3-29.7 29.7-29.7 29.7 13.3 29.7 29.7c0 16.3-13.3 29.7-29.7 29.7" class="st6"/>
    <path d="M140.1 40.4c0 7.6 6.2 13.7 13.7 13.7 7.6 0 13.8-6.2 13.8-13.7 0-7.6-6.2-13.7-13.8-13.7-7.6-.1-13.7 6.1-13.7 13.7" class="st7"/>
    <path d="M172.4 56.8c-4.8-5.6-11.6 1.9-18.5 1.9-7 0-13.7-7.5-18.5-1.9-1.4 1.6-1.5 3.9-.3 5.6 4.1 6.1 11 10.1 18.9 10.1 7.9 0 14.7-4 18.9-10.1 1-1.7.9-4-.5-5.6" class="st7"/>
  </g>
  <g>
    <path fill="#ff8ac5" d="M67.1 101.1c-.3-.8-.7-1.5-1.3-2-.8-.8-1.9-1.3-3.1-1.3H6.1c-1.3 0-2.5.6-3.3 1.5-.5.6-.9 1.3-1.2 2-.1.4-.2.8-.2 1.3v39.3c0 1.3.5 2.5 1.4 3.3.9.9 2 1.4 3.3 1.4h56.6c1.3 0 2.5-.5 3.3-1.4.9-.9 1.4-2 1.4-3.3v-39.3c0-.5-.1-1-.3-1.5z"/>
    <path d="M43 121.1l-8.6 8.2-8.3-7.8-1 1-22.3 22.7c.9.9 2 1.4 3.3 1.4h56.6c1.3 0 2.5-.5 3.3-1.4l-22-23-1-1.1z" class="st6"/>
    <path fill="#ffb4db" d="M26.1 121.5l8.3 7.8 8.6-8.2 22.9-21.9c-.8-.8-1.9-1.3-3.1-1.3H6.1c-1.3 0-2.5.6-3.3 1.5l23.3 22.1z"/>
  </g>
  <g>
    <path fill="#5a29cb" d="M154.2 108.4l-39-78.2c-2.7-5.3-8.1-8.7-14.1-8.7S89.7 24.9 87 30.2l-39 78.2c-3.9 7.7-.8 17.2 6.9 21.1 2.2 1.1 4.6 1.7 7.1 1.7h78.3c8.7 0 15.7-7.1 15.8-15.8-.3-2.4-.9-4.8-1.9-7z"/>
    <path fill="#7641e5" d="M140.1 135.2H61.8c-3.1 0-6.1-.7-8.9-2.1-9.7-4.9-13.5-16.8-8.7-26.5l39-78.2c3.4-6.7 10.1-10.9 17.7-10.9 7.5 0 14.3 4.2 17.7 10.9l39.1 78.2c1.4 2.7 2.1 5.8 2.1 8.8 0 10.9-8.8 19.8-19.7 19.8zM101 25.5c-4.5 0-8.5 2.5-10.6 6.5l-39 78.2c-2.9 5.8-.6 12.9 5.1 15.8 1.6.8 3.5 1.2 5.3 1.3h78.3c6.5 0 11.8-5.3 11.8-11.8 0-1.8-.5-3.6-1.3-5.3l-39-78.2c-2.1-4-6.1-6.5-10.6-6.5z"/>
    <path d="M108.6 83.9c0 4.2-3.4 7.6-7.6 7.6s-7.6-3.4-7.6-7.6V53.3c0-4.2 3.4-7.6 7.6-7.6s7.6 3.4 7.6 7.6v30.6z" class="st12"/>
    <circle cx="101" cy="106.2" r="9.3" class="st12"/>
  </g>
</svg>
