<svg xmlns="http://www.w3.org/2000/svg" viewBox="0 0 215 170" width="215" height="170" xml:space="preserve">
  <style>
    .st1{fill:#9f9fad}.st2{fill:#5a29cb}.st6{fill:#fff}.st8{fill:#ff712d}.st10{fill:#ffa522}.st13{fill:#f11f89}.st15{fill:#ff68bb}
  </style>
  <circle id="Oval" cx="107.4" cy="85" r="82.5" fill="#f2f2f2"/>
  <g id="laptop">
    <path d="M129.5 119.2v6H4.6v-6l16.1-4h90.7z" class="st1"/>
    <path d="M10.7 110.9v-68c0-4.6 3.7-8.3 8.3-8.3h96.2c4.6 0 8.3 3.7 8.3 8.3v68c0 4.6-3.7 8.3-8.3 8.3H18.9c-4.5 0-8.2-3.7-8.2-8.3z" class="st1"/>
    <path d="M79.1 46.7l-62.4 62.4c0 1.1.9 2 2 2h96.6c1.1 0 2-.9 2-2V46.7H79.1z" class="st2"/>
    <path fill="#7641e5" d="M16.7 46.7v62.4l62.4-62.4z"/>
    <path d="M115.4 40.7H18.7c-1.1 0-2 .9-2 2v4h100.7v-4c0-1.1-.9-2-2-2z" class="st2"/>
    <path fill="#8f8f9d" d="M116.4 117.2H17.7c-.6 0-1-.5-1-1 0-.6.5-1 1-1h98.7c.6 0 1 .5 1 1s-.4 1-1 1z"/>
    <path fill="#80808e" d="M73.8 122.4H59.7c-.8 0-1.4-.6-1.4-1.4s.6-1.4 1.4-1.4h14.1c.8 0 1.4.6 1.4 1.4s-.6 1.4-1.4 1.4z"/>
    <path d="M81.5 78.9l-1.6-.3c-.4-.1-.8 0-1.2.2-.4.2-.6.6-.7 1l-.1.8c-.8 4.4-5.2 7.7-10.4 7.7-3.2.1-6.3-1.3-8.5-3.7h4.5c.9 0 1.6-.7 1.6-1.6v-1.6c0-.4-.2-.8-.5-1.1-.3-.3-.7-.5-1.1-.5h-9.6c-.4 0-.8.2-1.1.5s-.5.7-.5 1.1v9.9c0 .4.2.8.5 1.1s.7.5 1.1.5h1.6c.4 0 .8-.2 1.1-.5s.5-.7.5-1.1v-2.1c2.9 2.4 6.6 3.7 10.4 3.7 7.5 0 13.9-4.8 15.2-11.5l.1-.8c.1-.4 0-.8-.3-1.2-.3-.2-.6-.5-1-.5z" class="st6"/>
    <path d="M53.4 77.3l1.6.3h.3c.8 0 1.4-.5 1.6-1.3l.1-.7c.8-4.4 5.2-7.7 10.4-7.7 3.2-.1 6.3 1.3 8.5 3.7h-4.5c-.9 0-1.6.7-1.6 1.6v1.6c0 .4.2.8.5 1.1s.7.5 1.1.5H81c.4 0 .8-.2 1.1-.5.3-.3.5-.7.5-1.1v-9.9c0-.4-.2-.8-.5-1.1-.3-.3-.7-.5-1.1-.5h-1.6c-.4 0-.8.2-1.1.5-.3.3-.5.7-.5 1.1V67c-2.9-2.4-6.6-3.7-10.4-3.7-7.5 0-13.9 4.8-15.2 11.5l-.2.8c-.1.4 0 .8.3 1.2.3.2.7.4 1.1.5z" class="st6"/>
  </g>
  <g id="tablet">
    <path fill="#e0e0e6" d="M143 9.3h58.9c4.6 0 8.4 3.8 8.4 8.4v81.5c0 4.6-3.8 8.4-8.4 8.4H143c-4.6 0-8.4-3.8-8.4-8.4V17.8c0-4.7 3.8-8.5 8.4-8.5z"/>
    <path d="M140.7 85.1v12.3c0 1.1.9 2 2.1 2h59.4c1.1 0 2-.9 2.1-2V21.6l-63.6 63.5z" class="st8"/>
    <path fill="#ff8a48" d="M140.7 21.6v63.5l63.5-63.5z"/>
    <path d="M202.2 15.5h-59.4c-1.1 0-2 .9-2.1 2.1v4.1h63.5v-4.1c0-.5-.2-1.1-.6-1.5-.4-.4-.9-.6-1.4-.6z" class="st8"/>
    <circle cx="166.3" cy="90.2" r="3.1" class="st10"/>
    <circle cx="178.6" cy="90.2" r="3.1" class="st10"/>
    <circle cx="190.9" cy="90.2" r="3.1" class="st10"/>
    <path d="M175.2 104.9h-5.8c-.8 0-1.4-.6-1.4-1.4s.6-1.4 1.4-1.4h5.8c.8 0 1.4.6 1.4 1.4s-.6 1.4-1.4 1.4z" class="st1"/>
    <path d="M182.5 53.8l-1-.2c-.6-.1-1.1.3-1.2.8l-.1.5c-.6 2.9-3.4 5-6.9 5-2.1 0-4.1-.8-5.6-2.4h3c.6 0 1-.5 1.1-1v-1c0-.6-.5-1-1.1-1h-6.3c-.3 0-.5.1-.7.3s-.3.5-.3.7v6.6c0 .6.5 1 1.1 1h1.1c.6 0 1-.5 1.1-1v-1.4c1.9 1.6 4.4 2.4 6.9 2.4 4.9 0 9.1-3.2 10-7.6l.1-.5c0-.3 0-.6-.2-.8-.5-.2-.7-.3-1-.4z" class="st6"/>
    <path d="M164.1 52.8l1 .2h.2c.5 0 .9-.3 1-.8l.1-.5c.6-2.9 3.4-5 6.9-5 2.1 0 4.1.8 5.6 2.4h-3c-.6 0-1 .5-1.1 1v1c0 .6.5 1 1.1 1h6.3c.6 0 1-.5 1.1-1v-6.5c0-.6-.5-1-1.1-1h-1.1c-.3 0-.5.1-.7.3s-.3.5-.3.7V46c-1.9-1.6-4.3-2.4-6.8-2.4-4.9 0-9.1 3.2-10 7.6l-.1.5c-.1.4.3 1 .9 1.1z" class="st6"/>
    <circle cx="154" cy="90.2" r="3.1" fill="#ffd567"/>
  </g>
  <g id="phone">
    <path fill="#bfbfc9" d="M153.3 71.9h-43.2c-3.4 0-6.1 2.8-6.2 6.2v78.1c0 3.4 2.8 6.1 6.2 6.2h43.2c3.4 0 6.1-2.8 6.2-6.2V78c-.1-3.4-2.8-6.1-6.2-6.1z"/>
    <path d="M110.1 127.3V152c0 1.1.9 2.1 2.1 2.1h39c1.1 0 2.1-.9 2.1-2.1V84.2l-43.2 43.1z" class="st13"/>
    <path fill="#ff4d9d" d="M110.1 84.2v43.1l43.2-43.1z"/>
    <path d="M151.2 78h-39c-1.1 0-2.1.9-2.1 2.1v4.1h43.2v-4.1c0-1.2-1-2.1-2.1-2.1z" class="st13"/>
    <circle cx="121.4" cy="144.8" r="3.1" class="st15"/>
    <circle cx="131.7" cy="144.8" r="3.1" class="st15"/>
    <circle cx="141.9" cy="144.8" r="3.1" class="st15"/>
    <path d="M134.8 159.6H129c-.8 0-1.4-.6-1.4-1.4s.6-1.4 1.4-1.4h5.8c.8 0 1.4.6 1.4 1.4s-.7 1.4-1.4 1.4z" class="st1"/>
    <path d="M141.5 113.7l-1-.2c-.6-.1-1.1.3-1.2.8l-.1.5c-.6 2.9-3.4 5-6.9 5-2.1 0-4.1-.8-5.6-2.4h3c.6 0 1-.5 1.1-1v-1c0-.6-.5-1-1.1-1h-6.3c-.3 0-.5.1-.7.3-.2.2-.3.5-.3.7v6.6c0 .3.1.5.3.7.2.2.5.3.7.3h1.1c.3 0 .5-.1.7-.3s.3-.5.3-.7v-1.4c1.9 1.6 4.3 2.4 6.8 2.4 4.9 0 9.1-3.2 10-7.6l.1-.5c0-.3 0-.6-.2-.8s-.5-.4-.7-.4z" class="st6"/>
    <path d="M123 112.6l1 .2h.2c.5 0 .9-.4 1-.8l.1-.5c.6-2.9 3.4-5 6.9-5 2.1 0 4.1.8 5.6 2.4h-3c-.6 0-1 .5-1.1 1v1c0 .6.5 1 1.1 1h6.3c.3 0 .5-.1.7-.3.2-.2.3-.5.3-.7v-6.5c0-.3-.1-.5-.3-.7s-.5-.3-.7-.3h-1c-.3 0-.5.1-.7.3-.2.2-.3.5-.3.7v1.4c-1.9-1.6-4.3-2.4-6.8-2.4-4.9 0-9.1 3.2-10 7.6l-.1.5c-.1.3 0 .6.2.8.1.1.4.3.6.3z" class="st6"/>
  </g>
</svg>
