<svg xmlns="http://www.w3.org/2000/svg" width="278" height="40" fill="none" viewBox="0 0 278 40"><path fill="url(#a)" d="M34.245 8.384 30.239 6.09 21.095.854l-.284-.163a4.888 4.888 0 0 0-4.836 0l-.284.165L2.833 8.22l-.284.165A4.806 4.806 0 0 0 .13 12.543v15.382a4.81 4.81 0 0 0 2.418 4.158l13.146 7.529a2.025 2.025 0 0 0 2.755-.732 1.991 1.991 0 0 0-.738-2.733L4.854 28.784a1.372 1.372 0 0 1-.692-1.19V12.873c0-.491.265-.945.692-1.188l2.276-1.305 10.568-6.064a1.395 1.395 0 0 1 1.38 0l12.86 7.366c.426.244.69.697.69 1.187V27.6a1.373 1.373 0 0 1-.692 1.19l-4.35 2.491-2.197-3.31a10.337 10.337 0 0 0 3.483-7.735c0-5.736-4.703-10.403-10.486-10.403S7.899 14.5 7.899 20.236c0 5.736 4.704 10.402 10.487 10.402a10.498 10.498 0 0 0 3.54-.611l3.335 5.029c.052.077.109.15.17.22l.035.036c.07.076.147.146.23.21.019.015.037.032.059.047.09.066.185.123.284.174l.069.03c.088.04.18.073.273.1l.062.02c.106.028.214.045.323.053h.182c.061 0 .122-.007.182-.012h.084c.115-.016.228-.042.339-.077.03-.009.058-.022.088-.033.088-.032.173-.07.256-.114.018-.01.04-.015.058-.027l6.29-3.594a4.812 4.812 0 0 0 2.417-4.164V12.54a4.806 4.806 0 0 0-2.417-4.157ZM11.932 20.236a6.454 6.454 0 1 1 6.454 6.4 6.436 6.436 0 0 1-6.454-6.4Z"/><path fill="url(#b)" d="M34.245 8.384 30.239 6.09 21.095.854l-.284-.163a4.888 4.888 0 0 0-4.836 0l-.284.165L2.833 8.22l-.284.165A4.806 4.806 0 0 0 .13 12.543v15.382a4.81 4.81 0 0 0 2.418 4.158l13.146 7.529a2.025 2.025 0 0 0 2.755-.732 1.991 1.991 0 0 0-.738-2.733L4.854 28.784a1.372 1.372 0 0 1-.692-1.19V12.873c0-.491.265-.945.692-1.188l2.276-1.305 10.568-6.064a1.395 1.395 0 0 1 1.38 0l12.86 7.366c.426.244.69.697.69 1.187V27.6a1.373 1.373 0 0 1-.692 1.19l-4.35 2.491-2.197-3.31a10.337 10.337 0 0 0 3.483-7.735c0-5.736-4.703-10.403-10.486-10.403S7.899 14.5 7.899 20.236c0 5.736 4.704 10.402 10.487 10.402a10.498 10.498 0 0 0 3.54-.611l3.335 5.029c.052.077.109.15.17.22l.035.036c.07.076.147.146.23.21.019.015.037.032.059.047.09.066.185.123.284.174l.069.03c.088.04.18.073.273.1l.062.02c.106.028.214.045.323.053h.182c.061 0 .122-.007.182-.012h.084c.115-.016.228-.042.339-.077.03-.009.058-.022.088-.033.088-.032.173-.07.256-.114.018-.01.04-.015.058-.027l6.29-3.594a4.812 4.812 0 0 0 2.417-4.164V12.54a4.806 4.806 0 0 0-2.417-4.157ZM11.932 20.236a6.454 6.454 0 1 1 6.454 6.4 6.436 6.436 0 0 1-6.454-6.4Z"/><path fill="url(#c)" d="m34.242 8.383-4.005-2.294-5.587-3.197a4.308 4.308 0 0 0-4.16-.063l-2.795 1.485a1.395 1.395 0 0 1 1.38 0l12.862 7.366c.425.244.688.697.69 1.188v14.731c-.001.492-.266.946-.693 1.19l-4.35 2.491.678 1.086a2.845 2.845 0 0 0 3.827.954l2.153-1.232a4.796 4.796 0 0 0 2.418-4.164V12.54a4.793 4.793 0 0 0-2.418-4.157Z"/><path fill="url(#d)" d="M32.627 12.872v7.147h4.033V12.54a4.793 4.793 0 0 0-2.418-4.157l-4.005-2.294-5.587-3.197a4.308 4.308 0 0 0-4.16-.063l-2.795 1.485a1.4 1.4 0 0 1 1.38 0l12.862 7.366c.426.245.69.7.69 1.192Z"/><path fill="url(#e)" d="M32.627 21.172v6.43c0 .492-.265.946-.693 1.19l-4.35 2.49.678 1.086a2.845 2.845 0 0 0 3.827.954l2.154-1.231a4.796 4.796 0 0 0 2.417-4.165v-6.754h-4.033Z" opacity=".9"/><path fill="url(#f)" d="M27.276 30.813 25.39 27.97a10.5 10.5 0 0 1-3.464 2.056l2.007 3.028a88.816 88.816 0 0 0 3.344-2.24Z" opacity=".9"/><path fill="#000" d="M53.438 30.309V10.23h4.296l6.225 11.34 6.195-11.34h4.326v20.078h-4.326V17.8L63.96 29.14 57.734 17.8V30.31h-4.296Zm32.266.35c-4.501 0-8.271-3.624-8.271-7.92 0-4.296 3.77-7.89 8.27-7.89 4.472 0 8.213 3.594 8.213 7.89 0 4.296-3.74 7.92-8.212 7.92Zm0-3.594c2.25 0 4.15-1.988 4.15-4.326 0-2.338-1.9-4.296-4.15-4.296-2.28 0-4.18 1.958-4.18 4.296s1.9 4.326 4.18 4.326Zm10.218 3.244v-3.01l7.599-8.476h-7.394V15.2h12.946v3.01l-7.598 8.476h7.657v3.624h-13.21Zm18.151-17.185a2.326 2.326 0 0 1-2.338-2.338c0-1.198 1.023-2.28 2.338-2.28 1.257 0 2.28 1.082 2.28 2.28 0 1.286-1.023 2.338-2.28 2.338Zm-2.162 17.185v-15.11h4.267v15.11h-4.267Zm7.783 0V9.88h4.267V30.31h-4.267Zm7.782 0V9.88h4.267V30.31h-4.267Zm14.534-15.46c3.945 0 6.634 2.484 6.634 6.429v9.03h-4.121v-1.52c-1.081 1.228-2.805 1.871-4.442 1.871-3.215 0-5.699-1.929-5.699-4.822 0-2.98 2.777-5.027 6.284-5.027 1.227 0 2.571.263 3.857.76v-.292c0-1.607-.993-3.01-3.477-3.01-1.403 0-2.718.467-3.917 1.081l-1.432-2.835c2.134-1.081 4.209-1.665 6.313-1.665Zm-.964 12.859c1.636 0 3.185-.76 3.477-2.163v-1.403a9.557 9.557 0 0 0-3.244-.555c-1.549 0-2.776.906-2.776 2.133 0 1.228 1.081 1.988 2.543 1.988Zm19.612 2.6V10.232h2.951l7.044 13.122 7.043-13.122h2.952v20.078h-2.952V16.017l-7.043 13.123-7.044-13.123V30.31h-2.951Zm31.182.351c-4.325 0-7.978-3.624-7.978-7.92 0-4.296 3.653-7.89 7.978-7.89 4.296 0 7.92 3.594 7.92 7.89 0 4.296-3.624 7.92-7.92 7.92Zm0-2.513c2.718 0 5.027-2.455 5.027-5.407 0-2.922-2.309-5.377-5.027-5.377-2.776 0-5.085 2.455-5.085 5.377 0 2.952 2.309 5.407 5.085 5.407Zm18.365-13.298c3.332 0 5.67 2.426 5.67 5.845v9.616h-2.835V21.19c0-2.25-1.432-3.828-3.478-3.828-2.104 0-3.916 1.373-4.15 3.156v9.79h-2.893V15.2h2.893v2.192c.906-1.49 2.748-2.542 4.793-2.542Zm10.615-2.162a1.758 1.758 0 0 1-1.753-1.754c0-.906.759-1.724 1.753-1.724.935 0 1.724.818 1.724 1.724 0 .935-.789 1.754-1.724 1.754Zm-1.461 17.623v-15.11h2.893v15.11h-2.893Zm13.525-2.718 1.052 1.987a4.862 4.862 0 0 1-3.01 1.081c-2.338 0-3.975-1.695-3.975-4.12v-8.885h-2.28V15.2h2.28v-4.15h2.835v4.15h3.565v2.455h-3.565v8.68c0 1.052.701 1.812 1.549 1.812.643 0 1.227-.234 1.549-.555Zm10.535 3.068c-4.326 0-7.979-3.624-7.979-7.92 0-4.296 3.653-7.89 7.979-7.89 4.296 0 7.92 3.594 7.92 7.89 0 4.296-3.624 7.92-7.92 7.92Zm0-2.513c2.718 0 5.027-2.455 5.027-5.407 0-2.922-2.309-5.377-5.027-5.377-2.777 0-5.085 2.455-5.085 5.377 0 2.952 2.308 5.407 5.085 5.407Zm13.718-10.053c.965-1.988 3.01-3.245 5.612-3.245v2.514c-3.128 0-5.349 1.724-5.612 4.354v8.593h-2.893v-15.11h2.893v2.894Z"/><defs><linearGradient id="a" x1="25.726" x2="7.795" y1="5.128" y2="36.183" gradientUnits="userSpaceOnUse"><stop stop-color="#FF980E"/><stop offset=".21" stop-color="#FF7139"/><stop offset=".36" stop-color="#FF5854"/><stop offset=".46" stop-color="#FF4F5E"/><stop offset=".69" stop-color="#FF3750"/><stop offset=".86" stop-color="#F92261"/><stop offset="1" stop-color="#F5156C"/></linearGradient><linearGradient id="b" x1="25.726" x2="7.795" y1="5.128" y2="36.183" gradientUnits="userSpaceOnUse"><stop stop-color="#FFF44F" stop-opacity=".8"/><stop offset=".09" stop-color="#FFF44F" stop-opacity=".7"/><stop offset=".75" stop-color="#FFF44F" stop-opacity="0"/></linearGradient><linearGradient id="c" x1="27.178" x2="27.178" y1="41.18" y2="2.704" gradientUnits="userSpaceOnUse"><stop stop-color="#3A8EE6"/><stop offset=".24" stop-color="#5C79F0"/><stop offset=".63" stop-color="#9059FF"/><stop offset="1" stop-color="#C139E6"/></linearGradient><linearGradient id="d" x1="20.637" x2="36.627" y1="2.564" y2="18.555" gradientUnits="userSpaceOnUse"><stop stop-color="#6E008B" stop-opacity=".5"/><stop offset=".5" stop-color="#C846CB" stop-opacity="0"/></linearGradient><linearGradient id="e" x1="35.121" x2="27.612" y1="22.348" y2="29.857" gradientUnits="userSpaceOnUse"><stop offset=".14" stop-color="#6A2BEA" stop-opacity="0"/><stop offset=".34" stop-color="#642DE4" stop-opacity=".03"/><stop offset=".55" stop-color="#5131D3" stop-opacity=".12"/><stop offset=".76" stop-color="#3139B7" stop-opacity=".27"/><stop offset=".98" stop-color="#054490" stop-opacity=".48"/><stop offset="1" stop-color="#00458B" stop-opacity=".5"/></linearGradient><linearGradient id="f" x1="23.076" x2="25.253" y1="28.803" y2="31.399" gradientUnits="userSpaceOnUse"><stop stop-color="#960E18" stop-opacity=".6"/><stop offset=".19" stop-color="#AC1624" stop-opacity=".48"/><stop offset=".58" stop-color="#E42C41" stop-opacity=".16"/><stop offset=".75" stop-color="#FF3750" stop-opacity="0"/></linearGradient></defs></svg>
