<svg xmlns="http://www.w3.org/2000/svg" viewBox="0 0 448 40"><g id="Layer_2" data-name="Layer 2"><g id="Layer_1-2" data-name="Layer 1"><circle cx="2" cy="2" r="2"/><circle cx="14" cy="2" r="2"/><circle cx="26" cy="2" r="2"/><circle cx="38" cy="2" r="2"/><circle cx="50" cy="2" r="2"/><circle cx="62" cy="2" r="2"/><circle cx="74" cy="2" r="2"/><circle cx="86" cy="2" r="2"/><circle cx="98" cy="2" r="2"/><circle cx="110" cy="2" r="2"/><circle cx="122" cy="2" r="2"/><circle cx="134" cy="2" r="2"/><circle cx="146" cy="2" r="2"/><circle cx="158" cy="2" r="2"/><circle cx="170" cy="2" r="2"/><circle cx="182" cy="2" r="2"/><circle cx="194" cy="2" r="2"/><circle cx="206" cy="2" r="2"/><circle cx="218" cy="2" r="2"/><circle cx="230" cy="2" r="2"/><circle cx="242" cy="2" r="2"/><circle cx="254" cy="2" r="2"/><circle cx="266" cy="2" r="2"/><circle cx="278" cy="2" r="2"/><circle cx="290" cy="2" r="2"/><circle cx="302" cy="2" r="2"/><circle cx="314" cy="2" r="2"/><circle cx="326" cy="2" r="2"/><circle cx="338" cy="2" r="2"/><circle cx="350" cy="2" r="2"/><circle cx="362" cy="2" r="2"/><circle cx="374" cy="2" r="2"/><circle cx="386" cy="2" r="2"/><circle cx="398" cy="2" r="2"/><circle cx="410" cy="2" r="2"/><circle cx="422" cy="2" r="2"/><circle cx="434" cy="2" r="2"/><circle cx="446" cy="2" r="2"/><circle cx="2" cy="14" r="2"/><circle cx="14" cy="14" r="2"/><circle cx="26" cy="14" r="2"/><circle cx="38" cy="14" r="2"/><circle cx="50" cy="14" r="2"/><circle cx="62" cy="14" r="2"/><circle cx="74" cy="14" r="2"/><circle cx="86" cy="14" r="2"/><circle cx="98" cy="14" r="2"/><circle cx="110" cy="14" r="2"/><circle cx="122" cy="14" r="2"/><circle cx="134" cy="14" r="2"/><circle cx="146" cy="14" r="2"/><circle cx="158" cy="14" r="2"/><circle cx="170" cy="14" r="2"/><circle cx="182" cy="14" r="2"/><circle cx="194" cy="14" r="2"/><circle cx="206" cy="14" r="2"/><circle cx="218" cy="14" r="2"/><circle cx="230" cy="14" r="2"/><circle cx="242" cy="14" r="2"/><circle cx="254" cy="14" r="2"/><circle cx="266" cy="14" r="2"/><circle cx="278" cy="14" r="2"/><circle cx="290" cy="14" r="2"/><circle cx="302" cy="14" r="2"/><circle cx="314" cy="14" r="2"/><circle cx="326" cy="14" r="2"/><circle cx="338" cy="14" r="2"/><circle cx="350" cy="14" r="2"/><circle cx="362" cy="14" r="2"/><circle cx="374" cy="14" r="2"/><circle cx="386" cy="14" r="2"/><circle cx="398" cy="14" r="2"/><circle cx="410" cy="14" r="2"/><circle cx="422" cy="14" r="2"/><circle cx="434" cy="14" r="2"/><circle cx="446" cy="14" r="2"/><circle cx="2" cy="26" r="2"/><circle cx="14" cy="26" r="2"/><circle cx="26" cy="26" r="2"/><circle cx="38" cy="26" r="2"/><circle cx="50" cy="26" r="2"/><circle cx="62" cy="26" r="2"/><circle cx="74" cy="26" r="2"/><circle cx="86" cy="26" r="2"/><circle cx="98" cy="26" r="2"/><circle cx="110" cy="26" r="2"/><circle cx="122" cy="26" r="2"/><circle cx="134" cy="26" r="2"/><circle cx="146" cy="26" r="2"/><circle cx="158" cy="26" r="2"/><circle cx="170" cy="26" r="2"/><circle cx="182" cy="26" r="2"/><circle cx="194" cy="26" r="2"/><circle cx="206" cy="26" r="2"/><circle cx="218" cy="26" r="2"/><circle cx="230" cy="26" r="2"/><circle cx="242" cy="26" r="2"/><circle cx="254" cy="26" r="2"/><circle cx="266" cy="26" r="2"/><circle cx="278" cy="26" r="2"/><circle cx="290" cy="26" r="2"/><circle cx="302" cy="26" r="2"/><circle cx="314" cy="26" r="2"/><circle cx="326" cy="26" r="2"/><circle cx="338" cy="26" r="2"/><circle cx="350" cy="26" r="2"/><circle cx="362" cy="26" r="2"/><circle cx="374" cy="26" r="2"/><circle cx="386" cy="26" r="2"/><circle cx="398" cy="26" r="2"/><circle cx="410" cy="26" r="2"/><circle cx="422" cy="26" r="2"/><circle cx="434" cy="26" r="2"/><circle cx="446" cy="26" r="2"/><circle cx="2" cy="38" r="2"/><circle cx="14" cy="38" r="2"/><circle cx="26" cy="38" r="2"/><circle cx="38" cy="38" r="2"/><circle cx="50" cy="38" r="2"/><circle cx="62" cy="38" r="2"/><circle cx="74" cy="38" r="2"/><circle cx="86" cy="38" r="2"/><circle cx="98" cy="38" r="2"/><circle cx="110" cy="38" r="2"/><circle cx="122" cy="38" r="2"/><circle cx="134" cy="38" r="2"/><circle cx="146" cy="38" r="2"/><circle cx="158" cy="38" r="2"/><circle cx="170" cy="38" r="2"/><circle cx="182" cy="38" r="2"/><circle cx="194" cy="38" r="2"/><circle cx="206" cy="38" r="2"/><circle cx="218" cy="38" r="2"/><circle cx="230" cy="38" r="2"/><circle cx="242" cy="38" r="2"/><circle cx="254" cy="38" r="2"/><circle cx="266" cy="38" r="2"/><circle cx="278" cy="38" r="2"/><circle cx="290" cy="38" r="2"/><circle cx="302" cy="38" r="2"/><circle cx="314" cy="38" r="2"/><circle cx="326" cy="38" r="2"/><circle cx="338" cy="38" r="2"/><circle cx="350" cy="38" r="2"/><circle cx="362" cy="38" r="2"/><circle cx="374" cy="38" r="2"/><circle cx="386" cy="38" r="2"/><circle cx="398" cy="38" r="2"/><circle cx="410" cy="38" r="2"/><circle cx="422" cy="38" r="2"/><circle cx="434" cy="38" r="2"/><circle cx="446" cy="38" r="2"/></g></g></svg>
