<svg width="394" height="623" viewBox="0 0 394 623" fill="none" xmlns="http://www.w3.org/2000/svg">
<rect y="205" width="26" height="26" fill="#54FFBD"/>
<rect x="65" y="179" width="26" height="26" fill="#54FFBD"/>
<rect x="65" y="205" width="26" height="26" fill="#54FFBD"/>
<rect x="91" y="179" width="26" height="26" fill="#54FFBD"/>
<rect x="316" y="166" width="26" height="26" fill="#54FFBD"/>
<rect x="237" y="166" width="26" height="26" fill="#54FFBD"/>
<rect x="288" y="91" width="26" height="26" fill="#54FFBD"/>
<rect x="316" y="387" width="26" height="27" fill="black"/>
<rect x="342" y="414" width="26" height="26" fill="#54FFBD"/>
<rect x="262" y="443" width="26" height="26" fill="#54FFBD"/>
<rect x="342" y="469" width="26" height="26" fill="#54FFBD"/>
<rect x="368" y="469" width="26" height="26" fill="#54FFBD"/>
<rect x="317" y="545" width="26" height="26" fill="#54FFBD"/>
<rect x="368" y="519" width="26" height="26" fill="#54FFBD"/>
<rect x="316" y="140" width="26" height="26" fill="#5A61EF"/>
<rect x="91" y="313" width="26" height="26" fill="#54FFBD"/>
<rect x="124" y="339" width="26" height="26" fill="#54FFBD"/>
<rect x="290" y="254" width="26" height="26" fill="#5A61EF"/>
<rect x="316" y="313" width="26" height="26" fill="#5A61EF"/>
<rect x="342" y="287" width="26" height="26" fill="#5A61EF"/>
<rect x="368" y="313" width="26" height="26" fill="#54FFBD"/>
<rect x="290" y="469" width="26" height="26" fill="#54FFBD"/>
<rect x="291" y="519" width="26" height="26" fill="#54FFBD"/>
<rect x="317" y="519" width="26" height="26" fill="#5A61EF"/>
<rect x="368" y="545" width="26" height="26" fill="#54FFBD"/>
<rect x="368" y="597" width="26" height="26" fill="#54FFBD"/>
<rect x="368" y="339" width="26" height="26" fill="#5A61EF"/>
<rect x="368" y="134" width="26" height="26" fill="#5A61EF"/>
<rect x="368" y="26" width="26" height="26" fill="black"/>
<rect x="342" width="26" height="26" fill="#54FFBD"/>
</svg>
