<svg width="659" height="551" viewBox="0 0 659 551" fill="none" xmlns="http://www.w3.org/2000/svg">
<rect y="342.881" width="43.4874" height="43.4874" fill="#54FFBD"/>
<rect x="108.717" y="299.394" width="43.4874" height="43.4874" fill="#54FFBD"/>
<rect x="108.717" y="342.881" width="43.4874" height="43.4874" fill="#54FFBD"/>
<rect x="152.205" y="299.394" width="43.4874" height="43.4874" fill="#54FFBD"/>
<rect x="528.539" y="277.65" width="43.4874" height="43.4874" fill="#54FFBD"/>
<rect x="396.404" y="277.65" width="43.4874" height="43.4874" fill="#54FFBD"/>
<rect x="481.705" y="152.205" width="43.4874" height="43.4874" fill="#54FFBD"/>
<rect x="440" y="420" width="43.4874" height="45.1599" fill="black"/>
<rect x="483.488" y="465.16" width="43.4874" height="43.4874" fill="#54FFBD"/>
<rect x="222" y="109" width="43.4874" height="43.4874" fill="#54FFBD"/>
<rect x="265.486" y="109" width="43.4874" height="43.4874" fill="#54FFBD"/>
<rect x="352.488" y="234.487" width="43.4874" height="43.4874" fill="#54FFBD"/>
<rect x="528.539" y="234.162" width="43.4874" height="43.4874" fill="#5A61EF"/>
<rect x="152" y="464" width="43.4874" height="43.4874" fill="#54FFBD"/>
<rect x="207.195" y="507.487" width="43.4874" height="43.4874" fill="#54FFBD"/>
<rect x="485.051" y="321" width="43.4874" height="43.4874" fill="#5A61EF"/>
<rect x="528.539" y="419.684" width="43.4874" height="43.4874" fill="#5A61EF"/>
<rect x="572.027" y="376.195" width="43.4874" height="43.4874" fill="#5A61EF"/>
<rect x="615.514" y="419.684" width="43.4874" height="43.4874" fill="#54FFBD"/>
<rect x="309" y="191" width="43.4874" height="43.4874" fill="#54FFBD"/>
<rect x="352.488" y="191" width="43.4874" height="43.4874" fill="#5A61EF"/>
<rect x="109" y="43" width="43.4874" height="43.4874" fill="#54FFBD"/>
<rect x="615.514" y="463.17" width="43.4874" height="43.4874" fill="#5A61EF"/>
<rect x="615.514" y="224.127" width="43.4874" height="43.4874" fill="#5A61EF"/>
<rect x="615.514" y="43.4873" width="43.4874" height="43.4874" fill="black"/>
<rect x="572.027" width="43.4874" height="43.4874" fill="#54FFBD"/>
</svg>
