<svg width="32" height="32" fill="none" xmlns="http://www.w3.org/2000/svg"><path d="M28.765 3.235H3.235a3.2 3.2 0 0 0-3.2 3.2v19.14a3.2 3.2 0 0 0 3.2 3.2h25.53a3.2 3.2 0 0 0 3.2-3.2V6.424a3.2 3.2 0 0 0-3.2-3.19Zm-25.53 1.28h25.53a1.92 1.92 0 0 1 1.92 1.92v.762l-.039.019L16 17.446 1.443 7.248a.608.608 0 0 0-.118-.064v-.758a1.92 1.92 0 0 1 1.91-1.91Zm25.53 22.97H3.235a1.92 1.92 0 0 1-1.92-1.92V8.726l14.33 10.026a.64.64 0 0 0 .355.128.64.64 0 0 0 .365-.115l14.31-10.023v16.832a1.92 1.92 0 0 1-1.91 1.91Z" fill="#000"/></svg>
