<svg width="32" height="32" fill="none" xmlns="http://www.w3.org/2000/svg"><path fill-rule="evenodd" clip-rule="evenodd" d="M32 16c0 8.837-7.163 16-16 16S0 24.837 0 16 7.163 0 16 0s16 7.163 16 16Zm-15.427-4.188c-1.556.647-4.666 1.987-9.33 4.02-.758.3-1.155.595-1.19.883-.062.487.548.679 1.378.94l.35.111c.817.266 1.916.576 2.487.589.519.01 1.097-.203 1.736-.641 4.357-2.942 6.607-4.429 6.748-4.461.1-.023.238-.051.332.032.093.083.084.24.074.283-.06.258-2.454 2.483-3.693 3.634-.386.36-.66.614-.716.672-.125.13-.253.254-.376.372-.759.732-1.328 1.28.032 2.176.653.431 1.176.787 1.698 1.142.57.388 1.137.775 1.872 1.257.188.123.367.25.54.374.664.473 1.26.898 1.995.83.428-.04.87-.441 1.093-1.64.53-2.834 1.572-8.974 1.813-11.504a2.822 2.822 0 0 0-.026-.63.674.674 0 0 0-.228-.433c-.192-.155-.488-.188-.62-.186-.602.01-1.525.332-5.969 2.18Z" fill="#000"/></svg>
