<svg width="32" height="32" fill="none" xmlns="http://www.w3.org/2000/svg"><path d="m0 32 2.269-8.21a15.766 15.766 0 0 1-2.123-7.919C.13 7.113 7.276 0 16.056 0c4.262 0 8.264 1.645 11.277 4.645a15.757 15.757 0 0 1 3.464 5.148A15.699 15.699 0 0 1 32 15.87c0 8.742-7.145 15.855-15.927 15.855-2.674 0-5.282-.662-7.616-1.935L0 32Zm8.83-5.064.487.29a13.298 13.298 0 0 0 6.74 1.839c7.29 0 13.237-5.92 13.237-13.178 0-3.516-1.377-6.838-3.872-9.322a13.194 13.194 0 0 0-4.294-2.867 13.243 13.243 0 0 0-5.072-1.005c-7.307.001-13.252 5.92-13.252 13.18 0 2.483.697 4.919 2.026 7.016l.308.5-1.345 4.87 5.039-1.322-.001-.001Z" fill="#000"/><path fill-rule="evenodd" clip-rule="evenodd" d="M12.087 9.227c-.292-.662-.615-.678-.89-.678-.244-.016-.504-.016-.78-.016a1.48 1.48 0 0 0-1.068.5c-.373.403-1.393 1.354-1.393 3.306s1.425 3.839 1.62 4.097c.194.258 2.754 4.386 6.805 5.984 3.37 1.322 4.05 1.064 4.78.983.728-.08 2.35-.951 2.69-1.887.323-.919.323-1.725.226-1.887-.097-.16-.373-.258-.762-.468-.405-.193-2.349-1.16-2.721-1.29-.373-.129-.633-.193-.892.194-.26.403-1.02 1.29-1.263 1.548-.228.258-.47.29-.86.096-.404-.192-1.684-.612-3.207-1.967-1.183-1.05-1.977-2.355-2.22-2.741-.226-.404-.033-.614.178-.808.179-.176.406-.467.6-.692.194-.227.259-.404.405-.662.129-.258.064-.5-.033-.693-.097-.178-.858-2.13-1.215-2.92Z" fill="#000"/></svg>
