<svg xmlns="http://www.w3.org/2000/svg" width="450" height="294" fill="none" viewBox="0 0 450 294"><path fill="#5D42D1" d="M429.327 141.942h-59.269a12.158 12.158 0 0 1 4.168-7.2 12.182 12.182 0 0 1 7.826-2.839h.467a17.552 17.552 0 0 1 17.231-8.811 17.549 17.549 0 0 1 14.863 12.389 8.778 8.778 0 0 1 13.285 1.652 8.758 8.758 0 0 1 1.429 4.793v.016Z"/><path fill="#fff" fill-rule="evenodd" d="M185.99 21.174c-4.949 4.053-8.495 8.128-9.621 11.314l-1.223-.431c1.253-3.543 5.044-7.808 10.022-11.885 5.006-4.1 11.312-8.09 17.732-11.06 6.409-2.964 12.99-4.939 18.534-4.949 5.568-.01 10.205 1.977 12.426 7.038 2.597 5.913.141 12.132-3.595 17.64-2.82 4.159-6.469 8.053-9.47 11.255-.981 1.047-1.893 2.02-2.683 2.904a139.07 139.07 0 0 1-1.663 1.81c-2.436 2.625-5.886 6.344-8.528 10.26-1.664 2.466-2.969 4.957-3.502 7.252-.529 2.279-.286 4.299 1.053 5.944h.001c1.764 2.175 4.871 3.039 7.814 2.772 2.949-.266 5.737-1.501 8.537-2.808h.001c2.213-1.032 4.466-2.276 6.782-3.554l.865-.477c2.612-1.439 5.3-2.89 8.047-4.067 5.498-2.355 11.319-3.65 17.402-1.539l-.426 1.224c-5.643-1.96-11.101-.792-16.465 1.506-2.682 1.149-5.32 2.571-7.932 4.01l-.864.477c-2.311 1.276-4.605 2.542-6.861 3.594-2.782 1.298-5.764 2.635-8.969 2.925-3.209.29-6.812-.627-8.938-3.246-1.667-2.048-1.899-4.519-1.31-7.054.585-2.52 1.99-5.164 3.689-7.683 2.707-4.011 6.257-7.836 8.69-10.457.62-.668 1.167-1.258 1.61-1.752.826-.923 1.762-1.923 2.761-2.989 2.989-3.19 6.529-6.968 9.285-11.033 3.684-5.432 5.793-11.13 3.482-16.393-1.944-4.431-5.984-6.273-11.237-6.263-5.276.01-11.659 1.9-17.991 4.83-6.321 2.923-12.534 6.854-17.455 10.885ZM143.206 29.076c-8.024.805-14.012 6.308-17.058 12.106-1.529 2.91-2.531 5.967-3.515 9.088l-.203.645c-.912 2.9-1.84 5.85-3.187 8.703-2.91 6.157-8.569 12.256-16.974 13.794-11.544 2.11-20.066-3.227-28.289-8.855-.474-.325-.948-.65-1.42-.976-7.778-5.35-15.418-10.605-25.445-10.374-4.57.106-9.051 1.504-12.695 3.712-3.65 2.212-6.411 5.204-7.615 8.463l-1.216-.449c1.332-3.607 4.334-6.805 8.158-9.122 3.83-2.32 8.532-3.788 13.338-3.9 10.462-.24 18.434 5.249 26.14 10.555l1.488 1.022c8.231 5.634 16.35 10.656 27.323 8.65 7.875-1.442 13.245-7.17 16.034-13.074 1.308-2.768 2.211-5.638 3.128-8.554l.198-.629c.983-3.117 2.015-6.276 3.604-9.301 3.192-6.075 9.51-11.933 18.077-12.793l.129 1.29Z" clip-rule="evenodd"/><path fill="#fff" fill-rule="evenodd" d="M319.313 22.599c-42.233 0-76.47 34.204-76.47 76.396s34.237 76.396 76.47 76.396c42.234 0 76.471-34.204 76.471-76.396 0-42.193-34.237-76.396-76.471-76.396Zm-77.767 76.396c0-42.908 34.818-77.692 77.767-77.692 42.95 0 77.768 34.784 77.768 77.692 0 42.908-34.818 77.691-77.768 77.691-42.949 0-77.767-34.783-77.767-77.691Z" clip-rule="evenodd"/><path fill="#C3C5FF" d="M319.314 165.714c36.883 0 66.784-29.871 66.784-66.72 0-36.847-29.901-66.718-66.784-66.718-36.884 0-66.785 29.87-66.785 66.719 0 36.848 29.901 66.719 66.785 66.719Z"/><path fill="#C2C6FF" fill-rule="evenodd" d="M319.313 32.438c-36.794 0-66.622 29.798-66.622 66.557 0 36.758 29.828 66.557 66.622 66.557 36.795 0 66.623-29.799 66.623-66.557 0-36.759-29.828-66.557-66.623-66.557Zm-66.946 66.557c0-36.937 29.973-66.881 66.946-66.881 36.974 0 66.947 29.944 66.947 66.88 0 36.938-29.973 66.882-66.947 66.882-36.973 0-66.946-29.944-66.946-66.881Z" clip-rule="evenodd" style="mix-blend-mode:multiply"/><path fill="#fff" fill-rule="evenodd" d="M299.278 25.158c-18.093 17.39-29.7 44.005-29.7 73.853 0 29.848 11.597 56.456 29.7 73.85l-.899.934c-18.374-17.655-30.098-44.608-30.098-74.784 0-30.176 11.734-57.135 30.098-74.787l.899.934ZM369.046 98.991c0-29.851-11.594-56.459-29.7-73.85l.899-.933c18.377 17.651 30.098 44.604 30.098 74.783 0 30.18-11.734 57.133-30.098 74.787l-.899-.933c18.093-17.394 29.7-44.002 29.7-73.854Z" clip-rule="evenodd"/><path fill="#fff" fill-rule="evenodd" d="M396.429 99.643H242.194v-1.296h154.235v1.296Z" clip-rule="evenodd"/><path fill="#fff" fill-rule="evenodd" d="M318.665 176.038V21.951h1.297v154.087h-1.297Z" clip-rule="evenodd"/><path fill="#AD79FF" d="M369.072 45.441c4.766 0 8.63-3.86 8.63-8.621 0-4.761-3.864-8.621-8.63-8.621-4.766 0-8.63 3.86-8.63 8.621 0 4.761 3.864 8.621 8.63 8.621Z"/><path fill="#000" fill-rule="evenodd" d="M369.072 28.846c-4.408 0-7.981 3.57-7.981 7.974s3.573 7.974 7.981 7.974c4.408 0 7.981-3.57 7.981-7.974s-3.573-7.974-7.981-7.974Zm-9.278 7.974c0-5.12 4.154-9.269 9.278-9.269 5.124 0 9.278 4.15 9.278 9.269 0 5.12-4.154 9.269-9.278 9.269-5.124 0-9.278-4.15-9.278-9.269Z" clip-rule="evenodd"/><path fill="#6F4AE7" d="M369.072 107.619c4.766 0 8.63-3.86 8.63-8.621 0-4.761-3.864-8.621-8.63-8.621-4.766 0-8.63 3.86-8.63 8.62 0 4.762 3.864 8.622 8.63 8.622Z"/><path fill="#000" fill-rule="evenodd" d="M369.072 91.025c-4.408 0-7.981 3.57-7.981 7.973 0 4.404 3.573 7.973 7.981 7.973 4.408 0 7.981-3.569 7.981-7.973s-3.573-7.974-7.981-7.974Zm-9.278 7.973c0-5.12 4.154-9.269 9.278-9.269 5.124 0 9.278 4.15 9.278 9.269s-4.154 9.269-9.278 9.269c-5.124 0-9.278-4.15-9.278-9.269Z" clip-rule="evenodd"/><path fill="#6F4AE7" d="M303.938 36.774a20.038 20.038 0 0 1-3.314 11.485l-.158.236-14.287 21.323a2.855 2.855 0 0 1-2.378 1.27 2.862 2.862 0 0 1-2.378-1.27l-14.299-21.32-.159-.24a20.098 20.098 0 0 1-2.146-17.843 20.122 20.122 0 0 1 12.983-12.44 20.162 20.162 0 0 1 17.756 2.888 20.122 20.122 0 0 1 8.363 15.911h.017Z"/><path fill="#000" fill-rule="evenodd" d="M286.916 17.968a19.51 19.51 0 0 0-16.624 5.166 19.467 19.467 0 0 0-5.861 16.378 19.456 19.456 0 0 0 3.075 8.39l.156.236.002.003 14.298 21.317a2.21 2.21 0 0 0 2.882.722c.32-.172.594-.42.796-.722l14.443-21.556.002-.002a19.397 19.397 0 0 0 3.207-10.97.67.67 0 0 1-.019-.142 19.475 19.475 0 0 0-8.094-15.4 19.505 19.505 0 0 0-8.263-3.42Zm-9.307-.611a20.814 20.814 0 0 1 18.328 2.98 20.778 20.778 0 0 1 8.629 16.278.635.635 0 0 1 .02.145 20.688 20.688 0 0 1-3.42 11.855l-.003.005-14.445 21.558a3.501 3.501 0 0 1-2.917 1.558 3.511 3.511 0 0 1-2.917-1.558l-14.299-21.32-.002-.002-.16-.241a20.754 20.754 0 0 1 2.971-26.416 20.795 20.795 0 0 1 8.215-4.842Z" clip-rule="evenodd"/><path fill="#2B2A33" d="M291.166 39.073a7.61 7.61 0 0 0-5.494-9.258c-4.076-1.041-8.226 1.416-9.268 5.488a7.61 7.61 0 0 0 5.494 9.259c4.077 1.041 8.226-1.416 9.268-5.489Z"/><path fill="#C3C5FF" d="M126.621 208.447H27.86a20.269 20.269 0 0 1 6.948-11.987 20.304 20.304 0 0 1 13.031-4.73h.778a29.222 29.222 0 0 1 12.146-11.67 29.264 29.264 0 0 1 32.073 3.577 29.216 29.216 0 0 1 9.271 14.058 14.62 14.62 0 0 1 15.77-2.635 14.593 14.593 0 0 1 8.747 13.371l-.003.016Z"/><path fill="#C2C6FF" fill-rule="evenodd" d="M77.32 177.188a29.093 29.093 0 0 0-16.483 3.017 29.057 29.057 0 0 0-12.079 11.604.162.162 0 0 1-.14.083h-.779a20.134 20.134 0 0 0-12.927 4.693 20.101 20.101 0 0 0-6.858 11.701h98.408a14.427 14.427 0 0 0-2.354-7.753 14.466 14.466 0 0 0-21.892-2.719.16.16 0 0 1-.152.037.161.161 0 0 1-.113-.109 29.04 29.04 0 0 0-9.22-13.98 29.09 29.09 0 0 0-15.41-6.574Zm-16.631 2.728a29.426 29.426 0 0 1 32.25 3.597 29.366 29.366 0 0 1 9.248 13.891 14.782 14.782 0 0 1 15.755-2.493 14.771 14.771 0 0 1 6.437 5.445 14.747 14.747 0 0 1 2.407 8.075.166.166 0 0 1-.003.032l-.003.016a.162.162 0 0 1-.159.13H27.86a.164.164 0 0 1-.124-.057.164.164 0 0 1-.036-.133 20.43 20.43 0 0 1 7.003-12.083 20.463 20.463 0 0 1 13.136-4.768h.683a29.39 29.39 0 0 1 12.167-11.652Z" clip-rule="evenodd" style="mix-blend-mode:multiply"/><path fill="#fff" fill-rule="evenodd" d="M50.057 185.362a28.604 28.604 0 0 0-16.205 2.956 28.57 28.57 0 0 0-11.882 11.399.65.65 0 0 1-.564.329h-.778a19.658 19.658 0 0 0-12.616 4.58 19.622 19.622 0 0 0-6.574 10.843h97.304a13.945 13.945 0 0 0-2.26-6.975 13.964 13.964 0 0 0-6.086-5.145 13.973 13.973 0 0 0-15.072 2.518.65.65 0 0 1-1.06-.292 28.561 28.561 0 0 0-9.06-13.745 28.598 28.598 0 0 0-15.146-6.468Zm49.237 31.402a.649.649 0 0 0 .652-.279l.007-.01a.645.645 0 0 0 .101-.453 15.234 15.234 0 0 0-2.488-8.237 15.266 15.266 0 0 0-15.294-6.696 15.262 15.262 0 0 0-7.065 3.17 29.854 29.854 0 0 0-9.17-13.423 29.901 29.901 0 0 0-45.007 7.915h-.402a20.951 20.951 0 0 0-13.448 4.882 20.911 20.911 0 0 0-7.17 12.37.646.646 0 0 0 .638.761h98.646Z" clip-rule="evenodd"/><path fill="#C3C5FB" d="M88.316 128.405c8.095 0 14.656-6.556 14.656-14.642 0-8.087-6.561-14.642-14.656-14.642-8.094 0-14.656 6.555-14.656 14.642 0 8.086 6.562 14.642 14.656 14.642Z"/><path fill="#C2C6FB" fill-rule="evenodd" d="M88.316 99.242c-8.027 0-14.534 6.501-14.534 14.521 0 8.019 6.507 14.52 14.534 14.52 8.028 0 14.535-6.501 14.535-14.52 0-8.02-6.507-14.52-14.535-14.52ZM73.54 113.763c0-8.154 6.616-14.764 14.777-14.764 8.162 0 14.778 6.61 14.778 14.764 0 8.153-6.616 14.763-14.778 14.763-8.161 0-14.777-6.61-14.777-14.763Z" clip-rule="evenodd"/><path fill="#000" d="M87.496 106.418a.994.994 0 0 1 1.64 0 2.264 2.264 0 0 0-1.64 0Z"/><path fill="#C2C6FB" fill-rule="evenodd" d="m87.496 106.418.044.113a2.154 2.154 0 0 1 1.552 0l.365.141-.22-.323a1.122 1.122 0 0 0-.92-.486 1.112 1.112 0 0 0-.921.486l.1.069Zm.82-.312a.853.853 0 0 0-.312.058c.207-.028.417-.028.624 0a.853.853 0 0 0-.312-.058Z" clip-rule="evenodd"/><path fill="#000" d="m82.426 111.47 4.944-4.939a.972.972 0 0 1 .126-.104 2.275 2.275 0 0 1 1.64 0c.046.03.088.065.127.104l4.944 4.939a.987.987 0 0 1-.698 1.688.992.992 0 0 1-.7-.289l-3.504-3.501v11.196a.986.986 0 0 1-.989.988.987.987 0 0 1-.989-.988v-11.206l-3.5 3.501a.989.989 0 1 1-1.401-1.399v.01Z"/><path fill="#C2C6FB" fill-rule="evenodd" d="M87.553 106.536a.821.821 0 0 0-.098.081v.001l-5.016 5.01a.869.869 0 0 0 1.301 1.146l3.709-3.709v11.499a.867.867 0 0 0 1.734 0v-11.489l3.712 3.708a.87.87 0 0 0 1.48-.614.867.867 0 0 0-.254-.613l-4.944-4.939-.001-.001a.727.727 0 0 0-.096-.08 2.147 2.147 0 0 0-1.527 0Zm-5.006 4.641 4.737-4.733c.045-.043.092-.082.143-.117l.012-.008.013-.005a2.396 2.396 0 0 1 1.728 0l.012.005.011.007a.91.91 0 0 1 .146.12l4.943 4.938a1.109 1.109 0 0 1-.783 1.895 1.108 1.108 0 0 1-.786-.324l-3.297-3.294v10.903a1.108 1.108 0 0 1-1.11 1.109 1.11 1.11 0 0 1-1.11-1.109v-10.912l-3.294 3.293a1.11 1.11 0 0 1-1.898-.785c0-.295.117-.577.326-.786l.207-.207v.01Z" clip-rule="evenodd"/><path fill="#fff" d="M50.03 157.235a.548.548 0 0 1-.547-.544v-4.949a.55.55 0 0 1 .546-.589.552.552 0 0 1 .517.367.548.548 0 0 1 .03.222v4.949a.545.545 0 0 1-.546.544Z"/><path fill="#fff" fill-rule="evenodd" d="M50.029 151.477a.226.226 0 0 0-.164.071.232.232 0 0 0-.06.169l.002.013v4.96a.222.222 0 0 0 .38.157.223.223 0 0 0 .064-.156v-4.974a.22.22 0 0 0-.058-.169.224.224 0 0 0-.164-.071Zm-.35-.575a.874.874 0 0 1 1.173.512.868.868 0 0 1 .047.339v4.938a.869.869 0 0 1-1.483.615.873.873 0 0 1-.258-.613V151.753a.867.867 0 0 1 .522-.851Z" clip-rule="evenodd"/><path fill="#fff" d="M53.052 154.22a.542.542 0 0 1-.545.544h-4.953a.542.542 0 0 1-.415-.144.544.544 0 0 1 0-.803.54.54 0 0 1 .415-.144h4.963a.544.544 0 0 1 .535.547Z"/><path fill="#fff" fill-rule="evenodd" d="M47.529 153.996a.216.216 0 0 0-.17.058.23.23 0 0 0-.071.164.225.225 0 0 0 .072.164.221.221 0 0 0 .169.059l.012-.001h4.966a.222.222 0 0 0 .22-.22.222.222 0 0 0-.063-.156.229.229 0 0 0-.152-.068H47.53Zm.036-.647a.872.872 0 1 0 0 1.739h4.942a.881.881 0 0 0 .615-.254.876.876 0 0 0 .254-.614m-5.811-.871h4.96a.87.87 0 0 1 .851.871" clip-rule="evenodd"/><path fill="#fff" d="M387.154 268.543a.547.547 0 0 1-.544-.547v-4.958a.546.546 0 0 1 .918-.36.542.542 0 0 1 .174.36v4.948a.537.537 0 0 1-.157.394.535.535 0 0 1-.391.163Z"/><path fill="#fff" fill-rule="evenodd" d="M387.156 262.856a.22.22 0 0 0-.152.06.22.22 0 0 0-.07.137v4.943a.223.223 0 0 0 .221.223.227.227 0 0 0 .159-.066.235.235 0 0 0 .048-.074.217.217 0 0 0 .016-.087v-4.939a.22.22 0 0 0-.07-.137.22.22 0 0 0-.152-.06Zm-.592-.416a.871.871 0 0 1 1.462.573l.001.012v4.959a.886.886 0 0 1-.25.623.874.874 0 0 1-.623.26h-.001a.874.874 0 0 1-.867-.871v-4.971l.001-.012a.866.866 0 0 1 .277-.573Z" clip-rule="evenodd"/><path fill="#fff" d="M390.179 265.509a.547.547 0 0 1-.548.547h-4.953a.545.545 0 0 1 0-1.091h4.953a.546.546 0 0 1 .548.544Z"/><path fill="#fff" fill-rule="evenodd" d="M384.665 264.641h4.966a.871.871 0 0 1 .872.866l-.324.002h.324a.874.874 0 0 1-.872.871h-4.966l-.012-.001a.873.873 0 0 1-.805-.869.87.87 0 0 1 .805-.868l.012-.001Zm5.19.869a.223.223 0 0 0-.224-.221h-4.938a.22.22 0 0 0-.137.07.218.218 0 0 0-.06.151.22.22 0 0 0 .06.152.22.22 0 0 0 .137.07h4.938a.223.223 0 0 0 .224-.222Z" clip-rule="evenodd"/><path fill="#fff" d="M434.861 183.656h-75.226c-.752 0-1.362.609-1.362 1.36v57.281c0 .752.61 1.361 1.362 1.361h75.226a1.36 1.36 0 0 0 1.361-1.361v-57.281a1.36 1.36 0 0 0-1.361-1.36Z"/><path fill="#000" fill-rule="evenodd" d="M359.635 184.303a.713.713 0 0 0-.713.713v57.281c0 .394.319.713.713.713h75.226a.713.713 0 0 0 .713-.713v-57.281a.713.713 0 0 0-.713-.713h-75.226Zm-2.01.713c0-1.109.9-2.008 2.01-2.008h75.226c1.11 0 2.01.899 2.01 2.008v57.281a2.01 2.01 0 0 1-2.01 2.008h-75.226a2.01 2.01 0 0 1-2.01-2.008v-57.281Z" clip-rule="evenodd"/><path fill="#000" fill-rule="evenodd" d="M436.222 192.419h-77.949v-1.295h77.949v1.295ZM361.846 187.892c0-.358.29-.648.648-.648h2.911a.649.649 0 1 1 0 1.296h-2.911a.648.648 0 0 1-.648-.648ZM368.475 187.892c0-.358.29-.648.648-.648h2.912a.648.648 0 1 1 0 1.296h-2.912a.648.648 0 0 1-.648-.648ZM375.105 187.892c0-.358.29-.648.648-.648h2.911a.648.648 0 1 1 0 1.296h-2.911a.648.648 0 0 1-.648-.648Z" clip-rule="evenodd"/><path fill="#A67EFA" d="M405.714 214.51h-16.929a2.56 2.56 0 0 0-2.561 2.559v11.727a2.56 2.56 0 0 0 2.561 2.558h16.929a2.56 2.56 0 0 0 2.561-2.558v-11.727a2.56 2.56 0 0 0-2.561-2.559Z"/><path fill="#000" fill-rule="evenodd" d="M388.785 215.158a1.912 1.912 0 0 0-1.913 1.911v11.727c0 1.055.857 1.911 1.913 1.911h16.929a1.912 1.912 0 0 0 1.912-1.911v-11.727a1.911 1.911 0 0 0-1.912-1.911h-16.929Zm-3.209 1.911a3.207 3.207 0 0 1 3.209-3.206h16.929a3.207 3.207 0 0 1 3.209 3.206v11.727a3.207 3.207 0 0 1-3.209 3.206h-16.929a3.207 3.207 0 0 1-3.209-3.206v-11.727Z" clip-rule="evenodd"/><path fill="#000" fill-rule="evenodd" d="M397.25 202.757a7.35 7.35 0 0 0-7.356 7.349v4.404h-1.297v-4.404a8.643 8.643 0 0 1 8.653-8.644 8.643 8.643 0 0 1 8.652 8.644v4.404h-1.297v-4.404a7.35 7.35 0 0 0-7.355-7.349ZM397.25 219.676a1.795 1.795 0 1 0 1.796 1.794c0-.991-.804-1.794-1.796-1.794Zm-3.093 1.794a3.092 3.092 0 0 1 6.185 0 3.092 3.092 0 0 1-6.185 0Z" clip-rule="evenodd"/><path fill="#000" fill-rule="evenodd" d="M397.249 223.264c.359 0 .649.29.649.648v3.87a.648.648 0 0 1-1.297 0v-3.87c0-.358.29-.648.648-.648Z" clip-rule="evenodd"/><path fill="#fff" d="m433.23 258.636-10.137-25.517 25.535 10.131-7.485 3.611 8.208 8.203-4.648 3.984-8.355-8.667-3.118 8.255Z"/><path fill="#000" fill-rule="evenodd" d="M422.634 232.661a.652.652 0 0 1 .698-.144l25.536 10.131a.647.647 0 0 1 .042 1.185l-6.663 3.215 7.563 7.558a.65.65 0 0 1-.037.95l-4.648 3.984a.65.65 0 0 1-.889-.043l-7.643-7.928-2.757 7.296a.648.648 0 0 1-1.209.011l-10.137-25.518a.648.648 0 0 1 .144-.697Zm1.615 1.614 8.966 22.567 2.527-6.689a.647.647 0 0 1 1.073-.221l7.93 8.226 3.653-3.13-7.713-7.709a.646.646 0 0 1 .176-1.041l6.156-2.97-22.768-9.033Z" clip-rule="evenodd"/><path fill="#977657" d="M311.416 293.183c-6.736 1.295-14.212 0-20.459-2.643-4.088-1.736-8.36-4.716-12.727-5.506-4.506-.835-9.401.697-13.706 1.859-4.131 1.114-8.779 2.591-12.293-.466-3.015-2.623-4.075-7.676-4.912-12.291l-2.48-13.702c-.324-1.752-.648-3.563-.398-5.341a11.238 11.238 0 0 1 2.045-4.88c2.775-4.007 6.652-6.355 10.481-8.376 3.323-1.755 6.782-3.365 10.374-3.368 2.959 0 5.835 1.092 8.688 2.177l14.367 5.505c1.482.567 2.996 1.156 4.25 2.339 1.057 1 1.871 2.37 2.756 3.62 5.226 7.388 13.333 11.125 17.181 19.847 1.965 4.446 2.817 10.208 3.142 15.289.223 3.663-2.895 5.263-6.309 5.937Z"/><path fill="#fff" d="m260.812 245.922-69.909 12.442a6.603 6.603 0 0 1-6.718-2.94 6.573 6.573 0 0 1-.936-2.397l-24.78-138.937a6.584 6.584 0 0 1 1.086-4.928 6.6 6.6 0 0 1 4.256-2.718l69.922-12.443a6.605 6.605 0 0 1 6.72 2.937c.467.73.786 1.544.938 2.397l24.777 138.937a6.59 6.59 0 0 1-2.952 6.716 6.62 6.62 0 0 1-2.404.934Z"/><path fill="#000" fill-rule="evenodd" d="M236.17 94.683a5.951 5.951 0 0 0-2.322-.045h-.001l-69.922 12.443a5.946 5.946 0 0 0-4.818 6.896l24.78 138.936v.001a5.952 5.952 0 0 0 6.902 4.813l69.909-12.443.114.637-.112-.638a5.946 5.946 0 0 0 4.829-6.898L240.752 99.448a5.946 5.946 0 0 0-4.582-4.764Zm24.754 151.876h.002a7.256 7.256 0 0 0 4.683-2.981 7.228 7.228 0 0 0 1.197-5.42L242.029 99.221a7.24 7.24 0 0 0-5.581-5.803 7.25 7.25 0 0 0-2.828-.055m-.001 0-69.921 12.443a7.247 7.247 0 0 0-4.675 2.985 7.237 7.237 0 0 0-1.193 5.412l24.78 138.937m78.314-6.581-69.907 12.443" clip-rule="evenodd"/><path fill="#977657" d="M165.209 142.833c-3.297-1.257-11.194-4.787-14.611-5.613-1.945-.469-4.098-.418-5.78.648-4.921 3.132-1.573 9.93 1.296 13.259 5.398 6.283 15.512 12.63 22.693 16.633"/><path fill="#000" fill-rule="evenodd" d="M144.471 137.321c1.885-1.194 4.239-1.223 6.279-.73 1.765.426 4.64 1.536 7.442 2.674 1.128.458 2.247.922 3.287 1.353 1.575.653 2.973 1.233 3.961 1.61l-.462 1.21c-1.003-.382-2.434-.975-4.027-1.636-1.038-.43-2.145-.889-3.247-1.337-2.824-1.147-5.606-2.216-7.258-2.615m-5.281.565c-1.101.701-1.714 1.585-2.002 2.561-.293.991-.26 2.119.013 3.301.551 2.376 2.041 4.815 3.43 6.427v.001c5.315 6.186 15.335 12.486 22.517 16.49l-.632 1.131c-7.179-4.002-17.387-10.397-22.868-16.777-1.48-1.717-3.099-4.341-3.71-6.98-.307-1.324-.368-2.691.006-3.959.378-1.284 1.191-2.423 2.55-3.288l.002-.001m.694 1.094c1.48-.937 3.431-1.012 5.28-.565l-5.28.565Z" clip-rule="evenodd"/><path fill="#977657" d="m257.46 246.521-53.227 10.765s11.191 14.017 35.546 15.545l8.844 8.932"/><path fill="#000" fill-rule="evenodd" d="m257.332 245.886.257 1.27-52.123 10.542c.332.351.778.803 1.34 1.329 1.403 1.314 3.531 3.088 6.414 4.911 5.762 3.645 14.545 7.49 26.6 8.247l.247.015 9.017 9.108-.922.911-8.67-8.757c-12.174-.809-21.084-4.709-26.966-8.429-2.959-1.872-5.151-3.698-6.607-5.06a29.995 29.995 0 0 1-1.636-1.645 16.813 16.813 0 0 1-.545-.624l-.008-.01-.002-.002-.001-.001c0-.001-.001-.001.506-.405l-.507.404-.661-.829 54.267-10.975Z" clip-rule="evenodd"/><path fill="#fff" d="m269.263 237.012-24.832-137.36a10.532 10.532 0 0 0-4.363-6.78 10.555 10.555 0 0 0-7.884-1.715l-66.969 12.087a10.543 10.543 0 0 0-6.789 4.358 10.534 10.534 0 0 0-1.714 7.877l24.828 137.36a10.531 10.531 0 0 0 8.135 8.422c1.353.294 2.75.319 4.113.073l66.966-12.087a10.526 10.526 0 0 0 8.509-12.235Z"/><path fill="#000" fill-rule="evenodd" d="M232.069 90.52a11.203 11.203 0 0 1 8.369 1.82 11.178 11.178 0 0 1 4.631 7.197l24.832 137.36a11.18 11.18 0 0 1-9.033 12.988l-66.965 12.086a11.198 11.198 0 0 1-11.402-4.957 11.175 11.175 0 0 1-1.599-4.06l-24.829-137.36a11.173 11.173 0 0 1 4.963-11.39 11.203 11.203 0 0 1 4.064-1.598l66.969-12.086Zm.23 1.275L165.33 103.88a9.896 9.896 0 0 0-7.912 7.627 9.872 9.872 0 0 0-.068 3.856l24.828 137.36a9.885 9.885 0 0 0 7.635 7.904 9.911 9.911 0 0 0 3.86.069l66.965-12.087h.001a9.88 9.88 0 0 0 7.986-11.483l-24.832-137.36a9.883 9.883 0 0 0-4.095-6.363 9.904 9.904 0 0 0-7.399-1.61Z" clip-rule="evenodd"/><path fill="#977657" d="M165.853 220.392c.924.178 1.838.443 2.739.706 5.051 1.467 3.395 1.081 8.429 2.548 5.67 1.646 10.163 9.179 5.459 14.176-5.767 6.121-12.357 2.617-18.802.372-3.352-1.169-6.286-2.872-7.456-6.454-1.66-5.01 1.413-11.235 7.005-11.559.881-.041 1.763.03 2.626.211Z"/><path fill="#000" fill-rule="evenodd" d="M163.262 220.828c-2.54.148-4.523 1.631-5.692 3.694-1.175 2.073-1.501 4.693-.732 7.014l.001.003c1.073 3.286 3.759 4.895 7.053 6.043m-.63-16.754a9.81 9.81 0 0 1 2.459.197l.005.001.005.001c.889.172 1.775.429 2.681.692 2.52.732 3.363 1.001 4.204 1.27l.02.006c.845.27 1.702.544 4.204 1.273h.001c2.641.767 5.04 2.924 6.211 5.479 1.16 2.53 1.089 5.366-1.044 7.631-2.721 2.888-5.594 3.494-8.595 3.124-2.365-.292-4.764-1.178-7.241-2.093-.752-.278-1.512-.559-2.28-.826m2.089-17.827a11.11 11.11 0 0 0-2.783-.222h-.008c-3.051.177-5.399 1.968-6.749 4.35-1.344 2.372-1.725 5.369-.835 8.058 1.267 3.876 4.449 5.674 7.859 6.864.709.247 1.43.513 2.159.783 2.505.926 5.101 1.887 7.63 2.199 3.348.413 6.653-.29 9.699-3.522v-.001c2.572-2.732 2.606-6.161 1.278-9.058-1.317-2.872-4-5.304-7.028-6.183-2.487-.724-3.334-.995-4.167-1.261l-.025-.008c-.852-.272-1.706-.544-4.237-1.279m0-.001c-.895-.26-1.836-.534-2.793-.719l2.793.719Z" clip-rule="evenodd"/><path fill="#fff" d="m250.173 243.71-55.111 10.101a5.38 5.38 0 0 1-6.257-4.291l-25.419-134.64a5.062 5.062 0 0 1 4.186-5.978l7.987-1.444a1.67 1.67 0 0 1 1.864 1.065 7.98 7.98 0 0 0 8.912 5.094l29.941-5.385a7.978 7.978 0 0 0 6.568-7.841v-.016a1.718 1.718 0 0 1 1.41-1.688l6.312-1.143a6.08 6.08 0 0 1 4.566.982 6.064 6.064 0 0 1 2.518 3.931l5.057 28.665"/><path fill="#000" fill-rule="evenodd" d="M232.811 98.212a5.43 5.43 0 0 0-2.127-.03h-.002l-6.311 1.143c-.001 0 0 0 0 0a1.069 1.069 0 0 0-.878 1.05v.017a8.626 8.626 0 0 1-7.101 8.477l-29.942 5.386a8.635 8.635 0 0 1-9.635-5.508 1.024 1.024 0 0 0-1.14-.652l-7.995 1.446-.008.001a4.426 4.426 0 0 0-2.935 1.831 4.414 4.414 0 0 0-.714 3.382v.003L189.442 249.4a4.73 4.73 0 0 0 5.503 3.774l55.111-10.101.234 1.274-55.111 10.101a6.03 6.03 0 0 1-7.011-4.808L162.75 115.006v-.003a5.697 5.697 0 0 1 .924-4.373 5.715 5.715 0 0 1 3.789-2.367l7.981-1.443a2.32 2.32 0 0 1 2.588 1.479 7.328 7.328 0 0 0 8.188 4.681l29.941-5.386a7.339 7.339 0 0 0 6.035-7.204v-.016a2.36 2.36 0 0 1 1.942-2.324l6.31-1.143h.001a6.728 6.728 0 0 1 6.882 2.984c.478.747.803 1.581.957 2.454l5.057 28.665-1.277.225-5.057-28.665a5.414 5.414 0 0 0-2.248-3.512 5.435 5.435 0 0 0-1.952-.846Z" clip-rule="evenodd"/><path fill="#977657" d="M159.149 180.916c.924.178 1.838.443 2.74.706l15.145 4.401c5.67 1.649 10.163 9.178 5.46 14.176-5.768 6.121-19.062.764-25.5-1.48-3.352-1.17-6.286-2.873-7.457-6.455-1.656-5.01 1.414-11.235 7.006-11.559.874-.039 1.75.032 2.606.211Z"/><path fill="#000" fill-rule="evenodd" d="M156.576 181.352c-2.539.149-4.521 1.631-5.69 3.695-1.175 2.073-1.5 4.693-.733 7.014l.001.002c1.074 3.287 3.759 4.895 7.053 6.044.463.161.958.338 1.481.524 3.152 1.122 7.317 2.604 11.42 3.327 4.825.85 9.276.596 11.913-2.203 2.132-2.265 2.204-5.1 1.044-7.63-1.172-2.554-3.57-4.712-6.212-5.48l-15.145-4.401c-.906-.264-1.792-.52-2.682-.692l-.004-.001-.005-.001a9.852 9.852 0 0 0-2.441-.198Zm2.701-1.071a11.142 11.142 0 0 0-2.763-.223l-.004.001h-.005c-3.051.177-5.398 1.968-6.747 4.349-1.344 2.373-1.725 5.37-.837 8.058 1.267 3.876 4.449 5.675 7.859 6.864.45.157.937.331 1.455.515 3.145 1.12 7.427 2.645 11.648 3.389 4.873.858 9.953.731 13.083-2.591 2.571-2.732 2.605-6.161 1.278-9.057-1.317-2.872-4-5.304-7.029-6.185L162.07 181c-.895-.26-1.836-.534-2.793-.719Z" clip-rule="evenodd"/><path fill="#977657" d="M159.149 199.434c.924.182 1.839.444 2.74.706l15.145 4.402c5.67 1.648 10.163 9.181 5.46 14.175-5.768 6.124-19.062.768-25.5-1.477-3.352-1.169-6.286-2.876-7.456-6.458-1.67-5.01 1.4-11.221 6.992-11.545.878-.045 1.758.022 2.619.197Z"/><path fill="#000" fill-rule="evenodd" d="M156.565 199.884c-2.54.148-4.523 1.627-5.69 3.687-1.173 2.07-1.496 4.686-.722 7.007l.001.004c1.074 3.287 3.76 4.898 7.053 6.047.463.161.958.337 1.481.523 3.152 1.122 7.317 2.604 11.42 3.327 4.825.85 9.276.595 11.913-2.206 2.132-2.263 2.204-5.098 1.044-7.628-1.172-2.555-3.57-4.713-6.212-5.481l-15.145-4.402c-.904-.263-1.792-.517-2.684-.692l.125-.636-.129.635a9.77 9.77 0 0 0-2.455-.185Zm2.712-1.085a11.13 11.13 0 0 0-2.78-.209h-.004c-3.051.177-5.399 1.964-6.747 4.343-1.342 2.369-1.72 5.364-.824 8.052 1.267 3.876 4.448 5.678 7.858 6.867.45.157.937.33 1.454.514 3.146 1.12 7.428 2.645 11.649 3.389 4.873.858 9.953.73 13.083-2.594 2.572-2.731 2.605-6.159 1.278-9.056-1.317-2.872-4-5.305-7.028-6.185l-15.146-4.402s0 .001 0 0c-.898-.261-1.838-.531-2.793-.719Z" clip-rule="evenodd"/><path fill="#977657" d="m318.938 287.227-1.991-8.213c-.168-2.057-23.665-59.112-26.239-66.136-2.574-7.025-20.747-43.006-20.747-43.006-2.646-5.282-4.066-11.176-4.944-16.99 0 0-1.602-11.61-2.088-18.67-.198-2.883-4.26-4.777-6.989-3.819-3.566 1.247-6.542 3.734-8.176 8.767a13.395 13.395 0 0 0-.476 5.93l4.817 60.763c-16.122 39.751 14.912 58.425 14.912 58.425"/><path fill="#000" fill-rule="evenodd" d="M260.682 130.287c1.497.774 2.774 2.132 2.894 3.88.242 3.512.762 8.166 1.223 11.949a481.784 481.784 0 0 0 .791 6.167l.051.38.018.127c.873 5.779 2.279 11.596 4.881 16.791v.001l-.579.29-.579.292.204.405.581 1.154a2269.358 2269.358 0 0 1 8.62 17.304c4.875 9.892 10.04 20.603 11.312 24.073 1.004 2.739 5.164 13.026 9.883 24.693 1.357 3.354 2.759 6.822 4.146 10.258 3.109 7.7 6.141 15.242 8.407 20.987a479.793 479.793 0 0 1 2.735 7.059c.331.883.59 1.598.769 2.122.09.262.158.471.203.626.038.128.052.193.057.215l.002.007.004.05 2.002 8.262 1.261-.305-1.982-8.176a3.026 3.026 0 0 0-.1-.417 16.578 16.578 0 0 0-.219-.681c-.185-.541-.45-1.27-.783-2.157a481.4 481.4 0 0 0-2.743-7.08c-2.267-5.751-5.302-13.297-8.41-20.996-1.392-3.449-2.799-6.927-4.158-10.288-4.716-11.659-8.861-21.908-9.856-24.624-1.302-3.554-6.511-14.346-11.366-24.2a2332.907 2332.907 0 0 0-9.207-18.468l-.204-.405m-5.523-16.7-.642.089-.019-.133-.051-.382a510.699 510.699 0 0 1-.793-6.183c-.462-3.787-.985-8.469-1.23-12.017-.077-1.134-.93-2.164-2.196-2.819-1.262-.652-2.772-.84-3.931-.433l-.001.001c-3.38 1.181-6.203 3.52-7.772 8.352a12.749 12.749 0 0 0-.453 5.64l.003.021 4.831 60.937-.057.141c-7.981 19.678-4.279 34.072 1.366 43.545 2.831 4.749 6.159 8.276 8.78 10.615a40.024 40.024 0 0 0 3.242 2.616c.401.289.718.503.934.645.108.071.191.123.245.158l.061.038.014.008.004.002-.335.555c-.334.555-.335.555-.335.554l-.002-.001-.006-.003-.019-.012a27.258 27.258 0 0 1-1.319-.893 41.29 41.29 0 0 1-3.348-2.701c-2.694-2.404-6.117-6.03-9.03-10.918-5.827-9.779-9.577-24.551-1.512-44.552l-4.803-60.59a14.039 14.039 0 0 1 .502-6.196l.001-.003.001-.003c1.698-5.231 4.827-7.866 8.578-9.178 1.571-.551 3.456-.271 4.957.505m9.279 39.585-.579.292-.001-.002c-2.688-5.368-4.122-11.337-5.005-17.183l-.001-.004v-.004l.642-.089" clip-rule="evenodd"/><path fill="#000" d="M219.761 141.823a4.823 4.823 0 0 0-4.888-2.128 4.783 4.783 0 0 0-3.952 4.265l-6.688 1.172a4.213 4.213 0 0 0-.648-1l1.964-2.802a4.821 4.821 0 0 0 4.253-.489 4.82 4.82 0 0 0 2.14-4.884 4.827 4.827 0 0 0-5.589-3.905 4.78 4.78 0 0 0-3.566 2.778 4.824 4.824 0 0 0-.343 2.795 4.69 4.69 0 0 0 .995 2.19l-1.994 2.84a4.85 4.85 0 0 0-2.396-.185 4.82 4.82 0 0 0-3.101 1.984 4.808 4.808 0 0 0-.792 3.593c.11.636.348 1.244.7 1.785a4.8 4.8 0 0 0 4.876 2.121 4.818 4.818 0 0 0 3.566-2.785c.215-.467.347-.968.392-1.48l6.675-1.166c.086.185.186.363.298.534.091.139.19.273.295.402l-1.994 2.84a4.799 4.799 0 0 0-2.395-.181 4.8 4.8 0 0 0-3.119 1.973 4.823 4.823 0 0 0-.76 1.72 4.817 4.817 0 0 0-.041 1.88c.109.637.347 1.244.701 1.785a4.896 4.896 0 0 0 2.087 1.788 4.826 4.826 0 0 0 6.78-4.078 4.815 4.815 0 0 0-1.113-3.417l1.945-2.795a4.832 4.832 0 0 0 6.396-5.372 4.872 4.872 0 0 0-.684-1.778Zm-14.718-5.525a2.215 2.215 0 0 1 1.78-1.691c.292-.054.592-.047.882.019a2.225 2.225 0 0 1-.992 4.337 2.237 2.237 0 0 1-1.109-.628 2.179 2.179 0 0 1-.583-1.16 2.091 2.091 0 0 1 .022-.877Zm-2.979 11.416a2.223 2.223 0 0 1-1.783 1.69 2.297 2.297 0 0 1-.882-.019 2.28 2.28 0 0 1-1.108-.628 2.187 2.187 0 0 1-.584-1.16 2.207 2.207 0 0 1 .649-1.979 2.211 2.211 0 0 1 2.039-.57 2.225 2.225 0 0 1 1.669 2.666Zm8.5 7.646a2.229 2.229 0 0 1-2.859 1.615 2.223 2.223 0 0 1-.206-4.145 2.215 2.215 0 0 1 3.085 1.646c.053.293.046.594-.02.884Zm7.31-10.422a2.22 2.22 0 0 1-2.755 1.646 2.226 2.226 0 0 1-1.015-.603 2.269 2.269 0 0 1-.564-2.04c.098-.419.314-.802.623-1.101.318-.31.723-.515 1.16-.59a2.222 2.222 0 0 1 2.551 2.688Z"/><path fill="#84FCBF" d="m223.814 183.785-18.534 3.365a7.235 7.235 0 0 1-7.371-3.189 7.213 7.213 0 0 1 .128-8.025 7.221 7.221 0 0 1 2.027-1.96 7.22 7.22 0 0 1 2.623-1.037l18.536-3.365a7.242 7.242 0 0 1 5.41 1.165 7.215 7.215 0 0 1 1.833 10.049 7.224 7.224 0 0 1-4.649 2.997h-.003Z"/><path fill="#000" d="m223.813 183.785-.129-.741-18.537 3.365a6.45 6.45 0 0 1-5.291-1.383 6.478 6.478 0 0 1-.273-9.739 6.49 6.49 0 0 1 3.246-1.622l18.537-3.365a6.478 6.478 0 0 1 5.29 1.383 6.44 6.44 0 0 1 2.247 3.831c.071.385.106.775.107 1.166a6.484 6.484 0 0 1-5.326 6.364l.133.735.136.732a7.977 7.977 0 0 0 5.131-3.304 7.961 7.961 0 0 0-2.018-11.086 7.98 7.98 0 0 0-5.966-1.288l-18.537 3.365a7.982 7.982 0 0 0-4.694 2.731 7.965 7.965 0 0 0-1.728 6.534 7.971 7.971 0 0 0 9.275 6.413l18.537-3.365-.14-.726Z"/><path fill="#fff" d="M229.474 175.417a7.228 7.228 0 0 1-11.239 7.209 7.226 7.226 0 0 1-2.941-7.466 7.226 7.226 0 0 1 5.777-5.573 7.235 7.235 0 0 1 7.372 3.204 7.223 7.223 0 0 1 1.031 2.626Z"/><path fill="#000" d="m229.474 175.417-.733.132a6.482 6.482 0 0 1-8.569 7.246 6.47 6.47 0 0 1-2.009-11.034 6.49 6.49 0 0 1 8.331-.053 6.505 6.505 0 0 1 2.247 3.832l.733-.133.735-.133a7.973 7.973 0 0 0-8.559-6.522 7.977 7.977 0 0 0-5.175 2.56 7.965 7.965 0 0 0-1.959 6.812 7.967 7.967 0 0 0 6.162 6.363 7.985 7.985 0 0 0 8.242-3.252 7.972 7.972 0 0 0 1.289-5.961l-.735.143Z"/><path fill="#9E7452" d="M311.416 293.183c-6.736 1.295-14.212 0-20.459-2.643-4.088-1.736-8.36-4.716-12.727-5.506-4.506-.835-9.401.697-13.706 1.859-4.131 1.114-8.779 2.591-12.293-.466-3.015-2.623-4.075-7.676-4.912-12.291l-2.48-13.702c-.324-1.752-.648-3.563-.398-5.341a11.238 11.238 0 0 1 2.045-4.88c2.775-4.007 6.652-6.355 10.481-8.376 3.323-1.755 6.782-3.365 10.374-3.368 2.959 0 5.835 1.092 8.688 2.177l14.367 5.505c1.482.567 2.996 1.156 4.25 2.339 1.057 1 1.871 2.37 2.756 3.62 5.226 7.388 13.333 11.125 17.181 19.847 1.965 4.446 2.817 10.208 3.142 15.289.223 3.663-2.895 5.263-6.309 5.937Z"/><path fill="#fff" d="m260.812 245.922-69.909 12.442a6.603 6.603 0 0 1-6.718-2.94 6.573 6.573 0 0 1-.936-2.397l-24.78-138.937a6.584 6.584 0 0 1 1.086-4.928 6.6 6.6 0 0 1 4.256-2.718l69.922-12.443a6.605 6.605 0 0 1 6.72 2.937c.467.73.786 1.544.938 2.397l24.777 138.937a6.59 6.59 0 0 1-2.952 6.716 6.62 6.62 0 0 1-2.404.934Z"/><path fill="#000" fill-rule="evenodd" d="M236.17 94.683a5.951 5.951 0 0 0-2.322-.045h-.001l-69.922 12.443a5.946 5.946 0 0 0-4.818 6.896l24.78 138.936v.001a5.952 5.952 0 0 0 6.902 4.813l69.909-12.443.114.637-.112-.638a5.946 5.946 0 0 0 4.829-6.898L240.752 99.448a5.946 5.946 0 0 0-4.582-4.764Zm24.754 151.876h.002a7.256 7.256 0 0 0 4.683-2.981 7.228 7.228 0 0 0 1.197-5.42L242.029 99.221a7.24 7.24 0 0 0-5.581-5.803 7.25 7.25 0 0 0-2.828-.055m-.001 0-69.921 12.443a7.247 7.247 0 0 0-4.675 2.985 7.237 7.237 0 0 0-1.193 5.412l24.78 138.937m78.314-6.581-69.907 12.443" clip-rule="evenodd"/><path fill="#9E7452" d="M165.209 142.833c-3.297-1.257-11.194-4.787-14.611-5.613-1.945-.469-4.098-.418-5.78.648-4.921 3.132-1.573 9.93 1.296 13.259 5.398 6.283 15.512 12.63 22.693 16.633"/><path fill="#000" fill-rule="evenodd" d="M144.471 137.321c1.885-1.194 4.239-1.223 6.279-.73 1.765.426 4.64 1.536 7.442 2.674 1.128.458 2.247.922 3.287 1.353 1.575.653 2.973 1.233 3.961 1.61l-.462 1.21c-1.003-.382-2.434-.975-4.027-1.636-1.038-.43-2.145-.889-3.247-1.337-2.824-1.147-5.606-2.216-7.258-2.615m-5.281.565c-1.101.701-1.714 1.585-2.002 2.561-.293.991-.26 2.119.013 3.301.551 2.376 2.041 4.815 3.43 6.427v.001c5.315 6.186 15.335 12.486 22.517 16.49l-.632 1.131c-7.179-4.002-17.387-10.397-22.868-16.777-1.48-1.717-3.099-4.341-3.71-6.98-.307-1.324-.368-2.691.006-3.959.378-1.284 1.191-2.423 2.55-3.288l.002-.001m.694 1.094c1.48-.937 3.431-1.012 5.28-.565l-5.28.565Z" clip-rule="evenodd"/><path fill="#9E7452" d="m257.46 246.521-53.227 10.765s11.191 14.017 35.546 15.545l8.844 8.932"/><path fill="#000" fill-rule="evenodd" d="m257.332 245.886.257 1.27-52.123 10.542c.332.351.778.803 1.34 1.329 1.403 1.314 3.531 3.088 6.414 4.911 5.762 3.645 14.545 7.49 26.6 8.247l.247.015 9.017 9.108-.922.911-8.67-8.757c-12.174-.809-21.084-4.709-26.966-8.429-2.959-1.872-5.151-3.698-6.607-5.06a29.995 29.995 0 0 1-1.636-1.645 16.813 16.813 0 0 1-.545-.624l-.008-.01-.002-.002-.001-.001c0-.001-.001-.001.506-.405l-.507.404-.661-.829 54.267-10.975Z" clip-rule="evenodd"/><path fill="#fff" d="m269.263 237.012-24.832-137.36a10.532 10.532 0 0 0-4.363-6.78 10.555 10.555 0 0 0-7.884-1.715l-66.969 12.087a10.543 10.543 0 0 0-6.789 4.358 10.534 10.534 0 0 0-1.714 7.877l24.828 137.36a10.531 10.531 0 0 0 8.135 8.422c1.353.294 2.75.319 4.113.073l66.966-12.087a10.526 10.526 0 0 0 8.509-12.235Z"/><path fill="#000" fill-rule="evenodd" d="M232.069 90.52a11.203 11.203 0 0 1 8.369 1.82 11.178 11.178 0 0 1 4.631 7.197l24.832 137.36a11.18 11.18 0 0 1-9.033 12.988l-66.965 12.086a11.198 11.198 0 0 1-11.402-4.957 11.175 11.175 0 0 1-1.599-4.06l-24.829-137.36a11.173 11.173 0 0 1 4.963-11.39 11.203 11.203 0 0 1 4.064-1.598l66.969-12.086Zm.23 1.275L165.33 103.88a9.896 9.896 0 0 0-7.912 7.627 9.872 9.872 0 0 0-.068 3.856l24.828 137.36a9.885 9.885 0 0 0 7.635 7.904 9.911 9.911 0 0 0 3.86.069l66.965-12.087h.001a9.88 9.88 0 0 0 7.986-11.483l-24.832-137.36a9.883 9.883 0 0 0-4.095-6.363 9.904 9.904 0 0 0-7.399-1.61Z" clip-rule="evenodd"/><path fill="#9E7452" d="M165.853 220.392c.924.178 1.838.443 2.739.706 5.051 1.467 3.395 1.081 8.429 2.548 5.67 1.646 10.163 9.179 5.459 14.176-5.767 6.121-12.357 2.617-18.802.372-3.352-1.169-6.286-2.872-7.456-6.454-1.66-5.01 1.413-11.235 7.005-11.559.881-.041 1.763.03 2.626.211Z"/><path fill="#000" fill-rule="evenodd" d="M163.262 220.828c-2.54.148-4.523 1.631-5.692 3.694-1.175 2.073-1.501 4.693-.732 7.014l.001.003c1.073 3.286 3.759 4.895 7.053 6.043m-.63-16.754a9.81 9.81 0 0 1 2.459.197l.005.001.005.001c.889.172 1.775.429 2.681.692 2.52.732 3.363 1.001 4.204 1.27l.02.006c.845.27 1.702.544 4.204 1.273h.001c2.641.767 5.04 2.924 6.211 5.479 1.16 2.53 1.089 5.366-1.044 7.631-2.721 2.888-5.594 3.494-8.595 3.124-2.365-.292-4.764-1.178-7.241-2.093-.752-.278-1.512-.559-2.28-.826m2.089-17.827a11.11 11.11 0 0 0-2.783-.222h-.008c-3.051.177-5.399 1.968-6.749 4.35-1.344 2.372-1.725 5.369-.835 8.058 1.267 3.876 4.449 5.674 7.859 6.864.709.247 1.43.513 2.159.783 2.505.926 5.101 1.887 7.63 2.199 3.348.413 6.653-.29 9.699-3.522v-.001c2.572-2.732 2.606-6.161 1.278-9.058-1.317-2.872-4-5.304-7.028-6.183-2.487-.724-3.334-.995-4.167-1.261l-.025-.008c-.852-.272-1.706-.544-4.237-1.279m0-.001c-.895-.26-1.836-.534-2.793-.719l2.793.719Z" clip-rule="evenodd"/><path fill="#fff" d="m250.173 243.71-55.111 10.101a5.38 5.38 0 0 1-6.257-4.291l-25.419-134.64a5.062 5.062 0 0 1 4.186-5.978l7.987-1.444a1.67 1.67 0 0 1 1.864 1.065 7.98 7.98 0 0 0 8.912 5.094l29.941-5.385a7.978 7.978 0 0 0 6.568-7.841v-.016a1.718 1.718 0 0 1 1.41-1.688l6.312-1.143a6.08 6.08 0 0 1 4.566.982 6.064 6.064 0 0 1 2.518 3.931l5.057 28.665"/><path fill="#000" fill-rule="evenodd" d="M232.811 98.212a5.43 5.43 0 0 0-2.127-.03h-.002l-6.311 1.143c-.001 0 0 0 0 0a1.069 1.069 0 0 0-.878 1.05v.017a8.626 8.626 0 0 1-7.101 8.477l-29.942 5.386a8.635 8.635 0 0 1-9.635-5.508 1.024 1.024 0 0 0-1.14-.652l-7.995 1.446-.008.001a4.426 4.426 0 0 0-2.935 1.831 4.414 4.414 0 0 0-.714 3.382v.003L189.442 249.4a4.73 4.73 0 0 0 5.503 3.774l55.111-10.101.234 1.274-55.111 10.101a6.03 6.03 0 0 1-7.011-4.808L162.75 115.006v-.003a5.697 5.697 0 0 1 .924-4.373 5.715 5.715 0 0 1 3.789-2.367l7.981-1.443a2.32 2.32 0 0 1 2.588 1.479 7.328 7.328 0 0 0 8.188 4.681l29.941-5.386a7.339 7.339 0 0 0 6.035-7.204v-.016a2.36 2.36 0 0 1 1.942-2.324l6.31-1.143h.001a6.728 6.728 0 0 1 6.882 2.984c.478.747.803 1.581.957 2.454l5.057 28.665-1.277.225-5.057-28.665a5.414 5.414 0 0 0-2.248-3.512 5.435 5.435 0 0 0-1.952-.846Z" clip-rule="evenodd"/><path fill="#9E7452" d="M159.149 180.916c.924.178 1.838.443 2.74.706l15.145 4.401c5.67 1.649 10.163 9.178 5.46 14.176-5.768 6.121-19.062.764-25.5-1.48-3.352-1.17-6.286-2.873-7.457-6.455-1.656-5.01 1.414-11.235 7.006-11.559.874-.039 1.75.032 2.606.211Z"/><path fill="#000" fill-rule="evenodd" d="M156.576 181.352c-2.539.149-4.521 1.631-5.69 3.695-1.175 2.073-1.5 4.693-.733 7.014l.001.002c1.074 3.287 3.759 4.895 7.053 6.044.463.161.958.338 1.481.524 3.152 1.122 7.317 2.604 11.42 3.327 4.825.85 9.276.596 11.913-2.203 2.132-2.265 2.204-5.1 1.044-7.63-1.172-2.554-3.57-4.712-6.212-5.48l-15.145-4.401c-.906-.264-1.792-.52-2.682-.692l-.004-.001-.005-.001a9.852 9.852 0 0 0-2.441-.198Zm2.701-1.071a11.142 11.142 0 0 0-2.763-.223l-.004.001h-.005c-3.051.177-5.398 1.968-6.747 4.349-1.344 2.373-1.725 5.37-.837 8.058 1.267 3.876 4.449 5.675 7.859 6.864.45.157.937.331 1.455.515 3.145 1.12 7.427 2.645 11.648 3.389 4.873.858 9.953.731 13.083-2.591 2.571-2.732 2.605-6.161 1.278-9.057-1.317-2.872-4-5.304-7.029-6.185L162.07 181c-.895-.26-1.836-.534-2.793-.719Z" clip-rule="evenodd"/><path fill="#9E7452" d="M159.149 199.434c.924.182 1.839.444 2.74.706l15.145 4.402c5.67 1.648 10.163 9.181 5.46 14.175-5.768 6.124-19.062.768-25.5-1.477-3.352-1.169-6.286-2.876-7.456-6.458-1.67-5.01 1.4-11.221 6.992-11.545.878-.045 1.758.022 2.619.197Z"/><path fill="#000" fill-rule="evenodd" d="M156.565 199.884c-2.54.148-4.523 1.627-5.69 3.687-1.173 2.07-1.496 4.686-.722 7.007l.001.004c1.074 3.287 3.76 4.898 7.053 6.047.463.161.958.337 1.481.523 3.152 1.122 7.317 2.604 11.42 3.327 4.825.85 9.276.595 11.913-2.206 2.132-2.263 2.204-5.098 1.044-7.628-1.172-2.555-3.57-4.713-6.212-5.481l-15.145-4.402c-.904-.263-1.792-.517-2.684-.692l.125-.636-.129.635a9.77 9.77 0 0 0-2.455-.185Zm2.712-1.085a11.13 11.13 0 0 0-2.78-.209h-.004c-3.051.177-5.399 1.964-6.747 4.343-1.342 2.369-1.72 5.364-.824 8.052 1.267 3.876 4.448 5.678 7.858 6.867.45.157.937.33 1.454.514 3.146 1.12 7.428 2.645 11.649 3.389 4.873.858 9.953.73 13.083-2.594 2.572-2.731 2.605-6.159 1.278-9.056-1.317-2.872-4-5.305-7.028-6.185l-15.146-4.402s0 .001 0 0c-.898-.261-1.838-.531-2.793-.719Z" clip-rule="evenodd"/><path fill="#9E7452" d="m318.938 287.227-1.991-8.213c-.168-2.057-23.665-59.112-26.239-66.136-2.574-7.025-20.747-43.006-20.747-43.006-2.646-5.282-4.066-11.176-4.944-16.99 0 0-1.602-11.61-2.088-18.67-.198-2.883-4.26-4.777-6.989-3.819-3.566 1.247-6.542 3.734-8.176 8.767a13.395 13.395 0 0 0-.476 5.93l4.817 60.763c-16.122 39.751 14.912 58.425 14.912 58.425"/><path fill="#000" fill-rule="evenodd" d="M260.682 130.287c1.497.774 2.774 2.132 2.894 3.88.242 3.512.762 8.166 1.223 11.949a481.784 481.784 0 0 0 .791 6.167l.051.38.018.127c.873 5.779 2.279 11.596 4.881 16.791v.001l-.579.29-.579.292.204.405.581 1.154a2269.358 2269.358 0 0 1 8.62 17.304c4.875 9.892 10.04 20.603 11.312 24.073 1.004 2.739 5.164 13.026 9.883 24.693 1.357 3.354 2.759 6.822 4.146 10.258 3.109 7.7 6.141 15.242 8.407 20.987a479.793 479.793 0 0 1 2.735 7.059c.331.883.59 1.598.769 2.122.09.262.158.471.203.626.038.128.052.193.057.215l.002.007.004.05 2.002 8.262 1.261-.305-1.982-8.176a3.026 3.026 0 0 0-.1-.417 16.578 16.578 0 0 0-.219-.681c-.185-.541-.45-1.27-.783-2.157a481.4 481.4 0 0 0-2.743-7.08c-2.267-5.751-5.302-13.297-8.41-20.996-1.392-3.449-2.799-6.927-4.158-10.288-4.716-11.659-8.861-21.908-9.856-24.624-1.302-3.554-6.511-14.346-11.366-24.2a2332.907 2332.907 0 0 0-9.207-18.468l-.204-.405m-5.523-16.7-.642.089-.019-.133-.051-.382a510.699 510.699 0 0 1-.793-6.183c-.462-3.787-.985-8.469-1.23-12.017-.077-1.134-.93-2.164-2.196-2.819-1.262-.652-2.772-.84-3.931-.433-3.38 1.182-6.204 3.521-7.773 8.353a12.749 12.749 0 0 0-.453 5.64l.003.021 4.831 60.937-.057.141c-7.981 19.678-4.279 34.072 1.366 43.545 2.831 4.749 6.159 8.276 8.78 10.615a40.024 40.024 0 0 0 3.242 2.616c.401.289.718.504.934.645.108.071.191.123.245.158l.061.038.014.008.004.002-.335.555c-.334.555-.335.554-.335.554l-.002-.001-.006-.003-.019-.012a27.258 27.258 0 0 1-1.319-.893 41.29 41.29 0 0 1-3.348-2.701c-2.694-2.404-6.117-6.03-9.03-10.918-5.827-9.779-9.577-24.551-1.512-44.552l-4.803-60.59a14.039 14.039 0 0 1 .502-6.196l.001-.003.001-.003c1.698-5.231 4.827-7.866 8.578-9.178 1.571-.551 3.456-.271 4.957.505m9.279 39.585-.579.292-.001-.002c-2.688-5.368-4.122-11.337-5.005-17.183l-.001-.004v-.004l.642-.089" clip-rule="evenodd"/><path fill="#000" d="M219.761 141.823a4.823 4.823 0 0 0-4.888-2.128 4.783 4.783 0 0 0-3.952 4.265l-6.688 1.172a4.213 4.213 0 0 0-.648-1l1.964-2.802a4.821 4.821 0 0 0 4.253-.489 4.82 4.82 0 0 0 2.14-4.884 4.827 4.827 0 0 0-5.589-3.905 4.78 4.78 0 0 0-3.566 2.778 4.824 4.824 0 0 0-.343 2.795 4.69 4.69 0 0 0 .995 2.19l-1.994 2.84a4.85 4.85 0 0 0-2.396-.185 4.82 4.82 0 0 0-3.101 1.984 4.808 4.808 0 0 0-.792 3.593c.11.636.348 1.244.7 1.785a4.8 4.8 0 0 0 4.876 2.121 4.818 4.818 0 0 0 3.566-2.785c.215-.467.347-.968.392-1.48l6.675-1.166c.086.185.186.363.298.534.091.139.19.273.295.402l-1.994 2.84a4.799 4.799 0 0 0-2.395-.181 4.8 4.8 0 0 0-3.119 1.973 4.823 4.823 0 0 0-.76 1.72 4.817 4.817 0 0 0-.041 1.88c.109.637.347 1.244.701 1.785a4.896 4.896 0 0 0 2.087 1.788 4.826 4.826 0 0 0 6.78-4.078 4.815 4.815 0 0 0-1.113-3.417l1.945-2.795a4.832 4.832 0 0 0 6.396-5.372 4.872 4.872 0 0 0-.684-1.778Zm-14.718-5.525a2.215 2.215 0 0 1 1.78-1.691c.292-.054.592-.047.882.019a2.225 2.225 0 0 1-.992 4.337 2.237 2.237 0 0 1-1.109-.628 2.179 2.179 0 0 1-.583-1.16 2.091 2.091 0 0 1 .022-.877Zm-2.979 11.416a2.223 2.223 0 0 1-1.783 1.69 2.297 2.297 0 0 1-.882-.019 2.28 2.28 0 0 1-1.108-.628 2.187 2.187 0 0 1-.584-1.16 2.207 2.207 0 0 1 .649-1.979 2.211 2.211 0 0 1 2.039-.57 2.225 2.225 0 0 1 1.669 2.666Zm8.5 7.646a2.229 2.229 0 0 1-2.859 1.615 2.223 2.223 0 0 1-.206-4.145 2.215 2.215 0 0 1 3.085 1.646c.053.293.046.594-.02.884Zm7.31-10.422a2.22 2.22 0 0 1-2.755 1.646 2.226 2.226 0 0 1-1.015-.603 2.269 2.269 0 0 1-.564-2.04c.098-.419.314-.802.623-1.101.318-.31.723-.515 1.16-.59a2.222 2.222 0 0 1 2.551 2.688Z"/><path fill="#84FCBF" d="m223.814 183.785-18.534 3.365a7.235 7.235 0 0 1-7.371-3.189 7.213 7.213 0 0 1 .128-8.025 7.221 7.221 0 0 1 2.027-1.96 7.22 7.22 0 0 1 2.623-1.037l18.536-3.365a7.242 7.242 0 0 1 5.41 1.165 7.215 7.215 0 0 1 1.833 10.049 7.224 7.224 0 0 1-4.649 2.997h-.003Z"/><path fill="#000" d="m223.813 183.785-.129-.741-18.537 3.365a6.45 6.45 0 0 1-5.291-1.383 6.478 6.478 0 0 1-.273-9.739 6.49 6.49 0 0 1 3.246-1.622l18.537-3.365a6.478 6.478 0 0 1 5.29 1.383 6.44 6.44 0 0 1 2.247 3.831c.071.385.106.775.107 1.166a6.484 6.484 0 0 1-5.326 6.364l.133.735.136.732a7.977 7.977 0 0 0 5.131-3.304 7.961 7.961 0 0 0-2.018-11.086 7.98 7.98 0 0 0-5.966-1.288l-18.537 3.365a7.982 7.982 0 0 0-4.694 2.731 7.965 7.965 0 0 0-1.728 6.534 7.971 7.971 0 0 0 9.275 6.413l18.537-3.365-.14-.726Z"/><path fill="#fff" d="M229.474 175.417a7.228 7.228 0 0 1-11.239 7.209 7.226 7.226 0 0 1-2.941-7.466 7.226 7.226 0 0 1 5.777-5.573 7.235 7.235 0 0 1 7.372 3.204 7.223 7.223 0 0 1 1.031 2.626Z"/><path fill="#000" d="m229.474 175.417-.733.132a6.482 6.482 0 0 1-8.569 7.246 6.47 6.47 0 0 1-2.009-11.034 6.49 6.49 0 0 1 8.331-.053 6.505 6.505 0 0 1 2.247 3.832l.733-.133.735-.133a7.973 7.973 0 0 0-8.559-6.522 7.977 7.977 0 0 0-5.175 2.56 7.965 7.965 0 0 0-1.959 6.812 7.967 7.967 0 0 0 6.162 6.363 7.985 7.985 0 0 0 8.242-3.252 7.972 7.972 0 0 0 1.289-5.961l-.735.143Z"/><path fill="#fff" d="m174.567 16.614 3.806 20.216a53.619 53.619 0 0 1-4.538 33.63 54.603 54.603 0 0 1-23.059 24.143.498.498 0 0 1-.273.052 54.672 54.672 0 0 1-30.232-14.133 53.657 53.657 0 0 1-16.436-29.695l-3.803-20.216a.458.458 0 0 1 .324-.524 17.41 17.41 0 0 0 9.397-6.805 17.385 17.385 0 0 0 3.029-11.192.456.456 0 0 1 .357-.492l42.292-7.942a.454.454 0 0 1 .525.324 17.402 17.402 0 0 0 6.891 9.34 17.43 17.43 0 0 0 11.237 2.934.462.462 0 0 1 .483.36Z"/><path fill="#000" fill-rule="evenodd" d="M155.384 4.324 113.44 12.2a18.032 18.032 0 0 1-3.153 11.45 18.063 18.063 0 0 1-9.586 7.01l3.771 20.049a53.006 53.006 0 0 0 16.238 29.336l.001.002a54.03 54.03 0 0 0 29.81 13.957 53.947 53.947 0 0 0 22.73-23.827l.001-.003a52.966 52.966 0 0 0 4.484-33.224l-3.772-20.036a18.074 18.074 0 0 1-11.48-3.058 18.047 18.047 0 0 1-7.1-9.532Zm19.183 12.29.633-.14a1.103 1.103 0 0 0-1.163-.866l-.007.001a16.779 16.779 0 0 1-10.819-2.825 16.75 16.75 0 0 1-6.633-8.986 1.1 1.1 0 0 0-1.269-.778h-.003l-42.287 7.94-.016.004a1.101 1.101 0 0 0-.867 1.183 16.73 16.73 0 0 1-2.917 10.767 16.758 16.758 0 0 1-9.044 6.55 1.105 1.105 0 0 0-.78 1.267v.002l3.802 20.212a54.305 54.305 0 0 0 16.634 30.053A55.32 55.32 0 0 0 150.442 95.3c.216.02.434-.02.628-.12l.016-.008a55.254 55.254 0 0 0 23.332-24.429 54.267 54.267 0 0 0 4.592-34.034l-3.806-20.215-.637.12ZM100.669 30.49v.002-.002Z" clip-rule="evenodd"/><path fill="#6F4AE7" d="M168.382 67.101a45.109 45.109 0 0 1-19.042 19.937.383.383 0 0 1-.224.042 45.14 45.14 0 0 1-24.988-11.659 44.283 44.283 0 0 1-13.583-24.54l-3.141-16.694a.38.38 0 0 1 .269-.434 14.382 14.382 0 0 0 7.759-5.62 14.353 14.353 0 0 0 2.501-9.242.381.381 0 0 1 .305-.405l15.81-2.97 19.127-3.588a.383.383 0 0 1 .434.265 14.368 14.368 0 0 0 5.69 7.707 14.388 14.388 0 0 0 9.274 2.42.38.38 0 0 1 .409.324l3.141 16.696a44.27 44.27 0 0 1-3.741 27.761Z"/><path fill="#5D42D1" d="M149.34 87.031a.381.381 0 0 1-.224.042 45.14 45.14 0 0 1-24.988-11.658 44.286 44.286 0 0 1-13.583-24.533l-3.141-16.695a.38.38 0 0 1 .269-.434 14.381 14.381 0 0 0 7.759-5.62 14.353 14.353 0 0 0 2.501-9.242.381.381 0 0 1 .305-.405l15.81-2.97 1.349.175 13.943 71.34Z"/><path fill="#fff" d="M155.986 40.629c-.036.058-.072.116-.111.171l-12.393 19.39a3.457 3.457 0 0 1-2.165 1.51 3.45 3.45 0 0 1-2.6-.46l-8.368-5.335a3.448 3.448 0 0 1-1.053-4.76l.058-.088a3.453 3.453 0 0 1 2.164-1.511 3.446 3.446 0 0 1 2.598.462l5.119 3.26a.41.41 0 0 0 .564-.119l10.261-16.054a3.449 3.449 0 0 1 3.487-1.721 3.462 3.462 0 0 1 2.303 1.374 3.441 3.441 0 0 1 .623 2.606 3.457 3.457 0 0 1-.487 1.278v-.003Z"/><path fill="#fff" fill-rule="evenodd" d="M153.412 36.336a2.48 2.48 0 0 0-2.505 1.236.819.819 0 0 1-.028.046l-10.26 16.054-.82-.523.815.53a1.381 1.381 0 0 1-1.904.408l-5.118-3.261a2.474 2.474 0 0 0-3.429.77l-.052.078a2.478 2.478 0 0 0 .762 3.412c-.001 0 0 0 0 0l8.367 5.334a2.475 2.475 0 0 0 2.753-.056 2.47 2.47 0 0 0 .669-.697l12.394-19.39a2.804 2.804 0 0 0 .1-.155 2.467 2.467 0 0 0 .323-1.908 2.476 2.476 0 0 0-2.067-1.878Zm3.272 5.004-12.382 19.372a4.43 4.43 0 0 1-4.502 1.973 4.433 4.433 0 0 1-1.607-.627m0 0-8.367-5.334a4.422 4.422 0 0 1-1.35-6.102l.011-.017.053-.08a4.41 4.41 0 0 1 2.768-1.928 4.42 4.42 0 0 1 3.332.592l4.645 2.96 9.941-15.556a4.438 4.438 0 0 1 2.706-2.077 4.424 4.424 0 0 1 4.752 6.824M274.012 1.295a1.714 1.714 0 1 0 0 3.427 1.714 1.714 0 1 0 0-3.427ZM271 3.01A3.01 3.01 0 0 1 274.012 0a3.01 3.01 0 1 1 0 6.017A3.01 3.01 0 0 1 271 3.01Z" clip-rule="evenodd"/></svg>
