<svg xmlns="http://www.w3.org/2000/svg" width="450" height="304" fill="none" viewBox="0 0 450 304"><g clip-path="url(#a)"><path fill="#C3C4FD" d="M429.327 152.245h-59.269a12.16 12.16 0 0 1 4.168-7.201 12.182 12.182 0 0 1 7.826-2.839h.467a17.545 17.545 0 0 1 7.29-6.994 17.569 17.569 0 0 1 19.237 2.145 17.528 17.528 0 0 1 5.567 8.428 8.777 8.777 0 0 1 13.285 1.652 8.755 8.755 0 0 1 1.429 4.792v.017Z"/><path fill="#C3C5FD" fill-rule="evenodd" d="M399.732 133.555a17.4 17.4 0 0 0-9.85 1.8 17.375 17.375 0 0 0-7.222 6.929l-.047.083h-.561a12.02 12.02 0 0 0-7.722 2.801 11.996 11.996 0 0 0-4.078 6.915h58.912a8.604 8.604 0 0 0-5.152-7.73 8.62 8.62 0 0 0-9.29 1.55l-.191.175-.074-.248a17.366 17.366 0 0 0-5.515-8.349 17.391 17.391 0 0 0-9.21-3.926Zm-9.998 1.512a17.727 17.727 0 0 1 19.416 2.165 17.689 17.689 0 0 1 5.543 8.262 8.936 8.936 0 0 1 9.449-1.438 8.932 8.932 0 0 1 5.347 8.172v.179h-59.625l.033-.191a12.324 12.324 0 0 1 4.225-7.296 12.342 12.342 0 0 1 7.93-2.877h.372l-.047.082.142.08v-.162h-.095a17.702 17.702 0 0 1 7.31-6.976Z" clip-rule="evenodd"/><path fill="#000" fill-rule="evenodd" d="M185.99 31.476c-4.949 4.054-8.495 8.128-9.621 11.315l-1.223-.432c1.253-3.543 5.044-7.808 10.022-11.885 5.006-4.1 11.312-8.09 17.732-11.06 6.409-2.964 12.99-4.938 18.534-4.948 5.568-.01 10.205 1.976 12.426 7.037 2.597 5.914.141 12.132-3.595 17.64-2.82 4.16-6.469 8.053-9.47 11.255-.981 1.047-1.893 2.02-2.683 2.904-.464.52-1.029 1.128-1.663 1.811-2.436 2.625-5.886 6.343-8.528 10.26-1.664 2.465-2.969 4.957-3.502 7.251-.529 2.279-.286 4.3 1.053 5.945h.001c1.764 2.174 4.871 3.038 7.814 2.772 2.949-.267 5.737-1.502 8.537-2.808h.001c2.213-1.032 4.466-2.276 6.782-3.555l.865-.477c2.612-1.439 5.3-2.89 8.047-4.067 5.498-2.355 11.319-3.65 17.402-1.538l-.426 1.223c-5.643-1.959-11.101-.791-16.465 1.506-2.682 1.149-5.32 2.572-7.932 4.01l-.864.477c-2.311 1.276-4.605 2.543-6.861 3.595-2.782 1.297-5.764 2.634-8.969 2.924-3.209.29-6.812-.626-8.938-3.246-1.667-2.048-1.899-4.519-1.31-7.053.585-2.52 1.99-5.165 3.689-7.683 2.707-4.012 6.257-7.836 8.69-10.458.62-.668 1.167-1.257 1.61-1.752.826-.923 1.762-1.923 2.761-2.989 2.989-3.19 6.529-6.968 9.285-11.033 3.684-5.432 5.793-11.13 3.482-16.393-1.944-4.431-5.984-6.272-11.237-6.263-5.276.01-11.659 1.9-17.991 4.83-6.321 2.923-12.534 6.855-17.455 10.885ZM143.206 39.378c-8.024.805-14.012 6.308-17.058 12.106-1.529 2.911-2.531 5.968-3.515 9.089l-.203.644c-.912 2.9-1.84 5.851-3.187 8.703-2.91 6.157-8.569 12.256-16.974 13.794-11.544 2.11-20.066-3.227-28.289-8.855-.474-.325-.948-.65-1.42-.976-7.778-5.35-15.418-10.605-25.445-10.374-4.57.106-9.051 1.504-12.695 3.712-3.65 2.212-6.411 5.204-7.615 8.463l-1.216-.448c1.332-3.608 4.334-6.806 8.158-9.122 3.83-2.321 8.532-3.789 13.338-3.9 10.462-.241 18.434 5.248 26.14 10.554l1.488 1.022c8.231 5.634 16.35 10.656 27.323 8.65 7.875-1.441 13.245-7.17 16.034-13.073 1.308-2.769 2.211-5.639 3.128-8.555l.198-.629c.983-3.117 2.015-6.276 3.604-9.3 3.192-6.076 9.51-11.934 18.077-12.794l.129 1.29Z" clip-rule="evenodd"/><path fill="#fff" d="M319.313 186.341c42.592 0 77.119-34.494 77.119-77.044s-34.527-77.044-77.119-77.044c-42.591 0-77.119 34.494-77.119 77.044s34.528 77.044 77.119 77.044Z"/><path fill="#000" fill-rule="evenodd" d="M319.313 32.901c-42.233 0-76.47 34.204-76.47 76.396s34.237 76.396 76.47 76.396c42.234 0 76.471-34.204 76.471-76.396s-34.237-76.396-76.471-76.396Zm-77.767 76.396c0-42.908 34.818-77.691 77.767-77.691 42.95 0 77.768 34.783 77.768 77.691s-34.818 77.691-77.768 77.691c-42.949 0-77.767-34.783-77.767-77.691Z" clip-rule="evenodd"/><path fill="#C3C5FF" d="M319.314 176.016c36.883 0 66.784-29.871 66.784-66.719s-29.901-66.719-66.784-66.719c-36.884 0-66.785 29.871-66.785 66.719s29.901 66.719 66.785 66.719Z" style="mix-blend-mode:multiply"/><path fill="#C2C6FF" fill-rule="evenodd" d="M319.313 42.74c-36.794 0-66.622 29.799-66.622 66.557 0 36.759 29.828 66.557 66.622 66.557 36.795 0 66.623-29.798 66.623-66.557 0-36.758-29.828-66.557-66.623-66.557Zm-66.946 66.557c0-36.937 29.973-66.88 66.946-66.88 36.974 0 66.947 29.943 66.947 66.88s-29.973 66.881-66.947 66.881c-36.973 0-66.946-29.944-66.946-66.881Z" clip-rule="evenodd" style="mix-blend-mode:multiply"/><path fill="#000" fill-rule="evenodd" d="M299.278 35.46c-18.093 17.39-29.7 44.005-29.7 73.853 0 29.849 11.597 56.456 29.7 73.85l-.899.934c-18.374-17.655-30.098-44.607-30.098-74.784 0-30.176 11.734-57.135 30.098-74.786l.899.933ZM369.046 109.294c0-29.852-11.594-56.46-29.7-73.85l.899-.934c18.377 17.651 30.098 44.604 30.098 74.784 0 30.18-11.734 57.132-30.098 74.786l-.899-.933c18.093-17.394 29.7-44.002 29.7-73.853Z" clip-rule="evenodd"/><path fill="#000" fill-rule="evenodd" d="M396.429 109.945H242.194v-1.296h154.235v1.296Z" clip-rule="evenodd"/><path fill="#000" fill-rule="evenodd" d="M318.665 186.341V32.253h1.297v154.088h-1.297Z" clip-rule="evenodd"/><path fill="#AD79FF" d="M369.072 55.743c4.766 0 8.63-3.86 8.63-8.62 0-4.762-3.864-8.622-8.63-8.622-4.766 0-8.63 3.86-8.63 8.621 0 4.761 3.864 8.621 8.63 8.621Z"/><path fill="#000" fill-rule="evenodd" d="M369.072 39.149c-4.408 0-7.981 3.57-7.981 7.973 0 4.404 3.573 7.974 7.981 7.974 4.408 0 7.981-3.57 7.981-7.974s-3.573-7.973-7.981-7.973Zm-9.278 7.973c0-5.119 4.154-9.269 9.278-9.269 5.124 0 9.278 4.15 9.278 9.27 0 5.118-4.154 9.268-9.278 9.268-5.124 0-9.278-4.15-9.278-9.269Z" clip-rule="evenodd"/><path fill="#6F4AE7" d="M369.072 117.921c4.766 0 8.63-3.859 8.63-8.621 0-4.761-3.864-8.621-8.63-8.621-4.766 0-8.63 3.86-8.63 8.621 0 4.762 3.864 8.621 8.63 8.621Z"/><path fill="#000" fill-rule="evenodd" d="M369.072 101.327c-4.408 0-7.981 3.57-7.981 7.973 0 4.404 3.573 7.974 7.981 7.974 4.408 0 7.981-3.57 7.981-7.974 0-4.403-3.573-7.973-7.981-7.973Zm-9.278 7.973c0-5.119 4.154-9.269 9.278-9.269 5.124 0 9.278 4.15 9.278 9.269s-4.154 9.269-9.278 9.269c-5.124 0-9.278-4.15-9.278-9.269Z" clip-rule="evenodd"/><path fill="#6F4AE7" d="M303.938 47.077a20.038 20.038 0 0 1-3.314 11.484l-.158.236-14.287 21.323a2.857 2.857 0 0 1-2.378 1.27 2.863 2.863 0 0 1-2.378-1.27L267.124 58.8l-.159-.24a20.097 20.097 0 0 1-2.146-17.843 20.122 20.122 0 0 1 12.983-12.44 20.16 20.16 0 0 1 17.756 2.888 20.12 20.12 0 0 1 8.363 15.912h.017Z"/><path fill="#000" fill-rule="evenodd" d="M286.916 28.27a19.508 19.508 0 0 0-16.624 5.167 19.467 19.467 0 0 0-5.861 16.378 19.456 19.456 0 0 0 3.075 8.389l.156.236.002.003 14.298 21.317a2.211 2.211 0 0 0 3.678 0l14.443-21.556.002-.002a19.396 19.396 0 0 0 3.207-10.97.67.67 0 0 1-.019-.142 19.476 19.476 0 0 0-8.094-15.4 19.505 19.505 0 0 0-8.263-3.42Zm-9.307-.61a20.813 20.813 0 0 1 18.328 2.98 20.777 20.777 0 0 1 8.629 16.277.633.633 0 0 1 .02.145 20.688 20.688 0 0 1-3.42 11.856l-.003.004-14.445 21.558a3.501 3.501 0 0 1-2.917 1.558 3.511 3.511 0 0 1-2.917-1.558l-14.299-21.319-.002-.003-.16-.24a20.754 20.754 0 0 1 2.971-26.416 20.795 20.795 0 0 1 8.215-4.843Z" clip-rule="evenodd"/><path fill="#fff" d="M291.166 49.376a7.61 7.61 0 0 0-5.494-9.259 7.61 7.61 0 1 0-3.774 14.747c4.077 1.041 8.226-1.416 9.268-5.488Z"/><path fill="#000" fill-rule="evenodd" d="M277.033 45.766a6.962 6.962 0 0 0 5.026 8.47 6.97 6.97 0 0 0 8.479-5.02 6.962 6.962 0 0 0-5.026-8.472 6.97 6.97 0 0 0-8.479 5.022Zm4.705 9.726c-4.423-1.13-7.092-5.628-5.962-10.047 1.131-4.419 5.634-7.085 10.057-5.956 4.423 1.13 7.092 5.628 5.962 10.047-1.131 4.419-5.634 7.085-10.057 5.956Z" clip-rule="evenodd"/><path fill="#C3C5FF" d="M126.621 218.75H27.86a20.263 20.263 0 0 1 6.948-11.987 20.3 20.3 0 0 1 13.031-4.731h.778a29.22 29.22 0 0 1 12.146-11.669 29.256 29.256 0 0 1 32.073 3.577 29.209 29.209 0 0 1 9.271 14.057 14.62 14.62 0 0 1 15.77-2.635 14.59 14.59 0 0 1 8.747 13.372l-.003.016Z" style="mix-blend-mode:multiply"/><path fill="#C2C6FF" fill-rule="evenodd" d="M77.32 187.49a29.102 29.102 0 0 0-16.483 3.017 29.063 29.063 0 0 0-12.079 11.604.162.162 0 0 1-.14.083h-.779a20.14 20.14 0 0 0-12.927 4.693 20.104 20.104 0 0 0-6.858 11.701h98.408a14.427 14.427 0 0 0-2.354-7.753 14.448 14.448 0 0 0-6.296-5.325 14.465 14.465 0 0 0-15.596 2.607c-.041.037-.098.051-.152.037a.164.164 0 0 1-.113-.11 29.04 29.04 0 0 0-9.22-13.98 29.09 29.09 0 0 0-15.41-6.574Zm-16.631 2.729a29.42 29.42 0 0 1 32.25 3.596 29.366 29.366 0 0 1 9.248 13.891 14.782 14.782 0 0 1 15.755-2.492 14.762 14.762 0 0 1 8.844 13.52c0 .01-.001.021-.003.031l-.003.017a.163.163 0 0 1-.159.13H27.86a.163.163 0 0 1-.16-.191 20.427 20.427 0 0 1 7.003-12.082 20.464 20.464 0 0 1 13.136-4.769h.683a29.382 29.382 0 0 1 12.167-11.651Z" clip-rule="evenodd" style="mix-blend-mode:multiply"/><path fill="#000" fill-rule="evenodd" d="M50.057 195.664a28.604 28.604 0 0 0-16.205 2.956 28.577 28.577 0 0 0-11.882 11.399.648.648 0 0 1-.564.33h-.778a19.651 19.651 0 0 0-12.616 4.579 19.622 19.622 0 0 0-6.574 10.843h97.304a13.948 13.948 0 0 0-8.346-12.12 13.975 13.975 0 0 0-15.071 2.518.65.65 0 0 1-1.06-.291 28.56 28.56 0 0 0-9.06-13.746 28.598 28.598 0 0 0-15.148-6.468Zm49.237 31.402a.647.647 0 0 0 .652-.279l.007-.009a.646.646 0 0 0 .101-.453 15.235 15.235 0 0 0-2.488-8.238 15.27 15.27 0 0 0-22.36-3.526 29.854 29.854 0 0 0-9.17-13.423 29.901 29.901 0 0 0-45.006 7.915h-.402a20.957 20.957 0 0 0-13.448 4.882 20.914 20.914 0 0 0-7.17 12.37.648.648 0 0 0 .638.761h98.646Z" clip-rule="evenodd"/><path fill="#C3C5FB" d="M88.316 138.707c8.095 0 14.656-6.555 14.656-14.642 0-8.086-6.561-14.642-14.656-14.642-8.094 0-14.656 6.556-14.656 14.642 0 8.087 6.562 14.642 14.656 14.642Z"/><path fill="#C2C6FB" fill-rule="evenodd" d="M88.316 109.545c-8.027 0-14.534 6.501-14.534 14.52 0 8.02 6.507 14.521 14.534 14.521 8.028 0 14.535-6.501 14.535-14.521 0-8.019-6.507-14.52-14.535-14.52Zm-14.777 14.52c0-8.153 6.616-14.763 14.777-14.763 8.162 0 14.778 6.61 14.778 14.763 0 8.154-6.616 14.763-14.778 14.763-8.161 0-14.777-6.609-14.777-14.763Z" clip-rule="evenodd"/><path fill="#000" d="M87.496 116.72a.994.994 0 0 1 1.64 0 2.275 2.275 0 0 0-1.64 0Z"/><path fill="#C2C6FB" fill-rule="evenodd" d="m87.496 116.72.044.113a2.154 2.154 0 0 1 1.552 0l.365.141-.22-.322a1.115 1.115 0 0 0-1.841 0l.1.068Zm.82-.312a.874.874 0 0 0-.312.058c.207-.027.417-.027.624 0a.874.874 0 0 0-.312-.058Z" clip-rule="evenodd"/><path fill="#000" d="m82.426 121.772 4.944-4.939a.964.964 0 0 1 .126-.103 2.264 2.264 0 0 1 1.64 0c.046.03.088.064.127.103l4.944 4.939a.989.989 0 1 1-1.398 1.399l-3.504-3.501v11.196a.988.988 0 1 1-1.978 0v-11.205l-3.5 3.501a.992.992 0 0 1-1.691-.7c0-.262.104-.514.29-.699v.009Z"/><path fill="#C2C6FB" fill-rule="evenodd" d="M87.553 116.838a.83.83 0 0 0-.098.082l-5.016 5.01a.87.87 0 0 0 .073 1.146.868.868 0 0 0 1.228 0l3.709-3.709v11.499a.867.867 0 0 0 1.734 0v-11.489l3.712 3.708a.867.867 0 1 0 1.226-1.227l-4.944-4.939h-.001a.664.664 0 0 0-.096-.081 2.147 2.147 0 0 0-1.527 0Zm-5.006 4.641 4.737-4.732a.941.941 0 0 1 .143-.117l.012-.008.013-.005a2.386 2.386 0 0 1 1.728 0l.012.004.011.007a.91.91 0 0 1 .146.12l4.943 4.938a1.11 1.11 0 1 1-1.569 1.571l-3.297-3.293v10.902a1.109 1.109 0 0 1-1.895.785 1.109 1.109 0 0 1-.325-.785v-10.912l-3.294 3.294a1.113 1.113 0 0 1-1.898-.786c0-.294.117-.577.326-.785l.207-.208v.01Z" clip-rule="evenodd"/><path fill="#000" d="M50.03 167.537a.548.548 0 0 1-.547-.544v-4.948a.547.547 0 1 1 1.092 0v4.948a.543.543 0 0 1-.545.544Z"/><path fill="#000" fill-rule="evenodd" d="M50.029 161.779a.23.23 0 0 0-.164.072.219.219 0 0 0-.06.169l.002.012v4.96c0 .059.024.115.066.157a.222.222 0 0 0 .378-.156v-4.973a.222.222 0 0 0-.222-.241Zm-.35-.575a.874.874 0 0 1 1.173.512.873.873 0 0 1 .047.34v4.937a.867.867 0 0 1-.869.868.873.873 0 0 1-.872-.866v-4.939a.872.872 0 0 1 .522-.852Z" clip-rule="evenodd"/><path fill="#000" d="M53.052 164.522a.542.542 0 0 1-.545.544h-4.953a.542.542 0 0 1-.415-.144.544.544 0 0 1 0-.803.54.54 0 0 1 .415-.144h4.963a.544.544 0 0 1 .535.547Z"/><path fill="#000" fill-rule="evenodd" d="M47.529 164.298a.22.22 0 0 0-.222.133.225.225 0 0 0 .131.301c.03.01.06.014.09.011l.013-.001h4.966a.22.22 0 0 0 .156-.064.225.225 0 0 0 .065-.156.224.224 0 0 0-.216-.223h-4.97l-.013-.001Zm.036-.647a.872.872 0 1 0 0 1.739h4.942a.862.862 0 0 0 .615-.254.865.865 0 0 0 .254-.614m-5.811-.871h4.96a.873.873 0 0 1 .851.871" clip-rule="evenodd"/><path fill="#000" d="M387.154 278.846a.548.548 0 0 1-.544-.548v-4.958a.546.546 0 0 1 .918-.36.542.542 0 0 1 .174.36v4.948a.537.537 0 0 1-.157.394.55.55 0 0 1-.391.164Z"/><path fill="#000" fill-rule="evenodd" d="M387.156 273.158a.226.226 0 0 0-.222.197v4.943a.223.223 0 0 0 .221.224.223.223 0 0 0 .223-.228v-4.939a.226.226 0 0 0-.222-.197Zm-.592-.415a.871.871 0 0 1 1.462.572l.001.012v4.959a.886.886 0 0 1-.535.816.89.89 0 0 1-.338.067h-.001a.87.87 0 0 1-.867-.871v-4.971l.001-.012a.862.862 0 0 1 .277-.572Z" clip-rule="evenodd"/><path fill="#000" d="M390.179 275.811a.547.547 0 0 1-.548.547h-4.953a.543.543 0 0 1-.506-.545.546.546 0 0 1 .506-.546h4.953a.546.546 0 0 1 .548.544Z"/><path fill="#000" fill-rule="evenodd" d="M384.665 274.943h4.966a.873.873 0 0 1 .872.866l-.324.002h.324a.872.872 0 0 1-.872.871h-4.966l-.012-.001a.872.872 0 0 1-.573-1.46.873.873 0 0 1 .573-.277l.012-.001Zm5.19.869a.223.223 0 0 0-.224-.221h-4.938a.22.22 0 0 0-.137.07.223.223 0 0 0 .137.374h4.938a.224.224 0 0 0 .224-.223ZM252.529 1.295a1.714 1.714 0 1 0-.002 3.429 1.714 1.714 0 0 0 .002-3.429Zm-3.011 1.714A3.01 3.01 0 0 1 252.529 0a3.01 3.01 0 0 1 3.012 3.009 3.01 3.01 0 0 1-3.012 3.008 3.01 3.01 0 0 1-3.011-3.008Z" clip-rule="evenodd"/><path fill="#fff" d="M434.861 193.958h-75.226c-.752 0-1.362.609-1.362 1.36V252.6c0 .751.61 1.36 1.362 1.36h75.226a1.36 1.36 0 0 0 1.361-1.36v-57.282a1.36 1.36 0 0 0-1.361-1.36Z"/><path fill="#000" fill-rule="evenodd" d="M359.635 194.606a.712.712 0 0 0-.713.712V252.6c0 .393.319.712.713.712h75.226a.713.713 0 0 0 .713-.712v-57.282a.712.712 0 0 0-.713-.712h-75.226Zm-2.01.712c0-1.109.9-2.008 2.01-2.008h75.226c1.11 0 2.01.899 2.01 2.008V252.6a2.01 2.01 0 0 1-2.01 2.008h-75.226a2.01 2.01 0 0 1-2.01-2.008v-57.282Z" clip-rule="evenodd"/><path fill="#000" fill-rule="evenodd" d="M436.222 202.722h-77.949v-1.296h77.949v1.296ZM361.846 198.194c0-.358.29-.648.648-.648h2.911a.649.649 0 1 1 0 1.296h-2.911a.648.648 0 0 1-.648-.648ZM368.475 198.194c0-.358.29-.648.648-.648h2.912a.648.648 0 1 1 0 1.296h-2.912a.648.648 0 0 1-.648-.648ZM375.105 198.194c0-.358.29-.648.648-.648h2.911a.648.648 0 1 1 0 1.296h-2.911a.648.648 0 0 1-.648-.648Z" clip-rule="evenodd"/><path fill="#A67EFA" d="M405.714 224.812h-16.929a2.56 2.56 0 0 0-2.561 2.559v11.727a2.56 2.56 0 0 0 2.561 2.559h16.929a2.56 2.56 0 0 0 2.561-2.559v-11.727a2.56 2.56 0 0 0-2.561-2.559Z"/><path fill="#000" fill-rule="evenodd" d="M388.785 225.46a1.913 1.913 0 0 0-1.913 1.911v11.727c0 1.055.857 1.911 1.913 1.911h16.929a1.912 1.912 0 0 0 1.912-1.911v-11.727a1.912 1.912 0 0 0-1.912-1.911h-16.929Zm-3.209 1.911a3.207 3.207 0 0 1 3.209-3.206h16.929a3.207 3.207 0 0 1 3.209 3.206v11.727a3.207 3.207 0 0 1-3.209 3.206h-16.929a3.207 3.207 0 0 1-3.209-3.206v-11.727Z" clip-rule="evenodd"/><path fill="#000" fill-rule="evenodd" d="M397.25 213.059a7.363 7.363 0 0 0-5.202 2.153 7.346 7.346 0 0 0-2.154 5.196v4.404h-1.297v-4.404a8.64 8.64 0 0 1 2.534-6.112 8.66 8.66 0 0 1 12.237 0 8.64 8.64 0 0 1 2.534 6.112v4.404h-1.297v-4.404a7.346 7.346 0 0 0-2.154-5.196 7.362 7.362 0 0 0-5.201-2.153ZM397.25 229.978a1.795 1.795 0 1 0 1.796 1.794c0-.991-.804-1.794-1.796-1.794Zm-3.093 1.794a3.091 3.091 0 0 1 3.093-3.089 3.09 3.09 0 1 1 0 6.179 3.091 3.091 0 0 1-3.093-3.09Z" clip-rule="evenodd"/><path fill="#000" fill-rule="evenodd" d="M397.249 233.566c.359 0 .649.29.649.648v3.87a.648.648 0 0 1-1.297 0v-3.87c0-.358.29-.648.648-.648Z" clip-rule="evenodd"/><path fill="#fff" d="m433.23 268.939-10.137-25.518 25.535 10.131-7.485 3.611 8.208 8.203-4.648 3.984-8.355-8.667-3.118 8.256Z"/><path fill="#000" fill-rule="evenodd" d="M422.635 242.964a.646.646 0 0 1 .697-.144l25.536 10.13a.648.648 0 0 1 .043 1.185l-6.664 3.215 7.563 7.559a.644.644 0 0 1-.036.949l-4.649 3.984a.648.648 0 0 1-.889-.043l-7.643-7.928-2.756 7.297a.65.65 0 0 1-1.209.01l-10.137-25.517a.646.646 0 0 1 .144-.697Zm1.615 1.613 8.965 22.568 2.527-6.69a.65.65 0 0 1 1.074-.221l7.93 8.226 3.653-3.13-7.714-7.709a.648.648 0 0 1 .177-1.041l6.156-2.97-22.768-9.033Z" clip-rule="evenodd"/><path fill="#977657" d="M311.416 303.485c-6.736 1.295-14.212 0-20.459-2.643-4.088-1.736-8.36-4.715-12.727-5.505-4.506-.836-9.401.696-13.706 1.859-4.131 1.114-8.779 2.59-12.293-.467-3.015-2.623-4.075-7.675-4.912-12.29l-2.48-13.703c-.324-1.752-.648-3.563-.398-5.341a11.238 11.238 0 0 1 2.045-4.88c2.775-4.006 6.652-6.354 10.481-8.375 3.323-1.756 6.782-3.365 10.374-3.368 2.959 0 5.835 1.091 8.688 2.176l14.367 5.506c1.482.566 2.996 1.156 4.25 2.338 1.057 1.001 1.871 2.371 2.756 3.621 5.226 7.387 13.333 11.124 17.181 19.846 1.965 4.447 2.817 10.208 3.142 15.29.223 3.662-2.895 5.262-6.309 5.936Z"/><path fill="#fff" d="m260.812 256.224-69.909 12.442a6.61 6.61 0 0 1-6.718-2.94 6.573 6.573 0 0 1-.936-2.397l-24.78-138.937a6.585 6.585 0 0 1 1.086-4.928 6.6 6.6 0 0 1 4.256-2.718l69.922-12.443a6.596 6.596 0 0 1 7.658 5.334l24.777 138.937a6.59 6.59 0 0 1-2.952 6.717 6.618 6.618 0 0 1-2.404.933Z"/><path fill="#000" fill-rule="evenodd" d="M236.17 104.986a5.932 5.932 0 0 0-2.322-.045h-.001l-69.922 12.443a5.947 5.947 0 0 0-4.818 6.895l24.78 138.937a5.949 5.949 0 0 0 4.58 4.767 5.97 5.97 0 0 0 2.322.046l69.909-12.443.114.638-.112-.638a5.948 5.948 0 0 0 3.847-2.449 5.951 5.951 0 0 0 .982-4.449l-24.777-138.937a5.948 5.948 0 0 0-4.582-4.765Zm24.754 151.876.002-.001a7.256 7.256 0 0 0 4.683-2.981 7.22 7.22 0 0 0 1.197-5.419l-24.777-138.937a7.244 7.244 0 0 0-8.409-5.859m-.001.001-69.921 12.442a7.24 7.24 0 0 0-5.868 8.398l24.78 138.936m78.314-6.58-69.907 12.442" clip-rule="evenodd"/><path fill="#977657" d="M165.209 153.135c-3.297-1.256-11.194-4.787-14.611-5.612-1.945-.47-4.098-.418-5.78.647-4.921 3.132-1.573 9.93 1.296 13.259 5.398 6.283 15.512 12.631 22.693 16.634"/><path fill="#000" fill-rule="evenodd" d="M144.471 147.623c1.885-1.194 4.239-1.223 6.279-.73 1.765.426 4.64 1.536 7.442 2.674 1.128.458 2.247.922 3.287 1.354 1.575.653 2.973 1.232 3.961 1.609l-.462 1.21c-1.003-.382-2.434-.975-4.027-1.636-1.038-.43-2.145-.889-3.247-1.337-2.824-1.147-5.606-2.215-7.258-2.615m-5.281.565c-1.101.701-1.714 1.585-2.002 2.561-.293.991-.26 2.119.013 3.302.551 2.375 2.041 4.815 3.43 6.427 5.315 6.187 15.335 12.486 22.517 16.49l-.632 1.131c-7.179-4.002-17.387-10.397-22.868-16.776-1.48-1.718-3.099-4.341-3.71-6.98-.307-1.325-.368-2.692.006-3.96.378-1.283 1.191-2.423 2.55-3.288l.002-.001m.694 1.094c1.48-.937 3.431-1.011 5.28-.565l-5.28.565Z" clip-rule="evenodd"/><path fill="#977657" d="m257.46 256.823-53.227 10.765s11.191 14.017 35.546 15.546l8.844 8.932"/><path fill="#000" fill-rule="evenodd" d="m257.332 256.188.257 1.27L205.466 268c.332.351.778.803 1.34 1.329 1.403 1.314 3.531 3.088 6.414 4.911 5.762 3.645 14.545 7.49 26.6 8.247l.247.016 9.017 9.107-.922.911-8.67-8.757c-12.174-.809-21.084-4.709-26.966-8.429-2.959-1.872-5.151-3.698-6.607-5.06a30.413 30.413 0 0 1-1.636-1.644 18.136 18.136 0 0 1-.545-.625l-.008-.009-.002-.003-.001-.001c0-.001-.001-.001.506-.405l-.507.404-.661-.828 54.267-10.976Z" clip-rule="evenodd"/><path fill="#fff" d="m269.263 247.314-24.832-137.359a10.532 10.532 0 0 0-4.363-6.781 10.55 10.55 0 0 0-7.884-1.714l-66.969 12.086a10.545 10.545 0 0 0-8.43 8.127 10.525 10.525 0 0 0-.073 4.109l24.828 137.359a10.524 10.524 0 0 0 4.363 6.782 10.543 10.543 0 0 0 7.885 1.713l66.966-12.086a10.53 10.53 0 0 0 8.509-12.236Z"/><path fill="#000" fill-rule="evenodd" d="M232.069 100.822a11.201 11.201 0 0 1 8.369 1.82 11.179 11.179 0 0 1 4.631 7.197l24.832 137.36a11.15 11.15 0 0 1-1.821 8.365 11.202 11.202 0 0 1-3.145 3.029 11.2 11.2 0 0 1-4.067 1.594l-66.965 12.087a11.198 11.198 0 0 1-11.402-4.958 11.168 11.168 0 0 1-1.599-4.06l-24.829-137.359a11.178 11.178 0 0 1 9.027-12.988l66.969-12.087Zm.23 1.275-66.969 12.087a9.887 9.887 0 0 0-7.98 11.483l24.828 137.359a9.877 9.877 0 0 0 4.095 6.365 9.902 9.902 0 0 0 7.4 1.608l66.965-12.087h.001a9.891 9.891 0 0 0 6.376-4.087 9.871 9.871 0 0 0 1.61-7.396L243.793 110.07a9.882 9.882 0 0 0-4.095-6.364 9.903 9.903 0 0 0-7.399-1.609Z" clip-rule="evenodd"/><path fill="#977657" d="M165.854 230.694c.924.178 1.838.443 2.739.706 5.051 1.467 3.394 1.081 8.429 2.549 5.67 1.645 10.163 9.178 5.459 14.175-5.767 6.121-12.358 2.617-18.803.372-3.352-1.169-6.285-2.872-7.456-6.454-1.66-5.01 1.414-11.235 7.006-11.559.88-.041 1.763.03 2.626.211Z"/><path fill="#000" fill-rule="evenodd" d="M163.262 231.13c-2.54.148-4.523 1.631-5.692 3.694-1.175 2.074-1.501 4.693-.732 7.014l.001.003c1.073 3.287 3.759 4.895 7.053 6.044m-.63-16.755a9.81 9.81 0 0 1 2.459.198l.005.001.005.001c.889.171 1.775.428 2.681.692 2.52.732 3.363 1 4.204 1.269l.02.007c.845.27 1.702.543 4.204 1.272l.001.001c2.641.766 5.04 2.923 6.211 5.478 1.16 2.531 1.089 5.366-1.044 7.631-2.721 2.889-5.594 3.495-8.595 3.124-2.365-.291-4.764-1.178-7.241-2.093-.752-.278-1.512-.559-2.28-.826m2.089-17.826a11.111 11.111 0 0 0-2.783-.223h-.004l-.004.001c-3.051.176-5.399 1.968-6.749 4.349-1.344 2.372-1.725 5.37-.835 8.058 1.267 3.876 4.449 5.675 7.859 6.864.709.247 1.43.514 2.159.783 2.505.927 5.101 1.887 7.63 2.199 3.348.413 6.653-.289 9.699-3.522 2.572-2.732 2.606-6.162 1.278-9.058-1.317-2.873-4-5.304-7.028-6.183-2.487-.725-3.334-.996-4.167-1.262l-.025-.008c-.852-.272-1.706-.544-4.237-1.279m0 0c-.895-.261-1.836-.535-2.793-.719l2.793.719Z" clip-rule="evenodd"/><path fill="#fff" d="m250.173 254.012-55.111 10.101a5.38 5.38 0 0 1-6.257-4.291l-25.419-134.639a5.066 5.066 0 0 1 2.288-5.272 5.076 5.076 0 0 1 1.898-.707l7.987-1.444a1.666 1.666 0 0 1 1.864 1.065 7.98 7.98 0 0 0 8.912 5.095l29.941-5.386a7.986 7.986 0 0 0 6.568-7.841v-.016a1.717 1.717 0 0 1 1.41-1.687l6.312-1.144a6.077 6.077 0 0 1 7.084 4.913l5.057 28.665"/><path fill="#000" fill-rule="evenodd" d="M232.811 108.514a5.439 5.439 0 0 0-2.127-.031l-.002.001-6.311 1.143c-.001 0 0 0 0 0a1.068 1.068 0 0 0-.878 1.05v.017a8.626 8.626 0 0 1-7.101 8.477l-29.942 5.386a8.635 8.635 0 0 1-9.635-5.508 1.022 1.022 0 0 0-1.14-.652l-7.995 1.446-.008.001a4.41 4.41 0 0 0-2.935 1.831 4.412 4.412 0 0 0-.714 3.383v.002l25.419 134.642a4.73 4.73 0 0 0 5.503 3.774l55.111-10.101.234 1.274-55.111 10.101a6.03 6.03 0 0 1-7.011-4.808L162.75 125.308v-.003a5.697 5.697 0 0 1 .924-4.372 5.718 5.718 0 0 1 3.789-2.367l7.981-1.444a2.316 2.316 0 0 1 2.588 1.48 7.326 7.326 0 0 0 3.24 3.83 7.34 7.34 0 0 0 4.948.85l29.941-5.386a7.33 7.33 0 0 0 6.035-7.204v-.016a2.369 2.369 0 0 1 1.942-2.324l6.31-1.143h.001a6.735 6.735 0 0 1 5.053 1.087 6.718 6.718 0 0 1 2.786 4.351l5.057 28.665-1.277.225-5.057-28.665a5.418 5.418 0 0 0-4.2-4.358Z" clip-rule="evenodd"/><path fill="#977657" d="M159.149 191.218c.924.178 1.838.444 2.74.706l15.145 4.401c5.67 1.649 10.163 9.179 5.46 14.176-5.768 6.121-19.062.764-25.5-1.48-3.352-1.169-6.286-2.873-7.457-6.455-1.656-5.01 1.414-11.235 7.006-11.558.874-.039 1.75.031 2.606.21Z"/><path fill="#000" fill-rule="evenodd" d="M156.576 191.655c-2.539.148-4.521 1.63-5.69 3.694-1.175 2.073-1.5 4.693-.733 7.014l.001.002c1.074 3.287 3.759 4.895 7.053 6.044.463.162.958.338 1.481.524 3.152 1.122 7.317 2.604 11.42 3.327 4.825.85 9.276.596 11.913-2.203 2.132-2.265 2.204-5.1 1.044-7.63-1.172-2.554-3.57-4.712-6.212-5.48l-15.145-4.401c-.906-.264-1.792-.52-2.682-.692l-.004-.001-.005-.001a9.804 9.804 0 0 0-2.441-.197Zm2.701-1.072a11.093 11.093 0 0 0-2.763-.222H156.505c-3.051.177-5.398 1.968-6.747 4.35-1.344 2.372-1.725 5.369-.837 8.057 1.267 3.876 4.449 5.675 7.859 6.864.45.158.937.331 1.455.515 3.145 1.12 7.427 2.645 11.648 3.389 4.873.859 9.953.731 13.083-2.591 2.571-2.732 2.605-6.161 1.278-9.057-1.317-2.872-4-5.304-7.029-6.184l-15.145-4.402c-.895-.26-1.836-.534-2.793-.719Z" clip-rule="evenodd"/><path fill="#977657" d="M159.149 209.737c.924.181 1.839.443 2.74.706l15.145 4.401c5.67 1.648 10.163 9.181 5.46 14.175-5.768 6.125-19.062.768-25.5-1.476-3.352-1.17-6.286-2.876-7.456-6.458-1.67-5.01 1.4-11.222 6.992-11.546.878-.044 1.758.022 2.619.198Z"/><path fill="#000" fill-rule="evenodd" d="M156.565 210.186c-2.54.148-4.523 1.628-5.69 3.688-1.173 2.069-1.496 4.685-.722 7.006l.001.004c1.074 3.287 3.76 4.898 7.053 6.047.463.161.958.337 1.481.523 3.152 1.122 7.317 2.604 11.42 3.327 4.825.85 9.276.595 11.913-2.206 2.132-2.263 2.204-5.098 1.044-7.628-1.172-2.555-3.57-4.713-6.212-5.481l-15.145-4.402c-.904-.263-1.792-.517-2.684-.692l.125-.636-.129.635a9.817 9.817 0 0 0-2.455-.185Zm2.712-1.085a11.13 11.13 0 0 0-2.78-.209h-.004c-3.051.177-5.399 1.965-6.747 4.343-1.342 2.37-1.72 5.364-.824 8.052 1.267 3.876 4.448 5.678 7.858 6.867.45.157.937.33 1.454.515 3.146 1.12 7.428 2.644 11.649 3.388 4.873.858 9.953.73 13.083-2.594 2.572-2.73 2.605-6.159 1.278-9.056-1.317-2.872-4-5.305-7.028-6.185l-15.146-4.401c-.898-.262-1.838-.532-2.793-.72Z" clip-rule="evenodd"/><path fill="#977657" d="m318.938 297.529-1.991-8.213c-.168-2.056-23.665-59.111-26.239-66.136-2.574-7.024-20.747-43.006-20.747-43.006-2.646-5.282-4.066-11.176-4.944-16.989 0 0-1.602-11.611-2.088-18.671-.198-2.882-4.26-4.777-6.989-3.818-3.566 1.246-6.542 3.734-8.176 8.767a13.39 13.39 0 0 0-.476 5.929l4.817 60.764c-16.122 39.75 14.912 58.424 14.912 58.424"/><path fill="#000" fill-rule="evenodd" d="M260.682 140.589c1.497.774 2.774 2.132 2.894 3.881.242 3.512.762 8.165 1.223 11.949a485.686 485.686 0 0 0 .842 6.546l.018.127c.873 5.779 2.279 11.596 4.881 16.792v.001l-.579.289-.579.293.204.405.581 1.153a2269.358 2269.358 0 0 1 8.62 17.304c4.875 9.892 10.04 20.603 11.312 24.074 1.004 2.738 5.164 13.025 9.883 24.692 1.357 3.355 2.759 6.823 4.146 10.258 3.109 7.7 6.141 15.242 8.407 20.987a484.24 484.24 0 0 1 2.735 7.059c.331.883.59 1.598.769 2.122.09.262.158.471.203.627.038.127.052.192.057.214l.002.007.004.05 2.002 8.263 1.261-.305-1.982-8.177a3.061 3.061 0 0 0-.1-.417 17.63 17.63 0 0 0-.219-.681c-.185-.541-.45-1.27-.783-2.157a481.4 481.4 0 0 0-2.743-7.08c-2.267-5.75-5.302-13.297-8.41-20.996-1.392-3.449-2.799-6.927-4.158-10.288-4.716-11.659-8.861-21.908-9.856-24.624-1.302-3.553-6.511-14.346-11.366-24.2a2367.402 2367.402 0 0 0-9.207-18.468l-.204-.404m-5.523-16.7-.642.088-.019-.133-.051-.382a510.699 510.699 0 0 1-.793-6.183c-.462-3.787-.985-8.469-1.23-12.017-.077-1.133-.93-2.164-2.196-2.818-1.262-.653-2.772-.84-3.931-.433h-.001c-3.38 1.182-6.203 3.52-7.772 8.352a12.752 12.752 0 0 0-.453 5.641l.003.02 4.831 60.937-.057.142c-7.981 19.677-4.279 34.072 1.366 43.544 2.831 4.749 6.159 8.276 8.78 10.615a40.3 40.3 0 0 0 3.242 2.617 26.158 26.158 0 0 0 1.179.802l.061.038.014.009.004.002-.335.554-.335.555-.002-.002-.006-.003-.019-.012a26.97 26.97 0 0 1-1.319-.892c-.833-.6-2-1.499-3.348-2.702-2.694-2.404-6.117-6.03-9.03-10.918-5.827-9.779-9.577-24.551-1.512-44.552l-4.803-60.59a14.035 14.035 0 0 1 .502-6.195l.001-.003.001-.003c1.698-5.231 4.827-7.867 8.578-9.179 1.571-.551 3.456-.271 4.957.505m9.279 39.585-.579.292-.001-.002c-2.688-5.368-4.122-11.337-5.005-17.183l-.001-.004v-.004l.642-.088" clip-rule="evenodd"/><path fill="#000" d="M219.761 152.125a4.892 4.892 0 0 0-2.088-1.785 4.831 4.831 0 0 0-2.8-.343 4.783 4.783 0 0 0-3.952 4.265l-6.688 1.173a4.2 4.2 0 0 0-.648-1.001l1.964-2.801a4.82 4.82 0 0 0 4.253-.489 4.818 4.818 0 0 0 2.14-4.884 4.814 4.814 0 0 0-2.824-3.578 4.82 4.82 0 0 0-2.765-.328 4.792 4.792 0 0 0-3.566 2.779 4.824 4.824 0 0 0-.343 2.795 4.692 4.692 0 0 0 .995 2.189l-1.994 2.84a4.849 4.849 0 0 0-2.396-.184 4.812 4.812 0 0 0-3.893 5.576c.11.637.348 1.244.7 1.785a4.839 4.839 0 0 0 2.088 1.784 4.818 4.818 0 0 0 6.354-2.448c.215-.467.347-.968.392-1.48l6.675-1.166c.086.185.186.364.298.534.091.139.19.273.295.402l-1.994 2.84a4.81 4.81 0 0 0-2.395-.181 4.819 4.819 0 0 0-3.119 1.973 4.82 4.82 0 0 0-.801 3.601 4.71 4.71 0 0 0 .701 1.784 4.896 4.896 0 0 0 2.087 1.788 4.826 4.826 0 0 0 6.78-4.078 4.81 4.81 0 0 0-1.113-3.416l1.945-2.795a4.832 4.832 0 0 0 2.477.21 4.842 4.842 0 0 0 3.585-2.82c.38-.868.496-1.829.334-2.763a4.872 4.872 0 0 0-.684-1.778Zm-14.718-5.525a2.215 2.215 0 0 1 1.78-1.691 2.216 2.216 0 0 1 2.574 1.801 2.227 2.227 0 0 1-2.684 2.555 2.229 2.229 0 0 1-1.109-.628 2.175 2.175 0 0 1-.583-1.16c-.055-.29-.047-.59.022-.877Zm-2.979 11.416a2.223 2.223 0 0 1-1.783 1.69 2.277 2.277 0 0 1-.882-.019 2.265 2.265 0 0 1-1.108-.628 2.187 2.187 0 0 1-.584-1.16 2.208 2.208 0 0 1 .649-1.978 2.203 2.203 0 0 1 2.039-.57 2.216 2.216 0 0 1 1.692 1.781c.053.293.045.594-.023.884Zm8.5 7.646a2.229 2.229 0 0 1-2.859 1.616 2.225 2.225 0 0 1-1.515-1.835 2.224 2.224 0 0 1 3.817-1.811c.301.317.501.716.577 1.146.053.293.046.594-.02.884Zm7.31-10.422a2.216 2.216 0 0 1-1.574 1.644 2.223 2.223 0 0 1-2.196-.601 2.263 2.263 0 0 1-.564-2.04c.098-.419.314-.801.623-1.101a2.2 2.2 0 0 1 1.16-.59 2.222 2.222 0 0 1 2.551 2.688Z"/><path fill="#84FCBF" d="m223.814 194.087-18.534 3.365a7.235 7.235 0 0 1-7.371-3.189 7.213 7.213 0 0 1 .128-8.025 7.238 7.238 0 0 1 4.65-2.997l18.536-3.365a7.242 7.242 0 0 1 5.41 1.165 7.215 7.215 0 0 1 1.833 10.049 7.224 7.224 0 0 1-4.649 2.997h-.003Z"/><path fill="#000" d="m223.813 194.088-.129-.742-18.537 3.365a6.45 6.45 0 0 1-5.291-1.383 6.478 6.478 0 0 1-2.137-6.627 6.483 6.483 0 0 1 5.11-4.734l18.537-3.365a6.493 6.493 0 0 1 5.29 1.383 6.443 6.443 0 0 1 2.247 3.831c.071.385.106.775.107 1.166a6.47 6.47 0 0 1-1.51 4.146 6.488 6.488 0 0 1-3.816 2.218l.133.735.136.732a7.977 7.977 0 0 0 5.131-3.304 7.961 7.961 0 0 0-2.018-11.086 7.98 7.98 0 0 0-5.966-1.288l-18.537 3.365a7.982 7.982 0 0 0-4.694 2.731 7.967 7.967 0 0 0-1.728 6.534 7.966 7.966 0 0 0 2.734 4.69 7.983 7.983 0 0 0 6.541 1.723l18.537-3.365-.14-.725Z"/><path fill="#fff" d="M229.474 185.719a7.223 7.223 0 0 1-7.246 8.498 7.233 7.233 0 0 1-6.596-4.576 7.215 7.215 0 0 1 1.705-7.84 7.238 7.238 0 0 1 9.146-.738 7.223 7.223 0 0 1 2.991 4.656Z"/><path fill="#000" d="m229.474 185.719-.733.133a6.482 6.482 0 0 1-8.569 7.246 6.487 6.487 0 0 1-3.41-2.83 6.47 6.47 0 0 1 1.401-8.205 6.49 6.49 0 0 1 8.331-.052 6.5 6.5 0 0 1 2.247 3.831l.733-.133.735-.133a7.961 7.961 0 0 0-3.012-4.921 7.983 7.983 0 0 0-10.722.959 7.966 7.966 0 0 0-1.959 6.812 7.967 7.967 0 0 0 6.162 6.363 7.967 7.967 0 0 0 8.242-3.252 7.965 7.965 0 0 0 1.289-5.961l-.735.143Z"/><path fill="#977657" d="M311.416 303.485c-6.736 1.295-14.212 0-20.459-2.643-4.088-1.736-8.36-4.715-12.727-5.505-4.506-.836-9.401.696-13.706 1.859-4.131 1.114-8.779 2.59-12.293-.467-3.015-2.623-4.075-7.675-4.912-12.29l-2.48-13.703c-.324-1.752-.648-3.563-.398-5.341a11.238 11.238 0 0 1 2.045-4.88c2.775-4.006 6.652-6.354 10.481-8.375 3.323-1.756 6.782-3.365 10.374-3.368 2.959 0 5.835 1.091 8.688 2.176l14.367 5.506c1.482.566 2.996 1.156 4.25 2.338 1.057 1.001 1.871 2.371 2.756 3.621 5.226 7.387 13.333 11.124 17.181 19.846 1.965 4.447 2.817 10.208 3.142 15.29.223 3.662-2.895 5.262-6.309 5.936Z"/><path fill="#fff" d="m260.812 256.224-69.909 12.442a6.61 6.61 0 0 1-6.718-2.94 6.573 6.573 0 0 1-.936-2.397l-24.78-138.937a6.585 6.585 0 0 1 1.086-4.928 6.6 6.6 0 0 1 4.256-2.718l69.922-12.443a6.596 6.596 0 0 1 7.658 5.334l24.777 138.937a6.59 6.59 0 0 1-2.952 6.717 6.618 6.618 0 0 1-2.404.933Z"/><path fill="#000" fill-rule="evenodd" d="M236.17 104.986a5.932 5.932 0 0 0-2.322-.045h-.001l-69.922 12.443a5.947 5.947 0 0 0-4.818 6.895l24.78 138.937a5.949 5.949 0 0 0 4.58 4.767 5.97 5.97 0 0 0 2.322.046l69.909-12.443.114.638-.112-.638a5.948 5.948 0 0 0 3.847-2.449 5.951 5.951 0 0 0 .982-4.449l-24.777-138.937a5.948 5.948 0 0 0-4.582-4.765Zm24.754 151.876.002-.001a7.256 7.256 0 0 0 4.683-2.981 7.22 7.22 0 0 0 1.197-5.419l-24.777-138.937a7.244 7.244 0 0 0-8.409-5.859m-.001.001-69.921 12.442a7.24 7.24 0 0 0-5.868 8.398l24.78 138.936m78.314-6.58-69.907 12.442" clip-rule="evenodd"/><path fill="#977657" d="M165.209 153.135c-3.297-1.256-11.194-4.787-14.611-5.612-1.945-.47-4.098-.418-5.78.647-4.921 3.132-1.573 9.93 1.296 13.259 5.398 6.283 15.512 12.631 22.693 16.634"/><path fill="#000" fill-rule="evenodd" d="M144.471 147.623c1.885-1.194 4.239-1.223 6.279-.73 1.765.426 4.64 1.536 7.442 2.674 1.128.458 2.247.922 3.287 1.354 1.575.653 2.973 1.232 3.961 1.609l-.462 1.21c-1.003-.382-2.434-.975-4.027-1.636-1.038-.43-2.145-.889-3.247-1.337-2.824-1.147-5.606-2.215-7.258-2.615m-5.281.565c-1.101.701-1.714 1.585-2.002 2.561-.293.991-.26 2.119.013 3.302.551 2.375 2.041 4.815 3.43 6.427 5.315 6.187 15.335 12.486 22.517 16.49l-.632 1.131c-7.179-4.002-17.387-10.397-22.868-16.776-1.48-1.718-3.099-4.341-3.71-6.98-.307-1.325-.368-2.692.006-3.96.378-1.283 1.191-2.423 2.55-3.288l.002-.001m.694 1.094c1.48-.937 3.431-1.011 5.28-.565l-5.28.565Z" clip-rule="evenodd"/><path fill="#977657" d="m257.46 256.823-53.227 10.765s11.191 14.017 35.546 15.546l8.844 8.932"/><path fill="#000" fill-rule="evenodd" d="m257.332 256.188.257 1.27L205.466 268c.332.351.778.803 1.34 1.329 1.403 1.314 3.531 3.088 6.414 4.911 5.762 3.645 14.545 7.49 26.6 8.247l.247.016 9.017 9.107-.922.911-8.67-8.757c-12.174-.809-21.084-4.709-26.966-8.429-2.959-1.872-5.151-3.698-6.607-5.06a30.413 30.413 0 0 1-1.636-1.644 18.136 18.136 0 0 1-.545-.625l-.008-.009-.002-.003-.001-.001c0-.001-.001-.001.506-.405l-.507.404-.661-.828 54.267-10.976Z" clip-rule="evenodd"/><path fill="#fff" d="m269.263 247.314-24.832-137.359a10.532 10.532 0 0 0-4.363-6.781 10.55 10.55 0 0 0-7.884-1.714l-66.969 12.086a10.545 10.545 0 0 0-8.43 8.127 10.525 10.525 0 0 0-.073 4.109l24.828 137.359a10.524 10.524 0 0 0 4.363 6.782 10.543 10.543 0 0 0 7.885 1.713l66.966-12.086a10.53 10.53 0 0 0 8.509-12.236Z"/><path fill="#000" fill-rule="evenodd" d="M232.069 100.822a11.201 11.201 0 0 1 8.369 1.82 11.179 11.179 0 0 1 4.631 7.197l24.832 137.36a11.15 11.15 0 0 1-1.821 8.365 11.202 11.202 0 0 1-3.145 3.029 11.2 11.2 0 0 1-4.067 1.594l-66.965 12.087a11.198 11.198 0 0 1-11.402-4.958 11.168 11.168 0 0 1-1.599-4.06l-24.829-137.359a11.178 11.178 0 0 1 9.027-12.988l66.969-12.087Zm.23 1.275-66.969 12.087a9.887 9.887 0 0 0-7.98 11.483l24.828 137.359a9.877 9.877 0 0 0 4.095 6.365 9.902 9.902 0 0 0 7.4 1.608l66.965-12.087h.001a9.891 9.891 0 0 0 6.376-4.087 9.871 9.871 0 0 0 1.61-7.396L243.793 110.07a9.882 9.882 0 0 0-4.095-6.364 9.903 9.903 0 0 0-7.399-1.609Z" clip-rule="evenodd"/><path fill="#977657" d="M165.854 230.694c.924.178 1.838.443 2.739.706 5.051 1.467 3.394 1.081 8.429 2.549 5.67 1.645 10.163 9.178 5.459 14.175-5.767 6.121-12.358 2.617-18.803.372-3.352-1.169-6.285-2.872-7.456-6.454-1.66-5.01 1.414-11.235 7.006-11.559.88-.041 1.763.03 2.626.211Z"/><path fill="#000" fill-rule="evenodd" d="M163.262 231.13c-2.54.148-4.523 1.631-5.692 3.694-1.175 2.074-1.501 4.693-.732 7.014l.001.003c1.073 3.287 3.759 4.895 7.053 6.044m-.63-16.755a9.81 9.81 0 0 1 2.459.198l.005.001.005.001c.889.171 1.775.428 2.681.692 2.52.732 3.363 1 4.204 1.269l.02.007c.845.27 1.702.543 4.204 1.272l.001.001c2.641.766 5.04 2.923 6.211 5.478 1.16 2.531 1.089 5.366-1.044 7.631-2.721 2.889-5.594 3.495-8.595 3.124-2.365-.291-4.764-1.178-7.241-2.093-.752-.278-1.512-.559-2.28-.826m2.089-17.826a11.111 11.111 0 0 0-2.783-.223h-.004l-.004.001c-3.051.176-5.399 1.968-6.749 4.349-1.344 2.372-1.725 5.37-.835 8.058 1.267 3.876 4.449 5.675 7.859 6.864.709.247 1.43.514 2.159.783 2.505.927 5.101 1.887 7.63 2.199 3.348.413 6.653-.289 9.699-3.522 2.572-2.732 2.606-6.162 1.278-9.058-1.317-2.873-4-5.304-7.028-6.183-2.487-.725-3.334-.996-4.167-1.262l-.025-.008c-.852-.272-1.706-.544-4.237-1.279m0 0c-.895-.261-1.836-.535-2.793-.719l2.793.719Z" clip-rule="evenodd"/><path fill="#fff" d="m250.173 254.012-55.111 10.101a5.38 5.38 0 0 1-6.257-4.291l-25.419-134.639a5.066 5.066 0 0 1 2.288-5.272 5.076 5.076 0 0 1 1.898-.707l7.987-1.444a1.666 1.666 0 0 1 1.864 1.065 7.98 7.98 0 0 0 8.912 5.095l29.941-5.386a7.986 7.986 0 0 0 6.568-7.841v-.016a1.717 1.717 0 0 1 1.41-1.687l6.312-1.144a6.077 6.077 0 0 1 7.084 4.913l5.057 28.665"/><path fill="#000" fill-rule="evenodd" d="M232.811 108.514a5.439 5.439 0 0 0-2.127-.031l-.002.001-6.311 1.143c-.001 0 0 0 0 0a1.068 1.068 0 0 0-.878 1.05v.017a8.626 8.626 0 0 1-7.101 8.477l-29.942 5.386a8.635 8.635 0 0 1-9.635-5.508 1.022 1.022 0 0 0-1.14-.652l-7.995 1.446-.008.001a4.41 4.41 0 0 0-2.935 1.831 4.412 4.412 0 0 0-.714 3.383v.002l25.419 134.642a4.73 4.73 0 0 0 5.503 3.774l55.111-10.101.234 1.274-55.111 10.101a6.03 6.03 0 0 1-7.011-4.808L162.75 125.308v-.003a5.697 5.697 0 0 1 .924-4.372 5.718 5.718 0 0 1 3.789-2.367l7.981-1.444a2.316 2.316 0 0 1 2.588 1.48 7.326 7.326 0 0 0 3.24 3.83 7.34 7.34 0 0 0 4.948.85l29.941-5.386a7.33 7.33 0 0 0 6.035-7.204v-.016a2.369 2.369 0 0 1 1.942-2.324l6.31-1.143h.001a6.735 6.735 0 0 1 5.053 1.087 6.718 6.718 0 0 1 2.786 4.351l5.057 28.665-1.277.225-5.057-28.665a5.418 5.418 0 0 0-4.2-4.358Z" clip-rule="evenodd"/><path fill="#977657" d="M159.149 191.218c.924.178 1.838.444 2.74.706l15.145 4.401c5.67 1.649 10.163 9.179 5.46 14.176-5.768 6.121-19.062.764-25.5-1.48-3.352-1.169-6.286-2.873-7.457-6.455-1.656-5.01 1.414-11.235 7.006-11.558.874-.039 1.75.031 2.606.21Z"/><path fill="#000" fill-rule="evenodd" d="M156.576 191.655c-2.539.148-4.521 1.63-5.69 3.694-1.175 2.073-1.5 4.693-.733 7.014l.001.002c1.074 3.287 3.759 4.895 7.053 6.044.463.162.958.338 1.481.524 3.152 1.122 7.317 2.604 11.42 3.327 4.825.85 9.276.596 11.913-2.203 2.132-2.265 2.204-5.1 1.044-7.63-1.172-2.554-3.57-4.712-6.212-5.48l-15.145-4.401c-.906-.264-1.792-.52-2.682-.692l-.004-.001-.005-.001a9.804 9.804 0 0 0-2.441-.197Zm2.701-1.072a11.093 11.093 0 0 0-2.763-.222H156.505c-3.051.177-5.398 1.968-6.747 4.35-1.344 2.372-1.725 5.369-.837 8.057 1.267 3.876 4.449 5.675 7.859 6.864.45.158.937.331 1.455.515 3.145 1.12 7.427 2.645 11.648 3.389 4.873.859 9.953.731 13.083-2.591 2.571-2.732 2.605-6.161 1.278-9.057-1.317-2.872-4-5.304-7.029-6.184l-15.145-4.402c-.895-.26-1.836-.534-2.793-.719Z" clip-rule="evenodd"/><path fill="#977657" d="M159.149 209.737c.924.181 1.839.443 2.74.706l15.145 4.401c5.67 1.648 10.163 9.181 5.46 14.175-5.768 6.125-19.062.768-25.5-1.476-3.352-1.17-6.286-2.876-7.456-6.458-1.67-5.01 1.4-11.222 6.992-11.546.878-.044 1.758.022 2.619.198Z"/><path fill="#000" fill-rule="evenodd" d="M156.565 210.186c-2.54.148-4.523 1.628-5.69 3.688-1.173 2.069-1.496 4.685-.722 7.006l.001.004c1.074 3.287 3.76 4.898 7.053 6.047.463.161.958.337 1.481.523 3.152 1.122 7.317 2.604 11.42 3.327 4.825.85 9.276.595 11.913-2.206 2.132-2.263 2.204-5.098 1.044-7.628-1.172-2.555-3.57-4.713-6.212-5.481l-15.145-4.402c-.904-.263-1.792-.517-2.684-.692l.125-.636-.129.635a9.817 9.817 0 0 0-2.455-.185Zm2.712-1.085a11.13 11.13 0 0 0-2.78-.209h-.004c-3.051.177-5.399 1.965-6.747 4.343-1.342 2.37-1.72 5.364-.824 8.052 1.267 3.876 4.448 5.678 7.858 6.867.45.157.937.33 1.454.515 3.146 1.12 7.428 2.644 11.649 3.388 4.873.858 9.953.73 13.083-2.594 2.572-2.73 2.605-6.159 1.278-9.056-1.317-2.872-4-5.305-7.028-6.185l-15.146-4.401c-.898-.262-1.838-.532-2.793-.72Z" clip-rule="evenodd"/><path fill="#977657" d="m318.938 297.529-1.991-8.213c-.168-2.056-23.665-59.111-26.239-66.136-2.574-7.024-20.747-43.006-20.747-43.006-2.646-5.282-4.066-11.176-4.944-16.989 0 0-1.602-11.611-2.088-18.671-.198-2.882-4.26-4.777-6.989-3.818-3.566 1.246-6.542 3.734-8.176 8.767a13.39 13.39 0 0 0-.476 5.929l4.817 60.764c-16.122 39.75 14.912 58.424 14.912 58.424"/><path fill="#000" fill-rule="evenodd" d="M260.682 140.589c1.497.774 2.774 2.132 2.894 3.881.242 3.512.762 8.165 1.223 11.949a485.686 485.686 0 0 0 .842 6.546l.018.127c.873 5.779 2.279 11.596 4.881 16.792v.001l-.579.289-.579.293.204.405.581 1.153a2269.358 2269.358 0 0 1 8.62 17.304c4.875 9.892 10.04 20.603 11.312 24.074 1.004 2.738 5.164 13.025 9.883 24.692 1.357 3.355 2.759 6.823 4.146 10.258 3.109 7.7 6.141 15.242 8.407 20.987a484.24 484.24 0 0 1 2.735 7.059c.331.883.59 1.598.769 2.122.09.262.158.471.203.627.038.127.052.192.057.214l.002.007.004.05 2.002 8.263 1.261-.305-1.982-8.177a3.061 3.061 0 0 0-.1-.417 17.63 17.63 0 0 0-.219-.681c-.185-.541-.45-1.27-.783-2.157a481.4 481.4 0 0 0-2.743-7.08c-2.267-5.75-5.302-13.297-8.41-20.996-1.392-3.449-2.799-6.927-4.158-10.288-4.716-11.659-8.861-21.908-9.856-24.624-1.302-3.553-6.511-14.346-11.366-24.2a2367.402 2367.402 0 0 0-9.207-18.468l-.204-.404m-5.523-16.7-.642.088-.019-.133-.051-.382a510.699 510.699 0 0 1-.793-6.183c-.462-3.787-.985-8.469-1.23-12.017-.077-1.133-.93-2.164-2.196-2.818-1.262-.653-2.772-.84-3.931-.433-3.38 1.181-6.204 3.52-7.773 8.352a12.752 12.752 0 0 0-.453 5.641l.003.02 4.831 60.937-.057.142c-7.981 19.677-4.279 34.072 1.366 43.544 2.831 4.749 6.159 8.276 8.78 10.615a40.3 40.3 0 0 0 3.242 2.617 26.158 26.158 0 0 0 1.179.802l.061.038.014.009.004.002-.335.554-.335.555-.002-.002-.006-.003-.019-.012a26.97 26.97 0 0 1-1.319-.892c-.833-.6-2-1.499-3.348-2.702-2.694-2.404-6.117-6.03-9.03-10.918-5.827-9.779-9.577-24.551-1.512-44.552l-4.803-60.59a14.035 14.035 0 0 1 .502-6.195l.001-.003.001-.003c1.698-5.231 4.827-7.867 8.578-9.179 1.571-.551 3.456-.271 4.957.505m9.279 39.585-.579.293-.001-.003c-2.688-5.368-4.122-11.337-5.005-17.183l-.001-.004v-.004l.642-.088" clip-rule="evenodd"/><path fill="#000" d="M219.761 152.125a4.892 4.892 0 0 0-2.088-1.785 4.831 4.831 0 0 0-2.8-.343 4.783 4.783 0 0 0-3.952 4.265l-6.688 1.173a4.2 4.2 0 0 0-.648-1.001l1.964-2.801a4.82 4.82 0 0 0 4.253-.489 4.818 4.818 0 0 0 2.14-4.884 4.814 4.814 0 0 0-2.824-3.578 4.82 4.82 0 0 0-2.765-.328 4.792 4.792 0 0 0-3.566 2.779 4.824 4.824 0 0 0-.343 2.795 4.692 4.692 0 0 0 .995 2.189l-1.994 2.84a4.849 4.849 0 0 0-2.396-.184 4.812 4.812 0 0 0-3.893 5.576c.11.637.348 1.244.7 1.785a4.839 4.839 0 0 0 2.088 1.784 4.818 4.818 0 0 0 6.354-2.448c.215-.467.347-.968.392-1.48l6.675-1.166c.086.185.186.364.298.534.091.139.19.273.295.402l-1.994 2.84a4.81 4.81 0 0 0-2.395-.181 4.819 4.819 0 0 0-3.119 1.973 4.82 4.82 0 0 0-.801 3.601 4.71 4.71 0 0 0 .701 1.784 4.896 4.896 0 0 0 2.087 1.788 4.826 4.826 0 0 0 6.78-4.078 4.81 4.81 0 0 0-1.113-3.416l1.945-2.795a4.832 4.832 0 0 0 2.477.21 4.842 4.842 0 0 0 3.585-2.82c.38-.868.496-1.829.334-2.763a4.872 4.872 0 0 0-.684-1.778Zm-14.718-5.525a2.215 2.215 0 0 1 1.78-1.691 2.216 2.216 0 0 1 2.574 1.801 2.227 2.227 0 0 1-2.684 2.555 2.229 2.229 0 0 1-1.109-.628 2.175 2.175 0 0 1-.583-1.16c-.055-.29-.047-.59.022-.877Zm-2.979 11.416a2.223 2.223 0 0 1-1.783 1.69 2.277 2.277 0 0 1-.882-.019 2.265 2.265 0 0 1-1.108-.628 2.187 2.187 0 0 1-.584-1.16 2.208 2.208 0 0 1 .649-1.978 2.203 2.203 0 0 1 2.039-.57 2.216 2.216 0 0 1 1.692 1.781c.053.293.045.594-.023.884Zm8.5 7.646a2.229 2.229 0 0 1-2.859 1.616 2.225 2.225 0 0 1-1.515-1.835 2.224 2.224 0 0 1 3.817-1.811c.301.317.501.716.577 1.146.053.293.046.594-.02.884Zm7.31-10.422a2.216 2.216 0 0 1-1.574 1.644 2.223 2.223 0 0 1-2.196-.601 2.263 2.263 0 0 1-.564-2.04c.098-.419.314-.801.623-1.101a2.2 2.2 0 0 1 1.16-.59 2.222 2.222 0 0 1 2.551 2.688Z"/><path fill="#84FCBF" d="m223.814 194.087-18.534 3.365a7.235 7.235 0 0 1-7.371-3.189 7.213 7.213 0 0 1 .128-8.025 7.238 7.238 0 0 1 4.65-2.997l18.536-3.365a7.242 7.242 0 0 1 5.41 1.165 7.215 7.215 0 0 1 1.833 10.049 7.224 7.224 0 0 1-4.649 2.997h-.003Z"/><path fill="#000" d="m223.813 194.088-.129-.742-18.537 3.365a6.45 6.45 0 0 1-5.291-1.383 6.478 6.478 0 0 1-2.137-6.627 6.483 6.483 0 0 1 5.11-4.734l18.537-3.365a6.493 6.493 0 0 1 5.29 1.383 6.443 6.443 0 0 1 2.247 3.831c.071.385.106.775.107 1.166a6.47 6.47 0 0 1-1.51 4.146 6.488 6.488 0 0 1-3.816 2.218l.133.735.136.732a7.977 7.977 0 0 0 5.131-3.304 7.961 7.961 0 0 0-2.018-11.086 7.98 7.98 0 0 0-5.966-1.288l-18.537 3.365a7.982 7.982 0 0 0-4.694 2.731 7.967 7.967 0 0 0-1.728 6.534 7.966 7.966 0 0 0 2.734 4.69 7.983 7.983 0 0 0 6.541 1.723l18.537-3.365-.14-.725Z"/><path fill="#fff" d="M229.474 185.719a7.223 7.223 0 0 1-7.246 8.498 7.233 7.233 0 0 1-6.596-4.576 7.215 7.215 0 0 1 1.705-7.84 7.238 7.238 0 0 1 9.146-.738 7.223 7.223 0 0 1 2.991 4.656Z"/><path fill="#000" d="m229.474 185.719-.733.133a6.482 6.482 0 0 1-8.569 7.246 6.487 6.487 0 0 1-3.41-2.83 6.47 6.47 0 0 1 1.401-8.205 6.49 6.49 0 0 1 8.331-.052 6.5 6.5 0 0 1 2.247 3.831l.733-.133.735-.133a7.961 7.961 0 0 0-3.012-4.921 7.983 7.983 0 0 0-10.722.959 7.966 7.966 0 0 0-1.959 6.812 7.967 7.967 0 0 0 6.162 6.363 7.967 7.967 0 0 0 8.242-3.252 7.965 7.965 0 0 0 1.289-5.961l-.735.143Z"/><path fill="#fff" d="m174.567 26.916 3.806 20.216a53.619 53.619 0 0 1-4.538 33.63 54.607 54.607 0 0 1-23.059 24.144.504.504 0 0 1-.273.051 54.67 54.67 0 0 1-30.232-14.133 53.657 53.657 0 0 1-16.436-29.695l-3.803-20.215a.458.458 0 0 1 .324-.525 17.41 17.41 0 0 0 9.397-6.805 17.385 17.385 0 0 0 3.029-11.192.456.456 0 0 1 .357-.492l42.292-7.942a.454.454 0 0 1 .525.324 17.402 17.402 0 0 0 6.891 9.34 17.43 17.43 0 0 0 11.237 2.935.461.461 0 0 1 .483.36Z"/><path fill="#000" fill-rule="evenodd" d="m155.384 14.626-41.944 7.876a18.032 18.032 0 0 1-3.153 11.45 18.062 18.062 0 0 1-9.586 7.01l3.771 20.049a53.006 53.006 0 0 0 16.238 29.336l.001.002a54.032 54.032 0 0 0 29.81 13.958 53.95 53.95 0 0 0 22.73-23.828l.001-.002a52.966 52.966 0 0 0 4.484-33.224v-.002l-3.772-20.035a18.074 18.074 0 0 1-11.48-3.057 18.048 18.048 0 0 1-7.1-9.533Zm19.183 12.29.633-.14a1.103 1.103 0 0 0-1.163-.865h-.007a16.779 16.779 0 0 1-10.819-2.825 16.75 16.75 0 0 1-6.633-8.986 1.1 1.1 0 0 0-1.272-.777l-42.287 7.94a1.102 1.102 0 0 0-.883 1.186 16.73 16.73 0 0 1-2.917 10.768 16.76 16.76 0 0 1-9.044 6.55 1.105 1.105 0 0 0-.78 1.267l3.802 20.213A54.305 54.305 0 0 0 119.831 91.3a55.32 55.32 0 0 0 30.611 14.302 1.148 1.148 0 0 0 .644-.127 55.257 55.257 0 0 0 23.332-24.43 54.268 54.268 0 0 0 4.592-34.034l-3.806-20.215-.637.12Zm-73.898 13.876v.002-.002Z" clip-rule="evenodd"/><path fill="#6F4AE7" d="M168.382 77.403A45.108 45.108 0 0 1 149.34 97.34a.381.381 0 0 1-.224.042 45.14 45.14 0 0 1-24.988-11.659 44.283 44.283 0 0 1-13.583-24.539l-3.141-16.695a.38.38 0 0 1 .269-.434 14.382 14.382 0 0 0 7.759-5.62 14.353 14.353 0 0 0 2.501-9.242.38.38 0 0 1 .305-.405l15.81-2.97 19.127-3.588a.384.384 0 0 1 .434.265 14.368 14.368 0 0 0 5.69 7.707 14.388 14.388 0 0 0 9.274 2.42.38.38 0 0 1 .409.325l3.141 16.695a44.27 44.27 0 0 1-3.741 27.761Z"/><path fill="#5D42D1" d="M149.34 97.334a.383.383 0 0 1-.224.042 45.14 45.14 0 0 1-24.988-11.66 44.286 44.286 0 0 1-13.583-24.532l-3.141-16.695a.38.38 0 0 1 .269-.434 14.382 14.382 0 0 0 7.759-5.62 14.353 14.353 0 0 0 2.501-9.242.381.381 0 0 1 .305-.405l15.81-2.97 1.349.175 13.943 71.34Z"/><path fill="#fff" d="M155.986 50.93c-.036.059-.072.117-.111.172l-12.393 19.39a3.456 3.456 0 0 1-3.511 1.539 3.446 3.446 0 0 1-1.254-.49l-8.368-5.334a3.448 3.448 0 0 1-1.053-4.76l.058-.088a3.454 3.454 0 0 1 2.164-1.51 3.448 3.448 0 0 1 2.598.46l5.119 3.262a.41.41 0 0 0 .564-.12l10.261-16.054a3.449 3.449 0 0 1 3.487-1.721 3.462 3.462 0 0 1 2.303 1.374 3.442 3.442 0 0 1 .623 2.607 3.458 3.458 0 0 1-.487 1.277v-.003Z"/><path fill="#fff" fill-rule="evenodd" d="M153.412 46.638a2.482 2.482 0 0 0-2.533 1.282l-10.26 16.054-.82-.523.815.53a1.381 1.381 0 0 1-1.904.408l-5.118-3.26a2.474 2.474 0 0 0-3.429.77l-.052.078a2.479 2.479 0 0 0 .762 3.411l8.367 5.335a2.475 2.475 0 0 0 2.753-.057 2.47 2.47 0 0 0 .669-.697l12.394-19.39a2.779 2.779 0 0 0 .1-.155 2.466 2.466 0 0 0 .323-1.908 2.476 2.476 0 0 0-2.067-1.878Zm3.272 5.004-12.382 19.373a4.427 4.427 0 0 1-6.109 1.345m0 0-8.367-5.334a4.422 4.422 0 0 1-1.339-6.118l.053-.08a4.41 4.41 0 0 1 2.768-1.928 4.422 4.422 0 0 1 3.332.591l4.645 2.96 9.941-15.555a4.436 4.436 0 0 1 2.706-2.077 4.427 4.427 0 0 1 5.439 3.246 4.414 4.414 0 0 1-.588 3.425 3.087 3.087 0 0 1-.099.152" clip-rule="evenodd"/></g><defs><clipPath id="a"><path fill="#fff" d="M0 0h450v304H0z"/></clipPath></defs></svg>
