<svg xmlns="http://www.w3.org/2000/svg" width="225" height="177" fill="none" viewBox="0 0 225 177"><g clip-path="url(#a)"><path fill="#C3C5FF" d="M98.364 94.693h-79.34a2.623 2.623 0 0 0-2.622 2.625v60.567a2.623 2.623 0 0 0 2.622 2.625h79.34a2.624 2.624 0 0 0 2.622-2.625V97.318a2.624 2.624 0 0 0-2.622-2.625Z"/><path fill="#C2C6FF" fill-rule="evenodd" d="M19.024 94.832a2.485 2.485 0 0 0-2.484 2.487v60.566a2.485 2.485 0 0 0 2.484 2.487h79.34a2.486 2.486 0 0 0 2.484-2.487V97.319a2.486 2.486 0 0 0-2.484-2.487h-79.34Zm-2.76 2.487a2.761 2.761 0 0 1 2.76-2.764h79.34a2.762 2.762 0 0 1 2.76 2.763v60.567a2.762 2.762 0 0 1-2.76 2.763h-79.34a2.761 2.761 0 0 1-2.76-2.763V97.319Z" clip-rule="evenodd"/><path fill="#000" d="M51.61 5.645a.485.485 0 0 1-.485-.486v-4.4a.487.487 0 0 1 .969 0v4.4a.483.483 0 0 1-.483.486Z"/><path fill="#000" fill-rule="evenodd" d="M51.61.587a.21.21 0 0 0-.21.186v4.386a.21.21 0 0 0 .402.081.205.205 0 0 0 .016-.08V.773a.21.21 0 0 0-.209-.186Zm-.519-.35A.761.761 0 0 1 52.37.74v4.42" clip-rule="evenodd"/><path fill="#000" d="M54.301 2.96a.483.483 0 0 1-.483.486h-4.393a.485.485 0 0 1 0-.97h4.394a.483.483 0 0 1 .482.483Z"/><path fill="#000" fill-rule="evenodd" d="M49.414 2.2h4.404a.759.759 0 0 1 .76.759m-5.14-.207a.21.21 0 0 0 0 .417h4.38a.207.207 0 0 0 .207-.208v-.002a.207.207 0 0 0-.207-.207h-4.38ZM80.358 172.673a1.61 1.61 0 0 0-1.609 1.611 1.61 1.61 0 1 0 1.609-1.611Zm-2.713 1.611c0-1.5 1.215-2.716 2.713-2.716a2.714 2.714 0 0 1 2.713 2.716c0 1.5-1.215 2.716-2.713 2.716a2.715 2.715 0 0 1-2.713-2.716ZM2.713 133.606a1.61 1.61 0 1 0 .002 3.22 1.61 1.61 0 0 0-.002-3.22ZM0 135.217c0-1.5 1.215-2.717 2.713-2.717a2.715 2.715 0 0 1 2.713 2.717c0 1.5-1.215 2.716-2.713 2.716A2.715 2.715 0 0 1 0 135.217Z" clip-rule="evenodd"/><path fill="#C3C5FF" d="M182.801 29.952H27.329v28H182.8v-28Z" style="mix-blend-mode:multiply"/><path fill="#C2C6FF" fill-rule="evenodd" d="M27.19 29.952c0-.076.063-.138.139-.138H182.8c.076 0 .138.062.138.138v28a.138.138 0 0 1-.138.14H27.329a.138.138 0 0 1-.138-.14v-28Zm.277.138v27.725h155.196V30.09H27.467Z" clip-rule="evenodd" style="mix-blend-mode:multiply"/><path fill="#fff" d="M182.801 58.76H27.329v91.656H182.8V58.76Z"/><path fill="#000" fill-rule="evenodd" d="M26.366 30.363c0-.305.247-.552.552-.552h155.477c.305 0 .552.247.552.552v119.053a2.175 2.175 0 0 1-.633 1.53 2.158 2.158 0 0 1-1.528.634H28.526a2.154 2.154 0 0 1-1.527-.634 2.16 2.16 0 0 1-.633-1.53V30.364Zm1.104.553v118.5a1.056 1.056 0 0 0 1.057 1.058h152.259a1.063 1.063 0 0 0 .748-.309 1.063 1.063 0 0 0 .309-.749v-118.5H27.47Z" clip-rule="evenodd"/><path fill="#000" fill-rule="evenodd" d="M182.395 58.668H26.917v-1.105h155.478v1.105ZM40.519 42.524a2.764 2.764 0 0 0-2.763 2.766 2.764 2.764 0 0 0 2.763 2.766 2.764 2.764 0 0 0 2.762-2.766 2.764 2.764 0 0 0-2.762-2.766Zm-3.867 2.766a3.869 3.869 0 0 1 3.867-3.871 3.869 3.869 0 0 1 3.866 3.87 3.869 3.869 0 0 1-3.866 3.872 3.869 3.869 0 0 1-3.867-3.871ZM55.375 42.32a2.764 2.764 0 0 0-2.762 2.765 2.764 2.764 0 0 0 2.762 2.766 2.764 2.764 0 0 0 2.763-2.766 2.764 2.764 0 0 0-2.763-2.766Zm-3.866 2.765a3.869 3.869 0 0 1 3.866-3.87 3.869 3.869 0 0 1 3.867 3.87 3.869 3.869 0 0 1-3.867 3.871 3.869 3.869 0 0 1-3.866-3.87ZM70.234 42.32a2.764 2.764 0 0 0-2.762 2.765 2.764 2.764 0 0 0 2.762 2.766 2.764 2.764 0 0 0 2.763-2.766 2.764 2.764 0 0 0-2.763-2.766Zm-3.866 2.765a3.869 3.869 0 0 1 3.866-3.87 3.869 3.869 0 0 1 3.867 3.87 3.869 3.869 0 0 1-3.867 3.871 3.869 3.869 0 0 1-3.866-3.87Z" clip-rule="evenodd"/><path fill="#AD79FF" d="M190.429 118.486h-60.718a4.676 4.676 0 0 0-4.673 4.678v44.279a4.675 4.675 0 0 0 4.673 4.677h60.718a4.675 4.675 0 0 0 4.673-4.677v-44.279a4.676 4.676 0 0 0-4.673-4.678Z"/><path fill="#000" fill-rule="evenodd" d="M129.711 119.039a4.123 4.123 0 0 0-4.121 4.125v44.278a4.123 4.123 0 0 0 4.121 4.126h60.718a4.123 4.123 0 0 0 4.121-4.126v-44.278a4.123 4.123 0 0 0-4.121-4.125h-60.718Zm-5.225 4.125a5.227 5.227 0 0 1 5.225-5.23h60.718a5.227 5.227 0 0 1 5.225 5.23v44.278a5.228 5.228 0 0 1-5.225 5.231h-60.718a5.228 5.228 0 0 1-5.225-5.231v-44.278Z" clip-rule="evenodd"/><path fill="#fff" d="M141.532 118.193v-13.354c0-4.922 1.953-9.642 5.43-13.123a18.525 18.525 0 0 1 26.217 0 18.573 18.573 0 0 1 5.43 13.123v13.354h10.509v-12.502c0-7.713-3.06-15.11-8.508-20.564a29.03 29.03 0 0 0-20.54-8.518 29.032 29.032 0 0 0-20.54 8.518 29.097 29.097 0 0 0-8.508 20.564v12.502h10.51Z"/><path fill="#000" fill-rule="evenodd" d="M139.139 84.736a29.585 29.585 0 0 1 20.931-8.68c7.85 0 15.379 3.123 20.93 8.68a29.652 29.652 0 0 1 8.67 20.955v12.502a.552.552 0 0 1-.552.553h-10.51a.552.552 0 0 1-.552-.553v-13.354c0-4.775-1.895-9.355-5.268-12.732a17.976 17.976 0 0 0-12.718-5.275c-4.77 0-9.345 1.898-12.718 5.275a18.015 18.015 0 0 0-5.269 12.732v13.354a.552.552 0 0 1-.552.553h-10.509a.552.552 0 0 1-.552-.553v-12.502c0-7.86 3.118-15.397 8.669-20.955Zm20.931-7.574a28.48 28.48 0 0 0-20.15 8.356 28.546 28.546 0 0 0-8.346 20.173v11.95h9.406v-12.802c0-5.068 2.011-9.93 5.591-13.514a19.08 19.08 0 0 1 13.499-5.598 19.08 19.08 0 0 1 13.499 5.598 19.123 19.123 0 0 1 5.591 13.514v12.802h9.406v-11.95a28.546 28.546 0 0 0-8.346-20.173 28.48 28.48 0 0 0-20.15-8.356Z" clip-rule="evenodd"/><path fill="#fff" d="M167.652 141.174a7.597 7.597 0 0 1-3.538 6.421v5.383a4.048 4.048 0 0 1-4.044 4.048 4.044 4.044 0 0 1-4.043-4.048v-5.383a7.588 7.588 0 0 1-3.535-6.642 7.584 7.584 0 0 1 7.688-7.368 7.586 7.586 0 0 1 7.472 7.589Z"/><path fill="#000" fill-rule="evenodd" d="M160.172 134.138a7.022 7.022 0 0 0-6.103 3.371 7.051 7.051 0 0 0-.203 6.975 7.04 7.04 0 0 0 2.455 2.644c.16.101.258.277.258.467v5.383c0 .927.368 1.816 1.022 2.471a3.488 3.488 0 0 0 4.938 0 3.498 3.498 0 0 0 1.022-2.471v-5.383c0-.19.098-.366.258-.467a7.037 7.037 0 0 0 3.281-5.954h.552-.552a7.038 7.038 0 0 0-6.928-7.036Zm8.032 7.036a8.161 8.161 0 0 0-1.071-4.037 8.134 8.134 0 0 0-6.945-4.104 8.132 8.132 0 0 0-7.061 3.9 8.146 8.146 0 0 0 2.348 10.96v5.085c0 1.22.484 2.39 1.346 3.253a4.589 4.589 0 0 0 6.498 0 4.603 4.603 0 0 0 1.346-3.253v-5.085a8.15 8.15 0 0 0 3.539-6.719" clip-rule="evenodd"/><path fill="#6F4AE7" d="M77.53 93.635a3.235 3.235 0 0 0-4.417-1.185l-7.1 4.106v-8.212a3.243 3.243 0 0 0-3.237-3.147 3.235 3.235 0 0 0-3.236 3.147v8.212l-7.101-4.106a3.236 3.236 0 0 0-4.743 3.645 3.242 3.242 0 0 0 1.508 1.967l7.099 4.106-7.102 4.105a3.25 3.25 0 0 0-1.507 1.968 3.245 3.245 0 0 0 1.156 3.409 3.235 3.235 0 0 0 3.589.235l7.104-4.106v8.209a3.251 3.251 0 0 0 .913 2.353 3.24 3.24 0 0 0 3.584.727 3.24 3.24 0 0 0 1.975-3.08v-8.209l7.101 4.106a3.235 3.235 0 0 0 4.359-1.221 3.246 3.246 0 0 0-1.121-4.391l-7.105-4.105 7.105-4.106a3.234 3.234 0 0 0 1.503-1.97 3.243 3.243 0 0 0-.328-2.457ZM118.953 93.635a3.236 3.236 0 0 0-4.416-1.185l-7.101 4.106v-8.212a3.246 3.246 0 0 0-.981-2.23 3.234 3.234 0 0 0-4.511 0 3.24 3.24 0 0 0-.98 2.23v8.212l-7.105-4.106a3.234 3.234 0 0 0-4.894 2.364 3.243 3.243 0 0 0 1.657 3.248l7.104 4.106-7.104 4.105a3.243 3.243 0 0 0 .81 5.891 3.235 3.235 0 0 0 2.427-.279l7.105-4.106v8.209a3.242 3.242 0 0 0 1.975 3.08 3.23 3.23 0 0 0 3.583-.727 3.237 3.237 0 0 0 .914-2.353v-8.209l7.101 4.106a3.235 3.235 0 0 0 4.358-1.221 3.244 3.244 0 0 0-1.121-4.391l-7.101-4.105 7.093-4.106a3.24 3.24 0 0 0 1.187-4.427Z"/><path fill="#000" fill-rule="evenodd" d="M205.962 138.345a.552.552 0 0 1 .78-.031l8.705 8.046a.553.553 0 0 1-.749.812l-8.705-8.046a.554.554 0 0 1-.031-.781ZM212.351 126.173a.551.551 0 0 1 .66-.417l11.559 2.614a.552.552 0 0 1-.244 1.078l-11.558-2.614a.554.554 0 0 1-.417-.661ZM224.175 108.585a.554.554 0 0 1-.363.692l-11.316 3.523a.552.552 0 0 1-.328-1.056l11.316-3.523c.291-.09.6.073.691.364ZM213.258 91.287a.553.553 0 0 1 .031.78l-8.037 8.713a.552.552 0 1 1-.811-.75l8.037-8.712a.552.552 0 0 1 .78-.031Z" clip-rule="evenodd"/></g><defs><clipPath id="a"><path fill="#fff" d="M0 0h225v177H0z"/></clipPath></defs></svg>
