<svg xmlns="http://www.w3.org/2000/svg" width="41" height="41" fill="none" viewBox="0 0 41 41"><g clip-path="url(#a)"><path fill="#D9BFFF" stroke="#141422" stroke-linecap="round" stroke-linejoin="round" d="M16.244 34.65a.64.64 0 0 1-.395.183L5.657 37.028a.633.633 0 0 1-.684-.687L7.17 26.145a.631.631 0 0 1 .183-.396l14.38-14.38a.635.635 0 0 1 .897 0l8 8a.636.636 0 0 1 0 .896L16.25 34.646l-.005.004Z"/><path fill="#9059FF" stroke="#141422" d="M27.467 5.634a1.904 1.904 0 0 1 2.692 0l6.205 6.204a1.904 1.904 0 0 1 0 2.692l-5.29 5.29-8.897-8.896 5.29-5.29Z"/><path stroke="#141422" stroke-linecap="round" stroke-linejoin="round" d="M24.224 17.776 15.6 26.4"/><path fill="#fff" d="M15.849 34.832 5.657 37.028a.633.633 0 0 1-.684-.687L7.17 26.145"/><path stroke="#141422" d="M15.849 34.832 5.657 37.028a.633.633 0 0 1-.684-.687L7.17 26.145"/><path fill="#141422" d="m9.363 36.224-3.082.847-1.14-.38V35.17l.627-2.537 3.595 3.595v-.004Z"/><path fill="#D9BFFF" d="m16.084 34.81-8.896-8.897 8.896 8.897Z"/><path stroke="#141422" d="m16.084 34.81-8.896-8.897"/></g><defs><clipPath id="a"><path fill="#fff" d="M4 4h33.451v34.248H4z"/></clipPath></defs></svg>
