<svg xmlns="http://www.w3.org/2000/svg" width="41" height="41" fill="none" viewBox="0 0 41 41"><path fill="#D9BFFF" stroke="#141422" stroke-miterlimit="10" d="M20.476 38.222c-.971 0-1.942-.25-2.801-.725-3.706-2.107-7.115-5.343-9.624-9.123-1.287-1.949-2.19-4.324-2.69-7.04L4.099 14.5a5.624 5.624 0 0 1 2.869-6l10.685-5.82a5.615 5.615 0 0 1 5.356 0l10.955 5.91a5.66 5.66 0 0 1 2.87 6.023l-1.242 6.722c-.495 2.716-1.4 5.072-2.69 7.017-2.486 3.78-5.895 7.04-9.623 9.146-.859.498-1.83.725-2.802.725Z"/><path stroke="#141422" stroke-miterlimit="10" d="M24.597 16.422v-2.738a4.312 4.312 0 0 0-1.238-3.036 4.18 4.18 0 0 0-2.983-1.256c-1.12 0-2.189.452-2.982 1.256a4.327 4.327 0 0 0-1.238 3.036v2.738"/><path fill="#9059FF" stroke="#141422" stroke-miterlimit="10" d="M26.778 16.548H13.983a.983.983 0 0 0-.983.984v9.295c0 .542.438.983.983.983h12.795a.983.983 0 0 0 .983-.983v-9.295a.983.983 0 0 0-.983-.984Z"/><path fill="#fff" stroke="#141422" stroke-miterlimit="10" d="M21.979 21.31a1.588 1.588 0 0 1-.747 1.347v1.13a.853.853 0 0 1-1.705 0v-1.13a1.567 1.567 0 0 1-.556-.6 1.585 1.585 0 0 1-.19-.797c.01-.276.09-.545.237-.782.143-.237.348-.43.592-.567.244-.133.517-.201.793-.198.277.004.553.08.79.223a1.594 1.594 0 0 1 .786 1.371v.004Z"/></svg>
