<svg xmlns="http://www.w3.org/2000/svg" width="119" height="115" fill="none" viewBox="0 0 119 115"><g filter="url(#a)"><mask id="b" width="107" height="103" x="6" y="4" fill="#000" maskUnits="userSpaceOnUse"><path fill="#fff" d="M6 4h107v103H6z"/><path fill-rule="evenodd" d="M49.05 16.893c-7.138 0-12.924 5.787-12.924 12.925v14.648h-6.893V29.818C29.233 18.873 38.105 10 49.05 10s19.818 8.873 19.818 19.818v14.648h-6.893V29.818c0-7.138-5.787-12.925-12.925-12.925ZM80.047 45.15H16.861A4.855 4.855 0 0 0 12 50v45.91a4.856 4.856 0 0 0 4.861 4.85h63.186a4.855 4.855 0 0 0 4.862-4.85V50a4.857 4.857 0 0 0-4.862-4.85ZM82 37.184c6.73 0 12.185-5.455 12.185-12.184 0 6.73 5.455 12.184 12.185 12.184-6.73 0-12.185 5.456-12.185 12.185 0-6.73-5.455-12.184-12.185-12.184Z" clip-rule="evenodd"/></mask><path fill="#fff" fill-rule="evenodd" d="M49.05 16.893c-7.138 0-12.924 5.787-12.924 12.925v14.648h-6.893V29.818C29.233 18.873 38.105 10 49.05 10s19.818 8.873 19.818 19.818v14.648h-6.893V29.818c0-7.138-5.787-12.925-12.925-12.925ZM80.047 45.15H16.861A4.855 4.855 0 0 0 12 50v45.91a4.856 4.856 0 0 0 4.861 4.85h63.186a4.855 4.855 0 0 0 4.862-4.85V50a4.857 4.857 0 0 0-4.862-4.85ZM82 37.184c6.73 0 12.185-5.455 12.185-12.184 0 6.73 5.455 12.184 12.185 12.184-6.73 0-12.185 5.456-12.185 12.185 0-6.73-5.455-12.184-12.185-12.184Z" clip-rule="evenodd"/><path fill="#fff" d="M36.126 44.466v5.89a5.89 5.89 0 0 0 5.89-5.89h-5.89Zm-6.893 0h-5.89a5.89 5.89 0 0 0 5.89 5.89v-5.89Zm39.635 0v5.89a5.89 5.89 0 0 0 5.89-5.89h-5.89Zm-6.893 0h-5.89a5.89 5.89 0 0 0 5.89 5.89v-5.89ZM100.075 25a5.89 5.89 0 0 0-11.78 0h11.78ZM82 31.294a5.89 5.89 0 1 0 0 11.78v-11.78Zm24.37 11.78a5.89 5.89 0 0 0 0-11.78v11.78ZM88.295 49.37a5.89 5.89 0 1 0 11.78 0h-11.78Zm-46.28-19.551a7.035 7.035 0 0 1 7.035-7.035v-11.78c-10.39 0-18.814 8.424-18.814 18.815h11.78Zm0 14.648V29.818h-11.78v14.648h11.78Zm-12.782 5.89h6.893v-11.78h-6.893v11.78Zm-5.89-20.538v14.648h11.78V29.818h-11.78ZM49.05 4.11c-14.198 0-25.707 11.51-25.707 25.708h11.78c0-7.692 6.235-13.928 13.927-13.928V4.11Zm25.708 25.708c0-14.198-11.51-25.708-25.708-25.708v11.78c7.692 0 13.928 6.236 13.928 13.928h11.78Zm0 14.648V29.818h-11.78v14.648h11.78Zm-12.783 5.89h6.893v-11.78h-6.893v11.78Zm-5.89-20.538v14.648h11.78V29.818h-11.78Zm-7.035-7.035a7.035 7.035 0 0 1 7.035 7.035h11.78c0-10.391-8.424-18.815-18.815-18.815v11.78ZM16.861 51.04h63.186V39.26H16.861v11.78ZM17.89 50c0 .587-.474 1.04-1.029 1.04V39.26C10.935 39.26 6.11 44.055 6.11 50h11.78Zm0 45.91V50H6.11v45.91h11.78Zm-1.029-1.04c.555 0 1.029.452 1.029 1.04H6.11c0 5.946 4.829 10.74 10.751 10.74v-11.78Zm63.186 0H16.861v11.78h63.186v-11.78Zm-1.028 1.04c0-.586.474-1.04 1.028-1.04v11.78c5.926 0 10.752-4.795 10.752-10.74h-11.78Zm0-45.91v45.91h11.78V50h-11.78Zm1.028 1.04A1.034 1.034 0 0 1 79.02 50h11.78c0-5.946-4.83-10.74-10.752-10.74v11.78ZM88.295 25A6.295 6.295 0 0 1 82 31.296v11.78c9.983 0 18.075-8.093 18.075-18.075h-11.78Zm18.075 6.296A6.295 6.295 0 0 1 100.075 25h-11.78c0 9.982 8.092 18.075 18.075 18.075v-11.78Zm-6.295 18.074a6.295 6.295 0 0 1 6.295-6.294v-11.78c-9.983 0-18.075 8.092-18.075 18.074h11.78ZM82 43.075a6.295 6.295 0 0 1 6.295 6.294h11.78c0-9.982-8.092-18.075-18.075-18.075v11.78Z" mask="url(#b)"/><path fill="#fff" stroke="#000" stroke-linecap="round" stroke-linejoin="round" stroke-width="1.5" d="M94.185 25c0 6.73-5.455 12.184-12.185 12.184 6.73 0 12.185 5.456 12.185 12.185 0-6.73 5.455-12.184 12.185-12.184-6.73 0-12.185-5.456-12.185-12.185Z"/><path fill="#F8F6F4" fill-rule="evenodd" stroke="#000" stroke-width="1.6" d="M49.05 16.893c-7.137 0-12.924 5.787-12.924 12.925v17.919h-6.893v-17.92C29.233 18.874 38.106 10 49.05 10c10.945 0 19.817 8.873 19.817 19.818v17.919h-6.893v-17.92c0-7.137-5.786-12.924-12.924-12.924Z" clip-rule="evenodd"/><path fill="url(#c)" stroke="#000" stroke-miterlimit="10" stroke-width="1.6" d="M80.048 45.15H16.86A4.855 4.855 0 0 0 12 50v45.91a4.856 4.856 0 0 0 4.861 4.849h63.187a4.855 4.855 0 0 0 4.861-4.85V50a4.856 4.856 0 0 0-4.861-4.85Z"/><path fill="#F8F6F4" fill-rule="evenodd" stroke="#000" stroke-linecap="round" stroke-linejoin="round" stroke-width="1.6" d="M48.041 62.852c-3.073-3.627-8.198-4.602-12.049-1.281-3.85 3.32-4.393 8.873-1.369 12.8 2.514 3.266 10.124 10.153 12.617 12.382.28.25.419.374.582.423a.77.77 0 0 0 .44 0c.162-.049.301-.173.58-.423 2.494-2.229 10.104-9.116 12.618-12.382 3.024-3.927 2.548-9.514-1.369-12.8-3.917-3.286-8.976-2.346-12.05 1.281Z" clip-rule="evenodd"/></g><defs><linearGradient id="c" x1="71.836" x2="25.882" y1="41.88" y2="104.11" gradientUnits="userSpaceOnUse"><stop stop-color="#9059FF"/><stop offset="1" stop-color="#0290FF"/></linearGradient><filter id="a" width="118.15" height="114.539" x=".109" y=".11" color-interpolation-filters="sRGB" filterUnits="userSpaceOnUse"><feFlood flood-opacity="0" result="BackgroundImageFix"/><feColorMatrix in="SourceAlpha" result="hardAlpha" values="0 0 0 0 0 0 0 0 0 0 0 0 0 0 0 0 0 0 127 0"/><feOffset dy="2"/><feGaussianBlur stdDeviation="3"/><feComposite in2="hardAlpha" operator="out"/><feColorMatrix values="0 0 0 0 0 0 0 0 0 0 0 0 0 0 0 0 0 0 0.15 0"/><feBlend in2="BackgroundImageFix" result="effect1_dropShadow_10148_513"/><feBlend in="SourceGraphic" in2="effect1_dropShadow_10148_513" result="shape"/></filter></defs></svg>
