<svg xmlns="http://www.w3.org/2000/svg" width="86" height="77" fill="none" viewBox="0 0 86 77"><g filter="url(#a)"><path fill="#fff" stroke="#fff" stroke-linecap="round" stroke-linejoin="round" stroke-width="5.89" d="M40.582 64.85a2.945 2.945 0 0 0 4.136 0l22.815-22.497 3.108-3.064s0 0 0 0a18.835 18.835 0 0 0 4.147-6.117 18.655 18.655 0 0 0 0-14.458 18.834 18.834 0 0 0-4.146-6.116 19.09 19.09 0 0 0-6.188-4.08 19.273 19.273 0 0 0-14.576 0 19.091 19.091 0 0 0-6.188 4.08l-1.04 1.026-1.041-1.027-2.068 2.098 2.068-2.098A19.195 19.195 0 0 0 28.133 7.09a19.195 19.195 0 0 0-13.475 5.508 18.74 18.74 0 0 0-5.603 13.345 18.74 18.74 0 0 0 5.603 13.345l3.108 3.065L40.582 64.85Z"/><path fill="#FF4F5F" d="M68.574 14.694a16.146 16.146 0 0 0-5.233-3.449 16.328 16.328 0 0 0-12.349 0 16.146 16.146 0 0 0-5.234 3.45L42.65 17.76l-3.109-3.066a16.25 16.25 0 0 0-11.408-4.659 16.25 16.25 0 0 0-11.408 4.66A15.795 15.795 0 0 0 12 25.942c0 4.219 1.7 8.265 4.725 11.248l3.109 3.065L42.65 62.753l22.816-22.497 3.108-3.065a15.89 15.89 0 0 0 3.499-5.16 15.71 15.71 0 0 0 0-12.176 15.89 15.89 0 0 0-3.499-5.16Z"/><path stroke="#000" stroke-linecap="round" stroke-linejoin="round" stroke-width="1.5" d="M68.574 14.694a16.146 16.146 0 0 0-5.233-3.449 16.328 16.328 0 0 0-12.349 0 16.146 16.146 0 0 0-5.234 3.45L42.65 17.76l-3.109-3.066a16.25 16.25 0 0 0-11.408-4.659 16.25 16.25 0 0 0-11.408 4.66A15.795 15.795 0 0 0 12 25.942c0 4.219 1.7 8.265 4.725 11.248l3.109 3.065L42.65 62.753l22.816-22.497 3.108-3.065a15.89 15.89 0 0 0 3.499-5.16 15.71 15.71 0 0 0 0-12.176 15.89 15.89 0 0 0-3.499-5.16Z"/><path stroke="#000" stroke-linecap="round" stroke-linejoin="round" stroke-width="1.5" d="M68.574 14.694a16.146 16.146 0 0 0-5.233-3.449 16.328 16.328 0 0 0-12.349 0 16.146 16.146 0 0 0-5.234 3.45L42.65 17.76l-3.109-3.066a16.25 16.25 0 0 0-11.408-4.659 16.25 16.25 0 0 0-11.408 4.66A15.795 15.795 0 0 0 12 25.942c0 4.219 1.7 8.265 4.725 11.248l3.109 3.065L42.65 62.753l22.816-22.497 3.108-3.065a15.89 15.89 0 0 0 3.499-5.16 15.71 15.71 0 0 0 0-12.176 15.89 15.89 0 0 0-3.499-5.16Z"/></g><defs><filter id="a" width="85.081" height="76.499" x=".11" y=".144" color-interpolation-filters="sRGB" filterUnits="userSpaceOnUse"><feFlood flood-opacity="0" result="BackgroundImageFix"/><feColorMatrix in="SourceAlpha" result="hardAlpha" values="0 0 0 0 0 0 0 0 0 0 0 0 0 0 0 0 0 0 127 0"/><feOffset dy="2"/><feGaussianBlur stdDeviation="3"/><feComposite in2="hardAlpha" operator="out"/><feColorMatrix values="0 0 0 0 0 0 0 0 0 0 0 0 0 0 0 0 0 0 0.15 0"/><feBlend in2="BackgroundImageFix" result="effect1_dropShadow_10148_455"/><feBlend in="SourceGraphic" in2="effect1_dropShadow_10148_455" result="shape"/></filter></defs></svg>
