<svg xmlns="http://www.w3.org/2000/svg" width="141" height="101" fill="none" viewBox="0 0 141 101"><g filter="url(#a)"><mask id="b" width="109" height="88" x="7.002" y="5" fill="#000" maskUnits="userSpaceOnUse"><path fill="#fff" d="M7.002 5h109v88h-109z"/><path fill-rule="evenodd" d="M37.069 11c-1.17-.014-2.09.56-2.763 1.447-.651.857-1.097 2.03-1.407 3.354-.622 2.654-.764 6.208-.649 9.89.222 7.06 1.4 14.848 2.194 18.281l-.005.006a136.3 136.3 0 0 0-3.529 4.256c-2.155 2.71-4.826 6.284-6.84 9.69-1.598 2.701-4.187 3.65-6.197 4.388-.258.094-.506.186-.742.277-.487.187-.997.405-1.372.697a1.821 1.821 0 0 0-.53.63c-.141.288-.182.602-.127.918.099.57.499 1.087.976 1.563.442.441 1.053.944 1.846 1.53-.132.182-.489.533-1.41.98-.633.307-1.288.628-1.838.965-.529.324-1.082.732-1.4 1.257a1.8 1.8 0 0 0-.273.993c.011.377.147.72.356 1.024.395.574 1.107 1.082 2.063 1.575.924.475 1.654.87 2.217 1.233.569.367.907.665 1.097.925a.96.96 0 0 1 .207.688c-.021.29-.149.691-.47 1.275-.185.339-.425.898-.174 1.451.272.6.89.724 1.214.756.381.037.833-.003 1.291-.069.471-.068 1.01-.173 1.589-.293.303-.063.62-.131.945-.2l.001-.001c2.197-.47 4.85-1.039 7.286-1.009 2.48.03 5.101 1.065 8.174 2.278l.012.005.896.352c3.403 1.334 7.252 2.723 11.645 2.777a.847.847 0 0 0 .757-.447c1.482.75 5.003 2.289 9.026 2.339 4.02.05 7.578-1.402 9.079-2.115.138.272.419.46.745.464 4.393.055 8.275-1.239 11.71-2.488l.912-.333.005-.002c3.101-1.137 5.747-2.106 8.228-2.076 2.436.03 5.074.664 7.258 1.188.325.078.639.154.941.225a26.94 26.94 0 0 0 1.581.332c.456.077.907.128 1.289.1.325-.024.946-.132 1.233-.725.264-.547.038-1.112-.139-1.455-.307-.592-.424-.997-.438-1.287a.955.955 0 0 1 .224-.682c.196-.255.541-.545 1.119-.898.572-.349 1.311-.726 2.247-1.178.968-.469 1.692-.96 2.101-1.523.216-.299.36-.64.381-1.015a1.798 1.798 0 0 0-.249-1c-.304-.532-.847-.954-1.368-1.29-.542-.351-1.188-.689-1.813-1.01-.911-.47-1.258-.83-1.387-1.015.808-.567 1.431-1.054 1.884-1.484.489-.464.902-.97 1.015-1.539a1.49 1.49 0 0 0-.104-.92 1.828 1.828 0 0 0-.515-.643c-.368-.302-.872-.532-1.355-.732-.233-.096-.479-.194-.734-.294h-.001c-1.991-.787-4.556-1.8-6.086-4.54-1.93-3.454-4.512-7.093-6.6-9.856a136.4 136.4 0 0 0-3.423-4.341l-.005-.006c.88-3.413 2.249-11.17 2.644-18.222.206-3.678.152-7.234-.405-9.903-.277-1.33-.694-2.514-1.324-3.388-.65-.902-1.556-1.5-2.726-1.514-.88-.01-1.823.277-2.758.714-.946.441-1.944 1.065-2.954 1.796-2.02 1.462-4.156 3.405-6.101 5.336-3.15 3.126-5.85 6.272-6.814 7.42a22.792 22.792 0 0 0-6.554-1.042 22.794 22.794 0 0 0-6.567.876c-.938-1.173-3.557-4.382-6.626-7.582-1.897-1.977-3.985-3.973-5.968-5.484-.991-.756-1.974-1.404-2.908-1.869-.924-.46-1.86-.77-2.74-.78Z" clip-rule="evenodd"/></mask><path fill="#fff" fill-rule="evenodd" d="M37.069 11c-1.17-.014-2.09.56-2.763 1.447-.651.857-1.097 2.03-1.407 3.354-.622 2.654-.764 6.208-.649 9.89.222 7.06 1.4 14.848 2.194 18.281l-.005.006a136.3 136.3 0 0 0-3.529 4.256c-2.155 2.71-4.826 6.284-6.84 9.69-1.598 2.701-4.187 3.65-6.197 4.388-.258.094-.506.186-.742.277-.487.187-.997.405-1.372.697a1.821 1.821 0 0 0-.53.63c-.141.288-.182.602-.127.918.099.57.499 1.087.976 1.563.442.441 1.053.944 1.846 1.53-.132.182-.489.533-1.41.98-.633.307-1.288.628-1.838.965-.529.324-1.082.732-1.4 1.257a1.8 1.8 0 0 0-.273.993c.011.377.147.72.356 1.024.395.574 1.107 1.082 2.063 1.575.924.475 1.654.87 2.217 1.233.569.367.907.665 1.097.925a.96.96 0 0 1 .207.688c-.021.29-.149.691-.47 1.275-.185.339-.425.898-.174 1.451.272.6.89.724 1.214.756.381.037.833-.003 1.291-.069.471-.068 1.01-.173 1.589-.293.303-.063.62-.131.945-.2l.001-.001c2.197-.47 4.85-1.039 7.286-1.009 2.48.03 5.101 1.065 8.174 2.278l.012.005.896.352c3.403 1.334 7.252 2.723 11.645 2.777a.847.847 0 0 0 .757-.447c1.482.75 5.003 2.289 9.026 2.339 4.02.05 7.578-1.402 9.079-2.115.138.272.419.46.745.464 4.393.055 8.275-1.239 11.71-2.488l.912-.333.005-.002c3.101-1.137 5.747-2.106 8.228-2.076 2.436.03 5.074.664 7.258 1.188.325.078.639.154.941.225a26.94 26.94 0 0 0 1.581.332c.456.077.907.128 1.289.1.325-.024.946-.132 1.233-.725.264-.547.038-1.112-.139-1.455-.307-.592-.424-.997-.438-1.287a.955.955 0 0 1 .224-.682c.196-.255.541-.545 1.119-.898.572-.349 1.311-.726 2.247-1.178.968-.469 1.692-.96 2.101-1.523.216-.299.36-.64.381-1.015a1.798 1.798 0 0 0-.249-1c-.304-.532-.847-.954-1.368-1.29-.542-.351-1.188-.689-1.813-1.01-.911-.47-1.258-.83-1.387-1.015.808-.567 1.431-1.054 1.884-1.484.489-.464.902-.97 1.015-1.539a1.49 1.49 0 0 0-.104-.92 1.828 1.828 0 0 0-.515-.643c-.368-.302-.872-.532-1.355-.732-.233-.096-.479-.194-.734-.294h-.001c-1.991-.787-4.556-1.8-6.086-4.54-1.93-3.454-4.512-7.093-6.6-9.856a136.4 136.4 0 0 0-3.423-4.341l-.005-.006c.88-3.413 2.249-11.17 2.644-18.222.206-3.678.152-7.234-.405-9.903-.277-1.33-.694-2.514-1.324-3.388-.65-.902-1.556-1.5-2.726-1.514-.88-.01-1.823.277-2.758.714-.946.441-1.944 1.065-2.954 1.796-2.02 1.462-4.156 3.405-6.101 5.336-3.15 3.126-5.85 6.272-6.814 7.42a22.792 22.792 0 0 0-6.554-1.042 22.794 22.794 0 0 0-6.567.876c-.938-1.173-3.557-4.382-6.626-7.582-1.897-1.977-3.985-3.973-5.968-5.484-.991-.756-1.974-1.404-2.908-1.869-.924-.46-1.86-.77-2.74-.78Z" clip-rule="evenodd"/><path fill="#fff" d="m34.306 12.447 4.69 3.562-4.69-3.563ZM37.069 11l-.073 5.89.072-5.89Zm-4.17 4.8-5.735-1.344 5.735 1.345Zm-.649 9.89-5.887.185 5.887-.185Zm2.194 18.282 4.446 3.864a5.89 5.89 0 0 0 1.293-5.191l-5.739 1.327Zm-.005.006 4.446 3.864-4.446-3.864Zm-.808.942-4.492-3.81 4.492 3.81Zm-2.72 3.313-4.61-3.665 4.61 3.666Zm-6.841 9.691L19 54.926l5.07 2.998Zm-6.197 4.388 2.028 5.53-2.028-5.53Zm-.742.277-2.12-5.496 2.12 5.495Zm-1.372.697-3.62-4.645 3.62 4.645Zm-.53.63 5.292 2.586-5.293-2.585Zm-.127.918 5.803-1.006-5.803 1.006Zm.976 1.563L11.92 70.57l4.158-4.172Zm1.846 1.53 4.756 3.476a5.89 5.89 0 0 0-1.255-8.213l-3.5 4.737Zm-1.41.98 2.568 5.3-2.569-5.3Zm-1.838.965-3.077-5.022 3.077 5.022Zm-1.4 1.257-5.04-3.047 5.04 3.047Zm-.273.993 5.887-.18-5.887.18Zm.356 1.024-4.853 3.339 4.853-3.339Zm2.063 1.575 2.695-5.238-2.695 5.237Zm2.217 1.233 3.193-4.949-3.193 4.949Zm1.097.925-4.753 3.478 4.753-3.478Zm.207.688 5.874.438-5.874-.438Zm-.47 1.275 5.163 2.836-5.162-2.836Zm-.174 1.451-5.364 2.434 5.364-2.434Zm1.214.756-.579 5.861.58-5.861Zm1.291-.069.84 5.83-.84-5.83Zm1.589-.293-1.201-5.766 1.2 5.766Zm.945-.2 1.234 5.759.01-.003-1.244-5.757Zm.001-.001 1.245 5.757c.048-.01.095-.021.143-.033l-1.388-5.724Zm0 0-1.234-5.76a5.795 5.795 0 0 0-.154.036l1.388 5.724Zm7.286-1.009-.073 5.89.073-5.89Zm8.174 2.278-2.163 5.479.004.001 2.159-5.48Zm.012.005 2.162-5.48h-.004l-2.158 5.48Zm.896.352 2.149-5.484-2.149 5.484Zm11.645 2.777.072-5.89-.072 5.89Zm.757-.447 2.659-5.255a5.89 5.89 0 0 0-7.846 2.465l5.187 2.79Zm9.026 2.339-.073 5.89.073-5.89Zm9.079-2.115L75.466 82a5.89 5.89 0 0 0-7.78-2.654l2.528 5.32Zm.745.464.073-5.89-.073 5.89Zm11.71-2.488 2.013 5.535-2.013-5.535Zm.912-.333-2.023-5.532-.004.001 2.026 5.53Zm.005-.002 2.022 5.532.005-.002-2.027-5.53Zm8.228-2.076.072-5.89-.072 5.89Zm7.258 1.188-1.376 5.727 1.376-5.727Zm.941.225-1.343 5.734 1.343-5.734Zm1.581.332-.983 5.807.983-5.807Zm1.289.1.434 5.874-.434-5.874Zm1.233-.725-5.303-2.565 5.303 2.565Zm-.139-1.455 5.231-2.707h-.001l-5.23 2.707Zm-.438-1.287 5.882-.293-5.882.293Zm.224-.682 4.665 3.594-4.665-3.594Zm1.119-.898 3.071 5.027-3.071-5.027Zm2.247-1.178-2.566-5.302 2.566 5.302Zm2.101-1.523-4.768-3.458h-.001l4.769 3.458Zm.381-1.015-5.881-.326 5.881.326Zm-.249-1-5.114 2.923 5.114-2.923Zm-1.368-1.29-3.199 4.945 3.199-4.946Zm-1.813-1.01-2.699 5.234 2.699-5.235Zm-1.387-1.015-3.382-4.822a5.89 5.89 0 0 0-1.457 8.18l4.839-3.358Zm1.884-1.484-4.054-4.273 4.054 4.273Zm1.015-1.539-5.777-1.149 5.777 1.149Zm-.104-.92-5.355 2.454 5.355-2.454Zm-.515-.643-3.734 4.555 3.734-4.555Zm-1.355-.732 2.255-5.441-2.255 5.441Zm-.734-.294 2.164-5.479a1.334 1.334 0 0 1-.018-.006l-2.146 5.485Zm-.001 0-2.164 5.477.018.007 2.146-5.485Zm-6.086-4.54-5.142 2.873 5.142-2.872Zm-6.6-9.856 4.699-3.55-4.7 3.55Zm-2.638-3.38 4.584-3.697-4.584 3.698Zm-.785-.961 4.54-3.753-4.54 3.753Zm-.005-.006-5.704-1.469a5.89 5.89 0 0 0 1.165 5.222l4.54-3.753Zm2.644-18.222 5.88.33-5.88-.33Zm-.405-9.903 5.766-1.202-5.766 1.202Zm-1.324-3.388-4.777 3.446 4.777-3.446Zm-2.726-1.514-.072 5.89.072-5.89Zm-2.758.714 2.493 5.336-2.493-5.336Zm-2.954 1.796-3.454-4.771 3.454 4.771Zm-6.101 5.336 4.15 4.18-4.15-4.18Zm-6.814 7.42L66.67 32.5a5.89 5.89 0 0 0 6.27-1.828l-4.507-3.792Zm-6.554-1.042.073-5.89-.073 5.89Zm-6.567.876-4.6 3.68a5.89 5.89 0 0 0 6.222 1.983l-1.622-5.663Zm-6.626-7.582-4.251 4.077 4.251-4.077Zm-5.968-5.484-3.57 4.685 3.57-4.685Zm-2.908-1.869-2.624 5.273 2.624-5.273Zm-.812 4.228c-.07.091-.274.327-.662.54-.42.23-.897.346-1.34.34l.146-11.778c-3.434-.043-5.988 1.748-7.526 3.773l9.382 7.125Zm-.363 1.136c.102-.439.205-.754.292-.965.088-.217.128-.247.07-.171l-9.38-7.125c-1.371 1.805-2.059 3.896-2.451 5.572l11.469 2.689Zm-.496 8.36c-.111-3.539.053-6.472.496-8.36l-11.47-2.688c-.801 3.42-.92 7.595-.8 11.418l11.774-.37Zm2.045 17.14c-.707-3.053-1.836-10.458-2.045-17.14l-11.775.37c.233 7.44 1.46 15.61 2.343 19.425l11.477-2.655Zm-1.298 5.197.005-.006-8.892-7.727-.004.005 8.891 7.728Zm-.763.889c.327-.385.587-.687.763-.89l-8.891-7.727c-.205.235-.495.573-.855.996l8.983 7.62Zm-2.601 3.168c1.034-1.3 1.948-2.398 2.601-3.168l-8.983-7.62c-.717.845-1.713 2.04-2.839 3.457l9.22 7.331Zm-6.382 9.024c1.811-3.062 4.288-6.39 6.382-9.024l-9.22-7.331c-2.218 2.788-5.082 6.607-7.3 10.358l10.138 5.997Zm-9.238 6.919c1.89-.693 6.453-2.21 9.238-6.919L19 54.926c-.41.692-1.024 1.075-3.155 1.856l4.056 11.06Zm-.65.242c.181-.07.383-.144.65-.242l-4.056-11.06c-.248.091-.544.2-.834.311l4.24 10.99Zm.128-.151a2.968 2.968 0 0 1-.373.248l-.026.014s.02-.01.068-.03c.05-.02.113-.047.203-.081l-4.24-10.99c-.468.18-1.734.66-2.873 1.547l7.241 9.292Zm1.142-1.431a4.081 4.081 0 0 1-1.142 1.43l-7.24-9.291a7.705 7.705 0 0 0-2.203 2.691l10.585 5.17Zm.384-2.674c.148.855.04 1.803-.384 2.674l-10.585-5.17a7.375 7.375 0 0 0-.638 4.508l11.607-2.012Zm-.669-1.602c-.088-.088-.006-.022.124.175.134.202.417.69.545 1.427L9.298 65.84c.43 2.482 1.997 4.106 2.622 4.729l8.316-8.343Zm1.189.964c-.696-.514-1.044-.82-1.189-.964l-8.316 8.343c.74.737 1.613 1.437 2.504 2.095l7-9.474Zm-2.343 11.017c1.388-.672 2.681-1.55 3.598-2.804l-9.51-6.951c.34-.467.66-.733.802-.84.144-.108.166-.099-.028-.005l5.138 10.6Zm-1.33.688c.265-.162.662-.364 1.33-.688l-5.138-10.6c-.596.289-1.508.73-2.345 1.243l6.153 10.045Zm.565-.718c-.265.437-.528.67-.599.73-.076.066-.088.063.034-.012L11.6 64.85c-.67.41-2.273 1.428-3.363 3.232l10.08 6.095Zm.573-2.236c.03.978-.28 1.751-.573 2.236L8.236 68.082a7.688 7.688 0 0 0-1.12 4.22l11.774-.36Zm-.679-2.134c.295.428.65 1.16.68 2.135l-11.775.36a7.788 7.788 0 0 0 1.39 4.183l9.705-6.678Zm-.094-.324a5.174 5.174 0 0 1-.31-.171c-.071-.043-.098-.063-.091-.059.005.005.06.046.145.13.084.084.212.223.35.424l-9.704 6.678c1.248 1.814 3.045 2.868 4.22 3.472l5.39-10.474Zm2.715 1.522c-.827-.534-1.782-1.042-2.715-1.522l-5.39 10.474c.915.472 1.419.753 1.718.946l6.387-9.898ZM23.49 73.4c-.822-1.123-1.868-1.886-2.657-2.395l-6.387 9.898c.132.085.136.098.066.038a3.44 3.44 0 0 1-.528-.584L23.49 73.4Zm1.328 4.605a6.842 6.842 0 0 0-1.328-4.605l-9.506 6.957a4.81 4.81 0 0 1-.72-1.471 4.93 4.93 0 0 1-.194-1.758l11.748.877Zm-1.181 3.673c.494-.9 1.068-2.166 1.18-3.673l-11.746-.877c.037-.5.146-.852.201-1.009.057-.159.09-.204.04-.112l10.325 5.67Zm.027-3.818a4.609 4.609 0 0 1 .328 2.816c-.12.58-.325.948-.355 1.002l-10.325-5.672c-.27.492-1.891 3.38-.376 6.72l10.728-4.866Zm-3.57-2.673c.156.016.689.074 1.34.386a4.7 4.7 0 0 1 2.23 2.287l-10.728 4.867c1.693 3.732 5.389 4.123 6 4.183l1.157-11.723Zm-.128-.037c-.064.01-.113.016-.148.02l-.053.005.02-.001h.056c.049 0 .136.002.252.013L18.934 86.91c1.116.11 2.145-.019 2.71-.1l-1.68-11.66Zm1.227-.23c-.557.117-.948.19-1.227.23l1.68 11.66c.66-.095 1.35-.232 1.949-.357l-2.402-11.532Zm.912-.193c-.33.07-.628.135-.912.194l2.402 11.532c.323-.067.655-.138.978-.208l-2.468-11.518Zm-.01.002 2.489 11.514-2.489-11.514Zm-.143.033 2.776 11.448-2.776-11.448Zm8.746-1.174c-3.215-.04-6.53.697-8.592 1.139l2.468 11.518c2.331-.5 4.321-.899 5.979-.878l.145-11.78Zm10.264 2.688c-2.754-1.087-6.475-2.642-10.264-2.688l-.145 11.779c1.172.014 2.693.528 6.084 1.867l4.325-10.958Zm.008.003-.012-.004-4.317 10.96.012.005 4.317-10.96Zm.887.35-.883-.348-4.325 10.957.91.358 4.298-10.968Zm9.568 2.37c-3.232-.04-6.21-1.055-9.568-2.37l-4.298 10.967c3.448 1.352 8.168 3.114 13.721 3.182L51.424 79Zm-4.502 2.653a5.043 5.043 0 0 1 4.502-2.653l-.145 11.78a6.737 6.737 0 0 0 6.017-3.546l-10.374-5.581Zm2.528 8.046c1.803.912 6.274 2.906 11.612 2.972l.145-11.779c-2.706-.033-5.279-1.117-6.44-1.704L49.45 89.698Zm11.612 2.972c5.337.066 9.854-1.816 11.68-2.684l-5.056-10.64c-1.176.559-3.774 1.578-6.479 1.545l-.145 11.78Zm9.97-13.43A5.043 5.043 0 0 1 75.466 82l-10.504 5.333a6.737 6.737 0 0 0 5.925 3.687l.145-11.78Zm9.624-2.133c-3.389 1.232-6.392 2.174-9.624 2.134l-.145 11.779c5.553.068 10.315-1.577 13.795-2.843l-4.026-11.07Zm.898-.329-.898.329 4.026 11.07.925-.338-4.053-11.06Zm.01-.003-.006.002 4.045 11.064.005-.002-4.044-11.064Zm10.322-2.433c-3.789-.047-7.547 1.416-10.327 2.434l4.054 11.061c3.423-1.254 4.956-1.73 6.128-1.716l.145-11.78Zm8.562 1.35c-2.05-.492-5.347-1.31-8.562-1.35l-.145 11.779c1.658.02 3.637.469 5.956 1.025l2.751-11.454Zm.908.217-.908-.217-2.751 11.455c.32.077.652.156.973.231l2.686-11.47Zm1.221.26c-.279-.048-.668-.13-1.221-.26l-2.686 11.47c.596.139 1.281.293 1.941.404l1.966-11.614Zm-.128.033a2.67 2.67 0 0 1 .328-.004l-.052-.007a4.262 4.262 0 0 1-.148-.022l-1.966 11.614c.563.096 1.588.25 2.706.167l-.868-11.748Zm-3.636 2.584a4.703 4.703 0 0 1 2.286-2.231 4.02 4.02 0 0 1 1.349-.353l.869 11.748c.612-.045 4.316-.345 6.101-4.034l-10.605-5.13Zm-.067 3.817c-.028-.054-.225-.428-.33-1.01a4.608 4.608 0 0 1 .397-2.807l10.605 5.13c1.597-3.301.047-6.23-.21-6.727l-10.462 5.414Zm-1.09-3.7c.075 1.509.618 2.789 1.09 3.7l10.461-5.415c-.048-.093-.015-.046.037.114.052.158.152.513.177 1.013l-11.765.588Zm1.44-4.571a6.842 6.842 0 0 0-1.44 4.571l11.765-.588a4.93 4.93 0 0 1-.236 1.753 4.785 4.785 0 0 1-.757 1.454l-9.331-7.19Zm2.716-2.329c-.801.49-1.866 1.227-2.715 2.329l9.331 7.19c-.254.33-.473.515-.542.57-.071.058-.067.046.067-.036l-6.141-10.053Zm2.751-1.454c-.944.457-1.911.941-2.751 1.454l6.141 10.053c.304-.186.814-.455 1.742-.903l-5.132-10.604Zm-.102.321c.144-.197.275-.334.361-.416.087-.08.143-.121.149-.125.006-.005-.021.015-.093.056a5.158 5.158 0 0 1-.315.164l5.131 10.604c1.189-.576 3.012-1.586 4.305-3.368l-9.538-6.915Zm-.731 2.117a3.997 3.997 0 0 1 .732-2.117l9.537 6.915a7.786 7.786 0 0 0 1.493-4.147l-11.762-.65Zm.518 2.249a4.093 4.093 0 0 1-.518-2.249l11.762.651a7.682 7.682 0 0 0-1.016-4.247l-10.228 5.845Zm.547.732c.12.078.109.08.034.013a2.99 2.99 0 0 1-.581-.745l10.228-5.845c-1.045-1.83-2.623-2.887-3.282-3.314l-6.399 9.89Zm-1.313-.72c.661.34 1.052.551 1.313.72l6.399-9.89c-.824-.534-1.725-.998-2.314-1.301l-5.398 10.47Zm-3.527-2.893c.885 1.276 2.156 2.186 3.527 2.892l5.398-10.47c-.191-.099-.169-.107-.028.005.14.11.452.383.782.859l-9.68 6.714Zm2.669-9.114c-.149.141-.504.438-1.212.935l6.765 9.644c.907-.636 1.798-1.315 2.555-2.033l-8.108-8.546Zm-.708 1.585a3.763 3.763 0 0 1 .58-1.413c.135-.194.218-.257.128-.172l8.108 8.546c.64-.608 2.246-2.192 2.738-4.663l-11.554-2.298Zm.318 2.683a4.404 4.404 0 0 1-.318-2.683l11.554 2.298a7.378 7.378 0 0 0-.527-4.522l-10.709 4.907Zm1.106 1.458a4.085 4.085 0 0 1-1.106-1.458l10.709-4.907a7.708 7.708 0 0 0-2.135-2.745l-7.468 9.11Zm.125.155a7.376 7.376 0 0 1 .268.117l-.026-.014a2.987 2.987 0 0 1-.367-.258l7.468-9.11c-1.117-.915-2.37-1.426-2.834-1.618l-4.509 10.883Zm-.644-.258c.265.104.464.183.644.258l4.509-10.883c-.287-.119-.58-.234-.825-.331l-4.328 10.956Zm.017.006 4.293-10.97h-.001l-4.292 10.97Zm-9.082-7.15c2.668 4.776 7.193 6.404 9.064 7.144l4.328-10.957c-2.111-.833-2.716-1.23-3.108-1.933l-10.284 5.745Zm-6.157-9.179c2.028 2.684 4.422 6.073 6.157 9.178l10.284-5.745c-2.126-3.804-4.896-7.693-7.043-10.535l-9.398 7.102Zm-2.523-3.232c.634.787 1.521 1.907 2.523 3.232l9.398-7.102a142.345 142.345 0 0 0-2.753-3.526l-9.168 7.396Zm-.74-.907c.17.207.423.515.74.907l9.168-7.396a110.97 110.97 0 0 0-.83-1.017l-9.079 7.506Zm-.005-.006.004.006 9.08-7.506-.006-.006-9.078 7.506Zm1.302-22.305c-.374 6.674-1.685 14.049-2.467 17.083l11.408 2.938c.977-3.792 2.404-11.93 2.82-19.362l-11.76-.659Zm-.29-8.37c.396 1.898.488 4.834.29 8.37l11.762.66c.214-3.82.197-7.996-.52-11.435L85.343 17.72Zm-.335-1.145c-.055-.077-.016-.046.067.172.081.214.176.531.268.973l11.532-2.405c-.351-1.686-.987-3.793-2.313-5.631l-9.554 6.89Zm1.979.93a2.763 2.763 0 0 1-1.33-.374 2.105 2.105 0 0 1-.649-.556l9.555-6.891c-1.488-2.063-3.997-3.916-7.431-3.958l-.145 11.779Zm-.193.16c.115-.054.211-.094.288-.123a1.74 1.74 0 0 1 .155-.052c.026-.007.018-.003-.02.002a1.53 1.53 0 0 1-.23.013l.145-11.78c-2.135-.026-4.005.65-5.325 1.267l4.987 10.673Zm-1.993 1.231c.831-.602 1.5-1 1.993-1.231L81.807 6.993c-1.397.653-2.726 1.502-3.914 2.362l6.908 9.542Zm-5.406 4.745c1.852-1.838 3.742-3.54 5.406-4.745l-6.908-9.542c-2.375 1.72-4.758 3.903-6.797 5.926l8.3 8.36Zm-6.456 7.03c.916-1.087 3.486-4.082 6.456-7.03l-8.299-8.36c-3.33 3.304-6.157 6.602-7.171 7.808l9.014 7.583Zm-2.743-9.41a28.683 28.683 0 0 0-8.245-1.312l-.145 11.78c1.702.02 3.332.29 4.863.77l3.527-11.239ZM61.95 19.95a28.684 28.684 0 0 0-8.262 1.104l3.244 11.325c1.54-.441 3.173-.67 4.873-.65l.145-11.779Zm-17.517 3.261c2.893 3.017 5.388 6.072 6.278 7.185l9.198-7.36c-.986-1.232-3.73-4.596-6.974-7.979l-8.502 8.154Zm-5.287-4.876c1.634 1.245 3.481 2.993 5.287 4.876l8.502-8.153c-1.987-2.073-4.316-4.315-6.649-6.093l-7.14 9.37Zm-1.962-1.28c.487.242 1.145.657 1.962 1.28l7.14-9.37c-1.166-.889-2.474-1.77-3.854-2.457l-5.248 10.546Zm-.19-.165a1.506 1.506 0 0 1-.228-.019c-.04-.006-.047-.01-.021-.002.026.007.076.024.153.055s.172.074.285.13l5.25-10.546c-1.305-.649-3.158-1.371-5.293-1.397l-.145 11.779Z" mask="url(#b)"/><path fill="#fff" stroke="#fff" stroke-linecap="round" stroke-linejoin="round" stroke-width="5.89" d="M114.741 25.225a2.945 2.945 0 1 0-5.89.088c.113 7.601-5.958 13.855-13.56 13.968a2.945 2.945 0 0 0 .088 5.889c7.601-.113 13.855 5.959 13.967 13.56a2.946 2.946 0 0 0 5.89-.087c-.113-7.602 5.958-13.855 13.56-13.968a2.945 2.945 0 0 0-.087-5.89c-7.602.113-13.856-5.958-13.968-13.56Z"/><path fill="#FF8A50" d="M106.461 71.058c-2.556-1.318-1.858-2.253-1.858-2.253 7.87-5.392-2.028-2.512-5.887-9.42-3.86-6.909-10.369-14.621-10.369-14.621 1.728-6.261 5.957-32.773-.903-32.857-5.684-.07-18.431 15.42-18.605 15.63a22.28 22.28 0 0 0-6.936-1.194 22.28 22.28 0 0 0-6.963 1.024c-.168-.216-12.53-16.015-18.214-16.085-6.86-.085-3.286 26.523-1.713 32.824 0 0-6.696 7.55-10.725 14.361-4.029 6.811-13.853 3.689-6.117 9.273 0 0 .674.951-1.914 2.206-2.589 1.254-4.845 2.427-1.09 4.36 3.757 1.933 4.86 2.804 3.457 5.36-1.404 2.555 5.669-.702 11.585-.63 5.917.074 12.455 5.385 21.03 5.491 0 0 4.511 2.714 9.913 2.78 5.402.067 9.98-2.535 9.98-2.535 8.574.106 15.24-5.043 21.157-4.97 5.917.073 12.907 3.503 11.566.914-1.34-2.59-.215-3.433 3.588-5.273 3.802-1.84 1.575-3.068-.982-4.385Z"/><path fill="#fff" d="M83.713 58.177a11.206 11.206 0 0 1-3.694-1.088l-1.198-.592a28.53 28.53 0 0 1-7.14-5.017l-.401-.386a6.222 6.222 0 0 0-3.116-1.622l-6.53-1.28-6.558 1.119a6.221 6.221 0 0 0-3.155 1.544l-.411.376a28.53 28.53 0 0 1-7.261 4.84l-1.213.562a11.205 11.205 0 0 1-3.72.997 2.408 2.408 0 0 0-2.193 2.369l-.01.793a21.052 21.052 0 0 0 20.792 21.31l6.623.082a21.053 21.053 0 0 0 21.31-20.792l.01-.793a2.408 2.408 0 0 0-2.135-2.422ZM25.843 77.817c-.412-.178-.8-.367-.796-.722.006-.464.308-1.103.64-1.694.208-.371.428-.724.594-1.003.705-1.18.125-2.012-.822-2.531a5.209 5.209 0 0 0-1.156-.452c-1.994-.53-1.025-2.482.034-3.515 1.06-1.034-.046-2.488-1.072-2.758s-1.793-.665-1.782-1.555c.011-.89.845-2.444 2.044-4.023l.005-.007c-4.356 5.384-12.643 2.922-5.359 8.18 0 0 .675.953-1.914 2.207-2.588 1.254-4.844 2.427-1.088 4.36 3.755 1.933 4.86 2.804 3.456 5.36-1.072 1.95 2.797.515 7.32-.242.242-.04.486-.079.732-.115.07-.274.116-.526.119-.71.005-.393-.49-.579-.955-.78ZM96.686 78.695c.416-.167.809-.347.813-.702.006-.464-.28-1.11-.597-1.71-.199-.375-.41-.733-.57-1.016-.675-1.197-.075-2.015.885-2.51a5.21 5.21 0 0 1 1.167-.424c2.006-.48 1.085-2.456.052-3.515-1.033-1.059.108-2.486 1.14-2.73 1.032-.245 1.808-.621 1.819-1.51.011-.89-.784-2.465-1.944-4.073l-.004-.007c4.221 5.49 12.567 3.233 5.155 8.31 0 0-.698.935 1.859 2.253 2.556 1.318 4.783 2.546.981 4.386-3.802 1.84-4.927 2.683-3.587 5.272 1.023 1.977-2.809.446-7.312-.421a36.63 36.63 0 0 0-.729-.134 3.335 3.335 0 0 1-.101-.713c.005-.392.504-.566.973-.755Z"/><path fill="#000" d="M65.478 46.986a2.02 2.02 0 0 0-.635-.11l-6.378-.079c-.217-.003-.43.03-.637.095-.922.292-3.334 1.3-3.365 3.847-.044 3.602 4.42 6.937 7.057 6.97 2.637.032 7.182-3.193 7.227-6.794.031-2.547-2.354-3.614-3.27-3.929Z"/><path stroke="#000" stroke-linecap="round" stroke-linejoin="round" stroke-width="1.5" d="M77.673 43.546s-5.536.326-7.354 5.192c0 0 7.534-2.472 10.724-.314"/><path fill="#000" d="M47.568 51.81a5.156 5.156 0 1 0 .127-10.312 5.156 5.156 0 0 0-.127 10.312Z"/><path fill="#fff" d="M46.316 46.718a1.777 1.777 0 1 0 .044-3.553 1.777 1.777 0 0 0-.044 3.553Z"/><path fill="#6A1F26" stroke="#000" stroke-linecap="round" stroke-linejoin="round" stroke-width="1.5" d="M72.062 58.606c-3.387-.042-6.115 2.133-10.574 2.078-4.459-.055-7.132-2.296-10.52-2.338-3.386-.042-2.827 3.288-2.457 4.536.371 1.248 2.577 6.678 12.866 6.805 10.29.127 12.628-5.247 13.03-6.486.4-1.238 1.042-4.553-2.345-4.595Z"/><path fill="#DE1764" stroke="#000" stroke-linecap="round" stroke-linejoin="round" stroke-width="1.5" d="M65.608 64.997c-1.094-.013-1.256.145-2.193.456-.936.31-1.986.232-1.986.232s-1.051.052-1.98-.281c-.928-.333-1.087-.496-2.18-.51-1.093-.013-2.844.503-2.883 3.609 1.767.683 4.048 1.155 6.994 1.191 2.945.036 5.237-.38 7.02-1.019.038-3.105-1.7-3.664-2.792-3.678Z"/><path fill="#fff" stroke="#000" stroke-linecap="round" stroke-linejoin="round" stroke-width="1.5" d="M52.405 62.645c.862.358 1.973-1.68 2.725-3.372-1.387-.482-2.71-.905-4.162-.923l-.081.002c.207 1.697.643 3.93 1.518 4.294ZM70.516 62.865c-.87.336-1.93-1.728-2.64-3.44 1.398-.446 2.73-.836 4.183-.818.028 0 .054.002.081.003-.249 1.691-.74 3.914-1.624 4.255Z"/><path fill="#000" stroke="#000" stroke-linecap="round" stroke-linejoin="round" stroke-width="1.694" d="M40.313 21.362c2.396-1.442 4.941-2.144 7.246-2.448-3.746-3.862-8.074-7.596-10.83-7.63-3.803-.047-4.399 8.108-3.907 16.46a30.02 30.02 0 0 1 7.491-6.382ZM83.608 21.895c-2.36-1.5-4.887-2.265-7.184-2.625 3.84-3.768 8.258-7.395 11.016-7.361 3.802.047 4.197 8.214 3.5 16.55a30.023 30.023 0 0 0-7.332-6.564Z"/><path stroke="#000" stroke-linecap="round" stroke-linejoin="round" stroke-width="1.5" d="M76.46 31.997a22.218 22.218 0 0 0-14.566-5.659 22.218 22.218 0 0 0-14.7 5.298M38.557 40.502s-2.582 2.494-3.539 3.6M84.9 41.078s2.52 2.557 3.45 3.687"/><path stroke="#000" stroke-linecap="round" stroke-linejoin="round" stroke-width="1.5" d="M71.129 84.773c8.574.106 15.241-5.043 21.158-4.97 5.916.073 12.906 3.504 11.566.914-1.34-2.589-.215-3.433 3.587-5.273 3.802-1.84 1.575-3.068-.981-4.385-2.557-1.318-1.859-2.253-1.859-2.253 7.87-5.392-2.027-2.512-5.887-9.42-3.86-6.909-10.368-14.621-10.368-14.621 1.728-6.26 5.957-32.773-.903-32.857-5.685-.07-18.432 15.42-18.605 15.631a22.28 22.28 0 0 0-6.936-1.195 22.28 22.28 0 0 0-6.963 1.024c-.168-.215-12.53-16.015-18.215-16.085-6.86-.085-3.285 26.523-1.712 32.824 0 0-6.697 7.55-10.725 14.361-4.03 6.811-13.853 3.689-6.118 9.273 0 0 .675.951-1.914 2.206-2.588 1.254-4.844 2.427-1.089 4.36 3.756 1.933 4.86 2.804 3.457 5.36-1.404 2.555 5.668-.702 11.585-.63 5.916.074 12.454 5.386 21.029 5.491"/><path stroke="#000" stroke-linecap="round" stroke-width="1.5" d="M52.101 85.287c3.259 1.967 11.47 4.72 18.248 0"/><path fill="#fff" stroke="#000" stroke-linecap="round" stroke-linejoin="round" stroke-width="1.5" d="M111.796 25.269c.136 9.228-7.234 16.82-16.462 16.956 9.228-.136 16.82 7.234 16.957 16.462-.137-9.228 7.233-16.82 16.461-16.957-9.228.137-16.82-7.233-16.956-16.461Z"/></g><defs><filter id="a" width="139.994" height="100.025" x=".881" y=".955" color-interpolation-filters="sRGB" filterUnits="userSpaceOnUse"><feFlood flood-opacity="0" result="BackgroundImageFix"/><feColorMatrix in="SourceAlpha" result="hardAlpha" values="0 0 0 0 0 0 0 0 0 0 0 0 0 0 0 0 0 0 127 0"/><feOffset dy="2.077"/><feGaussianBlur stdDeviation="3.116"/><feComposite in2="hardAlpha" operator="out"/><feColorMatrix values="0 0 0 0 0 0 0 0 0 0 0 0 0 0 0 0 0 0 0.15 0"/><feBlend in2="BackgroundImageFix" result="effect1_dropShadow_10148_724"/><feBlend in="SourceGraphic" in2="effect1_dropShadow_10148_724" result="shape"/></filter></defs></svg>
