<svg xmlns="http://www.w3.org/2000/svg" width="132" height="112" fill="none" viewBox="0 0 132 112"><g filter="url(#a)"><path fill="#fff" d="M116.466 77.045c-2.854-1.471-2.075-2.515-2.075-2.515 8.787-6.019-2.263-2.804-6.572-10.516S96.244 47.692 96.244 47.692c1.93-6.99 6.65-36.586-1.007-36.68-6.346-.079-20.577 17.214-20.77 17.45a24.871 24.871 0 0 0-7.744-1.335 24.872 24.872 0 0 0-7.773 1.143c-.188-.24-13.988-17.878-20.334-17.957-7.658-.094-3.668 29.61-1.912 36.645 0 0-7.475 8.428-11.973 16.032-4.498 7.604-15.465 4.117-6.83 10.351 0 0 .754 1.063-2.136 2.463-2.89 1.4-5.408 2.71-1.216 4.868 4.193 2.158 5.426 3.13 3.859 5.983-1.567 2.853 6.328-.784 12.933-.702 6.605.081 13.904 6.011 23.476 6.13 0 0 5.037 3.03 11.068 3.103 6.03.075 11.14-2.83 11.14-2.83 9.572.118 17.015-5.63 23.62-5.55 6.605.082 14.408 3.912 12.912 1.022-1.496-2.89-.24-3.833 4.005-5.887 4.244-2.054 1.758-3.425-1.096-4.896Z"/><path fill="#fff" d="M91.07 62.666a12.513 12.513 0 0 1-4.123-1.214l-1.338-.662a31.856 31.856 0 0 1-7.97-5.6l-.449-.431a6.946 6.946 0 0 0-3.478-1.81l-7.29-1.43-7.321 1.25a6.945 6.945 0 0 0-3.523 1.723l-.458.42a31.851 31.851 0 0 1-8.106 5.403l-1.354.628a12.51 12.51 0 0 1-4.152 1.112 2.689 2.689 0 0 0-2.45 2.645l-.01.885a23.501 23.501 0 0 0 23.21 23.79l7.394.091a23.503 23.503 0 0 0 23.79-23.21l.012-.886a2.689 2.689 0 0 0-2.384-2.704ZM26.465 84.596c-.46-.198-.893-.41-.889-.806.007-.518.344-1.23.714-1.891.233-.414.478-.808.664-1.12.787-1.316.14-2.245-.918-2.826a5.826 5.826 0 0 0-1.29-.504c-2.226-.591-1.144-2.77.038-3.924s-.052-2.777-1.197-3.079c-1.145-.301-2.002-.742-1.99-1.736.013-.993.944-2.728 2.282-4.491l.005-.008c-4.862 6.01-14.114 3.263-5.981 9.133 0 0 .752 1.063-2.137 2.463-2.89 1.4-5.408 2.71-1.216 4.868 4.193 2.158 5.426 3.13 3.859 5.983-1.197 2.178 3.122.575 8.171-.27.271-.045.544-.088.818-.129.077-.306.13-.587.133-.793.005-.438-.548-.645-1.066-.87ZM105.554 85.567c.464-.187.902-.387.907-.783.007-.519-.313-1.24-.667-1.91-.222-.419-.457-.818-.636-1.134-.753-1.336-.083-2.25.988-2.803a5.82 5.82 0 0 1 1.303-.472c2.239-.536 1.211-2.742.058-3.925-1.154-1.182.12-2.774 1.272-3.047 1.152-.273 2.019-.694 2.032-1.687.012-.993-.876-2.751-2.171-4.546l-.005-.008c4.713 6.129 14.03 3.61 5.755 9.278 0 0-.778 1.043 2.076 2.514 2.854 1.472 5.339 2.843 1.095 4.897-4.245 2.053-5.501 2.995-4.005 5.886 1.142 2.207-3.136.498-8.162-.471a41.82 41.82 0 0 0-.814-.149c-.07-.308-.116-.59-.113-.796.005-.438.562-.632 1.087-.844Z"/><path fill="#fff" d="M70.715 50.17a2.254 2.254 0 0 0-.709-.123l-7.12-.087a2.255 2.255 0 0 0-.711.106c-1.03.326-3.722 1.45-3.757 4.294-.05 4.02 4.935 7.744 7.878 7.78 2.944.037 8.019-3.563 8.068-7.583.035-2.844-2.628-4.035-3.65-4.386Z"/><path fill="#fff" stroke="#fff" stroke-linecap="round" stroke-linejoin="round" stroke-width="5.89" d="M51.089 21.753a2.945 2.945 0 0 0 1.73-4.97c-2.139-2.205-4.514-4.449-6.807-6.168-1.147-.86-2.334-1.634-3.509-2.207C41.36 7.85 40.03 7.387 38.65 7.37c-2.342-.029-4.017 1.294-5.048 2.867-.968 1.474-1.522 3.348-1.864 5.22-.693 3.788-.704 8.678-.426 13.405a2.945 2.945 0 0 0 5.196 1.72 30.57 30.57 0 0 1 7.626-6.493c2.246-1.352 4.678-2.037 6.955-2.336ZM80.873 17.128a2.945 2.945 0 0 0 1.606 5.011c2.27.356 4.683 1.1 6.895 2.507a30.568 30.568 0 0 1 7.464 6.68 2.945 2.945 0 0 0 5.237-1.591c.394-4.72.504-9.608-.096-13.413-.296-1.879-.804-3.766-1.734-5.264-.993-1.597-2.634-2.962-4.976-2.99-1.38-.017-2.72.413-3.878.942-1.189.544-2.394 1.289-3.562 2.12-2.335 1.662-4.765 3.847-6.956 5.998Z"/><mask id="b" width="45.231" height="19.553" x="44.227" y="20.851" fill="#000" maskUnits="userSpaceOnUse"><path fill="#fff" d="M44.227 20.851h45.231v19.553H44.227z"/><path d="M82.984 33.443a24.803 24.803 0 0 0-16.26-6.317A24.803 24.803 0 0 0 50.31 33.04"/></mask><path fill="#fff" d="M82.984 33.443a24.803 24.803 0 0 0-16.26-6.317A24.803 24.803 0 0 0 50.31 33.04"/><path fill="#fff" d="M79.063 37.838a5.89 5.89 0 0 0 7.842-8.79l-7.842 8.79ZM46.5 28.55a5.89 5.89 0 0 0 7.623 8.982L46.5 28.549Zm40.405.498a30.694 30.694 0 0 0-20.11-7.81l-.145 11.779a18.913 18.913 0 0 1 12.413 4.822l7.842-8.79Zm-20.11-7.81A30.693 30.693 0 0 0 46.5 28.549l7.623 8.982a18.914 18.914 0 0 1 12.527-4.515l.146-11.78Z" mask="url(#b)"/><mask id="c" width="16.196" height="16.196" x="30.64" y="36.815" fill="#000" maskUnits="userSpaceOnUse"><path fill="#fff" d="M30.64 36.815h16.196v16.196H30.64z"/><path d="M40.663 42.937s-2.882 2.784-3.95 4.02Z"/></mask><path fill="#fff" d="M40.663 42.937s-2.882 2.784-3.95 4.02Z"/><path fill="#fff" d="M44.756 47.173A5.89 5.89 0 0 0 36.57 38.7l8.185 8.473Zm-12.5-4.068a5.89 5.89 0 0 0 8.912 7.704l-8.911-7.704Zm8.407-.168L36.572 38.7v.001l-.003.002-.007.008a24.008 24.008 0 0 1-.126.122 145.686 145.686 0 0 0-1.502 1.477c-.83.826-1.975 1.983-2.676 2.795l8.911 7.704c.367-.425 1.198-1.277 2.077-2.152a162.017 162.017 0 0 1 1.395-1.373l.088-.085.022-.02.005-.005v-.001l-4.092-4.236Z" mask="url(#c)"/><mask id="d" width="16.196" height="16.196" x="86.277" y="37.501" fill="#000" maskUnits="userSpaceOnUse"><path fill="#fff" d="M86.277 37.501h16.196v16.196H86.277z"/><path d="M92.4 43.574s2.813 2.855 3.85 4.117Z"/></mask><path fill="#fff" d="M92.4 43.574s2.813 2.855 3.85 4.117Z"/><path fill="#fff" d="M96.595 39.44a5.89 5.89 0 0 0-8.39 8.269l8.39-8.269Zm-4.894 11.992a5.89 5.89 0 0 0 9.099-7.482l-9.099 7.482Zm.699-7.858c-4.195 4.135-4.196 4.134-4.196 4.134l.002.001.004.005.022.022.085.087a137.47 137.47 0 0 1 1.362 1.406c.856.896 1.666 1.77 2.022 2.203l9.099-7.482c-.681-.829-1.797-2.014-2.606-2.86a172.997 172.997 0 0 0-1.562-1.613l-.026-.026-.008-.008-.002-.002-4.196 4.133Z" mask="url(#d)"/><mask id="e" width="121.149" height="95.472" x="6.094" y="3.927" fill="#000" maskUnits="userSpaceOnUse"><path fill="#fff" d="M6.094 3.927h121.149v95.472H6.094z"/><path d="M77.03 92.356c9.572.118 17.014-5.63 23.619-5.549 6.605.082 14.409 3.912 12.913 1.021-1.497-2.89-.241-3.832 4.004-5.886 4.245-2.054 1.759-3.425-1.095-4.896-2.854-1.472-2.075-2.515-2.075-2.515 8.786-6.02-2.264-2.805-6.573-10.517-4.308-7.712-11.574-16.322-11.574-16.322 1.929-6.99 6.65-36.586-1.008-36.68-6.346-.078-20.577 17.214-20.77 17.45a24.872 24.872 0 0 0-7.743-1.335 24.871 24.871 0 0 0-7.774 1.143c-.187-.24-13.988-17.878-20.334-17.956-7.657-.094-3.667 29.61-1.911 36.644 0 0-7.476 8.429-11.974 16.032-4.497 7.604-15.464 4.118-6.829 10.352 0 0 .753 1.062-2.136 2.462-2.89 1.4-5.409 2.71-1.216 4.868 4.193 2.158 5.425 3.13 3.858 5.983-1.567 2.853 6.329-.783 12.934-.702 6.604.082 13.903 6.011 23.476 6.13"/></mask><path fill="#fff" d="M77.03 92.356c9.572.118 17.014-5.63 23.619-5.549 6.605.082 14.409 3.912 12.913 1.021-1.497-2.89-.241-3.832 4.004-5.886 4.245-2.054 1.759-3.425-1.095-4.896-2.854-1.472-2.075-2.515-2.075-2.515 8.786-6.02-2.264-2.805-6.573-10.517-4.308-7.712-11.574-16.322-11.574-16.322 1.929-6.99 6.65-36.586-1.008-36.68-6.346-.078-20.577 17.214-20.77 17.45a24.872 24.872 0 0 0-7.743-1.335 24.871 24.871 0 0 0-7.774 1.143c-.187-.24-13.988-17.878-20.334-17.956-7.657-.094-3.667 29.61-1.911 36.644 0 0-7.476 8.429-11.974 16.032-4.497 7.604-15.464 4.118-6.829 10.352 0 0 .753 1.062-2.136 2.462-2.89 1.4-5.409 2.71-1.216 4.868 4.193 2.158 5.425 3.13 3.858 5.983-1.567 2.853 6.329-.783 12.934-.702 6.604.082 13.903 6.011 23.476 6.13"/><path fill="#fff" d="M77.102 86.467a5.89 5.89 0 1 0-.145 11.779l.145-11.78Zm36.46 1.361 5.23-2.707-5.23 2.707Zm4.004-5.886-2.565-5.302H115l2.566 5.302Zm-3.17-7.411-3.329-4.86a5.89 5.89 0 0 0-1.392 1.337l4.721 3.523Zm-6.573-10.517 5.142-2.873-5.142 2.873ZM96.249 47.692l-5.678-1.567a5.89 5.89 0 0 0 1.176 5.365l4.502-3.798ZM74.47 28.462l-1.903 5.574A5.89 5.89 0 0 0 79.02 32.2l-4.55-3.74Zm-15.517-.192-4.641 3.627a5.89 5.89 0 0 0 6.406 1.993l-1.765-5.62ZM36.71 46.959l4.406 3.908a5.89 5.89 0 0 0 1.308-5.335l-5.714 1.427ZM24.735 62.99l-5.07-2.998 5.07 2.998Zm-6.829 10.352 4.806-3.406a5.892 5.892 0 0 0-1.358-1.37l-3.448 4.776Zm-2.136 2.462 2.569 5.3-2.57-5.3Zm-1.216 4.868 2.695-5.237-2.695 5.237Zm3.858 5.983 5.163 2.836-5.163-2.836ZM54.75 97.972a5.89 5.89 0 0 0 .145-11.779l-.145 11.78Zm22.208.274c5.947.073 11.08-1.687 15.008-3.115 4.402-1.601 6.66-2.458 8.612-2.434l.145-11.78c-4.653-.057-9.419 1.92-12.783 3.143-3.838 1.396-7.212 2.451-10.837 2.407l-.145 11.779Zm23.62-5.55c2.486.032 5.276.78 8.223 1.471.669.157 1.401.32 2.092.437.603.102 1.596.247 2.646.17.656-.049 3.904-.351 5.471-3.592 1.413-2.92.057-5.532-.217-6.061l-10.461 5.415a4.253 4.253 0 0 1-.393-1.203 5.376 5.376 0 0 1 .467-3.28c1.401-2.897 4.233-3.025 4.265-3.028.425-.03.585.032.188-.035-.31-.053-.746-.146-1.372-.293-2.231-.522-6.645-1.728-10.764-1.78l-.145 11.78Zm18.215-7.575c-.207-.402.015-.127.05.563.02.395-.025.868-.186 1.365a3.708 3.708 0 0 1-.579 1.117c-.182.236-.324.35-.329.355-.006.004.065-.053.262-.173.423-.259 1.07-.595 2.122-1.105L115 76.64c-1.07.518-2.172 1.07-3.131 1.655-.917.56-2.143 1.409-3.124 2.681-1.135 1.474-1.769 3.29-1.669 5.296.088 1.744.714 3.22 1.255 4.264l10.461-5.415Zm1.34 2.123c1.278-.619 3.02-1.61 4.224-3.27a7.084 7.084 0 0 0 1.362-3.77 6.953 6.953 0 0 0-.924-3.851c-.966-1.692-2.451-2.703-3.152-3.156-.85-.55-1.796-1.038-2.472-1.387l-5.398 10.47c.75.388 1.185.622 1.471.808.129.083.112.084.02 0a3.586 3.586 0 0 1-.697-.89 4.822 4.822 0 0 1-.61-2.646 4.705 4.705 0 0 1 .862-2.492c.174-.24.334-.405.436-.501.104-.097.173-.147.184-.155.012-.009-.106.076-.437.236l5.131 10.604Zm-.962-15.434c-.961-.495.13-.23.727 1.41a4.99 4.99 0 0 1 .155 2.845 5.232 5.232 0 0 1-.671 1.602 6.849 6.849 0 0 1-.198.295l-.034.046-.016.023-.009.011c-.004.006-.008.011-4.728-3.511-4.721-3.523-4.725-3.517-4.729-3.512l-.009.012-.017.023-.034.047a6.724 6.724 0 0 0-.213.318 6.439 6.439 0 0 0-.809 1.95 6.779 6.779 0 0 0 .244 3.884c.921 2.529 3.049 4.052 4.943 5.028l5.398-10.47Zm-1.446 7.58c1.184-.811 2.274-1.626 3.143-2.45.675-.64 2.146-2.118 2.591-4.358a6.612 6.612 0 0 0-.471-4.058 6.99 6.99 0 0 0-1.94-2.488c-1.045-.857-2.249-1.353-2.772-1.57-2.936-1.216-4.373-1.648-5.31-3.325l-10.283 5.746c3.372 6.036 9.614 7.853 11.084 8.462.578.24.271.173-.186-.202a4.803 4.803 0 0 1-1.302-1.716 5.168 5.168 0 0 1-.374-3.147c.314-1.574 1.24-2.255.854-1.89-.192.183-.679.584-1.691 1.277l6.657 9.719Zm-4.759-18.249c-2.349-4.205-5.431-8.535-7.845-11.73a162.456 162.456 0 0 0-3.084-3.952 132.105 132.105 0 0 0-1.185-1.445l-.071-.085-.02-.024-.006-.007-.002-.003h-.001c0-.001-.001-.002-4.502 3.797l-4.502 3.798.001.001.011.014.053.062.218.263a147.706 147.706 0 0 1 3.691 4.682c2.296 3.038 5.001 6.868 6.961 10.375l10.283-5.746ZM101.927 49.26c1.088-3.942 2.809-13.508 3.294-22.163.24-4.284.21-8.83-.555-12.498-.376-1.804-1.031-3.918-2.327-5.715-1.442-2-3.812-3.721-7.025-3.76L95.168 16.9c-1.299-.016-2.14-.791-2.383-1.127-.096-.133.121.135.35 1.228.443 2.127.548 5.434.324 9.435-.443 7.913-2.047 16.64-2.888 19.688l11.356 3.134ZM95.313 5.122c-2.047-.025-3.891.626-5.272 1.271-1.449.677-2.856 1.572-4.15 2.508-2.585 1.872-5.211 4.274-7.492 6.538a138.63 138.63 0 0 0-8.48 9.283l9.102 7.48a127.11 127.11 0 0 1 7.677-8.403c2.094-2.078 4.228-4 6.101-5.356.937-.678 1.684-1.123 2.229-1.377.613-.287.602-.159.14-.165l.145-11.779Zm-18.94 17.765a30.761 30.761 0 0 0-9.573-1.65l-.145 11.78c2.07.025 4.054.384 5.913 1.019l3.805-11.149Zm-9.573-1.65a30.76 30.76 0 0 0-9.61 1.414l3.53 11.239a18.983 18.983 0 0 1 5.935-.873l.145-11.78Zm-3.204 3.407a138.647 138.647 0 0 0-8.248-9.49c-2.224-2.319-4.79-4.785-7.33-6.72-1.269-.967-2.654-1.897-4.085-2.609-1.365-.679-3.192-1.375-5.24-1.4l-.145 11.778c-.462-.005-.47-.133.136.168.539.268 1.275.732 2.194 1.433 1.84 1.402 3.925 3.374 5.968 5.504a127.11 127.11 0 0 1 7.467 8.589l9.283-7.253ZM38.693 4.424c-3.214-.04-5.625 1.623-7.116 3.587-1.34 1.764-2.047 3.862-2.468 5.655-.855 3.648-.996 8.193-.862 12.481.272 8.665 1.757 18.27 2.747 22.238l11.43-2.854c-.766-3.066-2.154-11.83-2.403-19.753-.125-4.005.062-7.308.558-9.423.255-1.088.478-1.35.38-1.22-.251.33-1.112 1.085-2.411 1.068l.145-11.779Zm-1.984 42.534a3258.279 3258.279 0 0 0-4.407-3.907H32.3l-.002.003-.007.007-.02.024a46.123 46.123 0 0 0-.339.386 159.327 159.327 0 0 0-4.135 4.986c-2.492 3.135-5.68 7.389-8.132 11.535l10.139 5.997c2.045-3.458 4.844-7.22 7.214-10.2a147.65 147.65 0 0 1 3.806-4.59l.224-.258.054-.06c.005-.007.01-.011.011-.014a.015.015 0 0 1 .002-.002l-4.407-3.907ZM19.666 59.992c-.978 1.653-2.425 2.049-5.39 3.192-.528.204-1.744.67-2.81 1.502a6.987 6.987 0 0 0-2 2.44 6.612 6.612 0 0 0-.572 4.044c.39 2.25 1.824 3.763 2.484 4.42.848.846 1.917 1.687 3.08 2.527l6.896-9.551c-.995-.718-1.473-1.132-1.66-1.319-.376-.375.533.329.807 1.91a5.168 5.168 0 0 1-.45 3.138 4.801 4.801 0 0 1-1.344 1.683c-.467.363-.775.422-.191.197 1.484-.572 7.77-2.236 11.289-8.186l-10.14-5.997Zm-1.76 13.35c-4.806 3.405-4.81 3.4-4.814 3.393a1.166 1.166 0 0 0-.008-.011l-.016-.023-.032-.047a5.747 5.747 0 0 1-.434-.758 5.257 5.257 0 0 1-.388-1.16 4.997 4.997 0 0 1 .225-2.84c.637-1.624 1.734-1.863.762-1.392l5.137 10.6c1.918-.929 4.083-2.398 5.066-4.904a6.786 6.786 0 0 0 .34-3.877 6.525 6.525 0 0 0-.9-2.191 6.802 6.802 0 0 0-.1-.15l-.016-.023a1.286 1.286 0 0 1-.008-.011c-.004-.006-.008-.012-4.814 3.394Zm-4.705-2.838c-.685.332-1.643.797-2.507 1.326-.71.435-2.22 1.41-3.228 3.077a6.967 6.967 0 0 0-1.019 3.826 7.08 7.08 0 0 0 1.27 3.804c1.162 1.69 2.879 2.722 4.141 3.372l5.391-10.474c-.327-.168-.443-.255-.431-.246.011.008.079.06.18.159.1.099.255.267.423.511.35.51.765 1.372.8 2.513a4.816 4.816 0 0 1-.675 2.63 3.58 3.58 0 0 1-.718.874c-.095.08-.11.079.02-.001.29-.178.73-.402 1.49-.77l-5.137-10.6ZM11.858 85.91c1.04.535 1.677.887 2.094 1.156.194.126.264.184.258.18-.005-.005-.144-.122-.32-.363a3.708 3.708 0 0 1-.552-1.13 3.845 3.845 0 0 1-.152-1.37c.052-.69.281-.958.064-.562l10.325 5.671c.566-1.03 1.229-2.49 1.359-4.232.15-2.002-.44-3.834-1.538-5.335-.949-1.296-2.154-2.175-3.057-2.757-.944-.61-2.032-1.188-3.09-1.732l-5.39 10.474Zm1.392-2.09c-.287.523-1.707 3.102-.367 6.055 1.488 3.278 4.727 3.66 5.381 3.725 1.048.104 2.044-.017 2.65-.104.693-.1 1.43-.245 2.101-.385 2.964-.617 5.772-1.298 8.258-1.267l.145-11.78c-4.119-.05-8.561 1.047-10.805 1.514-.63.132-1.067.214-1.379.259-.398.057-.237-.002.188.04.031.003 2.86.201 4.189 3.132a5.38 5.38 0 0 1 .386 3.29 4.262 4.262 0 0 1-.422 1.193L13.25 83.82Zm18.023 8.024c1.952.024 4.188.936 8.549 2.645 3.89 1.525 8.98 3.41 14.927 3.484l.145-11.779c-3.625-.045-6.972-1.183-10.774-2.673-3.333-1.306-8.049-3.399-12.702-3.456l-.145 11.779Z" mask="url(#e)"/><mask id="f" width="40" height="15" x="46.115" y="61.744" fill="#000" maskUnits="userSpaceOnUse"><path fill="#fff" d="M46.115 61.744h40v15h-40z"/><path d="M52.115 67.744c4.189 1.358 8.858 2.12 13.78 2.12 4.923 0 9.592-.762 13.78-2.12"/></mask><path fill="#fff" d="M52.115 67.744c4.189 1.358 8.858 2.12 13.78 2.12 4.923 0 9.592-.762 13.78-2.12"/><path fill="#fff" d="M53.932 62.14a5.89 5.89 0 0 0-3.633 11.207l3.633-11.206Zm27.56 11.207A5.89 5.89 0 1 0 77.86 62.14l3.633 11.206Zm-31.193 0c4.788 1.552 10.072 2.407 15.596 2.407v-11.78c-4.32 0-8.375-.67-11.963-1.833l-3.633 11.206Zm15.596 2.407c5.525 0 10.808-.855 15.597-2.407L77.86 62.14c-3.588 1.163-7.644 1.833-11.964 1.833v11.78Z" mask="url(#f)"/><path fill="#fff" stroke="#fff" stroke-linejoin="round" stroke-miterlimit="10" stroke-width="5.89" d="M88.251 37.274a7.58 7.58 0 0 1 1.164-.907c.682-.429 1.47-.635 2.003-.734.517-.096 1.385-.2 2.238 0l.01.003c3.117.75 5.683 2.791 7.361 5.239l-12.776-3.601Zm0 0c-.124-.098-.25-.194-.374-.288-1.106-.835-2.447-1.717-3.803-2.132h-.001c-5.546-1.693-11.815 1.6-13.806 7.338-1.375 2.876-.887 6.083-.11 8.602.823 2.673 2.185 5.248 3.243 7.13.032.057.066.113.102.168 1.44 2.203 2.574 3.76 3.896 5.203 1.31 1.43 2.741 2.677 4.68 4.295.038.032.078.063.118.093l1.864 1.402.003.161c.008.605-.038 1.403-.14 2.387-.205 1.964-.613 4.442-1.129 7.177-.6 3.179-1.293 6.443-1.954 9.558-.509 2.398-.999 4.707-1.414 6.821-.605 3.086 1.787 5.846 4.834 5.846h13.863c2.211 0 4.228-1.485 4.771-3.734 1.59-6.587 1.96-13.32 2.017-19.506.023-2.45-.001-4.763-.024-6.95-.036-3.487-.069-6.657.097-9.57.032-.564.076-1.16.123-1.782.236-3.135.52-6.925-.534-10.5-.87-2.95-2.191-6.142-3.546-8.118l-12.776-3.601ZM44.093 37.274a7.577 7.577 0 0 0-1.164-.908c-.682-.428-1.47-.634-2.003-.733-.517-.096-1.385-.2-2.238 0l-.01.003c-3.116.75-5.683 2.791-7.36 5.239l12.775-3.601Zm0 0c.125-.098.25-.194.374-.288 1.106-.835 2.447-1.717 3.803-2.132h.002c5.546-1.693 11.814 1.6 13.805 7.338 1.375 2.876.888 6.083.111 8.602-.824 2.673-2.186 5.248-3.244 7.13a2.935 2.935 0 0 1-.102.168c-1.44 2.203-2.574 3.76-3.896 5.203-1.31 1.43-2.741 2.677-4.68 4.295a2.94 2.94 0 0 1-.117.093l-1.864 1.402-.004.161c-.007.605.038 1.403.14 2.386.205 1.965.613 4.443 1.13 7.178.6 3.178 1.292 6.443 1.953 9.558.509 2.398 1 4.707 1.414 6.821.605 3.086-1.787 5.846-4.834 5.846H34.221c-2.21 0-4.228-1.485-4.77-3.734-1.59-6.587-1.96-13.32-2.018-19.506-.023-2.451.001-4.763.024-6.95.036-3.487.07-6.657-.096-9.57a99.051 99.051 0 0 0-.124-1.782c-.235-3.135-.52-6.925.535-10.5.87-2.95 2.19-6.142 3.546-8.118l12.775-3.601Z"/><path stroke="#fff" stroke-linecap="round" stroke-width="5.89" d="M55.67 96c3.405 2.073 11.817 4.976 21.768 0"/><path stroke="#fff" stroke-linecap="round" stroke-width="5.89" d="M55.67 94c3.405 2.073 11.817 4.976 21.768 0"/></g><path fill="#FF834D" d="M116.334 77.045c-2.854-1.471-2.075-2.515-2.075-2.515 8.786-6.019-2.263-2.804-6.572-10.516S96.112 47.692 96.112 47.692c1.93-6.99 6.65-36.586-1.008-36.68-6.346-.079-20.576 17.214-20.77 17.45a24.871 24.871 0 0 0-7.743-1.335 24.877 24.877 0 0 0-7.773 1.143c-.188-.24-13.988-17.878-20.334-17.956-7.658-.095-3.668 29.61-1.912 36.644 0 0-7.476 8.428-11.973 16.032-4.498 7.604-15.465 4.117-6.83 10.351 0 0 .753 1.063-2.136 2.463-2.89 1.4-5.408 2.71-1.216 4.868 4.193 2.158 5.426 3.13 3.859 5.983-1.567 2.853 6.328-.784 12.933-.702 6.605.081 13.903 6.011 23.476 6.13 0 0 5.037 3.03 11.067 3.103 6.03.075 11.14-2.83 11.14-2.83 9.573.118 17.016-5.63 23.621-5.549 6.605.081 14.408 3.911 12.912 1.02-1.496-2.89-.24-3.832 4.004-5.886 4.245-2.054 1.759-3.425-1.095-4.896Z"/><path fill="#fff" d="M90.938 62.666a12.51 12.51 0 0 1-4.124-1.214l-1.338-.662a31.847 31.847 0 0 1-7.97-5.6l-.448-.431a6.945 6.945 0 0 0-3.479-1.81l-7.289-1.43-7.322 1.25a6.945 6.945 0 0 0-3.522 1.723l-.459.42a31.856 31.856 0 0 1-8.105 5.403l-1.354.628a12.51 12.51 0 0 1-4.153 1.112 2.689 2.689 0 0 0-2.449 2.645l-.01.885a23.503 23.503 0 0 0 23.21 23.79l7.394.091a23.502 23.502 0 0 0 23.79-23.21l.011-.886a2.688 2.688 0 0 0-2.383-2.704ZM26.332 84.596c-.46-.198-.893-.41-.888-.806.007-.518.344-1.231.714-1.891.232-.414.478-.808.664-1.12.786-1.316.139-2.246-.918-2.826a5.822 5.822 0 0 0-1.291-.504c-2.225-.591-1.144-2.77.039-3.924 1.182-1.154-.052-2.777-1.198-3.079-1.145-.301-2-.742-1.989-1.736.013-.993.944-2.728 2.282-4.491l.005-.008c-4.862 6.01-14.114 3.263-5.982 9.133 0 0 .753 1.063-2.136 2.463-2.89 1.4-5.409 2.71-1.216 4.868 4.193 2.157 5.425 3.13 3.858 5.983-1.196 2.178 3.123.575 8.172-.27.27-.045.543-.088.817-.129.078-.306.13-.587.133-.793.006-.438-.547-.645-1.066-.87ZM105.422 85.567c.464-.187.903-.387.907-.783.007-.519-.312-1.24-.667-1.91-.222-.419-.457-.818-.635-1.134-.754-1.336-.084-2.25.987-2.803a5.82 5.82 0 0 1 1.303-.472c2.239-.537 1.211-2.742.058-3.925-1.154-1.182.12-2.775 1.272-3.047 1.153-.273 2.019-.694 2.032-1.687.012-.993-.876-2.751-2.17-4.546l-.005-.008c4.712 6.129 14.029 3.61 5.755 9.278 0 0-.779 1.043 2.075 2.514 2.854 1.472 5.34 2.843 1.095 4.896-4.245 2.054-5.501 2.996-4.005 5.887 1.143 2.207-3.136.498-8.162-.471a40.486 40.486 0 0 0-.814-.15c-.07-.307-.116-.59-.113-.796.005-.437.563-.631 1.087-.843Z"/><path fill="#000" d="M70.582 50.17a2.254 2.254 0 0 0-.708-.123l-7.12-.087a2.258 2.258 0 0 0-.712.105c-1.03.327-3.721 1.451-3.756 4.295-.05 4.02 4.935 7.744 7.878 7.78 2.944.037 8.018-3.563 8.068-7.583.035-2.844-2.628-4.035-3.65-4.386Z"/><path fill="#000" stroke="#000" stroke-linecap="round" stroke-linejoin="round" stroke-width="1.923" d="M42.483 21.565c2.674-1.61 5.516-2.393 8.089-2.732-4.181-4.311-9.013-8.48-12.091-8.518-4.245-.053-4.91 9.051-4.361 18.374a33.516 33.516 0 0 1 8.363-7.124ZM90.822 22.161c-2.634-1.675-5.455-2.529-8.019-2.931 4.287-4.207 9.22-8.256 12.297-8.218 4.245.053 4.686 9.17 3.907 18.477a33.512 33.512 0 0 0-8.185-7.328Z"/><path stroke="#000" stroke-linecap="round" stroke-linejoin="round" stroke-width="1.6" d="M82.852 33.443a24.804 24.804 0 0 0-16.261-6.317 24.804 24.804 0 0 0-16.412 5.914"/><path stroke="#000" stroke-linecap="round" stroke-linejoin="round" stroke-width="1.923" d="M40.531 42.936s-2.882 2.785-3.95 4.02M92.268 43.574s2.813 2.855 3.85 4.117"/><path stroke="#000" stroke-linecap="round" stroke-linejoin="round" stroke-width="1.6" d="M76.897 92.356c9.572.118 17.015-5.63 23.62-5.549 6.605.082 14.408 3.912 12.912 1.021-1.496-2.89-.24-3.832 4.005-5.886 4.244-2.054 1.758-3.425-1.096-4.896-2.854-1.472-2.075-2.515-2.075-2.515 8.787-6.02-2.263-2.805-6.572-10.517S96.116 47.692 96.116 47.692c1.93-6.99 6.65-36.586-1.007-36.68-6.346-.078-20.577 17.214-20.77 17.45a24.871 24.871 0 0 0-7.744-1.335 24.87 24.87 0 0 0-7.773 1.143c-.188-.24-13.988-17.878-20.334-17.956-7.658-.094-3.668 29.61-1.911 36.644 0 0-7.476 8.429-11.974 16.032-4.498 7.604-15.465 4.118-6.83 10.352 0 0 .754 1.062-2.136 2.463-2.89 1.4-5.408 2.71-1.215 4.867 4.192 2.158 5.425 3.13 3.858 5.983-1.567 2.853 6.328-.783 12.933-.702 6.605.082 13.904 6.012 23.476 6.13"/><path stroke="#000" stroke-linecap="round" stroke-linejoin="round" stroke-width="1.6" d="M51.983 67.744c4.189 1.358 8.858 2.12 13.78 2.12 4.923 0 9.592-.762 13.78-2.12"/><path fill="#D9D9D9" d="m79.365 91.943 4.867.748 11.899-28.63c-6.106-7.838-19.109-21.848-22.27-15.184-3.16 6.664 5.108 16.228 9.638 20.177l-4.134 22.89Z" style="mix-blend-mode:multiply"/><path fill="#FF834D" stroke="#000" stroke-linejoin="round" stroke-miterlimit="10" stroke-width="1.6" d="M75.835 56.481c2.804 4.291 4.137 5.624 7.999 8.849l2.801 2.106c1.246 3.259-2.64 19.09-4.45 28.32-.24 1.219.7 2.334 1.943 2.334h13.864a1.95 1.95 0 0 0 1.907-1.48c3.024-12.526 1.466-25.886 2.012-35.502.216-3.797.781-7.634-.295-11.281-.83-2.814-2.044-5.674-3.15-7.287-1.339-1.953-3.328-3.49-5.62-4.04-.513-.121-1.55.078-2 .363-1.007.628-2.365 2.229-1.686 3.198-2.078-1.924-4.4-3.877-6.079-4.39-4.003-1.222-8.782 1.227-10.218 5.648-1.945 3.778.889 9.457 2.972 13.162Z"/><path fill="#D9D9D9" d="m52.93 92.441-4.86.8-12.2-28.503c6.023-7.902 18.878-22.049 22.108-15.419 3.231 6.63-4.936 16.281-9.424 20.278l4.375 22.844Z" style="mix-blend-mode:multiply"/><path fill="#FF834D" stroke="#000" stroke-linejoin="round" stroke-miterlimit="10" stroke-width="1.6" d="M56.245 56.481c-2.803 4.291-4.136 5.624-7.998 8.848l-2.802 2.107c-1.245 3.259 2.64 19.09 4.451 28.32.24 1.219-.701 2.334-1.943 2.334H34.089a1.95 1.95 0 0 1-1.908-1.48c-3.024-12.526-1.466-25.886-2.012-35.502-.216-3.797-.78-7.634.295-11.281.83-2.814 2.045-5.674 3.15-7.287 1.34-1.953 3.329-3.49 5.62-4.04.514-.122 1.55.078 2 .363 1.007.628 2.366 2.229 1.686 3.198 2.079-1.924 4.4-3.877 6.08-4.39 4.002-1.222 8.782 1.227 10.217 5.648 1.946 3.777-.889 9.456-2.972 13.162Z"/><path stroke="#000" stroke-linecap="round" stroke-width="1.97" d="M55.537 92.062c3.406 2.073 11.817 4.976 21.769 0"/><defs><filter id="a" width="131.285" height="111.556" x=".444" y=".424" color-interpolation-filters="sRGB" filterUnits="userSpaceOnUse"><feFlood flood-opacity="0" result="BackgroundImageFix"/><feColorMatrix in="SourceAlpha" result="hardAlpha" values="0 0 0 0 0 0 0 0 0 0 0 0 0 0 0 0 0 0 127 0"/><feOffset dy="2"/><feGaussianBlur stdDeviation="3"/><feComposite in2="hardAlpha" operator="out"/><feColorMatrix values="0 0 0 0 0 0 0 0 0 0 0 0 0 0 0 0 0 0 0.15 0"/><feBlend in2="BackgroundImageFix" result="effect1_dropShadow_10147_396"/><feBlend in="SourceGraphic" in2="effect1_dropShadow_10147_396" result="shape"/></filter></defs></svg>
