<svg xmlns="http://www.w3.org/2000/svg" width="179" height="132" fill="none" viewBox="0 0 179 132"><g filter="url(#a)"><mask id="b" width="167" height="120" x="6" y="4.034" fill="#000" maskUnits="userSpaceOnUse"><path fill="#fff" d="M6 4.034h167v120H6z"/><path fill-rule="evenodd" d="M142 22.219c6.73 0 12.185-5.456 12.185-12.185 0 6.73 5.455 12.185 12.185 12.185-6.73 0-12.185 5.455-12.185 12.184 0-6.729-5.455-12.184-12.185-12.184ZM30.282 34.95a7.54 7.54 0 0 1 7.54-7.54h108.017v80.89h11.298v1.705a7.54 7.54 0 0 1-7.54 7.54H26.009a7.54 7.54 0 0 1-7.54-7.54v-1.705h11.813v-21.5h-17.59a.691.691 0 1 1 0-1.383h17.59V34.951Z" clip-rule="evenodd"/></mask><path fill="#fff" fill-rule="evenodd" d="M142 22.219c6.73 0 12.185-5.456 12.185-12.185 0 6.73 5.455 12.185 12.185 12.185-6.73 0-12.185 5.455-12.185 12.184 0-6.729-5.455-12.184-12.185-12.184ZM30.282 34.95a7.54 7.54 0 0 1 7.54-7.54h108.017v80.89h11.298v1.705a7.54 7.54 0 0 1-7.54 7.54H26.009a7.54 7.54 0 0 1-7.54-7.54v-1.705h11.813v-21.5h-17.59a.691.691 0 1 1 0-1.383h17.59V34.951Z" clip-rule="evenodd"/><path fill="#fff" d="M160.075 10.034a5.89 5.89 0 1 0-11.78 0h11.78ZM142 16.329a5.89 5.89 0 1 0 0 11.78v-11.78Zm24.37 11.78a5.89 5.89 0 0 0 0-11.78v11.78Zm-18.075 6.294a5.89 5.89 0 1 0 11.78 0h-11.78Zm-2.456-6.992h5.89a5.89 5.89 0 0 0-5.89-5.89v5.89Zm0 80.89h-5.89a5.89 5.89 0 0 0 5.89 5.89v-5.89Zm11.298 0h5.89a5.89 5.89 0 0 0-5.89-5.89v5.89Zm-7.54 9.245v-5.89 5.89Zm-123.588 0v5.89-5.89Zm-7.54-7.54h5.89-5.89Zm0-1.705v-5.89a5.893 5.893 0 0 0-5.89 5.89h5.89Zm11.813 0v5.89a5.89 5.89 0 0 0 5.89-5.89h-5.89Zm0-21.5h5.89a5.89 5.89 0 0 0-5.89-5.89v5.89Zm0-1.383v5.89a5.89 5.89 0 0 0 5.89-5.89h-5.89Zm118.013-75.384A6.295 6.295 0 0 1 142 16.329v11.78c9.983 0 18.075-8.093 18.075-18.075h-11.78Zm18.075 6.295a6.295 6.295 0 0 1-6.295-6.295h-11.78c0 9.982 8.092 18.075 18.075 18.075v-11.78Zm-6.295 18.075a6.295 6.295 0 0 1 6.295-6.295v-11.78c-9.983 0-18.075 8.092-18.075 18.075h11.78ZM142 28.108a6.295 6.295 0 0 1 6.295 6.294h11.78c0-9.982-8.092-18.074-18.075-18.074v11.78ZM37.822 21.52c-7.417 0-13.43 6.013-13.43 13.43h11.78c0-.911.739-1.65 1.65-1.65v-11.78Zm108.017 0H37.822v11.78h108.017v-11.78Zm5.89 86.78v-80.89h-11.78v80.89h11.78Zm5.408-5.89h-11.298v11.78h11.298v-11.78Zm5.89 7.595v-1.705h-11.78v1.705h11.78Zm-13.43 13.43c7.418 0 13.43-6.013 13.43-13.43h-11.78a1.65 1.65 0 0 1-1.65 1.65v11.78Zm-123.588 0h123.588v-11.78H26.009v11.78Zm-13.43-13.43c0 7.417 6.013 13.43 13.43 13.43v-11.78a1.65 1.65 0 0 1-1.65-1.65h-11.78Zm0-1.705v1.705h11.78v-1.705h-11.78Zm17.703-5.89H18.469v11.78h11.813v-11.78Zm-5.89-15.61v21.5h11.78v-21.5h-11.78Zm-11.7 5.89h17.59V80.91h-17.59v11.78ZM6.11 86.108a6.581 6.581 0 0 0 6.581 6.581V80.91a5.199 5.199 0 0 1 5.2 5.2H6.11Zm6.581-6.58a6.581 6.581 0 0 0-6.58 6.58h11.78a5.199 5.199 0 0 1-5.2 5.2v-11.78Zm17.59 0h-17.59v11.78h17.59v-11.78Zm-5.89-44.578v50.467h11.78V34.951h-11.78Z" mask="url(#b)"/></g><path fill="#fff" stroke="#000" stroke-linecap="round" stroke-linejoin="round" stroke-width="1.5" d="M154.185 10c0 6.73-5.455 12.185-12.185 12.185 6.73 0 12.185 5.455 12.185 12.185 0-6.73 5.455-12.185 12.185-12.185-6.73 0-12.185-5.455-12.185-12.185Z"/><path fill="#FFD567" stroke="#000" stroke-width="1.5" d="M38.13 28.127h100.479a6.79 6.79 0 0 1 6.789 6.789v74.912H31.341V34.916c0-3.75 3.04-6.789 6.788-6.789Z"/><path fill="#FFFF98" stroke="#000" stroke-width="1.5" d="M39.386 31.897h98.003a4.276 4.276 0 0 1 4.276 4.275v73.381H35.11v-73.38a4.276 4.276 0 0 1 4.276-4.276Z"/><path fill="#FFD567" stroke="#000" stroke-width="1.382" d="M149.908 116.821H26.317a6.848 6.848 0 0 1-6.848-6.848v-1.015h137.287v1.015a6.848 6.848 0 0 1-6.848 6.848Z"/><path stroke="#000" stroke-linecap="round" stroke-linejoin="round" stroke-width="1.5" d="M79.158 72.343H60.161M53.66 72.343h-9.192M64.981 86.076H13"/><defs><filter id="a" width="178.149" height="131.292" x=".11" y=".144" color-interpolation-filters="sRGB" filterUnits="userSpaceOnUse"><feFlood flood-opacity="0" result="BackgroundImageFix"/><feColorMatrix in="SourceAlpha" result="hardAlpha" values="0 0 0 0 0 0 0 0 0 0 0 0 0 0 0 0 0 0 127 0"/><feOffset dy="2"/><feGaussianBlur stdDeviation="3"/><feComposite in2="hardAlpha" operator="out"/><feColorMatrix values="0 0 0 0 0 0 0 0 0 0 0 0 0 0 0 0 0 0 0.15 0"/><feBlend in2="BackgroundImageFix" result="effect1_dropShadow_10148_454"/><feBlend in="SourceGraphic" in2="effect1_dropShadow_10148_454" result="shape"/></filter></defs></svg>
