<svg xmlns="http://www.w3.org/2000/svg" width="82" height="81" fill="none" viewBox="0 0 82 81"><g filter="url(#a)"><circle cx="40.896" cy="38.496" r="31.215" fill="#fff" stroke="#fff" stroke-width="5.89" transform="rotate(6.766 40.896 38.496)"/><circle cx="40.404" cy="38.438" r="27.579" fill="#B3FFE3" stroke="#000" stroke-width="1.382" transform="rotate(6.766 40.404 38.438)"/><path stroke="#000" stroke-width="1.382" d="M26.444 43.693c-3.281-7.643.255-16.5 7.898-19.78a15.022 15.022 0 0 1 12.17.126 15.057 15.057 0 0 1 4.694 3.337"/><path stroke="#000" stroke-linecap="round" stroke-width="1.382" d="m48.226 19.772 2.987 6.959a.126.126 0 0 1-.066.164l-6.958 2.988"/><path stroke="#000" stroke-width="1.382" d="M32.194 50.948a15.058 15.058 0 0 0 5.397 2.008 15.022 15.022 0 0 0 11.79-3.027c4.378-3.45 6.327-8.84 5.586-13.988"/><path stroke="#000" stroke-linecap="round" stroke-width="1.382" d="m37.04 57.521-4.686-5.948a.126.126 0 0 1 .02-.176l5.949-4.686"/></g><defs><filter id="a" width="80.327" height="80.327" x=".732" y=".332" color-interpolation-filters="sRGB" filterUnits="userSpaceOnUse"><feFlood flood-opacity="0" result="BackgroundImageFix"/><feColorMatrix in="SourceAlpha" result="hardAlpha" values="0 0 0 0 0 0 0 0 0 0 0 0 0 0 0 0 0 0 127 0"/><feOffset dy="2"/><feGaussianBlur stdDeviation="3"/><feComposite in2="hardAlpha" operator="out"/><feColorMatrix values="0 0 0 0 0 0 0 0 0 0 0 0 0 0 0 0 0 0 0.15 0"/><feBlend in2="BackgroundImageFix" result="effect1_dropShadow_10148_636"/><feBlend in="SourceGraphic" in2="effect1_dropShadow_10148_636" result="shape"/></filter></defs></svg>
