<svg xmlns="http://www.w3.org/2000/svg" width="105" height="105" fill="none" viewBox="0 0 105 105"><g filter="url(#a)"><circle cx="51.063" cy="50.063" r="43.008" fill="#fff" stroke="#fff" stroke-width="5.89"/><path fill="#FF8AC6" stroke="#000" stroke-width="1.6" d="M91.126 50.031c0 22.109-17.933 40.031-40.063 40.031C28.933 90.062 11 72.14 11 50.031 11 27.922 28.933 10 51.063 10c22.13 0 40.063 17.922 40.063 40.031Z"/><path fill="#fff" stroke="#000" stroke-linejoin="round" stroke-width="1.6" d="M51.825 30.488c15.503 0 25.455 11.526 28.454 19.56-2.734 8.81-12.814 18.794-28.454 18.794s-24.995-10.463-28.41-18.8c3.881-8.481 12.997-19.554 28.41-19.554Z"/><path fill="#FF8AC6" stroke="#000" stroke-linejoin="round" stroke-width="1.6" d="M49.4 62.888c6.21 0 11.244-5.034 11.244-11.244S55.61 40.401 49.4 40.401s-11.244 5.034-11.244 11.243c0 6.21 5.034 11.244 11.244 11.244Z"/><path stroke="#000" stroke-width="1.6" d="M80.309 22.725 23.755 79.278"/></g><defs><filter id="a" width="103.906" height="103.906" x=".11" y=".11" color-interpolation-filters="sRGB" filterUnits="userSpaceOnUse"><feFlood flood-opacity="0" result="BackgroundImageFix"/><feColorMatrix in="SourceAlpha" result="hardAlpha" values="0 0 0 0 0 0 0 0 0 0 0 0 0 0 0 0 0 0 127 0"/><feOffset dx="1" dy="2"/><feGaussianBlur stdDeviation="3"/><feComposite in2="hardAlpha" operator="out"/><feColorMatrix values="0 0 0 0 0 0 0 0 0 0 0 0 0 0 0 0 0 0 0.15 0"/><feBlend in2="BackgroundImageFix" result="effect1_dropShadow_10145_26137"/><feBlend in="SourceGraphic" in2="effect1_dropShadow_10145_26137" result="shape"/></filter></defs></svg>
