<svg id="Layer_1" xmlns="http://www.w3.org/2000/svg" viewBox="0 0 714.5 543.9"><style>.st0,.st1,.st2,.st3{fill:#b2b4db;stroke:#010101;stroke-width:5;stroke-miterlimit:10}.st1,.st2,.st3{fill:#fff}.st2,.st3{fill:#89d0ef}.st3{fill:none}</style><path class="st0" d="M399.1 245.5c16.2-7.3 45 3.1 83.3 56 12 .8 21-10.8 17.2-22.2-4.8-14.6-12.5-28.1-22.9-39.5-32.4-35.6-62.9-44.1-76.7-37.8"/><circle transform="rotate(-71.555 594.342 352.227)" class="st1" cx="594.3" cy="352.2" r="16.2"/><path class="st2" d="M609.7 357.3c2.8-8.5-1.8-17.6-10.2-20.5s-17.6 1.8-20.5 10.2"/><path class="st0" d="M562.2 467.4h60.3v-77.3c0-10.6-8.6-19.2-19.2-19.2h-21.8c-10.6 0-19.2 8.6-19.2 19.2v77.3z"/><path class="st1" d="M607.4 467.4v45.1m-30.1-45.1v45.1m1.7-165.4l45.6 15.2"/><circle transform="rotate(-73.602 510.698 72.965)" class="st2" cx="510.7" cy="73" r="21.9"/><path class="st0" d="M402.5 489.2h-32.8l-25.3-63.5c4.5.7 9.1 1 13.8 1 50.4 0 91.3-40.9 91.3-91.3s-40.9-91.3-91.3-91.3-91.3 40.9-91.3 91.3c0 15 3.6 29.1 10 41.6-12.1 4.5-19.1 18.4-13.9 31.4l41.4 104h121.3c0-12.8-10.4-23.2-23.2-23.2z"/><path class="st1" d="M570.6 99.8l-73.7-41c1.3-10.4-5.1-20.6-15.5-23.7-7.1-2.1-14.5-.4-19.9 4l-11.3-6.3c-24.3-13.5-54.7-8-72.6 13.2l-22.4 26.3-56.8 66.7c-57.2 68.1-126.8 141.2-253 75.3-15-7.8-30.9 8.7-22.7 23.4 40 71.4 113.2 187.8 244.3 187.8 123.2 0 147.7-78.3 147.7-162.9 0-48 24.7-72.2 53.3-63.8l8 2.3 33.2 9.8c22.7 6.7 46.5-6.3 53.2-29l20.7 6.1 10.5-35.8c6.2-20.7-3.5-42.9-23-52.4z"/><path class="st3" d="M542.7 176.2l-11.3 6.2c-3.4 1.9-7.7.6-9.5-2.8l-6.2-11.3-11.3 6.2c-3.4 1.9-7.7.6-9.5-2.8l-6.2-11.3-11.3 6.2c-3.4 1.9-7.7.6-9.5-2.8l-6.2-11.3"/><path class="st0" d="M593.4 126.5c-5.2 4.4-12.4 6.3-19.4 4.2-11-3.2-17.3-14.8-14.1-25.8 1-3.3 2.7-6.1 4.8-8.4l5.9 3.3c11.3 5.5 19.3 15.4 22.8 26.7z"/><path class="st3" d="M390.3 102.6c.2-2.2.6-4.4 1.3-6.6l2.4-8m20.8 50.6c-10.7-3.2-18.8-11.1-22.4-20.9"/><path class="st2" d="M346.3 82.6c12 11.5 12.9 30.5 1.8 43-10.8 12.2-29 13.8-41.8 4.1l40-47.1z"/><path class="st3" d="M474.8 78.7c4-4.5 3.6-11.3-.9-15.3s-11.3-3.6-15.3.9"/><path class="st1" d="M332.1 489.2h-32.8L274 425.7c4.5.7 9.1 1 13.8 1 50.4 0 91.3-40.9 91.3-91.3s-40.9-91.3-91.3-91.3-91.3 40.9-91.3 91.3c0 15 3.6 29.1 10 41.6-12.1 4.5-19.1 18.4-13.9 31.4l41.4 104h121.3c.1-12.8-10.3-23.2-23.2-23.2z"/><path class="st3" d="M196.5 335.4c0-50.4 40.9-91.3 91.3-91.3s91.3 40.9 91.3 91.3-40.9 91.3-91.3 91.3c-15.8 0-30.6-4-43.5-11"/><path class="st1" d="M52.5 512.5h630.2"/><path class="st2" d="M496.9 256.9l-44.6 25.9v51.1l44.9 25.9 44.6-25.9v-51.1z"/><path class="st3" d="M541.8 282.8l-44.6 25.9-44.9-25.9"/><path class="st0" d="M497.2 308.7v51.1"/><path class="st1" d="M409 223.5c-5.3 17 8.6 44.3 65.7 75.9 2.3 11.8-8.2 22.2-20 19.8-15.1-3-29.4-9-42-17.9-39.3-27.9-51.4-57-46.9-71.6"/></svg>
