<svg width="819" height="534" viewBox="0 0 819 534" fill="none" xmlns="http://www.w3.org/2000/svg">
<g clip-path="url(#clip0_1467_7966)">
<rect width="819" height="532.723" transform="translate(0 0.761414)" fill="white"/>
<g clip-path="url(#clip1_1467_7966)">
<rect x="-178.305" y="-14.1363" width="1145.66" height="682.62" fill="#9059FF"/>
<path d="M15.0595 -14.1122L-719.774 695.963" stroke="#592ACB" stroke-width="1.03822" stroke-miterlimit="10"/>
<path d="M64.2388 -14.1122L-574.145 695.963" stroke="#592ACB" stroke-width="1.03822" stroke-miterlimit="10"/>
<path d="M113.403 -14.1122L-428.516 695.963" stroke="#592ACB" stroke-width="1.03822" stroke-miterlimit="10"/>
<path d="M162.568 -14.1122L-282.887 695.963" stroke="#592ACB" stroke-width="1.03822" stroke-miterlimit="10"/>
<path d="M211.734 -14.1122L-137.271 695.963" stroke="#592ACB" stroke-width="1.03822" stroke-miterlimit="10"/>
<path d="M260.899 -14.1122L8.35852 695.963" stroke="#592ACB" stroke-width="1.03822" stroke-miterlimit="10"/>
<path d="M310.065 -14.1122L153.989 695.963" stroke="#592ACB" stroke-width="1.03822" stroke-miterlimit="10"/>
<path d="M359.228 -14.1122L299.616 695.963" stroke="#592ACB" stroke-width="1.03822" stroke-miterlimit="10"/>
<path d="M408.394 -14.1122L445.246 695.963" stroke="#592ACB" stroke-width="1.03822" stroke-miterlimit="10"/>
<path d="M457.559 -14.1122L590.861 695.963" stroke="#592ACB" stroke-width="1.03822" stroke-miterlimit="10"/>
<path d="M506.723 -14.1122L736.489 695.963" stroke="#592ACB" stroke-width="1.03822" stroke-miterlimit="10"/>
<path d="M555.888 -14.1122L882.119 695.963" stroke="#592ACB" stroke-width="1.03822" stroke-miterlimit="10"/>
<path d="M605.053 -14.1122L1027.75 695.963" stroke="#592ACB" stroke-width="1.03822" stroke-miterlimit="10"/>
<path d="M654.219 -14.1122L1173.38 695.963" stroke="#592ACB" stroke-width="1.03822" stroke-miterlimit="10"/>
<path d="M703.397 -14.1122L1318.99 695.963" stroke="#592ACB" stroke-width="1.03822" stroke-miterlimit="10"/>
<path d="M752.563 -14.1122L1464.62 695.963" stroke="#592ACB" stroke-width="1.03822" stroke-miterlimit="10"/>
<path d="M801.728 -14.1122L1610.25 695.963" stroke="#592ACB" stroke-width="1.03822" stroke-miterlimit="10"/>
<path d="M2053.83 51.9118H-1229.56" stroke="#592ACB" stroke-width="1.75777" stroke-miterlimit="10"/>
<path d="M2053.83 116.14H-1229.56" stroke="#592ACB" stroke-width="1.75777" stroke-miterlimit="10"/>
<path d="M2053.83 180.361H-1229.56" stroke="#592ACB" stroke-width="1.75777" stroke-miterlimit="10"/>
<path d="M2053.83 244.59H-1229.56" stroke="#592ACB" stroke-width="1.75777" stroke-miterlimit="10"/>
<path d="M2053.83 308.812H-1229.56" stroke="#592ACB" stroke-width="1.75777" stroke-miterlimit="10"/>
<path d="M2053.83 373.039H-1229.56" stroke="#592ACB" stroke-width="1.75777" stroke-miterlimit="10"/>
<path d="M2053.83 437.269H-1229.56" stroke="#592ACB" stroke-width="1.75777" stroke-miterlimit="10"/>
<path d="M2053.83 501.489H-1229.56" stroke="#592ACB" stroke-width="1.75777" stroke-miterlimit="10"/>
<path d="M529.351 416.42L567.382 465.444L605.413 416.42L702.517 416.42L702.517 156.105L152.73 156.105L152.73 416.42L529.351 416.42Z" fill="black" stroke="black" stroke-width="4.67825" stroke-linecap="round" stroke-linejoin="round"/>
<path d="M512.884 394.944L550.915 443.968L588.946 394.944L686.05 394.944L686.05 134.628L132.846 134.628L132.846 394.944L512.884 394.944Z" fill="#FFEA80" stroke="black" stroke-width="4.67825" stroke-linecap="round" stroke-linejoin="round"/>
<path d="M204.098 309.873H219.384V243.89H241.488V229.594H181.774V243.89H204.098V309.873ZM265.669 311.082C278.756 311.082 287.113 305.694 293.052 297.336L280.625 290.078C277.656 294.916 272.927 297.996 265.889 297.996C257.091 297.996 250.823 293.157 248.844 285.459H296.021V279.741C296.021 262.145 283.154 249.279 265.339 249.279C247.634 249.279 234.217 263.025 234.217 280.29C234.217 297.556 246.534 311.082 265.669 311.082ZM265.339 262.145C273.257 262.145 278.976 266.214 280.955 273.582H249.283C251.703 266.654 257.641 262.145 265.339 262.145ZM333.163 311.082C347.349 311.082 357.246 303.164 362.305 292.167L348.119 286.339C345.7 292.387 340.421 296.676 333.383 296.676C324.255 296.676 316.997 289.198 316.997 280.18C316.997 270.943 324.145 263.465 333.273 263.465C340.091 263.465 345.59 267.314 348.009 273.692L361.975 268.084C357.356 256.867 346.799 249.279 333.053 249.279C315.458 249.279 301.931 262.695 301.931 280.18C301.931 297.446 315.348 311.082 333.163 311.082ZM369.044 309.873H384.11V277.101C384.11 267.864 389.609 262.585 396.757 262.585C404.785 262.585 408.854 267.864 408.854 276.331V309.873H424.47V274.022C424.47 258.516 415.452 249.279 401.376 249.279C394.118 249.279 388.069 252.468 384.11 257.746V223.215H369.044V309.873ZM455.3 309.873H470.586V243.89H492.69V229.594H432.976V243.89H455.3V309.873ZM505.337 311.082C514.684 311.082 522.822 306.903 527.111 300.745V309.873H541.737V273.362C541.737 258.406 531.73 249.279 514.244 249.279C500.938 249.279 492.25 254.887 486.202 262.805L500.168 269.733C502.917 264.784 507.426 261.925 514.135 261.925C522.712 261.925 527.001 266.324 527.001 272.702V273.472H511.385C494.89 273.472 484.662 281.06 484.662 293.377C484.662 303.824 492.36 311.082 505.337 311.082ZM509.736 298.546C503.467 298.546 500.498 296.346 500.498 292.057C500.498 287.438 504.127 284.579 513.145 284.579H527.111V287.768C524.142 294.147 516.994 298.546 509.736 298.546ZM551.244 309.873H566.42V223.215H551.244V309.873ZM617.341 309.873H634.717L611.293 275.782L633.617 250.488H615.472L591.388 278.091V223.215H576.322V309.873H591.388V295.576L600.516 285.349L617.341 309.873Z" fill="#1C1B22"/>
<rect x="88.4036" y="108.897" width="149.704" height="93.6781" fill="white" stroke="black" stroke-width="4.67825"/>
<path d="M134.297 173.229L139.162 145.253H148.846L149.922 139.078H124.005L122.929 145.253H132.566L127.7 173.229H134.297ZM148.09 173.229H154.546L156.979 159.662C157.634 155.452 159.832 153.112 163.247 153.112C166.85 153.112 168.019 155.498 167.318 159.335L164.838 173.229H171.434L173.961 159.054C175.224 152.036 172.043 147.452 165.914 147.452C162.733 147.452 160.207 148.715 158.335 151.148L160.955 136.364H154.593L148.09 173.229ZM190.313 173.744C195.365 173.744 198.968 171.825 201.634 168.738L196.675 165.323C195.085 167.054 193.073 168.223 190.547 168.223C186.617 168.223 184.044 166.212 183.623 162.843H203.459L203.74 161.253C205.003 153.814 200.278 147.452 192.137 147.452C184.98 147.452 179.226 152.27 177.962 159.101C176.606 167.007 181.097 173.744 190.313 173.744ZM191.763 152.832C195.506 152.832 197.611 154.75 197.892 157.791H184.325C185.541 154.843 188.067 152.879 191.763 152.832Z" fill="black"/>
</g>
</g>
<defs>
<clipPath id="clip0_1467_7966">
<rect width="819" height="532.723" fill="white" transform="translate(0 0.761414)"/>
</clipPath>
<clipPath id="clip1_1467_7966">
<rect width="1146.6" height="598.143" fill="white" transform="translate(-179.07 -14.0869)"/>
</clipPath>
</defs>
</svg>
