<?xml version="1.0" encoding="utf-8"?>
<svg width="550px" height="709px" viewBox="0 0 1100 1300" xmlns="http://www.w3.org/2000/svg">
  <defs>
    <filter id="filter0_d" x="0.686523" y="0.486328" width="367.377" height="656.513" filterUnits="userSpaceOnUse" color-interpolation-filters="sRGB">
      <feFlood flood-opacity="0" result="BackgroundImageFix"/>
      <feColorMatrix in="SourceAlpha" type="matrix" values="0 0 0 0 0 0 0 0 0 0 0 0 0 0 0 0 0 0 127 0" result="hardAlpha"/>
      <feOffset dy="4"/>
      <feGaussianBlur stdDeviation="20"/>
      <feComposite in2="hardAlpha" operator="out"/>
      <feColorMatrix type="matrix" values="0 0 0 0 0 0 0 0 0 0 0 0 0 0 0 0 0 0 0.1 0"/>
      <feBlend mode="normal" in2="BackgroundImageFix" result="effect1_dropShadow"/>
      <feBlend mode="normal" in="SourceGraphic" in2="effect1_dropShadow" result="shape"/>
    </filter>
  </defs>
  <g id="hex">
    <linearGradient id="linearGradient1" x1="104.704768" y1="760.768759" x2="838.098171" y2="247.07108" gradientUnits="userSpaceOnUse">
      <stop offset="0" stop-color="#570d70" stop-opacity="1"/>
      <stop offset="0.9045" stop-color="#b10ec1" stop-opacity="1"/>
    </linearGradient>
    <path id="Path" fill="url(#linearGradient1)" stroke="none" d="M 891.774536 219.458252 L 524.922668 10.767822 C 512.035217 3.701416 497.603943 0 482.94104 0 C 468.276306 0 453.844971 3.701416 440.95932 10.767822 L 72.814522 219.458252 C 59.524368 227.02124 48.457722 238.008301 40.742699 251.296387 C 33.027493 264.586426 28.939598 279.703308 28.895489 295.106873 L 28.895489 711.181763 C 28.776209 726.620239 32.795734 741.801453 40.527664 755.120789 C 48.259594 768.438354 59.415928 779.396057 72.814522 786.832214 L 439.667267 994.217285 C 452.529022 1002.031982 467.283813 1006.093872 482.294067 1005.955994 C 497.282257 1005.919312 511.99115 1001.868469 524.922668 994.217285 L 891.774536 786.832214 C 905.064514 779.269226 916.132446 768.282166 923.84613 754.992188 C 931.561707 741.704041 935.649231 726.587158 935.69342 711.181763 L 935.69342 295.106873 C 936.073853 279.618774 932.16272 264.332764 924.403076 250.967529 C 916.645203 237.602051 905.343872 226.688599 891.774536 219.458252 Z"/>
  </g>
  <g filter="url(#filter0_d)" style="" transform="matrix(2.03565, 0, 0, 2.03565, 180.176514, -4.781104)">
    <path d="M285.289 36.4863H87.0673C63.3249 36.4863 43.64 54.8071 43.64 78.5319V114.116C43.64 113.977 42.7555 113.887 42.403 113.887C41.7844 113.887 40.6927 114.159 40.6927 114.49V134.895C40.6927 135.229 41.7844 135.513 42.403 135.513C42.7617 135.513 43.64 135.423 43.64 135.287V157.658C43.64 157.04 42.7834 156.567 42.1648 156.567C41.5463 156.567 40.6865 157.055 40.6865 157.658V194.776C40.6865 195.394 41.5432 195.867 42.1648 195.867C42.7864 195.867 43.64 195.379 43.64 194.776V211.869C43.64 211.251 42.7834 210.747 42.1648 210.747C41.5463 210.747 40.6865 211.251 40.6865 211.869V250.05C40.6865 250.669 41.5432 251.173 42.1648 251.173C42.7864 251.173 43.64 250.669 43.64 250.05V554.47V558.396V569.489C43.64 593.223 63.3249 613 87.0673 613H285.289C309.031 613 328.064 593.214 328.064 569.489V78.5443C328.064 54.8071 309.028 36.4863 285.289 36.4863Z" fill="white" style=""/>
  </g>
  <g id="phone-premium">
    <path id="path2" fill="#ffffff" stroke="none" d="M 761.506531 1244.110474 L 356.785767 1244.110474 C 313.375458 1244.110474 277.854675 1208.608643 277.854675 1165.213257 L 277.854675 160.939331 C 277.854675 117.544067 313.369141 82.041748 356.779663 82.041748 L 761.537109 82.041748 C 804.946594 82.041748 840.462708 117.544067 840.462708 160.939331 L 840.462708 1165.213257 C 840.436218 1208.608643 804.916077 1244.110474 761.506531 1244.110474 Z"/>
    <path id="path3" fill="#ffffff" stroke="none" d="M 416.649109 108.933472 L 357.711426 108.933472 C 350.498169 108.933472 343.355835 110.353882 336.691895 113.113403 C 330.027771 115.873169 323.972839 119.917847 318.872711 125.016724 C 313.772583 130.115601 309.727081 136.168945 306.967438 142.831055 C 304.207611 149.49292 302.787659 156.632935 302.788483 163.843506 L 302.788483 1163.683105 C 302.787659 1170.894043 304.207825 1178.035522 306.968048 1184.698242 C 309.728088 1191.358887 313.774231 1197.412354 318.874939 1202.512329 C 323.975708 1207.612183 330.031433 1211.656738 336.696198 1214.415527 C 343.360931 1217.174316 350.504089 1218.594482 357.717743 1218.592407 L 760.54071 1218.592407 C 775.109009 1218.592407 789.080383 1212.807861 799.382141 1202.510376 C 809.683899 1192.212646 815.470459 1178.245361 815.470459 1163.683105 L 815.470459 163.843506 C 815.470459 149.280518 809.683899 135.313965 799.382141 125.016235 C 789.080383 114.71875 775.109009 108.933472 760.54071 108.933472 L 416.649109 108.933472 Z"/>
    <path id="path4" fill="#8c9ca3" stroke="none" d="M 603.357849 142.942871 L 521.911804 142.942871 C 520.819702 142.939331 519.774414 142.504395 519.002197 141.732544 C 518.22998 140.960571 517.793945 139.914673 517.791931 138.82312 C 517.791931 137.730469 518.227966 136.682739 519.000183 135.90979 C 519.7724 135.136475 520.819702 134.700439 521.911804 134.697266 L 603.357849 134.697266 C 604.451965 134.700439 605.499268 135.13623 606.273499 135.909302 C 607.045776 136.682373 607.48175 137.729736 607.48584 138.82312 C 607.479736 139.915283 607.043701 140.961182 606.271484 141.732666 C 605.497253 142.504639 604.449951 142.939331 603.357849 142.942871 Z"/>
    <path id="path5" fill="#8c9ca3" stroke="none" d="M 627.359863 144.567993 C 626.051758 144.564697 624.798706 144.043945 623.873657 143.119629 C 622.948669 142.195313 622.429077 140.942749 622.424988 139.635742 C 622.429077 138.328003 622.948669 137.074707 623.873657 136.149536 C 624.798706 135.224243 626.051758 134.702026 627.359863 134.697266 C 628.667969 134.702026 629.921082 135.224121 630.848145 136.14917 C 631.773132 137.074097 632.2948 138.327393 632.298889 139.635742 C 632.2948 140.943359 631.773132 142.195923 630.84613 143.119995 C 629.921082 144.044067 628.667969 144.564697 627.359863 144.567993 Z"/>
  </g>
</svg>
