<svg
role="img"
aria-label="Mozilla VPN"
xmlns="http://www.w3.org/2000/svg"
viewBox="0 0 23 25"
width="20"
height="20"
>
  <title>Mozlla VPN</title>
  <path fill="currentColor" d="M10.7881 1.04257C9.66489 1.25499 8.68583 1.8973 8.0625 2.83073C7.67619 3.40924 7.46233 4.00813 7.38472 4.72878C7.31142 5.40959 7.44549 6.20797 7.73936 6.841L7.85562 7.09149L6.9697 7.97738L6.08381 8.86331L5.82458 8.74581C4.25533 8.03427 2.42251 8.36451 1.20972 9.57729C0.669472 10.1175 0.297716 10.7595 0.101127 11.4914C0.0114476 11.8254 0 11.9407 0 12.5084C0 13.0801 0.0110984 13.1903 0.103843 13.5367C0.48794 14.9721 1.56056 16.0729 2.97428 16.4826C3.47014 16.6263 4.04524 16.6783 4.52351 16.6227C6.07546 16.4423 7.35445 15.4895 7.93552 14.0809L8.07992 13.7308L11.4986 13.7209C14.7287 13.7115 14.9185 13.7147 14.9408 13.7791C14.9539 13.8165 15.0259 13.9928 15.101 14.1708L15.2376 14.4944L14.3631 15.3689L13.4886 16.2434L13.1042 16.0858C11.7166 15.5168 10.1864 15.7157 8.98471 16.6211C7.86913 17.4617 7.23652 18.9115 7.38472 20.288C7.57506 22.0558 8.76507 23.4459 10.4831 23.9073C10.817 23.9969 10.9323 24.0084 11.5 24.0084C12.0717 24.0084 12.1819 23.9973 12.5283 23.9045C14.2328 23.4484 15.4254 22.0512 15.6153 20.288C15.6886 19.6072 15.5545 18.8088 15.2606 18.1758L15.1444 17.9253L16.0307 17.039L16.9169 16.1528L17.1674 16.269C17.8004 16.5629 18.5988 16.697 19.2796 16.6237C21.0474 16.4333 22.4375 15.2433 22.8989 13.5253C22.9886 13.1914 23 13.0761 23 12.5084C23 11.939 22.9886 11.8251 22.8971 11.48C22.5216 10.0647 21.4234 8.93925 20.0212 8.53288C18.0017 7.9477 15.8193 9.02614 15.0389 10.995L14.9235 11.286L11.5032 11.2959C8.27146 11.3053 8.08155 11.3021 8.05916 11.2377C8.04612 11.2003 7.97406 11.024 7.89897 10.846L7.76245 10.5223L8.63693 9.64784L9.51142 8.77336L9.89578 8.93099C11.9353 9.76732 14.2605 8.89796 15.205 6.94601C15.9894 5.32464 15.6837 3.47067 14.4242 2.21116C13.8881 1.67506 13.2362 1.29966 12.5169 1.11281C12.0355 0.987779 11.2472 0.955726 10.7881 1.04257ZM11.9449 3.40978C12.2732 3.49531 12.5171 3.64103 12.7625 3.89827C13.6754 4.85529 13.2972 6.37937 12.0412 6.80522C11.8315 6.87632 11.7305 6.88722 11.4164 6.87251C11.0857 6.85703 11.0069 6.8384 10.7443 6.71364C9.64785 6.19299 9.39403 4.78257 10.2375 3.89827C10.6872 3.42682 11.3177 3.24641 11.9449 3.40978ZM4.39786 10.7647C4.96718 10.8571 5.45628 11.2297 5.71259 11.7665C5.84969 12.0535 5.85381 12.0752 5.85381 12.5084C5.85381 12.9437 5.85024 12.9621 5.70887 13.2582C5.16924 14.3884 3.69347 14.6288 2.82969 13.7273C2.30338 13.178 2.19394 12.3256 2.56275 11.6479C2.78406 11.2413 3.34701 10.8408 3.80546 10.7637C4.07054 10.7191 4.11726 10.7192 4.39786 10.7647ZM19.1597 10.7612C19.6556 10.8424 20.2072 11.2253 20.4372 11.6479C20.9176 12.5305 20.5698 13.6528 19.6804 14.0907C18.7845 14.5317 17.7225 14.1617 17.2911 13.2582C17.1497 12.9619 17.1462 12.944 17.1462 12.5063C17.1462 12.0646 17.1484 12.0535 17.2951 11.7568C17.597 11.1459 18.1728 10.7659 18.8536 10.7281C18.8963 10.7257 19.034 10.7406 19.1597 10.7612ZM12.2581 18.3067C13.3819 18.8622 13.6158 20.3194 12.7189 21.1787C11.8633 21.9985 10.4543 21.7502 9.92993 20.6872C9.43307 19.6798 9.92291 18.5511 11.0149 18.1873C11.1165 18.1534 11.3073 18.14 11.5669 18.1483C11.9343 18.1602 11.9853 18.1719 12.2581 18.3067Z" />
</svg>
