<?xml version="1.0" encoding="utf-8"?>
<!-- Generator: Adobe Illustrator 15.0.2, SVG Export Plug-In  -->
<!DOCTYPE svg PUBLIC "-//W3C//DTD SVG 1.1//EN" "http://www.w3.org/Graphics/SVG/1.1/DTD/svg11.dtd" [
	<!ENTITY ns_flows "http://ns.adobe.com/Flows/1.0/">
]>
<svg version="1.1"
	 xmlns="http://www.w3.org/2000/svg" xmlns:xlink="http://www.w3.org/1999/xlink" xmlns:a="http://ns.adobe.com/AdobeSVGViewerExtensions/3.0/"
	 x="0px" y="0px" width="120px" height="120px" viewBox="-1.15 -4.46 120 120"
	 overflow="visible" enable-background="new -1.15 -4.46 120 120" xml:space="preserve">
<defs>
</defs>
<path fill="#FFFFFF" d="M58.66,0C26.31,0,0,23.1,0,51.51c0,14.21,6.51,27.04,17.05,36.3c-1.83,6.42-5.41,15.21-12.65,23.74
	c1.19,2.2,21.36-5.5,35.56-11.18c5.87,1.74,12.1,2.66,18.61,2.66c32.36,0,58.66-23.1,58.66-51.51C117.32,23.1,91.02,0,58.66,0z
	 M76.17,30.89c4.31,0,7.79,3.48,7.79,7.79c0,4.31-3.48,7.79-7.79,7.79c-4.31,0-7.79-3.48-7.79-7.79
	C68.47,34.37,71.95,30.89,76.17,30.89z M40.79,30.89c4.31,0,7.79,3.48,7.79,7.79c0,4.31-3.48,7.79-7.79,7.79
	c-4.31,0-7.79-3.48-7.79-7.79C33.09,34.37,36.48,30.89,40.79,30.89z M58.75,89.27h-0.27H58.2c-15.67,0-33.18-11.08-37.21-28.23
	c10.54,4.86,25.39,6.6,37.4,6.6c12.01,0,26.85-1.42,37.4-6.37C91.93,78.41,74.43,89.27,58.75,89.27z"/>
</svg>
