<svg width="201" height="138" viewBox="0 0 201 138" xmlns="http://www.w3.org/2000/svg"><defs><linearGradient x1="100%" y1="0%" x2="0%" y2="100%" id="a"><stop stop-color="#05C8E5" offset="0%"/><stop stop-color="#008BFF" offset="100%"/></linearGradient></defs><g transform="translate(-266 -1104)" fill="url(#a)" fill-rule="evenodd"><path d="M416.95 1129.027c.525-.815 1.338-1.377 2.287-1.58.256-.055.512-.082.764-.082 1.676 0 3.187 1.17 3.553 2.872.203.95.025 1.92-.502 2.736-.525.815-1.338 1.376-2.287 1.58-1.96.42-3.895-.83-4.316-2.79-.203-.95-.025-1.92.502-2.736M420 1138c.484 0 .976-.05 1.47-.157 1.827-.392 3.392-1.473 4.406-3.043 1.015-1.57 1.358-3.442.966-5.27-.81-3.773-4.54-6.183-8.31-5.373-1.83.392-3.394 1.473-4.41 3.043-1.013 1.57-1.356 3.44-.964 5.27.705 3.28 3.614 5.53 6.84 5.53M375.54 1143h-56.08c-.806 0-1.46.672-1.46 1.5s.654 1.5 1.46 1.5h56.08c.806 0 1.46-.672 1.46-1.5s-.654-1.5-1.46-1.5M375.54 1155h-56.08c-.806 0-1.46.672-1.46 1.5 0 .83.654 1.5 1.46 1.5h56.08c.806 0 1.46-.67 1.46-1.5 0-.828-.654-1.5-1.46-1.5M375.54 1165h-56.08c-.806 0-1.46.67-1.46 1.5s.654 1.5 1.46 1.5h56.08c.806 0 1.46-.67 1.46-1.5s-.654-1.5-1.46-1.5M355.563 1176h-20.125c-.795 0-1.438.67-1.438 1.5s.643 1.5 1.438 1.5h20.125c.794 0 1.437-.67 1.437-1.5s-.643-1.5-1.438-1.5M465.534 1171h-14.068c-.81 0-1.466.67-1.466 1.5s.656 1.5 1.466 1.5h14.068c.81 0 1.466-.67 1.466-1.5s-.656-1.5-1.466-1.5"/><path d="M346.152 1193.723l-44.352-30.46V1129.834h52.03c.79 0 1.43-.643 1.43-1.436 0-.794-.64-1.437-1.43-1.437h-36.318l28.52-19.75 28.756 19.75h-9.398c-.79 0-1.43.643-1.43 1.436 0 .792.64 1.435 1.43 1.435h24.29v32.258c0 .058.01.112.016.168l-43.544 31.463zm-17.096-7.575l-46.016 30.266v-62.518l46.64 32.03c-.217.026-.43.095-.624.222zm-30.113-46.286v7.992h-10.406l10.406-7.992zm-14.736 11.317l.485-.373c.12-.022.24-.036.366-.036h13.885v10.53l-14.736-10.12zm120.868-3.337h-12.538v-8.365l12.538 8.365zm-12.538 2.94h13.045l-13.045 9.425v-9.425zm45.094 36.87c.8 0 1.446-.65 1.446-1.45 0-.803-.647-1.454-1.445-1.454H412.8v-9.877h30.613c.8 0 1.445-.65 1.445-1.452 0-.8-.646-1.45-1.444-1.45H412.8v-19.14c0-1.376-.56-2.623-1.463-3.526-.003-.467-.23-.924-.646-1.202l-18.153-12.11v-7.593c0-.794-.64-1.437-1.43-1.437h-11.77c-.093-.306-.28-.585-.562-.78l-31.93-21.93c-.494-.34-1.144-.337-1.636.003l-32.51 22.51c-.084.06-.16.125-.227.197h-12.1c-.79 0-1.43.643-1.43 1.436v7.828c-.048.03-.097.054-.143.088l-15.418 11.84c-1.89.697-3.244 2.526-3.244 4.674v76.91c0 2.744 2.207 4.976 4.92 4.976h19.97v-2.917h-19.97c-1.112 0-2.018-.925-2.018-2.06v-10.135c.27 0 .543-.077.785-.237l46.813-30.79c.533-.35.753-.993.6-1.58l14.12 9.698c.246.17.53.253.815.253.297 0 .592-.092.844-.274l12.443-8.99c.11.236.28.448.515.602l15.893 10.457c.244.16.52.237.79.237.47 0 .933-.23 1.21-.657.438-.67.25-1.57-.417-2.01l-15.667-10.31 47.654-34.43c.272.346.436.78.436 1.255v19.14h-5.762c-.797 0-1.444.65-1.444 1.45 0 .803.647 1.453 1.445 1.453h5.763v9.876h-17.898c-.798 0-1.445.65-1.445 1.452 0 .802.647 1.452 1.445 1.452h17.898v30.204l-22.598-14.863c-.667-.44-1.563-.25-2 .42-.437.672-.25 1.572.418 2.01l23.407 15.395c.24.158.507.234.773.237v8.683c0 1.13-.924 2.047-2.06 2.047H319.3v2.94h88.513c2.75 0 4.985-2.237 4.985-4.987v-19.72h6.628c.8 0 1.445-.65 1.445-1.453 0-.8-.645-1.452-1.444-1.452h-6.628v-6.68h24.833c.8 0 1.446-.65 1.446-1.453 0-.802-.647-1.452-1.445-1.452H412.8v-9.876h24.833zM453.472 1184h-7.944c-.844 0-1.528.67-1.528 1.5s.684 1.5 1.528 1.5h7.944c.844 0 1.528-.67 1.528-1.5s-.684-1.5-1.528-1.5M425.848 1223.294c.05-.01.102-.017.153-.017.14 0 .274.04.392.117.162.104.274.266.314.455.084.388-.165.773-.554.856-.188.04-.382.006-.544-.1-.162-.104-.274-.265-.314-.454-.084-.39.165-.774.554-.858m-.934 2.385c.328.21.7.32 1.082.32.14 0 .283-.015.424-.045 1.078-.232 1.767-1.297 1.535-2.375-.112-.52-.42-.97-.87-1.26-.448-.29-.982-.387-1.505-.274-1.078.23-1.767 1.297-1.535 2.374.112.522.42.97.87 1.26M280.91 1122.84c-.09-.423-.01-.858.225-1.222.236-.365.6-.616 1.024-.707.113-.024.23-.036.343-.036.31 0 .613.09.88.26.364.237.615.6.706 1.025.09.423.01.858-.225 1.222-.236.365-.6.616-1.024.707-.423.09-.858.01-1.222-.225-.365-.236-.616-.6-.707-1.024m2.534 4.058c1.175-.252 2.182-.947 2.834-1.956.652-1.01.872-2.212.62-3.386-.252-1.175-.947-2.18-1.956-2.834-1.01-.652-2.21-.873-3.387-.62-1.174.252-2.18.947-2.833 1.956-.652 1.01-.872 2.212-.62 3.386.252 1.175.947 2.18 1.956 2.834.737.476 1.576.722 2.433.722.318 0 .637-.034.954-.102M426.963 1237.463h-1.426v-1.426c0-.573-.464-1.037-1.037-1.037s-1.037.464-1.037 1.037v1.426h-1.426c-.573 0-1.037.464-1.037 1.037s.464 1.037 1.037 1.037h1.426v1.426c0 .573.464 1.037 1.037 1.037s1.037-.464 1.037-1.037v-1.426h1.426c.573 0 1.037-.464 1.037-1.037s-.464-1.037-1.037-1.037M271.963 1134.463h-1.426v-1.426c0-.573-.464-1.037-1.037-1.037s-1.037.464-1.037 1.037v1.426h-1.426c-.573 0-1.037.464-1.037 1.037s.464 1.037 1.037 1.037h1.426v1.426c0 .573.464 1.037 1.037 1.037s1.037-.464 1.037-1.037v-1.426h1.426c.573 0 1.037-.464 1.037-1.037s-.464-1.037-1.037-1.037M426 1144c0 .387.314.7.7.7h1.6v1.6c0 .387.313.7.7.7.386 0 .7-.313.7-.7v-1.6h1.6c.386 0 .7-.313.7-.7 0-.387-.314-.7-.7-.7h-1.6v-1.6c0-.387-.314-.7-.7-.7-.387 0-.7.313-.7.7v1.6h-1.6c-.386 0-.7.313-.7.7"/></g></svg>
