<svg xmlns="http://www.w3.org/2000/svg" width="600" height="450" fill="none" viewBox="0 0 600 450"><rect width="600" height="450" fill="#ECDFFF" rx="15"/><g filter="url(#a)"><g clip-path="url(#b)"><rect width="507.821" height="358.053" x="46" y="46" fill="#fff" rx="5.951"/><path fill="#C9C3D2" d="M40.05 42.033h525.673v28.763H40.05z"/><circle cx="57.364" cy="57.365" r="3.099" fill="#592ACB"/><circle cx="67.696" cy="57.365" r="3.099" fill="#592ACB"/><circle cx="78.028" cy="57.365" r="3.099" fill="#592ACB"/><path fill="#0C0C0D" d="M91.43 265v-22.569h11.433c4.041 0 6.834 2.365 6.834 5.65 0 2.3-1.15 3.975-3.154 5.027 2.628 1.182 4.139 3.285 4.139 5.782 0 3.613-3.088 6.11-7.391 6.11h-11.86Zm4.83-13.469h5.388c1.807 0 3.088-1.052 3.088-2.497 0-1.413-1.281-2.464-3.088-2.464H96.26v4.961Zm0 9.33h6.144c1.938 0 3.318-1.15 3.318-2.76 0-1.61-1.38-2.76-3.318-2.76H96.26v5.52Zm29.081-12.846h4.797V265h-4.797v-2.135c-1.018 1.544-2.923 2.529-5.124 2.529-3.68 0-6.308-2.726-6.308-6.57v-10.809h4.632v9.79c0 2.103 1.314 3.548 3.22 3.548 2.004 0 3.548-1.445 3.548-3.285l.032.099v-10.152Zm15.285 17.379c-2.727 0-5.618-.92-7.654-2.562l2.069-3.318c1.512 1.084 3.417 1.905 5.684 1.905 1.281 0 2.201-.526 2.201-1.281 0-1.051-1.249-1.38-2.99-1.84-3.482-.854-6.176-1.807-6.209-5.158-.033-3.219 2.628-5.519 6.636-5.519 2.431 0 4.83.854 6.702 2.103l-1.938 3.416c-1.544-.952-3.318-1.511-4.764-1.511-1.182 0-2.004.427-2.004 1.019 0 .919.69 1.182 2.99 1.806 2.924.756 6.176 1.742 6.176 5.454 0 3.351-2.727 5.486-6.899 5.486Zm18.429 0c-5.027 0-9.265-4.073-9.265-8.903 0-4.829 4.271-8.87 9.298-8.87 2.759 0 5.026 1.117 6.668 2.891l-3.186 2.727c-.854-.953-2.201-1.577-3.515-1.577-2.497 0-4.6 2.201-4.6 4.796 0 2.661 2.103 4.895 4.633 4.895 1.314 0 2.693-.657 3.58-1.642l3.187 2.694c-1.675 1.839-3.975 2.989-6.8 2.989Zm17.275-17.773c4.435 0 7.457 2.793 7.457 7.228V265h-4.632v-1.708c-1.215 1.379-3.154 2.102-4.993 2.102-3.614 0-6.406-2.168-6.406-5.42 0-3.351 3.121-5.651 7.063-5.651 1.38 0 2.891.296 4.336.854v-.328c0-1.807-1.117-3.384-3.909-3.384-1.577 0-3.055.526-4.402 1.215l-1.61-3.186c2.398-1.216 4.731-1.873 7.096-1.873Zm-1.084 14.455c1.84 0 3.581-.854 3.909-2.431v-1.577a10.746 10.746 0 0 0-3.646-.624c-1.741 0-3.121 1.018-3.121 2.398 0 1.38 1.215 2.234 2.858 2.234Zm22.407-14.455c3.679 0 6.307 2.727 6.307 6.571V265h-4.632v-9.79c0-2.102-1.314-3.548-3.219-3.548-2.004 0-3.548 1.446-3.548 3.285l-.033-.098V265h-4.797v-16.985h4.797v2.136c1.018-1.544 2.924-2.53 5.125-2.53Zm23.038-5.585h4.796V265h-4.796v-2.431c-1.347 1.774-3.319 2.825-5.717 2.825-4.533 0-7.819-3.679-7.819-8.903 0-5.19 3.286-8.87 7.819-8.87 2.398 0 4.37 1.052 5.717 2.826v-8.411Zm-4.337 19.317c2.53 0 4.337-2.004 4.337-4.862 0-2.825-1.807-4.829-4.337-4.829-2.661 0-4.534 2.004-4.534 4.829 0 2.858 1.873 4.862 4.534 4.862Zm21.688 4.041c-5.06 0-9.298-4.073-9.298-8.903 0-4.829 4.238-8.87 9.298-8.87 5.026 0 9.231 4.041 9.231 8.87 0 4.83-4.205 8.903-9.231 8.903Zm0-4.041c2.529 0 4.665-2.234 4.665-4.862s-2.136-4.829-4.665-4.829c-2.563 0-4.698 2.201-4.698 4.829 0 2.628 2.135 4.862 4.698 4.862Zm29.668-.197c1.347 0 2.989-.624 3.909-1.511l3.056 3.121c-1.512 1.577-4.436 2.628-6.932 2.628-5.06 0-9.002-3.712-9.002-8.936 0-5.124 3.778-8.837 8.739-8.837 5.322 0 8.443 4.041 8.443 10.447h-12.254c.559 1.84 2.037 3.088 4.041 3.088Zm-.033-9.297c-1.807 0-3.318 1.051-3.942 2.76h7.589c-.46-1.676-1.709-2.76-3.647-2.76ZM295.167 265h-5.158l-3.679-5.125-3.713 5.125h-5.059l6.242-8.64-5.979-8.345h5.19l3.384 4.731 3.417-4.731h5.059l-5.946 8.246 6.242 8.739Zm13.088-17.379c4.534 0 7.819 3.68 7.819 8.87 0 5.224-3.285 8.903-7.819 8.903-2.365 0-4.336-1.018-5.683-2.792v8.049h-4.797v-22.636h4.797v2.366c1.347-1.741 3.318-2.76 5.683-2.76Zm-1.38 13.732c2.661 0 4.534-2.004 4.534-4.862 0-2.825-1.873-4.829-4.534-4.829-2.332 0-4.04 1.708-4.303 4.172v1.314c.263 2.497 1.971 4.205 4.303 4.205Zm20.932 4.041c-5.059 0-9.297-4.073-9.297-8.903 0-4.829 4.238-8.87 9.297-8.87 5.027 0 9.232 4.041 9.232 8.87 0 4.83-4.205 8.903-9.232 8.903Zm0-4.041c2.53 0 4.665-2.234 4.665-4.862s-2.135-4.829-4.665-4.829c-2.562 0-4.697 2.201-4.697 4.829 0 2.628 2.135 4.862 4.697 4.862Zm18.851 4.041c-2.727 0-5.618-.92-7.655-2.562l2.07-3.318c1.511 1.084 3.416 1.905 5.683 1.905 1.281 0 2.201-.526 2.201-1.281 0-1.051-1.248-1.38-2.989-1.84-3.483-.854-6.177-1.807-6.209-5.158-.033-3.219 2.628-5.519 6.636-5.519 2.431 0 4.829.854 6.702 2.103l-1.939 3.416c-1.544-.952-3.318-1.511-4.763-1.511-1.183 0-2.004.427-2.004 1.019 0 .919.69 1.182 2.989 1.806 2.924.756 6.176 1.742 6.176 5.454 0 3.351-2.726 5.486-6.898 5.486Zm12.515-19.711a2.615 2.615 0 0 1-2.629-2.628c0-1.347 1.15-2.563 2.629-2.563 1.412 0 2.562 1.216 2.562 2.563 0 1.445-1.15 2.628-2.562 2.628ZM356.742 265v-16.985h4.796V265h-4.796Zm24.095-2.595c-1.478 1.609-3.449 2.694-5.815 2.956l-.427 1.052c1.446 0 2.464.919 2.464 2.234 0 1.741-1.511 2.825-3.548 2.825-1.215 0-2.398-.427-3.121-.953l.854-1.905c.592.493 1.315.755 2.004.755.756 0 1.38-.394 1.38-.985 0-.526-.394-.887-1.084-.887-.328 0-.69.098-.985.295l-.723-.689.788-1.807c-4.402-.69-7.851-4.435-7.851-8.805 0-4.829 4.27-8.87 9.297-8.87 2.759 0 5.026 1.117 6.669 2.891l-3.187 2.727c-.854-.953-2.201-1.577-3.515-1.577-2.497 0-4.599 2.201-4.599 4.796 0 2.661 2.102 4.895 4.632 4.895 1.314 0 2.694-.657 3.581-1.642l3.186 2.694Zm13.079-16.229c-1.84 0-3.219-1.676-4.304-1.676-.722 0-1.149.526-1.379 1.741l-2.399-.361c.362-2.858 1.512-4.336 3.647-4.336 1.84 0 3.285 1.675 4.336 1.675.723 0 1.15-.526 1.38-1.708l2.366.328c-.329 2.891-1.479 4.337-3.647 4.337Zm-2.201 19.218c-5.059 0-9.297-4.073-9.297-8.903 0-4.829 4.238-8.87 9.297-8.87 5.026 0 9.231 4.041 9.231 8.87 0 4.83-4.205 8.903-9.231 8.903Zm0-4.041c2.53 0 4.665-2.234 4.665-4.862s-2.135-4.829-4.665-4.829c-2.563 0-4.698 2.201-4.698 4.829 0 2.628 2.135 4.862 4.698 4.862Zm20.493-.197c1.347 0 2.989-.624 3.909-1.511l3.055 3.121c-1.511 1.577-4.435 2.628-6.931 2.628-5.06 0-9.002-3.712-9.002-8.936 0-5.124 3.778-8.837 8.739-8.837 5.322 0 8.443 4.041 8.443 10.447h-12.254c.558 1.84 2.037 3.088 4.041 3.088Zm-.033-9.297c-1.807 0-3.318 1.051-3.942 2.76h7.588c-.459-1.676-1.708-2.76-3.646-2.76Zm17.864 13.535c-2.727 0-5.618-.92-7.655-2.562l2.07-3.318c1.511 1.084 3.417 1.905 5.684 1.905 1.281 0 2.201-.526 2.201-1.281 0-1.051-1.249-1.38-2.99-1.84-3.482-.854-6.176-1.807-6.209-5.158-.033-3.219 2.628-5.519 6.636-5.519 2.431 0 4.829.854 6.702 2.103l-1.938 3.416c-1.544-.952-3.318-1.511-4.764-1.511-1.183 0-2.004.427-2.004 1.019 0 .919.69 1.182 2.99 1.806 2.924.756 6.176 1.742 6.176 5.454 0 3.351-2.727 5.486-6.899 5.486Zm12.844 0a3.05 3.05 0 0 1-3.056-3.055c0-1.544 1.347-2.924 3.056-2.924 1.609 0 2.923 1.38 2.923 2.924 0 1.675-1.314 3.055-2.923 3.055Zm8.541 0a3.05 3.05 0 0 1-3.055-3.055c0-1.544 1.347-2.924 3.055-2.924 1.61 0 2.924 1.38 2.924 2.924 0 1.675-1.314 3.055-2.924 3.055Zm8.542 0a3.05 3.05 0 0 1-3.056-3.055c0-1.544 1.347-2.924 3.056-2.924 1.609 0 2.923 1.38 2.923 2.924 0 1.675-1.314 3.055-2.923 3.055Z"/><rect width="423.385" height="44.63" x="89.424" y="315" fill="#EAEAEA" rx="22.315"/><rect width="91.006" height="44.784" x="88.218" y="315" fill="url(#c)" rx="22.392"/><path fill="#fff" d="M115.607 334.454c2.844 0 5.195 1.837 5.195 4.882 0 3.157-2.53 5.329-5.889 5.329-4.501 0-6.539-3.224-6.539-7.703 0-4.792 2.799-8.218 7.054-8.218 1.925 0 3.471.65 4.724 1.657l-1.567 2.508c-.94-.783-1.859-1.254-3.135-1.254-1.993 0-3.359 1.657-3.65 4.255.963-.918 2.351-1.456 3.807-1.456Zm-.873 7.412c1.634 0 2.664-1.142 2.664-2.373 0-1.478-1.254-2.352-2.754-2.352-1.276 0-2.306.695-2.754 1.792.291 1.881 1.119 2.933 2.844 2.933Zm11.724-5.128c-2.284 0-3.829-1.724-3.829-3.918 0-2.217 1.545-3.964 3.851-3.964 2.329 0 3.829 1.769 3.829 3.941 0 2.217-1.567 3.941-3.851 3.941Zm-1.814 7.658 10.703-15.383h2.374l-10.704 15.383h-2.373Zm1.836-9.583c.94 0 1.635-.784 1.635-2.016 0-1.186-.695-1.993-1.657-1.993-.941 0-1.613.784-1.613 1.993 0 1.21.717 2.016 1.635 2.016Zm9.382 9.83c-2.306 0-3.851-1.747-3.851-3.941 0-2.195 1.567-3.941 3.851-3.941 2.307 0 3.829 1.769 3.829 3.941 0 2.217-1.589 3.941-3.829 3.941Zm0-1.948c.963 0 1.635-.784 1.635-1.993s-.717-2.016-1.635-2.016c-.985 0-1.657.784-1.657 2.016 0 1.187.694 1.993 1.657 1.993Z"/><rect width="27.776" height="27.776" x="164.232" y="131.895" fill="#592ACB" rx="13.888"/><path fill="#fff" d="M175.798 152.738c-.308 0-.603-.122-.82-.34l-3.477-3.477a1.158 1.158 0 0 1 .824-1.964 1.16 1.16 0 0 1 .815.325l2.5 2.5 7.321-10.458a1.158 1.158 0 0 1 2.084.466c.054.3-.012.61-.184.862l-8.114 11.591a1.162 1.162 0 0 1-.849.495.834.834 0 0 1-.1 0Z"/><path fill="#D9BFFF" d="M192.008 144.046h83.328v3.472h-83.328z"/><rect width="27.776" height="27.776" x="275.336" y="131.895" fill="#592ACB" rx="13.888"/><path fill="#fff" d="M286.901 152.738a1.16 1.16 0 0 1-.82-.34l-3.477-3.477a1.158 1.158 0 0 1 .824-1.964c.304-.003.597.114.815.325l2.5 2.5 7.321-10.458a1.16 1.16 0 0 1 1.9 1.328l-8.114 11.591a1.15 1.15 0 0 1-.848.495.85.85 0 0 1-.101 0Z"/><path fill="#D9BFFF" d="M303.111 144.046h41.664v3.472h-41.664zM344.775 144.046h39.06v3.472h-39.06z"/><rect width="31.248" height="31.248" x="382.099" y="130.159" fill="#592ACB" rx="15.624"/><path fill="#fff" d="m404.423 151.257-4.179-4.179a5.215 5.215 0 1 0-1.225 1.226l4.178 4.179a.866.866 0 0 0 1.226-1.226Zm-8.412-3.72a3.465 3.465 0 0 1-3.4-4.143 3.461 3.461 0 0 1 2.723-2.723 3.459 3.459 0 0 1 3.559 1.474 3.464 3.464 0 0 1-.431 4.377 3.467 3.467 0 0 1-2.451 1.015Z"/><rect width="31.248" height="31.248" x="382.099" y="130.159" stroke="#D9BFFF" stroke-width="3.472" rx="15.624"/><path fill="#592ACB" d="M164.848 174.425V182h-1.372v-7.575h1.372Zm2.766 4.246V182h-1.339v-5.681h1.28v.965h.066c.259-.633.843-1.039 1.694-1.039 1.173 0 1.949.776 1.946 2.138V182h-1.339v-3.41c0-.759-.414-1.214-1.106-1.214-.707 0-1.202.474-1.202 1.295Zm5.008 3.329v-5.681h1.339V182h-1.339Zm.673-6.488c-.429 0-.777-.325-.777-.725 0-.403.348-.728.777-.728.426 0 .773.325.773.728 0 .4-.347.725-.773.725Zm4.521 6.599c-1.698 0-2.722-1.21-2.722-2.93 0-1.734 1.05-2.936 2.715-2.936 1.387 0 2.348.81 2.441 2.041h-1.28c-.103-.547-.499-.961-1.143-.961-.825 0-1.376.688-1.376 1.834 0 1.162.54 1.861 1.376 1.861.588 0 1.028-.352 1.143-.962h1.28c-.096 1.206-1.006 2.053-2.434 2.053Zm3.533-.111v-5.681h1.339V182h-1.339Zm.674-6.488c-.429 0-.777-.325-.777-.725 0-.403.348-.728.777-.728.425 0 .773.325.773.728 0 .4-.348.725-.773.725Zm3.677 6.603c-1.084 0-1.901-.592-1.901-1.709 0-1.28 1.054-1.609 2.156-1.728 1.003-.107 1.406-.125 1.406-.51v-.022c0-.559-.34-.877-.962-.877-.654 0-1.032.333-1.165.721l-1.25-.177c.296-1.036 1.213-1.568 2.408-1.568 1.084 0 2.308.451 2.308 1.953V182h-1.287v-.78h-.045c-.244.477-.776.895-1.668.895Zm.348-.984c.806 0 1.317-.537 1.317-1.169v-.67c-.174.141-.877.23-1.228.278-.6.085-1.047.299-1.047.814 0 .492.399.747.958.747Zm3.998.869v-5.681h1.299v.946h.059c.207-.658.751-1.028 1.402-1.028.148 0 .358.015.48.037v1.232a2.545 2.545 0 0 0-.621-.078c-.736 0-1.28.511-1.28 1.232V182h-1.339ZM241.438 174.425V182h-1.373v-7.575h1.373Zm2.765 4.246V182h-1.339v-5.681h1.28v.965h.067c.259-.633.843-1.039 1.694-1.039 1.172 0 1.949.776 1.946 2.138V182h-1.339v-3.41c0-.759-.415-1.214-1.106-1.214-.707 0-1.203.474-1.203 1.295Zm9.499-.851-1.221.133c-.103-.373-.429-.71-1.046-.71-.559 0-.984.267-.98.651-.004.329.225.529.802.659l.969.207c1.073.233 1.594.728 1.598 1.539-.004 1.076-1.006 1.812-2.426 1.812-1.395 0-2.271-.618-2.438-1.661l1.306-.126c.115.511.514.777 1.128.777.636 0 1.058-.292 1.058-.68 0-.322-.244-.533-.766-.648l-.969-.203c-1.091-.226-1.601-.773-1.598-1.602-.003-1.05.929-1.723 2.297-1.723 1.332 0 2.101.614 2.286 1.575Zm3.741 4.291c-1.712 0-2.759-1.136-2.759-2.918 0-1.754 1.062-2.948 2.689-2.948 1.398 0 2.597.876 2.597 2.87v.41h-3.958c.011.973.584 1.543 1.45 1.543.577 0 1.021-.252 1.202-.732l1.25.14c-.236.988-1.146 1.635-2.471 1.635Zm-1.427-3.488h2.67c-.007-.773-.525-1.335-1.294-1.335-.799 0-1.336.61-1.376 1.335Zm5.087 3.377v-5.681h1.298v.946h.059c.207-.658.751-1.028 1.402-1.028.148 0 .359.015.481.037v1.232a2.561 2.561 0 0 0-.622-.078c-.736 0-1.279.511-1.279 1.232V182h-1.339Zm4.129 0v-5.681h1.339V182h-1.339Zm.673-6.488c-.429 0-.776-.325-.776-.725 0-.403.347-.728.776-.728.426 0 .774.325.774.728 0 .4-.348.725-.774.725Zm2.043 6.488v-5.681h1.298v.946h.06c.207-.658.751-1.028 1.402-1.028.147 0 .358.015.48.037v1.232a2.545 2.545 0 0 0-.621-.078c-.736 0-1.28.511-1.28 1.232V182h-1.339Zm6.714 0v-5.681h1.339V182h-1.339Zm.673-6.488c-.429 0-.777-.325-.777-.725 0-.403.348-.728.777-.728.425 0 .773.325.773.728 0 .4-.348.725-.773.725Zm3.381 3.159V182h-1.339v-5.681h1.28v.965h.067c.259-.633.843-1.039 1.694-1.039 1.172 0 1.949.776 1.945 2.138V182h-1.338v-3.41c0-.759-.415-1.214-1.106-1.214-.707 0-1.203.474-1.203 1.295Zm7.886-2.352v1.035h-1.18V182h-1.339v-4.646h-.839v-1.035h.839v-.537c0-1.146.788-1.712 1.776-1.712.462 0 .843.096 1.017.155l-.27 1.036a1.69 1.69 0 0 0-.499-.082c-.5 0-.685.248-.685.692v.448h1.18Zm3.314 5.792c-1.665 0-2.723-1.173-2.723-2.93 0-1.76 1.058-2.936 2.723-2.936 1.664 0 2.722 1.176 2.722 2.936 0 1.757-1.058 2.93-2.722 2.93Zm.007-1.073c.906 0 1.357-.821 1.357-1.86 0-1.04-.451-1.872-1.357-1.872-.921 0-1.372.832-1.372 1.872 0 1.039.451 1.86 1.372 1.86Zm3.851.962v-5.681h1.299v.946h.059c.207-.658.751-1.028 1.402-1.028.148 0 .359.015.481.037v1.232a2.561 2.561 0 0 0-.622-.078c-.736 0-1.28.511-1.28 1.232V182h-1.339Zm4.13 0v-5.681h1.28v.965h.067c.236-.647.806-1.039 1.568-1.039.766 0 1.317.395 1.535 1.039h.059c.252-.633.88-1.039 1.705-1.039 1.043 0 1.776.673 1.776 1.941V182h-1.343v-3.606c0-.703-.429-1.021-.969-1.021-.647 0-1.028.444-1.028 1.084V182h-1.313v-3.662c0-.584-.389-.965-.955-.965-.577 0-1.043.473-1.043 1.172V182h-1.339Zm10.983.115c-1.084 0-1.901-.592-1.901-1.709 0-1.28 1.054-1.609 2.156-1.728 1.003-.107 1.406-.125 1.406-.51v-.022c0-.559-.341-.877-.962-.877-.655 0-1.032.333-1.165.721l-1.25-.177c.296-1.036 1.213-1.568 2.408-1.568 1.083 0 2.308.451 2.308 1.953V182H310.6v-.78h-.045c-.244.477-.777.895-1.668.895Zm.348-.984c.806 0 1.316-.537 1.316-1.169v-.67c-.173.141-.876.23-1.228.278-.599.085-1.046.299-1.046.814 0 .492.399.747.958.747Zm6.794.965-.037.189c.463.07.833.351.833.891.003.699-.651 1.162-1.82 1.162l-.015-.659c.566 0 .925-.144.932-.469.008-.315-.229-.441-.754-.496l.133-.629c-1.45-.177-2.312-1.328-2.312-2.904 0-1.734 1.05-2.936 2.715-2.936 1.387 0 2.349.81 2.441 2.041h-1.28c-.103-.547-.499-.961-1.143-.961-.824 0-1.376.688-1.376 1.834 0 1.162.54 1.861 1.376 1.861.589 0 1.029-.352 1.143-.962h1.28c-.089 1.113-.873 1.924-2.116 2.038Zm5.694.015c-1.665 0-2.722-1.173-2.722-2.93 0-1.76 1.057-2.936 2.722-2.936 1.664 0 2.722 1.176 2.722 2.936 0 1.757-1.058 2.93-2.722 2.93Zm.007-1.073c.906 0 1.358-.821 1.358-1.86 0-1.04-.452-1.872-1.358-1.872-.921 0-1.372.832-1.372 1.872 0 1.039.451 1.86 1.372 1.86Zm-1.095-5.411-.81-.019c0-.88.518-1.405 1.18-1.405.348 0 .581.155.796.296.181.118.347.229.562.229.281 0 .458-.237.462-.566l.795.033c-.007.881-.521 1.391-1.18 1.395-.392.004-.617-.155-.821-.3-.162-.118-.314-.225-.536-.225-.263 0-.448.225-.448.562Zm7.462 6.484c-1.713 0-2.759-1.136-2.759-2.918 0-1.754 1.061-2.948 2.689-2.948 1.398 0 2.596.876 2.596 2.87v.41h-3.958c.012.973.585 1.543 1.45 1.543.577 0 1.021-.252 1.203-.732l1.25.14c-.237.988-1.147 1.635-2.471 1.635Zm-1.428-3.488h2.671c-.008-.773-.526-1.335-1.295-1.335-.799 0-1.335.61-1.376 1.335Zm9.577-.803-1.22.133c-.104-.373-.429-.71-1.047-.71-.559 0-.984.267-.98.651-.004.329.225.529.802.659l.97.207c1.072.233 1.594.728 1.597 1.539-.003 1.076-1.006 1.812-2.426 1.812-1.394 0-2.271-.618-2.438-1.661l1.306-.126c.115.511.514.777 1.128.777.637 0 1.058-.292 1.058-.68 0-.322-.244-.533-.765-.648l-.97-.203c-1.091-.226-1.601-.773-1.597-1.602-.004-1.05.928-1.723 2.296-1.723 1.332 0 2.101.614 2.286 1.575ZM375.519 182v-7.575h4.927v1.15h-3.554v2.057h3.299v1.15h-3.299v2.068h3.584V182h-4.957Zm7.607-3.329V182h-1.339v-5.681h1.28v.965h.067c.258-.633.843-1.039 1.694-1.039 1.172 0 1.949.776 1.945 2.138V182h-1.339v-3.41c0-.759-.414-1.214-1.106-1.214-.706 0-1.202.474-1.202 1.295Zm7.487 3.44c-1.698 0-2.723-1.21-2.723-2.93 0-1.734 1.051-2.936 2.715-2.936 1.387 0 2.349.81 2.441 2.041h-1.279c-.104-.547-.5-.961-1.143-.961-.825 0-1.376.688-1.376 1.834 0 1.162.54 1.861 1.376 1.861.588 0 1.028-.352 1.143-.962h1.279c-.096 1.206-1.006 2.053-2.433 2.053Zm6.011 0c-1.664 0-2.722-1.173-2.722-2.93 0-1.76 1.058-2.936 2.722-2.936 1.665 0 2.722 1.176 2.722 2.936 0 1.757-1.057 2.93-2.722 2.93Zm.008-1.073c.906 0 1.357-.821 1.357-1.86 0-1.04-.451-1.872-1.357-1.872-.921 0-1.373.832-1.373 1.872 0 1.039.452 1.86 1.373 1.86Zm5.19-2.367V182h-1.339v-5.681h1.28v.965h.066c.259-.633.844-1.039 1.694-1.039 1.173 0 1.95.776 1.946 2.138V182h-1.339v-3.41c0-.759-.414-1.214-1.106-1.214-.706 0-1.202.474-1.202 1.295Zm7.845-2.352v1.035h-1.121v2.937c0 .54.27.659.607.659.167 0 .318-.034.392-.052l.226 1.047a2.691 2.691 0 0 1-.788.133c-1.006.029-1.783-.496-1.776-1.565v-3.159h-.806v-1.035h.806v-1.362h1.339v1.362h1.121Zm1.12 5.681v-5.681h1.298v.946h.059c.208-.658.751-1.028 1.402-1.028.148 0 .359.015.481.037v1.232a2.552 2.552 0 0 0-.621-.078c-.736 0-1.28.511-1.28 1.232V182h-1.339Zm5.653.115c-1.084 0-1.901-.592-1.901-1.709 0-1.28 1.054-1.609 2.156-1.728 1.002-.107 1.406-.125 1.406-.51v-.022c0-.559-.341-.877-.962-.877-.655 0-1.032.333-1.165.721l-1.25-.177c.295-1.036 1.213-1.568 2.407-1.568 1.084 0 2.309.451 2.309 1.953V182h-1.288v-.78h-.044c-.244.477-.777.895-1.668.895Zm.347-.984c.807 0 1.317-.537 1.317-1.169v-.67c-.174.141-.876.23-1.228.278-.599.085-1.047.299-1.047.814 0 .492.4.747.958.747Zm3.999.869v-5.681h1.298v.946h.059c.208-.658.751-1.028 1.402-1.028.148 0 .359.015.481.037v1.232a2.559 2.559 0 0 0-.621-.078c-.736 0-1.28.511-1.28 1.232V182h-1.339Zm-46.803 14.111c-1.712 0-2.759-1.136-2.759-2.918 0-1.754 1.061-2.948 2.689-2.948 1.398 0 2.596.876 2.596 2.87v.41h-3.957c.011.973.584 1.543 1.45 1.543.577 0 1.02-.252 1.202-.732l1.25.14c-.237.988-1.147 1.635-2.471 1.635Zm-1.428-3.488h2.671c-.008-.773-.525-1.335-1.295-1.335-.799 0-1.335.61-1.376 1.335Zm6.07-2.304 1.147 2.097 1.165-2.097h1.417l-1.713 2.84 1.742 2.841h-1.409l-1.202-2.045-1.191 2.045h-1.421l1.731-2.841-1.686-2.84h1.42Zm4.764 7.812v-7.812h1.317v.939h.078c.203-.41.621-1.013 1.623-1.013 1.314 0 2.346 1.028 2.346 2.922 0 1.871-1.003 2.933-2.342 2.933-.976 0-1.416-.581-1.627-.995h-.056v3.026h-1.339Zm1.313-4.972c0 1.103.481 1.842 1.336 1.842.884 0 1.35-.776 1.35-1.842 0-1.058-.459-1.816-1.35-1.816-.862 0-1.336.714-1.336 1.816Zm7.675 2.952c-1.664 0-2.722-1.173-2.722-2.93 0-1.76 1.058-2.936 2.722-2.936 1.665 0 2.723 1.176 2.723 2.936 0 1.757-1.058 2.93-2.723 2.93Zm.008-1.073c.906 0 1.357-.821 1.357-1.86 0-1.04-.451-1.872-1.357-1.872-.921 0-1.372.832-1.372 1.872 0 1.039.451 1.86 1.372 1.86Zm8.342-3.218-1.221.133c-.104-.373-.429-.71-1.047-.71-.558 0-.984.267-.98.651-.004.329.226.529.803.659l.969.207c1.072.233 1.594.728 1.598 1.539-.004 1.076-1.006 1.812-2.427 1.812-1.394 0-2.271-.618-2.437-1.661l1.305-.126c.115.511.515.777 1.129.777.636 0 1.057-.292 1.057-.68 0-.322-.244-.533-.765-.648l-.969-.203c-1.091-.226-1.602-.773-1.598-1.602-.004-1.05.928-1.723 2.297-1.723 1.331 0 2.101.614 2.286 1.575Zm1.226 4.18v-5.681h1.339V196h-1.339Zm.673-6.488c-.429 0-.777-.325-.777-.725 0-.403.348-.728.777-.728.425 0 .773.325.773.728 0 .4-.348.725-.773.725Zm4.839 6.584-.037.189c.462.07.832.351.832.891.004.699-.651 1.162-1.82 1.162l-.014-.659c.566 0 .924-.144.932-.469.007-.315-.23-.441-.755-.496l.133-.629c-1.45-.177-2.311-1.328-2.311-2.904 0-1.734 1.05-2.936 2.714-2.936 1.388 0 2.349.81 2.442 2.041h-1.28c-.104-.547-.499-.961-1.143-.961-.825 0-1.376.688-1.376 1.834 0 1.162.54 1.861 1.376 1.861.588 0 1.028-.352 1.143-.962h1.28c-.089 1.113-.873 1.924-2.116 2.038Zm5.693.015c-1.664 0-2.722-1.173-2.722-2.93 0-1.76 1.058-2.936 2.722-2.936 1.665 0 2.723 1.176 2.723 2.936 0 1.757-1.058 2.93-2.723 2.93Zm.008-1.073c.906 0 1.357-.821 1.357-1.86 0-1.04-.451-1.872-1.357-1.872-.921 0-1.372.832-1.372 1.872 0 1.039.451 1.86 1.372 1.86Zm-1.095-5.411-.81-.019c0-.88.518-1.405 1.18-1.405.348 0 .581.155.795.296.181.118.348.229.562.229.281 0 .459-.237.463-.566l.795.033c-.007.881-.522 1.391-1.18 1.395-.392.004-.618-.155-.821-.3-.163-.118-.315-.225-.536-.225-.263 0-.448.225-.448.562Zm7.461 6.484c-1.712 0-2.759-1.136-2.759-2.918 0-1.754 1.062-2.948 2.689-2.948 1.398 0 2.597.876 2.597 2.87v.41h-3.958c.011.973.584 1.543 1.45 1.543.577 0 1.021-.252 1.202-.732l1.25.14c-.236.988-1.146 1.635-2.471 1.635Zm-1.427-3.488h2.67c-.007-.773-.525-1.335-1.294-1.335-.799 0-1.336.61-1.376 1.335Zm9.577-.803-1.221.133c-.103-.373-.429-.71-1.046-.71-.559 0-.984.267-.981.651-.003.329.226.529.803.659l.969.207c1.073.233 1.594.728 1.598 1.539-.004 1.076-1.006 1.812-2.426 1.812-1.395 0-2.272-.618-2.438-1.661l1.306-.126c.114.511.514.777 1.128.777.636 0 1.058-.292 1.058-.68 0-.322-.244-.533-.766-.648l-.969-.203c-1.091-.226-1.602-.773-1.598-1.602-.004-1.05.928-1.723 2.297-1.723 1.332 0 2.101.614 2.286 1.575Z"/></g></g><defs><radialGradient id="c" cx="0" cy="0" r="1" gradientTransform="matrix(-91.00646 44.78467 -35.48405 -72.10675 179.224 315)" gradientUnits="userSpaceOnUse"><stop stop-color="#9D62FC"/><stop offset="1" stop-color="#FD3296"/></radialGradient><clipPath id="b"><rect width="507.821" height="358.053" x="46" y="46" fill="#fff" rx="5.951"/></clipPath><filter id="a" width="531.625" height="381.858" x="34.098" y="38.065" color-interpolation-filters="sRGB" filterUnits="userSpaceOnUse"><feFlood flood-opacity="0" result="BackgroundImageFix"/><feColorMatrix in="SourceAlpha" result="hardAlpha" values="0 0 0 0 0 0 0 0 0 0 0 0 0 0 0 0 0 0 127 0"/><feOffset dy="3.967"/><feGaussianBlur stdDeviation="5.951"/><feComposite in2="hardAlpha" operator="out"/><feColorMatrix values="0 0 0 0 0 0 0 0 0 0 0 0 0 0 0 0 0 0 0.08 0"/><feBlend in2="BackgroundImageFix" result="effect1_dropShadow_1092_11619"/><feBlend in="SourceGraphic" in2="effect1_dropShadow_1092_11619" result="shape"/></filter></defs></svg>
