<svg width="74" height="37" xmlns="http://www.w3.org/2000/svg"><path d="M57.35 37C49.58 37 44.4 27.75 37 27.75c-7.4 0-13.32 9.25-20.35 9.25C7.03 37 0 28.12 0 12.58 0 2.96 2.96 0 15.17 0S31.08 5.18 37 5.18C42.92 5.18 46.62 0 58.83 0 71.04 0 74 2.96 74 12.58 74 28.12 66.97 37 57.35 37zM21.09 11.84c-7.4.37-10.73 4.81-10.73 5.92 0 1.11 4.81 4.07 9.99 4.07 4.81 0 10.73-1.85 10.73-3.33 0-1.85-2.96-7.03-9.99-6.66zm31.82 0c-7.03-.37-9.99 4.81-9.99 6.66 0 1.48 5.55 3.33 10.73 3.33 5.18 0 9.99-2.96 9.99-4.07-.37-1.11-3.33-5.55-10.73-5.92z" fill="#0060DF" fill-rule="nonzero"/></svg>