<svg width="58" height="68" xmlns="http://www.w3.org/2000/svg"><g fill="#0060DF" fill-rule="evenodd"><path d="M57.356 11.3c.017-3.365-2.408-6.252-5.739-6.83L29 .603 6.385 4.467c-3.33.58-5.756 3.466-5.74 6.831-.016 5.212.017 14.578.399 18.781C2.14 42.011 4.349 48.531 9.808 55.92a29.408 29.408 0 0 0 18.896 11.424l.288.03.289-.03A29.408 29.408 0 0 0 48.176 55.92c5.465-7.388 7.674-13.908 8.765-25.84.394-4.203.427-13.57.415-18.778zM51.82 29.616c-1.008 11-2.9 16.653-7.787 23.26A24.664 24.664 0 0 1 29 62.199a24.68 24.68 0 0 1-15.031-9.322c-4.898-6.608-6.78-12.26-7.787-23.261C5.8 25.47 5.8 15.435 5.8 11.314a1.798 1.798 0 0 1 1.451-1.797L29 5.812l21.746 3.716c.86.164 1.475.924 1.451 1.796.003 4.11.003 14.144-.379 18.29h.003z" fill-rule="nonzero"/><path d="M13.915 27.8c1.199 13.087 3.444 16.965 7.001 21.776A16.647 16.647 0 0 0 29 55.393V12.83l-15.467 2.643c.054 5.81.189 10.21.382 12.327z"/></g></svg>