<svg width="172" height="93" xmlns="http://www.w3.org/2000/svg"><g transform="translate(2 2)" fill="none" fill-rule="evenodd"><path d="M27.005 53.65a.79.79 0 0 0 .343 1.324.773.773 0 0 0 .757-.214l4.666-4.713a.79.79 0 0 0 0-1.113l-4.666-4.713a.772.772 0 0 0-1.09.01.791.791 0 0 0-.01 1.1l3.34 3.375H19.778a.782.782 0 0 0-.778.786c0 .434.348.786.778.786h10.567l-3.34 3.371z" fill="#0060DF"/><path d="M4 9h46v71H4a4 4 0 0 1-4-4V13a4 4 0 0 1 4-4z" stroke="#0060DF" stroke-width="4"/><rect stroke="#0060DF" stroke-width="4" x="50" width="118" height="89" rx="1"/><path d="M129 0h38a1 1 0 0 1 1 1v14a1 1 0 0 1-1 1h-39V1a1 1 0 0 1 1-1zM51 0h36v16H50V1a1 1 0 0 1 1-1z" stroke="#0060DF" stroke-width="4"/><path d="M0 22h50" stroke="#0060DF" stroke-width="4" stroke-linecap="square"/><circle fill="#0060DF" cx="7.5" cy="15.5" r="2.5"/><circle fill="#0060DF" cx="59" cy="8" r="3"/><circle fill="#0060DF" cx="14.5" cy="15.5" r="2.5"/><circle fill="#0060DF" cx="68" cy="8" r="3"/><circle fill="#0060DF" cx="21.5" cy="15.5" r="2.5"/><circle fill="#0060DF" cx="77" cy="8" r="3"/></g></svg>