<svg xmlns="http://www.w3.org/2000/svg" xmlns:xlink="http://www.w3.org/1999/xlink" xmlns:a="http://ns.adobe.com/AdobeSVGViewerExtensions/3.0/" version="1.1" x="0px" y="0px" width="24px" height="24px" viewBox="0 0 24 24" overflow="visible" enable-background="new 0 0 24 24" xml:space="preserve"><style>.style0{fill:  #00A7E0;}.style1{fill:  none;}.style2{fill: #FFFFFF;}</style><defs></defs><circle cx="12" cy="12" r="12" class="style0"/><path d="M15.1 7.44H8.97c-0.14 0-0.25 0.11-0.25 0.25v8.41c0 0.14 0.11 0.25 0.25 0.25h6.12c0.14 0 0.25-0.11 0.25-0.25 V7.69C15.35 7.55 15.24 7.44 15.1 7.44z" class="style1"/><path d="M10.94 6.34h2.09c0.12 0 0.22-0.1 0.22-0.22s-0.1-0.22-0.22-0.22h-2.09c-0.12 0-0.22 0.1-0.22 0.22 S10.82 6.34 10.94 6.34z" class="style1"/><path d="M15.08 7.44H8.95c-0.14 0-0.25 0.11-0.25 0.25v8.41c0 0.14 0.11 0.25 0.25 0.25h6.12 c0.14 0 0.25-0.11 0.25-0.25V7.69C15.33 7.55 15.21 7.44 15.08 7.44z" class="style1"/><path d="M15.51 4.48H8.47c-0.55 0-1 0.45-1 1V18.6c0 0.55 0.45 1 1 1h7.04c0.55 0 1-0.45 1-1V5.48 C16.51 4.93 16.06 4.48 15.51 4.48z M10.94 5.91h2.09c0.12 0 0.22 0.1 0.22 0.22s-0.1 0.22-0.22 0.22h-2.09 c-0.12 0-0.22-0.1-0.22-0.22S10.82 5.91 10.94 5.91z M11.99 18.94c-0.48 0-0.88-0.39-0.88-0.88s0.39-0.88 0.88-0.88 s0.88 0.39 0.88 0.88S12.47 18.94 11.99 18.94z M15.47 16.09c0 0.14-0.11 0.25-0.25 0.25h-6.5c-0.14 0-0.25-0.11-0.25-0.25V7.69 c0-0.14 0.11-0.25 0.25-0.25h6.5c0.14 0 0.25 0.11 0.25 0.25V16.09z" class="style2"/></svg>
