<svg width="65" height="65" viewBox="0 0 65 65" xmlns="http://www.w3.org/2000/svg"><defs><linearGradient x1="100%" y1="0%" x2="0%" y2="100%" id="a"><stop stop-color="#05C8E5" offset="0%"/><stop stop-color="#008BFF" offset="100%"/></linearGradient></defs><path d="M780.375 95c-16.335 0-29.625-13.29-29.625-29.625s13.29-29.625 29.625-29.625C796.71 35.75 810 49.04 810 65.375S796.71 95 780.376 95m0-62c17.852 0 32.375 14.523 32.375 32.375S798.227 97.75 780.375 97.75 748 83.227 748 65.375 762.523 33 780.375 33zm9.6 25.85h-1.34v-3.42c0-4.58-3.705-8.305-8.26-8.305s-8.26 3.726-8.26 8.306v3.42h-1.34c-1.53 0-2.775 1.25-2.775 2.788v13.104c0 1.538 1.245 2.79 2.775 2.79h19.2c1.53 0 2.775-1.252 2.775-2.79V61.638c0-1.538-1.245-2.79-2.775-2.79zm-.032 2.788l.032 13.073-19.168.032-.042-13.073.01-.377v.375l19.168-.03zm-9.568-11.694c3.058 0 5.454 2.41 5.454 5.487v3.42H774.92v-3.42c0-3.076 2.395-5.486 5.453-5.486zm0 13.043c-1.91 0-3.46 1.56-3.46 3.478 0 .672.23 1.333.686 1.966v2.173c0 1.538 1.245 2.79 2.774 2.79 1.53 0 2.775-1.252 2.775-2.79V68.43c.455-.632.686-1.293.686-1.965 0-1.918-1.553-3.478-3.462-3.478zm.937 4.522c-.136.12-.22.31-.22.494v2.6c0 .416-.302.72-.717.72-.417 0-.717-.304-.717-.72v-2.598c0-.185-.085-.376-.22-.497-.3-.273-.466-.644-.466-1.045 0-.79.615-1.41 1.403-1.41s1.404.62 1.404 1.41c0 .4-.168.772-.468 1.044z" transform="translate(-748 -33)" fill="url(#a)" fill-rule="evenodd"/></svg>
