<svg id="Layer_1" xmlns="http://www.w3.org/2000/svg" viewBox="0 0 894 954">
  <style>
    .Graphic_x0020_Style_x0020_7{fill:url(#SVGID_1_);} .Graphic_x0020_Style_x0020_12{fill:url(#SVGID_2_);} .st0{fill:url(#SVGID_3_);} .st1{fill:url(#SVGID_4_);} .st2{fill:url(#XMLID_2_);} .st3{fill:url(#SVGID_5_);} .st4{fill:url(#SVGID_6_);} .st5{fill:url(#SVGID_7_);} .st6{fill:url(#SVGID_8_);} .st7{fill:none;} .st8{fill:url(#SVGID_9_);} .st9{fill:url(#SVGID_10_);} .st10{fill:url(#SVGID_11_);} .st11{fill:url(#SVGID_12_);} .st12{fill:url(#SVGID_13_);} .st13{fill:url(#SVGID_14_);} .st14{fill:url(#SVGID_15_);} .st15{fill:url(#SVGID_16_);} .st16{fill:url(#SVGID_17_);} .st17{fill:url(#SVGID_18_);} .st18{fill:url(#SVGID_19_);} .st19{fill:url(#SVGID_20_);} .st20{fill:url(#SVGID_21_);} .st21{fill:url(#SVGID_22_);} .st22{fill:url(#SVGID_23_);} .st23{opacity:0.5;fill:url(#SVGID_24_);} .st24{opacity:0.5;fill:url(#SVGID_25_);} .st25{fill:url(#SVGID_26_);} .st26{fill:url(#SVGID_27_);} .st27{fill:url(#SVGID_28_);} .st28{fill:url(#SVGID_29_);}
  </style>
  <linearGradient id="SVGID_1_" gradientUnits="userSpaceOnUse" x1="-190" y1="171" x2="-189.031" y2="170.753">
    <stop offset="0" stop-color="#C42482"/>
    <stop offset=".474" stop-color="#FF272D"/>
    <stop offset=".647" stop-color="#FF6F1D"/>
    <stop offset=".815" stop-color="#FFAD0E"/>
    <stop offset=".937" stop-color="#FFD405"/>
    <stop offset="1" stop-color="#FFE302"/>
  </linearGradient>
  <linearGradient id="SVGID_2_" gradientUnits="userSpaceOnUse" x1="-190" y1="171" x2="-190" y2="172">
    <stop offset="0" stop-color="#0083FF"/>
    <stop offset=".106" stop-color="#007AF9"/>
    <stop offset=".281" stop-color="#0060E8"/>
    <stop offset=".289" stop-color="#005FE7"/>
    <stop offset=".678" stop-color="#002079"/>
  </linearGradient>
  <linearGradient id="SVGID_3_" gradientUnits="userSpaceOnUse" x1="337.242" y1="668.306" x2="337.242" y2="669.871">
    <stop offset="0" stop-color="#0083FF"/>
    <stop offset=".106" stop-color="#007AF9"/>
    <stop offset=".281" stop-color="#0060E8"/>
    <stop offset=".289" stop-color="#005FE7"/>
    <stop offset=".678" stop-color="#002079"/>
  </linearGradient>
  <path class="st0" d="M337.7 669.3c-.5.2-.9.4-1.4.6 0 0 .7-.5 1.9-1.6-.2.4-.3.7-.5 1z"/>
  <radialGradient id="SVGID_4_" cx="337.252" cy="669.471" r="1.628" fx="337.15" fy="669.468" gradientUnits="userSpaceOnUse">
    <stop offset=".503" stop-color="#00FDFF" stop-opacity="0"/>
    <stop offset=".889" stop-color="#00FDFF" stop-opacity=".967"/>
    <stop offset=".903" stop-color="#00FDFF"/>
  </radialGradient>
  <path class="st1" d="M337.7 669.3c-.5.2-.9.4-1.4.6 0 0 .7-.5 1.9-1.6-.2.4-.3.7-.5 1z"/>
  <radialGradient id="XMLID_2_" cx="589.174" cy="222.825" r="791.229" gradientUnits="userSpaceOnUse">
    <stop offset="0" stop-color="#00CCDA"/>
    <stop offset=".22" stop-color="#0083FF"/>
    <stop offset=".261" stop-color="#007AF9"/>
    <stop offset=".33" stop-color="#0060E8"/>
    <stop offset=".333" stop-color="#005FE7"/>
    <stop offset=".438" stop-color="#2639AD"/>
    <stop offset=".522" stop-color="#401E84"/>
    <stop offset=".566" stop-color="#4A1475"/>
  </radialGradient>
  <path id="XMLID_16_" class="st2" d="M441 859.5c200.1 0 362.2-163.1 362.2-364.2s-162.1-364.2-362-364.2-362 163.1-362 364.2C78.7 696.6 241.1 859.5 441 859.5z"/>
  <linearGradient id="SVGID_5_" gradientUnits="userSpaceOnUse" x1="420.499" y1="593.64" x2="420.499" y2="593.854">
    <stop offset="0" stop-color="#0083FF"/>
    <stop offset=".106" stop-color="#007AF9"/>
    <stop offset=".281" stop-color="#0060E8"/>
    <stop offset=".289" stop-color="#005FE7"/>
    <stop offset=".678" stop-color="#002079"/>
  </linearGradient>
  <path class="st3" d="M420.5 593.9c0-.1 0-.1 0 0 0-.1.1-.2.1-.2-.1 0-.1.1-.1.2z"/>
  <radialGradient id="SVGID_6_" cx="420.499" cy="593.799" r=".109" fx="420.492" fy="593.799" gradientUnits="userSpaceOnUse">
    <stop offset=".503" stop-color="#00FDFF" stop-opacity="0"/>
    <stop offset=".889" stop-color="#00FDFF" stop-opacity=".967"/>
    <stop offset=".903" stop-color="#00FDFF"/>
  </radialGradient>
  <path class="st4" d="M420.5 593.9c0-.1 0-.1 0 0 0-.1.1-.2.1-.2-.1 0-.1.1-.1.2z"/>
  <linearGradient id="SVGID_7_" gradientUnits="userSpaceOnUse" x1="419.056" y1="593.937" x2="419.056" y2="596.318">
    <stop offset="0" stop-color="#0083FF"/>
    <stop offset=".106" stop-color="#007AF9"/>
    <stop offset=".281" stop-color="#0060E8"/>
    <stop offset=".289" stop-color="#005FE7"/>
    <stop offset=".678" stop-color="#002079"/>
  </linearGradient>
  <path class="st5" d="M418.9 596.2c.1-.7.2-1.5.3-2.3-.1.8-.3 1.6-.5 2.4.2 0 .2 0 .2-.1z"/>
  <radialGradient id="SVGID_8_" cx="419.059" cy="595.71" r="1.119" fx="418.989" fy="595.708" gradientUnits="userSpaceOnUse">
    <stop offset=".503" stop-color="#00FDFF" stop-opacity="0"/>
    <stop offset=".889" stop-color="#00FDFF" stop-opacity=".967"/>
    <stop offset=".903" stop-color="#00FDFF"/>
  </radialGradient>
  <path class="st6" d="M418.9 596.2c.1-.7.2-1.5.3-2.3-.1.8-.3 1.6-.5 2.4.2 0 .2 0 .2-.1z"/>
  <path class="st7" d="M365.5 644.6c.2-.3.3-.7.5-1-1.3 1.1-2.1 1.6-2.1 1.6.6-.2 1.1-.4 1.6-.6z"/>
  <g>
    <linearGradient id="SVGID_9_" gradientUnits="userSpaceOnUse" x1="672.072" y1="742.465" x2="672.072" y2="743.867">
      <stop offset="0" stop-color="#0083FF"/>
      <stop offset=".106" stop-color="#007AF9"/>
      <stop offset=".281" stop-color="#0060E8"/>
      <stop offset=".289" stop-color="#005FE7"/>
      <stop offset=".678" stop-color="#002079"/>
    </linearGradient>
    <path class="st8" d="M672.5 743.4c-.4.2-.8.3-1.3.5 0 0 .6-.5 1.7-1.4-.1.3-.3.6-.4.9z"/>
    <radialGradient id="SVGID_10_" cx="672.081" cy="743.508" r="1.459" fx="671.99" fy="743.506" gradientUnits="userSpaceOnUse">
      <stop offset=".503" stop-color="#00FDFF" stop-opacity="0"/>
      <stop offset=".889" stop-color="#00FDFF" stop-opacity=".967"/>
      <stop offset=".903" stop-color="#00FDFF"/>
    </radialGradient>
    <path class="st9" d="M672.5 743.4c-.4.2-.8.3-1.3.5 0 0 .6-.5 1.7-1.4-.1.3-.3.6-.4.9z"/>
  </g>
  <g>
    <linearGradient id="SVGID_11_" gradientUnits="userSpaceOnUse" x1="746.663" y1="675.57" x2="746.663" y2="675.761">
      <stop offset="0" stop-color="#0083FF"/>
      <stop offset=".106" stop-color="#007AF9"/>
      <stop offset=".281" stop-color="#0060E8"/>
      <stop offset=".289" stop-color="#005FE7"/>
      <stop offset=".678" stop-color="#002079"/>
    </linearGradient>
    <path class="st10" d="M746.6 675.8s0-.1 0 0c0-.1 0-.1.1-.2 0 0 0 .1-.1.2z"/>
    <radialGradient id="SVGID_12_" cx="746.664" cy="675.713" r=".098" fx="746.658" fy="675.712" gradientUnits="userSpaceOnUse">
      <stop offset=".503" stop-color="#00FDFF" stop-opacity="0"/>
      <stop offset=".889" stop-color="#00FDFF" stop-opacity=".967"/>
      <stop offset=".903" stop-color="#00FDFF"/>
    </radialGradient>
    <path class="st11" d="M746.6 675.8s0-.1 0 0c0-.1 0-.1.1-.2 0 0 0 .1-.1.2z"/>
  </g>
  <g>
    <linearGradient id="SVGID_13_" gradientUnits="userSpaceOnUse" x1="492.075" y1="659.076" x2="335.771" y2="147.777">
      <stop offset="0" stop-color="#000F43" stop-opacity=".4"/>
      <stop offset=".174" stop-color="#00134F" stop-opacity=".331"/>
      <stop offset=".703" stop-color="#001C6D" stop-opacity=".119"/>
      <stop offset="1" stop-color="#002079" stop-opacity="0"/>
    </linearGradient>
    <path class="st12" d="M712.4 719.9c-7.6 5.5-15.9 10.3-24.6 14.8 9.8-14.3 20.6-31.7 31.2-51.4 7.7-8.5 14.8-16.9 20.6-25.8 2.8-4.4 6-9.9 9.3-16.2 20.3-36.7 42.8-96 43.4-156.9v-.1-4.5c0-15.3-1.4-30.6-4.7-45.5.2 1.2.3 2.3.5 3.5-.2-.9-.3-1.8-.5-2.7.3 1.7.5 3.3.8 4.9 4.2 35.3 1.2 69.7-13.6 95.1-.2.4-.5.7-.7 1.1 7.7-38.6 10.2-81.1 1.7-123.8 0 0-3.4-20.7-28.9-83.6-14.6-36.2-40.7-65.9-63.7-87.5-20.1-24.9-38.4-41.7-48.5-52.3-21.1-22.2-29.9-38.8-33.5-49.7-3.1-1.6-43.4-40.7-46.6-42.2-17.6 27.2-72.8 112.4-46.5 192 11.9 36.1 42 73.5 73.5 94.5 1.4 1.6 18.7 20.4 27 63 8.5 44 4 78.3-13.5 129-20.6 44.5-73.5 88.5-123 93-105.8 9.6-144.6-53.2-144.6-53.2 37.8 15.1 79.6 12 105-3.7 25.6-15.9 41.1-27.6 53.7-23 12.4 4.6 22.3-8.8 13.4-22.7-8.7-13.9-31.3-33.7-64.8-28.2-25.6 4.2-49.1 24.5-82.8 4.8-2.1-1.2-4.1-2.5-6.3-4.1-2.2-1.5 7.2 2.2 5 .6-6.5-3.6-18.1-11.3-21.1-14.1-.5-.5 5.1 1.8 4.6 1.3-31.4-25.9-27.5-43.4-26.5-54.4.8-8.8 6.5-20 16.1-24.6 4.6 2.5 7.5 4.5 7.5 4.5s-2-4.1-3.1-6.2c.4-.2.7-.1 1.1-.3 3.8 1.8 12.2 6.6 16.7 9.5 5.8 4.1 7.6 7.7 7.6 7.7s1.5-.8.4-4.4c-.4-1.5-2.2-6.1-7.9-10.8h.4c3.1 1.8 6.3 3.9 9.7 6.7 1.6-5.9 4.5-12 3.9-22.9-.4-7.7-.2-9.7-1.6-12.7-1.2-2.6.7-3.5 2.8-.9-.4-2.1-.9-3.9-1.8-6v-.2c2.6-9.2 55.7-33 59.6-35.8 5.6-3.8 11.4-9.8 15.6-17 3-4.7 5.2-11.3 5.7-21.3.3-7.2-3.1-12-56.7-17.7-14.7-1.4-23.3-12.1-28.2-21.9-.9-2.1-1.8-4-2.7-5.9-1-2.7-1.7-5-2.1-6.9 8.8-25.2 23.5-46.5 45.2-62.6 1.2-1.1-4.7.3-3.5-.8 1.4-1.3 10.4-4.9 12.1-5.7 2.1-1-8.9-5.6-18.5-4.5-9.8 1.1-11.9 2.3-17.2 4.5 2.2-2.2 9.1-5 7.5-5-10.6 1.6-23.8 7.8-35.1 14.8-.1-1.2.2-2 .7-3.6-5.3 2.2-18.2 11.3-21.9 18.9.2-1.8.2-2.6.2-4.4-3.7 3.2-7.5 6.8-10.8 11.3l-.2.2c-30.5-12.3-57.3-13.1-80-7.6-5-5-7.4-1.3-18.7-26.2-.8-1.5.6 1.5 0 0-1.9-4.8 1.1 6.4 0 0-19 15-44 32-56 44-.1.5 14-4 0 0-4.9 1.4-4.6 4.3-5.3 30.6-.2 2 0 4.2-.2 6-9.6 12.2-16.1 22.6-18.6 27.9C118 344 104.3 377.3 91.1 430c0 0 7.5-19.5 21-41.2-11 28-21.6 71.9-23.8 139.6.4-2.2 3.5-19.1 10.2-41.4-1.9 45.1 2.8 101.1 28.3 164.2 7.6 18.6 20.2 46.9 41.6 77.9 67.3 70.9 162.3 115 267.5 115 110.1.2 208.7-47.9 276.5-124.2z"/>
  </g>
  <g>
    <linearGradient id="SVGID_14_" gradientUnits="userSpaceOnUse" x1="745.371" y1="675.836" x2="745.371" y2="677.97">
      <stop offset="0" stop-color="#0083FF"/>
      <stop offset=".106" stop-color="#007AF9"/>
      <stop offset=".281" stop-color="#0060E8"/>
      <stop offset=".289" stop-color="#005FE7"/>
      <stop offset=".678" stop-color="#002079"/>
    </linearGradient>
    <path class="st13" d="M745.3 677.9c.1-.7.2-1.3.3-2-.1.7-.3 1.5-.4 2.2 0-.1 0-.2.1-.2z"/>
    <radialGradient id="SVGID_15_" cx="745.373" cy="677.424" r="1.002" fx="745.31" fy="677.422" gradientUnits="userSpaceOnUse">
      <stop offset=".503" stop-color="#00FDFF" stop-opacity="0"/>
      <stop offset=".889" stop-color="#00FDFF" stop-opacity=".967"/>
      <stop offset=".903" stop-color="#00FDFF"/>
    </radialGradient>
    <path class="st14" d="M745.3 677.9c.1-.7.2-1.3.3-2-.1.7-.3 1.5-.4 2.2 0-.1 0-.2.1-.2z"/>
  </g>
  <g>
    <radialGradient id="SVGID_16_" cx="636.154" cy="767.889" r="266.886" gradientTransform="rotate(5.732 2546.16 2880.044)" gradientUnits="userSpaceOnUse">
      <stop offset=".003" stop-color="#FFEA00"/>
      <stop offset=".497" stop-color="#FF272D"/>
      <stop offset="1" stop-color="#C42482"/>
    </radialGradient>
    <path class="st15" d="M631.1 771.4C764 756 822.9 618.9 747.3 616.2c-68.2-2.1-179.1 162.4-116.2 155.2z"/>
    <radialGradient id="SVGID_17_" cx="612.007" cy="511.977" r="445.678" gradientTransform="rotate(5.732 2546.16 2880.044)" gradientUnits="userSpaceOnUse">
      <stop offset=".003" stop-color="#FFE900"/>
      <stop offset=".157" stop-color="#FFAF0E"/>
      <stop offset=".316" stop-color="#FF7A1B"/>
      <stop offset=".472" stop-color="#FF4E26"/>
      <stop offset=".621" stop-color="#FF2C2E"/>
      <stop offset=".762" stop-color="#FF1434"/>
      <stop offset=".892" stop-color="#FF0538"/>
      <stop offset="1" stop-color="#FF0039"/>
    </radialGradient>
    <path class="st16" d="M756.9 588.3C848.3 535 824.5 420 824.5 420s-35.3 41-59.3 106.4c-23.7 64.7-63.3 94-8.3 61.9z"/>
    <radialGradient id="SVGID_18_" cx="675.043" cy="925.113" r="408.958" gradientTransform="rotate(5.732 2546.16 2880.044)" gradientUnits="userSpaceOnUse">
      <stop offset=".003" stop-color="#FF272D"/>
      <stop offset=".497" stop-color="#C42482"/>
      <stop offset=".987" stop-color="#620700"/>
    </radialGradient>
    <path class="st17" d="M466.6 839.4c127.5 40.7 237.1-59.8 169.5-93.3-61.4-30.3-230 74.1-169.5 93.3z"/>
    <radialGradient id="SVGID_19_" cx="634.469" cy="388.853" r="634.611" fx="657.168" fy="377.633" gradientUnits="userSpaceOnUse">
      <stop offset=".156" stop-color="#FFEA00"/>
      <stop offset=".231" stop-color="#FFDE00"/>
      <stop offset=".365" stop-color="#FFBF00"/>
      <stop offset=".541" stop-color="#FF8E00"/>
      <stop offset=".763" stop-color="#FF272D"/>
      <stop offset=".8" stop-color="#F92433"/>
      <stop offset=".851" stop-color="#E91B45"/>
      <stop offset=".91" stop-color="#CF0E62"/>
      <stop offset=".958" stop-color="#B5007F"/>
    </radialGradient>
    <path class="st18" d="M800.1 546.4c13.6-67.9 12.4-95.7 4-147-6.7-41.3-36.2-100.5-61.7-129-26.3-29.4-7.8-19.8-33.2-41.2-22.3-24.7-43.9-49.2-55.7-59.1-96.5-80.7-81.1-89.3-81.1-89.3S472 186.6 539.5 308c8.6 15.4 15.3 27 22.5 36.1 45 32.6 71 86 71 145.7 0 99-80.2 179.2-179.2 179.2-13.8 0-27.2-1.6-40.1-4.5C367 655.6 340 632 326.6 616c-7.7-9.2-11-15.9-11-15.9 41.8 15 88.1 11.9 116.3-3.7 28.4-15.7 45.5-27.4 59.4-22.8 13.7 4.6 24.7-8.7 14.8-22.5-9.6-13.8-34.6-33.5-71.7-28-28.4 4.1-54.4 24.3-91.6 4.8-2.3-1.2-4.5-2.5-7-4.1-2.5-1.4 8 2.2 5.5.6-7.2-3.5-20.1-11.2-23.4-13.9-.6-.5 5.6 1.8 5.1 1.3-34.8-25.7-30.4-43-29.3-53.9.9-8.7 7.2-19.9 17.8-24.4 5.1 2.5 8.3 4.4 8.3 4.4s-2.2-4-3.4-6.1c.4-.2.8-.1 1.2-.3 4.2 1.8 13.5 6.6 18.4 9.4 6.4 4 8.4 7.6 8.4 7.6s1.7-.8.4-4.4c-.5-1.4-2.4-6-8.7-10.7h.4c3.4 1.7 7 3.9 10.7 6.7 1.8-5.8 5-11.9 4.3-22.7-.4-7.6-.2-9.6-1.7-12.6-1.3-2.5.8-3.5 3.1-.9-.4-2-1-3.9-2-6v-.2c2.9-9.1 61.6-32.8 65.9-35.5 6.2-3.8 12.6-9.7 17.3-16.8 3.3-4.7 5.7-11.2 6.3-21.1.2-4.5-1.2-8-16.7-11.4-9.3-2-23.8-4-46.1-6.1-16.2-1.4-25.8-12-31.2-21.7-1-2.1-2-4-3-5.9-1.1-2.7-1.9-5-2.3-6.8 9.7-25 26-46.1 50-62.1 1.3-1.1-5.2.3-3.9-.8 1.5-1.2 11.5-4.8 13.4-5.6 2.3-1-9.8-5.6-20.5-4.5-10.9 1.1-13.2 2.3-19 4.5 2.4-2.2 10.1-5 8.3-5-11.8 1.6-26.4 7.7-38.8 14.7-.1-1.2.2-2 .8-3.5-5.8 2.2-20.1 11.2-24.3 18.7.2-1.8.3-2.6.2-4.4-4.1 3.2-8.3 6.8-11.9 11.2l-.2.2c-33.7-12.2-63.4-13-88.6-7.5-5.5-4.9-14.3-12.4-26.8-37.1-.8-1.5-1.3 3.1-2 1.6-4.9-11.3-7.8-29.8-7.3-42.5 0 0-10.1 4.6-18.4 23.7-1.5 3.4-2.5 5.3-3.5 7.2-.5.6 1-6.3.8-5.9-1.4 2.5-5.2 5.9-6.8 10.3-1.1 3.3-2.7 5.1-3.7 9.2l-.2.4c-.1-1.2.3-5 0-4.2-3.5 7-6.9 15.1-10 24.4-4.5 14.7-9.7 34.8-10.5 60.9-.2 2 0 4.2-.2 6-10.6 12.1-17.8 22.4-20.6 27.7-13.7 21.2-28.8 54.2-43.5 106.5 0 0 8.3-19.3 23.3-40.8-12.2 27.7-24 71.3-26.3 138.4.4-2.2 3.9-19 11.3-41C60.1 518 65.3 573.5 93.6 636c16.8 36.8 55.4 111.6 149.8 169.9 0 0 32.1 23.9 87.3 41.9 4.1 1.5 8.2 2.9 12.4 4.4-1.3-.5-2.6-1.1-3.8-1.7 31.5 9.4 69.7 16.6 113.3 16.7 143 .1 185.1-57.3 185.1-57.3s-.1.1-.4.3c2-1.9 4-3.9 5.8-5.9-22.6 21.3-74 22.7-93.3 21.2 32.8-9.6 54.4-17.8 96.4-33.9 4.9-1.8 9.9-3.9 15.1-6.2.6-.2 1.1-.5 1.7-.8 1-.5 2-.9 3.1-1.4 18-8.5 37.3-19.8 57.3-35.9 42.2-33.7 51.4-66.6 56.2-88.3-.7 2.1-2.8 6.9-4.2 10.1-10.9 23.3-35 37.5-61.1 49.8 10.6-10.7 25.2-26.9 39.3-44.8 7.4-9.7 46.5-127 46.5-127.7z"/>
    <path class="st7" d="M326.5 616.1c13.5 16 40.4 39.6 87.1 48.5-33.6-7.7-63.6-24.9-87.1-48.5zM697.4 726.2c.2-.3.3-.6.5-.9-1.2.9-1.9 1.4-1.9 1.4.5-.2 1-.4 1.4-.5z"/>
    <linearGradient id="SVGID_20_" gradientUnits="userSpaceOnUse" x1="613.964" y1="409.324" x2="494.387" y2="730.387">
      <stop offset="0" stop-color="#FF8E00"/>
      <stop offset=".015" stop-color="#FF8E00" stop-opacity=".973"/>
      <stop offset=".282" stop-color="#FF8E00" stop-opacity=".5"/>
      <stop offset="1" stop-color="#FF8E00" stop-opacity="0"/>
    </linearGradient>
    <path class="st19" d="M592.1 373.6c10.5 11.7 12.3 15.3 15.7 20.9 30.8 32.8 76.6 112.8 43.6 213.2-62 189-310 100-336 75 15 156 381 196 412.1-72.2 18.1-156.3-147.1-248.8-135.4-236.9z"/>
    <radialGradient id="SVGID_21_" cx="-827.419" cy="163.758" r="450.875" fx="-856.178" fy="166.539" gradientTransform="matrix(.6218 .0277 -.0408 .9146 1312.287 137.02)" gradientUnits="userSpaceOnUse">
      <stop offset="0" stop-color="#FFEA00"/>
      <stop offset=".06" stop-color="#FFDE00"/>
      <stop offset=".167" stop-color="#FFBF00"/>
      <stop offset=".308" stop-color="#FF8E00"/>
      <stop offset=".769" stop-color="#FF272D"/>
      <stop offset=".872" stop-color="#E0255A"/>
      <stop offset=".953" stop-color="#CC2477"/>
      <stop offset="1" stop-color="#C42482"/>
    </radialGradient>
    <path class="st20" d="M679.4 138.5c-19.5 22.8-28.6 74-8.8 125.9s50.2 40.7 69.1 93.6c25 69.9 13.4 163.8 13.4 163.8s30 87 51-5.4c46.3-173.6-124.7-335.1-124.7-377.9z"/>
    <radialGradient id="SVGID_22_" cx="-742.47" cy="67.599" r="310.043" gradientTransform="matrix(.6218 .0277 -.0408 .9146 1312.287 137.02)" gradientUnits="userSpaceOnUse">
      <stop offset="0" stop-color="#FFEA00"/>
      <stop offset="1" stop-color="#FFEA00" stop-opacity="0"/>
    </radialGradient>
    <path class="st21" d="M679.4 138.5c-19.5 22.8-28.6 74-8.8 125.9s50.2 40.7 69.1 93.6c25 69.9 13.4 163.8 13.4 163.8s30 87 51-5.4c46.3-173.6-124.7-335.1-124.7-377.9z"/>
    <radialGradient id="SVGID_23_" cx="632.012" cy="436.406" r="382.674" fx="863.233" fy="741.326" gradientUnits="userSpaceOnUse">
      <stop offset=".279" stop-color="#FFEA00"/>
      <stop offset=".402" stop-color="#FD0"/>
      <stop offset=".63" stop-color="#FFBA00"/>
      <stop offset=".856" stop-color="#FF9100"/>
      <stop offset=".932" stop-color="#FF6711"/>
      <stop offset=".994" stop-color="#FF4A1D"/>
    </radialGradient>
    <path class="st22" d="M715 717.7c17.2-19 32.6-40.7 44.4-65.3 30.1-63.3 76.7-168.7 40-278.7-29-86.9-68.8-134.5-119.3-180.9-82-75.4-105-109.1-105-129.1 0 0-94.7 105.7-53.6 215.9s125.2 106.2 180.9 221.2c65.5 135.3-53 283-151 324.3 6-1.3 217.9-49.3 229-170.5-.3 2.2-5.1 35.7-65.4 63.1z"/>
    <linearGradient id="SVGID_24_" gradientUnits="userSpaceOnUse" x1="-47.556" y1="606.703" x2="259.473" y2="528.441" gradientTransform="rotate(5.732 2546.16 2880.044)">
      <stop offset="0" stop-color="#C42482"/>
      <stop offset=".474" stop-color="#FF272D"/>
      <stop offset=".647" stop-color="#FF6F1D"/>
      <stop offset=".815" stop-color="#FFAD0E"/>
      <stop offset=".937" stop-color="#FFD405"/>
      <stop offset="1" stop-color="#FFE302"/>
    </linearGradient>
    <path class="st23" d="M440.6 324.5c.3-7.2-3.4-12-62.6-17.5-24.3-2.2-33.7-24.8-36.5-34.2-8.7 22.5-12.2 46.1-10.3 74.7 1.3 18.7 13.9 38.8 19.9 50.6 0 0 1.3-1.7 2-2.4 11.3-11.8 58.7-29.7 63.2-32.3 4.8-3.2 23.5-16.8 24.3-38.9z"/>
    <radialGradient id="SVGID_25_" cx="59.52" cy="514.835" r="165.973" fx="57.812" fy="515.095" gradientTransform="rotate(5.732 2546.16 2880.044)" gradientUnits="userSpaceOnUse">
      <stop offset=".625" stop-color="#FFE302" stop-opacity="0"/>
      <stop offset=".995" stop-color="#FFE302" stop-opacity=".7"/>
    </radialGradient>
    <path class="st24" d="M440.6 324.5c.3-7.2-3.4-12-62.6-17.5-24.3-2.2-33.7-24.8-36.5-34.2-8.7 22.5-12.2 46.1-10.3 74.7 1.3 18.7 13.9 38.8 19.9 50.6 0 0 1.3-1.7 2-2.4 11.3-11.8 58.7-29.7 63.2-32.3 4.8-3.2 23.5-16.8 24.3-38.9z"/>
    <linearGradient id="SVGID_26_" gradientUnits="userSpaceOnUse" x1="240.019" y1="-1073.403" x2="195.459" y2="-1187.591" gradientTransform="rotate(5.732 -13242.066 -1117.888)">
      <stop offset="0" stop-color="#891551" stop-opacity=".6"/>
      <stop offset="1" stop-color="#C42482" stop-opacity="0"/>
    </linearGradient>
    <path class="st25" d="M180 191.5c-.8-1.5-1.3 3.1-2 1.6-4.9-11.3-7.8-29.6-7.1-42.5 0 0-10.1 4.6-18.4 23.7-1.5 3.4-2.5 5.3-3.5 7.2-.5.6 1-6.3.8-5.9-1.4 2.5-5.2 5.9-6.8 10.1-1.3 3.5-2.7 5.3-3.8 9.6-.3 1.2.3-5.2 0-4.4-19.3 37.4-23 94-21 91.6 41.2-44 88.4-54.4 88.4-54.4-4.9-3.7-15.8-14.4-26.6-36.6z"/>
    <linearGradient id="SVGID_27_" gradientUnits="userSpaceOnUse" x1="-1.19" y1="690.682" x2="75.633" y2="777.938" gradientTransform="rotate(5.732 2546.16 2880.044)">
      <stop offset=".005" stop-color="#891551" stop-opacity=".5"/>
      <stop offset=".484" stop-color="#FF272D" stop-opacity=".5"/>
      <stop offset="1" stop-color="#FF272D" stop-opacity="0"/>
    </linearGradient>
    <path class="st26" d="M336.3 651.7c-56.9-24.3-121.6-58.6-119.1-136.5 3.3-102.6 95.6-82.3 95.6-82.3-3.5.8-12.8 7.5-16.1 14.5-3.5 8.8-9.8 28.8 9.4 49.7 30.3 32.8-62.2 77.9 80.5 162.9 3.6 2.1-33.4-1-50.3-8.3z"/>
    <linearGradient id="SVGID_28_" gradientUnits="userSpaceOnUse" x1="144.138" y1="842.371" x2="144.192" y2="781.309" gradientTransform="rotate(5.732 2546.16 2880.044)">
      <stop offset="0" stop-color="#C42482"/>
      <stop offset=".773" stop-color="#C42482" stop-opacity="0"/>
    </linearGradient>
    <path class="st27" d="M316.1 600.6c40.3 14 87.3 11.6 115.5-4 18.8-10.5 43-27.3 57.9-23.1-12.9-5.1-22.6-7.5-34.4-8.1-2 0-4.4 0-6.6-.3-4 0-8.2.2-12.9.7-7.3.7-15.3 5.3-22.6 4.5-.4 0 7.1-3.1 6.5-2.9-3.9.8-8.1 1-12.5 1.5-2.8.3-5.3.7-8.1.8-84 7.1-155.1-45.6-155.1-45.6-6 20.4 27.2 60.7 72.3 76.5z"/>
    <linearGradient id="SVGID_29_" gradientUnits="userSpaceOnUse" x1="557.127" y1="93.262" x2="806.674" y2="651.287">
      <stop offset="0" stop-color="#FFF14F"/>
      <stop offset=".268" stop-color="#FFEE4C"/>
      <stop offset=".452" stop-color="#FFE643"/>
      <stop offset=".612" stop-color="#FFD834"/>
      <stop offset=".757" stop-color="#FFC41E"/>
      <stop offset=".892" stop-color="#FFAB02"/>
      <stop offset=".902" stop-color="#FFA900"/>
      <stop offset=".949" stop-color="#FFA000"/>
      <stop offset="1" stop-color="#FF9100"/>
    </linearGradient>
    <path class="st28" d="M714.9 718.3c85-83.5 128-185 109.8-298.8 0 0 7.3 58.4-20.3 118.1 13.2-58.3 14.8-130.7-20.4-205.7-46.9-100.3-124-153-153.5-174.9-44.6-33.3-63.1-67.2-63.5-74.2-13.3 27.3-53.7 121-4.3 201.7 46.2 75.6 117.3 99.3 170 167.3 107.7 139-17.8 266.5-17.8 266.5z"/>
  </g>
</svg>
