<svg width="298" height="168" fill="none" xmlns="http://www.w3.org/2000/svg"><g clip-path="url(#a)"><rect x=".068" y=".66" width="297.58" height="166.825" rx="8.444" fill="#E7DFFF"/><g filter="url(#b)"><g clip-path="url(#c)"><path d="M32.068 36.887a4.228 4.228 0 0 1 4.227-4.227H298v100.733H36.295a4.227 4.227 0 0 1-4.227-4.227V36.887Z" fill="#fff"/><rect x="36.296" y="36.887" width="52.187" height="33.982" rx="4.227" fill="#F0F0F4"/><path fill-rule="evenodd" clip-rule="evenodd" d="M48.7 48.401a7.328 7.328 0 0 0-4.128 3.615 7.216 7.216 0 0 0-.635 1.833 7.31 7.31 0 0 0 .631 4.712 7.351 7.351 0 0 0 1.978 2.432 7.257 7.257 0 0 0 2.648 1.336c1.214.325 2.506.317 3.728.04a6.612 6.612 0 0 0 2.985-1.552c.881-.81 1.512-1.876 1.845-3.023.364-1.25.41-2.586.184-3.87H51.08v2.843h3.972a3.431 3.431 0 0 1-1.457 2.252 4.173 4.173 0 0 1-1.606.635 4.808 4.808 0 0 1-1.739-.004 4.314 4.314 0 0 1-1.621-.701 4.505 4.505 0 0 1-1.669-2.237 4.421 4.421 0 0 1 0-2.835c.22-.643.58-1.234 1.058-1.72a4.321 4.321 0 0 1 2.177-1.21 4.347 4.347 0 0 1 2.139.086 3.922 3.922 0 0 1 1.57.925l1.34-1.34c.235-.239.482-.47.709-.717a7.106 7.106 0 0 0-2.346-1.453 7.354 7.354 0 0 0-4.908-.047Z" fill="#fff"/><path fill-rule="evenodd" clip-rule="evenodd" d="M48.7 48.401a7.377 7.377 0 0 1 4.908.043c.87.321 1.664.823 2.346 1.453-.227.247-.474.478-.71.717l-1.339 1.34a3.967 3.967 0 0 0-1.57-.925 4.301 4.301 0 0 0-2.139-.086 4.354 4.354 0 0 0-2.177 1.21 4.519 4.519 0 0 0-1.058 1.72c-.795-.619-1.59-1.234-2.39-1.853a7.32 7.32 0 0 1 4.13-3.619Z" fill="#EA4335"/><path fill-rule="evenodd" clip-rule="evenodd" d="M43.941 53.845a7.27 7.27 0 0 1 .635-1.833c.795.62 1.59 1.234 2.389 1.853a4.395 4.395 0 0 0 0 2.836c-.795.619-1.59 1.237-2.385 1.852a7.249 7.249 0 0 1-.639-4.708Z" fill="#FBBC05"/><path fill-rule="evenodd" clip-rule="evenodd" d="M51.081 53.92h6.855a8.618 8.618 0 0 1-.184 3.87c-.333 1.147-.964 2.212-1.845 3.023l-2.315-1.797a3.432 3.432 0 0 0 1.457-2.253h-3.971c.003-.947.003-1.895.003-2.843Z" fill="#4285F4"/><path fill-rule="evenodd" clip-rule="evenodd" d="M44.572 58.557c.795-.615 1.59-1.234 2.385-1.852a4.527 4.527 0 0 0 1.669 2.236 4.34 4.34 0 0 0 1.621.701 4.718 4.718 0 0 0 1.74.004 4.17 4.17 0 0 0 1.605-.635c.772.6 1.543 1.2 2.315 1.798-.834.772-1.88 1.297-2.985 1.551-1.222.279-2.514.286-3.728-.039a7.199 7.199 0 0 1-2.648-1.335 7.335 7.335 0 0 1-1.974-2.429Z" fill="#34A853"/><path d="m74.215 58.61 4.146-4.145a.472.472 0 0 0-.336-.81.477.477 0 0 0-.336.14l-3.743 3.742-3.74-3.742a.475.475 0 0 0-.67.671l4.145 4.145h.534Z" fill="#000"/><path d="M103.749 61.603c-.995 0-1.875-.136-2.64-.41-.764-.27-1.406-.668-1.927-1.195-.52-.527-.914-1.173-1.18-1.937-.267-.764-.4-1.64-.4-2.625 0-.953.135-1.805.404-2.556a5.218 5.218 0 0 1 1.186-1.913 5.144 5.144 0 0 1 1.893-1.205c.745-.277 1.587-.415 2.527-.415.914 0 1.715.15 2.401.449a4.929 4.929 0 0 1 1.727 1.205 5.052 5.052 0 0 1 1.044 1.703 5.57 5.57 0 0 1 .351 1.952c0 .471-.022.95-.068 1.434-.045.484-.141.93-.288 1.337a2.174 2.174 0 0 1-.678.976c-.302.247-.712.37-1.229.37-.228 0-.479-.035-.752-.107a1.98 1.98 0 0 1-.727-.356.99.99 0 0 1-.375-.669h-.059a1.725 1.725 0 0 1-.99.942c-.257.1-.571.145-.942.132a2.542 2.542 0 0 1-1.117-.283 2.432 2.432 0 0 1-.81-.713 3.329 3.329 0 0 1-.488-1.049 4.947 4.947 0 0 1-.161-1.292c0-.44.065-.841.195-1.206.13-.364.311-.683.542-.956.234-.273.507-.491.819-.654a2.82 2.82 0 0 1 1.02-.307c.325-.033.621-.018.888.044.267.059.486.148.659.268.172.117.281.248.326.39h.059v-.546h1.034v4.41c0 .274.077.515.23.723.153.208.375.312.668.312.332 0 .586-.114.761-.341.179-.228.301-.58.366-1.054.068-.475.103-1.083.103-1.825 0-.436-.061-.865-.181-1.288a4.242 4.242 0 0 0-.537-1.195 3.896 3.896 0 0 0-.902-.981 4.176 4.176 0 0 0-1.283-.664c-.488-.162-1.043-.244-1.664-.244-.765 0-1.449.12-2.054.356a4.118 4.118 0 0 0-1.537 1.03c-.42.449-.74.995-.961 1.64-.218.64-.327 1.369-.327 2.185 0 .83.109 1.566.327 2.21.22.644.546 1.188.976 1.63a4.16 4.16 0 0 0 1.605 1.005c.637.23 1.372.346 2.205.346.358 0 .711-.034 1.059-.102.348-.068.655-.143.922-.224.267-.082.459-.142.576-.181l.273.898c-.202.084-.465.169-.791.253a9.8 9.8 0 0 1-1.034.21 6.957 6.957 0 0 1-1.044.083Zm-.566-3.884c.436 0 .789-.087 1.059-.263.27-.176.467-.44.59-.795.124-.355.186-.802.186-1.342 0-.546-.069-.973-.205-1.278-.137-.306-.339-.52-.605-.644-.267-.124-.596-.186-.986-.186-.371 0-.688.098-.951.293a1.838 1.838 0 0 0-.6.77 2.616 2.616 0 0 0-.205 1.045c0 .416.055.808.166 1.176.11.364.291.66.541.888.251.224.587.336 1.01.336Zm7.832 1.25v-9.993h1.152v3.689h.097a11 11 0 0 1 .351-.498c.153-.205.371-.387.654-.546.286-.163.673-.244 1.161-.244.631 0 1.188.157 1.669.473.481.316.857.763 1.127 1.342.27.579.405 1.262.405 2.049 0 .794-.135 1.481-.405 2.064-.27.579-.644 1.028-1.122 1.346-.478.316-1.03.474-1.654.474-.481 0-.867-.08-1.156-.24a2.139 2.139 0 0 1-.669-.55 7.565 7.565 0 0 1-.361-.518h-.136v1.151h-1.113Zm1.132-3.748c0 .566.083 1.066.249 1.498.166.43.408.766.727 1.01.319.24.709.361 1.171.361.481 0 .883-.127 1.205-.38.325-.257.569-.602.732-1.035.166-.435.249-.92.249-1.454 0-.526-.082-1.001-.244-1.424a2.208 2.208 0 0 0-.727-1.01c-.322-.25-.727-.376-1.215-.376-.469 0-.862.119-1.181.356-.319.234-.559.563-.722.986-.163.42-.244.909-.244 1.468Zm10.29 3.904c-.677 0-1.27-.161-1.781-.483a3.282 3.282 0 0 1-1.19-1.352c-.283-.579-.425-1.255-.425-2.03 0-.78.142-1.462.425-2.044a3.275 3.275 0 0 1 1.19-1.356c.511-.322 1.104-.483 1.781-.483.676 0 1.268.16 1.776.483.51.322.907.774 1.19 1.356.287.582.43 1.264.43 2.044 0 .775-.143 1.451-.43 2.03a3.24 3.24 0 0 1-1.19 1.352c-.508.322-1.1.483-1.776.483Zm0-1.035c.514 0 .937-.131 1.268-.395.332-.263.578-.61.737-1.04.159-.428.239-.894.239-1.395 0-.5-.08-.967-.239-1.4a2.356 2.356 0 0 0-.737-1.049c-.331-.267-.754-.4-1.268-.4s-.937.133-1.269.4a2.362 2.362 0 0 0-.736 1.05c-.16.432-.239.899-.239 1.4 0 .5.079.965.239 1.395.159.43.405.776.736 1.04.332.263.755.394 1.269.394Zm8.198 1.035c-.677 0-1.27-.161-1.781-.483a3.29 3.29 0 0 1-1.191-1.352c-.283-.579-.424-1.255-.424-2.03 0-.78.141-1.462.424-2.044a3.284 3.284 0 0 1 1.191-1.356c.511-.322 1.104-.483 1.781-.483.676 0 1.268.16 1.776.483.51.322.907.774 1.19 1.356.286.582.43 1.264.43 2.044 0 .775-.144 1.451-.43 2.03a3.24 3.24 0 0 1-1.19 1.352c-.508.322-1.1.483-1.776.483Zm0-1.035c.514 0 .937-.131 1.268-.395.332-.263.578-.61.737-1.04.159-.428.239-.894.239-1.395 0-.5-.08-.967-.239-1.4a2.356 2.356 0 0 0-.737-1.049c-.331-.267-.754-.4-1.268-.4s-.937.133-1.269.4a2.354 2.354 0 0 0-.736 1.05c-.16.432-.24.899-.24 1.4 0 .5.08.965.24 1.395.159.43.404.776.736 1.04.332.263.755.394 1.269.394Zm6.227-1.854-.02-1.424h.234l3.279-3.338h1.425l-3.494 3.533h-.097l-1.327 1.23Zm-1.074 2.733v-9.993h1.152v9.992h-1.152Zm4.762 0-2.927-3.709.819-.8 3.572 4.508h-1.464Zm2.712 0v-7.495h1.112v1.171h.098c.156-.4.408-.71.756-.932.348-.224.766-.336 1.254-.336.494 0 .906.112 1.234.336.332.222.591.532.776.932h.078c.192-.387.48-.694.864-.922.383-.23.844-.346 1.38-.346.67 0 1.218.21 1.645.63.426.416.639 1.064.639 1.946v5.015h-1.152v-5.015c0-.553-.151-.948-.453-1.186a1.681 1.681 0 0 0-1.069-.356c-.527 0-.935.16-1.225.478-.289.316-.434.716-.434 1.2v4.88h-1.171v-5.133c0-.426-.138-.77-.414-1.03-.277-.263-.633-.395-1.069-.395-.299 0-.579.08-.839.24-.257.159-.465.38-.625.663a1.96 1.96 0 0 0-.234.97v4.684h-1.151Zm14.146.175c-.475 0-.906-.09-1.293-.268a2.22 2.22 0 0 1-.922-.786c-.227-.345-.341-.76-.341-1.249 0-.43.084-.777.253-1.044a1.8 1.8 0 0 1 .679-.634c.283-.153.595-.267.936-.342.345-.078.692-.14 1.04-.185.455-.059.824-.103 1.107-.132.286-.032.495-.086.625-.16.133-.076.2-.206.2-.391v-.04c0-.48-.132-.855-.395-1.121-.261-.267-.656-.4-1.186-.4-.55 0-.981.12-1.293.36-.312.241-.532.498-.659.771l-1.093-.39c.196-.455.456-.81.781-1.063a2.927 2.927 0 0 1 1.073-.537 4.466 4.466 0 0 1 1.152-.156c.241 0 .517.029.829.088.316.055.62.17.913.346.296.176.541.44.736.795.196.355.293.83.293 1.425v4.938h-1.151v-1.015h-.059a2.027 2.027 0 0 1-.39.522 2.256 2.256 0 0 1-.727.473c-.303.13-.672.195-1.108.195Zm.176-1.034c.455 0 .839-.09 1.151-.268a1.83 1.83 0 0 0 .957-1.586v-1.054c-.049.059-.156.112-.322.16a5.48 5.48 0 0 1-.566.123 25.962 25.962 0 0 1-1.103.146 4.397 4.397 0 0 0-.839.19 1.452 1.452 0 0 0-.625.386c-.156.17-.234.4-.234.693 0 .4.148.702.444.907.299.202.678.303 1.137.303Zm5.361.858v-7.494h1.112v1.132h.078c.137-.37.384-.671.742-.902a2.183 2.183 0 0 1 1.21-.347c.084 0 .19.002.317.005s.223.008.288.015v1.17a3.497 3.497 0 0 0-.268-.043 2.66 2.66 0 0 0-.435-.034c-.364 0-.689.076-.976.229-.282.15-.507.358-.673.625a1.689 1.689 0 0 0-.244.902v4.742h-1.151Zm6.185-2.732-.019-1.424h.234l3.279-3.338h1.424l-3.493 3.533h-.098l-1.327 1.23Zm-1.073 2.733v-9.993h1.151v9.992h-1.151Zm4.762 0-2.928-3.709.82-.8 3.571 4.508h-1.463Zm8.02-5.816-1.035.293a1.918 1.918 0 0 0-.288-.503 1.387 1.387 0 0 0-.507-.41c-.215-.107-.49-.16-.825-.16-.458 0-.84.105-1.146.316-.303.208-.454.474-.454.795 0 .287.104.513.312.679.208.166.534.304.976.414l1.113.274c.67.162 1.169.411 1.497.746.329.332.493.76.493 1.283 0 .43-.123.813-.371 1.152-.244.338-.585.605-1.024.8-.439.195-.95.293-1.532.293-.765 0-1.397-.166-1.898-.498-.501-.332-.818-.816-.952-1.454l1.093-.273c.104.403.301.706.591.907.292.202.675.303 1.146.303.537 0 .963-.114 1.279-.342.318-.23.478-.507.478-.83a.869.869 0 0 0-.274-.653c-.182-.179-.461-.312-.839-.4l-1.249-.293c-.686-.162-1.19-.414-1.512-.756-.319-.345-.478-.776-.478-1.293 0-.423.118-.797.356-1.122.24-.325.567-.58.98-.766a3.446 3.446 0 0 1 1.415-.278c.742 0 1.324.162 1.747.488.426.325.729.754.908 1.288Zm3.548-7.397V62.19h-.976V45.756h.976Z" fill="#15141A"/><rect x="36.296" y="81.793" width="175" height="34" rx="4.227" fill="#F0F0F4"/><path d="m51.539 94.133-6.38.925-.113.023a1.002 1.002 0 0 0-.44 1.684l4.622 4.499-1.09 6.355-.013.11a.998.998 0 0 0 1.464.944l5.706-3 5.693 3 .1.046a.997.997 0 0 0 1.352-1.1l-1.091-6.355 4.624-4.5.078-.085a1 1 0 0 0-.633-1.62l-6.38-.926-2.852-5.78a1 1 0 0 0-1.794 0l-2.853 5.78Z" fill="#000"/><path d="M82.514 103.534c-.752 0-1.405-.116-1.96-.349-.55-.232-.983-.557-1.3-.972a2.665 2.665 0 0 1-.537-1.456l-.007-.094h1.677l.007.067c.027.273.134.51.322.711.192.201.447.36.765.476.317.112.68.168 1.086.168.39 0 .734-.06 1.034-.181.3-.121.534-.286.704-.497.17-.214.255-.46.255-.737v-.007c0-.349-.137-.633-.41-.852-.272-.224-.722-.403-1.348-.537l-1.04-.215c-.993-.21-1.715-.545-2.166-1.006-.448-.465-.671-1.058-.671-1.778v-.006c0-.577.152-1.083.456-1.517.308-.433.731-.771 1.268-1.012.54-.246 1.16-.37 1.858-.37.716 0 1.335.121 1.858.363.524.237.935.561 1.235.973.3.411.467.876.503 1.395l.007.087h-1.65l-.014-.08a1.26 1.26 0 0 0-.316-.665 1.69 1.69 0 0 0-.664-.456 2.591 2.591 0 0 0-.972-.167c-.354 0-.669.056-.946.167-.278.108-.497.26-.658.457a1.107 1.107 0 0 0-.235.71v.007c0 .34.132.622.396.846.269.223.705.398 1.308.523l1.04.221c.68.143 1.232.334 1.657.57.425.237.736.533.933.886.201.349.302.77.302 1.261v.007c0 .626-.155 1.167-.463 1.623-.304.457-.74.81-1.308 1.06-.564.251-1.233.376-2.006.376Zm8.687-.094c-.729 0-1.355-.154-1.878-.463a3.083 3.083 0 0 1-1.2-1.315c-.283-.568-.424-1.241-.424-2.019v-.007c0-.769.14-1.44.416-2.012a3.134 3.134 0 0 1 1.195-1.328c.514-.318 1.118-.477 1.81-.477.699 0 1.298.154 1.799.463a3.03 3.03 0 0 1 1.167 1.281c.273.55.41 1.195.41 1.933v.55h-5.958v-1.12h5.139l-.792 1.046v-.664c0-.488-.074-.893-.221-1.215a1.6 1.6 0 0 0-.617-.724 1.682 1.682 0 0 0-.906-.242c-.344 0-.65.085-.92.255a1.72 1.72 0 0 0-.63.738c-.152.322-.228.718-.228 1.188v.67c0 .452.076.839.228 1.161.152.318.367.564.644.738.282.17.615.255 1 .255.3 0 .557-.042.771-.127.22-.09.396-.195.53-.316.135-.125.228-.244.282-.355l.02-.047h1.584l-.014.06a2.44 2.44 0 0 1-.322.725 2.75 2.75 0 0 1-.624.677c-.26.206-.577.374-.952.503a4.117 4.117 0 0 1-1.309.188Zm6.964-.027c-.46 0-.874-.089-1.241-.268a2.113 2.113 0 0 1-.859-.758c-.206-.331-.308-.72-.308-1.167v-.014c0-.434.107-.807.322-1.12.214-.318.53-.566.946-.745.415-.179.92-.284 1.516-.315l2.71-.168v1.1l-2.476.161c-.47.027-.816.126-1.04.296-.223.17-.335.407-.335.711v.013c0 .313.119.557.356.731.241.175.548.262.919.262.335 0 .635-.067.899-.201a1.61 1.61 0 0 0 .624-.544c.152-.232.228-.494.228-.785v-2.32c0-.367-.117-.647-.349-.84-.233-.196-.577-.294-1.033-.294-.38 0-.691.067-.933.2a.993.993 0 0 0-.49.558l-.006.026h-1.577l.007-.06c.054-.411.215-.772.483-1.08.268-.309.624-.548 1.067-.718.442-.17.952-.255 1.53-.255.634 0 1.171.099 1.609.295.439.193.772.474 1 .846.228.366.342.807.342 1.321v5.012h-1.65v-1.007h-.114a2.251 2.251 0 0 1-1.248.993c-.273.09-.573.134-.899.134Zm5.917-.12V95.96h1.67v1.127h.114c.126-.394.349-.7.671-.919.327-.22.732-.329 1.215-.329.125 0 .248.01.369.027.125.014.228.031.308.054v1.496a3.103 3.103 0 0 0-.409-.067 3.195 3.195 0 0 0-.423-.027c-.371 0-.695.07-.972.208a1.508 1.508 0 0 0-.644.597 1.727 1.727 0 0 0-.229.906v4.26h-1.67Zm8.674.147c-.738 0-1.368-.152-1.892-.456a2.977 2.977 0 0 1-1.2-1.315c-.278-.572-.416-1.257-.416-2.053v-.013c0-.792.138-1.47.416-2.033a2.954 2.954 0 0 1 1.2-1.295c.524-.304 1.152-.456 1.886-.456.63 0 1.171.11 1.623.329.456.215.816.514 1.08.899.268.38.434.825.497 1.335v.027h-1.577l-.007-.02a1.524 1.524 0 0 0-.523-.88c-.268-.227-.631-.341-1.087-.341-.38 0-.706.096-.979.288-.269.192-.474.47-.617.832-.144.362-.215.8-.215 1.315v.013c0 .519.071.964.215 1.335.147.367.355.649.623.846.269.192.593.288.973.288.434 0 .783-.098 1.047-.295.268-.197.454-.488.557-.872l.013-.027 1.57-.007-.007.061c-.08.496-.255.932-.523 1.308a2.672 2.672 0 0 1-1.06.879c-.443.205-.975.308-1.597.308Zm4.851-.147v-10.17h1.67v3.964h.114c.175-.398.438-.709.792-.932.353-.224.794-.336 1.321-.336.546 0 1.007.108 1.382.322.376.21.66.519.852.926.197.407.295.901.295 1.483v4.743h-1.67v-4.354c0-.573-.121-1.002-.362-1.288-.237-.287-.609-.43-1.114-.43-.331 0-.617.074-.859.222a1.45 1.45 0 0 0-.556.624c-.13.268-.195.586-.195.952v4.274h-1.67Zm16.141.12c-.345 0-.66-.049-.946-.147a2.389 2.389 0 0 1-.758-.436 2.327 2.327 0 0 1-.524-.685h-.114v1.148h-1.67v-10.17h1.67v4.004h.114c.13-.263.304-.492.524-.684.219-.192.474-.34.764-.443.291-.107.604-.16.94-.16.617 0 1.149.154 1.596.462.452.304.801.74 1.047 1.308.246.564.369 1.235.369 2.013v.013c0 .77-.125 1.438-.376 2.006-.246.568-.595 1.007-1.046 1.315-.448.304-.978.456-1.59.456Zm-.524-1.408c.38 0 .707-.094.98-.282.273-.193.483-.465.63-.819.148-.353.222-.776.222-1.268v-.013c0-.492-.074-.915-.222-1.268-.147-.358-.357-.63-.63-.818a1.659 1.659 0 0 0-.98-.289c-.375 0-.702.096-.979.289a1.863 1.863 0 0 0-.644.818c-.148.353-.222.776-.222 1.268v.013c0 .488.074.911.222 1.268.152.354.364.626.637.819.277.188.606.282.986.282Zm8.373 1.435c-.729 0-1.358-.152-1.885-.456a3.102 3.102 0 0 1-1.221-1.315c-.282-.568-.423-1.248-.423-2.04v-.013c0-.782.143-1.458.429-2.026a3.065 3.065 0 0 1 1.215-1.315c.527-.304 1.156-.456 1.885-.456.729 0 1.355.152 1.878.456.528.304.935.74 1.221 1.309.286.568.429 1.245.429 2.032v.014c0 .791-.143 1.471-.429 2.039a3.062 3.062 0 0 1-1.214 1.315c-.523.304-1.152.456-1.885.456Zm0-1.355c.384 0 .711-.096.979-.288.273-.197.481-.477.624-.839.143-.367.215-.807.215-1.322v-.013c0-.519-.072-.96-.215-1.322-.143-.366-.351-.646-.624-.838-.268-.197-.595-.295-.979-.295-.385 0-.714.098-.987.295-.272.192-.48.472-.623.838-.144.363-.215.803-.215 1.322v.013c0 .515.071.955.215 1.322.143.367.348.646.617.839.273.192.604.288.993.288Zm8.372 1.355c-.729 0-1.357-.152-1.885-.456a3.102 3.102 0 0 1-1.221-1.315c-.282-.568-.423-1.248-.423-2.04v-.013c0-.782.143-1.458.43-2.026a3.063 3.063 0 0 1 1.214-1.315c.528-.304 1.156-.456 1.885-.456.729 0 1.355.152 1.878.456.528.304.935.74 1.221 1.309.287.568.43 1.245.43 2.032v.014c0 .791-.143 1.471-.43 2.039a3.056 3.056 0 0 1-1.214 1.315c-.523.304-1.151.456-1.885.456Zm0-1.355c.385 0 .711-.096.979-.288.273-.197.481-.477.624-.839.144-.367.215-.807.215-1.322v-.013c0-.519-.071-.96-.215-1.322-.143-.366-.351-.646-.624-.838-.268-.197-.594-.295-.979-.295s-.713.098-.986.295c-.273.192-.481.472-.624.838-.143.363-.215.803-.215 1.322v.013c0 .515.072.955.215 1.322.143.367.349.646.617.839.273.192.604.288.993.288Zm5.273 1.208v-10.17h1.67v10.17h-1.67Zm4.609 0-2.469-3.328 1.241-1.02 3.234 4.348h-2.006Zm-3.079-2.429-.061-1.892h.316l2.703-3.012h1.932l-3.186 3.348-.765.597-.939.959Zm6.373 2.429V95.96h1.67v1.14h.114c.157-.406.41-.722.758-.945.354-.224.772-.336 1.255-.336.331 0 .628.054.892.161.268.108.499.26.691.456.192.197.34.432.443.705h.121c.12-.264.288-.494.503-.691.219-.201.474-.356.765-.463.295-.112.612-.168.952-.168.492 0 .913.099 1.261.295.354.193.624.47.812.832.192.362.289.796.289 1.302v5.045H172v-4.636c0-.322-.049-.588-.147-.798a.987.987 0 0 0-.436-.477c-.197-.107-.445-.16-.745-.16-.291 0-.544.066-.758.2-.215.13-.383.307-.503.53a1.61 1.61 0 0 0-.175.759v4.582h-1.67v-4.757c0-.273-.054-.507-.161-.704a1.033 1.033 0 0 0-.456-.45 1.453 1.453 0 0 0-.705-.16c-.273 0-.519.07-.738.214-.214.139-.384.33-.51.577-.12.241-.181.514-.181.818v4.462h-1.67Zm14.49.12c-.46 0-.874-.089-1.241-.268a2.112 2.112 0 0 1-.858-.758c-.206-.331-.309-.72-.309-1.167v-.014c0-.434.107-.807.322-1.12.215-.318.53-.566.946-.745.416-.179.921-.284 1.516-.315l2.71-.168v1.1l-2.475.161c-.47.027-.816.126-1.04.296-.224.17-.335.407-.335.711v.013c0 .313.118.557.355.731.242.175.548.262.919.262.336 0 .635-.067.899-.201s.472-.316.624-.544c.152-.232.228-.494.228-.785v-2.32c0-.367-.116-.647-.349-.84-.232-.196-.577-.294-1.033-.294-.38 0-.691.067-.932.2a.992.992 0 0 0-.49.558l-.007.026h-1.576l.006-.06c.054-.411.215-.772.484-1.08.268-.309.623-.548 1.066-.718.443-.17.953-.255 1.53-.255.635 0 1.172.099 1.61.295.438.193.771.474.999.846.229.366.343.807.343 1.321v5.012h-1.651v-1.007h-.114a2.249 2.249 0 0 1-1.248.993 2.85 2.85 0 0 1-.899.134Zm5.917-.12V95.96h1.671v1.127h.114c.125-.394.349-.7.671-.919.326-.22.731-.329 1.214-.329.125 0 .248.01.369.027.125.014.228.031.309.054v1.496a3.145 3.145 0 0 0-.41-.067 3.191 3.191 0 0 0-.422-.027c-.371 0-.696.07-.973.208a1.514 1.514 0 0 0-.644.597 1.736 1.736 0 0 0-.228.906v4.26h-1.671Zm5.77 0v-10.17h1.67v10.17h-1.67Zm4.609 0-2.469-3.328 1.241-1.02 3.234 4.348h-2.006Zm-3.08-2.429-.06-1.892h.315l2.704-3.012h1.932l-3.187 3.348-.764.597-.94.959Zm8.849 2.576c-.622 0-1.158-.087-1.61-.261-.447-.179-.801-.425-1.06-.738a2.097 2.097 0 0 1-.463-1.101v-.013h1.657l.007.013c.089.255.257.463.503.624.246.161.577.242.993.242.277 0 .521-.038.731-.114.21-.081.376-.19.497-.329.12-.139.181-.3.181-.483v-.013a.665.665 0 0 0-.262-.537c-.174-.148-.463-.266-.865-.356l-1.188-.268c-.465-.103-.849-.246-1.154-.43a1.875 1.875 0 0 1-.684-.677 1.925 1.925 0 0 1-.221-.94v-.006c0-.443.123-.832.369-1.167.25-.336.597-.597 1.04-.785.442-.188.952-.282 1.529-.282.595 0 1.107.09 1.536.269.43.178.765.424 1.007.738.241.313.38.668.416 1.066v.014h-1.57l-.007-.02c-.063-.233-.212-.43-.449-.59-.233-.166-.546-.25-.94-.25-.246 0-.467.039-.664.115a1.084 1.084 0 0 0-.456.322.741.741 0 0 0-.161.476v.007c0 .143.036.268.107.376a.938.938 0 0 0 .356.281c.161.08.373.152.637.215l1.188.262c.72.16 1.252.4 1.596.718.345.317.517.744.517 1.281v.013c0 .465-.134.872-.403 1.221-.268.349-.637.622-1.107.819-.469.192-1.004.288-1.603.288Z" fill="#15141A"/></g></g><path stroke="#F0F0F4" stroke-width=".675" d="M33.854 75.733h263.472"/></g><defs><clipPath id="a"><rect x=".068" y=".66" width="297.58" height="166.825" rx="8.444" fill="#fff"/></clipPath><clipPath id="c"><path d="M32.068 36.887a4.228 4.228 0 0 1 4.227-4.227H298v100.733H36.295a4.227 4.227 0 0 1-4.227-4.227V36.887Z" fill="#fff"/></clipPath><filter id="b" x="-52.367" y="-47.554" width="434.802" height="269.604" filterUnits="userSpaceOnUse" color-interpolation-filters="sRGB"><feFlood flood-opacity="0" result="BackgroundImageFix"/><feColorMatrix in="SourceAlpha" values="0 0 0 0 0 0 0 0 0 0 0 0 0 0 0 0 0 0 127 0" result="hardAlpha"/><feOffset dy="4.222"/><feGaussianBlur stdDeviation="42.218"/><feComposite in2="hardAlpha" operator="out"/><feColorMatrix values="0 0 0 0 0.281306 0 0 0 0 0.281306 0 0 0 0 0.281306 0 0 0 0.15 0"/><feBlend in2="BackgroundImageFix" result="effect1_dropShadow_8282_19577"/><feBlend in="SourceGraphic" in2="effect1_dropShadow_8282_19577" result="shape"/></filter></defs></svg>