<svg width="299" height="168" fill="none" xmlns="http://www.w3.org/2000/svg"><g clip-path="url(#a)"><rect x=".758" y=".66" width="297.58" height="166.825" rx="8.444" fill="#ADD2FF"/><g filter="url(#b)"><g clip-path="url(#c)"><path d="M32.758 36.887a4.227 4.227 0 0 1 4.227-4.227h272.636v100.733H36.985a4.227 4.227 0 0 1-4.227-4.227V36.887Z" fill="#fff"/><rect x="36.985" y="36.887" width="52.187" height="33.982" rx="4.227" fill="#F0F0F4"/><path fill-rule="evenodd" clip-rule="evenodd" d="M49.39 48.401a7.327 7.327 0 0 0-4.129 3.615 7.208 7.208 0 0 0-.634 1.833 7.31 7.31 0 0 0 .63 4.712 7.351 7.351 0 0 0 1.978 2.432 7.257 7.257 0 0 0 2.648 1.336c1.214.325 2.507.317 3.729.04a6.611 6.611 0 0 0 2.984-1.552c.881-.81 1.512-1.876 1.845-3.023.364-1.25.411-2.586.184-3.87h-6.854v2.843h3.971a3.431 3.431 0 0 1-1.457 2.252 4.173 4.173 0 0 1-1.605.635 4.809 4.809 0 0 1-1.74-.004 4.314 4.314 0 0 1-1.621-.701 4.505 4.505 0 0 1-1.669-2.237 4.42 4.42 0 0 1 0-2.835 4.55 4.55 0 0 1 1.058-1.72 4.321 4.321 0 0 1 2.178-1.21 4.347 4.347 0 0 1 2.138.086 3.922 3.922 0 0 1 1.57.925l1.34-1.34c.235-.239.482-.47.71-.717a7.106 7.106 0 0 0-2.347-1.453 7.354 7.354 0 0 0-4.908-.047Z" fill="#fff"/><path fill-rule="evenodd" clip-rule="evenodd" d="M49.39 48.401a7.377 7.377 0 0 1 4.907.043 7.08 7.08 0 0 1 2.346 1.453c-.227.247-.474.478-.709.717l-1.34 1.34a3.967 3.967 0 0 0-1.57-.925 4.301 4.301 0 0 0-2.138-.086 4.353 4.353 0 0 0-2.178 1.21 4.52 4.52 0 0 0-1.058 1.72c-.795-.619-1.59-1.234-2.389-1.853a7.32 7.32 0 0 1 4.128-3.619Z" fill="#EA4335"/><path fill-rule="evenodd" clip-rule="evenodd" d="M44.63 53.845c.13-.634.341-1.253.635-1.833.795.62 1.59 1.234 2.39 1.853a4.395 4.395 0 0 0 0 2.836c-.796.619-1.59 1.237-2.386 1.852a7.249 7.249 0 0 1-.638-4.708Z" fill="#FBBC05"/><path fill-rule="evenodd" clip-rule="evenodd" d="M51.77 53.92h6.855a8.616 8.616 0 0 1-.184 3.87c-.333 1.147-.964 2.212-1.845 3.023-.771-.6-1.543-1.198-2.315-1.797a3.432 3.432 0 0 0 1.457-2.253h-3.971c.004-.947.004-1.895.004-2.843Z" fill="#4285F4"/><path fill-rule="evenodd" clip-rule="evenodd" d="M45.261 58.557c.795-.615 1.59-1.234 2.386-1.852a4.527 4.527 0 0 0 1.668 2.236 4.34 4.34 0 0 0 1.622.701 4.718 4.718 0 0 0 1.739.004 4.171 4.171 0 0 0 1.605-.635l2.315 1.798c-.834.772-1.88 1.297-2.984 1.551-1.222.279-2.515.286-3.73-.039a7.198 7.198 0 0 1-2.647-1.335 7.335 7.335 0 0 1-1.974-2.429Z" fill="#34A853"/><path d="m74.904 58.61 4.147-4.145a.472.472 0 0 0-.337-.81.476.476 0 0 0-.335.14l-3.743 3.742-3.74-3.742a.475.475 0 0 0-.671.671l4.145 4.145h.534Z" fill="#000"/><path d="m103.989 53.153-1.034.293a1.918 1.918 0 0 0-.288-.503 1.387 1.387 0 0 0-.507-.41c-.215-.107-.49-.16-.825-.16-.458 0-.841.105-1.146.316-.303.208-.454.474-.454.795 0 .287.104.513.312.679.208.166.534.304.976.414l1.112.274c.67.162 1.17.411 1.498.746.329.332.493.76.493 1.283 0 .43-.124.813-.371 1.152-.244.338-.585.605-1.024.8-.439.195-.95.293-1.532.293-.765 0-1.397-.166-1.898-.498-.501-.332-.818-.816-.952-1.454l1.093-.273c.104.403.301.706.591.907.292.202.675.303 1.146.303.537 0 .963-.114 1.278-.342.319-.23.479-.507.479-.83a.869.869 0 0 0-.274-.653c-.182-.179-.462-.312-.839-.4l-1.249-.293c-.686-.162-1.19-.414-1.512-.756-.32-.345-.478-.776-.478-1.293 0-.423.118-.797.356-1.122.24-.325.567-.58.98-.766a3.443 3.443 0 0 1 1.415-.278c.742 0 1.324.162 1.747.488.426.325.729.754.907 1.288Zm4.915 5.972c-.703 0-1.308-.166-1.815-.498a3.238 3.238 0 0 1-1.171-1.371c-.273-.582-.41-1.247-.41-1.995 0-.762.14-1.433.42-2.016a3.317 3.317 0 0 1 1.18-1.37c.508-.332 1.1-.498 1.776-.498.527 0 1.002.097 1.425.292.423.196.769.469 1.039.82.27.352.438.761.503 1.23h-1.152c-.088-.342-.283-.644-.585-.908-.299-.267-.703-.4-1.21-.4-.449 0-.843.117-1.181.351-.335.231-.597.558-.785.981-.186.42-.279.913-.279 1.478 0 .58.092 1.084.274 1.513.185.43.445.763.78 1a2.02 2.02 0 0 0 1.191.356c.299 0 .571-.052.815-.156a1.678 1.678 0 0 0 .98-1.151h1.152c-.065.442-.226.84-.483 1.195a2.706 2.706 0 0 1-1.01.84c-.417.204-.901.307-1.454.307Zm4.63-.157v-7.494h1.112v1.132h.078c.137-.37.384-.671.742-.902a2.183 2.183 0 0 1 1.21-.347c.085 0 .19.002.317.005s.223.008.288.015v1.17a3.406 3.406 0 0 0-.268-.043 2.657 2.657 0 0 0-.434-.034c-.365 0-.69.076-.976.229-.283.15-.508.358-.674.625a1.689 1.689 0 0 0-.244.902v4.742h-1.151Zm8.026.157c-.722 0-1.345-.16-1.869-.478a3.212 3.212 0 0 1-1.205-1.347c-.28-.58-.419-1.252-.419-2.02s.139-1.444.419-2.03a3.313 3.313 0 0 1 1.181-1.376c.507-.331 1.099-.497 1.776-.497.39 0 .776.065 1.156.195.381.13.727.341 1.039.634.313.29.562.673.747 1.152.185.478.278 1.067.278 1.766v.488h-5.777v-.996h4.606c0-.422-.085-.8-.254-1.132a1.912 1.912 0 0 0-.712-.785c-.306-.192-.667-.288-1.083-.288-.459 0-.856.114-1.191.342a2.253 2.253 0 0 0-.766.878 2.578 2.578 0 0 0-.268 1.161v.664c0 .566.098 1.045.293 1.439.198.39.473.688.824.893.352.202.76.302 1.225.302.302 0 .576-.042.82-.127.247-.087.46-.218.639-.39.179-.175.317-.394.415-.654l1.112.313a2.47 2.47 0 0 1-.59.995 2.879 2.879 0 0 1-1.025.663 3.802 3.802 0 0 1-1.371.235Zm7.997 0c-.722 0-1.345-.16-1.869-.478a3.212 3.212 0 0 1-1.205-1.347c-.28-.58-.42-1.252-.42-2.02s.14-1.444.42-2.03c.283-.588.676-1.047 1.181-1.376.507-.331 1.099-.497 1.776-.497.39 0 .775.065 1.156.195.38.13.727.341 1.039.634.312.29.561.673.747 1.152.185.478.278 1.067.278 1.766v.488h-5.777v-.996h4.606c0-.422-.085-.8-.254-1.132a1.912 1.912 0 0 0-.712-.785c-.306-.192-.667-.288-1.083-.288-.459 0-.856.114-1.191.342a2.245 2.245 0 0 0-.766.878 2.578 2.578 0 0 0-.268 1.161v.664c0 .566.097 1.045.292 1.439.199.39.474.688.825.893.351.202.76.302 1.225.302.302 0 .575-.042.819-.127a1.74 1.74 0 0 0 .639-.39c.179-.175.318-.394.415-.654l1.113.313a2.46 2.46 0 0 1-.591.995 2.875 2.875 0 0 1-1.024.663 3.802 3.802 0 0 1-1.371.235Zm6.006-4.665v4.508h-1.152v-7.494h1.113v1.171h.097c.176-.38.443-.686.8-.917.358-.234.82-.351 1.386-.351.507 0 .951.104 1.332.312.381.205.677.517.888.937.211.416.317.943.317 1.58v4.762h-1.151v-4.683c0-.59-.153-1.048-.459-1.376-.306-.332-.725-.498-1.259-.498-.367 0-.696.08-.985.24a1.7 1.7 0 0 0-.678.697c-.166.306-.249.676-.249 1.112Zm12.194-1.307-1.035.293a1.918 1.918 0 0 0-.288-.503 1.387 1.387 0 0 0-.507-.41c-.215-.107-.49-.16-.825-.16-.458 0-.84.105-1.146.316-.303.208-.454.474-.454.795 0 .287.104.513.312.679.209.166.534.304.976.414l1.113.274c.67.162 1.169.411 1.497.746.329.332.493.76.493 1.283 0 .43-.123.813-.371 1.152-.244.338-.585.605-1.024.8-.439.195-.95.293-1.532.293-.765 0-1.397-.166-1.898-.498-.501-.332-.818-.816-.952-1.454l1.093-.273c.104.403.301.706.591.907.292.202.675.303 1.146.303.537 0 .963-.114 1.279-.342.318-.23.478-.507.478-.83a.869.869 0 0 0-.274-.653c-.182-.179-.461-.312-.839-.4l-1.249-.293c-.686-.162-1.19-.414-1.512-.756-.319-.345-.478-.776-.478-1.293 0-.423.118-.797.356-1.122.24-.325.567-.58.98-.766a3.446 3.446 0 0 1 1.415-.278c.742 0 1.324.162 1.747.488.426.325.729.754.908 1.288Zm3.021 1.307v4.508h-1.152v-9.992h1.152v3.67h.097c.176-.388.44-.695.791-.923.354-.23.826-.346 1.415-.346.51 0 .958.102 1.342.307.383.202.681.512.892.932.215.416.322.947.322 1.59v4.762h-1.151v-4.683c0-.596-.155-1.056-.464-1.381-.305-.329-.73-.493-1.273-.493-.377 0-.716.08-1.015.24-.296.159-.53.391-.702.697-.17.306-.254.676-.254 1.112Zm10.01 4.665c-.676 0-1.27-.161-1.78-.483a3.277 3.277 0 0 1-1.191-1.352c-.283-.579-.424-1.255-.424-2.03 0-.78.141-1.462.424-2.044a3.27 3.27 0 0 1 1.191-1.356c.51-.322 1.104-.483 1.78-.483.677 0 1.269.16 1.776.483.511.322.908.774 1.191 1.356.286.582.429 1.264.429 2.044 0 .775-.143 1.451-.429 2.03a3.235 3.235 0 0 1-1.191 1.352c-.507.322-1.099.483-1.776.483Zm0-1.035c.514 0 .937-.131 1.269-.395.332-.263.577-.61.737-1.04.159-.428.239-.894.239-1.395 0-.5-.08-.967-.239-1.4a2.364 2.364 0 0 0-.737-1.049c-.332-.267-.755-.4-1.269-.4-.514 0-.936.133-1.268.4a2.364 2.364 0 0 0-.737 1.05c-.159.432-.239.899-.239 1.4 0 .5.08.965.239 1.395.16.43.405.776.737 1.04.332.263.754.394 1.268.394Zm8.413-6.616v.976h-3.884v-.976h3.884Zm-2.752-1.795h1.152v7.143c0 .325.047.569.141.732.098.159.221.266.371.322.153.052.314.078.483.078.127 0 .231-.007.312-.02l.195-.039.235 1.034c-.078.03-.187.059-.327.088-.14.033-.317.05-.532.05-.325 0-.644-.07-.956-.21a1.9 1.9 0 0 1-.771-.64c-.202-.286-.303-.647-.303-1.083v-7.455Zm6.323-3.923V62.19h-.975V45.756h.975Z" fill="#15141A"/><rect x="36.985" y="81.793" width="178.408" height="33.82" rx="4.227" fill="#F0F0F4"/><path d="M63.314 106.581h-16.21a1.442 1.442 0 0 1-1.44-1.441v-8.782a1.441 1.441 0 0 1 1.44-1.441h2.554a.48.48 0 0 0 .48-.436l.16-1.73a1.432 1.432 0 0 1 1.442-1.397h6.946a1.44 1.44 0 0 1 1.442 1.442l.157 1.687a.48.48 0 0 0 .48.436h2.554a1.441 1.441 0 0 1 1.442 1.441v8.782a1.44 1.44 0 0 1-1.447 1.439Zm-16.21-10.703a.48.48 0 0 0-.48.48v8.782a.482.482 0 0 0 .48.48h16.21a.48.48 0 0 0 .48-.48v-8.782a.48.48 0 0 0-.48-.48H60.76a1.44 1.44 0 0 1-1.436-1.309l-.16-1.73a.495.495 0 0 0-.48-.524h-6.948a.48.48 0 0 0-.48.48l-.162 1.774a1.441 1.441 0 0 1-1.436 1.309h-2.553Z" fill="#000"/><path d="M55.21 104.042a3.846 3.846 0 0 1-3.77-4.593 3.843 3.843 0 1 1 3.77 4.593Zm0-6.726a2.882 2.882 0 1 0 0 5.764 2.882 2.882 0 0 0 0-5.764Z" fill="#000"/><path d="M77.624 103.651v-8.225h-2.979V93.97h7.688v1.456h-2.978v8.225h-1.731Zm7.024.121c-.46 0-.874-.09-1.241-.269a2.107 2.107 0 0 1-.859-.758c-.206-.331-.308-.72-.308-1.167v-.014c0-.433.107-.807.322-1.12.214-.318.53-.566.945-.745.416-.178.922-.284 1.517-.315l2.71-.168v1.101l-2.476.161c-.47.026-.816.125-1.04.295-.223.17-.335.407-.335.711v.013c0 .313.119.557.356.732.241.174.548.261.919.261.335 0 .635-.067.899-.201s.472-.315.624-.543c.152-.233.228-.495.228-.785v-2.322c0-.366-.117-.646-.35-.838-.232-.197-.576-.295-1.032-.295-.38 0-.691.067-.933.2a.993.993 0 0 0-.49.558l-.006.027H82.52l.007-.06c.054-.412.215-.772.483-1.08.268-.31.624-.549 1.067-.719.442-.17.952-.255 1.53-.255.634 0 1.171.099 1.61.295.438.193.77.475.999.846.228.367.342.807.342 1.321v5.012h-1.65v-1.007h-.114a2.25 2.25 0 0 1-1.248.993c-.273.09-.573.135-.9.135Zm5.984-.121v-10.17h1.67v10.17h-1.67Zm4.609 0-2.469-3.328 1.241-1.02 3.234 4.348H95.24Zm-3.08-2.429-.06-1.892h.316l2.703-3.012h1.932l-3.186 3.348-.765.597-.94.959Zm9.111 2.576c-.729 0-1.355-.154-1.879-.463a3.08 3.08 0 0 1-1.2-1.314c-.282-.568-.423-1.242-.423-2.02v-.006c0-.77.139-1.44.416-2.013a3.134 3.134 0 0 1 1.194-1.328c.514-.318 1.118-.477 1.811-.477.698 0 1.297.155 1.798.463.506.304.895.731 1.168 1.282.272.55.409 1.194.409 1.932v.55h-5.957v-1.12h5.138l-.791 1.046v-.664c0-.488-.074-.892-.222-1.214a1.595 1.595 0 0 0-.617-.725 1.68 1.68 0 0 0-.905-.242c-.345 0-.651.085-.92.255a1.724 1.724 0 0 0-.63.738c-.152.322-.228.718-.228 1.188v.671c0 .451.076.838.228 1.16.152.318.367.564.644.738.282.17.615.255.999.255.3 0 .557-.042.772-.127.219-.09.396-.195.53-.316.134-.125.228-.243.282-.355l.02-.047h1.583l-.013.06a2.453 2.453 0 0 1-.322.725c-.152.241-.36.467-.624.677-.26.206-.577.374-.953.504a4.148 4.148 0 0 1-1.308.187Zm10.626-.026c-.46 0-.874-.09-1.241-.269a2.105 2.105 0 0 1-.858-.758c-.206-.331-.309-.72-.309-1.167v-.014c0-.433.107-.807.322-1.12.215-.318.53-.566.946-.745.416-.178.921-.284 1.516-.315l2.71-.168v1.101l-2.475.161c-.47.026-.816.125-1.04.295-.224.17-.335.407-.335.711v.013c0 .313.118.557.355.732.242.174.548.261.919.261.336 0 .635-.067.899-.201s.472-.315.624-.543c.152-.233.228-.495.228-.785v-2.322c0-.366-.116-.646-.349-.838-.232-.197-.577-.295-1.033-.295-.38 0-.691.067-.932.2a.992.992 0 0 0-.49.558l-.007.027h-1.576l.006-.06a2.01 2.01 0 0 1 .483-1.08c.269-.31.624-.549 1.067-.719.443-.17.953-.255 1.53-.255.635 0 1.172.099 1.61.295.438.193.771.475.999.846.228.367.343.807.343 1.321v5.012h-1.651v-1.007h-.114a2.249 2.249 0 0 1-1.248.993 2.85 2.85 0 0 1-.899.135Zm12.351.026c-.622 0-1.158-.087-1.61-.261-.447-.179-.801-.425-1.06-.738a2.097 2.097 0 0 1-.463-1.1v-.014h1.657l.007.014c.089.254.257.462.503.623.246.161.577.242.993.242.277 0 .521-.038.731-.114.21-.081.376-.19.497-.329a.714.714 0 0 0 .181-.483v-.013a.668.668 0 0 0-.262-.537c-.174-.148-.463-.266-.865-.355l-1.188-.269c-.465-.103-.85-.246-1.154-.429a1.877 1.877 0 0 1-.684-.678 1.913 1.913 0 0 1-.221-.939v-.007c0-.442.123-.832.369-1.167.25-.335.597-.597 1.039-.785.443-.188.953-.282 1.53-.282.595 0 1.107.09 1.536.269.43.179.765.425 1.007.738.241.313.38.668.415 1.066v.014h-1.569l-.007-.02c-.063-.233-.212-.43-.45-.59-.232-.166-.545-.249-.939-.249a1.83 1.83 0 0 0-.664.114 1.084 1.084 0 0 0-.456.322.741.741 0 0 0-.161.476v.007c0 .143.036.268.107.376a.939.939 0 0 0 .356.281c.161.081.373.153.637.215l1.188.262c.72.16 1.252.4 1.596.718.345.317.517.744.517 1.281v.013c0 .466-.134.873-.403 1.221-.268.349-.637.622-1.107.819-.469.192-1.004.288-1.603.288Zm7.943 0c-.738 0-1.369-.152-1.892-.456a2.985 2.985 0 0 1-1.201-1.315c-.277-.572-.416-1.256-.416-2.053v-.013c0-.792.139-1.47.416-2.033a2.963 2.963 0 0 1 1.201-1.294c.523-.305 1.152-.457 1.885-.457.631 0 1.172.11 1.624.33.456.214.816.513 1.08.898.268.38.434.825.496 1.335v.027h-1.576l-.007-.02a1.524 1.524 0 0 0-.523-.88c-.269-.227-.631-.341-1.087-.341-.38 0-.707.096-.979.288-.269.193-.475.47-.618.832-.143.362-.214.8-.214 1.315v.013c0 .519.071.964.214 1.335.148.367.356.649.624.846.269.192.593.288.973.288.434 0 .783-.098 1.047-.295.268-.197.454-.487.556-.872l.014-.027 1.57-.007-.007.061a3.071 3.071 0 0 1-.523 1.308 2.663 2.663 0 0 1-1.06.879c-.443.205-.975.308-1.597.308Zm4.783-.147v-7.333h1.671v1.127h.114c.125-.393.349-.7.671-.919.326-.219.731-.328 1.214-.328.125 0 .248.008.369.026.125.014.228.032.308.054v1.496a3.103 3.103 0 0 0-.409-.067 3.191 3.191 0 0 0-.422-.027c-.372 0-.696.07-.973.208a1.514 1.514 0 0 0-.644.597 1.736 1.736 0 0 0-.228.906v4.26h-1.671Zm8.668.147c-.729 0-1.355-.154-1.879-.463a3.078 3.078 0 0 1-1.2-1.314c-.282-.568-.423-1.242-.423-2.02v-.006c0-.77.139-1.44.416-2.013a3.137 3.137 0 0 1 1.194-1.328c.514-.318 1.118-.477 1.811-.477.698 0 1.297.155 1.798.463.506.304.895.731 1.168 1.282.272.55.409 1.194.409 1.932v.55h-5.958v-1.12h5.139l-.791 1.046v-.664c0-.488-.074-.892-.222-1.214a1.595 1.595 0 0 0-.617-.725 1.68 1.68 0 0 0-.906-.242c-.344 0-.65.085-.919.255a1.713 1.713 0 0 0-.63.738c-.152.322-.228.718-.228 1.188v.671c0 .451.076.838.228 1.16.152.318.366.564.644.738.282.17.615.255.999.255.3 0 .557-.042.772-.127.219-.09.396-.195.53-.316.134-.125.228-.243.282-.355l.02-.047h1.583l-.013.06a2.479 2.479 0 0 1-.322.725c-.153.241-.36.467-.624.677-.26.206-.577.374-.953.504a4.148 4.148 0 0 1-1.308.187Zm8.104 0c-.729 0-1.355-.154-1.879-.463a3.078 3.078 0 0 1-1.2-1.314c-.282-.568-.423-1.242-.423-2.02v-.006c0-.77.139-1.44.416-2.013a3.137 3.137 0 0 1 1.194-1.328c.514-.318 1.118-.477 1.811-.477.698 0 1.297.155 1.798.463.506.304.895.731 1.168 1.282.272.55.409 1.194.409 1.932v.55h-5.957v-1.12h5.138l-.791 1.046v-.664c0-.488-.074-.892-.222-1.214a1.595 1.595 0 0 0-.617-.725 1.68 1.68 0 0 0-.906-.242c-.344 0-.65.085-.919.255a1.72 1.72 0 0 0-.63.738c-.152.322-.228.718-.228 1.188v.671c0 .451.076.838.228 1.16.152.318.367.564.644.738.282.17.615.255.999.255.3 0 .557-.042.772-.127.219-.09.396-.195.53-.316.134-.125.228-.243.282-.355l.02-.047h1.583l-.013.06a2.479 2.479 0 0 1-.322.725c-.153.241-.36.467-.624.677-.26.206-.577.374-.953.504a4.148 4.148 0 0 1-1.308.187Zm4.964-.147v-7.333h1.671v1.127h.114c.174-.398.438-.709.791-.932.354-.224.794-.336 1.322-.336.818 0 1.445.237 1.878.711.434.474.651 1.148.651 2.02v4.743h-1.67v-4.354c0-.573-.121-1.002-.363-1.288-.237-.286-.608-.43-1.113-.43-.331 0-.617.074-.859.222a1.46 1.46 0 0 0-.557.624 2.179 2.179 0 0 0-.194.952v4.274h-1.671Zm11.17.147c-.622 0-1.158-.087-1.61-.261-.447-.179-.801-.425-1.06-.738a2.097 2.097 0 0 1-.463-1.1v-.014h1.657l.007.014c.089.254.257.462.503.623.246.161.577.242.993.242.277 0 .521-.038.731-.114.21-.081.376-.19.497-.329a.714.714 0 0 0 .181-.483v-.013a.665.665 0 0 0-.262-.537c-.174-.148-.463-.266-.865-.355l-1.188-.269c-.465-.103-.849-.246-1.154-.429a1.877 1.877 0 0 1-.684-.678 1.924 1.924 0 0 1-.221-.939v-.007c0-.442.123-.832.369-1.167.25-.335.597-.597 1.04-.785.442-.188.952-.282 1.529-.282.595 0 1.107.09 1.536.269.43.179.765.425 1.007.738.241.313.38.668.416 1.066v.014h-1.57l-.007-.02c-.063-.233-.212-.43-.449-.59-.233-.166-.546-.249-.94-.249a1.83 1.83 0 0 0-.664.114 1.084 1.084 0 0 0-.456.322.741.741 0 0 0-.161.476v.007c0 .143.036.268.107.376a.939.939 0 0 0 .356.281c.161.081.373.153.637.215l1.188.262c.72.16 1.252.4 1.596.718.345.317.517.744.517 1.281v.013c0 .466-.134.873-.403 1.221-.268.349-.637.622-1.107.819-.469.192-1.004.288-1.603.288Zm4.864-.147v-10.17h1.67v3.964h.114c.175-.398.439-.709.792-.932.353-.224.794-.336 1.322-.336.545 0 1.006.108 1.382.322.375.21.659.52.852.926.196.407.295.901.295 1.483v4.743h-1.671v-4.354c0-.573-.12-1.002-.362-1.288-.237-.286-.608-.43-1.114-.43a1.61 1.61 0 0 0-.858.222 1.453 1.453 0 0 0-.557.624c-.13.268-.195.586-.195.952v4.274h-1.67Zm11.566.147c-.729 0-1.358-.152-1.886-.456a3.108 3.108 0 0 1-1.221-1.315c-.281-.568-.422-1.248-.422-2.04v-.013c0-.782.143-1.458.429-2.026a3.064 3.064 0 0 1 1.214-1.314c.528-.305 1.157-.457 1.886-.457.729 0 1.355.152 1.878.456.528.305.935.74 1.221 1.309.286.568.429 1.245.429 2.032v.014c0 .791-.143 1.471-.429 2.039a3.062 3.062 0 0 1-1.214 1.315c-.524.304-1.152.456-1.885.456Zm0-1.355c.384 0 .711-.096.979-.288.273-.197.481-.477.624-.839.143-.367.215-.807.215-1.321v-.014c0-.519-.072-.96-.215-1.322-.143-.366-.351-.646-.624-.838-.268-.197-.595-.295-.979-.295-.385 0-.714.098-.987.295-.272.192-.48.472-.624.838-.143.363-.214.803-.214 1.322v.014c0 .514.071.954.214 1.321.144.367.349.646.618.839.272.192.603.288.993.288Zm8.09 1.241c-.841 0-1.447-.154-1.818-.463-.371-.308-.557-.814-.557-1.516v-4.092h-1.14v-1.295h1.14V94.52h1.698v1.798h1.543v1.295h-1.543v3.696c0 .363.076.629.228.799.156.165.407.248.751.248.121 0 .219-.002.295-.007l.269-.027v1.289a4.922 4.922 0 0 1-.866.073Z" fill="#15141A"/></g></g><path stroke="#F0F0F4" stroke-width=".675" d="M34.953 75.733h274.302"/></g><defs><clipPath id="a"><rect x=".758" y=".66" width="297.58" height="166.825" rx="8.444" fill="#fff"/></clipPath><clipPath id="c"><path d="M32.758 36.887a4.227 4.227 0 0 1 4.227-4.227h272.636v100.733H36.985a4.227 4.227 0 0 1-4.227-4.227V36.887Z" fill="#fff"/></clipPath><filter id="b" x="-51.677" y="-47.554" width="445.734" height="269.604" filterUnits="userSpaceOnUse" color-interpolation-filters="sRGB"><feFlood flood-opacity="0" result="BackgroundImageFix"/><feColorMatrix in="SourceAlpha" values="0 0 0 0 0 0 0 0 0 0 0 0 0 0 0 0 0 0 127 0" result="hardAlpha"/><feOffset dy="4.222"/><feGaussianBlur stdDeviation="42.218"/><feComposite in2="hardAlpha" operator="out"/><feColorMatrix values="0 0 0 0 0.281306 0 0 0 0 0.281306 0 0 0 0 0.281306 0 0 0 0.15 0"/><feBlend in2="BackgroundImageFix" result="effect1_dropShadow_8282_19505"/><feBlend in="SourceGraphic" in2="effect1_dropShadow_8282_19505" result="shape"/></filter></defs></svg>