<svg width="137" height="107" fill="none" xmlns="http://www.w3.org/2000/svg"><path d="M59.62 56.98H11.86a1.58 1.58 0 0 0-1.578 1.58V95.02c0 .873.707 1.58 1.578 1.58H59.62a1.58 1.58 0 0 0 1.578-1.58V58.56a1.58 1.58 0 0 0-1.578-1.58Z" fill="#C3C5FF"/><path d="M31.477 3.378a.292.292 0 0 1-.293-.293V.437a.293.293 0 0 1 .583 0v2.648a.292.292 0 0 1-.29.293Z" fill="#000"/><path fill-rule="evenodd" clip-rule="evenodd" d="M31.476.333a.126.126 0 0 0-.126.112v2.64a.127.127 0 0 0 .078.117.127.127 0 0 0 .096 0 .124.124 0 0 0 .077-.116V.445a.127.127 0 0 0-.125-.112Zm-.312-.21a.458.458 0 0 1 .769.301v2.66" fill="#000"/><path d="M33.096 1.76a.292.292 0 0 1-.29.294H30.16a.292.292 0 0 1 0-.584h2.645a.29.29 0 0 1 .29.29Z" fill="#000"/><path fill-rule="evenodd" clip-rule="evenodd" d="M30.155 1.303h2.65a.457.457 0 0 1 .458.457m-3.095-.124a.126.126 0 0 0 0 .251h2.638a.124.124 0 0 0 .124-.125V1.76a.125.125 0 0 0-.124-.125h-2.638ZM48.781 103.921a.969.969 0 1 0 0 1.938.969.969 0 0 0 0-1.938Zm-1.633.969a1.634 1.634 0 1 1 3.268-.002 1.634 1.634 0 0 1-3.268.002ZM2.043 80.404a.97.97 0 1 0 0 1.938.97.97 0 0 0 0-1.938Zm-1.633.97a1.634 1.634 0 1 1 3.268-.002 1.634 1.634 0 0 1-3.268.002Z" fill="#000"/><path d="M110.447 18.611H16.86v16.855h93.587V18.611Z" fill="#C3C5FF" style="mix-blend-mode:multiply"/><path d="M17.36 90.023V35.85h92.587v54.173H17.36Z" fill="#fff" stroke="#111"/><path fill-rule="evenodd" clip-rule="evenodd" d="M24.8 25.577a1.664 1.664 0 1 0 .002 3.328 1.664 1.664 0 0 0-.002-3.328Zm-2.328 1.665a2.329 2.329 0 1 1 4.655 0 2.329 2.329 0 0 1-2.327 2.33 2.329 2.329 0 0 1-2.328-2.33ZM33.743 25.454a1.664 1.664 0 1 0 .002 3.328 1.664 1.664 0 0 0-.002-3.328Zm-2.328 1.665a2.329 2.329 0 0 1 2.328-2.33 2.329 2.329 0 0 1 2.327 2.33 2.329 2.329 0 0 1-2.327 2.33 2.329 2.329 0 0 1-2.328-2.33ZM42.687 25.454a1.664 1.664 0 1 0 .002 3.328 1.664 1.664 0 0 0-.002-3.328Zm-2.327 1.665a2.329 2.329 0 0 1 2.327-2.33 2.329 2.329 0 0 1 2.328 2.33 2.329 2.329 0 0 1-2.328 2.33 2.329 2.329 0 0 1-2.327-2.33Z" fill="#000"/><path d="M85.605 71.126v-8.038c0-2.963 1.175-5.805 3.268-7.9a11.153 11.153 0 0 1 15.782 0 11.177 11.177 0 0 1 3.268 7.9v8.038h6.327V63.6c0-4.642-1.843-9.095-5.122-12.378a17.475 17.475 0 0 0-24.728 0A17.516 17.516 0 0 0 79.278 63.6v7.526h6.327Z" fill="#fff" stroke="#111" stroke-linejoin="round"/><path d="M115.039 71.01h-36.55a2.814 2.814 0 0 0-2.812 2.816v26.653a2.814 2.814 0 0 0 2.812 2.816h36.55a2.814 2.814 0 0 0 2.813-2.816V73.826a2.815 2.815 0 0 0-2.813-2.816Z" fill="#AD79FF" stroke="#111" stroke-miterlimit="10"/><path d="M101.328 84.667a4.569 4.569 0 0 1-2.13 3.865v3.24a2.438 2.438 0 0 1-2.434 2.437 2.432 2.432 0 0 1-2.434-2.437v-3.24a4.566 4.566 0 0 1-2.128-3.998 4.572 4.572 0 0 1 2.357-3.867 4.56 4.56 0 0 1 6.168 1.735c.394.69.601 1.47.601 2.265Z" fill="#fff" stroke="#111" stroke-linejoin="round"/><path d="M47.078 56.343a1.947 1.947 0 0 0-2.658-.713l-4.274 2.472v-4.944a1.952 1.952 0 0 0-1.948-1.894 1.948 1.948 0 0 0-1.948 1.894v4.944l-4.275-2.472a1.946 1.946 0 0 0-2.855 2.194 1.953 1.953 0 0 0 .908 1.184l4.273 2.472-4.275 2.471a1.949 1.949 0 0 0-.712 2.665 1.95 1.95 0 0 0 2.661.713l4.276-2.471v4.941a1.954 1.954 0 0 0 1.19 1.854 1.946 1.946 0 0 0 2.575-1.09c.094-.243.139-.503.131-.764v-4.941l4.275 2.471a1.947 1.947 0 0 0 2.624-.735 1.953 1.953 0 0 0-.675-2.643l-4.277-2.471 4.277-2.472a1.95 1.95 0 0 0 .707-2.665ZM72.013 56.343a1.948 1.948 0 0 0-2.658-.713l-4.274 2.472v-4.944a1.953 1.953 0 0 0-1.948-1.894 1.948 1.948 0 0 0-1.948 1.894v4.944l-4.277-2.472a1.946 1.946 0 0 0-2.7.691 1.953 1.953 0 0 0 .752 2.687l4.276 2.472-4.276 2.471a1.95 1.95 0 0 0 1.948 3.378l4.277-2.471v4.941a1.954 1.954 0 0 0 1.189 1.854 1.945 1.945 0 0 0 2.575-1.09c.094-.243.14-.503.132-.764v-4.941l4.274 2.471a1.947 1.947 0 0 0 2.624-.735 1.954 1.954 0 0 0-.675-2.643L67.03 61.48l4.27-2.472a1.951 1.951 0 0 0 .714-2.665Z" fill="#6F4AE7"/><path stroke="#000" stroke-width="1.5" stroke-linecap="round" d="m123.81 59.716 4.959-4.959M128.505 67.278l6.67-2.167M123.81 83.73l4.959 4.96M128.506 76.169l6.67 2.167"/></svg>