<svg width="200" height="125" xmlns="http://www.w3.org/2000/svg"><path fill="#cdd0ff" d="M98.868 97.706c19.437 0 35.194-15.757 35.194-35.194 0-19.437-15.757-35.194-35.194-35.194-19.437 0-35.194 15.757-35.194 35.194 0 19.437 15.757 35.194 35.194 35.194Z"/><path fill="none" stroke="#000" stroke-width="1.5" stroke-linecap="round" stroke-linejoin="round" d="M126.59 21.656a1.505 1.505 0 1 0 0-3.01 1.505 1.505 0 0 0 0 3.01ZM58.2 107.88a1.505 1.505 0 1 0 0-3.01 1.505 1.505 0 0 0 0 3.01ZM56.157 44.414h3.611M57.963 46.22v-3.612M140.152 30.56h3.611M141.958 32.367v-3.612M100.393 97.706c1.61 0 3.218-.114 4.812-.341"/><path fill="none" stroke="#000" stroke-width="1.5" stroke-linecap="round" stroke-linejoin="round" d="M134.062 64.036c0-18.595-15.074-33.67-33.67-33.67-18.594 0-33.669 15.075-33.669 33.67 0 18.596 15.075 33.67 33.67 33.67"/><path fill="none" stroke="#000" stroke-width="1.5" stroke-linecap="round" stroke-linejoin="round" d="M140.621 73.731a41.486 41.486 0 0 0 1.143-9.695c0-22.848-18.523-41.37-41.371-41.37-22.848 0-41.37 18.522-41.37 41.37 0 22.849 18.522 41.37 41.37 41.37a41.327 41.327 0 0 0 13.129-2.126"/><path fill="none" stroke="#000" stroke-width="1.5" stroke-linecap="round" stroke-linejoin="round" d="M100 75.674a12.337 12.337 0 1 1 12.037-11.55"/><path fill="none" stroke="#000" stroke-width="1.5" stroke-linecap="round" stroke-linejoin="round" d="M96.108 70.18a7.734 7.734 0 1 1 11.352-7.098"/><path fill="#bc94ff" stroke="#000" stroke-width="1.5" stroke-linecap="round" stroke-linejoin="round" d="m124.736 66.418-.23.162c-1.376.968-1.367 2.614-.4 3.99l2.308 3.266-.009.004-3.67-5.215a3.069 3.069 0 0 0-4.263-.74c-1.376.967-1.865 2.985-.897 4.361l3.093 4.414h0l-4.573-6.496a3.068 3.068 0 0 0-4.262-.741c-1.376.968-1.844 3.027-.876 4.403l3.979 5.652-.006.003-12.095-17.186a3.068 3.068 0 0 0-4.262-.741 3.068 3.068 0 0 0-.742 4.262l12.786 18.169 4.128 5.866-5.218-3.708a3.142 3.142 0 0 0-4.368.74 3.142 3.142 0 0 0 .739 4.368s10.984 7.879 11.636 8.269a14.809 14.809 0 0 0 22.28-14.789 14.787 14.787 0 0 0-2.552-6.435l-5.674-8.064c-3.113-4.423-5.386-4.662-6.852-3.814Z"/></svg>