<svg width="90" height="92" fill="none" xmlns="http://www.w3.org/2000/svg"><path d="M43.868 80.706c19.437 0 35.194-15.757 35.194-35.194 0-19.437-15.757-35.194-35.194-35.194-19.437 0-35.194 15.757-35.194 35.194 0 19.437 15.757 35.194 35.194 35.194Z" fill="#CDD0FF"/><path d="M71.59 4.656a1.505 1.505 0 1 0 0-3.01 1.505 1.505 0 0 0 0 3.01ZM3.2 90.88a1.505 1.505 0 1 0 0-3.01 1.505 1.505 0 0 0 0 3.01Z" stroke="#000" stroke-width="1.5" stroke-miterlimit="10"/><path d="M1.157 27.414h3.611M2.963 29.22v-3.612M85.152 13.56h3.611M86.958 15.367v-3.612M45.393 80.706c1.61 0 3.218-.114 4.812-.341M79.062 47.036c0-18.595-15.074-33.67-33.67-33.67-18.595 0-33.669 15.075-33.669 33.67 0 18.596 15.075 33.67 33.67 33.67" stroke="#000" stroke-width="1.5" stroke-linecap="round" stroke-linejoin="round"/><path d="M85.621 56.731a41.487 41.487 0 0 0 1.143-9.695c0-22.848-18.523-41.37-41.371-41.37-22.848 0-41.37 18.522-41.37 41.37 0 22.849 18.522 41.37 41.37 41.37a41.327 41.327 0 0 0 13.129-2.126" stroke="#000" stroke-width="1.5" stroke-linecap="round" stroke-linejoin="round"/><path d="M45 58.674a12.337 12.337 0 1 1 12.037-11.55" stroke="#000" stroke-width="1.5" stroke-linecap="round" stroke-linejoin="round"/><path d="M41.108 53.18a7.734 7.734 0 1 1 11.352-7.098" stroke="#000" stroke-width="1.5" stroke-linecap="round" stroke-linejoin="round"/><path d="m69.736 49.418-.23.162c-1.376.968-1.367 2.614-.4 3.99l2.308 3.266-.009.004-3.67-5.215a3.069 3.069 0 0 0-4.263-.74c-1.376.967-1.865 2.985-.897 4.361l3.093 4.414h0l-4.573-6.496a3.068 3.068 0 0 0-4.262-.741c-1.376.968-1.844 3.027-.876 4.403l3.979 5.652-.006.003-12.095-17.186a3.068 3.068 0 0 0-4.262-.742 3.068 3.068 0 0 0-.742 4.263l12.786 18.169 4.128 5.866-5.217-3.708a3.142 3.142 0 0 0-4.37.74 3.142 3.142 0 0 0 .74 4.368s10.984 7.879 11.636 8.269a14.809 14.809 0 0 0 22.28-14.789 14.787 14.787 0 0 0-2.552-6.435l-5.674-8.064c-3.113-4.423-5.386-4.662-6.852-3.814Z" fill="#BC94FF" stroke="#000" stroke-width="1.5" stroke-linecap="round" stroke-linejoin="round"/></svg>