<?xml version="1.0" encoding="utf-8"?>
<!-- Generator: Adobe Illustrator 16.0.0, SVG Export Plug-In . SVG Version: 6.00 Build 0)  -->
<!DOCTYPE svg PUBLIC "-//W3C//DTD SVG 1.1//EN" "http://www.w3.org/Graphics/SVG/1.1/DTD/svg11.dtd">
<svg version="1.1" id="EE_Download_on_the_App_Store"
	 xmlns="http://www.w3.org/2000/svg" xmlns:xlink="http://www.w3.org/1999/xlink" x="0px" y="0px" width="135px" height="40px"
	 viewBox="0 0 135 40" enable-background="new 0 0 135 40" xml:space="preserve">
<g>
	<path fill="#A6A6A6" d="M130.197,40H4.729C2.122,40,0,37.872,0,35.267V4.726C0,2.12,2.122,0,4.729,0h125.468
		C132.803,0,135,2.12,135,4.726v30.541C135,37.872,132.803,40,130.197,40L130.197,40z"/>
	<path d="M134.032,35.268c0,2.116-1.714,3.83-3.834,3.83H4.729c-2.119,0-3.839-1.714-3.839-3.83V4.725
		c0-2.115,1.72-3.835,3.839-3.835h125.468c2.121,0,3.834,1.72,3.834,3.835L134.032,35.268L134.032,35.268z"/>
	<g>
		<g>
			<path fill="#FFFFFF" d="M30.128,19.784c-0.029-3.223,2.639-4.791,2.761-4.864c-1.511-2.203-3.853-2.504-4.676-2.528
				c-1.967-0.207-3.875,1.177-4.877,1.177c-1.022,0-2.565-1.157-4.228-1.123c-2.14,0.033-4.142,1.272-5.24,3.196
				c-2.266,3.923-0.576,9.688,1.595,12.859c1.086,1.553,2.355,3.287,4.016,3.226c1.625-0.067,2.232-1.036,4.193-1.036
				c1.943,0,2.513,1.036,4.207,0.997c1.744-0.028,2.842-1.56,3.89-3.127c1.255-1.78,1.759-3.533,1.779-3.623
				C33.507,24.924,30.161,23.647,30.128,19.784z"/>
			<path fill="#FFFFFF" d="M26.928,10.306c0.874-1.093,1.472-2.58,1.306-4.089c-1.265,0.056-2.847,0.875-3.758,1.944
				c-0.806,0.942-1.526,2.486-1.34,3.938C24.557,12.205,26.016,11.382,26.928,10.306z"/>
		</g>
	</g>
	<g>
		<path fill="#FFFFFF" d="M51.191,30.648h-1.744l-0.956-3.003H45.17l-0.91,3.003h-1.699l3.291-10.222h2.033L51.191,30.648z
			 M48.203,26.387l-0.865-2.669c-0.091-0.273-0.263-0.915-0.516-1.927h-0.03c-0.101,0.436-0.263,1.077-0.485,1.927l-0.849,2.669
			H48.203z"/>
		<path fill="#FFFFFF" d="M59.653,26.872c0,1.254-0.339,2.244-1.016,2.973c-0.606,0.647-1.36,0.971-2.26,0.971
			c-0.971,0-1.668-0.349-2.093-1.047h-0.03v3.883h-1.638v-7.947c0-0.788-0.021-1.598-0.061-2.427h1.441l0.091,1.168h0.03
			c0.546-0.88,1.375-1.319,2.487-1.319c0.87,0,1.595,0.344,2.176,1.031S59.653,25.75,59.653,26.872z M57.985,26.933
			c0-0.718-0.162-1.31-0.485-1.774c-0.354-0.485-0.83-0.728-1.426-0.728c-0.405,0-0.771,0.134-1.1,0.401
			c-0.329,0.269-0.543,0.619-0.645,1.055c-0.051,0.202-0.076,0.369-0.076,0.5v1.229c0,0.536,0.164,0.988,0.493,1.357
			s0.756,0.554,1.282,0.554c0.617,0,1.097-0.237,1.44-0.713S57.985,27.711,57.985,26.933z"/>
		<path fill="#FFFFFF" d="M68.131,26.872c0,1.254-0.339,2.244-1.016,2.973c-0.606,0.647-1.36,0.971-2.26,0.971
			c-0.971,0-1.668-0.349-2.093-1.047h-0.03v3.883h-1.638v-7.947c0-0.788-0.021-1.598-0.061-2.427h1.441l0.091,1.168h0.03
			c0.546-0.88,1.375-1.319,2.487-1.319c0.87,0,1.595,0.344,2.176,1.031S68.131,25.75,68.131,26.872z M66.463,26.933
			c0-0.718-0.162-1.31-0.485-1.774c-0.354-0.485-0.83-0.728-1.426-0.728c-0.405,0-0.771,0.134-1.1,0.401
			c-0.329,0.269-0.543,0.619-0.645,1.055c-0.051,0.202-0.076,0.369-0.076,0.5v1.229c0,0.536,0.164,0.988,0.493,1.357
			s0.756,0.554,1.282,0.554c0.617,0,1.097-0.237,1.44-0.713S66.463,27.711,66.463,26.933z"/>
		<path fill="#FFFFFF" d="M77.611,27.782c0,0.869-0.303,1.577-0.908,2.123c-0.666,0.597-1.594,0.895-2.785,0.895
			c-1.1,0-1.982-0.212-2.648-0.637l0.379-1.365c0.719,0.436,1.508,0.652,2.367,0.652c0.617,0,1.098-0.139,1.441-0.418
			c0.344-0.278,0.516-0.65,0.516-1.116c0-0.415-0.143-0.765-0.424-1.048c-0.283-0.284-0.754-0.547-1.412-0.79
			c-1.789-0.669-2.684-1.646-2.684-2.933c0-0.84,0.312-1.528,0.939-2.065s1.461-0.805,2.504-0.805c0.93,0,1.703,0.162,2.32,0.485
			l-0.41,1.335c-0.576-0.313-1.229-0.47-1.957-0.47c-0.576,0-1.025,0.142-1.35,0.424c-0.271,0.253-0.408,0.562-0.408,0.926
			c0,0.404,0.156,0.738,0.469,1.001c0.273,0.242,0.77,0.506,1.486,0.788c0.881,0.354,1.527,0.769,1.941,1.244
			C77.404,26.483,77.611,27.074,77.611,27.782z"/>
		<path fill="#FFFFFF" d="M83.023,24.506h-1.805v3.579c0,0.91,0.318,1.365,0.955,1.365c0.293,0,0.537-0.025,0.729-0.076l0.045,1.244
			c-0.322,0.121-0.748,0.182-1.273,0.182c-0.646,0-1.152-0.197-1.516-0.591c-0.365-0.395-0.547-1.057-0.547-1.987v-3.716h-1.076
			v-1.229h1.076v-1.35l1.607-0.485v1.835h1.805V24.506z"/>
		<path fill="#FFFFFF" d="M91.168,26.902c0,1.133-0.322,2.062-0.969,2.791c-0.678,0.748-1.578,1.122-2.701,1.122
			c-1.082,0-1.943-0.359-2.586-1.077c-0.641-0.718-0.963-1.623-0.963-2.715c0-1.143,0.332-2.077,0.994-2.806
			c0.662-0.728,1.555-1.092,2.676-1.092c1.082,0,1.951,0.359,2.609,1.077C90.855,24.9,91.168,25.801,91.168,26.902z M89.471,26.955
			c0-0.679-0.146-1.262-0.439-1.749c-0.344-0.588-0.834-0.882-1.473-0.882c-0.656,0-1.156,0.294-1.5,0.882
			c-0.295,0.487-0.441,1.08-0.441,1.779c0,0.68,0.146,1.263,0.441,1.75c0.354,0.588,0.848,0.882,1.486,0.882
			c0.627,0,1.117-0.299,1.471-0.897C89.318,28.223,89.471,27.635,89.471,26.955z"/>
		<path fill="#FFFFFF" d="M96.492,24.719c-0.162-0.03-0.334-0.046-0.516-0.046c-0.576,0-1.021,0.218-1.334,0.652
			c-0.273,0.384-0.41,0.869-0.41,1.456v3.867h-1.639l0.016-5.051c0-0.849-0.02-1.622-0.061-2.32h1.426l0.061,1.411h0.045
			c0.172-0.485,0.445-0.875,0.82-1.168c0.363-0.263,0.758-0.395,1.182-0.395c0.152,0,0.289,0.01,0.41,0.03V24.719z"/>
		<path fill="#FFFFFF" d="M103.816,26.614c0,0.293-0.02,0.541-0.061,0.743h-4.914c0.021,0.728,0.258,1.284,0.713,1.668
			c0.416,0.344,0.951,0.516,1.607,0.516c0.729,0,1.391-0.116,1.988-0.349l0.258,1.138c-0.699,0.303-1.523,0.455-2.473,0.455
			c-1.143,0-2.039-0.336-2.691-1.009c-0.652-0.672-0.979-1.574-0.979-2.707c0-1.112,0.303-2.037,0.91-2.775
			c0.637-0.789,1.496-1.184,2.578-1.184c1.061,0,1.865,0.395,2.41,1.184C103.6,24.921,103.816,25.694,103.816,26.614z
			 M102.256,26.189c0.01-0.485-0.098-0.904-0.32-1.259c-0.283-0.455-0.717-0.683-1.303-0.683c-0.537,0-0.971,0.223-1.305,0.668
			c-0.273,0.354-0.436,0.778-0.486,1.273H102.256z"/>
		<path fill="#FFFFFF" d="M107.23,20.153c-0.436,1.527-0.951,2.78-1.547,3.762l-1.016,0.105c0.443-1.213,0.764-2.452,0.955-3.715
			L107.23,20.153z"/>
		<path fill="#FFFFFF" d="M110.658,21.078c0,0.294-0.098,0.531-0.289,0.713c-0.191,0.183-0.439,0.273-0.742,0.273
			c-0.273,0-0.504-0.094-0.691-0.28c-0.188-0.188-0.279-0.423-0.279-0.706s0.096-0.515,0.287-0.697s0.43-0.273,0.713-0.273
			s0.521,0.091,0.713,0.273S110.658,20.795,110.658,21.078z M110.475,30.648h-1.637v-7.371h1.637V30.648z"/>
		<path fill="#FFFFFF" d="M117.27,28.53c0,0.687-0.252,1.236-0.758,1.649c-0.506,0.414-1.203,0.62-2.094,0.62
			c-0.84,0-1.553-0.167-2.139-0.5l0.35-1.214c0.566,0.344,1.168,0.516,1.805,0.516c0.84,0,1.258-0.308,1.258-0.925
			c0-0.272-0.09-0.498-0.271-0.675c-0.184-0.177-0.506-0.352-0.971-0.523c-1.314-0.485-1.973-1.192-1.973-2.123
			c0-0.637,0.242-1.168,0.729-1.593c0.484-0.425,1.127-0.637,1.926-0.637c0.729,0,1.35,0.148,1.865,0.445l-0.348,1.178
			c-0.477-0.283-0.977-0.425-1.502-0.425c-0.344,0-0.611,0.081-0.805,0.242c-0.191,0.161-0.287,0.368-0.287,0.62
			s0.102,0.459,0.303,0.62c0.172,0.151,0.506,0.318,1.002,0.499C116.633,26.79,117.27,27.532,117.27,28.53z"/>
		<path fill="#FFFFFF" d="M122.805,24.506H121v3.579c0,0.91,0.318,1.365,0.955,1.365c0.293,0,0.537-0.025,0.729-0.076l0.045,1.244
			c-0.322,0.121-0.748,0.182-1.273,0.182c-0.646,0-1.152-0.197-1.516-0.591c-0.365-0.395-0.547-1.057-0.547-1.987v-3.716h-1.076
			v-1.229h1.076v-1.35L121,21.442v1.835h1.805V24.506z"/>
	</g>
	<g>
		<g>
			<path fill="#FFFFFF" d="M47.391,15.6h-3.715V9.062h1.048v5.655h2.667V15.6z"/>
			<path fill="#FFFFFF" d="M52.329,15.6h-0.941l-0.077-0.543h-0.029c-0.323,0.433-0.782,0.65-1.377,0.65
				c-0.446,0-0.806-0.143-1.077-0.427c-0.246-0.258-0.368-0.579-0.368-0.96c0-0.576,0.24-1.015,0.723-1.319
				c0.481-0.304,1.159-0.453,2.032-0.446v-0.087c0-0.621-0.326-0.931-0.978-0.931c-0.465,0-0.875,0.117-1.229,0.349l-0.213-0.688
				c0.438-0.271,0.979-0.407,1.617-0.407c1.233,0,1.85,0.65,1.85,1.95v1.736C52.26,14.947,52.284,15.322,52.329,15.6z M51.242,13.98
				v-0.727c-1.157-0.02-1.735,0.297-1.735,0.95c0,0.246,0.067,0.43,0.202,0.553c0.135,0.123,0.306,0.184,0.511,0.184
				c0.231,0,0.445-0.073,0.642-0.218s0.317-0.331,0.362-0.558C51.236,14.113,51.242,14.051,51.242,13.98z"/>
			<path fill="#FFFFFF" d="M57.625,15.6h-0.941l-0.077-0.543h-0.029c-0.323,0.433-0.782,0.65-1.377,0.65
				c-0.446,0-0.806-0.143-1.077-0.427c-0.246-0.258-0.368-0.579-0.368-0.96c0-0.576,0.24-1.015,0.723-1.319
				c0.481-0.304,1.159-0.453,2.032-0.446v-0.087c0-0.621-0.326-0.931-0.978-0.931c-0.465,0-0.875,0.117-1.229,0.349l-0.213-0.688
				c0.438-0.271,0.979-0.407,1.617-0.407c1.233,0,1.85,0.65,1.85,1.95v1.736C57.556,14.947,57.58,15.322,57.625,15.6z M56.538,13.98
				v-0.727c-1.157-0.02-1.735,0.297-1.735,0.95c0,0.246,0.067,0.43,0.202,0.553c0.135,0.123,0.306,0.184,0.511,0.184
				c0.231,0,0.445-0.073,0.642-0.218s0.317-0.331,0.362-0.558C56.532,14.113,56.538,14.051,56.538,13.98z"/>
			<path fill="#FFFFFF" d="M63.581,15.6H62.65l-0.049-0.757h-0.029c-0.297,0.576-0.802,0.864-1.513,0.864
				c-0.569,0-1.041-0.223-1.416-0.669s-0.562-1.025-0.562-1.736c0-0.763,0.203-1.381,0.61-1.853c0.395-0.44,0.88-0.66,1.455-0.66
				c0.634,0,1.077,0.213,1.329,0.64h0.02V8.723h1.048v5.607C63.542,14.789,63.555,15.212,63.581,15.6z M62.495,13.612v-0.786
				c0-0.136-0.01-0.246-0.029-0.33c-0.059-0.252-0.186-0.464-0.38-0.635c-0.195-0.171-0.429-0.257-0.701-0.257
				c-0.39,0-0.696,0.155-0.921,0.466c-0.224,0.311-0.336,0.708-0.336,1.193c0,0.466,0.107,0.844,0.322,1.135
				c0.227,0.31,0.532,0.465,0.915,0.465c0.344,0,0.62-0.129,0.828-0.388C62.394,14.236,62.495,13.948,62.495,13.612z"/>
			<path fill="#FFFFFF" d="M66.568,9.479c0,0.188-0.062,0.339-0.184,0.456c-0.123,0.117-0.281,0.175-0.476,0.175
				c-0.175,0-0.322-0.06-0.441-0.179c-0.12-0.12-0.18-0.27-0.18-0.451s0.062-0.33,0.185-0.446s0.274-0.175,0.456-0.175
				c0.181,0,0.333,0.059,0.456,0.175C66.506,9.149,66.568,9.298,66.568,9.479z M66.452,15.6h-1.048v-4.714h1.048V15.6z"/>
			<path fill="#FFFFFF" d="M74.676,15.6h-0.941l-0.076-0.543h-0.029c-0.324,0.433-0.783,0.65-1.377,0.65
				c-0.447,0-0.807-0.143-1.078-0.427c-0.246-0.258-0.367-0.579-0.367-0.96c0-0.576,0.24-1.015,0.723-1.319
				c0.48-0.304,1.158-0.453,2.031-0.446v-0.087c0-0.621-0.326-0.931-0.977-0.931c-0.465,0-0.875,0.117-1.23,0.349l-0.213-0.688
				c0.439-0.271,0.979-0.407,1.617-0.407c1.234,0,1.85,0.65,1.85,1.95v1.736C74.607,14.947,74.631,15.322,74.676,15.6z M73.59,13.98
				v-0.727c-1.158-0.02-1.736,0.297-1.736,0.95c0,0.246,0.068,0.43,0.203,0.553c0.135,0.123,0.305,0.184,0.51,0.184
				c0.232,0,0.445-0.073,0.643-0.218c0.195-0.146,0.316-0.331,0.361-0.558C73.584,14.113,73.59,14.051,73.59,13.98z"/>
			<path fill="#FFFFFF" d="M77.49,15.6h-1.049V8.723h1.049V15.6z"/>
			<path fill="#FFFFFF" d="M80.398,15.6h-1.047V8.723h1.047V15.6z"/>
			<path fill="#FFFFFF" d="M85.791,15.6H84.85l-0.076-0.543h-0.029c-0.324,0.433-0.783,0.65-1.377,0.65
				c-0.447,0-0.807-0.143-1.078-0.427c-0.246-0.258-0.367-0.579-0.367-0.96c0-0.576,0.24-1.015,0.723-1.319
				c0.48-0.304,1.158-0.453,2.031-0.446v-0.087c0-0.621-0.326-0.931-0.977-0.931c-0.465,0-0.875,0.117-1.23,0.349l-0.213-0.688
				c0.439-0.271,0.979-0.407,1.617-0.407c1.234,0,1.85,0.65,1.85,1.95v1.736C85.723,14.947,85.746,15.322,85.791,15.6z
				 M84.705,13.98v-0.727c-1.158-0.02-1.736,0.297-1.736,0.95c0,0.246,0.068,0.43,0.203,0.553c0.135,0.123,0.305,0.184,0.51,0.184
				c0.232,0,0.445-0.073,0.643-0.218c0.195-0.146,0.316-0.331,0.361-0.558C84.699,14.113,84.705,14.051,84.705,13.98z"/>
		</g>
	</g>
</g>
</svg>
