<svg xmlns="http://www.w3.org/2000/svg" width="202" height="203" fill="none"><path fill="#C2C3FC" d="M94.58 153.536c29.274 0 53.005-23.73 53.005-53.004 0-29.273-23.731-53.004-53.004-53.004-29.274 0-53.004 23.731-53.004 53.004 0 29.274 23.73 53.004 53.004 53.004Z"/><path stroke="#000" stroke-linecap="round" stroke-linejoin="round" stroke-width="1.26" d="M129.863 155.209a62.584 62.584 0 0 1-82.53-14.002 62.582 62.582 0 0 1 46.355-101.39 62.582 62.582 0 0 1 64.582 53.259 62.58 62.58 0 0 1-9.683 43.77M141.403 145.797a61.875 61.875 0 0 1-5.632 5.166"/><path stroke="#000" stroke-miterlimit="10" stroke-width="1.26" d="M75.248 55.652a51.349 51.349 0 1 1-18.24 13.898"/><path fill="#A67EFA" stroke="#000" stroke-miterlimit="10" stroke-width="1.26" d="m65.663 101.587 24.855 24.856a6.946 6.946 0 0 0 9.811 0l65.756-65.755a6.942 6.942 0 0 0-.076-9.736 6.939 6.939 0 0 0-9.736-.075l-60.85 60.845-19.95-19.946a6.938 6.938 0 1 0-9.81 9.811Z"/><path fill="#000" stroke="#000" stroke-miterlimit="10" stroke-width=".63" d="M182.047 128.092a.55.55 0 0 1-.55-.55v-5.04a.553.553 0 0 1 .927-.36.553.553 0 0 1 .178.36v5.04a.554.554 0 0 1-.555.55Z"/><path fill="#000" stroke="#000" stroke-miterlimit="10" stroke-width=".63" d="M185.114 125.03a.554.554 0 0 1-.554.554h-5.04a.554.554 0 1 1 0-1.108h5.04a.554.554 0 0 1 .554.554ZM140.577 187.304a.557.557 0 0 1-.555-.55v-5.04a.553.553 0 0 1 .555-.555.555.555 0 0 1 .554.555v5.04a.553.553 0 0 1-.554.55Z"/><path fill="#000" stroke="#000" stroke-miterlimit="10" stroke-width=".63" d="M143.629 184.242a.555.555 0 0 1-.555.554h-5.04a.554.554 0 1 1 0-1.108h5.04a.554.554 0 0 1 .555.554ZM22.632 86.982a.554.554 0 0 1-.554-.55v-5.04a.555.555 0 0 1 1.104 0v5.04a.552.552 0 0 1-.55.55Z"/><path fill="#000" stroke="#000" stroke-miterlimit="10" stroke-width=".63" d="M25.694 83.93a.554.554 0 0 1-.555.554H20.1a.554.554 0 1 1 0-1.109h5.04a.554.554 0 0 1 .555.554Z"/><path stroke="#000" stroke-miterlimit="10" stroke-width="1.26" d="M44.67 25.098a2.47 2.47 0 1 0 0-4.939 2.47 2.47 0 0 0 0 4.94ZM28.16 171.365a2.47 2.47 0 1 0-.001-4.94 2.47 2.47 0 0 0 0 4.94Z"/></svg>
