<svg xmlns="http://www.w3.org/2000/svg" width="68" height="55" fill="none" viewBox="0 0 68 55">
  <path stroke="#000" stroke-linecap="round" stroke-linejoin="round" stroke-width="2.66657" d="M45.476 39.3318h-7.8737v.8454c0 .6676-.5412 1.2088-1.2087 1.2088h-4.4772c-.6683 0-1.2101-.5418-1.2101-1.2102v-.844H2.15625v4.2204c0 1.359 1.10157 2.4607 2.46042 2.4607H45.476"/>
  <path stroke="#000" stroke-linecap="round" stroke-linejoin="round" stroke-width="2.66657" d="M63.6944 14.1457H47.9418c-1.3593 0-2.4613 1.1021-2.4613 2.4616v34.4622c0 1.3595 1.102 2.4616 2.4613 2.4616h15.7526c1.3594 0 2.4614-1.1021 2.4614-2.4616V16.6073c0-1.3595-1.102-2.4616-2.4614-2.4616Z"/>
  <path stroke="#000" stroke-linecap="round" stroke-linejoin="round" stroke-width="2.66657" d="M60.7364 9.22254V3.8092c0-1.36069-1.1029-2.46374-2.4635-2.46374H10.0348c-1.36057 0-2.46351 1.10305-2.46351 2.46374v30.5997"/>
</svg>
