<svg xmlns="http://www.w3.org/2000/svg" width="71" height="71" fill="none"><path stroke="#000" stroke-linejoin="round" stroke-width="2" d="M35.19 69.062c18.778 0 34-15.222 34-34 0-18.777-15.222-34-34-34-18.777 0-34 15.223-34 34 0 18.778 15.223 34 34 34Z"/><path stroke="#000" stroke-linejoin="round" stroke-width="2" d="M67.99 44.094c-7.733 8.04-19.551 13.181-32.797 13.181-13.245 0-25.066-5.14-32.798-13.181M2.392 26.032c7.733-8.041 19.55-13.181 32.796-13.181 13.246 0 25.066 5.14 32.799 13.18"/><path stroke="#000" stroke-linejoin="round" stroke-width="2" d="M67.99 44.094c-7.733 8.04-19.551 13.181-32.797 13.181-13.245 0-25.066-5.14-32.798-13.181M2.392 26.032c7.733-8.041 19.55-13.181 32.796-13.181 13.246 0 25.066 5.14 32.799 13.18M1.19 35.063h68M35.19 1.063v68"/><path stroke="#000" stroke-linejoin="round" stroke-width="2" d="M44.222 2.264c8.041 7.732 13.181 19.55 13.181 32.796 0 13.245-5.14 25.066-13.181 32.798M26.16 67.861c-8.042-7.733-13.182-19.55-13.182-32.796 0-13.246 5.14-25.066 13.181-32.798"/></svg>
