<svg xmlns="http://www.w3.org/2000/svg" width="68" height="68" fill="none" viewBox="0 0 68 68">
  <path stroke="#000" stroke-linejoin="round" stroke-width="2.66668" d="M33.7502 66.1457c17.6732 0 32.0001-14.3269 32.0001-32 0-17.6731-14.3269-32.00001-32.0001-32.00001S1.75 16.4726 1.75 34.1457c0 17.6731 14.327 32 32.0002 32Z"/>
  <path stroke="#000" stroke-linejoin="round" stroke-width="2.66668" d="M64.6186 42.6459c-7.2779 7.568-18.4011 12.406-30.8675 12.406s-23.5913-4.838-30.86926-12.406"/>
  <path stroke="#000" stroke-linejoin="round" stroke-width="2.66668" d="M2.88184 25.6461C10.1598 18.0781 21.283 13.2402 33.7494 13.2402c12.4663 0 23.5913 4.8379 30.8692 12.4059"/>
  <path stroke="#000" stroke-linejoin="round" stroke-width="2.66668" d="M64.6186 42.6459c-7.2779 7.568-18.4011 12.406-30.8675 12.406s-23.5913-4.838-30.86926-12.406"/>
  <path stroke="#000" stroke-linejoin="round" stroke-width="2.66668" d="M2.88184 25.6461C10.1598 18.0781 21.283 13.2402 33.7494 13.2402c12.4663 0 23.5913 4.8379 30.8692 12.4059"/>
  <path stroke="#000" stroke-linejoin="round" stroke-width="2.66668" d="M1.75 34.1457h64.0003"/>
  <path stroke="#000" stroke-linejoin="round" stroke-width="2.66668" d="M33.75 2.14569V66.1457"/>
  <path stroke="#000" stroke-linejoin="round" stroke-width="2.66668" d="M42.25 3.27649C49.8181 10.5544 54.656 21.6775 54.656 34.1438c0 12.4664-4.8379 23.5912-12.406 30.8691"/>
  <path stroke="#000" stroke-linejoin="round" stroke-width="2.66668" d="M25.2527 65.0156c-7.568-7.2779-12.406-18.401-12.406-30.8673 0-12.4664 4.838-23.5912 12.406-30.86913"/>
</svg>
