<svg xmlns="http://www.w3.org/2000/svg" width="100" height="99" fill="none" viewBox="0 0 100 99">
  <path fill="#fff" stroke="#000" stroke-linecap="round" stroke-linejoin="round" stroke-width="2.5" d="m16.9534 49.5048 66.0001.0014 14.9996 47.9987-95.99998-.0014L16.9534 49.5048Z"/>
  <path fill="#FC3297" stroke="#000" stroke-miterlimit="10" stroke-width="2.5" d="M78.7191 28.859c.1233 5.8967-1.625 11.3898-4.7029 15.9464l-.227.3298-20.2937 29.6082c-1.6094 2.3481-5.1449 2.3484-6.7546.0005L26.442 45.138l-.2271-.3326c-2.976-4.4058-4.709-9.6871-4.709-15.3623 0-15.5558 13.0203-28.14293 28.9989-27.93544C65.8476 1.70685 78.4059 13.8782 78.7191 28.859Z"/>
  <path fill="#fff" stroke="#000" stroke-miterlimit="10" stroke-width="2.5" d="M50.1164 40.0119c5.9777 0 10.8235-4.7321 10.8235-10.5694s-4.8458-10.5693-10.8235-10.5693c-5.9776 0-10.8234 4.732-10.8234 10.5693s4.8458 10.5694 10.8234 10.5694Z"/>
</svg>
