<svg xmlns="http://www.w3.org/2000/svg" width="100" height="99" fill="none"><path fill="#fff" stroke="#000" stroke-linecap="round" stroke-linejoin="round" stroke-width="2.5" d="m16.953 49.492 66 .002 15 47.998-96-.001 15-47.999Z"/><path fill="#C0C3F6" stroke="#000" stroke-miterlimit="10" stroke-width="2.5" d="M78.72 28.846a27.349 27.349 0 0 1-4.704 15.946l-.227.33-20.293 29.609c-1.61 2.348-5.145 2.348-6.755 0L26.442 45.125l-.227-.333a27.345 27.345 0 0 1-4.709-15.362c0-15.556 13.02-28.143 29-27.935 15.342.199 27.9 12.37 28.213 27.351Z"/><path fill="#fff" stroke="#000" stroke-miterlimit="10" stroke-width="2.5" d="M50.116 40c5.978 0 10.824-4.733 10.824-10.57 0-5.838-4.846-10.57-10.824-10.57-5.977 0-10.823 4.732-10.823 10.57 0 5.837 4.846 10.57 10.823 10.57Z"/></svg>
