<svg xmlns="http://www.w3.org/2000/svg" width="187" height="167" fill="none"><path fill="#000" stroke="#000" stroke-miterlimit="10" stroke-width=".494" d="M183.752 96.61a.43.43 0 0 1-.428-.429v-3.878a.432.432 0 0 1 .254-.429.428.428 0 0 1 .599.43v3.877a.426.426 0 0 1-.425.428Z"/><path fill="#000" stroke="#000" stroke-miterlimit="10" stroke-width=".494" d="M186.119 94.24a.43.43 0 0 1-.428.428h-3.878a.43.43 0 1 1 0-.853h3.878a.43.43 0 0 1 .428.425ZM143.517 25.974a.427.427 0 0 1-.428-.429v-3.877a.417.417 0 0 1 .111-.327.42.42 0 0 1 .315-.139.431.431 0 0 1 .406.29.434.434 0 0 1 .021.176v3.877a.436.436 0 0 1-.123.303.432.432 0 0 1-.302.126Z"/><path fill="#000" stroke="#000" stroke-miterlimit="10" stroke-width=".494" d="M145.883 23.605a.43.43 0 0 1-.429.429h-3.894a.43.43 0 0 1-.429-.6.426.426 0 0 1 .429-.254h3.894a.428.428 0 0 1 .429.425Z"/><path stroke="#000" stroke-miterlimit="10" stroke-width=".987" d="M3.027 121.2a1.908 1.908 0 1 0 0-3.816 1.908 1.908 0 0 0 0 3.816Z"/><path stroke="#000" stroke-linecap="round" stroke-linejoin="round" stroke-width=".987" d="M28.302 108.113v15.721l65.48 41.974 65.479-41.974V100.76M159.261 80.18V51.928L93.781 9.954l-65.48 41.973v46.467"/><path fill="#fff" stroke="#000" stroke-linejoin="round" stroke-width=".987" d="m94.418 141.393 13.281-6.561a48.045 48.045 0 0 0 26.761-43.34l-.191-36.216a4.281 4.281 0 0 0-2.687-3.949L93.856 36.16h-.545L55.738 51.736a4.28 4.28 0 0 0-2.641 3.978l.191 36.22a48.064 48.064 0 0 0 27.228 43.05l13.353 6.422.549-.013Z"/><path fill="#B5B5FF" d="m94.935 130.646 10.605-5.24a38.365 38.365 0 0 0 21.368-34.608l-.166-31.216-32.255-12.98h-.434L61.928 59.923l.165 31.22a38.39 38.39 0 0 0 21.741 34.379l10.663 5.127.438-.003Z"/><path fill="#fff" stroke="#000" stroke-linejoin="round" stroke-width=".987" d="M104.396 81.388h-19.97a5.494 5.494 0 0 0-5.493 5.493v12.685a5.493 5.493 0 0 0 5.493 5.493h19.97a5.493 5.493 0 0 0 5.493-5.493V86.88a5.493 5.493 0 0 0-5.493-5.493ZM86.22 81.255v-5.893a8.193 8.193 0 0 1 16.384 0v5.893h4.644v-5.517a12.84 12.84 0 0 0-12.836-12.633 12.837 12.837 0 0 0-12.835 12.633v5.517h4.644Z"/><path fill="#A67EFA" d="M97.763 91.398a3.345 3.345 0 0 1-1.564 2.833v2.379a1.788 1.788 0 0 1-3.57 0V94.23a3.348 3.348 0 1 1 5.137-2.833h-.003Z"/><path stroke="#000" stroke-linecap="round" stroke-linejoin="round" stroke-width=".987" d="M159.261 87.55v5.672"/><path fill="#fff" stroke="#000" stroke-linecap="round" stroke-linejoin="round" stroke-width=".987" d="M94.41 23.605c6.267 0 11.348-5.08 11.348-11.347C105.758 5.99 100.677.91 94.41.91S83.063 5.99 83.063 12.258c0 6.267 5.08 11.347 11.347 11.347ZM159.261 62.901c6.267 0 11.347-5.08 11.347-11.347 0-6.268-5.08-11.348-11.347-11.348-6.267 0-11.348 5.08-11.348 11.348 0 6.267 5.081 11.347 11.348 11.347Z"/><path fill="#6A4CDF" d="M159.26 56.493a4.939 4.939 0 1 0 0-9.878 4.939 4.939 0 0 0 0 9.878Z"/><path fill="#fff" stroke="#000" stroke-linecap="round" stroke-linejoin="round" stroke-width=".987" d="M159.261 135.581c6.267 0 11.347-5.081 11.347-11.348s-5.08-11.347-11.347-11.347c-6.267 0-11.348 5.08-11.348 11.347 0 6.267 5.081 11.348 11.348 11.348ZM28.302 62.901c6.267 0 11.347-5.08 11.347-11.347 0-6.268-5.08-11.348-11.347-11.348-6.267 0-11.348 5.08-11.348 11.348 0 6.267 5.08 11.347 11.348 11.347ZM28.302 135.581c6.267 0 11.347-5.081 11.347-11.348s-5.08-11.347-11.347-11.347c-6.267 0-11.348 5.08-11.348 11.347 0 6.267 5.08 11.348 11.348 11.348Z"/><path fill="#6A4CDF" d="M159.26 129.171a4.938 4.938 0 1 0 .001-9.877 4.938 4.938 0 0 0-.001 9.877ZM28.302 129.171a4.939 4.939 0 1 0 0-9.877 4.939 4.939 0 0 0 0 9.877ZM28.302 56.493a4.939 4.939 0 1 0 0-9.878 4.939 4.939 0 0 0 0 9.878ZM94.41 17.196a4.939 4.939 0 1 0 0-9.878 4.939 4.939 0 0 0 0 9.878Z"/></svg>
