<svg xmlns="http://www.w3.org/2000/svg" width="68" height="53" fill="none" viewBox="0 0 68 53">
  <path stroke="#000" stroke-linecap="round" stroke-linejoin="round" stroke-width="2.66667" d="M46.4428 26.0949c-.1817-6.855-5.7958-12.3563-12.6948-12.3563-1.0177 0-2.0075.1197-2.956.3458"/>
  <path stroke="#000" stroke-linecap="round" stroke-linejoin="round" stroke-width="2.66667" d="M21.0557 26.7771c.1798 6.8569 5.7946 12.3601 12.6948 12.3601 1.0181 0 2.0083-.1198 2.9571-.3461"/>
  <path stroke="#000" stroke-linecap="round" stroke-linejoin="round" stroke-width="2.66667" d="M7.78903 16.6025c-2.1502 2.9394-3.8137 6.2574-4.87204 9.8354C6.85362 39.7465 19.1631 49.4596 33.7482 49.4596c4.6478 0 9.0646-.9865 13.053-2.7613"/>
  <path stroke="#000" stroke-linecap="round" stroke-linejoin="round" stroke-width="2.66667" d="M59.7133 36.2732c2.1502-2.9393 3.8138-6.2574 4.8721-9.8353C60.6488 13.1293 48.3391 3.41617 33.7542 3.41617c-4.6991 0-9.1621 1.00828-13.1849 2.82025"/>
  <path stroke="#000" stroke-linecap="round" stroke-linejoin="round" stroke-width="2.66667" d="m1.75 1.88342 64 49.10898"/>
</svg>
