<svg xmlns="http://www.w3.org/2000/svg" width="69" height="70" fill="none"><path stroke="#000" stroke-width="2" d="M1.987 35.063c0-18.458 14.786-33.401 33-33.401s33 14.943 33 33.4c0 18.459-14.786 33.402-33 33.402s-33-14.943-33-33.401Z"/><path stroke="#000" stroke-linecap="round" stroke-miterlimit="10" stroke-width="2" d="m8.636 34.067.03-.647c.405-6.984 3.487-13.534 8.59-18.255A26.374 26.374 0 0 1 35.993 8.14c6.912.216 13.468 3.151 18.273 8.182 4.806 5.03 7.483 11.76 7.461 18.756"/><path stroke="#000" stroke-linecap="round" stroke-linejoin="round" stroke-width="2" d="M35.176 12.355V8.206M12.739 34.16H8.638M19.172 19.435l-2.9-2.94M50.78 18.92l2.9-2.933M55.199 26.879c-10.433 4.905-22.613 10.82-24.424 12.267a5.576 5.576 0 0 0-2.209 3.766 5.59 5.59 0 0 0 .166 2.226 5.663 5.663 0 0 0 1.025 1.993 5.73 5.73 0 0 0 3.87 2.124 5.708 5.708 0 0 0 2.24-.203 5.633 5.633 0 0 0 1.975-1.05l.096-.077c1.812-1.447 10.221-11.983 17.24-21.041l.02-.005ZM61.766 34.978h-3.903"/></svg>
