<svg xmlns="http://www.w3.org/2000/svg" width="68" height="68" fill="none" viewBox="0 0 68 68">
  <path fill="#fff" stroke="#000" stroke-linejoin="round" stroke-width="2.66667" d="M59.4122 14.0116c-.8019-1.0283-1.6666-2.0232-2.6116-2.9687-.0013-.0011-.0025-.0025-.0037-.0038-.0013-.0014-.0026-.0025-.0039-.0037-.9454-.9451-1.9402-1.80955-2.9684-2.6115-12.5521-9.78901-30.7714-8.923203-42.3098 2.6152C-.0232652 22.5775-.889418 40.7968 8.89952 53.3488c.80302 1.0297 1.66878 2.0258 2.61528 2.9722.9465.9467 1.9427 1.8125 2.9724 2.6154 12.5524 9.789 30.7731 8.9246 42.3115-2.6138 11.5381-11.5382 12.4024-29.7587 2.6135-42.311Zm-42.3097 2.6149c4.5455-4.5459 10.602-7.04915 17.0535-7.04915 5.1095 0 9.9679 1.57575 14.0277 4.48745L14.5414 47.7071c-6.74084-9.4159-5.89045-22.6286 2.5611-31.0806Zm34.1086 34.109c-4.5451 4.5451-10.6008 7.0484-17.0512 7.0484h-.0012c-5.1109-.0004-9.9703-1.5765-14.0304-4.4884l33.6423-33.6423c6.7418 9.4169 5.8921 22.6304-2.5595 31.0823Z"/>
</svg>
