<svg xmlns="http://www.w3.org/2000/svg" width="71" height="70" fill="none"><path stroke="#000" stroke-linejoin="round" stroke-width="1.679" d="M62.025 14.164a34.198 34.198 0 0 0-2.775-3.154l-.004-.004-.004-.004a34.147 34.147 0 0 0-3.154-2.775c-13.336-10.4-32.694-9.48-44.954 2.779-12.26 12.26-13.18 31.618-2.779 44.954a34.135 34.135 0 0 0 2.78 3.158 34.122 34.122 0 0 0 3.157 2.779c13.337 10.4 32.697 9.482 44.956-2.777 12.26-12.26 13.178-31.619 2.777-44.956Zm-44.954 2.779c4.83-4.83 11.265-7.49 18.12-7.49 5.428 0 10.59 1.674 14.904 4.768L14.35 49.966C7.188 39.96 8.09 25.923 17.07 16.943Zm36.24 36.24c-4.829 4.83-11.263 7.49-18.117 7.49-5.431-.001-10.594-1.676-14.908-4.77L56.03 20.16c7.163 10.005 6.26 24.044-2.72 33.025Z"/></svg>
