<svg xmlns="http://www.w3.org/2000/svg" width="127" height="165" fill="none" viewBox="0 0 127 165"><g fill="#000" opacity=".05"><path d="M69.026 83.697c3.028-3.064 3.028-8.031 0-11.095a7.689 7.689 0 0 0-10.965 0c-3.028 3.063-3.028 8.031 0 11.095a7.69 7.69 0 0 0 10.965 0ZM93.244 83.697c3.028-3.064 3.028-8.032 0-11.096a7.689 7.689 0 0 0-10.965 0c-3.027 3.064-3.027 8.032 0 11.096a7.69 7.69 0 0 0 10.965 0ZM117.462 83.696c3.028-3.064 3.028-8.031 0-11.095a7.69 7.69 0 0 0-10.965 0c-3.027 3.064-3.027 8.031 0 11.095a7.69 7.69 0 0 0 10.965 0Z"/><path stroke="#fff" stroke-width=".5" d="m33.392 154.617-.014.369.347-.126 28.217-10.304a5.533 5.533 0 0 1 3.73-.03 69.46 69.46 0 0 0 39.843 1.969c9.407-2.31 18.064-6.428 25.73-12.238 7.401-5.61 13.561-12.544 18.308-20.61a71.516 71.516 0 0 0 9.178-26.08l-.247-.035.247.035c1.395-9.579.849-19.232-1.622-28.69v-.002h-.001v-.003l-.001-.001v-.003h-.001v-.004h-.001v-.003l-.001-.001v-.003l-.001-.001v-.003l-.001-.001v-.003h-.001v-.003l-.001-.001v-.004h-.001v-.003l-.001-.001v-.003h-.001v-.004h-.001v-.003l-.001-.001v-.003l-.001-.001v-.003l-.001-.001v-.003h-.001v-.003l-.001-.001v-.003l-.001-.001v-.003l-.001-.001V58.8h-.001v-.004h-.001v-.003l-.001-.001v-.003h-.001v-.004l-.001-.001v-.003h-.001v-.003l-.001-.001v-.003l-.001-.001v-.003h-.001v-.004h-.001v-.004h-.001v-.003l-.001-.001v-.003l-.001-.001v-.003h-.001v-.004h-.001v-.004h-.001v-.003l-.001-.001v-.003h-.001v-.004h-.001v-.004h-.001v-.003l-.001-.001v-.003l-.001-.001v-.003h-.001v-.004h-.001v-.004h-.001v-.003l-.001-.001v-.003h-.001v-.004h-.001v-.004h-.001v-.003l-.001-.001v-.003l-.001-.001v-.003h-.001v-.004h-.001v-.004h-.001v-.003l-.001-.001v-.003h-.001v-.004h-.001v-.004h-.001v-.003l-.001-.001v-.003l-.001-.001v-.003h-.001v-.003l-.001-.001v-.004h-.001v-.001c-2.453-9.266-6.621-17.773-12.39-25.291l-.199.153.199-.153a70.548 70.548 0 0 0-20.471-18.046c-7.965-4.654-16.605-7.656-25.678-8.921-9.398-1.309-18.846-.688-28.078 1.846-9.32 2.559-17.843 6.881-25.329 12.849-7.231 5.764-13.195 12.812-17.725 20.946a71.376 71.376 0 0 0-8.532 26.213c-1.167 9.577-.406 19.2 2.26 28.6 2.506 8.839 6.593 16.973 12.146 24.175a5.786 5.786 0 0 1 1.204 3.727l-1.061 29.879ZM139.519 37.38l.198-.153-.198.153c5.235 6.822 9.019 14.546 11.248 22.963v.003h.001v.003l.001.001v.003l.001.001v.003h.001v.004h.001v.004h.001v.003l.001.001v.003l.001.001v.003h.001v.004h.001v.003l.001.001v.003l.001.001v.003h.001v.004h.001v.004h.001v.003l.001.001v.003l.001.001v.003h.001v.004h.001v.004h.001v.003l.001.001v.003l.001.001v.003h.001v.004h.001v.003l.001.001v.003l.001.001v.003h.001v.004h.001v.004h.001v.003l.001.001v.003l.001.001v.003h.001v.004h.001v.003l.001.001v.003l.001.001v.003h.001v.004h.001v.004h.001v.003l.001.001v.003h.001v.004h.001v.004h.001v.003l.001.001v.003l.001.001v.003h.001v.004h.001v.003l.001.001v.003l.001.001v.003h.001v.004h.001v.003l.001.001v.003l.001.001v.003h.001v.004h.001v.004h.001v.003l.001.001v.003h.001c2.245 8.596 2.741 17.361 1.475 26.054a64.917 64.917 0 0 1-8.333 23.675c-4.311 7.325-9.902 13.62-16.619 18.711-6.958 5.273-14.818 9.012-23.365 11.111a63.045 63.045 0 0 1-36.162-1.785 11.97 11.97 0 0 0-8.085.052l-19.516 7.126.729-20.529a12.417 12.417 0 0 0-2.572-8.003c-5.04-6.535-8.748-13.919-11.025-21.948l-.24.07.24-.07c-2.424-8.545-3.116-17.288-2.056-25.983a64.775 64.775 0 0 1 7.743-23.79c4.112-7.384 9.524-13.779 16.085-19.009l-.154-.195.154.195c6.794-5.416 14.535-9.342 23.007-11.668 8.384-2.301 16.958-2.865 25.486-1.677 8.236 1.149 16.08 3.874 23.315 8.1a64.056 64.056 0 0 1 18.588 16.386Z"/></g></svg>
