<svg xmlns="http://www.w3.org/2000/svg" xml:space="preserve" version="1.1" viewBox="0 0 580 540" width="580" height="540">
  <style>
    .st0{fill:#6a52de}.st1{fill-rule:evenodd;clip-rule:evenodd;fill:#fff}.st2{fill:#cbcdfc}.st3,.st4{fill:#fff;stroke:#000;stroke-width:2.7083;stroke-miterlimit:10}.st4{fill:none;stroke-linecap:round}.st6{fill:#8760f6}.st7{fill:#fff}.st8{fill:none;stroke:#000;stroke-width:2.7083;stroke-miterlimit:10}
  </style>
  <path d="M88.9 260.8c-.4-.4-.9-.6-1.5-.4L68 268.7c-.2.1-.3.2-.4.3L9.8 317.2l-.3.2c-3.2 2.6-3.6 7.4-.9 10.5.5.6 1.2 1.2 1.8 1.6 1 .6 2.1.9 3.2 1.1 2 .2 3.9-.4 5.4-1.7l58.2-48.6.2-.2L89 262.3c.3-.4.2-1-.1-1.5z" class="st0"/>
  <path d="M432.6 66.1c1.1 0 2.2.3 3.2 1 .9.6 1.7 1.5 2.1 2.6.4 1 .5 2.2.3 3.3-.2 1.1-.8 2.1-1.6 2.9-.8.8-1.8 1.3-2.9 1.6-1.1.2-2.2.1-3.3-.3-1-.4-1.9-1.2-2.6-2.1-.6-.9-1-2-1-3.2 0-1.5.6-3 1.7-4 1.1-1.2 2.6-1.8 4.1-1.8z" class="st1"/>
  <path d="M476 23.7c-5.5-6-12.2-10.7-19.6-14-7.4-3.2-15.5-4.9-23.6-4.9s-16.1 1.7-23.6 4.9c-7.4 3.2-14.1 8-19.6 14-.3.3-.6.7-.8 1.1-.2.4-.3.9-.3 1.4 0 .5.1.9.3 1.3.2.4.5.8.8 1.1.3.3.7.6 1.2.7.4.2.9.2 1.4.2.5 0 .9-.1 1.3-.3.4-.2.8-.5 1.1-.9 4.9-5.3 10.8-9.4 17.3-12.3 6.6-2.9 13.7-4.3 20.8-4.3 7.2 0 14.3 1.5 20.8 4.3 6.6 2.9 12.5 7.1 17.3 12.3.3.3.7.6 1.1.8.4.2.9.3 1.3.3s.9-.1 1.3-.2c.4-.2.8-.4 1.1-.7.3-.3.6-.7.8-1.1.2-.4.3-.9.3-1.3s-.1-.9-.2-1.3c0-.4-.2-.7-.5-1.1z" class="st1"/>
  <path d="M463.3 38c-3.9-4.1-8.7-7.4-13.9-9.7-5.3-2.2-10.9-3.4-16.6-3.4s-11.4 1.2-16.6 3.4c-5.3 2.2-10 5.5-13.9 9.7-.3.3-.6.7-.7 1.1-.2.4-.3.9-.3 1.3s.1.9.3 1.3c.2.4.4.8.8 1.1.3.3.7.6 1.1.7.4.2.9.3 1.3.3.5 0 .9-.1 1.3-.3.4-.2.8-.4 1.1-.8 3.3-3.5 7.3-6.3 11.7-8.2 4.4-1.9 9.2-2.9 14-2.9 4.8 0 9.6 1 14 2.9s8.4 4.7 11.7 8.2c.3.3.7.6 1.1.8.4.2.9.3 1.3.3s.9-.1 1.3-.3c.4-.2.8-.4 1.1-.7.7-.6 1-1.5 1-2.4-.1-.9-.5-1.8-1.1-2.4z" class="st1"/>
  <path d="M449.5 52.2c-4.5-4.5-10.5-7-16.8-7.2h-.2c-6.3.2-12.4 2.8-16.8 7.2-.6.7-1 1.5-1 2.4 0 .9.4 1.8 1 2.4.7.7 1.5 1 2.4 1 .9 0 1.8-.4 2.4-1 3.2-3.2 7.4-5 11.9-5.2h.2c4.5.2 8.7 2 11.9 5.2.3.3.7.6 1.1.8.4.2.9.3 1.3.3.5 0 .9-.1 1.3-.3.4-.2.8-.4 1.1-.8.3-.3.6-.7.8-1.1.2-.4.3-.9.2-1.3 0-.5-.1-.9-.3-1.3 0-.4-.3-.8-.5-1.1z" class="st1"/>
  <path d="M549.3 420c2.4-.9 18.1-6.4 24.1 4.1 6.5 11.4 1.6 32.3-16.1 39-3.2 1.2-6 .9-8.4-.4l-.8.4c-2.2 1-4.7 1.1-7.6 0-17.7-6.7-22.5-27.5-16.1-39 6.5-11.4 24.4-4 24.4-4l.5-.1z" class="st2"/>
  <path d="M549.3 420c2.4-.9 18.1-6.4 24.1 4.1 6.5 11.4 1.6 32.3-16.1 39-3.2 1.2-6 .9-8.4-.4l-.8.4c-2.2 1-4.7 1.1-7.6 0-17.7-6.7-22.5-27.5-16.1-39 6.5-11.4 24.4-4 24.4-4l.5-.1z" class="st3"/>
  <path d="M547.1 404.9s3.3 5.7 2.2 15.1l-2.2-15.1z" class="st2"/>
  <path d="M547.1 404.9s3.3 5.7 2.2 15.1" class="st4"/>
  <path d="M549.3 411.6s3-9.3 17.5-7.5c-.1 0-3.2 15.2-17.5 7.5z" class="st2"/>
  <path fill="#cbcdfc" stroke="#000" stroke-linecap="round" stroke-miterlimit="10" stroke-width="2.7083" d="M549.3 411.6s3-9.3 17.5-7.5c-.1 0-3.2 15.2-17.5 7.5z"/>
  <path d="M416.4 489.2c1.1-2.6 3.1-4.6 5.7-5.6l.5 1.2-.4-1.2 3-1-62.5-58.2-4.8 1.5c-3 1-5 3.8-5 7 0 1.7.5 3.2 1.6 4.5l.1.1 61.2 56.9c-.3-1.8-.1-3.5.6-5.2z" class="st6"/>
  <path d="m430 483.4 65.2-20.9c1-.3 1.2-1.6.5-2.2l-5.8-5-59.9-51.5c-.2-.2-.4-.2-.6-.1L363 424.2l-.2.1 64.6 60.1 2.6-1z" class="st6"/>
  <path d="M418.7 490.3c-.8 2-.8 4.1 0 6.1s2.3 3.5 4.3 4.3c2 .8 4.1.8 6.1 0h.1l6.7-2.1 56.9-18.3v-16.6L423 486c-1.9.8-3.5 2.3-4.3 4.3z" class="st7"/>
  <path d="m422.6 484.8 73-23.4c1-.3 1.2-1.6.5-2.2l-5.8-5-59.9-51.5c-.2-.2-.4-.2-.6-.1l-70.1 21.6-2 .6c-3.4 1.1-5.9 4.4-5.9 8.2 0 2 .7 3.9 1.9 5.4l.1.1 65.7 61.1" class="st8"/>
  <path d="M494 461.6v19.2" class="st8"/>
  <path d="m496.3 480.4-60 19.3-6.7 2.1c-4.7 1.9-10.1-.3-12-5-1.9-4.7.3-10.1 5-12" class="st4"/>
  <path d="m427.1 489.8 65.8-21" class="st4"/>
  <path d="m427.1 496.2 65.8-21" class="st4"/>
  <path d="m363.1 423.1 64.4 59.9" class="st8"/>
  <path d="M188.2 440h-57.1c-2.7 0-5 2.2-5 5v85.3c0 2.7 2.2 5 5 5h57.1c2.7 0 5-2.2 5-5V445c0-2.8-2.3-5-5-5z" class="st0"/>
  <path d="M187.4 437.7c7-1.3 13.8-3.3 19.1-7.4 2.8-2.1 5.1-4.8 6.8-7.9 1.9-3.7 3.2-7.7 3.6-11.8.4-3.5.6-7.1.6-10.7 0-5-.2-10.1-.2-15.1 0-6.1.4-11.9 2-17.2 1.6-5.6 4.8-10.5 9.2-14.3l-1.4-1.6c-4.7 4-8.1 9.3-9.8 15.3-1.7 5.6-2.1 11.6-2.1 17.8 0 5 .2 10.1.2 15.1 0 3.5-.2 7-.6 10.4-.4 3.9-1.5 7.6-3.3 11-2.3 4.2-5.9 7.6-10.1 9.7-4.5 2.2-9.3 3.7-14.3 4.5l.3 2.2z"/>
  <path d="M73.9 133.5c1.3 7 3.4 13.7 7.5 19.1 2.1 2.8 4.8 5.1 7.9 6.7 3.7 1.9 7.7 3.1 11.9 3.5 3.5.4 7.1.6 10.7.5 5 0 10.1-.2 15.1-.2 6.1 0 11.9.4 17.2 1.9 5.6 1.5 10.6 4.7 14.3 9.1l1.6-1.4c-4.1-4.7-9.4-8.1-15.4-9.7-5.6-1.7-11.7-2-17.8-2-5 0-10.1.2-15.1.2-3.5 0-7-.1-10.4-.5-3.9-.4-7.6-1.5-11.1-3.2-4.2-2.3-7.6-5.8-9.8-10.1-2.2-4.5-3.8-9.3-4.6-14.3l-2 .4z"/>
  <path d="M182.3 433.4h-57.1c-2.7 0-5 2.2-5 5v85.3c0 2.7 2.2 5 5 5h57.1c2.7 0 5-2.2 5-5v-85.3c-.1-2.8-2.3-5-5-5z" class="st3"/>
  <path d="M175.9 445.7h-44.5c-2.1 0-3.9 1.7-3.9 3.9v6.4c0 2.1 1.7 3.9 3.9 3.9h44.5c2.1 0 3.9-1.7 3.9-3.9v-6.4c0-2.1-1.7-3.9-3.9-3.9z" class="st3"/>
  <path d="M133 465.7h-1.6c-2.1 0-3.9 1.7-3.9 3.9v1.9c0 2.1 1.7 3.9 3.9 3.9h1.6c2.1 0 3.9-1.7 3.9-3.9v-1.9c0-2.2-1.7-3.9-3.9-3.9z" class="st3"/>
  <path d="M146.8 465.7h-1.6c-2.1 0-3.9 1.7-3.9 3.9v1.9c0 2.1 1.7 3.9 3.9 3.9h1.6c2.1 0 3.9-1.7 3.9-3.9v-1.9c0-2.2-1.8-3.9-3.9-3.9z" class="st3"/>
  <path d="M160.7 465.7h-1.6c-2.1 0-3.9 1.7-3.9 3.9v1.9c0 2.1 1.7 3.9 3.9 3.9h1.6c2.1 0 3.9-1.7 3.9-3.9v-1.9c0-2.2-1.7-3.9-3.9-3.9z" class="st3"/>
  <path d="M174.6 465.7H173c-2.1 0-3.9 1.7-3.9 3.9v1.9c0 2.1 1.7 3.9 3.9 3.9h1.6c2.1 0 3.9-1.7 3.9-3.9v-1.9c0-2.2-1.7-3.9-3.9-3.9z" class="st3"/>
  <path d="M133.1 480.1h-1.6c-2.1 0-3.9 1.7-3.9 3.9v1.9c0 2.1 1.7 3.9 3.9 3.9h1.6c2.1 0 3.9-1.7 3.9-3.9V484c-.1-2.1-1.8-3.9-3.9-3.9z" class="st3"/>
  <path d="M146.8 480.1h-1.6c-2.1 0-3.9 1.7-3.9 3.9v1.9c0 2.1 1.7 3.9 3.9 3.9h1.6c2.1 0 3.9-1.7 3.9-3.9V484c0-2.1-1.8-3.9-3.9-3.9z" class="st3"/>
  <path d="M160.7 480.1h-1.6c-2.1 0-3.9 1.7-3.9 3.9v1.9c0 2.1 1.7 3.9 3.9 3.9h1.6c2.1 0 3.9-1.7 3.9-3.9V484c0-2.1-1.7-3.9-3.9-3.9z" class="st3"/>
  <path d="M175.9 480.1h-1.6c-2.1 0-3.9 1.7-3.9 3.9v1.9c0 2.1 1.7 3.9 3.9 3.9h1.6c2.1 0 3.9-1.7 3.9-3.9V484c0-2.1-1.7-3.9-3.9-3.9z" class="st3"/>
  <path d="M133.1 494.6h-1.6c-2.1 0-3.9 1.7-3.9 3.9v1.9c0 2.1 1.7 3.9 3.9 3.9h1.6c2.1 0 3.9-1.7 3.9-3.9v-1.9c0-2.2-1.8-3.9-3.9-3.9z" class="st3"/>
  <path d="M146.8 494.6h-1.6c-2.1 0-3.9 1.7-3.9 3.9v1.9c0 2.1 1.7 3.9 3.9 3.9h1.6c2.1 0 3.9-1.7 3.9-3.9v-1.9c0-2.2-1.8-3.9-3.9-3.9z" class="st3"/>
  <path d="M160.7 494.6h-1.6c-2.1 0-3.9 1.7-3.9 3.9v1.9c0 2.1 1.7 3.9 3.9 3.9h1.6c2.1 0 3.9-1.7 3.9-3.9v-1.9c0-2.2-1.7-3.9-3.9-3.9z" class="st3"/>
  <path d="M133.1 509.1h-1.6c-2.1 0-3.9 1.7-3.9 3.9v1.9c0 2.1 1.7 3.9 3.9 3.9h1.6c2.1 0 3.9-1.7 3.9-3.9V513c0-2.2-1.7-3.9-3.9-3.9z" class="st3"/>
  <path d="M146.8 509.1h-1.6c-2.1 0-3.9 1.7-3.9 3.9v1.9c0 2.1 1.7 3.9 3.9 3.9h1.6c2.1 0 3.9-1.7 3.9-3.9V513c0-2.2-1.8-3.9-3.9-3.9z" class="st3"/>
  <path d="M160.7 509.1h-1.6c-2.1 0-3.9 1.7-3.9 3.9v1.9c0 2.1 1.7 3.9 3.9 3.9h1.6c2.1 0 3.9-1.7 3.9-3.9V513c0-2.2-1.7-3.9-3.9-3.9z" class="st3"/>
  <path d="M175.9 494.6h-1.6c-2.1 0-3.9 1.7-3.9 3.9v16.4c0 2.1 1.7 3.9 3.9 3.9h1.6c2.1 0 3.9-1.7 3.9-3.9v-16.4c0-2.2-1.7-3.9-3.9-3.9z" class="st3"/>
  <path fill="none" stroke="#000" stroke-miterlimit="10" stroke-width="2.9358" d="M110.1 341.8v5.1c0 1.5.6 3 1.7 4 1.1 1.1 2.5 1.7 4 1.7h172.3"/>
  <path d="M410.4 301c1.1 0 2.1-.2 3.1-.6 1-.4 1.9-1 2.6-1.8.7-.7 1.3-1.6 1.7-2.6.4-1 .6-2 .6-3.1V145.1c0-1.1-.2-2.1-.6-3.1-.4-1-1-1.9-1.7-2.6-.7-.7-1.6-1.3-2.6-1.7-1-.4-2-.6-3.1-.6h-246c-1.1 0-2.1.2-3.1.6-1 .4-1.9 1-2.6 1.7-.7.7-1.3 1.6-1.7 2.6-.4 1-.6 2-.6 3.1v147.8c0 1.1.2 2.1.6 3.1.4 1 1 1.9 1.7 2.6.7.7 1.6 1.3 2.6 1.8 1 .4 2 .6 3.1.6" class="st7"/>
  <path d="M410.4 301c1.1 0 2.1-.2 3.1-.6 1-.4 1.9-1 2.6-1.8.7-.7 1.3-1.6 1.7-2.6.4-1 .6-2 .6-3.1V145.1c0-1.1-.2-2.1-.6-3.1-.4-1-1-1.9-1.7-2.6-.7-.7-1.6-1.3-2.6-1.7-1-.4-2-.6-3.1-.6h-246c-1.1 0-2.1.2-3.1.6-1 .4-1.9 1-2.6 1.7-.7.7-1.3 1.6-1.7 2.6-.4 1-.6 2-.6 3.1v147.8c0 1.1.2 2.1.6 3.1.4 1 1 1.9 1.7 2.6.7.7 1.6 1.3 2.6 1.8 1 .4 2 .6 3.1.6" class="st8"/>
  <path d="M281.2 345.4h179c.9 0 1.8-.3 2.5-.8s1.3-1.2 1.6-2.1c.3-.8.3-1.7.1-2.6-.2-.9-.7-1.6-1.4-2.2L419.6 302c-.8-.6-1.7-1-2.7-1h-259c-1 0-2 .4-2.7 1l-43.3 35.7c-.7.6-1.2 1.3-1.4 2.2-.2.9-.2 1.8.1 2.6.3.8.9 1.6 1.6 2.1.7.5 1.6.8 2.5.8h178.9" class="st7"/>
  <path d="M281.2 345.4h179c.9 0 1.8-.3 2.5-.8s1.3-1.2 1.6-2.1c.3-.8.3-1.7.1-2.6-.2-.9-.7-1.6-1.4-2.2L419.6 302c-.8-.6-1.7-1-2.7-1h-259c-1 0-2 .4-2.7 1l-43.3 35.7c-.7.6-1.2 1.3-1.4 2.2-.2.9-.2 1.8.1 2.6.3.8.9 1.6 1.6 2.1.7.5 1.6.8 2.5.8h178.9" class="st8"/>
  <path d="M464.5 341.8v5.1c0 1.5-.6 3-1.7 4-1.1 1.1-2.5 1.7-4 1.7H286.6" class="st8"/>
  <path d="M310.3 337.5h121.8l-19.8-18.8H207.8L188 337.5h122.3z" class="st2"/>
  <path fill="#fff" stroke="#000" stroke-linejoin="round" stroke-width="2.7083" d="M287.6 329.8h121.8l-19.8-22.2H185.1l-19.8 22.2h122.3z"/>
  <path fill="#fff" stroke="#000" stroke-linecap="round" stroke-linejoin="round" stroke-width="2.7083" d="M404.1 147.3H170.4v144.4h233.7V147.3z"/>
  <path d="m439.3 320.2 19.9-.8c4-.2 7.8-1.9 10.7-4.8 3.2-3.2 5.3-7.2 6.3-11.5.8-4 2.8-7.6 5.7-10.5 2.5-2.5 5.8-4 9.3-4.2l5.3-.2-.1-2.2-5.3.2c-4 .2-7.8 1.9-10.7 4.8-3.1 3.2-5.3 7.2-6.3 11.6-.9 4-2.8 7.6-5.7 10.5-2.5 2.5-5.7 4-9.2 4.2l-19.9.8v2.1z"/>
  <path d="M419.2 183.4c12-9.2 27.3-15.9 41.2-21.7 4.6-1.9 9.4-3.6 14.2-5 5.9-1.7 12.3-3.1 17.6-3.1 1.9 0 3.7.2 5.5.7 1.3.3 2.5.9 3.5 1.8s1.8 2 2.3 3.2c.4 1.1.6 2.2.6 3.4-.1 2.1-.5 4.2-1.4 6.1-1.6 3.8-4.4 8-8 12.3-5.5 6.4-11.5 12.4-17.9 17.9-3 2.6-5.8 5-8.1 7-2.4 2-4.2 3.6-5.5 4.8-9.3 8.8-18.6 18-26.7 27.9-8.1 9.9-15 20.5-19.5 32.2l2 .8c4.4-11.4 11.1-21.8 19.1-31.6 8-9.8 17.2-18.9 26.5-27.7.8-.8 2.2-1.9 3.8-3.4 5.6-4.8 15-12.6 23-21.1 3.8-3.9 7.3-8.2 10.3-12.8 1.3-2 2.4-4.1 3.2-6.3.8-1.9 1.2-4 1.2-6.1 0-1.5-.3-2.9-.8-4.3-.6-1.4-1.4-2.6-2.5-3.6-1.3-1.3-3-2.2-4.8-2.6-2-.5-4-.8-6.1-.7-5.6 0-12.2 1.4-18.2 3.2-4.9 1.5-9.7 3.2-14.4 5.1-13.4 5.6-28.3 12.2-40.4 21.1l.3 2.5z"/>
  <path fill="#a77ffa" d="M50.6 413.8h45.5v45.5H50.6z"/>
  <path d="M96.4 458.4v-1.1H52.2v-43.2h43.2v44.3h2.1V412H50v47.5h47.5v-1.1h-1.1z"/>
  <path d="m66.2 437.3 6 6.1c.1.1.2.2.4.2.1.1.3.1.5.1s.3-.1.4-.1c.1-.1.3-.2.4-.3l9.1-12.1c.2-.2.2-.5.2-.8 0-.3-.2-.5-.4-.7s-.5-.2-.8-.2-.5.2-.7.4L73 441l-5.2-5.2c-.1-.1-.2-.2-.4-.2-.1-.1-.3-.1-.4-.1-.1 0-.3 0-.4.1-.1 0-.3.1-.4.2-.1.1-.2.2-.2.4-.1.1-.1.3-.1.4 0 .1 0 .3.1.4 0 .1.1.2.2.3z"/>
  <path fill="#cbcdfc" stroke="#000" stroke-linejoin="round" stroke-width="2.7083" d="m72.3 271.7-58 48.4-.2.2c-2.6 2.2-6.5 1.8-8.7-.8-2.2-2.6-1.8-6.5.8-8.7l.2-.2 58-48.4 7.9 9.5z"/>
  <path d="m12.3 305.4 8.1 9.7" class="st8"/>
  <path fill="#cbcdfc" stroke="#000" stroke-linecap="round" stroke-linejoin="round" stroke-width="2.7083" d="m83.7 254-19.4 8.2 7.9 9.5L83.7 254z"/>
  <path d="m26 302.3 34.5-28.8L26 302.3z" class="st7"/>
  <path fill="none" stroke="#000" stroke-linecap="round" stroke-linejoin="round" stroke-width="2.7083" d="m26 302.3 34.5-28.8"/>
  <path d="m555.9 194.3-30.4-7.8c-1.6-.4-3.2.6-3.6 2.1l-27.5 107.9c-.4 1.6.6 3.2 2.1 3.6l30.4 7.8c1.6.4 3.2-.6 3.6-2.1L558 197.9c.4-1.6-.5-3.2-2.1-3.6z" class="st7"/>
  <path d="m555.9 194.3-30.4-7.8c-1.6-.4-3.2.6-3.6 2.1l-27.5 107.9c-.4 1.6.6 3.2 2.1 3.6l30.4 7.8c1.6.4 3.2-.6 3.6-2.1L558 197.9c.4-1.6-.5-3.2-2.1-3.6z" class="st3"/>
  <path d="m531.7 204.4 22.4 5.7" class="st4"/>
  <path d="m526.4 225.2 22.4 5.7" class="st4"/>
  <path d="m521.1 245.9 22.4 5.7" class="st4"/>
  <path d="m515.8 266.6 22.4 5.7" class="st4"/>
  <path d="m510.5 287.3 22.4 5.7" class="st4"/>
  <path d="m544.5 213.2 8.5 2.2-8.5-2.2z" class="st7"/>
  <path d="m544.5 213.2 8.5 2.2" class="st4"/>
  <path d="m543.2 218.4 8.5 2.2-8.5-2.2z" class="st7"/>
  <path d="m543.2 218.4 8.5 2.2" class="st4"/>
  <path d="m541.9 223.6 8.5 2.2-8.5-2.2z" class="st7"/>
  <path d="m541.9 223.6 8.5 2.2" class="st4"/>
  <path d="m539.2 234 8.5 2.2-8.5-2.2z" class="st7"/>
  <path d="m539.2 234 8.5 2.2" class="st4"/>
  <path d="m537.9 239.1 8.5 2.2-8.5-2.2z" class="st7"/>
  <path d="m537.9 239.1 8.5 2.2" class="st4"/>
  <path d="m536.6 244.3 8.5 2.2-8.5-2.2z" class="st7"/>
  <path d="m536.6 244.3 8.5 2.2" class="st4"/>
  <path d="m533.9 254.7 8.5 2.2-8.5-2.2z" class="st7"/>
  <path d="m533.9 254.7 8.5 2.2" class="st4"/>
  <path d="m532.6 259.9 8.5 2.2-8.5-2.2z" class="st7"/>
  <path d="m532.6 259.9 8.5 2.2" class="st4"/>
  <path d="m531.3 265.1 8.5 2.2-8.5-2.2z" class="st7"/>
  <path d="m531.3 265.1 8.5 2.2" class="st4"/>
  <path d="m528.7 275.4 8.5 2.2-8.5-2.2z" class="st7"/>
  <path d="m528.7 275.4 8.5 2.2" class="st4"/>
  <path d="m527.3 280.5 8.5 2.2-8.5-2.2z" class="st7"/>
  <path d="m527.3 280.5 8.5 2.2" class="st4"/>
  <path d="m526 285.7 8.5 2.2-8.5-2.2z" class="st7"/>
  <path d="m526 285.7 8.5 2.2" class="st4"/>
  <path d="M315 220.1c-.8-1.8-2.1-3.4-3.7-4.5-1.4-1-3.1-1.5-4.8-1.7-1.7-.2-3.4.1-5 .8-1.8.8-3.4 2.1-4.5 3.7-.6.9-1.1 1.9-1.4 3H281c-.1-.4-.2-.8-.4-1.2-.2-.4-.4-.8-.6-1.1l5.2-5.2c1.6.9 3.3 1.4 5.1 1.4 1.4 0 2.7-.3 4-.8 1.8-.8 3.4-2.1 4.5-3.7 1.2-1.7 1.8-3.7 1.8-5.8 0-1.4-.3-2.7-.8-4-.8-1.8-2.1-3.4-3.7-4.6-1.4-1-3.1-1.5-4.8-1.7-1.7-.2-3.4.1-5 .8-1.8.8-3.4 2.1-4.5 3.7-1 1.4-1.5 3.1-1.7 4.8-.2 1.7.1 3.4.8 5 .1.3.3.6.5.9L276 215c-1.5-.8-3.3-1.3-5-1.3-1.4 0-2.8.3-4.1.8-1.8.8-3.4 2.1-4.5 3.7-1 1.4-1.5 3.1-1.7 4.8-.2 1.7.1 3.4.8 5 .8 1.8 2.1 3.4 3.7 4.6 1.7 1.1 3.7 1.8 5.8 1.8 1.4 0 2.7-.3 4-.8 1.8-.8 3.4-2.1 4.5-3.7.6-.9 1.1-1.9 1.4-3h14.6c.1.4.3.8.5 1.2.1.3.3.6.5.9l-5.3 5.3c-1.5-.8-3.3-1.3-5-1.3-1.4 0-2.8.3-4.1.8-1.8.8-3.4 2.1-4.5 3.7-1 1.4-1.6 3.1-1.7 4.8-.2 1.7.1 3.4.8 5 .8 1.8 2.1 3.4 3.7 4.5 1.4 1 3.1 1.6 4.8 1.7 1.7.2 3.4-.1 5-.8 1.8-.8 3.4-2.1 4.6-3.7 1.2-1.7 1.8-3.7 1.8-5.8 0-1.4-.3-2.7-.8-4-.2-.4-.4-.8-.5-1.1l5.2-5.2c1.6.9 3.3 1.3 5.1 1.4 1.4 0 2.7-.3 4-.8 1.8-.8 3.4-2.1 4.6-3.7 1.2-1.7 1.8-3.7 1.8-5.8-.2-1.2-.4-2.6-1-3.9zm-29-17.2c.4-.8.9-1.6 1.7-2.1.8-.5 1.7-.8 2.7-.8.6 0 1.3.1 1.8.4.9.4 1.6 1 2.1 1.8s.8 1.7.8 2.7c0 .6-.1 1.3-.4 1.8-.4.9-1 1.6-1.8 2.1-.7.4-1.4.7-2.2.8-.8.1-1.6 0-2.3-.3-.9-.4-1.6-1-2.1-1.8s-.8-1.7-.8-2.7c.1-.7.3-1.3.5-1.9zM275.5 226c-.4.9-1 1.6-1.7 2.1-.8.5-1.7.8-2.6.8-.6 0-1.3-.1-1.8-.4-.9-.4-1.6-1-2.1-1.8-.5-.7-.8-1.5-.8-2.4 0-.9.1-1.7.5-2.5s1-1.4 1.7-1.9c.7-.4 1.6-.7 2.5-.7.6 0 1.3.1 1.9.4.9.4 1.6 1 2.1 1.8s.8 1.7.8 2.7c-.2.7-.3 1.3-.5 1.9zm15.1 19.3c-.4.9-1 1.6-1.7 2.1s-1.7.8-2.6.8c-.6 0-1.3-.1-1.8-.4-.9-.4-1.6-1-2.1-1.8s-.8-1.7-.8-2.7c0-.6.1-1.3.4-1.8.4-.8.9-1.6 1.7-2.1.7-.4 1.4-.7 2.2-.8.8-.1 1.6 0 2.3.3.9.4 1.6 1 2.1 1.8s.8 1.7.8 2.7c-.1.7-.3 1.3-.5 1.9zm19.3-19.3c-.4.8-.9 1.6-1.7 2.1-.8.5-1.7.8-2.7.8-.6 0-1.3-.1-1.8-.4-.9-.4-1.6-1-2.1-1.8-.4-.7-.7-1.4-.8-2.2-.1-.8 0-1.6.3-2.3.4-.8.9-1.6 1.7-2.1.8-.5 1.7-.8 2.7-.8.6 0 1.3.1 1.8.4.9.4 1.6 1 2.1 1.8s.8 1.7.8 2.7c.1.6 0 1.2-.3 1.8z"/>
  <path d="M47.5 24.6h50.9c5.4 0 9.8 4.4 9.8 9.8v108.3c0 5.4-4.4 9.8-9.8 9.8H47.5c-5.4 0-9.8-4.4-9.8-9.8V34.3c0-5.3 4.4-9.7 9.8-9.7z" class="st7"/>
  <path d="M90.1 76.6c-.5-1.1-1.3-2.1-2.3-2.7-.9-.6-1.9-.9-2.9-1-1-.1-2.1.1-3.1.5-1.1.5-2.1 1.3-2.8 2.3-.4.6-.7 1.2-.8 1.8h-8.9c-.1-.3-.1-.5-.2-.7-.1-.2-.2-.5-.4-.7l3.2-3.1c1 .5 2 .8 3.1.8.8 0 1.7-.2 2.4-.5 1.1-.5 2.1-1.3 2.8-2.3.7-1 1.1-2.3 1.1-3.5 0-.8-.2-1.7-.5-2.4-.5-1.1-1.3-2.1-2.3-2.7-.9-.6-1.9-.9-2.9-1-1-.1-2.1.1-3.1.5-1.1.5-2.1 1.3-2.8 2.3-.6.9-.9 1.9-1 2.9-.1 1 .1 2.1.5 3l.3.6-3.2 3.2c-.9-.5-2-.8-3.1-.8-.8 0-1.7.2-2.5.5-1.1.5-2.1 1.3-2.8 2.3-.6.9-.9 1.9-1 2.9-.1 1 .1 2.1.5 3 .5 1.1 1.3 2.1 2.3 2.7 1 .7 2.3 1.1 3.5 1.1.8 0 1.7-.2 2.4-.5 1.1-.5 2.1-1.3 2.8-2.3.4-.5.7-1.2.8-1.8h8.9c.1.3.2.5.3.7l.3.6-3.2 3.2c-.9-.5-2-.8-3.1-.8-.8 0-1.7.2-2.5.5-1.1.5-2.1 1.3-2.8 2.3-.6.9-.9 1.9-1 2.9-.1 1 .1 2.1.5 3 .5 1.1 1.3 2 2.3 2.7.9.6 1.9.9 2.9 1 1 .1 2.1-.1 3.1-.5 1.1-.5 2.1-1.3 2.8-2.3.7-1 1.1-2.2 1.1-3.5 0-.8-.2-1.7-.5-2.4-.1-.2-.2-.5-.3-.7l3.2-3.1c1 .5 2 .8 3.1.8.8 0 1.7-.2 2.4-.5 1.1-.5 2.1-1.3 2.8-2.3.7-1 1.1-2.2 1.1-3.5 0-.9-.2-1.7-.5-2.5zM72.4 66.3c.2-.5.6-1 1-1.3.5-.3 1-.5 1.6-.5.4 0 .8.1 1.1.2.5.2 1 .6 1.3 1.1.3.5.5 1 .5 1.6 0 .4-.1.8-.2 1.1-.2.5-.6 1-1.1 1.3-.4.3-.9.4-1.3.5-.5 0-1 0-1.4-.2-.5-.2-1-.6-1.3-1.1-.3-.5-.5-1-.5-1.6.1-.4.2-.8.3-1.1zM66 80.2c-.2.5-.6 1-1.1 1.3-.5.3-1 .5-1.6.5-.4 0-.8-.1-1.1-.2-.5-.2-1-.6-1.3-1.1-.3-.4-.5-.9-.5-1.4 0-.5.1-1 .3-1.5.2-.5.6-.8 1.1-1.1s1-.4 1.5-.4c.4 0 .8.1 1.1.2.5.2 1 .6 1.3 1.1.3.5.5 1 .5 1.6 0 .2 0 .6-.2 1zm9.2 11.6c-.2.5-.6 1-1.1 1.3-.5.3-1 .5-1.6.5-.4 0-.8-.1-1.1-.2-.5-.2-1-.6-1.3-1.1-.3-.5-.5-1-.5-1.6 0-.4.1-.8.2-1.1.2-.5.6-1 1-1.3.4-.3.9-.4 1.3-.5.5-.1 1 0 1.4.2.5.2 1 .6 1.3 1.1.3.5.5 1 .5 1.6.1.4.1.8-.1 1.1zM87 80.2c-.2.5-.6 1-1 1.3-.5.3-1 .5-1.6.5-.4 0-.8-.1-1.1-.2-.5-.2-1-.6-1.3-1.1-.3-.4-.4-.8-.5-1.3 0-.5 0-.9.2-1.4.2-.5.6-1 1-1.3.5-.3 1-.5 1.6-.5.4 0 .8.1 1.1.2.5.2 1 .6 1.3 1.1.3.5.5 1 .5 1.6 0 .3-.1.7-.2 1.1z"/>
  <path d="M108.4 142.9h1.4V34c0-1.3-.2-2.5-.7-3.7-.5-1.2-1.2-2.2-2.1-3.1-.9-.9-2-1.6-3.1-2.1-1.2-.5-2.4-.7-3.7-.7H47.1c-2.5 0-5 1-6.8 2.8-1.8 1.8-2.8 4.2-2.8 6.8v108.9c0 2.5 1 5 2.8 6.8 1.8 1.8 4.2 2.8 6.8 2.8h53.1c2.5 0 5-1 6.8-2.8 1.8-1.8 2.8-4.2 2.8-6.8H107c0 1.8-.7 3.5-2 4.8-1.3 1.3-3 2-4.8 2H47.1c-1.8 0-3.5-.7-4.8-2-1.3-1.3-2-3-2-4.8v-109c0-.9.2-1.8.5-2.6s.8-1.6 1.5-2.2c.6-.6 1.4-1.1 2.2-1.5.8-.3 1.7-.5 2.6-.5h53.1c1.8 0 3.6.7 4.8 2 1.3 1.3 2 3 2 4.8v109h1.4z"/>
  <path d="M48.3 33h8.6c.6 1.8 1.7 3.4 3.3 4.5 1.5 1.1 3.4 1.7 5.3 1.7h17.1c1.9 0 3.8-.6 5.3-1.7s2.7-2.7 3.3-4.5h7c.6.2 1.2.6 1.6 1.1.4.5.6 1.2.7 1.8l-.1 21.8v83.2c0 .4-.2.8-.5 1.1-.3.3-.7.5-1.1.5l-5.4-.1-43.5.1c-.4 0-.8-.2-1.1-.5-.3-.3-.5-.7-.5-1.1L47.2 34.2c0-.3.1-.6.3-.8.2-.2.5-.3.8-.4zm0-2.8c-.5 0-1 .1-1.5.3-.5.2-.9.5-1.3.8-.4.4-.7.8-.9 1.3-.2.5-.3 1-.3 1.5v.1l.9 106.8c0 1.1.5 2.2 1.3 3 .8.8 1.9 1.3 3 1.3l43.5-.1 5.4.1c1.2 0 2.3-.5 3.1-1.3.8-.8 1.3-1.9 1.3-3.1V57.7l.1-21.8c0-1.3-.5-2.6-1.4-3.7-.9-1-2-1.8-3.4-2h-8.3c-.3 0-.6.1-.9.3-.2.2-.4.5-.5.8-.3 1.4-1 2.7-2.1 3.7-1.1.9-2.5 1.4-4 1.4H65.5c-1.5 0-2.9-.5-4-1.5-1.1-.9-1.9-2.2-2.1-3.7 0-.3-.2-.6-.4-.8-.2-.2-.5-.3-.8-.3l-9.9.1z"/>
</svg>
