<svg width="299" height="168" fill="none" xmlns="http://www.w3.org/2000/svg"><g clip-path="url(#a)"><rect x=".87" y=".87" width="297.58" height="166.825" rx="8.444" fill="#E4DCFB"/><g filter="url(#b)"><g clip-path="url(#c)"><path d="M32.87 37.097a4.227 4.227 0 0 1 4.228-4.227H315.87v100.734H37.098a4.228 4.228 0 0 1-4.228-4.228V37.097Z" fill="#fff"/><rect x="37.098" y="37.097" width="53" height="34" rx="4.227" fill="#F0F0F4"/><path fill-rule="evenodd" clip-rule="evenodd" d="M49.502 48.611a7.328 7.328 0 0 0-4.129 3.616 7.217 7.217 0 0 0-.634 1.833 7.312 7.312 0 0 0 .63 4.711 7.351 7.351 0 0 0 1.978 2.433 7.26 7.26 0 0 0 2.648 1.335c1.214.325 2.507.318 3.729.04a6.612 6.612 0 0 0 2.984-1.552c.882-.81 1.512-1.876 1.845-3.023.364-1.25.411-2.585.184-3.87h-6.854v2.844h3.971a3.431 3.431 0 0 1-1.456 2.252 4.173 4.173 0 0 1-1.606.634 4.804 4.804 0 0 1-1.74-.004 4.312 4.312 0 0 1-1.62-.7 4.504 4.504 0 0 1-1.67-2.237 4.421 4.421 0 0 1 0-2.836 4.55 4.55 0 0 1 1.058-1.72 4.32 4.32 0 0 1 2.178-1.21 4.347 4.347 0 0 1 2.138.086 3.923 3.923 0 0 1 1.57.925l1.34-1.34c.235-.239.482-.47.71-.717a7.104 7.104 0 0 0-2.347-1.453 7.353 7.353 0 0 0-4.907-.047Z" fill="#fff"/><path fill-rule="evenodd" clip-rule="evenodd" d="M49.502 48.611a7.378 7.378 0 0 1 4.907.044c.87.32 1.665.822 2.346 1.453-.227.246-.473.478-.708.716l-1.34 1.34a3.969 3.969 0 0 0-1.57-.925 4.302 4.302 0 0 0-2.14-.086 4.353 4.353 0 0 0-2.177 1.21 4.52 4.52 0 0 0-1.057 1.72c-.795-.619-1.59-1.234-2.39-1.852a7.32 7.32 0 0 1 4.129-3.62Z" fill="#EA4335"/><path fill-rule="evenodd" clip-rule="evenodd" d="M44.743 54.056c.13-.635.34-1.254.634-1.833.796.619 1.59 1.233 2.39 1.852a4.395 4.395 0 0 0 0 2.836c-.795.619-1.59 1.238-2.386 1.853a7.25 7.25 0 0 1-.638-4.708Z" fill="#FBBC05"/><path fill-rule="evenodd" clip-rule="evenodd" d="M51.883 54.13h6.855a8.615 8.615 0 0 1-.184 3.87c-.333 1.147-.964 2.213-1.845 3.023l-2.315-1.797a3.431 3.431 0 0 0 1.457-2.252h-3.972c.004-.948.004-1.896.004-2.844Z" fill="#4285F4"/><path fill-rule="evenodd" clip-rule="evenodd" d="M45.373 58.767c.796-.614 1.59-1.233 2.386-1.852a4.528 4.528 0 0 0 1.668 2.236 4.34 4.34 0 0 0 1.622.701 4.72 4.72 0 0 0 1.739.004 4.172 4.172 0 0 0 1.606-.634l2.315 1.798c-.835.771-1.88 1.296-2.985 1.55-1.222.279-2.514.287-3.729-.039a7.198 7.198 0 0 1-2.647-1.335 7.335 7.335 0 0 1-1.974-2.428Z" fill="#34A853"/><path d="m75.017 58.82 4.146-4.145a.473.473 0 0 0-.336-.809.477.477 0 0 0-.336.138l-3.743 3.744-3.74-3.743a.475.475 0 0 0-.67.671l4.145 4.145h.534Z" fill="#000"/><path d="M99.763 49.195h1.444l3.396 8.295h.117l3.396-8.295h1.444v9.993h-1.132v-7.592h-.098l-3.122 7.592h-1.093l-3.123-7.592h-.097v7.592h-1.132v-9.993Zm14.272 10.168c-.475 0-.906-.09-1.293-.268a2.22 2.22 0 0 1-.922-.786c-.228-.344-.342-.76-.342-1.249 0-.429.085-.777.254-1.044a1.79 1.79 0 0 1 .678-.634c.283-.153.596-.267.937-.341.345-.079.691-.14 1.039-.186a47.26 47.26 0 0 1 1.108-.132c.286-.032.494-.086.624-.16.134-.076.2-.206.2-.391v-.039c0-.481-.131-.855-.395-1.122-.26-.267-.655-.4-1.185-.4-.55 0-.981.12-1.293.36-.313.242-.532.498-.659.772l-1.093-.39c.195-.456.455-.81.781-1.064a2.921 2.921 0 0 1 1.073-.537c.39-.104.774-.156 1.152-.156.24 0 .517.03.829.088.316.055.62.17.912.346.296.176.542.44.737.795.195.355.293.83.293 1.425v4.938h-1.152v-1.015h-.058a2.027 2.027 0 0 1-.39.522 2.267 2.267 0 0 1-.727.473c-.303.13-.672.195-1.108.195Zm.176-1.034c.455 0 .839-.09 1.151-.268a1.82 1.82 0 0 0 .712-.693c.163-.283.244-.58.244-.893V55.42c-.048.059-.156.112-.322.161a5.368 5.368 0 0 1-.566.122 25.893 25.893 0 0 1-1.102.146 4.389 4.389 0 0 0-.839.19 1.445 1.445 0 0 0-.625.386c-.156.17-.234.4-.234.693 0 .4.148.703.444.907.299.202.678.303 1.137.303Zm5.36.859v-7.495h1.113v1.132h.078c.137-.37.384-.671.742-.902a2.18 2.18 0 0 1 1.21-.347c.084 0 .19.002.317.005s.223.008.288.015v1.17a3.446 3.446 0 0 0-.269-.043 2.64 2.64 0 0 0-.434-.034c-.364 0-.69.076-.976.23a1.68 1.68 0 0 0-.917 1.527v4.742h-1.152Zm9.998 2.81v-3.962h-.098a7.588 7.588 0 0 1-.361.517 2.146 2.146 0 0 1-.668.552c-.29.16-.675.239-1.157.239-.624 0-1.176-.158-1.654-.474-.478-.318-.852-.767-1.122-1.346-.27-.582-.405-1.27-.405-2.064 0-.787.135-1.47.405-2.05.27-.578.646-1.025 1.127-1.34.481-.316 1.038-.474 1.669-.474.488 0 .873.081 1.156.244.286.16.504.341.654.546.153.202.271.368.356.498h.137v-1.19h1.112v10.304h-1.151Zm-2.128-3.689c.462 0 .853-.12 1.171-.36.319-.245.561-.581.727-1.01.166-.433.249-.932.249-1.498 0-.56-.081-1.05-.244-1.469-.162-.423-.403-.751-.722-.986-.319-.237-.712-.356-1.181-.356-.488 0-.894.125-1.219.376a2.244 2.244 0 0 0-.727 1.01 4 4 0 0 0-.239 1.425c0 .533.081 1.018.243 1.453.166.433.41.778.732 1.035.326.253.729.38 1.21.38Zm10.11-2.185v-4.43h1.151v7.494h-1.151v-1.269h-.078c-.176.38-.449.704-.82.971-.371.264-.839.395-1.405.395-.469 0-.885-.102-1.249-.307a2.146 2.146 0 0 1-.859-.937c-.208-.42-.312-.948-.312-1.586v-4.761h1.151v4.683c0 .547.153.983.459 1.308.309.325.702.488 1.181.488.286 0 .577-.073.873-.22a1.9 1.9 0 0 0 .751-.673c.205-.303.308-.688.308-1.156Zm6.402 3.22c-.722 0-1.345-.16-1.869-.478a3.212 3.212 0 0 1-1.205-1.347c-.279-.579-.419-1.252-.419-2.02s.14-1.444.419-2.03a3.313 3.313 0 0 1 1.181-1.376c.507-.331 1.099-.497 1.776-.497.39 0 .776.065 1.156.195.381.13.727.342 1.04.634.312.29.561.674.746 1.152.185.478.278 1.067.278 1.766v.488h-5.777v-.995h4.606c0-.423-.084-.8-.254-1.132a1.905 1.905 0 0 0-.712-.786c-.306-.192-.667-.288-1.083-.288-.459 0-.855.114-1.19.342a2.237 2.237 0 0 0-.766.878 2.579 2.579 0 0 0-.269 1.161v.664c0 .566.098 1.046.293 1.439.198.39.473.688.824.893.352.202.76.302 1.225.302.303 0 .576-.042.82-.127.247-.087.46-.217.639-.39.179-.175.317-.393.415-.654l1.112.313a2.47 2.47 0 0 1-.59.995 2.88 2.88 0 0 1-1.025.664 3.796 3.796 0 0 1-1.371.234Zm9.148-4.977v1.074h-4.371v-1.074h4.371Zm2.026 7.63V51.695h1.113v1.19h.136c.085-.13.202-.296.352-.498.152-.205.37-.387.653-.546.287-.163.674-.244 1.162-.244.631 0 1.187.158 1.668.473.482.316.857.763 1.127 1.342.27.579.405 1.262.405 2.05 0 .793-.135 1.48-.405 2.063-.27.579-.644 1.028-1.122 1.346-.478.316-1.029.474-1.654.474-.481 0-.867-.08-1.156-.24a2.14 2.14 0 0 1-.669-.55 7.588 7.588 0 0 1-.361-.518h-.097v3.962h-1.152Zm1.132-6.556c0 .566.083 1.065.249 1.497.166.43.408.766.727 1.01.319.241.709.361 1.171.361.481 0 .883-.127 1.205-.38.325-.257.569-.602.732-1.035.166-.435.249-.92.249-1.453 0-.527-.082-1.002-.244-1.425a2.208 2.208 0 0 0-.727-1.01c-.322-.25-.727-.376-1.215-.376-.468 0-.862.119-1.181.356-.319.235-.559.563-.722.986-.163.42-.244.91-.244 1.468Zm9.446 3.922c-.475 0-.906-.09-1.293-.268a2.22 2.22 0 0 1-.922-.786c-.228-.344-.342-.76-.342-1.249 0-.429.085-.777.254-1.044a1.79 1.79 0 0 1 .678-.634c.283-.153.595-.267.937-.341.345-.079.691-.14 1.039-.186a47.26 47.26 0 0 1 1.108-.132c.286-.032.494-.086.624-.16.134-.076.2-.206.2-.391v-.039c0-.481-.131-.855-.395-1.122-.26-.267-.655-.4-1.185-.4-.55 0-.981.12-1.293.36-.313.242-.532.498-.659.772l-1.093-.39c.195-.456.455-.81.781-1.064a2.921 2.921 0 0 1 1.073-.537c.39-.104.774-.156 1.151-.156.241 0 .518.03.83.088.315.055.62.17.912.346.296.176.542.44.737.795.195.355.293.83.293 1.425v4.938h-1.152v-1.015h-.058a2.01 2.01 0 0 1-.391.522 2.245 2.245 0 0 1-.727.473c-.302.13-.671.195-1.107.195Zm.176-1.034c.455 0 .839-.09 1.151-.268a1.82 1.82 0 0 0 .712-.693c.163-.283.244-.58.244-.893V55.42c-.048.059-.156.112-.322.161a5.368 5.368 0 0 1-.566.122 25.893 25.893 0 0 1-1.102.146 4.4 4.4 0 0 0-.84.19 1.447 1.447 0 0 0-.624.386c-.156.17-.234.4-.234.693 0 .4.148.703.444.907.299.202.678.303 1.137.303Zm8.385 3.825c-.556 0-1.034-.072-1.434-.215-.4-.14-.734-.325-1-.556a3.032 3.032 0 0 1-.63-.732l.918-.644c.104.137.235.293.395.469.159.179.377.333.654.463.279.133.645.2 1.097.2.605 0 1.105-.146 1.498-.439.394-.293.591-.751.591-1.376v-1.522h-.098a6.348 6.348 0 0 1-.361.507 2.045 2.045 0 0 1-.664.532c-.286.153-.673.23-1.161.23a3.124 3.124 0 0 1-1.629-.43c-.479-.286-.857-.702-1.137-1.249-.277-.546-.415-1.21-.415-1.99 0-.768.135-1.437.405-2.006.27-.572.646-1.015 1.127-1.327.481-.315 1.038-.473 1.669-.473.488 0 .875.081 1.161.244.289.16.511.341.663.546.157.202.277.368.362.498h.117v-1.19h1.112v7.708c0 .644-.146 1.168-.439 1.571-.29.407-.68.705-1.171.893a4.419 4.419 0 0 1-1.63.288Zm-.039-4.118c.462 0 .853-.105 1.171-.317a1.97 1.97 0 0 0 .727-.912c.166-.397.249-.872.249-1.425 0-.54-.081-1.017-.244-1.43a2.139 2.139 0 0 0-.722-.97c-.319-.235-.712-.352-1.181-.352-.488 0-.894.124-1.219.371a2.253 2.253 0 0 0-.727.995c-.16.417-.239.879-.239 1.386 0 .52.081.98.243 1.38.166.398.41.71.732.938.326.224.729.336 1.21.336Zm8.529 1.308c-.722 0-1.345-.16-1.869-.478a3.212 3.212 0 0 1-1.205-1.347c-.28-.579-.42-1.252-.42-2.02s.14-1.444.42-2.03a3.313 3.313 0 0 1 1.181-1.376c.507-.331 1.099-.497 1.776-.497.39 0 .776.065 1.156.195.381.13.727.342 1.039.634.313.29.561.674.747 1.152.185.478.278 1.067.278 1.766v.488h-5.777v-.995h4.606c0-.423-.085-.8-.254-1.132a1.912 1.912 0 0 0-.712-.786c-.306-.192-.667-.288-1.083-.288-.459 0-.856.114-1.191.342a2.245 2.245 0 0 0-.766.878 2.578 2.578 0 0 0-.268 1.161v.664c0 .566.097 1.046.293 1.439.198.39.473.688.824.893.351.202.76.302 1.225.302.302 0 .576-.042.82-.127.247-.087.46-.217.639-.39.179-.175.317-.393.414-.654l1.113.313a2.46 2.46 0 0 1-.591.995 2.876 2.876 0 0 1-1.024.664 3.804 3.804 0 0 1-1.371.234Zm10.163-5.972-1.035.293a1.94 1.94 0 0 0-.287-.503 1.4 1.4 0 0 0-.508-.41c-.215-.107-.489-.16-.824-.16-.459 0-.841.105-1.147.316-.302.209-.454.474-.454.796 0 .286.104.512.313.678.208.166.533.304.975.415l1.113.273c.67.162 1.169.411 1.498.746.328.332.492.76.492 1.283 0 .43-.123.814-.37 1.152-.244.338-.586.605-1.025.8-.439.195-.95.293-1.532.293-.764 0-1.397-.166-1.898-.498-.501-.332-.818-.816-.951-1.454l1.093-.273c.104.403.3.706.59.907.293.202.675.303 1.146.303.537 0 .963-.114 1.279-.342.319-.23.478-.507.478-.829a.872.872 0 0 0-.273-.654c-.182-.179-.462-.312-.839-.4l-1.25-.293c-.686-.162-1.19-.414-1.512-.756-.319-.345-.478-.776-.478-1.293 0-.423.119-.797.356-1.122.241-.325.568-.58.981-.766a3.443 3.443 0 0 1 1.415-.278c.741 0 1.323.163 1.746.488.426.325.729.754.908 1.288Z" fill="#15141A"/><rect x="37.098" y="82.02" width="252.957" height="34" rx="4.227" fill="#F0F0F4"/><path d="m52.326 94.369-6.37.923-.112.023a.998.998 0 0 0-.44 1.681l4.615 4.491-1.088 6.344-.013.11a.998.998 0 0 0 1.461.942l5.696-2.995 5.683 2.995.1.046a.995.995 0 0 0 1.35-1.098l-1.09-6.344 4.616-4.492.078-.085a.999.999 0 0 0-.632-1.617l-6.369-.924-2.847-5.77a.998.998 0 0 0-1.79 0l-2.848 5.77Z" fill="#000"/><path d="M76.25 103.52v-9.68h3.91c.694 0 1.288.123 1.785.369.496.246.877.592 1.14 1.04.264.447.396.98.396 1.596v.014c0 .64-.16 1.207-.483 1.704a2.58 2.58 0 0 1-1.335 1.046l2.113 3.911h-1.972L79.9 99.878H77.98v3.642h-1.73Zm1.73-4.97h2c.55 0 .977-.146 1.28-.437.305-.29.457-.695.457-1.214v-.014c0-.505-.159-.905-.477-1.2-.313-.3-.744-.45-1.294-.45H77.98v3.314Zm10.345 5.118c-.73 0-1.355-.154-1.879-.463a3.088 3.088 0 0 1-1.2-1.315c-.282-.568-.423-1.241-.423-2.02v-.006c0-.77.139-1.44.416-2.012a3.134 3.134 0 0 1 1.194-1.329c.514-.317 1.118-.476 1.811-.476.698 0 1.297.154 1.798.463a3.03 3.03 0 0 1 1.168 1.281c.272.55.409 1.194.409 1.932v.55h-5.957v-1.12H90.8l-.791 1.047v-.665c0-.487-.074-.892-.222-1.214a1.6 1.6 0 0 0-.617-.724 1.682 1.682 0 0 0-.906-.242c-.344 0-.65.085-.919.255a1.718 1.718 0 0 0-.63.738c-.152.322-.228.718-.228 1.188v.67c0 .452.076.839.228 1.161.152.317.367.563.644.738.282.17.615.255 1 .255.299 0 .556-.043.77-.128.22-.089.397-.194.53-.315.135-.125.229-.244.283-.356l.02-.046h1.583l-.013.06a2.44 2.44 0 0 1-.322.724 2.74 2.74 0 0 1-.624.678 3.2 3.2 0 0 1-.953.503 4.144 4.144 0 0 1-1.308.188Zm8.11 0c-.737 0-1.368-.152-1.891-.456a2.985 2.985 0 0 1-1.201-1.315c-.277-.573-.416-1.257-.416-2.053v-.013c0-.792.139-1.47.416-2.033a2.956 2.956 0 0 1 1.2-1.295c.524-.304 1.152-.456 1.886-.456.63 0 1.172.11 1.623.329.457.214.817.514 1.08.899.269.38.434.825.497 1.335v.026h-1.577l-.006-.02a1.526 1.526 0 0 0-.524-.879c-.268-.227-.63-.342-1.086-.342-.38 0-.707.097-.98.289-.268.192-.474.47-.617.832-.143.362-.215.8-.215 1.315v.013c0 .519.072.964.215 1.335.148.367.356.649.624.845.268.193.592.289.973.289.433 0 .782-.099 1.046-.295.269-.197.454-.488.557-.872l.013-.027 1.57-.007-.007.06a3.06 3.06 0 0 1-.523 1.309 2.663 2.663 0 0 1-1.06.878c-.442.206-.975.309-1.596.309Zm4.851-.148V93.35h1.67v3.965h.114c.175-.398.439-.709.792-.933.353-.223.794-.335 1.322-.335.545 0 1.006.107 1.382.322.375.21.659.519.852.926.196.407.295.901.295 1.482v4.743h-1.671v-4.353c0-.573-.12-1.002-.362-1.289-.237-.286-.608-.429-1.114-.429a1.61 1.61 0 0 0-.858.222 1.452 1.452 0 0 0-.557.623c-.13.269-.195.586-.195.953v4.273h-1.67Zm11.539.148c-.729 0-1.355-.154-1.879-.463a3.086 3.086 0 0 1-1.2-1.315c-.282-.568-.423-1.241-.423-2.02v-.006c0-.77.139-1.44.416-2.012a3.138 3.138 0 0 1 1.194-1.329c.514-.317 1.118-.476 1.811-.476.698 0 1.297.154 1.798.463a3.02 3.02 0 0 1 1.167 1.281c.273.55.41 1.194.41 1.932v.55h-5.958v-1.12h5.139l-.791 1.047v-.665c0-.487-.074-.892-.222-1.214a1.595 1.595 0 0 0-.617-.724 1.68 1.68 0 0 0-.906-.242c-.344 0-.65.085-.919.255a1.713 1.713 0 0 0-.63.738c-.152.322-.228.718-.228 1.188v.67c0 .452.076.839.228 1.161.152.317.366.563.644.738.281.17.615.255.999.255.3 0 .557-.043.772-.128.219-.089.396-.194.53-.315.134-.125.228-.244.282-.356l.02-.046h1.583l-.013.06a2.452 2.452 0 0 1-.323.724c-.152.242-.36.468-.623.678-.26.206-.577.373-.953.503a4.147 4.147 0 0 1-1.308.188Zm4.964-.148v-7.332h1.671v1.127h.114c.125-.394.349-.7.671-.92.326-.218.731-.328 1.214-.328.125 0 .248.009.369.027.125.013.228.031.308.054v1.496a3.12 3.12 0 0 0-.409-.068 3.196 3.196 0 0 0-.423-.026c-.371 0-.695.069-.972.208a1.508 1.508 0 0 0-.644.597 1.736 1.736 0 0 0-.228.905v4.26h-1.671Zm8.674.148c-.738 0-1.368-.152-1.891-.456a2.98 2.98 0 0 1-1.201-1.315c-.278-.573-.416-1.257-.416-2.053v-.013c0-.792.138-1.47.416-2.033a2.95 2.95 0 0 1 1.201-1.295c.523-.304 1.151-.456 1.885-.456.63 0 1.171.11 1.623.329.456.214.816.514 1.08.899.269.38.434.825.497 1.335v.026h-1.577l-.007-.02a1.524 1.524 0 0 0-.523-.879c-.268-.227-.63-.342-1.087-.342-.38 0-.706.097-.979.289-.268.192-.474.47-.617.832-.143.362-.215.8-.215 1.315v.013c0 .519.072.964.215 1.335.147.367.355.649.624.845.268.193.592.289.972.289.434 0 .783-.099 1.047-.295.268-.197.454-.488.557-.872l.013-.027 1.57-.007-.007.06c-.08.497-.255.933-.523 1.309a2.662 2.662 0 0 1-1.06.878c-.443.206-.975.309-1.597.309Zm4.851-.148V93.35h1.67v3.965h.114c.175-.398.439-.709.792-.933.353-.223.794-.335 1.321-.335.546 0 1.007.107 1.382.322.376.21.66.519.852.926.197.407.296.901.296 1.482v4.743h-1.671v-4.353c0-.573-.121-1.002-.362-1.289-.237-.286-.608-.429-1.114-.429a1.61 1.61 0 0 0-.858.222 1.445 1.445 0 0 0-.557.623c-.13.269-.195.586-.195.953v4.273h-1.67Zm11.539.148c-.729 0-1.356-.154-1.879-.463a3.089 3.089 0 0 1-1.201-1.315c-.281-.568-.422-1.241-.422-2.02v-.006c0-.77.138-1.44.416-2.012a3.125 3.125 0 0 1 1.194-1.329c.514-.317 1.118-.476 1.811-.476.698 0 1.297.154 1.798.463.505.304.895.731 1.167 1.281.273.55.41 1.194.41 1.932v.55h-5.958v-1.12h5.139l-.792 1.047v-.665c0-.487-.073-.892-.221-1.214a1.595 1.595 0 0 0-.617-.724 1.68 1.68 0 0 0-.906-.242c-.344 0-.65.085-.919.255a1.713 1.713 0 0 0-.63.738c-.153.322-.229.718-.229 1.188v.67c0 .452.076.839.229 1.161.152.317.366.563.644.738.281.17.615.255.999.255.3 0 .557-.043.772-.128.219-.089.395-.194.53-.315.134-.125.228-.244.281-.356l.021-.046h1.583l-.014.06a2.422 2.422 0 0 1-.322.724c-.152.242-.36.468-.624.678a3.2 3.2 0 0 1-.952.503 4.147 4.147 0 0 1-1.308.188Zm4.964-.148v-7.332h1.67v1.127h.115c.125-.394.348-.7.67-.92.327-.218.732-.328 1.215-.328.125 0 .248.009.369.027.125.013.228.031.308.054v1.496a3.12 3.12 0 0 0-.409-.068 3.196 3.196 0 0 0-.423-.026c-.371 0-.695.069-.972.208a1.508 1.508 0 0 0-.644.597 1.727 1.727 0 0 0-.229.905v4.26h-1.67Zm12.008.121c-.608 0-1.138-.152-1.589-.456-.452-.309-.801-.747-1.047-1.315-.246-.568-.369-1.237-.369-2.006v-.013c0-.778.121-1.45.362-2.013.246-.568.593-1.004 1.04-1.308.452-.309.986-.463 1.603-.463.336 0 .649.054.94.161.29.103.545.25.764.443.224.192.398.42.524.684h.12V93.35h1.664v10.17h-1.664v-1.147h-.12a2.263 2.263 0 0 1-1.282 1.121 2.902 2.902 0 0 1-.946.147Zm.524-1.409c.38 0 .706-.094.979-.281.277-.193.49-.466.638-.819.152-.358.228-.78.228-1.268v-.013c0-.492-.076-.915-.228-1.268a1.824 1.824 0 0 0-.638-.819 1.656 1.656 0 0 0-.979-.288c-.376 0-.702.096-.98.288-.273.188-.483.461-.63.819-.148.353-.222.776-.222 1.268v.013c0 .492.074.915.222 1.268.147.353.357.626.63.819.273.187.6.281.98.281Zm8.734 1.436c-.729 0-1.355-.154-1.878-.463a3.089 3.089 0 0 1-1.201-1.315c-.282-.568-.423-1.241-.423-2.02v-.006c0-.77.139-1.44.416-2.012a3.134 3.134 0 0 1 1.195-1.329c.514-.317 1.118-.476 1.811-.476.698 0 1.297.154 1.798.463.505.304.894.731 1.167 1.281.273.55.409 1.194.409 1.932v.55h-5.957v-1.12h5.139l-.792 1.047v-.665c0-.487-.074-.892-.221-1.214a1.6 1.6 0 0 0-.617-.724 1.685 1.685 0 0 0-.906-.242 1.68 1.68 0 0 0-.919.255 1.722 1.722 0 0 0-.631.738c-.152.322-.228.718-.228 1.188v.67c0 .452.076.839.228 1.161.152.317.367.563.644.738a1.9 1.9 0 0 0 1 .255c.3 0 .557-.043.771-.128.22-.089.396-.194.53-.315.135-.125.228-.244.282-.356l.02-.046h1.584l-.014.06a2.422 2.422 0 0 1-.322.724c-.152.242-.36.468-.624.678a3.2 3.2 0 0 1-.952.503 4.15 4.15 0 0 1-1.309.188Zm7.735 0c-.621 0-1.158-.087-1.61-.262-.447-.179-.8-.425-1.06-.738a2.098 2.098 0 0 1-.463-1.1v-.013h1.658l.006.013c.09.255.257.463.503.624.246.161.577.242.993.242.278 0 .521-.038.732-.114.21-.081.375-.191.496-.329a.713.713 0 0 0 .181-.483v-.014a.665.665 0 0 0-.262-.536c-.174-.148-.462-.266-.865-.356l-1.187-.268c-.466-.103-.85-.246-1.154-.43a1.878 1.878 0 0 1-.685-.677 1.925 1.925 0 0 1-.221-.94v-.006c0-.443.123-.832.369-1.167.25-.336.597-.597 1.04-.785.443-.188.952-.282 1.529-.282.595 0 1.107.09 1.537.268.429.18.764.425 1.006.738s.38.669.416 1.067v.013h-1.57l-.007-.02c-.062-.232-.212-.43-.449-.59-.233-.166-.546-.248-.939-.248-.246 0-.468.038-.664.114a1.082 1.082 0 0 0-.457.322.741.741 0 0 0-.161.476v.007c0 .143.036.268.108.375a.934.934 0 0 0 .355.282c.161.08.374.152.638.215l1.187.261c.72.162 1.252.4 1.597.718.344.318.516.745.516 1.282v.013c0 .465-.134.872-.402 1.221-.269.349-.638.622-1.107.819-.47.192-1.004.288-1.604.288Zm8.46-.148v-7.332h1.67v1.14h.115c.156-.407.409-.722.758-.946.353-.223.771-.335 1.254-.335.331 0 .628.054.892.161a1.973 1.973 0 0 1 1.134 1.16h.121a2.13 2.13 0 0 1 .503-.69c.219-.202.474-.356.765-.463.295-.112.613-.168.952-.168.492 0 .913.098 1.262.295.353.192.624.47.811.832.193.362.289.796.289 1.301v5.045h-1.671v-4.635c0-.322-.049-.588-.147-.799a.983.983 0 0 0-.436-.476c-.197-.107-.445-.16-.745-.16-.291 0-.543.066-.758.2-.215.13-.382.307-.503.53a1.622 1.622 0 0 0-.175.758v4.582h-1.67v-4.756c0-.273-.054-.508-.161-.704a1.032 1.032 0 0 0-.456-.45 1.452 1.452 0 0 0-.705-.16c-.272 0-.518.07-.738.214a1.458 1.458 0 0 0-.509.577 1.802 1.802 0 0 0-.182.818v4.461h-1.67Zm14.491.121c-.461 0-.875-.089-1.241-.268a2.108 2.108 0 0 1-.859-.758c-.206-.331-.309-.72-.309-1.168v-.013c0-.434.108-.807.322-1.12.215-.318.53-.566.946-.745.416-.179.922-.284 1.516-.315l2.711-.168v1.1l-2.476.161c-.469.027-.816.125-1.04.295-.223.17-.335.407-.335.711v.014c0 .313.118.557.355.731.242.175.548.262.92.262.335 0 .635-.067.898-.201.264-.135.472-.316.624-.544.152-.232.228-.494.228-.785v-2.321c0-.367-.116-.646-.348-.838-.233-.197-.577-.296-1.034-.296-.38 0-.691.067-.932.201a.992.992 0 0 0-.49.557l-.006.027h-1.577l.007-.06c.053-.412.214-.772.483-1.08.268-.309.624-.548 1.066-.718.443-.17.953-.255 1.53-.255.635 0 1.172.098 1.61.295a2.15 2.15 0 0 1 1 .845c.228.367.342.808.342 1.322v5.011h-1.651v-1.006h-.114a2.254 2.254 0 0 1-1.247.993 2.888 2.888 0 0 1-.899.134Zm5.917-.121v-7.332h1.67v1.127h.114c.125-.394.349-.7.671-.92.327-.218.731-.328 1.214-.328.126 0 .249.009.369.027.125.013.228.031.309.054v1.496a3.147 3.147 0 0 0-.409-.068 3.207 3.207 0 0 0-.423-.026c-.371 0-.695.069-.973.208a1.513 1.513 0 0 0-.644.597 1.736 1.736 0 0 0-.228.905v4.26h-1.67Zm10.532 2.436v-3.549h-.114a1.973 1.973 0 0 1-.516.664 2.29 2.29 0 0 1-.765.423 2.99 2.99 0 0 1-.959.147c-.613 0-1.145-.152-1.597-.456-.452-.309-.801-.747-1.047-1.315-.241-.568-.362-1.237-.362-2.006v-.013c0-.778.121-1.45.362-2.013.246-.568.595-1.004 1.047-1.308.456-.309.995-.463 1.617-.463.331 0 .639.054.925.161.291.107.548.262.772.463.228.197.411.434.55.711h.087v-1.214h1.671v9.768h-1.671Zm-1.818-3.724c.376 0 .7-.096.973-.288.277-.192.492-.465.644-.819.152-.357.228-.778.228-1.26v-.014c0-.488-.076-.908-.228-1.261a1.858 1.858 0 0 0-.644-.826c-.273-.192-.599-.288-.98-.288-.375 0-.702.096-.979.288-.277.188-.49.461-.637.819-.148.353-.222.776-.222 1.268v.013c0 .492.074.915.222 1.268.152.353.364.626.637.819.273.187.602.281.986.281Zm7.95 1.436c-.546 0-1.004-.105-1.375-.315a2.028 2.028 0 0 1-.839-.933c-.188-.411-.282-.908-.282-1.489v-4.743h1.671v4.36c0 .568.112.996.335 1.282.224.286.588.429 1.094.429.268 0 .505-.04.711-.121.21-.085.384-.205.523-.362.139-.156.244-.344.315-.563.072-.224.108-.474.108-.752v-4.273h1.67v7.332h-1.67v-1.113h-.114a2.055 2.055 0 0 1-.47.677 2.092 2.092 0 0 1-.724.436c-.282.099-.6.148-.953.148Zm9.11 0c-.729 0-1.355-.154-1.878-.463a3.089 3.089 0 0 1-1.201-1.315c-.282-.568-.423-1.241-.423-2.02v-.006c0-.77.139-1.44.416-2.012a3.138 3.138 0 0 1 1.194-1.329c.515-.317 1.119-.476 1.812-.476.697 0 1.297.154 1.798.463.505.304.894.731 1.167 1.281.273.55.409 1.194.409 1.932v.55h-5.957v-1.12h5.139l-.792 1.047v-.665c0-.487-.074-.892-.221-1.214a1.607 1.607 0 0 0-.617-.724 1.685 1.685 0 0 0-.906-.242c-.345 0-.651.085-.919.255a1.722 1.722 0 0 0-.631.738c-.152.322-.228.718-.228 1.188v.67c0 .452.076.839.228 1.161.152.317.367.563.644.738a1.9 1.9 0 0 0 1 .255c.299 0 .557-.043.771-.128.219-.089.396-.194.53-.315.134-.125.228-.244.282-.356l.02-.046h1.583l-.013.06a2.448 2.448 0 0 1-.322.724c-.152.242-.36.468-.624.678a3.193 3.193 0 0 1-.953.503 4.138 4.138 0 0 1-1.308.188Zm4.998-3.294v-1.516h4.482v1.516h-4.482Zm6.555 5.582v-9.768h1.67v1.147h.114c.134-.264.309-.49.523-.677a2.4 2.4 0 0 1 .758-.437c.287-.103.602-.154.946-.154.613 0 1.143.154 1.59.463.452.309.801.747 1.047 1.315.25.563.375 1.232.375 2.006v.013c0 .778-.123 1.449-.369 2.013-.246.563-.594.999-1.046 1.308-.447.304-.98.456-1.597.456-.335 0-.648-.051-.939-.154a2.394 2.394 0 0 1-.765-.45 2.181 2.181 0 0 1-.523-.684h-.114v3.603h-1.67Zm3.488-3.724c.38 0 .707-.094.979-.281.273-.193.483-.466.631-.819.148-.358.221-.78.221-1.268v-.013c0-.497-.073-.922-.221-1.275-.148-.353-.358-.624-.631-.812-.272-.192-.599-.288-.979-.288s-.709.096-.986.288c-.273.188-.485.459-.637.812-.148.353-.222.776-.222 1.268v.014c0 .491.074.916.222 1.274.152.353.366.626.644.819.277.187.603.281.979.281Zm7.218 1.409c-.46 0-.874-.089-1.241-.268a2.112 2.112 0 0 1-.858-.758c-.206-.331-.309-.72-.309-1.168v-.013c0-.434.107-.807.322-1.12.215-.318.53-.566.946-.745.416-.179.921-.284 1.516-.315l2.71-.168v1.1l-2.475.161c-.47.027-.816.125-1.04.295-.223.17-.335.407-.335.711v.014c0 .313.118.557.355.731.242.175.548.262.919.262.336 0 .635-.067.899-.201.264-.135.472-.316.624-.544.152-.232.228-.494.228-.785v-2.321c0-.367-.116-.646-.349-.838-.232-.197-.576-.296-1.033-.296-.38 0-.691.067-.932.201a.992.992 0 0 0-.49.557l-.007.027h-1.576l.007-.06c.053-.412.214-.772.483-1.08.268-.309.623-.548 1.066-.718.443-.17.953-.255 1.53-.255.635 0 1.172.098 1.61.295.438.192.771.474.999.845.229.367.343.808.343 1.322v5.011h-1.651v-1.006h-.114a2.249 2.249 0 0 1-1.248.993 2.88 2.88 0 0 1-.899.134Zm9.071 2.456c-.644 0-1.201-.085-1.671-.255-.465-.17-.832-.412-1.1-.725a2.053 2.053 0 0 1-.49-1.08l.007-.02h1.664l.013.02c.054.233.217.423.49.57.277.152.648.228 1.113.228.573 0 1.016-.127 1.329-.382.317-.255.476-.617.476-1.087v-1.409h-.114c-.139.264-.32.488-.543.671-.22.184-.472.322-.759.416-.281.09-.592.134-.932.134-.617 0-1.152-.147-1.603-.443a2.936 2.936 0 0 1-1.047-1.241c-.241-.527-.362-1.138-.362-1.831v-.013c0-.707.123-1.329.369-1.866a2.978 2.978 0 0 1 1.046-1.26c.457-.305 1-.457 1.631-.457.339 0 .65.054.932.161a2.36 2.36 0 0 1 1.288 1.167h.087v-1.207h1.671v7.151c0 .564-.143 1.051-.43 1.463-.281.416-.684.735-1.207.959-.523.224-1.143.336-1.858.336Zm0-4.247c.384 0 .715-.092.992-.275.278-.188.49-.445.638-.772.152-.326.228-.706.228-1.14v-.013c0-.434-.076-.815-.228-1.141a1.756 1.756 0 0 0-.638-.772c-.277-.187-.608-.281-.992-.281-.39 0-.72.094-.993.281a1.75 1.75 0 0 0-.618.772 2.912 2.912 0 0 0-.207 1.14v.014c0 .429.069.809.207 1.14a1.8 1.8 0 0 0 .618.772c.273.183.603.275.993.275Zm8.681 1.818c-.729 0-1.356-.154-1.879-.463a3.089 3.089 0 0 1-1.201-1.315c-.282-.568-.422-1.241-.422-2.02v-.006c0-.77.138-1.44.416-2.012a3.125 3.125 0 0 1 1.194-1.329c.514-.317 1.118-.476 1.811-.476.698 0 1.297.154 1.798.463.505.304.894.731 1.167 1.281.273.55.409 1.194.409 1.932v.55h-5.957v-1.12h5.139l-.792 1.047v-.665c0-.487-.073-.892-.221-1.214a1.6 1.6 0 0 0-.617-.724 1.683 1.683 0 0 0-.906-.242 1.68 1.68 0 0 0-.919.255 1.722 1.722 0 0 0-.631.738c-.152.322-.228.718-.228 1.188v.67c0 .452.076.839.228 1.161.153.317.367.563.644.738a1.9 1.9 0 0 0 1 .255c.3 0 .557-.043.772-.128.219-.089.395-.194.53-.315.134-.125.228-.244.281-.356l.02-.046h1.584l-.014.06a2.422 2.422 0 0 1-.322.724c-.152.242-.36.468-.624.678a3.2 3.2 0 0 1-.952.503 4.147 4.147 0 0 1-1.308.188Zm7.735 0c-.622 0-1.159-.087-1.61-.262-.448-.179-.801-.425-1.06-.738a2.082 2.082 0 0 1-.463-1.1v-.013h1.657l.006.013c.09.255.258.463.504.624.246.161.576.242.992.242.278 0 .521-.038.732-.114.21-.081.375-.191.496-.329a.713.713 0 0 0 .181-.483v-.014a.667.667 0 0 0-.261-.536c-.175-.148-.463-.266-.866-.356l-1.187-.268c-.465-.103-.85-.246-1.154-.43a1.875 1.875 0 0 1-.684-.677 1.914 1.914 0 0 1-.222-.94v-.006c0-.443.123-.832.369-1.167.251-.336.597-.597 1.04-.785.443-.188.953-.282 1.53-.282.594 0 1.107.09 1.536.268.429.18.765.425 1.006.738.242.313.38.669.416 1.067v.013h-1.57l-.006-.02c-.063-.232-.213-.43-.45-.59-.232-.166-.546-.248-.939-.248-.246 0-.467.038-.664.114a1.072 1.072 0 0 0-.456.322.736.736 0 0 0-.161.476v.007c0 .143.035.268.107.375a.934.934 0 0 0 .355.282c.161.08.374.152.638.215l1.187.261c.72.162 1.252.4 1.597.718.344.318.516.745.516 1.282v.013c0 .465-.134.872-.402 1.221-.268.349-.637.622-1.107.819-.47.192-1.004.288-1.603.288Z" fill="#15141A"/></g></g><path stroke="#F0F0F4" stroke-width=".675" d="M35.032 75.943h270.185"/></g><defs><clipPath id="a"><rect x=".87" y=".87" width="297.58" height="166.825" rx="8.444" fill="#fff"/></clipPath><clipPath id="c"><path d="M32.87 37.097a4.227 4.227 0 0 1 4.228-4.227H315.87v100.734H37.098a4.228 4.228 0 0 1-4.228-4.228V37.097Z" fill="#fff"/></clipPath><filter id="b" x="-51.565" y="-47.343" width="451.87" height="269.604" filterUnits="userSpaceOnUse" color-interpolation-filters="sRGB"><feFlood flood-opacity="0" result="BackgroundImageFix"/><feColorMatrix in="SourceAlpha" values="0 0 0 0 0 0 0 0 0 0 0 0 0 0 0 0 0 0 127 0" result="hardAlpha"/><feOffset dy="4.222"/><feGaussianBlur stdDeviation="42.218"/><feComposite in2="hardAlpha" operator="out"/><feColorMatrix values="0 0 0 0 0.281306 0 0 0 0 0.281306 0 0 0 0 0.281306 0 0 0 0.15 0"/><feBlend in2="BackgroundImageFix" result="effect1_dropShadow_8364_11348"/><feBlend in="SourceGraphic" in2="effect1_dropShadow_8364_11348" result="shape"/></filter></defs></svg>