<svg width="299" height="168" fill="none" xmlns="http://www.w3.org/2000/svg"><g clip-path="url(#a)"><rect x=".874" y=".874" width="297.58" height="166.825" rx="8.444" fill="#ADD2FF"/><g filter="url(#b)"><g clip-path="url(#c)"><path d="M32.874 37.101a4.227 4.227 0 0 1 4.227-4.227h278.773v100.733H37.101a4.227 4.227 0 0 1-4.227-4.227V37.101Z" fill="#fff"/><rect x="37.101" y="37.101" width="53" height="34" rx="4.227" fill="#F0F0F4"/><path fill-rule="evenodd" clip-rule="evenodd" d="M49.505 48.615a7.327 7.327 0 0 0-4.128 3.615 7.21 7.21 0 0 0-.635 1.833 7.311 7.311 0 0 0 .631 4.712 7.351 7.351 0 0 0 1.978 2.433 7.26 7.26 0 0 0 2.648 1.335c1.214.325 2.506.317 3.728.04a6.612 6.612 0 0 0 2.985-1.552c.881-.81 1.512-1.876 1.845-3.023.364-1.25.411-2.586.184-3.87h-6.854v2.843h3.971a3.43 3.43 0 0 1-1.457 2.252 4.173 4.173 0 0 1-1.606.635 4.806 4.806 0 0 1-1.739-.004 4.313 4.313 0 0 1-1.621-.701 4.505 4.505 0 0 1-1.669-2.236 4.421 4.421 0 0 1 0-2.836 4.55 4.55 0 0 1 1.058-1.72A4.32 4.32 0 0 1 51 51.161a4.346 4.346 0 0 1 2.139.086 3.922 3.922 0 0 1 1.57.925l1.34-1.34c.235-.239.482-.47.709-.717a7.104 7.104 0 0 0-2.346-1.453 7.353 7.353 0 0 0-4.908-.047Z" fill="#fff"/><path fill-rule="evenodd" clip-rule="evenodd" d="M49.505 48.615a7.377 7.377 0 0 1 4.908.043 7.08 7.08 0 0 1 2.346 1.453c-.227.247-.474.478-.709.717l-1.34 1.34a3.969 3.969 0 0 0-1.57-.925A4.3 4.3 0 0 0 51 51.157a4.353 4.353 0 0 0-2.177 1.21 4.52 4.52 0 0 0-1.058 1.72c-.795-.619-1.59-1.234-2.389-1.853a7.32 7.32 0 0 1 4.128-3.619Z" fill="#EA4335"/><path fill-rule="evenodd" clip-rule="evenodd" d="M44.746 54.06a7.27 7.27 0 0 1 .635-1.834c.795.62 1.59 1.234 2.39 1.853a4.395 4.395 0 0 0 0 2.836c-.796.619-1.591 1.237-2.386 1.852a7.25 7.25 0 0 1-.639-4.708Z" fill="#FBBC05"/><path fill-rule="evenodd" clip-rule="evenodd" d="M51.886 54.134h6.855a8.617 8.617 0 0 1-.184 3.87c-.333 1.147-.964 2.213-1.845 3.023l-2.315-1.797a3.43 3.43 0 0 0 1.457-2.253h-3.971c.003-.947.003-1.895.003-2.843Z" fill="#4285F4"/><path fill-rule="evenodd" clip-rule="evenodd" d="M45.377 58.771c.795-.615 1.59-1.233 2.386-1.852a4.528 4.528 0 0 0 1.668 2.236c.486.34 1.042.584 1.622.701a4.72 4.72 0 0 0 1.739.004 4.172 4.172 0 0 0 1.605-.634l2.315 1.797c-.834.772-1.88 1.297-2.984 1.551-1.222.279-2.515.286-3.73-.039a7.199 7.199 0 0 1-2.647-1.335 7.334 7.334 0 0 1-1.974-2.429Z" fill="#34A853"/><path d="m75.02 58.824 4.147-4.145a.473.473 0 0 0-.337-.81.477.477 0 0 0-.336.14l-3.742 3.743-3.74-3.743a.475.475 0 0 0-.671.671l4.145 4.145h.534Z" fill="#000"/><path d="M107.807 52.322h-1.21a2.522 2.522 0 0 0-1.02-1.581 2.74 2.74 0 0 0-.835-.41 3.328 3.328 0 0 0-.956-.137c-.605 0-1.153.153-1.644.46-.488.305-.877.755-1.166 1.35-.286.596-.429 1.326-.429 2.191 0 .865.143 1.596.429 2.191.289.595.678 1.046 1.166 1.351a3.047 3.047 0 0 0 1.644.46c.332 0 .651-.046.956-.138.306-.09.584-.226.835-.404a2.57 2.57 0 0 0 1.02-1.586h1.21c-.092.51-.257.967-.498 1.37a3.75 3.75 0 0 1-.898 1.03 3.93 3.93 0 0 1-1.205.64c-.442.146-.916.219-1.42.219-.852 0-1.61-.208-2.273-.625-.664-.416-1.186-1.008-1.567-1.776-.38-.767-.57-1.678-.57-2.732 0-1.054.19-1.964.57-2.732.381-.768.903-1.36 1.567-1.776.663-.416 1.421-.624 2.273-.624.504 0 .978.073 1.42.22.446.145.847.36 1.205.643.358.28.657.621.898 1.025.241.4.406.857.498 1.37Zm4.004 7.045c-.475 0-.906-.09-1.293-.268a2.22 2.22 0 0 1-.922-.786c-.228-.345-.342-.76-.342-1.249 0-.43.085-.777.254-1.044a1.79 1.79 0 0 1 .678-.634c.283-.153.595-.267.937-.342.345-.078.691-.14 1.039-.185a47.72 47.72 0 0 1 1.108-.132c.286-.032.494-.086.624-.16.134-.076.2-.206.2-.391v-.04c0-.48-.131-.855-.395-1.121-.26-.267-.655-.4-1.185-.4-.55 0-.981.12-1.293.36-.313.241-.532.498-.659.771l-1.093-.39c.195-.455.455-.81.781-1.064a2.92 2.92 0 0 1 1.073-.536c.39-.104.774-.156 1.151-.156.241 0 .518.029.83.087.315.056.62.171.912.347.296.175.542.44.737.795.195.355.293.83.293 1.425v4.937h-1.152v-1.014h-.058a2.01 2.01 0 0 1-.391.522 2.245 2.245 0 0 1-.727.473c-.302.13-.671.195-1.107.195Zm.176-1.034c.455 0 .839-.09 1.151-.269a1.82 1.82 0 0 0 .712-.693c.163-.282.244-.58.244-.892v-1.054c-.048.058-.156.112-.322.16a5.368 5.368 0 0 1-.566.123 25.893 25.893 0 0 1-1.102.146c-.3.04-.579.103-.84.19a1.449 1.449 0 0 0-.624.386c-.156.169-.234.4-.234.693 0 .4.148.702.444.907.299.202.678.303 1.137.303Zm5.36 3.669V51.697h1.113v1.19h.136c.085-.13.202-.295.352-.497.153-.205.371-.387.653-.546.287-.163.674-.244 1.162-.244.631 0 1.187.157 1.668.473.482.315.857.763 1.127 1.342.27.579.405 1.262.405 2.049 0 .794-.135 1.481-.405 2.064-.27.579-.644 1.028-1.122 1.346-.478.316-1.029.473-1.654.473-.481 0-.867-.08-1.156-.239a2.15 2.15 0 0 1-.669-.55 7.565 7.565 0 0 1-.361-.518h-.097v3.962h-1.152Zm1.132-6.558c0 .566.083 1.066.249 1.498.166.43.408.766.727 1.01.319.24.709.361 1.171.361.481 0 .883-.127 1.205-.38.325-.257.569-.602.732-1.035.166-.436.249-.92.249-1.454 0-.527-.081-1.002-.244-1.424a2.2 2.2 0 0 0-.727-1.01c-.322-.25-.727-.376-1.215-.376-.468 0-.862.119-1.181.356-.318.234-.559.563-.722.986-.162.42-.244.909-.244 1.468Zm10.5-3.747v.976h-3.884v-.976h3.884Zm-2.752-1.795h1.152v7.143c0 .325.047.569.141.731.098.16.221.267.371.322.153.053.314.079.483.079.127 0 .231-.007.312-.02l.195-.039.235 1.034c-.079.03-.187.059-.327.088-.14.033-.317.049-.532.049-.325 0-.644-.07-.956-.21a1.9 1.9 0 0 1-.771-.639c-.202-.286-.303-.647-.303-1.083v-7.455Zm9.207 6.225v-4.43h1.151v7.494h-1.151v-1.268h-.078c-.176.38-.449.704-.82.97-.371.264-.839.396-1.405.396-.468 0-.885-.102-1.249-.307a2.152 2.152 0 0 1-.859-.937c-.208-.42-.312-.948-.312-1.586v-4.762h1.151v4.684c0 .547.153.982.459 1.308.309.325.703.488 1.181.488.286 0 .577-.074.873-.22a1.9 1.9 0 0 0 .751-.673c.205-.303.308-.688.308-1.157Zm3.26 3.064v-7.494h1.113v1.132h.078a1.8 1.8 0 0 1 .741-.902 2.183 2.183 0 0 1 1.21-.347c.085 0 .191.002.317.005.127.003.223.008.288.015v1.17a3.406 3.406 0 0 0-.268-.043 2.648 2.648 0 0 0-.434-.034c-.365 0-.69.076-.976.229a1.68 1.68 0 0 0-.917 1.527v4.742h-1.152Zm8.026.156c-.722 0-1.345-.159-1.868-.478a3.208 3.208 0 0 1-1.206-1.346c-.279-.58-.419-1.253-.419-2.02 0-.768.14-1.444.419-2.03a3.313 3.313 0 0 1 1.181-1.376c.508-.331 1.1-.497 1.776-.497.39 0 .776.065 1.156.195.381.13.727.341 1.04.634.312.29.561.673.746 1.151.186.479.278 1.067.278 1.767v.488h-5.776v-.996h4.605c0-.422-.084-.8-.253-1.132a1.914 1.914 0 0 0-.713-.785c-.305-.192-.667-.288-1.083-.288-.458 0-.855.114-1.19.342a2.245 2.245 0 0 0-.766.878 2.579 2.579 0 0 0-.269 1.161v.663c0 .567.098 1.046.293 1.44.198.39.473.688.825.893.351.201.759.302 1.224.302.303 0 .576-.042.82-.127.247-.087.46-.218.639-.39.179-.176.317-.394.415-.654l1.112.313a2.47 2.47 0 0 1-.59.995 2.879 2.879 0 0 1-1.025.663 3.794 3.794 0 0 1-1.371.234Zm11.549 0c-.625 0-1.176-.157-1.654-.473-.478-.319-.852-.767-1.122-1.346-.27-.583-.405-1.27-.405-2.064 0-.787.135-1.47.405-2.05.27-.578.645-1.026 1.127-1.341.481-.316 1.037-.473 1.668-.473.488 0 .874.081 1.157.244.286.159.504.341.653.546.153.202.272.368.357.498h.097v-3.689h1.152v9.992h-1.113V58.04h-.136a7.565 7.565 0 0 1-.361.517 2.15 2.15 0 0 1-.669.551c-.289.16-.675.24-1.156.24Zm.156-1.034c.462 0 .852-.12 1.171-.36.319-.245.561-.582.727-1.01.166-.433.249-.933.249-1.499 0-.56-.082-1.049-.244-1.468-.163-.423-.404-.752-.722-.986-.319-.237-.713-.356-1.181-.356-.488 0-.895.125-1.22.376a2.252 2.252 0 0 0-.727 1.01 4.023 4.023 0 0 0-.239 1.424c0 .534.081 1.018.244 1.454.166.433.41.778.732 1.035.325.253.729.38 1.21.38Zm6.562-9.114v.878c0 .267-.049.552-.146.854-.094.3-.234.59-.42.874a3.09 3.09 0 0 1-.663.731l-.625-.507c.205-.293.382-.597.532-.912.153-.32.229-.659.229-1.02v-.898h1.093Zm3.805 10.148c-.722 0-1.345-.159-1.869-.478a3.212 3.212 0 0 1-1.205-1.346c-.28-.58-.42-1.253-.42-2.02 0-.768.14-1.444.42-2.03.283-.588.676-1.047 1.181-1.376.507-.331 1.099-.497 1.776-.497.39 0 .775.065 1.156.195.38.13.727.341 1.039.634.312.29.561.673.747 1.151.185.479.278 1.067.278 1.767v.488h-5.777v-.996h4.606c0-.422-.085-.8-.254-1.132a1.912 1.912 0 0 0-.712-.785c-.306-.192-.667-.288-1.083-.288-.459 0-.856.114-1.191.342a2.245 2.245 0 0 0-.766.878 2.578 2.578 0 0 0-.268 1.161v.663c0 .567.097 1.046.292 1.44.199.39.474.688.825.893.351.201.76.302 1.225.302.302 0 .575-.042.819-.127a1.74 1.74 0 0 0 .639-.39c.179-.176.318-.394.415-.654l1.113.313c-.118.377-.314.709-.591.995a2.875 2.875 0 0 1-1.024.663 3.802 3.802 0 0 1-1.371.234Zm-.703-8.665 1.191-2.263h1.346l-1.522 2.263h-1.015Zm8.602 8.665c-.703 0-1.308-.165-1.815-.497a3.238 3.238 0 0 1-1.171-1.371c-.273-.582-.41-1.248-.41-1.996 0-.76.14-1.432.42-2.015a3.317 3.317 0 0 1 1.18-1.37c.508-.332 1.1-.498 1.776-.498.527 0 1.002.097 1.425.292.423.196.769.469 1.039.82.27.351.438.761.503 1.23h-1.152c-.088-.342-.283-.644-.585-.908-.3-.267-.703-.4-1.21-.4-.449 0-.843.117-1.181.351-.335.231-.597.558-.785.981-.186.42-.279.912-.279 1.478 0 .58.091 1.084.274 1.513.185.43.445.763.78 1a2.02 2.02 0 0 0 1.191.356c.299 0 .571-.052.815-.156.243-.104.45-.254.619-.449.169-.195.29-.43.361-.702h1.152c-.065.442-.226.84-.483 1.195a2.706 2.706 0 0 1-1.01.84c-.417.204-.901.306-1.454.306Zm4.63-.156v-7.494h1.112v1.132h.078c.137-.37.384-.672.742-.902a2.183 2.183 0 0 1 1.21-.347c.085 0 .19.002.317.005s.223.008.288.015v1.17a3.406 3.406 0 0 0-.268-.043 2.66 2.66 0 0 0-.435-.034c-.364 0-.689.076-.975.229-.283.15-.508.358-.674.624a1.689 1.689 0 0 0-.244.903v4.742h-1.151Zm7.317.176c-.475 0-.906-.09-1.293-.268a2.22 2.22 0 0 1-.922-.786c-.228-.345-.341-.76-.341-1.249 0-.43.084-.777.253-1.044.169-.27.396-.481.679-.634.282-.153.595-.267.936-.342.345-.078.691-.14 1.04-.185.455-.059.824-.103 1.107-.132.286-.032.494-.086.625-.16.133-.076.2-.206.2-.391v-.04c0-.48-.132-.855-.396-1.121-.26-.267-.655-.4-1.185-.4-.55 0-.981.12-1.293.36-.312.241-.532.498-.659.771l-1.093-.39c.195-.455.456-.81.781-1.064a2.92 2.92 0 0 1 1.073-.536 4.46 4.46 0 0 1 1.152-.156c.24 0 .517.029.829.087.316.056.62.171.913.347.296.175.541.44.736.795.195.355.293.83.293 1.425v4.937h-1.151v-1.014h-.059a2.027 2.027 0 0 1-.39.522 2.256 2.256 0 0 1-.727.473c-.303.13-.672.195-1.108.195Zm.176-1.034c.455 0 .839-.09 1.151-.269a1.83 1.83 0 0 0 .957-1.585v-1.054c-.049.058-.157.112-.322.16a5.48 5.48 0 0 1-.566.123 25.962 25.962 0 0 1-1.103.146 4.397 4.397 0 0 0-.839.19 1.452 1.452 0 0 0-.625.386c-.156.169-.234.4-.234.693 0 .4.148.702.444.907.299.202.678.303 1.137.303Zm6.512-3.65v4.508h-1.151v-7.494h1.112v1.171h.098c.175-.38.442-.686.8-.917.358-.234.819-.351 1.385-.351.508 0 .952.104 1.332.312.381.205.677.517.888.937.212.416.318.943.318 1.58v4.762h-1.152v-4.683c0-.59-.153-1.048-.459-1.376-.305-.332-.725-.498-1.258-.498-.368 0-.696.08-.986.24-.286.158-.512.391-.678.697-.166.306-.249.676-.249 1.112Zm8.564-8.704v16.432h-.976V45.98h.976Z" fill="#15141A"/><rect x="37.101" y="82.024" width="246.06" height="34" rx="4.227" fill="#F0F0F4"/><path d="M63.735 106.638h-16.21a1.438 1.438 0 0 1-1.44-1.441v-8.782a1.441 1.441 0 0 1 1.44-1.44h2.555a.48.48 0 0 0 .48-.437l.16-1.73a1.432 1.432 0 0 1 1.44-1.397h6.947a1.441 1.441 0 0 1 1.441 1.442l.158 1.687a.48.48 0 0 0 .48.436h2.554a1.441 1.441 0 0 1 1.442 1.441v8.782a1.44 1.44 0 0 1-1.447 1.439Zm-16.21-10.703a.48.48 0 0 0-.48.48v8.782a.48.48 0 0 0 .48.481h16.21a.481.481 0 0 0 .48-.481v-8.782a.48.48 0 0 0-.48-.48H61.18a1.44 1.44 0 0 1-1.436-1.309l-.16-1.73a.494.494 0 0 0-.48-.524h-6.948a.48.48 0 0 0-.48.48l-.162 1.774a1.441 1.441 0 0 1-1.435 1.309h-2.554Z" fill="#000"/><path d="M55.631 104.099a3.846 3.846 0 0 1-3.77-4.593 3.843 3.843 0 1 1 3.77 4.593Zm0-6.726a2.883 2.883 0 1 0 0 5.765 2.883 2.883 0 0 0 0-5.765Z" fill="#000"/><path d="M75.355 103.524v-9.68h6.266v1.455h-4.535v2.623h4.286v1.376h-4.286v2.77h4.535v1.456h-6.266Zm8.775 0v-6.038h-1.201v-1.294h1.2v-.725c0-.492.083-.899.249-1.22a1.58 1.58 0 0 1 .785-.719c.353-.16.8-.241 1.341-.241.18 0 .345.006.497.02.152.009.293.025.423.047v1.167a2.562 2.562 0 0 0-.242-.02 3.55 3.55 0 0 0-.322-.013c-.394 0-.673.091-.838.275-.166.179-.249.445-.249.798v.63h1.59v1.295H85.8v6.038h-1.67Zm5.42 0v-6.038h-1.2v-1.294h1.2v-.725c0-.492.083-.899.249-1.22a1.58 1.58 0 0 1 .784-.719c.354-.16.8-.241 1.342-.241.179 0 .344.006.496.02.153.009.293.025.423.047v1.167a2.562 2.562 0 0 0-.241-.02 3.551 3.551 0 0 0-.322-.013c-.394 0-.673.091-.839.275-.165.179-.248.445-.248.798v.63h1.59v1.295H91.22v6.038h-1.67Zm7.715.148c-.729 0-1.355-.155-1.878-.463a3.088 3.088 0 0 1-1.201-1.315c-.282-.568-.423-1.241-.423-2.02v-.006c0-.77.139-1.44.416-2.013a3.134 3.134 0 0 1 1.194-1.328c.515-.317 1.118-.476 1.812-.476.697 0 1.297.154 1.798.463a3.03 3.03 0 0 1 1.167 1.281c.273.55.409 1.194.409 1.932v.55h-5.957v-1.12h5.139l-.792 1.046v-.664c0-.487-.074-.892-.221-1.214a1.6 1.6 0 0 0-.617-.725 1.682 1.682 0 0 0-.906-.241c-.345 0-.65.085-.92.255a1.718 1.718 0 0 0-.63.738c-.152.322-.228.718-.228 1.187v.671c0 .452.076.839.228 1.161.152.317.367.563.644.738.282.17.615.255 1 .255.3 0 .556-.043.771-.128.22-.089.396-.194.53-.315.134-.125.228-.244.282-.356l.02-.047h1.583l-.013.061a2.448 2.448 0 0 1-.322.724 2.74 2.74 0 0 1-.624.678 3.2 3.2 0 0 1-.953.503 4.145 4.145 0 0 1-1.308.188Zm8.111 0c-.738 0-1.369-.152-1.892-.456a2.996 2.996 0 0 1-1.201-1.315c-.277-.573-.416-1.257-.416-2.053v-.014c0-.791.139-1.469.416-2.032a2.963 2.963 0 0 1 1.201-1.295c.523-.304 1.152-.456 1.885-.456.631 0 1.172.11 1.624.328.456.215.816.515 1.08.9.268.38.434.825.496 1.335v.026h-1.576l-.007-.02a1.524 1.524 0 0 0-.523-.879c-.269-.228-.631-.342-1.087-.342-.38 0-.707.096-.98.289-.268.192-.474.47-.617.831-.143.363-.214.801-.214 1.315v.014c0 .519.071.964.214 1.335.148.367.356.648.624.845.269.192.593.289.973.289.434 0 .783-.099 1.046-.296.269-.196.454-.487.557-.872l.014-.027 1.57-.006-.007.06a3.06 3.06 0 0 1-.523 1.308 2.663 2.663 0 0 1-1.06.879c-.443.206-.975.309-1.597.309Zm7.762-.114c-.841 0-1.447-.155-1.818-.463-.371-.309-.557-.814-.557-1.516v-4.093h-1.141v-1.294h1.141v-1.798h1.697v1.798h1.543v1.294h-1.543v3.697c0 .362.076.628.228.798.157.166.407.248.752.248.12 0 .219-.002.295-.006l.268-.027v1.288c-.116.022-.25.04-.402.054-.148.013-.302.02-.463.02Zm4.964.114c-.545 0-1.004-.105-1.375-.316a2.026 2.026 0 0 1-.839-.932c-.188-.412-.281-.908-.281-1.489v-4.743h1.67v4.36c0 .568.112.995.335 1.282.224.286.589.429 1.094.429.268 0 .505-.04.711-.121.21-.085.385-.206.523-.362.139-.157.244-.344.316-.564.071-.223.107-.474.107-.751v-4.273h1.67v7.332h-1.67v-1.113h-.114a2.04 2.04 0 0 1-.47.677 2.098 2.098 0 0 1-.724.436 2.863 2.863 0 0 1-.953.148Zm9.111 0c-.729 0-1.356-.155-1.879-.463a3.089 3.089 0 0 1-1.201-1.315c-.282-.568-.422-1.241-.422-2.02v-.006c0-.77.138-1.44.416-2.013a3.124 3.124 0 0 1 1.194-1.328c.514-.317 1.118-.476 1.811-.476.698 0 1.297.154 1.798.463.505.304.894.73 1.167 1.281.273.55.409 1.194.409 1.932v.55h-5.957v-1.12h5.139l-.792 1.046v-.664c0-.487-.073-.892-.221-1.214a1.601 1.601 0 0 0-.617-.725 1.683 1.683 0 0 0-.906-.241 1.68 1.68 0 0 0-.919.255 1.721 1.721 0 0 0-.631.738c-.152.322-.228.718-.228 1.187v.671c0 .452.076.839.228 1.161.153.317.367.563.644.738a1.9 1.9 0 0 0 1 .255c.3 0 .557-.043.772-.128.219-.089.395-.194.53-.315.134-.125.228-.244.281-.356l.02-.047h1.584l-.014.061a2.422 2.422 0 0 1-.322.724c-.152.242-.36.468-.624.678a3.2 3.2 0 0 1-.952.503 4.147 4.147 0 0 1-1.308.188Zm4.964-.148v-7.332h1.67v1.127h.114c.126-.394.349-.7.671-.92.327-.219.732-.328 1.215-.328.125 0 .248.009.368.027.126.013.229.031.309.053v1.496a3.103 3.103 0 0 0-.409-.067 3.196 3.196 0 0 0-.423-.026c-.371 0-.695.069-.973.207a1.52 1.52 0 0 0-.644.598 1.736 1.736 0 0 0-.228.905v4.26h-1.67Zm11.794.148c-.546 0-1.004-.105-1.376-.316a2.024 2.024 0 0 1-.838-.932c-.188-.412-.282-.908-.282-1.489v-4.743h1.671v4.36c0 .568.111.995.335 1.282.224.286.588.429 1.093.429.269 0 .506-.04.712-.121.21-.085.384-.206.523-.362.138-.157.244-.344.315-.564.072-.223.107-.474.107-.751v-4.273h1.671v7.332h-1.671v-1.113h-.114a2.037 2.037 0 0 1-.469.677 2.102 2.102 0 0 1-.725.436 2.857 2.857 0 0 1-.952.148Zm5.97-.148v-7.332h1.671v1.127h.114c.174-.398.438-.71.791-.933.354-.223.794-.335 1.322-.335.819 0 1.445.237 1.878.71.434.475.651 1.148.651 2.02v4.743h-1.67V99.17c0-.572-.121-1.002-.362-1.288-.238-.286-.609-.43-1.114-.43-.331 0-.617.075-.859.222a1.46 1.46 0 0 0-.557.624 2.179 2.179 0 0 0-.194.953v4.273h-1.671Zm11.539.148c-.729 0-1.355-.155-1.878-.463a3.089 3.089 0 0 1-1.201-1.315c-.282-.568-.423-1.241-.423-2.02v-.006c0-.77.139-1.44.416-2.013a3.137 3.137 0 0 1 1.194-1.328c.515-.317 1.118-.476 1.812-.476.697 0 1.297.154 1.798.463.505.304.894.73 1.167 1.281.273.55.409 1.194.409 1.932v.55h-5.957v-1.12h5.139l-.792 1.046v-.664c0-.487-.074-.892-.221-1.214a1.603 1.603 0 0 0-.618-.725 1.68 1.68 0 0 0-.905-.241c-.345 0-.651.085-.919.255a1.721 1.721 0 0 0-.631.738c-.152.322-.228.718-.228 1.187v.671c0 .452.076.839.228 1.161.152.317.367.563.644.738a1.9 1.9 0 0 0 1 .255c.299 0 .557-.043.771-.128.219-.089.396-.194.53-.315.134-.125.228-.244.282-.356l.02-.047h1.583l-.013.061a2.448 2.448 0 0 1-.322.724c-.152.242-.36.468-.624.678a3.193 3.193 0 0 1-.953.503 4.138 4.138 0 0 1-1.308.188Zm11.774 0c-.738 0-1.369-.152-1.892-.456a2.99 2.99 0 0 1-1.201-1.315c-.277-.573-.416-1.257-.416-2.053v-.014c0-.791.139-1.469.416-2.032a2.957 2.957 0 0 1 1.201-1.295c.523-.304 1.152-.456 1.885-.456.631 0 1.172.11 1.624.328.456.215.816.515 1.08.9.268.38.434.825.496 1.335v.026h-1.576l-.007-.02a1.53 1.53 0 0 0-.523-.879c-.269-.228-.631-.342-1.087-.342-.38 0-.707.096-.98.289-.268.192-.474.47-.617.831-.143.363-.214.801-.214 1.315v.014c0 .519.071.964.214 1.335.148.367.356.648.624.845.268.192.593.289.973.289.434 0 .783-.099 1.046-.296.269-.196.454-.487.557-.872l.014-.027 1.569-.006-.006.06a3.05 3.05 0 0 1-.524 1.308 2.653 2.653 0 0 1-1.059.879c-.443.206-.975.309-1.597.309Zm6.782-.027c-.46 0-.874-.09-1.241-.268a2.121 2.121 0 0 1-.859-.758c-.205-.331-.308-.721-.308-1.168v-.013c0-.434.107-.807.322-1.121.215-.317.53-.565.946-.744.416-.18.921-.284 1.516-.316l2.71-.167v1.1l-2.475.161c-.47.027-.816.125-1.04.295-.224.17-.335.407-.335.711v.014c0 .313.118.557.355.731.242.174.548.262.919.262.336 0 .635-.068.899-.202s.472-.315.624-.543c.152-.233.228-.494.228-.785v-2.321c0-.367-.116-.646-.349-.839-.232-.197-.577-.295-1.033-.295-.38 0-.691.067-.932.201a.992.992 0 0 0-.49.557l-.007.027h-1.576l.006-.06a2.01 2.01 0 0 1 .483-1.08c.269-.31.624-.548 1.067-.718.443-.17.953-.255 1.53-.255.635 0 1.171.098 1.61.295.438.192.771.474.999.845.228.367.342.808.342 1.322v5.011h-1.65v-1.006h-.114a2.124 2.124 0 0 1-.523.604c-.21.17-.452.299-.725.389a2.884 2.884 0 0 1-.899.134Zm5.917 2.314v-9.767h1.671v1.147h.114a2.23 2.23 0 0 1 .523-.678 2.4 2.4 0 0 1 .758-.436 2.78 2.78 0 0 1 .946-.154c.613 0 1.143.154 1.59.463.452.308.801.747 1.047 1.315.25.563.375 1.232.375 2.005v.014c0 .778-.123 1.449-.369 2.013-.246.563-.595.999-1.046 1.308-.448.304-.98.456-1.597.456a2.82 2.82 0 0 1-.939-.154 2.43 2.43 0 0 1-.765-.45 2.166 2.166 0 0 1-.523-.684h-.114v3.602h-1.671Zm3.489-3.723c.38 0 .706-.094.979-.282.273-.192.483-.465.631-.818.147-.358.221-.781.221-1.268v-.013c0-.497-.074-.922-.221-1.275-.148-.353-.358-.624-.631-.812a1.655 1.655 0 0 0-.979-.288c-.38 0-.709.096-.986.288a1.834 1.834 0 0 0-.638.812c-.147.353-.221.776-.221 1.268v.013c0 .492.074.917.221 1.275.152.353.367.626.644.818.278.188.604.282.98.282Zm8.104 1.322c-.841 0-1.447-.155-1.818-.463-.371-.309-.557-.814-.557-1.516v-4.093h-1.141v-1.294h1.141v-1.798h1.697v1.798h1.543v1.294h-1.543v3.697c0 .362.076.628.228.798.157.166.407.248.752.248.12 0 .219-.002.295-.006l.268-.027v1.288c-.116.022-.25.04-.402.054-.148.013-.302.02-.463.02Zm4.964.114c-.545 0-1.004-.105-1.375-.316a2.026 2.026 0 0 1-.839-.932c-.187-.412-.281-.908-.281-1.489v-4.743h1.67v4.36c0 .568.112.995.335 1.282.224.286.589.429 1.094.429.268 0 .505-.04.711-.121.21-.085.385-.206.523-.362.139-.157.244-.344.316-.564.071-.223.107-.474.107-.751v-4.273h1.67v7.332h-1.67v-1.113h-.114a2.04 2.04 0 0 1-.47.677 2.098 2.098 0 0 1-.724.436 2.863 2.863 0 0 1-.953.148Zm5.971-.148v-7.332h1.67v1.127h.114c.126-.394.349-.7.671-.92.327-.219.731-.328 1.215-.328.125 0 .248.009.368.027.126.013.229.031.309.053v1.496a3.103 3.103 0 0 0-.409-.067 3.196 3.196 0 0 0-.423-.026c-.371 0-.695.069-.973.207a1.513 1.513 0 0 0-.644.598 1.736 1.736 0 0 0-.228.905v4.26h-1.67Zm8.667.148c-.729 0-1.355-.155-1.878-.463a3.089 3.089 0 0 1-1.201-1.315c-.282-.568-.422-1.241-.422-2.02v-.006c0-.77.138-1.44.415-2.013a3.133 3.133 0 0 1 1.195-1.328c.514-.317 1.118-.476 1.811-.476.698 0 1.297.154 1.798.463.505.304.894.73 1.167 1.281.273.55.409 1.194.409 1.932v.55h-5.957v-1.12h5.139l-.792 1.046v-.664c0-.487-.073-.892-.221-1.214a1.601 1.601 0 0 0-.617-.725 1.685 1.685 0 0 0-.906-.241 1.68 1.68 0 0 0-.919.255 1.721 1.721 0 0 0-.631.738c-.152.322-.228.718-.228 1.187v.671c0 .452.076.839.228 1.161.152.317.367.563.644.738a1.9 1.9 0 0 0 1 .255c.3 0 .557-.043.771-.128.22-.089.396-.194.53-.315.135-.125.229-.244.282-.356l.02-.047h1.584l-.014.061a2.422 2.422 0 0 1-.322.724c-.152.242-.36.468-.624.678a3.2 3.2 0 0 1-.952.503 4.15 4.15 0 0 1-1.309.188Zm11.271-.027c-.608 0-1.138-.152-1.59-.456-.452-.309-.801-.747-1.047-1.315-.246-.568-.369-1.237-.369-2.006v-.013c0-.779.121-1.45.363-2.013.246-.568.592-1.004 1.04-1.308.451-.309.986-.463 1.603-.463.335 0 .648.053.939.16.291.104.546.251.765.444.224.192.398.42.523.684h.121v-4.005h1.664v10.17h-1.664v-1.147h-.121a2.263 2.263 0 0 1-1.281 1.12 2.88 2.88 0 0 1-.946.148Zm.523-1.409c.38 0 .707-.094.98-.282a1.82 1.82 0 0 0 .637-.818c.152-.358.228-.781.228-1.268v-.013c0-.492-.076-.915-.228-1.268a1.822 1.822 0 0 0-.637-.819 1.658 1.658 0 0 0-.98-.288c-.375 0-.702.096-.979.288-.273.188-.483.46-.631.819-.147.353-.221.776-.221 1.267v.014c0 .492.074.915.221 1.268.148.353.358.626.631.818.273.188.599.282.979.282Zm5.682-4.36.584-4.032h1.724l-1.16 4.032h-1.148Zm6.783 5.796c-.729 0-1.355-.155-1.879-.463a3.086 3.086 0 0 1-1.2-1.315c-.282-.568-.423-1.241-.423-2.02v-.006c0-.77.139-1.44.416-2.013a3.137 3.137 0 0 1 1.194-1.328c.514-.317 1.118-.476 1.811-.476.698 0 1.297.154 1.798.463.506.304.895.73 1.168 1.281.272.55.409 1.194.409 1.932v.55h-5.957v-1.12h5.138l-.791 1.046v-.664c0-.487-.074-.892-.222-1.214a1.595 1.595 0 0 0-.617-.725 1.68 1.68 0 0 0-.906-.241c-.344 0-.65.085-.919.255a1.72 1.72 0 0 0-.63.738c-.152.322-.228.718-.228 1.187v.671c0 .452.076.839.228 1.161.152.317.367.563.644.738.282.17.615.255.999.255.3 0 .557-.043.772-.128.219-.089.396-.194.53-.315.134-.125.228-.244.282-.356l.02-.047h1.583l-.013.061a2.474 2.474 0 0 1-.322.724c-.152.242-.36.468-.624.678-.26.206-.577.373-.953.503a4.147 4.147 0 0 1-1.308.188Zm.483-8.473h-1.248l1.174-2.335h1.677L241.89 95.2Zm7.628 8.473c-.738 0-1.369-.152-1.892-.456a2.984 2.984 0 0 1-1.201-1.315c-.277-.573-.416-1.257-.416-2.053v-.014c0-.791.139-1.469.416-2.032a2.951 2.951 0 0 1 1.201-1.295c.523-.304 1.151-.456 1.885-.456.63 0 1.172.11 1.623.328a2.63 2.63 0 0 1 1.08.9c.269.38.434.825.497 1.335v.026h-1.577l-.006-.02a1.525 1.525 0 0 0-.524-.879c-.268-.228-.63-.342-1.086-.342-.381 0-.707.096-.98.289-.268.192-.474.47-.617.831-.143.363-.215.801-.215 1.315v.014c0 .519.072.964.215 1.335.148.367.355.648.624.845.268.192.592.289.973.289.433 0 .782-.099 1.046-.296.268-.196.454-.487.557-.872l.013-.027 1.57-.006-.007.06c-.08.497-.254.933-.523 1.308a2.656 2.656 0 0 1-1.06.879c-.443.206-.975.309-1.596.309Zm4.783-.148v-7.332h1.67v1.127h.114c.126-.394.349-.7.671-.92.327-.219.731-.328 1.214-.328.126 0 .249.009.369.027.126.013.229.031.309.053v1.496a3.13 3.13 0 0 0-.409-.067 3.196 3.196 0 0 0-.423-.026c-.371 0-.695.069-.973.207a1.513 1.513 0 0 0-.644.598 1.736 1.736 0 0 0-.228.905v4.26h-1.67Zm7.621.121c-.461 0-.875-.09-1.241-.268a2.108 2.108 0 0 1-.859-.758c-.206-.331-.309-.721-.309-1.168v-.013c0-.434.108-.807.322-1.121.215-.317.53-.565.946-.744.416-.18.922-.284 1.517-.316l2.71-.167v1.1l-2.476.161c-.469.027-.816.125-1.039.295-.224.17-.336.407-.336.711v.014c0 .313.119.557.356.731.241.174.547.262.919.262.335 0 .635-.068.899-.202s.472-.315.624-.543c.152-.233.228-.494.228-.785v-2.321c0-.367-.117-.646-.349-.839-.233-.197-.577-.295-1.033-.295-.38 0-.691.067-.933.201a.996.996 0 0 0-.49.557l-.006.027h-1.577l.007-.06a2.01 2.01 0 0 1 .483-1.08c.268-.31.624-.548 1.067-.718.442-.17.952-.255 1.529-.255.635 0 1.172.098 1.61.295.439.192.772.474 1 .845.228.367.342.808.342 1.322v5.011h-1.65v-1.006h-.114a2.263 2.263 0 0 1-1.248.993 2.888 2.888 0 0 1-.899.134Zm5.917-.121v-7.332h1.67v1.127h.114c.175-.398.439-.71.792-.933.353-.223.794-.335 1.322-.335.818 0 1.444.237 1.878.71.434.475.651 1.148.651 2.02v4.743h-1.671V99.17c0-.572-.12-1.002-.362-1.288-.237-.286-.608-.43-1.114-.43-.331 0-.617.075-.858.222a1.453 1.453 0 0 0-.557.624c-.13.269-.195.586-.195.953v4.273h-1.67Z" fill="#15141A"/></g></g><path stroke="#F0F0F4" stroke-width=".675" d="M35.036 75.947h270.185"/></g><defs><clipPath id="a"><rect x=".874" y=".874" width="297.58" height="166.825" rx="8.444" fill="#fff"/></clipPath><clipPath id="c"><path d="M32.874 37.101a4.227 4.227 0 0 1 4.227-4.227h278.773v100.733H37.101a4.227 4.227 0 0 1-4.227-4.227V37.101Z" fill="#fff"/></clipPath><filter id="b" x="-51.561" y="-47.34" width="451.87" height="269.604" filterUnits="userSpaceOnUse" color-interpolation-filters="sRGB"><feFlood flood-opacity="0" result="BackgroundImageFix"/><feColorMatrix in="SourceAlpha" values="0 0 0 0 0 0 0 0 0 0 0 0 0 0 0 0 0 0 127 0" result="hardAlpha"/><feOffset dy="4.222"/><feGaussianBlur stdDeviation="42.218"/><feComposite in2="hardAlpha" operator="out"/><feColorMatrix values="0 0 0 0 0.281306 0 0 0 0 0.281306 0 0 0 0 0.281306 0 0 0 0.15 0"/><feBlend in2="BackgroundImageFix" result="effect1_dropShadow_8282_20277"/><feBlend in="SourceGraphic" in2="effect1_dropShadow_8282_20277" result="shape"/></filter></defs></svg>