<svg xmlns="http://www.w3.org/2000/svg" xml:space="preserve" x="0" y="0" version="1.1" viewBox="0 0 21 21" width="21" height="21">
  <path fill="#0060df" d="M11.7,0H4.2v1.8h7.2l6.7,6.7l1.3-1.2l-7-7C12.2,0.1,12,0,11.7,0z"/>
  <path fill="#0060df" d="M7.2,10.5l1.4-1.4L7.2,7.6L5.7,9.1C5.7,9.1,7.2,10.5,7.2,10.5z"/>
  <path fill="#0060df" fill-rule="evenodd" d="M1.6,4.4c0-0.5,0.4-0.9,0.9-0.9H10c0.2,0,0.4,0.1,0.6,0.3l6.8,6.8c1,1,1,2.6,0,3.6l-5.3,5.3c-1,1-2.6,1-3.6,0 l-6.6-6.6c-0.2-0.2-0.3-0.4-0.3-0.6V4.4L1.6,4.4z M3.4,5.3v6.6l6.3,6.3c0.3,0.3,0.8,0.3,1.1,0l5.3-5.3c0.3-0.3,0.3-0.8,0-1.1 L9.5,5.3H3.4z"/>
</svg>
