<svg xmlns="http://www.w3.org/2000/svg" xml:space="preserve" viewBox="0 0 70 70" height="70" width="70">
  <path fill="#0060df" d="M46.6 0c-1.9 0-3.8.7-5.5 1.4-2.5 1-4.9 1.9-6.1 1.9-1.2 0-3.6-1-6.1-1.9-2.5-1-5.3-2.1-8.2-.9s-4.1 4-5.1 6.4c-1.1 2.4-2.1 4.8-3 5.7-.9.9-3.2 1.9-5.7 3-2.4 1.1-5.2 2.3-6.4 5.2-1.2 2.9-.1 5.7.9 8.2 1 2.5 1.9 4.9 1.9 6.1 0 1.2-.9 3.6-1.9 6.1-1 2.5-2.1 5.3-.9 8.2 1.2 2.9 4 4.1 6.4 5.1 2.4 1.1 4.8 2.1 5.7 3 .9.9 1.9 3.2 3 5.7 1.1 2.4 2.3 5.2 5.2 6.4 2.9 1.2 5.7.1 8.2-.9 2.5-1 4.9-1.9 6.1-1.9 1.2 0 3.6 1 6.1 1.9 2.5 1 5.3 2.1 8.2.9 2.9-1.2 4.1-4 5.2-6.4 1.1-2.4 2.1-4.8 3-5.7.9-.9 3.3-1.9 5.7-3 2.4-1.1 5.2-2.3 6.4-5.2 1.2-2.9.1-5.7-.9-8.2-1-2.5-1.9-4.9-1.9-6.1 0-1.2 1-3.6 1.9-6.1 1-2.5 2.1-5.3.9-8.2-1.2-2.9-4-4.1-6.4-5.1-2.4-1.1-4.8-2.1-5.7-3-.9-.9-1.9-3.2-3-5.7-1.1-2.4-2.3-5.2-5.2-6.4-1-.4-1.9-.5-2.8-.5zM35 16.9c.4 0 .8.1 1.1.3.3.2.6.5.8.8l4.9 9.9 10.9 1.6c.4.1.7.2 1 .5.3.2.5.6.6.9.1.4.1.8 0 1.1-.1.4-.3.7-.6 1l-7.9 7.7 1.9 10.9c.1.4 0 .8-.1 1.1-.1.4-.4.7-.7.9-.3.2-.7.4-1.1.4-.4 0-.8-.1-1.1-.2L35 48.6l-9.8 5.2c-.3.2-.7.3-1.1.2-.4 0-.8-.2-1.1-.4-.3-.2-.6-.5-.7-.9-.1-.4-.2-.7-.1-1.1L24 40.7 16.2 33c-.3-.3-.5-.6-.6-1-.1-.4-.1-.8 0-1.1.1-.4.3-.7.6-.9.3-.2.7-.4 1-.5l10.9-1.6L33 18c.2-.3.4-.6.8-.8.4-.2.8-.3 1.2-.3zm0 6.7-3.5 7.1c-.1.3-.4.6-.6.8-.3.2-.6.3-.9.4L22 33l5.7 5.5c.2.2.4.5.5.8.1.3.1.7.1 1L27 48.2l7-3.7c.3-.2.6-.2 1-.2.3 0 .7.1 1 .2l7.1 3.7-1.4-7.8c-.1-.3 0-.7.1-1 .1-.3.3-.6.5-.8L48 33l-7.9-1.1c-.3 0-.6-.2-.9-.4-.3-.2-.5-.5-.6-.8L35 23.6z"/>
</svg>
