<svg xmlns="http://www.w3.org/2000/svg" xml:space="preserve" id="Layer_1" x="0" y="0" version="1.1" viewBox="0 0 21 21">
  <style>
    .st0{fill:#0060df}
  </style>
  <path d="M11.7 0H4.2v1.8h7.2l6.7 6.7 1.3-1.2-7-7c-.2-.2-.4-.3-.7-.3z" class="st0"/>
  <path d="m7.2 10.5 1.4-1.4-1.4-1.5-1.5 1.5 1.5 1.4z" class="st0"/>
  <path fill="#0060df" fill-rule="evenodd" d="M1.7 4.4c0-.5.4-.9.9-.9H10c.2 0 .5.1.6.3l6.8 6.8c1 1 1 2.6 0 3.6l-5.3 5.3c-1 1-2.6 1-3.6 0l-6.6-6.6c-.2-.2-.3-.4-.3-.6V4.4zm1.7.9v6.6l6.3 6.3c.3.3.8.3 1.1 0l5.3-5.3c.3-.3.3-.8 0-1.1L9.5 5.3H3.4z" clip-rule="evenodd"/>
</svg>
