<svg width="60" height="63" viewBox="0 0 60 63" fill="none" xmlns="http://www.w3.org/2000/svg">
<g id="Vector">
<path d="M56.4422 13.5736L32.752 0.665993C31.9198 0.228938 30.9879 0 30.041 0C29.094 0 28.1621 0.228938 27.3299 0.665993L3.55629 13.5736C2.69805 14.0414 1.98341 14.7209 1.48519 15.5428C0.986968 16.3648 0.722983 17.2998 0.720137 18.2526V43.987C0.712439 44.9418 0.971997 45.8809 1.4713 46.7046C1.97061 47.5284 2.69106 48.2061 3.55629 48.666L27.2465 61.4929C28.0771 61.9762 29.0299 62.2275 29.9992 62.219C30.9671 62.2166 31.9169 61.9661 32.752 61.4929L56.4422 48.666C57.3004 48.1982 58.0151 47.5187 58.5133 46.6967C59.0115 45.8748 59.2755 44.9398 59.2783 43.987V18.2526C59.3028 17.2946 59.0503 16.3491 58.5493 15.5225C58.0482 14.6958 57.3184 14.0208 56.4422 13.5736Z" fill="url(#paint0_linear_10_117620)"/>
<path d="M13.8758 38.5628L12.4803 39.373C12.2306 39.5096 12.0109 39.6938 11.8341 39.915C11.6573 40.1363 11.5269 40.39 11.4505 40.6615C11.3741 40.9329 11.3532 41.2167 11.389 41.4962C11.4249 41.7757 11.5168 42.0454 11.6594 42.2895C11.8427 42.6278 12.1145 42.9114 12.4466 43.1109C12.7786 43.3104 13.1587 43.4184 13.5474 43.4237C13.9169 43.4206 14.2811 43.3377 14.6146 43.1807L16.0101 42.3705C16.2598 42.234 16.4795 42.0497 16.6563 41.8285C16.8331 41.6073 16.9635 41.3535 17.0399 41.0821C17.1163 40.8106 17.1372 40.5268 17.1013 40.2473C17.0655 39.9678 16.9736 39.6981 16.831 39.454C16.7042 39.1966 16.5251 38.9678 16.3047 38.7818C16.0843 38.5959 15.8274 38.4567 15.5501 38.3731C15.2728 38.2895 14.981 38.2631 14.6929 38.2958C14.4048 38.3284 14.1267 38.4194 13.8758 38.5628ZM22.4131 33.783L19.5399 35.4033C19.2902 35.5398 19.0706 35.7241 18.8938 35.9453C18.717 36.1665 18.5866 36.4203 18.5101 36.6918C18.4337 36.9632 18.4129 37.247 18.4487 37.5265C18.4846 37.806 18.5765 38.0757 18.719 38.3198C18.9024 38.6581 19.1742 38.9417 19.5062 39.1412C19.8383 39.3407 20.2184 39.4487 20.6071 39.454C20.9765 39.4509 21.3408 39.368 21.6743 39.211L24.5474 37.5907C24.7971 37.4541 25.0168 37.2698 25.1936 37.0486C25.3704 36.8274 25.5008 36.5737 25.5772 36.3022C25.6536 36.0307 25.6745 35.747 25.6386 35.4674C25.6027 35.1879 25.5108 34.9183 25.3683 34.6741C25.2415 34.4168 25.0623 34.188 24.8419 34.002C24.6216 33.816 24.3647 33.6768 24.0874 33.5932C23.8101 33.5096 23.5183 33.4833 23.2302 33.5159C22.9421 33.5486 22.6639 33.6395 22.4131 33.783ZM33.9877 29.8214C33.872 29.5915 33.7107 29.387 33.5132 29.2199C33.3158 29.0529 33.0863 28.9268 32.8384 28.8492V12.5572C32.8395 12.2696 32.7829 11.9847 32.6719 11.7188C32.5609 11.453 32.3977 11.2114 32.1917 11.0081C31.9856 10.8047 31.7409 10.6437 31.4715 10.5341C31.2021 10.4246 30.9134 10.3687 30.622 10.3698C30.335 10.3707 30.0511 10.4285 29.7872 10.5398C29.5233 10.6511 29.2847 10.8135 29.0856 11.0176C28.8865 11.2216 28.731 11.463 28.6283 11.7275C28.5256 11.992 28.4778 12.2741 28.4877 12.5572V28.9221C28.2398 28.9997 28.0103 29.1258 27.8129 29.2928C27.6154 29.4599 27.4541 29.6644 27.3384 29.8943C27.1842 30.179 27.0967 30.4942 27.0825 30.8167C27.0683 31.1393 27.1277 31.4608 27.2563 31.7576C27.1277 32.0544 27.0683 32.376 27.0825 32.6985C27.0967 33.021 27.1842 33.3363 27.3384 33.621C27.4541 33.8508 27.6154 34.0554 27.8129 34.2224C28.0103 34.3894 28.2398 34.5155 28.4877 34.5931V50.9581C28.4877 51.5382 28.7212 52.0946 29.1368 52.5048C29.5525 52.915 30.1163 53.1455 30.7041 53.1455C31.2919 53.1455 31.8557 52.915 32.2713 52.5048C32.687 52.0946 32.9205 51.5382 32.9205 50.9581V34.5121C33.1684 34.4345 33.3979 34.3084 33.5953 34.1414C33.7928 33.9744 33.9541 33.7698 34.0697 33.5399C34.224 33.2553 34.3114 32.94 34.3256 32.6175C34.3398 32.295 34.2804 31.9734 34.1518 31.6766C34.3417 31.0605 34.2829 30.3957 33.9877 29.8214ZM39.5779 24.2233L36.7048 25.8436C36.4551 25.9801 36.2354 26.1644 36.0586 26.3856C35.8818 26.6068 35.7514 26.8606 35.675 27.132C35.5986 27.4035 35.5777 27.6873 35.6136 27.9668C35.6495 28.2463 35.7414 28.516 35.8839 28.7601C36.0672 29.0984 36.3391 29.382 36.6711 29.5815C37.0031 29.7809 37.3833 29.889 37.772 29.8943C38.1414 29.8912 38.5057 29.8082 38.8391 29.6512L41.7122 28.031C41.962 27.8944 42.1816 27.7101 42.3584 27.4889C42.5352 27.2677 42.6656 27.014 42.742 26.7425C42.8185 26.471 42.8393 26.1872 42.8035 25.9077C42.7676 25.6282 42.6757 25.3585 42.5331 25.1144C42.4064 24.8571 42.2272 24.6282 42.0068 24.4423C41.7864 24.2563 41.5296 24.1171 41.2522 24.0335C40.9749 23.9499 40.6831 23.9236 40.3951 23.9562C40.107 23.9889 39.8288 24.0798 39.5779 24.2233ZM46.3831 25.0334C46.7526 25.0303 47.1168 24.9474 47.4503 24.7904L48.8458 23.9802C49.0952 23.8427 49.3146 23.6579 49.4914 23.4364C49.6682 23.2149 49.7989 22.9611 49.8761 22.6896C49.9532 22.4182 49.9752 22.1343 49.9409 21.8544C49.9065 21.5745 49.8165 21.304 49.6759 21.0586C49.5353 20.8131 49.347 20.5975 49.1217 20.4241C48.8964 20.2507 48.6387 20.1229 48.3632 20.0481C48.0877 19.9733 47.8 19.9529 47.5166 19.9882C47.2331 20.0234 46.9595 20.1136 46.7115 20.2536L45.316 21.0637C45.0663 21.2003 44.8466 21.3845 44.6698 21.6057C44.493 21.827 44.3626 22.0807 44.2862 22.3522C44.2098 22.6236 44.1889 22.9074 44.2248 23.1869C44.2606 23.4664 44.3525 23.7361 44.4951 23.9802C44.683 24.3086 44.9581 24.5802 45.2908 24.7658C45.6235 24.9513 46.0011 25.0439 46.3831 25.0334ZM48.8458 39.373L47.4503 38.5628C46.9498 38.2868 46.3588 38.2176 45.8068 38.3704C45.2547 38.5231 44.7863 38.8855 44.5042 39.3781C44.2221 39.8707 44.1491 40.4536 44.3012 40.9992C44.4533 41.5447 44.8182 42.0087 45.316 42.2895L46.7115 43.0997C47.0449 43.2566 47.4092 43.3396 47.7786 43.3427C48.1673 43.3374 48.5475 43.2294 48.8795 43.0299C49.2116 42.8304 49.4834 42.5468 49.6667 42.2085C49.8136 41.9721 49.9091 41.7082 49.9471 41.4335C49.9852 41.1588 49.965 40.8793 49.8878 40.6127C49.8106 40.3461 49.6782 40.0982 49.4988 39.8848C49.3194 39.6714 49.097 39.4971 48.8458 39.373ZM41.704 35.4033L38.8309 33.783C38.5829 33.6431 38.3093 33.5529 38.0258 33.5176C37.7424 33.4824 37.4547 33.5027 37.1792 33.5775C36.9038 33.6523 36.646 33.7801 36.4207 33.9535C36.1954 34.1269 36.0071 34.3426 35.8665 34.588C35.726 34.8335 35.6359 35.1039 35.6015 35.3838C35.5672 35.6637 35.5892 35.9476 35.6663 36.2191C35.7435 36.4906 35.8742 36.7443 36.051 36.9658C36.2278 37.1873 36.4472 37.3721 36.6966 37.5097L39.5697 39.1299C39.9032 39.2869 40.2674 39.3699 40.6369 39.373C41.0256 39.3677 41.4057 39.2596 41.7377 39.0602C42.0698 38.8607 42.3416 38.5771 42.5249 38.2388C42.6743 38.0031 42.7719 37.7391 42.8113 37.4638C42.8507 37.1885 42.8311 36.9081 42.7537 36.6408C42.6763 36.3735 42.5429 36.1252 42.3621 35.912C42.1813 35.6988 41.9571 35.5255 41.704 35.4033ZM19.5399 27.9499L22.4131 29.5702C22.7465 29.7272 23.1108 29.8102 23.4802 29.8133C23.8689 29.8079 24.249 29.6999 24.5811 29.5005C24.9131 29.301 25.185 29.0174 25.3683 28.6791C25.5108 28.435 25.6027 28.1653 25.6386 27.8858C25.6745 27.6063 25.6536 27.3225 25.5772 27.051C25.5008 26.7795 25.3704 26.5258 25.1936 26.3046C25.0168 26.0834 24.7971 25.8991 24.5474 25.7625L21.6743 24.1423C21.4269 24.0016 21.1537 23.9109 20.8704 23.8755C20.5872 23.8401 20.2997 23.8607 20.0246 23.9361C19.7495 24.0115 19.4924 24.1402 19.2683 24.3147C19.0441 24.4892 18.8574 24.706 18.719 24.9524C18.4441 25.4614 18.3759 26.0547 18.5284 26.6115C18.6809 27.1684 19.0426 27.647 19.5399 27.9499ZM16.0101 21.0637L14.6146 20.2536C14.3666 20.1136 14.093 20.0234 13.8095 19.9882C13.526 19.9529 13.2383 19.9733 12.9629 20.0481C12.6874 20.1229 12.4296 20.2507 12.2044 20.4241C11.9791 20.5975 11.7908 20.8131 11.6502 21.0586C11.5096 21.304 11.4196 21.5745 11.3852 21.8544C11.3509 22.1343 11.3729 22.4182 11.45 22.6896C11.5271 22.9611 11.6579 23.2149 11.8347 23.4364C12.0115 23.6579 12.2309 23.8427 12.4803 23.9802L13.8758 24.7904C14.2092 24.9474 14.5735 25.0303 14.9429 25.0334C15.3316 25.0281 15.7118 24.9201 16.0438 24.7206C16.3759 24.5211 16.6477 24.2375 16.831 23.8992C16.9707 23.661 17.0603 23.3975 17.0946 23.1244C17.1288 22.8513 17.107 22.5741 17.0304 22.3095C16.9538 22.0449 16.824 21.7982 16.6487 21.5842C16.4734 21.3701 16.2562 21.1931 16.0101 21.0637Z" fill="#20133A"/>
</g>
<defs>
<linearGradient id="paint0_linear_10_117620" x1="0.720137" y1="31.1117" x2="59.2867" y2="31.1117" gradientUnits="userSpaceOnUse">
<stop stop-color="#9059FF"/>
<stop offset="1" stop-color="#F770FF"/>
</linearGradient>
</defs>
</svg>
