<svg width="60" height="60" viewBox="0 0 60 60" fill="none" xmlns="http://www.w3.org/2000/svg">
<path id="Vector" fill-rule="evenodd" clip-rule="evenodd" d="M30 6.88383C28.8052 6.88383 27.6593 7.35843 26.8144 8.20323C25.9695 9.04803 25.4949 10.1938 25.4949 11.3885C25.4949 12.5833 25.9695 13.7291 26.8144 14.5738C27.6593 15.4186 28.8052 15.8932 30 15.8932C31.1948 15.8932 32.3407 15.4186 33.1855 14.5738C34.0304 13.7291 34.505 12.5833 34.505 11.3885C34.505 10.1938 34.0304 9.04803 33.1855 8.20323C32.3407 7.35843 31.1948 6.88383 30 6.88383ZM19.4882 11.3885C19.4887 9.08733 20.2444 6.84987 21.6394 5.01961C23.0344 3.18934 24.9916 1.86742 27.2104 1.25674C29.4293 0.646068 31.7873 0.78039 33.9225 1.63909C36.0576 2.49779 37.852 4.03342 39.0301 6.01026C40.2082 7.9871 40.7049 10.2959 40.444 12.5823C40.1832 14.8687 39.1791 17.0063 37.586 18.667C35.9929 20.3277 33.8988 21.4197 31.625 21.7755C29.3513 22.1312 27.0237 21.731 24.9994 20.6363L20.4755 25.1598C20.819 25.7886 21.0968 26.4568 21.3052 27.155H38.6947C39.3152 25.0745 40.5648 23.2372 42.2717 21.8955C43.9786 20.5538 46.0591 19.7735 48.2274 19.6618C50.3957 19.5502 52.5454 20.1126 54.3811 21.2718C56.2169 22.4311 57.6486 24.1303 58.4796 26.136C59.3106 28.1417 59.5 30.3555 59.022 32.4732C58.544 34.5909 57.4218 36.5087 55.8098 37.963C54.1978 39.4173 52.1749 40.3368 50.0192 40.5952C47.8634 40.8535 45.6805 40.4381 43.7705 39.4059L39.2466 43.9294C40.4474 46.1504 40.8086 48.7293 40.2641 51.1946C39.7197 53.66 38.306 55.847 36.2815 57.3558C34.257 58.8645 31.757 59.5943 29.2387 59.4115C26.7204 59.2288 24.352 58.1458 22.5666 56.3605C20.7812 54.5753 19.6981 52.2071 19.5154 49.6889C19.3326 47.1708 20.0624 44.6711 21.5713 42.6468C23.0802 40.6224 25.2674 39.2088 27.7329 38.6644C30.1985 38.12 32.7776 38.4812 34.9987 39.6818L39.5226 35.1584C39.1783 34.5231 38.9008 33.8538 38.6947 33.1613H21.3052C20.6847 35.2417 19.4352 37.079 17.7283 38.4208C16.0214 39.7625 13.9408 40.5428 11.7725 40.6545C9.60423 40.7661 7.45454 40.2037 5.6188 39.0445C3.78306 37.8852 2.35135 36.186 1.52036 34.1803C0.689379 32.1746 0.499893 29.9608 0.97794 27.8431C1.45599 25.7254 2.57811 23.8076 4.19015 22.3533C5.80218 20.899 7.82503 19.9795 9.98078 19.7211C12.1365 19.4627 14.3194 19.8782 16.2295 20.9104L20.7515 16.3906C19.9194 14.8548 19.4851 13.1352 19.4882 11.3885ZM25.4949 48.9278C25.4949 47.733 25.9695 46.5872 26.8144 45.7425C27.6593 44.8977 28.8052 44.423 30 44.423C31.1948 44.423 32.3407 44.8977 33.1855 45.7425C34.0304 46.5872 34.505 47.733 34.505 48.9278C34.505 50.1225 34.0304 51.2683 33.1855 52.1131C32.3407 52.9579 31.1948 53.4325 30 53.4325C28.8052 53.4325 27.6593 52.9579 26.8144 52.1131C25.9695 51.2683 25.4949 50.1225 25.4949 48.9278ZM11.2289 25.6534C10.6373 25.6534 10.0514 25.77 9.50486 25.9963C8.95828 26.2227 8.46164 26.5545 8.04331 26.9728C7.62498 27.3911 7.29313 27.8877 7.06673 28.4343C6.84033 28.9808 6.72381 29.5666 6.72381 30.1581C6.72381 30.7497 6.84033 31.3355 7.06673 31.882C7.29313 32.4286 7.62498 32.9252 8.04331 33.3435C8.46164 33.7618 8.95828 34.0936 9.50486 34.32C10.0514 34.5463 10.6373 34.6629 11.2289 34.6629C12.4237 34.6629 13.5696 34.1883 14.4144 33.3435C15.2593 32.4987 15.7339 31.3529 15.7339 30.1581C15.7339 28.9634 15.2593 27.8176 14.4144 26.9728C13.5696 26.128 12.4237 25.6534 11.2289 25.6534ZM44.266 30.1581C44.266 28.9634 44.7407 27.8176 45.5855 26.9728C46.4304 26.128 47.5763 25.6534 48.7711 25.6534C49.9659 25.6534 51.1118 26.128 51.9566 26.9728C52.8015 27.8176 53.2761 28.9634 53.2761 30.1581C53.2761 31.3529 52.8015 32.4987 51.9566 33.3435C51.1118 34.1883 49.9659 34.6629 48.7711 34.6629C47.5763 34.6629 46.4304 34.1883 45.5855 33.3435C44.7407 32.4987 44.266 31.3529 44.266 30.1581Z" fill="black"/>
</svg>
