<svg width="240" height="176" viewBox="0 0 240 176" fill="none" xmlns="http://www.w3.org/2000/svg"><g filter="url(#b)" clip-path="url(#a)"><g clip-path="url(#c)"><path d="M173.471 0H7.396A7.22 7.22 0 0 0 .175 7.22v154.041a7.22 7.22 0 0 0 7.22 7.221h166.076a7.221 7.221 0 0 0 7.221-7.221V7.221A7.22 7.22 0 0 0 173.471 0Z" fill="#fff"/><path d="M223.059 0H6.803C1.67 0 0 3.238 0 7.233V164.79c0 3.971 4.113 3.971 9.204 3.971H223.06c5.133 0 9.294-3.239 9.294-7.233V7.233c0-3.995-4.161-7.233-9.294-7.233Z" fill="#D8D8D8"/><path fill-rule="evenodd" clip-rule="evenodd" d="M15.29 0h123.77v21.013h93.293v29.126H0V21.013h15.29V0Z" fill="#ECECEF"/><path d="M23.383 3.911h11.12v11.235h-11.12V3.91Z" fill="#C1C1C5"/><path fill-rule="evenodd" clip-rule="evenodd" d="M40.754 7.425h55.6v5.62h-55.6v-5.62Z" fill="#A6A6A6" fill-opacity=".4"/><path d="M0 50.14h232.353v118.622H0V50.139Z" fill="#F7F7F8"/><path opacity=".59" fill-rule="evenodd" clip-rule="evenodd" d="M231.829 24H8.171a1.39 1.39 0 0 0-.448.073c-.142.048-.271.119-.38.208a.949.949 0 0 0-.256.31.788.788 0 0 0-.087.368V44.04a.788.788 0 0 0 .087.368.949.949 0 0 0 .257.31c.108.09.237.16.379.208.142.048.294.073.448.073H231.83c.31 0 .608-.101.828-.28a.88.88 0 0 0 .343-.679V24.96a.88.88 0 0 0-.343-.678c-.22-.18-.518-.281-.828-.281Z" fill="#fff" stroke="#CDCDCD" stroke-width="1.241"/><path fill-rule="evenodd" clip-rule="evenodd" d="M70.929 30.573h161.424v8.56H70.929v-8.56Z" fill="#A6A6A6" fill-opacity=".2"/><path fill-rule="evenodd" clip-rule="evenodd" d="M14.67 31.44c0 1.143-.036 1.943 0 2.323a5.337 5.337 0 0 0 1.035 3.074 2.906 2.906 0 0 0 1.745 1.126 2.907 2.907 0 0 0 1.745-1.126 5.338 5.338 0 0 0 1.035-3.075c.03-.379 0-1.203 0-2.322l-2.78-.476-2.78.476Zm2.78 7.943h-.079a4.32 4.32 0 0 1-2.755-1.715 6.48 6.48 0 0 1-1.252-3.713c-.054-.602-.054-1.877-.054-2.6a1.294 1.294 0 0 1 1.029-1.269l3.11-.535 3.105.535a1.3 1.3 0 0 1 1.066 1.282c0 .716 0 2.015-.055 2.6a6.564 6.564 0 0 1-1.251 3.712 4.35 4.35 0 0 1-2.792 1.709l-.072-.006Zm0-7.353-1.74.3c0 .662 0 1.162.043 1.409-.012.89.265 1.759.788 2.479.228.305.542.536.903.661l.006-4.85Z" fill="#0C0C0D" fill-opacity=".2"/><path opacity=".4" d="M27.18 28.847V40.08" stroke="#979797" stroke-width="1.241" stroke-linecap="square"/><path fill-rule="evenodd" clip-rule="evenodd" d="M39.69 33.75h-.35v-1.395a2.78 2.78 0 1 0-5.56 0v1.396h-.349a1.046 1.046 0 0 0-1.04 1.053v3.52a1.048 1.048 0 0 0 1.04 1.053h6.258a1.048 1.048 0 0 0 1.041-1.053v-3.52a1.046 1.046 0 0 0-1.04-1.053Zm-4.52-1.395a1.39 1.39 0 1 1 2.78 0v1.396h-2.78v-1.396Z" fill="#0C0C0D" fill-opacity=".8"/><path d="M44.9 28.491h11.12v11.235H44.9V28.49Z" fill="#0C0C0D" fill-opacity=".8"/><path opacity=".25" d="M.35 49.208 232 50" stroke="#979797" stroke-width="1.241" stroke-linecap="square"/><path d="M163.265 75.426H62.513a2.826 2.826 0 0 0-2.828 2.825 2.827 2.827 0 0 0 2.828 2.825h100.752a2.826 2.826 0 0 0 2.828-2.825 2.826 2.826 0 0 0-2.828-2.825Z" fill="#DFDFE3"/><path fill-rule="evenodd" clip-rule="evenodd" d="M187.105 47.136H54.375l-4.206-4.978-4.2 4.977H30.748a3.448 3.448 0 0 0-3.448 3.448v88.88a3.45 3.45 0 0 0 3.448 3.448h156.357V47.136Z" fill="#fff" stroke="#DFDFE3" stroke-width="1.293"/><path fill-rule="evenodd" clip-rule="evenodd" d="M187.105 143.081h-79.489v-25.682h79.489" fill="#0056EE"/><path fill-rule="evenodd" clip-rule="evenodd" d="M75.576 90.07h77.439a2.937 2.937 0 0 1 2.722 1.814 2.944 2.944 0 0 1-2.722 4.073H75.576a2.939 2.939 0 0 1-2.94-2.947 2.94 2.94 0 0 1 2.94-2.94Zm0 11.773h77.439a2.937 2.937 0 0 1 2.724 1.818 2.95 2.95 0 0 1-.641 3.21 2.939 2.939 0 0 1-2.083.859H75.576a2.94 2.94 0 0 1-2.725-4.05 2.943 2.943 0 0 1 2.725-1.837Z" fill="#DFDFE3"/><path d="M65.584 90.07h-3.29c-.693 0-1.255.562-1.255 1.254v3.379c0 .692.562 1.254 1.254 1.254h3.291c.693 0 1.254-.562 1.254-1.254v-3.379c0-.692-.561-1.254-1.254-1.254ZM65.584 101.843h-3.29c-.693 0-1.255.561-1.255 1.254v3.378c0 .693.562 1.254 1.254 1.254h3.291c.693 0 1.254-.561 1.254-1.254v-3.378c0-.693-.561-1.254-1.254-1.254Z" fill="#DFDFE3"/><path d="M26.999 117.101h160.106" stroke="#DFDFE3" stroke-width="1.267" stroke-linecap="square"/><path fill-rule="evenodd" clip-rule="evenodd" d="M107.616 117.399H26.904v20.036c0 1.497.512 2.933 1.423 3.992.91 1.059 2.146 1.654 3.435 1.654h75.854v-25.682Z" fill="#FAFAFC"/><path d="M57.452 130.212a2.219 2.219 0 0 0 1.998-1.203l-.446-.235a1.696 1.696 0 0 1-1.558.957 1.808 1.808 0 0 1-1.477-1.775 1.807 1.807 0 0 1 1.477-1.775 1.7 1.7 0 0 1 1.504.897l.434-.265a2.256 2.256 0 1 0-1.938 3.406l.006-.007Zm3.713 0a1.646 1.646 0 0 0 1.348-.637v.601h.48v-2.07c0-.734-.498-1.245-1.425-1.245a1.75 1.75 0 0 0-1.468.704l.427.271a1.153 1.153 0 0 1 1.035-.548c.602 0 .95.331.95.824v.127h-1.028c-.909 0-1.475.385-1.475 1.053 0 .523.38.957 1.156.957v-.037Zm.09-.433c-.512 0-.74-.24-.74-.559 0-.319.319-.602.993-.602h1.005v.445a1.429 1.429 0 0 1-1.258.734v-.018Zm3.087.367v-1.805a1.014 1.014 0 0 1 .62-.985c.128-.054.264-.081.403-.08a.938.938 0 0 1 .733.292.925.925 0 0 1 .248.749v1.805h.499v-1.853a1.323 1.323 0 0 0-1.384-1.462 1.294 1.294 0 0 0-1.131.601v-.541h-.482v3.249l.494.03Zm4.916.066a1.62 1.62 0 0 0 1.546-1.022l-.457-.193a1.165 1.165 0 0 1-1.083.752 1.206 1.206 0 0 1-1.204-1.203 1.203 1.203 0 0 1 1.204-1.204 1.153 1.153 0 0 1 1.089.722l.451-.198a1.634 1.634 0 0 0-1.534-.987 1.69 1.69 0 1 0 0 3.382l-.012-.049Zm3.79 0a1.659 1.659 0 0 0 1.511-.824l-.421-.247a1.16 1.16 0 0 1-1.09.602 1.2 1.2 0 0 1-1.203-1.059h2.87v-.223a1.604 1.604 0 0 0-1.012-1.544 1.6 1.6 0 0 0-.642-.11 1.672 1.672 0 0 0-1.211.49 1.661 1.661 0 0 0-.486 1.213 1.626 1.626 0 0 0 1.685 1.709v-.007Zm1.132-1.937h-2.353a1.201 1.201 0 0 1 1.204-1.005 1.094 1.094 0 0 1 1.155 1.011l-.006-.006Zm1.745 1.871v-4.741h-.493v4.741h.493Z" fill="#6B6B6F"/><path d="m140.629 130.152.289-.8h1.805l.289.8h.872l-1.661-4.392h-.836l-1.613 4.392h.855Zm1.841-1.57h-1.27l.638-1.745.632 1.745Zm3.123 1.637a1.211 1.211 0 0 0 1.017-.512v.445h.818v-4.747h-.818v1.913a1.204 1.204 0 0 0-1.005-.481 1.694 1.694 0 0 0-1.554 1.691 1.696 1.696 0 0 0 1.554 1.691h-.012Zm.163-.783a.91.91 0 0 1-.854-.556.914.914 0 1 1 1.756-.358.89.89 0 0 1-.26.646.902.902 0 0 1-.642.268Zm3.778.783a1.208 1.208 0 0 0 1.017-.512v.445h.819v-4.747h-.819v1.913a1.204 1.204 0 0 0-1.005-.481 1.699 1.699 0 0 0-1.554 1.691 1.696 1.696 0 0 0 1.554 1.691h-.012Zm.163-.783a.91.91 0 0 1-.854-.556.914.914 0 1 1 1.756-.358.89.89 0 0 1-.26.646.902.902 0 0 1-.642.268Z" fill="#fff"/><path d="M187.105 46.966H54.375l-4.206-4.978-4.2 4.978H30.748a3.448 3.448 0 0 0-3.448 3.448v88.879a3.446 3.446 0 0 0 3.448 3.448h156.357" stroke="#DFDFE3" stroke-width="1.293"/><path d="M150.853 113.823a1.094 1.094 0 0 0 1.072-.997v-11.284a1.076 1.076 0 0 0-.617-1.029 1.073 1.073 0 0 0-1.186.176 1.07 1.07 0 0 0-.354.746v11.284a1.096 1.096 0 0 0 .666 1.018c.133.056.275.085.419.086Zm13.102-.17a1.056 1.056 0 0 0 .816.136 1.078 1.078 0 0 0 .669-.487l5.83-9.491.051-.094a1.11 1.11 0 0 0-.395-1.423 1.063 1.063 0 0 0-.817-.138 1.068 1.068 0 0 0-.669.489l-5.83 9.491-.05.094a1.106 1.106 0 0 0 .395 1.423Zm-28.298 0a1.11 1.11 0 0 0 .395-1.423l-.05-.094-5.83-9.491a1.062 1.062 0 0 0-1.091-.502 1.056 1.056 0 0 0-.395.151 1.108 1.108 0 0 0-.395 1.423l.05.094 5.83 9.491a1.075 1.075 0 0 0 1.092.501c.14-.023.274-.074.394-.15Zm15.196 49.461a1.082 1.082 0 0 0 1.072-.99V150.84a1.08 1.08 0 1 0-2.157-.106v11.283a1.091 1.091 0 0 0 .667 1.014c.132.055.274.083.418.083Zm20.06-1.836a1.118 1.118 0 0 0 .395-1.423l-.05-.094-5.83-9.498a1.062 1.062 0 0 0-1.486-.344 1.111 1.111 0 0 0-.395 1.423l.05.087 5.83 9.498a1.083 1.083 0 0 0 .675.495 1.055 1.055 0 0 0 .824-.144h-.013Zm-42.239 0a1.058 1.058 0 0 0 .817.138 1.063 1.063 0 0 0 .668-.489l5.83-9.498.051-.087a1.111 1.111 0 0 0-.395-1.423 1.049 1.049 0 0 0-.816-.144 1.07 1.07 0 0 0-.67.488l-5.83 9.498-.05.094a1.116 1.116 0 0 0 .407 1.423h-.012Z" fill="url(#d)"/><path fill="#FAFAFC" d="M51.701 122.913h36.093v10.73H51.701z"/><path fill="#0056EE" d="M126.814 121.938h34.142v11.706h-34.142z"/><path d="m54.084 133 .567-1.598h2.282l.568 1.598h.716l-2.072-5.643h-.706L53.367 133h.717Zm.782-2.204.904-2.547h.044l.904 2.547h-1.852Zm4.792-.342c0-.739.458-1.158 1.08-1.158.604 0 .97.395.97 1.059V133h.65v-2.689c0-1.081-.575-1.599-1.432-1.599-.64 0-1.036.287-1.235.717h-.055v-.662h-.628V133h.65v-2.546Zm4.54 0c0-.739.457-1.158 1.08-1.158.603 0 .97.395.97 1.059V133h.65v-2.689c0-1.081-.576-1.599-1.433-1.599-.64 0-1.036.287-1.234.717h-.056v-.662h-.628V133h.65v-2.546Zm6.556.815c0 .794-.607 1.158-1.092 1.158-.54 0-.925-.397-.925-1.014v-2.646h-.65v2.69c0 1.08.572 1.598 1.366 1.598.64 0 1.058-.342 1.257-.771h.044V133h.65v-4.233h-.65v2.502Zm2.492-3.912h-.65V133h.65v-5.643Zm2.965 5.731c.86 0 1.488-.43 1.687-1.069l-.629-.176c-.165.441-.548.661-1.058.661-.763 0-1.29-.493-1.32-1.4h3.073v-.275c0-1.577-.937-2.117-1.819-2.117-1.146 0-1.907.904-1.907 2.205 0 1.3.75 2.171 1.973 2.171Zm-1.32-2.546c.044-.659.51-1.246 1.254-1.246.706 0 1.157.53 1.157 1.246h-2.41ZM78.953 133h.65v-2.678c0-.574.452-.992 1.07-.992.173 0 .352.033.396.044v-.662a6.81 6.81 0 0 0-.341-.011c-.507 0-.948.287-1.103.706h-.044v-.64h-.628V133Z" fill="#6B6B6F"/><path d="M139.263 133.127h1.288l-2.173-5.331h-1.28l-2.173 5.331h1.28l.342-.838h2.374l.342.838Zm-2.321-1.808.792-1.948.791 1.948h-1.583Zm4.772-2.755a.614.614 0 0 0 .606-.62.617.617 0 0 0-.606-.606.62.62 0 0 0-.62.606c0 .341.271.62.62.62Zm-.69 5.944c.729 0 1.249-.527 1.249-1.264v-4.129h-1.133v4.012c0 .264-.155.45-.38.45-.14 0-.31-.031-.419-.07l-.116.838c.194.094.519.163.799.163Zm4.209-1.288c1.187 0 2.181-.962 2.181-2.103 0-1.14-.994-2.095-2.181-2.095-1.195 0-2.196.955-2.196 2.095 0 1.141 1.001 2.103 2.196 2.103Zm0-.954c-.605 0-1.109-.528-1.109-1.149 0-.62.504-1.14 1.109-1.14.598 0 1.102.52 1.102 1.14 0 .621-.504 1.149-1.102 1.149Zm5.609-3.151v2.398l-.008-.023c0 .434-.365.776-.838.776-.45 0-.76-.342-.76-.838v-2.313h-1.095v2.553c0 .908.621 1.552 1.49 1.552.52 0 .97-.232 1.211-.597v.504h1.133v-4.012h-1.133Zm4.215 3.019c-.077.078-.232.132-.388.132-.209 0-.38-.186-.38-.45v-1.785h.869v-.916h-.869v-1.102h-1.086v1.102h-.551v.916h.551v1.963c0 .722.497 1.226 1.203 1.226.326 0 .69-.139.923-.349l-.272-.737Zm2.875.085c-.473 0-.823-.295-.954-.729h2.894c0-1.513-.737-2.468-1.994-2.468-1.172 0-2.064.877-2.064 2.088 0 1.233.931 2.11 2.126 2.11.589 0 1.28-.248 1.637-.62l-.722-.738c-.217.21-.605.357-.923.357Zm-.008-2.196c.458 0 .753.256.862.652h-1.793a.97.97 0 0 1 .931-.652Zm3.847-.163v-.745h-1.133v4.012h1.133v-1.916c0-.753.536-1.234 1.374-1.234v-.955c-.613 0-1.11.318-1.374.838ZM40.503 58.504h18.535v12.681H40.503z" fill="#fff"/><path d="m54.303 59.169-8.646-4.793c-.636-.378-1.399-.378-1.971 0l-8.647 4.793c-.636.378-1.017 1.009-1.017 1.766v9.648c0 .757.381 1.387 1.017 1.766l8.647 4.792c.636.316 1.399.316 1.97 0l8.648-4.792c.635-.379 1.017-1.01 1.017-1.766v-9.648c0-.694-.382-1.388-1.017-1.766Z" fill="#20123A"/><path d="m38.6 68.313-.51.315c-.38.19-.572.694-.38 1.072.19.379.699.568 1.08.379.064 0 .064-.063.127-.063l.509-.316c.381-.189.508-.693.318-1.072-.191-.378-.763-.567-1.145-.315Z" fill="url(#e)"/><path d="m41.778 66.547-1.08.568c-.382.252-.51.693-.318 1.072.127.252.381.378.699.378.127 0 .254-.063.381-.126l1.081-.567c.382-.19.509-.694.318-1.073-.19-.378-.7-.504-1.08-.252Z" fill="url(#f)"/><path d="M46.039 65.034c-.064-.19-.254-.316-.445-.379v-6.053a.89.89 0 0 0-.89-.757c-.382.063-.7.315-.763.757v6.117c-.19.063-.318.189-.445.378a5.075 5.075 0 0 0 0 1.387c.127.19.254.316.445.379v6.053c-.064.442.318.82.763.883.445.063.826-.315.89-.756V66.8c.19-.063.318-.19.445-.379a5.07 5.07 0 0 0 0-1.387Z" fill="url(#g)"/><path d="m48.136 62.953-1.08.63c-.382.19-.51.694-.319 1.072.255.379.7.505 1.081.316l1.08-.631c.382-.252.446-.757.192-1.135-.191-.316-.573-.442-.954-.252Z" fill="url(#h)"/><path d="M50.616 63.268c.127 0 .254-.063.381-.126l.509-.315c.381-.253.508-.757.254-1.135-.19-.379-.7-.505-1.017-.316l-.509.379c-.381.189-.509.693-.318 1.072.191.252.445.441.7.441Z" fill="url(#i)"/><path d="m51.569 68.628-.509-.315c-.381-.252-.89-.126-1.144.189-.254.378-.127.883.19 1.135.064 0 .064.063.128.063l.508.316c.128.063.255.126.382.126a.838.838 0 0 0 .826-.82c0-.316-.127-.568-.381-.694Z" fill="url(#j)"/><path d="m48.9 67.115-1.08-.568c-.382-.252-.89-.126-1.145.19-.255.378-.127.882.19 1.134.064 0 .064.064.128.064l1.08.567c.128.063.255.126.382.126.318 0 .572-.126.7-.378.317-.442.19-.946-.255-1.135Z" fill="url(#k)"/><path d="m40.697 64.34 1.081.63c.127.064.255.127.382.127a.838.838 0 0 0 .826-.82c0-.315-.127-.568-.445-.694l-1.08-.63c-.382-.19-.89-.063-1.081.315-.191.378-.064.883.317 1.072Z" fill="url(#l)"/><path d="m39.362 61.755-.508-.316c-.382-.189-.89-.063-1.081.316-.19.378-.064.882.318 1.072l.508.315c.382.19.89.063 1.081-.315.191-.379.064-.883-.318-1.072Z" fill="url(#m)"/><path d="m74.683 67.135.56-1.463h2.777l.571 1.463h.707l-2.323-5.826h-.688l-2.31 5.832.706-.007Zm3.073-2.096h-2.268l1.137-2.943 1.13 2.943Zm4.147 2.181a1.953 1.953 0 0 0 1.61-.854v.769h.7V60.83h-.65v2.74a1.948 1.948 0 0 0-1.61-.835 2.243 2.243 0 1 0 0 4.486h-.05Zm.056-.614a1.573 1.573 0 0 1-1.592-1.634 1.593 1.593 0 0 1 1.592-1.641 1.64 1.64 0 0 1 0 3.275Zm5.388.615a1.953 1.953 0 0 0 1.617-.855v.769h.614V60.83h-.615v2.74a1.953 1.953 0 0 0-1.615-.835 2.243 2.243 0 0 0 0 4.486Zm.056-.615a1.574 1.574 0 0 1-1.586-1.634 1.585 1.585 0 0 1 1.586-1.641 1.64 1.64 0 0 1 0 3.275Zm6.402.529v-2.36h2.618v-1.05h-2.618v-1.353h2.618V61.31H92.67v5.832l1.136-.007Zm4.007-4.824a.68.68 0 0 0 .713-.707.707.707 0 0 0-1.414 0 .676.676 0 0 0 .72.707h-.02Zm.571 4.824v-4.302h-1.13v4.302h1.13Zm1.973 0v-2.28c0-.725.362-1.014.934-1.014.201-.007.4.046.571.154l.4-1.088a1.64 1.64 0 0 0-.725-.166 1.185 1.185 0 0 0-1.193.744v-.664h-1.081v4.301l1.094.013Zm4.264.085a2.286 2.286 0 0 0 1.991-.995l-.903-.528a1.187 1.187 0 0 1-1.076.571 1.193 1.193 0 0 1-1.228-.91h3.428v-.411a2.148 2.148 0 0 0-2.23-2.212 2.227 2.227 0 0 0-2.262 2.249 2.177 2.177 0 0 0 2.299 2.237h-.019Zm1.112-2.721h-2.285a1.228 1.228 0 0 1 1.167-.83 1.095 1.095 0 0 1 1.137.83h-.019Zm3.214 2.636V63.81h1.075v-.989h-1.038v-.209c0-.657.092-.768.86-.768h.178v-1.008h-.282c-1.407 0-1.844.437-1.844 1.844v.153h-.706v.99h.706v3.324l1.051-.013Zm3.576.085a2.243 2.243 0 1 0-.857-.154c.279.11.577.162.876.154h-.019Zm0-1.044a1.225 1.225 0 0 1-1.17-.724 1.232 1.232 0 0 1 .863-1.706 1.227 1.227 0 0 1 1.487 1.201 1.183 1.183 0 0 1-.701 1.126 1.18 1.18 0 0 1-.454.103h-.025Zm3.644.959.965-1.352.989 1.352h1.333l-1.646-2.206 1.536-2.108h-1.272l-.91 1.278-.903-1.278h-1.321l1.524 2.101-1.61 2.213h1.315Zm6.9 0V65.29h1.309l.934 1.844h1.303l-1.168-2.139a1.9 1.9 0 0 0 1.027-1.726 1.964 1.964 0 0 0-.631-1.466 1.957 1.957 0 0 0-1.514-.507h-2.359v5.831l1.099.007Zm1.15-2.87h-1.15v-1.923h1.15c.718 0 1.087.368 1.087.94a.966.966 0 0 1-1.063.983h-.024Zm4.952 2.956a2.276 2.276 0 0 0 1.991-.996l-.903-.528a1.181 1.181 0 0 1-1.069.571 1.232 1.232 0 0 1-1.229-.91h3.428v-.411a2.148 2.148 0 0 0-2.23-2.212 2.222 2.222 0 0 0-2.261 2.249 2.175 2.175 0 0 0 2.298 2.237h-.025Zm1.112-2.722h-2.304a1.23 1.23 0 0 1 1.168-.83 1.094 1.094 0 0 1 1.136.83Zm2.925 2.636v-6.299h-1.063v6.299h1.063Zm2.2.085a1.912 1.912 0 0 0 1.585-.75v.665h1.063V64.48c0-1.088-.731-1.745-1.997-1.745a2.423 2.423 0 0 0-2.04.977l1.014.504a1.08 1.08 0 0 1 1.014-.565c.615 0 .934.319.934.78v.061h-1.131c-1.198 0-1.941.547-1.941 1.444 0 .756.559 1.284 1.499 1.284Zm.32-.909c-.455 0-.67-.16-.67-.473 0-.313.264-.54.921-.54h1.014v.233a1.422 1.422 0 0 1-1.241.78h-.024Zm3.434 2.532c.916 0 1.377-.375 1.844-1.475l1.843-4.547h-1.155l-1.032 2.79-1.143-2.79h-1.18l1.739 4.13-.074.177c-.215.51-.454.682-.848.682a.781.781 0 0 1-.583-.264l-.615.897c.359.256.788.395 1.229.4h-.025Zm6.329-3.497v-.055c0-1.272 1.512-.922 1.512-2.458a1.683 1.683 0 0 0-.564-1.22 1.673 1.673 0 0 0-1.279-.414 1.842 1.842 0 0 0-1.893 1.18l.989.424a.901.901 0 0 1 .861-.615.696.696 0 0 1 .709.402.697.697 0 0 1 .065.28c0 .903-1.352.615-1.352 2.421v.055h.952Zm-.479 1.9a.707.707 0 1 0-.7-.701.682.682 0 0 0 .453.666.676.676 0 0 0 .284.034h-.037Z" fill="#434346"/><path fill="#fff" d="M74 54h18v20H74z"/><path d="M66.131 67.008h.684l-2.437-5.525h-.684l-2.437 5.525h.684l.555-1.254h3.08l.555 1.254Zm-3.378-1.85 1.287-2.903 1.279 2.904h-2.566Zm5.227-3.064a.402.402 0 0 0 .394-.402.4.4 0 0 0-.394-.394.402.402 0 0 0-.402.394c0 .217.177.402.402.402Zm-.716 6.346c.595 0 1.013-.442 1.013-1.062V62.85h-.603v4.528c0 .306-.185.523-.45.523-.169 0-.386-.04-.515-.088l-.096.498c.16.072.426.129.651.129Zm4.155-1.335c1.166 0 2.147-.997 2.147-2.18 0-1.182-.981-2.171-2.147-2.171s-2.156.99-2.156 2.171c0 1.183.99 2.18 2.156 2.18Zm0-.539c-.828 0-1.52-.748-1.52-1.64 0-.885.692-1.633 1.52-1.633.82 0 1.512.748 1.512 1.632 0 .893-.692 1.641-1.512 1.641Zm6.07-3.716v2.646c0 .58-.586 1.07-1.286 1.07-.611 0-1.038-.475-1.038-1.15V62.85h-.603v2.646c0 .941.644 1.609 1.56 1.609.588 0 1.126-.322 1.368-.764v.667h.603V62.85h-.603Zm3.658 3.547a.599.599 0 0 1-.434.169c-.241 0-.45-.217-.45-.523V63.39h1.021v-.539h-1.021v-1.142h-.604v1.142h-.65v.54h.65v2.653c0 .62.419 1.062 1.014 1.062.281 0 .555-.097.772-.266l-.298-.442Zm3.025.169c-.82 0-1.391-.595-1.48-1.407h3.402c0-1.456-.715-2.405-1.97-2.405-1.118 0-2.05.925-2.05 2.163 0 1.279.996 2.188 2.106 2.188.58 0 1.311-.25 1.673-.644l-.37-.394c-.257.282-.82.499-1.31.499Zm-.024-3.273c.828 0 1.27.579 1.351 1.327H82.7c.113-.805.708-1.327 1.448-1.327Zm3.593.37v-.813h-.603v4.158h.603v-2.324c0-.812.667-1.391 1.608-1.391v-.54c-.764 0-1.359.355-1.608.91Z" fill="#434346"/></g></g><defs><linearGradient id="d" x1="161.917" y1="106.068" x2="124.23" y2="144.146" gradientUnits="userSpaceOnUse"><stop stop-color="#FF9100"/><stop offset=".52" stop-color="#F10366"/><stop offset="1" stop-color="#6173FF"/></linearGradient><linearGradient id="e" x1="37.321" y1="69.165" x2="52.447" y2="69.165" gradientUnits="userSpaceOnUse"><stop stop-color="#9059FF"/><stop offset="1" stop-color="#F770FF"/></linearGradient><linearGradient id="f" x1="37.321" y1="67.514" x2="52.447" y2="67.514" gradientUnits="userSpaceOnUse"><stop stop-color="#9059FF"/><stop offset="1" stop-color="#F770FF"/></linearGradient><linearGradient id="g" x1="37.322" y1="65.814" x2="52.448" y2="65.814" gradientUnits="userSpaceOnUse"><stop stop-color="#9059FF"/><stop offset="1" stop-color="#F770FF"/></linearGradient><linearGradient id="h" x1="37.321" y1="63.968" x2="52.447" y2="63.968" gradientUnits="userSpaceOnUse"><stop stop-color="#9059FF"/><stop offset="1" stop-color="#F770FF"/></linearGradient><linearGradient id="i" x1="37.321" y1="62.312" x2="52.447" y2="62.312" gradientUnits="userSpaceOnUse"><stop stop-color="#9059FF"/><stop offset="1" stop-color="#F770FF"/></linearGradient><linearGradient id="j" x1="37.321" y1="69.133" x2="52.446" y2="69.133" gradientUnits="userSpaceOnUse"><stop stop-color="#9059FF"/><stop offset="1" stop-color="#F770FF"/></linearGradient><linearGradient id="k" x1="37.322" y1="67.497" x2="52.448" y2="67.497" gradientUnits="userSpaceOnUse"><stop stop-color="#9059FF"/><stop offset="1" stop-color="#F770FF"/></linearGradient><linearGradient id="l" x1="37.321" y1="63.955" x2="52.447" y2="63.955" gradientUnits="userSpaceOnUse"><stop stop-color="#9059FF"/><stop offset="1" stop-color="#F770FF"/></linearGradient><linearGradient id="m" x1="37.322" y1="62.303" x2="52.447" y2="62.303" gradientUnits="userSpaceOnUse"><stop stop-color="#9059FF"/><stop offset="1" stop-color="#F770FF"/></linearGradient><clipPath id="a"><rect width="240" height="176" rx="8.69" fill="#fff"/></clipPath><clipPath id="c"><rect width="232" height="169" rx="8" fill="#fff"/></clipPath><filter id="b" x="-1" y="-1" width="240" height="177" filterUnits="userSpaceOnUse" color-interpolation-filters="sRGB"><feFlood flood-opacity="0" result="BackgroundImageFix"/><feColorMatrix in="SourceAlpha" values="0 0 0 0 0 0 0 0 0 0 0 0 0 0 0 0 0 0 127 0" result="hardAlpha"/><feOffset dx="3" dy="3"/><feGaussianBlur stdDeviation="2"/><feComposite in2="hardAlpha" operator="out"/><feColorMatrix values="0 0 0 0 0 0 0 0 0 0 0 0 0 0 0 0 0 0 0.1 0"/><feBlend in2="BackgroundImageFix" result="effect1_dropShadow_1043_3134"/><feBlend in="SourceGraphic" in2="effect1_dropShadow_1043_3134" result="shape"/></filter></defs></svg>
