<svg width="240" height="176" viewBox="0 0 240 176" fill="none" xmlns="http://www.w3.org/2000/svg"><g clip-path="url(#a)"><g filter="url(#b)"><path d="M9.28 0h213.44c5.104 0 9.28 3.26 9.28 7.243v154.514c0 3.984-4.176 7.243-9.28 7.243H9.28C4.176 169 0 165.741 0 161.757V7.243C0 3.259 4.176 0 9.28 0Z" fill="#F2F2F5"/></g><path fill-rule="evenodd" clip-rule="evenodd" d="M131.792 97.646h88.226v24.383h-88.226V97.646Z" fill="#B1B1B3"/><path fill-rule="evenodd" clip-rule="evenodd" d="M13.237 57.776h205.776v32.291H13.237v-32.29Z" fill="#fff" stroke="#979797" stroke-width="1.617"/><path fill-rule="evenodd" clip-rule="evenodd" d="M175.572 62.39c.332.263.73.592.995.922.398.395.73.79 1.194 1.252a51.69 51.69 0 0 1 2.388 2.965c.465.593.863 1.187 1.261 1.846.199.263.332.593.464.922.067.132.133.33.133.461.066.198.066.462 0 .66l-.199.395a.794.794 0 0 1-.332.33.507.507 0 0 1-.331.131c-.199.066-.465.198-.664.198-.531.132-1.128.263-1.791.395a90.54 90.54 0 0 1-4.643.527c-1.062.066-1.99.132-2.786.132-.398 0-.73 0-1.128-.066-.199 0-.332-.066-.531-.131-.132-.066-.199-.066-.331-.198-.266-.198-.399-.462-.399-.725 0-.132.001-.264.067-.33.066-.131.066-.197.133-.33.066-.13.199-.197.265-.263l.265-.197c.531-.33.995-.725 1.46-1.12.398-.33.796-.726 1.127-1.187.465-.659.796-1.45.995-2.24.199-1.187.266-2.439.266-3.625 0-.132 0-.198.066-.33.066-.329.332-.593.597-.724.133-.066.265-.066.464-.066s.398.066.531.132c.066.065.199.065.265.131 0 0 .133.066.199.132Z" fill="#FF8D04"/><path d="m208.466 67.266-9.021-5.009c-.664-.395-1.46-.395-2.057 0l-9.021 5.009c-.664.395-1.062 1.054-1.062 1.845v10.083c0 .79.398 1.45 1.062 1.845l9.021 5.008c.663.33 1.459.33 2.057 0l9.021-5.008c.663-.396 1.061-1.055 1.061-1.845V69.11c0-.725-.398-1.45-1.061-1.845Z" fill="#20123A"/><path d="m192.081 76.821-.53.33c-.398.197-.597.725-.398 1.12.199.395.729.593 1.127.395.067 0 .067-.066.133-.066l.531-.329c.398-.198.53-.725.331-1.12-.199-.396-.796-.593-1.194-.33Z" fill="url(#c)"/><path d="m195.398 74.976-1.127.593c-.398.264-.531.725-.332 1.12.133.264.398.396.73.396.132 0 .265-.066.398-.132l1.127-.593c.398-.198.531-.725.332-1.12-.199-.396-.73-.528-1.128-.264Z" fill="url(#d)"/><path d="M199.842 73.394c-.066-.197-.265-.33-.464-.395v-6.326a.93.93 0 0 0-.929-.791c-.398.066-.73.33-.796.79v6.393c-.199.066-.332.198-.465.395a5.333 5.333 0 0 0 0 1.45c.133.198.266.33.465.395v6.327c-.067.461.332.857.796.922.464.066.862-.329.929-.79V75.24c.199-.066.331-.198.464-.396a5.327 5.327 0 0 0 0-1.45Z" fill="url(#e)"/><path d="m202.031 71.22-1.128.659c-.398.197-.53.725-.331 1.12.265.395.729.527 1.127.33l1.128-.66c.398-.263.464-.79.199-1.186-.199-.33-.597-.461-.995-.263Z" fill="url(#f)"/><path d="M204.619 71.55c.132 0 .265-.067.398-.133l.53-.33c.398-.263.531-.79.266-1.185-.199-.396-.73-.528-1.062-.33l-.53.395c-.398.198-.531.725-.332 1.12.199.264.464.462.73.462Z" fill="url(#g)"/><path d="m205.613 77.15-.53-.329c-.398-.263-.929-.132-1.194.198-.266.395-.133.922.199 1.186.066 0 .066.066.132.066l.531.33c.133.065.265.131.398.131a.875.875 0 0 0 .862-.856c0-.33-.132-.594-.398-.725Z" fill="url(#h)"/><path d="m202.827 75.569-1.127-.593c-.398-.264-.929-.132-1.194.198-.266.395-.133.922.199 1.186.066 0 .066.066.132.066l1.128.593c.133.066.265.132.398.132.332 0 .597-.132.73-.396.331-.461.199-.988-.266-1.186Z" fill="url(#i)"/><path d="m194.271 72.67 1.127.659c.133.065.266.131.398.131a.875.875 0 0 0 .863-.856c0-.33-.133-.594-.465-.725l-1.127-.66c-.398-.197-.929-.065-1.128.33-.199.396-.066.923.332 1.12Z" fill="url(#j)"/><path d="m192.878 69.968-.531-.33c-.398-.198-.929-.066-1.128.33-.199.395-.066.922.332 1.12l.531.33c.398.197.928.065 1.127-.33.199-.395.067-.923-.331-1.12Z" fill="url(#k)"/><path d="M177.181 68.057c-18.793-6.086-34.222-4.168-47.435 4.696-10.34 6.946-18.546 17.265-27.82 33.274l-.164.264c-1.641 2.845-10.505 18.787-13.295 23.484l-.492.793c-1.888 3.176-4.103 6.152-6.565 8.997-9.11 10.121-21.091 13.362-32.252 9.856l-.41-.132c-1.478-.463-2.873-1.059-4.268-1.72l-.246-.132.328-.265c11.982-10.452 18.957-22.822 16.823-33.075-2.544-12.568-11.735-17.596-21.747-13.495-9.438 3.837-15.593 14.289-13.87 25.667l.083.396c1.395 8.666 6.565 16.207 13.869 20.97l.164.066-.903.728a117.32 117.32 0 0 1-4.842 3.506C21.173 160.6 8.125 164.437 0 161.99v2.447c9.273 2.249 22.814-1.918 35.945-10.716l.492-.331c1.888-1.257 3.693-2.58 5.335-3.969l.41-.331.246.133a30.552 30.552 0 0 0 5.58 2.315c12.393 3.903 25.77.264 35.617-10.65a68.162 68.162 0 0 0 7.14-9.857c2.544-4.035 10.915-19.117 13.213-23.284l.902-1.522c8.946-15.28 16.906-25.27 26.672-31.818 12.31-8.269 26.753-10.12 44.562-4.3.738.265 1.559-.066 1.805-.661.329-.463 0-1.125-.738-1.39Zm-135.163 77.99-.493-.198c-6.811-4.498-11.653-11.576-12.884-19.845-1.56-10.452 4.021-19.911 12.392-23.285 8.125-3.307 15.428.662 17.644 11.841l.082.331c1.642 9.459-5.17 21.234-16.741 31.156Z" fill="url(#l)"/><path d="M152.651 112.807h1.162l-1.96-4.809h-1.155l-1.96 4.809h1.155l.308-.756h2.142l.308.756Zm-2.093-1.631.714-1.757.714 1.757h-1.428Zm6.027-2.072a1.49 1.49 0 0 0-1.211.588v-1.778h-1.022v4.893h1.022v-.511c.287.378.707.595 1.211.595.966 0 1.666-.784 1.666-1.897 0-1.106-.7-1.89-1.666-1.89Zm-.294 2.926c-.497 0-.861-.364-.917-.896v-.28c.056-.525.42-.889.917-.889.567 0 .966.427.966 1.029 0 .609-.399 1.036-.966 1.036Zm4.46.861c1.071 0 1.967-.868 1.967-1.897s-.896-1.89-1.967-1.89c-1.078 0-1.981.861-1.981 1.89s.903 1.897 1.981 1.897Zm0-.861c-.546 0-1.001-.476-1.001-1.036s.455-1.029 1.001-1.029c.539 0 .994.469.994 1.029 0 .56-.455 1.036-.994 1.036Zm4.751-2.926c-.469 0-.875.21-1.092.539v-.455h-1.022v3.619h1.022v-2.163l.007.021c0-.392.329-.7.756-.7.406 0 .686.308.686.756v2.086h.987v-2.303c0-.819-.56-1.4-1.344-1.4Zm4.3 0c-.469 0-.875.21-1.092.539v-.455h-1.022v3.619h1.022v-2.163l.007.021c0-.392.329-.7.756-.7.406 0 .686.308.686.756v2.086h.987v-2.303c0-.819-.56-1.4-1.344-1.4Zm3.915 2.884c-.427 0-.742-.266-.861-.658h2.611c0-1.365-.665-2.226-1.799-2.226-1.057 0-1.862.791-1.862 1.883 0 1.113.84 1.904 1.918 1.904.532 0 1.155-.224 1.477-.56l-.651-.665c-.196.189-.546.322-.833.322Zm-.007-1.981c.413 0 .679.231.777.588h-1.617a.875.875 0 0 1 .84-.588Zm2.287 2.8h3.164v-.868h-1.834l1.82-2.03v-.721h-3.101v.868h1.771l-1.82 2.03v.721Zm3.754-1.491h1.918v-.868h-1.918v.868Zm3.894 1.491h.945l1.547-3.619h-1.064l-.952 2.443-.973-2.443h-1.071l1.568 3.619Zm4.641.084c1.071 0 1.967-.868 1.967-1.897s-.896-1.89-1.967-1.89c-1.078 0-1.981.861-1.981 1.89s.903 1.897 1.981 1.897Zm0-.861c-.546 0-1.001-.476-1.001-1.036s.455-1.029 1.001-1.029c.539 0 .994.469.994 1.029 0 .56-.455 1.036-.994 1.036Zm5.06-2.842v2.163l-.007-.021c0 .392-.329.7-.756.7-.406 0-.686-.308-.686-.756v-2.086h-.987v2.303c0 .819.56 1.4 1.344 1.4.469 0 .875-.21 1.092-.539v.455h1.022v-3.619h-1.022Zm3.256 3.703c.889 0 1.47-.455 1.47-1.169 0-.791-.693-1.001-1.316-1.162-.49-.133-.637-.189-.637-.385 0-.126.175-.217.427-.217.308 0 .686.119 1.015.322l.413-.728a2.633 2.633 0 0 0-1.428-.448c-.854 0-1.421.49-1.414 1.176.007.714.581.917 1.323 1.099.371.098.637.168.637.392 0 .161-.196.273-.469.273a2.06 2.06 0 0 1-1.211-.406l-.441.707c.434.35 1.05.546 1.631.546Z" fill="#fff"/><path d="M25.334 69.828h-3.32l-.4 1.96h3.008l-.096.496H21.51l-.424 2.064h3.312l-.112.488h-3.832l1.144-5.496h3.832l-.096.488Zm2.624.776c.395 0 .71.112.944.336.235.224.352.52.352.888 0 .101-.021.264-.064.488a59.51 59.51 0 0 1-.216 1.032c-.149.693-.253 1.19-.312 1.488h-.496l.336-1.616c.086-.4.147-.696.184-.888a2.63 2.63 0 0 0 .056-.416c0-.261-.08-.47-.24-.624-.154-.155-.365-.232-.632-.232-.357 0-.685.106-.984.32-.293.208-.482.464-.568.768l-.56 2.688h-.496l.864-4.136h.496l-.136.656c.16-.224.374-.405.64-.544a1.78 1.78 0 0 1 .832-.208Zm3.228.552-.36 1.704c-.043.224-.093.47-.152.736-.053.266-.08.421-.08.464 0 .123.032.224.096.304a.32.32 0 0 0 .256.112.81.81 0 0 0 .296-.056.996.996 0 0 0 .248-.136l.2.4c-.25.165-.517.248-.8.248-.24 0-.432-.075-.576-.224a.806.806 0 0 1-.216-.584c0-.09.03-.296.088-.616.064-.32.176-.853.336-1.6l.16-.752h-.672l.096-.456h.672l.24-1.136h.496l-.24 1.136h1.04l-.088.456h-1.04Zm2.417.352c.17-.283.413-.504.728-.664.314-.16.661-.24 1.04-.24l-.064.456c-.438 0-.832.125-1.184.376a1.807 1.807 0 0 0-.704.96l-.512 2.44h-.496l.864-4.136h.496l-.168.808Zm2.122 1.456a1.695 1.695 0 0 0-.008.192c0 .394.112.715.336.96.23.24.536.36.92.36.267 0 .536-.048.808-.144a2.02 2.02 0 0 0 .672-.384l.264.36c-.208.186-.488.338-.84.456a3.279 3.279 0 0 1-.992.168c-.32 0-.605-.072-.856-.216a1.604 1.604 0 0 1-.592-.616 1.883 1.883 0 0 1-.208-.896c0-.443.12-.864.36-1.264.24-.406.555-.728.944-.968.39-.245.797-.368 1.224-.368.272 0 .52.048.744.144.224.096.403.232.536.408.133.17.2.368.2.592 0 .368-.173.664-.52.888-.347.219-.824.328-1.432.328h-1.56Zm1.984-1.904c-.427 0-.813.138-1.16.416a2.222 2.222 0 0 0-.72 1.032h1.552c.432 0 .768-.064 1.008-.192s.36-.31.36-.544c0-.214-.099-.384-.296-.512-.192-.134-.44-.2-.744-.2Zm1.606 3.384 3.256-3.272h-2.528l.104-.472h3.2l-.08.392-3.264 3.272h2.592l-.096.472h-3.256l.072-.392ZM46.16 70.7h.536l.744 3.504 2.192-3.504h.568l-2.656 4.136h-.44L46.16 70.7Zm5.672 4.232c-.304 0-.59-.08-.856-.24a1.818 1.818 0 0 1-.64-.648 1.737 1.737 0 0 1-.232-.872c0-.459.117-.883.352-1.272.24-.395.56-.71.96-.944.4-.235.832-.352 1.296-.352.31 0 .597.08.864.24.272.16.488.376.648.648.16.266.24.554.24.864 0 .459-.12.885-.36 1.28s-.563.71-.968.944a2.56 2.56 0 0 1-1.304.352Zm.08-.456c.363 0 .699-.094 1.008-.28.315-.192.565-.445.752-.76.187-.32.28-.667.28-1.04 0-.235-.061-.454-.184-.656a1.338 1.338 0 0 0-.48-.496 1.244 1.244 0 0 0-.656-.184c-.357 0-.69.096-1 .288-.31.186-.557.44-.744.76a2.06 2.06 0 0 0-.272 1.032 1.346 1.346 0 0 0 .648 1.16c.203.117.419.176.648.176Zm4.212-3.32-.36 1.704c-.043.224-.094.47-.153.736-.053.266-.08.421-.08.464 0 .123.032.224.096.304a.32.32 0 0 0 .256.112.81.81 0 0 0 .296-.056.996.996 0 0 0 .248-.136l.2.4c-.25.165-.517.248-.8.248-.24 0-.431-.075-.575-.224a.806.806 0 0 1-.217-.584c0-.09.03-.296.089-.616.063-.32.175-.853.335-1.6l.16-.752h-.672l.096-.456h.672l.24-1.136h.497l-.24 1.136h1.04l-.089.456h-1.04Zm2.416.352c.171-.283.414-.504.728-.664.315-.16.662-.24 1.04-.24l-.064.456c-.437 0-.832.125-1.184.376a1.807 1.807 0 0 0-.704.96l-.512 2.44h-.496l.864-4.136h.496l-.168.808Zm2.122 1.456a1.695 1.695 0 0 0-.008.192c0 .394.112.715.336.96.23.24.536.36.92.36.267 0 .536-.048.808-.144a2.02 2.02 0 0 0 .672-.384l.264.36c-.208.186-.488.338-.84.456a3.279 3.279 0 0 1-.992.168c-.32 0-.605-.072-.856-.216a1.604 1.604 0 0 1-.592-.616 1.883 1.883 0 0 1-.208-.896c0-.443.12-.864.36-1.264.24-.406.555-.728.944-.968.39-.245.798-.368 1.224-.368.272 0 .52.048.744.144.224.096.403.232.536.408.134.17.2.368.2.592 0 .368-.173.664-.52.888-.346.219-.824.328-1.432.328h-1.56Zm1.984-1.904c-.426 0-.813.138-1.16.416a2.222 2.222 0 0 0-.72 1.032h1.552c.432 0 .768-.064 1.008-.192s.36-.31.36-.544c0-.214-.098-.384-.296-.512-.192-.134-.44-.2-.744-.2Zm8.553-.36-.864 4.136h-.496l.168-.792a2.494 2.494 0 0 1-.768.656 1.962 1.962 0 0 1-.928.232c-.277 0-.533-.075-.768-.224a1.638 1.638 0 0 1-.56-.6 1.791 1.791 0 0 1-.2-.84c0-.459.112-.894.336-1.304.23-.41.531-.739.904-.984.374-.25.768-.376 1.184-.376.304 0 .571.088.8.264.235.17.408.4.52.688l.176-.856h.496Zm-2.792 3.776a1.69 1.69 0 0 0 1.128-.432c.336-.288.568-.653.696-1.096l.072-.352c.016-.107.024-.21.024-.312 0-.23-.053-.438-.16-.624a1.191 1.191 0 0 0-1.056-.6c-.309 0-.605.101-.888.304a2.232 2.232 0 0 0-.672.808c-.17.33-.256.685-.256 1.064 0 .23.048.44.144.632.102.187.238.336.408.448.171.106.358.16.56.16Zm7.839-5.232-1.16 5.592h-.496l.168-.8a2.587 2.587 0 0 1-.776.656 1.91 1.91 0 0 1-.928.24c-.278 0-.534-.075-.768-.224a1.637 1.637 0 0 1-.56-.6 1.791 1.791 0 0 1-.2-.84c0-.459.112-.894.336-1.304.229-.41.53-.739.904-.984.373-.25.768-.376 1.184-.376.304 0 .573.088.808.264.234.17.405.403.512.696l.48-2.32h.496Zm-3.096 5.232c.282 0 .552-.07.808-.208.256-.144.474-.336.656-.576.18-.245.309-.52.384-.824l.04-.192a2.12 2.12 0 0 0 .032-.392c0-.23-.054-.438-.16-.624a1.192 1.192 0 0 0-1.056-.6c-.31 0-.606.101-.888.304a2.232 2.232 0 0 0-.672.808c-.171.33-.256.685-.256 1.064 0 .23.048.44.144.632.1.187.237.336.408.448.17.106.357.16.56.16Zm4.093-2.968a1.76 1.76 0 0 1 .728-.664c.315-.16.662-.24 1.04-.24l-.064.456c-.437 0-.832.125-1.184.376a1.807 1.807 0 0 0-.704.96l-.512 2.44h-.496l.864-4.136h.496l-.168.808Zm2.123 1.456a1.695 1.695 0 0 0-.008.192c0 .394.111.715.335.96.23.24.537.36.92.36.267 0 .537-.048.808-.144a2.02 2.02 0 0 0 .672-.384l.264.36c-.207.186-.487.338-.84.456a3.279 3.279 0 0 1-.992.168c-.32 0-.605-.072-.856-.216a1.604 1.604 0 0 1-.591-.616 1.883 1.883 0 0 1-.209-.896c0-.443.12-.864.36-1.264.24-.406.555-.728.945-.968.389-.245.797-.368 1.223-.368.272 0 .52.048.744.144.224.096.403.232.536.408.134.17.2.368.2.592 0 .368-.173.664-.52.888-.346.219-.823.328-1.431.328h-1.56Zm1.984-1.904c-.427 0-.814.138-1.16.416a2.222 2.222 0 0 0-.72 1.032h1.552c.431 0 .767-.064 1.007-.192.24-.128.36-.31.36-.544 0-.214-.098-.384-.295-.512-.192-.134-.44-.2-.744-.2Zm2.995 3.872c-.299 0-.59-.056-.872-.168a2.274 2.274 0 0 1-.736-.464l.32-.336c.186.16.394.285.624.376a1.9 1.9 0 0 0 .688.136c.202 0 .394-.037.576-.112a1.15 1.15 0 0 0 .448-.304.659.659 0 0 0 .168-.432c0-.139-.072-.261-.216-.368-.139-.107-.368-.214-.688-.32-.422-.128-.726-.27-.912-.424a.711.711 0 0 1-.272-.56c0-.261.072-.493.216-.696.149-.208.349-.368.6-.48a1.92 1.92 0 0 1 .824-.176c.245 0 .49.043.736.128.25.085.474.203.672.352l-.304.352a1.86 1.86 0 0 0-.544-.272 1.755 1.755 0 0 0-.584-.104 1.35 1.35 0 0 0-.8.232c-.214.15-.32.336-.32.56 0 .117.072.23.216.336.149.106.392.218.728.336.41.128.704.272.88.432a.75.75 0 0 1 .272.584c0 .256-.083.49-.248.704-.16.213-.374.381-.64.504a1.934 1.934 0 0 1-.832.184Zm3.43 0c-.3 0-.59-.056-.873-.168a2.274 2.274 0 0 1-.736-.464l.32-.336c.187.16.395.285.624.376a1.9 1.9 0 0 0 .688.136c.203 0 .395-.037.576-.112a1.15 1.15 0 0 0 .448-.304.659.659 0 0 0 .168-.432c0-.139-.072-.261-.216-.368-.138-.107-.368-.214-.688-.32-.421-.128-.725-.27-.912-.424a.711.711 0 0 1-.272-.56c0-.261.072-.493.216-.696.15-.208.35-.368.6-.48a1.92 1.92 0 0 1 .824-.176c.246 0 .491.043.736.128.251.085.475.203.672.352l-.304.352a1.86 1.86 0 0 0-.544-.272 1.755 1.755 0 0 0-.584-.104 1.35 1.35 0 0 0-.8.232c-.213.15-.32.336-.32.56 0 .117.072.23.216.336.15.106.392.218.728.336.411.128.704.272.88.432a.75.75 0 0 1 .272.584c0 .256-.082.49-.248.704-.16.213-.373.381-.64.504a1.934 1.934 0 0 1-.832.184Zm2.81-1.968a1.695 1.695 0 0 0-.009.192c0 .394.112.715.336.96.23.24.536.36.92.36.267 0 .536-.048.808-.144.278-.101.502-.23.672-.384l.264.36c-.208.186-.488.338-.84.456a3.28 3.28 0 0 1-.992.168c-.32 0-.605-.072-.856-.216a1.603 1.603 0 0 1-.592-.616 1.882 1.882 0 0 1-.208-.896c0-.443.12-.864.36-1.264.24-.406.555-.728.944-.968.39-.245.798-.368 1.224-.368.272 0 .52.048.744.144.224.096.403.232.536.408.134.17.2.368.2.592 0 .368-.173.664-.52.888-.346.219-.824.328-1.432.328h-1.56Zm1.983-1.904c-.426 0-.813.138-1.16.416a2.222 2.222 0 0 0-.72 1.032h1.552c.432 0 .768-.064 1.008-.192s.36-.31.36-.544c0-.214-.098-.384-.296-.512-.192-.134-.44-.2-.744-.2Zm4.641 1.904a1.695 1.695 0 0 0-.008.192c0 .394.112.715.336.96.23.24.536.36.92.36.267 0 .536-.048.808-.144.278-.101.502-.23.672-.384l.264.36c-.208.186-.488.338-.84.456a3.28 3.28 0 0 1-.992.168c-.32 0-.605-.072-.856-.216a1.603 1.603 0 0 1-.592-.616 1.882 1.882 0 0 1-.208-.896c0-.443.12-.864.36-1.264.24-.406.555-.728.944-.968.39-.245.798-.368 1.224-.368.272 0 .52.048.744.144.224.096.403.232.536.408.134.17.2.368.2.592 0 .368-.173.664-.52.888-.346.219-.824.328-1.432.328h-1.56Zm1.984-1.904c-.426 0-.813.138-1.16.416a2.222 2.222 0 0 0-.72 1.032h1.552c.432 0 .768-.064 1.008-.192s.36-.31.36-.544c0-.214-.098-.384-.296-.512-.192-.134-.44-.2-.744-.2Zm2.127 1.36h2.072l-.104.488h-2.072l.104-.488Zm7.706-1.816c.373 0 .666.112.88.336.213.219.32.51.32.872 0 .101-.027.282-.08.544-.048.261-.134.675-.256 1.24-.027.138-.112.552-.256 1.24h-.496l.32-1.512.12-.56c.053-.261.09-.453.112-.576.021-.128.032-.213.032-.256 0-.278-.07-.49-.208-.64-.139-.155-.339-.232-.6-.232-.315 0-.606.101-.872.304a1.34 1.34 0 0 0-.52.76c0 .01-.094.464-.28 1.36-.048.203-.096.419-.144.648-.043.224-.091.459-.144.704h-.496l.32-1.512.12-.56c.053-.261.09-.453.112-.576.021-.128.032-.213.032-.256 0-.278-.07-.49-.208-.64-.134-.155-.331-.232-.592-.232-.315 0-.606.101-.872.304-.267.203-.44.459-.52.768l-.568 2.704h-.496l.864-4.136h.496l-.12.592c.138-.213.325-.382.56-.504.24-.123.496-.184.768-.184.33 0 .6.09.808.272.208.176.333.416.376.72.117-.304.309-.544.576-.72.272-.181.576-.272.912-.272Zm6.166.096-.864 4.136h-.496l.168-.792a2.503 2.503 0 0 1-.768.656 1.965 1.965 0 0 1-.928.232 1.4 1.4 0 0 1-.768-.224 1.629 1.629 0 0 1-.56-.6 1.783 1.783 0 0 1-.2-.84 2.762 2.762 0 0 1 1.24-2.288c.373-.25.768-.376 1.184-.376.304 0 .57.088.8.264.234.17.408.4.52.688l.176-.856h.496Zm-2.792 3.776a1.69 1.69 0 0 0 1.128-.432c.336-.288.568-.653.696-1.096l.072-.352c.016-.107.024-.21.024-.312 0-.23-.054-.438-.16-.624a1.194 1.194 0 0 0-1.056-.6c-.31 0-.606.101-.888.304a2.218 2.218 0 0 0-.672.808c-.171.33-.256.685-.256 1.064 0 .23.048.44.144.632.101.187.237.336.408.448.17.106.357.16.56.16Zm3.75-3.776h.496l-.864 4.136h-.496l.864-4.136Zm.456-.808a.33.33 0 0 1-.232-.08.317.317 0 0 1-.08-.224c0-.096.037-.184.112-.264a.348.348 0 0 1 .264-.12c.09 0 .165.03.224.088a.306.306 0 0 1 .088.224c0 .096-.04.184-.12.264a.353.353 0 0 1-.256.112Zm1.309-.648h.496l-1.16 5.592h-.496l1.16-5.592ZM19.693 46.51h8.555V16.218h-6.835l-10.142 6.79 3.351 5.91 5.071-3.087v20.68Zm27.254.53c8.378 0 14.287-6.482 14.287-15.698 0-9.172-5.909-15.654-14.287-15.654S32.66 22.17 32.66 31.342c0 9.216 5.909 15.698 14.287 15.698Zm0-7.761c-3.219 0-5.468-3.307-5.468-7.937 0-4.63 2.249-7.893 5.468-7.893s5.468 3.263 5.468 7.893-2.249 7.937-5.468 7.937Zm25.08-7.673c4.719 0 7.938-3.395 7.938-7.849 0-4.321-3.087-7.849-7.938-7.849-4.806 0-7.893 3.528-7.893 7.85 0 4.453 3.175 7.848 7.894 7.848ZM68.28 46.511H74.1l21.298-30.294h-5.82L68.279 46.51Zm3.749-19.623c-1.412 0-2.514-1.146-2.514-3.13 0-1.985 1.058-3.087 2.514-3.087 1.455 0 2.557 1.146 2.557 3.086 0 2.029-1.102 3.131-2.557 3.131Zm19.578 20.108c4.674 0 7.893-3.44 7.893-7.85 0-4.365-3.087-7.892-7.893-7.892-4.718 0-7.937 3.44-7.937 7.893 0 4.321 3.13 7.849 7.937 7.849Zm0-4.763c-1.455 0-2.557-1.146-2.557-3.086 0-2.073 1.058-3.131 2.557-3.131 1.411 0 2.558 1.146 2.558 3.13 0 1.985-1.103 3.087-2.558 3.087ZM108.161 29h4.952c4.643 0 7.931-2.766 7.931-6.655 0-3.888-3.288-6.635-7.931-6.635h-4.952V29Zm3.753-3.405v-6.48h1.818c2.012 0 3.443 1.335 3.443 3.23 0 1.896-1.431 3.25-3.443 3.25h-1.818Zm21.642-6.538V15.71h-10.698V29h10.698v-3.347h-6.945v-1.76h6.326v-3.347h-6.326v-1.49h6.945ZM120.154 47l-3.172-4.507c1.625-.755 2.631-2.244 2.631-4.14 0-2.728-2.109-4.643-5.088-4.643h-6.364V47h3.753v-4.004h1.16L115.879 47h4.275Zm-8.24-9.885h2.302c.889 0 1.528.522 1.528 1.238s-.639 1.238-1.528 1.238h-2.302v-2.476ZM130.722 47h4.236l-5.107-13.29h-4.236L120.508 47h4.236l.677-1.78h4.624l.677 1.78Zm-4.237-4.546 1.258-3.23 1.238 3.23h-2.496ZM136.139 47h7.428c2.709 0 4.643-1.45 4.643-3.579 0-1.47-.909-2.727-2.457-3.385 1.161-.561 1.838-1.683 1.838-2.98 0-1.934-1.76-3.346-4.295-3.346h-7.157V47Zm3.733-8.125v-2.012h2.515c.774 0 1.335.426 1.335 1.006 0 .58-.561 1.006-1.335 1.006h-2.515Zm0 4.972v-2.128h3.076c.813 0 1.393.445 1.393 1.064s-.58 1.064-1.393 1.064h-3.076ZM158.965 47h4.236l-5.107-13.29h-4.236L148.751 47h4.236l.677-1.78h4.624l.677 1.78Zm-4.237-4.546 1.257-3.23 1.239 3.23h-2.496ZM164.459 47h3.753V33.71h-3.753V47Zm11.477.232c3.327 0 5.475-1.644 5.475-4.45 0-2.533-1.935-3.365-5.03-4.023-1.896-.406-2.36-.619-2.36-1.296 0-.503.445-.87 1.354-.87 1.199 0 2.554.444 3.792 1.334l1.876-2.65c-1.47-1.18-3.269-1.799-5.571-1.799-3.153 0-5.243 1.722-5.243 4.372 0 2.766 2.225 3.52 5.107 4.178 1.838.426 2.302.523 2.302 1.161 0 .58-.541.929-1.567.929-1.566 0-3.037-.561-4.391-1.625l-2.089 2.495c1.683 1.49 3.946 2.244 6.345 2.244Z" fill="#C1C1C5"/></g><defs><linearGradient id="c" x1="190.748" y1="77.712" x2="206.529" y2="77.712" gradientUnits="userSpaceOnUse"><stop stop-color="#9059FF"/><stop offset="1" stop-color="#F770FF"/></linearGradient><linearGradient id="d" x1="190.748" y1="75.986" x2="206.529" y2="75.986" gradientUnits="userSpaceOnUse"><stop stop-color="#9059FF"/><stop offset="1" stop-color="#F770FF"/></linearGradient><linearGradient id="e" x1="190.747" y1="74.21" x2="206.528" y2="74.21" gradientUnits="userSpaceOnUse"><stop stop-color="#9059FF"/><stop offset="1" stop-color="#F770FF"/></linearGradient><linearGradient id="f" x1="190.747" y1="72.281" x2="206.528" y2="72.281" gradientUnits="userSpaceOnUse"><stop stop-color="#9059FF"/><stop offset="1" stop-color="#F770FF"/></linearGradient><linearGradient id="g" x1="190.748" y1="70.55" x2="206.529" y2="70.55" gradientUnits="userSpaceOnUse"><stop stop-color="#9059FF"/><stop offset="1" stop-color="#F770FF"/></linearGradient><linearGradient id="h" x1="190.747" y1="77.679" x2="206.529" y2="77.679" gradientUnits="userSpaceOnUse"><stop stop-color="#9059FF"/><stop offset="1" stop-color="#F770FF"/></linearGradient><linearGradient id="i" x1="190.748" y1="75.968" x2="206.529" y2="75.968" gradientUnits="userSpaceOnUse"><stop stop-color="#9059FF"/><stop offset="1" stop-color="#F770FF"/></linearGradient><linearGradient id="j" x1="190.748" y1="72.267" x2="206.529" y2="72.267" gradientUnits="userSpaceOnUse"><stop stop-color="#9059FF"/><stop offset="1" stop-color="#F770FF"/></linearGradient><linearGradient id="k" x1="190.748" y1="70.54" x2="206.529" y2="70.54" gradientUnits="userSpaceOnUse"><stop stop-color="#9059FF"/><stop offset="1" stop-color="#F770FF"/></linearGradient><linearGradient id="l" x1="177.083" y1="92.551" x2="42.71" y2="197.705" gradientUnits="userSpaceOnUse"><stop stop-color="#FF9100"/><stop offset=".52" stop-color="#F10366"/><stop offset="1" stop-color="#6173FF"/></linearGradient><clipPath id="a"><rect width="240" height="176" rx="7.887" fill="#fff"/></clipPath><filter id="b" x="-1" y="-1" width="240" height="177" filterUnits="userSpaceOnUse" color-interpolation-filters="sRGB"><feFlood flood-opacity="0" result="BackgroundImageFix"/><feColorMatrix in="SourceAlpha" values="0 0 0 0 0 0 0 0 0 0 0 0 0 0 0 0 0 0 127 0" result="hardAlpha"/><feOffset dx="3" dy="3"/><feGaussianBlur stdDeviation="2"/><feComposite in2="hardAlpha" operator="out"/><feColorMatrix values="0 0 0 0 0 0 0 0 0 0 0 0 0 0 0 0 0 0 0.1 0"/><feBlend in2="BackgroundImageFix" result="effect1_dropShadow_1043_3184"/><feBlend in="SourceGraphic" in2="effect1_dropShadow_1043_3184" result="shape"/></filter></defs></svg>
