<svg xmlns="http://www.w3.org/2000/svg" xmlns:xlink="http://www.w3.org/1999/xlink" width="310" height="223" viewBox="0 0 310 223">
  <defs>
    <path id="img-lockwise-b" d="M251.472974,52.6239992 L2.49585119,52.6239992 C1.11728533,52.6239992 0,51.4641634 0,50.0330964 L0,2.59004172 C0,1.15897478 1.11728533,0 2.49585119,0 L251.472974,0 C252.850711,0 253.967996,1.15897478 253.967996,2.59004172 L253.967996,50.0330964 C253.967996,51.4641634 252.850711,52.6239992 251.472974,52.6239992"/>
    <filter id="img-lockwise-a" width="109.1%" height="143.7%" x="-4.5%" y="-18.1%" filterUnits="objectBoundingBox">
      <feOffset dy="2" in="SourceAlpha" result="shadowOffsetOuter1"/>
      <feGaussianBlur in="shadowOffsetOuter1" result="shadowBlurOuter1" stdDeviation="3.5"/>
      <feColorMatrix in="shadowBlurOuter1" values="0 0 0 0 0.125490196   0 0 0 0 0.0705882353   0 0 0 0 0.22745098  0 0 0 0.24 0"/>
    </filter>
    <polygon id="img-lockwise-c" points="0 .759 254.079 .759 254.079 53.328 0 53.328"/>
    <filter id="img-lockwise-d" width="109.1%" height="143.8%" x="-4.5%" y="-18.1%" filterUnits="objectBoundingBox">
      <feOffset dy="2" in="SourceAlpha" result="shadowOffsetOuter1"/>
      <feGaussianBlur in="shadowOffsetOuter1" result="shadowBlurOuter1" stdDeviation="3.5"/>
      <feColorMatrix in="shadowBlurOuter1" values="0 0 0 0 0.125490196   0 0 0 0 0.0705882353   0 0 0 0 0.22745098  0 0 0 0.24 0"/>
    </filter>
  </defs>
  <g fill="none" fill-rule="evenodd" transform="translate(-13 -1)">
    <g transform="translate(13 1)">
      <path fill="#F0F0F4" d="M0.943477133,265.100006 L0.948623874,46.3259083 C0.948623874,20.7417325 18.8037249,0 40.8292485,0 L269.375905,0 C291.401429,0 309.25653,20.7417325 309.25653,46.3259083 L309.251383,265.100006"/>
      <rect width="67.571" height="6.813" x="121.402" y="20.44" fill="#D1D1D7" fill-opacity=".6" rx="3.135"/>
      <path fill="#FFF" d="M286.531834,45.4221898 C288.39901,45.4221898 289.912729,47.4392845 289.912729,49.9284422 L289.519999,268.722195 L22.2755852,268.722195 L22.6683155,49.9284422 C22.6683155,47.4392845 24.1820346,45.4221898 26.0492109,45.4221898 L286.531834,45.4221898 Z"/>
      <path fill="#D1D1D7" d="M286.531834,45.4221898 C288.39901,45.4221898 289.912729,47.2665598 289.912729,49.5425698 L289.912729,61.7670897 L22.6683155,61.7670897 L22.6683155,49.5425698 C22.6683155,47.2665598 24.1820346,45.4221898 26.0492109,45.4221898 L286.531834,45.4221898 Z"/>
    </g>
    <g transform="translate(41 92)">
      <use fill="#000" filter="url(#img-lockwise-a)" xlink:href="#img-lockwise-b"/>
      <use fill="#FFF" xlink:href="#img-lockwise-b"/>
      <path fill="#000" d="M234.520473,31.4601038 L234.520473,25.4540518 L236.481616,25.4540518 L236.481616,27.5987128 C236.481616,27.8356182 236.700898,28.0283124 236.971663,28.0283124 L239.423807,28.0283124 L239.423807,31.4601038 L234.520473,31.4601038 Z M232.558377,25.4540518 L232.558377,27.1691133 L229.616186,27.1691133 L229.616186,21.1638954 L231.578282,21.1638954 L231.578282,23.3093907 C231.578282,23.5462961 231.798518,23.7373219 232.06833,23.7373219 L234.520473,23.7373219 C233.436458,23.7373219 232.558377,24.5064302 232.558377,25.4540518 L232.558377,25.4540518 Z M234.114325,22.8797911 L232.558377,22.8797911 L232.558377,21.5192535 L234.114325,22.8797911 Z M239.017659,27.1691133 L237.461711,27.1691133 L237.461711,25.8094098 L239.017659,27.1691133 Z M241.097023,26.563503 L238.155786,23.9892424 C237.971779,23.8282468 237.721989,23.7373219 237.461711,23.7373219 L236.481616,23.7373219 L236.481616,22.8797911 C236.481616,22.6520616 236.377695,22.4343423 236.194643,22.2725125 L233.252452,19.6990861 C233.068446,19.5380905 232.818655,19.4479997 232.558377,19.4479997 L229.616186,19.4479997 C228.534078,19.4479997 227.655997,20.2162739 227.655997,21.1638954 L227.655997,27.1691133 C227.655997,28.117569 228.534078,28.8858432 229.616186,28.8858432 L232.558377,28.8858432 L232.558377,31.4601038 C232.558377,32.4077253 233.436458,33.1759995 234.520473,33.1759995 L239.423807,33.1759995 C240.505915,33.1759995 241.383996,32.4077253 241.383996,31.4601038 L241.383996,27.1691133 C241.383996,26.942218 241.281029,26.7236644 241.097023,26.563503 L241.097023,26.563503 Z"/>
      <path fill="#20123A" d="M77.6517831,30.1948684 L78.823859,30.1948684 L78.823859,31.4519645 C78.9202317,31.2072765 79.1561154,30.9089208 79.5305923,30.5578071 C79.9050692,30.207603 80.3373697,30.0311366 80.826576,30.0311366 L80.893578,30.0347751 L81.2239988,30.0647926 L81.2239988,31.3564543 C81.1514898,31.3437196 81.08357,31.3337138 81.022075,31.3291657 C80.9596622,31.3246176 80.8926602,31.3227984 80.8192333,31.3227984 C80.1969409,31.3227984 79.7205843,31.5210957 79.3864921,31.9176905 C79.0524,32.3133756 78.8862718,32.7700053 78.8862718,33.2866701 L78.8862718,37.4727458 L77.6517831,37.4727458 L77.6517831,30.1948684 Z M74.8340281,33.2521045 C74.7835472,32.722705 74.6660642,32.2988217 74.483415,31.9822736 C74.1456515,31.3928392 73.5802649,31.098122 72.7900085,31.098122 C72.223704,31.098122 71.7473474,31.3009675 71.3636922,31.7066584 C70.9791191,32.1114398 70.7762775,32.6271948 70.7533316,33.2521045 L74.8340281,33.2521045 Z M72.865271,30.0311366 C73.3866016,30.0311366 73.8914111,30.1530258 74.3815352,30.394985 C74.8698237,30.6369441 75.2424649,30.9507634 75.498541,31.3364427 C75.7041362,31.6420753 75.8528255,31.9904602 75.9446091,32.3806876 L75.9914187,32.6208275 C76.0648455,32.955568 76.1024768,33.4904252 76.1024768,34.2244893 L70.7193717,34.2244893 C70.7423175,34.9631015 70.9176241,35.5552648 71.2471271,36.0018887 C71.57663,36.447603 72.0869465,36.6704601 72.776241,36.6704601 C73.4214793,36.6704601 73.9345494,36.4603376 74.3191224,36.0391831 C74.5384851,35.7935855 74.6935993,35.511603 74.7853829,35.1895971 L75.9987614,35.1895971 C75.9666371,35.4561161 75.861086,35.7544718 75.6802724,36.0828449 C75.4994589,36.4112181 75.2975351,36.6795563 75.0726654,36.8878595 C74.6981885,37.2507983 74.2346816,37.4945767 73.6812268,37.6219236 C73.3847659,37.6946933 73.0479203,37.7310782 72.6734434,37.7310782 C71.7592793,37.7310782 70.9837083,37.4017954 70.349484,36.7423201 C69.7143418,36.0828449 69.3958529,35.1595796 69.3958529,33.9725243 C69.3958529,32.8036613 69.7161775,31.8549266 70.3559088,31.1254106 C70.9956401,30.3968042 71.8317883,30.0311366 72.865271,30.0311366 L72.865271,30.0311366 Z M66.7221981,37.4727458 L67.9566868,37.4727458 L67.9566868,27.4896556 L66.7221981,27.4896556 L66.7221981,37.4727458 Z M59.1179311,36.5076379 L63.4712248,31.2882328 L59.4400914,31.2882328 L59.4400914,30.1948684 L65.1306714,30.1948684 L65.1306714,31.1936322 L60.8039949,36.3784718 L65.261004,36.3784718 L65.261004,37.4727458 L59.1179311,37.4727458 L59.1179311,36.5076379 Z M56.011058,28.1627751 L57.2593143,28.1627751 L57.2593143,30.1948684 L58.432308,30.1948684 L58.432308,31.1936322 L57.2593143,31.1936322 L57.2593143,35.9436729 C57.2593143,36.1974572 57.3455908,36.3675563 57.5199795,36.4530607 C57.6154344,36.5039995 57.7760556,36.5285592 58.0000075,36.5285592 L58.1918351,36.5249207 C58.2606728,36.5221919 58.3405245,36.5167341 58.432308,36.5076379 L58.432308,37.4727458 C58.2900435,37.5136787 58.1431898,37.5427866 57.9899113,37.560979 C57.8366328,37.5791714 57.6705046,37.5882677 57.4924445,37.5882677 C56.9160438,37.5882677 56.5250459,37.4418187 56.3194507,37.1498303 C56.1138556,36.857842 56.011058,36.4776204 56.011058,36.0118945 L56.011058,31.1936322 L55.0170422,31.1936322 L55.0170422,30.1948684 L56.011058,30.1948684 L56.011058,28.1627751 Z M50.9170711,29.9847459 C51.8624416,29.9847459 52.6627941,30.2967459 53.316293,30.9216555 C53.9697919,31.5465651 54.2974591,32.4661919 54.2974591,33.6805359 C54.2974591,34.853947 54.0092588,35.823603 53.4328581,36.5885942 C52.8573753,37.3544951 51.9634035,37.7374455 50.7518607,37.7374455 C49.7413238,37.7374455 48.9391356,37.3990665 48.345296,36.7223085 C47.7505386,36.0446409 47.4540778,35.1350199 47.4540778,33.9934456 C47.4540778,32.7700053 47.7670597,31.7967109 48.3930235,31.071743 C49.0199051,30.3467751 49.8606424,29.9847459 50.9170711,29.9847459 L50.9170711,29.9847459 Z M50.8684258,36.685014 C51.687135,36.685014 52.2479325,36.3775621 52.5517361,35.763568 C52.8555396,35.1495738 53.0079003,34.4664485 53.0079003,33.7141919 C53.0079003,33.034705 52.8986779,32.4825651 52.6793152,32.0568625 C52.3314555,31.3864718 51.7330268,31.0508217 50.8821933,31.0508217 C50.1277325,31.0508217 49.5797848,31.3364427 49.2365143,31.9076847 C48.8932438,32.478017 48.7225264,33.1666001 48.7225264,33.9725243 C48.7225264,34.7475213 48.8932438,35.3933522 49.2365143,35.9091073 C49.5797848,36.4266817 50.1231434,36.685014 50.8684258,36.685014 L50.8684258,36.685014 Z M42.7841308,30.0647926 C43.346764,30.0647926 43.8176136,30.1830433 44.1966796,30.4186351 C44.4160423,30.5550783 44.6656936,30.7924893 44.9447156,31.131778 L44.9447156,27.4559996 L46.130559,27.4559996 L46.130559,37.4727458 L45.0199781,37.4727458 L45.0199781,36.4603376 C44.7317777,36.9087808 44.3912608,37.2326059 43.9975093,37.4318128 C43.6046757,37.6310198 43.1549364,37.7310782 42.6473733,37.7310782 C41.8286641,37.7310782 41.1200951,37.3899703 40.5216663,36.7077546 C39.9232376,36.0264484 39.6231054,35.1186467 39.6231054,33.9861686 C39.6231054,32.9264601 39.8966204,32.007743 40.4427325,31.2309266 C40.9888446,30.4541103 41.7699226,30.0647926 42.7841308,30.0647926 L42.7841308,30.0647926 Z M40.9264318,33.9188566 C40.9264318,34.6974922 41.09256,35.3506001 41.4266521,35.8754514 C41.7607443,36.4012123 42.2958423,36.6640927 43.0310286,36.6640927 C43.6028401,36.6640927 44.0727718,36.4203143 44.439906,35.9336671 C44.8079581,35.4461103 44.992443,34.7475213 44.992443,33.8369907 C44.992443,32.9173639 44.8024511,32.2369674 44.423385,31.7948917 C44.0434011,31.3528159 43.575305,31.131778 43.017261,31.131778 C42.3958864,31.131778 41.8919947,31.3682794 41.505586,31.8394631 C41.1191773,32.3097371 40.9264318,33.0037779 40.9264318,33.9188566 L40.9264318,33.9188566 Z M36.2702524,33.0619937 C36.5538635,33.0256088 36.7438555,32.9082677 36.8393104,32.7090607 C36.8943805,32.6008158 36.9219156,32.444361 36.9219156,32.2396963 C36.9219156,31.8230899 36.7723084,31.5210957 36.4721762,31.3328042 C36.1729618,31.1445127 35.7443326,31.0508217 35.1872065,31.0508217 C34.5419682,31.0508217 34.0848861,31.2227401 33.8159603,31.5674864 C33.6645174,31.7575972 33.566309,32.0404893 33.5204173,32.4161628 L32.3685337,32.4161628 C32.3914796,31.5201861 32.685187,30.8961861 33.2496558,30.5450724 C33.8141246,30.1930491 34.4694592,30.0184019 35.2147416,30.0184019 C36.0784248,30.0184019 36.7796511,30.1803144 37.3193383,30.507778 C37.8544364,30.8334223 38.1215266,31.3409908 38.1215266,32.0295739 L38.1215266,36.2220169 C38.1215266,36.3493639 38.1481438,36.4512414 38.2004604,36.5285592 C38.252777,36.6049674 38.3638351,36.6440811 38.5327169,36.6440811 C38.587787,36.6440811 38.649282,36.6404426 38.7181196,36.6331656 C38.7869573,36.6258887 38.8594663,36.6167925 38.9374823,36.6031481 L38.9374823,37.5064018 L38.7291336,37.5627983 C38.6364323,37.5846292 38.5593341,37.6010024 38.4987569,37.6082793 C38.397795,37.6219236 38.2610375,37.6292006 38.0875666,37.6292006 C37.6626088,37.6292006 37.3532983,37.4800228 37.1614706,37.1807575 C37.0614266,37.0215738 36.9907532,36.797807 36.9494506,36.5076379 C36.6979637,36.8341919 36.3363365,37.117084 35.8654869,37.3572239 C35.3946373,37.5973639 34.8760603,37.7174338 34.3088379,37.7174338 C33.627804,37.7174338 33.0715957,37.5127691 32.6392952,37.1025301 C32.2079125,36.692291 31.9913033,36.1792648 31.9913033,35.5625417 C31.9913033,34.887603 32.2042412,34.3645709 32.629199,33.9934456 C33.0541568,33.6223202 33.6122008,33.3930957 34.3024131,33.3066817 L36.2702524,33.0619937 Z M33.2808622,35.5361627 C33.2808622,35.8890957 33.4111948,36.1674397 33.6718601,36.3721044 C33.9325254,36.5758595 34.2409181,36.6777371 34.5970383,36.6777371 C35.0311745,36.6777371 35.4515431,36.5785884 35.8590621,36.3784718 C36.5446852,36.0482793 36.8870378,35.5070549 36.8870378,34.7547983 L36.8870378,33.7696788 C36.7365128,33.8642794 36.5419317,33.9434164 36.3051301,34.0061802 C36.0664929,34.0707633 35.8333627,34.1162444 35.6048217,34.1426234 L34.8577036,34.2381336 C34.4097999,34.297259 34.0738721,34.3891307 33.8499202,34.5164776 C33.4708542,34.7293289 33.2808622,35.0686175 33.2808622,35.5361627 L33.2808622,35.5361627 Z M26.0464829,35.1895971 C26.0831963,35.5971073 26.1859939,35.9091073 26.3548756,36.1265067 C26.6660219,36.5212823 27.2057091,36.71867 27.9739374,36.71867 C28.4310195,36.71867 28.8330314,36.6195213 29.1799733,36.4230432 C29.5278329,36.2256554 29.7013038,35.9209324 29.7013038,35.5088741 C29.7013038,35.1959645 29.5617928,34.9576438 29.2827708,34.7957313 C29.1267388,34.7084076 28.8376206,34.609259 28.4163341,34.496466 L27.2470117,34.203568 C26.6201301,34.0498421 26.1584588,33.8779237 25.861998,33.6878129 C25.3314891,33.3576205 25.0662346,32.8991715 25.0662346,32.3151949 C25.0662346,31.6257021 25.3158859,31.0690141 25.817024,30.6433115 C26.3172444,30.2166993 26.9909356,30.0047576 27.8362621,30.0047576 C28.9422539,30.0047576 29.7398529,30.3267634 30.2299771,30.9698654 C30.5356163,31.3773756 30.6843056,31.8167226 30.6751273,32.2879062 L29.5094762,32.2879062 C29.4865303,32.0113814 29.3883219,31.7603261 29.214851,31.5338304 C28.9312398,31.2118246 28.43928,31.0508217 27.7408072,31.0508217 C27.273629,31.0508217 26.9211801,31.1390549 26.6807072,31.3155214 C26.4411522,31.4928975 26.3209157,31.7266701 26.3209157,32.0159295 C26.3209157,32.3333873 26.4787834,32.5871715 26.793601,32.7772823 C26.9771681,32.8900753 27.2470117,32.989224 27.6031319,33.075638 L28.4190876,33.2730257 C29.3057167,33.485877 29.9004741,33.692361 30.202442,33.8906584 C30.6824699,34.203568 30.922025,34.6956729 30.922025,35.3660636 C30.922025,36.0137137 30.6742094,36.5740403 30.1776604,37.0443143 C29.6820293,37.515498 28.9266507,37.7519994 27.9115246,37.7519994 C26.8193004,37.7519994 26.0455651,37.5054921 25.5903187,37.0142968 C25.1359901,36.5221919 24.8927637,35.9145651 24.8606395,35.1895971 L26.0464829,35.1895971 Z M21.4389488,33.0619937 C21.7225599,33.0256088 21.9125519,32.9082677 22.0080068,32.7090607 C22.0630769,32.6008158 22.090612,32.444361 22.090612,32.2396963 C22.090612,31.8230899 21.9410048,31.5210957 21.6417904,31.3328042 C21.3416582,31.1445127 20.913029,31.0508217 20.3559029,31.0508217 C19.7115824,31.0508217 19.2545003,31.2227401 18.9846567,31.5674864 C18.8332138,31.7575972 18.7350054,32.0404893 18.6891137,32.4161628 L17.5372301,32.4161628 C17.560176,31.5201861 17.8538834,30.8961861 18.4183522,30.5450724 C18.982821,30.1930491 19.6372377,30.0184019 20.3825201,30.0184019 C21.2471212,30.0184019 21.9483475,30.1803144 22.4880347,30.507778 C23.022215,30.8334223 23.2902229,31.3409908 23.2902229,32.0295739 L23.2902229,36.2220169 C23.2902229,36.3493639 23.3168402,36.4512414 23.3691568,36.5285592 C23.4214734,36.6049674 23.5325315,36.6440811 23.7014132,36.6440811 C23.7564834,36.6440811 23.8179784,36.6404426 23.886816,36.6331656 C23.9556537,36.6258887 24.0281627,36.6167925 24.1061787,36.6031481 L24.1061787,37.5064018 L23.89783,37.5627983 C23.8051287,37.5846292 23.7280305,37.6010024 23.6674533,37.6082793 C23.5664914,37.6219236 23.4297339,37.6292006 23.256263,37.6292006 C22.8303874,37.6292006 22.5229125,37.4800228 22.330167,37.1807575 C22.230123,37.0215738 22.1594496,36.797807 22.118147,36.5076379 C21.8666601,36.8341919 21.5050329,37.117084 21.0341833,37.3572239 C20.5633337,37.5973639 20.0447567,37.7174338 19.4775343,37.7174338 C18.7965004,37.7174338 18.2402921,37.5127691 17.8079916,37.1025301 C17.3766089,36.692291 17.1599997,36.1792648 17.1599997,35.5625417 C17.1599997,34.887603 17.3729376,34.3645709 17.7978954,33.9934456 C18.2228532,33.6223202 18.7808972,33.3930957 19.4711095,33.3066817 L21.4389488,33.0619937 Z M18.4495586,35.5361627 C18.4495586,35.8890957 18.5798912,36.1674397 18.8396387,36.3721044 C19.1012218,36.5758595 19.4086967,36.6777371 19.7657347,36.6777371 C20.1998709,36.6777371 20.6202395,36.5785884 21.0277585,36.3784718 C21.7133816,36.0482793 22.0557342,35.5070549 22.0557342,34.7547983 L22.0557342,33.7696788 C21.9052092,33.8642794 21.7106281,33.9434164 21.4729087,34.0061802 C21.2351893,34.0707633 21.0020591,34.1162444 20.773518,34.1426234 L20.0264,34.2381336 C19.5784962,34.297259 19.2425685,34.3891307 19.0186166,34.5164776 C18.6395505,34.7293289 18.4495586,35.0686175 18.4495586,35.5361627 L18.4495586,35.5361627 Z"/>
      <path fill="#5B5B66" d="M63.096255,18.7268832 L59.9842758,18.7268832 C60.0016714,18.3091714 60.1573161,17.963863 60.4493789,17.6925492 C60.7423572,17.4212354 61.1049179,17.2859763 61.537061,17.2859763 C62.1413288,17.2859763 62.5716407,17.4832954 62.8289123,17.877138 C62.9689925,18.0887787 63.0578016,18.3728227 63.096255,18.7268832 L63.096255,18.7268832 Z M61.5947411,16.5722858 C61.9920929,16.5722858 62.3775425,16.6542369 62.7510899,16.8157522 C63.1237217,16.978063 63.40846,17.1873168 63.6034737,17.4459003 C63.7545407,17.6416281 63.8644076,17.8644078 63.9349055,18.1134436 L63.9797678,18.3043975 C64.0356168,18.5287685 64.063999,18.8860115 64.063999,19.3769224 L59.9577247,19.3769224 C59.9751202,19.8710158 60.1097072,20.2672453 60.3605699,20.5664066 C60.6114325,20.8647721 61.0005444,21.0135571 61.5269898,21.0135571 C62.0186441,21.0135571 62.4105026,20.8719329 62.7034809,20.5910714 C62.8710279,20.4271693 62.9900504,20.2370109 63.0596327,20.0229834 L63.9852611,20.0229834 C63.9605411,20.2020027 63.879972,20.4009131 63.7426384,20.6205102 C63.6043893,20.8401073 63.4505757,21.0199223 63.2793665,21.1591595 C62.9937126,21.4010346 62.6393919,21.5649367 62.21732,21.6500704 C61.9902618,21.6978089 61.7348213,21.7224738 61.4482519,21.7224738 C60.7505973,21.7224738 60.1600628,21.502081 59.675733,21.0612956 C59.1904877,20.6205102 58.9487805,20.0030923 58.9487805,19.2082464 C58.9487805,18.4269263 59.1923188,17.7920044 59.6812264,17.3042761 C60.1692184,16.8165478 60.8073618,16.5722858 61.5947411,16.5722858 L61.5947411,16.5722858 Z M50.5036802,16.6820844 L51.434802,16.6820844 L51.434802,17.3727013 C51.6581979,17.1332131 51.8605361,16.9589676 52.0418164,16.8499647 C52.3521904,16.6645803 52.7037643,16.5722858 53.0983695,16.5722858 C53.5442459,16.5722858 53.9031444,16.6677628 54.1759804,16.8587168 C54.3288785,16.9677197 54.4689588,17.1284393 54.5943901,17.3408756 C54.8031372,17.0807008 55.0494221,16.8865643 55.3314137,16.7608529 C55.6143209,16.6351415 55.9311037,16.5722858 56.2835933,16.5722858 C57.0370969,16.5722858 57.5488935,16.809387 57.8217295,17.2819981 C57.9673031,17.5366034 58.0414633,17.8787293 58.0414633,18.3091714 L58.0414633,21.5498195 L57.0627325,21.5498195 L57.0627325,18.1683428 C57.0627325,17.8437211 56.9693457,17.6209414 56.782572,17.5000039 C56.5967139,17.3790664 56.3687401,17.317802 56.1004818,17.317802 C55.7315123,17.317802 55.4128983,17.4252136 55.1455556,17.6408325 C54.8791284,17.8556557 54.7454571,18.21449 54.7454571,18.7181312 L54.7454571,21.5498195 L53.7886997,21.5498195 L53.7886997,18.3728227 C53.7886997,18.0426315 53.7438374,17.8015521 53.6531972,17.6495845 C53.5094548,17.422031 53.2430276,17.3090499 52.8530002,17.3090499 C52.4968484,17.3090499 52.1736567,17.4283962 51.8815939,17.6678843 C51.5913623,17.9073724 51.4448731,18.3409971 51.4448731,18.9679626 L51.4448731,21.5498195 L50.5036802,21.5498195 L50.5036802,16.6820844 Z M47.7130616,18.5995806 C47.9300487,18.5757113 48.0747068,18.4969428 48.1479513,18.363275 C48.1891514,18.2908716 48.2102092,18.185847 48.2102092,18.0497922 C48.2102092,17.7713177 48.0966801,17.5684291 47.8677908,17.4435134 C47.639817,17.317802 47.3120475,17.2541507 46.887229,17.2541507 C46.3955747,17.2541507 46.0467474,17.3695187 45.840747,17.5994591 C45.7253868,17.7267618 45.6512266,17.9161245 45.6164355,18.1683428 L44.7375005,18.1683428 C44.7548961,17.5684291 44.978292,17.1507173 45.4095195,16.916003 C45.8398314,16.6812887 46.3397257,16.5635338 46.9082868,16.5635338 C47.567488,16.5635338 48.1021735,16.6725367 48.5141742,16.8905425 C48.9215972,17.1093439 49.1257665,17.4482872 49.1257665,17.9089637 L49.1257665,20.7136002 C49.1257665,20.7987339 49.1459088,20.8663634 49.1861933,20.9180801 C49.2264778,20.9690012 49.3107091,20.9952574 49.4388871,20.9952574 L49.5807985,20.9888922 C49.6329852,20.9841184 49.6888342,20.9769576 49.7483455,20.9674099 L49.7483455,21.5720975 L49.5542473,21.6166534 C49.4983983,21.6277924 49.4517049,21.6357488 49.4132515,21.6405227 C49.3363447,21.6500704 49.2319712,21.6548442 49.0992153,21.6548442 C48.7751081,21.6548442 48.5398099,21.5545934 48.3933207,21.3548874 C48.3164139,21.2482714 48.262396,21.0978951 48.231267,20.9037586 C48.0399156,21.12256 47.7643328,21.3119227 47.4045188,21.4726423 C47.0456204,21.6325663 46.6500996,21.7137217 46.217041,21.7137217 C45.6979201,21.7137217 45.2731015,21.5760757 44.9435009,21.3015794 C44.6139002,21.0278787 44.4500155,20.6849571 44.4500155,20.2720192 C44.4500155,19.8208904 44.6120691,19.4716037 44.9361764,19.2225679 C45.2602837,18.9743278 45.6860178,18.8207689 46.2124633,18.7634827 L47.7130616,18.5995806 Z M45.433324,20.2545151 C45.433324,20.4908206 45.5322042,20.6770007 45.7308801,20.8130554 C45.9295561,20.9499058 46.1648543,21.018331 46.4376903,21.018331 C46.7691221,21.018331 47.0895671,20.9514971 47.3990255,20.8178293 C47.9227242,20.5974366 48.1836581,20.2354197 48.1836581,19.7317785 L48.1836581,19.0729873 C48.0692134,19.1366386 47.9208931,19.189151 47.7396128,19.2321156 C47.5583325,19.273489 47.3807143,19.304519 47.2067585,19.3228188 L46.6354507,19.3864701 C46.2939479,19.4254565 46.0385074,19.4875166 45.8672982,19.5718546 C45.5779821,19.7150701 45.433324,19.9418279 45.433324,20.2545151 L45.433324,20.2545151 Z M38.9182184,16.6820844 L39.8127179,16.6820844 L39.8127179,17.3727013 C40.0773139,17.0870659 40.35839,16.8833817 40.6550306,16.758466 C40.9516711,16.6343459 41.2803562,16.5722858 41.6438324,16.5722858 C42.4385362,16.5722858 42.9750527,16.8133652 43.2542977,17.295524 C43.4081113,17.5588814 43.4850181,17.9360155 43.4850181,18.4269263 L43.4850181,21.5498195 L42.5273452,21.5498195 L42.5273452,18.48103 C42.5273452,18.1842557 42.4769896,17.9455632 42.3762783,17.7633613 C42.2087313,17.4602218 41.9047663,17.3090499 41.4662143,17.3090499 C41.2428184,17.3090499 41.0597069,17.3281453 40.9159644,17.3679274 C40.6586928,17.4347613 40.4316346,17.5684291 40.2366209,17.7681351 C40.0791451,17.9288547 39.9775182,18.0943482 39.9308248,18.2654111 C39.8832158,18.4372697 39.8603269,18.6815317 39.8603269,18.9997883 L39.8603269,21.5498195 L38.9182184,21.5498195 L38.9182184,16.6820844 Z M35.5425587,16.6820844 L36.4361427,16.6820844 L36.4361427,17.5222819 C36.5093872,17.3583797 36.689752,17.1594693 36.9754059,16.924755 C37.2610598,16.6892451 37.5906604,16.5722858 37.9642077,16.5722858 L38.1381636,16.5842205 C38.1738704,16.587403 38.2169016,16.5905856 38.2672572,16.5953594 L38.2672572,17.4586305 C38.2114082,17.4498785 38.160137,17.444309 38.112528,17.4411264 L37.9587144,17.4363526 C37.4844557,17.4363526 37.1200639,17.5684291 36.865539,17.8341734 C36.6110141,18.099122 36.4837516,18.4046484 36.4837516,18.7499568 L36.4837516,21.5498195 L35.5425587,21.5498195 L35.5425587,16.6820844 Z M33.5576306,18.7268832 C33.5191772,18.3728227 33.4303681,18.0887787 33.2902878,17.877138 C33.0330163,17.4832954 32.6017888,17.2859763 31.9984365,17.2859763 C31.5662935,17.2859763 31.2037328,17.4212354 30.9107545,17.6925492 C30.6177762,17.963863 30.4621314,18.3091714 30.4447358,18.7268832 L33.5576306,18.7268832 Z M32.0561166,16.5722858 C32.4534685,16.5722858 32.8389181,16.6542369 33.2115499,16.8157522 C33.5850973,16.978063 33.8698356,17.1873168 34.0648493,17.4459003 C34.2534541,17.6901622 34.3788854,17.9773889 34.4411433,18.3043975 C34.4969923,18.5287685 34.5244591,18.8860115 34.5244591,19.3769224 L30.4191002,19.3769224 C30.4364958,19.8710158 30.5710827,20.2672453 30.8219454,20.5664066 C31.0728081,20.8647721 31.46192,21.0135571 31.9883654,21.0135571 C32.4800197,21.0135571 32.8718782,20.8719329 33.1648565,20.5910714 C33.3324035,20.4271693 33.4514259,20.2370109 33.5210083,20.0229834 L34.4466367,20.0229834 C34.4219166,20.2020027 34.3413476,20.4009131 34.2030985,20.6205102 C34.0657649,20.8401073 33.9110357,21.0199223 33.740742,21.1591595 C33.4550882,21.4010346 33.1007675,21.5649367 32.6786956,21.6500704 C32.4516374,21.6978089 32.1961969,21.7224738 31.9096275,21.7224738 C31.2119728,21.7224738 30.6214384,21.502081 30.136193,21.0612956 C29.6518632,20.6205102 29.4101561,20.0030923 29.4101561,19.2082464 C29.4101561,18.4269263 29.6536943,17.7920044 30.1416864,17.3042761 C30.630594,16.8165478 31.2678218,16.5722858 32.0561166,16.5722858 L32.0561166,16.5722858 Z M25.0914724,20.0229834 C25.1198547,20.2958884 25.1976771,20.5043465 25.3276862,20.6499489 C25.5639,20.9133063 25.9759008,21.0453828 26.5618574,21.0453828 C26.9106847,21.0453828 27.2173964,20.9793445 27.4819925,20.847268 C27.7475041,20.7159872 27.8793443,20.5115073 27.8793443,20.2354197 C27.8793443,20.0269616 27.7731397,19.8686289 27.5607304,19.7588304 C27.4252279,19.6919965 27.1560541,19.6148192 26.75504,19.5272987 L26.0070297,19.3633965 C25.5291088,19.2607587 25.1766193,19.1445951 24.9504766,19.018088 C24.5467159,18.7968997 24.3434621,18.4905777 24.3434621,18.0999177 C24.3434621,17.6392412 24.5348136,17.2660853 24.916601,16.9820412 C25.2983884,16.6964059 25.812016,16.5547817 26.4565683,16.5547817 C27.3007121,16.5547817 27.9095577,16.7696049 28.2821895,17.200047 C28.5156566,17.4729521 28.6291858,17.7665438 28.6227768,18.0816179 L27.7328552,18.0816179 C27.7154596,17.8970291 27.6403839,17.728353 27.5085436,17.5771811 C27.2924721,17.3615623 26.9170936,17.2541507 26.3833238,17.2541507 C26.0280875,17.2541507 25.7589137,17.3138238 25.5758022,17.4315787 C25.3926908,17.5501293 25.301135,17.7060751 25.301135,17.9002116 C25.301135,18.1126479 25.4210731,18.2813239 25.6618646,18.4094222 C25.8019449,18.4842125 26.0070297,18.5510464 26.2789502,18.6091283 L26.9015292,18.7412048 C27.578126,18.882829 28.0313268,19.0212706 28.2620473,19.1541428 C28.6282702,19.3633965 28.8104661,19.6919965 28.8104661,20.1407383 C28.8104661,20.5735673 28.6218613,20.9483145 28.2437361,21.2633886 C27.8646954,21.5784626 27.2888099,21.7359997 26.5142484,21.7359997 C25.6810913,21.7359997 25.0905569,21.5713019 24.7435607,21.2427019 C24.3965645,20.9141019 24.2116219,20.5075291 24.1869018,20.0229834 L25.0914724,20.0229834 Z M18.2165528,14.8719998 L18.2165528,18.9997883 C18.2165528,19.484334 18.3209264,19.8877243 18.530589,20.2083678 C18.8409629,20.6937092 19.3637461,20.9355842 20.0998542,20.9355842 C20.9815358,20.9355842 21.5812258,20.6738182 21.8989242,20.1494904 C22.0692179,19.8654463 22.1552802,19.4811514 22.1552802,18.9997883 L22.1552802,14.8719998 L23.2118333,14.8719998 L23.2118333,18.6226542 C23.2118333,19.4437563 23.0845709,20.0754957 22.830046,20.5178724 C22.3621962,21.324653 21.4805145,21.7272476 20.1831699,21.7272476 C18.8858252,21.7272476 18.0050591,21.324653 17.5417871,20.5178724 C17.2872622,20.0754957 17.1599997,19.4437563 17.1599997,18.6226542 L17.1599997,14.8719998 L18.2165528,14.8719998 Z"/>
    </g>
    <g transform="translate(41 155)">
      <mask id="img-lockwise-e" fill="#fff">
        <use xlink:href="#img-lockwise-c"/>
      </mask>
      <use fill="#000" filter="url(#img-lockwise-d)" xlink:href="#img-lockwise-c"/>
      <path fill="#FFF" d="M251.58255,53.3275079 L2.49693871,53.3275079 C1.11777217,53.3275079 0,52.1689001 0,50.7402084 L0,3.34652344 C0,1.91697164 1.11777217,0.759223905 2.49693871,0.759223905 L251.58255,0.759223905 C252.960886,0.759223905 254.078658,1.91697164 254.078658,3.34652344 L254.078658,50.7402084 C254.078658,52.1689001 252.960886,53.3275079 251.58255,53.3275079" mask="url(#img-lockwise-e)"/>
      <path fill="#20123A" d="M73.2159989,33.1708463 C73.2159989,33.5021205 73.0806143,33.7759738 72.8089178,33.9938785 C72.5372213,34.2110471 72.1922687,34.3199995 71.7749873,34.3199995 C71.357706,34.3199995 71.0136807,34.2110471 70.7419842,33.9938785 C70.4702877,33.7759738 70.3349031,33.5021205 70.3349031,33.1708463 C70.3349031,32.8395722 70.4702877,32.5671913 70.7419842,32.3529673 C71.0136807,32.1394796 71.357706,32.0319995 71.7749873,32.0319995 C72.1922687,32.0319995 72.5372213,32.1394796 72.8089178,32.3529673 C73.0806143,32.5671913 73.2159989,32.8395722 73.2159989,33.1708463 M68.68896,33.1708463 C68.68896,33.5021205 68.5535754,33.7759738 68.2818788,33.9938785 C68.0101823,34.2110471 67.666157,34.3199995 67.2479484,34.3199995 C66.8306671,34.3199995 66.4866418,34.2110471 66.2149453,33.9938785 C65.9432487,33.7759738 65.8078641,33.5021205 65.8078641,33.1708463 C65.8078641,32.8395722 65.9432487,32.5671913 66.2149453,32.3529673 C66.4866418,32.1394796 66.8306671,32.0319995 67.2479484,32.0319995 C67.666157,32.0319995 68.0101823,32.1394796 68.2818788,32.3529673 C68.5535754,32.5671913 68.68896,32.8395722 68.68896,33.1708463 M64.1628484,33.1708463 C64.1628484,33.5021205 64.0274637,33.7759738 63.7557672,33.9938785 C63.4840707,34.2110471 63.1391181,34.3199995 62.7218368,34.3199995 C62.3045554,34.3199995 61.9605302,34.2110471 61.6888336,33.9938785 C61.4171371,33.7759738 61.2808252,33.5021205 61.2808252,33.1708463 C61.2808252,32.8395722 61.4171371,32.5671913 61.6888336,32.3529673 C61.9605302,32.1394796 62.3045554,32.0319995 62.7218368,32.0319995 C63.1391181,32.0319995 63.4840707,32.1394796 63.7557672,32.3529673 C64.0274637,32.5671913 64.1628484,32.8395722 64.1628484,33.1708463 M59.6367367,33.1708463 C59.6367367,33.5021205 59.5004248,33.7759738 59.2296556,33.9938785 C58.9579591,34.2110471 58.6130065,34.3199995 58.1957252,34.3199995 C57.7784438,34.3199995 57.4334912,34.2110471 57.162722,33.9938785 C56.8910255,33.7759738 56.7547136,33.5021205 56.7547136,33.1708463 C56.7547136,32.8395722 56.8910255,32.5671913 57.162722,32.3529673 C57.4334912,32.1394796 57.7784438,32.0319995 58.1957252,32.0319995 C58.6130065,32.0319995 58.9579591,32.1394796 59.2296556,32.3529673 C59.5004248,32.5671913 59.6367367,32.8395722 59.6367367,33.1708463 M55.1106251,33.1708463 C55.1106251,33.5021205 54.9743132,33.7759738 54.7026167,33.9938785 C54.4309202,34.2110471 54.0868949,34.3199995 53.6686862,34.3199995 C53.2523322,34.3199995 52.9073796,34.2110471 52.6356831,33.9938785 C52.3639866,33.7759738 52.228602,33.5021205 52.228602,33.1708463 C52.228602,32.8395722 52.3639866,32.5671913 52.6356831,32.3529673 C52.9073796,32.1394796 53.2523322,32.0319995 53.6686862,32.0319995 C54.0868949,32.0319995 54.4309202,32.1394796 54.7026167,32.3529673 C54.9743132,32.5671913 55.1106251,32.8395722 55.1106251,33.1708463 M50.5835862,33.1708463 C50.5835862,33.5021205 50.4472743,33.7759738 50.1755778,33.9938785 C49.9038812,34.2110471 49.5598559,34.3199995 49.1425746,34.3199995 C48.7252933,34.3199995 48.381268,34.2110471 48.1095715,33.9938785 C47.8378749,33.7759738 47.701563,33.5021205 47.701563,33.1708463 C47.701563,32.8395722 47.8378749,32.5671913 48.1095715,32.3529673 C48.381268,32.1394796 48.7252933,32.0319995 49.1425746,32.0319995 C49.5598559,32.0319995 49.9038812,32.1394796 50.1755778,32.3529673 C50.4472743,32.5671913 50.5835862,32.8395722 50.5835862,33.1708463 M46.0565473,33.1708463 C46.0565473,33.5021205 45.9211626,33.7759738 45.6494661,33.9938785 C45.3777696,34.2110471 45.0337443,34.3199995 44.616463,34.3199995 C44.1991816,34.3199995 43.8542291,34.2110471 43.5825325,33.9938785 C43.310836,33.7759738 43.1754514,33.5021205 43.1754514,33.1708463 C43.1754514,32.8395722 43.310836,32.5671913 43.5825325,32.3529673 C43.8542291,32.1394796 44.1991816,32.0319995 44.616463,32.0319995 C45.0337443,32.0319995 45.3777696,32.1394796 45.6494661,32.3529673 C45.9211626,32.5671913 46.0565473,32.8395722 46.0565473,33.1708463 M41.5304356,33.1708463 C41.5304356,33.5021205 41.395051,33.7759738 41.1233545,33.9938785 C40.851658,34.2110471 40.5067054,34.3199995 40.0894241,34.3199995 C39.6721427,34.3199995 39.3281174,34.2110471 39.0564209,33.9938785 C38.7847244,33.7759738 38.6484125,33.5021205 38.6484125,33.1708463 C38.6484125,32.8395722 38.7847244,32.5671913 39.0564209,32.3529673 C39.3281174,32.1394796 39.6721427,32.0319995 40.0894241,32.0319995 C40.5067054,32.0319995 40.851658,32.1394796 41.1233545,32.3529673 C41.395051,32.5671913 41.5304356,32.8395722 41.5304356,33.1708463 M37.004324,33.1708463 C37.004324,33.5021205 36.8680121,33.7759738 36.5963156,33.9938785 C36.3246191,34.2110471 35.9805938,34.3199995 35.5633124,34.3199995 C35.1460311,34.3199995 34.8010785,34.2110471 34.529382,33.9938785 C34.2576855,33.7759738 34.1223009,33.5021205 34.1223009,33.1708463 C34.1223009,32.8395722 34.2576855,32.5671913 34.529382,32.3529673 C34.8010785,32.1394796 35.1460311,32.0319995 35.5633124,32.0319995 C35.9805938,32.0319995 36.3246191,32.1394796 36.5963156,32.3529673 C36.8680121,32.5671913 37.004324,32.8395722 37.004324,33.1708463 M32.4772851,33.1708463 C32.4772851,33.5021205 32.3419005,33.7759738 32.0702039,33.9938785 C31.7985074,34.2110471 31.4535548,34.3199995 31.0372008,34.3199995 C30.6189922,34.3199995 30.2749669,34.2110471 30.0032704,33.9938785 C29.7315738,33.7759738 29.5952619,33.5021205 29.5952619,33.1708463 C29.5952619,32.8395722 29.7315738,32.5671913 30.0032704,32.3529673 C30.2749669,32.1394796 30.6189922,32.0319995 31.0372008,32.0319995 C31.4535548,32.0319995 31.7985074,32.1394796 32.0702039,32.3529673 C32.3419005,32.5671913 32.4772851,32.8395722 32.4772851,33.1708463 M27.9511734,33.1708463 C27.9511734,33.5021205 27.8157888,33.7759738 27.5440923,33.9938785 C27.2723958,34.2110471 26.9274432,34.3199995 26.5101619,34.3199995 C26.0928805,34.3199995 25.7488553,34.2110471 25.4771587,33.9938785 C25.2054622,33.7759738 25.0691503,33.5021205 25.0691503,33.1708463 C25.0691503,32.8395722 25.2054622,32.5671913 25.4771587,32.3529673 C25.7488553,32.1394796 26.0928805,32.0319995 26.5101619,32.0319995 C26.9274432,32.0319995 27.2723958,32.1394796 27.5440923,32.3529673 C27.8157888,32.5671913 27.9511734,32.8395722 27.9511734,33.1708463 M23.4250618,33.1708463 C23.4250618,33.5021205 23.2887499,33.7759738 23.0170534,33.9938785 C22.7453569,34.2110471 22.4013316,34.3199995 21.983123,34.3199995 C21.5667689,34.3199995 21.2218163,34.2110471 20.9501198,33.9938785 C20.6784233,33.7759738 20.5430387,33.5021205 20.5430387,33.1708463 C20.5430387,32.8395722 20.6784233,32.5671913 20.9501198,32.3529673 C21.2218163,32.1394796 21.5667689,32.0319995 21.983123,32.0319995 C22.4013316,32.0319995 22.7453569,32.1394796 23.0170534,32.3529673 C23.2887499,32.5671913 23.4250618,32.8395722 23.4250618,33.1708463 M18.8980229,33.1708463 C18.8980229,33.5021205 18.7626383,33.7759738 18.4909418,33.9938785 C18.2192452,34.2110471 17.8742927,34.3199995 17.4570113,34.3199995 C17.03973,34.3199995 16.6957047,34.2110471 16.4240082,33.9938785 C16.1523117,33.7759738 16.0159998,33.5021205 16.0159998,33.1708463 C16.0159998,32.8395722 16.1523117,32.5671913 16.4240082,32.3529673 C16.6957047,32.1394796 17.03973,32.0319995 17.4570113,32.0319995 C17.8742927,32.0319995 18.2192452,32.1394796 18.4909418,32.3529673 C18.7626383,32.5671913 18.8980229,32.8395722 18.8980229,33.1708463"/>
      <path fill="#000" d="M233.376473,33.7473739 L233.376473,27.7416868 L235.337616,27.7416868 L235.337616,29.8862176 C235.337616,30.1231086 235.556898,30.315791 235.827663,30.315791 L238.279807,30.315791 L238.279807,33.7473739 L233.376473,33.7473739 Z M231.414377,27.7416868 L231.414377,29.4574782 L228.472186,29.4574782 L228.472186,23.4517911 L230.434282,23.4517911 L230.434282,25.597156 C230.434282,25.834047 230.654518,26.0258953 230.92433,26.0258953 L233.376473,26.0258953 C232.292458,26.0258953 231.414377,26.7941228 231.414377,27.7416868 L231.414377,27.7416868 Z M232.970325,25.1675826 L231.414377,25.1675826 L231.414377,23.8071276 L232.970325,25.1675826 Z M237.873659,29.4574782 L236.317711,29.4574782 L236.317711,28.0970233 L237.873659,29.4574782 Z M239.953023,28.8510707 L237.011786,26.2769664 C236.827779,26.1168148 236.577989,26.0258953 236.317711,26.0258953 L235.337616,26.0258953 L235.337616,25.1675826 C235.337616,24.9398669 235.233695,24.7221608 235.049689,24.561175 L232.108452,21.9870708 C231.924446,21.826085 231.674655,21.7359997 231.414377,21.7359997 L228.472186,21.7359997 C227.390078,21.7359997 226.511997,22.5042272 226.511997,23.4517911 L226.511997,29.4574782 C226.511997,30.4050422 227.390078,31.1732697 228.472186,31.1732697 L231.414377,31.1732697 L231.414377,33.7473739 C231.414377,34.6949379 232.292458,35.4639995 233.376473,35.4639995 L238.279807,35.4639995 C239.361915,35.4639995 240.239996,34.6949379 240.239996,33.7473739 L240.239996,29.4574782 C240.239996,29.2297626 240.137029,29.0120564 239.953023,28.8510707 L239.953023,28.8510707 Z"/>
      <path fill="#5B5B66" d="M58.0590462,18.0459884 C58.4909479,18.0459884 58.8536346,18.1375877 59.1452605,18.3207863 C59.3132223,18.4262643 59.5051786,18.6113134 59.7192837,18.8750084 L59.7192837,16.0159998 L60.6319991,16.0159998 L60.6319991,23.8074922 L59.7774244,23.8074922 L59.7774244,23.0201083 C59.5568592,23.3689258 59.2938421,23.6205926 58.9920646,23.7751086 C58.6902872,23.9305498 58.3442121,24.0082705 57.9538394,24.0082705 C57.3244442,24.0082705 56.7799527,23.742725 56.3194422,23.2125593 C55.8589316,22.6823937 55.6282149,21.9764313 55.6282149,21.0955976 C55.6282149,20.2712039 55.8386285,19.5569143 56.2585329,18.9518038 C56.6784374,18.3476184 57.2783008,18.0459884 58.0590462,18.0459884 L58.0590462,18.0459884 Z M56.6304483,21.0428586 C56.6304483,21.6498197 56.7587268,22.155929 57.0152838,22.5658127 C57.2718408,22.973846 57.6825165,23.1783252 58.2491568,23.1783252 C58.6884414,23.1783252 59.0492824,22.9895752 59.3316797,22.6102245 C59.6149998,22.2308738 59.7561984,21.68868 59.7561984,20.9799419 C59.7561984,20.2638019 59.6103855,19.7345615 59.3187595,19.3912954 C59.0271336,19.047104 58.6672155,18.8750084 58.2380824,18.8750084 C57.7600374,18.8750084 57.3724333,19.0591322 57.076193,19.4255295 C56.7790299,19.7919267 56.6304483,20.3313448 56.6304483,21.0428586 L56.6304483,21.0428586 Z M52.6261289,18.1459149 L53.5277698,18.1459149 L53.5277698,19.1238994 C53.6006763,18.9342241 53.7824811,18.7019875 54.0704156,18.42904 C54.35835,18.1560926 54.6905821,18.0200815 55.0671118,18.0200815 L55.1178695,18.021932 L55.3725807,18.0459884 L55.3725807,19.0498798 C55.3162859,19.0397021 55.2646053,19.0323001 55.2175391,19.0285991 L55.0615746,19.0239729 C54.5835296,19.0239729 54.2162285,19.1784889 53.9596715,19.4865957 C53.7031146,19.7947024 53.5748361,20.1490714 53.5748361,20.5515532 L53.5748361,23.8074922 L52.6261289,23.8074922 L52.6261289,18.1459149 Z M49.0380225,17.9830717 C49.7661644,17.9830717 50.3807938,18.225486 50.8837562,18.7121652 C51.3867187,19.1979191 51.6377385,19.9140591 51.6377385,20.8578095 C51.6377385,21.7701016 51.4162504,22.5251019 50.9732743,23.1200348 C50.5302982,23.7158929 49.8427624,24.0138219 48.9115897,24.0138219 C48.1354587,24.0138219 47.5180607,23.750127 47.0612416,23.2236623 C46.6044225,22.6962723 46.3755515,21.9893848 46.3755515,21.1011491 C46.3755515,20.1490714 46.6164198,19.3922206 47.0981563,18.8287461 C47.5798928,18.2643463 48.2258996,17.9830717 49.0380225,17.9830717 L49.0380225,17.9830717 Z M49.0011078,23.1940544 C49.630503,23.1940544 50.0614818,22.9562663 50.29589,22.4779144 C50.5293754,22.0004877 50.6465794,21.4693968 50.6465794,20.8837164 C50.6465794,20.3554012 50.5616757,19.9260873 50.3927911,19.5948494 C50.1260825,19.0730109 49.665572,18.8120917 49.0121822,18.8120917 C48.4316989,18.8120917 48.0099488,19.0341506 47.7469317,19.4782685 C47.4829918,19.9223863 47.3510218,20.4571782 47.3510218,21.0854199 C47.3510218,21.68868 47.4829918,22.190163 47.7469317,22.5917196 C48.0099488,22.9932761 48.4280075,23.1940544 49.0011078,23.1940544 L49.0011078,23.1940544 Z M39.5666397,18.1459149 L40.652854,22.6074488 L41.7547571,18.1459149 L42.8197454,18.1459149 L43.9271857,22.5806166 L45.0807693,18.1459149 L46.0303993,18.1459149 L44.3904649,23.8074922 L43.404843,23.8074922 L42.2549509,19.4255295 L41.1428963,23.8074922 L40.1572745,23.8074922 L38.5274916,18.1459149 L39.5666397,18.1459149 Z M34.4604172,22.0319461 C34.4881032,22.34838 34.5674698,22.5917196 34.697594,22.7610395 C34.9366165,23.0672958 35.3519066,23.2208865 35.9425414,23.2208865 C36.2941537,23.2208865 36.6023913,23.1440912 36.8700227,22.9914257 C37.1376541,22.8378349 37.2705469,22.600972 37.2705469,22.2799119 C37.2705469,22.0365723 37.1634943,21.8515232 36.9484663,21.7247645 C36.811882,21.6479692 36.541482,21.5572951 36.1372664,21.4555181 L35.3832841,21.2649175 C34.9015476,21.1455609 34.5462439,21.0114003 34.3182957,20.863361 C33.9103886,20.6061427 33.706435,20.2499232 33.706435,19.7956277 C33.706435,19.2599105 33.8993142,18.8268956 34.2841497,18.4947325 C34.6689851,18.1644198 35.1867135,17.9978756 35.8364117,17.9978756 C36.687295,17.9978756 37.3000786,18.2486172 37.6766083,18.749175 C37.9119394,19.0665342 38.0263749,19.4079498 38.0189919,19.774347 L37.1228882,19.774347 C37.1053537,19.5596901 37.0296786,19.363538 36.8958629,19.1868161 C36.6789892,18.9379251 36.3006138,18.8120917 35.7625824,18.8120917 C35.40451,18.8120917 35.1331872,18.8805599 34.9486138,19.0184214 C34.7640404,19.1553578 34.6717537,19.3376311 34.6717537,19.563391 C34.6717537,19.8095063 34.7926493,20.0065836 35.0353633,20.1546229 C35.1756391,20.2434465 35.3832841,20.3202419 35.6573756,20.3868595 L36.2849251,20.5404503 C36.9669237,20.7060692 37.4237428,20.867062 37.6553824,21.021578 C38.0245291,21.2649175 38.2091025,21.6479692 38.2091025,22.1688824 C38.2091025,22.6731412 38.0180691,23.1080066 37.636925,23.4744038 C37.255781,23.840801 36.6752977,24.0239996 35.8945524,24.0239996 C35.0547435,24.0239996 34.4594944,23.8333991 34.1097278,23.4512727 C33.7599613,23.068221 33.5726193,22.5954206 33.5486248,22.0319461 L34.4604172,22.0319461 Z M29.227762,22.0319461 C29.2563709,22.34838 29.3348146,22.5917196 29.4649388,22.7610395 C29.7039613,23.0672958 30.1192514,23.2208865 30.7089634,23.2208865 C31.0605756,23.2208865 31.3706589,23.1440912 31.6373674,22.9914257 C31.904076,22.8378349 32.0378917,22.600972 32.0378917,22.2799119 C32.0378917,22.0365723 31.9308391,21.8515232 31.716734,21.7247645 C31.5792268,21.6479692 31.3088268,21.5572951 30.9046111,21.4555181 L30.1506289,21.2649175 C29.6688924,21.1455609 29.3145115,21.0114003 29.0856405,20.863361 C28.6777334,20.6061427 28.4737798,20.2499232 28.4737798,19.7956277 C28.4737798,19.2599105 28.666659,18.8268956 29.0514944,18.4947325 C29.4363299,18.1644198 29.9531354,17.9978756 30.6037565,17.9978756 C31.4546398,17.9978756 32.0674234,18.2486172 32.4439531,18.749175 C32.6792842,19.0665342 32.7937196,19.4079498 32.7863367,19.774347 L31.890233,19.774347 C31.8726985,19.5596901 31.7970234,19.363538 31.6632077,19.1868161 C31.446334,18.9379251 31.0679586,18.8120917 30.5299272,18.8120917 C30.1718548,18.8120917 29.8996091,18.8805599 29.7159586,19.0184214 C29.5304624,19.1553578 29.4390985,19.3376311 29.4390985,19.563391 C29.4390985,19.8095063 29.5599941,20.0065836 29.8027081,20.1546229 C29.9429839,20.2434465 30.1506289,20.3202419 30.4247204,20.3868595 L31.0522698,20.5404503 C31.7342685,20.7060692 32.1910876,20.867062 32.4227272,21.021578 C32.7918739,21.2649175 32.9764473,21.6479692 32.9764473,22.1688824 C32.9764473,22.6731412 32.7854138,23.1080066 32.4042698,23.4744038 C32.0231258,23.840801 31.4426425,24.0239996 30.6618972,24.0239996 C29.8220883,24.0239996 29.2268392,23.8333991 28.8770726,23.4512727 C28.5273061,23.068221 28.3399641,22.5954206 28.3159695,22.0319461 L29.227762,22.0319461 Z M25.8509921,20.3776071 C26.0687887,20.3489245 26.2146017,20.2573252 26.288431,20.1028092 C26.3308829,20.0176866 26.3521088,19.8955542 26.3521088,19.7373372 C26.3521088,19.4135013 26.2367505,19.1784889 26.0069566,19.0313749 C25.7762399,18.8851861 25.4467764,18.8120917 25.0176433,18.8120917 C24.5229867,18.8120917 24.1713744,18.9462523 23.9637293,19.2145735 C23.8474481,19.3626128 23.771773,19.581896 23.7367041,19.8751988 L22.8516747,19.8751988 C22.8692092,19.1775637 23.0943887,18.6918098 23.5281362,18.4179371 C23.9628065,18.1449897 24.4666918,18.0089786 25.0388692,18.0089786 C25.7033334,18.0089786 26.2432105,18.1357372 26.6575778,18.3892545 C27.0691764,18.643697 27.2749757,19.0378516 27.2749757,19.5735687 L27.2749757,22.8350592 C27.2749757,22.9331352 27.2952788,23.0127063 27.334962,23.0728473 C27.3755682,23.1329882 27.4604719,23.1625961 27.5905962,23.1625961 L27.7336405,23.1542689 C27.786244,23.1496426 27.8425388,23.1413154 27.9016023,23.1311377 L27.9016023,23.8343243 L27.7068774,23.8861381 C27.6505825,23.8981663 27.6035163,23.908344 27.5647559,23.9129702 C27.4872351,23.9240731 27.3820283,23.9286994 27.2482126,23.9286994 C26.9215177,23.9286994 26.6843409,23.8121184 26.5366822,23.5798818 C26.4591614,23.4568241 26.4047122,23.2819527 26.3733348,23.0571181 C26.1795327,23.3097101 25.9017498,23.5308438 25.539986,23.7177434 C25.1782221,23.904643 24.7786208,23.9980928 24.3430276,23.9980928 C23.8197621,23.9980928 23.3915519,23.8389505 23.0593198,23.5197408 C22.7270877,23.2005311 22.5609717,22.8017503 22.5609717,22.3224731 C22.5609717,21.7969337 22.7243191,21.3898257 23.051014,21.1011491 C23.3786317,20.8115472 23.806842,20.6339001 24.3374904,20.5672824 L25.8509921,20.3776071 Z M23.5521307,22.3011925 C23.5521307,22.5759904 23.6527232,22.7924979 23.8529853,22.9516401 C24.0532474,23.1098571 24.2904242,23.1894282 24.5645157,23.1894282 C24.8985935,23.1894282 25.2215969,23.1117076 25.5344488,22.9571916 C26.0623286,22.6990481 26.3253457,22.2780614 26.3253457,21.692381 L26.3253457,20.9262777 C26.2099873,21.0002973 26.0604829,21.0622888 25.8768324,21.1113268 C25.6950276,21.1603648 25.5150686,21.1955241 25.3397239,21.21773 L24.7647778,21.2917497 C24.4205484,21.3370867 24.1621457,21.4092558 23.9895696,21.5082571 C23.6979437,21.673876 23.5521307,21.937571 23.5521307,22.3011925 L23.5521307,22.3011925 Z M20.7401553,18.2726736 C20.7401553,17.7027223 20.5288188,17.3150445 20.1070686,17.10964 C19.8754291,17.0013862 19.55704,16.9467967 19.1528243,16.9467967 L17.0652994,16.9467967 L17.0652994,19.6374107 L19.1528243,19.6374107 C19.6234864,19.6374107 20.0064762,19.5365589 20.299025,19.3357806 C20.5924966,19.1350024 20.7401553,18.7806333 20.7401553,18.2726736 L20.7401553,18.2726736 Z M16.0159998,16.0428319 L19.5007451,16.0428319 C20.1892038,16.0428319 20.7447697,16.2371334 21.1665198,16.6266618 C21.58827,17.0161902 21.7996065,17.5639355 21.7996065,18.2680473 C21.7996065,18.8740831 21.6113417,19.4014731 21.2357348,19.8511424 C20.8592051,20.3008117 20.2805676,20.5256464 19.5007451,20.5256464 L17.0652994,20.5256464 L17.0652994,23.8074922 L16.0159998,23.8074922 L16.0159998,16.0428319 Z"/>
    </g>
    <g transform="translate(149 71)">
      <path fill="#7542E5" d="M34.47689,17.2467269 C34.47689,16.3866595 34.15019,15.7416089 33.60569,15.2040668 C32.9522901,14.5590162 32.2988901,14.3439993 31.5365901,14.3439993 L25.4381904,14.3439993 L9.53879103,14.3439993 L3.44160129,14.3439993 C2.56919132,14.3439993 1.91579135,14.6665246 1.37129137,15.2040668 C0.719101399,15.8491173 0.500091408,16.4941679 0.500091408,17.2467269 L0.500091408,38.2108706 C0.500091408,39.0709381 0.826791394,39.7159886 1.37129137,40.2535308 C1.91579135,40.8985814 2.67809132,41.1135982 3.44160129,41.1135982 L31.5365901,41.1135982 C32.4077901,41.1135982 33.0611901,40.7910729 33.60569,40.2535308 C34.25909,39.7159886 34.47689,38.9634296 34.47689,38.2108706 L34.47689,17.2467269 Z"/>
      <path stroke="#7542E5" stroke-width="4.516" d="M25.2104904,15.4439994 L25.2104904,8.54077679 C25.2104904,6.20088831 24.470081,4.21155411 22.988087,2.45755704 C21.5084435,0.818777109 19.6033584,0 17.4890783,0 C15.373623,0 13.5754859,0.818777109 11.9888944,2.45755704 C10.5080757,4.09511126 9.76649102,6.20088831 9.76649102,8.54077679 L9.76649102,15.4439994"/>
      <path fill="#CB9EFF" d="M19.9552406,31.9028527 L18.2392407,26.7826799 C18.6682407,26.6713718 18.988799,26.4487556 19.3117406,26.1148313 C19.8479906,25.5582908 20.0624906,25.0017502 20.0624906,24.2225935 C20.0624906,23.4434368 19.8479906,22.7755882 19.3117406,22.3303558 C18.7754906,21.7738152 18.2392407,21.551199 17.4884907,21.551199 C16.7377407,21.551199 16.0942408,21.7738152 15.6640491,22.3303558 C15.1289908,22.8868963 14.9144908,23.4434368 14.9144908,24.2225935 C14.9144908,25.0017502 15.1289908,25.6695989 15.6640491,26.1148313 C15.9869908,26.4487556 16.3075491,26.6713718 16.7377407,26.7826799 L15.0205491,31.9028527 C14.9144908,32.3480851 14.9144908,32.7933175 15.2362408,33.2385499 C15.5579908,33.6837823 15.8797408,33.9063985 16.4159907,33.9063985 L18.7754906,33.9063985 C19.3117406,33.9063985 19.6322989,33.6837823 19.9552406,33.2385499 C20.0624906,32.7933175 20.0624906,32.3480851 19.9552406,31.9028527"/>
    </g>
  </g>
</svg>
