<svg width="306" height="223" viewBox="0 0 306 223" fill="none" xmlns="http://www.w3.org/2000/svg">
<g clip-path="url(#clip0_951:14851)">
<path d="M301.18 1.30103H3.90303C2.46598 1.30103 1.30103 2.46598 1.30103 3.90303V232.597C1.30103 234.034 2.46598 235.199 3.90303 235.199H301.18C302.617 235.199 303.782 234.034 303.782 232.597V3.90303C303.782 2.46598 302.617 1.30103 301.18 1.30103Z" fill="white" stroke="#F0F0F4" stroke-width="2.602"/>
<path fill-rule="evenodd" clip-rule="evenodd" d="M0 19.5149H305.083V40.9809H0V19.5149Z" fill="#F0F0F4"/>
<path d="M251.091 25.3689H53.9909C53.2724 25.3689 52.6899 25.9514 52.6899 26.6699V33.8249C52.6899 34.5434 53.2724 35.1259 53.9909 35.1259H251.091C251.809 35.1259 252.392 34.5434 252.392 33.8249V26.6699C252.392 25.9514 251.809 25.3689 251.091 25.3689Z" fill="white"/>
<path fill-rule="evenodd" clip-rule="evenodd" d="M2.602 0H302.481C303.171 0 303.833 0.280952 304.321 0.781049C304.809 1.28115 305.083 1.95942 305.083 2.66667V20H0V2.66667C0 1.95942 0.274138 1.28115 0.762108 0.781049C1.25008 0.280952 1.91191 0 2.602 0V0Z" fill="#CFCFD8"/>
<path fill-rule="evenodd" clip-rule="evenodd" d="M26.02 7C26.02 4.79086 27.8109 3 30.02 3H81.866C84.0752 3 85.866 4.79086 85.866 7V13C85.866 15.2091 84.0752 17 81.866 17H30.02C27.8109 17 26.02 15.2091 26.02 13V7Z" fill="#F0F0F4"/>
<g filter="url(#filter0_d_951:14851)">
<path d="M283.833 58.7109H21.885C20.1259 58.7109 18.7 60.1369 18.7 61.8959V206.803C18.7 208.562 20.1259 209.988 21.885 209.988H283.833C285.592 209.988 287.018 208.562 287.018 206.803V61.8959C287.018 60.1369 285.592 58.7109 283.833 58.7109Z" fill="black"/>
</g>
<path d="M283.833 58.7109H21.885C20.1259 58.7109 18.7 60.1369 18.7 61.8959V206.803C18.7 208.562 20.1259 209.988 21.885 209.988H283.833C285.592 209.988 287.018 208.562 287.018 206.803V61.8959C287.018 60.1369 285.592 58.7109 283.833 58.7109Z" fill="white"/>
<path fill-rule="evenodd" clip-rule="evenodd" d="M171.858 71.204C172.931 71.204 173.8 70.334 173.8 69.262V48.889C173.8 47.816 172.93 46.947 171.858 46.947H134.033C132.961 46.947 132.092 47.816 132.092 48.888V69.262C132.092 70.334 132.961 71.204 134.033 71.204H171.858Z" fill="#7542E5"/>
<path fill-rule="evenodd" clip-rule="evenodd" d="M173.8 68.1641V50.0601L159.182 59.1121L173.8 68.1641ZM146.709 59.1121L132.092 50.0601V68.1641L146.709 59.1121Z" fill="#9059FF"/>
<mask id="mask0_951:14851" style="mask-type:alpha" maskUnits="userSpaceOnUse" x="132" y="46" width="42" height="17">
<path fill-rule="evenodd" clip-rule="evenodd" d="M173.8 62.6311L132.092 62.6311V46.9461L173.8 46.9461V62.6311Z" fill="white"/>
</mask>
<g mask="url(#mask0_951:14851)">
<path fill-rule="evenodd" clip-rule="evenodd" d="M146.71 59.1111L151.923 62.3411C152.23 62.5311 152.584 62.6318 152.945 62.6318C153.306 62.6318 153.66 62.5311 153.967 62.3411L159.181 59.1111L173.8 50.0591V48.8891C173.8 47.8161 172.93 46.9461 171.857 46.9461L134.035 46.9461C132.962 46.9461 132.092 47.8161 132.092 48.8891V50.0591L146.709 59.1111H146.71Z" fill="#A97EFF"/>
</g>
<path d="M260.563 81.8308H43.2272C40.4092 81.8308 38.1248 84.1153 38.1248 86.9333V122.491C38.1248 125.309 40.4092 127.594 43.2272 127.594H260.563C263.381 127.594 265.665 125.309 265.665 122.491V86.9333C265.665 84.1153 263.381 81.8308 260.563 81.8308Z" fill="white" stroke="#FF4F5E" stroke-width="1.27562"/>
<path d="M85.0897 109.097V102.379H85.1758L87.912 109.084H89.017L91.7532 102.384H91.8393V109.097H93.1708V99.8202H91.4726L88.5187 107.031H88.4103L85.4565 99.8202H83.7583V109.097H85.0897V109.097ZM96.1382 111.801C97.2615 111.801 97.991 111.195 98.3848 110.111L101.284 102.139H99.8295L98.0675 107.538H97.9958L96.2338 102.139H94.7828L97.3293 109.187L97.1299 109.736C96.7903 110.641 96.3056 110.719 95.5585 110.519L95.2317 111.644C95.3768 111.711 95.7164 111.801 96.1382 111.801V111.801ZM104.065 109.097V105.052H108.006V103.851H104.066V101.025H108.419V99.8202H102.666V109.097H104.066H104.065ZM110.714 101.066C111.182 101.066 111.572 100.704 111.572 100.259C111.572 99.8154 111.182 99.4487 110.715 99.4487C110.244 99.4487 109.859 99.8154 109.859 100.259C109.859 100.704 110.244 101.066 110.715 101.066H110.714ZM111.387 109.097V102.139H110.031V109.097H111.387ZM115.704 109.188C116.134 109.183 116.424 109.102 116.582 109.043L116.338 107.924L116.222 107.947C116.129 107.965 116.007 107.983 115.862 107.983C115.423 107.983 115.028 107.837 115.028 107.055V103.226H116.456V102.139H115.028V100.472H113.673V102.139H112.654V103.226H113.673V107.335C113.668 108.599 114.634 109.21 115.703 109.188H115.704ZM119.305 109.097V104.966C119.305 103.856 119.984 103.222 120.927 103.222C121.846 103.222 122.403 103.824 122.403 104.834V109.097H123.758V104.672C123.758 102.949 122.81 102.049 121.388 102.049C120.342 102.049 119.658 102.533 119.336 103.272H119.25V102.139H117.95V109.097H119.305V109.097ZM128.568 109.237C130.085 109.237 131.159 108.49 131.467 107.357L130.185 107.126C129.94 107.783 129.352 108.119 128.582 108.119C127.422 108.119 126.643 107.367 126.607 106.026H131.553V105.545C131.553 103.032 130.05 102.049 128.473 102.049C126.534 102.049 125.257 103.525 125.257 105.663C125.257 107.824 126.516 109.237 128.568 109.237V109.237ZM130.227 105.011H126.611C126.666 104.023 127.381 103.168 128.482 103.168C129.533 103.168 130.222 103.947 130.226 105.011H130.227ZM135.567 109.237C137.247 109.237 138.411 108.344 138.411 107.086C138.411 106.103 137.786 105.496 136.509 105.202L135.404 104.947C134.639 104.766 134.308 104.509 134.312 104.037C134.308 103.503 134.887 103.122 135.658 103.122C136.5 103.122 136.889 103.589 137.048 104.055L138.276 103.838C137.995 102.755 137.148 102.049 135.644 102.049C134.072 102.049 132.957 102.878 132.957 104.109C132.957 105.097 133.555 105.754 134.86 106.044L136.038 106.302C136.708 106.452 137.021 106.751 137.021 107.185C137.021 107.724 136.446 108.146 135.558 108.146C134.747 108.146 134.226 107.797 134.063 107.113L132.754 107.312C132.98 108.545 134.004 109.237 135.567 109.237V109.237ZM142.402 109.237C144.083 109.237 145.247 108.344 145.247 107.086C145.247 106.103 144.622 105.496 143.345 105.202L142.24 104.947C141.474 104.766 141.143 104.509 141.147 104.037C141.143 103.503 141.723 103.122 142.493 103.122C143.336 103.122 143.725 103.589 143.884 104.055L145.111 103.838C144.831 102.755 143.983 102.049 142.48 102.049C140.907 102.049 139.793 102.878 139.793 104.109C139.793 105.097 140.391 105.754 141.696 106.044L142.874 106.302C143.544 106.452 143.857 106.751 143.857 107.185C143.857 107.724 143.281 108.146 142.394 108.146C141.583 108.146 141.062 107.797 140.899 107.113L139.59 107.312C139.816 108.545 140.84 109.237 142.402 109.237V109.237ZM148.241 109.097V105.836H150.144C152.296 105.836 153.36 104.535 153.36 102.823C153.36 101.116 152.305 99.8202 150.149 99.8202H146.841V109.097H148.241ZM150.017 104.648H148.241V101.021H149.999C151.385 101.021 151.951 101.773 151.951 102.823C151.951 103.874 151.385 104.648 150.017 104.648V104.648ZM156.912 109.251C158.062 109.251 158.71 108.667 158.969 108.146H159.023V109.097H160.345V104.477C160.345 102.452 158.751 102.049 157.645 102.049C156.386 102.049 155.226 102.556 154.773 103.824L156.047 104.114C156.246 103.62 156.753 103.145 157.664 103.145C158.538 103.145 158.987 103.602 158.987 104.391V104.423C158.987 104.916 158.479 104.907 157.229 105.053C155.91 105.206 154.561 105.55 154.561 107.131C154.561 108.499 155.589 109.252 156.912 109.252V109.251ZM157.207 108.164C156.441 108.164 155.888 107.82 155.888 107.149C155.888 106.424 156.531 106.166 157.315 106.062C157.754 106.003 158.796 105.886 158.991 105.69V106.587C158.991 107.412 158.334 108.164 157.206 108.164H157.207ZM163.502 109.097V99.8202H162.147V109.097H163.503H163.502Z" fill="#20123A"/>
<path fill-rule="evenodd" clip-rule="evenodd" d="M69.6899 103.516C72.2228 102.342 73.8755 100.58 73.9664 98.6243C73.9664 98.6243 73.2983 98.0806 71.1393 97.245C69.2434 96.51 67.7988 96.3409 67.7988 96.3409L67.8052 100.699C67.8052 101.35 67.5564 102.016 67.0877 102.604C65.5586 102.221 63.988 102.029 62.4117 102.033H62.4109C60.7486 102.033 59.1645 102.24 57.731 102.606C57.2606 102.017 57.0119 101.351 57.0119 100.699L57.0167 96.3409C57.0167 96.3409 55.5712 96.51 53.6754 97.245C51.5164 98.0806 50.8483 98.6243 50.8483 98.6243C50.9384 100.581 52.5943 102.344 55.1288 103.517C52.5951 104.691 50.9415 106.454 50.8523 108.409C50.8523 108.409 51.5196 108.952 53.6777 109.788C55.5752 110.524 57.0199 110.692 57.0199 110.692L57.0135 106.335C57.0135 105.683 57.2622 105.018 57.731 104.429C59.1645 104.793 60.7455 104.999 62.4069 105H62.4077C64.0708 104.999 65.6542 104.793 67.0885 104.428C67.5588 105.017 67.8076 105.682 67.8076 106.335L67.8004 110.692C67.8004 110.692 69.2466 110.524 71.1425 109.789C73.3015 108.952 73.9688 108.409 73.9688 108.409C73.8795 106.453 72.2236 104.69 69.6899 103.516ZM65.9962 103.516C65.1192 103.998 63.9233 104.314 62.454 104.314H62.3599C60.8929 104.314 59.6971 103.998 58.8209 103.517C59.6979 103.036 60.8937 102.72 62.3631 102.72H62.4572C63.9241 102.72 65.12 103.035 65.997 103.515" fill="#0072C6"/>
<path d="M250.026 113.487L240.166 95.5461C239.581 94.4801 238.006 94.4801 237.418 95.5461L227.56 113.487C227.008 114.493 227.759 115.71 228.935 115.71H248.653C249.827 115.71 250.579 114.493 250.026 113.487V113.487Z" fill="#FF4F5E"/>
<path fill-rule="evenodd" clip-rule="evenodd" d="M238.794 112.688C237.934 112.688 237.236 112.011 237.236 111.177C237.236 110.343 237.934 109.666 238.794 109.666C239.652 109.666 240.35 110.343 240.35 111.177C240.35 112.011 239.652 112.688 238.794 112.688ZM240.35 108.156H237.236V102.112H240.35V108.156Z" fill="white"/>
<path d="M261.358 141.625H43.2272C40.4092 141.625 38.1248 143.909 38.1248 146.727V182.285C38.1248 185.103 40.4092 187.388 43.2272 187.388H261.358C264.176 187.388 266.46 185.103 266.46 182.285V146.727C266.46 143.909 264.176 141.625 261.358 141.625Z" fill="white" stroke="#FF4F5E" stroke-width="1.27562"/>
<path fill-rule="evenodd" clip-rule="evenodd" d="M60.7072 170.49H68.0156V157.356H60.7072V170.49Z" fill="#FF5F00"/>
<mask id="mask1_951:14851" style="mask-type:alpha" maskUnits="userSpaceOnUse" x="50" y="155" width="15" height="18">
<path fill-rule="evenodd" clip-rule="evenodd" d="M50.8483 155.57H64.3618V172.275H50.8483V155.57Z" fill="white"/>
</mask>
<g mask="url(#mask1_951:14851)">
<path fill-rule="evenodd" clip-rule="evenodd" d="M61.1712 163.924C61.17 162.659 61.4567 161.411 62.0095 160.273C62.5623 159.135 63.3667 158.138 64.3618 157.357C60.7343 154.506 55.4843 155.136 52.6341 158.763C49.7839 162.388 50.413 167.64 54.0397 170.49C55.5114 171.647 57.329 172.276 59.2008 172.276C61.0726 172.276 62.8902 171.647 64.3618 170.49C63.3669 169.71 62.5625 168.713 62.0098 167.575C61.457 166.437 61.1702 165.189 61.1712 163.924" fill="#EB001B"/>
</g>
<mask id="mask2_951:14851" style="mask-type:alpha" maskUnits="userSpaceOnUse" x="64" y="155" width="14" height="18">
<path fill-rule="evenodd" clip-rule="evenodd" d="M64.3618 155.57H77.8754V172.276H64.3618V155.57Z" fill="white"/>
</mask>
<g mask="url(#mask2_951:14851)">
<path fill-rule="evenodd" clip-rule="evenodd" d="M77.8762 163.924C77.8762 168.537 74.1362 172.276 69.5233 172.276C67.6513 172.276 65.8336 171.646 64.3618 170.49C67.9878 167.64 68.6176 162.388 65.7674 158.763C65.3565 158.24 64.8847 157.767 64.3618 157.356C67.9878 154.505 73.2385 155.134 76.0895 158.76C77.2465 160.232 77.8755 162.05 77.8754 163.923V163.925L77.8762 163.924Z" fill="#F79E1B"/>
</g>
<path fill-rule="evenodd" clip-rule="evenodd" d="M77.613 169.098V168.773H77.5301L77.4328 169.005L77.3348 168.773H77.2606V169.098H77.3212V168.854L77.4121 169.066H77.4743L77.5644 168.854V169.1L77.613 169.098V169.098ZM77.0773 169.098V168.829H77.1865V168.773H76.9106V168.829H77.0286V169.098H77.0773V169.098Z" fill="#F79E1B"/>
<path d="M250.764 171.686L240.87 153.746C240.283 152.68 238.702 152.68 238.113 153.746L228.22 171.686C227.665 172.692 228.42 173.909 229.6 173.909H249.387C250.564 173.909 251.319 172.692 250.764 171.686Z" fill="#FF4F5E"/>
<path fill-rule="evenodd" clip-rule="evenodd" d="M239.492 170.887C238.63 170.887 237.93 170.211 237.93 169.377C237.93 168.543 238.63 167.866 239.493 167.866C240.354 167.866 241.055 168.543 241.055 169.377C241.055 170.211 240.355 170.887 239.492 170.887ZM241.055 166.355H237.93V160.312H241.055V166.355Z" fill="white"/>
<path d="M85.0897 168.891V162.173H85.1758L87.912 168.878H89.017L91.7532 162.178H91.8393V168.891H93.1708V159.614H91.4726L88.5187 166.825H88.4103L85.4565 159.614H83.7583V168.891H85.0897V168.891ZM97.3564 169.045C98.5068 169.045 99.155 168.461 99.4133 167.94H99.4675V168.891H100.789V164.271C100.789 162.246 99.1949 161.843 98.0898 161.843C96.8302 161.843 95.671 162.35 95.2173 163.618L96.4905 163.908C96.6899 163.414 97.1969 162.939 98.1074 162.939C98.982 162.939 99.4308 163.396 99.4308 164.185V164.217C99.4308 164.71 98.923 164.701 97.6729 164.847C96.355 165 95.0044 165.344 95.0044 166.925C95.0044 168.293 96.0329 169.046 97.3564 169.046V169.045ZM97.6514 167.958C96.886 167.958 96.3327 167.614 96.3327 166.943C96.3327 166.218 96.9761 165.96 97.7598 165.856C98.1991 165.797 99.2411 165.68 99.4356 165.484V166.381C99.4356 167.206 98.7787 167.958 97.6506 167.958H97.6514ZM105.098 169.031C106.778 169.031 107.943 168.138 107.943 166.88C107.943 165.897 107.317 165.29 106.04 164.996L104.935 164.741C104.17 164.56 103.839 164.303 103.843 163.831C103.839 163.297 104.418 162.916 105.189 162.916C106.031 162.916 106.42 163.383 106.579 163.849L107.807 163.632C107.526 162.549 106.679 161.843 105.175 161.843C103.603 161.843 102.488 162.672 102.488 163.903C102.488 164.891 103.086 165.548 104.391 165.838L105.569 166.096C106.239 166.246 106.552 166.545 106.552 166.979C106.552 167.518 105.977 167.94 105.089 167.94C104.278 167.94 103.758 167.591 103.594 166.907L102.285 167.106C102.511 168.339 103.535 169.031 105.098 169.031V169.031ZM111.925 168.982C112.355 168.977 112.645 168.896 112.803 168.837L112.559 167.718L112.444 167.741C112.351 167.759 112.228 167.777 112.083 167.777C111.644 167.777 111.249 167.631 111.249 166.849V163.02H112.677V161.933H111.249V160.266H109.895V161.933H108.876V163.02H109.895V167.129C109.891 168.393 110.856 169.004 111.925 168.982ZM117.171 169.031C118.688 169.031 119.762 168.284 120.07 167.151L118.788 166.92C118.543 167.577 117.954 167.913 117.183 167.913C116.024 167.913 115.245 167.161 115.209 165.82H120.156V165.339C120.156 162.826 118.651 161.843 117.075 161.843C115.136 161.843 113.859 163.319 113.859 165.457C113.859 167.618 115.119 169.031 117.17 169.031H117.171ZM118.828 164.805H115.213C115.268 163.817 115.984 162.962 117.084 162.962C118.135 162.962 118.823 163.741 118.828 164.805ZM123.019 168.891V164.642C123.019 163.736 123.72 163.079 124.658 163.079C124.921 163.079 125.125 163.133 125.288 163.215L125.723 162.082C125.492 161.929 125.193 161.829 124.812 161.829C123.988 161.829 123.299 162.291 123.046 163.038H122.973V161.933H121.664V168.891H123.019V168.891ZM129.677 169.031C131.321 169.031 132.386 168.044 132.535 166.69H131.218C131.045 167.442 130.46 167.886 129.687 167.886C128.54 167.886 127.802 166.929 127.802 165.412C127.802 163.922 128.554 162.984 129.686 162.984C130.547 162.984 131.072 163.528 131.217 164.18H132.535C132.39 162.776 131.244 161.843 129.664 161.843C127.702 161.843 126.434 163.319 126.434 165.444C126.434 167.541 127.657 169.031 129.677 169.031V169.031ZM136.015 169.045C137.165 169.045 137.813 168.461 138.072 167.94H138.126V168.891H139.449V164.271C139.449 162.246 137.854 161.843 136.748 161.843C135.489 161.843 134.329 162.35 133.876 163.618L135.15 163.908C135.349 163.414 135.856 162.939 136.767 162.939C137.641 162.939 138.09 163.396 138.09 164.185V164.217C138.09 164.71 137.582 164.701 136.332 164.847C135.013 165 133.664 165.344 133.664 166.925C133.664 168.293 134.692 169.046 136.015 169.046V169.045ZM136.31 167.958C135.544 167.958 134.991 167.614 134.991 166.943C134.991 166.218 135.634 165.96 136.418 165.856C136.857 165.797 137.899 165.68 138.094 165.484V166.381C138.094 167.206 137.437 167.958 136.309 167.958H136.31ZM142.606 168.891V164.642C142.606 163.736 143.307 163.079 144.246 163.079C144.509 163.079 144.712 163.133 144.875 163.215L145.31 162.082C145.079 161.929 144.78 161.829 144.399 161.829C143.575 161.829 142.886 162.291 142.633 163.038H142.56V161.933H141.251V168.891H142.606V168.891ZM148.938 169.027C150.207 169.027 150.705 168.252 150.95 167.808H151.063V168.891H152.386V159.614H151.031V163.062H150.95C150.705 162.631 150.243 161.843 148.947 161.843C147.266 161.843 146.03 163.17 146.03 165.425C146.03 167.677 147.249 169.027 148.938 169.027V169.027ZM149.237 167.872C148.028 167.872 147.398 166.807 147.398 165.412C147.398 164.03 148.014 162.993 149.237 162.993C150.42 162.993 151.053 163.958 151.053 165.412C151.053 166.876 150.406 167.872 149.237 167.872Z" fill="#20123A"/>
</g>
<defs>
<filter id="filter0_d_951:14851" x="11.7" y="53.7109" width="282.318" height="165.277" filterUnits="userSpaceOnUse" color-interpolation-filters="sRGB">
<feFlood flood-opacity="0" result="BackgroundImageFix"/>
<feColorMatrix in="SourceAlpha" type="matrix" values="0 0 0 0 0 0 0 0 0 0 0 0 0 0 0 0 0 0 127 0" result="hardAlpha"/>
<feOffset dy="2"/>
<feGaussianBlur stdDeviation="3.5"/>
<feColorMatrix type="matrix" values="0 0 0 0 0.12549 0 0 0 0 0.0705882 0 0 0 0 0.227451 0 0 0 0.24 0"/>
<feBlend mode="normal" in2="BackgroundImageFix" result="effect1_dropShadow_951:14851"/>
<feBlend mode="normal" in="SourceGraphic" in2="effect1_dropShadow_951:14851" result="shape"/>
</filter>
<clipPath id="clip0_951:14851">
<rect width="306" height="223" fill="white"/>
</clipPath>
</defs>
</svg>
