<svg width="306" height="223" fill="none" xmlns="http://www.w3.org/2000/svg"><g clip-path="url(#a)"><path d="M301.18 1.301H3.903a2.602 2.602 0 0 0-2.602 2.602v228.694a2.602 2.602 0 0 0 2.602 2.602H301.18a2.602 2.602 0 0 0 2.602-2.602V3.903a2.602 2.602 0 0 0-2.602-2.602Z" fill="#fff" stroke="#F0F0F4" stroke-width="2.602"/><path fill-rule="evenodd" clip-rule="evenodd" d="M0 19.515h305.083V40.98H0V19.515Z" fill="#F0F0F4"/><path d="M251.091 25.369h-197.1c-.719 0-1.301.582-1.301 1.3v7.156c0 .718.582 1.3 1.3 1.3h197.101c.718 0 1.301-.582 1.301-1.3V26.67c0-.719-.583-1.301-1.301-1.301Z" fill="#fff"/><path fill-rule="evenodd" clip-rule="evenodd" d="M2.602 0h299.879c.69 0 1.352.281 1.84.781a2.7 2.7 0 0 1 .762 1.886V20H0V2.667A2.7 2.7 0 0 1 .762.78 2.57 2.57 0 0 1 2.602 0Z" fill="#CFCFD8"/><path fill-rule="evenodd" clip-rule="evenodd" d="M26.02 7a4 4 0 0 1 4-4h51.846a4 4 0 0 1 4 4v6a4 4 0 0 1-4 4H30.02a4 4 0 0 1-4-4V7Z" fill="#F0F0F4"/><g filter="url(#b)"><path d="M283.833 58.71H21.885a3.185 3.185 0 0 0-3.185 3.186v144.907a3.185 3.185 0 0 0 3.185 3.185h261.948a3.185 3.185 0 0 0 3.185-3.185V61.896a3.185 3.185 0 0 0-3.185-3.185Z" fill="#000"/></g><path d="M283.833 58.71H21.885a3.185 3.185 0 0 0-3.185 3.186v144.907a3.185 3.185 0 0 0 3.185 3.185h261.948a3.185 3.185 0 0 0 3.185-3.185V61.896a3.185 3.185 0 0 0-3.185-3.185Z" fill="#fff"/><path fill-rule="evenodd" clip-rule="evenodd" d="M171.858 71.204c1.073 0 1.942-.87 1.942-1.942V48.889c0-1.073-.87-1.942-1.942-1.942h-37.825a1.941 1.941 0 0 0-1.941 1.941v20.374c0 1.072.869 1.942 1.941 1.942h37.825Z" fill="#7542E5"/><path fill-rule="evenodd" clip-rule="evenodd" d="M173.8 68.164V50.06l-14.618 9.052 14.618 9.052Zm-27.091-9.052-14.617-9.052v18.104l14.617-9.052Z" fill="#9059FF"/><mask id="c" style="mask-type:alpha" maskUnits="userSpaceOnUse" x="132" y="46" width="42" height="17"><path fill-rule="evenodd" clip-rule="evenodd" d="M173.8 62.631h-41.708V46.946H173.8v15.685Z" fill="#fff"/></mask><g mask="url(#c)"><path fill-rule="evenodd" clip-rule="evenodd" d="m146.71 59.111 5.213 3.23a1.942 1.942 0 0 0 2.044 0l5.214-3.23L173.8 50.06v-1.17c0-1.073-.87-1.943-1.943-1.943h-37.822c-1.073 0-1.943.87-1.943 1.943v1.17l14.617 9.052h.001Z" fill="#A97EFF"/></g><path d="M260.563 81.83H43.227a5.102 5.102 0 0 0-5.102 5.103v35.558a5.103 5.103 0 0 0 5.102 5.103h217.336a5.103 5.103 0 0 0 5.102-5.103V86.933a5.102 5.102 0 0 0-5.102-5.102Z" fill="#fff" stroke="#FF4F5E" stroke-width="1.276"/><path d="M85.09 109.097v-6.718h.086l2.736 6.705h1.105l2.736-6.7h.086v6.713h1.332V99.82h-1.698l-2.954 7.211h-.109l-2.953-7.21h-1.699v9.276h1.332Zm11.048 2.704c1.123 0 1.853-.606 2.247-1.69l2.899-7.972h-1.455l-1.761 5.399h-.072l-1.762-5.399h-1.451l2.546 7.048-.2.549c-.339.905-.823.983-1.57.783l-.327 1.125c.145.067.484.157.906.157Zm7.927-2.704v-4.045h3.941v-1.201h-3.94v-2.826h4.353V99.82h-5.753v9.277h1.4-.001Zm6.649-8.031c.468 0 .858-.362.858-.807 0-.444-.39-.81-.857-.81-.471 0-.856.366-.856.81 0 .445.385.807.856.807h-.001Zm.673 8.031v-6.958h-1.356v6.958h1.356Zm4.317.091c.43-.005.72-.086.878-.145l-.244-1.119-.116.023a1.874 1.874 0 0 1-.36.036c-.439 0-.834-.146-.834-.928v-3.829h1.428v-1.087h-1.428v-1.667h-1.355v1.667h-1.019v1.087h1.019v4.109c-.005 1.264.961 1.875 2.03 1.853h.001Zm3.601-.091v-4.131c0-1.11.679-1.744 1.622-1.744.919 0 1.476.602 1.476 1.612v4.263h1.355v-4.425c0-1.723-.948-2.623-2.37-2.623-1.046 0-1.73.484-2.052 1.223h-.086v-1.133h-1.3v6.958h1.355Zm9.263.14c1.517 0 2.591-.747 2.899-1.88l-1.282-.231c-.245.657-.833.993-1.603.993-1.16 0-1.939-.752-1.975-2.093h4.946v-.481c0-2.513-1.503-3.496-3.08-3.496-1.939 0-3.216 1.476-3.216 3.614 0 2.161 1.259 3.574 3.311 3.574Zm1.659-4.226h-3.616c.055-.988.77-1.843 1.871-1.843 1.051 0 1.74.779 1.744 1.843h.001Zm5.34 4.226c1.68 0 2.844-.893 2.844-2.151 0-.983-.625-1.59-1.902-1.884l-1.105-.255c-.765-.181-1.096-.438-1.092-.91-.004-.534.575-.915 1.346-.915.842 0 1.231.467 1.39.933l1.228-.217c-.281-1.083-1.128-1.789-2.632-1.789-1.572 0-2.687.829-2.687 2.06 0 .988.598 1.645 1.903 1.935l1.178.258c.67.15.983.449.983.883 0 .539-.575.961-1.463.961-.811 0-1.332-.349-1.495-1.033l-1.309.199c.226 1.233 1.25 1.925 2.813 1.925Zm6.835 0c1.681 0 2.845-.893 2.845-2.151 0-.983-.625-1.59-1.902-1.884l-1.105-.255c-.766-.181-1.097-.438-1.093-.91-.004-.534.576-.915 1.346-.915.843 0 1.232.467 1.391.933l1.227-.217c-.28-1.083-1.128-1.789-2.631-1.789-1.573 0-2.687.829-2.687 2.06 0 .988.598 1.645 1.903 1.935l1.178.258c.67.15.983.449.983.883 0 .539-.576.961-1.463.961-.811 0-1.332-.349-1.495-1.033l-1.309.199c.226 1.233 1.25 1.925 2.812 1.925Zm5.839-.14v-3.261h1.903c2.152 0 3.216-1.301 3.216-3.013 0-1.707-1.055-3.003-3.211-3.003h-3.308v9.277h1.4Zm1.776-4.449h-1.776v-3.627h1.758c1.386 0 1.952.752 1.952 1.802 0 1.051-.566 1.825-1.934 1.825Zm6.895 4.603c1.15 0 1.798-.584 2.057-1.105h.054v.951h1.322v-4.62c0-2.025-1.594-2.428-2.7-2.428-1.259 0-2.419.507-2.872 1.775l1.274.29c.199-.494.706-.969 1.617-.969.874 0 1.323.457 1.323 1.246v.032c0 .493-.508.484-1.758.63-1.319.153-2.668.497-2.668 2.078 0 1.368 1.028 2.121 2.351 2.121v-.001Zm.295-1.087c-.766 0-1.319-.344-1.319-1.015 0-.725.643-.983 1.427-1.087.439-.059 1.481-.176 1.676-.372v.897c0 .825-.657 1.577-1.785 1.577h.001Zm6.295.933V99.82h-1.355v9.277h1.356-.001Z" fill="#20123A"/><path fill-rule="evenodd" clip-rule="evenodd" d="M69.69 103.516c2.533-1.174 4.186-2.936 4.276-4.892 0 0-.668-.543-2.827-1.379-1.896-.735-3.34-.904-3.34-.904l.006 4.358c0 .651-.249 1.317-.717 1.905-1.53-.383-3.1-.575-4.676-.571h-.001c-1.662 0-3.247.207-4.68.573-.47-.589-.72-1.255-.72-1.907l.006-4.358s-1.446.169-3.342.904c-2.159.836-2.827 1.38-2.827 1.38.09 1.956 1.746 3.719 4.28 4.892-2.533 1.174-4.187 2.937-4.276 4.892 0 0 .668.543 2.826 1.379 1.897.736 3.342.904 3.342.904l-.007-4.357c0-.652.25-1.317.718-1.906 1.433.364 3.014.57 4.676.571a19.109 19.109 0 0 0 4.681-.572c.47.589.72 1.254.72 1.907l-.008 4.357s1.447-.168 3.343-.903c2.159-.837 2.826-1.38 2.826-1.38-.09-1.956-1.745-3.719-4.28-4.893Zm-3.694 0c-.877.482-2.073.798-3.542.798h-.094c-1.467 0-2.663-.316-3.54-.797.878-.481 2.074-.797 3.543-.797h.094c1.467 0 2.663.315 3.54.795" fill="#0072C6"/><path d="m250.026 113.487-9.86-17.94c-.585-1.067-2.16-1.067-2.748 0l-9.858 17.94c-.552 1.006.199 2.223 1.375 2.223h19.718c1.174 0 1.926-1.217 1.373-2.223Z" fill="#FF4F5E"/><path fill-rule="evenodd" clip-rule="evenodd" d="M238.794 112.688c-.86 0-1.558-.677-1.558-1.511 0-.834.698-1.511 1.558-1.511.858 0 1.556.677 1.556 1.511 0 .834-.698 1.511-1.556 1.511Zm1.556-4.532h-3.114v-6.044h3.114v6.044Z" fill="#fff"/><path d="M261.358 141.625H43.228a5.102 5.102 0 0 0-5.103 5.102v35.558a5.103 5.103 0 0 0 5.102 5.103h218.131a5.103 5.103 0 0 0 5.102-5.103v-35.558a5.102 5.102 0 0 0-5.102-5.102Z" fill="#fff" stroke="#FF4F5E" stroke-width="1.276"/><path fill-rule="evenodd" clip-rule="evenodd" d="M60.707 170.49h7.309v-13.134h-7.309v13.134Z" fill="#FF5F00"/><mask id="d" style="mask-type:alpha" maskUnits="userSpaceOnUse" x="50" y="155" width="15" height="18"><path fill-rule="evenodd" clip-rule="evenodd" d="M50.848 155.57h13.514v16.705H50.848V155.57Z" fill="#fff"/></mask><g mask="url(#d)"><path fill-rule="evenodd" clip-rule="evenodd" d="M61.171 163.924a8.336 8.336 0 0 1 3.19-6.567 8.351 8.351 0 0 0-11.727 1.406 8.352 8.352 0 0 0 11.728 11.727 8.326 8.326 0 0 1-3.19-6.566" fill="#EB001B"/></g><mask id="e" style="mask-type:alpha" maskUnits="userSpaceOnUse" x="64" y="155" width="14" height="18"><path fill-rule="evenodd" clip-rule="evenodd" d="M64.362 155.57h13.513v16.706H64.362V155.57Z" fill="#fff"/></mask><g mask="url(#e)"><path fill-rule="evenodd" clip-rule="evenodd" d="M77.876 163.924a8.352 8.352 0 0 1-13.514 6.566 8.352 8.352 0 0 0 0-13.134 8.352 8.352 0 0 1 13.513 6.567v.002l.001-.001Z" fill="#F79E1B"/></g><path fill-rule="evenodd" clip-rule="evenodd" d="M77.613 169.098v-.325h-.083l-.097.232-.098-.232h-.074v.325h.06v-.244l.091.212h.062l.09-.212v.246l.049-.002Zm-.536 0v-.269h.11v-.056h-.276v.056h.118v.269h.048Z" fill="#F79E1B"/><path d="m250.764 171.686-9.894-17.94c-.587-1.066-2.168-1.066-2.757 0l-9.893 17.94c-.555 1.006.2 2.223 1.38 2.223h19.787c1.177 0 1.932-1.217 1.377-2.223Z" fill="#FF4F5E"/><path fill-rule="evenodd" clip-rule="evenodd" d="M239.492 170.887c-.862 0-1.562-.676-1.562-1.51s.7-1.511 1.563-1.511c.861 0 1.562.677 1.562 1.511 0 .834-.7 1.51-1.563 1.51Zm1.563-4.532h-3.125v-6.043h3.125v6.043Z" fill="#fff"/><path d="M85.09 168.891v-6.718h.086l2.736 6.705h1.105l2.736-6.7h.086v6.713h1.332v-9.277h-1.698l-2.954 7.211h-.109l-2.953-7.211h-1.699v9.277h1.332Zm12.266.154c1.15 0 1.799-.584 2.057-1.105h.055v.951h1.321v-4.62c0-2.025-1.594-2.428-2.7-2.428-1.259 0-2.418.507-2.872 1.775l1.273.29c.2-.494.707-.969 1.617-.969.875 0 1.324.457 1.324 1.246v.032c0 .493-.508.484-1.758.63-1.318.153-2.669.497-2.669 2.078 0 1.368 1.029 2.121 2.352 2.121v-.001Zm.295-1.087c-.765 0-1.318-.344-1.318-1.015 0-.725.643-.983 1.427-1.087.44-.059 1.481-.176 1.676-.372v.897c0 .825-.657 1.577-1.785 1.577Zm7.447 1.073c1.68 0 2.845-.893 2.845-2.151 0-.983-.626-1.59-1.903-1.884l-1.105-.255c-.765-.181-1.096-.438-1.092-.91-.004-.534.575-.915 1.346-.915.842 0 1.231.467 1.39.933l1.228-.217c-.281-1.083-1.128-1.789-2.632-1.789-1.572 0-2.687.829-2.687 2.06 0 .988.598 1.645 1.903 1.935l1.178.258c.67.15.983.449.983.883 0 .539-.575.961-1.463.961-.811 0-1.331-.349-1.495-1.033l-1.309.199c.226 1.233 1.25 1.925 2.813 1.925Zm6.827-.049c.43-.005.72-.086.878-.145l-.244-1.119-.115.023a1.886 1.886 0 0 1-.361.036c-.439 0-.834-.146-.834-.928v-3.829h1.428v-1.087h-1.428v-1.667h-1.354v1.667h-1.019v1.087h1.019v4.109c-.004 1.264.961 1.875 2.03 1.853Zm5.246.049c1.517 0 2.591-.747 2.899-1.88l-1.282-.231c-.245.657-.834.993-1.605.993-1.159 0-1.938-.752-1.974-2.093h4.947v-.481c0-2.513-1.505-3.496-3.081-3.496-1.939 0-3.216 1.476-3.216 3.614 0 2.161 1.26 3.574 3.311 3.574h.001Zm1.657-4.226h-3.615c.055-.988.771-1.843 1.871-1.843 1.051 0 1.739.779 1.744 1.843Zm4.191 4.086v-4.249c0-.906.701-1.563 1.639-1.563.263 0 .467.054.63.136l.435-1.133a1.614 1.614 0 0 0-.911-.253c-.824 0-1.513.462-1.766 1.209h-.073v-1.105h-1.309v6.958h1.355Zm6.658.14c1.644 0 2.709-.987 2.858-2.341h-1.317c-.173.752-.758 1.196-1.531 1.196-1.147 0-1.885-.957-1.885-2.474 0-1.49.752-2.428 1.884-2.428.861 0 1.386.544 1.531 1.196h1.318c-.145-1.404-1.291-2.337-2.871-2.337-1.962 0-3.23 1.476-3.23 3.601 0 2.097 1.223 3.587 3.243 3.587Zm6.338.014c1.15 0 1.798-.584 2.057-1.105h.054v.951h1.323v-4.62c0-2.025-1.595-2.428-2.701-2.428-1.259 0-2.419.507-2.872 1.775l1.274.29c.199-.494.706-.969 1.617-.969.874 0 1.323.457 1.323 1.246v.032c0 .493-.508.484-1.758.63-1.319.153-2.668.497-2.668 2.078 0 1.368 1.028 2.121 2.351 2.121v-.001Zm.295-1.087c-.766 0-1.319-.344-1.319-1.015 0-.725.643-.983 1.427-1.087.439-.059 1.481-.176 1.676-.372v.897c0 .825-.657 1.577-1.785 1.577h.001Zm6.296.933v-4.249c0-.906.701-1.563 1.64-1.563.263 0 .466.054.629.136l.435-1.133a1.614 1.614 0 0 0-.911-.253c-.824 0-1.513.462-1.766 1.209h-.073v-1.105h-1.309v6.958h1.355Zm6.332.136c1.269 0 1.767-.775 2.012-1.219h.113v1.083h1.323v-9.277h-1.355v3.448h-.081c-.245-.431-.707-1.219-2.003-1.219-1.681 0-2.917 1.327-2.917 3.582 0 2.252 1.219 3.602 2.908 3.602Zm.299-1.155c-1.209 0-1.839-1.065-1.839-2.46 0-1.382.616-2.419 1.839-2.419 1.183 0 1.816.965 1.816 2.419 0 1.464-.647 2.46-1.816 2.46Z" fill="#20123A"/></g><defs><clipPath id="a"><path fill="#fff" d="M0 0h306v223H0z"/></clipPath><filter id="b" x="11.7" y="53.711" width="282.318" height="165.277" filterUnits="userSpaceOnUse" color-interpolation-filters="sRGB"><feFlood flood-opacity="0" result="BackgroundImageFix"/><feColorMatrix in="SourceAlpha" values="0 0 0 0 0 0 0 0 0 0 0 0 0 0 0 0 0 0 127 0" result="hardAlpha"/><feOffset dy="2"/><feGaussianBlur stdDeviation="3.5"/><feColorMatrix values="0 0 0 0 0.12549 0 0 0 0 0.0705882 0 0 0 0 0.227451 0 0 0 0.24 0"/><feBlend in2="BackgroundImageFix" result="effect1_dropShadow_951:14851"/><feBlend in="SourceGraphic" in2="effect1_dropShadow_951:14851" result="shape"/></filter></defs></svg>