<svg width="335" height="223" fill="none" xmlns="http://www.w3.org/2000/svg"><g clip-path="url(#a)"><path d="M276.71 14.088H28.264a2.176 2.176 0 0 0-2.176 2.176v171.387c0 1.202.974 2.176 2.176 2.176H276.71a2.176 2.176 0 0 0 2.176-2.176V16.264a2.176 2.176 0 0 0-2.176-2.176Z" fill="#fff" stroke="#F0F0F4" stroke-width="2.176"/><path fill-rule="evenodd" clip-rule="evenodd" d="M25 29.998h254.974V48.13H25V29.998Z" fill="#F0F0F4"/><path d="M234.691 35.664H70.284c-.6 0-1.088.487-1.088 1.088v5.757c0 .6.487 1.088 1.088 1.088h164.407c.601 0 1.088-.487 1.088-1.088v-5.757c0-.6-.487-1.088-1.088-1.088Z" fill="#fff"/><path fill-rule="evenodd" clip-rule="evenodd" d="M27.176 13h250.622c1.202 0 2.176 1.031 2.176 2.304V31H25V15.304c0-1.273.974-2.304 2.176-2.304Z" fill="#CFCFD8"/><path fill-rule="evenodd" clip-rule="evenodd" d="M47 20a4 4 0 0 1 4-4h42a4 4 0 0 1 4 4v4a4 4 0 0 1-4 4H51a4 4 0 0 1-4-4v-4Z" fill="#F0F0F4"/><g opacity=".8"><path opacity=".8" fill-rule="evenodd" clip-rule="evenodd" d="M120.463 87.882h63.642v41.612h-63.642V87.882Zm0 48.955h63.642v7.343h-63.642v-7.343Zm0 14.687h63.642v3.672h-63.642v-3.672Zm0 11.015h63.642v3.672h-63.642v-3.672Zm0 9.791h63.642v3.672h-63.642v-3.672ZM43.359 87.883h64.866v41.612H43.359V87.883Zm0 48.955h64.866v7.343H43.359v-7.343Zm0 14.686h64.866v3.672H43.359v-3.672Zm0 11.015h64.866v3.672H43.359v-3.672Zm0 9.791h64.866v3.672H43.359v-3.672ZM196.344 87.883h64.866v41.612h-64.866V87.883Zm0 48.955h64.866v7.343h-64.866v-7.343Zm0 14.686h64.866v3.672h-64.866v-3.672Zm0 11.015h64.866v3.672h-64.866v-3.672Zm0 9.791h64.866v3.672h-64.866v-3.672Z" fill="#F0F0F4"/><path opacity=".8" d="M140.888 56.072c-1.358.088-2.18.863-2.18 2.242v8.257c0 6.706 6.67 11.976 12.44 11.935 6.487-.047 12.48-5.526 12.48-11.935v-8.257c0-1.384-.873-2.164-2.242-2.242h-20.498Zm5.255 6.716 5.005 4.756 5.01-4.756c2.242-.941 3.22 1.618 2.3 2.368l-6.525 6.227c-.213.203-1.353.203-1.566 0l-6.524-6.227c-.88-.828.265-3.429 2.3-2.368Z" fill="#DFDFE6"/></g><path fill-rule="evenodd" clip-rule="evenodd" d="m213 223.97.29-129.738c0-6.755 5.467-12.232 12.21-12.232h69.974c6.743 0 12.21 5.477 12.21 12.232l-.29 129.738" fill="#F0F0F4"/><path d="M269.958 87.397h-18.89a.899.899 0 0 0-.899.899v.001c0 .496.402.899.899.899h18.89a.9.9 0 0 0 .899-.899v-.001a.9.9 0 0 0-.899-.899Z" fill="#D1D1D7" fill-opacity=".6"/><path fill-rule="evenodd" clip-rule="evenodd" d="M300.726 93.993c.572 0 1.036 1.172 1.036 2.618l-.12 127.113H219.82l.12-127.113c0-1.446.464-2.618 1.035-2.618h79.751Z" fill="#fff"/><path fill-rule="evenodd" clip-rule="evenodd" d="M300.726 93.993c.572 0 1.036.487 1.036 1.088v3.228H219.94V95.08c0-.601.464-1.088 1.035-1.088h79.751v.001Z" fill="#D1D1D7"/><path opacity=".8" fill-rule="evenodd" clip-rule="evenodd" d="M228.666 127.782h64.866v31.821h-64.866v-31.821Zm0 39.164h64.866v7.343h-64.866v-7.343Zm0 13.463h64.866v3.672h-64.866v-3.672Zm0 9.791h64.866v3.672h-64.866V190.2Zm0 9.791h64.866v3.672h-64.866v-3.672Zm0 9.791h45.283v3.672h-45.283v-3.672Z" fill="#F0F0F4"/><path d="M253.168 104.671c-1.019.067-1.635.648-1.635 1.682v6.193c0 5.03 5.002 8.982 9.33 8.95 4.865-.034 9.36-4.143 9.36-8.95v-6.193c0-1.038-.655-1.623-1.681-1.682h-15.374Zm3.94 5.038 3.755 3.566 3.757-3.566c1.682-.706 2.416 1.213 1.725 1.775l-4.893 4.67c-.16.153-1.015.153-1.175 0l-4.893-4.67c-.66-.62.2-2.571 1.725-1.775h-.001Z" fill="#DFDFE6"/><g filter="url(#b)"><path d="M80.11 39H11.77A3.77 3.77 0 0 0 8 42.77v68.34a3.77 3.77 0 0 0 3.77 3.77h68.34a3.77 3.77 0 0 0 3.77-3.77V42.77A3.77 3.77 0 0 0 80.11 39Z" fill="#000"/></g><path d="M80.11 39H11.77A3.77 3.77 0 0 0 8 42.77v68.34a3.77 3.77 0 0 0 3.77 3.77h68.34a3.77 3.77 0 0 0 3.77-3.77V42.77A3.77 3.77 0 0 0 80.11 39Z" fill="#fff"/><path fill-rule="evenodd" clip-rule="evenodd" d="M15.343 68.578v4.613h4.952v13.384h5.441V73.191h4.95v-4.613H15.343Zm16.189 0v17.997h14.897v-4.612h-9.453V79.72h9.45v-4.287h-9.45v-2.242h9.45v-4.613H31.532Z" fill="#FF2B06"/><mask id="c" style="mask-type:alpha" maskUnits="userSpaceOnUse" x="47" y="68" width="18" height="19"><path fill-rule="evenodd" clip-rule="evenodd" d="M47.343 68.577h16.905v17.998H47.343V68.577Z" fill="#fff"/></mask><g mask="url(#c)"><path fill-rule="evenodd" clip-rule="evenodd" d="M52.787 81.962h2.129c3.391 0 3.887-2.799 3.887-4.49 0-1.131-.348-4.282-4.283-4.282h-1.733v8.772Zm-5.444-13.385h8.934c5.89 0 7.97 4.437 7.97 8.973 0 5.522-2.87 9.025-9.033 9.025h-7.871V68.577Z" fill="#FF2B06"/></g><mask id="d" style="mask-type:alpha" maskUnits="userSpaceOnUse" x="64" y="68" width="13" height="12"><path fill-rule="evenodd" clip-rule="evenodd" d="M64.801 68.543H76.06V79.64H64.801V68.543Z" fill="#fff"/></mask><g mask="url(#d)"><path fill-rule="evenodd" clip-rule="evenodd" d="m72.07 79.64-1.661-2.805-1.619 2.805h-3.989l3.787-5.672-3.647-5.425h3.991l1.477 2.681 1.52-2.681h3.99l-3.646 5.425 3.787 5.672h-3.99Z" fill="#FF2B06"/></g><g filter="url(#e)"><path d="M145.218 127H70.77a3.77 3.77 0 0 0-3.77 3.77v74.448a3.77 3.77 0 0 0 3.77 3.77h74.448a3.77 3.77 0 0 0 3.77-3.77V130.77a3.77 3.77 0 0 0-3.77-3.77Z" fill="#000"/></g><path d="M145.218 127H70.77a3.77 3.77 0 0 0-3.77 3.77v74.448a3.77 3.77 0 0 0 3.77 3.77h74.448a3.77 3.77 0 0 0 3.77-3.77V130.77a3.77 3.77 0 0 0-3.77-3.77Z" fill="#000"/><path fill-rule="evenodd" clip-rule="evenodd" d="M118.489 142.058c1.29.116 3.314.762 4.84 2.124 1.62 1.603 1.989 4.035 1.421 6.246-.505 1.97-1.07 2.994-3.043 4.356-1.994 1.37-4.405 1.254-4.405 1.254v8.535l4.075 3.36-4.076 3.35v11.627s4.084-2.385 6.616-7.725c0 0 .105-.29.343-.84.225 1.43.096 4.326-1.492 8.043-1.197 2.8-3.373 5.494-6.103 7.029-4.838 2.733-8.466 2.994-12.356 2.172-4.554-.955-8.69-3.563-11.513-8.11-1.984-3.196-2.872-6.922-2.79-10.93.159-7.87 5.904-14.657 12.537-17.187.807-.308 1.129-.51 2.274-.618-.528.368-1.138.84-1.888 1.343-2.135 1.429-3.965 4.277-4.746 6.469l12.873-5.852v18.337l-10.381 5.3c1.183 1.67 4.777 4.201 7.85 4.557 5.231.59 8.3-1.737 8.3-1.737l-.001-11.877-4.053-3.35 4.055-3.35v-8.546c-2.21-.26-4.896-1.003-6.466-1.4-2.309-.579-10.007-2.78-11.217-2.964-1.209-.183-2.7-.125-3.603.696-.903.83-1.462 2.287-1.078 3.6.218.744.72 1.178 1.1 1.603 0 0-.445-.039-1.25-.53-1.454-.889-2.559-2.627-2.692-4.77-.171-2.81.964-5.34 3.239-7.038 1.976-1.294 4.21-2.125 6.81-1.748 3.79.55 8.888 2.732 13.428 3.842 1.76.435 3.121.58 4.358-.154.576-.425 1.589-1.516.76-2.964-.966-1.7-2.819-1.661-4.388-1.96 1.35-.29 1.647-.29 2.662-.193Zm-15.307 36.458v-17.708l-5.227 2.375c-.002 0-1.333 3.041-1.1 7.454.184 3.447 2.076 7.571 3.53 9.299l2.797-1.42Z" fill="#fff"/><g filter="url(#f)"><path d="M322.215 2H258.77A3.77 3.77 0 0 0 255 5.77v63.445a3.77 3.77 0 0 0 3.77 3.77h63.445a3.77 3.77 0 0 0 3.77-3.77V5.77a3.77 3.77 0 0 0-3.77-3.77Z" fill="#000"/></g><path d="M322.215 2H258.77A3.77 3.77 0 0 0 255 5.77v63.445a3.77 3.77 0 0 0 3.77 3.77h63.445a3.77 3.77 0 0 0 3.77-3.77V5.77a3.77 3.77 0 0 0-3.77-3.77Z" fill="#4C9FEA"/><path fill-rule="evenodd" clip-rule="evenodd" d="M282.842 53.403c14.317 0 22.148-11.773 22.148-21.982 0-.334 0-.667-.023-.998a15.773 15.773 0 0 0 3.884-4 15.639 15.639 0 0 1-4.471 1.216 7.762 7.762 0 0 0 3.422-4.273c-1.528.9-3.2 1.534-4.943 1.875a7.832 7.832 0 0 0-9.352-1.52c-3.105 1.65-4.71 5.161-3.913 8.566a22.158 22.158 0 0 1-16.043-8.071c-2.066 3.53-1.01 8.046 2.41 10.313a7.77 7.77 0 0 1-3.533-.967v.098c.001 3.677 2.613 6.845 6.245 7.573a7.829 7.829 0 0 1-3.515.132c1.02 3.147 3.942 5.303 7.273 5.365a15.695 15.695 0 0 1-11.52 3.203 22.159 22.159 0 0 0 11.93 3.464" fill="#fff"/><g filter="url(#g)"><path d="M240.304 116H192.77a3.77 3.77 0 0 0-3.77 3.77v47.534a3.77 3.77 0 0 0 3.77 3.77h47.534a3.77 3.77 0 0 0 3.77-3.77V119.77a3.77 3.77 0 0 0-3.77-3.77Z" fill="#000"/></g><path d="M240.304 116H192.77a3.77 3.77 0 0 0-3.77 3.77v47.534a3.77 3.77 0 0 0 3.77 3.77h47.534a3.77 3.77 0 0 0 3.77-3.77V119.77a3.77 3.77 0 0 0-3.77-3.77Z" fill="#EA3423"/><path fill-rule="evenodd" clip-rule="evenodd" d="M207.358 130.687v26.925l23.254-13.462-23.254-13.463Z" fill="#FEFEFE"/></g><defs><filter id="b" x="-1" y="31" width="93.88" height="93.88" filterUnits="userSpaceOnUse" color-interpolation-filters="sRGB"><feFlood flood-opacity="0" result="BackgroundImageFix"/><feColorMatrix in="SourceAlpha" values="0 0 0 0 0 0 0 0 0 0 0 0 0 0 0 0 0 0 127 0" result="hardAlpha"/><feOffset dy="1"/><feGaussianBlur stdDeviation="4.5"/><feColorMatrix values="0 0 0 0 0.12549 0 0 0 0 0.0705882 0 0 0 0 0.227451 0 0 0 0.24 0"/><feBlend in2="BackgroundImageFix" result="effect1_dropShadow_951:14891"/><feBlend in="SourceGraphic" in2="effect1_dropShadow_951:14891" result="shape"/></filter><filter id="e" x="58" y="119" width="99.988" height="99.988" filterUnits="userSpaceOnUse" color-interpolation-filters="sRGB"><feFlood flood-opacity="0" result="BackgroundImageFix"/><feColorMatrix in="SourceAlpha" values="0 0 0 0 0 0 0 0 0 0 0 0 0 0 0 0 0 0 127 0" result="hardAlpha"/><feOffset dy="1"/><feGaussianBlur stdDeviation="4.5"/><feColorMatrix values="0 0 0 0 0.12549 0 0 0 0 0.0705882 0 0 0 0 0.227451 0 0 0 0.24 0"/><feBlend in2="BackgroundImageFix" result="effect1_dropShadow_951:14891"/><feBlend in="SourceGraphic" in2="effect1_dropShadow_951:14891" result="shape"/></filter><filter id="f" x="246" y="-6" width="88.985" height="88.985" filterUnits="userSpaceOnUse" color-interpolation-filters="sRGB"><feFlood flood-opacity="0" result="BackgroundImageFix"/><feColorMatrix in="SourceAlpha" values="0 0 0 0 0 0 0 0 0 0 0 0 0 0 0 0 0 0 127 0" result="hardAlpha"/><feOffset dy="1"/><feGaussianBlur stdDeviation="4.5"/><feColorMatrix values="0 0 0 0 0.12549 0 0 0 0 0.0705882 0 0 0 0 0.227451 0 0 0 0.24 0"/><feBlend in2="BackgroundImageFix" result="effect1_dropShadow_951:14891"/><feBlend in="SourceGraphic" in2="effect1_dropShadow_951:14891" result="shape"/></filter><filter id="g" x="180" y="108" width="73.074" height="73.074" filterUnits="userSpaceOnUse" color-interpolation-filters="sRGB"><feFlood flood-opacity="0" result="BackgroundImageFix"/><feColorMatrix in="SourceAlpha" values="0 0 0 0 0 0 0 0 0 0 0 0 0 0 0 0 0 0 127 0" result="hardAlpha"/><feOffset dy="1"/><feGaussianBlur stdDeviation="4.5"/><feColorMatrix values="0 0 0 0 0.12549 0 0 0 0 0.0705882 0 0 0 0 0.227451 0 0 0 0.24 0"/><feBlend in2="BackgroundImageFix" result="effect1_dropShadow_951:14891"/><feBlend in="SourceGraphic" in2="effect1_dropShadow_951:14891" result="shape"/></filter><clipPath id="a"><path fill="#fff" d="M0 0h335v223H0z"/></clipPath></defs></svg>