<svg width="335" height="223" viewBox="0 0 335 223" xmlns="http://www.w3.org/2000/svg"><defs><filter id="a" width="136.9%" height="136.9%" x="-18.5%" y="-17.1%" filterUnits="objectBoundingBox"><feOffset dy="1" in="SourceAlpha" result="shadowOffsetOuter1"/><feGaussianBlur in="shadowOffsetOuter1" result="shadowBlurOuter1" stdDeviation="4.5"/><feColorMatrix in="shadowBlurOuter1" values="0 0 0 0 0.125490196 0 0 0 0 0.0705882353 0 0 0 0 0.22745098 0 0 0 0.24 0"/></filter><filter id="d" width="134.2%" height="134.2%" x="-17.1%" y="-15.9%" filterUnits="objectBoundingBox"><feOffset dy="1" in="SourceAlpha" result="shadowOffsetOuter1"/><feGaussianBlur in="shadowOffsetOuter1" result="shadowBlurOuter1" stdDeviation="4.5"/><feColorMatrix in="shadowBlurOuter1" values="0 0 0 0 0.125490196 0 0 0 0 0.0705882353 0 0 0 0 0.22745098 0 0 0 0.24 0"/></filter><filter id="e" width="139.4%" height="139.4%" x="-19.7%" y="-18.3%" filterUnits="objectBoundingBox"><feOffset dy="1" in="SourceAlpha" result="shadowOffsetOuter1"/><feGaussianBlur in="shadowOffsetOuter1" result="shadowBlurOuter1" stdDeviation="4.5"/><feColorMatrix in="shadowBlurOuter1" values="0 0 0 0 0.125490196 0 0 0 0 0.0705882353 0 0 0 0 0.22745098 0 0 0 0.24 0"/></filter><filter id="f" width="150.8%" height="150.8%" x="-25.4%" y="-23.6%" filterUnits="objectBoundingBox"><feOffset dy="1" in="SourceAlpha" result="shadowOffsetOuter1"/><feGaussianBlur in="shadowOffsetOuter1" result="shadowBlurOuter1" stdDeviation="4.5"/><feColorMatrix in="shadowBlurOuter1" values="0 0 0 0 0.125490196 0 0 0 0 0.0705882353 0 0 0 0 0.22745098 0 0 0 0.24 0"/></filter></defs><g fill="none" fill-rule="evenodd"><g transform="translate(25 13)"><rect width="252.798" height="175.739" x="1.088" y="1.088" fill="#FFF" stroke="#F0F0F4" stroke-width="2.176" rx="2.176"/><path fill="#F0F0F4" d="M0 16.998h254.974V35.13H0z"/><rect width="166.583" height="7.933" x="44.196" y="22.664" fill="#FFF" rx="1.088"/><path fill="#DFDFE6" d="M2.176 0h250.622c1.202 0 2.176.974 2.176 2.176v14.822H0V2.176C0 .974.974 0 2.176 0z"/><path fill="#F0F0F4" d="M21.531 3.4h49.862v14.732H21.531z"/><path fill="#D1D1D7" d="M21.531 3.4h49.862v2.266H21.531z"/><g opacity=".8"><g fill="#F0F0F4"><path d="M95.463 74.882h63.642v41.612H95.463zM95.463 123.837h63.642v7.343H95.463zM95.463 138.524h63.642v3.672H95.463zM95.463 149.539h63.642v3.672H95.463zM95.463 159.33h63.642v3.672H95.463z"/></g><g fill="#F0F0F4"><path d="M18.359 74.883h64.866v41.612H18.359zM18.359 123.838h64.866v7.343H18.359zM18.359 138.524h64.866v3.672H18.359zM18.359 149.539h64.866v3.672H18.359zM18.359 159.33h64.866v3.672H18.359z"/></g><g fill="#F0F0F4"><path d="M171.344 74.883h64.866v41.612h-64.866zM171.344 123.838h64.866v7.343h-64.866zM171.344 138.524h64.866v3.672h-64.866zM171.344 149.539h64.866v3.672h-64.866zM171.344 159.33h64.866v3.672h-64.866z"/></g><path fill="#DFDFE6" fill-rule="nonzero" d="M115.888 43.072c-1.358.088-2.18.863-2.18 2.242v8.257c0 6.706 6.67 11.976 12.44 11.935 6.487-.047 12.48-5.526 12.48-11.935v-8.257c0-1.384-.873-2.164-2.242-2.242h-20.498zm5.255 6.716l5.005 4.756 5.01-4.756c2.242-.941 3.22 1.618 2.3 2.368l-6.525 6.227c-.213.203-1.353.203-1.566 0l-6.524-6.227c-.88-.828.265-3.429 2.3-2.368z"/></g></g><g transform="translate(213 82)"><path fill="#F0F0F4" d="M0 141.97L.29 12.232C.29 5.477 5.757 0 12.5 0h69.974c6.743 0 12.21 5.477 12.21 12.232l-.29 129.738"/><rect width="20.688" height="1.799" x="37.169" y="5.397" fill="#D1D1D7" fill-opacity=".6" rx=".899"/><path fill="#FFF" d="M87.726 11.993c.572 0 1.036 1.172 1.036 2.618l-.12 127.113H6.82l.12-127.113c0-1.446.464-2.618 1.035-2.618h79.751z"/><path fill="#D1D1D7" d="M87.726 11.993c.572 0 1.036.487 1.036 1.088v3.228H6.94V13.08c0-.601.464-1.088 1.035-1.088h79.751z"/><g fill="#F0F0F4" opacity=".8"><path d="M15.666 45.782h64.866v31.821H15.666zM15.666 84.946h64.866v7.343H15.666zM15.666 98.409h64.866v3.672H15.666zM15.666 108.2h64.866v3.672H15.666zM15.666 117.991h64.866v3.672H15.666zM15.666 127.782h45.283v3.672H15.666z"/></g><path fill="#DFDFE6" fill-rule="nonzero" d="M40.168 22.671c-1.019.067-1.635.648-1.635 1.682v6.193c0 5.03 5.002 8.982 9.33 8.95 4.865-.034 9.36-4.143 9.36-8.95v-6.193c0-1.038-.655-1.623-1.681-1.682H40.168zm3.94 5.038l3.755 3.566 3.757-3.566c1.682-.706 2.416 1.213 1.725 1.775l-4.893 4.67c-.16.153-1.015.153-1.175 0l-4.893-4.67c-.66-.62.2-2.571 1.725-1.775z"/></g><g transform="translate(8 39)"><rect width="75.88" height="75.88" rx="3.77" fill="#000" filter="url(#a)"/><rect width="75.88" height="75.88" rx="3.77" fill="#FFF"/><path fill="#FF2B06" d="M7.343 29.578v4.613h4.952v13.384h5.441V34.191h4.95v-4.613zM23.532 29.578v17.997h14.897v-4.612h-9.453V40.72h9.45v-4.287h-9.45v-2.242h9.45v-4.613z"/><g transform="translate(39.239 29.546)"><mask id="b" fill="#fff"><path d="M.104.031h16.905v17.998H.104z"/></mask><path fill="#FF2B06" d="M5.548 13.416h2.129c3.391 0 3.887-2.799 3.887-4.49 0-1.131-.348-4.282-4.283-4.282H5.548v8.772zM.104.031h8.934c5.89 0 7.97 4.437 7.97 8.973 0 5.522-2.87 9.025-9.033 9.025H.104V.031z" mask="url(#b)"/></g><g transform="translate(56.773 29.376)"><mask id="c" fill="#fff"><path d="M.028.167h11.259v11.097H.028z"/></mask><path fill="#FF2B06" mask="url(#c)" d="M7.297 11.264L5.636 8.459l-1.619 2.805H.028l3.787-5.672L.168.167h3.991l1.477 2.681L7.156.167h3.99L7.5 5.592l3.787 5.672z"/></g></g><g transform="translate(67 127)"><rect width="81.988" height="81.988" rx="3.77" fill="#000" filter="url(#d)"/><rect width="81.988" height="81.988" rx="3.77" fill="#000"/><path fill="#FFF" d="M51.489 15.058c1.29.116 3.314.762 4.84 2.124 1.62 1.603 1.989 4.035 1.421 6.246-.505 1.97-1.07 2.994-3.043 4.356-1.994 1.37-4.405 1.254-4.405 1.254v8.535l4.075 3.36-4.076 3.35V55.91s4.084-2.385 6.616-7.725c0 0 .105-.29.343-.84.225 1.43.096 4.326-1.492 8.043-1.197 2.8-3.373 5.494-6.103 7.029-4.838 2.733-8.466 2.994-12.356 2.172-4.554-.955-8.69-3.563-11.513-8.11-1.984-3.196-2.872-6.922-2.79-10.93.159-7.87 5.904-14.657 12.537-17.187.807-.308 1.129-.51 2.274-.618-.528.368-1.138.84-1.888 1.343-2.135 1.429-3.965 4.277-4.746 6.469l12.873-5.852v18.337l-10.381 5.3c1.183 1.67 4.777 4.201 7.85 4.557 5.231.59 8.3-1.737 8.3-1.737l-.001-11.877-4.053-3.35 4.055-3.35v-8.546c-2.21-.26-4.896-1.003-6.466-1.4-2.309-.579-10.007-2.78-11.217-2.964-1.209-.183-2.7-.125-3.603.696-.903.83-1.462 2.287-1.078 3.6.218.744.72 1.178 1.1 1.603 0 0-.445-.039-1.25-.53-1.454-.889-2.559-2.627-2.692-4.77-.171-2.81.964-5.34 3.239-7.038 1.976-1.294 4.21-2.125 6.81-1.748 3.79.55 8.888 2.732 13.428 3.842 1.76.435 3.121.58 4.358-.154.576-.425 1.589-1.516.76-2.964-.966-1.7-2.819-1.661-4.388-1.96 1.35-.29 1.647-.29 2.662-.193zM36.182 51.516V33.808l-5.227 2.375c-.002 0-1.333 3.041-1.1 7.454.184 3.447 2.076 7.571 3.53 9.299l2.797-1.42z"/></g><g transform="translate(255 2)"><rect width="70.985" height="70.985" rx="3.77" fill="#000" filter="url(#e)"/><rect width="70.985" height="70.985" rx="3.77" fill="#4C9FEA"/><path fill="#FFF" d="M27.842 51.403c14.317 0 22.148-11.773 22.148-21.982 0-.334 0-.667-.023-.998a15.772 15.772 0 0 0 3.884-4 15.63 15.63 0 0 1-4.471 1.216 7.763 7.763 0 0 0 3.422-4.273c-1.528.9-3.2 1.534-4.943 1.875a7.834 7.834 0 0 0-9.352-1.52c-3.105 1.65-4.71 5.161-3.913 8.566a22.156 22.156 0 0 1-16.043-8.071c-2.066 3.53-1.01 8.046 2.41 10.313a7.77 7.77 0 0 1-3.533-.967v.098c.001 3.677 2.613 6.845 6.245 7.573a7.829 7.829 0 0 1-3.515.132c1.02 3.147 3.942 5.303 7.273 5.365a15.695 15.695 0 0 1-11.52 3.203 22.16 22.16 0 0 0 11.93 3.464"/></g><g transform="translate(189 116)"><rect width="55.074" height="55.074" rx="3.77" fill="#000" filter="url(#f)"/><rect width="55.074" height="55.074" rx="3.77" fill="#EA3423"/><path fill="#FEFEFE" d="M18.358 14.687v26.925L41.612 28.15z"/></g></g></svg>