<svg width="335" height="223" fill="none" xmlns="http://www.w3.org/2000/svg"><g clip-path="url(#a)"><path d="M315.7 1.3H18.4c-1.4 0-2.6 1.2-2.6 2.6v228.7c0 1.4 1.2 2.6 2.6 2.6h297.3c1.4 0 2.6-1.2 2.6-2.6V3.9c0-1.4-1.2-2.6-2.6-2.6Z" fill="#fff" stroke="#F0F0F4" stroke-width="2.602"/><path d="M14.5 19.5h305.1V41H14.5V19.5Z" fill="#F0F0F4"/><path d="M265.6 25.4H68.5c-.7 0-1.3.6-1.3 1.3v7.2c0 .7.6 1.3 1.3 1.3h197.1c.7 0 1.3-.6 1.3-1.3v-7.2c0-.7-.6-1.3-1.3-1.3Z" fill="#fff"/><path d="M17.1 0H317c.7 0 1.4.308 1.8.82.5.513.8 1.129.8 1.847V20H14.5V2.667c0-.718.3-1.436.8-1.846C15.8.308 16.4 0 17.1 0Z" fill="#CFCFD8"/><path d="M40.5 7.3a4 4 0 0 1 4-4h51.8a4 4 0 0 1 4 4v6a4 4 0 0 1-4 4H44.5a4 4 0 0 1-4-4v-6Z" fill="#F0F0F4"/><path d="M36.5 57h261c1.7 0 3 1.3 3 3v24c0 1.7-1.3 3-3 3h-261c-1.7 0-3-1.3-3-3V60c0-1.7 1.3-3 3-3ZM36.5 97h261c1.7 0 3 1.3 3 3v24c0 1.7-1.3 3-3 3h-261c-1.7 0-3-1.3-3-3v-24c0-1.7 1.3-3 3-3Z" stroke="#F0F0F4" stroke-width="2"/><path d="M36.5 137h261c1.7 0 3 1.3 3 3v24c0 1.7-1.3 3-3 3h-261c-1.7 0-3-1.3-3-3v-24c0-1.7 1.3-3 3-3Z" fill="#F0F0F4" stroke="#F0F0F4" stroke-width="2"/><path d="M36.5 177h261c1.7 0 3 1.3 3 3v24c0 1.7-1.3 3-3 3h-261c-1.7 0-3-1.3-3-3v-24c0-1.7 1.3-3 3-3Z" stroke="#F0F0F4" stroke-width="2"/><path d="M48.5 66h9c3.3 0 6 2.7 6 6s-2.7 6-6 6h-9c-3.3 0-6-2.7-6-6s2.7-6 6-6ZM48.5 106h9c3.3 0 6 2.7 6 6s-2.7 6-6 6h-9c-3.3 0-6-2.7-6-6s2.7-6 6-6Z" fill="#F0F0F4"/><path d="M48.5 146h9c3.3 0 6 2.7 6 6s-2.7 6-6 6h-9c-3.3 0-6-2.7-6-6s2.7-6 6-6Z" fill="#fff"/><path d="M48.5 186h9c3.3 0 6 2.7 6 6s-2.7 6-6 6h-9c-3.3 0-6-2.7-6-6s2.7-6 6-6Z" fill="#F0F0F4"/><path d="M48.5 76a4 4 0 1 0 0-8 4 4 0 0 0 0 8ZM48.5 116a4 4 0 1 0 0-8 4 4 0 0 0 0 8ZM48.5 196a4 4 0 1 0 0-8 4 4 0 0 0 0 8Z" fill="#999"/><path d="M57.5 156a4 4 0 1 0 0-8 4 4 0 0 0 0 8Z" fill="#C4C4C4"/><path d="m254.2 80.7-9.9-17.9c-.6-1.1-2.2-1.1-2.7 0l-9.9 17.9c-.6 1 .2 2.2 1.4 2.2h19.7c1.2.1 1.9-1.2 1.4-2.2Z" fill="#FF4F5E"/><path d="M242.9 79.9c-.9 0-1.6-.7-1.6-1.5s.7-1.5 1.6-1.5c.9 0 1.6.7 1.6 1.5s-.7 1.5-1.6 1.5Zm1.6-4.5h-3.1v-6h3.1v6Z" fill="#fff"/><path d="m86.9 71.4-2.6 2.4-2.5-2.3-.3.3-6.7 6.7c.3.3.6.4 1 .4h16.9c.4 0 .7-.2 1-.4l-6.6-6.8-.2-.3Z" fill="#0266A8"/><path d="m82.1 71.8-7.2-6.4c-.3.3-.4.6-.4.9v11.3c0 .4.2.7.4 1l6.8-6.6.4-.2ZM94.1 66c-.1-.2-.2-.4-.4-.6l-7.1 6.3.3.3 6.8 6.6c.3-.3.4-.6.4-1V66.4c.1-.2.1-.3 0-.4Z" fill="#0390ED"/><path d="m81.9 71.8 2.5 2.3 2.6-2.4 6.9-6.3c-.3-.2-.6-.4-.9-.4H76c-.4 0-.7.2-1 .4l6.9 6.4Z" fill="#62BEFB"/><path d="m86.9 111.4-2.6 2.4-2.5-2.3-.3.3-6.7 6.7c.3.3.6.4 1 .4h16.9c.4 0 .7-.2 1-.4l-6.6-6.8-.2-.3Z" fill="#0266A8"/><path d="m82.1 111.8-7.2-6.4c-.3.3-.4.6-.4.9v11.3c0 .4.2.7.4 1l6.8-6.6.4-.2ZM94.1 106c-.1-.2-.2-.4-.4-.6l-7.1 6.3.3.3 6.8 6.6c.3-.3.4-.6.4-1v-11.3c.1-.1.1-.2 0-.3Z" fill="#0390ED"/><path d="m81.9 111.8 2.5 2.3 2.6-2.4 6.9-6.3c-.3-.2-.6-.4-.9-.4H76c-.4 0-.7.2-1 .4l6.9 6.4Z" fill="#62BEFB"/><path d="m86.9 191.4-2.6 2.4-2.5-2.3-.3.3-6.7 6.7c.3.3.6.4 1 .4h16.9c.4 0 .7-.2 1-.4l-6.6-6.8-.2-.3Z" fill="#0266A8"/><path d="m82.1 191.8-7.2-6.4c-.3.3-.4.6-.4.9v11.3c0 .4.2.7.4 1l6.8-6.6.4-.2ZM94.1 186c-.1-.2-.2-.4-.4-.6l-7.1 6.3.3.3 6.8 6.6c.3-.3.4-.6.4-1v-11.3c.1-.1.1-.2 0-.3Z" fill="#0390ED"/><path d="m81.9 191.8 2.5 2.3 2.6-2.4 6.9-6.3c-.3-.2-.6-.4-.9-.4H76c-.4 0-.7.2-1 .4l6.9 6.4Z" fill="#62BEFB"/><path d="m87.3 151.4-2.7 2.5-2.6-2.3-.3.3-6.9 6.8c.3.3.6.4 1 .4h17.5c.4 0 .8-.2 1-.4l-6.8-6.9-.2-.4Z" fill="#FF651D"/><path d="m82.1 151.8-7.2-6.3c-.3.3-.4.6-.4.9v11.3c0 .4.2.7.4 1l6.9-6.5.3-.4ZM94.4 145.4l-7.2 6.5.3.3 6.9 6.8c.3-.3.4-.6.4-1v-11.6c0-.1 0-.3-.1-.4 0-.2-.1-.4-.3-.6Z" fill="#FF9200"/><path d="m82.2 152 2.6 2.3 2.7-2.4 7.1-6.5c-.3-.2-.6-.4-1-.4H76c-.4 0-.8.2-1 .4l7.2 6.6Z" fill="#FBB85E"/></g><defs><clipPath id="a"><path fill="#fff" d="M0 0h335v223H0z"/></clipPath></defs></svg>