<svg fill="none" height="223" viewBox="0 0 306 223" width="306" xmlns="http://www.w3.org/2000/svg" xmlns:xlink="http://www.w3.org/1999/xlink"><clipPath id="a"><path d="m0 0h306v223h-306z"/></clipPath><g clip-path="url(#a)"><path d="m301.18 1.30103h-297.277c-1.43705 0-2.60201 1.16495-2.60201 2.602v228.69397c0 1.437 1.16496 2.602 2.60201 2.602h297.277c1.437 0 2.602-1.165 2.602-2.602v-228.69397c0-1.43705-1.165-2.602-2.602-2.602z" fill="#fff" stroke="#f0f0f4" stroke-width="2.602"/><path clip-rule="evenodd" d="m0 19.515h305.083v21.466h-305.083z" fill="#f0f0f4" fill-rule="evenodd"/><path d="m251.091 25.369h-197.1c-.7185 0-1.301.5825-1.301 1.301v7.155c0 .7185.5825 1.301 1.301 1.301h197.1c.719 0 1.301-.5825 1.301-1.301v-7.155c0-.7185-.582-1.301-1.301-1.301z" fill="#fff"/><path clip-rule="evenodd" d="m2.602 0h299.879c.69 0 1.352.274138 1.84.762108.488.487972.762 1.149802.762 1.839892v16.913h-305.083v-16.913c0-.69009.274138-1.35192.762108-1.839892.487972-.48797 1.149802-.762108 1.839892-.762108z" fill="#dfdfe6" fill-rule="evenodd"/><path clip-rule="evenodd" d="m26.02 3.25201h59.846v17.56299h-59.846z" fill="#f0f0f4" fill-rule="evenodd"/><path clip-rule="evenodd" d="m26.02 3.25201h59.846v3.252h-59.846z" fill="#d1d1d7" fill-rule="evenodd"/><g stroke="#f0f0f4" stroke-width="2"><rect height="30" rx="3" width="267" x="19" y="57"/><rect height="30" rx="3" width="267" x="19" y="97"/><rect fill="#f0f0f4" height="30" rx="3" width="267" x="19" y="137"/><rect height="30" rx="3" width="267" x="19" y="177"/></g><rect fill="#f0f0f4" height="12" rx="6" width="21" x="28" y="66"/><rect fill="#f0f0f4" height="12" rx="6" width="21" x="28" y="106"/><rect fill="#fff" height="12" rx="6" width="21" x="28" y="146"/><rect fill="#f0f0f4" height="12" rx="6" width="21" x="28" y="186"/><circle cx="34" cy="72" fill="#999" r="4"/><circle cx="34" cy="112" fill="#999" r="4"/><circle cx="34" cy="192" fill="#999" r="4"/><circle cx="43" cy="152" fill="#c4c4c4" r="4"/><path d="m239.651 80.7402-9.86-17.9407c-.585-1.066-2.16-1.066-2.748 0l-9.858 17.9407c-.553 1.0061.199 2.2228 1.374 2.2228h19.719c1.174 0 1.925-1.2167 1.373-2.2228z" fill="#ff4f5e"/><path clip-rule="evenodd" d="m228.418 79.9413c-.859 0-1.557-.6769-1.557-1.5108s.698-1.5108 1.557-1.5108 1.557.6769 1.557 1.5108-.698 1.5108-1.557 1.5108zm1.557-4.5324h-3.114v-6.0432h3.114z" fill="#fff" fill-rule="evenodd"/><path d="m72.4081 71.4324-2.5706 2.4366-2.4751-2.3066-.2948.2936-6.6895 6.7246c.2627.2652.6214.4161.9968.4194h16.9253c.3755-.003.7342-.154.9968-.4194l-6.575-6.8169z" fill="#0266a8"/><path d="m67.5676 71.7669-7.1556-6.3762.013-.0123h-.013c-.2579.2568-.4049.5952-.412.9489v11.3332c.0024.3622.1586.7084.4337.9611l6.839-6.5582z" fill="#0390ed"/><path d="m79.6032 65.9575c-.0788-.2207-.2156-.4198-.3982-.5791h-.011s0 0 .011.0102l-7.0968 6.2943.319.31 6.8196 6.6287c.275-.2537.4294-.5986.429-.9583v-11.2899c-.0002-.1413-.0247-.2817-.0726-.4159z" fill="#0390ed"/><path d="m67.3863 71.8282 2.4799 2.2529 2.5755-2.3758 6.8553-6.3223s0 0-.0106-.0103c-.2521-.2368-.5894-.3703-.9414-.3727h-16.9575c-.3782.0032-.7384.1557-.9967.4219l-.0127.0123z" fill="#62befb"/><path d="m72.4081 111.432-2.5706 2.437-2.4751-2.307-.2948.294-6.6895 6.725c.2627.265.6214.416.9968.419h16.9253c.3755-.003.7342-.154.9968-.419l-6.575-6.817z" fill="#0266a8"/><path d="m67.5676 111.767-7.1556-6.376.013-.013h-.013c-.2579.257-.4049.596-.412.949v11.333c.0024.363.1586.709.4337.962l6.839-6.559z" fill="#0390ed"/><path d="m79.6032 105.957c-.0788-.22-.2156-.419-.3982-.579h-.011s0 0 .011.011l-7.0968 6.294.319.31 6.8196 6.629c.275-.254.4294-.599.429-.959v-11.29c-.0002-.141-.0247-.281-.0726-.416z" fill="#0390ed"/><path d="m67.3863 111.828 2.4799 2.253 2.5755-2.376 6.8553-6.322s0 0-.0106-.01c-.2521-.237-.5894-.371-.9414-.373h-16.9575c-.3782.003-.7384.156-.9967.422l-.0127.012z" fill="#62befb"/><path d="m72.4081 191.432-2.5706 2.437-2.4751-2.307-.2948.294-6.6895 6.725c.2627.265.6214.416.9968.419h16.9253c.3755-.003.7342-.154.9968-.419l-6.575-6.817z" fill="#0266a8"/><path d="m67.5676 191.767-7.1556-6.376.013-.013h-.013c-.2579.257-.4049.596-.412.949v11.333c.0024.363.1586.709.4337.962l6.839-6.559z" fill="#0390ed"/><path d="m79.6032 185.957c-.0788-.22-.2156-.419-.3982-.579h-.011s0 0 .011.011l-7.0968 6.294.319.31 6.8196 6.629c.275-.254.4294-.599.429-.959v-11.29c-.0002-.141-.0247-.281-.0726-.416z" fill="#0390ed"/><path d="m67.3863 191.828 2.4799 2.253 2.5755-2.376 6.8553-6.322s0 0-.0106-.01c-.2521-.237-.5894-.371-.9414-.373h-16.9575c-.3782.003-.7384.156-.9967.422l-.0127.012z" fill="#62befb"/><path d="m72.8339 151.364-2.6516 2.458-2.5532-2.327-.3041.296-6.9003 6.786c.271.267.641.42 1.0282.423h17.4587c.3873-.003.7574-.155 1.0282-.423l-6.7821-6.879z" fill="#ff651d"/><path d="m67.6364 151.769-7.2207-6.333.0132-.012h-.0132c-.2602.255-.4085.591-.4157.943v11.254c.0024.36.16.704.4376.955l6.9012-6.513z" fill="#ff9200"/><path d="m79.889 145.424h-.0111s0 0 .0111.011l-7.1613 6.452.3218.318 6.8816 6.795c.2776-.26.4334-.614.4329-.982v-11.574c-.0002-.145-.0249-.289-.0732-.426-.0795-.226-.2176-.43-.4018-.594z" fill="#ff9200"/><path d="m67.653 152.018 2.558 2.315 2.6567-2.441 7.0713-6.498s0 0-.011-.011c-.26-.243-.608-.381-.971-.383h-17.492c-.39.003-.7616.16-1.028.434l-.0132.012z" fill="#fbb85e"/></g></svg>