<svg xmlns="http://www.w3.org/2000/svg" xmlns:xlink="http://www.w3.org/1999/xlink" xml:space="preserve" viewBox="0 0 335 223" width="335" height="223"><style>.st2{fill:#f0f0f4}.st3{fill:#fff}.st6{fill:none;stroke:#f0f0f4;stroke-width:2}.st8{fill:#999}.st11{fill:#0266a8}.st12{fill:#0390ed}.st13{fill:#62befb}.st15{fill:#ff9200}</style><defs><path id="SVGID_1_" d="M14.5 0h306v223h-306z"/></defs><clipPath id="SVGID_2_"><use xlink:href="#SVGID_1_" overflow="visible"/></clipPath><g clip-path="url(#SVGID_2_)"><path fill="#fff" stroke="#f0f0f4" stroke-width="2.602" d="M315.7 1.3H18.4c-1.4 0-2.6 1.2-2.6 2.6v228.7c0 1.4 1.2 2.6 2.6 2.6h297.3c1.4 0 2.6-1.2 2.6-2.6V3.9c0-1.4-1.2-2.6-2.6-2.6z"/><path d="M14.5 19.5h305.1V41H14.5V19.5z" class="st2"/><path d="M265.6 25.4H68.5c-.7 0-1.3.6-1.3 1.3v7.2c0 .7.6 1.3 1.3 1.3h197.1c.7 0 1.3-.6 1.3-1.3v-7.2c0-.7-.6-1.3-1.3-1.3z" class="st3"/><path fill="#dfdfe6" d="M17.1 0H317c.7 0 1.4.3 1.8.8.5.5.8 1.1.8 1.8v16.9H14.5V2.6c0-.7.3-1.4.8-1.8.5-.5 1.1-.8 1.8-.8z"/><path d="M40.5 3.3h59.8v17.6H40.5V3.3z" class="st2"/><path fill="#d1d1d7" d="M40.5 3.3h59.8v3.3H40.5V3.3z"/><path d="M36.5 57h261c1.7 0 3 1.3 3 3v24c0 1.7-1.3 3-3 3h-261c-1.7 0-3-1.3-3-3V60c0-1.7 1.3-3 3-3z" class="st6"/><path d="M36.5 97h261c1.7 0 3 1.3 3 3v24c0 1.7-1.3 3-3 3h-261c-1.7 0-3-1.3-3-3v-24c0-1.7 1.3-3 3-3z" class="st6"/><path fill="#f0f0f4" stroke="#f0f0f4" stroke-width="2" d="M36.5 137h261c1.7 0 3 1.3 3 3v24c0 1.7-1.3 3-3 3h-261c-1.7 0-3-1.3-3-3v-24c0-1.7 1.3-3 3-3z"/><path d="M36.5 177h261c1.7 0 3 1.3 3 3v24c0 1.7-1.3 3-3 3h-261c-1.7 0-3-1.3-3-3v-24c0-1.7 1.3-3 3-3z" class="st6"/><path d="M48.5 66h9c3.3 0 6 2.7 6 6s-2.7 6-6 6h-9c-3.3 0-6-2.7-6-6s2.7-6 6-6z" class="st2"/><path d="M48.5 106h9c3.3 0 6 2.7 6 6s-2.7 6-6 6h-9c-3.3 0-6-2.7-6-6s2.7-6 6-6z" class="st2"/><path d="M48.5 146h9c3.3 0 6 2.7 6 6s-2.7 6-6 6h-9c-3.3 0-6-2.7-6-6s2.7-6 6-6z" class="st3"/><path d="M48.5 186h9c3.3 0 6 2.7 6 6s-2.7 6-6 6h-9c-3.3 0-6-2.7-6-6s2.7-6 6-6z" class="st2"/><circle cx="48.5" cy="72" r="4" class="st8"/><circle cx="48.5" cy="112" r="4" class="st8"/><circle cx="48.5" cy="192" r="4" class="st8"/><circle cx="57.5" cy="152" r="4" fill="#c4c4c4"/><path fill="#ff4f5e" d="m254.2 80.7-9.9-17.9c-.6-1.1-2.2-1.1-2.7 0l-9.9 17.9c-.6 1 .2 2.2 1.4 2.2h19.7c1.2.1 1.9-1.2 1.4-2.2z"/><path d="M242.9 79.9c-.9 0-1.6-.7-1.6-1.5s.7-1.5 1.6-1.5 1.6.7 1.6 1.5-.7 1.5-1.6 1.5zm1.6-4.5h-3.1v-6h3.1v6z" class="st3"/><path d="m86.9 71.4-2.6 2.4-2.5-2.3-.3.3-6.7 6.7c.3.3.6.4 1 .4h16.9c.4 0 .7-.2 1-.4l-6.6-6.8-.2-.3z" class="st11"/><path d="m82.1 71.8-7.2-6.4c-.3.3-.4.6-.4.9v11.3c0 .4.2.7.4 1l6.8-6.6.4-.2z" class="st12"/><path d="M94.1 66c-.1-.2-.2-.4-.4-.6l-7.1 6.3.3.3 6.8 6.6c.3-.3.4-.6.4-1V66.4c.1-.2.1-.3 0-.4z" class="st12"/><path d="m81.9 71.8 2.5 2.3 2.6-2.4 6.9-6.3c-.3-.2-.6-.4-.9-.4H76c-.4 0-.7.2-1 .4l6.9 6.4z" class="st13"/><path d="m86.9 111.4-2.6 2.4-2.5-2.3-.3.3-6.7 6.7c.3.3.6.4 1 .4h16.9c.4 0 .7-.2 1-.4l-6.6-6.8-.2-.3z" class="st11"/><path d="m82.1 111.8-7.2-6.4c-.3.3-.4.6-.4.9v11.3c0 .4.2.7.4 1l6.8-6.6.4-.2z" class="st12"/><path d="M94.1 106c-.1-.2-.2-.4-.4-.6l-7.1 6.3.3.3 6.8 6.6c.3-.3.4-.6.4-1v-11.3c.1-.1.1-.2 0-.3z" class="st12"/><path d="m81.9 111.8 2.5 2.3 2.6-2.4 6.9-6.3c-.3-.2-.6-.4-.9-.4H76c-.4 0-.7.2-1 .4l6.9 6.4z" class="st13"/><path d="m86.9 191.4-2.6 2.4-2.5-2.3-.3.3-6.7 6.7c.3.3.6.4 1 .4h16.9c.4 0 .7-.2 1-.4l-6.6-6.8-.2-.3z" class="st11"/><path d="m82.1 191.8-7.2-6.4c-.3.3-.4.6-.4.9v11.3c0 .4.2.7.4 1l6.8-6.6.4-.2z" class="st12"/><path d="M94.1 186c-.1-.2-.2-.4-.4-.6l-7.1 6.3.3.3 6.8 6.6c.3-.3.4-.6.4-1v-11.3c.1-.1.1-.2 0-.3z" class="st12"/><path d="m81.9 191.8 2.5 2.3 2.6-2.4 6.9-6.3c-.3-.2-.6-.4-.9-.4H76c-.4 0-.7.2-1 .4l6.9 6.4z" class="st13"/><path fill="#ff651d" d="m87.3 151.4-2.7 2.5-2.6-2.3-.3.3-6.9 6.8c.3.3.6.4 1 .4h17.5c.4 0 .8-.2 1-.4l-6.8-6.9-.2-.4z"/><path d="m82.1 151.8-7.2-6.3c-.3.3-.4.6-.4.9v11.3c0 .4.2.7.4 1l6.9-6.5.3-.4z" class="st15"/><path d="m94.4 145.4-7.2 6.5.3.3 6.9 6.8c.3-.3.4-.6.4-1v-11.6c0-.1 0-.3-.1-.4 0-.2-.1-.4-.3-.6z" class="st15"/><path fill="#fbb85e" d="m82.2 152 2.6 2.3 2.7-2.4 7.1-6.5c-.3-.2-.6-.4-1-.4H76c-.4 0-.8.2-1 .4l7.2 6.6z"/></g></svg>
