<svg xmlns="http://www.w3.org/2000/svg" xml:space="preserve" viewBox="0 0 350 247" width="350" height="247">
  <path fill="#FFF" stroke="#F0F0F4" stroke-width="2.602" d="M323.2 2.6H25.9c-1.4 0-2.6 1.2-2.6 2.6v236.7c0 1.4 1.2 2.6 2.6 2.6h297.3c1.4 0 2.6-1.2 2.6-2.6V5.2c0-1.4-1.2-2.6-2.6-2.6z"/>
  <path fill="#F0F0F4" d="M22 20.8h305.1v21.5H22V20.8z"/>
  <path fill="#FFF" d="M273.1 26.7H76c-.7 0-1.3.6-1.3 1.3v7.2c0 .7.6 1.3 1.3 1.3h197.1c.7 0 1.3-.6 1.3-1.3V28c0-.7-.6-1.3-1.3-1.3z"/>
  <path fill="#CFCFD8" d="M24.6 1.3h299.9c.7 0 1.4.31 1.8.82.5.51.8 1.13.8 1.85V21.3H22V3.97c0-.72.3-1.44.8-1.85.5-.51 1.1-.82 1.8-.82z"/>
  <path fill="#F0F0F4" d="M48 8.6c0-2.21 1.79-4 4-4h51.8c2.21 0 4 1.79 4 4v6c0 2.21-1.79 4-4 4H52c-2.21 0-4-1.79-4-4v-6z"/>
  <path fill="none" stroke="#F0F0F4" stroke-width="2" d="M44 58.3h261c1.7 0 3 1.3 3 3v24c0 1.7-1.3 3-3 3H44c-1.7 0-3-1.3-3-3v-24c0-1.7 1.3-3 3-3zm0 40h261c1.7 0 3 1.3 3 3v24c0 1.7-1.3 3-3 3H44c-1.7 0-3-1.3-3-3v-24c0-1.7 1.3-3 3-3z"/>
  <path fill="#F0F0F4" stroke="#F0F0F4" stroke-width="2" d="M44 138.3h261c1.7 0 3 1.3 3 3v24c0 1.7-1.3 3-3 3H44c-1.7 0-3-1.3-3-3v-24c0-1.7 1.3-3 3-3z"/>
  <path fill="none" stroke="#F0F0F4" stroke-width="2" d="M44 178.3h261c1.7 0 3 1.3 3 3v24c0 1.7-1.3 3-3 3H44c-1.7 0-3-1.3-3-3v-24c0-1.7 1.3-3 3-3z"/>
  <path fill="#F0F0F4" d="M56 67.3h9c3.3 0 6 2.7 6 6s-2.7 6-6 6h-9c-3.3 0-6-2.7-6-6s2.7-6 6-6zm0 40h9c3.3 0 6 2.7 6 6s-2.7 6-6 6h-9c-3.3 0-6-2.7-6-6s2.7-6 6-6z"/>
  <path fill="#FFF" d="M56 147.3h9c3.3 0 6 2.7 6 6s-2.7 6-6 6h-9c-3.3 0-6-2.7-6-6s2.7-6 6-6z"/>
  <path fill="#F0F0F4" d="M56 187.3h9c3.3 0 6 2.7 6 6s-2.7 6-6 6h-9c-3.3 0-6-2.7-6-6s2.7-6 6-6z"/>
  <path fill="#999" d="M56 77.3c2.21 0 4-1.79 4-4s-1.79-4-4-4-4 1.79-4 4 1.79 4 4 4zm0 40c2.21 0 4-1.79 4-4s-1.79-4-4-4-4 1.79-4 4 1.79 4 4 4zm0 80c2.21 0 4-1.79 4-4s-1.79-4-4-4-4 1.79-4 4 1.79 4 4 4z"/>
  <path fill="#C4C4C4" d="M65 157.3c2.21 0 4-1.79 4-4s-1.79-4-4-4-4 1.79-4 4 1.79 4 4 4z"/>
  <path fill="#FF4F5E" d="m261.7 82-9.9-17.9c-.6-1.1-2.2-1.1-2.7 0L239.2 82c-.6 1 .2 2.2 1.4 2.2h19.7c1.2.1 1.9-1.2 1.4-2.2z"/>
  <path fill="#FFF" d="M250.4 81.2c-.9 0-1.6-.7-1.6-1.5s.7-1.5 1.6-1.5c.9 0 1.6.7 1.6 1.5s-.7 1.5-1.6 1.5zm1.6-4.5h-3.1v-6h3.1v6z"/>
  <path fill="#0266A8" d="m94.4 72.7-2.6 2.4-2.5-2.3-.3.3-6.7 6.7c.3.3.6.4 1 .4h16.9c.4 0 .7-.2 1-.4L94.6 73l-.2-.3z"/>
  <path fill="#0390ED" d="m89.6 73.1-7.2-6.4c-.3.3-.4.6-.4.9v11.3c0 .4.2.7.4 1l6.8-6.6.4-.2zm12-5.8c-.1-.2-.2-.4-.4-.6L94.1 73l.3.3 6.8 6.6c.3-.3.4-.6.4-1V67.7c.1-.2.1-.3 0-.4z"/>
  <path fill="#62BEFB" d="m89.4 73.1 2.5 2.3 2.6-2.4 6.9-6.3c-.3-.2-.6-.4-.9-.4h-17c-.4 0-.7.2-1 .4l6.9 6.4z"/>
  <path fill="#0266A8" d="m94.4 112.7-2.6 2.4-2.5-2.3-.3.3-6.7 6.7c.3.3.6.4 1 .4h16.9c.4 0 .7-.2 1-.4l-6.6-6.8-.2-.3z"/>
  <path fill="#0390ED" d="m89.6 113.1-7.2-6.4c-.3.3-.4.6-.4.9v11.3c0 .4.2.7.4 1l6.8-6.6.4-.2zm12-5.8c-.1-.2-.2-.4-.4-.6l-7.1 6.3.3.3 6.8 6.6c.3-.3.4-.6.4-1v-11.3c.1-.1.1-.2 0-.3z"/>
  <path fill="#62BEFB" d="m89.4 113.1 2.5 2.3 2.6-2.4 6.9-6.3c-.3-.2-.6-.4-.9-.4h-17c-.4 0-.7.2-1 .4l6.9 6.4z"/>
  <path fill="#0266A8" d="m94.4 192.7-2.6 2.4-2.5-2.3-.3.3-6.7 6.7c.3.3.6.4 1 .4h16.9c.4 0 .7-.2 1-.4l-6.6-6.8-.2-.3z"/>
  <path fill="#0390ED" d="m89.6 193.1-7.2-6.4c-.3.3-.4.6-.4.9v11.3c0 .4.2.7.4 1l6.8-6.6.4-.2zm12-5.8c-.1-.2-.2-.4-.4-.6l-7.1 6.3.3.3 6.8 6.6c.3-.3.4-.6.4-1v-11.3c.1-.1.1-.2 0-.3z"/>
  <path fill="#62BEFB" d="m89.4 193.1 2.5 2.3 2.6-2.4 6.9-6.3c-.3-.2-.6-.4-.9-.4h-17c-.4 0-.7.2-1 .4l6.9 6.4z"/>
  <path fill="#FF651D" d="m94.8 152.7-2.7 2.5-2.6-2.3-.3.3-6.9 6.8c.3.3.6.4 1 .4h17.5c.4 0 .8-.2 1-.4l-6.8-6.9-.2-.4z"/>
  <path fill="#FF9200" d="m89.6 153.1-7.2-6.3c-.3.3-.4.6-.4.9V159c0 .4.2.7.4 1l6.9-6.5.3-.4zm12.3-6.4-7.2 6.5.3.3 6.9 6.8c.3-.3.4-.6.4-1v-11.6c0-.1 0-.3-.1-.4 0-.2-.1-.4-.3-.6z"/>
  <path fill="#FBB85E" d="m89.7 153.3 2.6 2.3 2.7-2.4 7.1-6.5c-.3-.2-.6-.4-1-.4H83.5c-.4 0-.8.2-1 .4l7.2 6.6z"/>
</svg>
