<svg xmlns="http://www.w3.org/2000/svg" xmlns:xlink="http://www.w3.org/1999/xlink" width="328" height="222" viewBox="0 0 328 222"><defs><rect id="e" width="245.575" height="180.83" x="0" y="0" rx="2.657"/><filter id="d" width="111.8%" height="116%" x="-5.9%" y="-6.9%" filterUnits="objectBoundingBox"><feOffset dy="2" in="SourceAlpha" result="shadowOffsetOuter1"/><feGaussianBlur in="shadowOffsetOuter1" result="shadowBlurOuter1" stdDeviation="4.5"/><feColorMatrix in="shadowBlurOuter1" values="0 0 0 0 0.125490196 0 0 0 0 0.0705882353 0 0 0 0 0.22745098 0 0 0 0.24 0"/></filter><rect id="a" width="223.572" height="159.43" x="11.356" y="11.356" rx="2.657"/><mask id="f" width="223.572" height="159.43" x="0" y="0" fill="#fff" maskContentUnits="userSpaceOnUse" maskUnits="objectBoundingBox"><use xlink:href="#a"/></mask><path id="h" d="M310.438 209.506H4.677c-2.318 0-4.206-1.866-4.206-4.156V104.329 4.156C.47 1.866 2.359 0 4.677 0h305.847c2.317 0 4.206 1.866 4.206 4.156v201.279c-.086 2.205-1.975 4.071-4.292 4.071z"/><filter id="g" width="107.3%" height="111%" x="-3.7%" y="-4.5%" filterUnits="objectBoundingBox"><feOffset dy="2" in="SourceAlpha" result="shadowOffsetOuter1"/><feGaussianBlur in="shadowOffsetOuter1" result="shadowBlurOuter1" stdDeviation="3.5"/><feColorMatrix in="shadowBlurOuter1" values="0 0 0 0 0.125490196 0 0 0 0 0.0705882353 0 0 0 0 0.22745098 0 0 0 0.24 0"/></filter><rect id="b" width="287.188" height="70.62" x="0" y=".235" rx="3.766"/><mask id="i" width="287.188" height="70.62" x="0" y="0" fill="#fff" maskContentUnits="userSpaceOnUse" maskUnits="objectBoundingBox"><use xlink:href="#b"/></mask><rect id="c" width="287.188" height="70.62" x="0" y="0" rx="3.766"/><mask id="j" width="287.188" height="70.62" x="0" y="0" fill="#fff" maskContentUnits="userSpaceOnUse" maskUnits="objectBoundingBox"><use xlink:href="#c"/></mask></defs><g fill="none" fill-rule="evenodd"><g transform="translate(22.128 28)"><use fill="#000" filter="url(#d)" xlink:href="#e"/><use fill="#FFF" xlink:href="#e"/><use stroke="#D0D0D1" stroke-dasharray="2.657" stroke-width="2.657" mask="url(#f)" xlink:href="#a"/><g stroke="#0060DF" stroke-width="2.657" transform="translate(97.946 67.013)"><circle cx="24.841" cy="24.841" r="24.841"/><path d="M25.196 12.066v25.385M12.504 24.758h25.385"/></g></g><g transform="translate(11 90.367)"><path fill="#91C7FF" d="M24.877 0v15.01a5.478 5.478 0 0 0 5.48 5.478l15.008-.001v32.57a5.478 5.478 0 0 1-5.478 5.48H5.478A5.478 5.478 0 0 1 0 53.056V5.479A5.478 5.478 0 0 1 5.478 0h19.399z"/><rect width="8.78" height="2.927" x="10.244" y="17.561" fill="#0060DF" rx="1.37"/><rect width="24.878" height="2.927" x="10.244" y="29.268" fill="#0060DF" rx="1.37"/><rect width="24.878" height="2.927" x="10.244" y="40.975" fill="#0060DF" rx="1.37"/><path fill="#91C7FF" d="M27.84 0v14.822a2.74 2.74 0 0 0 2.739 2.739h14.787L27.839 0z"/></g><path fill="#FFF" d="M11 95.845v47.58a5.478 5.478 0 0 0 5.478 5.478h34.41a5.478 5.478 0 0 0 5.478-5.478v-35.497L38.805 90.367H16.478A5.478 5.478 0 0 0 11 95.845z" opacity=".715"/><g transform="translate(35.878 90.367)"><path fill="#91C7FF" d="M24.877 0v15.01a5.478 5.478 0 0 0 5.48 5.478l15.008-.001v32.57a5.478 5.478 0 0 1-5.478 5.48H5.478A5.478 5.478 0 0 1 0 53.056V5.479A5.478 5.478 0 0 1 5.478 0h19.399z"/><rect width="8.78" height="2.927" x="10.244" y="17.561" fill="#0060DF" rx="1.37"/><rect width="24.878" height="2.927" x="10.244" y="29.268" fill="#0060DF" rx="1.37"/><rect width="24.878" height="2.927" x="10.244" y="40.975" fill="#0060DF" rx="1.37"/><path fill="#91C7FF" d="M27.84 0v14.822a2.74 2.74 0 0 0 2.739 2.739h14.787L27.839 0z"/></g><path fill="#FFF" d="M35.878 95.845v47.58a5.478 5.478 0 0 0 5.478 5.478h34.41a5.478 5.478 0 0 0 5.478-5.478v-35.497L63.683 90.367H41.356a5.478 5.478 0 0 0-5.478 5.478z" opacity=".468"/><g transform="translate(60.756 90.367)"><path fill="#91C7FF" d="M24.877 0v15.01a5.478 5.478 0 0 0 5.48 5.478l15.008-.001v32.57a5.478 5.478 0 0 1-5.478 5.48H5.478A5.478 5.478 0 0 1 0 53.056V5.479A5.478 5.478 0 0 1 5.478 0h19.399z"/><rect width="8.78" height="2.927" x="10.244" y="17.561" fill="#0060DF" rx="1.37"/><rect width="24.878" height="2.927" x="10.244" y="29.268" fill="#0060DF" rx="1.37"/><rect width="24.878" height="2.927" x="10.244" y="40.975" fill="#0060DF" rx="1.37"/><path fill="#91C7FF" d="M27.84 0v14.822a2.74 2.74 0 0 0 2.739 2.739h14.787L27.839 0z"/></g><g><g fill-rule="nonzero" transform="translate(6 5)"><use fill="#000" filter="url(#g)" xlink:href="#h"/><use fill="#FFF" xlink:href="#h"/></g><g transform="translate(20.124 15.358)"><path fill="#91C7FF" fill-rule="nonzero" d="M41.653 12.168h-23.2c-.713 0-1.308.217-1.843.705-.536.488-.774 1.03-.774 1.681v41.057c0 .65.238 1.193.774 1.681.535.488 1.13.705 1.844.705h33.728c.713 0 1.308-.217 1.844-.705.535-.488.773-1.03.773-1.681V24.967l-13.146-12.8z"/><path stroke="#0060DF" stroke-linecap="round" stroke-linejoin="round" stroke-width="2.712" d="M35.229 26.377H25.116M45.46 36.14H25.116M45.46 46.987H25.116"/><path fill="#589AD6" fill-rule="nonzero" d="M38.798 12.168V20.9c0 .65.237 1.193.773 1.681.535.488 1.13.705 1.844.705h11.6L41.652 12.168h-2.855z"/><path fill="#CAE6FF" fill-rule="nonzero" d="M41.593 22.581c0 .65.238 1.193.774 1.681.535.488 1.13.705 1.844.705h10.588L41.593 12.113v10.468z"/><path fill="#23103C" fill-rule="nonzero" d="M82.93 42.598v-2.63h-5.755l2.472-1.918c2.373-1.72 3.164-3.124 3.164-4.943 0-2.55-2.096-4.33-4.983-4.33-2.195 0-3.915.949-5.26 2.65l1.859 1.799c.989-1.127 1.997-1.8 3.322-1.8 1.107 0 2.056.673 2.056 1.8 0 .949-.514 1.839-2.135 3.124l-5.003 3.876v2.372H82.93zm3.855.238c.97 0 1.76-.83 1.76-1.84 0-.929-.79-1.76-1.76-1.76-1.028 0-1.839.831-1.839 1.76 0 1.01.811 1.84 1.84 1.84zm9.511-.238V29.014h-2.333l-4.073 2.729 1.166 2.056 2.314-1.443v10.242h2.926zm5.893 0v-8.463l4.212 7.672 4.192-7.672v8.463h2.926V29.014h-2.926l-4.192 7.672-4.212-7.672h-2.907v13.584h2.907zm21.375 0c2.59 0 4.45-1.502 4.45-3.677 0-1.503-.91-2.769-2.492-3.48 1.206-.633 1.898-1.642 1.898-3.026 0-1.977-1.68-3.401-4.113-3.401h-6.881v13.584h7.138zm-.988-8.107h-3.243v-2.986h3.243c1.087 0 1.858.633 1.858 1.483 0 .87-.77 1.503-1.858 1.503zm.454 5.616h-3.697v-3.322h3.697c1.167 0 1.998.692 1.998 1.66 0 .97-.831 1.662-1.998 1.662z"/><use stroke="#D0D0D1" stroke-dasharray="3.766" stroke-width="3.766" mask="url(#i)" xlink:href="#b"/></g><g transform="translate(20.124 93.51)"><path fill="#91C7FF" fill-rule="nonzero" d="M38.15 12.403H17c-.651 0-1.194.217-1.682.705s-.705 1.03-.705 1.681v41.057c0 .65.217 1.193.705 1.681s1.03.705 1.682.705H47.75c.651 0 1.194-.217 1.682-.705s.705-1.03.705-1.681V25.202l-11.986-12.8z"/><path stroke="#0060DF" stroke-linecap="round" stroke-linejoin="round" stroke-width="2.712" d="M32.293 26.612h-9.22m18.549 9.763H23.073m18.549 10.847H23.073"/><path fill="#589AD6" fill-rule="nonzero" d="M35.547 12.403v8.732c0 .65.217 1.193.705 1.681s1.03.705 1.682.705H48.51L38.15 12.403h-2.603z"/><path fill="#CAE6FF" fill-rule="nonzero" d="M38.096 22.816c0 .65.217 1.193.705 1.681.489.488 1.03.705 1.682.705h9.654l-12.04-12.854v10.468z"/><path fill="#23103C" fill-rule="nonzero" d="M72.595 42.598V29.014h-2.333l-4.073 2.729 1.166 2.056 2.314-1.443v10.242h2.926zm11.845 0V39.83h1.8v-2.452h-1.8v-8.344H80.9l-6.288 8.542.277 2.254h6.624v2.768h2.927zm-2.927-5.22h-3.836l3.836-5.26v5.26zm8.325 5.458c.969 0 1.76-.83 1.76-1.84 0-.929-.791-1.76-1.76-1.76-1.028 0-1.839.831-1.839 1.76 0 1.01.81 1.84 1.84 1.84zm8.463 0c3.757 0 6.229-3.026 6.229-7.257 0-3.955-1.8-6.802-5.774-6.802-2.966 0-5.2 1.918-5.2 4.706 0 2.689 2.076 4.31 4.587 4.31 1.285 0 2.511-.474 3.361-1.285-.257 2.294-1.463 3.757-3.223 3.757-1.127 0-1.937-.415-2.768-1.107l-1.384 2.214c1.107.89 2.472 1.464 4.172 1.464zm.692-7.415c-1.325 0-2.432-.772-2.432-2.077 0-1.087.91-2.096 2.353-2.096 1.523 0 2.254.93 2.511 2.59-.395.97-1.305 1.583-2.432 1.583zm10.757 7.177v-8.463l4.212 7.672 4.192-7.672v8.463h2.926V29.014h-2.926l-4.192 7.672-4.212-7.672h-2.907v13.584h2.907zm21.375 0c2.59 0 4.45-1.502 4.45-3.677 0-1.503-.91-2.769-2.492-3.48 1.206-.633 1.898-1.642 1.898-3.026 0-1.977-1.68-3.401-4.113-3.401h-6.88v13.584h7.137zm-.988-8.107h-3.243v-2.986h3.243c1.087 0 1.858.633 1.858 1.483 0 .87-.77 1.503-1.858 1.503zm.454 5.616h-3.697v-3.322h3.697c1.167 0 1.998.692 1.998 1.66 0 .97-.83 1.662-1.998 1.662z"/><path fill="#5E5E5E" fill-rule="nonzero" d="M178.354 105.394v-10.35h-1.778l-3.103 2.079.889 1.566 1.762-1.1v7.805h2.23zm5.394 0l4.173-8.678v-1.672h-7.699v2.003h5.123l-4.113 8.347h2.516zm7.08.18c.739 0 1.341-.632 1.341-1.4 0-.709-.602-1.342-1.34-1.342-.784 0-1.402.633-1.402 1.341 0 .769.618 1.401 1.401 1.401zm7.473 0c2.727 0 4.655-2.214 4.655-5.363 0-3.134-1.928-5.348-4.655-5.348-2.727 0-4.64 2.214-4.64 5.348 0 3.149 1.913 5.363 4.64 5.363zm0-2.018c-1.386 0-2.365-1.402-2.365-3.345 0-1.943.979-3.33 2.365-3.33 1.401 0 2.365 1.387 2.365 3.33s-.964 3.345-2.365 3.345zm8.648 1.838v-6.448l3.209 5.845 3.194-5.845v6.448h2.23v-10.35h-2.23l-3.194 5.845-3.21-5.845h-2.214v10.35h2.215zm16.286 0c1.973 0 3.39-1.145 3.39-2.803 0-1.145-.694-2.109-1.899-2.651.919-.482 1.446-1.25 1.446-2.305 0-1.507-1.28-2.591-3.133-2.591h-5.243v10.35h5.439zm-.754-6.177h-2.47v-2.275h2.47c.829 0 1.416.482 1.416 1.13 0 .663-.587 1.145-1.416 1.145zm.347 4.278h-2.818v-2.53h2.818c.889 0 1.521.527 1.521 1.265 0 .738-.632 1.265-1.521 1.265zm10.546 3.013L238.57 94.2h-2.32l-5.197 12.308h2.32zm17.687-1.114v-2.004h-4.384l1.883-1.461c1.808-1.311 2.41-2.38 2.41-3.767 0-1.943-1.597-3.3-3.796-3.3-1.673 0-2.983.724-4.008 2.02l1.416 1.37c.754-.858 1.522-1.37 2.532-1.37.843 0 1.566.512 1.566 1.37 0 .724-.391 1.402-1.627 2.38l-3.811 2.954v1.808h7.819zm2.937.18c.739 0 1.341-.632 1.341-1.4 0-.709-.602-1.342-1.34-1.342-.784 0-1.402.633-1.402 1.341 0 .769.618 1.401 1.401 1.401zm6.705.015c2.47 0 4.113-1.4 4.113-3.6 0-2.11-1.582-3.285-3.42-3.285-.844 0-1.507.272-2.02.633l.061-2.29h4.806v-2.003h-6.855l-.15 5.589 1.491.602a3.246 3.246 0 0 1 2.004-.677c1.13 0 1.868.602 1.868 1.506 0 .889-.723 1.582-1.883 1.582-.995 0-1.944-.482-2.712-1.22l-1.31 1.567c.963.964 2.274 1.596 4.007 1.596zm10.922-.015c1.552 0 3.149-.647 4.188-1.732v-4.264h-4.58v1.733h2.411v1.582a3.515 3.515 0 0 1-2.019.663c-1.762 0-3.254-1.537-3.254-3.345 0-1.793 1.492-3.33 3.254-3.33.95 0 1.959.453 2.576 1.16l1.612-1.446c-1.039-1.084-2.636-1.732-4.188-1.732-2.998 0-5.544 2.44-5.544 5.348s2.546 5.363 5.544 5.363zm11.586-.18c1.973 0 3.39-1.145 3.39-2.803 0-1.145-.694-2.109-1.899-2.651.92-.482 1.446-1.25 1.446-2.305 0-1.507-1.28-2.591-3.133-2.591h-5.243v10.35h5.439zm-.754-6.177h-2.47v-2.275h2.47c.829 0 1.417.482 1.417 1.13 0 .663-.588 1.145-1.417 1.145zm.347 4.278h-2.817v-2.53h2.817c.889 0 1.522.527 1.522 1.265 0 .738-.633 1.265-1.522 1.265z"/><use stroke="#D0D0D1" stroke-dasharray="3.766" stroke-width="3.766" mask="url(#j)" xlink:href="#c"/></g><g stroke="#0060DF" stroke-width="2.475" transform="translate(36.131 174.017)"><circle cx="15.212" cy="15.212" r="15.212"/><path d="M15.429 7.389v15.545M7.658 15.162h15.545"/></g></g></g></svg>