<svg xmlns="http://www.w3.org/2000/svg" xml:space="preserve" viewBox="0 0 350 247" width="350" height="247">
  <path fill="none" d="M18 0h314v226H18z"/>
  <path fill="#F0F0F4" d="m18.96 245.56.01-198.61C18.96 21.02 37.05 0 59.36 0h231.5c22.31 0 40.39 21.02 40.39 46.95l-.01 198.61"/>
  <path fill="#D1D1D7" fill-opacity=".6" d="M206.24 20.71h-62.09c-1.75 0-3.18 1.42-3.18 3.18v.55c0 1.75 1.42 3.18 3.18 3.18h62.09c1.75 0 3.18-1.42 3.18-3.18v-.55c-.01-1.75-1.43-3.18-3.18-3.18z"/>
  <path fill="#FFF" d="M308.23 46.03c1.89 0 3.42 2.04 3.42 4.57l-.4 196.4H40.56l.4-196.4c0-2.52 1.53-4.57 3.42-4.57h263.85z"/>
  <path fill="#D1D1D7" d="M308.23 46.03c1.89 0 3.42 1.87 3.42 4.18V62.6H40.96V50.21c0-2.31 1.53-4.18 3.42-4.18h263.85z"/>
  <path fill="#321C64" d="M64.59 246.83V85.02c0-4.42 3.58-8 8-8H277.4c4.42 0 8 3.58 8 8v161.81"/>
  <path fill="none" stroke="#E7E7E7" d="M64.59 246.83V85.02c0-4.42 3.58-8 8-8H277.4c4.42 0 8 3.58 8 8v161.81"/>
  <path fill="#3FE1B0" d="M187.51 103.54c5.82 0 10.53 4.72 10.53 10.53v.01c0 5.82-4.72 10.53-10.53 10.53-5.82 0-10.53-4.72-10.53-10.53v-.01c0-5.81 4.71-10.53 10.53-10.53z"/>
  <radialGradient id="a" cx="-224.3961" cy="519.2704" r=".9999" gradientTransform="matrix(50.037 -50.065 -50.065 -50.037 37425.3906 14849.9316)" gradientUnits="userSpaceOnUse">
    <stop offset="0" stop-color="#b833e1"/>
    <stop offset=".371" stop-color="#9059ff"/>
    <stop offset=".614" stop-color="#5b6df8"/>
    <stop offset="1" stop-color="#0090ed"/>
  </radialGradient>
  <path fill="url(#a)" d="M174.01 117.08h-7.04c1.66-5.5 4.67-9.26 8.03-9.26h.18c1.19-2.35 3.04-4.31 5.29-5.65-1.78-.4-3.61-.61-5.47-.61-4.95 0-9.79 1.47-13.9 4.22-4.12 2.75-7.32 6.66-9.21 11.23-1.89 4.57-2.39 9.61-1.42 14.46.97 4.86 3.35 9.32 6.85 12.82 3.5 3.5 7.96 5.88 12.81 6.85s9.88.47 14.46-1.43c4.57-1.89 8.48-5.1 11.23-9.22 2.75-4.12 4.22-8.96 4.22-13.91 0-1.86-.21-3.69-.61-5.47-1.34 2.26-3.3 4.1-5.65 5.29v.18c0 2.09-.36 4.16-1.05 6.13h-5.7c.26-1.59.41-3.2.46-4.81-1.07 0-2.12-.13-3.12-.36-.05 1.73-.23 3.46-.53 5.17h-17.68c-.73-4.05-.73-8.2 0-12.25h9.08c-.55-1.04-.97-2.18-1.23-3.38zm-7.04 19.04c1.66 5.5 4.67 9.26 8.03 9.26s6.37-3.76 8.03-9.26h-16.06zm-9.69-15.65c-.69 1.97-1.04 4.04-1.05 6.13.01 2.09.36 4.16 1.05 6.13h5.7c-.65-4.06-.65-8.19 0-12.25h-5.7zm6.43-3.39c.67-2.65 1.78-5.16 3.29-7.43-3.39 1.61-6.23 4.2-8.14 7.43h4.85zm0 19.04h-4.85c1.91 3.23 4.75 5.82 8.14 7.43-1.51-2.27-2.63-4.78-3.29-7.43zm19.31 7.43c3.39-1.61 6.22-4.2 8.14-7.43h-4.85c-.67 2.64-1.78 5.16-3.29 7.43z"/>
  <path fill="#FFF" d="m187.51 118.71-.07-.01c-1.05-.17-2-.74-2.64-1.6-.74-1.01-1.16-2.23-1.18-3.48-.05-.55-.05-1.77-.05-2.44 0-.59.42-1.1 1.01-1.2l2.95-.51 2.94.51c.58.1 1.01.61 1.01 1.2 0 .67 0 1.89-.05 2.44-.03 1.25-.44 2.47-1.18 3.48-.64.86-1.59 1.43-2.64 1.6l-.1.01zm-2.63-7.45c0 .41-.01.77-.01 1.08-.01.5-.01.88.01 1.1.02 1.04.36 2.05.98 2.89.4.54.99.92 1.65 1.06.66-.14 1.25-.51 1.65-1.06.62-.84.96-1.85.98-2.89.02-.22.01-.59.01-1.1 0-.31-.01-.67-.01-1.08l-2.63-.45-2.63.45zm.98.84 1.65-.28v4.55h-.01c-.34-.11-.64-.33-.86-.62-.5-.67-.76-1.49-.74-2.32-.02-.24-.03-.71-.04-1.33z"/>
  <path fill="#3FE1B0" d="M158.46 192.14h33.08c5.22 0 9.46 4.23 9.46 9.46 0 5.22-4.23 9.46-9.46 9.46h-33.08c-5.22 0-9.46-4.23-9.46-9.46s4.24-9.46 9.46-9.46z" opacity=".6"/>
  <path fill="#54FFBD" d="M186.82 215.79c7.83 0 14.18-6.35 14.18-14.19s-6.35-14.19-14.18-14.19-14.18 6.35-14.18 14.19 6.35 14.19 14.18 14.19z"/>
  <linearGradient id="b" x1="186.817" x2="186.817" y1="61.592" y2="33.493" gradientTransform="matrix(1 0 0 -1 0 249)" gradientUnits="userSpaceOnUse">
    <stop offset="0" stop-opacity="0"/>
    <stop offset=".8" stop-opacity=".02"/>
    <stop offset="1" stop-opacity=".04"/>
  </linearGradient>
  <path fill="none" stroke="url(#b)" stroke-width=".5" d="M200.75 201.6c0 7.7-6.24 13.94-13.93 13.94-7.69 0-13.93-6.24-13.93-13.94 0-7.7 6.24-13.94 13.93-13.94 7.69 0 13.93 6.24 13.93 13.94z"/>
  <linearGradient id="c" x1="186.817" x2="186.817" y1="61.592" y2="33.215" gradientTransform="matrix(1 0 0 -1 0 249)" gradientUnits="userSpaceOnUse">
    <stop offset="0" stop-color="#fff" stop-opacity=".12"/>
    <stop offset=".2" stop-color="#fff" stop-opacity=".06"/>
    <stop offset="1" stop-color="#fff" stop-opacity="0"/>
  </linearGradient>
  <path fill="none" stroke="url(#c)" stroke-width=".5" d="M200.75 201.6c0 7.7-6.24 13.94-13.93 13.94-7.69 0-13.93-6.24-13.93-13.94 0-7.7 6.24-13.94 13.93-13.94 7.69 0 13.93 6.24 13.93 13.94z"/>
  <path fill="#FFF" d="m154.48 163.08-3.43 7.8-3.45-7.8h-1.12l4 9.07h1.12l4-9.07h-1.12zm2.59 9.07h1.03v-3.26h2.65c1.87 0 3.34-1.2 3.34-2.9s-1.46-2.9-3.34-2.9h-3.68v9.06zm1.03-4.24v-3.85h2.47c1.48 0 2.48.71 2.48 1.93 0 1.21-1 1.93-2.48 1.93h-2.47zm7.66 4.24h1.03v-7.38l5.62 7.38h1.03v-9.07h-1.03v7.38l-5.62-7.38h-1.03v9.07zm14.24-8.06c.36 0 .65-.3.65-.66 0-.34-.29-.65-.65-.65-.37 0-.66.3-.66.65 0 .35.29.66.66.66zm-.5 8.06h.99v-6.82h-.99v6.82zm5.39.16c1.41 0 2.49-.8 2.49-2.06 0-1.29-1.13-1.66-2.23-2.01-1.27-.41-1.77-.59-1.77-1.19 0-.66.63-1 1.4-1 .61 0 1.28.21 1.97.65l.48-.77c-.73-.48-1.6-.76-2.44-.76-1.36 0-2.39.76-2.39 2.01 0 .98.63 1.46 2.28 1.94.92.26 1.72.5 1.72 1.24 0 .65-.61 1.07-1.51 1.07-.75 0-1.53-.29-2.31-.86l-.51.73c.82.65 1.87 1.01 2.82 1.01zm11.13 0c1.91 0 3.52-1.64 3.52-3.58 0-1.94-1.61-3.56-3.52-3.56s-3.54 1.62-3.54 3.56 1.63 3.58 3.54 3.58zm0-.88c-1.36 0-2.49-1.23-2.49-2.69 0-1.45 1.13-2.68 2.49-2.68 1.35 0 2.48 1.23 2.48 2.68 0 1.46-1.13 2.69-2.48 2.69zm8.41-6.26c-.96 0-1.85.53-2.24 1.25v-1.1h-.99v6.82h.99v-4.34c0-.95.96-1.76 2.11-1.76 1 0 1.7.78 1.7 1.89v4.21h.99v-4.34c0-1.54-1.06-2.63-2.56-2.63z"/>
</svg>
