<svg xmlns="http://www.w3.org/2000/svg" width="314" height="226" fill="none" viewBox="0 0 314 226">
  <g clip-path="url(#clip0)">
    <path fill="#F0F0F4" fill-rule="evenodd" d="M.955566 268.666L.96078 46.9491C.96078 21.0208 19.0463 0 41.356 0h231.496c22.309 0 40.395 21.0208 40.395 46.9491l-.005 221.7169" clip-rule="evenodd"/>
    <path fill="#D1D1D7" fill-opacity=".6" d="M188.236 20.7148h-62.092c-1.754 0-3.176 1.4225-3.176 3.1772v.5503c0 1.7547 1.422 3.1772 3.176 3.1772h62.092c1.753 0 3.175-1.4225 3.175-3.1772v-.5503c0-1.7547-1.422-3.1772-3.175-3.1772z"/>
    <path fill="#fff" fill-rule="evenodd" d="M290.229 46.0332c1.891 0 3.424 2.0442 3.424 4.5669l-.397 221.7369H22.563l.3978-221.7369c0-2.5227 1.5332-4.5669 3.4245-4.5669H290.229z" clip-rule="evenodd"/>
    <path fill="#D1D1D7" fill-rule="evenodd" d="M290.229 46.0332c1.891 0 3.425 1.8692 3.425 4.1758v12.389H22.9609V50.209c0-2.3066 1.5333-4.1758 3.4246-4.1758H290.229z" clip-rule="evenodd"/>
    <g filter="url(#filter0_d)">
      <rect width="220.813" height="208.771" x="46.5938" y="77.0225" fill="#321C64" rx="8"/>
      <rect width="220.813" height="208.771" x="46.5938" y="77.0225" stroke="#E7E7E7" rx="8"/>
    </g>
    <rect width="21.0684" height="21.0798" x="158.975" y="97.5449" fill="#3FE1B0" rx="10.5342"/>
    <path fill="url(#paint0_radial)" fill-rule="evenodd" d="M156.009 111.082h-7.037c1.658-5.501 4.666-9.256 8.028-9.256.059 0 .117.002.175.004 1.192-2.3489 3.035-4.312 5.291-5.6513-1.78-.4006-3.612-.6083-5.466-.6103-4.948 0-9.785 1.4681-13.899 4.2187-4.115 2.7509-7.322 6.6599-9.215 11.2339-1.894 4.574-2.389 9.607-1.424 14.463.966 4.856 3.348 9.316 6.847 12.817 3.499 3.501 7.957 5.885 12.81 6.851 4.853.966 9.884.47 14.455-1.425 4.572-1.894 8.479-5.103 11.228-9.219 2.75-4.117 4.217-8.956 4.217-13.907-.002-1.855-.21-3.688-.61-5.47-1.338 2.257-3.299 4.101-5.646 5.294.001.058.001.117.001.176-.004 2.086-.358 4.157-1.047 6.126h-5.695c.255-1.592.411-3.198.465-4.809-1.072-.002-2.116-.126-3.118-.359-.048 1.733-.225 3.461-.531 5.168h-17.676c-.727-4.052-.727-8.201 0-12.253h9.082c-.552-1.058-.971-2.196-1.235-3.392zm-7.037 19.037c1.658 5.501 4.666 9.256 8.028 9.256s6.371-3.755 8.031-9.256h-16.059zm-9.688-15.645c-.689 1.969-1.043 4.04-1.048 6.127.005 2.086.359 4.157 1.048 6.126h5.695c-.651-4.058-.651-8.195 0-12.253h-5.695zm6.423-3.392c.667-2.646 1.779-5.16 3.287-7.434-3.393 1.611-6.227 4.2-8.14 7.434h4.853zm0 19.037H140.854c1.913 3.234 4.747 5.823 8.14 7.435-1.508-2.274-2.62-4.788-3.287-7.435zm19.313 7.428c3.39-1.61 6.223-4.197 8.136-7.428h-4.854c-.666 2.644-1.776 5.156-3.282 7.428z" clip-rule="evenodd"/>
    <path fill="#fff" fill-rule="evenodd" d="M169.509 112.71l-.073-.008c-1.055-.169-2.002-.743-2.642-1.599-.744-1.011-1.157-2.227-1.185-3.482-.05-.553-.05-1.766-.05-2.441-.001-.592.423-1.098 1.005-1.2l2.945-.506 2.944.506c.583.101 1.008.608 1.007 1.2 0 .674 0 1.888-.053 2.441-.027 1.255-.441 2.471-1.185 3.482-.64.856-1.587 1.43-2.641 1.599l-.072.008zm-2.633-7.448c0 .407-.005.767-.009 1.077-.006.505-.011.876.009 1.097.017 1.041.36 2.05.979 2.887.405.542.993.917 1.654 1.057.662-.14 1.25-.515 1.654-1.057.62-.837.963-1.846.98-2.887.02-.221.015-.592.009-1.097-.004-.31-.009-.67-.009-1.077l-2.634-.451-2.633.451zm.987.833l1.646-.282v4.546h-.005c-.342-.114-.64-.331-.856-.621-.497-.672-.758-1.489-.744-2.325-.021-.227-.035-.697-.041-1.318z" clip-rule="evenodd"/>
    <rect width="51.9957" height="18.9178" x="131.002" y="186.138" fill="#3FE1B0" opacity=".6" rx="9.45889"/>
    <g filter="url(#filter1_dd)">
      <path fill="#54FFBD" fill-rule="evenodd" d="M168.817 209.785c7.832 0 14.181-6.352 14.181-14.188s-6.349-14.189-14.181-14.189c-7.832 0-14.181 6.353-14.181 14.189s6.349 14.188 14.181 14.188z" clip-rule="evenodd"/>
      <path stroke="url(#paint1_linear)" stroke-width=".5" d="M182.748 195.597c0 7.698-6.238 13.938-13.931 13.938-7.694 0-13.931-6.24-13.931-13.938 0-7.699 6.237-13.939 13.931-13.939 7.693 0 13.931 6.24 13.931 13.939z"/>
      <path stroke="url(#paint2_linear)" stroke-width=".5" d="M182.748 195.597c0 7.698-6.238 13.938-13.931 13.938-7.694 0-13.931-6.24-13.931-13.938 0-7.699 6.237-13.939 13.931-13.939 7.693 0 13.931 6.24 13.931 13.939z"/>
    </g>
    <path fill="#fff" d="M136.483 157.084l-3.432 7.802-3.446-7.802h-1.122l4 9.069h1.122l4-9.069h-1.122zm2.586 9.069h1.029v-3.261h2.654c1.874 0 3.339-1.201 3.339-2.904 0-1.703-1.465-2.904-3.339-2.904h-3.683v9.069zm1.029-4.238v-3.854h2.469c1.478 0 2.482.713 2.482 1.927 0 1.215-1.004 1.927-2.482 1.927h-2.469zm7.664 4.238h1.03v-7.379l5.623 7.379h1.03v-9.069h-1.03v7.379l-5.623-7.379h-1.03v9.069zM162 158.087c.356 0 .647-.303.647-.66 0-.343-.291-.647-.647-.647-.37 0-.66.304-.66.647 0 .357.29.66.66.66zm-.502 8.066h.99v-6.825h-.99v6.825zm5.394.158c1.413 0 2.495-.805 2.495-2.059 0-1.294-1.135-1.663-2.231-2.007-1.267-.409-1.769-.594-1.769-1.188 0-.66.634-1.003 1.4-1.003.607 0 1.28.211 1.967.647l.475-.766c-.726-.475-1.598-.765-2.442-.765-1.36 0-2.39.765-2.39 2.006 0 .977.634 1.465 2.284 1.941.924.264 1.716.501 1.716 1.241 0 .646-.607 1.069-1.505 1.069-.752 0-1.531-.291-2.31-.858l-.515.726c.819.66 1.875 1.016 2.825 1.016zm11.13 0c1.914 0 3.525-1.637 3.525-3.577 0-1.941-1.611-3.564-3.525-3.564s-3.538 1.623-3.538 3.564c0 1.94 1.624 3.577 3.538 3.577zm0-.884c-1.36 0-2.495-1.228-2.495-2.693 0-1.452 1.135-2.68 2.495-2.68 1.347 0 2.482 1.228 2.482 2.68 0 1.465-1.135 2.693-2.482 2.693zm8.407-6.257c-.964 0-1.848.528-2.244 1.254v-1.096h-.99v6.825h.99v-4.343c0-.951.964-1.756 2.112-1.756 1.003 0 1.703.779 1.703 1.888v4.211h.99v-4.343c0-1.545-1.056-2.64-2.561-2.64z"/>
  </g>
  <defs>
    <linearGradient id="paint1_linear" x1="154.775" x2="154.775" y1="181.408" y2="209.507" gradientUnits="userSpaceOnUse">
      <stop stop-opacity="0"/>
      <stop offset=".8" stop-opacity=".02"/>
      <stop offset="1" stop-opacity=".04"/>
    </linearGradient>
    <linearGradient id="paint2_linear" x1="154.636" x2="154.636" y1="181.408" y2="209.785" gradientUnits="userSpaceOnUse">
      <stop stop-color="#fff" stop-opacity=".12"/>
      <stop offset=".2" stop-color="#fff" stop-opacity=".06"/>
      <stop offset="1" stop-color="#fff" stop-opacity="0"/>
    </linearGradient>
    <filter id="filter0_d" width="228.813" height="216.771" x="42.5938" y="74.0225" color-interpolation-filters="sRGB" filterUnits="userSpaceOnUse">
      <feFlood flood-opacity="0" result="BackgroundImageFix"/>
      <feColorMatrix in="SourceAlpha" values="0 0 0 0 0 0 0 0 0 0 0 0 0 0 0 0 0 0 127 0"/>
      <feOffset dy="1"/>
      <feGaussianBlur stdDeviation="2"/>
      <feColorMatrix values="0 0 0 0 0.0470588 0 0 0 0 0.0470588 0 0 0 0 0.0509804 0 0 0 0.1 0"/>
      <feBlend in2="BackgroundImageFix" result="effect1_dropShadow"/>
      <feBlend in="SourceGraphic" in2="effect1_dropShadow" result="shape"/>
    </filter>
    <filter id="filter1_dd" width="32.3613" height="34.3767" x="152.636" y="179.408" color-interpolation-filters="sRGB" filterUnits="userSpaceOnUse">
      <feFlood flood-opacity="0" result="BackgroundImageFix"/>
      <feColorMatrix in="SourceAlpha" values="0 0 0 0 0 0 0 0 0 0 0 0 0 0 0 0 0 0 127 0"/>
      <feOffset dy="2"/>
      <feGaussianBlur stdDeviation="1"/>
      <feColorMatrix values="0 0 0 0 0 0 0 0 0 0 0 0 0 0 0 0 0 0 0.24 0"/>
      <feBlend in2="BackgroundImageFix" result="effect1_dropShadow"/>
      <feColorMatrix in="SourceAlpha" values="0 0 0 0 0 0 0 0 0 0 0 0 0 0 0 0 0 0 127 0"/>
      <feOffset/>
      <feGaussianBlur stdDeviation="1"/>
      <feColorMatrix values="0 0 0 0 0 0 0 0 0 0 0 0 0 0 0 0 0 0 0.12 0"/>
      <feBlend in2="effect1_dropShadow" result="effect2_dropShadow"/>
      <feBlend in="SourceGraphic" in2="effect2_dropShadow" result="shape"/>
    </filter>
    <radialGradient id="paint0_radial" cx="0" cy="0" r="1" gradientTransform="rotate(-45.016 206.32664302 -171.8481372) scale(70.7828)" gradientUnits="userSpaceOnUse">
      <stop stop-color="#B833E1"/>
      <stop offset=".371" stop-color="#9059FF"/>
      <stop offset=".614" stop-color="#5B6DF8"/>
      <stop offset="1" stop-color="#0090ED"/>
    </radialGradient>
    <clipPath id="clip0">
      <path fill="#fff" d="M0 0h314v226H0z"/>
    </clipPath>
  </defs>
</svg>
