<?xml version="1.0" encoding="utf-8"?>
<svg width="24px" height="24px" viewBox="0 0 24 24" xmlns="http://www.w3.org/2000/svg">
  <defs/>
  <g stroke="none" stroke-width="1" fill="none" fill-rule="evenodd">
    <g transform="translate(2.000000, 2.000000)">
      <circle stroke-width="2" stroke-linecap="round" stroke-linejoin="round" cx="10" cy="10" r="10" style="stroke: rgb(0, 96, 223);"/>
    </g>
  </g>
  <path d="M 7.41 8.888 C 7.41 8.307 7.597 7.718 7.97 7.121 C 8.343 6.524 8.888 6.03 9.604 5.639 C 10.32 5.247 11.155 5.051 12.11 5.051 C 12.997 5.051 13.781 5.215 14.46 5.542 C 15.139 5.869 15.664 6.315 16.034 6.878 C 16.405 7.441 16.59 8.053 16.59 8.714 C 16.59 9.234 16.484 9.69 16.273 10.082 C 16.062 10.473 15.811 10.811 15.52 11.096 C 15.229 11.381 14.708 11.86 13.955 12.533 C 13.747 12.722 13.58 12.889 13.455 13.033 C 13.33 13.177 13.236 13.309 13.175 13.428 C 13.114 13.547 13.066 13.667 13.033 13.786 C 12.999 13.905 12.948 14.115 12.881 14.414 C 12.765 15.051 12.401 15.369 11.789 15.369 C 11.471 15.369 11.203 15.265 10.986 15.057 C 10.769 14.849 10.66 14.54 10.66 14.13 C 10.66 13.616 10.739 13.171 10.898 12.794 C 11.057 12.418 11.269 12.088 11.532 11.803 C 11.795 11.518 12.15 11.18 12.597 10.788 C 12.988 10.445 13.271 10.187 13.446 10.013 C 13.62 9.838 13.767 9.644 13.886 9.43 C 14.005 9.216 14.065 8.983 14.065 8.732 C 14.065 8.243 13.883 7.83 13.519 7.493 C 13.155 7.156 12.685 6.988 12.11 6.988 C 11.437 6.988 10.941 7.158 10.623 7.497 C 10.305 7.837 10.036 8.337 9.815 8.998 C 9.607 9.69 9.212 10.036 8.631 10.036 C 8.288 10.036 7.999 9.915 7.764 9.673 C 7.528 9.431 7.41 9.169 7.41 8.888 Z M 11.89 18.949 C 11.517 18.949 11.191 18.828 10.912 18.587 C 10.634 18.345 10.495 18.007 10.495 17.572 C 10.495 17.187 10.629 16.862 10.898 16.599 C 11.167 16.336 11.498 16.204 11.89 16.204 C 12.275 16.204 12.6 16.336 12.863 16.599 C 13.126 16.862 13.258 17.187 13.258 17.572 C 13.258 18.001 13.12 18.337 12.845 18.582 C 12.569 18.827 12.251 18.949 11.89 18.949 Z" style="fill: rgb(0, 96, 223);"/>
</svg>
