<?xml version="1.0" encoding="utf-8"?>
<!-- Generator: Adobe Illustrator 26.3.1, SVG Export Plug-In . SVG Version: 6.00 Build 0)  -->
<svg version="1.1" id="Layer_1" xmlns="http://www.w3.org/2000/svg" xmlns:xlink="http://www.w3.org/1999/xlink" x="0px" y="0px"
	 viewBox="0 0 46 39" style="enable-background:new 0 0 46 39;" xml:space="preserve">
<style type="text/css">
	.st0{fill:#22133C;}
</style>
<path class="st0" d="M25.4,22.2h17.8c1.5,0,2.6,1.1,2.6,2.6v11.7c0,1.4-1.2,2.6-2.6,2.6H25.4c-1.5,0-2.6-1.1-2.6-2.6V24.7
	C22.8,23.3,24,22.2,25.4,22.2z"/>
<path class="st0" d="M14.9,39H6.6C2.9,39,0,36.1,0,32.6V6.4C0,2.8,3,0,6.6,0h32.8c3.6,0,6.6,2.9,6.6,6.4v8.2c0,1.4-1.2,2.6-2.6,2.6
	c-1.5,0-2.6-1.1-2.6-2.6V6.4c0-0.7-0.6-1.3-1.3-1.3H6.5c-0.7,0-1.3,0.6-1.3,1.3v26.3c0,0.7,0.6,1.3,1.3,1.3h8.4
	c1.5,0,2.6,1.1,2.6,2.6C17.5,37.9,16.4,39,14.9,39z"/>
<path class="st0" d="M18.8,9.9c-0.9,0-1.6,0.7-1.6,1.5v3l-6.1-5.9C10.6,8,9.6,8,9,8.6c-0.6,0.6-0.6,1.5,0,2.2l6,5.8h-3
	c-0.9,0-1.6,0.7-1.6,1.5c0,0.9,0.7,1.5,1.6,1.5h6.8c0.9,0,1.6-0.6,1.6-1.6v-6.6C20.4,10.6,19.7,9.9,18.8,9.9z"/>
</svg>
