<svg width="240" height="116" fill="none" xmlns="http://www.w3.org/2000/svg"><path d="M71 12h88a5 5 0 0 1 5 5v65H66V17a5 5 0 0 1 5-5ZM169 88H61a5 5 0 0 1-5-5v-1h118v1a5 5 0 0 1-5 5Z" fill="#fff" stroke="#000" stroke-width="2"/><rect x="144" y="20" width="42" height="84" rx="9" fill="#fff" stroke="#000" stroke-width="2"/><path d="M162 25h7" stroke="#000" stroke-width="2" stroke-linecap="round"/><path d="M129.277 73.554c12.303 0 22.277-9.974 22.277-22.277S141.58 29 129.277 29 107 38.974 107 51.277s9.974 22.277 22.277 22.277Z" fill="#FFB4DC" stroke="#000" stroke-width="2" stroke-miterlimit="10"/><path d="M107.251 51h-16.44M85.186 51h-7.954M94.983 62.883H50" stroke="#000" stroke-width="2" stroke-linecap="round" stroke-linejoin="round"/><path d="m38.47 37.082 2.615-2.818a1.25 1.25 0 0 1 1.832 0l2.616 2.818M45.533 13.174l-2.616 2.817a1.25 1.25 0 0 1-1.832 0l-2.616-2.817M42.002 11v28.255M50.587 34.163l-1.131-3.674a1.25 1.25 0 0 1 .916-1.586l3.747-.857M33.415 16.092l1.131 3.674a1.25 1.25 0 0 1-.916 1.586l-3.747.857M29.766 18.064l24.47 14.127M54.119 22.21l-3.748-.858a1.25 1.25 0 0 1-.916-1.586l1.132-3.674M29.882 28.046l3.748.857a1.25 1.25 0 0 1 .916 1.586l-1.132 3.674M29.766 32.191l24.47-14.127M203.575 59v17M211.075 72l-15-9M211.149 63.127 196 71.873" stroke="#fff" stroke-width="1.8" stroke-linecap="round"/><path d="M121.854 44h13.292a2 2 0 0 1 1.998 1.9l.7 14a2 2 0 0 1-1.998 2.1h-14.692a2 2 0 0 1-1.998-2.1l.7-14a2 2 0 0 1 1.998-1.9Z" stroke="#000" stroke-width="2"/><path d="M133 50v-8.5a4.5 4.5 0 0 0-4.5-4.5v0a4.5 4.5 0 0 0-4.5 4.5V50" stroke="#000" stroke-width="2" stroke-linecap="round"/></svg>
