<?xml version="1.0" encoding="utf-8"?>
<!-- Generator: Adobe Illustrator 16.0.0, SVG Export Plug-In . SVG Version: 6.00 Build 0)  -->
<!DOCTYPE svg PUBLIC "-//W3C//DTD SVG 1.1//EN" "http://www.w3.org/Graphics/SVG/1.1/DTD/svg11.dtd">
<svg version="1.1" id="IT_Download_on_the_App_Store"
	 xmlns="http://www.w3.org/2000/svg" xmlns:xlink="http://www.w3.org/1999/xlink" x="0px" y="0px" width="135px" height="40px"
	 viewBox="0 0 135 40" enable-background="new 0 0 135 40" xml:space="preserve">
<g>
	<path fill="#A6A6A6" d="M130.197,40H4.729C2.122,40,0,37.872,0,35.267V4.726C0,2.12,2.122,0,4.729,0h125.468
		C132.803,0,135,2.12,135,4.726v30.541C135,37.872,132.803,40,130.197,40L130.197,40z"/>
	<path d="M134.032,35.268c0,2.116-1.714,3.83-3.834,3.83H4.729c-2.119,0-3.839-1.714-3.839-3.83V4.725
		c0-2.115,1.72-3.835,3.839-3.835h125.468c2.121,0,3.834,1.72,3.834,3.835L134.032,35.268L134.032,35.268z"/>
	<g>
		<g>
			<path fill="#FFFFFF" d="M30.133,19.784c-0.029-3.223,2.639-4.791,2.761-4.864c-1.511-2.203-3.853-2.504-4.676-2.528
				c-1.967-0.207-3.875,1.177-4.877,1.177c-1.022,0-2.565-1.157-4.228-1.123c-2.14,0.033-4.142,1.272-5.24,3.196
				c-2.266,3.923-0.576,9.688,1.595,12.859c1.086,1.553,2.355,3.287,4.016,3.226c1.625-0.067,2.232-1.036,4.193-1.036
				c1.943,0,2.513,1.036,4.207,0.997c1.744-0.028,2.842-1.56,3.89-3.127c1.255-1.78,1.759-3.533,1.779-3.623
				C33.513,24.924,30.167,23.647,30.133,19.784z"/>
			<path fill="#FFFFFF" d="M26.933,10.306c0.874-1.093,1.472-2.58,1.306-4.089c-1.265,0.056-2.847,0.875-3.758,1.944
				c-0.806,0.942-1.526,2.486-1.34,3.938C24.562,12.205,26.021,11.382,26.933,10.306z"/>
		</g>
	</g>
	<g>
		<path fill="#FFFFFF" d="M53.649,31.504h-2.271l-1.244-3.909h-4.324l-1.185,3.909h-2.211l4.284-13.308h2.646L53.649,31.504z
			 M49.759,25.955l-1.125-3.475c-0.119-0.355-0.342-1.191-0.671-2.507h-0.04c-0.131,0.566-0.342,1.402-0.632,2.507l-1.105,3.475
			H49.759z"/>
		<path fill="#FFFFFF" d="M64.666,26.588c0,1.632-0.441,2.922-1.323,3.869c-0.79,0.843-1.771,1.264-2.942,1.264
			c-1.264,0-2.172-0.454-2.725-1.362h-0.04v5.055h-2.132V25.067c0-1.026-0.027-2.079-0.079-3.159h1.875l0.119,1.521h0.04
			c0.711-1.146,1.79-1.718,3.238-1.718c1.132,0,2.077,0.447,2.833,1.342C64.288,23.949,64.666,25.127,64.666,26.588z M62.494,26.666
			c0-0.934-0.21-1.704-0.632-2.31c-0.461-0.632-1.08-0.948-1.856-0.948c-0.526,0-1.004,0.176-1.431,0.523
			c-0.428,0.35-0.708,0.807-0.839,1.373c-0.066,0.264-0.099,0.48-0.099,0.65v1.6c0,0.698,0.214,1.287,0.642,1.768
			s0.984,0.721,1.668,0.721c0.803,0,1.428-0.31,1.875-0.928C62.27,28.496,62.494,27.68,62.494,26.666z"/>
		<path fill="#FFFFFF" d="M75.703,26.588c0,1.632-0.441,2.922-1.324,3.869c-0.789,0.843-1.77,1.264-2.941,1.264
			c-1.264,0-2.172-0.454-2.724-1.362h-0.039v5.055h-2.132V25.067c0-1.026-0.027-2.079-0.079-3.159h1.875l0.119,1.521h0.04
			c0.71-1.146,1.789-1.718,3.238-1.718c1.131,0,2.076,0.447,2.834,1.342C75.324,23.949,75.703,25.127,75.703,26.588z M73.531,26.666
			c0-0.934-0.211-1.704-0.633-2.31c-0.461-0.632-1.078-0.948-1.855-0.948c-0.527,0-1.004,0.176-1.432,0.523
			c-0.428,0.35-0.707,0.807-0.838,1.373c-0.065,0.264-0.099,0.48-0.099,0.65v1.6c0,0.698,0.214,1.287,0.64,1.768
			c0.428,0.48,0.984,0.721,1.67,0.721c0.803,0,1.428-0.31,1.875-0.928C73.307,28.496,73.531,27.68,73.531,26.666z"/>
		<path fill="#FFFFFF" d="M88.043,27.772c0,1.132-0.393,2.053-1.182,2.764c-0.867,0.777-2.074,1.165-3.625,1.165
			c-1.432,0-2.58-0.276-3.449-0.829l0.494-1.777c0.936,0.566,1.963,0.85,3.082,0.85c0.803,0,1.428-0.182,1.877-0.544
			c0.447-0.362,0.67-0.848,0.67-1.454c0-0.54-0.184-0.995-0.553-1.364c-0.367-0.369-0.98-0.712-1.836-1.029
			c-2.33-0.869-3.494-2.142-3.494-3.816c0-1.094,0.408-1.991,1.225-2.689c0.814-0.699,1.9-1.048,3.258-1.048
			c1.211,0,2.217,0.211,3.02,0.632l-0.533,1.738c-0.75-0.408-1.598-0.612-2.547-0.612c-0.75,0-1.336,0.185-1.756,0.553
			c-0.355,0.329-0.533,0.73-0.533,1.205c0,0.526,0.203,0.961,0.611,1.303c0.355,0.316,1,0.658,1.936,1.027
			c1.145,0.461,1.986,1,2.527,1.618C87.773,26.081,88.043,26.852,88.043,27.772z"/>
		<path fill="#FFFFFF" d="M95.092,23.508h-2.35v4.659c0,1.185,0.414,1.777,1.244,1.777c0.381,0,0.697-0.033,0.947-0.099l0.059,1.619
			c-0.42,0.157-0.973,0.236-1.658,0.236c-0.842,0-1.5-0.257-1.975-0.77c-0.473-0.514-0.711-1.376-0.711-2.587v-4.837h-1.4v-1.6h1.4
			v-1.757l2.094-0.632v2.389h2.35V23.508z"/>
		<path fill="#FFFFFF" d="M105.695,26.627c0,1.475-0.422,2.686-1.264,3.633c-0.883,0.975-2.055,1.461-3.516,1.461
			c-1.408,0-2.529-0.467-3.365-1.401s-1.254-2.113-1.254-3.534c0-1.487,0.43-2.705,1.293-3.652c0.861-0.948,2.023-1.422,3.484-1.422
			c1.408,0,2.541,0.467,3.396,1.402C105.287,24.021,105.695,25.192,105.695,26.627z M103.482,26.696
			c0-0.885-0.189-1.644-0.572-2.277c-0.447-0.766-1.086-1.148-1.914-1.148c-0.857,0-1.508,0.383-1.955,1.148
			c-0.383,0.634-0.572,1.405-0.572,2.317c0,0.885,0.189,1.644,0.572,2.276c0.461,0.766,1.105,1.148,1.936,1.148
			c0.814,0,1.453-0.39,1.914-1.168C103.285,28.347,103.482,27.58,103.482,26.696z"/>
		<path fill="#FFFFFF" d="M112.625,23.783c-0.211-0.039-0.436-0.059-0.672-0.059c-0.75,0-1.33,0.283-1.738,0.85
			c-0.355,0.5-0.533,1.132-0.533,1.895v5.035h-2.131l0.02-6.574c0-1.106-0.027-2.113-0.08-3.021h1.857l0.078,1.836h0.059
			c0.225-0.631,0.58-1.139,1.066-1.52c0.475-0.343,0.988-0.514,1.541-0.514c0.197,0,0.375,0.014,0.533,0.039V23.783z"/>
		<path fill="#FFFFFF" d="M122.16,26.252c0,0.382-0.025,0.704-0.078,0.967h-6.396c0.025,0.948,0.334,1.673,0.928,2.173
			c0.539,0.447,1.236,0.671,2.092,0.671c0.947,0,1.811-0.151,2.588-0.454l0.334,1.48c-0.908,0.396-1.98,0.593-3.217,0.593
			c-1.488,0-2.656-0.438-3.506-1.313c-0.848-0.875-1.273-2.05-1.273-3.524c0-1.447,0.395-2.652,1.186-3.613
			c0.828-1.026,1.947-1.539,3.355-1.539c1.383,0,2.43,0.513,3.141,1.539C121.877,24.047,122.16,25.055,122.16,26.252z
			 M120.127,25.699c0.014-0.632-0.125-1.178-0.414-1.639c-0.369-0.593-0.936-0.889-1.699-0.889c-0.697,0-1.264,0.289-1.697,0.869
			c-0.355,0.461-0.566,1.014-0.631,1.658H120.127z"/>
	</g>
	<g>
		<g>
			<path fill="#FFFFFF" d="M47.424,11.6c0,0.557-0.193,1.009-0.58,1.358c-0.426,0.381-1.02,0.572-1.781,0.572
				c-0.703,0-1.269-0.136-1.694-0.408l0.242-0.873c0.46,0.278,0.964,0.417,1.515,0.417c0.395,0,0.701-0.089,0.922-0.268
				c0.22-0.178,0.329-0.416,0.329-0.714c0-0.266-0.09-0.489-0.271-0.67c-0.181-0.181-0.481-0.35-0.901-0.505
				c-1.145-0.427-1.717-1.052-1.717-1.875c0-0.538,0.2-0.978,0.601-1.321c0.401-0.343,0.935-0.515,1.601-0.515
				c0.595,0,1.09,0.104,1.484,0.311l-0.262,0.854c-0.369-0.201-0.786-0.301-1.252-0.301c-0.368,0-0.656,0.091-0.863,0.271
				c-0.174,0.162-0.262,0.359-0.262,0.592c0,0.259,0.101,0.472,0.301,0.64c0.175,0.155,0.491,0.324,0.951,0.504
				c0.562,0.227,0.976,0.492,1.241,0.795C47.292,10.769,47.424,11.147,47.424,11.6z"/>
			<path fill="#FFFFFF" d="M52.39,8.845l-0.203,0.795c-0.266-0.129-0.569-0.194-0.912-0.194c-0.459,0-0.823,0.154-1.092,0.461
				c-0.268,0.307-0.402,0.697-0.402,1.169c0,0.498,0.141,0.892,0.422,1.183s0.639,0.437,1.072,0.437c0.323,0,0.64-0.064,0.95-0.194
				l0.146,0.786c-0.343,0.162-0.775,0.243-1.3,0.243c-0.718,0-1.29-0.218-1.717-0.655s-0.64-1.02-0.64-1.751
				c0-0.73,0.229-1.331,0.688-1.799s1.076-0.703,1.853-0.703C51.695,8.622,52.074,8.696,52.39,8.845z"/>
			<path fill="#FFFFFF" d="M57.356,13.433h-0.941l-0.077-0.543h-0.029c-0.323,0.433-0.782,0.65-1.377,0.65
				c-0.446,0-0.806-0.143-1.077-0.427c-0.246-0.258-0.368-0.579-0.368-0.96c0-0.576,0.24-1.015,0.723-1.319
				c0.481-0.304,1.159-0.453,2.032-0.446V10.3c0-0.621-0.326-0.931-0.978-0.931c-0.465,0-0.875,0.117-1.229,0.349l-0.213-0.688
				c0.438-0.271,0.979-0.407,1.617-0.407c1.233,0,1.85,0.65,1.85,1.95v1.736C57.288,12.78,57.311,13.155,57.356,13.433z
				 M56.269,11.813v-0.727c-1.157-0.02-1.735,0.297-1.735,0.95c0,0.246,0.067,0.43,0.202,0.553c0.135,0.123,0.306,0.184,0.511,0.184
				c0.231,0,0.445-0.073,0.642-0.218s0.317-0.331,0.362-0.558C56.263,11.946,56.269,11.884,56.269,11.813z"/>
			<path fill="#FFFFFF" d="M61.615,9.641c-0.104-0.02-0.213-0.029-0.33-0.029c-0.368,0-0.652,0.139-0.854,0.417
				c-0.174,0.246-0.262,0.556-0.262,0.931v2.474h-1.048l0.01-3.23c0-0.543-0.013-1.038-0.038-1.484h0.911l0.039,0.902h0.029
				c0.109-0.311,0.284-0.56,0.523-0.747c0.233-0.168,0.485-0.252,0.757-0.252c0.097,0,0.185,0.006,0.262,0.019V9.641z"/>
			<path fill="#FFFFFF" d="M64.117,7.312c0,0.188-0.062,0.339-0.184,0.456c-0.123,0.117-0.281,0.175-0.476,0.175
				c-0.175,0-0.322-0.06-0.441-0.179c-0.12-0.12-0.18-0.27-0.18-0.451s0.062-0.33,0.185-0.446s0.274-0.175,0.456-0.175
				c0.181,0,0.333,0.059,0.456,0.175C64.055,6.982,64.117,7.131,64.117,7.312z M64,13.433h-1.048V8.719H64V13.433z"/>
			<path fill="#FFFFFF" d="M69.229,8.845l-0.203,0.795c-0.266-0.129-0.57-0.194-0.913-0.194c-0.459,0-0.823,0.154-1.092,0.461
				c-0.268,0.307-0.402,0.697-0.402,1.169c0,0.498,0.141,0.892,0.422,1.183s0.639,0.437,1.072,0.437c0.323,0,0.64-0.064,0.95-0.194
				l0.146,0.786c-0.343,0.162-0.776,0.243-1.3,0.243c-0.718,0-1.29-0.218-1.717-0.655s-0.64-1.02-0.64-1.751
				c0-0.73,0.229-1.331,0.688-1.799s1.076-0.703,1.853-0.703C68.533,8.622,68.912,8.696,69.229,8.845z"/>
			<path fill="#FFFFFF" d="M74.193,13.433h-0.941l-0.076-0.543h-0.029c-0.324,0.433-0.783,0.65-1.377,0.65
				c-0.447,0-0.807-0.143-1.078-0.427c-0.246-0.258-0.367-0.579-0.367-0.96c0-0.576,0.24-1.015,0.723-1.319
				c0.48-0.304,1.158-0.453,2.031-0.446V10.3c0-0.621-0.326-0.931-0.977-0.931c-0.465,0-0.875,0.117-1.23,0.349l-0.213-0.688
				c0.439-0.271,0.979-0.407,1.617-0.407c1.234,0,1.85,0.65,1.85,1.95v1.736C74.125,12.78,74.148,13.155,74.193,13.433z
				 M73.107,11.813v-0.727c-1.158-0.02-1.736,0.297-1.736,0.95c0,0.246,0.068,0.43,0.203,0.553c0.135,0.123,0.305,0.184,0.51,0.184
				c0.232,0,0.445-0.073,0.643-0.218c0.195-0.146,0.316-0.331,0.361-0.558C73.102,11.946,73.107,11.884,73.107,11.813z"/>
			<path fill="#FFFFFF" d="M81.672,12.079c0,0.438-0.16,0.79-0.484,1.055c-0.322,0.265-0.77,0.397-1.338,0.397
				c-0.537,0-0.992-0.107-1.367-0.32l0.223-0.776c0.361,0.22,0.746,0.33,1.154,0.33c0.537,0,0.805-0.197,0.805-0.592
				c0-0.174-0.059-0.318-0.174-0.432c-0.117-0.113-0.324-0.225-0.621-0.334c-0.842-0.311-1.262-0.763-1.262-1.358
				c0-0.407,0.156-0.747,0.465-1.019c0.311-0.271,0.723-0.407,1.232-0.407c0.467,0,0.863,0.095,1.193,0.285L81.275,9.66
				c-0.305-0.181-0.625-0.271-0.961-0.271c-0.219,0-0.391,0.052-0.514,0.155c-0.123,0.104-0.184,0.235-0.184,0.397
				c0,0.161,0.064,0.293,0.193,0.396c0.109,0.097,0.322,0.203,0.641,0.319C81.266,10.966,81.672,11.44,81.672,12.079z"/>
			<path fill="#FFFFFF" d="M87.309,13.433h-0.922l-0.059-0.718h-0.02c-0.33,0.55-0.828,0.825-1.494,0.825
				c-0.465,0-0.836-0.146-1.115-0.437c-0.33-0.356-0.494-0.893-0.494-1.61V8.719h1.047v2.6c0,0.906,0.311,1.358,0.932,1.358
				c0.467,0,0.789-0.226,0.971-0.679c0.045-0.116,0.068-0.249,0.068-0.398V8.719h1.047v3.356
				C87.27,12.521,87.283,12.974,87.309,13.433z"/>
		</g>
	</g>
</g>
</svg>
