<?xml version="1.0" encoding="utf-8"?>
<!-- Generator: Adobe Illustrator 16.0.0, SVG Export Plug-In . SVG Version: 6.00 Build 0)  -->
<!DOCTYPE svg PUBLIC "-//W3C//DTD SVG 1.1//EN" "http://www.w3.org/Graphics/SVG/1.1/DTD/svg11.dtd">
<svg version="1.1" id="AZ_Download_on_the_App_Store"
	 xmlns="http://www.w3.org/2000/svg" xmlns:xlink="http://www.w3.org/1999/xlink" x="0px" y="0px" width="135px" height="40px"
	 viewBox="0 0 135 40" enable-background="new 0 0 135 40" xml:space="preserve">
<g>
	<path fill="#A6A6A6" d="M130.197,39.989H4.729C2.122,39.989,0,37.872,0,35.267V4.726C0,2.12,2.122,0,4.729,0h125.468
		c2.605,0,4.73,2.12,4.73,4.726v30.541C134.928,37.872,132.803,39.989,130.197,39.989L130.197,39.989z"/>
	<path d="M134.032,35.268c0,2.116-1.714,3.83-3.834,3.83H4.729c-2.119,0-3.839-1.714-3.839-3.83V4.725
		c0-2.115,1.72-3.835,3.839-3.835h125.468c2.121,0,3.834,1.72,3.834,3.835L134.032,35.268L134.032,35.268z"/>
	<g>
		<g>
			<path fill="#FFFFFF" d="M30.128,19.784c-0.029-3.223,2.639-4.791,2.761-4.864c-1.511-2.203-3.853-2.504-4.676-2.528
				c-1.967-0.207-3.875,1.177-4.877,1.177c-1.022,0-2.565-1.157-4.228-1.123c-2.14,0.033-4.142,1.272-5.24,3.196
				c-2.266,3.923-0.576,9.688,1.595,12.859c1.086,1.553,2.355,3.287,4.016,3.226c1.625-0.067,2.232-1.036,4.193-1.036
				c1.943,0,2.513,1.036,4.207,0.997c1.744-0.028,2.842-1.56,3.89-3.127c1.255-1.78,1.759-3.533,1.779-3.623
				C33.507,24.924,30.161,23.647,30.128,19.784z"/>
			<path fill="#FFFFFF" d="M26.928,10.306c0.874-1.093,1.472-2.58,1.306-4.089c-1.265,0.056-2.847,0.875-3.758,1.944
				c-0.806,0.942-1.526,2.486-1.34,3.938C24.557,12.205,26.016,11.382,26.928,10.306z"/>
		</g>
	</g>
	<g>
		<path fill="#FFFFFF" d="M50.729,17.8h-1.553l-0.85-2.673h-2.957l-0.81,2.673h-1.512l2.93-9.099h1.809L50.729,17.8z M48.069,14.007
			l-0.77-2.376c-0.081-0.243-0.234-0.814-0.459-1.714h-0.027c-0.09,0.387-0.234,0.958-0.432,1.714l-0.756,2.376H48.069z"/>
		<path fill="#FFFFFF" d="M58.126,14.439c0,1.116-0.302,1.998-0.905,2.646c-0.54,0.576-1.21,0.864-2.011,0.864
			c-0.864,0-1.485-0.311-1.863-0.932H53.32v3.456h-1.458v-7.074c0-0.702-0.018-1.422-0.054-2.16h1.283l0.081,1.04h0.027
			c0.486-0.783,1.224-1.174,2.214-1.174c0.774,0,1.42,0.306,1.938,0.918C57.868,12.634,58.126,13.44,58.126,14.439z M56.641,14.493
			c0-0.639-0.144-1.166-0.432-1.58c-0.315-0.432-0.738-0.648-1.269-0.648c-0.36,0-0.687,0.12-0.979,0.358
			c-0.292,0.239-0.484,0.551-0.574,0.938c-0.045,0.18-0.067,0.329-0.067,0.445V15.1c0,0.478,0.146,0.88,0.439,1.208
			c0.292,0.329,0.672,0.493,1.141,0.493c0.549,0,0.977-0.211,1.282-0.634C56.488,15.744,56.641,15.186,56.641,14.493z"/>
		<path fill="#FFFFFF" d="M65.74,14.439c0,1.116-0.302,1.998-0.905,2.646c-0.54,0.576-1.21,0.864-2.011,0.864
			c-0.864,0-1.485-0.311-1.863-0.932h-0.027v3.456h-1.458v-7.074c0-0.702-0.018-1.422-0.054-2.16h1.283l0.081,1.04h0.027
			c0.486-0.783,1.224-1.174,2.214-1.174c0.774,0,1.42,0.306,1.938,0.918C65.481,12.634,65.74,13.44,65.74,14.439z M64.255,14.493
			c0-0.639-0.144-1.166-0.432-1.58c-0.315-0.432-0.738-0.648-1.269-0.648c-0.36,0-0.687,0.12-0.979,0.358
			c-0.292,0.239-0.484,0.551-0.574,0.938c-0.045,0.18-0.067,0.329-0.067,0.445V15.1c0,0.478,0.146,0.88,0.439,1.208
			c0.292,0.329,0.672,0.493,1.141,0.493c0.549,0,0.977-0.211,1.282-0.634C64.102,15.744,64.255,15.186,64.255,14.493z"/>
		<path fill="#FFFFFF" d="M75.595,15.249c0,0.774-0.269,1.404-0.808,1.89c-0.593,0.531-1.419,0.796-2.479,0.796
			c-0.979,0-1.766-0.189-2.358-0.567l0.338-1.215c0.64,0.387,1.341,0.581,2.106,0.581c0.55,0,0.978-0.124,1.283-0.372
			c0.307-0.248,0.459-0.579,0.459-0.994c0-0.37-0.126-0.681-0.378-0.933s-0.67-0.487-1.255-0.703c-1.594-0.595-2.39-1.465-2.39-2.61
			c0-0.748,0.278-1.361,0.837-1.839c0.559-0.478,1.301-0.717,2.228-0.717c0.828,0,1.517,0.144,2.065,0.432l-0.364,1.188
			c-0.514-0.279-1.094-0.419-1.742-0.419c-0.513,0-0.913,0.126-1.201,0.378c-0.243,0.225-0.364,0.5-0.364,0.823
			c0,0.36,0.139,0.657,0.418,0.891c0.243,0.216,0.685,0.45,1.323,0.702c0.783,0.315,1.359,0.684,1.729,1.107
			C75.41,14.092,75.595,14.619,75.595,15.249z"/>
		<path fill="#FFFFFF" d="M80.32,12.333h-1.606v3.186c0,0.81,0.283,1.215,0.851,1.215c0.261,0,0.477-0.022,0.647-0.067l0.041,1.107
			c-0.288,0.108-0.666,0.162-1.134,0.162c-0.576,0-1.026-0.175-1.351-0.526s-0.485-0.94-0.485-1.769v-3.307h-0.959v-1.094h0.959
			v-1.202l1.431-0.432v1.633h1.606V12.333z"/>
		<path fill="#FFFFFF" d="M87.502,14.466c0,1.008-0.288,1.836-0.864,2.484c-0.603,0.666-1.404,0.999-2.403,0.999
			c-0.963,0-1.729-0.319-2.302-0.958c-0.571-0.639-0.856-1.444-0.856-2.417c0-1.017,0.294-1.85,0.884-2.498s1.384-0.972,2.383-0.972
			c0.963,0,1.737,0.319,2.322,0.958C87.223,12.684,87.502,13.485,87.502,14.466z M85.99,14.513c0-0.605-0.131-1.124-0.392-1.557
			c-0.307-0.523-0.743-0.785-1.31-0.785c-0.585,0-1.031,0.262-1.337,0.785c-0.261,0.433-0.392,0.961-0.392,1.584
			c0,0.605,0.131,1.124,0.392,1.557c0.315,0.523,0.756,0.785,1.323,0.785c0.558,0,0.994-0.266,1.31-0.799
			C85.854,15.641,85.99,15.118,85.99,14.513z"/>
		<path fill="#FFFFFF" d="M92.362,12.522c-0.145-0.027-0.297-0.041-0.459-0.041c-0.514,0-0.909,0.193-1.188,0.581
			c-0.243,0.342-0.364,0.774-0.364,1.296V17.8h-1.458l0.014-4.496c0-0.756-0.019-1.444-0.054-2.065h1.269l0.054,1.255h0.041
			c0.152-0.432,0.396-0.778,0.729-1.04c0.324-0.234,0.675-0.351,1.054-0.351c0.135,0,0.256,0.009,0.364,0.027V12.522z"/>
		<path fill="#FFFFFF" d="M98.788,14.209c0,0.261-0.019,0.481-0.055,0.661h-4.374c0.019,0.648,0.229,1.143,0.635,1.485
			c0.369,0.306,0.846,0.459,1.431,0.459c0.648,0,1.237-0.104,1.769-0.311l0.229,1.012c-0.621,0.27-1.354,0.405-2.2,0.405
			c-1.017,0-1.815-0.299-2.396-0.898c-0.58-0.598-0.87-1.401-0.87-2.41c0-0.99,0.27-1.813,0.81-2.471
			c0.567-0.702,1.332-1.053,2.295-1.053c0.945,0,1.661,0.351,2.146,1.053C98.594,12.702,98.788,13.391,98.788,14.209z
			 M97.397,13.831c0.009-0.432-0.086-0.805-0.284-1.12c-0.252-0.405-0.639-0.607-1.16-0.607c-0.478,0-0.864,0.198-1.161,0.594
			c-0.243,0.315-0.388,0.693-0.433,1.134H97.397z"/>
		<path fill="#FFFFFF" d="M103,14.695h-3.361v-1.026H103V14.695z"/>
		<path fill="#FFFFFF" d="M110.397,17.8h-1.296l-0.067-1.053h-0.041c-0.414,0.801-1.116,1.202-2.105,1.202
			c-0.792,0-1.449-0.311-1.972-0.932c-0.521-0.621-0.782-1.426-0.782-2.417c0-1.062,0.283-1.921,0.851-2.578
			c0.549-0.612,1.224-0.918,2.024-0.918c0.882,0,1.499,0.297,1.85,0.891h0.027V8.229h1.458v7.803
			C110.344,16.671,110.361,17.26,110.397,17.8z M108.886,15.033v-1.093c0-0.189-0.014-0.342-0.041-0.459
			c-0.081-0.351-0.258-0.646-0.528-0.884c-0.271-0.238-0.597-0.358-0.977-0.358c-0.542,0-0.969,0.216-1.28,0.648
			c-0.312,0.432-0.468,0.985-0.468,1.661c0,0.648,0.148,1.174,0.447,1.58c0.316,0.432,0.74,0.648,1.273,0.648
			c0.479,0,0.863-0.18,1.152-0.54C108.745,15.901,108.886,15.501,108.886,15.033z"/>
		<path fill="#FFFFFF" d="M117.337,17.8h-1.31l-0.108-0.756h-0.04c-0.45,0.603-1.089,0.904-1.917,0.904
			c-0.621,0-1.12-0.198-1.498-0.594c-0.343-0.36-0.514-0.806-0.514-1.337c0-0.801,0.335-1.413,1.006-1.836
			c0.671-0.423,1.613-0.63,2.828-0.621V13.44c0-0.864-0.453-1.296-1.36-1.296c-0.646,0-1.217,0.162-1.711,0.486l-0.297-0.958
			c0.611-0.378,1.362-0.567,2.252-0.567c1.716,0,2.574,0.904,2.574,2.713v2.417C117.242,16.892,117.273,17.414,117.337,17.8z
			 M115.825,15.546v-1.013c-1.611-0.027-2.417,0.414-2.417,1.323c0,0.342,0.094,0.599,0.282,0.77
			c0.188,0.171,0.425,0.256,0.711,0.256c0.322,0,0.62-0.101,0.893-0.304c0.273-0.203,0.441-0.461,0.504-0.776
			C115.815,15.73,115.825,15.645,115.825,15.546z"/>
		<path fill="#FFFFFF" d="M124.978,17.8h-1.458v-3.757c0-1.158-0.441-1.737-1.323-1.737c-0.432,0-0.783,0.16-1.053,0.479
			c-0.271,0.318-0.405,0.693-0.405,1.124V17.8h-1.458v-4.685c0-0.576-0.019-1.202-0.054-1.876h1.282l0.067,1.025h0.041
			c0.171-0.318,0.423-0.583,0.756-0.792c0.396-0.246,0.837-0.369,1.323-0.369c0.611,0,1.12,0.198,1.525,0.594
			c0.504,0.486,0.756,1.21,0.756,2.173V17.8z"/>
	</g>
	<g>
		<path fill="#FFFFFF" d="M48.598,24.924l-1.476,4.043c-0.704,1.912-1.364,3.145-1.98,3.697c-0.456,0.408-0.932,0.65-1.428,0.73
			l-0.312-1.092c0.296-0.088,0.588-0.24,0.876-0.455c0.344-0.264,0.616-0.604,0.816-1.02c0.064-0.121,0.096-0.209,0.096-0.266
			c0-0.055-0.024-0.146-0.072-0.275l-2.112-5.363h1.428l1.104,3.252c0.104,0.295,0.22,0.68,0.348,1.152h0.024
			c0.072-0.256,0.18-0.645,0.324-1.164l0.984-3.24H48.598z"/>
		<path fill="#FFFFFF" d="M54.69,29.004c0,0.695,0.024,1.271,0.048,1.752h-1.295l-0.072-0.889h-0.024
			c-0.251,0.42-0.827,1.02-1.871,1.02c-1.067,0-2.039-0.635-2.039-2.543v-3.43h1.475v3.18c0,0.971,0.312,1.594,1.091,1.594
			c0.588,0,0.972-0.42,1.127-0.791c0.048-0.133,0.084-0.287,0.084-0.455v-3.527h1.475V29.004z M50.181,23.271
			c0-0.42,0.324-0.744,0.755-0.744c0.396,0,0.708,0.312,0.708,0.744c0,0.396-0.3,0.732-0.72,0.732
			C50.493,24.004,50.181,23.668,50.181,23.271z M52.58,23.271c0-0.42,0.312-0.744,0.732-0.744c0.419,0,0.719,0.312,0.719,0.744
			c0,0.396-0.3,0.732-0.719,0.732C52.879,24.004,52.58,23.668,52.58,23.271z"/>
		<path fill="#FFFFFF" d="M61.45,30.756h-1.584l-1.764-2.664l-0.492,0.6v2.064h-1.296v-8.508h1.296v5.279h0.024
			c0.16-0.256,0.316-0.48,0.468-0.672l1.5-1.932h1.548l-2.148,2.4L61.45,30.756z"/>
		<path fill="#FFFFFF" d="M63.43,30.756h-1.296v-8.508h1.296V30.756z"/>
		<path fill="#FFFFFF" d="M64.953,25.189c0.516-0.227,1.211-0.406,2.063-0.406c1.871,0,2.986,1.174,2.986,2.975
			c0,1.594-0.971,3.117-2.842,3.117c-1.907,0-2.531-1.547-2.531-2.83c0-0.264,0.024-0.492,0.048-0.611h3.911
			c-0.037-1.068-0.768-1.535-1.776-1.535c-0.66,0-1.139,0.119-1.643,0.299L64.953,25.189z M66.021,28.465
			c-0.012,0.527,0.252,1.402,1.235,1.402c0.924,0,1.271-0.814,1.332-1.402H66.021z"/>
		<path fill="#FFFFFF" d="M76.126,24.924l-1.477,4.043c-0.704,1.912-1.364,3.145-1.979,3.697c-0.457,0.408-0.933,0.65-1.428,0.73
			l-0.312-1.092c0.296-0.088,0.588-0.24,0.876-0.455c0.344-0.264,0.616-0.604,0.815-1.02c0.064-0.121,0.097-0.209,0.097-0.266
			c0-0.055-0.024-0.146-0.072-0.275l-2.112-5.363h1.428l1.104,3.252c0.104,0.295,0.22,0.68,0.348,1.152h0.024
			c0.072-0.256,0.18-0.645,0.324-1.164l0.983-3.24H76.126z"/>
		<path fill="#FFFFFF" d="M78.453,23.184c0,0.232-0.076,0.42-0.228,0.564c-0.152,0.143-0.349,0.215-0.588,0.215
			c-0.217,0-0.398-0.074-0.547-0.221c-0.147-0.148-0.222-0.334-0.222-0.559s0.076-0.408,0.229-0.553
			c0.151-0.143,0.34-0.215,0.563-0.215s0.412,0.072,0.564,0.215C78.377,22.775,78.453,22.959,78.453,23.184z M78.31,30.756h-1.296
			v-5.832h1.296V30.756z"/>
		<path fill="#FFFFFF" d="M85.005,30.756h-1.296v-3.34c0-1.029-0.392-1.545-1.176-1.545c-0.384,0-0.696,0.143-0.937,0.426
			c-0.239,0.283-0.359,0.615-0.359,0.998v3.461h-1.296v-4.164c0-0.512-0.017-1.068-0.049-1.668h1.141l0.06,0.912h0.036
			c0.152-0.283,0.376-0.52,0.672-0.705c0.353-0.219,0.744-0.328,1.176-0.328c0.544,0,0.996,0.176,1.356,0.529
			c0.448,0.432,0.672,1.076,0.672,1.932V30.756z"/>
	</g>
</g>
</svg>
