<svg width="549" height="330" xmlns="http://www.w3.org/2000/svg" xmlns:xlink="http://www.w3.org/1999/xlink"><defs><filter x="-3.8%" y="-5.2%" width="107.6%" height="113.1%" filterUnits="objectBoundingBox" id="a"><feOffset dy="4" in="SourceAlpha" result="shadowOffsetOuter1"/><feGaussianBlur stdDeviation="6" in="shadowOffsetOuter1" result="shadowBlurOuter1"/><feColorMatrix values="0 0 0 0 0.125490196 0 0 0 0 0.0705882353 0 0 0 0 0.22745098 0 0 0 0.24 0" in="shadowBlurOuter1"/></filter><rect id="b" x="0" y="0" width="525" height="305.93" rx="3.118"/></defs><g fill="none" fill-rule="evenodd"><g transform="translate(12 8)"><use fill="#000" filter="url(#a)" xlink:href="#b"/><use fill="#FFF" xlink:href="#b"/></g><path d="M198.36 58.756c-.552 6.1-1.587 9.235-4.261 12.899a13.47 13.47 0 01-8.225 5.17 13.478 13.478 0 01-8.223-5.17c-2.68-3.664-3.71-6.799-4.26-12.9-.21-2.298-.21-7.863-.21-10.148a.994.994 0 01.795-.996l11.898-2.055 11.897 2.06c.47.092.807.513.794.997.001 2.28.001 7.843-.207 10.143h.001z" fill="#FFF"/><path d="M201.387 48.6c.01-1.867-1.317-3.467-3.14-3.788l-12.373-2.145-12.372 2.143c-1.822.322-3.15 1.922-3.141 3.788-.008 2.89.01 8.084.219 10.415.599 6.617 1.808 10.233 4.795 14.33a16.055 16.055 0 0010.337 6.335l.158.017.158-.017a16.055 16.055 0 0010.337-6.335c2.99-4.097 4.198-7.713 4.795-14.33.216-2.33.234-7.525.227-10.413zm-3.028 10.156c-.551 6.1-1.586 9.235-4.26 12.899a13.47 13.47 0 01-8.225 5.17 13.478 13.478 0 01-8.223-5.17c-2.68-3.664-3.71-6.799-4.26-12.9-.21-2.298-.21-7.863-.21-10.148a.994.994 0 01.795-.996l11.898-2.055 11.897 2.06c.47.092.807.513.794.997.001 2.28.001 7.843-.207 10.143h.001z" fill="#592ACB" fill-rule="nonzero"/><path d="M177.588 58.12c.698 7.385 2.006 9.573 4.078 12.288a9.69 9.69 0 004.708 3.282V49.673l-9.008 1.491c.031 3.278.11 5.762.222 6.956z" fill="#592ACB" fill-rule="nonzero"/><text font-family="Inter-Medium, Inter" font-size="13.098" font-weight="400" fill="#20123A" transform="translate(170.36 42.667)"><tspan x="43.373" y="23.229"> 3189+ Tracker blockiert</tspan></text><text font-family="Inter-Regular, Inter" font-size="13.098" fill="#20123A" transform="translate(47.36 131.493)"><tspan x="8.324" y="143.44">Mo</tspan></text><path d="M54.864 223.077h19.258v28.08a1.871 1.871 0 01-1.871 1.87H56.735a1.871 1.871 0 01-1.87-1.87v-28.08z" fill="#338FF8"/><path fill="#4BC3A1" d="M54.864 134.292h19.258v88.784H54.864z"/><path d="M56.735 132.153h15.516c1.033 0 1.871.838 1.871 1.871v.269H54.864v-.269c0-1.033.838-1.87 1.871-1.87z" fill="#F9BD3F"/><text font-family="Inter-Regular, Inter" font-size="13.098" fill="#20123A" transform="translate(117.971 189.534)"><tspan x="9.664" y="85.399">Di</tspan></text><path d="M124 229.534h20v21.662a1.871 1.871 0 01-1.871 1.872H125.87a1.871 1.871 0 01-1.871-1.872v-21.662z" fill="#338FF8"/><path d="M125.871 189.534h16.258c1.033 0 1.871.838 1.871 1.872v38.777h-20v-38.777c0-1.034.838-1.872 1.871-1.872z" fill="#4BC3A1"/><text font-family="Inter-Regular, Inter" font-size="13.098" fill="#20123A" transform="translate(47.36 42.667)"><tspan x="149.088" y="232.266">Mi</tspan></text><g><path d="M194 213.47h20v37.707a1.871 1.871 0 01-1.871 1.871H195.87a1.871 1.871 0 01-1.871-1.871V213.47z" fill="#338FF8"/><path fill="#4BC3A1" d="M194 105.47h20v108.038h-20z"/><path d="M195.871 101.47h16.258c1.033 0 1.871.837 1.871 1.87v2.408h-20v-2.407c0-1.034.838-1.871 1.871-1.871z" fill="#F9BD3F"/></g><g><text font-family="Inter-Regular, Inter" font-size="13.098" fill="#20123A" transform="translate(257.792 142)"><tspan x="7.174" y="132.645">Do</tspan></text><path d="M264 241h20v9.895a1.871 1.871 0 01-1.871 1.872H265.87a1.871 1.871 0 01-1.871-1.872V241z" fill="#338FF8"/><path fill="#4BC3A1" d="M264 153h20v89.066h-20z"/><path d="M265.871 142h16.258c1.033 0 1.871.838 1.871 1.871v9.137h-20v-9.137c0-1.033.838-1.871 1.871-1.871z" fill="#F9BD3F"/></g><g><text font-family="Inter-Regular, Inter" font-size="13.098" fill="#20123A" transform="translate(333.877 100.47)"><tspan x="3.863" y="174.464">Fr</tspan></text><path d="M334 213.38h20v37.707a1.871 1.871 0 01-1.871 1.871H335.87a1.871 1.871 0 01-1.871-1.87V213.38z" fill="#338FF8"/><path fill="#4BC3A1" d="M334 105.342h20V213.38h-20z"/><path d="M335.871 101.063h16.258c1.033 0 1.871.837 1.871 1.87v2.408h-20v-2.407c0-1.034.838-1.871 1.871-1.871z" fill="#F9BD3F"/></g><g><text font-family="Inter-Regular, Inter" font-size="13.098" fill="#20123A" transform="translate(399 156.51)"><tspan x="6.984" y="118.423">Sa</tspan></text><path d="M404 229.425h20v21.662a1.871 1.871 0 01-1.871 1.871H405.87a1.871 1.871 0 01-1.871-1.87v-21.663z" fill="#338FF8"/><path fill="#4BC3A1" d="M404 163.105h20v66.32h-20z"/><path d="M405.871 156.686h16.258c1.033 0 1.871.838 1.871 1.872v5.616h-20v-5.616c0-1.034.838-1.872 1.871-1.872z" fill="#F9BD3F"/></g><g><text font-family="Inter-Regular, Inter" font-size="13.098" fill="#20123A" transform="translate(469 200.51)"><tspan x="6.77" y="74.423">So</tspan></text><path d="M474 241.425h20v10.129a1.871 1.871 0 01-1.871 1.871H475.87a1.871 1.871 0 01-1.871-1.871v-10.129z" fill="#338FF8"/><path fill="#4BC3A1" d="M474 203.105h20v39h-20z"/><path d="M475.871 200.686h16.258c1.033 0 1.871.838 1.871 1.872v1.128h-20v-1.128c0-1.034.838-1.872 1.871-1.872z" fill="#F9BD3F"/></g></g></svg>
