<?xml version="1.0" encoding="utf-8"?>
<!-- Generator: Adobe Illustrator 16.0.0, SVG Export Plug-In . SVG Version: 6.00 Build 0)  -->
<!DOCTYPE svg PUBLIC "-//W3C//DTD SVG 1.1//EN" "http://www.w3.org/Graphics/SVG/1.1/DTD/svg11.dtd">
<svg version="1.1" id="JP_Download_on_the_App_Store"
	 xmlns="http://www.w3.org/2000/svg" xmlns:xlink="http://www.w3.org/1999/xlink" x="0px" y="0px" width="135px" height="40px"
	 viewBox="0 0 135 40" enable-background="new 0 0 135 40" xml:space="preserve">
<g>
	<path fill="#A6A6A6" d="M130.197,40H4.729C2.122,40,0,37.872,0,35.268V4.726C0,2.12,2.122,0,4.729,0h125.468
		C132.803,0,135,2.12,135,4.726v30.542C135,37.872,132.803,40,130.197,40L130.197,40z"/>
	<path d="M134.032,35.268c0,2.116-1.714,3.83-3.834,3.83H4.729c-2.119,0-3.839-1.714-3.839-3.83V4.725
		c0-2.115,1.72-3.835,3.839-3.835h125.468c2.121,0,3.834,1.72,3.834,3.835L134.032,35.268L134.032,35.268z"/>
	<g>
		<g>
			<g>
				<path fill="#FFFFFF" d="M30.128,19.784c-0.029-3.223,2.639-4.791,2.761-4.864c-1.511-2.203-3.853-2.504-4.676-2.528
					c-1.967-0.207-3.875,1.177-4.877,1.177c-1.022,0-2.565-1.157-4.228-1.123c-2.14,0.033-4.142,1.272-5.24,3.196
					c-2.266,3.923-0.576,9.688,1.595,12.859c1.086,1.554,2.355,3.287,4.016,3.226c1.625-0.066,2.232-1.035,4.193-1.035
					c1.943,0,2.513,1.035,4.207,0.996c1.744-0.027,2.842-1.56,3.89-3.127c1.255-1.779,1.759-3.533,1.779-3.623
					C33.507,24.924,30.161,23.646,30.128,19.784z"/>
				<path fill="#FFFFFF" d="M26.928,10.306c0.874-1.093,1.472-2.58,1.306-4.089c-1.265,0.056-2.847,0.875-3.758,1.944
					c-0.806,0.942-1.526,2.486-1.34,3.938C24.557,12.205,26.016,11.382,26.928,10.306z"/>
			</g>
		</g>
		<g>
			<path fill="#FFFFFF" d="M54.023,17.179h-2.006l-1.1-3.455h-3.821l-1.047,3.455h-1.955l3.787-11.761h2.338L54.023,17.179z
				 M50.586,12.275l-0.995-3.071c-0.104-0.314-0.303-1.053-0.593-2.216h-0.035c-0.117,0.5-0.303,1.239-0.559,2.216l-0.977,3.071
				H50.586z"/>
			<path fill="#FFFFFF" d="M63.742,12.833c0,1.443-0.391,2.583-1.176,3.42c-0.701,0.745-1.572,1.117-2.613,1.117
				c-1.125,0-1.932-0.401-2.422-1.204v4.45h-1.885v-9.13c0-0.906-0.023-1.835-0.07-2.788h1.658l0.105,1.344h0.034
				c0.629-1.012,1.582-1.519,2.861-1.519c1.002,0,1.836,0.396,2.506,1.187C63.408,10.501,63.742,11.542,63.742,12.833z
				 M61.824,12.903c0-0.826-0.188-1.506-0.559-2.042c-0.408-0.558-0.955-0.837-1.641-0.837c-0.465,0-0.887,0.154-1.266,0.462
				s-0.625,0.712-0.742,1.213c-0.059,0.232-0.086,0.425-0.086,0.576v1.414c0,0.617,0.188,1.137,0.566,1.562
				c0.379,0.425,0.869,0.637,1.475,0.637c0.709,0,1.262-0.273,1.658-0.82C61.625,14.521,61.824,13.799,61.824,12.903z"/>
			<path fill="#FFFFFF" d="M73.497,12.833c0,1.443-0.392,2.583-1.177,3.42c-0.701,0.745-1.572,1.117-2.613,1.117
				c-1.124,0-1.931-0.401-2.422-1.204v4.45H65.4v-9.13c0-0.906-0.023-1.835-0.069-2.788h1.657l0.104,1.344h0.035
				c0.628-1.012,1.582-1.519,2.861-1.519c1,0,1.835,0.396,2.505,1.187C73.162,10.501,73.497,11.542,73.497,12.833z M71.578,12.903
				c0-0.826-0.188-1.506-0.559-2.042c-0.408-0.558-0.955-0.837-1.642-0.837c-0.465,0-0.887,0.154-1.265,0.462
				c-0.379,0.308-0.626,0.712-0.742,1.213c-0.059,0.232-0.087,0.425-0.087,0.576v1.414c0,0.617,0.188,1.137,0.567,1.562
				c0.377,0.425,0.87,0.637,1.474,0.637c0.71,0,1.263-0.273,1.657-0.82C71.378,14.521,71.578,13.799,71.578,12.903z"/>
			<path fill="#FFFFFF" d="M86.759,13.881c0,1-0.349,1.814-1.045,2.443c-0.766,0.687-1.834,1.029-3.202,1.029
				c-1.266,0-2.281-0.244-3.047-0.733l0.436-1.57c0.826,0.489,1.733,0.733,2.724,0.733c0.709,0,1.263-0.16,1.657-0.48
				c0.396-0.32,0.594-0.747,0.594-1.282c0-0.477-0.163-0.878-0.488-1.204c-0.326-0.326-0.867-0.628-1.623-0.908
				c-2.06-0.768-3.089-1.89-3.089-3.368c0-0.965,0.363-1.756,1.091-2.373s1.689-0.925,2.889-0.925c1.07,0,1.959,0.186,2.67,0.558
				L85.85,7.337c-0.666-0.36-1.418-0.541-2.26-0.541c-0.665,0-1.186,0.163-1.559,0.489c-0.315,0.291-0.473,0.646-0.473,1.064
				c0,0.465,0.18,0.849,0.541,1.152c0.313,0.279,0.883,0.582,1.709,0.907c1.012,0.407,1.758,0.884,2.233,1.431
				C86.52,12.386,86.759,13.066,86.759,13.881z"/>
			<path fill="#FFFFFF" d="M93.006,10.111H90.93v4.118c0,1.047,0.366,1.571,1.1,1.571c0.337,0,0.615-0.029,0.838-0.087l0.052,1.431
				c-0.372,0.139-0.86,0.209-1.466,0.209c-0.744,0-1.326-0.227-1.744-0.68c-0.419-0.454-0.629-1.216-0.629-2.286v-4.275h-1.238
				V8.698h1.238V7.145l1.85-0.558v2.111h2.077L93.006,10.111L93.006,10.111z"/>
			<path fill="#FFFFFF" d="M102.357,12.869c0,1.303-0.373,2.373-1.116,3.211c-0.779,0.861-1.814,1.291-3.104,1.291
				c-1.246,0-2.238-0.413-2.977-1.239c-0.739-0.826-1.108-1.867-1.108-3.124c0-1.314,0.382-2.391,1.144-3.229
				c0.763-0.837,1.789-1.256,3.08-1.256c1.244,0,2.244,0.413,3.002,1.239C101.997,10.565,102.357,11.601,102.357,12.869z
				 M100.402,12.912c0-0.777-0.168-1.444-0.506-2.001c-0.396-0.672-0.959-1.009-1.691-1.009c-0.757,0-1.332,0.336-1.729,1.009
				c-0.338,0.557-0.506,1.236-0.506,2.036c0,0.777,0.168,1.444,0.506,2.001c0.407,0.673,0.979,1.009,1.711,1.009
				c0.722,0,1.285-0.342,1.691-1.026C100.229,14.362,100.402,13.689,100.402,12.912z"/>
			<path fill="#FFFFFF" d="M108.482,10.356c-0.187-0.035-0.385-0.052-0.594-0.052c-0.662,0-1.176,0.25-1.535,0.75
				c-0.313,0.442-0.472,1.001-0.472,1.675v4.45h-1.885v-5.811c0-0.978-0.019-1.867-0.054-2.67h1.642l0.069,1.623h0.053
				c0.197-0.558,0.512-1.006,0.941-1.343c0.42-0.303,0.873-0.454,1.361-0.454c0.176,0,0.331,0.012,0.471,0.035v1.797H108.482z"/>
			<path fill="#FFFFFF" d="M116.91,12.537c0,0.337-0.023,0.623-0.069,0.855h-5.653c0.022,0.837,0.297,1.478,0.819,1.919
				c0.478,0.396,1.095,0.593,1.851,0.593c0.838,0,1.6-0.133,2.285-0.401l0.297,1.309c-0.803,0.349-1.75,0.523-2.844,0.523
				c-1.314,0-2.348-0.387-3.098-1.161c-0.751-0.773-1.126-1.812-1.126-3.115c0-1.279,0.351-2.344,1.047-3.193
				c0.733-0.907,1.722-1.361,2.968-1.361c1.221,0,2.146,0.454,2.773,1.361C116.66,10.589,116.91,11.479,116.91,12.537z
				 M115.113,12.048c0.012-0.558-0.11-1.041-0.366-1.448c-0.326-0.523-0.826-0.785-1.501-0.785c-0.616,0-1.117,0.256-1.501,0.768
				c-0.313,0.408-0.5,0.896-0.558,1.466L115.113,12.048L115.113,12.048z"/>
		</g>
		<g>
			<g>
				<path fill="#FFFFFF" d="M46.313,26.928c0.211-0.878,0.363-1.791,0.468-2.703l1.007,0.129c-0.117,0.83-0.281,1.674-0.479,2.504
					c0.304-0.022,0.573-0.034,0.796-0.034c1.604,0,2.329,0.843,2.329,2.598c0,1.791-0.316,3.384-0.749,4.099
					c-0.352,0.571-0.761,0.782-1.51,0.782c-0.551,0-1.194-0.082-1.697-0.198l0.07-0.947c0.456,0.152,1.029,0.223,1.428,0.223
					c0.444,0,0.632-0.07,0.843-0.387c0.374-0.551,0.62-1.955,0.62-3.535c0-1.275-0.387-1.708-1.393-1.708
					c-0.281,0-0.608,0.012-0.96,0.035c-0.644,2.364-1.533,4.541-2.563,6.026l-0.889-0.479c0.994-1.346,1.86-3.301,2.445-5.466
					c-0.808,0.093-1.649,0.222-2.387,0.362l-0.176-0.937C44.348,27.15,45.377,27.021,46.313,26.928z M53.991,30.965l-1.007,0.246
					c-0.199-1.533-0.878-3.277-2.142-4.564l0.819-0.525C53.02,27.525,53.78,29.467,53.991,30.965z"/>
				<path fill="#FFFFFF" d="M56.762,30.24c1.17-0.82,2.633-1.381,3.886-1.381c1.813,0,2.914,0.877,2.914,2.387
					c0,1.873-1.533,3.055-5.173,3.055c-0.152,0-0.363,0-0.551-0.012l-0.21-0.947c0.28,0.012,0.632,0.023,0.854,0.023
					c2.927,0,4.05-0.832,4.05-2.096c0-1.029-0.679-1.568-2.095-1.568c-1.206,0-2.587,0.668-3.909,1.814l-0.808-0.353
					c0-2.527,0.27-3.744,1.159-5.021l0.924,0.314C56.983,27.595,56.762,28.66,56.762,30.24z M56.656,25.137l0.258-0.936
					c1.626,0.246,4.084,0.795,5.243,1.217l-0.27,0.925C60.834,25.934,58.248,25.336,56.656,25.137z"/>
				<path fill="#FFFFFF" d="M68.264,28.191c0.854,0.479,1.967,1.205,2.752,1.803c0.713-1.053,1.192-2.235,1.438-3.418h-3.78
					c-0.854,1.357-1.967,2.691-3.055,3.547l-0.784-0.668c1.627-1.182,3.229-3.486,3.909-5.242l0.982,0.339
					c-0.141,0.353-0.315,0.714-0.516,1.101h3.77l0.748,0.41c-0.818,3.769-3.03,6.929-6.447,8.31l-0.714-0.865
					c1.557-0.573,2.844-1.532,3.826-2.692c-0.783-0.644-1.941-1.416-2.762-1.859L68.264,28.191z M72.887,23.826
					c0.48,0.48,0.854,0.982,1.229,1.568l-0.527,0.375c-0.351-0.574-0.737-1.102-1.205-1.558L72.887,23.826z M74.408,23.486
					c0.49,0.492,0.854,0.996,1.217,1.592l-0.55,0.363c-0.327-0.598-0.714-1.111-1.183-1.592L74.408,23.486z"/>
				<path fill="#FFFFFF" d="M80.434,26.261v-2.024h1.064v2.024h3.064l0.891,0.362c-0.292,3.57-1.697,6.344-5.441,7.701l-0.645-0.912
					c3.453-1.171,4.693-3.477,4.869-6.18h-6.25v2.69h-1.053V26.26L80.434,26.261L80.434,26.261z"/>
				<path fill="#FFFFFF" d="M91.255,27.35l-0.69,0.854c-0.644-0.573-2.049-1.593-3.02-2.106l0.655-0.843
					C89.207,25.84,90.529,26.752,91.255,27.35z M95.762,27.373l0.678,0.795c-1.604,2.609-4.893,5.104-8.086,6.051l-0.527-1.006
					C90.95,32.416,94.204,29.994,95.762,27.373z"/>
				<path fill="#FFFFFF" d="M106.924,25.723v7.854h-8.355v-7.854H106.924z M105.848,32.568v-5.863H99.62v5.863H105.848z"/>
				<path fill="#FFFFFF" d="M118.857,28.754v1.076h-9.526v-1.076H118.857z"/>
				<path fill="#FFFFFF" d="M128.288,30.428l-0.679,0.865c-1.252-0.912-3.113-1.954-4.646-2.68v5.688h-1.076V24.236h1.076v3.242
					C124.625,28.238,126.79,29.42,128.288,30.428z M125.562,25.477c0.42,0.435,0.842,1.019,1.158,1.558l-0.516,0.327
					c-0.28-0.526-0.727-1.146-1.123-1.557L125.562,25.477z M126.79,24.739c0.41,0.433,0.843,1.007,1.171,1.545l-0.516,0.327
					c-0.28-0.504-0.737-1.123-1.135-1.533L126.79,24.739z"/>
			</g>
		</g>
	</g>
</g>
</svg>
