<?xml version="1.0" encoding="utf-8"?>
<svg height="80" width="366" viewBox="0 0 366 80" xmlns="http://www.w3.org/2000/svg" xmlns:xlink="http://www.w3.org/1999/xlink">
  <linearGradient id="a" gradientUnits="userSpaceOnUse" x1="57.082" x2="18.997" y1="5.474" y2="71.439">
    <stop offset="0" stop-color="#ff9640"/>
    <stop offset="0.6" stop-color="#fc4055"/>
    <stop offset="1" stop-color="#e31587"/>
  </linearGradient>
  <linearGradient id="b" gradientUnits="userSpaceOnUse" x1="57.082" x2="18.997" y1="5.474" y2="71.439">
    <stop offset="0" stop-color="#fff36e" stop-opacity=".8"/>
    <stop offset="0.094" stop-color="#fff36e" stop-opacity=".699"/>
    <stop offset="0.752" stop-color="#fff36e" stop-opacity="0"/>
  </linearGradient>
  <linearGradient id="c" gradientUnits="userSpaceOnUse" x1="48.99" x2="66.606" y1="47.048" y2="16.537">
    <stop offset="0" stop-color="#0090ed"/>
    <stop offset="0.386" stop-color="#5b6df8"/>
    <stop offset="0.629" stop-color="#9059ff"/>
    <stop offset="1" stop-color="#b833e1"/>
  </linearGradient>
  <linearGradient id="d" gradientUnits="userSpaceOnUse" x1="48.305" x2="75.234" y1="37.697" y2="44.176">
    <stop offset="0" stop-color="#054096" stop-opacity=".5"/>
    <stop offset="0.054" stop-color="#0f3d9c" stop-opacity=".441"/>
    <stop offset="0.261" stop-color="#2f35b1" stop-opacity=".249"/>
    <stop offset="0.466" stop-color="#462fbf" stop-opacity=".111"/>
    <stop offset="0.669" stop-color="#542bc8" stop-opacity=".028"/>
    <stop offset="0.864" stop-color="#592acb" stop-opacity="0"/>
  </linearGradient>
  <linearGradient id="e" gradientUnits="userSpaceOnUse" x1="66.607" x2="58.343" y1="16.536" y2="30.85">
    <stop offset="0" stop-color="#722291" stop-opacity=".5"/>
    <stop offset="0.5" stop-color="#722291" stop-opacity="0"/>
  </linearGradient>
  <symbol id="f" viewBox="0 0 143.009 34.775">
    <path d="M0 2.239h21.427v5.8H6.147V15.9h15.28v5.752H6.147v12.64H0zM28.716 0a3.448 3.448 0 0 1 3.557 3.6 3.434 3.434 0 0 1-3.6 3.6 3.4 3.4 0 0 1-3.556-3.513A3.555 3.555 0 0 1 28.716 0zm-3.03 10.582h6.06v23.71h-6.06zm23.623 6.586a4.894 4.894 0 0 0-2.942-1.054c-2.459 0-3.864 1.581-3.864 5.05v13.128h-6.015v-23.71h5.752v3.425a5.649 5.649 0 0 1 5.66-3.645 7.184 7.184 0 0 1 4.04 1.23zm2.5 5.4A12.129 12.129 0 0 1 64.018 10.1c7.113 0 12.163 5.049 12.163 12.075v2.5H57.739c.659 2.986 2.986 4.962 6.543 4.962a6.353 6.353 0 0 0 5.883-3.513l5.05 3.03c-2.5 3.688-6.059 5.62-11.109 5.62-7.684.001-12.294-5.136-12.294-12.205zm6.015-2.679H70.3c-.658-3.029-3.117-4.7-6.323-4.7a6.091 6.091 0 0 0-6.15 4.701zm19.847-9.308h4.259V9.4c0-6.454 2.722-9.133 8.694-9.133h2.107v5.222h-1.709c-2.81 0-3.425.966-3.425 3.907v1.186h5.137v5.445h-5v18.265h-5.8V16.027h-4.26zm16.2 11.855A12.139 12.139 0 0 1 106.258 10.1a12.338 12.338 0 1 1 0 24.676 11.959 11.959 0 0 1-12.382-12.339zm18.88 0a6.5 6.5 0 1 0-13 0 6.5 6.5 0 1 0 13 0zm14.051-.263l-8.562-11.592h7.113l5.05 7.289 5.181-7.289h6.981l-8.689 11.549 9.133 12.162h-7.069l-5.664-7.728-5.489 7.728h-7.069z" fill="#20123a"/>
  </symbol>
  <symbol id="g" viewBox="0 0 108.099 35.181">
    <path d="M13.939 16.447C9.278 15.436 5.5 14.82 5.5 10.95c0-3.21 2.2-5.5 7.081-5.5a10.074 10.074 0 0 1 9.059 4.706l2.99-2.331a14.446 14.446 0 0 0-12.053-5.67c-6.509 0-10.818 3.958-10.818 8.883 0 6.157 5.233 7.476 10.246 8.487 4.838 1.056 9.367 1.848 9.367 6.114 0 3.561-2.683 6.068-7.608 6.068a11.775 11.775 0 0 1-10.6-5.761L0 28.453c2.99 4.045 7.344 6.684 13.852 6.684 6.948 0 11.257-4.486 11.257-9.542 0-6.595-6.068-8.095-11.17-9.148zm27.223-5.98a12.178 12.178 0 0 0-12.4 12.445c0 6.948 4.925 12.269 12.533 12.269a12.2 12.2 0 0 0 11.037-6.025l-3.078-1.8a8.49 8.49 0 0 1-7.954 4.571c-5.014 0-8.488-3.21-9.016-7.739h20.972V22.56a11.714 11.714 0 0 0-12.094-12.093zm-8.8 10.554a8.821 8.821 0 0 1 8.8-7.344 8 8 0 0 1 8.4 7.344zm36.992-10.554a9.493 9.493 0 0 0-8.268 4.441V10.95h-3.519V34.7h3.607V21.505a7.411 7.411 0 0 1 7.475-7.784c4.618 0 7.168 2.99 7.168 7.607V34.7h3.651V21.152c0-6.639-3.914-10.685-10.114-10.685zM104.537 0v15.084a10.787 10.787 0 0 0-8.884-4.617 11.983 11.983 0 0 0-12.092 12.357 11.931 11.931 0 0 0 12.092 12.357 10.757 10.757 0 0 0 8.884-4.7V34.7h3.563V0zm-8.576 31.8a8.674 8.674 0 0 1-8.751-9.02 8.752 8.752 0 0 1 8.751-9.015 8.85 8.85 0 0 1 8.84 9.015 8.8 8.8 0 0 1-8.84 9.02z" fill="#20123a"/>
  </symbol>
  <path d="M0 0h80v80H0z" fill="none"/>
  <path d="M40 0A40.136 40.136 0 0 0 0 39.562 4.4 4.4 0 0 0 4.4 44H36v21.284l-10.174-10.16a4 4 0 1 0-5.652 5.661l17 16.977a4 4 0 0 0 5.652 0l17-16.977a4 4 0 1 0-5.652-5.661L44 65.284V44h31.6a4.4 4.4 0 0 0 4.4-4.447A40.133 40.133 0 0 0 40 0zM8.248 36a32 32 0 0 1 63.505 0z" fill="url(#a)"/>
  <path d="M40 0A40.136 40.136 0 0 0 0 39.562 4.4 4.4 0 0 0 4.4 44H36v21.284l-10.174-10.16a4 4 0 1 0-5.652 5.661l17 16.977a4 4 0 0 0 5.652 0l17-16.977a4 4 0 1 0-5.652-5.661L44 65.284V44h31.6a4.4 4.4 0 0 0 4.4-4.447A40.133 40.133 0 0 0 40 0zM8.248 36a32 32 0 0 1 63.505 0z" fill="url(#b)"/>
  <path d="M44 8.259A32.157 32.157 0 0 1 71.753 36H52a8 8 0 0 0-8 8h31.6a4.428 4.428 0 0 0 3.124-1.3A4.48 4.48 0 0 0 80 39.553c0-22.196-24.462-30.11-36-31.294z" fill="url(#c)"/>
  <path d="M52 36a8 8 0 0 0-8 8h31.6a4.416 4.416 0 0 0 2.973-1.179L71.753 36z" fill="url(#d)" opacity=".9"/>
  <path d="M80 39.553c0-22.2-24.443-30.124-36-31.294A32.157 32.157 0 0 1 71.753 36l6.821 6.821c.048-.044.105-.078.151-.124A4.48 4.48 0 0 0 80 39.553z" fill="url(#e)"/>
  <use height="34.775" transform="matrix(1, 0, 0, 1, 97, 21.764999389648438)" width="143.009" xlink:href="#f"/>
  <use height="35.181" transform="matrix(1.0080000162124634, 0, 0, 0.9950000047683716, 255.0659942626953, 21.503000259399414)" width="108.099" xlink:href="#g"/>
</svg>
