<svg xmlns="http://www.w3.org/2000/svg" shape-rendering="crispEdges" viewBox="0 0 41 41" width="280" height="280">
  <path fill="#fff" d="M0 0h41v41H0z"/>
  <path stroke="#000" d="M0 .5h7m4 0h1m1 0h2m3 0h3m2 0h1m4 0h2m1 0h2m1 0h7m-41 1h1m5 0h1m4 0h2m5 0h1m3 0h1m1 0h1m2 0h1m1 0h1m2 0h1m1 0h1m5 0h1m-41 1h1m1 0h3m1 0h1m1 0h1m1 0h3m1 0h2m3 0h2m2 0h1m2 0h1m1 0h5m1 0h1m1 0h3m1 0h1m-41 1h1m1 0h3m1 0h1m1 0h4m2 0h3m1 0h1m2 0h2m4 0h1m3 0h1m2 0h1m1 0h3m1 0h1m-41 1h1m1 0h3m1 0h1m1 0h3m2 0h2m4 0h1m3 0h2m1 0h1m1 0h1m1 0h3m1 0h1m1 0h3m1 0h1m-41 1h1m5 0h1m1 0h1m6 0h1m2 0h1m3 0h1m3 0h3m1 0h1m3 0h1m5 0h1m-41 1h7m1 0h1m1 0h1m1 0h1m1 0h1m1 0h1m1 0h1m1 0h1m1 0h1m1 0h1m1 0h1m1 0h1m1 0h1m1 0h1m1 0h7m-33 1h2m3 0h1m1 0h1m3 0h3m5 0h2m3 0h1m-33 1h1m1 0h5m5 0h1m1 0h1m2 0h2m1 0h1m1 0h1m1 0h3m2 0h1m1 0h1m2 0h5m-38 1h2m1 0h1m5 0h1m1 0h1m1 0h1m1 0h1m2 0h3m1 0h3m2 0h1m2 0h6m1 0h3m-41 1h1m5 0h1m4 0h1m3 0h1m4 0h1m3 0h1m2 0h4m1 0h2m2 0h1m-34 1h1m3 0h2m1 0h1m1 0h1m1 0h1m1 0h1m2 0h4m4 0h1m2 0h6m1 0h1m-37 1h4m1 0h2m2 0h5m2 0h3m1 0h2m2 0h3m1 0h1m1 0h2m4 0h4m-41 1h1m1 0h1m4 0h1m2 0h2m3 0h1m1 0h1m2 0h1m3 0h1m1 0h3m1 0h1m2 0h1m1 0h2m2 0h2m-41 1h2m1 0h4m6 0h3m3 0h1m2 0h1m2 0h2m2 0h2m1 0h2m1 0h1m1 0h1m-37 1h3m3 0h1m4 0h1m1 0h1m4 0h4m1 0h1m3 0h1m1 0h1m3 0h2m1 0h1m-38 1h3m1 0h1m1 0h3m1 0h1m1 0h3m1 0h2m1 0h1m2 0h1m1 0h3m2 0h1m3 0h1m1 0h1m2 0h1m1 0h1m-39 1h1m1 0h2m1 0h1m4 0h1m2 0h1m1 0h2m1 0h4m1 0h1m1 0h2m1 0h3m1 0h5m1 0h1m-41 1h4m1 0h5m1 0h1m3 0h1m1 0h1m3 0h1m3 0h3m2 0h1m5 0h4m-39 1h1m1 0h1m1 0h1m2 0h3m4 0h5m1 0h2m2 0h1m5 0h4m1 0h2m2 0h1m-40 1h4m1 0h1m1 0h3m1 0h2m2 0h1m4 0h1m2 0h1m1 0h3m1 0h2m3 0h1m1 0h3m-40 1h3m1 0h1m7 0h1m5 0h1m1 0h6m5 0h4m1 0h5m-41 1h1m1 0h3m1 0h2m3 0h1m3 0h2m1 0h1m5 0h2m1 0h2m1 0h1m3 0h3m-36 1h3m4 0h1m1 0h3m1 0h1m1 0h1m1 0h2m1 0h2m1 0h1m5 0h1m1 0h2m1 0h3m1 0h2m-41 1h2m2 0h3m2 0h9m4 0h1m2 0h2m2 0h1m1 0h1m6 0h1m-39 1h4m6 0h6m2 0h2m1 0h1m1 0h1m2 0h1m1 0h1m2 0h1m1 0h5m1 0h2m-41 1h2m1 0h1m1 0h5m1 0h1m5 0h2m1 0h2m4 0h2m2 0h1m1 0h1m2 0h2m-37 1h1m1 0h1m1 0h1m3 0h1m1 0h1m1 0h5m1 0h1m1 0h5m3 0h1m2 0h4m2 0h1m1 0h2m-38 1h1m2 0h1m1 0h2m3 0h1m2 0h1m2 0h2m3 0h3m1 0h2m1 0h1m1 0h1m1 0h1m1 0h3m-40 1h1m1 0h3m2 0h2m4 0h1m1 0h1m1 0h2m6 0h3m2 0h1m1 0h2m2 0h1m2 0h2m-41 1h1m3 0h3m2 0h2m3 0h1m2 0h1m2 0h2m1 0h2m2 0h3m1 0h1m1 0h5m-38 1h1m1 0h1m1 0h2m1 0h1m2 0h3m2 0h1m5 0h1m1 0h1m2 0h2m3 0h4m2 0h1m1 0h2m-41 1h1m4 0h4m2 0h1m2 0h4m2 0h1m2 0h14m1 0h1m-31 1h1m2 0h2m1 0h3m1 0h2m3 0h1m2 0h1m2 0h2m1 0h1m3 0h1m1 0h3m-41 1h7m2 0h1m2 0h3m1 0h1m1 0h1m1 0h1m1 0h1m1 0h1m2 0h3m1 0h2m1 0h1m1 0h1m1 0h1m-39 1h1m5 0h1m1 0h1m1 0h1m2 0h4m3 0h1m2 0h2m1 0h5m1 0h1m3 0h2m2 0h1m-41 1h1m1 0h3m1 0h1m1 0h4m1 0h1m1 0h1m2 0h1m1 0h3m4 0h1m4 0h5m1 0h3m-41 1h1m1 0h3m1 0h1m1 0h2m1 0h1m3 0h3m1 0h1m3 0h1m2 0h1m1 0h1m1 0h2m1 0h1m1 0h1m1 0h1m-38 1h1m1 0h3m1 0h1m1 0h4m3 0h3m2 0h1m1 0h1m1 0h1m1 0h3m1 0h1m2 0h5m-38 1h1m5 0h1m2 0h2m1 0h1m2 0h1m1 0h2m1 0h3m3 0h1m3 0h1m1 0h2m2 0h1m2 0h1m-40 1h7m1 0h2m2 0h1m2 0h3m4 0h1m2 0h3m1 0h3m3 0h2m1 0h1"/>
</svg>
