<svg xmlns="http://www.w3.org/2000/svg" width="620" height="235" fill="none" viewBox="0 0 620 235"><rect width="528" height="172" x="46" y="53" stroke="#0090ED" stroke-dasharray="11.79 11.79" stroke-width="5.238" rx="3.143"/><path fill="#333336" d="M610.287 20.374c0-.623.316-1.192.841-1.522l3.183-1.988c.288-.178.615-.273.954-.273h4.717V13h-4.717a5.395 5.395 0 0 0-2.855.819l-3.184 1.99c-.272.17-.502.388-.735.601-.235-.213-.462-.43-.735-.6l-3.186-1.991a5.398 5.398 0 0 0-2.853-.819H597v3.591h4.717c.336 0 .667.095.954.273l3.183 1.988c.528.33.844.899.844 1.522v29.061c0 .624-.316 1.192-.844 1.523l-3.186 1.988a1.804 1.804 0 0 1-.954.273H597v3.59h4.717a5.4 5.4 0 0 0 2.856-.818l3.183-1.988c.275-.172.502-.39.735-.6.233.21.463.428.735.6l3.186 1.99a5.4 5.4 0 0 0 2.856.82h4.714v-3.591h-4.717c-.336 0-.666-.095-.954-.273l-3.183-1.988c-.528-.33-.841-.9-.841-1.523V20.375ZM157.474 189.771c-7.899 0-15.441-6.473-15.441-16.688 0-10.214 7.364-16.688 15.559-16.688 4.217 0 7.721 1.782 9.918 4.751v-18.885h8.077v46.857h-8.077v-4.395c-2.257 3.148-5.879 5.048-10.036 5.048Zm1.603-7.72c5.048 0 8.908-4.038 8.908-9.027 0-4.989-3.86-9.027-8.908-9.027-4.929 0-8.908 3.979-8.908 9.027 0 5.048 3.979 9.027 8.908 9.027Zm31.833 7.72c-7.007 0-11.164-3.919-11.164-9.561 0-6.651 5.523-10.749 14.431-10.749h8.433v-.416c0-3.444-2.316-5.82-6.948-5.82-3.623 0-6.058 1.544-7.543 4.217l-7.542-3.742c3.266-4.276 7.958-7.305 15.144-7.305 9.443 0 14.847 4.93 14.847 13.006v19.717h-7.899v-4.929c-2.316 3.326-6.711 5.582-11.759 5.582Zm2.376-6.77c3.92 0 7.78-2.375 9.383-5.82v-1.722h-7.542c-4.87 0-6.83 1.544-6.83 4.038 0 2.316 1.604 3.504 4.989 3.504Zm22.52 6.117v-32.069h8.195v4.038c2.079-2.91 5.405-4.692 9.384-4.692 7.601 0 12.412 4.989 12.412 13.363v19.36h-8.374v-18.113c0-4.573-2.197-7.424-6.533-7.424-3.86 0-6.829 2.851-6.829 7.84v17.697h-8.255Zm47.99.653c-7.602 0-12.412-2.85-14.966-7.958l7.899-3.088c1.425 2.851 3.979 4.336 7.364 4.336 3.326 0 5.107-1.604 5.107-3.504 0-2.316-3.444-2.851-7.542-3.682-5.404-1.129-11.402-2.792-11.402-9.562 0-5.404 5.226-10.096 13.124-10.036 6.771 0 10.809 2.553 13.778 6.829l-7.483 3.029c-1.306-2.138-3.325-3.385-6.295-3.385-3.207 0-4.751 1.306-4.751 3.088 0 2.019 2.613 2.554 7.305 3.563 5.345 1.069 11.64 2.91 11.64 9.799 0 4.989-4.454 10.631-13.778 10.571Zm31.243-.653v-43.353h27.912v7.958h-19.479v10.036h19.479v7.84h-19.479v17.519h-8.433Zm33.004 0v-32.069h8.374v32.069h-8.374Zm-1.069-41.096c0-3.088 2.197-5.345 5.226-5.345 3.148 0 5.286 2.257 5.286 5.345 0 3.028-2.138 5.226-5.286 5.226-3.088 0-5.226-2.198-5.226-5.226Zm14.89 41.096v-32.069h8.077v4.929c1.544-3.801 4.751-5.523 8.849-5.523 2.138 0 4.038.534 5.404 1.247l-2.969 8.077c-.891-.654-2.435-1.129-4.276-1.129-4.217 0-6.949 2.138-6.949 7.543v16.925h-8.136Zm38.786.653c-10.333 0-16.985-7.304-16.985-16.628s7.246-16.748 16.807-16.748c9.621 0 16.569 6.949 16.569 16.451v3.088h-25.477c1.069 4.157 4.454 6.77 9.205 6.77 3.801 0 6.355-1.663 7.958-4.276l6.711 3.92c-3.207 4.513-7.721 7.423-14.788 7.423Zm-.178-26.427c-4.157 0-7.364 2.435-8.671 6.176h17.104c-1.069-3.979-4.157-6.176-8.433-6.176Zm17.82 1.069v-7.364h5.285v-1.129c0-10.393 3.267-13.6 13.719-13.6h2.138v7.483h-1.366c-5.701 0-6.354.832-6.354 5.702v1.544h7.72v7.364h-7.72v24.705h-8.137v-24.705h-5.285Zm38.881 25.358c-9.62 0-16.925-7.482-16.925-16.688 0-9.264 7.305-16.688 16.925-16.688 9.562 0 16.985 7.424 16.985 16.688 0 9.206-7.304 16.688-16.985 16.688Zm.06-7.779c4.87 0 8.789-3.979 8.789-8.968s-3.919-8.968-8.789-8.968c-4.929 0-8.79 3.979-8.79 8.968s3.861 8.968 8.79 8.968Zm16.115 7.126 11.997-16.45-11.343-15.619h9.739l6.711 9.502 6.77-9.502h9.621l-11.402 15.678 12.234 16.391h-9.918l-7.364-10.036-7.186 10.036h-9.859ZM72.8 130V86.647h8.137l12.887 17.876 13.362-17.876h7.78V130h-8.195V99.593l-13.006 17.46-12.65-17.163V130h-8.314Zm63.478.653c-9.621 0-16.926-7.483-16.926-16.688 0-9.264 7.305-16.688 16.926-16.688 9.561 0 16.985 7.424 16.985 16.688 0 9.205-7.305 16.688-16.985 16.688Zm.059-7.78c4.87 0 8.79-3.979 8.79-8.967 0-4.989-3.92-8.968-8.79-8.968-4.929 0-8.789 3.979-8.789 8.968 0 4.988 3.86 8.967 8.789 8.967Zm35.708 7.78c-7.899 0-15.441-6.473-15.441-16.688 0-10.214 7.364-16.688 15.56-16.688 4.216 0 7.72 1.782 9.917 4.751V83.143h8.077V130h-8.077v-4.395c-2.256 3.148-5.879 5.048-10.036 5.048Zm1.603-7.72c5.048 0 8.909-4.039 8.909-9.027 0-4.989-3.861-9.027-8.909-9.027-4.929 0-8.908 3.979-8.908 9.027 0 5.048 3.979 9.027 8.908 9.027ZM195.503 130V97.93h8.374V130h-8.374Zm-1.069-41.097c0-3.088 2.198-5.344 5.226-5.344 3.148 0 5.286 2.256 5.286 5.344 0 3.03-2.138 5.227-5.286 5.227-3.088 0-5.226-2.198-5.226-5.227Zm13.054 16.392V97.93h5.285v-1.128c0-10.393 3.266-13.6 13.719-13.6h2.138v7.483h-1.366c-5.701 0-6.355.832-6.355 5.701v1.544h7.721v7.365h-7.721V130h-8.136v-24.705h-5.285ZM232.657 130V97.93h8.374V130h-8.374Zm-1.069-41.097c0-3.088 2.197-5.344 5.226-5.344 3.148 0 5.286 2.256 5.286 5.344 0 3.03-2.138 5.227-5.286 5.227-3.088 0-5.226-2.198-5.226-5.227Zm30.75 41.75c-10.334 0-16.985-7.304-16.985-16.628s7.245-16.748 16.807-16.748c9.62 0 16.569 6.949 16.569 16.451v3.088h-25.478c1.069 4.157 4.454 6.77 9.206 6.77 3.8 0 6.354-1.663 7.958-4.276l6.71 3.92c-3.207 4.513-7.72 7.423-14.787 7.423Zm-.178-26.427c-4.158 0-7.365 2.435-8.671 6.176h17.104c-1.069-3.979-4.157-6.176-8.433-6.176ZM281.276 130v-7.305l17.876-17.638h-17.52V97.93h27.616v7.305l-17.817 17.579h18.054V130h-28.209Zm55.44 0-12.293-32.07h8.67l7.899 21.618 7.958-21.618h8.492L344.852 130h-8.136Zm37.568.653c-9.621 0-16.926-7.483-16.926-16.688 0-9.264 7.305-16.688 16.926-16.688 9.561 0 16.985 7.424 16.985 16.688 0 9.205-7.305 16.688-16.985 16.688Zm.059-7.78c4.87 0 8.789-3.979 8.789-8.967 0-4.989-3.919-8.968-8.789-8.968-4.929 0-8.789 3.979-8.789 8.968 0 4.988 3.86 8.967 8.789 8.967Zm33.639 7.78c-7.602 0-12.412-2.85-14.966-7.958l7.899-3.088c1.425 2.851 3.979 4.335 7.364 4.335 3.325 0 5.107-1.603 5.107-3.503 0-2.317-3.444-2.851-7.542-3.683-5.405-1.128-11.403-2.791-11.403-9.561 0-5.404 5.226-10.096 13.125-10.037 6.77 0 10.809 2.554 13.778 6.83l-7.483 3.029c-1.306-2.138-3.326-3.385-6.295-3.385-3.207 0-4.751 1.306-4.751 3.088 0 2.019 2.613 2.554 7.305 3.563 5.345 1.069 11.64 2.91 11.64 9.799 0 4.989-4.454 10.631-13.778 10.571Zm31.243-.653V86.647h17.103c9.74 0 16.273 7.008 16.273 15.738 0 8.611-6.533 15.797-16.332 15.797h-8.611V130h-8.433Zm16.569-35.692h-8.136v16.094h8.136c4.989 0 8.314-3.385 8.314-8.017 0-4.692-3.325-8.077-8.314-8.077ZM478.158 130V86.647h14.016c13.778 0 22.627 9.383 22.627 21.676 0 12.353-9.502 21.677-22.449 21.677h-14.194Zm13.422-35.573h-4.989v27.734h5.226c8.79 0 14.491-6.058 14.491-13.838 0-7.958-5.226-13.896-14.728-13.896ZM520.224 130V86.647h27.912v7.958h-19.479v10.036h19.479v7.84h-19.479V130h-8.433ZM79.434 192.321c.405 0 .81-.071 1.208-.207l11.587-4.024 23.621-24.567c2.464-2.566 2.464-6.744 0-9.31l-3.577-3.722a6.173 6.173 0 0 0-8.951 0l-23.621 24.571-3.865 12.063a4.038 4.038 0 0 0 .918 4.037 3.718 3.718 0 0 0 2.68 1.159Zm26.872-38.723a2.05 2.05 0 0 1 2.98 0l3.581 3.725a2.255 2.255 0 0 1 0 3.1l-3.594 3.742-6.565-6.828 3.598-3.739Zm-22.92 23.838 16.335-16.992 6.561 6.825-16.335 16.995-9.845 3.416 3.284-10.244ZM121.007 194.741l-6.054 1.924a14.215 14.215 0 0 1-7.213.372l-7.026-1.464a18.46 18.46 0 0 0-12.215 1.703c-4.157 2.162-9.173 1.32-12.463-2.106l-.172-.18-2.812 3.286c2.886 2.999 6.723 4.578 10.614 4.578 2.282 0 4.58-.54 6.72-1.657a14.324 14.324 0 0 1 9.5-1.32l7.027 1.464c3.072.639 6.278.467 9.272-.484l6.054-1.924-1.232-4.192Z"/><path stroke="#333336" stroke-width="1.06" d="M498.53 139.118v58.326"/></svg>
