<svg version="1.1" id="Layer_1" xmlns="http://www.w3.org/2000/svg" x="0" y="0" viewBox="0 0 46 39" style="enable-background:new 0 0 46 39" xml:space="preserve"><style>.st0{fill:#22133c}</style><path class="st0" d="M25.4 22.2h17.8c1.5 0 2.6 1.1 2.6 2.6v11.7c0 1.4-1.2 2.6-2.6 2.6H25.4c-1.5 0-2.6-1.1-2.6-2.6V24.7c0-1.4 1.2-2.5 2.6-2.5z"/><path class="st0" d="M14.9 39H6.6C2.9 39 0 36.1 0 32.6V6.4C0 2.8 3 0 6.6 0h32.8C43 0 46 2.9 46 6.4v8.2c0 1.4-1.2 2.6-2.6 2.6-1.5 0-2.6-1.1-2.6-2.6V6.4c0-.7-.6-1.3-1.3-1.3h-33c-.7 0-1.3.6-1.3 1.3v26.3c0 .7.6 1.3 1.3 1.3h8.4c1.5 0 2.6 1.1 2.6 2.6 0 1.3-1.1 2.4-2.6 2.4z"/><path class="st0" d="M18.8 9.9c-.9 0-1.6.7-1.6 1.5v3l-6.1-5.9C10.6 8 9.6 8 9 8.6c-.6.6-.6 1.5 0 2.2l6 5.8h-3c-.9 0-1.6.7-1.6 1.5 0 .9.7 1.5 1.6 1.5h6.8c.9 0 1.6-.6 1.6-1.6v-6.6c0-.8-.7-1.5-1.6-1.5z"/></svg>
