<svg width="40" height="40" viewBox="0 0 40 40" fill="none" xmlns="http://www.w3.org/2000/svg">
<path fill-rule="evenodd" clip-rule="evenodd" d="M25.4799 23.344C25.4799 24.617 24.9742 25.8379 24.0741 26.7381C23.1739 27.6383 21.953 28.144 20.6799 28.144H19.3519C18.1017 28.1323 16.9044 27.6381 16.01 26.7645C15.1155 25.8909 14.5932 24.7056 14.5519 23.456L0.543945 18.04V32C0.543945 33.328 1.84795 34.4 3.46395 34.4H36.5359C38.1359 34.4 39.4559 33.328 39.4559 32V18.008L25.4799 23.344Z" fill="#414141"/>
<path fill-rule="evenodd" clip-rule="evenodd" d="M36.9999 9.71202H27.8879C27.8227 7.66452 26.9635 5.72271 25.4921 4.29743C24.0207 2.87214 22.0525 2.0752 20.0039 2.0752C17.9554 2.0752 15.9872 2.87214 14.5158 4.29743C13.0444 5.72271 12.1852 7.66452 12.1199 9.71202H2.99995C2.34857 9.71202 1.72388 9.97078 1.26329 10.4314C0.802702 10.892 0.543945 11.5166 0.543945 12.168V14.744L14.8879 20.28C15.2499 19.3944 15.8683 18.6371 16.6637 18.1054C17.4591 17.5737 18.3952 17.2919 19.3519 17.296H20.6479C21.5902 17.2916 22.5128 17.5647 23.301 18.0811C24.0891 18.5975 24.7078 19.3344 25.0799 20.2L39.4799 14.712V12.168C39.48 11.8435 39.4156 11.5221 39.2907 11.2226C39.1658 10.923 38.9827 10.6512 38.7521 10.4228C38.5215 10.1944 38.2479 10.014 37.9472 9.89204C37.6464 9.77003 37.3245 9.70885 36.9999 9.71202ZM16.9199 9.71202C16.9602 8.92126 17.3027 8.17619 17.8767 7.63074C18.4506 7.08529 19.2122 6.78115 20.0039 6.78115C20.7957 6.78115 21.5573 7.08529 22.1312 7.63074C22.7052 8.17619 23.0477 8.92126 23.0879 9.71202H16.9199Z" fill="#414141"/>
</svg>
