<svg width="40" height="40" viewBox="0 0 40 40" fill="none" xmlns="http://www.w3.org/2000/svg">
<path d="M35.48 7.01612H4.51202C4.00325 7.01507 3.49927 7.1145 3.02903 7.30871C2.55878 7.50292 2.13151 7.78809 1.77175 8.14785C1.412 8.50761 1.12683 8.93488 0.932614 9.40512C0.738401 9.87537 0.638968 10.3793 0.640023 10.8881V30.2401C0.640023 30.7486 0.740175 31.2521 0.934761 31.7219C1.12935 32.1916 1.41456 32.6185 1.77411 32.978C2.13365 33.3376 2.5605 33.6228 3.03027 33.8174C3.50005 34.012 4.00354 34.1121 4.51202 34.1121H35.48C35.9885 34.1121 36.492 34.012 36.9618 33.8174C37.4315 33.6228 37.8584 33.3376 38.2179 32.978C38.5775 32.6185 38.8627 32.1916 39.0573 31.7219C39.2519 31.2521 39.352 30.7486 39.352 30.2401V10.8881C39.352 9.8612 38.9441 8.87634 38.2179 8.1502C37.4918 7.42406 36.5069 7.01612 35.48 7.01612ZM22.4 29.6001H8.00002C7.3635 29.6001 6.75305 29.3473 6.30297 28.8972C5.85288 28.4471 5.60002 27.8366 5.60002 27.2001C5.60002 26.5636 5.85288 25.9531 6.30297 25.5031C6.75305 25.053 7.3635 24.8001 8.00002 24.8001H22.4C23.0365 24.8001 23.647 25.053 24.0971 25.5031C24.5472 25.9531 24.8 26.5636 24.8 27.2001C24.8 27.8366 24.5472 28.4471 24.0971 28.8972C23.647 29.3473 23.0365 29.6001 22.4 29.6001ZM34.496 19.2001H5.48802V11.8961H34.496V19.2001Z" fill="#414141"/>
</svg>
