<svg width="40" height="40" viewBox="0 0 40 40" fill="none" xmlns="http://www.w3.org/2000/svg">
<path d="M35.464 21.4398C35.095 20.8521 34.5846 20.3663 33.9795 20.0267C33.3744 19.6871 32.6938 19.5046 32 19.4958H31.672C30.9521 17.4916 29.5155 15.8249 27.6394 14.8174C25.7632 13.8099 23.5803 13.5329 21.512 14.0398C20.6242 12.1067 19.0997 10.5368 17.1934 9.59272C15.2871 8.64864 13.1145 8.38754 11.0388 8.85308C8.96311 9.31861 7.11011 10.4826 5.78959 12.1504C4.46907 13.8181 3.76107 15.8887 3.78395 18.0158C3.78452 18.5928 3.83807 19.1686 3.94395 19.7358C2.64583 20.2213 1.55284 21.1362 0.846532 22.3287C0.140224 23.5211 -0.136898 24.9193 0.0611947 26.291C0.259288 27.6627 0.920674 28.9254 1.9355 29.8693C2.95033 30.8132 4.25752 31.3815 5.63995 31.4798C5.76248 31.488 5.88542 31.488 6.00795 31.4798H34.8079C36.0873 31.4761 37.3177 30.9874 38.251 30.1124C39.1844 29.2374 39.7513 28.0411 39.8376 26.7647C39.9238 25.4882 39.523 24.2265 38.7158 23.2339C37.9086 22.2414 36.7552 21.5917 35.488 21.4158L35.464 21.4398Z" fill="#414141"/>
</svg>
