<svg width="40" height="40" viewBox="0 0 40 40" fill="none" xmlns="http://www.w3.org/2000/svg">
<path d="M34.5841 15.2637C34.47 11.3022 32.8092 7.54291 29.9574 4.79095C27.1055 2.03898 23.2894 0.513202 19.3264 0.540396C15.3633 0.567591 11.5685 2.1456 8.75468 4.93644C5.94086 7.72728 4.33178 11.509 4.27209 15.4717V37.0717C4.27209 37.7082 4.52495 38.3187 4.97504 38.7688C5.42513 39.2189 6.03558 39.4717 6.67209 39.4717C7.30861 39.4717 7.91906 39.2189 8.36915 38.7688C8.81924 38.3187 9.07209 37.7082 9.07209 37.0717V15.4717C8.9525 14.0381 9.13164 12.5952 9.59819 11.2344C10.0647 9.87349 10.8086 8.62422 11.7826 7.56552C12.7567 6.50683 13.9398 5.66173 15.2571 5.08366C16.5745 4.5056 17.9975 4.20713 19.4361 4.20713C20.8747 4.20713 22.2977 4.5056 23.6151 5.08366C24.9324 5.66173 26.1155 6.50683 27.0896 7.56552C28.0636 8.62422 28.8074 9.87349 29.274 11.2344C29.7406 12.5952 29.9197 14.0381 29.8001 15.4717V28.1997C29.7538 29.2411 29.3075 30.2245 28.5541 30.9451C27.8008 31.6656 26.7985 32.0678 25.7561 32.0678C24.7136 32.0678 23.7114 31.6656 22.9581 30.9451C22.2047 30.2245 21.7584 29.2411 21.7121 28.1997C21.716 28.1224 21.716 28.045 21.7121 27.9677V16.1117C21.7121 15.4752 21.4592 14.8647 21.0092 14.4147C20.5591 13.9646 19.9486 13.7117 19.3121 13.7117C18.6756 13.7117 18.0651 13.9646 17.615 14.4147C17.165 14.8647 16.9121 15.4752 16.9121 16.1117V28.1997C16.9118 28.3583 16.9279 28.5164 16.9601 28.6717C17.0227 31.0141 18.0132 33.2357 19.7138 34.8478C21.4144 36.4598 23.6857 37.3303 26.0281 37.2677C28.3705 37.2051 30.5921 36.2146 32.2041 34.514C33.8162 32.8134 34.6867 30.5421 34.6241 28.1997V15.3997C34.6188 15.3524 34.6053 15.3064 34.5841 15.2637Z" fill="#414141"/>
<path d="M17.4239 34.8077C17.1359 34.5357 15.5119 32.6877 15.5119 25.2077V16.2557C15.5119 15.5357 15.8319 11.9357 19.2879 11.9357C22.7439 11.9357 23.2879 15.1357 23.3519 15.9357V27.6157C23.3519 28.2523 23.6048 28.8627 24.0549 29.3128C24.505 29.7629 25.1154 30.0157 25.7519 30.0157C26.3885 30.0157 26.9989 29.7629 27.449 29.3128C27.8991 28.8627 28.1519 28.2523 28.1519 27.6157V15.6477C27.9519 12.7037 25.8399 7.13574 19.2879 7.13574C13.1359 7.13574 10.7839 12.5197 10.7119 16.1917V25.1757C10.7119 37.4717 14.7119 39.2797 16.4399 39.4877H16.7279C17.303 39.4871 17.8587 39.2799 18.2939 38.904C18.7291 38.5281 19.0149 38.0085 19.0992 37.4396C19.1835 36.8708 19.0607 36.2905 18.7533 35.8046C18.4458 35.3186 17.9741 34.9592 17.4239 34.7917V34.8077Z" fill="#414141"/>
</svg>
