<svg width="40" height="40" viewBox="0 0 40 40" fill="none" xmlns="http://www.w3.org/2000/svg">
<path d="M32.8399 11.6562L28.5839 9.02418C28.2505 8.81871 27.8932 8.65483 27.5199 8.53618C26.4903 8.21442 25.3832 8.24229 24.3711 8.61544C23.359 8.98858 22.4987 9.68605 21.9244 10.5991C21.3501 11.5122 21.0939 12.5897 21.1958 13.6636C21.2978 14.7374 21.7521 15.7474 22.4879 16.5362C25.0479 20.2402 21.3679 22.9362 21.3679 22.9362C20.7703 23.3264 20.2653 23.8429 19.8886 24.4491C19.5119 25.0554 19.2725 25.7369 19.1873 26.4456C19.1021 27.1543 19.1732 27.873 19.3955 28.5513C19.6178 29.2296 19.986 29.851 20.4741 30.3718C20.9623 30.8925 21.5586 31.3001 22.2211 31.5658C22.8836 31.8314 23.5963 31.9488 24.309 31.9095C25.0217 31.8703 25.7172 31.6755 26.3466 31.3387C26.9759 31.0019 27.5239 30.5314 27.9519 29.9602C28.184 29.6487 28.3774 29.3102 28.5279 28.9522L34.6239 18.2642C34.7785 17.9758 34.9044 17.6731 34.9999 17.3602C35.3413 16.3055 35.3134 15.1659 34.9208 14.1292C34.5282 13.0924 33.7943 12.2202 32.8399 11.6562Z" fill="#414141"/>
<path d="M24.3919 6.35203C24.7117 6.54 25.0928 6.59419 25.4523 6.50281C25.8118 6.41144 26.1207 6.18189 26.3119 5.86403L27.1999 4.33603C27.294 4.17844 27.356 4.00388 27.3826 3.82231C27.4091 3.64074 27.3997 3.45571 27.3547 3.27779C27.3098 3.09987 27.2303 2.93255 27.1206 2.78538C27.011 2.6382 26.8735 2.51406 26.7159 2.42003C26.5583 2.326 26.3838 2.26394 26.2022 2.23737C26.0206 2.21081 25.8356 2.22027 25.6577 2.26521C25.4798 2.31016 25.3124 2.3897 25.1653 2.49931C25.0181 2.60892 24.894 2.74644 24.7999 2.90403L23.9119 4.43203C23.7233 4.75085 23.6678 5.13119 23.7577 5.49059C23.8475 5.84999 24.0754 6.1595 24.3919 6.35203Z" fill="#414141"/>
<path d="M28.456 7.00802C28.6759 7.13721 28.9379 7.17439 29.1851 7.11147C29.4322 7.04855 29.6446 6.89063 29.776 6.67202L30.4 5.60002C30.4672 5.39394 30.4627 5.17115 30.3873 4.96794C30.3118 4.76472 30.1697 4.59303 29.9843 4.48081C29.7988 4.3686 29.5808 4.32246 29.3657 4.34992C29.1507 4.37738 28.9513 4.4768 28.8 4.63202L28.168 5.68802C28.0323 5.9016 27.9865 6.16008 28.0405 6.40726C28.0944 6.65444 28.2437 6.87034 28.456 7.00802Z" fill="#414141"/>
<path d="M31.44 8.79985C31.548 8.86469 31.6678 8.90745 31.7925 8.92565C31.9171 8.94385 32.0442 8.93713 32.1662 8.90587C32.2882 8.87462 32.4029 8.81946 32.5034 8.74358C32.604 8.6677 32.6885 8.57262 32.752 8.46385L33.384 7.41585C33.5188 7.19731 33.5612 6.9342 33.5019 6.68441C33.4426 6.43461 33.2866 6.21858 33.068 6.08385C32.9598 6.01714 32.8395 5.9724 32.714 5.95217C32.5885 5.93195 32.4603 5.93664 32.3366 5.96599C32.0868 6.02525 31.8708 6.18131 31.736 6.39985L31.112 7.45585C31.0428 7.56493 30.9964 7.68685 30.9754 7.81431C30.9545 7.94177 30.9595 8.07215 30.9901 8.19763C31.0207 8.32312 31.0764 8.44114 31.1537 8.54461C31.231 8.64809 31.3284 8.7349 31.44 8.79985Z" fill="#414141"/>
<path d="M34.0241 10.7199C34.1219 10.778 34.2303 10.8158 34.3429 10.8312C34.4556 10.8465 34.5702 10.839 34.6799 10.8092C34.7896 10.7793 34.8922 10.7277 34.9816 10.6574C35.0709 10.5871 35.1453 10.4995 35.2001 10.3999L35.6401 9.67193C35.7547 9.47753 35.7878 9.24576 35.7324 9.02703C35.677 8.8083 35.5374 8.6203 35.3441 8.50393C35.2481 8.44614 35.1416 8.40795 35.0308 8.39155C34.92 8.37516 34.807 8.38089 34.6984 8.40841C34.5898 8.43593 34.4877 8.4847 34.3981 8.5519C34.3084 8.61911 34.233 8.70341 34.1761 8.79993L33.7361 9.52793C33.6753 9.62468 33.6344 9.73264 33.6159 9.84544C33.5975 9.95824 33.6018 10.0736 33.6287 10.1847C33.6555 10.2958 33.7043 10.4004 33.7722 10.4923C33.8402 10.5842 33.9258 10.6616 34.0241 10.7199Z" fill="#414141"/>
<path d="M37.304 11.2879C37.208 11.2301 37.1015 11.1919 36.9907 11.1755C36.8798 11.1591 36.7668 11.1649 36.6582 11.1924C36.5496 11.2199 36.4476 11.2687 36.3579 11.3359C36.2683 11.4031 36.1928 11.4874 36.136 11.5839L35.72 12.2719C35.6209 12.4651 35.5989 12.6886 35.6584 12.8974C35.718 13.1061 35.8546 13.2844 36.0406 13.3963C36.2267 13.5081 36.4482 13.5451 36.6605 13.4997C36.8728 13.4543 37.0599 13.33 37.184 13.1519L37.6 12.4559C37.7145 12.2615 37.7477 12.0297 37.6923 11.811C37.6368 11.5923 37.4973 11.4043 37.304 11.2879Z" fill="#414141"/>
<path d="M17.344 29.8321C17.344 29.8321 14.192 26.5601 17.344 23.3681C18.2243 22.7289 18.8662 21.8142 19.168 20.769C19.4698 19.7238 19.4142 18.6077 19.0102 17.5977C18.6062 16.5876 17.8767 15.7411 16.9373 15.1924C15.9979 14.6436 14.9023 14.4239 13.824 14.5681C13.435 14.6174 13.0535 14.7141 12.688 14.8561L8.03202 16.6881C7.00015 17.0693 6.12735 17.788 5.5552 18.7276C4.98306 19.6671 4.74513 20.7724 4.88002 21.8641C4.92649 22.1867 4.99872 22.5051 5.09602 22.8161L9.18402 34.4241C9.27684 34.8104 9.41654 35.1838 9.60002 35.5361C9.91995 36.1733 10.3754 36.7328 10.9345 37.1754C11.4935 37.618 12.1426 37.9329 12.8362 38.098C13.5299 38.2631 14.2512 38.2745 14.9497 38.1314C15.6482 37.9882 16.3069 37.694 16.8797 37.2693C17.4524 36.8447 17.9253 36.2998 18.2652 35.673C18.6051 35.0463 18.8038 34.3527 18.8473 33.641C18.8907 32.9293 18.778 32.2167 18.5169 31.5532C18.2559 30.8897 17.8528 30.2914 17.336 29.8001L17.344 29.8321Z" fill="#414141"/>
<path d="M15.512 12.16C15.663 12.473 15.9252 12.7187 16.2474 12.8491C16.5696 12.9796 16.9288 12.9855 17.2551 12.8658C17.5814 12.746 17.8515 12.5091 18.0129 12.2012C18.1742 11.8933 18.2152 11.5364 18.128 11.2L17.496 9.53596C17.4319 9.36472 17.3347 9.20777 17.2099 9.07409C17.0852 8.94041 16.9354 8.8326 16.769 8.75683C16.4329 8.6038 16.0498 8.59054 15.704 8.71996C15.3581 8.84939 15.0778 9.1109 14.9248 9.44696C14.7718 9.78303 14.7585 10.1661 14.888 10.512L15.512 12.16Z" fill="#414141"/>
<path d="M12.0001 12.3359C12.0393 12.4607 12.1035 12.5762 12.1889 12.6753C12.2743 12.7744 12.3791 12.855 12.4967 12.9122C12.6144 12.9693 12.7425 13.0018 12.8732 13.0077C13.0039 13.0135 13.1344 12.9926 13.2567 12.9462C13.379 12.8998 13.4906 12.8288 13.5845 12.7378C13.6784 12.6467 13.7527 12.5374 13.8028 12.4165C13.853 12.2957 13.8779 12.1659 13.876 12.0351C13.8742 11.9043 13.8456 11.7752 13.7921 11.6559L13.3601 10.5119C13.3236 10.3844 13.2612 10.266 13.1767 10.1639C13.0922 10.0618 12.9874 9.97828 12.8691 9.91865C12.7507 9.85903 12.6213 9.82456 12.4889 9.81741C12.3566 9.81027 12.2242 9.8306 12.1001 9.87714C11.976 9.92368 11.8629 9.9954 11.7679 10.0878C11.6729 10.1802 11.598 10.2913 11.548 10.414C11.4981 10.5368 11.474 10.6686 11.4775 10.8011C11.481 10.9335 11.5118 11.0639 11.5681 11.1839L12.0001 12.3359Z" fill="#414141"/>
<path d="M8.70411 13.5519C8.79322 13.7906 8.9735 13.9841 9.2053 14.0899C9.43709 14.1956 9.70141 14.205 9.94011 14.1159C10.1788 14.0268 10.3723 13.8465 10.4781 13.6147C10.5839 13.3829 10.5932 13.1186 10.5041 12.8799L10.0721 11.7279C10.0239 11.6092 9.95259 11.5013 9.86235 11.4103C9.77211 11.3194 9.66472 11.2473 9.5464 11.1982C9.42808 11.1491 9.30119 11.1239 9.17308 11.1242C9.04498 11.1245 8.9182 11.1502 8.80011 11.1999C8.56241 11.2913 8.37033 11.4728 8.26551 11.7049C8.16068 11.937 8.15155 12.2011 8.24011 12.4399L8.70411 13.5519Z" fill="#414141"/>
<path d="M5.95204 15.0561C5.99114 15.1608 6.05057 15.2568 6.12691 15.3385C6.20325 15.4202 6.29499 15.486 6.39686 15.5321C6.49872 15.5781 6.60869 15.6037 6.72045 15.6071C6.83221 15.6105 6.94354 15.5918 7.04804 15.5521C7.25971 15.4729 7.43149 15.3132 7.52591 15.1079C7.62032 14.9026 7.62972 14.6683 7.55204 14.4561L7.25604 13.6561C7.17537 13.4439 7.01376 13.2725 6.80673 13.1795C6.59971 13.0865 6.36421 13.0795 6.15204 13.1601C6.04729 13.1992 5.95131 13.2586 5.86962 13.3349C5.78793 13.4113 5.72214 13.503 5.67604 13.6049C5.62994 13.7067 5.60444 13.8167 5.60101 13.9285C5.59758 14.0402 5.61628 14.1516 5.65604 14.2561L5.95204 15.0561Z" fill="#414141"/>
<path d="M5.10398 16.7999L4.79998 15.9999C4.76572 15.8882 4.70897 15.7847 4.63321 15.6958C4.55745 15.6069 4.4643 15.5344 4.35948 15.4828C4.25466 15.4313 4.1404 15.4017 4.02372 15.396C3.90705 15.3902 3.79043 15.4084 3.68105 15.4494C3.57167 15.4904 3.47184 15.5534 3.38772 15.6345C3.30359 15.7155 3.23694 15.8129 3.19187 15.9207C3.14681 16.0285 3.12428 16.1443 3.12567 16.2611C3.12706 16.3779 3.15235 16.4932 3.19998 16.5999L3.48798 17.3519C3.56754 17.5641 3.72813 17.7359 3.93442 17.8297C4.14071 17.9235 4.3758 17.9315 4.58798 17.8519C4.80015 17.7723 4.97203 17.6117 5.06579 17.4055C5.15956 17.1992 5.16754 16.9641 5.08798 16.7519L5.10398 16.7999Z" fill="#414141"/>
</svg>
