<svg width="40" height="41" viewBox="0 0 40 41" fill="none" xmlns="http://www.w3.org/2000/svg">
<path d="M27.2881 40.936H11.2881C9.8029 40.936 8.37852 40.346 7.32831 39.2958C6.27811 38.2456 5.68811 36.8212 5.68811 35.336V6.45596C5.68811 4.97075 6.27811 3.54636 7.32831 2.49616C8.37852 1.44596 9.8029 0.855957 11.2881 0.855957H27.2881C28.7733 0.855957 30.1977 1.44596 31.2479 2.49616C32.2981 3.54636 32.8881 4.97075 32.8881 6.45596V35.328C32.8892 36.064 32.7451 36.7931 32.4641 37.4734C32.1832 38.1538 31.7709 38.7721 31.2507 39.2929C30.7306 39.8138 30.1129 40.227 29.433 40.5089C28.753 40.7908 28.0242 40.936 27.2881 40.936ZM11.2881 5.64796C11.0759 5.64796 10.8725 5.73224 10.7224 5.88227C10.5724 6.0323 10.4881 6.23578 10.4881 6.44796V35.328C10.4881 35.5401 10.5724 35.7436 10.7224 35.8936C10.8725 36.0437 11.0759 36.128 11.2881 36.128H27.2881C27.5003 36.128 27.7038 36.0437 27.8538 35.8936C28.0038 35.7436 28.0881 35.5401 28.0881 35.328V6.45596C28.0881 6.24378 28.0038 6.0403 27.8538 5.89027C27.7038 5.74024 27.5003 5.65596 27.2881 5.65596L11.2881 5.64796Z" fill="#414141"/>
<path d="M19.2721 33.8801C21.278 33.8801 22.9041 32.254 22.9041 30.2481C22.9041 28.2422 21.278 26.6161 19.2721 26.6161C17.2662 26.6161 15.6401 28.2422 15.6401 30.2481C15.6401 32.254 17.2662 33.8801 19.2721 33.8801Z" fill="#414141"/>
</svg>
