<svg xmlns="http://www.w3.org/2000/svg" width="259" height="206" fill="none"><g clip-path="url(#a)"><path stroke="#000" stroke-miterlimit="10" stroke-width="1.842" d="M1 197.298v3.679a4.102 4.102 0 0 0 4.102 4.102h124.634"/><path fill="#fff" d="M218.243 167.825a5.832 5.832 0 0 0 5.832-5.832V55.057h-.006a5.832 5.832 0 0 0-5.832-5.832H40.21a5.832 5.832 0 0 0-5.832 5.832v106.936a5.832 5.832 0 0 0 5.832 5.832"/><path stroke="#000" stroke-miterlimit="10" stroke-width="1.842" d="M218.243 167.825a5.832 5.832 0 0 0 5.832-5.832V55.057h-.006a5.832 5.832 0 0 0-5.832-5.832H40.21a5.832 5.832 0 0 0-5.832 5.832v106.936a5.832 5.832 0 0 0 5.832 5.832"/><path fill="#fff" d="M124.811 199.952h129.504c2.938 0 4.26-3.681 1.993-5.55l-31.365-25.863a3.136 3.136 0 0 0-1.993-.715H35.503c-.727 0-1.432.253-1.993.715L2.145 194.402c-2.267 1.869-.945 5.55 1.993 5.55h129.504"/><path stroke="#000" stroke-miterlimit="10" stroke-width="1.842" d="M124.811 199.952h129.504c2.938 0 4.26-3.681 1.993-5.55l-31.365-25.863a3.136 3.136 0 0 0-1.993-.715H35.503c-.727 0-1.432.253-1.993.715L2.145 194.402c-2.267 1.869-.945 5.55 1.993 5.55h129.504"/><path stroke="#000" stroke-miterlimit="10" stroke-width="1.842" d="M257.454 197.298v3.679a4.102 4.102 0 0 1-4.102 4.102H128.717"/><path fill="#fff" stroke="#000" stroke-linecap="round" stroke-linejoin="round" stroke-width="1.842" d="M129.401 188.674h88.18l-14.355-16.064H55.227l-14.355 16.064h88.529ZM213.732 56.693H44.61V161.13h169.122V56.693Z"/><path fill="#DCDDFD" stroke="#000" stroke-linejoin="round" stroke-width="1.842" d="M132.736 71.338h-77.01v59.591h77.01v-59.59ZM202.566 82.949h-56.131v67.778h56.131V82.949Z"/><path fill="#A883F8" stroke="#000" stroke-linejoin="round" stroke-width="1.842" d="M108.583 89.956a18.174 18.174 0 0 0-1.484-1.687l-.002-.002-.002-.002a18.291 18.291 0 0 0-1.687-1.484c-7.133-5.563-17.486-5.07-24.043 1.486-6.557 6.557-7.05 16.911-1.486 24.044.456.585.948 1.151 1.486 1.689s1.104 1.03 1.689 1.486c7.133 5.563 17.487 5.071 24.044-1.486 6.557-6.556 7.048-16.91 1.485-24.044ZM84.54 91.442a13.61 13.61 0 0 1 9.691-4.005c2.904 0 5.665.895 7.972 2.55l-19.118 19.118c-3.83-5.351-3.348-12.86 1.455-17.663Zm19.383 19.384a13.613 13.613 0 0 1-9.69 4.005c-2.905 0-5.666-.896-7.973-2.551l19.117-19.118c3.832 5.352 3.349 12.861-1.454 17.664ZM188.853 105.661a18.216 18.216 0 0 0-1.485-1.687l-.002-.003-.002-.002a18.204 18.204 0 0 0-1.687-1.484c-7.133-5.563-17.486-5.07-24.043 1.486-6.557 6.557-7.049 16.911-1.486 24.044.456.585.948 1.151 1.486 1.689s1.104 1.03 1.689 1.486c7.133 5.563 17.487 5.072 24.044-1.485 6.557-6.557 7.048-16.911 1.486-24.044Zm-24.044 1.486a13.608 13.608 0 0 1 9.691-4.006c2.904 0 5.665.895 7.972 2.55l-19.118 19.118c-3.831-5.351-3.348-12.859 1.455-17.662Zm19.383 19.383a13.609 13.609 0 0 1-9.69 4.005c-2.905 0-5.666-.896-7.973-2.551l19.118-19.117c3.831 5.351 3.348 12.86-1.455 17.663Z"/></g><defs><clipPath id="a"><path fill="#fff" d="M.078 0h258.297v206H.078z"/></clipPath></defs></svg>
