<svg xmlns="http://www.w3.org/2000/svg" width="230" height="182" fill="none"><path fill="#fff" stroke="#000" stroke-miterlimit="10" stroke-width="1.5" d="M210.86 25.18H.763v137.129H210.86V25.179Z"/><path fill="#C0C3F6" stroke="#000" stroke-miterlimit="10" stroke-width="1.5" d="M210.86.895H.763V25.18H210.86V.895Z"/><path stroke="#000" stroke-linecap="round" stroke-linejoin="round" stroke-width="1.5" d="M11.963 16.907a3.304 3.304 0 1 0-.013-6.61 3.304 3.304 0 0 0 .013 6.61ZM22.907 16.907a3.304 3.304 0 1 0-.014-6.61 3.304 3.304 0 0 0 .014 6.61v0ZM33.843 16.907a3.304 3.304 0 1 0-.014-6.609 3.304 3.304 0 0 0 .014 6.609v0Z"/><path fill="#A77FFA" d="M193.763 102.588h-74.452c-1.373 0-2.489.888-2.489 1.854v45.375c0 1.017 1.11 1.843 2.489 1.843h74.444c1.372 0 2.489-.826 2.489-1.843v-45.375c.008-1.02-1.108-1.854-2.481-1.854Z"/><path fill="#C0C3F6" d="M193.763 42.74h-74.452c-1.373 0-2.489.888-2.489 1.854V89.97c0 1.02 1.11 1.843 2.489 1.843h74.444c1.372 0 2.489-.823 2.489-1.843V44.594c.008-1.019-1.108-1.854-2.481-1.854ZM103.833 102.588H29.382c-1.372 0-2.49.888-2.49 1.854v45.375c0 1.017 1.111 1.843 2.49 1.843h74.444c1.372 0 2.489-.826 2.489-1.843v-45.375c.009-1.02-1.11-1.854-2.482-1.854ZM103.833 42.74H29.382c-1.372 0-2.49.888-2.49 1.854V89.97c0 1.02 1.111 1.843 2.49 1.843h74.444c1.372 0 2.489-.823 2.489-1.843V44.594c.009-1.019-1.11-1.854-2.482-1.854Z"/><path fill="#fff" stroke="#000" stroke-linecap="round" stroke-linejoin="round" stroke-width="1.5" d="M188.617 97.923h-74.451c-1.372 0-2.489.888-2.489 1.854v45.375c0 1.019 1.11 1.845 2.489 1.845h74.444c1.372 0 2.489-.826 2.489-1.845V99.777c.016-1.02-1.11-1.854-2.482-1.854ZM188.617 38.078h-74.451c-1.372 0-2.489.888-2.489 1.851v45.376c0 1.019 1.11 1.845 2.489 1.845h74.444c1.372 0 2.489-.826 2.489-1.845V39.929c.016-1.019-1.11-1.851-2.482-1.851ZM98.688 97.923H24.237c-1.373 0-2.492.888-2.492 1.854v45.375c0 1.019 1.11 1.845 2.491 1.845H98.68c1.372 0 2.491-.826 2.491-1.845V99.777c.006-1.02-1.11-1.854-2.483-1.854ZM98.688 38.078H24.237c-1.373 0-2.492.888-2.492 1.851v45.376c0 1.019 1.11 1.845 2.491 1.845H98.68c1.372 0 2.491-.826 2.491-1.845V39.929c.006-1.019-1.11-1.851-2.483-1.851ZM214.337 180.071l-8.957-22.505 22.568 8.939-6.612 3.195 7.236 7.232-4.121 3.51-7.35-7.651-2.764 7.28Z"/><path fill="#000" d="M163.817 63.183a11.956 11.956 0 1 1-18.599-9.94 11.956 11.956 0 0 1 18.599 9.94Z"/><path fill="#EA3323" d="M141.045 63.183a10.8 10.8 0 0 0 3.602 8.06V55.125a10.794 10.794 0 0 0-3.602 8.058ZM162.694 63.183a10.784 10.784 0 0 0-3.612-8.064v16.133a10.808 10.808 0 0 0 2.67-3.648c.623-1.39.944-2.897.942-4.42Z"/><path fill="#fff" d="M159.075 55.119a10.814 10.814 0 0 0-14.433 0v16.117a10.816 10.816 0 0 0 14.433 0V55.12ZM152.216 66.4c-.08 0-.207.136-.207.222l.074 2.842h-.491l.164-2.826a.272.272 0 0 0-.222-.222c-.928.1-1.776.264-2.697.37l.235-.779a.345.345 0 0 0-.12-.366l-2.707-2.198.558-.264c.251-.08.177-.223.091-.562l-.413-1.501 1.572.333a.24.24 0 0 0 .172-.03.246.246 0 0 0 .108-.139l.202-.708 1.245 1.39c.173.222.533.222.422-.289l-.533-2.822.711.37c.202.112.404.13.515-.068l.961-1.836.993 1.818c.113.198.311.178.513.067l.712-.37-.528 2.823c-.116.513.244.513.422.289l1.241-1.39.202.706a.24.24 0 0 0 .28.169l1.572-.333-.413 1.5c-.087.338-.156.478.091.565l.562.264-2.707 2.198a.341.341 0 0 0-.126.364l.237.78c-.926-.102-1.761-.265-2.691-.367Z"/><path fill="#EA3323" d="m154.805 65.627 2.707-2.198-.562-.264c-.246-.086-.177-.222-.091-.564l.413-1.5-1.572.332a.24.24 0 0 1-.279-.168l-.203-.706-1.241 1.39c-.177.221-.537.221-.422-.29l.529-2.823-.713.37c-.202.111-.399.131-.513-.066l-.992-1.819-.962 1.836c-.111.198-.313.18-.515.07l-.71-.372.533 2.823c.111.515-.249.515-.422.288l-1.246-1.39-.202.709a.24.24 0 0 1-.28.168l-1.572-.333.413 1.501c.087.338.16.482-.091.562l-.557.264 2.707 2.198a.354.354 0 0 1 .12.366l-.236.78c.933-.107 1.776-.27 2.698-.37a.272.272 0 0 1 .222.221l-.164 2.827h.481l-.073-2.842c0-.096.127-.236.206-.222.935.102 1.777.264 2.7.37l-.237-.779a.338.338 0 0 1 .006-.204.352.352 0 0 1 .12-.165Z"/><path fill="#000" d="M73.79 62.833a11.952 11.952 0 1 1-23.903.005 11.952 11.952 0 0 1 23.904-.005Z"/><path fill="#fff" d="M72.625 63.665h-21.57a10.5 10.5 0 0 0 .257 1.663h21.056c.128-.547.214-1.103.257-1.663ZM71.83 66.993H51.847c.242.58.535 1.139.875 1.668H70.95c.34-.53.635-1.088.88-1.668ZM67.465 58.674h4.365a10.965 10.965 0 0 0-.888-1.67h-3.488l.01 1.67ZM67.465 62.002h5.16c-.043-.561-.13-1.118-.257-1.666h-4.903v1.666ZM69.641 70.326H54.037c.61.635 1.295 1.193 2.04 1.663h11.526a10.88 10.88 0 0 0 2.038-1.663ZM67.465 55.34h2.176a10.81 10.81 0 0 0-2.038-1.665h-.138v1.666Z"/><path fill="#A33138" d="m67.603 53.675-.138-.086v.086h.138ZM67.465 57.004h3.489a10.675 10.675 0 0 0-1.313-1.663h-2.176v1.663ZM67.465 60.336h4.903a10.783 10.783 0 0 0-.538-1.663h-4.365v1.663ZM67.465 63.665h5.16c.02-.275.036-.553.036-.833 0-.28-.016-.557-.036-.83h-5.16v1.663ZM72.368 65.328H51.312c.133.57.313 1.126.537 1.665h19.983c.224-.54.403-1.096.536-1.665ZM70.954 68.66h-18.23c.384.596.823 1.154 1.313 1.666h15.605c.49-.51.93-1.069 1.312-1.665ZM56.077 71.989a10.805 10.805 0 0 0 11.526 0H56.077Z"/><path fill="#3B3C6B" d="m66.27 52.962-.068-.033v.033h.067ZM57.778 52.803c-.122.05-.244.102-.364.158h.313l.051-.158Z"/><path fill="#3B3C6B" d="M67.465 62.002v-8.413a9.765 9.765 0 0 0-.937-.51l-.222.164.149.462-.393-.285-.39.285.148-.462-.389-.282h.482l.042-.138a10.825 10.825 0 0 0-7.993-.089l.075.222h.48l-.389.282.15.462-.394-.284-.39.284.148-.462-.324-.235a10.862 10.862 0 0 0-4.791 4.327l.095.296h.486l-.395.284.155.444-.395-.284-.395.284.155-.444-.017-.013a10.767 10.767 0 0 0-1.155 5.764h16.41l-.006-1.659Zm-.946-1.332-.395-.284-.388.284.148-.462-.395-.284h.486l.15-.462.148.462h.486l-.389.284.15.462Zm-12.845.422.15-.458.148.458h.486l-.395.288.149.458-.389-.285-.395.285.153-.458-.393-.288h.486Zm1.304-.875-.395-.284h.486l.149-.462.148.462h.486l-.39.284.148.462-.392-.285-.391.285.15-.462Zm.937-3.742h.486l.149-.461.149.461h.486l-.395.282.148.462-.388-.288-.395.288.155-.462-.395-.282Zm2.726 0h.487l.148-.461.15.461h.485l-.395.282.15.462-.39-.288-.395.288.149-.462-.389-.282Zm1.333-1.174h.48l.15-.462.154.462h.481l-.39.284.148.462-.393-.284-.39.284.148-.462-.388-.284Zm2.726 0h.482l.149-.462.149.462h.486l-.391.284.149.462-.393-.284-.39.284.148-.462-.389-.284Zm-.54 3.468h.482l-.388.284.149.462-.391-.284-.393.284.149-.462-.391-.284h.482l.153-.457.149.457Zm.223 3.069-.389-.285-.395.285.155-.458-.395-.288h.486l.15-.458.148.458h.486l-.395.288.149.458Zm-2.958-3.069h.482l-.39.284.15.462-.395-.284-.389.284.15-.462-.392-.284h.482l.149-.457.153.457Zm.222 3.069-.388-.285-.395.285.148-.458-.388-.288h.486l.149-.458.148.458h.487l-.395.288.148.458Zm-1.354-3.464-.391-.284-.395.284.155-.444-.395-.284h.486l.149-.462.149.462h.508l-.395.284.129.444Zm2.187-.74.149-.461.148.462h.487l-.396.284.151.444-.39-.284-.389.284.149-.444-.395-.284h.486Zm3.266.74-.39-.284-.394.284.153-.444-.395-.284h.502l.149-.462.148.462h.487l-.393.284.133.444Zm-1.372-1.155-.389-.288-.395.288.155-.462-.395-.282h.486l.15-.461.148.461h.486l-.395.282.149.462Zm-7.347.416.148-.462.15.462h.485l-.395.284.156.444-.396-.284-.388.284.149-.444-.395-.284h.486Zm1.514.677.149.457h.482l-.391.284.15.462-.39-.284-.393.284.149-.462-.391-.284h.482l.153-.457Zm.38 3.526-.389-.285-.395.285.155-.458-.395-.288h.486l.15-.458.148.458h.486l-.395.288.149.458Zm.766-1.621-.391-.284h.482l.148-.462.15.462h.485l-.39.284.15.462-.395-.285-.39.285.15-.462Zm2.726 0-.395-.284h.486l.149-.462.149.462h.486l-.39.284.15.462-.395-.285-.389.285.15-.462Zm2.727 0-.39-.284h.48l.15-.462.148.462h.487l-.389.284.149.462-.395-.285-.389.285.149-.462Zm1.96 1.62-.388-.284-.395.285.15-.458-.39-.288h.486l.149-.458.149.458h.486l-.395.288.148.458Zm-.222-3.068h.482l-.388.284.148.462-.39-.284-.394.284.15-.462-.392-.284h.482l.154-.457.148.457Zm1.603-.395-.39-.284-.389.284.149-.444-.395-.284h.486l.149-.462.148.462h.487l-.393.284.148.444Zm-1.372-1.155-.388-.288-.395.288.15-.462-.39-.282h.486l.149-.461.148.461h.487l-.395.282.148.462Zm.79-1.918.15-.462.153.462h.481l-.39.284.148.462-.392-.284-.391.284.148-.462-.388-.284h.482Zm-1.063-1.168h.486l-.395.284.149.462-.389-.284-.395.284.149-.462-.389-.284h.502l.149-.462.133.462Zm-1.663-1.168.149-.462.149.462h.486l-.39.282.148.462-.393-.284-.39.284.148-.462-.389-.282h.482Zm-1.063 1.168h.486l-.395.284.148.462-.388-.284-.395.284.153-.462-.393-.284h.486l.149-.462.149.462Zm-1.666-1.168.151-.462.154.462h.481l-.39.282.148.462-.393-.284-.39.284.148-.462-.388-.282h.48Zm-1.21.706.149.462h.486l-.395.284.149.462-.389-.284-.395.284.149-.462-.389-.284h.487l.148-.462Zm-1.516 1.63.15-.462.154.462h.48l-.389.284.149.462-.393-.284-.391.284.149-.462-.389-.284h.48Zm-1.361-1.168.15-.462.15.462h.486l-.396.284.15.462-.39-.284-.39.28.153-.462-.393-.284.48.004Zm-1.846 1.168h.496l.148-.462.151.462h.485l-.389.284.149.462-.396-.284-.388.284.149-.462-.405-.284Zm-1.332 1.174h.495l.15-.461.148.461h.486l-.395.282.149.462-.389-.288-.395.288.153-.462-.402-.282Zm.644 1.837.149.457h.482l-.391.284.149.462-.389-.284-.395.284.151-.462-.39-.284h.486l.148-.457Zm-1.971 1.62h.49l.149-.461.149.462h.486l-.39.284.148.462-.393-.285-.39.285.148-.462-.397-.284Zm.99 3.074-.393-.29-.391.29.149-.462-.389-.284h.48l.15-.462.154.462h.48l-.389.284.149.462Zm2.727 0-.394-.29-.39.29.148-.462-.388-.284h.482l.148-.462.15.462h.485l-.39.284.148.462Zm2.726 0-.393-.29-.39.29.148-.462-.388-.284h.481l.149-.462.153.462h.482l-.39.284.148.462Zm2.727 0-.393-.29-.391.29.15-.462-.394-.284h.486l.149-.462.148.462h.487l-.391.284.149.462Zm2.728 0-.395-.29-.39.29.15-.462-.39-.284h.497l.149-.462.153.462h.482l-.391.284.135.462Zm2.727 0-.395-.29-.389.29.149-.462-.39-.284h.481l.149-.462.149.462h.486l-.39.284.15.462Z"/><path fill="#fff" d="m57.486 53.704.391-.284.393.284-.148-.462.388-.281h-.48l-.075-.222-.178.068-.05.158h-.314c-.035.015-.069.029-.102.047l.324.235-.148.457ZM60.214 53.706l.388-.284.396.284-.15-.461.39-.285h-.483l-.153-.462-.148.462h-.48l.388.285-.148.461ZM62.94 53.706l.388-.284.396.284-.15-.461.39-.285h-.487l-.149-.462-.148.462h-.482l.39.285-.148.461ZM65.427 52.96l.389.282-.15.462.392-.284.393.284-.15-.462.223-.164c-.087-.042-.175-.08-.262-.118h-.055v-.03l-.252-.107-.042.137h-.486ZM56.122 54.875l.393-.285.39.285-.15-.462.395-.284h-.487l-.148-.462-.15.462h-.485l.395.284-.153.462ZM58.606 54.129l.39.284-.148.462.393-.285.39.285-.148-.462.393-.284h-.486l-.149-.462-.149.462h-.486ZM61.819 54.129h-.487l.395.284-.153.462.393-.285.391.285-.149-.462.393-.284h-.484l-.15-.462-.15.462ZM64.546 54.129h-.485l.39.284-.15.462.393-.285.391.285-.149-.462.393-.284h-.484l-.15-.462-.15.462ZM54.76 56.042l.389-.284.395.284-.15-.461.39-.285h-.486l-.15-.461-.148.461h-.482l.391.285-.149.461ZM57.636 55.58l-.149.462.389-.284.395.284-.149-.461.389-.285h-.482l-.153-.461-.15.461h-.48l.39.285ZM60.214 56.042l.388-.284.396.284-.15-.461.39-.285h-.483l-.153-.461-.148.461h-.48l.388.285-.148.461ZM62.94 56.042l.388-.284.396.284-.15-.461.39-.285h-.487l-.149-.461-.148.461h-.482l.39.285-.148.461ZM65.816 55.58l-.15.462.39-.284.395.284-.15-.461.39-.285h-.48l-.156-.461-.148.461h-.48l.389.285ZM53.428 57.217l.393-.289.39.289-.148-.462.393-.284h-.487l-.148-.462-.15.462h-.486l.396.284-.153.462ZM56.155 57.217l.393-.289.39.289-.148-.462.393-.284h-.484l-.151-.462-.149.462h-.484l.393.284-.153.462ZM58.881 57.217l.393-.289.39.289-.148-.462.393-.284h-.484l-.15-.462-.15.462h-.484l.389.284-.149.462ZM62.636 56.47h-.484l-.151-.46-.149.46h-.484l.393.285-.153.462.393-.289.39.289-.148-.462.393-.284ZM65.362 56.47h-.484l-.148-.46-.151.46h-.484l.388.285-.149.462.395-.289.39.289-.15-.462.393-.284ZM52.072 58.37l.395-.285.395.285-.155-.445.395-.284h-.486l-.096-.295c-.108.184-.222.375-.31.566l.017.013-.155.445ZM54.802 58.37l.391-.282.393.282-.153-.456.393-.284h-.484l-.149-.462-.15.462h-.485l.393.284-.149.456ZM58.069 57.63l-.149-.462-.15.462h-.485l.393.284-.153.456.395-.282.389.282-.149-.456.395-.284h-.486ZM60.256 58.37l.39-.282.39.282-.15-.456.395-.284h-.486l-.148-.462-.15.462h-.486l.393.284-.148.456ZM63.522 57.63l-.15-.462-.148.462h-.486l.395.284-.155.456.395-.282.388.282-.148-.456.395-.284h-.486ZM66.248 57.63l-.148-.462-.15.462h-.485l.393.284-.15.456.392-.282.388.282-.149-.456.396-.284h-.487ZM52.1 60.674l.389-.284.395.284-.15-.462.39-.284h-.485l-.15-.462-.15.462h-.479l.389.284-.15.462ZM55.61 60.674l-.148-.462.388-.284h-.484l-.15-.462-.15.462h-.483l.392.284-.148.462.388-.284.395.284ZM58.338 60.674l-.149-.462.389-.284h-.484l-.15-.462-.15.462h-.48l.389.284-.149.462.39-.284.394.284ZM61.064 60.674l-.15-.462.39-.284h-.485l-.148-.462-.151.462h-.484l.393.284-.15.462.392-.284.393.284ZM63.79 60.674l-.149-.462.389-.284h-.484l-.149-.462-.149.462h-.481l.388.284-.149.462.391-.284.393.284ZM66.76 59.928h-.487l-.149-.462-.15.462h-.485l.393.284-.149.462.391-.284.393.284-.149-.462.391-.284ZM52.609 62.255l-.154-.46-.148.46h-.482l.39.284-.148.462.389-.289.395.289-.149-.462.389-.284h-.482ZM55.33 62.255l-.148-.46-.15.46h-.481l.39.284-.148.462.389-.289.395.289-.149-.462.389-.284h-.487ZM58.064 62.255l-.155-.46-.149.46h-.48l.39.284-.15.462.389-.289.395.289-.149-.462.389-.284h-.48ZM60.786 62.255l-.15-.46-.15.46h-.485l.395.284-.15.462.39-.289.395.289-.149-.462.389-.284h-.485ZM63.517 62.255l-.155-.46-.149.46h-.48l.39.284-.15.462.389-.289.395.289-.148-.462.388-.284h-.48ZM66.24 62.255l-.15-.46-.15.46h-.48l.389.284-.15.462.392-.289.393.289-.15-.462.39-.284h-.485ZM53.197 58.764l.39.285-.15.462.396-.285.388.285-.149-.462.389-.285h-.48l-.148-.457-.156.457h-.48ZM55.924 58.764l.388.285-.149.462.396-.285.388.285-.149-.462.389-.285h-.48l-.148-.457-.156.457h-.48ZM59.13 58.764h-.48l.39.285-.15.462.391-.285.393.285-.148-.462.39-.285h-.482l-.153-.457-.15.457ZM61.859 58.764h-.482l.389.285-.15.462.396-.285.389.285-.15-.462.392-.285h-.482l-.149-.457-.153.457ZM64.586 58.764h-.482l.389.285-.15.462.396-.285.389.285-.15-.462.392-.285h-.482l-.149-.457-.153.457ZM53.428 61.833l.393-.284.39.284-.148-.457.393-.289h-.487l-.148-.457-.15.457h-.486l.396.289-.153.457ZM56.699 61.087l-.151-.457-.149.457h-.484l.393.289-.153.457.393-.284.39.284-.148-.457.393-.289h-.484ZM59.425 61.087l-.15-.457-.15.457h-.484l.389.289-.149.457.393-.284.39.284-.148-.457.393-.289h-.484ZM62.152 61.087l-.151-.457-.149.457h-.484l.393.289-.153.457.393-.284.39.284-.148-.457.393-.289h-.484ZM64.878 61.087l-.148-.457-.151.457h-.484l.388.289-.149.457.395-.284.39.284-.15-.457.393-.289h-.484Z"/><path fill="#000" d="M163.817 123.312a11.955 11.955 0 0 1-14.289 11.727 11.956 11.956 0 1 1 14.289-11.727ZM73.795 123.312a11.956 11.956 0 1 1-23.912 0 11.956 11.956 0 0 1 23.912 0Z"/><path fill="#0067A2" d="M51.099 125.808a11.07 11.07 0 0 0 4.591 6.555v-6.555H51.1ZM60.2 134.108a11.06 11.06 0 0 0 12.38-8.3H60.2v8.3ZM55.691 113.974a11.06 11.06 0 0 0-4.752 7.327h4.752v-7.327ZM61.838 112.106c-.548 0-1.096.041-1.638.122v9.07h12.54a11.068 11.068 0 0 0-10.902-9.192Z"/><path fill="#FED200" d="M55.69 125.808v6.557a11 11 0 0 0 4.51 1.745v-8.299l-4.51-.003ZM60.2 121.299v-9.07a11 11 0 0 0-4.51 1.745v7.327l4.51-.002Z"/><path fill="#FED200" d="M55.691 121.299h-4.752a11.038 11.038 0 0 0 .16 4.509h21.482a11.112 11.112 0 0 0 .16-4.509h-17.05Z"/><path fill="#fff" d="M151.861 112.317c-1.553 0-3.089.327-4.507.962v20.205a11.043 11.043 0 0 0 9.016 0v-20.205a11.016 11.016 0 0 0-4.509-.962Z"/><path fill="#0033A7" d="M140.802 123.379a11.057 11.057 0 0 0 6.552 10.101v-20.206a11.069 11.069 0 0 0-6.552 10.105Z"/><path fill="#F43D45" d="M162.916 123.379a11.063 11.063 0 0 0-6.552-10.1v20.205a11.061 11.061 0 0 0 6.552-10.105Z"/></svg>
