<svg xmlns="http://www.w3.org/2000/svg" width="311" height="157" fill="none" viewBox="0 0 311 157"><path fill="#C0C3F6" d="M265.52 55.361h-32.999c-3.647 0-6.604 2.967-6.604 6.626v56.866c0 3.659 2.957 6.626 6.604 6.626h32.999c3.648 0 6.605-2.967 6.605-6.626V61.987c0-3.66-2.957-6.626-6.605-6.626Z"/><path fill="#fff" stroke="#000" stroke-linecap="round" stroke-linejoin="round" d="M225.761 12.408H121.03c-2.85 0-5.161 2.318-5.161 5.178v64.958c0 2.86 2.311 5.178 5.161 5.178h104.731c2.85 0 5.161-2.318 5.161-5.178V17.586c0-2.86-2.311-5.178-5.161-5.178Z"/><path fill="#fff" stroke="#000" stroke-linecap="round" stroke-linejoin="round" d="M226.005 16.707H120.789v64.467h105.216V16.707ZM182.362 87.723h-17.931v21.922h17.931V87.723Z"/><path stroke="#000" stroke-linecap="round" stroke-linejoin="round" d="M148.742 109.645h49.308"/><path fill="#000" d="M182.396 46.616a3.475 3.475 0 0 0-3.426-2.141 3.465 3.465 0 0 0-1.973.776 3.48 3.48 0 0 0-1.155 1.783h-4.901a2.46 2.46 0 0 0-.139-.418 2.313 2.313 0 0 0-.188-.378l1.749-1.755a3.464 3.464 0 0 0 3.087.183 3.474 3.474 0 0 0 1.872-1.9 3.485 3.485 0 0 0-.019-2.672 3.485 3.485 0 0 0-1.282-1.55 3.468 3.468 0 0 0-1.922-.581 3.445 3.445 0 0 0-2.888 1.535 3.529 3.529 0 0 0-.594 1.952 3.41 3.41 0 0 0 .436 1.687l-1.774 1.777a3.466 3.466 0 0 0-1.679-.431 3.457 3.457 0 0 0-2.464 1.019 3.484 3.484 0 0 0-1.018 2.47c-.001.468.093.93.275 1.361a3.514 3.514 0 0 0 1.259 1.536 3.474 3.474 0 0 0 4.83-.946c.211-.306.368-.647.463-1.008h4.888c.037.143.086.283.145.418.047.11.1.219.158.324l-1.772 1.78a3.434 3.434 0 0 0-1.679-.434 3.458 3.458 0 0 0-2.89 1.537 3.528 3.528 0 0 0-.593 1.952c-.001.468.093.93.275 1.361a3.515 3.515 0 0 0 1.261 1.536 3.478 3.478 0 0 0 4.928-1.1 3.509 3.509 0 0 0 .501-1.797 3.527 3.527 0 0 0-.464-1.734l1.743-1.75a3.475 3.475 0 0 0 4.616-1.08 3.532 3.532 0 0 0 .334-3.313Zm-9.769-5.788c.121-.287.323-.533.58-.708.264-.18.577-.277.897-.276a1.591 1.591 0 0 1 1.337.718 1.6 1.6 0 0 1 .267.89 1.595 1.595 0 0 1-.71 1.337 1.565 1.565 0 0 1-.894.276c-.213 0-.424-.043-.622-.125a1.613 1.613 0 0 1-.71-.586 1.63 1.63 0 0 1-.145-1.526Zm-3.544 7.775a1.606 1.606 0 0 1-2.165.83 1.606 1.606 0 0 1-.91-1.304 1.632 1.632 0 0 1 .119-.781c.122-.286.323-.532.579-.707.265-.181.579-.278.899-.276.214-.002.426.041.622.126a1.618 1.618 0 0 1 .856 2.112Zm5.089 6.52a1.6 1.6 0 0 1-2.81.273 1.59 1.59 0 0 1-.27-.902 1.557 1.557 0 0 1 .127-.624 1.594 1.594 0 0 1 .872-.867 1.594 1.594 0 0 1 1.227.008 1.596 1.596 0 0 1 .981 1.483c0 .217-.045.432-.132.631l.005-.002Zm6.501-6.52a1.606 1.606 0 0 1-1.325.977 1.597 1.597 0 0 1-1.485-.706 1.618 1.618 0 0 1 .433-2.233 1.587 1.587 0 0 1 1.522-.15 1.616 1.616 0 0 1 .855 2.112Z"/><path fill="#6A45E3" stroke="#000" stroke-miterlimit="10" d="m81.22 48.453 3.224-1.67a11.784 11.784 0 0 0 4.74-4.468 11.837 11.837 0 0 0 1.652-6.31l-.215-9.645-9.99-3.827h-.16l-9.832 4.257.215 9.644a12.016 12.016 0 0 0 2.31 6.79 11.361 11.361 0 0 0 4.566 3.718l3.33 1.513.16-.002Z"/><path fill="#fff" d="M79.123 39.505a.684.684 0 0 1-.537-.216l-2.794-2.647a.763.763 0 0 1 .537-1.301c.202 0 .395.08.538.223l2.212 2.163 5.533-5.928a.761.761 0 0 1 1.326.472c.01.203-.06.4-.195.551L79.67 39.29a.713.713 0 0 1-.537.216h-.011Z"/><path stroke="#000" stroke-miterlimit="10" d="M38.875 136.031v1.715a1.915 1.915 0 0 0 1.908 1.912h57.915"/><path fill="#fff" d="M139.827 122.29a2.692 2.692 0 0 0 1.916-.796 2.718 2.718 0 0 0 .793-1.923V69.719c0-.721-.286-1.413-.794-1.923a2.706 2.706 0 0 0-1.917-.796H57.099c-.72 0-1.409.287-1.917.796a2.724 2.724 0 0 0-.794 1.923v49.852a2.721 2.721 0 0 0 1.673 2.512c.33.137.682.207 1.038.207"/><path stroke="#000" stroke-miterlimit="10" d="M139.827 122.29a2.692 2.692 0 0 0 1.916-.796 2.718 2.718 0 0 0 .793-1.923V69.719c0-.721-.286-1.413-.794-1.923a2.706 2.706 0 0 0-1.917-.796H57.099c-.72 0-1.409.287-1.917.796a2.724 2.724 0 0 0-.794 1.923v49.852a2.721 2.721 0 0 0 1.673 2.512c.33.137.682.207 1.038.207"/><path fill="#fff" d="M96.41 137.268h60.179a1.454 1.454 0 0 0 1.403-1.848 1.451 1.451 0 0 0-.478-.739l-14.576-12.057a1.448 1.448 0 0 0-.925-.333H54.909c-.338 0-.666.117-.927.333l-14.574 12.057a1.458 1.458 0 0 0-.445 1.62 1.46 1.46 0 0 0 1.37.967h60.18"/><path stroke="#000" stroke-miterlimit="10" d="M96.41 137.268h60.179a1.454 1.454 0 0 0 1.403-1.848 1.451 1.451 0 0 0-.478-.739l-14.576-12.057a1.448 1.448 0 0 0-.925-.333H54.909c-.338 0-.666.117-.927.333l-14.574 12.057a1.458 1.458 0 0 0-.445 1.62 1.46 1.46 0 0 0 1.37.967h60.18"/><path fill="#C3C4FD" d="M86.76 134.83h37.059l-6.033-6.773H55.585l-6.031 6.773H86.76Z"/><path stroke="#000" stroke-miterlimit="10" d="M158.046 136.031v1.715a1.912 1.912 0 0 1-1.905 1.912H98.225"/><path stroke="#000" stroke-linecap="round" stroke-linejoin="round" d="M98.542 132.008h40.976l-6.67-7.488H64.075l-6.67 7.488h41.137Z"/><path fill="#fff" stroke="#000" stroke-linecap="round" stroke-linejoin="round" d="M137.731 70.482h-78.59v48.687h78.59V70.482Z"/><path fill="#000" d="M107.697 93.286a3.485 3.485 0 0 0-1.282-1.55 3.468 3.468 0 0 0-1.922-.581 3.445 3.445 0 0 0-3.346 2.547h-4.9a2.447 2.447 0 0 0-.14-.416 2.3 2.3 0 0 0-.189-.378l1.747-1.753a3.457 3.457 0 0 0 1.733.46 3.41 3.41 0 0 0 1.353-.277 3.482 3.482 0 0 0 1.727-1.585 3.492 3.492 0 0 0-.875-4.334 3.47 3.47 0 0 0-2.205-.786 3.462 3.462 0 0 0-2.464 1.019 3.481 3.481 0 0 0-1.018 2.47 3.464 3.464 0 0 0 .436 1.684l-1.772 1.78a3.454 3.454 0 0 0-1.682-.431 3.444 3.444 0 0 0-2.887 1.535 3.527 3.527 0 0 0-.594 1.952 3.5 3.5 0 0 0 1.536 2.897c.574.39 1.252.597 1.945.595a3.475 3.475 0 0 0 2.882-1.539c.212-.306.37-.647.464-1.008h4.89a3.311 3.311 0 0 0 .305.741l-1.774 1.778a3.457 3.457 0 0 0-1.68-.431c-.465 0-.926.092-1.356.27a3.482 3.482 0 0 0-1.545 1.287 3.5 3.5 0 0 0 .955 4.825 3.483 3.483 0 0 0 3.579.182 3.496 3.496 0 0 0 1.85-3.079 3.537 3.537 0 0 0-.276-1.358 4.004 4.004 0 0 0-.189-.378l1.744-1.75a3.468 3.468 0 0 0 1.734.46 3.484 3.484 0 0 0 2.899-1.562 3.53 3.53 0 0 0 .317-3.287Zm-9.77-5.79c.122-.287.324-.533.581-.707a1.6 1.6 0 0 1 2.234.443 1.621 1.621 0 0 1-.203 2.028 1.61 1.61 0 0 1-1.134.475 1.611 1.611 0 0 1-1.333-.713 1.589 1.589 0 0 1-.269-.9c0-.215.043-.428.126-.626h-.002Zm-3.543 7.775a1.609 1.609 0 0 1-1.324.978 1.6 1.6 0 0 1-1.487-.705 1.596 1.596 0 0 1-.271-.902 1.62 1.62 0 0 1 .705-1.331 1.593 1.593 0 0 1 1.521-.152 1.602 1.602 0 0 1 .982 1.483c.002.216-.041.43-.126.63Zm5.09 6.52a1.615 1.615 0 0 1-.874.867 1.6 1.6 0 0 1-1.229-.008 1.656 1.656 0 0 1-.708-.586 1.627 1.627 0 0 1-.146-1.526 1.605 1.605 0 0 1 1.478-.983c.214-.002.426.041.622.126a1.594 1.594 0 0 1 .98 1.483c0 .215-.043.429-.128.627h.004Zm6.498-6.52a1.6 1.6 0 0 1-2.164.83 1.6 1.6 0 0 1-.909-1.302 1.612 1.612 0 0 1 1.595-1.766 1.608 1.608 0 0 1 1.474 2.239h.004Z"/><path stroke="#000" stroke-miterlimit="10" d="M251.558 33.676a1.05 1.05 0 0 0 0-1.484 1.043 1.043 0 0 0-1.479 0 1.053 1.053 0 0 0 0 1.484c.409.41 1.071.41 1.479 0ZM64.298 52.32a1.046 1.046 0 1 0-2.036-.482 1.046 1.046 0 1 0 2.036.482Z"/><path stroke="#000" stroke-linecap="round" stroke-miterlimit="10" d="M58.512 46.965v2.222M57.404 48.076h2.217M245.545 26.06v2.222M244.437 27.172h2.215"/><path fill="#fff" stroke="#000" stroke-miterlimit="10" d="M260.011 49.834h-33c-3.647 0-6.604 2.966-6.604 6.626v56.865c0 3.66 2.957 6.626 6.604 6.626h33c3.647 0 6.604-2.966 6.604-6.626V56.46c0-3.66-2.957-6.626-6.604-6.626Z"/><path fill="#fff" stroke="#000" stroke-miterlimit="10" d="M266.615 54.676h-46.208v60.433h46.208V54.676Z"/><path fill="#000" d="M250.17 76.563a2.585 2.585 0 0 0-.912-1.148 2.544 2.544 0 0 0-1.429-.463 2.623 2.623 0 0 0-1.005.189 2.604 2.604 0 0 0-1.146.915 2.54 2.54 0 0 0-.35.741l-3.61-.058a1.69 1.69 0 0 0-.098-.31 1.938 1.938 0 0 0-.137-.282l1.319-1.273a2.562 2.562 0 0 0 3.22-.486 2.582 2.582 0 0 0-.731-4.02 2.559 2.559 0 0 0-2.117-.108 2.554 2.554 0 0 0-1.414 1.371c-.135.31-.206.645-.211.984a2.558 2.558 0 0 0 .303 1.25l-1.331 1.291a2.536 2.536 0 0 0-1.234-.339 2.553 2.553 0 0 0-1.83.722 2.58 2.58 0 0 0 .32 3.966 2.562 2.562 0 0 0 3.936-1.376l3.606.058c.027.106.061.209.101.31.036.082.074.165.115.24l-1.319 1.292a2.556 2.556 0 0 0-2.241-.15 2.576 2.576 0 0 0-1.418 3.357c.189.462.505.86.912 1.148.419.295.917.457 1.429.463a2.549 2.549 0 0 0 2.145-1.102 2.548 2.548 0 0 0 .277-2.438 4.064 4.064 0 0 0-.133-.283l1.308-1.271c.385.23.825.355 1.274.361a2.573 2.573 0 0 0 1.828-.727 2.591 2.591 0 0 0 .784-1.809 2.625 2.625 0 0 0-.211-1.015Zm-7.14-4.391a1.176 1.176 0 0 1 1.103-.703 1.18 1.18 0 0 1 1.163 1.206 1.193 1.193 0 0 1-.544.983 1.181 1.181 0 0 1-1.822-1.023c.001-.16.035-.317.1-.463Zm-2.71 5.696a1.19 1.19 0 0 1-1.567.607 1.177 1.177 0 0 1-.706-1.108c.002-.16.036-.316.099-.462a1.23 1.23 0 0 1 .438-.514 1.178 1.178 0 0 1 1.131-.093 1.184 1.184 0 0 1 .605 1.57Zm3.675 4.873a1.187 1.187 0 0 1-1.603.582 1.19 1.19 0 0 1-.659-.972 1.186 1.186 0 0 1 .1-.579 1.188 1.188 0 0 1 1.101-.709 1.188 1.188 0 0 1 1.084.76c.114.294.107.621-.019.91l-.004.008Zm4.875-4.728a1.179 1.179 0 0 1-1.561.607 1.191 1.191 0 0 1-.605-1.575 1.181 1.181 0 0 1 2.265.497c-.001.16-.035.318-.099.464v.007Z"/><path fill="#fff" stroke="#000" stroke-miterlimit="10" d="M231.716 142.778V94.936a3.62 3.62 0 0 0-1.054-2.553 3.593 3.593 0 0 0-2.545-1.057h-23.22c-.954 0-1.869.381-2.544 1.058a3.614 3.614 0 0 0-1.054 2.552v47.842a3.615 3.615 0 0 0 2.221 3.335c.437.181.905.274 1.377.274h23.224a3.59 3.59 0 0 0 2.542-1.058 3.617 3.617 0 0 0 1.053-2.551Z"/><path fill="#fff" stroke="#000" stroke-miterlimit="10" d="m224.898 143.874-19.038.051a1.921 1.921 0 0 1-1.926-1.912l-.354-46.871a1.746 1.746 0 0 1 .51-1.259 1.732 1.732 0 0 1 1.258-.504h2.786a.566.566 0 0 1 .546.475 2.72 2.72 0 0 0 2.683 2.27h10.385a2.72 2.72 0 0 0 1.747-.635c.49-.41.821-.98.936-1.61a.585.585 0 0 1 .565-.485h2.19a2.64 2.64 0 0 1 1.467.896c.376.455.589 1.022.607 1.612l-.042 9.555v36.513a1.917 1.917 0 0 1-.57 1.371 1.905 1.905 0 0 1-1.373.556l-2.377-.023Z"/><path fill="#000" d="M223.238 113.842a2.574 2.574 0 0 0-2.341-1.613 2.634 2.634 0 0 0-1.004.189 2.604 2.604 0 0 0-1.144.915 2.497 2.497 0 0 0-.351.741l-3.61-.058a1.966 1.966 0 0 0-.1-.31 1.513 1.513 0 0 0-.137-.28l1.319-1.273a2.58 2.58 0 0 0 3.419-.739 2.586 2.586 0 0 0 .184-2.651 2.574 2.574 0 0 0-2.246-1.402 2.593 2.593 0 0 0-2.149 1.105 2.586 2.586 0 0 0-.16 2.683l-1.319 1.29a2.564 2.564 0 0 0-1.235-.339 2.555 2.555 0 0 0-2.15 1.099c-.292.422-.453.92-.462 1.433a2.586 2.586 0 0 0 1.101 2.156c.418.295.916.457 1.428.463a2.49 2.49 0 0 0 1.001-.189 2.536 2.536 0 0 0 1.146-.913c.159-.225.278-.475.353-.74l3.608.061c.025.105.059.208.101.308.033.083.071.164.113.242l-1.329 1.29a2.55 2.55 0 0 0-2.239-.15 2.577 2.577 0 0 0-1.419 3.357c.188.463.504.862.912 1.15a2.562 2.562 0 0 0 3.072-.094 2.577 2.577 0 0 0 .781-2.983 2.754 2.754 0 0 0-.134-.286l1.308-1.268c.386.229.824.354 1.272.361a2.579 2.579 0 0 0 2.159-1.12c.287-.417.444-.91.454-1.416a2.602 2.602 0 0 0-.202-1.019Zm-7.14-4.391a1.195 1.195 0 0 1 .991-.707 1.187 1.187 0 1 1-.378 2.273 1.214 1.214 0 0 1-.517-.443 1.206 1.206 0 0 1-.088-1.134l-.008.011Zm-2.708 5.694a1.192 1.192 0 0 1-1.103.709 1.182 1.182 0 0 1-.974-.543 1.146 1.146 0 0 1-.189-.667 1.19 1.19 0 0 1 .535-.974 1.14 1.14 0 0 1 .668-.189 1.178 1.178 0 0 1 .977.546 1.185 1.185 0 0 1 .086 1.118Zm3.673 4.875a1.187 1.187 0 0 1-2.077.166 1.196 1.196 0 0 1-.042-1.223c.104-.189.258-.346.444-.453a1.175 1.175 0 0 1 1.07-.06 1.18 1.18 0 0 1 .598 1.57h.007Zm4.875-4.728a1.187 1.187 0 0 1-1.103.707 1.186 1.186 0 0 1-.974-.54 1.21 1.21 0 0 1-.089-1.129c.093-.211.245-.39.437-.515.198-.129.43-.195.666-.189.158.002.314.036.458.1a1.18 1.18 0 0 1 .605 1.561v.005Z"/></svg>
