<svg xmlns="http://www.w3.org/2000/svg" xml:space="preserve" viewBox="0 0 260 260">
  <path fill="#ee3aa6" d="M236.4 59.1V35.5h-23.7V11.8h-47.2v23.7h-23.7v23.6h-23.6V35.5H94.5V11.8H47.3v23.7H23.6v23.6H0v71h23.6v23.6h23.7v23.6h23.6V201h23.6v23.5h23.7v23.7h23.6v-23.7h23.7V201h23.6v-23.7h23.6v-23.6h23.7v-23.6H260v-71z"/>
  <path d="M94.5 82.8h70.9v70.9H94.5z"/>
  <path fill="#fff" d="M159.5 133h-12.7v-16.3c0-5-1.8-6.9-5.2-6.9-4.1 0-5.8 2.9-5.8 6.8v10h4v6.3h-12.7v-16.2c0-5-1.8-6.9-5.2-6.9-4.1 0-5.8 2.9-5.8 6.8v10h5.8v6.3h-18.6v-6.3h4v-16.3h-4V104H116v4.3c1.9-3.1 5-4.9 9.2-4.9 4.3 0 8.4 2 9.8 6.2 1.7-3.8 5.1-6.2 9.8-6.2 5.5 0 10.4 3.2 10.4 9.9v13.3h4.1v6.4z"/>
</svg>
