<svg xmlns="http://www.w3.org/2000/svg" width="454" height="438" fill="none"><path stroke="#000" stroke-linecap="round" stroke-linejoin="round" stroke-miterlimit="10" stroke-width="4.533" d="M266.771 416.907h169.162M186.984 434.932h169.162"/><path fill="#A883F8" d="M367.159 363.414a37.768 37.768 0 0 0-32.94 19.26l-.09.155h-1.186a26.146 26.146 0 0 0-25.68 21.215H435.33a18.749 18.749 0 0 0-21.917-18.187 18.752 18.752 0 0 0-9.539 4.698l-.352.322-.137-.459a37.815 37.815 0 0 0-36.226-27.004Z"/><path stroke="#000" stroke-linecap="round" stroke-linejoin="round" stroke-miterlimit="10" stroke-width="4.533" d="M396.534 416.906h-165.36c2.807-16.157 16.717-28.421 33.451-28.421.435 0 .876.006 1.305.024 8.391-15.094 24.345-25.285 42.647-25.285 22.157 0 40.876 14.942 46.896 35.434 4.362-4.08 10.184-6.571 16.585-6.571 13.516 0 24.476 11.116 24.476 24.819Z"/><path fill="#EA5E65" d="M122.867 140.075h-23.72v23.732h23.72v-23.732Z"/><path fill="#EA5E65" d="M146.588 140.075h-23.721v23.732h23.721v-23.732ZM241.469 140.075h-23.721v23.732h23.721v-23.732ZM265.189 140.075h-23.72v23.732h23.72v-23.732ZM99.147 163.806h-23.72v23.732h23.72v-23.732Z"/><path fill="#EA5E65" d="M122.867 163.806h-23.72v23.732h23.72v-23.732Z"/><path fill="#EA5E65" d="M146.588 163.806h-23.721v23.732h23.721v-23.732ZM170.308 163.806h-23.72v23.732h23.72v-23.732ZM217.748 163.806h-23.72v23.732h23.72v-23.732ZM241.469 163.806h-23.721v23.732h23.721v-23.732ZM265.189 163.806h-23.72v23.732h23.72v-23.732ZM288.91 163.806h-23.721v23.732h23.721v-23.732ZM75.426 187.539h-23.72v23.732h23.72v-23.732ZM99.147 187.539h-23.72v23.732h23.72v-23.732ZM122.867 187.539h-23.72v23.732h23.72v-23.732Z"/><path fill="#EA5E65" d="M146.588 187.539h-23.721v23.732h23.721v-23.732ZM170.308 187.539h-23.72v23.732h23.72v-23.732ZM194.028 187.539h-23.72v23.732h23.72v-23.732ZM217.748 187.539h-23.72v23.732h23.72v-23.732ZM241.469 187.539h-23.721v23.732h23.721v-23.732ZM265.189 187.539h-23.72v23.732h23.72v-23.732ZM288.91 187.539h-23.721v23.732h23.721v-23.732Z"/><path fill="#EA5E65" d="M312.629 187.539h-23.72v23.732h23.72v-23.732ZM75.426 211.272h-23.72v23.732h23.72v-23.732ZM99.147 211.272h-23.72v23.732h23.72v-23.732ZM122.867 211.272h-23.72v23.732h23.72v-23.732Z"/><path fill="#EA5E65" d="M146.588 211.272h-23.721v23.732h23.721v-23.732Z"/><path fill="#000" d="M170.308 211.272h-23.72v23.732h23.72v-23.732ZM194.028 211.272h-23.72v23.732h23.72v-23.732ZM217.748 211.272h-23.72v23.732h23.72v-23.732Z"/><path fill="#EA5E65" d="M241.469 211.272h-23.721v23.732h23.721v-23.732ZM265.189 211.272h-23.72v23.732h23.72v-23.732ZM288.91 211.272h-23.721v23.732h23.721v-23.732Z"/><path fill="#EA5E65" d="M312.629 211.272h-23.72v23.732h23.72v-23.732ZM99.147 235.004h-23.72v23.732h23.72v-23.732ZM75.426 235.004h-23.72v23.732h23.72v-23.732ZM122.867 235.004h-23.72v23.732h23.72v-23.732Z"/><path fill="#EA5E65" d="M146.588 235.004h-23.721v23.732h23.721v-23.732Z"/><path fill="#000" d="M170.308 235.004h-23.72v23.732h23.72v-23.732ZM194.028 235.004h-23.72v23.732h23.72v-23.732ZM217.748 235.004h-23.72v23.732h23.72v-23.732Z"/><path fill="#EA5E65" d="M241.469 235.004h-23.721v23.732h23.721v-23.732ZM265.189 235.004h-23.72v23.732h23.72v-23.732ZM288.91 235.004h-23.721v23.732h23.721v-23.732Z"/><path fill="#EA5E65" d="M312.629 235.004h-23.72v23.732h23.72v-23.732ZM99.147 258.736h-23.72v23.732h23.72v-23.732ZM122.867 258.736h-23.72v23.732h23.72v-23.732Z"/><path fill="#EA5E65" d="M122.867 282.349h-23.72v23.732h23.72v-23.732Z"/><path fill="#EA5E65" d="M146.588 258.736h-23.721v23.732h23.721v-23.732Z"/><path fill="#000" d="M170.308 258.736h-23.72v23.732h23.72v-23.732ZM194.028 258.736h-23.72v23.732h23.72v-23.732ZM217.748 258.736h-23.72v23.732h23.72v-23.732Z"/><path fill="#EA5E65" d="M241.469 258.736h-23.721v23.732h23.721v-23.732ZM265.189 258.736h-23.72v23.732h23.72v-23.732Z"/><path fill="#EA5E65" d="M265.189 282.349h-23.72v23.732h23.72v-23.732ZM288.91 258.736h-23.721v23.732h23.721v-23.732ZM146.588 282.467h-23.721V306.2h23.721v-23.733Z"/><path fill="#EA5E65" d="M146.588 306.081h-23.721v23.732h23.721v-23.732ZM170.308 282.467h-23.72V306.2h23.72v-23.733ZM194.028 282.467h-23.72V306.2h23.72v-23.733ZM217.748 282.467h-23.72V306.2h23.72v-23.733ZM241.469 282.467h-23.721V306.2h23.721v-23.733Z"/><path fill="#EA5E65" d="M241.469 306.081h-23.721v23.732h23.721v-23.732ZM170.308 306.199h-23.72v23.732h23.72v-23.732Z"/><path fill="#EA5E65" d="M170.308 329.814h-23.72v23.732h23.72v-23.732ZM194.028 306.199h-23.72v23.732h23.72v-23.732ZM217.748 306.199h-23.72v23.732h23.72v-23.732Z"/><path fill="#EA5E65" d="M217.748 329.814h-23.72v23.732h23.72v-23.732ZM194.028 329.933h-23.72v23.732h23.72v-23.732Z"/><path fill="#EA5E65" d="M194.028 353.546h-23.72v23.732h23.72v-23.732Z"/><path fill="#fff" d="M211.738 261.641h-12.755v-16.406c0-5.041-1.762-6.918-5.184-6.918-4.148 0-5.807 2.866-5.807 6.819v10.081h4.044v6.326h-12.755v-16.308c0-5.041-1.763-6.918-5.185-6.918-4.148 0-5.807 2.866-5.807 6.819v10.081h5.807v6.326h-18.665v-6.326h4.044V238.91h-4.044v-6.326h12.754v4.349c1.867-3.064 4.978-4.942 9.229-4.942 4.356 0 8.4 1.977 9.852 6.227 1.659-3.855 5.081-6.227 9.851-6.227 5.496 0 10.473 3.163 10.473 9.982v13.343h4.148v6.325Z"/><path stroke="#000" stroke-miterlimit="10" stroke-width="3.4" d="M295.894 79.826a2.995 2.995 0 1 0 0-5.99 2.995 2.995 0 0 0 0 5.99Z"/><path fill="#000" fill-rule="evenodd" d="M393.625 136.903a2.266 2.266 0 1 0-4.533 0v2.045h-2.045a2.266 2.266 0 1 0 0 4.533h2.045v2.046a2.267 2.267 0 0 0 4.533 0v-2.046h2.046a2.267 2.267 0 0 0 0-4.533h-2.046v-2.045ZM9.274 358.912a2.266 2.266 0 1 0-4.533 0v2.045H2.696a2.267 2.267 0 0 0 0 4.533H4.74v2.046a2.267 2.267 0 1 0 4.533 0v-2.046h2.046a2.266 2.266 0 1 0 0-4.533H9.274v-2.045Z" clip-rule="evenodd"/></svg>
