<svg width="260" height="260" fill="none" xmlns="http://www.w3.org/2000/svg"><path d="M236.4 59.1V35.5h-23.7V11.8h-47.2v23.7h-23.7v23.6h-23.6V35.5H94.5V11.8H47.3v23.7H23.6v23.6H0v71h23.6v23.6h23.7v23.6h23.6V201h23.6v23.5h23.7v23.7h23.6v-23.7h23.7V201h23.6v-23.7h23.6v-23.6h23.7v-23.6H260v-71h-23.6Z" fill="#FF97E2"/><g clip-path="url(#a)"><path d="M114.98 160H106V90h8.98v70Zm7.354-34.294h35.56v-2.012l-23.175-8.409v-7.057l23.175-8.378v-2.042H130.44V90H166v14.264l-18.865 6.487v2.012L166 119.249v14.265h-43.666v-7.808Zm0-27.898h8.106v8.078h-8.106v-8.078Z" fill="#000"/></g><defs><clipPath id="a"><path fill="#fff" transform="translate(106 90)" d="M0 0h60v70H0z"/></clipPath></defs></svg>