<svg xmlns="http://www.w3.org/2000/svg" width="484" height="399" fill="none"><path fill="#fff" stroke="#000" stroke-miterlimit="10" stroke-width="3" d="M256.57 32.197a6.185 6.185 0 1 0 0-12.37 6.185 6.185 0 0 0 0 12.37Z"/><path fill="#fff" stroke="#000" stroke-miterlimit="10" stroke-width="2.425" d="M32.228 78.963a4.998 4.998 0 1 0 0-9.998 5 5 0 0 0 0 9.998Z"/><path fill="#fff" d="M6.183 352.069h10Z"/><path stroke="#000" stroke-linecap="round" stroke-miterlimit="10" stroke-width="2.021" d="M6.183 352.069h10"/><path fill="#fff" d="M11.184 357.069v-9.999Z"/><path stroke="#000" stroke-linecap="round" stroke-miterlimit="10" stroke-width="2.021" d="M11.184 357.069v-9.999"/><path fill="#fff" d="M273.09 55.947h14.844Z"/><path stroke="#000" stroke-linecap="round" stroke-miterlimit="10" stroke-width="3" d="M273.09 55.947h14.844"/><path fill="#fff" d="M280.512 63.367V48.526Z"/><path stroke="#000" stroke-linecap="round" stroke-miterlimit="10" stroke-width="3" d="M280.512 63.367V48.526"/><path stroke="#000" stroke-linecap="round" stroke-linejoin="round" stroke-width="3" d="M169.217 329.731c6.617.002 13.225-.466 19.775-1.402"/><path fill="#fff" d="M323.404 242.926a163.342 163.342 0 0 0 4.498-38.156c0-89.921-72.897-162.816-162.818-162.816-89.92 0-162.816 72.895-162.816 162.816s72.895 162.815 162.816 162.815a162.589 162.589 0 0 0 51.669-8.369"/><path stroke="#000" stroke-miterlimit="10" stroke-width="3" d="M323.404 242.926a163.342 163.342 0 0 0 4.498-38.156c0-89.921-72.897-162.816-162.818-162.816-89.92 0-162.816 72.895-162.816 162.816s72.895 162.815 162.816 162.815a162.589 162.589 0 0 0 51.669-8.369"/><path fill="#fff" d="M294.652 206.376c0-73.183-59.326-132.509-132.509-132.509-73.182 0-132.508 59.326-132.508 132.509 0 73.182 59.326 132.508 132.508 132.508"/><path stroke="#000" stroke-miterlimit="10" stroke-width="3" d="M294.652 206.376c0-73.183-59.326-132.509-132.509-132.509-73.182 0-132.508 59.326-132.508 132.509 0 73.182 59.326 132.508 132.508 132.508M11.183 386.031v5.062a5.644 5.644 0 0 0 5.644 5.643H188.28"/><path fill="#fff" d="M310.036 345.487a8.022 8.022 0 0 0 8.022-8.023V190.358h-.008a8.023 8.023 0 0 0-8.023-8.023H65.124a8.023 8.023 0 0 0-8.022 8.023v147.106a8.023 8.023 0 0 0 8.022 8.023"/><path stroke="#000" stroke-miterlimit="10" stroke-width="3" d="M310.036 345.487a8.022 8.022 0 0 0 8.022-8.023V190.358h-.008a8.023 8.023 0 0 0-8.023-8.023H65.124a8.023 8.023 0 0 0-8.022 8.023v147.106a8.023 8.023 0 0 0 8.022 8.023"/><path fill="#fff" d="M181.506 389.683h178.153c4.041 0 5.859-5.062 2.741-7.634l-43.148-35.578a4.311 4.311 0 0 0-2.741-.984H58.649c-1 0-1.97.348-2.741.984L12.76 382.049c-3.119 2.572-1.3 7.634 2.741 7.634h178.152"/><path stroke="#000" stroke-miterlimit="10" stroke-width="3" d="M181.506 389.683h178.153c4.041 0 5.859-5.062 2.741-7.634l-43.148-35.578a4.311 4.311 0 0 0-2.741-.984H58.649c-1 0-1.97.348-2.741.984L12.76 382.049c-3.119 2.572-1.3 7.634 2.741 7.634h178.152"/><path stroke="#000" stroke-miterlimit="10" stroke-width="3" d="M363.976 386.031v5.062a5.643 5.643 0 0 1-5.643 5.643H186.879"/><path fill="#fff" stroke="#000" stroke-miterlimit="10" stroke-width="3" d="M187.819 374.168h121.306l-19.747-22.099H85.782l-19.747 22.099h121.784ZM303.83 192.608H71.177v143.671H303.83V192.608Z"/><path fill="#000" d="M214.144 242.856a10.344 10.344 0 0 0-3.732-4.532 10.271 10.271 0 0 0-5.761-1.758c-1.415 0-2.773.286-4.017.801a10.42 10.42 0 0 0-4.532 3.731c-.6.9-1.072 1.916-1.358 2.988h-14.481a7.293 7.293 0 0 0-.415-1.23 6.826 6.826 0 0 0-.572-1.115l5.176-5.175h.014a10.265 10.265 0 0 0 5.132 1.358 10.12 10.12 0 0 0 4.003-.815 10.229 10.229 0 0 0 4.532-3.717 10.29 10.29 0 0 0 1.772-5.776c0-1.414-.3-2.773-.815-4.002a10.336 10.336 0 0 0-3.731-4.532 10.266 10.266 0 0 0-5.761-1.758c-1.415 0-2.774.285-4.017.801a10.414 10.414 0 0 0-4.532 3.731 10.38 10.38 0 0 0-1.758 5.76 10.172 10.172 0 0 0 1.286 4.976l-5.246 5.247a10.284 10.284 0 0 0-4.975-1.273c-1.416 0-2.774.286-4.017.801a10.414 10.414 0 0 0-4.532 3.731 10.376 10.376 0 0 0-1.758 5.761c0 1.415.285 2.787.815 4.017a10.33 10.33 0 0 0 3.731 4.532 10.232 10.232 0 0 0 5.761 1.758 10.12 10.12 0 0 0 4.003-.815 10.164 10.164 0 0 0 4.531-3.731 9.555 9.555 0 0 0 1.373-2.974h14.467c.115.43.258.83.429 1.23.143.328.3.658.472.958l-5.247 5.247a10.24 10.24 0 0 0-4.975-1.273c-1.415 0-2.773.286-4.017.801a10.42 10.42 0 0 0-4.532 3.731 10.384 10.384 0 0 0-1.758 5.761c0 1.415.286 2.787.815 4.017a10.409 10.409 0 0 0 3.731 4.532 10.232 10.232 0 0 0 5.761 1.758c1.415 0 2.774-.286 4.017-.815a10.293 10.293 0 0 0 4.518-3.731 10.21 10.21 0 0 0 1.772-5.761c0-1.415-.3-2.773-.814-4.003a13.937 13.937 0 0 0-.558-1.129l5.161-5.161h.014a10.268 10.268 0 0 0 5.132 1.358c1.416 0 2.774-.286 4.003-.815a10.162 10.162 0 0 0 4.532-3.731 10.21 10.21 0 0 0 1.772-5.761c0-1.415-.3-2.773-.814-4.003Zm-28.92-17.083a4.79 4.79 0 0 1 1.715-2.088 4.685 4.685 0 0 1 2.659-.814c.658 0 1.272.129 1.844.372a4.771 4.771 0 0 1 2.101 1.729c.501.758.801 1.658.801 2.644a4.718 4.718 0 0 1-2.101 3.946 4.669 4.669 0 0 1-2.645.815 4.814 4.814 0 0 1-1.844-.371 4.795 4.795 0 0 1-2.102-1.73 4.678 4.678 0 0 1-.8-2.66c0-.657.129-1.271.372-1.843Zm-10.494 22.944a4.748 4.748 0 0 1-6.218 2.531 4.795 4.795 0 0 1-2.102-1.73 4.677 4.677 0 0 1-.8-2.659c0-.658.128-1.272.371-1.844a4.79 4.79 0 0 1 1.716-2.087 4.678 4.678 0 0 1 2.659-.815c.658 0 1.287.129 1.844.372a4.771 4.771 0 0 1 2.101 1.729c.501.758.801 1.659.801 2.645 0 .672-.128 1.287-.372 1.858Zm15.054 19.242a4.798 4.798 0 0 1-1.716 2.088 4.752 4.752 0 0 1-4.503.443 4.883 4.883 0 0 1-2.101-1.73 4.668 4.668 0 0 1-.801-2.659c0-.657.129-1.272.372-1.844a4.71 4.71 0 0 1 1.715-2.087 4.714 4.714 0 0 1 2.659-.815c.658 0 1.287.129 1.844.372a4.78 4.78 0 0 1 2.102 1.729c.5.758.801 1.659.801 2.645 0 .672-.129 1.287-.372 1.858Zm19.242-19.242a4.745 4.745 0 0 1-6.219 2.531 4.787 4.787 0 0 1-2.101-1.73 4.67 4.67 0 0 1-.801-2.659c0-.658.129-1.272.372-1.844a4.788 4.788 0 0 1 1.715-2.087 4.68 4.68 0 0 1 2.659-.815c.658 0 1.287.129 1.844.372a4.78 4.78 0 0 1 2.102 1.729c.5.758.801 1.659.801 2.645 0 .672-.129 1.287-.372 1.858Z"/><path fill="#C4C6FC" d="M210.414 381.84H331.72l-19.748-18.722H108.377L88.63 381.84h121.784Z" style="mix-blend-mode:multiply"/><path fill="#9E7455" d="M471.696 347.147c-9.47 1.848-19.976.01-28.758-3.717-5.747-2.439-11.749-6.634-17.89-7.77-6.334-1.172-13.209.982-19.262 2.616-5.809 1.568-12.341 3.649-17.283-.655-4.236-3.689-5.726-10.8-6.9-17.292l-3.485-19.281c-.446-2.465-.895-5.014-.563-7.511.346-2.608 1.518-4.908 2.874-6.868 3.902-5.637 9.353-8.94 14.736-11.785 4.669-2.467 9.531-4.732 14.565-4.736 4.159-.004 8.218 1.536 12.211 3.063l20.195 7.723c2.084.797 4.213 1.623 5.974 3.288 1.487 1.406 2.629 3.333 3.874 5.096 7.344 10.391 18.742 15.651 24.148 27.919 2.757 6.258 3.958 14.365 4.414 21.514.332 5.202-4.052 7.46-8.85 8.396Z"/><path fill="#fff" stroke="#000" stroke-miterlimit="10" stroke-width="3" d="m400.567 280.654-98.262 17.507a9.28 9.28 0 0 1-10.762-7.508l-34.828-195.48a9.28 9.28 0 0 1 7.508-10.762l98.261-17.507a9.28 9.28 0 0 1 10.763 7.508l34.827 195.48a9.278 9.278 0 0 1-7.507 10.762Z"/><path fill="#9E7455" d="M266.188 135.613c-4.634-1.771-15.733-6.736-20.538-7.899-2.722-.658-5.761-.587-8.123.917-6.918 4.405-2.212 13.97 1.81 18.654 7.591 8.84 21.805 17.79 31.913 23.403"/><path stroke="#000" stroke-miterlimit="10" stroke-width="3" d="M266.188 135.613c-4.634-1.771-15.733-6.736-20.538-7.899-2.722-.658-5.761-.587-8.123.917-6.918 4.405-2.212 13.97 1.81 18.654 7.591 8.84 21.805 17.79 31.913 23.403"/><path fill="#9E7455" d="m395.858 281.476-74.828 15.167s15.732 19.723 49.963 21.892l12.43 12.565"/><path stroke="#000" stroke-miterlimit="10" stroke-width="3" d="m395.858 281.476-74.828 15.167s15.732 19.723 49.963 21.892l12.43 12.565"/><path fill="#fff" stroke="#000" stroke-miterlimit="10" stroke-width="3" d="M412.446 268.118 377.538 74.856c-1.458-8.054-9.163-13.403-17.217-11.95L266.194 79.91c-8.053 1.457-13.403 9.163-11.95 17.217l34.912 193.262c1.454 8.053 9.163 13.403 17.217 11.95l94.126-17.003c8.054-1.457 13.404-9.163 11.947-17.217Z"/><path fill="#9E7455" stroke="#000" stroke-miterlimit="10" stroke-width="3" d="M267.094 244.733c1.298.252 2.582.623 3.851.992 7.097 2.065 4.77 1.522 11.867 3.587 7.967 2.318 14.281 12.915 7.669 19.944-8.104 8.615-17.369 3.685-26.417.527-4.713-1.645-8.835-4.045-10.501-9.084-2.329-7.048 1.987-15.804 9.85-16.262 1.237-.072 2.465.06 3.681.296Z"/><path fill="#fff" d="m385.612 277.542-77.47 14.214a7.564 7.564 0 0 1-8.798-6.038l-35.72-189.436a7.122 7.122 0 0 1 5.882-8.412l11.224-2.029a2.345 2.345 0 0 1 2.62 1.498c1.841 5.026 7.079 8.152 12.528 7.168l42.089-7.601c5.426-.979 9.232-5.709 9.232-11.033v-.02a2.41 2.41 0 0 1 1.983-2.376l8.872-1.602a8.534 8.534 0 0 1 9.955 6.91l7.109 40.332"/><path stroke="#000" stroke-miterlimit="10" stroke-width="3" d="m385.612 277.542-77.47 14.214a7.564 7.564 0 0 1-8.798-6.038l-35.72-189.436a7.122 7.122 0 0 1 5.882-8.412l11.224-2.029a2.345 2.345 0 0 1 2.62 1.498c1.841 5.026 7.079 8.152 12.528 7.168l42.089-7.601c5.426-.979 9.232-5.709 9.232-11.033v-.02a2.41 2.41 0 0 1 1.983-2.376l8.872-1.602a8.534 8.534 0 0 1 9.955 6.91l7.109 40.332"/><path fill="#9E7455" stroke="#000" stroke-miterlimit="10" stroke-width="3" d="M257.672 189.193c1.297.252 2.582.623 3.851.992l21.289 6.193c7.967 2.319 14.282 12.916 7.669 19.945-8.104 8.615-26.791 1.077-35.839-2.08-4.713-1.645-8.836-4.045-10.501-9.084-2.329-7.048 1.986-15.804 9.85-16.263 1.236-.072 2.464.06 3.681.297Z"/><path fill="#9E7455" stroke="#000" stroke-miterlimit="10" stroke-width="3" d="M257.672 215.249c1.297.252 2.582.624 3.851.993l21.289 6.193c7.967 2.318 14.282 12.916 7.669 19.945-8.104 8.614-26.791 1.077-35.839-2.081-4.713-1.644-8.836-4.044-10.501-9.083-2.329-7.049 1.986-15.805 9.85-16.263 1.236-.072 2.464.06 3.681.296Z"/><path fill="#9E7455" d="m482.268 338.77-2.796-11.557c-.241-2.892-33.267-83.166-36.883-93.05-3.616-9.884-29.168-60.507-29.168-60.507-3.716-7.432-5.712-15.726-6.946-23.905 0 0-2.253-16.338-2.935-26.268-.278-4.057-5.991-6.721-9.827-5.374-4.996 1.754-9.192 5.254-11.489 12.336-.871 2.683-1.05 5.544-.674 8.34l6.772 85.494c-22.66 55.927 20.956 82.203 20.956 82.203"/><path stroke="#000" stroke-miterlimit="10" stroke-width="3" d="m482.268 338.77-2.796-11.557c-.241-2.892-33.267-83.166-36.883-93.05-3.616-9.884-29.168-60.507-29.168-60.507-3.716-7.432-5.712-15.726-6.946-23.905 0 0-2.253-16.338-2.935-26.268-.278-4.057-5.991-6.721-9.827-5.374-4.996 1.754-9.192 5.254-11.489 12.336-.871 2.683-1.05 5.544-.674 8.34l6.772 85.494c-22.66 55.927 20.956 82.203 20.956 82.203"/><path fill="#000" d="M342.865 134.192a6.801 6.801 0 0 0-2.935-2.512 6.755 6.755 0 0 0-3.933-.483 6.892 6.892 0 0 0-2.512.976 6.847 6.847 0 0 0-2.512 2.934 6.641 6.641 0 0 0-.54 2.091l-9.385 1.65a4.81 4.81 0 0 0-.409-.75 4.42 4.42 0 0 0-.498-.657l2.765-3.944.009-.001a6.759 6.759 0 0 0 3.481.295 6.647 6.647 0 0 0 2.501-.984 6.779 6.779 0 0 0 3.005-6.87 6.849 6.849 0 0 0-.984-2.501 6.805 6.805 0 0 0-2.935-2.511 6.747 6.747 0 0 0-3.933-.484 6.888 6.888 0 0 0-2.513.977 6.845 6.845 0 0 0-2.511 2.934 6.82 6.82 0 0 0-.484 3.933 6.69 6.69 0 0 0 1.401 3.078l-2.803 3.998a6.76 6.76 0 0 0-3.369-.258 6.9 6.9 0 0 0-2.512.976 6.852 6.852 0 0 0-2.512 2.934 6.831 6.831 0 0 0-.483 3.934c.161.917.502 1.774.985 2.511a6.807 6.807 0 0 0 2.935 2.512 6.73 6.73 0 0 0 3.933.483 6.652 6.652 0 0 0 2.502-.984 6.691 6.691 0 0 0 2.511-2.934 6.281 6.281 0 0 0 .551-2.084l9.376-1.647a6.505 6.505 0 0 0 .833 1.315l-2.803 3.997a6.752 6.752 0 0 0-3.369-.258 6.908 6.908 0 0 0-2.512.977 6.854 6.854 0 0 0-2.512 2.934 6.83 6.83 0 0 0-.483 3.934c.161.917.503 1.774.986 2.51a6.84 6.84 0 0 0 2.934 2.512 6.74 6.74 0 0 0 3.934.484 6.76 6.76 0 0 0 5.013-3.919 6.713 6.713 0 0 0 .492-3.935 6.825 6.825 0 0 0-.984-2.502 9.039 9.039 0 0 0-.49-.668l2.757-3.932.009-.002a6.749 6.749 0 0 0 3.481.296 6.647 6.647 0 0 0 2.501-.984 6.687 6.687 0 0 0 2.512-2.934 6.726 6.726 0 0 0 .493-3.936 6.849 6.849 0 0 0-.984-2.501Zm-20.688-7.777a3.15 3.15 0 0 1 .874-1.549 3.084 3.084 0 0 1 1.63-.83 3.062 3.062 0 0 1 1.238.031 3.154 3.154 0 0 1 1.559.881 3.149 3.149 0 0 1 .79 2.87 3.102 3.102 0 0 1-.883 1.549c-.432.42-.982.717-1.621.829-.436.077-.85.055-1.237-.03a3.147 3.147 0 0 1-1.559-.882 3.069 3.069 0 0 1-.822-1.632 3.075 3.075 0 0 1 .031-1.237Zm-4.187 16.064a3.12 3.12 0 0 1-3.742 2.349 3.156 3.156 0 0 1-1.559-.882 3.075 3.075 0 0 1-.821-1.632 3.057 3.057 0 0 1 .031-1.237 3.14 3.14 0 0 1 .874-1.548 3.069 3.069 0 0 1 1.63-.832 3.053 3.053 0 0 1 1.237.031 3.144 3.144 0 0 1 1.559.882c.411.434.708.984.82 1.623.077.435.064.848-.029 1.246Zm11.947 10.756a3.13 3.13 0 0 1-3.742 2.348 3.209 3.209 0 0 1-1.559-.882 3.075 3.075 0 0 1-.821-1.632 3.057 3.057 0 0 1 .031-1.237c.135-.588.44-1.137.874-1.548a3.093 3.093 0 0 1 1.63-.831 3.04 3.04 0 0 1 1.238.031 3.147 3.147 0 0 1 1.558.881c.411.434.708.984.82 1.623.077.436.064.849-.029 1.247Zm10.279-14.662a3.126 3.126 0 0 1-5.301 1.467 3.076 3.076 0 0 1-.822-1.632 3.08 3.08 0 0 1 .031-1.238 3.163 3.163 0 0 1 .874-1.548c.432-.42.982-.717 1.63-.831a3.04 3.04 0 0 1 1.238.031 3.144 3.144 0 0 1 1.559.882c.41.434.708.983.82 1.623.076.435.063.848-.029 1.246Z"/><path fill="#49FFBA" d="m348.564 193.229-26.055 4.734c-5.521 1.004-10.81-2.659-11.814-8.18-1.003-5.522 2.66-10.811 8.181-11.814l26.054-4.735c5.522-1.003 10.811 2.659 11.815 8.181 1.003 5.521-2.66 10.811-8.181 11.814Z"/><path fill="#000" d="m348.564 193.229-.188-1.032-26.054 4.734a9.106 9.106 0 0 1-7.438-1.944 9.067 9.067 0 0 1-3.156-5.392 9.106 9.106 0 0 1 1.943-7.437 9.074 9.074 0 0 1 5.393-3.157l26.054-4.734a9.098 9.098 0 0 1 7.436 1.944 9.065 9.065 0 0 1 3.158 5.392 9.103 9.103 0 0 1-1.944 7.436 9.076 9.076 0 0 1-5.392 3.158l.188 1.032.187 1.033a11.172 11.172 0 0 0 6.635-3.886 11.198 11.198 0 0 0 2.391-9.148 11.178 11.178 0 0 0-3.885-6.636 11.203 11.203 0 0 0-9.149-2.391l-26.055 4.735a11.173 11.173 0 0 0-6.635 3.885 11.203 11.203 0 0 0-2.391 9.15 11.176 11.176 0 0 0 3.885 6.634 11.203 11.203 0 0 0 9.15 2.391l26.054-4.734-.187-1.033Z"/><path fill="#fff" d="M356.52 181.456c1.003 5.521-2.659 10.811-8.181 11.814-5.521 1.003-10.811-2.659-11.814-8.181-1.003-5.521 2.659-10.811 8.181-11.814 5.521-1.003 10.811 2.659 11.814 8.181Z"/><path fill="#000" d="m356.52 181.456-1.033.187a9.104 9.104 0 0 1-1.944 7.437 9.068 9.068 0 0 1-5.392 3.157 9.103 9.103 0 0 1-7.437-1.944 9.062 9.062 0 0 1-3.156-5.392 9.103 9.103 0 0 1 1.943-7.436 9.069 9.069 0 0 1 5.393-3.157 9.103 9.103 0 0 1 7.436 1.943 9.071 9.071 0 0 1 3.157 5.392l1.033-.187 1.033-.188a11.172 11.172 0 0 0-3.886-6.635 11.2 11.2 0 0 0-9.149-2.391 11.172 11.172 0 0 0-6.635 3.886 11.2 11.2 0 0 0-2.391 9.149 11.178 11.178 0 0 0 3.885 6.635 11.203 11.203 0 0 0 9.15 2.391 11.175 11.175 0 0 0 6.635-3.886 11.2 11.2 0 0 0 2.391-9.149l-1.033.188Z"/><path fill="#49FFBA" stroke="#000" stroke-miterlimit="10" stroke-width="3" d="m196.481 311.563-22.086-.14c-5.673-.036-10.243-4.664-10.207-10.338.036-5.673 4.664-10.243 10.337-10.207l22.087.141c5.673.036 10.243 4.664 10.207 10.337-.036 5.674-4.664 10.243-10.338 10.207Z"/><path fill="#fff" stroke="#000" stroke-miterlimit="10" stroke-width="3" d="M208.93 307.128c3.279-4.629 2.184-11.039-2.445-14.317-4.629-3.279-11.04-2.184-14.318 2.445-3.278 4.629-2.183 11.04 2.446 14.318 4.629 3.278 11.039 2.183 14.317-2.446ZM147.109 165.981l20.666-10.209a74.755 74.755 0 0 0 41.64-67.435l-.298-56.354a6.662 6.662 0 0 0-4.181-6.144l-58.7-23.6h-.848L86.924 26.476a6.66 6.66 0 0 0-4.11 6.19l.298 56.358a74.795 74.795 0 0 0 42.367 66.986l20.777 9.993.853-.021Z"/><path fill="#B4B5F8" d="m147.913 149.258 16.5-8.154a59.692 59.692 0 0 0 33.249-53.848l-.258-48.573-50.188-20.196h-.676L96.554 39.214l.257 48.577a59.734 59.734 0 0 0 33.829 53.495l16.591 7.978.682-.006Z"/><path fill="#fff" stroke="#000" stroke-linecap="round" stroke-linejoin="round" stroke-width="3" d="M134.867 77.746v-12.76a12.245 12.245 0 0 1 12.242-12.242 12.241 12.241 0 0 1 12.241 12.242v12.76h6.94V65.547a19.182 19.182 0 0 0-38.363 0v12.2h6.94Z"/><path fill="#fff" stroke="#000" stroke-miterlimit="10" stroke-width="3" d="M167.148 73.965h-40.08a3.078 3.078 0 0 0-3.083 3.077v29.13a3.077 3.077 0 0 0 3.083 3.078h40.08a3.076 3.076 0 0 0 2.179-.9 3.078 3.078 0 0 0 .905-2.178v-29.13a3.096 3.096 0 0 0-.905-2.177 3.073 3.073 0 0 0-2.179-.9Z"/><path fill="#fff" stroke="#000" stroke-linecap="round" stroke-linejoin="round" stroke-width="3" d="M152.116 88.888a5.006 5.006 0 0 1-2.336 4.226v3.541a2.67 2.67 0 0 1-2.67 2.584 2.674 2.674 0 0 1-2.67-2.584v-3.541a5.005 5.005 0 0 1-2.319-4.376 4.993 4.993 0 0 1 2.585-4.224 5 5 0 0 1 7.41 4.374Z"/></svg>
