<svg xmlns="http://www.w3.org/2000/svg" width="502" height="503" fill="none"><path stroke="#000" stroke-miterlimit="10" stroke-width="2.69" d="M278.303 265.736c9.199-3.586 20.163-.135 30.051-1.184a103.685 103.685 0 0 0 37.09-11.179c8.741-4.564 16.801-10.373 25.667-14.677a85.819 85.819 0 0 1 21.705-7.172c12.408-2.313 26.789-1.192 35.297 8.069 14.846 16.245.098 47.202-7.316 64.326M74.388 194.885c10.274-8.185 29.174-8.328 43.688 0 33.791 19.383 27.29 67.428 65.59 81.997 13.833 5.253 27.792 1.291 37.744-5.38 9.951-6.67 17.437-15.689 27.712-21.929 10.274-6.239 24.968-9.27 38.443-2.851"/><path fill="#6A52DE" fill-rule="evenodd" d="M139.324 365.878a4.734 4.734 0 1 1-4.724 4.734 4.729 4.729 0 0 1 2.914-4.374 4.725 4.725 0 0 1 1.81-.36ZM175.391 330.61a48.961 48.961 0 0 0-71.838 0 2.876 2.876 0 0 0-.515 3.148 2.872 2.872 0 0 0 3.801 1.424c.343-.156.652-.378.909-.654a43.22 43.22 0 0 1 31.724-13.862 43.223 43.223 0 0 1 31.724 13.862 2.865 2.865 0 0 0 4.056.139 2.867 2.867 0 0 0 .139-4.057Z" clip-rule="evenodd"/><path fill="#6A52DE" fill-rule="evenodd" d="M164.866 342.489a35.047 35.047 0 0 0-50.789 0 2.87 2.87 0 0 0 4.071 4.044 29.314 29.314 0 0 1 42.648 0 2.868 2.868 0 0 0 4.07-4.044ZM153.39 354.367a20.665 20.665 0 0 0-13.95-5.989h-.206a20.68 20.68 0 0 0-13.95 5.989 2.872 2.872 0 0 0 3.091 4.715 2.86 2.86 0 0 0 .925-.618 14.933 14.933 0 0 1 9.916-4.33h.206a14.93 14.93 0 0 1 9.915 4.33 2.876 2.876 0 0 0 3.149.636 2.865 2.865 0 0 0 1.765-2.684 2.874 2.874 0 0 0-.879-2.031l.018-.018Z" clip-rule="evenodd"/><path fill="#fff" stroke="#000" stroke-miterlimit="10" stroke-width="2.69" d="M235.083 215.702v-39.958a38.339 38.339 0 0 1 11.227-27.108 38.34 38.34 0 0 1 54.216 0 38.339 38.339 0 0 1 11.227 27.108v39.958h21.732v-38.201a60.066 60.066 0 1 0-120.134 0v38.201h21.732Z"/><path fill="#49FFBA" stroke="#000" stroke-miterlimit="10" stroke-width="2.69" d="M336.175 203.857H210.661a9.662 9.662 0 0 0-6.823 2.819 9.646 9.646 0 0 0-2.832 6.819v91.222a9.644 9.644 0 0 0 9.655 9.637h125.514a9.643 9.643 0 0 0 6.824-2.819 9.655 9.655 0 0 0 2.831-6.818v-91.222a9.64 9.64 0 0 0-5.963-8.907 9.662 9.662 0 0 0-3.692-.731Z"/><path fill="#fff" stroke="#000" stroke-miterlimit="10" stroke-width="2.69" d="M289.098 250.593a15.654 15.654 0 0 1-7.316 13.233v11.09a8.365 8.365 0 0 1-16.721 0v-11.09a15.659 15.659 0 0 1-7.263-13.704 15.65 15.65 0 0 1 8.097-13.228 15.649 15.649 0 0 1 15.508.233 15.653 15.653 0 0 1 7.695 13.466Z"/><path fill="#C0C3F6" d="m416.296 310.978 19.688 6.831 12.094 27.577-25.219 69.158-59.52-21.355 25.21-69.158 27.747-13.053Z"/><path stroke="#000" stroke-miterlimit="10" stroke-width="2.69" d="M412.415 331.328a6.778 6.778 0 1 0-.001-13.557 6.778 6.778 0 0 0 .001 13.557Z"/><path stroke="#000" stroke-linecap="round" stroke-linejoin="round" stroke-width="2.69" d="m399.971 295.808 40.622 13.878 1.147 31.504-25.434 71.57-63.098-23.176 25.292-70.61 21.471-23.166ZM382.57 137.489v9.091M387.116 142.035h-9.091M222.387 82.299v9.1M226.941 86.846h-9.1"/><path stroke="#000" stroke-miterlimit="10" stroke-width="2.69" d="M72.138 119.82a4.707 4.707 0 1 0-.001-9.415 4.707 4.707 0 0 0 0 9.415ZM118.579 281.344a4.034 4.034 0 1 0 0-8.068 4.034 4.034 0 0 0 0 8.068Z"/><path stroke="#000" stroke-linecap="round" stroke-linejoin="round" stroke-width="2.69" d="M89.128 297.673v9.091M93.673 302.215h-9.09M273.544 362.282v9.091M278.089 366.829h-9.1"/><path stroke="#000" stroke-miterlimit="10" stroke-width="2.69" d="M473.272 211.353a4.707 4.707 0 1 0 0-9.414 4.707 4.707 0 0 0 0 9.414Z"/><path fill="#6A52DE" stroke="#000" stroke-miterlimit="10" stroke-width="2.69" d="m136.497 129.917-86.189 46.582a5.533 5.533 0 0 0-2.237 7.497l27.38 50.659a5.532 5.532 0 0 0 7.497 2.235l86.189-46.582a5.532 5.532 0 0 0 2.236-7.497l-27.379-50.658a5.531 5.531 0 0 0-7.497-2.236Z"/><path fill="#fff" stroke="#000" stroke-miterlimit="10" stroke-width="2.69" d="M123.763 156.455 30.586 186.73a5.532 5.532 0 0 0-3.552 6.97l17.795 54.766a5.532 5.532 0 0 0 6.97 3.551l93.177-30.275a5.531 5.531 0 0 0 3.552-6.97l-17.795-54.766a5.531 5.531 0 0 0-6.97-3.551Z"/><path stroke="#000" stroke-miterlimit="10" stroke-width="2.69" d="M131.497 217.854a7.504 7.504 0 1 0 0-15.008 7.504 7.504 0 0 0 0 15.008ZM28.585 198.219l103.692-33.7M32.556 208.251l103.693-33.7"/><path stroke="#000" stroke-miterlimit="10" stroke-width="2.69" d="M125.115 206.468a7.423 7.423 0 0 0-5.209-.242 7.5 7.5 0 0 0 4.636 14.264 7.416 7.416 0 0 0 4.07-3.254"/></svg>
