<svg xmlns="http://www.w3.org/2000/svg" xmlns:xlink="http://www.w3.org/1999/xlink" width="480" height="509" fill="none" viewBox="0 0 480 509"><g clip-path="url(#a)"><path fill="#C6CAFA" d="M31.863 160.114H-43a15.091 15.091 0 0 1 5.268-8.95 15.537 15.537 0 0 1 9.878-3.532h.588a22.011 22.011 0 0 1 9.208-8.708 22.477 22.477 0 0 1 12.561-2.262 22.345 22.345 0 0 1 11.745 4.934 21.788 21.788 0 0 1 7.028 10.492 11.151 11.151 0 0 1 5.68-2.736 11.25 11.25 0 0 1 6.275.768 11.028 11.028 0 0 1 4.827 4.021 10.776 10.776 0 0 1 1.805 5.963v.01ZM142 36.527h103a21.187 21.187 0 0 0-7.247-12.521 21.158 21.158 0 0 0-13.591-4.943h-.81a30.506 30.506 0 0 0-12.668-12.182 30.473 30.473 0 0 0-33.441 3.738 30.51 30.51 0 0 0-9.67 14.679 15.241 15.241 0 0 0-16.449-2.754A15.254 15.254 0 0 0 142 36.514v.013Z"/><path stroke="#000" stroke-miterlimit="10" stroke-width="3" d="M244.683 445.539v3.305a3.691 3.691 0 0 0 1.078 2.605 3.667 3.667 0 0 0 2.597 1.079h111.597"/><path fill="#fff" d="M439.208 419.065a5.212 5.212 0 0 0 4.823-3.235 5.244 5.244 0 0 0 .396-2.005v-96.058c0-1.39-.55-2.722-1.53-3.705a5.212 5.212 0 0 0-3.693-1.535H279.799a5.214 5.214 0 0 0-3.693 1.535 5.25 5.25 0 0 0-1.53 3.705v96.058a5.26 5.26 0 0 0 1.53 3.705 5.21 5.21 0 0 0 3.693 1.535"/><path stroke="#000" stroke-miterlimit="10" stroke-width="3" d="M439.208 419.065a5.212 5.212 0 0 0 4.823-3.235 5.244 5.244 0 0 0 .396-2.005v-96.058c0-1.39-.55-2.722-1.53-3.705a5.212 5.212 0 0 0-3.693-1.535H279.799a5.214 5.214 0 0 0-3.693 1.535 5.25 5.25 0 0 0-1.53 3.705v96.058a5.26 5.26 0 0 0 1.53 3.705 5.21 5.21 0 0 0 3.693 1.535"/><path fill="#fff" d="M355.543 447.92h115.959a2.807 2.807 0 0 0 2.64-1.862 2.818 2.818 0 0 0-.857-3.122l-28.086-23.232a2.793 2.793 0 0 0-1.783-.641H275.577a2.806 2.806 0 0 0-1.787.641l-28.082 23.232a2.826 2.826 0 0 0-.857 3.122 2.813 2.813 0 0 0 1.026 1.35 2.79 2.79 0 0 0 1.614.512H363.45"/><path stroke="#000" stroke-miterlimit="10" stroke-width="3" d="M355.543 447.92h115.959a2.807 2.807 0 0 0 2.64-1.862 2.818 2.818 0 0 0-.857-3.122l-28.086-23.232a2.793 2.793 0 0 0-1.783-.641H275.577a2.806 2.806 0 0 0-1.787.641l-28.082 23.232a2.826 2.826 0 0 0-.857 3.122 2.813 2.813 0 0 0 1.026 1.35 2.79 2.79 0 0 0 1.614.512H363.45"/><path fill="#C3C4FD" d="M336.952 443.225h71.409l-11.626-13.051H276.882l-11.622 13.051H336.952Z"/><path stroke="#000" stroke-miterlimit="10" stroke-width="3" d="M474.311 445.539v3.305c0 .977-.387 1.914-1.075 2.605a3.667 3.667 0 0 1-2.597 1.079H359.042"/><path stroke="#000" stroke-linecap="round" stroke-linejoin="round" stroke-width="3" d="M359.654 437.788h78.956l-12.853-14.429H293.24l-12.854 14.429h79.268Z"/><path fill="#A883F8" stroke="#000" stroke-linecap="round" stroke-linejoin="round" stroke-width="3" d="M435.165 319.234H283.732v93.814h151.433v-93.814Z"/><path fill="#000" d="M377.295 363.177a6.716 6.716 0 0 0-2.47-2.987 6.676 6.676 0 0 0-3.705-1.119 6.64 6.64 0 0 0-6.447 4.908h-9.443a4.637 4.637 0 0 0-.269-.802 4.413 4.413 0 0 0-.363-.728l3.367-3.378a6.651 6.651 0 0 0 3.338.885 6.548 6.548 0 0 0 2.607-.532 6.7 6.7 0 0 0 3.328-3.054 6.744 6.744 0 0 0 .645-4.478 6.726 6.726 0 0 0-2.33-3.873 6.686 6.686 0 0 0-4.25-1.515 6.674 6.674 0 0 0-4.747 1.963 6.714 6.714 0 0 0-1.961 4.76 6.661 6.661 0 0 0 .53 2.623c.091.213.194.421.308.623l-3.413 3.429a6.658 6.658 0 0 0-3.24-.831 6.64 6.64 0 0 0-5.564 2.959 6.79 6.79 0 0 0-1.145 3.76 6.735 6.735 0 0 0 2.961 5.582 6.625 6.625 0 0 0 3.748 1.148 6.7 6.7 0 0 0 5.553-2.966 6.19 6.19 0 0 0 .893-1.942h9.422c.074.273.167.541.279.801.092.215.196.424.309.627l-3.417 3.425a6.677 6.677 0 0 0-3.237-.831c-.897 0-1.786.177-2.615.521a6.71 6.71 0 0 0-2.976 2.479 6.742 6.742 0 0 0 1.839 9.298 6.703 6.703 0 0 0 6.897.352 6.731 6.731 0 0 0 2.6-2.473 6.77 6.77 0 0 0 .964-3.461 6.828 6.828 0 0 0-.531-2.616 7.734 7.734 0 0 0-.363-.729l3.36-3.371a6.673 6.673 0 0 0 3.341.886 6.53 6.53 0 0 0 2.604-.532 6.724 6.724 0 0 0 2.983-2.477 6.807 6.807 0 0 0 .61-6.334ZM358.47 352.02a3.126 3.126 0 0 1 1.119-1.362 3.078 3.078 0 0 1 2.93-.288 3.09 3.09 0 0 1 1.889 2.857 3.123 3.123 0 0 1-.907 2.193 3.102 3.102 0 0 1-2.184.915 3.106 3.106 0 0 1-2.568-1.374 3.057 3.057 0 0 1-.519-1.734c0-.415.083-.825.243-1.207h-.003Zm-6.828 14.983a3.097 3.097 0 0 1-2.552 1.884 3.086 3.086 0 0 1-2.864-1.359 3.079 3.079 0 0 1-.523-1.738 3.108 3.108 0 0 1 2.787-3.086 3.091 3.091 0 0 1 3.395 3.086c.003.417-.08.83-.243 1.213Zm9.806 12.564a3.089 3.089 0 0 1-4.05 1.654 3.19 3.19 0 0 1-1.365-1.13 3.124 3.124 0 0 1-.28-2.94 3.093 3.093 0 0 1 2.847-1.895c.413-.003.821.08 1.199.244a3.068 3.068 0 0 1 1.377 1.141c.336.509.514 1.106.512 1.716 0 .416-.084.827-.247 1.21h.007Zm12.523-12.564a3.092 3.092 0 0 1-2.551 1.884 3.082 3.082 0 0 1-2.864-1.359 3.159 3.159 0 0 1-.28-2.94 3.105 3.105 0 0 1 1.119-1.363 3.009 3.009 0 0 1 1.729-.536 3.088 3.088 0 0 1 2.576 1.387c.336.508.515 1.104.515 1.714 0 .417-.085.83-.251 1.213h.007Z"/><path fill="#C0C3F6" d="M152.654 60.264h-81.67c-9.028 0-16.347 7.342-16.347 16.398V217.4c0 9.057 7.319 16.399 16.347 16.399h81.67c9.028 0 16.346-7.342 16.346-16.399V76.662c0-9.056-7.318-16.398-16.346-16.398Z"/><path fill="#fff" stroke="#000" stroke-miterlimit="10" stroke-width="3" d="M139.017 46.59h-81.67C48.317 46.59 41 53.932 41 62.989v140.737c0 9.057 7.319 16.399 16.346 16.399h81.671c9.028 0 16.346-7.342 16.346-16.399V62.989c0-9.057-7.318-16.4-16.346-16.4Z"/><path fill="#A883F8" stroke="#000" stroke-miterlimit="10" stroke-width="3" d="M155.363 58.57H41V208.14h114.363V58.57Z"/><path fill="#000" d="M114.663 112.735a6.408 6.408 0 0 0-2.258-2.841 6.296 6.296 0 0 0-3.536-1.146 6.475 6.475 0 0 0-2.486.468 6.422 6.422 0 0 0-2.837 2.265 6.237 6.237 0 0 0-.867 1.834l-8.934-.145a4.297 4.297 0 0 0-.242-.767 4.606 4.606 0 0 0-.341-.698l3.265-3.149a6.338 6.338 0 0 0 5.602.446 6.36 6.36 0 0 0 3.766-4.182 6.39 6.39 0 0 0-3.206-7.418 6.348 6.348 0 0 0-8.741 3.127 6.383 6.383 0 0 0-.056 4.928c.089.206.182.412.284.6l-3.293 3.196a6.285 6.285 0 0 0-3.055-.838 6.337 6.337 0 0 0-5.941 3.833 6.38 6.38 0 0 0-.054 4.928 6.407 6.407 0 0 0 4.532 3.846 6.32 6.32 0 0 0 4.8-.856 6.353 6.353 0 0 0 1.789-1.731 5.944 5.944 0 0 0 .877-1.825l8.925.145c.069.261.153.517.252.768.088.201.181.407.284.594l-3.266 3.196a6.315 6.315 0 0 0-3.06-.837 6.516 6.516 0 0 0-2.486.468 6.363 6.363 0 0 0-2.86 2.306 6.396 6.396 0 0 0-1.115 3.506 6.362 6.362 0 0 0 .466 2.495 6.461 6.461 0 0 0 2.258 2.841 6.28 6.28 0 0 0 3.536 1.146 6.313 6.313 0 0 0 5.31-2.728 6.317 6.317 0 0 0 1.152-3.548 6.41 6.41 0 0 0-.467-2.485c-.102-.239-.21-.468-.331-.702l3.237-3.145a6.312 6.312 0 0 0 3.154.894 6.366 6.366 0 0 0 4.524-1.799 6.407 6.407 0 0 0 1.942-4.477 6.481 6.481 0 0 0-.523-2.513Zm-17.671-10.867a2.97 2.97 0 0 1 1.078-1.273 2.92 2.92 0 0 1 1.651-.468 2.92 2.92 0 0 1 2.418 1.353 2.953 2.953 0 0 1-.886 4.065 2.926 2.926 0 0 1-4.508-2.53c0-.396.085-.787.247-1.147Zm-6.708 14.096a2.942 2.942 0 0 1-2.448 1.746 2.972 2.972 0 0 1-2.712-1.334 2.914 2.914 0 0 1-.466-1.652c.007-.393.09-.781.247-1.142.235-.517.61-.958 1.082-1.273a2.926 2.926 0 0 1 2.8-.229 2.925 2.925 0 0 1 1.749 2.738c-.005.395-.091.785-.252 1.146Zm9.096 12.061a2.935 2.935 0 0 1-3.968 1.441 2.935 2.935 0 0 1-1.382-3.838 2.921 2.921 0 0 1 2.724-1.755 2.947 2.947 0 0 1 2.684 1.882 2.956 2.956 0 0 1-.048 2.251l-.01.019Zm12.064-11.7a2.928 2.928 0 0 1-2.746 1.754 2.941 2.941 0 0 1-2.858-2.719c-.038-.49.046-.982.244-1.432.231-.52.605-.963 1.078-1.277a2.924 2.924 0 0 1 1.493-.48 2.925 2.925 0 0 1 2.645 1.465c.266.463.401.989.391 1.523a2.887 2.887 0 0 1-.247 1.147v.019Z"/><path fill="#fff" stroke="#000" stroke-linecap="round" stroke-linejoin="round" stroke-width="3" d="M234.518 2.027h233.725c5.528 0 10.018 4.497 10.018 10.055v144.966c0 5.557-4.49 10.054-10.018 10.054H234.518c-5.528 0-10.018-4.497-10.018-10.054V12.082c0-5.558 4.49-10.055 10.018-10.055Z"/><path fill="#fff" stroke="#000" stroke-linecap="round" stroke-linejoin="round" stroke-width="3" d="M468.786 10.121H233.979V153.99h234.807V10.121ZM371.392 168.604h-40.016v48.922h40.016v-48.922Z"/><path stroke="#000" stroke-linecap="round" stroke-linejoin="round" stroke-width="3" d="M296.361 217.525h110.038"/><path fill="#000" d="M371.467 76.868a7.765 7.765 0 0 0-3.059-3.62 7.726 7.726 0 0 0-8.99.573 7.773 7.773 0 0 0-2.578 3.98h-10.937a5.464 5.464 0 0 0-.31-.933 5.107 5.107 0 0 0-.421-.844l3.903-3.917a7.744 7.744 0 0 0 6.89.41 7.779 7.779 0 0 0 4.75-7.227 7.808 7.808 0 0 0-.615-2.977 7.773 7.773 0 0 0-2.86-3.46 7.74 7.74 0 0 0-4.291-1.296 7.684 7.684 0 0 0-3.651.9 7.717 7.717 0 0 0-2.793 2.526 7.866 7.866 0 0 0-1.325 4.355 7.616 7.616 0 0 0 .972 3.765l-3.958 3.967a7.74 7.74 0 0 0-3.748-.963 7.725 7.725 0 0 0-5.498 2.274 7.772 7.772 0 0 0-2.272 5.512 7.751 7.751 0 0 0 .614 3.039 7.83 7.83 0 0 0 2.81 3.426 7.699 7.699 0 0 0 4.346 1.33 7.773 7.773 0 0 0 6.431-3.44A7.266 7.266 0 0 0 345.912 82h10.907c.084.319.193.63.325.933.105.246.222.487.353.721l-3.954 3.971a7.674 7.674 0 0 0-3.749-.966 7.719 7.719 0 0 0-3.652.905 7.75 7.75 0 0 0-2.796 2.526 7.866 7.866 0 0 0-1.325 4.355 7.79 7.79 0 0 0 .614 3.038 7.857 7.857 0 0 0 2.814 3.427 7.766 7.766 0 0 0 10.999-2.456 7.818 7.818 0 0 0 1.116-4.009 7.86 7.86 0 0 0-.614-3.026 8.532 8.532 0 0 0-.421-.844l3.891-3.903a7.748 7.748 0 0 0 7.513.114 7.782 7.782 0 0 0 2.789-2.524 7.743 7.743 0 0 0 1.338-4.355 7.912 7.912 0 0 0-.593-3.038ZM349.664 63.95a3.621 3.621 0 0 1 1.296-1.578 3.517 3.517 0 0 1 2.002-.616c.478-.002.952.093 1.393.278a3.58 3.58 0 0 1 1.591 1.323 3.6 3.6 0 0 1 .596 1.986c.003.483-.092.961-.282 1.405a3.555 3.555 0 0 1-1.304 1.578 3.488 3.488 0 0 1-1.994.616c-.476 0-.948-.095-1.388-.278a3.594 3.594 0 0 1-1.586-1.308 3.66 3.66 0 0 1-.324-3.405Zm-7.908 17.353a3.585 3.585 0 0 1-2.956 2.179 3.574 3.574 0 0 1-3.316-1.576 3.617 3.617 0 0 1 .968-4.984 3.529 3.529 0 0 1 2.006-.616c.478-.003.95.093 1.388.283a3.608 3.608 0 0 1 1.923 1.962 3.621 3.621 0 0 1-.013 2.752Zm11.358 14.55a3.569 3.569 0 0 1-3.294 2.194c-.478 0-.951-.094-1.393-.278a3.731 3.731 0 0 1-1.585-1.308 3.559 3.559 0 0 1-.602-2.013 3.506 3.506 0 0 1 .282-1.392 3.59 3.59 0 0 1 1.946-1.935 3.565 3.565 0 0 1 2.74.019 3.572 3.572 0 0 1 2.187 3.308c0 .485-.1.965-.294 1.41l.013-.005Zm14.508-14.55a3.573 3.573 0 0 1-6.272.603 3.617 3.617 0 0 1 .967-4.984 3.54 3.54 0 0 1 2.007-.616c.477-.003.95.093 1.388.283a3.608 3.608 0 0 1 1.923 1.962 3.626 3.626 0 0 1-.013 2.752Z"/><path fill="#9E7455" d="M182.732 507.542c-7.586 1.475-16 0-23.031-2.969-4.602-1.943-9.409-5.289-14.326-6.198-5.073-.934-10.578.783-15.424 2.094-4.652 1.256-9.885 2.932-13.839-.519-3.396-2.932-4.589-8.619-5.527-13.8-.937-5.18-1.861-10.26-2.79-15.386-.357-1.968-.719-4.004-.454-5.993a12.632 12.632 0 0 1 2.295-5.49c3.126-4.498 7.489-7.12 11.8-9.406 3.741-1.969 7.632-3.77 11.663-3.77 3.332 0 6.581 1.223 9.779 2.442l16.18 6.156c1.681.637 3.362 1.294 4.783 2.626 1.193 1.118 2.101 2.659 3.106 4.067 5.883 8.292 15.007 12.488 19.332 22.279 2.206 4.992 3.168 11.463 3.534 17.171.269 4.154-3.24 5.947-7.081 6.696Z"/><path fill="#fff" stroke="#000" stroke-linecap="round" stroke-miterlimit="10" stroke-width="3" d="m125.769 454.48-78.685 13.971a7.457 7.457 0 0 1-5.555-1.218 7.406 7.406 0 0 1-3.065-4.775L10.576 306.466a7.377 7.377 0 0 1 1.218-5.536 7.426 7.426 0 0 1 4.791-3.053l78.69-13.971a7.443 7.443 0 0 1 7.562 3.301c.525.82.883 1.734 1.054 2.692l27.892 155.992a7.388 7.388 0 0 1-1.224 5.534 7.44 7.44 0 0 1-4.79 3.055Z"/><path fill="#9E7455" d="m122 455.135-59.921 12.103s12.607 15.738 40.009 17.472l9.951 10.026"/><path stroke="#000" stroke-linecap="round" stroke-miterlimit="10" stroke-width="3" d="m122 455.135-59.921 12.103s12.607 15.738 40.009 17.472l9.951 10.026"/><path fill="#fff" stroke="#000" stroke-linecap="round" stroke-miterlimit="10" stroke-width="3" d="m135.272 444.476-27.944-154.225a11.826 11.826 0 0 0-4.913-7.612 11.909 11.909 0 0 0-8.876-1.924l-75.373 13.569a11.873 11.873 0 0 0-7.64 4.895 11.796 11.796 0 0 0-1.93 8.846l27.956 154.22a11.827 11.827 0 0 0 4.912 7.615 11.907 11.907 0 0 0 8.877 1.925l75.374-13.569a11.868 11.868 0 0 0 7.632-4.899 11.797 11.797 0 0 0 1.925-8.841Z"/><path fill="#9E7455" stroke="#000" stroke-linecap="round" stroke-miterlimit="10" stroke-width="3" d="M18.884 425.814c1.042.201 2.067.499 3.084.792 5.682 1.65 3.82 1.214 9.503 2.864 6.38 1.847 11.439 10.307 6.144 15.915-6.493 6.872-13.91 2.931-21.156.418-3.783-1.31-7.077-3.224-8.405-7.249-1.866-5.624 1.592-12.61 7.888-12.983a11.86 11.86 0 0 1 2.942.243Z"/><path fill="#fff" d="m113.795 451.997-62.04 11.341a6.072 6.072 0 0 1-4.523-.963 6.036 6.036 0 0 1-2.524-3.862L16.105 307.329a5.665 5.665 0 0 1 .927-4.347 5.686 5.686 0 0 1 3.784-2.353l8.969-1.609a1.887 1.887 0 0 1 1.268.214c.384.217.679.563.833.976a8.972 8.972 0 0 0 3.97 4.68 9.017 9.017 0 0 0 6.061 1.04l33.706-6.068a8.989 8.989 0 0 0 5.295-3.062 8.937 8.937 0 0 0 2.097-5.732 1.923 1.923 0 0 1 1.589-1.893l7.102-1.282a6.87 6.87 0 0 1 5.147 1.097 6.8 6.8 0 0 1 2.838 4.419l5.694 32.184"/><path stroke="#000" stroke-linecap="round" stroke-miterlimit="10" stroke-width="3" d="m113.795 451.997-62.04 11.341a6.072 6.072 0 0 1-4.523-.963 6.036 6.036 0 0 1-2.524-3.862L16.105 307.329a5.665 5.665 0 0 1 .927-4.347 5.686 5.686 0 0 1 3.784-2.353v0l8.969-1.609a1.887 1.887 0 0 1 1.268.214c.384.217.679.563.833.976a8.972 8.972 0 0 0 3.97 4.68 9.017 9.017 0 0 0 6.061 1.04l33.706-6.068a8.989 8.989 0 0 0 5.295-3.062 8.937 8.937 0 0 0 2.097-5.732v0a1.923 1.923 0 0 1 1.589-1.893l7.102-1.282a6.87 6.87 0 0 1 5.147 1.097 6.8 6.8 0 0 1 2.838 4.419l5.694 32.184"/><path fill="#9E7455" stroke="#000" stroke-linecap="round" stroke-miterlimit="10" stroke-width="3" d="M11.34 381.494c1.037.201 2.067.498 3.084.791l17.042 4.942c6.38 1.851 11.44 10.307 6.144 15.914-6.493 6.873-21.433.838-28.7-1.675-3.782-1.311-7.077-3.229-8.405-7.249-1.866-5.625 1.589-12.61 7.884-12.983a12.03 12.03 0 0 1 2.95.26Z"/><path fill="#9E7455" stroke="#000" stroke-linecap="round" stroke-miterlimit="10" stroke-width="3" d="M11.34 402.286c1.037.201 2.067.498 3.084.791l17.042 4.942c6.38 1.851 11.44 10.306 6.144 15.914-6.493 6.872-21.433.859-28.7-1.675-3.782-1.311-7.077-3.225-8.405-7.249-1.866-5.625 1.589-12.61 7.884-12.983.99-.037 1.982.05 2.95.26Z"/><path fill="#9E7455" d="m191.195 500.858-2.24-9.214c-.193-2.312-26.64-66.37-29.536-74.256-2.895-7.886-23.358-48.283-23.358-48.283-2.975-5.934-4.572-12.563-5.56-19.08 0 0-1.803-13.037-2.349-20.96-.223-3.238-4.8-5.365-7.872-4.289-4.001 1.399-7.358 4.188-9.199 9.846a14.973 14.973 0 0 0-.538 6.629l5.421 68.264c-18.147 44.605 16.785 65.574 16.785 65.574"/><path stroke="#000" stroke-linecap="round" stroke-miterlimit="10" stroke-width="3" d="m191.195 500.858-2.24-9.214c-.193-2.312-26.64-66.37-29.536-74.256-2.895-7.886-23.358-48.283-23.358-48.283-2.975-5.934-4.572-12.563-5.56-19.08 0 0-1.803-13.037-2.349-20.96-.223-3.238-4.8-5.365-7.872-4.289-4.001 1.399-7.358 4.188-9.199 9.846a14.973 14.973 0 0 0-.538 6.629l5.421 68.264c-18.147 44.605 16.785 65.574 16.785 65.574"/><path fill="#000" d="M94.98 367.212a9.309 9.309 0 0 0-9.447-4.121 9.59 9.59 0 0 0-3.45 1.342 9.385 9.385 0 0 0-3.457 4.035 9.261 9.261 0 0 0-.722 2.887L65 373.621a6.766 6.766 0 0 0-.563-1.032 6.322 6.322 0 0 0-.722-.902l3.804-5.428a9.213 9.213 0 0 0 4.785.404 9.102 9.102 0 0 0 3.442-1.349 9.302 9.302 0 0 0 4.128-9.447 9.292 9.292 0 0 0-5.384-6.893 9.38 9.38 0 0 0-8.87.679 9.443 9.443 0 0 0-3.45 4.034 9.333 9.333 0 0 0-.663 5.406 9.173 9.173 0 0 0 1.35 3.457c.18.267.375.534.57.779l-3.854 5.492a9.437 9.437 0 0 0-4.605-.375 9.591 9.591 0 0 0-3.45 1.342 9.313 9.313 0 0 0-4.12 9.484 9.224 9.224 0 0 0 1.356 3.45 9.317 9.317 0 0 0 9.447 4.121 9.33 9.33 0 0 0 6.871-5.406 8.814 8.814 0 0 0 .758-2.887l12.89-2.266a8.94 8.94 0 0 0 1.147 1.804l-3.832 5.514a9.279 9.279 0 0 0-4.633-.354 9.318 9.318 0 0 0-6.026 3.823 9.306 9.306 0 0 0-1.545 6.967c.21 1.23.67 2.404 1.35 3.45a9.466 9.466 0 0 0 4.034 3.457 9.313 9.313 0 0 0 12.269-4.727 9.21 9.21 0 0 0 .678-5.413 9.471 9.471 0 0 0-1.35-3.443 14.19 14.19 0 0 0-.678-.916l3.796-5.406a9.38 9.38 0 0 0 4.793.404 9.384 9.384 0 0 0 7.57-10.826 9.438 9.438 0 0 0-1.313-3.406Zm-28.465-10.696a4.328 4.328 0 0 1 1.206-2.165 4.29 4.29 0 0 1 5.451-.437 4.28 4.28 0 0 1 1.759 2.782 4.333 4.333 0 0 1-3.479 4.98 4.257 4.257 0 0 1-3.847-1.248 4.276 4.276 0 0 1-1.09-3.912Zm-5.773 22.092a4.28 4.28 0 0 1-3.443 3.269 4.213 4.213 0 0 1-1.703-.043 4.287 4.287 0 0 1-2.165-1.213 4.162 4.162 0 0 1-1.126-2.244 4.055 4.055 0 0 1 .043-1.696 4.327 4.327 0 0 1 3.443-3.277 4.213 4.213 0 0 1 1.703.043 4.396 4.396 0 0 1 2.165 1.213 4.33 4.33 0 0 1 1.083 3.948Zm16.433 14.788a4.33 4.33 0 0 1-3.442 3.276 4.478 4.478 0 0 1-1.704-.043 4.424 4.424 0 0 1-2.165-1.212 4.329 4.329 0 0 1-1.09-3.948 4.333 4.333 0 0 1 3.443-3.27 4.092 4.092 0 0 1 1.703.044 4.327 4.327 0 0 1 3.233 5.153h.022Zm14.131-20.158a4.281 4.281 0 0 1-3.442 3.27 4.479 4.479 0 0 1-1.704-.044 4.325 4.325 0 0 1-2.165-1.212 4.168 4.168 0 0 1-1.126-2.245 4.215 4.215 0 0 1 .044-1.703 4.33 4.33 0 0 1 1.198-2.165 4.254 4.254 0 0 1 2.244-1.14 4.196 4.196 0 0 1 1.704.043 4.283 4.283 0 0 1 3.269 3.442c.127.578.13 1.176.007 1.754h-.029Z"/><path fill="#C6CAFA" d="M286.274 493.996H163a25.327 25.327 0 0 1 24.94-20.887h.969a36.495 36.495 0 0 1 66.759 7.456 18.24 18.24 0 0 1 30.606 13.414v.017ZM206.863 429.114H132a15.09 15.09 0 0 1 5.268-8.95 15.536 15.536 0 0 1 9.878-3.532h.588a22.014 22.014 0 0 1 9.208-8.708 22.476 22.476 0 0 1 12.561-2.262 22.346 22.346 0 0 1 11.745 4.934 21.788 21.788 0 0 1 7.028 10.492 11.152 11.152 0 0 1 5.68-2.736 11.25 11.25 0 0 1 6.275.768 11.029 11.029 0 0 1 4.827 4.021 10.771 10.771 0 0 1 1.805 5.963v.01Z"/><rect width="237" height="237" x="121.5" y="136.027" fill="#fff" rx="6.5"/><rect width="237" height="237" x="121.5" y="136.027" stroke="#000" stroke-width="3" rx="6.5"/><path fill="url(#b)" d="M143.5 158.027h193v193h-193z"/><path fill="#6A45E3" stroke="#000" stroke-miterlimit="10" stroke-width="3" d="m430.955 273.799 9.734-5.042a35.594 35.594 0 0 0 14.314-13.491 35.735 35.735 0 0 0 4.987-19.058l-.649-29.123-30.168-11.558h-.483L399 208.381l.649 29.123a36.285 36.285 0 0 0 6.979 20.506 34.302 34.302 0 0 0 13.786 11.226l10.057 4.569.484-.006Z"/><path fill="#fff" d="M424.622 246.784a2.078 2.078 0 0 1-1.622-.651l-8.436-7.995a2.306 2.306 0 0 1 0-3.255 2.293 2.293 0 0 1 3.245 0l6.682 6.533 16.706-17.902a2.29 2.29 0 0 1 3.247-.168 2.306 2.306 0 0 1 .168 3.257l-18.334 19.53a2.144 2.144 0 0 1-1.622.651h-.034Z"/><path stroke="#000" stroke-miterlimit="10" stroke-width="3" d="M43.519 251.354a4.95 4.95 0 0 0 0-6.985 4.912 4.912 0 0 0-6.962 0 4.95 4.95 0 0 0 0 6.985 4.912 4.912 0 0 0 6.962 0Z"/><path stroke="#000" stroke-linecap="round" stroke-miterlimit="10" stroke-width="3" d="M15.217 215.527v10.457M10 220.748h10.423M383.218 280.527v10.457M378 285.748h10.423M229.218 420.527v10.457M224 425.748h10.423"/><path stroke="#000" stroke-miterlimit="10" stroke-width="3" d="M202.519 66.354a4.951 4.951 0 0 0 0-6.985 4.913 4.913 0 0 0-6.963 0 4.951 4.951 0 0 0 0 6.985 4.913 4.913 0 0 0 6.963 0ZM192.519 96.354a4.951 4.951 0 0 0 0-6.985 4.913 4.913 0 0 0-6.963 0 4.951 4.951 0 0 0 0 6.985 4.913 4.913 0 0 0 6.963 0ZM245.519 401.354a4.952 4.952 0 0 0 0-6.985 4.912 4.912 0 0 0-6.963 0 4.952 4.952 0 0 0 0 6.985 4.912 4.912 0 0 0 6.963 0ZM430.519 479.354a4.952 4.952 0 0 0 0-6.985 4.912 4.912 0 0 0-6.963 0 4.952 4.952 0 0 0 0 6.985 4.912 4.912 0 0 0 6.963 0Z"/><path fill="#C6CAFA" d="M507.863 302.114H433a15.09 15.09 0 0 1 5.268-8.95 15.536 15.536 0 0 1 9.878-3.532h.588a22.014 22.014 0 0 1 9.208-8.708 22.476 22.476 0 0 1 12.561-2.262 22.346 22.346 0 0 1 11.745 4.934 21.788 21.788 0 0 1 7.028 10.492 11.152 11.152 0 0 1 5.68-2.736 11.25 11.25 0 0 1 6.275.768 11.029 11.029 0 0 1 4.827 4.021 10.771 10.771 0 0 1 1.805 5.963v.01Z"/></g><defs><clipPath id="a"><path fill="#fff" d="M0 .527h480v508H0z"/></clipPath><pattern id="b" width="1" height="1" patternContentUnits="objectBoundingBox"><use xlink:href="#c" transform="scale(.00333)"/></pattern></defs></svg>
