<svg width="478" height="485" fill="none" xmlns="http://www.w3.org/2000/svg"><path d="M263.199 -197.449C317.103 -214.572 374.987 -214.572 428.891 -197.449L501.193 -174.483C614.475 -138.499 692 -33.259 692 86.3183V148.735C692 262.35 631.646 347.547 599.505 385.623C578.799 410.153 552.206 436.082 519.904 458.169C495.074 475.146 432.441 514.072 346.045 514.072C261.765 514.072 199.968 477.534 172.377 458.855C138.815 436.134 111.593 409.35 90.6602 384.193C57.1933 343.972 0.0898661 259.629 0.0898438 148.735V86.3183C0.08997 -33.2596 77.6156 -138.499 190.896 -174.483L263.199 -197.449ZM349.231 51.08C347.288 50.4626 345.209 50.4236 343.249 50.9638L342.858 51.08L270.556 74.0468C266.186 75.4348 263.217 79.4827 263.217 84.0683V146.485C263.217 167.96 276.164 193.499 292.925 213.642C301.312 223.723 310.674 232.476 319.887 238.713C329.089 244.942 338.19 248.694 346.045 248.694C353.42 248.694 362.281 244.938 371.388 238.712C380.507 232.476 389.929 223.724 398.437 213.645C415.437 193.506 428.873 167.964 428.873 146.485V84.0683C428.873 79.4826 425.904 75.4348 421.534 74.0468L349.231 51.08ZM333.729 245.647C333.65 245.617 333.572 245.586 333.493 245.556C333.572 245.586 333.65 245.617 333.729 245.647ZM332.985 245.353C332.929 245.331 332.873 245.309 332.816 245.286L332.697 245.236C332.793 245.276 332.889 245.315 332.985 245.353ZM326.427 242.199C326.327 242.144 326.226 242.091 326.126 242.035L325.277 241.554C325.661 241.774 326.045 241.988 326.427 242.199ZM312.829 232.881C312.684 232.763 312.538 232.645 312.393 232.526L311.534 231.813C311.965 232.174 312.397 232.53 312.829 232.881ZM281.593 197.418C282.038 198.111 282.489 198.801 282.945 199.488C282.717 199.145 282.49 198.801 282.265 198.456L281.593 197.418ZM274.839 185.765L275.401 186.839C275.212 186.481 275.024 186.124 274.839 185.766L274.288 184.689C274.47 185.048 274.653 185.406 274.839 185.765ZM273.221 182.533L273.749 183.612C273.393 182.894 273.045 182.174 272.705 181.454V181.453C272.875 181.813 273.047 182.173 273.221 182.533ZM425.139 166.315L424.8 167.391C424.942 166.949 425.078 166.506 425.213 166.065C425.188 166.148 425.164 166.232 425.139 166.315ZM264.596 156.815C264.577 156.706 264.559 156.597 264.541 156.488C264.559 156.597 264.577 156.706 264.596 156.815ZM264.456 155.966C264.433 155.817 264.409 155.669 264.387 155.521C264.409 155.669 264.433 155.817 264.456 155.966ZM264.125 153.616C264.088 153.313 264.053 153.01 264.021 152.708L264.125 153.616ZM263.99 152.412C263.962 152.137 263.935 151.862 263.91 151.588C263.935 151.862 263.962 152.137 263.99 152.412ZM263.898 151.466C263.871 151.153 263.846 150.841 263.823 150.529V150.528C263.846 150.84 263.871 151.153 263.898 151.466ZM268.159 75.6982C268.265 75.6275 268.373 75.5589 268.482 75.4921L268.159 75.6982ZM268.911 75.245C268.799 75.306 268.689 75.3686 268.58 75.4335C268.689 75.3686 268.799 75.306 268.911 75.245ZM269.031 75.1786C269.087 75.1492 269.144 75.1221 269.2 75.0937C269.144 75.1221 269.087 75.1492 269.031 75.1786ZM269.311 75.037C269.364 75.0108 269.419 74.9861 269.473 74.9608C269.419 74.9861 269.364 75.0108 269.311 75.037ZM269.607 74.8983C269.678 74.8668 269.748 74.8365 269.819 74.8065C269.748 74.8365 269.678 74.8668 269.607 74.8983ZM349.093 51.5155L421.396 74.4823C421.572 74.5382 421.745 74.5996 421.916 74.6649L421.657 74.5712C421.571 74.5409 421.483 74.5112 421.396 74.4833L349.093 51.5165L348.72 51.4052C348.845 51.4396 348.969 51.4762 349.093 51.5155ZM269.851 74.7929C269.937 74.7565 270.025 74.7214 270.113 74.6874C270.025 74.7214 269.937 74.7565 269.851 74.7929ZM343.37 51.4052C343.245 51.4397 343.121 51.4772 342.997 51.5165L270.694 74.4833C270.512 74.5412 270.332 74.6034 270.155 74.6708C270.332 74.6033 270.512 74.5402 270.694 74.4823L342.997 51.5155C343.121 51.4762 343.245 51.4396 343.37 51.4052ZM344.508 51.162L344.126 51.2284C344.253 51.2038 344.38 51.1817 344.507 51.162L344.891 51.1103C344.763 51.125 344.635 51.1423 344.508 51.162ZM345.659 51.0517L345.274 51.0732C345.531 51.0535 345.788 51.0439 346.045 51.0439C345.916 51.0439 345.788 51.0467 345.659 51.0517Z" fill="#0060DF" fill-opacity=".035"/><path d="M276.498 -155.58C321.748 -169.954 370.341 -169.954 415.591 -155.58L487.894 -132.613C582.999 -102.403 648.068 -14.0516 648.068 86.3192V148.735C648.068 246.948 595.568 322.18 565.935 357.286C547.265 379.404 523.538 402.464 495.108 421.904C472.917 437.077 419.257 470.14 346.044 470.14C274.527 470.14 221.529 439.079 197.004 422.476C167.508 402.508 143.266 378.735 124.428 356.095C93.7247 319.195 44.0198 244.674 44.0197 148.735V86.3192C44.0197 -14.0522 109.091 -102.403 204.195 -132.613L276.498 -155.58ZM349.231 51.0799C347.287 50.4626 345.209 50.4235 343.248 50.9637L342.858 51.0799L270.555 74.0467C266.185 75.4348 263.216 79.4826 263.216 84.0682V146.485C263.216 167.96 276.163 193.499 292.924 213.642C301.311 223.723 310.673 232.476 319.886 238.713C329.088 244.942 338.189 248.694 346.044 248.694C353.419 248.694 362.28 244.938 371.387 238.712C380.506 232.476 389.928 223.724 398.436 213.645C415.436 193.506 428.872 167.964 428.872 146.485V84.0682C428.872 79.4825 425.903 75.4347 421.533 74.0467L349.231 51.0799ZM318.076 236.892C317.904 236.769 317.732 236.647 317.56 236.522L316.698 235.89C317.157 236.231 317.617 236.564 318.076 236.892ZM311.922 232.136C311.792 232.028 311.662 231.922 311.532 231.813L310.675 231.089C311.09 231.442 311.506 231.791 311.922 232.136ZM266.636 76.9432L266.363 77.2245C266.452 77.1287 266.543 77.0345 266.636 76.9422L266.919 76.6717C266.823 76.7604 266.728 76.851 266.636 76.9432ZM267.518 76.162L267.213 76.411C267.313 76.3259 267.414 76.2422 267.518 76.161L267.833 75.9237C267.726 76.0011 267.621 76.0807 267.518 76.162ZM424.255 75.9237C424.352 75.9937 424.447 76.066 424.54 76.1395L424.255 75.9237ZM268.493 75.4842C268.598 75.4204 268.704 75.3589 268.812 75.2987L268.493 75.4842ZM423.25 75.2831L423.595 75.4842C423.452 75.3971 423.306 75.3142 423.158 75.2342C423.189 75.2507 423.22 75.2662 423.25 75.2831ZM269.721 74.8475C269.426 74.9758 269.139 75.1174 268.86 75.2713C269.139 75.1174 269.426 74.9758 269.721 74.8475ZM422.651 74.9774C422.8 75.0475 422.946 75.1217 423.09 75.1981C422.946 75.1216 422.8 75.0475 422.651 74.9774ZM349.092 51.5155L421.395 74.4823C421.571 74.5382 421.744 74.5996 421.915 74.6649L421.656 74.5711C421.57 74.5409 421.483 74.5112 421.395 74.4832L349.092 51.5164L348.719 51.4051C348.844 51.4395 348.968 51.4762 349.092 51.5155ZM343.472 51.3778C343.312 51.4199 343.154 51.4664 342.996 51.5164L270.693 74.4832C270.372 74.5854 270.058 74.7025 269.753 74.8338C270.058 74.7024 270.372 74.5845 270.693 74.4823L342.996 51.5155C343.154 51.4654 343.312 51.4199 343.472 51.3778ZM344.89 51.1102C344.576 51.1464 344.264 51.1977 343.954 51.2635C344.137 51.2246 344.321 51.1895 344.506 51.161L344.89 51.1102ZM347.963 51.2274L348.052 51.2459C347.985 51.2324 347.918 51.22 347.851 51.2079C347.888 51.2146 347.926 51.2201 347.963 51.2274ZM347.533 51.1551C347.596 51.1643 347.658 51.1741 347.721 51.1844C347.658 51.1739 347.596 51.1644 347.533 51.1551ZM346.43 51.0506C346.301 51.0457 346.173 51.0438 346.044 51.0438L345.658 51.0506C345.915 51.0408 346.173 51.0408 346.43 51.0506ZM343.472 51.3778C343.619 51.3388 343.767 51.3035 343.916 51.2713C343.767 51.3035 343.619 51.3388 343.472 51.3778Z" fill="#0060DF" fill-opacity=".035"/><path d="M289.799 -113.214C326.395 -124.839 365.695 -124.839 402.291 -113.214L474.594 -90.2473C551.521 -65.8116 604.139 5.64847 604.139 86.8152V149.232C604.139 232.05 559.487 297.318 532.366 329.446C515.733 349.151 494.873 369.344 470.313 386.137C450.757 399.509 406.072 426.707 346.045 426.707C287.29 426.707 243.091 401.121 221.633 386.595C196.203 369.379 174.943 348.616 158.198 328.492C130.267 294.923 87.9515 230.225 87.9514 149.232V86.8152C87.9515 5.64808 140.57 -65.8117 217.496 -90.2473L289.799 -113.214ZM349.232 51.0798C347.288 50.4625 345.21 50.4234 343.249 50.9636L342.859 51.0798L270.556 74.0466C266.187 75.4347 263.217 79.4826 263.217 84.0681V146.485C263.217 167.959 276.164 193.499 292.925 213.642C301.312 223.722 310.675 232.476 319.887 238.713C329.089 244.942 338.19 248.694 346.045 248.694C353.42 248.694 362.282 244.938 371.388 238.712C380.507 232.476 389.929 223.724 398.437 213.645C415.437 193.506 428.873 167.964 428.873 146.485V84.0681C428.873 79.4825 425.904 75.4346 421.534 74.0466L349.232 51.0798ZM333.729 245.647C333.65 245.617 333.572 245.586 333.493 245.555C333.572 245.586 333.65 245.617 333.729 245.647ZM332.986 245.353C332.929 245.331 332.873 245.309 332.817 245.286L332.698 245.236C332.794 245.276 332.89 245.314 332.986 245.353ZM326.427 242.199C326.327 242.144 326.226 242.091 326.126 242.035L325.278 241.553C325.661 241.774 326.045 241.988 326.427 242.199ZM281.593 197.418C282.038 198.111 282.489 198.801 282.946 199.488C282.717 199.145 282.49 198.801 282.265 198.456L281.593 197.418ZM274.839 185.764L275.402 186.839C275.212 186.481 275.025 186.124 274.839 185.765L274.288 184.689C274.47 185.048 274.654 185.406 274.839 185.764ZM273.221 182.533L273.749 183.612C273.394 182.894 273.045 182.174 272.705 181.454V181.453C272.875 181.813 273.047 182.173 273.221 182.533ZM425.139 166.315L424.8 167.39C424.942 166.948 425.079 166.506 425.213 166.065C425.188 166.148 425.165 166.232 425.139 166.315ZM264.596 156.815C264.58 156.722 264.565 156.628 264.549 156.535C264.565 156.628 264.58 156.722 264.596 156.815ZM264.456 155.966C264.433 155.817 264.409 155.669 264.387 155.521C264.409 155.669 264.433 155.817 264.456 155.966ZM264.125 153.616C264.088 153.313 264.053 153.01 264.021 152.708L264.125 153.616ZM263.99 152.412C263.962 152.137 263.935 151.862 263.91 151.588C263.935 151.862 263.962 152.137 263.99 152.412ZM263.899 151.466C263.871 151.153 263.846 150.841 263.823 150.529V150.528C263.846 150.84 263.871 151.152 263.899 151.466ZM268.159 75.698C268.266 75.6273 268.373 75.5588 268.483 75.492L268.159 75.698ZM268.911 75.2449C268.8 75.3059 268.689 75.3685 268.58 75.4334C268.689 75.3684 268.8 75.3059 268.911 75.2449ZM269.031 75.1785C269.087 75.149 269.144 75.122 269.2 75.0935C269.144 75.1219 269.087 75.1491 269.031 75.1785ZM269.311 75.0369C269.364 75.0107 269.419 74.986 269.473 74.9607C269.419 74.986 269.364 75.0107 269.311 75.0369ZM269.608 74.8982C269.678 74.8667 269.749 74.8364 269.82 74.8064C269.749 74.8364 269.678 74.8667 269.608 74.8982ZM349.093 51.5154L421.396 74.4822C421.572 74.5381 421.745 74.5995 421.916 74.6648L421.657 74.5711C421.571 74.5408 421.484 74.5111 421.396 74.4832L349.093 51.5164L348.72 51.405C348.845 51.4395 348.969 51.4761 349.093 51.5154ZM269.851 74.7927C269.938 74.7564 270.025 74.7213 270.114 74.6873C270.025 74.7213 269.938 74.7564 269.851 74.7927ZM343.37 51.405C343.245 51.4396 343.121 51.477 342.997 51.5164L270.695 74.4832C270.512 74.5411 270.333 74.6033 270.156 74.6707C270.333 74.6032 270.512 74.5401 270.695 74.4822L342.997 51.5154C343.121 51.4761 343.246 51.4395 343.37 51.405ZM344.508 51.1619L344.126 51.2283C344.253 51.2037 344.38 51.1815 344.507 51.1619L344.891 51.1101C344.763 51.1249 344.635 51.1422 344.508 51.1619ZM345.659 51.0515L345.275 51.073C345.531 51.0533 345.788 51.0437 346.045 51.0437C345.917 51.0437 345.788 51.0466 345.659 51.0515Z" fill="#0060DF" fill-opacity=".035"/><path d="M303.098 -71.3469C331.041 -80.2229 361.049 -80.223 388.992 -71.3469L461.294 -48.3801C520.041 -29.7194 560.207 24.8482 560.208 86.8133V149.23C560.207 216.659 523.395 271.965 498.795 301.107C484.198 318.4 466.205 335.724 445.516 349.871C428.591 361.443 392.882 382.774 346.044 382.774C300.05 382.774 264.649 362.664 246.26 350.215C224.896 335.751 206.619 317.998 191.968 300.391C166.817 270.165 131.881 215.287 131.881 149.23V86.8133C131.881 24.8478 172.049 -29.7195 230.795 -48.3801L303.098 -71.3469ZM349.231 51.0799C347.287 50.4625 345.209 50.4234 343.249 50.9637L342.858 51.0799L270.555 74.0467C266.186 75.4348 263.216 79.4825 263.216 84.0681V146.485C263.216 167.959 276.164 193.499 292.924 213.642C301.312 223.723 310.674 232.476 319.886 238.713C329.088 244.942 338.189 248.694 346.044 248.694C353.42 248.694 362.281 244.938 371.387 238.712C380.507 232.476 389.928 223.724 398.436 213.645C415.436 193.506 428.872 167.964 428.873 146.485V84.0681C428.872 79.4824 425.903 75.4347 421.534 74.0467L349.231 51.0799ZM318.077 236.892C317.905 236.769 317.732 236.647 317.56 236.522L316.699 235.89C317.158 236.231 317.618 236.564 318.077 236.892ZM311.922 232.136C311.793 232.028 311.662 231.922 311.533 231.813L310.675 231.089C311.09 231.442 311.507 231.791 311.922 232.136ZM279.042 193.303C279.027 193.278 279.012 193.252 278.997 193.226L278.372 192.169C278.593 192.548 278.817 192.926 279.042 193.303ZM267.833 75.9236C267.406 76.2328 267.007 76.5743 266.636 76.9431L266.364 77.2244C266.719 76.8419 267.105 76.4857 267.518 76.1609L267.833 75.9236ZM425.092 76.6023C425.117 76.625 425.143 76.6478 425.167 76.6707C425.143 76.6478 425.117 76.625 425.092 76.6023ZM424.843 76.3846C424.862 76.4007 424.881 76.4172 424.9 76.4334C424.881 76.4172 424.862 76.4007 424.843 76.3846ZM268.838 75.284L268.494 75.4842C268.607 75.415 268.722 75.3478 268.838 75.283L269.192 75.0955C269.072 75.1559 268.955 75.2192 268.838 75.284ZM423.25 75.283L423.595 75.4842C423.482 75.4151 423.367 75.3487 423.25 75.284L422.897 75.0955C423.016 75.1558 423.134 75.2183 423.25 75.283ZM269.92 74.7635C270.173 74.6599 270.431 74.5659 270.694 74.4822L342.997 51.5154C343.031 51.5046 343.065 51.4956 343.099 51.4851C343.065 51.4956 343.031 51.5056 342.997 51.5164L270.694 74.4832C270.433 74.5662 270.177 74.6591 269.926 74.7615L269.92 74.7635ZM349.092 51.5154L421.395 74.4822C421.571 74.5381 421.745 74.5995 421.916 74.6648L421.657 74.5711C421.57 74.5408 421.483 74.5111 421.395 74.4832L349.092 51.5164L348.719 51.4051C348.844 51.4395 348.969 51.4761 349.092 51.5154ZM343.363 51.408C343.418 51.3928 343.473 51.3783 343.528 51.364C343.473 51.3783 343.418 51.3928 343.363 51.408ZM343.882 51.2791C343.926 51.2694 343.97 51.2598 344.014 51.2508C343.97 51.2598 343.926 51.2694 343.882 51.2791ZM347.963 51.2273L348.023 51.24C347.951 51.2257 347.88 51.2118 347.808 51.199C347.86 51.2082 347.912 51.2173 347.963 51.2273ZM347.555 51.158C347.62 51.1678 347.685 51.1781 347.75 51.1892C347.685 51.1781 347.62 51.1679 347.555 51.158ZM347.268 51.1189C347.33 51.1264 347.391 51.1337 347.453 51.1424C347.391 51.1337 347.33 51.1265 347.268 51.1189ZM344.818 51.1189C344.842 51.116 344.866 51.112 344.89 51.1092L344.955 51.1023C344.909 51.1073 344.863 51.1133 344.818 51.1189ZM346.815 51.073C346.932 51.082 347.049 51.0932 347.167 51.1062L346.815 51.073ZM346.43 51.0506C346.302 51.0457 346.173 51.0437 346.044 51.0437L345.659 51.0506C345.787 51.0457 345.916 51.0428 346.044 51.0428L346.43 51.0506ZM269.555 74.9217C269.676 74.8667 269.797 74.814 269.92 74.7635L269.555 74.9217Z" fill="#0060DF" fill-opacity=".035"/><path d="M316.399 -29.4778C335.689 -35.605 356.403 -35.6051 375.693 -29.4778L447.996 -6.51099C488.559 6.37366 516.278 44.0463 516.278 86.8132V149.23C516.278 201.277 487.297 246.624 465.227 272.769C452.666 287.65 437.541 302.107 420.721 313.607C406.421 323.385 379.69 338.843 346.046 338.843C312.81 338.842 286.207 324.206 270.888 313.836C253.589 302.124 238.294 287.382 225.738 272.293C203.379 245.421 175.814 200.36 175.814 149.23V86.8132C175.814 44.0462 203.533 6.3737 244.095 -6.51099L316.399 -29.4778ZM349.232 51.0798C347.159 50.4213 344.932 50.4213 342.859 51.0798L270.556 74.0466C266.187 75.4347 263.218 79.4824 263.218 84.0681V146.485C263.218 167.959 276.165 193.499 292.926 213.642C301.313 223.723 310.675 232.476 319.887 238.713C329.09 244.942 338.191 248.694 346.046 248.694C353.421 248.694 362.282 244.938 371.388 238.712C380.508 232.476 389.929 223.724 398.437 213.645C415.437 193.506 428.874 167.964 428.874 146.485V84.0681C428.874 79.4823 425.905 75.4346 421.535 74.0466L349.232 51.0798ZM331.993 244.939C332.544 245.176 333.093 245.4 333.638 245.613L334.454 245.923C333.911 245.722 333.366 245.509 332.817 245.285L331.993 244.939ZM330.334 244.195L331.165 244.576C330.888 244.452 330.611 244.325 330.333 244.195L329.498 243.797C329.777 243.932 330.056 244.065 330.334 244.195ZM311.959 232.165C311.817 232.048 311.675 231.931 311.534 231.813L310.677 231.089C311.103 231.452 311.531 231.81 311.959 232.165ZM263.76 149.509L263.824 150.528C263.775 149.847 263.738 149.17 263.713 148.496V148.495C263.725 148.832 263.741 149.17 263.76 149.509ZM266.104 77.5163L265.855 77.8171C265.936 77.715 266.019 77.6143 266.104 77.5154L266.365 77.2244C266.276 77.32 266.189 77.4174 266.104 77.5163ZM267.519 76.1609C267.313 76.3233 267.113 76.4943 266.921 76.6716L266.637 76.9421C266.823 76.7578 267.015 76.5799 267.215 76.4099L267.519 76.1609ZM424.572 76.1609C424.669 76.237 424.764 76.3155 424.857 76.3953L424.572 76.1609ZM268.16 75.698L267.835 75.9236C267.942 75.8462 268.05 75.7703 268.16 75.697L268.495 75.4841C268.382 75.5532 268.27 75.6247 268.16 75.698ZM423.931 75.697L424.257 75.9236C424.15 75.8463 424.041 75.7712 423.931 75.698L423.596 75.4841C423.71 75.5531 423.821 75.6238 423.931 75.697ZM269.556 74.9216L269.193 75.0955C269.313 75.035 269.434 74.9766 269.556 74.9206L269.927 74.7605C269.802 74.8117 269.679 74.8658 269.556 74.9216ZM422.535 74.9206L422.898 75.0955C422.779 75.0352 422.658 74.9774 422.536 74.9216L422.164 74.7605C422.289 74.8116 422.413 74.8649 422.535 74.9206ZM348.344 51.3083L348.72 51.405C348.595 51.3705 348.47 51.3389 348.344 51.3093L347.965 51.2273C348.091 51.2519 348.218 51.2788 348.344 51.3083ZM343.43 51.3904C343.53 51.3635 343.631 51.3399 343.731 51.3162C343.631 51.3399 343.53 51.3635 343.43 51.3904ZM343.954 51.2644C344.045 51.245 344.137 51.2285 344.228 51.2117C344.137 51.2285 344.045 51.245 343.954 51.2644ZM344.483 51.1667C344.58 51.1516 344.676 51.139 344.773 51.1267C344.676 51.1391 344.58 51.1516 344.483 51.1667ZM347.2 51.1091L347.584 51.1609C347.434 51.1377 347.283 51.1186 347.133 51.1023C347.155 51.1047 347.178 51.1065 347.2 51.1091ZM344.995 51.0994C345.093 51.0891 345.191 51.0814 345.29 51.074C345.191 51.0814 345.093 51.089 344.995 51.0994ZM346.599 51.0593C346.685 51.0641 346.771 51.0709 346.857 51.0779C346.771 51.0709 346.685 51.064 346.599 51.0593ZM345.549 51.0564C345.622 51.0527 345.696 51.0516 345.769 51.0496C345.696 51.0516 345.622 51.0527 345.549 51.0564ZM346.311 51.0496C346.235 51.0476 346.16 51.044 346.084 51.0437C346.16 51.044 346.235 51.0476 346.311 51.0496Z" fill="#0060DF" fill-opacity=".035"/><path d="M329.698 12.3923C340.334 9.01381 351.756 9.01375 362.392 12.3923L434.695 35.3591C457.07 42.4663 472.346 63.2412 472.346 86.8141V149.231C472.346 185.908 451.185 221.298 431.656 244.433C421.132 256.901 408.874 268.489 395.925 277.343C384.241 285.332 366.49 294.913 346.045 294.913C325.567 294.913 307.761 285.749 295.515 277.459C282.281 268.499 269.968 256.767 259.508 244.195C239.953 220.695 219.744 185.447 219.744 149.231V86.8141C219.744 63.2412 235.02 42.4664 257.394 35.3591L329.698 12.3923ZM349.231 51.0807C347.158 50.4222 344.931 50.4222 342.858 51.0807L270.555 74.0475C266.186 75.4356 263.217 79.4833 263.217 84.069V146.486C263.217 167.96 276.164 193.5 292.925 213.643C301.312 223.723 310.674 232.477 319.886 238.714C329.089 244.943 338.19 248.695 346.045 248.695C353.42 248.695 362.281 244.939 371.387 238.713C380.507 232.477 389.928 223.725 398.436 213.646C415.436 193.507 428.873 167.965 428.873 146.486V84.069C428.873 79.4832 425.904 75.4356 421.534 74.0475L349.231 51.0807ZM331.992 244.94C332.543 245.177 333.092 245.401 333.637 245.614L334.453 245.924C333.91 245.723 333.365 245.51 332.816 245.286L331.992 244.94ZM330.333 244.196L331.164 244.577C330.887 244.453 330.61 244.326 330.332 244.196L329.497 243.798C329.776 243.933 330.055 244.066 330.333 244.196ZM311.958 232.166C311.816 232.049 311.674 231.932 311.533 231.814L310.676 231.09C311.102 231.453 311.53 231.811 311.958 232.166ZM266.23 164.169L266.528 165.241C266.324 164.526 266.13 163.812 265.947 163.1V163.099C266.039 163.455 266.133 163.812 266.23 164.169ZM263.759 149.509L263.823 150.529C263.774 149.848 263.737 149.171 263.712 148.497V148.496C263.724 148.833 263.74 149.171 263.759 149.509ZM266.103 77.5173L265.854 77.818C265.935 77.7159 266.018 77.6152 266.103 77.5163L266.364 77.2253C266.275 77.3209 266.188 77.4183 266.103 77.5173ZM267.214 76.4118L266.92 76.6716C267.016 76.5829 267.114 76.4958 267.214 76.4108L267.518 76.1618C267.415 76.243 267.314 76.3267 267.214 76.4118ZM424.571 76.1618C424.668 76.2379 424.763 76.3164 424.856 76.3962L424.571 76.1618ZM268.159 75.6989L267.834 75.9245C267.941 75.8471 268.049 75.7712 268.159 75.6979L268.494 75.485C268.381 75.5541 268.269 75.6256 268.159 75.6989ZM423.93 75.6979L424.256 75.9245C424.149 75.8472 424.04 75.7721 423.93 75.6989L423.595 75.485C423.709 75.554 423.82 75.6248 423.93 75.6979ZM269.555 74.9225L269.192 75.0964C269.312 75.0359 269.433 74.9775 269.555 74.9216L269.927 74.7614C269.801 74.8126 269.678 74.8667 269.555 74.9225ZM422.534 74.9216L422.897 75.0964C422.778 75.0361 422.657 74.9783 422.535 74.9225L422.163 74.7614C422.288 74.8125 422.412 74.8658 422.534 74.9216ZM342.997 51.5163C343.107 51.4812 343.218 51.4489 343.33 51.4177L342.997 51.5163ZM347.964 51.2282C348.217 51.2774 348.469 51.336 348.719 51.405L349.093 51.5163C348.845 51.4376 348.594 51.3693 348.343 51.3102L347.964 51.2282ZM343.457 51.3835C343.511 51.3689 343.566 51.3541 343.621 51.3405C343.566 51.3541 343.511 51.3689 343.457 51.3835ZM343.708 51.319C343.773 51.3033 343.839 51.2884 343.905 51.2741C343.839 51.2884 343.773 51.3033 343.708 51.319ZM343.995 51.2546C344.065 51.24 344.135 51.2267 344.206 51.2136C344.135 51.2266 344.065 51.24 343.995 51.2546ZM344.778 51.1237C344.599 51.1465 344.419 51.1742 344.241 51.2067C344.419 51.1742 344.599 51.1465 344.778 51.1237ZM345.08 51.0905C345.145 51.0843 345.209 51.0779 345.274 51.0729L345.349 51.068C345.259 51.0743 345.17 51.0818 345.08 51.0905ZM346.43 51.0514C346.676 51.0609 346.921 51.0787 347.166 51.1061C347.049 51.0931 346.932 51.0829 346.815 51.0739L346.43 51.0514ZM344.829 51.1178C344.912 51.1077 344.996 51.0986 345.08 51.0905C344.996 51.0986 344.912 51.1077 344.829 51.1178Z" fill="#0060DF" fill-opacity=".035"/><path d="M343.273 50.2783C345.194 49.7488 347.232 49.7865 349.137 50.3916L421.822 73.4795L422.219 73.6152C426.284 75.0893 429.015 78.9481 429.015 83.3027V146.043C429.015 167.548 415.554 193.162 398.488 213.38C389.95 223.494 380.498 232.273 371.355 238.524C362.219 244.771 353.36 248.516 346.014 248.516C338.183 248.516 329.082 244.773 319.852 238.524C310.616 232.272 301.225 223.493 292.809 213.378C275.984 193.157 263.012 167.546 263.012 146.043V83.3027C263.012 78.8075 265.923 74.8402 270.206 73.4795L342.89 50.3916L343.273 50.2783Z" stroke="#000" stroke-opacity=".08" stroke-width=".5" stroke-linecap="round" stroke-linejoin="round"/><path d="M346.503 218.95V81.1916C346.503 78.7109 348.918 76.9484 351.28 77.7051L402.533 94.122C404.049 94.6075 405.077 96.0168 405.077 97.6084V147.562C405.077 176.495 367.495 216.504 350.079 221.981C348.15 222.587 346.503 220.972 346.503 218.95Z" fill="#0060DF" fill-opacity=".16"/><path d="M346.753 81.1914C346.753 78.9524 348.865 77.3412 350.998 77.8838L351.204 77.9434L402.457 94.3604C403.869 94.8128 404.827 96.1255 404.827 97.6084V147.562C404.827 161.939 395.479 179.117 383.915 193.41C378.138 200.55 371.819 206.957 365.86 211.919C360.082 216.73 354.66 220.168 350.411 221.609L350.004 221.742C349.128 222.017 348.325 221.79 347.733 221.264C347.137 220.734 346.753 219.894 346.753 218.95V81.1914Z" stroke="#000" stroke-opacity=".04" stroke-width=".5" stroke-linecap="round" stroke-linejoin="round"/></svg>