<svg width="551" height="321" fill="none" xmlns="http://www.w3.org/2000/svg"><path d="M82.4805 -220.941C141.377 -239.65 204.623 -239.65 263.52 -220.941L342.52 -195.848C466.294 -156.531 551 -41.5421 551 89.1113V157.31C551 281.448 485.056 374.535 449.938 416.139C427.313 442.94 398.258 471.272 362.964 495.404C335.834 513.954 267.399 556.485 173 556.485C80.914 556.485 13.3932 516.563 -16.7539 496.154C-53.4244 471.329 -83.1696 442.064 -106.041 414.577C-142.608 370.631 -205 278.474 -205 157.31V89.1113C-205 -41.5429 -120.293 -156.531 3.48047 -195.848L82.4805 -220.941ZM176.481 50.6083C174.358 49.9338 172.087 49.8922 169.945 50.4824L169.519 50.6083L90.5186 75.7031C85.7443 77.2196 82.5002 81.6419 82.5 86.6523V154.851C82.5001 178.314 96.6458 206.22 114.959 228.229C124.123 239.243 134.353 248.807 144.419 255.621C154.473 262.428 164.417 266.527 173 266.527C181.058 266.527 190.74 262.423 200.689 255.62C210.654 248.807 220.948 239.245 230.244 228.232C248.819 206.227 263.5 178.319 263.5 154.851V86.6523C263.5 81.6419 260.256 77.2196 255.481 75.7031L176.481 50.6083ZM171.738 50.6415C171.459 50.6738 171.18 50.7167 170.903 50.7704C171.042 50.7435 171.181 50.7188 171.32 50.6972L171.738 50.6415Z" fill="#0060DF" fill-opacity=".035"/><path d="M97.0117 -175.194C146.453 -190.899 199.547 -190.899 248.988 -175.194L327.988 -150.099C431.903 -117.091 503 -20.556 503 89.1117V157.309C503 264.619 445.637 346.819 413.258 385.177C392.858 409.343 366.935 434.541 335.871 455.782C311.625 472.36 252.995 508.486 173 508.486C94.8584 508.486 36.9509 474.548 10.1543 456.407C-22.0735 434.589 -48.56 408.613 -69.1436 383.875C-102.691 343.558 -157 262.135 -157 157.309V89.1117C-157 -20.5567 -85.9022 -117.091 18.0117 -150.099L97.0117 -175.194ZM176.481 50.6087C174.216 49.8893 171.784 49.8893 169.519 50.6087L90.5186 75.7035C85.7443 77.22 82.5002 81.6423 82.5 86.6527V154.851C82.5 178.315 96.6457 206.221 114.959 228.23C124.123 239.244 134.353 248.807 144.419 255.621C154.473 262.428 164.417 266.528 173 266.528C181.058 266.528 190.74 262.424 200.689 255.62C210.654 248.807 220.948 239.245 230.244 228.233C248.819 206.228 263.5 178.32 263.5 154.851V86.6527C263.5 81.6423 260.256 77.22 255.481 75.7035L176.481 50.6087Z" fill="#0060DF" fill-opacity=".035"/><path d="M111.544 -128.903C151.53 -141.604 194.47 -141.604 234.456 -128.903L313.456 -103.809C397.509 -77.1097 455 0.969986 455 89.655V157.853C455 248.342 406.211 319.655 376.579 354.76C358.405 376.29 335.613 398.353 308.778 416.702C287.412 431.312 238.587 461.029 173 461.029C108.802 461.029 60.5086 433.074 37.0635 417.202C9.27787 398.391 -13.9505 375.705 -32.2461 353.718C-62.7648 317.04 -109 246.349 -109 157.853V89.655C-109 0.969513 -51.5084 -77.1098 32.5439 -103.809L111.544 -128.903ZM176.481 50.6091C174.216 49.8896 171.784 49.8896 169.519 50.6091L90.5186 75.7039C85.7443 77.2204 82.5002 81.6427 82.5 86.6531V154.851C82.5 178.315 96.6457 206.221 114.959 228.23C124.123 239.244 134.353 248.807 144.419 255.622C154.473 262.429 164.417 266.528 173 266.528C181.058 266.528 190.74 262.424 200.689 255.621C210.654 248.808 220.948 239.246 230.244 228.233C248.819 206.228 263.5 178.32 263.5 154.851V86.6531C263.5 81.6427 260.256 77.2204 255.481 75.7039L176.481 50.6091Z" fill="#0060DF" fill-opacity=".035"/><path d="M126.075 -83.158C156.607 -92.8562 189.393 -92.8562 219.925 -83.158L298.925 -58.0632C363.113 -37.6741 407 21.9477 407 89.6526V157.851C407 231.525 366.777 291.954 339.899 323.795C323.95 342.69 304.291 361.619 281.686 377.076C263.193 389.721 224.176 413.027 173 413.027C122.745 413.027 84.0649 391.054 63.9727 377.451C40.629 361.648 20.6587 342.252 4.65137 323.014C-22.8291 289.988 -60.9999 230.026 -61 157.851V89.6526C-61 21.9474 -17.1125 -37.6742 47.0752 -58.0632L126.075 -83.158ZM176.481 50.6086C174.358 49.9341 172.087 49.8925 169.945 50.4827L169.519 50.6086L90.5186 75.7034C85.7443 77.2199 82.5002 81.6422 82.5 86.6526V154.851C82.5 178.314 96.6457 206.221 114.959 228.23C124.123 239.244 134.353 248.807 144.419 255.621C154.473 262.428 164.417 266.528 173 266.528C181.058 266.528 190.74 262.424 200.689 255.62C210.654 248.807 220.948 239.245 230.244 228.233C248.819 206.228 263.5 178.32 263.5 154.851V86.6526C263.5 81.6422 260.256 77.2199 255.481 75.7034L176.481 50.6086Z" fill="#0060DF" fill-opacity=".035"/><path d="M140.606 -37.4104C161.683 -44.1054 184.317 -44.1054 205.394 -37.4104L284.394 -12.3157C328.713 1.76247 359 42.9248 359 89.653V157.85C359 214.719 327.334 264.266 303.221 292.833C289.496 309.091 272.97 324.888 254.593 337.454C238.968 348.137 209.761 365.027 173 365.027C136.686 365.027 107.619 349.035 90.8818 337.704C71.98 324.908 55.2676 308.8 41.5488 292.312C17.1185 262.952 -13 213.716 -13 157.85V89.6521C-12.9998 42.9238 17.287 1.76237 61.6064 -12.3157L140.606 -37.4104ZM176.481 50.6091C174.216 49.8896 171.784 49.8896 169.519 50.6091L90.5186 75.7038C85.7444 77.2204 82.5002 81.6427 82.5 86.653V154.851C82.5002 178.315 96.6458 206.221 114.959 228.23C124.123 239.244 134.353 248.807 144.419 255.622C154.473 262.428 164.417 266.528 173 266.528C181.058 266.528 190.74 262.424 200.689 255.621C210.654 248.808 220.948 239.246 230.244 228.233C248.819 206.228 263.5 178.32 263.5 154.851V86.653C263.5 81.6427 260.256 77.2204 255.481 75.7038L176.481 50.6091ZM170.903 50.7712C170.626 50.825 170.351 50.8893 170.078 50.9646C170.215 50.9269 170.352 50.8913 170.489 50.8591L170.903 50.7712ZM171.738 50.6423L171.32 50.698C171.459 50.6765 171.599 50.6574 171.738 50.6413L172.158 50.6013C172.018 50.612 171.878 50.6262 171.738 50.6423ZM174.262 50.6413L174.68 50.698C174.541 50.6765 174.401 50.6584 174.262 50.6423L173.842 50.6013C173.982 50.612 174.122 50.6252 174.262 50.6413Z" fill="#0060DF" fill-opacity=".035"/><path d="M155.139 8.33693C166.76 4.6455 179.24 4.6455 190.861 8.33693L269.861 33.4317C294.309 41.1972 311 63.8958 311 89.6524V157.851C311 197.925 287.879 236.593 266.541 261.871C255.042 275.493 241.648 288.156 227.5 297.83C214.735 306.559 195.339 317.026 173 317.026C150.626 317.026 131.17 307.013 117.79 297.955C103.33 288.166 89.8762 275.347 78.4463 261.61C57.081 235.933 35.0001 197.421 35 157.851V89.6524C35 63.8958 51.6915 41.1972 76.1387 33.4317L155.139 8.33693ZM176.481 50.6084C174.358 49.9339 172.087 49.8922 169.945 50.4824L169.519 50.6084L90.5186 75.7031C85.7443 77.2197 82.5002 81.642 82.5 86.6524V154.851C82.5 178.314 96.6457 206.22 114.959 228.23C124.123 239.243 134.353 248.807 144.419 255.621C154.473 262.428 164.417 266.527 173 266.527C181.058 266.527 190.74 262.423 200.689 255.62C210.654 248.807 220.948 239.245 230.244 228.232C248.819 206.227 263.5 178.32 263.5 154.851V86.6524C263.5 81.642 260.256 77.2197 255.481 75.7031L176.481 50.6084Z" fill="#0060DF" fill-opacity=".035"/><path d="M169.928 50.2236C172.023 49.6461 174.245 49.6868 176.322 50.3467L255.739 75.5732L256.173 75.7207C260.605 77.328 263.583 81.536 263.583 86.2842V154.836C263.583 178.325 248.88 206.305 230.233 228.395C220.906 239.444 210.58 249.035 200.592 255.864C190.611 262.689 180.937 266.777 172.917 266.777C164.368 266.777 154.428 262.691 144.345 255.864C134.256 249.034 123.997 239.444 114.802 228.394C96.4198 206.302 82.25 178.323 82.25 154.836V86.2842C82.25 81.3828 85.4231 77.057 90.0938 75.5732L169.511 50.3467L169.928 50.2236Z" stroke="#000" stroke-opacity=".08" stroke-width=".5" stroke-linecap="round" stroke-linejoin="round"/><path d="M173.5 234.027V83.5088C173.5 80.7983 176.139 78.8726 178.72 79.6994L234.72 97.6369C236.376 98.1674 237.5 99.7072 237.5 101.446V156.027C237.5 187.64 196.437 231.355 177.407 237.339C175.3 238.001 173.5 236.236 173.5 234.027Z" fill="#0060DF" fill-opacity=".16"/><path d="M173.75 83.5088C173.75 81.0472 176.072 79.2757 178.417 79.8721L178.644 79.9375L234.644 97.875C236.196 98.3723 237.25 99.8159 237.25 101.446V156.027C237.25 171.744 227.031 190.519 214.396 206.137C208.083 213.939 201.177 220.941 194.665 226.363C188.351 231.62 182.425 235.378 177.778 236.954L177.332 237.101C176.368 237.404 175.481 237.153 174.829 236.573C174.173 235.989 173.75 235.065 173.75 234.027V83.5088Z" stroke="#000" stroke-opacity=".04" stroke-width=".5" stroke-linecap="round" stroke-linejoin="round"/></svg>