<svg width="393" height="332" fill="none" xmlns="http://www.w3.org/2000/svg"><path d="M143.09 -127.989C177.936 -139.058 215.356 -139.058 250.202 -127.989L296.943 -113.143C370.175 -89.8808 420.292 -21.847 420.292 55.4549V95.8045C420.292 169.252 381.276 224.328 360.498 248.943C347.112 264.801 329.921 281.563 309.039 295.841C292.988 306.816 252.498 331.98 196.646 331.98C142.163 331.98 102.214 308.359 84.377 296.284C62.6807 281.596 45.0818 264.281 31.5498 248.018C9.91478 222.017 -27 167.492 -27 95.8045V55.4549C-27 -21.8474 23.1171 -89.8809 96.3486 -113.143L143.09 -127.989ZM198.705 32.6746C197.449 32.2757 196.105 32.2512 194.838 32.6004L194.586 32.6746L147.845 47.5223C145.02 48.4198 143.101 51.0365 143.101 54.0008V94.3504C143.101 108.233 151.471 124.744 162.306 137.765C167.728 144.282 173.78 149.94 179.735 153.972C185.684 157.999 191.568 160.424 196.646 160.425C201.413 160.425 207.142 157.997 213.028 153.972C218.924 149.94 225.015 144.282 230.515 137.766C241.504 124.747 250.19 108.236 250.19 94.3504V54.0008C250.19 51.0363 248.271 48.4196 245.446 47.5223L198.705 32.6746ZM192.757 159.692L193.258 159.794C193.092 159.762 192.924 159.729 192.757 159.693L192.253 159.579C192.421 159.619 192.59 159.656 192.757 159.692ZM200.811 159.579C200.488 159.659 200.167 159.731 199.851 159.794C200.009 159.762 200.168 159.728 200.328 159.692L200.811 159.579ZM187.562 157.997L188.095 158.221C187.918 158.148 187.74 158.074 187.562 157.998L187.026 157.763C187.205 157.843 187.384 157.921 187.562 157.997ZM205.34 157.998L204.822 158.221C204.994 158.148 205.167 158.073 205.34 157.997L205.861 157.763C205.687 157.843 205.513 157.921 205.34 157.998ZM208.51 156.421L207.975 156.711C208.202 156.59 208.429 156.464 208.657 156.337C208.608 156.364 208.559 156.393 208.51 156.421ZM184.216 156.364C184.042 156.27 183.869 156.173 183.694 156.075C183.869 156.173 184.042 156.27 184.216 156.364ZM209.492 155.861C209.327 155.957 209.162 156.051 208.998 156.144C209.162 156.051 209.327 155.957 209.492 155.861ZM183.39 155.903C183.334 155.871 183.277 155.841 183.221 155.808L182.67 155.486C182.91 155.629 183.15 155.767 183.39 155.903ZM212.861 153.727L211.764 154.46C212.129 154.222 212.495 153.977 212.861 153.726L213.965 152.956C213.596 153.219 213.228 153.476 212.861 153.727ZM179.901 153.726L180.457 154.098C180.272 153.976 180.087 153.853 179.901 153.727L178.789 152.956C179.16 153.219 179.531 153.476 179.901 153.726ZM151.726 121.82L152.501 123.197C152.238 122.74 151.979 122.281 151.726 121.821L150.978 120.437C151.222 120.899 151.472 121.36 151.726 121.82ZM247.306 48.8104C247.388 48.8726 247.469 48.9361 247.548 49.0018C247.469 48.9361 247.388 48.8726 247.306 48.8104ZM145.966 48.825C145.999 48.7999 146.032 48.7754 146.065 48.7508C146.032 48.7753 145.999 48.7999 145.966 48.825ZM247.025 48.6102C247.101 48.6614 247.176 48.7142 247.249 48.7684C247.176 48.7142 247.101 48.6613 247.025 48.6102ZM146.513 48.451C146.413 48.5121 146.315 48.5762 146.219 48.6424C146.245 48.6246 146.27 48.6061 146.296 48.5887L146.513 48.451ZM147.198 48.0877L147.438 47.9832C147.472 47.9695 147.506 47.9564 147.54 47.9432C147.424 47.9884 147.31 48.0366 147.198 48.0877ZM246.094 48.0867L246.328 48.2C246.218 48.1444 246.105 48.0933 245.991 48.0438C246.025 48.0585 246.06 48.0714 246.094 48.0867ZM245.702 47.9256C245.745 47.9418 245.788 47.9584 245.83 47.9754C245.788 47.9584 245.745 47.9418 245.702 47.9256ZM194.676 32.9569L147.935 47.8035L194.675 32.9569C194.693 32.951 194.712 32.9459 194.73 32.9403C194.712 32.9459 194.694 32.9511 194.676 32.9569ZM197.393 32.6942C197.558 32.7133 197.723 32.7385 197.887 32.7703C197.805 32.7544 197.722 32.7401 197.64 32.7274L197.393 32.6942Z" fill="#0060DF" fill-opacity=".035"/><path d="M151.687 -100.923C180.939 -110.215 212.351 -110.215 241.604 -100.923L288.345 -86.0752C349.826 -66.5456 391.891 -9.43038 391.892 55.4551V95.8047C391.892 159.295 357.952 207.929 338.795 230.624C326.725 244.922 311.388 259.831 293.009 272.398C278.663 282.207 243.974 303.581 196.646 303.581C150.413 303.581 116.15 283.501 100.296 272.768C81.2283 259.859 65.5572 244.491 53.3789 229.855C33.5306 206.001 1.39844 157.826 1.39844 95.8047V55.4551C1.39862 -9.43074 43.4641 -66.5457 104.945 -86.0752L151.687 -100.923ZM198.704 32.6748C197.448 32.2759 196.104 32.2514 194.837 32.6006L194.585 32.6748L147.844 47.5225C145.019 48.42 143.1 51.0367 143.1 54.001V94.3506C143.1 108.233 151.47 124.744 162.305 137.766C167.727 144.282 173.779 149.94 179.734 153.972C185.683 157.999 191.567 160.425 196.645 160.425C201.412 160.425 207.141 157.997 213.027 153.972C218.923 149.941 225.014 144.282 230.514 137.767C241.504 124.747 250.189 108.236 250.189 94.3506V54.001C250.189 51.0365 248.27 48.4198 245.445 47.5225L198.704 32.6748ZM192.756 159.692L193.257 159.794C193.091 159.762 192.923 159.729 192.756 159.693L192.252 159.579C192.421 159.619 192.589 159.657 192.756 159.692ZM200.81 159.579C200.487 159.659 200.166 159.731 199.85 159.794C200.008 159.762 200.167 159.728 200.327 159.692L200.81 159.579ZM187.561 157.997L188.094 158.221C187.917 158.148 187.739 158.074 187.561 157.998L187.025 157.763C187.204 157.843 187.383 157.921 187.561 157.997ZM205.339 157.998L204.821 158.221C204.993 158.148 205.166 158.073 205.339 157.997L205.86 157.763C205.686 157.843 205.512 157.922 205.339 157.998ZM183.769 156.119L184.315 156.421C184.133 156.322 183.951 156.222 183.769 156.12L183.22 155.809C183.403 155.914 183.586 156.017 183.769 156.119ZM209.046 156.12L208.509 156.421C208.688 156.322 208.866 156.221 209.046 156.119L209.586 155.809C209.406 155.914 209.226 156.018 209.046 156.12ZM181.011 154.46L181.564 154.813C181.38 154.697 181.195 154.58 181.011 154.461L180.456 154.099C180.641 154.221 180.826 154.341 181.011 154.46ZM211.763 154.461L211.216 154.813C211.398 154.697 211.58 154.579 211.763 154.46L212.86 153.728C212.494 153.978 212.128 154.223 211.763 154.461ZM222.817 145.549L221.718 146.584C222.085 146.243 222.452 145.898 222.817 145.548L223.91 144.484C223.547 144.844 223.183 145.199 222.817 145.549ZM151.725 121.82L152.5 123.197C152.237 122.74 151.978 122.281 151.725 121.821L150.977 120.438C151.221 120.9 151.471 121.36 151.725 121.82ZM145.772 48.9776C145.809 48.9479 145.844 48.9176 145.881 48.8887L146.085 48.7354C145.978 48.8128 145.874 48.8941 145.772 48.9776ZM147.197 48.0879L147.438 47.9834C147.471 47.9697 147.505 47.9566 147.539 47.9434C147.423 47.9886 147.309 48.0368 147.197 48.0879ZM246.093 48.0869L246.327 48.2002C246.217 48.1446 246.104 48.0935 245.99 48.044C246.024 48.0587 246.059 48.0716 246.093 48.0869ZM245.701 47.9258C245.744 47.942 245.787 47.9586 245.829 47.9756C245.787 47.9586 245.744 47.942 245.701 47.9258ZM194.675 32.9571L147.934 47.8037L194.674 32.9571L194.916 32.8858C194.835 32.908 194.755 32.9316 194.675 32.9571ZM195.651 32.7276L195.404 32.7705C195.486 32.7547 195.568 32.7403 195.65 32.7276L195.898 32.6944C195.816 32.7039 195.734 32.7149 195.651 32.7276ZM197.392 32.6944C197.557 32.7135 197.722 32.7387 197.886 32.7705C197.804 32.7546 197.721 32.7403 197.639 32.7276L197.392 32.6944Z" fill="#0060DF" fill-opacity=".035"/><path d="M160.285 -73.5337C183.944 -81.0486 209.349 -81.0487 233.007 -73.5337L279.747 -58.6871C329.478 -42.8904 363.493 3.30576 363.493 55.7768V96.1264C363.493 149.664 334.627 191.858 317.095 212.627C306.342 225.366 292.857 238.42 276.98 249.276C264.338 257.92 235.451 275.502 196.646 275.502C158.663 275.502 130.089 258.962 116.218 249.572C99.7787 238.443 86.0358 225.02 75.2112 212.011C57.1546 190.311 29.7991 148.485 29.7991 96.1264V55.7768C29.7991 3.30558 63.8142 -42.8904 113.544 -58.6871L160.285 -73.5337ZM198.705 32.6752C197.449 32.2763 196.105 32.2518 194.838 32.601L194.586 32.6752L147.845 47.5229C145.021 48.4204 143.101 51.0371 143.101 54.0014V94.351C143.101 108.233 151.471 124.744 162.306 137.766C167.728 144.282 173.78 149.94 179.736 153.972C185.684 157.999 191.568 160.425 196.646 160.425C201.413 160.425 207.142 157.997 213.029 153.972C218.924 149.941 225.015 144.283 230.515 137.767C241.505 124.748 250.191 108.236 250.191 94.351V54.0014C250.191 51.0369 248.271 48.4202 245.447 47.5229L198.705 32.6752ZM191.233 159.313L191.744 159.453C191.574 159.408 191.404 159.362 191.233 159.314L190.717 159.162C190.889 159.214 191.061 159.264 191.233 159.313ZM186.489 157.516L187.027 157.763C186.848 157.683 186.668 157.601 186.489 157.517L185.948 157.259C186.129 157.347 186.309 157.432 186.489 157.516ZM206.386 157.517L205.862 157.763C206.036 157.683 206.211 157.6 206.386 157.516L206.912 157.259C206.736 157.347 206.561 157.433 206.386 157.517ZM208.51 156.421L207.975 156.711C208.202 156.59 208.429 156.464 208.657 156.337C208.608 156.365 208.559 156.394 208.51 156.421ZM209.492 155.862C209.328 155.958 209.163 156.052 208.998 156.145C209.163 156.052 209.328 155.958 209.492 155.862ZM212.862 153.728L211.764 154.46C212.129 154.222 212.495 153.978 212.862 153.727L213.965 152.956C213.597 153.22 213.229 153.477 212.862 153.728ZM174.336 149.512C175.076 150.131 175.818 150.729 176.561 151.303L177.675 152.148C176.932 151.597 176.189 151.022 175.448 150.425L174.336 149.512ZM220.615 147.591C219.142 148.913 217.659 150.155 216.18 151.304L215.071 152.148C216.548 151.046 218.031 149.848 219.509 148.567L220.615 147.591ZM155.855 128.615L156.751 129.942C156.449 129.502 156.15 129.06 155.855 128.616L154.981 127.277C155.268 127.725 155.56 128.171 155.855 128.615ZM146.296 48.5903L146.086 48.7358C146.155 48.6858 146.225 48.6367 146.296 48.5893L146.513 48.4516C146.44 48.4964 146.367 48.5428 146.296 48.5903ZM246.996 48.5893L247.206 48.7358C247.137 48.6859 247.067 48.6375 246.996 48.5903L246.78 48.4516C246.853 48.4963 246.925 48.542 246.996 48.5893ZM147.198 48.0883L146.964 48.2006C147.041 48.1616 147.119 48.1235 147.198 48.0874L147.439 47.9838C147.358 48.017 147.278 48.0522 147.198 48.0883ZM246.094 48.0874L246.328 48.2006C246.251 48.1616 246.173 48.1244 246.094 48.0883L245.854 47.9838C245.935 48.0169 246.015 48.0513 246.094 48.0874ZM194.676 32.9575L147.935 47.8042L194.675 32.9575L194.917 32.8852C194.836 32.9075 194.756 32.932 194.676 32.9575ZM195.653 32.728L195.406 32.771C195.487 32.7551 195.569 32.7407 195.652 32.728L195.9 32.6948C195.817 32.7043 195.735 32.7153 195.653 32.728ZM197.393 32.6948C197.558 32.7139 197.723 32.7391 197.887 32.771C197.805 32.755 197.722 32.7407 197.64 32.728L197.393 32.6948Z" fill="#0060DF" fill-opacity=".035"/><path d="M168.882 -46.4689C186.946 -52.207 206.344 -52.207 224.408 -46.4689L271.15 -31.6223C309.127 -19.5589 335.093 15.7172 335.093 55.7752V96.1248C335.093 139.714 311.295 175.467 295.393 194.306C285.956 205.486 274.324 216.686 260.949 225.831C250.008 233.312 226.924 247.101 196.646 247.101C166.912 247.101 144.027 234.1 132.139 226.053C118.328 216.702 106.512 205.227 97.0413 193.845C80.7823 174.304 58.1976 138.828 58.1975 96.1248V55.7752C58.1975 15.717 84.1639 -19.5589 122.141 -31.6223L168.882 -46.4689ZM198.704 32.6746C197.448 32.2757 196.104 32.2511 194.837 32.6004L194.585 32.6746L147.844 47.5223C145.02 48.4198 143.1 51.0365 143.1 54.0008V94.3504C143.1 108.233 151.47 124.744 162.305 137.765C167.727 144.282 173.779 149.94 179.735 153.971C185.683 157.999 191.567 160.424 196.645 160.425C201.412 160.425 207.141 157.996 213.028 153.971C218.923 149.94 225.014 144.282 230.514 137.766C241.504 124.747 250.19 108.236 250.19 94.3504V54.0008C250.19 51.0363 248.27 48.4196 245.446 47.5223L198.704 32.6746ZM195.699 160.1C196.018 160.119 196.333 160.128 196.645 160.128V160.129C196.489 160.129 196.332 160.127 196.175 160.122L195.699 160.1ZM193.754 159.882C194.084 159.936 194.411 159.981 194.736 160.017L195.22 160.066C194.899 160.039 194.574 160.002 194.247 159.957L193.754 159.882ZM198.794 159.971C198.716 159.981 198.638 159.992 198.56 160.002C198.638 159.992 198.716 159.982 198.794 159.971ZM186.488 157.515L187.026 157.762C186.847 157.682 186.667 157.6 186.488 157.516L185.948 157.259C186.128 157.346 186.308 157.431 186.488 157.515ZM206.385 157.516L205.861 157.762C206.035 157.682 206.21 157.599 206.385 157.515L206.911 157.259C206.735 157.346 206.56 157.433 206.385 157.516ZM184.862 156.71L185.406 156.99C185.225 156.899 185.043 156.806 184.862 156.711L184.316 156.42C184.498 156.518 184.68 156.615 184.862 156.71ZM207.974 156.711L207.442 156.99C207.619 156.899 207.796 156.805 207.974 156.71L208.509 156.42C208.33 156.518 208.152 156.616 207.974 156.711ZM178.788 152.955L179.901 153.726C179.53 153.476 179.159 153.219 178.788 152.956L177.674 152.147C178.045 152.423 178.417 152.692 178.788 152.955ZM213.964 152.956L212.861 153.726C213.228 153.475 213.596 153.218 213.964 152.955L215.07 152.147C214.7 152.423 214.332 152.693 213.964 152.956ZM154.128 125.926L154.98 127.276C154.692 126.828 154.408 126.378 154.128 125.927L153.301 124.566C153.572 125.021 153.849 125.474 154.128 125.926ZM144.104 101.661C144.188 102.115 144.279 102.57 144.377 103.027C144.279 102.571 144.188 102.115 144.104 101.662V101.661ZM146.198 48.657C146.23 48.6344 146.262 48.6107 146.295 48.5887L146.512 48.451C146.405 48.5164 146.3 48.5859 146.198 48.657ZM147.198 48.0877L146.963 48.2C147.04 48.1609 147.118 48.1228 147.198 48.0867L147.438 47.9832C147.357 48.0163 147.277 48.0515 147.198 48.0877ZM246.093 48.0867L246.327 48.2C246.25 48.161 246.172 48.1238 246.093 48.0877L245.853 47.9832C245.934 48.0163 246.014 48.0506 246.093 48.0867ZM194.675 32.9568L147.934 47.8035L194.674 32.9568L194.916 32.8846C194.835 32.9068 194.755 32.9314 194.675 32.9568ZM195.652 32.7273L195.405 32.7703C195.486 32.7544 195.568 32.7401 195.651 32.7273L195.899 32.6941C195.816 32.7037 195.734 32.7146 195.652 32.7273ZM197.392 32.6941C197.557 32.7132 197.722 32.7385 197.886 32.7703C197.804 32.7544 197.721 32.7401 197.639 32.7273L197.392 32.6941Z" fill="#0060DF" fill-opacity=".035"/><path d="M177.481 -19.4023C189.951 -23.3633 203.342 -23.3633 215.812 -19.4023L262.553 -4.55463C288.775 3.77485 306.695 28.1284 306.695 55.7755V96.1251C306.695 129.772 287.959 159.087 273.692 175.988C265.572 185.608 255.794 194.953 244.921 202.388C235.677 208.709 218.396 218.702 196.647 218.702C175.161 218.702 157.963 209.24 148.06 202.536C136.877 194.965 126.989 185.435 118.872 175.681C104.418 158.309 86.5979 129.178 86.5979 96.1251V55.7755C86.5979 28.1283 104.518 3.77482 130.74 -4.55463L177.481 -19.4023ZM198.705 32.6749C197.449 32.2759 196.105 32.2514 194.838 32.6006L194.586 32.6749L147.845 47.5225C145.021 48.42 143.101 51.0367 143.101 54.001V94.3506C143.101 108.233 151.471 124.744 162.306 137.766C167.728 144.282 173.78 149.94 179.736 153.972C185.684 157.999 191.568 160.425 196.646 160.425C201.413 160.425 207.142 157.997 213.029 153.972C218.924 149.941 225.015 144.282 230.515 137.767C241.505 124.747 250.191 108.236 250.191 94.3506V54.001C250.191 51.0365 248.271 48.4199 245.447 47.5225L198.705 32.6749ZM192.757 159.692L193.258 159.794C193.092 159.762 192.925 159.729 192.757 159.693L192.253 159.579C192.422 159.619 192.59 159.657 192.757 159.692ZM200.811 159.579C200.488 159.659 200.168 159.731 199.851 159.794C200.009 159.763 200.168 159.728 200.328 159.692L200.811 159.579ZM190.199 158.997L190.717 159.161C190.545 159.109 190.372 159.054 190.198 158.997L189.677 158.821C189.852 158.882 190.026 158.94 190.199 158.997ZM187.562 157.997L188.095 158.221C187.918 158.148 187.74 158.075 187.562 157.998L187.027 157.763C187.205 157.843 187.384 157.921 187.562 157.997ZM205.34 157.998L204.823 158.221C204.995 158.148 205.167 158.074 205.34 157.997L205.862 157.763C205.687 157.843 205.513 157.922 205.34 157.998ZM208.51 156.421L207.975 156.711C208.202 156.59 208.429 156.464 208.657 156.337C208.608 156.365 208.559 156.394 208.51 156.421ZM184.216 156.364C184.042 156.27 183.869 156.173 183.695 156.075C183.869 156.173 184.042 156.27 184.216 156.364ZM209.492 155.861C209.328 155.958 209.163 156.051 208.998 156.145C209.163 156.051 209.328 155.957 209.492 155.861ZM183.39 155.903C183.334 155.871 183.277 155.841 183.221 155.809L182.67 155.486C182.91 155.629 183.151 155.767 183.39 155.903ZM212.862 153.728L211.764 154.46C212.129 154.222 212.495 153.977 212.862 153.727L213.965 152.956C213.597 153.22 213.229 153.477 212.862 153.728ZM179.902 153.727L180.457 154.099C180.272 153.976 180.087 153.853 179.902 153.728L178.789 152.956C179.16 153.219 179.531 153.476 179.902 153.727ZM151.726 121.82L152.501 123.197C152.238 122.74 151.98 122.281 151.726 121.821L150.978 120.438C151.222 120.9 151.472 121.36 151.726 121.82ZM146.086 48.7354C145.948 48.8355 145.814 48.9408 145.685 49.0508L145.495 49.2188C145.62 49.1042 145.748 48.9937 145.882 48.8887L146.086 48.7354ZM147.198 48.088L147.439 47.9835C147.472 47.9697 147.506 47.9566 147.54 47.9434C147.425 47.9886 147.311 48.0368 147.198 48.088ZM246.094 48.087L246.328 48.2003C246.218 48.1446 246.105 48.0935 245.991 48.044C246.025 48.0588 246.06 48.0716 246.094 48.087ZM245.702 47.9258C245.745 47.942 245.788 47.9587 245.83 47.9756C245.788 47.9586 245.745 47.9421 245.702 47.9258ZM194.676 32.9571L147.935 47.8038L194.675 32.9571C194.693 32.9513 194.712 32.9461 194.731 32.9405C194.713 32.9461 194.694 32.9513 194.676 32.9571ZM197.393 32.6944C197.558 32.7135 197.723 32.7388 197.887 32.7706C197.805 32.7546 197.722 32.7403 197.64 32.7276L197.393 32.6944Z" fill="#0060DF" fill-opacity=".035"/><path d="M186.078 7.66441C192.954 5.48035 200.337 5.48035 207.213 7.66441L253.955 22.5121C268.419 27.1067 278.294 40.5368 278.294 55.7757V96.1254C278.294 119.835 264.614 142.713 251.99 157.669C245.187 165.729 237.262 173.221 228.891 178.945C221.338 184.109 209.863 190.303 196.646 190.303C183.408 190.303 171.897 184.378 163.98 179.019C155.425 173.227 147.465 165.643 140.703 157.516C128.062 142.324 114.997 119.537 114.997 96.1254V55.7757C114.997 40.5368 124.872 27.1067 139.336 22.5121L186.078 7.66441ZM198.705 32.6752C197.448 32.2762 196.105 32.2517 194.837 32.6009L194.585 32.6752L147.844 47.5228C145.02 48.4203 143.1 51.037 143.1 54.0013V94.3509C143.1 108.233 151.47 124.744 162.305 137.766C167.727 144.282 173.78 149.94 179.735 153.972C185.684 157.999 191.567 160.425 196.645 160.425C201.413 160.425 207.141 157.997 213.028 153.972C218.923 149.941 225.014 144.283 230.514 137.767C241.504 124.748 250.19 108.236 250.19 94.3509V54.0013C250.19 51.0368 248.271 48.4202 245.446 47.5228L198.705 32.6752ZM195.7 160.101C196.018 160.119 196.333 160.128 196.645 160.128V160.129C196.489 160.129 196.333 160.127 196.175 160.122L195.7 160.101ZM193.754 159.882C194.084 159.936 194.412 159.981 194.736 160.018L195.22 160.067C194.899 160.039 194.575 160.003 194.248 159.957L193.754 159.882ZM198.794 159.971C198.716 159.982 198.638 159.992 198.56 160.002C198.638 159.992 198.716 159.982 198.794 159.971ZM201.79 159.314L201.297 159.452C201.461 159.408 201.625 159.361 201.79 159.313L202.285 159.161C202.119 159.214 201.954 159.265 201.79 159.314ZM191.109 159.276C190.984 159.24 190.859 159.202 190.734 159.163C190.859 159.202 190.984 159.24 191.109 159.276ZM190.307 159.031C190.271 159.019 190.234 159.009 190.198 158.997L189.676 158.822C189.887 158.895 190.098 158.963 190.307 159.031ZM186.488 157.516L187.026 157.763C186.847 157.683 186.667 157.601 186.488 157.517L185.948 157.259C186.128 157.347 186.308 157.432 186.488 157.516ZM206.385 157.517L205.861 157.763C206.035 157.683 206.21 157.6 206.385 157.516L206.912 157.259C206.736 157.347 206.56 157.433 206.385 157.517ZM178.789 152.955L179.901 153.727C179.531 153.476 179.16 153.22 178.789 152.956L177.674 152.148C178.046 152.423 178.417 152.692 178.789 152.955ZM213.964 152.956L212.861 153.727C213.228 153.476 213.596 153.219 213.964 152.955L215.07 152.148C214.701 152.423 214.332 152.693 213.964 152.956ZM217.289 150.425L216.179 151.303C216.549 151.016 216.919 150.723 217.289 150.424L218.399 149.512C218.029 149.822 217.659 150.126 217.289 150.425ZM156.75 129.941L157.667 131.254C157.358 130.819 157.053 130.382 156.75 129.942L155.854 128.615C156.149 129.059 156.448 129.501 156.75 129.941ZM150.977 120.437L151.725 121.821C151.471 121.361 151.222 120.9 150.977 120.438L150.257 119.048C150.492 119.512 150.733 119.975 150.977 120.437ZM144.236 102.343L144.377 103.028C144.279 102.571 144.188 102.116 144.104 101.662V101.661C144.146 101.888 144.19 102.116 144.236 102.343ZM146.198 48.6576C146.23 48.635 146.262 48.6112 146.295 48.5892L146.512 48.4515C146.405 48.5169 146.301 48.5864 146.198 48.6576ZM147.198 48.0882L146.963 48.2005C147.041 48.1615 147.119 48.1234 147.198 48.0873L147.438 47.9837C147.357 48.0169 147.277 48.0521 147.198 48.0882ZM246.093 48.0873L246.328 48.2005C246.251 48.1615 246.172 48.1243 246.093 48.0882L245.853 47.9837C245.934 48.0168 246.014 48.0512 246.093 48.0873ZM194.675 32.9574L147.934 47.8041L194.674 32.9574L194.917 32.8851C194.836 32.9074 194.755 32.9319 194.675 32.9574ZM195.652 32.7279L195.405 32.7709C195.487 32.755 195.569 32.7406 195.651 32.7279L195.899 32.6947C195.816 32.7042 195.734 32.7152 195.652 32.7279ZM197.392 32.6947C197.557 32.7138 197.722 32.739 197.886 32.7709C197.804 32.7549 197.722 32.7406 197.639 32.7279L197.392 32.6947Z" fill="#0060DF" fill-opacity=".035"/><path d="M195.182 32.1514C196.422 31.8097 197.736 31.8342 198.966 32.2246L245.953 47.1494L246.21 47.2363C248.832 48.1873 250.593 50.6771 250.594 53.4863V94.0459C250.593 107.944 241.894 124.498 230.862 137.567C225.343 144.105 219.234 149.779 213.325 153.819C207.42 157.857 201.695 160.276 196.95 160.276C191.892 160.276 186.011 157.859 180.046 153.82C174.076 149.779 168.006 144.104 162.566 137.566C151.69 124.496 143.307 107.942 143.307 94.0459V53.4863C143.307 50.5864 145.185 48.0272 147.948 47.1494L194.935 32.2246L195.182 32.1514Z" stroke="#000" stroke-opacity=".08" stroke-width=".295828" stroke-linecap="round" stroke-linejoin="round"/><path d="M196.942 141.196V52.1406C196.942 50.5369 198.503 49.3976 200.03 49.8868L233.163 60.4996C234.143 60.8135 234.808 61.7245 234.808 62.7534V95.0466C234.808 113.75 210.513 139.615 199.254 143.155C198.007 143.547 196.942 142.503 196.942 141.196Z" fill="#0060DF" fill-opacity=".16"/><path d="M197.192 52.1406C197.192 50.7513 198.502 49.7516 199.826 50.0879L199.955 50.125L233.086 60.7373C233.963 61.018 234.558 61.8337 234.558 62.7539V95.0469C234.558 104.309 228.531 115.394 221.058 124.63C217.327 129.241 213.246 133.379 209.399 136.583C205.787 139.59 202.398 141.761 199.708 142.737L199.179 142.917C198.645 143.085 198.157 142.947 197.796 142.626C197.431 142.301 197.192 141.783 197.192 141.196V52.1406Z" stroke="#000" stroke-opacity=".04" stroke-width=".5" stroke-linecap="round" stroke-linejoin="round"/></svg>