<svg xmlns="http://www.w3.org/2000/svg" width="726" height="282" fill="none" viewBox="0 0 726 282">
  <g clip-path="url(#a)">
    <path fill="#9755FC" d="M.00000677 222.08H135.404c-2.3-13.042-13.689-22.944-27.392-22.944-.358 0-.716.007-1.067.021-6.873-12.188-19.9351-20.417-34.9256-20.417-18.1443 0-33.4723 12.064-38.4026 28.604-3.5737-3.291-8.3387-5.302-13.5789-5.302-11.06571 0-20.03789323 8.972-20.03789323 20.038Z"/>
    <path fill="#fff" stroke="#000" stroke-miterlimit="10" stroke-width="2.07429" d="m60.4573 231.193 6.0709 3.927c.9479.614 2.1534.659 3.1435.116.9835-.532 1.6111-1.558 1.6128-2.697l.3116-69.047c8.1493 4.589 15.1085 8.165 23.5756 12.512l8.7173 4.472.233 25.876c.004 1.039.536 2 1.406 2.563l5.18 3.351c.782.506 1.759.632 2.651.342.675-.225 1.241-.667 1.619-1.252.121-.187.221-.387.3-.6l9.658-26.025 19.78-19.476c.664-.651.997-1.574.898-2.512-.096-.93-.611-1.77-1.393-2.276l-5.18-3.351c-.87-.563-1.96-.651-2.919-.235l-23.714 10.383-7.626-6.102c-7.4458-5.949-13.5659-10.834-21.0913-16.387l62.8643-28.576c1.034-.463 1.722-1.458 1.803-2.582.086-1.12-.45-2.201-1.397-2.815l-6.072-3.928c-3.46-2.238-7.579-2.993-11.606-2.13l-79.0681 16.948-21.2948-13.778c-3.3667-2.178-7.2319-3.621-11.1925-4.177l-3.086-.284c-3.46-.49-6.93109 1.093-8.9116 4.154-1.98073 3.061-2.00198 6.876-.05484 9.966l1.36485 2.433c2.2081 3.516 5.11329 6.453 8.47499 8.628l21.2947 13.778 16.9478 79.09c.8595 4.01 3.2394 7.453 6.6998 9.691Z"/>
    <path stroke="#000" stroke-linecap="round" stroke-linejoin="round" stroke-width="2.07429" d="m428.691 220.43 4.277 2.918c22.949 15.654 54.317 9.032 68.98-14.562 3.111-5.005 5.29-10.532 6.431-16.313l7.462-37.79c2.17-10.99 6.874-21.323 13.736-30.178 13.408-17.299 36.69-23.561 56.967-15.323l15.624 6.348"/>
    <path fill="#fff" stroke="#000" stroke-miterlimit="10" stroke-width="2.07429" d="M317.543 133.813V90.1147c0-11.1189 4.416-21.7823 12.277-29.6445 7.862-7.8623 18.527-12.2792 29.646-12.2792s21.782 4.4169 29.645 12.2792c7.862 7.8622 12.278 18.5256 12.278 29.6445v43.6983h23.766V92.0364c0-17.422-6.921-34.1304-19.239-46.4496-12.32-12.3193-29.028-19.2402-46.45-19.2402-17.422 0-34.13 6.9209-46.45 19.2402-12.319 12.3192-19.24 29.0276-19.24 46.4496v41.7766h23.767Z"/>
    <path fill="#54FFBD" stroke="#000" stroke-miterlimit="10" stroke-width="2.07429" d="M431.236 129.652H287.667c-6.732 0-12.189 5.457-12.189 12.19v104.29c0 6.732 5.457 12.19 12.189 12.19h143.569c6.732 0 12.19-5.458 12.19-12.19v-104.29c0-6.733-5.458-12.19-12.19-12.19Z"/>
    <path fill="#fff" stroke="#000" stroke-miterlimit="10" stroke-width="2.07429" d="M377.583 181.866c-.002 3.061-.781 6.071-2.262 8.749-1.48 2.679-3.616 4.938-6.207 6.569v12.838c-.082 2.51-1.138 4.893-2.943 6.639-1.806 1.748-4.221 2.725-6.734 2.725s-4.928-.977-6.733-2.725c-1.806-1.746-2.862-4.129-2.944-6.639v-12.838c-2.659-1.686-4.833-4.036-6.308-6.818-1.473-2.78-2.198-5.899-2.099-9.045.097-3.147 1.011-6.214 2.655-8.899 1.644-2.685 3.959-4.896 6.716-6.414 2.759-1.518 5.864-2.292 9.012-2.245 3.148.048 6.229.915 8.94 2.516 2.711 1.599 4.957 3.879 6.519 6.613 1.563 2.733 2.386 5.826 2.388 8.974Z"/>
    <path stroke="#000" stroke-linecap="round" stroke-linejoin="round" stroke-width="2.07429" d="M590.73 57.1083v10.5231"/>
    <path stroke="#000" stroke-linecap="round" stroke-linejoin="round" stroke-width="2.07429" d="M595.99 62.3702h-10.523"/>
    <path stroke="#000" stroke-linecap="round" stroke-linejoin="round" stroke-width="2.07429" d="M127.962 1.66077V12.1942"/>
    <path stroke="#000" stroke-linecap="round" stroke-linejoin="round" stroke-width="2.07429" d="M133.232 6.92432h-10.534"/>
    <path stroke="#000" stroke-miterlimit="10" stroke-width="2.07429" d="M293.244 22.9981c3.009 0 5.449-2.4393 5.449-5.4483 0-3.0089-2.44-5.4484-5.449-5.4484s-5.448 2.4394-5.448 5.4484c0 3.0091 2.439 5.4483 5.448 5.4483Z"/>
    <path stroke="#000" stroke-miterlimit="10" stroke-width="2.07429" d="M187.845 247.516c2.579 0 4.67-2.091 4.67-4.67 0-2.579-2.091-4.67-4.67-4.67-2.579 0-4.67 2.091-4.67 4.67 0 2.579 2.091 4.67 4.67 4.67Z"/>
    <path stroke="#000" stroke-linecap="round" stroke-linejoin="round" stroke-width="2.07429" d="M153.744 266.417v10.524"/>
    <path stroke="#000" stroke-linecap="round" stroke-linejoin="round" stroke-width="2.07429" d="M159.007 271.675h-10.524"/>
    <path stroke="#000" stroke-linecap="round" stroke-linejoin="round" stroke-width="2.07429" d="M472.003 269.801v10.523"/>
    <path stroke="#000" stroke-linecap="round" stroke-linejoin="round" stroke-width="2.07429" d="M477.262 275.063h-10.533"/>
    <path stroke="#000" stroke-miterlimit="10" stroke-width="2.07429" d="M643.767 35.9218c3.01 0 5.449-2.4389 5.449-5.4474 0-3.0097-2.439-5.4486-5.449-5.4486-3.009 0-5.449 2.4389-5.449 5.4486 0 3.0085 2.44 5.4474 5.449 5.4474Z"/>
    <path fill="#9755FC" stroke="#000" stroke-miterlimit="10" stroke-width="2.07429" d="M62.5699 102.656c-1.6583 3.018-5.4471 4.119-8.4665 2.458-3.015-1.658-4.1192-5.4528-2.4609-8.4708 1.6569-3.0151 5.4505-4.116 8.4656-2.4566 3.0193 1.6609 4.1187 5.4541 2.4618 8.4694Z"/>
    <path stroke="#000" stroke-miterlimit="10" stroke-width="2.07429" d="M112.543 79.9976c-7.484-30.5466-38.8049-47.7391-68.544-37.7127"/>
    <path stroke="#000" stroke-miterlimit="10" stroke-width="2.07429" d="M138.464 72.1955C126.936 27.2764 80.8146 1.86179 36.6914 16.201"/>
    <path stroke="#000" stroke-miterlimit="10" stroke-width="2.07429" d="M51.2988 68.3664c15.392-5.7572 31.933 3.3529 35.3175 19.4312"/>
    <path stroke="#000" stroke-linecap="round" stroke-linejoin="round" stroke-width="2.07429" d="M674.313 213.365c-7.076 2.752-14.774 4.262-22.823 4.262-34.789 0-62.991-28.201-62.991-62.99s28.202-62.9909 62.991-62.9909c33.365 0 60.672 25.9419 62.85 58.7559"/>
    <path stroke="#000" stroke-linecap="round" stroke-linejoin="round" stroke-width="2.07429" d="M662.87 195.097c-3.713.456-7.511.692-11.375.692-24.539 0-46.438-9.523-60.765-24.421"/>
    <path stroke="#000" stroke-linejoin="round" stroke-width="2.07429" d="M590.721 137.905c14.326-14.898 36.221-24.421 60.761-24.421 24.539 0 46.438 9.523 60.764 24.421"/>
    <path stroke="#000" stroke-linejoin="round" stroke-width="2.07429" d="M590.721 137.905c14.326-14.898 36.221-24.421 60.761-24.421 24.539 0 46.438 9.523 60.764 24.421"/>
    <path stroke="#000" stroke-linecap="round" stroke-linejoin="round" stroke-width="2.07429" d="M588.499 154.637h84.824"/>
    <path stroke="#000" stroke-linejoin="round" stroke-width="2.07429" d="M651.485 91.6461V217.627"/>
    <path stroke="#000" stroke-linecap="round" stroke-linejoin="round" stroke-width="2.07429" d="M668.221 93.8715c13.035 12.5355 21.956 30.8655 23.982 51.6925"/>
    <path stroke="#000" stroke-linejoin="round" stroke-width="2.07429" d="M634.751 215.402c-14.898-14.326-24.421-36.221-24.421-60.761 0-24.539 9.523-46.438 24.421-60.7643"/>
    <path fill="#9755FC" stroke="#000" stroke-linecap="round" stroke-linejoin="round" stroke-width="2.07429" d="M725.145 181.481c.121 5.795-1.597 11.193-4.622 15.671l-.223.324-19.943 29.097c-1.582 2.308-5.056 2.308-6.638 0l-19.948-29.094-.223-.327c-2.925-4.33-4.628-9.52-4.628-15.097 0-15.287 12.795-27.657 28.498-27.453 15.078.196 27.419 12.157 27.727 26.879Z"/>
    <path fill="#fff" stroke="#000" stroke-miterlimit="10" stroke-width="2.07429" d="M697.036 192.441c5.874 0 10.636-4.65 10.636-10.387 0-5.736-4.762-10.386-10.636-10.386s-10.637 4.65-10.637 10.386c0 5.737 4.763 10.387 10.637 10.387Z"/>
    <path stroke="#000" stroke-miterlimit="10" stroke-width="2.07429" d="m71.4287 202.382 27.3324 21.261c26.8959 20.921 66.3939 9.057 77.3109-23.221l7.418-21.93c10.713-31.675 46.163-47.483 76.886-34.283l15.112 6.492"/>
  </g>
  <defs>
    <clipPath id="a">
      <path fill="#fff" d="M0 .813965h726v280.356H0z"/>
    </clipPath>
  </defs>
</svg>
