<svg fill="none" height="282" width="726" xmlns="http://www.w3.org/2000/svg"><clipPath id="a"><path d="M0 0h726v282H0z"/></clipPath><mask id="b" height="282" maskUnits="userSpaceOnUse" width="726" x="0" y="0"><path d="M726 .809998H0V281.17h726z" fill="#fff"/></mask><g clip-path="url(#a)"><g mask="url(#b)"><path d="M0 222.08h135.4c-2.3-13.04-13.69-22.94-27.39-22.94-.36 0-.72 0-1.07.02-6.87-12.19-19.94-20.42-34.93-20.42-18.14 0-33.47 12.06-38.4 28.6-3.57-3.29-8.34-5.3-13.58-5.3C8.97 202.04 0 211.01 0 222.08z" fill="#9755fc"/><g stroke="#000" stroke-width="2.07"><path d="m60.4599 231.19 6.07 3.93c.95.61 2.15.66 3.14.12.98-.53 1.61-1.56 1.61-2.7l.31-69.05c8.15 4.59 15.11 8.16 23.58 12.51l8.7201 4.47.23 25.88c0 1.04.54 2 1.41 2.56l5.18 3.35c.78.51 1.76.63 2.65.34.68-.23 1.24-.67 1.62-1.25.12-.19.22-.39.3-.6l9.66-26.02 19.78-19.48c.66-.65 1-1.57.9-2.51-.1-.93-.61-1.77-1.39-2.28l-5.18-3.35c-.87-.56-1.96-.65-2.92-.24l-23.71 10.38-7.63-6.1c-7.45-5.95-13.5701-10.83-21.0901-16.39l62.8601-28.58c1.03-.46 1.72-1.46 1.8-2.58.09-1.12-.45-2.2-1.4-2.82l-6.07-3.93c-3.46-2.24-7.58-2.99-11.61-2.13l-79.0701 16.95-21.29-13.78c-3.37-2.18-7.23-3.62-11.19-4.18l-3.09-.28c-3.46-.49-6.92995 1.09-8.90995 4.15s-2 6.88-.05 9.97l1.36 2.43c2.21 3.52 5.10995 6.45 8.46995 8.63l21.29 13.78 16.95 79.09c.86 4.01 3.24 7.45 6.7 9.69z" fill="#fff" stroke-miterlimit="10"/><path d="m428.69 220.43 4.28 2.92c22.95 15.65 54.32 9.03 68.98-14.56 3.11-5.01 5.29-10.53 6.43-16.31 0 0 8.39-39.01 52.44-32.23" stroke-linecap="round" stroke-linejoin="round"/><path d="M317.54 133.81v-43.7c0-11.12 4.42-21.78 12.28-29.64s18.53-12.28 29.65-12.28 21.78 4.42 29.64 12.28S401.39 79 401.39 90.11v43.7h23.77V92.03c0-17.42-6.92-34.13-19.24-46.45s-29.03-19.24-46.45-19.24-34.13 6.92-46.45 19.24-19.24 29.03-19.24 46.45v41.78h23.77z" fill="#fff" stroke-miterlimit="10"/><path d="M431.24 129.65H287.67c-6.73 0-12.19 5.46-12.19 12.19v104.29c0 6.73 5.46 12.19 12.19 12.19h143.57c6.73 0 12.19-5.46 12.19-12.19V141.84c0-6.73-5.46-12.19-12.19-12.19z" fill="#54ffbd" stroke-miterlimit="10"/><path d="M377.58 181.87c0 3.06-.78 6.07-2.26 8.75s-3.62 4.94-6.21 6.57v12.84c-.08 2.51-1.14 4.89-2.94 6.64-1.81 1.75-4.22 2.73-6.73 2.73s-4.93-.98-6.73-2.73c-1.81-1.75-2.86-4.13-2.94-6.64v-12.84c-2.66-1.69-4.83-4.04-6.31-6.82-1.47-2.78-2.2-5.9-2.1-9.04.1-3.15 1.01-6.21 2.65-8.9s3.96-4.9 6.72-6.41c2.76-1.52 5.86-2.29 9.01-2.24s6.23.91 8.94 2.52c2.71 1.6 4.96 3.88 6.52 6.61s2.39 5.83 2.39 8.97z" fill="#fff" stroke-miterlimit="10"/><path d="M696.52 1.77v10.52M701.78 7.03h-10.52M127.96 1.66v10.53M133.23 6.92H122.7" stroke-linecap="round" stroke-linejoin="round"/><path d="M293.24 23c3.01 0 5.45-2.44 5.45-5.45s-2.44-5.45-5.45-5.45-5.45 2.44-5.45 5.45 2.44 5.45 5.45 5.45zM187.85 247.52c2.58 0 4.67-2.09 4.67-4.67s-2.09-4.67-4.67-4.67-4.67 2.09-4.67 4.67 2.09 4.67 4.67 4.67z" stroke-miterlimit="10"/><path d="M153.74 266.42v10.52M159.01 271.67h-10.52M472 269.8v10.52M477.26 275.06h-10.53" stroke-linecap="round" stroke-linejoin="round"/><path d="M62.57 102.66c-1.66 3.02-5.45 4.12-8.47 2.46-3.01-1.66-4.12-5.45-2.46-8.47s5.45-4.12 8.47-2.46 4.12 5.45 2.46 8.47z" fill="#9755fc" stroke-miterlimit="10"/><path d="M112.54 80C105.06 49.45 73.74 32.26 44 42.29" stroke-miterlimit="10"/><path d="M138.46 72.2c-11.52-44.92-57.6501-70.33999-101.7701-56M51.3 68.37c15.39-5.76 31.9301 3.35 35.3201 19.43M71.4301 202.38l27.33 21.26c26.8999 20.92 66.3899 9.06 77.3099-23.22l7.42-21.93c10.71-31.68 46.16-47.48 76.89-34.28l15.11 6.49" stroke-miterlimit="10"/></g></g><g stroke="#000" stroke-width="2.07"><path d="M542.38 44.84c3.01 0 5.45-2.44 5.45-5.45s-2.44-5.45-5.45-5.45-5.45 2.44-5.45 5.45 2.44 5.45 5.45 5.45z" stroke-miterlimit="10"/><path d="M715.85 106.42c-3.57-8.59-10.8-17.86-16.48-20.79 4.62 9.06 7.29 18.15 8.32 24.93 0 0 0 .05.02.14-9.29-23.15-25.04-32.49-37.9-52.82-.65-1.03-1.3-2.05-1.94-3.15-.36-.62-.65-1.18-.9-1.71-.53-1.03-.94-2.11-1.23-3.24 0-.11-.08-.21-.18-.22-.05-.01-.1-.01-.15 0-.01 0-.03.01-.04.02-.02 0-.04.02-.06.03l.03-.04c-20.63 12.09-27.63 34.44-28.28 45.63-8.25.56-16.13 3.6-22.62 8.71-.68-.57-1.39-1.11-2.13-1.61-1.87-6.55-1.95-13.48-.23-20.08-8.44 3.85-15 9.91-19.77 15.28h-.04c-3.26-4.13-3.03-17.73-2.84-20.57-.04-.18-2.43 1.24-2.73 1.46-2.87 2.05-5.56 4.35-8.03 6.88-2.81 2.85-5.37 5.92-7.67 9.2-5.28 7.49-9.03 15.95-11.02 24.89-.04.18-.07.36-.11.54-.15.72-.71 4.34-.81 5.13v.18c-.73 3.74-1.18 7.53-1.35 11.33v.42c0 45.36 36.78 82.14 82.14 82.14 40.63 0 74.36-29.5 80.96-68.24.14-1.05.25-2.11.37-3.17 1.63-14.09-.18-28.89-5.33-41.27zm-94.67 64.3c.38.18.75.38 1.14.56l.05.03c-.39-.19-.79-.39-1.19-.59zm86.53-59.98v-.08.09z" fill="#fff" stroke-linecap="round" stroke-linejoin="round"/><path d="M715.85 106.42c-3.57-8.59-10.8-17.86-16.48-20.79 4.62 9.06 7.29 18.15 8.32 24.93v.17c7.75 21.01 3.53 42.38-2.56 55.44-9.41 20.2-32.2 40.9-67.87 39.9-38.51-1.09-72.46-29.7-78.8-67.15-1.16-5.91 0-8.91.58-13.7-.71 3.69-.98 4.76-1.33 11.33v.42c0 45.36 36.78 82.14 82.14 82.14 40.63 0 74.36-29.5 80.96-68.24.14-1.05.25-2.11.37-3.17 1.62-14.09-.19-28.89-5.34-41.27z" fill="#fff" stroke-linecap="round" stroke-linejoin="round"/><path d="M715.85 106.42c-3.57-8.59-10.8-17.86-16.48-20.79 4.62 9.06 7.29 18.15 8.32 24.93v.17c7.75 21.01 3.53 42.38-2.56 55.44-9.41 20.2-32.2 40.9-67.87 39.9-38.51-1.09-72.46-29.7-78.8-67.15-1.16-5.91 0-8.91.58-13.7-.71 3.69-.98 4.76-1.33 11.33v.42c0 45.36 36.78 82.14 82.14 82.14 40.63 0 74.36-29.5 80.96-68.24.14-1.05.25-2.11.37-3.17 1.62-14.09-.19-28.89-5.34-41.27z" fill="#fff" stroke-linecap="round" stroke-linejoin="round"/><path d="M675.94 116.08c.18.13.34.25.51.38-2.06-3.66-4.63-7.01-7.63-9.95-25.53-25.53-6.69-55.36-3.52-56.88l.03-.04c-20.63 12.09-27.63 34.44-28.28 45.63.96-.06 1.91-.15 2.88-.15 15.4 0 28.81 8.47 35.99 21.02z" fill="#fff" stroke-linecap="round" stroke-linejoin="round"/><path d="M640 121.18c-.13 2.05-7.35 9.09-9.88 9.09-23.36 0-27.15 14.13-27.15 14.13 1.03 11.9 9.32 21.7 19.35 26.88.46.24.92.45 1.37.66.8.34 1.61.68 2.41.99 3.44 1.21 7.04 1.9 10.69 2.05 40.94 1.92 48.87-48.95 19.33-63.72 7.56-1.32 15.42 1.73 19.8 4.81-7.18-12.55-20.59-21.02-35.99-21.02-.97 0-1.93.08-2.88.15-8.24.57-16.12 3.61-22.6 8.72 1.25 1.06 2.67 2.48 5.65 5.41 5.58 5.51 19.88 11.18 19.91 11.85z" fill="#fff" stroke-linecap="round" stroke-linejoin="round"/><path d="M640 121.18c-.13 2.05-7.35 9.09-9.88 9.09-23.36 0-27.15 14.13-27.15 14.13 1.03 11.9 9.32 21.7 19.35 26.88.46.24.92.45 1.37.66.8.34 1.61.68 2.41.99 3.44 1.21 7.04 1.9 10.69 2.05 40.94 1.92 48.87-48.95 19.33-63.72 7.56-1.32 15.42 1.73 19.8 4.81-7.18-12.55-20.59-21.02-35.99-21.02-.97 0-1.93.08-2.88.15-8.24.57-16.12 3.61-22.6 8.72 1.25 1.06 2.67 2.48 5.65 5.41 5.58 5.51 19.88 11.18 19.91 11.85z" fill="#9755fc" stroke-linecap="round" stroke-linejoin="round"/><path d="M610.63 101.19c.67.43 1.21.79 1.71 1.12-1.87-6.55-1.95-13.48-.23-20.08-8.44 3.85-15 9.91-19.77 15.28.39-.01 12.3-.23 18.29 3.67z" fill="#fff" stroke-linecap="round" stroke-linejoin="round"/><path d="M558.47 138.92c6.34 37.44 40.29 66.05 78.82 67.15 35.67 1.01 58.44-19.7 67.87-39.9 6.08-13.06 10.31-34.42 2.56-55.44v-.16s0 .05.02.14c2.91 19.03-6.76 37.46-21.89 49.92-.02.03-.03.07-.04.11-29.48 24-57.69 14.48-63.4 10.6-.4-.19-.8-.39-1.19-.59-17.19-8.2-24.29-23.87-22.77-37.3-14.51 0-19.46-12.24-19.46-12.24s13.03-9.29 30.2-1.21c15.9 7.48 30.84 1.21 30.84 1.21-.03-.67-14.32-6.35-19.9-11.85-2.98-2.93-4.39-4.35-5.65-5.41-.68-.57-1.39-1.11-2.13-1.61-.49-.34-1.03-.68-1.71-1.12-5.99-3.9-17.91-3.68-18.3-3.67h-.04c-3.26-4.13-3.03-17.73-2.84-20.57-.04-.18-2.43 1.24-2.73 1.46-2.87 2.05-5.56 4.35-8.03 6.88-2.81 2.85-5.37 5.92-7.67 9.2-5.28 7.49-9.03 15.95-11.02 24.89-.06.16-2.99 12.92-1.54 19.53z" fill="#fff" stroke-linecap="round" stroke-linejoin="round"/><path d="M668.82 106.5c3 2.94 5.57 6.29 7.63 9.95.43.32.84.66 1.23 1.03 18.62 17.14 8.88 41.41 8.14 43.16 15.13-12.46 24.8-30.9 21.89-49.92-9.29-23.17-25.04-32.5-37.9-52.83-.65-1.03-1.3-2.05-1.94-3.15-.36-.62-.65-1.18-.9-1.71-.53-1.03-.94-2.11-1.23-3.24 0-.11-.08-.21-.18-.22-.05-.01-.1-.01-.15 0-.01 0-.03.01-.04.02-.02 0-.04.02-.06.03-3.18 1.52-22.02 31.35 3.51 56.88z" fill="#fff" stroke-linecap="round" stroke-linejoin="round"/><path d="M677.67 117.46c-.39-.36-.8-.7-1.23-1.03-.17-.13-.34-.25-.51-.38-4.39-3.08-12.24-6.12-19.8-4.81 29.54 14.77 21.61 65.64-19.33 63.72-3.64-.15-7.25-.84-10.69-2.05-.8-.3-1.61-.63-2.41-.99-.46-.21-.93-.42-1.37-.66l.05.03c5.71 3.9 33.92 13.42 63.4-10.6 0 0 .02-.04.04-.11.73-1.71 10.47-25.98-8.15-43.14z" fill="#fff" stroke-linecap="round" stroke-linejoin="round"/><path d="M602.97 144.4s3.79-14.13 27.15-14.13c2.53 0 9.74-7.05 9.88-9.09s-14.94 6.28-30.84-1.21c-17.17-8.08-30.2 1.21-30.2 1.21s4.95 12.24 19.46 12.24c-1.52 13.43 5.58 29.09 22.77 37.3.38.18.75.38 1.14.56-10.03-5.17-18.31-14.98-19.35-26.88z" fill="#fff" stroke-linecap="round" stroke-linejoin="round"/></g><path d="M715.85 106.42c-3.57-8.59-10.8-17.86-16.48-20.79 4.62 9.06 7.29 18.15 8.32 24.93 0 0 0 .05.02.14-9.29-23.15-25.04-32.49-37.9-52.82-.65-1.03-1.3-2.05-1.94-3.15-.36-.62-.65-1.18-.9-1.71-.53-1.03-.94-2.11-1.23-3.24 0-.11-.08-.21-.18-.22-.05-.01-.1-.01-.15 0-.01 0-.03.01-.04.02-.02 0-.04.02-.06.03l.03-.04c-20.63 12.09-27.63 34.44-28.28 45.63.96-.06 1.91-.15 2.88-.15 15.4 0 28.81 8.47 35.99 21.02-4.39-3.08-12.24-6.12-19.8-4.81 29.54 14.77 21.61 65.64-19.33 63.72-3.64-.15-7.25-.84-10.69-2.05-.8-.3-1.61-.63-2.41-.99-.46-.21-.93-.42-1.37-.66l.05.03c-.4-.19-.8-.39-1.19-.59.38.18.75.38 1.14.56-10.05-5.18-18.33-14.99-19.37-26.89 0 0 3.79-14.13 27.15-14.13 2.53 0 9.74-7.05 9.88-9.09-.03-.67-14.32-6.35-19.9-11.85-2.98-2.93-4.39-4.35-5.65-5.41-.68-.57-1.39-1.11-2.13-1.61-1.87-6.55-1.95-13.48-.23-20.08-8.44 3.85-15 9.91-19.77 15.28h-.04c-3.26-4.13-3.03-17.73-2.84-20.57-.04-.18-2.43 1.24-2.73 1.46-2.87 2.05-5.56 4.35-8.03 6.88-2.81 2.85-5.37 5.92-7.67 9.2-5.28 7.49-9.03 15.95-11.02 24.89-.04.18-.07.36-.11.54-.15.72-.85 4.39-.95 5.18 0-.06 0 .06 0 0-.64 3.79-1.05 7.62-1.23 11.46v.42c0 45.36 36.78 82.14 82.14 82.14 40.63 0 74.36-29.5 80.96-68.24.14-1.05.25-2.11.37-3.17 1.63-14.09-.18-28.89-5.33-41.27z" fill="#fff"/><path d="M622.33 171.28c.44.24.91.45 1.37.66.8.36 1.61.69 2.41.99 3.44 1.21 7.05 1.9 10.69 2.05 40.94 1.92 48.87-48.95 19.33-63.72 7.56-1.31 15.41 1.73 19.8 4.81-7.18-12.55-20.59-21.02-35.99-21.02-.97 0-1.92.09-2.88.15.65-11.19 7.65-33.54 28.28-45.63l-.03.04c.02-.01.04-.03.06-.03.01-.01.03-.02.04-.02.05-.01.1-.01.15 0 .1.01.18.11.18.22.29 1.13.7 2.21 1.23 3.24.25.53.54 1.09.9 1.71.64 1.1 1.29 2.12 1.94 3.15 12.86 20.33 28.61 29.67 37.9 52.82-.02-.09-.02-.14-.02-.14-1.03-6.78-3.7-15.87-8.32-24.93 5.68 2.93 12.91 12.2 16.48 20.79h-.02c5.15 12.38 6.96 27.18 5.33 41.27-.12 1.06-.23 2.12-.37 3.17-6.6 38.74-40.33 68.24-80.96 68.24-45.36 0-82.14-36.78-82.14-82.14v-.42c.18-3.84.59-7.67 1.23-11.46m63.41 46.2.05.03c-.4-.19-.8-.39-1.19-.59.38.18.75.38 1.14.56zm0 0c-10.05-5.18-18.33-14.99-19.37-26.89 0 0 3.79-14.13 27.15-14.13 2.53 0 9.74-7.05 9.88-9.09-.03-.67-14.32-6.35-19.9-11.85-2.98-2.93-4.39-4.35-5.65-5.41-.68-.57-1.39-1.11-2.13-1.61-1.87-6.55-1.95-13.48-.23-20.08-8.44 3.85-15 9.91-19.77 15.28h-.04c-3.26-4.13-3.03-17.73-2.84-20.57-.04-.18-2.43 1.24-2.73 1.46-2.87 2.05-5.56 4.35-8.03 6.88-2.81 2.85-5.37 5.92-7.67 9.2-5.28 7.49-9.03 15.95-11.02 24.89-.04.18-.07.36-.11.54-.15.72-.85 4.39-.95 5.18m0 0c0-.06 0 .06 0 0zm148.78-14.44v.09" stroke="#000" stroke-linecap="round" stroke-linejoin="round" stroke-width="2.07"/><path d="M678.88 253.49c-5.16 0-9.35-4.2-9.35-9.35v-16.76c0-.57-.46-1.04-1.04-1.04h-16.83c-5.16 0-9.35-4.2-9.35-9.35s4.2-9.35 9.35-9.35h16.83c.57 0 1.04-.46 1.04-1.04v-16.77c0-5.16 4.2-9.35 9.35-9.35s9.35 4.2 9.35 9.35v16.77c0 .57.46 1.04 1.04 1.04h16.75c5.16 0 9.35 4.2 9.35 9.35s-4.2 9.35-9.35 9.35h-16.75c-.57 0-1.04.46-1.04 1.04v16.76c0 5.16-4.2 9.35-9.35 9.35z" fill="#9755fc"/><path d="M678.88 181.52c4.58 0 8.31 3.73 8.31 8.31v16.77c0 1.15.93 2.07 2.07 2.07h16.75c4.58 0 8.31 3.73 8.31 8.31s-3.73 8.31-8.31 8.31h-16.75c-1.15 0-2.07.93-2.07 2.07v16.76c0 4.58-3.73 8.31-8.31 8.31s-8.31-3.73-8.31-8.31v-16.76c0-1.15-.93-2.07-2.07-2.07h-16.83c-4.58 0-8.31-3.73-8.31-8.31s3.73-8.31 8.31-8.31h16.83c1.15 0 2.07-.93 2.07-2.07v-16.77c0-4.58 3.73-8.31 8.31-8.31zm0-2.08c-5.74 0-10.39 4.65-10.39 10.39v16.77h-16.83c-5.74 0-10.39 4.65-10.39 10.39s4.65 10.39 10.39 10.39h16.83v16.76c0 5.74 4.65 10.39 10.39 10.39s10.39-4.65 10.39-10.39v-16.76h16.75c5.74 0 10.39-4.65 10.39-10.39s-4.65-10.39-10.39-10.39h-16.75v-16.77c0-5.74-4.65-10.39-10.39-10.39z" fill="#000"/></g></svg>