<svg xmlns="http://www.w3.org/2000/svg" width="148" height="207" fill="none"><path fill="#A883F8" stroke="#000" stroke-miterlimit="10" stroke-width="2" d="M65.018 91.98a6.212 6.212 0 0 1-8.79 0 6.216 6.216 0 1 1 8.79-8.794 6.221 6.221 0 0 1 0 8.795Z"/><path stroke="#000" stroke-miterlimit="10" stroke-width="2" d="M119.167 84.181c1.329-31.33-23.88-56.505-55.145-55.176"/><path stroke="#000" stroke-miterlimit="10" stroke-width="2" d="M146.159 83.922C147.615 37.704 110.52.54 64.282 1.999M63.762 56.012c16.34-1.232 29.644 12.092 28.413 28.43"/><path fill="#fff" stroke="#000" stroke-linecap="round" stroke-linejoin="round" stroke-width="2" d="M99.628 179.825h18.316c11.738 0 21.253-9.52 21.253-21.264s-9.515-21.264-21.253-21.264h-3.229l-3.371 12.365h6.601c4.904 0 8.893 3.991 8.893 8.899 0 4.907-3.989 8.898-8.893 8.898H99.627v12.366Z"/><path fill="#fff" stroke="#000" stroke-linecap="round" stroke-linejoin="round" stroke-width="2" d="M61.783 128.602h60.669c-.243 42.268-27.307 76.441-60.67 76.441-33.361 0-60.425-34.173-60.668-76.441h60.669Z"/><path fill="#DCDDFD" stroke="#000" stroke-linecap="round" stroke-linejoin="round" stroke-width="2" d="M61.783 144.902c33.507 0 60.669-7.298 60.669-16.3s-27.162-16.3-60.67-16.3c-33.506 0-60.668 7.298-60.668 16.3s27.162 16.3 60.669 16.3Z"/><path fill="#A883F8" stroke="#000" stroke-linecap="round" stroke-linejoin="round" stroke-width="2" d="M71.336 128.602h-.002c-13.752.001-15.022 12.422-24.756 12.422-7.673 0-12.18-8.727-13.745-12.422a26.563 26.563 0 0 1-.58-1.479 70.73 70.73 0 0 1-2.965-12.287c-.01-.072-.023-.144-.034-.216a71.766 71.766 0 0 1-.745-10.303 71.001 71.001 0 0 1 4.877-25.945c1.573-4.016-3.227-7.523-6.544-4.768-15.718 13.051-25.728 32.743-25.728 54.777l.001.19v.075c.089 8.982 27.216 16.256 60.668 16.256 14.314 0 27.469-1.333 37.844-3.561-13.984 0-14.538-12.738-28.29-12.739Z"/><path stroke="#000" stroke-linecap="round" stroke-linejoin="round" stroke-width="2" d="M15.897 112.302s-2.817 14.616 6.315 28.655"/></svg>
