<svg width="216" height="172" fill="none" xmlns="http://www.w3.org/2000/svg"><path d="M154.986 171.971h-71.48A7.5 7.5 0 0 1 76 164.462V56.51A7.5 7.5 0 0 1 83.507 49h71.503a7.5 7.5 0 0 1 7.507 7.51v107.952c0 4.154-3.378 7.509-7.531 7.509Z" fill="#C3C4FD"/><path d="M147.313 163.584h-71.48a7.5 7.5 0 0 1-7.507-7.51V48.122a7.5 7.5 0 0 1 7.507-7.51h71.503a7.5 7.5 0 0 1 7.507 7.51v107.952c0 4.154-3.378 7.51-7.53 7.51Z" fill="#fff" stroke="#333336" stroke-width="1.792" stroke-miterlimit="10"/><path d="M125.634 77.287a5.529 5.529 0 0 0-5.093-3.38 5.514 5.514 0 0 0-4.593 2.431 5.59 5.59 0 0 0-.733 1.599h-7.772a4.478 4.478 0 0 0-.516-1.266l2.78-2.78a5.563 5.563 0 0 0 2.762.733c.766 0 1.498-.15 2.147-.433a5.396 5.396 0 0 0 2.43-1.998 5.534 5.534 0 0 0 .949-3.097 5.69 5.69 0 0 0-.433-2.148 5.49 5.49 0 0 0-1.997-2.43 5.528 5.528 0 0 0-3.096-.95A5.514 5.514 0 0 0 107.876 66a5.534 5.534 0 0 0-.949 3.097c0 .766.15 1.498.433 2.164.083.183.166.35.25.516l-2.813 2.814a5.619 5.619 0 0 0-4.843-.25 5.533 5.533 0 0 0-3.379 5.095 5.522 5.522 0 0 0 5.526 5.545c.765 0 1.498-.15 2.147-.433a5.407 5.407 0 0 0 2.43-1.998 5.015 5.015 0 0 0 .732-1.599h7.772c.067.233.133.45.233.666.083.183.167.35.25.516l-2.813 2.814a5.568 5.568 0 0 0-2.679-.683 5.519 5.519 0 0 0-4.594 2.431 5.534 5.534 0 0 0-.949 3.097 5.521 5.521 0 0 0 5.526 5.544 5.519 5.519 0 0 0 5.542-5.527 5.67 5.67 0 0 0-.433-2.148c-.099-.2-.199-.416-.299-.6l2.779-2.78a5.566 5.566 0 0 0 2.763.733c.766 0 1.498-.15 2.147-.433a5.401 5.401 0 0 0 2.43-1.998 5.493 5.493 0 0 0 .948-3.097 4.715 4.715 0 0 0-.399-2.198Zm-15.528-9.19c.2-.45.516-.85.915-1.115.4-.284.899-.433 1.432-.433.349 0 .682.066.998.2.466.2.849.516 1.132.932.266.4.433.899.433 1.415 0 .366-.067.7-.2.999-.2.45-.516.849-.932 1.115a2.45 2.45 0 0 1-1.415.433 2.73 2.73 0 0 1-.998-.2 2.583 2.583 0 0 1-1.132-.932c-.283-.4-.433-.899-.433-1.432 0-.35.067-.666.2-.982Zm-5.642 12.337c-.2.45-.516.85-.915 1.116a2.505 2.505 0 0 1-1.432.433c-.366 0-.699-.084-.998-.2a2.582 2.582 0 0 1-1.132-.933 2.468 2.468 0 0 1-.433-1.431c0-.35.067-.683.2-1 .2-.449.516-.849.915-1.115.4-.283.899-.433 1.432-.433.349 0 .699.067.998.2.466.2.849.516 1.132.932a2.584 2.584 0 0 1 .233 2.431Zm8.089 10.34c-.2.449-.516.849-.916 1.115a2.504 2.504 0 0 1-1.431.433 2.74 2.74 0 0 1-.999-.2 2.58 2.58 0 0 1-1.131-.932c-.283-.4-.433-.9-.433-1.432 0-.35.066-.683.2-1 .199-.449.516-.848.915-1.115a2.503 2.503 0 0 1 1.431-.433c.35 0 .699.067.999.2.466.2.849.516 1.132.933.266.4.432.899.432 1.415 0 .383-.066.7-.199 1.016Zm10.335-10.34c-.2.45-.516.85-.915 1.116a2.507 2.507 0 0 1-1.432.433c-.366 0-.699-.084-.998-.2a2.582 2.582 0 0 1-1.132-.933 2.467 2.467 0 0 1-.433-1.431c0-.35.067-.683.2-1 .2-.449.516-.849.915-1.115.4-.283.899-.433 1.432-.433.349 0 .699.067.998.2.466.2.849.516 1.132.932a2.584 2.584 0 0 1 .233 2.431Z" fill="#333336"/><path d="m119.795 142.439-20.245-.118c-5.208-.023-9.384-4.271-9.36-9.481.023-5.21 4.27-9.387 9.477-9.363l20.245.117c5.208.023 9.384 4.271 9.36 9.481-.023 5.21-4.269 9.387-9.477 9.364Z" fill="#84FCBF" stroke="#333336" stroke-width="1.792" stroke-miterlimit="10"/><path d="M130.178 139.591c3.673-3.676 3.673-9.634 0-13.309a9.405 9.405 0 0 0-13.304 0c-3.673 3.675-3.673 9.633 0 13.309a9.405 9.405 0 0 0 13.304 0Z" fill="#fff" stroke="#333336" stroke-width="1.792" stroke-miterlimit="10"/><path d="M58.579 50.683H6.649c-.706 0-1.271-.566-1.271-1.274V15.33c0-.708.565-1.274 1.27-1.274h51.93c.707 0 1.271.566 1.271 1.274v34.08c0 .708-.564 1.274-1.27 1.274ZM5.744 20.141h54.472" stroke="#333336" stroke-width="1.792" stroke-miterlimit="10"/><path d="M29.408 26.623h22.195M29.408 33.077h22.195M29.408 39.559h22.195" stroke="#333336" stroke-width="1.792" stroke-miterlimit="10" stroke-linecap="round"/><path d="M22.13 38.003a6.465 6.465 0 0 0 0-9.127 6.427 6.427 0 0 0-9.105 0 6.465 6.465 0 0 0 0 9.127 6.427 6.427 0 0 0 9.105 0Z" stroke="#333336" stroke-width="1.792" stroke-miterlimit="10"/><path d="M16.446 36.275V30.67l3.7 2.803-3.7 2.802ZM52.858 103.231H31.37v21.541h21.49v-21.541Z" stroke="#333336" stroke-width="1.792" stroke-miterlimit="10" stroke-linejoin="round"/><path d="m38.88 114.355 2.88 2.859 4.292-5.746" stroke="#333336" stroke-width="1.792" stroke-miterlimit="10" stroke-linecap="round" stroke-linejoin="round"/><path d="M68.585 72.34c-5.73-7.832-22.836-2-31.287-5.615-6.5-2.787-10.937-8.932-10.343-16.137M68.115 1.058h36.693V14h-26.84l-4.757 4.087V14h-5.096V1.058Z" stroke="#333336" stroke-width="1.792" stroke-miterlimit="10"/><path d="M209.478 125.209a.924.924 0 0 0-.781-.274l-6.249.743-.039-.469a7.941 7.941 0 0 0-3.046-5.432 7.98 7.98 0 0 0-6.015-1.68 7.932 7.932 0 0 0-5.429 3.048c-1.328 1.719-1.953 3.868-1.679 6.018l.078.468-4.882.587-1.055-4.807a.97.97 0 0 0-1.015-.742l-2.851.351a1.014 1.014 0 0 0-.625.352.885.885 0 0 0-.195.703c.078.508.507.86 1.054.821l2.031-.234 1.094 5.041c1.132 5.236 2.812 13.208 2.851 13.286a4.893 4.893 0 0 0 2.265 3.087l.43.234-.352.43c-.742 1.251-.742 2.814.078 4.025.82 1.251 2.187 1.915 3.671 1.72 1.25-.157 2.305-.86 2.891-1.993.585-1.094.625-2.384.039-3.517l-.313-.625 9.1-1.095-.156.665a3.756 3.756 0 0 0 .898 3.399c.86.938 2.031 1.407 3.281 1.251a3.685 3.685 0 0 0 2.539-1.446 3.85 3.85 0 0 0 .781-2.814 3.692 3.692 0 0 0-1.445-2.54 3.845 3.845 0 0 0-2.812-.781l-15.74 1.915a3.152 3.152 0 0 1-3.085-1.524l-.352-.587 23.043-4.181a.914.914 0 0 0 .742-.82l1.485-11.802c.078-.312-.039-.586-.235-.781Zm-5.624 19.616a1.994 1.994 0 0 1 2.187 1.72c.078.508-.078 1.016-.39 1.446-.313.43-.781.664-1.289.742h-.234c-.43 0-.86-.156-1.211-.43-.43-.312-.664-.781-.742-1.289-.156-1.055.625-2.032 1.679-2.189Zm-17.028 2.658c.312-.43.781-.665 1.288-.743a1.996 1.996 0 0 1 2.188 1.72 1.994 1.994 0 0 1-1.719 2.188h-.234c-.977 0-1.836-.742-1.953-1.719-.039-.508.078-1.016.43-1.446Zm6.756-27.55c3.437-.43 6.562 2.032 6.991 5.471a6.39 6.39 0 0 1-1.288 4.65 6.45 6.45 0 0 1-4.179 2.384c-.274.039-.508.039-.782.039-3.124 0-5.858-2.345-6.249-5.51-.39-3.478 2.07-6.604 5.507-7.034Zm12.928 16.921-22.379 4.064-2.305-10.864 5.039-.625.156.313c1.523 3.087 4.843 4.884 8.28 4.494a8.098 8.098 0 0 0 6.991-6.331l.078-.352 5.39-.664-1.25 9.965Z" fill="#333336"/><path d="M155.166 119.811c-.88-.489 3.144-14.054 16.382-26.424 12.805-11.966 20.892-20.94 15.325-26.069-7.105-6.544-25.395 3.37-31.707 7.336" stroke="#333336" stroke-width="1.792"/><path d="m191.591 127.163 1.601 1.251a.89.89 0 0 0 .703.195 1.01 1.01 0 0 0 .625-.352l2.5-3.204a.889.889 0 0 0 .195-.703 1.018 1.018 0 0 0-.351-.626.89.89 0 0 0-.703-.195 1.01 1.01 0 0 0-.625.352l-1.953 2.462-.859-.665a.963.963 0 0 0-.586-.195h-.117a1.01 1.01 0 0 0-.625.352.884.884 0 0 0-.196.703c.078.234.196.469.391.625Z" fill="#333336"/><path d="M181.49 135.635c-2.203-.667-7.092.89-9.295 8.007-1.983 6.406-5.577 12.9-17.144 10.676" stroke="#333336" stroke-width="1.792" stroke-linecap="round"/></svg>