<svg xmlns="http://www.w3.org/2000/svg" viewBox="0 0 100 100" width="100" height="100">
  <path fill="#ff298a" d="M99.5 48L83.8 16.7c-2.3-4.7-7-7.6-12.2-7.6H28.4c-5.2 0-9.9 2.9-12.2 7.6L.5 48c-.3.6-.5 1.3-.5 2v27.3c0 7.5 6.1 13.6 13.6 13.6h72.7c7.5 0 13.6-6.1 13.6-13.6V50c.1-.7-.1-1.4-.4-2zM24.3 20.7c.8-1.6 2.3-2.5 4.1-2.5h43.3c1.7 0 3.3 1 4.1 2.5l12.4 24.7h-20c-1.5 0-2.9.8-3.8 2L56.7 59H43.3l-7.7-11.6c-.8-1.3-2.3-2-3.8-2H11.9l12.4-24.7zm66.6 56.6c0 2.5-2 4.5-4.5 4.5H13.6c-2.5 0-4.5-2-4.5-4.5V54.5h20.3l7.7 11.6c.8 1.3 2.3 2 3.8 2h18.2c1.5 0 2.9-.8 3.8-2l7.7-11.6h20.3v22.8z"/>
</svg>
