<svg xmlns="http://www.w3.org/2000/svg" viewBox="0 0 100 100" width="100" height="100">
  <path fill="#9059ff" d="M84.8 95.7c-4.1 0-7.9-1.6-10.8-4.5-2.9-2.9-4.5-6.7-4.5-10.8 0-4.1 1.6-7.9 4.5-10.8l7.7-7.7c1.6-1.6 4.5-1.6 6.1 0l7.7 7.7c2.9 2.9 4.5 6.7 4.5 10.8 0 4.1-1.6 7.9-4.5 10.8-2.8 2.9-6.7 4.5-10.7 4.5zm0-24.5l-4.6 4.6c-1.2 1.2-1.9 2.9-1.9 4.6s.7 3.4 1.9 4.6c2.5 2.5 6.8 2.5 9.2 0 1.2-1.2 1.9-2.9 1.9-4.6s-.7-3.4-1.9-4.6l-4.6-4.6zm-7.7 1.6z"/>
  <path fill="#9059ff" d="M90.3 32L68.6 5.9c-1.5-1.8-4.3-2.1-6.1-.6-1.8 1.5-2.1 4.3-.6 6.1L64 14 37.5 35.6c-2.3-.6-4.7-.8-7.1-.8C13.7 34.8 0 48.4 0 65.2s13.7 30.4 30.4 30.4S60.9 82 60.9 65.2c0-3-.4-6-1.3-8.8l23-20.1 1.1 1.3c.9 1 2.1 1.6 3.3 1.6 1 0 2-.3 2.8-1 1.8-1.6 2-4.4.5-6.2zM30.4 87c-8.9 0-16.5-5.4-19.9-13h39.8c-3.3 7.6-11 13-19.9 13zm18.8-33.1l1.2 2.9c1.1 2.7 1.7 5.5 1.7 8.5H8.7c0-12 9.8-21.7 21.7-21.7 2.3 0 4.6.4 6.8 1.1l2.3.7 29.4-24 7.6 8.8-27.3 23.7z"/>
</svg>
