<?xml version="1.0" encoding="utf-8"?>
<svg viewBox="0 0 20 20" width="20px" height="20px" xmlns="http://www.w3.org/2000/svg">
  <rect x="2.795" y="6.185" width="14.427" height="8.087" style="fill: rgb(255, 255, 255);"/>
  <path fill="#ee4056" d="M 15.7 9.1 L 11 13.4 C 10.8 13.6 10.4 13.8 10.1 13.8 C 9.7 13.8 9.4 13.7 9.1 13.4 L 4.4 9.1 C 3.9 8.6 3.9 7.8 4.4 7.2 C 4.9 6.7 5.8 6.7 6.3 7.2 L 10 10.6 L 13.8 7.2 C 14.3 6.7 15.1 6.7 15.7 7.2 C 16.2 7.7 16.2 8.6 15.7 9.1 M 18.1 2 L 1.9 2 C 0.9 2 0 2.7 0 3.8 L 0 9.5 C 0.2 14.9 4.6 19.1 10 19 C 15.4 19.1 19.8 14.9 20 9.5 L 20 3.8 C 20 2.8 19.1 2 18.1 2"/>
</svg>