<svg xmlns="http://www.w3.org/2000/svg" viewBox="0 0 125 33" width="125" height="33">
  <path fill="#ee4056" d="M15.7 15.1L11 19.4c-.2.2-.6.4-.9.4-.4 0-.7-.1-1-.4l-4.7-4.3c-.5-.5-.5-1.3 0-1.9.5-.5 1.4-.5 1.9 0l3.7 3.4 3.8-3.4c.5-.5 1.3-.5 1.9 0 .5.5.5 1.4 0 1.9M18.1 8H1.9C.9 8 0 8.7 0 9.8v5.7c.2 5.4 4.6 9.6 10 9.5 5.4.1 9.8-4.1 10-9.5V9.8c0-1-.9-1.8-1.9-1.8"/>
  <path fill="#808184" d="M35.1 22.8c-3.6 0-6.6-3-6.6-6.6 0-3.6 2.9-6.6 6.6-6.6 3.6 0 6.6 2.9 6.6 6.6 0 3.6-3 6.6-6.6 6.6m0-15.5c-2.7.1-5.2 1.4-6.8 3.5l-.1-2.4c0-.9-.5-1.3-1.1-1.3-.6 0-1.1.5-1.1 1.1v23.5c0 .6.4 1.1 1 1.2h.1c.6 0 1.1-.5 1.1-1.1V21.5c1.7 2.1 4.2 3.3 6.8 3.4 4.9.2 8.9-3.6 9.1-8.5s-3.6-8.9-8.5-9.1h-.5"/>
  <path fill="#808184" d="M54 23.8c-3.7 0-6.7-3.1-6.7-6.8a6.7 6.7 0 0 1 13.4 0c0 3.7-3 6.8-6.7 6.8M54 8c-5 0-9 4-9 9 0 4.9 3.9 9 8.9 9h.1c5 0 9-4 9-9-.1-4.9-4.1-8.9-9-9"/>
  <path fill="#808184" d="M80 19.7c-.3 0-.7.2-.9.5-1.3 1.6-3.3 2.6-5.4 2.7-3.5.1-6.4-2.7-6.4-6.2v-.2c0-3.5 2.8-6.5 6.3-6.5 2 0 4 .9 5.2 2.5.2.3.5.5.9.5.5 0 .9-.4 1-.9-.1-.4-.2-.7-.4-1-1.6-2-4-3.2-6.6-3.1-4.8-.1-8.7 3.7-8.7 8.5.1 4.8 4 8.5 8.7 8.5 2.7 0 5.2-1.3 6.9-3.4.2-.2.4-.5.4-.9 0-.5-.4-1-1-1"/>
  <path fill="#808184" d="M89.2 15.4l6.5-5.6c.5-.3.7-1 .4-1.6l-.1-.1c-.5-.5-1.3-.4-1.7.1l-8.9 8V1.3C85.3.5 85 0 84.2 0c-.6-.1-1.1.4-1.2 1v22.6c-.1.6.4 1.2 1 1.2h.2c.6 0 1.1-.5 1.1-1.1V18.8l2.3-2 7.2 7.6c.4.5 1.2.6 1.7.2.5-.4.5-1.1.1-1.6l-.1-.1-7.3-7.5z"/>
  <path fill="#808184" d="M99.3 15.8c.5-3.7 3.1-5.6 6-5.6 3 .1 5.4 2.6 5.4 5.6H99.3zm6-7.8c-4.7 0-8.3 4.1-8.3 9s3.6 9 8.3 9c2.3 0 4.5-.9 6.1-2.5.3-.3.5-.7.6-1.1 0-.5-.4-1-.9-1h-.1c-.4 0-.7.1-.9.4-1.3 1.3-3 2-4.8 2-3.3-.1-6-2.8-6.1-6.1h12c.9.1 1.7-.5 1.8-1.3v-.3c0-4-3.3-8.1-7.7-8.1z"/>
  <path fill="#808184" d="M124 21.7c-.3 0-.6.2-.9.4-.5.5-1.2.8-1.9.8-1.4 0-2.2-.9-2.2-2.8V9.6l4.3.1c.5 0 1-.3 1-.9v-.1c0-.5-.4-1-.9-1H119V4.2c0-.6-.4-1.1-1-1.2-.6 0-1.1.5-1.1 1.1v3.5h-1.8c-.5-.1-1.1.2-1.2.7s.2 1.1.7 1.2h.5l1.8-.1V20c0 3.3 2 4.8 4.3 4.8 1.2 0 2.4-.4 3.2-1.3.3-.3.4-.6.5-1 0-.5-.3-1-.8-1 0 .1 0 .1-.1.2"/>
</svg>
