<svg width="228" height="60" viewBox="0 0 228 60" fill="none" xmlns="http://www.w3.org/2000/svg"><path fill-rule="evenodd" clip-rule="evenodd" d="M63.73 41.658c-6.268 0-11.502-5.353-11.502-11.876 0-6.585 5.234-12.062 11.502-12.062 6.39 0 11.503 5.477 11.503 12.062 0 6.523-5.112 11.876-11.503 11.876zm.216-27.424c-4.802 0-9.051 2.693-12.068 6.302l-.123-4.282c-.062-1.53-.8-2.264-1.909-2.264-1.17 0-1.97.918-1.97 2.202V57.92c0 1.224.862 2.08 2.032 2.08 1.231 0 1.97-.918 1.97-2.141V39.626c3.017 3.549 7.266 5.996 12.068 5.996 8.743 0 15.64-6.975 15.64-15.602s-6.897-15.785-15.64-15.785zM162.866 28.329l11.484-10.334c1.049-.924 1.172-2.28.37-3.143-.863-.924-2.159-.678-3.084.185L156.03 29.665V2.342c0-1.418-.617-2.342-1.912-2.342-1.419 0-2.097.924-2.097 2.342v40.983c0 1.355.802 2.28 2.097 2.28 1.172 0 1.912-.925 1.912-2.28V34.48l3.998-3.597 12.595 13.982c.802.863 2.159 1.171 3.022.37.987-.924.679-2.157-.061-3.02L162.866 28.33zM98.705 41.658c-6.354 0-11.658-5.353-11.658-11.876 0-6.585 5.304-12.062 11.658-12.062 6.476 0 11.658 5.477 11.658 12.062 0 6.523-5.182 11.876-11.658 11.876zm.094-27.668c-9.086 0-16.104 7.232-16.104 15.947 0 8.716 7.018 15.763 16.104 15.763 8.522 0 15.916-7.047 15.916-15.763 0-8.715-7.457-15.947-15.916-15.947zM225.851 39.743c-.612 0-1.224.368-1.591.675-.857.737-1.897 1.474-3.366 1.474-2.51 0-3.917-1.535-3.917-5.035V17.945l7.773.123c1.101 0 1.836-.675 1.836-1.72 0-1.104-.735-1.78-1.836-1.78l-7.773.061V8.305c0-1.228-.857-2.088-1.898-2.088-1.101 0-2.02.86-2.02 2.088v6.324l-3.305-.061c-1.04 0-1.775.675-1.775 1.78 0 .983.796 1.781 1.775 1.72l3.305-.123V36.98c0 5.956 3.612 8.72 7.773 8.72 2.571 0 4.53-.983 5.876-2.396.429-.49.857-1.043.857-1.78 0-1.044-.673-1.78-1.714-1.78zM181.555 27.98c.896-6.73 5.625-10.26 10.948-10.26 5.672 0 9.637 5.002 9.881 10.26h-20.829zm11.002-13.99c-8.792 0-15.355 7.232-15.355 15.947 0 8.716 6.687 15.763 15.417 15.763 4.334 0 8.544-1.608 11.331-4.327.619-.618 1.114-1.298 1.114-1.978 0-.99-.619-1.793-1.795-1.793-.62 0-1.239.247-1.734.68-2.601 2.287-5.263 3.585-8.916 3.585-5.684 0-10.757-4.319-11.284-10.755h22.119c2.105 0 3.282-1.113 3.282-2.905 0-6.923-6.068-14.217-14.179-14.217zM144.883 35.972c-.556 0-1.174.43-1.545.923-1.729 2.278-5.436 4.987-9.575 4.987-6.177 0-11.489-4.864-11.489-11.882 0-7.511 5.312-12.006 11.489-12.006 4.51 0 6.981 2.155 9.081 4.68.371.43.927.861 1.606.861.927 0 1.853-.677 1.853-1.6 0-.678-.432-1.355-.803-1.909-2.532-3.632-6.795-5.726-11.737-5.726-8.586 0-15.628 7.019-15.628 15.7 0 8.557 7.042 15.7 15.628 15.7 5.313 0 9.884-3.08 12.293-6.28.433-.555.68-1.109.68-1.601 0-1.108-.803-1.847-1.853-1.847z" fill="#fff"/><path fill="#fff" d="M4 20h27v17H4z"/><path fill-rule="evenodd" clip-rule="evenodd" d="M27.639 27.473l-8.437 7.91c-.435.494-1.117.68-1.613.68-.62 0-1.241-.186-1.737-.68l-8.314-7.91c-.868-.927-.992-2.472 0-3.461.93-.865 2.482-.989 3.412 0l6.639 6.365 6.762-6.365c.868-.989 2.42-.865 3.288 0 .869.989.869 2.534 0 3.46zM31.58 14.3H3.36C1.527 14.3 0 15.722 0 17.576v10.57c0 9.58 7.819 17.553 17.47 17.553 9.59 0 17.349-7.973 17.349-17.553v-10.57c0-1.854-1.466-3.276-3.238-3.276z" fill="#EF4156"/></svg>
