<svg xmlns="http://www.w3.org/2000/svg" width="290" height="202" fill="none" viewBox="0 0 290 202"><path stroke="#000" stroke-miterlimit="10" stroke-width="1.5" d="M1.5 194.669v3.062a3.416 3.416 0 0 0 3.416 3.413h103.726M21.058 69.001a2.917 2.917 0 1 0-1.34-5.678 2.917 2.917 0 0 0 1.34 5.678Z"/><path stroke="#000" stroke-linecap="round" stroke-miterlimit="10" stroke-width="1.5" d="M32.89 58.618v-5.83M29.973 55.7h5.835"/><path stroke="#000" stroke-miterlimit="10" stroke-width="1.5" d="M272.669 27.028a2.919 2.919 0 1 0-4.127 0 2.919 2.919 0 0 0 4.127 0Z"/><path stroke="#000" stroke-linecap="round" stroke-miterlimit="10" stroke-width="1.5" d="M259.266 9.707v5.835M256.353 12.622h5.835"/><path fill="#C2C6FF" d="M258.41 29.68h-65.641a8.752 8.752 0 0 0-8.752 8.752v107.942a8.752 8.752 0 0 0 8.752 8.752h65.641a8.752 8.752 0 0 0 8.752-8.752V38.433a8.752 8.752 0 0 0-8.752-8.753Z"/><path fill="#fff" stroke="#000" stroke-miterlimit="10" stroke-width="1.5" d="M252.94 24.575H187.3a8.752 8.752 0 0 0-8.752 8.752V141.27a8.751 8.751 0 0 0 8.752 8.752h65.64a8.751 8.751 0 0 0 8.752-8.752V33.327a8.752 8.752 0 0 0-8.752-8.752Z"/><path fill="#fff" stroke="#000" stroke-miterlimit="10" stroke-width="1.5" d="M261.692 33.327h-83.144V141.27h83.144V33.327Z"/><path fill="#000" d="M232.015 72.423a4.62 4.62 0 0 0-1.634-2.05 4.569 4.569 0 0 0-2.559-.826 4.706 4.706 0 0 0-1.799.337 4.647 4.647 0 0 0-2.052 1.634 4.49 4.49 0 0 0-.628 1.323l-6.464-.104a3.156 3.156 0 0 0-.177-.554 3.344 3.344 0 0 0-.246-.503l2.362-2.272a4.609 4.609 0 0 0 4.054.322 4.616 4.616 0 0 0 1.715-1.19 4.61 4.61 0 0 0 1.112-3.911 4.596 4.596 0 0 0-4.446-3.775 4.596 4.596 0 0 0-4.301 2.765 4.574 4.574 0 0 0 .165 3.987l-2.382 2.305a4.557 4.557 0 0 0-2.211-.604 4.59 4.59 0 0 0-4.677 4.52 4.617 4.617 0 0 0 5.417 4.611 4.617 4.617 0 0 0 1.675-.655 4.617 4.617 0 0 0 1.295-1.248c.284-.4.5-.845.634-1.317l6.458.105c.05.188.111.372.182.553.065.145.131.294.206.43l-2.363 2.305a4.584 4.584 0 0 0-2.214-.605 4.602 4.602 0 0 0-4.338 6.33 4.652 4.652 0 0 0 1.633 2.05 4.554 4.554 0 0 0 2.559.827 4.57 4.57 0 0 0 3.842-1.969c.531-.749.821-1.64.834-2.559a4.605 4.605 0 0 0-.338-1.792 8.498 8.498 0 0 0-.239-.507l2.342-2.268c.69.412 1.479.634 2.283.645a4.613 4.613 0 0 0 4.678-4.527 4.651 4.651 0 0 0-.378-1.813Zm-12.788-7.839c.167-.374.439-.693.781-.918a2.11 2.11 0 0 1 1.194-.338 2.118 2.118 0 0 1 2.084 2.154 2.133 2.133 0 0 1-.974 1.754 2.123 2.123 0 0 1-2.926-.63 2.083 2.083 0 0 1-.338-1.195 2.05 2.05 0 0 1 .179-.827Zm-4.854 10.168a2.125 2.125 0 0 1-2.805 1.084 2.105 2.105 0 0 1-1.266-1.978c.005-.284.065-.564.179-.824.17-.373.441-.691.783-.918a2.118 2.118 0 0 1 2.026-.166c.382.168.706.444.932.796a2.12 2.12 0 0 1 .151 2.006Zm6.582 8.7a2.124 2.124 0 0 1-3.712.297 2.12 2.12 0 0 1-.16-2.025 2.12 2.12 0 0 1 1.972-1.267 2.125 2.125 0 0 1 1.908 2.98l-.008.015Zm8.731-8.44a2.12 2.12 0 0 1-1.172 1.123 2.115 2.115 0 0 1-1.624-.04 2.122 2.122 0 0 1-1.26-1.778 2.165 2.165 0 0 1 .176-1.033c.168-.376.438-.695.781-.922a2.113 2.113 0 0 1 2.184-.084 2.115 2.115 0 0 1 1.094 1.894 2.086 2.086 0 0 1-.179.827v.013Z"/><path fill="#fff" d="M182.302 170.14a4.844 4.844 0 0 0 4.483-2.997 4.83 4.83 0 0 0 .368-1.858V76.289a4.852 4.852 0 0 0-4.854-4.854H34.137a4.854 4.854 0 0 0-4.854 4.854v88.996a4.858 4.858 0 0 0 2.997 4.486c.589.244 1.22.369 1.857.369"/><path stroke="#000" stroke-miterlimit="10" stroke-width="1.5" d="M182.302 170.14a4.844 4.844 0 0 0 4.483-2.997 4.83 4.83 0 0 0 .368-1.858V76.289a4.852 4.852 0 0 0-4.854-4.854H34.137a4.854 4.854 0 0 0-4.854 4.854v88.996a4.858 4.858 0 0 0 2.997 4.486c.589.244 1.22.369 1.857.369"/><path fill="#fff" d="M104.543 196.876h107.78a2.595 2.595 0 0 0 1.5-.474 2.61 2.61 0 0 0 1.013-2.823 2.584 2.584 0 0 0-.857-1.32l-26.105-21.525a2.589 2.589 0 0 0-1.658-.593H30.217a2.6 2.6 0 0 0-1.66.593L2.454 192.259a2.602 2.602 0 0 0 .157 4.143c.44.31.963.475 1.5.474h107.78"/><path stroke="#000" stroke-miterlimit="10" stroke-width="1.5" d="M104.543 196.876h107.78a2.595 2.595 0 0 0 1.5-.474 2.61 2.61 0 0 0 1.013-2.823 2.584 2.584 0 0 0-.857-1.32l-26.105-21.525a2.589 2.589 0 0 0-1.658-.593H30.217a2.6 2.6 0 0 0-1.66.593L2.454 192.259a2.602 2.602 0 0 0 .157 4.143c.44.31.963.475 1.5.474h107.78"/><path fill="#C2C6FF" d="M87.26 192.525h66.372l-10.807-12.092H31.427l-10.802 12.092H87.26Z"/><path stroke="#000" stroke-miterlimit="10" stroke-width="1.5" d="M214.932 194.669v3.062c0 .905-.359 1.773-1 2.413-.639.641-1.507 1-2.412 1H107.794"/><path stroke="#000" stroke-linecap="round" stroke-linejoin="round" stroke-width="1.5" d="M108.362 187.489h73.386l-11.946-13.368H46.632l-11.947 13.368h73.677Z"/><path fill="#fff" stroke="#000" stroke-linecap="round" stroke-linejoin="round" stroke-width="1.5" d="M178.547 77.65H37.797v86.917h140.75V77.65Z"/><path fill="#000" d="M124.759 118.362a6.228 6.228 0 0 0-5.739-3.805 6.198 6.198 0 0 0-5.172 2.741 6.062 6.062 0 0 0-.82 1.807h-8.777a4.415 4.415 0 0 0-.25-.743 4.173 4.173 0 0 0-.338-.675l3.129-3.13a6.2 6.2 0 0 0 3.103.821 6.12 6.12 0 0 0 2.424-.493 6.239 6.239 0 0 0 3.093-2.829 6.234 6.234 0 0 0-1.567-7.738 6.228 6.228 0 0 0-3.95-1.404 6.224 6.224 0 0 0-5.763 3.842 6.204 6.204 0 0 0-.472 2.387 6.17 6.17 0 0 0 .493 2.43c.084.198.18.391.286.578l-3.173 3.176a6.204 6.204 0 0 0-3.011-.77 6.197 6.197 0 0 0-5.172 2.741 6.283 6.283 0 0 0-1.063 3.485 6.142 6.142 0 0 0 .493 2.43 6.253 6.253 0 0 0 2.258 2.742 6.186 6.186 0 0 0 3.484 1.063 6.242 6.242 0 0 0 5.162-2.748c.379-.547.66-1.156.83-1.799h8.757a6.023 6.023 0 0 0 .547 1.323l-3.177 3.173a6.2 6.2 0 0 0-3.008-.769c-.834 0-1.66.163-2.43.483a6.224 6.224 0 0 0-3.805 5.738c-.002.835.166 1.66.493 2.427a6.306 6.306 0 0 0 2.255 2.744 6.247 6.247 0 0 0 9.722-5.171 6.293 6.293 0 0 0-.493-2.424 7.449 7.449 0 0 0-.337-.675l3.122-3.122c.946.54 2.017.822 3.106.82a6.106 6.106 0 0 0 2.421-.493 6.244 6.244 0 0 0 3.815-5.74 6.297 6.297 0 0 0-.476-2.423Zm-17.497-10.336a2.878 2.878 0 0 1 2.368-1.743 2.877 2.877 0 0 1 2.673 1.272c.312.471.479 1.023.478 1.588a2.885 2.885 0 0 1-2.873 2.879 2.878 2.878 0 0 1-2.386-1.273 2.825 2.825 0 0 1-.483-1.606c0-.384.077-.765.226-1.117h-.003Zm-6.347 13.881a2.883 2.883 0 0 1-2.371 1.745 2.876 2.876 0 0 1-3.148-2.869 2.781 2.781 0 0 1 .226-1.114 2.87 2.87 0 0 1 5.04-.476 2.872 2.872 0 0 1 .253 2.714Zm9.115 11.639a2.862 2.862 0 0 1-2.666 1.759 2.88 2.88 0 0 1-1.098-.226 2.957 2.957 0 0 1-1.269-1.046 2.89 2.89 0 0 1-.261-2.724c.22-.521.588-.965 1.059-1.279a2.873 2.873 0 0 1 2.702-.251 2.86 2.86 0 0 1 1.526 3.767h.007Zm11.64-11.639a2.878 2.878 0 0 1-3.876 1.483 2.876 2.876 0 0 1-1.158-.998 2.916 2.916 0 0 1-.259-2.723 2.882 2.882 0 0 1 1.039-1.264 2.817 2.817 0 0 1 1.607-.496c.384-.001.764.076 1.117.228a2.868 2.868 0 0 1 1.756 2.646c0 .386-.079.769-.233 1.124h.007Z"/><path fill="#fff" stroke="#000" stroke-miterlimit="10" stroke-width="1.5" d="M288.93 194.767v-85.408a6.444 6.444 0 0 0-6.445-6.445h-41.586a6.45 6.45 0 0 0-6.445 6.445v85.408a6.457 6.457 0 0 0 1.887 4.557 6.443 6.443 0 0 0 4.558 1.888h41.593a6.445 6.445 0 0 0 6.438-6.445Z"/><path fill="#fff" stroke="#000" stroke-miterlimit="10" stroke-width="1.5" d="M281.452 107.473H241.93a2.918 2.918 0 0 0-2.918 2.918v83.345a2.917 2.917 0 0 0 2.918 2.917h39.522a2.917 2.917 0 0 0 2.918-2.917v-83.345a2.918 2.918 0 0 0-2.918-2.918Z"/><path fill="#000" d="M273.588 143.111a4.595 4.595 0 0 0-5.992-2.542 4.664 4.664 0 0 0-2.049 1.634c-.281.404-.492.85-.628 1.323l-6.465-.105a3.366 3.366 0 0 0-.179-.553 2.762 2.762 0 0 0-.246-.5l2.364-2.272a4.617 4.617 0 0 0 6.122-1.32 4.6 4.6 0 0 0 .835-2.565 4.596 4.596 0 0 0-1.968-3.842 4.6 4.6 0 0 0-2.558-.827 4.723 4.723 0 0 0-1.801.338 4.592 4.592 0 0 0-2.875 4.192 4.461 4.461 0 0 0 .54 2.232l-2.363 2.301a4.617 4.617 0 0 0-2.211-.603 4.56 4.56 0 0 0-3.853 1.961 4.644 4.644 0 0 0-.826 2.559c-.01.616.104 1.228.337 1.799a4.625 4.625 0 0 0 1.634 2.049c.75.528 1.642.816 2.559.828a4.525 4.525 0 0 0 1.792-.338 4.53 4.53 0 0 0 2.052-1.631c.285-.401.499-.847.632-1.32l6.461.109c.047.188.108.371.183.549.06.148.126.293.202.433l-2.38 2.302a4.562 4.562 0 0 0-2.211-.604 4.679 4.679 0 0 0-1.799.338 4.59 4.59 0 0 0-2.072 1.662 4.593 4.593 0 0 0-.47 4.33 4.61 4.61 0 0 0 4.413 2.882 4.595 4.595 0 0 0 4.121-6.323 5.356 5.356 0 0 0-.239-.509l2.342-2.265a4.61 4.61 0 0 0 2.279.645 4.49 4.49 0 0 0 1.795-.338 4.626 4.626 0 0 0 2.072-1.662 4.623 4.623 0 0 0 .812-2.528 4.636 4.636 0 0 0-.362-1.819Zm-12.788-7.838a2.147 2.147 0 0 1 1.776-1.264 2.1 2.1 0 0 1 1.034.18 2.104 2.104 0 0 1 1.262 1.971 2.12 2.12 0 0 1-2.154 2.086 2.228 2.228 0 0 1-.82-.178 2.176 2.176 0 0 1-.925-.79 2.142 2.142 0 0 1-.158-2.026l-.015.021Zm-4.851 10.164a2.13 2.13 0 0 1-.796.931c-.351.224-.761.34-1.178.335a2.25 2.25 0 0 1-.821-.179 2.108 2.108 0 0 1-.924-.791 2.037 2.037 0 0 1-.338-1.19 2.116 2.116 0 0 1 .959-1.739 2.06 2.06 0 0 1 1.195-.338c.283.002.562.062.82.179a2.111 2.111 0 0 1 1.263 1.975c-.004.282-.065.56-.18.817Zm6.581 8.702a2.13 2.13 0 0 1-2.796 1.085 2.195 2.195 0 0 1-.925-.787 2.122 2.122 0 0 1 1.816-3.278c.284.002.563.064.82.179a2.108 2.108 0 0 1 1.264 1.975 2.1 2.1 0 0 1-.193.826h.014Zm8.729-8.438a2.12 2.12 0 0 1-1.975 1.262 2.117 2.117 0 0 1-2.083-2.161 2.107 2.107 0 0 1 2.154-2.077 2.112 2.112 0 0 1 1.904 2.965v.011Z"/><path fill="#6A52DE" stroke="#000" stroke-miterlimit="10" stroke-width="1.5" d="m142.206 61.613 7.605-3.748a27.501 27.501 0 0 0 15.405-24.824l-.082-22.47-23.175-9.352-.374-.007-23.158 9.483.081 22.471a27.935 27.935 0 0 0 5.104 15.917 26.53 26.53 0 0 0 10.504 8.858l7.716 3.67.374.002Z"/><path fill="#000" d="M137.701 40.685a1.605 1.605 0 0 1-1.247-.526l-6.411-6.288a1.773 1.773 0 0 1 .047-2.51 1.775 1.775 0 0 1 2.51.047l5.077 5.135 13.184-13.564a1.781 1.781 0 0 1 3.078 1.157 1.78 1.78 0 0 1-.48 1.275l-14.468 14.796a1.667 1.667 0 0 1-1.264.478h-.026Z"/></svg>
