<svg width="18" height="18" viewBox="0 0 18 18" xmlns="http://www.w3.org/2000/svg"><path d="M1.174 16.61c.288.287.647.43 1.04.43.396 0 .755-.143 1.042-.43L9 10.867l5.744 5.743c.287.287.646.43 1.04.43.395 0 .754-.143 1.042-.43.574-.574.574-1.507 0-2.082l-5.744-5.743 5.744-5.744c.574-.573.574-1.507 0-2.08-.575-.575-1.508-.575-2.082 0L9 6.702 3.256.96C2.682.384 1.75.384 1.174.96c-.574.573-.574 1.507 0 2.08l5.744 5.745-5.744 5.743c-.574.575-.574 1.508 0 2.082z" fill-rule="nonzero" fill="#FFF"/></svg>
