<svg xmlns="http://www.w3.org/2000/svg" width="126" height="42" fill="none" viewBox="0 0 126 42">
  <path fill="#fff" d="M50.4208 12.5632h11.3103v3.0489h-8.0863v4.1526h8.0863v2.9963h-8.0863v6.6233h-3.224V12.5632Zm15.1685-1.1564c1.1099 0 1.9027.7885 1.9027 1.8924 0 1.1038-.7399 1.8923-1.9027 1.8923-1.1627 0-1.9026-.7885-1.9026-1.8398 0-1.0513.8456-1.9449 1.9026-1.9449Zm-1.5855 5.572h3.2239v12.458h-3.2239v-12.458Zm12.473 3.4693c-.3699-.3154-1.0041-.5782-1.5327-.5782-1.3213 0-2.0612.841-2.0612 2.6283v6.8861h-3.1711V16.9262h3.0125v1.7872c.6343-1.4192 1.6385-1.8923 3.0126-1.8923 1.3742 0 1.5327.2102 2.1141.6308l-1.3742 2.9436v.0526Zm1.3213 2.8385c0-3.5744 2.6426-6.5707 6.448-6.5707 3.8053 0 6.4479 2.6283 6.4479 6.3605v1.3141h-9.7247c.3699 1.577 1.5855 2.6283 3.4353 2.6283 1.8499 0 2.4841-.6833 3.1183-1.8398l2.6426 1.577c-1.3213 1.9449-3.224 2.9437-5.8666 2.9437-4.0696 0-6.5008-2.6809-6.5008-6.4131Zm3.1712-1.4192h6.6065c-.37-1.577-1.6385-2.4706-3.3297-2.4706-1.6913 0-2.8012.841-3.224 2.4706h-.0528Zm10.4647-4.8886h2.2726v-.6308c0-3.3642 1.427-4.7835 4.5981-4.7835h1.1099v2.7334h-.8985c-1.4798 0-1.7969.5257-1.7969 2.0501v.6308h2.6954v2.8385H96.772v9.567h-3.0654v-9.567H91.434v-2.8385Zm8.562 6.2027c0-3.5745 2.748-6.4656 6.554-6.4656 3.805 0 6.553 2.8911 6.553 6.4656 0 3.5745-2.907 6.4656-6.553 6.4656-3.647 0-6.554-2.8386-6.554-6.4656Zm9.989 0c0-1.9975-1.48-3.5219-3.435-3.5219-1.956 0-3.436 1.5244-3.436 3.5219s1.48 3.5219 3.436 3.5219c1.955 0 3.435-1.5244 3.435-3.5219Zm7.399-.1577-4.545-6.0976h3.752l2.643 3.8373 2.748-3.8373h3.7l-4.598 6.0451 4.809 6.3604h-3.752l-3.013-4.0476-2.906 4.0476h-3.753l4.81-6.3604.105.0525Z"/>
  <path fill="url(#a)" d="M39.2155 14.0859c-.8891-2.1293-2.6674-4.42229-4.0947-5.14764 1.0062 1.94204 1.7081 4.02454 2.0591 6.17714v.0234c-2.293-5.73257-6.2005-8.049-9.3827-13.07963-.1638-.25738-.3276-.51476-.468-.77214-.0936-.16379-.1638-.30418-.234-.421172-.1403-.257381-.2339-.53816-.3041-.7955411 0-.0233983-.0234-.0467966-.0468-.0467966h-.0702V.00012207C21.5732 2.9951 19.8418 8.54049 19.678 11.3015c-2.0357.1404-4.0011.8891-5.5922 2.1526-.1638-.1404-.351-.2808-.5148-.3977-.4679-1.6145-.4913-3.34599-.0468-4.98387-1.8718.91253-3.5565 2.19947-4.8902 3.79047-.79554-1.0295-.74874-4.39883-.70195-5.10078-.23398.0936-.46796.21059-.67855.35098-.70194.51476-1.38049 1.07632-1.98885 1.70807-.70195.70195-1.3337 1.47413-1.89526 2.29303-1.3571 1.8719-2.29303 3.9777-2.784394 6.1771l-.023398.1404c-.046797.1872-.187186 1.0764-.210585 1.2635v.0468c-.187186.936-.280779 1.8719-.3275755 2.8078v.0936C.0234375 32.8981 9.14876 42 20.4033 41.9766c9.8975 0 18.3677-7.1365 20.0524-16.8935.0234-.2574.0701-.5148.0935-.7956.3978-3.4395-.0467-6.9493-1.3337-10.2016ZM15.7471 30.0201l.2808.1404h.0234c-.0936-.0234-.2106-.0936-.3042-.1404Z"/>
  <path fill="url(#b)" d="M39.2155 14.0858c-.8891-2.1293-2.6674-4.42228-4.0947-5.14763 1.0061 1.94203 1.7081 4.02453 2.0591 6.17713v.0468c1.5676 4.4925 1.3337 9.4061-.6318 13.7348-2.3398 5.0072-7.9788 10.1314-16.8234 9.8975-9.5465-.2808-17.96983-7.3471-19.537514-16.6362-.2807791-1.4741 0-2.1994.14039-3.3928C.14039 19.678.0233983 20.6373 0 21.5732v.0936c0 11.2546 9.12533 20.3565 20.3799 20.3331 9.8975 0 18.3676-7.1364 20.0523-16.8935.0234-.2574.0702-.5148.0936-.7956.4212-3.4629-.0234-6.9727-1.3103-10.225Z"/>
  <path fill="url(#c)" d="M39.2155 14.0858c-.8891-2.1293-2.6674-4.42228-4.0947-5.14763 1.0061 1.94203 1.7081 4.02453 2.0591 6.17713v.0468c1.5676 4.4925 1.3337 9.4061-.6318 13.7348-2.3398 5.0072-7.9788 10.1314-16.8234 9.8975-9.5465-.2808-17.96983-7.3471-19.537514-16.6362-.2807791-1.4741 0-2.1994.14039-3.3928C.14039 19.678.0233983 20.6373 0 21.5732v.0936c0 11.2546 9.12533 20.3565 20.3799 20.3331 9.8975 0 18.3676-7.1364 20.0523-16.8935.0234-.2574.0702-.5148.0936-.7956.4212-3.4629-.0234-6.9727-1.3103-10.225Z"/>
  <path fill="url(#d)" d="M29.3181 16.4959c.0468.0234.0936.0702.117.0936-.5148-.9126-1.1466-1.7315-1.8953-2.4569C21.2223 7.8151 25.8785.421247 26.6741.046875 21.5732 2.99506 19.8418 8.54045 19.678 11.3014c.234-.0234.4679-.0468.7253-.0468 3.697.0234 7.0897 2.0123 8.9148 5.2413Z"/>
  <path fill="url(#e)" d="M20.4267 17.7593c-.0234.5148-1.8251 2.2463-2.4569 2.2463-5.7793 0-6.7387 3.5097-6.7387 3.5097.2574 2.9482 2.3165 5.3816 4.7967 6.6685.117.0702.234.117.351.1638.2105.0936.3977.1638.6083.234.8424.3042 1.7549.468 2.644.5148 10.1549.4679 12.1203-12.1438 4.7967-15.7939 1.7314-.234 3.4863.2106 4.9136 1.1933-1.8251-3.2055-5.2178-5.1944-8.9147-5.2178-.234 0-.468.0234-.7254.0468-2.0356.1404-4.0011.8891-5.5922 2.1527.3042.2573.6552.6083 1.4039 1.3337 1.3571 1.3571 4.8903 2.761 4.9137 2.9481Z"/>
  <path fill="url(#f)" d="M20.4267 17.7593c-.0234.5148-1.8251 2.2463-2.4569 2.2463-5.7793 0-6.7387 3.5097-6.7387 3.5097.2574 2.9482 2.3165 5.3816 4.7967 6.6685.117.0702.234.117.351.1638.2105.0936.3977.1638.6083.234.8424.3042 1.7549.468 2.644.5148 10.1549.4679 12.1203-12.1438 4.7967-15.7939 1.7314-.234 3.4863.2106 4.9136 1.1933-1.8251-3.2055-5.2178-5.1944-8.9147-5.2178-.234 0-.468.0234-.7254.0468-2.0356.1404-4.0011.8891-5.5922 2.1527.3042.2573.6552.6083 1.4039 1.3337 1.3571 1.3571 4.8903 2.761 4.9137 2.9481Z"/>
  <path fill="url(#g)" d="M13.1264 12.7988c.1638.0936.3042.1872.4212.2808-.468-1.6145-.4914-3.34596-.0468-4.98384-1.8719.91254-3.55656 2.19944-4.89027 3.79054.0936 0 3.04177-.0468 4.51587.9125Z"/>
  <path fill="url(#h)" d="M.210461 22.1348C1.77815 31.4239 10.2015 38.5136 19.748 38.771c8.8446.2574 14.4836-4.8903 16.8234-9.8975 1.9654-4.3287 2.1994-9.2423.6317-13.7348v-.0468.0234c.7254 4.7265-1.6846 9.2891-5.4284 12.3777v.0234c-7.3002 5.9432-14.2963 3.58-15.7002 2.6206-.0936-.0468-.1872-.0936-.3042-.1404-4.2585-2.0356-6.01334-5.9197-5.639-9.2423-2.05902.0234-3.95428-1.1699-4.82001-3.0418 2.26963-1.4039 5.10081-1.4975 7.48741-.3041 2.4101 1.0997 5.1477 1.1933 7.6513.3041 0-.1638-3.5566-1.5676-4.9371-2.9247-.7487-.7254-1.0997-1.0764-1.4039-1.3337-.1638-.1404-.3509-.2808-.5147-.3978-.117-.0936-.2574-.1638-.4212-.2808-1.4741-.9593-4.44567-.9125-4.53926-.9125-.79554-1.0296-.74875-4.39891-.70195-5.10085-.23398.09359-.46796.21058-.67855.35097-.70195.51476-1.3805 1.07632-1.98885 1.70807-.70195.70195-1.3337 1.47411-1.91866 2.26961-1.3337 1.8953-2.26963 4.0011-2.760997 6.2006 0 .0468-.725346 3.2055-.374372 4.8434Z"/>
  <path fill="url(#i)" d="M27.5632 14.1091c.7487.7253 1.3805 1.5677 1.8952 2.4802.117.0936.2106.1638.3042.2574 4.6095 4.2585 2.1994 10.2718 2.0123 10.693 3.7437-3.0886 6.1537-7.6512 5.4284-12.3777-2.2931-5.73258-6.2006-8.04901-9.3828-13.10303-.1637-.25739-.3275-.51477-.4679-.77215-.0936-.16379-.1638-.304175-.234-.421167-.1404-.257381-.234-.53816-.3042-.795541 0-.0233983-.0234-.0467966-.0468-.0467966h-.0702C25.9019.397688 21.2222 7.79154 27.5632 14.1091Z"/>
  <path fill="url(#j)" d="M29.7626 16.8234c-.0935-.0702-.1871-.1638-.3041-.2573-.0468-.0234-.0936-.0702-.117-.0936-1.4273-.9828-3.1822-1.4273-4.9137-1.1934 7.3237 3.6502 5.3582 16.2618-4.7966 15.7939-.9125-.0468-1.8017-.2106-2.644-.5148-.2106-.0702-.3978-.1638-.6084-.234-.117-.0468-.2339-.0936-.3509-.1638h.0234c1.4039.9594 8.3999 3.3226 15.7002-2.6206v-.0234c.2106-.4211 2.6206-6.4345-1.9889-10.693Z"/>
  <path fill="url(#k)" d="M11.2311 23.4919s.9359-3.5098 6.7387-3.5098c.6317 0 2.41-1.7549 2.4568-2.2462-2.4802.9125-5.2412.7955-7.6512-.3042-2.3866-1.2167-5.21783-1.0997-7.48747.3042.86574 1.8718 2.761 3.0652 4.82007 3.0418-.3744 3.3225 1.3805 7.2066 5.639 9.2423.0936.0468.1871.0936.2807.1404-2.4802-1.2869-4.5392-3.7204-4.7966-6.6685Z"/>
  <path fill="url(#l)" d="M39.2155 14.0859c-.8891-2.1293-2.6674-4.42229-4.0947-5.14764 1.0062 1.94204 1.7081 4.02454 2.0591 6.17714v.0234c-2.293-5.73257-6.2005-8.049-9.3827-13.07963-.1638-.25738-.3276-.51476-.468-.77214-.0936-.16379-.1638-.30418-.234-.421172-.1403-.257381-.2339-.53816-.3041-.7955411 0-.0233983-.0234-.0467966-.0468-.0467966h-.0702V.00012207C21.5732 2.9951 19.8418 8.54049 19.678 11.3015c.234-.0234.468-.0468.7253-.0468 3.697 0 7.0897 1.9888 8.9148 5.2178-1.4273-.9827-3.1822-1.4273-4.9137-1.1933 7.3237 3.6501 5.3582 16.2618-4.7966 15.7938-.9125-.0468-1.8017-.2106-2.644-.5147-.2106-.0702-.3978-.1638-.6084-.234-.117-.0468-.2339-.0936-.3509-.1638h.0234c-.0936-.0468-.1872-.0936-.3042-.1404l.2808.1404c-2.4569-1.2869-4.5159-3.7203-4.7733-6.6685 0 0 .9359-3.5098 6.7387-3.5098.6318 0 2.41-1.7548 2.4568-2.2462 0-.1638-3.5565-1.5677-4.937-2.9248-.7487-.7253-1.0997-1.0763-1.4039-1.3337-.1638-.1404-.351-.2808-.5148-.3977-.4679-1.6145-.4913-3.346-.0468-4.98388-1.8718.91254-3.5565 2.19948-4.8902 3.79048-.79554-1.0295-.74874-4.39883-.70195-5.10078-.23398.09359-.46796.21059-.67855.35098-.70194.51476-1.38049 1.07632-1.98885 1.70807-.70195.70195-1.3337 1.47413-1.89526 2.29303-1.3571 1.8485-2.29303 3.9543-2.784394 6.1537l-.023398.1404c-.046797.1872-.210585 1.0998-.233983 1.2869 0-.0234 0 .0234 0 0-.163788.936-.257381 1.8953-.3041775 2.8312v.0936C.0234375 32.8981 9.14876 42 20.4033 41.9766c9.8975 0 18.3677-7.1365 20.0524-16.8935.0234-.2574.0701-.5148.0935-.7956.3978-3.4395-.0467-6.9493-1.3337-10.2016Z"/>
  <defs>
    <radialGradient id="b" cx="0" cy="0" r="1" gradientTransform="matrix(42.4392 0 0 42.4391 34.9598 4.66165)" gradientUnits="userSpaceOnUse">
      <stop offset=".129" stop-color="#FFBD4F"/>
      <stop offset=".186" stop-color="#FFAC31"/>
      <stop offset=".247" stop-color="#FF9D17"/>
      <stop offset=".283" stop-color="#FF980E"/>
      <stop offset=".403" stop-color="#FF563B"/>
      <stop offset=".467" stop-color="#FF3750"/>
      <stop offset=".71" stop-color="#F5156C"/>
      <stop offset=".782" stop-color="#EB0878"/>
      <stop offset=".86" stop-color="#E50080"/>
    </radialGradient>
    <radialGradient id="c" cx="0" cy="0" r="1" gradientTransform="matrix(42.4392 0 0 42.4391 19.4522 22.012)" gradientUnits="userSpaceOnUse">
      <stop offset=".3" stop-color="#960E18"/>
      <stop offset=".351" stop-color="#B11927" stop-opacity=".74"/>
      <stop offset=".435" stop-color="#DB293D" stop-opacity=".343"/>
      <stop offset=".497" stop-color="#F5334B" stop-opacity=".094"/>
      <stop offset=".53" stop-color="#FF3750" stop-opacity="0"/>
    </radialGradient>
    <radialGradient id="d" cx="0" cy="0" r="1" gradientTransform="translate(24.5689 -4.96929) scale(30.7442)" gradientUnits="userSpaceOnUse">
      <stop offset=".132" stop-color="#FFF44F"/>
      <stop offset=".252" stop-color="#FFDC3E"/>
      <stop offset=".506" stop-color="#FF9D12"/>
      <stop offset=".526" stop-color="#FF980E"/>
    </radialGradient>
    <radialGradient id="e" cx="0" cy="0" r="1" gradientTransform="matrix(20.2072 0 0 20.2071 14.7579 33.0974)" gradientUnits="userSpaceOnUse">
      <stop offset=".353" stop-color="#3A8EE6"/>
      <stop offset=".472" stop-color="#5C79F0"/>
      <stop offset=".669" stop-color="#9059FF"/>
      <stop offset="1" stop-color="#C139E6"/>
    </radialGradient>
    <radialGradient id="f" cx="0" cy="0" r="1" gradientTransform="matrix(10.41367 -2.51772 2.94762 12.19184 21.7711 18.5338)" gradientUnits="userSpaceOnUse">
      <stop offset=".206" stop-color="#9059FF" stop-opacity="0"/>
      <stop offset=".278" stop-color="#8C4FF3" stop-opacity=".064"/>
      <stop offset=".747" stop-color="#7716A8" stop-opacity=".45"/>
      <stop offset=".975" stop-color="#6E008B" stop-opacity=".6"/>
    </radialGradient>
    <radialGradient id="g" cx="0" cy="0" r="1" gradientTransform="translate(18.9163 2.92521) scale(14.537)" gradientUnits="userSpaceOnUse">
      <stop stop-color="#FFE226"/>
      <stop offset=".121" stop-color="#FFDB27"/>
      <stop offset=".295" stop-color="#FFC82A"/>
      <stop offset=".502" stop-color="#FFA930"/>
      <stop offset=".732" stop-color="#FF7E37"/>
      <stop offset=".792" stop-color="#FF7139"/>
    </radialGradient>
    <radialGradient id="h" cx="0" cy="0" r="1" gradientTransform="translate(30.3427 -6.29531) scale(62.0228)" gradientUnits="userSpaceOnUse">
      <stop offset=".113" stop-color="#FFF44F"/>
      <stop offset=".456" stop-color="#FF980E"/>
      <stop offset=".622" stop-color="#FF5634"/>
      <stop offset=".716" stop-color="#FF3647"/>
      <stop offset=".904" stop-color="#E31587"/>
    </radialGradient>
    <radialGradient id="i" cx="0" cy="0" r="1" gradientTransform="matrix(4.7706 45.20698 -29.66896 3.1309 25.1154 -2.84654)" gradientUnits="userSpaceOnUse">
      <stop stop-color="#FFF44F"/>
      <stop offset=".06" stop-color="#FFE847"/>
      <stop offset=".168" stop-color="#FFC830"/>
      <stop offset=".304" stop-color="#FF980E"/>
      <stop offset=".356" stop-color="#FF8B16"/>
      <stop offset=".455" stop-color="#FF672A"/>
      <stop offset=".57" stop-color="#FF3647"/>
      <stop offset=".737" stop-color="#E31587"/>
    </radialGradient>
    <radialGradient id="j" cx="0" cy="0" r="1" gradientTransform="translate(18.574 8.3099) scale(38.7219)" gradientUnits="userSpaceOnUse">
      <stop offset=".137" stop-color="#FFF44F"/>
      <stop offset=".48" stop-color="#FF980E"/>
      <stop offset=".592" stop-color="#FF5634"/>
      <stop offset=".655" stop-color="#FF3647"/>
      <stop offset=".904" stop-color="#E31587"/>
    </radialGradient>
    <radialGradient id="k" cx="0" cy="0" r="1" gradientTransform="translate(28.7954 10.5759) scale(42.3808)" gradientUnits="userSpaceOnUse">
      <stop offset=".094" stop-color="#FFF44F"/>
      <stop offset=".231" stop-color="#FFE141"/>
      <stop offset=".509" stop-color="#FFAF1E"/>
      <stop offset=".626" stop-color="#FF980E"/>
    </radialGradient>
    <linearGradient id="a" x1="36.5187" x2="2.72425" y1="6.50475" y2="39.11" gradientUnits="userSpaceOnUse">
      <stop offset=".048" stop-color="#FFF44F"/>
      <stop offset=".111" stop-color="#FFE847"/>
      <stop offset=".225" stop-color="#FFC830"/>
      <stop offset=".368" stop-color="#FF980E"/>
      <stop offset=".401" stop-color="#FF8B16"/>
      <stop offset=".462" stop-color="#FF672A"/>
      <stop offset=".534" stop-color="#FF3647"/>
      <stop offset=".705" stop-color="#E31587"/>
    </linearGradient>
    <linearGradient id="l" x1="36.1131" x2="7.35744" y1="6.33085" y2="35.086" gradientUnits="userSpaceOnUse">
      <stop offset=".167" stop-color="#FFF44F" stop-opacity=".8"/>
      <stop offset=".266" stop-color="#FFF44F" stop-opacity=".634"/>
      <stop offset=".489" stop-color="#FFF44F" stop-opacity=".217"/>
      <stop offset=".6" stop-color="#FFF44F" stop-opacity="0"/>
    </linearGradient>
  </defs>
</svg>
