<svg xmlns="http://www.w3.org/2000/svg" width="305" height="214" fill="none" viewBox="0 0 305 214">
  <path fill="#fff" d="M55 196h123v11H55z"/>
  <path fill="#fff" d="M9 200.456v3.063c.00089.905.36127 1.773 1.0019 2.414.6406.639 1.509.998 2.4145.998H116.142"/>
  <path stroke="#000" stroke-miterlimit="10" stroke-width="1.5" d="M9 200.456v3.063c.00089.905.36127 1.773 1.0019 2.414.6406.639 1.509.998 2.4145.998H116.142"/>
  <path fill="#fff" stroke="#000" stroke-miterlimit="10" stroke-width="1.5" d="M260.44 30.3629H194.8c-4.834 0-8.752 3.9184-8.752 8.7521v107.942c0 4.834 3.918 8.752 8.752 8.752h65.64c4.834 0 8.752-3.918 8.752-8.752V39.115c0-4.8337-3.918-8.7521-8.752-8.7521Z"/>
  <path fill="#B3FFE3" stroke="#000" stroke-miterlimit="10" stroke-width="1.5" d="M269.192 39.115h-83.144v107.942h83.144V39.115Z"/>
  <path fill="#000" d="M239.515 78.2107c-.336-.8263-.903-1.5379-1.634-2.0491-.751-.5262-1.643-.8145-2.559-.8272-.616-.0062-1.227.1084-1.799.3376-.828.3365-1.539.9037-2.052 1.6339-.281.404-.492.8509-.628 1.3234l-6.465-.1046c-.042-.1897-.1-.375-.176-.5536-.068-.1744-.15-.3427-.247-.503l2.363-2.272c.606.3605 1.287.5771 1.99.633.703.0559 1.41-.0505 2.064-.311.655-.2603 1.241-.6678 1.715-1.1908.473-.5231.817-1.1478 1.01-1.8258.194-.6781.229-1.3914.102-2.0848-.126-.6936-.411-1.3488-.831-1.915-.419-.5663-.964-1.0285-1.59-1.351-.628-.3224-1.32-.4966-2.025-.509-.605-.0116-1.205.0962-1.768.3174-.562.2211-1.075.551-1.51.971-.435.4199-.783.9217-1.024 1.4763-.24.5545-.368 1.1511-.377 1.7556-.01.6164.105 1.2285.338 1.7993.064.1485.131.2971.205.4321l-2.382 2.3057c-.674-.3867-1.435-.5947-2.212-.6043-.604-.0116-1.205.0962-1.767.3173-.563.2212-1.076.5513-1.511.9713-.433.4199-.78.9216-1.021 1.4763-.24.5546-.368 1.1512-.377 1.7553-.009.6165.106 1.2285.338 1.7993.336.8264.902 1.538 1.633 2.0492.496.3478 1.055.5942 1.647.7252.591.1309 1.202.1437 1.798.0377.596-.1061 1.165-.329 1.675-.6556.509-.3267.949-.751 1.295-1.2484.285-.3992.5-.8445.635-1.3165l6.458.1046c.05.1879.111.3728.181.5537.066.1452.132.2937.207.4287l-2.363 2.3057c-.675-.386-1.438-.5939-2.214-.6043-.616-.0058-1.229.1089-1.801.3376-.838.3393-1.557.9177-2.069 1.6634-.511.7455-.792 1.6253-.806 2.5293-.011.6164.104 1.2284.338 1.7994.336.8252.903 1.5363 1.633 2.0491.75.5272 1.642.8157 2.558.8275.754.0131 1.498-.1606 2.169-.5033.67-.3433 1.245-.8465 1.673-1.4652.532-.7491.822-1.6412.835-2.5589.007-.6141-.107-1.2236-.339-1.7926-.074-.1721-.151-.3375-.238-.5063l2.342-2.2687c.69.4119 1.479.6344 2.283.6449 1.219.0171 2.397-.4494 3.273-1.2978.877-.8483 1.382-2.0094 1.404-3.2292-.002-.6235-.132-1.2399-.377-1.8128Zm-12.788-7.8387c.167-.3741.438-.6928.78-.9182.356-.2296.772-.3473 1.195-.3376.283.0033.563.0641.821.179.381.1681.705.4454.93.7967.224.3513.339.7612.332 1.1782-.005.3499-.096.6934-.266.9994-.17.3061-.414.5654-.707.7546-.295.1892-.632.3026-.981.3298-.35.0275-.7-.0321-1.021-.1732-.377-.1666-.699-.4399-.924-.7865-.231-.3548-.35-.7717-.338-1.195.001-.2853.063-.5671.179-.8272Zm-4.854 10.1681c-.166.3748-.437.6935-.779.9181-.298.195-.639.3124-.992.3412-.354.0289-.709-.0316-1.034-.1758-.379-.1674-.701-.4405-.928-.7865-.23-.3542-.348-.7695-.339-1.1917.006-.2836.066-.5635.179-.8237.171-.3731.441-.6912.784-.9183.296-.1949.638-.3122.992-.3411.353-.029.709.0315 1.034.1757.382.1674.706.4443.932.7957.224.3514.34.7617.333 1.1792-.003.2853-.066.5667-.182.8272Zm6.582 8.6993c-.155.3478-.402.6472-.713.8669-.31.2198-.676.3518-1.054.3821-.38.0304-.761-.0419-1.104-.2094-.342-.1675-.633-.4239-.842-.7424-.194-.2973-.31-.6385-.338-.9924-.028-.3541.034-.7093.179-1.0332.167-.3818.444-.7058.795-.9311.35-.2252.76-.3417 1.176-.3348.284.0037.563.0657.822.1823.514.2278.917.6502 1.121 1.1748.204.5245.192 1.1084-.034 1.6238l-.008.0134Zm8.731-8.4394c-.112.2552-.273.4859-.474.6787-.202.1927-.438.3438-.698.4445-.26.1008-.537.1491-.816.1423-.278-.0068-.554-.0687-.808-.1819-.378-.1665-.7-.4399-.924-.7865-.192-.2982-.309-.6393-.336-.9928-.027-.3535.034-.7085.176-1.0327.167-.3752.438-.6949.781-.9217.321-.2115.696-.3309 1.08-.3457.385-.0147.767.0759 1.104.262.338.1862.617.4609.811.7945.192.3336.289.7135.283 1.0987-.003.285-.064.5664-.179.827V80.8Z"/>
  <path fill="#fff" d="M189.802 175.928c.638 0 1.269-.125 1.858-.369.588-.244 1.124-.602 1.574-1.052.45-.452.807-.987 1.051-1.576.244-.589.369-1.219.368-1.858V82.0772c0-1.2874-.51-2.5221-1.422-3.4325-.91-.9105-2.145-1.4218-3.432-1.4218H41.6375c-1.2874 0-2.5221.5113-3.4325 1.4218-.9103.9104-1.4218 2.1451-1.4218 3.4325v88.9958c0 .639.1256 1.269.3696 1.859.2438.589.6014 1.124 1.0522 1.575.4507.45.9858.808 1.5749 1.052.589.244 1.2202.369 1.8576.369"/>
  <path stroke="#000" stroke-miterlimit="10" stroke-width="1.5" d="M189.802 175.928c.638 0 1.269-.125 1.858-.369.588-.244 1.124-.602 1.574-1.052.45-.452.807-.987 1.051-1.576.244-.589.369-1.219.368-1.858V82.0772c0-1.2874-.51-2.5221-1.422-3.4325-.91-.9105-2.145-1.4218-3.432-1.4218H41.6375c-1.2874 0-2.5221.5113-3.4325 1.4218-.9103.9104-1.4218 2.1451-1.4218 3.4325v88.9958c0 .639.1256 1.269.3696 1.859.2438.589.6014 1.124 1.0522 1.575.4507.45.9858.808 1.5749 1.052.589.244 1.2202.369 1.8576.369"/>
  <path fill="#fff" d="M112.043 202.664h107.78c.536.001 1.06-.165 1.5-.474.438-.309.771-.745.953-1.252.181-.505.202-1.053.06-1.572-.143-.518-.441-.979-.857-1.319l-26.105-21.525c-.466-.385-1.052-.595-1.658-.594H37.717c-.6058-.001-1.1928.209-1.6608.594L9.95451 198.047c-.41457.34-.71359.801-.85616 1.319-.14257.519-.12174 1.067.05968 1.572.1814.507.51447.943.95377 1.252.4392.309.9633.475 1.5003.474H119.392"/>
  <path fill="#fff" d="M222.433 200.457v3.062c0 .905-.359 1.773-1 2.413-.64.641-1.508 1-2.413 1H115.295"/>
  <path stroke="#000" stroke-miterlimit="10" stroke-width="1.5" d="M222.433 200.457v3.062c0 .905-.359 1.773-1 2.413-.64.641-1.508 1-2.413 1H115.295"/>
  <path stroke="#000" stroke-miterlimit="10" stroke-width="1.5" d="M112.043 202.664h107.78c.536.001 1.06-.165 1.5-.474.438-.309.771-.745.953-1.252.181-.505.202-1.053.06-1.572-.143-.518-.441-.979-.857-1.319l-26.105-21.525c-.466-.385-1.052-.595-1.658-.594H37.717c-.6058-.001-1.1928.209-1.6608.594L9.95451 198.047c-.41457.34-.71359.801-.85616 1.319-.14257.519-.12174 1.067.05968 1.572.1814.507.51447.943.95377 1.252.4392.309.9633.475 1.5003.474H119.392"/>
  <path stroke="#000" stroke-linecap="round" stroke-linejoin="round" stroke-width="1.5" d="M115.862 193.276h73.386l-11.946-13.367H54.1315l-11.947 13.367h73.6775Z"/>
  <path fill="#fff" stroke="#000" stroke-linecap="round" stroke-linejoin="round" stroke-width="1.5" d="M186.048 83.4377H45.2969v86.9173H186.048V83.4377Z"/>
  <path fill="#000" d="M132.259 124.15c-.477-1.129-1.275-2.091-2.296-2.769-1.021-.676-2.218-1.036-3.443-1.036-1.022-.005-2.029.243-2.931.72-.902.478-1.672 1.173-2.241 2.021-.371.554-.648 1.163-.82 1.807h-8.777c-.061-.255-.145-.504-.25-.743-.092-.235-.205-.461-.338-.675l3.129-3.13c.945.542 2.015.824 3.103.821.833.003 1.658-.166 2.423-.493 1.327-.558 2.42-1.558 3.093-2.829.674-1.273.885-2.739.6-4.149-.286-1.411-1.051-2.679-2.166-3.589-1.115-.911-2.511-1.406-3.95-1.404-.819-.002-1.63.157-2.387.469-.757.312-1.445.772-2.025 1.35-.579.579-1.038 1.267-1.351 2.022-.313.758-.474 1.568-.472 2.388-.002.834.166 1.662.493 2.43.084.198.18.391.286.578l-3.173 3.176c-.922-.508-1.958-.773-3.011-.77-1.022-.005-2.028.243-2.931.72-.902.478-1.672 1.173-2.241 2.021-.6906 1.032-1.0607 2.243-1.0632 3.485-.0026.835.165 1.661.4932 2.43.472 1.113 1.256 2.066 2.258 2.742 1.028.696 2.242 1.066 3.484 1.062 1.019-.001 2.023-.253 2.922-.732.9-.479 1.669-1.171 2.239-2.016.38-.547.661-1.155.831-1.799h8.757c.069.254.155.502.26.743.085.199.181.392.287.581l-3.177 3.172c-.921-.506-1.956-.771-3.008-.768-.834 0-1.66.163-2.43.483-1.128.476-2.09 1.275-2.767 2.296-.677 1.019-1.038 2.218-1.038 3.442-.002.834.166 1.66.493 2.427.474 1.112 1.256 2.064 2.255 2.744.939.629 2.031.992 3.16 1.05 1.129.057 2.252-.192 3.25-.723.998-.532 1.833-1.323 2.417-2.291.583-.968.892-2.077.895-3.207-.002-.833-.17-1.656-.493-2.424-.104-.232-.216-.466-.337-.675l3.122-3.122c.946.54 2.017.822 3.106.819.832.003 1.656-.164 2.421-.492 1.129-.476 2.093-1.275 2.772-2.295.678-1.021 1.041-2.219 1.043-3.445.003-.83-.159-1.655-.476-2.423Zm-17.497-10.336c.218-.513.579-.951 1.039-1.264.396-.268.853-.432 1.329-.479.475-.046.955.027 1.396.213.52.219.965.587 1.277 1.058.312.472.479 1.024.478 1.589-.002.761-.305 1.492-.843 2.031-.538.54-1.268.845-2.03.848-.382-.002-.761-.079-1.114-.226-.517-.218-.959-.581-1.273-1.047-.319-.474-.487-1.034-.482-1.606 0-.384.077-.765.226-1.117h-.003Zm-6.347 13.881c-.201.477-.528.891-.945 1.199-.418.307-.91.495-1.426.546-.516.05-1.036-.042-1.505-.262-.469-.222-.868-.567-1.157-.998-.321-.475-.49-1.036-.486-1.609-.002-.383.075-.763.226-1.114.217-.512.577-.95 1.036-1.264.395-.269.852-.434 1.328-.481.476-.047.956.026 1.397.212.521.218.966.587 1.279 1.056.313.472.48 1.025.479 1.591.003.386-.074.768-.226 1.124Zm9.115 11.639c-.146.348-.36.664-.629.929-.268.265-.586.476-.936.618-.349.142-.723.214-1.101.211-.377-.002-.75-.078-1.098-.225-.514-.222-.954-.585-1.269-1.046-.266-.398-.428-.854-.473-1.33-.046-.476.027-.955.212-1.395.22-.52.588-.964 1.059-1.278.471-.312 1.023-.477 1.588-.477.383-.003.763.074 1.114.225.522.218.967.587 1.28 1.058.312.471.478 1.025.475 1.59.001.385-.077.766-.229 1.12h.007Zm11.64-11.639c-.201.477-.528.891-.946 1.199-.417.307-.91.495-1.426.546-.516.05-1.036-.042-1.504-.262-.469-.222-.869-.567-1.158-.998-.263-.398-.424-.854-.47-1.329-.045-.475.027-.954.21-1.394.218-.513.579-.952 1.04-1.264.472-.325 1.033-.498 1.607-.496.384-.001.764.076 1.117.227.521.22.965.588 1.278 1.058.312.471.478 1.023.478 1.589 0 .386-.079.768-.233 1.124h.007Z"/>
  <path fill="#fff" stroke="#000" stroke-miterlimit="10" stroke-width="1.5" d="M296.431 200.555v-85.408c0-1.709-.679-3.348-1.888-4.557-1.209-1.209-2.847-1.888-4.557-1.888h-41.587c-1.709.001-3.347.68-4.556 1.889s-1.888 2.847-1.889 4.556v85.408c0 .847.167 1.684.491 2.466.324.782.799 1.493 1.397 2.091.599.598 1.309 1.073 2.091 1.397.782.324 1.62.491 2.466.491h41.593c1.709-.003 3.346-.681 4.553-1.89 1.207-1.209 1.886-2.846 1.886-4.555Z"/>
  <path fill="#B3FFE3" stroke="#000" stroke-miterlimit="10" stroke-width="1.5" d="M288.953 113.261H249.43c-1.611 0-2.917 1.306-2.917 2.918v83.345c0 1.611 1.306 2.917 2.917 2.917h39.523c1.611 0 2.917-1.306 2.917-2.917v-83.345c0-1.612-1.306-2.918-2.917-2.918Z"/>
  <path fill="#000" d="M281.088 148.898c-.338-.839-.916-1.56-1.661-2.071-.747-.512-1.627-.793-2.532-.808-.616-.006-1.227.109-1.799.338-.825.337-1.536.904-2.049 1.634-.281.404-.492.85-.628 1.323l-6.465-.105c-.044-.189-.103-.375-.178-.553-.066-.174-.148-.342-.247-.5l2.364-2.272c.691.409 1.475.631 2.278.641.752.011 1.496-.162 2.166-.504.669-.342 1.246-.842 1.679-1.457.528-.753.818-1.646.834-2.565.011-.753-.162-1.497-.505-2.167-.343-.67-.845-1.245-1.463-1.675-.752-.525-1.643-.813-2.558-.827-.616-.006-1.229.109-1.8.338-.826.336-1.537.903-2.05 1.633-.525.752-.812 1.643-.826 2.558-.013.618.101 1.23.336 1.801.06.147.128.291.204.432l-2.363 2.301c-.675-.384-1.436-.592-2.211-.603-.755-.017-1.501.154-2.172.496-.673.342-1.25.846-1.681 1.465-.522.753-.809 1.643-.826 2.559-.01.616.104 1.228.337 1.799.335.826.903 1.537 1.634 2.049.75.527 1.643.816 2.559.828.615.01 1.224-.105 1.792-.338.831-.331 1.543-.897 2.053-1.631.284-.401.498-.847.631-1.32l6.461.109c.047.188.108.37.183.549.06.148.126.293.202.432l-2.38 2.303c-.673-.386-1.434-.594-2.211-.604-.616-.007-1.227.108-1.799.338-.839.338-1.56.916-2.072 1.662-.512.745-.794 1.625-.808 2.53-.009.616.106 1.228.338 1.8.337.826.904 1.539 1.633 2.052.814.569 1.789.86 2.78.83.992-.03 1.947-.38 2.723-.998.777-.618 1.333-1.47 1.585-2.43.252-.959.186-1.975-.187-2.895-.071-.174-.15-.344-.239-.509l2.342-2.265c.691.41 1.477.631 2.279.645.615.011 1.226-.104 1.795-.339.838-.339 1.559-.916 2.072-1.661.512-.745.794-1.624.812-2.528.003-.624-.12-1.244-.362-1.82ZM268.3 141.06c.167-.375.44-.697.784-.921.297-.196.638-.313.992-.342.355-.029.71.034 1.034.18.381.167.705.443.929.794.225.351.341.761.333 1.177 0 .285-.061.567-.179.827-.167.377-.44.697-.786.921-.354.23-.767.347-1.189.338-.282-.008-.56-.068-.82-.179-.377-.169-.698-.443-.925-.789-.192-.299-.307-.64-.335-.994-.027-.354.033-.707.177-1.032l-.015.02Zm-4.851 10.165c-.168.381-.445.705-.796.931-.351.224-.761.34-1.178.335-.283-.008-.561-.068-.821-.179-.378-.167-.701-.442-.924-.791-.234-.352-.351-.769-.338-1.19.003-.284.063-.563.179-.822.166-.374.437-.693.78-.917.354-.233.772-.352 1.195-.338.283.002.563.062.82.178.382.169.706.446.931.797.224.351.34.762.332 1.179-.004.281-.065.56-.18.817Zm6.581 8.702c-.228.514-.65.916-1.175 1.12-.523.202-1.107.191-1.621-.035-.376-.17-.697-.443-.925-.787-.21-.323-.327-.698-.34-1.081-.013-.386.078-.767.265-1.104.186-.336.461-.616.793-.809.335-.192.713-.291 1.098-.284.284.002.563.063.82.178.383.167.706.446.931.797.225.351.341.761.333 1.179-.008.285-.073.567-.193.826h.014Zm8.73-8.439c-.169.382-.447.704-.798.929-.351.224-.761.34-1.178.334-.348-.005-.689-.097-.993-.265-.304-.169-.563-.409-.752-.701-.23-.355-.347-.772-.338-1.195.005-.283.066-.561.18-.821.166-.375.437-.694.783-.918.353-.231.769-.348 1.191-.338.283.003.563.064.821.179.379.167.7.44.924.787.23.353.348.768.338 1.188-.004.28-.064.556-.178.811v.01Z"/>
  <path fill="#53FFBC" d="m149.706 67.4007 7.604-3.7477c4.64-2.273 8.546-5.807 11.271-10.1974 2.725-4.3903 4.158-9.4594 4.134-14.6264l-.081-22.4707-23.175-9.35145L149.085 7l-23.158 9.4832.081 22.4707c.036 5.7019 1.817 11.2563 5.103 15.9166 2.663 3.8239 6.286 6.8792 10.505 8.8584l7.716 3.6692.374.0026Z"/>
  <path fill="#000" d="M145.201 46.4728c-.234.0081-.466-.0347-.681-.1255-.215-.0908-.408-.2273-.565-.4002l-6.412-6.2881c-.326-.3391-.505-.7941-.496-1.2649.009-.4708.204-.9188.543-1.2454.339-.3267.795-.5052 1.265-.4964.471.0088.919.2043 1.246.5434l5.076 5.1352 13.185-13.5647c.322-.3445.769-.5468 1.24-.5624.472-.0155.93.157 1.275.4795.344.3226.546.7687.562 1.2403.016.4717-.157.9303-.479 1.2748l-14.469 14.7964c-.165.1634-.363.2906-.581.373-.218.0823-.45.1184-.683.1054l-.026-.0004Z"/>
  <path stroke="#fff" stroke-linecap="round" stroke-miterlimit="10" stroke-width="1.6" d="M32.3232 50v8.643"/>
  <path stroke="#fff" stroke-linecap="round" stroke-miterlimit="10" stroke-width="1.6" d="M27.9999 54.318h8.6502"/>
  <path stroke="#fff" stroke-miterlimit="10" stroke-width="1.6" d="M23.0573 74.0209c.5168-2.1943-.8414-4.393-3.035-4.9108-2.1956-.518-4.3932.8409-4.9119 3.0353-.5188 2.1944.8413 4.3936 3.0349 4.9116 2.1956.518 4.3932-.8417 4.912-3.0361Z"/>
  <path stroke="#fff" stroke-linecap="round" stroke-miterlimit="10" stroke-width="1.6" d="M285.323 19v8.643"/>
  <path stroke="#fff" stroke-linecap="round" stroke-miterlimit="10" stroke-width="1.6" d="M281 23.318h8.65"/>
</svg>
