<svg xmlns="http://www.w3.org/2000/svg" width="305" height="214" fill="none" viewBox="0 0 305 214">
  <path fill="#fff" d="m152.43 207.156 25.208-12.454c15.326-7.573 28.213-19.301 37.196-33.845 8.981-14.545 13.693-31.321 13.599-48.416l-.363-68.7411c-.01-1.6147-.499-3.1901-1.408-4.5251-.908-1.3351-2.194-2.3693-3.692-2.9703L151.365 7.41699h-1.035L79.0136 36.9806c-1.4914.6181-2.7649 1.6664-3.6579 3.0114-.8929 1.3448-1.3648 2.9251-1.3556 4.5395l.3633 68.7485c.0941 17.094 4.989 33.817 14.1265 48.264 9.1374 14.447 22.1501 26.036 37.5541 33.447l25.344 12.189 1.042-.024Z"/>
  <path fill="#53FFBC" stroke="#000" stroke-miterlimit="10" stroke-width="1.5" d="m153.412 186.757 20.129-9.947c12.237-6.046 22.529-15.411 29.701-27.026 7.171-11.615 10.932-25.01 10.857-38.66l-.315-59.2507-60.845-24.4845c-.249-.1002-.515-.1517-.784-.1517-.275 0-.549.0544-.803.16l-60.5894 25.123.314 59.2559c.0749 13.652 3.9831 27.006 11.2794 38.543 7.296 11.538 17.686 20.794 29.987 26.714l20.238 9.731.831-.007Z"/>
  <path fill="#fff" stroke="#000" stroke-miterlimit="10" stroke-width="1.5" d="M152.432 64.6798c-10.865 0-19.672 8.8072-19.672 19.6714v20.2438h8.112V84.3512c0-6.3738 5.185-11.5594 11.56-11.5594 6.374 0 11.56 5.1856 11.56 11.5594v20.2438h8.112V84.3512c0-10.6961-8.639-19.6714-19.672-19.6714Z"/>
  <path fill="#fff" stroke="#000" stroke-width="1.5" d="M173.889 94.3783h-42.92c-3.95 0-7.153 3.2026-7.153 7.1537v29.507c0 3.951 3.203 7.153 7.153 7.153h42.92c3.951 0 7.154-3.202 7.154-7.153v-29.507c0-3.9511-3.203-7.1537-7.154-7.1537Z"/>
  <path fill="#53FFBC" stroke="#000" stroke-miterlimit="10" stroke-width="1.5" d="M158.606 112.169c-.001 1.043-.266 2.068-.771 2.981-.505.914-1.233 1.683-2.116 2.239v4.373c-.027.857-.386 1.668-1.002 2.263s-1.438.929-2.295.929c-.855 0-1.678-.334-2.294-.929-.615-.595-.974-1.406-1.004-2.263v-4.373c-.904-.575-1.645-1.375-2.148-2.323-.503-.947-.749-2.011-.716-3.082.034-1.074.345-2.117.906-3.033.559-.914 1.348-1.668 2.289-2.185.938-.517 1.997-.781 3.07-.765 1.072.016 2.122.312 3.046.857.923.545 1.689 1.322 2.221 2.253.532.932.813 1.986.814 3.058Z"/>
  <path stroke="#fff" stroke-miterlimit="10" stroke-width="1.6" d="M249.907 30.8255c.517-2.1944-.842-4.393-3.035-4.9108-2.196-.518-4.393.8409-4.912 3.0353-.519 2.1943.841 4.3936 3.035 4.9116 2.195.518 4.393-.8417 4.912-3.0361Z"/>
  <path stroke="#fff" stroke-linecap="round" stroke-miterlimit="10" stroke-width="1.6" d="M227.323 10v8.643"/>
  <path stroke="#fff" stroke-linecap="round" stroke-miterlimit="10" stroke-width="1.6" d="M223 14.318h8.65"/>
</svg>
