<svg width="390" height="114" viewBox="0 0 390 114" fill="none" xmlns="http://www.w3.org/2000/svg"><path fill="#FFD25E" d="M195.001 0h97.5v113.425h-97.5z"/><path fill="#00B269" d="M292.5 81.25v32.175H195V81.25z"/><path d="m195.001 81.25 46.227-31.85 51.273.013-45.6 31.838h-51.9Z" fill="#00256D"/><path d="M292.501 49.413v-.535C292.501 21.883 270.639 0 243.67 0c-26.969 0-48.669 21.883-48.669 48.878v.522l97.5.013Z" fill="#4ABEFF"/><path fill="#1CB0A8" d="M292.5 0H390v113.425h-97.5z"/><path fill="#DAB5FF" d="M390 81.25v32.175h-97.5V81.25z"/><path d="m292.5 81.25 46.227-31.85 51.273.013-45.6 31.838h-51.9Z" fill="#00256D"/><path d="m389.999 49.413.001-.535C390 21.883 368.137 0 341.169 0 314.2 0 292.5 21.883 292.5 48.878v.522l97.499.013ZM.002 0h97.5v113.425H.002z" fill="#9AE2DE"/><path fill="#8546D0" d="M97.5 81.25v32.175H0V81.25z"/><path d="M0 81.25 46.227 49.4l51.273.013-45.6 31.838H0Z" fill="#00256D"/><path d="M97.5 49.413v-.535C97.5 21.883 75.638 0 48.67 0 21.7 0 0 21.883 0 48.878v.522l97.5.013Z" fill="#1CB0A8"/><path d="M97.5 0H195v113.425H97.5V0Z" fill="#DAB5FF"/><path d="M97.5 49.196C97.5 22.104 119.29 0 146.169 0 173.048 0 195 22.104 195 49.196V63.7H97.5V49.196Z" fill="#F67D6D"/><path d="M195.001 64.221c0 27.074-21.953 49.205-48.832 49.205S97.5 91.295 97.5 64.221v-14.82h97.501v14.82Z" fill="#007069"/></svg>
