<svg xmlns="http://www.w3.org/2000/svg" width="100%" height="100%" viewBox="0 0 100% 100%">
  <defs>
    <clipPath id="pixel01" clipPathUnits="objectBoundingBox">
      <polygon points="0 .6, .25 .6, .25 1, 0 1"/>
      <polygon points=".8 0, .8 .5, .5 .5, .5 1, 1 1, 1 0"/>
    </clipPath>

    <clipPath id="pixel02" clipPathUnits="objectBoundingBox">
      <polygon points=".15 .6, .15 .15, 0 .15, 0 1, .4 1, .4 .6"/>
      <polygon points="1 .4, .8 .4, .8 1, 1 1"/>
    </clipPath>

    <clipPath id="pixel03" clipPathUnits="objectBoundingBox">
      <polygon points=".1 1, .1 .6, .3 .6, .3 .3, .6 .3, .6 .8, .8 .8, .8 1"/>
      <polygon points=".02 0, .04 0, .04 .4, .02 .4"/>
    </clipPath>
  </defs>
</svg>
