<svg xmlns="http://www.w3.org/2000/svg" x="0" y="0" version="1.1" width="131" height="138" viewBox="0 0 131 138" xml:space="preserve">
  <style>
    .st2{fill:#9f9fad}.st5{fill:#fff}
  </style>
  <path fill="#efeff4" d="M129.5 22H1.5c-.8 0-1.5.7-1.5 1.5v97c0 .8.7 1.5 1.5 1.5h128c.8 0 1.5-.7 1.5-1.5v-97c0-.8-.7-1.5-1.5-1.5z"/>
  <path fill="#80808e" d="M130.9 31.9v-8.6c0-.2 0-.3-.1-.5s-.2-.3-.3-.4c-.1-.1-.3-.2-.4-.3-.2-.1-.3-.1-.5-.1H1.3c-.4 0-.7.1-.9.4s-.4.6-.4.9v8.6h130.9z"/>
  <path d="M0 29.5h130.9v14.3H0V29.5z" class="st2"/>
  <path fill="#d6d6d8" d="M14 34h104v6H14v-6z"/>
  <path d="M14 23.7h22v4H14v-4z" class="st2"/>
  <path fill="#e3e3e5" d="M.1 63.3H131v58.2H.1V63.3z"/>
  <g>
    <path d="M13.5 55.3l.3-1.8H12v-1.2c0-.1 0-.3.1-.4 0-.1.1-.2.2-.3.1-.1.2-.2.3-.2.1 0 .3-.1.4 0h.8v-1.5c-.5-.1-.9-.1-1.4-.1-.3 0-.6 0-1 .1-.3.1-.6.3-.8.5-.2.2-.4.5-.5.8-.1.3-.1.6-.1 1v1.4H8.5v1.8h1.6v4.4c.7.1 1.3.1 2 0v-4.4h1.4z" class="st5"/>
    <path fill="#1877f2" d="M17.3 53.5c0-1.2-.3-2.4-1-3.4-.6-1-1.6-1.8-2.7-2.3-1.1-.5-2.3-.7-3.5-.5-1.1.1-2.2.6-3.1 1.4-.9.8-1.6 1.8-1.9 3S4.7 54 5 55.2c.3 1.2 1 2.2 1.9 3 .9.8 2 1.3 3.2 1.5v-4.4H8.5v-1.8h1.6v-1.4c0-.3 0-.6.1-1 .1-.3.3-.6.5-.8.2-.2.5-.4.8-.5.3-.1.6-.2 1-.1.5 0 .9.1 1.4.2v1.5h-1.3c-.1 0-.3.1-.4.2-.1.1-.2.2-.2.3v1.6h1.7l-.3 1.8H12v4.4c1.5-.2 2.8-1 3.8-2.1s1.5-2.6 1.5-4.1z"/>
  </g>
  <g>
    <path d="M65.5 111.8C81.2 111.8 94 99 94 83.3S81.2 54.8 65.5 54.8 37 67.6 37 83.3c0 15.8 12.8 28.5 28.5 28.5z" class="st5"/>
    <path fill="#fa7050" d="M77.9 70.9l-2 2.1v4.1h-4.1V73l-2.1-2.1-2.1 2.1v4.1h-4.1V73l-2.1-2.1-2.1 2.1v4.1h-4.1V73l-2.1-2.1-2 2.1v22.7h4.1v-4.1h4.1v4.1h4.1v-4.1h4.1v4.1h4.1v-4.1h4.1v4.1H80V73l-2.1-2.1zM59.3 89.5h-4.1V79.2h4.1v10.3zm8.3 0h-4.2V79.2h4.2v10.3zm8.2 0h-4.1V79.2h4.1v10.3z"/>
  </g>
</svg>
