<svg xmlns="http://www.w3.org/2000/svg" x="0" y="0" version="1.1" width="143" height="138" viewBox="0 0 143 138" xml:space="preserve">
  <style>
    .st2{fill:#9f9fad}
  </style>
  <path fill="#efeff4" d="M129.4 19.3H1.7c-.9 0-1.6.7-1.6 1.6v96.8c0 .9.7 1.6 1.6 1.6h127.8c.9 0 1.6-.7 1.6-1.6V21c0-.9-.8-1.7-1.7-1.7z"/>
  <path fill="#80808e" d="M131.1 29.3v-8.6c0-.2 0-.3-.1-.5s-.2-.3-.3-.4c-.1-.1-.3-.2-.4-.3-.2-.1-.3-.1-.5-.1H1.4c-.7 0-1.3.6-1.3 1.3v8.6h131z"/>
  <path d="M0 27h131v14.3H0V27z" class="st2"/>
  <path fill="#d5d5db" d="M14 31h104v6H14v-6z"/>
  <path d="M14 21h22v4H14v-4z" class="st2"/>
  <g>
    <path fill="#0090ed" d="M140.9 78.6H70c-1.2 0-2.2 1-2.2 2.2v44.1c0 1.2 1 2.2 2.2 2.2h70.9c1.2 0 2.2-1 2.2-2.2V80.8c0-1.2-1-2.2-2.2-2.2z"/>
    <path fill="#fff" d="M114.4 102.8l-14.3-8.2V111l14.3-8.2z"/>
  </g>
</svg>
