<svg width="326" height="192" fill="none" xmlns="http://www.w3.org/2000/svg"><g clip-path="url(#a)"><path d="M172.572 32.7c.904.991.082 2.571-1.249 2.402l-34.258-4.362c-9.767-1.244-15.312-11.832-10.771-20.568 4.54-8.737 16.392-10.283 23.022-3.004l23.256 25.531Z" stroke="#333336" stroke-width="2.5"/><path d="M214 100.75a7.25 7.25 0 0 0-7.25 7.25v73a7.25 7.25 0 0 0 7.25 7.25h96a7.25 7.25 0 0 0 7.25-7.25v-73a7.25 7.25 0 0 0-7.25-7.25h-96Z" fill="#80EBFF" stroke="#333336" stroke-width="2.5"/><path d="M166.035 32.7c-.903.991-.082 2.571 1.249 2.402l34.259-4.362c9.767-1.244 15.311-11.832 10.771-20.568-4.541-8.737-16.393-10.283-23.023-3.004l-23.256 25.531ZM270.569 83.683c.5.548.045 1.423-.691 1.33l-26.061-3.32c-7.223-.919-11.324-8.75-7.965-15.21 3.358-6.461 12.123-7.605 17.026-2.222l17.691 19.422Z" stroke="#333336" stroke-width="2.5"/><path d="M266.038 83.683c-.5.548-.045 1.423.691 1.33l26.061-3.32c7.223-.919 11.324-8.75 7.966-15.21-3.358-6.461-12.123-7.605-17.027-2.222l-17.691 19.422Z" stroke="#333336" stroke-width="2.5"/><path fill="#0DF" d="M316 108h-88v20h88z"/><path d="M194 109.25h-1.25V90a7.25 7.25 0 0 1 7.25-7.25h115a7.25 7.25 0 0 1 7.25 7.25v19.25H194Z" fill="#ABF2FF" stroke="#333336" stroke-width="2.5"/><path d="M112 55.75h-1.25V181a7.25 7.25 0 0 0 7.25 7.25h102a7.25 7.25 0 0 0 7.25-7.25V55.75H112Z" fill="#FFB4DC" stroke="#333336" stroke-width="2.5"/><path fill="#FF8AC6" d="M226 56h-45v20h45zM112 56h69v20h-69z"/><path fill="#FFEA80" stroke="#333336" stroke-width="2.5" d="M155.75 54.75h26.5v133.5h-26.5z"/><path fill="#FFD567" d="M157 56h24v20h-24z"/><path d="M106 57.25h-1.25V38a7.25 7.25 0 0 1 7.25-7.25h115a7.25 7.25 0 0 1 7.25 7.25v19.25H106Z" fill="#FFB4DC" stroke="#333336" stroke-width="2.5"/><path fill="#FFEA80" stroke="#333336" stroke-width="2.5" d="M155.75 57.25h26.5v-26.5h-26.5z"/><path d="M11 47.75A7.25 7.25 0 0 0 3.75 55v126a7.25 7.25 0 0 0 7.25 7.25h112a7.25 7.25 0 0 0 7.25-7.25V55a7.25 7.25 0 0 0-7.25-7.25H11Z" fill="#fff" stroke="#333336" stroke-width="2.5"/><path d="M16.627 167.889c-.056-.622-.507-.993-1.33-.993-.818 0-1.227.345-1.231.823-.018.52.485.784 1.278.954l.75.171c1.722.379 2.663 1.231 2.672 2.625-.009 1.657-1.296 2.642-3.469 2.642-2.195 0-3.614-.976-3.64-3.017h2.02c.048.839.661 1.274 1.595 1.274.848 0 1.346-.371 1.355-.904-.009-.49-.44-.75-1.398-.971l-.912-.213c-1.508-.345-2.438-1.091-2.433-2.416-.013-1.624 1.423-2.711 3.417-2.711 2.029 0 3.329 1.104 3.346 2.736h-2.02Zm6.06 6.235c-2.071 0-3.307-1.377-3.307-3.375 0-2.008 1.244-3.38 3.302-3.38 1.82 0 2.996 1.049 3.043 2.659h-1.948c-.08-.669-.468-1.073-1.065-1.073-.729 0-1.21.617-1.21 1.772 0 1.164.477 1.782 1.21 1.782.571 0 .989-.38 1.066-1.074h1.947c-.055 1.619-1.198 2.689-3.038 2.689Zm5.75-.013c-1.253 0-2.152-.631-2.152-1.926 0-1.449 1.107-1.939 2.433-2.05 1.116-.098 1.55-.183 1.55-.584v-.021c0-.439-.323-.686-.834-.686-.55 0-.895.255-.985.673l-1.922-.068c.167-1.193 1.164-2.08 2.924-2.08 1.666 0 2.898.797 2.898 2.182V174h-1.96v-.912h-.052c-.358.669-.988 1.023-1.9 1.023Zm.643-1.364c.665 0 1.202-.435 1.202-1.074v-.622c-.235.124-.712.209-1.1.264-.592.09-.924.346-.924.767 0 .435.34.665.822.665Zm6.426-2.48V174h-2.083v-6.545h1.981v1.201h.073c.29-.797 1.022-1.287 1.99-1.287 1.376 0 2.275.985 2.271 2.459V174h-2.084v-3.763c.004-.724-.388-1.159-1.048-1.159s-1.095.443-1.1 1.189Zm7.406 0V174h-2.084v-6.545h1.982v1.201h.072c.29-.797 1.023-1.287 1.99-1.287 1.377 0 2.276.985 2.271 2.459V174H45.06v-3.763c.004-.724-.388-1.159-1.049-1.159-.66 0-1.095.443-1.1 1.189Zm8.381 3.857c-2.058 0-3.31-1.275-3.31-3.371 0-2.029 1.269-3.384 3.246-3.384 1.858 0 3.17 1.185 3.17 3.341v.52h-4.363v.056c0 .801.494 1.333 1.296 1.333.545 0 .971-.234 1.133-.669l1.913.056c-.238 1.287-1.367 2.118-3.085 2.118Zm-1.257-4.104h2.425c-.009-.669-.503-1.146-1.19-1.146-.69 0-1.205.494-1.235 1.146Zm5.228 3.98v-6.545h2.024v1.193h.068c.239-.865.81-1.283 1.526-1.283.192 0 .409.03.584.077v1.811c-.2-.068-.571-.111-.819-.111-.745 0-1.3.524-1.3 1.304V174h-2.083Zm9.313-8.727V174h-2.084v-8.727h2.084Zm4.186 8.851c-2.059 0-3.311-1.275-3.311-3.371 0-2.029 1.27-3.384 3.247-3.384 1.858 0 3.17 1.185 3.17 3.341v.52h-4.363v.056c0 .801.494 1.333 1.295 1.333.546 0 .972-.234 1.134-.669l1.913.056c-.239 1.287-1.368 2.118-3.085 2.118Zm-1.257-4.104h2.424c-.008-.669-.503-1.146-1.189-1.146-.69 0-1.206.494-1.235 1.146Zm15.843-.384c0 1.53-.516 2.698-1.347 3.461l1.287 1.585H81.38l-.677-.814c-.47.166-.98.251-1.522.251-2.352 0-4.163-1.61-4.163-4.483 0-2.885 1.811-4.483 4.163-4.483 2.344 0 4.168 1.598 4.168 4.483Zm-4.9 1.228h1.704l.537.686c.328-.443.503-1.087.503-1.914 0-1.708-.75-2.633-2.012-2.633-1.257 0-2.011.925-2.011 2.633 0 1.709.754 2.634 2.011 2.634.107 0 .213-.009.316-.021l-1.049-1.385ZM84.391 174v-8.727h3.605c1.96 0 3.183 1.112 3.183 2.906 0 1.206-.554 2.062-1.512 2.497l1.81 3.324h-2.3l-1.594-2.987H86.5V174h-2.109Zm2.11-4.649h1.04c.945 0 1.452-.362 1.452-1.172 0-.81-.507-1.206-1.453-1.206h-1.04v2.378Zm11.069 4.773c-2.071 0-3.307-1.377-3.307-3.375 0-2.008 1.245-3.38 3.303-3.38 1.82 0 2.995 1.049 3.042 2.659h-1.947c-.081-.669-.469-1.073-1.066-1.073-.728 0-1.21.617-1.21 1.772 0 1.164.478 1.782 1.21 1.782.572 0 .99-.38 1.066-1.074h1.947c-.055 1.619-1.197 2.689-3.038 2.689Zm6.96 0c-2.058 0-3.307-1.36-3.307-3.375 0-2.02 1.249-3.38 3.307-3.38s3.307 1.36 3.307 3.38c0 2.015-1.249 3.375-3.307 3.375Zm.013-1.573c.746 0 1.172-.733 1.172-1.815 0-1.087-.426-1.824-1.172-1.824-.771 0-1.198.737-1.198 1.824 0 1.082.427 1.815 1.198 1.815Zm6.552 1.543c-1.445 0-2.616-1.134-2.616-3.362 0-2.31 1.24-3.363 2.608-3.363 1.031 0 1.602.605 1.849 1.206h.043v-3.302h2.083V174h-2.062v-1.061h-.064c-.264.605-.852 1.155-1.841 1.155Zm.724-1.624c.759 0 1.206-.682 1.206-1.743 0-1.069-.443-1.73-1.206-1.73-.775 0-1.201.678-1.201 1.73 0 1.057.43 1.743 1.201 1.743Zm7.421 1.654c-2.058 0-3.311-1.275-3.311-3.371 0-2.029 1.27-3.384 3.247-3.384 1.858 0 3.17 1.185 3.17 3.341v.52h-4.363v.056c0 .801.494 1.333 1.295 1.333.546 0 .972-.234 1.134-.669l1.913.056c-.239 1.287-1.368 2.118-3.085 2.118Zm-1.257-4.104h2.424c-.008-.669-.502-1.146-1.188-1.146-.691 0-1.206.494-1.236 1.146Z" fill="#333336"/><g clip-path="url(#b)"><path d="M21 62h92v92H21V62Z" fill="#fff"/><path d="M21 63.586h22.207Zm31.724 0h6.345Zm15.862 0h15.862Zm22.207 0H113ZM21 66.76h3.172Zm19.035 0h3.172Zm15.862 0h6.344Zm19.034 0h3.172Zm9.517 0h3.173Zm6.345 0h3.172Zm19.035 0H113ZM21 69.93h3.172Zm6.345 0h9.517Zm12.69 0h3.172Zm6.344 0h9.518Zm19.035 0h3.172Zm6.345 0h3.172Zm12.69 0h3.172Zm6.344 0h3.172Zm6.345 0h9.517Zm12.69 0H113ZM21 73.104h3.172Zm6.345 0h9.517Zm12.69 0h3.172Zm6.344 0h6.345Zm9.518 0h6.344Zm15.862 0h12.69Zm19.034 0h3.172Zm6.345 0h9.517Zm12.69 0H113ZM21 76.276h3.172Zm6.345 0h9.517Zm12.69 0h3.172Zm6.344 0h3.173Zm15.862 0h9.518Zm19.035 0h6.345Zm9.517 0h3.172Zm6.345 0h9.517Zm12.69 0H113ZM21 79.448h3.172Zm19.035 0h3.172Zm6.344 0h3.173Zm9.518 0h3.172Zm6.344 0h12.69Zm15.862 0h3.173Zm6.345 0h3.173Zm6.345 0h3.172Zm19.035 0H113ZM21 82.621h22.207Zm25.38 0h3.172Zm6.344 0h3.173Zm6.345 0h3.172Zm6.345 0h3.172Zm6.345 0h3.172Zm6.344 0h3.173Zm6.345 0h3.173Zm6.345 0H113ZM46.38 85.793h3.173Zm9.518 0h9.517Zm12.69 0h3.172Zm12.689 0h6.345ZM21 88.966h3.172Zm6.345 0h15.862Zm25.38 0h3.172Zm6.344 0h3.172Zm6.345 0h6.345Zm9.517 0h9.517Zm15.862 0h15.862ZM21 92.138h6.345Zm12.69 0h3.172Zm15.862 0h6.345Zm9.517 0h3.172Zm9.517 0h6.345Zm12.69 0h19.034Zm28.552 0H113ZM33.69 95.311h3.172Zm6.345 0h3.172Zm9.517 0h3.172Zm25.379 0h3.172Zm9.517 0h6.345ZM21 98.483h3.172Zm12.69 0h6.345Zm9.517 0h6.345Zm9.517 0h9.517Zm12.69 0h3.172Zm6.345 0h3.172Zm9.517 0h3.172Zm12.69 0h3.172Zm6.344 0h3.173Zm6.345 0h3.173Zm-82.483 3.172h3.173Zm6.345 0h12.69Zm15.862 0h12.69Zm25.38 0h6.344Zm28.551 0h6.345Zm-69.793 3.173h3.173Zm6.345 0h3.172Zm9.517 0h3.173Zm9.518 0h15.862Zm25.379 0h12.69Zm15.862 0h3.172Zm12.69 0H113ZM21 108h9.517Zm12.69 0h12.69Zm15.862 0h3.172Zm6.345 0h3.172Zm6.344 0h15.862Zm34.897 0h9.517ZM21 111.173h3.172Zm6.345 0h3.172Zm6.345 0h6.345Zm9.517 0h6.345Zm15.862 0h6.345Zm9.517 0h3.173Zm9.517 0h12.69Zm19.035 0h3.172Zm9.517 0h3.173ZM21 114.345h3.172Zm6.345 0h6.345Zm9.517 0h6.345Zm9.517 0h6.345Zm9.518 0h3.172Zm9.517 0h6.345Zm9.517 0h9.517Zm19.035 0h3.172Zm6.344 0h6.345ZM21 117.517h6.345Zm12.69 0h6.345Zm19.034 0h6.345Zm15.862 0h6.345Zm12.69 0h3.172Zm6.345 0h12.689Zm15.862 0h3.172Zm6.345 0H113ZM21 120.69h3.172Zm15.862 0h9.517Zm12.69 0h12.69Zm25.379 0h3.172Zm12.69 0h6.345Zm9.517 0h3.172Zm6.345 0h3.172ZM21 123.862h3.172Zm6.345 0h6.345Zm22.207 0h9.517Zm15.862 0h3.172Zm6.345 0h3.172Zm6.344 0h3.173Zm6.345 0h9.518Zm12.69 0h3.172Zm9.517 0h3.173ZM21 127.035h3.172Zm6.345 0h19.034Zm22.207 0h6.345Zm9.517 0h3.172Zm15.862 0h6.345Zm9.517 0h15.862Zm19.035 0H113Zm-57.104 3.172h6.345Zm12.69 0h12.69Zm22.207 0h6.345Zm15.862 0H113ZM21 133.38h22.207Zm31.724 0h22.207Zm25.38 0h9.517Zm12.69 0h3.172Zm6.344 0h9.517ZM21 136.552h3.172Zm19.035 0h3.172Zm6.344 0h12.69Zm15.862 0h3.173Zm6.345 0h3.173Zm9.517 0h9.518Zm19.035 0h3.172Zm12.69 0H113ZM21 139.724h3.172Zm6.345 0h9.517Zm12.69 0h3.172Zm6.344 0h3.173Zm9.518 0h3.172Zm9.517 0h3.172Zm6.345 0h6.344Zm12.69 0h15.861Zm19.034 0h3.172Zm6.345 0H113ZM21 142.897h3.172Zm6.345 0h9.517Zm12.69 0h3.172Zm6.344 0h3.173Zm6.345 0h12.69Zm19.035 0h3.172Zm6.344 0h9.518Zm15.863 0h3.172Zm6.344 0h6.345ZM21 146.069h3.172Zm6.345 0h9.517Zm12.69 0h3.172Zm6.344 0h3.173Zm12.69 0h6.345Zm9.517 0h3.173Zm6.345 0h6.345Zm15.862 0h19.035ZM21 149.242h3.172Zm19.035 0h3.172Zm9.517 0h9.517Zm12.69 0h3.172Zm19.034 0h6.345Zm12.69 0h9.517Zm12.689 0h3.173ZM21 152.414h22.207Zm25.38 0h3.172Zm6.344 0h3.173Zm9.517 0h9.518Zm12.69 0h3.172Zm6.345 0h3.172Zm15.862 0h3.172Zm6.345 0h3.172Z" fill="#333336"/><path d="M21 63.586h22.207m9.517 0h6.345m9.517 0h15.862m6.345 0H113M21 66.76h3.172m15.863 0h3.172m12.69 0h6.344m12.69 0h3.172m6.345 0h3.173m3.172 0h3.172m15.863 0H113M21 69.93h3.172m3.173 0h9.517m3.172 0h3.173m3.172 0h9.518m9.517 0h3.172m3.173 0h3.172m9.517 0h3.173m3.172 0h3.172m3.173 0h9.517m3.173 0H113m-92 3.173h3.172m3.173 0h9.517m3.172 0h3.173m3.172 0h6.345m3.173 0h6.344m9.518 0h12.69m6.344 0h3.172m3.173 0h9.517m3.173 0H113m-92 3.172h3.172m3.173 0h9.517m3.172 0h3.173m3.172 0h3.173m12.69 0h9.517m9.517 0h6.345m3.172 0h3.172m3.173 0h9.517m3.173 0H113m-92 3.172h3.172m15.863 0h3.172m3.172 0h3.173m6.345 0h3.172m3.172 0h12.69m3.172 0h3.173m3.172 0h3.173m3.172 0h3.172m15.863 0H113m-92 3.173h22.207m3.172 0h3.173m3.172 0h3.173m3.172 0h3.172m3.173 0h3.172m3.173 0h3.172m3.172 0h3.173m3.172 0h3.173m3.172 0H113m-66.62 3.172h3.172m6.345 0h9.517m3.172 0h3.173m9.517 0h6.345M21 88.966h3.172m3.173 0h15.862m9.517 0h3.173m3.172 0h3.172m3.173 0h6.345m3.172 0h9.517m6.345 0h15.862M21 92.138h6.345m6.345 0h3.172m12.69 0h6.345m3.172 0h3.172m6.345 0h6.345m6.345 0h19.034m9.518 0H113m-79.31 3.173h3.172m3.172 0h3.173m6.345 0h3.172m22.207 0h3.172m6.345 0h6.345M21 98.483h3.172m9.518 0h6.345m3.172 0h6.345m3.172 0h9.517m3.173 0h3.172m3.173 0h3.172m6.345 0h3.172m9.518 0h3.172m3.172 0h3.173m3.172 0h3.173m-85.656 3.172h3.173m3.172 0h12.69m3.172 0h12.69m12.69 0h6.344m22.207 0h6.345m-76.138 3.173h3.173m3.172 0h3.172m6.345 0h3.173m6.345 0h15.862m9.517 0h12.69m3.172 0h3.172m9.518 0H113M21 108h9.517m3.173 0h12.69m3.172 0h3.172m3.173 0h3.172m3.172 0h15.862m19.035 0h9.517M21 111.173h3.172m3.173 0h3.172m3.173 0h6.345m3.172 0h6.345m9.517 0h6.345m3.172 0h3.173m6.344 0h12.69m6.345 0h3.172m6.345 0h3.173M21 114.345h3.172m3.173 0h6.345m3.172 0h6.345m3.172 0h6.345m3.173 0h3.172m6.345 0h6.345m3.172 0h9.517m9.518 0h3.172m3.172 0h6.345M21 117.517h6.345m6.345 0h6.345m12.69 0h6.344m9.517 0h6.345m6.345 0h3.172m3.173 0h12.689m3.173 0h3.172m3.173 0H113m-92 3.173h3.172m12.69 0h9.517m3.173 0h12.69m12.689 0h3.172m9.518 0h6.345m3.172 0h3.172m3.173 0h3.172M21 123.862h3.172m3.173 0h6.345m15.862 0h9.517m6.345 0h3.172m3.173 0h3.172m3.172 0h3.173m3.172 0h9.518m3.172 0h3.172m6.345 0h3.173M21 127.035h3.172m3.173 0h19.034m3.173 0h6.345m3.172 0h3.172m12.69 0h6.345m3.172 0h15.862m3.173 0H113m-66.62 3.172h6.344m6.345 0h12.69m9.517 0h6.345m9.517 0H113m-92 3.173h22.207m9.517 0h22.207m3.172 0h9.518m3.172 0h3.172m3.173 0h9.517M21 136.552h3.172m15.863 0h3.172m3.172 0h12.69m3.172 0h3.173m3.172 0h3.173m6.344 0h9.518m9.517 0h3.172m9.518 0H113m-92 3.172h3.172m3.173 0h9.517m3.172 0h3.173m3.172 0h3.173m6.345 0h3.172m6.345 0h3.172m3.173 0h6.344m6.345 0h15.862m3.173 0h3.172m3.173 0H113m-92 3.173h3.172m3.173 0h9.517m3.172 0h3.173m3.172 0h3.173m3.172 0h12.69m6.345 0h3.172m3.172 0h9.518m6.345 0h3.172m3.172 0h6.345M21 146.069h3.172m3.173 0h9.517m3.172 0h3.173m3.172 0h3.173m9.517 0h6.345m3.172 0h3.173m3.172 0h6.345m9.517 0h19.035M21 149.242h3.172m15.863 0h3.172m6.345 0h9.517m3.172 0h3.173m15.862 0h6.345m6.345 0h9.517m3.172 0h3.173M21 152.414h22.207m3.172 0h3.173m3.172 0h3.173m6.344 0h9.518m3.172 0h3.172m3.173 0h3.172m12.69 0h3.172m3.173 0h3.172" stroke="#333336" stroke-width="3.793"/></g></g><defs><clipPath id="a"><path fill="#fff" d="M0 0h326v192H0z"/></clipPath><clipPath id="b"><path fill="#fff" transform="translate(21 62)" d="M0 0h92v92H0z"/></clipPath></defs></svg>
