<svg xmlns="http://www.w3.org/2000/svg" width="326" height="192" fill="none" viewBox="0 0 326 192"><g clip-path="url(#a)"><mask id="b" width="326" height="192" x="0" y="0" maskUnits="userSpaceOnUse" style="mask-type:luminance"><path fill="#fff" d="M0 0h326v192H0V0Z"/></mask><g mask="url(#b)"><path stroke="#333336" stroke-width="2.5" d="M172.572 32.7c.904.991.082 2.571-1.249 2.402l-34.258-4.362c-9.767-1.244-15.312-11.832-10.771-20.568 4.54-8.737 16.392-10.283 23.022-3.004L172.572 32.7Z"/><path fill="#80EBFF" stroke="#333336" stroke-width="2.5" d="M214 100.75a7.254 7.254 0 0 0-5.127 2.123A7.254 7.254 0 0 0 206.75 108v73c0 1.923.764 3.767 2.123 5.127A7.254 7.254 0 0 0 214 188.25h96a7.254 7.254 0 0 0 5.127-2.123A7.254 7.254 0 0 0 317.25 181v-73a7.254 7.254 0 0 0-2.123-5.127A7.254 7.254 0 0 0 310 100.75h-96Z"/><path stroke="#333336" stroke-width="2.5" d="M166.035 32.7c-.903.991-.082 2.571 1.249 2.402l34.259-4.362c9.767-1.244 15.311-11.832 10.771-20.568-4.541-8.737-16.393-10.283-23.023-3.004L166.035 32.7Zm104.534 50.983c.5.548.045 1.423-.691 1.33l-26.061-3.32c-7.223-.919-11.324-8.75-7.965-15.21 3.358-6.461 12.123-7.605 17.026-2.222l17.691 19.422Z"/><path stroke="#333336" stroke-width="2.5" d="M266.038 83.683c-.5.548-.045 1.423.691 1.33l26.061-3.32c7.223-.919 11.324-8.75 7.966-15.21-3.358-6.461-12.123-7.605-17.027-2.222l-17.691 19.422Z"/><path fill="#0DF" d="M316 108h-88v20h88v-20Z"/><path fill="#ABF2FF" stroke="#333336" stroke-width="2.5" d="M194 109.25h-1.25V90a7.252 7.252 0 0 1 7.25-7.25h115a7.251 7.251 0 0 1 7.25 7.25v19.25H194Z"/><path fill="#FFB4DC" stroke="#333336" stroke-width="2.5" d="M112 55.75h-1.25V181c0 1.923.764 3.767 2.123 5.127A7.254 7.254 0 0 0 118 188.25h102a7.254 7.254 0 0 0 5.127-2.123A7.254 7.254 0 0 0 227.25 181V55.75H112Z"/><path fill="#FF8AC6" d="M226 56h-45v20h45V56Zm-114 0h69v20h-69V56Z"/><path fill="#FFEA80" stroke="#333336" stroke-width="2.5" d="M155.75 54.75h26.5v133.5h-26.5V54.75Z"/><path fill="#FFD567" d="M157 56h24v20h-24V56Z"/><path fill="#FFB4DC" stroke="#333336" stroke-width="2.5" d="M106 57.25h-1.25V38a7.252 7.252 0 0 1 7.25-7.25h115a7.251 7.251 0 0 1 7.25 7.25v19.25H106Z"/><path fill="#FFEA80" stroke="#333336" stroke-width="2.5" d="M155.75 57.25h26.5v-26.5h-26.5v26.5Z"/><path fill="#fff" stroke="#333336" stroke-width="2.5" d="M11 47.75A7.25 7.25 0 0 0 3.75 55v126a7.251 7.251 0 0 0 7.25 7.25h112a7.254 7.254 0 0 0 5.127-2.123A7.254 7.254 0 0 0 130.25 181V55a7.252 7.252 0 0 0-7.25-7.25H11Z"/><path fill="#333336" d="M16.627 167.889c-.056-.622-.507-.993-1.33-.993-.818 0-1.227.345-1.231.823-.018.52.485.784 1.278.954l.75.171c1.722.379 2.663 1.231 2.672 2.625-.009 1.657-1.296 2.642-3.469 2.642-2.195 0-3.614-.976-3.64-3.017h2.02c.048.839.661 1.274 1.595 1.274.848 0 1.346-.371 1.355-.904-.009-.49-.44-.75-1.398-.971l-.912-.213c-1.508-.345-2.438-1.091-2.433-2.416-.013-1.624 1.423-2.711 3.417-2.711 2.029 0 3.329 1.104 3.346 2.736h-2.02Zm6.06 6.235c-2.071 0-3.307-1.377-3.307-3.375 0-2.008 1.244-3.38 3.302-3.38 1.82 0 2.996 1.049 3.043 2.659h-1.948c-.08-.669-.468-1.073-1.065-1.073-.729 0-1.21.617-1.21 1.772 0 1.164.477 1.782 1.21 1.782.571 0 .989-.38 1.066-1.074h1.947c-.055 1.619-1.198 2.689-3.038 2.689Zm5.75-.013c-1.253 0-2.152-.631-2.152-1.926 0-1.449 1.107-1.939 2.433-2.05 1.116-.098 1.55-.183 1.55-.584v-.021c0-.439-.323-.686-.834-.686-.55 0-.895.255-.985.673l-1.922-.068c.167-1.193 1.164-2.08 2.924-2.08 1.666 0 2.898.797 2.898 2.182V174h-1.96v-.912h-.052c-.358.669-.988 1.023-1.9 1.023Zm.643-1.364c.665 0 1.202-.435 1.202-1.074v-.622c-.235.124-.712.209-1.1.264-.592.09-.924.346-.924.767 0 .435.34.665.822.665Zm6.426-2.48V174h-2.083v-6.545h1.981v1.201h.073c.29-.797 1.022-1.287 1.99-1.287 1.376 0 2.275.985 2.271 2.459V174h-2.084v-3.763c.004-.724-.388-1.159-1.048-1.159s-1.095.443-1.1 1.189Zm7.406 0V174h-2.084v-6.545h1.982v1.201h.072c.29-.797 1.023-1.287 1.99-1.287 1.377 0 2.276.985 2.271 2.459V174H45.06v-3.763c.004-.724-.388-1.159-1.049-1.159-.66 0-1.094.443-1.099 1.189Zm8.381 3.857c-2.058 0-3.31-1.275-3.31-3.371 0-2.029 1.269-3.384 3.246-3.384 1.858 0 3.17 1.185 3.17 3.341v.52h-4.363v.056c0 .801.494 1.333 1.296 1.333.545 0 .971-.234 1.133-.669l1.913.056c-.238 1.287-1.367 2.118-3.085 2.118Zm-1.257-4.104h2.425c-.009-.669-.503-1.146-1.19-1.146-.69 0-1.205.494-1.235 1.146Zm5.228 3.98v-6.545h2.024v1.193h.068c.239-.865.81-1.283 1.526-1.283.192 0 .409.03.584.077v1.811c-.2-.068-.571-.111-.819-.111-.745 0-1.3.524-1.3 1.304V174h-2.083Zm9.313-8.727V174h-2.084v-8.727h2.084Zm4.186 8.851c-2.059 0-3.311-1.275-3.311-3.371 0-2.029 1.27-3.384 3.247-3.384 1.858 0 3.17 1.185 3.17 3.341v.52h-4.363v.056c0 .801.494 1.333 1.295 1.333.546 0 .972-.234 1.134-.669l1.913.056c-.239 1.287-1.368 2.118-3.085 2.118Zm-1.257-4.104h2.424c-.008-.669-.503-1.146-1.189-1.146-.69 0-1.206.494-1.235 1.146Zm15.843-.384c0 1.53-.516 2.698-1.347 3.461l1.287 1.585H81.38l-.677-.814a4.55 4.55 0 0 1-1.522.251c-2.352 0-4.163-1.61-4.163-4.483 0-2.885 1.811-4.483 4.163-4.483 2.344 0 4.168 1.598 4.168 4.483Zm-4.9 1.228h1.704l.537.686c.328-.443.503-1.087.503-1.914 0-1.708-.75-2.633-2.012-2.633-1.257 0-2.011.925-2.011 2.633 0 1.709.754 2.634 2.011 2.634.107 0 .213-.009.316-.021l-1.048-1.385ZM84.391 174v-8.727h3.605c1.96 0 3.183 1.112 3.183 2.906 0 1.206-.554 2.062-1.512 2.497l1.81 3.324h-2.3l-1.594-2.987H86.5V174h-2.109Zm2.11-4.649h1.04c.945 0 1.452-.362 1.452-1.172 0-.81-.507-1.206-1.453-1.206H86.5l.001 2.378Zm11.069 4.773c-2.071 0-3.307-1.377-3.307-3.375 0-2.008 1.245-3.38 3.303-3.38 1.82 0 2.995 1.049 3.042 2.659h-1.947c-.081-.669-.469-1.073-1.066-1.073-.728 0-1.21.617-1.21 1.772 0 1.164.478 1.782 1.21 1.782.572 0 .99-.38 1.066-1.074h1.947c-.055 1.619-1.197 2.689-3.038 2.689Zm6.96 0c-2.058 0-3.307-1.36-3.307-3.375 0-2.02 1.249-3.38 3.307-3.38s3.307 1.36 3.307 3.38c0 2.015-1.249 3.375-3.307 3.375Zm.013-1.573c.746 0 1.172-.733 1.172-1.815 0-1.087-.426-1.824-1.172-1.824-.771 0-1.198.737-1.198 1.824 0 1.082.427 1.815 1.198 1.815Zm6.552 1.543c-1.445 0-2.616-1.134-2.616-3.362 0-2.31 1.24-3.363 2.608-3.363 1.031 0 1.602.605 1.849 1.206h.043v-3.302h2.083V174H113v-1.061h-.064c-.264.605-.852 1.155-1.841 1.155Zm.724-1.624c.759 0 1.206-.682 1.206-1.743 0-1.069-.443-1.73-1.206-1.73-.775 0-1.201.678-1.201 1.73 0 1.057.43 1.743 1.201 1.743Zm7.421 1.654c-2.058 0-3.311-1.275-3.311-3.371 0-2.029 1.27-3.384 3.247-3.384 1.858 0 3.17 1.185 3.17 3.341v.52h-4.363v.056c0 .801.494 1.333 1.295 1.333.546 0 .972-.234 1.134-.669l1.913.056c-.239 1.287-1.368 2.118-3.085 2.118Zm-1.257-4.104h2.424c-.008-.669-.502-1.146-1.188-1.146-.691 0-1.206.494-1.236 1.146Z"/></g><path fill="#000" d="M19.061 60.061h2.265v2.266h-2.265V60.06Zm2.265 0h2.266v2.266h-2.265V60.06Zm2.266 0h2.265v2.266h-2.265V60.06Zm2.265 0h2.265v2.266h-2.265V60.06Zm2.265 0h2.266v2.266h-2.266V60.06Zm2.266 0h2.265v2.266h-2.265V60.06Zm2.265 0h2.265v2.266h-2.265V60.06Zm13.592 0h2.265v2.266h-2.265V60.06Zm2.265 0h2.266v2.266H48.51V60.06Zm4.53 0h2.266v2.266h-2.265V60.06Zm4.531 0h2.266v2.266H57.57V60.06Zm4.531 0h2.265v2.266h-2.265V60.06Zm6.796 0h2.265v2.266h-2.265V60.06Zm2.265 0h2.266v2.266h-2.266V60.06Zm6.796 0h2.266v2.266h-2.266V60.06Zm4.53 0h2.266v2.266H82.49V60.06Zm4.531 0h2.266v2.266H87.02V60.06Zm2.266 0h2.265v2.266h-2.265V60.06Zm2.265 0h2.265v2.266h-2.265V60.06Zm4.53 0h2.266v2.266h-2.265V60.06Zm2.266 0h2.265v2.266h-2.265V60.06Zm2.265 0h2.266v2.266h-2.266V60.06Zm2.266 0h2.265v2.266h-2.265V60.06Zm2.265 0h2.265v2.266h-2.265V60.06Zm2.265 0h2.265v2.266h-2.265V60.06Zm2.265 0h2.266v2.266h-2.266V60.06Zm-90.612 2.266h2.265v2.265h-2.265v-2.265Zm13.592 0h2.265v2.265h-2.265v-2.265Zm20.388 0h2.265v2.265h-2.265v-2.265Zm4.53 0h2.266v2.265H57.57v-2.265Zm9.062 0h2.265v2.265h-2.265v-2.265Zm2.265 0h2.265v2.265h-2.265v-2.265Zm6.796 0h2.265v2.265h-2.265v-2.265Zm2.265 0h2.266v2.265h-2.266v-2.265Zm2.266 0h2.265v2.265h-2.265v-2.265Zm2.265 0h2.265v2.265H82.49v-2.265Zm4.53 0h2.266v2.265H87.02v-2.265Zm9.062 0h2.265v2.265h-2.265v-2.265Zm13.591 0h2.266v2.265h-2.266v-2.265Zm-90.612 2.265h2.265v2.265h-2.265v-2.265Zm4.53 0h2.266v2.265h-2.265v-2.265Zm2.266 0h2.265v2.265h-2.265v-2.265Zm2.265 0h2.266v2.265h-2.266v-2.265Zm4.531 0h2.265v2.265h-2.265v-2.265Zm4.53 0h2.266v2.265h-2.265v-2.265Zm2.266 0h2.265v2.265H39.45v-2.265Zm4.53 0h2.266v2.265H43.98v-2.265Zm9.062 0h2.265v2.265h-2.265v-2.265Zm2.265 0h2.265v2.265h-2.265v-2.265Zm2.265 0h2.266v2.265H57.57v-2.265Zm2.266 0h2.265v2.265h-2.265v-2.265Zm2.265 0h2.265v2.265h-2.265v-2.265Zm2.265 0h2.266v2.265h-2.266v-2.265Zm2.266 0h2.265v2.265h-2.265v-2.265Zm2.265 0h2.265v2.265h-2.265v-2.265Zm9.061 0h2.266v2.265h-2.266v-2.265Zm4.53 0h2.266v2.265H82.49v-2.265Zm6.797 0h2.265v2.265h-2.265v-2.265Zm2.265 0h2.265v2.265h-2.265v-2.265Zm4.53 0h2.266v2.265h-2.265v-2.265Zm4.531 0h2.266v2.265h-2.266v-2.265Zm2.266 0h2.265v2.265h-2.265v-2.265Zm2.265 0h2.265v2.265h-2.265v-2.265Zm4.53 0h2.266v2.265h-2.266v-2.265Zm-90.612 2.265h2.265v2.265h-2.265v-2.265Zm4.53 0h2.266v2.265h-2.265v-2.265Zm2.266 0h2.265v2.265h-2.265v-2.265Zm2.265 0h2.266v2.265h-2.266v-2.265Zm4.531 0h2.265v2.265h-2.265v-2.265Zm4.53 0h2.266v2.265h-2.265v-2.265Zm6.797 0h2.265v2.265H43.98v-2.265Zm6.796 0h2.265v2.265h-2.265v-2.265Zm2.265 0h2.265v2.265h-2.265v-2.265Zm2.265 0h2.265v2.265h-2.265v-2.265Zm6.796 0h2.265v2.265h-2.265v-2.265Zm2.265 0h2.266v2.265h-2.266v-2.265Zm4.531 0h2.265v2.265h-2.265v-2.265Zm2.265 0h2.266v2.265h-2.266v-2.265Zm2.266 0h2.265v2.265h-2.265v-2.265Zm2.265 0h2.265v2.265h-2.265v-2.265Zm9.061 0h2.265v2.265h-2.265v-2.265Zm6.796 0h2.265v2.265h-2.265v-2.265Zm4.53 0h2.266v2.265h-2.265v-2.265Zm4.531 0h2.266v2.265h-2.266v-2.265Zm2.266 0h2.265v2.265h-2.265v-2.265Zm2.265 0h2.265v2.265h-2.265v-2.265Zm4.53 0h2.266v2.265h-2.266v-2.265Zm-90.612 2.265h2.265v2.266h-2.265v-2.266Zm4.53 0h2.266v2.266h-2.265v-2.266Zm2.266 0h2.265v2.266h-2.265v-2.266Zm2.265 0h2.266v2.266h-2.266v-2.266Zm4.531 0h2.265v2.266h-2.265v-2.266Zm4.53 0h2.266v2.266h-2.265v-2.266Zm2.266 0h2.265v2.266H39.45v-2.266Zm2.265 0h2.266v2.266h-2.266v-2.266Zm2.266 0h2.265v2.266H43.98v-2.266Zm4.53 0h2.266v2.266H48.51v-2.266Zm2.266 0h2.265v2.266h-2.265v-2.266Zm4.53 0h2.265v2.266h-2.265v-2.266Zm2.265 0h2.266v2.266H57.57v-2.266Zm2.266 0h2.265v2.266h-2.265v-2.266Zm2.265 0h2.265v2.266h-2.265v-2.266Zm2.265 0h2.266v2.266h-2.266v-2.266Zm2.266 0h2.265v2.266h-2.265v-2.266Zm4.53 0h2.266v2.266h-2.266v-2.266Zm4.53 0h2.266v2.266h-2.265v-2.266Zm13.593 0h2.265v2.266h-2.265v-2.266Zm2.265 0h2.265v2.266h-2.265v-2.266Zm4.53 0h2.266v2.266h-2.265v-2.266Zm4.531 0h2.266v2.266h-2.266v-2.266Zm2.266 0h2.265v2.266h-2.265v-2.266Zm2.265 0h2.265v2.266h-2.265v-2.266Zm4.53 0h2.266v2.266h-2.266v-2.266Zm-90.612 2.266h2.265v2.265h-2.265v-2.265Zm13.592 0h2.265v2.265h-2.265v-2.265Zm4.53 0h2.266v2.265h-2.265v-2.265Zm2.266 0h2.265v2.265H39.45v-2.265Zm2.265 0h2.266v2.265h-2.266v-2.265Zm4.53 0h2.266v2.265h-2.265v-2.265Zm4.532 0h2.265v2.265h-2.265v-2.265Zm6.795 0h2.266v2.265H57.57v-2.265Zm9.062 0h2.265v2.265h-2.265v-2.265Zm9.06 0h2.266v2.265h-2.265v-2.265Zm2.266 0h2.266v2.265h-2.266v-2.265Zm2.266 0h2.265v2.265h-2.265v-2.265Zm2.265 0h2.265v2.265H82.49v-2.265Zm2.265 0h2.265v2.265h-2.265v-2.265Zm6.796 0h2.265v2.265h-2.265v-2.265Zm4.53 0h2.266v2.265h-2.265v-2.265Zm13.592 0h2.266v2.265h-2.266v-2.265Zm-90.612 2.265h2.265v2.265h-2.265v-2.265Zm2.265 0h2.266v2.265h-2.265v-2.265Zm2.266 0h2.265v2.265h-2.265v-2.265Zm2.265 0h2.265v2.265h-2.265v-2.265Zm2.265 0h2.266v2.265h-2.266v-2.265Zm2.266 0h2.265v2.265h-2.265v-2.265Zm2.265 0h2.265v2.265h-2.265v-2.265Zm4.53 0h2.266v2.265h-2.265v-2.265Zm4.531 0h2.266v2.265h-2.266v-2.265Zm4.53 0h2.266v2.265h-2.265v-2.265Zm4.532 0h2.265v2.265h-2.265v-2.265Zm4.53 0h2.265v2.265h-2.265v-2.265Zm4.53 0h2.266v2.265h-2.265v-2.265Zm4.531 0h2.266v2.265h-2.266v-2.265Zm4.531 0h2.265v2.265h-2.265v-2.265Zm4.53 0h2.266v2.265h-2.265v-2.265Zm4.531 0h2.266v2.265h-2.266v-2.265Zm4.53 0h2.266v2.265H82.49v-2.265Zm4.531 0h2.266v2.265H87.02v-2.265Zm4.531 0h2.265v2.265h-2.265v-2.265Zm4.53 0h2.266v2.265h-2.265v-2.265Zm2.266 0h2.265v2.265h-2.265v-2.265Zm2.265 0h2.266v2.265h-2.266v-2.265Zm2.266 0h2.265v2.265h-2.265v-2.265Zm2.265 0h2.265v2.265h-2.265v-2.265Zm2.265 0h2.265v2.265h-2.265v-2.265Zm2.265 0h2.266v2.265h-2.266v-2.265Zm-72.49 2.265h2.266v2.266h-2.265v-2.266Zm4.531 0h2.266v2.266h-2.266v-2.266Zm2.266 0h2.265v2.266H43.98v-2.266Zm2.265 0h2.265v2.266h-2.265v-2.266Zm9.061 0h2.265v2.266h-2.265v-2.266Zm11.327 0h2.265v2.266h-2.265v-2.266Zm2.265 0h2.265v2.266h-2.265v-2.266Zm4.53 0h2.266v2.266h-2.265v-2.266Zm4.531 0h2.266v2.266h-2.266v-2.266Zm11.327 0h2.265v2.266h-2.265v-2.266Zm2.265 0h2.265v2.266h-2.265v-2.266Zm-72.49 2.266h2.265v2.265h-2.265v-2.265Zm4.53 0h2.266v2.265h-2.265v-2.265Zm2.266 0h2.265v2.265h-2.265v-2.265Zm2.265 0h2.266v2.265h-2.266v-2.265Zm2.266 0h2.265v2.265h-2.265v-2.265Zm2.265 0h2.265v2.265h-2.265v-2.265Zm6.796 0h2.265v2.265H39.45v-2.265Zm9.061 0h2.266v2.265H48.51v-2.265Zm2.266 0h2.265v2.265h-2.265v-2.265Zm4.53 0h2.265v2.265h-2.265v-2.265Zm2.265 0h2.266v2.265H57.57v-2.265Zm13.592 0h2.266v2.265h-2.266v-2.265Zm2.266 0h2.265v2.265h-2.265v-2.265Zm2.265 0h2.265v2.265h-2.265v-2.265Zm2.265 0h2.266v2.265h-2.266v-2.265Zm2.266 0h2.265v2.265h-2.265v-2.265Zm4.53 0h2.265v2.265h-2.265v-2.265Zm4.53 0h2.266v2.265h-2.265v-2.265Zm2.266 0h2.265v2.265h-2.265v-2.265Zm4.53 0h2.266v2.265h-2.265v-2.265Zm2.266 0h2.265v2.265h-2.265v-2.265Zm2.265 0h2.266v2.265h-2.266v-2.265Zm2.266 0h2.265v2.265h-2.265v-2.265Zm2.265 0h2.265v2.265h-2.265v-2.265Zm-86.082 2.265h2.265v2.265h-2.265V80.45Zm2.265 0h2.266v2.265h-2.265V80.45Zm2.266 0h2.265v2.265h-2.265V80.45Zm2.265 0h2.265v2.265h-2.265V80.45Zm2.265 0h2.266v2.265h-2.266V80.45Zm2.266 0h2.265v2.265h-2.265V80.45Zm4.53 0h2.266v2.265h-2.266V80.45Zm2.266 0h2.265v2.265h-2.265V80.45Zm2.265 0h2.265v2.265H39.45V80.45Zm2.265 0h2.266v2.265h-2.266V80.45Zm2.266 0h2.265v2.265H43.98V80.45Zm9.06 0h2.266v2.265h-2.265V80.45Zm6.797 0h2.265v2.265h-2.265V80.45Zm2.265 0h2.265v2.265h-2.265V80.45Zm9.061 0h2.266v2.265h-2.266V80.45Zm4.53 0h2.266v2.265h-2.265V80.45Zm2.266 0h2.266v2.265h-2.266V80.45Zm4.53 0h2.266v2.265H82.49V80.45Zm6.797 0h2.265v2.265h-2.265V80.45Zm2.265 0h2.265v2.265h-2.265V80.45Zm2.265 0h2.266v2.265h-2.266V80.45Zm2.266 0h2.265v2.265h-2.265V80.45Zm2.265 0h2.265v2.265h-2.265V80.45Zm2.265 0h2.266v2.265h-2.266V80.45Zm4.531 0h2.265v2.265h-2.265V80.45Zm2.265 0h2.265v2.265h-2.265V80.45Zm2.265 0h2.266v2.265h-2.266V80.45Zm-90.612 2.265h2.265v2.266h-2.265v-2.266Zm6.796 0h2.265v2.266h-2.265v-2.266Zm2.265 0h2.266v2.266h-2.266v-2.266Zm2.266 0h2.265v2.266h-2.265v-2.266Zm2.265 0h2.265v2.266h-2.265v-2.266Zm6.796 0h2.265v2.266H39.45v-2.266Zm6.796 0h2.265v2.266h-2.265v-2.266Zm13.592 0h2.265v2.266h-2.265v-2.266Zm4.53 0h2.266v2.266h-2.266v-2.266Zm2.266 0h2.265v2.266h-2.265v-2.266Zm2.265 0h2.265v2.266h-2.265v-2.266Zm4.53 0h2.266v2.266h-2.265v-2.266Zm2.266 0h2.265v2.266h-2.265v-2.266Zm2.265 0h2.266v2.266h-2.266v-2.266Zm2.266 0h2.265v2.266h-2.265v-2.266Zm2.265 0h2.265v2.266H82.49v-2.266Zm2.265 0h2.265v2.266h-2.265v-2.266Zm6.796 0h2.265v2.266h-2.265v-2.266Zm2.265 0h2.266v2.266h-2.266v-2.266Zm2.266 0h2.265v2.266h-2.265v-2.266Zm2.265 0h2.265v2.266h-2.265v-2.266Zm2.265 0h2.266v2.266h-2.266v-2.266Zm-81.55 2.266h2.264v2.265h-2.265V84.98Zm11.326 0h2.265v2.265h-2.265V84.98Zm4.53 0h2.266v2.265h-2.266V84.98Zm2.266 0h2.265v2.265h-2.265V84.98Zm2.265 0h2.265v2.265H39.45V84.98Zm2.265 0h2.266v2.265h-2.266V84.98Zm2.266 0h2.265v2.265H43.98V84.98Zm2.265 0h2.265v2.265h-2.265V84.98Zm2.265 0h2.266v2.265H48.51V84.98Zm2.266 0h2.265v2.265h-2.265V84.98Zm4.53 0h2.265v2.265h-2.265V84.98Zm4.53 0h2.266v2.265h-2.265V84.98Zm2.266 0h2.265v2.265h-2.265V84.98Zm2.265 0h2.266v2.265h-2.266V84.98Zm2.266 0h2.265v2.265h-2.265V84.98Zm11.326 0h2.266v2.265h-2.266V84.98Zm2.266 0h2.265v2.265h-2.265V84.98Zm2.265 0h2.265v2.265H82.49V84.98Zm6.796 0h2.265v2.265h-2.265V84.98Zm2.265 0h2.265v2.265h-2.265V84.98Zm2.265 0h2.266v2.265h-2.266V84.98Zm4.53 0h2.266v2.265h-2.265V84.98Zm2.266 0h2.266v2.265h-2.266V84.98Zm2.266 0h2.265v2.265h-2.265V84.98Zm4.53 0h2.265v2.265h-2.265V84.98Zm2.265 0h2.266v2.265h-2.266V84.98Zm-90.612 2.265h2.265v2.265h-2.265v-2.265Zm2.265 0h2.266v2.265h-2.265v-2.265Zm2.266 0h2.265v2.265h-2.265v-2.265Zm4.53 0h2.266v2.265h-2.266v-2.265Zm4.531 0h2.265v2.265h-2.265v-2.265Zm2.265 0h2.266v2.265h-2.266v-2.265Zm4.531 0h2.265v2.265H39.45v-2.265Zm4.53 0h2.266v2.265H43.98v-2.265Zm4.531 0h2.266v2.265H48.51v-2.265Zm2.266 0h2.265v2.265h-2.265v-2.265Zm2.265 0h2.265v2.265h-2.265v-2.265Zm4.53 0h2.266v2.265H57.57v-2.265Zm2.266 0h2.265v2.265h-2.265v-2.265Zm4.53 0h2.266v2.265h-2.266v-2.265Zm4.531 0h2.265v2.265h-2.265v-2.265Zm2.265 0h2.266v2.265h-2.266v-2.265Zm2.266 0h2.265v2.265h-2.265v-2.265Zm2.265 0h2.265v2.265h-2.265v-2.265Zm2.265 0h2.266v2.265h-2.266v-2.265Zm4.53 0h2.266v2.265H82.49v-2.265Zm2.266 0h2.265v2.265h-2.265v-2.265Zm4.53 0h2.266v2.265h-2.265v-2.265Zm4.531 0h2.266v2.265h-2.266v-2.265Zm9.062 0h2.265v2.265h-2.265v-2.265Zm2.265 0h2.265v2.265h-2.265v-2.265Zm2.265 0h2.265v2.265h-2.265v-2.265ZM23.592 89.51h2.265v2.265h-2.265V89.51Zm2.265 0h2.265v2.265h-2.265V89.51Zm2.265 0h2.266v2.265h-2.266V89.51Zm2.266 0h2.265v2.265h-2.265V89.51Zm4.53 0h2.266v2.265h-2.266V89.51Zm2.266 0h2.265v2.265h-2.265V89.51Zm9.06 0h2.266v2.265h-2.265V89.51Zm4.532 0h2.265v2.265h-2.265V89.51Zm2.265 0h2.265v2.265h-2.265V89.51Zm2.265 0h2.265v2.265h-2.265V89.51Zm2.265 0h2.266v2.265H57.57V89.51Zm2.266 0h2.265v2.265h-2.265V89.51Zm6.796 0h2.265v2.265h-2.265V89.51Zm4.53 0h2.266v2.265h-2.266V89.51Zm2.266 0h2.265v2.265h-2.265V89.51Zm2.265 0h2.265v2.265h-2.265V89.51Zm6.796 0h2.265v2.265H82.49V89.51Zm2.265 0h2.265v2.265h-2.265V89.51Zm4.53 0h2.266v2.265h-2.265V89.51Zm2.266 0h2.265v2.265h-2.265V89.51Zm2.265 0h2.266v2.265h-2.266V89.51Zm2.266 0h2.265v2.265h-2.265V89.51Zm4.53 0h2.266v2.265h-2.266V89.51Zm2.266 0h2.265v2.265h-2.265V89.51Zm6.795 0h2.266v2.265h-2.266V89.51Zm-83.816 2.265h2.265v2.266h-2.265v-2.266Zm2.265 0h2.266v2.266h-2.266v-2.266Zm4.531 0h2.265v2.266h-2.265v-2.266Zm4.53 0h2.266v2.266h-2.265v-2.266Zm4.531 0h2.266v2.266h-2.266v-2.266Zm4.53 0h2.266v2.266h-2.265v-2.266Zm2.266 0h2.266v2.266H48.51v-2.266Zm2.266 0h2.265v2.266h-2.265v-2.266Zm4.53 0h2.265v2.266h-2.265v-2.266Zm9.061 0h2.266v2.266h-2.266v-2.266Zm2.266 0h2.265v2.266h-2.265v-2.266Zm13.592 0h2.265v2.266h-2.265v-2.266Zm2.265 0h2.265v2.266H82.49v-2.266Zm4.53 0h2.266v2.266H87.02v-2.266Zm6.796 0h2.266v2.266h-2.266v-2.266Zm6.796 0h2.266v2.266h-2.266v-2.266Zm2.266 0h2.265v2.266h-2.265v-2.266Zm-83.817 2.266h2.265v2.265h-2.265v-2.265Zm2.265 0h2.266v2.265h-2.265v-2.265Zm2.266 0h2.265v2.265h-2.265v-2.265Zm2.265 0h2.265v2.265h-2.265v-2.265Zm4.53 0h2.266v2.265h-2.265v-2.265Zm15.858 0h2.265v2.265h-2.265v-2.265Zm2.265 0h2.266v2.265H48.51v-2.265Zm2.266 0h2.265v2.265h-2.265v-2.265Zm2.265 0h2.265v2.265h-2.265v-2.265Zm2.265 0h2.265v2.265h-2.265v-2.265Zm11.327 0h2.265v2.265h-2.265v-2.265Zm6.796 0h2.265v2.265h-2.265v-2.265Zm6.796 0h2.265v2.265h-2.265v-2.265Zm2.265 0h2.265v2.265H82.49v-2.265Zm13.592 0h2.265v2.265h-2.265v-2.265Zm6.796 0h2.265v2.265h-2.265v-2.265Zm4.53 0h2.265v2.265h-2.265v-2.265Zm-81.55 2.265h2.264v2.265h-2.265v-2.265Zm6.795 0h2.265v2.265h-2.265v-2.265Zm6.796 0h2.265v2.265H39.45v-2.265Zm4.53 0h2.266v2.265H43.98v-2.265Zm2.266 0h2.265v2.265h-2.265v-2.265Zm2.265 0h2.266v2.265H48.51v-2.265Zm2.266 0h2.265v2.265h-2.265v-2.265Zm2.265 0h2.265v2.265h-2.265v-2.265Zm4.53 0h2.266v2.265H57.57v-2.265Zm11.327 0h2.265v2.265h-2.265v-2.265Zm4.53 0h2.266v2.265h-2.265v-2.265Zm2.266 0h2.265v2.265h-2.265v-2.265Zm4.53 0h2.266v2.265h-2.265v-2.265Zm4.531 0h2.265v2.265h-2.265v-2.265Zm4.53 0h2.266v2.265h-2.265v-2.265Zm4.531 0h2.266v2.265h-2.266v-2.265Zm4.53 0h2.266v2.265h-2.265v-2.265Zm6.797 0h2.265v2.265h-2.265v-2.265Zm2.265 0h2.265v2.265h-2.265v-2.265Zm-88.347 2.265h2.265v2.266h-2.265v-2.266Zm4.53 0h2.266v2.266h-2.265v-2.266Zm2.266 0h2.265v2.266h-2.265v-2.266Zm4.53 0h2.266v2.266h-2.265v-2.266Zm9.062 0h2.265v2.266H39.45v-2.266Zm6.796 0h2.265v2.266h-2.265v-2.266Zm2.265 0h2.266v2.266H48.51v-2.266Zm4.53 0h2.266v2.266h-2.265v-2.266Zm2.266 0h2.265v2.266h-2.265v-2.266Zm4.53 0h2.266v2.266h-2.265v-2.266Zm2.266 0h2.265v2.266h-2.265v-2.266Zm2.265 0h2.266v2.266h-2.266v-2.266Zm2.266 0h2.265v2.266h-2.265v-2.266Zm4.53 0h2.266v2.266h-2.266v-2.266Zm4.53 0h2.266v2.266h-2.265v-2.266Zm6.797 0h2.265v2.266H82.49v-2.266Zm6.796 0h2.265v2.266h-2.265v-2.266Zm2.265 0h2.265v2.266h-2.265v-2.266Zm4.53 0h2.266v2.266h-2.265v-2.266Zm2.266 0h2.265v2.266h-2.265v-2.266Zm2.265 0h2.266v2.266h-2.266v-2.266Zm6.796 0h2.265v2.266h-2.265v-2.266Zm2.265 0h2.266v2.266h-2.266v-2.266Zm-90.612 2.266h2.265v2.265h-2.265v-2.265Zm4.53 0h2.266v2.265h-2.265v-2.265Zm2.266 0h2.265v2.265h-2.265v-2.265Zm6.796 0h2.265v2.265h-2.265v-2.265Zm4.53 0h2.266v2.265h-2.265v-2.265Zm9.062 0h2.265v2.265h-2.265v-2.265Zm2.265 0h2.266v2.265H48.51v-2.265Zm2.266 0h2.265v2.265h-2.265v-2.265Zm9.06 0h2.266v2.265h-2.265v-2.265Zm4.531 0h2.266v2.265h-2.266v-2.265Zm4.531 0h2.265v2.265h-2.265v-2.265Zm9.061 0h2.266v2.265h-2.266v-2.265Zm2.266 0h2.265v2.265h-2.265v-2.265Zm11.326 0h2.265v2.265h-2.265v-2.265Zm4.53 0h2.266v2.265h-2.265v-2.265Zm4.531 0h2.266v2.265h-2.266v-2.265Zm4.531 0h2.265v2.265h-2.265v-2.265Zm-81.551 2.265h2.265v2.265h-2.265v-2.265Zm2.265 0h2.265v2.265h-2.265v-2.265Zm2.265 0h2.266v2.265h-2.266v-2.265Zm11.327 0h2.265v2.265H39.45v-2.265Zm13.592 0h2.265v2.265h-2.265v-2.265Zm2.265 0h2.265v2.265h-2.265v-2.265Zm6.796 0h2.265v2.265h-2.265v-2.265Zm2.265 0h2.266v2.265h-2.266v-2.265Zm2.266 0h2.265v2.265h-2.265v-2.265Zm6.796 0h2.265v2.265h-2.265v-2.265Zm4.53 0h2.266v2.265h-2.266v-2.265Zm4.53 0h2.266v2.265H82.49v-2.265Zm4.531 0h2.266v2.265H87.02v-2.265Zm4.531 0h2.265v2.265h-2.265v-2.265Zm4.53 0h2.266v2.265h-2.265v-2.265Zm4.531 0h2.266v2.265h-2.266v-2.265Zm2.266 0h2.265v2.265h-2.265v-2.265Zm4.53 0h2.265v2.265h-2.265v-2.265Zm2.265 0h2.266v2.265h-2.266v-2.265Zm-83.816 2.265h2.265v2.266h-2.265v-2.266Zm2.265 0h2.266v2.266h-2.266v-2.266Zm2.266 0h2.265v2.266h-2.265v-2.266Zm2.265 0h2.265v2.266h-2.265v-2.266Zm2.265 0h2.266v2.266h-2.266v-2.266Zm2.266 0h2.265v2.266h-2.265v-2.266Zm2.265 0h2.265v2.266H39.45v-2.266Zm4.53 0h2.266v2.266H43.98v-2.266Zm9.062 0h2.265v2.266h-2.265v-2.266Zm2.265 0h2.265v2.266h-2.265v-2.266Zm4.53 0h2.266v2.266h-2.265v-2.266Zm4.531 0h2.266v2.266h-2.266v-2.266Zm4.531 0h2.265v2.266h-2.265v-2.266Zm4.53 0h2.266v2.266h-2.265v-2.266Zm2.266 0h2.265v2.266h-2.265v-2.266Zm4.53 0h2.266v2.266h-2.265v-2.266Zm2.266 0h2.265v2.266H82.49v-2.266Zm2.265 0h2.265v2.266h-2.265v-2.266Zm4.53 0h2.266v2.266h-2.265v-2.266Zm9.062 0h2.265v2.266h-2.265v-2.266Zm6.796 0h2.265v2.266h-2.265v-2.266Zm2.265 0h2.265v2.266h-2.265v-2.266Zm-86.082 2.266h2.266v2.265h-2.265v-2.265Zm6.796 0h2.266v2.265h-2.266v-2.265Zm6.796 0h2.266v2.265h-2.266v-2.265Zm4.531 0h2.265v2.265H39.45v-2.265Zm2.265 0h2.266v2.265h-2.266v-2.265Zm4.53 0h2.266v2.265h-2.265v-2.265Zm2.266 0h2.266v2.265H48.51v-2.265Zm2.266 0h2.265v2.265h-2.265v-2.265Zm2.265 0h2.265v2.265h-2.265v-2.265Zm2.265 0h2.265v2.265h-2.265v-2.265Zm6.796 0h2.265v2.265h-2.265v-2.265Zm2.265 0h2.266v2.265h-2.266v-2.265Zm4.531 0h2.265v2.265h-2.265v-2.265Zm2.265 0h2.266v2.265h-2.266v-2.265Zm4.53 0h2.266v2.265h-2.265v-2.265Zm2.266 0h2.266v2.265h-2.266v-2.265Zm4.53 0h2.266v2.265H82.49v-2.265Zm6.797 0h2.265v2.265h-2.265v-2.265Zm2.265 0h2.265v2.265h-2.265v-2.265Zm2.265 0h2.266v2.265h-2.266v-2.265Zm2.266 0h2.265v2.265h-2.265v-2.265Zm2.265 0h2.265v2.265h-2.265v-2.265Zm2.265 0h2.266v2.265h-2.266v-2.265Zm2.266 0h2.265v2.265h-2.265v-2.265Zm4.53 0h2.265v2.265h-2.265v-2.265Zm2.265 0h2.266v2.265h-2.266v-2.265Zm-86.081 2.265h2.265v2.265h-2.265v-2.265Zm9.061 0h2.265v2.265h-2.265v-2.265Zm13.592 0h2.265v2.265h-2.265v-2.265Zm9.061 0h2.265v2.265h-2.265v-2.265Zm2.265 0h2.266v2.265H57.57v-2.265Zm6.796 0h2.266v2.265h-2.266v-2.265Zm4.531 0h2.265v2.265h-2.265v-2.265Zm4.53 0h2.266v2.265h-2.265v-2.265Zm2.266 0h2.265v2.265h-2.265v-2.265Zm4.53 0h2.266v2.265h-2.265v-2.265Zm4.531 0h2.265v2.265h-2.265v-2.265Zm9.061 0h2.266v2.265h-2.266v-2.265Zm4.53 0h2.266v2.265h-2.265v-2.265Zm4.532 0h2.265v2.265h-2.265v-2.265Zm-83.817 2.265h2.265v2.266h-2.265v-2.266Zm2.265 0h2.266v2.266h-2.265v-2.266Zm15.858 0h2.265v2.266h-2.265v-2.266Zm9.06 0h2.266v2.266h-2.265v-2.266Zm4.532 0h2.265v2.266h-2.265v-2.266Zm4.53 0h2.265v2.266h-2.265v-2.266Zm4.53 0h2.266v2.266h-2.265v-2.266Zm6.797 0h2.265v2.266h-2.265v-2.266Zm4.53 0h2.266v2.266h-2.266v-2.266Zm2.266 0h2.265v2.266h-2.265v-2.266Zm15.857 0h2.265v2.266h-2.265v-2.266Zm6.796 0h2.265v2.266h-2.265v-2.266Zm2.265 0h2.265v2.266h-2.265v-2.266Zm4.531 0h2.265v2.266h-2.265v-2.266Zm-81.552 2.266h2.266v2.265h-2.265v-2.265Zm2.266 0h2.265v2.265h-2.265v-2.265Zm6.796 0h2.265v2.265h-2.265v-2.265Zm2.265 0h2.265v2.265h-2.265v-2.265Zm4.53 0h2.266v2.265h-2.265v-2.265Zm2.266 0h2.265v2.265H39.45v-2.265Zm2.265 0h2.266v2.265h-2.266v-2.265Zm2.266 0h2.265v2.265H43.98v-2.265Zm2.265 0h2.265v2.265h-2.265v-2.265Zm9.061 0h2.265v2.265h-2.265v-2.265Zm2.265 0h2.266v2.265H57.57v-2.265Zm11.327 0h2.265v2.265h-2.265v-2.265Zm4.53 0h2.266v2.265h-2.265v-2.265Zm2.266 0h2.265v2.265h-2.265v-2.265Zm2.265 0h2.266v2.265h-2.266v-2.265Zm2.266 0h2.265v2.265h-2.265v-2.265Zm4.53 0h2.265v2.265h-2.265v-2.265Zm13.592 0h2.265v2.265h-2.265v-2.265Zm6.796 0h2.265v2.265h-2.265v-2.265Zm-83.817 2.265h2.266v2.265h-2.265v-2.265Zm2.266 0h2.265v2.265h-2.265v-2.265Zm4.53 0h2.266v2.265h-2.266v-2.265Zm2.266 0h2.265v2.265h-2.265v-2.265Zm4.53 0h2.266v2.265h-2.266v-2.265Zm15.858 0h2.265v2.265h-2.265v-2.265Zm6.795 0h2.266v2.265H57.57v-2.265Zm2.266 0h2.265v2.265h-2.265v-2.265Zm2.265 0h2.265v2.265h-2.265v-2.265Zm2.265 0h2.266v2.265h-2.266v-2.265Zm2.266 0h2.265v2.265h-2.265v-2.265Zm4.53 0h2.266v2.265h-2.266v-2.265Zm4.53 0h2.266v2.265h-2.265v-2.265Zm6.797 0h2.265v2.265H82.49v-2.265Zm6.796 0h2.265v2.265h-2.265v-2.265Zm6.796 0h2.265v2.265h-2.265v-2.265Zm2.265 0h2.265v2.265h-2.265v-2.265Zm2.265 0h2.266v2.265h-2.266v-2.265Zm2.266 0h2.265v2.265h-2.265v-2.265Zm6.795 0h2.266v2.265h-2.266v-2.265Zm-90.612 2.265h2.265v2.265h-2.265v-2.265Zm4.53 0h2.266v2.265h-2.265v-2.265Zm2.266 0h2.265v2.265h-2.265v-2.265Zm4.53 0h2.266v2.265h-2.265v-2.265Zm2.266 0h2.265v2.265h-2.265v-2.265Zm2.265 0h2.266v2.265h-2.266v-2.265Zm4.531 0h2.265v2.265H39.45v-2.265Zm2.265 0h2.266v2.265h-2.266v-2.265Zm6.796 0h2.266v2.265H48.51v-2.265Zm2.266 0h2.265v2.265h-2.265v-2.265Zm2.265 0h2.265v2.265h-2.265v-2.265Zm2.265 0h2.265v2.265h-2.265v-2.265Zm2.265 0h2.266v2.265H57.57v-2.265Zm9.062 0h2.265v2.265h-2.265v-2.265Zm2.265 0h2.265v2.265h-2.265v-2.265Zm4.53 0h2.266v2.265h-2.265v-2.265Zm4.531 0h2.266v2.265h-2.266v-2.265Zm2.266 0h2.265v2.265h-2.265v-2.265Zm4.53 0h2.265v2.265h-2.265v-2.265Zm2.265 0h2.266v2.265H87.02v-2.265Zm4.531 0h2.265v2.265h-2.265v-2.265Zm4.53 0h2.266v2.265h-2.265v-2.265Zm4.531 0h2.266v2.265h-2.266v-2.265Zm-81.55 2.265h2.264v2.266h-2.265v-2.266Zm11.326 0h2.265v2.266h-2.265v-2.266Zm4.53 0h2.266v2.266h-2.266v-2.266Zm2.266 0h2.265v2.266h-2.265v-2.266Zm6.796 0h2.265v2.266H43.98v-2.266Zm2.265 0h2.265v2.266h-2.265v-2.266Zm4.53 0h2.266v2.266h-2.265v-2.266Zm11.327 0h2.265v2.266h-2.265v-2.266Zm4.53 0h2.266v2.266h-2.265v-2.266Zm2.266 0h2.265v2.266h-2.265v-2.266Zm9.061 0h2.266v2.266h-2.266v-2.266Zm4.53 0h2.266v2.266H82.49v-2.266Zm6.797 0h2.265v2.266h-2.265v-2.266Zm2.265 0h2.265v2.266h-2.265v-2.266Zm6.796 0h2.265v2.266h-2.265v-2.266Zm2.265 0h2.266v2.266h-2.266v-2.266Zm2.266 0h2.265v2.266h-2.265v-2.266Zm-81.552 2.266h2.266v2.265h-2.265v-2.265Zm4.531 0h2.265v2.265h-2.265v-2.265Zm2.265 0h2.266v2.265h-2.266v-2.265Zm4.531 0h2.265v2.265h-2.265v-2.265Zm4.53 0h2.266v2.265h-2.265v-2.265Zm6.797 0h2.265v2.265H43.98v-2.265Zm2.265 0h2.265v2.265h-2.265v-2.265Zm4.53 0h2.266v2.265h-2.265v-2.265Zm6.796 0h2.266v2.265H57.57v-2.265Zm2.266 0h2.265v2.265h-2.265v-2.265Zm11.326 0h2.266v2.265h-2.266v-2.265Zm4.53 0h2.266v2.265h-2.265v-2.265Zm2.266 0h2.266v2.265h-2.266v-2.265Zm6.796 0h2.265v2.265h-2.265v-2.265Zm4.53 0h2.266v2.265h-2.265v-2.265Zm9.062 0h2.265v2.265h-2.265v-2.265Zm4.531 0h2.265v2.265h-2.265v-2.265Zm2.265 0h2.265v2.265h-2.265v-2.265Zm2.265 0h2.265v2.265h-2.265v-2.265Zm2.265 0h2.266v2.265h-2.266v-2.265Zm-90.612 2.265h2.265v2.265h-2.265v-2.265Zm2.265 0h2.266v2.265h-2.265v-2.265Zm4.531 0h2.265v2.265h-2.265v-2.265Zm11.327 0h2.265v2.265h-2.265v-2.265Zm13.592 0h2.265v2.265h-2.265v-2.265Zm4.53 0h2.265v2.265h-2.265v-2.265Zm9.061 0h2.266v2.265h-2.266v-2.265Zm2.266 0h2.265v2.265h-2.265v-2.265Zm4.53 0h2.266v2.265h-2.266v-2.265Zm2.266 0h2.265v2.265h-2.265v-2.265Zm9.06 0h2.266v2.265H82.49v-2.265Zm4.531 0h2.266v2.265H87.02v-2.265Zm2.266 0h2.265v2.265h-2.265v-2.265Zm2.265 0h2.265v2.265h-2.265v-2.265Zm4.53 0h2.266v2.265h-2.265v-2.265Zm2.266 0h2.265v2.265h-2.265v-2.265Zm2.265 0h2.266v2.265h-2.266v-2.265Zm2.266 0h2.265v2.265h-2.265v-2.265Zm6.795 0h2.266v2.265h-2.266v-2.265Zm-90.612 2.265h2.265v2.266h-2.265v-2.266Zm6.796 0h2.265v2.266h-2.265v-2.266Zm4.53 0h2.266v2.266h-2.265v-2.266Zm2.266 0h2.265v2.266h-2.265v-2.266Zm2.265 0h2.266v2.266h-2.266v-2.266Zm6.796 0h2.266v2.266h-2.266v-2.266Zm6.796 0h2.266v2.266H48.51v-2.266Zm2.266 0h2.265v2.266h-2.265v-2.266Zm6.795 0h2.266v2.266H57.57v-2.266Zm4.531 0h2.265v2.266h-2.265v-2.266Zm4.53 0h2.266v2.266h-2.265v-2.266Zm6.797 0h2.265v2.266h-2.265v-2.266Zm2.265 0h2.265v2.266h-2.265v-2.266Zm2.265 0h2.266v2.266h-2.266v-2.266Zm2.266 0h2.265v2.266h-2.265v-2.266Zm4.53 0h2.265v2.266h-2.265v-2.266Zm2.265 0h2.266v2.266H87.02v-2.266Zm4.531 0h2.265v2.266h-2.265v-2.266Zm2.265 0h2.266v2.266h-2.266v-2.266Zm2.266 0h2.265v2.266h-2.265v-2.266Zm2.265 0h2.265v2.266h-2.265v-2.266Zm6.796 0h2.265v2.266h-2.265v-2.266Zm-86.082 2.266h2.265v2.265h-2.265v-2.265Zm4.53 0h2.266v2.265h-2.265v-2.265Zm4.531 0h2.266v2.265h-2.266v-2.265Zm22.654 0h2.265v2.265h-2.265v-2.265Zm2.265 0h2.265v2.265h-2.265v-2.265Zm6.796 0h2.265v2.265h-2.265v-2.265Zm2.265 0h2.265v2.265h-2.265v-2.265Zm2.265 0h2.266v2.265h-2.266v-2.265Zm2.266 0h2.265v2.265h-2.265v-2.265Zm2.265 0h2.265v2.265h-2.265v-2.265Zm2.265 0h2.266v2.265h-2.266v-2.265Zm2.266 0h2.265v2.265h-2.265v-2.265Zm9.06 0h2.266v2.265H82.49v-2.265Zm4.531 0h2.266v2.265H87.02v-2.265Zm2.266 0h2.265v2.265h-2.265v-2.265Zm2.265 0h2.265v2.265h-2.265v-2.265Zm2.265 0h2.266v2.265h-2.266v-2.265Zm2.266 0h2.265v2.265h-2.265v-2.265Zm2.265 0h2.265v2.265h-2.265v-2.265Zm4.531 0h2.265v2.265h-2.265v-2.265Zm6.795 0h2.266v2.265h-2.266v-2.265Zm-90.612 2.265h2.265v2.265h-2.265v-2.265Zm9.061 0h2.266v2.265h-2.266v-2.265Zm2.266 0h2.265v2.265h-2.265v-2.265Zm2.265 0h2.265v2.265h-2.265v-2.265Zm4.53 0h2.266v2.265h-2.265v-2.265Zm4.531 0h2.266v2.265h-2.266v-2.265Zm2.266 0h2.265v2.265H43.98v-2.265Zm2.265 0h2.265v2.265h-2.265v-2.265Zm4.53 0h2.266v2.265h-2.265v-2.265Zm2.266 0h2.265v2.265h-2.265v-2.265Zm2.265 0h2.265v2.265h-2.265v-2.265Zm2.265 0h2.266v2.265H57.57v-2.265Zm4.531 0h2.265v2.265h-2.265v-2.265Zm6.796 0h2.265v2.265h-2.265v-2.265Zm4.53 0h2.266v2.265h-2.265v-2.265Zm2.266 0h2.265v2.265h-2.265v-2.265Zm2.265 0h2.266v2.265h-2.266v-2.265Zm6.796 0h2.265v2.265h-2.265v-2.265Zm6.796 0h2.265v2.265h-2.265v-2.265Zm2.265 0h2.266v2.265h-2.266v-2.265Zm2.266 0h2.265v2.265h-2.265v-2.265Zm2.265 0h2.265v2.265h-2.265v-2.265Zm2.265 0h2.266v2.265h-2.266v-2.265Zm4.531 0h2.265v2.265h-2.265v-2.265Zm4.53 0h2.266v2.265h-2.266v-2.265Zm-72.49 2.265h2.266v2.266h-2.265v-2.266Zm2.266 0h2.265v2.266H39.45v-2.266Zm2.265 0h2.266v2.266h-2.266v-2.266Zm2.266 0h2.265v2.266H43.98v-2.266Zm6.796 0h2.265v2.266h-2.265v-2.266Zm4.53 0h2.265v2.266h-2.265v-2.266Zm2.265 0h2.266v2.266H57.57v-2.266Zm2.266 0h2.265v2.266h-2.265v-2.266Zm2.265 0h2.265v2.266h-2.265v-2.266Zm2.265 0h2.266v2.266h-2.266v-2.266Zm2.266 0h2.265v2.266h-2.265v-2.266Zm4.53 0h2.266v2.266h-2.266v-2.266Zm11.327 0h2.265v2.266H82.49v-2.266Zm4.53 0h2.266v2.266H87.02v-2.266Zm2.266 0h2.265v2.266h-2.265v-2.266Zm2.265 0h2.265v2.266h-2.265v-2.266Zm9.061 0h2.266v2.266h-2.266v-2.266Zm2.266 0h2.265v2.266h-2.265v-2.266Zm2.265 0h2.265v2.266h-2.265v-2.266Zm4.53 0h2.266v2.266h-2.266v-2.266Zm-90.612 2.266h2.265v2.265h-2.265v-2.265Zm2.265 0h2.266v2.265h-2.265v-2.265Zm2.266 0h2.265v2.265h-2.265v-2.265Zm2.265 0h2.265v2.265h-2.265v-2.265Zm2.265 0h2.266v2.265h-2.266v-2.265Zm2.266 0h2.265v2.265h-2.265v-2.265Zm2.265 0h2.265v2.265h-2.265v-2.265Zm6.796 0h2.265v2.265H39.45v-2.265Zm2.265 0h2.266v2.265h-2.266v-2.265Zm2.266 0h2.265v2.265H43.98v-2.265Zm4.53 0h2.266v2.265H48.51v-2.265Zm2.266 0h2.265v2.265h-2.265v-2.265Zm6.795 0h2.266v2.265H57.57v-2.265Zm6.796 0h2.266v2.265h-2.266v-2.265Zm15.858 0h2.265v2.265h-2.265v-2.265Zm2.265 0h2.265v2.265H82.49v-2.265Zm2.265 0h2.265v2.265h-2.265v-2.265Zm2.265 0h2.266v2.265H87.02v-2.265Zm2.266 0h2.265v2.265h-2.265v-2.265Zm2.265 0h2.265v2.265h-2.265v-2.265Zm4.53 0h2.266v2.265h-2.265v-2.265Zm4.531 0h2.266v2.265h-2.266v-2.265Zm2.266 0h2.265v2.265h-2.265v-2.265Zm2.265 0h2.265v2.265h-2.265v-2.265Zm-86.082 2.265h2.265v2.265h-2.265v-2.265Zm13.592 0h2.265v2.265h-2.265v-2.265Zm4.53 0h2.266v2.265h-2.265v-2.265Zm4.531 0h2.266v2.265h-2.266v-2.265Zm2.266 0h2.265v2.265H43.98v-2.265Zm4.53 0h2.266v2.265H48.51v-2.265Zm2.266 0h2.265v2.265h-2.265v-2.265Zm2.265 0h2.265v2.265h-2.265v-2.265Zm2.265 0h2.265v2.265h-2.265v-2.265Zm2.265 0h2.266v2.265H57.57v-2.265Zm2.266 0h2.265v2.265h-2.265v-2.265Zm6.796 0h2.265v2.265h-2.265v-2.265Zm4.53 0h2.266v2.265h-2.266v-2.265Zm2.266 0h2.265v2.265h-2.265v-2.265Zm4.53 0h2.266v2.265h-2.266v-2.265Zm2.266 0h2.265v2.265h-2.265v-2.265Zm2.265 0h2.265v2.265H82.49v-2.265Zm9.061 0h2.265v2.265h-2.265v-2.265Zm9.061 0h2.266v2.265h-2.266v-2.265Zm2.266 0h2.265v2.265h-2.265v-2.265Zm-83.817 2.265h2.265v2.266h-2.265v-2.266Zm4.53 0h2.266v2.266h-2.265v-2.266Zm2.266 0h2.265v2.266h-2.265v-2.266Zm2.265 0h2.266v2.266h-2.266v-2.266Zm4.531 0h2.265v2.266h-2.265v-2.266Zm4.53 0h2.266v2.266h-2.265v-2.266Zm4.531 0h2.266v2.266h-2.266v-2.266Zm4.53 0h2.266v2.266h-2.265v-2.266Zm6.797 0h2.265v2.266h-2.265v-2.266Zm2.265 0h2.265v2.266h-2.265v-2.266Zm6.796 0h2.265v2.266h-2.265v-2.266Zm4.53 0h2.266v2.266h-2.265v-2.266Zm6.797 0h2.265v2.266h-2.265v-2.266Zm2.265 0h2.265v2.266h-2.265v-2.266Zm4.53 0h2.266v2.266h-2.265v-2.266Zm2.266 0h2.265v2.266H82.49v-2.266Zm2.265 0h2.265v2.266h-2.265v-2.266Zm6.796 0h2.265v2.266h-2.265v-2.266Zm2.265 0h2.266v2.266h-2.266v-2.266Zm2.266 0h2.265v2.266h-2.265v-2.266Zm2.265 0h2.265v2.266h-2.265v-2.266Zm2.265 0h2.266v2.266h-2.266v-2.266Zm4.531 0h2.265v2.266h-2.265v-2.266Zm2.265 0h2.265v2.266h-2.265v-2.266Zm2.265 0h2.266v2.266h-2.266v-2.266Zm-90.612 2.266h2.265v2.265h-2.265v-2.265Zm4.53 0h2.266v2.265h-2.265v-2.265Zm2.266 0h2.265v2.265h-2.265v-2.265Zm2.265 0h2.266v2.265h-2.266v-2.265Zm4.531 0h2.265v2.265h-2.265v-2.265Zm4.53 0h2.266v2.265h-2.265v-2.265Zm2.266 0h2.265v2.265H39.45v-2.265Zm4.53 0h2.266v2.265H43.98v-2.265Zm4.531 0h2.266v2.265H48.51v-2.265Zm4.53 0h2.266v2.265h-2.265v-2.265Zm2.266 0h2.265v2.265h-2.265v-2.265Zm2.265 0h2.266v2.265H57.57v-2.265Zm2.266 0h2.265v2.265h-2.265v-2.265Zm2.265 0h2.265v2.265h-2.265v-2.265Zm2.265 0h2.266v2.265h-2.266v-2.265Zm6.796 0h2.266v2.265h-2.266v-2.265Zm4.53 0h2.266v2.265h-2.265v-2.265Zm2.266 0h2.266v2.265h-2.266v-2.265Zm4.53 0h2.266v2.265H82.49v-2.265Zm4.531 0h2.266v2.265H87.02v-2.265Zm6.796 0h2.266v2.265h-2.266v-2.265Zm4.53 0h2.266v2.265h-2.265v-2.265Zm4.532 0h2.265v2.265h-2.265v-2.265Zm4.53 0h2.265v2.265h-2.265v-2.265Zm2.265 0h2.266v2.265h-2.266v-2.265Zm-90.612 2.265h2.265v2.265h-2.265v-2.265Zm4.53 0h2.266v2.265h-2.265v-2.265Zm2.266 0h2.265v2.265h-2.265v-2.265Zm2.265 0h2.266v2.265h-2.266v-2.265Zm4.531 0h2.265v2.265h-2.265v-2.265Zm4.53 0h2.266v2.265h-2.265v-2.265Zm2.266 0h2.265v2.265H39.45v-2.265Zm2.265 0h2.266v2.265h-2.266v-2.265Zm2.266 0h2.265v2.265H43.98v-2.265Zm9.06 0h2.266v2.265h-2.265v-2.265Zm2.266 0h2.265v2.265h-2.265v-2.265Zm4.53 0h2.266v2.265h-2.265v-2.265Zm4.531 0h2.266v2.265h-2.266v-2.265Zm4.531 0h2.265v2.265h-2.265v-2.265Zm11.327 0h2.265v2.265h-2.265v-2.265Zm2.265 0h2.265v2.265H82.49v-2.265Zm2.265 0h2.265v2.265h-2.265v-2.265Zm4.53 0h2.266v2.265h-2.265v-2.265Zm4.531 0h2.266v2.265h-2.266v-2.265Zm2.266 0h2.265v2.265h-2.265v-2.265Zm2.265 0h2.265v2.265h-2.265v-2.265Zm2.265 0h2.266v2.265h-2.266v-2.265Zm4.531 0h2.265v2.265h-2.265v-2.265Zm-86.082 2.265h2.265v2.265h-2.265v-2.265Zm13.592 0h2.265v2.265h-2.265v-2.265Zm6.796 0h2.265v2.265H39.45v-2.265Zm2.265 0h2.266v2.265h-2.266v-2.265Zm4.53 0h2.266v2.265h-2.265v-2.265Zm6.797 0h2.265v2.265h-2.265v-2.265Zm2.265 0h2.265v2.265h-2.265v-2.265Zm2.265 0h2.266v2.265H57.57v-2.265Zm2.266 0h2.265v2.265h-2.265v-2.265Zm2.265 0h2.265v2.265h-2.265v-2.265Zm2.265 0h2.266v2.265h-2.266v-2.265Zm2.266 0h2.265v2.265h-2.265v-2.265Zm2.265 0h2.265v2.265h-2.265v-2.265Zm2.265 0h2.266v2.265h-2.266v-2.265Zm6.796 0h2.266v2.265h-2.266v-2.265Zm2.266 0h2.265v2.265h-2.265v-2.265Zm2.265 0h2.265v2.265H82.49v-2.265Zm6.796 0h2.265v2.265h-2.265v-2.265Zm2.265 0h2.265v2.265h-2.265v-2.265Zm2.265 0h2.266v2.265h-2.266v-2.265Zm6.796 0h2.266v2.265h-2.266v-2.265Zm2.266 0h2.265v2.265h-2.265v-2.265Zm4.53 0h2.265v2.265h-2.265v-2.265Zm-88.347 2.265h2.265v2.266h-2.265v-2.266Zm2.265 0h2.266v2.266h-2.265v-2.266Zm2.266 0h2.265v2.266h-2.265v-2.266Zm2.265 0h2.265v2.266h-2.265v-2.266Zm2.265 0h2.266v2.266h-2.266v-2.266Zm2.266 0h2.265v2.266h-2.265v-2.266Zm2.265 0h2.265v2.266h-2.265v-2.266Zm4.53 0h2.266v2.266h-2.265v-2.266Zm6.797 0h2.265v2.266H43.98v-2.266Zm6.796 0h2.265v2.266h-2.265v-2.266Zm4.53 0h2.265v2.266h-2.265v-2.266Zm6.796 0h2.265v2.266h-2.265v-2.266Zm2.265 0h2.266v2.266h-2.266v-2.266Zm4.531 0h2.265v2.266h-2.265v-2.266Zm2.265 0h2.266v2.266h-2.266v-2.266Zm2.266 0h2.265v2.266h-2.265v-2.266Zm2.265 0h2.265v2.266h-2.265v-2.266Zm2.265 0h2.266v2.266h-2.266v-2.266Zm2.266 0h2.265v2.266h-2.265v-2.266Zm4.53 0h2.265v2.266h-2.265v-2.266Zm2.265 0h2.266v2.266H87.02v-2.266Zm2.266 0h2.265v2.266h-2.265v-2.266Zm4.53 0h2.266v2.266h-2.266v-2.266Zm2.266 0h2.265v2.266h-2.265v-2.266Zm2.265 0h2.265v2.266h-2.265v-2.266Zm2.265 0h2.266v2.266h-2.266v-2.266Zm4.531 0h2.265v2.266h-2.265v-2.266Z"/></g><defs><clipPath id="a"><path fill="#fff" d="M0 0h326v192H0z"/></clipPath></defs></svg>
