<svg xmlns="http://www.w3.org/2000/svg" version="1.1" viewBox="0 0 72.5 72.5" width="73" height="73" xml:space="preserve">
  <circle cx="36.2" cy="36.2" r="36.2" opacity=".5"/>
  <path fill="#fff" d="M28.1 56.8h-8.7c-3.7 0-6.8-3-6.8-6.8V22c0-3.7 3-6.8 6.8-6.8h33.9c3.7 0 6.8 3 6.8 6.8v8.7c0 1.5-1.2 2.7-2.7 2.7s-2.7-1.2-2.7-2.7V22c0-.7-.6-1.4-1.4-1.4H19.4c-.7 0-1.4.6-1.4 1.4v28c0 .7.6 1.4 1.4 1.4h8.7c1.5 0 2.7 1.2 2.7 2.7s-1.2 2.7-2.7 2.7z"/>
  <path fill="#fff" d="M32.1 25.9c-.9 0-1.6.7-1.6 1.6v3.1l-6.2-6.2c-.6-.6-1.7-.6-2.3 0-.6.6-.6 1.7 0 2.3l6.2 6.2h-3.1c-.9 0-1.6.7-1.6 1.6s.7 1.6 1.6 1.6h7.1c.9 0 1.6-.7 1.6-1.6v-7.1c0-.7-.8-1.5-1.7-1.5z"/>
  <path fill="#fff" d="M39.1 38.8h18.3c1.7 0 3.1 1.4 3.1 3.1v11.8c0 1.7-1.4 3.1-3.1 3.1H39.1c-1.7 0-3.1-1.4-3.1-3.1V41.9c-.1-1.7 1.3-3.1 3.1-3.1z"/>
</svg>
