<svg fill="none" height="10" viewBox="0 0 15 10" width="15" xmlns="http://www.w3.org/2000/svg"><path d="m9.56582.191469c-.26571.260397-.26572.692658-.00521.958261l3.16779 3.17164h-12.056292c-.36992 0-.672108.30207-.672108.67704s.302188.67703.672108.67703h12.051092l-3.1678 3.17164c-.26051.26561-.2553.69266.00521.95827.26572.26035.68779.26035.95349-.00521l4.2931-4.3226c.0573-.06249.1042-.1302.1407-.21353.0365-.08332.0521-.17186.0521-.26039 0-.17707-.0677-.34373-.1928-.47393l-4.2931-4.322597c-.2553-.2708137-.68256-.2760219-.94828-.015624z" fill="#000"/></svg>