<svg width="36" height="36" viewBox="0 0 36 36" fill="none" xmlns="http://www.w3.org/2000/svg">
<path d="M10 0C4.478 0 0 4.478 0 10V26C0 31.522 4.478 36 10 36H26C31.522 36 36 31.522 36 26V10C36 4.478 31.522 0 26 0H10ZM30 4C31.104 4 32 4.896 32 6C32 7.104 31.104 8 30 8C28.896 8 28 7.104 28 6C28 4.896 28.896 4 30 4ZM18 8C23.522 8 28 12.478 28 18C28 23.522 23.522 28 18 28C12.478 28 8 23.522 8 18C8 12.478 12.478 8 18 8ZM18 12C16.4087 12 14.8826 12.6321 13.7574 13.7574C12.6321 14.8826 12 16.4087 12 18C12 19.5913 12.6321 21.1174 13.7574 22.2426C14.8826 23.3679 16.4087 24 18 24C19.5913 24 21.1174 23.3679 22.2426 22.2426C23.3679 21.1174 24 19.5913 24 18C24 16.4087 23.3679 14.8826 22.2426 13.7574C21.1174 12.6321 19.5913 12 18 12Z" fill="black"/>
</svg>
