<svg width="36" height="36" viewBox="0 0 36 36" fill="none" xmlns="http://www.w3.org/2000/svg">
<path d="M32 0H4C1.79 0 0 1.79 0 4V32C0 34.21 1.79 36 4 36H32C34.21 36 36 34.21 36 32V4C36 1.79 34.21 0 32 0ZM12 28H6.954V14H12V28ZM9.388 11.434C7.846 11.434 6.816 10.406 6.816 9.034C6.816 7.662 7.844 6.634 9.558 6.634C11.1 6.634 12.13 7.662 12.13 9.034C12.13 10.406 11.102 11.434 9.388 11.434ZM30 28H25.116V20.348C25.116 18.232 23.814 17.744 23.326 17.744C22.838 17.744 21.21 18.07 21.21 20.348C21.21 20.674 21.21 28 21.21 28H16.164V14H21.21V15.954C21.86 14.814 23.162 14 25.604 14C28.046 14 30 15.954 30 20.348V28Z" fill="black"/>
</svg>
