<svg width="41" height="37" viewBox="0 0 41 37" fill="none" xmlns="http://www.w3.org/2000/svg">
<path fill-rule="evenodd" clip-rule="evenodd" d="M31.9299 15.2522L22.3945 24.1558C21.9037 24.7123 21.1324 24.9209 20.5715 24.9209C19.8704 24.9209 19.1693 24.7123 18.6084 24.1558L9.2132 15.2522C8.23162 14.2088 8.09139 12.4698 9.2132 11.3568C10.2649 10.383 12.0177 10.2439 13.0694 11.3568L20.5715 18.5215L28.2139 11.3568C29.1954 10.2439 30.9483 10.383 31.9299 11.3568C32.9114 12.4698 32.9114 14.2088 31.9299 15.2522ZM37.2668 0H4.72291C2.60967 0 0.848633 1.64108 0.848633 3.78161V15.9826C0.848633 27.0421 9.86514 36.2464 20.9949 36.2464C32.0542 36.2464 41.0002 27.0421 41.0002 15.9826V3.78161C41.0002 1.64108 39.3096 0 37.2668 0Z" fill="black"/>
</svg>
