<svg id="firefox-accounts-sync" xmlns="http://www.w3.org/2000/svg" viewBox="0 0 250 250"><style>.st0{opacity:0.5;} .st1{fill:#FFFFFF;}</style><g id="_x3C_Sync_and_Devices_x3E__1_" class="st0"><g id="_x3C_Devices_x3E__1_"><path class="st1" d="M112.6 227.4h-96V137h133.3v14.1h11V131c0-3.9-2.9-7-6.4-7H11.9c-3.5 0-6.4 3.1-6.4 7v112c0 3.9 2.9 7 6.4 7H114c-.9-1.5-1.5-3.3-1.5-5.3v-17.3zm-15.2 7c0 2.5-2.1 4.5-4.8 4.5H74.5c-2.6 0-4.8-2-4.8-4.5h27.7z"/><path class="st1" d="M202.7 238.2h-73v-71h91v7.6h10v-14.2c0-2.9-2.1-5.3-4.7-5.3H121.5c-2.6 0-4.7 2.4-4.7 5.3v84.1c0 2.9 2.1 5.3 4.7 5.3h83.1c-1.2-1.7-1.9-3.7-1.9-5.9v-5.9zm-79.4-38.4c1.6 0 2.8 1.3 2.8 2.9 0 1.6-1.3 2.9-2.8 2.9-1.6 0-2.8-1.3-2.8-2.9 0-1.6 1.2-2.9 2.8-2.9z"/><path class="st1" d="M238.6 179.1h-25.9c-3.2 0-5.9 2.7-5.9 5.9V244.1c0 3.3 2.6 5.9 5.9 5.9h25.9c3.2 0 5.9-2.7 5.9-5.9V185c0-3.3-2.7-5.9-5.9-5.9zm-16.4 4.7h7c.6 0 1.2.5 1.2 1.2s-.5 1.2-1.2 1.2h-7c-.6 0-1.2-.5-1.2-1.2s.5-1.2 1.2-1.2zm3.5 63.8c-1.9 0-3.5-1.6-3.5-3.5s1.6-3.5 3.5-3.5 3.5 1.6 3.5 3.5-1.5 3.5-3.5 3.5zm14.9-9.5H210.8V191h29.9v47.1z"/></g><path id="_x3C_Sync_x3E__1_" class="st1" d="M174 47c1-2.7 1.6-5.6 1.6-8.6 0-13.5-10.9-24.4-24.4-24.4-4.5 0-8.8 1.2-12.4 3.4C134.4 7.2 124.2 0 112.4 0 97.7 0 85.6 11.2 84 25.5c-2.9-1.7-6.2-2.6-9.8-2.6-10.9 0-19.7 8.8-19.7 19.7 0 1.5.2 3 .5 4.4-11.8 3.8-20.3 14.9-20.3 28 0 16.3 13.2 29.5 29.5 29.5h100.7c16.3 0 29.5-13.2 29.5-29.5-.1-13-8.6-24.1-20.4-28zm-73.8 37.1c-4.8-2.8-8.6-7.1-10.9-12.2-1.6-3.5-2.5-7.4-2.5-11.5 0-9 4.3-17 11-22-2.1-1.5-4.2-2.6-6.2-3.1 0 0 6.6-2.9 21.6-2.4h1.2c1.5 0 3 .1 4.4.4h.1c0 .1-2.6 4.3-3.9 12.6-.5 2.9-.8 6.3-.8 10.2 0 0-2.7-4-6.6-8.5-4.6 2.5-7.7 7.3-7.7 12.9 0 4.8 2.3 9 5.9 11.7.9.7 1.9 1.3 3 1.7-1.5 2.1-4.2 6.2-8.6 10.2zm36.1 2.4s-7.7 1.7-16.8 1.3c-4.4-.2-9.2-.8-13.6-2.5 0 0 4.7-3.7 7.6-10.1 1.3-2.9 2.3-6.4 2.3-10.3 0 0 2.1 3.9 5.8 8.6 4.5-2.5 7.5-7.3 7.5-12.8 0-3.2-1-6.1-2.7-8.5-1.6-2.3-3.9-4.1-6.6-5.1 2.1-5.4 6.4-8.7 8.7-10.2 5.1 3 9.2 7.6 11.5 13.2 1.4 3.3 2.1 6.8 2.1 10.6 0 9.1-4.4 17.2-11.3 22.2 1.8 1.4 3.6 2.6 5.5 3.6z"/></g></svg>
