<svg xmlns="http://www.w3.org/2000/svg" width="106" height="106" fill="none"><path fill="#2E62DA" d="M13.707 53c0-21.701 17.592-39.293 39.293-39.293a39.131 39.131 0 0 1 26.324 10.12.565.565 0 0 1 .07.76L53.48 58.874a.571.571 0 0 1-.747.147L35.13 48.556a1.713 1.713 0 0 0-2.348.597l-5.253 8.836a1.714 1.714 0 0 0 .597 2.349l27.268 16.21c.75.445 1.715.256 2.242-.44L96.566 24.6c.478-.633.46-1.51-.044-2.122l-2.575-3.13C84.237 7.544 69.497 0 53 0 23.729 0 0 23.729 0 53c0 29.27 23.729 53 53 53 29.27 0 53-23.729 53-53 0-6.443-1.153-12.63-3.267-18.357-.306-.828-1.399-.971-1.932-.266l-8.32 11.008a2.975 2.975 0 0 0-.557 2.203c.243 1.768.369 3.574.369 5.412 0 21.7-17.592 39.293-39.293 39.293S13.707 74.701 13.707 53Z"/></svg>
