<svg xmlns="http://www.w3.org/2000/svg" xml:space="preserve" id="Artwork" x="0" y="0" version="1.1" viewBox="0 0 342.3 80">
  <style>
    .st0{fill:#0073e6}
  </style>
  <path d="M9.5 36.7c0-15 12.2-27.2 27.2-27.2 7 0 13.4 2.6 18.2 7 .2.1.2.4 0 .5L37 40.7c-.1.2-.3.2-.5.1l-12.2-7.2c-.6-.3-1.3-.1-1.6.4l-3.6 6.1c-.3.6-.1 1.3.4 1.6L38.3 53c.5.3 1.2.2 1.6-.3L66.8 17c.3-.4.3-1 0-1.5L65 13.4C58.3 5.2 48.1 0 36.7 0 16.4 0 0 16.4 0 36.7s16.4 36.7 36.7 36.7S73.4 57 73.4 36.7c0-4.5-.8-8.7-2.3-12.7-.2-.6-1-.7-1.3-.2L64 31.4c-.3.4-.5 1-.4 1.5.2 1.2.3 2.5.3 3.7 0 15-12.2 27.2-27.2 27.2S9.5 51.7 9.5 36.7z" class="st0"/>
  <path d="M102.3 15.7v6.7h15.5v6h-15.5v12.3h-6.7v-31h22.2v6h-15.5z" class="st0"/>
  <path d="M143.8 35.3h-13.4l-2.2 5.3h-7.4l12.6-31h7.5l12.6 31H146l-2.2-5.3zm-2.1-5.2-4.6-11.3-4.6 11.3h9.2z" class="st0"/>
  <path d="M158.2 9.7h6.6v14.2l12.5-14.2h8.1l-12.1 13.4 12.9 17.5h-8.1l-9.5-12.8-3.9 4.1v8.7h-6.6V9.7z" class="st0"/>
  <path d="M198 15.7v6.2h15.5v6H198v6.8h17.2v6h-23.8v-31h23.8v6H198z" class="st0"/>
  <path d="m221.1 36.1 3.8-4.6c2.9 2.5 6.3 4.1 10.2 4.1 3.3 0 5-1.5 5-3.5 0-2.2-1.8-2.9-6.5-4-6.5-1.5-11.2-3.3-11.2-9.3 0-5.7 4.7-9.6 11.4-9.6 5 0 9 1.6 12.1 4.3l-3.5 4.8c-2.7-2.2-5.9-3.4-8.8-3.4-2.8 0-4.6 1.5-4.6 3.3 0 2.3 1.8 3 6.6 4.1 6.7 1.5 11.1 3.5 11.1 9.2 0 5.9-4.5 9.8-12 9.8-5.2-.1-10-1.9-13.6-5.2z" class="st0"/>
  <path d="M252.7 9.7h13.9c6.7 0 11.7 4.3 11.7 10.5s-5 10.5-11.7 10.5h-7.3v10.1h-6.6V9.7zm13.2 14.8c3.2 0 5.5-1.7 5.5-4.4s-2.3-4.4-5.5-4.4h-6.6v8.7h6.6z" class="st0"/>
  <path d="M281.6 25.1c0-8.7 7.5-16 16.5-16s16.5 7.3 16.5 16-7.5 16-16.5 16c-8.9.1-16.5-7.3-16.5-16zm26.1 0c0-5.4-4.4-10-9.6-10-5.2 0-9.6 4.6-9.6 10s4.4 10 9.6 10c5.2.1 9.6-4.5 9.6-10z" class="st0"/>
  <path d="M326 15.7h-9.6v-6h26v6h-9.7v25H326v-25z" class="st0"/>
  <path d="M109.2 66.1c0 2-.5 3.7-1.5 5.3-1 1.6-2.6 2.3-4.6 2.3-2.1 0-3.6-.8-4.5-2.5 0 .2-.1.6-.2 1.1-.1.5-.1.8-.2 1.1H95l.3-2.1c.1-.7.2-1.4.2-2.1v-16h3.2v9c.4-.8 1-1.5 1.7-2.1.7-.6 1.7-.9 3-.9 1.7 0 3.1.6 4.2 1.8 1.1 1.2 1.6 2.9 1.6 5.1zm-3.3.3c0-1.5-.3-2.6-1-3.4-.6-.8-1.5-1.2-2.5-1.2-1.1 0-2 .4-2.7 1.3-.6.9-1 1.8-1 2.8v1c0 1.1.3 2.1 1 2.9.7.8 1.5 1.2 2.6 1.2s2-.4 2.6-1.3c.6-.8 1-1.9 1-3.3z" class="st0"/>
  <path d="M125.2 62h-1.4l-4.5 11.4-1.5 4h2V80h-7.2v-2.6h2.3l1.3-3.9-4.8-11.5h-1.5v-2.5h6.7V62h-1.7l3.1 7.5h.2l2.5-7.5h-1.5v-2.5h6.1l-.1 2.5z" class="st0"/>
  <path d="M156.4 56.1H154v14.3h2.2v3h-7.5v-3h1.9v-9.7h-.1L144.8 72h-1.5l-6-11.5h-.1v9.9h2v3h-7.4v-3h2.2V56.1h-2.5v-3h5.3l7.2 13.8h.1l6.9-13.8h5.3v3h.1z" class="st0"/>
  <path d="M171.5 66.4c0 2.2-.7 3.9-2 5.3-1.3 1.3-3.1 2-5.2 2s-3.7-.6-5-1.9c-1.3-1.3-1.9-3-1.9-5.2 0-2 .6-3.8 1.8-5.2 1.2-1.5 2.9-2.2 5.3-2.2s4.1.7 5.3 2.2c1.1 1.3 1.7 3.1 1.7 5zm-3.3-.1c0-1.5-.3-2.6-1-3.4-.7-.8-1.6-1.2-2.7-1.2s-2 .4-2.7 1.3c-.6.8-1 2-1 3.4 0 1.3.3 2.4.9 3.4.6.9 1.5 1.4 2.7 1.4 1.2 0 2.1-.4 2.7-1.3.8-1 1.1-2.2 1.1-3.6z" class="st0"/>
  <path d="M184.8 73.4h-11.7l-.3-1.8 7.7-9.6h-4.9l-.5 2.4-2.4-.2.5-4.7h11.5l.2 1.8-7.9 9.6h5.3l.7-2.4 2.6.3-.8 4.6z" class="st0"/>
  <path d="M194 73.4h-7.2v-2.5h2V62h-2.1v-2.6h5.3v11.4h2v2.6zm-5.4-16.9v-3.4h3.3v3.4h-3.3z" class="st0"/>
  <path d="M202.4 73.4h-7.2v-2.5h2V56.1H195v-3h5.3v17.6h2l.1 2.7z" class="st0"/>
  <path d="M210.7 73.4h-7.2v-2.5h2V56.1h-2.1v-3h5.3v17.6h2v2.7z" class="st0"/>
  <path d="M213.2 60.5c1-.5 1.9-.8 2.7-1 .8-.2 1.7-.3 2.7-.3 1.5 0 2.7.4 3.7 1.2 1 .8 1.5 2 1.5 3.5v6.3c0 .8.3 1.2 1 1.2.2 0 .4 0 .7-.1v1.8c-.7.4-1.4.6-2.2.6-1.7 0-2.6-.9-2.8-2.8v-.1c-.4.7-1 1.4-1.7 2-.7.6-1.6.9-2.7.9-.9 0-1.9-.3-2.8-.9-.9-.6-1.4-1.6-1.4-3.1 0-1.7.7-2.9 2-3.4s2.8-.8 4.3-.8h1.2c.4 0 .8.1 1.1.1v-.8c0-.8-.1-1.6-.4-2.2-.3-.7-1-1-2.1-1-.4 0-.8 0-1.2.1-.4.1-.7.2-1.1.4l-.5 2.1-2.6-.3.6-3.4zm7.4 7.4v-.5c-.3 0-.7-.1-1.1-.1-.4 0-.7-.1-1.1-.1-.8 0-1.5.1-2.2.4-.6.3-.9.9-.9 1.7 0 1.3.7 1.9 2 1.9.8 0 1.5-.3 2.2-.9.6-.5 1-1.3 1.1-2.4z" class="st0"/>
</svg>
