<svg height="423" width="624" xmlns="http://www.w3.org/2000/svg" xmlns:xlink="http://www.w3.org/1999/xlink"><defs><rect id="a" height="70.673" rx="3.028" width="105.903" x="85.138" y="188.115"/><filter id="b" height="142.4%" width="128.3%" x="-14.2%" y="-21.2%"><feMorphology in="SourceAlpha" operator="dilate" radius=".5" result="shadowSpreadOuter1"/><feOffset in="shadowSpreadOuter1" result="shadowOffsetOuter1"/><feGaussianBlur in="shadowOffsetOuter1" result="shadowBlurOuter1" stdDeviation="4.5"/><feColorMatrix in="shadowBlurOuter1" values="0 0 0 0 0 0 0 0 0 0 0 0 0 0 0 0 0 0 0.07 0"/></filter><rect id="c" height="70.673" rx="3.028" width="105.903" x="85.138" y="269.182"/><filter id="d" height="142.4%" width="128.3%" x="-14.2%" y="-21.2%"><feMorphology in="SourceAlpha" operator="dilate" radius=".5" result="shadowSpreadOuter1"/><feOffset in="shadowSpreadOuter1" result="shadowOffsetOuter1"/><feGaussianBlur in="shadowOffsetOuter1" result="shadowBlurOuter1" stdDeviation="4.5"/><feColorMatrix in="shadowBlurOuter1" values="0 0 0 0 0 0 0 0 0 0 0 0 0 0 0 0 0 0 0.07 0"/></filter><rect id="e" height="70.673" rx="3.028" width="105.903" x="201.424" y="188.115"/><filter id="f" height="142.4%" width="128.3%" x="-14.2%" y="-21.2%"><feMorphology in="SourceAlpha" operator="dilate" radius=".5" result="shadowSpreadOuter1"/><feOffset in="shadowSpreadOuter1" result="shadowOffsetOuter1"/><feGaussianBlur in="shadowOffsetOuter1" result="shadowBlurOuter1" stdDeviation="4.5"/><feColorMatrix in="shadowBlurOuter1" values="0 0 0 0 0 0 0 0 0 0 0 0 0 0 0 0 0 0 0.07 0"/></filter><rect id="g" height="29.101" rx="3.028" width="265.797"/><filter id="h" height="203.1%" width="111.3%" x="-5.6%" y="-51.5%"><feMorphology in="SourceAlpha" operator="dilate" radius=".5" result="shadowSpreadOuter1"/><feOffset in="shadowSpreadOuter1" result="shadowOffsetOuter1"/><feGaussianBlur in="shadowOffsetOuter1" result="shadowBlurOuter1" stdDeviation="4.5"/><feColorMatrix in="shadowBlurOuter1" values="0 0 0 0 0 0 0 0 0 0 0 0 0 0 0 0 0 0 0.07 0"/></filter><rect id="i" height="70.673" rx="3.028" width="105.903" x="201.424" y="269.182"/><filter id="j" height="142.4%" width="128.3%" x="-14.2%" y="-21.2%"><feMorphology in="SourceAlpha" operator="dilate" radius=".5" result="shadowSpreadOuter1"/><feOffset in="shadowSpreadOuter1" result="shadowOffsetOuter1"/><feGaussianBlur in="shadowOffsetOuter1" result="shadowBlurOuter1" stdDeviation="4.5"/><feColorMatrix in="shadowBlurOuter1" values="0 0 0 0 0 0 0 0 0 0 0 0 0 0 0 0 0 0 0.07 0"/></filter><rect id="k" height="70.673" rx="3.028" width="105.903" x="317.71" y="188.115"/><filter id="l" height="142.4%" width="128.3%" x="-14.2%" y="-21.2%"><feMorphology in="SourceAlpha" operator="dilate" radius=".5" result="shadowSpreadOuter1"/><feOffset in="shadowSpreadOuter1" result="shadowOffsetOuter1"/><feGaussianBlur in="shadowOffsetOuter1" result="shadowBlurOuter1" stdDeviation="4.5"/><feColorMatrix in="shadowBlurOuter1" values="0 0 0 0 0 0 0 0 0 0 0 0 0 0 0 0 0 0 0.07 0"/></filter><rect id="m" height="70.673" rx="3.028" width="105.903" x="317.71" y="269.182"/><filter id="n" height="142.4%" width="128.3%" x="-14.2%" y="-21.2%"><feMorphology in="SourceAlpha" operator="dilate" radius=".5" result="shadowSpreadOuter1"/><feOffset in="shadowSpreadOuter1" result="shadowOffsetOuter1"/><feGaussianBlur in="shadowOffsetOuter1" result="shadowBlurOuter1" stdDeviation="4.5"/><feColorMatrix in="shadowBlurOuter1" values="0 0 0 0 0 0 0 0 0 0 0 0 0 0 0 0 0 0 0.07 0"/></filter><rect id="o" height="70.673" rx="3.028" width="105.903" x="432.958" y="188.115"/><filter id="p" height="142.4%" width="128.3%" x="-14.2%" y="-21.2%"><feMorphology in="SourceAlpha" operator="dilate" radius=".5" result="shadowSpreadOuter1"/><feOffset in="shadowSpreadOuter1" result="shadowOffsetOuter1"/><feGaussianBlur in="shadowOffsetOuter1" result="shadowBlurOuter1" stdDeviation="4.5"/><feColorMatrix in="shadowBlurOuter1" values="0 0 0 0 0 0 0 0 0 0 0 0 0 0 0 0 0 0 0.07 0"/></filter><rect id="q" height="70.673" rx="3.028" width="105.903" x="432.958" y="269.182"/><filter id="r" height="142.4%" width="128.3%" x="-14.2%" y="-21.2%"><feMorphology in="SourceAlpha" operator="dilate" radius=".5" result="shadowSpreadOuter1"/><feOffset in="shadowSpreadOuter1" result="shadowOffsetOuter1"/><feGaussianBlur in="shadowOffsetOuter1" result="shadowBlurOuter1" stdDeviation="4.5"/><feColorMatrix in="shadowBlurOuter1" values="0 0 0 0 0 0 0 0 0 0 0 0 0 0 0 0 0 0 0.07 0"/></filter><mask id="s" fill="#fff"><path d="m0 0h28.983v29.012h-28.983z" fill="#fff" fill-rule="evenodd"/></mask></defs><g fill="none" fill-rule="evenodd"><path d="m6.728 0h610.544a6.728 6.728 0 0 1 6.728 6.728v412.067a4.205 4.205 0 0 1 -4.205 4.205h-615.59a4.205 4.205 0 0 1 -4.205-4.205v-412.067a6.728 6.728 0 0 1 6.728-6.728z" fill="#f9f9fa"/><use fill="#000" filter="url(#b)" xlink:href="#a"/><use fill="#fff" xlink:href="#a"/><path d="m138.09 238.002c-8.028 0-14.536-6.514-14.536-14.55s6.508-14.55 14.536-14.55 14.536 6.514 14.536 14.55-6.508 14.55-14.536 14.55zm9.695-14.55a2.12 2.12 0 1 0 -3.59-1.455 10.342 10.342 0 0 0 -5.596-1.79l.944-4.54 3.111.655a1.454 1.454 0 1 0 .189-.887l-3.561-.713a.45.45 0 0 0 -.538.35l-1.076 5.048c-2.023.03-3.994.653-5.669 1.79a2.12 2.12 0 0 0 -3.576 1.515 2.125 2.125 0 0 0 1.236 1.962 4.18 4.18 0 0 0 0 .64c0 3.26 3.794 5.908 8.474 5.908 4.681 0 8.475-2.648 8.475-5.907a4.18 4.18 0 0 0 0-.64 2.125 2.125 0 0 0 1.177-1.936zm-14.536 1.455a1.454 1.454 0 1 1 2.91-.001 1.454 1.454 0 0 1 -2.91.001zm8.446 4.001a5.578 5.578 0 0 1 -3.59 1.12 5.578 5.578 0 0 1 -3.59-1.12.393.393 0 0 1 .551-.552 4.75 4.75 0 0 0 3.024.916 4.764 4.764 0 0 0 3.038-.887.406.406 0 1 1 .567.582zm-.262-2.488a1.454 1.454 0 1 1 1.454-1.455 1.456 1.456 0 0 1 -1.468 1.514z" fill="#888" fill-rule="nonzero"/><use fill="#000" filter="url(#d)" xlink:href="#c"/><use fill="#fff" xlink:href="#c"/><path d="m152.518 297.018c-.13 2.924-2.1 6.928-5.91 12.01-3.94 5.307-7.273 7.962-10 7.962-1.69 0-3.119-1.616-4.286-4.849l-2.339-8.89c-.867-3.232-1.797-4.85-2.792-4.85-.217 0-.975.473-2.274 1.415l-1.363-1.82c1.43-1.303 2.84-2.605 4.229-3.91 1.907-1.708 3.34-2.606 4.294-2.697 2.254-.225 3.642 1.373 4.163 4.794.564 3.69.954 5.985 1.172 6.884.65 3.062 1.366 4.592 2.147 4.592.606 0 1.517-.993 2.732-2.98 1.213-1.986 1.863-3.497 1.95-4.536.175-1.714-.476-2.573-1.95-2.573-.693 0-1.409.165-2.144.492 1.424-4.835 4.145-7.183 8.16-7.05 2.978.091 4.382 2.093 4.21 6.006" fill="#888"/><use fill="#000" filter="url(#f)" xlink:href="#e"/><use fill="#fff" xlink:href="#e"/><path d="m23.063 12.86c-4.67-2.777-12.376-3.032-16.835-1.678a1.357 1.357 0 0 1 -.787-2.596c5.119-1.556 13.628-1.255 19.006 1.94a1.357 1.357 0 0 1 -1.384 2.334m-.152 4.113a1.13 1.13 0 0 1 -1.555.372c-3.894-2.396-9.832-3.09-14.44-1.69a1.131 1.131 0 0 1 -.656-2.164c5.263-1.599 11.806-.825 16.279 1.927.53.327.698 1.024.372 1.555m-1.774 3.95a.902.902 0 0 1 -1.242.3c-3.403-2.081-7.686-2.552-12.73-1.398a.903.903 0 1 1 -.402-1.763c5.52-1.263 10.255-.72 14.075 1.617.425.26.56.817.3 1.244m-6.648-20.923c-8.002 0-14.489 6.495-14.489 14.506 0 8.012 6.487 14.506 14.49 14.506 8.004 0 14.492-6.494 14.492-14.506 0-8.011-6.488-14.506-14.493-14.506" fill="#888" mask="url(#s)" transform="translate(239.84 208.902)"/><g transform="translate(178.582 119.52)"><use fill="#000" filter="url(#h)" xlink:href="#g"/><use fill="#fff" xlink:href="#g"/><rect fill="#bbb" fill-rule="nonzero" height="5.82" rx=".841" width="109.272" x="9.844" y="11.64"/><g stroke="#9b9b9b" stroke-width="1.121" transform="translate(238.233 8.73)"><ellipse cx="4.594" cy="4.527" rx="4.594" ry="4.527"/><path d="m7.875 7.76 3.938 3.88" stroke-linecap="round"/></g></g><use fill="#000" filter="url(#j)" xlink:href="#i"/><use fill="#fff" xlink:href="#i"/><path d="m246.31 289.968 8.546 5.456-8.547 5.457-8.545-5.457 8.545-5.456zm17.091 0 8.546 5.456-8.546 5.457-8.545-5.457zm-25.637 16.37 8.545-5.457 8.547 5.456-8.547 5.457-8.545-5.457zm25.637-5.457 8.546 5.456-8.546 5.457-8.545-5.457zm-17.092 12.731 8.547-5.456 8.545 5.456-8.545 5.457z" fill="#888" fill-rule="nonzero"/><use fill="#000" filter="url(#l)" xlink:href="#k"/><use fill="#fff" xlink:href="#k"/><path d="m370.658 208.96c3.946 0 4.44.016 5.99.087 1.548.07 2.604.316 3.528.675.956.37 1.766.867 2.574 1.674a7.115 7.115 0 0 1 1.676 2.571c.36.924.605 1.979.675 3.524.071 1.548.088 2.043.088 5.985 0 3.943-.017 4.437-.088 5.986-.07 1.545-.316 2.6-.675 3.523a7.114 7.114 0 0 1 -1.676 2.572 7.124 7.124 0 0 1 -2.574 1.674c-.924.359-1.98.604-3.527.675-1.55.07-2.045.087-5.991.087-3.947 0-4.442-.016-5.992-.087-1.546-.07-2.603-.316-3.527-.675a7.124 7.124 0 0 1 -2.574-1.674 7.115 7.115 0 0 1 -1.676-2.572c-.359-.923-.605-1.978-.675-3.523-.07-1.549-.088-2.043-.088-5.986 0-3.942.017-4.437.088-5.985.07-1.545.316-2.6.675-3.524a7.115 7.115 0 0 1 1.676-2.571 7.123 7.123 0 0 1 2.574-1.674c.924-.36 1.98-.605 3.527-.675 1.55-.07 2.045-.088 5.992-.088zm0 2.615c-3.88 0-4.34.015-5.872.085-1.417.064-2.186.3-2.698.5a4.502 4.502 0 0 0 -1.671 1.085 4.497 4.497 0 0 0 -1.087 1.67c-.2.511-.436 1.28-.5 2.695-.07 1.531-.085 1.99-.085 5.866 0 3.877.014 4.336.084 5.866.065 1.416.302 2.184.5 2.696a4.498 4.498 0 0 0 1.088 1.67c.508.507.992.822 1.67 1.085.513.199 1.282.435 2.699.5 1.532.07 1.991.085 5.872.085 3.88 0 4.34-.015 5.871-.085 1.417-.065 2.187-.301 2.699-.5a4.502 4.502 0 0 0 1.67-1.086 4.499 4.499 0 0 0 1.088-1.669c.199-.512.435-1.28.5-2.696.07-1.53.085-1.99.085-5.866s-.015-4.335-.085-5.866c-.065-1.415-.301-2.184-.5-2.695a4.499 4.499 0 0 0 -1.087-1.67 4.503 4.503 0 0 0 -1.671-1.085c-.512-.2-1.282-.436-2.699-.5-1.532-.07-1.991-.085-5.871-.085zm0 16.74a4.841 4.841 0 0 0 4.843-4.839 4.841 4.841 0 0 0 -4.843-4.839 4.841 4.841 0 0 0 -4.844 4.84 4.841 4.841 0 0 0 4.844 4.838zm0-12.293c4.12 0 7.462 3.337 7.462 7.454s-3.341 7.455-7.462 7.455-7.462-3.338-7.462-7.455 3.34-7.454 7.462-7.454zm9.5-.295a1.743 1.743 0 1 1 -3.486-.002 1.743 1.743 0 0 1 3.486.002z" fill="#888"/><use fill="#000" filter="url(#n)" xlink:href="#m"/><use fill="#fff" xlink:href="#m"/><path d="m383.121 289.635c0 3.696-3.047 5.64-6.094 5.64v6.031l3.25 2.529v.194l-3.25 2.53v7.975c2.235-1.168 4.063-3.502 5.282-6.03h.406c0 6.419-5.281 12.643-13.407 12.643-7.516 0-14.22-5.835-14.22-13.616 0-6.614 5.485-12.06 11.58-13.617l.202.584c-2.234 1.167-4.469 2.918-5.281 5.446l10.157-4.28v13.423l-8.33 3.89c2.235 2.335 4.876 3.113 7.923 3.113 1.625 0 3.454-.195 5.079-1.167v-8.365l-3.047-2.529v-.194l3.047-2.529v-6.03c-1.625-.195-4.672-.778-7.516-1.556-3.25-.973-5.688-1.751-7.516-1.751-2.032 0-2.844 1.362-2.844 2.14 0 1.167.609 1.556 1.015 1.945l-.203.389c-.812-.39-3.047-1.362-3.047-4.28 0-3.307 2.844-6.224 6.907-6.224 2.031 0 4.469.778 7.11 1.75 2.234.778 5.281 1.557 6.703 1.557 1.829 0 2.438-1.168 2.438-1.946 0-1.361-1.422-1.945-3.25-1.945v-.584c3.047 0 6.906.973 6.906 4.864zm-17.673 21.397v-12.06l-4.266 1.75c-.406 1.168-.406 2.724-.406 4.085 0 3.307.813 5.642 2.235 7.392z" fill="#888"/><use fill="#000" filter="url(#p)" xlink:href="#o"/><use fill="#fff" xlink:href="#o"/><path d="m466.183 203.705h39.454v39.495h-39.454z"/><path d="m481.335 233.483c9.306 0 14.395-7.718 14.395-14.41 0-.219 0-.437-.014-.654a10.3 10.3 0 0 0 2.524-2.622 10.09 10.09 0 0 1 -2.906.797 5.081 5.081 0 0 0 2.224-2.801c-.993.59-2.08 1.006-3.213 1.23a5.06 5.06 0 0 0 -6.078-.997 5.07 5.07 0 0 0 -2.543 5.615 14.358 14.358 0 0 1 -10.427-5.291 5.071 5.071 0 0 0 1.566 6.76 5.018 5.018 0 0 1 -2.296-.634v.064a5.065 5.065 0 0 0 4.059 4.965 5.046 5.046 0 0 1 -2.284.087 5.066 5.066 0 0 0 4.726 3.517 10.145 10.145 0 0 1 -7.487 2.099 14.312 14.312 0 0 0 7.754 2.27" fill="#888" fill-rule="nonzero"/><use fill="#000" filter="url(#r)" xlink:href="#q"/><use fill="#fff" xlink:href="#q"/><path d="m477.564 308.32a3.033 3.033 0 0 1 -3.025 3.028 3.033 3.033 0 0 1 -3.024-3.028 3.033 3.033 0 0 1 3.024-3.027h3.025zm1.524 0a3.033 3.033 0 0 1 3.024-3.027 3.033 3.033 0 0 1 3.024 3.027v7.58a3.033 3.033 0 0 1 -3.024 3.028 3.033 3.033 0 0 1 -3.024-3.027v-7.58zm3.024-12.156a3.033 3.033 0 0 1 -3.024-3.028 3.033 3.033 0 0 1 3.024-3.027 3.033 3.033 0 0 1 3.024 3.027v3.028zm0 1.525a3.033 3.033 0 0 1 3.024 3.028 3.033 3.033 0 0 1 -3.024 3.027h-7.573a3.033 3.033 0 0 1 -3.024-3.027 3.033 3.033 0 0 1 3.024-3.028zm12.144 3.028a3.033 3.033 0 0 1 3.025-3.028 3.033 3.033 0 0 1 3.024 3.028 3.033 3.033 0 0 1 -3.024 3.027h-3.025zm-1.523 0a3.033 3.033 0 0 1 -3.025 3.027 3.033 3.033 0 0 1 -3.024-3.027v-7.58a3.033 3.033 0 0 1 3.024-3.028 3.033 3.033 0 0 1 3.025 3.027v7.58zm-3.025 12.156a3.033 3.033 0 0 1 3.025 3.028 3.033 3.033 0 0 1 -3.025 3.027 3.033 3.033 0 0 1 -3.024-3.027v-3.028zm0-1.525a3.033 3.033 0 0 1 -3.024-3.028 3.033 3.033 0 0 1 3.024-3.027h7.573a3.033 3.033 0 0 1 3.024 3.027 3.033 3.033 0 0 1 -3.024 3.028z" fill="#888" fill-rule="nonzero"/><path d="m4.205 0h615.59a4.205 4.205 0 0 1 4.205 4.205v19.7h-624v-19.7a4.205 4.205 0 0 1 4.205-4.205z" fill="#2c2831" fill-rule="nonzero"/><path d="m0 403.253h624v15.542a4.205 4.205 0 0 1 -4.205 4.205h-615.59a4.205 4.205 0 0 1 -4.205-4.205zm37.378-403.253h123.554v23.904h-123.554zm-37.378 23.904h624v31.179h-624z" fill="#e1e1e2" fill-rule="nonzero"/><path d="m139.772 29h353.8c.93 0 1.683.753 1.683 1.682v16.636c0 .929-.753 1.682-1.682 1.682h-353.801a1.682 1.682 0 0 1 -1.682-1.682v-16.636c0-.929.753-1.682 1.682-1.682z" fill="#fff"/><g fill-rule="nonzero"><rect fill="#bebebf" height="11.432" rx="1.682" width="11.421" x="45.684" y="33.258"/><rect fill="#bebebf" height="11.432" rx="1.682" width="11.421" x="603.235" y="33.258"/><rect fill="#bebebf" height="8.314" rx="1.682" width="56.067" x="64.373" y="8.314"/><rect fill="#bbb" height="6.236" rx=".841" width="153.664" x="167.161" y="36.376"/><rect fill="#bebebf" height="15.59" rx="1.682" width="15.574" x="45.684" y="5.197"/><rect fill="#bebebf" height="11.432" rx="1.682" width="11.421" x="65.411" y="33.258"/><rect fill="#bebebf" height="11.432" rx="1.682" width="11.421" x="85.138" y="33.258"/></g><ellipse cx="24.399" cy="38.974" fill="#bebebf" rx="10.902" ry="10.913"/><path d="m9.344 46.722h614.656v.779h-614.656z"/><path d="m48.595 89.256c-.01-.062-.017-.095-.017-.095-.209.373-.471.69-.471.69 0-2.257-1.678-5.211-2.764-6.853a16.495 16.495 0 0 0 -.809-1.136c-.574-.71-.862-1.625-.862-1.625a3.51 3.51 0 0 0 -.453 1.014c-.052.188-.073.313-.073.313s-.182-.285-.717-.792a12.349 12.349 0 0 0 -.72-.626c-1.1-.893-1.459-2.198-1.459-2.198s-.58.574-1.134 1.535a8.17 8.17 0 0 0 -.438.874 6.634 6.634 0 0 0 -.558 2.604c0 2.906 2.465 4.805 2.465 4.805s1.532.779 1.532 4.045-3.143 5.384-6.111 5.384-4.293-2.105-4.293-2.105c2.598.666 3.495.045 4.293-.458.798-.504 1.228-.412 1.723-.412s.527-.549-.24-1.205c0 0-.606-.503-1.483-.503-.878 0-1.532.487-2.426.487 0 0-1.454-.07-2.25-1.235-.81-1.189-.032-2.731 1.309-1.526 0 0 .367-.427.223-1.632 0 0 .112-.29 1.038-.641.925-.351 1.914-.733 1.914-1.8 0 0-.111-.382-1.835-.443-.759-.027-1.196-.513-1.447-1.048 0-.002.527-1.438 2.018-2.25a.022.022 0 0 0 -.005-.043c-.343-.08-2.169-.415-3.566 1.114 0 0-.462-.367-1.866-.367-.334 0-.695.032-1.07.107a3.768 3.768 0 0 1 -.69-.888 3.552 3.552 0 0 1 -.46-1.727c0-.02-.026-.031-.041-.017-2.091 1.872-1.773 4.313-1.773 4.313-.888.942-1.678 2.339-2.198 4.376-.004.013.016.02.022.008.118-.212.447-.786.802-1.274 0 0-.847 1.272-.863 4.396 0 .014.02.017.024.004.062-.219.23-.815.366-1.303h.003c-.001.069-.003.138-.003.208 0 6.745 5.719 12.214 12.774 12.214 2.811 0 4.516-.591 5.527-1.2a5.19 5.19 0 0 0 .357-.235c.786-.566 1.009-1.085 1.009-1.085a10.242 10.242 0 0 0 1.88-1.011 6.883 6.883 0 0 0 1.135-.975 5.36 5.36 0 0 0 .477-.598 4.135 4.135 0 0 0 .664-1.52c.083-.414.056-.672.056-.672.29-.431.528-.87.724-1.308 1.171-2.611.843-5.17.76-5.685" fill="#4a4a4a"/></g></svg>