<svg width="65" height="65" viewBox="0 0 65 65" xmlns="http://www.w3.org/2000/svg"><defs><linearGradient x1="100%" y1="0%" x2="0%" y2="100%" id="a"><stop stop-color="#05C8E5" offset="0%"/><stop stop-color="#008BFF" offset="100%"/></linearGradient></defs><path d="M79.625 56.946c-.24 0-.48-.062-.693-.187-.428-.25-.69-.714-.682-1.21v-3.003c-.016-.71.51-1.312 1.224-1.39.397-.046.788.085 1.08.352.293.268.455.648.447 1.045v3c.008.49-.253.954-.68 1.204-.215.124-.455.186-.695.186zm-7.477 2.99c-.367 0-.725-.147-.987-.417l-1.997-2.002c-.38-.365-.518-.932-.344-1.44.174-.507.632-.87 1.166-.92.416-.04.825.107 1.118.408l1.998 2.002c.353.336.5.85.378 1.33-.122.484-.497.863-.978.992-.117.032-.236.047-.354.047zm-5.544 6.477c-.716 0-1.327-.578-1.36-1.314-.037-.757.548-1.403 1.302-1.443h3.115c.457-.014.955.254 1.205.683.25.43.25.96 0 1.39-.25.428-.71.687-1.21.682h-3.052zm23.014 0c-.715 0-1.326-.578-1.36-1.314-.036-.757.55-1.403 1.303-1.443h3.116c.492-.022.953.254 1.203.683.248.43.248.96 0 1.39-.25.428-.7.676-1.21.682h-3.052zm-5.635-5.753l-4.147 2.54c-.122.077-.26.135-.404.17-.82.178-1.433.896-1.433 1.672 0 .914.713 1.63 1.625 1.63.947 0 1.583-.94 1.646-1.343.022-.172.08-.346.172-.506l2.54-4.164zm-4.358 8.78c-2.414 0-4.377-1.97-4.377-4.387 0-1.917 1.337-3.655 3.253-4.228l8.918-5.475c.184-.11.392-.177.603-.194.52-.048 1.01.205 1.285.648.273.442.275.994.006 1.438l-5.476 8.98c-.452 1.61-1.92 3.217-4.21 3.217zm7.51 2.767c.298 0 .594.1.83.28l3.463 2.7c2.508-2.91 3.832-6.403 3.832-10.124 0-8.638-7.014-15.666-15.635-15.666-8.62 0-15.635 7.028-15.635 15.666 0 3.72 1.324 7.214 3.832 10.123l3.458-2.697c.24-.184.537-.283.836-.283h15.018zm-19.518 6.256c-.35 0-.7-.133-.966-.393-3.49-3.498-5.41-8.115-5.41-13.003 0-10.158 8.247-18.42 18.385-18.42 10.138 0 18.386 8.262 18.386 18.42 0 4.888-1.92 9.505-5.408 13-.492.483-1.27.528-1.81.11l-4.12-3.21H72.578l-4.12 3.21c-.248.19-.545.286-.84.286zM79.625 35C63.29 35 50 48.29 50 64.625 50 80.96 63.29 94.25 79.625 94.25c16.336 0 29.626-13.29 29.626-29.625S95.96 35 79.626 35zm0 62C61.773 97 47.25 82.477 47.25 64.625c0-17.85 14.523-32.375 32.375-32.375S112 46.774 112 64.625C112 82.477 97.477 97 79.625 97z" transform="translate(-47 -32)" fill="url(#a)" fill-rule="evenodd"/></svg>
