<svg fill="none" height="20" viewBox="0 0 24 20" width="24" xmlns="http://www.w3.org/2000/svg"><path d="m7.548 19.7501c9.0555 0 14.01-7.503 14.01-14.01 0-.213 0-.4245-.015-.636.9638-.69693 1.7958-1.55989 2.457-2.5485-.9.399-1.8525.66-2.8275.7755 1.0279-.61554 1.7971-1.58361 2.1645-2.724003-.9668.573733-2.0245.978053-3.1275 1.195503-.7427-.78793-1.7241-1.309393-2.7928-1.483821-1.0686-.174429-2.1649.007877-3.1196.518757-.9547.510884-1.7146 1.321904-2.1623 2.307784-.4477.98587-.5584 2.09175-.3148 3.14678-1.95761-.09774-3.8728-.60602-5.62124-1.49187-1.74845-.88586-3.29108-2.12947-4.52776-3.65013-.62928 1.08377-.82196 2.3666-.53884 3.58742.28312 1.22083 1.02077 2.2879 2.06284 2.98408-.78367-.02325-1.55024-.2347-2.235-.6165v.0615c.00001 1.1372.39348 2.23937 1.11364 3.1195.72017.8801 1.72266 1.4839 2.83736 1.709-.726.198-1.485.2265-2.2245.084.3145.9786.92705 1.8343 1.75195 2.4476.8249.6132 1.82087.9532 2.84855.9724-1.02112.8019-2.19027 1.3947-3.44063 1.7445-1.25035.3497-2.55738.4497-3.84637.294 2.25197 1.4451 4.87224 2.2116 7.548 2.208" fill="#000"/></svg>