<?xml version="1.0" encoding="utf-8"?>
<!-- Generator: Adobe Illustrator 19.0.0, SVG Export Plug-In . SVG Version: 6.00 Build 0)  -->
<svg version="1.1" xmlns="http://www.w3.org/2000/svg" xmlns:xlink="http://www.w3.org/1999/xlink" x="0px" y="0px"
	 viewBox="0 0 177.5 217" style="enable-background:new 0 0 177.5 217;" xml:space="preserve">
<style type="text/css">
	.st0{fill:#99CC01;}
	.st1{fill:#BAEC25;}
	.st2{fill:#7EA800;}
	.st3{fill-rule:evenodd;clip-rule:evenodd;fill:#FFFFFF;}
</style>
<g id="Layer_2">
	<path class="st0" d="M126.6,51.9c-1.1,0-2-0.9-2-2c0,0,0.1-21,0.2-49.9H9C4,0,0,4,0,9v199c0,5,4,9,9,9h159.5c5,0,9-4,9-9V51.9
		H126.6z"/>
	<g>
		<path class="st1" d="M124.6,49.9c0,1.1,0.9,2,2,2h2.8l-4.7-4.7C124.6,49,124.6,49.9,124.6,49.9z"/>
		<path class="st1" d="M177.5,51.9l-0.1-0.1c0,0,0,0.1,0,0.1H177.5z"/>
		<polygon class="st2" points="124.6,47.3 124.6,47.3 124.6,47.3 		"/>
		<path class="st2" d="M177.4,51.8h-50.5L177.2,95C177.3,74.2,177.4,57.8,177.4,51.8z"/>
		<path class="st1" d="M124.7-0.2c-0.1,25.1-0.2,44.8-0.3,52h53L124.7-0.2z"/>
	</g>
</g>
<g id="Layer_1">
	<g>
		<g>
			<g>
				<path class="st3" d="M121,139.8l12.3-17.8c0.7-1.1,0.5-2.4-0.4-3.1c-0.9-0.7-2.3-0.3-3,0.7l-12.7,18.5
					c-8.4-3.3-17.7-5.1-27.5-5.1c-9.8,0-19.1,1.8-27.5,5.1l-12.7-18.5c-0.7-1.1-2.1-1.4-3-0.7c-1,0.7-1.1,2-0.4,3.1l12.3,17.8
					c-19.5,9.1-33.1,26.3-34.9,46.4h132.6C154.1,166.1,140.5,148.9,121,139.8z M61.6,167.8c-4.1,0-7.3-3.3-7.3-7.3s3.3-7.3,7.3-7.3
					c4.1,0,7.3,3.3,7.3,7.3S65.6,167.8,61.6,167.8z M118.5,167.8c-4.1,0-7.3-3.3-7.3-7.3s3.3-7.3,7.3-7.3s7.3,3.3,7.3,7.3
					S122.5,167.8,118.5,167.8z"/>
			</g>
		</g>
	</g>
	<path class="st3" d="M75.7,50.7h30l0.1,29.7l14,0L90.7,110l-29-29.7h14C75.8,80.4,75.7,48.7,75.7,50.7z"/>
</g>
</svg>
