<svg xmlns="http://www.w3.org/2000/svg" xmlns:xlink="http://www.w3.org/1999/xlink" width="245" height="222" overflow="visible"><linearGradient id="a" gradientUnits="userSpaceOnUse" x1="-3015.3" y1="936.3" x2="-3015.3" y2="719.8" gradientTransform="translate(3138 -719.8)"><stop offset="0" stop-color="#1C75BC"/><stop offset="1" stop-color="#27AAE1"/></linearGradient><path fill="url(#a)" d="M184.2.1v-.1l-.2.1-.1-.1v.1l-61.2 24.5-61.1-24.5v-.1l-.2.1-.1-.1v.1l-61.3 24.5v191.9l61.4-23.5 61.2 23.4v.1h.30000000000000004v-.1l61.1-23.4 61.5 23.5v-191.9z"/><linearGradient id="b" gradientUnits="userSpaceOnUse" x1="-3107.2" y1="936.3" x2="-3107.2" y2="719.8" gradientTransform="translate(3138 -719.8)"><stop offset="0" stop-color="#014D92"/><stop offset="1" stop-color="#0B92C8"/></linearGradient><path fill="url(#b)" d="M0 24.6v191.9l61.6-23.5v-193z"/><linearGradient id="c" gradientUnits="userSpaceOnUse" x1="-3045.9" y1="936.3" x2="-3045.9" y2="719.8" gradientTransform="translate(3138 -719.8)"><stop offset="0" stop-color="#00549F"/><stop offset="1" stop-color="#00A0DB"/></linearGradient><path fill="url(#c)" d="M122.9 24.6v191.9l-61.6-23.5v-193z"/><linearGradient id="d" gradientUnits="userSpaceOnUse" x1="-2984.6" y1="936.3" x2="-2984.6" y2="719.8" gradientTransform="translate(3138 -719.8)"><stop offset="0" stop-color="#014D92"/><stop offset="1" stop-color="#0B92C8"/></linearGradient><path fill="url(#d)" d="M122.6 24.6v191.9l61.6-23.5v-193z"/><linearGradient id="e" gradientUnits="userSpaceOnUse" x1="-2923.3" y1="936.3" x2="-2923.3" y2="719.8" gradientTransform="translate(3138 -719.8)"><stop offset="0" stop-color="#00549F"/><stop offset="1" stop-color="#00A0DB"/></linearGradient><path fill="url(#e)" d="M245.5 24.6v191.9l-61.6-23.5v-193z"/><defs><path id="f" d="M210.739 112.224c-2.154-6.46-1.541-17.484-2.646-19.073-7.177-9.854-33.362-11.594-45.128-24.572 2.068-6.386-2.135-11.688-6.429-15.727-6.451-4.701-15.419-2.626-22.343-.746-7.852-1.664-15.12-4.47-22.762-6.711-17.026-1.86-33.906 10.16-33.906 10.16-12.145 7.745-31.225 23.745-40.325 33.057 2.233.3 4.612-1.361 7.132-1.668l17.456-4.528c-7.281 6.008-22.583 16.573-27.048 24.956 5.452-1.868 16.911-8.194 22.585-8.673-4.988 4.399-15.38 12.735-18.661 18.062.389.2.1.7.2.98 4.277-2.354 14.678-8.516 19.38-8.905-4.875 5.053-13.835 14.781-15.832 21.326 4.223-2.759 14.828-8.343 19.458-10.026-1.072 2.582-3.422 4.486-4.958 7.1-2.123 3.567-7.104 7.605-7.327 11.86 3.708-3.447 8.296-6.468 12.905-8.883-2.081 4.287-5.863 7.818-6.927 12.9 3.03-2.925 8.736-4.418 12.618-5.753l-.467.451c-.333.275-4.726 3.375-7.715 6.845 2.642-.149.675-.483 4 .3l1.828.099c-.911.475-1.907 1-2.959 1.558-1.628.863-3.384 1.805-5.157 2.774 7.252 9.3 16.3 16.7 26.6 21.7 13.469 6.6 28.1 8.7 42.8 7.04-.176-.863-.368-1.722-.593-2.574l-.005-.015c-.269-1.041-.584-2.068-.953-3.08l-.059-.165c5.027-9.336 2.385-25.333 15.255-31.749 8.661-4.415 9.647-6.849 19.6-4.949 5.377 1 17.1 5.1 22.8 3.87 5.126-2.842 7.705-4.145 12.132-7.444 5.537 1 7.3.4 9.368-2.491-1.845 2.6 3.587-10.016 5.882-14.753l.201-2.553z"/></defs><clipPath id="g"><use xlink:href="#f" overflow="visible"/></clipPath><ellipse clip-path="url(#g)" fill="#fff" cx="122.6" cy="113.1" rx="114" ry="77.3"/><defs><path id="h" d="M210.739 112.224c-2.154-6.46-1.541-17.484-2.646-19.073-7.177-9.854-33.362-11.594-45.128-24.572 2.068-6.386-2.135-11.688-6.429-15.727-6.451-4.701-15.419-2.626-22.343-.746-7.852-1.664-15.12-4.47-22.762-6.711-17.026-1.86-33.906 10.16-33.906 10.16-12.145 7.745-31.225 23.745-40.325 33.057 2.233.3 4.612-1.361 7.132-1.668l17.456-4.528c-7.281 6.008-22.583 16.573-27.048 24.956 5.452-1.868 16.911-8.194 22.585-8.673-4.988 4.399-15.38 12.735-18.661 18.062.389.2.1.7.2.98 4.277-2.354 14.678-8.516 19.38-8.905-4.875 5.053-13.835 14.781-15.832 21.326 4.223-2.759 14.828-8.343 19.458-10.026-1.072 2.582-3.422 4.486-4.958 7.1-2.123 3.567-7.104 7.605-7.327 11.86 3.708-3.447 8.296-6.468 12.905-8.883-2.081 4.287-5.863 7.818-6.927 12.9 3.03-2.925 8.736-4.418 12.618-5.753l-.467.451c-.333.275-4.726 3.375-7.715 6.845 2.642-.149.675-.483 4 .3l1.828.099c-.911.475-1.907 1-2.959 1.558-1.628.863-3.384 1.805-5.157 2.774 7.252 9.3 16.3 16.7 26.6 21.7 13.469 6.6 28.1 8.7 42.8 7.04-.176-.863-.368-1.722-.593-2.574l-.005-.015c-.269-1.041-.584-2.068-.953-3.08l-.059-.165c5.027-9.336 2.385-25.333 15.255-31.749 8.661-4.415 9.647-6.849 19.6-4.949 5.377 1 17.1 5.1 22.8 3.87 5.126-2.842 7.705-4.145 12.132-7.444 5.537 1 7.3.4 9.368-2.491-1.845 2.6 3.587-10.016 5.882-14.753l.201-2.553z"/></defs><clipPath id="i"><use xlink:href="#h" overflow="visible"/></clipPath><path clip-path="url(#i)" fill="#F1F2F2" d="M1.6 28.4v193.5l61-23.8v-194.5z"/><defs><path id="j" d="M210.739 112.224c-2.154-6.46-1.541-17.484-2.646-19.073-7.177-9.854-33.362-11.594-45.128-24.572 2.068-6.386-2.135-11.688-6.429-15.727-6.451-4.701-15.419-2.626-22.343-.746-7.852-1.664-15.12-4.47-22.762-6.711-17.026-1.86-33.906 10.16-33.906 10.16-12.145 7.745-31.225 23.745-40.325 33.057 2.233.3 4.612-1.361 7.132-1.668l17.456-4.528c-7.281 6.008-22.583 16.573-27.048 24.956 5.452-1.868 16.911-8.194 22.585-8.673-4.988 4.399-15.38 12.735-18.661 18.062.389.2.1.7.2.98 4.277-2.354 14.678-8.516 19.38-8.905-4.875 5.053-13.835 14.781-15.832 21.326 4.223-2.759 14.828-8.343 19.458-10.026-1.072 2.582-3.422 4.486-4.958 7.1-2.123 3.567-7.104 7.605-7.327 11.86 3.708-3.447 8.296-6.468 12.905-8.883-2.081 4.287-5.863 7.818-6.927 12.9 3.03-2.925 8.736-4.418 12.618-5.753l-.467.451c-.333.275-4.726 3.375-7.715 6.845 2.642-.149.675-.483 4 .3l1.828.099c-.911.475-1.907 1-2.959 1.558-1.628.863-3.384 1.805-5.157 2.774 7.252 9.3 16.3 16.7 26.6 21.7 13.469 6.6 28.1 8.7 42.8 7.04-.176-.863-.368-1.722-.593-2.574l-.005-.015c-.269-1.041-.584-2.068-.953-3.08l-.059-.165c5.027-9.336 2.385-25.333 15.255-31.749 8.661-4.415 9.647-6.849 19.6-4.949 5.377 1 17.1 5.1 22.8 3.87 5.126-2.842 7.705-4.145 12.132-7.444 5.537 1 7.3.4 9.368-2.491-1.845 2.6 3.587-10.016 5.882-14.753l.201-2.553z"/></defs><clipPath id="k"><use xlink:href="#j" overflow="visible"/></clipPath><path clip-path="url(#k)" fill="#fff" d="M123.2 28.4v193.5l-60.9-23.8v-194.5z"/><defs><path id="l" d="M210.739 112.224c-2.154-6.46-1.541-17.484-2.646-19.073-7.177-9.854-33.362-11.594-45.128-24.572 2.068-6.386-2.135-11.688-6.429-15.727-6.451-4.701-15.419-2.626-22.343-.746-7.852-1.664-15.12-4.47-22.762-6.711-17.026-1.86-33.906 10.16-33.906 10.16-12.145 7.745-31.225 23.745-40.325 33.057 2.233.3 4.612-1.361 7.132-1.668l17.456-4.528c-7.281 6.008-22.583 16.573-27.048 24.956 5.452-1.868 16.911-8.194 22.585-8.673-4.988 4.399-15.38 12.735-18.661 18.062.389.2.1.7.2.98 4.277-2.354 14.678-8.516 19.38-8.905-4.875 5.053-13.835 14.781-15.832 21.326 4.223-2.759 14.828-8.343 19.458-10.026-1.072 2.582-3.422 4.486-4.958 7.1-2.123 3.567-7.104 7.605-7.327 11.86 3.708-3.447 8.296-6.468 12.905-8.883-2.081 4.287-5.863 7.818-6.927 12.9 3.03-2.925 8.736-4.418 12.618-5.753l-.467.451c-.333.275-4.726 3.375-7.715 6.845 2.642-.149.675-.483 4 .3l1.828.099c-.911.475-1.907 1-2.959 1.558-1.628.863-3.384 1.805-5.157 2.774 7.252 9.3 16.3 16.7 26.6 21.7 13.469 6.6 28.1 8.7 42.8 7.04-.176-.863-.368-1.722-.593-2.574l-.005-.015c-.269-1.041-.584-2.068-.953-3.08l-.059-.165c5.027-9.336 2.385-25.333 15.255-31.749 8.661-4.415 9.647-6.849 19.6-4.949 5.377 1 17.1 5.1 22.8 3.87 5.126-2.842 7.705-4.145 12.132-7.444 5.537 1 7.3.4 9.368-2.491-1.845 2.6 3.587-10.016 5.882-14.753l.201-2.553z"/></defs><clipPath id="m"><use xlink:href="#l" overflow="visible"/></clipPath><path clip-path="url(#m)" fill="#F1F2F2" d="M122.9 28.4v193.5l61-23.8v-194.5z"/><defs><path id="n" d="M210.739 112.224c-2.154-6.46-1.541-17.484-2.646-19.073-7.177-9.854-33.362-11.594-45.128-24.572 2.068-6.386-2.135-11.688-6.429-15.727-6.451-4.701-15.419-2.626-22.343-.746-7.852-1.664-15.12-4.47-22.762-6.711-17.026-1.86-33.906 10.16-33.906 10.16-12.145 7.745-31.225 23.745-40.325 33.057 2.233.3 4.612-1.361 7.132-1.668l17.456-4.528c-7.281 6.008-22.583 16.573-27.048 24.956 5.452-1.868 16.911-8.194 22.585-8.673-4.988 4.399-15.38 12.735-18.661 18.062.389.2.1.7.2.98 4.277-2.354 14.678-8.516 19.38-8.905-4.875 5.053-13.835 14.781-15.832 21.326 4.223-2.759 14.828-8.343 19.458-10.026-1.072 2.582-3.422 4.486-4.958 7.1-2.123 3.567-7.104 7.605-7.327 11.86 3.708-3.447 8.296-6.468 12.905-8.883-2.081 4.287-5.863 7.818-6.927 12.9 3.03-2.925 8.736-4.418 12.618-5.753l-.467.451c-.333.275-4.726 3.375-7.715 6.845 2.642-.149.675-.483 4 .3l1.828.099c-.911.475-1.907 1-2.959 1.558-1.628.863-3.384 1.805-5.157 2.774 7.252 9.3 16.3 16.7 26.6 21.7 13.469 6.6 28.1 8.7 42.8 7.04-.176-.863-.368-1.722-.593-2.574l-.005-.015c-.269-1.041-.584-2.068-.953-3.08l-.059-.165c5.027-9.336 2.385-25.333 15.255-31.749 8.661-4.415 9.647-6.849 19.6-4.949 5.377 1 17.1 5.1 22.8 3.87 5.126-2.842 7.705-4.145 12.132-7.444 5.537 1 7.3.4 9.368-2.491-1.845 2.6 3.587-10.016 5.882-14.753l.201-2.553z"/></defs><clipPath id="o"><use xlink:href="#n" overflow="visible"/></clipPath><path clip-path="url(#o)" fill="#fff" d="M244.6 28.4v193.5l-61-23.8v-194.5z"/></svg>
