<svg xmlns="http://www.w3.org/2000/svg" data-name="Layer 1" viewBox="0 0 230.04 171.37">
  <circle cx="114.99" cy="82.5" r="82.5" fill="#f2f2f2" transform="rotate(-45 114.98355221 82.50225322)"/>
  <path fill="#c3a1f8" d="M161.42 5.88h12.1v12.1h-12.1z"/>
  <path fill="#e6deff" d="M30.86 37.13h18.15v18.15H30.86z"/>
  <path fill="#d9c2fd" d="M160.66 114.99h14.11v14.11h-14.11z"/>
  <path fill="#e6deff" d="M169.73 20.68h20.16v20.16h-20.16z"/>
  <path fill="#c3a1f8" d="M69.39 141.13h20.16v20.16H69.39z"/>
  <path fill="#e6deff" d="M91.9 157.26h14.11v14.11H91.9z"/>
  <path fill="#d9c2fd" fill-rule="evenodd" d="M71.37 106.75a10.69 10.69 0 00-8.71-16.64 19.8 19.8 0 00-37.81 3.07 8.71 8.71 0 00-9.89 3 8.75 8.75 0 00-15 6.15 8.62 8.62 0 001.21 4.42z"/>
  <path fill="#d9c2fd" fill-rule="evenodd" d="M229 83.77a9.57 9.57 0 00-13.53-12.56 17.14 17.14 0 00-23.88-6.65 17.17 17.17 0 00-28.42 19.21z"/>
  <path fill="#8f59ff" d="M157.51 59c0-4.33-.12-9.23-.12-14.77a4.74 4.74 0 00-3.93-4.73L115.7 33a4.83 4.83 0 00-1.61 0l-37.65 6.46a4.74 4.74 0 00-3.93 4.74c0 5.54 0 10.44-.12 14.77 0 7.81-.19 13.47.14 17 2.13 22.53 6.86 32.76 14.89 43.91A44.18 44.18 0 00114 136.94a7.08 7.08 0 00.92.16 3.54 3.54 0 00.92 0 44.76 44.76 0 0026.54-17.1c8-11.31 12.76-21.54 14.89-44.14.24-3.5.24-9.15.24-16.86z"/>
  <path fill="#592aca" d="M114.09 33l-37.65 6.53a4.74 4.74 0 00-3.93 4.74c0 5.54 0 10.44-.12 14.77 0 7.81-.17 13.47.14 17 2.13 22.51 6.86 32.81 14.89 43.89A44.11 44.11 0 00114 137.1a3.54 3.54 0 00.92 0V33a5.48 5.48 0 00-.83 0z"/>
  <path fill="#7542e4" d="M114.21 40.2l-31.57 5.46a4 4 0 00-3.25 3.86c0 4.74 0 8.76-.11 12.38 0 6.56-.15 11.29.14 14.2 1.7 18.9 5.7 27.58 12.47 36.9a37 37 0 0022.28 14.34 3.39 3.39 0 00.78 0V40.06a3.12 3.12 0 00-.74.14z"/>
  <path fill="#aa71ff" d="M150.57 62V49.57a4 4 0 00-3.29-3.91l-31.69-5.46a3.38 3.38 0 00-.69-.14v87.34a5.08 5.08 0 00.78 0A37.35 37.35 0 00138 113.05c6.77-9.28 10.77-17.92 12.48-36.85.23-3.01.16-7.74.09-14.2z"/>
  <circle cx="114.99" cy="81.85" r="23.57" fill="#3fe1b0" transform="rotate(-79.72 114.99517398 81.84713745)"/>
  <path fill="#fff" d="M111.89 91.82l-8.11-8.11a2 2 0 012.86-2.86l5.25 5.25 11.6-11.59a2 2 0 012.85 2.85z"/>
</svg>
