<svg xmlns="http://www.w3.org/2000/svg" xml:space="preserve" viewBox="0 0 332.38 190" width="333" height="190">
  <path fill="#6A45E3" stroke="#000" stroke-miterlimit="10" stroke-width="1.0614" d="m62.15 51.11 4.54-2.34c2.77-1.42 5.08-3.59 6.67-6.27 1.59-2.67 2.4-5.74 2.32-8.86l-.3-13.53-14.06-5.37h-.23l-13.84 5.97.3 13.53c.09 3.43 1.22 6.76 3.25 9.53 1.65 2.27 3.86 4.07 6.43 5.22l4.69 2.12h.23z" class="invert-stroke"/>
  <path fill="#FFF" d="M59.2 38.56c-.14.01-.28-.02-.41-.07s-.25-.13-.34-.23l-3.93-3.71c-.2-.2-.31-.47-.31-.76 0-.28.11-.56.31-.76s.47-.31.76-.31c.28 0 .56.11.76.31l3.12 3.04 7.79-8.32c.19-.21.46-.34.74-.35s.56.08.77.27.34.46.35.74-.08.56-.27.77l-8.55 9.07c-.1.1-.22.18-.35.23-.13.05-.27.08-.41.07l-.03.01z"/>
  <path fill="none" stroke="#000" stroke-miterlimit="10" stroke-width="1.0614" d="M144.65 154.73c.5 0 1-.1 1.46-.29.46-.19.88-.47 1.24-.83.35-.35.64-.78.83-1.24s.29-.96.29-1.46V80.96c0-1.01-.4-1.98-1.12-2.7-.72-.72-1.69-1.12-2.7-1.12H28.19c-1.01 0-1.98.4-2.7 1.12-.72.72-1.12 1.69-1.12 2.7v69.95c0 .5.1 1 .29 1.46s.47.88.83 1.24c.35.35.77.64 1.24.83.46.19.96.29 1.46.29" class="invert-stroke"/>
  <path fill="none" stroke="#000" stroke-miterlimit="10" stroke-width="1.0614" d="M301.94 30.38c.57-.58.57-1.51 0-2.08-.57-.58-1.51-.58-2.08 0-.57.58-.57 1.51 0 2.08.57.57 1.5.57 2.08 0z" class="invert-stroke"/>
  <path fill="none" stroke="#000" stroke-miterlimit="10" stroke-width="1.0614" d="M38.33 56.54c.19-.79-.3-1.58-1.1-1.77-.79-.19-1.58.3-1.77 1.09s.3 1.58 1.09 1.77c.8.19 1.59-.3 1.78-1.09z" class="invert-stroke"/>
  <path fill="none" stroke="#000" stroke-linecap="round" stroke-miterlimit="10" stroke-width="1.0614" d="M30.18 49.03v3.12" class="invert-stroke"/>
  <path fill="none" stroke="#000" stroke-linecap="round" stroke-miterlimit="10" stroke-width="1.0614" d="M28.62 50.59h3.12" class="invert-stroke"/>
  <path fill="none" stroke="#000" stroke-linecap="round" stroke-miterlimit="10" stroke-width="1.0614" d="M293.47 19.69v3.12" class="invert-stroke"/>
  <path fill="none" stroke="#000" stroke-linecap="round" stroke-miterlimit="10" stroke-width="1.0614" d="M291.91 21.25h3.12" class="invert-stroke"/>
  <path fill="none" stroke="#000" stroke-linecap="round" stroke-linejoin="round" stroke-width="1.0614" d="M272.88 53.05V7.8c.01-4.01-3.25-7.26-7.26-7.26H118.19c-4.01 0-7.27 3.25-7.27 7.27v69.33" class="invert-stroke"/>
  <path fill="none" stroke="#000" stroke-linecap="round" stroke-linejoin="round" stroke-width="1.0614" d="M148.47 106.23h109.61" class="invert-stroke"/>
  <path fill="none" stroke="#000" stroke-linecap="round" stroke-linejoin="round" stroke-width="1.0614" d="M204.53 106.22h-25.24v30.76h25.24v-30.76z" class="invert-stroke"/>
  <path fill="none" stroke="#000" stroke-linecap="round" stroke-linejoin="round" stroke-width="1.0614" d="M157.2 136.98h69.41" class="invert-stroke"/>
  <path fill="none" stroke="#000" stroke-linecap="round" stroke-linejoin="round" stroke-width="1.0614" d="M258.13 61.4c.43-4.22 3.68-7.59 7.83-8.23V6.57H117.85v70.57h26.8c1.01 0 1.98.4 2.7 1.12.72.72 1.12 1.69 1.12 2.7v16.07h109.61V61.44" class="fill-med"/>
  <path d="M204.57 48.54c-.39-.94-1.06-1.74-1.93-2.28-.86-.54-1.88-.79-2.89-.73-1.02.06-1.99.45-2.78 1.09s-1.36 1.52-1.63 2.5h-6.9c-.05-.2-.11-.4-.2-.59-.07-.18-.16-.36-.27-.53l2.46-2.46c.74.43 1.58.65 2.44.65.66 0 1.3-.13 1.9-.39.59-.25 1.13-.61 1.58-1.07s.81-1 1.05-1.6.36-1.23.36-1.88c-.01-.64-.14-1.28-.39-1.87-.37-.89-1-1.64-1.8-2.18-.8-.53-1.74-.82-2.71-.81-.8 0-1.59.19-2.3.57s-1.31.92-1.76 1.59c-.54.81-.83 1.76-.84 2.74 0 .83.21 1.64.61 2.37l-2.5 2.49c-.72-.4-1.54-.61-2.36-.6-.64 0-1.28.12-1.88.37s-1.14.61-1.59 1.06c-.46.45-.82 1-1.06 1.59-.25.59-.37 1.23-.37 1.88 0 .66.13 1.31.39 1.91.37.87.99 1.62 1.77 2.15.81.55 1.76.84 2.74.84.8 0 1.59-.2 2.3-.58s1.31-.92 1.76-1.59c.3-.43.52-.91.65-1.41h6.88c.05.2.12.4.2.59.07.16.14.31.22.45l-2.49 2.5c-.72-.4-1.54-.61-2.36-.61-.8 0-1.59.19-2.3.57s-1.32.92-1.76 1.59c-.54.81-.83 1.76-.84 2.74 0 .66.13 1.31.39 1.91.37.87.99 1.62 1.77 2.15.74.49 1.6.78 2.48.82.89.05 1.77-.15 2.55-.57s1.44-1.04 1.9-1.8c.46-.76.7-1.63.7-2.52 0-.65-.13-1.3-.39-1.9-.08-.18-.17-.37-.27-.53l2.45-2.45c.74.43 1.58.65 2.44.65.8 0 1.59-.2 2.3-.58s1.31-.92 1.76-1.59c.55-.81.85-1.76.84-2.74.06-.66-.07-1.31-.32-1.91zm-13.75-8.13c.17-.4.45-.75.82-.99.37-.25.81-.39 1.26-.39.3 0 .6.06.88.18.41.17.76.46 1 .83.25.37.38.8.38 1.25 0 .3-.06.6-.18.88-.17.4-.46.75-.82.99-.37.25-.81.39-1.26.39-.3 0-.6-.06-.88-.18-.41-.17-.75-.46-1-.82-.21-.31-.33-.67-.37-1.05-.03-.36.03-.74.17-1.09zm-4.99 10.92c-.16.38-.41.7-.74.94s-.71.39-1.12.43c-.41.04-.81-.03-1.18-.21-.37-.17-.68-.45-.91-.78-.21-.31-.34-.67-.37-1.04-.03-.37.02-.75.17-1.1.17-.4.45-.75.81-.99.37-.25.81-.39 1.27-.39.3 0 .6.06.88.18.55.24.99.68 1.21 1.23.22.55.21 1.17-.02 1.73zm7.17 9.14c-.17.41-.46.76-.83 1-.37.25-.8.38-1.25.38-.3 0-.6-.06-.88-.18-.4-.18-.75-.46-1-.82-.25-.37-.38-.82-.38-1.27 0-.3.06-.6.18-.88.12-.27.28-.52.49-.73s.46-.37.74-.49c.27-.11.57-.17.86-.17.3 0 .59.06.86.18.41.17.76.46 1.01.83.25.37.38.81.37 1.25 0 .33-.06.63-.17.9zm9.15-9.14c-.16.38-.42.7-.74.94-.33.24-.72.39-1.12.43-.41.04-.81-.03-1.18-.21-.37-.17-.68-.45-.91-.78-.21-.31-.34-.67-.37-1.04-.04-.37.02-.75.17-1.1.17-.4.45-.75.81-.99.37-.25.81-.39 1.27-.39.3 0 .6.06.88.18.55.24.99.68 1.21 1.23.21.55.21 1.17-.02 1.73z" class="invert-fill"/>
  <g>
    <path fill="none" stroke="#000" stroke-miterlimit="10" stroke-width="1.0614" d="M83.53 175.74h84.72c.42 0 .83-.13 1.18-.37.34-.24.61-.59.75-.98.14-.4.16-.83.05-1.24s-.35-.77-.67-1.04l-20.52-16.92c-.37-.3-.83-.47-1.3-.47H25.11c-.48 0-.94.17-1.31.47L3.29 172.11c-.33.27-.56.63-.67 1.04-.11.41-.1.84.05 1.24.14.4.4.74.75.98s.76.37 1.18.37h84.72" class="invert-stroke"/>
    <path fill="#C3C4FD" d="M69.94 172.32h52.17l-8.49-9.5H26.06l-8.49 9.5H69.94z" class="fill-med"/>
    <path fill="none" stroke="#000" stroke-miterlimit="10" stroke-width="1.0614" d="M170.3 174v2.41c0 .71-.28 1.39-.79 1.9-.5.5-1.18.79-1.9.79H5.22c-.71 0-1.39-.28-1.9-.79-.5-.5-.79-1.18-.79-1.9V174" class="invert-stroke"/>
    <path fill="none" stroke="#000" stroke-linecap="round" stroke-linejoin="round" stroke-width="1.0614" d="M86.53 168.36h57.68l-9.39-10.51H38.01l-9.39 10.51h57.91z" class="invert-stroke"/>
    <path fill="none" stroke="#000" stroke-linecap="round" stroke-linejoin="round" stroke-width="1.0614" d="M141.7 82.03H31.07v68.32H141.7V82.03z" class="invert-stroke fill-dark"/>
    <path d="M99.42 114.03c-.37-.89-1-1.64-1.8-2.18-.8-.53-1.74-.82-2.71-.81-.8-.01-1.59.19-2.3.57-.71.38-1.31.92-1.76 1.59-.29.44-.51.91-.64 1.42h-6.9c-.05-.2-.11-.4-.2-.58-.07-.18-.16-.36-.27-.53l2.46-2.46c.74.42 1.58.65 2.44.64.65 0 1.3-.13 1.9-.39 1.04-.44 1.9-1.22 2.43-2.22s.7-2.15.47-3.26-.83-2.11-1.7-2.82c-.88-.72-1.97-1.11-3.1-1.1-.64 0-1.28.12-1.88.37-.59.25-1.14.61-1.59 1.06-.46.45-.82.99-1.06 1.59-.25.59-.37 1.23-.37 1.87 0 .66.13 1.31.39 1.91.07.16.14.31.23.45l-2.49 2.5c-.72-.4-1.54-.61-2.37-.6-.8-.01-1.59.19-2.3.57-.71.38-1.31.92-1.76 1.59-.54.81-.83 1.76-.84 2.74 0 .66.13 1.31.39 1.91.37.88.99 1.62 1.78 2.15.81.55 1.76.84 2.74.84.8 0 1.59-.2 2.3-.58.71-.38 1.31-.92 1.76-1.58.3-.43.52-.91.65-1.41h6.88c.05.2.12.39.2.58.07.16.14.31.23.46l-2.5 2.49c-.72-.4-1.54-.61-2.36-.6-.66 0-1.3.13-1.91.38-.89.37-1.64 1-2.17 1.81-.53.8-.82 1.74-.82 2.71 0 .66.13 1.3.39 1.91.37.87.99 1.62 1.77 2.16.74.49 1.6.78 2.48.82.89.05 1.77-.15 2.55-.57.78-.42 1.44-1.04 1.9-1.8.46-.76.7-1.63.7-2.52 0-.66-.13-1.3-.39-1.91-.08-.18-.17-.37-.27-.53l2.45-2.45c.74.42 1.59.65 2.44.64.65 0 1.3-.13 1.9-.39.89-.37 1.65-1 2.18-1.8s.82-1.74.82-2.71c.01-.68-.12-1.33-.37-1.93zm-13.75-8.13c.17-.4.46-.75.82-.99.31-.21.67-.34 1.04-.38s.75.02 1.1.17c.41.17.76.46 1 .83.25.37.38.8.38 1.25 0 .6-.24 1.17-.66 1.6-.42.42-1 .66-1.6.67-.3 0-.6-.06-.88-.18-.41-.17-.75-.46-1-.82-.25-.37-.38-.81-.38-1.26 0-.31.06-.61.18-.89zm-4.99 10.91c-.16.38-.42.7-.74.94-.33.24-.72.39-1.12.43-.41.04-.81-.03-1.18-.21-.37-.17-.68-.45-.91-.78-.25-.37-.39-.82-.38-1.27 0-.3.06-.6.18-.88.17-.4.45-.75.81-.99.31-.21.67-.34 1.04-.38s.75.02 1.1.17c.41.17.76.46 1.01.83s.38.81.38 1.25c-.01.31-.07.61-.19.89zm7.16 9.15c-.12.27-.28.52-.49.73-.21.21-.46.37-.74.49-.27.11-.57.17-.87.17s-.59-.06-.86-.18c-.4-.17-.75-.46-1-.82-.21-.31-.34-.67-.37-1.04-.04-.37.02-.75.17-1.1.17-.41.46-.76.83-1 .37-.25.8-.38 1.25-.38.3 0 .6.06.88.18.41.17.76.46 1.01.83s.38.81.37 1.25c0 .29-.06.59-.18.87zm9.15-9.15c-.16.38-.41.7-.74.94s-.72.39-1.12.43c-.41.04-.81-.03-1.18-.21-.37-.17-.68-.45-.91-.78-.21-.31-.33-.67-.37-1.05s.02-.75.17-1.1c.17-.4.45-.75.82-.99.37-.26.81-.39 1.26-.39.3 0 .6.06.88.18.41.17.76.46 1 .83.25.37.38.8.38 1.25-.01.31-.07.61-.19.89z" class="invert-fill"/>
    <path fill="none" stroke="#000" stroke-linecap="round" stroke-linejoin="round" stroke-width="1.0614" d="M147.35 78.26c-.72-.72-1.69-1.12-2.7-1.12H28.19c-1.01 0-1.98.4-2.7 1.12-.72.72-1.12 1.69-1.12 2.7v69.95c0 .5.1 1 .29 1.46s.47.88.83 1.24c.35.35.77.64 1.24.83.46.19.96.29 1.46.29h116.46c.5 0 1-.1 1.46-.29.46-.19.88-.47 1.24-.83.35-.35.64-.78.83-1.24s.29-.96.29-1.46V80.96c0-1.01-.4-1.98-1.12-2.7z" class="invert-stroke"/>
  </g>
  <g>
    <path fill="#C0C3F6" d="M323.13 62.22v80.34h-.01c-.22 4.94-4.29 8.88-9.29 8.88H274v8.96c.37.05.75.08 1.14.08h46.45c5.14 0 9.3-4.16 9.3-9.3V71.39c0-4.62-3.36-8.43-7.76-9.17z" class="invert-stroke fill-none"/>
    <path fill="none" stroke="#000" stroke-linecap="round" stroke-linejoin="round" stroke-width="1.0614" d="M313.83 53.05h-46.45c-.48 0-.96.05-1.42.12-4.15.64-7.4 4.01-7.83 8.23h7.83l57.13.03c-.46-4.7-4.43-8.38-9.26-8.38z" class="invert-stroke"/>
    <path fill="none" stroke="#000" stroke-miterlimit="10" stroke-width="1.0614" d="M265.96 61.44h-7.88v49.84h10.86c1.34 0 2.63.53 3.58 1.48S274 115 274 116.34v26.21H323.13V61.43h-57.17z" class="fill-dark invert-stroke"/>
    <path d="M299.98 90.56c-.26-.65-.71-1.21-1.28-1.61-.59-.41-1.29-.64-2.01-.65-.48 0-.96.09-1.41.27-.65.26-1.21.71-1.61 1.28-.22.32-.39.67-.49 1.04l-5.08-.08c-.03-.15-.08-.29-.14-.44-.05-.14-.12-.27-.19-.4l1.86-1.79c.48.28 1.01.45 1.56.5.55.04 1.11-.04 1.62-.24.52-.2.98-.52 1.35-.94.37-.41.64-.9.8-1.44.15-.53.18-1.09.08-1.64s-.32-1.06-.65-1.51c-.33-.45-.76-.81-1.25-1.06s-1.04-.39-1.59-.4c-.48-.01-.95.08-1.39.25s-.85.43-1.19.76-.61.72-.8 1.16-.29.9-.3 1.38c-.01.48.08.97.27 1.41.05.12.1.23.16.34l-1.87 1.81c-.53-.3-1.13-.47-1.74-.47-.47-.01-.95.08-1.39.25s-.85.43-1.19.76-.62.72-.8 1.16c-.19.44-.29.9-.3 1.38-.01.48.08.97.27 1.41.26.65.71 1.21 1.28 1.61.39.27.83.47 1.29.57.46.1.94.11 1.41.03s.92-.26 1.32-.52.75-.59 1.02-.98c.23-.31.39-.66.5-1.03l5.08.08c.04.15.09.29.14.44.05.11.1.23.16.34l-1.86 1.81c-.53-.3-1.13-.47-1.74-.47-.48 0-.96.09-1.41.27-.66.27-1.22.72-1.63 1.31-.4.59-.62 1.28-.63 1.99-.01.48.08.97.27 1.41.27.65.71 1.21 1.28 1.61.59.41 1.29.64 2.01.65.59.01 1.18-.13 1.7-.4.53-.27.98-.67 1.32-1.15.42-.59.65-1.29.66-2.01.01-.48-.08-.96-.27-1.41-.06-.14-.12-.27-.19-.4l1.84-1.78c.54.32 1.16.5 1.79.51.96.01 1.88-.35 2.57-1.02s1.09-1.58 1.1-2.54c-.01-.48-.12-.96-.31-1.41zm-10.05-6.16c.13-.29.34-.54.61-.72.28-.18.61-.27.94-.27.22 0 .44.05.64.14.3.13.55.35.73.63.18.28.27.6.26.93 0 .28-.08.55-.21.79s-.32.44-.56.59c-.23.15-.5.24-.77.26-.27.02-.55-.03-.8-.14-.3-.13-.55-.35-.73-.62-.18-.28-.27-.61-.27-.94.02-.23.07-.45.16-.65zm-3.82 7.99c-.13.29-.34.55-.61.72-.23.15-.5.25-.78.27s-.56-.02-.81-.14c-.3-.13-.55-.35-.73-.62-.18-.28-.27-.6-.27-.94 0-.22.05-.44.14-.65.13-.29.35-.54.62-.72.23-.15.5-.25.78-.27s.56.02.81.14c.3.13.56.35.73.63.18.28.27.6.26.93 0 .22-.04.45-.14.65zm5.18 6.84c-.12.27-.32.51-.56.68s-.53.28-.83.3c-.3.02-.6-.03-.87-.16s-.5-.33-.66-.58c-.15-.23-.24-.5-.27-.78-.02-.28.03-.56.14-.81.13-.3.35-.55.62-.73.28-.18.6-.27.92-.26.22 0 .44.05.64.14.4.18.72.51.88.92.16.41.15.87-.03 1.28h.02zm6.86-6.64c-.09.2-.21.38-.37.53s-.34.27-.55.35c-.2.08-.42.12-.64.11s-.43-.05-.63-.14c-.3-.13-.55-.35-.73-.62-.15-.23-.24-.5-.26-.78-.02-.28.03-.56.14-.81.13-.29.34-.55.61-.72.25-.17.55-.26.85-.27.3-.01.6.06.87.21.26.15.48.36.64.62.15.26.23.56.22.86 0 .22-.05.45-.15.66z" class="invert-fill"/>
    <path fill="none" stroke="#000" stroke-miterlimit="10" d="M323.12 142.56H274v8.88h39.83c5 0 9.07-3.93 9.29-8.88z" class="invert-stroke"/>
  </g>
  <g>
    <path fill="none" stroke="#000" stroke-miterlimit="10" stroke-width="1.0614" d="M274 183.47v-67.13c0-1.34-.53-2.63-1.48-3.58-.95-.95-2.24-1.48-3.58-1.48h-32.69c-1.34 0-2.63.53-3.58 1.48-.95.95-1.48 2.24-1.48 3.58v67.13c0 .67.13 1.32.39 1.94.25.61.63 1.17 1.1 1.64s1.03.84 1.64 1.1c.62.26 1.27.39 1.94.39h32.69c1.34 0 2.63-.54 3.58-1.49.94-.95 1.47-2.24 1.47-3.58z" class="invert-stroke"/>
    <path fill="none" stroke="#000" stroke-miterlimit="10" stroke-width="1.0614" d="m264.4 185.01-26.8.07c-.71 0-1.4-.28-1.91-.78s-.8-1.19-.8-1.9l-.5-65.77c-.01-.33.06-.65.18-.96.12-.3.31-.58.54-.81.23-.23.51-.41.81-.53.3-.12.63-.18.96-.17h3.92c.19 0 .36.07.51.19.14.12.23.29.26.47.15.89.62 1.7 1.31 2.28s1.57.9 2.47.9h14.62c.9 0 1.77-.31 2.46-.89s1.16-1.38 1.32-2.26c.03-.19.13-.36.28-.48s.33-.19.52-.2h3.08c.81.18 1.54.62 2.07 1.26s.83 1.43.85 2.26l-.06 13.41v51.24c0 .36-.07.71-.21 1.04s-.34.63-.59.88-.56.45-.89.58c-.33.13-.69.2-1.04.2l-3.36-.03z" class="invert-stroke fill-light"/>
    <path d="M262.07 142.87c-.27-.66-.72-1.23-1.31-1.63-.59-.4-1.28-.62-1.99-.64-.48 0-.96.09-1.41.27-.65.27-1.21.71-1.61 1.28-.22.32-.39.67-.49 1.04l-5.08-.08c-.03-.15-.08-.29-.14-.44-.05-.14-.12-.27-.19-.39l1.86-1.79c.54.32 1.16.5 1.79.5.59.01 1.18-.13 1.7-.4.53-.27.98-.66 1.32-1.15.41-.59.64-1.29.66-2.02.01-.59-.13-1.18-.4-1.7-.27-.53-.67-.98-1.15-1.32-.59-.41-1.29-.64-2.01-.65-.48-.01-.96.09-1.41.27-.65.26-1.21.71-1.61 1.28-.41.59-.64 1.29-.65 2.01-.01.48.08.97.27 1.41.05.12.1.23.16.34l-1.86 1.81c-.53-.3-1.13-.47-1.74-.48-.59-.01-1.18.12-1.71.39s-.98.66-1.32 1.15c-.41.59-.64 1.29-.65 2.01-.01.48.08.97.27 1.41.26.65.71 1.21 1.28 1.61.59.41 1.29.64 2.01.65.48.01.96-.08 1.41-.27.65-.26 1.21-.7 1.61-1.28.22-.31.39-.67.5-1.04l5.08.08c.04.15.08.29.14.43.05.12.1.23.16.34l-1.87 1.81c-.53-.3-1.13-.47-1.74-.47-.48-.01-.96.08-1.42.27-.66.27-1.23.72-1.63 1.31-.4.59-.62 1.28-.63 1.99-.01.48.08.97.27 1.41.26.65.71 1.21 1.28 1.61.64.45 1.4.68 2.18.65.78-.02 1.53-.3 2.14-.78.61-.49 1.05-1.16 1.24-1.91.2-.75.15-1.55-.15-2.28-.06-.14-.12-.27-.19-.4l1.84-1.78c.54.32 1.16.5 1.79.51.48.01.96-.08 1.41-.27.66-.27 1.22-.72 1.63-1.31.4-.59.63-1.28.64-1.99 0-.43-.09-.92-.28-1.37zm-10.05-6.16c.13-.3.35-.55.62-.72.23-.15.5-.25.78-.27s.56.03.81.14c.3.13.55.35.73.62.18.28.27.6.26.93 0 .22-.05.45-.14.65-.13.3-.35.55-.62.72-.28.18-.6.27-.93.27-.22-.01-.44-.05-.64-.14-.3-.13-.55-.35-.73-.62-.15-.23-.24-.5-.26-.78-.02-.28.03-.56.14-.81l-.02.01zm-3.82 7.99c-.13.3-.35.55-.63.73s-.6.27-.93.26c-.22-.01-.44-.05-.64-.14-.3-.13-.55-.35-.73-.62-.18-.28-.28-.6-.27-.94 0-.22.05-.44.14-.64.13-.3.34-.55.61-.72.28-.18.61-.28.94-.27.22 0 .44.05.64.14.3.13.55.35.73.63s.27.6.26.93c.02.22-.03.43-.12.64zm5.18 6.84c-.18.4-.51.72-.92.88s-.87.15-1.27-.03c-.3-.13-.55-.35-.73-.62-.16-.25-.26-.55-.27-.85-.01-.3.06-.6.21-.87.15-.26.36-.48.62-.64.26-.15.56-.23.86-.22.22 0 .44.05.64.14.3.13.56.35.73.63.18.28.27.6.26.93-.01.23-.06.45-.15.65h.02zm6.86-6.64c-.13.3-.35.55-.63.73s-.6.27-.93.26c-.27 0-.54-.08-.78-.21s-.44-.32-.59-.55c-.18-.28-.27-.61-.27-.94 0-.22.05-.44.14-.64.13-.3.34-.55.62-.72.28-.18.6-.27.94-.27.22 0 .44.05.64.14.3.13.55.35.73.62.18.28.27.6.27.93 0 .23-.05.45-.14.65z"/>
  </g>
</svg>
