<svg xmlns="http://www.w3.org/2000/svg" xml:space="preserve" width="252" height="190" viewBox="0 0 252 190">
  <path fill="#FFF" stroke="#000" stroke-linecap="round" stroke-linejoin="round" stroke-width=".9324" d="M198.19 157.9c2.15 0 4.26-.64 6.05-1.83 1.79-1.2 3.19-2.9 4.01-4.89.82-1.99 1.04-4.18.62-6.29-.42-2.11-1.46-4.05-2.98-5.57-1.52-1.52-3.46-2.56-5.57-2.98-2.11-.42-4.3-.2-6.29.62-1.99.82-3.69 2.22-4.89 4.01-1.2 1.79-1.83 3.89-1.83 6.05 0 1.43.28 2.85.83 4.17.55 1.32 1.35 2.52 2.36 3.53 1.01 1.01 2.21 1.81 3.53 2.36 1.32.54 2.73.82 4.16.82z" class="invert-stroke fill-light"/>
  <path fill="#FFF" stroke="#000" stroke-linecap="round" stroke-linejoin="round" stroke-width=".9324" d="M60.55 54.18c2.15 0 4.26-.64 6.05-1.83 1.79-1.2 3.19-2.9 4.01-4.88.82-1.99 1.04-4.18.62-6.29-.42-2.11-1.46-4.05-2.98-5.57-1.52-1.52-3.46-2.56-5.57-2.98-2.11-.42-4.3-.2-6.29.62-1.99.82-3.69 2.22-4.89 4.01s-1.83 3.9-1.83 6.05c0 1.43.28 2.84.83 4.16.55 1.32 1.35 2.52 2.36 3.53 1.01 1.01 2.21 1.81 3.53 2.36 1.31.53 2.73.82 4.16.82z" class="invert-stroke fill-light"/>
  <path fill="#6A52DE" d="M198.19 151.75c.94 0 1.85-.28 2.63-.8.78-.52 1.39-1.26 1.74-2.12.36-.87.45-1.82.27-2.74-.18-.92-.63-1.76-1.3-2.42-.66-.66-1.51-1.11-2.43-1.3-.92-.18-1.87-.09-2.74.27-.87.36-1.61.97-2.13 1.74-.52.78-.8 1.69-.8 2.63 0 .62.12 1.24.36 1.81.24.57.59 1.1 1.03 1.54.44.44.96.79 1.54 1.03.6.24 1.21.36 1.83.36z"/>
  <path fill="#6A52DE" d="M60.55 48.03c.94 0 1.85-.28 2.63-.8.78-.52 1.39-1.26 1.75-2.13.36-.87.45-1.82.27-2.74-.18-.92-.63-1.76-1.3-2.43-.66-.66-1.51-1.11-2.43-1.3-.92-.18-1.87-.09-2.74.27-.87.36-1.61.97-2.13 1.75-.52.78-.8 1.7-.8 2.63 0 1.26.5 2.46 1.39 3.35.9.9 2.1 1.4 3.36 1.4z"/>
  <path fill="none" stroke="#000" stroke-linecap="round" stroke-linejoin="round" stroke-width=".9324" d="m69.47 50 120.25 90.63" class="invert-stroke"/>
  <path fill="#FFF" stroke="#000" stroke-linecap="round" stroke-linejoin="round" stroke-width=".9324" d="M60.55 157.9c2.15 0 4.26-.64 6.05-1.83 1.79-1.2 3.19-2.9 4.01-4.88.82-1.99 1.04-4.18.62-6.29-.42-2.11-1.46-4.05-2.98-5.57-1.52-1.52-3.46-2.56-5.57-2.98-2.11-.42-4.3-.21-6.29.62-1.99.82-3.69 2.22-4.89 4.01-1.2 1.79-1.83 3.89-1.83 6.05 0 2.89 1.15 5.65 3.19 7.7 2.03 2.02 4.8 3.17 7.69 3.17z" class="invert-stroke fill-light"/>
  <path fill="#FFF" stroke="#000" stroke-linecap="round" stroke-linejoin="round" stroke-width=".9324" d="M198.19 54.18c2.15 0 4.26-.64 6.05-1.83 1.79-1.2 3.18-2.9 4.01-4.89.82-1.99 1.04-4.18.62-6.29-.42-2.11-1.46-4.05-2.98-5.57-1.52-1.52-3.46-2.56-5.57-2.98-2.11-.42-4.3-.2-6.29.62-1.99.82-3.69 2.22-4.88 4.01-1.2 1.79-1.83 3.9-1.83 6.05 0 1.43.28 2.84.83 4.17.55 1.32 1.35 2.52 2.36 3.53 1.01 1.01 2.21 1.81 3.53 2.36 1.31.53 2.73.82 4.15.82z" class="invert-stroke fill-light"/>
  <path fill="#6A52DE" d="M60.55 151.75c.94 0 1.85-.28 2.63-.8.78-.52 1.39-1.26 1.75-2.13.36-.86.45-1.82.27-2.74-.18-.92-.63-1.76-1.3-2.42-.66-.66-1.51-1.11-2.42-1.3-.92-.18-1.87-.09-2.74.27-.87.36-1.61.97-2.13 1.74-.52.78-.8 1.69-.8 2.63 0 1.25.5 2.46 1.39 3.35.89.9 2.09 1.4 3.35 1.4z"/>
  <path fill="#6A52DE" d="M198.19 48.03c.94 0 1.85-.28 2.63-.8.78-.52 1.39-1.26 1.74-2.13.36-.87.45-1.82.27-2.74-.18-.92-.63-1.76-1.3-2.43-.66-.66-1.51-1.11-2.43-1.3-.92-.18-1.87-.09-2.74.27-.87.36-1.61.97-2.12 1.75-.52.78-.8 1.7-.8 2.63 0 .62.12 1.24.36 1.81.24.57.59 1.1 1.03 1.54.44.44.96.79 1.54 1.03.59.25 1.2.37 1.82.37z"/>
  <path fill="none" stroke="#000" stroke-linecap="round" stroke-linejoin="round" stroke-width=".9324" d="M189.29 50 69.01 140.63" class="invert-stroke"/>
  <path fill="#FFF" stroke="#000" stroke-linecap="round" stroke-linejoin="round" stroke-width=".9324" d="M129.38 188.85c2.15 0 4.26-.64 6.05-1.83 1.79-1.2 3.19-2.9 4.01-4.88.82-1.99 1.04-4.18.62-6.29-.42-2.11-1.46-4.05-2.98-5.57s-3.46-2.56-5.57-2.98c-2.11-.42-4.3-.21-6.29.62-1.99.82-3.69 2.22-4.89 4.01-1.2 1.79-1.83 3.89-1.83 6.05 0 1.43.28 2.85.83 4.17.55 1.32 1.35 2.52 2.36 3.53 1.01 1.01 2.21 1.81 3.53 2.36 1.31.53 2.73.81 4.16.81z" class="invert-stroke fill-light"/>
  <path fill="#FFF" stroke="#000" stroke-linecap="round" stroke-linejoin="round" stroke-width=".9324" d="M129.38 23.23c2.15 0 4.26-.64 6.05-1.83 1.79-1.2 3.19-2.9 4.01-4.89.82-1.99 1.04-4.18.62-6.29-.42-2.11-1.46-4.05-2.98-5.57-1.52-1.52-3.46-2.56-5.57-2.98-2.11-.42-4.3-.2-6.29.62-1.99.82-3.69 2.22-4.89 4.01-1.2 1.79-1.83 3.9-1.83 6.05 0 2.89 1.15 5.65 3.19 7.7 2.03 2.03 4.8 3.18 7.69 3.18z" class="invert-stroke fill-light"/>
  <path fill="#6A52DE" d="M129.38 182.7c.94 0 1.85-.28 2.63-.8.78-.52 1.39-1.26 1.74-2.12.36-.87.45-1.82.27-2.74-.18-.92-.63-1.76-1.3-2.42-.66-.66-1.51-1.11-2.42-1.3-.92-.18-1.87-.09-2.74.27-.87.36-1.61.97-2.13 1.74s-.8 1.69-.8 2.63c0 .62.12 1.24.36 1.81.24.57.59 1.1 1.03 1.54.44.44.96.79 1.54 1.03.58.24 1.2.36 1.82.36z"/>
  <path fill="#6A52DE" d="M129.38 17.08c.94 0 1.85-.28 2.63-.8.78-.52 1.39-1.26 1.74-2.13.36-.87.45-1.82.27-2.74-.18-.92-.63-1.76-1.3-2.43-.66-.66-1.51-1.11-2.43-1.3-.92-.18-1.87-.09-2.74.27-.87.36-1.6.97-2.12 1.75s-.8 1.7-.8 2.63c0 .62.12 1.24.36 1.81.24.57.59 1.1 1.03 1.54.44.44.96.79 1.54 1.03.58.25 1.2.37 1.82.37z"/>
  <path fill="none" stroke="#000" stroke-linecap="round" stroke-linejoin="round" stroke-width=".9324" d="M129.38 23.5v143.85" class="invert-stroke"/>
  <path fill="#C0C3F6" d="M77.66 83.71H18.19c.5-2.83 1.97-5.39 4.18-7.24 2.2-1.85 4.98-2.86 7.85-2.86h.47c1.69-3.02 4.23-5.48 7.31-7.07 3.08-1.59 6.56-2.23 10-1.84 3.44.38 6.69 1.77 9.35 4 2.66 2.22 4.59 5.18 5.58 8.5 1.26-1.16 2.82-1.93 4.51-2.21s3.42-.07 4.98.62c1.56.69 2.9 1.82 3.83 3.25.93 1.43 1.43 3.1 1.43 4.81l-.02.04z"/>
  <path fill="none" stroke="#000" stroke-linecap="round" stroke-linejoin="round" stroke-width=".9324" d="M61.29 88.32H1.82c.49-2.83 1.97-5.39 4.17-7.24 2.2-1.85 4.98-2.86 7.85-2.86h.47c1.69-3.01 4.23-5.46 7.31-7.03 3.07-1.58 6.54-2.21 9.97-1.83 3.43.38 6.68 1.77 9.33 3.98 2.65 2.21 4.59 5.16 5.58 8.47 1.26-1.16 2.82-1.93 4.51-2.21s3.42-.07 4.98.62c1.57.69 2.9 1.81 3.83 3.25.93 1.43 1.43 3.11 1.43 4.82l.04.03z" class="invert-stroke"/>
  <path fill="none" stroke="#000" stroke-linecap="round" stroke-linejoin="round" stroke-width=".9324" d="M186.46 118.47h63.58" class="invert-stroke"/>
  <path fill="none" stroke="#000" stroke-linecap="round" stroke-linejoin="round" stroke-width=".9324" d="M229.65 111.98h-49.44c.42-2.35 1.65-4.48 3.47-6.01 1.83-1.53 4.14-2.38 6.52-2.38h.39c1.39-2.52 3.5-4.58 6.06-5.9s5.45-1.86 8.32-1.54c2.86.32 5.57 1.48 7.77 3.33 2.2 1.86 3.81 4.32 4.62 7.09 1.05-.96 2.35-1.59 3.75-1.83 1.4-.23 2.84-.05 4.14.52 1.3.57 2.41 1.51 3.18 2.7.8 1.2 1.21 2.59 1.22 4.02h0z" class="invert-stroke"/>
  <path fill="none" stroke="#000" stroke-linecap="round" stroke-linejoin="round" stroke-width=".9324" d="M175.77 25.27c.39 0 .78-.12 1.11-.34.33-.22.58-.53.74-.9.15-.37.19-.77.11-1.15-.08-.39-.27-.74-.55-1.02s-.64-.47-1.02-.55c-.39-.08-.79-.04-1.15.11-.37.15-.68.41-.9.74-.22.33-.34.71-.34 1.11 0 .53.21 1.04.59 1.41.37.38.88.59 1.41.59h0z" class="invert-stroke"/>
  <path fill="#FFF" stroke="#000" stroke-linecap="round" stroke-linejoin="round" stroke-width=".9324" d="m171.1 62.02.14 23.1c.09 13.04-4.05 25.76-11.79 36.24-7.55 10.33-18.15 18.03-30.3 22.03-.1.03-.21.03-.31 0-12.19-3.88-22.87-11.47-30.54-21.7-7.88-10.41-12.15-23.09-12.2-36.13l-.12-23.1c0-.13.05-.25.14-.35.08-.09.2-.15.32-.17 4.44-.48 8.58-2.47 11.73-5.63 3.15-3.16 5.12-7.31 5.59-11.75.01-.12.07-.24.16-.32.09-.09.21-.14.34-.15l48.33-.25c.13 0 .25.05.35.14.09.08.16.2.17.33.51 4.44 2.54 8.57 5.73 11.7 3.19 3.13 7.37 5.06 11.82 5.48.12.02.24.08.32.17.05.05.08.11.1.17.01.05.02.12.02.19z" class="invert-stroke"/>
  <path fill="#6A52DE" d="M154.1 116.55c-6.25 8.52-15.01 14.88-25.06 18.18-.08.03-.17.03-.26 0-10.09-3.2-18.92-9.48-25.26-17.95-6.51-8.59-10.06-19.06-10.1-29.84l-.1-19.08c0-.11.03-.21.1-.29.07-.08.17-.12.28-.14 3.67-.39 7.1-2.03 9.7-4.64 2.61-2.61 4.24-6.04 4.63-9.71.01-.1.06-.2.13-.27.08-.07.18-.11.28-.12l18.06-.09 21.89-.09c.05 0 .1.01.15.03.05.02.09.05.13.08.08.07.13.16.14.27.43 3.67 2.1 7.08 4.73 9.67 2.64 2.59 6.08 4.19 9.75 4.55.11.01.21.06.29.14.07.09.1.19.1.3l.1 19.08c.12 10.77-3.29 21.26-9.68 29.92z"/>
  <path fill="none" stroke="#000" stroke-linecap="round" stroke-linejoin="round" stroke-width=".9324" d="M166.05 34.13v4.17" class="invert-stroke"/>
  <path fill="none" stroke="#000" stroke-linecap="round" stroke-linejoin="round" stroke-width=".9324" d="M168.14 36.22h-4.17" class="invert-stroke"/>
  <path fill="none" stroke="#000" stroke-linecap="round" stroke-linejoin="round" stroke-width=".9324" d="M85.83 162.2c.4 0 .78-.12 1.11-.34s.58-.53.74-.9c.15-.36.19-.77.11-1.15-.08-.39-.27-.74-.55-1.02s-.64-.47-1.02-.55c-.39-.08-.79-.04-1.15.11-.37.15-.68.41-.9.74-.22.33-.34.71-.34 1.11 0 .53.21 1.04.59 1.41.37.38.88.59 1.41.59h0z" class="invert-stroke"/>
  <path fill="none" stroke="#000" stroke-linecap="round" stroke-linejoin="round" stroke-width=".9324" d="M101.16 172.76v-4.16" class="invert-stroke"/>
  <path fill="none" stroke="#000" stroke-linecap="round" stroke-linejoin="round" stroke-width=".9324" d="M99.07 170.68h4.18" class="invert-stroke"/>
  <path fill="none" stroke="#000" stroke-linecap="round" stroke-linejoin="round" stroke-width=".9324" d="M54.3 98.58v3.56" class="invert-stroke"/>
  <path fill="none" stroke="#000" stroke-linecap="round" stroke-linejoin="round" stroke-width=".9324" d="M56.07 100.35h-3.55" class="invert-stroke"/>
  <path fill="#FFF" d="M146.53 89.16c-.52-1.23-1.39-2.28-2.51-3.01-1.11-.74-2.42-1.13-3.75-1.13-.91 0-1.81.18-2.65.53-1.21.52-2.25 1.37-2.98 2.47-.4.6-.71 1.27-.89 1.97h-9.56c-.07-.28-.16-.55-.27-.81-.1-.26-.23-.5-.38-.73l3.41-3.41c1.03.59 2.2.9 3.38.9.91 0 1.81-.18 2.64-.54 1.23-.52 2.28-1.39 3.02-2.5.74-1.11 1.13-2.42 1.13-3.76 0-1.11-.27-2.21-.8-3.19-.52-.98-1.28-1.82-2.2-2.44-1.12-.76-2.44-1.17-3.8-1.17-.89 0-1.78.17-2.6.51-.82.34-1.57.84-2.2 1.47-.63.63-1.13 1.38-1.47 2.2-.34.82-.52 1.71-.52 2.6 0 .91.18 1.81.54 2.65.09.22.2.43.31.63l-3.46 3.46c-1-.55-2.13-.84-3.28-.84-.91 0-1.81.18-2.65.53-1.23.52-2.28 1.39-3.02 2.5-.74 1.11-1.13 2.42-1.13 3.75 0 .91.18 1.81.54 2.65.52 1.23 1.39 2.28 2.5 3.01 1.11.74 2.42 1.13 3.75 1.13 1.11 0 2.2-.27 3.18-.8.98-.52 1.82-1.28 2.44-2.2.41-.6.72-1.26.91-1.96h9.54c.07.28.17.55.28.81.09.22.2.42.31.63l-3.46 3.46c-1-.55-2.13-.84-3.28-.84-.89 0-1.78.17-2.6.51-.82.34-1.57.84-2.21 1.47-.63.63-1.13 1.38-1.47 2.2-.34.82-.52 1.71-.52 2.6 0 .91.18 1.81.54 2.65.52 1.21 1.37 2.25 2.46 2.99 1.02.69 2.21 1.08 3.44 1.14 1.23.06 2.45-.21 3.54-.79 1.09-.58 2-1.44 2.63-2.5.64-1.05.97-2.26.98-3.49 0-.91-.19-1.8-.54-2.64-.11-.25-.23-.51-.37-.74l3.4-3.4c1.03.59 2.2.9 3.38.9 1.8 0 3.53-.72 4.8-1.99s1.99-3 1.99-4.8c.04-.9-.13-1.8-.47-2.64zm-19.07-11.25c.24-.56.63-1.04 1.13-1.38.43-.29.93-.47 1.45-.52.52-.05 1.04.03 1.52.23.57.24 1.05.64 1.39 1.15.34.51.52 1.12.52 1.73 0 .83-.33 1.63-.92 2.21-.59.59-1.38.92-2.21.92-.51 0-1.02-.13-1.47-.37-.45-.24-.84-.59-1.13-1.02-.29-.43-.47-.93-.51-1.45-.05-.5.03-1.02.23-1.5zm-6.91 15.12c-.24.56-.63 1.03-1.13 1.38-.52.35-1.13.54-1.75.54-.42 0-.83-.08-1.22-.23-.56-.24-1.04-.64-1.38-1.14-.29-.43-.46-.93-.51-1.45-.05-.52.03-1.04.23-1.52.24-.56.63-1.04 1.13-1.38.43-.29.93-.47 1.45-.52.52-.05 1.04.03 1.52.23.57.24 1.05.64 1.39 1.15.34.51.52 1.12.52 1.73-.01.41-.09.82-.25 1.21zm9.92 12.68c-.32.76-.94 1.37-1.7 1.68s-1.63.31-2.4-.01c-.56-.24-1.04-.64-1.39-1.14-.29-.43-.46-.93-.51-1.45-.05-.52.03-1.04.23-1.52.24-.57.64-1.05 1.15-1.39.51-.34 1.11-.52 1.73-.52.42-.01.83.07 1.22.23.57.24 1.05.64 1.39 1.15.34.51.52 1.12.52 1.73.01.43-.07.85-.24 1.24zm12.68-12.68c-.24.57-.64 1.05-1.15 1.39-.51.34-1.11.52-1.73.52-.42 0-.83-.08-1.21-.23-.56-.24-1.04-.64-1.39-1.14-.35-.52-.53-1.13-.53-1.75 0-.42.07-.83.23-1.21.24-.56.63-1.04 1.13-1.38.43-.29.93-.47 1.45-.52.52-.05 1.04.03 1.52.23.57.24 1.05.64 1.39 1.15.34.51.52 1.11.52 1.73.01.41-.07.82-.23 1.21z"/>
</svg>
