<svg xmlns="http://www.w3.org/2000/svg" xml:space="preserve" width="348" height="190" viewBox="0 0 348.7 190">
  <path fill="none" stroke="#000" stroke-linecap="round" stroke-linejoin="round" stroke-width="1.1538" d="M95.82 112.64c13.08-18.5 34.54-30.58 58.79-30.58 23.76 0 44.83 11.58 57.98 29.44" class="invert-stroke"/>
  <path fill="none" stroke="#000" stroke-linecap="round" stroke-linejoin="round" stroke-width="1.1538" d="M235.69 91.27c-19.84-22.57-48.81-36.8-81.08-36.8-45.36 0-84.2 28.1-100.32 67.98" class="invert-stroke"/>
  <path fill="#C0C3F6" d="M249.29 188.28v-40.3h37.43v-37.83h59.2v78.13h-96.63z"/>
  <path fill="#C3C4FD" d="M91.19 55.43h-66.1c.56-3.14 2.2-5.97 4.65-8.02 2.44-2.04 5.53-3.16 8.71-3.16H39c1.87-3.35 4.7-6.08 8.11-7.84s7.28-2.47 11.09-2.04c3.82.43 7.43 1.97 10.37 4.43 2.95 2.47 5.1 5.75 6.19 9.43 1.39-1.29 3.13-2.15 5.01-2.47 1.87-.32 3.8-.08 5.54.69 1.74.76 3.22 2.02 4.25 3.61 1.04 1.59 1.58 3.46 1.57 5.36h.06z"/>
  <path fill="none" stroke="#000" stroke-miterlimit="10" stroke-width="1.1538" d="M72.98 60.58H6.94c.55-3.14 2.19-5.99 4.64-8.03 2.44-2.05 5.53-3.17 8.72-3.16h.55c1.87-3.35 4.7-6.08 8.11-7.84 3.42-1.76 7.27-2.47 11.09-2.04s7.43 1.97 10.37 4.43c2.95 2.47 5.1 5.75 6.19 9.43 1.39-1.29 3.14-2.15 5.01-2.46 1.88-.31 3.8-.07 5.54.69 1.74.77 3.22 2.03 4.25 3.62 1.04 1.59 1.59 3.45 1.57 5.36z" class="invert-stroke"/>
  <path fill="none" stroke="#000" stroke-linecap="round" stroke-linejoin="round" stroke-width="1.1538" d="M187.41 135.74v-17.21h-19.5v69.37" class="invert-stroke"/>
  <path fill="none" stroke="#000" stroke-linecap="round" stroke-linejoin="round" stroke-width="1.1538" d="M324.94 181.13v-35.5h-20.83v28.05"/>
  <path fill="none" stroke="#000" stroke-linecap="round" stroke-linejoin="round" stroke-width="1.1538" d="M263.99 92.55V61.46h25.21v27.79h12.18v49.18" class="invert-stroke"/>
  <path fill="none" stroke="#000" stroke-linecap="round" stroke-linejoin="round" stroke-width="1.1538" d="M276.59 100.91h-48.62v12.72h48.62v-12.72z" class="invert-stroke"/>
  <path fill="none" stroke="#000" stroke-linecap="round" stroke-linejoin="round" stroke-width="1.1538" d="M273.71 114.86v73.79h-42.88v-73.79" class="invert-stroke"/>
  <path fill="none" stroke="#000" stroke-linecap="round" stroke-linejoin="round" stroke-width="1.1538" d="M229.51 146.39h-51.07v7.74h51.07" class="invert-stroke"/>
  <path fill="none" stroke="#000" stroke-linecap="round" stroke-linejoin="round" stroke-width="1.1538" d="M229.51 188.64h-47.44v-33.78" class="invert-stroke"/>
  <path fill="#A77FFA" d="M84.83 189.28h32.65v-50.22l-32.65-20.19-32.6 20.19v50.22h32.6z"/>
  <path fill="none" stroke="#000" stroke-width="1.1538" d="M84.83 189.28h32.65v-50.22l-32.65-20.19-32.6 20.19v50.22h32.6z" class="invert-stroke"/>
  <path fill="none" stroke="#000" stroke-linecap="round" stroke-linejoin="round" stroke-width="1.1538" d="m124.01 143.13-39.18-24.16-39.13 24.16" class="invert-stroke"/>
  <path fill="none" stroke="#000" stroke-linecap="round" stroke-linejoin="round" stroke-width="1.1538" d="M139.01 189.28c0-1.41-.28-2.82-.82-4.12-.54-1.31-1.33-2.5-2.33-3.5s-2.19-1.79-3.49-2.34c-1.31-.54-2.71-.82-4.12-.82 0-1.41-.28-2.81-.82-4.12-.54-1.31-1.34-2.49-2.33-3.49-1-1-2.19-1.79-3.49-2.33-1.31-.54-2.71-.82-4.12-.81v21.52h21.52z" class="invert-stroke"/>
  <path fill="none" stroke="#000" stroke-linecap="round" stroke-linejoin="round" stroke-width="1.1538" d="M37.22 138.42c0 4.08-1.42 8.04-4.01 11.2s-6.2 5.32-10.2 6.11c-4.01.8-8.16.18-11.77-1.75-3.6-1.93-6.42-5.04-7.99-8.81-1.56-3.77-1.77-7.97-.58-11.88 1.19-3.91 3.69-7.28 7.09-9.55 3.4-2.27 7.47-3.29 11.54-2.89 4.06.4 7.86 2.2 10.75 5.09 3.31 3.31 5.17 7.8 5.17 12.48z" class="invert-stroke"/>
  <path fill="none" stroke="#000" stroke-linecap="round" stroke-linejoin="round" stroke-width="1.1538" d="M19.93 140.38v48.9" class="invert-stroke"/>
  <path fill="none" stroke="#000" stroke-linecap="round" stroke-linejoin="round" stroke-width="1.1538" d="M52.22 179.04c-.06-2.75-1.2-5.37-3.17-7.29s-4.61-3-7.36-3-5.39 1.08-7.36 3c-1.97 1.92-3.11 4.54-3.17 7.29h-.12c-1.34.01-2.67.28-3.91.8-1.24.52-2.36 1.28-3.3 2.24-.94.96-1.69 2.09-2.19 3.34s-.75 2.58-.74 3.92h31.32v-10.3z" class="invert-stroke"/>
  <path fill="#FFF" d="M78.95 189.28h13.09v-23.54H78.95v23.54z" class="stroke-none"/>
  <path fill="none" stroke="#000" stroke-linecap="round" stroke-linejoin="round" stroke-width="1.1538" d="M78.95 189.28h13.09v-23.54H78.95v23.54z" class="invert-stroke"/>
  <path fill="none" stroke="#000" stroke-linecap="round" stroke-linejoin="round" stroke-width="1.1538" d="M20.91 188.94H8.51" class="invert-stroke"/>
  <path fill="none" stroke="#000" stroke-linecap="round" stroke-linejoin="round" stroke-width="1.1538" d="M210.94 19.14v-7.19" class="invert-stroke"/>
  <path fill="none" stroke="#000" stroke-linecap="round" stroke-linejoin="round" stroke-width="1.1538" d="M207.34 15.55h7.2" class="invert-stroke"/>
  <path fill="none" stroke="#000" stroke-linecap="round" stroke-linejoin="round" stroke-width="1.1538" d="M230.51 31.02c1.41 0 2.55-1.14 2.55-2.56 0-1.41-1.14-2.56-2.55-2.56s-2.56 1.14-2.56 2.56c0 1.42 1.15 2.56 2.56 2.56z" class="invert-stroke"/>
  <path fill="#FFF" stroke="#000" stroke-linecap="round" stroke-linejoin="round" stroke-width="1.1538" d="m165.1 1.59-33.13 6.22c.21 3.21-.66 6.4-2.49 9.04-1.83 2.65-4.49 4.6-7.57 5.54l2.98 15.83c1.65 8.91 6.15 17.04 12.82 23.17 6.51 6.03 14.74 9.89 23.54 11.02 7.8-4.25 14.07-10.83 17.95-18.82 3.99-8.14 5.23-17.35 3.54-26.25l-2.98-15.82c-3.21.24-6.41-.61-9.07-2.42-2.66-1.79-4.64-4.45-5.59-7.51h0z" class="stroke-none"/>
  <path fill="#6F4AE7" d="M174.05 50.35c-3.06 6.3-8.02 11.49-14.17 14.84-.05.03-.11.04-.17.03-6.95-.88-13.45-3.92-18.59-8.68-5.26-4.83-8.8-11.24-10.1-18.26l-2.34-12.42c-.01-.07 0-.14.04-.2s.1-.1.16-.12c2.34-.69 4.38-2.17 5.77-4.18s2.05-4.44 1.86-6.88c0-.03 0-.07.01-.1s.02-.06.05-.09c.04-.06.1-.09.17-.11l11.77-2.21 14.23-2.67c.07-.01.14 0 .2.04s.11.09.13.16c.71 2.34 2.21 4.37 4.23 5.74 2.03 1.37 4.46 2.01 6.9 1.8.07-.01.14.02.2.06.03.02.05.05.07.08.02.03.03.06.03.1l2.34 12.43c1.34 6.99.36 14.24-2.79 20.64z"/>
  <path fill="#5D42D1" d="M159.88 65.18c-.05.03-.11.04-.17.03-6.95-.88-13.45-3.92-18.59-8.68-5.25-4.83-8.8-11.24-10.1-18.26l-2.34-12.42c-.01-.07 0-.14.04-.2s.1-.1.16-.12c2.34-.69 4.38-2.17 5.77-4.18 1.39-2.01 2.05-4.44 1.86-6.88 0-.03 0-.07.01-.1s.03-.06.05-.09c.04-.06.1-.1.17-.11l11.77-2.21 1 .13 10.37 53.09z"/>
  <path fill="#FFF" d="M164.83 30.65c-.03.04-.05.09-.08.13l-9.23 14.42c-.18.28-.42.53-.7.72-.56.39-1.25.54-1.92.42-.33-.06-.65-.19-.93-.37L145.74 42c-.28-.18-.53-.42-.72-.69-.19-.28-.33-.59-.4-.92-.07-.33-.08-.67-.02-1 .06-.33.18-.65.36-.93l.04-.06c.18-.28.42-.53.69-.72.28-.19.59-.33.92-.4.33-.07.67-.08 1-.02.33.06.65.18.93.37l3.81 2.43c.03.02.07.04.11.04.04.01.08.01.12 0 .04-.01.08-.02.11-.05.03-.02.06-.05.08-.09l7.63-11.95c.17-.3.4-.56.67-.77.27-.21.58-.36.91-.45.33-.09.68-.11 1.02-.06.34.05.67.16.96.34.29.18.55.41.75.68.2.28.35.59.43.92.08.33.09.68.03 1.02-.04.34-.17.67-.34.96z"/>
  <path fill="#C3C4FD" stroke="#C3C4FD" stroke-miterlimit="10" stroke-width=".2885" d="M282.85 27.99c4.27-4.27 4.27-11.19 0-15.46-4.27-4.27-11.19-4.27-15.46 0-4.27 4.27-4.27 11.19 0 15.46 4.27 4.27 11.19 4.27 15.46 0z"/>
  <path fill="none" stroke="#000" stroke-linecap="round" stroke-linejoin="round" stroke-width="1.1538" d="M289.61 20.26c0-3.84-1.53-7.53-4.24-10.25-2.72-2.72-6.4-4.24-10.25-4.24v14.49h14.49z" class="invert-stroke"/>
  <path fill="#A77FFA" d="M335.06 60.32c1.16-7.16-3.7-13.91-10.86-15.07-7.16-1.16-13.91 3.7-15.07 10.86-1.16 7.16 3.7 13.91 10.86 15.07 7.16 1.16 13.91-3.71 15.07-10.86z"/>
  <path fill="none" stroke="#000" stroke-linecap="round" stroke-linejoin="round" stroke-width="1.1538" d="m326.76 59.73-4.81 4.81-4.82-4.81" class="invert-stroke"/>
  <path fill="none" stroke="#000" stroke-linecap="round" stroke-linejoin="round" stroke-width="1.1538" d="M321.95 51.99v11.58" class="invert-stroke"/>
</svg>
