<svg width="432" height="220" fill="none" xmlns="http://www.w3.org/2000/svg"><rect x="12" y="44" width="383" height="165" rx="3.143" stroke="#0090ED" stroke-width="5.238" stroke-dasharray="11.79 11.79"/><path d="M420.287 7.374c0-.623.316-1.192.841-1.522l3.183-1.988c.288-.178.615-.273.954-.273h4.717V0h-4.717a5.395 5.395 0 0 0-2.855.819l-3.184 1.99c-.272.17-.502.388-.735.601-.235-.213-.462-.43-.735-.6L414.57.819A5.398 5.398 0 0 0 411.717 0H407v3.591h4.717c.336 0 .667.095.954.273l3.183 1.988c.528.33.844.899.844 1.522v29.061c0 .624-.316 1.192-.844 1.523l-3.186 1.988a1.804 1.804 0 0 1-.954.273H407v3.59h4.717a5.4 5.4 0 0 0 2.856-.818l3.183-1.988c.275-.172.502-.39.735-.6.233.21.463.428.735.6l3.186 1.99a5.4 5.4 0 0 0 2.856.82h4.714v-3.591h-4.717c-.336 0-.666-.095-.954-.273l-3.183-1.988c-.528-.33-.841-.9-.841-1.523V7.375ZM42.744 172.437c.324 0 .647-.056.966-.165l9.264-3.217 18.886-19.643c1.97-2.052 1.97-5.392 0-7.444L69 138.993a4.934 4.934 0 0 0-7.157 0l-18.886 19.646-3.09 9.644a3.23 3.23 0 0 0 .734 3.228 2.97 2.97 0 0 0 2.143.926Zm21.485-30.96a1.638 1.638 0 0 1 2.383 0l2.863 2.978a1.803 1.803 0 0 1 0 2.479l-2.874 2.992-5.249-5.46 2.877-2.989Zm-18.325 19.059 13.06-13.585 5.246 5.456-13.06 13.589-7.872 2.731 2.626-8.191ZM75.983 174.371l-4.84 1.539a11.362 11.362 0 0 1-5.767.297l-5.619-1.17c-3.29-.682-6.762-.2-9.766 1.361-3.324 1.729-7.334 1.055-9.965-1.684l-.138-.143-2.247 2.627c2.307 2.397 5.375 3.66 8.486 3.66a11.58 11.58 0 0 0 5.373-1.325 11.451 11.451 0 0 1 7.596-1.055l5.618 1.17a14.66 14.66 0 0 0 7.413-.387l4.841-1.538-.985-3.352ZM107.638 180.653c4.157 0 7.78-1.9 10.037-5.048V180h8.077v-46.857h-8.077v18.885c-2.198-2.969-5.701-4.751-9.918-4.751-8.196 0-15.56 6.474-15.56 16.688 0 10.215 7.543 16.688 15.441 16.688Zm1.604-7.72c-4.929 0-8.908-3.979-8.908-9.027 0-5.048 3.979-9.027 8.908-9.027 5.048 0 8.908 4.038 8.908 9.027 0 4.988-3.86 9.027-8.908 9.027ZM131.097 180h8.136v-16.926c0-5.404 2.732-7.542 6.948-7.542 1.841 0 3.385.475 4.276 1.129l2.969-8.077c-1.365-.713-3.266-1.247-5.404-1.247-4.098 0-7.305 1.722-8.849 5.523v-4.93h-8.076V180Zm37.89.653c3.92 0 7.186-1.781 9.265-4.691V180l8.195-.059v-32.07l-8.314.059v17.639c0 4.988-2.851 7.78-6.711 7.78-4.395 0-6.533-2.792-6.533-7.305V147.93h-8.373v19.242c0 8.433 4.573 13.481 12.471 13.481Zm38.666 0c7.662 0 13.006-4.276 15.738-10.214l-7.661-3.148c-1.306 3.266-4.157 5.582-7.958 5.582-4.929 0-8.849-4.038-8.849-8.908 0-4.988 3.861-9.027 8.79-9.027 3.682 0 6.651 2.079 7.958 5.523l7.542-3.028c-2.494-6.058-8.195-10.156-15.619-10.156-9.502 0-16.807 7.246-16.807 16.688 0 9.324 7.246 16.688 16.866 16.688Zm41.633-.653h9.384l-12.65-18.41 12.056-13.66h-9.799l-13.006 14.907v-29.635h-8.136V180h8.136v-7.72l4.929-5.524L249.286 180Zm10.19-24.705h5.285V180h8.136v-24.705h7.721v-7.365h-7.721v-1.544c0-4.869.654-5.701 6.355-5.701h1.366v-7.483h-2.138c-10.452 0-13.719 3.207-13.719 13.6v1.128h-5.285v7.365ZM284.645 180h8.136v-16.926c0-5.404 2.732-7.542 6.949-7.542 1.841 0 3.385.475 4.276 1.129l2.969-8.077c-1.366-.713-3.266-1.247-5.404-1.247-4.098 0-7.305 1.722-8.849 5.523v-4.93h-8.077V180Zm38.786.653c7.067 0 11.581-2.91 14.788-7.423l-6.711-3.92c-1.603 2.613-4.157 4.276-7.958 4.276-4.751 0-8.136-2.613-9.205-6.77h25.477v-3.088c0-9.502-6.948-16.451-16.569-16.451-9.561 0-16.807 7.424-16.807 16.748 0 9.324 6.652 16.628 16.985 16.628Zm-.178-26.427c4.276 0 7.364 2.197 8.433 6.176h-17.104c1.307-3.741 4.514-6.176 8.671-6.176ZM344.128 180h8.373v-32.07h-8.373V180Zm-1.069-41.096c0 3.028 2.138 5.226 5.226 5.226 3.147 0 5.285-2.198 5.285-5.226 0-3.089-2.138-5.345-5.285-5.345-3.029 0-5.226 2.256-5.226 5.345ZM38.91 114h29.338v-7.958H47.64c.238-3.979 4.632-6.533 9.383-9.443 5.523-3.325 11.403-7.067 11.403-14.075 0-7.007-5.345-12.471-14.49-12.471-7.365 0-12.888 3.86-15.798 9.74l7.424 3.622c1.425-3.504 4.275-6.117 8.254-6.117 3.98 0 6.177 2.138 6.177 5.167 0 3.504-4.098 5.88-8.909 8.849-5.76 3.504-12.174 7.839-12.174 15.678V114Zm50.468-7.423c-5.285 0-8.552-2.911-8.552-13.6v-1.782c0-10.215 3.445-13.184 8.612-13.184 5.048 0 8.492 2.672 8.492 13.184v1.782c0 10.571-3.266 13.6-8.552 13.6Zm0 8.017c9.918 0 16.985-5.583 16.985-21.499v-2.019c0-14.847-7.305-21.023-16.985-21.023-9.502 0-16.925 5.998-16.925 21.023v2.02c0 15.737 6.889 21.498 16.925 21.498ZM110.05 114h29.337v-7.958H118.78c.237-3.979 4.632-6.533 9.383-9.443 5.523-3.325 11.402-7.067 11.402-14.075 0-7.007-5.344-12.471-14.49-12.471-7.364 0-12.887 3.86-15.797 9.74l7.423 3.622c1.425-3.504 4.276-6.117 8.255-6.117 3.979 0 6.176 2.138 6.176 5.167 0 3.504-4.097 5.88-8.908 8.849-5.76 3.504-12.174 7.839-12.174 15.678V114Zm47.954.594c9.799 0 15.738-5.761 15.738-13.303 0-4.632-2.376-7.899-6.176-9.858 3.147-2.079 5.107-5.286 5.107-9.265 0-7.245-5.642-12.115-14.966-12.115-6.651 0-11.877 2.91-15.025 7.72l6.948 4.157c1.663-3.028 4.217-4.75 8.137-4.75 4.454 0 6.592 2.375 6.592 5.226 0 3.206-2.376 5.641-6.949 5.641h-4.454v7.543h4.811c4.513 0 7.542 2.078 7.542 5.523 0 3.622-3.029 5.879-7.305 5.879-3.979 0-7.008-1.484-9.146-4.988l-7.007 5.166c3.741 4.989 8.492 7.424 16.153 7.424Zm41.557-.594h7.839l7.72-20.905L222.781 114h7.721l10.868-32.07h-8.315l-6.71 21.024-7.483-21.023h-7.305l-7.602 20.904-6.473-20.904h-8.314L199.561 114Zm44.887 0h8.374V81.93h-8.374V114Zm-1.069-41.097c0 3.03 2.138 5.227 5.226 5.227 3.148 0 5.286-2.198 5.286-5.227 0-3.088-2.138-5.344-5.286-5.344-3.028 0-5.226 2.256-5.226 5.344ZM258.27 114h8.136V97.074c0-5.404 2.732-7.542 6.948-7.542 1.841 0 3.385.475 4.276 1.129l2.969-8.077c-1.366-.713-3.266-1.247-5.404-1.247-4.098 0-7.305 1.722-8.849 5.523v-4.93h-8.076V114Zm37.241.653c4.158 0 7.78-1.9 10.037-5.048V114h8.077V67.143h-8.077v18.885c-2.197-2.97-5.701-4.75-9.918-4.75-8.195 0-15.559 6.472-15.559 16.687s7.542 16.688 15.44 16.688Zm1.604-7.72c-4.929 0-8.908-3.979-8.908-9.027 0-5.048 3.979-9.027 8.908-9.027 5.048 0 8.908 4.038 8.908 9.027 0 4.988-3.86 9.027-8.908 9.027Z" fill="#333336"/><path stroke="#333336" stroke-width="1.06" d="M371.53 127v58.326"/></svg>
