<svg width="485" height="101" viewBox="0 0 485 101" fill="none" xmlns="http://www.w3.org/2000/svg">
<path d="M30.0273 62.0094H39.3315L53.4288 98.9444H86.4165L68.9358 56.7934C80.3546 51.5774 85.9935 43.9649 85.9935 31.2773C85.9935 21.8321 82.1873 13.2328 74.1518 8.15774C66.9622 3.36466 57.658 2.23688 49.1996 2.23688H0V98.9444H30.0273V62.0094ZM30.0273 22.8189H42.01C44.8294 22.8189 47.9308 22.8189 50.4683 24.0877C53.4288 25.6384 55.1204 28.7398 55.1204 31.9822C55.1204 40.2996 47.3669 41.2864 40.8822 41.2864H30.0273V22.8189Z" fill="white"/>
<path d="M126.55 2.23688H96.6634V98.9444H126.55V2.23688Z" fill="white"/>
<path d="M135.475 70.8907C140.691 91.8957 158.736 100.354 179.036 100.354C199.054 100.354 222.173 91.0499 222.173 67.7893C222.173 57.2164 217.239 48.1941 207.794 43.1191C199.336 38.7489 189.609 37.1982 180.445 35.3655C176.78 34.5197 169.732 33.5329 169.732 28.4579C169.732 23.3828 175.37 22.255 179.318 22.255C186.789 22.255 192.146 24.7926 194.966 31.9822L219.495 24.5106C213.574 7.73483 197.362 0.827148 180.586 0.827148C171 0.827148 160.709 2.6598 152.815 8.15774C145.061 13.6557 140.409 22.9599 140.409 32.4051C140.409 55.3837 161.978 60.3178 180.164 63.8421C184.534 64.6879 192.005 65.8157 192.005 71.7366C192.005 77.0936 184.393 77.6574 180.586 77.6574C171.987 77.6574 165.502 74.556 162.965 65.9567L135.475 70.8907Z" fill="white"/>
<path d="M306.779 75.8248H263.219V60.1768H298.462V38.6079H263.219V24.5106H306.779V2.23688H234.178V98.9444H306.779V75.8248Z" fill="white"/>
<path d="M398.357 88.9353H345.069L377.07 64.406C387.784 55.3837 398.216 44.6698 398.216 29.7266C398.216 11.4001 381.299 0.827148 364.523 0.827148C346.338 0.827148 333.227 11.5411 329.703 29.1627L340.981 32.5461C341.545 20.2814 351.695 10.5543 364.1 10.5543C375.096 10.5543 386.092 17.7439 386.092 29.7266C386.092 42.1322 377.634 50.4496 368.893 58.2032L329.703 88.9353V98.9444H398.357V88.9353Z" fill="white"/>
<path d="M478.656 2.23688H421.421L418.179 54.2559L427.765 56.2295C432.699 48.1941 441.016 43.1191 450.603 43.1191C463.995 43.1191 473.299 52.9872 473.299 66.0977C473.299 81.4637 463.149 90.7679 448.065 90.7679C436.646 90.7679 428.188 84.5651 424.382 73.9921L413.95 77.5165C418.179 92.0367 433.263 100.354 447.783 100.354C468.083 100.354 485 87.5256 485 66.2386C485 47.3482 470.198 33.3919 451.307 33.3919C442.003 33.3919 434.532 37.4801 428.047 43.8239L430.161 12.6689H477.669L478.656 2.23688Z" fill="white"/>
</svg>
