<svg xmlns="http://www.w3.org/2000/svg" width="350" height="350" viewBox="0 0 350 350" xml:space="preserve">
  <style>
    .st0{fill:#ab71ff}.st1{fill:#7542e5}.st2{fill:#592acb}.st5{fill:#e7dfff}.st6{fill:#cb9eff}.st7{fill:#9059ff}
  </style>
  <path d="M275.6 10.5v329c0 5.8-4.7 10.5-10.5 10.5H84.9c-5.8 0-10.5-4.7-10.5-10.5v-329C74.4 4.7 79.1 0 84.9 0h180.2c5.8 0 10.5 4.7 10.5 10.5z" class="st0"/>
  <path d="M84.9 0h180.2c5.8 0 10.5 4.7 10.5 10.5v8.2H74.4v-8.2C74.4 4.7 79.1 0 84.9 0z" class="st1"/>
  <path d="M74.4 18.7h201.2v27.7H74.4z" class="st2"/>
  <path fill="#45278d" d="M84.9 22.1h180.2c1.9 0 3.5 1.6 3.5 3.5v13.9c0 1.9-1.6 3.5-3.5 3.5H84.9c-1.9 0-3.5-1.6-3.5-3.5V25.6c0-2 1.5-3.5 3.5-3.5z"/>
  <path d="M99 31.1h-.2v-2.2c0-2.2-1.8-3.9-3.9-3.9S91 26.7 91 28.9v2.2h-.2c-1.1 0-1.9.9-1.9 1.9v4.4c0 1.1.9 1.9 1.9 1.9H99c1.1 0 1.9-.9 1.9-1.9V33c.1-1-.8-1.9-1.9-1.9zm-5.9-2.3c-.1-1 .7-1.8 1.7-1.9 1-.1 1.8.7 1.9 1.7v2.5h-3.6v-2.3z" class="st0"/>
  <path fill="#d9bfff" d="M111.2 27h104.6c1.4 0 2.6 1.2 2.6 2.6v5.2c0 1.4-1.2 2.6-2.6 2.6H111.2c-1.4 0-2.6-1.2-2.6-2.6v-5.2c.1-1.5 1.2-2.6 2.6-2.6z"/>
  <path d="M85.1 123.3H151c1.1 0 2.1.9 2.1 2.1v6.2c0 1.1-.9 2.1-2.1 2.1H85.1c-1.1 0-2.1-.9-2.1-2.1v-6.2c0-1.2 1-2.1 2.1-2.1z" class="st1"/>
  <path d="M265.1 350H84.9c-5.8 0-10.5-4.7-10.5-10.5v-8.2h201.2v8.2c0 5.8-4.7 10.5-10.5 10.5z" class="st1"/>
  <path d="M74.4 299.8h201.2v31.5H74.4z" class="st2"/>
  <path d="M103.2 314.2H90.5l4.8-5.1c.5-.5.5-1.4-.1-1.9-.5-.5-1.4-.5-1.9.1l-6.9 7.4c-.1.1-.2.2-.2.3v.1c0 .1-.1.2-.1.3v.1c0 .1 0 .2.1.3v.1c.1.1.1.2.2.4l6.9 7.4c.3.3.6.4 1 .4.3 0 .6-.1.9-.4.5-.5.6-1.3.1-1.9l-4.8-5.2h12.7c.7 0 1.3-.6 1.3-1.3s-.5-1.1-1.3-1.1z" class="st0"/>
  <path d="M144.4 315.6v-.1c0-.1 0-.2-.1-.3v-.1c-.1-.1-.1-.2-.2-.3l-6.9-7.4c-.5-.5-1.3-.6-1.9-.1-.5.5-.6 1.3-.1 1.9l4.8 5.1h-12.7c-.7 0-1.3.6-1.3 1.3s.6 1.3 1.3 1.3H140l-4.8 5.2c-.5.5-.5 1.4.1 1.9.3.2.6.4.9.4.4 0 .7-.1 1-.4l6.9-7.4c.1-.1.2-.2.2-.4v-.1c.1-.3.1-.4.1-.5z" class="st0"/>
  <path d="M220.6 323.2h-10.9c-2.1 0-3.7-1.7-3.7-3.7v-7.8c0-2.1 1.7-3.7 3.7-3.7h10.9c2.1 0 3.7 1.7 3.7 3.7v7.8c0 2-1.7 3.7-3.7 3.7zm-10.9-12.6c-.6 0-1.1.5-1.1 1.1v7.8c0 .6.5 1.1 1.1 1.1h10.9c.6 0 1.1-.5 1.1-1.1v-7.8c0-.6-.5-1.1-1.1-1.1h-10.9z" class="st0"/>
  <path d="M262.9 309.8h-15.8c-.7 0-1.3-.6-1.3-1.3s.6-1.3 1.3-1.3h15.8c.7 0 1.3.6 1.3 1.3s-.6 1.3-1.3 1.3z" class="st0"/>
  <path d="M262.9 324h-15.8c-.7 0-1.3-.6-1.3-1.3s.6-1.3 1.3-1.3h15.8c.7 0 1.3.6 1.3 1.3s-.6 1.3-1.3 1.3z" class="st0"/>
  <path d="M262.9 316.9h-15.8c-.7 0-1.3-.6-1.3-1.3s.6-1.3 1.3-1.3h15.8c.7 0 1.3.6 1.3 1.3s-.6 1.3-1.3 1.3z" class="st0"/>
  <path d="M177.1 312.9c0 .3.1.6.3.8.2.2.5.3.8.3h4c.6 0 1.1-.5 1.1-1.1v-4c0-.6-.5-1.1-1.1-1.1-.3 0-.6.1-.8.3l-1 1c-1.5-1.2-3.4-2-5.3-2-2.2 0-4.3.9-5.9 2.4s-2.4 3.7-2.4 5.9.9 4.3 2.4 5.9c1.6 1.6 3.6 2.4 5.9 2.4 3.9 0 7.3-2.8 8.1-6.6.1-.7-.3-1.3-1-1.4-.7-.1-1.3.3-1.4 1-.3 1.5-1.2 2.8-2.5 3.7-2.7 1.8-6.3 1.1-8.1-1.6-.9-1.3-1.2-2.9-.9-4.4.3-1.5 1.2-2.9 2.5-3.7 2.2-1.5 4.9-1.3 6.9.2l-1.2 1.2c-.3.2-.4.5-.4.8z" class="st0"/>
  <path d="M88 145h170.4c1.9 0 3.4 1.5 3.4 3.4v29.3c0 1.9-1.5 3.4-3.4 3.4H88c-1.9 0-3.4-1.5-3.4-3.4v-29.3c-.1-1.9 1.5-3.4 3.4-3.4z" class="st5"/>
  <path d="M97.5 156h13.3c1.6 0 2.8 1.3 2.8 2.8v8.5c0 1.6-1.3 2.8-2.8 2.8H97.5c-1.6 0-2.8-1.3-2.8-2.8v-8.5c0-1.6 1.3-2.8 2.8-2.8z" class="st6"/>
  <path d="M127.3 157.4h72.2c1.2 0 2.3 1 2.3 2.3v6.8c0 1.2-1 2.3-2.3 2.3h-72.2c-1.2 0-2.3-1-2.3-2.3v-6.8c.1-1.3 1.1-2.3 2.3-2.3z" class="st7"/>
  <path d="M87.9 197.3H257c1.9 0 3.4 1.5 3.4 3.4v29c0 1.9-1.5 3.4-3.4 3.4H87.9c-1.9 0-3.4-1.5-3.4-3.4v-29c0-1.8 1.5-3.4 3.4-3.4z" class="st5"/>
  <path d="M97.5 208.2h13.3c1.6 0 2.8 1.3 2.8 2.8v8.5c0 1.6-1.3 2.8-2.8 2.8H97.5c-1.6 0-2.8-1.3-2.8-2.8V211c-.1-1.5 1.2-2.8 2.8-2.8z" class="st6"/>
  <path d="M127.3 209.6h72.3c1.3 0 2.3 1 2.3 2.3v6.8c0 1.3-1 2.3-2.3 2.3h-72.3c-1.3 0-2.3-1-2.3-2.3v-6.8c0-1.3 1-2.3 2.3-2.3z" class="st7"/>
  <path d="M88 249.5h170.4c1.9 0 3.4 1.5 3.4 3.4v29.3c0 1.9-1.5 3.4-3.4 3.4H88c-1.9 0-3.4-1.5-3.4-3.4v-29.3c-.1-1.9 1.5-3.4 3.4-3.4z" class="st5"/>
  <path d="M97.5 260.5h13.3c1.6 0 2.8 1.3 2.8 2.8v8.5c0 1.6-1.3 2.8-2.8 2.8H97.5c-1.6 0-2.8-1.3-2.8-2.8v-8.5c0-1.6 1.3-2.8 2.8-2.8z" class="st6"/>
  <path d="M127.3 261.9h72.2c1.2 0 2.3 1 2.3 2.3v6.8c0 1.2-1 2.3-2.3 2.3h-72.2c-1.2 0-2.3-1-2.3-2.3v-6.8c.1-1.3 1.1-2.3 2.3-2.3z" class="st7"/>
  <path d="M88.3 68h27.6c2.9 0 5.2 2.4 5.2 5.2v28.6c0 2.9-2.4 5.2-5.2 5.2H88.3c-2.9 0-5.2-2.4-5.2-5.2V73.3c-.1-2.9 2.3-5.3 5.2-5.3z" class="st0"/>
  <path d="M138.2 68h27.6c2.9 0 5.2 2.4 5.2 5.2v28.6c0 2.9-2.4 5.2-5.2 5.2h-27.6c-2.9 0-5.2-2.4-5.2-5.2V73.3c-.1-2.9 2.3-5.3 5.2-5.3z" class="st0"/>
  <path d="M188 68h27.6c2.9 0 5.2 2.4 5.2 5.2v28.6c0 2.9-2.4 5.2-5.2 5.2H188c-2.9 0-5.2-2.4-5.2-5.2V73.3c0-2.9 2.3-5.3 5.2-5.3z" class="st0"/>
  <path d="M88.9 69.7h26.3c2.4 0 4.4 2 4.4 4.4v27.3c0 2.4-2 4.4-4.4 4.4H88.9c-2.4 0-4.4-2-4.4-4.4V74c0-2.4 2-4.3 4.4-4.3z" class="st5"/>
  <path d="M138.6 69.5h26.6c2.4 0 4.4 2 4.4 4.4v27.6c0 2.4-2 4.4-4.4 4.4h-26.6c-2.4 0-4.4-2-4.4-4.4V73.9c.1-2.4 2-4.4 4.4-4.4z" class="st5"/>
  <path d="M188.6 69.7H215c2.4 0 4.4 2 4.4 4.4v27.3c0 2.4-2 4.4-4.4 4.4h-26.3c-2.4 0-4.4-2-4.4-4.4V74c0-2.4 1.9-4.3 4.3-4.3z" class="st5"/>
  <circle cx="102.1" cy="87.7" r="7.9" class="st6"/>
  <path d="M157.3 86.1l-9-5.1c-.9-.5-2-.2-2.5.7-.2.3-.2.6-.2.9v10.3c0 1 .8 1.8 1.8 1.8.3 0 .6-.1.9-.2l9-5.1c.9-.5 1.2-1.6.7-2.5-.1-.4-.4-.6-.7-.8z" class="st6"/>
  <path d="M197.5 79.8h8.7c2 0 3.5 1.6 3.5 3.5V92c0 2-1.6 3.5-3.5 3.5h-8.7c-2 0-3.5-1.6-3.5-3.5v-8.7c-.1-1.9 1.5-3.5 3.5-3.5z" class="st6"/>
</svg>
