<svg xmlns="http://www.w3.org/2000/svg" width="350" height="350" viewBox="0 0 350 350" xml:space="preserve">
  <style>
    .st0{fill:#d9bfff}.st1{fill:#c689ff}.st2{fill:#9059ff}.st5{fill:#cb9eff}.st6{fill:#7542e5}
  </style>
  <path d="M208.8 155.6c0-3.8-3.1-7-7-7H7c-3.8 0-7 3.1-7 7v13.9h208.8v-13.9z" class="st0"/>
  <path d="M0 302.7c0 3.8 3.1 7 7 7h194.9c3.8 0 7-3.1 7-6.9v-13.9H0v13.8z" class="st1"/>
  <path d="M0 169.6h208.8v57.7H0z" class="st2"/>
  <path fill="#592acb" d="M0 227.2h208.8v61.5H0z"/>
  <circle cx="104.4" cy="228.5" r="41.3" class="st0"/>
  <path fill="#45278d" d="M117.6 244.7l-7.3-15.4c4.5-2.2 7.6-6.8 7.6-12.1 0-7.4-6-13.5-13.5-13.5-7.4 0-13.5 6-13.5 13.5 0 5.3 3.1 9.9 7.6 12.1l-7.3 15.4c-.7 1.6 0 3.5 1.6 4.2.4.2.9.3 1.3.3h20.6c1.7 0 3.2-1.4 3.2-3.2 0-.5-.1-.9-.3-1.3z"/>
  <path d="M61.2 118.7c0-24 19.5-43.5 43.5-43.5s43.5 19.5 43.5 43.5v9.1H183v-9.1c0-43.2-35.1-78.3-78.3-78.3-43.2 0-78.3 35.1-78.3 78.3v9.1h34.8v-9.1z" class="st0"/>
  <path d="M148.2 127.8H183v20.9h-34.8z" class="st5"/>
  <path d="M26.4 127.8h34.8v20.9H26.4z" class="st5"/>
  <g>
    <path d="M331.7 212.8c.2 12.2-9.5 22.4-21.7 22.6-12.2.2-22.4-9.5-22.6-21.7v-.9h-5.2c-.3 15.1 11.8 27.6 26.9 27.9s27.6-11.8 27.9-26.9v-1h-5.3z" class="st6"/>
    <path d="M309.5 185.4c-15.1 0-27.4 12.2-27.4 27.4h5.2c.2-12.2 10.4-22 22.6-21.7 11.9.2 21.5 9.8 21.7 21.7h5.2c.1-15.1-12.1-27.4-27.3-27.4z" class="st2"/>
    <path d="M251.5 212.8h-.5.5z" class="st0"/>
    <path d="M309.5 172.4c-17.3 0-32 10.8-37.8 26.1H168.5c-7.9 0-14.4 6.4-14.4 14.4h128c.3-15.1 12.8-27.2 27.9-26.9 14.7.3 26.6 12.2 26.9 26.9h13c.1-22.4-18-40.5-40.4-40.5z" class="st0"/>
    <path d="M265.6 195c-1.9 0-3.5 1.6-3.5 3.5v14.3h7v-14.3c0-2-1.5-3.5-3.5-3.5z" class="st2"/>
    <path d="M255.2 195c-1.9 0-3.5 1.6-3.5 3.5v14.3h7v-14.3c0-2-1.6-3.5-3.5-3.5z" class="st2"/>
    <path d="M336.9 212.8c.3 15.1-11.8 27.6-26.9 27.9s-27.6-11.8-27.9-26.9v-1H154.2c0 7.9 6.4 14.4 14.4 14.4v15.7c0 2.3 1.9 4.2 4.2 4.2 2.3 0 4.1-1.9 4.2-4.2v-10.2h8.3v10.2c.1 2.3 2.1 4.1 4.4 4 2.1-.1 3.9-1.8 4-4v-15.6H252l19.8-.1c5.6 15.4 20.1 26.4 37.4 26.7 22.3.3 40.7-17.5 41.1-39.8v-1.2h-13.4z" class="st1"/>
    <path d="M262.1 212.8v14.4c.1 1.9 1.7 3.4 3.7 3.3 1.8-.1 3.2-1.5 3.3-3.3v-14.4h-7z" class="st6"/>
    <path d="M251.7 227.2c.1 1.9 1.7 3.4 3.7 3.3 1.8-.1 3.2-1.5 3.3-3.3v-14.4h-7v14.4z" class="st6"/>
  </g>
</svg>
