<svg xmlns="http://www.w3.org/2000/svg" width="350" height="350" viewBox="0 0 350 350" xml:space="preserve">
  <style>
    .st0{fill:#d9bfff}.st1{fill:#7542e5}.st2{fill:#592acb}.st4{fill:#ab71ff}
  </style>
  <path d="M275.6 10.5v329c0 5.8-4.7 10.5-10.5 10.5H84.9c-5.8 0-10.5-4.7-10.5-10.5v-329C74.4 4.7 79.1 0 84.9 0h180.2c5.8 0 10.5 4.7 10.5 10.5z" class="st0"/>
  <path d="M84.9 0h180.2c5.8 0 10.5 4.7 10.5 10.5v8.2H74.4v-8.2C74.4 4.7 79.1 0 84.9 0z" class="st1"/>
  <path d="M74.4 18.7h201.2v27.7H74.4z" class="st2"/>
  <path fill="#45278d" d="M84.4 22.1h181.1c2 0 3.6 1.6 3.6 3.6v13.6c0 2-1.6 3.6-3.6 3.6H84.4c-2 0-3.6-1.6-3.6-3.6V25.7c0-2 1.6-3.6 3.6-3.6z"/>
  <path d="M111.2 27h104.6c1.4 0 2.6 1.2 2.6 2.6v5.2c0 1.4-1.2 2.6-2.6 2.6H111.2c-1.4 0-2.6-1.2-2.6-2.6v-5.2c.1-1.5 1.2-2.6 2.6-2.6z" class="st0"/>
  <path d="M265.1 350H84.9c-5.8 0-10.5-4.7-10.5-10.5v-8.2h201.2v8.2c0 5.8-4.7 10.5-10.5 10.5z" class="st1"/>
  <path d="M74.4 299.8h201.2v31.5H74.4z" class="st2"/>
  <path d="M103.2 314.2H90.5l4.8-5.1c.5-.5.5-1.4-.1-1.9-.5-.5-1.4-.5-1.9.1l-6.9 7.4c-.1.1-.2.2-.2.3v.1c0 .1-.1.2-.1.3v.1c0 .1 0 .2.1.3v.1c.1.1.1.2.2.4l6.9 7.4c.3.3.6.4 1 .4.3 0 .6-.1.9-.4.5-.5.6-1.3.1-1.9l-4.8-5.2h12.7c.7 0 1.3-.6 1.3-1.3s-.5-1.1-1.3-1.1z" class="st4"/>
  <path d="M144.4 315.6v-.1c0-.1 0-.2-.1-.3v-.1c-.1-.1-.1-.2-.2-.3l-6.9-7.4c-.5-.5-1.3-.6-1.9-.1-.5.5-.6 1.3-.1 1.9l4.8 5.1h-12.7c-.7 0-1.3.6-1.3 1.3s.6 1.3 1.3 1.3H140l-4.8 5.2c-.5.5-.5 1.4.1 1.9.3.2.6.4.9.4.4 0 .7-.1 1-.4l6.9-7.4c.1-.1.2-.2.2-.4v-.1c.1-.3.1-.4.1-.5z" class="st4"/>
  <path d="M220.6 307.9h-10.9c-2.1 0-3.7 1.7-3.7 3.7v7.8c0 2.1 1.7 3.7 3.7 3.7h10.9c2.1 0 3.7-1.7 3.7-3.7v-7.8c0-2-1.7-3.7-3.7-3.7zm1.1 11.5c0 .6-.5 1.1-1.1 1.1h-10.9c-.6 0-1.1-.5-1.1-1.1v-7.8c0-.6.5-1.1 1.1-1.1h10.9c.6 0 1.1.5 1.1 1.1v7.8z" class="st4"/>
  <path d="M262.9 309.8h-15.8c-.7 0-1.3-.6-1.3-1.3s.6-1.3 1.3-1.3h15.8c.7 0 1.3.6 1.3 1.3s-.6 1.3-1.3 1.3z" class="st4"/>
  <path d="M262.9 324h-15.8c-.7 0-1.3-.6-1.3-1.3s.6-1.3 1.3-1.3h15.8c.7 0 1.3.6 1.3 1.3s-.6 1.3-1.3 1.3z" class="st4"/>
  <path d="M262.9 316.9h-15.8c-.7 0-1.3-.6-1.3-1.3s.6-1.3 1.3-1.3h15.8c.7 0 1.3.6 1.3 1.3s-.6 1.3-1.3 1.3z" class="st4"/>
  <path d="M177.1 312.9c0 .3.1.6.3.8.2.2.5.3.8.3h4c.6 0 1.1-.5 1.1-1.1v-4c0-.3-.1-.6-.3-.8-.2-.2-.5-.3-.8-.3-.3 0-.6.1-.8.3l-1 1c-1.5-1.2-3.4-2-5.3-2-2.2 0-4.3.9-5.9 2.4-1.6 1.6-2.4 3.7-2.4 5.9s.9 4.3 2.5 5.9c1.6 1.6 3.6 2.4 5.9 2.4 3.9 0 7.3-2.8 8.1-6.6.1-.7-.3-1.3-1-1.4-.7-.1-1.3.3-1.4 1-.3 1.5-1.2 2.8-2.5 3.7-2.7 1.8-6.3 1.1-8.1-1.6-.9-1.3-1.2-2.9-.9-4.4.3-1.5 1.2-2.9 2.5-3.7 1.3-.9 2.9-1.2 4.4-.9.9.2 1.7.6 2.5 1.1l-1.2 1.2c-.4.2-.5.5-.5.8z" class="st4"/>
  <path d="M99 31.1h-.2v-2.2c0-2.2-1.8-3.9-3.9-3.9S91 26.7 91 28.9v2.2h-.2c-1.1 0-1.9.9-1.9 1.9v4.4c0 1.1.9 1.9 1.9 1.9H99c1.1 0 1.9-.9 1.9-1.9V33c.1-1-.8-1.9-1.9-1.9zm-2.3-2.5V31h-3.6v-2.3c0-.5.1-.9.4-1.3s.8-.6 1.2-.6c.5 0 .9.1 1.3.4.5.5.7.9.7 1.4z" class="st4"/>
  <g>
    <path d="M249 103.2c-40.5 0-53.2 16.1-72.4 16.9l32.7 92.6c10.8 7.8 22 15.5 34.5 15.5 32.1 0 55.7-30.4 56.3-82.4-.1-32.3-9.5-42.6-51.1-42.6zm-7.2 73.9c-16.4 0-35.7-6.2-35.7-11.4s9.3-23.7 33.2-22.8c25 1.1 35.7 16.2 35.7 19.9 0 3.9-16.7 14.3-33.2 14.3z" class="st1"/>
    <path d="M175 120.3V197c12.5 0 23.3 7.9 34.3 15.8l-32.7-92.6-1.6.1z" class="st4"/>
    <path d="M101 103.2c-41.6 0-51 10.3-51 42.6.4 52 24.1 82.4 56.3 82.4 12.5 0 23.6-8.1 34.8-16l32.5-92.1c-19.4-.8-32-16.9-72.6-16.9zm7.2 73.9c-16.4 0-33.2-10.5-33.2-14.2 0-3.7 10.4-18.8 35.7-19.9 23.9-1 33.1 16.5 33.1 22.8s-19.2 11.3-35.6 11.3z" class="st2"/>
    <path d="M175 120.3h-1.6l-32.5 92.1c10.9-7.8 21.6-15.4 34.1-15.4v-76.7z" class="st1"/>
  </g>
</svg>
