<svg xmlns="http://www.w3.org/2000/svg" width="350" height="350" viewBox="0 0 350 350" xml:space="preserve">
  <style>
    .st0{fill:#d9bfff}.st1{fill:#7542e5}.st2{fill:#592acb}.st4{fill:#ab71ff}.st5{fill:#c689ff}
  </style>
  <path d="M231.9 10.5v329c0 5.8-4.7 10.5-10.5 10.5H41.1c-5.8 0-10.5-4.7-10.5-10.5v-329C30.6 4.7 35.3 0 41.1 0h180.2c5.9 0 10.6 4.7 10.6 10.5z" class="st0"/>
  <path d="M41.1 0h180.2c5.8 0 10.5 4.7 10.5 10.5v8.2H30.6v-8.2C30.6 4.7 35.3 0 41.1 0z" class="st1"/>
  <path d="M30.6 18.7h201.2v27.7H30.6z" class="st2"/>
  <path fill="#45278d" d="M40.7 22.1h181.1c2 0 3.6 1.6 3.6 3.6v13.6c0 2-1.6 3.6-3.6 3.6H40.7c-2 0-3.6-1.6-3.6-3.6V25.7c-.1-2 1.6-3.6 3.6-3.6z"/>
  <path d="M55.3 31.1h-.2v-2.2c0-2.2-1.8-3.9-3.9-3.9s-3.9 1.8-3.9 3.9v2.2h-.2c-1.1 0-1.9.9-1.9 1.9v4.4c0 1.1.9 1.9 1.9 1.9h8.2c1.1 0 1.9-.9 1.9-1.9V33c0-1-.8-1.9-1.9-1.9zm-5.9-2.3c0-.5.1-.9.4-1.3.3-.4.8-.6 1.2-.6h.1c.4 0 .9.2 1.2.5.4.3.6.8.6 1.2v2.5h-3.6l.1-2.3z" class="st4"/>
  <path d="M67.5 27h104.6c1.4 0 2.6 1.2 2.6 2.6v5.2c0 1.4-1.2 2.6-2.6 2.6H67.5c-1.4 0-2.6-1.2-2.6-2.6v-5.2c0-1.5 1.2-2.6 2.6-2.6z" class="st0"/>
  <path d="M221.4 350H41.1c-5.8 0-10.5-4.7-10.5-10.5v-8.2h201.2v8.2c.1 5.8-4.6 10.5-10.4 10.5z" class="st1"/>
  <path d="M30.6 299.8h201.2v31.5H30.6z" class="st2"/>
  <path d="M59.5 314.2H46.8l4.8-5.1c.5-.5.5-1.4-.1-1.9-.5-.5-1.4-.5-1.9.1l-6.9 7.4c-.1.1-.2.2-.2.3v.1c0 .1-.1.2-.1.4v.1c0 .1 0 .2.1.3v.1c.1.1.1.2.2.4l6.9 7.4c.3.3.6.4 1 .4.3 0 .6-.1.9-.4.5-.5.6-1.3.1-1.9l-4.8-5.2h12.7c.7 0 1.3-.6 1.3-1.3s-.6-1.2-1.3-1.2z" class="st4"/>
  <path d="M100.7 315.6v-.1c0-.1 0-.2-.1-.4v-.1c-.1-.1-.1-.2-.2-.3l-6.9-7.4c-.5-.5-1.3-.6-1.9-.1-.5.5-.6 1.3-.1 1.9l4.8 5.1H83.6c-.7 0-1.3.6-1.3 1.3s.6 1.3 1.3 1.3h12.7l-4.8 5.2c-.5.5-.5 1.4.1 1.9.3.2.6.4.9.4.4 0 .7-.1 1-.4l6.9-7.4c.1-.1.2-.2.2-.4v-.1c.1-.2.1-.3.1-.4z" class="st4"/>
  <path d="M176.8 323.2h-10.9c-2.1 0-3.7-1.7-3.7-3.7v-7.8c0-2.1 1.7-3.7 3.7-3.7h10.9c2.1 0 3.7 1.7 3.7 3.7v7.8c.1 2-1.6 3.7-3.7 3.7zm-10.9-12.6c-.6 0-1.1.5-1.1 1.1v7.8c0 .6.5 1.1 1.1 1.1h10.9c.6 0 1.1-.5 1.1-1.1v-7.8c0-.6-.5-1.1-1.1-1.1h-10.9z" class="st4"/>
  <path d="M219.1 309.8h-15.8c-.7 0-1.3-.6-1.3-1.3s.6-1.3 1.3-1.3h15.8c.7 0 1.3.6 1.3 1.3s-.5 1.3-1.3 1.3z" class="st4"/>
  <path d="M219.1 324h-15.8c-.7 0-1.3-.6-1.3-1.3s.6-1.3 1.3-1.3h15.8c.7 0 1.3.6 1.3 1.3s-.5 1.3-1.3 1.3z" class="st4"/>
  <path d="M219.1 316.9h-15.8c-.7 0-1.3-.6-1.3-1.3s.6-1.3 1.3-1.3h15.8c.7 0 1.3.6 1.3 1.3s-.5 1.3-1.3 1.3z" class="st4"/>
  <path d="M133.7 313.7c.2.2.5.3.8.3h4c.6 0 1.1-.5 1.1-1.1v-4c0-.6-.5-1.1-1.1-1.1-.3 0-.6.1-.8.3l-1 1c-1.5-1.2-3.4-2-5.3-2-2.2 0-4.3.9-5.9 2.4-1.6 1.6-2.4 3.7-2.4 5.9s.9 4.3 2.4 5.9c1.6 1.6 3.6 2.4 5.9 2.4 3.9 0 7.3-2.8 8.1-6.6.1-.3 0-.6-.2-.9-.2-.3-.5-.5-.8-.5-.7-.1-1.3.3-1.4 1-.3 1.5-1.2 2.8-2.5 3.7-2.7 1.8-6.3 1.1-8.1-1.6s-1.1-6.3 1.6-8.1c2.2-1.4 4.9-1.3 6.9.2l-1.2 1.2c-.5.5-.5 1.1-.1 1.6z" class="st4"/>
  <path d="M47.5 64.8h72.2c1.2 0 2.3 1 2.3 2.3v6.8c0 1.2-1 2.3-2.3 2.3H47.5c-1.2 0-2.3-1-2.3-2.3v-6.8c0-1.2 1.1-2.3 2.3-2.3z" class="st5"/>
  <path d="M48.6 86.5H208c1.8 0 3.3 1.5 3.3 3.3v4.7c0 1.8-1.5 3.3-3.3 3.3H48.6c-1.8 0-3.3-1.5-3.3-3.3v-4.7c-.1-1.8 1.4-3.3 3.3-3.3z" class="st5"/>
  <path d="M48.6 108.2H208c1.8 0 3.3 1.5 3.3 3.3v4.7c0 1.8-1.5 3.3-3.3 3.3H48.6c-1.8 0-3.3-1.5-3.3-3.3v-4.7c-.1-1.8 1.4-3.3 3.3-3.3z" class="st5"/>
  <path d="M48.6 130.8H208c1.8 0 3.3 1.5 3.3 3.3v4.7c0 1.8-1.5 3.3-3.3 3.3H48.6c-1.8 0-3.3-1.5-3.3-3.3v-4.7c-.1-1.8 1.4-3.3 3.3-3.3z" class="st5"/>
  <path d="M47.2 153.5h56.2c1.1 0 2 .9 2 2v7.3c0 1.1-.9 2-2 2H47.2c-1.1 0-2-.9-2-2v-7.3c0-1.1.9-2 2-2z" class="st5"/>
  <path d="M48.6 194.9H208c1.8 0 3.3 1.5 3.3 3.3v4.7c0 1.8-1.5 3.3-3.3 3.3H48.6c-1.8 0-3.3-1.5-3.3-3.3v-4.7c-.1-1.8 1.4-3.3 3.3-3.3z" class="st5"/>
  <path d="M48.6 216.6H208c1.8 0 3.3 1.5 3.3 3.3v4.7c0 1.8-1.5 3.3-3.3 3.3H48.6c-1.8 0-3.3-1.5-3.3-3.3v-4.7c-.1-1.8 1.4-3.3 3.3-3.3z" class="st5"/>
  <path d="M48.6 239.2H208c1.8 0 3.3 1.5 3.3 3.3v4.7c0 1.8-1.5 3.3-3.3 3.3H48.6c-1.8 0-3.3-1.5-3.3-3.3v-4.7c-.1-1.8 1.4-3.3 3.3-3.3z" class="st5"/>
  <path d="M47.8 261.9h92.1c1.4 0 2.5 1.1 2.5 2.5v6.2c0 1.4-1.1 2.5-2.5 2.5H47.8c-1.4 0-2.5-1.1-2.5-2.5v-6.2c-.1-1.4 1.1-2.5 2.5-2.5z" class="st5"/>
  <circle cx="231.9" cy="175" r="87.5" fill="#9059ff"/>
  <circle cx="231.9" cy="175" r="74.7" class="st2"/>
  <circle cx="231.9" cy="153.1" r="33.5" class="st0"/>
  <path d="M265.1 186.5c-9 0-22.9 9.9-33.2 9.9-10.3.1-24.3-9.9-33.2-9.9-4.7 0-14.1 2.9-14.1 12.8 0 11.2 20.9 31 47.3 31s47.3-19.8 47.3-31c0-9.9-9.4-12.8-14.1-12.8z" class="st0"/>
</svg>
