<svg xmlns="http://www.w3.org/2000/svg" width="350" height="350" viewBox="0 0 350 350" xml:space="preserve">
  <style>
    .st1{opacity:.3}.st1,.st2{fill:#fff}.st6{fill:#592acb}.st7{fill:none;stroke:#7542e5;stroke-width:3.5;stroke-linecap:round;stroke-linejoin:round}.st8,.st9{opacity:.5;fill:#fff;enable-background:new}.st9{fill:#c689ff}
  </style>
  <path fill="#d9bfff" d="M5.4 143.9h136.9c3 0 5.4 2.4 5.4 5.4v72.3c0 3-2.4 5.4-5.4 5.4H5.4c-3 0-5.4-2.4-5.4-5.4v-72.3c0-3 2.4-5.4 5.4-5.4z"/>
  <circle cx="73.9" cy="185.5" r="27.7" class="st1"/>
  <path d="M89 185.5l-24.8-14.3v28.5L89 185.5z" class="st2"/>
  <path fill="#c38afa" d="M96.6 21.9h156.7c8.7 0 15.7 7 15.7 15.7v274.9c0 8.7-7 15.7-15.7 15.7H96.6c-8.7 0-15.7-7-15.7-15.7V37.6c0-8.7 7.1-15.7 15.7-15.7z"/>
  <path fill="#7542e5" d="M253.5 45.2v259.6c0 4.3-3.5 7.9-7.9 7.9H104.3c-4.3 0-7.9-3.5-7.9-7.9V45.2c0-4.3 3.5-7.9 7.9-7.9h141.3c4.4 0 7.9 3.6 7.9 7.9z"/>
  <path fill="#fff" d="M96.5 53.1v157.3l157-157.3h-157z" opacity=".3"/>
  <path d="M104.3 37.3h141.3c4.3 0 7.9 3.5 7.9 7.9v7.9h-157v-7.9c0-4.3 3.5-7.9 7.8-7.9z" class="st6"/>
  <path d="M165.8 320.5h18.3" class="st7"/>
  <path d="M173 29.5h3.9" class="st7"/>
  <path d="M111.9 68.1h21.9c2.9 0 5.3 2.4 5.3 5.3v21.9c0 2.9-2.4 5.3-5.3 5.3h-21.9c-2.9 0-5.3-2.4-5.3-5.3v-22c.1-2.9 2.4-5.2 5.3-5.2z" class="st8"/>
  <path d="M164.1 68.1H186c2.9 0 5.3 2.4 5.3 5.3v21.9c0 2.9-2.4 5.3-5.3 5.3h-21.9c-2.9 0-5.3-2.4-5.3-5.3v-22c0-2.9 2.4-5.2 5.3-5.2z" class="st8"/>
  <path d="M216.2 68.1h21.9c2.9 0 5.3 2.4 5.3 5.3v21.9c0 2.9-2.4 5.3-5.3 5.3h-21.9c-2.9 0-5.3-2.4-5.3-5.3v-22c0-2.9 2.4-5.2 5.3-5.2z" class="st8"/>
  <path d="M111.9 117.8h21.9c2.9 0 5.3 2.4 5.3 5.3V145c0 2.9-2.4 5.3-5.3 5.3h-21.9c-2.9 0-5.3-2.4-5.3-5.3v-21.9c.1-3 2.4-5.3 5.3-5.3z" class="st8"/>
  <path d="M164.1 117.8H186c2.9 0 5.3 2.4 5.3 5.3V145c0 2.9-2.4 5.3-5.3 5.3h-21.9c-2.9 0-5.3-2.4-5.3-5.3v-21.9c0-3 2.4-5.3 5.3-5.3z" class="st8"/>
  <path d="M216.2 117.8h21.9c2.9 0 5.3 2.4 5.3 5.3V145c0 2.9-2.4 5.3-5.3 5.3h-21.9c-2.9 0-5.3-2.4-5.3-5.3v-21.9c0-3 2.4-5.3 5.3-5.3z" class="st8"/>
  <path d="M111.9 169.3h21.9c2.9 0 5.3 2.4 5.3 5.3v21.9c0 2.9-2.4 5.3-5.3 5.3h-21.9c-2.9 0-5.3-2.4-5.3-5.3v-21.9c.1-3 2.4-5.3 5.3-5.3z" class="st8"/>
  <path d="M164.1 169.3H186c2.9 0 5.3 2.4 5.3 5.3v21.9c0 2.9-2.4 5.3-5.3 5.3h-21.9c-2.9 0-5.3-2.4-5.3-5.3v-21.9c0-3 2.4-5.3 5.3-5.3z" class="st8"/>
  <path d="M216.2 169.3h21.9c2.9 0 5.3 2.4 5.3 5.3v21.9c0 2.9-2.4 5.3-5.3 5.3h-21.9c-2.9 0-5.3-2.4-5.3-5.3v-21.9c0-3 2.4-5.3 5.3-5.3z" class="st8"/>
  <path d="M111.9 259.9h21.9c2.9 0 5.3 2.4 5.3 5.3v21.9c0 2.9-2.4 5.3-5.3 5.3h-21.9c-2.9 0-5.3-2.4-5.3-5.3v-21.9c.1-2.9 2.4-5.3 5.3-5.3z" class="st9"/>
  <path d="M164.1 259.9H186c2.9 0 5.3 2.4 5.3 5.3v21.9c0 2.9-2.4 5.3-5.3 5.3h-21.9c-2.9 0-5.3-2.4-5.3-5.3v-21.9c0-2.9 2.4-5.3 5.3-5.3z" class="st9"/>
  <path d="M216.2 259.9h21.9c2.9 0 5.3 2.4 5.3 5.3v21.9c0 2.9-2.4 5.3-5.3 5.3h-21.9c-2.9 0-5.3-2.4-5.3-5.3v-21.9c0-2.9 2.4-5.3 5.3-5.3z" class="st9"/>
  <path fill="#321c64" d="M162.5 259.9H250c1.9 0 3.5 1.6 3.5 3.5v46.2c0 1.9-1.6 3.5-3.5 3.5h-87.5c-1.9 0-3.5-1.6-3.5-3.5v-46.2c0-1.9 1.6-3.5 3.5-3.5z"/>
  <circle cx="206.3" cy="286.5" r="17.7" fill="#b494ff" opacity=".3"/>
  <path d="M215.9 286.5l-15.9-9.1v18.2l15.9-9.1z" class="st2"/>
  <path d="M180.7 84.6h162.8c3.6 0 6.5 2.9 6.5 6.5v86c0 3.6-2.9 6.5-6.5 6.5H180.7c-3.6 0-6.5-2.9-6.5-6.5V91c0-3.5 2.9-6.4 6.5-6.4z" class="st6"/>
  <circle cx="262.1" cy="134" r="33" class="st1"/>
  <path d="M280.1 134l-29.6-17v34l29.6-17z" class="st2"/>
</svg>
