<svg xmlns="http://www.w3.org/2000/svg" xml:space="preserve" width="990" height="990" viewBox="0 0 990 990">
  <path fill="#FFF" d="M0 0h990v990H0z"/>
  <path d="M330 60h30v30h-30z"/>
  <path d="M360 60h30v30h-30z"/>
  <path d="M420 60h30v30h-30z"/>
  <path d="M450 60h30v30h-30z"/>
  <path d="M540 60h30v30h-30z"/>
  <path d="M570 60h30v30h-30z"/>
  <path d="M600 60h30v30h-30z"/>
  <path d="M630 60h30v30h-30z"/>
  <path d="M660 60h30v30h-30z"/>
  <path d="M330 90h30v30h-30z"/>
  <path d="M420 90h30v30h-30z"/>
  <path d="M450 90h30v30h-30z"/>
  <path d="M480 90h30v30h-30z"/>
  <path d="M510 90h30v30h-30z"/>
  <path d="M600 90h30v30h-30z"/>
  <path d="M660 90h30v30h-30z"/>
  <path d="M330 120h30v30h-30z"/>
  <path d="M420 120h30v30h-30z"/>
  <path d="M450 120h30v30h-30z"/>
  <path d="M540 120h30v30h-30z"/>
  <path d="M570 120h30v30h-30z"/>
  <path d="M660 120h30v30h-30z"/>
  <path d="M450 150h30v30h-30z"/>
  <path d="M480 150h30v30h-30z"/>
  <path d="M510 150h30v30h-30z"/>
  <path d="M600 150h30v30h-30z"/>
  <path d="M330 180h30v30h-30z"/>
  <path d="M390 180h30v30h-30z"/>
  <path d="M450 180h30v30h-30z"/>
  <path d="M480 180h30v30h-30z"/>
  <path d="M540 180h30v30h-30z"/>
  <path d="M300 210h30v30h-30z"/>
  <path d="M420 210h30v30h-30z"/>
  <path d="M450 210h30v30h-30z"/>
  <path d="M480 210h30v30h-30z"/>
  <path d="M570 210h30v30h-30z"/>
  <path d="M630 210h30v30h-30z"/>
  <path d="M300 240h30v30h-30z"/>
  <path d="M360 240h30v30h-30z"/>
  <path d="M420 240h30v30h-30z"/>
  <path d="M480 240h30v30h-30z"/>
  <path d="M540 240h30v30h-30z"/>
  <path d="M600 240h30v30h-30z"/>
  <path d="M660 240h30v30h-30z"/>
  <path d="M390 270h30v30h-30z"/>
  <path d="M420 270h30v30h-30z"/>
  <path d="M480 270h30v30h-30z"/>
  <path d="M570 270h30v30h-30z"/>
  <path d="M600 270h30v30h-30z"/>
  <path d="M630 270h30v30h-30z"/>
  <path d="M660 270h30v30h-30z"/>
  <path d="M60 300h30v30H60z"/>
  <path d="M150 300h30v30h-30z"/>
  <path d="M210 300h30v30h-30z"/>
  <path d="M240 300h30v30h-30z"/>
  <path d="M300 300h30v30h-30z"/>
  <path d="M360 300h30v30h-30z"/>
  <path d="M390 300h30v30h-30z"/>
  <path d="M510 300h30v30h-30z"/>
  <path d="M600 300h30v30h-30z"/>
  <path d="M630 300h30v30h-30z"/>
  <path d="M690 300h30v30h-30z"/>
  <path d="M750 300h30v30h-30z"/>
  <path d="M90 330h30v30H90z"/>
  <path d="M120 330h30v30h-30z"/>
  <path d="M180 330h30v30h-30z"/>
  <path d="M210 330h30v30h-30z"/>
  <path d="M270 330h30v30h-30z"/>
  <path d="M330 330h30v30h-30z"/>
  <path d="M360 330h30v30h-30z"/>
  <path d="M390 330h30v30h-30z"/>
  <path d="M480 330h30v30h-30z"/>
  <path d="M510 330h30v30h-30z"/>
  <path d="M600 330h30v30h-30z"/>
  <path d="M660 330h30v30h-30z"/>
  <path d="M690 330h30v30h-30z"/>
  <path d="M720 330h30v30h-30z"/>
  <path d="M810 330h30v30h-30z"/>
  <path d="M900 330h30v30h-30z"/>
  <path d="M60 360h30v30H60z"/>
  <path d="M120 360h30v30h-30z"/>
  <path d="M150 360h30v30h-30z"/>
  <path d="M180 360h30v30h-30z"/>
  <path d="M240 360h30v30h-30z"/>
  <path d="M300 360h30v30h-30z"/>
  <path d="M330 360h30v30h-30z"/>
  <path d="M360 360h30v30h-30z"/>
  <path d="M540 360h30v30h-30z"/>
  <path d="M600 360h30v30h-30z"/>
  <path d="M630 360h30v30h-30z"/>
  <path d="M810 360h30v30h-30z"/>
  <path d="M840 360h30v30h-30z"/>
  <path d="M870 360h30v30h-30z"/>
  <path d="M60 390h30v30H60z"/>
  <path d="M150 390h30v30h-30z"/>
  <path d="M210 390h30v30h-30z"/>
  <path d="M300 390h30v30h-30z"/>
  <path d="M390 390h30v30h-30z"/>
  <path d="M480 390h30v30h-30z"/>
  <path d="M510 390h30v30h-30z"/>
  <path d="M660 390h30v30h-30z"/>
  <path d="M750 390h30v30h-30z"/>
  <path d="M780 390h30v30h-30z"/>
  <path d="M840 390h30v30h-30z"/>
  <path d="M870 390h30v30h-30z"/>
  <path d="M60 420h30v30H60z"/>
  <path d="M90 420h30v30H90z"/>
  <path d="M120 420h30v30h-30z"/>
  <path d="M240 420h30v30h-30z"/>
  <path d="M270 420h30v30h-30z"/>
  <path d="M540 420h30v30h-30z"/>
  <path d="M570 420h30v30h-30z"/>
  <path d="M600 420h30v30h-30z"/>
  <path d="M660 420h30v30h-30z"/>
  <path d="M690 420h30v30h-30z"/>
  <path d="M720 420h30v30h-30z"/>
  <path d="M810 420h30v30h-30z"/>
  <path d="M870 420h30v30h-30z"/>
  <path d="M900 420h30v30h-30z"/>
  <path d="M60 450h30v30H60z"/>
  <path d="M90 450h30v30H90z"/>
  <path d="M180 450h30v30h-30z"/>
  <path d="M210 450h30v30h-30z"/>
  <path d="M360 450h30v30h-30z"/>
  <path d="M390 450h30v30h-30z"/>
  <path d="M420 450h30v30h-30z"/>
  <path d="M510 450h30v30h-30z"/>
  <path d="M570 450h30v30h-30z"/>
  <path d="M600 450h30v30h-30z"/>
  <path d="M630 450h30v30h-30z"/>
  <path d="M660 450h30v30h-30z"/>
  <path d="M690 450h30v30h-30z"/>
  <path d="M750 450h30v30h-30z"/>
  <path d="M90 480h30v30H90z"/>
  <path d="M120 480h30v30h-30z"/>
  <path d="M150 480h30v30h-30z"/>
  <path d="M240 480h30v30h-30z"/>
  <path d="M270 480h30v30h-30z"/>
  <path d="M330 480h30v30h-30z"/>
  <path d="M360 480h30v30h-30z"/>
  <path d="M420 480h30v30h-30z"/>
  <path d="M510 480h30v30h-30z"/>
  <path d="M540 480h30v30h-30z"/>
  <path d="M570 480h30v30h-30z"/>
  <path d="M600 480h30v30h-30z"/>
  <path d="M690 480h30v30h-30z"/>
  <path d="M720 480h30v30h-30z"/>
  <path d="M750 480h30v30h-30z"/>
  <path d="M780 480h30v30h-30z"/>
  <path d="M810 480h30v30h-30z"/>
  <path d="M840 480h30v30h-30z"/>
  <path d="M870 480h30v30h-30z"/>
  <path d="M900 480h30v30h-30z"/>
  <path d="M60 510h30v30H60z"/>
  <path d="M210 510h30v30h-30z"/>
  <path d="M360 510h30v30h-30z"/>
  <path d="M450 510h30v30h-30z"/>
  <path d="M480 510h30v30h-30z"/>
  <path d="M540 510h30v30h-30z"/>
  <path d="M570 510h30v30h-30z"/>
  <path d="M660 510h30v30h-30z"/>
  <path d="M690 510h30v30h-30z"/>
  <path d="M750 510h30v30h-30z"/>
  <path d="M810 510h30v30h-30z"/>
  <path d="M870 510h30v30h-30z"/>
  <path d="M150 540h30v30h-30z"/>
  <path d="M180 540h30v30h-30z"/>
  <path d="M240 540h30v30h-30z"/>
  <path d="M390 540h30v30h-30z"/>
  <path d="M420 540h30v30h-30z"/>
  <path d="M450 540h30v30h-30z"/>
  <path d="M480 540h30v30h-30z"/>
  <path d="M510 540h30v30h-30z"/>
  <path d="M540 540h30v30h-30z"/>
  <path d="M570 540h30v30h-30z"/>
  <path d="M600 540h30v30h-30z"/>
  <path d="M660 540h30v30h-30z"/>
  <path d="M690 540h30v30h-30z"/>
  <path d="M750 540h30v30h-30z"/>
  <path d="M870 540h30v30h-30z"/>
  <path d="M90 570h30v30H90z"/>
  <path d="M180 570h30v30h-30z"/>
  <path d="M210 570h30v30h-30z"/>
  <path d="M300 570h30v30h-30z"/>
  <path d="M420 570h30v30h-30z"/>
  <path d="M510 570h30v30h-30z"/>
  <path d="M600 570h30v30h-30z"/>
  <path d="M660 570h30v30h-30z"/>
  <path d="M690 570h30v30h-30z"/>
  <path d="M720 570h30v30h-30z"/>
  <path d="M750 570h30v30h-30z"/>
  <path d="M810 570h30v30h-30z"/>
  <path d="M900 570h30v30h-30z"/>
  <path d="M60 600h30v30H60z"/>
  <path d="M120 600h30v30h-30z"/>
  <path d="M150 600h30v30h-30z"/>
  <path d="M210 600h30v30h-30z"/>
  <path d="M240 600h30v30h-30z"/>
  <path d="M270 600h30v30h-30z"/>
  <path d="M360 600h30v30h-30z"/>
  <path d="M390 600h30v30h-30z"/>
  <path d="M420 600h30v30h-30z"/>
  <path d="M450 600h30v30h-30z"/>
  <path d="M600 600h30v30h-30z"/>
  <path d="M660 600h30v30h-30z"/>
  <path d="M780 600h30v30h-30z"/>
  <path d="M870 600h30v30h-30z"/>
  <path d="M900 600h30v30h-30z"/>
  <path d="M120 630h30v30h-30z"/>
  <path d="M270 630h30v30h-30z"/>
  <path d="M300 630h30v30h-30z"/>
  <path d="M360 630h30v30h-30z"/>
  <path d="M450 630h30v30h-30z"/>
  <path d="M510 630h30v30h-30z"/>
  <path d="M540 630h30v30h-30z"/>
  <path d="M570 630h30v30h-30z"/>
  <path d="M600 630h30v30h-30z"/>
  <path d="M660 630h30v30h-30z"/>
  <path d="M690 630h30v30h-30z"/>
  <path d="M750 630h30v30h-30z"/>
  <path d="M870 630h30v30h-30z"/>
  <path d="M900 630h30v30h-30z"/>
  <path d="M60 660h30v30H60z"/>
  <path d="M150 660h30v30h-30z"/>
  <path d="M180 660h30v30h-30z"/>
  <path d="M240 660h30v30h-30z"/>
  <path d="M300 660h30v30h-30z"/>
  <path d="M330 660h30v30h-30z"/>
  <path d="M390 660h30v30h-30z"/>
  <path d="M480 660h30v30h-30z"/>
  <path d="M540 660h30v30h-30z"/>
  <path d="M660 660h30v30h-30z"/>
  <path d="M690 660h30v30h-30z"/>
  <path d="M720 660h30v30h-30z"/>
  <path d="M750 660h30v30h-30z"/>
  <path d="M780 660h30v30h-30z"/>
  <path d="M840 660h30v30h-30z"/>
  <path d="M300 690h30v30h-30z"/>
  <path d="M330 690h30v30h-30z"/>
  <path d="M360 690h30v30h-30z"/>
  <path d="M420 690h30v30h-30z"/>
  <path d="M450 690h30v30h-30z"/>
  <path d="M510 690h30v30h-30z"/>
  <path d="M540 690h30v30h-30z"/>
  <path d="M660 690h30v30h-30z"/>
  <path d="M780 690h30v30h-30z"/>
  <path d="M840 690h30v30h-30z"/>
  <path d="M870 690h30v30h-30z"/>
  <path d="M900 690h30v30h-30z"/>
  <path d="M330 720h30v30h-30z"/>
  <path d="M360 720h30v30h-30z"/>
  <path d="M450 720h30v30h-30z"/>
  <path d="M480 720h30v30h-30z"/>
  <path d="M510 720h30v30h-30z"/>
  <path d="M660 720h30v30h-30z"/>
  <path d="M720 720h30v30h-30z"/>
  <path d="M780 720h30v30h-30z"/>
  <path d="M870 720h30v30h-30z"/>
  <path d="M300 750h30v30h-30z"/>
  <path d="M330 750h30v30h-30z"/>
  <path d="M360 750h30v30h-30z"/>
  <path d="M390 750h30v30h-30z"/>
  <path d="M450 750h30v30h-30z"/>
  <path d="M540 750h30v30h-30z"/>
  <path d="M660 750h30v30h-30z"/>
  <path d="M780 750h30v30h-30z"/>
  <path d="M810 750h30v30h-30z"/>
  <path d="M840 750h30v30h-30z"/>
  <path d="M870 750h30v30h-30z"/>
  <path d="M900 750h30v30h-30z"/>
  <path d="M330 780h30v30h-30z"/>
  <path d="M480 780h30v30h-30z"/>
  <path d="M510 780h30v30h-30z"/>
  <path d="M540 780h30v30h-30z"/>
  <path d="M570 780h30v30h-30z"/>
  <path d="M660 780h30v30h-30z"/>
  <path d="M690 780h30v30h-30z"/>
  <path d="M720 780h30v30h-30z"/>
  <path d="M750 780h30v30h-30z"/>
  <path d="M780 780h30v30h-30z"/>
  <path d="M870 780h30v30h-30z"/>
  <path d="M300 810h30v30h-30z"/>
  <path d="M330 810h30v30h-30z"/>
  <path d="M390 810h30v30h-30z"/>
  <path d="M420 810h30v30h-30z"/>
  <path d="M450 810h30v30h-30z"/>
  <path d="M480 810h30v30h-30z"/>
  <path d="M510 810h30v30h-30z"/>
  <path d="M540 810h30v30h-30z"/>
  <path d="M570 810h30v30h-30z"/>
  <path d="M600 810h30v30h-30z"/>
  <path d="M630 810h30v30h-30z"/>
  <path d="M660 810h30v30h-30z"/>
  <path d="M720 810h30v30h-30z"/>
  <path d="M780 810h30v30h-30z"/>
  <path d="M810 810h30v30h-30z"/>
  <path d="M840 810h30v30h-30z"/>
  <path d="M900 810h30v30h-30z"/>
  <path d="M330 840h30v30h-30z"/>
  <path d="M390 840h30v30h-30z"/>
  <path d="M450 840h30v30h-30z"/>
  <path d="M480 840h30v30h-30z"/>
  <path d="M570 840h30v30h-30z"/>
  <path d="M690 840h30v30h-30z"/>
  <path d="M780 840h30v30h-30z"/>
  <path d="M810 840h30v30h-30z"/>
  <path d="M840 840h30v30h-30z"/>
  <path d="M900 840h30v30h-30z"/>
  <path d="M390 870h30v30h-30z"/>
  <path d="M420 870h30v30h-30z"/>
  <path d="M450 870h30v30h-30z"/>
  <path d="M570 870h30v30h-30z"/>
  <path d="M600 870h30v30h-30z"/>
  <path d="M660 870h30v30h-30z"/>
  <path d="M870 870h30v30h-30z"/>
  <path d="M300 900h30v30h-30z"/>
  <path d="M390 900h30v30h-30z"/>
  <path d="M420 900h30v30h-30z"/>
  <path d="M510 900h30v30h-30z"/>
  <path d="M570 900h30v30h-30z"/>
  <path d="M660 900h30v30h-30z"/>
  <path d="M690 900h30v30h-30z"/>
  <path d="M780 900h30v30h-30z"/>
  <path d="M810 900h30v30h-30z"/>
  <path d="M870 900h30v30h-30z"/>
  <path fill="none" d="M91.5 91.5h147v147h-147z"/>
  <path d="M238.5 60H60v210h210V60h-31.5zm0 178.5h-147v-147h147v147z"/>
  <path fill="none" d="M751.5 91.5h147v147h-147z"/>
  <path d="M898.5 60H720v210h210V60h-31.5zm0 178.5h-147v-147h147v147z"/>
  <path fill="none" d="M91.5 751.5h147v147h-147z"/>
  <path d="M238.5 720H60v210h210V720h-31.5zm0 178.5h-147v-147h147v147z"/>
  <g>
    <path d="M120 120h90v90h-90z"/>
  </g>
  <g>
    <path d="M780 120h90v90h-90z"/>
  </g>
  <g>
    <path d="M120 780h90v90h-90z"/>
  </g>
</svg>
