<svg xmlns="http://www.w3.org/2000/svg" width="350" height="350" viewBox="0 0 350 350" xml:space="preserve">
  <style>
    .st3{fill:#c38afa}.st4{fill:#7542e5}
  </style>
  <path fill="#cfcfd8" d="M17 55.8h138.4c8 0 14.6 6.5 14.6 14.6v240.1c0 8-6.5 14.6-14.6 14.6H14.6c-8 0-14.6-6.5-14.6-14.6V72.8c0-9.4 7.6-17 17-17z"/>
  <path fill="#bfbfc9" d="M48.6 25.8h72.9c4 0 7.3 3.3 7.3 7.3v23H41.3V33c0-4 3.2-7.2 7.3-7.2z"/>
  <path fill="#afafbb" d="M91.4 87.6l-66 106.3c-.4.6-.2 1.5.5 1.9.2.1.5.2.7.2h55.7c.7 0 1.3.6 1.3 1.4 0 .2 0 .3-.1.5l-35.9 94.3c-.3.7 0 1.5.7 1.8.6.2 1.3 0 1.6-.5l94.7-132c.4-.6.3-1.5-.3-1.9-.2-.2-.5-.2-.8-.2l-62.1.3c-.7 0-1.3-.6-1.3-1.3v-.3L94 88.7c.1-.7-.3-1.4-1.1-1.6-.6-.3-1.2 0-1.5.5z"/>
  <path d="M281.9 165.7c1.3 0 2.5-1 2.7-2.3 1-5.5 4.5-20.7 9.5-25.8 5-5.1 20-8.4 25.4-9.3 1.4-.3 2.4-1.4 2.4-2.8 0-1.3-.9-2.5-2.2-2.7-5.4-1-20.4-4.5-25.5-9.6-5.1-5-8.6-20-9.5-25.5-.2-1.3-1.4-2.2-2.7-2.2l-.1 80.2z" class="st3"/>
  <path d="M282.2 85.5c-1.3 0-2.5 1-2.7 2.3-.9 5.4-4.3 20.1-9.3 25.6-5.1 5.5-20.1 8.7-25.9 9.7-1.2.2-2.1 1.3-2.2 2.5v.2c.1 1.2 1 2.3 2.3 2.4 5.5.9 20.7 4.3 25.8 9.3s8.4 20.1 9.3 25.8c.2 1.3 1.3 2.4 2.7 2.4V85.5z" class="st4"/>
  <path d="M325.1 74.8c.8 0 1.5-.6 1.7-1.4.6-3.4 2.8-12.8 5.9-16 3.1-3.1 12.5-5.2 15.8-5.8.8-.1 1.4-.8 1.4-1.7 0-.8-.6-1.5-1.4-1.7-3.4-.6-12.7-2.8-15.9-5.9s-5.3-12.4-5.9-15.9c-.2-.8-.9-1.4-1.7-1.4v49.8z" class="st3"/>
  <path d="M325.2 25c-.8 0-1.5.6-1.7 1.4-.6 3.4-2.7 12.5-5.8 15.9-3.2 3.4-12.5 5.4-16.1 6-.8.1-1.3.8-1.4 1.6v.2c0 .8.6 1.4 1.4 1.5 3.4.6 12.9 2.6 16.1 5.8 3.2 3.1 5.2 12.5 5.8 16.1.1.8.8 1.5 1.7 1.5V25z" class="st4"/>
  <g>
    <path id="Fill-1" d="M109.2 183.7C92.4 121.2 129.4 56.9 191.9 40c20.9-5.6 43-5.4 63.8.8 1.3.3 2 1.7 1.7 3-.2.8-.8 1.4-1.6 1.7-51.4 11.8-83.5 63-71.7 114.4s63 83.5 114.4 71.7c.7-.2 1.5-.4 2.2-.5l4.5-1.2c1.3-.3 2.6.4 3 1.8.2.8 0 1.7-.6 2.4-44.5 47-118.7 49.1-165.7 4.7-15.8-15.2-27.1-34.2-32.7-55.1" class="st3"/>
    <path id="Fill-19" d="M275.5 245.5c-55 15-111.7-17.4-126.7-72.4s17.4-111.7 72.4-126.7c11.5-3.1 23.4-4.2 35.2-3.3 0-.2-.1-.5-.2-.7-.2-.8-.9-1.5-1.8-1.7-62-18.4-127.4 17-145.9 79.1s16.9 127.6 79.1 146.1c42.4 12.6 88.3.3 118.8-31.8.6-.6.9-1.5.7-2.4 0-.2-.1-.4-.2-.6-9.6 6.5-20.3 11.3-31.4 14.4" class="st4"/>
  </g>
</svg>
