<svg xmlns="http://www.w3.org/2000/svg" width="350" height="350" viewBox="0 0 350 350" xml:space="preserve">
  <style>
    .st4{fill:none;stroke:#7542e5;stroke-width:3.5;stroke-linecap:round;stroke-linejoin:round}.st5,.st6{opacity:.5;fill:#fff;enable-background:new}.st6{fill:#c689ff}
  </style>
  <path fill="#c38afa" d="M96.6 21.9h156.7c8.7 0 15.7 7 15.7 15.7v274.9c0 8.7-7 15.7-15.7 15.7H96.6c-8.7 0-15.7-7-15.7-15.7V37.6c0-8.7 7.1-15.7 15.7-15.7z"/>
  <path fill="#7542e5" d="M253.5 45.2v259.6c0 4.3-3.5 7.9-7.9 7.9H104.3c-4.3 0-7.9-3.5-7.9-7.9V45.2c0-4.3 3.5-7.9 7.9-7.9h141.3c4.4 0 7.9 3.6 7.9 7.9z"/>
  <path fill="#9059ff" d="M96.5 53.1v157.3l157-157.3h-157z"/>
  <path fill="#592acb" d="M104.3 37.3h141.3c4.3 0 7.9 3.5 7.9 7.9v7.9h-157v-7.9c0-4.3 3.5-7.9 7.8-7.9z"/>
  <path d="M165.8 320.5h18.3" class="st4"/>
  <path d="M173 29.5h3.9" class="st4"/>
  <path d="M111.9 68.1h21.9c2.9 0 5.3 2.4 5.3 5.3v21.9c0 2.9-2.4 5.3-5.3 5.3h-21.9c-2.9 0-5.3-2.4-5.3-5.3v-22c.1-2.9 2.4-5.2 5.3-5.2z" class="st5"/>
  <path d="M164.1 68.1H186c2.9 0 5.3 2.4 5.3 5.3v21.9c0 2.9-2.4 5.3-5.3 5.3h-21.9c-2.9 0-5.3-2.4-5.3-5.3v-22c0-2.9 2.4-5.2 5.3-5.2z" class="st5"/>
  <path d="M216.2 68.1h21.9c2.9 0 5.3 2.4 5.3 5.3v21.9c0 2.9-2.4 5.3-5.3 5.3h-21.9c-2.9 0-5.3-2.4-5.3-5.3v-22c0-2.9 2.4-5.2 5.3-5.2z" class="st5"/>
  <path d="M111.9 117.8h21.9c2.9 0 5.3 2.4 5.3 5.3V145c0 2.9-2.4 5.3-5.3 5.3h-21.9c-2.9 0-5.3-2.4-5.3-5.3v-21.9c.1-3 2.4-5.3 5.3-5.3z" class="st5"/>
  <path d="M164.1 117.8H186c2.9 0 5.3 2.4 5.3 5.3V145c0 2.9-2.4 5.3-5.3 5.3h-21.9c-2.9 0-5.3-2.4-5.3-5.3v-21.9c0-3 2.4-5.3 5.3-5.3z" class="st5"/>
  <path d="M216.2 117.8h21.9c2.9 0 5.3 2.4 5.3 5.3V145c0 2.9-2.4 5.3-5.3 5.3h-21.9c-2.9 0-5.3-2.4-5.3-5.3v-21.9c0-3 2.4-5.3 5.3-5.3z" class="st5"/>
  <path d="M111.9 169.3h21.9c2.9 0 5.3 2.4 5.3 5.3v21.9c0 2.9-2.4 5.3-5.3 5.3h-21.9c-2.9 0-5.3-2.4-5.3-5.3v-21.9c.1-3 2.4-5.3 5.3-5.3z" class="st5"/>
  <path d="M164.1 169.3H186c2.9 0 5.3 2.4 5.3 5.3v21.9c0 2.9-2.4 5.3-5.3 5.3h-21.9c-2.9 0-5.3-2.4-5.3-5.3v-21.9c0-3 2.4-5.3 5.3-5.3z" class="st5"/>
  <path d="M216.2 169.3h21.9c2.9 0 5.3 2.4 5.3 5.3v21.9c0 2.9-2.4 5.3-5.3 5.3h-21.9c-2.9 0-5.3-2.4-5.3-5.3v-21.9c0-3 2.4-5.3 5.3-5.3z" class="st5"/>
  <path d="M111.9 259.9h21.9c2.9 0 5.3 2.4 5.3 5.3v21.9c0 2.9-2.4 5.3-5.3 5.3h-21.9c-2.9 0-5.3-2.4-5.3-5.3v-21.9c.1-2.9 2.4-5.3 5.3-5.3z" class="st6"/>
  <path d="M164.1 259.9H186c2.9 0 5.3 2.4 5.3 5.3v21.9c0 2.9-2.4 5.3-5.3 5.3h-21.9c-2.9 0-5.3-2.4-5.3-5.3v-21.9c0-2.9 2.4-5.3 5.3-5.3z" class="st6"/>
  <path d="M216.2 259.9h21.9c2.9 0 5.3 2.4 5.3 5.3v21.9c0 2.9-2.4 5.3-5.3 5.3h-21.9c-2.9 0-5.3-2.4-5.3-5.3v-21.9c0-2.9 2.4-5.3 5.3-5.3z" class="st6"/>
  <path fill="#ab71ff" d="M13.4 130h323.3c7.4 0 13.4 6 13.4 13.4v32.8c0 7.4-6 13.4-13.4 13.4H13.4c-7.4 0-13.4-6-13.4-13.4v-32.8C0 136 6 130 13.4 130z"/>
  <path fill="#e7dfff" d="M56.8 177.2l-.1-.1L44.5 165c5.3-7.6 3.4-18-4.2-23.3-7.6-5.3-18-3.4-23.3 4.2-5.3 7.6-3.4 18 4.2 23.3 5.4 3.8 12.5 4 18.1.6L51.6 182c1.3 1.4 3.5 1.5 4.9.1 1.5-1.3 1.5-3.5.3-4.9zm-15.2-21.9c0 6-4.8 10.8-10.8 10.8-6.1.1-11.1-4.7-11.2-10.8-.1-6.1 4.7-11.1 10.8-11.2 6.1-.1 11.1 4.7 11.2 10.8v.4z"/>
</svg>
