<svg xmlns="http://www.w3.org/2000/svg" width="350" height="350" viewBox="0 0 350 350" xml:space="preserve">
  <style>
    .st3{fill:#592acb}.st4{fill:none;stroke:#7542e5;stroke-width:4;stroke-linecap:round;stroke-linejoin:round}.st5{opacity:.5;fill:#fff;enable-background:new}
  </style>
  <path fill="#c38afa" d="M85.4 0h179.1c9.9 0 17.9 8 17.9 17.9V332c0 9.9-8 17.9-17.9 17.9H85.4c-9.9 0-17.9-8-17.9-17.9V17.9C67.5 8 75.5 0 85.4 0z"/>
  <path fill="#7542e5" d="M264.7 26.6v296.7c0 5-4 9-9 9H94.2c-5 0-9-4-9-9V26.6c0-5 4-9 9-9h161.5c5 .1 9 4.1 9 9z"/>
  <path fill="#fff" d="M85.3 35.7v179.8L264.7 35.7H85.3z" opacity=".33"/>
  <path d="M94.2 17.7h161.5c5 0 9 4 9 9v9H85.3v-9c0-5 4-9 8.9-9z" class="st3"/>
  <path d="M164.5 341.3h20.9" class="st4"/>
  <path d="M172.8 8.7h4.5" class="st4"/>
  <path d="M102.9 52.8h25c3.3 0 6 2.7 6 6v25.1c0 3.3-2.7 6-6 6h-25c-3.3 0-6-2.7-6-6V58.8c0-3.3 2.7-6 6-6z" class="st5"/>
  <path d="M162.5 52.8h25c3.3 0 6 2.7 6 6v25.1c0 3.3-2.7 6-6 6h-25c-3.3 0-6-2.7-6-6V58.8c0-3.3 2.7-6 6-6z" class="st5"/>
  <path d="M222.1 52.8h25c3.3 0 6 2.7 6 6v25.1c0 3.3-2.7 6-6 6h-25c-3.3 0-6-2.7-6-6V58.8c0-3.3 2.7-6 6-6z" class="st5"/>
  <path d="M102.9 107.6h25c3.3 0 6 2.7 6 6v25.1c0 3.3-2.7 6-6 6h-25c-3.3 0-6-2.7-6-6v-25.1c0-3.3 2.7-6 6-6z" class="st5"/>
  <path d="M162.5 107.6h25c3.3 0 6 2.7 6 6v25.1c0 3.3-2.7 6-6 6h-25c-3.3 0-6-2.7-6-6v-25.1c0-3.3 2.7-6 6-6z" class="st5"/>
  <path d="M222.1 107.6h25c3.3 0 6 2.7 6 6v25.1c0 3.3-2.7 6-6 6h-25c-3.3 0-6-2.7-6-6v-25.1c0-3.3 2.7-6 6-6z" class="st5"/>
  <path fill="#fff" d="M102.9 291.3H247c3.3 0 6 2.7 6 6v14.9c0 3.3-2.7 6-6 6H102.9c-3.3 0-6-2.7-6-6v-14.9c0-3.3 2.7-6 6-6z"/>
  <path d="M122.2 312.5l-5.5-5.5c2.4-3.4 1.6-8-1.8-10.4-3.4-2.4-8-1.6-10.4 1.8-2.4 3.4-1.6 8 1.8 10.4 2.4 1.7 5.6 1.8 8.1.3l5.5 5.5c.6.6 1.6.7 2.2.1.7-.5.7-1.5.1-2.2zm-6.7-9.7c0 2.7-2.1 4.8-4.8 4.8-2.7.1-5-2.1-5-4.8-.1-2.7 2.1-5 4.8-5 2.7-.1 5 2.1 5 4.8v.2z" class="st3"/>
</svg>
