<svg xmlns="http://www.w3.org/2000/svg" width="350" height="350" viewBox="0 0 350 350">
  <path fill="#ffde67" d="M179 2L68.4 179.9c-1.2 2-.6 4.6 1.4 5.9.7.4 1.4.6 2.2.6h99.4l-60.2 157.8c-1.8 4.6 4.5 8 7.4 4L277 127.7c1.4-1.9.9-4.6-1-5.9-.7-.5-1.6-.8-2.5-.8l-110.1.5L186.8 5.1c.4-2.3-1.1-4.5-3.4-5-1.7-.4-3.4.4-4.4 1.9z"/>
  <path fill="#cb9eff" d="M159.7 71.1c0-5.4-3.1-9.9-7.4-9.9-3.9 0-5.3 4.6-8.4 4.6-2 0-3.6-1.6-3.8-3.8V46.6c0-2.5-1.8-5-5-5h-16c-2 0-3.6-1.6-3.6-3.8 0-3.8 4.9-3.9 4.9-8.6 0-4.3-4.5-7.4-10-7.4s-10 3.1-10 7.4c0 4.8 4.9 4.9 4.9 8.6 0 2-1.6 3.6-3.8 3.8h-16c-2.8 0-4.9 2.3-4.9 4.9v11c0 2 1.6 3.6 3.8 3.6 3.8 0 3.9-4.9 8.8-4.9 4.3 0 7.5 4.4 7.5 9.9s-3 9.8-7.8 9.8c-1 0-2-.3-2.9-.8-2.1-1.4-2.9-4.1-5.6-4.1-2 0-3.6 1.6-3.8 3.8v20.9c.1 2.8 2.4 5 5.1 5h16c2 0 3.6-1.6 3.8-3.8 0-3.8-4.9-3.9-4.9-8.6 0-4.3 4.4-7.4 9.9-7.4s9.9 3.1 9.9 7.4c0 4.8-4.9 4.9-4.9 8.6 0 2 1.6 3.6 3.8 3.8h16c2.8 0 4.9-2.3 4.9-4.9V79.6c0-2 1.6-3.6 3.8-3.8 3.8 0 3.9 4.9 8.6 4.9 4.3 0 7.1-4.1 7.1-9.6z"/>
  <path fill="#ab71ff" d="M125.1 213.2c0-8.4-4.9-15.4-11.5-15.4-6 0-8.2 7.2-13 7.2-3.1 0-5.6-2.5-5.8-5.8V175c0-3.9-2.7-7.8-7.8-7.8H62.1c-3.1 0-5.6-2.5-5.6-5.8 0-5.8 7.6-6 7.6-13.4 0-6.6-7-11.5-15.6-11.5s-15.6 4.9-15.6 11.5c0 7.4 7.6 7.6 7.6 13.4 0 3.1-2.5 5.6-5.8 5.8H9.8c-4.3 0-7.6 3.5-7.6 7.6v17.1c0 3.1 2.5 5.6 5.8 5.6 5.8 0 6-7.6 13.6-7.6 6.6 0 11.7 6.8 11.7 15.4s-4.7 15.2-12.1 15.2c-1.6 0-3.1-.4-4.5-1.2-3.3-2.1-4.5-6.4-8.8-6.4-3.1 0-5.6 2.5-5.8 5.8v32.5c.2 4.3 3.7 7.8 8 7.8H35c3.1 0 5.6-2.5 5.8-5.8 0-5.8-7.6-6-7.6-13.4 0-6.6 6.8-11.5 15.4-11.5S64 233.2 64 239.8c0 7.4-7.6 7.6-7.6 13.4 0 3.1 2.5 5.6 5.8 5.8h24.9c4.3 0 7.6-3.5 7.6-7.6v-25.1c0-3.1 2.5-5.6 5.8-5.8 5.8 0 6 7.6 13.4 7.6 6.9 0 11.2-6.4 11.2-14.9z"/>
  <path fill="#592acb" d="M347.8 171.4c0-10.4-6-19.1-14.2-19.1-7.5 0-10.1 8.9-16.2 8.9-3.9 0-7-3.1-7.2-7.2v-29.9c0-4.8-3.4-9.7-9.7-9.7h-30.9c-3.9 0-7-3.1-7-7.2 0-7.2 9.4-7.5 9.4-16.7 0-8.2-8.7-14.2-19.3-14.2-10.6 0-19.3 6-19.3 14.2 0 9.2 9.4 9.4 9.4 16.7 0 3.9-3.1 7-7.2 7.2h-30.9c-5.3 0-9.4 4.3-9.4 9.4V145c0 3.9 3.1 7 7.2 7 7.2 0 7.5-9.4 16.9-9.4 8.2 0 14.5 8.4 14.5 19.1s-5.8 18.8-15 18.8c-1.9 0-3.9-.5-5.6-1.4-4.1-2.7-5.6-8-10.9-8-3.9 0-7 3.1-7.2 7.2v40.3c.2 5.3 4.6 9.7 9.9 9.7H236c3.9 0 7-3.1 7.2-7.2 0-7.2-9.4-7.5-9.4-16.7 0-8.2 8.4-14.2 19.1-14.2s19.1 6 19.1 14.2c0 9.2-9.4 9.4-9.4 16.7 0 3.9 3.1 7 7.2 7.2h30.9c5.3 0 9.4-4.3 9.4-9.4v-31.1c0-3.9 3.1-7 7.2-7.2 7.2 0 7.5 9.4 16.7 9.4 8.5 0 13.8-8 13.8-18.6z"/>
</svg>
