<svg xmlns="http://www.w3.org/2000/svg" width="502" height="222" fill="none"><rect width="463" height="172" x="11" y="40" stroke="#0090ED" stroke-dasharray="11.79 11.79" stroke-width="5.238" rx="3.143"/><path fill="#333336" d="M492.297 7.406c0-.626.316-1.197.842-1.53l3.186-1.996c.287-.178.615-.274.954-.274H502V0h-4.721a5.384 5.384 0 0 0-2.857.822l-3.186 2c-.273.17-.503.39-.736.603-.236-.214-.463-.433-.736-.603l-3.188-2A5.388 5.388 0 0 0 483.721 0H479v3.606h4.721c.336 0 .667.096.954.274l3.186 1.997c.529.332.845.903.845 1.529V36.59c0 .626-.316 1.197-.845 1.53l-3.189 1.996a1.798 1.798 0 0 1-.954.274H479v3.606h4.721a5.39 5.39 0 0 0 2.858-.822l3.185-1.997c.276-.173.503-.392.736-.603.233.211.463.43.736.603l3.188 2a5.39 5.39 0 0 0 2.858.822H502v-3.606h-4.721c-.336 0-.667-.096-.954-.274l-3.186-1.997a1.791 1.791 0 0 1-.842-1.529V7.406ZM107.182 176.771c7.067 0 11.581-2.91 14.788-7.423l-6.711-3.92c-1.603 2.613-4.157 4.276-7.958 4.276-4.751 0-8.136-2.613-9.205-6.77h25.477v-3.088c0-9.502-6.948-16.451-16.569-16.451-9.561 0-16.807 7.424-16.807 16.748 0 9.324 6.652 16.628 16.985 16.628Zm-.178-26.427c4.276 0 7.364 2.197 8.433 6.176H98.334c1.306-3.741 4.513-6.176 8.67-6.176Zm20.817 25.774h8.136v-16.925c0-5.405 2.732-7.543 6.948-7.543 1.841 0 3.385.475 4.276 1.129l2.97-8.077c-1.366-.713-3.267-1.247-5.405-1.247-4.098 0-7.304 1.722-8.849 5.523v-4.929h-8.076v32.069Zm29.338 12.709c6.771 0 10.215-2.791 13.541-10.987l13.837-33.791h-8.552l-7.898 20.667-8.315-20.667h-8.73l12.888 30.703-.535 1.307c-1.603 3.801-3.385 5.107-6.295 5.107-1.841 0-3.207-.772-4.335-1.96l-4.751 6.652c2.375 1.722 5.76 2.969 9.145 2.969Zm57.527-12.056c4.157 0 7.779-1.9 10.036-5.048v4.395h8.077v-46.857h-8.077v18.885c-2.197-2.969-5.701-4.751-9.918-4.751-8.195 0-15.559 6.474-15.559 16.688 0 10.215 7.542 16.688 15.441 16.688Zm1.603-7.72c-4.929 0-8.908-3.979-8.908-9.027 0-5.048 3.979-9.027 8.908-9.027 5.048 0 8.908 4.038 8.908 9.027 0 4.989-3.86 9.027-8.908 9.027Zm21.855 7.067h8.136v-16.925c0-5.405 2.732-7.543 6.949-7.543 1.841 0 3.385.475 4.276 1.129l2.969-8.077c-1.366-.713-3.266-1.247-5.404-1.247-4.098 0-7.305 1.722-8.849 5.523v-4.929h-8.077v32.069Zm37.891.653c3.919 0 7.186-1.781 9.264-4.691v4.038l8.196-.059v-32.07l-8.315.06v17.638c0 4.988-2.85 7.78-6.711 7.78-4.394 0-6.532-2.792-6.532-7.305v-18.113h-8.374v19.241c0 8.433 4.573 13.481 12.472 13.481Zm45.019-.653h9.383l-12.649-18.41 12.055-13.659h-9.799l-13.006 14.906V129.32h-8.136v46.798h8.136v-7.72l4.93-5.523 9.086 13.243Zm20.497.653c5.048 0 9.443-2.256 11.759-5.582v4.929h7.898v-19.717c0-8.076-5.404-13.006-14.847-13.006-7.186 0-11.877 3.029-15.144 7.305l7.543 3.742c1.484-2.673 3.919-4.217 7.542-4.217 4.632 0 6.948 2.376 6.948 5.82v.416h-8.433c-8.908 0-14.431 4.098-14.431 10.749 0 5.642 4.157 9.561 11.165 9.561Zm2.375-6.77c-3.385 0-4.988-1.188-4.988-3.504 0-2.494 1.96-4.038 6.829-4.038h7.543v1.722c-1.604 3.445-5.464 5.82-9.384 5.82Zm22.52 6.117h8.136v-16.925c0-5.405 2.732-7.543 6.949-7.543 1.841 0 3.385.475 4.276 1.129l2.969-8.077c-1.366-.713-3.266-1.247-5.404-1.247-4.098 0-7.305 1.722-8.849 5.523v-4.929h-8.077v32.069Zm38.786.653c7.067 0 11.581-2.91 14.788-7.423l-6.711-3.92c-1.604 2.613-4.157 4.276-7.958 4.276-4.751 0-8.136-2.613-9.205-6.77h25.477v-3.088c0-9.502-6.948-16.451-16.569-16.451-9.561 0-16.807 7.424-16.807 16.748 0 9.324 6.652 16.628 16.985 16.628Zm-.178-26.427c4.276 0 7.364 2.197 8.433 6.176h-17.104c1.307-3.741 4.514-6.176 8.671-6.176Zm43.026 25.774h9.384l-12.65-18.41 12.056-13.659h-9.799l-13.006 14.906V129.32h-8.136v46.798h8.136v-7.72l4.929-5.523 9.086 13.243ZM35.91 117h29.338v-7.958H44.64c.238-3.979 4.632-6.533 9.383-9.443 5.523-3.325 11.403-7.067 11.403-14.075 0-7.007-5.345-12.471-14.49-12.471-7.365 0-12.888 3.86-15.798 9.74l7.424 3.622c1.425-3.504 4.275-6.117 8.254-6.117 3.98 0 6.177 2.138 6.177 5.167 0 3.504-4.098 5.88-8.909 8.849-5.76 3.504-12.174 7.839-12.174 15.678V117Zm50.468-7.423c-5.285 0-8.552-2.911-8.552-13.6v-1.782c0-10.215 3.445-13.184 8.612-13.184 5.048 0 8.492 2.672 8.492 13.184v1.782c0 10.571-3.266 13.6-8.552 13.6Zm0 8.017c9.918 0 16.985-5.583 16.985-21.499v-2.019c0-14.847-7.305-21.023-16.985-21.023-9.502 0-16.925 5.998-16.925 21.023v2.02c0 15.737 6.889 21.498 16.925 21.498ZM107.05 117h29.337v-7.958H115.78c.237-3.979 4.632-6.533 9.383-9.443 5.523-3.325 11.402-7.067 11.402-14.075 0-7.007-5.344-12.471-14.49-12.471-7.364 0-12.887 3.86-15.797 9.74l7.423 3.622c1.425-3.504 4.276-6.117 8.255-6.117 3.979 0 6.176 2.138 6.176 5.167 0 3.504-4.097 5.88-8.908 8.849-5.76 3.504-12.174 7.839-12.174 15.678V117Zm47.954.594c9.799 0 15.738-5.761 15.738-13.303 0-4.632-2.376-7.899-6.176-9.858 3.147-2.079 5.107-5.286 5.107-9.265 0-7.245-5.642-12.115-14.966-12.115-6.651 0-11.877 2.91-15.025 7.72l6.948 4.157c1.663-3.028 4.217-4.75 8.137-4.75 4.454 0 6.592 2.375 6.592 5.226 0 3.206-2.376 5.641-6.949 5.641h-4.454v7.543h4.811c4.513 0 7.542 2.078 7.542 5.523 0 3.622-3.029 5.879-7.305 5.879-3.979 0-7.008-1.484-9.146-4.988l-7.007 5.166c3.741 4.989 8.492 7.424 16.153 7.424Zm33.242-12.115h23.993v-7.067h-23.993v7.067ZM252.425 117h9.383l-12.649-18.41 12.055-13.66h-9.799l-13.006 14.907V70.202h-8.136V117h8.136v-7.72l4.93-5.524L252.425 117Zm24.404.653c9.681 0 16.985-7.483 16.985-16.688 0-9.264-7.423-16.688-16.985-16.688-9.621 0-16.925 7.424-16.925 16.688 0 9.205 7.304 16.688 16.925 16.688Zm.06-7.78c-4.929 0-8.79-3.979-8.79-8.967 0-4.989 3.861-8.968 8.79-8.968 4.87 0 8.789 3.98 8.789 8.968 0 4.988-3.919 8.967-8.789 8.967ZM298.107 117h8.255V99.302c0-4.988 2.969-7.839 6.83-7.839 4.335 0 6.532 2.85 6.532 7.424V117h8.374V97.64c0-8.374-4.81-13.363-12.412-13.363-3.979 0-7.305 1.782-9.383 4.692V84.93h-8.196V117Zm35.222 0h8.374V84.93h-8.374V117Zm-1.069-41.097c0 3.03 2.138 5.227 5.226 5.227 3.148 0 5.286-2.198 5.286-5.227 0-3.088-2.138-5.344-5.286-5.344-3.029 0-5.226 2.256-5.226 5.344Zm30.75 41.75c7.067 0 11.58-2.91 14.787-7.423l-6.711-3.92c-1.603 2.613-4.157 4.276-7.958 4.276-4.751 0-8.136-2.613-9.205-6.77h25.478v-3.088c0-9.502-6.949-16.45-16.57-16.45-9.561 0-16.806 7.423-16.806 16.747s6.651 16.628 16.985 16.628Zm-.179-26.427c4.276 0 7.364 2.197 8.433 6.176h-17.103c1.306-3.742 4.513-6.176 8.67-6.176Zm36.731 26.427c7.662 0 13.006-4.276 15.738-10.214l-7.661-3.148c-1.306 3.266-4.157 5.582-7.958 5.582-4.929 0-8.849-4.038-8.849-8.908 0-4.988 3.861-9.027 8.79-9.027 3.682 0 6.651 2.079 7.958 5.523l7.542-3.028c-2.494-6.058-8.195-10.156-15.619-10.156-9.502 0-16.807 7.246-16.807 16.688 0 9.324 7.246 16.688 16.866 16.688Z"/><g fill="#333336" clip-path="url(#a)"><path d="M39.742 172.556c.324 0 .648-.056.967-.166l9.263-3.217 18.887-19.642c1.97-2.052 1.97-5.393 0-7.444l-2.86-2.976a4.934 4.934 0 0 0-7.157 0l-18.886 19.646-3.09 9.645a3.23 3.23 0 0 0 .734 3.228 2.974 2.974 0 0 0 2.142.926Zm21.486-30.961a1.638 1.638 0 0 1 2.383 0l2.863 2.979a1.801 1.801 0 0 1 0 2.478l-2.874 2.992-5.249-5.459 2.877-2.99Zm-18.326 19.059 13.061-13.585 5.246 5.457-13.06 13.588-7.872 2.731 2.625-8.191ZM72.982 174.49l-4.84 1.538a11.362 11.362 0 0 1-5.767.297l-5.619-1.17c-3.29-.682-6.762-.2-9.765 1.361-3.325 1.729-7.335 1.056-9.966-1.684l-.137-.143-2.248 2.627c2.307 2.397 5.375 3.66 8.486 3.66a11.58 11.58 0 0 0 5.373-1.325 11.452 11.452 0 0 1 7.596-1.055l5.619 1.171c2.455.51 5.019.373 7.412-.388l4.841-1.538-.985-3.351Z"/></g><path stroke="#333336" stroke-width="1.06" d="M462.53 126.118v58.326"/><defs><clipPath id="a"><path fill="#fff" d="M33 137.118h43.176v44.911H33z"/></clipPath></defs></svg>
