<svg xmlns="http://www.w3.org/2000/svg" xml:space="preserve" enable-background="new 0 0 350 247" viewBox="0 0 350 247" width="350" height="247">
  <path fill="#FFF" stroke="#F0F0F4" stroke-width="2.7138" d="M330.02 1.36H19.98c-1.5 0-2.71 1.22-2.71 2.71v238.52c0 1.5 1.21 2.71 2.71 2.71h310.05c1.5 0 2.71-1.22 2.71-2.71V4.07c0-1.5-1.22-2.71-2.72-2.71z"/>
  <path fill="#F0F0F4" d="M15.91 20.35H334.1v22.39H15.91V20.35z"/>
  <path fill="#FFF" d="M277.78 26.46H72.22c-.75 0-1.36.61-1.36 1.36v7.46c0 .75.61 1.36 1.36 1.36h205.57c.75 0 1.36-.61 1.36-1.36v-7.46c-.01-.75-.62-1.36-1.37-1.36z"/>
  <path fill="#CFCFD8" d="M18.62 0h312.76c.72 0 1.41.29 1.92.81.51.53.8 1.23.79 1.97v18.08H15.91V2.78c0-.73.28-1.44.79-1.97.5-.52 1.2-.81 1.92-.81z"/>
  <path fill="#F0F0F4" d="M43.04 7.3c0-2.3 1.87-4.17 4.17-4.17h54.07c2.3 0 4.17 1.87 4.17 4.17v6.26c0 2.3-1.87 4.17-4.17 4.17H47.22c-2.3 0-4.17-1.87-4.17-4.17V7.3z"/>
  <path fill="#FFF" stroke="#F0F0F0" stroke-miterlimit="10" d="M311.93 61.23H38.73c-1.83 0-3.32 1.49-3.32 3.32v151.13c0 1.83 1.49 3.32 3.32 3.32h273.2c1.83 0 3.32-1.49 3.32-3.32V64.56c0-1.84-1.48-3.33-3.32-3.33z" filter="drop-shadow(0 1px 3px rgba(0,0,0,.2))"/>
  <path fill="#FFF" stroke="#FF4F5E" stroke-width="1.3308" d="M287.66 85.35H60.99c-2.94 0-5.32 2.38-5.32 5.32v37.09c0 2.94 2.38 5.32 5.32 5.32h226.67c2.94 0 5.32-2.38 5.32-5.32V90.67c0-2.94-2.38-5.32-5.32-5.32z"/>
  <path fill="#20123A" d="M104.65 113.78v-7.01h.09l2.85 6.99h1.15l2.85-6.99h.09v7h1.39v-9.68h-1.77l-3.08 7.52h-.11l-3.08-7.52h-1.77v9.67h1.39zm11.52 2.82c1.17 0 1.93-.63 2.34-1.76l3.02-8.31h-1.52l-1.84 5.63h-.08l-1.84-5.63h-1.51l2.66 7.35-.21.57c-.35.94-.86 1.03-1.64.82l-.34 1.17c.17.07.52.16.96.16zm8.27-2.82v-4.22h4.11v-1.25h-4.11v-2.95h4.54v-1.26h-6v9.68h1.46zm6.94-8.37c.49 0 .89-.38.89-.84 0-.46-.41-.84-.89-.84-.49 0-.89.38-.89.84-.01.46.4.84.89.84zm.7 8.37v-7.26h-1.41v7.26h1.41zm4.5.1c.45-.01.75-.09.92-.15l-.25-1.17-.12.02c-.12.02-.25.04-.38.04-.46 0-.87-.15-.87-.97v-3.99h1.49v-1.13h-1.49v-1.74h-1.41v1.74h-1.06v1.13h1.06v4.29c-.01 1.31.99 1.95 2.11 1.93zm3.76-.1v-4.31c0-1.16.71-1.82 1.69-1.82.96 0 1.54.63 1.54 1.68v4.45h1.41v-4.62c0-1.8-.99-2.74-2.47-2.74-1.09 0-1.8.5-2.14 1.28h-.09v-1.18h-1.36v7.26h1.42zm9.66.15c1.58 0 2.7-.78 3.02-1.96l-1.34-.24c-.26.69-.87 1.04-1.67 1.04-1.21 0-2.02-.78-2.06-2.18h5.16v-.5c0-2.62-1.57-3.65-3.21-3.65-2.02 0-3.35 1.54-3.35 3.77-.01 2.25 1.31 3.72 3.45 3.72zm1.73-4.41h-3.77c.06-1.03.8-1.92 1.95-1.92 1.09 0 1.81.81 1.82 1.92zm5.57 4.41c1.75 0 2.97-.93 2.97-2.24 0-1.03-.65-1.66-1.98-1.96l-1.15-.27c-.8-.19-1.14-.46-1.14-.95 0-.56.6-.95 1.4-.95.88 0 1.28.49 1.45.97l1.28-.23c-.29-1.13-1.18-1.87-2.75-1.87-1.64 0-2.8.86-2.8 2.15 0 1.03.62 1.72 1.98 2.02l1.23.27c.7.16 1.03.47 1.03.92 0 .56-.6 1-1.53 1-.85 0-1.39-.36-1.56-1.08l-1.37.21c.24 1.29 1.31 2.01 2.94 2.01zm7.12 0c1.75 0 2.97-.93 2.97-2.24 0-1.03-.65-1.66-1.98-1.96l-1.15-.27c-.8-.19-1.14-.46-1.14-.95 0-.56.6-.95 1.4-.95.88 0 1.28.49 1.45.97l1.28-.23c-.29-1.13-1.18-1.87-2.74-1.87-1.64 0-2.8.86-2.8 2.15 0 1.03.62 1.72 1.98 2.02l1.23.27c.7.16 1.03.47 1.03.92 0 .56-.6 1-1.53 1-.85 0-1.39-.36-1.56-1.08l-1.37.21c.24 1.29 1.31 2.01 2.93 2.01zm6.09-.15v-3.4h1.98c2.24 0 3.35-1.36 3.35-3.14s-1.1-3.13-3.35-3.13h-3.45v9.68h1.47zm1.86-4.64h-1.85v-3.78h1.83c1.45 0 2.04.78 2.04 1.88-.01 1.1-.6 1.9-2.02 1.9zm7.19 4.8c1.2 0 1.88-.61 2.15-1.15h.06v.99h1.38v-4.82c0-2.11-1.66-2.53-2.82-2.53-1.31 0-2.52.53-3 1.85l1.33.3c.21-.52.74-1.01 1.69-1.01.91 0 1.38.48 1.38 1.3v.03c0 .51-.53.5-1.83.66-1.38.16-2.78.52-2.78 2.17-.01 1.43 1.06 2.22 2.44 2.21zm.31-1.13c-.8 0-1.38-.36-1.38-1.06 0-.76.67-1.03 1.49-1.13.46-.06 1.54-.18 1.75-.39v.94c0 .86-.69 1.64-1.86 1.64-.01 0 0 0 0 0zm6.56.97v-9.68h-1.41v9.68h1.41z"/>
  <path fill="#0072C6" d="M88.59 107.96c2.64-1.22 4.37-3.06 4.46-5.1 0 0-.7-.57-2.95-1.44-1.98-.77-3.48-.94-3.48-.94l.01 4.55c0 .68-.26 1.37-.75 1.99-1.6-.4-3.23-.6-4.88-.6-1.73 0-3.39.22-4.88.6-.49-.61-.75-1.31-.75-1.99l.01-4.55s-1.51.18-3.49.94c-2.25.87-2.95 1.44-2.95 1.44.09 2.04 1.82 3.88 4.46 5.1-2.64 1.22-4.37 3.06-4.46 5.1 0 0 .7.57 2.95 1.44 1.98.77 3.49.94 3.49.94l-.01-4.54c0-.68.26-1.37.75-1.99 1.49.38 3.14.59 4.88.6 1.65 0 3.29-.2 4.88-.6.49.61.75 1.31.75 1.99l-.01 4.54s1.51-.18 3.49-.94c2.25-.87 2.95-1.44 2.95-1.44-.1-2.03-1.83-3.87-4.47-5.1zm-3.85 0c-.91.5-2.16.83-3.69.83h-.1c-1.53 0-2.78-.33-3.69-.83.92-.5 2.16-.83 3.7-.83h.1c1.52 0 2.76.33 3.68.83"/>
  <path fill="#FF4F5E" d="m276.67 118.36-10.28-18.71c-.61-1.11-2.25-1.11-2.87 0l-10.28 18.71c-.58 1.05.21 2.32 1.43 2.32h20.57c1.22 0 2.01-1.27 1.43-2.32z"/>
  <path fill="#FFF" d="M264.96 117.53c-.9 0-1.62-.71-1.62-1.58 0-.87.73-1.58 1.62-1.58.89 0 1.62.71 1.62 1.58 0 .87-.73 1.58-1.62 1.58zm1.62-4.73h-3.25v-6.3h3.25v6.3z"/>
  <path fill="#FFF" stroke="#FF4F5E" stroke-width="1.3308" d="M288.49 147.71H60.99c-2.94 0-5.32 2.38-5.32 5.32v37.09c0 2.94 2.38 5.32 5.32 5.32h227.5c2.94 0 5.32-2.38 5.32-5.32v-37.09c0-2.94-2.38-5.32-5.32-5.32z"/>
  <path fill="#FF5F00" d="M79.22 177.81h7.62v-13.7h-7.62v13.7z"/>
  <defs>
    <filter id="a" width="14.09" height="17.42" x="68.94" y="162.25" filterUnits="userSpaceOnUse">
      <feColorMatrix values="1 0 0 0 0 0 1 0 0 0 0 0 1 0 0 0 0 0 1 0"/>
    </filter>
  </defs>
  <mask id="b" width="14.09" height="17.42" x="68.94" y="162.25" maskUnits="userSpaceOnUse">
    <path fill="#FFF" d="M68.94 162.25h14.09v17.42H68.94v-17.42z" filter="url(#a)"/>
  </mask>
  <g mask="url(#b)">
    <path fill="#EB001B" d="M79.7 170.97c0-2.67 1.22-5.2 3.33-6.85-3.78-2.97-9.26-2.32-12.23 1.47-2.97 3.78-2.32 9.26 1.47 12.23 3.16 2.48 7.61 2.48 10.76 0-2.1-1.65-3.33-4.18-3.33-6.85"/>
  </g>
  <defs>
    <filter id="c" width="14.09" height="17.42" x="83.03" y="162.25" filterUnits="userSpaceOnUse">
      <feColorMatrix values="1 0 0 0 0 0 1 0 0 0 0 0 1 0 0 0 0 0 1 0"/>
    </filter>
  </defs>
  <mask id="d" width="14.09" height="17.42" x="83.03" y="162.25" maskUnits="userSpaceOnUse">
    <path fill="#FFF" d="M83.03 162.25h14.09v17.42H83.03v-17.42z" filter="url(#c)"/>
  </mask>
  <g mask="url(#d)">
    <path fill="#F79E1B" d="M97.13 170.97c0 4.81-3.9 8.71-8.71 8.71-1.95 0-3.85-.66-5.38-1.86 3.78-2.97 4.44-8.45 1.47-12.23-.43-.55-.92-1.04-1.47-1.47 3.78-2.97 9.26-2.32 12.23 1.47 1.2 1.53 1.86 3.42 1.86 5.38z"/>
  </g>
  <path fill="#F79E1B" d="M96.85 176.36v-.34h-.09l-.1.24-.1-.24h-.08v.34h.06v-.25l.09.22h.06l.09-.22v.26l.07-.01zm-.56 0v-.28h.11v-.06h-.29v.06h.12v.28h.06z"/>
  <path fill="#FF4F5E" d="m277.44 179.06-10.32-18.71c-.61-1.11-2.26-1.11-2.88 0l-10.32 18.71c-.58 1.05.21 2.32 1.44 2.32H276c1.23 0 2.02-1.27 1.44-2.32z"/>
  <path fill="#FFF" d="M265.69 178.23c-.9 0-1.63-.71-1.63-1.57s.73-1.58 1.63-1.58c.9 0 1.63.71 1.63 1.58s-.73 1.57-1.63 1.57zm1.63-4.73h-3.26v-6.3h3.26v6.3z"/>
  <path fill="#20123A" d="M104.65 176.15v-7.01h.09l2.85 6.99h1.15l2.85-6.99h.09v7h1.39v-9.68h-1.77l-3.08 7.52h-.11l-3.08-7.52h-1.77v9.68l1.39.01zm12.79.16c1.2 0 1.88-.61 2.15-1.15h.06v.99h1.38v-4.82c0-2.11-1.66-2.53-2.82-2.53-1.31 0-2.52.53-3 1.85l1.33.3c.21-.52.74-1.01 1.69-1.01.91 0 1.38.48 1.38 1.3v.03c0 .51-.53.5-1.83.66-1.37.16-2.78.52-2.78 2.17-.01 1.42 1.06 2.21 2.44 2.21zm.31-1.14c-.8 0-1.37-.36-1.37-1.06 0-.76.67-1.03 1.49-1.13.46-.06 1.54-.18 1.75-.39v.94c-.01.86-.69 1.64-1.87 1.64zm7.77 1.12c1.75 0 2.97-.93 2.97-2.24 0-1.03-.65-1.66-1.98-1.96l-1.15-.27c-.8-.19-1.14-.46-1.14-.95 0-.56.6-.95 1.4-.95.88 0 1.28.49 1.45.97l1.28-.23c-.29-1.13-1.18-1.87-2.75-1.87-1.64 0-2.8.86-2.8 2.15 0 1.03.62 1.72 1.98 2.02l1.23.27c.7.16 1.03.47 1.03.92 0 .56-.6 1-1.53 1-.85 0-1.39-.36-1.56-1.08l-1.37.21c.24 1.29 1.31 2.01 2.94 2.01zm7.12-.05c.45-.01.75-.09.92-.15l-.25-1.17-.12.02c-.12.02-.25.04-.38.04-.46 0-.87-.15-.87-.97v-3.99h1.49v-1.13h-1.49v-1.74h-1.41v1.74h-1.06v1.13h1.06v4.29c-.01 1.32.99 1.95 2.11 1.93zm5.47.05c1.58 0 2.7-.78 3.02-1.96l-1.34-.24c-.26.69-.87 1.04-1.67 1.04-1.21 0-2.02-.78-2.06-2.18h5.16v-.5c0-2.62-1.57-3.65-3.21-3.65-2.02 0-3.35 1.54-3.35 3.77 0 2.25 1.31 3.72 3.45 3.72zm1.73-4.41h-3.77c.06-1.03.8-1.92 1.95-1.92 1.1 0 1.81.82 1.82 1.92zm4.37 4.27v-4.43c0-.94.73-1.63 1.71-1.63.27 0 .49.06.66.14l.45-1.18c-.28-.18-.61-.27-.95-.26-.86 0-1.58.48-1.84 1.26h-.08v-1.15h-1.37v7.26l1.42-.01zm6.94.14c1.71 0 2.83-1.03 2.98-2.44h-1.37c-.18.78-.79 1.25-1.6 1.25-1.2 0-1.97-1-1.97-2.58 0-1.55.78-2.53 1.96-2.53.9 0 1.45.57 1.6 1.25h1.37c-.15-1.46-1.35-2.44-2.99-2.44-2.05 0-3.37 1.54-3.37 3.76.01 2.18 1.29 3.73 3.39 3.73zm6.61.02c1.2 0 1.88-.61 2.15-1.15h.06v.99h1.38v-4.82c0-2.11-1.66-2.53-2.82-2.53-1.31 0-2.52.53-3 1.85l1.33.3c.21-.52.74-1.01 1.69-1.01.91 0 1.38.48 1.38 1.3v.03c0 .51-.53.5-1.83.66-1.38.16-2.78.52-2.78 2.17-.01 1.42 1.06 2.21 2.44 2.21zm.31-1.14c-.8 0-1.38-.36-1.38-1.06 0-.76.67-1.03 1.49-1.13.46-.06 1.54-.18 1.75-.39v.94c0 .86-.68 1.64-1.86 1.64zm6.57.98v-4.43c0-.94.73-1.63 1.71-1.63.27 0 .49.06.66.14l.45-1.18c-.28-.18-.61-.27-.95-.26-.86 0-1.58.48-1.84 1.26h-.08v-1.15h-1.37v7.26l1.42-.01zm6.6.14c1.32 0 1.84-.81 2.1-1.27h.12v1.13h1.38v-9.68h-1.41v3.6h-.08c-.26-.45-.74-1.27-2.09-1.27-1.75 0-3.04 1.38-3.04 3.74-.01 2.34 1.26 3.75 3.02 3.75zm.31-1.21c-1.26 0-1.92-1.11-1.92-2.57 0-1.44.64-2.52 1.92-2.52 1.23 0 1.89 1.01 1.89 2.52.01 1.53-.67 2.57-1.89 2.57z"/>
  <path fill="#7542E5" d="M195.15 74.26c1.12 0 2.03-.91 2.03-2.03V50.99c0-1.12-.91-2.03-2.03-2.03H155.7c-1.12 0-2.02.91-2.02 2.02v21.25c0 1.12.91 2.03 2.02 2.03h39.45z"/>
  <path fill="#9059FF" d="M197.17 71.09V52.21l-15.25 9.44 15.25 9.44zm-28.25-9.44-15.24-9.44v18.88l15.24-9.44z"/>
  <path fill="#A97EFF" d="m168.92 61.65 5.44 3.37c.65.4 1.48.4 2.13 0l5.44-3.37 15.25-9.44v-1.22c0-1.12-.91-2.03-2.03-2.03H155.7c-1.12 0-2.03.91-2.03 2.03v1.22l15.25 9.44z"/>
</svg>
