<svg xmlns="http://www.w3.org/2000/svg" xml:space="preserve" viewBox="0 0 350 247" width="350" height="247">
  <path fill="#FFF" stroke="#F0F0F4" stroke-width="2.176" d="M284.21 19.06H35.76c-1.2 0-2.18.97-2.18 2.18v171.39c0 1.2.97 2.18 2.18 2.18h248.45c1.2 0 2.18-.97 2.18-2.18V21.24c0-1.21-.98-2.18-2.18-2.18z"/>
  <path fill="#F0F0F4" d="M32.5 34.97h254.97V53.1H32.5V34.97z"/>
  <path fill="#FFF" d="M242.19 40.64H77.78c-.6 0-1.09.49-1.09 1.09v5.76c0 .6.49 1.09 1.09 1.09h164.41c.6 0 1.09-.49 1.09-1.09v-5.76c0-.61-.49-1.09-1.09-1.09z"/>
  <path fill="#CFCFD8" d="M34.68 17.97H285.3c1.2 0 2.18 1.03 2.18 2.3v15.7H32.5v-15.7c0-1.27.97-2.3 2.18-2.3z"/>
  <path fill="#F0F0F4" d="M54.5 24.97c0-2.21 1.79-4 4-4h42c2.21 0 4 1.79 4 4v4c0 2.21-1.79 4-4 4h-42c-2.21 0-4-1.79-4-4v-4z"/>
  <g opacity=".8">
    <path fill="#F0F0F4" d="M127.96 92.85h63.64v41.61h-63.64V92.85zm0 48.96h63.64v7.34h-63.64v-7.34zm0 14.69h63.64v3.67h-63.64v-3.67zm0 11.01h63.64v3.67h-63.64v-3.67zm0 9.79h63.64v3.67h-63.64v-3.67zm-77.1-84.44h64.87v41.61H50.86V92.86zm0 48.95h64.87v7.34H50.86v-7.34zm0 14.69h64.87v3.67H50.86v-3.67zm0 11.01h64.87v3.67H50.86v-3.67zm0 9.79h64.87v3.67H50.86v-3.67zm152.98-84.44h64.87v41.61h-64.87V92.86zm0 48.95h64.87v7.34h-64.87v-7.34zm0 14.69h64.87v3.67h-64.87v-3.67zm0 11.01h64.87v3.67h-64.87v-3.67zm0 9.79h64.87v3.67h-64.87v-3.67z" opacity=".8"/>
    <path fill="#DFDFE6" d="M148.39 61.04c-1.36.09-2.18.86-2.18 2.24v8.26c0 6.71 6.67 11.98 12.44 11.93 6.49-.05 12.48-5.53 12.48-11.93v-8.26c0-1.38-.87-2.16-2.24-2.24h-20.5zm5.25 6.72 5.01 4.76 5.01-4.76c2.24-.94 3.22 1.62 2.3 2.37l-6.52 6.23c-.21.2-1.35.2-1.57 0l-6.52-6.23c-.89-.83.26-3.43 2.29-2.37z" opacity=".8"/>
  </g>
  <path fill="#F0F0F4" d="m220.5 247 .29-147.8c0-6.75 5.47-12.23 12.21-12.23h69.97c6.74 0 12.21 5.48 12.21 12.23l-.29 147.8"/>
  <path fill="#D1D1D7" fill-opacity=".6" d="M277.46 92.37h-18.89c-.5 0-.9.4-.9.9s.4.9.9.9h18.89c.5 0 .9-.4.9-.9s-.41-.9-.9-.9z"/>
  <path fill="#FFF" d="M308.23 98.97c.57 0 1.04 1.17 1.04 2.62L309.14 247h-81.82l.12-145.42c0-1.45.46-2.62 1.04-2.62h79.75z"/>
  <path fill="#D1D1D7" d="M308.23 98.97c.57 0 1.04.49 1.04 1.09v3.23h-81.82v-3.23c0-.6.46-1.09 1.04-1.09h79.74c0-.01 0 0 0 0z"/>
  <path fill="#F0F0F4" d="M236.17 132.75h64.87v31.82h-64.87v-31.82zm0 39.17h64.87v7.34h-64.87v-7.34zm0 13.46h64.87v3.67h-64.87v-3.67zm0 9.79h64.87v3.67h-64.87v-3.67zm0 9.79h64.87v3.67h-64.87v-3.67zm0 9.79h45.28v3.67h-45.28v-3.67z" opacity=".8"/>
  <path fill="#DFDFE6" d="M260.67 109.64c-1.02.07-1.63.65-1.63 1.68v6.19c0 5.03 5 8.98 9.33 8.95 4.86-.03 9.36-4.14 9.36-8.95v-6.19c0-1.04-.65-1.62-1.68-1.68h-15.38zm3.94 5.04 3.76 3.57 3.76-3.57c1.68-.71 2.42 1.21 1.73 1.78l-4.89 4.67c-.16.15-1.02.15-1.17 0l-4.89-4.67c-.69-.62.17-2.57 1.7-1.78z"/>
  <path fill="#FFF" d="M87.61 43.97H19.27c-2.08 0-3.77 1.69-3.77 3.77v68.34c0 2.08 1.69 3.77 3.77 3.77h68.34c2.08 0 3.77-1.69 3.77-3.77V47.74c0-2.08-1.69-3.77-3.77-3.77z" filter="drop-shadow(0 1px 3px rgba(0,0,0,.2))"/>
  <path fill="#FF2B06" d="M22.84 73.55v4.61h4.95v13.38h5.44V78.16h4.95v-4.61H22.84zm16.19 0v18h14.9v-4.61h-9.45V84.7h9.45v-4.29h-9.45v-2.24h9.45v-4.61h-14.9z"/>
  <path fill="#FF2B06" d="M60.29 86.93h2.13c3.39 0 3.89-2.8 3.89-4.49 0-1.13-.35-4.28-4.28-4.28H60.3c-.01 0-.01 8.77-.01 8.77zm-5.45-13.38h8.93c5.89 0 7.97 4.44 7.97 8.97 0 5.52-2.87 9.03-9.03 9.03h-7.87v-18z"/>
  <path fill="#FF2B06" d="m79.57 84.61-1.66-2.81-1.62 2.81H72.3l3.79-5.67-3.65-5.43h3.99l1.48 2.68 1.52-2.68h3.99l-3.65 5.43 3.79 5.67h-3.99z"/>
  <path d="M152.72 131.97H78.27c-2.08 0-3.77 1.69-3.77 3.77v74.45c0 2.08 1.69 3.77 3.77 3.77h74.45c2.08 0 3.77-1.69 3.77-3.77v-74.45c0-2.08-1.69-3.77-3.77-3.77z" filter="drop-shadow(0 1px 3px rgba(0,0,0,.2))"/>
  <path fill="#FFF" d="M125.99 147.03c1.29.12 3.31.76 4.84 2.12 1.62 1.6 1.99 4.04 1.42 6.25-.51 1.97-1.07 2.99-3.04 4.36-1.99 1.37-4.41 1.25-4.41 1.25v8.54l4.07 3.36-4.08 3.35v11.63s4.08-2.38 6.62-7.73c0 0 .11-.29.34-.84.22 1.43.1 4.33-1.49 8.04-1.2 2.8-3.37 5.49-6.1 7.03-4.84 2.73-8.47 2.99-12.36 2.17-4.55-.96-8.69-3.56-11.51-8.11-1.98-3.2-2.87-6.92-2.79-10.93.16-7.87 5.9-14.66 12.54-17.19.81-.31 1.13-.51 2.27-.62-.53.37-1.14.84-1.89 1.34-2.14 1.43-3.96 4.28-4.75 6.47l12.87-5.85v18.34l-10.38 5.3c1.18 1.67 4.78 4.2 7.85 4.56 5.23.59 8.3-1.74 8.3-1.74v-11.88l-4.05-3.35 4.06-3.35V161c-2.21-.26-4.9-1-6.47-1.4-2.31-.58-10.01-2.78-11.22-2.96-1.21-.18-2.7-.12-3.6.7-.9.83-1.46 2.29-1.08 3.6.22.74.72 1.18 1.1 1.6 0 0-.44-.04-1.25-.53-1.45-.89-2.56-2.63-2.69-4.77-.17-2.81.96-5.34 3.24-7.04 1.98-1.29 4.21-2.12 6.81-1.75 3.79.55 8.89 2.73 13.43 3.84 1.76.43 3.12.58 4.36-.15.58-.43 1.59-1.52.76-2.96-.97-1.7-2.82-1.66-4.39-1.96 1.36-.29 1.65-.29 2.67-.19zm-15.31 36.46v-17.71l-5.23 2.38s-1.33 3.04-1.1 7.45c.18 3.45 2.08 7.57 3.53 9.3l2.8-1.42z"/>
  <path fill="#4C9FEA" d="M329.71 6.97h-63.45c-2.08 0-3.77 1.69-3.77 3.77v63.44c0 2.08 1.69 3.77 3.77 3.77h63.45c2.08 0 3.77-1.69 3.77-3.77V10.74c0-2.08-1.68-3.77-3.77-3.77z" filter="drop-shadow(0 1px 3px rgba(0,0,0,.2))"/>
  <path fill="#FFF" d="M290.34 58.38c14.32 0 22.15-11.77 22.15-21.98 0-.33 0-.67-.02-1 1.52-1.09 2.84-2.45 3.88-4-1.42.63-2.93 1.03-4.47 1.22 1.62-.96 2.84-2.48 3.42-4.27-1.53.9-3.2 1.53-4.94 1.88-2.42-2.55-6.25-3.17-9.35-1.52-3.11 1.65-4.71 5.16-3.91 8.57-6.25-.31-12.07-3.24-16.04-8.07-2.07 3.53-1.01 8.05 2.41 10.31-1.24-.04-2.45-.37-3.53-.97v.1c0 3.68 2.61 6.85 6.24 7.57-1.15.31-2.35.36-3.52.13 1.02 3.15 3.94 5.3 7.27 5.37-3.27 2.55-7.41 3.7-11.52 3.2 3.57 2.25 7.71 3.46 11.93 3.46"/>
  <path fill="#EA3423" d="M247.8 120.97h-47.53c-2.08 0-3.77 1.69-3.77 3.77v47.53c0 2.08 1.69 3.77 3.77 3.77h47.53c2.08 0 3.77-1.69 3.77-3.77v-47.53c0-2.08-1.68-3.77-3.77-3.77z" filter="drop-shadow(0 1px 3px rgba(0,0,0,.2))"/>
  <path fill="#FEFEFE" d="M214.86 135.66v26.93l23.25-13.46-23.25-13.47z"/>
</svg>
