<?xml version="1.0" encoding="UTF-8"?>
<svg width="63px" height="60px" viewBox="0 0 63 60" version="1.1" xmlns="http://www.w3.org/2000/svg" xmlns:xlink="http://www.w3.org/1999/xlink">
    <!-- Generator: Sketch 59.1 (86144) - https://sketch.com -->
    <title>Group 3</title>
    <desc>Created with Sketch.</desc>
    <defs>
        <polygon id="path-1" points="0 0.881416344 62.251 0.881416344 62.251 59.9554163 0 59.9554163"></polygon>
    </defs>
    <g id="/firefox/features" stroke="none" stroke-width="1" fill="none" fill-rule="evenodd">
        <g id="fx-features-1312-FINAL" transform="translate(-909.000000, -1621.000000)">
            <g id="Group-3" transform="translate(909.500000, 1620.663822)">
                <mask id="mask-2" fill="white">
                    <use xlink:href="#path-1"></use>
                </mask>
                <g id="Clip-2"></g>
                <path d="M60.6908,22.0061163 L41.4628,19.1961163 L32.6458,1.79311634 C32.3168,1.17311634 31.6598,0.881116344 31.0038,0.881116344 C30.3468,0.881116344 29.6908,1.17311634 29.3618,1.79311634 L20.7878,19.1971163 L1.5598,22.0061163 C0.0648,22.2251163 -0.5192,24.0491163 0.5388,25.1071163 L14.4398,38.6791163 L11.1558,57.7981163 C10.8998,59.2941163 12.4688,60.4251163 13.8188,59.7321163 L31.0038,50.6831163 L48.4318,59.7321163 C49.7818,60.4621163 51.3508,59.2941163 51.0948,57.7981163 L47.8118,38.6791163 L61.7118,25.1071163 C62.7708,24.0491163 62.1868,22.2251163 60.6908,22.0061163" id="Fill-1" fill="#E30185" mask="url(#mask-2)"></path>
                <path d="M61.7118,25.1071163 L47.8118,38.6791163 L51.0948,57.7981163 C51.3508,59.2941163 49.7818,60.4611163 48.4318,59.7321163 L31.0038,50.6831163 L31.0038,0.881116344 C31.6598,0.881116344 32.3168,1.17311634 32.6458,1.79311634 L41.4628,19.1971163 L60.6908,22.0061163 C62.1868,22.2251163 62.7708,24.0491163 61.7118,25.1071163" id="Fill-4" fill="#FF2188" mask="url(#mask-2)"></path>
            </g>
        </g>
    </g>
</svg>