<?xml version="1.0" encoding="UTF-8"?>
<svg width="64px" height="62px" viewBox="0 0 64 62" version="1.1" xmlns="http://www.w3.org/2000/svg" xmlns:xlink="http://www.w3.org/1999/xlink">
    <!-- Generator: Sketch 59.1 (86144) - https://sketch.com -->
    <title>Asset 65</title>
    <desc>Created with Sketch.</desc>
    <g id="/firefox/features" stroke="none" stroke-width="1" fill="none" fill-rule="evenodd">
        <g id="fx-features-1312-FINAL" transform="translate(-127.000000, -1616.000000)" fill-rule="nonzero">
            <g id="Asset-65" transform="translate(127.080507, 1616.500000)">
                <path d="M62.19,1 C62.014083,0.817931706 61.8234356,0.650697084 61.62,0.5 C62.06,2.36 60.31,4.12 59.55,4.88 L21.24,45.55 C20.4915322,46.2852146 19.4789955,46.688788 18.43,46.67 C17.1279808,46.6361203 15.8832331,46.1275519 14.93,45.24 C15.219511,45.8948327 15.626183,46.491285 16.13,47 C17.1198398,48.0171907 18.470942,48.6029078 19.89,48.63 C20.9394094,48.6510605 21.9527951,48.2471488 22.7,47.51 L61,6.87 C62,5.9 64.55,3.32 62.19,1 Z" id="Path" fill="#E60087"></path>
                <path d="M21.24,45.55 L59.55,4.88 C60.31,4.12 62.06,2.36 61.62,0.5 C59.43,-0.99 57.18,1.25 56.32,2.11 L15.58,40.48 C14.403996,41.781519 14.1460013,43.6708336 14.93,45.24 C15.8832331,46.1275519 17.1279808,46.6361203 18.43,46.67 C19.4789955,46.688788 20.4915322,46.2852146 21.24,45.55 L21.24,45.55 Z" id="Path" fill="#FF68BB"></path>
                <path d="M19.27,45.9 C19.0037356,45.4069963 18.6668414,44.9555581 18.27,44.56 C16.96,43.25 15.38,42.72 14.72,43.38 C14.06,44.04 14.6,45.61 15.91,46.92 C17.22,48.23 18.8,48.75 19.45,48.1 L18.27,46.92 L19.27,45.9 Z" id="Path" fill="#E60087"></path>
                <rect id="Rectangle" fill="#FF68BB" transform="translate(16.486912, 46.333602) rotate(-45.000000) translate(-16.486912, -46.333602) " x="15.6519125" y="42.9936019" width="1.67" height="6.68"></rect>
                <rect id="Rectangle" fill="#E60087" transform="translate(15.306912, 47.512374) rotate(-45.000000) translate(-15.306912, -47.512374) " x="14.4719125" y="44.1723739" width="1.67" height="6.68"></rect>
                <rect id="Rectangle" fill="#FF68BB" transform="translate(14.126912, 48.691146) rotate(-45.000000) translate(-14.126912, -48.691146) " x="13.2919125" y="45.3511459" width="1.67" height="6.68"></rect>
                <rect id="Rectangle" fill="#E60087" transform="translate(12.946912, 49.869918) rotate(-45.000000) translate(-12.946912, -49.869918) " x="12.1119125" y="46.5299179" width="1.67" height="6.68"></rect>
                <rect id="Rectangle" fill="#FF68BB" transform="translate(11.766912, 51.048690) rotate(-45.000000) translate(-11.766912, -51.048690) " x="10.9319125" y="47.7086899" width="1.67" height="6.68"></rect>
                <rect id="Rectangle" fill="#E60087" transform="translate(10.586912, 52.227462) rotate(-45.000000) translate(-10.586912, -52.227462) " x="9.75191246" y="48.8874619" width="1.67" height="6.68"></rect>
                <path d="M19.27,45.9 L18.27,46.9 L19.45,48.08 C19.87,47.66 19.77,46.81 19.27,45.9 Z" id="Path" fill="#E60087"></path>
                <path d="M8.69,49.78 C6.76350307,49.7812784 5.07067825,51.0580355 4.54,52.91 L4.54,52.96 C4.54,53.04 4.54,53.11 4.47,53.19 C6.52025778,53.5794933 8.00300857,55.3730757 8,57.46 C7.99693314,58.2726467 7.76094312,59.0673777 7.32,59.75 C8.8988612,59.3035168 10.3488032,58.4877102 11.55,57.37 C11.55,57.37 11.55,57.37 11.55,57.37 C12.8842531,56.1704554 13.3405054,54.272302 12.69717,52.5974115 C12.0538346,50.922521 10.4441946,49.8178892 8.65,49.82 L8.69,49.78 Z" id="Path" fill="#E60087"></path>
                <path d="M4.43,53.19 C3.67,55.55 2.9,57.57 0.68,58.55 L0.63,58.55 L0.58,58.55 L0.58,58.55 C0.227386541,58.7316153 0.00416659674,59.0933856 0,59.49 C0,60.0919904 0.488009623,60.58 1.09,60.58 C3.20640001,60.6018153 5.31381531,60.3017193 7.34,59.69 C7.76305429,59.0224874 7.99161211,58.250239 8,57.46 C7.99944494,55.360532 6.4961607,53.5624862 4.43,53.19 Z" id="Path" fill="#FFB2DB"></path>
            </g>
        </g>
    </g>
</svg>