<?xml version="1.0" encoding="UTF-8"?>
<svg width="69px" height="70px" viewBox="0 0 69 70" version="1.1" xmlns="http://www.w3.org/2000/svg" xmlns:xlink="http://www.w3.org/1999/xlink">
    <!-- Generator: Sketch 59.1 (86144) - https://sketch.com -->
    <title>Asset 78 Copy</title>
    <desc>Created with Sketch.</desc>
    <g id="/firefox/features" stroke="none" stroke-width="1" fill="none" fill-rule="evenodd">
        <g id="fx-features-1312-FINAL" transform="translate(-521.000000, -831.000000)" fill-rule="nonzero">
            <g id="Group-27" transform="translate(519.000000, 831.919953)">
                <g id="Asset-78-Copy" transform="translate(2.152174, 0.000000)">
                    <path d="M33.37,46.58 L46.56,30.86 C47.7562404,29.4274952 49.8695249,29.1936662 51.3500118,30.33 L51.3500118,21.4 C51.3526634,20.264059 50.9025915,19.1738761 50.0993577,18.3706423 C49.2961239,17.5674085 48.205941,17.1173366 47.07,17.12 L33.17,17.12 C31.4262279,17.066928 30.0312032,15.6543004 30,13.91 C30,10.7 34.28,10.57 34.28,6.42 C34.24,2.72 30.4,0 25.68,0 C20.96,0 17.12,2.72 17.12,6.42 C17.12,10.57 21.4,10.7 21.4,13.91 C21.3628818,15.6672296 19.9472296,17.0828818 18.19,17.12 L4.28,17.12 C1.91622127,17.12 0,19.0362213 0,21.4 L0,31 C0.0372996951,32.7555038 1.45438832,34.1681779 3.21,34.2 C6.42,34.23 6.54,30 10.7,30 C14.4,30 17.12,33.83 17.12,38.55 C17.1186054,39.8598258 16.888482,41.159346 16.44,42.39 L29.44,47.61 C30.8348879,48.1528727 32.4206926,47.7372547 33.37,46.58 Z" id="Path" fill="#FF7139"></path>
                    <path d="M66.5,49 C67.8353486,47.2044666 68.5386108,45.017321 68.5,42.78 C68.5,38.06 65.78,34.22 62.08,34.22 C59.44,34.22 58.42,35.95 57.21,37.22 L65.85,47.65 C66.1599835,48.0487929 66.381557,48.5089839 66.5,49 L66.5,49 Z" id="Path" fill="#FF7139"></path>
                    <path d="M3.21,42.79 C1.45277045,42.8271182 0.0371182323,44.2427704 8.8817842e-16,46 L8.8817842e-16,52.89 L8.19,46.38 C6.28,45.16 5.6,42.79 3.21,42.79 Z" id="Path" fill="#FF7139"></path>
                    <path d="M4.28,68.47 L18.19,68.47 C19.9472296,68.4328818 21.3628818,67.0172296 21.4,65.26 C21.4,62.05 17.12,61.92 17.12,57.77 C17.12,54.07 20.95,51.35 25.68,51.35 C30.41,51.35 34.24,54.07 34.24,57.77 C34.24,61.92 29.96,62.05 29.96,65.26 C29.9919972,67.01941 31.41059,68.4380028 33.17,68.47 L47.07,68.47 C49.4337787,68.47 51.35,66.5537787 51.35,64.19 L51.35,50.28 C51.3871182,48.5227704 52.8027704,47.1071182 54.56,47.07 C57.77,47.07 57.9,51.35 62.05,51.35 C63.8199577,51.3085314 65.4677271,50.438361 66.5,49 C66.3739206,48.5029856 66.1419639,48.0390721 65.82,47.64 L57.18,37.22 C56.5372046,38.0122879 55.5799072,38.483629 54.56,38.51 C52.80059,38.4780028 51.3819972,37.05941 51.35,35.3 L51.35,30.3 C49.8695249,29.1636662 47.7562404,29.3974952 46.56,30.83 L33.37,46.58 C32.4025503,47.7581143 30.7780388,48.1642422 29.37,47.58 L16.37,42.36 C15.37,45.15 13.24,47.08 10.63,47.08 C9.74399039,47.0993492 8.87161568,46.8595331 8.12,46.39 L0,52.89 L0,64.19 C0,66.5537787 1.91622127,68.47 4.28,68.47 Z" id="Path" fill="#E25920"></path>
                </g>
            </g>
        </g>
    </g>
</svg>