<svg width="63" height="60" viewBox="0 0 63 60" xmlns="http://www.w3.org/2000/svg"><g fill="#008ef0"><path d="M28.187 0C12.787 0 .304 12.483.304 27.883a3.983 3.983 0 0 0 7.967 0c0-11 8.916-19.916 19.916-19.916s19.916 8.916 19.916 19.916a32.822 32.822 0 0 1-4.54 17.048 22.904 22.904 0 0 0-3.426 10.835 3.983 3.983 0 0 0 7.966 0 15.587 15.587 0 0 1 2.51-7.13 40.55 40.55 0 0 0 5.457-20.753C56.07 12.483 43.587 0 28.187 0z"/><path d="M28.187 11.95c-8.8 0-15.933 7.133-15.933 15.933a7.967 7.967 0 0 1-7.966 7.966 3.983 3.983 0 0 0 0 7.967c8.8 0 15.933-7.133 15.933-15.933a7.967 7.967 0 1 1 15.933 0 27.405 27.405 0 0 1-6.931 19.12 43.816 43.816 0 0 0-4.581 6.97 3.983 3.983 0 0 0 1.753 5.338 3.73 3.73 0 0 0 1.792.438 3.983 3.983 0 0 0 3.545-2.191 38.797 38.797 0 0 1 3.983-5.736 35.212 35.212 0 0 0 8.405-23.94c0-8.8-7.133-15.932-15.933-15.932z"/><path d="M28.187 23.9a3.983 3.983 0 0 0-3.983 3.983c0 16.77-20.952 23.9-21.191 24.098a3.983 3.983 0 0 0-2.51 5.06 3.983 3.983 0 0 0 3.785 2.708 4.93 4.93 0 0 0 1.274 0c1.076-.558 26.608-9.321 26.608-31.866a3.983 3.983 0 0 0-3.983-3.983z"/></g></svg>
