<?xml version="1.0" encoding="UTF-8"?>
<svg width="66px" height="65px" viewBox="0 0 66 65" version="1.1" xmlns="http://www.w3.org/2000/svg" xmlns:xlink="http://www.w3.org/1999/xlink">
    <!-- Generator: Sketch 59.1 (86144) - https://sketch.com -->
    <title>Group 73</title>
    <desc>Created with Sketch.</desc>
    <defs>
        <path d="M1.908,0.063 C1.36,0.063 0.913,0.507 0.913,1.058 L0.913,1.058 L0.913,5.228 C0.913,5.777 1.36,6.222 1.908,6.222 L1.908,6.222 L6.196,6.222 C6.746,6.222 7.193,5.777 7.193,5.228 L7.193,5.228 L7.193,1.058 C7.193,0.507 6.746,0.063 6.196,0.063 L6.196,0.063 L1.908,0.063 Z" id="path-1"></path>
        <path d="M1.075,0.591 C0.525,0.591 0.079,1.038 0.079,1.587 L0.079,1.587 L0.079,5.875 C0.079,6.423 0.525,6.871 1.075,6.871 L1.075,6.871 L5.244,6.871 C5.794,6.871 6.239,6.423 6.239,5.875 L6.239,5.875 L6.239,1.587 C6.239,1.038 5.794,0.591 5.244,0.591 L5.244,0.591 L1.075,0.591 Z" id="path-3"></path>
        <path d="M1.908,0.044 C1.36,0.044 0.913,0.491 0.913,1.04 L0.913,1.04 L0.913,5.209 C0.913,5.759 1.36,6.204 1.908,6.204 L1.908,6.204 L6.196,6.204 C6.746,6.204 7.193,5.759 7.193,5.209 L7.193,5.209 L7.193,1.04 C7.193,0.491 6.746,0.044 6.196,0.044 L6.196,0.044 L1.908,0.044 Z" id="path-5"></path>
        <path d="M1.827,0.591 C1.276,0.591 0.832,1.038 0.832,1.587 L0.832,1.587 L0.832,5.875 C0.832,6.423 1.276,6.871 1.827,6.871 L1.827,6.871 L5.997,6.871 C6.546,6.871 6.991,6.423 6.991,5.875 L6.991,5.875 L6.991,1.587 C6.991,1.038 6.546,0.591 5.997,0.591 L5.997,0.591 L1.827,0.591 Z" id="path-7"></path>
        <path d="M1.908,0.797 C1.36,0.797 0.913,1.243 0.913,1.792 L0.913,1.792 L0.913,5.962 C0.913,6.512 1.36,6.957 1.908,6.957 L1.908,6.957 L6.196,6.957 C6.746,6.957 7.193,6.512 7.193,5.962 L7.193,5.962 L7.193,1.792 C7.193,1.243 6.746,0.797 6.196,0.797 L6.196,0.797 L1.908,0.797 Z" id="path-9"></path>
        <path d="M1.094,0.591 C0.544,0.591 0.098,1.038 0.098,1.587 L0.098,1.587 L0.098,5.875 C0.098,6.423 0.544,6.871 1.094,6.871 L1.094,6.871 L5.262,6.871 C5.812,6.871 6.258,6.423 6.258,5.875 L6.258,5.875 L6.258,1.587 C6.258,1.038 5.812,0.591 5.262,0.591 L5.262,0.591 L1.094,0.591 Z" id="path-11"></path>
        <path d="M1.359,0.591 C0.81,0.591 0.365,1.038 0.365,1.587 L0.365,1.587 L0.365,5.875 C0.365,6.423 0.81,6.871 1.359,6.871 L1.359,6.871 L5.53,6.871 C6.078,6.871 6.523,6.423 6.523,5.875 L6.523,5.875 L6.523,1.587 C6.523,1.038 6.078,0.591 5.53,0.591 L5.53,0.591 L1.359,0.591 Z" id="path-13"></path>
        <path d="M1.908,0.329 C1.36,0.329 0.913,0.776 0.913,1.324 L0.913,1.324 L0.913,5.493 C0.913,6.043 1.36,6.49 1.908,6.49 L1.908,6.49 L6.196,6.49 C6.746,6.49 7.193,6.043 7.193,5.493 L7.193,5.493 L7.193,1.324 C7.193,0.776 6.746,0.329 6.196,0.329 L6.196,0.329 L1.908,0.329 Z" id="path-15"></path>
        <path d="M3.808,0.789 C2.159,0.789 0.823,2.124 0.823,3.773 L0.823,3.773 L0.823,34.76 C0.823,36.41 2.159,37.745 3.808,37.745 L3.808,37.745 L34.795,37.745 C36.443,37.745 37.781,36.41 37.781,34.76 L37.781,34.76 L37.781,3.773 C37.781,2.124 36.443,0.789 34.795,0.789 L34.795,0.789 L3.808,0.789 Z" id="path-17"></path>
        <path d="M3.774,0.753 C2.126,0.753 0.79,2.089 0.79,3.738 L0.79,3.738 L0.79,30.735 C0.79,32.384 2.126,33.72 3.774,33.72 L3.774,33.72 L30.172,33.72 C31.82,33.72 33.157,32.384 33.157,30.735 L33.157,30.735 L33.157,3.738 C33.157,2.089 31.82,0.753 30.172,0.753 L30.172,0.753 L3.774,0.753 Z" id="path-19"></path>
    </defs>
    <g id="/firefox/features" stroke="none" stroke-width="1" fill="none" fill-rule="evenodd">
        <g id="fx-features-1312-FINAL" transform="translate(-913.000000, -835.000000)">
            <g id="Group-24" transform="translate(912.672320, 834.844898)">
                <g id="Group-73">
                    <g id="Group-23" transform="translate(8.000000, 0.000000)">
                        <path d="M2.1592,13.0845 C1.3352,13.0845 0.6662,12.4165 0.6662,11.5925 L0.6662,2.3535 C0.6662,1.5285 1.3352,0.8605 2.1592,0.8605 C2.9832,0.8605 3.6522,1.5285 3.6522,2.3535 L3.6522,11.5925 C3.6522,12.4165 2.9832,13.0845 2.1592,13.0845" id="Fill-1" fill="#FF7139"></path>
                        <path d="M56.4307,26.6167 L47.1917,26.6167 C46.3677,26.6167 45.6997,25.9487 45.6997,25.1247 C45.6997,24.3007 46.3677,23.6327 47.1917,23.6327 L56.4307,23.6327 C57.2547,23.6327 57.9237,24.3007 57.9237,25.1247 C57.9237,25.9487 57.2547,26.6167 56.4307,26.6167" id="Fill-3" fill="#FF7139"></path>
                        <path d="M11.9121,13.0845 C11.0881,13.0845 10.4191,12.4165 10.4191,11.5925 L10.4191,2.3535 C10.4191,1.5285 11.0881,0.8605 11.9121,0.8605 C12.7361,0.8605 13.4051,1.5285 13.4051,2.3535 L13.4051,11.5925 C13.4051,12.4165 12.7361,13.0845 11.9121,13.0845" id="Fill-5" fill="#FF7139"></path>
                        <path d="M56.4307,36.3687 L47.1917,36.3687 C46.3677,36.3687 45.6997,35.7007 45.6997,34.8767 C45.6997,34.0527 46.3677,33.3847 47.1917,33.3847 L56.4307,33.3847 C57.2547,33.3847 57.9237,34.0527 57.9237,34.8767 C57.9237,35.7007 57.2547,36.3687 56.4307,36.3687" id="Fill-7" fill="#FF7139"></path>
                        <path d="M22.1777,13.0845 C21.3537,13.0845 20.6847,12.4165 20.6847,11.5925 L20.6847,2.3535 C20.6847,1.5285 21.3537,0.8605 22.1777,0.8605 C23.0017,0.8605 23.6707,1.5285 23.6707,2.3535 L23.6707,11.5925 C23.6707,12.4165 23.0017,13.0845 22.1777,13.0845" id="Fill-9" fill="#FF7139"></path>
                        <path d="M56.4307,46.6353 L47.1917,46.6353 C46.3677,46.6353 45.6997,45.9673 45.6997,45.1433 C45.6997,44.3193 46.3677,43.6513 47.1917,43.6513 L56.4307,43.6513 C57.2547,43.6513 57.9237,44.3193 57.9237,45.1433 C57.9237,45.9673 57.2547,46.6353 56.4307,46.6353" id="Fill-11" fill="#FF7139"></path>
                        <path d="M32.4443,13.0845 C31.6203,13.0845 30.9513,12.4165 30.9513,11.5925 L30.9513,2.3535 C30.9513,1.5285 31.6203,0.8605 32.4443,0.8605 C33.2683,0.8605 33.9363,1.5285 33.9363,2.3535 L33.9363,11.5925 C33.9363,12.4165 33.2683,13.0845 32.4443,13.0845" id="Fill-13" fill="#FF7139"></path>
                        <path d="M56.4307,56.9014 L47.1917,56.9014 C46.3677,56.9014 45.6997,56.2334 45.6997,55.4094 C45.6997,54.5854 46.3677,53.9174 47.1917,53.9174 L56.4307,53.9174 C57.2547,53.9174 57.9237,54.5854 57.9237,55.4094 C57.9237,56.2334 57.2547,56.9014 56.4307,56.9014" id="Fill-15" fill="#FF7139"></path>
                        <path d="M47.1914,43.0581 L47.1914,47.2271 C47.1914,47.7771 46.7464,48.2231 46.1964,48.2231 L41.9084,48.2231 C41.3584,48.2231 40.9134,47.7771 40.9134,47.2271 L40.9134,43.0581 C40.9134,42.5081 41.3584,42.0631 41.9084,42.0631 L46.1964,42.0631 C46.7464,42.0631 47.1914,42.5081 47.1914,43.0581" id="Fill-21" fill="#CA99FF"></path>
                    </g>
                    <g id="Group-26" transform="translate(48.000000, 42.000000)">
                        <mask id="mask-2" fill="white">
                            <use xlink:href="#path-1"></use>
                        </mask>
                        <use id="Clip-25" fill="#FFA166" xlink:href="#path-1"></use>
                    </g>
                    <path d="M8.0747,11.5923 L12.2437,11.5923 C12.7937,11.5923 13.2397,12.0373 13.2397,12.5873 L13.2397,16.8753 C13.2397,17.4253 12.7937,17.8703 12.2437,17.8703 L8.0747,17.8703 C7.5247,17.8703 7.0797,17.4253 7.0797,16.8753 L7.0797,12.5873 C7.0797,12.0373 7.5247,11.5923 8.0747,11.5923" id="Fill-27" fill="#CA99FF"></path>
                    <g id="Group-31" transform="translate(7.000000, 11.000000)">
                        <mask id="mask-4" fill="white">
                            <use xlink:href="#path-3"></use>
                        </mask>
                        <use id="Clip-30" fill="#FFA166" xlink:href="#path-3"></use>
                    </g>
                    <path d="M55.1914,23.0396 L55.1914,27.2086 C55.1914,27.7586 54.7464,28.2046 54.1964,28.2046 L49.9084,28.2046 C49.3584,28.2046 48.9134,27.7586 48.9134,27.2086 L48.9134,23.0396 C48.9134,22.4896 49.3584,22.0446 49.9084,22.0446 L54.1964,22.0446 C54.7464,22.0446 55.1914,22.4896 55.1914,23.0396" id="Fill-32" fill="#CA99FF"></path>
                    <g id="Group-36" transform="translate(48.000000, 22.000000)">
                        <mask id="mask-6" fill="white">
                            <use xlink:href="#path-5"></use>
                        </mask>
                        <use id="Clip-35" fill="#FFA166" xlink:href="#path-5"></use>
                    </g>
                    <path d="M17.8271,11.5923 L21.9971,11.5923 C22.5461,11.5923 22.9921,12.0373 22.9921,12.5873 L22.9921,16.8753 C22.9921,17.4253 22.5461,17.8703 21.9971,17.8703 L17.8271,17.8703 C17.2781,17.8703 16.8321,17.4253 16.8321,16.8753 L16.8321,12.5873 C16.8321,12.0373 17.2781,11.5923 17.8271,11.5923" id="Fill-37" fill="#CA99FF"></path>
                    <g id="Group-41" transform="translate(16.000000, 11.000000)">
                        <mask id="mask-8" fill="white">
                            <use xlink:href="#path-7"></use>
                        </mask>
                        <use id="Clip-40" fill="#FFA166" xlink:href="#path-7"></use>
                    </g>
                    <path d="M55.1914,32.792 L55.1914,36.961 C55.1914,37.511 54.7464,37.957 54.1964,37.957 L49.9084,37.957 C49.3584,37.957 48.9134,37.511 48.9134,36.961 L48.9134,32.792 C48.9134,32.243 49.3584,31.797 49.9084,31.797 L54.1964,31.797 C54.7464,31.797 55.1914,32.243 55.1914,32.792" id="Fill-42" fill="#CA99FF"></path>
                    <g id="Group-46" transform="translate(48.000000, 31.000000)">
                        <mask id="mask-10" fill="white">
                            <use xlink:href="#path-9"></use>
                        </mask>
                        <use id="Clip-45" fill="#FFA166" xlink:href="#path-9"></use>
                    </g>
                    <path d="M28.0933,11.5923 L32.2623,11.5923 C32.8123,11.5923 33.2583,12.0373 33.2583,12.5873 L33.2583,16.8753 C33.2583,17.4253 32.8123,17.8703 32.2623,17.8703 L28.0933,17.8703 C27.5433,17.8703 27.0983,17.4253 27.0983,16.8753 L27.0983,12.5873 C27.0983,12.0373 27.5433,11.5923 28.0933,11.5923" id="Fill-47" fill="#CA99FF"></path>
                    <g id="Group-51" transform="translate(27.000000, 11.000000)">
                        <mask id="mask-12" fill="white">
                            <use xlink:href="#path-11"></use>
                        </mask>
                        <use id="Clip-50" fill="#FFA166" xlink:href="#path-11"></use>
                    </g>
                    <path d="M38.3594,11.5923 L42.5284,11.5923 C43.0784,11.5923 43.5234,12.0373 43.5234,12.5873 L43.5234,16.8753 C43.5234,17.4253 43.0784,17.8703 42.5284,17.8703 L38.3594,17.8703 C37.8094,17.8703 37.3644,17.4253 37.3644,16.8753 L37.3644,12.5873 C37.3644,12.0373 37.8094,11.5923 38.3594,11.5923" id="Fill-52" fill="#CA99FF"></path>
                    <g id="Group-56" transform="translate(37.000000, 11.000000)">
                        <mask id="mask-14" fill="white">
                            <use xlink:href="#path-13"></use>
                        </mask>
                        <use id="Clip-55" fill="#FFA166" xlink:href="#path-13"></use>
                    </g>
                    <path d="M55.1914,53.3242 L55.1914,57.4932 C55.1914,58.0432 54.7464,58.4882 54.1964,58.4882 L49.9084,58.4882 C49.3584,58.4882 48.9134,58.0432 48.9134,57.4932 L48.9134,53.3242 C48.9134,52.7742 49.3584,52.3292 49.9084,52.3292 L54.1964,52.3292 C54.7464,52.3292 55.1914,52.7742 55.1914,53.3242" id="Fill-57" fill="#CA99FF"></path>
                    <g id="Group-61" transform="translate(48.000000, 52.000000)">
                        <mask id="mask-16" fill="white">
                            <use xlink:href="#path-15"></use>
                        </mask>
                        <use id="Clip-60" fill="#FFA166" xlink:href="#path-15"></use>
                    </g>
                    <path d="M3.6484,15.6284 L46.9554,15.6284 C48.6034,15.6284 49.9394,16.9644 49.9394,18.6134 L49.9394,61.9204 C49.9394,63.5684 48.6034,64.9044 46.9554,64.9044 L3.6484,64.9044 C2.0004,64.9044 0.6634,63.5684 0.6634,61.9204 L0.6634,18.6134 C0.6634,16.9644 2.0004,15.6284 3.6484,15.6284" id="Fill-62" fill="#FFA166"></path>
                    <g id="Group-69" transform="translate(6.000000, 21.000000)">
                        <mask id="mask-18" fill="white">
                            <use xlink:href="#path-17"></use>
                        </mask>
                        <g id="Clip-68"></g>
                        <polygon id="Fill-67" fill="#E15820" mask="url(#mask-18)" points="-4.177 42.745 42.781 42.745 42.781 -4.212 -4.177 -4.212"></polygon>
                    </g>
                    <g id="Group-72" transform="translate(6.000000, 21.000000)">
                        <mask id="mask-20" fill="white">
                            <use xlink:href="#path-19"></use>
                        </mask>
                        <g id="Clip-71"></g>
                        <polygon id="Fill-70" fill="#FF7139" mask="url(#mask-20)" points="-4.21 38.72 38.158 38.72 38.158 -4.247 -4.21 -4.247"></polygon>
                    </g>
                </g>
            </g>
        </g>
    </g>
</svg>