<?xml version="1.0" encoding="UTF-8"?>
<svg width="88px" height="35px" viewBox="0 0 88 35" version="1.1" xmlns="http://www.w3.org/2000/svg" xmlns:xlink="http://www.w3.org/1999/xlink">
    <!-- Generator: Sketch 59.1 (86144) - https://sketch.com -->
    <title>Group 9</title>
    <desc>Created with Sketch.</desc>
    <defs>
        <path d="M10.8336,0.0956 C4.9116,0.1112 0.1164,4.9076 0.0996,10.8308 L0.0996,10.8308 L0.0996,20.5664 C0.1164,26.4884 4.9116,31.2848 10.8336,31.3004 L10.8336,31.3004 L73.5912,31.3004 C79.512,31.2848 84.3084,26.4884 84.3252,20.5664 L84.3252,20.5664 L84.3252,10.8308 C84.3084,4.9076 79.512,0.1112 73.5912,0.0956 L73.5912,0.0956 L10.8336,0.0956 Z" id="path-1"></path>
        <path d="M61.3832,10.4744 C61.2692,10.6064 61.2176,10.7804 61.244,10.9532 L61.244,10.9532 L61.6904,14.5772 L58.7096,12.356 C58.5668,12.2528 58.3904,12.2156 58.2164,12.2504 L58.2164,12.2504 C58.0484,12.2828 57.9008,12.3872 57.8144,12.5348 L57.8144,12.5348 L56.5172,14.7416 C56.4464,14.9024 56.4464,15.0872 56.5172,15.248 L56.5172,15.248 C56.5604,15.4136 56.684,15.5468 56.8472,15.6068 L56.8472,15.6068 L60.2456,17.0972 L56.8472,18.5132 C56.69,18.5816 56.5712,18.7112 56.5172,18.8696 L56.5172,18.8696 C56.4416,19.0256 56.4416,19.208 56.5172,19.3628 L56.5172,19.3628 L57.7856,21.614 C57.8684,21.7676 58.016,21.8768 58.1864,21.9128 L58.1864,21.9128 C58.3556,21.9476 58.5308,21.9032 58.664,21.794 L58.664,21.794 L61.646,19.5728 L61.1996,23.24 C61.1768,23.4104 61.2308,23.5844 61.3436,23.7152 L61.3436,23.7152 C61.4576,23.846 61.6208,23.9228 61.7948,23.9264141 L61.7948,23.9264141 L64.4048,23.9264141 C64.5788,23.9276 64.7456,23.852 64.8608,23.7212 L64.8608,23.7212 C64.976,23.5892 65.0264,23.4116 65.0012,23.24 L65.0012,23.24 L64.5536,19.6016 L67.28,21.794 C67.4216,21.8996 67.6004,21.9416 67.7744,21.9128 L67.7744,21.9128 C67.9424,21.8816 68.09,21.7784 68.1764,21.6284 L68.1764,21.6284 L69.5036,19.3784 C69.5948,19.2296 69.6164,19.0472 69.5624,18.8804 L69.5624,18.8804 C69.5072,18.7124 69.3848,18.5804 69.2204,18.5132 L69.2204,18.5132 L65.9696,17.216 L69.3548,15.7256 C69.5168,15.6632 69.644,15.5312 69.6968,15.3668 L69.6968,15.3668 C69.7724,15.212 69.7724,15.0308 69.6968,14.876 L69.6968,14.876 L68.4308,12.6248 C68.3408,12.4748 68.198,12.368 68.0252,12.326 L68.0252,12.326 C67.8536,12.2984 67.6772,12.3416 67.5368,12.4448 L67.5368,12.4448 L64.5536,14.636 L65.0312,10.9532 C65.0564,10.7804 65.006,10.6064 64.892,10.4744 L64.892,10.4744 C64.7756,10.3436 64.6136,10.268 64.442,10.268 L64.442,10.268 L64.4336,10.268 L61.8392,10.268 C61.8368,10.268 61.8344,10.268 61.832,10.268 L61.832,10.268 C61.6604,10.268 61.496,10.3436 61.3832,10.4744 L61.3832,10.4744 Z M44.9324,10.328 L42.3404,10.328 C42.1652,10.3304 42.0008,10.406 41.888,10.538 L41.888,10.538 C41.7728,10.6688 41.72,10.8428 41.7416,11.0132 L41.7416,11.0132 L42.1904,14.636 L39.2516,12.356 C39.1136,12.254 38.942,12.218 38.7752,12.2504 L38.7752,12.2504 C38.6,12.2792 38.4476,12.3836 38.3576,12.5348 L38.3576,12.5348 L37.0592,14.7416 C36.9872,14.9024 36.9872,15.0872 37.0592,15.248 L37.0592,15.248 C37.1096,15.4088 37.2308,15.542 37.388,15.6068 L37.388,15.6068 L40.7876,17.0972 L37.4024,18.5132 C37.2416,18.5768 37.1144,18.7064 37.0592,18.8696 L37.0592,18.8696 C36.9848,19.0256 36.9848,19.208 37.0592,19.3628 L37.0592,19.3628 L38.3252,21.614 C38.4116,21.7676 38.5604,21.8768 38.7332,21.9128 L38.7332,21.9128 C38.9048,21.9464 39.0836,21.9032 39.2216,21.794 L39.2216,21.794 L42.2036,19.5728 L41.756,23.24 C41.7368,23.4104 41.7896,23.5844 41.9012,23.7152 L41.9012,23.7152 C42.0152,23.846 42.1784,23.9228 42.3524,23.9264 L42.3524,23.9264 L45.0212,23.9264 C45.1988,23.9264 45.3668,23.8496 45.4832,23.7176 L45.4832,23.7176 C45.5924,23.582 45.6464,23.4104 45.6332,23.24 L45.6332,23.24 L45.1712,19.6016 L47.9588,21.794 C48.0956,21.8984 48.2672,21.9404 48.4352,21.9128 L48.4352,21.9128 C48.6056,21.8816 48.7508,21.7784 48.8396,21.6284 L48.8396,21.6284 L50.1812,19.3784 C50.2556,19.2236 50.2556,19.0424 50.1812,18.8852 L50.1812,18.8852 C50.138,18.7124 50.0072,18.5708 49.838,18.5132 L49.838,18.5132 L46.5728,17.216 L49.9568,15.7256 C50.1176,15.6632 50.2448,15.5312 50.3,15.3668 L50.3,15.3668 C50.3756,15.212 50.3756,15.0308 50.3,14.876 L50.3,14.876 L49.0328,12.6248 C48.95,12.47 48.8012,12.3608 48.6284,12.326 L48.6284,12.326 C48.4616,12.2972 48.2888,12.3404 48.152,12.4448 L48.152,12.4448 L45.1712,14.636 L45.5432,11.0132 C45.5552,10.8416 45.5024,10.6712 45.3956,10.5368 L45.3956,10.5368 C45.278,10.4048 45.1112,10.328 44.936,10.328 L44.936,10.328 L44.9324,10.328 Z M22.94,10.328 C22.7684,10.3304 22.6064,10.406 22.4924,10.5368 L22.4924,10.5368 C22.3772,10.6676 22.3244,10.8404 22.3436,11.0132 L22.3436,11.0132 L22.8068,14.636 L19.8092,12.356 C19.6712,12.254 19.5008,12.218 19.3328,12.2504 L19.3328,12.2504 C19.1612,12.2804 19.0124,12.3836 18.9284,12.5348 L18.9284,12.5348 L17.6324,14.7416 C17.5592,14.9024 17.5592,15.0872 17.6324,15.248 L17.6324,15.248 C17.6864,15.4076 17.8052,15.5384 17.96,15.6068 L17.96,15.6068 L21.3596,17.0972 L17.9756,18.5132 C17.8136,18.5768 17.6876,18.7064 17.6324,18.8696 L17.6324,18.8696 C17.5652,19.0292 17.5652,19.2044 17.6324,19.3628 L17.6324,19.3628 L18.8996,21.614 C18.992,21.7628 19.1348,21.8684 19.3016,21.9128 L19.3016,21.9128 C19.4768,21.9476 19.6568,21.9032 19.7936,21.794 L19.7936,21.794 L22.7756,19.5728 L22.3136,23.24 C22.2944,23.4116 22.3472,23.588 22.4636,23.7176 L22.4636,23.7176 C22.5764,23.846 22.7408,23.9216 22.91,23.9264 L22.91,23.9264 L25.5788,23.9264 C25.7504,23.9216 25.9136,23.846 26.0264,23.7176 L26.0264,23.7176 C26.1428,23.588 26.1968,23.4116 26.1752,23.24 L26.1752,23.24 L25.7144,19.6016 L28.5752,21.794 C28.712,21.8984 28.8848,21.9404 29.0528,21.9128 L29.0528,21.9128 C29.2256,21.8888 29.3744,21.7844 29.456,21.6284 L29.456,21.6284 L30.7988,19.3784 C30.8648,19.22 30.8648,19.0424 30.7988,18.8852 L30.7988,18.8852 C30.7436,18.7172 30.6176,18.5816 30.4544,18.5132 L30.4544,18.5132 L27.0548,17.216 L30.4544,15.7256 C30.6116,15.6608 30.7316,15.5312 30.7832,15.3668 L30.7832,15.3668 C30.8576,15.212 30.8576,15.0308 30.7832,14.876 L30.7832,14.876 L29.5304,12.6248 C29.4392,12.4748 29.2964,12.3692 29.1272,12.326 L29.1272,12.326 C28.9544,12.2936 28.7756,12.338 28.6376,12.4448 L28.6376,12.4448 L25.6532,14.636 L26.1452,11.0132 C26.1668,10.8404 26.1128,10.6676 25.9964,10.5368 L25.9964,10.5368 C25.8848,10.406 25.7204,10.3304 25.5488,10.328 L25.5488,10.328 L22.94,10.328 Z" id="path-3"></path>
    </defs>
    <g id="/firefox/features" stroke="none" stroke-width="1" fill="none" fill-rule="evenodd">
        <g id="fx-features-1312-FINAL" transform="translate(-911.000000, -1239.000000)">
            <g id="Group-25" transform="translate(911.261666, 1239.254360)">
                <g id="Group-9" transform="translate(0.413840, 0.000000)">
                    <g id="Group-3" transform="translate(1.400000, 1.406400)">
                        <mask id="mask-2" fill="white">
                            <use xlink:href="#path-1"></use>
                        </mask>
                        <g id="Clip-2"></g>
                        <polygon id="Fill-1" fill="#7543E1" mask="url(#mask-2)" points="-4.8 36.2 89.2248 36.2 89.2248 -4.8064 -4.8 -4.8064"></polygon>
                    </g>
                    <path d="M74.99048,1.50128 L74.99048,0.06008 L12.23528,0.06008 L12.23048,0.06008 C5.51528,0.07928 0.07808,5.51648 0.06008,12.23288 L0.06008,12.23648 L0.06008,21.97208 L0.06008,21.97688 C0.07808,28.69208 5.51528,34.12808 12.23048,34.14848 L75.01928,34.14848 L74.99408,34.14848 C81.71048,34.12808 87.14648,28.69208 87.16568,21.97688 L87.16568,21.97208 L87.16568,12.23648 L87.16568,12.23288 C87.14648,5.51648 81.71048,0.07928 74.99408,0.06008 L74.99048,0.06008 L74.99048,1.50128 L74.98568,2.94248 C80.11568,2.95448 84.27008,7.11008 84.28448,12.24128 L84.28448,12.23648 L84.28448,21.97208 L84.28448,21.96848 C84.27008,27.09848 80.11568,31.25288 74.98568,31.26608 L12.23528,31.26608 L12.23888,31.26608 C7.11128,31.25288 2.95448,27.09728 2.94128,21.96848 L2.94128,21.97208 L2.94128,12.23648 L2.94128,12.24008 C2.95448,7.11128 7.11128,2.95448 12.23888,2.94248 L74.99048,2.94248 L74.98568,2.94248 L74.99048,1.50128 Z" id="Fill-4" fill="#592AC8"></path>
                    <mask id="mask-4" fill="white">
                        <use xlink:href="#path-3"></use>
                    </mask>
                    <g id="Clip-7"></g>
                    <polygon id="Fill-6" fill="#D7BDFD" mask="url(#mask-4)" points="12.6776 28.8248 74.654 28.8248 74.654 5.3672 12.6776 5.3672"></polygon>
                </g>
            </g>
        </g>
    </g>
</svg>