<?xml version="1.0" encoding="UTF-8"?>
<svg width="65px" height="52px" viewBox="0 0 65 52" version="1.1" xmlns="http://www.w3.org/2000/svg" xmlns:xlink="http://www.w3.org/1999/xlink">
    <!-- Generator: Sketch 59.1 (86144) - https://sketch.com -->
    <title>Asset 87</title>
    <desc>Created with Sketch.</desc>
    <g id="/firefox/features" stroke="none" stroke-width="1" fill="none" fill-rule="evenodd">
        <g id="fx-features-1312-FINAL" transform="translate(-123.000000, -843.000000)">
            <g id="Asset-87" transform="translate(123.000000, 843.000000)">
                <path d="M59.7811594,32.2550725 C59.7811594,22.4175831 54.5329216,13.3273681 46.0134059,8.40862334 C37.4938903,3.48987863 26.9974141,3.48987863 18.4778984,8.40862334 C9.95838278,13.3273681 4.71014493,22.4175831 4.71014493,32.2550725 C4.71255512,34.1027806 4.89873723,35.9456679 5.26594203,37.7565217 L59.2253623,37.7565217 C59.5925671,35.9456679 59.7787492,34.1027806 59.7811594,32.2550725 L59.7811594,32.2550725 Z" id="Path" fill="#E7DFFF" fill-rule="nonzero"></path>
                <path d="M6.74492754,42.542029 C6.85797101,42.8246377 6.97101449,43.0978261 7.09347826,43.3710145 C6.97101449,43.0978261 6.85797101,42.8246377 6.74492754,42.542029 Z" id="Path"></path>
                <path d="M6.19855072,41.0724638 C6.09492754,40.7710145 5.99130435,40.4601449 5.89710145,40.1304348 C5.99130435,40.5072464 6.09492754,40.7710145 6.19855072,41.0724638 Z" id="Path"></path>
                <path d="M8.12028986,45.4623188 C8.17681159,45.5753623 8.25217391,45.6884058 8.31811594,45.8014493 C8.25217391,45.6884058 8.17681159,45.5753623 8.12028986,45.4623188 Z" id="Path"></path>
                <path d="M5.27536232,37.7565217 L17.5217391,37.7565217 C16.5240201,31.8946824 19.0949903,25.9988404 24.0693822,22.7412295 C29.0437742,19.4836186 35.4757911,19.4836186 40.450183,22.7412295 C45.4245749,25.9988404 47.9955451,31.8946824 46.9978261,37.7565217 L59.2442029,37.7565217 C59.2442029,37.9826087 59.1217391,38.2086957 59.0746377,38.4347826 C61.383659,28.1508623 57.6154364,17.451549 49.3715482,10.8842889 C41.12766,4.31702883 29.8567518,3.03584432 20.3492102,7.58526729 C10.8416685,12.1346903 4.76819269,21.7152799 4.71014493,32.2550725 C4.71579615,34.3358782 4.95916167,36.409226 5.43550725,38.4347826 C5.39782609,38.2086957 5.32246377,37.9826087 5.27536232,37.7565217 Z" id="Path"></path>
                <path d="M58.3021739,41.0724638 C58.4057971,40.7710145 58.5094203,40.4601449 58.6036232,40.1304348 C58.5094203,40.5072464 58.4057971,40.7710145 58.3021739,41.0724638 Z" id="Path"></path>
                <path d="M57.4072464,43.3333333 C57.5297101,43.0601449 57.6427536,42.7869565 57.7557971,42.5043478 C57.6427536,42.8246377 57.5297101,43.0978261 57.4072464,43.3333333 Z" id="Path"></path>
                <path d="M56.3804348,45.4623188 C56.323913,45.5753623 56.2485507,45.6884058 56.1826087,45.8014493 C56.2485507,45.6884058 56.323913,45.5753623 56.3804348,45.4623188 Z" id="Path"></path>
                <path d="M32.2550725,-4.61192853e-05 C19.9592877,-0.0207517185 8.72515527,6.96299854 3.30252991,17.9984817 C-2.12009544,29.0339648 -0.784380258,42.1942978 6.74492754,51.9152174 L57.7557971,51.9152174 C65.2840558,42.1956408 66.6205197,29.0374666 61.2002588,18.0027205 C55.779998,6.96797446 44.5491586,-0.0171476745 32.2550725,-4.61192853e-05 Z" id="Path" fill="#FF7139" fill-rule="nonzero"></path>
                <rect id="Rectangle" fill="#FFD4B1" fill-rule="nonzero" x="53.4884058" y="31.4637681" width="4.71956522" height="1.57318841" rx="0.786594203"></rect>
                <rect id="Rectangle" fill="#FFD4B1" fill-rule="nonzero" transform="translate(8.652536, 32.250362) rotate(180.000000) translate(-8.652536, -32.250362) " x="6.29275362" y="31.4637681" width="4.71956522" height="1.57318841" rx="0.786594203"></rect>
                <path d="M30.6771739,7.86594203 L33.8235507,7.86594203 C34.2579747,7.86594203 34.6101449,8.21811225 34.6101449,8.65253623 C34.6101449,9.08696021 34.2579747,9.43913043 33.8235507,9.43913043 L30.6771739,9.43913043 C30.2427499,9.43913043 29.8905797,9.08696021 29.8905797,8.65253623 C29.8905797,8.21811225 30.2427499,7.86594203 30.6771739,7.86594203 Z" id="Rectangle" fill="#FFD4B1" fill-rule="nonzero" transform="translate(32.250362, 8.652536) rotate(-90.000000) translate(-32.250362, -8.652536) "></path>
                <path d="M18.7515077,10.7731093 L21.8934765,10.7731093 C22.3298896,10.7731093 22.6836722,11.1268919 22.6836722,11.563305 L22.6836722,11.563305 C22.6836722,11.9945227 22.3341013,12.3440936 21.9028836,12.3440936 L18.7515077,12.3440936 C18.32029,12.3440936 17.9707191,11.9945227 17.9707191,11.563305 L17.9707191,11.563305 C17.9707191,11.1268919 18.3245017,10.7731093 18.7609148,10.7731093 L18.7515077,10.7731093 Z" id="Path" fill="#FFD4B1" fill-rule="nonzero" transform="translate(20.327196, 11.558601) rotate(-122.735226) translate(-20.327196, -11.558601) "></path>
                <path d="M9.99184454,19.6804728 L13.1664822,19.6804728 C13.5983049,19.6804728 13.9483663,20.0305343 13.9483663,20.4623569 L13.9483663,20.4623569 C13.9483663,20.8941795 13.5983049,21.244241 13.1664822,21.244241 L9.99184454,21.244241 C9.55481921,21.244241 9.20054019,20.8899619 9.20054019,20.4529366 L9.20054019,20.4529366 C9.20054019,20.2455681 9.28291702,20.0466928 9.42954873,19.9000611 C9.57618043,19.7534294 9.7750557,19.6710526 9.98242425,19.6710526 L9.99184454,19.6804728 Z" id="Path" fill="#FFD4B1" fill-rule="nonzero" transform="translate(11.574453, 20.457647) rotate(-150.000000) translate(-11.574453, -20.457647) "></path>
                <path d="M51.3826757,19.7237106 L54.5290525,19.7237106 C54.9608751,19.7237106 55.3109365,20.073772 55.3109365,20.5055947 L55.3109365,20.5055947 C55.3109365,20.7154617 55.2275672,20.916733 55.0791689,21.0651314 C54.9307705,21.2135297 54.7294992,21.296899 54.5196322,21.296899 L51.3826757,21.296899 C50.9456503,21.296899 50.5913713,20.94262 50.5913713,20.5055947 L50.5913713,20.5055947 C50.5913713,20.073772 50.9414327,19.7237106 51.3732554,19.7237106 L51.3826757,19.7237106 Z" id="Path" fill="#FFD4B1" fill-rule="nonzero" transform="translate(52.951154, 20.510305) rotate(-32.610000) translate(-52.951154, -20.510305) "></path>
                <path d="M42.4844865,10.8111931 L45.6308633,10.8111931 C46.062686,10.8111931 46.4127474,11.1612546 46.4127474,11.5930772 L46.4127474,11.5930772 C46.4127474,12.0301025 46.0584684,12.3843815 45.6214431,12.3843815 L42.4844865,12.3843815 C42.0474612,12.3843815 41.6931822,12.0301025 41.6931822,11.5930772 L41.6931822,11.5930772 C41.6931822,11.3840661 41.7768357,11.1837498 41.9255112,11.0368443 C42.0741867,10.8899387 42.2754906,10.8086749 42.4844865,10.8111931 Z" id="Path" fill="#FFD4B1" fill-rule="nonzero" transform="translate(44.052965, 11.597759) rotate(-60.000000) translate(-44.052965, -11.597759) "></path>
                <circle id="Oval" fill="#FFA166" fill-rule="nonzero" cx="32.2550725" cy="35.392029" r="8.64782609"></circle>
                <circle id="Oval" fill="#FFD4B1" fill-rule="nonzero" cx="32.2550725" cy="35.3166667" r="5.51086957"></circle>
                <path d="M33.0369565,35.1471014 C32.48491,35.1482089 31.9726765,34.8598766 31.6872335,34.3873527 C31.4017904,33.9148287 31.3849099,33.3272628 31.6427536,32.8391304 L43.5405797,10.2775362 C43.8030922,9.77270439 44.3149884,9.44626931 44.8834419,9.42119592 C45.4518953,9.39612254 45.9905445,9.67622009 46.2964854,10.1559786 C46.6024263,10.635737 46.6291792,11.2422696 46.3666667,11.7471014 L34.4782609,34.3557971 C34.1848627,34.8696209 33.6279714,35.1753652 33.0369565,35.1471014 L33.0369565,35.1471014 Z" id="Path" fill="#FFD4B1" fill-rule="nonzero"></path>
            </g>
        </g>
    </g>
</svg>