<svg xmlns="http://www.w3.org/2000/svg" viewBox="0 0 64 64">
  <path fill="#008ef0" d="M26 23.9c-1.1 0-2 .9-2 2v3.2l-8.6-8.6c-.8-.8-2.1-.8-2.8 0-.8.8-.8 2 0 2.8l8.6 8.6H18c-1.5 0-2.5 1.7-1.7 3 .4.6 1 1 1.7 1h8l.8-.2c.5-.2.9-.6 1.1-1.1l.2-.8v-8c-.1-1-1-1.9-2.1-1.9m26-16H12c-6.6 0-12 5.4-12 12v32c0 6.6 5.4 12 12 12h8c3.1-.2 4.8-3.7 3.1-6.2-.7-1-1.8-1.7-3.1-1.8h-8c-2.2 0-4-1.8-4-4v-32c0-2.2 1.8-4 4-4h40c2.2 0 4 1.8 4 4v8c0 3.1 3.3 5 6 3.5 1.2-.7 2-2 2-3.5v-8c0-6.6-5.4-12-12-12"/>
  <path fill="#00b3f4" d="M64 43.9v16c0 2.2-1.8 4-4 4H36c-2.2 0-4-1.8-4-4v-16c0-2.2 1.8-4 4-4h24c2.2 0 4 1.8 4 4"/>
</svg>
