<?xml version="1.0" encoding="UTF-8"?>
<svg width="79px" height="40px" viewBox="0 0 79 40" version="1.1" xmlns="http://www.w3.org/2000/svg" xmlns:xlink="http://www.w3.org/1999/xlink">
    <!-- Generator: Sketch 59.1 (86144) - https://sketch.com -->
    <title>Asset 18</title>
    <desc>Created with Sketch.</desc>
    <g id="/firefox/features" stroke="none" stroke-width="1" fill="none" fill-rule="evenodd">
        <g id="fx-features-1312-FINAL" transform="translate(-124.000000, -1240.000000)" fill-rule="nonzero">
            <g id="Group-18" transform="translate(123.000000, 1240.158048)">
                <g id="Asset-18" transform="translate(1.000000, 0.000000)">
                    <path d="M62.8352941,0 C50.0823529,0 46.0588235,5.07058824 40.0352941,5.34117647 L50.3294118,34.4941176 C53.7176471,36.9294118 57.1647059,39.3647059 61.2352941,39.3647059 C71.3294118,39.3647059 78.7882353,29.8 78.8823529,13.4823529 C79,3.24705882 75.9411765,0 62.8352941,0 Z M60.5882353,23.2588235 C55.4235294,23.2588235 49.3411765,21.3647059 49.3411765,19.7294118 C49.3411765,17.8470588 52.2705882,12.2470588 59.7882353,12.5764706 C67.7529412,12.9176471 71.0352941,17.6705882 71.0352941,18.8352941 C71.0352941,20 65.7529412,23.2588235 60.5882353,23.2588235 Z" id="Shape" fill="#9150FF"></path>
                    <path d="M39.5411765,5.36470588 L39.5411765,29.5176471 C43.4941176,29.5176471 46.8823529,32.0117647 50.3294118,34.4941176 L40.0352941,5.34117647 L39.5411765,5.36470588 Z" id="Path" fill="#C785FF"></path>
                    <path d="M16.2470588,0 C3.14117647,0 0.105882353,3.24705882 0.176470588,13.4235294 C0.294117647,29.8 7.75294118,39.3647059 17.8235294,39.3647059 C21.7411765,39.3647059 25.2588235,36.8235294 28.7882353,34.3176471 L39,5.34117647 C32.9882353,5.07058824 29,0 16.2470588,0 Z M18.4941176,23.2588235 C13.3294118,23.2588235 8.04705882,19.9529412 8.04705882,18.7882353 C8.04705882,17.6235294 11.3294118,12.9058824 19.2941176,12.5294118 C26.8117647,12.2 29.7411765,17.8 29.7411765,19.6823529 C29.7411765,21.3647059 23.7058824,23.2588235 18.4941176,23.2588235 Z" id="Shape" fill="#7638E9"></path>
                    <path d="M39.5411765,5.36470588 L39.0470588,5.36470588 L28.8117647,34.3411765 C32.2352941,31.9294118 35.6823529,29.5411765 39.5411765,29.5411765 L39.5411765,5.36470588 Z" id="Path" fill="#9150FF"></path>
                    <path d="M62.8352941,0 C50.0823529,0 46.0588235,5.07058824 40.0352941,5.34117647 L50.3294118,34.4941176 C53.7176471,36.9294118 57.1647059,39.3647059 61.2352941,39.3647059 C71.3294118,39.3647059 78.7882353,29.8 78.8823529,13.4823529 C79,3.24705882 75.9411765,0 62.8352941,0 Z M60.5882353,23.2588235 C55.4235294,23.2588235 49.3411765,21.3647059 49.3411765,19.7294118 C49.3411765,17.8470588 52.2705882,12.2470588 59.7882353,12.5764706 C67.7529412,12.9176471 71.0352941,17.6705882 71.0352941,18.8352941 C71.0352941,20 65.7529412,23.2588235 60.5882353,23.2588235 Z" id="Shape" fill="#7638E9"></path>
                    <path d="M39.5411765,5.36470588 L39.5411765,29.5176471 C43.4941176,29.5176471 46.8823529,32.0117647 50.3294118,34.4941176 L40.0352941,5.34117647 L39.5411765,5.36470588 Z" id="Path" fill="#AA71FF"></path>
                    <path d="M16.2470588,0 C3.14117647,0 0.105882353,3.24705882 0.176470588,13.4235294 C0.294117647,29.8 7.75294118,39.3647059 17.8235294,39.3647059 C21.7411765,39.3647059 25.2588235,36.8235294 28.7882353,34.3176471 L39,5.34117647 C32.9882353,5.07058824 29,0 16.2470588,0 Z M18.4941176,23.2588235 C13.3294118,23.2588235 8.04705882,19.9529412 8.04705882,18.7882353 C8.04705882,17.6235294 11.3294118,12.9058824 19.2941176,12.5294118 C26.8117647,12.2 29.7411765,17.8 29.7411765,19.6823529 C29.7411765,21.3647059 23.7058824,23.2588235 18.4941176,23.2588235 Z" id="Shape" fill="#7638E9"></path>
                    <path d="M39.5411765,5.36470588 L39.0470588,5.36470588 L28.8117647,34.3411765 C32.2352941,31.9294118 35.6823529,29.5411765 39.5411765,29.5411765 L39.5411765,5.36470588 Z" id="Path" fill="#8F59FF"></path>
                </g>
            </g>
        </g>
    </g>
</svg>
