<svg height="67" viewBox="0 0 56 67" width="56" xmlns="http://www.w3.org/2000/svg"><g fill="none" transform="translate(.847826 .158048)"><g fill="#7638e9"><path d="m54.2516393 16.5811475c0-2.7590164-.0811475-5.8877049-.0811475-9.41311471-.0048816-1.46607699-1.0618489-2.71694828-2.5065574-2.96639345l-24.0016393-4.15655737c-.1710346-.01377541-.3428999-.01377541-.5139344 0-.1722255.00159272-.3440619.0166661-.5139345.04508196l-23.99262292 4.11147541c-1.46562804.24522823-2.53139397 1.52568083-2.50655738 3.01147541 0 3.52540985 0 6.65409835-.08114754 9.41311475-.06311475 4.9770492-.10819672 8.5745902.09016394 10.8196721 1.30737704 14.3540984 4.36393442 20.9090164 9.49426229 27.9688525 4.10411801 5.5961209 10.13135481 9.4783422 16.92377051 10.9008197.1963299.0358935.395498.0541024.5950819.0541024.1966163 0 .3928296-.0177997.5860656-.0541024 6.778451-1.4563895 12.7945514-5.3314376 16.9237705-10.9008197 5.1483607-7.0598361 8.1868853-13.6147541 9.4852459-28.0139344.2073771-2.245082.1622951-5.842623.0991803-10.8196722z"/><path d="m26.6434426.09016393-24.00163932 4.15655738c-1.44112599.25332823-2.49343026 1.50317699-2.49754098 2.96639344 0 3.53442625-.05409837 6.66311475-.09016394 9.42213115-.05409836 5.0040984-.10819672 8.6106557.09918033 10.8106557 1.29836065 14.3991804 4.35491803 20.9631148 9.4852459 28.0229509 4.10729021 5.5952258 10.13811441 9.474478 16.93278691 10.8918032.193236.0363028.3894493.0541025.5860655.0541025v-66.36967623c-.1722254.00159272-.3440618.0166661-.5139344.04508196z"/><path d="m26.7155738 4.66147541-20.12459019 3.45327869c-1.2122042.22288221-2.08999477 1.28307081-2.08278689 2.5155738 0 2.957377 0 5.5811475-.06311475 7.8983606-.05409836 4.1745902-.09016394 7.2131148.08114754 9.0704918 1.06393442 12.0729508 3.58852459 17.5819672 7.93442619 23.5057377 3.4455899 4.6912716 8.5030023 7.9440708 14.2008197 9.1336066.1620209.0133415.3248644.0133415.4868853 0v-55.61323103c-.1450694-.00133137-.2899581.01074269-.4327869.03618184z"/></g><path d="m49.8786885 18.5286885c0-2.3172131-.0631147-4.9409836-.0721311-7.8983606.0138926-1.23800806-.8720317-2.30340844-2.0918033-2.5155738l-20.1336066-3.45327869c-.1439512-.01339676-.2888356-.01339676-.4327868 0v55.62213119c.1650309.0133524.3308707.0133524.4959016 0 5.6915658-1.2322463 10.7378229-4.4991688 14.1918033-9.187705 4.3278688-5.9147541 6.852459-11.4237705 7.9614754-23.4967213.1713115-1.8754098.1352459-4.8959016.0811475-9.0704918z" fill="#dabdff"/><path d="m54.2516393 16.5811475c0-2.7590164-.0811475-5.8877049-.0811475-9.41311471-.0048816-1.46607699-1.0618489-2.71694828-2.5065574-2.96639345l-24.0016393-4.15655737c-.1710346-.01377541-.3428999-.01377541-.5139344 0-.1722255.00159272-.3440619.0166661-.5139345.04508196l-23.99262292 4.11147541c-1.46562804.24522823-2.53139397 1.52568083-2.50655738 3.01147541 0 3.52540985 0 6.65409835-.08114754 9.41311475-.06311475 4.9770492-.10819672 8.5745902.09016394 10.8196721 1.30737704 14.3540984 4.36393442 20.9090164 9.49426229 27.9688525 4.10411801 5.5961209 10.13135481 9.4783422 16.92377051 10.9008197.1963299.0358935.395498.0541024.5950819.0541024.1966163 0 .3928296-.0177997.5860656-.0541024 6.778451-1.4563895 12.7945514-5.3314376 16.9237705-10.9008197 5.1483607-7.0598361 8.1868853-13.6147541 9.4852459-28.0139344.2073771-2.245082.1622951-5.842623.0991803-10.8196722z" fill="#8f59ff"/><path d="m26.6434426.09016393-24.00163932 4.15655738c-1.44112599.25332823-2.49343026 1.50317699-2.49754098 2.96639344 0 3.53442625-.05409837 6.66311475-.09016394 9.42213115-.05409836 5.0040984-.10819672 8.6106557.09918033 10.8106557 1.29836065 14.3991804 4.35491803 20.9631148 9.4852459 28.0229509 4.10729021 5.5952258 10.13811441 9.474478 16.93278691 10.8918032.193236.0363028.3894493.0541025.5860655.0541025v-66.36967623c-.1722254.00159272-.3440618.0166661-.5139344.04508196z" fill="#592aca"/><path d="m26.7155738 4.66147541-20.12459019 3.45327869c-1.2122042.22288221-2.08999477 1.28307081-2.08278689 2.5155738 0 2.957377 0 5.5811475-.06311475 7.8983606-.05409836 4.1745902-.09016394 7.2131148.08114754 9.0704918 1.06393442 12.0729508 3.58852459 17.5819672 7.93442619 23.5057377 3.4455899 4.6912716 8.5030023 7.9440708 14.2008197 9.1336066.1620209.0133415.3248644.0133415.4868853 0v-55.61323103c-.1450694-.00133137-.2899581.01074269-.4327869.03618184z" fill="#7542e4"/><path d="m49.8786885 18.5286885c0-2.3172131-.0631147-4.9409836-.0721311-7.8983606.0138926-1.23800806-.8720317-2.30340844-2.0918033-2.5155738l-20.1336066-3.45327869c-.1439512-.01339676-.2888356-.01339676-.4327868 0v55.62213119c.1650309.0133524.3308707.0133524.4959016 0 5.6915658-1.2322463 10.7378229-4.4991688 14.1918033-9.187705 4.3278688-5.9147541 6.852459-11.4237705 7.9614754-23.4967213.1713115-1.8754098.1352459-4.8959016.0811475-9.0704918z" fill="#aa71ff"/></g></svg>
