<svg fill="none" height="69" viewBox="0 0 182 69" width="182" xmlns="http://www.w3.org/2000/svg" xmlns:xlink="http://www.w3.org/1999/xlink"><linearGradient id="a" gradientUnits="userSpaceOnUse" x1="177" x2="111.925" y1="30.5" y2="115.193"><stop offset="0" stop-color="#ff7139"/><stop offset="1" stop-color="#ffea7f"/></linearGradient><mask id="b" fill="#000" height="69" maskUnits="userSpaceOnUse" width="182" x="0" y="0"><path d="m0 0h182v69h-182z" fill="#fff"/><path clip-rule="evenodd" d="m12.6273 62.5236-6.17471-6.2164c-.93042-.9367-1.45259-2.2033-1.45259-3.5236v-.4905-41.5222-.7709c0-2.76142 2.23858-5 5-5h.6439 79.5657.6157c1.3319 0 2.6088.53141 3.5474 1.47638l6.1743 6.21642c.931.9367 1.453 2.2033 1.453 3.5236v22.8612 19.9224c0 2.7614-2.2386 5-5 5h-80.8253c-1.3319 0-2.6088-.5314-3.5474-1.4764zm106.3027-4.0223 5.716 4.4455c.877.6826 1.958 1.0532 3.07 1.0532h44.284c2.761 0 5-2.2386 5-5v-19.9224-22.8612c0-1.3203-.522-2.5869-1.453-3.5236l-6.174-6.21641c-.395-.39744-.85-.72172-1.343-.96408-.422-.32907-.891-.51231-1.385-.51231h-.82-43.825-2.645c-1.853 0-3.355 2.5806-3.355 5.7639v41.4722c0 2.3047.787 4.2935 1.925 5.2158.279.3925.616.747 1.005 1.0494z" fill="#000" fill-rule="evenodd"/></mask><path clip-rule="evenodd" d="m12.6273 62.5236-6.17471-6.2164c-.93042-.9367-1.45259-2.2033-1.45259-3.5236v-.4905-41.5222-.7709c0-2.76142 2.23858-5 5-5h.6439 79.5657.6157c1.3319 0 2.6088.53141 3.5474 1.47638l6.1743 6.21642c.931.9367 1.453 2.2033 1.453 3.5236v22.8612 19.9224c0 2.7614-2.2386 5-5 5h-80.8253c-1.3319 0-2.6088-.5314-3.5474-1.4764zm106.3027-4.0223 5.716 4.4455c.877.6826 1.958 1.0532 3.07 1.0532h44.284c2.761 0 5-2.2386 5-5v-19.9224-22.8612c0-1.3203-.522-2.5869-1.453-3.5236l-6.174-6.21641c-.395-.39744-.85-.72172-1.343-.96408-.422-.32907-.891-.51231-1.385-.51231h-.82-43.825-2.645c-1.853 0-3.355 2.5806-3.355 5.7639v41.4722c0 2.3047.787 4.2935 1.925 5.2158.279.3925.616.747 1.005 1.0494z" fill="#000" fill-rule="evenodd"/><path d="m6.45259 56.3072 3.54741-3.5236zm6.17471 6.2164-3.54744 3.5236zm81.7454-56.04722-3.5474 3.52362zm6.1743 6.21642 3.548-3.52364zm24.099 50.254 3.07-3.9468zm-5.716-4.4455 3.07-3.9467zm56.617-45.8085 3.548-3.52363v-.00001zm-6.174-6.21641-3.548 3.52358v.00003zm-1.343-.96408-3.074 3.94326.407.31709.462.22744zm-50.105 51.93959 4.075-2.897-.396-.5569-.53-.4303zm-115.01983 2.3789 6.17469 6.2164 7.09484-7.0472-6.1747-6.2164zm-2.90517-7.0472c0 2.6405 1.04435 5.1738 2.90517 7.0472l7.09483-7.0472zm0-.4905v.4905h10v-.4905zm0-41.5222v41.5222h10v-41.5222zm0-.7709v.7709h10v-.7709zm10-10c-5.52284 0-10 4.47715-10 10h10zm.6439 0h-.6439v10h.6439zm79.5657 0h-79.5657v10h79.5657zm.6157 0h-.6157v10h.6157zm7.0948 2.95277c-1.8772-1.88994-4.4309-2.95277-7.0948-2.95277v10zm6.1749 6.21639-6.1749-6.21639-7.0948 7.04723 6.1747 6.2164zm2.905 7.04724c0-2.6405-1.044-5.1738-2.905-7.04724l-7.095 7.04724zm0 22.8612v-22.8612h-10v22.8612zm0 19.9224v-19.9224h-10v19.9224zm-10 10c5.523 0 10-4.4771 10-10h-10zm-80.8253 0h80.8253v-10h-80.8253zm-7.09484-2.9528c1.87724 1.89 4.43104 2.9528 7.09484 2.9528v-10zm118.63614-7.0472-5.716-4.4454-6.139 7.8935 5.715 4.4454zm0 0-6.14 7.8935c1.755 1.3653 3.916 2.1065 6.14 2.1065zm44.284 0h-44.284v10h44.284zm0 0v10c5.523 0 10-4.4771 10-10zm0-19.9224v19.9224h10v-19.9224zm0-22.8612v22.8612h10v-22.8612zm0 0h10c0-2.6405-1.044-5.1739-2.905-7.04723zm-6.175-6.2164 6.175 6.2164 7.095-7.04724-6.175-6.21639zm0 .0001v-.00013l7.095-7.04716c-.789-.7948-1.699-1.44354-2.685-1.92824zm.82-.0001c-.809 0-1.394-.31468-1.689-.54443l6.148-7.88652c-1.139-.88788-2.662-1.56905-4.459-1.56905zm-.82 0h.82v-10h-.82zm-43.825 0h43.825v-10h-43.825zm-2.645 0h2.645v-10h-2.645zm1.645.7639c0-.86745.215-1.40814.304-1.56066.039-.06791-.032.08849-.316.29439-.312.22724-.879.50237-1.633.50237v-10c-3.449 0-5.641 2.36436-6.694 4.17319-1.125 1.93361-1.661 4.27489-1.661 6.59071zm0 41.4722v-41.4722h-10v41.4722zm.074 1.3316c.088.0721.148.1336.184.1735.035.04.051.0639.052.0652.001.0016-.01-.014-.028-.0498-.018-.0357-.041-.0872-.067-.1558-.11-.292-.215-.7635-.215-1.3647h-10c0 3.1315 1.025 6.8696 3.776 9.0999zm.926.9869v.0003l-8.15 5.794c.558.7855 1.233 1.4946 2.011 2.0992z" fill="#fff" mask="url(#b)"/><path clip-rule="evenodd" d="m6.45259 56.3072 6.17471 6.2164c.9386.945 2.2155 1.4764 3.5474 1.4764h80.8253c2.7614 0 5-2.2386 5-5v-19.9224-22.8612c0-1.3203-.522-2.5869-1.453-3.5236l-6.1743-6.21642c-.9386-.94497-2.2155-1.47638-3.5474-1.47638h-80.8253c-2.76142 0-5 2.23858-5 5v42.7836c0 1.3203.52217 2.5869 1.45259 3.5236zm112.47741 2.1941 5.716 4.4455c.877.6826 1.958 1.0532 3.07 1.0532h44.284c2.761 0 5-2.2386 5-5v-19.9224-22.8612c0-1.3203-.522-2.5869-1.453-3.5236l-6.174-6.21641c-.939-.94497-2.216-1.47639-3.548-1.47639h-43.825c-2.761 0-5 2.23858-5 5v44.5546c0 1.5429.712 2.9995 1.93 3.9467z" fill="url(#a)" fill-rule="evenodd"/><path d="m12.6273 62.5236-.5676.5638zm-6.17471-6.2164.56758-.5638zm94.09441-43.6144.568-.5638zm-6.1743-6.21642-.5676.56378zm30.2733 56.47042.491-.6315zm-5.716-4.4455.491-.6314zm56.617-45.8085.568-.5638zm-6.174-6.21641-.568.56378zm-156.1781 55.48341-6.17473-6.2164-1.13517 1.1276 6.1747 6.2164zm2.9798 1.2402c-1.1188 0-2.1914-.4464-2.9798-1.2402l-1.1352 1.1276c1.0888 1.0962 2.57 1.7126 4.115 1.7126zm80.8253 0h-80.8253v1.6h80.8253zm4.2-4.2c0 2.3196-1.8804 4.2-4.2 4.2v1.6c3.203 0 5.8-2.5967 5.8-5.8zm0-19.9224v19.9224h1.6v-19.9224zm0-22.8612v22.8612h1.6v-22.8612zm-1.2202-2.9598c.7812.7868 1.2202 1.8508 1.2202 2.9598h1.6c0-1.5315-.606-3.0008-1.685-4.0874zm-6.1747-6.21644 6.1747 6.21644 1.1352-1.1276-6.1747-6.21639zm-2.9798-1.24016c1.1188 0 2.1914.44639 2.9798 1.24016l1.1352-1.12755c-1.0888-1.09617-2.57-1.71261-4.115-1.71261zm-80.8253 0h80.8253v-1.6h-80.8253zm-4.2 4.2c0-2.3196 1.88041-4.2 4.2-4.2v-1.6c-3.20325 0-5.8 2.59675-5.8 5.8zm0 42.7836v-42.7836h-1.6v42.7836zm1.22017 2.9598c-.78154-.7868-1.22017-1.8508-1.22017-2.9598h-1.6c0 1.5315.60572 3.0008 1.685 4.0874zm118.11683 6.5719-5.716-4.4454-.982 1.2629 5.716 4.4454zm2.579.8847c-.934 0-1.842-.3113-2.579-.8847l-.982 1.2629c1.018.7919 2.271 1.2218 3.561 1.2218zm44.284 0h-44.284v1.6h44.284zm4.2-4.2c0 2.3196-1.88 4.2-4.2 4.2v1.6c3.203 0 5.8-2.5967 5.8-5.8zm0-19.9224v19.9224h1.6v-19.9224zm0-22.8612v22.8612h1.6v-22.8612zm-1.22-2.9598c.781.7868 1.22 1.8508 1.22 2.9598h1.6c0-1.5315-.606-3.0008-1.685-4.0874zm-6.175-6.21643 6.175 6.21643 1.135-1.1276-6.175-6.21639zm-2.98-1.24017c1.119 0 2.192.44639 2.98 1.24017l1.135-1.12756c-1.088-1.09617-2.57-1.71261-4.115-1.71261zm-43.825 0h43.825v-1.6h-43.825zm-4.2 4.2c0-2.3196 1.88-4.2 4.2-4.2v-1.6c-3.203 0-5.8 2.59675-5.8 5.8zm0 44.5546v-44.5546h-1.6v44.5546zm1.621 3.3153c-1.023-.7958-1.621-2.0192-1.621-3.3153h-1.6c0 1.7898.826 3.4794 2.239 4.5782z" fill="#000"/><path d="m90.2096 5h-79.5657c-3.11702 0-5.6439 2.58371-5.6439 5.7709v41.5222c0 3.1872 2.52688 5.7709 5.6439 5.7709h79.5657c3.1171 0 5.644-2.5837 5.644-5.7709v-41.5222c0-3.18719-2.5269-5.7709-5.644-5.7709z" fill="#fff" stroke="#000" stroke-linecap="round" stroke-linejoin="round" stroke-width="1.6"/><path d="m166.645 5h-47.29c-1.853 0-3.355 2.5806-3.355 5.7639v41.4722c0 3.1833 1.502 5.7639 3.355 5.7639h47.29c1.853 0 3.355-2.5806 3.355-5.7639v-41.4722c0-3.1833-1.502-5.7639-3.355-5.7639z" fill="#fff" stroke="#000" stroke-linecap="round" stroke-linejoin="round" stroke-width="1.6"/><g fill="#000"><path d="m141.947 38.9844v-4.2344h-4.226v-2.1016h4.226v-4.2265h2.102v4.2265h4.234v2.1016h-4.234v4.2344z"/><path d="m18.615 28.5569c-.1085-.9316-.9317-1.4738-2.09-1.4738-1.2422 0-2.0259.6359-2.0259 1.4936-.0049.9661 1.045 1.3358 1.8336 1.5379l.9859.2563c1.2816.3154 2.9033 1.0203 2.9033 2.8392 0 1.7104-1.3654 2.9575-3.7364 2.9575-2.2624 0-3.6771-1.1288-3.7757-2.9575h1.528c.0888 1.0992 1.0647 1.6217 2.2379 1.6217 1.2964 0 2.2378-.6507 2.2378-1.6365 0-.8971-.833-1.252-1.9125-1.5379l-1.1928-.3253c-1.6217-.4387-2.6273-1.2619-2.6273-2.6667 0-1.74 1.5527-2.8984 3.5786-2.8984 2.0505 0 3.48 1.1732 3.5243 2.7899zm6.1489-.1281v1.183h-1.5527v4.1651c0 .8528.4288 1.0105.9069 1.0105.2366 0 .419-.0443.5176-.0641l.2662 1.2175c-.1726.0641-.488.1529-.9563.1578-1.1633.0246-2.2132-.6408-2.2083-2.016v-4.4708h-1.109v-1.183h1.109v-1.814h1.4739v1.814zm.9363 7.5712v-7.5712h1.4245v1.2027h.0788c.2761-.8133 1.0352-1.3161 1.9224-1.3161.1873 0 .4782.0148.626.0345v1.4098c-.1183-.0345-.4633-.0888-.7689-.0888-1.045 0-1.809.7148-1.809 1.7055v4.6236zm7.5364 2.9969c-1.809 0-2.8195-.7886-3.2187-1.7153l1.2668-.5225c.2612.4338.7393 1.0499 1.9667 1.0499 1.1189 0 1.9322-.5126 1.9322-1.7006v-1.4886h-.0936c-.2662.4831-.8035 1.2668-2.1935 1.2668-1.7893 0-3.1645-1.2865-3.1645-3.7018 0-2.4103 1.3456-3.8546 3.1744-3.8546 1.4097 0 1.9322.8577 2.1934 1.326h.1085v-1.2274h1.4442v7.7388c0 1.947-1.4886 2.8293-3.4159 2.8293zm-.0148-4.3327c1.2718 0 1.9766-.9365 1.9766-2.4991 0-1.533-.6901-2.5829-1.9766-2.5829-1.3309 0-2.0012 1.1288-2.0012 2.5829 0 1.4886.6851 2.4991 2.0012 2.4991zm11.5375-9.2324-3.2533 12.0864h-1.316l3.2532-12.0864zm-28.5794 23.721c-2.1984 0-3.5292-1.6217-3.5292-3.9039 0-2.3118 1.3801-3.9187 3.5145-3.9187 1.7202 0 2.9673 1.0154 3.1251 2.5435h-1.4344c-.1578-.7098-.7296-1.3013-1.6661-1.3013-1.2323 0-2.0505 1.0203-2.0505 2.642 0 1.6513.8034 2.6913 2.0505 2.6913.8429 0 1.4788-.483 1.6661-1.3013h1.4344c-.1627 1.4738-1.3211 2.5484-3.1104 2.5484zm3.9924-.1528v-7.5712h1.4147v1.2323h.0937c.3154-.8331 1.0597-1.3309 2.0603-1.3309 1.0105 0 1.7055.5028 2.0358 1.3309h.0789c.3647-.8084 1.183-1.3309 2.2723-1.3309 1.3703 0 2.3364.8626 2.3364 2.5927v5.0771h-1.4738v-4.939c0-1.0253-.6408-1.4591-1.4196-1.4591-.9612 0-1.5182.6605-1.5182 1.5724v4.8257h-1.4689v-5.0327c0-.8232-.5668-1.3654-1.3851-1.3654-.8379 0-1.5527.7098-1.5527 1.7302v4.6679zm14.4078.1479c-1.8386 0-3.1646-1.4689-3.1646-3.9187 0-2.4547 1.3457-3.899 3.1744-3.899 1.4098 0 1.9125.8577 2.1787 1.326h.0887v-3.7512h1.4739v10.095h-1.4394v-1.1781h-.1232c-.2662.4831-.8084 1.326-2.1885 1.326zm.3253-1.257c1.2717 0 1.9766-1.0844 1.9766-2.6765 0-1.5823-.6901-2.6322-1.9766-2.6322-1.3309 0-2.0013 1.1288-2.0013 2.6322 0 1.5182.6852 2.6765 2.0013 2.6765z"/></g></svg>
