<svg xmlns="http://www.w3.org/2000/svg" width="46" height="37" viewbox="0 0 46 37">
    <path fill="#FF7139" fill-rule="evenodd" d="M25.202 32.117l.004-.004a3.11 3.11 0 0 1-4.377 0l-.422-.419L6.76 18.139c-3.222-3.2-3.377-8.342-.346-11.465a8.04 8.04 0 0 1 5.74-2.455h.075a8.04 8.04 0 0 1 5.705 2.347l2.067 2.044-4.792 4.76a4.169 4.169 0 0 0-1.236 2.961c0 .672.162 1.318.46 1.9.013.023.022.049.036.073.012.024.029.046.042.07.188.333.42.643.698.92l1.829 1.815 2.98 2.96A4.203 4.203 0 0 0 23 25.296a4.202 4.202 0 0 0 2.982-1.226l4.81-4.777a4.175 4.175 0 0 0 0-5.923l-4.789-4.755 2.063-2.049a8.038 8.038 0 0 1 5.78-2.347 8.038 8.038 0 0 1 5.739 2.456c3.032 3.122 2.877 8.265-.345 11.465L25.202 32.117zm-6.99-15.764l4.8-4.766 4.776 4.723-4.766 4.776-.002-.001-4.807-4.732zM42.644 3.747A12.272 12.272 0 0 0 33.885 0h-.116c-3.29 0-6.378 1.27-8.706 3.584L23 5.632l-2.063-2.048A12.264 12.264 0 0 0 12.23 0h-.115a12.275 12.275 0 0 0-8.759 3.746c-4.627 4.767-4.447 12.563.4 17.376l13.645 13.552c3.018 2.998 7.84 3.093 10.983.31l13.86-13.861c4.848-4.815 5.027-12.61.4-17.376z"/>
</svg>
