<svg id="icon-careers" xmlns="http://www.w3.org/2000/svg" viewBox="0 0 44 38.2"><style>.st0{fill:#C33B32;}</style><path class="st0" d="M7.5 32.3c-.9 0-1.6-.7-1.6-1.6v-2c0-.6.4-1.2 1-1.5 3.6-1.4 4.7-2.1 5-2.4v-.1c-.5-.6-.8-1.3-1.1-2-.7-.7-.9-1.9-.4-2.7v-1.5c0-2.6 1.6-4.1 4.4-4.1s4.4 1.5 4.4 4.1V20c.5.9.3 2-.4 2.8-.2.7-.6 1.4-1.1 2v.1c.3.3 1.4 1 5 2.4.6.2 1 .9 1 1.5v1.9c0 .9-.7 1.6-1.5 1.6H7.5zM8 29v1.3h13.8V29c-4.6-1.8-5.7-2.7-5.9-3.5v-1.1c0-.3.1-.5.3-.7.5-.5.8-1.1 1-1.7.1-.2.2-.4.4-.5.1-.1.2-.3.1-.4-.1-.2-.2-.4-.2-.6v-1.8c0-1.5-.7-2.1-2.4-2.1s-2.4.7-2.4 2.1v1.8c0 .2-.1.5-.2.6-.1.1-.1.3 0 .4.2.1.3.4.4.6.2.7.5 1.3 1 1.7.2.2.3.4.3.7v1.1C13.7 26.2 13 27 8 29zM20.6 13.5c-1.3 0-2.5-1-2.6-2.3L17 3c-.1-.7.1-1.5.6-2 .5-.6 1.2-.9 2-.9h4.9c.7 0 1.5.3 2 .9.5.6.8 1.3.7 2.1l-1 8.2c-.2 1.3-1.2 2.2-2.5 2.3l-3.1-.1zM19.6 2c-.2 0-.4.1-.5.2-.1.1-.1.3-.1.5l1 8.2c0 .3.3.6.6.6h2.9c.3 0 .5-.2.6-.6l1-8.2c0-.2 0-.4-.2-.5-.1-.1-.3-.2-.5-.2h-4.8z"/><path class="st0" d="M43 38.2H1c-.6 0-1-.4-1-1v-29c0-.6.4-1 1-1h17.3c.6 0 1 .4 1 1s-.4 1-1 1H2v27h40v-27H25.8c-.6 0-1-.4-1-1s.4-1 1-1H43c.6 0 1 .4 1 1v29c0 .5-.4 1-1 1z"/><path class="st0" d="M37.2 20.8H27.1c-.6 0-1-.4-1-1s.4-1 1-1h10.1c.6 0 1 .4 1 1s-.4 1-1 1zM37.2 25.2H27.1c-.6 0-1-.4-1-1s.4-1 1-1h10.1c.6 0 1 .4 1 1s-.4 1-1 1z"/></svg>
