<svg id="icon-innovation" xmlns="http://www.w3.org/2000/svg" viewBox="0 0 27 43.6"><style>.st0{fill:#C33B32;}</style><path class="st0" d="M22.7 3.6C20 1.2 16.6-.1 13 0 6 .3.3 6 0 13c.1 4.1 1.7 8.1 4.4 11.2.8 1 2.8 3.7 3.3 6-.4.1-.7.5-.7.9v10c0 .6.4 1 1 1h2l1.6 1.3c.2.1.4.2.6.2H15c.2 0 .5-.1.6-.2l1.5-1.3h2.3c.6 0 1-.4 1-1v-10c0-.4-.3-.8-.7-.9.5-2.8 2.9-6 2.9-6 2.7-3.1 4.3-7.1 4.4-11.2v-.1c-.1-3.5-1.7-6.9-4.3-9.3zm-4.3 36.6h-1.7c-.2 0-.5.1-.6.2l-1.5 1.3h-2.1l-1.6-1.3c-.2-.1-.4-.2-.6-.2H9v-8h9.5l-.1 8zM21.1 23c-.1.2-2.9 3.8-3.3 7.2h-8c-.6-3.5-3.7-7.1-3.8-7.3-2.4-2.8-3.8-6.3-3.9-9.9.2-6 5.1-10.8 11-11 3.1-.1 6 1 8.3 3 2.2 2.1 3.6 4.9 3.7 8-.2 3.6-1.6 7.2-4 10z"/><path class="st0" d="M19.3 14c-1.8-1.7-4.5-.1-5.7 1.5-1.4-1.9-5.4-3.6-6.4-.4-.9 2.9 2.5 6.4 5.4 5.7V30c0 .6-.1 1.2.5 1.5.9.5 1.5-.4 1.5-1.1.1-1.6 0-3.3 0-5v-4.6c3 .7 7.4-4.1 4.7-6.8-.7-.6 1.2 1.2 0 0zm-7 4.8c-1.1 1.1-4.3-2.1-3.2-3.3 1.1-1.3 4.4 2.1 3.2 3.3zm4.8-.9c-.4.4-1.8 1.5-2.4.8-.6-.6.2-1.9.6-2.3.4-.5 1.9-1.7 2.6-1 .6.7-.4 2.1-.8 2.5-1 1 1-1 0 0z"/></svg>
