<svg id="icon-addons" xmlns="http://www.w3.org/2000/svg" viewBox="0 0 44 42.6"><style>.st0{fill:#C33B32;}</style><path class="st0" d="M30.4 42.6h-8.9c-.3 0-.5-.1-.7-.3-1-1-.4-2.4.1-3.4.4-.8.8-1.7.8-2.7 0-2.3-2.8-2.5-3.7-2.5-.9 0-3.7.2-3.7 2.5 0 .9.4 1.8.8 2.7.5 1.1 1.2 2.4.1 3.5-.2.2-.4.3-.7.3H3.3c-1.8 0-3.3-1.5-3.3-3.3v-9.8c0-.3.1-.5.3-.7 1-1 2.4-.4 3.4.1.8.4 1.7.8 2.7.8 2.3 0 2.5-2.8 2.5-3.7 0-.6-.1-3.7-2.5-3.7-.9 0-1.9.5-2.7.9-1.1.5-2.4 1.2-3.5.1-.1-.3-.2-.5-.2-.8v-9c0-1.8 1.5-3.3 3.3-3.4h8.2l-.1-.1c-.6-.6-1.8-1.8-1.8-4.3 0-3.7 3.2-5.9 8.6-5.9 5.3 0 8.5 2.2 8.5 5.9 0 2.5-1.1 3.6-1.8 4.3l-.1.1h5.5c1.8 0 3.3 1.5 3.3 3.3v6l.1-.1c.6-.6 1.8-1.8 4.3-1.8 3.7 0 5.9 3.2 5.9 8.5 0 3.2-.8 5.7-2.3 7.2-1 .9-2.2 1.4-3.6 1.4-2.5 0-3.6-1.1-4.3-1.8l-.1-.1v6.3c.2 2-1.3 3.5-3.2 3.5zm-8-2h8c.7 0 1.3-.6 1.3-1.3v-6.5-.2c.2-.9.9-1.7 1.9-1.8.7-.1 1.2.4 1.6.8.5.5 1.2 1.2 2.9 1.2.8 0 1.6-.3 2.2-.8 1.1-1 1.7-3.1 1.7-5.7 0-2-.4-6.5-3.9-6.5-1.7 0-2.4.7-2.9 1.2-.4.4-.9.9-1.6.8-.9-.1-1.7-.8-1.9-1.8v-6.4c0-.7-.6-1.3-1.3-1.3h-5.9c-.9-.2-1.7-.9-1.8-1.9 0-.8.4-1.2.8-1.6.5-.5 1.2-1.2 1.2-2.9 0-3.5-4.6-3.9-6.5-3.9-2 0-6.6.4-6.6 3.9 0 1.7.7 2.4 1.2 2.9.4.4.8.8.8 1.5v.1c-.1.9-.8 1.7-1.8 1.9H3.3c-.7 0-1.3.6-1.3 1.4v8.2c.3-.1.6-.3.8-.4 1-.5 2.1-1.1 3.6-1.1 2.7 0 4.5 2.3 4.5 5.7 0 3.5-1.8 5.7-4.5 5.7-1.4 0-2.6-.6-3.6-1-.3-.1-.6-.3-.8-.4v9c0 .7.6 1.3 1.3 1.3h10.5c-.1-.2-.3-.6-.4-.9-.5-.9-1.1-2.1-1.1-3.5 0-2.7 2.2-4.5 5.7-4.5s5.7 1.8 5.7 4.5c0 1.4-.6 2.6-1 3.6-.1.1-.2.5-.3.7z"/></svg>
