<svg id="icon-action" xmlns="http://www.w3.org/2000/svg" viewBox="0 0 44 36.1"><style>.st0{fill:#C33B32;}</style><path class="st0" d="M20.1 20.4c-.5 0-.9-.3-1-.8-.2-1.5-.4-2.9-.4-4.4 0-8.4 3.7-15 8.4-15 .6 0 1 .4 1 1s-.4 1-1 1H27c-3.5 0-6.4 6-6.4 13 0 1.4.1 2.7.3 4.1.1.5-.3 1.1-.8 1.2.1-.1.1-.1 0-.1zM28.3.1h.8-.8zm-.5 0h.5-.5zm-.2 0h.2-.2zm-.2 0h.2-.2zm1.8 0h.4-.4z"/><path class="st0" d="M42.6 11.5c-.8-3-2.6-5.8-5-7.8C34.7 1.4 31.1.1 27.4 0c-6.1 0-12 3.3-14.6 8.9-.7 1.4-1.1 2.9-1.3 4.4-.1.9-.1 1.8 0 2.8.1.8.1 2.4.7 3.1.6.6 1.5.2 1.7-.6.1-.4-.2-1-.3-1.5-.1-.6-.2-1.2-.2-1.8h5.3c0 1.1.1 2.3.3 3.3.1.5.1 1.2.6 1.5.5.2 1.1 0 1.3-.4.3-.6 0-1.5-.1-2.1-.1-.8-.1-1.5-.1-2.3h5.5V19c0 .6-.2 1.8.2 2.3.7.8 1.7.2 1.8-.7v-5.4h5.5v.8c-.1 1.7-.4 3.3-.8 5-.3 1.5 1.4 2 1.9.6.7-1.9.9-4.1.9-6.3H41c0 .5-.1 1-.1 1.6-.1.8-.9 2.2-.5 3s1.4.7 1.8 0c.6-.9.7-2.4.8-3.4.2-1.6 0-3.3-.4-5zm-4.3-4.1h-3.8c-.5-1.6-1.2-3-2.2-4.3 2.4.8 4.5 2.3 6 4.3zm-5.9 0h-4.2V2.3c2.2.6 3.5 3 4.2 5.1zm-6.2-5.1v5.1H22c0-.1 0-.1.1-.2.8-1.9 2-4.3 4.1-4.9zm-4.1.7c-1 1.3-1.7 2.8-2.3 4.4h-3.7c1.6-2 3.7-3.5 6-4.4zm-7.8 7.6l.6-1.2h4.5c-.3 1.3-.5 2.7-.5 4.1h-5.3c.1-1 .3-2 .7-2.9zm6.5 2.9c.1-1.4.3-2.8.6-4.1h4.8v4.1h-5.4zm7.4-3.1v-1H33c.3 1.3.6 2.7.6 4.1h-5.4v-3.1zm7.3 1.3c-.1-.8-.2-1.6-.4-2.4h4.5s0 .1.1.1c.6 1.2 1.1 2.6 1.2 4h-5.3c0-.5 0-1.1-.1-1.7zM31.1.1h.2-.2zm-1.2 0h.9-.9zm.9 0zm-1.2 0h.3-.3zm-3.9 36c-2.7 0-5.4-.5-8-1.3-1.1-.3-2.2-.8-3.3-1.2-1.2-.5-1.8-.9-3.1-.7-1.2.2-2.3.6-3.5.9-1.2.4-2.5 1-3.8.9-2-.2-2.7-1.8-3.2-3.5-.4-1.6-1.2-3.7-.5-5.3.8-2 3-2.1 4.8-2.4 4.1-.7 8.4-1.4 12.5-1 2.2.2 4.3 1 6.5 1.7 2.1.7 4.3 1.3 6.4 2l.6.3c.2.1.8.7 1 .8.2 0 .7-.3.9-.4l3.6-1.8c.9-.4 1.7-.9 2.6-1.3 1.7-.8 3.6-.3 4.4 1.5.4.9.5 2 .2 2.9-.4 1.1-1.3 1.7-2.4 2.2-2.4 1.2-4.9 2.4-7.3 3.6-1.4.7-2.9 1.5-4.5 1.8-1.2.3-2.6.3-3.9.3-4.4 0 4.3 0 0 0zm-13.5-5.2c1.7 0 3.2 1.1 4.7 1.6 1.7.6 3.6 1.1 5.4 1.3 2.1.3 4.4.5 6.6.1 1.9-.4 3.7-1.4 5.4-2.2 1.5-.7 3-1.5 4.5-2.2 1.1-.5 3.3-1.1 3.2-2.6-.1-1.1-.9-1.6-1.9-1.2-.5.2-.9.4-1.4.7-1.7.8-3.3 1.6-5 2.4-.2.1-.6.2-.7.3-.2.2-.1.1-.2.5-.1 1.5-.9 3-2.5 3.4-1.2.3-2.7-.4-3.9-.7-1.8-.6-3.7-1.2-5.5-1.7-1-.3-2.2-.5-3.2-1-1.2-.6-.6-2.1.6-1.9.4.1.9.3 1.3.4 1.8.6 3.5 1.1 5.3 1.7 1.3.4 2.7.9 4 1.3 1 .3 1.8-.4 1.8-1.4 0-.8-.5-1.2-1.2-1.4-3.1-1-6.2-2-9.3-2.9-4.4-1.4-9.3-.6-13.8.1-1.2.2-2.5.3-3.7.7-1.1.4-1 1.4-.8 2.4.2 1.2.4 2.6.9 3.6.8 1.6 3.3.2 4.5-.1 1.8-.7 3.4-1.2 4.9-1.2z"/></svg>
