<svg id="mozilla-wordmark" xmlns="http://www.w3.org/2000/svg" viewBox="0 0 250 65.1"><style>.st0{fill:#FFFFFF;}</style><path class="st0" d="M53.9 21.3c-2-1.7-5.2-2.7-8.6-2.7-4.8 0-8.3 1.6-12.3 5.7-.5-.8-1.1-1.5-1.7-2.1-2.3-2.4-5.3-3.6-8.8-3.6-4 0-7.6 1.5-10.6 4.4-.4-2.2-.8-3.2-1.5-4.4L0 21.4c1.2 2.1 1.6 4.9 1.6 11.1v30.3h11.1V31.2c2.5-2.2 5.4-3.3 7.5-3.3 3.1 0 3.9 1.3 3.9 6.7v28.3h10.8V31.6c2.5-2.2 5.4-3.6 7.6-3.6 3 0 3.6 1 3.6 6.2v28.7h11v-31c0-5.9-.8-8.5-3.2-10.6zM83 18.5c-11.7 0-19.5 9.1-19.5 22.8 0 13.7 7.7 22.5 19.5 22.5 6.7 0 11-2.3 14.4-6 3.7-4.2 5.4-9.3 5.4-16.8 0-7-1.5-11.8-5-15.9-3.8-4.5-8.6-6.6-14.8-6.6zm.3 37.1c-2.2 0-4.8-1.2-5.8-3.6-.9-2.2-1.4-5.9-1.4-11 0-4.3.4-7.4 1.2-9.7.9-2.7 3.1-4.4 5.9-4.4 2 0 3.8.9 4.9 2.3 1.5 2 2.3 5.8 2.3 11.6 0 10.3-2.1 14.8-7.1 14.8zM139.4 27.2v-7.8h-32.3v8h18.8l-20.5 28.4v7.1h32l2.8-7.9h-20zM145.9 62.9h11.4V18.4l-11.4 1.7zM151.8.3c-3.9 0-7.1 3.1-7.1 7.1 0 3.9 3.1 7 7 7s7.1-3.1 7.1-7c-.1-3.9-3.2-7.1-7-7.1zM181.1 56.1c-.9 0-1.9-.4-2.3-1.2-.7-1.2-.8-2.2-.8-9.7V11.3c0-6.1-.2-8.9-.6-11.3l-11.6 2.6c.4 3.9.6 7.4.6 13.1v32.5c0 6.2.2 7.6 1 9.8 1.4 3.7 5.3 5.9 10.1 5.9 2.5 0 4.8-.4 6.8-1.2l-2-6.8c-.5.2-.8.2-1.2.2zM204.7 56.1c-.9 0-1.9-.4-2.3-1.2-.7-1.2-.8-2.2-.8-9.7V11.3c0-6.1-.2-8.9-.6-11.3l-11.6 2.6c.4 3.9.6 7.4.6 13.1v32.5c0 6.2.2 7.6 1 9.8 1.4 3.7 5.3 5.9 10.1 5.9 2.5 0 4.8-.4 6.8-1.2l-2-6.8c-.5.2-.8.2-1.2.2zM245.9 49.2v-.8l.3-14.6c.1-4.7-.2-6-.8-7.8-1.7-4.8-6.7-7.6-14-7.6-4 0-7.6.8-11.9 2.5-3.1 1.3-4.8 2.1-7.1 3.6l4.8 8.2c4.7-3.1 8.9-4.9 12.6-4.9 4.2 0 5.1 1.6 5.1 6.5V36c-.9-.1-1.7-.1-2.5-.1-13.8 0-20.9 4.8-20.9 15 0 8.7 5.3 13.6 15 13.6 3.6 0 6.6-.9 8.7-2.4.9-.6 1.8-1.4 2.6-2.3 1.1 2.2 3.5 4.2 6.1 5.3l6-7c-3.2-2.5-4-4.2-4-8.9zm-11.3 4c-1.7 1.9-3.8 3-5.9 3-2.9 0-5-2.3-5-5.7 0-5.2 2.7-6.6 10.6-6.6h.5l-.2 9.3z"/></svg>
