<svg xmlns="http://www.w3.org/2000/svg" width="554" height="288" fill="none" viewBox="0 0 554 288"><path fill="#A77FFA" d="m201.928 63.123-25.35.025-.866-13.523 30.038.363-3.822 13.135Z"/><path fill="#A77FFA" stroke="#333336" stroke-linecap="round" stroke-linejoin="round" stroke-width="1.125" d="M181.296 75.224a3.594 3.594 0 1 0 0-7.188 3.594 3.594 0 0 0 0 7.188ZM198.677 75.224a3.594 3.594 0 1 0 .001-7.189 3.594 3.594 0 0 0-.001 7.19Z"/><path stroke="#333336" stroke-linecap="round" stroke-linejoin="round" stroke-width="1.125" d="m170.778 44.556 4.432.261 1.367 18.33 25.35-.026 3.822-13.134-30.038-.363M198.893 68.043l-18.302-.053a4.2 4.2 0 0 1-3.96-4.427"/><path fill="#FF7139" stroke="#333336" stroke-width="1.908" d="M45.444 82.715h507.555v193.489c0 5.891-4.775 10.667-10.666 10.667H56.11c-5.89 0-10.666-4.776-10.666-10.667V82.714Z"/><path fill="#FF7139" stroke="#333336" stroke-width="1.908" d="M45.444 55.221c0-5.89 4.775-10.666 10.666-10.666h486.223c5.891 0 10.666 4.775 10.666 10.666v27.556H45.444V55.22Z"/><circle cx="68.817" cy="64.112" r="6.201" stroke="#333336" stroke-width="1.908"/><circle cx="90.945" cy="64.112" r="6.201" stroke="#333336" stroke-width="1.908"/><circle cx="113.841" cy="64.112" r="6.201" stroke="#333336" stroke-width="1.908"/><path fill="#A77FFA" d="m187.706 48.9-25.35.026-.866-13.523 30.038.363-3.822 13.135Z"/><path fill="#A77FFA" stroke="#333336" stroke-linecap="round" stroke-linejoin="round" stroke-width="1.125" d="M167.074 61.002a3.594 3.594 0 1 0 0-7.188 3.594 3.594 0 0 0 0 7.188ZM184.455 61.002a3.594 3.594 0 1 0 .001-7.188 3.594 3.594 0 0 0-.001 7.188Z"/><path stroke="#333336" stroke-linecap="round" stroke-linejoin="round" stroke-width="1.125" d="m156.556 30.334 4.432.262 1.367 18.33 25.35-.026 3.822-13.135-30.038-.363M184.671 53.821l-18.302-.053a4.2 4.2 0 0 1-3.96-4.427"/><path fill="#FFAB5B" stroke="#333336" stroke-width="1.908" d="M31.222 68.494h507.556v193.489c0 5.891-4.776 10.667-10.667 10.667H41.889c-5.891 0-10.667-4.776-10.667-10.667V68.494Z"/><path fill="#FFAB5B" stroke="#333336" stroke-width="1.908" d="M31.222 41c0-5.89 4.776-10.666 10.666-10.666h486.223c5.891 0 10.666 4.776 10.666 10.667v27.555H31.222V41.001Z"/><circle cx="54.595" cy="49.89" r="6.201" stroke="#333336" stroke-width="1.908"/><circle cx="76.724" cy="49.89" r="6.201" stroke="#333336" stroke-width="1.908"/><circle cx="99.619" cy="49.89" r="6.201" stroke="#333336" stroke-width="1.908"/><path fill="#A77FFA" d="m172.595 35.567-25.35.025-.866-13.523 30.038.363-3.822 13.135Z"/><path fill="#A77FFA" stroke="#333336" stroke-linecap="round" stroke-linejoin="round" stroke-width="1.125" d="M151.963 47.667a3.594 3.594 0 1 0 0-7.188 3.594 3.594 0 0 0 0 7.188ZM169.345 47.667a3.594 3.594 0 1 0 0-7.188 3.594 3.594 0 0 0 0 7.188Z"/><path stroke="#333336" stroke-linecap="round" stroke-linejoin="round" stroke-width="1.125" d="m141.445 17 4.433.262 1.367 18.33 25.349-.026 3.823-13.135-30.039-.363M169.56 40.487l-18.301-.053a4.204 4.204 0 0 1-3.96-4.427"/><path fill="#FFEA80" stroke="#333336" stroke-width="1.908" d="M16.11 55.161h507.556V248.65c0 5.891-4.776 10.667-10.667 10.667H26.777c-5.891 0-10.667-4.776-10.667-10.667V55.161Z"/><path fill="#FFEA80" stroke="#333336" stroke-width="1.908" d="M16.112 27.668C16.112 21.777 20.887 17 26.778 17h486.223c5.891 0 10.666 4.776 10.666 10.667v27.555H16.112V27.668Z"/><circle cx="39.484" cy="36.557" r="6.201" stroke="#333336" stroke-width="1.908"/><circle cx="61.613" cy="36.557" r="6.201" stroke="#333336" stroke-width="1.908"/><circle cx="84.509" cy="36.557" r="6.201" stroke="#333336" stroke-width="1.908"/><path fill="#A77FFA" d="m157.483 20.456-25.349.025-.867-13.523 30.039.363-3.823 13.135Z"/><path fill="#A77FFA" stroke="#333336" stroke-linecap="round" stroke-linejoin="round" stroke-width="1.125" d="M136.851 32.557a3.594 3.594 0 1 0 .001-7.189 3.594 3.594 0 0 0-.001 7.19ZM154.233 32.557a3.594 3.594 0 1 0 .001-7.189 3.594 3.594 0 0 0-.001 7.19Z"/><path stroke="#333336" stroke-linecap="round" stroke-linejoin="round" stroke-width="1.125" d="m126.333 1.889 4.433.261 1.367 18.33 25.349-.026 3.823-13.134-30.039-.363M154.449 25.376l-18.302-.053a4.2 4.2 0 0 1-3.96-4.428"/><path fill="#F8F6F4" stroke="#333336" stroke-width="1.908" d="M1 40.049h507.555v193.489c0 5.891-4.775 10.667-10.666 10.667H11.666C5.776 244.205 1 239.429 1 233.538V40.048Z"/><path fill="#F8F6F4" stroke="#333336" stroke-width="1.908" d="M1 12.555C1 6.665 5.776 1.89 11.667 1.89h486.222c5.891 0 10.667 4.775 10.667 10.666v27.556H1V12.555Z"/><circle cx="24.373" cy="21.446" r="6.201" stroke="#333336" stroke-width="1.908"/><circle cx="46.501" cy="21.446" r="6.201" stroke="#333336" stroke-width="1.908"/><circle cx="69.397" cy="21.446" r="6.201" stroke="#333336" stroke-width="1.908"/><path fill="#E3E3E3" d="M78 74.914h355v35.585H78z"/><path fill="#F0F0F0" d="M78 118.124h355v11.014H78zM78 136.764h307.554v11.014H78zM188.143 155.403H433v11.862H188.143z"/><path fill="#E3E3E3" d="M78 155.403h96.587v51.683H78z"/><path fill="#F0F0F0" d="M188.143 174.891h225.37v11.014h-225.37zM188.143 196.071H389.79v11.014H188.143z"/><path fill="#F4783B" stroke="#333336" stroke-width="2" d="M301.29 114.714s-3.758 3.567-6.238 3.567a8.503 8.503 0 0 1-6.974-3.628 8.506 8.506 0 0 1-6.975 3.628c-4.555 0-8.268-3.567-8.508-8.068a8.536 8.536 0 0 1-3.232.632c-4.705 0-8.523-3.824-8.523-8.536 0-.647.075-1.279.211-1.881-18.113 4.576-31.537 20.999-31.537 40.569 0 23.092 18.685 41.804 41.743 41.804 23.059 0 41.743-18.712 41.743-41.804a41.654 41.654 0 0 0-10.312-27.503l-1.398 1.22Z"/><path fill="#333336" d="M251.266 127.388a4.468 4.468 0 0 0 4.464-4.471 4.468 4.468 0 0 0-4.464-4.471 4.468 4.468 0 0 0-4.465 4.471 4.468 4.468 0 0 0 4.465 4.471ZM266.311 145.769a3.175 3.175 0 0 0 3.172-3.177 3.184 3.184 0 0 0-3.172-3.176 3.184 3.184 0 0 0-3.172 3.176 3.184 3.184 0 0 0 3.172 3.177ZM244.515 150.105a3.968 3.968 0 0 0 3.969-3.975 3.968 3.968 0 1 0-7.937 0 3.968 3.968 0 0 0 3.968 3.975ZM288.844 137.294a5.403 5.403 0 0 0 0-7.632 5.383 5.383 0 0 0-7.621 0 5.403 5.403 0 0 0 0 7.632 5.384 5.384 0 0 0 7.621 0ZM295.714 152.483a3.454 3.454 0 0 0 3.443-3.447 3.454 3.454 0 0 0-3.443-3.447 3.453 3.453 0 0 0-3.442 3.447 3.453 3.453 0 0 0 3.442 3.447ZM266.944 172.022a4.42 4.42 0 0 0 4.419-4.425 4.41 4.41 0 0 0-4.419-4.426 4.411 4.411 0 0 0-4.42 4.426 4.411 4.411 0 0 0 4.42 4.425Z"/><circle cx="271" cy="141" r="65.5" stroke="#333336" stroke-width="7"/><path stroke="#333336" stroke-width="7" d="m226.475 91.525 94 94"/></svg>
