<svg width="299" height="168" fill="none" xmlns="http://www.w3.org/2000/svg"><g clip-path="url(#a)"><rect x=".758" y=".66" width="297.58" height="166.825" rx="8.444" fill="#E7DFFF"/><g filter="url(#b)"><g clip-path="url(#c)"><path d="M32.758 36.887a4.227 4.227 0 0 1 4.227-4.227h275.646v100.733H36.985a4.227 4.227 0 0 1-4.227-4.227V36.887Z" fill="#fff"/><rect x="36.985" y="36.887" width="52" height="34" rx="4.227" fill="#F0F0F4"/><path fill-rule="evenodd" clip-rule="evenodd" d="M49.39 48.401a7.328 7.328 0 0 0-4.129 3.615 7.216 7.216 0 0 0-.634 1.833 7.31 7.31 0 0 0 .63 4.712 7.351 7.351 0 0 0 1.979 2.432 7.257 7.257 0 0 0 2.647 1.336c1.214.325 2.507.317 3.729.04a6.612 6.612 0 0 0 2.984-1.552c.882-.81 1.512-1.876 1.845-3.023.364-1.25.411-2.586.184-3.87h-6.854v2.843h3.972a3.431 3.431 0 0 1-1.457 2.252 4.172 4.172 0 0 1-1.606.635 4.808 4.808 0 0 1-1.74-.004 4.314 4.314 0 0 1-1.62-.701 4.505 4.505 0 0 1-1.67-2.237 4.421 4.421 0 0 1 0-2.835c.22-.643.58-1.234 1.058-1.72a4.321 4.321 0 0 1 2.178-1.21 4.347 4.347 0 0 1 2.139.086 3.922 3.922 0 0 1 1.57.925l1.34-1.34c.235-.239.481-.47.709-.717a7.106 7.106 0 0 0-2.347-1.453 7.354 7.354 0 0 0-4.907-.047Z" fill="#fff"/><path fill-rule="evenodd" clip-rule="evenodd" d="M49.39 48.401a7.377 7.377 0 0 1 4.908.043 7.08 7.08 0 0 1 2.346 1.453c-.227.247-.474.478-.71.717l-1.339 1.34a3.967 3.967 0 0 0-1.57-.925 4.302 4.302 0 0 0-2.139-.086 4.354 4.354 0 0 0-2.178 1.21 4.521 4.521 0 0 0-1.057 1.72c-.795-.619-1.59-1.234-2.39-1.853a7.32 7.32 0 0 1 4.129-3.619Z" fill="#EA4335"/><path fill-rule="evenodd" clip-rule="evenodd" d="M44.631 53.845c.13-.634.341-1.253.635-1.833.795.62 1.59 1.234 2.389 1.853a4.395 4.395 0 0 0 0 2.836c-.795.619-1.59 1.237-2.385 1.852a7.249 7.249 0 0 1-.639-4.708Z" fill="#FBBC05"/><path fill-rule="evenodd" clip-rule="evenodd" d="M51.772 53.92h6.854a8.615 8.615 0 0 1-.184 3.87c-.333 1.147-.964 2.212-1.845 3.023l-2.315-1.797a3.431 3.431 0 0 0 1.457-2.253h-3.971c.004-.947.004-1.895.004-2.843Z" fill="#4285F4"/><path fill-rule="evenodd" clip-rule="evenodd" d="M45.262 58.557c.795-.615 1.59-1.234 2.385-1.852a4.527 4.527 0 0 0 1.669 2.236 4.34 4.34 0 0 0 1.621.701 4.718 4.718 0 0 0 1.74.004 4.17 4.17 0 0 0 1.605-.635c.772.6 1.543 1.2 2.315 1.798-.835.772-1.88 1.297-2.985 1.551-1.222.279-2.514.286-3.729-.039a7.199 7.199 0 0 1-2.647-1.335 7.336 7.336 0 0 1-1.974-2.429Z" fill="#34A853"/><path d="m74.905 58.61 4.146-4.145a.474.474 0 1 0-.672-.67l-3.743 3.742-3.74-3.742a.475.475 0 0 0-.67.671l4.145 4.145h.534Z" fill="#000"/><path d="M98.65 58.977v-9.992h1.21v8.919h4.645v1.073H98.65Zm10.715.156c-.722 0-1.345-.159-1.869-.478a3.212 3.212 0 0 1-1.205-1.346c-.28-.58-.42-1.253-.42-2.02 0-.768.14-1.444.42-2.03a3.312 3.312 0 0 1 1.181-1.376c.507-.332 1.099-.497 1.776-.497.39 0 .775.065 1.156.195.381.13.727.341 1.039.634.312.29.561.673.747 1.151.185.479.278 1.067.278 1.767v.487h-5.777v-.995h4.606c0-.423-.085-.8-.254-1.132a1.912 1.912 0 0 0-.712-.785c-.306-.192-.667-.288-1.083-.288-.459 0-.856.114-1.191.341a2.246 2.246 0 0 0-.766.879 2.578 2.578 0 0 0-.268 1.16v.664c0 .566.097 1.046.293 1.44.198.39.473.688.824.893.351.201.76.302 1.225.302.302 0 .575-.042.819-.127.248-.088.461-.218.64-.39.178-.176.317-.394.414-.654l1.113.312a2.46 2.46 0 0 1-.591.996 2.876 2.876 0 0 1-1.024.663 3.802 3.802 0 0 1-1.371.234Zm10.163-5.972-1.035.293a1.918 1.918 0 0 0-.288-.502 1.387 1.387 0 0 0-.507-.41c-.215-.108-.489-.161-.824-.161-.459 0-.841.106-1.147.317-.303.208-.454.473-.454.795 0 .286.104.513.312.678.209.166.534.305.976.415l1.113.273c.67.163 1.169.412 1.498.747.328.332.492.76.492 1.283 0 .43-.123.813-.371 1.151-.243.339-.585.605-1.024.8-.439.196-.95.293-1.532.293-.764 0-1.397-.166-1.898-.497-.501-.332-.818-.817-.951-1.454l1.092-.273c.105.403.301.705.591.907.293.202.675.303 1.146.303.537 0 .963-.114 1.279-.342.318-.23.478-.507.478-.83a.872.872 0 0 0-.273-.653c-.183-.18-.462-.312-.84-.4l-1.249-.293c-.686-.163-1.19-.415-1.512-.756-.319-.345-.478-.776-.478-1.293 0-.423.118-.797.356-1.122.241-.326.568-.58.981-.766a3.443 3.443 0 0 1 1.415-.278c.741 0 1.323.162 1.746.487.426.326.729.755.908 1.288Zm5.012 5.972c-.722 0-1.345-.159-1.869-.478a3.212 3.212 0 0 1-1.205-1.346c-.28-.58-.42-1.253-.42-2.02 0-.768.14-1.444.42-2.03.283-.589.676-1.047 1.181-1.376.507-.332 1.099-.497 1.776-.497.39 0 .775.065 1.156.195.38.13.727.341 1.039.634.312.29.561.673.747 1.151.185.479.278 1.067.278 1.767v.487h-5.777v-.995h4.606c0-.423-.085-.8-.254-1.132a1.912 1.912 0 0 0-.712-.785c-.306-.192-.667-.288-1.083-.288-.459 0-.856.114-1.191.341a2.246 2.246 0 0 0-.766.879 2.578 2.578 0 0 0-.268 1.16v.664c0 .566.097 1.046.292 1.44.199.39.474.688.825.893.351.201.76.302 1.225.302.302 0 .575-.042.819-.127a1.74 1.74 0 0 0 .639-.39c.179-.176.318-.394.415-.654l1.113.312a2.46 2.46 0 0 1-.591.996 2.876 2.876 0 0 1-1.024.663 3.802 3.802 0 0 1-1.371.234Zm4.64-.156V58.1l4.254-5.464v-.078h-4.118v-1.074h5.601v.917l-4.137 5.426v.078h4.274v1.073h-5.874Zm10.575.156c-.722 0-1.345-.159-1.869-.478a3.212 3.212 0 0 1-1.205-1.346c-.28-.58-.42-1.253-.42-2.02 0-.768.14-1.444.42-2.03a3.312 3.312 0 0 1 1.181-1.376c.507-.332 1.099-.497 1.776-.497.39 0 .775.065 1.156.195.381.13.727.341 1.039.634.313.29.561.673.747 1.151.185.479.278 1.067.278 1.767v.487h-5.777v-.995h4.606c0-.423-.085-.8-.254-1.132a1.912 1.912 0 0 0-.712-.785c-.306-.192-.667-.288-1.083-.288-.459 0-.856.114-1.191.341a2.246 2.246 0 0 0-.766.879 2.578 2.578 0 0 0-.268 1.16v.664c0 .566.097 1.046.293 1.44.198.39.473.688.824.893.351.201.76.302 1.225.302.302 0 .576-.042.819-.127.248-.088.461-.218.64-.39.179-.176.317-.394.414-.654l1.113.312a2.46 2.46 0 0 1-.591.996 2.876 2.876 0 0 1-1.024.663 3.802 3.802 0 0 1-1.371.234Zm4.854-.156v-7.494h1.152v7.494h-1.152Zm.586-8.743a.82.82 0 0 1-.581-.23.738.738 0 0 1-.239-.55c0-.215.08-.399.239-.552a.82.82 0 0 1 .581-.23c.224 0 .416.077.576.23a.732.732 0 0 1 .244.551.732.732 0 0 1-.244.552.804.804 0 0 1-.576.23Zm5.719 8.9c-.702 0-1.307-.166-1.815-.498a3.252 3.252 0 0 1-1.171-1.371c-.273-.583-.409-1.248-.409-1.996 0-.76.139-1.433.419-2.015a3.318 3.318 0 0 1 1.181-1.37c.507-.333 1.099-.498 1.776-.498.527 0 1.002.097 1.424.292.423.196.77.469 1.04.82s.437.761.502 1.23h-1.151c-.088-.342-.283-.645-.586-.908-.299-.267-.702-.4-1.21-.4a2.02 2.02 0 0 0-1.18.351c-.335.231-.597.558-.786.98-.185.42-.278.913-.278 1.48 0 .578.091 1.082.273 1.512.186.43.446.762.781 1 .338.237.735.356 1.19.356.3 0 .571-.052.815-.156a1.68 1.68 0 0 0 .62-.449c.169-.195.289-.43.361-.703h1.151c-.065.443-.226.841-.483 1.196a2.69 2.69 0 0 1-1.01.839c-.416.205-.901.307-1.454.307Zm5.782-4.665v4.508h-1.151v-9.992h1.151v3.67h.098c.175-.388.439-.695.79-.923.354-.231.826-.346 1.415-.346.511 0 .958.102 1.342.307.383.202.681.512.892.932.215.416.322.946.322 1.59v4.762h-1.151v-4.684c0-.595-.155-1.055-.464-1.38-.305-.329-.73-.493-1.273-.493-.377 0-.716.08-1.015.239-.296.16-.53.392-.702.698-.169.305-.254.676-.254 1.112Zm10.108 4.664c-.722 0-1.345-.159-1.869-.478a3.212 3.212 0 0 1-1.205-1.346c-.279-.58-.419-1.253-.419-2.02 0-.768.14-1.444.419-2.03a3.312 3.312 0 0 1 1.181-1.376c.507-.332 1.099-.497 1.776-.497.39 0 .776.065 1.156.195.381.13.727.341 1.039.634.313.29.562.673.747 1.151.185.479.278 1.067.278 1.767v.487h-5.777v-.995h4.606c0-.423-.084-.8-.254-1.132a1.905 1.905 0 0 0-.712-.785c-.306-.192-.667-.288-1.083-.288-.459 0-.856.114-1.191.341a2.254 2.254 0 0 0-.766.879 2.591 2.591 0 0 0-.268 1.16v.664c0 .566.098 1.046.293 1.44.198.39.473.688.824.893.352.201.76.302 1.225.302.303 0 .576-.042.82-.127.247-.088.46-.218.639-.39.179-.176.317-.394.415-.654l1.112.312a2.47 2.47 0 0 1-.59.996 2.88 2.88 0 0 1-1.025.663 3.802 3.802 0 0 1-1.371.234Zm6.006-4.664v4.508h-1.151v-7.494h1.112v1.171h.098c.175-.38.442-.686.8-.917.358-.234.819-.351 1.385-.351.508 0 .952.104 1.332.312.381.205.677.517.888.937.212.416.318.943.318 1.58v4.762h-1.152v-4.684c0-.588-.153-1.047-.459-1.375-.305-.332-.725-.498-1.258-.498-.368 0-.696.08-.986.239-.286.16-.512.392-.678.698-.166.305-.249.676-.249 1.112Z" fill="#15141A"/><rect x="36.985" y="81.81" width="221" height="34" rx="4.227" fill="#F0F0F4"/><path d="m52.228 94.15-6.38.925-.113.023a1 1 0 0 0-.44 1.684l4.622 4.499-1.09 6.355-.013.11a1.001 1.001 0 0 0 1.464.944l5.706-3 5.693 3 .1.046a1.002 1.002 0 0 0 1.303-.579c.062-.166.08-.346.05-.521l-1.092-6.355 4.624-4.5.078-.085a1 1 0 0 0-.633-1.62l-6.38-.926-2.852-5.78a1 1 0 0 0-1.794 0l-2.853 5.78Z" fill="#000"/><path d="M76.18 103.31v-9.68h1.73v8.224h4.435v1.456H76.18Zm10.666.148c-.729 0-1.355-.155-1.878-.463a3.088 3.088 0 0 1-1.201-1.315c-.282-.568-.423-1.241-.423-2.02v-.006c0-.77.139-1.44.416-2.013a3.136 3.136 0 0 1 1.194-1.328c.515-.317 1.119-.476 1.812-.476.697 0 1.297.154 1.798.463a3.03 3.03 0 0 1 1.167 1.28c.273.551.41 1.195.41 1.933v.55h-5.958v-1.12h5.139l-.792 1.046v-.664c0-.487-.074-.892-.221-1.214a1.6 1.6 0 0 0-.617-.725 1.682 1.682 0 0 0-.906-.241c-.344 0-.65.085-.92.255a1.72 1.72 0 0 0-.63.738c-.152.322-.228.718-.228 1.187v.671c0 .452.076.839.228 1.161.152.317.367.563.644.738.282.17.615.255 1 .255.3 0 .557-.043.771-.128a1.79 1.79 0 0 0 .53-.315c.134-.125.228-.244.282-.356l.02-.047h1.583l-.013.061a2.435 2.435 0 0 1-.322.724c-.152.242-.36.468-.624.678-.26.205-.577.373-.953.503a4.145 4.145 0 0 1-1.308.188Zm7.735 0c-.621 0-1.158-.088-1.61-.262-.447-.179-.8-.425-1.06-.738a2.089 2.089 0 0 1-.463-1.1v-.014h1.657l.007.014c.09.255.257.463.503.624.246.161.577.241.993.241.277 0 .521-.038.731-.114.21-.08.376-.19.497-.328.12-.139.18-.3.18-.483v-.014a.668.668 0 0 0-.26-.537c-.175-.147-.464-.266-.866-.355l-1.188-.268c-.465-.103-.85-.246-1.153-.43a1.875 1.875 0 0 1-.685-.677 1.918 1.918 0 0 1-.221-.94v-.006c0-.443.123-.832.369-1.168.25-.335.597-.597 1.04-.785.442-.187.952-.281 1.53-.281.594 0 1.106.09 1.536.268.429.179.764.425 1.006.738.241.313.38.669.416 1.067v.013h-1.57l-.007-.02c-.062-.233-.212-.43-.45-.59-.232-.166-.545-.249-.938-.249-.246 0-.468.038-.665.114a1.083 1.083 0 0 0-.456.322.74.74 0 0 0-.16.477v.007c0 .143.035.268.106.375a.937.937 0 0 0 .356.282c.161.08.374.152.637.215l1.188.261c.72.161 1.252.4 1.596.718.345.318.517.745.517 1.281v.014c0 .465-.134.872-.402 1.221-.269.349-.638.621-1.107.818-.47.193-1.004.289-1.604.289Zm7.937 0c-.729 0-1.356-.155-1.879-.463a3.087 3.087 0 0 1-1.2-1.315c-.282-.568-.423-1.241-.423-2.02v-.006c0-.77.138-1.44.416-2.013a3.132 3.132 0 0 1 1.194-1.328c.514-.317 1.118-.476 1.811-.476.698 0 1.297.154 1.798.463.505.304.894.73 1.167 1.28.273.551.41 1.195.41 1.933v.55h-5.958v-1.12h5.139l-.792 1.046v-.664c0-.487-.073-.892-.221-1.214a1.6 1.6 0 0 0-.617-.725 1.683 1.683 0 0 0-.906-.241c-.344 0-.651.085-.919.255a1.714 1.714 0 0 0-.63.738c-.153.322-.229.718-.229 1.187v.671c0 .452.076.839.229 1.161.152.317.366.563.644.738.281.17.614.255.999.255.3 0 .557-.043.772-.128.219-.089.395-.194.53-.315.134-.125.228-.244.281-.356l.02-.047h1.584l-.014.061a2.422 2.422 0 0 1-.322.724c-.152.242-.36.468-.624.678a3.222 3.222 0 0 1-.952.503 4.147 4.147 0 0 1-1.308.188Zm4.796-.148v-1.02l3.911-4.904v-.114h-3.877v-1.294h5.85v1.113l-3.771 4.817v.114h3.831v1.288h-5.944Zm10.781.148c-.729 0-1.355-.155-1.878-.463a3.089 3.089 0 0 1-1.201-1.315c-.282-.568-.423-1.241-.423-2.02v-.006c0-.77.139-1.44.416-2.013a3.138 3.138 0 0 1 1.194-1.328c.515-.317 1.118-.476 1.812-.476.697 0 1.297.154 1.797.463.506.304.895.73 1.168 1.28.273.551.409 1.195.409 1.933v.55h-5.957v-1.12h5.139l-.792 1.046v-.664c0-.487-.074-.892-.221-1.214a1.602 1.602 0 0 0-.618-.725 1.68 1.68 0 0 0-.905-.241c-.345 0-.651.085-.919.255a1.716 1.716 0 0 0-.631.738c-.152.322-.228.718-.228 1.187v.671c0 .452.076.839.228 1.161.152.317.367.563.644.738a1.9 1.9 0 0 0 1 .255c.299 0 .556-.043.771-.128.219-.089.396-.194.53-.315.134-.125.228-.244.282-.356l.02-.047h1.583l-.013.061a2.448 2.448 0 0 1-.322.724c-.152.242-.36.468-.624.678-.26.205-.577.373-.953.503a4.143 4.143 0 0 1-1.308.188Zm4.985-.148v-7.332h1.663v7.332h-1.663Zm.838-8.56a.972.972 0 0 1-.704-.289.931.931 0 0 1-.295-.69c0-.278.098-.51.295-.698a.972.972 0 0 1 .704-.289.95.95 0 0 1 .698.289c.197.188.295.42.295.697a.931.931 0 0 1-.295.691.95.95 0 0 1-.698.289Zm6.031 8.708c-.738 0-1.368-.152-1.892-.456a2.988 2.988 0 0 1-1.2-1.315c-.278-.573-.416-1.257-.416-2.053v-.014c0-.791.138-1.469.416-2.032a2.954 2.954 0 0 1 1.2-1.295c.524-.304 1.152-.456 1.885-.456.631 0 1.172.11 1.624.328.456.215.816.515 1.08.9.268.38.434.825.496 1.334v.027h-1.576l-.007-.02a1.524 1.524 0 0 0-.523-.879c-.268-.228-.631-.342-1.087-.342-.38 0-.706.096-.979.289-.269.192-.474.47-.617.831-.144.363-.215.801-.215 1.315v.014c0 .519.071.964.215 1.335.147.367.355.648.623.845.269.192.593.289.973.289.434 0 .783-.099 1.047-.296.268-.196.454-.487.557-.872l.013-.027 1.57-.006-.007.06c-.08.497-.255.933-.523 1.308a2.656 2.656 0 0 1-1.06.879c-.443.206-.975.309-1.597.309Zm4.851-.148V93.14h1.67v3.965h.114c.174-.398.438-.71.792-.933.353-.224.793-.335 1.321-.335.546 0 1.007.107 1.382.322.376.21.66.518.852.925.197.407.295.902.295 1.483v4.743h-1.67v-4.354c0-.572-.121-1.002-.362-1.288-.237-.286-.609-.43-1.114-.43-.331 0-.617.075-.859.222a1.45 1.45 0 0 0-.556.624c-.13.268-.195.586-.195.953v4.273h-1.67Zm11.538.148c-.729 0-1.355-.155-1.878-.463a3.089 3.089 0 0 1-1.201-1.315c-.282-.568-.423-1.241-.423-2.02v-.006c0-.77.139-1.44.416-2.013a3.134 3.134 0 0 1 1.195-1.328c.514-.317 1.118-.476 1.811-.476.698 0 1.297.154 1.798.463.505.304.894.73 1.167 1.28.273.551.409 1.195.409 1.933v.55h-5.957v-1.12h5.139l-.792 1.046v-.664c0-.487-.074-.892-.221-1.214a1.6 1.6 0 0 0-.617-.725 1.685 1.685 0 0 0-.906-.241c-.344 0-.651.085-.919.255a1.722 1.722 0 0 0-.631.738c-.152.322-.228.718-.228 1.187v.671c0 .452.076.839.228 1.161.152.317.367.563.644.738a1.9 1.9 0 0 0 1 .255c.3 0 .557-.043.771-.128.22-.089.396-.194.53-.315.135-.125.228-.244.282-.356l.02-.047h1.584l-.014.061a2.422 2.422 0 0 1-.322.724c-.152.242-.36.468-.624.678a3.222 3.222 0 0 1-.952.503 4.15 4.15 0 0 1-1.309.188Zm4.965-.148v-7.332h1.67v1.127h.114c.175-.398.439-.71.792-.933.353-.224.794-.335 1.321-.335.819 0 1.445.237 1.879.71.434.475.651 1.148.651 2.02v4.743h-1.671v-4.354c0-.572-.121-1.002-.362-1.288-.237-.286-.608-.43-1.114-.43a1.61 1.61 0 0 0-.858.222 1.446 1.446 0 0 0-.557.624c-.13.268-.195.586-.195.953v4.273h-1.67Zm14.705.121c-.608 0-1.138-.152-1.59-.456-.452-.309-.8-.747-1.046-1.315s-.369-1.237-.369-2.006v-.013c0-.779.12-1.45.362-2.013.246-.568.592-1.004 1.04-1.308.451-.309.986-.463 1.603-.463.336 0 .649.053.939.16.291.104.546.251.765.444.224.192.398.42.523.684h.121V93.14h1.664v10.17h-1.664v-1.147h-.121a2.248 2.248 0 0 1-1.281 1.12 2.88 2.88 0 0 1-.946.148Zm.523-1.409c.381 0 .707-.094.98-.282.277-.192.49-.465.637-.818.152-.358.228-.781.228-1.268v-.013c0-.493-.076-.915-.228-1.268a1.815 1.815 0 0 0-.637-.819c-.273-.192-.599-.288-.98-.288-.375 0-.702.096-.979.288-.273.188-.483.46-.631.819-.147.353-.221.775-.221 1.267v.014c0 .492.074.915.221 1.268.148.353.358.626.631.818.273.188.599.282.979.282Zm8.024 1.436c-.546 0-1.004-.105-1.375-.316a2.021 2.021 0 0 1-.839-.932c-.188-.412-.282-.908-.282-1.489v-4.743h1.671v4.36c0 .568.112.995.335 1.282.224.286.588.429 1.094.429.268 0 .505-.04.711-.121.21-.085.384-.206.523-.362.139-.157.244-.345.315-.564a2.44 2.44 0 0 0 .108-.751v-4.273h1.67v7.332h-1.67v-1.114h-.114c-.112.26-.269.486-.47.678a2.107 2.107 0 0 1-.724.436c-.282.099-.6.148-.953.148Zm5.971-.148v-7.332h1.67v1.127h.114c.125-.394.349-.7.671-.92.326-.219.731-.328 1.214-.328.125 0 .248.009.369.027.125.013.228.031.309.053v1.496a3.13 3.13 0 0 0-.409-.067 3.217 3.217 0 0 0-.423-.027c-.371 0-.696.07-.973.208a1.514 1.514 0 0 0-.644.597 1.736 1.736 0 0 0-.228.906v4.26h-1.67Zm8.674.148c-.738 0-1.369-.152-1.892-.456a2.99 2.99 0 0 1-1.201-1.315c-.277-.573-.416-1.257-.416-2.053v-.014c0-.791.139-1.469.416-2.032a2.956 2.956 0 0 1 1.201-1.295c.523-.304 1.152-.456 1.885-.456.631 0 1.172.11 1.624.328.456.215.816.515 1.08.9.268.38.434.825.496 1.334v.027h-1.576l-.007-.02a1.529 1.529 0 0 0-.523-.879c-.269-.228-.631-.342-1.087-.342-.38 0-.707.096-.98.289-.268.192-.474.47-.617.831-.143.363-.215.801-.215 1.315v.014c0 .519.072.964.215 1.335.148.367.356.648.624.845.268.192.593.289.973.289.434 0 .783-.099 1.046-.296.269-.196.454-.487.557-.872l.014-.027 1.569-.006-.006.06a3.05 3.05 0 0 1-.524 1.308 2.65 2.65 0 0 1-1.06.879c-.442.206-.975.309-1.596.309Zm4.85-.148V93.14h1.671v3.965h.114c.174-.398.438-.71.791-.933.354-.224.794-.335 1.322-.335.546 0 1.006.107 1.382.322.376.21.66.518.852.925.197.407.295.902.295 1.483v4.743h-1.67v-4.354c0-.572-.121-1.002-.363-1.288-.237-.286-.608-.43-1.113-.43-.331 0-.618.075-.859.222a1.452 1.452 0 0 0-.557.624c-.13.268-.194.586-.194.953v4.273h-1.671Zm11.17.148c-.622 0-1.158-.088-1.61-.262-.447-.179-.801-.425-1.06-.738a2.09 2.09 0 0 1-.463-1.1v-.014h1.657l.007.014c.089.255.257.463.503.624.246.161.577.241.993.241.277 0 .521-.038.731-.114.21-.08.376-.19.497-.328.12-.139.181-.3.181-.483v-.014a.67.67 0 0 0-.262-.537c-.174-.147-.463-.266-.865-.355l-1.188-.268c-.465-.103-.85-.246-1.154-.43a1.876 1.876 0 0 1-.684-.677 1.914 1.914 0 0 1-.221-.94v-.006c0-.443.123-.832.369-1.168.25-.335.597-.597 1.039-.785.443-.187.953-.281 1.53-.281.595 0 1.107.09 1.536.268.43.179.765.425 1.007.738.241.313.38.669.416 1.067v.013h-1.57l-.007-.02c-.063-.233-.212-.43-.449-.59-.233-.166-.546-.249-.94-.249-.246 0-.467.038-.664.114a1.085 1.085 0 0 0-.456.322.741.741 0 0 0-.161.477v.007c0 .143.036.268.107.375a.938.938 0 0 0 .356.282c.161.08.373.152.637.215l1.188.261c.72.161 1.252.4 1.596.718.345.318.517.745.517 1.281v.014c0 .465-.134.872-.403 1.221-.268.349-.637.621-1.107.818-.469.193-1.004.289-1.603.289Zm7.225 0c-.545 0-1.004-.105-1.375-.316a2.026 2.026 0 0 1-.839-.932c-.187-.412-.281-.908-.281-1.489v-4.743h1.67v4.36c0 .568.112.995.336 1.282.223.286.588.429 1.093.429.268 0 .505-.04.711-.121.21-.085.385-.206.523-.362.139-.157.244-.345.316-.564.071-.223.107-.474.107-.751v-4.273h1.67v7.332h-1.67v-1.114h-.114c-.112.26-.268.486-.47.678a2.098 2.098 0 0 1-.724.436 2.863 2.863 0 0 1-.953.148Zm9.117 0c-.738 0-1.368-.152-1.892-.456a2.988 2.988 0 0 1-1.2-1.315c-.278-.573-.416-1.257-.416-2.053v-.014c0-.791.138-1.469.416-2.032a2.954 2.954 0 0 1 1.2-1.295c.524-.304 1.152-.456 1.886-.456.63 0 1.171.11 1.623.328.456.215.816.515 1.08.9.268.38.434.825.497 1.334v.027h-1.577l-.007-.02a1.524 1.524 0 0 0-.523-.879c-.268-.228-.631-.342-1.087-.342-.38 0-.706.096-.979.289-.269.192-.474.47-.617.831-.144.363-.215.801-.215 1.315v.014c0 .519.071.964.215 1.335.147.367.355.648.624.845.268.192.592.289.972.289.434 0 .783-.099 1.047-.296.268-.196.454-.487.557-.872l.013-.027 1.57-.006-.007.06c-.08.497-.255.933-.523 1.308a2.656 2.656 0 0 1-1.06.879c-.443.206-.975.309-1.597.309Zm4.851-.148V93.14h1.67v3.965h.114c.175-.398.438-.71.792-.933.353-.224.794-.335 1.321-.335.546 0 1.007.107 1.382.322.376.21.66.518.852.925.197.407.295.902.295 1.483v4.743h-1.67v-4.354c0-.572-.121-1.002-.362-1.288-.237-.286-.608-.43-1.114-.43-.331 0-.617.075-.859.222a1.45 1.45 0 0 0-.556.624c-.13.268-.195.586-.195.953v4.273h-1.67Zm11.538.148c-.729 0-1.355-.155-1.878-.463a3.089 3.089 0 0 1-1.201-1.315c-.282-.568-.422-1.241-.422-2.02v-.006c0-.77.138-1.44.415-2.013a3.134 3.134 0 0 1 1.195-1.328c.514-.317 1.118-.476 1.811-.476.698 0 1.297.154 1.798.463.505.304.894.73 1.167 1.28.273.551.409 1.195.409 1.933v.55h-5.957v-1.12h5.139l-.792 1.046v-.664c0-.487-.073-.892-.221-1.214a1.6 1.6 0 0 0-.617-.725 1.685 1.685 0 0 0-.906-.241c-.344 0-.651.085-.919.255a1.722 1.722 0 0 0-.631.738c-.152.322-.228.718-.228 1.187v.671c0 .452.076.839.228 1.161.152.317.367.563.644.738a1.9 1.9 0 0 0 1 .255c.3 0 .557-.043.772-.128.219-.089.395-.194.529-.315.135-.125.229-.244.282-.356l.02-.047h1.584l-.014.061a2.422 2.422 0 0 1-.322.724c-.152.242-.36.468-.624.678a3.222 3.222 0 0 1-.952.503 4.15 4.15 0 0 1-1.309.188Zm4.965-.148v-7.332h1.67v1.127h.114c.175-.398.439-.71.792-.933.353-.224.794-.335 1.322-.335.818 0 1.444.237 1.878.71.434.475.651 1.148.651 2.02v4.743h-1.671v-4.354c0-.572-.12-1.002-.362-1.288-.237-.286-.608-.43-1.114-.43a1.61 1.61 0 0 0-.858.222 1.452 1.452 0 0 0-.557.624c-.13.268-.195.586-.195.953v4.273h-1.67Z" fill="#15141A"/></g></g><path stroke="#F0F0F4" stroke-width=".675" d="M34.637 75.733h277.284"/></g><defs><clipPath id="a"><rect x=".758" y=".66" width="297.58" height="166.825" rx="8.444" fill="#fff"/></clipPath><clipPath id="c"><path d="M32.758 36.887a4.227 4.227 0 0 1 4.227-4.227h275.646v100.733H36.985a4.227 4.227 0 0 1-4.227-4.227V36.887Z" fill="#fff"/></clipPath><filter id="b" x="-51.677" y="-47.554" width="448.743" height="269.604" filterUnits="userSpaceOnUse" color-interpolation-filters="sRGB"><feFlood flood-opacity="0" result="BackgroundImageFix"/><feColorMatrix in="SourceAlpha" values="0 0 0 0 0 0 0 0 0 0 0 0 0 0 0 0 0 0 127 0" result="hardAlpha"/><feOffset dy="4.222"/><feGaussianBlur stdDeviation="42.218"/><feComposite in2="hardAlpha" operator="out"/><feColorMatrix values="0 0 0 0 0.281306 0 0 0 0 0.281306 0 0 0 0 0.281306 0 0 0 0.15 0"/><feBlend in2="BackgroundImageFix" result="effect1_dropShadow_8268_14822"/><feBlend in="SourceGraphic" in2="effect1_dropShadow_8268_14822" result="shape"/></filter></defs></svg>