<svg width="299" height="168" fill="none" xmlns="http://www.w3.org/2000/svg"><g clip-path="url(#a)"><rect x=".874" y=".874" width="297.58" height="166.825" rx="8.444" fill="#ADD2FF"/><g filter="url(#b)"><g clip-path="url(#c)"><path d="M32.873 37.101a4.227 4.227 0 0 1 4.228-4.227H311.87v100.733H37.101a4.227 4.227 0 0 1-4.227-4.227V37.101Z" fill="#fff"/><rect x="37.101" y="37.101" width="53" height="34" rx="4.227" fill="#F0F0F4"/><path fill-rule="evenodd" clip-rule="evenodd" d="M49.505 48.615a7.327 7.327 0 0 0-4.128 3.615 7.214 7.214 0 0 0-.635 1.833 7.312 7.312 0 0 0 .63 4.712 7.353 7.353 0 0 0 1.979 2.433 7.26 7.26 0 0 0 2.648 1.335c1.214.325 2.506.317 3.728.04a6.612 6.612 0 0 0 2.985-1.552c.881-.81 1.512-1.876 1.844-3.023.365-1.25.412-2.586.185-3.87h-6.855v2.843h3.972a3.431 3.431 0 0 1-1.457 2.252 4.173 4.173 0 0 1-1.606.635 4.806 4.806 0 0 1-1.739-.004 4.312 4.312 0 0 1-1.621-.701 4.504 4.504 0 0 1-1.669-2.236 4.42 4.42 0 0 1 0-2.836c.22-.643.58-1.234 1.058-1.72A4.32 4.32 0 0 1 51 51.161a4.346 4.346 0 0 1 2.139.086 3.923 3.923 0 0 1 1.57.925l1.34-1.34c.235-.239.482-.47.709-.717a7.103 7.103 0 0 0-2.346-1.453 7.353 7.353 0 0 0-4.908-.047Z" fill="#fff"/><path fill-rule="evenodd" clip-rule="evenodd" d="M49.505 48.615a7.377 7.377 0 0 1 4.908.043 7.08 7.08 0 0 1 2.346 1.453c-.227.247-.474.478-.709.717l-1.34 1.34a3.969 3.969 0 0 0-1.57-.925A4.3 4.3 0 0 0 51 51.157a4.353 4.353 0 0 0-2.177 1.21 4.52 4.52 0 0 0-1.058 1.72c-.795-.619-1.59-1.234-2.389-1.853a7.32 7.32 0 0 1 4.128-3.619Z" fill="#EA4335"/><path fill-rule="evenodd" clip-rule="evenodd" d="M44.746 54.06a7.27 7.27 0 0 1 .635-1.834c.795.62 1.59 1.234 2.39 1.853a4.395 4.395 0 0 0 0 2.836c-.796.619-1.591 1.237-2.386 1.852a7.25 7.25 0 0 1-.639-4.708Z" fill="#FBBC05"/><path fill-rule="evenodd" clip-rule="evenodd" d="M51.887 54.134h6.854a8.615 8.615 0 0 1-.184 3.87c-.333 1.147-.964 2.213-1.845 3.023l-2.315-1.797a3.431 3.431 0 0 0 1.457-2.253h-3.971c.004-.947.004-1.895.004-2.843Z" fill="#4285F4"/><path fill-rule="evenodd" clip-rule="evenodd" d="M45.377 58.771c.795-.615 1.59-1.233 2.385-1.852a4.528 4.528 0 0 0 1.669 2.236 4.34 4.34 0 0 0 1.621.701 4.72 4.72 0 0 0 1.74.004 4.173 4.173 0 0 0 1.605-.634l2.315 1.797c-.834.772-1.88 1.297-2.985 1.551-1.222.279-2.514.286-3.728-.039A7.198 7.198 0 0 1 47.35 61.2a7.334 7.334 0 0 1-1.974-2.429Z" fill="#34A853"/><path d="m75.02 58.824 4.147-4.145a.473.473 0 0 0-.337-.81.477.477 0 0 0-.336.14l-3.742 3.743-3.74-3.743a.475.475 0 0 0-.671.671l4.145 4.145h.534Z" fill="#000"/><path d="m104.918 53.376-1.034.292a1.918 1.918 0 0 0-.288-.502 1.396 1.396 0 0 0-.507-.41c-.215-.107-.49-.161-.825-.161-.458 0-.841.106-1.146.317-.303.208-.454.473-.454.795 0 .287.104.513.312.679.208.165.534.304.976.414l1.112.274c.67.162 1.17.411 1.498.746.329.332.493.76.493 1.283 0 .43-.124.813-.371 1.152-.244.338-.585.605-1.024.8-.44.195-.95.292-1.532.292-.765 0-1.397-.165-1.898-.497-.501-.332-.818-.817-.952-1.454l1.093-.273c.104.403.301.706.591.907.292.202.674.303 1.146.303.537 0 .963-.114 1.278-.342.319-.23.479-.507.479-.83a.873.873 0 0 0-.274-.653c-.182-.179-.462-.312-.839-.4l-1.249-.293c-.686-.162-1.19-.415-1.512-.756-.32-.345-.479-.776-.479-1.293 0-.423.12-.797.357-1.122.24-.325.567-.58.98-.766a3.446 3.446 0 0 1 1.415-.278c.742 0 1.324.162 1.747.488.426.325.728.754.907 1.288Zm4.915 5.971c-.703 0-1.308-.165-1.815-.497a3.238 3.238 0 0 1-1.171-1.371c-.273-.582-.41-1.248-.41-1.996 0-.76.14-1.432.42-2.015a3.317 3.317 0 0 1 1.18-1.37c.508-.332 1.1-.498 1.776-.498.527 0 1.002.097 1.425.292.423.196.769.469 1.039.82.27.351.438.761.503 1.23h-1.152c-.088-.342-.283-.644-.585-.908-.299-.267-.703-.4-1.21-.4-.449 0-.843.117-1.181.351-.335.231-.597.558-.785.981-.186.42-.279.912-.279 1.478 0 .58.091 1.084.274 1.513.185.43.445.763.78 1a2.02 2.02 0 0 0 1.191.356c.299 0 .571-.052.815-.156.243-.104.45-.254.619-.449.169-.195.29-.43.361-.702h1.152c-.065.442-.226.84-.483 1.195a2.706 2.706 0 0 1-1.01.84c-.417.204-.901.306-1.454.306Zm4.63-.156v-7.494h1.112v1.132h.078c.137-.37.384-.672.742-.902a2.183 2.183 0 0 1 1.21-.347c.085 0 .19.002.317.005s.223.008.288.015v1.17a3.406 3.406 0 0 0-.268-.043 2.66 2.66 0 0 0-.435-.034c-.364 0-.689.076-.975.229-.283.15-.508.358-.674.624a1.689 1.689 0 0 0-.244.903v4.742h-1.151Zm8.026.156c-.722 0-1.345-.159-1.869-.478a3.212 3.212 0 0 1-1.205-1.346c-.28-.58-.419-1.253-.419-2.02 0-.768.139-1.444.419-2.03a3.313 3.313 0 0 1 1.181-1.376c.507-.331 1.099-.497 1.776-.497.39 0 .776.065 1.156.195.381.13.727.341 1.039.634.313.29.561.673.747 1.151.185.479.278 1.067.278 1.767v.488h-5.777v-.996h4.606c0-.422-.085-.8-.254-1.132a1.912 1.912 0 0 0-.712-.785c-.306-.192-.667-.288-1.083-.288-.459 0-.856.114-1.191.342a2.253 2.253 0 0 0-.766.878 2.578 2.578 0 0 0-.268 1.161v.663c0 .567.098 1.046.293 1.44.198.39.473.688.824.893.352.201.76.302 1.225.302.302 0 .576-.042.82-.127.247-.087.46-.218.639-.39.179-.176.317-.394.414-.654l1.113.313a2.46 2.46 0 0 1-.591.995 2.875 2.875 0 0 1-1.024.663 3.802 3.802 0 0 1-1.371.234Zm7.997 0c-.723 0-1.345-.159-1.869-.478a3.205 3.205 0 0 1-1.205-1.346c-.28-.58-.42-1.253-.42-2.02 0-.768.14-1.444.42-2.03.283-.588.676-1.047 1.181-1.376.507-.331 1.099-.497 1.775-.497.391 0 .776.065 1.157.195.38.13.727.341 1.039.634.312.29.561.673.747 1.151.185.479.278 1.067.278 1.767v.488h-5.777v-.996h4.606c0-.422-.085-.8-.254-1.132a1.912 1.912 0 0 0-.712-.785c-.306-.192-.667-.288-1.084-.288-.458 0-.855.114-1.19.342a2.245 2.245 0 0 0-.766.878 2.578 2.578 0 0 0-.268 1.161v.663c0 .567.097 1.046.292 1.44.199.39.474.688.825.893.351.201.759.302 1.225.302.302 0 .575-.042.819-.127.247-.087.461-.218.639-.39.179-.176.318-.394.415-.654l1.113.313c-.118.377-.314.709-.591.995a2.875 2.875 0 0 1-1.024.663 3.802 3.802 0 0 1-1.371.234Zm6.006-4.664v4.508h-1.152v-7.494h1.113v1.171h.097c.176-.38.443-.686.8-.917.358-.234.82-.351 1.386-.351.507 0 .951.104 1.332.312.381.205.677.517.888.937.211.416.317.943.317 1.58v4.762h-1.151v-4.683c0-.59-.153-1.048-.459-1.376-.306-.332-.725-.498-1.259-.498-.367 0-.696.08-.985.24-.287.158-.513.391-.679.697-.165.306-.248.676-.248 1.112Zm12.193-1.307-1.034.292a1.918 1.918 0 0 0-.288-.502 1.387 1.387 0 0 0-.507-.41c-.215-.107-.49-.161-.825-.161-.458 0-.84.106-1.146.317-.303.208-.454.473-.454.795 0 .287.104.513.312.679.208.165.534.304.976.414l1.112.274c.671.162 1.17.411 1.498.746.329.332.493.76.493 1.283 0 .43-.123.813-.371 1.152-.244.338-.585.605-1.024.8-.439.195-.95.292-1.532.292-.765 0-1.397-.165-1.898-.497-.501-.332-.818-.817-.952-1.454l1.093-.273c.104.403.301.706.591.907.292.202.675.303 1.146.303.537 0 .963-.114 1.278-.342.319-.23.479-.507.479-.83a.869.869 0 0 0-.274-.653c-.182-.179-.461-.312-.839-.4l-1.249-.293c-.686-.162-1.19-.415-1.512-.756-.319-.345-.478-.776-.478-1.293 0-.423.118-.797.356-1.122.24-.325.567-.58.98-.766a3.446 3.446 0 0 1 1.415-.278c.742 0 1.324.162 1.747.488.426.325.729.754.907 1.288Zm3.022 1.307v4.508h-1.152V49.2h1.152v3.67h.097c.176-.388.44-.695.791-.923.354-.23.826-.346 1.415-.346.51 0 .958.102 1.341.307.384.202.682.512.893.932.215.416.322.947.322 1.59v4.762h-1.151v-4.683c0-.596-.155-1.056-.464-1.381-.305-.329-.73-.493-1.273-.493-.377 0-.716.08-1.015.24-.296.158-.53.391-.702.697-.17.306-.254.676-.254 1.112Zm10.01 4.664c-.676 0-1.27-.16-1.781-.483a3.282 3.282 0 0 1-1.19-1.351c-.283-.579-.424-1.255-.424-2.03 0-.78.141-1.462.424-2.044a3.275 3.275 0 0 1 1.19-1.356c.511-.322 1.105-.483 1.781-.483.677 0 1.269.16 1.776.483.511.322.908.774 1.191 1.356.286.582.429 1.264.429 2.044 0 .775-.143 1.451-.429 2.03a3.235 3.235 0 0 1-1.191 1.352c-.507.322-1.099.482-1.776.482Zm0-1.034c.514 0 .937-.132 1.269-.395.332-.264.577-.61.737-1.04.159-.429.239-.894.239-1.395 0-.5-.08-.967-.239-1.4a2.364 2.364 0 0 0-.737-1.049c-.332-.267-.755-.4-1.269-.4-.514 0-.936.133-1.268.4a2.356 2.356 0 0 0-.737 1.05c-.159.432-.239.898-.239 1.4 0 .5.08.965.239 1.395.159.43.405.776.737 1.039.332.264.754.395 1.268.395Zm8.413-6.616v.976h-3.884v-.976h3.884Zm-2.752-1.795h1.152v7.143c0 .325.047.569.141.731.098.16.221.267.371.322.153.053.314.079.483.079.127 0 .231-.007.312-.02l.195-.039.235 1.034c-.079.03-.187.059-.327.088-.14.033-.317.049-.532.049-.325 0-.644-.07-.956-.21a1.9 1.9 0 0 1-.771-.639c-.202-.286-.303-.647-.303-1.083v-7.455Zm6.323-3.923v16.432h-.975V45.98h.975Z" fill="#15141A"/><rect x="37.101" y="82.024" width="202.06" height="34" rx="4.227" fill="#F0F0F4"/><path d="M63.735 106.638h-16.21a1.438 1.438 0 0 1-1.44-1.441v-8.782a1.441 1.441 0 0 1 1.44-1.44h2.555a.48.48 0 0 0 .48-.437l.16-1.73a1.432 1.432 0 0 1 1.44-1.397h6.947a1.441 1.441 0 0 1 1.441 1.442l.158 1.687a.48.48 0 0 0 .48.436h2.554a1.441 1.441 0 0 1 1.442 1.441v8.782a1.44 1.44 0 0 1-1.447 1.439Zm-16.21-10.703a.48.48 0 0 0-.48.48v8.782a.48.48 0 0 0 .48.481h16.21a.481.481 0 0 0 .48-.481v-8.782a.48.48 0 0 0-.48-.48H61.18a1.44 1.44 0 0 1-1.436-1.309l-.16-1.73a.494.494 0 0 0-.48-.524h-6.948a.48.48 0 0 0-.48.48l-.162 1.774a1.441 1.441 0 0 1-1.435 1.309h-2.554Z" fill="#000"/><path d="M55.631 104.099a3.846 3.846 0 0 1-3.77-4.593 3.843 3.843 0 1 1 3.77 4.593Zm0-6.726a2.883 2.883 0 1 0 0 5.766 2.883 2.883 0 0 0 0-5.766Z" fill="#000"/><path d="M75.355 103.524v-9.68h1.986l2.911 7.453h.114l2.905-7.453h1.986v9.68H83.7v-6.883h-.845l1.717-2.529-3.676 9.412h-1.18l-3.67-9.412 1.717 2.53h-.852v6.882h-1.556Zm14.115.121c-.46 0-.875-.09-1.241-.268a2.114 2.114 0 0 1-.86-.758c-.205-.331-.308-.721-.308-1.168v-.013c0-.434.108-.807.322-1.121.215-.317.53-.565.946-.744.416-.18.922-.284 1.516-.316l2.71-.167v1.1l-2.475.161c-.47.027-.816.125-1.04.295-.223.17-.335.407-.335.711v.014c0 .313.118.557.356.731.241.174.547.262.919.262.335 0 .635-.068.899-.202.263-.134.471-.315.623-.543.153-.233.229-.494.229-.785v-2.321c0-.367-.117-.646-.35-.839-.232-.197-.576-.295-1.032-.295-.38 0-.691.067-.933.201a.994.994 0 0 0-.49.557l-.006.027h-1.577l.007-.06c.053-.412.215-.772.483-1.08.268-.31.624-.548 1.067-.718.442-.17.952-.255 1.53-.255.634 0 1.17.098 1.61.295.437.192.77.474.999.845.228.367.342.808.342 1.322v5.011h-1.65v-1.006h-.114a2.118 2.118 0 0 1-.524.604 2.27 2.27 0 0 1-.724.389 2.885 2.885 0 0 1-.9.134Zm9.063.027c-.738 0-1.368-.152-1.892-.456a2.99 2.99 0 0 1-1.2-1.315c-.278-.573-.416-1.257-.416-2.053v-.014c0-.791.138-1.469.415-2.032a2.957 2.957 0 0 1 1.201-1.295c.523-.304 1.152-.456 1.885-.456.631 0 1.172.11 1.624.328.456.215.816.515 1.08.9.268.38.434.825.496 1.335v.026h-1.576l-.007-.02a1.525 1.525 0 0 0-.523-.879c-.268-.228-.63-.342-1.087-.342-.38 0-.707.096-.98.289-.268.192-.473.47-.617.831-.143.363-.214.801-.214 1.315v.014c0 .519.071.964.215 1.335.147.367.355.648.623.845.269.192.593.289.973.289.434 0 .783-.099 1.047-.296.268-.196.454-.487.556-.872l.014-.027 1.57-.006-.007.06a3.06 3.06 0 0 1-.523 1.308 2.656 2.656 0 0 1-1.06.879c-.443.206-.975.309-1.597.309Zm4.85-.148v-10.17h1.671v3.965h.114c.174-.398.438-.71.792-.933.353-.223.793-.335 1.321-.335.546 0 1.006.107 1.382.322.376.21.66.519.852.926.197.406.295.9.295 1.482v4.743h-1.67V99.17c0-.572-.121-1.002-.362-1.288-.237-.286-.609-.43-1.114-.43-.331 0-.617.075-.859.222a1.46 1.46 0 0 0-.557.624 2.179 2.179 0 0 0-.194.953v4.273h-1.671Zm15.202.148c-.729 0-1.355-.155-1.878-.463a3.089 3.089 0 0 1-1.201-1.315c-.282-.568-.423-1.241-.423-2.02v-.006c0-.77.139-1.44.416-2.013a3.137 3.137 0 0 1 1.194-1.328c.515-.317 1.118-.476 1.812-.476.697 0 1.297.154 1.798.463.505.304.894.73 1.167 1.281.273.55.409 1.194.409 1.932v.55h-5.957v-1.12h5.139l-.792 1.046v-.664c0-.487-.074-.892-.221-1.214a1.603 1.603 0 0 0-.618-.725 1.68 1.68 0 0 0-.905-.241c-.345 0-.651.085-.919.255a1.721 1.721 0 0 0-.631.738c-.152.322-.228.718-.228 1.187v.671c0 .452.076.839.228 1.161.152.317.367.563.644.738a1.9 1.9 0 0 0 1 .255c.299 0 .557-.043.771-.128.219-.089.396-.194.53-.315.134-.125.228-.244.282-.356l.02-.047h1.583l-.013.061a2.448 2.448 0 0 1-.322.724c-.152.242-.36.468-.624.678a3.193 3.193 0 0 1-.953.503 4.138 4.138 0 0 1-1.308.188Zm4.985-.148v-7.332h1.663v7.332h-1.663Zm.838-8.56a.972.972 0 0 1-.704-.288.931.931 0 0 1-.295-.692c0-.277.098-.51.295-.697a.972.972 0 0 1 .704-.289.95.95 0 0 1 .698.289c.197.188.295.42.295.697a.931.931 0 0 1-.295.692.95.95 0 0 1-.698.288Zm2.885 8.56v-7.332h1.67v1.127h.115c.174-.398.438-.71.791-.933.353-.223.794-.335 1.322-.335.818 0 1.444.237 1.878.71.434.475.651 1.148.651 2.02v4.743h-1.671V99.17c0-.572-.12-1.002-.362-1.288-.237-.286-.608-.43-1.113-.43-.331 0-.618.075-.859.222a1.453 1.453 0 0 0-.557.624c-.13.269-.195.586-.195.953v4.273h-1.67Zm11.539.148c-.729 0-1.355-.155-1.879-.463a3.086 3.086 0 0 1-1.2-1.315c-.282-.568-.423-1.241-.423-2.02v-.006c0-.77.139-1.44.416-2.013a3.137 3.137 0 0 1 1.194-1.328c.514-.317 1.118-.476 1.811-.476.698 0 1.297.154 1.798.463.506.304.895.73 1.168 1.281.272.55.409 1.194.409 1.932v.55h-5.957v-1.12h5.138l-.791 1.046v-.664c0-.487-.074-.892-.222-1.214a1.595 1.595 0 0 0-.617-.725 1.68 1.68 0 0 0-.906-.241c-.344 0-.65.085-.919.255a1.72 1.72 0 0 0-.63.738c-.152.322-.228.718-.228 1.187v.671c0 .452.076.839.228 1.161.152.317.367.563.644.738.282.17.615.255.999.255.3 0 .557-.043.772-.128.219-.089.396-.194.53-.315.134-.125.228-.244.282-.356l.02-.047h1.583l-.013.061a2.474 2.474 0 0 1-.322.724c-.152.242-.36.468-.624.678-.26.206-.577.373-.953.503a4.147 4.147 0 0 1-1.308.188Zm4.964-.148v-7.332h1.671v1.127h.114c.174-.398.438-.71.791-.933.354-.223.794-.335 1.322-.335.818 0 1.445.237 1.878.71.434.475.651 1.148.651 2.02v4.743h-1.67V99.17c0-.572-.121-1.002-.363-1.288-.237-.286-.608-.43-1.113-.43-.331 0-.617.075-.859.222a1.46 1.46 0 0 0-.557.624 2.179 2.179 0 0 0-.194.953v4.273h-1.671Zm15.598.242c-.752 0-1.405-.117-1.959-.349-.55-.233-.984-.557-1.302-.973a2.663 2.663 0 0 1-.536-1.456l-.007-.094h1.677l.007.067c.027.273.134.51.322.712.192.201.447.36.765.476.317.112.68.168 1.086.168.39 0 .734-.061 1.034-.182.299-.12.534-.286.704-.496.17-.215.255-.461.255-.738v-.007c0-.348-.136-.632-.409-.852-.273-.223-.723-.402-1.349-.536l-1.04-.215c-.992-.21-1.715-.546-2.166-1.006-.448-.465-.671-1.058-.671-1.778V96.5c0-.577.152-1.082.456-1.516.308-.434.731-.771 1.268-1.013.541-.246 1.16-.369 1.858-.369.716 0 1.335.12 1.858.362.524.237.935.562 1.235.973.299.412.467.877.503 1.395l.007.088h-1.651l-.013-.08a1.259 1.259 0 0 0-.315-.665 1.692 1.692 0 0 0-.665-.456 2.586 2.586 0 0 0-.972-.168 2.51 2.51 0 0 0-.946.168c-.278.107-.497.26-.658.456a1.11 1.11 0 0 0-.234.711v.007c0 .34.131.622.395.845.269.224.705.398 1.309.523l1.039.222c.68.143 1.233.333 1.657.57.425.237.736.532.933.886.201.349.302.769.302 1.261v.007c0 .626-.155 1.167-.463 1.623-.304.456-.74.81-1.308 1.06-.564.25-1.232.376-2.006.376Zm8.694-.094c-.738 0-1.368-.152-1.892-.456a2.988 2.988 0 0 1-1.2-1.315c-.278-.573-.416-1.257-.416-2.053v-.014c0-.791.138-1.469.416-2.032a2.955 2.955 0 0 1 1.2-1.295c.524-.304 1.152-.456 1.886-.456.63 0 1.171.11 1.623.328.456.215.816.515 1.08.9.268.38.434.825.497 1.335v.026h-1.577l-.007-.02a1.524 1.524 0 0 0-.523-.879c-.268-.228-.631-.342-1.087-.342-.38 0-.706.096-.979.289-.269.192-.474.47-.617.831-.144.363-.215.801-.215 1.315v.014c0 .519.071.964.215 1.335.147.367.355.648.623.845.269.192.593.289.973.289.434 0 .783-.099 1.047-.296.268-.196.454-.487.557-.872l.013-.027 1.57-.006-.007.06c-.08.497-.255.933-.523 1.308a2.656 2.656 0 0 1-1.06.879c-.443.206-.975.309-1.597.309Zm4.783-.148v-7.332h1.671v1.127h.114c.125-.394.349-.7.671-.92.326-.219.731-.328 1.214-.328.125 0 .248.009.369.027.125.013.228.031.309.053v1.496a3.145 3.145 0 0 0-.41-.067 3.191 3.191 0 0 0-.422-.026c-.371 0-.696.069-.973.207a1.513 1.513 0 0 0-.644.598 1.736 1.736 0 0 0-.228.905v4.26h-1.671Zm8.668.148c-.729 0-1.355-.155-1.878-.463a3.089 3.089 0 0 1-1.201-1.315c-.282-.568-.423-1.241-.423-2.02v-.006c0-.77.139-1.44.416-2.013a3.137 3.137 0 0 1 1.194-1.328c.515-.317 1.118-.476 1.812-.476.697 0 1.297.154 1.797.463.506.304.895.73 1.168 1.281.273.55.409 1.194.409 1.932v.55h-5.957v-1.12h5.139l-.792 1.046v-.664c0-.487-.074-.892-.221-1.214a1.603 1.603 0 0 0-.618-.725 1.68 1.68 0 0 0-.905-.241c-.345 0-.651.085-.919.255a1.715 1.715 0 0 0-.631.738c-.152.322-.228.718-.228 1.187v.671c0 .452.076.839.228 1.161.152.317.367.563.644.738a1.9 1.9 0 0 0 1 .255c.299 0 .556-.043.771-.128.219-.089.396-.194.53-.315.134-.125.228-.244.282-.356l.02-.047h1.583l-.013.061a2.448 2.448 0 0 1-.322.724c-.152.242-.36.468-.624.678-.26.206-.577.373-.953.503a4.143 4.143 0 0 1-1.308.188Zm8.104 0c-.729 0-1.355-.155-1.878-.463a3.089 3.089 0 0 1-1.201-1.315c-.282-.568-.423-1.241-.423-2.02v-.006c0-.77.139-1.44.416-2.013a3.137 3.137 0 0 1 1.194-1.328c.515-.317 1.118-.476 1.812-.476.697 0 1.297.154 1.797.463.506.304.895.73 1.168 1.281.273.55.409 1.194.409 1.932v.55h-5.957v-1.12h5.139l-.792 1.046v-.664c0-.487-.074-.892-.221-1.214a1.603 1.603 0 0 0-.618-.725 1.68 1.68 0 0 0-.905-.241c-.345 0-.651.085-.919.255a1.721 1.721 0 0 0-.631.738c-.152.322-.228.718-.228 1.187v.671c0 .452.076.839.228 1.161.152.317.367.563.644.738a1.9 1.9 0 0 0 1 .255c.299 0 .556-.043.771-.128.219-.089.396-.194.53-.315.134-.125.228-.244.282-.356l.02-.047h1.583l-.013.061a2.448 2.448 0 0 1-.322.724c-.152.242-.36.468-.624.678-.26.206-.577.373-.953.503a4.143 4.143 0 0 1-1.308.188Zm4.964-.148v-7.332h1.671v1.127h.114c.174-.398.438-.71.792-.933.353-.223.793-.335 1.321-.335.819 0 1.445.237 1.879.71.433.475.65 1.148.65 2.02v4.743h-1.67V99.17c0-.572-.121-1.002-.362-1.288-.237-.286-.609-.43-1.114-.43-.331 0-.617.075-.859.222a1.46 1.46 0 0 0-.557.624 2.179 2.179 0 0 0-.194.953v4.273h-1.671Zm11.17.148c-.621 0-1.158-.087-1.61-.262-.447-.179-.8-.425-1.06-.738a2.098 2.098 0 0 1-.463-1.1v-.013h1.657l.007.013c.09.255.257.463.503.624.246.161.577.241.993.241.277 0 .521-.038.731-.114.211-.08.376-.19.497-.328a.713.713 0 0 0 .181-.483v-.014a.667.667 0 0 0-.262-.537c-.174-.147-.463-.266-.865-.355l-1.188-.268c-.465-.103-.849-.246-1.153-.43a1.87 1.87 0 0 1-.685-.677 1.924 1.924 0 0 1-.221-.94v-.006c0-.443.123-.832.369-1.168.25-.335.597-.597 1.04-.785.443-.187.952-.281 1.529-.281.595 0 1.107.09 1.537.268.429.179.764.425 1.006.738.241.313.38.669.416 1.067v.013h-1.57l-.007-.02c-.062-.233-.212-.43-.449-.59-.233-.166-.546-.249-.939-.249-.246 0-.468.038-.665.114a1.084 1.084 0 0 0-.456.323.741.741 0 0 0-.161.476v.007c0 .143.036.268.108.375a.935.935 0 0 0 .355.282c.161.08.374.152.637.215l1.188.261c.72.161 1.252.4 1.597.718.344.318.516.745.516 1.281v.014c0 .465-.134.872-.402 1.221-.269.349-.638.622-1.107.818-.47.193-1.004.289-1.604.289Zm4.864-.148v-10.17h1.671v3.965h.114c.174-.398.438-.71.791-.933.354-.223.794-.335 1.322-.335.545 0 1.006.107 1.382.322.375.21.659.519.852.926.197.406.295.9.295 1.482v4.743h-1.671V99.17c0-.572-.12-1.002-.362-1.288-.237-.286-.608-.43-1.113-.43-.331 0-.618.075-.859.222a1.453 1.453 0 0 0-.557.624c-.13.269-.194.586-.194.953v4.273h-1.671Zm11.566.148c-.729 0-1.358-.152-1.885-.456a3.102 3.102 0 0 1-1.221-1.315c-.282-.568-.423-1.248-.423-2.04v-.013c0-.783.143-1.458.429-2.026a3.067 3.067 0 0 1 1.215-1.315c.527-.304 1.156-.456 1.885-.456.729 0 1.355.152 1.878.456.528.304.935.74 1.221 1.308.286.568.429 1.246.429 2.033v.013c0 .792-.143 1.472-.429 2.04a3.062 3.062 0 0 1-1.214 1.315c-.523.304-1.152.456-1.885.456Zm0-1.355c.384 0 .711-.097.979-.289a1.83 1.83 0 0 0 .624-.838c.143-.367.215-.808.215-1.322v-.013c0-.52-.072-.96-.215-1.322-.143-.367-.351-.646-.624-.839-.268-.196-.595-.295-.979-.295-.385 0-.714.099-.986.295-.273.193-.481.472-.624.839-.143.362-.215.803-.215 1.322v.013c0 .514.072.955.215 1.322.143.366.349.646.617.838.273.192.604.289.993.289Zm8.09 1.241c-.84 0-1.446-.155-1.818-.463-.371-.309-.556-.814-.556-1.516v-4.093h-1.141v-1.294h1.141v-1.798h1.697v1.798h1.543v1.294h-1.543v3.697c0 .362.076.628.228.798.156.166.407.248.751.248.121 0 .219-.002.295-.006l.269-.027v1.288c-.117.022-.251.04-.403.054-.147.013-.302.02-.463.02Z" fill="#15141A"/></g></g><path stroke="#F0F0F4" stroke-width=".675" d="M34.898 75.947h253"/></g><defs><clipPath id="a"><rect x=".874" y=".874" width="297.58" height="166.825" rx="8.444" fill="#fff"/></clipPath><clipPath id="c"><path d="M32.873 37.101a4.227 4.227 0 0 1 4.228-4.227H311.87v100.733H37.101a4.227 4.227 0 0 1-4.227-4.227V37.101Z" fill="#fff"/></clipPath><filter id="b" x="-51.562" y="-47.34" width="447.867" height="269.604" filterUnits="userSpaceOnUse" color-interpolation-filters="sRGB"><feFlood flood-opacity="0" result="BackgroundImageFix"/><feColorMatrix in="SourceAlpha" values="0 0 0 0 0 0 0 0 0 0 0 0 0 0 0 0 0 0 127 0" result="hardAlpha"/><feOffset dy="4.222"/><feGaussianBlur stdDeviation="42.218"/><feComposite in2="hardAlpha" operator="out"/><feColorMatrix values="0 0 0 0 0.281306 0 0 0 0 0.281306 0 0 0 0 0.281306 0 0 0 0.15 0"/><feBlend in2="BackgroundImageFix" result="effect1_dropShadow_8268_14750"/><feBlend in="SourceGraphic" in2="effect1_dropShadow_8268_14750" result="shape"/></filter></defs></svg>