<svg xmlns="http://www.w3.org/2000/svg" width="299" height="168" fill="none"><g clip-path="url(#a)"><rect width="297.58" height="166.825" x=".874" y=".874" fill="#ADD2FF" rx="8.444"/><g filter="url(#b)"><g clip-path="url(#c)"><path fill="#fff" d="M32.873 37.101a4.227 4.227 0 0 1 4.228-4.227H311.87v100.733H37.101a4.227 4.227 0 0 1-4.227-4.227V37.101Z"/><rect width="53" height="34" x="37.101" y="37.101" fill="#F0F0F4" rx="4.227"/><path fill="#fff" fill-rule="evenodd" d="M49.505 48.615a7.327 7.327 0 0 0-4.128 3.615 7.214 7.214 0 0 0-.635 1.833 7.312 7.312 0 0 0 .63 4.712 7.353 7.353 0 0 0 1.979 2.433 7.26 7.26 0 0 0 2.648 1.335c1.214.325 2.506.317 3.728.04a6.612 6.612 0 0 0 2.985-1.552c.881-.81 1.512-1.876 1.844-3.023.365-1.25.412-2.586.185-3.87h-6.855v2.843h3.972a3.431 3.431 0 0 1-1.457 2.252 4.173 4.173 0 0 1-1.606.635 4.806 4.806 0 0 1-1.739-.004 4.312 4.312 0 0 1-1.621-.701 4.504 4.504 0 0 1-1.669-2.236 4.42 4.42 0 0 1 0-2.836c.22-.643.58-1.234 1.058-1.72A4.32 4.32 0 0 1 51 51.161a4.346 4.346 0 0 1 2.139.086 3.923 3.923 0 0 1 1.57.925l1.34-1.34c.235-.239.482-.47.709-.717a7.103 7.103 0 0 0-2.346-1.453 7.353 7.353 0 0 0-4.908-.047Z" clip-rule="evenodd"/><path fill="#EA4335" fill-rule="evenodd" d="M49.505 48.615a7.377 7.377 0 0 1 4.908.043 7.08 7.08 0 0 1 2.346 1.453c-.227.247-.474.478-.709.717l-1.34 1.34a3.969 3.969 0 0 0-1.57-.925 4.3 4.3 0 0 0-2.14-.086 4.353 4.353 0 0 0-2.177 1.21 4.52 4.52 0 0 0-1.058 1.72c-.795-.619-1.59-1.234-2.389-1.853a7.32 7.32 0 0 1 4.128-3.619Z" clip-rule="evenodd"/><path fill="#FBBC05" fill-rule="evenodd" d="M44.746 54.06a7.27 7.27 0 0 1 .635-1.834c.795.62 1.59 1.234 2.39 1.853a4.395 4.395 0 0 0 0 2.836c-.796.619-1.591 1.237-2.386 1.852a7.25 7.25 0 0 1-.639-4.708Z" clip-rule="evenodd"/><path fill="#4285F4" fill-rule="evenodd" d="M51.887 54.134h6.854a8.615 8.615 0 0 1-.184 3.87c-.333 1.147-.964 2.213-1.845 3.023l-2.315-1.797a3.431 3.431 0 0 0 1.457-2.253h-3.971c.004-.947.004-1.895.004-2.843Z" clip-rule="evenodd"/><path fill="#34A853" fill-rule="evenodd" d="M45.377 58.771c.795-.615 1.59-1.233 2.385-1.852a4.528 4.528 0 0 0 1.669 2.236 4.34 4.34 0 0 0 1.621.701 4.72 4.72 0 0 0 1.74.004 4.173 4.173 0 0 0 1.605-.634l2.315 1.797c-.834.772-1.88 1.297-2.985 1.551-1.222.279-2.514.286-3.728-.039A7.198 7.198 0 0 1 47.35 61.2a7.334 7.334 0 0 1-1.974-2.429Z" clip-rule="evenodd"/><path fill="#000" d="m75.02 58.824 4.147-4.145a.473.473 0 0 0-.337-.81.477.477 0 0 0-.336.14l-3.742 3.743-3.74-3.743a.475.475 0 0 0-.671.671l4.145 4.145h.534Z"/><path fill="#15141A" d="M191.701 45.979v16.432h-.975V45.98h.975v-.001Z"/><rect width="218.377" height="34" x="37.101" y="82.024" fill="#F0F0F4" rx="4.227"/><path fill="#000" d="M63.735 106.638h-16.21a1.438 1.438 0 0 1-1.44-1.441v-8.782a1.441 1.441 0 0 1 1.44-1.44h2.555a.48.48 0 0 0 .48-.437l.16-1.73a1.432 1.432 0 0 1 1.44-1.397h6.947a1.441 1.441 0 0 1 1.441 1.442l.158 1.687a.48.48 0 0 0 .48.436h2.554a1.441 1.441 0 0 1 1.442 1.441v8.782a1.44 1.44 0 0 1-1.447 1.439Zm-16.21-10.703a.48.48 0 0 0-.48.48v8.782a.48.48 0 0 0 .48.481h16.21a.481.481 0 0 0 .48-.481v-8.782a.48.48 0 0 0-.48-.48H61.18a1.44 1.44 0 0 1-1.436-1.309l-.16-1.73a.494.494 0 0 0-.48-.524h-6.948a.48.48 0 0 0-.48.48l-.162 1.774a1.441 1.441 0 0 1-1.435 1.309h-2.554Z"/><path fill="#000" d="M55.631 104.099a3.846 3.846 0 0 1-3.77-4.593 3.843 3.843 0 1 1 3.77 4.593Zm0-6.726a2.883 2.883 0 1 0 0 5.766 2.883 2.883 0 0 0 0-5.766Z"/></g></g><path stroke="#F0F0F4" stroke-width=".675" d="M34.898 75.947h253"/></g><defs><clipPath id="a"><rect width="297.58" height="166.825" x=".874" y=".874" fill="#fff" rx="8.444"/></clipPath><clipPath id="c"><path fill="#fff" d="M32.873 37.101a4.227 4.227 0 0 1 4.228-4.227H311.87v100.733H37.101a4.227 4.227 0 0 1-4.227-4.227V37.101Z"/></clipPath><filter id="b" width="447.867" height="269.604" x="-51.562" y="-47.34" color-interpolation-filters="sRGB" filterUnits="userSpaceOnUse"><feFlood flood-opacity="0" result="BackgroundImageFix"/><feColorMatrix in="SourceAlpha" result="hardAlpha" values="0 0 0 0 0 0 0 0 0 0 0 0 0 0 0 0 0 0 127 0"/><feOffset dy="4.222"/><feGaussianBlur stdDeviation="42.218"/><feComposite in2="hardAlpha" operator="out"/><feColorMatrix values="0 0 0 0 0.281306 0 0 0 0 0.281306 0 0 0 0 0.281306 0 0 0 0.15 0"/><feBlend in2="BackgroundImageFix" result="effect1_dropShadow_8268_14750"/><feBlend in="SourceGraphic" in2="effect1_dropShadow_8268_14750" result="shape"/></filter></defs><path d="M103.4 59.289q-.679 0-1.117-.24-.439-.241-.693-.571-.253-.329-.392-.606h-.118v1.259h-1.002v-9.822h1.035v3.751h.085q.139-.27.386-.593.247-.323.682-.561.435-.237 1.127-.237.917 0 1.609.468t1.081 1.322q.389.853.389 2.007 0 1.16-.386 2.017t-1.078 1.332q-.692.474-1.608.474Zm-.145-.936q.705 0 1.186-.389.482-.389.729-1.045.247-.655.247-1.466 0-.798-.244-1.444-.244-.646-.725-1.025-.481-.379-1.193-.379-.699 0-1.177.363-.478.362-.725 1.002-.247.639-.247 1.483 0 .85.247 1.503.247.652.732 1.025.484.372 1.17.372Zm5.002.778v-7.37h1.035v7.37Zm.523-8.655q-.302 0-.521-.208-.22-.207-.22-.498 0-.296.22-.5.219-.205.521-.205.308 0 .525.205.218.204.218.5 0 .291-.218.498-.217.208-.525.208Zm3.733-1.167v9.822h-1.035v-9.822Zm4.87 9.98q-.903 0-1.598-.474-.696-.475-1.085-1.332-.389-.857-.389-2.017 0-1.154.393-2.007.392-.854 1.087-1.322.696-.468 1.599-.468.698 0 1.134.237.435.238.685.561.251.323.376.593h.086v-3.751h1.041v9.822h-1.009v-1.259h-.118q-.132.277-.386.606-.254.33-.692.571-.438.24-1.124.24Zm.152-.936q.692 0 1.17-.372.478-.373.728-1.025.251-.653.251-1.503 0-.844-.247-1.483-.248-.64-.729-1.002-.481-.363-1.173-.363-.712 0-1.193.379-.482.379-.725 1.025-.244.646-.244 1.444 0 .811.244 1.466.243.656.728 1.045.484.389 1.19.389Zm7.763.936q-.739 0-1.315-.221-.577-.22-.946-.652-.369-.432-.501-1.058l.989-.238q.158.64.613.946.454.307 1.153.307.798 0 1.279-.356.481-.356.481-.864 0-.408-.28-.685-.28-.277-.854-.409l-1.213-.29q-.982-.237-1.46-.732-.477-.494-.477-1.259 0-.619.346-1.097t.946-.745q.599-.267 1.364-.267.725 0 1.239.221.514.221.844.613.33.392.501.92l-.949.243q-.165-.448-.537-.777-.373-.33-1.091-.33-.699 0-1.157.326-.458.327-.458.834 0 .435.309.709.31.273.969.432l1.128.27q.969.23 1.44.722.471.491.471 1.236 0 .639-.356 1.137-.356.497-.995.781-.639.283-1.483.283Zm7.547-.006q-.982 0-1.727-.478-.745-.478-1.163-1.335-.419-.857-.419-1.984 0-1.147.419-2.004.418-.857 1.163-1.335.745-.478 1.727-.478.547 0 1.019.152.471.151.847.415.375.264.639.62t.396.764l-.996.297q-.072-.244-.234-.478-.161-.234-.402-.422-.24-.188-.56-.3-.32-.112-.709-.112-.745 0-1.246.396-.501.395-.751 1.048-.251.652-.251 1.437 0 .771.251 1.42.25.65.751 1.045.501.396 1.246.396.396 0 .722-.116.326-.115.574-.31.247-.194.408-.441.162-.247.234-.498l.989.29q-.125.422-.392.785-.267.362-.646.639t-.857.432q-.478.155-1.032.155Zm5.738-4.654v4.502h-1.035v-9.822h1.035v4.206h-.178q.317-.996.953-1.421.636-.425 1.473-.425.745 0 1.312.307.567.306.883.916.317.61.317 1.513v4.726h-1.049V54.49q0-.876-.474-1.381-.475-.504-1.286-.504-.553 0-.995.241-.442.24-.699.692-.257.451-.257 1.091Zm6.928 4.502v-7.37h1.035v7.37Zm.522-8.655q-.302 0-.521-.208-.219-.207-.219-.498 0-.296.219-.5.219-.205.521-.205.308 0 .526.205.217.204.217.5 0 .291-.217.498-.218.208-.526.208Zm2.687 8.655v-7.37h1.002v1.141h.072q.218-.561.752-.903.533-.343 1.212-.343.119 0 .274.006.155.007.254.014v1.041l-.234-.029q-.182-.024-.386-.024-.547 0-.982.231-.435.231-.682.636-.247.406-.247.933v4.667Zm5.151 0v-7.37h1.008l.007 1.662h-.092q.151-.607.481-1.002.33-.396.775-.59.444-.195.919-.195.811 0 1.322.498.511.497.656 1.321h-.152q.125-.566.475-.975.349-.409.843-.626.495-.218 1.081-.218.646 0 1.17.28.525.28.831.841.307.56.307 1.41v4.964h-1.042v-4.937q0-.844-.461-1.226-.462-.383-1.101-.383-.508 0-.89.218-.382.217-.593.603-.211.386-.211.893v4.832h-1.042v-5.036q0-.692-.425-1.101-.425-.409-1.091-.409-.461 0-.86.215-.399.214-.64.629-.24.415-.24 1.009v4.693Zm15.035-7.37v.897h-4.205v-.897Zm-2.755 7.37v-8.385q0-.619.283-1.041.284-.422.745-.636.461-.215.982-.215.389 0 .646.063t.389.115l-.29.897q-.092-.033-.241-.069-.148-.037-.385-.037-.547 0-.818.294-.27.293-.27.847v8.167Zm6.916.158q-.983 0-1.728-.478-.744-.478-1.163-1.338-.419-.86-.419-1.987 0-1.141.419-2.001.419-.86 1.163-1.338.745-.478 1.728-.478.982 0 1.73.478t1.167 1.338q.418.86.418 2.001 0 1.127-.418 1.987-.419.86-1.167 1.338-.748.478-1.73.478Zm0-.936q.751 0 1.255-.395.505-.396.755-1.048.251-.653.251-1.424 0-.772-.251-1.431-.25-.659-.755-1.054-.504-.396-1.255-.396-.745 0-1.246.399t-.752 1.051q-.25.653-.25 1.431 0 .771.25 1.424.251.652.752 1.048.501.395 1.246.395Zm7.809-6.592v.897h-3.665v-.897Zm-2.558-1.753h1.035v7.297q0 .521.224.761.224.241.712.221.099-.006.254-.029t.287-.05l.217.883q-.164.06-.372.089-.208.03-.406.037-.922.026-1.437-.465-.514-.491-.514-1.374Zm6.897 9.281q-.982 0-1.727-.478-.745-.478-1.164-1.338-.418-.86-.418-1.987 0-1.141.418-2.001.419-.86 1.164-1.338.745-.478 1.727-.478.982 0 1.73.478t1.167 1.338q.419.86.419 2.001 0 1.127-.419 1.987-.419.86-1.167 1.338-.748.478-1.73.478Zm0-.936q.751 0 1.256-.395.504-.396.754-1.048.251-.653.251-1.424 0-.772-.251-1.431-.25-.659-.754-1.054-.505-.396-1.256-.396-.745 0-1.246.399t-.751 1.051q-.251.653-.251 1.431 0 .771.251 1.424.25.652.751 1.048.501.395 1.246.395ZM75.128 104.082V93.896h3.684q1.074 0 1.778.363.704.362 1.049.97.345.609.345 1.354 0 .649-.236 1.08-.235.431-.618.687-.383.256-.841.379v.096q.492.028.974.328.482.301.8.855.318.553.318 1.346 0 .773-.359 1.392-.359.618-1.118.977-.759.359-1.948.359Zm1.435-1.244h2.29q1.149 0 1.638-.441.488-.441.488-1.09 0-.499-.253-.913-.253-.414-.711-.663-.458-.25-1.093-.25h-2.359Zm0-4.505h2.14q.533 0 .96-.205.428-.205.681-.581.253-.376.253-.889 0-.642-.452-1.083-.451-.441-1.401-.441h-2.181Zm7.61 5.749v-7.643h1.367v7.643Zm.69-8.853q-.369 0-.636-.25-.266-.251-.266-.602 0-.357.266-.604.267-.246.636-.246.372 0 .637.247t.265.606q0 .35-.265.6-.265.249-.637.249Zm4.136-1.333v10.186h-1.367V93.896Zm4.943 10.343q-.937 0-1.665-.478-.728-.479-1.138-1.367-.41-.889-.41-2.113 0-1.23.417-2.112.417-.882 1.142-1.354.724-.471 1.661-.471.724 0 1.162.242.437.243.68.554.243.311.366.537h.089v-3.781h1.367v10.186h-1.326v-1.189h-.13q-.13.225-.376.543-.246.318-.684.561-.437.242-1.155.242Zm.26-1.189q.67 0 1.131-.352.461-.352.697-.981.236-.629.236-1.449 0-.821-.236-1.433-.236-.611-.694-.957-.458-.345-1.134-.345-.691 0-1.156.362-.464.363-.693.981-.229.619-.229 1.392 0 .779.232 1.408.232.629.701 1.001.468.373 1.145.373Zm8.171 1.196q-.813 0-1.442-.236t-1.032-.694q-.403-.458-.54-1.128l1.292-.287q.164.616.605.903.441.287 1.111.287.765 0 1.22-.321.454-.322.454-.773 0-.376-.273-.629t-.827-.376l-1.278-.301q-1.053-.239-1.566-.758-.513-.52-.513-1.34 0-.663.376-1.173.376-.509 1.029-.793.653-.283 1.487-.283.807 0 1.377.239.571.239.927.66.355.42.519.974l-1.23.294q-.151-.41-.51-.732-.358-.321-1.069-.321-.657 0-1.091.297-.434.298-.434.756 0 .403.294.649t.937.397l1.196.273q1.046.246 1.555.759.509.513.509 1.306 0 .683-.389 1.213-.39.53-1.087.834-.697.304-1.607.304Zm7.946 0q-1.053 0-1.846-.492-.793-.492-1.234-1.381-.441-.889-.441-2.064 0-1.197.441-2.089.441-.892 1.234-1.384.793-.492 1.846-.492.581 0 1.087.15.506.151.916.427.41.277.704.684.294.407.444.919l-1.305.342q-.076-.294-.24-.54-.164-.246-.4-.424-.235-.177-.536-.273-.301-.096-.663-.096-.732 0-1.203.38-.472.379-.701 1.008-.229.629-.229 1.381 0 .745.229 1.37.229.626.701 1.005.471.38 1.203.38.369 0 .677-.1.307-.099.546-.287.24-.188.404-.444.164-.256.246-.564l1.292.335q-.137.533-.434.943-.298.411-.715.705-.417.293-.929.447-.513.154-1.094.154Zm6.247-4.717v4.553h-1.368V93.896h1.361v4.403h-.205q.342-1.039.981-1.497.639-.458 1.527-.458.773 0 1.361.321t.912.964q.325.642.325 1.599v4.854h-1.374v-4.71q0-.854-.448-1.336-.447-.482-1.22-.482-.526 0-.947.229-.42.229-.663.67-.242.441-.242 1.076Zm6.983 4.553v-7.643h1.367v7.643Zm.69-8.853q-.369 0-.635-.25-.267-.251-.267-.602 0-.357.267-.604.266-.246.635-.246.373 0 .638.247t.265.606q0 .35-.265.6-.265.249-.638.249Zm2.769 8.853v-7.643h1.32v1.204h.082q.212-.602.748-.957.537-.356 1.214-.356.143 0 .328.01l.3.017v1.34q-.068-.02-.293-.048-.226-.027-.472-.027-.533 0-.957.226-.424.225-.663.618-.24.393-.24.906v4.71Zm5.547 0v-7.643h1.313l.02 1.744h-.102q.164-.636.502-1.05.339-.413.797-.618.458-.205.95-.205.834 0 1.346.512.513.513.677 1.388h-.171q.137-.602.506-1.025.369-.424.885-.65.517-.225 1.125-.225.67 0 1.217.287t.868.868q.321.581.321 1.463v5.154h-1.367v-5.059q0-.799-.444-1.148-.445-.349-1.039-.349-.493 0-.851.209-.359.208-.554.571-.195.362-.195.834v4.942h-1.354v-5.175q0-.622-.406-1.001-.407-.38-1.043-.38-.424 0-.8.202-.376.202-.605.595-.229.393-.229.981v4.778Zm16.01-7.643v1.135h-4.58v-1.135Zm-3.103 7.643v-8.586q0-.69.314-1.152.315-.461.824-.694.509-.232 1.09-.232.445 0 .749.072.304.071.455.133l-.349 1.135q-.103-.034-.26-.072-.157-.038-.41-.038-.547 0-.796.277-.25.277-.25.803v8.354Zm7.453.164q-1.06 0-1.853-.492-.793-.492-1.234-1.381-.441-.889-.441-2.064 0-1.197.441-2.089.441-.892 1.234-1.384.793-.492 1.853-.492 1.059 0 1.856.492.796.492 1.234 1.384.437.892.437 2.089 0 1.175-.437 2.064-.438.889-1.234 1.381-.797.492-1.856.492Zm0-1.189q.731 0 1.21-.38.478-.379.707-1.008.229-.629.229-1.367 0-.739-.229-1.371t-.707-1.015q-.479-.383-1.21-.383-.732 0-1.203.383-.472.383-.701 1.012-.229.629-.229 1.374 0 .738.229 1.367t.701 1.008q.471.38 1.203.38Zm8.401-6.618v1.135h-4.047v-1.135Zm-2.912-1.818h1.367v7.438q0 .485.198.711.199.225.67.225.117 0 .301-.027.185-.028.328-.055l.26 1.121q-.219.075-.475.11-.256.034-.509.034-1.019 0-1.579-.527-.561-.526-.561-1.483Zm7.47 9.625q-1.06 0-1.853-.492-.793-.492-1.234-1.381-.441-.889-.441-2.064 0-1.197.441-2.089.441-.892 1.234-1.384.793-.492 1.853-.492 1.059 0 1.856.492.796.492 1.234 1.384.437.892.437 2.089 0 1.175-.437 2.064-.438.889-1.234 1.381-.797.492-1.856.492Zm0-1.189q.731 0 1.21-.38.478-.379.707-1.008.229-.629.229-1.367 0-.739-.229-1.371t-.707-1.015q-.479-.383-1.21-.383-.732 0-1.203.383-.472.383-.701 1.012-.229.629-.229 1.374 0 .738.229 1.367t.701 1.008q.471.38 1.203.38Zm11.235 1.196q-.724 0-1.312-.27-.588-.27-.937-.793-.348-.523-.348-1.275 0-.656.256-1.07.256-.413.687-.653.431-.239.954-.359.523-.119 1.063-.188l1.107-.133q.424-.051.632-.167.209-.117.209-.39v-.041q0-.451-.174-.766-.175-.314-.513-.482-.338-.167-.851-.167-.52 0-.892.161-.373.16-.609.406-.235.246-.352.513l-1.298-.376q.28-.697.772-1.1.492-.404 1.107-.582.616-.177 1.245-.177.423 0 .926.102.502.103.96.38.458.277.752.806.294.53.294 1.391v5.059h-1.333v-1.046h-.082q-.137.287-.427.567-.291.281-.745.465-.455.185-1.091.185Zm.274-1.142q.649 0 1.104-.256.454-.256.694-.667.239-.41.239-.861v-1.025q-.082.089-.321.157-.24.068-.547.12-.308.051-.598.088-.291.038-.469.059-.43.054-.799.188-.37.133-.592.379-.222.246-.222.663 0 .383.195.636t.537.386q.341.133.779.133Zm8.084 1.067q-.773 0-1.361-.322-.587-.321-.912-.967-.325-.646-.325-1.596v-4.854h1.367v4.71q0 .855.448 1.337t1.227.482q.526 0 .943-.229.417-.229.66-.674.243-.444.243-1.073v-4.553h1.374v7.643h-1.32v-1.859h.158q-.349 1.052-.995 1.504-.646.451-1.507.451Zm9.424-7.739v1.135h-4.581v-1.135Zm-3.104 7.643v-8.586q0-.69.314-1.152.315-.461.824-.694.509-.232 1.091-.232.444 0 .748.072.304.071.455.133l-.349 1.135q-.102-.034-.26-.072-.157-.038-.41-.038-.547 0-.796.277-.25.277-.25.803v8.354Zm6.052-4.553v4.553h-1.367v-7.643h1.305l.014 1.86h-.164q.342-1.039.981-1.497.639-.458 1.528-.458.772 0 1.357.321.584.321.909.964.325.642.325 1.599v4.854h-1.367v-4.71q0-.854-.448-1.336-.448-.482-1.22-.482-.527 0-.947.229-.421.229-.663.67-.243.441-.243 1.076Zm10.231 4.717q-1.121 0-1.931-.492t-1.247-1.374q-.438-.882-.438-2.065 0-1.175.431-2.067.43-.893 1.213-1.398.783-.506 1.836-.506.628 0 1.23.208.602.209 1.087.66.485.451.769 1.183.284.731.284 1.777v.526h-6.016v-1.08h5.298l-.636.376q0-.724-.229-1.285-.229-.561-.677-.878-.447-.318-1.11-.318-.664 0-1.135.321-.472.321-.721.848-.25.526-.25 1.128v.731q0 .813.284 1.381.283.567.793.861.509.294 1.179.294.431 0 .789-.126.359-.127.616-.38.256-.253.393-.629l1.299.335q-.178.581-.609 1.026-.43.444-1.066.694-.636.249-1.436.249Zm6.296-4.717v4.553h-1.368V93.896h1.361v4.403h-.205q.342-1.039.981-1.497.639-.458 1.528-.458.772 0 1.36.321.588.321.912.964.325.642.325 1.599v4.854h-1.374v-4.71q0-.854-.448-1.336-.447-.482-1.22-.482-.526 0-.947.229-.42.229-.663.67-.242.441-.242 1.076Zm6.989 4.553v-7.643h1.312l.021 1.744h-.103q.165-.636.503-1.05.338-.413.796-.618.458-.205.95-.205.834 0 1.347.512.513.513.677 1.388h-.171q.137-.602.506-1.025.369-.424.885-.65.516-.225 1.125-.225.67 0 1.216.287.547.287.869.868.321.581.321 1.463v5.154h-1.367v-5.059q0-.799-.445-1.148-.444-.349-1.039-.349-.492 0-.851.209-.359.208-.553.571-.195.362-.195.834v4.942h-1.354v-5.175q0-.622-.407-1.001-.406-.38-1.042-.38-.424 0-.8.202-.376.202-.605.595-.229.393-.229.981v4.778Zm15.593.164q-1.121 0-1.931-.492t-1.247-1.374q-.438-.882-.438-2.065 0-1.175.431-2.067.43-.893 1.213-1.398.783-.506 1.835-.506.629 0 1.231.208.602.209 1.087.66.485.451.769 1.183.284.731.284 1.777v.526h-6.016v-1.08h5.298l-.636.376q0-.724-.229-1.285-.229-.561-.677-.878-.447-.318-1.111-.318-.663 0-1.134.321-.472.321-.721.848-.25.526-.25 1.128v.731q0 .813.284 1.381.283.567.793.861.509.294 1.179.294.431 0 .789-.126.359-.127.616-.38.256-.253.393-.629l1.299.335q-.178.581-.609 1.026-.43.444-1.066.694-.636.249-1.436.249Zm6.302-4.717v4.553h-1.368v-7.643h1.306l.014 1.86h-.164q.341-1.039.981-1.497.639-.458 1.527-.458.773 0 1.357.321.585.321.91.964.324.642.324 1.599v4.854h-1.367v-4.71q0-.854-.448-1.336-.447-.482-1.22-.482-.526 0-.947.229-.42.229-.663.67-.242.441-.242 1.076Z" style="fill:#151419"/></svg>
