<svg width="156" height="156" viewBox="0 0 156 156" xmlns="http://www.w3.org/2000/svg"><defs><filter x="-13.8%" y="-13.8%" width="127.7%" height="127.7%" filterUnits="objectBoundingBox" id="a"><feOffset in="SourceAlpha" result="shadowOffsetOuter1"/><feGaussianBlur stdDeviation="5" in="shadowOffsetOuter1" result="shadowBlurOuter1"/><feColorMatrix values="0 0 0 0 0 0 0 0 0 0 0 0 0 0 0 0 0 0 0.16 0" in="shadowBlurOuter1" result="shadowMatrixOuter1"/><feMerge><feMergeNode in="shadowMatrixOuter1"/><feMergeNode in="SourceGraphic"/></feMerge></filter></defs><g filter="url(#a)" transform="translate(13 13)" fill="none" fill-rule="evenodd"><path d="M83.45 67.288c-1.296-.025-2.34-1.07-2.366-2.366V54.67c0-1.742-1.412-3.154-3.154-3.154H67.678c-1.296-.025-2.34-1.07-2.366-2.366 0-2.366 3.155-2.457 3.155-5.52 0-2.73-2.84-4.732-6.31-4.732-3.47 0-6.308 2.003-6.308 4.732 0 3.063 3.153 3.154 3.153 5.52-.025 1.296-1.07 2.34-2.365 2.366H46.386c-1.742 0-3.155 1.412-3.155 3.154v7.098c.027 1.296 1.07 2.34 2.367 2.365 2.366 0 2.457-3.154 5.52-3.154 2.73 0 4.732 2.838 4.732 6.308 0 3.47-2.004 6.31-4.733 6.31-3.063 0-3.154-3.156-5.52-3.156-1.296.025-2.34 1.07-2.366 2.366v13.406c0 1.742 1.414 3.155 3.156 3.155h10.252c1.296-.027 2.34-1.07 2.365-2.367 0-2.366-3.154-2.457-3.154-5.52 0-2.73 6.308-4.732 6.308-4.732s6.31 2.004 6.31 4.733c0 3.063-3.156 3.154-3.156 5.52.025 1.296 1.07 2.34 2.366 2.366H77.93c1.742 0 3.154-1.414 3.154-3.156V75.962c.025-1.296 1.07-2.34 2.366-2.365 2.366 0 2.457 3.154 5.52 3.154 2.73 0 4.732-2.838 4.732-6.308 0-3.47-2.003-6.31-4.732-6.31-3.063 0-3.154 3.156-5.52 3.156z" fill="#FFF" fill-rule="nonzero"/><circle stroke="#FFF" stroke-width="5" cx="65" cy="65" r="65"/></g></svg>
