<svg width="156" height="156" viewBox="0 0 156 156" xmlns="http://www.w3.org/2000/svg"><defs><filter x="-13.8%" y="-13.8%" width="127.7%" height="127.7%" filterUnits="objectBoundingBox" id="a"><feOffset in="SourceAlpha" result="shadowOffsetOuter1"/><feGaussianBlur stdDeviation="5" in="shadowOffsetOuter1" result="shadowBlurOuter1"/><feColorMatrix values="0 0 0 0 0 0 0 0 0 0 0 0 0 0 0 0 0 0 0.16 0" in="shadowBlurOuter1" result="shadowMatrixOuter1"/><feMerge><feMergeNode in="shadowMatrixOuter1"/><feMergeNode in="SourceGraphic"/></feMerge></filter></defs><g filter="url(#a)" transform="translate(13 13)" fill="none" fill-rule="evenodd"><path d="M76.375 41h-23.5C49.63 41 47 43.63 47 46.875v35.25C47 85.37 49.63 88 52.875 88h23.5c3.245 0 5.875-2.63 5.875-5.875v-35.25c0-3.245-2.63-5.875-5.875-5.875zm-8.813 44.063h-5.874v-2.938h5.874v2.938zm8.813-7.344c0 .81-.658 1.468-1.47 1.468h-20.56c-.812 0-1.47-.658-1.47-1.47V48.345c0-.81.658-1.47 1.47-1.47h20.56c.812 0 1.47.66 1.47 1.47V77.72z" fill="#FFF" fill-rule="nonzero"/><circle stroke="#FFF" stroke-width="5" cx="65" cy="65" r="65"/></g></svg>
