<svg width="65" height="65" viewBox="0 0 65 65" xmlns="http://www.w3.org/2000/svg"><defs><linearGradient x1="100%" y1="0%" x2="0%" y2="100%" id="a"><stop offset="0" stop-color="#9059ff"/><stop offset="1" stop-color="#20123a"/></linearGradient></defs><path d="M780.375 95c-16.335 0-29.625-13.29-29.625-29.625s13.29-29.625 29.625-29.625S810 49.04 810 65.375 796.71 95 780.376 95m0-62c17.852 0 32.375 14.523 32.375 32.375S798.227 97.75 780.375 97.75 748 83.227 748 65.375 762.523 33 780.375 33zm9.6 25.85h-1.34v-3.42c0-4.58-3.705-8.305-8.26-8.305s-8.26 3.726-8.26 8.306v3.42h-1.34a2.784 2.784 0 0 0-2.775 2.788v13.104a2.786 2.786 0 0 0 2.775 2.79h19.2a2.786 2.786 0 0 0 2.775-2.79V61.638a2.786 2.786 0 0 0-2.775-2.79zm-.032 2.788l.032 13.073-19.168.032-.042-13.073.01-.377v.375l19.168-.03zm-9.568-11.694c3.058 0 5.454 2.41 5.454 5.487v3.42h-10.91v-3.42c0-3.076 2.395-5.486 5.453-5.486zm0 13.043c-1.91 0-3.46 1.56-3.46 3.478 0 .672.23 1.333.686 1.966v2.173a2.786 2.786 0 0 0 2.774 2.79 2.786 2.786 0 0 0 2.775-2.79V68.43c.455-.632.686-1.293.686-1.965 0-1.918-1.553-3.478-3.462-3.478zm.937 4.522a.677.677 0 0 0-.22.494v2.6c0 .416-.302.72-.717.72a.695.695 0 0 1-.717-.72v-2.598a.687.687 0 0 0-.22-.497 1.4 1.4 0 0 1-.466-1.045c0-.79.615-1.41 1.403-1.41s1.404.62 1.404 1.41c0 .4-.168.772-.468 1.044z" transform="translate(-748 -33)" fill="url(#a)" fill-rule="evenodd"/></svg>