<svg width="65" height="65" viewBox="0 0 65 65" xmlns="http://www.w3.org/2000/svg"><defs><linearGradient x1="100%" y1="0%" x2="0%" y2="100%" id="a"><stop offset="0" stop-color="#9059ff"/><stop offset="1" stop-color="#20123a"/></linearGradient></defs><path d="M428.375 33c17.852 0 32.375 14.523 32.375 32.375S446.227 97.75 428.375 97.75C410.525 97.75 396 83.227 396 65.375S410.524 33 428.375 33zm0 2.75c-16.335 0-29.625 13.29-29.625 29.625S412.04 95 428.375 95 458 81.71 458 65.375 444.71 35.75 428.375 35.75zm7.498 34.3l.334-6.375a7.8 7.8 0 0 1 .684.295c.444.242.835.542 1.306 1.002 2.068 2.248 2.294 6.2 2.267 8.144-1.02-.067-2.33-.413-3.346-1.255-.014-.008-.047-.048-.072-.078a1.81 1.81 0 0 0-.136-.15c-.41-.4-.74-.905-1.037-1.583zm-11.826-13.597c0-4.147 4.282-6.342 4.99-6.55.708.208 4.986 2.396 4.99 6.48l-.83 15.973h-8.38l-.77-15.903zM417.5 73c.065-4.668 1.29-6.975 2.31-8.08.37-.362.816-.704 1.298-1 .242-.12.475-.22.7-.305l.334 6.39c-.24.675-.577 1.144-1.097 1.507l-.29.285c-1.03.914-2.365 1.154-3.254 1.202zm-2.444 1.398l-.012-.177c-.133-2.223-.11-7.747 2.958-11.014a6.767 6.767 0 0 1 2.75-1.877c.254-.127.564-.2.864-.272l.09-.02-.228-4.566c0-5.412 5.123-8.67 7.303-9.11l.44-.007c2.607.52 7.377 4.095 7.377 9.098l-.227 4.56c.3.067.6.168.967.322 1.068.458 2.012 1.104 2.735 1.87 0 .002 0 .003.002.004 3.024 3.273 3.073 8.795 2.955 11.017l-.007.11c-.088.63-.523 1.06-1.11 1.142l-.112.01c-.16.017-.48.052-.91.052-1.157 0-2.877-.205-4.498-1.183-.144-.105-.275-.19-.406-.276a14.67 14.67 0 0 1-.26-.173c-.116.556-.638.978-1.263.978H423.61c-.613 0-1.13-.407-1.254-.95a2.424 2.424 0 0 1-.73.45c-1.565.95-3.284 1.154-4.442 1.154-.428 0-.75-.035-.91-.053-.018 0-.094-.01-.112-.01a1.343 1.343 0 0 1-1.106-1.082zm19.115 1.988c.224-.143.58.035.578.316v.475c0 3.207-3.914 7.254-4.804 8.132-.13.213-.39.44-.907.44-.377 0-.7-.12-.93-.344-.808-.793-4.84-4.91-4.84-8.17v-.475c0-.206.167-.374.374-.374h1.82c.207 0 .375.168.375.375 0 .118-.018.216-.038.313-.01.052-.022.103-.022.164 0 1.384 1.608 3.7 3.197 5.393 1.536-1.692 3.207-4.01 3.207-5.393 0-.098 0-.26-.022-.308a.393.393 0 0 1 .027-.365.379.379 0 0 1 .308-.18h1.678zm-5.133-14.924c1.625 0 3.054-1.123 3.395-2.66.065-.256.133-.52.133-.804 0-.106-.024-.197-.042-.27a1.05 1.05 0 0 1-.02-.087c0-.01 0-.033-.002-.044-.2-1.65-1.69-2.995-3.402-3.062-1.78 0-3.223 1.26-3.457 3.005-.07.172-.07.335-.07.458 0 .257 0 .522.07.794.343 1.547 1.772 2.67 3.397 2.67zm-.898-3.464c0-.45.436-.873.897-.873.434 0 .898.35.898.873 0 .522-.464.873-.898.873-.46 0-.898-.423-.898-.872z" transform="translate(-396 -33)" fill-rule="evenodd" fill="url(#a)"/></svg>