<svg width="65" height="65" viewBox="0 0 65 65" xmlns="http://www.w3.org/2000/svg"><defs><linearGradient x1="100%" y1="0%" x2="0%" y2="100%" id="a"><stop offset="0" stop-color="#9059ff"/><stop offset="1" stop-color="#20123a"/></linearGradient></defs><path d="M79.625 56.946a1.378 1.378 0 0 1-1.375-1.397v-3.003a1.365 1.365 0 0 1 1.224-1.39 1.376 1.376 0 0 1 1.527 1.397v3c.008.49-.253.954-.68 1.204a1.39 1.39 0 0 1-.695.186zm-7.477 2.99c-.367 0-.725-.147-.987-.417l-1.997-2.002a1.384 1.384 0 0 1-.344-1.44 1.373 1.373 0 0 1 2.284-.512l1.998 2.002a1.377 1.377 0 0 1-.954 2.369zm-5.544 6.477a1.376 1.376 0 0 1-1.36-1.314 1.38 1.38 0 0 1 1.302-1.443h3.115c.457-.014.955.254 1.205.683.25.43.25.96 0 1.39a1.38 1.38 0 0 1-1.21.682h-3.052zm23.014 0a1.377 1.377 0 0 1-1.36-1.314 1.382 1.382 0 0 1 1.303-1.443h3.116c.492-.022.953.254 1.203.683.248.43.248.96 0 1.39-.25.428-.7.676-1.21.682h-3.052zm-5.635-5.753l-4.147 2.54c-.122.077-.26.135-.404.17-.82.178-1.433.896-1.433 1.672 0 .914.713 1.63 1.625 1.63.947 0 1.583-.94 1.646-1.343a1.37 1.37 0 0 1 .172-.506l2.54-4.164zm-4.358 8.78a4.388 4.388 0 0 1-4.377-4.387c0-1.917 1.337-3.655 3.253-4.228l8.918-5.475a1.4 1.4 0 0 1 .603-.194c.52-.048 1.01.205 1.285.648.273.442.275.994.006 1.438l-5.476 8.98c-.452 1.61-1.92 3.217-4.21 3.217zm7.51 2.767c.298 0 .594.1.83.28l3.463 2.7c2.508-2.91 3.832-6.403 3.832-10.124 0-8.638-7.014-15.666-15.635-15.666-8.62 0-15.635 7.028-15.635 15.666 0 3.72 1.324 7.214 3.832 10.123l3.458-2.697a1.38 1.38 0 0 1 .836-.283h15.018zm-19.518 6.256c-.35 0-.7-.133-.966-.393-3.49-3.498-5.41-8.115-5.41-13.003 0-10.158 8.247-18.42 18.385-18.42 10.138 0 18.386 8.262 18.386 18.42 0 4.888-1.92 9.505-5.408 13a1.384 1.384 0 0 1-1.81.11l-4.12-3.21H72.578l-4.12 3.21c-.248.19-.545.286-.84.286zM79.625 35C63.29 35 50 48.29 50 64.625S63.29 94.25 79.625 94.25c16.336 0 29.626-13.29 29.626-29.625S95.96 35 79.626 35zm0 62C61.773 97 47.25 82.477 47.25 64.625c0-17.85 14.523-32.375 32.375-32.375S112 46.774 112 64.625C112 82.477 97.477 97 79.625 97z" transform="translate(-47 -32)" fill="url(#a)" fill-rule="evenodd"/></svg>