<svg width="65" height="65" viewBox="0 0 65 65" xmlns="http://www.w3.org/2000/svg"><defs><linearGradient x1="79.913%" y1="9.712%" x2="21.854%" y2="77.379%" id="a" gradientTransform="matrix(1.2638 -.19052 -.39348 1.31435 .028 .025)"><stop offset="0" stop-color="#9059ff"/><stop offset="1" stop-color="#20123a"/></linearGradient></defs><path d="M808.5 628c-17.95 0-32.5-14.55-32.5-32.5s14.55-32.5 32.5-32.5 32.5 14.55 32.5 32.5-14.55 32.5-32.5 32.5zm0-2.826c16.388 0 29.674-13.286 29.674-29.674 0-16.388-13.286-29.674-29.674-29.674-16.388 0-29.674 13.286-29.674 29.674 0 16.388 13.286 29.674 29.674 29.674zm-4.38-40.272c-.142-.848.282-1.554 1.13-1.695.99-.283 2.12-.424 3.25-.424 10.598 0 16.533 11.587 16.815 12.152a1.96 1.96 0 0 1 0 1.272c-.848 1.695-1.978 3.25-3.25 4.804-.282.282-.706.565-1.13.565-.283 0-.707-.141-.848-.283-.565-.565-.707-1.413-.141-1.978.989-1.13 1.837-2.26 2.543-3.532-1.272-2.261-6.359-9.892-13.989-9.892-.848 0-1.837.142-2.685.283-.706-.141-1.413-.565-1.695-1.272zm20.913 27.13c-.283.283-.566.425-.99.425-.423 0-.706-.142-.989-.424l-6.358-6.36c-2.403 1.697-5.229 2.544-8.196 2.544-10.598 0-16.533-11.587-16.815-12.152a1.96 1.96 0 0 1 0-1.272c1.554-2.967 3.815-5.652 6.358-7.771l-6.076-6.076a1.366 1.366 0 0 1 0-1.979 1.366 1.366 0 0 1 1.979 0l31.087 31.087a1.366 1.366 0 0 1 0 1.979zm-19.5-16.39c0 .706.282 1.412.847 1.978.848.706 1.837.847 2.827.565l-3.533-3.533c0 .424-.141.707-.141.99zm9.184 8.054l-3.39-3.25c-.849.565-1.98.847-2.968.847-1.413 0-2.826-.565-3.816-1.554-1.13-.989-1.695-2.402-1.836-3.956 0-1.13.282-2.261.847-3.25L800.022 589a27.42 27.42 0 0 0-5.511 6.5c1.272 2.26 6.359 9.891 13.989 9.891 2.12 0 4.24-.565 6.217-1.695z" transform="translate(-776 -563)" fill="url(#a)" fill-rule="evenodd"/></svg>