<svg width="435" height="222" fill="none" xmlns="http://www.w3.org/2000/svg"><rect x="11" y="40" width="385" height="172" rx="3.143" stroke="#0090ED" stroke-width="5.238" stroke-dasharray="11.79 11.79"/><path d="M420.287 7.374c0-.623.316-1.192.841-1.522l3.183-1.988c.288-.178.615-.273.954-.273h4.717V0h-4.717a5.395 5.395 0 0 0-2.855.819l-3.184 1.99c-.272.17-.502.388-.735.601-.235-.213-.462-.43-.735-.6L414.57.819A5.398 5.398 0 0 0 411.717 0H407v3.591h4.717c.336 0 .667.095.954.273l3.183 1.988c.528.33.844.899.844 1.522v29.061c0 .624-.316 1.192-.844 1.523l-3.186 1.988a1.804 1.804 0 0 1-.954.273H407v3.59h4.717a5.4 5.4 0 0 0 2.856-.818l3.183-1.988c.275-.172.502-.39.735-.6.233.21.463.428.735.6l3.186 1.99a5.4 5.4 0 0 0 2.856.82h4.714v-3.591h-4.717c-.336 0-.666-.095-.954-.273l-3.183-1.988c-.528-.33-.841-.9-.841-1.523V7.375ZM109.439 176.771c7.899 0 15.382-6.473 15.382-16.688 0-10.214-7.365-16.688-15.441-16.688-4.336 0-7.958 1.96-10.096 5.108v-4.454h-8.077v44.897h8.136v-16.747c2.138 2.969 5.761 4.572 10.096 4.572Zm-1.663-7.72c-5.048 0-8.908-4.038-8.908-9.027 0-4.989 3.86-9.027 8.908-9.027 4.929 0 8.849 3.979 8.849 9.027 0 5.048-3.92 9.027-8.849 9.027Zm21.321 7.067h8.136v-16.925c0-5.405 2.732-7.543 6.948-7.543 1.841 0 3.385.475 4.276 1.129l2.969-8.077c-1.365-.713-3.266-1.247-5.404-1.247-4.098 0-7.305 1.722-8.849 5.523v-4.929h-8.076v32.069Zm25.478 0h8.374v-32.069h-8.374v32.069Zm-1.069-41.096c0 3.028 2.138 5.226 5.226 5.226 3.148 0 5.286-2.198 5.286-5.226 0-3.088-2.138-5.345-5.286-5.345-3.029 0-5.226 2.257-5.226 5.345Zm14.89 41.096h8.255v-17.697c0-4.989 2.97-7.84 6.83-7.84 4.335 0 6.533 2.851 6.533 7.424v18.113h8.373v-19.36c0-8.374-4.81-13.363-12.412-13.363-3.979 0-7.305 1.782-9.383 4.692v-4.038h-8.196v32.069Zm32.397-24.824h5.938v13.481c0 8.73 3.92 11.937 10.631 11.937 2.969 0 5.582-.891 7.661-2.435l-3.742-6.414c-.95.832-1.841 1.188-2.969 1.188-2.079 0-3.504-1.188-3.504-4.573v-13.184h8.433v-7.245h-8.433v-11.7l-8.077 4.751v6.949h-5.938v7.245Zm24.069 13.303h21.973v-7.067h-21.973v7.067Zm23.121-13.184h5.285v24.705h8.136v-24.705h7.721v-7.364h-7.721v-1.544c0-4.87.654-5.702 6.355-5.702h1.366v-7.483h-2.138c-10.453 0-13.719 3.207-13.719 13.6v1.129h-5.285v7.364Zm25.169 24.705h8.136v-16.925c0-5.405 2.732-7.543 6.949-7.543 1.841 0 3.385.475 4.276 1.129l2.969-8.077c-1.366-.713-3.266-1.247-5.404-1.247-4.098 0-7.305 1.722-8.849 5.523v-4.929h-8.077v32.069Zm38.786.653c7.067 0 11.581-2.91 14.788-7.423l-6.711-3.92c-1.604 2.613-4.157 4.276-7.958 4.276-4.751 0-8.136-2.613-9.205-6.77h25.477v-3.088c0-9.502-6.948-16.451-16.569-16.451-9.562 0-16.807 7.424-16.807 16.748 0 9.324 6.652 16.628 16.985 16.628Zm-.178-26.427c4.276 0 7.364 2.197 8.433 6.176h-17.104c1.307-3.741 4.514-6.176 8.671-6.176Zm36.85 26.427c7.067 0 11.58-2.91 14.787-7.423l-6.71-3.92c-1.604 2.613-4.158 4.276-7.958 4.276-4.751 0-8.137-2.613-9.206-6.77h25.478v-3.088c0-9.502-6.949-16.451-16.569-16.451-9.562 0-16.807 7.424-16.807 16.748 0 9.324 6.651 16.628 16.985 16.628Zm-.178-26.427c4.276 0 7.364 2.197 8.433 6.176h-17.104c1.307-3.741 4.513-6.176 8.671-6.176ZM35.91 117h29.338v-7.958H44.64c.238-3.979 4.632-6.533 9.383-9.443 5.523-3.325 11.403-7.067 11.403-14.075 0-7.007-5.345-12.471-14.49-12.471-7.365 0-12.888 3.86-15.798 9.74l7.424 3.622c1.425-3.504 4.275-6.117 8.254-6.117 3.98 0 6.177 2.138 6.177 5.167 0 3.504-4.098 5.88-8.909 8.849-5.76 3.504-12.174 7.839-12.174 15.678V117Zm50.468-7.423c-5.285 0-8.552-2.911-8.552-13.6v-1.782c0-10.215 3.445-13.184 8.612-13.184 5.048 0 8.492 2.672 8.492 13.184v1.782c0 10.571-3.266 13.6-8.552 13.6Zm0 8.017c9.918 0 16.985-5.583 16.985-21.499v-2.019c0-14.847-7.305-21.023-16.985-21.023-9.502 0-16.925 5.998-16.925 21.023v2.02c0 15.737 6.889 21.498 16.925 21.498ZM107.05 117h29.337v-7.958H115.78c.237-3.979 4.632-6.533 9.383-9.443 5.523-3.325 11.402-7.067 11.402-14.075 0-7.007-5.344-12.471-14.49-12.471-7.364 0-12.887 3.86-15.797 9.74l7.423 3.622c1.425-3.504 4.276-6.117 8.255-6.117 3.979 0 6.176 2.138 6.176 5.167 0 3.504-4.097 5.88-8.908 8.849-5.76 3.504-12.174 7.839-12.174 15.678V117Zm47.954.594c9.799 0 15.738-5.761 15.738-13.303 0-4.632-2.376-7.899-6.176-9.858 3.147-2.079 5.107-5.286 5.107-9.265 0-7.245-5.642-12.115-14.966-12.115-6.651 0-11.877 2.91-15.025 7.72l6.948 4.157c1.663-3.028 4.217-4.75 8.137-4.75 4.454 0 6.592 2.375 6.592 5.226 0 3.206-2.376 5.641-6.949 5.641h-4.454v7.543h4.811c4.513 0 7.542 2.078 7.542 5.523 0 3.622-3.029 5.879-7.305 5.879-3.979 0-7.008-1.484-9.146-4.988l-7.007 5.166c3.741 4.989 8.492 7.424 16.153 7.424Zm41.557-.594h7.839l7.72-20.905L219.781 117h7.721l10.868-32.07h-8.315l-6.71 21.024-7.483-21.023h-7.305l-7.602 20.904-6.473-20.904h-8.314L196.561 117Zm44.887 0h8.374V84.93h-8.374V117Zm-1.069-41.097c0 3.03 2.138 5.227 5.226 5.227 3.148 0 5.286-2.198 5.286-5.227 0-3.088-2.138-5.344-5.286-5.344-3.028 0-5.226 2.256-5.226 5.344ZM255.154 117h8.195V70.202h-8.195V117Zm13.647 0h8.195V70.202h-8.195V117Zm44.599.653c7.898 0 15.381-6.473 15.381-16.688s-7.364-16.688-15.441-16.688c-4.335 0-7.898 1.96-10.036 5.048V70.143h-8.137V117h8.077v-4.454c2.138 3.207 5.88 5.107 10.156 5.107Zm-1.663-7.72c-5.048 0-8.908-4.039-8.908-9.027 0-4.989 3.86-9.027 8.908-9.027 4.929 0 8.849 3.979 8.849 9.027 0 5.048-3.92 9.027-8.849 9.027Zm37.353 7.72c7.068 0 11.581-2.91 14.788-7.423l-6.711-3.92c-1.603 2.613-4.157 4.276-7.958 4.276-4.751 0-8.136-2.613-9.205-6.77h25.478v-3.088c0-9.502-6.949-16.45-16.57-16.45-9.561 0-16.807 7.423-16.807 16.747s6.652 16.628 16.985 16.628Zm-.178-26.427c4.276 0 7.364 2.197 8.433 6.176h-17.103c1.306-3.742 4.513-6.176 8.67-6.176Z" fill="#F8F6F4"/><g clip-path="url(#a)" fill="#F8F6F4"><path d="M39.743 172.556c.324 0 .648-.056.966-.166l9.264-3.217L68.86 149.53c1.97-2.051 1.97-5.392 0-7.444L66 139.111a4.934 4.934 0 0 0-7.157 0l-18.886 19.646-3.09 9.644a3.229 3.229 0 0 0 .734 3.228 2.971 2.971 0 0 0 2.142.927Zm21.486-30.961a1.638 1.638 0 0 1 2.382 0l2.864 2.978a1.803 1.803 0 0 1 0 2.479l-2.874 2.992-5.249-5.459 2.877-2.99Zm-18.326 19.059 13.06-13.585 5.247 5.456-13.06 13.589-7.872 2.731 2.625-8.191ZM72.983 174.489l-4.84 1.539a11.362 11.362 0 0 1-5.767.297l-5.619-1.17c-3.29-.682-6.762-.2-9.765 1.361-3.325 1.729-7.335 1.055-9.966-1.684l-.138-.143-2.247 2.627c2.307 2.397 5.375 3.66 8.486 3.66a11.58 11.58 0 0 0 5.373-1.325 11.452 11.452 0 0 1 7.596-1.055l5.618 1.17a14.66 14.66 0 0 0 7.413-.387l4.841-1.538-.985-3.352Z"/></g><path stroke="#FFFFF2" stroke-width="1.06" d="M375.53 126.118v58.326"/><defs><clipPath id="a"><path fill="#fff" transform="translate(33 137.118)" d="M0 0h43.176v44.911H0z"/></clipPath></defs></svg>