<svg xmlns="http://www.w3.org/2000/svg" width="273" height="266" fill="none" viewBox="0 0 273 266">
  <path fill="#F9BFD1" d="M214 235.756c-1.088-.769-60.258 11.443-71.126 5.348-8.853-4.965 18.941-23.908 6.848-30.359-27.04-14.426-58.5314-30.268-78.157-37.24-58.0438-20.62-65.71071-52.213-61.65807-76.1568C13.9596 73.404 26.6965 88.961 42.8588 72.4138 59.0211 55.8665 110.548 21.0187 155.85 22.8816c45.303 1.863 67.496 3.0136 69.474 22.4648 1.978 19.4513-10.035 31.1768-35.895 25.6976-25.859-5.4792-58.28-10.5749-53.359-17.4239 4.921-6.9039 5.874-9.2051 14.413-8.2737 3.694.4029-4.839 4.4418.805 2.1405 5.645-2.3012-3.589-5.9823-8.414-6.4754-4.824-.4384 8.414 2.727-16.886 12.6086-26.5829 15.1226-42.7957 19.6156-46.4142 38.0257-3.6184 18.4102 20.6012 54.2442 53.4082 73.3672 32.807 19.122 89.593 52.456 87.518 57.113-2.026 4.658-6.5 13.63-6.5 13.63z"/>
  <path fill="#EF4056" d="M219 224.398c-2.711-1.429-121.5748-54.728-158.7723-68.919-37.1975-14.191-52.16057-42.782-46.5158-65.6856 5.6447-22.9032 19.3052-36.0091 62.5817-54.6384C119.57 16.5256 194.978 9.34782 211.189 25.0732c16.21 15.7254 33.868 39.1217 14.136 48.272 0 0-67.158-.8219-75.939-6.8491-8.781-5.9723-21.134-13.173-16.213-17.2824 4.921-4.1095 32.761 5.3377 51.577 6.7075 18.816 1.3698 33.386-5.8079 10.373-13.4789-23.013-7.6709-48.825-7.2325-69.571 0-15.535 5.4245-28.9952 15.2871-43.5172 25.862-14.522 10.5749-28.658 22.41-26.2457 42.1357 2.4123 19.725 45.4959 19.78 72.6099 31.286 27.114 11.506 97.101 69.043 97.101 69.043l-6.5 13.629z"/>
  <path fill="#FCB643" d="M222.5 218.719c-2.026-3.013-72.97-50.364-133.1805-69.213-60.2107-18.793-82.59955-38.135-72.5644-72.4897 7.4781-25.588 1.8361-1.8082 19.2046-16.9308C53.3282 44.9628 89.416 7.70414 148.421 10.5533c59.004 2.8492 82.596 7.7805 89.881 21.095 7.286 13.3145 16.549 32.5466 0 36.2177-16.548 3.6711-51.43 6.5203-70.969 1.8081-22.627-5.4244-47.707-18.3816-44.813-20.2446 0 0 42.383 9.1845 50.699 10.6361 8.315 1.4515 39.61 5.9375 44.868-3.2128 5.259-9.1503-8.491-22.4649-31.504-25.2045-23.013-2.7396-50.465-7.4517-84.72 9.0408-21.9997 10.5201-38.4032 25.314-52.5392 36.3272C31.907 90.6048 33.5474 111.261 55.7887 110.44c22.2413-.822 94.3683 36.327 111.5923 42.299C184.605 158.711 231 201.115 231 201.115l-8.5 17.604z"/>
  <path fill="#1CB0A8" d="M229.5 205.09s-66.268-52.844-105.443-61.994c-39.1758-9.151-96.5401-15.068-104.9831-44.6012-9.0219-31.5603 10.0834-12.3282 10.0834-12.3282 2.943-1.8082 0-12.7118 21.8553-32.6562 22.8203-20.821 49.5004-33.4233 90.0264-34.2999 40.527-.8767 72.321 1.8081 84.961 13.7528 9.746 9.2051 17.755 33.9712-12.93 35.341-30.684 1.3698-74.473-11.3914-84.652-17.3638-10.229-5.9724-13.506 5.6121 31.727 23.7745 23.061 6.4107 74.009 14.246 85.298-1.3698 11.29-15.6158 23.399-49.0938-24.267-60.5454-47.667-11.4516-108.168-14.68434-144.7378 0-36.5703 14.6843-50.5616 40.3819-52.1537 59.1756-1.5921 18.7937 11.4342 37.0946 25.136 40.0536 13.7501 2.958 77.0965 3.506 94.8995 9.479 17.803 5.972 58.198 37.738 64.18 46.669 5.982 8.932 25.5 25.876 25.5 25.876l-4.5 11.037z"/>
  <path fill="#95D2FF" d="M205.74 161.502c-12.448-14.301-35.799-48.601-77.676-61.6964-41.1055-12.8214-69.2811-9.5886-81.1013-10.0818-49.74137-2.1916-36.0396-33.5876-29.4781-44.0529C24.046 35.2056 51.4496 5.72731 133.419.741218 215.823-4.29967 274.779 16.7954 272.367 51.0953c-2.412 34.3-57.364 45.9707-92.101 37.2587-52.202-13.0921-69.765-34.6672-67.594-37.8452 2.123-3.2327 13.506 3.6695 30.246 12.951 16.74 9.2815 103.203 29.9351 108.848-6.7757 5.645-36.7108-50.079-45.8611-99.724-46.79257C106.305 9.06964 61.5329 30.0551 38.9057 48.9036 28.967 57.1772.116077 105.614 61.5329 117.723c61.4171 12.109 80.4261 2.301 111.4481 25.697 31.022 23.397 61.791 53.807 63.019 52.016 1.228-1.791-17.813-19.634-30.26-33.934z"/>
  <path fill="#A5CFEE" d="M44.3933 44.8264S-6.83323 77.7059 85.9987 92.2189c18.5743 9.1501-33.0176 22.6731-43.1975 19.4951-9.6491-3.013-34.25446-23.7662-31.9869-43.2174 3.5702-31.1767 33.579-23.6702 33.579-23.6702z"/>
  <path fill="#FFC0D1" d="M142.493 49.8613c-12.783.8634-33.606 11.7278-42.42 17.0521 0-2.3744 1.218-8.2455 6.087-12.7351 6.088-5.6121 19.023-14.8937 36.333-14.462 17.311.4317 15.979 9.0657 0 10.145z"/>
  <path fill="#95D2FF" d="M99.6234 222.296s-10.2347-16.557-36.6715-5.855c0 0-14.5695-.729-21.3138 3.7 0 0 6.1363-10.114 9.09-16.953 2.9537-6.84 7.1647-15.225 7.1647-15.225l-14.3706-12.678-1.8841 1.452-3.937-5.74-1.8315 3.202-7.7201 19.219s-15.3614 22.989-22.10568 32.089c-6.744306 9.101-9.27389 18.666 0 24.888 9.27388 6.218 22.92758 7.316 39.07338 6.682l57.4558-2.249-2.9496-32.532z"/>
  <path fill="#fff" d="M216.772 231.363l-6.586-15.097 18.093-45.738 10.227 14.13-21.734 46.705zm-22.972 5.238l1.279-16.332 11.894-.835 4.766 14.041-17.939 3.126zm-3.179-2.555l-4.222 1.32 2.131-13.734h3.487l-1.396 12.414zm37.696-70.783l-21.19 52.381h-20.725l-3.835 27.643 36.844-3.522 24.676-55.686-15.77-20.816z"/>
  <path fill="#fff" d="M210.846 216.262l5.968 13.644 20.998-45.163-9.375-12.984-17.591 44.503zm5.927 15.761c-.233 0-.428-.132-.503-.354l-6.587-15.096c-.079-.175-.079-.397 0-.571l18.094-45.738c.078-.222.27-.354.465-.396.195-.043.387.042.544.221l10.227 14.131c.154.221.154.485.079.749l-21.734 46.705c-.161.217-.353.349-.585.349zm-27.777-9.727l-1.858 12.15 2.984-.924 1.238-11.226h-2.364zm-2.635 13.73c-.154 0-.27-.043-.386-.175-.154-.132-.233-.396-.196-.617l2.132-13.734c.038-.307.27-.528.582-.528h3.487c.153 0 .311.089.427.221.117.132.154.354.154.528l-1.396 12.414c-.037.264-.195.486-.428.571l-4.222 1.32h-.154zm9.259-15.097l-1.163 14.922 16.502-2.861-4.376-12.853-10.963.792zm-1.82 16.332c-.154 0-.27-.043-.387-.175-.116-.132-.195-.353-.195-.528l1.28-16.332c.037-.306.27-.57.544-.617l11.894-.835c.232 0 .503.132.581.439l4.767 14.041c.079.174.037.396-.038.57-.075.175-.232.307-.428.307l-17.936 3.126c-.045.004-.045.004-.082.004zm-6.936-20.953l-3.64 26.281 35.797-3.433 24.327-54.979-14.877-19.722-20.841 51.457c-.079.222-.312.396-.544.396h-20.222zm-4.301 27.643c-.154 0-.311-.089-.428-.221-.116-.132-.195-.353-.154-.571l3.836-27.643c.038-.306.27-.57.582-.57h20.379l21.074-52.033c.078-.221.232-.353.465-.396.195-.042.387.043.503.222l15.729 20.82c.154.222.195.486.079.75l-24.677 55.686c-.078.222-.27.354-.465.354l-36.844 3.522-.079.08z"/>
  <path fill="#fff" d="M195.387 225.507c-.311 0-.544-.264-.581-.617-.038-.354.195-.66.544-.703l12.629-1.188c.312-.043.582.221.619.618.038.353-.195.66-.544.702l-12.629 1.188h-.038z"/>
  <path fill="#fff" d="M199.921 235.413c-.312 0-.544-.264-.582-.571l-1.238-13.644c-.038-.354.195-.703.503-.703.311-.043.619.222.619.571l1.238 13.644c.038.354-.195.703-.503.703h-.037z"/>
  <path fill="#fff" d="M205.149 235.234c-.27 0-.503-.222-.582-.528l-2.634-14.088c-.079-.353.116-.703.465-.792.312-.089.619.132.698.528l2.635 14.088c.079.353-.116.702-.465.792h-.117z"/>
  <path fill="#fff" d="M194.96 232.023c-.312 0-.545-.264-.582-.571-.038-.353.195-.702.503-.702l14.374-1.716c.311-.043.619.221.619.57.038.354-.195.703-.503.703l-14.374 1.716h-.037z"/>
  <path fill="#fff" d="M182.563 187.959s-.968 4.799 2.984 7.925c2.131 1.674.773 4.007-1.858 2.772-4.571-2.112-3.719-6.251-3.719-6.251"/>
  <path fill="#fff" d="M185.044 199.67c-.466 0-1.006-.132-1.588-.396-4.958-2.287-4.106-6.954-4.068-6.997l1.122.307c-.038.132-.657 3.611 3.37 5.502 1.085.485 1.858.307 2.053-.132.154-.354 0-.924-.735-1.495-4.26-3.347-3.254-8.585-3.217-8.628l1.122.307-.581-.132.581.132c-.037.174-.814 4.403 2.751 7.265 1.434 1.099 1.472 2.423 1.085 3.215-.27.567-.927 1.052-1.895 1.052z"/>
  <path fill="#fff" d="M172.028 160.622c-7.671-2.333-12.629 2.641-17.549 14.791-2.365 5.766-2.635 12.06-.62 16.421 2.207 4.8 7.518 8.671 9.687 10.344 4.144 3.126 15.069-1.188 18.094-10.829 3.017-9.727 4.642-26.37-9.612-30.727z"/>
  <path fill="#fff" d="M168.579 160.712c-5.307 0-9.375 4.62-13.56 14.965-2.323 5.634-2.556 11.711-.657 15.846 2.016 4.357 6.741 7.968 9.026 9.727l.466.353c1.512 1.146 4.301 1.188 7.206.09 3.682-1.41 8.253-4.885 9.994-10.609.969-3.125 3.873-13.955.195-21.923-1.82-3.918-4.957-6.601-9.375-7.968-1.126-.264-2.248-.481-3.295-.481zm-1.55 43.136c-1.513 0-2.867-.396-3.836-1.099l-.465-.354c-2.365-1.805-7.285-5.591-9.413-10.212-2.09-4.488-1.82-11.004.619-16.992 5.307-13.117 10.577-17.52 18.207-15.186 4.725 1.452 8.136 4.356 10.111 8.628 3.798 8.232 1.163 18.797-.154 22.979-1.899 6.12-6.778 9.906-10.73 11.401-1.472.571-2.984.835-4.339.835z"/>
  <path fill="#010101" d="M167.066 148.562c4.377-1.231 10.149-.617 12.089 3.126 1.899 3.743-1.084 11.226-8.486 13.427-7.401 2.202-11.041-2.508-10.962-8.538.037-4.45 7.359-8.015 7.359-8.015z"/>
  <path fill="#010101" d="M179.076 190.292c.428 0 .736-.396.736-.834 0-.486-.349-.835-.736-.835-.427 0-.735.396-.735.835 0 .438.311.834.735.834z"/>
  <path fill="#010101" d="M172.028 160.622c-9.57-1.32-12.629 2.641-17.549 14.791-2.365 5.766-2.635 12.06-.62 16.417.774 1.716 2.016 3.347 3.292 4.752 2.439-.174 4.766-1.584 5.54-2.069 1.471-.967 1.396-2.773 1.279-5.064-.116-2.287.545-4.092 1.629-5.677 1.085-1.626 3.292-2.286 5.851-.396 2.556 1.849 5.116 3.126 8.794 1.938 1.122-.353 2.169-1.099 3.137-2.023 1.119-9.024-.274-21.169-11.353-22.669z"/>
  <path fill="#000" d="M168.695 161.019c-6.662 0-9.375 3.96-13.676 14.658-2.323 5.634-2.556 11.707-.657 15.846.619 1.41 1.629 2.862 2.984 4.357 2.053-.222 4.031-1.32 5.036-1.98 1.085-.703 1.085-2.07.969-4.404v-.089c-.117-2.245.465-4.225 1.745-6.12 1.201-1.806 3.719-2.687 6.624-.528 2.672 1.938 4.999 2.904 8.328 1.891 1.047-.307 2.016-1.056 2.751-1.716 1.123-9.42-1.201-14.527-2.713-16.771-1.858-2.772-4.609-4.446-8.174-4.931-1.126-.124-2.211-.213-3.217-.213zm-11.777 36.271l-.195-.222c-1.55-1.674-2.672-3.347-3.408-4.931-2.053-4.489-1.82-11.005.619-16.992 5.074-12.589 8.407-16.554 18.131-15.187 3.874.528 6.857 2.334 8.948 5.413 3.798 5.592 3.449 13.692 2.905 18.006l-.038.264-.195.174c-.852.792-2.015 1.759-3.37 2.112-4.106 1.321-6.936-.353-9.259-2.022-2.44-1.806-4.26-1.014-5.074.221-1.122 1.674-1.588 3.347-1.513 5.281v.089c.117 2.287.195 4.489-1.587 5.592-1.164.749-3.408 1.98-5.81 2.155l-.154.047z"/>
  <path fill="#010101" d="M172.918 202.221c-.196 0-.35-.089-.466-.264-2.83-4.357-1.006-11.575-.931-11.886.079-.353.428-.528.736-.439.311.09.465.486.387.835 0 .09-1.746 6.865.735 10.698.195.307.154.703-.116.924-.113.089-.229.132-.345.132z"/>
  <path fill="#fff" d="M183.689 209.572l-.619.042c-.117-.881-.233-1.805-.503-2.64-.774-2.64-2.556-.835-2.556-.835-.233-1.099-.544-2.423-.931-3.918-1.047-4.182-2.597-4.139-2.942-.966-.117 1.098 0 2.951.195 4.931-.312-.132-.503-.132-.503-.132s-2.207.353-2.556 4.578c-.349 4.314 1.629 7.483 1.629 7.483l.931 15.625 7.825-.967c2.556-4.753 2.713-10.651 2.713-14.748-.049-4.007-2.683-8.453-2.683-8.453z"/>
  <path fill="#fff" d="M42.5 155c-.8 4.8-4 14-5.5 18l18.5 13 12-14c-8-7.667-24.2-21.8-25-17z"/>
  <path fill="#fff" d="M175.864 206.757c-.27.089-1.745.66-2.016 3.96-.311 4.007 1.513 6.997 1.513 7.044l.079.132v.175l.889 14.964 6.936-.834c2.169-4.225 2.481-9.288 2.481-14.13 0-3.216-1.783-6.78-2.365-7.879l-.852.089-.079-.617c-.116-.967-.27-1.806-.465-2.508-.116-.396-.311-.882-.619-.967-.349-.09-.852.264-1.006.396l-.698.703-.233-1.057c-.195-.966-.503-2.286-.931-3.875-.544-2.244-1.163-2.772-1.279-2.772-.079.042-.387.396-.545 1.716-.078.967 0 2.64.196 4.753l.116 1.013-.852-.306c-.116.042-.233 0-.27 0zm-.582 27.775l-.968-16.154c-.428-.702-1.937-3.786-1.629-7.746.349-4.272 2.518-5.064 2.984-5.149-.117-1.409-.233-3.083-.117-4.224.27-2.424 1.122-2.862 1.588-2.905.698-.042 1.704.528 2.481 3.744.311 1.188.544 2.201.735 3.036.349-.175.815-.307 1.318-.175.656.175 1.122.792 1.433 1.806.195.618.349 1.32.428 2.112l.428-.042.195.306c.116.175 2.751 4.668 2.751 8.935 0 5.149-.349 10.519-2.788 15.097l-.154.264-8.685 1.095z"/>
  <path fill="#fff" d="M174.933 219.124c-.195 0-.349-.09-.465-.264-.079-.133-2.091-3.433-1.746-7.926.387-4.799 2.943-5.149 3.059-5.195.312-.043.619.221.657.57.038.354-.195.703-.503.75-.079 0-1.745.353-2.053 4.007-.311 4.008 1.513 6.997 1.513 7.044.195.307.116.703-.154.924-.075.047-.192.09-.308.09z"/>
  <path fill="#010101" d="M177.451 214.592c-.27 0-.503-.221-.582-.528-.078-.396-1.628-9.51-1.317-12.81.233-2.112.89-2.73 1.396-2.862.312-.089.931-.089 1.588.882.386.57.773 1.584 1.084 2.862.428 1.584.736 2.951.931 3.918.428 1.98.736 3.611.931 5.544.037.354-.195.703-.503.75-.312.042-.619-.222-.657-.571-.195-1.891-.503-3.479-.931-5.37-.232-.967-.502-2.287-.93-3.875-.349-1.495-.698-2.155-.89-2.424-.195-.306-.349-.396-.386-.396-.079.043-.387.439-.503 1.759-.27 3.083 1.317 12.325 1.317 12.414.079.354-.154.703-.465.792-.008-.085-.045-.085-.083-.085z"/>
  <path fill="#010101" d="M183.689 233.871c-.116 0-.195-.042-.312-.089-.27-.175-.349-.618-.195-.924 2.286-4.272 2.635-9.463 2.635-14.395 0-3.875-2.597-8.849-2.635-8.892-.154-.306-.079-.702.195-.924.271-.174.62-.089.815.222.116.221 2.788 5.327 2.788 9.552 0 5.149-.349 10.519-2.788 15.097-.117.221-.312.353-.503.353z"/>
  <path fill="#000" d="M182.563 243.909c-.312 0-.544-.264-.582-.617-.037-.354.195-.703.544-.703l36.533-3.479 24.328-54.98-15.497-20.467c-.195-.264-.195-.702.079-.924.233-.221.619-.221.814.09l15.73 20.777c.153.222.195.486.078.75l-24.676 55.686c-.079.222-.27.354-.466.354l-36.844 3.522-.041-.009z"/>
  <path fill="#00CB77" d="M95.1647 219.345s36.3373-22.89 47.1463-25.135c10.809-2.244 12.941.703 18.015 5.238 13.016 11.575 10.771 17.299 11.349 32.617l3.292-11.796c.154-.486.698-.792 1.084-.486 2.053 1.231 10.655 5.149 11.428 8.275 0 0 15.962 40.632-20.146 37.638-12.967-1.073-19.464-11.554-19.464-11.554s-22.454 9.31-41.126 7.636c-29.2216-5.873-11.5783-42.433-11.5783-42.433z"/>
  <path fill="#010101" d="M168.346 240.387c-.349 0-.581-.354-.581-.703.889-19.722-5.075-28.963-5.153-29.052-.196-.307-.154-.703.116-.925.27-.221.619-.174.814.132.271.396 6.317 9.685 5.386 29.934 0 .35-.27.614-.582.614z"/>
  <path fill="#010101" d="M166.717 247.869h-.078c-.312-.042-.545-.396-.503-.749.889-8.1 7.941-26.323 8.253-27.115.116-.353.465-.486.773-.353.311.132.428.528.311.881-.078.175-7.284 18.84-8.174 26.766-.037.349-.27.57-.582.57z"/>
  <path fill="#010101" d="M148.744 254.824c-.195 0-.349-.089-.466-.264-3.873-5.766-6.2-15.276-6.819-28.26-.465-9.642.154-17.695.195-17.785.038-.353.312-.617.62-.617.311.043.544.353.544.703-.038.306-2.519 31.871 6.432 45.12.196.307.154.703-.116.924-.12.136-.274.179-.39.179z"/>
  <path fill="#010101" d="M183.224 213.579c-.35 0-.582-.307-.582-.703 0-.042.116-3.39-.657-5.855-.657-2.113-1.974-2.113-2.053-2.113-.311 0-.582-.306-.582-.66 0-.353.233-.66.545-.66.078 0 2.206-.042 3.175 2.994.852 2.73.735 6.205.735 6.337 0 .396-.274.66-.581.66z"/>
  <path fill="#010101" d="M160.791 164.451c-1.857 0-3.756-.967-5.618-2.862-1.937-2.023-3.1-4.356-3.175-4.446-.154-.306-.079-.702.233-.881.27-.175.619-.09.773.264.037.089 4.417 8.717 9.84 6.162.312-.132.62 0 .774.353.116.354 0 .703-.312.882-.811.353-1.663.528-2.515.528z"/>
  <path fill="#010101" d="M168.463 170.264c-.038 0-.038 0 0 0-5.851-.221-11.582-13.381-11.815-13.955-.154-.307-.038-.703.27-.882.27-.175.619-.043.773.307 0 .042 1.434 3.347 3.525 6.6 2.672 4.225 5.19 6.516 7.284 6.601.312 0 .582.307.545.703-.042.362-.271.626-.582.626z"/>
  <path fill="#010101" d="M183.182 172.598c-3.175-1.627-4.725 13.031-4.725 13.031s10.032.882 10.111 0c.503-3.437.116-10.306-5.386-13.031z"/>
  <path fill="#000" d="M179.118 185.007c3.835.307 7.941.486 8.947.222.116-1.056.27-3.565-.465-6.162-.815-2.773-2.365-4.711-4.65-5.856-.196-.09-.35-.09-.545.042-1.508.929-2.784 7.445-3.287 11.754zm6.507 1.674c-1.587 0-3.873-.132-7.205-.396-.154 0-.312-.09-.387-.222-.075-.132-.154-.306-.116-.485.116-1.188 1.279-11.754 3.952-13.47.503-.307 1.047-.354 1.587-.09 5.694 2.82 6.275 9.949 5.735 13.735-.079.357-.12.928-3.566.928z"/>
  <path fill="#000" d="M89.3887 238.377c.518 8.002 4.7852 15.983 6.8494 18.985l.9383-.83c-2.0004-2.905-6.11-10.634-6.6017-18.253l-1.186.098zm5.5621-20.629c-1.0396 1.785-2.5558 4.932-3.7456 8.62-1.1897 3.683-2.0754 7.968-1.8165 12.009l1.186-.098c-.2439-3.773.5855-7.849 1.7452-11.447 1.1597-3.59 2.6309-6.643 3.6217-8.338l-.9908-.746zm1.2873 39.614c.2027.294.5743.345.8332.115.259-.23.304-.652.1014-.945l-.9346.83zm-.2965-38.868c.1802-.311.1051-.729-.1688-.937-.274-.205-.6418-.12-.8257.191l.9945.746z"/>
  <path fill="#EF4056" d="M42.3774 158.382s-.1426.695.6943 1.683c.8332.983 3.1264.715 3.9183 1.66.7919.946 1.0133 3.318 1.8577 4.736.8445 1.422 1.9404 1.963 1.9404 1.963l8.5983-9.59-10.8877-22.822s-5.4682-11.652-6.1288-12.112c-.6605-.46-1.7039 2.253-1.5613 5.277.1464 3.027 1.5388 16.672 1.5688 20.939.0301 4.272 0 8.266 0 8.266z"/>
  <path fill="#FCB643" d="M41.2629 123.768s3.1151 2.317 6.8307 13.377c3.7005 11.004 11.3493 24.359 10.6137 22.92-.7656-1.495.8669 1.311.6793-1.231-.1877-2.543-11.4469-29.811-14.7421-33.869-1.126-1.389-2.3983-3.292-2.3983-2.147 0 1.15-.9833.95-.9833.95z"/>
  <path fill="#EF4056" d="M53.7007 164.485s2.4845 2.176 4.5412 6.137c2.0567 3.96 4.1847 6.886 4.1847 6.886l8.771-10.911-12.8694-32.008s-1.5838-1.746-1.8202 0c-.1201.873-.3228 6.269-.9908 13.509-.1539 1.661 4.027 7.043 3.8844 8.602-.4841 5.268-5.7009 7.785-5.7009 7.785z"/>
  <path fill="#FCB643" d="M56.6842 135.62s3.2577 7.491 5.0442 12.363c1.7865 4.872 2.462 7.951 4.0946 11.596 1.6289 3.646 3.4717 8.726 3.6893 9.331.2177.605 1.6251-.307 1.6852-1.895.06-1.589-4.0421-13.134-5.3745-16.349-1.3323-3.215-4.5938-12.704-5.7009-15.05-1.1072-2.343-1.794-5.204-2.8223-4.391-1.0284.818-1.2798 2.385-.6156 4.395z"/>
  <path fill="#95D2FF" d="M47.3279 153.894c.7956-2.134 3.13-1.218 3.4002.507.2665 1.724-.3565 2.942-1.7001 2.942s-2.6834-.813-1.7001-3.449z"/>
  <path stroke="#000" stroke-linecap="round" stroke-linejoin="round" stroke-miterlimit="10" stroke-width="2" d="M86.1573 219.511s-6.2526-.387-9.3527 1.035c-3.3627 1.546 6.414 6.775 8.6021 7.823"/>
  <path stroke="#000" stroke-linecap="round" stroke-linejoin="round" stroke-miterlimit="10" stroke-width="2" d="M50.3229 164.911s5.746-2.07 8.3845-4.847c2.6384-2.776-2.053-8.202-4.6914-14.526-2.6384-6.32-5.2769-15.25-8.8986-20.573-3.6217-5.324-4.6726-1.908-4.2297 6.123.4428 8.032 1.3999 15.451 1.52 23.3 0 0-1.6101 10.957-5.6372 18.738"/>
  <path stroke="#000" stroke-linecap="round" stroke-linejoin="round" stroke-miterlimit="10" stroke-width="2" d="M29.2754 193.418s9.424-13.683 16.9227-20.88c7.4986-7.197 12.509-12.473 12.509-12.473"/>
  <path stroke="#000" stroke-linecap="round" stroke-linejoin="round" stroke-miterlimit="10" stroke-width="2" d="M55.3669 185.983s5.1568-6.584 9.6079-11.741c2.3007-2.666 4.9616-4.953 5.4645-5.75 1.4675-2.329 1.171-2.534-1.1709-9.083-2.3457-6.55-6.5679-16.537-7.5813-19.092-3.0437-7.682-4.1471-14.075-5.3444-4.092-1.3135 10.957-.8181 12.294-.8181 12.294"/>
  <path stroke="#000" stroke-linecap="round" stroke-linejoin="round" stroke-miterlimit="10" stroke-width="2" d="M37 173.5l20.8928 14.459"/>
  <path stroke="#000" stroke-linecap="round" stroke-linejoin="round" stroke-miterlimit="10" stroke-width="2" d="M41.3417 153.17s-3.5129-5.634-4.9466-12.286c-1.4337-6.652 3.6255.485 5.9825 12.516"/>
  <path stroke="#000" stroke-linecap="round" stroke-linejoin="round" stroke-miterlimit="10" stroke-width="2" d="M42.3776 153.396s-3.7831-1.069-8.7822-2.453c-4.9991-1.385-4.7552-5.153-1.3399-3.825 3.4116 1.337 10.1221 6.278 10.1221 6.278z"/>
</svg>
