<svg xmlns="http://www.w3.org/2000/svg" width="213" height="265" fill="none" viewBox="0 0 213 265">
  <path fill="#FCB643" d="M130.648 140.989s2.878-2.879 3.783-10.775c.905-7.814-2.056-23.771-11.68-32.0782-9.623-8.3074-20.398-10.5282-29.3636-8.0607-8.9655 2.4676-13.6538 5.1819-29.364 21.9609-15.7101 16.78-19.7404 28.213-33.3943 33.148-12.0088 4.359-23.03053 2.632-27.8834 1.234-.57576-.165-.98702.493-.65801.904 2.54981 3.455 9.54121 12.256 18.25991 16.698 9.2123 4.688 12.7491 5.593 19.0825 5.182 6.3334-.412 74.6029.493 91.2179-28.213z"/>
  <path fill="#fff" d="M195.956 44.1116l-30.125 6.5694 3.66 11.3557 5.255 7.7894 7.227 4.4109c3.003-4.6612 9.553-14.8469 11.731-18.3005 2.177-3.4536 1.814-9.5413 2.252-11.8249z"/>
  <path stroke="#000" stroke-linecap="round" stroke-linejoin="round" stroke-width="1.5" d="M173.628 67.6288c-3.116-2.6052-5.189-5.3685-7.261-15.0401"/>
  <path fill="#fff" d="M206.223 5.79927c-.421-2.94464-3.304-4.872835-6.186-4.1373L149.191 14.6378c-2.448.6249-4.046 2.9784-3.722 5.4846l3.997 30.9816c.369 2.8573 3.07 4.8127 5.9 4.2709l51.715-9.9029c2.622-.5021 4.387-2.9754 4.009-5.6182l-4.867-34.05453z"/>
  <path stroke="#000" stroke-linecap="round" stroke-linejoin="round" stroke-width="1.5" d="M201.463 1.07877L148.611 14.2916c-1.988.4972-3.279 2.4171-2.989 4.4463l4.731 33.1202c.322 2.2567 2.463 3.788 4.702 3.3648l26.417-4.9917 26.781-5.0604c2.097-.3964 3.514-2.3705 3.218-4.4848l-5.077-36.28102c-.329-2.35357-2.626-3.902592-4.931-3.32621z"/>
  <path stroke="#000" stroke-linecap="round" stroke-linejoin="round" stroke-width="1.5" d="M146.5 16.5l30.186 20.5181c2.629 1.7872 6.221.9882 7.845-1.7451L204 2.5"/>
  <path stroke="#000" stroke-linecap="round" stroke-linejoin="round" stroke-width="1.5" d="M165.721 29.4253L150.425 51.203"/>
  <path stroke="#000" stroke-linecap="round" stroke-linejoin="round" stroke-width="1.5" d="M192.165 24.3698l18.94 13.8838"/>
  <path fill="#EF4056" d="M182.601 13.9681l-15.162 3.0324c-.62.124-.97.7846-.69 1.3516 1.947 3.9434 6.3 9.8718 11.675 8.7402 4.786-1.0075 5.306-9.135 5.331-12.1935.005-.611-.554-1.0505-1.154-.9307z"/>
  <path stroke="#fff" stroke-linecap="round" stroke-linejoin="round" stroke-width="1.5" d="M171.295 19.7035l5.444 3.1111 3.5-4.2777"/>
  <path fill="#fff" d="M195.382 51.899l-10.677.6909c.086-2.4198.718-2.5695 1.859-6.925 1.426-5.4444 2.851-11.4074 6.611-11.0185 3.759.3889 3.588 4.47 3.588 7.5811-1.296 6.4814-1.381 7.5991-1.381 9.6715z"/>
  <path stroke="#000" stroke-linecap="round" stroke-linejoin="round" stroke-width="1.5" d="M184.896 53.28c1.426-5.4445 3.454-17.2704 8.47-18.6341 3.647-.9915 4.782 2.054 3.4 8.9624-.829 4.1453-2.763 17.2706-10.362 23.4881"/>
  <path fill="#1CB0A8" d="M142.492 206.215s6.087.658 14.312 1.563c8.307.905 16.368 1.152 24.676 4.277 8.307 3.126 12.584 5.84 13.9 12.338 1.316 6.498 2.879 12.585-5.346 17.273-8.308 4.688-24.676 11.68-30.269 13.242-5.593 1.563-10.528 2.221-13.654 2.221-3.125 0-12.091 2.057-17.931 3.784-5.84 1.727-11.433 3.372-15.052 2.221-3.619-1.152-6.251-.412-1.809-6.91 4.441-6.497-24.0181-1.562-28.871-2.056-4.9351-.411-45.2387-8.061-51.0786-10.281-5.8399-2.221-24.01759-12.338-28.04795-18.178-4.030352-5.84-5.34639-10.94 1.56279-13.654 6.90916-2.714 17.51966-5.84 30.26876-5.346 12.7491.493 107.339-.494 107.339-.494z"/>
  <path stroke="#000" stroke-linecap="round" stroke-linejoin="round" stroke-miterlimit="10" stroke-width="1.5" d="M40.3347 222.089s35.2039 4.442 46.3901 7.403c11.1863 2.961 26.2382 9.624 26.2382 9.624"/>
  <path stroke="#000" stroke-linecap="round" stroke-linejoin="round" stroke-miterlimit="10" stroke-width="1.5" d="M171.198 225.709s-6.91 1.316-14.148 3.372c-7.156 2.056-19.247 7.403-23.771 8.966-4.441 1.562-12.749 5.181-12.749 5.181"/>
  <path stroke="#000" stroke-linecap="round" stroke-linejoin="round" stroke-miterlimit="10" stroke-width="1.5" d="M115.596 260.419c-.411 0 6.745-8.965 8.554-13.243 1.81-4.277 3.619-7.402 3.619-7.402"/>
  <path fill="#000" d="M120.531 243.228s-1.316-2.879-5.182-2.467c-3.784.411-9.212 3.783-15.217 6.251-6.0864 2.467-20.1515 8.554-22.8658 10.281-2.7143 1.728-5.5931 6.909.658 7.156 6.2512.247 26.0738-3.372 31.3378-6.087 2.797-1.316 11.269-15.134 11.269-15.134z"/>
  <path fill="#000" d="M127.769 239.856s-1.316-5.593-5.347-5.346c-4.03.246-6.744.904-8.718 4.277-2.057 3.372 4.03 5.593 4.03 5.593l10.035-4.524z"/>
  <path stroke="#fff" stroke-linecap="round" stroke-miterlimit="10" stroke-width="1.5" d="M96.5952 256.389s.1645 3.125-.0823 5.182"/>
  <path stroke="#fff" stroke-linecap="round" stroke-miterlimit="10" stroke-width="1.5" d="M101.53 254.415l-.822 6.58"/>
  <path stroke="#fff" stroke-linecap="round" stroke-miterlimit="10" stroke-width="1.5" d="M106.548 252.029c.329.082-.905 4.36-1.152 7.814"/>
  <path fill="#F35" d="M131.799 220.116s8.308-3.619 19.083-20.481c10.775-16.862 26.567-41.949 32.736-60.784 6.169-18.918 8.061-15.628 5.346-60.2911-.493-7.6494 0-11.1862-4.935-11.1862-5.675 0-11.186 1.1515-11.186 1.1515s-.411 4.5238-2.221 12.0088c-1.809 7.4849-4.195 19.74-6.004 27.225-1.81 7.485-3.373 13.243-9.953 19.494-6.58 6.251-14.805 6.745-22.619 9.377-7.814 2.632-16.368 5.346-21.057 5.84-4.688.411-25.58-3.619-31.3376-3.126-5.7577.494-17.1084 1.398-27.8835 7.732-6.2511 3.701-12.749 19.247-15.4633 25.745-2.7143 6.498-4.9351 20.151-6.7447 24.182-1.8095 4.03 5.5931 12.584 18.589 18.177 12.9958 5.594 13.9005 8.308 21.0565 8.061 11.2685-.329 62.5936-3.125 62.5936-3.125z"/>
  <path stroke="#FFC0D1" stroke-miterlimit="10" stroke-width="1.5" d="M50.8633 216.332c.658-.247 15.7101-13.243 15.7101-13.243"/>
  <path stroke="#FFC0D1" stroke-miterlimit="10" stroke-width="1.5" d="M172.103 72.6375h16.532"/>
  <path stroke="#FFC0D1" stroke-miterlimit="10" stroke-width="1.5" d="M169.635 83.8238h19.494"/>
  <path stroke="#FFC0D1" stroke-miterlimit="10" stroke-width="1.5" d="M166.756 96.4086l23.278.4112"/>
  <path stroke="#FFC0D1" stroke-miterlimit="10" stroke-width="1.5" d="M164.7 106.279s7.814 2.056 13.243 2.879c5.429.822 12.091.411 12.091.411"/>
  <path stroke="#FFC0D1" stroke-miterlimit="10" stroke-width="1.5" d="M161.986 115.902s8.965 5.182 14.147 6.91c5.182 1.809 11.844 3.372 11.844 3.372"/>
  <path stroke="#FFC0D1" stroke-miterlimit="10" stroke-width="1.5" d="M68.3833 223.487l3.5368-8.307"/>
  <path stroke="#FFC0D1" stroke-miterlimit="10" stroke-width="1.5" d="M157.791 123.552s8.307 10.035 12.996 13.571c4.688 3.619 11.186 7.814 11.186 7.814"/>
  <path stroke="#FFC0D1" stroke-miterlimit="10" stroke-width="1.5" d="M148.99 132.928s1.562 10.775 4.935 22.208c3.043 10.446 7.402 20.152 9.376 24.182"/>
  <path stroke="#FFC0D1" stroke-miterlimit="10" stroke-width="1.5" d="M137.392 134.985s-17.684 17.19-35.862 21.221c-18.1776 4.03-44.3337 3.619-57.165.493"/>
  <path stroke="#FFC0D1" stroke-miterlimit="10" stroke-width="1.5" d="M39.0188 167.227s34.7104 4.935 64.0742-5.346c29.364-10.282 38.988-19.083 43.018-24.429 4.03-5.346 6.498-8.719 6.498-8.719s7.814 13.243 11.186 17.931c3.373 4.689 11.68 11.845 11.68 11.845"/>
  <path stroke="#FFC0D1" stroke-miterlimit="10" stroke-width="1.5" d="M35.1536 176.193s9.3767-.247 14.3118.247c4.9351.493 14.5586 2.056 14.5586 2.056"/>
  <path stroke="#FFC0D1" stroke-miterlimit="10" stroke-width="1.5" d="M32.2744 187.872s13.6539-.411 18.8357-.411c5.1819 0 10.7751 1.316 10.7751 1.316"/>
  <path stroke="#FFC0D1" stroke-miterlimit="10" stroke-width="1.5" d="M32.0273 204.652s19.0825-6.909 30.2688-9.212"/>
  <path stroke="#FFC0D1" stroke-miterlimit="10" stroke-width="1.5" d="M150.553 145.019s-7.814 12.749-25.334 20.646c-17.52 7.813-34.5457 12.337-59.6326 11.104"/>
  <path stroke="#FFC0D1" stroke-miterlimit="10" stroke-width="1.5" d="M155.406 159.825s-10.94 10.117-26.403 19.082"/>
  <path stroke="#FFC0D1" stroke-miterlimit="10" stroke-width="1.5" d="M159.765 171.258s-3.372 4.935-12.584 13.9c-9.213 8.966-15.464 12.996-15.464 12.996"/>
  <path stroke="#000" stroke-linecap="round" stroke-linejoin="round" stroke-miterlimit="10" stroke-width="1.5" d="M67.4784 172.492l-4.7706 9.788"/>
  <path fill="#fff" d="M76.6079 133.833s5.8399 12.338 15.7102 13.407c9.8699 1.151 19.0829-3.784 21.3029-9.212 1.234-2.961 1.563-4.771 1.645-5.758 0-.494.412-.823.905-.823.329 0 .576-.246 1.069-.329 2.057-.246 4.113-3.125 3.126-7.813 0 0-7.814-2.221-13.654-6.745-5.84-4.442-9.3766-14.148-9.3766-14.148s-7.4026 4.031-10.9395 13.901c-4.6061 12.502-9.788 17.52-9.788 17.52z"/>
  <path fill="#F35" d="M97.5823 137.781s-.9048-1.563-2.7143-1.48c-1.8096.082-2.7144 3.125-2.2208 4.852.4112 1.481.8225 2.715 3.29 2.879 2.4676.247 5.0178-2.221 4.6058-4.688-.411-2.468-2.9607-1.563-2.9607-1.563z"/>
  <path stroke="#000" stroke-linecap="round" stroke-linejoin="round" stroke-miterlimit="10" stroke-width="1.5" d="M88.0408 133.339s2.3853 7.156 14.6412 8.061"/>
  <path stroke="#000" stroke-linecap="round" stroke-linejoin="round" stroke-miterlimit="10" stroke-width="1.5" d="M92.5647 128.24s0 3.619 1.8095 4.442c1.8096.822 2.0563-.905 2.9611-.576.9048.329 0 2.385 1.8096 2.714 1.8091.329 2.8791-3.619 2.8791-3.619"/>
  <path fill="#000" d="M107.535 124.21c.772 0 1.398-.626 1.398-1.399 0-.772-.626-1.398-1.398-1.398-.772 0-1.398.626-1.398 1.398 0 .773.626 1.399 1.398 1.399z"/>
  <path fill="#000" d="M85.2442 124.21c.7723 0 1.3983-.626 1.3983-1.399 0-.772-.626-1.398-1.3983-1.398-.7722 0-1.3983.626-1.3983 1.398 0 .773.6261 1.399 1.3983 1.399z"/>
  <path fill="#fff" d="M131.306 219.622l13.489-40.962c.823-2.632-1.233-5.264-3.948-5.017l-80.4422 7.074c-2.0563.164-3.2901 2.303-2.3853 4.112l17.1084 37.343c.658 1.48 2.1386 2.467 3.7836 2.467l43.4295 1.152c4.03.329 7.731-2.221 8.965-6.169z"/>
  <path stroke="#000" stroke-linecap="round" stroke-linejoin="round" stroke-miterlimit="10" stroke-width="1.5" d="M101.777 205.146c3.044 0 5.511-2.136 5.511-4.771s-2.467-4.771-5.511-4.771c-3.0431 0-5.5104 2.136-5.5104 4.771s2.4673 4.771 5.5104 4.771z"/>
  <path fill="#FCB643" d="M35.8933 160.236s13.2426-2.714 19.7405-7.156c6.4979-4.441 19.905-17.684 21.0565-19.247 1.1515-1.563-9.8702 1.563-10.5283 1.81-.658.247-22.208 14.558-22.208 14.558l-8.0607 10.035z"/>
  <path stroke="#000" stroke-linecap="round" stroke-linejoin="round" stroke-miterlimit="10" stroke-width="1.5" d="M30.4646 161.387c.658 0 19.0825-3.372 30.022-12.091 10.9395-8.718 20.1518-19.247 22.8661-25.991 2.7143-6.745 6.0866-14.559 8.7187-17.273 2.6321-2.715 5.1819-3.619 5.1819-3.619"/>
  <path stroke="#000" stroke-linecap="round" stroke-linejoin="round" stroke-miterlimit="10" stroke-width="1.5" d="M103.751 98.4646s5.182-.658 7.814 2.4674c2.632 3.126 6.087 10.282 7.403 13.901 1.316 3.619 3.372 7.649 8.554 8.965"/>
  <path stroke="#000" stroke-linecap="round" stroke-linejoin="round" stroke-miterlimit="10" stroke-width="1.5" d="M92.8118 100.685s-5.1819 1.152-10.5282 7.403c-3.6191 4.277-14.3119 23.113-23.1129 29.775-8.8009 6.663-15.7101 11.433-21.7145 12.996-6.0867 1.563-15.0521 0-15.0521 0"/>
</svg>
