<svg xmlns="http://www.w3.org/2000/svg" width="260" height="267" fill="none" viewBox="0 0 260 267">
  <path stroke="#1CB0A8" stroke-linecap="round" stroke-linejoin="round" stroke-miterlimit="10" stroke-width="1.5" d="M.754028 232.938c3.382182-1.033 6.761712-1.961 10.139972-2.794l3.8097-.83m244.1133-10.772c-89.021 22.644-163.2012-4.796-237.276 9.283"/>
  <path fill="#00CF6E" d="M56.8603 206.877s1.993 0 10.465-13.867 31.8924-55.749 58.5527-61.126c26.661-5.378 53.82 8.489 64.035 32.826 10.215 24.336 12.957 45.844.499 46.977-12.458 1.133-15.199-2.83-15.199-2.83l-59.55-11.037s-4.983-12.452-2.99-26.318c0 0-12.9567 18.112-15.6969 24.337-2.7403 6.224-3.4888 7.641-3.4888 8.772 0 1.132-3.4888 3.678-7.9735 5.093-4.4846 1.415-25.1648 3.399-28.6535-2.827z"/>
  <path fill="#1CB0A8" d="M113.713 171.817c-.043-.256-.064-.513-.093-.77-.048-.437.024.541-.004-.057-.008-.182-.018-.367-.025-.549-.015-.424-.024-.848-.026-1.271-.001-.198.002-.394.005-.592.003-.123.002-.248.008-.371-.045.83.008-.268.012-.515.005-.269.008-.539.015-.808.002-.14.003-.281.009-.421-.029.656-.004.144 0 .011.019-.605.039-1.209.059-1.814.044-1.336.106-2.672.179-4.007.158-2.876.375-5.747.648-8.611.14-1.473.294-2.943.463-4.412.081-.71.167-1.419.26-2.126.023-.173.046-.347.068-.519-.07.545-.028.215-.013.096.055-.39.11-.78.168-1.171.204-1.376.433-2.749.71-4.111.117-.568.238-1.135.375-1.697.028-.121.06-.241.089-.361.138-.565-.092.295.01-.048.119-.4.217-.8.294-1.211.177-.94.161-2.106-.21-2.992-.203-.482-.795-1.085-1.143-.355-.524 1.102-.778 2.351-1.035 3.565-.258 1.223-.464 2.462-.651 3.701-.453 3.004-.803 6.03-1.063 9.064-.501 5.833-.849 11.732-.777 17.597.025 2.062.057 4.22.467 6.237.084.411.42 1.236.856.746.434-.483.447-1.62.345-2.228z"/>
  <path fill="#1CB0A8" d="M114.846 151.458c6.616-.602 13.382-.707 19.996-.043 3.562.358 7.031 1.228 10.472 2.307 4.225 1.324 8.37 2.954 12.432 4.821 2.382 1.094 4.731 2.274 7.059 3.508 1.201.636 2.394 1.294 3.575 1.974 1.158.666 2.289 1.449 3.49 2.005.814.376.856-3.227.215-3.729-1.896-1.485-4.131-2.558-6.209-3.678-2.107-1.135-4.247-2.189-6.409-3.182-4.104-1.884-8.29-3.567-12.542-4.967-3.496-1.15-7.058-2.171-10.685-2.604-3.709-.443-7.456-.502-11.184-.449-3.43.049-6.868.193-10.286.54-.775.08-.633 3.562.076 3.497z"/>
  <path fill="#1CB0A8" d="M114.402 171.257c2.025-1.956 4.777-2.325 7.342-2.422 3.127-.117 6.271-.035 9.394.145 6.35.365 12.676 1.296 18.9 2.78 3.545.846 7.027 1.919 10.506 3.059.562.185.901-3.644-.087-3.998-6.163-2.208-12.578-3.684-18.98-4.653-6.319-.956-12.725-1.389-19.099-1.148-2.937.112-6.068.51-8.332 2.86-.45.468-.392 1.551-.325 2.17.026.23.251 1.621.681 1.207z"/>
  <path fill="#1CB0A8" d="M113.069 188.809c2.266-1.1 4.732-1.659 7.161-2.063 2.744-.458 5.529-.671 8.302-.691 2.718-.02 5.44.145 8.136.536 2.876.416 5.666 1.228 8.482 1.992 4.03 1.095 8.06 2.191 12.089 3.286.619.168.923-3.711-.086-3.983-3.611-.977-7.22-1.953-10.83-2.928-2.938-.794-5.865-1.704-8.86-2.187-5.442-.877-11.132-.926-16.565.046-2.815.504-5.599 1.322-8.183 2.708-.673.362-.418 3.658.354 3.284z"/>
  <path fill="#1CB0A8" d="M121.073 134.281c1.152-.042 2.305.076 3.458.061 1.109-.013 2.219-.012 3.329.024 2.265.071 4.521.27 6.772.548 3.768.465 7.508 1.244 11.21 2.157 7.561 1.862 15.003 4.49 22.064 8.097 4.543 2.32 8.924 5.016 13.139 8.027.569.406.7-1.208.718-1.519.036-.61.093-2.223-.483-2.626-7.23-5.071-15.02-9.105-23.094-12.103-7.046-2.615-14.373-4.531-21.73-5.59-2.538-.365-5.093-.558-7.653-.61-1.279-.027-2.559-.017-3.839.029-1.337.048-2.633.304-3.959.468-.659.082-.566 3.061.068 3.037z"/>
  <path fill="#1CB0A8" d="M181.844 149.819c-1.518 1.232-2.758 2.806-3.939 4.433-1.348 1.858-2.673 3.742-3.977 5.641-2.678 3.902-5.294 7.857-7.839 11.871-.453.713-.341 2.056-.172 2.855.106.5.448 1.455.904.723 2.466-3.955 4.99-7.863 7.588-11.707 1.283-1.899 2.569-3.797 3.884-5.667 1.174-1.67 2.408-3.289 3.924-4.57.494-.418.403-1.703.341-2.298-.031-.287-.231-1.672-.714-1.281z"/>
  <path fill="#1CB0A8" d="M193.735 172.392c-.676-.33-1.444-.485-2.158-.654-1.377-.33-2.761-.626-4.153-.873-1.417-.252-2.855-.454-4.29-.515-1.793-.076-3.566.275-5.274.886-1.016.364-2.01.814-2.973 1.33-.498.266-.986.55-1.466.853-.486.306-1.077.608-1.434 1.097-.415.568-.436 1.434-.386 2.136.022.313.137 1.753.629 1.661.428-.08.784-.431 1.148-.68.404-.278.815-.541 1.234-.791.873-.522 1.772-.987 2.698-1.372 1.738-.722 3.579-1.216 5.436-1.229 2.79-.019 5.627.523 8.371 1.045.83.157 1.749.224 2.551.518.514.186.742-3.084.067-3.412z"/>
  <path fill="#1CB0A8" d="M196.675 208.618c.739-4.966.238-10.192-1.539-14.817-1.411-3.673-3.541-6.712-6.094-9.444-.538-.575-1.092-1.144-1.69-1.639-.328-.272-.794-.687-1.226-.66-.676.042-.688 1.785-.67 2.283.019.505.076 2.207.768 2.243.059.003.229.075.059-.003.095.043.184.092.272.145.247.15.477.338.702.526.635.533 1.227 1.13 1.803 1.739 1.182 1.252 2.333 2.587 3.28 4.079 2.517 3.974 3.967 8.995 3.377 13.904-.078.654-.17 1.703.241 2.253.394.532.654-.186.717-.609z"/>
  <path fill="#1CB0A8" d="M180.68 207.069c-.269-4.805-.813-9.586-1.696-14.296-.423-2.257-.919-4.499-1.501-6.708-.304-1.15-.623-2.295-.973-3.429-.316-1.022-.584-2.396-1.175-3.256-.361-.528-.675-.133-.827.362-.248.81-.225 1.805-.051 2.628.241 1.133.727 2.207 1.088 3.298.316.956.612 1.919.89 2.889.588 2.059 1.07 4.153 1.486 6.264.826 4.195 1.374 8.452 1.67 12.737.022.326.19 1.371.64 1.22.447-.148.468-1.348.449-1.709z"/>
  <path fill="#1CB0A8" d="M65.7108 197.529c3.9481 1.941 8.1383 2.992 12.373 3.763 2.0559.374 4.1444.847 6.2264.959 2.0166.108 3.9076-.51 5.8234-1.143 2.1174-.7 4.1195-1.207 6.3128-.671.7852.192.9056-3.812-.0903-4.193-1.7653-.674-3.7099-.19-5.4491.356-1.8766.59-3.7414 1.361-5.7069 1.441-2.0794.085-4.185-.428-6.233-.784-2.0689-.362-4.1378-.741-6.1858-1.23-2.3686-.566-4.6823-1.325-6.9881-2.153-.6163-.223-.827 3.289-.0824 3.655z"/>
  <path fill="#1CB0A8" d="M77.7488 176.966c2.6447 3.731 5.5799 7.317 9.0727 10.05 2.6852 2.102 5.9594 3.086 9.0007 4.322.7956.324 1.5925.648 2.3829.986.2749.117.5471.241.8206.362.1256.055.2499.109.3781.156.0249.009.0498.015.0746.024-.3049-.111.2447.228-.0706-.025.5561.446.7392-1.15.7592-1.448.044-.666.065-2.042-.5027-2.498-.8192-.657-1.98-.944-2.9143-1.326-1.6188-.663-3.2428-1.309-4.8655-1.962-1.3583-.547-2.6984-1.073-3.9389-1.922-1.8674-1.278-3.5464-2.91-5.1482-4.58-1.5677-1.637-3.1498-3.356-4.5553-5.174-.4226-.547-.67.198-.7459.648-.1086.655-.1505 1.819.2526 2.387z"/>
  <path fill="#1CB0A8" d="M89.6665 161.222c2.4379 6.902 5.0814 13.635 8.6853 19.873 1.3335 2.308 2.7522 4.552 4.2172 6.755.49.736.828-.302.911-.798.138-.824.178-2.216-.306-2.939-2.391-3.559-4.6508-7.241-6.6477-11.104-1.522-2.945-2.845-6-4.0908-9.106-.6962-1.736-1.3636-3.487-2.0336-5.236-.229-.596-.5954-.622-.7891.022-.2264.749-.2067 1.794.0537 2.533z"/>
  <path fill="#1CB0A8" d="M102.925 144.771c.351 5.939 1.284 11.775 2.217 17.626.436 2.727.861 5.456 1.199 8.203.352 2.866.544 5.811.705 8.402.033.519.07 2.25.778 2.271.674.019.681-1.932.679-2.311-.058-5.95-1.148-11.934-2.132-17.755-.949-5.608-1.964-11.216-2.48-16.903-.03-.331-.142-1.26-.57-1.172-.405.083-.411 1.372-.396 1.639z"/>
  <path fill="#000" d="M145.032 97.4905s8.615-10.4828 19.691-12.58c11.076-2.0971 19.383-1.7478 14.768 4.5421 0 0 7.692 1.7479 8.615 5.5914.922 3.8436-5.539 3.4943-5.539 3.4943s4.923 1.3971 4.923 5.2417c0 3.844-4.308 5.941-6.768 5.243 0 0 2.462 2.097.923 5.591-1.539 3.494-12.614 1.048-12.614 1.048l-23.999-18.1715z"/>
  <path fill="#9E001F" d="M161.653 123.729c8.615-3.486 13.452-13.155 10.804-21.598-2.648-8.442-11.779-12.4599-20.394-8.974-8.615 3.4859-13.452 13.156-10.804 21.598 2.648 8.442 11.779 12.46 20.394 8.974z"/>
  <path fill="#9E001F" d="M147.707 101.578c2.38 0 4.308-2.1904 4.308-4.8927 0-2.7023-1.928-4.8929-4.308-4.8929-2.379 0-4.308 2.1906-4.308 4.8929s1.929 4.8927 4.308 4.8927z"/>
  <path fill="#9E001F" d="M166.475 126.039c2.379 0 4.308-2.19 4.308-4.892 0-2.703-1.929-4.893-4.308-4.893-2.379 0-4.308 2.19-4.308 4.893 0 2.702 1.929 4.892 4.308 4.892z"/>
  <path stroke="#000" stroke-linecap="round" stroke-miterlimit="10" stroke-width="2" d="M153.847 98.5886s-4.821 4.3144-3.36 5.4754c1.46 1.162 5.844-.829 6.866-3.319"/>
  <path stroke="#000" stroke-linecap="round" stroke-miterlimit="10" stroke-width="2" d="M164.367 108.379s-3.068 3.153-2.337 4.646c.73 1.494 5.259.83 6.428-1.493"/>
  <path fill="#004AB2" d="M149.3 242.535s-40.116 2.263-46.593-7.357c-6.4782-9.621-4.7351-31.696 5.481-34.526 10.217-2.829 67.274 8.208 74.25 11.886 6.976 3.679 7.724 8.49 7.475 14.999-.249 6.508-.997 10.753-6.976 11.602-5.981.848-33.637 3.396-33.637 3.396z"/>
  <path fill="#9E001F" d="M89.2512 208.292s2.9902 2.83 1.4944 10.471c-1.4944 7.641-14.701 14.432-24.4175 14.432-9.7166 0-15.4483 1.415-15.9469-4.245 0 0-12.9567-1.415-17.1927-4.527-4.236-3.112-6.229-10.471-.4986-13.867 5.7305-3.396 13.2053-.849 18.1886-1.697l4.9832-.849"/>
  <path fill="#1CB0A8" d="M186.674 215.367s12.707-1.697 20.68-1.415c7.974.282 15.198 4.811 15.697 11.037.499 6.226-.997 13.301-6.976 14.15-5.979.848-25.415-1.698-28.155-4.527-2.74-2.83-1.246-19.245-1.246-19.245z"/>
  <path fill="#FFFBE3" d="M213.335 240.271c1.494-7.641-.998-25.186-.998-25.186l.101-.359c5.74 1.58 10.224 5.404 10.613 10.263.499 6.226-.997 13.301-6.976 14.15-.703.099-1.59.153-2.615.163l-.125.969z"/>
  <path stroke="#000" stroke-linecap="round" stroke-miterlimit="10" stroke-width="2" d="M184.681 184.804c0-1.132-5.98-3.962-11.959-3.962"/>
  <path stroke="#000" stroke-linecap="round" stroke-miterlimit="10" stroke-width="2" d="M74.0528 221.875c-.2486-1.415-12.2094-1.415-16.6941-.566-4.4846.849-7.4748 1.415-6.9762 7.641"/>
  <path stroke="#000" stroke-linecap="round" stroke-miterlimit="10" stroke-width="2" d="M58.6048 211.689s-9.9664-.567-18.1885 1.697c-6.9553 1.916-8.2051 6.868-6.4646 10.576"/>
  <path fill="#000" d="M203.589 231.774c.79 0 1.43-.46 1.43-1.027 0-.568-.64-1.027-1.43-1.027-.79 0-1.43.459-1.43 1.027 0 .567.64 1.027 1.43 1.027z"/>
  <path stroke="#000" stroke-linecap="round" stroke-miterlimit="10" stroke-width="2" d="M190.797 226.743s15.063 1.369 20.183.171"/>
  <path fill="#1CB0A8" d="M177.081 249.887s6.083 8.684 12.324 10.117c6.241 1.433 14.296-4.139 17.01-8.206 2.714-4.066 3.269-10.875-.402-15.118-3.671-4.244-17.023-7.366-17.023-7.366l-11.909 20.573z"/>
  <path fill="#FFFBE3" d="M183.385 256.537s9.909 3.52 16.967-8.861c7.057-12.381 3.006-12.816 3.006-12.816l2.353 1.492c.107.108.208.217.303.327 3.671 4.243 3.116 11.053.402 15.118-2.714 4.065-10.769 9.639-17.01 8.206-.715-.165-1.429-.423-2.13-.755l-3.891-2.711z"/>
  <path stroke="#000" stroke-linecap="round" stroke-miterlimit="10" stroke-width="2" d="M177.081 249.887s6.083 8.684 12.324 10.117c6.241 1.433 14.296-4.139 17.01-8.206 2.714-4.066 3.269-10.875-.402-15.118-3.671-4.244-17.023-7.366-17.023-7.366l-11.909 20.573z"/>
  <path fill="#FFFBE3" d="M190.83 256.425c.22-.974-.664-8.09 3.234-13.07 3.898-4.979 10.023-6.85 10.023-6.85s2.18 1.537-3.75 11.188c-5.244 8.538-9.507 8.732-9.507 8.732z"/>
  <path stroke="#000" stroke-linecap="round" stroke-miterlimit="10" stroke-width="2" d="M190.805 256.33c3.045-1.012 6.553-3.403 9.545-8.654 7.058-12.381 3.006-12.816 3.006-12.816"/>
  <path stroke="#000" stroke-linecap="round" stroke-miterlimit="10" stroke-width="2" d="M206.013 236.679c-3.671-4.244-17.023-7.366-17.023-7.366"/>
  <path stroke="#000" stroke-linecap="round" stroke-miterlimit="10" stroke-width="2" d="M142.257 136.201s-4.277 11.25-2.026 21.221"/>
  <path fill="#000" d="M135.953 145.661c.684 0 1.238-.629 1.238-1.406 0-.776-.554-1.406-1.238-1.406-.684 0-1.238.63-1.238 1.406 0 .777.554 1.406 1.238 1.406z"/>
  <path fill="#000" d="M135.053 153.843c.684 0 1.238-.629 1.238-1.406 0-.776-.554-1.406-1.238-1.406-.684 0-1.238.63-1.238 1.406 0 .777.554 1.406 1.238 1.406z"/>
  <path fill="#396AFF" d="M171.545 254.222s-7.093-6.345-17.8-14.281c-10.707-7.936-28.547-16.01-33.333-34.645-4.786-18.635 6.195-21.841 10.299-22.089 9.29-.561 44.767 16.065 55.313 31.925 4.991 7.507 6.115 8.67 4.559 13.78-1.556 5.109-8.638 24.74-19.038 25.31z"/>
  <path stroke="#000" stroke-linecap="round" stroke-miterlimit="10" stroke-width="2" d="M153.745 239.941c-10.707-7.936-28.547-16.01-33.333-34.645-2.099-8.176-.871-13.663 1.517-17.268"/>
  <path fill="#9E001F" d="M177.705 201.784s-2.243-22.922-12.707-31.129c-10.465-8.207-18.439-4.245-18.189-1.133.249 3.113 1.745 9.623 8.472 8.773 0 0-6.229.566-2.99 6.508s6.478 5.942 6.478 5.942-2.361 2.094.997 6.509c4.732 6.227 17.939 4.53 17.939 4.53z"/>
  <path stroke="#000" stroke-linecap="round" stroke-miterlimit="10" stroke-width="2" d="M163.004 179.993s-1.993-1.697-7.724-1.697"/>
  <path stroke="#000" stroke-linecap="round" stroke-miterlimit="10" stroke-width="2" d="M169.98 189.331s-7.723-2.83-11.212 1.415"/>
  <path fill="#000" d="M156.669 89.5387s4.56 1.6186 7.98 6.4743c3.419 4.856 5.7 12.301 9.69 13.919 3.99 1.619 2.279-12.9485 1.425-13.919-.856-.9721-19.095-6.4743-19.095-6.4743z"/>
  <path fill="#000" d="M91.5292 230.527c-.8545.324-39.8999 11.652-39.8999 11.652L90.96 266.78l20.806-22.658-20.2368-13.595z"/>
  <path fill="#FFFBE3" d="M93.9278 232.138L61.5211 242.43l29.2661 16.292 18.0968-16.535-14.9562-10.049z"/>
  <path stroke="#000" stroke-linecap="round" stroke-miterlimit="10" stroke-width="2" d="M74.8508 243.582l14.7783 9.874"/>
  <path stroke="#000" stroke-linecap="round" stroke-miterlimit="10" stroke-width="2" d="M83.6881 241.115l10.2871 7.405"/>
  <path stroke="#000" stroke-linecap="round" stroke-miterlimit="10" stroke-width="2" d="M91.9466 238.975l5.5054 4.444"/>
  <path stroke="#000" stroke-linecap="round" stroke-miterlimit="10" stroke-width="2" d="M186.674 215.367s12.707-1.697 20.68-1.415c7.974.282 15.199 4.811 15.697 11.037"/>
  <path stroke="#000" stroke-linecap="round" stroke-miterlimit="10" stroke-width="2" d="M166.623 248.914s12.406-10.027 14.315-19.511"/>
  <path stroke="#EF4056" stroke-linecap="round" stroke-linejoin="round" stroke-miterlimit="10" stroke-width="2" d="M219.377 140.793l-3.455-18.024-8.898 10.107 2.794 15.129"/>
  <path stroke="#EF4056" stroke-linecap="round" stroke-linejoin="round" stroke-miterlimit="10" stroke-width="2" d="M216.661 126.625l-8.684 9.847"/>
  <path fill="#EF4056" d="M209.979 145.192s-1.028-.928-2.955.316c-1.928 1.245-4.398 5.433-2.485 6.657 3.116 1.99 4.99.807 5.64-1.038 1.31-3.717-.2-5.935-.2-5.935z"/>
  <path fill="#EF4056" d="M219.085 139.277c-.168-.109-3.031-.064-3.827 3.029-.796 3.093 0 7.276 3.188 4.901 3.187-2.376 2.573-6.697.639-7.93z"/>
  <path stroke="#396AFF" stroke-linecap="round" stroke-linejoin="round" stroke-miterlimit="10" stroke-width="2" d="M109.749 63.0433s.181 2.462-2.798 2.9973c-2.978.5353-5.436-1.7431-5.436-1.7431l8.597 21.6115"/>
  <path fill="#396AFF" d="M108.804 83.0127s-2.648-2.4753-4.744.9121c-2.091 3.3878-1.858 6.9359.125 7.4754 1.982.5396 4.045-.5147 5.873-2.8759 1.829-2.3612-1.254-5.5116-1.254-5.5116z"/>
  <path stroke="#29A668" stroke-linecap="round" stroke-linejoin="round" stroke-miterlimit="10" stroke-width="2" d="M173.73 1s-7.675 8.44033-5.283 18.6157c2.391 10.1755 5.008 10.4957 7.085 10.1106 1.153-.2149 3.266-1.427 4.437-2.8499 1.021-1.2405-.621-2.9918-1.678-1.7878-1.856 2.1161-4.565 6.3647-4.565 13.1551 0 9.0524 3.084 9.0524 3.084 9.0524"/>
  <path stroke="#EF4056" stroke-linecap="round" stroke-linejoin="round" stroke-miterlimit="10" stroke-width="2" d="M206.291 69.1947l18.637-15.2342 5.841 10.5752"/>
  <path stroke="#EF4056" stroke-linecap="round" stroke-linejoin="round" stroke-miterlimit="10" stroke-width="2" d="M204.967 69.2993l15.603-19.0782 2.584 5.1923"/>
  <path stroke="#EF4056" stroke-linecap="round" stroke-linejoin="round" stroke-miterlimit="10" stroke-width="2" d="M203.581 70.6201L215.4 46.2454l3.932 5.492"/>
  <path stroke="#EF4056" stroke-linecap="round" stroke-linejoin="round" stroke-miterlimit="10" stroke-width="2" d="M202.943 73.239l8.063-29.2143 2.955 5.1914"/>
  <path fill="#F9BFD1" d="M248.41 86.9091l-15.365-24.3985c-.753-1.1962-2.075-1.7418-3.329-1.3703l-26.088 7.9724 5.954-22.0455c.344-1.2708-.538-2.5339-1.707-2.4456-.534.0382-.987.4642-1.126 1.0563l-5.143 22.0871s-1.459.1967-1.989 1.8275c-.087.271-.147.5684-.186.8722-.208 1.6785.232 3.3789 1.128 4.7385l1.444 2.194c4.47 6.7905 9.412 13.1617 14.786 19.0517.384.4207.909.6393 1.443.597l2.507-.1983c.609-.0481 1.161-.4292 1.479-1.0192l.434-.8024 24.92-5.7221c.964-.2144 1.408-1.489.838-2.3948z"/>
  <path stroke="#EF4056" stroke-linecap="round" stroke-linejoin="round" stroke-miterlimit="10" stroke-width="2" d="M212.915 75.1727l11.155-4.8121"/>
  <path stroke="#EF4056" stroke-linecap="round" stroke-linejoin="round" stroke-miterlimit="10" stroke-width="2" d="M217.522 80.8596l6.972-3.5791"/>
  <path stroke="#EF4056" stroke-linecap="round" stroke-linejoin="round" stroke-miterlimit="10" stroke-width="2" d="M205.829 74.6769l16.884 21.3443"/>
  <path stroke="#EF4056" stroke-linecap="round" stroke-linejoin="round" stroke-miterlimit="10" stroke-width="2" d="M236.337 48.9739s-.563-9.1801-9.87-11.1666"/>
  <path fill="#82ECB7" d="M92.9171 14.8157s-5.3447.2562-3.6544 6.8141c1.3203 5.1217 2.9755 7.302 5.3762 9.6265 2.4008 2.3245 10.6801 6.1331 14.4831 8.2653 3.804 2.1321 12.2 10.5198 17.517 12.1553 5.317 1.6354 8.235 1.1997 8.639.7494l3.689-13.3464s-1.79-3.6271-4.043-5.1472c-2.253-1.5189-5.763-3.0451-5.763-3.0451s2.215-.5914 2.775-1.9957c.559-1.4043-.086-2.4597-.91-3.6211-.823-1.1621-.72-1.7143-1.675-1.6186-.956.0958-9.611 1.3156-17.241-.1828-7.63-1.4984-12.053-3.7955-13.8887-4.757-3.3709-1.7678-1.3395-.2759-5.3042-3.8967z"/>
  <path stroke="#29A668" stroke-linecap="round" stroke-linejoin="round" stroke-miterlimit="10" stroke-width="2" d="M134.468 50.4463c2.735 2.1578.103 5.7958-2.951 6.8856-1.757.6263-7.167-.1385-11.475-2.7744s-15.21-12.5426-20.6242-14.8826c-5.4145-2.3399-17.522-12.1529-13.9311-19.6024 3.5914-7.4484 8.5524-4.2194 8.5524-4.2194"/>
  <path stroke="#29A668" stroke-linecap="round" stroke-linejoin="round" stroke-miterlimit="10" stroke-width="2" d="M116.327 21.3095s2.327 3.0981 3.142 5.4658c1.065 3.0939 1.332 7.6498-.876 8.7392"/>
  <path stroke="#29A668" stroke-linecap="round" stroke-linejoin="round" stroke-miterlimit="10" stroke-width="2" d="M108.32 20.7478s1.716 1.1589 3.366 5.3558c1.651 4.1968-.53 5.4167-.53 5.4167"/>
  <path stroke="#29A668" stroke-linecap="round" stroke-linejoin="round" stroke-miterlimit="10" stroke-width="2" d="M130.713 30.2047s-4.703 1.3196-1.423 5.005c2.505 2.8145 5.757 4.0503 7.718 3.96 1.96-.0904 2.616-.7067 1.37-2.3038-1.247-1.5972-5.916-4.8553-7.516-5.191-1.6-.3356-1.919-.2198-1.919-.2198"/>
  <path stroke="#29A668" stroke-linecap="round" stroke-linejoin="round" stroke-miterlimit="10" stroke-width="2" d="M138.556 37.6542s3.261-2.0256 4.949-1.3975c1.688.6281 2.42 1.6883 1.961 2.7912-.458 1.103-1.704 1.6534-3.159 1.8086-1.405.1505-2.563.0533-3.294-1.0898"/>
  <path fill="#DCEAFF" d="M52.9921 83.5367L16.7643 105.305c8.3321 21.328 16.965 34.326 32.3929 35.726 4.1312.375 24.4966-11.917 30.6701-18.428-3.5149-.876-11.6083-4.399-15.863-11.48-4.2546-7.081-9.0328-21.561-10.9722-27.5863z"/>
  <path fill="#396AFF" d="M30.641 120.5c-1.976.503-4.4459-4.75-5.6104-8.25-.4015-1.207.1554-2.48 1.2457-3.136l3.3261-1.998c1.4605-.878 3.3578-.364 4.1763 1.13l3.5379 6.46c.4615.842.4985 1.884-.2151 2.527-1.7737 1.598-5.1468 2.932-6.4605 3.267z"/>
  <path fill="#396AFF" d="M54.0782 83.5251c-.1241-.5381-.6609-.8738-1.1991-.7498-.5382.1241-.8739.6609-.7498 1.1991l1.9489-.4493zm22.8897 2.0986c-.2989-.4644-.9177-.5986-1.3821-.2996-.4644.2989-.5986.9177-.2997 1.3821l1.6818-1.0825zM73.9168 112.81c-.2741.479-.1076 1.09.3719 1.364.4795.274 1.0904.108 1.3645-.372l-1.7364-.992zm-6.1972-24.395c-.2844-.4734-.8988-.6265-1.3722-.3421-.4734.2845-.6265.8988-.3421 1.3722l1.7143-1.0301zm-15.5903-4.4406c1.5824 6.8649 4.831 17.0336 9.4557 25.2266 2.3108 4.094 4.9994 7.756 8.0466 10.258 3.0608 2.513 6.5522 3.904 10.3866 3.273l-.3247-1.973c-3.1001.51-6.0277-.576-8.7928-2.846-2.7786-2.281-5.3228-5.707-7.574-9.695-4.4995-7.971-7.6924-17.9417-9.2485-24.6929l-1.9489.4493zm27.8889 38.7576c1.8748-.309 3.401-.968 4.5868-1.954 1.1882-.989 1.9822-2.261 2.457-3.709.9366-2.858.6439-6.433-.2656-10.118-1.8261-7.4006-6.2915-15.8322-9.8285-21.3273l-1.6818 1.0825c3.4848 5.414 7.8185 13.6318 9.5686 20.7238.8786 3.56 1.0684 6.692.3068 9.016-.3743 1.142-.9746 2.078-1.8353 2.794-.863.717-2.0401 1.256-3.6327 1.519l.3247 1.973zm-4.365-8.93c.3216-.563.6995-1.334.8755-2.474.174-1.127.1429-2.558-.2655-4.452-.8124-3.766-3.1434-9.4736-8.5436-18.461l-1.7143 1.0301c5.3601 8.9207 7.5594 14.4059 8.3028 17.8529.3694 1.712.3726 2.892.244 3.725-.1265.819-.3878 1.354-.6353 1.787l1.7364.992z"/>
  <path stroke="#396AFF" stroke-linecap="round" stroke-width="2" d="M38.5379 104.268l9.6745-5.8127"/>
  <path stroke="#396AFF" stroke-linecap="round" stroke-width="2" d="M43.3615 112.296l9.6744-5.813"/>
  <path stroke="#396AFF" stroke-linecap="round" stroke-width="2" d="M36.9875 127.332l20.9956-12.615"/>
  <path stroke="#396AFF" stroke-linecap="round" stroke-width="2" d="M43.3341 134.164l20.9956-12.615"/>
</svg>
