<svg xmlns="http://www.w3.org/2000/svg" width="350" height="350" viewBox="0 0 350 350" xml:space="preserve">
  <style>
    .st0{fill:#cb9eff}.st2{fill:#ab71ff}
  </style>
  <path d="M342.1 277.2H7.9c-4.3 0-7.9-3.5-7.9-7.9v-77.6c0-4.3 3.5-7.9 7.9-7.9h334.2c4.3 0 7.9 3.5 7.9 7.9v77.6c0 4.4-3.5 7.9-7.9 7.9z" class="st0"/>
  <path fill="#e7dfff" d="M328.1 210.1V251c0 2.4-2 4.4-4.4 4.4H26.2c-2.4 0-4.4-2-4.4-4.4v-40.8c0-2.4 2-4.4 4.4-4.4h297.5c2.5 0 4.4 1.9 4.4 4.3z"/>
  <path d="M38.9 219.6v-132c0-4.3 3.5-7.9 7.9-7.9h163.1c4.3 0 7.9 3.5 7.9 7.9v132c0 4.3-3.5 7.9-7.9 7.9H46.8c-4.4 0-7.9-3.5-7.9-7.9z" class="st2"/>
  <path d="M195.9 106v95.3c0 2.4-2 4.4-4.4 4.4H65.1c-2.4 0-4.4-2-4.4-4.4V106c0-2.4 2-4.4 4.4-4.4h126.4c2.4 0 4.4 2 4.4 4.4z" class="st0"/>
  <g>
    <path fill="#9059ff" d="M150.5 313V37c0-4.3 3.5-7.9 7.9-7.9h143.3c4.3 0 7.9 3.5 7.9 7.9v276c0 4.3-3.5 7.9-7.9 7.9H158.3c-4.3-.1-7.8-3.6-7.8-7.9z"/>
    <path d="M287.7 55.4v239.2c0 2.4-2 4.4-4.4 4.4H176.7c-2.4 0-4.4-2-4.4-4.4V55.4c0-2.4 2-4.4 4.4-4.4h106.6c2.4 0 4.4 2 4.4 4.4z" class="st2"/>
  </g>
  <g>
    <circle cx="175" cy="177.7" r="76.6" fill="#45278d"/>
    <path fill="#d9bfff" d="M128.7 165.3h92.5V190h-92.5z"/>
  </g>
</svg>
