<svg xmlns="http://www.w3.org/2000/svg" width="350" height="350" viewBox="0 0 350 350" xml:space="preserve">
  <style>
    .st0{fill:#9059ff}.st1{fill:#d9bfff}.st2{fill:#cb9eff}.st3{fill:#ab71ff}.st4{fill:#592acb}.st5{fill:#c689ff}
  </style>
  <path d="M201.2 19.9v239.4c0 5-4 9-9 9H9c-5 0-9-4-9-9V19.9c0-5 4-9 9-9h183.2c5 0 9 4.1 9 9z" class="st0"/>
  <path d="M16.9 29.5h72.2c1.2 0 2.3 1 2.3 2.3v6.8c0 1.2-1 2.3-2.3 2.3H16.9c-1.2 0-2.3-1-2.3-2.3v-6.8c0-1.3 1-2.3 2.3-2.3z" class="st1"/>
  <path d="M17.9 51.2h159.4c1.8 0 3.3 1.5 3.3 3.3v4.7c0 1.8-1.5 3.3-3.3 3.3H17.9c-1.8 0-3.3-1.5-3.3-3.3v-4.7c0-1.8 1.5-3.3 3.3-3.3z" class="st1"/>
  <path d="M17.9 72.8h159.4c1.8 0 3.3 1.5 3.3 3.3v4.7c0 1.8-1.5 3.3-3.3 3.3H17.9c-1.8 0-3.3-1.5-3.3-3.3v-4.7c0-1.8 1.5-3.3 3.3-3.3z" class="st1"/>
  <path d="M17.9 95.5h159.4c1.8 0 3.3 1.5 3.3 3.3v4.7c0 1.8-1.5 3.3-3.3 3.3H17.9c-1.8 0-3.3-1.5-3.3-3.3v-4.7c0-1.8 1.5-3.3 3.3-3.3z" class="st1"/>
  <path d="M16.6 118.1h56.2c1.1 0 2 .9 2 2v7.3c0 1.1-.9 2-2 2H16.6c-1.1 0-2-.9-2-2v-7.3c0-1.1.9-2 2-2z" class="st1"/>
  <path d="M17.9 159.6h159.4c1.8 0 3.3 1.5 3.3 3.3v4.7c0 1.8-1.5 3.3-3.3 3.3H17.9c-1.8 0-3.3-1.5-3.3-3.3v-4.7c0-1.9 1.5-3.3 3.3-3.3z" class="st1"/>
  <path d="M17.9 181.2h159.4c1.8 0 3.3 1.5 3.3 3.3v4.7c0 1.8-1.5 3.3-3.3 3.3H17.9c-1.8 0-3.3-1.5-3.3-3.3v-4.7c0-1.8 1.5-3.3 3.3-3.3z" class="st1"/>
  <path d="M17.9 203.9h159.4c1.8 0 3.3 1.5 3.3 3.3v4.7c0 1.8-1.5 3.3-3.3 3.3H17.9c-1.8 0-3.3-1.5-3.3-3.3v-4.7c0-1.8 1.5-3.3 3.3-3.3z" class="st1"/>
  <path d="M17.2 226.5h92.1c1.4 0 2.5 1.1 2.5 2.5v6.2c0 1.4-1.1 2.5-2.5 2.5H17.2c-1.4 0-2.5-1.1-2.5-2.5V229c-.1-1.3 1.1-2.5 2.5-2.5z" class="st1"/>
  <g>
    <path d="M236.2 55v239.4c0 5-4 9-9 9H44c-5 0-9-4-9-9V55c0-5 4-9 9-9h183.2c5-.1 9 4 9 9z" class="st2"/>
    <path d="M135.6 136.4V67.2c0-2.2 1.8-3.9 3.9-3.9h77.8c2.2 0 3.9 1.8 3.9 3.9v69.2c0 2.2-1.8 3.9-3.9 3.9h-77.8c-2.1.1-3.9-1.7-3.9-3.9z" class="st3"/>
    <path d="M217.5 286.2H53.8c-2.1 0-3.8-1.7-3.8-3.8V226c0-2.1 1.7-3.8 3.8-3.8h163.7c2.1 0 3.8 1.7 3.8 3.8v56.3c0 2.2-1.7 3.9-3.8 3.9z" class="st3"/>
    <path d="M52.2 63h72.2c1.2 0 2.3 1 2.3 2.3v6.8c0 1.2-1 2.3-2.3 2.3H52.2c-1.2 0-2.3-1-2.3-2.3v-6.8c0-1.3 1.1-2.3 2.3-2.3z" class="st0"/>
    <path d="M53 152.8h130c1.7 0 3 1.3 3 3v5.3c0 1.7-1.3 3-3 3H53c-1.7 0-3-1.3-3-3v-5.3c-.1-1.7 1.3-3 3-3z" class="st0"/>
    <path d="M52.7 175.3H163c1.5 0 2.8 1.2 2.8 2.8v5.8c0 1.5-1.2 2.8-2.8 2.8H52.7c-1.5 0-2.8-1.2-2.8-2.8v-5.8c0-1.6 1.3-2.8 2.8-2.8z" class="st0"/>
    <path d="M52.3 197.7h75.5c1.3 0 2.3 1 2.3 2.3v6.7c0 1.3-1 2.3-2.3 2.3H52.3c-1.3 0-2.3-1-2.3-2.3V200c-.1-1.2 1-2.3 2.3-2.3z" class="st0"/>
    <path d="M51.9 85.4h50.8c1.1 0 1.9.9 1.9 1.9v7.5c0 1.1-.9 1.9-1.9 1.9H51.9c-1.1 0-1.9-.9-1.9-1.9v-7.5c-.1-1.1.8-1.9 1.9-1.9z" class="st0"/>
    <path d="M52 107.8h61.8c1.2 0 2.1.9 2.1 2.1v7.1c0 1.2-.9 2.1-2.1 2.1H52c-1.2 0-2.1-.9-2.1-2.1v-7.1c0-1.1 1-2.1 2.1-2.1z" class="st0"/>
    <path d="M52.2 130.3H122c1.2 0 2.2 1 2.2 2.2v6.9c0 1.2-1 2.2-2.2 2.2H52.2c-1.2 0-2.2-1-2.2-2.2v-6.9c-.1-1.2.9-2.2 2.2-2.2z" class="st0"/>
  </g>
  <g>
    <path d="M271.3 90.7v239.4c0 5-4 9-9 9H79c-5 0-9-4-9-9V90.7c0-5 4-9 9-9h183.2c5-.1 9.1 4 9.1 9z" class="st1"/>
    <path d="M88.1 212.8h141.8c1.7 0 3.1 1.4 3.1 3.1v5c0 1.7-1.4 3.1-3.1 3.1H88.1c-1.7 0-3.1-1.4-3.1-3.1v-5c-.1-1.7 1.4-3.1 3.1-3.1z" class="st3"/>
    <path d="M88.2 281.3h148.3c1.8 0 3.2 1.4 3.2 3.2v4.9c0 1.8-1.4 3.2-3.2 3.2H88.2c-1.8 0-3.2-1.4-3.2-3.2v-4.9c-.1-1.8 1.4-3.2 3.2-3.2z" class="st3"/>
    <path d="M87.7 235.3H198c1.5 0 2.8 1.2 2.8 2.8v5.8c0 1.5-1.2 2.8-2.8 2.8H87.7c-1.5 0-2.8-1.2-2.8-2.8v-5.8c0-1.6 1.3-2.8 2.8-2.8z" class="st3"/>
    <path d="M87.7 304.1H198c1.5 0 2.8 1.2 2.8 2.8v5.8c0 1.5-1.2 2.8-2.8 2.8H87.7c-1.5 0-2.8-1.2-2.8-2.8v-5.8c0-1.6 1.3-2.8 2.8-2.8z" class="st3"/>
    <path d="M87.3 257.7h75.5c1.3 0 2.3 1 2.3 2.3v6.7c0 1.3-1 2.3-2.3 2.3H87.3c-1.3 0-2.3-1-2.3-2.3V260c-.1-1.2 1-2.3 2.3-2.3z" class="st3"/>
    <path d="M90.6 96.2h160.1c4.1 0 7.4 3.3 7.4 7.4v83.6c0 4.1-3.3 7.4-7.4 7.4H90.6c-4.1 0-7.4-3.3-7.4-7.4v-83.6c-.1-4.1 3.3-7.4 7.4-7.4z" class="st2"/>
    <path d="M158.8 163.7l27.9-14c2.4-1.2 3.4-4.1 2.2-6.6-.5-.9-1.2-1.7-2.2-2.2l-27.9-14c-2.4-1.2-5.4-.2-6.6 2.2-.3.7-.5 1.4-.5 2.2v27.9c0 2.7 2.1 4.9 4.8 5 .9.1 1.6-.1 2.3-.5z" class="st3"/>
  </g>
  <g>
    <path d="M345.8 159.1c.4-3.9-3.8-3.1-8.8-3.1l-129.5.6c-5 0-9.2-.7-8.8 3.2l16.7 156.6c.5 3.9 3.8 6.9 7.8 7l99.5-.4c4-.1 7.3-3.1 7.7-7.1l15.1-154.1.3-2.7z" class="st4"/>
    <path d="M231.7 174.4c-.2-3.6-4.1-6.4-8.6-6.4-4.6 0-8 2.9-7.7 6.5l11.2 131c.4 3.6 3.5 6.4 7.1 6.4 3.4 0 6.2-2.7 6.2-6.1v-.4l-8.2-131z" class="st0"/>
    <path d="M222.5 168c-4.3.2-7.5 3-7.2 6.4l11.2 131c.4 3.5 3.2 6.2 6.7 6.4L222.5 168z" class="st5"/>
    <path d="M264.2 174.2c-.1-3.6-3.8-6.4-8.3-6.4-4.6 0-8.1 2.9-8 6.5l5.1 131.1c.2 3.6 3.2 6.4 6.8 6.4 3.5 0 6.4-2.8 6.5-6.3v-.1l-2.1-131.2z" class="st0"/>
    <path d="M255.5 167.8c-4.4.2-7.8 3-7.7 6.5l5.2 131.1c.2 3.5 3 6.3 6.6 6.4l-4.1-144z" class="st5"/>
    <path d="M296.7 174.1c.1-3.6-3.5-6.4-8.1-6.4s-8.3 2.9-8.3 6.5l-.9 131.1c0 3.5 2.9 6.4 6.4 6.4h.1c3.6 0 6.6-2.9 6.8-6.5l4-131.1z" class="st0"/>
    <path d="M288.9 167.7h-.3c-4.6 0-8.3 2.9-8.3 6.5l-.9 131.1c0 3.5 2.9 6.4 6.4 6.4H286.1l2.8-144z" class="st5"/>
    <path d="M329.1 173.9c.3-3.6-3.2-6.4-7.8-6.4s-8.4 2.9-8.6 6.5l-7 131.1c-.2 3.3 2.4 6.2 5.7 6.4h.5c3.7 0 6.7-2.8 7.1-6.5l10.1-131.1z" class="st0"/>
    <path d="M321.5 167.5c-4.6 0-8.5 2.9-8.7 6.5l-7 131.1c-.2 3.3 2.4 6.2 5.7 6.4h.6l9.4-144z" class="st5"/>
    <path fill="#45278d" d="M197.8 152l1 9.5h146.7l.9-9.5z"/>
    <path d="M293.2 97.3h-42c-7.7 0-14 6.3-14 14v19h10.5v-17c0-3.1 2.5-5.6 5.6-5.6h37.9c3.1 0 5.5 2.5 5.5 5.6v17h10.5v-19c0-7.7-6.3-14-14-14z" class="st0"/>
    <path d="M291.1 107.8h-37.9c-3.1 0-5.6 2.5-5.6 5.6v17h10.5v-9c0-1.7 1.4-3.1 3.1-3.1h21.9c1.7 0 3.1 1.4 3.1 3.1v9h10.5v-17c0-3.1-2.5-5.6-5.6-5.6z" class="st4"/>
    <path d="M194.2 139.1H350v13.1H194.2z" class="st4"/>
    <path d="M341.2 130.4H203c-4.8 0-8.8 3.9-8.8 8.8H350c0-4.9-3.9-8.8-8.8-8.8z" class="st0"/>
  </g>
</svg>
