<svg xmlns="http://www.w3.org/2000/svg" width="350" height="350" viewBox="0 0 350 350" xml:space="preserve">
  <style>
    .st0{fill:#ab71ff}.st1{fill:#592acb}.st2{fill:#9059ff}.st4{opacity:.5;fill:#fff;enable-background:new}.st5{fill:none;stroke:#7542e5;stroke-width:2.5812;stroke-linecap:round;stroke-linejoin:round}.st9{fill:#cb9eff}
  </style>
  <path d="M121.8 38.9h216.5c6.5 0 11.7 5.2 11.7 11.7v287.7c0 6.5-5.2 11.7-11.7 11.7H121.8c-6.5 0-11.7-5.2-11.7-11.7V50.6c0-6.5 5.2-11.7 11.7-11.7z" class="st0"/>
  <path d="M122.5 272.6v53.9c0 3.8 3.1 6.9 6.9 7h201.3c3.8 0 6.9-3.1 6.9-7V69.7L122.5 272.6z" class="st1"/>
  <path d="M122.5 69.8v202.8L337.7 69.8H122.5z" class="st2"/>
  <path d="M330.8 48.9H129.4c-3.8 0-6.9 3.1-6.9 6.9v13.8h215.2V55.9c-.1-3.8-3.2-6.9-6.9-7z" class="st1"/>
  <path fill="none" stroke="#7542e5" stroke-linecap="round" stroke-linejoin="round" stroke-width="2.7912" d="M219.9 340.6h19.2"/>
  <path d="M194.3 289.5h21.2c2.8 0 5.1 2.3 5.1 5.1v21.2c0 2.8-2.3 5.1-5.1 5.1h-21.2c-2.8 0-5.1-2.3-5.1-5.1v-21.2c0-2.8 2.3-5.1 5.1-5.1z" class="st4"/>
  <path d="M244.7 289.5h21.2c2.8 0 5.1 2.3 5.1 5.1v21.2c0 2.8-2.3 5.1-5.1 5.1h-21.2c-2.8 0-5.1-2.3-5.1-5.1v-21.2c0-2.8 2.3-5.1 5.1-5.1z" class="st4"/>
  <path d="M143.8 289.5H165c2.8 0 5.1 2.3 5.1 5.1v21.2c0 2.8-2.3 5.1-5.1 5.1h-21.2c-2.8 0-5.1-2.3-5.1-5.1v-21.2c.1-2.8 2.3-5.1 5.1-5.1z" class="st4"/>
  <path d="M295.1 289.5h21.2c2.8 0 5.1 2.3 5.1 5.1v21.2c0 2.8-2.3 5.1-5.1 5.1h-21.2c-2.8 0-5.1-2.3-5.1-5.1v-21.2c0-2.8 2.3-5.1 5.1-5.1z" class="st4"/>
  <g>
    <path d="M11.6 0H127c6.4 0 11.6 5.2 11.6 11.6V214c0 6.4-5.2 11.6-11.6 11.6H11.6C5.2 225.6 0 220.4 0 214V11.6C0 5.2 5.2 0 11.6 0z" class="st0"/>
    <path d="M127.1 17.2v191.2c0 3.2-2.6 5.8-5.8 5.8H17.2c-3.2 0-5.8-2.6-5.8-5.8V17.2c0-3.2 2.6-5.8 5.8-5.8h104.1c3.2 0 5.8 2.6 5.8 5.8z" class="st1"/>
    <path d="M11.4 23v115.9L127.1 23H11.4z" class="st2"/>
    <path d="M17.2 11.4h104.1c3.2 0 5.8 2.6 5.8 5.8V23H11.4v-5.8c0-3.2 2.6-5.8 5.8-5.8z" class="st1"/>
    <path d="M62.5 220H76" class="st5"/>
    <path d="M67.8 5.6h2.9" class="st5"/>
    <path d="M22.8 31.3h16.1c2.1 0 3.9 1.7 3.9 3.9v16.2c0 2.1-1.7 3.9-3.9 3.9H22.8c-2.1 0-3.9-1.7-3.9-3.9V35.2c.1-2.2 1.8-3.9 3.9-3.9z" class="st4"/>
    <path d="M61.2 31.3h16.1c2.1 0 3.9 1.7 3.9 3.9v16.2c0 2.1-1.7 3.9-3.9 3.9H61.2c-2.1 0-3.9-1.7-3.9-3.9V35.2c.1-2.2 1.8-3.9 3.9-3.9z" class="st4"/>
    <path d="M99.6 31.3h16.1c2.1 0 3.9 1.7 3.9 3.9v16.2c0 2.1-1.7 3.9-3.9 3.9H99.6c-2.1 0-3.9-1.7-3.9-3.9V35.2c.1-2.2 1.8-3.9 3.9-3.9z" class="st4"/>
    <path d="M22.8 66.6h16.1c2.1 0 3.9 1.7 3.9 3.9v16.2c0 2.1-1.7 3.9-3.9 3.9H22.8c-2.1 0-3.9-1.7-3.9-3.9V70.5c.1-2.1 1.8-3.9 3.9-3.9z" class="st4"/>
    <path d="M61.2 66.6h16.1c2.1 0 3.9 1.7 3.9 3.9v16.2c0 2.1-1.7 3.9-3.9 3.9H61.2c-2.1 0-3.9-1.7-3.9-3.9V70.5c.1-2.1 1.8-3.9 3.9-3.9z" class="st4"/>
    <path d="M99.6 66.6h16.1c2.1 0 3.9 1.7 3.9 3.9v16.2c0 2.1-1.7 3.9-3.9 3.9H99.6c-2.1 0-3.9-1.7-3.9-3.9V70.5c.1-2.1 1.8-3.9 3.9-3.9z" class="st4"/>
  </g>
  <g>
    <path fill="#e7dfff" d="M163.4 91.7C104.1 91.7 56 139.8 56 199.1c0 25.4 9 50 25.4 69.4 2.2 2.6 5.5 4.1 8.9 4.1h146.3c3.4 0 6.6-1.5 8.8-4.1 38.3-45.3 32.7-113.1-12.6-151.4-19.4-16.4-44-25.4-69.4-25.4z"/>
    <path fill="#7542e5" d="M260.8 197.9c0-2.4-.2-4.8-.4-7.2h-33.7c.4 2.6.6 5.2.6 7.9.3 13.5-3.7 26.7-11.5 37.7-1.6 2.4-1.3 5.6.7 7.6l15.4 15.4c2.3 2.3 6.1 2.3 8.5 0 .2-.2.3-.4.5-.6 13.4-17.4 20.4-38.8 19.9-60.8z"/>
    <path fill="#d9bfff" d="M100.9 190.8H67.2c-.3 3.7-.5 7.3-.4 11 .4 20.5 7.2 40.3 19.6 56.6 2 2.6 5.7 3.1 8.4 1.1.2-.2.4-.3.6-.5l15.4-15.4c2-2 2.3-5.2.7-7.6-7.1-10.2-11-22.4-11.2-34.8-.1-3.6.1-7 .6-10.4z"/>
    <path d="M123.4 150.8L99.7 127c-18.6 16.3-30.2 39.1-32.5 63.7h33.7c2.3-15.6 10.3-29.9 22.5-39.9z" class="st9"/>
    <path fill="#c689ff" d="M162.6 136.3h.8v-33.5h-1.5c-23 .4-45 9-62.2 24.2l23.7 23.7c11.1-9.1 24.9-14.1 39.2-14.4z"/>
    <path d="M203.8 150.4l23.8-23.8c-17.8-15.5-40.6-24-64.2-23.9v33.5c14.7 0 29 5 40.4 14.2z" class="st0"/>
    <path d="M226.7 190.8h33.7c-2.3-24.8-14.1-47.7-32.8-64l-23.8 23.8c12.5 9.9 20.6 24.3 22.9 40.2z" class="st2"/>
    <circle cx="163.8" cy="199.1" r="21.9" class="st9" transform="rotate(-80.781 163.82980615 199.12133645)"/>
    <path fill="#45278d" d="M243.9 180.5l-79.6 5.2h-.2c-7.2-.1-13.2 5.8-13.2 13-.1 7.2 5.8 13.2 13 13.2 2.1 0 4.1-.5 6-1.4l74.7-26.6c1-.2 1.6-1.1 1.4-2.1-.2-.8-1.1-1.4-2.1-1.3z"/>
  </g>
</svg>
