<svg xmlns="http://www.w3.org/2000/svg" width="350" height="350" viewBox="0 0 350 350" xml:space="preserve">
  <style>
    .st1{fill:#9059ff}.st3{opacity:.5;fill:#fff;enable-background:new}.st6{fill:#592acb}.st7{fill:none;stroke:#7542e5;stroke-width:2.5812;stroke-linecap:round;stroke-linejoin:round}.st8{fill:#7542e5}
  </style>
  <path fill="#cb9eff" d="M11.7 0h216.5c6.5 0 11.7 5.2 11.7 11.7v287.7c0 6.5-5.2 11.7-11.7 11.7H11.7c-6.5 0-11.7-5.2-11.7-11.7V11.7C0 5.2 5.2 0 11.7 0z"/>
  <path d="M12.4 246v41.6c0 3.8 3.1 6.9 6.9 7h201.3c3.8 0 6.9-3.1 6.9-6.9V30.8L12.4 246z" class="st1"/>
  <path fill="#c689ff" d="M12.4 30.9V246L227.6 30.9H12.4z"/>
  <path d="M220.6 10.1H19.3c-3.8 0-6.9 3.1-6.9 6.9v13.8h215.2V17c-.1-3.8-3.2-6.9-7-6.9z" class="st1"/>
  <path d="M84.2 250.6h21.2c2.8 0 5.1 2.3 5.1 5.1v21.2c0 2.8-2.3 5.1-5.1 5.1H84.2c-2.8 0-5.1-2.3-5.1-5.1v-21.2c0-2.8 2.3-5.1 5.1-5.1z" class="st3"/>
  <path d="M134.6 250.6h21.2c2.8 0 5.1 2.3 5.1 5.1v21.2c0 2.8-2.3 5.1-5.1 5.1h-21.2c-2.8 0-5.1-2.3-5.1-5.1v-21.2c0-2.8 2.3-5.1 5.1-5.1z" class="st3"/>
  <path d="M33.7 250.6h21.2c2.8 0 5.1 2.3 5.1 5.1v21.2c0 2.8-2.3 5.1-5.1 5.1H33.7c-2.8 0-5.1-2.3-5.1-5.1v-21.2c.1-2.8 2.3-5.1 5.1-5.1z" class="st3"/>
  <path d="M185 250.6h21.2c2.8 0 5.1 2.3 5.1 5.1v21.2c0 2.8-2.3 5.1-5.1 5.1H185c-2.8 0-5.1-2.3-5.1-5.1v-21.2c0-2.8 2.3-5.1 5.1-5.1z" class="st3"/>
  <path fill="none" stroke="#7542e5" stroke-linecap="round" stroke-linejoin="round" stroke-width="2.7912" d="M109.8 301.7H129"/>
  <g>
    <path fill="#c38afa" d="M223 124.4h115.4c6.4 0 11.6 5.2 11.6 11.6v202.4c0 6.4-5.2 11.6-11.6 11.6H223c-6.4 0-11.6-5.2-11.6-11.6V136c0-6.4 5.2-11.6 11.6-11.6z"/>
    <path d="M338.6 141.6v191.2c0 3.2-2.6 5.8-5.8 5.8H228.7c-3.2 0-5.8-2.6-5.8-5.8V141.6c0-3.2 2.6-5.8 5.8-5.8h104.1c3.2 0 5.8 2.6 5.8 5.8z" class="st6"/>
    <path d="M222.9 147.4v115.9l115.7-115.9H222.9z" class="st1"/>
    <path d="M228.7 135.8h104.1c3.2 0 5.8 2.6 5.8 5.8v5.8H222.9v-5.8c0-3.2 2.6-5.8 5.8-5.8z" class="st6"/>
    <path d="M274 344.4h13.5" class="st7"/>
    <path d="M279.3 130h2.9" class="st7"/>
    <path d="M234.3 155.8h16.1c2.1 0 3.9 1.7 3.9 3.9v16.2c0 2.1-1.7 3.9-3.9 3.9h-16.1c-2.1 0-3.9-1.7-3.9-3.9v-16.2c0-2.2 1.7-3.9 3.9-3.9z" class="st3"/>
    <path d="M272.7 155.8h16.1c2.1 0 3.9 1.7 3.9 3.9v16.2c0 2.1-1.7 3.9-3.9 3.9h-16.1c-2.1 0-3.9-1.7-3.9-3.9v-16.2c0-2.2 1.7-3.9 3.9-3.9z" class="st3"/>
    <path d="M311.1 155.8h16.1c2.1 0 3.9 1.7 3.9 3.9v16.2c0 2.1-1.7 3.9-3.9 3.9h-16.1c-2.1 0-3.9-1.7-3.9-3.9v-16.2c0-2.2 1.7-3.9 3.9-3.9z" class="st3"/>
    <path d="M234.3 191.1h16.1c2.1 0 3.9 1.7 3.9 3.9v16.2c0 2.1-1.7 3.9-3.9 3.9h-16.1c-2.1 0-3.9-1.7-3.9-3.9V195c0-2.2 1.7-3.9 3.9-3.9z" class="st3"/>
    <path d="M272.7 191.1h16.1c2.1 0 3.9 1.7 3.9 3.9v16.2c0 2.1-1.7 3.9-3.9 3.9h-16.1c-2.1 0-3.9-1.7-3.9-3.9V195c0-2.2 1.7-3.9 3.9-3.9z" class="st3"/>
    <path d="M311.1 191.1h16.1c2.1 0 3.9 1.7 3.9 3.9v16.2c0 2.1-1.7 3.9-3.9 3.9h-16.1c-2.1 0-3.9-1.7-3.9-3.9V195c0-2.2 1.7-3.9 3.9-3.9z" class="st3"/>
  </g>
  <g>
    <path d="M91.5 147.2c4 44.5 13.4 64.9 29.4 86.7 12.7 17.2 31.2 29.1 52 33.7.6.1 1.3.2 1.9.2.6 0 1.3-.1 1.9-.2 21-4.4 39.7-16.4 52.4-33.7 15.9-21.9 25.4-42.2 29.4-86.7.6-6.9.5-18.2.3-33.5-.1-8.5-.3-18.2-.3-29.2 0-4.5-3.2-8.4-7.7-9.2l-74.3-12.9c-1.1-.2-2.1-.2-3.2 0l-74.2 13c-4.4.8-7.7 4.7-7.7 9.2 0 10.9-.1 20.6-.3 29.2-.1 15.3-.3 26.4.4 33.4z" class="st8"/>
    <path d="M174.9 62.5V268c.6 0 1.2-.1 1.8-.2 21-4.4 39.7-16.4 52.4-33.7 16-21.9 25.4-42.2 29.4-86.7.6-6.9.5-18.1.3-33.5-.1-8.5-.3-18.2-.3-29.2 0-4.5-3.2-8.4-7.7-9.2l-74.3-12.9c-.5 0-1-.1-1.6-.1z" class="st6"/>
    <path d="M175 76.7V249c.5 0 1 0 1.5-.1 17.6-3.6 33.3-13.7 43.9-28.2 13.4-18.4 21.3-35.4 24.6-72.7.5-5.9.5-15.3.3-28.2-.1-7.2-.2-15.3-.2-24.4 0-3.8-2.8-7-6.5-7.7l-62.3-10.8c-.4-.2-.8-.2-1.3-.2z" class="st8"/>
    <path fill="#ab71ff" d="M105 147.9c3.4 37.4 11.2 54.4 24.6 72.7 10.7 14.5 26.3 24.5 43.9 28.3.5.1 1 .2 1.5.2V76.7c-.4 0-.9 0-1.3.1l-62.3 10.8c-3.7.7-6.5 3.9-6.5 7.7 0 9.1-.2 17.3-.2 24.4-.2 13-.3 22.3.3 28.2z"/>
  </g>
</svg>
