<svg xmlns="http://www.w3.org/2000/svg" width="350" height="350" viewBox="0 0 350 350" xml:space="preserve">
  <style>
    .st0{fill:#d9bfff}.st1{fill:#7542e5}.st2{fill:#592acb}.st4{fill:#ab71ff}.st5{fill:#c689ff}
  </style>
  <path d="M232.7 10.5v329c0 5.8-4.7 10.5-10.5 10.5H42c-5.8 0-10.5-4.7-10.5-10.5v-329C31.5 4.7 36.2 0 42 0h180.2c5.8 0 10.5 4.7 10.5 10.5z" class="st0"/>
  <path d="M42 0h180.2c5.8 0 10.5 4.7 10.5 10.5v8.2H31.5v-8.2C31.5 4.7 36.2 0 42 0z" class="st1"/>
  <path d="M31.5 18.7h201.2v27.7H31.5z" class="st2"/>
  <path fill="#45278d" d="M41.5 22.1h181.1c2 0 3.6 1.6 3.6 3.6v13.6c0 2-1.6 3.6-3.6 3.6H41.5c-2 0-3.6-1.6-3.6-3.6V25.7c0-2 1.6-3.6 3.6-3.6z"/>
  <path d="M56.2 31.1H56v-2.2c0-2.2-1.8-3.9-3.9-3.9s-3.9 1.8-3.9 3.9v2.2H48c-1.1 0-1.9.9-1.9 1.9v4.4c0 1.1.9 1.9 1.9 1.9h8.2c1.1 0 1.9-.9 1.9-1.9V33c0-1-.9-1.9-1.9-1.9zm-6-2.3c0-.5.1-.9.4-1.3.3-.4.8-.6 1.2-.6h.1c.4 0 .9.2 1.2.5.4.3.6.8.6 1.2v2.5h-3.6l.1-2.3z" class="st4"/>
  <path d="M68.4 27H173c1.4 0 2.6 1.2 2.6 2.6v5.2c0 1.4-1.2 2.6-2.6 2.6H68.4c-1.4 0-2.6-1.2-2.6-2.6v-5.2c0-1.5 1.1-2.6 2.6-2.6z" class="st0"/>
  <path d="M222.2 350H42c-5.8 0-10.5-4.7-10.5-10.5v-8.2h201.2v8.2c0 5.8-4.6 10.5-10.5 10.5z" class="st1"/>
  <path d="M31.5 299.8h201.2v31.5H31.5z" class="st2"/>
  <path d="M60.3 314.2H47.6l4.8-5.1c.5-.5.5-1.4-.1-1.9-.5-.5-1.4-.5-1.9.1l-6.9 7.4c-.1.1-.2.2-.2.3v.1c0 .1-.1.2-.1.4v.1c0 .1 0 .2.1.3v.1c.1.1.1.2.2.4l6.9 7.4c.3.3.6.4 1 .4.3 0 .6-.1.9-.4.5-.5.6-1.3.1-1.9l-4.8-5.2h12.7c.7 0 1.3-.6 1.3-1.3s-.5-1.2-1.3-1.2z" class="st4"/>
  <path d="M101.5 315.6v-.1c0-.1 0-.2-.1-.4v-.1c-.1-.1-.1-.2-.2-.3l-6.9-7.4c-.5-.5-1.3-.6-1.9-.1-.5.5-.6 1.3-.1 1.9l4.8 5.1H84.5c-.7 0-1.3.6-1.3 1.3s.6 1.3 1.3 1.3h12.7l-4.8 5.2c-.5.5-.5 1.4.1 1.9.3.2.6.4.9.4.4 0 .7-.1 1-.4l6.9-7.4c.1-.1.2-.2.2-.4v-.1-.4z" class="st4"/>
  <path d="M177.7 323.2h-10.9c-2.1 0-3.7-1.7-3.7-3.7v-7.8c0-2.1 1.7-3.7 3.7-3.7h10.9c2.1 0 3.7 1.7 3.7 3.7v7.8c0 2-1.7 3.7-3.7 3.7zm-10.9-12.6c-.6 0-1.1.5-1.1 1.1v7.8c0 .6.5 1.1 1.1 1.1h10.9c.6 0 1.1-.5 1.1-1.1v-7.8c0-.6-.5-1.1-1.1-1.1h-10.9z" class="st4"/>
  <path d="M220 309.8h-15.8c-.7 0-1.3-.6-1.3-1.3s.6-1.3 1.3-1.3H220c.7 0 1.3.6 1.3 1.3s-.6 1.3-1.3 1.3z" class="st4"/>
  <path d="M220 324h-15.8c-.7 0-1.3-.6-1.3-1.3s.6-1.3 1.3-1.3H220c.7 0 1.3.6 1.3 1.3s-.6 1.3-1.3 1.3z" class="st4"/>
  <path d="M220 316.9h-15.8c-.7 0-1.3-.6-1.3-1.3s.6-1.3 1.3-1.3H220c.7 0 1.3.6 1.3 1.3s-.6 1.3-1.3 1.3z" class="st4"/>
  <path d="M134.5 313.7c.2.2.5.3.8.3h4c.6 0 1.1-.5 1.1-1.1V309c0-.6-.5-1.1-1.1-1.1-.3 0-.6.1-.8.3l-1 1c-1.5-1.2-3.4-2-5.3-2-2.2 0-4.3.9-5.9 2.4-1.6 1.6-2.4 3.7-2.4 5.9s.9 4.3 2.4 5.9c1.6 1.6 3.6 2.4 5.9 2.4 3.9 0 7.3-2.8 8.1-6.6.1-.3 0-.6-.2-.9-.2-.3-.5-.5-.8-.5-.7-.1-1.3.3-1.4 1-.3 1.5-1.2 2.8-2.5 3.7-1.3.9-2.9 1.2-4.4.9-1.5-.3-2.9-1.2-3.7-2.5-1.8-2.7-1.1-6.3 1.6-8.1 1.3-.9 2.9-1.2 4.4-.9.9.2 1.8.6 2.5 1.1l-1.2 1.2c-.5.4-.5 1-.1 1.5z" class="st4"/>
  <path d="M48.4 64.8h72.2c1.2 0 2.3 1 2.3 2.3v6.8c0 1.2-1 2.3-2.3 2.3H48.4c-1.2 0-2.3-1-2.3-2.3v-6.8c0-1.2 1-2.3 2.3-2.3z" class="st5"/>
  <path d="M49.4 86.5h159.4c1.8 0 3.3 1.5 3.3 3.3v4.7c0 1.8-1.5 3.3-3.3 3.3H49.4c-1.8 0-3.3-1.5-3.3-3.3v-4.7c0-1.8 1.5-3.3 3.3-3.3z" class="st5"/>
  <path d="M49.4 108.2h159.4c1.8 0 3.3 1.5 3.3 3.3v4.7c0 1.8-1.5 3.3-3.3 3.3H49.4c-1.8 0-3.3-1.5-3.3-3.3v-4.7c0-1.8 1.5-3.3 3.3-3.3z" class="st5"/>
  <path d="M49.4 130.8h159.4c1.8 0 3.3 1.5 3.3 3.3v4.7c0 1.8-1.5 3.3-3.3 3.3H49.4c-1.8 0-3.3-1.5-3.3-3.3v-4.7c0-1.8 1.5-3.3 3.3-3.3z" class="st5"/>
  <path d="M48.1 153.5h56.2c1.1 0 2 .9 2 2v7.3c0 1.1-.9 2-2 2H48.1c-1.1 0-2-.9-2-2v-7.3c0-1.1.9-2 2-2z" class="st5"/>
  <path d="M49.4 194.9h159.4c1.8 0 3.3 1.5 3.3 3.3v4.7c0 1.8-1.5 3.3-3.3 3.3H49.4c-1.8 0-3.3-1.5-3.3-3.3v-4.7c0-1.8 1.5-3.3 3.3-3.3z" class="st5"/>
  <path d="M49.4 216.6h159.4c1.8 0 3.3 1.5 3.3 3.3v4.7c0 1.8-1.5 3.3-3.3 3.3H49.4c-1.8 0-3.3-1.5-3.3-3.3v-4.7c0-1.8 1.5-3.3 3.3-3.3z" class="st5"/>
  <path d="M49.4 239.2h159.4c1.8 0 3.3 1.5 3.3 3.3v4.7c0 1.8-1.5 3.3-3.3 3.3H49.4c-1.8 0-3.3-1.5-3.3-3.3v-4.7c0-1.8 1.5-3.3 3.3-3.3z" class="st5"/>
  <path d="M48.7 261.9h92.1c1.4 0 2.5 1.1 2.5 2.5v6.2c0 1.4-1.1 2.5-2.5 2.5H48.7c-1.4 0-2.5-1.1-2.5-2.5v-6.2c-.1-1.4 1-2.5 2.5-2.5z" class="st5"/>
  <g>
    <path d="M147.5 156.6c4.1 45.5 13.7 66.2 30 88.6 13 17.5 31.8 29.8 53.1 34.4 1.3.2 2.6.2 3.9 0 21.5-4.5 40.5-16.8 53.5-34.4 16.3-22.3 25.9-43.1 30-88.6.6-7.1.5-18.5.3-34.2-.1-8.8-.3-18.6-.3-29.8 0-4.6-3.3-8.6-7.9-9.4l-75.9-13.1c-.5-.1-1.1-.1-1.6-.1s-1.1 0-1.6.1l-75.9 13.1c-4.5.9-7.8 4.8-7.8 9.4 0 11.2-.1 21.1-.3 29.8-.1 15.8-.2 27.1.5 34.2z" class="st1"/>
    <path d="M232.6 70.2V280c.6 0 1.3-.1 1.9-.2 21.5-4.5 40.5-16.7 53.5-34.4 16.3-22.3 25.9-43.1 30-88.6.6-7.1.5-18.5.3-34.2-.1-8.8-.3-18.6-.3-29.8 0-4.6-3.3-8.5-7.8-9.4l-75.9-13.1c-.5-.1-1.1-.1-1.7-.1z" class="st2"/>
    <path d="M232.8 84.6v176c.5 0 1 0 1.5-.2 18-3.7 34-14 44.9-28.8 13.7-18.7 21.7-36.1 25.2-74.3.5-6 .5-15.6.3-28.8-.1-7.3-.2-15.6-.2-25 0-3.9-2.8-7.2-6.6-7.9l-63.6-11h-1.5z" class="st1"/>
    <path d="M161.2 157.3c3.5 38.2 11.5 55.6 25.2 74.3 10.9 14.8 26.9 25 44.8 28.9.5.1 1 .2 1.6.1v-176c-.5 0-.9 0-1.4.1l-63.6 11c-3.8.7-6.6 4-6.6 7.8 0 9.3-.2 17.7-.2 25-.2 13.3-.3 22.9.2 28.8z" class="st4"/>
  </g>
</svg>
