<?xml version="1.0" encoding="UTF-8"?>
<svg width="25px" height="27px" viewBox="0 0 25 27" version="1.1" xmlns="http://www.w3.org/2000/svg" xmlns:xlink="http://www.w3.org/1999/xlink">
    <!-- Generator: Sketch 59.1 (86144) - https://sketch.com -->
    <title>Group 10</title>
    <desc>Created with Sketch.</desc>
    <g id="/firefox/features" stroke="none" stroke-width="1" fill="none" fill-rule="evenodd">
        <g id="fx-features-1312-FINAL" transform="translate(-140.000000, -2504.000000)">
            <g id="Group-10" transform="translate(141.500000, 2505.517667)">
                <rect id="Rectangle" stroke="#000000" stroke-width="2.49600001" stroke-linecap="round" stroke-linejoin="round" x="0" y="8.37200003" width="21.5280001" height="15.548" rx="2.49600001"></rect>
                <path d="M4.78400001,8.37200003 L4.78400001,5.98000002 C4.78400001,2.6773372 7.46133722,-1.39888101e-13 10.764,-1.39888101e-13 C14.0666628,-1.39888101e-13 16.7440001,2.6773372 16.7440001,5.98000002 L16.7440001,8.37200003" id="Path" stroke="#000000" stroke-width="2.49600001" stroke-linecap="round" stroke-linejoin="round"></path>
                <circle id="Oval" fill="#000000" cx="10.764" cy="14.352" r="2.39200001"></circle>
                <path d="M9.05700311,18.6194923 L10.764,14.352 L10.764,14.352 L12.4714356,18.6187147 C12.7275141,19.2586298 12.416353,19.984976 11.776438,20.2410545 C11.6291877,20.2999805 11.4720549,20.3302986 11.3134519,20.3303856 L10.216427,20.3309877 C9.52717575,20.331366 8.96812052,19.7729242 8.96774221,19.0836729 C8.96765494,18.9246727 8.9979519,18.7671204 9.05700311,18.6194923 Z" id="Path-28" fill="#000000"></path>
            </g>
        </g>
    </g>
</svg>