<?xml version="1.0" encoding="UTF-8"?>
<svg width="26px" height="28px" viewBox="0 0 26 28" version="1.1" xmlns="http://www.w3.org/2000/svg" xmlns:xlink="http://www.w3.org/1999/xlink">
    <!-- Generator: Sketch 59.1 (86144) - https://sketch.com -->
    <title>mountain@3x</title>
    <desc>Created with Sketch.</desc>
    <g id="/firefox/features" stroke="none" stroke-width="1" fill="none" fill-rule="evenodd">
        <g id="fx-features-1312-FINAL" transform="translate(-868.000000, -2272.000000)" stroke="#000000" stroke-width="2.4000001">
            <g id="mountain" transform="translate(869.372321, 2272.706454)">
                <path d="M11.0026841,6.90624581 L0.115267931,24.9169351 C-0.163516434,25.3779269 0.179421589,25.958081 0.730339398,25.958081 L11.6177556,25.958081 L22.5053104,25.958081 C23.0562281,25.958081 23.3990276,25.3779269 23.1203818,24.9169351 L12.2329656,6.90624581 C11.9575067,6.45051928 11.2781431,6.45051928 11.0026841,6.90624581 Z" id="Stroke-9"></path>
                <path d="M15.0951055,11.6409937 L12.2329933,6.90623196 C11.9573959,6.45050543 11.2780322,6.45050543 11.0025733,6.90623196 L8.14059963,11.6409937 L7.88550915,12.0629113 L9.37323661,15.1777392 C9.48366959,15.3293247 9.70980086,15.3293247 9.8203724,15.1777392 L11.6151507,12.713435 L13.4100675,15.1777392 C13.5205004,15.3294633 13.7467703,15.3294633 13.8570647,15.1777392 L15.3477019,12.0590316 L15.0951055,11.6409937 Z" id="Stroke-11" stroke-linejoin="round"></path>
                <path d="M11.6166055,1.25489707 L11.6166055,6.17719409 C11.6162561,6.39099923 11.7898843,6.56445092 12.0038663,6.56427343 L21.0665141,6.56445092 C21.2227972,6.56462741 21.364036,6.4702912 21.424036,6.32551255 C21.4842129,6.18126488 21.4511156,6.01453935 21.3406732,5.90356599 L19.1569581,3.71613407 L21.3404962,1.52887915 C21.4511156,1.41808278 21.4843899,1.25135725 21.42439,1.10675559 C21.404213,1.05914501 21.3757174,1.01666717 21.3403192,0.981445957 C21.2691688,0.91029557 21.1711158,0.867990227 21.0665141,0.86817171 L12.0036893,0.867990227 C11.9008576,0.867640737 11.8026276,0.908879642 11.7300613,0.981445957 C11.657318,1.05401227 11.6162561,1.15241927 11.6166055,1.25489707 Z" id="Stroke-13" stroke-linejoin="round"></path>
            </g>
        </g>
    </g>
</svg>