<?xml version="1.0" encoding="UTF-8"?>
<svg width="30px" height="25px" viewBox="0 0 30 25" version="1.1" xmlns="http://www.w3.org/2000/svg" xmlns:xlink="http://www.w3.org/1999/xlink">
    <!-- Generator: Sketch 59.1 (86144) - https://sketch.com -->
    <title>Group 6 Copy</title>
    <desc>Created with Sketch.</desc>
    <g id="/firefox/features" stroke="none" stroke-width="1" fill="none" fill-rule="evenodd">
        <g id="fx-features-1312-FINAL" transform="translate(-500.000000, -2274.000000)">
            <g id="Group-6-Copy" transform="translate(500.777778, 2274.356453)">
                <rect id="Rectangle-Copy-3" fill="#000000" x="-1.10134124e-13" y="0" width="28.4516129" height="24"></rect>
                <path d="M23.51689,15.1396865 L25.0812437,15.1396865 L25.0812437,17.7385321 L20.1812842,17.7385321 L20.1812842,11.0311554 C20.1812842,8.96385353 19.5033976,8.16821987 18.174538,8.16821987 C16.5580392,8.16821987 15.9070662,9.33475675 15.9070662,11.0050828 L15.9070662,15.1666001 L17.4705788,15.1666001 L17.4705788,17.7646047 L12.5445467,17.7646047 L12.5445467,11.0311554 C12.5445467,8.96385353 11.8666601,8.16821987 10.5378005,8.16821987 C8.92214276,8.16821987 8.27032872,9.33475675 8.27032872,11.0050828 L8.27032872,15.1666001 L10.511728,15.1666001 L10.511728,17.7646047 L3.37036922,17.7646047 L3.37036922,15.1666001 L4.93472292,15.1666001 L4.93472292,8.40791923 L3.37036922,8.40791923 L3.37036922,5.80907356 L8.29640128,5.80907356 L8.29640128,7.61228557 C9.00036045,6.33977635 10.2249298,5.5710563 11.8666601,5.5710563 C13.5613767,5.5710563 15.1248893,6.39276252 15.6984857,8.14298836 C16.3494587,6.55172104 17.6791593,5.5710563 19.5294701,5.5710563 C21.6405066,5.5710563 23.5690351,6.87047914 23.5690351,9.70650101 L23.5690351,15.1405275 L23.51689,15.1405275 L23.51689,15.1396865 Z" id="Path-Copy-2" fill="#FFFFFF"></path>
            </g>
        </g>
    </g>
</svg>
