<?xml version="1.0" encoding="UTF-8"?>
<svg width="26px" height="25px" viewBox="0 0 26 25" version="1.1" xmlns="http://www.w3.org/2000/svg" xmlns:xlink="http://www.w3.org/1999/xlink">
    <!-- Generator: Sketch 59.1 (86144) - https://sketch.com -->
    <title>open-source@3x</title>
    <desc>Created with Sketch.</desc>
    <g id="/firefox/features" stroke="none" stroke-width="1" fill="none" fill-rule="evenodd" stroke-linejoin="round">
        <g id="fx-features-1312-FINAL" transform="translate(-138.000000, -2276.000000)" fill-rule="nonzero" stroke="#000000" stroke-width="2.4000001">
            <g id="open-source" transform="translate(139.500000, 2277.944453)">
                <path d="M16.4363587,21.8768049 L14.428438,15.4669043 C15.6788698,14.5368854 16.4314292,13.0695588 16.4314292,11.5020005 C16.4314292,8.78424206 14.2197589,6.57257169 11.5020005,6.57257169 C8.78424206,6.57257169 6.57257169,8.78424206 6.57257169,11.5020005 C6.57257169,13.0712019 7.32513115,14.5368854 8.57556291,15.4669043 L6.5692854,21.8768049 C2.60602467,20.0036219 3.55271368e-14,15.9384863 3.55271368e-14,11.5020005 C3.55271368e-14,5.15946878 5.15946878,4.1033843e-13 11.5020005,4.1033843e-13 C17.842889,4.1033843e-13 23.0040009,5.15946878 23.0040009,11.5020005 C23.0040009,15.9384863 20.3979762,20.0036219 16.4363587,21.8768049 Z" id="Path-Copy"></path>
            </g>
        </g>
    </g>
</svg>
