<?xml version="1.0" encoding="utf-8"?>
<!-- Generator: Adobe Illustrator 16.0.0, SVG Export Plug-In . SVG Version: 6.00 Build 0)  -->
<!DOCTYPE svg PUBLIC "-//W3C//DTD SVG 1.1//EN" "http://www.w3.org/Graphics/SVG/1.1/DTD/svg11.dtd">
<svg version="1.1" id="ID_Download_on_the_App_Store"
	 xmlns="http://www.w3.org/2000/svg" xmlns:xlink="http://www.w3.org/1999/xlink" x="0px" y="0px" width="135px" height="40px"
	 viewBox="0 0 135 40" enable-background="new 0 0 135 40" xml:space="preserve">
<g>
	<path fill="#A6A6A6" d="M130.197,40H4.729C2.122,40,0,37.872,0,35.267V4.726C0,2.12,2.122,0,4.729,0h125.468
		C132.803,0,135,2.12,135,4.726v30.541C135,37.872,132.803,40,130.197,40L130.197,40z"/>
	<path d="M134.032,35.268c0,2.116-1.714,3.83-3.834,3.83H4.729c-2.119,0-3.839-1.714-3.839-3.83V4.725
		c0-2.115,1.72-3.835,3.839-3.835h125.468c2.121,0,3.834,1.72,3.834,3.835L134.032,35.268L134.032,35.268z"/>
	<g>
		<g>
			<path fill="#FFFFFF" d="M30.128,19.784c-0.029-3.223,2.639-4.791,2.761-4.864c-1.511-2.203-3.853-2.504-4.676-2.528
				c-1.967-0.207-3.875,1.177-4.877,1.177c-1.022,0-2.565-1.157-4.228-1.123c-2.14,0.033-4.142,1.272-5.24,3.196
				c-2.266,3.923-0.576,9.688,1.595,12.859c1.086,1.553,2.355,3.287,4.016,3.226c1.625-0.067,2.232-1.036,4.193-1.036
				c1.943,0,2.513,1.036,4.207,0.997c1.744-0.028,2.842-1.56,3.89-3.127c1.255-1.78,1.759-3.533,1.779-3.623
				C33.507,24.924,30.161,23.647,30.128,19.784z"/>
			<path fill="#FFFFFF" d="M26.928,10.306c0.874-1.093,1.472-2.58,1.306-4.089c-1.265,0.056-2.847,0.875-3.758,1.944
				c-0.806,0.942-1.526,2.486-1.34,3.938C24.557,12.205,26.016,11.382,26.928,10.306z"/>
		</g>
	</g>
	<g>
		<path fill="#FFFFFF" d="M53.645,31.504h-2.271l-1.244-3.909h-4.324l-1.185,3.909h-2.211l4.284-13.308h2.646L53.645,31.504z
			 M49.755,25.955L48.63,22.48c-0.119-0.355-0.342-1.191-0.671-2.507h-0.04c-0.131,0.566-0.342,1.402-0.632,2.507l-1.105,3.475
			H49.755z"/>
		<path fill="#FFFFFF" d="M64.662,26.588c0,1.632-0.441,2.922-1.323,3.869c-0.79,0.843-1.771,1.264-2.942,1.264
			c-1.264,0-2.172-0.454-2.725-1.362h-0.04v5.055h-2.132V25.067c0-1.026-0.027-2.079-0.079-3.159h1.875l0.119,1.521h0.04
			c0.711-1.146,1.79-1.718,3.238-1.718c1.132,0,2.077,0.447,2.833,1.342C64.284,23.949,64.662,25.127,64.662,26.588z M62.49,26.666
			c0-0.934-0.21-1.704-0.632-2.31c-0.461-0.632-1.08-0.948-1.856-0.948c-0.526,0-1.004,0.176-1.431,0.523
			c-0.428,0.35-0.708,0.807-0.839,1.373c-0.066,0.264-0.099,0.48-0.099,0.65v1.6c0,0.698,0.214,1.287,0.642,1.768
			s0.984,0.721,1.668,0.721c0.803,0,1.428-0.31,1.875-0.928C62.266,28.496,62.49,27.68,62.49,26.666z"/>
		<path fill="#FFFFFF" d="M75.699,26.588c0,1.632-0.441,2.922-1.324,3.869c-0.789,0.843-1.77,1.264-2.941,1.264
			c-1.264,0-2.172-0.454-2.724-1.362H68.67v5.055h-2.132V25.067c0-1.026-0.027-2.079-0.079-3.159h1.875l0.119,1.521h0.04
			c0.71-1.146,1.789-1.718,3.238-1.718c1.131,0,2.076,0.447,2.834,1.342C75.32,23.949,75.699,25.127,75.699,26.588z M73.527,26.666
			c0-0.934-0.211-1.704-0.633-2.31c-0.461-0.632-1.078-0.948-1.855-0.948c-0.527,0-1.004,0.176-1.432,0.523
			c-0.428,0.35-0.707,0.807-0.838,1.373c-0.065,0.264-0.099,0.48-0.099,0.65v1.6c0,0.698,0.214,1.287,0.64,1.768
			c0.428,0.48,0.984,0.721,1.67,0.721c0.803,0,1.428-0.31,1.875-0.928C73.303,28.496,73.527,27.68,73.527,26.666z"/>
		<path fill="#FFFFFF" d="M88.039,27.772c0,1.132-0.393,2.053-1.182,2.764c-0.867,0.777-2.074,1.165-3.625,1.165
			c-1.432,0-2.58-0.276-3.449-0.829l0.494-1.777c0.936,0.566,1.963,0.85,3.082,0.85c0.803,0,1.428-0.182,1.877-0.544
			c0.447-0.362,0.67-0.848,0.67-1.454c0-0.54-0.184-0.995-0.553-1.364c-0.367-0.369-0.98-0.712-1.836-1.029
			c-2.33-0.869-3.494-2.142-3.494-3.816c0-1.094,0.408-1.991,1.225-2.689c0.814-0.699,1.9-1.048,3.258-1.048
			c1.211,0,2.217,0.211,3.02,0.632l-0.533,1.738c-0.75-0.408-1.598-0.612-2.547-0.612c-0.75,0-1.336,0.185-1.756,0.553
			c-0.355,0.329-0.533,0.73-0.533,1.205c0,0.526,0.203,0.961,0.611,1.303c0.355,0.316,1,0.658,1.936,1.027
			c1.145,0.461,1.986,1,2.527,1.618C87.77,26.081,88.039,26.852,88.039,27.772z"/>
		<path fill="#FFFFFF" d="M95.088,23.508h-2.35v4.659c0,1.185,0.414,1.777,1.244,1.777c0.381,0,0.697-0.033,0.947-0.099l0.059,1.619
			c-0.42,0.157-0.973,0.236-1.658,0.236c-0.842,0-1.5-0.257-1.975-0.77c-0.473-0.514-0.711-1.376-0.711-2.587v-4.837h-1.4v-1.6h1.4
			v-1.757l2.094-0.632v2.389h2.35V23.508z"/>
		<path fill="#FFFFFF" d="M105.691,26.627c0,1.475-0.422,2.686-1.264,3.633c-0.883,0.975-2.055,1.461-3.516,1.461
			c-1.408,0-2.529-0.467-3.365-1.401s-1.254-2.113-1.254-3.534c0-1.487,0.43-2.705,1.293-3.652c0.861-0.948,2.023-1.422,3.484-1.422
			c1.408,0,2.541,0.467,3.396,1.402C105.283,24.021,105.691,25.192,105.691,26.627z M103.479,26.696
			c0-0.885-0.189-1.644-0.572-2.277c-0.447-0.766-1.086-1.148-1.914-1.148c-0.857,0-1.508,0.383-1.955,1.148
			c-0.383,0.634-0.572,1.405-0.572,2.317c0,0.885,0.189,1.644,0.572,2.276c0.461,0.766,1.105,1.148,1.936,1.148
			c0.814,0,1.453-0.39,1.914-1.168C103.281,28.347,103.479,27.58,103.479,26.696z"/>
		<path fill="#FFFFFF" d="M112.621,23.783c-0.211-0.039-0.436-0.059-0.672-0.059c-0.75,0-1.33,0.283-1.738,0.85
			c-0.355,0.5-0.533,1.132-0.533,1.895v5.035h-2.131l0.02-6.574c0-1.106-0.027-2.113-0.08-3.021h1.857l0.078,1.836h0.059
			c0.225-0.631,0.58-1.139,1.066-1.52c0.475-0.343,0.988-0.514,1.541-0.514c0.197,0,0.375,0.014,0.533,0.039V23.783z"/>
		<path fill="#FFFFFF" d="M122.156,26.252c0,0.382-0.025,0.704-0.078,0.967h-6.396c0.025,0.948,0.334,1.673,0.928,2.173
			c0.539,0.447,1.236,0.671,2.092,0.671c0.947,0,1.811-0.151,2.588-0.454l0.334,1.48c-0.908,0.396-1.98,0.593-3.217,0.593
			c-1.488,0-2.656-0.438-3.506-1.313c-0.848-0.875-1.273-2.05-1.273-3.524c0-1.447,0.395-2.652,1.186-3.613
			c0.828-1.026,1.947-1.539,3.355-1.539c1.383,0,2.43,0.513,3.141,1.539C121.873,24.047,122.156,25.055,122.156,26.252z
			 M120.123,25.699c0.014-0.632-0.125-1.178-0.414-1.639c-0.369-0.593-0.936-0.889-1.699-0.889c-0.697,0-1.264,0.289-1.697,0.869
			c-0.355,0.461-0.566,1.014-0.631,1.658H120.123z"/>
	</g>
	<g>
		<g>
			<path fill="#FFFFFF" d="M49.238,9.903c0,1.213-0.363,2.126-1.09,2.74c-0.674,0.567-1.63,0.85-2.87,0.85
				c-0.613,0-1.14-0.027-1.58-0.08v-6.63c0.573-0.093,1.193-0.14,1.86-0.14c1.18,0,2.07,0.257,2.67,0.77
				C48.901,7.993,49.238,8.823,49.238,9.903z M48.098,9.933c0-0.787-0.209-1.39-0.625-1.81c-0.417-0.42-1.025-0.63-1.825-0.63
				c-0.34,0-0.63,0.023-0.87,0.07v5.04c0.134,0.02,0.377,0.03,0.73,0.03c0.826,0,1.465-0.23,1.915-0.69
				C47.873,11.483,48.098,10.813,48.098,9.933z"/>
			<path fill="#FFFFFF" d="M55.278,10.963c0,0.747-0.214,1.36-0.64,1.84c-0.447,0.493-1.04,0.74-1.78,0.74
				c-0.714,0-1.282-0.236-1.705-0.71c-0.424-0.473-0.635-1.07-0.635-1.79c0-0.753,0.218-1.37,0.654-1.85
				c0.437-0.48,1.025-0.72,1.766-0.72c0.713,0,1.286,0.237,1.72,0.71C55.071,9.643,55.278,10.236,55.278,10.963z M54.158,10.998
				c0-0.448-0.097-0.833-0.29-1.153c-0.227-0.388-0.55-0.582-0.97-0.582c-0.434,0-0.764,0.194-0.99,0.582
				c-0.193,0.321-0.29,0.712-0.29,1.173c0,0.448,0.097,0.833,0.29,1.153c0.233,0.388,0.56,0.582,0.98,0.582
				c0.413,0,0.736-0.197,0.97-0.591C54.058,11.834,54.158,11.446,54.158,10.998z"/>
			<path fill="#FFFFFF" d="M63.378,8.573l-1.521,4.86h-0.99l-0.63-2.11c-0.16-0.527-0.29-1.05-0.39-1.57h-0.021
				c-0.093,0.534-0.223,1.057-0.39,1.57l-0.67,2.11h-1l-1.43-4.86h1.109l0.55,2.31c0.134,0.546,0.244,1.066,0.33,1.56h0.021
				c0.08-0.406,0.213-0.923,0.399-1.55l0.69-2.32h0.88l0.66,2.27c0.16,0.553,0.29,1.086,0.39,1.6h0.03
				c0.073-0.5,0.184-1.033,0.33-1.6l0.59-2.27H63.378z"/>
			<path fill="#FFFFFF" d="M68.978,13.433h-1.08V10.65c0-0.858-0.327-1.287-0.98-1.287c-0.32,0-0.58,0.118-0.78,0.354
				c-0.199,0.236-0.3,0.514-0.3,0.833v2.883h-1.08v-3.47c0-0.426-0.013-0.89-0.04-1.39h0.95l0.05,0.76h0.03
				c0.127-0.236,0.313-0.432,0.561-0.587c0.293-0.182,0.619-0.273,0.979-0.273c0.453,0,0.83,0.146,1.13,0.44
				c0.373,0.36,0.561,0.897,0.561,1.61V13.433z"/>
			<path fill="#FFFFFF" d="M71.957,13.433h-1.08v-7.09h1.08V13.433z"/>
			<path fill="#FFFFFF" d="M78.316,10.963c0,0.747-0.213,1.36-0.639,1.84c-0.447,0.493-1.041,0.74-1.781,0.74
				c-0.713,0-1.281-0.236-1.705-0.71c-0.424-0.473-0.635-1.07-0.635-1.79c0-0.753,0.219-1.37,0.654-1.85
				c0.438-0.48,1.025-0.72,1.766-0.72c0.713,0,1.287,0.237,1.721,0.71C78.109,9.643,78.316,10.236,78.316,10.963z M77.197,10.998
				c0-0.448-0.098-0.833-0.291-1.153c-0.227-0.388-0.549-0.582-0.969-0.582c-0.434,0-0.764,0.194-0.99,0.582
				c-0.193,0.321-0.291,0.712-0.291,1.173c0,0.448,0.098,0.833,0.291,1.153c0.232,0.388,0.559,0.582,0.98,0.582
				c0.412,0,0.736-0.197,0.969-0.591C77.098,11.834,77.197,11.446,77.197,10.998z"/>
			<path fill="#FFFFFF" d="M83.547,13.433h-0.971l-0.08-0.56h-0.029c-0.334,0.447-0.807,0.67-1.42,0.67
				c-0.459,0-0.83-0.146-1.109-0.44c-0.254-0.267-0.381-0.597-0.381-0.99c0-0.593,0.248-1.047,0.746-1.36
				c0.496-0.313,1.193-0.466,2.094-0.46v-0.09c0-0.64-0.336-0.96-1.008-0.96c-0.479,0-0.9,0.12-1.266,0.36l-0.221-0.71
				c0.453-0.28,1.008-0.42,1.668-0.42c1.271,0,1.906,0.67,1.906,2.01v1.79C83.477,12.76,83.5,13.146,83.547,13.433z M82.428,11.763
				v-0.75c-1.193-0.02-1.791,0.307-1.791,0.98c0,0.253,0.07,0.443,0.209,0.57c0.139,0.127,0.314,0.19,0.527,0.19
				c0.238,0,0.459-0.075,0.66-0.225c0.203-0.15,0.328-0.342,0.373-0.575C82.42,11.9,82.428,11.836,82.428,11.763z"/>
			<path fill="#FFFFFF" d="M89.688,13.433h-0.961l-0.049-0.78h-0.031c-0.307,0.593-0.826,0.89-1.559,0.89
				c-0.588,0-1.074-0.23-1.461-0.69s-0.58-1.057-0.58-1.79c0-0.787,0.211-1.423,0.631-1.91c0.406-0.454,0.906-0.68,1.5-0.68
				c0.652,0,1.109,0.22,1.369,0.66h0.02v-2.79h1.08v5.78C89.646,12.597,89.66,13.033,89.688,13.433z M88.566,11.383v-0.81
				c0-0.14-0.01-0.253-0.029-0.34c-0.061-0.26-0.191-0.478-0.393-0.655c-0.199-0.177-0.441-0.265-0.723-0.265
				c-0.4,0-0.717,0.16-0.949,0.48c-0.23,0.32-0.346,0.73-0.346,1.23c0,0.48,0.111,0.87,0.332,1.17c0.234,0.32,0.549,0.48,0.943,0.48
				c0.355,0,0.639-0.133,0.854-0.4C88.463,12.026,88.566,11.73,88.566,11.383z"/>
			<path fill="#FFFFFF" d="M98.807,13.433h-0.959l-0.051-0.78h-0.029c-0.307,0.593-0.828,0.89-1.561,0.89
				c-0.586,0-1.074-0.23-1.459-0.69c-0.387-0.46-0.58-1.057-0.58-1.79c0-0.787,0.209-1.423,0.629-1.91
				c0.406-0.454,0.906-0.68,1.5-0.68c0.654,0,1.109,0.22,1.371,0.66h0.02v-2.79h1.08v5.78
				C98.768,12.597,98.781,13.033,98.807,13.433z M97.688,11.383v-0.81c0-0.14-0.01-0.253-0.031-0.34
				c-0.061-0.26-0.189-0.478-0.391-0.655s-0.441-0.265-0.723-0.265c-0.402,0-0.719,0.16-0.949,0.48
				c-0.23,0.32-0.346,0.73-0.346,1.23c0,0.48,0.109,0.87,0.33,1.17c0.234,0.32,0.549,0.48,0.943,0.48c0.355,0,0.641-0.133,0.854-0.4
				C97.584,12.026,97.688,11.73,97.688,11.383z"/>
			<path fill="#FFFFFF" d="M101.938,7.123c0,0.193-0.064,0.35-0.189,0.47c-0.127,0.12-0.291,0.18-0.49,0.18
				c-0.182,0-0.332-0.062-0.455-0.185c-0.125-0.123-0.186-0.278-0.186-0.465c0-0.187,0.062-0.34,0.189-0.46s0.283-0.18,0.471-0.18
				c0.186,0,0.344,0.06,0.471,0.18C101.873,6.783,101.938,6.937,101.938,7.123z M101.816,13.433h-1.08v-4.86h1.08V13.433z"/>
		</g>
	</g>
</g>
</svg>
