<svg xmlns="http://www.w3.org/2000/svg" viewBox="0 0 21.2 21.2" width="22" height="22"><defs><style>.cls-1{fill:#fff;}</style></defs><title>Asset 1</title><g id="Layer_2" data-name="Layer 2"><g id="Layer_1-2" data-name="Layer 1"><g id="close"><path class="cls-1" d="M10.93 7L7 10.93l3.27 3.27 3.93-3.93L10.93 7zM14 3.92l3.926-3.926 3.267 3.267-3.925 3.926zM0 17.932l3.926-3.925 3.267 3.267L3.268 21.2z"/><path class="cls-1" d="M7 10.27l3.93 3.93 3.27-3.27L10.27 7 7 10.27zM-.005 3.275L3.262.008l3.924 3.924L3.92 7.2zM14.008 17.275l3.267-3.267 3.924 3.924L17.93 21.2z"/><path class="cls-1" d="M10.614 6.66l3.932 3.93-3.932 3.932-3.93-3.93z"/></g></g></g></svg>
