<svg xmlns="http://www.w3.org/2000/svg" width="106" height="27" fill="none" viewBox="0 0 106 27"><path fill="#9E9E9E" fill-rule="evenodd" d="M64.534 7.578c-1.676 0-3.02.447-4.418 1.118.01-3.893.062-7.288.156-8.569l-8.144 1.545v.722l.797.101c1.138.153 1.573.804 1.707 2.298.259 2.856.218 18.165 0 20.615 2.194.488 4.563.854 6.943.854 6.457 0 10.347-3.924 10.347-10.135 0-4.97-3.156-8.549-7.388-8.549ZM61.7 25.001a8.76 8.76 0 0 1-1.386-.132c-.124-1.718-.207-8.803-.197-14.994a5.507 5.507 0 0 1 1.904-.305c2.67 0 4.18 3.03 4.18 6.862 0 4.87-1.852 8.57-4.5 8.57ZM21.522 7.771l-1.273.346c-1.107-3.64-2.876-5.693-6.167-5.693H9.861c-.197 2.318-.27 6.18-.249 10.196l2.846-.091c1.893-.062 2.68-1.444 3.135-3.487h1.066v8.508h-1.066c-.455-2.043-1.252-3.416-3.135-3.487l-2.835-.091c.03 3.05.114 5.652.248 7.197.197 2.267.817 3.263 2.452 3.497l1.449.152v1.017H0v-1.017l1.138-.152c1.635-.234 2.256-1.23 2.452-3.497.31-3.73.363-11.497 0-15.827-.196-2.267-.817-3.263-2.452-3.497L0 1.692V.676h21.408l.114 7.095Zm6.85-.396c6.084 0 9.105 4.056 9.105 9.392 0 5.215-3.415 9.495-9.499 9.495-6.084 0-9.115-4.056-9.115-9.393 0-5.215 3.414-9.494 9.509-9.494Zm-.321 1.159c-2.69 0-3.446 3.578-3.446 8.284 0 4.585 1.19 8.285 3.684 8.285 2.69 0 3.445-3.578 3.445-8.285 0-4.584-1.19-8.284-3.683-8.284Zm45.361 8.457c-.01-4.95 3.177-9.596 9.447-9.596 5.101 0 7.543 3.72 7.564 8.58H79.04c-.124 4.411 2.152 7.654 6.498 7.654 1.914 0 2.949-.468 4.108-1.332l.538.63c-1.263 1.718-3.901 3.355-7.398 3.355-5.495-.01-9.364-3.832-9.375-9.291Zm5.67-2.277 5.712-.122c.03-2.48-.373-6.028-2.432-6.028-2.069 0-3.228 3.355-3.28 6.15Zm25.972-1.769-.932.244c-.993-3.161-2.504-4.503-4.707-4.503-1.47 0-2.536 1.088-2.536 2.663 0 1.566 1.19 2.39 4.636 3.7 3.176 1.21 4.439 2.603 4.439 5.134 0 3.781-2.949 6.099-7.792 6.099-2.328 0-4.915-.508-6.425-1.108l-.166-5.225.931-.244c1.335 3.66 3.074 4.991 5.36 4.991 1.946 0 3.032-1.362 3.032-2.816 0-1.412-.817-2.256-3.922-3.354-2.886-1.017-4.976-2.257-4.976-5.428 0-3.08 2.773-5.713 7.356-5.713 2.132 0 4.149.366 5.505.976l.197 4.584Zm-53.681-.142c-2.463-1.627-5.122-.915-5.67-.03-.187 2.927-.145 7.41.062 9.666.134 1.495.569 2.145 1.707 2.298l1.47.102v1.016h-11.3V24.84l.797-.102c1.139-.153 1.573-.803 1.708-2.297.217-2.45.258-7.553 0-10.41-.135-1.494-.57-2.144-1.708-2.297l-.796-.102V8.91l8.112-1.546-.093 4.168c1.893-4.29 5.639-4.849 7.698-3.649l-1.987 4.92Z" clip-rule="evenodd" style="mix-blend-mode:luminosity"/></svg>
