<svg xmlns="http://www.w3.org/2000/svg" width="83" height="27" fill="none" viewBox="0 0 83 27"><path fill="#9E9E9E" fill-rule="evenodd" d="M10.734 20.657c3.098 0 5.432-.988 7.26-2.846 1.881-1.837 2.465-4.408 2.465-6.488 0-.646-.05-1.239-.152-1.736h-9.573v2.774h6.805c-.203 1.56-.739 2.7-1.548 3.492-.992.963-2.539 2.03-5.257 2.03-4.189 0-7.465-3.293-7.465-7.38 0-4.086 3.276-7.382 7.465-7.382 2.258 0 3.912.87 5.128 1.984l2.007-1.957C16.166 1.565 13.909.35 10.734.35 4.994.35.171 4.904.171 10.503c0 5.597 4.824 10.154 10.563 10.154Zm17.472 0c3.705 0 6.727-2.774 6.727-6.54 0-3.787-3.022-6.536-6.727-6.536-3.711 0-6.733 2.749-6.733 6.536 0 3.766 3.022 6.54 6.733 6.54Zm0-2.576c-2.034 0-3.788-1.634-3.788-3.964 0-2.35 1.754-3.958 3.788-3.958 2.029 0 3.78 1.607 3.78 3.958 0 2.33-1.751 3.964-3.78 3.964Zm14.674 2.576c3.707 0 6.73-2.774 6.73-6.54 0-3.787-3.023-6.536-6.73-6.536-3.71 0-6.73 2.749-6.73 6.536 0 3.766 3.02 6.54 6.73 6.54Zm0-2.576c-2.032 0-3.786-1.634-3.786-3.964 0-2.35 1.754-3.958 3.786-3.958 2.031 0 3.783 1.607 3.783 3.958 0 2.33-1.752 3.964-3.783 3.964Zm14.423 8.445c3.45 0 6.375-1.979 6.375-6.81V7.977h-2.795v1.065h-.102c-.662-.768-1.931-1.46-3.527-1.46-3.354 0-6.424 2.872-6.424 6.562 0 3.667 3.07 6.513 6.424 6.513 1.596 0 2.865-.693 3.527-1.486h.102v.941c0 2.504-1.371 3.839-3.58 3.839-1.801 0-2.92-1.261-3.38-2.33l-2.562 1.042c.738 1.736 2.692 3.863 5.942 3.863Zm.2-8.445c-2.03 0-3.733-1.657-3.733-3.937 0-2.303 1.704-3.985 3.733-3.985 2.008 0 3.582 1.681 3.582 3.985 0 2.28-1.574 3.937-3.582 3.937Zm11.15-17.038h-2.945v19.218h2.945V1.043Zm8.075 19.614c3.07 0 4.85-1.83 5.586-2.898l-2.287-1.483c-.76 1.085-1.8 1.805-3.299 1.805-1.498 0-2.567-.668-3.25-1.98l8.963-3.618-.305-.741c-.558-1.462-2.262-4.16-5.738-4.16-3.453 0-6.323 2.651-6.323 6.535 0 3.667 2.844 6.54 6.653 6.54Zm-3.733-6.736a3.627 3.627 0 0 1 3.504-3.814c1.168 0 2.158.57 2.49 1.387l-5.995 2.427Z" clip-rule="evenodd"/></svg>
