<svg xmlns="http://www.w3.org/2000/svg" width="39" height="45" fill="none" viewBox="0 0 39 45"><g clip-path="url(#a)"><path fill="#9E9E9E" d="M.716.178h37.658v44.518H.715V.178Zm22.493 4.56c-.667.271-1.297.648-1.8 1.16-.619.61-1.019 1.413-1.193 2.251a6.602 6.602 0 0 0-.137 1.593V28.16c-.015.813.098 1.638.413 2.393a4.268 4.268 0 0 0 1.05 1.51c.72.683 1.659 1.1 2.617 1.356 1.03.272 2.1.37 3.166.387 1.025.013 2.06-.05 3.057-.298.785-.194 1.55-.515 2.18-1.019a4.215 4.215 0 0 0 1.335-1.858c.285-.764.38-1.584.379-2.394-.002-2.38.002-4.761-.003-7.142-1.985.002-3.97-.002-5.954.002v7.215c.005.291.006.592-.114.864-.127.276-.431.433-.731.442-.29.015-.628-.003-.84-.223-.217-.199-.264-.507-.276-.783l-.001-19.354c-.001-.231.036-.473.17-.669.149-.239.444-.356.722-.36.303-.023.64.047.846.283.218.259.234.61.223.93v3.709c.005.944-.01 1.89.008 2.835 1.983-.004 3.965 0 5.948-.003.003-2.179 0-4.358.002-6.537-.009-.85-.131-1.713-.478-2.498a4.12 4.12 0 0 0-1.217-1.582c-.613-.496-1.359-.81-2.122-1.01-.948-.243-1.932-.318-2.91-.32-1.469.013-2.968.157-4.34.703ZM4.827 4.254V33.68c2.093.008 4.186.004 6.278.002v-9.705c.005-.564-.012-1.128.008-1.692.288.004.576 0 .864.001.692-.006 1.388.024 2.078-.056.72-.077 1.437-.232 2.097-.529.456-.207.886-.48 1.236-.835.587-.559.957-1.305 1.152-2.077.204-.774.236-1.578.222-2.374V9.927c.008-.581-.01-1.165-.11-1.739-.153-.918-.51-1.832-1.174-2.514-.498-.524-1.147-.894-1.835-1.12-.97-.32-2.005-.403-3.023-.389-2.59-.003-5.18.007-7.768-.005l-.025.093Zm3.797 31.363c-.32.223-.468.604-.55.966-.117.571-.127 1.157-.126 1.738.01.54.024 1.09.187 1.61.1.3.277.603.579.744.4.193.871.194 1.3.109.055-.11.17-.034.251-.096.332-.161.504-.515.57-.856a3.66 3.66 0 0 0 .03-1.234c-.3.006-.602-.02-.903-.013.03.295.036.592.014.887-.018.182-.029.378-.134.536-.105.168-.34.184-.515.128-.156-.051-.221-.22-.255-.364-.081-.367-.06-.746-.084-1.118.005-.408-.012-.815.013-1.222.01-.365.008-.735.108-1.09a.6.6 0 0 1 .11-.207c.113-.11.301-.124.44-.059.12.048.155.18.192.288.077.356.07.723.04 1.083.313 0 .625-.02.937-.028.042-.475.059-.982-.142-1.427-.147-.337-.507-.533-.866-.575-.403-.045-.85-.035-1.196.2Zm11.033-.106c-.336.13-.548.448-.655.773-.162.502-.197 1.033-.214 1.556-.008.655-.022 1.322.149 1.961.089.33.254.67.561.855.307.175.68.207 1.027.161.28-.035.477-.26.612-.486.08.127.142.264.23.384.115.053.255.008.379.028a.204.204 0 0 0 .032-.122c-.001-.875-.004-1.75.001-2.626a66.677 66.677 0 0 0-1.414-.002c.002.251-.02.504.012.754.175-.005.35-.002.525-.003-.014.4.053.826-.128 1.2-.11.224-.408.258-.626.191-.116-.036-.171-.152-.206-.257-.078-.252-.086-.516-.102-.776-.019-.544-.012-1.09-.009-1.633.02-.404-.003-.825.142-1.21.093-.276.564-.307.665-.022.136.341.106.718.09 1.077.314.036.631-.018.947-.007.024-.461.034-.955-.191-1.375-.137-.273-.424-.446-.723-.5-.365-.061-.756-.056-1.104.08Zm4.773.038c-.306.15-.491.458-.591.768-.146.456-.171.939-.197 1.413-.005.617-.017 1.24.095 1.85.064.34.178.694.442.938.244.227.59.307.917.315.36.016.759-.023 1.04-.268.334-.276.41-.73.446-1.133.01-.273.032-.552-.022-.82a7.836 7.836 0 0 0-.91-.02c.038.253.02.511.022.767-.01.219-.02.454-.138.647-.12.192-.404.194-.587.097-.185-.14-.197-.387-.226-.595-.046-.443-.032-.889-.035-1.333.002-.52-.01-1.044.056-1.562.026-.166.056-.343.166-.478.17-.16.515-.123.593.114.145.382.089.8.088 1.2.309-.004.617-.02.926-.03.056-.469.054-.965-.128-1.408-.142-.346-.507-.548-.871-.593-.363-.041-.754-.039-1.086.13Zm3.92-.151c-.283.012-.579.072-.801.253-.271.21-.407.539-.49.858-.146.606-.15 1.233-.145 1.852.01.51.036 1.028.18 1.522.088.293.239.59.511.758.272.176.61.198.927.195.33-.005.68-.076.928-.305.268-.254.383-.617.457-.966.085-.471.116-.952.108-1.43a7.157 7.157 0 0 0-.115-1.48c-.076-.357-.207-.731-.496-.978-.29-.249-.695-.294-1.064-.28Zm-23.518.08c-.015 1.744.005 3.489-.01 5.234.1.045.211.022.317.027.229-.005.457.008.685-.006.003-.028.01-.085.012-.114-.003-.628.004-1.256-.003-1.885.272-.023.55.017.817-.05.317-.06.612-.252.76-.537.21-.4.224-.866.203-1.307-.028-.386-.143-.8-.457-1.059-.266-.218-.622-.29-.96-.302-.455-.003-.91 0-1.364-.001Zm6.51 0c0 1.752-.004 3.505.001 5.258.224.007.448 0 .671.003.085 0 .172.009.252-.025-.011-.724-.001-1.448-.005-2.172.008-.511-.02-1.022-.001-1.533.022.176.02.355.049.532.15 1.068.359 2.127.529 3.192.287.007.575.014.861-.002.132-.828.289-1.652.42-2.48.072-.434.1-.875.153-1.312-.002 1.266-.01 2.533-.002 3.8.305 0 .61.002.914-.002.007-1.753 0-3.507.003-5.26-.425.006-.85-.007-1.274.006-.057.131-.054.282-.089.422-.19 1.064-.377 2.13-.566 3.194a263.906 263.906 0 0 1-.618-3.614c-.433-.015-.866-.002-1.299-.008Zm5.197 0c-.266 1.418-.547 2.832-.824 4.248-.054.338-.149.671-.181 1.013.308.003.615-.007.923.005.1-.313.118-.647.187-.967.265-.004.53-.005.795 0 .064.322.11.647.19.966.346-.013.692.006 1.037-.01-.033-.291-.115-.574-.168-.861-.304-1.443-.605-2.887-.91-4.33 0-.11-.13-.078-.203-.083-.282.012-.567-.024-.846.02Zm13.89-.001c-.002 1.754-.006 3.509.002 5.263.306-.016.618.028.92-.024-.007-1.259-.005-2.519-.005-3.777.023.45.092.896.164 1.341.134.808.279 1.615.417 2.423.03.06.106.029.16.036.233-.012.469.02.7-.017.147-.886.314-1.77.45-2.658.061-.375.07-.757.122-1.133.013.352.004.705-.004 1.056.004.916-.005 1.832.005 2.748.304.008.608.002.913.004.005-1.753.003-3.508 0-5.261h-1.276c-.107.513-.19 1.029-.28 1.544-.026.155-.065.31-.06.469l-.033.037c-.088.523-.184 1.047-.28 1.57-.21-1.206-.411-2.413-.62-3.618-.431-.005-.864 0-1.296-.003Zm-8.194 4.112c-.002.38.002.76 0 1.14.297.021.596.003.895.01.068-.003.144.013.203-.03-.015-.372-.004-.745-.006-1.118a32.583 32.583 0 0 0-1.092-.002Z"/><path fill="#9E9E9E" d="M11.11 8.418c.49-.003 1.015.022 1.448.275.278.157.44.451.512.75.076.304.06.62.063.93v5.82c.006.419-.002.87-.236 1.239-.211.342-.621.5-1.009.555a3.822 3.822 0 0 1-.778.047c-.013-2.245-.002-4.49-.005-6.736.003-.96-.006-1.92.004-2.88Zm17.08 27.717c.096-.103.25-.08.37-.133.061.078.173.099.226.185a.965.965 0 0 1 .14.426c.072.504.05 1.014.053 1.522-.003.507.02 1.017-.057 1.52-.032.164-.07.356-.221.456a.524.524 0 0 1-.442.01c-.189-.113-.219-.345-.254-.54-.067-.592-.049-1.188-.051-1.781-.003-.37.009-.741.044-1.11.027-.193.052-.405.192-.555Zm-22.355.044c.209-.04.467-.02.595.171.146.234.149.522.15.788-.012.262-.024.555-.217.759-.14.13-.346.1-.523.103-.01-.607 0-1.214-.005-1.821Zm10.947 2.874c.057-.729.197-1.45.244-2.179.084.726.186 1.451.273 2.177-.173.004-.345.003-.517.002Z"/><path fill="#fff" d="M38.373.178h.025v44.518h-.025V.178Zm-15.165 4.56c1.372-.545 2.871-.689 4.34-.703.978.003 1.962.078 2.91.321.764.2 1.51.514 2.122 1.01.534.416.947.971 1.218 1.582.346.785.469 1.648.477 2.498-.001 2.179.002 4.358-.002 6.537-1.982.004-3.965-.001-5.948.003-.017-.945-.002-1.89-.007-2.835V9.443c.01-.32-.006-.672-.224-.93-.206-.237-.542-.307-.846-.283-.277.003-.573.12-.722.36-.133.195-.17.437-.17.668.002 6.451 0 12.902.001 19.354.012.276.059.584.276.783.213.22.55.238.84.223.3-.01.605-.166.732-.441.119-.273.118-.574.113-.865v-7.215c1.985-.004 3.97 0 5.955-.002.005 2.38 0 4.762.002 7.142 0 .81-.094 1.63-.38 2.394-.267.72-.72 1.38-1.333 1.858-.631.504-1.396.825-2.18 1.019-.998.248-2.033.31-3.058.298-1.065-.016-2.135-.115-3.166-.387-.958-.257-1.896-.673-2.617-1.357a4.27 4.27 0 0 1-1.05-1.509c-.315-.755-.428-1.58-.413-2.393V9.742c-.011-.534.02-1.07.137-1.593.174-.838.575-1.642 1.194-2.25.502-.513 1.133-.89 1.799-1.16ZM4.826 4.254l.025-.093c2.589.012 5.178.002 7.768.005 1.018-.014 2.053.068 3.024.389.688.226 1.337.596 1.834 1.12.664.682 1.021 1.596 1.173 2.514.102.574.12 1.158.112 1.739v6.488c.013.796-.018 1.6-.223 2.374-.195.772-.565 1.518-1.152 2.077-.35.355-.78.628-1.235.835-.661.297-1.378.452-2.098.529-.69.08-1.385.05-2.078.056-.288 0-.576.003-.863 0-.02.563-.003 1.127-.01 1.691l.001 9.705c-2.092.002-4.185.006-6.277-.002V4.253Zm6.282 4.165c-.01.96-.001 1.92-.004 2.88.004 2.245-.008 4.49.006 6.735.26.011.521-.004.777-.047.388-.054.798-.213 1.01-.555.233-.368.24-.82.235-1.24v-5.819c-.002-.31.014-.625-.063-.93-.071-.298-.234-.593-.512-.75-.433-.253-.957-.277-1.449-.274ZM8.623 35.616c.346-.236.793-.245 1.197-.2.358.042.718.238.865.575.2.445.185.952.142 1.427-.312.008-.624.028-.936.028.03-.36.036-.727-.04-1.082-.038-.11-.073-.241-.192-.288-.14-.066-.328-.051-.44.058a.599.599 0 0 0-.11.207c-.1.355-.1.725-.109 1.09-.025.407-.007.814-.013 1.222.024.372.003.75.085 1.118.033.144.098.313.255.364.174.056.41.04.514-.128.105-.158.116-.354.135-.536a5.146 5.146 0 0 0-.015-.887c.302-.008.602.02.904.013.066.407.044.829-.03 1.234-.067.341-.239.695-.57.856-.083.062-.196-.013-.252.096-.428.085-.9.084-1.3-.109-.301-.141-.479-.444-.578-.744-.163-.52-.178-1.07-.188-1.61 0-.58.01-1.167.127-1.738.081-.362.229-.743.549-.966Zm11.033-.106c.348-.135.74-.14 1.104-.078.3.053.586.226.723.499.226.42.216.914.191 1.376-.316-.012-.633.042-.946.005.015-.358.045-.735-.09-1.076-.102-.285-.573-.254-.666.022-.145.385-.121.806-.142 1.21-.002.544-.01 1.088.01 1.633.015.26.023.525.101.776.035.105.09.22.207.257.218.067.515.033.625-.19.181-.375.114-.8.128-1.2-.175 0-.35-.003-.525.002-.03-.25-.01-.503-.012-.754.471-.003.943-.005 1.414.002-.005.875-.002 1.75 0 2.626a.204.204 0 0 1-.033.122c-.124-.02-.263.025-.378-.028-.089-.12-.151-.258-.23-.383-.136.225-.332.45-.613.485-.346.046-.72.014-1.027-.161-.306-.185-.472-.524-.56-.855-.171-.64-.157-1.306-.15-1.961.017-.523.052-1.054.215-1.556.106-.325.319-.643.654-.773Zm4.773.038c.332-.17.723-.172 1.086-.132.364.046.73.248.872.594.181.443.184.94.127 1.407-.308.011-.617.027-.926.03.001-.398.057-.817-.088-1.199-.078-.237-.423-.273-.593-.114-.11.135-.14.312-.165.478-.068.518-.055 1.041-.057 1.562.003.444-.011.89.035 1.333.03.208.042.454.226.595.183.097.467.095.587-.097.119-.193.128-.428.138-.647-.003-.256.016-.514-.023-.767.303-.014.61-.002.911.02.054.268.032.547.022.82-.036.403-.112.857-.446 1.133-.281.245-.68.284-1.04.268-.327-.008-.673-.088-.916-.315-.265-.244-.378-.598-.443-.939-.112-.61-.1-1.232-.095-1.849.026-.474.051-.957.197-1.413.1-.31.285-.618.591-.768Zm3.92-.151c.37-.015.774.03 1.064.279.29.247.42.62.496.979.096.486.122.984.116 1.478.007.48-.024.96-.108 1.431-.075.349-.19.712-.458.966-.247.229-.598.3-.928.305-.317.003-.655-.019-.926-.195-.273-.167-.424-.465-.511-.758-.144-.494-.17-1.011-.18-1.522-.006-.62-.002-1.246.144-1.852.083-.32.219-.649.49-.858.223-.18.519-.241.8-.253Zm-.16.738c-.14.15-.165.362-.191.555-.036.369-.048.739-.045 1.11.003.593-.016 1.189.051 1.78.035.195.066.428.255.541.136.06.308.06.441-.01.152-.1.19-.292.22-.457.078-.503.055-1.013.059-1.52-.005-.507.018-1.017-.053-1.521a.965.965 0 0 0-.14-.426c-.054-.087-.166-.107-.227-.185-.12.052-.274.03-.37.133Zm-23.358-.658c.455.001.91-.002 1.364.001.339.011.694.084.96.302.314.258.429.673.458 1.06.02.44.006.906-.204 1.306-.148.285-.443.478-.76.537-.267.067-.545.027-.817.05.008.629 0 1.257.003 1.886l-.012.113c-.228.014-.456 0-.684.006-.106-.005-.218.018-.318-.027.016-1.745-.004-3.49.01-5.234Zm1.003.701c.005.607-.005 1.215.005 1.821.178-.002.382.027.524-.103.193-.203.204-.497.216-.758 0-.266-.004-.555-.15-.788-.127-.19-.386-.212-.595-.172Zm5.507-.702c.432.006.866-.007 1.298.008.2 1.205.402 2.411.618 3.614l.566-3.194c.035-.14.032-.29.089-.422.424-.013.85 0 1.274-.006-.002 1.753.004 3.507-.002 5.26-.305.004-.61.001-.915.002-.008-1.267 0-2.534.002-3.8-.053.437-.08.877-.152 1.312-.132.828-.288 1.652-.42 2.48-.287.016-.575.009-.862.002-.17-1.065-.38-2.124-.529-3.192-.028-.177-.027-.356-.049-.532-.02.51.01 1.022.001 1.533.004.724-.006 1.449.005 2.172-.08.034-.167.024-.251.025-.224-.004-.448.004-.672-.004-.005-1.752 0-3.505-.002-5.258Zm5.197.002c.279-.044.564-.008.846-.02.073.005.203-.027.202.084.307 1.442.607 2.886.912 4.329.053.287.134.57.168.86-.346.017-.692-.002-1.037.01-.081-.318-.127-.643-.19-.965-.266-.005-.53-.004-.796 0-.07.32-.088.654-.187.967-.307-.012-.615-.002-.923-.005.033-.342.128-.675.182-1.014.276-1.415.557-2.83.823-4.246Zm.244 3.575c.172 0 .344.002.516-.002-.087-.726-.189-1.45-.273-2.177-.047.73-.187 1.45-.243 2.179Zm13.646-3.577c.432.004.864-.002 1.295.003.209 1.205.41 2.412.62 3.617.096-.522.192-1.045.28-1.57l.034-.036c-.006-.159.033-.314.059-.47.09-.514.173-1.03.28-1.542l1.277-.001c.003 1.754.004 3.508 0 5.261-.305-.002-.61.004-.914-.004-.01-.916 0-1.832-.004-2.748.008-.351.017-.704.003-1.056-.052.376-.06.758-.121 1.133-.137.888-.303 1.771-.451 2.658-.231.038-.467.005-.7.017-.054-.007-.13.024-.16-.036-.138-.808-.282-1.615-.416-2.423a12.04 12.04 0 0 1-.165-1.341c0 1.258-.002 2.518.005 3.777-.302.052-.614.008-.92.024-.008-1.754-.004-3.509-.002-5.263Zm-8.193 4.112c.364-.004.728-.005 1.092.002.001.373-.01.746.005 1.119-.06.042-.135.026-.203.03-.298-.008-.598.01-.896-.01.003-.38 0-.76.002-1.14Z"/></g><defs><clipPath id="a"><path fill="#fff" d="M.542 0H38.57v44.874H.54z"/></clipPath></defs></svg>
