<svg xmlns="http://www.w3.org/2000/svg" width="67" height="45" fill="none" viewBox="0 0 67 45"><g fill="#9E9E9E" clip-path="url(#a)"><path d="M33.874.387H.79v10.675H11.74v22.016h11.18V11.062h10.953V.387Zm10.953 0H66.96v10.675H44.827V.387Zm0 21.45V11.061H33.874v22.016H66.96V21.852l-22.133-.016ZM5.354 37.526v6.672H3.53v-6.672H.79v-1.334h6.845v1.334H5.354Zm7.41 4.003H8.966c.06.89.701 1.297 1.306 1.297.46 0 .846-.099 1.088-.37l1.185.998c-.508.636-1.427 1.018-2.273 1.018-1.826 0-2.987-1.252-2.987-3.209 0-1.897 1.221-3.224 2.83-3.224 1.693 0 2.671 1.331 2.671 3.1 0 .236-.012.39-.024.39Zm-2.733-1.998c-.604 0-.98.219-1.04 1.108h2.177c-.049-.89-.387-1.108-1.137-1.108Zm6.734 4.959c-1.657 0-2.974-1.32-2.974-3.218 0-1.897 1.282-3.228 3.047-3.228 1.209 0 1.982.577 2.515 1.367l-1.1 1.084c-.375-.519-.774-.884-1.451-.884-.798 0-1.318.648-1.318 1.661 0 .99.52 1.65 1.318 1.65.652 0 1.064-.282 1.5-.79l1.063.979c-.617.801-1.343 1.379-2.6 1.379Zm7.528-.292v-3.185c0-1.107-.218-1.437-.907-1.437-.69 0-.919.33-.919 1.402v3.22h-1.825v-7.615l1.825-.813v2.817c0-.295.732-.542 1.397-.542 1.62 0 2.254 1.084 2.254 2.828v3.325h-1.825ZM32.783 38.515c-.302-.565-.786-.896-1.547-.896-1.27 0-1.995 1.085-1.995 2.616 0 1.485.737 2.616 2.007 2.616.762 0 1.21-.318 1.656-1.048l1.427.825c-.58 1.166-1.596 1.861-3.131 1.861-2.213 0-3.7-1.65-3.7-4.254 0-2.51 1.547-4.254 3.76-4.254 1.596 0 2.563.754 3.095 1.826l-1.572.708Zm6.215 1.555c-.267-.236-.536-.4-.91-.4-.653 0-1.019.271-1.019 1.343v3.184h-1.825v-6.226h1.825v.615c.456-.295.656-.542 1.249-.542.544 0 .926.212 1.143.436l-.463 1.59Zm5.373 4.072v-.194c-.457.294-.732.541-1.396.541-1.62 0-2.255-1.084-2.255-2.827V37.97h1.369v3.549c0 1.107.446 1.438 1.135 1.438.688 0 1.147-.331 1.147-1.403V37.97h1.825v6.227H44.3l.072-.056Zm6.617.056v-3.185c0-1.107-.103-1.437-.793-1.437-.688 0-.804.33-.804 1.402v3.22h-1.826v-6.227h1.826v.616c0-.295.617-.542 1.282-.542 1.62 0 2.14 1.084 2.14 2.828v3.325h-1.825Zm6.24.291c-1.656 0-2.973-1.32-2.973-3.217s1.282-3.228 3.047-3.228c1.21 0 1.983.577 2.514 1.367l-1.099 1.084c-.375-.519-.774-.884-1.45-.884-.8 0-1.32.648-1.32 1.661 0 .99.52 1.65 1.32 1.65.651 0 1.063-.282 1.499-.79l1.063.979c-.618.801-1.343 1.379-2.6 1.379Zm7.45-.129v-3.347c0-1.107-.217-1.437-.907-1.437-.688 0-.918.33-.918 1.402v3.22h-1.825v-7.615l1.825-.813v2.817c0-.295.731-.542 1.396-.542 1.62 0 2.255 1.084 2.255 2.828v3.325H64.72l-.043.162Z"/></g><defs><clipPath id="a"><path fill="#fff" d="M.79.38h66.172v44.115H.79z"/></clipPath></defs></svg>
