<svg xmlns="http://www.w3.org/2000/svg" width="24" height="24" viewBox="0 0 24 24">
  <path fill="#010101" d="M19.27 7.12V4.93h-2.33v1.6c-.31.03-.61.11-.9.22a4.249 4.249 0 0 0-2.79-2.61V1.82h-2.33v2.33a4.205 4.205 0 0 0-2.79 2.61c-.29-.11-.59-.19-.9-.22v-1.6H4.9v2.19c-.74.52-1.21 1.27-1.38 2.08-.16.75-.07 1.55.27 2.25l3.78 7.81c.8 1.8 2.53 3.04 4.51 3.06h.03a4.883 4.883 0 0 0 4.51-3.06l3.78-7.81c.72-1.49.3-3.34-1.11-4.33Zm-.99 3.32-3.81 7.88a2.575 2.575 0 0 1-2.4 1.67c-1.01 0-1.78-.51-2.4-1.67l-3.81-7.88c-.36-.74.14-1.6.98-1.6.52 0 1.02.35 1.12 1.03l.99 3.7h2.41l-1.12-4.18c-.07-.45-.06 0-.06-1.2 0-.58.27-1.1.69-1.45.27-.16 1.3-.66 2.42.03.4.35.66.85.66 1.42 0 1.2.01.76-.06 1.2l-1.12 4.18h2.41l.99-3.7c.1-.68.61-1.03 1.12-1.03.84 0 1.34.86.98 1.6Z"/>
</svg>
