<svg width="24" height="24" fill="none" xmlns="http://www.w3.org/2000/svg"><path d="M18.4835 12.2146H20.235C20.1234 14.2565 18.4211 15.8835 16.3518 15.8835C14.2107 15.8835 12.4687 14.1416 12.4687 12.0004V11.8665H11.5315V12.0004C11.5315 14.1416 9.78955 15.8835 7.64836 15.8835C5.57906 15.8835 3.87678 14.2565 3.76518 12.2146H5.51666C5.62449 13.2957 6.53932 14.1428 7.64836 14.1428C8.82971 14.1428 9.7908 13.1817 9.7908 12.0004V10.3266C9.7908 10.0682 9.58056 9.85792 9.32214 9.85792H5.97457C5.71616 9.85792 5.50592 10.0682 5.50592 10.3266V10.4739H3.76518V10.3266C3.76518 9.10833 4.75632 8.11719 5.97457 8.11719H9.32214C10.4727 8.11719 11.4201 9.00131 11.522 10.1257H12.4782C12.5801 9.00131 13.5276 8.11719 14.6781 8.11719H18.0256C19.2439 8.11719 20.235 9.10833 20.235 10.3266V10.4739H18.4943V10.3266C18.4943 10.0682 18.2841 9.85792 18.0256 9.85792H14.6781C14.4197 9.85792 14.2094 10.0682 14.2094 10.3266V12.0004C14.2094 13.1817 15.1705 14.1428 16.3519 14.1428C17.4609 14.1428 18.3757 13.2957 18.4835 12.2146ZM20.235 10.4739L20.235 12.2146H21.9758V10.4739H20.235ZM2.02441 10.4739V12.2146H3.76518V10.4739H2.02441Z" fill="#000"/></svg>