<svg xmlns="http://www.w3.org/2000/svg" width="24" height="24" viewBox="0 0 24 24">
  <path fill="#fff" d="M20.26 10.47v-.15c0-1.22-.99-2.22-2.22-2.22h-3.36c-1.15 0-2.1.89-2.21 2.02h-.96A2.22 2.22 0 0 0 9.3 8.1H5.94c-1.22 0-2.22.99-2.22 2.22v.15H1.97v1.75h1.75c.11 2.05 1.82 3.68 3.9 3.68s3.9-1.75 3.9-3.9v-.13h.94V12c0 2.15 1.75 3.9 3.9 3.9s3.78-1.63 3.9-3.68h1.75v-1.75h-1.75ZM9.78 12c0 1.19-.96 2.15-2.15 2.15-1.11 0-2.03-.85-2.14-1.93v-1.75h-.01v-.15c0-.26.21-.47.47-.47h3.36c.26 0 .47.21.47.47V12Zm8.74-1.53v1.75a2.174 2.174 0 0 1-2.15 1.93c-1.19 0-2.15-.96-2.15-2.15v-1.68c0-.26.21-.47.47-.47h3.36c.26 0 .47.21.47.47v.15Z"/>
</svg>
