<svg xmlns="http://www.w3.org/2000/svg" width="24" height="24" viewBox="0 0 24 24">
  <path fill="#010101" d="M22.07 11.97c0-5.52-4.48-10-10-10s-10 4.48-10 10 4.48 10 10 10 10-4.48 10-10ZM9.79 6.16c.36-.7.77-1.23 1.19-1.58v6.3H8.6c.12-1.8.53-3.44 1.19-4.72Zm-5.48 6.9h2.11c.12 2.01.56 3.89 1.29 5.42a7.858 7.858 0 0 1-3.4-5.42Zm2.11-2.17H4.31c.31-2.25 1.59-4.2 3.4-5.42-.72 1.52-1.17 3.41-1.29 5.42Zm4.56 8.47c-.42-.34-.83-.88-1.19-1.58-.66-1.28-1.07-2.93-1.19-4.72h2.38v6.3Zm3.36-1.58c-.36.7-.77 1.23-1.19 1.58v-6.3h2.38c-.12 1.79-.53 3.44-1.19 4.72Zm-1.19-6.89v-6.3c.42.34.83.88 1.19 1.58.66 1.28 1.07 2.93 1.19 4.72h-2.38Zm3.27 7.58c.72-1.52 1.17-3.41 1.29-5.42h2.11a7.846 7.846 0 0 1-3.4 5.42Zm1.29-7.58c-.12-2.01-.56-3.89-1.29-5.42a7.858 7.858 0 0 1 3.4 5.42h-2.11Z"/>
</svg>
