<svg width="48" height="48" fill="none" xmlns="http://www.w3.org/2000/svg"><path d="M36.967 24.43h3.503c-.223 4.083-3.628 7.337-7.766 7.337-4.283 0-7.767-3.484-7.767-7.766v-.268h-1.874V24c0 4.282-3.484 7.766-7.766 7.766-4.139 0-7.543-3.254-7.767-7.338h3.503a4.29 4.29 0 0 0 4.264 3.857A4.29 4.29 0 0 0 19.582 24v-3.348a.938.938 0 0 0-.938-.937H11.95a.938.938 0 0 0-.937.937v.295H7.53v-.295a4.424 4.424 0 0 1 4.42-4.419h6.694a4.424 4.424 0 0 1 4.4 4.017h1.912a4.424 4.424 0 0 1 4.4-4.017h6.695a4.424 4.424 0 0 1 4.42 4.42v.294h-3.482v-.295a.938.938 0 0 0-.938-.937h-6.695a.938.938 0 0 0-.937.937v3.348a4.29 4.29 0 0 0 4.285 4.285 4.29 4.29 0 0 0 4.263-3.857Zm3.503-3.482v3.481h3.482v-3.481H40.47Zm-36.421 0v3.481H7.53v-3.481H4.05Z" fill="#D6FFCD"/></svg>