<svg width="48" height="48" fill="none" xmlns="http://www.w3.org/2000/svg"><path d="M25.743 17.742v-3.77c3.19.784 5.562 3.745 5.562 7.172h-3.481c0-1.48-.847-2.767-2.081-3.402Zm-5.567 9.145h-3.482c0 3.429 2.376 6.313 5.567 7.096V30.29a3.827 3.827 0 0 1-2.085-3.404Zm8.409-3.686c-1.326-.701-2.913-.962-4.448-1.214-3.441-.565-3.961-.953-3.961-1.994 0-.886.286-1.503.9-1.942.316-.225.718-.402 1.185-.525v-3.553c-1.243.2-2.333.62-3.208 1.244-1.543 1.103-2.359 2.754-2.359 4.776 0 1.928.91 3.413 2.632 4.295 1.256.643 2.776.893 4.246 1.134 3.497.575 4.252.992 4.252 2.352 0 .922-.314 1.615-.96 2.119a3.57 3.57 0 0 1-1.121.568v3.522c1.25-.225 2.359-.64 3.262-1.345 1.483-1.156 2.3-2.883 2.3-4.863 0-2.051-.94-3.633-2.72-4.574ZM22.26 33.983v3.49h3.482v-3.49H22.26Zm3.482-20.01v-3.45H22.26v3.45h3.482Z" fill="#D6FFCD"/></svg>