<svg xmlns="http://www.w3.org/2000/svg" id="Layer_1" width="24" height="24" viewBox="0 0 24 24">
  <defs>
    <style>
      .cls-1{fill:#010101}
    </style>
  </defs>
  <path fill="#fff" d="M16.32 9.79V7.15c0-2.36-1.92-4.29-4.28-4.29S7.76 4.79 7.76 7.15v1.33h1.95V7.15c0-1.29 1.04-2.34 2.33-2.34s2.33 1.05 2.33 2.34v2.64H5.82v8.84c0 1.36 1.1 2.47 2.47 2.47h7.52c1.36 0 2.47-1.1 2.47-2.47V9.79h-1.95Zm-.53 9.35h-7.5c-.29 0-.53-.24-.53-.53v-6.88h8.55v6.88c0 .29-.24.53-.53.53Z" class="cls-1"/>
  <path fill="#fff" d="M10.17 15.09h.9v2.2h1.95v-2.2h.9v-1.95h-3.75v1.95z" class="cls-1"/>
</svg>
