<svg xmlns="http://www.w3.org/2000/svg" width="24" height="24" viewBox="0 0 24 24">
  <path fill="#231f20" d="M21.54 5.26c-.88-.44-2-1.04-3.55-1.54-1.52-.5-3.42-.88-5.82-.89h-.24c-2.4.02-4.3.4-5.82.89-1.54.5-2.67 1.1-3.55 1.54l9.49 15.8 9.49-15.8Zm-7.43 7.96v-2.2h-2.4V8.77h.35c1.52 0 3.03.21 4.34.65l-2.29 3.81v-.01ZM5.8 6.24c1.89-.75 4.07-1.13 6.25-1.13 2.18 0 4.36.38 6.25 1.13l-.71 1.17s-.05-.02-.08-.02c-.903-.336-1.838-.58-2.79-.73-.755-.114-1.517-.178-2.28-.19h-.78c-.77.02-1.53.07-2.28.19-.5.08-.99.18-1.47.31-.48.12-.95.27-1.4.44L5.8 6.24Zm6.25 10.4-3.26-5.43L7.71 9.4c.5-.17 1.04-.29 1.59-.39v2h2.4v2.41h2.28l-1.93 3.21v.01Z"/>
</svg>
