<?xml version="1.0" encoding="utf-8"?>
<svg xmlns="http://www.w3.org/2000/svg" viewBox="0 0 24 24" width="24px" height="24px">
  <path d="M 21.76 4.45 L 21.04 4.09 C 19.63 3.39 18.12 2.89 16.56 2.55 L 16.56 2.53 L 16.22 2.47 C 16.01 2.43 15.79 2.4 15.58 2.36 C 15.23 2.3 14.88 2.24 14.52 2.2 C 14.26 2.17 14 2.15 13.74 2.13 C 13.42 2.1 13.11 2.08 12.79 2.07 C 12.5 2.06 12.21 2.06 11.92 2.06 C 11.63 2.06 11.34 2.06 11.05 2.07 C 10.73 2.08 10.42 2.11 10.1 2.13 C 9.84 2.15 9.58 2.17 9.32 2.2 C 8.96 2.24 8.61 2.3 8.26 2.36 C 8.05 2.4 7.83 2.43 7.62 2.47 C 7.51 2.49 7.39 2.5 7.28 2.53 L 7.28 2.55 C 5.72 2.89 4.21 3.39 2.8 4.09 L 2.08 4.45 L 2.08 6.71 C 2.08 7.07 2.1 7.43 2.12 7.79 L 2.08 7.79 C 2.5 13.52 6.16 18.71 11.27 21.6 L 11.91 21.96 L 11.95 21.96 L 12.59 21.6 C 17.7 18.71 21.36 13.52 21.78 7.79 C 21.78 7.79 21.78 7.07 21.78 6.71 L 21.78 4.45 L 21.76 4.45 Z M 4.66 6.09 C 6.41 5.33 8.39 4.86 10.43 4.71 C 10.54 4.71 10.66 4.71 10.78 4.7 C 11.16 4.68 11.54 4.66 11.92 4.66 C 12.3 4.66 12.68 4.68 13.06 4.7 C 13.18 4.7 13.29 4.7 13.41 4.71 C 15.45 4.86 17.43 5.33 19.18 6.09 L 19.18 6.71 C 19.18 11.66 16.2 16.26 11.93 18.95 C 7.66 16.26 4.68 11.66 4.68 6.71 L 4.68 6.09 L 4.66 6.09 Z" style="fill:#010101"/>
</svg>
