<svg xmlns="http://www.w3.org/2000/svg" width="24" height="24" viewBox="0 0 24 24">
  <path fill="#010101" d="m21.76 4.45-.72-.36c-1.41-.7-2.92-1.2-4.48-1.54v-.02l-.34-.06c-.21-.04-.43-.07-.64-.11-.35-.06-.7-.12-1.06-.16-.26-.03-.52-.05-.78-.07-.32-.03-.63-.05-.95-.06-.29-.01-.58-.01-.87-.01-.29 0-.58 0-.87.01-.32.01-.63.04-.95.06-.26.02-.52.04-.78.07-.36.04-.71.1-1.06.16-.21.04-.43.07-.64.11-.11.02-.23.03-.34.06v.02c-1.56.34-3.07.84-4.48 1.54l-.72.36v2.26c0 .36.02.72.04 1.08h-.04c.42 5.73 4.08 10.92 9.19 13.81l.64.36h.04l.64-.36c5.11-2.89 8.77-8.08 9.19-13.81V4.45h-.02ZM4.66 6.09c1.75-.76 3.73-1.23 5.77-1.38.11 0 .23 0 .35-.01.38-.02.76-.04 1.14-.04.38 0 .76.02 1.14.04.12 0 .23 0 .35.01 2.04.15 4.02.62 5.77 1.38v.62c0 4.95-2.98 9.55-7.25 12.24-4.27-2.69-7.25-7.29-7.25-12.24v-.62h-.02Z"/>
</svg>
