<svg xmlns="http://www.w3.org/2000/svg" width="16" height="16" viewBox="0 0 16 16">
  <path fill="#828282" fill-rule="evenodd" d="M7.99749206.00504762c2.17196824 0 2.44431744.00920635 3.29733334.04812698.8512381.0388254 1.4326032.17403175 1.9413016.37174603.5259047.20434921.9719047.47780953 1.4165397.9224127.4446031.44463492.7180635.89063492.9224444 1.41653969.1976826.50869841.3328889 1.09006349.3717143 1.94130158.0389206.85301588.048127 1.12536508.048127 3.29736508 0 2.17196822-.0092064 2.44431742-.048127 3.29733332-.0388254.8512381-.1740317 1.4326032-.3717143 1.9413016-.2043809.5259048-.4778413.9719048-.9224444 1.4165397-.444635.4446032-.890635.7180635-1.4165397.9224444-.5086984.1976826-1.0900635.3328889-1.9413016.3717143C10.4418095 15.9907937 10.1694603 16 7.99749206 16c-2.172 0-2.4443492-.0092063-3.29736508-.048127-.85123809-.0388254-1.43260317-.1740317-1.94130158-.3717143-.52590477-.2043809-.97190477-.4778412-1.41653969-.9224444-.44460317-.4446349-.71806349-.8906349-.9224127-1.4165397-.19771428-.5086984-.33292063-1.0900635-.37174603-1.9413016C.00920635 10.4468571 0 10.1745079 0 8.00253968c0-2.172.00920635-2.4443492.04812698-3.29736508.0388254-.85123809.17403175-1.43260317.37174604-1.94130158.2043492-.52590477.47780952-.97190477.92241269-1.41653969.44463492-.44460317.89063492-.71806349 1.41653969-.9224127C3.26752381.22720635 3.84888889.092 4.70012698.0531746 5.55314286.01425397 5.82549206.00504762 7.99749206.00504762Zm0 1.44098413c-2.13542857 0-2.38838095.00815873-3.23168254.04663492-.77974603.03555555-1.20320635.16584127-1.48501587.27536508-.37330159.14507936-.63971428.31838095-.91955555.59825396-.27987302.27984127-.45317461.54625397-.59825397.91955556-.10952381.28180952-.23980953.70526984-.27536508 1.48501587-.03847619.84330159-.04663492 1.09625397-.04663492 3.23168254 0 2.13539682.00815873 2.38834922.04663492 3.23165082.03555555.779746.16584127 1.2032063.27536508 1.4850158.14507936.3733016.3184127.6397143.59825397.9195556.27984127.279873.54625396.4531746.91955555.598254.28180952.1095238.70526984.2398095 1.48501587.2753651.84320635.0384761 1.09609524.0466349 3.23168254.0466349 2.13555554 0 2.38847624-.0081588 3.23165084-.0466349.779746-.0355556 1.2032063-.1658413 1.4850158-.2753651.3733016-.1450794.6397143-.318381.9195556-.598254.279873-.2798413.4531746-.546254.598254-.9195556.1095238-.2818095.2398095-.7052698.275365-1.4850158.0384762-.8433016.046635-1.096254.046635-3.23165082 0-2.13542857-.0081588-2.38838095-.046635-3.23168254-.0355555-.77974603-.1658412-1.20320635-.275365-1.48501587-.1450794-.37330159-.318381-.63971429-.598254-.91955556-.2798413-.27987301-.546254-.4531746-.9195556-.59825396-.2818095-.10952381-.7052698-.23980953-1.4850158-.27536508-.8433016-.03847619-1.096254-.04663492-3.23165084-.04663492Zm0 2.44968254c2.26812694 0 4.10679364 1.83866666 4.10679364 4.10682539 0 2.26812702-1.8386667 4.10679362-4.10679364 4.10679362-2.26815873 0-4.10682539-1.8386666-4.10682539-4.10679362 0-2.26815873 1.83866666-4.10682539 4.10682539-4.10682539Zm0 6.77263491c1.47228572 0 2.66580954-1.1935238 2.66580954-2.66580952 0-1.47231746-1.19352382-2.66584127-2.66580954-2.66584127-1.47231746 0-2.66584127 1.19352381-2.66584127 2.66584127 0 1.47228572 1.19352381 2.66580952 2.66584127 2.66580952ZM13.226254 3.73346032c0 .53003174-.4296826.95968254-.9597143.95968254-.53 0-.9596826-.4296508-.9596826-.95968254 0-.53003175.4296826-.95971429.9596826-.95971429.5300317 0 .9597143.42968254.9597143.95971429Z"/>
</svg>
