<svg xmlns="http://www.w3.org/2000/svg" id="Layer_1" width="24" height="24" viewBox="0 0 24 24">
  <defs>
    <style>
      .cls-1{fill:#231f20}
    </style>
  </defs>
  <path d="M6.5 8.96v2.28h2.27V8.96H6.5z" class="cls-1"/>
  <path d="M21.08 3.66c-.5-.5-1.19-.81-1.96-.81H4.91a2.77 2.77 0 0 0-2.77 2.77v8.97a2.77 2.77 0 0 0 2.77 2.77h10.35c0 .92-.26 1.46-1.49 1.46v2.27c1.94 0 2.86-.92 3.29-1.69.46-.82.47-1.69.47-2.04h1.59c.76 0 1.46-.31 1.96-.81s.81-1.19.81-1.96V5.62c0-.76-.31-1.46-.81-1.96Zm-3.55 11.42H4.91c-.28 0-.5-.22-.5-.5V5.62c0-.28.22-.5.5-.5h14.21c.14 0 .26.06.35.15.09.09.15.22.15.35v8.97c0 .14-.06.26-.15.35s-.22.15-.35.15h-1.59Z" class="cls-1"/>
  <path d="M10.88 8.96h2.27v2.27h-2.27zm4.38 2.28h2.27V8.96h-2.27v2.28z" class="cls-1"/>
</svg>
