<svg width="37" height="40" xmlns="http://www.w3.org/2000/svg"><path d="M34.069 8.34l-4.003-2.3L20.948.802 20.662.64a4.873 4.873 0 0 0-4.83 0l-.285.162L2.704 8.179l-.285.161A4.82 4.82 0 0 0 0 12.51v15.415c0 1.715.927 3.308 2.419 4.17l13.12 7.538a2.02 2.02 0 0 0 2.75-.73 2.002 2.002 0 0 0-.733-2.74L4.721 28.787a1.378 1.378 0 0 1-.687-1.193V12.84c0-.492.262-.946.687-1.192l2.272-1.308 10.57-6.077c.426-.246.951-.238 1.376 0l12.843 7.377c.425.247.687.7.687 1.193v14.754c0 .492-.262.946-.687 1.192l-4.343 2.5-2.195-3.316a10.376 10.376 0 0 0 3.478-7.746c0-5.746-4.698-10.423-10.47-10.423-5.773 0-10.47 4.677-10.47 10.423s4.69 10.423 10.462 10.423c1.236 0 2.426-.215 3.531-.615l3.33 5.038c.054.077.109.154.17.224.008.015.024.023.039.038.07.077.147.146.224.208.023.015.039.03.062.046a2.2 2.2 0 0 0 .286.177c.023.007.046.023.07.03.084.039.177.077.27.1.023.008.038.016.062.016.108.03.216.046.324.054.031 0 .062.007.093.007.03 0 .062.008.093.008.061 0 .123-.008.185-.015.031 0 .054 0 .085-.008.116-.015.224-.038.34-.077.031-.008.062-.023.085-.03.085-.031.17-.07.255-.116.016-.008.039-.015.054-.023l6.275-3.608a4.82 4.82 0 0 0 2.418-4.169V12.51a4.852 4.852 0 0 0-2.426-4.17zm-22.27 11.877c0-3.538 2.89-6.415 6.445-6.415 3.554 0 6.444 2.877 6.444 6.415 0 3.539-2.89 6.416-6.444 6.416-3.555 0-6.445-2.877-6.445-6.416z" fill="#FF7038" fill-rule="nonzero"/></svg>