<svg width="30" height="38" xmlns="http://www.w3.org/2000/svg"><path d="M29.833 11.667c-.166-.167-.166-.334-.333-.5l-10-10C19.333 1 19.167.833 19 .833c-.167-.166-.5-.166-.667-.166H5c-2.833 0-5 2.166-5 5v26.666c0 2.834 2.167 5 5 5h20c2.833 0 5-2.166 5-5v-20c0-.166 0-.5-.167-.666zM20 6.333l4.333 4.334H20V6.333zM25 34H5c-1 0-1.667-.667-1.667-1.667V5.667C3.333 4.667 4 4 5 4h11.667v8.333c0 1 .666 1.667 1.666 1.667h8.334v18.333C26.667 33.333 26 34 25 34zm-1.667-13.333c0 1-.666 1.666-1.666 1.666H8.333c-1 0-1.666-.666-1.666-1.666 0-1 .666-1.667 1.666-1.667h13.334c1 0 1.666.667 1.666 1.667zm0 6.666c0 1-.666 1.667-1.666 1.667H8.333c-1 0-1.666-.667-1.666-1.667s.666-1.666 1.666-1.666h13.334c1 0 1.666.666 1.666 1.666zM6.667 14c0-1 .666-1.667 1.666-1.667h3.334c1 0 1.666.667 1.666 1.667s-.666 1.667-1.666 1.667H8.333c-1 0-1.666-.667-1.666-1.667z" fill="#9059FF" fill-rule="nonzero"/></svg>