<svg width="40" height="40" xmlns="http://www.w3.org/2000/svg"><path d="M14.833 7.5c-.166-1 .334-1.833 1.334-2 1.166-.333 2.5-.5 3.833-.5 12.5 0 19.5 13.667 19.833 14.333.167.5.167 1 0 1.5-1 2-2.333 3.834-3.833 5.667-.333.333-.833.667-1.333.667-.334 0-.834-.167-1-.334-.667-.666-.834-1.666-.167-2.333 1.167-1.333 2.167-2.667 3-4.167C35 17.667 29 8.667 20 8.667c-1 0-2.167.166-3.167.333-.833-.167-1.666-.667-2-1.5zm24.667 32c-.333.333-.667.5-1.167.5s-.833-.167-1.166-.5l-7.5-7.5C26.833 34 23.5 35 20 35 7.5 35 .5 21.333.167 20.667c-.167-.5-.167-1 0-1.5C2 15.667 4.667 12.5 7.667 10L.5 2.833C-.167 2.167-.167 1.167.5.5c.667-.667 1.667-.667 2.333 0L39.5 37.167c.667.666.667 1.666 0 2.333zm-23-19.333c0 .833.333 1.666 1 2.333 1 .833 2.167 1 3.333.667L16.667 19c0 .5-.167.833-.167 1.167zm10.833 9.5l-4-3.834c-1 .667-2.333 1-3.5 1-1.666 0-3.333-.666-4.5-1.833-1.333-1.167-2-2.833-2.166-4.667 0-1.333.333-2.666 1-3.833L10 12.333A32.34 32.34 0 0 0 3.5 20C5 22.667 11 31.667 20 31.667c2.5 0 5-.667 7.333-2z" fill="#FF2889" fill-rule="nonzero"/></svg>