<svg xmlns="http://www.w3.org/2000/svg" width="475" height="621" fill="none" viewBox="0 0 475 621"><mask id="b" fill="#fff"><path d="M463.528 104.926c5.841 0 10.575 4.734 10.575 10.575v70.5c0 5.84-4.734 10.575-10.575 10.575v-91.65Z"/></mask><path fill="url(#a)" d="M463.528 104.926c5.841 0 10.575 4.734 10.575 10.575v70.5c0 5.84-4.734 10.575-10.575 10.575v-91.65Z"/><path fill="#BFBFC7" d="M463.528 196.576h-11.75v11.75h11.75v-11.75Zm0-91.65v-11.75h-11.75v11.75h11.75Zm-1.175 10.575v70.5h23.5v-70.5h-23.5Zm12.925 81.075v-91.65h-23.5v91.65h23.5Zm-12.925-10.575c0-.649.526-1.175 1.175-1.175v23.5c12.33 0 22.325-9.995 22.325-22.325h-23.5Zm1.175-69.325a1.175 1.175 0 0 1-1.175-1.175h23.5c0-12.33-9.995-22.325-22.325-22.325v23.5Z" mask="url(#b)"/><path fill="#F9F9FA" stroke="#BFBFC7" stroke-miterlimit="10" stroke-width="9.4" d="M403.391 5.3H60.761C30.13 5.3 5.3 30.13 5.3 60.76v697.952c0 30.63 24.83 55.461 55.46 55.461h342.631c30.63 0 55.46-24.831 55.46-55.461V60.76c0-30.63-24.83-55.46-55.46-55.46Z"/><path fill="url(#c)" d="m133.244 71.385-4.005-2.294-9.144-5.236-.284-.163a4.889 4.889 0 0 0-4.836 0l-.284.165-12.858 7.364-.284.165a4.805 4.805 0 0 0-2.418 4.158v15.382a4.81 4.81 0 0 0 2.418 4.159l13.146 7.528a2.025 2.025 0 0 0 2.755-.731 1.99 1.99 0 0 0-.738-2.734l-12.858-7.363a1.372 1.372 0 0 1-.692-1.19V75.875c.001-.492.265-.946.692-1.19l2.276-1.303 10.568-6.065a1.394 1.394 0 0 1 1.379 0l12.862 7.366c.425.244.688.697.69 1.188v14.732a1.373 1.373 0 0 1-.693 1.189l-4.351 2.491-2.196-3.31a10.337 10.337 0 0 0 3.483-7.735c0-5.736-4.703-10.403-10.486-10.403s-10.487 4.667-10.487 10.403c0 5.736 4.704 10.403 10.487 10.403a10.502 10.502 0 0 0 3.54-.612l3.335 5.03c.052.076.109.15.17.22l.035.035c.07.076.147.146.229.21.02.015.038.032.06.048.09.065.185.123.284.173l.069.03c.088.04.179.073.273.101l.062.02c.106.027.214.044.323.053h.182c.061 0 .122-.008.182-.013h.084c.115-.016.228-.042.339-.077.029-.009.058-.021.088-.033.088-.032.173-.07.256-.114.018-.01.04-.015.058-.027l6.289-3.594a4.81 4.81 0 0 0 2.418-4.164V75.542a4.803 4.803 0 0 0-2.418-4.157Zm-22.312 11.852a6.454 6.454 0 1 1 6.454 6.4 6.435 6.435 0 0 1-6.454-6.4Z"/><path fill="url(#d)" d="m133.244 71.385-4.005-2.294-9.144-5.236-.284-.163a4.889 4.889 0 0 0-4.836 0l-.284.165-12.858 7.364-.284.165a4.805 4.805 0 0 0-2.418 4.158v15.382a4.81 4.81 0 0 0 2.418 4.159l13.146 7.528a2.025 2.025 0 0 0 2.755-.731 1.99 1.99 0 0 0-.738-2.734l-12.858-7.363a1.372 1.372 0 0 1-.692-1.19V75.875c.001-.492.265-.946.692-1.19l2.276-1.303 10.568-6.065a1.394 1.394 0 0 1 1.379 0l12.862 7.366c.425.244.688.697.69 1.188v14.732a1.373 1.373 0 0 1-.693 1.189l-4.351 2.491-2.196-3.31a10.337 10.337 0 0 0 3.483-7.735c0-5.736-4.703-10.403-10.486-10.403s-10.487 4.667-10.487 10.403c0 5.736 4.704 10.403 10.487 10.403a10.502 10.502 0 0 0 3.54-.612l3.335 5.03c.052.076.109.15.17.22l.035.035c.07.076.147.146.229.21.02.015.038.032.06.048.09.065.185.123.284.173l.069.03c.088.04.179.073.273.101l.062.02c.106.027.214.044.323.053h.182c.061 0 .122-.008.182-.013h.084c.115-.016.228-.042.339-.077.029-.009.058-.021.088-.033.088-.032.173-.07.256-.114.018-.01.04-.015.058-.027l6.289-3.594a4.81 4.81 0 0 0 2.418-4.164V75.542a4.803 4.803 0 0 0-2.418-4.157Zm-22.312 11.852a6.454 6.454 0 1 1 6.454 6.4 6.435 6.435 0 0 1-6.454-6.4Z"/><path fill="url(#e)" d="m133.242 71.386-4.005-2.294-5.587-3.198a4.308 4.308 0 0 0-4.16-.062l-2.795 1.485a1.396 1.396 0 0 1 1.38 0l12.862 7.366c.425.244.688.697.69 1.187v14.732a1.37 1.37 0 0 1-.693 1.19l-4.351 2.491.679 1.085a2.844 2.844 0 0 0 3.827.955l2.153-1.232a4.796 4.796 0 0 0 2.418-4.164V75.543a4.793 4.793 0 0 0-2.418-4.157Z"/><path fill="url(#f)" d="M131.627 75.874v7.148h4.033v-7.479a4.793 4.793 0 0 0-2.418-4.157l-4.005-2.294-5.587-3.198a4.308 4.308 0 0 0-4.16-.062l-2.795 1.485a1.4 1.4 0 0 1 1.38 0l12.862 7.366c.426.245.689.7.69 1.191Z"/><path fill="url(#g)" d="M131.627 84.172v6.43a1.37 1.37 0 0 1-.693 1.189l-4.351 2.492.679 1.085a2.844 2.844 0 0 0 3.827.954l2.154-1.231a4.798 4.798 0 0 0 2.418-4.165v-6.754h-4.034Z" opacity=".9"/><path fill="url(#h)" d="m126.276 93.815-1.887-2.844a10.498 10.498 0 0 1-3.464 2.056l2.007 3.028a88.824 88.824 0 0 0 3.344-2.24Z" opacity=".9"/><path fill="#000" d="M152.438 93.31V73.232h4.296l6.225 11.34 6.195-11.34h4.326V93.31h-4.326V80.8l-6.195 11.34-6.225-11.34V93.31h-4.296Zm32.266.35c-4.501 0-8.271-3.623-8.271-7.92 0-4.296 3.77-7.89 8.271-7.89 4.471 0 8.212 3.594 8.212 7.89 0 4.297-3.741 7.92-8.212 7.92Zm0-3.594c2.25 0 4.149-1.987 4.149-4.326 0-2.337-1.899-4.296-4.149-4.296-2.28 0-4.18 1.959-4.18 4.296 0 2.339 1.9 4.326 4.18 4.326Zm10.218 3.244V90.3l7.599-8.476h-7.394V78.2h12.946v3.01l-7.598 8.476h7.657v3.624h-13.21Zm18.151-17.185a2.326 2.326 0 0 1-2.338-2.338c0-1.198 1.023-2.28 2.338-2.28 1.257 0 2.28 1.082 2.28 2.28 0 1.286-1.023 2.338-2.28 2.338Zm-2.162 17.185V78.2h4.267v15.11h-4.267Zm7.783 0V72.88h4.267V93.31h-4.267Zm7.782 0V72.88h4.267V93.31h-4.267Zm14.534-15.46c3.945 0 6.634 2.484 6.634 6.43v9.03h-4.121v-1.52c-1.081 1.228-2.805 1.87-4.442 1.87-3.215 0-5.699-1.928-5.699-4.822 0-2.98 2.776-5.026 6.284-5.026 1.227 0 2.571.263 3.857.76v-.293c0-1.607-.993-3.01-3.478-3.01-1.402 0-2.717.468-3.916 1.081l-1.432-2.834c2.134-1.082 4.209-1.666 6.313-1.666Zm-.965 12.859c1.637 0 3.186-.76 3.478-2.163v-1.403a9.557 9.557 0 0 0-3.244-.555c-1.549 0-2.776.906-2.776 2.134 0 1.227 1.081 1.987 2.542 1.987Zm19.612 2.6V73.233h2.952l7.044 13.122 7.043-13.122h2.952V93.31h-2.952V79.019l-7.043 13.122-7.044-13.122v14.29h-2.952Zm31.183.352c-4.325 0-7.979-3.624-7.979-7.92 0-4.297 3.654-7.891 7.979-7.891 4.296 0 7.92 3.594 7.92 7.89 0 4.297-3.624 7.92-7.92 7.92Zm0-2.514c2.718 0 5.027-2.455 5.027-5.407 0-2.922-2.309-5.377-5.027-5.377-2.776 0-5.085 2.455-5.085 5.377 0 2.952 2.309 5.407 5.085 5.407Zm18.365-13.297c3.332 0 5.67 2.425 5.67 5.845v9.615h-2.835v-9.118c0-2.25-1.432-3.829-3.478-3.829-2.104 0-3.916 1.374-4.15 3.156v9.79h-2.893V78.2h2.893v2.192c.906-1.49 2.747-2.542 4.793-2.542Zm10.615-2.163a1.759 1.759 0 0 1-1.754-1.754c0-.906.76-1.724 1.754-1.724.935 0 1.724.819 1.724 1.724 0 .936-.789 1.754-1.724 1.754Zm-1.461 17.623V78.2h2.893v15.11h-2.893Zm13.525-2.718 1.052 1.987a4.863 4.863 0 0 1-3.01 1.082c-2.338 0-3.975-1.695-3.975-4.121v-8.885h-2.28V78.2h2.28v-4.15h2.835v4.15h3.565v2.455h-3.565v8.68c0 1.052.701 1.812 1.549 1.812.643 0 1.227-.234 1.549-.555Zm10.535 3.069c-4.326 0-7.979-3.624-7.979-7.92 0-4.297 3.653-7.891 7.979-7.891 4.296 0 7.92 3.594 7.92 7.89 0 4.297-3.624 7.92-7.92 7.92Zm0-2.514c2.718 0 5.026-2.455 5.026-5.407 0-2.922-2.308-5.377-5.026-5.377-2.777 0-5.086 2.455-5.086 5.377 0 2.952 2.309 5.407 5.086 5.407Zm13.718-10.053c.965-1.988 3.01-3.244 5.611-3.244v2.513c-3.127 0-5.348 1.724-5.611 4.355v8.592h-2.893V78.2h2.893v2.894Z"/><path fill="#fff" d="M28.502 142.79a5.65 5.65 0 0 1 5.65-5.649H429.89a5.649 5.649 0 0 1 5.65 5.649v486.072a5.65 5.65 0 0 1-5.65 5.65H34.151a5.65 5.65 0 0 1-5.649-5.65V142.79Z"/><path stroke="#000" stroke-opacity=".1" stroke-width=".706" d="M34.152 136.788a6.002 6.002 0 0 0-6.003 6.002v486.072a6.003 6.003 0 0 0 6.003 6.003H429.89a6.003 6.003 0 0 0 6.003-6.003V142.79a6.002 6.002 0 0 0-6.003-6.002H34.151Z"/><path fill="#6D6D6E" d="M155.31 506.406a1.077 1.077 0 1 0 2.157 0c0-.588-.49-1.079-1.079-1.079-.588 0-1.078.491-1.078 1.079Zm-.752 0c0-1.013.817-1.83 1.83-1.83 1.014 0 1.831.817 1.831 1.83a1.828 1.828 0 0 1-1.831 1.831 1.828 1.828 0 0 1-1.83-1.831Zm-8.483 6.489c.72-1.7 1.39-4.184 1.618-6.064l1.455.294c-.114.36-.229.85-.31 1.193-.213 1.014-.785 3.433-1.471 5.116a24.824 24.824 0 0 1-2.419 4.494l-1.39-.588c1.03-1.373 1.962-3.089 2.517-4.445Zm8.058-.621c-.654-1.684-1.667-3.956-2.37-5.181l1.324-.442c.637 1.193 1.683 3.449 2.386 5.165a74.494 74.494 0 0 1 1.961 5.606l-1.454.457c-.409-1.65-1.177-3.873-1.847-5.605Zm17.798-5.394c-.098.131-.31.49-.392.703-.654 1.618-1.896 3.906-3.252 5.41-1.831 2.043-4.168 3.988-6.75 5.164l-1.046-1.095c2.647-1.013 5.05-2.974 6.733-4.837 1.112-1.259 2.305-3.204 2.73-4.56h-6.374c-.589 0-1.471.065-1.651.081v-1.471c.212.033 1.144.098 1.651.098h6.308c.523 0 .965-.049 1.226-.13l.817.637Zm-3.432 5.263c1.765 1.471 3.939 3.759 5.05 5.115l-1.127.997c-1.177-1.552-3.089-3.644-4.855-5.197l.932-.915Zm21.035-5.247a3.348 3.348 0 0 0-.213.769c-.294 1.928-.637 4.265-1.83 6.112-1.324 2.076-3.547 3.743-6.178 4.593l-1.112-1.112c2.403-.653 4.74-2.075 6.064-4.167.931-1.439 1.389-3.531 1.552-5.459h-9.005v3.269c0 .228 0 .637.033 1.046h-1.471c.032-.393.049-.736.049-1.046v-3.498c0-.376-.017-.735-.049-1.079.425.033 1.029.033 1.732.033h8.401c.343 0 .735-.016 1.03-.082l.997.621Zm3.677 3.825c.507.049 1.356.098 2.288.098h8.956c.818 0 1.39-.065 1.765-.098v1.602c-.343-.017-1.029-.066-1.748-.066h-8.973c-.899 0-1.765.033-2.288.066v-1.602Zm25.414-4.674c.409.588 1.112 1.683 1.488 2.467l-.932.425a15.595 15.595 0 0 0-1.471-2.5l.915-.392Zm1.962-.818c.441.572 1.16 1.651 1.536 2.419l-.915.458a15.876 15.876 0 0 0-1.504-2.452l.883-.425Zm-7.698 11.343v-9.496c0-.474-.049-1.193-.131-1.7h1.602c-.049.491-.115 1.21-.115 1.7 0 2.55.017 8.728.017 9.496 0 .523.032 1.406.098 1.945h-1.586c.082-.523.115-1.324.115-1.945Zm1.062-6.913c2.174.621 5.459 1.879 7.273 2.778l-.572 1.373c-1.863-.997-4.919-2.158-6.701-2.713v-1.438Z"/><rect width="11.236" height="11.236" x="122.099" y="506.128" fill="#9059FF" rx="2.043"/><path fill="#6D6D6E" d="M326.856 516.382v-1.184l5.224-8.265h.859v1.834h-.581l-3.946 6.245v.093h7.034v1.277h-8.59Zm5.595 2.437V506.933h1.37v11.886h-1.37Zm6.215-8.914 2.135 3.644 2.136-3.644h1.579l-2.879 4.457 2.879 4.457h-1.579l-2.136-3.459-2.135 3.459h-1.579l2.832-4.457-2.832-4.457h1.579ZM156.764 537.207a5.16 5.16 0 0 0-.376.866c-.441 1.651-1.438 3.857-2.893 5.639-1.487 1.814-3.448 3.301-6.504 4.445l-1.193-1.078c3.007-.883 5.033-2.354 6.537-4.103 1.259-1.487 2.272-3.612 2.599-5.099h-6.047l.523-1.177h5.197c.441 0 .817-.049 1.079-.147l1.078.654Zm-5.475-2.468c-.261.425-.556.981-.719 1.275-.964 1.814-2.664 4.151-5.295 5.884l-1.145-.834c2.828-1.683 4.43-4.07 5.149-5.524a6.08 6.08 0 0 0 .506-1.308l1.504.507Zm11.212 12.176c.114-.261.147-.49.147-.801v-9.348c0-.442-.065-1.177-.131-1.488h1.602a13.485 13.485 0 0 0-.114 1.471v9.284c3.138-.801 6.913-2.942 8.956-5.574l.735 1.144c-2.124 2.632-5.491 4.642-9.577 5.835a3.34 3.34 0 0 0-.687.278l-.931-.801Zm24.417-11.686c.409.605 1.145 1.765 1.52 2.55l-.931.425c-.409-.866-.964-1.847-1.504-2.582l.915-.393Zm2.125-.784c.441.572 1.177 1.749 1.569 2.5l-.931.425a17.504 17.504 0 0 0-1.537-2.517l.899-.408Zm-9.12.539c.965.539 2.844 1.798 3.563 2.321l-.784 1.111c-.768-.588-2.55-1.781-3.514-2.32l.735-1.112Zm-2.451 11.686c1.798-.311 3.824-.948 5.491-1.896 2.713-1.553 4.854-3.677 6.178-5.982l.801 1.34c-1.422 2.19-3.677 4.315-6.292 5.835-1.651.964-3.906 1.733-5.41 2.043l-.768-1.34Zm0-8.009c.964.523 2.876 1.7 3.579 2.207l-.752 1.144c-.801-.572-2.566-1.716-3.563-2.223l.736-1.128Zm21.982-.637c.278.654 1.079 2.811 1.275 3.514l-1.209.441c-.18-.752-.932-2.827-1.275-3.546l1.209-.409Zm5.917.915c-.115.327-.197.589-.262.801-.425 1.798-1.144 3.563-2.304 5.034-1.52 1.912-3.514 3.187-5.328 3.874l-1.079-1.095c1.879-.556 3.971-1.798 5.312-3.465 1.16-1.422 1.994-3.514 2.255-5.606l1.406.457Zm-9.725-.098c.327.687 1.193 2.828 1.487 3.694l-1.225.458c-.262-.85-1.144-3.122-1.471-3.694l1.209-.458Zm17.749 7.143v-9.496c0-.474-.032-1.193-.114-1.716h1.602a14.97 14.97 0 0 0-.115 1.716c0 2.533.017 8.727.017 9.496 0 .523.032 1.405.098 1.944h-1.586c.082-.523.098-1.34.098-1.944Zm1.079-6.914c2.157.621 5.459 1.88 7.273 2.762l-.572 1.389c-1.863-.997-4.919-2.157-6.701-2.713v-1.438Zm18.06-4.494a34.41 34.41 0 0 0-.082 1.323c-.212 6.669-2.01 9.725-5.23 11.964l-1.193-.964a8.525 8.525 0 0 0 1.667-1.193c2.043-1.847 3.383-4.609 3.416-9.774 0-.376-.033-.981-.098-1.356h1.52Zm5.688 3.399a8.417 8.417 0 0 0-.098.785c-.049 1.585-.262 6.325-.997 7.894-.327.702-.85.997-1.749.997-.817 0-1.765-.049-2.615-.115l-.164-1.356c.883.114 1.733.196 2.436.196.457 0 .768-.147.948-.54.621-1.258.833-5.279.833-7.027h-8.613c-.654 0-1.308.016-1.896.065v-1.373a22.77 22.77 0 0 0 1.88.082h8.073c.442 0 .752-.033 1.03-.082l.932.474Zm4.02 2.37a25.57 25.57 0 0 0 2.288.098h8.957c.817 0 1.389-.065 1.765-.098v1.602c-.343-.017-1.03-.066-1.749-.066h-8.973c-.899 0-1.765.033-2.288.066v-1.602Zm25.415-4.674c.408.588 1.111 1.683 1.487 2.467l-.932.425a15.595 15.595 0 0 0-1.471-2.5l.916-.392Zm1.961-.818c.441.572 1.16 1.651 1.536 2.419l-.915.458a15.799 15.799 0 0 0-1.504-2.452l.883-.425Zm-7.698 11.343V536.7c0-.474-.049-1.193-.131-1.7h1.602c-.049.491-.114 1.21-.114 1.7 0 2.55.016 8.728.016 9.496 0 .523.033 1.406.098 1.945h-1.585c.081-.523.114-1.324.114-1.945Zm1.062-6.913c2.174.621 5.459 1.879 7.273 2.778l-.572 1.373c-1.863-.997-4.919-2.158-6.701-2.713v-1.438Zm11.278-1.014h14.398v1.03H274.26v-1.03Zm6.521-3.138h1.226v6.995h-1.226v-6.995Zm5.557-1.242.817.915c-3.007.638-7.763 1.014-11.702 1.144a3.985 3.985 0 0 0-.278-.948c3.906-.163 8.597-.539 11.163-1.111Zm-6.113 4.691.997.474c-1.536 1.83-4.266 3.546-6.603 4.396a4.694 4.694 0 0 0-.784-.964c2.304-.736 5.001-2.288 6.39-3.906Zm2.337.049c1.406 1.552 4.152 3.007 6.538 3.661-.294.245-.638.719-.834 1.029-2.37-.784-5.115-2.467-6.652-4.265l.948-.425Zm2.566-3.089 1.308.376c-.523.882-1.161 1.879-1.651 2.533l-1.03-.36a16.653 16.653 0 0 0 1.373-2.549Zm-8.482.686 1.046-.408c.539.67 1.095 1.569 1.307 2.19l-1.111.441c-.213-.605-.736-1.553-1.242-2.223Zm-.294 6.211h10.427v6.26h-1.242v-5.296h-7.992v5.361h-1.193v-6.325Zm.539 2.386h9.332v.883h-9.332v-.883Zm0 2.386h9.332v.981h-9.332v-.981Zm3.922-4.249h1.177v4.887h-1.177v-4.887Zm13.059-7.502v2.631h7.96v-2.631h-7.96Zm-1.193-1.079h10.411v4.805h-10.411v-4.805Zm-2.272 6.064h14.726v1.144h-14.726v-1.144Zm3.498 2.582h8.335v1.144h-8.335v-1.144Zm7.894 0h1.307s-.032.393-.065.572c-.425 2.877-.817 4.152-1.438 4.691-.392.343-.785.425-1.422.458-.556.032-1.635 0-2.779-.066a2.704 2.704 0 0 0-.425-1.16c1.161.098 2.354.114 2.795.114.393 0 .605-.016.801-.147.49-.392.866-1.602 1.21-4.282l.016-.18Zm-7.584-2.272 1.292.197c-.442 1.438-1.046 3.219-1.52 4.347l-1.308-.229c.49-1.127 1.128-2.942 1.536-4.315Z"/><rect width="11.236" height="11.236" x="122.099" y="535.751" fill="#C689FF" rx="2.043"/><path fill="#6D6D6E" d="M332.151 547.584c-.766 0-1.449-.131-2.049-.394-.596-.264-1.07-.629-1.422-1.097a2.944 2.944 0 0 1-.568-1.643h1.462c.031.383.163.714.395.993.232.274.536.487.911.638.375.151.791.226 1.248.226.511 0 .963-.089 1.358-.267.395-.178.704-.425.929-.743a1.86 1.86 0 0 0 .336-1.102c0-.438-.108-.822-.325-1.155-.217-.337-.534-.6-.952-.79-.418-.189-.928-.284-1.532-.284h-.952v-1.277h.952c.472 0 .886-.085 1.242-.255.36-.17.64-.41.842-.72.205-.309.307-.673.307-1.091 0-.402-.089-.753-.267-1.051a1.827 1.827 0 0 0-.754-.696c-.321-.166-.701-.25-1.138-.25a3 3 0 0 0-1.161.227 2.175 2.175 0 0 0-.882.644 1.677 1.677 0 0 0-.371 1.01h-1.393a2.83 2.83 0 0 1 .563-1.637 3.55 3.55 0 0 1 1.381-1.103 4.468 4.468 0 0 1 1.886-.394c.736 0 1.366.149 1.893.447.526.294.93.683 1.213 1.166.282.484.423 1.006.423 1.567 0 .67-.176 1.24-.528 1.712-.348.473-.822.799-1.422.981v.093c.751.124 1.337.443 1.759.958.421.511.632 1.143.632 1.898 0 .646-.176 1.226-.528 1.741a3.581 3.581 0 0 1-1.428 1.207c-.603.294-1.29.441-2.06.441Zm7.435-9.077 2.136 3.645 2.135-3.645h1.579l-2.879 4.457 2.879 4.458h-1.579l-2.135-3.459-2.136 3.459h-1.579l2.832-4.458-2.832-4.457h1.579ZM151.093 565.923h5.688v1.062h-5.688v-1.062Zm-1.896 10.051c1.406-.278 3.53-.784 5.557-1.291l.131 1.144c-1.863.49-3.825.981-5.328 1.34l-.36-1.193Zm1.912-12.993h6.325v7.044h-6.325v-1.111h5.132v-4.822h-5.132v-1.111Zm3.122 6.57c.621 3.073 1.978 5.688 4.282 6.799-.261.229-.621.703-.801 1.013-2.451-1.34-3.841-4.135-4.527-7.632l1.046-.18Zm3.007 1.128.85.833c-.817.768-1.928 1.586-2.762 2.125l-.703-.736c.801-.555 1.945-1.52 2.615-2.222Zm-6.668-7.698h1.16v13.107l-1.16.213v-13.32Zm-6.243 3.367h4.968v1.046h-4.968v-1.046Zm-.818 2.794h6.211v1.079h-6.211v-1.079Zm.344 2.207.866-.213c.343.965.637 2.223.703 3.024l-.916.245c-.049-.833-.326-2.076-.653-3.056Zm-.556 4.38c1.602-.278 4.119-.736 6.537-1.21l.082 1.046c-2.223.458-4.609.948-6.341 1.275l-.278-1.111Zm5.263-4.772.997.277c-.327 1.014-.687 2.223-.997 2.975l-.801-.262c.294-.8.654-2.108.801-2.99Zm-2.387-4.135h1.096v8.825l-1.096.18v-9.005Zm-.081-4.511h.654v.261h.359v.327c-.654 1.258-1.765 3.007-3.448 4.413-.18-.245-.54-.621-.769-.785 1.537-1.242 2.615-2.909 3.204-4.216Zm.196 0h.915c1.062.899 2.37 2.19 2.991 3.056l-.833.932c-.589-.867-1.798-2.272-2.844-3.122h-.229v-.866Zm19.694.98h8.025v1.177h-8.025v-1.177Zm4.773 4.871h1.242v7.6c0 .768-.18 1.144-.736 1.34-.556.18-1.487.196-3.089.196a4.534 4.534 0 0 0-.392-1.21c1.16.033 2.255.033 2.55.017.326-.017.425-.082.425-.36v-7.583Zm-5.492-.36h9.218v1.161h-9.218v-1.161Zm-3.269 1.259 1.079-1.063.147.066v9.316h-1.226v-8.319Zm1.896-3.269 1.161.441c-1.275 2.076-3.204 4.184-4.92 5.557-.18-.245-.605-.784-.866-1.013 1.7-1.21 3.497-3.106 4.625-4.985Zm-.67-3.498 1.177.474c-1.095 1.439-2.779 3.024-4.233 4.07-.18-.262-.507-.736-.719-.981 1.356-.915 2.941-2.386 3.775-3.563Zm14.056 1.716h12.258v12.847h-1.324v-11.604h-9.66v11.685h-1.274V564.01Zm.572 10.264h11.277v1.259h-11.277v-1.259Zm22.391-8.433h1.193v10.509h-1.193v-10.509Zm-4.511 6.472h10.378v1.079h-10.378v-1.079Zm-1.063 3.53h12.454v1.079h-12.454v-1.079Zm2.648-9.724 1.144.114c-.376 2.386-1.258 4.201-2.697 5.394-.179-.197-.67-.556-.931-.72 1.405-1.046 2.174-2.713 2.484-4.788Zm-.408 2.582.702-.686c.834.702 1.88 1.716 2.37 2.353l-.735.801c-.491-.654-1.504-1.716-2.337-2.468Zm6.978-2.582 1.128.13c-.376 2.289-1.307 4.021-2.746 5.165-.163-.196-.621-.572-.882-.752 1.389-.98 2.19-2.549 2.5-4.543Zm-.523 2.549.736-.719c1.029.834 2.386 2.011 3.056 2.746l-.768.834c-.654-.769-1.978-1.994-3.024-2.861Zm-3.791-6.357h1.258v2.517h-1.258v-2.517Zm-5.541 1.716h13.042v1.16h-13.042v-1.16Zm-.637 0h1.193v4.56c0 2.5-.213 6.21-1.537 8.711-.228-.229-.751-.556-1.046-.687 1.275-2.353 1.39-5.671 1.39-8.041v-4.543Z"/><rect width="11.236" height="11.236" x="122.099" y="564.353" fill="#AB71FF" rx="2.043"/><path fill="#6D6D6E" d="M327.135 576.023v-1.045l3.923-4.295c.461-.503.84-.94 1.138-1.311.298-.376.518-.728.661-1.057.147-.332.221-.681.221-1.044 0-.418-.101-.78-.302-1.086a1.966 1.966 0 0 0-.812-.708 2.644 2.644 0 0 0-1.161-.249c-.457 0-.855.095-1.196.284a1.956 1.956 0 0 0-.783.784c-.182.336-.273.731-.273 1.184h-1.37c0-.697.161-1.308.482-1.834a3.338 3.338 0 0 1 1.312-1.231c.557-.294 1.182-.441 1.874-.441.697 0 1.314.147 1.852.441.537.294.959.691 1.265 1.19.306.499.458 1.054.458 1.666 0 .437-.079.865-.238 1.282-.154.414-.425.877-.812 1.388-.383.506-.915 1.125-1.596 1.857l-2.67 2.855v.093h5.525v1.277h-7.498Zm10.94-8.915 2.136 3.645 2.136-3.645h1.578l-2.878 4.458 2.878 4.457h-1.578l-2.136-3.459-2.136 3.459h-1.579l2.833-4.457-2.833-4.458h1.579ZM146.795 592.432c.408.033.8.049 1.307.049.719 0 4.086-.147 5.018-.245a4.09 4.09 0 0 0 .898-.163l.818.931c-.213.147-.638.425-.867.621-1.225.997-3.579 2.975-4.886 4.021 2.484-.278 5.426-.49 7.763-.49l.016 1.209c-1.601-.082-3.17-.065-4.151.082-1.585.229-3.154 1.569-3.154 3.105 0 1.651 1.323 2.206 2.827 2.419.964.114 1.749.082 2.337.033l-.261 1.34c-4.004.163-6.178-1.079-6.178-3.596 0-1.389 1.062-2.582 1.912-3.089a77.298 77.298 0 0 0-5.9.736l-.114-1.226c.882-.098 1.993-.229 2.827-.327 1.781-1.242 4.364-3.514 5.41-4.429-.736.049-3.596.18-4.299.245-.425.033-.899.082-1.258.114l-.065-1.34Zm21.279 1.046c-.212 1.7-.539 3.612-1.046 5.361-.997 3.35-2.304 5.083-3.808 5.083-1.471 0-2.926-1.667-2.926-4.38 0-3.547 3.155-6.636 7.159-6.636 3.825 0 6.26 2.697 6.26 6.015 0 3.416-2.256 5.704-6.146 6.21l-.751-1.209a13.422 13.422 0 0 0 1.405-.196c2.092-.474 4.152-2.043 4.152-4.871 0-2.615-1.815-4.772-4.953-4.772-3.595 0-5.834 2.958-5.834 5.361 0 2.059.931 2.974 1.667 2.974.768 0 1.65-1.111 2.484-3.873.474-1.553.817-3.4.981-5.1l1.356.033Zm17.259-2.549h1.161v11.358h-1.161v-11.358Zm-5.687 6.733 9.822-3.808.474 1.062-9.839 3.825-.457-1.079Zm2.059-5.132h1.209v10.934c0 .932.229 1.144 1.389 1.144h4.201c.997 0 1.177-.457 1.307-2.386a3.61 3.61 0 0 0 1.144.507c-.212 2.255-.604 2.991-2.418 2.991h-4.283c-1.977 0-2.549-.458-2.549-2.272V592.53Zm7.355 1.602h-.148l.295-.245.212-.196.85.359-.049.196c-.016 2.975-.049 5.328-.213 6.031-.13.752-.473 1.063-.98 1.193-.441.115-1.161.131-1.651.115-.033-.344-.163-.85-.31-1.128.457.016 1.046.016 1.258.016.278 0 .458-.065.572-.49.131-.523.164-2.664.164-5.851Zm-9.496-3.171 1.128.36c-1.063 2.746-2.746 5.524-4.495 7.355-.131-.278-.474-.916-.686-1.194 1.618-1.585 3.138-4.037 4.053-6.521Zm-1.733 4.217 1.177-1.193.016.016v11.915h-1.193v-10.738Z"/><rect width="11.236" height="11.236" x="122.099" y="592.954" fill="#45278D" rx="2.043"/><path fill="#6D6D6E" d="M332.314 592.738v11.887h-1.44v-10.378h-.069l-2.902 1.927v-1.462l2.971-1.974h1.44Zm4.463 2.972 2.136 3.645 2.135-3.645h1.579l-2.879 4.457 2.879 4.458h-1.579l-2.135-3.46-2.136 3.46h-1.579l2.832-4.458-2.832-4.457h1.579ZM155.751 477.298c-.164.311-.392.866-.523 1.21-.621 1.618-1.602 3.742-2.942 5.442-1.569 1.994-3.694 4.151-6.783 5.753l-1.111-1.013c3.04-1.455 5.132-3.4 6.815-5.541 1.341-1.732 2.158-3.546 2.713-5.148.115-.327.262-.866.344-1.21l1.487.507Zm-8.63 1.929c1.618 1.029 3.89 2.664 5.132 3.661 1.635 1.34 3.253 2.762 4.544 4.167l-1.03 1.128c-1.356-1.569-2.778-2.86-4.413-4.233-1.176-.981-3.301-2.599-5.099-3.694l.866-1.029Zm13.402 2.892c.507.05 1.357.099 2.288.099h8.957c.817 0 1.389-.066 1.765-.099v1.602c-.343-.016-1.03-.065-1.749-.065h-8.973c-.898 0-1.765.032-2.288.065v-1.602Zm23.241 6.734c.066-.245.115-.588.115-.915v-9.79c0-.621-.082-1.079-.082-1.209h1.503c-.016.13-.081.604-.081 1.225v9.414c1.52-.686 3.53-2.173 4.772-4.02l.785 1.127c-1.422 1.913-3.678 3.58-5.574 4.528-.277.13-.441.278-.572.359l-.866-.719Zm-7.485-.065c1.389-.981 2.353-2.435 2.844-4.021.49-1.503.49-4.756.49-6.586 0-.474-.033-.834-.115-1.177h1.504c-.016.18-.082.686-.082 1.16 0 1.814-.049 5.328-.49 6.963a9.083 9.083 0 0 1-2.909 4.478l-1.242-.817Zm30.497-10.624a5.274 5.274 0 0 0-.441.572c-.654 1.112-2.207 3.22-4.07 4.511l-1.095-.866c1.52-.866 3.057-2.631 3.58-3.645h-9.316c-.605 0-1.21.033-1.847.082v-1.471a13.58 13.58 0 0 0 1.847.147h9.397c.311 0 .899-.049 1.128-.114l.817.784Zm-6.537 2.141c0 4.43-.393 7.42-4.56 9.512l-1.193-.98a6.5 6.5 0 0 0 1.471-.736c2.517-1.552 2.876-3.873 2.876-6.603 0-.392 0-.751-.065-1.193h1.471Zm18.386-2.86c.409.589 1.112 1.684 1.488 2.468l-.932.425a15.65 15.65 0 0 0-1.471-2.501l.915-.392Zm1.962-.817c.441.572 1.16 1.651 1.536 2.419l-.915.457a15.865 15.865 0 0 0-1.504-2.451l.883-.425Zm-7.698 11.343v-9.496c0-.474-.049-1.193-.131-1.7h1.602c-.049.49-.115 1.21-.115 1.7 0 2.549.017 8.727.017 9.496 0 .523.032 1.405.098 1.944h-1.586c.082-.523.115-1.323.115-1.944Zm1.062-6.914c2.174.621 5.459 1.88 7.273 2.779l-.572 1.372c-1.863-.997-4.919-2.157-6.701-2.713v-1.438Zm13.925 7.633c.114-.262.147-.491.147-.801v-9.349c0-.441-.065-1.177-.131-1.487h1.602a13.446 13.446 0 0 0-.114 1.471v9.283c3.138-.801 6.913-2.942 8.956-5.573l.735 1.144c-2.124 2.631-5.491 4.642-9.577 5.835-.163.049-.425.13-.686.278l-.932-.801Zm25.774-10.411c-.098.13-.31.49-.392.702-.654 1.619-1.896 3.907-3.253 5.41-1.83 2.043-4.167 3.988-6.75 5.165l-1.046-1.095c2.648-1.013 5.051-2.975 6.734-4.838 1.111-1.258 2.305-3.203 2.73-4.56h-6.375c-.588 0-1.47.066-1.65.082v-1.471c.212.033 1.144.098 1.65.098h6.309c.523 0 .964-.049 1.226-.131l.817.638Zm-3.432 5.262c1.765 1.471 3.939 3.759 5.05 5.116l-1.128.997c-1.176-1.553-3.089-3.645-4.854-5.197l.932-.916ZM326.856 486.759v-1.184l5.224-8.265h.859v1.834h-.581l-3.946 6.245v.093h7.034v1.277h-8.59Zm5.595 2.437V477.31h1.37v11.886h-1.37Zm6.215-8.914 2.135 3.644 2.136-3.644h1.579l-2.879 4.457 2.879 4.457h-1.579l-2.136-3.459-2.135 3.459h-1.579l2.832-4.457-2.832-4.457h1.579Z"/><rect width="11.236" height="11.236" x="122.099" y="477.526" fill="#592ACB" rx="2.043"/><path fill="#C689FF" d="M265.794 175.159a137.853 137.853 0 0 1 22.319 7.786l-16.923 37.75a96.535 96.535 0 0 0-15.624-5.45l10.228-40.086Z"/><path fill="#AB71FF" d="M288.07 182.925a137.948 137.948 0 0 1 20.666 11.476l-23.11 34.313a96.619 96.619 0 0 0-14.466-8.033l16.91-37.756Z"/><path fill="#45278D" d="M308.104 193.978a137.798 137.798 0 0 1 18.484 14.735l-28.465 30.02a96.618 96.618 0 0 0-12.939-10.315l22.92-34.44Z"/><path fill="#89CFF5" d="M106.557 366.702a137.896 137.896 0 0 1 13.869-139.372l33.383 24.435a96.523 96.523 0 0 0-9.708 97.561l-37.544 17.376Z"/><path fill="#89CFF5" d="M120.206 227.631a137.9 137.9 0 0 1 129.775-55.535l-5.484 41.005a96.524 96.524 0 0 0-90.842 38.875l-33.449-24.345Z"/><path fill="#592ACB" d="M326.588 208.712a137.912 137.912 0 0 1 42.7 109.392 137.911 137.911 0 0 1-57.07 102.63 137.898 137.898 0 0 1-205.574-53.844l37.518-17.433a96.524 96.524 0 0 0 63.082 52.703 96.536 96.536 0 0 0 120.768-86.853 96.53 96.53 0 0 0-29.89-76.574l28.466-30.021Z"/><path fill="#9059FF" d="M106.636 366.872a137.896 137.896 0 0 1 19.342-146.629 137.894 137.894 0 0 1 140.955-44.788l-10.569 39.997a96.523 96.523 0 0 0-53.893 1.33 96.535 96.535 0 0 0-66.47 79.373 96.534 96.534 0 0 0 8.155 53.289l-37.52 17.428Z"/><circle cx="231.703" cy="307.247" r="96.53" fill="#fff"/><path fill="#2A2A2A" d="M221.584 281.881v36.979h-6.699v-30.461h-.217l-8.649 5.525v-6.139l9.191-5.904h6.374Zm8.721 30.118v-5.327l15.691-24.791h8.343v24.611h4.73v5.507h-4.73v6.861h-6.393v-6.861h-17.641Zm17.714-5.507v-17.028h-.289l-10.563 16.739v.289h10.852Z"/><path fill="#5B5B5B" d="M217.498 339.225h13.377v1.428h-13.377v-1.428Zm5.586-2.73h1.596v3.423h-1.596v-3.423Zm0 10.059h1.407v8.337h-1.407v-8.337Zm-3.696-.126h1.449v2.205c0 2.352-.336 5.082-3.171 7.14-.231-.315-.756-.798-1.113-1.05 2.562-1.785 2.835-4.158 2.835-6.132v-2.163Zm2.751-6.426 1.638.504c-.798 1.512-1.785 3.297-2.583 4.431l-1.26-.462c.777-1.197 1.701-3.129 2.205-4.473Zm3.675 2.058 1.218-.693c1.512 1.281 3.192 3.108 3.948 4.389l-1.302.777c-.714-1.26-2.373-3.171-3.864-4.473Zm-8.043 2.037c2.73-.063 7.056-.231 11.172-.378l-.042 1.323c-3.948.231-8.085.441-10.962.567l-.168-1.512Zm-4.977-6.3.882-1.134c1.323.567 2.982 1.512 3.78 2.247l-.903 1.281c-.798-.756-2.415-1.764-3.759-2.394Zm-1.113 5.712.861-1.176c1.344.504 3.045 1.407 3.885 2.1l-.903 1.302c-.819-.714-2.478-1.659-3.843-2.226Zm.63 10.983c1.071-1.617 2.604-4.41 3.738-6.804l1.197.966c-1.029 2.226-2.415 4.893-3.57 6.846l-1.365-1.008Zm14.49-8.064h1.47v6.951c0 .42.021.63.126.735.063.063.21.084.336.084h.609c.168 0 .357-.021.441-.105.105-.063.168-.21.21-.546.042-.357.063-1.113.084-2.121.273.231.735.462 1.113.588-.021.924-.084 2.037-.21 2.415-.105.399-.273.651-.567.819-.231.147-.651.231-.987.231h-1.05c-.399 0-.861-.105-1.155-.357-.315-.294-.42-.63-.42-1.911v-6.783Zm8.232 6.51h14.826v1.554h-14.826v-1.554Zm6.447-16.338h1.617v17.22h-1.617V336.6Zm-7.224 10.479h1.596v8.736h-1.596v-8.736Zm14.763 0h1.617v8.673h-1.617v-8.673Zm-13.944-8.589h1.554v5.712h11.529v-5.712h1.638v7.245h-14.721v-7.245Z"/><defs><linearGradient id="a" x1="468.816" x2="468.816" y1="104.926" y2="196.576" gradientUnits="userSpaceOnUse"><stop stop-color="#8060FE"/><stop offset="1" stop-color="#626BFA"/></linearGradient><linearGradient id="c" x1="124.726" x2="106.795" y1="68.129" y2="99.184" gradientUnits="userSpaceOnUse"><stop stop-color="#FF980E"/><stop offset=".21" stop-color="#FF7139"/><stop offset=".36" stop-color="#FF5854"/><stop offset=".46" stop-color="#FF4F5E"/><stop offset=".69" stop-color="#FF3750"/><stop offset=".86" stop-color="#F92261"/><stop offset="1" stop-color="#F5156C"/></linearGradient><linearGradient id="d" x1="124.726" x2="106.795" y1="68.129" y2="99.184" gradientUnits="userSpaceOnUse"><stop stop-color="#FFF44F" stop-opacity=".8"/><stop offset=".09" stop-color="#FFF44F" stop-opacity=".7"/><stop offset=".75" stop-color="#FFF44F" stop-opacity="0"/></linearGradient><linearGradient id="e" x1="126.178" x2="126.178" y1="104.182" y2="65.707" gradientUnits="userSpaceOnUse"><stop stop-color="#3A8EE6"/><stop offset=".24" stop-color="#5C79F0"/><stop offset=".63" stop-color="#9059FF"/><stop offset="1" stop-color="#C139E6"/></linearGradient><linearGradient id="f" x1="119.637" x2="135.627" y1="65.567" y2="81.558" gradientUnits="userSpaceOnUse"><stop stop-color="#6E008B" stop-opacity=".5"/><stop offset=".5" stop-color="#C846CB" stop-opacity="0"/></linearGradient><linearGradient id="g" x1="134.121" x2="126.612" y1="85.348" y2="92.857" gradientUnits="userSpaceOnUse"><stop offset=".14" stop-color="#6A2BEA" stop-opacity="0"/><stop offset=".34" stop-color="#642DE4" stop-opacity=".03"/><stop offset=".55" stop-color="#5131D3" stop-opacity=".12"/><stop offset=".76" stop-color="#3139B7" stop-opacity=".27"/><stop offset=".98" stop-color="#054490" stop-opacity=".48"/><stop offset="1" stop-color="#00458B" stop-opacity=".5"/></linearGradient><linearGradient id="h" x1="122.076" x2="124.253" y1="91.805" y2="94.401" gradientUnits="userSpaceOnUse"><stop stop-color="#960E18" stop-opacity=".6"/><stop offset=".19" stop-color="#AC1624" stop-opacity=".48"/><stop offset=".58" stop-color="#E42C41" stop-opacity=".16"/><stop offset=".75" stop-color="#FF3750" stop-opacity="0"/></linearGradient></defs></svg>
