<svg xmlns="http://www.w3.org/2000/svg" width="620" height="450" fill="none" viewBox="0 0 620 450"><g clip-path="url(#a)"><rect width="620" height="450" fill="#ECDFFF" rx="15"/><mask id="c" fill="#fff"><path d="M531.528 137.926c5.841 0 10.575 4.734 10.575 10.575v70.5c0 5.84-4.734 10.575-10.575 10.575v-91.65Z"/></mask><path fill="url(#b)" d="M531.528 137.926c5.841 0 10.575 4.734 10.575 10.575v70.5c0 5.84-4.734 10.575-10.575 10.575v-91.65Z"/><path fill="#BFBFC7" d="M531.528 229.576h-11.75v11.75h11.75v-11.75Zm0-91.65v-11.75h-11.75v11.75h11.75Zm-1.175 10.575v70.5h23.5v-70.5h-23.5Zm12.925 81.075v-91.65h-23.5v91.65h23.5Zm-12.925-10.575c0-.649.526-1.175 1.175-1.175v23.5c12.33 0 22.325-9.995 22.325-22.325h-23.5Zm1.175-69.325a1.175 1.175 0 0 1-1.175-1.175h23.5c0-12.33-9.995-22.325-22.325-22.325v23.5Z" mask="url(#c)"/><path fill="#F9F9FA" stroke="#BFBFC7" stroke-miterlimit="10" stroke-width="9.4" d="M471.296 38.3H128.664c-30.63 0-55.46 24.83-55.46 55.46v697.952c0 30.63 24.83 55.461 55.46 55.461h342.632c30.629 0 55.46-24.831 55.46-55.461V93.76c0-30.63-24.831-55.46-55.46-55.46Z"/><path fill="url(#d)" d="m201.244 104.384-4.005-2.294-9.144-5.236-.284-.163a4.888 4.888 0 0 0-4.836 0l-.284.165-12.858 7.365-.284.165a4.804 4.804 0 0 0-2.418 4.157v15.382a4.81 4.81 0 0 0 2.418 4.159l13.146 7.528a2.025 2.025 0 0 0 2.755-.731 1.99 1.99 0 0 0-.738-2.734l-12.858-7.363a1.372 1.372 0 0 1-.692-1.189v-14.722c.001-.492.265-.946.692-1.189l2.276-1.304 10.568-6.065a1.395 1.395 0 0 1 1.379 0l12.862 7.366c.425.245.688.697.69 1.188v14.732a1.374 1.374 0 0 1-.693 1.189l-4.351 2.492-2.196-3.312a10.336 10.336 0 0 0 3.483-7.734c0-5.736-4.703-10.403-10.486-10.403s-10.487 4.667-10.487 10.403c0 5.736 4.704 10.403 10.487 10.403a10.495 10.495 0 0 0 3.54-.612l3.335 5.029c.052.077.109.151.17.221l.035.035c.07.076.147.146.229.209.02.016.038.033.06.049.09.065.185.123.284.173l.069.03c.088.04.179.074.273.101l.062.02c.106.027.214.045.323.053h.182c.061 0 .122-.007.182-.013h.084c.115-.016.228-.042.339-.077.029-.008.058-.021.088-.033.088-.032.173-.07.256-.113.018-.01.04-.016.058-.027l6.289-3.595a4.809 4.809 0 0 0 2.418-4.164v-15.384a4.803 4.803 0 0 0-2.418-4.157Zm-22.312 11.852a6.453 6.453 0 1 1 6.454 6.4 6.434 6.434 0 0 1-6.454-6.4Z"/><path fill="url(#e)" d="m201.244 104.384-4.005-2.294-9.144-5.236-.284-.163a4.888 4.888 0 0 0-4.836 0l-.284.165-12.858 7.365-.284.165a4.804 4.804 0 0 0-2.418 4.157v15.382a4.81 4.81 0 0 0 2.418 4.159l13.146 7.528a2.025 2.025 0 0 0 2.755-.731 1.99 1.99 0 0 0-.738-2.734l-12.858-7.363a1.372 1.372 0 0 1-.692-1.189v-14.722c.001-.492.265-.946.692-1.189l2.276-1.304 10.568-6.065a1.395 1.395 0 0 1 1.379 0l12.862 7.366c.425.245.688.697.69 1.188v14.732a1.374 1.374 0 0 1-.693 1.189l-4.351 2.492-2.196-3.312a10.336 10.336 0 0 0 3.483-7.734c0-5.736-4.703-10.403-10.486-10.403s-10.487 4.667-10.487 10.403c0 5.736 4.704 10.403 10.487 10.403a10.495 10.495 0 0 0 3.54-.612l3.335 5.029c.052.077.109.151.17.221l.035.035c.07.076.147.146.229.209.02.016.038.033.06.049.09.065.185.123.284.173l.069.03c.088.04.179.074.273.101l.062.02c.106.027.214.045.323.053h.182c.061 0 .122-.007.182-.013h.084c.115-.016.228-.042.339-.077.029-.008.058-.021.088-.033.088-.032.173-.07.256-.113.018-.01.04-.016.058-.027l6.289-3.595a4.809 4.809 0 0 0 2.418-4.164v-15.384a4.803 4.803 0 0 0-2.418-4.157Zm-22.312 11.852a6.453 6.453 0 1 1 6.454 6.4 6.434 6.434 0 0 1-6.454-6.4Z"/><path fill="url(#f)" d="m201.243 104.384-4.005-2.294-5.587-3.198a4.308 4.308 0 0 0-4.16-.062l-2.795 1.485a1.395 1.395 0 0 1 1.379 0l12.862 7.366c.425.244.688.697.69 1.187v14.733a1.371 1.371 0 0 1-.693 1.189l-4.35 2.491.678 1.086a2.844 2.844 0 0 0 3.827.954l2.154-1.232a4.795 4.795 0 0 0 2.418-4.164v-15.384a4.793 4.793 0 0 0-2.418-4.157Z"/><path fill="url(#g)" d="M199.627 108.873v7.147h4.034v-7.479a4.793 4.793 0 0 0-2.418-4.157l-4.005-2.294-5.587-3.198a4.308 4.308 0 0 0-4.16-.062l-2.795 1.485a1.395 1.395 0 0 1 1.379 0l12.862 7.366c.427.245.69.7.69 1.192Z"/><path fill="url(#h)" d="M199.627 117.17v6.431a1.37 1.37 0 0 1-.693 1.189l-4.351 2.492.679 1.085a2.844 2.844 0 0 0 3.827.954l2.154-1.232a4.797 4.797 0 0 0 2.418-4.164v-6.755h-4.034Z" opacity=".9"/><path fill="url(#i)" d="m194.276 126.815-1.887-2.845a10.499 10.499 0 0 1-3.464 2.057l2.007 3.028a88.1 88.1 0 0 0 3.344-2.24Z" opacity=".9"/><path fill="#000" d="M220.438 126.31v-20.078h4.296l6.225 11.339 6.195-11.339h4.326v20.078h-4.326v-12.509l-6.195 11.34-6.225-11.34v12.509h-4.296Zm32.266.351c-4.501 0-8.271-3.624-8.271-7.921 0-4.296 3.77-7.89 8.271-7.89 4.471 0 8.212 3.594 8.212 7.89 0 4.297-3.741 7.921-8.212 7.921Zm0-3.595c2.25 0 4.149-1.988 4.149-4.326 0-2.338-1.899-4.296-4.149-4.296-2.28 0-4.18 1.958-4.18 4.296s1.9 4.326 4.18 4.326Zm10.218 3.244v-3.01l7.599-8.476h-7.394V111.2h12.946v3.011l-7.598 8.475h7.657v3.624h-13.21Zm18.151-17.185a2.326 2.326 0 0 1-2.338-2.338c0-1.198 1.023-2.279 2.338-2.279 1.257 0 2.28 1.081 2.28 2.279 0 1.286-1.023 2.338-2.28 2.338Zm-2.162 17.185V111.2h4.267v15.11h-4.267Zm7.783 0v-20.429h4.267v20.429h-4.267Zm7.782 0v-20.429h4.267v20.429h-4.267Zm14.534-15.46c3.945 0 6.634 2.484 6.634 6.429v9.031h-4.121v-1.52c-1.081 1.228-2.805 1.871-4.442 1.871-3.215 0-5.699-1.929-5.699-4.823 0-2.981 2.776-5.026 6.284-5.026 1.227 0 2.571.263 3.857.759v-.292c0-1.607-.993-3.01-3.478-3.01-1.402 0-2.717.468-3.916 1.081l-1.432-2.835c2.134-1.081 4.209-1.665 6.313-1.665Zm-.965 12.859c1.637 0 3.186-.76 3.478-2.163v-1.403a9.574 9.574 0 0 0-3.244-.555c-1.549 0-2.776.906-2.776 2.133 0 1.228 1.081 1.988 2.542 1.988Zm19.612 2.601v-20.078h2.952l7.044 13.122 7.043-13.122h2.952v20.078h-2.952v-14.291l-7.043 13.122-7.044-13.122v14.291h-2.952Zm31.183.351c-4.325 0-7.979-3.624-7.979-7.921 0-4.296 3.654-7.89 7.979-7.89 4.296 0 7.92 3.594 7.92 7.89 0 4.297-3.624 7.921-7.92 7.921Zm0-2.514c2.718 0 5.027-2.455 5.027-5.407 0-2.922-2.309-5.377-5.027-5.377-2.776 0-5.085 2.455-5.085 5.377 0 2.952 2.309 5.407 5.085 5.407Zm18.365-13.297c3.332 0 5.67 2.425 5.67 5.845v9.615h-2.835v-9.118c0-2.251-1.432-3.829-3.478-3.829-2.104 0-3.916 1.374-4.15 3.156v9.791h-2.893V111.2h2.893v2.192c.906-1.49 2.747-2.542 4.793-2.542Zm10.615-2.163a1.759 1.759 0 0 1-1.754-1.754c0-.905.76-1.724 1.754-1.724.935 0 1.724.819 1.724 1.724 0 .936-.789 1.754-1.724 1.754Zm-1.461 17.623V111.2h2.893v15.11h-2.893Zm13.525-2.718 1.052 1.987a4.865 4.865 0 0 1-3.01 1.082c-2.338 0-3.975-1.696-3.975-4.121v-8.885h-2.28V111.2h2.28v-4.15h2.835v4.15h3.565v2.455h-3.565v8.68c0 1.052.701 1.812 1.549 1.812.643 0 1.227-.234 1.549-.555Zm10.535 3.069c-4.326 0-7.979-3.624-7.979-7.921 0-4.296 3.653-7.89 7.979-7.89 4.296 0 7.92 3.594 7.92 7.89 0 4.297-3.624 7.921-7.92 7.921Zm0-2.514c2.718 0 5.026-2.455 5.026-5.407 0-2.922-2.308-5.377-5.026-5.377-2.777 0-5.086 2.455-5.086 5.377 0 2.952 2.309 5.407 5.086 5.407Zm13.718-10.053c.965-1.988 3.01-3.244 5.611-3.244v2.513c-3.127 0-5.348 1.724-5.611 4.355v8.592h-2.893V111.2h2.893v2.894Z"/><path fill="#fff" d="M96.406 175.79a5.65 5.65 0 0 1 5.65-5.649h395.74a5.649 5.649 0 0 1 5.649 5.649v486.072a5.65 5.65 0 0 1-5.649 5.65h-395.74a5.65 5.65 0 0 1-5.65-5.65V175.79Z"/><path stroke="#000" stroke-opacity=".1" stroke-width=".706" d="M102.056 169.788a6.002 6.002 0 0 0-6.003 6.002v486.072a6.003 6.003 0 0 0 6.003 6.003h395.74a6.003 6.003 0 0 0 6.002-6.003V175.79a6.002 6.002 0 0 0-6.002-6.002h-395.74Z"/><path fill="#000" d="M134.95 303.075h3.675v11.55c0 3.325-2.875 5.675-6.95 5.675-2.275 0-4.425-.725-5.7-1.725L127.25 316c.85.75 2.35 1.225 3.85 1.225 2.35 0 3.85-1.075 3.85-2.75v-1.425a5.5 5.5 0 0 1-4.275 2c-3.25 0-5.725-2.55-5.725-6.15 0-3.6 2.475-6.125 5.725-6.125 1.75 0 3.4.825 4.275 2.05v-1.75Zm-3.125 8.9c1.825 0 3.125-1.275 3.125-3.075 0-1.8-1.3-3.05-3.125-3.05s-3.125 1.25-3.125 3.05c0 1.8 1.3 3.075 3.125 3.075Zm10.01 4.025v-17.475h3.65V316h-3.65Zm12.611-13.225c3.375 0 5.675 2.125 5.675 5.5V316h-3.525v-1.3c-.925 1.05-2.4 1.6-3.8 1.6-2.75 0-4.875-1.65-4.875-4.125 0-2.55 2.375-4.3 5.375-4.3 1.05 0 2.2.225 3.3.65v-.25c0-1.375-.85-2.575-2.975-2.575-1.2 0-2.325.4-3.35.925l-1.225-2.425c1.825-.925 3.6-1.425 5.4-1.425Zm-.825 11c1.4 0 2.725-.65 2.975-1.85v-1.2a8.176 8.176 0 0 0-2.775-.475c-1.325 0-2.375.775-2.375 1.825 0 1.05.925 1.7 2.175 1.7Zm14.427 2.525c-2.075 0-4.275-.7-5.825-1.95l1.575-2.525c1.15.825 2.6 1.45 4.325 1.45.975 0 1.675-.4 1.675-.975 0-.8-.95-1.05-2.275-1.4-2.65-.65-4.7-1.375-4.725-3.925-.025-2.45 2-4.2 5.05-4.2 1.85 0 3.675.65 5.1 1.6l-1.475 2.6c-1.175-.725-2.525-1.15-3.625-1.15-.9 0-1.525.325-1.525.775 0 .7.525.9 2.275 1.375 2.225.575 4.7 1.325 4.7 4.15 0 2.55-2.075 4.175-5.25 4.175Zm12.548 0c-2.075 0-4.275-.7-5.825-1.95l1.575-2.525c1.15.825 2.6 1.45 4.325 1.45.975 0 1.675-.4 1.675-.975 0-.8-.95-1.05-2.275-1.4-2.65-.65-4.7-1.375-4.725-3.925-.025-2.45 2-4.2 5.05-4.2 1.85 0 3.675.65 5.1 1.6l-1.475 2.6c-1.175-.725-2.525-1.15-3.625-1.15-.9 0-1.525.325-1.525.775 0 .7.525.9 2.275 1.375 2.225.575 4.7 1.325 4.7 4.15 0 2.55-2.075 4.175-5.25 4.175Zm13.799-3.225c1.025 0 2.275-.475 2.975-1.15l2.325 2.375c-1.15 1.2-3.375 2-5.275 2-3.85 0-6.85-2.825-6.85-6.8 0-3.9 2.875-6.725 6.65-6.725 4.05 0 6.425 3.075 6.425 7.95h-9.325c.425 1.4 1.55 2.35 3.075 2.35ZM194.37 306c-1.375 0-2.525.8-3 2.1h5.775c-.35-1.275-1.3-2.1-2.775-2.1Zm13.595 10.3c-2.075 0-4.275-.7-5.825-1.95l1.575-2.525c1.15.825 2.6 1.45 4.325 1.45.975 0 1.675-.4 1.675-.975 0-.8-.95-1.05-2.275-1.4-2.65-.65-4.7-1.375-4.725-3.925-.025-2.45 2-4.2 5.05-4.2 1.85 0 3.675.65 5.1 1.6l-1.475 2.6c-1.175-.725-2.525-1.15-3.625-1.15-.9 0-1.525.325-1.525.775 0 .7.525.9 2.275 1.375 2.225.575 4.7 1.325 4.7 4.15 0 2.55-2.075 4.175-5.25 4.175Zm17.348-17.775h3.65V316h-3.65v-1.85c-1.025 1.35-2.525 2.15-4.35 2.15-3.45 0-5.95-2.8-5.95-6.775 0-3.95 2.5-6.75 5.95-6.75 1.825 0 3.325.8 4.35 2.15v-6.4Zm-3.3 14.7c1.925 0 3.3-1.525 3.3-3.7 0-2.15-1.375-3.675-3.3-3.675-2.025 0-3.45 1.525-3.45 3.675 0 2.175 1.425 3.7 3.45 3.7Zm16.504 3.075c-3.85 0-7.075-3.1-7.075-6.775 0-3.675 3.225-6.75 7.075-6.75 3.825 0 7.025 3.075 7.025 6.75s-3.2 6.775-7.025 6.775Zm0-3.075c1.925 0 3.55-1.7 3.55-3.7s-1.625-3.675-3.55-3.675c-1.95 0-3.575 1.675-3.575 3.675 0 2 1.625 3.7 3.575 3.7Zm16.295-.425.875 2.375c-.75.675-1.925 1.125-2.975 1.125-2.275 0-3.875-1.625-3.875-3.95v-6.325h-1.775v-2.95h1.775v-3.55h3.5v3.55h2.8v2.95h-2.8v5.75c0 .85.55 1.45 1.225 1.45.5 0 1-.175 1.25-.425Zm9.486 3.5c-3.825 0-7.05-3.1-7.05-6.775 0-3.675 3.25-6.75 7.075-6.75 2.1 0 3.825.85 5.075 2.2l-2.425 2.075c-.65-.725-1.675-1.2-2.675-1.2-1.9 0-3.5 1.675-3.5 3.65 0 2.025 1.6 3.725 3.525 3.725 1 0 2.05-.5 2.725-1.25l2.425 2.05c-1.275 1.4-3.025 2.275-5.175 2.275Zm13.453 0c-3.85 0-7.075-3.1-7.075-6.775 0-3.675 3.225-6.75 7.075-6.75 3.825 0 7.025 3.075 7.025 6.75s-3.2 6.775-7.025 6.775Zm0-3.075c1.925 0 3.55-1.7 3.55-3.7s-1.625-3.675-3.55-3.675c-1.95 0-3.575 1.675-3.575 3.675 0 2 1.625 3.7 3.575 3.7Zm24.87-10.45c2.7 0 4.775 2.075 4.775 5v8.25h-3.5V308.4c0-1.5-.95-2.55-2.3-2.55-1.45 0-2.5.975-2.5 2.35v7.825h-3.5V308.4c0-1.5-.95-2.55-2.275-2.55-1.475 0-2.5.975-2.5 2.35v7.8h-3.65v-12.925h3.65v1.7c.625-1.225 1.9-2 3.5-2 1.775 0 3.3.9 4.1 2.35.675-1.425 2.275-2.35 4.2-2.35Zm9.917 13.525a2.32 2.32 0 0 1-2.325-2.325c0-1.175 1.025-2.225 2.325-2.225 1.225 0 2.225 1.05 2.225 2.225 0 1.275-1 2.325-2.225 2.325Zm11.501 0c-3.825 0-7.05-3.1-7.05-6.775 0-3.675 3.25-6.75 7.075-6.75 2.1 0 3.825.85 5.075 2.2l-2.425 2.075c-.65-.725-1.675-1.2-2.675-1.2-1.9 0-3.5 1.675-3.5 3.65 0 2.025 1.6 3.725 3.525 3.725 1 0 2.05-.5 2.725-1.25l2.425 2.05c-1.275 1.4-3.025 2.275-5.175 2.275Zm13.453 0c-3.85 0-7.075-3.1-7.075-6.775 0-3.675 3.225-6.75 7.075-6.75 3.825 0 7.025 3.075 7.025 6.75s-3.2 6.775-7.025 6.775Zm0-3.075c1.925 0 3.55-1.7 3.55-3.7s-1.625-3.675-3.55-3.675c-1.95 0-3.575 1.675-3.575 3.675 0 2 1.625 3.7 3.575 3.7Zm24.87-10.45c2.7 0 4.775 2.075 4.775 5v8.25h-3.5V308.4c0-1.5-.95-2.55-2.3-2.55-1.45 0-2.5.975-2.5 2.35v7.825h-3.5V308.4c0-1.5-.95-2.55-2.275-2.55-1.475 0-2.5.975-2.5 2.35v7.8h-3.65v-12.925h3.65v1.7c.625-1.225 1.9-2 3.5-2 1.775 0 3.3.9 4.1 2.35.675-1.425 2.275-2.35 4.2-2.35Zm28-3.9c-.35 2.55-.85 5.475-1.725 8.425-1.5 5.05-3.65 8.15-6.375 8.15-2.8 0-5.1-3.075-5.1-7.3 0-5.75 5.025-10.7 11.5-10.7 6.175 0 10.1 4.3 10.1 9.775 0 5.25-3.225 8.975-9.525 9.95l-1.9-2.95c.975-.125 1.675-.25 2.35-.4 3.175-.775 5.675-3.05 5.675-6.725 0-3.925-2.45-6.725-6.775-6.725-5.3 0-8.2 4.325-8.2 7.475 0 2.525 1 3.75 1.95 3.75 1.075 0 2.025-1.6 3.075-4.975.725-2.35 1.275-5.225 1.525-7.85l3.425.1Zm30.25-.85c0 .8.65 1.45 1.45 1.45.775 0 1.425-.65 1.425-1.45 0-.8-.65-1.45-1.425-1.45-.8 0-1.45.65-1.45 1.45Zm-1.55 0c0-1.65 1.35-3 3-3 1.625 0 2.975 1.35 2.975 3s-1.35 3-2.975 3c-1.65 0-3-1.35-3-3Zm-13.675 10.2c1.1-2.775 2.05-6.3 2.375-9.5l3.625.775c-.2.7-.5 1.925-.6 2.5-.35 1.75-1.25 5.175-2.125 7.5-.9 2.425-2.375 5.275-3.675 7.15l-3.5-1.475c1.55-2.05 3.025-4.725 3.9-6.95Zm12.325-.5c-.95-2.625-2.55-6.325-3.625-8.225l3.325-1.075c1.05 1.925 2.75 5.775 3.7 8.175.9 2.275 2.225 6.25 2.9 8.725l-3.7 1.2c-.675-2.95-1.6-6.1-2.6-8.8Zm28.7-8.65c-.2.275-.65 1.025-.875 1.55-1.025 2.375-2.875 5.775-5.025 8.275-2.8 3.225-6.575 6.325-10.45 8.15l-2.6-2.7c4.05-1.5 7.9-4.55 10.25-7.15 1.65-1.875 3.175-4.35 3.75-6.125h-8.5c-1.025 0-2.4.125-2.95.175v-3.575c.675.1 2.225.175 2.95.175h8.825c1.1 0 2.075-.125 2.6-.3l2.025 1.525Zm-5.575 7.75c2.575 2.1 6.125 5.825 7.75 7.825l-2.85 2.475c-1.85-2.575-4.575-5.55-7.25-7.975l2.35-2.325ZM146.55 329.25c-.15.375-.4 1.35-.45 1.7-.45 2.6-1.025 6.25-2.975 9.275-2.075 3.25-5.475 5.75-9.5 7.15l-2.775-2.825c3.35-.85 7.225-2.9 9.175-6.025 1.275-2.025 2.025-4.825 2.275-7.5h-11.975v4.15c0 .375 0 1.275.075 2.05h-3.675c.075-.75.125-1.375.125-2.05V329.9c0-.675-.025-1.425-.1-2.075.775.05 1.9.075 3.05.075h11.95c.85 0 1.7-.05 2.375-.175l2.425 1.525Zm4.725 5.175c.925.075 2.725.175 4.025.175h13.425c1.175 0 2.275-.125 2.95-.175v3.95c-.6-.025-1.875-.15-2.925-.15H155.3c-1.4 0-3.075.075-4.025.15v-3.95Zm39.75-7.025c.7 1.05 1.725 2.65 2.275 3.8l-2.15.95c-.75-1.575-1.3-2.575-2.225-3.85l2.1-.9Zm3.275-1.35c.75 1 1.8 2.55 2.35 3.675l-2.1 1.05c-.8-1.6-1.4-2.525-2.325-3.75l2.075-.975Zm-13.225 17.925V329.6c0-.9-.1-2.125-.275-3h3.925c-.1.875-.225 1.975-.225 3v14.375c0 .725.125 2.475.225 3.475h-3.9c.15-.975.25-2.475.25-3.475Zm2.675-10.925c3.35.925 8.725 2.9 11.2 4.125l-1.425 3.45c-2.825-1.475-7.05-3.075-9.775-3.975v-3.6Zm30.025-4.175c-.35 2.55-.85 5.475-1.725 8.425-1.5 5.05-3.65 8.15-6.375 8.15-2.8 0-5.1-3.075-5.1-7.3 0-5.75 5.025-10.7 11.5-10.7 6.175 0 10.1 4.3 10.1 9.775 0 5.25-3.225 8.975-9.525 9.95l-1.9-2.95c.975-.125 1.675-.25 2.35-.4 3.175-.775 5.675-3.05 5.675-6.725 0-3.925-2.45-6.725-6.775-6.725-5.3 0-8.2 4.325-8.2 7.475 0 2.525 1 3.75 1.95 3.75 1.075 0 2.025-1.6 3.075-4.975.725-2.35 1.275-5.225 1.525-7.85l3.425.1Zm11.575-1.075h22.3v2.8h-22.3v-2.8Zm6.75 9h10.875v2.5H232.1v-2.5Zm-2.225-4.225h12.65v2.625h-9.675v13.025h-2.975v-15.65Zm12.05 0h2.925V345c0 1.475-.275 2.3-1.3 2.775-1 .45-2.425.475-4.45.475-.125-.825-.525-2.1-.925-2.875 1.3.075 2.775.05 3.2.05.4 0 .55-.125.55-.475v-12.375Zm-8.825-7.825 3.1.7c-1.75 5.65-4.75 11.4-9.625 14.8-.425-.675-1.375-1.75-1.975-2.325 4.45-2.925 7.25-8.3 8.5-13.175Zm-1 16.175h10.875v2.5H232.1v-2.5Zm18.025-13h12.25v2.675h-12.25v-2.675Zm4.725-3.025h2.925v4.125h-2.925V324.9Zm-2.275 6.225 2.825.725c-.85 2.15-2.275 4.35-3.725 5.725-.5-.5-1.65-1.375-2.3-1.775 1.375-1.15 2.55-2.9 3.2-4.675Zm4.7 4.175 2.95.625c-1.6 5.475-4.575 9.7-8.725 12.3-.4-.625-1.4-1.875-2.025-2.425 3.925-2.1 6.55-5.775 7.8-10.5Zm.1-3.35 2.3-1.15c1.2 1.4 2.475 3.3 2.975 4.625l-2.5 1.3c-.45-1.3-1.65-3.3-2.775-4.775Zm-5.3 6.4 1.7-2.075c2.625 1.9 6 4.7 7.475 6.675l-1.875 2.45c-1.4-2.025-4.65-5-7.3-7.05Zm10.125-8.05h8.75v2.825h-8.75V330.3Zm7.625 0h2.775v1.3c-.2 10.35-.425 14-1.225 15.15-.55.825-1.125 1.1-1.975 1.25-.775.125-1.975.125-3.175.1-.05-.825-.375-2.025-.85-2.825 1.125.1 2.125.125 2.625.125.375 0 .625-.1.875-.425.55-.75.775-4.325.95-14.075v-.6Zm-5.175-5.175h2.875c-.05 10.1-.1 18.4-5.35 23.2-.475-.7-1.425-1.7-2.125-2.175 4.8-4.25 4.575-11.6 4.6-21.025Zm24.7.775h6.475v2.7h-6.475v-2.7Zm0 5.65h6.475v2.625h-6.475v-2.625Zm0 5.7h6.5v2.675h-6.5v-2.675Zm5.175-11.35h2.9v19.05c0 1.45-.275 2.275-1.175 2.725-.875.475-2.15.55-4.025.55-.075-.8-.475-2.1-.85-2.85 1.075.05 2.3.05 2.65.025.375 0 .5-.125.5-.5v-19Zm-6.4 0h2.8v9.175c0 3.95-.325 9.675-2.45 13.225-.5-.525-1.725-1.4-2.375-1.7 1.875-3.2 2.025-7.95 2.025-11.525V325.9Zm-13.1 1.825h12.25v2.6h-12.25v-2.6Zm3.275 4.075h5.95v2.3h-5.95v-2.3Zm0 3.9h5.975v2.275H278.3V335.7Zm-3.575 3.95H287.1v2.625h-12.375v-2.625Zm2.275-14.6h2.7v15.55H277v-15.55Zm5.825 0h2.75v15.55h-2.75v-15.55Zm-4.975 17.4 2.825.825c-.925 1.85-2.4 3.8-3.725 5.025-.575-.5-1.725-1.35-2.425-1.75 1.35-1.025 2.625-2.575 3.325-4.1Zm3.7 1.125 2.275-1.25c1 1.1 2.275 2.625 2.85 3.65l-2.425 1.425c-.5-1-1.7-2.65-2.7-3.825Zm30.075-13.1h8.625v2.45h-8.625v-2.45Zm-4.3 14.475c2.275-.325 5.775-.95 9.125-1.55l.225 2.6c-2.9.675-5.975 1.35-8.35 1.875l-1-2.925Zm2.6-19.05h2.925v19.75h-2.925V325.9Zm1.7 0h9.975v11.675h-9.975V335h7.025v-6.525h-7.025V325.9Zm5.225 9.975c.9 4.45 2.825 8.15 6.5 9.775-.65.575-1.525 1.75-1.95 2.525-4.025-2.125-5.975-6.375-7.05-11.9l2.5-.4Zm3.6 1.875 2.35 1.65c-1.375 1.3-2.975 2.7-4.225 3.6l-1.875-1.45c1.2-.975 2.825-2.55 3.75-3.8Zm-19.625-11.9h6.25v2.675h-3.45v19.75h-2.8V325.85Zm5.425 0h.525l.425-.1 2.025 1.175c-.675 2.175-1.575 4.95-2.35 6.9 1.65 1.95 1.975 3.675 1.975 5.125 0 1.675-.375 2.725-1.2 3.3-.4.3-.9.475-1.475.55-.475.075-1.125.075-1.725.05-.025-.75-.25-1.925-.675-2.675.475.05.825.05 1.15.05.275-.025.525-.075.75-.225.325-.225.45-.725.45-1.425 0-1.175-.375-2.725-1.85-4.425.725-2.25 1.575-5.8 1.975-7.4v-.9Zm29.1.6c-.15.65-.3 1.45-.425 2.075-.25 1.125-.55 2.675-.825 3.95-.825 3.525-2.825 10.65-5.45 14.875l-3.275-1.3c2.975-4 4.85-10.6 5.55-13.75.475-2.25.75-4.375.725-6.25l3.7.4Zm8.625 2.5c1.525 2.175 3.625 6.825 4.4 9.2l-3.175 1.475c-.65-2.775-2.425-7.175-4.225-9.4l3-1.275Zm-18.75 2.625c.9.05 1.75.025 2.675 0 2-.05 6.75-.6 8.6-.6 2.65 0 4.525 1.175 4.525 4.8 0 2.95-.375 7-1.425 9.15-.825 1.75-2.225 2.3-4.1 2.3-.975 0-2.15-.15-3-.35l-.55-3.3c.975.275 2.4.525 3.05.525.85 0 1.5-.25 1.875-1.075.7-1.4 1.025-4.45 1.025-6.9 0-2-.85-2.3-2.425-2.3-1.475 0-5.8.55-7.175.725-.725.1-2.025.275-2.775.4l-.3-3.375Zm18.3-6.075c.625.9 1.5 2.5 1.975 3.425l-2 .85c-.525-1.025-1.3-2.5-1.975-3.475l2-.8Zm2.95-1.15c.65.95 1.575 2.55 2.025 3.425l-2 .85c-.5-1.05-1.325-2.5-2-3.45l1.975-.825Zm12.5 2.275H371v2.875h-12.025v-2.875Zm10.7 0h3.1s-.025 1.15-.025 1.55c-.275 12.5-.525 16.875-1.475 18.225-.7 1.025-1.35 1.325-2.3 1.525-.9.175-2.275.15-3.625.1-.05-.85-.425-2.225-.95-3.1 1.3.125 2.475.125 3.05.125.475 0 .725-.125 1-.5.725-.925 1-5.45 1.225-17.175v-.75ZM349.5 332.45l10.675-2.025.475 2.7-10.65 2.1-.5-2.775Zm2.825-6.925h2.975v13.825c0 1.025.05 1.15.525 1.15h1.25c.475 0 .55-.575.625-3.275.625.525 1.85 1.05 2.65 1.25-.3 3.65-1 4.875-2.975 4.875h-2.1c-2.35 0-2.95-.925-2.95-4.025v-13.8Zm10.45 2.45h3c-.125 8.625-.4 16.2-7 20.425-.425-.8-1.35-1.875-2.125-2.425 6.05-3.625 6-10.225 6.125-18Zm35.6 16.725c-1.175 1.075-2.675 1.875-4.725 1.875-1.875 0-3.125-1.35-3.125-3.775 0-2.725.9-6.375.9-8.675 0-1.225-.625-1.825-1.7-1.825-2.325 0-6.05 3.675-8.05 6.225l-.025-3.85c1.525-1.6 5.7-5.35 9-5.35 2.7 0 3.925 1.6 3.925 3.7 0 2.575-.825 6.25-.825 8.85 0 .65.35 1.1.975 1.1.925 0 2.1-.65 3.225-1.775l.425 3.5ZM381.1 332.8c-1.125.125-3.5.425-5.15.675l-.325-3.225c.7.025 1.275.025 2.175-.025 1.575-.075 4.775-.55 5.9-.925l1 1.3c-.425.575-1.2 1.8-1.625 2.45l-1.45 4.7c-1.1 1.6-3.325 4.95-4.65 6.775l-1.95-2.75c1.575-1.95 4.575-5.9 5.825-7.875l.05-.65.2-.45Zm-.3-4.825c0-.7.025-1.45-.125-2.225l3.65.1c-.425 2-1.25 8.55-1.25 13.025 0 2.025 0 4.15.15 6.475.025.45.125 1.375.175 1.925h-3.425c.05-.575.075-1.45.075-1.85.025-2.425.05-4.1.125-7.225.075-2.225.625-9.225.625-10.225Zm33.125-2.175c-.075.5-.15 1.125-.175 1.775-.05 1.275-.075 4.825-.075 6.925 0 2.75.4 7.275.4 9.25 0 2.15-1.625 3.8-4.9 3.8-4 0-6.1-1.525-6.1-4.175 0-2.525 2.325-4.3 6.15-4.3 5.5 0 9.6 2.7 11.675 4.45l-1.8 2.8c-2.375-2.25-6-4.675-10.275-4.675-1.75 0-2.725.675-2.725 1.55 0 .95.875 1.525 2.6 1.525 1.325 0 2.225-.375 2.225-1.825 0-1.5-.275-5.975-.275-8.4 0-2.4.025-5.575.025-7 0-.45-.05-1.225-.15-1.7h3.4Zm-10.375 2.325c1.775.3 4.65.55 6.175.55 3.4 0 6.675-.175 10.325-.75l-.025 2.85c-2.55.35-6.525.65-10.275.65-1.6 0-4.5-.225-6.15-.425l-.05-2.875Zm-.15 5.4c1.65.3 4.7.475 6.025.475 4.625 0 7.85-.3 10.925-.7l-.025 2.95c-3.45.4-6.175.55-10.925.55-1.475 0-4.3-.125-5.95-.325l-.05-2.95Zm29.875-7.35c-.15 1.05-.275 2.35-.325 3.35-.125 2.7-.3 8.275-.3 11.375 0 2.525 1.5 3.35 3.45 3.35 4.125 0 6.725-2.375 8.55-5.1l2.275 2.775c-1.625 2.4-5.175 5.725-10.875 5.725-4.1 0-6.725-1.8-6.725-6.075 0-3.35.225-9.9.225-12.05 0-1.2-.1-2.4-.3-3.375l4.025.025Zm27.55-.125c-.175.7-.4 1.825-.525 2.375-.35 1.7-.975 4.75-1.65 7.3-.9 3.5-2.575 8.6-3.95 11.575l-3.475-1.175c1.475-2.525 3.375-7.75 4.325-11.25.625-2.35 1.2-5.1 1.375-6.575.125-.925.15-1.95.075-2.55l3.825.3Zm-6.375 3.75c3.05 0 6.575-.475 9.825-1.25v3.125c-3.1.725-7.025 1.15-9.85 1.15-1.225 0-2.15-.05-3.025-.1l-.1-3.125c1.3.15 2.125.2 3.15.2Zm7.85 3.825c1.4-.15 3.2-.25 4.825-.25a43.1 43.1 0 0 1 4.375.225l-.05 3c-1.275-.15-2.8-.325-4.3-.325-1.725 0-3.275.075-4.85.275v-2.925Zm1.35 6.275c-.175.725-.325 1.525-.325 2.075 0 1.1.725 1.925 3.425 1.925 1.675 0 3.4-.175 5.175-.5l-.125 3.175c-1.4.2-3.075.35-5.075.35-4.225 0-6.475-1.425-6.475-3.95 0-1.175.225-2.375.425-3.35l2.975.275Z"/><rect width="44.138" height="6.621" x="155" y="205" fill="#592ACB" rx="3.31"/><rect width="44.138" height="6.621" x="207.965" y="205" fill="#592ACB" rx="3.31"/><rect width="129.103" height="6.621" x="260.931" y="205" fill="#D9BFFF" rx="3.31"/><path fill="#592ACB" d="m266.93 225.16.595-.702c.702.397 1.669.993 2.159 1.364l-.596.807c-.477-.41-1.443-1.032-2.158-1.469Zm-.517 3.601.556-.715c.742.371 1.775.927 2.291 1.271l-.569.821c-.504-.37-1.536-.979-2.278-1.377Zm5.866 3.536.437-.464c.424.278.993.702 1.271.954l-.437.543c-.291-.292-.847-.729-1.271-1.033Zm-.026 1.827.45-.437c.437.318 1.006.768 1.271 1.059l-.45.517c-.292-.305-.848-.781-1.271-1.139Zm3.072-1.867.41-.45c.437.291 1.006.715 1.298.98l-.411.529c-.304-.291-.86-.741-1.297-1.059Zm-.08 1.801.437-.45c.437.304.993.754 1.284 1.033l-.436.516c-.292-.291-.861-.768-1.285-1.099Zm-8.686 1.761c.543-1.033 1.311-2.767 1.84-4.264l.808.53a58.062 58.062 0 0 1-1.748 4.264l-.9-.53Zm4.634-5.297h6.462v.782h-5.641v5.19h-.821v-5.972Zm-.503-5.72h7.283v2.953h-7.283v-.834h6.329v-1.285h-6.329v-.834Zm-.53 0h.927v3.827c0 2.277-.198 5.575-1.615 7.812-.172-.159-.556-.437-.795-.529 1.364-2.119 1.483-5.111 1.483-7.283v-3.827Zm7.177 5.72h.861v5.112c0 .423-.093.635-.384.754-.305.12-.795.12-1.576.12-.026-.199-.145-.49-.251-.702.543.026 1.019.013 1.165.013.146 0 .185-.04.185-.185v-5.112Zm-6.581-1.827h7.654v.821h-7.654v-.821Zm3.47.331h.847v7.402h-.847v-7.402Zm9.97-3.045h7.005v5.389h-7.005v-.861h6.052v-3.654h-6.052v-.874Zm-.543 0h.967v6.104h-.967v-6.104Zm.517 2.251h6.422v.847h-6.422v-.847Zm2.463-3.88h.993c-.066 6.462.913 11.215 2.886 11.215.411 0 .557-.49.649-1.986.199.199.556.411.795.49-.172 1.894-.517 2.437-1.497 2.437-2.939 0-3.8-5.443-3.826-12.156Zm3.217 7.442.967.357c-1.51 2.198-4.317 3.509-7.217 4.277a6.805 6.805 0 0 0-.582-.887c2.86-.622 5.548-1.814 6.832-3.747Zm-9.52-6.634.556-.715c.834.357 1.88.953 2.383 1.416l-.569.808c-.503-.476-1.523-1.112-2.37-1.509Zm-.702 3.601.543-.741c.847.318 1.92.887 2.45 1.324l-.57.821c-.516-.45-1.562-1.046-2.423-1.404Zm.397 6.926c.676-1.02 1.642-2.781 2.357-4.291l.755.609a52.673 52.673 0 0 1-2.251 4.317l-.861-.635Zm16.857-10.554c-.067.437-.106.901-.133 1.338-.053 1.496-.159 4.634-.159 6.607 0 1.457.914 1.96 2.172 1.96 2.423 0 3.8-1.351 4.753-2.728l.742.9c-.9 1.258-2.622 2.914-5.522 2.914-1.906 0-3.217-.782-3.217-2.953 0-1.96.132-5.31.132-6.7 0-.49-.04-.954-.119-1.338h1.351Zm14.592-.092c-.08.291-.173.794-.226 1.046-.198.953-.476 2.449-.847 3.773-.477 1.881-1.364 4.622-2.066 6.065l-1.152-.384c.795-1.377 1.722-4.065 2.225-5.932.318-1.218.662-2.887.755-3.575.053-.371.079-.821.053-1.099l1.258.106Zm-2.927 2.211c1.457 0 3.403-.239 5.045-.649v1.033c-1.642.371-3.641.596-5.071.596-.583 0-1.046-.014-1.536-.053l-.027-1.033c.623.079 1.099.106 1.589.106Zm4.184 1.814a26.876 26.876 0 0 1 2.424-.106c.768 0 1.575.026 2.29.106l-.026 1.006c-.689-.079-1.457-.159-2.238-.159-.821 0-1.642.053-2.45.146v-.993Zm.265 3.218c-.106.437-.185.847-.185 1.191 0 .623.357 1.232 2.238 1.232.874 0 1.774-.093 2.595-.252l-.04 1.059a17.78 17.78 0 0 1-2.569.186c-2.078 0-3.217-.636-3.217-1.947 0-.503.079-1.006.198-1.562l.98.093Zm16.221-6.065a.873.873 0 1 0 1.746.002.873.873 0 0 0-1.746-.002Zm-.609 0a1.48 1.48 0 0 1 1.483-1.483 1.48 1.48 0 0 1 1.483 1.483 1.48 1.48 0 0 1-1.483 1.483 1.48 1.48 0 0 1-1.483-1.483Zm-6.872 5.257c.582-1.377 1.125-3.39 1.31-4.913l1.179.239c-.093.291-.185.688-.252.966-.172.821-.635 2.781-1.191 4.145a20.118 20.118 0 0 1-1.96 3.641l-1.126-.477a17.462 17.462 0 0 0 2.04-3.601Zm6.528-.503c-.53-1.364-1.351-3.205-1.92-4.198l1.072-.357c.517.966 1.364 2.794 1.933 4.184a60.15 60.15 0 0 1 1.589 4.542l-1.178.37c-.331-1.337-.954-3.138-1.496-4.541Zm14.419-4.37a3.25 3.25 0 0 0-.317.569c-.53 1.311-1.536 3.165-2.635 4.383-1.483 1.655-3.377 3.231-5.469 4.185l-.848-.888c2.146-.821 4.092-2.41 5.456-3.919.9-1.02 1.867-2.595 2.211-3.694h-5.164c-.477 0-1.192.053-1.337.066v-1.192c.172.027.927.08 1.337.08h5.111c.424 0 .782-.04.993-.106l.662.516Zm-2.78 4.264c1.43 1.191 3.191 3.045 4.091 4.144l-.913.808c-.954-1.258-2.503-2.953-3.933-4.211l.755-.741Zm17.041-4.251c-.066.133-.159.49-.172.623-.238 1.562-.516 3.456-1.483 4.952-1.072 1.682-2.873 3.032-5.005 3.721l-.9-.901c1.946-.529 3.84-1.681 4.912-3.376.755-1.166 1.126-2.86 1.258-4.423h-7.296v2.648c0 .186 0 .517.027.848h-1.192c.026-.318.04-.596.04-.848v-2.833c0-.305-.014-.596-.04-.874.344.026.834.026 1.403.026h6.806c.279 0 .596-.013.835-.066l.807.503Zm2.98 3.099c.41.039 1.099.079 1.853.079h7.257c.662 0 1.125-.053 1.43-.079v1.297c-.278-.013-.834-.053-1.417-.053h-7.27c-.728 0-1.43.027-1.853.053v-1.297Zm20.59-3.787c.331.476.9 1.364 1.205 1.999l-.755.344a12.834 12.834 0 0 0-1.191-2.026l.741-.317Zm1.589-.662c.358.463.94 1.337 1.245 1.959l-.742.371a12.81 12.81 0 0 0-1.218-1.986l.715-.344Zm-6.237 9.189v-7.693a9.82 9.82 0 0 0-.106-1.377h1.298c-.04.397-.093.98-.093 1.377 0 2.066.014 7.071.014 7.693 0 .424.026 1.139.079 1.576h-1.284c.066-.424.092-1.073.092-1.576Zm.861-5.601c1.761.503 4.423 1.523 5.892 2.251l-.463 1.112c-1.51-.807-3.986-1.748-5.429-2.198v-1.165Zm-58.955 21.779c0-2.356.631-4.321 1.825-5.995h1.288c-.926 1.241-1.655 3.762-1.655 5.995 0 2.238.729 4.759 1.655 6h-1.288c-1.194-1.674-1.825-3.639-1.825-6Zm4.577 4.815v-1.053l3.258-3.376c1.035-1.096 1.543-1.707 1.543-2.558 0-.959-.743-1.561-1.721-1.561-1.039 0-1.707.677-1.702 1.711h-1.388c0-1.758 1.317-2.925 3.118-2.925 1.815 0 3.075 1.185 3.075 2.732 0 1.077-.503 1.928-2.266 3.71l-1.914 2.004v.07h4.335v1.246h-6.338Zm10.843-4.81c0 2.356-.63 4.321-1.824 5.995h-1.289c.927-1.241 1.655-3.762 1.655-5.995 0-2.238-.728-4.759-1.655-6h1.289c1.194 1.674 1.824 3.639 1.824 6Z"/><rect width="44.138" height="6.621" x="398.862" y="205" fill="#9E9E9E" rx="3.31"/><rect width="351" height="40" x="124" y="384" fill="#592ACB" rx="4"/><path fill="#fff" d="M254.335 398.61h7.155v1.725h-7.155v-1.725Zm-6.645-1.035h7.14v1.665h-7.14v-1.665Zm10.41-2.31h1.785v11.85c0 1.02-.195 1.53-.765 1.845-.57.315-1.455.375-2.715.375-.06-.525-.315-1.38-.57-1.935.84.045 1.65.045 1.92.045.255-.015.345-.09.345-.345v-11.835Zm-3.93 6.96 1.455-.705c.705.99 1.425 2.295 1.665 3.195l-1.56.795c-.225-.885-.87-2.265-1.56-3.285Zm-6.195-.87 1.26-1.02c1.8 1.905 3.93 4.485 4.8 6.27l-1.44 1.23c-.795-1.8-2.85-4.5-4.62-6.48Zm2.34-6.075h1.725v3.315h-1.725v-3.315Zm1.635 4.26 1.74.255c-.765 4.35-2.31 7.515-5.205 9.45-.225-.36-.855-1.095-1.215-1.41 2.715-1.59 4.08-4.455 4.68-8.295Zm16.47 2.07h1.77v5.235c0 .555.09.615.51.615h1.215c.45 0 .525-.36.585-2.415.375.3 1.125.6 1.59.72-.165 2.58-.6 3.315-2.01 3.315h-1.665c-1.605 0-1.995-.555-1.995-2.235v-5.235Zm-2.145 1.155 1.62.36c-.15 1.725-.435 3.705-1.11 4.92l-1.605-.705c.63-1.155.96-2.895 1.095-4.575Zm2.25-2.82 1.2-1.185c1.2.57 2.835 1.485 3.66 2.19l-1.305 1.335c-.735-.69-2.325-1.71-3.555-2.34Zm4.575 3.045 1.605-.63c.9 1.56 1.785 3.57 2.025 4.95l-1.77.72c-.195-1.35-.99-3.435-1.86-5.04Zm-4.065-7.725h1.875v2.73h-1.875v-2.73Zm-4.53 1.755h11.85v1.71h-11.85v-1.71Zm-.855 0h1.8v3.795c0 2.43-.225 6.15-1.59 8.505-.33-.3-1.125-.825-1.56-1.005 1.26-2.16 1.35-5.325 1.35-7.5v-3.795Zm18.915-.915c-.09.63-.165 1.41-.195 2.01-.075 1.62-.18 4.965-.18 6.825 0 1.515.9 2.01 2.07 2.01 2.475 0 4.035-1.425 5.13-3.06l1.365 1.665c-.975 1.44-3.105 3.435-6.525 3.435-2.46 0-4.035-1.08-4.035-3.645 0-2.01.135-5.94.135-7.23 0-.72-.06-1.44-.18-2.025l2.415.015Zm18.39-.225c-.045.3-.09.675-.105 1.065-.03.765-.045 2.895-.045 4.155 0 1.65.24 4.365.24 5.55 0 1.29-.975 2.28-2.94 2.28-2.4 0-3.66-.915-3.66-2.505 0-1.515 1.395-2.58 3.69-2.58 3.3 0 5.76 1.62 7.005 2.67l-1.08 1.68c-1.425-1.35-3.6-2.805-6.165-2.805-1.05 0-1.635.405-1.635.93 0 .57.525.915 1.56.915.795 0 1.335-.225 1.335-1.095 0-.9-.165-3.585-.165-5.04 0-1.44.015-3.345.015-4.2 0-.27-.03-.735-.09-1.02h2.04Zm-6.225 1.395c1.065.18 2.79.33 3.705.33 2.04 0 4.005-.105 6.195-.45l-.015 1.71c-1.53.21-3.915.39-6.165.39-.96 0-2.7-.135-3.69-.255l-.03-1.725Zm-.09 3.24c.99.18 2.82.285 3.615.285 2.775 0 4.71-.18 6.555-.42l-.015 1.77c-2.07.24-3.705.33-6.555.33-.885 0-2.58-.075-3.57-.195l-.03-1.77Zm17.925-4.41c-.09.63-.165 1.41-.195 2.01-.075 1.62-.18 4.965-.18 6.825 0 1.515.9 2.01 2.07 2.01 2.475 0 4.035-1.425 5.13-3.06l1.365 1.665c-.975 1.44-3.105 3.435-6.525 3.435-2.46 0-4.035-1.08-4.035-3.645 0-2.01.135-5.94.135-7.23 0-.72-.06-1.44-.18-2.025l2.415.015Zm17.955 2.385c-.06.3-.12.945-.12 1.47v2.295c0 1.23.21 3.855.21 4.83 0 1.095-.615 2.115-2.625 2.115-1.815 0-3.3-.765-3.3-2.355 0-1.44 1.23-2.37 3.405-2.37 2.64 0 4.875 1.455 6.06 2.565l-1.02 1.635c-1.185-1.215-3.045-2.715-5.265-2.715-.945 0-1.47.315-1.47.795 0 .435.54.78 1.365.78.675 0 1.005-.36 1.005-1.05 0-1.11-.15-3.105-.15-4.38v-2.115c0-.585-.06-1.215-.135-1.5h2.04Zm-.945 2.19c.705 0 2.94-.075 4.275-.225l.045 1.665c-1.32.105-3.585.18-4.305.18l-.015-1.62Zm17.685 2.415c0-.99-.765-1.785-2.175-1.785-1.65 0-3.15.495-3.9.72-.435.135-1.035.36-1.455.54l-.57-2.16c.51-.03 1.14-.15 1.635-.255 1.095-.24 2.775-.675 4.545-.675 2.37 0 4.035 1.35 4.035 3.69 0 3.225-2.985 5.205-7.155 5.79l-1.065-1.875c3.72-.42 6.105-1.635 6.105-3.99Zm-5.895-7.2c1.755.375 5.16.675 6.735.675l-.285 1.845c-1.755-.12-5.01-.42-6.735-.72l.285-1.8Z"/></g><defs><linearGradient id="b" x1="536.816" x2="536.816" y1="137.926" y2="229.576" gradientUnits="userSpaceOnUse"><stop stop-color="#8060FE"/><stop offset="1" stop-color="#626BFA"/></linearGradient><linearGradient id="d" x1="192.726" x2="174.795" y1="101.129" y2="132.183" gradientUnits="userSpaceOnUse"><stop stop-color="#FF980E"/><stop offset=".21" stop-color="#FF7139"/><stop offset=".36" stop-color="#FF5854"/><stop offset=".46" stop-color="#FF4F5E"/><stop offset=".69" stop-color="#FF3750"/><stop offset=".86" stop-color="#F92261"/><stop offset="1" stop-color="#F5156C"/></linearGradient><linearGradient id="e" x1="192.726" x2="174.795" y1="101.129" y2="132.183" gradientUnits="userSpaceOnUse"><stop stop-color="#FFF44F" stop-opacity=".8"/><stop offset=".09" stop-color="#FFF44F" stop-opacity=".7"/><stop offset=".75" stop-color="#FFF44F" stop-opacity="0"/></linearGradient><linearGradient id="f" x1="194.178" x2="194.178" y1="137.181" y2="98.705" gradientUnits="userSpaceOnUse"><stop stop-color="#3A8EE6"/><stop offset=".24" stop-color="#5C79F0"/><stop offset=".63" stop-color="#9059FF"/><stop offset="1" stop-color="#C139E6"/></linearGradient><linearGradient id="g" x1="187.637" x2="203.628" y1="98.566" y2="114.556" gradientUnits="userSpaceOnUse"><stop stop-color="#6E008B" stop-opacity=".5"/><stop offset=".5" stop-color="#C846CB" stop-opacity="0"/></linearGradient><linearGradient id="h" x1="202.121" x2="194.612" y1="118.347" y2="125.856" gradientUnits="userSpaceOnUse"><stop offset=".14" stop-color="#6A2BEA" stop-opacity="0"/><stop offset=".34" stop-color="#642DE4" stop-opacity=".03"/><stop offset=".55" stop-color="#5131D3" stop-opacity=".12"/><stop offset=".76" stop-color="#3139B7" stop-opacity=".27"/><stop offset=".98" stop-color="#054490" stop-opacity=".48"/><stop offset="1" stop-color="#00458B" stop-opacity=".5"/></linearGradient><linearGradient id="i" x1="190.076" x2="192.253" y1="124.805" y2="127.401" gradientUnits="userSpaceOnUse"><stop stop-color="#960E18" stop-opacity=".6"/><stop offset=".19" stop-color="#AC1624" stop-opacity=".48"/><stop offset=".58" stop-color="#E42C41" stop-opacity=".16"/><stop offset=".75" stop-color="#FF3750" stop-opacity="0"/></linearGradient><clipPath id="a"><rect width="620" height="450" fill="#fff" rx="15"/></clipPath></defs></svg>
