<svg width="24" height="24" xmlns="http://www.w3.org/2000/svg"><path d="M22.652 9.101l-.002-.007-.05-.179-.007-.026a10.922 10.922 0 00-.05-.166l-.01-.036a10.94 10.94 0 00-.117-.354l-.016-.045-.054-.15-.017-.045-.057-.15-.015-.038-.018-.045-.044-.11-.007-.016a10.98 10.98 0 00-.225-.507l-.016-.034-.059-.12-.035-.07-.054-.106-.042-.081-.054-.1c-.015-.028-.03-.057-.047-.086a10.957 10.957 0 00-.322-.546l-.052-.082a11.06 11.06 0 00-.063-.097l-.051-.077-.07-.102-.048-.07-.08-.113-.04-.058-.125-.167c-.319-.42-.667-.814-1.04-1.18-.26-.27-.538-.52-.83-.752a7.646 7.646 0 00-.526-.414 7.172 7.172 0 00-1.146-.701c-.097-.05-.193-.1-.29-.147a11.176 11.176 0 00-2.465-.871A10.336 10.336 0 0012.193 1c-.77-.003-1.53.075-2.251.226-1.567.33-2.944 1.006-3.815 1.852l.003-.002a.661.661 0 00-.003.003l.006-.005.006-.003-.004.003a.7.7 0 01.012-.008c.651-.39 1.55-.707 2.193-.869a8.963 8.963 0 01.48-.107h.005a9.72 9.72 0 01.107-.02c2.848-.52 5.886.331 8.001 2.354a7.42 7.42 0 011.193 1.459c1.35 2.188 1.222 4.94.17 6.563-.781 1.205-2.455 2.336-4.017 2.324a7.774 7.774 0 00.032.002c-.032 0-.064-.002-.096-.004-.776-.047-1.444-.233-2.001-.518-2.417-1.234-2.777-4.308-1.029-5.794-.58-.125-1.671.12-2.43 1.252-.682 1.017-.644 2.587-.224 3.701a5.948 5.948 0 01-.54-1.74C7.462 8.111 9.764 5.061 11.97 4.17l.047-.019.06-.023.106-.038c-.497-.433-1.297-.678-2.226-.704-1.28-.036-2.803.344-4.109 1.222a6.881 6.881 0 00-.37.268c-.015.01-.03.022-.044.033a7.286 7.286 0 00-.233.19l-.046.04c-.034.03-.069.06-.103.092l-.027.024a7.29 7.29 0 00-.124.115l-.044.042a7.292 7.292 0 00-.201.204l-.051.053a7.34 7.34 0 00-.072.078l-.046.05a7.37 7.37 0 00-.106.122l-.05.06-.059.071a7.452 7.452 0 00-.162.206l-.046.062-.057.077-.032.045c-.04.057-.079.113-.117.17l-.033.05a7.666 7.666 0 00-.15.236c-.01.015-.018.03-.027.046l-.06.102-.007.01a7.87 7.87 0 00-.143.26l-.002.004-.06.117-.017.034a8.1 8.1 0 00-.057.115l-.015.033a8.252 8.252 0 00-.236.547l-.008.02a8.473 8.473 0 00-.05.13c-.002.01-.006.018-.009.027l-.048.136-.001.004c-.035.1-.067.2-.098.302.039-.49.155-1.108.363-1.791l.004-.013.032-.102.008-.025.03-.094.012-.034a11.562 11.562 0 01.241-.66l.026-.066.03-.07.024-.061.033-.076.024-.057.036-.082.023-.052.04-.088.021-.046.048-.101.016-.034.061-.126.005-.01.069-.137c-.239.123-.497.329-.755.59a7.398 7.398 0 00-1.46 2.204c-.533 1.283-.8 2.759-.794 4.235.002.44.028.879.078 1.313l.008.07c.012.11.025.222.04.333l.002.023C1.99 19.035 6.524 23 11.985 23c6.098 0 11.041-4.943 11.041-11.041 0-.988-.13-1.946-.374-2.858z" fill="#000" fill-rule="nonzero"/></svg>