<svg viewBox="0 0 80 80" width="80" height="80" xmlns="http://www.w3.org/2000/svg"><path d="M0 0h80v80H0z"/><path d="M68.118 50.118h4.588v7.53h-14.47v-19.53c0-6-2-8.236-5.883-8.236-4.706 0-6.588 3.412-6.588 8.118v12h4.588v7.53h-14.47V38.117c0-6-2-8.236-5.883-8.236-4.706 0-6.588 3.412-6.588 8.118v12H30v7.53H8.824V50h4.588V30.588H8.824v-7.53h14.47v5.177c2.118-3.647 5.647-5.882 10.47-5.882 4.942 0 9.53 2.353 11.177 7.412 1.883-4.589 5.765-7.412 11.177-7.412C62.353 22.353 68 26.118 68 34.235v15.883z" fill="#fff"/></svg>
