<svg class="list-number" xmlns="http://www.w3.org/2000/svg" width="65" height="65" viewBox="0 0 65 65"><path class="circle" fill="#CCC" d="M33.29 59.43h-1.715c-12.8-.8-23.086-8.916-26.172-20.572-1.714-6.17-.914-13.714 1.943-19.885-1.028.23-2.17-.115-2.857-1.03-.915-1.256-.687-2.97.57-3.885C8.49 11.543 12.49 9.372 16.718 8c2.4-1.6 5.03-2.743 7.77-3.43 1.144-.228 2.287.344 2.974 1.258C36.375 5.372 45.517 8 52.49 15.2c3.313 3.428 8.8 10.514 8.57 19.886-.114 6.285-2.743 12-7.657 16.457C48.146 56.57 40.49 59.43 33.29 59.43zM19.23 13.028c-2.286 1.6-4.23 3.657-5.714 6.172-3.2 5.37-4.343 12.57-2.743 18.4C13.29 46.856 21.63 53.37 31.92 53.942c6.284.457 13.142-2.06 17.827-6.286 2.628-2.4 5.715-6.515 5.828-12.457.114-7.314-4.344-13.143-7.086-16-8-8.343-19.43-9.37-29.258-6.172z"/><path class="number" fill="#CCC" d="M32.26 47.886c-.228 0-.57 0-.8-.114-1.486-.457-2.285-1.942-1.828-3.43 1.6-5.37 3.428-13.713 4.228-20.57L30.203 25.6c-.114.114-.23.23-.457.23l-.57.342c-1.372.686-2.973.114-3.66-1.257-.685-1.37-.112-2.97 1.145-3.657l9.03-4.8c.914-.458 1.942-.458 2.743.113.8.573 1.37 1.487 1.257 2.4-.23 8.115-2.63 19.887-4.8 26.857-.344 1.26-1.373 2.06-2.63 2.06z"/></svg>
