<svg class="list-number" xmlns="http://www.w3.org/2000/svg" width="65" height="65" viewBox="0 0 65 65"><path class="circle" fill="#CCC" d="M41.94 29.028c-.798 0-1.687 0-2.62.003.607-3.44 1.187-6.88 1.705-10.288.23-1.485-.8-2.857-2.285-3.085-1.485-.23-2.855.8-3.085 2.286-.612 3.724-1.255 7.446-1.92 11.162-.43.01-.857.024-1.28.04-1.83 0-3.657.113-5.372.113l2.058-4.114c.343-.343.687-.8.8-1.257l.115-.57c.457-1.258-.23-2.63-1.486-3.2-1.26-.572-2.744 0-3.43 1.142-1.83 3.084-3.314 6.4-4.57 9.828-.23.912-.115 1.826.342 2.512.457.687 1.257 1.144 2.17 1.144h.23c2.515 0 5.942-.113 9.257-.113h.138c-.655 3.44-1.338 6.873-2.082 10.286-.343 1.485.57 2.856 2.058 3.2.23.113.342.113.57.113 1.145 0 2.286-.8 2.743-2.286.817-3.748 1.582-7.562 2.31-11.387 1.23-.022 2.385-.043 3.405-.043h.23c1.483 0 2.74-1.256 2.74-2.742s-1.254-2.744-2.74-2.744z"/><path class="number" fill="#CCC" d="M31.77 60c-2.058 0-4.114-.23-6.172-.57-10.972-2.287-19.77-10.858-21.486-20.916-1.257-7.885 1.83-17.142 7.43-23.885-1.258.228-2.63-.458-3.087-1.83-.457-1.37.23-2.97 1.714-3.428 4.342-1.486 8.57-2.515 12.8-3.2 3.656-1.486 8.686-2.857 12.228-1.943.688.228 1.372.685 1.715 1.256 10.742 1.142 19.77 7.314 22.628 15.77 3.43 9.944 1.372 20.688-5.6 28.688C48.113 56.457 40.113 60 31.77 60zm-7.543-48.57c-.8.342-1.6.685-2.287 1.142-8.23 4.8-13.942 16.23-12.57 25.144 1.256 7.77 8.457 14.742 17.143 16.457 8.685 1.714 17.256-1.144 23.084-7.657C55.312 40 57.025 31.314 54.17 23.2c-2.742-8.23-12.688-12.458-21.145-12.458h-.23c-2.854 0-5.597.23-8.568.687z"/></svg>
