<svg class="list-number" xmlns="http://www.w3.org/2000/svg" width="65" height="65" viewBox="0 0 65 65"><path class="circle" fill="#CCC" d="M32.484 47.77c-2.057 0-4-.456-5.714-1.485-2.97-1.715-5.143-4.686-5.6-8.113-.23-1.486.8-2.857 2.4-3.086 1.484-.23 2.856.8 3.084 2.4.23 1.714 1.258 3.2 2.743 4 1.486.8 3.543 1.027 5.485.342 1.83-.57 3.314-1.942 3.543-3.428.23-1.373-.57-2.63-1.485-3.314-1.257-1.03-3.085-1.715-5.028-2.4-1.256-.457-2.057-1.714-1.828-3.085.228-1.37 1.37-2.285 2.742-2.285 1.258 0 2.63-1.03 3.086-2.17.344-1.144 0-2.4-.8-2.973-.915-.572-2.515-.343-3.43.57-1.142 1.03-2.856.916-3.885-.228-1.03-1.143-.915-2.857.23-3.886 2.74-2.514 6.97-2.97 10.056-1.143 3.086 1.943 4.343 6.057 3.086 9.486-.458 1.144-1.03 2.058-1.83 2.972.458.343.915.57 1.258.914 2.63 2.287 3.886 5.486 3.313 8.572-.685 3.313-3.542 6.286-7.312 7.543-1.37.573-2.742.8-4.114.8z"/><path class="number" fill="#CCC" d="M31.913 61.943h-1.83c-9.028-.572-17.143-5.258-22.17-12.916C4.027 42.97 2.998 36.23 4.94 29.37c1.143-4.113 3.314-8.113 6.057-11.656-.57-.343-1.028-.8-1.257-1.372-.572-1.37.114-2.97 1.485-3.657 2.4-.914 4.572-1.714 6.743-2.4 3.886-3.43 8-6.17 11.77-7.886 1.372-.687 2.972-.115 3.658 1.37.687 1.373.114 3.086-1.37 3.658-.572.23-1.03.457-1.6.8 2.056-.114 4.227-.114 6.627 0 10.857.457 20.113 8 23.086 18.857 2.284 8 0 17.485-5.716 24.114-5.597 6.857-13.825 10.743-22.51 10.743zM20.713 15.2c-4.8 4.457-8.8 9.943-10.4 15.657-1.486 5.372-.8 10.4 2.286 15.086 4 6.17 10.513 10.057 17.828 10.514 7.542.457 14.856-2.742 20-8.686 4.457-5.257 6.286-12.913 4.57-19.085-2.398-8.457-9.6-14.4-18.057-14.857-6.285-.456-11.085 0-16.227 1.372z"/></svg>
