<svg class="callout-bg scribble-md" xmlns="http://www.w3.org/2000/svg" width="197" height="308" viewBox="0 0 197 308" overflow="visible"><path fill="#eee" d="M172.152 227.208l9.62-5.993c8.44-5.258 11.735-15.916 7.736-25.02-2.013-4.582-5.565-8.07-9.82-10.064 1.83-4.085 2.302-8.8 1.037-13.433-2.788-10.213-13.056-16.487-23.414-14.303l-25.47 5.36c14.573-7.482 29.412-14.493 44.09-21.427 8.903-4.206 13.42-14.266 10.65-23.714-2.2-7.496-8.47-12.838-15.843-14.09 3.982-1.22 8.065-2.43 12.257-3.63 9.977-2.857 16.11-12.87 14.124-23.057S185.682 60.67 175.364 61.78l-5.245.56c-.017-5.56-2.31-10.62-6.043-14.254-3.484-5.496-9.507-9.03-16.124-9.276 9.353-3.348 14.98-13.197 12.768-23.146C158.327 4.882 147.64-1.913 136.86.48c-31.583 7.018-69.287 22.43-98.4 40.22-7.5 4.584-11.127 13.527-8.94 22.04 1.376 5.363 4.86 9.76 9.44 12.382-2.186 1.005-4.373 2.02-6.557 3.06-8.806 4.185-13.31 14.11-10.662 23.494 2.65 9.384 11.677 15.492 21.373 14.455l2.484-.264c-12.415 7.385-24.516 15.242-36.856 23.65-8.33 5.675-11.133 16.662-6.543 25.636s15.143 13.13 24.62 9.695c8.072-2.925 15.576-5.498 22.62-7.77-9.524 7.038-18.696 14.607-27.346 22.822-6.485 6.16-8.092 15.88-3.933 23.8 3.004 5.72 8.486 9.495 14.597 10.46-6.51 5.953-8.396 15.575-4.42 23.615 3.356 6.786 10.14 10.935 17.393 11.13-7.417 5.417-10.238 15.28-6.64 23.87 3.792 9.05 13.59 14.017 23.128 11.717l16.437-3.957c.33 2.244 1.053 4.47 2.193 6.582 3.618 6.697 10.503 10.5 17.615 10.5 3.21 0 6.465-.775 9.488-2.408l74.86-40.437c8.84-4.774 12.765-15.367 9.17-24.75-3.158-8.25-11.257-13.33-19.826-12.815"/></svg>
