<svg class="callout-bg scribble-sm" xmlns="http://www.w3.org/2000/svg" width="183" height="218" viewBox="0 0 183 218" overflow="visible"><path fill="#eee" d="M182.303 105.386c-1.48-5.252-4.945-9.43-9.367-11.947 5.98-5.767 7.858-14.765 4.376-22.55-3.916-8.753-13.494-13.488-22.83-11.303l-.006.002c4.026-1.723 8.12-3.424 12.325-5.106 9.74-3.898 14.812-14.66 11.62-24.654-3.193-9.992-13.566-15.82-23.76-13.352l-7.03 1.703c-.058-.61-.143-1.226-.258-1.842C145.35 5.48 134.902-1.682 124.046.342c-34.705 6.47-103.96 41.42-111.74 45.385C5.325 49.282 1.06 56.587 1.4 64.415 1.74 72.242 6.62 79.15 13.88 82.09c.74.298 1.47.578 2.192.84-9.474 7.446-16.54 16.09-16.05 27.2.26 5.948 3.16 11.47 7.907 15.065 4.747 3.594 10.85 4.888 16.645 3.524l.064-.016c-.317 1.896-.368 3.87-.108 5.874.37 2.836 1.314 5.455 2.705 7.756-10.62 10.254-9.963 21.843-9.002 26.896 1.008 5.318 4.13 10 8.652 12.976 2.748 1.808 5.87 2.893 9.08 3.2 1.325 4.747 4.383 8.926 8.708 11.614 5.188 3.225 12.427 5.18 21.65 5.86.058.23.118.458.184.688 2.512 8.78 10.518 14.503 19.218 14.503 1.82 0 3.673-.25 5.51-.775 23.303-6.667 47.963-28.112 50.697-30.535 6.743-5.974 8.51-15.507 4.916-23.32 7.97-4.645 11.833-14.286 8.98-23.304-.544-1.72-1.302-3.32-2.235-4.774l16.118-5.695c9.94-3.51 15.448-14.134 12.59-24.28"/></svg>
