<svg class="callout-bg scribble-xsm" xmlns="http://www.w3.org/2000/svg" viewBox="0 0 209.3 176.8"><path fill="#eee" d="M203.6 93.9c-1.1-2.8-2.7-5.2-4.8-7.2l.6-.3c8.8-5.2 12.3-16.2 8.1-25.5-3-6.6-9.1-10.8-15.9-11.6 2.8-4.9 3.4-11 1.4-16.7-2-5.4-6-9.4-11-11.6.1-2.7-.3-5.4-1.3-8-3.2-8.6-11.9-13.8-21-12.8-20.8 2.4-85 9.2-132 12.5-11 .7-19.3 10.2-18.5 21.3.5 6.9 4.4 12.7 10 16l-2.6.5C5.7 52.6-1.3 63.1.9 74c.9 4.7 3.4 8.7 6.9 11.5-6.2 4.8-9.3 13.1-7 21.2 2.6 9.4 11.6 15.4 21 14.5-2.2 4.5-2.8 9.8-1.2 14.9 2.4 8 9.5 13.5 17.4 14.3.1.4.2.7.3 1.1 2.1 6.7 7.3 11.4 13.5 13.3 3.1 7.1 10.2 12 18.3 12h1.3c23.6-1.5 96.8-13.6 123.5-39.1 6-5.8 7.9-14.7 4.5-22.4-.1-.1-.1-.2-.2-.3 5.4-5.5 7.2-13.7 4.4-21.1z"/></svg>
