<svg class="callout-bg scribble-lg" xmlns="http://www.w3.org/2000/svg" width="200" height="350" viewBox="0 0 200 350" overflow="visible"><path fill="#eee" d="M199.173 244.3c-2.586-9.62-11.853-15.865-21.745-14.657-4.245.52-8.654 1.11-13.194 1.762 1.744-.84 3.473-1.68 5.184-2.52 7.563-3.703 11.81-11.612 11.125-19.65 5.826-4.56 8.9-12.17 7.264-19.894-.565-2.666-1.638-5.095-3.095-7.206l.14-.082c8.996-5.308 12.394-16.647 7.796-26.027-2.05-4.182-5.38-7.348-9.302-9.23.273-.23.548-.467.82-.7 7.11-6.1 9.032-16.316 4.628-24.583-4.405-8.267-13.956-12.37-22.984-9.872-27.73 7.672-50.765 13.19-72.477 18.213 35.97-11.798 66.494-19.787 74.246-21.77 10.7-2.737 17.157-13.63 14.42-24.332-1.645-6.426-6.23-11.322-11.95-13.615l.688-.27c9.2-3.622 14.377-13.423 12.177-23.063-2.2-9.64-11.12-16.23-20.977-15.495-.672.05-1.353.1-2.047.156 3.438-4.92 4.584-11.28 2.73-17.326C159.84 5.08 151.087-.79 141.655.087c-27.85 2.578-84.836 15.75-114.38 31.342-9.768 5.155-13.507 17.253-8.352 27.022.163.308.333.61.51.907-3.796 2.236-6.923 4.26-9.356 6.087-7.8 5.85-10.245 16.474-5.787 25.145 4.46 8.672 14.522 12.864 23.82 9.923 4.267-1.35 8.427-2.637 12.48-3.864-21.736 16.11-23.092 25.273-23.69 29.323-1.046 7.063 1.753 14.147 7.344 18.588.568.452 1.162.857 1.767 1.24-3.65.933-7.356 1.897-11.146 2.905C4.19 151.545-2.162 162.5.676 173.175c2.84 10.673 13.794 17.027 24.47 14.187 7.91-2.104 15.5-4.032 22.934-5.858-9.235 4.907-19.324 10.25-30.36 16.08-9.17 4.845-13.114 15.893-9.09 25.448 2.302 5.46 6.767 9.397 12.014 11.178-2.214 2.338-3.804 4.473-5.094 6.587-4.194 6.878-3.805 15.482.704 21.903-4.24 9.237-2.677 17.562-1.57 21.262 2.378 7.943 9.27 13.343 17.077 14.16 3.075 7.622 10.63 12.747 19.054 12.5 1.695-.042 3.37-.083 5.03-.122-.832.33-1.646.653-2.434.972-10.245 4.13-15.2 15.783-11.07 26.028 3.143 7.794 10.638 12.526 18.556 12.525 2.49 0 5.022-.468 7.472-1.456 25.733-10.377 78.948-27.852 103.527-33.998 9.405-2.35 15.77-11.108 15.102-20.78s-8.176-17.47-17.814-18.507l-1.113-.12c7.3-2.42 13.933-4.838 19.644-7.276 9.16-3.913 14.045-13.97 11.46-23.59"/></svg>
