<svg xmlns="http://www.w3.org/2000/svg" width="1024" height="1024" viewBox="0 0 1024 1024">
  <g fill="none" stroke="#FFF" stroke-miterlimit="10" stroke-width="2">
    <path d="M58.7 511.2C23.8 563.1 3.4 625.7 3.4 693c0 90.2 36.5 171.8 95.6 231M512.1 964.5c-52 34.9-114.5 55.2-181.9 55.2-90.3 0-172.1-36.6-231.2-95.8M965.5 511.1c34.9-52 55.2-114.5 55.2-181.8 0-90.3-36.6-172.1-95.8-231.2M512.1 57.7C564 22.9 626.6 2.5 693.9 2.5c90.2 0 171.8 36.5 231 95.6M965.5 511.1c34.9 52 55.2 114.5 55.2 181.9 0 180.5-146.3 326.8-326.8 326.8-67.3 0-129.9-20.4-181.8-55.2M512.1 964.5C424.7 905.9 367.2 806.1 367.2 693v-37" opacity=".1"/>
    <path d="M512.1 964.5C599.5 905.9 657 806.2 657 693v-37M965.5 511.1C906.9 423.7 807.2 366.2 694 366.2h-37M965.5 511.1C906.8 598.5 807.1 656 693.9 656H657M512.1 57.7c-52-34.9-114.5-55.2-181.8-55.2C149.7 2.5 3.4 148.8 3.4 329.3c0 67.3 20.4 129.9 55.2 181.9M366.9 656h-36.7C217 656 117.3 598.5 58.7 511.2M366.9 656h.3" opacity=".1"/>
    <path d="M367.2 366.2h-37c-113.1 0-212.9 57.5-271.5 144.9M657 366v.1M512.1 57.7C599.5 116.4 657 216.1 657 329.3V366M367.2 366.2v-36.9c0-113.2 57.5-212.9 144.9-271.5M657 366.2v-.1M367.2 366.2l289.6-.1M656.8 366.1h.2M367.2 655.8v.2" opacity=".1"/>
    <path d="M367.2 366.2h-.1l.1 289.6M367.2 656H657M657 366.2V656M656.7 366.2h.3M367.2 656v-.2M99 924l-97.9 97.8M924.9 98.1l93.5-93.5M924.9 98.1L657 366M99 924l267.9-268M656.8 366.1l.2-.1M656.8 366.1l-.1.1M656.7 366.2L367.2 655.8M367.2 655.8l-.3.2" opacity=".1"/>
  </g>
</svg>
