<svg fill="none" height="304" width="986" xmlns="http://www.w3.org/2000/svg"><path d="M349.519 262.734c12.063 0 20.44 8.332 20.44 20.163v4.165h-30.828c1.172 4.999 5.026 8.332 10.89 8.332s7.875-2.166 9.885-5.832l8.377 4.999c-4.189 6.165-10.22 9.331-18.596 9.331-12.901 0-20.608-8.498-20.608-20.329 0-11.331 8.377-20.829 20.44-20.829zm-224.427.035c11.734.001 20.844 9.111 20.844 20.481-.001 11.296-8.965 20.48-20.844 20.48-11.807 0-20.773-9.184-20.773-20.48 0-11.37 8.966-20.481 20.773-20.481zm295.129-.035c12.063 0 20.775 9.165 20.775 20.496s-9.215 20.495-20.775 20.495-20.774-8.997-20.775-20.495c0-11.331 8.712-20.496 20.775-20.496zM295.57 303.059h-10.22v-39.492h10.22zm-225.608-48.38h-1.677c-6.996 0-7.798 1.021-7.798 6.997v1.895h9.475v9.038h-9.475v30.319h-9.985v-30.319h-6.486v-9.038h6.486v-1.385c0-12.754 4.009-16.69 16.836-16.69h2.624zm27.044 8.163c2.624 0 4.956.656 6.633 1.531l-3.645 9.912c-1.093-.802-2.988-1.385-5.247-1.385-5.175 0-8.527 2.625-8.527 9.257v20.771h-9.986v-39.357h9.912v6.05c1.895-4.665 5.831-6.778 10.86-6.779zm100.862-.073c9.985 0 15.014 6.123 15.014 15.962v24.197h-10.35v-22.74c0-5.32-2.186-8.599-7.288-8.599-4.518 0-7.507 3.061-7.507 9.255v22.084H177.46v-23.031c0-5.247-2.186-8.308-7.069-8.308-4.738 0-7.726 3.134-7.726 9.474v21.865h-10.131v-39.357h10.058v4.665c2.405-3.425 6.195-5.467 10.932-5.467 5.904 0 9.913 2.406 12.027 6.633 2.478-4.081 6.924-6.633 12.317-6.633zm80.278-3.535h-25.634v13.164h25.634v9.499h-25.634v20.996h-10.22V249.57h35.854zm44.399 3.833c4.355 0 4.858.667 6.701 2l-4.356 9.331v.167c-1.173-1-3.183-1.833-4.859-1.833-4.188 0-6.534 2.666-6.534 8.331v21.83h-10.052V263.4h9.549v5.666c2.011-4.499 5.195-5.999 9.551-5.999zm75.059-7.998h-2.849c-4.691 0-5.696 1.666-5.696 6.498v2h8.545v8.998h-8.377v30.328h-9.718v-30.328h-7.205v-8.998h7.205v-2c0-10.664 4.524-15.163 14.576-15.163h3.519zm62.828 20.496 8.712-12.165h11.727l-14.575 19.163 15.246 20.163h-11.896l-9.55-12.831-9.214 12.831h-11.896l15.246-20.163.335.167-14.408-19.33h11.896zm-40.211-3.5c-6.199 0-10.89 4.833-10.89 11.165s4.691 11.164 10.89 11.164 10.89-4.832 10.89-11.164-4.691-11.165-10.89-11.165zm-295.057.107c-6.049 0-10.786 4.883-10.786 11.004 0 6.122 4.737 11.006 10.786 11.006 5.976 0 10.787-4.883 10.787-11.006 0-6.122-4.811-11.004-10.787-11.004zm224.355-.94c-5.362 0-8.88 2.667-10.22 7.832h20.775c-1.173-4.999-5.194-7.832-10.555-7.832zm-59.143-25.328c3.518 0 6.032 2.5 6.032 5.999s-2.346 5.998-6.032 5.998-6.031-2.5-6.031-5.832 2.681-6.165 6.031-6.165zM925.58 59.266c28.373 0 45.297 10.703 57.741 28.622l-31.359 12.694c-5.476-8.96-13.938-14.187-26.382-14.187-13.44 0-19.911 5.476-19.911 12.943 0 8.462 10.951 10.701 30.613 14.932 22.4 4.48 48.781 12.197 48.781 41.068 0 20.906-18.666 44.55-57.741 44.301-31.857 0-52.018-11.947-62.72-33.351l33.102-12.942c5.973 11.947 16.676 18.169 30.862 18.169 13.938 0 21.405-6.72 21.405-14.684 0-9.707-14.436-11.947-31.609-15.432-22.648-4.729-47.787-11.697-47.787-40.07 0-22.649 21.903-42.312 55.005-42.063zm-730.878.498c40.32 0 69.44 29.12 69.441 68.942v12.942H157.369c4.48 17.422 18.667 28.373 38.578 28.373 15.929 0 26.631-6.969 33.351-17.92l28.124 16.427c-13.44 18.915-32.355 31.111-61.973 31.111-43.306 0-71.182-30.613-71.182-69.688s30.364-70.187 70.435-70.187zm422.34 0c17.671 0 32.356 7.716 41.564 20.16V62.503h34.098V196.9h-34.098v-18.168c-9.457 13.191-24.64 20.906-42.062 20.906-33.102 0-64.711-27.129-64.711-69.937 0-42.809 30.862-69.938 65.209-69.938zm133.97 21.156c8.96-12.942 23.893-21.156 42.062-21.156 33.849 0 64.711 27.13 64.711 69.938 0 42.808-31.36 69.937-64.462 69.937-17.92 0-33.6-7.964-42.56-21.404v18.666h-33.849V.529h34.098zM135.745 47.57H85.719V196.9H51.123V47.569H.599V15.214h135.146zm219.432 12.194c31.857 0 52.017 20.907 52.017 56v81.137h-35.092v-75.91c0-19.164-9.21-31.111-27.378-31.111-16.178 0-28.622 11.947-28.622 32.853v74.168h-34.596v-134.4h34.347v16.926c8.711-12.196 22.648-19.663 39.324-19.663zM566.564 47.57h-50.026v149.332h-34.596V47.569h-50.524V15.214h135.146zm56.701 44.053c-20.658 0-37.334 16.675-37.334 37.831 0 21.155 16.676 37.831 37.334 37.831 21.155 0 37.333-16.925 37.333-37.831 0-20.907-16.178-37.831-37.333-37.831zm163.089 0c-21.156 0-37.333 16.924-37.333 37.831 0 20.906 16.177 37.831 37.333 37.831 20.657 0 37.084-16.676 37.084-37.831 0-21.156-16.427-37.831-37.084-37.831zm-591.652-2.737c-17.422 0-30.862 10.203-36.338 25.883h71.681c-4.48-16.675-17.423-25.883-35.343-25.883z" fill="#333336"/></svg>