<svg fill="none" height="304" viewBox="0 0 986 304" width="986" xmlns="http://www.w3.org/2000/svg"><path d="m349.519 262.734c12.063 0 20.44 8.332 20.44 20.163v4.165h-30.828c1.172 4.999 5.026 8.332 10.89 8.332s7.875-2.166 9.885-5.832l8.377 4.999c-4.189 6.165-10.22 9.331-18.596 9.331-12.901 0-20.608-8.498-20.608-20.329 0-11.331 8.377-20.829 20.44-20.829zm-224.427.035c11.734.001 20.844 9.111 20.844 20.481-.001 11.296-8.965 20.48-20.844 20.48-11.807 0-20.773-9.184-20.773-20.48 0-11.37 8.966-20.481 20.773-20.481zm295.129-.035c12.063 0 20.775 9.165 20.775 20.496s-9.215 20.495-20.775 20.495-20.774-8.997-20.775-20.495c0-11.331 8.712-20.496 20.775-20.496zm-124.651 40.325h-10.22v-39.492h10.22zm-225.6081-48.38h-1.6767c-6.9963 0-7.7979 1.021-7.7979 6.997v1.895h9.4746v9.038h-9.4746v30.319h-9.9853v-30.319h-6.4864v-9.038h6.4864v-1.385c0-12.754 4.0088-16.69 16.8359-16.69h2.624zm27.044 8.163c2.6237 0 4.9561.656 6.6331 1.531l-3.6449 9.912c-1.0932-.802-2.988-1.385-5.247-1.385-5.1746 0-8.5274 2.625-8.5274 9.257v20.771h-9.9853v-39.357h9.9121v6.05c1.8949-4.665 5.8307-6.778 10.8594-6.779zm100.8621-.073c9.985 0 15.014 6.123 15.014 15.962v24.197h-10.35v-22.74c0-5.32-2.186-8.599-7.288-8.599-4.518 0-7.507 3.061-7.507 9.255v22.084h-10.277v-23.031c0-5.247-2.186-8.308-7.069-8.308-4.738 0-7.726 3.134-7.726 9.474v21.865h-10.131v-39.357h10.058v4.665c2.405-3.425 6.195-5.467 10.932-5.467 5.904 0 9.913 2.406 12.027 6.633 2.478-4.081 6.924-6.633 12.317-6.633zm80.278-3.535h-25.634v13.164h25.634v9.499h-25.634v20.996h-10.22v-53.323h35.854zm44.399 3.833c4.355 0 4.858.667 6.701 2l-4.356 9.331v.167c-1.173-1-3.183-1.833-4.859-1.833-4.188 0-6.534 2.666-6.534 8.331v21.83h-10.052v-39.493h9.549v5.666c2.011-4.499 5.195-5.999 9.551-5.999zm75.059-7.998h-2.849c-4.691 0-5.696 1.666-5.696 6.498v2h8.545v8.998h-8.377v30.328h-9.718v-30.328h-7.205v-8.998h7.205v-2c0-10.664 4.524-15.163 14.576-15.163h3.519zm62.828 20.496 8.712-12.165h11.727l-14.575 19.163 15.246 20.163h-11.896l-9.55-12.831-9.214 12.831h-11.896l15.246-20.163.335.167-14.408-19.33h11.896zm-40.211-3.5c-6.199 0-10.89 4.833-10.89 11.165s4.691 11.164 10.89 11.164 10.89-4.832 10.89-11.164-4.691-11.165-10.89-11.165zm-295.057.107c-6.049 0-10.786 4.883-10.786 11.004 0 6.122 4.737 11.006 10.786 11.006 5.976 0 10.787-4.883 10.787-11.006 0-6.122-4.811-11.004-10.787-11.004zm224.355-.94c-5.362 0-8.88 2.667-10.22 7.832h20.775c-1.173-4.999-5.194-7.832-10.555-7.832zm-59.143-25.328c3.518 0 6.032 2.5 6.032 5.999s-2.346 5.998-6.032 5.998-6.031-2.5-6.031-5.832 2.681-6.165 6.031-6.165zm635.204-186.6377c28.373.0001 45.297 10.7024 57.741 28.6221l-31.359 12.6936c-5.476-8.9601-13.938-14.1866-26.382-14.1868-13.44 0-19.911 5.4758-19.911 12.9424 0 8.4624 10.951 10.7014 30.613 14.9324 22.4 4.48 48.781 12.197 48.781 41.068 0 20.906-18.666 44.55-57.741 44.301-31.857 0-52.018-11.947-62.72-33.351l33.102-12.942c5.973 11.947 16.676 18.169 30.862 18.169 13.938 0 21.405-6.72 21.405-14.684 0-9.707-14.436-11.947-31.609-15.432-22.648-4.729-47.787-11.697-47.787-40.07 0-22.649 21.903-42.3116 55.005-42.0627zm-730.878.4981c40.32 0 69.44 29.1195 69.441 68.9416v12.942h-106.774c4.48 17.422 18.667 28.373 38.578 28.373 15.929 0 26.631-6.969 33.351-17.92l28.124 16.427c-13.44 18.915-32.355 31.111-61.973 31.111-43.306 0-71.182-30.613-71.182-69.688 0-39.0754 30.364-70.1865 70.435-70.1866zm422.34 0c17.671 0 32.356 7.7157 41.564 20.1601v-17.4228h34.098v134.3993h-34.098v-18.168c-9.457 13.191-24.64 20.906-42.062 20.906-33.102 0-64.711-27.129-64.711-69.937 0-42.8088 30.862-69.9376 65.209-69.9376zm133.97 21.1552c8.96-12.9421 23.893-21.1552 42.062-21.1552 33.849.0001 64.711 27.1289 64.711 69.9376 0 42.808-31.36 69.937-64.462 69.937-17.92 0-33.6-7.964-42.56-21.404v18.666h-33.849v-196.371978h34.098zm-615.267-33.3505h-50.0262v149.3319h-34.5958v-149.3319h-50.524367v-32.3555h135.146367zm219.432 12.1953c31.857 0 52.017 20.9068 52.017 55.9996v81.137h-35.092v-75.91c0-19.164-9.21-31.1114-27.378-31.1114-16.178 0-28.622 11.9474-28.622 32.8534v74.168h-34.596v-134.3993h34.347v16.9248c8.711-12.1955 22.648-19.6621 39.324-19.6621zm211.387-12.1953h-50.026v149.3319h-34.596v-149.3319h-50.524v-32.3555h135.146zm56.701 44.0527c-20.658 0-37.334 16.6752-37.334 37.8312 0 21.155 16.676 37.831 37.334 37.831 21.155 0 37.333-16.925 37.333-37.831 0-20.907-16.178-37.831-37.333-37.8312zm163.089 0c-21.156.0002-37.333 16.9242-37.333 37.8312 0 20.906 16.177 37.831 37.333 37.831 20.657 0 37.084-16.676 37.084-37.831 0-21.156-16.427-37.8312-37.084-37.8312zm-591.652-2.7373c-17.422.0001-30.862 10.2039-36.338 25.8835h71.681c-4.48-16.6752-17.423-25.8835-35.343-25.8835z" fill="#333336"/></svg>