<?xml version="1.0" encoding="utf-8"?>
<!-- Generator: Adobe Illustrator 16.0.0, SVG Export Plug-In . SVG Version: 6.00 Build 0)  -->
<!DOCTYPE svg PUBLIC "-//W3C//DTD SVG 1.1//EN" "http://www.w3.org/Graphics/SVG/1.1/DTD/svg11.dtd">
<svg version="1.1" id="TR_Download_on_the" xmlns="http://www.w3.org/2000/svg" xmlns:xlink="http://www.w3.org/1999/xlink" x="0px"
	 y="0px" width="135px" height="40px" viewBox="0 0 135 40" enable-background="new 0 0 135 40" xml:space="preserve">
<g>
	<path fill="#A6A6A6" d="M130.197,40H4.729C2.122,40,0,37.872,0,35.267V4.726C0,2.12,2.122,0,4.729,0h125.468
		C132.803,0,135,2.12,135,4.726v30.541C135,37.872,132.803,40,130.197,40L130.197,40z"/>
	<path d="M134.032,35.268c0,2.116-1.714,3.83-3.834,3.83H4.729c-2.119,0-3.839-1.714-3.839-3.83V4.725
		c0-2.115,1.72-3.835,3.839-3.835h125.468c2.121,0,3.834,1.72,3.834,3.835L134.032,35.268L134.032,35.268z"/>
	<g>
		<g>
			<path fill="#FFFFFF" d="M30.128,19.784c-0.029-3.223,2.639-4.791,2.761-4.864c-1.511-2.203-3.853-2.504-4.676-2.528
				c-1.967-0.207-3.875,1.177-4.877,1.177c-1.022,0-2.565-1.157-4.228-1.123c-2.14,0.033-4.142,1.272-5.24,3.196
				c-2.266,3.923-0.576,9.688,1.595,12.859c1.086,1.553,2.355,3.287,4.016,3.226c1.625-0.067,2.232-1.036,4.193-1.036
				c1.943,0,2.513,1.036,4.207,0.997c1.744-0.028,2.842-1.56,3.89-3.127c1.255-1.78,1.759-3.533,1.779-3.623
				C33.507,24.924,30.161,23.647,30.128,19.784z"/>
			<path fill="#FFFFFF" d="M26.928,10.306c0.874-1.093,1.472-2.58,1.306-4.089c-1.265,0.056-2.847,0.875-3.758,1.944
				c-0.806,0.942-1.526,2.486-1.34,3.938C24.557,12.205,26.016,11.382,26.928,10.306z"/>
		</g>
	</g>
	<g>
		<path fill="#FFFFFF" d="M50.644,18.893h-1.576l-0.863-2.713h-3l-0.822,2.713h-1.535l2.973-9.233h1.835L50.644,18.893z
			 M47.945,15.043l-0.781-2.411c-0.082-0.247-0.237-0.826-0.466-1.74h-0.027c-0.091,0.393-0.237,0.973-0.438,1.74l-0.767,2.411
			H47.945z"/>
		<path fill="#FFFFFF" d="M58.152,15.482c0,1.133-0.306,2.027-0.918,2.685c-0.548,0.585-1.229,0.877-2.042,0.877
			c-0.876,0-1.507-0.314-1.891-0.945h-0.027v3.507h-1.479v-7.178c0-0.713-0.019-1.443-0.055-2.192h1.301l0.083,1.055h0.027
			c0.493-0.794,1.242-1.191,2.247-1.191c0.786,0,1.44,0.311,1.966,0.932S58.152,14.468,58.152,15.482z M56.645,15.537
			c0-0.648-0.146-1.183-0.438-1.603c-0.32-0.438-0.749-0.658-1.288-0.658c-0.365,0-0.697,0.121-0.993,0.363
			c-0.297,0.242-0.491,0.56-0.583,0.952c-0.045,0.183-0.068,0.333-0.068,0.452v1.109c0,0.484,0.148,0.894,0.445,1.227
			s0.683,0.5,1.158,0.5c0.557,0,0.991-0.215,1.301-0.644C56.489,16.806,56.645,16.24,56.645,15.537z"/>
		<path fill="#FFFFFF" d="M65.878,15.482c0,1.133-0.306,2.027-0.918,2.685c-0.548,0.585-1.229,0.877-2.042,0.877
			c-0.876,0-1.507-0.314-1.891-0.945h-0.027v3.507h-1.479v-7.178c0-0.713-0.019-1.443-0.055-2.192h1.301l0.083,1.055h0.027
			c0.493-0.794,1.242-1.191,2.247-1.191c0.786,0,1.44,0.311,1.966,0.932S65.878,14.468,65.878,15.482z M64.371,15.537
			c0-0.648-0.146-1.183-0.438-1.603c-0.32-0.438-0.749-0.658-1.288-0.658c-0.365,0-0.697,0.121-0.993,0.363
			c-0.297,0.242-0.491,0.56-0.583,0.952c-0.045,0.183-0.068,0.333-0.068,0.452v1.109c0,0.484,0.148,0.894,0.445,1.227
			s0.683,0.5,1.158,0.5c0.557,0,0.991-0.215,1.301-0.644C64.216,16.806,64.371,16.24,64.371,15.537z"/>
		<path fill="#FFFFFF" d="M75.879,16.304c0,0.785-0.273,1.425-0.82,1.918c-0.602,0.539-1.439,0.808-2.515,0.808
			c-0.993,0-1.791-0.191-2.394-0.575l0.343-1.233c0.648,0.394,1.361,0.59,2.138,0.59c0.558,0,0.992-0.126,1.303-0.378
			c0.311-0.251,0.466-0.588,0.466-1.009c0-0.375-0.128-0.69-0.384-0.946s-0.681-0.494-1.273-0.714
			c-1.617-0.604-2.426-1.486-2.426-2.648c0-0.759,0.283-1.381,0.85-1.866c0.566-0.484,1.32-0.728,2.261-0.728
			c0.84,0,1.539,0.146,2.096,0.438l-0.369,1.206c-0.521-0.283-1.11-0.425-1.768-0.425c-0.521,0-0.927,0.128-1.22,0.384
			c-0.246,0.229-0.369,0.507-0.369,0.835c0,0.366,0.141,0.667,0.425,0.904c0.246,0.22,0.693,0.457,1.342,0.713
			c0.795,0.319,1.379,0.694,1.754,1.123C75.691,15.13,75.879,15.665,75.879,16.304z"/>
		<path fill="#FFFFFF" d="M80.674,13.344h-1.63v3.233c0,0.822,0.287,1.233,0.862,1.233c0.266,0,0.484-0.023,0.658-0.068l0.041,1.123
			c-0.293,0.109-0.676,0.164-1.151,0.164c-0.584,0-1.041-0.178-1.369-0.534c-0.329-0.356-0.493-0.954-0.493-1.795v-3.356h-0.974
			v-1.109h0.974v-1.22l1.452-0.438v1.657h1.63V13.344z"/>
		<path fill="#FFFFFF" d="M87.963,15.509c0,1.022-0.293,1.863-0.877,2.521c-0.612,0.676-1.425,1.014-2.438,1.014
			c-0.978,0-1.756-0.324-2.336-0.973s-0.87-1.466-0.87-2.452c0-1.032,0.299-1.877,0.897-2.534c0.598-0.658,1.404-0.986,2.418-0.986
			c0.978,0,1.763,0.324,2.356,0.973C87.68,13.701,87.963,14.514,87.963,15.509z M86.429,15.557c0-0.613-0.133-1.141-0.397-1.58
			c-0.311-0.531-0.754-0.797-1.329-0.797c-0.594,0-1.046,0.266-1.356,0.797c-0.265,0.439-0.397,0.976-0.397,1.607
			c0,0.614,0.133,1.141,0.397,1.58c0.319,0.531,0.768,0.797,1.343,0.797c0.566,0,1.009-0.271,1.329-0.811
			C86.291,16.702,86.429,16.17,86.429,15.557z"/>
		<path fill="#FFFFFF" d="M92.895,13.537c-0.146-0.027-0.301-0.041-0.466-0.041c-0.521,0-0.922,0.196-1.205,0.589
			c-0.247,0.347-0.37,0.785-0.37,1.315v3.493h-1.479l0.014-4.562c0-0.767-0.019-1.466-0.055-2.096h1.288l0.055,1.274h0.041
			c0.155-0.438,0.401-0.79,0.739-1.056c0.329-0.237,0.686-0.355,1.069-0.355c0.137,0,0.26,0.009,0.369,0.027V13.537z"/>
		<path fill="#FFFFFF" d="M99.415,15.249c0,0.266-0.018,0.489-0.055,0.672h-4.438c0.019,0.657,0.233,1.16,0.644,1.507
			c0.375,0.311,0.858,0.466,1.452,0.466c0.658,0,1.256-0.105,1.795-0.315l0.233,1.027c-0.631,0.274-1.375,0.411-2.233,0.411
			c-1.032,0-1.843-0.304-2.432-0.911s-0.884-1.422-0.884-2.445c0-1.005,0.274-1.84,0.822-2.507c0.575-0.713,1.352-1.068,2.329-1.068
			c0.959,0,1.685,0.355,2.178,1.068C99.219,13.719,99.415,14.417,99.415,15.249z M98.005,14.866
			c0.009-0.438-0.087-0.817-0.288-1.138c-0.256-0.411-0.648-0.616-1.179-0.616c-0.483,0-0.876,0.201-1.178,0.603
			c-0.247,0.32-0.393,0.703-0.438,1.151H98.005z"/>
		<path fill="#FFFFFF" d="M102.319,9.413c-0.394,1.379-0.858,2.512-1.397,3.397l-0.918,0.096c0.401-1.096,0.689-2.214,0.863-3.356
			L102.319,9.413z"/>
		<path fill="#FFFFFF" d="M108.347,18.893h-1.314l-0.069-1.068h-0.041c-0.42,0.812-1.132,1.219-2.137,1.219
			c-0.804,0-1.471-0.314-2-0.945c-0.53-0.63-0.795-1.447-0.795-2.452c0-1.077,0.288-1.95,0.863-2.616
			c0.557-0.621,1.242-0.932,2.055-0.932c0.896,0,1.521,0.301,1.877,0.904h0.027V9.18h1.479v7.918
			C108.292,17.747,108.311,18.345,108.347,18.893z M106.812,16.084v-1.109c0-0.192-0.014-0.348-0.041-0.466
			c-0.083-0.356-0.262-0.655-0.536-0.897c-0.275-0.242-0.605-0.363-0.991-0.363c-0.55,0-0.983,0.22-1.3,0.658
			c-0.316,0.438-0.475,1-0.475,1.685c0,0.657,0.151,1.192,0.454,1.603c0.321,0.438,0.752,0.658,1.293,0.658
			c0.486,0,0.876-0.183,1.17-0.548C106.671,16.966,106.812,16.56,106.812,16.084z"/>
		<path fill="#FFFFFF" d="M115.142,18.893h-1.328l-0.11-0.768h-0.041c-0.456,0.612-1.104,0.918-1.945,0.918
			c-0.63,0-1.137-0.2-1.521-0.603c-0.347-0.365-0.521-0.817-0.521-1.356c0-0.812,0.34-1.434,1.021-1.863
			c0.681-0.429,1.638-0.639,2.87-0.63v-0.123c0-0.877-0.46-1.315-1.38-1.315c-0.657,0-1.235,0.164-1.736,0.493l-0.302-0.973
			c0.62-0.384,1.382-0.575,2.285-0.575c1.741,0,2.612,0.918,2.612,2.754v2.452C115.046,17.97,115.078,18.5,115.142,18.893z
			 M113.607,16.605v-1.027c-1.635-0.027-2.452,0.42-2.452,1.343c0,0.347,0.096,0.607,0.286,0.78c0.19,0.174,0.432,0.261,0.722,0.261
			c0.327,0,0.629-0.103,0.906-0.309c0.277-0.205,0.447-0.468,0.511-0.787C113.599,16.792,113.607,16.706,113.607,16.605z"/>
		<path fill="#FFFFFF" d="M122.649,18.893h-1.479v-3.812c0-1.176-0.447-1.764-1.343-1.764c-0.438,0-0.794,0.162-1.068,0.485
			s-0.411,0.704-0.411,1.142v3.949h-1.479v-4.754c0-0.584-0.019-1.22-0.055-1.904h1.302l0.068,1.041h0.041
			c0.173-0.323,0.429-0.592,0.767-0.804c0.402-0.249,0.85-0.374,1.343-0.374c0.621,0,1.138,0.201,1.548,0.603
			c0.512,0.493,0.768,1.229,0.768,2.206V18.893z"/>
	</g>
	<g>
		<g>
			<path fill="#FFFFFF" d="M45.137,23.253c0,0.155-0.051,0.284-0.15,0.388c-0.101,0.104-0.229,0.155-0.383,0.155
				c-0.149,0-0.273-0.054-0.374-0.159c-0.101-0.107-0.15-0.234-0.15-0.384c0-0.148,0.052-0.276,0.155-0.384
				c0.104-0.105,0.229-0.159,0.378-0.159c0.155,0,0.282,0.054,0.379,0.159C45.088,22.977,45.137,23.104,45.137,23.253z
				 M45.127,30.761H44.08v-6.538h1.048V30.761z"/>
			<path fill="#FFFFFF" d="M51.122,30.761h-1.048v-2.7c0-0.832-0.316-1.248-0.95-1.248c-0.311,0-0.562,0.115-0.757,0.344
				c-0.193,0.229-0.291,0.498-0.291,0.809v2.796h-1.048v-3.366c0-0.414-0.013-0.863-0.038-1.348h0.921l0.049,0.736h0.029
				c0.122-0.229,0.304-0.418,0.543-0.568c0.284-0.177,0.602-0.266,0.95-0.266c0.44,0,0.806,0.143,1.097,0.428
				c0.362,0.349,0.543,0.869,0.543,1.561V30.761z"/>
			<path fill="#FFFFFF" d="M57.155,30.761h-0.931l-0.049-0.757h-0.029c-0.297,0.576-0.802,0.863-1.513,0.863
				c-0.569,0-1.041-0.223-1.416-0.669s-0.562-1.024-0.562-1.736c0-0.763,0.203-1.381,0.61-1.853c0.395-0.439,0.88-0.66,1.455-0.66
				c0.634,0,1.077,0.214,1.329,0.641h0.02v-2.707h1.048v5.607C57.117,29.949,57.129,30.373,57.155,30.761z M56.069,28.772v-0.786
				c0-0.136-0.01-0.246-0.029-0.33c-0.059-0.252-0.186-0.463-0.38-0.635c-0.195-0.172-0.429-0.258-0.701-0.258
				c-0.39,0-0.696,0.156-0.921,0.467c-0.224,0.311-0.336,0.707-0.336,1.192c0,0.466,0.107,0.845,0.322,1.136
				c0.227,0.31,0.532,0.465,0.915,0.465c0.344,0,0.62-0.129,0.828-0.388C55.968,29.396,56.069,29.108,56.069,28.772z"/>
			<path fill="#FFFFFF" d="M60.143,24.641c0,0.188-0.062,0.339-0.184,0.455c-0.123,0.117-0.281,0.175-0.476,0.175
				c-0.175,0-0.322-0.06-0.441-0.179c-0.12-0.12-0.18-0.271-0.18-0.451c0-0.182,0.062-0.33,0.185-0.447
				c0.123-0.115,0.274-0.174,0.456-0.174c0.181,0,0.333,0.059,0.456,0.174C60.082,24.311,60.143,24.459,60.143,24.641z
				 M60.027,30.761h-1.048v-4.714h1.048V30.761z"/>
			<path fill="#FFFFFF" d="M64.381,26.969c-0.104-0.02-0.213-0.029-0.33-0.029c-0.368,0-0.652,0.139-0.854,0.416
				c-0.174,0.246-0.262,0.557-0.262,0.932v2.474h-1.048l0.01-3.229c0-0.544-0.013-1.039-0.038-1.484h0.911l0.039,0.902h0.029
				c0.109-0.311,0.284-0.561,0.523-0.748c0.233-0.168,0.485-0.252,0.757-0.252c0.097,0,0.185,0.007,0.262,0.02V26.969z"/>
			<path fill="#FFFFFF" d="M66.883,24.641c0,0.188-0.062,0.339-0.184,0.455c-0.123,0.117-0.281,0.175-0.476,0.175
				c-0.175,0-0.322-0.06-0.441-0.179c-0.12-0.12-0.18-0.271-0.18-0.451c0-0.182,0.062-0.33,0.185-0.447
				c0.123-0.115,0.274-0.174,0.456-0.174c0.181,0,0.333,0.059,0.456,0.174C66.822,24.311,66.883,24.459,66.883,24.641z
				 M66.767,30.761h-1.048v-4.714h1.048V30.761z"/>
			<path fill="#FFFFFF" d="M72.723,30.761h-1.049v-2.7c0-0.832-0.316-1.248-0.949-1.248c-0.311,0-0.562,0.115-0.758,0.344
				c-0.193,0.229-0.291,0.498-0.291,0.809v2.796h-1.047v-3.366c0-0.414-0.013-0.863-0.038-1.348h0.921l0.049,0.736h0.029
				c0.121-0.229,0.303-0.418,0.543-0.568c0.283-0.177,0.602-0.266,0.949-0.266c0.441,0,0.807,0.143,1.098,0.428
				c0.361,0.349,0.543,0.869,0.543,1.561V30.761z"/>
		</g>
	</g>
</g>
</svg>
