<svg xmlns="http://www.w3.org/2000/svg" xml:space="preserve" width="212" height="74" viewBox="0 0 212.2 74">
  <style>
    .st1{fill:#f8f6f4}.st2,.st3{fill:#333336}.st3{fill-rule:evenodd;clip-rule:evenodd;stroke:#333336;stroke-width:1.9455;stroke-linecap:round;stroke-linejoin:round}
  </style>
  <path fill="#f8f6f4" stroke="#333336" stroke-width="1.9455" d="M37 1h138.2c19.9 0 36 16.1 36 36s-16.1 36-36 36H37C17.1 73 1 56.9 1 37S17.1 1 37 1z"/>
  <g id="smile">
    <path class="fill" fill="#f8f6f4" d="M163.4 55.7c-10.3 0-18.6-8.3-18.6-18.6s8.3-18.6 18.6-18.6S182 26.9 182 37.1s-8.4 18.6-18.6 18.6z" />
    <path d="M163.4 19.5c9.7 0 17.7 7.9 17.7 17.7s-7.9 17.7-17.7 17.7-17.7-7.9-17.7-17.7 7.9-17.7 17.7-17.7m0-1.9c-10.8 0-19.5 8.7-19.5 19.5s8.7 19.5 19.5 19.5 19.5-8.7 19.5-19.5-8.7-19.5-19.5-19.5z" class="st2"/>
    <path d="M158.9 32.9c.8 0 1.5-.7 1.5-1.5s-.7-1.5-1.5-1.5-1.5.7-1.5 1.5c.1.8.7 1.5 1.5 1.5z" class="st3"/>
    <path d="M167.7 32.9c.8 0 1.5-.7 1.5-1.5s-.7-1.5-1.5-1.5-1.5.7-1.5 1.5.7 1.5 1.5 1.5z" class="st3"/>
    <path fill="none" stroke="#333336" stroke-linecap="round" stroke-width="1.9455" d="M153.3 37.3c0 5.6 4.6 10.2 10.2 10.2s10.2-4.6 10.2-10.2"/>
  </g>
  <g id="puzzle">
    <path class="fill" fill="#f8f6f4" d="M107.9 57.2V57c0-1.7-.7-3.4-1.9-4.6-1.2-1.2-2.8-1.9-4.6-1.9s-3.4.7-4.6 1.9C95.6 53.6 95 55.2 95 57v.2h-5.8c-.5 0-1-.1-1.4-.3-.4-.2-.8-.4-1.2-.8-.3-.3-.6-.7-.8-1.2-.2-.4-.3-.9-.3-1.4v-5.8h.2c1.7 0 3.4-.7 4.6-1.9 1.2-1.2 1.9-2.8 1.9-4.6s-.7-3.4-1.9-4.6c-1.2-1.2-2.8-1.9-4.6-1.9h-.2V29c0-.5.1-.9.3-1.4.2-.4.4-.8.8-1.2.3-.3.7-.6 1.2-.8.4-.2.9-.3 1.4-.3H97c.3 0 .6-.2.8-.5s.1-.6-.1-.9c-.5-.7-.9-1.5-.9-2.4-.1-.9.1-1.8.5-2.5.4-.8 1-1.4 1.7-1.9s1.6-.7 2.5-.7 1.7.2 2.5.7c.7.5 1.4 1.1 1.7 1.9s.6 1.7.5 2.5c-.1.9-.4 1.7-.9 2.4-.2.3-.2.6-.1.9.1.3.4.5.8.5h7.8c.5 0 1 .1 1.4.3.4.2.8.4 1.2.8.3.3.6.7.8 1.2.2.4.3.9.3 1.4v7.8c0 .3.2.6.5.8.1.1.3.1.4.1.2 0 .4-.1.5-.2.8-.6 1.8-.9 2.8-.9.8 0 1.5.2 2.2.5.7.3 1.2.8 1.7 1.4.4.6.7 1.3.8 2.1.1.7 0 1.5-.2 2.2-.2.7-.6 1.4-1.2 1.9-.5.5-1.2.9-1.9 1.1-.5.1-.9.2-1.4.2-.3 0-.5 0-.8-.1-.7-.1-1.4-.4-2-.9-.2-.1-.3-.2-.5-.2-.1 0-.3 0-.4.1-.3.1-.5.4-.5.8v7.8c0 .5-.1.9-.3 1.4-.2.4-.5.8-.8 1.2-.3.3-.7.6-1.2.8-.4.2-.9.3-1.4.3h-5.9z" />
    <path d="M101.4 17.2c.7 0 1.4.2 2 .6.6.4 1.1.9 1.4 1.6.3.6.5 1.4.4 2.1-.1.7-.3 1.4-.8 2-.4.5-.5 1.2-.2 1.8.3.6.9 1 1.6 1h7.9c.4 0 .7.1 1 .2.3.1.6.3.9.6.3.3.5.6.6.9.1.3.2.7.2 1.1v7.8c0 .7.4 1.3 1 1.6.2.1.5.2.8.2.4 0 .7-.1 1.1-.4.7-.5 1.5-.8 2.3-.8.6 0 1.2.1 1.8.4.5.3 1 .7 1.4 1.2.4.5.6 1.1.7 1.7.1.6 0 1.2-.2 1.8-.2.6-.5 1.1-1 1.5-.4.4-1 .7-1.6.9-.4.1-.8.2-1.2.2-.2 0-.4 0-.7-.1-.6-.1-1.2-.4-1.7-.7-.3-.2-.7-.3-1-.3-.3 0-.5.1-.8.2-.6.3-1 .9-1 1.6v7.8c0 .4-.1.7-.2 1.1-.1.3-.3.6-.6.9-.3.3-.6.5-.9.6-.3.1-.7.2-1 .2h-5.1c-.1-1.7-.9-3.3-2.1-4.6-1.4-1.4-3.2-2.2-5.2-2.2s-3.8.8-5.2 2.2c-1.2 1.2-2 2.8-2.1 4.6h-5c-.4 0-.7-.1-1-.2-.3-.1-.6-.3-.9-.6-.3-.3-.5-.6-.6-.9-.1-.3-.2-.7-.2-1.1v-5c1.7-.1 3.3-.9 4.6-2.1 1.4-1.4 2.2-3.2 2.2-5.2s-.8-3.8-2.2-5.2c-1.2-1.2-2.8-2-4.6-2.1v-5c0-.4.1-.7.2-1.1.1-.3.3-.6.6-.9.3-.3.6-.5.9-.6.3-.1.7-.2 1.1-.2h8c.7 0 1.3-.4 1.6-1 .3-.6.2-1.3-.2-1.8-.4-.6-.7-1.3-.8-2-.1-.7.1-1.4.4-2.1.3-.6.8-1.2 1.4-1.6.6-.4 1.3-.6 2-.6m0-1.7c-1 0-2.1.3-2.9.8-.9.5-1.6 1.3-2.1 2.3-.5.9-.7 2-.6 3 .1 1 .5 2 1.1 2.9H89c-.6 0-1.2.1-1.7.3-.5.2-1 .6-1.5 1-.4.4-.7.9-1 1.5-.2.5-.3 1.1-.3 1.7v6.8c.4-.1.7-.1 1.1-.1 1.5 0 2.9.6 4 1.6 1.1 1.1 1.6 2.5 1.6 4s-.6 2.9-1.6 4c-1.1 1.1-2.5 1.6-4 1.6-.4 0-.7 0-1.1-.1v6.8c0 .6.1 1.2.3 1.7.2.5.6 1 1 1.5.4.4.9.7 1.5 1 .5.2 1.1.3 1.7.3h6.8c-.1-.4-.1-.7-.1-1.1 0-1.5.6-2.9 1.6-4 1.1-1.1 2.5-1.6 4-1.6s2.9.6 4 1.6c1.1 1.1 1.6 2.5 1.6 4 0 .4 0 .8-.1 1.1H113.7c.6 0 1.1-.1 1.7-.3.6-.2 1.1-.6 1.5-1 .4-.4.8-.9 1-1.5.2-.5.3-1.1.3-1.7v-7.8c.7.5 1.5.9 2.4 1 .3.1.6.1.9.1.6 0 1.1-.1 1.7-.3.8-.3 1.6-.7 2.3-1.3.6-.6 1.1-1.4 1.4-2.2.3-.8.4-1.7.2-2.6-.1-.9-.5-1.7-1-2.4s-1.2-1.3-2-1.7c-.8-.4-1.7-.6-2.6-.6-1.2 0-2.4.4-3.3 1.1V29c0-.6-.1-1.2-.3-1.7-.2-.5-.6-1-1-1.5-.4-.4-.9-.7-1.5-1-.5-.2-1.1-.3-1.7-.3h-7.8c.6-.8 1-1.8 1.1-2.9.1-1-.1-2.1-.6-3-.5-.9-1.2-1.7-2.1-2.3-.8-.5-1.8-.8-2.9-.8z" class="st2"/>
  </g>
  <g id="heart">
    <path class="fill" fill="#f8f6f4" d="M25.1 39.5c-1.9-2-3-4.5-2.9-7.3 0-2.7 1.1-5.3 3-7.3 1.9-1.9 4.5-3 7.3-3s5.3 1 7.3 3l2.2 2.2c.2.2.4.3.6.3s.4-.1.6-.3l2.2-2.2c2-2 4.5-3 7.3-3 2.1 0 4 .6 5.7 1.7 1.7 1.1 3 2.7 3.8 4.6.8 1.9 1 4 .6 6S61.4 38 60 39.5L42.5 56.9 25.1 39.5z" />
    <path d="M52.5 22.7c1.9 0 3.7.6 5.3 1.6 1.6 1 2.8 2.5 3.5 4.2.7 1.7.9 3.6.5 5.5-.4 1.8-1.3 3.5-2.6 4.8L57 41 42.5 55.7 27.8 41.1 25.7 39c-1.8-1.8-2.7-4.2-2.7-6.7s1-4.9 2.8-6.6c1.8-1.8 4.1-2.8 6.6-2.8s4.8 1 6.6 2.7l2.2 2.2c.3.3.8.5 1.2.5.5 0 .9-.2 1.2-.5l2.2-2.2c1.8-1.9 4.2-2.9 6.7-2.9m0-1.7c-3 0-5.8 1.2-7.9 3.3l-2.2 2.2-2.2-2.2c-2.1-2.1-4.9-3.2-7.8-3.2h-.1c-3 0-5.8 1.2-7.9 3.3-2.1 2.1-3.3 4.9-3.3 7.9s1.1 5.8 3.2 7.9l2.2 2.2 15.8 15.8 15.8-15.8 2.2-2.2c1.6-1.6 2.6-3.6 3.1-5.7.4-2.2.2-4.4-.6-6.5-.8-2-2.3-3.8-4.1-5-1.8-1.3-3.9-2-6.2-2z" class="st2"/>
  </g>
</svg>
