<svg xmlns="http://www.w3.org/2000/svg" width="600" height="450" fill="none" viewBox="0 0 600 450"><rect width="600" height="450" fill="#ECDFFF" rx="15"/><g filter="url(#a)"><g clip-path="url(#b)"><rect width="507.821" height="358.053" x="55.486" y="59.105" fill="#fff" rx="5.951"/><path fill="#C9C3D2" d="M49.535 55.139H575.21v28.763H49.535z"/><circle cx="66.851" cy="70.471" r="3.099" fill="#592ACB"/><circle cx="77.182" cy="70.471" r="3.099" fill="#592ACB"/><circle cx="87.514" cy="70.471" r="3.099" fill="#592ACB"/><path fill="#0C0C0D" d="M108.775 259.394c-3.909 0-7.391-1.314-10.02-3.745l2.793-3.318c2.135 1.84 4.566 2.957 7.425 2.957 2.431 0 3.679-1.117 3.679-2.53 0-1.61-1.314-2.102-4.764-2.891-4.763-1.084-8.147-2.431-8.147-6.8 0-4.172 3.417-7.031 8.345-7.031 3.679 0 6.537 1.15 8.837 3.121l-2.53 3.483c-2.004-1.61-4.271-2.497-6.439-2.497-2.069 0-3.318 1.084-3.318 2.431 0 1.643 1.347 2.168 4.829 2.957 4.862 1.084 8.082 2.529 8.082 6.701 0 4.304-3.252 7.162-8.772 7.162Zm20.428 0c-5.026 0-9.264-4.073-9.264-8.903 0-4.829 4.271-8.87 9.297-8.87 2.76 0 5.027 1.117 6.669 2.891l-3.187 2.727c-.854-.953-2.201-1.577-3.515-1.577-2.496 0-4.599 2.201-4.599 4.796 0 2.661 2.103 4.895 4.632 4.895 1.314 0 2.694-.657 3.581-1.642l3.187 2.694c-1.676 1.839-3.975 2.989-6.801 2.989Zm17.276-17.773c4.435 0 7.457 2.793 7.457 7.228V259h-4.632v-1.708c-1.216 1.379-3.154 2.102-4.994 2.102-3.613 0-6.406-2.168-6.406-5.42 0-3.351 3.121-5.651 7.063-5.651 1.38 0 2.891.296 4.337.854v-.328c0-1.807-1.117-3.384-3.909-3.384-1.577 0-3.056.526-4.403 1.215l-1.609-3.186c2.398-1.216 4.73-1.873 7.096-1.873Zm-1.084 14.455c1.839 0 3.58-.854 3.909-2.431v-1.577a10.752 10.752 0 0 0-3.647-.624c-1.741 0-3.121 1.018-3.121 2.398 0 1.38 1.216 2.234 2.859 2.234Zm22.406-14.455c3.68 0 6.308 2.727 6.308 6.571V259h-4.632v-9.79c0-2.102-1.314-3.548-3.22-3.548-2.004 0-3.548 1.446-3.548 3.285l-.032-.098V259h-4.797v-16.985h4.797v2.136c1.018-1.544 2.923-2.53 5.124-2.53Zm20.18 0c3.68 0 6.308 2.727 6.308 6.571V259h-4.632v-9.79c0-2.102-1.315-3.548-3.22-3.548-2.004 0-3.548 1.446-3.548 3.285l-.033-.098V259h-4.796v-16.985h4.796v2.136c1.019-1.544 2.924-2.53 5.125-2.53Zm12.755-1.938a2.615 2.615 0 0 1-2.628-2.628c0-1.347 1.15-2.563 2.628-2.563 1.413 0 2.563 1.216 2.563 2.563 0 1.445-1.15 2.628-2.563 2.628ZM198.305 259v-16.985h4.797V259h-4.797Zm18.807-17.379c3.679 0 6.307 2.727 6.307 6.571V259h-4.632v-9.79c0-2.102-1.314-3.548-3.219-3.548-2.004 0-3.548 1.446-3.548 3.285l-.033-.098V259h-4.797v-16.985h4.797v2.136c1.018-1.544 2.924-2.53 5.125-2.53Zm22.643.394h4.829v15.178c0 4.369-3.778 7.458-9.132 7.458-2.99 0-5.815-.953-7.491-2.267l1.676-3.384c1.117.986 3.088 1.61 5.059 1.61 3.088 0 5.059-1.413 5.059-3.614v-1.873c-1.347 1.643-3.384 2.629-5.617 2.629-4.271 0-7.524-3.351-7.524-8.082 0-4.731 3.253-8.049 7.524-8.049 2.299 0 4.467 1.084 5.617 2.694v-2.3Zm-4.106 11.696c2.398 0 4.106-1.676 4.106-4.041s-1.708-4.008-4.106-4.008c-2.398 0-4.107 1.643-4.107 4.008s1.709 4.041 4.107 4.041Zm28.013-12.615v.919h3.679v3.877h-3.679V259h-4.599v-13.108h-2.333v-3.877h2.333v-1.478c0-3.055 2.102-5.191 5.092-5.191 1.38 0 2.924.592 3.909 1.479l-1.15 2.924c-.328-.329-.985-.559-1.642-.559-.887 0-1.61.789-1.61 1.906Zm15.109 18.298c-5.059 0-9.297-4.073-9.297-8.903 0-4.829 4.238-8.87 9.297-8.87 5.026 0 9.231 4.041 9.231 8.87 0 4.83-4.205 8.903-9.231 8.903Zm0-4.041c2.53 0 4.665-2.234 4.665-4.862s-2.135-4.829-4.665-4.829c-2.563 0-4.698 2.201-4.698 4.829 0 2.628 2.135 4.862 4.698 4.862Zm17.273-10.184c1.117-2.201 3.22-3.548 5.815-3.548v4.041c-3.548 0-5.815 2.037-5.815 5.224V259h-4.796v-16.985h4.796v3.154Zm25.773 9.987c1.347 0 2.99-.624 3.91-1.511l3.055 3.121c-1.511 1.577-4.435 2.628-6.932 2.628-5.059 0-9.001-3.712-9.001-8.936 0-5.124 3.778-8.837 8.738-8.837 5.323 0 8.443 4.041 8.443 10.447h-12.253c.558 1.84 2.036 3.088 4.04 3.088Zm-.032-9.297c-1.807 0-3.318 1.051-3.943 2.76h7.589c-.46-1.676-1.708-2.76-3.646-2.76ZM349.274 259h-5.157l-3.68-5.125-3.712 5.125h-5.059l6.242-8.64-5.98-8.345h5.191l3.384 4.731 3.416-4.731h5.06l-5.947 8.246 6.242 8.739Zm13.089-17.379c4.533 0 7.819 3.68 7.819 8.87 0 5.224-3.286 8.903-7.819 8.903-2.366 0-4.337-1.018-5.684-2.792v8.049h-4.796v-22.636h4.796v2.366c1.347-1.741 3.318-2.76 5.684-2.76Zm-1.38 13.732c2.661 0 4.534-2.004 4.534-4.862 0-2.825-1.873-4.829-4.534-4.829-2.332 0-4.041 1.708-4.304 4.172v1.314c.263 2.497 1.972 4.205 4.304 4.205Zm20.932 4.041c-5.059 0-9.297-4.073-9.297-8.903 0-4.829 4.238-8.87 9.297-8.87 5.026 0 9.231 4.041 9.231 8.87 0 4.83-4.205 8.903-9.231 8.903Zm0-4.041c2.53 0 4.665-2.234 4.665-4.862s-2.135-4.829-4.665-4.829c-2.563 0-4.698 2.201-4.698 4.829 0 2.628 2.135 4.862 4.698 4.862Zm18.85 4.041c-2.727 0-5.618-.92-7.654-2.562l2.069-3.318c1.511 1.084 3.417 1.905 5.684 1.905 1.281 0 2.201-.526 2.201-1.281 0-1.051-1.249-1.38-2.99-1.84-3.482-.854-6.176-1.807-6.209-5.158-.033-3.219 2.628-5.519 6.636-5.519 2.431 0 4.83.854 6.702 2.103l-1.938 3.416c-1.544-.952-3.318-1.511-4.764-1.511-1.182 0-2.004.427-2.004 1.019 0 .919.69 1.182 2.99 1.806 2.924.756 6.176 1.742 6.176 5.454 0 3.351-2.727 5.486-6.899 5.486Zm21.385-17.379h4.797V259h-4.797v-2.135c-1.018 1.544-2.924 2.529-5.125 2.529-3.679 0-6.307-2.726-6.307-6.57v-10.809h4.632v9.79c0 2.103 1.314 3.548 3.219 3.548 2.004 0 3.548-1.445 3.548-3.285l.033.099v-10.152Zm13.708 3.154c1.117-2.201 3.22-3.548 5.815-3.548v4.041c-3.548 0-5.815 2.037-5.815 5.224V259h-4.796v-16.985h4.796v3.154Zm16.598 9.987c1.347 0 2.989-.624 3.909-1.511l3.055 3.121c-1.511 1.577-4.435 2.628-6.931 2.628-5.06 0-9.002-3.712-9.002-8.936 0-5.124 3.778-8.837 8.739-8.837 5.322 0 8.443 4.041 8.443 10.447h-12.254c.558 1.84 2.037 3.088 4.041 3.088Zm-.033-9.297c-1.807 0-3.318 1.051-3.942 2.76h7.589c-.46-1.676-1.709-2.76-3.647-2.76Zm17.864 13.535c-2.727 0-5.618-.92-7.654-2.562l2.069-3.318c1.511 1.084 3.417 1.905 5.684 1.905 1.281 0 2.201-.526 2.201-1.281 0-1.051-1.249-1.38-2.99-1.84-3.482-.854-6.176-1.807-6.209-5.158-.033-3.219 2.628-5.519 6.636-5.519 2.431 0 4.829.854 6.702 2.103l-1.938 3.416c-1.544-.952-3.318-1.511-4.764-1.511-1.182 0-2.004.427-2.004 1.019 0 .919.69 1.182 2.99 1.806 2.924.756 6.176 1.742 6.176 5.454 0 3.351-2.727 5.486-6.899 5.486Zm12.844 0a3.05 3.05 0 0 1-3.056-3.055c0-1.544 1.347-2.924 3.056-2.924 1.609 0 2.924 1.38 2.924 2.924 0 1.675-1.315 3.055-2.924 3.055Zm9.528 0a3.05 3.05 0 0 1-3.055-3.055c0-1.544 1.347-2.924 3.055-2.924 1.61 0 2.924 1.38 2.924 2.924 0 1.675-1.314 3.055-2.924 3.055Zm9.528 0a3.05 3.05 0 0 1-3.055-3.055c0-1.544 1.347-2.924 3.055-2.924 1.61 0 2.924 1.38 2.924 2.924 0 1.675-1.314 3.055-2.924 3.055Z"/><rect width="423.385" height="44.63" x="98.911" y="309" fill="#EAEAEA" rx="22.315"/><rect width="91.006" height="44.784" x="97.704" y="309" fill="url(#c)" rx="22.392"/><path fill="#fff" d="M125.093 328.454c2.844 0 5.195 1.837 5.195 4.882 0 3.157-2.53 5.329-5.889 5.329-4.501 0-6.538-3.224-6.538-7.703 0-4.792 2.799-8.218 7.053-8.218 1.926 0 3.471.65 4.725 1.657l-1.567 2.508c-.941-.783-1.859-1.254-3.135-1.254-1.993 0-3.359 1.657-3.65 4.255.963-.918 2.351-1.456 3.806-1.456Zm-.873 7.412c1.635 0 2.665-1.142 2.665-2.373 0-1.478-1.254-2.352-2.754-2.352-1.277 0-2.307.695-2.755 1.792.291 1.881 1.12 2.933 2.844 2.933Zm11.724-5.128c-2.284 0-3.829-1.724-3.829-3.918 0-2.217 1.545-3.964 3.852-3.964 2.328 0 3.829 1.769 3.829 3.941 0 2.217-1.568 3.941-3.852 3.941Zm-1.814 7.658 10.704-15.383h2.373l-10.703 15.383h-2.374Zm1.837-9.583c.94 0 1.634-.784 1.634-2.016 0-1.186-.694-1.993-1.657-1.993-.94 0-1.612.784-1.612 1.993 0 1.21.717 2.016 1.635 2.016Zm9.382 9.83c-2.307 0-3.852-1.747-3.852-3.941 0-2.195 1.568-3.941 3.852-3.941 2.306 0 3.829 1.769 3.829 3.941 0 2.217-1.59 3.941-3.829 3.941Zm0-1.948c.963 0 1.634-.784 1.634-1.993s-.716-2.016-1.634-2.016c-.985 0-1.657.784-1.657 2.016 0 1.187.694 1.993 1.657 1.993Z"/><rect width="27.776" height="27.776" x="173.719" y="145" fill="#592ACB" rx="13.888"/><path fill="#fff" d="M185.284 165.843c-.307 0-.602-.122-.819-.339l-3.478-3.478a1.156 1.156 0 0 1 .014-1.624 1.162 1.162 0 0 1 1.625-.014l2.5 2.5 7.321-10.459a1.155 1.155 0 0 1 1.608-.276 1.16 1.16 0 0 1 .292 1.605l-8.114 11.59a1.148 1.148 0 0 1-.848.495.85.85 0 0 1-.101 0Z"/><path fill="#D9BFFF" d="M201.494 157.152h83.328v3.472h-83.328z"/><rect width="27.776" height="27.776" x="284.822" y="145" fill="#592ACB" rx="13.888"/><path fill="#fff" d="M296.387 165.843c-.307 0-.602-.122-.819-.339l-3.477-3.478a1.157 1.157 0 0 1 .823-1.964c.304-.002.597.114.815.326l2.501 2.5 7.32-10.459a1.155 1.155 0 0 1 1.608-.276 1.157 1.157 0 0 1 .292 1.605l-8.113 11.59a1.152 1.152 0 0 1-.849.495.85.85 0 0 1-.101 0Z"/><path fill="#D9BFFF" d="M312.598 157.152h41.664v3.472h-41.664z"/><path fill="#D9BFFF" d="M354.261 157.152h39.06v3.472h-39.06z"/><rect width="31.248" height="31.248" x="391.585" y="143.264" fill="#592ACB" rx="15.624"/><path fill="#fff" d="m413.909 164.363-4.179-4.179a5.217 5.217 0 1 0-1.225 1.225l4.179 4.179a.864.864 0 0 0 1.215-.011.867.867 0 0 0 .01-1.214Zm-8.412-3.721a3.465 3.465 0 0 1-2.451-5.917 3.466 3.466 0 1 1 2.451 5.917Z"/><rect width="31.248" height="31.248" x="391.585" y="143.264" stroke="#D9BFFF" stroke-width="3.472" rx="15.624"/><path fill="#592ACB" d="M164.268 186.563c-.244-.803-.866-1.291-1.779-1.291-1.225 0-2.109.947-2.109 2.652 0 1.716.87 2.667 2.138 2.667 1.139 0 1.861-.685 1.883-1.765h-1.746v-1.072h3.074v.91c0 1.952-1.343 3.158-3.218 3.158-2.09 0-3.51-1.487-3.51-3.883 0-2.442 1.487-3.899 3.469-3.899 1.676 0 2.963 1.036 3.196 2.523h-1.398Zm5.244 5.267c-1.713 0-2.76-1.136-2.76-2.919 0-1.753 1.062-2.948 2.69-2.948 1.398 0 2.596.877 2.596 2.871v.41h-3.958c.011.973.585 1.543 1.45 1.543.577 0 1.021-.252 1.202-.733l1.251.141c-.237.987-1.147 1.635-2.471 1.635Zm-1.428-3.488h2.671c-.008-.773-.526-1.336-1.295-1.336-.799 0-1.335.611-1.376 1.336Zm7.924-2.305v1.036h-1.121v2.937c0 .54.27.658.607.658.166 0 .318-.033.392-.052l.225 1.047a2.683 2.683 0 0 1-.787.133c-1.006.03-1.783-.495-1.776-1.564v-3.159h-.806v-1.036h.806v-1.361h1.339v1.361h1.121Zm8.194 1.502-1.221.133c-.103-.373-.429-.71-1.047-.71-.558 0-.984.266-.98.651-.004.329.226.529.803.658l.969.208c1.073.233 1.594.728 1.598 1.538-.004 1.077-1.006 1.813-2.427 1.813-1.394 0-2.271-.618-2.437-1.661l1.306-.126c.114.511.514.777 1.128.777.636 0 1.058-.292 1.058-.681 0-.321-.245-.532-.766-.647l-.969-.203c-1.091-.226-1.602-.773-1.598-1.602-.004-1.05.928-1.724 2.297-1.724 1.331 0 2.101.614 2.286 1.576Zm4.063-1.502v1.036h-1.121v2.937c0 .54.27.658.607.658.166 0 .318-.033.392-.052l.226 1.047a2.698 2.698 0 0 1-.788.133c-1.006.03-1.783-.495-1.776-1.564v-3.159h-.806v-1.036h.806v-1.361h1.339v1.361h1.121Zm2.755 5.796c-1.084 0-1.902-.591-1.902-1.708 0-1.28 1.055-1.609 2.157-1.728 1.002-.107 1.405-.126 1.405-.51v-.022c0-.559-.34-.877-.961-.877-.655 0-1.032.333-1.165.721l-1.251-.177c.296-1.036 1.214-1.569 2.408-1.569 1.084 0 2.308.452 2.308 1.953v3.803h-1.287v-.781h-.044c-.244.477-.777.895-1.668.895Zm.347-.983c.807 0 1.317-.537 1.317-1.169v-.67c-.174.141-.876.23-1.228.278-.599.085-1.047.299-1.047.813 0 .492.4.748.958.748Zm3.999.869v-5.682h1.298v.947h.059c.207-.658.751-1.028 1.402-1.028.148 0 .359.015.481.037v1.232a2.559 2.559 0 0 0-.621-.078c-.736 0-1.28.51-1.28 1.232v3.34h-1.339Zm7.272-5.682v1.036h-1.121v2.937c0 .54.27.658.607.658.166 0 .318-.033.392-.052l.225 1.047a2.691 2.691 0 0 1-.788.133c-1.006.03-1.782-.495-1.775-1.564v-3.159h-.806v-1.036h.806v-1.361h1.339v1.361h1.121Zm3.574 5.793c-1.713 0-2.76-1.136-2.76-2.919 0-1.753 1.062-2.948 2.689-2.948 1.399 0 2.597.877 2.597 2.871v.41h-3.958c.011.973.585 1.543 1.45 1.543.577 0 1.021-.252 1.202-.733l1.251.141c-.237.987-1.147 1.635-2.471 1.635Zm-1.428-3.488h2.671c-.008-.773-.526-1.336-1.295-1.336-.799 0-1.335.611-1.376 1.336Zm7.195 3.477c-1.339 0-2.341-1.062-2.341-2.934 0-1.893 1.032-2.922 2.345-2.922 1.002 0 1.42.603 1.624 1.014h.055v-2.833h1.343v7.575h-1.317v-.895h-.081c-.211.414-.651.995-1.628.995Zm.374-1.099c.854 0 1.335-.74 1.335-1.842s-.473-1.816-1.335-1.816c-.892 0-1.35.758-1.35 1.816 0 1.065.466 1.842 1.35 1.842ZM274.5 191.719v-7.575h4.927v1.15h-3.555v2.056h3.299v1.151h-3.299v2.067h3.584v1.151H274.5Zm7.606-3.329v3.329h-1.339v-5.682h1.28v.966h.067c.259-.633.843-1.04 1.694-1.04 1.172 0 1.949.777 1.946 2.138v3.618h-1.339v-3.411c0-.758-.415-1.213-1.106-1.213-.707 0-1.203.474-1.203 1.295Zm7.846-2.353v1.036h-1.121v2.937c0 .54.27.658.607.658.166 0 .318-.033.392-.052l.225 1.047a2.691 2.691 0 0 1-.788.133c-1.006.03-1.782-.495-1.775-1.564v-3.159h-.806v-1.036h.806v-1.361h1.339v1.361h1.121Zm3.574 5.793c-1.713 0-2.76-1.136-2.76-2.919 0-1.753 1.062-2.948 2.689-2.948 1.399 0 2.597.877 2.597 2.871v.41h-3.958c.011.973.585 1.543 1.45 1.543.577 0 1.021-.252 1.202-.733l1.251.141c-.237.987-1.147 1.635-2.471 1.635Zm-1.428-3.488h2.671c-.008-.773-.526-1.336-1.295-1.336-.799 0-1.335.611-1.376 1.336Zm5.087 3.377v-5.682h1.298v.947h.059c.207-.658.751-1.028 1.402-1.028.148 0 .359.015.481.037v1.232a2.559 2.559 0 0 0-.621-.078c-.736 0-1.28.51-1.28 1.232v3.34h-1.339Zm6.713 0v-5.682h1.339v5.682h-1.339Zm.673-6.488c-.429 0-.776-.326-.776-.725 0-.403.347-.729.776-.729.426 0 .773.326.773.729 0 .399-.347.725-.773.725Zm3.382 3.159v3.329h-1.339v-5.682h1.28v.966h.066c.259-.633.844-1.04 1.695-1.04 1.172 0 1.949.777 1.945 2.138v3.618h-1.339v-3.411c0-.758-.414-1.213-1.106-1.213-.706 0-1.202.474-1.202 1.295Zm7.886-2.353v1.036h-1.18v4.646h-1.339v-4.646h-.84v-1.036h.84v-.536c0-1.147.788-1.713 1.776-1.713.462 0 .843.097 1.017.156l-.27 1.035a1.737 1.737 0 0 0-.5-.081c-.499 0-.684.248-.684.692v.447h1.18Zm3.313 5.793c-1.664 0-2.722-1.173-2.722-2.93 0-1.76 1.058-2.937 2.722-2.937 1.665 0 2.723 1.177 2.723 2.937 0 1.757-1.058 2.93-2.723 2.93Zm.008-1.073c.906 0 1.357-.821 1.357-1.86 0-1.04-.451-1.872-1.357-1.872-.921 0-1.373.832-1.373 1.872 0 1.039.452 1.86 1.373 1.86ZM371.54 191.719v-7.575h4.853v1.15h-3.48v2.056h3.147v1.151h-3.147v3.218h-1.373Zm6.044 0v-5.682h1.339v5.682h-1.339Zm.674-6.488c-.43 0-.777-.326-.777-.725 0-.403.347-.729.777-.729.425 0 .773.326.773.729 0 .399-.348.725-.773.725Zm3.381 3.159v3.329H380.3v-5.682h1.28v.966h.067c.259-.633.843-1.04 1.694-1.04 1.172 0 1.949.777 1.945 2.138v3.618h-1.339v-3.411c0-.758-.414-1.213-1.106-1.213-.706 0-1.202.474-1.202 1.295Zm7.117 3.429c-1.339 0-2.342-1.062-2.342-2.934 0-1.893 1.032-2.922 2.345-2.922 1.003 0 1.421.603 1.624 1.014h.056v-2.833h1.342v7.575h-1.316v-.895h-.082c-.211.414-.651.995-1.627.995Zm.373-1.099c.855 0 1.336-.74 1.336-1.842s-.474-1.816-1.336-1.816c-.891 0-1.35.758-1.35 1.816 0 1.065.466 1.842 1.35 1.842Zm9.178 1.11c-1.712 0-2.759-1.136-2.759-2.919 0-1.753 1.061-2.948 2.689-2.948 1.398 0 2.596.877 2.596 2.871v.41h-3.957c.011.973.584 1.543 1.45 1.543.577 0 1.021-.252 1.202-.733l1.25.141c-.237.987-1.147 1.635-2.471 1.635Zm-1.428-3.488h2.671c-.007-.773-.525-1.336-1.295-1.336-.799 0-1.335.611-1.376 1.336Zm6.07-2.305 1.147 2.098 1.165-2.098h1.417l-1.713 2.841 1.742 2.841h-1.409l-1.202-2.046-1.191 2.046h-1.421l1.731-2.841-1.686-2.841h1.42Zm4.764 7.812v-7.812h1.317v.94h.078c.203-.411.621-1.014 1.624-1.014 1.313 0 2.345 1.029 2.345 2.922 0 1.872-1.003 2.934-2.342 2.934-.976 0-1.416-.581-1.627-.995h-.056v3.025h-1.339Zm1.313-4.971c0 1.102.481 1.842 1.336 1.842.884 0 1.35-.777 1.35-1.842 0-1.058-.459-1.816-1.35-1.816-.862 0-1.336.714-1.336 1.816Zm7.675 2.952c-1.664 0-2.722-1.173-2.722-2.93 0-1.76 1.058-2.937 2.722-2.937 1.665 0 2.723 1.177 2.723 2.937 0 1.757-1.058 2.93-2.723 2.93Zm.008-1.073c.906 0 1.357-.821 1.357-1.86 0-1.04-.451-1.872-1.357-1.872-.921 0-1.372.832-1.372 1.872 0 1.039.451 1.86 1.372 1.86Zm8.342-3.218-1.221.133c-.104-.373-.429-.71-1.047-.71-.558 0-.984.266-.98.651-.004.329.226.529.803.658l.969.208c1.073.233 1.594.728 1.598 1.538-.004 1.077-1.006 1.813-2.427 1.813-1.394 0-2.271-.618-2.437-1.661l1.305-.126c.115.511.515.777 1.129.777.636 0 1.057-.292 1.057-.681 0-.321-.244-.532-.765-.647l-.969-.203c-1.091-.226-1.602-.773-1.598-1.602-.004-1.05.928-1.724 2.297-1.724 1.331 0 2.101.614 2.286 1.576Zm4.847 1.79v-3.292h1.339v5.682h-1.298v-1.01h-.059c-.259.636-.859 1.084-1.709 1.084-1.117 0-1.894-.773-1.894-2.138v-3.618h1.339v3.411c0 .721.429 1.176 1.072 1.176.592 0 1.21-.429 1.21-1.295Zm2.716 2.39v-5.682h1.298v.947h.059c.208-.658.751-1.028 1.402-1.028.148 0 .359.015.481.037v1.232a2.559 2.559 0 0 0-.621-.078c-.736 0-1.28.51-1.28 1.232v3.34h-1.339Zm6.411.111c-1.713 0-2.759-1.136-2.759-2.919 0-1.753 1.061-2.948 2.689-2.948 1.398 0 2.596.877 2.596 2.871v.41h-3.958c.012.973.585 1.543 1.45 1.543.577 0 1.021-.252 1.203-.733l1.25.141c-.237.987-1.147 1.635-2.471 1.635Zm-1.428-3.488h2.671c-.008-.773-.526-1.336-1.295-1.336-.799 0-1.335.611-1.376 1.336Zm9.577-.803-1.22.133c-.104-.373-.429-.71-1.047-.71-.559 0-.984.266-.98.651-.004.329.225.529.802.658l.97.208c1.072.233 1.594.728 1.597 1.538-.003 1.077-1.006 1.813-2.426 1.813-1.394 0-2.271-.618-2.438-1.661l1.306-.126c.115.511.514.777 1.128.777.637 0 1.058-.292 1.058-.681 0-.321-.244-.532-.765-.647l-.97-.203c-1.091-.226-1.601-.773-1.597-1.602-.004-1.05.928-1.724 2.296-1.724 1.332 0 2.101.614 2.286 1.576Z"/></g></g><defs><radialGradient id="c" cx="0" cy="0" r="1" gradientTransform="matrix(-91.00646 44.78467 -35.48405 -72.10675 188.711 309)" gradientUnits="userSpaceOnUse"><stop stop-color="#9D62FC"/><stop offset="1" stop-color="#FD3296"/></radialGradient><clipPath id="b"><rect width="507.821" height="358.053" x="55.486" y="59.105" fill="#fff" rx="5.951"/></clipPath><filter id="a" width="531.625" height="381.857" x="43.584" y="51.171" color-interpolation-filters="sRGB" filterUnits="userSpaceOnUse"><feFlood flood-opacity="0" result="BackgroundImageFix"/><feColorMatrix in="SourceAlpha" result="hardAlpha" values="0 0 0 0 0 0 0 0 0 0 0 0 0 0 0 0 0 0 127 0"/><feOffset dy="3.967"/><feGaussianBlur stdDeviation="5.951"/><feComposite in2="hardAlpha" operator="out"/><feColorMatrix values="0 0 0 0 0 0 0 0 0 0 0 0 0 0 0 0 0 0 0.08 0"/><feBlend in2="BackgroundImageFix" result="effect1_dropShadow_600_11396"/><feBlend in="SourceGraphic" in2="effect1_dropShadow_600_11396" result="shape"/></filter></defs></svg>
