<svg xmlns="http://www.w3.org/2000/svg" viewBox="0 0 280 280" width="280" height="280"><defs><style>.a{fill:#fff;}</style></defs><path class="a" d="M109 137.2c1.3 1.6 1.9 4.9 1.9 9.8 0 8.6-1.8 12.3-5.9 12.3a5.3 5.3 0 0 1-4.9-3c-.8-1.8-1.2-5-1.2-9.2a25.7 25.7 0 0 1 1-8.1 5.2 5.2 0 0 1 9.1-1.8zm12.3-18.2c2.1 0 2.9-1.6 2.9-5.8s-.9-5.7-2.9-5.7-2.9 1.6-2.9 5.7.9 5.8 2.9 5.8zm101.5 36.1c0 2.8 1.8 4.8 4.2 4.8a6.9 6.9 0 0 0 5-2.5l.2-7.8h-.4c-6.6-.1-9 1.1-9 5.5zM72.3 107.9l-1.4 7.1h2.8zM280 140A140 140 0 1 1 140 0a140 140 0 0 1 140 140zm-148.5-17.8h5.4v-6.7h4.9v-3.7h-4.9v-4h5.6l.5-3.7h-11.5v18.1zm-18.6-9.1c0 6 3 9.6 8.5 9.6s8.5-3.7 8.5-9.6-3-9.5-8.5-9.5-8.5 3.7-8.5 9.6zm-18.6 9.1H106v-3.7h-6.4v-3.6h5.3v-3.6h-5.3v-3.4h6l.5-3.7H94.2v18.1zm-25.2-18.1l-5.3 18.1h5.6l.7-3.5h4.3l.7 3.5h5.7l-5.3-18.1h-6.4zm-17.4 4h4.4v14.1h5.4v-14.1h4.1l.5-4H51.7v4zm-6 9.1c0 .9-.7 1.6-2.3 1.6A6.7 6.7 0 0 1 39 117l-2.6 3a10.1 10.1 0 0 0 7.3 2.7c4.8 0 7.6-2.4 7.6-5.9s-1.7-4.9-5.4-6.1-3.3-1.1-3.3-2.1.6-1.3 2-1.3a6 6 0 0 1 3.9 1.5l2.4-2.8a9.1 9.1 0 0 0-6.7-2.5c-4 0-7 2.1-7 5.5s1.3 4.5 5.6 5.8c2.3.9 2.9 1.4 2.9 2.5zM83 139.5c0-5-.7-7.1-2.7-8.9a11.4 11.4 0 0 0-7.2-2.3c-4 0-7 1.3-10.3 4.8a11.6 11.6 0 0 0-1.4-1.8 9.8 9.8 0 0 0-7.4-3 12.5 12.5 0 0 0-8.9 3.7 9.3 9.3 0 0 0-1.3-3.7l-8.8 2.3c1 1.8 1.4 4.1 1.4 9.3v25.5h9.3v-26.5a10.1 10.1 0 0 1 6.3-2.8c2.7 0 3.3 1.1 3.3 5.6v23.8h9.1v-26.3c2.1-1.9 4.6-3.1 6.3-3.1s3 .8 3 5.2v24.1H83v-26zm.3-31.4v14.1h5.4v-14.1h4.1l.5-4H78.9v4h4.4zm38 38.9c0-5.9-1.3-9.9-4.2-13.3a15.3 15.3 0 0 0-12.4-5.5c-9.9 0-16.4 7.6-16.4 19.1s6.5 18.9 16.4 18.9c5.6 0 9.3-1.9 12-5.1s4.6-7.8 4.6-14zm31.4 11.8H136l16.1-23.3v-6.6H125v6.7h15.7l-17.2 23.9v5.9h26.9zm14.4-30.8l-9.6 1.5v35.9h9.6v-37.3zm1.1-9.2a5.8 5.8 0 0 0-5.8-5.9 6 6 0 0 0-6 5.9 5.95 5.95 0 1 0 11.9.1zm21.6 46.4l-1.6-5.7h-1.1a2.2 2.2 0 0 1-1.9-1c-.6-1-.6-1.8-.6-8.1v-28.2a56.2 56.2 0 0 0-.5-9.5l-9.8 2.2a95 95 0 0 1 .5 11v27.3c0 5.2.2 6.4.9 8.2s4.4 5 8.5 5a16 16 0 0 0 5.6-1.1zm19.8 0l-1.6-5.7h-1.1a2.1 2.1 0 0 1-1.9-1c-.6-1-.7-1.8-.7-8.1v-28.2c0-5.2-.1-7.5-.5-9.5l-9.8 2.2a91.6 91.6 0 0 1 .5 11v27.3c0 5.2.1 6.4.8 8.2s4.4 5 8.5 5a15.9 15.9 0 0 0 5.9-1.1zm30.3 2l5.1-5.9c-2.8-2.1-3.4-3.6-3.4-7.5v-.6l.2-12.3c0-3.9-.2-5.1-.6-6.6-1.4-4.1-5.6-6.3-11.8-6.3a24.5 24.5 0 0 0-10 2.1 35.1 35.1 0 0 0-5.9 3l4.1 6.9c3.9-2.6 7.5-4.1 10.5-4.1s4.3 1.4 4.3 5.4v1.5h-2.2c-11.6 0-17.6 4-17.6 12.6s4.4 11.4 12.6 11.4a12.6 12.6 0 0 0 7.4-2 16.4 16.4 0 0 0 2.2-1.9 10.2 10.2 0 0 0 5.1 4.4z"/></svg>
