<svg xmlns="http://www.w3.org/2000/svg" xmlns:xlink="http://www.w3.org/1999/xlink" xmlns:a="http://ns.adobe.com/AdobeSVGViewerExtensions/3.0/" version="1.1" x="0px" y="0px" width="24px" height="24px" viewBox="0 0 24 24" overflow="visible" enable-background="new 0 0 24 24" xml:space="preserve"><style>.style0{fill:  #6FBF4A;}.style1{fill:  #FFFFFF;}</style><defs></defs><circle cx="12" cy="12" r="12" class="style0"/><path d="M18.32 10.24l-6.64 6.56c-0.16 0.16-0.4 0.32-0.72 0.32c-0.24 0-0.48-0.08-0.72-0.32l-4.56-4.56 c-0.16-0.16-0.32-0.4-0.32-0.72s0.08-0.48 0.32-0.72l1.6-1.6C7.44 9 7.7 8.9 8 8.88c0.24 0 0.5 0.1 0.7 0.32l2.32 2.3 l4.24-4.32c0.16-0.16 0.4-0.32 0.72-0.32c0.24 0 0.5 0.1 0.7 0.32l1.6 1.6c0.16 0.2 0.3 0.4 0.3 0.7 C18.56 9.8 18.5 10 18.3 10.24z" class="style1"/></svg>