<svg xmlns="http://www.w3.org/2000/svg" width="24" height="24" fill="none" viewBox="0 0 24 24">
  <path fill="#fff" d="M0 0h24v24H0V0z"/>
  <path stroke="#000" stroke-linecap="round" stroke-linejoin="round" stroke-width="2" d="M21.3036 5.52214c-.5376-.48256-1.1758-.86536-1.8783-1.12654C18.7228 4.13443 17.9699 4 17.2095 4c-.7604 0-1.5134.13443-2.2159.3956-.7024.26118-1.3407.64398-1.8783 1.12654l-1.1156 1.00102-1.1156-1.00102c-1.08583-.97429-2.55854-1.52163-4.09413-1.52163-1.5356 0-3.0083.54734-4.09413 1.52163C1.61001 6.49643 1 7.81785 1 9.1957c0 1.3779.61001 2.6993 1.69584 3.6736l1.11563 1.001 8.18823 7.3471 8.1883-7.3471 1.1156-1.001c.5378-.4824.9644-1.0551 1.2555-1.6854.2911-.6303.4409-1.30591.4409-1.9882 0-.68229-.1498-1.35789-.4409-1.98821s-.7177-1.20301-1.2555-1.68535v0z"/>
</svg>
