<svg xmlns="http://www.w3.org/2000/svg" width="24" height="24" fill="none" viewBox="0 0 24 24">
  <path fill="#fff" d="M0 0h24v24H0V0z"/>
  <path fill="#000" d="M0 0v24h24V0H0zm21.8118 17.2941h-4.3412v-5.8588c0-1.80001-.6-2.47059-1.7647-2.47059-1.4118 0-1.9765 1.02353-1.9765 2.43529V15h1.3765v2.2588h-4.3412v-5.8235c0-1.80001-.6-2.47059-1.7647-2.47059-1.41176 0-1.97647 1.02353-1.97647 2.43529V15H9v2.2588H2.64706V15h1.37647V9.17647H2.64706V6.91765h4.34117v1.55294c.6353-1.09412 1.69412-1.76471 3.14117-1.76471 1.4824 0 2.8588.70588 3.353 2.22353.5647-1.37647 1.7294-2.22353 3.3529-2.22353 1.8706 0 3.5647 1.12941 3.5647 3.56472v4.7647h1.4118v2.2588z"/>
</svg>
