<svg width="24" height="24" viewBox="0 0 24 24" fill="none" xmlns="http://www.w3.org/2000/svg">
<g id="icon/M">
<path d="M0 0H24V24H0V0Z" fill="white"/>
<path id="Vector" d="M0 0V24H24V0H0ZM21.8118 17.2941H17.4706V11.4353C17.4706 9.63529 16.8706 8.96471 15.7059 8.96471C14.2941 8.96471 13.7294 9.98824 13.7294 11.4V15H15.1059V17.2588H10.7647V11.4353C10.7647 9.63529 10.1647 8.96471 9 8.96471C7.58824 8.96471 7.02353 9.98824 7.02353 11.4V15H9V17.2588H2.64706V15H4.02353V9.17647H2.64706V6.91765H6.98823V8.47059C7.62353 7.37647 8.68235 6.70588 10.1294 6.70588C11.6118 6.70588 12.9882 7.41176 13.4824 8.92941C14.0471 7.55294 15.2118 6.70588 16.8353 6.70588C18.7059 6.70588 20.4 7.83529 20.4 10.2706V15.0353H20.4353H21.8118V17.2941Z" fill="black"/>
</g>
</svg>
