<svg width="24" height="24" viewBox="0 0 24 24" fill="none" xmlns="http://www.w3.org/2000/svg">
<g clip-path="url(#clip0)">
<path d="M0 0H24V24H0V0Z" fill="white"/>
<path d="M23.6762 3.01006C22.6456 3.68553 21.5046 4.20217 20.297 4.54006C19.6488 3.84757 18.7874 3.35675 17.8293 3.13398C16.8712 2.91122 15.8625 2.96725 14.9398 3.29451C14.017 3.62177 13.2247 4.20446 12.67 4.96377C12.1152 5.72309 11.8249 6.62239 11.8381 7.54006V8.54006C9.94683 8.58562 8.0728 8.19587 6.3829 7.4055C4.69299 6.61513 3.23967 5.44869 2.15238 4.01006C2.15238 4.01006 -2.15238 13.0101 7.53333 17.0101C5.31695 18.408 2.67665 19.109 0 19.0101C9.68571 24.0101 21.5238 19.0101 21.5238 7.51006C21.5228 7.23151 21.494 6.95365 21.4377 6.68006C22.5361 5.67355 23.3112 4.40277 23.6762 3.01006V3.01006Z" stroke="black" stroke-width="2" stroke-linecap="round" stroke-linejoin="round"/>
</g>
<defs>
<clipPath id="clip0">
<path d="M0 0H24V24H0V0Z" fill="white"/>
</clipPath>
</defs>
</svg>
