<svg xmlns="http://www.w3.org/2000/svg" width="24" height="24" fill="none" viewBox="0 0 24 24">
  <g clip-path="url(#clip0)">
    <path fill="#fff" d="M0 0h24v24H0V0z"/>
    <path stroke="#000" stroke-linecap="round" stroke-linejoin="round" stroke-width="2" d="M23.6762 3.01006c-1.0306.67547-2.1716 1.19211-3.3792 1.53-.6482-.69249-1.5096-1.18331-2.4677-1.40608-.9581-.22276-1.9668-.16673-2.8895.16053-.9228.32726-1.7151.90995-2.2698 1.66926-.5548.75932-.8451 1.65862-.8319 2.57629v1c-1.89127.04556-3.7653-.34419-5.4552-1.13456-1.68991-.79037-3.14323-1.95681-4.23052-3.39544 0 0-4.30476 9.00004 5.38095 13.00004-2.21638 1.3979-4.85668 2.0989-7.53333 2 9.68571 5 21.5238 0 21.5238-11.50004-.001-.27855-.0298-.55641-.0861-.83 1.0984-1.00651 1.8735-2.27729 2.2385-3.67v0z"/>
  </g>
  <defs>
    <clipPath id="clip0">
      <path fill="#fff" d="M0 0h24v24H0V0z"/>
    </clipPath>
  </defs>
</svg>
