<svg xmlns="http://www.w3.org/2000/svg" width="418" height="532" viewBox="0 0 418 532" fill="none"><path fill="#F8F6F4" stroke="#333336" stroke-width="4" d="M11.58 128.669c-5.014-20.375 7.427-40.96 27.798-45.992L327.284 11.55c20.397-5.04 41.015 7.422 46.035 27.824 5.014 20.375-7.428 40.96-27.798 45.992L57.614 156.494c-20.397 5.039-41.015-7.423-46.035-27.825Z"/><path fill="#333336" d="m289.612 73.99-2.171-10.444-7.386 7.706-3.231-3.397 8.042-7.069-10.404-2.53 1.286-4.508 10.119 3.399-2.924-10.26 4.517-1.111 2.171 10.444 7.386-7.706 3.231 3.397-8.042 7.07 10.404 2.53-1.286 4.508-10.118-3.4 2.923 10.26zM327.003 63.4l-2.171-10.445-7.386 7.706-3.231-3.397 8.041-7.069-10.403-2.53 1.286-4.508 10.118 3.399-2.923-10.26 4.517-1.111 2.171 10.444 7.386-7.706 3.231 3.397-8.042 7.07 10.404 2.53-1.286 4.508-10.119-3.4 2.924 10.26zM55.669 131.828l-2.171-10.444-7.386 7.706-3.231-3.397 8.041-7.069-10.403-2.53 1.286-4.509 10.118 3.399L49 104.725l4.517-1.112 2.17 10.445 7.387-7.706 3.23 3.397-8.04 7.069 10.403 2.53-1.286 4.508-10.119-3.398 2.924 10.259zM249.969 83.74l-2.17-10.446L240.413 81l-3.231-3.396 8.041-7.07-10.403-2.53 1.286-4.508 10.118 3.399-2.924-10.26 4.518-1.111 2.17 10.445 7.386-7.706 3.232 3.397-8.042 7.069 10.404 2.53-1.286 4.508-10.119-3.399 2.924 10.26zM210.358 93.488l-2.171-10.445-7.386 7.706-3.231-3.397 8.042-7.069-10.404-2.53 1.286-4.508 10.119 3.398-2.924-10.259 4.517-1.112 2.171 10.445 7.386-7.706 3.231 3.397-8.041 7.069 10.403 2.53-1.286 4.509-10.118-3.4 2.923 10.26zM170.78 103.231l-2.171-10.445-7.386 7.706-3.231-3.397 8.042-7.069-10.404-2.53 1.286-4.508 10.119 3.399-2.924-10.26 4.517-1.111 2.171 10.444 7.386-7.706 3.231 3.397-8.042 7.07 10.404 2.53-1.286 4.508-10.118-3.4 2.923 10.26zM131.137 112.985l-2.17-10.445-7.386 7.706-3.232-3.397 8.042-7.068-10.403-2.53 1.286-4.51 10.118 3.4-2.924-10.26 4.518-1.111 2.17 10.445 7.386-7.707 3.232 3.397-8.042 7.07 10.404 2.53-1.287 4.508-10.118-3.399 2.924 10.259zM91.536 122.728l-2.17-10.445-7.387 7.706-3.231-3.396 8.042-7.069-10.404-2.531 1.286-4.508 10.118 3.399-2.923-10.26 4.517-1.111 2.17 10.445 7.387-7.706 3.231 3.397-8.042 7.068 10.404 2.531-1.286 4.508-10.119-3.399 2.924 10.26z"/><path fill="url(#a)" stroke="#333336" stroke-linejoin="round" stroke-width="4" d="M97.24 329.06c-.871-.374-1.649-1.001-2.418-1.973-16.568-20.864-27.58-39.233-34.65-57.81-4.995-13.109-6.648-23.501-5.337-33.71.47-3.732 1.312-7.027 2.476-9.806 7.393-17.492 15.012-35.222 22.384-52.374l6.345-14.788c.156-.366.343-.704.443-.871l.47-1.095 1.288.022c1.426.026 2.837.087 4.23.155 2.939.144 5.703.269 8.399.003 8.691-.876 16.149-4.96 22.804-12.471 1.6-1.811 3.245-2.166 5.496-1.201l43.187 18.527 19.844 8.513 17.593 7.547c1.131.486 3.205 1.375 2.967 4.566-1.11 14.425 3.639 25.21 14.536 32.983.258.18.5.395.774.667l.31.286 1.025.928-1.577 3.676c-2.578 6.01-5.18 12.01-7.781 18.009-6.129 14.156-12.471 28.778-18.401 43.284-4.523 11.063-12.087 19.621-23.123 26.189-12.012 7.153-25.607 12.175-41.567 15.36-8.165 1.632-16.535 2.799-24.63 3.944-4.011.568-8.016 1.124-12.007 1.742-1.15.176-2.155.08-3.074-.314z"/><path stroke="#333336" stroke-linecap="round" stroke-linejoin="round" stroke-width="4" d="m98 327.5 73.596-165.368"/><path fill="url(#b)" stroke="#333336" stroke-linejoin="round" stroke-width="4" d="M273.591 132.309c-1.561-7.349-9.3-12.323-16.704-11.107-7.905 1.296-13.788 9.076-12.139 16.834l16.459 77.464c.2.939.352 1.709-.585 1.908s-1.11-.567-1.31-1.506l-10.526-49.54c-1.649-7.758-10.187-12.474-17.935-10.444-7.26 1.899-11.551 9.43-9.99 16.779l10.445 49.156C244.614 284.484 265 334.5 317.395 328.017c52.887-6.544 54.628-29.997 63.535-58.945 8.908-28.948 13.645-58.397 13.645-58.397 3.096-8.802-1.684-18.481-10.65-21.304-8.546-2.689-17.647 2.189-20.622 10.644l-6.75 21.147-19.415-91.373c-1.648-7.758-10.186-12.474-17.934-10.444-7.26 1.9-12.309 9.582-10.746 16.939l14.063 66.188c.2.939.352 1.709-.584 1.908-.937.199-1.111-.567-1.311-1.506l-19.404-91.322c-1.648-7.758-10.186-12.474-17.935-10.444-7.259 1.9-12.309 9.582-10.745 16.939l19.322 90.939c.2.939.352 1.709-.584 1.908-.937.199-1.111-.567-1.311-1.506z"/><path fill="#F8F6F4" stroke="#333336" stroke-width="4" d="M59.44 365.712h306.774v154.886c0 5.153-4.178 9.331-9.332 9.331H68.772a9.33 9.33 0 0 1-9.333-9.331zM59.23 340.152c0-5.358 4.344-9.702 9.702-9.702h287.372c5.358 0 9.701 4.344 9.701 9.702v25.56H59.231z"/><ellipse cx="84.361" cy="349.037" stroke="#333336" stroke-width="4" rx="6.564" ry="6.547"/><ellipse cx="107.4" cy="349.037" stroke="#333336" stroke-width="4" rx="6.564" ry="6.547"/><ellipse cx="130.611" cy="349.037" stroke="#333336" stroke-width="4" rx="6.564" ry="6.547"/><defs><linearGradient id="a" x1="169.541" x2="97.217" y1="160.46" y2="329.049" gradientUnits="userSpaceOnUse"><stop stop-color="#0290EE"/><stop offset=".784" stop-color="#9059FF"/></linearGradient><linearGradient id="b" x1="289.431" x2="337.162" y1="99.787" y2="324.427" gradientUnits="userSpaceOnUse"><stop stop-color="#FFEA80"/><stop offset="1" stop-color="#FF7139"/></linearGradient></defs></svg>
