<svg xmlns="http://www.w3.org/2000/svg" width="201" height="57" viewBox="0 0 201 57" fill="none"><path fill="#EDEDF0" stroke="#333336" stroke-width="4" d="M79.543 52.927a2.08 2.08 0 0 0 2.695 1.038l4.96-2.093a2.08 2.08 0 0 0 1.087-2.772l-5.103-11.314 10.351-.008c1.81 0 2.755-2.152 1.533-3.486l-1.475 1.351 1.475-1.351-28.73-31.343c-1.282-1.4-3.614-.492-3.614 1.406v41.752c0 1.789 2.108 2.744 3.453 1.564l7.747-6.798z"/><path fill="#EDEDF0" stroke="#333336" stroke-width="4" d="m36.165 47.671 7.747-6.798 5.621 12.054a2.08 2.08 0 0 0 2.695 1.038l4.96-2.093a2.08 2.08 0 0 0 1.087-2.772l-5.102-11.314 10.35-.008c1.81 0 2.756-2.152 1.533-3.486l-1.474 1.351 1.474-1.351-28.73-31.343c-1.282-1.4-3.614-.492-3.614 1.406v41.752c0 1.789 2.108 2.744 3.453 1.564Z"/><path fill="#EDEDF0" stroke="#333336" stroke-width="4" d="M34.344 34.292 5.614 2.949C4.334 1.549 2 2.457 2 4.355v41.752c0 1.789 2.109 2.744 3.453 1.564l7.748-6.798 5.62 12.054a2.08 2.08 0 0 0 2.695 1.038l4.96-2.093a2.08 2.08 0 0 0 1.088-2.772L22.46 37.786l10.35-.008c1.81 0 2.756-2.152 1.533-3.486ZM109.387 47.671l7.747-6.798 5.621 12.054a2.08 2.08 0 0 0 2.695 1.038l4.959-2.093a2.08 2.08 0 0 0 1.088-2.772l-5.103-11.314 10.351-.008c1.81 0 2.755-2.152 1.533-3.486l-1.475 1.351 1.475-1.351-28.729-31.343c-1.283-1.4-3.615-.492-3.615 1.406v41.752c0 1.789 2.108 2.744 3.453 1.564ZM169.453 47.671l7.747-6.798 5.621 12.054a2.08 2.08 0 0 0 2.695 1.038l4.96-2.093a2.08 2.08 0 0 0 1.088-2.772l-5.103-11.314 10.351-.008c1.809 0 2.755-2.152 1.532-3.486L169.615 2.949c-1.282-1.4-3.615-.492-3.615 1.406v41.752c0 1.789 2.109 2.744 3.453 1.564Z"/></svg>
