<svg xmlns="http://www.w3.org/2000/svg" width="644" height="380" viewBox="0 0 644 380" fill="none"><path fill="#fff" stroke="#333336" stroke-linecap="round" stroke-linejoin="round" stroke-width="4" d="M526.593 2H232.492C224.488 2 218 8.489 218 16.493V198.32c0 8.004 6.488 14.493 14.492 14.493h294.101c8.004 0 14.493-6.489 14.493-14.493V16.493C541.086 8.489 534.597 2 526.593 2"/><path fill="url(#a)" stroke="#333336" stroke-linecap="round" stroke-linejoin="round" stroke-width="4" d="M521 14.136H239a8 8 0 0 0-8 8v164a8 8 0 0 0 8 8h282a8 8 0 0 0 8-8v-164a8 8 0 0 0-8-8"/><path fill="#fff" stroke="#333336" stroke-linecap="round" stroke-linejoin="round" stroke-width="4" d="M404.933 212.814H354.58v61.363h50.353z"/><path stroke="#333336" stroke-linecap="round" stroke-linejoin="round" stroke-width="4" d="M310.523 274.177h138.463"/><path fill="#333336" fill-rule="evenodd" d="M0 348.037v4.802a7.36 7.36 0 0 0 7.357 7.35h323.942a7.354 7.354 0 0 0 7.352-7.351v-4.801h-4v4.801a3.354 3.354 0 0 1-3.352 3.351H7.357A3.356 3.356 0 0 1 4 352.836v-4.799z" clip-rule="evenodd"/><path fill="#fff" d="M163.565 351.499h168.992a4.086 4.086 0 0 0 2.599-7.241l-40.931-33.749a4.08 4.08 0 0 0-2.599-.932h-244.6a4.1 4.1 0 0 0-2.604.932L3.496 344.258a4.086 4.086 0 0 0 2.599 7.241h168.993"/><path stroke="#333336" stroke-miterlimit="10" stroke-width="4" d="M163.565 351.499h168.992a4.086 4.086 0 0 0 2.599-7.241l-40.931-33.749a4.08 4.08 0 0 0-2.599-.932h-244.6a4.1 4.1 0 0 0-2.604.932L3.496 344.258a4.086 4.086 0 0 0 2.599 7.241h168.993"/><path stroke="#333336" stroke-linecap="round" stroke-linejoin="round" stroke-width="4" d="M169.555 336.779h115.067l-18.732-20.961H72.765l-18.732 20.961h115.522"/><path fill="#fff" stroke="#333336" stroke-width="4" d="M46 165.136c0-5.523 4.477-10 10-10h227c5.523 0 10 4.477 10 10v144H46z"/><path fill="url(#b)" stroke="#333336" stroke-width="4" d="M57 170.136a6 6 0 0 1 6-6h213a6 6 0 0 1 6 6v120a6 6 0 0 1-6 6H63a6 6 0 0 1-6-6z"/><path fill="#fff" stroke="#333336" stroke-miterlimit="10" stroke-width="4" d="M622.981 106.761h-92.666c-10.244 0-18.547 8.304-18.547 18.547v159.174c0 10.243 8.303 18.547 18.547 18.547h92.666c10.243 0 18.547-8.304 18.547-18.547V125.308c0-10.243-8.304-18.547-18.547-18.547Z"/><path fill="url(#c)" stroke="#333336" stroke-miterlimit="10" stroke-width="4" d="M615.42 117.136h-77.84c-8.605 0-15.58 6.643-15.58 14.836V259.3c0 8.194 6.975 14.836 15.58 14.836h77.84c8.605 0 15.58-6.642 15.58-14.836V131.972c0-8.193-6.975-14.836-15.58-14.836Z"/><path fill="#fff" stroke="#333336" stroke-miterlimit="10" stroke-width="4" d="M543.525 366.921V233.005a10.106 10.106 0 0 0-10.104-10.104h-65.206a10.11 10.11 0 0 0-10.104 10.104v133.916a10.1 10.1 0 0 0 10.104 10.104h65.216a10.102 10.102 0 0 0 10.094-10.104Z"/><path fill="url(#d)" stroke="#333336" stroke-miterlimit="10" stroke-width="4" d="M524.399 367.991h-.024l-53.46.142-.001.001a3.394 3.394 0 0 1-3.404-3.367v-.001l-.995-131.199v-.016a2.86 2.86 0 0 1 2.922-2.903l.021.001h7.472a9.646 9.646 0 0 0 9.44 7.68h29.166a9.65 9.65 0 0 0 9.443-7.638h5.594a5.42 5.42 0 0 1 4.056 5.047l-.117 26.709v102.216a3.383 3.383 0 0 1-3.431 3.391h-.007z"/><defs><linearGradient id="a" x1="380" x2="380" y1="14.136" y2="194.136" gradientUnits="userSpaceOnUse"><stop stop-color="#FF7139"/><stop offset="1" stop-color="#FFEA80"/></linearGradient><linearGradient id="b" x1="169.5" x2="169.5" y1="164.136" y2="296.136" gradientUnits="userSpaceOnUse"><stop stop-color="#FF7139"/><stop offset="1" stop-color="#FFEA80"/></linearGradient><linearGradient id="c" x1="576.5" x2="576.5" y1="117.136" y2="274.136" gradientUnits="userSpaceOnUse"><stop stop-color="#FF7139"/><stop offset="1" stop-color="#FFEA80"/></linearGradient><linearGradient id="d" x1="500.572" x2="500.572" y1="228.648" y2="370.134" gradientUnits="userSpaceOnUse"><stop stop-color="#FF7139"/><stop offset="1" stop-color="#FFEA80"/></linearGradient></defs></svg>
