<svg xmlns="http://www.w3.org/2000/svg" width="111" height="84" viewBox="0 0 111 84" fill="none"><path fill="#EDEDF0" stroke="#333336" stroke-width="4" d="M2 23.323h106.118v52.875c0 3.2-2.585 5.802-5.781 5.802H7.781C4.593 82 2 79.405 2 76.198zM2 7.845C2 4.669 4.586 2.1 7.78 2.1h94.557c3.189 0 5.781 2.569 5.781 5.745v15.478H2z"/><path stroke="#333336" stroke-width="4" d="m57 23 5.19-11.805A2 2 0 0 1 64.02 10h20.96a2 2 0 0 1 1.831 1.195L92.001 23M4 23l5.027-11.785A2 2 0 0 1 10.867 10H38"/><path stroke="#333336" stroke-width="4" d="m21 23 5.184-11.804A2 2 0 0 1 28.014 10H56"/><path stroke="#333336" stroke-width="4" d="m39 23 5.184-11.804A2 2 0 0 1 46.014 10H74"/><path fill="#FFEA80" fill-rule="evenodd" d="M97.659 10v7.321z" clip-rule="evenodd"/><path stroke="#333336" stroke-linecap="round" stroke-linejoin="round" stroke-width="4" d="M97.659 10v7.321"/><path fill="#FFEA80" fill-rule="evenodd" d="M94 13.66h7.321z" clip-rule="evenodd"/><path stroke="#333336" stroke-linecap="round" stroke-linejoin="round" stroke-width="4" d="M94 13.66h7.321"/></svg>
