<svg xmlns="http://www.w3.org/2000/svg" width="511" height="400" viewBox="0 0 511 400" fill="none"><path stroke="#333336" stroke-dasharray="4 8" stroke-linecap="round" stroke-width="4" d="M243.132 365.945c95.297 0 198.553-44.94 235.469-98.441 38.843-56.295 42.973-105.019-9.63-148.732C355.014 24.076-6.324 151.215 2.98 203.303c7.237 40.519 339.195-51.643 258.762-154.082-44.755-57-133.784-31.137-183.86-25.145"/><path fill="#fff" stroke="#333336" stroke-linejoin="round" stroke-width="4" d="M286.115 297.687c81.613 0 147.774-66.161 147.774-147.773 0-81.613-66.161-147.774-147.774-147.774S138.342 68.3 138.342 149.914c0 81.612 66.16 147.773 147.773 147.773Z"/><path stroke="#333336" stroke-linejoin="round" stroke-width="4" d="M434.736 150.337s-90.088 11.236-148.197 11.236c-100.052-.535-148.197-11.236-148.197-11.236M286.539 298.534V2.14"/><path stroke="#333336" stroke-linejoin="round" stroke-width="4" d="M286.065 297.59c44.573 0 80.706-66.139 80.706-147.725S330.638 2.14 286.065 2.14s-80.706 66.139-80.706 147.725 36.134 147.725 80.706 147.725Z"/><path stroke="#333336" stroke-linejoin="round" stroke-width="4" d="M433.792 149.865c0-33.104-66.139-59.94-147.725-59.94s-147.725 26.836-147.725 59.94 66.139 59.939 147.725 59.939 147.725-26.835 147.725-59.939Z"/><path stroke="#333336" stroke-linejoin="round" stroke-width="4" d="M433.792 149.865c0-61.776-66.139-111.856-147.725-111.856S138.342 88.09 138.342 149.865 204.481 261.72 286.067 261.72s147.725-50.079 147.725-111.855Z"/><path fill="url(#a)" fill-rule="evenodd" d="M232.629 43.322c16.117-4.675 33.56-7.295 51.77-7.446V4.313c-19.661.77-37.902 15.125-51.77 39.01m51.77-3.166V87.79c-25.815.115-50.087 2.902-71.212 7.73 3.838-17.572 9.477-33.437 16.482-46.825 16.851-5.347 35.327-8.373 54.73-8.538m4.28.01c19.057.254 37.208 3.268 53.786 8.528 7.005 13.388 12.644 29.253 16.481 46.826-20.866-4.77-44.805-7.547-70.267-7.725zm50.825 3.157c-15.838-4.595-32.957-7.205-50.825-7.437V4.36c19.299 1.185 37.179 15.46 50.825 38.963m8.738 7.317c6.534 13.41 11.755 28.957 15.316 45.979 10.101 2.507 19.42 5.491 27.77 8.879 13.518 5.485 24.599 12.07 32.336 19.491 2.312 2.219 4.337 4.524 6.041 6.908-5.02-22.93-19.499-43.538-40.473-59.42-11.811-8.943-25.662-16.368-40.99-21.837m77.537 57.874c-7.656-14.968-19.333-28.37-33.964-39.45-13.262-10.041-28.973-18.196-46.384-23.91l-.419-.772c-9.53-17.444-21.553-30.86-35.183-38.18 55.407 9.073 100.295 49.415 115.95 102.312m3.926 59.319c-1.704 2.384-3.729 4.689-6.041 6.907-7.737 7.422-18.818 14.007-32.336 19.492-8.35 3.388-17.669 6.372-27.77 8.879-3.561 17.022-8.782 32.568-15.316 45.979 15.328-5.47 29.179-12.895 40.99-21.837 20.974-15.882 35.453-36.49 40.473-59.42m-84.273 86.743c17.41-5.714 33.121-13.869 46.383-23.911 14.674-11.111 26.377-24.56 34.032-39.582-15.618 53.093-60.672 93.582-116.279 102.585 13.738-7.288 25.854-20.764 35.444-38.32q.21-.385.42-.772m-2.967-3.54c7.005-13.388 12.644-29.253 16.481-46.826-20.866 4.77-44.805 7.547-70.267 7.725v47.628c19.057-.253 37.208-3.268 53.786-8.527m-53.786 12.808c17.868-.233 34.987-2.842 50.825-7.437-13.645 23.502-31.525 37.778-50.825 38.963zm-4.28-4.271v-47.632c-25.815-.115-50.087-2.902-71.212-7.731 3.838 17.573 9.477 33.438 16.482 46.826 16.851 5.346 35.327 8.373 54.73 8.537m-51.77-3.166c16.117 4.676 33.56 7.296 51.77 7.447v31.563c-19.661-.77-37.902-15.125-51.77-39.01m-8.737-7.317c-6.534-13.41-11.756-28.957-15.316-45.979-10.102-2.507-19.421-5.491-27.772-8.879-13.517-5.485-24.599-12.07-32.335-19.492-2.312-2.218-4.338-4.523-6.041-6.907 5.02 22.93 19.499 43.538 40.473 59.42 11.811 8.943 25.662 16.368 40.991 21.837m-77.378-57.561c7.658 14.842 19.274 28.135 33.803 39.136 13.262 10.042 28.974 18.197 46.385 23.911l.419.772c9.581 17.538 21.682 31.004 35.402 38.298-55.388-9.022-100.284-49.287-116.009-102.117m.068-83.461c15.763-52.633 60.493-92.752 115.68-101.844-13.612 7.325-25.621 20.732-35.141 38.158q-.21.384-.419.772c-17.41 5.714-33.123 13.869-46.385 23.91-14.485 10.969-26.076 24.215-33.735 39.004m-4.154 23.829c5.02-22.93 19.498-43.538 40.473-59.42 11.811-8.943 25.662-16.368 40.991-21.837-6.534 13.41-11.756 28.957-15.316 45.979-10.102 2.507-19.421 5.491-27.772 8.879-13.517 5.485-24.599 12.07-32.335 19.491-2.313 2.219-4.338 4.524-6.041 6.908m9.004-3.819c-6.804 6.527-10.519 13.451-10.915 20.522l.496.097c1.493.29 3.746.707 6.765 1.209 6.039 1.005 15.146 2.354 27.38 3.721 8.027.897 17.4 1.802 28.136 2.622a276 276 0 0 1-.073-6.384c0-16.999 1.556-33.349 4.431-48.598-9.162 2.354-17.625 5.108-25.238 8.197-13.216 5.362-23.768 11.694-30.982 18.614m30.982 62.188c7.613 3.089 16.076 5.843 25.238 8.197-2.267-12.026-3.714-24.738-4.225-37.912a815 815 0 0 1-28.745-2.67c-12.309-1.375-21.492-2.735-27.607-3.753a268 268 0 0 1-6.376-1.133c.893 6.423 4.529 12.705 10.733 18.657 7.214 6.92 17.766 13.251 30.982 18.614m29.814 9.327c21.197 5.017 45.831 7.949 72.171 8.068V163.7c-30.355-.208-55.878-1.35-76.676-2.833.548 13.513 2.096 26.503 4.505 38.726m76.451 8.062c25.984-.184 50.283-3.105 71.226-8.062 2.478-12.571 4.045-25.954 4.55-39.882-25.037 2.111-52.721 3.891-75.776 3.997zm132.022-36.003c6.237-5.984 9.879-12.302 10.747-18.761l-.444.054c-2.581.307-6.332.747-11.014 1.274a2105 2105 0 0 1-37.362 3.866c-4.477.423-9.121.845-13.877 1.258-.467 13.605-1.933 26.727-4.269 39.12 9.161-2.355 17.624-5.108 25.237-8.197 13.215-5.363 23.768-11.694 30.982-18.614m-30.982-62.188c-7.613-3.089-16.076-5.842-25.237-8.197 2.874 15.249 4.431 31.599 4.431 48.598q0 2.596-.048 5.172c4.574-.399 9.043-.806 13.362-1.213a2099 2099 0 0 0 37.284-3.858c4.672-.526 8.413-.965 10.986-1.271l1.117-.134c-.408-7.057-4.122-13.968-10.913-20.483-7.214-6.92-17.767-13.252-30.982-18.614m-29.814-9.327c-20.943-4.957-45.242-7.878-71.226-8.062v67.352c23.04-.106 50.796-1.898 75.898-4.022q.056-2.757.056-5.54c0-17.477-1.671-34.221-4.728-49.728m-75.506 59.282v-67.35c-26.34.12-50.974 3.05-72.171 8.068-3.056 15.507-4.727 32.251-4.727 49.728q0 3.37.082 6.701c20.779 1.492 46.348 2.645 76.816 2.853M286.084 0h.031c82.794 0 149.913 67.119 149.913 149.913s-67.119 149.914-149.913 149.914-149.914-67.119-149.914-149.914C136.201 67.154 203.261.058 286.007 0h.077" clip-rule="evenodd"/><path fill="#fff" stroke="#333336" stroke-miterlimit="10" stroke-width="4" d="M166.411 164.01c-47.36.05-86.09 37.02-88.94 83.67-.21 3.35-1.12 6.61-2.62 9.6l-.03.05-.02.05-16.14 37.35c-2.17 4.4 1.29 9.46 6.16 9.09l9.45-.99c1.63-.17 3.1.97 3.34 2.59l6.05 41.01c.91 6.18 6.74 10.4 12.9 9.32l31.11-5.44a2.48 2.48 0 0 1 2.78 2.47v41.49c0 1.78 1.44 3.22 3.22 3.22h82.72c1.78 0 3.22-1.44 3.22-3.22v-17.5c0-19.9 5.97-39.28 16.6-56.08 10.63-16.81 19.45-46.95 19.45-63.57 0-55.97-38.85-93.17-89.25-93.12z"/><path fill="url(#b)" stroke="#333336" stroke-linecap="round" stroke-linejoin="round" stroke-width="4" d="M237.803 234.342c0-6.795-4.015-12.972-10.192-15.752-1.544-9.574-9.42-16.987-18.994-17.759-2.626-5.405-8.185-8.957-14.362-8.957-.772 0-1.544.155-2.317.155h-.154c-.772.154-1.699.309-2.471.617-3.088-2.47-6.949-4.015-10.964-4.015-3.243 0-6.486.927-9.111 2.78-2.78-1.235-5.869-1.853-9.112-1.853-6.331 0-12.354 2.625-16.523 7.412-1.39-.308-2.626-.463-4.016-.463-5.559 0-10.655 2.78-13.589 7.567h-1.39c-.309 0-.618.155-.927.155-.308 0-.463.154-.772.154s-.617.154-.926.309c-.309 0-.464.154-.772.154-.309.155-.618.155-.773.309-.308.155-.617.155-.772.309-.154.154-.463.154-.617.309l-.927.463c-5.405 2.934-9.111 8.648-9.574 15.134v.154c-4.942 4.633-7.722 11.274-7.722 18.068 0 13.744 11.273 25.018 25.017 25.018.464 0 .953 0 1.442-.052 1.75-.103 3.5 0 5.225.361a27 27 0 0 0 3.526.463c4.015 9.883 12.045 15.134 23.009 15.134s23.164 10.655 23.164 23.164v2.316h17.605l-2.007-14.361c12.199 1.235 23.782-6.641 26.87-18.841.463-2.162.772-4.324.772-6.331 7.258-2.625 12.354-9.575 12.354-17.45 0-2.626-.463-5.097-1.544-7.413.927-2.316 1.544-4.787 1.544-7.258"/><path stroke="#333336" stroke-linecap="round" stroke-linejoin="round" stroke-width="4" d="M162.906 209.349s7.155 1.21 11.685 5.714c5.251 5.225 5.251 11.248 5.251 11.248M195.182 211.616s10.166.18 16.06 6.692c6.486 7.155 6.486 14.773 6.486 14.773M163.652 229.967c3.14 4.735 8.545 10.526 16.653 11.273 6.769.617 11.556-1.364 14.876-4.015M149.703 235.732s6.615 5.585 7.49 12.277c.823 6.177-1.133 10.707-1.133 10.707M145.456 246.747c-11.479 3.938-10.32 15.906-9.42 18.635M120.695 219.439s8.339 2.805 13.847 1.956c7.336-1.133 11.994-6.357 11.994-6.357"/><path stroke="#333336" stroke-linecap="round" stroke-linejoin="round" stroke-width="4" d="M143.293 205.103s.438 6.589 3.243 9.935c3.629 4.324 9.369 5.225 9.369 5.225M176.213 268.624s8.751 3.552 16.472 2.291c8.494-1.39 13.744-7.953 13.744-7.953M173.434 239.232s4.529 1.647 6.434 7.516 0 11.994 0 11.994M108.572 221.524s.18 8.931 4.376 12.637c5.07 4.478 13.075 2.96 13.075 2.96s-2.96 3.372-3.192 6.615c-.309 4.684.772 8.828.772 8.828M189.311 192.647c-4.324 2.136-10.346 7.026-8.622 15.52M206.48 242.835c14.105 4.479 18.969 17.193 18.969 23.628"/><defs><linearGradient id="a" x1="286.115" x2="286.115" y1="299.827" y2="0" gradientUnits="userSpaceOnUse"><stop stop-color="#9059FF"/><stop offset="1" stop-color="#0290EE"/></linearGradient><linearGradient id="b" x1="169.315" x2="169.315" y1="188.631" y2="305.996" gradientUnits="userSpaceOnUse"><stop stop-color="#FF7139"/><stop offset="1" stop-color="#FFEA80"/></linearGradient></defs></svg>
