<svg width="227" height="213" viewBox="0 0 227 213" xmlns="http://www.w3.org/2000/svg"><g fill="none" fill-rule="evenodd"><path d="M47 178H32h15zM159 178H61M194 178h-23" stroke="#FFF" stroke-width="4" stroke-linecap="round" stroke-linejoin="round"/><g stroke="#FFF" stroke-linecap="round" stroke-linejoin="round"><path d="M108.923 41S95.51 55.297 57.055 51.722c0 0-17.885 83.995 51.868 107.227M109.55 158.95c69.754-23.233 51.868-107.228 51.868-107.228C122.964 55.297 109.55 41 109.55 41" stroke-width="4"/><path d="M128.266 125.527h-38.06c-2.94 0-5.346-2.405-5.346-5.343v-19.89c0-2.94 2.407-5.343 5.347-5.343h38.06c2.94 0 5.346 2.405 5.346 5.344v19.89c0 2.938-2.406 5.343-5.347 5.343zM99.77 94.62V82.18c0-5.274 4.32-9.588 9.596-9.588 5.277 0 9.595 4.314 9.595 9.588V94.62" stroke-width="4"/><path d="M91.992 94.23V83.09c0-9.48 7.76-17.233 17.245-17.233 9.484 0 17.245 7.754 17.245 17.232v11.14" stroke-width="4"/><path d="M112.627 106.453c0 1.87-1.518 3.387-3.39 3.387-1.873 0-3.39-1.516-3.39-3.387 0-1.87 1.517-3.387 3.39-3.387 1.872 0 3.39 1.517 3.39 3.387z" stroke-width="2.833"/><path stroke-width="2.433" d="M110.707 110.24v7.17h-2.94v-7.17"/></g><ellipse fill-opacity=".15" fill="#FFF" cx="109" cy="106.5" rx="106" ry="106.5"/><g transform="translate(0 26)" stroke="#FFF" stroke-width="3"><rect x="1.5" y="85.154" width="8.243" height="8.154" rx="4.077"/><rect x="180.263" y="106.346" width="8.243" height="8.154" rx="4.077"/><rect x="189.257" y="41.654" width="8.243" height="8.154" rx="4.077"/><rect x="7.121" y="1.5" width="8.243" height="8.154" rx="4.077"/></g><g stroke-linecap="round" stroke="#FFF" stroke-width="4" stroke-linejoin="round"><path d="M220.494 100.908v8.944M224.98 105.38h-8.97M204.794 26v8.944M209.28 30.472h-8.972"/><g><path d="M44.43 140.04v8.944M48.914 144.51h-8.97"/></g><g><path d="M26.486 70.72v8.946M30.97 75.193H22"/></g></g></g></svg>
