<svg width="270" height="212" viewBox="0 0 270 212" xmlns="http://www.w3.org/2000/svg"><g transform="translate(2)" fill="none" fill-rule="evenodd"><g stroke="#FFF" stroke-width="4"><path d="M74.993 179.347H59.43h15.563zM184.227 179.347H86.13M219.563 179.347h-23.206" stroke-linecap="round" stroke-linejoin="round"/><path d="M108.28 32.035c0 4.83-3.935 8.747-8.79 8.747-4.853 0-8.79-3.916-8.79-8.747 0-4.83 3.937-8.748 8.79-8.748 4.855 0 8.79 3.917 8.79 8.748z"/><path stroke-linecap="round" stroke-linejoin="round" d="M95.272 179.347h8.438V46.38h-8.438zM113.38 51.28v51.786s21.798-11.897 35.862-6.298c14.064 5.6 35.16 14.696 47.818 9.098V54.78s-18.283 4.198-38.676-7c-20.393-11.196-45.005 3.5-45.005 3.5z"/></g><circle fill-opacity=".15" fill="#FFF" cx="135" cy="106" r="106"/><g transform="translate(13 54)" stroke="#FFF" stroke-width="3"><rect x="1.5" y="5.968" width="8.184" height="8.169" rx="4.084"/><rect x="37.289" y="39.474" width="8.184" height="8.169" rx="4.084"/><rect x="214" y="1.5" width="8.184" height="8.169" rx="4.084"/><rect x="245.316" y="65.162" width="8.184" height="8.169" rx="4.084"/><rect x="191.632" y="76.331" width="8.184" height="8.169" rx="4.084"/></g><g stroke-linecap="round" stroke="#FFF" stroke-width="4" stroke-linejoin="round"><path d="M234.533 92.4v8.914M239 96.857h-8.935M4.467 99.086V108M8.935 103.543H0"/><g><path d="M58.075 30v8.914M62.542 34.457h-8.935"/></g></g></g></svg>
