<svg width="227" height="213" viewBox="0 0 227 213" xmlns="http://www.w3.org/2000/svg" xmlns:xlink="http://www.w3.org/1999/xlink"><defs><path id="a" d="M0 144.852h108.172V0H0z"/></defs><g fill="none" fill-rule="evenodd"><path d="M58 183H43h15zM168 183H70M203 183h-23" stroke="#FFF" stroke-width="4" stroke-linecap="round" stroke-linejoin="round"/><g transform="translate(65 19)"><path d="M106.4 54.66c0-29.198-23.422-52.867-52.314-52.867-28.89 0-52.313 23.67-52.313 52.867 0 21.71 12.956 40.358 31.477 48.496v16.02h41.673v-16.02C93.443 95.018 106.4 76.37 106.4 54.66z" stroke="#FFF" stroke-width="4" stroke-linecap="round" stroke-linejoin="round"/><path d="M81.874 131.044h-55.78c-3.19 0-5.802-2.638-5.802-5.865 0-3.227 2.61-5.866 5.803-5.866h55.78c3.19 0 5.803 2.64 5.803 5.865 0 3.226-2.612 5.864-5.804 5.864zM76.046 143.23h-43.92c-3.192 0-5.804-2.638-5.804-5.864 0-3.227 2.612-5.866 5.804-5.866h43.92c3.192 0 5.803 2.64 5.803 5.866 0 3.226-2.612 5.864-5.804 5.864z" stroke="#FFF" stroke-width="3.618"/><mask id="b" fill="#fff"><use xlink:href="#a"/></mask><path stroke="#FFF" stroke-width="4" stroke-linecap="round" stroke-linejoin="round" mask="url(#b)" d="M41.474 66.687H68.96V38.91H41.475z"/><path stroke="#FFF" stroke-width="4" stroke-linecap="round" stroke-linejoin="round" mask="url(#b)" d="M50.784 57.28h8.867v-8.962h-8.866zM41.428 47.12h-18.62M74.235 28.304h-13.3M46.748 79.827h-6.206M26.355 37.264c0 1.98-1.588 3.584-3.547 3.584-1.958 0-3.546-1.605-3.546-3.584 0-1.98 1.588-3.584 3.546-3.584 1.96 0 3.547 1.605 3.547 3.584zM38.768 79.827c0 1.98-1.588 3.584-3.546 3.584-1.96 0-3.547-1.604-3.547-3.583 0-1.98 1.588-3.585 3.547-3.585 1.958 0 3.546 1.605 3.546 3.585zM60.935 38.16v-9.856M22.808 47.12v-4.48M79.555 47.12H69.8M46.748 79.827v-11.65M60.935 81.17V67.73M64.48 85.65c0 1.98-1.587 3.585-3.545 3.585-1.96 0-3.547-1.605-3.547-3.584 0-1.978 1.588-3.583 3.547-3.583 1.958 0 3.546 1.605 3.546 3.584zM88.42 47.12c0 1.98-1.587 3.585-3.545 3.585-1.96 0-3.547-1.605-3.547-3.584 0-1.98 1.588-3.584 3.547-3.584 1.958 0 3.546 1.605 3.546 3.585zM80.44 60.56H68.916M81.328 28.304c0 1.98-1.588 3.584-3.547 3.584-1.957 0-3.545-1.605-3.545-3.584 0-1.98 1.588-3.585 3.546-3.585 1.96 0 3.548 1.604 3.548 3.584zM80.885 70.418V60.56M84.43 75.794c0 1.98-1.587 3.585-3.545 3.585-1.96 0-3.547-1.606-3.547-3.586 0-1.98 1.588-3.584 3.547-3.584 1.958 0 3.546 1.605 3.546 3.584zM49.408 28.304v9.856M49.408 19.343c1.96 0 3.547 1.605 3.547 3.584 0 1.98-1.588 3.584-3.547 3.584-1.958 0-3.546-1.603-3.546-3.583 0-1.98 1.588-3.584 3.546-3.584zM33.892 59.217h7.536M25.025 59.217c0-1.98 1.588-3.584 3.547-3.584 1.958 0 3.546 1.605 3.546 3.584 0 1.98-1.588 3.585-3.546 3.585-1.96 0-3.547-1.605-3.547-3.585z"/></g><ellipse fill-opacity=".15" fill="#FFF" cx="119" cy="106.5" rx="106" ry="106.5"/><g transform="translate(0 24)" stroke="#FFF" stroke-width="3"><rect x="1.5" y="74.238" width="8.176" height="8.19" rx="4.088"/><rect x="185.912" y="84.31" width="8.176" height="8.19" rx="4.088"/><rect x="199.324" y="16.048" width="8.176" height="8.19" rx="4.088"/><rect x="23.853" y="1.5" width="8.176" height="8.19" rx="4.088"/></g><g stroke-linecap="round" stroke="#FFF" stroke-width="4" stroke-linejoin="round"><path d="M220.5 78.477v8.985M224.984 82.97h-8.97M216.014 138.003v8.985M220.5 142.495h-8.97"/><g><path d="M43.334 122.28v8.984M47.82 126.772h-8.97"/></g><g><path d="M35.485 65v8.985M39.97 69.492H31"/></g></g></g></svg>
