<svg xmlns="http://www.w3.org/2000/svg" id="Layer_1" x="0" y="0" version="1.1" viewBox="0 0 330 330" xml:space="preserve">
  <style>
    .handline,.line{fill:#000}.hand{fill:#9e7452}.logo,.objectline{fill:#000}.object{fill:#fff}.shapelight{fill:#c3c4fd}.shapedark{fill:#a67bfc}
  </style>
  <path d="M294.2 265.6h-.9c0 .3-.1.7-.3.9-.2.3-.5.4-.8.5s-.7 0-1-.1c-.3-.2-.5-.4-.7-.7-.1-.3-.1-.6-.1-1 .1-.3.3-.6.6-.8.3-.2.6-.3.9-.2.3 0 .6.2.9.4.1.1.2.3.3.5.1.2.1.4.1.5h1.9c0-.7-.3-1.6-.7-2.1-.5-.6-1.1-1-1.9-1.1-.7-.1-1.6 0-2.2.3-.7.3-1.3.9-1.5 1.7-.3.7-.3 1.5-.1 2.3.2.7.7 1.4 1.4 1.8s1.5.6 2.2.5 1.5-.4 2-.9c.6-.6.9-1.5.9-2.4l-1-.1z" class="line"/>
  <path d="M22.5 138.4h-.9c0 .3-.1.7-.3.9-.2.3-.5.4-.8.5s-.7 0-1-.1c-.3-.2-.5-.4-.7-.7-.1-.3-.1-.6-.1-1 .1-.3.3-.6.6-.8.3-.2.6-.3.9-.2.3 0 .6.2.9.4.1.1.2.3.3.5s.1.4.1.5h1.9c0-.7-.3-1.6-.7-2.1-.5-.6-1.1-1-1.9-1.1s-1.6 0-2.2.3-1.3.9-1.5 1.7c-.3.7-.3 1.5-.1 2.3.2.7.7 1.4 1.4 1.8.6.4 1.5.6 2.2.5s1.5-.4 2-.9c.6-.6.9-1.5.9-2.4l-1-.1z" class="line"/>
  <path d="M270.5 182.4v4.7c0 .2.1.4.3.6s.4.2.6.2.4-.1.6-.2c.2-.1.3-.4.3-.6v-4.7-.4c0-.1-.1-.2-.2-.3s-.2-.2-.3-.2-.2-.1-.4-.1c-.1 0-.2 0-.4.1-.1 0-.2.1-.3.2-.1.1-.1.2-.2.3v.4z" class="line"/>
  <path d="M269 185.6h4.7c.2 0 .4-.1.6-.3.1-.2.2-.4.2-.6s-.1-.4-.2-.6c-.1-.2-.4-.3-.6-.3H269c-.2 0-.4.1-.6.3s-.2.4-.2.6.1.4.2.6c.2.2.4.3.6.3z" class="line"/>
  <path d="M100.9 69.1c-.2-.2-.4-.3-.6-.3h-1.5v-1.5-.4c0-.2-.1-.2-.2-.3s-.2-.2-.3-.2c-.1-.1-.2-.1-.3-.1s-.2 0-.4.1c-.1 0-.2.1-.3.2-.1.1-.1.2-.2.3-.1.1-.1.2 0 .4v1.5h-1.9c-.2 0-.2.1-.3.2s-.2.2-.2.3c0 .1-.1.2-.1.4 0 .1 0 .2.1.4 0 .1.1.2.2.3s.2.1.3.2.2.1.4 0h1.5v1.5c0 .2.1.4.3.6.2.3.4.3.6.3s.4-.1.6-.2.3-.4.3-.6v-1.5h1.5c.2 0 .4-.1.6-.3.2-.2.2-.4.2-.6.1-.2-.1-.6-.3-.7z" class="line"/>
  <path d="M301.2 80.8c-.2-1-.8-2.1-1.6-2.8-.5-.6-1.3-1-2-1.4-.7-.3-1.6-.4-2.3-.4h-1.8v-4.1c0-1.7-.7-3.3-1.9-4.6-1.3-1.3-2.8-1.9-4.6-1.9h-19.5c-.6 0-1.3-.1-1.8-.3-.5-.2-1-.5-1.5-1l-4.1-4c-1.3-1.1-2.8-1.9-4.6-1.9H240c-1.7 0-3.3.7-4.6 1.9-1.3 1.3-1.9 2.8-1.9 4.6v-.1h1.8c0-.6.1-1.1.3-1.7.2-.5.5-1 1-1.5.4-.4.9-.7 1.5-1 .5-.2 1.1-.3 1.8-.3h15.5c.6 0 1.3.1 1.8.3s1 .5 1.5 1l4.1 4c1.3 1.3 2.8 1.9 4.6 1.9h19.5c.6 0 1.3.1 1.8.3.5.2 1 .5 1.5 1 .4.4.7.9 1 1.5.2.5.3 1.1.3 1.8v4.1h-44.1c-1.3 0-2.5.4-3.5 1.1s-1.8 1.8-2.2 3l-6.2 19.2V64.9v.1h-1.9v41c-.1.6 0 1.4.1 2 .2 1 .8 2.1 1.6 2.8.5.6 1.3 1 2 1.4.7.3 1.4.4 2.1.4h48.1v-1.9h-47.4c-1.1 0-2.3-.5-3.1-1.4-.8-.8-1.3-1.9-1.4-3.1 0-.3.1-.6.2-.9l7.7-24.2c.3-.8.8-1.6 1.5-2.1s1.6-.8 2.4-.8h47.9c.5 0 1.1.1 1.6.3.5.2.9.5 1.4.9.7.7 1.1 1.8 1.1 2.9 0 .4-.1.8-.2 1.3l-5.7 18.1-2 6.3c-.3.8-.8 1.6-1.5 2.1s-1.6.8-2.4.8v1.8h.2c1.3 0 2.4-.4 3.3-1.1 1-.7 1.8-1.8 2.2-3l7.7-24.4c.4-1.2.5-2.3.2-3.4z" class="line"/>
  <path d="M297.7 243.4c10.1 0 18.4-8.2 18.4-18.4 0-10.1-8.2-18.4-18.4-18.4-10.1 0-18.4 8.2-18.4 18.4.1 10.3 8.3 18.4 18.4 18.4z" class="shapelight"/>
  <path d="M316.1 225.1h-.2c0 4.2-1.5 8.2-4.1 11.5-2.7 3.2-6.4 5.4-10.5 6.3-4.1.8-8.3.2-12.1-1.8-3.8-2-6.6-5.2-8.2-9.1-1.6-3.9-1.8-8.2-.6-12.2 1.3-4.1 3.8-7.5 7.3-9.8 3.4-2.3 7.7-3.3 11.9-2.9 4.2.4 8.1 2.3 11.1 5.2 1.7 1.7 3 3.7 4 5.8.9 2.2 1.4 4.6 1.4 7h.4c0-3.7-1-7.2-3.1-10.3-2.1-3-4.9-5.4-8.3-6.8-3.3-1.4-7.1-1.8-10.7-1-3.5.7-6.9 2.5-9.5 5.1s-4.4 5.8-5.1 9.5c-.7 3.5-.3 7.3 1 10.7 1.4 3.3 3.8 6.3 6.8 8.3 3 2.1 6.7 3.1 10.3 3.1 4.9 0 9.6-2 13.1-5.4 3.4-3.4 5.4-8.1 5.4-13.1h-.1v-.1h-.2z" class="shapelight"/>
  <path d="M315.6 207.3c-4.7-4.7-11.2-7.4-17.8-7.4-.1 0-.2 0-.3.1-.1 0-.2.1-.3.2-.1.1-.1.2-.2.3 0 .1-.1.2-.1.3v24.3c0 .2.1.5.3.6.2.2.4.3.6.3H322c.2 0 .5-.1.6-.3.2-.2.3-.4.3-.6.1-6.7-2.6-13.1-7.3-17.8zm-16.9-5.5c2.7.1 5.4.6 8 1.8 2.8 1.1 5.4 2.9 7.6 5.1 2.2 2.2 3.9 4.8 5.1 7.6 1 2.5 1.7 5.2 1.8 8h-22.4v-22.5h-.1z" class="line"/>
  <path d="M82.7 121.1l-.2-.9-47.1 12.7-10.1-37.3L72.5 83l10 37.1.2 1 .2.8c.4-.1.7-.4 1-.7.2-.3.4-.7.4-1.1 0-.2 0-.3-.1-.5l-10-37.1c-.1-.4-.4-.7-.7-1-.2-.4-.5-.5-.7-.5-.3-.1-.5 0-.8 0L24.9 93.9c-.4.1-.7.4-1 .7-.2.2-.3.5-.3.7-.1.3 0 .5 0 .8l10 37.1c.1.4.4.7.7 1 .2.2.5.3.7.3.3.1.5 0 .8 0L83 122l-.3-.9z" class="line"/>
  <path d="M44.9 126l6.8-16.3 8 6.1 8.9-21.3 24.8 19L44.9 126z" class="shapedark"/>
  <path d="M46.3 102.6c.3.9.2 2-.1 3-.3.9-.9 1.8-1.8 2.4s-1.8.9-2.8 1-2-.2-2.9-.6c-.8-.5-1.6-1.3-2.1-2.2-.4-.9-.6-1.9-.5-2.9s.5-2 1.3-2.7c.6-.7 1.6-1.4 2.5-1.6 1.4-.3 2.7-.2 3.9.5 1.2.7 2.2 1.8 2.5 3.1z" class="shapedark"/>
  <path d="M269.8 112.5c3.5 3.8 7.4 8.9 10 13.4 2.7 4.8 4.6 10 4.6 14.8 0 1.6-.2 3.1-.6 4.6-.4 1.7-1.3 3.1-2.2 4.5-1.4 1.8-3.2 3.1-5.3 3.9-2.3.8-4.7 1.1-7.1 1.1-4.2-.1-8.2-.8-12.2-2.1-3.7-1.1-7.1-2.5-10.4-4.3-7-3.8-13.9-8.6-21.2-12.6-7.3-4.1-14.9-7.4-23.4-8.2-.2 0-.4.1-.6.2-.2.1-.3.4-.3.6s0 .4.2.6.3.3.6.3c8 .8 15.4 4.1 22.6 8s14.1 8.8 21.2 12.6c3.4 1.8 7.1 3.3 10.7 4.5 4.2 1.4 8.5 2.1 12.7 2.2 3.4.1 6.9-.7 10-2.4 1.5-.8 2.8-2 3.9-3.3 1.1-1.6 2-3.2 2.5-5.1.5-1.7.7-3.3.7-5.1 0-5.3-2.1-10.7-4.8-15.8-2.6-4.6-6.6-9.8-10.3-13.7-.2-.2-.4-.2-.6-.2s-.4.1-.6.2c-.2.2-.3.4-.3.6-.1.3 0 .5.2.7z" class="line"/>
  <path d="M123.1 185.1c-7.6-.9-14.8-3.3-21.8-6.5-10.4-4.6-20.5-10.7-30.8-16-10.4-5.2-21.2-9.4-33.4-9.8h-1.5c-8.7 0-16.1 2.9-21.3 7.7-2.6 2.3-4.7 5.1-6.1 8.3-1.5 3.1-2.2 6.6-2.2 10 0 6.3 2.4 13 7.7 19.2 6.3 7.4 14.6 12.4 22.6 17.4.1.1.2.1.3.1h.4c.1 0 .2-.1.3-.1.1-.1.2-.2.2-.3.1-.1.1-.2.1-.3v-.4c0-.1-.1-.2-.2-.3-.1-.1-.2-.2-.3-.2-8.1-4.9-16.3-9.9-22.2-17-5-5.9-7.2-12.2-7.2-18.1 0-3.2.7-6.4 2-9.3 1.4-2.9 3.2-5.5 5.6-7.7 4.8-4.4 11.8-7.2 20-7.2h1.5c7.6.4 15.1 2.1 22.2 4.9 10.5 4.2 20.6 10.2 30.9 15.7 10.3 5.4 20.9 10.2 32.8 11.7h.4c.1 0 .2-.1.3-.1.1-.1.2-.2.2-.3.1-.1.1-.2.1-.3v-.4c0-.1-.1-.2-.2-.3s-.2-.2-.3-.2.1-.2-.1-.2z" class="line"/>
  <path d="M264.4 301.5c-6.7 1.3-14.1 0-20.2-2.6-4.1-1.7-8.2-4.7-12.6-5.4-4.5-.8-9.3.7-13.6 1.9-4.1 1.1-8.7 2.6-12.2-.4-3-2.6-4.1-7.6-4.9-12.2s-1.7-9.1-2.5-13.6c-.4-1.8-.5-3.5-.4-5.3.3-1.8.9-3.4 2-4.8 2.7-4 6.6-6.3 10.3-8.3 3.3-1.8 6.7-3.3 10.2-3.3 2.9 0 5.7 1 8.7 2.2l14.2 5.4c1.6.5 3 1.3 4.2 2.3 1 1.1 2 2.3 2.7 3.5 5.2 7.3 13.3 11.1 17 19.7 2 4.4 2.8 10.1 3.1 15.1.5 3.5-2.5 5.1-6 5.8z" class="hand"/>
  <path d="M119.7 152.4c-3.2-1.3-11.1-4.8-14.5-5.5-.9-.3-2-.4-2.9-.2-.9.1-2 .4-2.8.9-4.9 3.1-1.6 9.8 1.3 13.1 5.3 6.3 15.3 12.5 22.4 16.5" class="hand"/>
  <path d="M120 151.6c-1.6-.6-4.4-1.8-7.2-2.9-1.4-.5-2.8-1.1-4.1-1.6-1-.4-2.2-.7-3.3-1-.8-.2-1.7-.3-2.5-.3-1.4 0-2.8.3-4 1-.9.6-1.8 1.5-2.3 2.4-.4.9-.6 1.9-.6 2.9.1 1.8.5 3.4 1.3 5 .7 1.5 1.6 2.8 2.7 4.2 2.7 3.2 6.7 6.4 10.7 9.3 3.9 2.7 7.8 5.2 12 7.4l.9-1.7c-4.1-2.3-8-4.7-11.8-7.3-3.9-2.6-7.3-5.5-10.4-9-.9-1.1-1.8-2.4-2.4-3.8-.6-1.4-1-2.7-1.1-4.3 0-.7.1-1.5.4-2.1.4-.7.9-1.3 1.6-1.7.9-.5 1.9-.8 2.9-.7.7 0 1.4.1 2.1.2 1 .3 2.1.6 3.1 1 1.9.7 4.1 1.6 6.1 2.4 2 .8 3.9 1.7 5.1 2.1l.8-1.5z" class="handline"/>
  <path d="M211 255.2l-52.7 10.6s11.1 13.9 35.2 15.4l8.8 8.9 8.7-34.9z" class="hand"/>
  <path d="M210.9 254.2L158.1 265c-.1 0-.3.1-.4.2-.1.1-.2.2-.3.4-.1.1-.1.3 0 .4 0 .1.1.3.2.4 2.5 2.9 5.5 5.3 8.8 7.3 5.9 3.8 14.8 7.6 27.1 8.5l.1-.9-.6.6 8.8 8.9c.1.1.2.1.3.2.1 0 .2.1.3.1s.2 0 .3-.1c.1 0 .2-.1.3-.2s.1-.2.2-.3c0-.1.1-.2.1-.3s0-.2-.1-.3c0-.1-.1-.2-.2-.3l-8.8-8.9c-.2-.2-.4-.2-.6-.3-11.9-.7-20.6-4.6-26.2-8.1-2.3-1.4-4.4-3-6.3-4.8-.7-.6-1.3-1.1-1.6-1.6l-.4-.4-.1-.1-.1.1.1-.1-.1.1.1-.1-.7.6.2.9 52.7-10.6c.2 0 .4-.2.6-.4.1-.2.2-.4.1-.7 0-.2-.2-.4-.4-.6-.2-.4-.4-.4-.6-.4z" class="handline"/>
  <path d="M213.2 259.4l-64.3 10.9c-1.6.2-3.1.2-4.6-.1-1.6-.3-2.9-1-4.2-1.9s-2.4-2.1-3.1-3.3c-.7-1.3-1.4-2.8-1.7-4.3l-22.9-135.2c-.2-1.6-.2-3.1.1-4.6.3-1.6.9-2.9 1.9-4.2.9-1.3 2.1-2.4 3.3-3.1 1.4-.8 2.8-1.4 4.3-1.7l64.3-10.7c1.6-.3 3.1-.2 4.6.1 1.6.3 2.9.9 4.2 1.9 1.3.9 2.4 2.1 3.1 3.3.8 1.4 1.4 2.8 1.7 4.3l22.7 135c.5 3.1-.2 6.3-2.1 8.9-1.3 2.4-4.2 4.1-7.3 4.7z" class="object"/>
  <path d="M213.2 259.4l-.1-.8-64.3 10.7c-.6.1-1.3.1-1.9.1-2.6 0-5.1-.9-7.1-2.6s-3.3-4-3.8-6.6l-22.6-134.9c-.1-.6-.1-1.3-.1-1.9 0-2.6.9-5.1 2.6-7.1s4-3.2 6.6-3.8l64.2-10.7c.6-.1 1.3-.1 1.9-.1 2.6 0 5.1.9 7.1 2.6s3.3 4 3.8 6.6l22.6 134.9c.1.6.2 1.3.2 1.9 0 2.6-.9 5.1-2.6 7.1-1.7 2-4 3.3-6.6 3.8l.1.8.2.9c1.7-.3 3.2-.8 4.7-1.8s2.7-2.1 3.7-3.4c.9-1.4 1.7-2.9 2.1-4.6.4-1.7.4-3.3.1-5l-22.9-135c-.3-1.7-.8-3.2-1.8-4.7-.9-1.5-2.1-2.6-3.4-3.7-1.4-.9-2.9-1.7-4.6-2.1-1.7-.4-3.3-.4-5-.1L122 110.8c-1.7.3-3.2.8-4.7 1.8-1.5.9-2.6 2.1-3.7 3.4-.9 1.4-1.7 2.9-2.1 4.6s-.4 3.3-.1 5l22.7 135c.3 1.7.8 3.2 1.8 4.7.9 1.5 2.1 2.6 3.4 3.7 1.4.9 2.9 1.7 4.6 2.1 1.7.4 3.3.4 5 .1l64.3-10.7v-1.1z" class="objectline"/>
  <path d="M198.1 138.8l-4.2-24.9c-.3-2-1.5-3.7-3-4.8-1.6-1.1-3.5-1.6-5.5-1.3l-5 .8c-.3 0-.5.2-.6.4-.1.2-.2.5-.2.7.2 1.5-.1 3-.9 4.3-.8 1.3-2.2 2.1-3.7 2.3l-36.3 6.2c-1.5.2-3-.1-4.3-1-1.3-.8-2.1-2.2-2.3-3.8 0-.1-.1-.2-.1-.4l-.3-.3c-.1-.1-.2-.1-.3-.2h-.4l-5 .8c-.9.2-1.9.5-2.7 1-.8.5-1.6 1.1-2.1 2s-.9 1.7-1.1 2.6-.2 1.9-.1 2.9l22 130.3c.3 2 1.5 3.7 3 4.8 1.6 1.1 3.5 1.6 5.5 1.3l59.7-10.1c2-.3 3.7-1.5 4.8-3s1.6-3.5 1.3-5.5" class="object"/>
  <path d="M199 138.6l-4.2-24.9c-.2-1-.5-2.1-1.1-3s-1.4-1.8-2.2-2.4c-.9-.6-1.9-1-2.9-1.4-1-.2-2.2-.3-3.2-.1l-5 .8c-.4.1-.8.3-1.1.6-.3.3-.4.8-.4 1.3v.3c0 .3.1.5.1.8 0 1.1-.4 2.2-1.1 3.1-.7.8-1.8 1.5-2.8 1.7l-36.6 6.2c-.2.1-.5.1-.7.1-1.1 0-2.2-.4-3.1-1.1-.8-.7-1.5-1.8-1.7-2.9-.1-.4-.3-.8-.6-1.1-.3-.3-.8-.4-1.3-.4h-.3l-5 .8c-2 .3-3.7 1.4-5 2.8-1.3 1.5-2 3.4-2 5.3 0 .4 0 .9.1 1.4l21.9 130.3c.3 2 1.4 3.7 2.8 5 1.5 1.3 3.4 2 5.3 2 .4 0 .9 0 1.4-.1l59.7-10.1c2.2-.4 4.1-1.6 5.3-3.3 1.3-1.8 1.8-4 1.5-6.2 0-.1-.1-.2-.1-.3-.1-.1-.1-.2-.2-.3-.1-.1-.2-.1-.3-.1h-.3c-.1 0-.2.1-.3.1-.1.1-.2.1-.3.2-.1.1-.1.2-.1.3v.3c.1.3.1.7.1 1 0 1.6-.5 3-1.6 4.2-.9 1.1-2.4 2-3.9 2.2l-59.7 10.1c-.3.1-.7.1-1 .1-1.6 0-3-.5-4.2-1.6-1.1-1-2-2.4-2.2-3.9l-21.9-130.1c-.1-.3-.1-.7-.1-1 0-1.6.5-3 1.6-4.2.9-1.1 2.4-2 3.9-2.2l5-.8c.2 1.6 1 3 2.3 4s2.7 1.6 4.3 1.6c.4 0 .7 0 1.1-.1l36.3-6.2c1.6-.3 2.9-1 4-2.3 1-1.1 1.6-2.7 1.6-4.3 0-.4 0-.7-.1-1.1l5-.8c.3-.1.7-.1 1-.1 1.6 0 3 .5 4.2 1.5 1.1.9 2 2.4 2.2 3.9l4.2 24.9c0 .1.1.2.1.3.1.1.1.2.2.3s.2.1.3.1h.3c.1 0 .2-.1.3-.1.1-.1.2-.1.3-.2.1-.1.1-.2.1-.3.1-.3.1-.4.1-.6z" class="objectline"/>
  <path d="M272 295.6l-2-8.1c-.2-2.1-23.5-58.6-26-65.5-2.5-7-20.6-42.7-20.6-42.7-2.6-5.2-4.1-11.1-4.9-16.8 0 0-1.6-11.5-2.1-18.5-.2-2.9-4.2-4.7-6.9-3.8-3.5 1.3-6.5 3.7-8.1 8.7-.6 1.9-.7 3.9-.5 5.8l4.8 60.2c-16 39.4 14.8 57.9 14.8 57.9" class="hand"/>
  <path d="M272.8 295.4l-2-8.1-.9.2.9-.1v-.3c0-.2-.1-.3-.2-.5-.3-.8-.8-2.4-1.7-4.5-2.7-7.2-8.2-20.9-13.4-33.5-2.5-6.3-5-12.3-6.9-17.1-.9-2.4-1.8-4.5-2.5-6.2-.6-1.7-1.1-2.9-1.5-3.7-.3-.9-.9-2.2-1.7-3.9-2.6-5.7-7.3-15.4-11.4-23.8-4.1-8.2-7.5-15.1-7.5-15.1-2.5-5.1-4-10.9-4.8-16.6l-.9.1.9-.1s0-.2-.1-.5c-.3-2.3-1.6-11.9-2-17.9-.1-.7-.3-1.5-.7-2.1-.6-.9-1.5-1.6-2.4-2.1s-2.1-.7-3.1-.7c-.6 0-1.3.1-1.9.3-1.9.6-3.7 1.8-5.1 3.1-1.7 1.8-2.9 3.9-3.5 6.2-.4 1.4-.6 2.8-.6 4.3 0 .7 0 1.4.1 2.1l.9-.1-.9.1 4.8 60.2.9-.1-.8-.3c-3.3 8.2-4.7 15.5-4.7 22.1 0 5.6 1 11.2 3.1 16.4 2.4 5.8 5.9 11.2 10.4 15.5 1.9 1.9 4.1 3.7 6.3 5.1.1.1.2.1.3.1h.4c.1 0 .2-.1.3-.1s.2-.2.2-.3c.1-.1.1-.2.1-.3v-.4c0-.1-.1-.2-.2-.3s-.2-.2-.3-.2c-3.7-2.4-6.9-5.4-9.6-8.9-2.7-3.3-4.9-7.1-6.5-11.1-2-4.9-2.9-10.2-2.9-15.5 0-6.3 1.3-13.4 4.5-21.4.1-.1.1-.3.1-.4l-4.8-60.2c-.1-.6-.1-1.3-.1-1.8 0-1.3.2-2.5.5-3.7.6-2 1.7-3.9 3.1-5.4 1.3-1.3 2.7-2.2 4.4-2.7.4-.1.8-.2 1.3-.2 1 0 2.1.3 3 .9.4.3.7.6 1 1 .2.3.4.7.4 1.1.2 3.5.7 8.1 1.3 11.9.4 3.8.8 6.7.8 6.7.8 5.8 2.3 11.8 5 17.1l.2.4c1 2 5.5 10.9 10 20.1 2.3 4.6 4.6 9.3 6.4 13.3.9 2 1.8 3.8 2.4 5.2.6 1.5 1.1 2.7 1.5 3.4.3.9.9 2.5 1.9 4.8 3.1 7.7 9.1 22.5 14.3 35.6 2.6 6.5 5 12.6 6.9 17.2.9 2.3 1.7 4.2 2.2 5.5.2.7.4 1.3.6 1.7l.1.5v.1l.3-.1h-.4l.3-.1h-.4v.1l2 8.1c.1.2.2.4.4.5.2.1.4.1.6.1s.4-.2.5-.4c.7.1.8-.1.8-.3z" class="handline"/>
  <path d="M118.1 247c6.4 2.2 12.9 5.7 18.6-.4 4.7-5 .2-12.4-5.4-14.1-5-1.5-3.3-1-8.3-2.5-.9-.3-1.8-.5-2.7-.7-.8-.2-1.7-.2-2.6-.2-.6 0-1.2.2-1.8.3l-3.3 14.3c1.4 1.6 3.4 2.6 5.5 3.3z" class="hand"/>
  <path d="M120.6 206.6c.2.7.3 1.6.1 2.3l-.3 1.5 5.6 1.6c4.3.6 8.3.1 10.9-2.6 4.7-5 .2-12.4-5.4-14.1l-15-4.4c-.9-.3-1.8-.5-2.7-.7-.9-.2-1.7-.2-2.6-.2-2.9.2-5.2 2-6.5 4.5l14.5 10.2c.7.5 1.1 1.2 1.4 1.9z" class="hand"/>
  <path d="M116.3 227.9c6.8 2.3 16 4.7 20.5-.2 4.7-5 .2-12.4-5.4-14.1l-5.5-1.6c-1.9-.2-3.8-.7-5.7-1.2l-3.9 17.1z" class="hand"/>
  <path d="M118 230c-.8 0-1.6.2-2.4.5l-2.8 11.8c.4.6.9 1.1 1.5 1.5 1.4.9 2.7 1.7 4.3 2.2 1.8.6 3.7 1.4 5.5 2 1.7.5 3.4.8 5.2.9 1.1 0 2.4-.3 3.4-.7 1.2-.5 2.4-1.4 3.3-2.4.6-.5 1-1.3 1.3-2 .3-.7.4-1.5.4-2.2-.1-1.9-.7-3.6-2-5.1-1.2-1.5-2.8-2.6-4.7-3.2-2.5-.8-3.4-1-4.2-1.3-.9-.4-1.7-.6-4.2-1.3-.8-.2-1.8-.4-2.6-.6-.6-.1-1.2-.2-1.7-.2h-.3z" class="hand"/>
  <path d="M120.4 230.2l-.1-.9-.2.9h.3z"/>
  <path d="M137.4 235.6c-1.5-1.8-3.4-3.1-5.6-3.9-2.5-.7-3.3-.9-4.2-1.3-.8-.3-1.7-.5-4.2-1.3-.9-.2-1.9-.5-2.8-.7-.7-.1-1.7-.1-2.4-.1h-.5c-.6 0-1.1.1-1.6.3l-.5 2c.7-.3 1.6-.5 2.4-.5h.4c.5 0 1.1.1 1.7.2.8.2 1.8.4 2.6.6 2.5.7 3.3.9 4.2 1.3.8.3 1.7.5 4.2 1.3 1.9.6 3.5 1.7 4.7 3.2 1.3 1.5 1.9 3.2 2 5.1 0 .7-.1 1.5-.4 2.2-.3.7-.7 1.5-1.3 2-.9 1-2.1 1.9-3.3 2.4-1 .4-2.3.7-3.4.7-1.8-.1-3.5-.4-5.2-.9-1.8-.6-3.7-1.4-5.5-2-1.6-.5-2.9-1.3-4.3-2.2-.6-.4-1.1-.9-1.5-1.5l-.4 1.6c-.1.2-.1.5-.2.7.3.3.6.6.9.8 1.5 1 3 1.9 4.8 2.5 1.9.6 3.8 1.4 5.6 2 1.9.6 3.9 1 5.8 1 1.5 0 2.8-.3 4.2-.8 1.5-.6 2.8-1.7 4-2.9.7-.7 1.3-1.7 1.7-2.6.3-.9.5-1.9.5-2.8-.1-2.4-.9-4.6-2.4-6.4z" class="handline"/>
  <path d="M119.6 228c3 1 6.1 1.5 9.2 1.6 1.5.1 2.8-.1 4.2-.5 1.2-.4 2.4-1.1 3.2-2 1.2-1.2 1.8-2.7 1.8-4.3 0-1.9-.7-3.7-2-5.2s-2.9-2.7-4.8-3.3l-11-3.2-3.7 16c1 .3 2 .6 3.1.9z" class="hand"/>
  <path d="M137.1 216.6c-1.5-1.8-3.3-3.1-5.5-3.8l-11.1-3.2-.4 1.5 11 3.2c1.9.6 3.5 1.8 4.8 3.3s2 3.3 2 5.2c0 1.6-.6 3.1-1.8 4.3-.8.9-2 1.6-3.2 2-1.4.4-2.7.6-4.2.5-3.1-.1-6.2-.6-9.2-1.6-1.1-.3-2.1-.6-3.1-1l-.3 1.5c1 .3 2.1.7 3.2 1 3.1.9 6.4 1.5 9.6 1.6 1.6 0 3.1-.2 4.6-.6 1.5-.4 2.7-1.3 3.8-2.4 1.4-1.5 2.2-3.3 2.2-5.3-.1-2.3-.9-4.5-2.4-6.2z" class="handline"/>
  <path d="M111.2 190.8c-.9 0-1.9.3-2.7.7-.8.5-1.6 1.1-2.1 1.8-.4.5-.8 1.1-1 1.7l13.7 9.7c.8.5 1.2 1.2 1.5 1.9.2.7.3 1.6.1 2.3l-.2.9c2.7.9 5.6 1.3 8.4 1.4 1.4 0 2.7-.2 4.1-.6 1.2-.4 2.3-1.1 3.1-2 .6-.5 1-1.3 1.3-2s.4-1.5.4-2.2c-.1-1.9-.7-3.6-2-5.1-1.2-1.5-2.8-2.6-4.7-3.2l-15-4.4c-.8-.2-1.8-.4-2.6-.6v-.1c-.7-.1-1.3-.2-1.9-.2h-.4z" class="hand"/>
  <path d="M113.6 191l.1-.8-.1.8c-.1 0 0 0 0 0z" class="line"/>
  <path d="M137.5 198.3c-1.5-1.8-3.4-3.1-5.6-3.9l-15-4.4c-.9-.2-1.8-.5-2.8-.7-.7-.1-1.8-.1-2.5-.1h-.5c-1.3.1-2.4.4-3.4.9-1.5.8-2.7 2.1-3.5 3.5-.1.1-.1.3-.2.4l1.4 1c.3-.6.6-1.2 1-1.7.5-.7 1.3-1.3 2.1-1.8.8-.4 1.8-.7 2.7-.7h.4c.6 0 1.2.2 1.9.3.8.2 1.8.4 2.6.6l15 4.4c1.9.6 3.5 1.7 4.7 3.2 1.3 1.5 1.9 3.2 2 5.1 0 .7-.1 1.5-.4 2.2s-.7 1.5-1.3 2c-.8.9-1.9 1.6-3.1 2-1.4.4-2.7.6-4.1.6-2.9-.1-5.7-.5-8.4-1.4l-.4 1.8c2.9.8 6 1.4 8.9 1.5 1.6 0 3.1-.2 4.7-.7 1.5-.5 2.8-1.3 3.9-2.4.7-.7 1.3-1.7 1.7-2.6.4-.9.5-1.9.6-2.8-.1-2.3-.9-4.5-2.4-6.3z" class="handline"/>
  <path d="M62.5 282.8l.2.9 14.3-3.2c8.9-2 17-6.5 23.4-12.8 6.5-6.4 11-14.5 13-23.4l8.1-35.1c.1-.4.1-.7.1-1.1 0-.8-.2-1.6-.5-2.3s-.9-1.3-1.6-1.8l-32.8-23.2c-.2-.2-.5-.3-.8-.3-.2 0-.3-.1-.5-.1h-.3l-39.6 6.3c-.9.1-1.9.6-2.6 1.3-.7.6-1.3 1.6-1.5 2.5l-8.2 35.1c-2.1 8.9-1.6 18.1 1.4 26.7 2.9 8.6 8.2 16.2 15.2 21.9l11.5 9.4.9.2h.2l.1-1 .2-.9-.3-.1-11.2-9.1c-6.8-5.5-11.9-12.8-14.7-21.1-2.8-8.2-3.2-17.2-1.3-25.7l8.1-35.1c.1-.6.4-1.1.9-1.6.4-.4 1-.7 1.6-.7l39.6-6.3h.2c.1 0 .1 0 .2.1l32.8 23.2c.4.3.7.6.9 1.1.2.4.3.9.3 1.5 0 .2 0 .5-.1.7l-8.1 35c-2 8.6-6.4 16.3-12.5 22.4s-14 10.4-22.5 12.4L62.4 282l.1.8.2-.9-.2.9z" class="line"/>
  <path d="M84 190.6l-.5-.1-35 5.5-7.2 31c-1.9 7.8-1.3 16.1 1.8 23.5 2.5 6.2 6.5 11.6 11.6 15.7l9.4 7.6.5.1 11.7-2.7c7.1-1.7 13.7-5.2 18.9-10.4 5.2-5.1 8.9-11.7 10.5-18.8l7.2-31L84 190.6z" class="shapelight"/>
  <path d="M100.9 228l-.5-.8-35.7 22.1c-.9.6-2.1.9-3.2.9-1 0-2-.2-2.9-.7s-1.7-1.3-2.3-2.2L46.8 232c-.6-.9-.9-2.1-.9-3.2 0-1 .2-2 .7-2.9s1.3-1.7 2.2-2.3l.2-.1c.9-.6 2.1-.9 3.2-.9 1 0 2.1.3 2.9.7.8.4 1.7 1.3 2.2 2.1l5.8 9.4c.1.1.1.2.2.3.1.1.2.1.3.1h.3c.1 0 .2-.1.3-.1l29.5-18.4c.9-.6 2.1-.9 3.2-.9 1 0 2.1.2 2.9.7.9.5 1.7 1.3 2.2 2.1.6.9.9 2.1.9 3.2 0 1-.3 2.1-.7 2.9-.5.9-1.3 1.7-2.1 2.2l.8 1.1.5.7c1.1-.7 2.1-1.8 2.8-2.9.6-1.1.9-2.5.9-3.8 0-1.5-.4-2.8-1.1-4.1s-1.8-2.2-3-2.9c-1.3-.6-2.6-1-4.1-.9-1.4 0-2.8.4-4 1.1L64.2 233l-5.3-8.7c-.7-1.1-1.8-2.1-2.9-2.8-1.1-.6-2.5-.9-3.8-.9-1.5 0-2.9.4-4.2 1.3l-.2.1c-.9.5-1.7 1.3-2.3 2.1s-1 1.8-1.3 2.8-.3 2.1-.1 3.1.5 2 1.1 2.9l9.5 15.3c.5.9 1.3 1.7 2.1 2.3s1.8 1 2.8 1.3c1 .2 2.1.3 3.1.1s2-.5 2.9-1.1l35.7-22.1-.4-.7z" class="check"/>
  <path d="M184.9 168.3c-.7-1.3-1.9-2.2-3.2-2.8-1.4-.6-2.8-.8-4.3-.5-.9.2-1.9.5-2.8 1-1.3.7-2.2 1.9-2.8 3.2-.3.7-.5 1.5-.6 2.3l-10.3 1.7c-.1-.3-.3-.5-.4-.8-.2-.2-.3-.5-.5-.7l3.1-4.3c1.3.4 2.5.6 3.9.4 1.3-.2 2.5-.7 3.5-1.6s1.8-1.9 2.3-3.1c.4-1.3.6-2.5.4-3.9-.2-1.3-.7-2.3-1.5-3.3-.7-.9-1.7-1.8-2.8-2.3-1.4-.6-2.8-.8-4.3-.6-.9.2-1.9.5-2.7 1s-1.6 1.1-2.1 2c-.5.8-.9 1.7-1.3 2.6-.2.9-.2 2-.1 2.9.2.9.5 2 1 2.8.1.2.3.4.4.6l-3.1 4.4c-1.1-.4-2.5-.5-3.8-.3-.9.2-1.9.5-2.8 1-1.1.7-2.1 1.8-2.7 2.9-.6 1.1-.8 2.5-.8 3.9.1 1.4.5 2.6 1.3 3.8.7 1.1 1.8 2 3 2.5 1.4.6 2.8.8 4.3.6 1.3-.2 2.3-.7 3.3-1.5.9-.7 1.8-1.7 2.3-2.8.3-.7.5-1.5.6-2.3l10.3-1.7c.1.3.3.5.4.8.1.2.3.4.4.6l-3.1 4.4c-1.1-.4-2.5-.5-3.7-.3-2 .3-3.7 1.4-4.8 3s-1.7 3.5-1.4 5.5c.2.9.5 2 1 2.8.7 1.3 1.9 2.2 3.2 2.8 1.1.5 2.4.7 3.7.6 1.3-.1 2.4-.5 3.4-1.1 1.3-.7 2.2-1.9 2.8-3.2.6-1.4.8-2.8.6-4.3-.2-.9-.5-1.9-1-2.7-.2-.2-.3-.5-.5-.7l3.1-4.3c1.3.4 2.5.6 3.9.4.9-.1 1.9-.5 2.7-1s1.6-1.1 2.1-2c.5-.8.9-1.7 1.1-2.6.2-.9.2-2 .1-2.9.1-1.3-.2-2.1-.8-2.9zm-22.6-8.9c.2-.6.5-1.3 1-1.7s1.1-.7 1.8-.8c.4-.1.9-.1 1.4 0 .6.1 1.3.5 1.7 1s.7 1.1.8 1.8c.1.9-.1 1.8-.6 2.6-.5.7-1.4 1.3-2.2 1.4-.4.1-.9.1-1.4 0-.6-.1-1.3-.5-1.7-.9-.5-.5-.7-1.1-.8-1.8s-.1-1.1 0-1.6zm-4.8 17.6c-.2.6-.5 1.3-.9 1.7-.6.6-1.6.9-2.5.9s-1.8-.4-2.4-1c-.4-.5-.7-1.1-.8-1.8-.1-.4-.1-.9 0-1.4.2-.6.5-1.3 1-1.7s1.1-.7 1.8-.8c.4-.1.9-.1 1.4 0 .4.1.8.3 1.3.5.4.3.6.6.9.9.2.4.4.8.4 1.3-.1.6-.1 1-.2 1.4zm12.9 12c-.2.8-.7 1.7-1.6 2.1-.7.5-1.7.6-2.6.4-.6-.2-1.3-.5-1.7-.9s-.6-.9-.8-1.5c-.1-.5-.1-1.1 0-1.7.2-.6.5-1.3 1-1.7s1.1-.7 1.8-.8c.4-.1.9-.1 1.4 0 .6.2 1.3.5 1.7 1s.7 1.1.8 1.8c.2.4.1.9 0 1.3zm11.6-15.9c-.2.6-.5 1.3-.9 1.7-.5.4-1.1.7-1.8.9-.4.1-.9.1-1.4 0-.6-.2-1.3-.5-1.7-1-.4-.4-.7-1-.8-1.7-.1-.6-.1-1.3.1-1.9.2-.6.5-1.1 1-1.6.5-.4 1-.6 1.7-.7.5-.1 1.1 0 1.7.1.5.2 1 .5 1.4.9.4.5.7 1.1.8 1.8 0 .5 0 .9-.1 1.5z" class="logo"/>
</svg>
