<svg xmlns="http://www.w3.org/2000/svg" xml:space="preserve" viewBox="0 0 266 190" width="266" height="190">
  <path fill="#A77FFA" d="m127.58 102.18 59.28-15.4-.05-31.79-70.12 16.89 10.89 30.3z"/>
  <path fill="#C0C3F6" d="M48.16 68.25c3.25 0 6.42-.96 9.12-2.76 2.7-1.8 4.81-4.36 6.05-7.36 1.24-3 1.57-6.3.94-9.48-.63-3.18-2.19-6.11-4.49-8.41s-5.22-3.86-8.4-4.49c-3.18-.63-6.49-.31-9.48.93s-5.56 3.35-7.37 6.05c-1.8 2.7-2.76 5.87-2.76 9.12 0 4.35 1.73 8.52 4.8 11.59 3.07 3.08 7.24 4.81 11.59 4.81z"/>
  <path fill="none" stroke="#000" stroke-linecap="round" stroke-linejoin="round" stroke-width="1.51" d="m231.8 57.08-35.44 72.06h-75.03l-19.43 42.69" class="invert-stroke"/>
  <path fill="none" stroke="#000" stroke-linecap="round" stroke-linejoin="round" stroke-width="1.51" d="M101.83 172.12 81.04 85.06l-15.5 40.08H11.01" class="invert-stroke"/>
  <path fill="none" stroke="#000" stroke-linecap="round" stroke-linejoin="round" stroke-width="1.51" d="M141.63 123.93c4.01 0 7.27-3.25 7.27-7.27s-3.25-7.27-7.27-7.27-7.27 3.25-7.27 7.27 3.26 7.27 7.27 7.27z" class="invert-stroke"/>
  <path fill="none" stroke="#000" stroke-linecap="round" stroke-linejoin="round" stroke-width="1.51" d="M181.76 114.68c4.01 0 7.27-3.25 7.27-7.27s-3.26-7.27-7.27-7.27-7.27 3.25-7.27 7.27 3.25 7.27 7.27 7.27z" class="invert-stroke"/>
  <path fill="none" stroke="#000" stroke-linecap="round" stroke-linejoin="round" stroke-width="1.51" d="m103.18 61.21 8.75-2.02 15.71 43.7 59.27-15.4-.05-31.79-70.11 16.89" class="invert-stroke"/>
  <path fill="none" stroke="#000" stroke-linecap="round" stroke-linejoin="round" stroke-width="1.51" d="M180.12 100.32 138.18 110c-2.19.51-4.5.13-6.42-1.06-1.91-1.19-3.28-3.09-3.79-5.28" class="invert-stroke"/>
  <path fill="#FFF" stroke="#000" stroke-miterlimit="10" stroke-width="1.51" d="M163.94 74.64c-2.15 2.45-5.12 4.03-8.35 4.43-.53.06-1.07.1-1.6.1-3.23-.01-6.35-1.19-8.77-3.33s-3.99-5.08-4.4-8.29c-.07-.53-.12-1.07-.12-1.61.01-3.24 1.2-6.36 3.34-8.79s5.09-3.99 8.3-4.4c.53-.07 1.07-.11 1.6-.12 3.23.01 6.35 1.2 8.77 3.34s3.99 5.09 4.4 8.29c.07.53.1 1.07.1 1.61.01 3.22-1.16 6.34-3.27 8.77z" class="invert-stroke"/>
  <path fill="#6A52DE" d="M159.2 62.46c.01.29-.09.57-.27.8l-5.05 6.49c-.1.14-.23.25-.38.33-.15.08-.31.14-.48.16-.17.02-.34.01-.5-.04s-.32-.13-.45-.23l-3.25-2.52c-.15-.12-.27-.27-.36-.45-.09-.17-.14-.36-.14-.55.01-.28.1-.56.28-.78.1-.13.23-.25.38-.33.15-.08.31-.14.47-.16.17-.02.34-.01.5.03s.31.12.45.22l2.24 1.74 4.26-5.49c.16-.21.39-.37.65-.45s.53-.07.79.01c.25.09.48.25.63.47.16.22.24.48.23.75z"/>
  <path fill="#FFF" stroke="#000" stroke-linecap="round" stroke-linejoin="round" stroke-width="1.51" d="m259.29 33.98 2.3 13.27c1.31 7.5.14 15.22-3.33 22-3.39 6.64-8.76 12.05-15.37 15.5h-.18c-7.38-1.07-14.23-4.42-19.61-9.58-5.49-5.24-9.14-12.11-10.41-19.59l-2.26-13.26c-.01-.07.01-.15.05-.21s.1-.11.17-.13c2.51-.69 4.7-2.23 6.22-4.35 1.51-2.12 2.25-4.69 2.09-7.29 0-.07.02-.15.06-.2.04-.06.11-.1.18-.12l27.72-4.72c.07-.01.15.01.21.05s.11.1.13.17c.71 2.51 2.27 4.69 4.4 6.19 2.13 1.5 4.71 2.22 7.31 2.04.07 0 .14.02.2.06.06.04.1.1.12.17z" class="invert-stroke"/>
  <path fill="#6A4CE0" d="m255.19 38.26 1.82 10.72c1.06 6.06.12 12.29-2.68 17.77-2.72 5.37-7.05 9.76-12.38 12.56-.05.01-.1.01-.15 0-5.96-.87-11.5-3.58-15.85-7.75-4.42-4.23-7.35-9.78-8.36-15.81l-1.82-10.74c-.01-.06 0-.12.03-.17s.08-.09.14-.11c2.03-.56 3.8-1.8 5.02-3.51s1.82-3.79 1.69-5.89c-.01-.06.01-.12.05-.17.04-.05.09-.08.15-.09l22.39-3.83c.06-.01.12 0 .17.04.05.03.09.08.11.14.58 2.02 1.83 3.78 3.55 4.99s3.8 1.79 5.9 1.64c.05.02.1.04.13.08.04.04.07.08.09.13z"/>
  <path fill="#FFF" d="M247.64 49.01c-.02.05-.05.09-.09.12l-9.06 13.68c-.18.27-.4.5-.67.68s-.57.31-.88.37c-.32.06-.64.06-.96 0s-.62-.19-.89-.37l-5.89-3.9c-.27-.18-.5-.41-.68-.68s-.31-.57-.37-.89-.07-.64 0-.96c.06-.32.18-.62.36-.89l.05-.06c.18-.27.4-.5.67-.68s.57-.31.88-.37c.32-.06.64-.06.96 0s.62.19.89.37l3.63 2.38c.03.02.07.04.1.05.04.01.08.01.11 0 .04-.01.07-.02.1-.04s.06-.05.08-.08l7.49-11.33c.17-.27.39-.51.66-.7.26-.19.56-.32.87-.4.32-.07.64-.08.96-.03.32.05.62.17.9.34s.51.39.7.66c.19.26.32.56.4.87.07.31.08.64.03.96s-.17.62-.34.9h-.01z"/>
  <path fill="#C0C3F6" d="M5.94 130.62c2.87 0 5.19-2.32 5.19-5.19 0-2.87-2.32-5.19-5.19-5.19s-5.19 2.32-5.19 5.19c0 2.87 2.32 5.19 5.19 5.19z"/>
  <path d="M5.93 120.97c.88 0 1.75.26 2.48.75s1.31 1.19 1.65 2 .43 1.71.26 2.58-.6 1.66-1.22 2.29c-.62.62-1.42 1.05-2.29 1.22s-1.76.08-2.58-.26-1.51-.91-2-1.65-.75-1.6-.75-2.48c0-1.18.47-2.31 1.3-3.15.84-.83 1.97-1.3 3.15-1.3zm0-1.48c-1.18 0-2.32.35-3.3 1s-1.74 1.58-2.19 2.67-.57 2.28-.34 3.43.8 2.21 1.63 3.04c.83.83 1.89 1.39 3.04 1.62s2.35.11 3.43-.34c1.09-.45 2.01-1.21 2.66-2.19.65-.98 1-2.13 1-3.3 0-.78-.15-1.55-.45-2.27-.3-.72-.74-1.38-1.29-1.93s-1.21-.99-1.93-1.28c-.71-.3-1.48-.45-2.26-.45z" class="invert-fill"/>
  <path fill="none" stroke="#000" stroke-miterlimit="10" stroke-width="1.51" d="M145.3 22.08c1.33 0 2.41-1.08 2.41-2.41s-1.08-2.41-2.41-2.41-2.41 1.08-2.41 2.41 1.08 2.41 2.41 2.41z" class="invert-stroke"/>
  <path fill="none" stroke="#000" stroke-linecap="round" stroke-linejoin="round" stroke-width="1.51" d="M163.6 30.99v5.44" class="invert-stroke"/>
  <path fill="none" stroke="#000" stroke-linecap="round" stroke-linejoin="round" stroke-width="1.51" d="M166.32 33.71h-5.44" class="invert-stroke"/>
  <path fill="none" stroke="#000" stroke-linecap="round" stroke-linejoin="round" stroke-width="1.51" d="M76.7 166.17v5.44" class="invert-stroke"/>
  <path fill="none" stroke="#000" stroke-linecap="round" stroke-linejoin="round" stroke-width="1.51" d="M79.42 168.89h-5.44" class="invert-stroke"/>
  <path fill="none" stroke="#000" stroke-miterlimit="10" stroke-width="1.51" d="M261.98 108.17c1.33 0 2.41-1.08 2.41-2.41s-1.08-2.41-2.41-2.41-2.41 1.08-2.41 2.41 1.08 2.41 2.41 2.41z" class="invert-stroke"/>
  <path fill="none" stroke="#000" stroke-miterlimit="10" stroke-width="1.51" d="M50.36 148.4c1.33 0 2.41-1.08 2.41-2.41s-1.08-2.41-2.41-2.41-2.41 1.08-2.41 2.41 1.08 2.41 2.41 2.41z" class="invert-stroke"/>
  <path fill="none" stroke="#000" stroke-linecap="round" stroke-linejoin="round" stroke-width="1.51" d="M236.53 124.07v-5.43" class="invert-stroke"/>
  <path fill="none" stroke="#000" stroke-linecap="round" stroke-linejoin="round" stroke-width="1.51" d="M233.81 121.36h5.44" class="invert-stroke"/>
  <path fill="none" stroke="#000" stroke-linecap="round" stroke-linejoin="round" stroke-width="1.51" d="M43.33 73.68v15.59" class="invert-stroke"/>
  <path fill="none" stroke="#000" stroke-linecap="round" stroke-linejoin="round" stroke-width="1.51" d="M43.33 94.6v7.54" class="invert-stroke"/>
  <path fill="none" stroke="#000" stroke-linecap="round" stroke-linejoin="round" stroke-width="1.51" d="M53.79 73.68v34.9" class="invert-stroke"/>
  <path fill="none" stroke="#000" stroke-linecap="round" stroke-linejoin="round" stroke-width="1.51" d="M195.16 153.09h-15.59" class="invert-stroke"/>
  <path fill="none" stroke="#000" stroke-linecap="round" stroke-linejoin="round" stroke-width="1.51" d="M174.24 153.09h-7.54" class="invert-stroke"/>
  <path fill="none" stroke="#000" stroke-linecap="round" stroke-linejoin="round" stroke-width="1.51" d="M183.52 164.35h-42.64" class="invert-stroke"/>
  <path fill="none" stroke="#000" stroke-linecap="round" stroke-linejoin="round" stroke-width="1.51" d="M48.25 46.29V60.7"/>
  <path fill="none" stroke="#000" stroke-linecap="round" stroke-linejoin="round" stroke-width="1.51" d="m41.87 50.63 6.38-6.38 6.39 6.38"/>
  <path fill="#C0C3F6" d="M214.93 174.05c3.25 0 6.42-.96 9.12-2.76 2.7-1.8 4.81-4.36 6.05-7.36 1.24-3 1.57-6.3.94-9.48-.63-3.18-2.19-6.11-4.49-8.41-2.3-2.3-5.22-3.86-8.4-4.49-3.18-.63-6.49-.31-9.48.93s-5.56 3.35-7.37 6.05c-1.8 2.7-2.76 5.87-2.76 9.12 0 4.35 1.73 8.52 4.8 11.59 3.07 3.08 7.24 4.81 11.59 4.81z"/>
  <path fill="none" stroke="#000" stroke-linecap="round" stroke-linejoin="round" stroke-width="1.51" d="M221.13 157.64h-14.41"/>
  <path fill="none" stroke="#000" stroke-linecap="round" stroke-linejoin="round" stroke-width="1.51" d="m216.79 151.26 6.38 6.38-6.38 6.39"/>
</svg>
