<svg xmlns="http://www.w3.org/2000/svg" viewBox="0 0 269 190" width="269" height="190">
<path class="invert-fill" d="M177.99,187.8h61.2c0.1,0.01,0.2,0,0.3-0.03c0.1-0.03,0.18-0.08,0.26-0.14
	c0.08-0.06,0.14-0.14,0.19-0.23c0.05-0.09,0.07-0.19,0.08-0.29c0.01-0.2-0.05-0.4-0.18-0.56s-0.32-0.25-0.52-0.27h-61.33
	c-0.1,0.01-0.2,0.04-0.29,0.08c-0.09,0.05-0.17,0.11-0.23,0.19c-0.06,0.08-0.11,0.17-0.14,0.26c-0.03,0.1-0.04,0.2-0.03,0.3
	c0.01,0.18,0.09,0.35,0.22,0.47C177.64,187.71,177.81,187.79,177.99,187.8"/>
<path fill="#C5C8FB" d="M228.59,175.8h-54.94c0.46-2.61,1.83-4.97,3.86-6.68c2.03-1.7,4.6-2.63,7.25-2.63h0.44
	c1.05-1.86,2.45-3.5,4.13-4.82s3.6-2.29,5.66-2.87c2.06-0.58,4.21-0.74,6.33-0.49c2.12,0.26,4.17,0.93,6.03,1.97
	c3.69,2.06,6.43,5.47,7.65,9.51c1.59-1.45,3.7-2.21,5.85-2.12c2.15,0.1,4.18,1.05,5.64,2.64c1.36,1.49,2.12,3.44,2.12,5.46
	L228.59,175.8z"/>
<path class="invert-fill" d="M268.9,180.36c-0.03-0.1-0.08-0.18-0.14-0.26c-0.07-0.08-0.15-0.14-0.23-0.18
	c-0.09-0.04-0.19-0.07-0.29-0.08h-13.69c-0.07-1.02-0.3-2.02-0.69-2.97c-0.48-1.17-1.18-2.23-2.08-3.13
	c-0.89-0.9-1.95-1.61-3.11-2.09c-1.17-0.49-2.42-0.74-3.68-0.74c-2.05-0.01-4.03,0.65-5.67,1.84c-0.7-1.92-1.7-3.71-2.99-5.3
	c-1.53-1.88-3.42-3.44-5.56-4.6c-2.14-1.15-4.48-1.87-6.89-2.12c-2.41-0.25-4.85-0.01-7.18,0.68c-4.44,1.33-8.19,4.28-10.55,8.25
	h-0.09c-3.07-0.01-6.04,1.06-8.39,3.03c-2.35,1.97-3.93,4.71-4.46,7.73c-0.02,0.1-0.02,0.2,0.01,0.3c0.02,0.1,0.06,0.19,0.12,0.27
	c0.06,0.08,0.13,0.15,0.22,0.2c0.08,0.05,0.18,0.09,0.28,0.11h0.13h12.61c0.07,0.03,0.13,0.05,0.2,0.06h0.14h61.2
	c0.2,0.01,0.4-0.05,0.56-0.18c0.15-0.13,0.25-0.32,0.27-0.52C268.94,180.56,268.93,180.46,268.9,180.36z M198.69,173.87
	c2.08-1.74,4.7-2.69,7.4-2.69h0.44c0.14,0.01,0.28-0.03,0.4-0.1c0.12-0.07,0.22-0.17,0.29-0.29c2.22-3.91,5.89-6.78,10.21-7.99
	c4.33-1.21,8.96-0.66,12.88,1.54c3.83,2.15,6.67,5.71,7.92,9.92c0.06,0.19,0.2,0.35,0.37,0.45c0.18,0.09,0.38,0.12,0.58,0.06
	c0.11-0.04,0.21-0.1,0.3-0.18c1.58-1.45,3.67-2.22,5.82-2.13c2.15,0.09,4.17,1.03,5.62,2.61c1.2,1.31,1.93,2.97,2.1,4.73h-58.08
	C195.54,177.49,196.85,175.41,198.69,173.87z"/>
<path fill="#6A52DE" d="M93.56,23.63H25.28c0.57-3.24,2.26-6.18,4.79-8.3c2.52-2.12,5.71-3.28,9-3.28h0.54
	c1.3-2.31,3.05-4.35,5.13-5.98c2.09-1.64,4.48-2.85,7.03-3.56c2.56-0.71,5.23-0.92,7.86-0.6c2.63,0.32,5.18,1.15,7.49,2.46
	c4.57,2.57,7.96,6.82,9.45,11.84c0.98-0.9,2.12-1.6,3.37-2.06c1.25-0.46,2.57-0.67,3.9-0.61c1.33,0.05,2.63,0.37,3.84,0.93
	c1.21,0.56,2.29,1.35,3.19,2.32c1.71,1.87,2.67,4.31,2.67,6.85H93.56z"/>
<path class="invert-fill" d="M68.99,28.51v-0.78H0.7v0.78l0.75,0.13c0.54-3.08,2.14-5.87,4.53-7.88c2.39-2.01,5.41-3.12,8.53-3.12h0.51
	c0.14,0.01,0.28-0.02,0.4-0.09c0.12-0.07,0.22-0.17,0.29-0.29c1.25-2.23,2.93-4.19,4.94-5.76c2.01-1.58,4.31-2.74,6.77-3.43
	s5.03-0.89,7.57-0.58c2.54,0.3,4.99,1.11,7.21,2.36c4.4,2.47,7.66,6.56,9.1,11.39c0.03,0.1,0.08,0.19,0.15,0.27s0.15,0.15,0.24,0.19
	s0.2,0.08,0.3,0.08c0.1,0.01,0.21-0.01,0.31-0.04c0.11-0.04,0.2-0.1,0.29-0.17c0.9-0.83,1.96-1.48,3.11-1.9
	c1.15-0.42,2.37-0.62,3.6-0.57c1.22,0.05,2.43,0.34,3.54,0.85c1.11,0.51,2.11,1.24,2.95,2.14c1.61,1.74,2.49,4.02,2.48,6.38h1.52
	c0-2.88-1.14-5.64-3.18-7.68c-2.04-2.04-4.8-3.18-7.68-3.18c-2.73,0-5.36,1.02-7.36,2.87l0.51,0.56l0.73-0.26
	c-1.62-5.31-5.28-9.76-10.17-12.38c-4.89-2.62-10.62-3.2-15.94-1.6c-5.21,1.55-9.61,5.07-12.27,9.81l0.67,0.38v-0.77H14.5
	c-3.46,0.01-6.8,1.23-9.45,3.45c-2.65,2.22-4.44,5.29-5.06,8.69c-0.02,0.1-0.02,0.2,0,0.29c0.02,0.1,0.06,0.19,0.11,0.27
	c0.06,0.08,0.13,0.15,0.21,0.21c0.08,0.05,0.18,0.09,0.27,0.11h68.4c0.2,0,0.39-0.08,0.53-0.22c0.07-0.07,0.13-0.16,0.16-0.25
	c0.04-0.09,0.06-0.19,0.06-0.29L68.99,28.51z"/>
<path fill="#C5C8FB" d="M134.49,159.55c40.29,0,72.96-32.67,72.96-72.96c0-40.29-32.66-72.96-72.96-72.96
	c-40.29,0-72.96,32.67-72.96,72.96C61.53,126.89,94.2,159.55,134.49,159.55z"/>
<path class="invert-fill" d="M216.36,86.61c0-10.75-2.12-21.4-6.23-31.34c-4.11-9.94-10.15-18.97-17.75-26.57
	c-7.61-7.61-16.63-13.64-26.57-17.75c-9.94-4.12-20.58-6.23-31.34-6.23c-10.76,0-21.4,2.12-31.34,6.23
	c-9.94,4.11-18.97,10.15-26.57,17.75c-7.61,7.6-13.64,16.63-17.75,26.57c-4.12,9.94-6.23,20.59-6.23,31.34
	c0,10.75,2.12,21.41,6.23,31.34c4.11,9.94,10.15,18.97,17.75,26.57c7.6,7.61,16.63,13.64,26.57,17.76
	c9.94,4.12,20.59,6.23,31.34,6.23c10.75,0,21.4-2.12,31.34-6.23c9.93-4.11,18.96-10.15,26.57-17.75s13.64-16.63,17.75-26.57
	c1.25-3.03,2.3-6.13,3.18-9.27c0,0,0,0,0,0l0,0C215.3,101.5,216.35,94.08,216.36,86.61L216.36,86.61z M155.72,164.1
	c-6.66,1.83-13.54,2.8-20.47,2.86v-26.61c15.06-0.09,29.34-2.95,42.16-8.01C172.07,144.64,164.65,155.44,155.72,164.1z
	 M91.58,132.34c12.82,5.06,27.1,7.92,42.15,8.01v26.61c-6.93-0.06-13.81-1.03-20.48-2.86C104.32,155.45,96.91,144.64,91.58,132.34z
	 M54.11,87.21h26.61c0.07,15.12,2.94,29.45,8.01,42.31c-12.3-5.34-23.11-12.77-31.77-21.72C55.14,101.1,54.17,94.18,54.11,87.21z
	 M56.99,65.35c8.65-8.93,19.46-16.34,31.76-21.68c-5.08,12.87-7.94,27.2-8.02,42.32H54.12C54.17,79,55.15,72.07,56.99,65.35z
	 M113.21,9.13c6.68-1.83,13.57-2.81,20.52-2.87v26.55c-15.06,0.09-29.33,2.94-42.14,7.99C96.91,28.54,104.3,17.76,113.21,9.13z
	 M177.4,40.83c-12.81-5.06-27.09-7.92-42.15-8.02V6.26c6.96,0.07,13.86,1.05,20.55,2.89C164.69,17.79,172.08,28.57,177.4,40.83z
	 M135.25,34.36c15.42,0.1,30,3.13,43,8.46c5.36,13.05,8.4,27.69,8.47,43.17h-51.47V34.36z M133.73,34.36v51.63H82.28
	c0.08-15.48,3.1-30.12,8.45-43.16C103.72,37.49,118.31,34.45,133.73,34.36z M82.28,87.21h51.45v51.62c-15.41-0.1-30-3.13-42.99-8.46
	C85.39,117.33,82.36,102.69,82.28,87.21z M135.25,138.83V87.21h51.47c-0.08,15.47-3.11,30.11-8.47,43.14
	C165.26,135.7,150.67,138.73,135.25,138.83z M188.19,87.21h26.63c-0.05,6.99-1.03,13.93-2.87,20.65
	c-8.67,8.93-19.48,16.35-31.79,21.68C185.25,116.67,188.12,102.34,188.19,87.21z M188.19,85.99c-0.07-15.13-2.93-29.47-8-42.34
	c12.3,5.33,23.11,12.75,31.77,21.69c1.84,6.72,2.82,13.66,2.86,20.65H188.19z M191.29,29.8c7.47,7.45,13.4,16.31,17.44,26.05
	c0.87,2.11,1.64,4.26,2.33,6.43c-8.8-8.54-19.55-15.59-31.68-20.65c-5.04-12.09-12.06-22.82-20.57-31.59
	c2.16,0.69,4.31,1.45,6.41,2.32C174.97,16.41,183.83,22.33,191.29,29.8z M60.21,55.87c4.04-9.75,9.95-18.61,17.42-26.08
	c7.46-7.46,16.32-13.39,26.07-17.43c2.13-0.88,4.31-1.66,6.5-2.35c-8.52,8.77-15.56,19.5-20.61,31.6
	C77.45,46.67,66.7,53.71,57.9,62.25C58.59,60.1,59.34,57.97,60.21,55.87z M77.65,143.45c-7.46-7.46-13.39-16.32-17.43-26.07
	c-0.89-2.14-1.66-4.32-2.36-6.53c8.79,8.54,19.55,15.6,31.68,20.66c5.06,12.13,12.11,22.89,20.65,31.69
	c-2.18-0.69-4.34-1.46-6.46-2.34C93.98,156.83,85.12,150.91,77.65,143.45z M208.73,117.35c-4.04,9.75-9.95,18.61-17.42,26.08
	c-7.46,7.47-16.32,13.39-26.07,17.43c-2.15,0.89-4.35,1.67-6.56,2.37c8.54-8.79,15.6-19.54,20.66-31.67
	c12.14-5.06,22.91-12.11,31.71-20.65C210.37,113.09,209.6,115.24,208.73,117.35z"/>
<path class="invert-stroke" fill="#6A52DE" stroke="#000000" stroke-width="1.51" stroke-miterlimit="10" d="M200.23,14.8
	c0.06,2.59-0.68,5.14-2.11,7.31l-0.1,0.15l-9.03,13.54c-0.27,0.4-0.68,0.68-1.16,0.77c-0.47,0.09-0.96,0-1.36-0.27
	c-0.2-0.14-0.36-0.31-0.5-0.5l-9.09-13.57l-0.1-0.15c-1.87-2.84-2.53-6.3-1.85-9.63c0.68-3.33,2.66-6.25,5.5-8.11
	c2.84-1.87,6.3-2.53,9.63-1.85c3.33,0.68,6.24,2.66,8.11,5.5C199.49,10.02,200.2,12.38,200.23,14.8z"/>
<path class="invert-stroke" fill="#A77FFA" stroke="#000000" stroke-width="1.51" stroke-miterlimit="10" d="M166.77,83.12
	c0.08,3.76-1.04,7.44-3.19,10.52l-0.16,0.21l-13.77,19.52c-0.43,0.58-1.06,0.98-1.77,1.12c-0.71,0.14-1.44,0-2.05-0.39
	c-0.3-0.19-0.57-0.44-0.77-0.73l-13.78-19.52l-0.15-0.21c-1.39-2.01-2.36-4.29-2.83-6.7c-0.48-2.4-0.45-4.88,0.07-7.27
	c0.52-2.39,1.53-4.65,2.96-6.64c1.43-1.99,3.25-3.66,5.36-4.91c9-5.59,21-3.23,26.9,5.27C165.57,76.25,166.68,79.63,166.77,83.12
	L166.77,83.12z"/>
<path class="invert-stroke" fill="#6A52DE" stroke="#000000" stroke-width="1.51" stroke-miterlimit="10" d="M88.15,73.8
	c0.05,2.65-0.7,5.24-2.16,7.45l-0.1,0.16l-9.32,13.93c-0.28,0.41-0.71,0.69-1.2,0.79c-0.49,0.09-0.99-0.01-1.4-0.29
	c-0.2-0.13-0.37-0.3-0.51-0.5l-9.32-13.93l-0.1-0.16c-0.95-1.44-1.6-3.05-1.93-4.75c-0.32-1.69-0.31-3.44,0.04-5.12
	c0.35-1.69,1.03-3.29,2-4.72c0.97-1.43,2.21-2.65,3.65-3.6c2.91-1.91,6.46-2.6,9.87-1.89c3.41,0.7,6.4,2.73,8.32,5.63
	C87.36,68.88,88.11,71.31,88.15,73.8L88.15,73.8z"/>
<path class="invert-stroke" fill="none" stroke="#000000" stroke-width="1.51" stroke-miterlimit="10" d="M46.26,152.25
	c1.19,0,2.15-0.96,2.15-2.15c0-1.19-0.96-2.15-2.15-2.15c-1.19,0-2.15,0.96-2.15,2.15C44.11,151.29,45.07,152.25,46.26,152.25z"/>
<path class="invert-stroke" fill="none" stroke="#000000" stroke-width="1.51" stroke-miterlimit="10" d="M234.88,13.69
	c1.19,0,2.15-0.96,2.15-2.15s-0.96-2.15-2.15-2.15c-1.19,0-2.15,0.96-2.15,2.15S233.69,13.69,234.88,13.69z"/>
<path class="invert-stroke" fill="none" stroke="#000000" stroke-width="1.51" stroke-miterlimit="10" d="M234.01,131.03
	c1.19,0,2.15-0.96,2.15-2.15c0-1.19-0.96-2.15-2.15-2.15c-1.19,0-2.15,0.96-2.15,2.15C231.86,130.07,232.82,131.03,234.01,131.03z"
	/>
<path class="invert-stroke" fill="none" stroke="#000000" stroke-width="1.51" stroke-linecap="round" stroke-linejoin="round" d="
	M19.36,109.89v-4.83"/>
<path class="invert-stroke" fill="none" stroke="#000000" stroke-width="1.51" stroke-linecap="round" stroke-linejoin="round" d="
	M16.94,107.47h4.83"/>
<path class="invert-stroke" fill="none" stroke="#000000" stroke-width="1.51" stroke-linecap="round" stroke-linejoin="round" d="
	M31.51,65.56v-4.84"/>
<path class="invert-stroke" fill="none" stroke="#000000" stroke-width="1.51" stroke-linecap="round" stroke-linejoin="round" d="
	M29.1,63.14h4.83"/>
<path class="invert-stroke" fill="none" stroke="#000000" stroke-width="1.51" stroke-linecap="round" stroke-linejoin="round" d="
	M228,44.26v-4.83"/>
<path class="invert-stroke" fill="none" stroke="#000000" stroke-width="1.51" stroke-linecap="round" stroke-linejoin="round" d="
	M225.58,41.84h4.83"/>
<g>
	<path fill="none" stroke="#FFFFFF" stroke-width="1.51" stroke-linecap="round" stroke-linejoin="round" d="M140.08,77.25
		l3.01,3.01"/>
	<path fill="none" stroke="#FFFFFF" stroke-width="1.51" stroke-linecap="round" stroke-linejoin="round" d="M152.51,88.68
		l3.01,3.01"/>
	<path fill="none" stroke="#FFFFFF" stroke-width="1.51" stroke-linecap="round" stroke-linejoin="round" d="M155.52,77.25
		l-3.01,3.01"/>
	<path fill="none" stroke="#FFFFFF" stroke-width="1.51" stroke-linecap="round" stroke-linejoin="round" d="M143.09,88.68
		l-3.01,3.01"/>
	<path fill="none" stroke="#FFFFFF" stroke-width="1.51" stroke-linecap="round" stroke-linejoin="round" d="M147.78,90.56
		c3.34,0,6.05-2.71,6.05-6.05s-2.71-6.05-6.05-6.05s-6.05,2.71-6.05,6.05S144.44,90.56,147.78,90.56z"/>
</g>
<g>
	<path fill="none" stroke="#FFFFFF" stroke-width="1.51" stroke-linecap="round" stroke-linejoin="round" d="M182.75,11.25
		l1.97,1.97"/>
	<path fill="none" stroke="#FFFFFF" stroke-width="1.51" stroke-linecap="round" stroke-linejoin="round" d="M190.88,18.72
		l1.96,1.97"/>
	<path fill="none" stroke="#FFFFFF" stroke-width="1.51" stroke-linecap="round" stroke-linejoin="round" d="M192.84,11.25
		l-1.96,1.97"/>
	<path fill="none" stroke="#FFFFFF" stroke-width="1.51" stroke-linecap="round" stroke-linejoin="round" d="M184.72,18.72
		l-1.97,1.97"/>
	<path fill="none" stroke="#FFFFFF" stroke-width="1.51" stroke-linecap="round" stroke-linejoin="round" d="M187.79,19.96
		c2.19,0,3.96-1.77,3.96-3.96c0-2.19-1.77-3.96-3.96-3.96c-2.19,0-3.96,1.77-3.96,3.96C183.83,18.19,185.6,19.96,187.79,19.96z"/>
</g>
<g>
	<path fill="none" stroke="#FFFFFF" stroke-width="1.51" stroke-linecap="round" stroke-linejoin="round" d="M69.75,70.25l1.97,1.97
		"/>
	<path fill="none" stroke="#FFFFFF" stroke-width="1.51" stroke-linecap="round" stroke-linejoin="round" d="M77.88,77.72l1.96,1.97
		"/>
	<path fill="none" stroke="#FFFFFF" stroke-width="1.51" stroke-linecap="round" stroke-linejoin="round" d="M79.84,70.25
		l-1.96,1.97"/>
	<path fill="none" stroke="#FFFFFF" stroke-width="1.51" stroke-linecap="round" stroke-linejoin="round" d="M71.72,77.72
		l-1.97,1.97"/>
	<path fill="none" stroke="#FFFFFF" stroke-width="1.51" stroke-linecap="round" stroke-linejoin="round" d="M74.79,78.96
		c2.19,0,3.96-1.77,3.96-3.96c0-2.19-1.77-3.96-3.96-3.96c-2.19,0-3.96,1.77-3.96,3.96C70.83,77.19,72.6,78.96,74.79,78.96z"/>
</g>
</svg>
