<svg xmlns="http://www.w3.org/2000/svg" xml:space="preserve" viewBox="0 0 254 190" width="254" height="190">
  <style>
    .st0{fill:none;stroke:#000;stroke-width:1.51;stroke-miterlimit:10}.st1{fill:#6a52de}.st2,.st5{stroke:#000;stroke-width:1.51}.st2{fill:#fff;stroke-miterlimit:10}.st5{fill:none;stroke-linecap:round;stroke-linejoin:round}
  </style>
  <path d="M140.77 104.92c5.14-2 11.28-.08 16.81-.66 7.25-.77 14.29-2.89 20.76-6.26 4.89-2.56 9.4-5.81 14.37-8.22 3.85-1.86 7.93-3.21 12.14-4 6.94-1.29 15-.66 19.76 4.55 8.3 9.09.05 26.41-4.1 36" class="invert-stroke st0"/>
  <path d="M26.67 65.26c5.75-4.6 16.34-4.6 24.45.02 18.91 10.85 15.27 37.74 36.7 45.89 7.75 2.94 15.55.73 21.13-3 5.58-3.73 9.75-8.78 15.5-12.28s14-5.18 21.52-1.59" class="invert-stroke st0"/>
  <path d="M63.01 160.96c.52 0 1.03.16 1.46.45.43.29.77.7.97 1.19.2.48.25 1.01.15 1.52s-.35.98-.72 1.35c-.37.37-.83.62-1.34.73-.51.11-1.04.06-1.52-.13s-.9-.53-1.2-.95c-.3-.43-.46-.93-.47-1.46-.01-.35.06-.71.19-1.03.13-.33.33-.63.58-.88.25-.25.55-.45.87-.59.33-.14.68-.2 1.03-.2z" class="st1"/>
  <path d="M83.17 141.24c-2.57-2.77-5.67-4.98-9.13-6.49-3.46-1.51-7.19-2.29-10.97-2.29s-7.51.78-10.97 2.29c-3.46 1.51-6.57 3.72-9.13 6.49-.16.15-.29.33-.38.54-.09.2-.13.42-.13.64 0 .22.05.44.13.64.09.2.22.38.38.53.16.15.35.27.56.34.21.07.43.1.65.09.22-.02.44-.08.63-.18s.37-.24.51-.42c2.26-2.45 5.01-4.4 8.07-5.74 3.06-1.34 6.35-2.02 9.69-2.02 3.33 0 6.63.69 9.69 2.02 3.06 1.34 5.8 3.29 8.07 5.74.29.31.69.49 1.11.51.42.01.84-.14 1.15-.43.16-.14.28-.32.37-.51s.14-.4.14-.61c.01-.21-.03-.42-.1-.62-.08-.19-.2-.37-.34-.52z" class="st1"/>
  <path d="M77.28 147.87c-1.83-1.93-4.03-3.46-6.48-4.51-2.44-1.05-5.07-1.59-7.73-1.59s-5.29.54-7.73 1.59c-2.44 1.05-4.65 2.58-6.48 4.51-.26.31-.4.71-.38 1.11.02.4.19.79.48 1.07.29.29.67.45 1.08.47.41.01.8-.12 1.11-.39 1.53-1.63 3.38-2.92 5.44-3.81 2.05-.89 4.26-1.34 6.5-1.34s4.45.46 6.5 1.34 3.9 2.18 5.44 3.81c.15.15.32.27.52.35.19.08.4.12.61.12.32 0 .63-.09.89-.27.26-.18.47-.43.59-.72s.15-.62.09-.93c-.07-.3-.23-.59-.45-.81z" class="st1"/>
  <path d="M70.86 154.52c-2.08-2.07-4.87-3.27-7.8-3.36h-.12c-2.94.09-5.73 1.29-7.81 3.36-.3.3-.47.71-.47 1.13s.17.83.47 1.13c.3.3.71.46 1.13.46s.83-.17 1.14-.46c1.48-1.47 3.46-2.34 5.55-2.43h.12c2.09.09 4.07.96 5.55 2.43.3.3.71.46 1.14.46.42 0 .83-.18 1.13-.48.3-.3.46-.71.46-1.14 0-.42-.17-.83-.48-1.13l-.01.03z" class="st1"/>
  <path d="M116.58 76.91V54.56c0-5.69 2.26-11.14 6.28-15.17 4.02-4.02 9.48-6.28 15.17-6.28s11.15 2.26 15.17 6.28c4.02 4.02 6.28 9.48 6.28 15.17v22.35h12.16V55.54c0-8.91-3.54-17.46-9.84-23.77-6.3-6.3-14.85-9.84-23.77-9.84s-17.46 3.54-23.77 9.84-9.84 14.85-9.84 23.77v21.37h12.16z" class="invert-stroke st2"/>
  <path fill="#a67bfc" stroke="#000" stroke-miterlimit="10" stroke-width="1.51" d="M173.16 70.29H102.9c-.71 0-1.41.14-2.07.41-.65.27-1.25.67-1.75 1.17-.5.5-.9 1.1-1.17 1.75-.27.65-.41 1.36-.41 2.07v51.05c0 .71.14 1.41.41 2.06s.67 1.25 1.17 1.75c.5.5 1.1.9 1.75 1.17.65.27 1.36.41 2.07.41h70.26c.71 0 1.41-.14 2.07-.41.66-.27 1.25-.67 1.75-1.17.5-.5.9-1.1 1.17-1.75.27-.65.41-1.36.42-2.07V75.66c-.01-1.43-.58-2.8-1.6-3.8-1.01-1.01-2.38-1.57-3.81-1.57z" class="invert-stroke"/>
  <path d="M146.81 96.44c-.01 1.48-.38 2.94-1.1 4.23-.72 1.3-1.75 2.39-3 3.18v6.2c0 1.24-.49 2.43-1.37 3.31-.88.88-2.07 1.37-3.31 1.37s-2.43-.49-3.31-1.37c-.88-.88-1.37-2.07-1.37-3.31v-6.2c-1.96-1.22-3.35-3.17-3.88-5.42-.53-2.25-.14-4.61 1.07-6.58.8-1.3 1.92-2.37 3.25-3.11 1.34-.73 2.84-1.1 4.37-1.08 1.53.02 3.02.44 4.33 1.21 1.32.77 2.41 1.87 3.16 3.2.76 1.33 1.16 2.84 1.16 4.37z" class="st2"/>
  <path fill="#c0c3f6" d="m217.99 130.23 11.02 3.82 6.77 15.44-14.12 38.7-33.31-11.95 14.11-38.71 15.53-7.3z"/>
  <path d="M215.82 141.61c2.09 0 3.79-1.7 3.79-3.79s-1.7-3.79-3.79-3.79-3.79 1.7-3.79 3.79 1.7 3.79 3.79 3.79z" class="invert-stroke st0"/>
  <path d="m208.85 121.74 22.74 7.77.64 17.63L218 187.19l-35.31-12.97 14.15-39.52 12.01-12.96z" class="invert-stroke st5"/>
  <path d="M199.11 33.14v5.09" class="invert-stroke st5"/>
  <path d="M201.66 35.68h-5.09" class="invert-stroke st5"/>
  <path d="M109.47 2.25v5.09" class="invert-stroke st5"/>
  <path d="M112.02 4.8h-5.09" class="invert-stroke st5"/>
  <path d="M25.39 23.26c1.46 0 2.64-1.18 2.64-2.64 0-1.46-1.18-2.64-2.64-2.64s-2.64 1.18-2.64 2.64c0 1.46 1.18 2.64 2.64 2.64z" class="invert-stroke st0"/>
  <path d="M51.38 113.65c1.25 0 2.26-1.01 2.26-2.26s-1.01-2.26-2.26-2.26-2.26 1.01-2.26 2.26 1.01 2.26 2.26 2.26z" class="invert-stroke st0"/>
  <path d="M34.9 122.78v5.09" class="invert-stroke st5"/>
  <path d="M37.44 125.33h-5.09" class="invert-stroke st5"/>
  <path d="M138.1 158.94v5.09" class="invert-stroke st5"/>
  <path d="M140.64 161.48h-5.09" class="invert-stroke st5"/>
  <path d="M249.87 74.48c1.46 0 2.64-1.18 2.64-2.64 0-1.46-1.18-2.64-2.64-2.64-1.46 0-2.64 1.18-2.64 2.64 0 1.46 1.18 2.64 2.64 2.64z" class="invert-stroke st0"/>
  <path fill="#6a52de" stroke="#000" stroke-miterlimit="10" stroke-width="1.51" d="M58.68 30.29 15.85 53.44c-3 1.62-4.11 5.36-2.49 8.36l12.4 22.94c1.62 3 5.36 4.11 8.36 2.49l42.83-23.15c3-1.62 4.11-5.36 2.49-8.36l-12.4-22.94c-1.62-2.99-5.37-4.11-8.36-2.49z" class="invert-stroke"/>
  <path d="M51.31 44.44 5.02 59.49C1.78 60.54 0 64.02 1.05 67.26l8.06 24.8c1.05 3.24 4.53 5.01 7.77 3.96l46.3-15.04c3.24-1.05 5.01-4.53 3.96-7.77l-8.06-24.8c-1.05-3.24-4.53-5.02-7.77-3.97z" class="invert-stroke invert-card st2"/>
  <path d="M55.01 71.75c-.75-.31-1.57-.41-2.36-.27-.8.14-1.54.51-2.13 1.06-.59.55-1.02 1.26-1.22 2.04-.2.78-.17 1.61.08 2.38.26.77.73 1.45 1.36 1.95.63.51 1.4.82 2.2.9.81.08 1.62-.07 2.34-.43.72-.37 1.32-.93 1.73-1.63" class="invert-stroke st0"/>
  <path d="M58.61 78.11c2.32 0 4.2-1.88 4.2-4.2 0-2.32-1.88-4.2-4.2-4.2s-4.2 1.88-4.2 4.2c0 2.32 1.88 4.2 4.2 4.2z" class="invert-stroke st0"/>
  <path d="m1.01 67.13 58.03-18.86" class="invert-stroke st0"/>
  <path d="m3.23 72.74 58.03-18.86" class="invert-stroke st0"/>
</svg>
