<svg width="24" height="24" viewBox="0 0 24 24" fill="none" xmlns="http://www.w3.org/2000/svg">
<circle cx="12" cy="6" r="3" stroke="black" stroke-width="2"/>
<path d="M18 18.3939C18 19.2969 17.8255 19.8131 17.6196 20.1198C17.4253 20.4092 17.1326 20.6175 16.658 20.7623C16.1604 20.914 15.5185 20.9782 14.7041 20.995C14.2126 21.0051 13.7162 20.9984 13.1818 20.9913C12.8099 20.9863 12.4197 20.981 12 20.981C11.5803 20.981 11.1901 20.9863 10.8182 20.9913C10.2838 20.9984 9.78736 21.0051 9.2959 20.995C8.48146 20.9782 7.83961 20.914 7.34197 20.7623C6.86735 20.6175 6.57467 20.4092 6.38039 20.1198C6.17453 19.8131 6 19.2969 6 18.3939C6 14.8104 8.73717 12 12 12C15.2628 12 18 14.8104 18 18.3939Z" stroke="black" stroke-width="2"/>
</svg>
