<?xml version="1.0" encoding="UTF-8"?><svg id="Layer_1" xmlns="http://www.w3.org/2000/svg" viewBox="0 0 239.29 125.65"><defs><style>.cls-1,.cls-2,.cls-3{stroke-miterlimit:10;}.cls-1,.cls-2,.cls-3,.cls-4{stroke:#010101;stroke-width:3px;}.cls-1,.cls-3,.cls-4{stroke-linecap:round;}.cls-1,.cls-4{fill:none;}.cls-2,.cls-5,.cls-3{fill:#08b6a9;}.cls-5{stroke-width:0px;}.cls-4{stroke-linejoin:round;}</style></defs><path class="cls-5" d="m167.9,65.68s-20.02,8.16-28.7-16.64c0,0,28.87-2.05,28.7,16.64Z"/><path class="cls-5" d="m170.97,85.59s-8.25-30.66,42.05-32.09c0,0-11.86,42.4-42.05,32.09h0Z"/><path class="cls-1" d="m170.88,86.58s-7.76-30.52,42.1-32.36c0,0-11.31,42.66-42.1,32.36h0Z"/><path class="cls-5" d="m39.74,113.02s-13.07-7.53,3.35-24.91c0,0,10.26,18.22-3.35,24.91h0Z"/><path class="cls-1" d="m40.04,113.38s-12.86-7.65,3.27-25.01c0,0,10.53,18.13-3.27,25.01h0Z"/><path class="cls-3" d="m167.94,65.51s-19.48,8.79-28.72-16.57c0,0,30.62-1.44,28.72,16.57Z"/><path class="cls-2" d="m147.85,20.22c-5.09,0-9.41-3.26-11.01-7.81h11.01c5.09,0,9.41,3.26,11.01,7.81h-11.01Z"/><path class="cls-2" d="m32.4,107.12c-3.43-3.43-4.14-8.52-2.15-12.67l7.41,7.41c3.43,3.43,4.14,8.52,2.15,12.67l-7.41-7.41Z"/><line class="cls-4" x1="10.7" y1="116.08" x2="231.31" y2="116.08"/><path class="cls-1" d="m182.34,33.47c-14,7-12.58,29.02-12.58,29.02v53.46"/><path class="cls-1" d="m158.49,19.52s15.85,1.94,11.85,33.94"/><path class="cls-2" d="m195.84,34.86h-16c2.32-6.62,8.6-11.35,16-11.35h16c-2.32,6.62-8.6,11.35-16,11.35Z"/><path class="cls-3" d="m154.52,58.43s7.84,2.15,13.42,7.08"/><path class="cls-3" d="m191.52,66.43s-12.11,6.32-20.55,19.16"/><path class="cls-2" d="m124.3,96.7l-16.38,4.14c.66-7.38,5.87-13.86,13.44-15.77l16.38-4.14c-.66,7.38-5.87,13.86-13.44,15.77Z"/><path class="cls-4" d="m98.23,82.44s8.1,1.51,8.1,14.31v18.74"/><path class="cls-2" d="m85.33,87.35c-6.01,2.36-12.61.51-16.61-4.13l12.99-5.09c6.01-2.36,12.61-.51,16.61,4.13l-12.99,5.09Z"/></svg>
