<?xml version="1.0" encoding="utf-8"?>
<!-- Generator: Adobe Illustrator 16.0.0, SVG Export Plug-In . SVG Version: 6.00 Build 0)  -->
<!DOCTYPE svg PUBLIC "-//W3C//DTD SVG 1.1//EN" "http://www.w3.org/Graphics/SVG/1.1/DTD/svg11.dtd">
<svg version="1.1" id="RO_Download_on_the" xmlns="http://www.w3.org/2000/svg" xmlns:xlink="http://www.w3.org/1999/xlink" x="0px"
	 y="0px" width="135px" height="40px" viewBox="0 0 135 40" enable-background="new 0 0 135 40" xml:space="preserve">
<g>
	<path fill="#A6A6A6" d="M130.197,40H4.729C2.122,40,0,37.872,0,35.267V4.726C0,2.12,2.122,0,4.729,0h125.468
		C132.803,0,135,2.12,135,4.726v30.541C135,37.872,132.803,40,130.197,40L130.197,40z"/>
	<path d="M134.032,35.268c0,2.116-1.714,3.83-3.834,3.83H4.729c-2.119,0-3.839-1.714-3.839-3.83V4.725
		c0-2.115,1.72-3.835,3.839-3.835h125.468c2.121,0,3.834,1.72,3.834,3.835L134.032,35.268L134.032,35.268z"/>
	<g>
		<g>
			<path fill="#FFFFFF" d="M30.128,19.784c-0.029-3.223,2.639-4.791,2.761-4.864c-1.511-2.203-3.853-2.504-4.676-2.528
				c-1.967-0.207-3.875,1.177-4.877,1.177c-1.022,0-2.565-1.157-4.228-1.123c-2.14,0.033-4.142,1.272-5.24,3.196
				c-2.266,3.923-0.576,9.688,1.595,12.859c1.086,1.553,2.355,3.287,4.016,3.226c1.625-0.067,2.232-1.036,4.193-1.036
				c1.943,0,2.513,1.036,4.207,0.997c1.744-0.028,2.842-1.56,3.89-3.127c1.255-1.78,1.759-3.533,1.779-3.623
				C33.507,24.924,30.161,23.647,30.128,19.784z"/>
			<path fill="#FFFFFF" d="M26.928,10.306c0.874-1.093,1.472-2.58,1.306-4.089c-1.265,0.056-2.847,0.875-3.758,1.944
				c-0.806,0.942-1.526,2.486-1.34,3.938C24.557,12.205,26.016,11.382,26.928,10.306z"/>
		</g>
	</g>
	<g>
		<path fill="#FFFFFF" d="M53.645,31.504h-2.271l-1.244-3.909h-4.324l-1.185,3.909h-2.211l4.284-13.308h2.646L53.645,31.504z
			 M49.755,25.955L48.63,22.48c-0.119-0.355-0.342-1.191-0.671-2.507h-0.04c-0.131,0.566-0.342,1.402-0.632,2.507l-1.105,3.475
			H49.755z"/>
		<path fill="#FFFFFF" d="M64.662,26.588c0,1.632-0.441,2.922-1.323,3.869c-0.79,0.843-1.771,1.264-2.942,1.264
			c-1.264,0-2.172-0.454-2.725-1.362h-0.04v5.055h-2.132V25.067c0-1.026-0.027-2.079-0.079-3.159h1.875l0.119,1.521h0.04
			c0.711-1.146,1.79-1.718,3.238-1.718c1.132,0,2.077,0.447,2.833,1.342C64.284,23.949,64.662,25.127,64.662,26.588z M62.49,26.666
			c0-0.934-0.21-1.704-0.632-2.31c-0.461-0.632-1.08-0.948-1.856-0.948c-0.526,0-1.004,0.176-1.431,0.523
			c-0.428,0.35-0.708,0.807-0.839,1.373c-0.066,0.264-0.099,0.48-0.099,0.65v1.6c0,0.698,0.214,1.287,0.642,1.768
			s0.984,0.721,1.668,0.721c0.803,0,1.428-0.31,1.875-0.928C62.266,28.496,62.49,27.68,62.49,26.666z"/>
		<path fill="#FFFFFF" d="M75.699,26.588c0,1.632-0.441,2.922-1.324,3.869c-0.789,0.843-1.77,1.264-2.941,1.264
			c-1.264,0-2.172-0.454-2.724-1.362H68.67v5.055h-2.132V25.067c0-1.026-0.027-2.079-0.079-3.159h1.875l0.119,1.521h0.04
			c0.71-1.146,1.789-1.718,3.238-1.718c1.131,0,2.076,0.447,2.834,1.342C75.32,23.949,75.699,25.127,75.699,26.588z M73.527,26.666
			c0-0.934-0.211-1.704-0.633-2.31c-0.461-0.632-1.078-0.948-1.855-0.948c-0.527,0-1.004,0.176-1.432,0.523
			c-0.428,0.35-0.707,0.807-0.838,1.373c-0.065,0.264-0.099,0.48-0.099,0.65v1.6c0,0.698,0.214,1.287,0.64,1.768
			c0.428,0.48,0.984,0.721,1.67,0.721c0.803,0,1.428-0.31,1.875-0.928C73.303,28.496,73.527,27.68,73.527,26.666z"/>
		<path fill="#FFFFFF" d="M88.039,27.772c0,1.132-0.393,2.053-1.182,2.764c-0.867,0.777-2.074,1.165-3.625,1.165
			c-1.432,0-2.58-0.276-3.449-0.829l0.494-1.777c0.936,0.566,1.963,0.85,3.082,0.85c0.803,0,1.428-0.182,1.877-0.544
			c0.447-0.362,0.67-0.848,0.67-1.454c0-0.54-0.184-0.995-0.553-1.364c-0.367-0.369-0.98-0.712-1.836-1.029
			c-2.33-0.869-3.494-2.142-3.494-3.816c0-1.094,0.408-1.991,1.225-2.689c0.814-0.699,1.9-1.048,3.258-1.048
			c1.211,0,2.217,0.211,3.02,0.632l-0.533,1.738c-0.75-0.408-1.598-0.612-2.547-0.612c-0.75,0-1.336,0.185-1.756,0.553
			c-0.355,0.329-0.533,0.73-0.533,1.205c0,0.526,0.203,0.961,0.611,1.303c0.355,0.316,1,0.658,1.936,1.027
			c1.145,0.461,1.986,1,2.527,1.618C87.77,26.081,88.039,26.852,88.039,27.772z"/>
		<path fill="#FFFFFF" d="M95.088,23.508h-2.35v4.659c0,1.185,0.414,1.777,1.244,1.777c0.381,0,0.697-0.033,0.947-0.099l0.059,1.619
			c-0.42,0.157-0.973,0.236-1.658,0.236c-0.842,0-1.5-0.257-1.975-0.77c-0.473-0.514-0.711-1.376-0.711-2.587v-4.837h-1.4v-1.6h1.4
			v-1.757l2.094-0.632v2.389h2.35V23.508z"/>
		<path fill="#FFFFFF" d="M105.691,26.627c0,1.475-0.422,2.686-1.264,3.633c-0.883,0.975-2.055,1.461-3.516,1.461
			c-1.408,0-2.529-0.467-3.365-1.401s-1.254-2.113-1.254-3.534c0-1.487,0.43-2.705,1.293-3.652c0.861-0.948,2.023-1.422,3.484-1.422
			c1.408,0,2.541,0.467,3.396,1.402C105.283,24.021,105.691,25.192,105.691,26.627z M103.479,26.696
			c0-0.885-0.189-1.644-0.572-2.277c-0.447-0.766-1.086-1.148-1.914-1.148c-0.857,0-1.508,0.383-1.955,1.148
			c-0.383,0.634-0.572,1.405-0.572,2.317c0,0.885,0.189,1.644,0.572,2.276c0.461,0.766,1.105,1.148,1.936,1.148
			c0.814,0,1.453-0.39,1.914-1.168C103.281,28.347,103.479,27.58,103.479,26.696z"/>
		<path fill="#FFFFFF" d="M112.621,23.783c-0.211-0.039-0.436-0.059-0.672-0.059c-0.75,0-1.33,0.283-1.738,0.85
			c-0.355,0.5-0.533,1.132-0.533,1.895v5.035h-2.131l0.02-6.574c0-1.106-0.027-2.113-0.08-3.021h1.857l0.078,1.836h0.059
			c0.225-0.631,0.58-1.139,1.066-1.52c0.475-0.343,0.988-0.514,1.541-0.514c0.197,0,0.375,0.014,0.533,0.039V23.783z"/>
		<path fill="#FFFFFF" d="M122.156,26.252c0,0.382-0.025,0.704-0.078,0.967h-6.396c0.025,0.948,0.334,1.673,0.928,2.173
			c0.539,0.447,1.236,0.671,2.092,0.671c0.947,0,1.811-0.151,2.588-0.454l0.334,1.48c-0.908,0.396-1.98,0.593-3.217,0.593
			c-1.488,0-2.656-0.438-3.506-1.313c-0.848-0.875-1.273-2.05-1.273-3.524c0-1.447,0.395-2.652,1.186-3.613
			c0.828-1.026,1.947-1.539,3.355-1.539c1.383,0,2.43,0.513,3.141,1.539C121.873,24.047,122.156,25.055,122.156,26.252z
			 M120.123,25.699c0.014-0.632-0.125-1.178-0.414-1.639c-0.369-0.593-0.936-0.889-1.699-0.889c-0.697,0-1.264,0.289-1.697,0.869
			c-0.355,0.461-0.566,1.014-0.631,1.658H120.123z"/>
	</g>
	<g>
		<g>
			<path fill="#FFFFFF" d="M49.05,10.009c0,1.177-0.353,2.063-1.058,2.658c-0.653,0.549-1.581,0.824-2.783,0.824
				c-0.596,0-1.106-0.026-1.533-0.078V6.982c0.557-0.09,1.157-0.136,1.805-0.136c1.145,0,2.008,0.249,2.59,0.747
				C48.723,8.156,49.05,8.961,49.05,10.009z M47.945,10.038c0-0.763-0.202-1.348-0.606-1.756c-0.404-0.407-0.994-0.611-1.771-0.611
				c-0.33,0-0.611,0.022-0.844,0.068v4.889c0.129,0.02,0.365,0.029,0.708,0.029c0.802,0,1.421-0.223,1.857-0.669
				S47.945,10.892,47.945,10.038z"/>
			<path fill="#FFFFFF" d="M54.482,10.853c0,0.188-0.014,0.346-0.039,0.475H51.3c0.013,0.466,0.164,0.821,0.455,1.067
				c0.266,0.22,0.608,0.33,1.028,0.33c0.466,0,0.89-0.074,1.271-0.223l0.164,0.728c-0.446,0.194-0.973,0.291-1.581,0.291
				c-0.73,0-1.305-0.215-1.722-0.645s-0.625-1.007-0.625-1.731c0-0.711,0.193-1.303,0.582-1.775
				c0.407-0.504,0.956-0.756,1.648-0.756c0.679,0,1.193,0.252,1.542,0.756C54.342,9.77,54.482,10.265,54.482,10.853z M53.482,10.582
				c0.007-0.311-0.062-0.579-0.203-0.805C53.097,9.485,52.82,9.34,52.445,9.34c-0.343,0-0.621,0.142-0.835,0.427
				c-0.174,0.227-0.277,0.498-0.31,0.815H53.482z"/>
			<path fill="#FFFFFF" d="M58.884,12.079c0,0.438-0.161,0.79-0.484,1.055s-0.77,0.397-1.339,0.397c-0.537,0-0.992-0.107-1.367-0.32
				l0.223-0.776c0.362,0.22,0.747,0.33,1.154,0.33c0.537,0,0.805-0.197,0.805-0.592c0-0.174-0.058-0.318-0.174-0.432
				c-0.117-0.113-0.324-0.225-0.621-0.334c-0.841-0.311-1.261-0.763-1.261-1.358c0-0.407,0.155-0.747,0.465-1.019
				c0.311-0.271,0.722-0.407,1.232-0.407c0.466,0,0.863,0.095,1.193,0.285L58.487,9.66c-0.304-0.181-0.624-0.271-0.96-0.271
				c-0.22,0-0.392,0.052-0.515,0.155c-0.122,0.104-0.184,0.235-0.184,0.397c0,0.161,0.064,0.293,0.193,0.396
				c0.11,0.097,0.323,0.203,0.641,0.319C58.477,10.966,58.884,11.44,58.884,12.079z"/>
			<path fill="#FFFFFF" d="M63.813,8.845L63.61,9.641c-0.266-0.129-0.569-0.194-0.912-0.194c-0.459,0-0.823,0.154-1.092,0.461
				c-0.268,0.307-0.402,0.697-0.402,1.169c0,0.498,0.141,0.892,0.422,1.183s0.639,0.437,1.072,0.437c0.323,0,0.64-0.064,0.95-0.194
				l0.146,0.786c-0.343,0.162-0.775,0.243-1.3,0.243c-0.718,0-1.29-0.218-1.717-0.655s-0.64-1.02-0.64-1.751
				c0-0.73,0.229-1.331,0.688-1.799s1.076-0.703,1.853-0.703C63.118,8.622,63.497,8.696,63.813,8.845z"/>
			<path fill="#FFFFFF" d="M67.847,13.433L67.77,12.89h-0.029c-0.317,0.433-0.778,0.65-1.382,0.65c-0.214,0-0.409-0.036-0.584-0.107
				c-0.176-0.071-0.328-0.168-0.458-0.291c-0.129-0.123-0.23-0.268-0.302-0.437c-0.071-0.168-0.106-0.353-0.106-0.553
				c0-0.588,0.24-1.03,0.72-1.324c0.48-0.294,1.162-0.441,2.045-0.441V10.3c0-0.621-0.328-0.931-0.982-0.931
				c-0.467,0-0.878,0.117-1.234,0.349l-0.213-0.688c0.434-0.271,0.974-0.407,1.621-0.407c1.237,0,1.855,0.65,1.855,1.95v1.736
				c0,0.485,0.022,0.86,0.068,1.125H67.847z M68.148,6.818c0,0.355-0.104,0.642-0.314,0.858c-0.211,0.217-0.5,0.325-0.868,0.325
				c-0.376,0-0.667-0.105-0.873-0.315c-0.207-0.21-0.311-0.5-0.311-0.868h0.553c0.059,0.42,0.265,0.63,0.621,0.63
				c0.4,0,0.617-0.21,0.649-0.63H68.148z M67.702,11.086c-0.588,0-1.026,0.074-1.313,0.223c-0.288,0.149-0.432,0.392-0.432,0.728
				c0,0.246,0.067,0.43,0.203,0.553c0.136,0.123,0.308,0.184,0.515,0.184c0.136,0,0.265-0.024,0.388-0.073s0.231-0.115,0.325-0.199
				s0.169-0.186,0.228-0.306s0.087-0.247,0.087-0.383V11.086z"/>
			<path fill="#FFFFFF" d="M73.037,9.641c-0.104-0.02-0.213-0.029-0.33-0.029c-0.369,0-0.652,0.139-0.854,0.417
				c-0.174,0.246-0.262,0.556-0.262,0.931v2.474h-1.049l0.01-3.23c0-0.543-0.012-1.038-0.037-1.484h0.91l0.039,0.902h0.029
				c0.109-0.311,0.285-0.56,0.523-0.747c0.234-0.168,0.486-0.252,0.758-0.252c0.096,0,0.184,0.006,0.262,0.019V9.641z"/>
			<path fill="#FFFFFF" d="M77.74,8.845l-0.203,0.795c-0.266-0.129-0.568-0.194-0.912-0.194c-0.459,0-0.822,0.154-1.092,0.461
				c-0.268,0.307-0.402,0.697-0.402,1.169c0,0.498,0.141,0.892,0.422,1.183s0.639,0.437,1.072,0.437
				c0.324,0,0.641-0.064,0.951-0.194l0.145,0.786c-0.342,0.162-0.775,0.243-1.299,0.243c-0.719,0-1.291-0.218-1.717-0.655
				c-0.428-0.437-0.641-1.02-0.641-1.751c0-0.73,0.23-1.331,0.689-1.799s1.076-0.703,1.852-0.703
				C77.045,8.622,77.424,8.696,77.74,8.845z"/>
			<path fill="#FFFFFF" d="M82.707,13.433h-0.941l-0.076-0.543H81.66c-0.324,0.433-0.783,0.65-1.377,0.65
				c-0.447,0-0.807-0.143-1.078-0.427c-0.246-0.258-0.367-0.579-0.367-0.96c0-0.576,0.24-1.015,0.723-1.319
				c0.48-0.304,1.158-0.453,2.031-0.446V10.3c0-0.621-0.326-0.931-0.977-0.931c-0.465,0-0.875,0.117-1.23,0.349l-0.213-0.688
				c0.439-0.271,0.979-0.407,1.617-0.407c1.234,0,1.85,0.65,1.85,1.95v1.736C82.639,12.78,82.662,13.155,82.707,13.433z
				 M81.621,11.813v-0.727c-1.158-0.02-1.736,0.297-1.736,0.95c0,0.246,0.068,0.43,0.203,0.553c0.135,0.123,0.305,0.184,0.51,0.184
				c0.232,0,0.445-0.073,0.643-0.218c0.195-0.146,0.316-0.331,0.361-0.558C81.615,11.946,81.621,11.884,81.621,11.813z"/>
			<path fill="#FFFFFF" d="M86.85,9.504h-1.154v2.29c0,0.582,0.203,0.873,0.611,0.873c0.188,0,0.342-0.016,0.465-0.049l0.029,0.795
				c-0.207,0.078-0.479,0.117-0.814,0.117c-0.414,0-0.738-0.126-0.971-0.378c-0.232-0.252-0.35-0.676-0.35-1.271V9.504h-0.688V8.719
				h0.688V7.855l1.029-0.31v1.173h1.154V9.504z M86.82,14.578c0,0.537-0.354,0.805-1.059,0.805c-0.283,0-0.516-0.058-0.697-0.175
				l0.154-0.456c0.162,0.097,0.34,0.146,0.535,0.146c0.258,0,0.387-0.097,0.387-0.291c0-0.11-0.064-0.196-0.193-0.257
				s-0.316-0.105-0.562-0.131l0.445-0.815h0.602l-0.291,0.495c0.188,0.025,0.348,0.1,0.48,0.223
				C86.754,14.245,86.82,14.396,86.82,14.578z"/>
			<path fill="#FFFFFF" d="M89.467,7.312c0,0.188-0.061,0.339-0.184,0.456c-0.123,0.117-0.281,0.175-0.475,0.175
				c-0.176,0-0.322-0.06-0.441-0.179c-0.121-0.12-0.18-0.27-0.18-0.451s0.061-0.33,0.184-0.446s0.275-0.175,0.457-0.175
				c0.18,0,0.332,0.059,0.455,0.175S89.467,7.131,89.467,7.312z M89.352,13.433h-1.049V8.719h1.049V13.433z"/>
			<path fill="#FFFFFF" d="M98.236,13.433h-0.932l-0.049-0.757h-0.029c-0.297,0.576-0.801,0.864-1.512,0.864
				c-0.57,0-1.041-0.223-1.416-0.669s-0.562-1.025-0.562-1.736c0-0.763,0.203-1.381,0.609-1.853c0.395-0.44,0.881-0.66,1.455-0.66
				c0.635,0,1.078,0.213,1.33,0.64h0.02V6.556h1.047v5.607C98.197,12.622,98.211,13.045,98.236,13.433z M97.15,11.445v-0.786
				c0-0.136-0.01-0.246-0.029-0.33c-0.059-0.252-0.186-0.464-0.381-0.635s-0.428-0.257-0.701-0.257c-0.389,0-0.695,0.155-0.92,0.466
				s-0.336,0.708-0.336,1.193c0,0.466,0.107,0.844,0.322,1.135c0.227,0.31,0.531,0.465,0.914,0.465c0.344,0,0.621-0.129,0.828-0.388
				C97.049,12.069,97.15,11.781,97.15,11.445z"/>
			<path fill="#FFFFFF" d="M103.939,10.853c0,0.188-0.014,0.346-0.039,0.475h-3.143c0.014,0.466,0.164,0.821,0.455,1.067
				c0.266,0.22,0.609,0.33,1.029,0.33c0.465,0,0.889-0.074,1.271-0.223l0.164,0.728c-0.447,0.194-0.973,0.291-1.582,0.291
				c-0.73,0-1.305-0.215-1.721-0.645c-0.418-0.43-0.625-1.007-0.625-1.731c0-0.711,0.193-1.303,0.582-1.775
				c0.406-0.504,0.955-0.756,1.648-0.756c0.678,0,1.193,0.252,1.541,0.756C103.801,9.77,103.939,10.265,103.939,10.853z
				 M102.939,10.582c0.008-0.311-0.061-0.579-0.203-0.805c-0.182-0.291-0.459-0.437-0.834-0.437c-0.342,0-0.621,0.142-0.834,0.427
				c-0.174,0.227-0.277,0.498-0.311,0.815H102.939z"/>
			<path fill="#FFFFFF" d="M112.795,11.018c0,0.802-0.217,1.436-0.65,1.901c-0.389,0.414-0.869,0.621-1.445,0.621
				c-0.621,0-1.066-0.223-1.338-0.669h-0.02v2.483h-1.049v-5.083c0-0.504-0.012-1.022-0.037-1.552h0.92l0.059,0.747h0.02
				c0.35-0.562,0.879-0.844,1.592-0.844c0.555,0,1.02,0.22,1.391,0.66C112.609,9.721,112.795,10.3,112.795,11.018z M111.729,11.057
				c0-0.459-0.104-0.837-0.311-1.135c-0.227-0.311-0.531-0.466-0.912-0.466c-0.26,0-0.494,0.086-0.703,0.257
				c-0.211,0.171-0.348,0.396-0.412,0.674c-0.033,0.129-0.049,0.236-0.049,0.32v0.786c0,0.343,0.105,0.632,0.314,0.868
				c0.211,0.236,0.484,0.354,0.82,0.354c0.395,0,0.701-0.152,0.922-0.456C111.617,11.956,111.729,11.555,111.729,11.057z"/>
			<path fill="#FFFFFF" d="M118.229,10.853c0,0.188-0.014,0.346-0.039,0.475h-3.143c0.012,0.466,0.164,0.821,0.455,1.067
				c0.266,0.22,0.607,0.33,1.027,0.33c0.467,0,0.891-0.074,1.271-0.223l0.164,0.728c-0.445,0.194-0.973,0.291-1.58,0.291
				c-0.73,0-1.305-0.215-1.723-0.645c-0.416-0.43-0.625-1.007-0.625-1.731c0-0.711,0.193-1.303,0.582-1.775
				c0.408-0.504,0.957-0.756,1.648-0.756c0.68,0,1.193,0.252,1.543,0.756C118.088,9.77,118.229,10.265,118.229,10.853z
				 M117.229,10.582c0.006-0.311-0.062-0.579-0.203-0.805c-0.182-0.291-0.459-0.437-0.834-0.437c-0.344,0-0.621,0.142-0.836,0.427
				c-0.174,0.227-0.277,0.498-0.309,0.815H117.229z"/>
		</g>
	</g>
</g>
</svg>
