<svg width="22" height="23" fill="none" xmlns="http://www.w3.org/2000/svg"><path d="M12.3312 2.3057h-6.831v1.6041h6.4977l6.0762 6.1017 1.1367-1.1319-6.3113-6.3378a.802.802 0 0 0-.5683-.2361ZM8.1883 11.8193l1.2964-1.2963-1.2964-1.2964L6.892 10.523l1.2963 1.2963Z" fill="#ffffff"/><path fill-rule="evenodd" clip-rule="evenodd" d="M3.2085 6.316a.802.802 0 0 1 .802-.802h6.6597a.802.802 0 0 1 .5671.235l6.1738 6.1737c.8953.8953.8953 2.3455 0 3.2408l-4.7804 4.7804c-.8954.8953-2.3455.8953-3.2409 0l-5.9464-5.9464a.802.802 0 0 1-.2349-.5672V6.3161Zm1.6042.8022v5.9799l5.7115 5.7115a.6867.6867 0 0 0 .9721 0l4.7805-4.7804a.6868.6868 0 0 0 0-.9722l-5.9389-5.9388H4.8127Z" fill="#ffffff"/></svg>
