<?xml version="1.0" encoding="utf-8"?>
<!-- Generator: Adobe Illustrator 16.0.0, SVG Export Plug-In . SVG Version: 6.00 Build 0)  -->
<!DOCTYPE svg PUBLIC "-//W3C//DTD SVG 1.1//EN" "http://www.w3.org/Graphics/SVG/1.1/DTD/svg11.dtd">
<svg version="1.1" id="RU_Download_on_the" xmlns="http://www.w3.org/2000/svg" xmlns:xlink="http://www.w3.org/1999/xlink" x="0px"
	 y="0px" width="135px" height="40px" viewBox="0 0 135 40" enable-background="new 0 0 135 40" xml:space="preserve">
<g>
	<path fill="#A6A6A6" d="M130.197,40H4.729C2.122,40,0,37.872,0,35.267V4.726C0,2.12,2.122,0,4.729,0h125.468
		C132.803,0,135,2.12,135,4.726v30.541C135,37.872,132.803,40,130.197,40L130.197,40z"/>
	<path d="M134.032,35.268c0,2.116-1.714,3.83-3.834,3.83H4.729c-2.119,0-3.839-1.714-3.839-3.83V4.725
		c0-2.115,1.72-3.835,3.839-3.835h125.468c2.121,0,3.834,1.72,3.834,3.835L134.032,35.268L134.032,35.268z"/>
	<g>
		<g>
			<path fill="#FFFFFF" d="M30.128,19.784c-0.029-3.223,2.639-4.791,2.761-4.864c-1.511-2.203-3.853-2.504-4.676-2.528
				c-1.967-0.207-3.875,1.177-4.877,1.177c-1.022,0-2.565-1.157-4.228-1.123c-2.14,0.033-4.142,1.272-5.24,3.196
				c-2.266,3.923-0.576,9.688,1.595,12.859c1.086,1.553,2.355,3.287,4.016,3.226c1.625-0.067,2.232-1.036,4.193-1.036
				c1.943,0,2.513,1.036,4.207,0.997c1.744-0.028,2.842-1.56,3.89-3.127c1.255-1.78,1.759-3.533,1.779-3.623
				C33.507,24.924,30.161,23.647,30.128,19.784z"/>
			<path fill="#FFFFFF" d="M26.928,10.306c0.874-1.093,1.472-2.58,1.306-4.089c-1.265,0.056-2.847,0.875-3.758,1.944
				c-0.806,0.942-1.526,2.486-1.34,3.938C24.557,12.205,26.016,11.382,26.928,10.306z"/>
		</g>
	</g>
	<g>
		<path fill="#FFFFFF" d="M53.645,31.504h-2.271l-1.244-3.909h-4.324l-1.185,3.909h-2.211l4.284-13.308h2.646L53.645,31.504z
			 M49.755,25.955L48.63,22.48c-0.119-0.355-0.342-1.191-0.671-2.507h-0.04c-0.131,0.566-0.342,1.402-0.632,2.507l-1.105,3.475
			H49.755z"/>
		<path fill="#FFFFFF" d="M64.662,26.588c0,1.632-0.441,2.922-1.323,3.869c-0.79,0.843-1.771,1.264-2.942,1.264
			c-1.264,0-2.172-0.454-2.725-1.362h-0.04v5.055h-2.132V25.067c0-1.026-0.027-2.079-0.079-3.159h1.875l0.119,1.521h0.04
			c0.711-1.146,1.79-1.718,3.238-1.718c1.132,0,2.077,0.447,2.833,1.342C64.284,23.949,64.662,25.127,64.662,26.588z M62.49,26.666
			c0-0.934-0.21-1.704-0.632-2.31c-0.461-0.632-1.08-0.948-1.856-0.948c-0.526,0-1.004,0.176-1.431,0.523
			c-0.428,0.35-0.708,0.807-0.839,1.373c-0.066,0.264-0.099,0.48-0.099,0.65v1.6c0,0.698,0.214,1.287,0.642,1.768
			s0.984,0.721,1.668,0.721c0.803,0,1.428-0.31,1.875-0.928C62.266,28.496,62.49,27.68,62.49,26.666z"/>
		<path fill="#FFFFFF" d="M75.699,26.588c0,1.632-0.441,2.922-1.324,3.869c-0.789,0.843-1.77,1.264-2.941,1.264
			c-1.264,0-2.172-0.454-2.724-1.362H68.67v5.055h-2.132V25.067c0-1.026-0.027-2.079-0.079-3.159h1.875l0.119,1.521h0.04
			c0.71-1.146,1.789-1.718,3.238-1.718c1.131,0,2.076,0.447,2.834,1.342C75.32,23.949,75.699,25.127,75.699,26.588z M73.527,26.666
			c0-0.934-0.211-1.704-0.633-2.31c-0.461-0.632-1.078-0.948-1.855-0.948c-0.527,0-1.004,0.176-1.432,0.523
			c-0.428,0.35-0.707,0.807-0.838,1.373c-0.065,0.264-0.099,0.48-0.099,0.65v1.6c0,0.698,0.214,1.287,0.64,1.768
			c0.428,0.48,0.984,0.721,1.67,0.721c0.803,0,1.428-0.31,1.875-0.928C73.303,28.496,73.527,27.68,73.527,26.666z"/>
		<path fill="#FFFFFF" d="M88.039,27.772c0,1.132-0.393,2.053-1.182,2.764c-0.867,0.777-2.074,1.165-3.625,1.165
			c-1.432,0-2.58-0.276-3.449-0.829l0.494-1.777c0.936,0.566,1.963,0.85,3.082,0.85c0.803,0,1.428-0.182,1.877-0.544
			c0.447-0.362,0.67-0.848,0.67-1.454c0-0.54-0.184-0.995-0.553-1.364c-0.367-0.369-0.98-0.712-1.836-1.029
			c-2.33-0.869-3.494-2.142-3.494-3.816c0-1.094,0.408-1.991,1.225-2.689c0.814-0.699,1.9-1.048,3.258-1.048
			c1.211,0,2.217,0.211,3.02,0.632l-0.533,1.738c-0.75-0.408-1.598-0.612-2.547-0.612c-0.75,0-1.336,0.185-1.756,0.553
			c-0.355,0.329-0.533,0.73-0.533,1.205c0,0.526,0.203,0.961,0.611,1.303c0.355,0.316,1,0.658,1.936,1.027
			c1.145,0.461,1.986,1,2.527,1.618C87.77,26.081,88.039,26.852,88.039,27.772z"/>
		<path fill="#FFFFFF" d="M95.088,23.508h-2.35v4.659c0,1.185,0.414,1.777,1.244,1.777c0.381,0,0.697-0.033,0.947-0.099l0.059,1.619
			c-0.42,0.157-0.973,0.236-1.658,0.236c-0.842,0-1.5-0.257-1.975-0.77c-0.473-0.514-0.711-1.376-0.711-2.587v-4.837h-1.4v-1.6h1.4
			v-1.757l2.094-0.632v2.389h2.35V23.508z"/>
		<path fill="#FFFFFF" d="M105.691,26.627c0,1.475-0.422,2.686-1.264,3.633c-0.883,0.975-2.055,1.461-3.516,1.461
			c-1.408,0-2.529-0.467-3.365-1.401s-1.254-2.113-1.254-3.534c0-1.487,0.43-2.705,1.293-3.652c0.861-0.948,2.023-1.422,3.484-1.422
			c1.408,0,2.541,0.467,3.396,1.402C105.283,24.021,105.691,25.192,105.691,26.627z M103.479,26.696
			c0-0.885-0.189-1.644-0.572-2.277c-0.447-0.766-1.086-1.148-1.914-1.148c-0.857,0-1.508,0.383-1.955,1.148
			c-0.383,0.634-0.572,1.405-0.572,2.317c0,0.885,0.189,1.644,0.572,2.276c0.461,0.766,1.105,1.148,1.936,1.148
			c0.814,0,1.453-0.39,1.914-1.168C103.281,28.347,103.479,27.58,103.479,26.696z"/>
		<path fill="#FFFFFF" d="M112.621,23.783c-0.211-0.039-0.436-0.059-0.672-0.059c-0.75,0-1.33,0.283-1.738,0.85
			c-0.355,0.5-0.533,1.132-0.533,1.895v5.035h-2.131l0.02-6.574c0-1.106-0.027-2.113-0.08-3.021h1.857l0.078,1.836h0.059
			c0.225-0.631,0.58-1.139,1.066-1.52c0.475-0.343,0.988-0.514,1.541-0.514c0.197,0,0.375,0.014,0.533,0.039V23.783z"/>
		<path fill="#FFFFFF" d="M122.156,26.252c0,0.382-0.025,0.704-0.078,0.967h-6.396c0.025,0.948,0.334,1.673,0.928,2.173
			c0.539,0.447,1.236,0.671,2.092,0.671c0.947,0,1.811-0.151,2.588-0.454l0.334,1.48c-0.908,0.396-1.98,0.593-3.217,0.593
			c-1.488,0-2.656-0.438-3.506-1.313c-0.848-0.875-1.273-2.05-1.273-3.524c0-1.447,0.395-2.652,1.186-3.613
			c0.828-1.026,1.947-1.539,3.355-1.539c1.383,0,2.43,0.513,3.141,1.539C121.873,24.047,122.156,25.055,122.156,26.252z
			 M120.123,25.699c0.014-0.632-0.125-1.178-0.414-1.639c-0.369-0.593-0.936-0.889-1.699-0.889c-0.697,0-1.264,0.289-1.697,0.869
			c-0.355,0.461-0.566,1.014-0.631,1.658H120.123z"/>
	</g>
	<g>
		<g>
			<path fill="#FFFFFF" d="M43.424,7.273c0.227-0.136,0.483-0.25,0.771-0.344c0.287-0.094,0.625-0.141,1.014-0.141
				c0.627,0,1.121,0.149,1.483,0.446s0.543,0.698,0.543,1.203c0,0.401-0.121,0.737-0.363,1.009s-0.552,0.453-0.927,0.543v0.029
				c0.207,0.033,0.403,0.089,0.587,0.17c0.185,0.081,0.347,0.189,0.485,0.325c0.139,0.136,0.249,0.294,0.33,0.476
				c0.08,0.181,0.121,0.381,0.121,0.602c0,0.362-0.073,0.666-0.219,0.912s-0.336,0.446-0.572,0.602
				c-0.235,0.155-0.499,0.267-0.79,0.334s-0.582,0.102-0.873,0.102c-0.311,0-0.618-0.033-0.922-0.097s-0.585-0.171-0.844-0.32
				l0.262-0.805c0.168,0.084,0.385,0.165,0.65,0.243c0.265,0.078,0.533,0.116,0.805,0.116c0.446,0,0.791-0.1,1.033-0.3
				c0.242-0.201,0.364-0.469,0.364-0.805c0-0.227-0.049-0.412-0.146-0.558c-0.098-0.146-0.224-0.26-0.379-0.345
				c-0.155-0.084-0.328-0.142-0.519-0.174c-0.191-0.032-0.38-0.049-0.567-0.049h-0.437V9.65h0.437c0.2,0,0.386-0.025,0.558-0.078
				c0.171-0.051,0.32-0.124,0.446-0.218s0.225-0.206,0.296-0.335c0.07-0.129,0.106-0.275,0.106-0.437
				c0-0.291-0.104-0.519-0.311-0.684c-0.207-0.165-0.485-0.248-0.834-0.248c-0.239,0-0.479,0.039-0.718,0.116
				c-0.239,0.078-0.453,0.162-0.641,0.252L43.424,7.273z"/>
			<path fill="#FFFFFF" d="M51.755,13.433l-0.077-0.543h-0.029c-0.316,0.433-0.775,0.65-1.377,0.65
				c-0.214,0-0.407-0.036-0.582-0.107s-0.327-0.168-0.456-0.291c-0.13-0.123-0.229-0.268-0.301-0.437
				c-0.071-0.168-0.106-0.353-0.106-0.553c0-0.588,0.239-1.03,0.718-1.324c0.479-0.294,1.157-0.441,2.037-0.441V10.3
				c0-0.621-0.326-0.931-0.978-0.931c-0.465,0-0.875,0.117-1.229,0.349l-0.213-0.688c0.433-0.271,0.972-0.407,1.617-0.407
				c1.233,0,1.85,0.65,1.85,1.95v1.736c0,0.485,0.023,0.86,0.068,1.125H51.755z M51.61,11.086c-0.585,0-1.021,0.074-1.307,0.223
				c-0.286,0.149-0.429,0.392-0.429,0.728c0,0.246,0.067,0.43,0.202,0.553c0.135,0.123,0.306,0.184,0.512,0.184
				c0.135,0,0.263-0.024,0.386-0.073c0.122-0.048,0.229-0.115,0.322-0.199c0.094-0.084,0.169-0.186,0.228-0.306
				c0.058-0.12,0.086-0.247,0.086-0.383V11.086z"/>
			<path fill="#FFFFFF" d="M57.683,8.719v0.863h-1.96v3.851h-1.047V8.719H57.683z"/>
			<path fill="#FFFFFF" d="M63.677,11.018c0,0.375-0.052,0.718-0.155,1.028c-0.104,0.311-0.247,0.576-0.432,0.795
				c-0.184,0.22-0.404,0.392-0.659,0.514c-0.256,0.123-0.538,0.185-0.849,0.185c-0.621,0-1.067-0.223-1.339-0.669h-0.02v2.483
				h-1.048v-5.083c0-0.252-0.003-0.506-0.01-0.762c-0.006-0.255-0.016-0.519-0.028-0.791h0.921l0.059,0.747h0.02
				c0.349-0.562,0.879-0.844,1.591-0.844c0.277,0,0.535,0.058,0.771,0.174c0.236,0.117,0.441,0.28,0.616,0.49
				c0.175,0.21,0.312,0.462,0.412,0.757C63.627,10.337,63.677,10.662,63.677,11.018z M62.611,11.057
				c0-0.233-0.028-0.448-0.083-0.645s-0.136-0.365-0.242-0.504s-0.236-0.249-0.388-0.33c-0.152-0.081-0.322-0.121-0.51-0.121
				c-0.148,0-0.294,0.033-0.437,0.097s-0.267,0.152-0.373,0.262c-0.107,0.11-0.192,0.243-0.257,0.398
				c-0.065,0.155-0.098,0.32-0.098,0.495v0.786c0,0.174,0.027,0.336,0.083,0.485c0.055,0.149,0.132,0.278,0.232,0.388
				s0.22,0.196,0.359,0.257c0.139,0.062,0.292,0.092,0.46,0.092c0.395,0,0.702-0.15,0.922-0.451S62.611,11.561,62.611,11.057z"/>
			<path fill="#FFFFFF" d="M69.305,8.719l-1.194,3.269c-0.284,0.776-0.561,1.411-0.829,1.906c-0.269,0.495-0.525,0.855-0.771,1.082
				c-0.362,0.323-0.747,0.521-1.155,0.591l-0.252-0.882c0.271-0.071,0.53-0.21,0.776-0.417c0.245-0.207,0.442-0.465,0.592-0.776
				c0.052-0.103,0.077-0.174,0.077-0.213c0-0.039-0.02-0.113-0.058-0.223l-1.708-4.336h1.154l0.893,2.629
				c0.046,0.123,0.091,0.262,0.136,0.417c0.046,0.155,0.094,0.327,0.146,0.514h0.02c0.032-0.104,0.068-0.234,0.106-0.393
				c0.039-0.158,0.091-0.341,0.155-0.548l0.796-2.619H69.305z"/>
			<path fill="#FFFFFF" d="M71.119,10.678h0.484c0.355,0,0.631-0.064,0.824-0.194s0.291-0.288,0.291-0.476
				c0-0.194-0.082-0.349-0.248-0.465c-0.164-0.116-0.393-0.175-0.684-0.175c-0.188,0-0.377,0.031-0.566,0.092
				c-0.191,0.062-0.367,0.138-0.529,0.228L70.42,9.01c0.271-0.148,0.541-0.25,0.811-0.305c0.268-0.055,0.537-0.083,0.809-0.083
				c0.215,0,0.43,0.021,0.646,0.063c0.215,0.042,0.408,0.113,0.576,0.213s0.307,0.231,0.412,0.393
				c0.107,0.162,0.16,0.362,0.16,0.602c0,0.149-0.029,0.28-0.088,0.393c-0.057,0.113-0.135,0.213-0.232,0.3
				c-0.096,0.087-0.205,0.159-0.324,0.213c-0.119,0.055-0.242,0.096-0.363,0.122v0.029c0.154,0.02,0.305,0.059,0.451,0.117
				c0.145,0.058,0.275,0.134,0.393,0.228c0.115,0.094,0.209,0.207,0.281,0.339c0.07,0.133,0.105,0.283,0.105,0.451
				c0,0.278-0.066,0.511-0.203,0.698c-0.135,0.188-0.309,0.336-0.52,0.446c-0.209,0.11-0.441,0.189-0.693,0.238
				c-0.252,0.048-0.498,0.073-0.736,0.073c-0.291,0-0.58-0.031-0.863-0.092c-0.285-0.062-0.541-0.157-0.768-0.286l0.273-0.689
				c0.168,0.091,0.359,0.167,0.576,0.228s0.438,0.092,0.664,0.092c0.355,0,0.629-0.069,0.82-0.208
				c0.189-0.139,0.285-0.312,0.285-0.519c0-0.136-0.031-0.25-0.096-0.344s-0.156-0.17-0.271-0.228
				c-0.117-0.058-0.252-0.099-0.408-0.121c-0.154-0.023-0.324-0.034-0.504-0.034h-0.494V10.678z"/>
			<path fill="#FFFFFF" d="M76.715,8.719v1.668c0,0.382-0.006,0.725-0.02,1.028c-0.014,0.304-0.029,0.624-0.049,0.96l0.02,0.019
				c0.123-0.246,0.244-0.486,0.363-0.723c0.121-0.236,0.242-0.477,0.365-0.723l1.164-2.231h1.357v4.714h-0.99v-1.668
				c0-0.349,0.01-0.698,0.025-1.047c0.016-0.35,0.033-0.702,0.053-1.058h-0.049c-0.109,0.291-0.219,0.543-0.33,0.757
				c-0.109,0.213-0.219,0.433-0.328,0.66c-0.201,0.388-0.4,0.776-0.598,1.164c-0.197,0.388-0.406,0.786-0.625,1.193h-1.357V8.719
				H76.715z"/>
			<path fill="#FFFFFF" d="M85.445,8.719v0.863H84.01v3.851H82.98V9.582h-1.426V8.719H85.445z"/>
			<path fill="#FFFFFF" d="M90.789,10.853c0,0.09-0.004,0.176-0.01,0.257c-0.006,0.081-0.016,0.154-0.029,0.218h-3.143
				c0.014,0.446,0.154,0.791,0.422,1.033c0.268,0.242,0.623,0.364,1.062,0.364c0.459,0,0.883-0.074,1.271-0.223l0.164,0.728
				c-0.447,0.194-0.973,0.291-1.582,0.291c-0.367,0-0.697-0.057-0.988-0.17c-0.291-0.113-0.537-0.273-0.738-0.48
				c-0.199-0.207-0.354-0.456-0.461-0.747c-0.105-0.291-0.158-0.617-0.158-0.979s0.053-0.697,0.158-1.004
				c0.107-0.307,0.258-0.574,0.451-0.8c0.195-0.227,0.43-0.404,0.703-0.534c0.275-0.129,0.582-0.194,0.918-0.194
				c0.297,0,0.566,0.053,0.811,0.16c0.242,0.106,0.449,0.258,0.619,0.456c0.172,0.197,0.303,0.434,0.393,0.708
				C90.744,10.211,90.789,10.517,90.789,10.853z M89.789,10.582c0-0.369-0.088-0.668-0.266-0.897S89.088,9.34,88.752,9.34
				c-0.305,0-0.562,0.116-0.775,0.349s-0.336,0.53-0.369,0.893H89.789z"/>
			<path fill="#FFFFFF" d="M95.01,8.758c0.188-0.032,0.426-0.058,0.717-0.078s0.588-0.029,0.893-0.029
				c0.193,0,0.412,0.012,0.654,0.034s0.475,0.074,0.693,0.155c0.221,0.081,0.404,0.202,0.553,0.364s0.225,0.381,0.225,0.659
				c0,0.143-0.027,0.271-0.078,0.383c-0.053,0.113-0.121,0.212-0.209,0.296s-0.188,0.154-0.301,0.208
				c-0.113,0.055-0.23,0.096-0.354,0.121l0.01,0.029c0.342,0.058,0.621,0.181,0.834,0.369s0.32,0.446,0.32,0.776
				c0,0.33-0.092,0.592-0.271,0.786c-0.182,0.194-0.404,0.34-0.67,0.437c-0.266,0.097-0.545,0.159-0.84,0.185
				c-0.293,0.025-0.557,0.039-0.789,0.039c-0.26,0-0.514-0.006-0.762-0.02c-0.25-0.013-0.457-0.026-0.625-0.039V8.758z
				 M96.018,10.64h0.533c0.162,0,0.316-0.011,0.461-0.034c0.146-0.022,0.273-0.058,0.383-0.106c0.111-0.049,0.195-0.113,0.258-0.194
				c0.061-0.081,0.092-0.179,0.092-0.296c0-0.213-0.088-0.37-0.268-0.47c-0.178-0.1-0.457-0.15-0.838-0.15
				c-0.109,0-0.205,0.003-0.287,0.01c-0.08,0.006-0.191,0.016-0.334,0.029V10.64z M96.018,12.725
				c0.129,0.013,0.238,0.022,0.324,0.029c0.088,0.007,0.189,0.01,0.307,0.01c0.143,0,0.287-0.009,0.436-0.029
				c0.148-0.019,0.285-0.056,0.408-0.111c0.123-0.054,0.221-0.128,0.295-0.222c0.074-0.093,0.113-0.217,0.113-0.371
				c0-0.27-0.121-0.456-0.359-0.559c-0.24-0.103-0.562-0.154-0.971-0.154h-0.553V12.725z"/>
		</g>
	</g>
</g>
</svg>
