<svg viewBox="0 0 300 258" xmlns="http://www.w3.org/2000/svg"><path class="st0" d="M257.2 234.7l-.1-191.2v191.2z" fill="none"/><path class="st1" d="M257.2 234.7h-.1V0H0v234.7C0 246.5 9.6 256 21.4 256h255.2c-10.9-1.1-19.4-10.2-19.4-21.3z" fill="#fff" stroke="#e1e1e2" stroke-width="3"/><path class="st2" d="M257.1 45.5v-.9zm0-.9v.8l.1 191.2c0 11.1 8.5 20.3 19.4 21.3.7.1 1.3.1 2 .1 11.8 0 21.4-9.6 21.4-21.4v-192h-42.9z" fill="#e1e1e2"/><path class="st3" d="M141.7 82.6h94v7h-94v-7zm0 24.6h94v7h-94v-7zm0 24.6h94v7h-94v-7zm0 24.5h94v7h-94v-7zM22.6 181h213.1v7H22.6v-7zm-1.2 24.5h214.3v7H21.4v-7zm0 24.7h214.3v7H21.4v-7z" fill="#808285"/><path class="st4" d="M111.8 135.5l-36 34.7c-1.4 1.4-3.7 1.4-5.1 0l-36.1-34.8c-.5-.4-13.2-12-13.2-25.9 0-16.9 10.4-27.1 27.6-27.1 10.1 0 19.6 8 24.2 12.5 4.6-4.5 14.1-12.5 24.2-12.5 17.3 0 27.6 10.1 27.6 27.1 0 13.8-12.7 25.5-13.2 26zM21.4 21.2h214.3v21.3H21.4V21.2z" fill="#c50042"/><path class="st5" d="M21.4 53.2h214.3V64H21.4V53.2z" fill="#373538"/></svg>
