<?xml version="1.0" encoding="utf-8"?>
<svg viewBox="0 0 300 258" xmlns="http://www.w3.org/2000/svg">
  <g id="_MoFo_Newsletter_" transform="matrix(1, 0, 0, 1, 30.227495, 11.652125)">
    <path class="st0" d="M 226.973 223.048 L 226.873 31.848 L 226.873 223.048 Z" style="fill: none;"/>
    <path class="st1" d="M 226.973 223.048 L 226.873 223.048 L 226.873 -11.652 L -30.227 -11.652 L -30.227 223.048 C -30.227 234.848 -20.627 244.348 -8.827 244.348 L 246.373 244.348 C 235.473 243.248 226.973 234.148 226.973 223.048 Z" style="fill: rgb(255, 255, 255); stroke: rgb(225, 225, 226); stroke-width: 3px;"/>
    <path class="st2" d="M 226.873 33.848 L 226.873 32.948 Z M 226.873 32.948 L 226.873 33.748 L 226.973 224.948 C 226.973 236.048 235.473 245.248 246.373 246.248 C 247.073 246.348 247.673 246.348 248.373 246.348 C 260.173 246.348 269.773 236.748 269.773 224.948 L 269.773 32.948 L 226.873 32.948 Z" style="fill: rgb(225, 225, 226);"/>
    <path class="st3" d="M 111.473 70.948 L 205.473 70.948 L 205.473 77.948 L 111.473 77.948 L 111.473 70.948 Z M 111.473 95.548 L 205.473 95.548 L 205.473 102.548 L 111.473 102.548 L 111.473 95.548 Z M 111.473 120.148 L 205.473 120.148 L 205.473 127.148 L 111.473 127.148 L 111.473 120.148 Z M 111.473 144.648 L 205.473 144.648 L 205.473 151.648 L 111.473 151.648 L 111.473 144.648 Z M -7.627 169.348 L 205.473 169.348 L 205.473 176.348 L -7.627 176.348 L -7.627 169.348 Z M -8.827 193.848 L 205.473 193.848 L 205.473 200.848 L -8.827 200.848 L -8.827 193.848 Z M -8.827 218.548 L 205.473 218.548 L 205.473 225.548 L -8.827 225.548 L -8.827 218.548 Z" id="_Newsletter_Content_" style="fill: rgb(128, 130, 133);"/>
    <path id="_Heart_" class="st4" d="M 81.573 123.848 L 45.573 158.548 C 44.173 159.948 41.873 159.948 40.473 158.548 L 4.373 123.748 C 3.873 123.348 -8.827 111.748 -8.827 97.848 C -8.827 80.948 1.573 70.748 18.773 70.748 C 28.873 70.748 38.373 78.748 42.973 83.248 C 47.573 78.748 57.073 70.748 67.173 70.748 C 84.473 70.748 94.773 80.848 94.773 97.848 C 94.773 111.648 82.073 123.348 81.573 123.848 Z" style="fill: rgb(197, 0, 66);"/>
    <g id="_Newsletter_Header_" transform="matrix(1, 0, 0, 1, -30.227495, -33.652126)">
      <path class="st4" d="M21.4 43.2h214.3v21.3H21.4V43.2z" style="fill: rgb(197, 0, 66);"/>
      <path class="st5" d="M21.4 75.2h214.3V86H21.4V75.2z" style="fill: rgb(55, 53, 56);"/>
    </g>
  </g>
</svg>