<svg id="Layer_1" xmlns="http://www.w3.org/2000/svg" width="300" height="300"><style>.st4{fill:#c13832}</style><g id="_MoFo_Newsletter_"><path d="M257.2 256.7l-.1-191.2v191.2z" fill="none"/><path d="M257.2 256.7h-.1V22H0v234.7C0 268.5 9.6 278 21.4 278h255.2c-10.9-1.1-19.4-10.2-19.4-21.3z" fill="#fff"/><path d="M257.1 65.5v-.9zm0-.9v.8l.1 191.2c0 11.1 8.5 20.3 19.4 21.3.7.1 1.3.1 2 .1 11.8 0 21.4-9.6 21.4-21.4v-192h-42.9z" fill="#e1e1e2"/><path d="M141.7 104.6h94v7h-94v-7zm0 24.6h94v7h-94v-7zm0 24.6h94v7h-94v-7zm0 24.5h94v7h-94v-7zM22.6 203h213.1v7H22.6v-7zm-1.2 24.5h214.3v7H21.4v-7zm0 24.7h214.3v7H21.4v-7z" id="_Newsletter_Content_" fill="#808285"/><path id="_Heart_" class="st4" d="M111.8 157.5l-36 34.7c-1.4 1.4-3.7 1.4-5.1 0l-36.1-34.8c-.5-.4-13.2-12-13.2-25.9 0-16.9 10.4-27.1 27.6-27.1 10.1 0 19.6 8 24.2 12.5 4.6-4.5 14.1-12.5 24.2-12.5 17.3 0 27.6 10.1 27.6 27.1 0 13.8-12.7 25.5-13.2 26z"/><g id="_Newsletter_Header_"><path class="st4" d="M21.4 43.2h214.3v21.3H21.4V43.2z"/><path d="M21.4 75.2h214.3V86H21.4V75.2z" fill="#373538"/></g></g></svg>
