<svg height="279" width="417" xmlns="http://www.w3.org/2000/svg" xmlns:xlink="http://www.w3.org/1999/xlink"><filter id="a" height="146.2%" width="146.2%" x="-23.1%" y="-23.1%"><feOffset dy="2" in="SourceAlpha" result="shadowOffsetOuter1"/><feGaussianBlur in="shadowOffsetOuter1" result="shadowBlurOuter1" stdDeviation="2"/><feColorMatrix in="shadowBlurOuter1" result="shadowMatrixOuter1" values="0 0 0 0 0 0 0 0 0 0 0 0 0 0 0 0 0 0 0.196623689 0"/><feMerge><feMergeNode in="shadowMatrixOuter1"/><feMergeNode in="SourceGraphic"/></feMerge></filter><filter id="b" height="146.2%" width="146.2%" x="-23.1%" y="-23.1%"><feOffset dy="2" in="SourceAlpha" result="shadowOffsetOuter1"/><feGaussianBlur in="shadowOffsetOuter1" result="shadowBlurOuter1" stdDeviation="2"/><feColorMatrix in="shadowBlurOuter1" result="shadowMatrixOuter1" values="0 0 0 0 0 0 0 0 0 0 0 0 0 0 0 0 0 0 0.196623689 0"/><feMerge><feMergeNode in="shadowMatrixOuter1"/><feMergeNode in="SourceGraphic"/></feMerge></filter><filter id="c" height="146.2%" width="146.2%" x="-23.1%" y="-23.1%"><feOffset dy="2" in="SourceAlpha" result="shadowOffsetOuter1"/><feGaussianBlur in="shadowOffsetOuter1" result="shadowBlurOuter1" stdDeviation="2"/><feColorMatrix in="shadowBlurOuter1" result="shadowMatrixOuter1" values="0 0 0 0 0 0 0 0 0 0 0 0 0 0 0 0 0 0 0.196623689 0"/><feMerge><feMergeNode in="shadowMatrixOuter1"/><feMergeNode in="SourceGraphic"/></feMerge></filter><filter id="d" height="146.2%" width="146.2%" x="-23.1%" y="-23.1%"><feOffset dy="2" in="SourceAlpha" result="shadowOffsetOuter1"/><feGaussianBlur in="shadowOffsetOuter1" result="shadowBlurOuter1" stdDeviation="2"/><feColorMatrix in="shadowBlurOuter1" result="shadowMatrixOuter1" values="0 0 0 0 0 0 0 0 0 0 0 0 0 0 0 0 0 0 0.196623689 0"/><feMerge><feMergeNode in="shadowMatrixOuter1"/><feMergeNode in="SourceGraphic"/></feMerge></filter><filter id="e" height="145.3%" width="145.3%" x="-22.6%" y="-22.6%"><feOffset dy="2" in="SourceAlpha" result="shadowOffsetOuter1"/><feGaussianBlur in="shadowOffsetOuter1" result="shadowBlurOuter1" stdDeviation="2"/><feColorMatrix in="shadowBlurOuter1" result="shadowMatrixOuter1" values="0 0 0 0 0 0 0 0 0 0 0 0 0 0 0 0 0 0 0.196623689 0"/><feMerge><feMergeNode in="shadowMatrixOuter1"/><feMergeNode in="SourceGraphic"/></feMerge></filter><mask id="f" fill="#fff"><path d="m.554.206h51.355v51.563h-51.355z" fill="#fff" fill-rule="evenodd"/></mask><mask id="g" fill="#fff"><path d="m.554.206h51.355v51.563h-51.355z" fill="#fff" fill-rule="evenodd"/></mask><g fill="none" fill-rule="evenodd"><path d="m0 0h417v279h-417z"/><path d="m126.5 116.5 82 23m-56 72 56-72m14 14 42 60m-54-76 85-25m-87 27v-85" stroke="#000" stroke-linecap="square" stroke-width="5"/><g filter="url(#a)" transform="translate(269 87)"><path d="m25.678 51.564c-14.181 0-25.678-11.544-25.678-25.782s11.497-25.782 25.678-25.782c14.182 0 25.678 11.543 25.678 25.782s-11.496 25.782-25.678 25.782z" fill="#0090ed"/><path d="m42.043 32.485c.373.744.07 1.65-.674 2.022l-15.072 7.536a1.507 1.507 0 0 1 -1.348 0l-15.072-7.536a1.507 1.507 0 1 1 1.348-2.696l14.398 7.199 14.398-7.2a1.507 1.507 0 0 1 2.022.675zm0-7.536c.373.744.07 1.65-.674 2.022l-15.072 7.536a1.507 1.507 0 0 1 -1.348 0l-15.072-7.536a1.507 1.507 0 1 1 1.348-2.696l14.398 7.199 14.398-7.2a1.507 1.507 0 0 1 2.022.675zm-15.746-15.746 15.072 7.536c1.111.555 1.111 2.14 0 2.696l-15.072 7.535a1.507 1.507 0 0 1 -1.348 0l-15.072-7.535c-1.11-.556-1.11-2.14 0-2.696l15.072-7.536a1.507 1.507 0 0 1 1.348 0zm-.674 3.033-11.702 5.85 11.702 5.852 11.702-5.851z" fill="#fff" fill-rule="nonzero"/></g><g filter="url(#b)" transform="translate(183 29)"><path d="m51.356 25.782c0 14.239-11.496 25.782-25.678 25.782-14.181 0-25.678-11.544-25.678-25.782s11.497-25.782 25.678-25.782c14.182 0 25.678 11.543 25.678 25.782" fill="#9059ff"/><path d="m25.689 10.425a8.29 8.29 0 0 1 8.29 8.29v1.381h1.381a4.145 4.145 0 0 1 4.145 4.146v12.434a4.145 4.145 0 0 1 -4.145 4.145h-19.343a4.145 4.145 0 0 1 -4.145-4.145v-12.434a4.145 4.145 0 0 1 4.145-4.145h1.381v-1.382a8.29 8.29 0 0 1 8.29-8.29zm9.671 12.435h-19.343c-.763 0-1.381.618-1.381 1.382v12.434c0 .763.618 1.382 1.381 1.382h19.343c.763 0 1.382-.619 1.382-1.382v-12.434c0-.764-.619-1.382-1.382-1.382zm-9.671 2.763a2.763 2.763 0 0 1 1.027 5.33l1.187 2.968a1 1 0 0 1 -.927 1.371l-2.573.002a1 1 0 0 1 -.929-1.372l1.188-2.97a2.764 2.764 0 0 1 1.027-5.329zm0-12.435a5.527 5.527 0 0 0 -5.527 5.527v1.381h11.052l.001-1.381a5.527 5.527 0 0 0 -5.526-5.527z" fill="#fff" fill-rule="nonzero"/></g><g filter="url(#c)" transform="translate(96 87)"><path d="m51.91 25.988c0 14.238-11.496 25.781-25.678 25.781s-25.678-11.543-25.678-25.781c0-14.24 11.496-25.782 25.678-25.782s25.677 11.543 25.677 25.782" fill="#fc4055" mask="url(#f)"/><path d="m26.27 9.043c7.432 0 13.457 6.026 13.457 13.458v9.42a4.04 4.04 0 0 1 -2.906 3.877l-.001 2.066a3.478 3.478 0 0 1 -3.288 3.472l-.19.006h-3.474c-.363.882-1.273 1.507-2.337 1.507h-1.77c-1.384 0-2.506-1.057-2.506-2.36v-.555c0-1.304 1.122-2.36 2.506-2.36h1.77c1.041 0 1.934.597 2.313 1.448l3.498.001a1.16 1.16 0 0 0 1.152-1.033l.007-.126v-1.906h-.157a4.037 4.037 0 0 1 -4.038-4.037v-4.037a4.037 4.037 0 0 1 4.038-4.037h2.69l.001-1.346c0-5.946-4.82-10.766-10.766-10.766s-10.766 4.82-10.766 10.766v1.345h2.692a4.037 4.037 0 0 1 4.037 4.038v4.037a4.037 4.037 0 0 1 -4.037 4.038h-1.346a4.037 4.037 0 0 1 -4.037-4.038v-9.42c0-7.432 6.025-13.458 13.457-13.458zm1.26 30.474h-1.769c-.244 0-.442.187-.442.417v.555c0 .23.198.416.442.416h1.77c.244 0 .442-.186.442-.416v-.555c0-.23-.198-.417-.442-.417zm9.505-12.979h-2.691c-.744 0-1.346.603-1.346 1.346v4.037c0 .744.602 1.346 1.346 1.346h1.345c.744 0 1.346-.602 1.346-1.346zm-18.84 0h-2.692v5.383c0 .744.603 1.346 1.346 1.346h1.346c.743 0 1.345-.602 1.345-1.346v-4.037c0-.743-.602-1.346-1.345-1.346z" fill="#fff" fill-rule="nonzero"/></g><g filter="url(#d)" transform="translate(239 187)"><path d="m51.356 25.782c0 14.239-11.497 25.782-25.678 25.782-14.183 0-25.678-11.544-25.678-25.782s11.495-25.782 25.678-25.782c14.181 0 25.678 11.543 25.678 25.782" fill="#ff9640"/><path d="m37.588 31.394c2.413 1.81 4.167 4.734 5.307 8.724a1.579 1.579 0 0 1 -3.036.868c-.965-3.379-2.369-5.718-4.166-7.066a1.579 1.579 0 0 1 1.895-2.526zm-15.159-1.895c6.546 0 10.837 3.678 12.585 10.67a1.579 1.579 0 1 1 -3.064.766c-1.41-5.64-4.487-8.278-9.52-8.278-5.034 0-8.112 2.638-9.522 8.278a1.579 1.579 0 1 1 -3.063-.766c1.748-6.992 6.039-10.67 12.584-10.67zm0-18.948a7.895 7.895 0 1 1 0 15.79 7.895 7.895 0 0 1 0-15.79zm11.553.081c3.791 1.264 5.816 3.964 5.816 7.814s-2.025 6.55-5.816 7.814a1.579 1.579 0 1 1 -1-2.996c2.525-.841 3.658-2.352 3.658-4.818s-1.133-3.976-3.657-4.818a1.579 1.579 0 0 1 .999-2.996zm-11.553 3.078a4.737 4.737 0 1 0 0 9.474 4.737 4.737 0 0 0 0-9.474z" fill="#fff" fill-rule="nonzero"/></g><g transform="translate(173 104)"><circle cx="35.5" cy="35.5" fill="#0060df" r="35.5"/><path d="m36 18.873-4.57 9.257a2.083 2.083 0 0 1 -1.566 1.14l-10.221 1.494 7.394 7.202c.491.479.716 1.168.6 1.845l-1.745 10.172 9.138-4.806a2.083 2.083 0 0 1 1.94 0l9.138 4.806-1.745-10.172a2.083 2.083 0 0 1 .6-1.845l7.394-7.202-10.22-1.494a2.083 2.083 0 0 1 -1.568-1.14zm-7.821 6.432 5.953-12.06c.764-1.549 2.972-1.549 3.736 0l5.953 12.06 13.314 1.946c1.708.25 2.389 2.35 1.152 3.554l-9.632 9.381 2.273 13.253c.292 1.702-1.494 3-3.023 2.197l-11.905-6.261-11.905 6.26c-1.529.804-3.315-.494-3.023-2.196l2.273-13.253-9.632-9.381c-1.237-1.205-.556-3.304 1.152-3.554z" fill="#fff" fill-rule="nonzero"/></g><g filter="url(#e)" transform="translate(126 186)"><path d="m51.91 25.988c0 14.238-11.496 25.781-25.678 25.781s-25.678-11.543-25.678-25.781c0-14.24 11.496-25.782 25.678-25.782s25.677 11.543 25.677 25.782" fill="#e31587" mask="url(#g)" transform="translate(.618 .667)"/><path d="m28.84 11.23 11.053 5.527c1.408.7 2.3 2.137 2.3 3.71v13.168c0 1.573-.892 3.01-2.297 3.708l-11.053 5.527a4.145 4.145 0 0 1 -3.71 0l-11.056-5.528a4.142 4.142 0 0 1 -2.28-3.72v-13.157c.001-1.572.892-3.01 2.298-3.708l11.055-5.527a4.145 4.145 0 0 1 3.689 0zm-14.28 9.76v12.64a1.38 1.38 0 0 0 .757 1.242l10.296 5.148v-13.505zm24.87 0-11.054 5.526v13.497l10.287-5.143c.47-.233.767-.712.767-1.236zm-13.047-7.287-10.108 5.054 10.72 5.36 10.721-5.36-10.107-5.053a1.38 1.38 0 0 0 -1.226 0z" fill="#fff" fill-rule="nonzero"/></g></g></svg>
