<svg xmlns="http://www.w3.org/2000/svg" xmlns:xlink="http://www.w3.org/1999/xlink" width="624" height="423" viewBox="0 0 624 423"><defs><rect id="b" width="105.903" height="70.673" x="85.138" y="188.115" rx="3.028"/><filter id="a" width="128.3%" height="142.4%" x="-14.2%" y="-21.2%" filterUnits="objectBoundingBox"><feMorphology in="SourceAlpha" operator="dilate" radius=".5" result="shadowSpreadOuter1"/><feOffset in="shadowSpreadOuter1" result="shadowOffsetOuter1"/><feGaussianBlur in="shadowOffsetOuter1" result="shadowBlurOuter1" stdDeviation="4.5"/><feColorMatrix in="shadowBlurOuter1" values="0 0 0 0 0 0 0 0 0 0 0 0 0 0 0 0 0 0 0.07 0"/></filter><rect id="d" width="105.903" height="70.673" x="85.138" y="269.182" rx="3.028"/><filter id="c" width="128.3%" height="142.4%" x="-14.2%" y="-21.2%" filterUnits="objectBoundingBox"><feMorphology in="SourceAlpha" operator="dilate" radius=".5" result="shadowSpreadOuter1"/><feOffset in="shadowSpreadOuter1" result="shadowOffsetOuter1"/><feGaussianBlur in="shadowOffsetOuter1" result="shadowBlurOuter1" stdDeviation="4.5"/><feColorMatrix in="shadowBlurOuter1" values="0 0 0 0 0 0 0 0 0 0 0 0 0 0 0 0 0 0 0.07 0"/></filter><rect id="f" width="105.903" height="70.673" x="201.424" y="188.115" rx="3.028"/><filter id="e" width="128.3%" height="142.4%" x="-14.2%" y="-21.2%" filterUnits="objectBoundingBox"><feMorphology in="SourceAlpha" operator="dilate" radius=".5" result="shadowSpreadOuter1"/><feOffset in="shadowSpreadOuter1" result="shadowOffsetOuter1"/><feGaussianBlur in="shadowOffsetOuter1" result="shadowBlurOuter1" stdDeviation="4.5"/><feColorMatrix in="shadowBlurOuter1" values="0 0 0 0 0 0 0 0 0 0 0 0 0 0 0 0 0 0 0.07 0"/></filter><path id="g" d="M0 0h28.983v29.012H0z"/><rect id="j" width="265.797" height="29.101" x="0" y="0" rx="3.028"/><filter id="i" width="111.3%" height="203.1%" x="-5.6%" y="-51.5%" filterUnits="objectBoundingBox"><feMorphology in="SourceAlpha" operator="dilate" radius=".5" result="shadowSpreadOuter1"/><feOffset in="shadowSpreadOuter1" result="shadowOffsetOuter1"/><feGaussianBlur in="shadowOffsetOuter1" result="shadowBlurOuter1" stdDeviation="4.5"/><feColorMatrix in="shadowBlurOuter1" values="0 0 0 0 0 0 0 0 0 0 0 0 0 0 0 0 0 0 0.07 0"/></filter><rect id="l" width="105.903" height="70.673" x="201.424" y="269.182" rx="3.028"/><filter id="k" width="128.3%" height="142.4%" x="-14.2%" y="-21.2%" filterUnits="objectBoundingBox"><feMorphology in="SourceAlpha" operator="dilate" radius=".5" result="shadowSpreadOuter1"/><feOffset in="shadowSpreadOuter1" result="shadowOffsetOuter1"/><feGaussianBlur in="shadowOffsetOuter1" result="shadowBlurOuter1" stdDeviation="4.5"/><feColorMatrix in="shadowBlurOuter1" values="0 0 0 0 0 0 0 0 0 0 0 0 0 0 0 0 0 0 0.07 0"/></filter><rect id="n" width="105.903" height="70.673" x="317.71" y="188.115" rx="3.028"/><filter id="m" width="128.3%" height="142.4%" x="-14.2%" y="-21.2%" filterUnits="objectBoundingBox"><feMorphology in="SourceAlpha" operator="dilate" radius=".5" result="shadowSpreadOuter1"/><feOffset in="shadowSpreadOuter1" result="shadowOffsetOuter1"/><feGaussianBlur in="shadowOffsetOuter1" result="shadowBlurOuter1" stdDeviation="4.5"/><feColorMatrix in="shadowBlurOuter1" values="0 0 0 0 0 0 0 0 0 0 0 0 0 0 0 0 0 0 0.07 0"/></filter><rect id="p" width="105.903" height="70.673" x="317.71" y="269.182" rx="3.028"/><filter id="o" width="128.3%" height="142.4%" x="-14.2%" y="-21.2%" filterUnits="objectBoundingBox"><feMorphology in="SourceAlpha" operator="dilate" radius=".5" result="shadowSpreadOuter1"/><feOffset in="shadowSpreadOuter1" result="shadowOffsetOuter1"/><feGaussianBlur in="shadowOffsetOuter1" result="shadowBlurOuter1" stdDeviation="4.5"/><feColorMatrix in="shadowBlurOuter1" values="0 0 0 0 0 0 0 0 0 0 0 0 0 0 0 0 0 0 0.07 0"/></filter><rect id="r" width="105.903" height="70.673" x="432.958" y="188.115" rx="3.028"/><filter id="q" width="128.3%" height="142.4%" x="-14.2%" y="-21.2%" filterUnits="objectBoundingBox"><feMorphology in="SourceAlpha" operator="dilate" radius=".5" result="shadowSpreadOuter1"/><feOffset in="shadowSpreadOuter1" result="shadowOffsetOuter1"/><feGaussianBlur in="shadowOffsetOuter1" result="shadowBlurOuter1" stdDeviation="4.5"/><feColorMatrix in="shadowBlurOuter1" values="0 0 0 0 0 0 0 0 0 0 0 0 0 0 0 0 0 0 0.07 0"/></filter><rect id="t" width="105.903" height="70.673" x="432.958" y="269.182" rx="3.028"/><filter id="s" width="128.3%" height="142.4%" x="-14.2%" y="-21.2%" filterUnits="objectBoundingBox"><feMorphology in="SourceAlpha" operator="dilate" radius=".5" result="shadowSpreadOuter1"/><feOffset in="shadowSpreadOuter1" result="shadowOffsetOuter1"/><feGaussianBlur in="shadowOffsetOuter1" result="shadowBlurOuter1" stdDeviation="4.5"/><feColorMatrix in="shadowBlurOuter1" values="0 0 0 0 0 0 0 0 0 0 0 0 0 0 0 0 0 0 0.07 0"/></filter><path id="u" d="M139.772 29h353.8c.93 0 1.683.753 1.683 1.682v16.636c0 .929-.753 1.682-1.682 1.682H139.772a1.682 1.682 0 0 1-1.682-1.682V30.682c0-.929.753-1.682 1.682-1.682z"/></defs><g fill="none" fill-rule="evenodd"><path fill="#F9F9FA" d="M6.728 0h610.544A6.728 6.728 0 0 1 624 6.728v412.067a4.205 4.205 0 0 1-4.205 4.205H4.205A4.205 4.205 0 0 1 0 418.795V6.728A6.728 6.728 0 0 1 6.728 0z"/><use fill="#000" filter="url(#a)" xlink:href="#b"/><use fill="#FFF" xlink:href="#b"/><path fill="#888" fill-rule="nonzero" d="M138.09 238.003c-8.028 0-14.536-6.515-14.536-14.55 0-8.037 6.508-14.551 14.536-14.551 8.028 0 14.536 6.514 14.536 14.55 0 8.036-6.508 14.55-14.536 14.55zm9.695-14.55a2.12 2.12 0 1 0-3.59-1.455 10.342 10.342 0 0 0-5.596-1.79l.944-4.54 3.111.655a1.454 1.454 0 1 0 .189-.888l-3.561-.713a.45.45 0 0 0-.538.35l-1.076 5.048c-2.023.03-3.994.653-5.669 1.79a2.12 2.12 0 0 0-3.576 1.515 2.125 2.125 0 0 0 1.236 1.963 4.18 4.18 0 0 0 0 .64c0 3.26 3.794 5.907 8.474 5.907s8.475-2.648 8.475-5.907a4.18 4.18 0 0 0 0-.64 2.125 2.125 0 0 0 1.177-1.936zm-14.536 1.454a1.454 1.454 0 1 1 2.909-.001 1.454 1.454 0 0 1-2.909.001zm8.446 4.002a5.578 5.578 0 0 1-3.59 1.12 5.578 5.578 0 0 1-3.591-1.12.393.393 0 0 1 .552-.553 4.75 4.75 0 0 0 3.024.917 4.764 4.764 0 0 0 3.038-.888.406.406 0 1 1 .567.582v-.058zm-.262-2.488a1.454 1.454 0 1 1 1.454-1.455 1.456 1.456 0 0 1-1.469 1.513l.015-.058z"/><use fill="#000" filter="url(#c)" xlink:href="#d"/><use fill="#FFF" xlink:href="#d"/><path fill="#888" d="M152.518 297.018c-.13 2.923-2.1 6.927-5.91 12.01-3.94 5.307-7.274 7.962-10 7.962-1.69 0-3.119-1.616-4.286-4.85l-2.339-8.89c-.867-3.232-1.797-4.85-2.792-4.85-.217 0-.976.474-2.274 1.415l-1.363-1.82c1.43-1.302 2.84-2.604 4.229-3.909 1.907-1.708 3.34-2.607 4.294-2.697 2.254-.225 3.642 1.373 4.163 4.793.564 3.69.954 5.986 1.172 6.884.65 3.063 1.366 4.592 2.147 4.592.606 0 1.517-.993 2.732-2.98 1.213-1.986 1.863-3.497 1.95-4.535.175-1.715-.476-2.573-1.95-2.573-.693 0-1.409.165-2.145.492 1.425-4.835 4.146-7.184 8.162-7.05 2.977.09 4.381 2.093 4.21 6.006"/><use fill="#000" filter="url(#e)" xlink:href="#f"/><use fill="#FFF" xlink:href="#f"/><g transform="translate(239.84 208.902)"><mask id="h" fill="#fff"><use xlink:href="#g"/></mask><path fill="#888" d="M23.063 12.86c-4.67-2.777-12.376-3.032-16.835-1.678a1.357 1.357 0 0 1-.787-2.596c5.119-1.556 13.628-1.255 19.006 1.94a1.357 1.357 0 0 1-1.384 2.334m-.152 4.113a1.13 1.13 0 0 1-1.555.372c-3.894-2.396-9.832-3.09-14.44-1.69a1.131 1.131 0 0 1-.656-2.164c5.263-1.599 11.806-.825 16.279 1.927.53.327.698 1.024.372 1.555m-1.774 3.95a.902.902 0 0 1-1.242.3c-3.403-2.081-7.686-2.552-12.73-1.398a.903.903 0 1 1-.402-1.763c5.52-1.263 10.255-.72 14.075 1.617.425.26.56.817.3 1.244M14.49 0C6.488 0 .001 6.495.001 14.506c0 8.012 6.487 14.506 14.49 14.506 8.004 0 14.492-6.494 14.492-14.506C28.983 6.495 22.495 0 14.49 0" mask="url(#h)"/></g><g transform="translate(178.582 119.52)"><use fill="#000" filter="url(#i)" xlink:href="#j"/><use fill="#FFF" xlink:href="#j"/><rect width="109.272" height="5.82" x="9.844" y="11.64" fill="#BBB" fill-rule="nonzero" rx=".841"/><g stroke="#9B9B9B" stroke-width="1.121" transform="translate(238.232 8.73)"><ellipse cx="4.594" cy="4.527" rx="4.594" ry="4.527"/><path stroke-linecap="round" d="M7.875 7.76l3.938 3.88"/></g></g><use fill="#000" filter="url(#k)" xlink:href="#l"/><use fill="#FFF" xlink:href="#l"/><path fill="#888" fill-rule="nonzero" d="M246.31 289.968l8.546 5.456-8.547 5.457-8.545-5.457 8.545-5.456zm17.092 0l8.545 5.456-8.545 5.457-8.546-5.457 8.546-5.456zm-25.638 16.37l8.545-5.457 8.547 5.456-8.547 5.457-8.545-5.457zm25.638-5.457l8.545 5.456-8.545 5.457-8.546-5.457 8.546-5.456zm-17.093 12.731l8.547-5.456 8.546 5.456-8.546 5.457-8.547-5.457z"/><use fill="#000" filter="url(#m)" xlink:href="#n"/><use fill="#FFF" xlink:href="#n"/><path fill="#888" d="M370.657 208.96c3.947 0 4.441.016 5.991.087 1.547.07 2.603.316 3.528.675.955.37 1.766.867 2.573 1.674a7.115 7.115 0 0 1 1.677 2.571c.359.924.604 1.98.675 3.524.07 1.549.087 2.043.087 5.986 0 3.942-.016 4.437-.087 5.985-.07 1.545-.316 2.6-.675 3.524a7.114 7.114 0 0 1-1.677 2.571 7.124 7.124 0 0 1-2.573 1.674c-.925.36-1.98.605-3.528.675-1.55.07-2.044.088-5.99.088-3.947 0-4.442-.017-5.992-.088-1.547-.07-2.603-.316-3.527-.675a7.124 7.124 0 0 1-2.574-1.674 7.115 7.115 0 0 1-1.676-2.571c-.36-.924-.605-1.979-.676-3.524-.07-1.548-.087-2.043-.087-5.985 0-3.943.017-4.437.087-5.986.071-1.545.317-2.6.676-3.524a7.115 7.115 0 0 1 1.676-2.57 7.123 7.123 0 0 1 2.574-1.675c.924-.36 1.98-.605 3.527-.675 1.55-.07 2.045-.087 5.991-.087zm0 2.615c-3.88 0-4.34.015-5.872.085-1.416.064-2.186.301-2.698.5a4.502 4.502 0 0 0-1.67 1.086 4.497 4.497 0 0 0-1.088 1.669c-.199.511-.435 1.28-.5 2.696-.07 1.53-.085 1.99-.085 5.866 0 3.876.015 4.335.085 5.866.065 1.415.301 2.184.5 2.695a4.498 4.498 0 0 0 1.087 1.67c.509.507.993.822 1.671 1.085.512.2 1.282.436 2.698.5 1.532.07 1.992.085 5.872.085s4.34-.015 5.872-.085c1.417-.064 2.186-.3 2.698-.5a4.502 4.502 0 0 0 1.671-1.086 4.499 4.499 0 0 0 1.087-1.669c.2-.511.436-1.28.5-2.695.07-1.531.085-1.99.085-5.866 0-3.877-.015-4.336-.085-5.866-.064-1.416-.3-2.185-.5-2.696a4.499 4.499 0 0 0-1.087-1.67 4.503 4.503 0 0 0-1.67-1.085c-.513-.199-1.282-.436-2.699-.5-1.532-.07-1.992-.085-5.872-.085zm0 16.74a4.841 4.841 0 0 0 4.844-4.838 4.841 4.841 0 0 0-4.844-4.84 4.841 4.841 0 0 0-4.844 4.84 4.841 4.841 0 0 0 4.844 4.839zm0-12.293c4.121 0 7.462 3.337 7.462 7.455 0 4.117-3.34 7.454-7.462 7.454-4.12 0-7.462-3.337-7.462-7.454 0-4.118 3.341-7.455 7.462-7.455zm9.5-.295a1.743 1.743 0 1 1-3.485-.001 1.743 1.743 0 0 1 3.486.001z"/><use fill="#000" filter="url(#o)" xlink:href="#p"/><use fill="#FFF" xlink:href="#p"/><path fill="#888" d="M383.121 289.635c0 3.696-3.047 5.64-6.094 5.64v6.031l3.25 2.529v.194l-3.25 2.53v7.975c2.235-1.168 4.063-3.502 5.282-6.03h.406c0 6.419-5.281 12.643-13.407 12.643-7.516 0-14.22-5.835-14.22-13.616 0-6.614 5.485-12.06 11.58-13.617l.202.584c-2.234 1.167-4.469 2.918-5.281 5.446l10.157-4.28v13.423l-8.33 3.89c2.235 2.335 4.876 3.113 7.923 3.113 1.625 0 3.454-.195 5.079-1.167v-8.365l-3.047-2.529v-.194l3.047-2.529v-6.03c-1.625-.195-4.672-.778-7.516-1.556-3.25-.973-5.688-1.751-7.516-1.751-2.032 0-2.844 1.362-2.844 2.14 0 1.167.609 1.556 1.015 1.945l-.203.389c-.812-.39-3.047-1.362-3.047-4.28 0-3.307 2.844-6.224 6.907-6.224 2.031 0 4.469.778 7.11 1.75 2.234.778 5.281 1.557 6.703 1.557 1.829 0 2.438-1.168 2.438-1.946 0-1.361-1.422-1.945-3.25-1.945v-.584c3.047 0 6.906.973 6.906 4.864zm-17.673 21.397v-12.06l-4.266 1.75c-.406 1.168-.406 2.724-.406 4.085 0 3.307.813 5.642 2.235 7.392l2.437-1.167z"/><use fill="#000" filter="url(#q)" xlink:href="#r"/><use fill="#FFF" xlink:href="#r"/><path d="M466.183 203.705h39.454v39.494h-39.454z"/><path fill="#888" fill-rule="nonzero" d="M481.335 233.482c9.306 0 14.395-7.717 14.395-14.409 0-.22 0-.437-.015-.655a10.3 10.3 0 0 0 2.525-2.621 10.09 10.09 0 0 1-2.906.797 5.081 5.081 0 0 0 2.224-2.801c-.993.59-2.08 1.005-3.213 1.229a5.06 5.06 0 0 0-6.078-.997 5.07 5.07 0 0 0-2.543 5.616 14.358 14.358 0 0 1-10.427-5.291 5.071 5.071 0 0 0 1.566 6.76 5.018 5.018 0 0 1-2.296-.634v.064a5.065 5.065 0 0 0 4.059 4.965 5.046 5.046 0 0 1-2.285.087 5.066 5.066 0 0 0 4.727 3.516 10.145 10.145 0 0 1-7.487 2.1 14.312 14.312 0 0 0 7.754 2.27"/><use fill="#000" filter="url(#s)" xlink:href="#t"/><use fill="#FFF" xlink:href="#t"/><path fill="#888" fill-rule="nonzero" d="M477.563 308.32a3.033 3.033 0 0 1-3.024 3.028 3.033 3.033 0 0 1-3.024-3.028 3.033 3.033 0 0 1 3.024-3.027h3.024v3.027zm1.524 0a3.033 3.033 0 0 1 3.025-3.027 3.033 3.033 0 0 1 3.024 3.027v7.58a3.033 3.033 0 0 1-3.024 3.028 3.033 3.033 0 0 1-3.025-3.027v-7.58zm3.025-12.156a3.033 3.033 0 0 1-3.025-3.028 3.033 3.033 0 0 1 3.025-3.027 3.033 3.033 0 0 1 3.024 3.027v3.028h-3.024zm0 1.525a3.033 3.033 0 0 1 3.024 3.027 3.033 3.033 0 0 1-3.024 3.028h-7.573a3.033 3.033 0 0 1-3.024-3.028 3.033 3.033 0 0 1 3.024-3.027h7.573zm12.144 3.027a3.033 3.033 0 0 1 3.024-3.027 3.033 3.033 0 0 1 3.025 3.027 3.033 3.033 0 0 1-3.025 3.028h-3.024v-3.028zm-1.524 0a3.033 3.033 0 0 1-3.024 3.028 3.033 3.033 0 0 1-3.025-3.028v-7.58a3.033 3.033 0 0 1 3.025-3.027 3.033 3.033 0 0 1 3.024 3.027v7.58zm-3.024 12.157a3.033 3.033 0 0 1 3.024 3.028 3.033 3.033 0 0 1-3.024 3.027 3.033 3.033 0 0 1-3.025-3.027v-3.028h3.025zm0-1.525a3.033 3.033 0 0 1-3.025-3.028 3.033 3.033 0 0 1 3.025-3.027h7.572a3.033 3.033 0 0 1 3.025 3.027 3.033 3.033 0 0 1-3.025 3.028h-7.572z"/><path fill="#2C2831" fill-rule="nonzero" d="M4.205 0h615.59A4.205 4.205 0 0 1 624 4.205v19.7H0v-19.7A4.205 4.205 0 0 1 4.205 0z"/><path fill="#E1E1E2" fill-rule="nonzero" d="M0 403.253h624v15.542a4.205 4.205 0 0 1-4.205 4.205H4.205A4.205 4.205 0 0 1 0 418.795v-15.542zM37.378 0h123.554v23.904H37.378zM0 23.904h624v31.179H0z"/><use fill="#FFF" xlink:href="#u"/><rect width="11.421" height="11.432" x="45.684" y="33.258" fill="#BEBEBF" fill-rule="nonzero" rx="1.682"/><rect width="11.421" height="11.432" x="603.235" y="33.258" fill="#BEBEBF" fill-rule="nonzero" rx="1.682"/><rect width="56.067" height="8.314" x="64.373" y="8.314" fill="#BEBEBF" fill-rule="nonzero" rx="1.682"/><rect width="153.664" height="6.236" x="167.161" y="36.376" fill="#BBB" fill-rule="nonzero" rx=".841"/><rect width="15.574" height="15.59" x="45.684" y="5.197" fill="#BEBEBF" fill-rule="nonzero" rx="1.682"/><rect width="11.421" height="11.432" x="65.411" y="33.258" fill="#BEBEBF" fill-rule="nonzero" rx="1.682"/><rect width="11.421" height="11.432" x="85.138" y="33.258" fill="#BEBEBF" fill-rule="nonzero" rx="1.682"/><ellipse cx="24.399" cy="38.974" fill="#BEBEBF" rx="10.902" ry="10.913"/><path d="M9.344 46.722H624v.779H9.344z"/><path fill="#4A4A4A" d="M48.595 89.255c-.01-.061-.017-.094-.017-.094-.208.373-.47.69-.47.69 0-2.258-1.68-5.211-2.765-6.854a16.495 16.495 0 0 0-.809-1.135c-.574-.71-.861-1.626-.861-1.626a3.51 3.51 0 0 0-.453 1.014c-.053.189-.074.314-.074.314s-.182-.286-.717-.792a12.349 12.349 0 0 0-.719-.627c-1.1-.892-1.46-2.197-1.46-2.197s-.58.573-1.134 1.534a8.17 8.17 0 0 0-.438.874 6.634 6.634 0 0 0-.558 2.604c0 2.907 2.465 4.806 2.465 4.806s1.532.778 1.532 4.044c0 3.266-3.143 5.385-6.111 5.385s-4.293-2.105-4.293-2.105c2.599.665 3.495.045 4.293-.458.798-.504 1.228-.412 1.723-.412.495 0 .527-.55-.24-1.205 0 0-.606-.504-1.483-.504-.878 0-1.532.488-2.426.488 0 0-1.454-.07-2.25-1.236-.81-1.188-.031-2.73 1.309-1.526 0 0 .367-.426.223-1.632 0 0 .112-.29 1.038-.64.925-.351 1.914-.733 1.914-1.801 0 0-.111-.381-1.835-.442-.759-.028-1.196-.513-1.447-1.048 0-.003.527-1.438 2.018-2.251a.022.022 0 0 0-.005-.042c-.343-.08-2.168-.415-3.566 1.113 0 0-.462-.366-1.866-.366-.334 0-.694.031-1.07.107a3.768 3.768 0 0 1-.69-.888 3.552 3.552 0 0 1-.46-1.727c0-.02-.026-.031-.041-.017-2.091 1.872-1.773 4.313-1.773 4.313-.888.941-1.678 2.338-2.198 4.375-.003.013.016.02.023.009.118-.212.446-.786.801-1.274 0 0-.847 1.272-.863 4.396 0 .014.02.017.024.003.062-.218.23-.815.366-1.303h.003c0 .07-.003.139-.003.209 0 6.745 5.719 12.213 12.774 12.213 2.811 0 4.516-.59 5.527-1.2a5.19 5.19 0 0 0 .357-.235c.786-.566 1.009-1.084 1.009-1.084a10.242 10.242 0 0 0 1.88-1.012 6.883 6.883 0 0 0 1.135-.974 5.36 5.36 0 0 0 .478-.598 4.135 4.135 0 0 0 .663-1.52c.083-.414.056-.672.056-.672.29-.431.528-.87.724-1.309 1.171-2.61.843-5.17.76-5.685"/></g></svg>