<svg xmlns="http://www.w3.org/2000/svg" xmlns:xlink="http://www.w3.org/1999/xlink" width="634" height="438" viewBox="0 0 634 438"><defs><path id="b" d="M6.055 0h549.89A6.055 6.055 0 0 1 562 6.055v371.16a3.784 3.784 0 0 1-3.784 3.785H3.784A3.784 3.784 0 0 1 0 377.216V6.056A6.055 6.055 0 0 1 6.055 0z"/><filter id="a" width="109.1%" height="113.4%" x="-4.5%" y="-6.7%" filterUnits="objectBoundingBox"><feMorphology in="SourceAlpha" operator="dilate" radius="1" result="shadowSpreadOuter1"/><feOffset in="shadowSpreadOuter1" result="shadowOffsetOuter1"/><feGaussianBlur in="shadowOffsetOuter1" result="shadowBlurOuter1" stdDeviation="7.5"/><feColorMatrix in="shadowBlurOuter1" values="0 0 0 0 0 0 0 0 0 0 0 0 0 0 0 0 0 0 0.25 0"/></filter><rect id="d" width="95.381" height="63.656" x="76.679" y="169.437" rx="2.725"/><filter id="c" width="128.3%" height="142.4%" x="-14.2%" y="-21.2%" filterUnits="objectBoundingBox"><feMorphology in="SourceAlpha" operator="dilate" radius=".5" result="shadowSpreadOuter1"/><feOffset in="shadowSpreadOuter1" result="shadowOffsetOuter1"/><feGaussianBlur in="shadowOffsetOuter1" result="shadowBlurOuter1" stdDeviation="4"/><feColorMatrix in="shadowBlurOuter1" values="0 0 0 0 0 0 0 0 0 0 0 0 0 0 0 0 0 0 0.07 0"/></filter><rect id="f" width="95.381" height="63.656" x="76.679" y="242.455" rx="2.725"/><filter id="e" width="128.3%" height="142.4%" x="-14.2%" y="-21.2%" filterUnits="objectBoundingBox"><feMorphology in="SourceAlpha" operator="dilate" radius=".5" result="shadowSpreadOuter1"/><feOffset in="shadowSpreadOuter1" result="shadowOffsetOuter1"/><feGaussianBlur in="shadowOffsetOuter1" result="shadowBlurOuter1" stdDeviation="4"/><feColorMatrix in="shadowBlurOuter1" values="0 0 0 0 0 0 0 0 0 0 0 0 0 0 0 0 0 0 0.07 0"/></filter><rect id="h" width="95.381" height="63.656" x="181.411" y="169.437" rx="2.725"/><filter id="g" width="128.3%" height="142.4%" x="-14.2%" y="-21.2%" filterUnits="objectBoundingBox"><feMorphology in="SourceAlpha" operator="dilate" radius=".5" result="shadowSpreadOuter1"/><feOffset in="shadowSpreadOuter1" result="shadowOffsetOuter1"/><feGaussianBlur in="shadowOffsetOuter1" result="shadowBlurOuter1" stdDeviation="4"/><feColorMatrix in="shadowBlurOuter1" values="0 0 0 0 0 0 0 0 0 0 0 0 0 0 0 0 0 0 0.07 0"/></filter><path id="i" d="M0 0h26.103v26.131H0z"/><rect id="l" width="239.388" height="26.211" x="0" y="0" rx="2.725"/><filter id="k" width="111.3%" height="203%" x="-5.6%" y="-51.5%" filterUnits="objectBoundingBox"><feMorphology in="SourceAlpha" operator="dilate" radius=".5" result="shadowSpreadOuter1"/><feOffset in="shadowSpreadOuter1" result="shadowOffsetOuter1"/><feGaussianBlur in="shadowOffsetOuter1" result="shadowBlurOuter1" stdDeviation="4"/><feColorMatrix in="shadowBlurOuter1" values="0 0 0 0 0 0 0 0 0 0 0 0 0 0 0 0 0 0 0.07 0"/></filter><rect id="n" width="95.381" height="63.656" x="181.411" y="242.455" rx="2.725"/><filter id="m" width="128.3%" height="142.4%" x="-14.2%" y="-21.2%" filterUnits="objectBoundingBox"><feMorphology in="SourceAlpha" operator="dilate" radius=".5" result="shadowSpreadOuter1"/><feOffset in="shadowSpreadOuter1" result="shadowOffsetOuter1"/><feGaussianBlur in="shadowOffsetOuter1" result="shadowBlurOuter1" stdDeviation="4"/><feColorMatrix in="shadowBlurOuter1" values="0 0 0 0 0 0 0 0 0 0 0 0 0 0 0 0 0 0 0.07 0"/></filter><rect id="p" width="95.381" height="63.656" x="286.143" y="169.437" rx="2.725"/><filter id="o" width="128.3%" height="142.4%" x="-14.2%" y="-21.2%" filterUnits="objectBoundingBox"><feMorphology in="SourceAlpha" operator="dilate" radius=".5" result="shadowSpreadOuter1"/><feOffset in="shadowSpreadOuter1" result="shadowOffsetOuter1"/><feGaussianBlur in="shadowOffsetOuter1" result="shadowBlurOuter1" stdDeviation="4"/><feColorMatrix in="shadowBlurOuter1" values="0 0 0 0 0 0 0 0 0 0 0 0 0 0 0 0 0 0 0.07 0"/></filter><rect id="r" width="95.381" height="63.656" x="286.143" y="242.455" rx="2.725"/><filter id="q" width="128.3%" height="142.4%" x="-14.2%" y="-21.2%" filterUnits="objectBoundingBox"><feMorphology in="SourceAlpha" operator="dilate" radius=".5" result="shadowSpreadOuter1"/><feOffset in="shadowSpreadOuter1" result="shadowOffsetOuter1"/><feGaussianBlur in="shadowOffsetOuter1" result="shadowBlurOuter1" stdDeviation="4"/><feColorMatrix in="shadowBlurOuter1" values="0 0 0 0 0 0 0 0 0 0 0 0 0 0 0 0 0 0 0.07 0"/></filter><rect id="t" width="95.381" height="63.656" x="389.94" y="169.437" rx="2.725"/><filter id="s" width="128.3%" height="142.4%" x="-14.2%" y="-21.2%" filterUnits="objectBoundingBox"><feMorphology in="SourceAlpha" operator="dilate" radius=".5" result="shadowSpreadOuter1"/><feOffset in="shadowSpreadOuter1" result="shadowOffsetOuter1"/><feGaussianBlur in="shadowOffsetOuter1" result="shadowBlurOuter1" stdDeviation="4"/><feColorMatrix in="shadowBlurOuter1" values="0 0 0 0 0 0 0 0 0 0 0 0 0 0 0 0 0 0 0.07 0"/></filter><rect id="v" width="95.381" height="63.656" x="389.94" y="242.455" rx="2.725"/><filter id="u" width="128.3%" height="142.4%" x="-14.2%" y="-21.2%" filterUnits="objectBoundingBox"><feMorphology in="SourceAlpha" operator="dilate" radius=".5" result="shadowSpreadOuter1"/><feOffset in="shadowSpreadOuter1" result="shadowOffsetOuter1"/><feGaussianBlur in="shadowOffsetOuter1" result="shadowBlurOuter1" stdDeviation="4"/><feColorMatrix in="shadowBlurOuter1" values="0 0 0 0 0 0 0 0 0 0 0 0 0 0 0 0 0 0 0.07 0"/></filter><path id="w" d="M125.795 26.1h318.82c.836 0 1.514.678 1.514 1.514v15.272c0 .836-.678 1.514-1.514 1.514h-318.82a1.514 1.514 0 0 1-1.514-1.514V27.614c0-.836.678-1.514 1.514-1.514z"/></defs><g fill="none" fill-rule="evenodd" transform="translate(36 28)"><use fill="#000" filter="url(#a)" xlink:href="#b"/><use fill="#F9F9FA" xlink:href="#b"/><use fill="#000" filter="url(#c)" xlink:href="#d"/><use fill="#FFF" xlink:href="#d"/><path fill="#888" fill-rule="nonzero" d="M124.37 214.371c-7.23 0-13.092-5.867-13.092-13.105s5.861-13.106 13.092-13.106c7.23 0 13.091 5.868 13.091 13.106 0 7.238-5.861 13.105-13.091 13.105zm8.732-13.105a1.91 1.91 0 1 0-3.234-1.31 9.314 9.314 0 0 0-5.04-1.613l.85-4.089 2.802.59a1.31 1.31 0 1 0 .17-.8l-3.207-.642a.405.405 0 0 0-.484.315l-.97 4.547a9.34 9.34 0 0 0-5.105 1.612 1.91 1.91 0 0 0-3.22 1.365 1.914 1.914 0 0 0 1.112 1.768 3.765 3.765 0 0 0 0 .576c0 2.936 3.417 5.321 7.633 5.321 4.215 0 7.632-2.385 7.632-5.32a3.765 3.765 0 0 0 0-.577 1.914 1.914 0 0 0 1.06-1.743zm-13.092 1.31a1.31 1.31 0 1 1 2.62-.001 1.31 1.31 0 0 1-2.62.001zm7.606 3.604a5.023 5.023 0 0 1-3.233 1.01 5.023 5.023 0 0 1-3.234-1.01.354.354 0 0 1 .497-.498c.788.578 1.748.87 2.724.826a4.29 4.29 0 0 0 2.736-.8.365.365 0 1 1 .51.525v-.053zm-.235-2.24a1.31 1.31 0 1 1 1.309-1.311 1.311 1.311 0 0 1-1.323 1.363l.014-.053z"/><use fill="#000" filter="url(#e)" xlink:href="#f"/><use fill="#FFF" xlink:href="#f"/><path fill="#888" d="M137.364 267.527c-.117 2.633-1.89 6.24-5.323 10.818-3.548 4.78-6.55 7.17-9.006 7.17-1.522 0-2.809-1.455-3.86-4.366l-2.107-8.009c-.78-2.91-1.618-4.367-2.514-4.367-.195 0-.879.426-2.049 1.274l-1.227-1.64a327.936 327.936 0 0 0 3.809-3.52c1.717-1.54 3.008-2.349 3.867-2.43 2.03-.203 3.28 1.237 3.75 4.317.507 3.325.858 5.392 1.055 6.201.586 2.758 1.23 4.136 1.934 4.136.545 0 1.366-.894 2.46-2.684 1.093-1.789 1.678-3.15 1.757-4.085.157-1.545-.429-2.318-1.756-2.318-.625 0-1.27.149-1.932.444 1.283-4.356 3.733-6.47 7.35-6.35 2.682.081 3.946 1.884 3.792 5.409"/><use fill="#000" filter="url(#g)" xlink:href="#h"/><use fill="#FFF" xlink:href="#h"/><g transform="translate(216.01 188.16)"><mask id="j" fill="#fff"><use xlink:href="#i"/></mask><path fill="#888" d="M20.772 11.583c-4.207-2.501-11.147-2.731-15.163-1.51A1.223 1.223 0 0 1 4.9 7.733c4.61-1.402 12.275-1.13 17.118 1.747a1.223 1.223 0 0 1-1.246 2.102m-.138 3.704c-.295.48-.921.63-1.4.336-3.507-2.158-8.855-2.784-13.005-1.523a1.019 1.019 0 0 1-.591-1.949c4.74-1.44 10.633-.742 14.661 1.736.479.295.63.922.335 1.4m-1.597 3.558a.812.812 0 0 1-1.118.271c-3.065-1.875-6.923-2.298-11.466-1.26a.813.813 0 1 1-.362-1.587c4.972-1.138 9.236-.648 12.676 1.456a.815.815 0 0 1 .27 1.12M13.052 0C5.844 0 0 5.85 0 13.065c0 7.217 5.844 13.066 13.052 13.066 7.208 0 13.051-5.849 13.051-13.066C26.103 5.85 20.26 0 13.052 0" mask="url(#j)"/></g><g transform="translate(160.839 107.654)"><use fill="#000" filter="url(#k)" xlink:href="#l"/><use fill="#FFF" xlink:href="#l"/><rect width="98.415" height="5.242" x="8.866" y="10.485" fill="#BBB" fill-rule="nonzero" rx=".757"/><g stroke="#9B9B9B" stroke-width="1.009" transform="translate(214.563 7.864)"><ellipse cx="4.138" cy="4.077" rx="4.138" ry="4.077"/><path stroke-linecap="round" d="M7.093 6.99l3.546 3.495"/></g></g><use fill="#000" filter="url(#m)" xlink:href="#n"/><use fill="#FFF" xlink:href="#n"/><path fill="#888" fill-rule="nonzero" d="M221.836 261.177l7.698 4.915-7.698 4.914-7.696-4.914 7.696-4.915zm15.394 0l7.697 4.915-7.697 4.914-7.696-4.914 7.696-4.915zm-23.09 14.744l7.696-4.915 7.698 4.915-7.698 4.914-7.696-4.914zm23.09-4.915l7.697 4.915-7.697 4.914-7.696-4.914 7.696-4.915zm-15.394 11.468l7.698-4.915 7.696 4.915-7.696 4.914-7.698-4.914z"/><use fill="#000" filter="url(#o)" xlink:href="#p"/><use fill="#FFF" xlink:href="#p"/><path fill="#888" d="M333.83 188.212c3.554 0 4 .015 5.395.079 1.393.063 2.345.284 3.177.607.86.334 1.59.782 2.318 1.508a6.409 6.409 0 0 1 1.51 2.316c.323.832.545 1.783.608 3.174.064 1.395.079 1.84.079 5.391 0 3.552-.015 3.997-.079 5.392-.063 1.391-.285 2.342-.608 3.173a6.408 6.408 0 0 1-1.51 2.316 6.416 6.416 0 0 1-2.318 1.509c-.832.323-1.784.544-3.177.607-1.396.064-1.841.08-5.396.08-3.554 0-4-.016-5.396-.08-1.393-.063-2.344-.284-3.176-.607a6.416 6.416 0 0 1-2.318-1.509 6.408 6.408 0 0 1-1.51-2.316c-.323-.831-.545-1.782-.608-3.173-.064-1.395-.079-1.84-.079-5.392 0-3.55.015-3.996.079-5.39.063-1.392.285-2.343.608-3.175a6.409 6.409 0 0 1 1.51-2.316 6.415 6.415 0 0 1 2.318-1.508c.832-.323 1.783-.544 3.176-.607 1.396-.064 1.842-.08 5.396-.08zm0 2.356c-3.495 0-3.909.013-5.29.076-1.275.058-1.968.271-2.43.45-.61.238-1.046.52-1.504.978a4.05 4.05 0 0 0-.979 1.504c-.18.46-.392 1.153-.45 2.428-.064 1.379-.077 1.792-.077 5.283 0 3.492.013 3.905.076 5.284.059 1.275.272 1.967.451 2.428.237.61.521 1.046.979 1.504.458.457.894.74 1.505.978.461.179 1.154.392 2.43.45 1.38.063 1.794.076 5.288.076 3.495 0 3.909-.013 5.289-.076 1.276-.058 1.969-.271 2.43-.45a4.055 4.055 0 0 0 1.505-.978c.458-.458.741-.894.979-1.504.179-.46.392-1.153.45-2.428.063-1.379.077-1.792.077-5.284 0-3.49-.014-3.904-.077-5.283-.058-1.275-.271-1.967-.45-2.428a4.052 4.052 0 0 0-.98-1.504 4.055 4.055 0 0 0-1.504-.978c-.461-.179-1.154-.392-2.43-.45-1.38-.063-1.794-.076-5.289-.076zm0 15.078a4.36 4.36 0 0 0 4.362-4.359 4.36 4.36 0 0 0-4.363-4.358 4.36 4.36 0 0 0-4.362 4.358 4.36 4.36 0 0 0 4.362 4.359zm0-11.073a6.717 6.717 0 0 1 6.72 6.714 6.717 6.717 0 0 1-6.72 6.715 6.718 6.718 0 0 1-6.721-6.715 6.718 6.718 0 0 1 6.72-6.714zm8.556-.265a1.57 1.57 0 1 1-3.14-.002 1.57 1.57 0 0 1 3.14.002z"/><use fill="#000" filter="url(#q)" xlink:href="#r"/><use fill="#FFF" xlink:href="#r"/><path fill="#888" d="M345.055 260.877c0 3.329-2.744 5.08-5.489 5.08v5.432l2.928 2.278v.175l-2.928 2.278v7.183c2.013-1.05 3.66-3.153 4.757-5.431h.366c0 5.782-4.757 11.388-12.075 11.388-6.77 0-12.807-5.256-12.807-12.264 0-5.957 4.94-10.863 10.428-12.265l.183.526c-2.012 1.051-4.025 2.628-4.756 4.906l9.147-3.855v12.09l-7.5 3.504c2.012 2.102 4.39 2.803 7.134 2.803 1.464 0 3.11-.175 4.574-1.051v-7.534l-2.744-2.278v-.175l2.744-2.278v-5.431c-1.463-.176-4.208-.701-6.769-1.402-2.927-.876-5.123-1.577-6.77-1.577-1.829 0-2.56 1.227-2.56 1.927 0 1.052.548 1.402.914 1.752l-.183.35c-.732-.35-2.744-1.226-2.744-3.854 0-2.978 2.561-5.606 6.22-5.606 1.83 0 4.025.7 6.404 1.576 2.012.701 4.757 1.402 6.037 1.402 1.647 0 2.196-1.051 2.196-1.752 0-1.226-1.281-1.752-2.928-1.752v-.526c2.745 0 6.22.876 6.22 4.38zm-15.917 19.273v-10.863l-3.842 1.576c-.366 1.052-.366 2.453-.366 3.68 0 2.978.732 5.08 2.012 6.658l2.196-1.051z"/><use fill="#000" filter="url(#s)" xlink:href="#t"/><use fill="#FFF" xlink:href="#t"/><path d="M419.864 183.48h35.534v35.572h-35.534z"/><path fill="#888" fill-rule="nonzero" d="M433.51 210.3c8.382 0 12.965-6.95 12.965-12.978 0-.197 0-.394-.013-.59a9.276 9.276 0 0 0 2.273-2.36 9.087 9.087 0 0 1-2.617.717 4.576 4.576 0 0 0 2.004-2.523 9.125 9.125 0 0 1-2.894 1.107 4.557 4.557 0 0 0-5.474-.897 4.567 4.567 0 0 0-2.29 5.057 12.932 12.932 0 0 1-9.392-4.765 4.568 4.568 0 0 0 1.411 6.089 4.519 4.519 0 0 1-2.068-.571v.058a4.562 4.562 0 0 0 3.656 4.471c-.671.183-1.375.21-2.058.078a4.562 4.562 0 0 0 4.257 3.168 9.137 9.137 0 0 1-6.743 1.89 12.89 12.89 0 0 0 6.984 2.046"/><use fill="#000" filter="url(#u)" xlink:href="#v"/><use fill="#FFF" xlink:href="#v"/><path fill="#888" fill-rule="nonzero" d="M430.114 277.707c0 1.5-1.224 2.727-2.723 2.727a2.732 2.732 0 0 1-2.724-2.727c0-1.5 1.224-2.727 2.724-2.727h2.723v2.727zm1.373 0c0-1.5 1.225-2.727 2.724-2.727s2.724 1.226 2.724 2.727v6.828c0 1.5-1.225 2.726-2.724 2.726a2.732 2.732 0 0 1-2.724-2.726v-6.828zm2.724-10.95a2.732 2.732 0 0 1-2.724-2.726c0-1.501 1.225-2.727 2.724-2.727s2.724 1.226 2.724 2.727v2.726h-2.724zm0 1.374c1.499 0 2.724 1.226 2.724 2.727s-1.225 2.727-2.724 2.727h-6.82a2.732 2.732 0 0 1-2.724-2.727c0-1.5 1.224-2.727 2.724-2.727h6.82zm10.938 2.727c0-1.5 1.224-2.727 2.723-2.727 1.5 0 2.724 1.226 2.724 2.727s-1.224 2.727-2.724 2.727h-2.723v-2.727zm-1.373 0c0 1.501-1.225 2.727-2.724 2.727a2.732 2.732 0 0 1-2.724-2.727v-6.827c0-1.501 1.225-2.727 2.724-2.727 1.5 0 2.724 1.226 2.724 2.727v6.827zm-2.724 10.95c1.5 0 2.724 1.226 2.724 2.727 0 1.5-1.225 2.726-2.724 2.726a2.732 2.732 0 0 1-2.724-2.726v-2.727h2.724zm0-1.374a2.732 2.732 0 0 1-2.724-2.727c0-1.5 1.225-2.727 2.724-2.727h6.82c1.5 0 2.724 1.226 2.724 2.727 0 1.5-1.224 2.727-2.724 2.727h-6.82z"/><path fill="#2C2831" fill-rule="nonzero" d="M3.784 0h554.432A3.784 3.784 0 0 1 562 3.784v17.747H0V3.784A3.784 3.784 0 0 1 3.784 0z"/><path fill="#E1E1E2" fill-rule="nonzero" d="M0 363.214h562v14.002a3.784 3.784 0 0 1-3.784 3.784H3.784A3.784 3.784 0 0 1 0 377.216v-14.002zM33.664 0h111.278v21.531H33.664zM0 21.531h562v28.084H0z"/><use fill="#FFF" xlink:href="#w"/><rect width="10.286" height="10.297" x="41.145" y="29.956" fill="#BEBEBF" fill-rule="nonzero" rx="1.514"/><rect width="10.286" height="10.297" x="543.298" y="29.956" fill="#BEBEBF" fill-rule="nonzero" rx="1.514"/><rect width="50.496" height="7.489" x="57.977" y="7.489" fill="#BEBEBF" fill-rule="nonzero" rx="1.514"/><rect width="138.396" height="5.617" x="150.552" y="32.764" fill="#BBB" fill-rule="nonzero" rx=".757"/><rect width="14.027" height="14.042" x="41.145" y="4.681" fill="#BEBEBF" fill-rule="nonzero" rx="1.514"/><rect width="10.286" height="10.297" x="58.912" y="29.956" fill="#BEBEBF" fill-rule="nonzero" rx="1.514"/><rect width="10.286" height="10.297" x="76.679" y="29.956" fill="#BEBEBF" fill-rule="nonzero" rx="1.514"/><ellipse cx="21.975" cy="35.104" fill="#BEBEBF" rx="9.819" ry="9.829"/><path d="M8.41 42.05H562v.701H8.41z"/><path fill="#4A4A4A" d="M43.766 80.393l-.015-.084a4.77 4.77 0 0 1-.424.621c0-2.033-1.512-4.694-2.49-6.173-.329-.498-.598-.862-.728-1.023-.518-.64-.776-1.464-.776-1.464-.215.315-.34.672-.408.913-.048.17-.066.283-.066.283s-.164-.257-.646-.714a11.122 11.122 0 0 0-.648-.564c-.991-.804-1.314-1.979-1.314-1.979s-.523.516-1.022 1.382c-.137.237-.272.5-.395.787a5.976 5.976 0 0 0-.502 2.346c0 2.617 2.22 4.328 2.22 4.328s1.38.701 1.38 3.643c0 2.942-2.831 4.85-5.504 4.85-2.673 0-3.866-1.896-3.866-1.896 2.34.6 3.147.04 3.866-.413.719-.454 1.106-.37 1.552-.37.445 0 .474-.495-.216-1.086 0 0-.546-.454-1.336-.454s-1.38.44-2.185.44c0 0-1.31-.064-2.026-1.113-.73-1.07-.029-2.46 1.179-1.375 0 0 .33-.384.2-1.47 0 0 .101-.261.935-.577.833-.316 1.724-.66 1.724-1.622 0 0-.1-.343-1.652-.398-.684-.025-1.077-.462-1.304-.944 0-.002.475-1.295 1.818-2.027a.02.02 0 0 0-.005-.038c-.308-.072-1.953-.374-3.211 1.003 0 0-.417-.33-1.681-.33-.3 0-.626.028-.963.096a3.393 3.393 0 0 1-.621-.8 3.2 3.2 0 0 1-.416-1.556c0-.018-.023-.028-.037-.015-1.883 1.686-1.596 3.885-1.596 3.885-.8.848-1.511 2.106-1.98 3.941-.003.012.015.018.02.008.107-.191.403-.708.723-1.148 0 0-.764 1.146-.778 3.96 0 .012.019.015.021.003.056-.197.208-.734.33-1.174h.003l-.002.188c0 6.075 5.15 11 11.504 11 2.532 0 4.067-.531 4.978-1.08.117-.07.224-.141.321-.212.708-.51.909-.977.909-.977a9.224 9.224 0 0 0 1.694-.91c.417-.29.752-.587 1.021-.878.168-.183.31-.363.43-.539.364-.53.527-1.013.599-1.37.074-.372.05-.604.05-.604.26-.389.475-.784.652-1.179 1.055-2.352.76-4.656.684-5.12"/></g></svg>
