<svg width="49" height="53" viewBox="0 0 49 53" xmlns="http://www.w3.org/2000/svg"><g fill-rule="nonzero" fill="#E31587"><path d="M6.966 4.555h34.58a6.84 6.84 0 016.84 6.84v34.58a6.84 6.84 0 01-6.84 6.84H6.966a6.84 6.84 0 01-6.84-6.84v-34.58a6.84 6.84 0 016.84-6.84zm0 4.56a2.28 2.28 0 00-2.28 2.28v34.58a2.28 2.28 0 002.28 2.28h34.58a2.28 2.28 0 002.28-2.28v-34.58a2.28 2.28 0 00-2.28-2.28H6.966z"/><path d="M11.05 2.465v8.74a2.28 2.28 0 004.56 0v-8.74a2.28 2.28 0 00-4.56 0zM32.9 2.465v8.74a2.28 2.28 0 004.56 0v-8.74a2.28 2.28 0 00-4.56 0zM11.146 24.41h4.37a2.28 2.28 0 000-4.56h-4.37a2.28 2.28 0 000 4.56zM22.07 24.41h4.37a2.28 2.28 0 000-4.56h-4.37a2.28 2.28 0 000 4.56zM32.996 24.41h4.37a2.28 2.28 0 000-4.56h-4.37a2.28 2.28 0 000 4.56zM11.146 33.15h4.37a2.28 2.28 0 000-4.56h-4.37a2.28 2.28 0 000 4.56zM22.07 33.15h4.37a2.28 2.28 0 000-4.56h-4.37a2.28 2.28 0 000 4.56zM32.996 33.15h4.37a2.28 2.28 0 000-4.56h-4.37a2.28 2.28 0 000 4.56zM11.146 41.89h4.37a2.28 2.28 0 000-4.56h-4.37a2.28 2.28 0 000 4.56zM22.07 41.89h4.37a2.28 2.28 0 000-4.56h-4.37a2.28 2.28 0 000 4.56zM32.996 41.89h4.37a2.28 2.28 0 000-4.56h-4.37a2.28 2.28 0 000 4.56z"/></g></svg>
