<svg width="53" height="53" viewBox="0 0 53 53" xmlns="http://www.w3.org/2000/svg"><g fill-rule="nonzero" fill="#FC4055"><path d="M47.424 26.5l-6.511 6.512a1.939 1.939 0 002.741 2.742l7.883-7.883a1.939 1.939 0 000-2.742l-7.883-7.883a1.939 1.939 0 10-2.741 2.742l6.511 6.512zM5.611 26.5l6.512-6.512a1.939 1.939 0 10-2.742-2.742L1.5 25.13a1.939 1.939 0 000 2.742l7.882 7.883a1.939 1.939 0 002.742-2.742L5.611 26.5z"/><path d="M50.166 24.561H31.773a1.939 1.939 0 100 3.878h18.393a1.939 1.939 0 000-3.878zM2.87 28.439h18.393a1.939 1.939 0 000-3.878H2.869a1.939 1.939 0 000 3.878z"/><g><path d="M26.518 5.593l-6.512 6.512a1.939 1.939 0 01-2.742-2.742l7.883-7.882a1.939 1.939 0 012.742 0l7.883 7.882a1.939 1.939 0 11-2.742 2.742l-6.512-6.512zM26.518 47.407l6.512-6.512a1.939 1.939 0 112.742 2.742l-7.883 7.882a1.939 1.939 0 01-2.742 0l-7.883-7.882a1.939 1.939 0 112.742-2.742l6.512 6.512z"/><path d="M28.457 2.852v18.393a1.939 1.939 0 01-3.878 0V2.852a1.939 1.939 0 113.878 0zM24.58 50.148V31.755a1.939 1.939 0 013.877 0v18.393a1.939 1.939 0 11-3.878 0z"/></g></g></svg>
