<svg width="46" height="57" viewBox="0 0 46 57" xmlns="http://www.w3.org/2000/svg"><g fill="#20123a" fill-rule="evenodd"><path d="M41.26 42.807c-1.354 3.208-3.056 6.22-5.501 8.73-.807.851-1.746 1.55-2.948 1.834-.85.219-1.702.11-2.53-.108-1.572-.437-3.079-1.093-4.673-1.441-1.309-.284-2.618-.393-3.95-.088-1.462.306-2.837.808-4.212 1.354-2.248.872-4.17.327-5.872-1.289-1.44-1.353-2.554-2.968-3.558-4.67A33.87 33.87 0 015.07 40.82c-.852-2.402-1.354-4.869-1.463-7.4a21.575 21.575 0 01.372-4.89c.327-1.745.916-3.382 1.877-4.889.742-1.178 1.593-2.291 2.706-3.143.349-.153.633-.371.917-.61 1.07-.634 2.248-.961 3.47-1.07 1.681-.132 3.297.13 4.933.545 1.398.371 2.773.764 4.19 1.026.918.153 1.77.065 2.664-.11 1.506-.305 2.947-.872 4.453-1.266 1.877-.502 3.777-.698 5.675-.195 1.877.502 3.47 1.505 4.78 2.946.175.197.13.327-.043.48-.764.72-1.507 1.441-2.162 2.292-.939 1.223-1.55 2.62-1.941 4.126-.459 1.768-.459 3.536-.132 5.325.436 2.423 1.55 4.54 3.253 6.33.741.787 1.55 1.485 2.488 2.03.153.11.24.24.153.459m2.029-2.074c-.807-.35-1.57-.764-2.226-1.375-1.856-1.724-3.1-3.798-3.405-6.352-.131-1.2-.131-2.423.153-3.623a8.668 8.668 0 012.29-4.17c.743-.741 1.508-1.462 2.25-2.203.458-.459.545-1.136.153-1.638-.83-1.048-1.747-2.03-2.838-2.837a12.032 12.032 0 00-4.54-2.118c-1.178-.262-2.358-.415-3.58-.305-2.03.196-3.972.764-5.893 1.418-1.528.502-3.013.655-4.584.197-1.811-.545-3.645-1.048-5.544-1.266-1.943-.218-3.82-.088-5.653.61-2.292.875-4.06 2.359-5.479 4.345a16.296 16.296 0 00-2.358 4.78c-.61 1.987-.895 4.038-.895 5.152-.087 2.946.198 4.91.612 6.853a30.241 30.241 0 001.331 4.343c1.288 3.384 2.969 6.527 5.26 9.321 1.223 1.484 2.62 2.772 4.389 3.558 1.134.502 2.314.699 3.514.502 1.266-.196 2.487-.655 3.689-1.114.763-.282 1.527-.546 2.335-.676 1.288-.218 2.51.022 3.732.394 1.288.391 2.532.85 3.82 1.2 1.943.523 3.732.284 5.435-.764 2.118-1.31 3.689-3.166 5.064-5.196 1.528-2.291 2.816-4.714 3.646-7.355.26-.743.02-1.397-.678-1.68"/><path d="M31.454 15.098c1.234-.11 2.464.008 3.907.33 1.818.43 3.47 1.197 4.91 2.289 1.083.8 2.05 1.784 3.036 3.029.712.913.582 2.163-.237 2.984-.314.313-.566.56-1.135 1.112-.561.545-.809.787-1.106 1.084a7.654 7.654 0 00-2.028 3.691c-.232.982-.266 2.049-.132 3.268.262 2.187 1.297 4.065 3.089 5.729.492.46 1.093.82 1.926 1.181 1.204.497 1.68 1.714 1.254 2.924-.808 2.57-2.058 5.048-3.774 7.62-1.673 2.47-3.323 4.224-5.374 5.493-1.934 1.19-4.01 1.478-6.235.879-.58-.158-1.139-.33-1.96-.6l-.458-.15a62.276 62.276 0 00-1.43-.459c-1.324-.402-2.303-.527-3.274-.362-.616.1-1.205.278-2.135.622-1.814.693-2.741.99-3.888 1.168-1.37.224-2.746.019-4.092-.577-1.781-.792-3.288-2.055-4.762-3.843-2.257-2.752-4.025-5.926-5.423-9.6a31.18 31.18 0 01-1.376-4.496c-.512-2.4-.714-4.388-.635-7.066 0-1.378.356-3.552.94-5.449a17.312 17.312 0 012.503-5.075c1.582-2.216 3.531-3.783 5.944-4.704 1.9-.723 3.905-.92 6.132-.67 1.72.197 3.34.585 5.713 1.3 1.262.368 2.512.296 3.97-.183 2.422-.825 4.241-1.286 6.13-1.469zm3.451 2.313c-1.24-.276-2.269-.375-3.261-.286-1.696.164-3.378.59-5.674 1.372-1.835.603-3.499.7-5.194.204-2.275-.684-3.795-1.049-5.365-1.229-1.918-.215-3.601-.05-5.177.55-2.024.773-3.655 2.085-5.013 3.986a15.283 15.283 0 00-2.213 4.487c-.527 1.714-.85 3.687-.85 4.883-.076 2.537.11 4.364.588 6.604.3 1.36.726 2.738 1.288 4.2 1.325 3.482 2.986 6.465 5.095 9.036 1.287 1.561 2.559 2.627 4.014 3.274.996.44 1.974.586 2.947.427.968-.15 1.799-.416 3.49-1.062 1.055-.39 1.75-.601 2.52-.726 1.329-.225 2.6-.062 4.199.424.421.128.781.244 1.475.473l.455.15c.79.258 1.32.422 1.858.568 1.685.454 3.184.246 4.634-.647 1.77-1.094 3.232-2.649 4.753-4.895 1.612-2.416 2.777-4.725 3.533-7.128.091-.26.063-.333-.101-.4l-.022-.009c-1.033-.447-1.826-.922-2.513-1.563-2.127-1.976-3.401-4.286-3.724-6.987-.159-1.444-.118-2.737.172-3.965a9.695 9.695 0 012.564-4.659c.314-.313.566-.56 1.135-1.112.561-.545.809-.787 1.113-1.09.116-.117.127-.22.075-.287-.878-1.109-1.723-1.968-2.655-2.658a10.997 10.997 0 00-4.146-1.935zm.222.425c2.045.546 3.814 1.642 5.278 3.253.565.635.455 1.403-.106 1.897-.987.93-1.534 1.497-2.052 2.17-.808 1.052-1.383 2.296-1.764 3.762-.402 1.55-.432 3.156-.115 4.89.395 2.196 1.4 4.139 2.992 5.812.74.786 1.471 1.39 2.34 1.901.528.38.776.987.505 1.664l-.007.017c-1.56 3.697-3.362 6.636-5.7 9.037-1.043 1.098-2.142 1.814-3.433 2.117-.959.247-1.924.185-3.057-.113-.57-.158-1.015-.303-1.994-.638l-.047-.016c-1.266-.433-1.86-.616-2.574-.772-1.342-.291-2.45-.333-3.527-.086-1.209.252-2.371.638-4.052 1.306-2.555.99-4.897.44-6.938-1.496-1.377-1.295-2.523-2.837-3.733-4.89a34.868 34.868 0 01-3.032-6.49c-.897-2.53-1.408-5.096-1.52-7.699-.069-1.695.063-3.409.387-5.118C3.343 26.398 4 24.659 4.994 23.1c.924-1.466 1.836-2.558 2.95-3.41l.097-.073.112-.05c.197-.086.382-.214.67-.456l.137-.098c1.16-.688 2.468-1.08 3.91-1.209 1.65-.13 3.284.072 5.273.576l.597.16c.519.14.613.164.837.224 1.105.293 1.893.48 2.663.622.69.115 1.37.077 2.294-.103.607-.123 1.204-.288 2.11-.57.125-.038.23-.071.464-.145.873-.273 1.3-.402 1.818-.537 2.263-.605 4.264-.709 6.201-.195zm-5.68 2.163c-.482.126-.888.248-1.73.512l-.47.147c-.965.3-1.619.48-2.316.621-1.15.225-2.061.276-3.043.112-.849-.157-1.681-.354-2.833-.66a199.699 199.699 0 01-1.423-.38c-1.78-.451-3.205-.627-4.592-.518-1.112.099-2.104.39-2.974.891-.349.29-.636.49-.971.65-.857.676-1.599 1.574-2.381 2.815-.852 1.336-1.416 2.83-1.735 4.532a20.548 20.548 0 00-.355 4.657c.103 2.393.575 4.76 1.408 7.11a32.869 32.869 0 002.861 6.123c1.124 1.907 2.162 3.303 3.381 4.45 1.493 1.416 3.012 1.773 4.796 1.08 1.773-.703 3.033-1.122 4.36-1.399 1.383-.317 2.782-.264 4.396.085.816.179 1.46.378 2.8.836l.047.016c.941.322 1.36.458 1.866.6.812.213 1.446.253 2.04.1.88-.207 1.651-.71 2.45-1.551 2.045-2.099 3.658-4.668 5.073-7.905-.779-.515-1.505-1.144-2.22-1.903-1.86-1.954-3.051-4.259-3.517-6.849-.368-2.01-.332-3.914.148-5.764.446-1.718 1.136-3.21 2.12-4.491.501-.65 1.006-1.197 1.787-1.95a8.672 8.672 0 00-3.816-2.163c-1.552-.411-3.206-.326-5.157.196z" fill-rule="nonzero"/><path d="M23.04 20.469c.568 0 1.122-.076 1.696-.188 1.506-.305 2.946-.873 4.453-1.266 1.116-.299 2.24-.49 3.366-.49.768 0 1.538.09 2.31.294 1.877.502 3.47 1.505 4.78 2.946.174.196.13.327-.044.48-.764.72-1.506 1.441-2.161 2.293-.939 1.221-1.55 2.619-1.943 4.125-.458 1.767-.458 3.535-.131 5.326.437 2.422 1.55 4.54 3.253 6.329.742.786 1.55 1.485 2.487 2.03.154.11.241.24.154.458-1.354 3.21-3.056 6.221-5.5 8.732-.809.85-1.748 1.55-2.948 1.832-.325.084-.65.12-.973.12a6.139 6.139 0 01-1.558-.228c-1.572-.437-3.078-1.092-4.672-1.44-.76-.165-1.52-.272-2.285-.272-.552 0-1.107.056-1.665.184-1.462.306-2.837.807-4.213 1.354-.72.28-1.407.413-2.063.413-1.394 0-2.652-.603-3.809-1.702-1.44-1.353-2.553-2.968-3.557-4.67A33.85 33.85 0 015.07 40.82c-.852-2.402-1.354-4.868-1.463-7.4a21.631 21.631 0 01.371-4.89c.327-1.745.917-3.382 1.877-4.89.743-1.178 1.594-2.29 2.707-3.142.35-.153.633-.371.916-.61 1.07-.634 2.249-.961 3.471-1.07.296-.024.59-.035.883-.035 1.368 0 2.702.238 4.05.58 1.397.371 2.772.764 4.191 1.026.33.055.65.079.968.079m9.316-4.393c-.269 0-.539.011-.81.036-2.03.196-3.973.764-5.894 1.418-.9.297-1.784.47-2.68.47a6.732 6.732 0 01-1.903-.274c-1.812-.545-3.646-1.046-5.545-1.265a15.023 15.023 0 00-1.655-.097c-1.36 0-2.69.21-3.999.708-2.291.873-4.059 2.358-5.478 4.343a16.263 16.263 0 00-2.357 4.781c-.611 1.986-.895 4.038-.895 5.152-.087 2.946.196 4.91.61 6.853a30.172 30.172 0 001.333 4.344c1.287 3.383 2.968 6.527 5.26 9.32 1.222 1.485 2.62 2.772 4.387 3.558.843.372 1.71.577 2.592.577.306 0 .613-.025.922-.075 1.266-.196 2.49-.655 3.69-1.114.763-.283 1.528-.545 2.335-.676a6.022 6.022 0 011.003-.083c.927 0 1.827.202 2.729.476 1.289.393 2.532.85 3.82 1.2a7.386 7.386 0 001.928.268c1.22 0 2.382-.34 3.507-1.032 2.117-1.309 3.689-3.165 5.064-5.195 1.528-2.291 2.815-4.714 3.645-7.355.263-.743.022-1.397-.676-1.68-.809-.35-1.572-.765-2.227-1.376-1.856-1.724-3.1-3.798-3.405-6.351-.13-1.201-.13-2.424.153-3.624a8.657 8.657 0 012.292-4.169c.741-.742 1.506-1.463 2.249-2.205.456-.458.544-1.135.152-1.637-.83-1.048-1.746-2.03-2.838-2.837a12.025 12.025 0 00-4.54-2.118c-.915-.203-1.832-.34-2.769-.34"/><path d="M32.357 15.059c.948 0 1.907.124 3.004.368 1.818.43 3.47 1.197 4.91 2.29 1.082.8 2.047 1.782 3.035 3.029.712.912.583 2.162-.235 2.984-.307.306-.554.548-1.109 1.086-.575.558-.829.807-1.133 1.111a7.643 7.643 0 00-2.027 3.69c-.232.981-.266 2.048-.133 3.269.261 2.186 1.297 4.064 3.088 5.728.495.461 1.099.823 1.916 1.176 1.213.493 1.694 1.716 1.264 2.929-.807 2.57-2.057 5.047-3.774 7.62-1.673 2.472-3.323 4.225-5.373 5.492-1.279.788-2.624 1.183-4.04 1.183a8.404 8.404 0 01-2.194-.303 38.433 38.433 0 01-1.96-.599 281.13 281.13 0 01-.477-.157 63.222 63.222 0 00-1.413-.453c-.959-.291-1.713-.432-2.433-.432-.284 0-.56.022-.84.07-.617.1-1.21.28-2.135.622-1.808.69-2.741.99-3.89 1.168a6.78 6.78 0 01-1.085.087c-1.01 0-2.015-.226-3.005-.664-1.781-.791-3.29-2.056-4.76-3.842-2.258-2.75-4.025-5.924-5.424-9.6a31.113 31.113 0 01-1.378-4.497c-.51-2.397-.713-4.387-.633-7.066 0-1.379.356-3.552.939-5.447a17.279 17.279 0 012.503-5.077c1.584-2.217 3.532-3.784 5.944-4.703 1.382-.526 2.825-.775 4.36-.775.571 0 1.158.035 1.773.103 1.72.199 3.345.588 5.713 1.3a5.714 5.714 0 001.618.234c.742 0 1.513-.14 2.352-.416 2.423-.825 4.24-1.286 6.13-1.469.295-.027.595-.04.902-.04zm0 2.035c-.247 0-.486.01-.713.031-1.696.164-3.376.59-5.672 1.372-1.044.344-2.026.521-2.999.521a7.763 7.763 0 01-2.197-.317c-2.27-.683-3.794-1.048-5.363-1.229-.538-.06-1.05-.09-1.543-.09-1.296 0-2.494.207-3.636.642-2.024.77-3.654 2.082-5.014 3.984a15.251 15.251 0 00-2.211 4.488c-.527 1.712-.85 3.686-.85 4.882-.076 2.539.11 4.367.587 6.604.3 1.36.727 2.74 1.289 4.201 1.326 3.484 2.987 6.466 5.095 9.035 1.284 1.56 2.557 2.627 4.013 3.274.737.326 1.464.49 2.18.49.253 0 .506-.02.766-.063.97-.15 1.805-.418 3.492-1.062 1.05-.389 1.748-.6 2.52-.726a7.037 7.037 0 011.172-.097c.952 0 1.89.176 3.026.52.417.128.775.243 1.457.468l.473.155c.788.258 1.32.423 1.859.569a6.371 6.371 0 001.662.232c1.032 0 2.01-.287 2.971-.88 1.768-1.092 3.23-2.646 4.753-4.894 1.612-2.417 2.777-4.725 3.533-7.13.091-.26.063-.331-.121-.407-1.034-.447-1.828-.922-2.516-1.563-2.127-1.976-3.4-4.286-3.724-6.987-.157-1.446-.116-2.738.174-3.965a9.682 9.682 0 012.562-4.657c.321-.32.58-.574 1.16-1.137.55-.534.793-.771 1.088-1.067.117-.117.128-.22.076-.287-.88-1.111-1.724-1.97-2.655-2.658a10.99 10.99 0 00-4.146-1.935c-.948-.21-1.764-.317-2.548-.317zm.198.414a9.99 9.99 0 012.573.327c2.045.547 3.813 1.643 5.28 3.255.562.637.452 1.405-.11 1.896-.982.926-1.531 1.496-2.05 2.172-.807 1.05-1.383 2.294-1.765 3.76-.403 1.55-.432 3.156-.116 4.89.397 2.196 1.401 4.14 2.992 5.811.744.788 1.473 1.392 2.341 1.902.528.379.776.987.497 1.681-1.559 3.696-3.361 6.636-5.7 9.037-1.043 1.098-2.141 1.813-3.432 2.117-.4.103-.808.152-1.226.152-.581 0-1.167-.09-1.83-.265-.57-.159-1.017-.304-1.995-.638l-.067-.023c-1.246-.426-1.844-.61-2.554-.766-.758-.164-1.431-.248-2.07-.248a6.46 6.46 0 00-1.456.163c-1.209.252-2.37.637-4.053 1.305-.826.321-1.637.483-2.43.483-1.64 0-3.144-.684-4.507-1.978-1.377-1.294-2.52-2.833-3.734-4.89a34.848 34.848 0 01-3.033-6.49c-.897-2.53-1.408-5.096-1.52-7.699a22.64 22.64 0 01.388-5.118c.365-1.946 1.022-3.685 2.016-5.245.922-1.463 1.836-2.556 2.95-3.408l.097-.075.113-.05c.196-.085.379-.212.668-.456l.138-.098c1.16-.687 2.467-1.08 3.908-1.208.317-.025.639-.038.964-.038 1.347 0 2.704.206 4.312.614l.597.16.774.207c1.143.304 1.94.494 2.726.64.262.043.526.064.8.064.447 0 .917-.055 1.493-.168.606-.123 1.202-.287 2.11-.569l.456-.143a36.066 36.066 0 011.826-.54c1.284-.343 2.473-.523 3.629-.523zm0 2.036c-.963 0-1.98.154-3.11.456-.483.126-.89.248-1.736.514l-.461.144c-.968.3-1.62.48-2.317.622-.701.137-1.296.206-1.89.206-.384 0-.76-.03-1.153-.095-.865-.16-1.707-.36-2.896-.676a215.554 215.554 0 01-1.36-.365c-1.446-.366-2.643-.548-3.8-.548-.272 0-.54.01-.792.03-1.112.1-2.104.391-2.974.892-.35.29-.636.49-.972.65-.856.677-1.6 1.576-2.38 2.815-.852 1.336-1.417 2.83-1.735 4.531a20.604 20.604 0 00-.355 4.657c.103 2.395.574 4.761 1.407 7.11a32.848 32.848 0 002.863 6.125c1.126 1.91 2.162 3.303 3.381 4.449 1.01.959 2.028 1.422 3.108 1.422.534 0 1.096-.112 1.687-.342 1.776-.704 3.034-1.122 4.362-1.399a8.44 8.44 0 011.892-.21c.795 0 1.61.102 2.503.295.81.178 1.461.378 2.778.829l.068.023c.94.321 1.36.458 1.867.599.493.13.912.194 1.299.194.251 0 .49-.028.74-.092.88-.208 1.651-.71 2.451-1.552 2.047-2.102 3.662-4.676 5.072-7.905-.778-.514-1.503-1.143-2.22-1.904-1.86-1.952-3.05-4.256-3.518-6.847-.367-2.012-.332-3.915.148-5.766.449-1.719 1.138-3.21 2.121-4.489.501-.651 1.008-1.2 1.787-1.952a8.671 8.671 0 00-3.816-2.162 7.954 7.954 0 00-2.05-.26z" fill-rule="nonzero"/><path d="M23.58 12.27c.24-1.724.807-3.34 1.746-4.802 1.112-1.767 2.75-2.815 4.67-3.492.415-.153.438-.132.415.437-.087 2.313-1.07 4.212-2.62 5.871-.785.85-1.614 1.637-2.727 2.03a6.78 6.78 0 01-1.158.283c-.283.022-.37-.086-.327-.327m-1.07 2.925c.219-.022.46-.043.678-.065 1.55-.132 3.012-.459 4.321-1.376a13.676 13.676 0 002.598-2.423c.939-1.134 1.723-2.379 2.205-3.775.348-1.005.457-2.074.567-3.122.065-.633.065-1.244.108-1.877.067-.982-.61-1.768-1.702-1.506-1.09.261-2.16.59-3.186 1.07-1.55.72-2.969 1.637-4.06 2.99-1.965 2.422-2.816 5.26-2.99 8.338v.502c0 .873.589 1.375 1.462 1.244"/><path d="M31.047.061c1.738-.417 3.07.866 2.955 2.565-.014.199-.021.358-.037.725l-.009.21c-.017.4-.035.683-.065.979l-.002.013c-.043.414-.06.57-.086.789-.122 1.034-.271 1.8-.53 2.545-.494 1.435-1.293 2.776-2.385 4.096a14.698 14.698 0 01-2.796 2.605c-1.35.946-2.859 1.39-4.805 1.555a66.39 66.39 0 01-.654.063c-1.472.206-2.603-.767-2.603-2.255l.001-.56c.199-3.497 1.215-6.455 3.215-8.92 1.11-1.377 2.553-2.405 4.42-3.272 1.012-.474 2.098-.83 3.38-1.138zm.924 2.427c.026-.39-.115-.527-.45-.447-1.16.278-2.118.592-2.994 1.003-1.61.747-2.804 1.599-3.698 2.707-1.713 2.112-2.59 4.662-2.764 7.698v.502c0 .248.034.276.294.237l.05-.006a66.389 66.389 0 01.691-.066c1.634-.139 2.81-.485 3.818-1.191a12.647 12.647 0 002.404-2.243c.943-1.14 1.618-2.273 2.027-3.46.202-.582.326-1.218.432-2.12.025-.207.041-.357.084-.762v-.01c.026-.246.042-.494.058-.858l.008-.205c.016-.386.025-.557.04-.78zm-.866.734c.234.245.304.492.325.792.008.12.006.234-.002.437-.092 2.454-1.083 4.591-2.888 6.524-1.114 1.205-1.98 1.89-3.135 2.298a7.763 7.763 0 01-1.421.34c-.92.07-1.56-.595-1.41-1.499.265-1.894.895-3.637 1.89-5.188 1.171-1.86 2.894-3.1 5.18-3.905.182-.067.284-.1.418-.124.364-.064.736.002 1.043.325zM29.292 5.36c-1.36.638-2.377 1.494-3.11 2.658a10.556 10.556 0 00-1.394 3.313c.744-.277 1.374-.782 2.26-1.742 1.233-1.32 1.98-2.698 2.244-4.229z" fill-rule="nonzero"/><path d="M23.84 12.6c-.23 0-.301-.11-.261-.33.24-1.724.808-3.34 1.747-4.802 1.113-1.768 2.75-2.816 4.671-3.493.134-.049.228-.08.291-.08.133 0 .138.134.123.517-.087 2.314-1.069 4.213-2.62 5.872-.784.851-1.614 1.637-2.727 2.03-.371.13-.764.218-1.158.284a.771.771 0 01-.066.002M31.694 1c-.13 0-.265.016-.41.05-1.09.263-2.16.59-3.186 1.071-1.55.72-2.97 1.636-4.06 2.99-1.965 2.423-2.816 5.26-2.99 8.338v.502c0 .78.47 1.265 1.195 1.265.085 0 .174-.007.267-.02l.676-.066c1.55-.131 3.012-.46 4.322-1.376a13.647 13.647 0 002.597-2.422c.94-1.136 1.725-2.38 2.205-3.777.349-1.004.459-2.073.568-3.121.066-.633.066-1.244.109-1.877C33.044 1.705 32.541 1 31.694 1"/><path d="M31.694-.018c1.449 0 2.405 1.204 2.308 2.644-.013.197-.02.355-.036.719l-.008.195c-.018.414-.036.7-.068 1-.042.405-.06.57-.086.793-.122 1.036-.272 1.807-.531 2.553-.493 1.434-1.29 2.773-2.385 4.097a14.67 14.67 0 01-2.797 2.605c-1.35.946-2.862 1.39-4.804 1.554l-.34.034-.288.026c-.141.021-.28.032-.416.032-1.303 0-2.214-.956-2.214-2.283l.002-.56c.198-3.495 1.215-6.454 3.214-8.92 1.11-1.376 2.552-2.403 4.42-3.271C28.674.726 29.755.37 31.05.06a2.79 2.79 0 01.644-.078zm0 2.035a.76.76 0 00-.172.023c-1.167.28-2.123.595-2.995 1.004-1.611.749-2.805 1.6-3.699 2.708-1.712 2.112-2.59 4.662-2.763 7.697v.502c0 .224.022.247.178.247.034 0 .074-.003.167-.016l.34-.033.35-.034c1.63-.137 2.81-.484 3.818-1.19a12.619 12.619 0 002.403-2.242c.946-1.144 1.62-2.276 2.028-3.462.203-.583.327-1.224.433-2.126.025-.21.042-.37.084-.766.026-.251.042-.501.058-.878l.008-.192c.016-.381.024-.55.04-.77.022-.332-.09-.472-.278-.472zm-1.406.86c.595 0 1.013.411 1.116.937.035.183.036.317.024.636-.092 2.455-1.082 4.592-2.888 6.523-1.107 1.202-1.979 1.891-3.138 2.3a7.94 7.94 0 01-1.408.339c-.076.005-.076.005-.154.006-.885 0-1.414-.701-1.269-1.488.265-1.902.896-3.65 1.894-5.204 1.17-1.86 2.893-3.1 5.181-3.906.29-.107.415-.143.642-.143zm-.996 2.483c-1.36.637-2.376 1.493-3.11 2.658a10.556 10.556 0 00-1.392 3.312c.745-.278 1.377-.786 2.258-1.742 1.234-1.32 1.98-2.698 2.244-4.228z" fill-rule="nonzero"/></g></svg>
