<svg width="52" height="51" viewBox="0 0 52 51" xmlns="http://www.w3.org/2000/svg"><g fill-rule="nonzero" fill="#E31587"><path d="M38.726 47.365a5.333 5.333 0 01-10.119 0l-1.973-5.92h-18.3a8 8 0 01-8-8V8.11A7.778 7.778 0 018.11.333H43.89a7.778 7.778 0 017.778 7.778v25.333a8 8 0 01-8 8H40.7l-1.974 5.92zm.052-11.254h4.889a2.667 2.667 0 002.666-2.667V8.111a2.444 2.444 0 00-2.444-2.444H8.11A2.444 2.444 0 005.667 8.11v25.333a2.667 2.667 0 002.666 2.667h20.223c1.147 0 2.166.735 2.53 1.824l2.58 7.743 2.582-7.743a2.667 2.667 0 012.53-1.824z"/><path d="M13.222 18.444h25.556a2.667 2.667 0 100-5.333H13.222a2.667 2.667 0 000 5.333zM13.222 28.667h25.556a2.667 2.667 0 000-5.334H13.222a2.667 2.667 0 000 5.334z"/></g></svg>
