<svg width="45" height="52" viewBox="0 0 45 52" xmlns="http://www.w3.org/2000/svg"><g fill-rule="nonzero" fill="#FC4055"><path d="M7.68 4.44h29.68a6.72 6.72 0 016.72 6.72v33.973a6.72 6.72 0 01-6.72 6.72H7.68a6.72 6.72 0 01-6.72-6.72V11.16a6.72 6.72 0 016.72-6.72zm0 4.48a2.24 2.24 0 00-2.24 2.24v33.973a2.24 2.24 0 002.24 2.24h29.68a2.24 2.24 0 002.24-2.24V11.16a2.24 2.24 0 00-2.24-2.24H7.68z"/><path d="M11.787 23.947h21.466a2.24 2.24 0 100-4.48H11.787a2.24 2.24 0 000 4.48zM11.787 32.533h21.466a2.24 2.24 0 100-4.48H11.787a2.24 2.24 0 100 4.48zM11.787 41.12h8.586a2.24 2.24 0 100-4.48h-8.586a2.24 2.24 0 000 4.48zM16.173 10.973V2.387a2.24 2.24 0 10-4.48 0v8.586a2.24 2.24 0 004.48 0zM33.347 10.973V2.387a2.24 2.24 0 00-4.48 0v8.586a2.24 2.24 0 104.48 0z"/></g></svg>
