<svg width="52" height="52" viewBox="0 0 52 52" xmlns="http://www.w3.org/2000/svg"><g fill-rule="nonzero" fill="#9059FF"><path d="M24.911.489L1.578 12.156c-1.795.897-1.795 3.458 0 4.355L24.91 28.178a2.435 2.435 0 002.178 0L50.422 16.51c1.795-.897 1.795-3.458 0-4.355L27.09.489a2.435 2.435 0 00-2.178 0zM26 5.389l17.889 8.944L26 23.278 8.111 14.333 26 5.39zM3.756 35.489a2.435 2.435 0 00-2.178 4.355L24.91 51.511a2.435 2.435 0 002.178 0l23.333-11.667a2.435 2.435 0 00-2.178-4.355L26 46.61 3.756 35.49z"/><path d="M3.756 23.822a2.435 2.435 0 10-2.178 4.356L24.91 39.844a2.435 2.435 0 002.178 0l23.333-11.666a2.435 2.435 0 00-2.178-4.356L26 34.944 3.756 23.822z"/></g></svg>
