<svg width="56" height="58" viewBox="0 0 56 58" xmlns="http://www.w3.org/2000/svg"><g fill="none" fill-rule="evenodd"><g fill="#20123a"><path d="M18.495 30.008H2.921c-1.06 0-1.92.875-1.92 1.963v12.753c0 .945.659 1.704 1.532 1.89l15.102 3.024.989.171c1.003-.043 1.82-.916 1.82-1.934V31.971a1.954 1.954 0 00-1.949-1.963M18.18 32.3v15.115l-.114-.013-14.802-2.981V32.301H18.18M49.487 30.008h-24.1c-1.06 0-1.92.875-1.92 1.963V49.265c0 .787.473 1.447 1.132 1.748l.029.029.76.157h.042l23.599 4.714c.028.015.07.043.1.043.014 0 .028 0 .043-.013.1.056.2.056.3.056 1.06 0 1.95-.86 1.95-1.934V31.97a1.934 1.934 0 00-1.935-1.963m-.315 2.293v21.09l-.302.158-22.981-4.585-.144-.028v-16.62h23.427M49.487.965c-.1 0-.2 0-.301.058-.014-.015-.029-.015-.043-.015a.152.152 0 00-.1.043l-23.613 4.7h-.043l-.73.157s-.03 0-.058.028a1.963 1.963 0 00-1.132 1.777V24.98c0 1.088.86 1.963 1.92 1.963h24.1c1.06 0 1.948-.875 1.948-1.963V2.9c0-1.06-.888-1.934-1.948-1.934m-.63 2.45l.3.158v21.09H25.731V8.044l.143-.029 22.983-4.6M18.624 7.126l-.988.172-15.102 3.038A1.924 1.924 0 001 12.226V24.98c0 1.089.86 1.963 1.92 1.963h15.588c1.06 0 1.95-.874 1.95-1.963V9.06c-.015-1.017-.818-1.877-1.835-1.934m-.444 2.422v15.115H3.265v-12.12l14.8-2.98.115-.015"/><path d="M18.495 30.008H2.921c-1.06 0-1.92.875-1.92 1.963v12.753c0 .945.659 1.704 1.532 1.89l15.102 3.024.989.171c1.003-.043 1.82-.916 1.82-1.934V31.971a1.954 1.954 0 00-1.949-1.963M18.18 32.3v15.115l-.114-.013-14.802-2.981V32.301H18.18"/><path d="M18.495 29.025a2.937 2.937 0 012.932 2.946v15.904c0 1.542-1.23 2.85-2.76 2.916l-.21-.013-1.015-.176L2.33 47.575a2.905 2.905 0 01-2.312-2.851V31.97c0-1.625 1.294-2.946 2.904-2.946h15.574zM2.921 30.991c-.515 0-.938.431-.938.98v12.753c0 .458.312.834.743.926l15.077 3.02.863.15c.435-.066.795-.478.795-.945V31.971a.971.971 0 00-.966-.98H2.921zm16.242.327v17.207l-1.1-.133-.191-.026-15.59-3.14V31.319h16.88zm-1.966 1.965H4.247v10.335l12.95 2.61V33.283z" fill-rule="nonzero"/><path d="M49.487 30.008h-24.1c-1.06 0-1.92.875-1.92 1.963V49.265c0 .787.473 1.447 1.132 1.748l.029.029.76.157h.042l23.599 4.714c.028.015.07.043.1.043.014 0 .028 0 .043-.013.1.056.2.056.3.056 1.06 0 1.95-.86 1.95-1.934V31.97a1.934 1.934 0 00-1.935-1.963m-.315 2.293v21.09l-.302.158-22.981-4.585-.144-.028v-16.62h23.427"/><path d="M25.387 29.025h24.1a2.915 2.915 0 012.915 2.773l.003.173v22.094c0 1.613-1.326 2.917-2.933 2.917a1.793 1.793 0 01-.445-.048.948.948 0 01-.22-.044l-.098-.038-23.434-4.682-.087-.009-1.047-.216-.124-.124a2.902 2.902 0 01-1.526-2.365l-.007-.191V31.971c0-1.567 1.203-2.851 2.732-2.94l.171-.006h24.1-24.1zm24.1 1.966h-24.1c-.477 0-.876.372-.93.865l-.007.115v17.294c0 .326.17.62.441.791l.107.059.544.112.08.008 23.271 4.65.159-.138.475.268a.97.97 0 00.905-.836l.007-.114V31.959a.951.951 0 00-.952-.968zm-1.298 1.317l.983.007-.983-.007zm.529 20.212l-.302.157.373.715h.113l.075-.375-.259-.497zm-.529-19.222H26.728V48.13l21.461 4.28V33.299zm.983-.99h.983v21.68l-1.137.592-.34-.067-22.98-4.585-.936-.185v-18.41h24.41v.975z" fill-rule="nonzero"/><path d="M49.487.965c-.1 0-.2 0-.301.058-.014-.015-.029-.015-.043-.015a.152.152 0 00-.1.043l-23.613 4.7h-.043l-.73.157s-.03 0-.058.028a1.963 1.963 0 00-1.132 1.777V24.98c0 1.088.86 1.963 1.92 1.963h24.1c1.06 0 1.948-.875 1.948-1.963V2.9c0-1.06-.888-1.934-1.948-1.934m-.63 2.45l.3.158v21.09H25.731V8.044l.143-.029 22.983-4.6"/><path d="M49.487-.018c1.603 0 2.931 1.315 2.931 2.917v22.08a2.946 2.946 0 01-2.931 2.946h-24.1c-1.609 0-2.903-1.32-2.903-2.946V7.713c0-1.117.637-2.132 1.606-2.622.13-.084.268-.132.405-.154l.686-.147.09-.01L48.7.117a1.13 1.13 0 01.34-.087 1.762 1.762 0 01.445-.048zM49 2.265l-.16-.172-23.22 4.622-.076.007-.565.122a.982.982 0 00-.53.87v17.265c0 .549.423.98.937.98h24.1a.98.98 0 00.966-.98V2.9c0-.493-.41-.918-.906-.95L49 2.265zm.005.118l1.134.597v22.667H24.75V7.243l.783-.162.15-.03 23.324-4.668zm-.831 2.17l-21.46 4.295v14.833h21.46V4.553zm.713-.98h-.115l-.374.711.3.159.264-.5-.075-.37zm.68-1.65a.534.534 0 01-.091.022c-.02.003-.019.002.01.002a.93.93 0 01.056.002l.025-.026z" fill-rule="nonzero"/><path d="M18.624 7.126l-.988.172-15.102 3.038A1.924 1.924 0 001 12.226V24.98c0 1.089.86 1.963 1.92 1.963h15.588c1.06 0 1.95-.874 1.95-1.963V9.06c-.015-1.017-.818-1.877-1.835-1.934m-.444 2.422v15.115H3.265v-12.12l14.8-2.98.115-.015"/><path d="M18.567 6.139l.112.006c1.532.086 2.741 1.367 2.762 2.915V24.98a2.946 2.946 0 01-2.932 2.946H2.921c-1.61 0-2.903-1.32-2.903-2.946V12.227A2.91 2.91 0 012.34 9.372L17.467 6.33l1.1-.191zm-.738 2.123L2.738 11.297a.941.941 0 00-.755.93v12.752c0 .549.423.98.938.98h15.588a.981.981 0 00.966-.98V9.073a.987.987 0 00-.814-.956l-.832.145zm1.334.169v17.215H2.282V11.737l.789-.158 14.87-2.991 1.222-.157zm-1.966 2.309l-12.95 2.607V23.68h12.95V10.74z" fill-rule="nonzero"/></g><path fill="#FFF" d="M33.607 42.732H56V58H33.607z"/><text font-family="Helvetica" font-size="14" fill="#20123a" transform="translate(-1 1)"><tspan x="36.643" y="53.848">32</tspan></text></g></svg>
