<svg id="Layer_1" xmlns="http://www.w3.org/2000/svg" viewBox="-424 242 110 77"><style>.st0{opacity:0.55;} .st1{fill:#FFFFFF;}</style><g class="st0"><path class="st1" d="M-424 248.5c.4-.3.9-.5 1.5-.5 1.3 0 2.3 1 2.3 2.3s-1 2.3-2.3 2.3c-.6 0-1.1-.2-1.5-.5v4.9c.4-.3.9-.5 1.5-.5 1.3 0 2.3 1 2.3 2.3 0 1.3-1 2.3-2.3 2.3-.6 0-1.1-.2-1.5-.5v4.9c.4-.3.9-.5 1.5-.5 1.3 0 2.3 1 2.3 2.3 0 1.3-1 2.3-2.3 2.3-.6 0-1.1-.2-1.5-.5v3.4c0 .4.1.8.3 1.2.3-.2.7-.3 1.1-.3 1 0 1.9.7 2.2 1.6h4c.4-1 1.2-1.7 2.3-1.7 1.3 0 2.3 1 2.3 2.3 0 1.3-1 2.3-2.3 2.3h-.4l-.7 4.3c.3-.2.7-.3 1.1-.3 1.3 0 2.3 1 2.3 2.3 0 1.3-1 2.3-2.3 2.3-.7 0-1.3-.3-1.7-.8l-.3 1.6c-.2.9.9 1.5 1.6.9l14.7-13c.1-.1.2-.1.2-.1.2-1 1.2-1.8 2.2-1.8.8 0 1.5.4 1.9 1 0-.7.1-1.3.2-1.9-.1-.3-.2-.6-.2-.9 0-.7.3-1.3.8-1.7.4-1.6 1-3 1.8-4.4h-.2c-1.3 0-2.3-1-2.3-2.3 0-1.3 1-2.3 2.3-2.3 1 0 1.9.6 2.2 1.5.3-.5.7-.9 1.1-1.3-.8-.4-1.4-1.2-1.4-2.1 0-1.3 1-2.3 2.3-2.3 1 0 1.9.6 2.2 1.5.5-.4 1.1-.8 1.6-1.1-1.1-.2-1.9-1.1-1.9-2.3 0-1.3 1-2.3 2.3-2.3s2.3 1 2.3 2.3c0 .3-.1.6-.2.9 1.3-.6 2.6-1.1 4-1.4.2-1 1.2-1.8 2.3-1.8.9 0 1.6.5 2 1.2h1c.8 0 1.6 0 2.4.1v-1.3c-.4.2-.8.4-1.3.4-1.3 0-2.3-1-2.3-2.3s1-2.3 2.3-2.3c.5 0 .9.1 1.3.4v-4.1c0-.3-.1-.5-.1-.7-.3.1-.7.2-1.1.2-1.2 0-2.2-.9-2.3-2h-3.8c-.1 1.2-1.1 2-2.3 2s-2.2-.9-2.3-2h-3.8c-.1 1.2-1.1 2-2.3 2s-2.2-.9-2.3-2h-3.8c-.1 1.2-1.1 2-2.3 2-1.2 0-2.2-.9-2.3-2h-3.8c-.1 1.2-1.1 2-2.3 2-1.2 0-2.2-.8-2.3-2h-3.8c-.2 1.2-1.1 2-2.3 2-1.2 0-2.2-.8-2.3-2h-3.8c-.2 1.2-1.1 2-2.3 2-.5 0-1-.1-1.3-.4-.1.3-.2.6-.2.9v4zm3.4 6c0-1.3 1-2.3 2.3-2.3 1.3 0 2.3 1 2.3 2.3s-1 2.3-2.3 2.3c-1.3 0-2.3-1-2.3-2.3zm14.9 10.4c1.3 0 2.3 1 2.3 2.3 0 1.3-1 2.3-2.3 2.3-1.3 0-2.3-1-2.3-2.3 0-1.3 1-2.3 2.3-2.3zm-4.2.4c-1.3 0-2.3-1-2.3-2.3s1-2.3 2.3-2.3c1.3 0 2.3 1 2.3 2.3s-1 2.3-2.3 2.3zm6.1-2.4c0-1.3 1-2.3 2.3-2.3s2.3 1 2.3 2.3c0 1.3-1 2.3-2.3 2.3-1.3.1-2.3-1-2.3-2.3zm2.3-6.1c-1.3 0-2.3-1-2.3-2.3s1-2.3 2.3-2.3 2.3 1 2.3 2.3-1 2.3-2.3 2.3zm-1.9 1.9c0 1.3-1 2.3-2.3 2.3-1.3 0-2.3-1-2.3-2.3 0-1.3 1-2.3 2.3-2.3 1.3 0 2.3 1 2.3 2.3zm-6.5-1.9c-1.3 0-2.3-1-2.3-2.3s1-2.3 2.3-2.3c1.3 0 2.3 1 2.3 2.3s-1 2.3-2.3 2.3zm-1.9 1.9c0 1.3-1 2.3-2.3 2.3-1.3 0-2.3-1-2.3-2.3 0-1.3 1-2.3 2.3-2.3 1.3 0 2.3 1 2.3 2.3zm-8.8 4.2c0-1.3 1-2.3 2.3-2.3 1.3 0 2.3 1 2.3 2.3 0 1.3-1 2.3-2.3 2.3-1.3.1-2.3-1-2.3-2.3zm2.3 10.8c-1.3 0-2.3-1-2.3-2.3 0-1.3 1-2.3 2.3-2.3 1.3 0 2.3 1 2.3 2.3 0 1.3-1 2.3-2.3 2.3zm4.2-4.2c-1.3 0-2.3-1-2.3-2.3 0-1.3 1-2.3 2.3-2.3 1.3 0 2.3 1 2.3 2.3 0 1.3-1 2.3-2.3 2.3zm1.9 1.9c0-1.3 1-2.3 2.3-2.3 1.3 0 2.3 1 2.3 2.3 0 1.3-1 2.3-2.3 2.3-1.3 0-2.3-1-2.3-2.3zm2.3 10.8c-1.3 0-2.3-1-2.3-2.3 0-1.3 1-2.3 2.3-2.3 1.3 0 2.3 1 2.3 2.3 0 1.2-1 2.3-2.3 2.3zm4.2-4.3c-1.3 0-2.3-1-2.3-2.3 0-1.3 1-2.3 2.3-2.3 1.3 0 2.3 1 2.3 2.3 0 1.3-1 2.3-2.3 2.3zm4.2-4.2c-1.3 0-2.3-1-2.3-2.3 0-1.3 1-2.3 2.3-2.3s2.3 1 2.3 2.3c0 1.3-1 2.3-2.3 2.3zm6.5-6.5c0 1.3-1 2.3-2.3 2.3-1.3 0-2.3-1-2.3-2.3 0-1.3 1-2.3 2.3-2.3 1.3 0 2.3 1 2.3 2.3zm-2.3-6.2c-1.3 0-2.3-1-2.3-2.3 0-1.3 1-2.3 2.3-2.3 1.3 0 2.3 1 2.3 2.3 0 1.3-1 2.3-2.3 2.3zm4.2-4.2c-1.3 0-2.3-1-2.3-2.3s1-2.3 2.3-2.3c1.3 0 2.3 1 2.3 2.3s-1 2.3-2.3 2.3zm16.8-13.2c1.3 0 2.3 1.1 2.3 2.4s-1 2.3-2.3 2.3c-1.3 0-2.3-1-2.3-2.3s1-2.4 2.3-2.4zm-4.2 4.4c1.3 0 2.3 1 2.3 2.3s-1 2.3-2.3 2.3-2.3-1-2.3-2.3 1-2.3 2.3-2.3zm-4.2-4.4c1.3 0 2.3 1 2.3 2.3 0 1.3-1 2.3-2.3 2.3-1.3.1-2.3-1-2.3-2.2s1-2.4 2.3-2.4zm-4.2 4.4c1.3 0 2.3 1 2.3 2.3s-1 2.3-2.3 2.3c-1.3 0-2.3-1-2.3-2.3s1-2.3 2.3-2.3zm-4.2-4.4c1.3 0 2.3 1 2.3 2.3 0 1.3-1 2.3-2.3 2.3-1.3 0-2.3-1-2.3-2.3 0-1.3 1-2.3 2.3-2.3zm-4.2 4.4c1.3 0 2.3 1 2.3 2.3s-1 2.3-2.3 2.3c-1.3 0-2.3-1-2.3-2.3s1-2.3 2.3-2.3zm-4.2-4.4c1.3 0 2.3 1 2.3 2.3 0 1.3-1 2.3-2.3 2.3s-2.3-1-2.3-2.3c0-1.3 1-2.3 2.3-2.3zm-4.2 4.4c1.3 0 2.3 1 2.3 2.3s-1 2.3-2.3 2.3c-1.3 0-2.3-1-2.3-2.3s1-2.3 2.3-2.3zm-4.2-4.4c1.3 0 2.3 1 2.3 2.3 0 1.3-1 2.3-2.3 2.3-1.3 0-2.3-1-2.3-2.3 0-1.3 1-2.3 2.3-2.3zm-4.2 4.4c1.3 0 2.3 1 2.3 2.3s-1 2.3-2.3 2.3c-1.3 0-2.3-1-2.3-2.3s1-2.3 2.3-2.3zm-4.2-4.4c1.3 0 2.3 1.1 2.3 2.4s-1 2.3-2.3 2.3c-1.3 0-2.3-1-2.3-2.3s1-2.4 2.3-2.4z"/><path class="st1" d="M-354.7 280.2l-.1-4.6c0-10.2-8.3-18.5-18.5-18.5s-18.5 8.3-18.5 18.5v4.6h-.1c-3.1 0-5.6 2.5-5.6 5.6v26.5c0 3.1 2.5 5.6 5.6 5.6h37.2c3.1 0 5.6-2.5 5.6-5.6v-26.5c0-3.1-2.5-5.6-5.6-5.6zm-16.7 19.9l.1 7.4c0 1.1-.9 2-2 2s-2-.9-2-2l.1-7.4c-1.9-.8-3.3-2.6-3.3-4.8 0-3.1 2.6-5.5 5.8-5.1 2.3.3 4.2 2.1 4.5 4.5.4 2.4-1.1 4.5-3.2 5.4zm9.8-19.9h-23.3v-4.6c0-6.4 5.2-11.6 11.6-11.6 6.4 0 11.6 5.2 11.6 11.6v4.6h.1zM-340.4 257.9l-12.4 9.1c.4 1 .8 2 1 3.1l15.5-11.4c-1.3-.3-2.7-.6-4.1-.8zM-345.5 257.6c-1.2 0-2.3.1-3.5.1l-6.4 4.7c.6.8 1.2 1.7 1.7 2.6l10-7.4h-1.8zM-317.1 279.8l-23.2 17.1c2.5-.3 4.8-.8 7-1.6l.2.1L-319 285c.9-1.6 1.6-3.4 1.9-5.2zM-330.2 260.7c-1.1-.5-2.2-.9-3.4-1.3l-17.7 13c.1 1 .2 2.1.2 3.1v.5l20.9-15.3zM-317.4 273.5l-28 20.6v3.1h1l27.5-20.3c0-1.1-.2-2.3-.5-3.4zM-319.2 300.8l2.5 1c.9.3 1.7-.6 1.2-1.5l-.9-1.5-2.8 2zM-320.3 292.5l-1.7-2.6-8.8 6.5 3.4 1.3zM-317.6 297l-1.6-2.7-5.8 4.3 3.4 1.3zM-353.5 258.4c-1.5.3-3 .7-4.4 1.2l1.2 1.2 3.2-2.4zM-328 261.8l-21.8 16.1c.9.6 1.7 1.3 2.3 2.1l22.3-16.5c-.8-.6-1.8-1.2-2.8-1.7zM-319.8 268.7l-25.6 18.9v3.8l27.2-20c-.4-.9-1-1.8-1.6-2.7zM-323.4 264.9l-23 16.9c.5 1 .7 2.1.8 3.2l24.3-17.9c-.5-.8-1.2-1.5-2.1-2.2z"/></g></svg>
