<?xml version="1.0" encoding="utf-8"?>
<svg width="40" height="440" xmlns="http://www.w3.org/2000/svg">
  <defs>
    <linearGradient x1="0.2974699974060059" y1="-0.4789599990844727" x2="0.30791000366210936" y2="1.516300048828125" id="grad-block">
      <stop stop-color="#FF272D" offset="0"/>
      <stop stop-color="#C42482" offset="0.3353"/>
      <stop stop-color="#4A1475" offset="1"/>
    </linearGradient>
    <linearGradient x1="1" y1="0" x2="0.44702999114990233" y2="0.9104900360107422" id="grad-clear-cookies1">
      <stop stop-color="#05C8E5" offset="0"/>
      <stop stop-color="#05C5E6" offset="0"/>
      <stop stop-color="#008BFF" offset="1"/>
    </linearGradient>
    <linearGradient x1="0.7061000061035156" y1="-0.11043999671936035" x2="0.12175999641418457" y2="1" id="grad-clear-cookies2">
      <stop stop-color="#05C8E5" offset="0"/>
      <stop stop-color="#05C4E7" offset="0.1964"/>
      <stop stop-color="#008BFF" offset="1"/>
    </linearGradient>
    <linearGradient x1="0.2974699974060059" y1="-0.4789599990844727" x2="0.30791000366210936" y2="1.516300048828125" id="grad-erase">
      <stop stop-color="#FF272D" offset="0"/>
      <stop stop-color="#C42482" offset="0.3353"/>
      <stop stop-color="#4A1475" offset="1"/>
    </linearGradient>
    <linearGradient x1="1" y1="0" x2="0" y2="1" id="grad-extensions">
      <stop stop-color="#05C8E5" offset="0"/>
      <stop stop-color="#008BFF" offset="1"/>
    </linearGradient>
    <linearGradient x1="1" y1="-0.4993299865722656" x2="0.30791000366210936" y2="1.516300048828125" id="grad-lightweight">
      <stop stop-color="#FF272D" offset="0"/>
      <stop stop-color="#C42482" offset="0.3353"/>
      <stop stop-color="#4A1475" offset="1"/>
    </linearGradient>
    <linearGradient x1="0.8801399993896485" y1="0.08522000312805175" x2="0" y2="1" id="grad-stop">
      <stop stop-color="#05C8E5" offset="0"/>
      <stop stop-color="#008BFF" offset="1"/>
    </linearGradient>
    <g id="icon-chevron-down">
      <path d="M2 2l6 6 6-6" stroke-width="3" stroke="#FFF" fill="none" stroke-linecap="round" stroke-linejoin="round"/>
    </g>
    <g id="icon-block">
      <path d="M1059.143 495.57h20.714v-4.14h-20.714v4.14zM1069.5 479c-8.008 0-14.5 6.492-14.5 14.5s6.492 14.5 14.5 14.5 14.5-6.492 14.5-14.5-6.492-14.5-14.5-14.5z" transform="translate(-1055 -479)" fill="url(#grad-block)" fill-rule="evenodd"/>
    </g>
    <g id="icon-clear-cookies">
      <path d="M16.124 30.183l2.06-2.076-1.783-1.795-2.056 2.074c-1.374 1.385-3.77 1.385-5.142 0L2.67 21.81c-.095-.096-.15-.23-.15-.37 0-.14.055-.274.154-.373l4.26-4.292L5.15 14.98.894 19.27C.324 19.84 0 20.63 0 21.44c0 .808.324 1.6.89 2.168l6.526 6.575C8.58 31.355 10.126 32 11.77 32c1.644 0 3.192-.645 4.354-1.817z" fill="url(#grad-clear-cookies1)"/>
      <path d="M32.102 9.79L23.294.875c-1.152-1.164-3.185-1.167-4.34 0L8.08 11.882l.898.91L20.33 24.284l.9.91L32.1 14.19c.58-.59.9-1.37.9-2.2 0-.832-.32-1.613-.898-2.2z" fill="url(#grad-clear-cookies2)"/>
    </g>
    <g id="icon-erase">
      <g transform="translate(-1056 -3609)" fill="url(#grad-erase)">
        <path d="M1066.038 3636c.616 0 1.116-.5 1.116-1.115V3621.5c0-.616-.5-1.115-1.116-1.115-.616 0-1.115.5-1.115 1.115v13.385c0 .616.5 1.115 1.115 1.115zm4.462 0c.616 0 1.115-.5 1.115-1.115V3621.5c0-.616-.5-1.115-1.115-1.115-.616 0-1.115.5-1.115 1.115v13.385c0 .616.5 1.115 1.115 1.115zm4.462 0c.616 0 1.115-.5 1.115-1.115V3621.5c0-.616-.5-1.115-1.115-1.115-.616 0-1.116.5-1.116 1.115v13.385c0 .616.5 1.115 1.116 1.115z"/>
        <path d="M1082.77 3613.692h-6.805c-.527-2.6-2.813-4.467-5.465-4.467-2.652 0-4.938 1.868-5.465 4.467h-6.804c-1.23 0-2.23 1-2.23 2.23 0 1.233 1 2.232 2.23 2.232v20.077c0 3.7 3 6.696 6.696 6.696h11.154c3.695 0 6.69-2.996 6.69-6.692v-20.076c1.23 0 2.23-1 2.23-2.23 0-1.233-1-2.232-2.23-2.232zm-12.27-2.23c1.4.014 2.643.907 3.103 2.23h-6.206c.46-1.323 1.702-2.216 3.103-2.23zm7.808 26.77c0 1.23-1 2.23-2.23 2.23h-11.155c-1.232 0-2.23-1-2.23-2.23v-20.078h15.615v20.077z"/>
      </g>
    </g>
    <g id="icon-extensions">
      <path d="M26.906 19.875c-.77-.015-1.39-.636-1.406-1.406v-6.1c0-1.038-.84-1.877-1.875-1.877H17.53c-.77-.016-1.39-.637-1.405-1.407C16.125 7.686 18 7.63 18 5.81 18 4.19 16.312 3 14.25 3c-2.063 0-3.75 1.19-3.75 2.81 0 1.82 1.875 1.875 1.875 3.28-.015.77-.636 1.392-1.406 1.407h-6.1C3.84 10.5 3 11.34 3 12.374v4.22c.015.77.636 1.39 1.406 1.405 1.407 0 1.46-1.88 3.282-1.88 1.62 0 2.812 1.69 2.812 3.75 0 2.063-1.19 3.75-2.813 3.75-1.82 0-1.875-1.875-3.28-1.875-.77.014-1.392.635-1.407 1.405v7.97C3 32.16 3.84 33 4.875 33h6.094c.77-.015 1.39-.636 1.4-1.406 0-1.407-1.876-1.46-1.876-3.282 0-1.62 3.75-2.812 3.75-2.812S18 26.69 18 28.313c0 1.82-1.875 1.875-1.875 3.28.015.77.636 1.392 1.406 1.407h6.1c1.037 0 1.876-.84 1.876-1.875V25.03c.016-.77.637-1.39 1.407-1.405 1.407 0 1.46 1.875 3.28 1.875 1.62 0 2.81-1.688 2.81-3.75 0-2.063-1.19-3.75-2.81-3.75-1.82 0-1.874 1.875-3.28 1.875z" transform="translate(-3 -3)" fill="url(#grad-extensions)"/>
    </g>
    <g id="icon-lightweight">
      <g fill="none" fill-rule="evenodd">
        <ellipse fill="url(#grad-lightweight)" cx="17.5" cy="17.545" rx="17.5" ry="17.545"/>
        <path d="M18.188 7l-6.88 12.277H17.5l-.688 8.185 6.88-12.277H17.5z" stroke-linecap="round" stroke-width="2" stroke="#FFF" stroke-linejoin="round"/>
      </g>
    </g>
    <g id="icon-send-tabs">
      <path d="M1074.507 591.224c.658.66.657 1.728-.002 2.386l-6.75 6.75c-.424.44-1.05.615-1.64.46-.59-.154-1.052-.614-1.207-1.204-.154-.59.022-1.218.46-1.642l3.87-3.87h-2.675c-4.657.006-8.432 3.78-8.438 8.44 0 .93-.755 1.686-1.687 1.686s-1.688-.755-1.688-1.687c.008-6.52 5.292-11.806 11.813-11.813h2.675l-3.868-3.87c-.64-.662-.63-1.715.02-2.366.652-.65 1.704-.66 2.366-.02l6.75 6.75zm-4.57 11.32c.934 0 1.69.754 1.69 1.686v1.688c0 2.796-2.268 5.062-5.064 5.062h-13.5c-2.796 0-5.063-2.266-5.063-5.062v-11.813c0-2.796 2.267-5.063 5.063-5.063h1.687c.932 0 1.688.756 1.688 1.688 0 .932-.756 1.687-1.688 1.687h-1.687c-.932 0-1.688.756-1.688 1.688v11.813c0 .932.756 1.687 1.688 1.687h13.5c.932 0 1.688-.755 1.688-1.687v-1.688c0-.932.758-1.687 1.69-1.687z" transform="translate(-1048 -584)" fill="url(#grad-extensions)"/>
    </g>
    <g id="icon-speed">
      <g fill="none" fill-rule="evenodd">
        <ellipse fill="url(#grad-lightweight)" cx="17.5" cy="17.545" rx="17.5" ry="17.545"/>
        <g fill="#FFF">
          <path d="M25.683 24.065c1.377-1.692 2.138-3.59 2.347-5.765-.7 0-1.383-.003-2.066 0-.364.003-.68-.105-.905-.4-.25-.327-.31-.69-.13-1.07.17-.388.48-.6.9-.607.6-.008 1.2-.002 1.8-.003h.31c-.018-1.6-1.05-4.153-2.35-5.537-.47.483-.936.973-1.415 1.447-.43.425-1.036.433-1.446.04-.43-.41-.434-1.05-.005-1.506.23-.242.467-.476.704-.712l.72-.713C22.54 7.95 20.75 7.22 18.7 7v1.54c0 .17.005.343 0 .52-.01.622-.425 1.06-1.01 1.07-.593.003-1.033-.44-1.043-1.08-.01-.595 0-1.19 0-1.786 0-.078-.01-.15-.02-.25-2.096.232-3.924 1.04-5.577 2.422.49.484.96.953 1.43 1.42.255.25.388.546.34.903-.054.41-.273.704-.66.844-.394.143-.766.075-1.072-.223-.413-.405-.82-.823-1.23-1.235-.065-.067-.135-.13-.203-.19-1.02 1.012-2.02 3.45-2.18 5.33.12.01.24.024.362.025.632.007 1.265-.01 1.895.02.485.027.84.417.9.91.06.456-.213.924-.656 1.074-.18.06-.38.072-.57.075-.64.01-1.28.002-1.958.002.213 2.093.953 3.92 2.245 5.552.08-.072.15-.13.216-.195.47-.47.93-.956 1.41-1.42.41-.39 1.023-.375 1.42.015.39.385.416 1.02.04 1.437-.9.99-1.8 1.97-2.71 2.947-.13.14-.3.244-.47.333-.23.122-.445.08-.645-.11-2.267-2.16-3.66-4.784-4.02-7.914-.505-4.385.85-8.14 4.01-11.18 2.033-1.955 4.48-3.056 7.27-3.415 5.878-.754 11.784 2.89 13.653 8.59 1.726 5.264.575 9.91-3.3 13.85-.39.396-.774.37-1.16-.038-.903-.954-1.806-1.908-2.71-2.86-.458-.482-.493-1.106-.08-1.534.43-.446 1.05-.424 1.54.065.502.5.994 1.01 1.513 1.54"/>
          <path d="M17.663 18.21c.474-.007.864-.415.85-.89-.014-.464-.4-.844-.86-.846-.472 0-.872.402-.868.875.003.47.407.87.878.86m4.58-5.46c-.422 1.02-.78 1.98-1.202 2.9-.45 1.003-.9 2.023-1.47 2.965-.9 1.483-3.02 1.43-3.93-.048-.65-1.065-.38-2.477.68-3.13.79-.49 1.64-.895 2.48-1.28 1.01-.46 2.05-.866 3.08-1.29.09-.04.18-.064.37-.127"/>
        </g>
      </g>
    </g>
    <g id="icon-stop">
      <g fill="none" fill-rule="evenodd">
        <path fill="url(#grad-stop)" d="M8.79 0h12.42L30 8.79v12.42L21.21 30H8.79L0 21.21V8.79"/>
        <path d="M19 11l-8 8m0-8l8 8" stroke="#FFF" stroke-width="3" stroke-linecap="round" stroke-linejoin="round"/>
      </g>
    </g>
    <g id="icon-sync">
      <path d="M1073.08 401.19c-1.105 0-2 .9-2 2.007v2.298c-3.51-3.68-8.742-5.148-13.647-3.828-4.904 1.32-8.7 5.22-9.9 10.17-.19.7.01 1.452.53 1.962.517.506 1.27.695 1.965.49.696-.207 1.226-.775 1.386-1.485 1.096-4.462 5.084-7.6 9.666-7.604 3.13-.004 6.076 1.485 7.934 4.01h-3.934c-1.105 0-2 .9-2 2.008 0 1.107.895 2.005 2 2.005h8c1.104 0 2-.898 2-2.006v-8.024c0-1.108-.896-2.006-2-2.006zm.092 15.007c-.515-.13-1.06-.048-1.515.226-.455.274-.783.718-.91 1.234-1.097 4.462-5.085 7.6-9.667 7.605-3.13.005-6.077-1.485-7.934-4.012h3.934c1.104 0 2-.898 2-2.006 0-1.108-.896-2.006-2-2.006h-8c-1.105 0-2 .898-2 2.006v8.024c0 1.108.895 2.006 2 2.006 1.104 0 2-.898 2-2.006v-2.3c3.51 3.682 8.742 5.15 13.646 3.83 4.905-1.322 8.7-5.22 9.9-10.17.267-1.074-.384-2.162-1.454-2.43z" transform="translate(-1047 -401)" fill="url(#grad-extensions)"/>
    </g>
    <g id="icon-themes">
      <path d="M8.01 22.875c-1.775.004-3.334 1.172-3.827 2.868 0 .02-.028.03-.034.05-.728 2.26-1.415 4.202-3.525 5.124l-.046.024-.048.027c-.326.17-.53.506-.533.872 0 .55.447.995 1 .995 3.483.24 6.93-.825 9.662-2.987.012-.012.014-.026.026-.038 1.24-1.1 1.664-2.847 1.07-4.39-.597-1.54-2.09-2.554-3.75-2.544zM31.424 3.57c-.73-.723-1.9-.763-2.68-.092L12.664 17.42c-.41.356-.652.865-.67 1.406-.02.54.19 1.065.572 1.448l2.067 2.053c.368.366.867.57 1.388.572h.068c.543-.02 1.055-.26 1.413-.67L31.517 6.237c.678-.775.638-1.94-.093-2.667z" transform="translate(0 -3)" fill="url(#grad-extensions)"/>
    </g>
    <g id="icon-x">
      <path d="M17 2L2 17M2 2l15 15" stroke="#FFF" stroke-width="4" fill="none" stroke-linecap="round" stroke-linejoin="round"/>
    </g>
  </defs>
  <g id="" transform="matrix(1, 0, 0, 1, 0, 0)">
    <path d="M2 2l6 6 6-6" stroke-width="3" fill="none" stroke-linecap="round" stroke-linejoin="round" style="stroke: rgb(0, 167, 224);"/>
  </g>
  <g id="" transform="matrix(1, 0, 0, 1, 0, 10)">
    <path d="M1059.143 495.57h20.714v-4.14h-20.714v4.14zM1069.5 479c-8.008 0-14.5 6.492-14.5 14.5s6.492 14.5 14.5 14.5 14.5-6.492 14.5-14.5-6.492-14.5-14.5-14.5z" transform="translate(-1055 -479)" fill="url(#grad-block)" fill-rule="evenodd"/>
  </g>
  <g id="" transform="matrix(1, 0, 0, 1, 0, 50)">
    <path d="M16.124 30.183l2.06-2.076-1.783-1.795-2.056 2.074c-1.374 1.385-3.77 1.385-5.142 0L2.67 21.81c-.095-.096-.15-.23-.15-.37 0-.14.055-.274.154-.373l4.26-4.292L5.15 14.98.894 19.27C.324 19.84 0 20.63 0 21.44c0 .808.324 1.6.89 2.168l6.526 6.575C8.58 31.355 10.126 32 11.77 32c1.644 0 3.192-.645 4.354-1.817z" fill="url(#grad-clear-cookies1)"/>
    <path d="M32.102 9.79L23.294.875c-1.152-1.164-3.185-1.167-4.34 0L8.08 11.882l.898.91L20.33 24.284l.9.91L32.1 14.19c.58-.59.9-1.37.9-2.2 0-.832-.32-1.613-.898-2.2z" fill="url(#grad-clear-cookies2)"/>
  </g>
  <g id="" transform="matrix(1, 0, 0, 1, 0, 90)">
    <g transform="translate(-1056 -3609)" fill="url(#grad-erase)">
      <path d="M1066.038 3636c.616 0 1.116-.5 1.116-1.115V3621.5c0-.616-.5-1.115-1.116-1.115-.616 0-1.115.5-1.115 1.115v13.385c0 .616.5 1.115 1.115 1.115zm4.462 0c.616 0 1.115-.5 1.115-1.115V3621.5c0-.616-.5-1.115-1.115-1.115-.616 0-1.115.5-1.115 1.115v13.385c0 .616.5 1.115 1.115 1.115zm4.462 0c.616 0 1.115-.5 1.115-1.115V3621.5c0-.616-.5-1.115-1.115-1.115-.616 0-1.116.5-1.116 1.115v13.385c0 .616.5 1.115 1.116 1.115z"/>
      <path d="M1082.77 3613.692h-6.805c-.527-2.6-2.813-4.467-5.465-4.467-2.652 0-4.938 1.868-5.465 4.467h-6.804c-1.23 0-2.23 1-2.23 2.23 0 1.233 1 2.232 2.23 2.232v20.077c0 3.7 3 6.696 6.696 6.696h11.154c3.695 0 6.69-2.996 6.69-6.692v-20.076c1.23 0 2.23-1 2.23-2.23 0-1.233-1-2.232-2.23-2.232zm-12.27-2.23c1.4.014 2.643.907 3.103 2.23h-6.206c.46-1.323 1.702-2.216 3.103-2.23zm7.808 26.77c0 1.23-1 2.23-2.23 2.23h-11.155c-1.232 0-2.23-1-2.23-2.23v-20.078h15.615v20.077z"/>
    </g>
  </g>
  <g id="" transform="matrix(1, 0, 0, 1, 0, 140)">
    <path d="M26.906 19.875c-.77-.015-1.39-.636-1.406-1.406v-6.1c0-1.038-.84-1.877-1.875-1.877H17.53c-.77-.016-1.39-.637-1.405-1.407C16.125 7.686 18 7.63 18 5.81 18 4.19 16.312 3 14.25 3c-2.063 0-3.75 1.19-3.75 2.81 0 1.82 1.875 1.875 1.875 3.28-.015.77-.636 1.392-1.406 1.407h-6.1C3.84 10.5 3 11.34 3 12.374v4.22c.015.77.636 1.39 1.406 1.405 1.407 0 1.46-1.88 3.282-1.88 1.62 0 2.812 1.69 2.812 3.75 0 2.063-1.19 3.75-2.813 3.75-1.82 0-1.875-1.875-3.28-1.875-.77.014-1.392.635-1.407 1.405v7.97C3 32.16 3.84 33 4.875 33h6.094c.77-.015 1.39-.636 1.4-1.406 0-1.407-1.876-1.46-1.876-3.282 0-1.62 3.75-2.812 3.75-2.812S18 26.69 18 28.313c0 1.82-1.875 1.875-1.875 3.28.015.77.636 1.392 1.406 1.407h6.1c1.037 0 1.876-.84 1.876-1.875V25.03c.016-.77.637-1.39 1.407-1.405 1.407 0 1.46 1.875 3.28 1.875 1.62 0 2.81-1.688 2.81-3.75 0-2.063-1.19-3.75-2.81-3.75-1.82 0-1.874 1.875-3.28 1.875z" transform="translate(-3 -3)" fill="url(#grad-extensions)"/>
  </g>
  <g id="" transform="matrix(1, 0, 0, 1, 0, 180)">
    <g fill="none" fill-rule="evenodd">
      <ellipse fill="url(#grad-lightweight)" cx="17.5" cy="17.545" rx="17.5" ry="17.545"/>
      <path d="M18.188 7l-6.88 12.277H17.5l-.688 8.185 6.88-12.277H17.5z" stroke-linecap="round" stroke-width="2" stroke="#FFF" stroke-linejoin="round"/>
    </g>
  </g>
  <g id="" transform="matrix(1, 0, 0, 1, 0, 220)">
    <path d="M1074.507 591.224c.658.66.657 1.728-.002 2.386l-6.75 6.75c-.424.44-1.05.615-1.64.46-.59-.154-1.052-.614-1.207-1.204-.154-.59.022-1.218.46-1.642l3.87-3.87h-2.675c-4.657.006-8.432 3.78-8.438 8.44 0 .93-.755 1.686-1.687 1.686s-1.688-.755-1.688-1.687c.008-6.52 5.292-11.806 11.813-11.813h2.675l-3.868-3.87c-.64-.662-.63-1.715.02-2.366.652-.65 1.704-.66 2.366-.02l6.75 6.75zm-4.57 11.32c.934 0 1.69.754 1.69 1.686v1.688c0 2.796-2.268 5.062-5.064 5.062h-13.5c-2.796 0-5.063-2.266-5.063-5.062v-11.813c0-2.796 2.267-5.063 5.063-5.063h1.687c.932 0 1.688.756 1.688 1.688 0 .932-.756 1.687-1.688 1.687h-1.687c-.932 0-1.688.756-1.688 1.688v11.813c0 .932.756 1.687 1.688 1.687h13.5c.932 0 1.688-.755 1.688-1.687v-1.688c0-.932.758-1.687 1.69-1.687z" transform="translate(-1048 -584)" fill="url(#grad-extensions)"/>
  </g>
  <g id="" transform="matrix(1, 0, 0, 1, 0, 260)">
    <g fill="none" fill-rule="evenodd">
      <ellipse fill="url(#grad-lightweight)" cx="17.5" cy="17.545" rx="17.5" ry="17.545"/>
      <g fill="#FFF">
        <path d="M25.683 24.065c1.377-1.692 2.138-3.59 2.347-5.765-.7 0-1.383-.003-2.066 0-.364.003-.68-.105-.905-.4-.25-.327-.31-.69-.13-1.07.17-.388.48-.6.9-.607.6-.008 1.2-.002 1.8-.003h.31c-.018-1.6-1.05-4.153-2.35-5.537-.47.483-.936.973-1.415 1.447-.43.425-1.036.433-1.446.04-.43-.41-.434-1.05-.005-1.506.23-.242.467-.476.704-.712l.72-.713C22.54 7.95 20.75 7.22 18.7 7v1.54c0 .17.005.343 0 .52-.01.622-.425 1.06-1.01 1.07-.593.003-1.033-.44-1.043-1.08-.01-.595 0-1.19 0-1.786 0-.078-.01-.15-.02-.25-2.096.232-3.924 1.04-5.577 2.422.49.484.96.953 1.43 1.42.255.25.388.546.34.903-.054.41-.273.704-.66.844-.394.143-.766.075-1.072-.223-.413-.405-.82-.823-1.23-1.235-.065-.067-.135-.13-.203-.19-1.02 1.012-2.02 3.45-2.18 5.33.12.01.24.024.362.025.632.007 1.265-.01 1.895.02.485.027.84.417.9.91.06.456-.213.924-.656 1.074-.18.06-.38.072-.57.075-.64.01-1.28.002-1.958.002.213 2.093.953 3.92 2.245 5.552.08-.072.15-.13.216-.195.47-.47.93-.956 1.41-1.42.41-.39 1.023-.375 1.42.015.39.385.416 1.02.04 1.437-.9.99-1.8 1.97-2.71 2.947-.13.14-.3.244-.47.333-.23.122-.445.08-.645-.11-2.267-2.16-3.66-4.784-4.02-7.914-.505-4.385.85-8.14 4.01-11.18 2.033-1.955 4.48-3.056 7.27-3.415 5.878-.754 11.784 2.89 13.653 8.59 1.726 5.264.575 9.91-3.3 13.85-.39.396-.774.37-1.16-.038-.903-.954-1.806-1.908-2.71-2.86-.458-.482-.493-1.106-.08-1.534.43-.446 1.05-.424 1.54.065.502.5.994 1.01 1.513 1.54"/>
        <path d="M17.663 18.21c.474-.007.864-.415.85-.89-.014-.464-.4-.844-.86-.846-.472 0-.872.402-.868.875.003.47.407.87.878.86m4.58-5.46c-.422 1.02-.78 1.98-1.202 2.9-.45 1.003-.9 2.023-1.47 2.965-.9 1.483-3.02 1.43-3.93-.048-.65-1.065-.38-2.477.68-3.13.79-.49 1.64-.895 2.48-1.28 1.01-.46 2.05-.866 3.08-1.29.09-.04.18-.064.37-.127"/>
      </g>
    </g>
  </g>
  <g id="" transform="matrix(1, 0, 0, 1, 0, 300)">
    <g fill="none" fill-rule="evenodd">
      <path fill="url(#grad-stop)" d="M8.79 0h12.42L30 8.79v12.42L21.21 30H8.79L0 21.21V8.79"/>
      <path d="M19 11l-8 8m0-8l8 8" stroke="#FFF" stroke-width="3" stroke-linecap="round" stroke-linejoin="round"/>
    </g>
  </g>
  <g id="" transform="matrix(1, 0, 0, 1, 0, 340)">
    <path d="M1073.08 401.19c-1.105 0-2 .9-2 2.007v2.298c-3.51-3.68-8.742-5.148-13.647-3.828-4.904 1.32-8.7 5.22-9.9 10.17-.19.7.01 1.452.53 1.962.517.506 1.27.695 1.965.49.696-.207 1.226-.775 1.386-1.485 1.096-4.462 5.084-7.6 9.666-7.604 3.13-.004 6.076 1.485 7.934 4.01h-3.934c-1.105 0-2 .9-2 2.008 0 1.107.895 2.005 2 2.005h8c1.104 0 2-.898 2-2.006v-8.024c0-1.108-.896-2.006-2-2.006zm.092 15.007c-.515-.13-1.06-.048-1.515.226-.455.274-.783.718-.91 1.234-1.097 4.462-5.085 7.6-9.667 7.605-3.13.005-6.077-1.485-7.934-4.012h3.934c1.104 0 2-.898 2-2.006 0-1.108-.896-2.006-2-2.006h-8c-1.105 0-2 .898-2 2.006v8.024c0 1.108.895 2.006 2 2.006 1.104 0 2-.898 2-2.006v-2.3c3.51 3.682 8.742 5.15 13.646 3.83 4.905-1.322 8.7-5.22 9.9-10.17.267-1.074-.384-2.162-1.454-2.43z" transform="translate(-1047 -401)" fill="url(#grad-extensions)"/>
  </g>
  <g id="" transform="matrix(1, 0, 0, 1, 0, 380)">
    <path d="M8.01 22.875c-1.775.004-3.334 1.172-3.827 2.868 0 .02-.028.03-.034.05-.728 2.26-1.415 4.202-3.525 5.124l-.046.024-.048.027c-.326.17-.53.506-.533.872 0 .55.447.995 1 .995 3.483.24 6.93-.825 9.662-2.987.012-.012.014-.026.026-.038 1.24-1.1 1.664-2.847 1.07-4.39-.597-1.54-2.09-2.554-3.75-2.544zM31.424 3.57c-.73-.723-1.9-.763-2.68-.092L12.664 17.42c-.41.356-.652.865-.67 1.406-.02.54.19 1.065.572 1.448l2.067 2.053c.368.366.867.57 1.388.572h.068c.543-.02 1.055-.26 1.413-.67L31.517 6.237c.678-.775.638-1.94-.093-2.667z" transform="translate(0 -3)" fill="url(#grad-extensions)"/>
  </g>
  <g id="" transform="matrix(1, 0, 0, 1, 0, 420)">
    <path d="M17 2L2 17M2 2l15 15" stroke="#FFF" stroke-width="4" fill="none" stroke-linecap="round" stroke-linejoin="round"/>
  </g>
</svg>