<svg xmlns="http://www.w3.org/2000/svg" viewBox="0 0 1920 607"><linearGradient id="a" gradientUnits="userSpaceOnUse" x1="1145.524" y1="175.777" x2="197.172" y2="425.491"><stop offset="0" stop-color="#ff483a"/><stop offset=".31" stop-color="#ff723a"/><stop offset=".452" stop-color="#ff7c3a"/><stop offset=".688" stop-color="#ff963c"/><stop offset=".99" stop-color="#ffbf3e"/><stop offset="1" stop-color="#ffc13e"/></linearGradient><path d="M594.8-.6H126.4l-24.6 332.9C92.2 461 188.9 572.2 326.9 581.2l399.6 26.3 390-.2c335.3-.2 607-272 607-607.3L594.8-.6" fill="url(#a)"/><linearGradient id="b" gradientUnits="userSpaceOnUse" x1="1053.439" y1="-33.296" x2="946.795" y2="93.796"><stop offset=".249" stop-color="#ff2a76"/><stop offset="1" stop-color="#ff723a"/></linearGradient><path fill="url(#b)" d="M1325.5 0h-600"/><linearGradient id="c" gradientUnits="userSpaceOnUse" x1="1129.886" y1="-357.249" x2="680.866" y2="661.727"><stop offset="0" stop-color="#702ac7"/><stop offset=".523" stop-color="#ff2a76"/><stop offset=".974" stop-color="#ff723a"/></linearGradient><path d="M726.5 0H1.5l75.2 360.8C103 487.1 226.5 567.3 352.6 540l373.9-81.1 994-212.3C1836.8 221.8 1920 119 1920 0H725.5" fill="url(#c)"/><g transform="translate(-587.73 -.689)"><linearGradient id="d" gradientUnits="userSpaceOnUse" x1="1679.775" y1="-107.226" x2="756.571" y2="360.728"><stop offset=".059" stop-color="#804bef"/><stop offset=".116" stop-color="#8b48e7"/><stop offset=".407" stop-color="#bc3bbf"/><stop offset=".661" stop-color="#e131a2"/><stop offset=".868" stop-color="#f72b90"/><stop offset="1" stop-color="#ff298a"/></linearGradient><path d="M1952.4.7H744.5l121.3 303.9c47.8 119.8 183.4 177.4 302.8 128.5l144.5-59.1L2189.1.6h-236.7z" fill="url(#d)"/></g></svg>