<svg xmlns="http://www.w3.org/2000/svg" xmlns:xlink="http://www.w3.org/1999/xlink" width="353" height="593"><defs><filter id="a" width="127.1%" height="115%" x="-13.5%" y="-7.5%" filterUnits="objectBoundingBox"><feMorphology in="SourceAlpha" operator="dilate" radius="2" result="shadowSpreadOuter1"/><feOffset in="shadowSpreadOuter1" result="shadowOffsetOuter1"/><feGaussianBlur in="shadowOffsetOuter1" result="shadowBlurOuter1" stdDeviation="11.5"/><feColorMatrix in="shadowBlurOuter1" values="0 0 0 0 0 0 0 0 0 0 0 0 0 0 0 0 0 0 0.25 0"/></filter><filter id="c" width="133.4%" height="153.6%" x="-16.7%" y="-26.8%" filterUnits="objectBoundingBox"><feMorphology in="SourceAlpha" operator="dilate" radius="1" result="shadowSpreadOuter1"/><feOffset in="shadowSpreadOuter1" result="shadowOffsetOuter1"/><feGaussianBlur in="shadowOffsetOuter1" result="shadowBlurOuter1" stdDeviation="5.5"/><feColorMatrix in="shadowBlurOuter1" values="0 0 0 0 0 0 0 0 0 0 0 0 0 0 0 0 0 0 0.07 0"/></filter><filter id="e" width="133.4%" height="153.6%" x="-16.7%" y="-26.8%" filterUnits="objectBoundingBox"><feMorphology in="SourceAlpha" operator="dilate" radius="1" result="shadowSpreadOuter1"/><feOffset in="shadowSpreadOuter1" result="shadowOffsetOuter1"/><feGaussianBlur in="shadowOffsetOuter1" result="shadowBlurOuter1" stdDeviation="5.5"/><feColorMatrix in="shadowBlurOuter1" values="0 0 0 0 0 0 0 0 0 0 0 0 0 0 0 0 0 0 0.07 0"/></filter><filter id="g" width="153.6%" height="153.6%" x="-26.8%" y="-26.8%" filterUnits="objectBoundingBox"><feMorphology in="SourceAlpha" operator="dilate" radius="1" result="shadowSpreadOuter1"/><feOffset in="shadowSpreadOuter1" result="shadowOffsetOuter1"/><feGaussianBlur in="shadowOffsetOuter1" result="shadowBlurOuter1" stdDeviation="5.5"/><feColorMatrix in="shadowBlurOuter1" values="0 0 0 0 0 0 0 0 0 0 0 0 0 0 0 0 0 0 0.07 0"/></filter><filter id="i" width="153.6%" height="153.6%" x="-26.8%" y="-26.8%" filterUnits="objectBoundingBox"><feMorphology in="SourceAlpha" operator="dilate" radius="1" result="shadowSpreadOuter1"/><feOffset in="shadowSpreadOuter1" result="shadowOffsetOuter1"/><feGaussianBlur in="shadowOffsetOuter1" result="shadowBlurOuter1" stdDeviation="5.5"/><feColorMatrix in="shadowBlurOuter1" values="0 0 0 0 0 0 0 0 0 0 0 0 0 0 0 0 0 0 0.07 0"/></filter><filter id="k" width="153.6%" height="153.6%" x="-26.8%" y="-26.8%" filterUnits="objectBoundingBox"><feMorphology in="SourceAlpha" operator="dilate" radius="1" result="shadowSpreadOuter1"/><feOffset in="shadowSpreadOuter1" result="shadowOffsetOuter1"/><feGaussianBlur in="shadowOffsetOuter1" result="shadowBlurOuter1" stdDeviation="5.5"/><feColorMatrix in="shadowBlurOuter1" values="0 0 0 0 0 0 0 0 0 0 0 0 0 0 0 0 0 0 0.07 0"/></filter><filter id="o" width="153.6%" height="153.6%" x="-26.8%" y="-26.8%" filterUnits="objectBoundingBox"><feMorphology in="SourceAlpha" operator="dilate" radius="1" result="shadowSpreadOuter1"/><feOffset in="shadowSpreadOuter1" result="shadowOffsetOuter1"/><feGaussianBlur in="shadowOffsetOuter1" result="shadowBlurOuter1" stdDeviation="5.5"/><feColorMatrix in="shadowBlurOuter1" values="0 0 0 0 0 0 0 0 0 0 0 0 0 0 0 0 0 0 0.07 0"/></filter><filter id="q" width="153.6%" height="153.6%" x="-26.8%" y="-26.8%" filterUnits="objectBoundingBox"><feMorphology in="SourceAlpha" operator="dilate" radius="1" result="shadowSpreadOuter1"/><feOffset in="shadowSpreadOuter1" result="shadowOffsetOuter1"/><feGaussianBlur in="shadowOffsetOuter1" result="shadowBlurOuter1" stdDeviation="5.5"/><feColorMatrix in="shadowBlurOuter1" values="0 0 0 0 0 0 0 0 0 0 0 0 0 0 0 0 0 0 0.07 0"/></filter><filter id="s" width="153.6%" height="153.6%" x="-26.8%" y="-26.8%" filterUnits="objectBoundingBox"><feMorphology in="SourceAlpha" operator="dilate" radius="1" result="shadowSpreadOuter1"/><feOffset in="shadowSpreadOuter1" result="shadowOffsetOuter1"/><feGaussianBlur in="shadowOffsetOuter1" result="shadowBlurOuter1" stdDeviation="5.5"/><feColorMatrix in="shadowBlurOuter1" values="0 0 0 0 0 0 0 0 0 0 0 0 0 0 0 0 0 0 0.07 0"/></filter><rect id="d" width="116.683" height="72.794" x="0" y="0" rx="3.422"/><rect id="f" width="116.683" height="72.794" x="0" y="0" rx="3.422"/><rect id="h" width="72.71" height="72.794" x="0" y="0" rx="3.422"/><rect id="j" width="72.71" height="72.794" x="0" y="0" rx="3.422"/><rect id="l" width="72.71" height="72.794" x="0" y="0" rx="3.422"/><rect id="p" width="72.71" height="72.794" x="0" y="0" rx="3.422"/><rect id="r" width="72.71" height="72.794" x="0" y="0" rx="3.422"/><rect id="t" width="72.71" height="72.794" x="0" y="0" rx="3.422"/><path id="b" d="M9.448 0h280.104A9.448 9.448 0 01299 9.448v523.647a5.905 5.905 0 01-5.905 5.905H5.905A5.905 5.905 0 010 533.095V9.448A9.448 9.448 0 019.448 0z"/><path id="m" d="M0 0h31.567v30.433H0z"/><path id="u" d="M2.362 0h214.057a2.362 2.362 0 012.361 2.362v24.411a2.362 2.362 0 01-2.361 2.362H2.362A2.362 2.362 0 010 26.773V2.362A2.362 2.362 0 012.362 0z"/></defs><g fill="none" fill-rule="evenodd" transform="translate(27 27)"><use fill="#000" filter="url(#a)" xlink:href="#b"/><use fill="#F9F9FA" xlink:href="#b"/><g transform="translate(18.961 323.443)"><use fill="#000" filter="url(#c)" xlink:href="#d"/><use fill="#FFF" xlink:href="#d"/><path fill="#888" fill-rule="nonzero" d="M52.331 49.202c12.04 0 18.625-9.963 18.625-18.603 0-.283 0-.565-.019-.845a13.31 13.31 0 003.266-3.384 13.078 13.078 0 01-3.76 1.028 6.562 6.562 0 002.878-3.616 13.128 13.128 0 01-4.156 1.587 6.558 6.558 0 00-7.865-1.286 6.541 6.541 0 00-3.29 7.25A18.592 18.592 0 0144.517 24.5a6.538 6.538 0 002.027 8.728 6.503 6.503 0 01-2.971-.819v.083a6.542 6.542 0 005.251 6.41c-.963.262-1.974.3-2.955.111a6.552 6.552 0 006.115 4.54 13.145 13.145 0 01-9.687 2.71 18.548 18.548 0 0010.033 2.932"/><rect width="128.351" height="5.827" x="132.727" y="30.548" fill="#D6D6D6" fill-rule="nonzero" rx="1.181"/><rect width="128.351" height="5.827" x="132.727" y="42.202" fill="#D6D6D6" fill-rule="nonzero" rx="1.181"/><rect width="99.18" height="5.827" x="132.727" y="53.857" fill="#D6D6D6" fill-rule="nonzero" rx="1.181"/><rect width="100.639" height="7.284" x="132.727" y="11.611" fill="#BBB" fill-rule="nonzero" rx="1.181"/></g><g transform="translate(18.961 419.546)"><use fill="#000" filter="url(#e)" xlink:href="#f"/><use fill="#FFF" xlink:href="#f"/><path fill="#888" d="M72.927 23.417c0 3.404-3.012 5.196-6.025 5.196v5.555l3.213 2.329v.179l-3.213 2.33v7.345c2.21-1.075 4.017-3.225 5.222-5.554h.401c0 5.913-5.22 11.646-13.253 11.646-7.43 0-14.057-5.375-14.057-12.542 0-6.092 5.422-11.109 11.446-12.542l.2.538c-2.208 1.075-4.417 2.687-5.22 5.016l10.04-3.941v12.362l-8.233 3.584c2.209 2.15 4.82 2.867 7.832 2.867 1.606 0 3.413-.18 5.02-1.075v-7.705l-3.012-2.329v-.18l3.012-2.328v-5.555c-1.607-.179-4.619-.716-7.43-1.433-3.213-.896-5.623-1.613-7.43-1.613-2.008 0-2.812 1.254-2.812 1.971 0 1.075.603 1.434 1.005 1.792l-.201.358c-.804-.358-3.012-1.254-3.012-3.942 0-3.046 2.81-5.733 6.827-5.733 2.008 0 4.418.717 7.029 1.612 2.209.717 5.22 1.434 6.626 1.434 1.808 0 2.41-1.075 2.41-1.792 0-1.254-1.405-1.792-3.213-1.792v-.537c3.012 0 6.828.896 6.828 4.48zm-17.47 19.71v-11.11l-4.218 1.613c-.402 1.075-.402 2.508-.402 3.763 0 3.046.804 5.196 2.21 6.808l2.41-1.075z"/><rect width="128.351" height="5.827" x="132.727" y="30.548" fill="#D6D6D6" fill-rule="nonzero" rx="1.181"/><rect width="128.351" height="5.827" x="132.727" y="42.202" fill="#D6D6D6" fill-rule="nonzero" rx="1.181"/><rect width="99.18" height="5.827" x="132.727" y="53.857" fill="#D6D6D6" fill-rule="nonzero" rx="1.181"/><rect width="100.639" height="7.284" x="132.727" y="11.611" fill="#BBB" fill-rule="nonzero" rx="1.181"/></g><rect width="58.341" height="7.284" x="18.961" y="93.232" fill="#BBB" fill-rule="nonzero" rx="1.181"/><rect width="87.512" height="7.284" x="18.961" y="304.462" fill="#BBB" fill-rule="nonzero" rx="1.181"/><g transform="translate(18.961 112.17)"><use fill="#000" filter="url(#g)" xlink:href="#h"/><use fill="#FFF" xlink:href="#h"/><path fill="#888" fill-rule="nonzero" d="M36.942 51.66c-8.744 0-15.832-6.833-15.832-15.263s7.088-15.263 15.832-15.263 15.832 6.834 15.832 15.263c0 8.43-7.088 15.264-15.832 15.264zm10.56-15.263c-.033-.877-.598-1.654-1.443-1.984a2.376 2.376 0 00-2.468.458 11.564 11.564 0 00-6.095-1.877l1.03-4.763 3.387.687c.083.746.716 1.323 1.493 1.361.777.039 1.468-.472 1.63-1.206.162-.733-.253-1.472-.978-1.742-.726-.27-1.548.008-1.939.656l-3.879-.748a.506.506 0 00-.372.066.473.473 0 00-.214.3l-1.171 5.297c-2.204.032-4.35.685-6.175 1.877a2.377 2.377 0 00-2.484-.429c-.844.344-1.397 1.136-1.41 2.019-.015.882.513 1.69 1.345 2.058a4.224 4.224 0 000 .672c0 3.419 4.133 6.197 9.23 6.197 5.098 0 9.23-2.778 9.23-6.197a4.224 4.224 0 000-.672 2.22 2.22 0 001.283-2.03zM31.67 37.924c0-.843.709-1.527 1.583-1.527.875 0 1.583.684 1.583 1.527 0 .843-.708 1.526-1.583 1.526-.42 0-.822-.16-1.12-.447a1.5 1.5 0 01-.463-1.08zm9.198 4.197a6.236 6.236 0 01-3.91 1.175 6.236 6.236 0 01-3.91-1.175.401.401 0 01.028-.553.44.44 0 01.573-.027 5.313 5.313 0 003.293.962 5.333 5.333 0 003.309-.931.454.454 0 01.428-.106c.153.042.27.158.31.306a.416.416 0 01-.12.41v-.06zm-.285-2.61c-.874 0-1.583-.683-1.583-1.526s.709-1.527 1.583-1.527c.875 0 1.584.684 1.584 1.527.017.418-.144.824-.447 1.124-.302.3-.719.468-1.152.463l.015-.06z"/><g transform="translate(0 84.535)"><use fill="#000" filter="url(#i)" xlink:href="#j"/><use fill="#FFF" xlink:href="#j"/><path fill="#888" d="M52.656 28.826c-.14 3.171-2.286 7.514-6.437 13.026-4.29 5.755-7.921 8.634-10.89 8.634-1.841 0-3.398-1.752-4.67-5.258l-2.547-9.642c-.944-3.505-1.957-5.26-3.04-5.26-.237 0-1.063.514-2.478 1.535l-1.484-1.974a395.927 395.927 0 004.606-4.24c2.077-1.852 3.638-2.827 4.677-2.925 2.455-.244 3.967 1.49 4.534 5.199.614 4.002 1.039 6.491 1.277 7.465.708 3.322 1.488 4.98 2.338 4.98.66 0 1.653-1.076 2.976-3.232 1.321-2.153 2.03-3.792 2.125-4.918.189-1.86-.52-2.79-2.125-2.79-.755 0-1.534.179-2.336.533 1.552-5.244 4.515-7.79 8.889-7.645 3.243.098 4.772 2.269 4.585 6.512"/></g><g transform="translate(91.474)"><use fill="#000" filter="url(#k)" xlink:href="#l"/><use fill="#FFF" xlink:href="#l"/><g transform="translate(21.11 21.134)"><mask id="n" fill="#fff"><use xlink:href="#m"/></mask><path fill="#888" d="M25.12 13.49c-5.088-2.913-13.48-3.18-18.337-1.76-.78.229-1.604-.196-1.84-.948-.237-.752.203-1.547.983-1.775 5.576-1.632 14.844-1.317 20.701 2.035.702.402.932 1.275.516 1.95-.416.677-1.323.9-2.023.498m-.166 4.314a1.258 1.258 0 01-1.693.391c-4.242-2.514-10.71-3.242-15.728-1.773-.65.19-1.338-.164-1.536-.79-.196-.628.171-1.29.821-1.48 5.733-1.677 12.859-.865 17.73 2.021.58.344.761 1.074.406 1.631m-1.932 4.144c-.283.448-.89.589-1.352.315-3.707-2.183-8.372-2.677-13.866-1.467-.53.117-1.057-.203-1.178-.713s.21-1.019.74-1.136c6.012-1.325 11.17-.754 15.33 1.697.464.273.61.857.326 1.304M15.784 0C7.067 0 0 6.813 0 15.217s7.067 15.217 15.784 15.217 15.783-6.813 15.783-15.217S24.501 0 15.784 0" mask="url(#n)"/></g></g><g transform="translate(91.474 84.535)"><use fill="#000" filter="url(#o)" xlink:href="#p"/><use fill="#FFF" xlink:href="#p"/><path fill="#888" fill-rule="nonzero" d="M27.831 22.308l9.069 5.724-9.069 5.723-9.067-5.723 9.067-5.724zm18.136 0l9.067 5.724-9.067 5.723-9.067-5.723 9.067-5.724zM18.764 39.479l9.067-5.724L36.9 39.48l-9.069 5.724-9.067-5.724zm27.203-5.724l9.067 5.724-9.067 5.724-9.067-5.724 9.067-5.724zM27.831 47.111l9.069-5.724 9.067 5.724-9.067 5.724-9.069-5.724z"/></g><g transform="translate(182.948)"><use fill="#000" filter="url(#q)" xlink:href="#r"/><use fill="#FFF" xlink:href="#r"/><path fill="#888" d="M36.936 21.194c4.299 0 4.838.018 6.526.092 1.684.074 2.835.331 3.842.708 1.04.389 1.923.91 2.803 1.756a7.442 7.442 0 011.826 2.697c.39.97.658 2.076.735 3.697.077 1.624.095 2.143.095 6.279 0 4.135-.018 4.654-.095 6.278-.077 1.621-.344 2.728-.735 3.697a7.441 7.441 0 01-1.826 2.697 7.796 7.796 0 01-2.803 1.756c-1.007.377-2.158.634-3.842.708-1.688.074-2.227.092-6.526.092-4.298 0-4.837-.018-6.525-.092-1.685-.074-2.835-.331-3.842-.708a7.796 7.796 0 01-2.803-1.756 7.442 7.442 0 01-1.826-2.697c-.391-.969-.659-2.076-.735-3.697-.077-1.624-.096-2.143-.096-6.278 0-4.136.019-4.655.096-6.279.076-1.62.344-2.728.735-3.697a7.442 7.442 0 011.826-2.697 7.795 7.795 0 012.803-1.756c1.007-.377 2.157-.634 3.842-.708 1.688-.074 2.227-.092 6.525-.092zm0 2.744c-4.226 0-4.726.016-6.395.089-1.543.068-2.381.316-2.939.524a4.926 4.926 0 00-1.82 1.14 4.705 4.705 0 00-1.184 1.75c-.216.537-.474 1.343-.545 2.828-.076 1.606-.092 2.087-.092 6.154 0 4.066.016 4.547.092 6.153.07 1.485.329 2.291.545 2.828.287.71.63 1.218 1.184 1.75a4.926 4.926 0 001.82 1.14c.558.208 1.396.457 2.939.524 1.669.074 2.17.09 6.395.09 4.227 0 4.727-.016 6.396-.09 1.543-.067 2.381-.316 2.939-.524a4.926 4.926 0 001.82-1.14 4.706 4.706 0 001.183-1.75c.217-.537.475-1.343.545-2.828.077-1.606.093-2.087.093-6.153 0-4.067-.016-4.548-.093-6.154-.07-1.485-.328-2.291-.545-2.828a4.706 4.706 0 00-1.183-1.75 4.927 4.927 0 00-1.82-1.14c-.558-.208-1.396-.456-2.94-.524-1.668-.073-2.169-.089-6.395-.089zm0 17.56c2.914 0 5.276-2.272 5.276-5.075 0-2.804-2.362-5.076-5.276-5.076-2.913 0-5.275 2.272-5.275 5.076 0 2.803 2.362 5.076 5.275 5.076zm0-12.895c4.489 0 8.128 3.5 8.128 7.82 0 4.318-3.639 7.82-8.128 7.82-4.488 0-8.127-3.502-8.127-7.82 0-4.32 3.639-7.82 8.127-7.82zm10.348-.31c0 1.01-.85 1.828-1.9 1.828-1.048 0-1.898-.818-1.898-1.827 0-1.01.85-1.828 1.899-1.828s1.9.818 1.9 1.828z"/></g><g transform="translate(182.948 84.535)"><use fill="#000" filter="url(#s)" xlink:href="#t"/><use fill="#FFF" xlink:href="#t"/><path fill="#888" fill-rule="nonzero" d="M27.252 41.144c0 1.751-1.501 3.182-3.339 3.182-1.837 0-3.338-1.43-3.338-3.182s1.501-3.183 3.338-3.183h3.339v3.183zm1.682 0c0-1.752 1.5-3.183 3.338-3.183 1.837 0 3.338 1.431 3.338 3.183v7.968c0 1.752-1.5 3.183-3.338 3.183-1.837 0-3.338-1.431-3.338-3.183v-7.968zm3.338-12.78c-1.837 0-3.338-1.43-3.338-3.182s1.5-3.183 3.338-3.183c1.837 0 3.338 1.43 3.338 3.183v3.182h-3.338zm0 1.604c1.837 0 3.338 1.43 3.338 3.182s-1.5 3.183-3.338 3.183h-8.359c-1.837 0-3.338-1.431-3.338-3.183 0-1.751 1.501-3.182 3.338-3.182h8.359zm13.404 3.182c0-1.751 1.501-3.182 3.338-3.182 1.838 0 3.339 1.43 3.339 3.182s-1.501 3.183-3.339 3.183h-3.338V33.15zm-1.682 0c0 1.752-1.5 3.183-3.338 3.183-1.837 0-3.338-1.431-3.338-3.183v-7.968c0-1.752 1.5-3.183 3.338-3.183 1.837 0 3.338 1.43 3.338 3.183v7.968zm-3.338 12.78c1.837 0 3.338 1.43 3.338 3.182s-1.5 3.183-3.338 3.183c-1.837 0-3.338-1.431-3.338-3.183V45.93h3.338zm0-1.604c-1.837 0-3.338-1.43-3.338-3.182s1.5-3.183 3.338-3.183h8.358c1.838 0 3.339 1.431 3.339 3.183 0 1.751-1.501 3.182-3.339 3.182h-8.358z"/></g></g><path fill="#2C2831" fill-rule="nonzero" d="M5.905 0h287.19A5.905 5.905 0 01299 5.905v23.23H0V5.905A5.905 5.905 0 015.905 0z"/><path fill="#E1E1E2" fill-rule="nonzero" d="M0 514.235h299v18.86a5.905 5.905 0 01-5.905 5.905H5.905A5.905 5.905 0 010 533.095v-18.86z"/><g transform="translate(0 29.135)"><path fill="#E1E1E2" fill-rule="nonzero" d="M0 0h299v40.789H0z"/><g transform="translate(11.668 5.827)"><use fill="#FFF" xlink:href="#u"/><rect width="116.683" height="7.284" x="13.127" y="11.654" fill="#BBB" fill-rule="nonzero" rx="1.181"/></g><rect width="16.044" height="16.024" x="271.288" y="14.568" fill="#BEBEBF" fill-rule="nonzero" rx="2.362"/></g></g></svg>