<svg baseProfile="tiny" xmlns="http://www.w3.org/2000/svg" width="200" height="200">
  <path shape-rendering="optimizeSpeed" fill="#fff" d="M0 0h200v200H0z"/>
  <path shape-rendering="optimizeSpeed" d="M12 12h7v7h-7zm7 0h7v7h-7zm7 0h7v7h-7zm7 0h7v7h-7zm7 0h7v7h-7zm7 0h7v7h-7zm7 0h7v7h-7zm14 0h7v7h-7zm21 0h7v7h-7zm21 0h7v7h-7zm7 0h7v7h-7zm7 0h7v7h-7zm14 0h7v7h-7zm7 0h7v7h-7zm7 0h7v7h-7zm7 0h7v7h-7zm7 0h7v7h-7zm7 0h7v7h-7zm7 0h7v7h-7zM12 19h7v7h-7zm42 0h7v7h-7zm14 0h7v7h-7zm14 0h7v7h-7zm14 0h7v7h-7zm7 0h7v7h-7zm21 0h7v7h-7zm14 0h7v7h-7zm42 0h7v7h-7zM12 26h7v7h-7zm14 0h7v7h-7zm7 0h7v7h-7zm7 0h7v7h-7zm14 0h7v7h-7zm14 0h7v7h-7zm7 0h7v7h-7zm14 0h7v7h-7zm21 0h7v7h-7zm28 0h7v7h-7zm14 0h7v7h-7zm7 0h7v7h-7zm7 0h7v7h-7zm14 0h7v7h-7zM12 33h7v7h-7zm14 0h7v7h-7zm7 0h7v7h-7zm7 0h7v7h-7zm14 0h7v7h-7zm14 0h7v7h-7zm7 0h7v7h-7zm7 0h7v7h-7zm7 0h7v7h-7zm7 0h7v7h-7zm7 0h7v7h-7zm21 0h7v7h-7zm14 0h7v7h-7zm14 0h7v7h-7zm7 0h7v7h-7zm7 0h7v7h-7zm14 0h7v7h-7zM12 40h7v7h-7zm14 0h7v7h-7zm7 0h7v7h-7zm7 0h7v7h-7zm14 0h7v7h-7zm21 0h7v7h-7zm35 0h7v7h-7zm7 0h7v7h-7zm7 0h7v7h-7zm14 0h7v7h-7zm14 0h7v7h-7zm7 0h7v7h-7zm7 0h7v7h-7zm14 0h7v7h-7zM12 47h7v7h-7zm42 0h7v7h-7zm14 0h7v7h-7zm7 0h7v7h-7zm7 0h7v7h-7zm42 0h7v7h-7zm14 0h7v7h-7zm42 0h7v7h-7zM12 54h7v7h-7zm7 0h7v7h-7zm7 0h7v7h-7zm7 0h7v7h-7zm7 0h7v7h-7zm7 0h7v7h-7zm7 0h7v7h-7zm14 0h7v7h-7zm14 0h7v7h-7zm14 0h7v7h-7zm14 0h7v7h-7zm14 0h7v7h-7zm14 0h7v7h-7zm7 0h7v7h-7zm7 0h7v7h-7zm7 0h7v7h-7zm7 0h7v7h-7zm7 0h7v7h-7zm7 0h7v7h-7zm-98 7h7v7h-7zm14 0h7v7h-7zm14 0h7v7h-7zm14 0h7v7h-7zM12 68h7v7h-7zm7 0h7v7h-7zm21 0h7v7h-7zm7 0h7v7h-7zm7 0h7v7h-7zm28 0h7v7h-7zm63 0h7v7h-7zm14 0h7v7h-7zm7 0h7v7h-7zm7 0h7v7h-7zm7 0h7v7h-7zM19 75h7v7h-7zm7 0h7v7h-7zm42 0h7v7h-7zm21 0h7v7h-7zm14 0h7v7h-7zm7 0h7v7h-7zm7 0h7v7h-7zm7 0h7v7h-7zm21 0h7v7h-7zm7 0h7v7h-7zm7 0h7v7h-7zm14 0h7v7h-7zM19 82h7v7h-7zm14 0h7v7h-7zm14 0h7v7h-7zm7 0h7v7h-7zm21 0h7v7h-7zm7 0h7v7h-7zm7 0h7v7h-7zm14 0h7v7h-7zm7 0h7v7h-7zm7 0h7v7h-7zm7 0h7v7h-7zm14 0h7v7h-7zm14 0h7v7h-7zm7 0h7v7h-7zm7 0h7v7h-7zM19 89h7v7h-7zm21 0h7v7h-7zm7 0h7v7h-7zm14 0h7v7h-7zm14 0h7v7h-7zm14 0h7v7h-7zm21 0h7v7h-7zm21 0h7v7h-7zm7 0h7v7h-7zm28 0h7v7h-7zm7 0h7v7h-7zM12 96h7v7h-7zm7 0h7v7h-7zm7 0h7v7h-7zm28 0h7v7h-7zm14 0h7v7h-7zm42 0h7v7h-7zm7 0h7v7h-7zm14 0h7v7h-7zm7 0h7v7h-7zm21 0h7v7h-7zm7 0h7v7h-7zm7 0h7v7h-7zm7 0h7v7h-7zm-168 7h7v7h-7zm7 0h7v7h-7zm7 0h7v7h-7zm7 0h7v7h-7zm28 0h7v7h-7zm21 0h7v7h-7zm7 0h7v7h-7zm21 0h7v7h-7zm7 0h7v7h-7zm14 0h7v7h-7zm21 0h7v7h-7zm21 0h7v7h-7zm-140 7h7v7h-7zm21 0h7v7h-7zm7 0h7v7h-7zm7 0h7v7h-7zm7 0h7v7h-7zm7 0h7v7h-7zm7 0h7v7h-7zm14 0h7v7h-7zm7 0h7v7h-7zm7 0h7v7h-7zm7 0h7v7h-7zm21 0h7v7h-7zm14 0h7v7h-7zm7 0h7v7h-7zm-140 7h7v7h-7zm7 0h7v7h-7zm7 0h7v7h-7zm7 0h7v7h-7zm35 0h7v7h-7zm7 0h7v7h-7zm21 0h7v7h-7zm14 0h7v7h-7zm14 0h7v7h-7zm21 0h7v7h-7zm7 0h7v7h-7zm7 0h7v7h-7zm-161 7h7v7h-7zm7 0h7v7h-7zm7 0h7v7h-7zm28 0h7v7h-7zm14 0h7v7h-7zm7 0h7v7h-7zm49 0h7v7h-7zm7 0h7v7h-7zm7 0h7v7h-7zm7 0h7v7h-7zm7 0h7v7h-7zm7 0h7v7h-7zm7 0h7v7h-7zm-98 7h7v7h-7zm21 0h7v7h-7zm7 0h7v7h-7zm7 0h7v7h-7zm21 0h7v7h-7zm28 0h7v7h-7zm14 0h7v7h-7zm-154 7h7v7h-7zm7 0h7v7h-7zm7 0h7v7h-7zm7 0h7v7h-7zm7 0h7v7h-7zm7 0h7v7h-7zm7 0h7v7h-7zm21 0h7v7h-7zm7 0h7v7h-7zm7 0h7v7h-7zm14 0h7v7h-7zm21 0h7v7h-7zm14 0h7v7h-7zm14 0h7v7h-7zm7 0h7v7h-7zm-147 7h7v7h-7zm42 0h7v7h-7zm14 0h7v7h-7zm14 0h7v7h-7zm14 0h7v7h-7zm14 0h7v7h-7zm14 0h7v7h-7zm28 0h7v7h-7zm7 0h7v7h-7zm7 0h7v7h-7zm7 0h7v7h-7zm7 0h7v7h-7zm-168 7h7v7h-7zm14 0h7v7h-7zm7 0h7v7h-7zm7 0h7v7h-7zm14 0h7v7h-7zm14 0h7v7h-7zm14 0h7v7h-7zm21 0h7v7h-7zm21 0h7v7h-7zm7 0h7v7h-7zm7 0h7v7h-7zm7 0h7v7h-7zm7 0h7v7h-7zm14 0h7v7h-7zm7 0h7v7h-7zm-161 7h7v7h-7zm14 0h7v7h-7zm7 0h7v7h-7zm7 0h7v7h-7zm14 0h7v7h-7zm35 0h7v7h-7zm14 0h7v7h-7zm7 0h7v7h-7zm7 0h7v7h-7zm21 0h7v7h-7zm21 0h7v7h-7zm7 0h7v7h-7zm7 0h7v7h-7zm7 0h7v7h-7zm-168 7h7v7h-7zm14 0h7v7h-7zm7 0h7v7h-7zm7 0h7v7h-7zm14 0h7v7h-7zm21 0h7v7h-7zm7 0h7v7h-7zm7 0h7v7h-7zm28 0h7v7h-7zm21 0h7v7h-7zm7 0h7v7h-7zm28 0h7v7h-7zm-161 7h7v7h-7zm42 0h7v7h-7zm14 0h7v7h-7zm7 0h7v7h-7zm7 0h7v7h-7zm28 0h7v7h-7zm35 0h7v7h-7zm7 0h7v7h-7zm7 0h7v7h-7zm7 0h7v7h-7zm7 0h7v7h-7zm-161 7h7v7h-7zm7 0h7v7h-7zm7 0h7v7h-7zm7 0h7v7h-7zm7 0h7v7h-7zm7 0h7v7h-7zm7 0h7v7h-7zm14 0h7v7h-7zm98 0h7v7h-7zm7 0h7v7h-7zm7 0h7v7h-7z"/>
</svg>
