<svg width="316" height="269" xmlns="http://www.w3.org/2000/svg"><g fill="none" fill-rule="evenodd"><circle fill="#7542E5" fill-rule="nonzero" cx="157.9" cy="150.1" r="114.3"/><path d="M90.6 207.9c-11.2-6.2-22-9.4-32.6-9.4-10.6 0-21.5 3.1-32.7 9.4-7.7 4.3-15 9.8-22 16.4-1.8 1.7-2.7 3.8-2.7 6.3s.9 4.5 2.7 6.2c7 6.6 14.3 12 22 16.3 11.2 6.2 22.1 9.4 32.7 9.4 10.6 0 21.4-3.1 32.6-9.4 7.7-4.3 15-9.7 22-16.4 1.8-1.7 2.7-3.8 2.7-6.2 0-2.5-.9-4.6-2.7-6.3-7-6.5-14.4-12-22-16.3z" fill="#C689FF" fill-rule="nonzero"/><path d="M57.9 208.6c-5.8 0-10.8 2.1-14.9 6.2s-6.2 9-6.2 14.9c0 5.8 2.1 10.7 6.2 14.8 4.1 4.1 9 6.2 14.9 6.2 5.8 0 10.7-2.1 14.8-6.2 4.1-4.1 6.2-9 6.2-14.8 0-5.8-2.1-10.8-6.2-14.9-4.1-4.2-9-6.2-14.8-6.2z" fill="#952BB9" fill-rule="nonzero"/><path d="M72.7 244.5c4.1-4.1 6.2-9 6.2-14.8 0-5.8-2.1-10.8-6.2-14.9l-29.6 29.6c4.1 4.1 9 6.2 14.9 6.2 5.7 0 10.6-2 14.7-6.1z" fill="#9059FF" fill-rule="nonzero"/><path d="M92.1 192.1l-70 70" stroke="#952BB9" stroke-width="10" stroke-linecap="round" stroke-linejoin="round"/><path d="M316 204.5c0-2.2-.8-4.1-2.4-5.6-1.6-1.6-3.4-2.4-5.6-2.4h-74c-2.2 0-4.1.8-5.6 2.4-1.6 1.6-2.4 3.4-2.4 5.6v56c0 2.2.8 4.1 2.4 5.6 1.5 1.6 3.4 2.4 5.6 2.4h74c2.2 0 4.1-.8 5.6-2.4 1.6-1.5 2.3-3.4 2.4-5.6v-56z" fill="#C689FF" fill-rule="nonzero"/><path d="M292 196.5v-17c0-5.8-2-10.7-6.1-14.9-4.1-4.1-9.1-6.1-14.9-6.1h0c-5.8 0-10.7 2.1-14.8 6.1-4.1 4.1-6.1 9.1-6.1 14.9v17" stroke="#952BB9" stroke-width="14"/><path d="M275.9 227.9c1.4-1.4 2-3 2-4.9 0-1.9-.7-3.6-2-4.9-1.3-1.3-3-2.1-5-2.1-1.9 0-3.6.7-5 2.1-1.4 1.4-2 3-2 4.9 0 2 .7 3.6 2 4.9 1.4 1.4 3 2.1 5 2.1s3.6-.7 5-2.1z" fill="#FFC" fill-rule="nonzero"/><path d="M277.2 246.5c.8-1.1.9-2.2.5-3.4l-6.8-19.9-6.8 19.9c-.4 1.2-.3 2.4.5 3.4.8 1.1 1.8 1.6 3.1 1.6h6.3c1.4 0 2.4-.5 3.2-1.6z" fill="#FFC" fill-rule="nonzero"/><path d="M110.7 107.1c-.7.7-1.1 1.6-1.1 2.7v62.9c0 6.7 1.7 12.9 4.9 18.6 3.3 5.8 7.9 10.3 13.6 13.6l28.1 16.1c1.2.7 2.4.7 3.6 0l28.1-16.1c5.8-3.3 10.3-7.9 13.6-13.6 3.4-5.8 5-12 5-18.6v-62.9c0-1-.4-1.9-1.1-2.7-.7-.7-1.6-1.1-2.6-1.1h-89.4c-1.1 0-2 .4-2.7 1.1z" fill="#D9BFFF" fill-rule="nonzero"/><path d="M172.7 128.5c-4.1-4.1-9-6.1-14.8-6.1-5.8 0-10.8 2.1-14.9 6.1-4.1 4.1-6.1 9-6.1 14.8 0 5.8 2 10.7 6.1 14.8 4.1 4.1 9 6.1 14.9 6.1 5.8 0 10.7-2 14.8-6.1 4.1-4.1 6.1-9 6.1-14.8 0-5.8-2-10.7-6.1-14.8zm11.7 38c-1.7-1.1-3.5-1.6-5.5-1.6-1.8 0-5.2 1-10.2 3.1-5 2.1-8.5 3.1-10.8 3.1-2.2 0-5.8-1-10.8-3.1-5-2.1-8.4-3.1-10.2-3.1-2 0-3.9.5-5.6 1.6-2.2 1.5-3.3 3.6-3.3 6.4 0 3.9 2.9 8 8.6 12.2 6.4 4.7 13.4 7 21.2 7 7.7 0 14.7-2.3 21.1-7 5.8-4.2 8.7-8.3 8.7-12.2.1-2.8-1-4.9-3.2-6.4z" fill="#7542E5" fill-rule="nonzero"/><path d="M169.9.5h-39c-1.2 0-2.2.4-3.1 1.3-.9.9-1.3 1.9-1.3 3.1v75.7c0 1.2.4 2.2 1.3 3.1.9.9 1.9 1.3 3.1 1.3h56.7c1.2 0 2.2-.4 3.1-1.3.9-.9 1.3-1.9 1.3-3.1V24.1L169.9.5z" fill="#C689FF" fill-rule="nonzero"/><path d="M159.1 19.7h-17m34.2 18h-34.2m34.2 20.1h-34.2" stroke="#FFC" stroke-linecap="round" stroke-linejoin="round" stroke-width="5"/><path d="M165.1.5v16.1c0 1.2.4 2.2 1.3 3.1.9.9 1.9 1.3 3.1 1.3H189L169.9.5h-4.8z" fill="#AB71FF" fill-rule="nonzero"/><path d="M169.8 19.7c0 1.2.4 2.2 1.3 3.1.9.9 1.9 1.3 3.1 1.3H192L169.8.4v19.3z" fill="#D9BFFF" fill-rule="nonzero"/></g></svg>