<svg width="204" height="262" xmlns="http://www.w3.org/2000/svg"><g fill="none" fill-rule="evenodd"><path d="M203 13.6c0-3.7-1.3-6.9-3.9-9.6-2.6-2.6-5.8-3.9-9.6-3.9H14C10.3.1 7.1 1.4 4.4 4 1.8 6.6.5 9.8.5 13.6v234.6c0 3.7 1.3 6.9 3.9 9.6 2.6 2.6 5.9 3.9 9.6 3.9h120.4l68.6-72.9V13.6z" fill="#AB71FF" fill-rule="nonzero"/><path d="M177.6 210.8l6.5-6.8" stroke="#FFF" stroke-width="4" stroke-linecap="round" stroke-linejoin="round"/><path d="M169.1 23.8c-2.3-2.3-5.1-3.4-8.4-3.4h-35.4c-3.2 0-6.1 1.1-8.4 3.4-2.3 2.3-3.4 5.1-3.4 8.4v35.4c0 3.2 1.1 6.1 3.4 8.3 2.3 2.3 5.1 3.5 8.4 3.5h35.4c3.2 0 6.1-1.1 8.4-3.5 2.3-2.3 3.4-5.1 3.4-8.3V32.2c.1-3.3-1.1-6.1-3.4-8.4zm3.5 195.7V184c0-3.2-1.1-6.1-3.4-8.4-2.3-2.3-5.1-3.4-8.4-3.4h-35.4c-3.2 0-6.1 1.1-8.4 3.4-2.3 2.3-3.4 5.1-3.4 8.4v35.4c0 3.2 1.1 6.1 3.4 8.3 2.3 2.3 5.1 3.5 8.4 3.5h35.4l11.8-11.7zM76.3 99.7c-2.3-2.3-5.1-3.4-8.4-3.4H32.5c-3.2 0-6.1 1.1-8.4 3.4-2.3 2.3-3.4 5.1-3.4 8.4v35.4c0 3.2 1.1 6.1 3.4 8.3 2.3 2.3 5.1 3.4 8.4 3.4H68c3.2 0 6.1-1.1 8.4-3.4 2.3-2.3 3.4-5.1 3.4-8.3v-35.4c0-3.3-1.2-6.1-3.5-8.4z" fill="#D9BFFF" fill-rule="nonzero"/><path d="M25.7 37.2c0-3.2 1.1-6.1 3.4-8.4 2.3-2.3 5.1-3.4 8.4-3.4H73c2 0 3.9.4 5.5 1.3-.5-1-1.3-2-2.1-2.9-2.3-2.3-5.1-3.4-8.4-3.4H32.6c-3.2 0-6.1 1.1-8.4 3.4-2.3 2.3-3.4 5.1-3.4 8.4v35.4c0 3.2 1.1 6.1 3.4 8.3.9.9 1.8 1.6 2.9 2.1-.9-1.6-1.3-3.5-1.3-5.5V37.2h-.1z" fill="#7542E5" fill-rule="nonzero"/><path d="M68 79.4c3.2 0 6.1-1.1 8.4-3.5 2.3-2.3 3.4-5.1 3.4-8.3V32.2c0-2-.4-3.8-1.3-5.5-1.6-.9-3.5-1.3-5.5-1.3H37.6c-3.2 0-6.1 1.1-8.4 3.4-2.3 2.3-3.4 5.1-3.4 8.4v35.4c0 2 .4 3.8 1.3 5.5 1.7.9 3.5 1.4 5.5 1.4H68v-.1z" fill="#9059FF" fill-rule="nonzero"/><path d="M25.7 189c0-3.2 1.1-6.1 3.4-8.4 2.3-2.3 5.1-3.4 8.4-3.4H73c2 0 3.9.4 5.5 1.3-.5-1-1.3-2-2.1-2.9-2.3-2.3-5.1-3.4-8.4-3.4H32.6c-3.2 0-6.1 1.1-8.4 3.4-2.3 2.3-3.4 5.1-3.4 8.4v35.4c0 3.2 1.1 6.1 3.4 8.3.9.9 1.8 1.6 2.9 2.1-.9-1.6-1.3-3.5-1.3-5.5V189h-.1z" fill="#7542E5" fill-rule="nonzero"/><path d="M68 231.3c3.2 0 6.1-1.1 8.4-3.5 2.3-2.3 3.4-5.1 3.4-8.3V184c0-2-.4-3.8-1.3-5.5-1.6-.9-3.5-1.3-5.5-1.3H37.6c-3.2 0-6.1 1.1-8.4 3.4-2.3 2.3-3.4 5.1-3.4 8.4v35.4c0 2 .4 3.8 1.3 5.5 1.7.9 3.5 1.4 5.5 1.4H68z" fill="#9059FF" fill-rule="nonzero"/><path d="M118.5 113.1c0-3.2 1.1-6.1 3.4-8.4 2.3-2.3 5.1-3.4 8.4-3.4h35.4c2 0 3.9.4 5.5 1.3-.5-1-1.3-2-2.1-2.9-2.3-2.3-5.1-3.4-8.4-3.4h-35.4c-3.2 0-6.1 1.1-8.4 3.4-2.3 2.3-3.4 5.1-3.4 8.4v35.4c0 3.2 1.1 6.1 3.4 8.3.9.9 1.8 1.6 2.8 2.1-.9-1.6-1.3-3.5-1.3-5.4v-35.4h.1z" fill="#7542E5" fill-rule="nonzero"/><path d="M160.8 155.3c3.2 0 6.1-1.1 8.4-3.4 2.3-2.3 3.4-5.1 3.4-8.3v-35.4c0-2-.4-3.8-1.3-5.5-1.6-.9-3.5-1.3-5.5-1.3h-35.4c-3.2 0-6.1 1.1-8.4 3.4-2.3 2.3-3.4 5.1-3.4 8.4v35.4c0 2 .4 3.8 1.3 5.4 1.7.9 3.5 1.3 5.5 1.3h35.4z" fill="#9059FF" fill-rule="nonzero"/><path d="M171.9 95.8L142 145.9l-14.2-24.8M77.9 19.4L48 69.5 33.8 44.7m45.5 127.1l-29.9 50.1-14.2-24.8" stroke="#FFC" stroke-width="10" stroke-linecap="round" stroke-linejoin="round"/><path d="M182.4 210.6h-44.7c-3.7 0-6.9 1.3-9.6 3.9-2.6 2.6-3.9 5.8-3.9 9.6v37.5h10.2l48-51z" fill="#7542E5" fill-rule="nonzero"/><path d="M148.3 188.5c-3.7 0-6.9 1.3-9.6 3.9-2.6 2.6-3.9 5.9-3.9 9.6v59.2l68.4-72.7h-54.9z" fill="#BC8DFF" fill-rule="nonzero"/></g></svg>