<svg width="369" height="287" xmlns="http://www.w3.org/2000/svg"><g fill="none" fill-rule="evenodd"><path d="M241.4 153.2c16.1-16.1 24.1-35.6 24.1-58.4 0-22.7-8-42.2-24.1-58.4-16.2-16.1-35.6-24.1-58.4-24.1-22.8 0-42.3 8-58.4 24.1-16.2 16.2-24.2 35.7-24.2 58.4-.1 22.8 7.9 42.3 24.1 58.4 16.1 16.1 35.6 24.2 58.4 24.1 22.8.1 42.3-8 58.5-24.1z" fill="#D9BFFF" fill-rule="nonzero"/><path d="M207.9 198.2c-9.7 2.8-20 4.2-30.9 4.1-7 0-13.8-.6-20.3-1.8-.7.9-1.5 1.9-2.2 2.8-2.3 2.9-6.7 9.1-13.3 18.4l21.2 21.2c20.5-10.5 34.9-23.8 43.2-40 .8-1.5 1.6-3.1 2.3-4.7zM5 253.2c-2.9 2.9-4.4 6.5-4.4 10.6 0 4.2 1.5 7.7 4.4 10.6 2.9 2.9 6.5 4.4 10.6 4.4s7.7-1.5 10.6-4.4l8.7-8.6-21.2-21.2-8.7 8.6zm115-4.1c0 4.2 1.5 7.7 4.4 10.7 2.9 2.9 6.5 4.4 10.6 4.4s7.7-1.5 10.6-4.4l8.6-8.6-21.2-21.3-8.6 8.6c-2.9 3-4.4 6.5-4.4 10.6zM89.4 190c-1.9-1.9-5.4-2.7-10.3-2.2-5.4.5-11.2 2.3-17.4 5.6-16.2 8.4-29.5 22.8-40 43.2l21.2 21.2c9.4-6.6 15.6-11.1 18.5-13.3 8.3-6.4 14.6-12.4 19.1-18 5.5-6.9 9.2-13.6 11.2-20.4 1.9-7.3 1.2-12.7-2.3-16.1z" fill="#952BB9" fill-rule="nonzero"/><path d="M192.8 173.2c-6.7 1.9-13.5 5.6-20.4 11.1-4.9 4-10.2 9.4-15.8 16.4 6.5 1.2 13.3 1.8 20.3 1.8 10.9 0 21.2-1.3 30.9-4.1 1.8-4.4 2.9-8.6 3.2-12.6.4-5-.3-8.4-2.2-10.4-3.4-3.5-8.7-4.2-16-2.2z" fill="#722291" fill-rule="nonzero"/><path d="M155.4 141c-.6.4-1 .9-1.1 1.6-.2.7-.1 1.3.2 1.9.4.6.9 1 1.6 1.1.7.2 1.3.1 1.9-.2 1.3-.7 2.5-1.6 3.6-2.8l2.2-2.2c.5-.5.8-1.1.8-1.8s-.2-1.3-.8-1.8c-.5-.5-1.1-.7-1.8-.7s-1.3.2-1.8.7L158 139c-.8.8-1.7 1.4-2.6 2zm-8.2 1.5c-1.1-.1-2.1-.4-3.1-.9-.6-.3-1.3-.3-1.9-.1-.6.3-1.1.7-1.4 1.4-.3.6-.3 1.3-.1 1.9.3.6.7 1.1 1.3 1.4 1.4.6 2.9 1.1 4.4 1.3.7.1 1.3 0 1.9-.4.6-.4.9-1 1-1.6.1-.7 0-1.3-.4-1.9-.5-.6-1-1-1.7-1.1zm-15.1-8.7c.3 1.5.8 2.9 1.4 4.2.3.6.8 1 1.4 1.2.7.2 1.3.2 1.9-.1.6-.3 1-.8 1.2-1.4.2-.7.2-1.3-.1-1.9-.4-.9-.8-1.9-1-3-.1-.7-.5-1.2-1.1-1.6-.6-.4-1.2-.5-1.9-.4-.7.1-1.2.5-1.6 1.1-.2.6-.3 1.2-.2 1.9zm5.7-16.1c-.7 0-1.2.3-1.7.8-1.1 1.3-2 2.6-2.7 4-.3.6-.3 1.3-.1 2 .2.6.6 1.1 1.2 1.4.6.3 1.3.3 1.9.1.6-.2 1.1-.7 1.4-1.3.5-1 1.1-1.9 1.9-2.8.5-.5.7-1.1.6-1.8 0-.7-.3-1.2-.9-1.7-.2-.6-.8-.8-1.6-.7zm23.5-6.4c0 .7.2 1.3.7 1.8l2.8 2.8c.5.5 1.1.8 1.8.8s1.3-.2 1.8-.8c.5-.5.8-1.1.8-1.8s-.2-1.3-.8-1.8l-2.8-2.8c-.5-.5-1.1-.7-1.8-.7s-1.3.2-1.8.7c-.4.5-.7 1.1-.7 1.8zm-4.6 5.7c-.5-.5-1.1-.7-1.8-.7s-1.3.2-1.8.7c-.5.5-.7 1.1-.7 1.8s.2 1.3.7 1.8l2.8 2.8c.5.5 1.1.8 1.8.8s1.3-.2 1.8-.8c.5-.5.8-1.1.8-1.8s-.2-1.3-.8-1.8l-2.8-2.8zm-6.3-5.3c0-.7-.2-1.3-.8-1.8l-.7-.7c-.5-.5-1.1-.7-1.8-.7s-1.3.2-1.8.7l-2.1 2.1c-.5.5-.7 1.1-.7 1.8s.2 1.3.7 1.8c.5.5 1.1.8 1.8.8s1.3-.2 1.8-.8l.7-.7c.1 0 .2.1.4.1.7 0 1.3-.2 1.8-.8.5-.6.7-1.2.7-1.8zm8-9.5c.3-.6.4-1.2.2-1.9-.2-.6-.6-1.1-1.2-1.4-.6-.3-1.2-.4-1.9-.2-.6.2-1.1.6-1.4 1.2l-.9 1.8c-.2.5-.3 1-.2 1.6.1.5.3 1 .7 1.3l1.4 1.4c.5.5 1.1.8 1.8.8s1.3-.2 1.8-.8c.5-.5.8-1.1.8-1.8s-.2-1.3-.8-1.8l-.1-.1c-.2 0-.2-.1-.2-.1zm11 31c.5-.5.8-1.1.8-1.8s-.2-1.3-.8-1.8l-2.8-2.8c-.5-.5-1.1-.7-1.8-.7s-1.3.2-1.8.7c-.5.5-.7 1.1-.7 1.8s.2 1.3.7 1.8l2.8 2.8c.5.5 1.1.8 1.8.8.8 0 1.4-.3 1.8-.8zm2.5-13.8c-.5.5-.7 1.1-.7 1.8s.2 1.3.7 1.8l2.8 2.8c.5.5 1.1.8 1.8.8s1.3-.2 1.8-.8c.5-.5.8-1.1.8-1.8s-.2-1.3-.8-1.8l-2.8-2.8c-.5-.5-1.1-.7-1.8-.7-.6 0-1.2.2-1.8.7zm13.2-4.6c-1 .8-2 1.5-3.2 2.3-.6.4-.9 1-1.1 1.7-.1.7.1 1.3.4 1.8.4.6 1 .9 1.6 1 .7.1 1.3 0 1.9-.4 1.2-.8 2.3-1.6 3.2-2.3.6-.4.9-.9 1-1.7.1-.7 0-1.3-.4-1.8s-1-.9-1.6-1c-.6-.1-1.2 0-1.8.4zm13.3-9.1c-.7-.1-1.3.1-1.9.6-1 .8-2.1 1.7-3.1 2.5-.5.4-.9 1-.9 1.7-.1.7.1 1.3.5 1.8s1 .8 1.7.9c.7.1 1.3-.1 1.9-.5 1.1-.9 2.2-1.7 3.2-2.6.5-.4.8-1 .9-1.7.1-.7-.1-1.3-.5-1.8-.5-.5-1.1-.8-1.8-.9zm8.5-8.7c-.9.9-1.8 1.8-2.8 2.7-.5.5-.8 1.1-.8 1.8s.2 1.3.6 1.8c.5.5 1.1.8 1.8.8s1.3-.2 1.8-.7c1-1 2-1.9 2.9-2.9.5-.5.7-1.1.7-1.8s-.3-1.3-.8-1.8-1.1-.7-1.8-.7c-.5 0-1.1.3-1.6.8zm-22.6-28.3c.1-.7-.1-1.3-.6-1.8-.4-.5-1-.8-1.7-.9-.7-.1-1.3.1-1.8.6-1.1.9-2.1 1.8-3.1 2.8-.5.5-.8 1-.8 1.7s.2 1.3.6 1.8c.5.5 1 .8 1.7.8s1.3-.2 1.8-.7c1-.9 2-1.7 3-2.6.5-.4.8-1 .9-1.7zm11.3-9.3c-.3-.6-.8-1-1.5-1.2-.6-.2-1.3-.1-1.9.2l-3.6 2.1c-.6.4-.9.9-1.1 1.6-.1.7 0 1.3.3 1.8.4.6.9 1 1.6 1.1.7.2 1.3.1 1.9-.3 1.1-.7 2.3-1.3 3.4-1.9.6-.3 1-.8 1.2-1.5.1-.6.1-1.3-.3-1.9zm12.6-2.9c.4-.6.4-1.2.2-1.9-.2-.6-.6-1.1-1.2-1.5-.6-.3-1.2-.4-1.9-.2-1.2.3-2.5.8-3.9 1.2-.6.2-1.1.7-1.4 1.3-.3.6-.3 1.3-.1 1.9.2.7.7 1.1 1.3 1.4.6.3 1.3.3 1.9.1 1.2-.4 2.4-.8 3.5-1.2.8-.1 1.3-.5 1.6-1.1zm-45.3 30.2c-.7.1-1.2.5-1.6 1-.8 1.1-1.5 2.2-2.2 3.4-.3.6-.4 1.2-.3 1.9.2.7.6 1.2 1.1 1.6.6.4 1.2.5 1.9.3.7-.1 1.2-.5 1.6-1.1.7-1.1 1.4-2.1 2.1-3.2.4-.6.5-1.2.4-1.8-.1-.7-.5-1.2-1.1-1.6-.6-.5-1.2-.6-1.9-.5zm4.4-7.1c-.4.6-.6 1.2-.6 1.8.1.7.4 1.3.9 1.7.6.4 1.2.6 1.9.5.7-.1 1.3-.4 1.7-.9.8-1 1.6-1.9 2.4-2.9.5-.5.7-1.1.6-1.8 0-.7-.3-1.2-.9-1.7-.5-.5-1.1-.7-1.8-.7s-1.2.3-1.7.8c-.8 1.1-1.6 2.1-2.5 3.2zm48.3 14.2c.7-.1 1.2-.4 1.6-.9.9-1.1 1.7-2.3 2.4-3.4.4-.6.5-1.2.4-1.8-.1-.7-.5-1.2-1.1-1.6-.6-.4-1.2-.5-1.9-.3-.7.1-1.2.5-1.6 1.1-.7 1.1-1.4 2.1-2.2 3.2-.4.6-.6 1.2-.5 1.8.1.7.4 1.2 1 1.7.7.1 1.3.3 1.9.2zm10.9-19.3c-.3-.6-.7-1.1-1.4-1.3-.6-.2-1.3-.2-1.9.1-.6.3-1.1.8-1.3 1.4-.4 1.2-.9 2.4-1.5 3.6-.3.6-.3 1.3-.1 1.9.2.7.7 1.1 1.3 1.4.6.3 1.3.3 1.9.1.7-.2 1.1-.7 1.4-1.3.6-1.3 1.2-2.6 1.6-3.9.3-.7.3-1.4 0-2zm1.8-13.6c-.1-.7-.5-1.2-1.1-1.6-.6-.3-1.2-.4-1.9-.3-.7.2-1.2.6-1.5 1.1-.3.6-.4 1.2-.3 1.9.3 1 .4 2.2.4 3.4 0 .7.2 1.3.7 1.8.5.5 1.1.8 1.8.8s1.3-.2 1.8-.7c.5-.5.8-1.1.8-1.8-.1-1.6-.3-3.2-.7-4.6zm-6.2-7.6c-.3-.6-.8-1-1.5-1.2-1.3-.4-2.9-.6-4.6-.7-.7 0-1.3.2-1.8.7-.5.5-.7 1.1-.8 1.8 0 .7.2 1.3.7 1.8.5.5 1.1.8 1.8.8 1.3 0 2.4.2 3.4.5.7.2 1.3.1 1.9-.2.6-.3 1-.8 1.2-1.5.1-.8 0-1.4-.3-2z" fill="#D74CF0" fill-rule="nonzero"/><path d="M248.5 147.7c-3.7-3.7-7.6-3.5-11.8.7l-6.1 6.1c-4.3 4.3-4.5 8.2-.9 11.9l14.2 14.9 19.6-19.6-15-14z" fill="#722291" fill-rule="nonzero"/><path d="M341 282.7c2.3 2.1 4.7 3.3 7.4 3.6.7.1 1.7.2 3 .1 4.4-.3 8.3-2 11.6-5.4 3.3-3.4 5.1-7.2 5.2-11.5.1-1.2.1-2.2 0-3.1-.2-2.6-1.4-5.1-3.5-7.3-12.3-13.4-35.3-35.9-69.2-67.8l-32-29.6-19.6 19.6L341 282.7z" fill="#9059FF" fill-rule="nonzero"/><path d="M243.5 161.5c18.4-18.4 27.6-40.7 27.5-66.8 0-26.1-9.2-48.2-27.6-66.6C225 9.7 202.8.5 176.8.5c-26 0-48.3 9.2-66.7 27.6-18.4 18.4-27.6 40.7-27.6 66.7s9.1 48.2 27.5 66.6c18.5 18.4 40.7 27.6 66.7 27.6 26.2.1 48.4-9 66.8-27.5zm4.8-66.7c0 19.7-6.9 36.5-20.9 50.4-13.9 13.9-30.8 20.9-50.5 20.9s-36.6-6.9-50.5-20.9c-14-14-20.9-30.8-20.9-50.6 0-19.6 7-36.4 20.9-50.5 13.9-13.9 30.7-20.9 50.4-20.9s36.6 7 50.5 20.9c14 14.2 21 31.1 21 50.7z" fill="#AB71FF" fill-rule="nonzero"/><path d="M119.4 93.1c.4-15.1 6-28.1 16.9-39 7.4-7.3 15.7-12.3 25-14.8" stroke="#FFC" stroke-width="13" stroke-linecap="round" stroke-linejoin="round"/></g></svg>