<svg xmlns="http://www.w3.org/2000/svg" xmlns:xlink="http://www.w3.org/1999/xlink" width="392" height="259"><defs><path id="a" d="M0 0h403.2v260.1H0z"/><path id="d" d="M20.7 268.2V54.9c0-25.847 20.953-46.8 46.8-46.8h268.2c25.847 0 46.8 20.953 46.8 46.8v213.3"/><path id="e" d="M15.127 8.53l-3.086-3.086a1.029 1.029 0 00-.727-.301h-1.028V4.114c0-.272-.109-.534-.302-.727L6.9.301A1.028 1.028 0 006.17 0H3.086a2.057 2.057 0 00-2.057 2.057v7.2c0 1.136.92 2.057 2.057 2.057H6.17V14.4c0 1.136.921 2.057 2.058 2.057h5.142A2.057 2.057 0 0015.43 14.4V9.257c0-.273-.109-.534-.302-.727zm-2.181.727h-1.632V7.626l1.632 1.631zM7.803 4.114H6.17V2.483l1.632 1.631zM6.17 7.2v2.057H3.086v-7.2h2.057V4.63c0 .284.23.514.514.514H8.23A2.057 2.057 0 006.17 7.2zm2.058 7.2V7.2h2.057v2.571c0 .284.23.515.514.515h2.571V14.4H8.23z"/><path id="g" d="M15.127 8.53l-3.086-3.086a1.029 1.029 0 00-.727-.301h-1.028V4.114c0-.272-.109-.534-.302-.727L6.9.301A1.028 1.028 0 006.17 0H3.086a2.057 2.057 0 00-2.057 2.057v7.2c0 1.136.92 2.057 2.057 2.057H6.17V14.4c0 1.136.921 2.057 2.058 2.057h5.142A2.057 2.057 0 0015.43 14.4V9.257c0-.273-.109-.534-.302-.727zm-2.181.727h-1.632V7.626l1.632 1.631zM7.803 4.114H6.17V2.483l1.632 1.631zM6.17 7.2v2.057H3.086v-7.2h2.057V4.63c0 .284.23.514.514.514H8.23A2.057 2.057 0 006.17 7.2zm2.058 7.2V7.2h2.057v2.571c0 .284.23.515.514.515h2.571V14.4H8.23z"/><path id="i" d="M16.411 7.92a8.563 8.563 0 00-8.182-5.863A8.563 8.563 0 00.046 7.92a1.029 1.029 0 000 .611A8.563 8.563 0 008.23 14.4a8.563 8.563 0 008.182-5.863c.063-.2.063-.416 0-.617zM8.743 5.143a1.543 1.543 0 110 3.086 1.543 1.543 0 010-3.086zm-.514 7.2a6.512 6.512 0 01-6.113-4.114 6.234 6.234 0 012.571-3.086A4.068 4.068 0 004.114 7.2a4.114 4.114 0 008.229 0 4.068 4.068 0 00-.57-2.057 6.234 6.234 0 012.57 3.086 6.512 6.512 0 01-6.114 4.114z"/><path id="k" d="M5.143 1.029a1.029 1.029 0 110 2.057H4.114c-.568 0-1.028.46-1.028 1.028v8.229c0 .568.46 1.028 1.028 1.028h8.229c.568 0 1.028-.46 1.028-1.028v-1.029a1.029 1.029 0 012.058 0v1.029a3.086 3.086 0 01-3.086 3.086H4.114a3.086 3.086 0 01-3.085-3.086V4.114A3.086 3.086 0 014.114 1.03zm9.27 0a1.029 1.029 0 011.028 1.028V7.2a1.029 1.029 0 11-2.057 0V4.54L9.997 7.927a1.029 1.029 0 11-1.454-1.454l3.387-3.387H9.27a1.029 1.029 0 110-2.057z"/><filter id="c" width="106.4%" height="108.8%" x="-3.2%" y="-3.7%" filterUnits="objectBoundingBox"><feOffset dy="2" in="SourceAlpha" result="shadowOffsetOuter1"/><feGaussianBlur in="shadowOffsetOuter1" result="shadowBlurOuter1" stdDeviation="3.5"/><feColorMatrix in="shadowBlurOuter1" values="0 0 0 0 0.125490196 0 0 0 0 0.0705882353 0 0 0 0 0.22745098 0 0 0 0.24 0"/></filter></defs><g fill="none" fill-rule="evenodd" transform="translate(-6 -3)"><mask id="b" fill="#fff"><use xlink:href="#a"/></mask><g mask="url(#b)"><use fill="#000" filter="url(#c)" xlink:href="#d"/><use fill="#FFF" xlink:href="#d"/></g><g mask="url(#b)"><path fill="#FFF" stroke="#D5D5D5" stroke-width=".72" d="M49.5 72.54h305.1a3.96 3.96 0 013.96 3.96v183.96H45.54V76.5a3.96 3.96 0 013.96-3.96z"/><path stroke="#DCDCDC" stroke-linecap="square" d="M61.5 204.5h277"/><g transform="translate(320.4 168.3)"><path d="M0 0h16.457v16.457H0z"/><mask id="f" fill="#fff"><use xlink:href="#e"/></mask><use fill="#000" fill-rule="nonzero" xlink:href="#e"/><g fill="#4A4A4F" mask="url(#f)"><path d="M0 0h16v16H0z"/></g></g><path fill="#20123A" fill-rule="nonzero" d="M64.455 238.39c0 .45-.146.822-.439 1.117-.293.295-.664.443-1.114.443-.45 0-.822-.148-1.115-.443-.293-.295-.44-.668-.44-1.118 0-.45.147-.82.44-1.11.293-.292.665-.437 1.115-.437.45 0 .821.145 1.114.436.293.29.44.661.44 1.111zm4.882 0c0 .45-.147.822-.44 1.117-.293.295-.664.443-1.114.443-.45 0-.822-.148-1.114-.443-.293-.295-.44-.668-.44-1.118 0-.45.147-.82.44-1.11.292-.292.664-.437 1.114-.437.45 0 .821.145 1.114.436.293.29.44.661.44 1.111zm4.881 0c0 .45-.146.822-.44 1.117-.292.295-.664.443-1.114.443-.45 0-.821-.148-1.114-.443-.293-.295-.44-.668-.44-1.118 0-.45.147-.82.44-1.11.293-.292.664-.437 1.114-.437.45 0 .822.145 1.115.436.293.29.44.661.44 1.111zm4.882 0c0 .45-.147.822-.44 1.117-.293.295-.664.443-1.114.443-.45 0-.822-.148-1.115-.443-.293-.295-.44-.668-.44-1.118 0-.45.147-.82.44-1.11.293-.292.665-.437 1.115-.437.45 0 .821.145 1.114.436.293.29.44.661.44 1.111zm4.881 0c0 .45-.146.822-.44 1.117-.292.295-.664.443-1.114.443-.45 0-.821-.148-1.114-.443-.293-.295-.44-.668-.44-1.118 0-.45.147-.82.44-1.11.293-.292.664-.437 1.114-.437.45 0 .822.145 1.115.436.293.29.44.661.44 1.111zm4.881 0c0 .45-.146.822-.439 1.117-.293.295-.664.443-1.114.443-.45 0-.822-.148-1.115-.443-.293-.295-.44-.668-.44-1.118 0-.45.147-.82.44-1.11.293-.292.665-.437 1.115-.437.45 0 .821.145 1.114.436.293.29.44.661.44 1.111zm4.882 0c0 .45-.147.822-.44 1.117-.293.295-.664.443-1.114.443-.45 0-.821-.148-1.114-.443-.293-.295-.44-.668-.44-1.118 0-.45.147-.82.44-1.11.293-.292.664-.437 1.114-.437.45 0 .821.145 1.114.436.293.29.44.661.44 1.111zm4.881 0c0 .45-.146.822-.44 1.117-.292.295-.664.443-1.114.443-.45 0-.821-.148-1.114-.443-.293-.295-.44-.668-.44-1.118 0-.45.147-.82.44-1.11.293-.292.664-.437 1.114-.437.45 0 .822.145 1.115.436.293.29.44.661.44 1.111zm4.882 0c0 .45-.147.822-.44 1.117-.293.295-.664.443-1.114.443-.45 0-.822-.148-1.115-.443-.293-.295-.44-.668-.44-1.118 0-.45.147-.82.44-1.11.293-.292.665-.437 1.115-.437.45 0 .821.145 1.114.436.293.29.44.661.44 1.111zm4.881 0c0 .45-.146.822-.44 1.117-.292.295-.664.443-1.114.443-.45 0-.821-.148-1.114-.443-.293-.295-.44-.668-.44-1.118 0-.45.147-.82.44-1.11.293-.292.664-.437 1.114-.437.45 0 .822.145 1.115.436.293.29.44.661.44 1.111zm4.882 0c0 .45-.147.822-.44 1.117-.293.295-.664.443-1.114.443-.45 0-.822-.148-1.115-.443-.293-.295-.44-.668-.44-1.118 0-.45.147-.82.44-1.11.293-.292.665-.437 1.115-.437.45 0 .821.145 1.114.436.293.29.44.661.44 1.111zm4.88 0c0 .45-.146.822-.439 1.117-.292.295-.664.443-1.114.443-.45 0-.821-.148-1.114-.443-.293-.295-.44-.668-.44-1.118 0-.45.147-.82.44-1.11.293-.292.664-.437 1.114-.437.45 0 .822.145 1.114.436.293.29.44.661.44 1.111zm4.882 0c0 .45-.146.822-.44 1.117-.292.295-.664.443-1.114.443-.45 0-.821-.148-1.114-.443-.293-.295-.44-.668-.44-1.118 0-.45.147-.82.44-1.11.293-.292.664-.437 1.114-.437.45 0 .822.145 1.115.436.293.29.44.661.44 1.111z"/><g transform="translate(320.4 225)"><path d="M0 0h16.457v16.457H0z"/><mask id="h" fill="#fff"><use xlink:href="#g"/></mask><use fill="#000" fill-rule="nonzero" xlink:href="#g"/><g fill="#4A4A4F" mask="url(#h)"><path d="M0 0h16v16H0z"/></g></g><g transform="translate(282.6 225)"><path d="M0 0h16.457v16.457H0z"/><mask id="j" fill="#fff"><use xlink:href="#i"/></mask><g fill="#4A4A4F" mask="url(#j)"><path d="M0 0h16v16H0z"/></g></g><path fill="#5B5B66" fill-rule="nonzero" d="M61.3 218.608h3.776c.746 0 1.348.21 1.805.631.457.42.686 1.012.686 1.774 0 .655-.204 1.225-.611 1.71-.408.486-1.035.73-1.88.73h-2.64V227H61.3v-8.392zm5.119 2.41c0-.616-.229-1.035-.686-1.256-.251-.118-.596-.177-1.034-.177h-2.262v2.908h2.262c.51 0 .924-.109 1.242-.326.318-.217.478-.6.478-1.148zm3.047 4.354c0 .297.109.531.326.703.217.17.474.257.771.257.362 0 .712-.084 1.051-.252.572-.278.857-.733.857-1.365v-.829a1.76 1.76 0 01-.485.2 4.138 4.138 0 01-.583.115l-.623.08c-.373.05-.653.127-.84.234-.316.179-.474.465-.474.857zm2.491-2.08c.236-.03.394-.13.474-.297a.904.904 0 00.069-.394c0-.35-.125-.605-.374-.763-.25-.158-.607-.237-1.072-.237-.537 0-.917.145-1.142.434-.126.16-.208.398-.246.715h-.96c.02-.754.264-1.28.735-1.574.47-.295 1.016-.443 1.636-.443.72 0 1.305.137 1.754.411.446.275.669.701.669 1.28v3.525c0 .106.021.192.065.257s.136.097.277.097l.155-.009a2.47 2.47 0 00.182-.025v.76l-.211.055a1.708 1.708 0 01-.497.047c-.354 0-.611-.125-.771-.377-.084-.133-.143-.321-.177-.565-.21.274-.51.512-.903.714a2.792 2.792 0 01-1.297.303c-.567 0-1.031-.173-1.39-.517a1.717 1.717 0 01-.54-1.294c0-.568.176-1.008.53-1.32.355-.312.82-.505 1.395-.577l1.64-.206zm3.66 1.788c.03.343.115.606.256.789.26.331.709.497 1.348.497.381 0 .717-.083 1.006-.249.29-.165.434-.421.434-.768a.657.657 0 00-.348-.6c-.149-.084-.442-.18-.88-.291l-.817-.206c-.522-.13-.907-.274-1.154-.434-.442-.278-.663-.663-.663-1.154 0-.579.209-1.047.626-1.405.417-.358.978-.537 1.682-.537.922 0 1.587.27 1.994.81.255.344.379.713.371 1.11h-.97a1.19 1.19 0 00-.246-.635c-.237-.27-.646-.406-1.229-.406-.388 0-.682.075-.882.223-.2.149-.3.345-.3.589 0 .266.131.48.394.64.152.095.377.178.674.25l.68.166c.739.18 1.234.353 1.485.52.4.263.6.676.6 1.24 0 .545-.207 1.015-.62 1.411-.413.396-1.042.594-1.888.594-.91 0-1.555-.206-1.934-.62-.379-.413-.581-.924-.608-1.534h.988zm5.67 0c.03.343.115.606.256.789.26.331.709.497 1.348.497.381 0 .717-.083 1.006-.249.29-.165.434-.421.434-.768a.657.657 0 00-.348-.6c-.149-.084-.442-.18-.88-.291l-.817-.206c-.522-.13-.907-.274-1.154-.434-.442-.278-.663-.663-.663-1.154 0-.579.209-1.047.626-1.405.417-.358.978-.537 1.682-.537.922 0 1.587.27 1.994.81.255.344.379.713.371 1.11h-.97a1.19 1.19 0 00-.246-.635c-.237-.27-.646-.406-1.229-.406-.388 0-.682.075-.882.223-.2.149-.3.345-.3.589 0 .266.131.48.394.64.152.095.377.178.674.25l.68.166c.739.18 1.234.353 1.485.52.4.263.6.676.6 1.24 0 .545-.207 1.015-.62 1.411-.413.396-1.042.594-1.888.594-.91 0-1.555-.206-1.934-.62-.379-.413-.581-.924-.608-1.534h.988zm5.532-4.199l1.177 4.822 1.194-4.822h1.154l1.2 4.794 1.25-4.794h1.03L92.045 227h-1.068l-1.245-4.736L88.527 227H87.46l-1.765-6.119h1.125zm10.223 5.456c.682 0 1.15-.258 1.403-.774.253-.516.38-1.09.38-1.722 0-.572-.092-1.036-.275-1.394-.289-.564-.788-.846-1.496-.846-.629 0-1.086.24-1.371.72-.286.48-.429 1.059-.429 1.737 0 .651.143 1.194.429 1.628.285.434.738.651 1.36.651zm.04-5.633c.789 0 1.455.263 2 .789.544.525.817 1.298.817 2.32 0 .986-.24 1.8-.72 2.444-.48.644-1.225.966-2.234.966-.842 0-1.51-.285-2.005-.854-.495-.57-.743-1.334-.743-2.294 0-1.028.261-1.847.783-2.457.522-.609 1.222-.914 2.102-.914zm3.888.177h.977v1.057c.08-.205.276-.456.588-.75a1.526 1.526 0 011.08-.444l.056.003.275.026v1.085a1.536 1.536 0 00-.168-.022l-.169-.006c-.518 0-.916.166-1.194.5a1.745 1.745 0 00-.417 1.15V227h-1.028v-6.119zm4.339 3.131c0 .655.139 1.204.417 1.645.278.442.723.663 1.337.663.476 0 .867-.205 1.174-.614.306-.41.46-.997.46-1.762 0-.774-.159-1.346-.475-1.717-.316-.371-.706-.557-1.17-.557-.519 0-.939.198-1.26.594-.322.396-.483.979-.483 1.748zm1.548-3.24c.468 0 .86.1 1.177.298.183.114.39.314.622.6v-3.09h.989V227h-.926v-.851c-.24.377-.523.65-.85.817a2.436 2.436 0 01-1.126.251c-.682 0-1.272-.287-1.771-.86-.5-.573-.749-1.336-.749-2.288 0-.89.228-1.663.683-2.316.455-.653 1.105-.98 1.95-.98z"/><g fill-rule="nonzero"><path fill="#20123A" d="M62.317 186.62c0 .39.142.696.426.92.284.224.62.336 1.008.336.474 0 .932-.11 1.375-.329.747-.363 1.12-.959 1.12-1.785v-1.084a2.3 2.3 0 01-.634.262c-.26.07-.513.12-.762.15l-.815.104c-.488.065-.854.167-1.098.306-.413.234-.62.608-.62 1.12zm3.257-2.718c.31-.04.516-.17.62-.389.06-.12.09-.291.09-.515 0-.459-.163-.791-.49-.998-.326-.206-.792-.31-1.4-.31-.702 0-1.2.19-1.494.568-.165.21-.272.52-.321.934h-1.256c.025-.986.345-1.672.96-2.058.616-.386 1.329-.58 2.14-.58.942 0 1.707.18 2.294.539.583.358.874.916.874 1.673v4.61c0 .139.029.25.086.336.058.084.178.127.363.127a3.23 3.23 0 00.44-.045v.993l-.227.061a2.496 2.496 0 01-.25.051c-.11.015-.26.023-.449.023-.463 0-.8-.165-1.008-.493-.11-.175-.187-.421-.232-.74-.274.359-.667.67-1.18.934a3.651 3.651 0 01-1.696.396c-.742 0-1.349-.225-1.82-.676-.47-.45-.705-1.015-.705-1.692 0-.742.231-1.318.694-1.726.464-.408 1.071-.66 1.823-.755l2.144-.268zm5.02 2.338c.04.448.153.792.337 1.03.338.434.926.65 1.763.65.498 0 .936-.108 1.315-.324.378-.217.568-.552.568-1.005 0-.344-.152-.605-.456-.784-.17-.096-.485-.206-.945-.328l-1.274-.322c-.682-.17-1.185-.359-1.51-.568-.577-.364-.866-.867-.866-1.51 0-.756.273-1.369.818-1.837.546-.468 1.28-.702 2.2-.702 1.206 0 2.075.353 2.608 1.06.333.449.495.932.485 1.45h-1.27a1.556 1.556 0 00-.32-.83c-.31-.353-.845-.53-1.607-.53-.508 0-.893.097-1.154.292a.913.913 0 00-.393.769c0 .349.172.628.516.837.2.124.493.234.881.328l.89.217c.966.234 1.613.46 1.942.68.523.344.784.884.784 1.621 0 .712-.27 1.327-.81 1.845s-1.364.777-2.47.777c-1.19 0-2.033-.27-2.528-.81-.496-.54-.76-1.21-.796-2.006h1.293zm7.882.38c0 .39.142.696.426.92.284.224.62.336 1.009.336.473 0 .93-.11 1.374-.329.747-.363 1.12-.959 1.12-1.785v-1.084a2.3 2.3 0 01-.634.262c-.26.07-.513.12-.762.15l-.815.104c-.488.065-.854.167-1.098.306-.413.234-.62.608-.62 1.12zm3.257-2.718c.31-.04.516-.17.62-.389.06-.12.09-.291.09-.515 0-.459-.163-.791-.49-.998-.325-.206-.792-.31-1.4-.31-.702 0-1.2.19-1.494.568-.164.21-.272.52-.321.934h-1.255c.025-.986.345-1.672.96-2.058.615-.386 1.328-.58 2.14-.58.941 0 1.706.18 2.293.539.583.358.875.916.875 1.673v4.61c0 .139.028.25.085.336.058.084.179.127.363.127a3.23 3.23 0 00.44-.045v.993l-.227.061a2.496 2.496 0 01-.25.051c-.11.015-.26.023-.449.023-.463 0-.8-.165-1.008-.493-.11-.175-.187-.421-.232-.74-.274.359-.667.67-1.18.934a3.651 3.651 0 01-1.696.396c-.742 0-1.349-.225-1.82-.676-.47-.45-.705-1.015-.705-1.692 0-.742.231-1.318.695-1.726.463-.408 1.07-.66 1.822-.755l2.144-.268zm5.073.94c0 .857.182 1.575.545 2.152.364.578.947.867 1.749.867.622 0 1.134-.268 1.535-.803.4-.536.601-1.304.601-2.305 0-1.01-.207-1.76-.62-2.245-.413-.485-.924-.728-1.531-.728-.678 0-1.227.259-1.648.777-.42.518-.63 1.28-.63 2.286zm2.025-4.235c.612 0 1.125.13 1.539.388.239.15.51.411.814.785v-4.042h1.292v11.012h-1.21v-1.113c-.314.493-.685.849-1.113 1.068-.428.22-.919.329-1.472.329-.891 0-1.663-.375-2.316-1.124-.652-.75-.978-1.747-.978-2.992 0-1.166.297-2.176.892-3.03.596-.854 1.446-1.281 2.552-1.281zm8.808 7.276c.891 0 1.502-.337 1.834-1.012.33-.675.496-1.426.496-2.252 0-.747-.12-1.355-.358-1.823-.379-.737-1.031-1.106-1.957-1.106-.822 0-1.42.314-1.793.941-.374.628-.56 1.385-.56 2.272 0 .851.186 1.561.56 2.129.373.568.966.851 1.778.851zm.052-7.366c1.03 0 1.902.344 2.615 1.031.712.688 1.068 1.699 1.068 3.033 0 1.29-.314 2.356-.941 3.198-.628.842-1.602 1.262-2.921 1.262-1.101 0-1.975-.372-2.623-1.117-.647-.744-.97-1.744-.97-2.999 0-1.345.34-2.416 1.023-3.212.682-.797 1.598-1.196 2.749-1.196zm5.55-2.002h1.36v2.234h1.278v1.098H104.6v5.222c0 .279.095.466.284.56.105.055.28.083.523.083l.21-.004c.074-.003.161-.009.26-.019v1.061a3.002 3.002 0 01-.481.097c-.167.02-.347.03-.542.03-.627 0-1.053-.16-1.277-.482-.224-.321-.336-.738-.336-1.251v-5.297h-1.084v-1.098h1.084v-2.234zm3.385 9.174l4.744-5.737h-4.393v-1.203h6.2v1.098l-4.713 5.7h4.856v1.203h-6.694v-1.06zm8.285-9.913h1.345v10.974h-1.345v-10.974zm6.694 2.794a3.65 3.65 0 011.65.4c.534.266.94.61 1.218 1.034.224.336.386.719.486 1.149l.052.263c.08.368.12.956.12 1.763h-5.865c.025.812.217 1.463.576 1.954.358.49.913.735 1.665.735.703 0 1.263-.231 1.681-.694.24-.27.409-.58.508-.934h1.323c-.035.294-.151.621-.348.982a3.494 3.494 0 01-.66.886 3.134 3.134 0 01-1.517.806c-.324.08-.69.12-1.099.12-.996 0-1.84-.362-2.532-1.087s-1.039-1.74-1.039-3.044c0-1.285.349-2.329 1.046-3.13.698-.802 1.609-1.203 2.735-1.203zm2.144 3.54c-.055-.582-.182-1.048-.381-1.396-.369-.648-.984-.972-1.846-.972-.617 0-1.135.223-1.553.67-.419.445-.64 1.011-.665 1.699h4.445zm3.07-3.361h1.278v1.382c.104-.269.36-.596.77-.982.408-.386.878-.58 1.411-.58l.073.004.36.034v1.42a2.009 2.009 0 00-.44-.038c-.678 0-1.198.218-1.562.654a2.282 2.282 0 00-.545 1.505v4.602h-1.345v-8.001z"/><path fill="#5B5B66" d="M62.425 161.908v5.187c0 .61.114 1.116.343 1.52.339.61.91.914 1.714.914.963 0 1.618-.33 1.965-.989.187-.358.28-.84.28-1.445v-5.187h1.154v4.713c0 1.032-.139 1.826-.417 2.382-.51 1.013-1.474 1.52-2.89 1.52-1.418 0-2.38-.507-2.886-1.52-.278-.556-.417-1.35-.417-2.382v-4.713h1.154zm7.51 6.472c.03.343.116.606.257.789.259.331.708.497 1.348.497.38 0 .716-.083 1.006-.249.289-.165.434-.421.434-.768a.657.657 0 00-.349-.6c-.148-.084-.442-.18-.88-.291l-.816-.206c-.522-.13-.907-.274-1.155-.434-.441-.278-.662-.663-.662-1.154 0-.579.208-1.047.625-1.405.417-.358.978-.537 1.683-.537.921 0 1.586.27 1.994.81.255.344.379.713.37 1.11h-.97a1.19 1.19 0 00-.246-.635c-.236-.27-.645-.406-1.228-.406-.389 0-.683.075-.883.223-.2.149-.3.345-.3.589 0 .266.132.48.394.64.153.095.377.178.675.25l.68.166c.738.18 1.233.353 1.485.52.4.263.6.676.6 1.24 0 .545-.207 1.015-.62 1.411-.413.396-1.043.594-1.888.594-.91 0-1.555-.206-1.934-.62-.38-.413-.582-.924-.609-1.534h.989zm7.606-4.336c.435 0 .855.102 1.263.306.407.204.718.468.931.791.206.309.343.669.411 1.08.061.282.092.731.092 1.348h-4.485c.02.621.166 1.119.44 1.494s.699.563 1.274.563c.537 0 .966-.177 1.286-.531.182-.206.312-.444.388-.715h1.011a2.13 2.13 0 01-.265.752c-.15.276-.32.501-.506.677-.312.304-.699.51-1.16.617-.247.06-.527.091-.84.091a2.577 2.577 0 01-1.936-.831c-.53-.554-.794-1.33-.794-2.328 0-.983.266-1.78.8-2.394.533-.613 1.23-.92 2.09-.92zm1.64 2.708c-.042-.445-.139-.801-.291-1.068-.282-.495-.753-.743-1.411-.743-.473 0-.869.17-1.189.512-.32.34-.49.774-.508 1.3h3.399zm2.168-2.57h.977v1.056c.08-.205.276-.456.588-.75a1.526 1.526 0 011.08-.444l.19.015.141.014v1.085a1.536 1.536 0 00-.168-.022l-.169-.006c-.518 0-.916.166-1.194.5a1.745 1.745 0 00-.417 1.15v3.52H81.35v-6.119zm3.688 0h.977v.868c.289-.358.596-.615.92-.771a2.453 2.453 0 011.08-.235c.867 0 1.454.303 1.759.909.167.331.251.805.251 1.422v3.925h-1.045v-3.856c0-.373-.056-.674-.166-.903-.183-.38-.514-.571-.994-.571-.244 0-.444.025-.6.074-.282.084-.53.252-.743.503-.171.202-.282.41-.334.625-.051.216-.077.523-.077.923v3.205h-1.028v-6.119zm7.115 4.49c0 .297.109.531.326.703.217.17.474.257.77.257.363 0 .713-.084 1.052-.252.571-.278.857-.733.857-1.365v-.829a1.76 1.76 0 01-.486.2 4.138 4.138 0 01-.582.115l-.623.08c-.373.05-.653.127-.84.234-.316.179-.474.465-.474.857zm2.49-2.08c.237-.03.395-.13.475-.297a.904.904 0 00.069-.394c0-.35-.125-.605-.375-.763-.25-.158-.606-.237-1.07-.237-.538 0-.919.145-1.143.434-.126.16-.208.398-.246.715h-.96c.02-.754.264-1.28.734-1.574.47-.295 1.016-.443 1.637-.443.72 0 1.304.137 1.754.411.446.275.668.701.668 1.28v3.525c0 .106.022.192.066.257.044.065.136.097.277.097l.154-.009a2.47 2.47 0 00.183-.025v.76l-.211.055a1.708 1.708 0 01-.497.047c-.354 0-.612-.125-.772-.377-.083-.133-.142-.321-.177-.565-.21.274-.51.512-.902.714a2.792 2.792 0 01-1.297.303c-.568 0-1.031-.173-1.391-.517a1.717 1.717 0 01-.54-1.294c0-.568.177-1.008.531-1.32.354-.312.82-.505 1.394-.577l1.64-.206zm3.049-2.41h1.016v.868c.244-.301.465-.52.663-.657a1.993 1.993 0 011.154-.349c.488 0 .88.12 1.177.36.168.137.32.34.457.606.229-.328.497-.57.806-.729a2.247 2.247 0 011.04-.237c.822 0 1.382.297 1.679.892.16.32.24.75.24 1.29v4.074h-1.068v-4.25c0-.408-.102-.688-.306-.84a1.21 1.21 0 00-.746-.229 1.48 1.48 0 00-1.042.406c-.292.27-.437.722-.437 1.354v3.559h-1.046v-3.993c0-.415-.05-.718-.148-.909-.156-.285-.448-.428-.874-.428-.389 0-.742.15-1.06.451-.318.301-.477.846-.477 1.634v3.245H97.69v-6.119zm12.114-.138c.434 0 .855.102 1.262.306.408.204.718.468.931.791.165.247.286.527.362.84l.05.24c.06.282.091.731.091 1.348h-4.484c.019.621.165 1.119.44 1.494.274.375.698.563 1.273.563.537 0 .966-.177 1.286-.531.183-.206.312-.444.388-.715h1.012a2.13 2.13 0 01-.266.752c-.15.276-.32.501-.506.677-.312.304-.699.51-1.16.617-.247.06-.527.091-.84.091a2.577 2.577 0 01-1.936-.831c-.53-.554-.794-1.33-.794-2.328 0-.983.267-1.78.8-2.394.533-.613 1.23-.92 2.09-.92zm-.063.897c-.472 0-.868.17-1.188.512-.32.34-.49.774-.509 1.3h3.4c-.043-.446-.14-.802-.292-1.069-.282-.495-.752-.743-1.411-.743z"/></g><g><path fill="#FFF" d="M45.9 92.7h312.3v55.8H45.9z"/><g transform="translate(320.4 112.5)"><path d="M0 0h16.457v16.457H0z"/><mask id="l" fill="#fff"><use xlink:href="#k"/></mask><use fill="#000" fill-rule="nonzero" xlink:href="#k"/><g fill="#4A4A4F" mask="url(#l)"><path d="M0 0h16v16H0z"/></g></g><path fill="#592ACB" fill-rule="nonzero" d="M61.286 121.938h1.345v4.094c.319-.403.605-.687.859-.852.433-.283.974-.425 1.621-.425 1.16 0 1.947.406 2.36 1.217.225.444.337 1.059.337 1.846v5.132h-1.382v-5.043c0-.587-.075-1.018-.224-1.292-.244-.438-.702-.658-1.375-.658-.558 0-1.063.192-1.516.576-.454.383-.68 1.108-.68 2.174v4.243h-1.345v-11.012zm8.778.777h1.36v2.234H72.7v1.098h-1.277v5.222c0 .279.095.466.284.56.104.055.279.083.523.083l.209-.004c.075-.003.162-.009.261-.019v1.061a3.002 3.002 0 01-.481.097c-.167.02-.348.03-.542.03-.628 0-1.053-.16-1.278-.482-.224-.321-.336-.738-.336-1.251v-5.297h-1.083v-1.098h1.083v-2.234zm4.251 0h1.36v2.234h1.277v1.098h-1.277v5.222c0 .279.094.466.284.56.104.055.278.083.523.083l.209-.004c.074-.003.162-.009.261-.019v1.061a3.002 3.002 0 01-.482.097c-.167.02-.347.03-.541.03-.628 0-1.054-.16-1.278-.482-.224-.321-.336-.738-.336-1.251v-5.297h-1.083v-1.098h1.083v-2.234zm7.359 9.331c.627 0 1.149-.263 1.565-.788.416-.526.624-1.311.624-2.357 0-.638-.093-1.185-.277-1.644-.348-.881-.986-1.322-1.912-1.322-.932 0-1.57.466-1.913 1.397-.184.498-.276 1.13-.276 1.898 0 .617.092 1.143.276 1.576.349.827.986 1.24 1.913 1.24zm-3.482-7.06H79.5v1.061c.269-.364.562-.645.881-.844.453-.299.986-.448 1.599-.448.906 0 1.676.347 2.308 1.042.633.695.95 1.687.95 2.977 0 1.743-.457 2.988-1.368 3.735-.578.473-1.25.71-2.017.71-.603 0-1.108-.132-1.517-.396-.239-.15-.505-.406-.799-.77v4.087h-1.345v-11.154zm9.413 5.454c.04.448.152.792.337 1.03.338.434.926.65 1.763.65.498 0 .936-.108 1.315-.324.378-.217.567-.552.567-1.005 0-.344-.152-.605-.455-.784-.17-.096-.485-.206-.945-.328l-1.274-.322c-.683-.17-1.186-.359-1.51-.568-.577-.364-.866-.867-.866-1.51 0-.756.273-1.369.818-1.837.546-.468 1.279-.702 2.2-.702 1.206 0 2.075.353 2.608 1.06.333.449.495.932.485 1.45h-1.27a1.556 1.556 0 00-.321-.83c-.309-.353-.844-.53-1.606-.53-.508 0-.893.097-1.155.292a.913.913 0 00-.392.769c0 .349.172.628.516.837.199.124.493.234.881.328l.89.217c.965.234 1.613.46 1.942.68.523.344.784.884.784 1.621 0 .712-.27 1.327-.81 1.845s-1.364.777-2.47.777c-1.19 0-2.033-.27-2.528-.81-.496-.54-.761-1.21-.796-2.006h1.292zm7.56-5.387h1.562v1.63h-1.561v-1.63zm0 6.268h1.562v1.629h-1.561v-1.629zm6.037-9.345h1.136l-3.482 10.974h-1.135l3.481-10.974zm4.25 0h1.136l-3.48 10.974h-1.136l3.48-10.974zm2.025.74h1.36v2.233h1.278v1.098h-1.278v5.222c0 .279.095.466.284.56.105.055.279.083.523.083l.21-.004c.074-.003.161-.009.26-.019v1.061a3.002 3.002 0 01-.481.097c-.167.02-.348.03-.542.03-.627 0-1.053-.16-1.277-.482-.224-.321-.337-.738-.337-1.251v-5.297h-1.083v-1.098h1.083v-2.234zm4.602 2.233l1.54 6.305 1.56-6.305h1.51l1.569 6.268 1.636-6.268h1.345l-2.324 8.001h-1.397l-1.628-6.193-1.577 6.193h-1.397l-2.308-8.001h1.471zm10.43.037h1.367v7.964h-1.367v-7.964zm0-3.01h1.367v1.524h-1.367v-1.524zm3.668.74h1.36v2.233h1.277v1.098h-1.278v5.222c0 .279.095.466.284.56.105.055.28.083.523.083l.21-.004c.074-.003.161-.009.26-.019v1.061a3.002 3.002 0 01-.481.097c-.167.02-.347.03-.542.03-.627 0-1.053-.16-1.277-.482-.224-.321-.336-.738-.336-1.251v-5.297h-1.084v-1.098h1.084v-2.234zm4.25 0h1.36v2.233h1.278v1.098h-1.278v5.222c0 .279.095.466.284.56.105.055.279.083.523.083l.21-.004c.074-.003.161-.009.26-.019v1.061a3.002 3.002 0 01-.481.097c-.167.02-.348.03-.542.03-.627 0-1.053-.16-1.277-.482-.224-.321-.337-.738-.337-1.251v-5.297h-1.083v-1.098h1.083v-2.234zm7.314 2.054a3.65 3.65 0 011.651.4c.533.266.94.61 1.218 1.034.224.336.386.719.486 1.149l.052.263c.08.368.12.956.12 1.763h-5.865c.025.812.217 1.463.575 1.954.359.49.914.735 1.666.735.702 0 1.263-.231 1.681-.694.24-.27.408-.58.508-.934h1.322c-.034.294-.15.621-.347.982a3.494 3.494 0 01-.661.886 3.134 3.134 0 01-1.517.806c-.323.08-.69.12-1.098.12-.996 0-1.84-.362-2.532-1.087-.693-.725-1.039-1.74-1.039-3.044 0-1.285.349-2.329 1.046-3.13.697-.802 1.609-1.203 2.734-1.203zm2.144 3.54c-.054-.582-.181-1.048-.38-1.396-.37-.648-.984-.972-1.846-.972-.617 0-1.135.223-1.554.67-.418.445-.64 1.011-.665 1.699h4.445zm3.07-3.361h1.278v1.382c.105-.269.361-.596.77-.982.408-.386.879-.58 1.412-.58l.073.004.36.034v1.42a2.009 2.009 0 00-.44-.038c-.678 0-1.198.218-1.562.654a2.282 2.282 0 00-.545 1.505v4.602h-1.345v-8.001zm5.38 6.372h1.561v1.629h-1.561v-1.629zm7.015-6.604c.901 0 1.635.22 2.2.658.565.438.905 1.193 1.02 2.263h-1.308c-.08-.493-.261-.902-.545-1.229-.284-.326-.74-.489-1.367-.489-.857 0-1.47.418-1.838 1.255-.24.543-.359 1.213-.359 2.01 0 .802.17 1.476.508 2.024.339.548.872.822 1.6.822.557 0 .999-.17 1.325-.512.326-.34.552-.808.676-1.4h1.308c-.15 1.06-.523 1.836-1.121 2.327-.598.49-1.362.736-2.293.736-1.046 0-1.88-.383-2.503-1.147-.623-.765-.934-1.72-.934-2.865 0-1.405.341-2.498 1.023-3.28.683-.782 1.552-1.173 2.608-1.173zm7.74 7.366c.89 0 1.502-.337 1.833-1.012.332-.675.497-1.426.497-2.252 0-.747-.12-1.355-.358-1.823-.379-.737-1.031-1.106-1.958-1.106-.821 0-1.42.314-1.793.941-.373.628-.56 1.385-.56 2.272 0 .851.187 1.561.56 2.129.374.568.967.851 1.778.851zm.052-7.366c1.03 0 1.902.344 2.614 1.031.713.688 1.069 1.699 1.069 3.033 0 1.29-.314 2.356-.942 3.198-.627.842-1.6 1.262-2.92 1.262-1.101 0-1.975-.372-2.623-1.117-.647-.744-.971-1.744-.971-2.999 0-1.345.341-2.416 1.023-3.212.683-.797 1.6-1.196 2.75-1.196zm5.281.232h1.33v1.135c.319-.393.608-.68.867-.859a2.606 2.606 0 011.509-.455c.637 0 1.15.156 1.539.47.22.18.418.443.598.792.298-.428.65-.746 1.053-.952.403-.207.857-.31 1.36-.31 1.075 0 1.808.388 2.196 1.165.21.418.314.981.314 1.688v5.327h-1.397v-5.558c0-.533-.133-.9-.4-1.098-.266-.2-.591-.3-.975-.3-.528 0-.982.178-1.363.531-.381.354-.572.944-.572 1.77v4.655h-1.367v-5.222c0-.543-.065-.939-.194-1.188-.204-.373-.585-.56-1.143-.56-.508 0-.97.197-1.386.59-.416.393-.624 1.106-.624 2.137v4.243h-1.345v-8.001z"/><path fill="#5B5B66" fill-rule="nonzero" d="M61.745 106.108l1.583 6.827 1.897-6.827h1.233l1.897 6.827 1.583-6.827h1.245l-2.205 8.392h-1.194l-1.937-6.958L63.9 114.5h-1.194l-2.194-8.392h1.234zm12.514 2.136c.435 0 .855.102 1.263.306.407.204.718.468.931.791.206.309.343.669.411 1.08.061.282.092.731.092 1.348H72.47c.02.621.166 1.119.44 1.494s.699.563 1.274.563c.537 0 .966-.177 1.286-.531.182-.206.312-.444.388-.715h1.011a2.13 2.13 0 01-.265.752c-.15.276-.32.501-.506.677-.312.304-.699.51-1.16.617-.247.06-.527.091-.84.091a2.577 2.577 0 01-1.936-.831c-.53-.554-.794-1.33-.794-2.328 0-.983.266-1.78.8-2.394.533-.613 1.23-.92 2.09-.92zm1.64 2.708c-.042-.445-.139-.801-.291-1.068-.282-.495-.753-.743-1.411-.743-.473 0-.869.17-1.189.512-.32.34-.49.774-.508 1.3h3.399zm2.06-4.873h1v3.045a2.28 2.28 0 01.805-.671 2.265 2.265 0 011.017-.231c.761 0 1.38.261 1.853.785.475.524.712 1.296.712 2.317 0 .967-.235 1.77-.703 2.41-.468.64-1.118.96-1.948.96-.465 0-.857-.112-1.177-.337-.19-.133-.394-.346-.611-.64v.783h-.949v-8.42zm2.673 7.707c.556 0 .972-.221 1.248-.663.276-.442.415-1.024.415-1.748 0-.644-.139-1.177-.415-1.6-.276-.422-.682-.634-1.22-.634-.468 0-.878.174-1.23.52-.353.347-.529.918-.529 1.714 0 .575.072 1.042.217 1.4.27.674.775 1.01 1.514 1.01zm10.609-2.725l-1.274-3.708-1.354 3.708h2.628zm-1.868-4.953h1.285l3.045 8.392h-1.245l-.852-2.514h-3.319l-.908 2.514h-1.166l3.16-8.392zm5.698 5.404c0 .655.14 1.204.417 1.645.278.442.724.663 1.337.663.476 0 .868-.205 1.174-.614.307-.41.46-.997.46-1.762 0-.774-.158-1.346-.474-1.717-.316-.371-.707-.557-1.171-.557-.518 0-.938.198-1.26.594-.322.396-.483.979-.483 1.748zm1.548-3.24c.469 0 .861.1 1.177.298.183.114.39.314.623.6v-3.09h.988v8.42h-.925v-.851c-.24.377-.524.65-.851.817a2.436 2.436 0 01-1.126.251c-.682 0-1.272-.287-1.77-.86-.5-.573-.75-1.336-.75-2.288 0-.89.228-1.663.684-2.316.455-.653 1.105-.98 1.95-.98zm4.78 3.24c0 .655.138 1.204.416 1.645.278.442.724.663 1.337.663.476 0 .868-.205 1.174-.614.307-.41.46-.997.46-1.762 0-.774-.158-1.346-.474-1.717-.316-.371-.707-.557-1.171-.557-.518 0-.938.198-1.26.594-.322.396-.483.979-.483 1.748zm1.547-3.24c.469 0 .861.1 1.177.298.183.114.39.314.623.6v-3.09h.988v8.42h-.925v-.851c-.24.377-.524.65-.851.817a2.436 2.436 0 01-1.126.251c-.682 0-1.272-.287-1.77-.86-.5-.573-.75-1.336-.75-2.288 0-.89.228-1.663.684-2.316.455-.653 1.105-.98 1.95-.98zm4.157.11h.976v1.056c.08-.205.277-.456.589-.75a1.526 1.526 0 011.08-.444l.055.003.276.026v1.085a1.536 1.536 0 00-.169-.022l-.168-.006c-.518 0-.916.166-1.194.5a1.745 1.745 0 00-.417 1.15v3.52h-1.028v-6.119zm6.235-.138c.434 0 .855.102 1.263.306.407.204.718.468.93.791.207.309.344.669.412 1.08.061.282.092.731.092 1.348h-4.485c.019.621.166 1.119.44 1.494s.699.563 1.274.563c.537 0 .965-.177 1.285-.531.183-.206.313-.444.389-.715h1.01a2.13 2.13 0 01-.265.752c-.15.276-.319.501-.505.677-.313.304-.7.51-1.16.617-.248.06-.528.091-.84.091a2.577 2.577 0 01-1.937-.831c-.529-.554-.794-1.33-.794-2.328 0-.983.267-1.78.8-2.394.533-.613 1.23-.92 2.091-.92zm1.64 2.708c-.042-.445-.14-.801-.292-1.068-.281-.495-.752-.743-1.41-.743-.473 0-.87.17-1.189.512-.32.34-.49.774-.508 1.3h3.399zm2.75 1.628c.03.343.117.606.258.789.259.331.708.497 1.348.497.38 0 .716-.083 1.005-.249.29-.165.434-.421.434-.768a.657.657 0 00-.348-.6c-.149-.084-.442-.18-.88-.291l-.817-.206c-.522-.13-.906-.274-1.154-.434-.442-.278-.663-.663-.663-1.154 0-.579.209-1.047.626-1.405.417-.358.978-.537 1.682-.537.922 0 1.587.27 1.994.81.255.344.38.713.372 1.11h-.972a1.19 1.19 0 00-.245-.635c-.236-.27-.646-.406-1.228-.406-.389 0-.683.075-.883.223-.2.149-.3.345-.3.589 0 .266.131.48.394.64.152.095.377.178.674.25l.68.166c.739.18 1.234.353 1.485.52.4.263.6.676.6 1.24 0 .545-.206 1.015-.62 1.411-.413.396-1.042.594-1.888.594-.91 0-1.555-.206-1.933-.62-.38-.413-.582-.924-.609-1.534h.988zm5.67 0c.03.343.117.606.258.789.259.331.708.497 1.348.497.38 0 .716-.083 1.005-.249.29-.165.434-.421.434-.768a.657.657 0 00-.348-.6c-.149-.084-.442-.18-.88-.291l-.817-.206c-.522-.13-.906-.274-1.154-.434-.442-.278-.663-.663-.663-1.154 0-.579.209-1.047.626-1.405.417-.358.978-.537 1.682-.537.922 0 1.587.27 1.994.81.255.344.38.713.372 1.11h-.972a1.19 1.19 0 00-.245-.635c-.236-.27-.646-.406-1.228-.406-.389 0-.683.075-.883.223-.2.149-.3.345-.3.589 0 .266.131.48.394.64.152.095.377.178.674.25l.68.166c.739.18 1.234.353 1.485.52.4.263.6.676.6 1.24 0 .545-.206 1.015-.62 1.411-.413.396-1.042.594-1.888.594-.91 0-1.555-.206-1.933-.62-.38-.413-.582-.924-.609-1.534h.988z"/></g></g><g mask="url(#b)"><path fill="#7542E5" fill-rule="nonzero" d="M217.08 64.71c0-.72-.27-1.26-.72-1.71-.54-.54-1.08-.72-1.71-.72h-23.22c-.72 0-1.26.27-1.71.72-.54.54-.72 1.08-.72 1.71v17.55c0 .72.27 1.26.72 1.71.45.54 1.08.72 1.71.72h23.22c.72 0 1.26-.27 1.71-.72.54-.45.72-1.08.72-1.71V64.71z"/><path stroke="#7542E5" stroke-width="4.386" d="M209.61 62.91v-5.632c0-1.909-.63-3.532-1.89-4.963-1.26-1.337-2.88-2.005-4.68-2.005h0c-1.8 0-3.33.668-4.68 2.005-1.26 1.336-1.89 3.054-1.89 4.963v5.632"/><path fill="#CB9EFF" fill-rule="nonzero" d="M205.11 76.77l-1.44-4.14c.36-.09.63-.27.9-.54.45-.45.63-.9.63-1.53s-.18-1.17-.63-1.53c-.45-.45-.9-.63-1.53-.63s-1.17.18-1.53.63c-.45.45-.63.9-.63 1.53s.18 1.17.63 1.53c.27.27.54.45.9.54l-1.44 4.14c-.09.36-.09.72.18 1.08.27.36.54.54.99.54h1.98c.45 0 .72-.18.99-.54.09-.36.09-.72 0-1.08z"/></g><path stroke="#DCDCDC" stroke-linecap="square" d="M61.5 148.5h277"/><path stroke="#EDEDF0" stroke-linecap="square" stroke-width="1.8" d="M7 260.5h390"/></g></svg>