<svg width="416" height="308" viewBox="0 0 416 308" xmlns="http://www.w3.org/2000/svg"><defs><filter x="-3.9%" y="-5.8%" width="107.7%" height="113.7%" filterUnits="objectBoundingBox" id="a"><feOffset dy="2" in="SourceAlpha" result="shadowOffsetOuter1"/><feGaussianBlur stdDeviation="4" in="shadowOffsetOuter1" result="shadowBlurOuter1"/><feColorMatrix values="0 0 0 0 0.125490196 0 0 0 0 0.0705882353 0 0 0 0 0.22745098 0 0 0 0.24 0" in="shadowBlurOuter1"/></filter></defs><g fill="none" fill-rule="evenodd"><g transform="matrix(1.00316 0 0 1.00316 0 0)"><rect stroke="#F0F0F4" stroke-width="4" fill="#FFF" x="2" y="2" width="465" height="311" rx="4"/><path fill="#F0F0F4" d="M0 30h469v33H0z"/><rect fill="#FFF" x="81" y="39" width="307" height="15" rx="2"/><path d="M4 0h461a4 4 0 0 1 4 4v26H0V4a4 4 0 0 1 4-4z" fill="#DFDFE6"/><path fill="#F0F0F4" d="M40 5h92v27H40z"/><path fill="#D1D1D7" d="M40 5h92v5H40z"/></g><g transform="matrix(1.00316 0 0 1.00316 71.224 108.34)"><rect width="337" height="190" rx="4" fill="#000" filter="url(#a)"/><rect width="337" height="190" rx="4" fill="#FFF"/></g><g transform="matrix(1.00316 0 0 1.00316 95.542 137.432)"><rect stroke="#FF4F5E" stroke-width="1.6" fill="#FFF" x=".8" y=".8" width="285.403" height="57.4" rx="6.4"/><path d="M59.708 35v-8.426h.108l3.432 8.409h1.386l3.432-8.403h.108V35h1.67V23.364h-2.13l-3.705 9.045h-.136l-3.705-9.045h-2.13V35h1.67zm13.858 3.392c1.409 0 2.324-.761 2.818-2.12l3.636-10h-1.824l-2.21 6.773h-.09l-2.21-6.772h-1.82l3.194 8.84-.25.688c-.426 1.136-1.034 1.233-1.971.983l-.41 1.41c.182.084.608.198 1.137.198zM83.509 35v-5.074h4.943V28.42H83.51v-3.545h5.46v-1.511h-7.216V35h1.756zm8.34-10.074c.586 0 1.075-.454 1.075-1.011 0-.557-.489-1.017-1.074-1.017-.591 0-1.074.46-1.074 1.017 0 .557.483 1.011 1.074 1.011zM92.692 35v-8.727h-1.7V35h1.7zm5.415.114c.54-.006.903-.108 1.102-.182l-.307-1.404-.145.03c-.116.022-.27.044-.452.044-.55 0-1.045-.182-1.045-1.164v-4.802h1.79v-1.363h-1.79v-2.091H95.56v2.09h-1.278v1.364h1.278v5.154c-.006 1.585 1.205 2.352 2.546 2.324zm4.517-.114v-5.182c0-1.392.852-2.187 2.034-2.187 1.153 0 1.852.755 1.852 2.022V35h1.699v-5.551c0-2.16-1.188-3.29-2.972-3.29-1.312 0-2.17.608-2.574 1.534h-.108v-1.42h-1.63V35h1.699zm11.619.176c1.903 0 3.25-.937 3.636-2.358l-1.608-.29c-.307.824-1.045 1.245-2.011 1.245-1.455 0-2.432-.943-2.477-2.625h6.204v-.603c0-3.153-1.886-4.386-3.863-4.386-2.432 0-4.034 1.852-4.034 4.534 0 2.71 1.579 4.483 4.153 4.483zm2.08-5.301h-4.535c.069-1.239.966-2.312 2.347-2.312 1.318 0 2.182.977 2.187 2.312zm6.698 5.301c2.108 0 3.568-1.12 3.568-2.699 0-1.233-.784-1.994-2.386-2.363l-1.386-.319c-.96-.227-1.375-.55-1.37-1.142-.005-.67.722-1.147 1.688-1.147 1.057 0 1.545.585 1.744 1.17l1.54-.273c-.352-1.358-1.415-2.244-3.301-2.244-1.972 0-3.37 1.04-3.37 2.585 0 1.239.75 2.063 2.387 2.426l1.477.324c.841.188 1.233.563 1.233 1.108 0 .676-.721 1.205-1.835 1.205-1.017 0-1.67-.438-1.875-1.296l-1.642.25c.284 1.546 1.568 2.415 3.528 2.415zm8.574 0c2.108 0 3.568-1.12 3.568-2.699 0-1.233-.784-1.994-2.386-2.363l-1.386-.319c-.96-.227-1.375-.55-1.37-1.142-.005-.67.722-1.147 1.688-1.147 1.057 0 1.545.585 1.744 1.17l1.54-.273c-.352-1.358-1.415-2.244-3.301-2.244-1.972 0-3.37 1.04-3.37 2.585 0 1.239.75 2.063 2.387 2.426l1.477.324c.841.188 1.233.563 1.233 1.108 0 .676-.722 1.205-1.835 1.205-1.017 0-1.67-.438-1.875-1.296l-1.642.25c.284 1.546 1.568 2.415 3.528 2.415zm7.324-.176v-4.09h2.386c2.7 0 4.034-1.632 4.034-3.78 0-2.141-1.323-3.766-4.028-3.766h-4.148V35h1.756zm2.227-5.58h-2.227v-4.55h2.205c1.738 0 2.448.943 2.448 2.26 0 1.319-.71 2.29-2.426 2.29zm8.648 5.773c1.443 0 2.256-.733 2.58-1.386h.068V35h1.659v-5.795c0-2.54-2-3.046-3.387-3.046-1.579 0-3.034.636-3.602 2.227l1.597.364c.25-.62.886-1.216 2.028-1.216 1.097 0 1.66.574 1.66 1.563v.04c0 .619-.637.607-2.205.79-1.654.192-3.347.624-3.347 2.607 0 1.716 1.29 2.66 2.949 2.66zm.37-1.363c-.96 0-1.654-.432-1.654-1.273 0-.91.807-1.233 1.79-1.364.55-.074 1.858-.221 2.102-.466v1.125c0 1.034-.824 1.978-2.239 1.978zM158.06 35V23.364h-1.699V35h1.7z" fill="#20123A" fill-rule="nonzero"/><path d="M40.392 28c3.177-1.473 5.25-3.683 5.364-6.136 0 0-.838-.682-3.546-1.73C39.832 19.212 38.02 19 38.02 19l.008 5.466c0 .817-.312 1.652-.9 2.39a23.886 23.886 0 0 0-5.865-.716h-.001c-2.085 0-4.072.259-5.87.718-.59-.739-.902-1.574-.902-2.392L24.496 19s-1.813.212-4.191 1.134c-2.708 1.048-3.546 1.73-3.546 1.73.113 2.454 2.19 4.665 5.369 6.137-3.178 1.473-5.252 3.684-5.364 6.136 0 0 .837.681 3.544 1.73C22.688 36.79 24.5 37 24.5 37l-.008-5.465c0-.817.312-1.652.9-2.39 1.798.457 3.781.715 5.865.716h.001c2.086-.001 4.072-.26 5.871-.718.59.739.902 1.574.902 2.392L38.022 37s1.814-.21 4.192-1.132c2.708-1.05 3.545-1.731 3.545-1.731-.112-2.454-2.189-4.665-5.367-6.137m-4.633 0c-1.1.604-2.6 1-4.443 1H31.198c-1.84 0-3.34-.396-4.439-.999 1.1-.604 2.6-1 4.443-1H31.32c1.84 0 3.34.395 4.44.998" fill="#0072C6"/><path d="M266.587 40.506L254.22 18.003c-.734-1.337-2.71-1.337-3.447 0l-12.365 22.503c-.693 1.262.25 2.788 1.724 2.788h24.733c1.472 0 2.415-1.526 1.722-2.788z" fill="#FF4F5E" fill-rule="nonzero"/><path d="M252.498 39.504c-1.078 0-1.953-.849-1.953-1.895s.875-1.895 1.953-1.895c1.077 0 1.952.849 1.952 1.895s-.875 1.895-1.952 1.895zM254.45 33.819h-3.905v-7.58h3.905z" fill="#FFF"/></g><g transform="matrix(1.00316 0 0 1.00316 95.542 212.669)"><rect stroke="#FF4F5E" stroke-width="1.6" fill="#FFF" x=".8" y=".8" width="286.4" height="57.4" rx="6.4"/><path fill="#FF5F00" d="M29.125 37.005h9.167V20.532h-9.167z"/><g transform="translate(16.759 18.003)"><mask id="b" fill="#fff"><path d="M0 .289h16.95v20.953H0z"/></mask><path d="M12.948 10.767A10.458 10.458 0 0 1 16.95 2.53C12.4-1.046 5.815-.256 2.24 4.293-1.335 8.84-.546 15.428 4.003 19.003a10.476 10.476 0 0 0 12.947 0 10.459 10.459 0 0 1-4.002-8.236" fill="#EB001B" mask="url(#b)"/></g><g transform="translate(33.637 18.003)"><mask id="c" fill="#fff"><path d="M.072.288h16.95v20.955H.072z"/></mask><path d="M17.023 10.767c0 5.786-4.691 10.476-10.477 10.476-2.348 0-4.628-.79-6.474-2.24C4.62 15.428 5.41 8.84 1.835 4.293A10.478 10.478 0 0 0 .072 2.529C4.62-1.047 11.206-.259 14.782 4.29a10.477 10.477 0 0 1 2.24 6.475v.003z" fill="#F79E1B" mask="url(#c)"/></g><path d="M50.33 35.26v-.408h-.104l-.122.291-.123-.291h-.093v.407h.076v-.305l.114.265h.078l.113-.265v.308l.061-.003zm-.672 0v-.338h.137v-.07h-.346v.07h.148v.337h.061z" fill="#F79E1B"/><g><path d="M267.513 38.506l-12.41-22.503c-.737-1.337-2.72-1.337-3.459 0l-12.408 22.503c-.696 1.262.25 2.788 1.73 2.788h24.819c1.477 0 2.423-1.526 1.728-2.788z" fill="#FF4F5E" fill-rule="nonzero"/><path d="M253.374 37.504c-1.081 0-1.959-.849-1.959-1.895s.878-1.895 1.96-1.895c1.08 0 1.959.849 1.959 1.895s-.878 1.895-1.96 1.895zM255.334 31.819h-3.919v-7.58h3.919z" fill="#FFF"/></g><path d="M59.708 35v-8.426h.108l3.432 8.409h1.386l3.432-8.403h.108V35h1.67V23.364h-2.13l-3.705 9.045h-.136l-3.705-9.045h-2.13V35h1.67zm15.386.193c1.443 0 2.256-.733 2.58-1.386h.068V35H79.4v-5.795c0-2.54-2-3.046-3.386-3.046-1.58 0-3.034.636-3.603 2.227l1.597.364c.25-.62.886-1.216 2.028-1.216 1.097 0 1.66.574 1.66 1.563v.04c0 .619-.637.607-2.205.79-1.653.192-3.347.624-3.347 2.607 0 1.716 1.29 2.66 2.95 2.66zm.37-1.363c-.96 0-1.654-.432-1.654-1.273 0-.91.807-1.233 1.79-1.364.551-.074 1.858-.221 2.102-.466v1.125c0 1.034-.824 1.978-2.239 1.978zm9.34 1.346c2.108 0 3.569-1.12 3.569-2.699 0-1.233-.785-1.994-2.387-2.363l-1.386-.319c-.96-.227-1.375-.55-1.37-1.142-.005-.67.722-1.147 1.688-1.147 1.057 0 1.545.585 1.744 1.17l1.54-.273c-.352-1.358-1.415-2.244-3.301-2.244-1.972 0-3.37 1.04-3.37 2.585 0 1.239.75 2.063 2.387 2.426l1.477.324c.841.188 1.233.563 1.233 1.108 0 .676-.721 1.205-1.835 1.205-1.017 0-1.67-.438-1.875-1.296l-1.642.25c.284 1.546 1.568 2.415 3.528 2.415zm8.563-.062c.54-.006.903-.108 1.102-.182l-.307-1.404-.144.03c-.116.022-.27.044-.452.044-.551 0-1.046-.182-1.046-1.164v-4.802h1.79v-1.363h-1.79v-2.091h-1.699v2.09h-1.278v1.364h1.278v5.154c-.005 1.585 1.205 2.352 2.546 2.324zm6.58.062c1.903 0 3.25-.937 3.636-2.358l-1.608-.29c-.307.824-1.046 1.245-2.012 1.245-1.454 0-2.431-.943-2.477-2.625h6.205v-.603c0-3.153-1.887-4.386-3.864-4.386-2.432 0-4.034 1.852-4.034 4.534 0 2.71 1.58 4.483 4.153 4.483zm2.079-5.301h-4.534c.068-1.239.966-2.312 2.346-2.312 1.319 0 2.182.977 2.188 2.312zM107.282 35v-5.33c0-1.136.88-1.96 2.056-1.96.33 0 .586.068.79.17l.546-1.42c-.29-.193-.665-.318-1.142-.318-1.034 0-1.898.58-2.216 1.517h-.091v-1.386h-1.642V35h1.699zm8.352.176c2.062 0 3.398-1.238 3.585-2.937h-1.653c-.216.943-.95 1.5-1.92 1.5-1.438 0-2.364-1.2-2.364-3.103 0-1.869.943-3.045 2.363-3.045 1.08 0 1.739.682 1.92 1.5h1.654c-.182-1.761-1.62-2.932-3.602-2.932-2.46 0-4.051 1.852-4.051 4.517 0 2.63 1.534 4.5 4.068 4.5zm7.949.017c1.443 0 2.255-.733 2.58-1.386h.068V35h1.659v-5.795c0-2.54-2-3.046-3.387-3.046-1.58 0-3.034.636-3.602 2.227l1.597.364c.25-.62.886-1.216 2.028-1.216 1.097 0 1.66.574 1.66 1.563v.04c0 .619-.637.607-2.205.79-1.654.192-3.347.624-3.347 2.607 0 1.716 1.29 2.66 2.949 2.66zm.37-1.363c-.961 0-1.654-.432-1.654-1.273 0-.91.807-1.233 1.79-1.364.55-.074 1.857-.221 2.102-.466v1.125c0 1.034-.824 1.978-2.239 1.978zM131.85 35v-5.33c0-1.136.88-1.96 2.057-1.96.33 0 .585.068.79.17l.545-1.42c-.29-.193-.665-.318-1.142-.318-1.034 0-1.898.58-2.216 1.517h-.091v-1.386h-1.642V35h1.699zm7.943.17c1.591 0 2.216-.971 2.523-1.528h.142V35h1.659V23.364h-1.699v4.324h-.102c-.307-.54-.887-1.529-2.512-1.529-2.108 0-3.659 1.665-3.659 4.494 0 2.824 1.529 4.517 3.648 4.517zm.375-1.448c-1.517 0-2.307-1.336-2.307-3.086 0-1.733.773-3.034 2.307-3.034 1.483 0 2.278 1.21 2.278 3.034 0 1.836-.812 3.086-2.278 3.086z" fill="#20123A" fill-rule="nonzero"/></g><g><path d="M273.482 128.89a3.389 3.389 0 0 0 3.389-3.39V89.942a3.389 3.389 0 0 0-3.39-3.389h-66.018a3.389 3.389 0 0 0-3.389 3.39V125.5a3.389 3.389 0 0 0 3.389 3.389h66.019z" fill="#7542E5"/><path fill="#9059FF" d="M276.87 123.585v-31.6l-25.512 15.8zM229.587 107.785l-25.513-15.8v31.6z"/><g transform="matrix(-1.00316 0 0 -1.00316 276.87 114.408)"><mask id="d" fill="#fff"><path d="M0 .478h72.568v27.29H0z"/></mask><path d="M47.135 6.602L38.062.984a3.379 3.379 0 0 0-3.556 0l-9.073 5.618L0 22.352v2.036a3.38 3.38 0 0 0 3.38 3.38h65.807a3.38 3.38 0 0 0 3.38-3.38v-2.036L47.136 6.602z" fill="#A97EFF" mask="url(#d)"/></g></g></g></svg>
