<svg width="369" height="286" viewBox="0 0 369 286" xmlns="http://www.w3.org/2000/svg"><defs><filter x="-3.7%" y="-5.3%" width="107.4%" height="113.2%" filterUnits="objectBoundingBox" id="a"><feOffset dy="2" in="SourceAlpha" result="shadowOffsetOuter1"/><feGaussianBlur stdDeviation="3" in="shadowOffsetOuter1" result="shadowBlurOuter1"/><feColorMatrix values="0 0 0 0 0.125490196 0 0 0 0 0.0705882353 0 0 0 0 0.22745098 0 0 0 0.24 0" in="shadowBlurOuter1"/></filter></defs><g fill="none" fill-rule="evenodd"><g transform="matrix(1.2095 0 0 1.2095 0 0)"><rect stroke="#F0F0F4" stroke-width="2.602" fill="#FFF" x="1.301" y="1.301" width="302.481" height="233.898" rx="2.602"/><path fill="#F0F0F4" d="M0 19.515h305.083v21.466H0z"/><rect fill="#FFF" x="52.69" y="25.369" width="199.702" height="9.757" rx="1.301"/><path d="M2.602 0h299.879a2.602 2.602 0 0 1 2.602 2.602v16.913H0V2.602A2.602 2.602 0 0 1 2.602 0z" fill="#DFDFE6"/><path fill="#F0F0F4" d="M26.02 3.252h59.846v17.563H26.02z"/><path fill="#D1D1D7" d="M26.02 3.252h59.846v3.252H26.02z"/></g><g transform="matrix(1.2095 0 0 1.2095 21.771 73.249)"><rect width="269" height="151.662" rx="3.193" fill="#000" filter="url(#a)"/><rect width="269" height="151.662" rx="3.193" fill="#FFF"/></g><g transform="matrix(1.2095 0 0 1.2095 45.175 101.247)"><rect stroke="#FF4F5E" stroke-width="1.277" fill="#FFF" x=".639" y=".639" width="227.815" height="45.818" rx="5.109"/><path d="M47.66 27.938v-6.726h.086l2.74 6.712h1.106l2.74-6.708h.086v6.722h1.333v-9.289h-1.7l-2.958 7.22h-.109l-2.957-7.22h-1.7v9.289h1.333zm11.062 2.707c1.124 0 1.855-.607 2.25-1.691l2.902-7.983h-1.456l-1.764 5.407h-.073l-1.764-5.407h-1.451l2.548 7.057-.2.55c-.34.906-.825.983-1.573.784l-.326 1.125c.145.068.485.158.907.158zm7.936-2.707v-4.05h3.946v-1.202h-3.946v-2.83h4.359v-1.207h-5.76v9.289h1.401zm6.658-8.041c.468 0 .858-.363.858-.808 0-.444-.39-.812-.858-.812-.471 0-.857.368-.857.812 0 .445.386.808.857.808zm.672 8.04v-6.966h-1.356v6.967h1.356zm4.322.091c.43-.004.72-.086.88-.145l-.245-1.12-.116.023a1.928 1.928 0 0 1-.36.036c-.44 0-.835-.145-.835-.93V22.06h1.429V20.97h-1.429v-1.669h-1.356v1.67h-1.02v1.088h1.02v4.113c-.005 1.266.961 1.878 2.032 1.855zm3.605-.09V23.8c0-1.11.68-1.746 1.624-1.746.92 0 1.479.604 1.479 1.615v4.268h1.356v-4.431c0-1.724-.948-2.626-2.372-2.626-1.048 0-1.733.485-2.055 1.224h-.086v-1.134h-1.302v6.967h1.356zm9.275.14c1.52 0 2.594-.748 2.903-1.882l-1.284-.231c-.245.657-.834.993-1.605.993-1.161 0-1.941-.753-1.978-2.095h4.953v-.481c0-2.517-1.506-3.501-3.084-3.501-1.941 0-3.22 1.478-3.22 3.619 0 2.163 1.26 3.578 3.315 3.578zm1.66-4.231h-3.62c.055-.989.772-1.846 1.874-1.846 1.052 0 1.742.78 1.746 1.846zm5.347 4.231c1.683 0 2.848-.893 2.848-2.154 0-.984-.625-1.592-1.904-1.887l-1.107-.254c-.767-.181-1.098-.44-1.093-.911-.005-.535.576-.916 1.347-.916.844 0 1.234.467 1.392.934l1.23-.218c-.282-1.084-1.13-1.791-2.636-1.791-1.573 0-2.69.83-2.69 2.063 0 .989.6 1.647 1.906 1.937l1.179.258c.671.15.984.45.984.885 0 .54-.576.961-1.465.961-.812 0-1.333-.349-1.497-1.034l-1.31.2c.227 1.233 1.252 1.927 2.816 1.927zm6.844 0c1.683 0 2.848-.893 2.848-2.154 0-.984-.626-1.592-1.905-1.887l-1.106-.254c-.767-.181-1.098-.44-1.093-.911-.005-.535.576-.916 1.347-.916.843 0 1.233.467 1.392.934l1.23-.218c-.282-1.084-1.13-1.791-2.636-1.791-1.574 0-2.69.83-2.69 2.063 0 .989.6 1.647 1.906 1.937l1.179.258c.671.15.984.45.984.885 0 .54-.576.961-1.465.961-.812 0-1.333-.349-1.497-1.034l-1.31.2c.226 1.233 1.251 1.927 2.816 1.927zm5.846-.14v-3.266h1.905c2.154 0 3.22-1.301 3.22-3.016 0-1.71-1.057-3.007-3.216-3.007h-3.31v9.289h1.401zm1.778-4.454h-1.778v-3.633h1.76c1.388 0 1.955.753 1.955 1.805s-.567 1.828-1.937 1.828zm6.903 4.608c1.152 0 1.8-.585 2.059-1.107h.054v.953h1.325v-4.626c0-2.028-1.597-2.431-2.704-2.431-1.26 0-2.421.508-2.875 1.778l1.274.29c.2-.495.708-.97 1.62-.97.875 0 1.324.457 1.324 1.246v.032c0 .495-.508.486-1.76.63-1.32.155-2.671.5-2.671 2.082 0 1.37 1.03 2.123 2.354 2.123zm.295-1.089c-.767 0-1.32-.344-1.32-1.016 0-.725.644-.984 1.428-1.088.44-.059 1.483-.177 1.678-.372v.898c0 .826-.657 1.578-1.786 1.578zm6.304.935v-9.289h-1.356v9.289h1.356z" fill="#20123A" fill-rule="nonzero"/><path d="M32.241 22.35c2.536-1.176 4.192-2.94 4.282-4.898 0 0-.668-.544-2.83-1.38-1.898-.737-3.346-.906-3.346-.906l.007 4.364c0 .652-.25 1.318-.719 1.907a19.066 19.066 0 0 0-4.68-.571h-.002c-1.664 0-3.25.206-4.686.573-.47-.59-.72-1.257-.72-1.91l.007-4.363s-1.448.17-3.346.905c-2.162.837-2.83 1.381-2.83 1.381.09 1.959 1.747 3.724 4.285 4.9-2.536 1.175-4.193 2.94-4.282 4.897 0 0 .668.543 2.83 1.381 1.898.736 3.346.904 3.346.904l-.007-4.362c0-.653.249-1.32.719-1.908 1.435.365 3.018.57 4.68.571h.002c1.665 0 3.25-.207 4.686-.572.471.59.72 1.256.72 1.909l-.007 4.362s1.448-.168 3.346-.904c2.161-.838 2.83-1.381 2.83-1.381-.09-1.959-1.747-3.724-4.285-4.9m-3.697 0c-.878.483-2.076.799-3.547.799h-.094c-1.469 0-2.666-.315-3.543-.797.877-.482 2.075-.798 3.546-.798H25c1.469 0 2.666.315 3.544.796" fill="#0072C6"/><path d="M212.795 32.333l-9.872-17.962c-.586-1.068-2.163-1.068-2.75 0l-9.871 17.962c-.553 1.007.2 2.225 1.376 2.225h19.742c1.176 0 1.928-1.218 1.375-2.225z" fill="#FF4F5E" fill-rule="nonzero"/><path d="M201.549 31.533c-.86 0-1.559-.678-1.559-1.513 0-.835.698-1.512 1.559-1.512.86 0 1.558.677 1.558 1.512s-.698 1.513-1.558 1.513zM203.107 26.995h-3.117v-6.05h3.117z" fill="#FFF"/></g><g transform="matrix(1.2095 0 0 1.2095 45.175 173.656)"><rect stroke="#FF4F5E" stroke-width="1.277" fill="#FFF" x=".639" y=".639" width="228.61" height="45.818" rx="5.109"/><path fill="#FF5F00" d="M23.248 29.538h7.317V16.39h-7.317z"/><g transform="translate(13.377 14.37)"><mask id="b" fill="#fff"><path d="M0 .231h13.53v16.725H0z"/></mask><path d="M10.336 8.595a8.348 8.348 0 0 1 3.194-6.576 8.362 8.362 0 1 0 0 13.15 8.348 8.348 0 0 1-3.194-6.574" fill="#EB001B" mask="url(#b)"/></g><g transform="translate(26.85 14.37)"><mask id="c" fill="#fff"><path d="M.057.23h13.531v16.727H.057z"/></mask><path d="M13.588 8.595a8.362 8.362 0 0 1-13.53 6.573 8.362 8.362 0 0 0 0-13.15 8.362 8.362 0 0 1 13.53 6.574v.003z" fill="#F79E1B" mask="url(#c)"/></g><path d="M40.175 28.145v-.325h-.084l-.097.232-.098-.232h-.074v.325h.06V27.9l.09.211h.063l.09-.211v.246l.05-.002zm-.537 0v-.27h.11v-.055h-.277v.055h.118v.27h.05z" fill="#F79E1B"/><g><path d="M213.534 30.737l-9.906-17.963c-.588-1.068-2.171-1.068-2.76 0l-9.905 17.963c-.556 1.007.2 2.225 1.38 2.225h19.812c1.179 0 1.934-1.218 1.379-2.225z" fill="#FF4F5E" fill-rule="nonzero"/><path d="M202.248 29.936c-.863 0-1.564-.677-1.564-1.512s.701-1.513 1.564-1.513c.864 0 1.564.678 1.564 1.513 0 .835-.7 1.512-1.564 1.512zM203.812 25.399h-3.128v-6.05h3.128z" fill="#FFF"/></g><path d="M47.66 27.938v-6.726h.086l2.74 6.712h1.106l2.74-6.708h.086v6.722h1.333v-9.289h-1.7l-2.958 7.22h-.109l-2.957-7.22h-1.7v9.289h1.333zm12.282.154c1.152 0 1.8-.585 2.059-1.107h.054v.953h1.324v-4.626c0-2.028-1.596-2.431-2.703-2.431-1.26 0-2.421.508-2.875 1.778l1.274.29c.2-.495.708-.97 1.62-.97.875 0 1.324.457 1.324 1.246v.032c0 .495-.508.486-1.76.63-1.32.155-2.671.5-2.671 2.082 0 1.37 1.03 2.123 2.354 2.123zm.294-1.089c-.766 0-1.32-.344-1.32-1.016 0-.725.645-.984 1.43-1.088.44-.059 1.482-.177 1.677-.372v.898c0 .826-.657 1.578-1.787 1.578zm7.457 1.075c1.682 0 2.848-.893 2.848-2.154 0-.984-.626-1.592-1.905-1.887l-1.107-.254c-.766-.181-1.097-.44-1.093-.911-.004-.535.576-.916 1.347-.916.844 0 1.234.467 1.393.934l1.229-.218c-.282-1.084-1.13-1.791-2.635-1.791-1.574 0-2.69.83-2.69 2.063 0 .989.599 1.647 1.905 1.937l1.18.258c.67.15.983.45.983.885 0 .54-.576.961-1.465.961-.811 0-1.333-.349-1.496-1.034l-1.31.2c.226 1.233 1.25 1.927 2.816 1.927zm6.834-.05c.431-.004.721-.086.88-.145l-.245-1.12-.115.023a1.928 1.928 0 0 1-.361.036c-.44 0-.834-.145-.834-.93V22.06h1.428V20.97h-1.428v-1.669h-1.357v1.67h-1.02v1.088h1.02v4.113c-.004 1.266.962 1.878 2.032 1.855zm5.252.05c1.52 0 2.594-.748 2.903-1.882l-1.284-.231c-.245.657-.834.993-1.605.993-1.161 0-1.941-.753-1.978-2.095h4.953v-.481c0-2.517-1.506-3.501-3.084-3.501-1.941 0-3.22 1.478-3.22 3.619 0 2.163 1.26 3.578 3.315 3.578zm1.66-4.231H77.82c.054-.989.771-1.846 1.873-1.846 1.052 0 1.742.78 1.746 1.846zm4.195 4.09v-4.253c0-.908.703-1.565 1.642-1.565.263 0 .467.054.63.136l.436-1.134a1.607 1.607 0 0 0-.912-.254c-.825 0-1.514.463-1.768 1.211h-.073v-1.107h-1.31v6.967h1.355zm6.667.141c1.647 0 2.712-.988 2.862-2.344h-1.32c-.172.752-.757 1.197-1.533 1.197-1.147 0-1.886-.957-1.886-2.476 0-1.493.753-2.431 1.886-2.431.862 0 1.388.544 1.533 1.197h1.32c-.145-1.406-1.292-2.34-2.875-2.34-1.964 0-3.234 1.478-3.234 3.605 0 2.1 1.225 3.592 3.247 3.592zm6.345.014c1.152 0 1.8-.585 2.06-1.107h.054v.953h1.324v-4.626c0-2.028-1.596-2.431-2.703-2.431-1.26 0-2.422.508-2.875 1.778l1.274.29c.2-.495.707-.97 1.62-.97.874 0 1.323.457 1.323 1.246v.032c0 .495-.508.486-1.76.63-1.32.155-2.67.5-2.67 2.082 0 1.37 1.029 2.123 2.353 2.123zm.295-1.089c-.766 0-1.32-.344-1.32-1.016 0-.725.644-.984 1.429-1.088.44-.059 1.483-.177 1.678-.372v.898c0 .826-.658 1.578-1.787 1.578zm6.304.935v-4.254c0-.908.703-1.565 1.642-1.565.263 0 .467.054.63.136l.436-1.134a1.607 1.607 0 0 0-.912-.254c-.825 0-1.515.463-1.769 1.211h-.072v-1.107h-1.31v6.967h1.355zm6.34.136c1.27 0 1.77-.776 2.014-1.22h.114v1.084h1.324v-9.289h-1.356v3.452h-.082c-.245-.431-.707-1.22-2.004-1.22-1.683 0-2.921 1.329-2.921 3.587 0 2.254 1.22 3.606 2.912 3.606zm.3-1.157c-1.211 0-1.841-1.066-1.841-2.462 0-1.384.616-2.422 1.84-2.422 1.185 0 1.82.966 1.82 2.422 0 1.464-.649 2.462-1.82 2.462z" fill="#20123A" fill-rule="nonzero"/></g><g><path d="M207.864 86.121a2.348 2.348 0 0 0 2.348-2.348V59.131a2.348 2.348 0 0 0-2.348-2.349h-45.75a2.348 2.348 0 0 0-2.348 2.349v24.642a2.348 2.348 0 0 0 2.348 2.348h45.75z" fill="#7542E5"/><path fill="#9059FF" d="M210.212 82.445V60.548l-17.68 10.948zM177.446 71.496l-17.68-10.948v21.897z"/><g transform="matrix(-1.2095 0 0 -1.2095 210.212 76.086)"><mask id="d" fill="#fff"><path d="M0 .275h41.708V15.96H0z"/></mask><path d="M27.09 3.795L21.877.565a1.942 1.942 0 0 0-2.044 0l-5.214 3.23L0 12.847v1.17c0 1.073.87 1.943 1.943 1.943h37.822c1.073 0 1.943-.87 1.943-1.943v-1.17L27.091 3.795z" fill="#A97EFF" mask="url(#d)"/></g></g></g></svg>