<svg xmlns="http://www.w3.org/2000/svg" xmlns:xlink="http://www.w3.org/1999/xlink" width="468" height="330"><defs><filter id="a" width="109%" height="113.1%" x="-4.5%" y="-5.2%" filterUnits="objectBoundingBox"><feOffset dy="4" in="SourceAlpha" result="shadowOffsetOuter1"/><feGaussianBlur in="shadowOffsetOuter1" result="shadowBlurOuter1" stdDeviation="6"/><feColorMatrix in="shadowBlurOuter1" values="0 0 0 0 0.125490196 0 0 0 0 0.0705882353 0 0 0 0 0.22745098 0 0 0 0.24 0"/></filter><rect id="b" width="444" height="305.93" x="0" y=".323" rx="3.118"/></defs><g fill="none" fill-rule="evenodd" transform="translate(12 8)"><use fill="#000" filter="url(#a)" xlink:href="#b"/><use fill="#FFF" xlink:href="#b"/><path fill="#20123A" fill-rule="nonzero" d="M41.005 258.408v9.525h1.08v-7.237h.092l2.977 7.237h1.042l2.977-7.237h.093v7.237h1.079v-9.525h-1.377l-3.237 7.907h-.112l-3.237-7.907h-1.377zm14.698 9.674c1.935 0 3.237-1.47 3.237-3.684 0-2.232-1.302-3.702-3.237-3.702s-3.237 1.47-3.237 3.702c0 2.214 1.302 3.684 3.237 3.684zm0-.986c-1.47 0-2.14-1.265-2.14-2.698 0-1.432.67-2.716 2.14-2.716 1.47 0 2.14 1.284 2.14 2.716 0 1.433-.67 2.698-2.14 2.698zm6.01-3.46v4.297h-1.098v-7.144h1.06v1.116h.093c.335-.725 1.005-1.209 2.084-1.209 1.446 0 2.419.875 2.419 2.698v4.54h-1.098v-4.466c0-1.12-.619-1.786-1.637-1.786-1.052 0-1.824.707-1.824 1.954z"/><path fill="#338FF8" d="M42.865 210.027h19.258v34.13a1.871 1.871 0 01-1.872 1.87H44.736a1.871 1.871 0 01-1.871-1.87v-34.13z"/><path fill="#4BC3A1" d="M42.865 127.292h19.258v88.784H42.865z"/><path fill="#F9BD3F" d="M44.736 125.153H60.25c1.034 0 1.872.838 1.872 1.87v3.13H42.865v-3.13c0-1.032.837-1.87 1.87-1.87z"/><path fill="#20123A" fill-rule="nonzero" d="M109.189 259.431h2.995v8.502h1.154v-8.502h2.995v-1.023h-7.144v1.023zm12.316 5.581c0 1.34-1.023 1.954-1.842 1.954-.911 0-1.562-.67-1.562-1.712v-4.465h-1.098v4.54c0 1.823.967 2.697 2.307 2.697 1.079 0 1.786-.576 2.12-1.302h.075v1.21h1.098v-7.145h-1.098v4.223zm6.103 3.07c1.45 0 2.511-.725 2.846-1.804l-1.06-.298c-.28.744-.926 1.116-1.786 1.116-1.289 0-2.177-.832-2.228-2.363h5.186v-.465c0-2.66-1.582-3.572-3.07-3.572-1.935 0-3.219 1.526-3.219 3.721 0 2.195 1.266 3.665 3.33 3.665zm-2.228-4.297c.074-1.112.86-2.103 2.116-2.103 1.19 0 1.954.893 1.954 2.103h-4.07z"/><path fill="#338FF8" d="M111.337 215.958h19.258v27.129a1.871 1.871 0 01-1.871 1.87h-15.516a1.871 1.871 0 01-1.871-1.87v-27.13z"/><path fill="#4BC3A1" d="M113.208 180.777h15.516c1.033 0 1.87.837 1.87 1.87v38.778h-19.257v-38.777c0-1.034.838-1.871 1.871-1.871z"/><path fill="#20123A" fill-rule="nonzero" d="M179.1 267.933h1.19l2.102-7.59h.075l2.102 7.59h1.19l2.605-9.525h-1.172l-1.99 7.758h-.094l-2.027-7.758h-1.303l-2.028 7.758h-.093l-1.99-7.758h-1.172l2.604 9.525zm12.874.149c1.45 0 2.511-.726 2.846-1.805l-1.06-.297c-.28.744-.926 1.116-1.786 1.116-1.289 0-2.177-.833-2.228-2.363h5.186v-.465c0-2.66-1.582-3.572-3.07-3.572-1.935 0-3.219 1.526-3.219 3.72 0 2.196 1.265 3.666 3.33 3.666zm-2.228-4.298c.074-1.111.86-2.102 2.116-2.102 1.19 0 1.953.893 1.953 2.102h-4.07zm9.558 4.298c1.377 0 1.842-.856 2.084-1.246h.13v1.097h1.06v-9.525h-1.097v3.516h-.093l-.132-.207c-.27-.414-.759-1.021-1.934-1.021-1.804 0-3.05 1.433-3.05 3.684 0 2.27 1.246 3.702 3.032 3.702zm.149-.986c-1.377 0-2.084-1.21-2.084-2.735 0-1.507.688-2.679 2.084-2.679 1.34 0 2.046 1.08 2.046 2.68 0 1.618-.725 2.734-2.046 2.734z"/><path fill="#338FF8" d="M178.74 197.958h18.188v45.128a1.871 1.871 0 01-1.871 1.872H180.61a1.871 1.871 0 01-1.871-1.872v-45.128z"/><path fill="#4BC3A1" d="M178.74 97.341h18.188v108.038H178.74z"/><path fill="#F9BD3F" d="M180.611 93.062h14.446c1.033 0 1.87.838 1.87 1.871v2.408H178.74v-2.408c0-1.033.838-1.87 1.871-1.87z"/><g><path fill="#20123A" fill-rule="nonzero" d="M322.416 267.933h1.153v-4.26h4.13v-1.024h-4.13v-3.218h4.558v-1.023h-5.711v9.525zm7.46 0h1.098v-4.52c0-.968.763-1.675 1.804-1.675.293 0 .596.056.67.074v-1.116l-.34-.015a9.213 9.213 0 00-.237-.004c-.855 0-1.6.484-1.86 1.191h-.074v-1.079h-1.061v7.144zm4.874 0h1.098v-7.144h-1.098v7.144zm.559-8.335c-.428 0-.782-.335-.782-.744 0-.41.354-.744.782-.744.428 0 .781.335.781.744 0 .41-.353.744-.781.744z"/><path fill="#338FF8" d="M319.963 194.958h19.258v48.128a1.871 1.871 0 01-1.87 1.872h-15.516a1.871 1.871 0 01-1.872-1.872v-48.128z"/><path fill="#4BC3A1" d="M319.963 97.341h19.258v108.038h-19.258z"/><path fill="#F9BD3F" d="M321.835 93.062h15.515c1.034 0 1.871.838 1.871 1.871v2.408h-19.258v-2.408c0-1.033.838-1.87 1.872-1.87z"/></g><path fill="#20123A" fill-rule="nonzero" d="M245.333 259.853h2.996v8.502h1.153v-8.502h2.996v-1.023h-7.145v1.023zm9.88 4.205c0-1.247.795-1.954 1.879-1.954 1.032 0 1.655.651 1.655 1.786v4.465h1.098v-4.54c0-1.836-.977-2.697-2.437-2.697-1.126 0-1.768.47-2.102 1.21h-.093v-3.498h-1.098v9.525h1.098v-4.297zm11.144 1.376v-4.223h1.097v7.144h-1.097v-1.209h-.075c-.335.726-1.042 1.302-2.12 1.302-1.34 0-2.308-.874-2.308-2.697v-4.54h1.098v4.465c0 1.042.651 1.712 1.563 1.712.819 0 1.842-.614 1.842-1.954z"/><g><path fill="#20123A" fill-rule="nonzero" d="M374.967 260.789h1.116c-.051-1.437-1.377-2.512-3.219-2.512-1.823 0-3.255 1.06-3.255 2.66 0 1.285.93 2.047 2.418 2.475l1.172.335c1.005.28 1.898.633 1.898 1.582 0 1.041-1.005 1.73-2.326 1.73-1.134 0-2.14-.503-2.232-1.582h-1.19c.11 1.563 1.376 2.624 3.422 2.624 2.196 0 3.442-1.21 3.442-2.754 0-1.786-1.693-2.363-2.679-2.623l-.967-.26c-.707-.187-1.842-.559-1.842-1.582 0-.912.837-1.581 2.102-1.581 1.154 0 2.028.548 2.14 1.488zm5.097 7.312c1.247 0 1.898-.67 2.121-1.135h.056v.967h1.098v-4.707c0-2.27-1.73-2.53-2.642-2.53-1.08 0-2.307.372-2.865 1.674l1.042.372c.242-.52.814-1.079 1.86-1.079.95 0 1.447.474 1.502 1.294l.005.195c0 .5-.481.487-1.632.625l-.506.067c-1.236.182-2.476.545-2.476 2.061 0 1.396 1.08 2.196 2.437 2.196zm.168-.986c-.875 0-1.507-.391-1.507-1.154 0-.837.763-1.098 1.619-1.21l.547-.066c.543-.071 1.217-.183 1.35-.343v1.005c0 .893-.707 1.768-2.01 1.768zm8.223-6.326v.93h-1.525v4.168c0 .93.465 1.079.948 1.079.242 0 .391-.037.484-.056l.223.986c-.148.056-.409.13-.818.13-.93 0-1.935-.595-1.935-1.842v-4.465h-1.08v-.93h1.08v-1.712h1.098v1.712h1.525z"/><path fill="#338FF8" d="M369.226 210.958h19.258v32.128a1.871 1.871 0 01-1.871 1.872h-15.516a1.871 1.871 0 01-1.87-1.872v-32.128z"/><path fill="#4BC3A1" d="M369.226 155.104h19.258v66.321h-19.258z"/><path fill="#F9BD3F" d="M371.097 148.686h15.516c1.033 0 1.871.838 1.871 1.87v5.618h-19.258v-5.617c0-1.033.838-1.871 1.871-1.871z"/></g><path fill="#20123A" fill-rule="nonzero" d="M172.042 57.589c1.944 0 3.372-1.163 3.367-2.744.005-1.205-.725-2.07-1.99-2.265v-.075c.995-.256 1.641-1.037 1.637-2.107.004-1.4-1.144-2.595-2.977-2.595-1.749 0-3.154 1.056-3.2 2.605h1.39c.033-.875.856-1.405 1.791-1.405.972 0 1.61.59 1.605 1.47.005.92-.735 1.525-1.79 1.525h-.805v1.172h.804c1.321 0 2.084.67 2.084 1.628 0 .926-.805 1.554-1.926 1.554-1.032 0-1.837-.53-1.893-1.377h-1.46c.06 1.554 1.437 2.614 3.363 2.614zm6.502-1.433h-1.34l-.046.521c-.107 1.26-.405 2.53-.53 3.107h.986l.11-.306c.247-.696.627-1.858.75-2.815l.07-.507zm4.247-8.223h-1.34c-.051.26-.777 1.465-2.167 1.465v1.182c1.079 0 1.828-.428 1.986-.707h.079v7.586h1.442v-9.526zm5.795 9.656c1.981 0 3.381-1.126 3.39-2.67-.009-1.2-.85-2.21-1.916-2.4v-.056c.926-.223 1.554-1.093 1.563-2.12-.01-1.456-1.293-2.54-3.037-2.54-1.763 0-3.047 1.084-3.037 2.54-.01 1.023.618 1.897 1.563 2.12v.056c-1.084.19-1.926 1.2-1.917 2.4-.01 1.544 1.391 2.67 3.391 2.67zm0-1.177c-1.19 0-1.944-.632-1.935-1.586-.01-.99.81-1.697 1.935-1.697 1.107 0 1.926.707 1.935 1.697-.01.954-.758 1.586-1.935 1.586zm0-4.432c-.963 0-1.647-.61-1.637-1.517-.01-.893.65-1.483 1.637-1.483.967 0 1.628.59 1.637 1.483-.01.907-.688 1.517-1.637 1.517zm8.219-4.2c-2-.014-3.307 1.418-3.307 3.242 0 1.823 1.32 3.134 2.972 3.134 1.009 0 1.874-.493 2.362-1.293h.075c-.005 2.191-.828 3.47-2.223 3.47-.912 0-1.498-.558-1.684-1.372h-1.419c.21 1.54 1.4 2.628 3.103 2.628 2.214 0 3.595-1.902 3.6-5.237-.005-3.503-1.782-4.558-3.48-4.572zm.004 1.209c1.103 0 1.917.935 1.917 2s-.856 1.995-1.945 1.995c-1.093 0-1.888-.874-1.888-1.981 0-1.126.823-2.014 1.916-2.014zm7.884 6.777h1.251v-2.442h2.442v-1.251h-2.442v-2.447h-1.251v2.447h-2.447v1.25h2.447v2.443zm12.637-5.451h-1.465v-1.712h-1.39v1.712h-1.047v1.116h1.046v4.218c-.004 1.298.986 1.926 2.084 1.903.442-.005.74-.089.902-.149l-.25-1.149-.149.03a1.946 1.946 0 01-.34.03c-.451 0-.856-.148-.856-.953v-3.93h1.465v-1.116zm1.535 7.144h1.39v-4.363c0-.93.722-1.605 1.685-1.605.27 0 .479.056.646.14l.447-1.163c-.238-.158-.545-.26-.935-.26-.847 0-1.554.474-1.814 1.241h-.075v-1.134h-1.344v7.144zm7.233.158c1.181 0 1.846-.6 2.111-1.135h.056v.977h1.358v-4.744c0-2.08-1.637-2.493-2.772-2.493-1.293 0-2.484.52-2.949 1.823l1.307.297c.205-.506.726-.995 1.66-.995.842 0 1.3.413 1.353 1.131l.006.18c0 .395-.315.477-1.06.564l-.745.083c-1.353.158-2.74.512-2.74 2.135 0 1.405 1.057 2.177 2.415 2.177zm.302-1.116c-.786 0-1.354-.354-1.354-1.042 0-.698.581-.975 1.317-1.095l.859-.12c.435-.067.887-.16 1.01-.283v.921c0 .847-.674 1.619-1.832 1.619zm8.084 1.102c1.688 0 2.781-1.014 2.935-2.405h-1.354c-.177.772-.777 1.228-1.572 1.228-1.177 0-1.935-.981-1.935-2.54 0-1.53.772-2.492 1.935-2.492.884 0 1.423.558 1.572 1.228h1.354c-.15-1.442-1.326-2.4-2.95-2.4-2.013 0-3.316 1.516-3.316 3.697 0 2.154 1.256 3.684 3.33 3.684zm4.428-.144h1.39v-2.535l.693-.693 2.428 3.228h1.707l-3.088-4.08 2.893-3.064h-1.665l-2.847 3.023h-.12v-5.405h-1.391v9.526zm10.07.144c1.558 0 2.66-.767 2.976-1.93l-1.316-.237c-.251.674-.856 1.018-1.647 1.018-1.19 0-1.99-.772-2.028-2.149h5.08v-.493c0-2.581-1.545-3.59-3.163-3.59-1.991 0-3.303 1.516-3.303 3.711 0 2.219 1.293 3.67 3.4 3.67zm-2.01-4.34c.056-1.014.79-1.893 1.921-1.893 1.08 0 1.786.8 1.79 1.893h-3.71zm6.623 4.196h1.391v-4.363c0-.93.721-1.605 1.684-1.605.27 0 .479.056.646.14l.447-1.163c-.237-.158-.544-.26-.935-.26-.847 0-1.554.474-1.814 1.241h-.074v-1.134h-1.345v7.144zm10.572-5.4c-.288-1.112-1.158-1.837-2.702-1.837-1.614 0-2.758.85-2.758 2.116 0 1.014.614 1.688 1.954 1.986l1.209.265c.688.153 1.01.46 1.01.907 0 .553-.592.986-1.503.986-.833 0-1.368-.358-1.535-1.06l-1.344.204c.232 1.265 1.283 1.977 2.888 1.977 1.726 0 2.921-.916 2.921-2.21 0-1.009-.642-1.632-1.953-1.934l-1.135-.26c-.786-.187-1.126-.452-1.121-.936-.005-.548.59-.94 1.381-.94.865 0 1.265.48 1.428.959l1.26-.223zm5.247 5.4h1.358v-1.112h.116l.095.163c.28.46.813 1.088 1.97 1.088 1.73 0 2.987-1.386 2.987-3.697 0-2.317-1.275-3.68-3-3.68-1.326 0-1.805.81-2.052 1.252h-.083v-3.54h-1.391v9.526zm1.363-3.572c0-1.493.651-2.484 1.865-2.484 1.26 0 1.893 1.065 1.893 2.484 0 1.432-.651 2.525-1.893 2.525-1.195 0-1.865-1.023-1.865-2.525zm8.111-5.954h-1.39v9.526h1.39v-9.526zm4.88 9.67c2.013 0 3.33-1.474 3.33-3.684 0-2.223-1.317-3.697-3.33-3.697-2.014 0-3.33 1.474-3.33 3.697 0 2.21 1.316 3.684 3.33 3.684zm.004-1.167c-1.316 0-1.93-1.15-1.93-2.521 0-1.368.614-2.53 1.93-2.53 1.307 0 1.921 1.162 1.921 2.53 0 1.372-.614 2.52-1.92 2.52zm7.884 1.167c1.688 0 2.781-1.014 2.935-2.405h-1.354c-.176.772-.776 1.228-1.572 1.228-1.177 0-1.935-.981-1.935-2.54 0-1.53.772-2.492 1.935-2.492.884 0 1.423.558 1.572 1.228h1.354c-.149-1.442-1.326-2.4-2.949-2.4-2.014 0-3.316 1.516-3.316 3.697 0 2.154 1.255 3.684 3.33 3.684zm4.428-.144h1.39v-2.535l.694-.693 2.427 3.228h1.707l-3.088-4.08 2.893-3.064h-1.665l-2.847 3.023h-.12v-5.405h-1.391v9.526zm10.07.144c1.558 0 2.66-.767 2.976-1.93l-1.316-.237c-.251.674-.856 1.018-1.646 1.018-1.191 0-1.991-.772-2.028-2.149h5.079v-.493c0-2.581-1.544-3.59-3.163-3.59-1.99 0-3.302 1.516-3.302 3.711 0 2.219 1.293 3.67 3.4 3.67zm-2.01-4.34c.056-1.014.791-1.893 1.921-1.893 1.08 0 1.786.8 1.79 1.893h-3.71zm9.298 4.335c1.302 0 1.814-.795 2.065-1.25h.116v1.11h1.359v-9.525h-1.391v3.54h-.084l-.087-.15c-.273-.454-.778-1.101-1.969-1.101-1.725 0-2.995 1.362-2.995 3.679 0 2.311 1.251 3.697 2.986 3.697zm.307-1.186c-1.242 0-1.888-1.093-1.888-2.525 0-1.419.632-2.484 1.888-2.484 1.214 0 1.865.99 1.865 2.484 0 1.502-.665 2.525-1.865 2.525z"/><g><path fill="#FFF" d="M148.966 50.318c-.552 6.1-1.587 9.235-4.26 12.9a13.47 13.47 0 01-8.225 5.17 13.478 13.478 0 01-8.224-5.17c-2.68-3.665-3.709-6.8-4.26-12.9-.209-2.298-.209-7.863-.209-10.148a.994.994 0 01.794-.997l11.899-2.054 11.897 2.06c.47.091.806.513.794.996.001 2.28.001 7.844-.208 10.143h.002z"/><path fill="#592ACB" fill-rule="nonzero" d="M151.994 40.162c.01-1.866-1.318-3.467-3.14-3.788l-12.373-2.144-12.373 2.143c-1.822.321-3.149 1.922-3.14 3.788-.009 2.89.01 8.084.218 10.415.6 6.617 1.808 10.233 4.795 14.33a16.055 16.055 0 0010.337 6.334l.158.018.158-.018a16.055 16.055 0 0010.338-6.335c2.99-4.096 4.198-7.712 4.794-14.33.216-2.33.235-7.524.228-10.413zm-3.028 10.156c-.552 6.1-1.587 9.235-4.26 12.9a13.47 13.47 0 01-8.225 5.17 13.478 13.478 0 01-8.224-5.17c-2.68-3.665-3.709-6.8-4.26-12.9-.209-2.298-.209-7.863-.209-10.148a.994.994 0 01.794-.997l11.899-2.054 11.897 2.06c.47.091.806.513.794.996.001 2.28.001 7.844-.208 10.143h.002z"/><path fill="#592ACB" fill-rule="nonzero" d="M128.195 49.683c.698 7.385 2.006 9.573 4.077 12.287a9.69 9.69 0 004.709 3.283V41.235l-9.009 1.492c.032 3.278.11 5.761.223 6.956z"/></g><g><path fill="#338FF8" d="M248 208.875h19.258v34.128a1.871 1.871 0 01-1.871 1.872H249.87a1.871 1.871 0 01-1.871-1.872v-34.128z"/><path fill="#4BC3A1" d="M248 126.139h19.258v88.784H248z"/><path fill="#F9BD3F" d="M249.871 124h15.516c1.033 0 1.87.838 1.87 1.871V137H248v-11.129c0-1.033.838-1.871 1.871-1.871z"/></g></g></svg>