<svg xmlns="http://www.w3.org/2000/svg" xmlns:xlink="http://www.w3.org/1999/xlink" width="420" height="263"><defs><path id="b" d="M394.1 247H37.9c-2.7 0-4.9-2.2-4.9-4.9V4.9C33 2.2 35.2 0 37.9 0h356.3c2.7 0 4.9 2.2 4.9 4.9v237.3c-.1 2.6-2.3 4.8-5 4.8z"/><path id="c" d="M191.96 198.17h7.786v-1.995h-4.365l1.875-1.455c1.8-1.305 2.4-2.37 2.4-3.75 0-1.935-1.59-3.285-3.78-3.285-1.665 0-2.97.72-3.99 2.01l1.41 1.365c.75-.855 1.515-1.365 2.52-1.365.84 0 1.56.51 1.56 1.365 0 .72-.39 1.395-1.62 2.37l-3.795 2.94v1.8zm10.71.18c.736 0 1.336-.63 1.336-1.395 0-.705-.6-1.335-1.335-1.335-.78 0-1.395.63-1.395 1.335 0 .765.615 1.395 1.395 1.395zm6.676.015c2.46 0 4.095-1.395 4.095-3.585 0-2.1-1.575-3.27-3.405-3.27-.84 0-1.5.27-2.01.63l.06-2.28h4.785v-1.995h-6.825l-.15 5.565 1.485.6a3.232 3.232 0 011.995-.675c1.125 0 1.86.6 1.86 1.5 0 .885-.72 1.575-1.875 1.575-.99 0-1.935-.48-2.7-1.215l-1.305 1.56c.96.96 2.265 1.59 3.99 1.59zm14.67-4.26h2.4v1.575a3.5 3.5 0 01-2.01.66c-1.755 0-3.24-1.53-3.24-3.33 0-1.785 1.485-3.315 3.24-3.315.945 0 1.95.45 2.565 1.155l1.605-1.44c-1.035-1.08-2.625-1.725-4.17-1.725-2.985 0-5.52 2.43-5.52 5.325s2.535 5.34 5.52 5.34c1.545 0 3.135-.645 4.17-1.725v-4.245h-4.56v1.725zm6.51 4.065h5.415c1.965 0 3.375-1.14 3.375-2.79 0-1.14-.69-2.1-1.89-2.64.915-.48 1.44-1.245 1.44-2.295 0-1.5-1.275-2.58-3.12-2.58h-5.22v10.305zm2.205-6.15v-2.265h2.46c.825 0 1.41.48 1.41 1.125 0 .66-.585 1.14-1.41 1.14h-2.46zm0 4.26v-2.52h2.805c.885 0 1.515.525 1.515 1.26s-.63 1.26-1.515 1.26h-2.805z"/><filter id="a" width="107.1%" height="110.5%" x="-3.6%" y="-4.5%" filterUnits="objectBoundingBox"><feOffset dy="2" in="SourceAlpha" result="shadowOffsetOuter1"/><feGaussianBlur in="shadowOffsetOuter1" result="shadowBlurOuter1" stdDeviation="4"/><feColorMatrix in="shadowBlurOuter1" values="0 0 0 0 0.125490196 0 0 0 0 0.0705882353 0 0 0 0 0.22745098 0 0 0 0.24 0"/></filter></defs><g fill="none" fill-rule="evenodd"><g fill-rule="nonzero" transform="translate(0 6)"><use fill="#000" filter="url(#a)" xlink:href="#b"/><use fill="#FFF" xlink:href="#b"/></g><path stroke="#CDCDD4" stroke-dasharray="7" stroke-linejoin="round" stroke-width="2" d="M47.6 22.5h336v215h-336v-215z"/><g stroke="#0060DF" stroke-linejoin="round" stroke-width="4" transform="translate(177 93)"><circle cx="38.6" cy="38" r="38"/><path d="M38.6 19v38m-19-19h38"/></g><g fill-rule="nonzero" transform="translate(0 6)"><use fill="#000" xlink:href="#c"/><use fill="#0060DF" xlink:href="#c"/></g><path fill="#0060DF" fill-rule="nonzero" d="M419.08 127.21c0-.72-.27-1.26-.72-1.71-.54-.54-1.08-.72-1.71-.72h-23.22c-.72 0-1.26.27-1.71.72-.54.54-.72 1.08-.72 1.71v17.55c0 .72.27 1.26.72 1.71.45.54 1.08.72 1.71.72h23.22c.72 0 1.26-.27 1.71-.72.54-.45.72-1.08.72-1.71v-17.55z"/><path stroke="#0060DF" stroke-width="4.386" d="M411.61 125.41v-5.632c0-1.909-.63-3.532-1.89-4.963-1.26-1.337-2.88-2.005-4.68-2.005h0c-1.8 0-3.33.668-4.68 2.005-1.26 1.336-1.89 3.054-1.89 4.963v5.632"/><path fill="#91C7FF" fill-rule="nonzero" d="M407.11 139.27l-1.44-4.14c.36-.09.63-.27.9-.54.45-.45.63-.9.63-1.53s-.18-1.17-.63-1.53c-.45-.45-.9-.63-1.53-.63s-1.17.18-1.53.63c-.45.45-.63.9-.63 1.53s.18 1.17.63 1.53c.27.27.54.45.9.54l-1.44 4.14c-.09.36-.09.72.18 1.08.27.36.54.54.99.54h1.98c.45 0 .72-.18.99-.54.09-.36.09-.72 0-1.08zM44.3 87.3h-39c-1.2 0-2.2.4-3.1 1.3-.9.9-1.3 1.9-1.3 3.1v75.7c0 1.2.4 2.2 1.3 3.1.9.9 1.9 1.3 3.1 1.3H62c1.2 0 2.2-.4 3.1-1.3.9-.9 1.3-1.9 1.3-3.1v-56.5L44.3 87.3z"/><path stroke="#0060DF" stroke-linecap="round" stroke-linejoin="round" stroke-width="5" d="M33.5 113.5h-17m34.2 18H16.5m34.2 20H16.5"/><path fill="#FFF" fill-rule="nonzero" d="M44.3 87.3h-39c-1.2 0-2.2.4-3.1 1.3-.9.9-1.3 1.9-1.3 3.1v75.7c0 1.2.4 2.2 1.3 3.1.9.9 1.9 1.3 3.1 1.3H62c1.2 0 2.2-.4 3.1-1.3.9-.9 1.3-1.9 1.3-3.1v-56.5L44.3 87.3z" opacity=".7"/><g><path fill="#91C7FF" fill-rule="nonzero" d="M68.3 87.3h-39c-1.2 0-2.2.4-3.1 1.3-.9.9-1.3 1.9-1.3 3.1v75.7c0 1.2.4 2.2 1.3 3.1.9.9 1.9 1.3 3.1 1.3H86c1.2 0 2.2-.4 3.1-1.3.9-.9 1.3-1.9 1.3-3.1v-56.5L68.3 87.3z"/><path stroke="#0060DF" stroke-linecap="round" stroke-linejoin="round" stroke-width="5" d="M57.5 113.5h-17m34.2 18H40.5m34.2 20H40.5"/><path fill="#FFF" fill-rule="nonzero" d="M68.3 87.3h-39c-1.2 0-2.2.4-3.1 1.3-.9.9-1.3 1.9-1.3 3.1v75.7c0 1.2.4 2.2 1.3 3.1.9.9 1.9 1.3 3.1 1.3H86c1.2 0 2.2-.4 3.1-1.3.9-.9 1.3-1.9 1.3-3.1v-56.5L68.3 87.3z" opacity=".5"/></g><g><path fill="#91C7FF" fill-rule="nonzero" d="M94.3 87.3h-39c-1.2 0-2.2.4-3.1 1.3-.9.9-1.3 1.9-1.3 3.1v75.7c0 1.2.4 2.2 1.3 3.1.9.9 1.9 1.3 3.1 1.3H112c1.2 0 2.2-.4 3.1-1.3.9-.9 1.3-1.9 1.3-3.1v-56.5L94.3 87.3z"/><path stroke="#0060DF" stroke-linecap="round" stroke-linejoin="round" stroke-width="5" d="M83.5 113.5h-17m34.2 18H66.5m34.2 20H66.5"/><path fill="#589AD6" fill-rule="nonzero" d="M89.5 87.3v16.1c0 1.2.4 2.2 1.3 3.1.9.9 1.9 1.3 3.1 1.3h19.5L94.3 87.3h-4.8z"/><path fill="#CAE6FF" fill-rule="nonzero" d="M94.2 106.5c0 1.2.4 2.2 1.3 3.1.9.9 1.9 1.3 3.1 1.3h17.8L94.2 87.2v19.3z"/></g></g></svg>