<svg xmlns="http://www.w3.org/2000/svg" xml:space="preserve" width="184" height="116" viewBox="0 0 184 116">
  <style>
    .st1,.st2{fill:none;stroke:#333336;stroke-width:.68}.st2{fill:#fff}.st4{fill:#333336}.st6{fill:none;stroke:#333336;stroke-width:.68;stroke-linecap:round}
  </style>
  <path fill="#ff4aa2" d="M74.3 23.6 37.5 33.8c.4-1.9.8-3.9 1.1-5.9 3.4-.1 6.7-3.7 9.9-10.6 1.5 2.4 4.7 6.6 8.2 5.7h.1c1.8-.5 3.3-2.3 4.6-5.6 1.4 1.5 4.6 3 11.5 1.1.2-.1.4-.2.5-.4.1-.2.1-.4.1-.7-.1-.2-.2-.4-.4-.5-.2-.1-.4-.1-.7-.1-9 2.5-10.4-1.5-10.5-1.6-.1-.2-.2-.3-.3-.5-.1-.1-.3-.2-.5-.2s-.4.1-.5.2c-.2.1-.3.3-.3.4-1.4 4.5-2.9 5.8-4 6.1-2.8.7-6.1-4.3-7.1-6.3-.1-.1-.2-.3-.3-.3s-.3-.1-.5-.1-.3.1-.5.1c-.1.1-.2.2-.3.4-2.9 6.7-5.9 10.6-8.7 11 2-12.4 1.6-20-1.1-22.8-.8-.8-2.2-1.6-4.5-1-2.9.8-4.5 4.5-4.2 9.9.2 3.4 1 6.7 2.4 9.8 1.5 3 3.3 5 5.4 5.6-.4 2.3-.8 4.5-1.3 6.6l-5.1 1.4c-.2.1-.4.2-.5.4-.1.2-.1.4-.1.7.1.2.2.4.4.5.2.1.4.1.7.1l4.2-1.2c-1.3 5.8-2.5 10.1-2.5 10.2v.3c0 .1.1.2.1.3.1.1.1.2.2.3.1.1.2.1.3.2h.5c.1 0 .3-.1.4-.2.1-.1.2-.2.2-.4 0-.1 1.3-4.8 2.7-11.2L74.8 25c.2-.1.4-.2.5-.4.1-.2.1-.4.1-.7-.1-.2-.2-.4-.4-.5s-.4.2-.7.2zm-41.2-2.2c-1.3-2.9-2.1-6-2.3-9.2-.2-3.5.5-7.4 2.9-8.1 1.6-.4 2.3.1 2.8.5 3 2.9 1.8 14 .6 21.4-1.4-.5-2.8-2.1-4-4.6z"/>
  <path stroke-width=".6799864" d="m2.82488 22.60898 83.5232-20.4852 7.83678 31.95248-83.5232 20.4852z" class="st1"/>
  <path stroke-width=".6799864" d="m8.93472 53.92938 3.30208-.80988.42876 1.74816-3.30208.80988z" class="st2"/>
  <path stroke-width=".6799864" d="m50.54376 44.03628 3.30208-.80988.42876 1.74816-3.30208.80988z" class="st2"/>
  <path stroke-width=".6799864" d="m92.02986 33.53788 3.30208-.80988.42876 1.74816-3.30208.80988z" class="st2"/>
  <path stroke-width=".6799864" d="m84.34448 1.81538 3.30208-.80988.42876 1.74816-3.30208.80988z" class="st2"/>
  <path stroke-width=".6799864" d="m5.03574 37.92376 3.30208-.80988.42876 1.74816-3.30208.80988z" class="st2"/>
  <path stroke-width=".6799864" d="m88.04644 17.43306 3.30208-.80988.42876 1.74816-3.30208.80988z" class="st2"/>
  <path stroke-width=".6799864" d="m1.1266 22.13368 3.30208-.80988.42876 1.74816-3.30208.80988z" class="st2"/>
  <path fill="#ff7139" stroke="#333336" stroke-width=".68" d="M4.2 110.2C.5 105 1.7 97.8 6.9 94.1l72-51.1c5.2-3.7 12.4-2.5 16.1 2.7 3.7 5.2 2.5 12.4-2.7 16.1l-72 51.1c-5.2 3.8-12.4 2.5-16.1-2.7z"/>
  <path d="m75.4 64.6-1.7-2.7-1.2 2.9-1.3-.6 1.5-2.8-3.2.4-.1-1.4 3.2-.2-1.9-2.5 1.1-.8 1.7 2.7 1.2-2.9 1.3.6-1.5 2.8 3.2-.4.1 1.4-3.2.2 1.9 2.5-1.1.8z" class="st4"/>
  <path d="m84.6 57.5-1.7-2.7-1.2 2.9-1.3-.6 1.5-2.8-3.2.4-.1-1.4 3.2-.2-1.9-2.5L81 50l1.7 2.7 1.2-2.9 1.3.6-1.5 2.8 3.2-.4.1 1.4-3.2.2 1.9 2.5-1.1.6z" class="st4"/>
  <path d="m17 106.1-1.7-2.7-1.2 2.9-1.3-.6 1.5-2.8-3.2.4-.1-1.4 3.2-.2-1.9-2.5 1.1-.8 1.7 2.7 1.2-2.9 1.3.6-1.5 2.8 3.2-.4.1 1.4-3.2.2 1.9 2.5-1.1.8z" class="st4"/>
  <path d="m65.5 71.6-1.7-2.7-1.2 2.9-1.3-.6 1.5-2.8-3.2.4-.1-1.4 3.2-.2-1.9-2.5 1.1-.8 1.7 2.7 1.2-2.9 1.3.6-1.5 2.8 3.2-.4.1 1.4-3.2.2 1.9 2.5-1.1.8z" class="st4"/>
  <path d="M55.6 78.6 53.9 76l-1.2 2.9-1.3-.6 1.5-2.8-3.2.4-.1-1.4 3.2-.2-1.9-2.5L52 71l1.7 2.7 1.2-2.9 1.3.6-1.5 2.8 3.2-.4.1 1.4-3.2.2 1.9 2.5-1.1.7z" class="st4"/>
  <path d="M45.7 85.6 44 83l-1.2 2.9-1.3-.6 1.5-2.8-3.2.4-.1-1.4 3.2-.2-1.9-2.5 1.1-.8 1.7 2.7 1.2-2.9 1.3.6-1.5 2.8 3.2-.4.1 1.4-3.2.2 1.9 2.5-1.1.7z" class="st4"/>
  <path d="M35.8 92.7 34.1 90l-1.2 3-1.3-.6 1.5-2.8-3.2.4-.1-1.4 3.2-.2-2-2.5 1.1-.8 1.7 2.7 1.2-2.9 1.3.6-1.5 2.8 3.2-.4.1 1.4H35l1.9 2.5-1.1.9z" class="st4"/>
  <path d="M25.9 99.7 24.1 97l-1.2 2.9-1.3-.6 1.5-2.8-3.1.5-.1-1.4 3.2-.2-1.9-2.5 1.1-.8 1.7 2.7 1.2-2.9 1.3.6-1.5 2.7 3.2-.4.1 1.4-3.2.2 1.9 2.5-1.1.8z" class="st4"/>
  <path fill="#0290ff" stroke="#333336" stroke-width=".68" d="M80.8 106.3c-3.3 6.5-11.3 9.1-17.9 5.8-6.6-3.3-9.2-11.3-5.9-17.8 3.3-6.5 11.3-9.1 17.9-5.8 6.6 3.3 9.2 11.3 5.9 17.8z"/>
  <path d="M75.2 103c-1.8 3.5-6 5-9.3 3.3-3.3-1.7-4.6-5.9-2.8-9.4" class="st6"/>
  <path d="m68.7 95.6-.8 1.6" class="st6"/>
  <path d="m72.8 97.7-.8 1.6" class="st6"/>
  <path fill="#9059ff" stroke="#333336" stroke-width=".68" d="M180.9 40.4 127.2 6.3c-1.9-1.2-4.4-.8-5.5.9L98.4 43.5c-1.1 1.7-.4 4.1 1.5 5.3l53.7 34.1c1.9 1.2 4.4.8 5.5-.9l23.3-36.3c1.1-1.7.4-4.1-1.5-5.3z"/>
  <path fill="#c4b5fd" stroke="#333336" stroke-width=".68" d="M149.1 50.1c-3 4.7-9.4 6.1-14.1 3.1-4.8-3-6.2-9.3-3.2-14.1 3-4.7 9.4-6.1 14.1-3.1 4.9 3.1 6.3 9.4 3.2 14.1z"/>
  <path fill="#ffea80" stroke="#333336" stroke-width=".68" d="m143.4 47.1-7.9-1.1c-.2 0-.4-.2-.4-.5 0-.1 0-.1.1-.2l3.6-5.6c.1-.2.4-.2.6-.1.1 0 .1.1.1.1l4.3 6.7c.1.2.1.5-.1.6-.1.1-.2.1-.3.1z"/>
  <path fill="#ffd567" stroke="#333336" stroke-width=".68" d="M131 92.4c-2.2 13.6-15 22.8-28.7 20.6-13.7-2.2-23-15-20.8-28.5 2.2-13.6 15-22.8 28.7-20.6 13.6 2.1 22.9 14.9 20.8 28.5z"/>
  <path d="M96.7 91.4c-2-5.2.6-11 5.8-13 2.7-1 5.7-.8 8.1.4 1.1.6 2.2 1.4 3 2.3" class="st1"/>
  <path d="m111.9 76.1 1.8 4.7c0 .1 0 .1-.1.2l-4.7 1.8" class="st6"/>
  <path d="M100.4 96.4c1.1.7 2.3 1.2 3.5 1.5 2.7.6 5.5 0 7.9-1.7 3-2.2 4.4-5.7 4.1-9.2" class="st1"/>
  <path d="m103.4 100.9-2.9-4.1v-.2l4.1-2.9" class="st6"/>
</svg>
