<svg xmlns="http://www.w3.org/2000/svg" xml:space="preserve" width="50" height="50" viewBox="0 0 50 50">
  <style>
    .st1{fill:#fff;stroke:#181818;stroke-width:.4342}.st1,.st2{stroke-linecap:round;stroke-linejoin:round}.st2,.st6{fill:none;stroke:#181818;stroke-width:.4342}
  </style>
  <path fill="#0290ff" d="M25 .3c13.5 0 24.4 10.9 24.4 24.4 0 13.5-10.9 24.4-24.4 24.4C11.5 49.1.6 38.2.6 24.7.6 11.2 11.5.3 25 .3z"/>
  <path d="M32.5 29V13.5c0-1.2-1-2.2-2.2-2.2H16.9c-1.2 0-2.2 1-2.2 2.2v20c0 1.2 1 2.2 2.2 2.2h8.9l6.7-6.7h0z" class="st1"/>
  <path d="M35.3 31.6V16c0-1.2-1-2.2-2.2-2.2H19.7c-1.2 0-2.2 1-2.2 2.2v20c0 1.2 1 2.2 2.2 2.2h8.9l6.7-6.6h0z" class="st1"/>
  <path d="M35.3 31.6h-6.7v6.7" class="st2"/>
  <path fill="#ffea80" stroke="#181818" stroke-linecap="round" stroke-linejoin="round" stroke-width=".4342" d="M25.1 29.7s-.1.1-.2.1l-4 .9c-.2 0-.3-.1-.3-.3l.9-4c0-.1 0-.1.1-.2l5.6-5.6c.1-.1.3-.1.3 0l3.1 3.1c.1.1.1.3 0 .3l-5.5 5.7h0z"/>
  <path fill="#ff4aa2" stroke="#181818" stroke-width=".4342" d="M29.4 18.5c.3-.3.8-.3 1 0l2.4 2.4c.3.3.3.8 0 1l-2 2.1-3.4-3.4 2-2.1z"/>
  <path d="m28.1 23.2-3.3 3.3" class="st2"/>
  <path fill="#fff" d="m24.9 29.8-4 .9c-.2 0-.3-.1-.3-.3l.9-4"/>
  <path d="m24.9 29.8-4 .9c-.2 0-.3-.1-.3-.3l.9-4" class="st6"/>
  <path fill="#181818" d="m22.4 30.3-1.1.4-.6-.1v-.8l.3-.8 1.4 1.3z"/>
  <path d="m25 29.8-3.4-3.4" class="st6"/>
</svg>
