<svg xmlns="http://www.w3.org/2000/svg" xml:space="preserve" width="50" height="50" viewBox="0 0 50 50">
  <style>
    .st1,.st3,.st4{fill:#fff;stroke:#181818;stroke-width:.4341}.st3,.st4{fill:#ffd567}.st4{fill:none}
  </style>
  <circle cx="24.9" cy="24.8" r="24.4" fill="#9059ff"/>
  <path d="M11.8 17.6H34v11c0 .7-.5 1.2-1.2 1.2H13c-.7 0-1.2-.5-1.2-1.2v-11z" class="st1"/>
  <path d="M37 20.5H17.9c-.6 0-1.1.5-1.1 1.1v13.5c0 .6.5 1.1 1.1 1.1H37c.6 0 1.1-.5 1.1-1.1V21.7c0-.7-.5-1.2-1.1-1.2z" class="st1"/>
  <path fill="#c4b5fd" stroke="#181818" stroke-width=".4341" d="M31.6 28.4c0 2.3-1.9 4.2-4.2 4.2-2.3 0-4.2-1.9-4.2-4.2 0-2.3 1.9-4.2 4.2-4.2 2.4 0 4.2 1.9 4.2 4.2z"/>
  <path d="M29.4 28.6 26.5 30c-.1 0-.2 0-.2-.1v-3c0-.1.1-.2.2-.2h.1l2.8 1.5c0 .1.1.2 0 .4 0-.1 0 0 0 0z" class="st3"/>
  <path d="M11.8 14.4c0-.7.5-1.2 1.2-1.2h19.7c.7 0 1.2.5 1.2 1.2v3.3H11.8v-3.3z" class="st3"/>
  <path d="M14.6 16.2c.4 0 .7-.3.7-.7 0-.4-.3-.7-.7-.7-.4 0-.7.3-.7.7 0 .4.3.7.7.7z" class="st4"/>
  <path d="M17.4 16.2c.4 0 .7-.3.7-.7 0-.4-.3-.7-.7-.7-.4 0-.7.3-.7.7 0 .4.3.7.7.7z" class="st4"/>
  <path d="M20.1 16.2c.4 0 .7-.3.7-.7 0-.4-.3-.7-.7-.7-.4 0-.7.3-.7.7 0 .4.3.7.7.7z" class="st4"/>
</svg>
