<svg xmlns="http://www.w3.org/2000/svg" xml:space="preserve" width="50" height="50" viewBox="0 0 50 50">
  <style>
    .st1,.st3{fill:#fff;stroke:#181818;stroke-width:.4895}.st3{fill:none;stroke-linecap:round}
  </style>
  <circle cx="24.9" cy="24.9" r="24.4" fill="#ff7139"/>
  <path d="M9.7 22.5c-.1-.5.3-1 .8-1.1l21-3.4c.5-.1 1 .3 1.1.8l2.1 12.9-22.8 3.7-2.2-12.9z" class="st1"/>
  <path d="M10.9 37.1 36 33c.4-.1.7-.5.6-.9-.1-.4-.5-.7-.9-.6l-25.1 4.1c-.4.1-.7.5-.6.9.2.4.5.7.9.6z" class="st1"/>
  <path d="m32.4 13.7-3.3 13.7c-.1.5.2 1 .7 1.1l6.1 1.5c.5.1 1-.2 1.1-.7l3.3-13.7c.1-.5-.2-1-.7-1.1L33.5 13c-.5-.1-1 .2-1.1.7z" class="st1"/>
  <path fill="#fdba74" stroke="#181818" stroke-width=".4895" d="M27.2 25.9c.4 2.5-1.3 4.8-3.7 5.2-2.5.4-4.8-1.3-5.2-3.7-.4-2.5 1.3-4.8 3.7-5.2 2.5-.5 4.8 1.2 5.2 3.7z"/>
  <path d="M25 26.1c.2 1.3-.6 2.6-1.9 2.8-1.3.2-2.5-.7-2.7-2" class="st3"/>
  <path d="m21.8 25.4.1.6" class="st3"/>
  <path d="m23.3 25.1.1.6" class="st3"/>
  <path fill="#ffea80" stroke="#181818" stroke-width=".4895" d="M37.4 22.3c-.4 1.4-1.9 2.2-3.3 1.7-1.4-.4-2.2-1.9-1.7-3.3.4-1.4 1.9-2.2 3.3-1.7 1.3.4 2.1 1.9 1.7 3.3z"/>
  <path d="M36.2 21.8c-.2.8-1 1.2-1.7 1-.7-.2-1.1-1-.9-1.8" class="st3"/>
  <path d="m34.7 20.6-.1.3" class="st3"/>
  <path d="m35.5 20.8-.1.3" class="st3"/>
</svg>
