<svg xmlns="http://www.w3.org/2000/svg" xml:space="preserve" width="50" height="50" viewBox="0 0 50 50">
  <style>
    .st3{fill:none;stroke:#181818;stroke-width:.9611;stroke-linecap:round;stroke-linejoin:round}
  </style>
  <circle cx="25" cy="24.9" r="24.4" fill="#ffd567"/>
  <path fill="#ff8ac6" d="M14 28.8c-.1 0-.2 0-.3-.1-.1-.1-.1-.2-.1-.3V26h-.9c-.9 0-1.6-.7-1.6-1.6V12.9c0-.9.7-1.6 1.6-1.6h12.8c.9 0 1.6.7 1.6 1.6v11.5c0 .9-.7 1.6-1.6 1.6H17l-2.7 2.7c-.1.1-.2.1-.3.1z"/>
  <path fill="#181818" d="M25.4 11.6c.7 0 1.3.6 1.3 1.3v11.5c0 .7-.6 1.3-1.3 1.3h-8.5l-.1.1-2.6 2.6-.1.1c-.1 0-.2-.1-.2-.2v-2.6h-1.2c-.7 0-1.3-.6-1.3-1.3V12.9c0-.7.6-1.3 1.3-1.3h12.7zm0-.5H12.6c-1 0-1.8.8-1.8 1.8v11.5c0 1 .8 1.8 1.8 1.8h.7v2.1c0 .4.3.7.7.7.2 0 .3-.1.5-.2l2.6-2.6h8.3c1 0 1.8-.8 1.8-1.8V12.9c0-1-.8-1.8-1.8-1.8z"/>
  <path d="M19 13.7v1.4" class="st3"/>
  <path d="M14 15.2h10" class="st3"/>
  <path d="M16.4 15.5c.6 3.7 4.1 7 7.6 7.6" class="st3"/>
  <path d="M21.6 15.5c-.6 3.7-4.1 7-7.6 7.6" class="st3"/>
  <path fill="#fef9c3" fill-rule="evenodd" stroke="#181818" stroke-miterlimit="10" stroke-width=".4887" d="M24.4 20.4c-1 0-1.8.8-1.8 1.8v11.5c0 1 .8 1.8 1.8 1.8h8.3l2.6 2.6c.4.4 1.2.1 1.2-.5v-2.1h.7c1 0 1.8-.8 1.8-1.8V22.2c0-1-.8-1.8-1.8-1.8H24.4z" clip-rule="evenodd"/>
  <path d="M28 30.1h5.5" class="st3"/>
  <path d="m26.9 32.7 3.6-9.3h.5l3.9 9.5" class="st3"/>
</svg>
