<svg id="Transparency" xmlns="http://www.w3.org/2000/svg" viewBox="0 0 2880 744"><defs><style>.cls-1{fill:#ffcb00;}.cls-1,.cls-2,.cls-3{opacity:0.67;}.cls-2{fill:#00af84;}.cls-3{fill:#e14164;}</style></defs><title>moz_hero_transparancy</title><polygon class="cls-1" points="304.29 278.53 496.78 744 111.8 744 304.29 278.53"/><polygon class="cls-1" points="610.1 219.19 804.23 744 415.97 744 610.1 219.19"/><polygon class="cls-1" points="1282.48 0 1481.92 744 1083.04 744 1282.48 0"/><polygon class="cls-1" points="1704.02 247.96 1926.12 744 1481.92 744 1704.02 247.96"/><polygon class="cls-1" points="1978.57 294.48 2150.45 744 1821.48 744 1978.57 294.48"/><polygon class="cls-1" points="2307.53 176.78 2479.41 744 2150.45 744 2307.53 176.78"/><polygon class="cls-1" points="2665.07 55.57 2880 744 2450.13 744 2665.07 55.57"/><polygon class="cls-2" points="2578.24 173.56 2774.89 744 2381.6 744 2578.24 173.56"/><polygon class="cls-2" points="192.49 197.2 384.98 744 0 744 192.49 197.2"/><polygon class="cls-2" points="735.32 60.86 927.8 744 542.83 744 735.32 60.86"/><polygon class="cls-2" points="1142.22 146.22 1356.63 744 927.8 744 1142.22 146.22"/><polygon class="cls-2" points="1589.81 176.78 1822.99 744 1356.63 744 1589.81 176.78"/><polygon class="cls-2" points="2148.42 67.58 2381.6 744 1915.24 744 2148.42 67.58"/><polygon class="cls-3" points="2376.17 244 2664.02 744 2088.32 744 2376.17 244"/><polygon class="cls-3" points="1874.33 362.38 2088.32 744 1660.34 744 1874.33 362.38"/><polygon class="cls-3" points="1412.88 275.87 1660.34 744 1165.42 744 1412.88 275.87"/><polygon class="cls-3" points="924.13 219.19 1165.42 744 682.84 744 924.13 219.19"/><polygon class="cls-3" points="459.67 364.96 682.84 744 236.5 744 459.67 364.96"/></svg>