<svg xmlns="http://www.w3.org/2000/svg" id="Layer_1" x="0" y="0" version="1.1" viewBox="0 0 202 174" width="204" height="174" xml:space="preserve">
  <style>
    .st1{fill:#9f9fad}.st8{fill:#f11f89}.st10{fill:#ff68bb}.st12{fill:none;stroke:#ffa436;stroke-width:3.1581;stroke-linecap:round;stroke-linejoin:round}
  </style>
  <path fill="#f2f2f2" d="M201.1 86.8c0 48-38.9 86.8-86.8 86.8-48 0-86.8-38.9-86.8-86.8 0-48 38.9-86.8 86.8-86.8s86.8 38.9 86.8 86.8z"/>
  <path d="M163 142.2v6.4H31.6v-6.4l17-4.2H144l19 4.2z" class="st1"/>
  <path d="M37.9 133.5V61.9c0-4.8 3.9-8.7 8.7-8.7h101.3c4.8 0 8.7 3.9 8.7 8.7v71.6c0 4.8-3.9 8.7-8.7 8.7H46.6c-4.8 0-8.7-3.9-8.7-8.7z" class="st1"/>
  <path fill="#45228f" d="M110 65.9l-65.7 65.7c0 1.2 1 2.1 2.1 2.1h101.7c1.2 0 2.1-1 2.1-2.1V65.9H110z"/>
  <path fill="#592aca" d="M44.3 65.9v65.7L110 65.9H44.3z"/>
  <path fill="#5a29cb" d="M148.2 59.5H46.4c-1.2 0-2.1.9-2.1 2.1v4.2h106v-4.2c0-1.1-1-2.1-2.1-2.1z"/>
  <path fill="#8f8f9d" d="M149.2 140.1H45.4c-.6 0-1.1-.5-1.1-1.1 0-.6.5-1.1 1.1-1.1h103.9c.6 0 1.1.5 1.1 1.1-.1.6-.6 1.1-1.2 1.1z"/>
  <path fill="none" stroke="#80808e" stroke-linecap="round" stroke-linejoin="round" stroke-width="2.9055" d="M89.6 144.2h14.8"/>
  <path fill="#bfbfc9" d="M195.1 19.5h-45.4c-3.6 0-6.5 2.9-6.5 6.5v82.2c0 3.6 2.9 6.5 6.5 6.5h45.4c3.6 0 6.5-2.9 6.5-6.5V26c0-3.6-2.9-6.5-6.5-6.5z"/>
  <path d="M149.7 77.9v26c0 1.2 1 2.2 2.2 2.2H193c1.2 0 2.2-1 2.2-2.2V32.5l-45.5 45.4z" class="st8"/>
  <path fill="#ff298a" d="M149.7 32.5v45.4l45.4-45.4h-45.4z"/>
  <path d="M192.9 26h-41.1c-1.2 0-2.2 1-2.2 2.2v4.3H195v-4.3c.1-1.3-.9-2.2-2.1-2.2z" class="st8"/>
  <circle cx="161.6" cy="96.3" r="3.2" class="st10"/>
  <circle cx="172.4" cy="96.3" r="3.2" class="st10"/>
  <circle cx="183.2" cy="96.3" r="3.2" class="st10"/>
  <path fill="none" stroke="#9f9fad" stroke-linecap="round" stroke-linejoin="round" stroke-width="2.9581" d="M169.5 110.3h6.1"/>
  <path d="M12.1 102.1h28.4" class="st12"/>
  <path d="M117.4 37.9h28.4" class="st12"/>
  <path d="M24.7 120h39" class="st12"/>
  <path d="M1.6 107.4h14.7" class="st12"/>
  <path d="M106.8 47.4h14.8" class="st12"/>
  <path d="M15.3 89.5h1" class="st12"/>
  <path d="M100.5 42.1h1.1" class="st12"/>
  <path fill="none" stroke="#734cd0" stroke-width="3.1581" d="M44.3 114.2h44.1c5.8 0 10.5-4.7 10.5-10.5V90c0-5.8 4.7-10.5 10.5-10.5h33.7"/>
  <path fill="none" stroke="#ff68bb" stroke-width="3.1581" d="M195.1 43.7H185c-5.8 0-10.5 4.7-10.5 10.5V69c0 5.8-4.7 10.5-10.5 10.5h-14.3"/>
</svg>
