<?xml version="1.0" encoding="utf-8"?>
<!-- Generator: Adobe Illustrator 22.1.0, SVG Export Plug-In . SVG Version: 6.00 Build 0)  -->
<svg version="1.1" id="Layer_1" xmlns="http://www.w3.org/2000/svg" xmlns:xlink="http://www.w3.org/1999/xlink" x="0px" y="0px"
	 viewBox="0 0 201.6 173.7" style="enable-background:new 0 0 201.6 173.7;" xml:space="preserve">
<style type="text/css">
	.st0{fill:#F2F2F2;}
	.st1{fill:#9F9FAD;}
	.st2{fill:#45228F;}
	.st3{fill:#592ACA;}
	.st4{fill:#5A29CB;}
	.st5{fill:#8F8F9D;}
	.st6{fill:none;stroke:#80808E;stroke-width:2.9055;stroke-linecap:round;stroke-linejoin:round;}
	.st7{fill:#BFBFC9;}
	.st8{fill:#F11F89;}
	.st9{fill:#FF298A;}
	.st10{fill:#FF68BB;}
	.st11{fill:none;stroke:#9F9FAD;stroke-width:2.9581;stroke-linecap:round;stroke-linejoin:round;}
	.st12{fill:none;stroke:#FFA436;stroke-width:3.1581;stroke-linecap:round;stroke-linejoin:round;}
	.st13{fill:none;stroke:#734CD0;stroke-width:3.1581;}
	.st14{fill:none;stroke:#FF68BB;stroke-width:3.1581;}
</style>
<path class="st0" d="M201.1,86.8c0,48-38.9,86.8-86.8,86.8c-48,0-86.8-38.9-86.8-86.8c0-48,38.9-86.8,86.8-86.8
	C162.2,0,201.1,38.9,201.1,86.8z"/>
<path class="st1" d="M163,142.2v6.4H31.6v-6.4l17-4.2h95.4L163,142.2z"/>
<path class="st1" d="M37.9,133.5V61.9c0-4.8,3.9-8.7,8.7-8.7h101.3c4.8,0,8.7,3.9,8.7,8.7v71.6c0,4.8-3.9,8.7-8.7,8.7H46.6
	C41.8,142.2,37.9,138.3,37.9,133.5z"/>
<path class="st2" d="M110,65.9l-65.7,65.7c0,1.2,1,2.1,2.1,2.1h101.7c1.2,0,2.1-1,2.1-2.1V65.9H110z"/>
<path class="st3" d="M44.3,65.9v65.7L110,65.9H44.3z"/>
<path class="st4" d="M148.2,59.5H46.4c-1.2,0-2.1,0.9-2.1,2.1v4.2h106v-4.2C150.3,60.5,149.3,59.5,148.2,59.5z"/>
<path class="st5" d="M149.2,140.1H45.4c-0.6,0-1.1-0.5-1.1-1.1c0-0.6,0.5-1.1,1.1-1.1h103.9c0.6,0,1.1,0.5,1.1,1.1
	C150.3,139.6,149.8,140.1,149.2,140.1L149.2,140.1z"/>
<path class="st6" d="M89.6,144.2h14.8"/>
<path class="st7" d="M195.1,19.5h-45.4c-3.6,0-6.5,2.9-6.5,6.5v82.2c0,3.6,2.9,6.5,6.5,6.5h45.4c3.6,0,6.5-2.9,6.5-6.5V26
	C201.6,22.4,198.7,19.5,195.1,19.5z"/>
<path class="st8" d="M149.7,77.9v26c0,1.2,1,2.2,2.2,2.2h41.1c1.2,0,2.2-1,2.2-2.2V32.5L149.7,77.9z"/>
<path class="st9" d="M149.7,32.5v45.4l45.4-45.4H149.7L149.7,32.5z"/>
<path class="st8" d="M192.9,26h-41.1c-1.2,0-2.2,1-2.2,2.2v4.3h45.4v-4.3C195.1,26.9,194.1,26,192.9,26L192.9,26z"/>
<circle class="st10" cx="161.6" cy="96.3" r="3.2"/>
<circle class="st10" cx="172.4" cy="96.3" r="3.2"/>
<circle class="st10" cx="183.2" cy="96.3" r="3.2"/>
<path class="st11" d="M169.5,110.3h6.1"/>
<line class="st12" x1="12.1" y1="102.1" x2="40.5" y2="102.1"/>
<line class="st12" x1="117.4" y1="37.9" x2="145.8" y2="37.9"/>
<line class="st12" x1="24.7" y1="120" x2="63.7" y2="120"/>
<line class="st12" x1="1.6" y1="107.4" x2="16.3" y2="107.4"/>
<line class="st12" x1="106.8" y1="47.4" x2="121.6" y2="47.4"/>
<line class="st12" x1="15.3" y1="89.5" x2="16.3" y2="89.5"/>
<line class="st12" x1="100.5" y1="42.1" x2="101.6" y2="42.1"/>
<path class="st13" d="M44.3,114.2h44.1c5.8,0,10.5-4.7,10.5-10.5V90c0-5.8,4.7-10.5,10.5-10.5h33.7"/>
<path class="st14" d="M195.1,43.7H185c-5.8,0-10.5,4.7-10.5,10.5V69c0,5.8-4.7,10.5-10.5,10.5h-14.3"/>
</svg>
