<?xml version="1.0" encoding="utf-8"?>
<svg width="248" height="248" viewBox="0 0 248 248" fill="none" xmlns="http://www.w3.org/2000/svg">
  <g clip-path="url(#clip0_59_156)">
    <path d="M167.865 185.53L58.6669 185.437C54.879 185.432 51.8183 182.213 51.8178 178.241L51.9216 74.9269C51.9366 70.2116 55.5688 66.4527 60.0163 66.4655L96.2439 66.4941C98.5713 66.506 100.749 67.7539 102.013 69.7933L108.353 80.1511C109.62 82.2106 111.777 83.4615 114.122 83.4503L167.949 83.4958C171.737 83.5014 174.798 86.7204 174.798 90.6926L174.724 178.339C174.722 182.291 171.65 185.516 167.862 185.51L167.865 185.53Z" fill="url(#paint0_linear_59_156)" stroke="black" stroke-width="2"/>
    <path d="M71.6044 93.9667L180.907 94.0653C185.394 94.0722 189.038 97.6184 189.033 101.982L189.006 142.326C188.975 164.085 170.794 181.75 148.419 181.727L71.5365 181.654C67.0487 181.647 63.4054 178.101 63.4097 173.737L63.4682 101.858C63.4725 97.4939 67.1167 93.9598 71.6044 93.9667Z" fill="#FEEC6F" stroke="black" stroke-width="2"/>
    <path d="M58.6673 185.437C62.4552 185.442 66.2792 182.438 67.2241 178.74L84.7019 109.888C85.6439 106.17 89.4709 103.186 93.2587 103.192L196.961 103.28C200.749 103.286 203.057 106.285 202.115 110.003L184.638 178.854C183.693 182.552 179.869 185.557 176.081 185.551L58.6673 185.437Z" fill="url(#paint1_linear_59_156)" stroke="black" stroke-width="2"/>
  </g>
  <defs>
    <linearGradient id="paint0_linear_59_156" x1="51.7704" y1="126" x2="174.67" y2="126.123" gradientUnits="userSpaceOnUse">
      <stop offset="0.05" stop-color="#0290FF"/>
      <stop offset="1" stop-color="#9059FF"/>
    </linearGradient>
    <linearGradient id="paint1_linear_59_156" x1="58.5961" y1="144.357" x2="202.189" y2="144.501" gradientUnits="userSpaceOnUse">
      <stop offset="0.05" stop-color="#0290FF"/>
      <stop offset="1" stop-color="#9059FF"/>
    </linearGradient>
    <clipPath id="clip0_59_156">
      <rect width="248" height="248" fill="white"/>
    </clipPath>
  </defs>
</svg>
