<?xml version="1.0" encoding="utf-8"?>
<svg width="248" height="248" viewBox="0 0 248 248" fill="none" xmlns="http://www.w3.org/2000/svg">
  <path d="M125.024 188.474C124.613 188.444 124.153 188.311 123.587 188.014L123.586 188.013C106.961 179.312 94.6723 170.655 84.87 160.772L84.8698 160.771C77.9603 153.808 74.0252 147.704 72.0065 140.937L72.0059 140.935C71.2613 138.457 70.8797 136.179 70.8375 134.157C70.6003 120.739 70.4419 107.101 70.289 93.9048L70.289 93.9042L70.1494 82.5294C70.1466 82.3039 70.1664 82.0774 70.1791 81.9723L70.187 81.9064L70.1862 81.8401L70.1841 81.6688L70.4035 81.5759C71.318 81.1899 72.2357 80.8294 73.1535 80.4746C75.0827 79.7297 76.974 78.9936 78.714 78.0062L78.7156 78.0053C84.332 74.8048 88.1238 69.806 90.3346 62.8436L90.335 62.8423C90.5517 62.1564 90.8239 61.7861 91.1197 61.5695C91.4177 61.3514 91.863 61.199 92.601 61.19L92.6903 61.1889L92.7794 61.1878L92.8685 61.1867L92.9573 61.1856L93.0461 61.1845L93.1348 61.1834L93.2233 61.1823L93.3117 61.1812L93.4 61.1802L93.4882 61.1791L93.5762 61.178L93.6641 61.1769L93.7519 61.1758L93.8396 61.1748L93.9272 61.1737L94.0146 61.1726L94.1019 61.1715L94.1891 61.1705L94.2762 61.1694L94.3631 61.1683L94.45 61.1673L94.5367 61.1662L94.6233 61.1651L94.7098 61.1641L94.7961 61.163L94.8824 61.162L94.9685 61.1609L95.0545 61.1599L95.1404 61.1588L95.2262 61.1577L95.3118 61.1567L95.3973 61.1556L95.4827 61.1546L95.568 61.1535L95.6532 61.1525L95.7383 61.1515L95.8232 61.1504L95.908 61.1494L95.9928 61.1483L96.0773 61.1473L96.1618 61.1463L96.2462 61.1452L96.3304 61.1442L96.4145 61.1432L96.4986 61.1421L96.5825 61.1411L96.6662 61.1401L96.7499 61.139L96.8334 61.138L96.9169 61.137L97.0002 61.136L97.0834 61.1349L97.1665 61.1339L97.2495 61.1329L97.3323 61.1319L97.4151 61.1309L97.4977 61.1299L97.5802 61.1288L97.6626 61.1278L97.7449 61.1268L97.8271 61.1258L97.9092 61.1248L97.9911 61.1238L98.073 61.1228L98.1547 61.1218L98.2363 61.1208L98.3178 61.1198L98.3992 61.1188L98.4805 61.1178L98.5616 61.1168L98.6427 61.1158L98.7236 61.1148L98.8044 61.1138L98.8852 61.1128L98.9658 61.1118L99.0463 61.1108L99.1267 61.1099L99.2069 61.1089L99.2871 61.1079L99.3672 61.1069L99.4471 61.1059L99.5269 61.1049L99.6067 61.104L99.6863 61.103L99.7658 61.102L99.8452 61.101L99.9245 61.1001L100.004 61.0991L100.083 61.0981L100.162 61.0972L100.241 61.0962L100.319 61.0952L100.398 61.0943L100.476 61.0933L100.555 61.0923L100.633 61.0914L100.711 61.0904L100.789 61.0894L100.867 61.0885L100.945 61.0875L101.023 61.0866L101.101 61.0856L101.178 61.0847L101.256 61.0837L101.333 61.0828L101.41 61.0818L101.488 61.0809L101.565 61.0799L101.642 61.079L101.718 61.078L101.795 61.0771L101.872 61.0762L101.948 61.0752L102.025 61.0743L102.101 61.0733L102.177 61.0724L102.253 61.0715L102.329 61.0705L102.405 61.0696L102.481 61.0687L102.556 61.0678L102.632 61.0668L102.707 61.0659L102.783 61.065L102.858 61.0641L102.933 61.0631L103.008 61.0622L103.083 61.0613L103.158 61.0604L103.233 61.0595L103.308 61.0585L103.382 61.0576L103.456 61.0567L103.531 61.0558L103.605 61.0549L103.679 61.054L103.753 61.0531L103.827 61.0522L103.901 61.0512L103.975 61.0503L104.048 61.0494L104.122 61.0485L104.195 61.0476L104.269 61.0467L104.342 61.0458L104.415 61.0449L104.488 61.044L104.561 61.0431L104.634 61.0423L104.707 61.0414L104.779 61.0405L104.852 61.0396L104.924 61.0387L104.997 61.0378L105.069 61.0369L105.141 61.036L105.213 61.0351L105.285 61.0343L105.357 61.0334L105.429 61.0325L105.5 61.0316L105.572 61.0307L105.643 61.0299L105.715 61.029L105.786 61.0281L105.857 61.0272L105.928 61.0264L105.999 61.0255L106.07 61.0246L106.141 61.0238L106.211 61.0229L106.282 61.022L106.353 61.0212L106.423 61.0203L106.493 61.0194L106.564 61.0186L106.634 61.0177L106.704 61.0168L106.774 61.016L106.843 61.0151L106.913 61.0143L106.983 61.0134L107.052 61.0126L107.122 61.0117L107.191 61.0109L107.261 61.01L107.33 61.0092L107.399 61.0083L107.468 61.0075L107.537 61.0066L107.606 61.0058L107.674 61.0049L107.743 61.0041L107.811 61.0032L107.88 61.0024L107.948 61.0016L108.017 61.0007L108.085 60.9999L108.153 60.9991L108.221 60.9982L108.289 60.9974L108.356 60.9966L108.424 60.9957L108.492 60.9949L108.559 60.9941L108.627 60.9932L108.694 60.9924L108.761 60.9916L108.829 60.9908L108.896 60.9899L108.963 60.9891L109.03 60.9883L109.096 60.9875L109.163 60.9866L109.23 60.9858L109.296 60.985L109.363 60.9842L109.429 60.9834L109.496 60.9826L109.562 60.9818L109.628 60.9809L109.694 60.9801L109.76 60.9793L109.826 60.9785L109.891 60.9777L109.957 60.9769L110.023 60.9761L110.088 60.9753L110.154 60.9745L110.219 60.9737L110.284 60.9729L110.349 60.9721L110.415 60.9713L110.48 60.9705L110.544 60.9697L110.609 60.9689L110.674 60.9681L110.739 60.9673L110.803 60.9665L110.868 60.9657L110.932 60.9649L110.996 60.9641L111.061 60.9634L111.125 60.9626L111.189 60.9618L111.253 60.961L111.317 60.9602L111.381 60.9594L111.444 60.9586L111.508 60.9579L111.572 60.9571L111.635 60.9563L111.698 60.9555L111.762 60.9547L111.825 60.954L111.888 60.9532L111.951 60.9524L112.014 60.9516L112.077 60.9509L112.14 60.9501L112.203 60.9493L112.265 60.9486L112.328 60.9478L112.391 60.947L112.453 60.9463L112.515 60.9455L112.578 60.9447L112.64 60.944L112.702 60.9432L112.764 60.9424L112.826 60.9417L112.888 60.9409L112.95 60.9402L113.011 60.9394L113.073 60.9387L113.134 60.9379L113.196 60.9371L113.257 60.9364L113.319 60.9356L113.38 60.9349L113.441 60.9341L113.502 60.9334L113.563 60.9326L113.624 60.9319L113.685 60.9311L113.746 60.9304L113.806 60.9296L113.867 60.9289L113.928 60.9282L113.988 60.9274L114.048 60.9267L114.109 60.9259L114.169 60.9252L114.229 60.9245L114.289 60.9237L114.349 60.923L114.409 60.9222L114.469 60.9215L114.529 60.9208L114.589 60.92L114.648 60.9193L114.708 60.9186L114.767 60.9179L114.827 60.9171L114.886 60.9164L114.945 60.9157L115.004 60.9149L115.064 60.9142L115.123 60.9135L115.182 60.9128L115.24 60.912L115.299 60.9113L115.358 60.9106L115.417 60.9099L115.475 60.9092L115.534 60.9084L115.592 60.9077L115.651 60.907L115.709 60.9063L115.767 60.9056L115.826 60.9049L115.884 60.9041L115.942 60.9034L116 60.9027L116.058 60.902L116.115 60.9013L116.173 60.9006L116.231 60.8999L116.288 60.8992L116.346 60.8985L116.403 60.8978L116.461 60.8971L116.518 60.8964L116.575 60.8957L116.633 60.8949L116.69 60.8942L116.747 60.8935L116.804 60.8928L116.861 60.8921L116.918 60.8915L116.974 60.8908L117.031 60.8901L117.088 60.8894L117.144 60.8887L117.201 60.888L117.257 60.8873L117.314 60.8866L117.37 60.8859L117.426 60.8852L117.482 60.8845L117.539 60.8838L117.595 60.8831L117.651 60.8825L117.706 60.8818L117.762 60.8811L117.818 60.8804L117.874 60.8797L117.929 60.879L117.985 60.8783L118.041 60.8777L118.096 60.877L118.151 60.8763L118.207 60.8756L118.262 60.8749L118.317 60.8743L118.372 60.8736L118.427 60.8729L118.482 60.8722L118.537 60.8716L118.592 60.8709L118.647 60.8702L118.702 60.8695L118.757 60.8689L118.811 60.8682L118.866 60.8675L118.92 60.8669L118.975 60.8662L119.029 60.8655L119.083 60.8649L119.138 60.8642L119.192 60.8635L119.246 60.8629L119.3 60.8622L119.354 60.8615L119.408 60.8609L119.462 60.8602L119.516 60.8596L119.569 60.8589L119.623 60.8582L119.677 60.8576L119.73 60.8569L119.784 60.8563L119.837 60.8556L119.891 60.855L119.944 60.8543L119.997 60.8536L120.051 60.853L120.104 60.8523L120.157 60.8517L120.21 60.851L120.263 60.8504L120.316 60.8497L120.369 60.8491L120.421 60.8484L120.474 60.8478L120.527 60.8471L120.58 60.8465L120.632 60.8458L120.685 60.8452L120.737 60.8446L120.79 60.8439L120.842 60.8433L120.894 60.8426L120.946 60.842L120.999 60.8413L121.051 60.8407L121.103 60.8401L121.155 60.8394L121.207 60.8388L121.259 60.8382L121.311 60.8375L121.362 60.8369L121.414 60.8362L121.466 60.8356L121.517 60.835L121.569 60.8343L121.621 60.8337L121.672 60.8331L121.723 60.8325L121.775 60.8318L121.826 60.8312L121.877 60.8306L121.929 60.8299L121.98 60.8293L122.031 60.8287L122.082 60.8281L122.133 60.8274L122.184 60.8268L122.235 60.8262L122.286 60.8256L122.336 60.8249L122.387 60.8243L122.438 60.8237L122.488 60.8231L122.539 60.8224L122.589 60.8218L122.64 60.8212L122.69 60.8206L122.741 60.82L122.791 60.8193L122.841 60.8187L122.892 60.8181L122.942 60.8175L122.992 60.8169L123.042 60.8163L123.092 60.8157L123.142 60.815L123.192 60.8144L123.242 60.8138L123.292 60.8132L123.341 60.8126L123.391 60.812L123.441 60.8114L123.49 60.8108L123.54 60.8102L123.589 60.8095L123.639 60.8089L123.688 60.8083L123.738 60.8077L123.787 60.8071L123.836 60.8065L123.886 60.8059L123.935 60.8053L123.984 60.8047L124.033 60.8041L124.082 60.8035L124.131 60.8029L124.18 60.8023L124.229 60.8017L124.278 60.8011L124.327 60.8005L124.376 60.7999L124.424 60.7993L124.473 60.7987L124.522 60.7981L124.57 60.7975L124.619 60.7969L124.667 60.7963L124.716 60.7957L124.764 60.7951L124.813 60.7945L124.861 60.7939L124.909 60.7933L124.958 60.7927L125.006 60.7922L125.054 60.7916L125.102 60.791L125.15 60.7904L125.198 60.7898L125.246 60.7892L125.294 60.7886L125.342 60.788L125.39 60.7874L125.438 60.7869L125.485 60.7863L125.533 60.7857L125.581 60.7851L125.629 60.7845L125.676 60.7839L125.724 60.7833L125.771 60.7828L125.819 60.7822L141.082 60.5948L141.106 60.5945L141.13 60.5942L141.154 60.5939L141.178 60.5936L141.202 60.5933L141.226 60.593L141.25 60.5927L141.274 60.5924L141.298 60.5921L141.322 60.5918L141.346 60.5916L141.37 60.5913L141.394 60.591L141.418 60.5907L141.442 60.5904L141.466 60.5901L141.491 60.5898L141.515 60.5895L141.539 60.5892L141.563 60.5889L141.587 60.5886L141.611 60.5883L141.635 60.588L141.659 60.5877L141.683 60.5874L141.708 60.5871L141.732 60.5868L141.756 60.5865L141.78 60.5862L141.804 60.5859L141.828 60.5856L141.853 60.5853L141.877 60.585L141.901 60.5847L141.925 60.5844L141.949 60.5841L141.973 60.5839L141.998 60.5836L142.022 60.5833L142.046 60.583L142.07 60.5827L142.094 60.5824L142.119 60.5821L142.143 60.5818L142.167 60.5815L142.191 60.5812L142.216 60.5809L142.24 60.5806L142.264 60.5803L142.289 60.58L142.313 60.5797L142.337 60.5794L142.361 60.5791L142.386 60.5788L142.41 60.5785L142.434 60.5782L142.459 60.5779L142.483 60.5776L142.507 60.5773L142.532 60.577L142.556 60.5767L142.58 60.5764L142.605 60.5761L142.629 60.5758L142.653 60.5755L142.678 60.5752L142.702 60.5749L142.727 60.5746L142.751 60.5743L142.775 60.574L142.8 60.5737L142.824 60.5734L142.849 60.5731L142.873 60.5728L142.897 60.5725L142.922 60.5722L142.946 60.5719L142.971 60.5716L142.995 60.5713L143.02 60.571L143.044 60.5707L143.069 60.5704L143.093 60.5701L143.118 60.5698L143.142 60.5695L143.167 60.5692L143.191 60.5689L143.216 60.5686L143.24 60.5683L143.265 60.568L143.289 60.5677L143.314 60.5674L143.338 60.5671L143.363 60.5668L143.388 60.5665L143.412 60.5662L143.437 60.5659L143.461 60.5656L143.486 60.5653L143.511 60.565L143.535 60.5647L143.56 60.5644L143.585 60.5641L143.609 60.5638L143.634 60.5635L143.658 60.5632L143.683 60.5629L143.708 60.5626L143.733 60.5623L143.757 60.562L143.782 60.5617L143.807 60.5613L143.831 60.561L143.856 60.5607L143.881 60.5604L143.906 60.5601L143.93 60.5598L143.955 60.5595L143.98 60.5592L144.005 60.5589L144.029 60.5586L144.054 60.5583L144.079 60.558L144.104 60.5577L144.129 60.5574L144.153 60.5571L144.178 60.5568L144.203 60.5565L144.228 60.5562L144.253 60.5559L144.278 60.5556L144.302 60.5553L144.327 60.555L144.352 60.5546L144.377 60.5543L144.402 60.554L144.427 60.5537L144.452 60.5534L144.477 60.5531L144.502 60.5528L144.527 60.5525L144.552 60.5522L144.577 60.5519L144.602 60.5516L144.627 60.5513L144.652 60.551L144.677 60.5507L144.702 60.5504L144.727 60.5501L144.752 60.5497L144.777 60.5494L144.802 60.5491L144.827 60.5488L144.852 60.5485L144.877 60.5482L144.902 60.5479L144.927 60.5476L144.952 60.5473L144.977 60.547L145.002 60.5467L145.027 60.5464L145.053 60.5461L145.078 60.5457L145.103 60.5454L145.128 60.5451L145.153 60.5448L145.178 60.5445L145.204 60.5442L145.229 60.5439L145.254 60.5436L145.279 60.5433L145.304 60.543L145.33 60.5426L145.355 60.5423L145.38 60.542L145.405 60.5417L145.431 60.5414L145.456 60.5411L145.481 60.5408L145.507 60.5405L145.532 60.5402L145.557 60.5399L145.583 60.5395L145.608 60.5392L145.633 60.5389L145.659 60.5386L145.684 60.5383L145.709 60.538L145.735 60.5377L145.76 60.5374L145.786 60.5371L145.811 60.5367L145.836 60.5364L145.862 60.5361L145.887 60.5358L145.913 60.5355L145.938 60.5352L145.964 60.5349L145.989 60.5346L146.015 60.5342L146.04 60.5339L146.066 60.5336L146.091 60.5333L146.117 60.533L146.142 60.5327L146.168 60.5324L146.194 60.532L146.219 60.5317L146.245 60.5314L146.27 60.5311L146.296 60.5308L146.322 60.5305L146.347 60.5302L146.373 60.5298L146.399 60.5295L146.424 60.5292L146.45 60.5289L146.476 60.5286L146.501 60.5283L146.527 60.528L146.553 60.5276L146.579 60.5273L146.604 60.527L146.63 60.5267L146.656 60.5264L146.682 60.5261L146.707 60.5257L146.733 60.5254L146.759 60.5251L146.785 60.5248L146.811 60.5245L146.836 60.5242L146.862 60.5238L146.888 60.5235L146.914 60.5232L146.94 60.5229L146.966 60.5226L146.992 60.5222L147.018 60.5219L147.044 60.5216L147.07 60.5213L147.096 60.521L147.122 60.5207L147.148 60.5203L147.174 60.52L147.2 60.5197L147.226 60.5194L147.252 60.5191L147.278 60.5187L147.304 60.5184L147.33 60.5181L147.356 60.5178L147.382 60.5175L147.408 60.5171L147.434 60.5168L147.46 60.5165L147.486 60.5162L147.513 60.5159L147.539 60.5155L147.565 60.5152L147.591 60.5149L147.617 60.5146L147.643 60.5142L147.67 60.5139L147.696 60.5136L147.722 60.5133L147.748 60.513L147.775 60.5126L147.801 60.5123L147.827 60.512L147.853 60.5117L147.88 60.5113L147.906 60.511L147.932 60.5107L147.959 60.5104L147.985 60.51L148.012 60.5097L148.038 60.5094L148.064 60.5091L148.091 60.5088L148.117 60.5084L148.144 60.5081L148.17 60.5078L148.197 60.5075L148.223 60.5071L148.25 60.5068L148.276 60.5065L148.303 60.5062L148.329 60.5058L148.356 60.5055L148.382 60.5052L148.409 60.5048L148.435 60.5045L148.462 60.5042L148.488 60.5039L148.515 60.5035L148.542 60.5032L148.568 60.5029L148.595 60.5026L148.622 60.5022L148.648 60.5019L148.675 60.5016L148.702 60.5013L148.729 60.5009L148.755 60.5006L148.782 60.5003L148.809 60.4999L148.836 60.4996L148.862 60.4993L148.889 60.499L148.916 60.4986L148.943 60.4983L148.97 60.498L148.996 60.4976L149.023 60.4973L149.05 60.497L149.077 60.4966L149.104 60.4963L149.131 60.496L149.158 60.4957L149.185 60.4953L149.212 60.495L149.239 60.4947L149.266 60.4943L149.293 60.494L149.32 60.4937L149.347 60.4933L149.374 60.493L149.401 60.4927L149.428 60.4923L149.455 60.492L149.482 60.4917L149.509 60.4913L149.536 60.491L149.564 60.4907L149.591 60.4903L149.618 60.49L149.645 60.4897L149.672 60.4893L149.699 60.489L149.727 60.4887L149.754 60.4883L149.781 60.488L149.808 60.4877L149.836 60.4873L149.863 60.487L149.89 60.4867L149.918 60.4863L149.945 60.486L149.972 60.4857L150 60.4853L150.027 60.485L150.054 60.4846L150.082 60.4843L150.109 60.484L150.137 60.4836L150.164 60.4833L150.192 60.483L150.219 60.4826L150.247 60.4823L150.274 60.4819L150.302 60.4816L150.329 60.4813L150.357 60.4809L150.384 60.4806L150.412 60.4803L150.44 60.4799L150.467 60.4796L150.495 60.4792L150.522 60.4789L150.55 60.4786L150.578 60.4782L150.606 60.4779L150.633 60.4775L150.661 60.4772L150.689 60.4769L150.716 60.4765L150.744 60.4762L150.772 60.4758L150.8 60.4755L150.828 60.4752L150.855 60.4748L150.883 60.4745L150.911 60.4741L150.939 60.4738L150.967 60.4734L150.995 60.4731L151.023 60.4728L151.051 60.4724L151.079 60.4721L151.107 60.4717L151.135 60.4714L151.163 60.471L151.191 60.4707L151.219 60.4704L151.247 60.47L151.275 60.4697L151.303 60.4693L151.331 60.469L151.359 60.4686L151.387 60.4683L151.415 60.4679L151.443 60.4676L151.472 60.4672L151.5 60.4669L151.528 60.4666L151.556 60.4662L151.584 60.4659L151.613 60.4655L151.641 60.4652L151.669 60.4648L151.698 60.4645L151.726 60.4641L151.754 60.4638L151.783 60.4634L151.811 60.4631L151.839 60.4627L151.868 60.4624L151.896 60.462L151.925 60.4617L151.953 60.4613L151.981 60.461L152.01 60.4606L152.038 60.4603L152.067 60.4599L152.095 60.4596L152.124 60.4592L152.153 60.4589L152.181 60.4585L152.21 60.4582L152.238 60.4578L152.267 60.4575L152.296 60.4571L152.324 60.4568L152.353 60.4564L152.382 60.4561L152.41 60.4557L152.439 60.4554L152.468 60.455L152.497 60.4547L152.525 60.4543L152.554 60.454L152.583 60.4536L152.612 60.4533L152.641 60.4529L152.67 60.4525L152.698 60.4522L152.727 60.4518L152.756 60.4515L152.785 60.4511L152.814 60.4508L152.843 60.4504L152.872 60.4501L152.901 60.4497L152.93 60.4493L152.959 60.449L152.988 60.4486L153.017 60.4483L153.046 60.4479L153.075 60.4476L153.105 60.4472L153.134 60.4468L153.163 60.4465L153.192 60.4461L153.221 60.4458L153.25 60.4454L153.28 60.4451L153.309 60.4447L153.338 60.4443L153.367 60.444L153.397 60.4436L153.426 60.4433L153.455 60.4429L153.485 60.4425L153.514 60.4422L153.544 60.4418L153.573 60.4415L153.602 60.4411L153.632 60.4407L153.661 60.4404L153.691 60.44L153.72 60.4396L153.75 60.4393L153.779 60.4389L153.809 60.4386L153.838 60.4382L153.868 60.4378L153.898 60.4375L153.927 60.4371L153.957 60.4367L153.986 60.4364L154.016 60.436L154.046 60.4356L154.076 60.4353L154.105 60.4349L154.135 60.4346L154.165 60.4342L154.195 60.4338L154.224 60.4335L154.254 60.4331L154.284 60.4327L154.314 60.4324L154.344 60.432L154.374 60.4316L154.404 60.4313L154.434 60.4309L154.464 60.4305L154.494 60.4301L154.524 60.4298L154.554 60.4294L154.584 60.429L154.614 60.4287C155.061 60.4232 155.476 60.4287 155.859 60.594C156.186 60.735 156.59 61.0383 156.885 61.8637C158.637 66.8045 161.112 70.7672 164.384 73.7439C167.659 76.724 171.686 78.6734 176.474 79.6542L176.483 79.6559C176.623 79.6832 176.782 79.7316 177.012 79.8187L177.028 79.8246L177.044 79.83L177.326 79.9263L177.336 79.9295L177.586 80.012L177.612 82.1257C177.668 86.7455 177.707 91.3658 177.746 95.9884L177.746 95.9894L177.746 95.99L177.755 97.051C177.85 107.622 177.947 118.528 178.263 129.254C178.505 137.465 176.145 144.954 171.012 152.198L171.012 152.198C165.376 160.157 158.117 167.222 148.794 173.8L148.794 173.8C144.17 177.065 139.295 180.108 134.539 183.077L134.057 183.378L134.565 184.192L134.057 183.378C133.701 183.6 133.345 183.822 132.989 184.044C130.917 185.336 128.842 186.631 126.786 187.952M126.786 187.952C126.787 187.952 126.787 187.951 126.788 187.951L127.327 188.793L126.786 187.952Z" fill="#FF8AC6" stroke="black" stroke-width="2"/>
  <path d="M125.447 187.438V62.1667" stroke="black" stroke-width="2" stroke-linecap="round"/>
</svg>
