<svg xmlns="http://www.w3.org/2000/svg" width="467" height="830" fill="none" viewBox="0 0 467 830"><path fill="#181818" d="M0 0h467v830H0V0Z"/><g transform="matrix(.69221 0 0 .69221 -43.558 271.736)"><rect width="126.584" height="63.292" fill="#fff" stroke="#181818" stroke-width="2" rx="31.646" transform="scale(-1 1) rotate(9.702 -1193.36 -2611.377)"/><circle cx="22.682" cy="22.682" r="22.682" fill="#CB9EFF" stroke="#181818" stroke-width="2" transform="scale(-1 1) rotate(5.767 -1962.727 -4388.01)"/><circle cx="2.466" cy="2.466" r="2.466" fill="#181818" transform="scale(-1 1) rotate(5.767 -2120.294 -4263.12)"/><circle cx="2.466" cy="2.466" r="2.466" fill="#181818" transform="scale(-1 1) rotate(5.767 -2126.933 -4132.544)"/><path stroke="#181818" stroke-width="2" d="M420.156 202.436c.622 6.155 6.116 10.641 12.271 10.019 6.156-.621 10.642-6.115 10.02-12.271"/><rect width="116.02" height="58.01" x="-314.02" y="-116.68" stroke="#fff" stroke-width="2" rx="29.005" transform="rotate(180)"/><circle cx="427.106" cy="219.52" r="19.341" stroke="#fff" stroke-width="2" transform="rotate(176.065 329.362 150.421)"/><rect width="116.02" height="58.01" x="-314.02" y="-235.97" stroke="#fff" stroke-width="2" rx="29.005" transform="rotate(180)"/><circle cx="427.106" cy="338.809" r="19.341" stroke="#fff" stroke-width="2" transform="rotate(176.065 329.361 269.71)"/><rect width="116.02" height="58.01" x="-314.02" y="-355.26" stroke="#fff" stroke-width="2" rx="29.005" transform="rotate(180)"/><circle cx="427.106" cy="458.097" r="19.341" stroke="#fff" stroke-width="2" transform="rotate(176.065 329.361 388.998)"/><rect width="116.02" height="58.01" x="-458.26" y="-116.68" stroke="#fff" stroke-width="2" rx="29.005" transform="rotate(180)"/><circle cx="571.348" cy="219.52" r="19.341" stroke="#fff" stroke-width="2" transform="rotate(176.065 473.603 150.421)"/><rect width="116.02" height="58.01" x="-458.26" y="-355.26" stroke="#fff" stroke-width="2" rx="29.005" transform="rotate(180)"/><circle cx="571.348" cy="458.097" r="19.341" stroke="#fff" stroke-width="2" transform="rotate(176.065 473.603 388.998)"/><rect width="116.02" height="58.01" x="-602.5" y="-116.68" stroke="#fff" stroke-width="2" rx="29.005" transform="rotate(180)"/><circle cx="715.59" cy="219.52" r="19.341" stroke="#fff" stroke-width="2" transform="rotate(176.065 617.845 150.421)"/><rect width="116.02" height="58.01" x="-602.5" y="-235.97" stroke="#fff" stroke-width="2" rx="29.005" transform="rotate(180)"/><circle cx="715.59" cy="338.809" r="19.341" stroke="#fff" stroke-width="2" transform="rotate(176.065 617.845 269.71)"/><rect width="116.02" height="58.01" x="-602.5" y="-355.26" stroke="#fff" stroke-width="2" rx="29.005" transform="rotate(180)"/><circle cx="715.59" cy="458.097" r="19.341" stroke="#fff" stroke-width="2" transform="rotate(176.065 617.845 388.998)"/></g></svg>
