<svg xmlns="http://www.w3.org/2000/svg" width="1200" height="676" fill="none" viewBox="0 0 1200 676"><path fill="#181818" d="M0 0h1200v676H0z"/><rect width="126.584" height="63.292" fill="#fff" stroke="#181818" stroke-width="2" rx="31.646" transform="scale(-1 1) rotate(9.702 -2067.067 -3724.006)"/><circle cx="22.682" cy="22.682" r="22.682" fill="#CB9EFF" stroke="#181818" stroke-width="2" transform="scale(-1 1) rotate(5.767 -3366.369 -6307.678)"/><circle cx="2.466" cy="2.466" r="2.466" fill="#181818" transform="scale(-1 1) rotate(5.767 -3523.935 -6182.788)"/><circle cx="2.466" cy="2.466" r="2.466" fill="#181818" transform="scale(-1 1) rotate(5.767 -3530.574 -6052.213)"/><path stroke="#181818" stroke-width="2" d="M620.156 333.763c.622 6.155 6.116 10.641 12.271 10.019 6.156-.621 10.642-6.115 10.02-12.271"/><rect width="116.02" height="58.01" x="514.02" y="248.01" stroke="#fff" stroke-width="2" rx="29.005" transform="rotate(180 514.02 248.01)"/><circle cx="427.106" cy="219.52" r="19.341" stroke="#fff" stroke-width="2" transform="rotate(176.065 427.106 219.52)"/><rect width="116.02" height="58.01" x="514.02" y="367.299" stroke="#fff" stroke-width="2" rx="29.005" transform="rotate(180 514.02 367.299)"/><circle cx="427.106" cy="338.809" r="19.341" stroke="#fff" stroke-width="2" transform="rotate(176.065 427.106 338.809)"/><rect width="116.02" height="58.01" x="514.02" y="486.587" stroke="#fff" stroke-width="2" rx="29.005" transform="rotate(180 514.02 486.587)"/><circle cx="427.106" cy="458.097" r="19.341" stroke="#fff" stroke-width="2" transform="rotate(176.065 427.106 458.097)"/><rect width="116.02" height="58.01" x="658.262" y="248.01" stroke="#fff" stroke-width="2" rx="29.005" transform="rotate(180 658.262 248.01)"/><circle cx="571.348" cy="219.52" r="19.341" stroke="#fff" stroke-width="2" transform="rotate(176.065 571.348 219.52)"/><rect width="116.02" height="58.01" x="658.262" y="486.587" stroke="#fff" stroke-width="2" rx="29.005" transform="rotate(180 658.262 486.587)"/><circle cx="571.348" cy="458.097" r="19.341" stroke="#fff" stroke-width="2" transform="rotate(176.065 571.348 458.097)"/><rect width="116.02" height="58.01" x="802.503" y="248.01" stroke="#fff" stroke-width="2" rx="29.005" transform="rotate(180 802.503 248.01)"/><circle cx="715.59" cy="219.52" r="19.341" stroke="#fff" stroke-width="2" transform="rotate(176.065 715.59 219.52)"/><rect width="116.02" height="58.01" x="802.503" y="367.299" stroke="#fff" stroke-width="2" rx="29.005" transform="rotate(180 802.503 367.299)"/><circle cx="715.59" cy="338.809" r="19.341" stroke="#fff" stroke-width="2" transform="rotate(176.065 715.59 338.809)"/><rect width="116.02" height="58.01" x="802.503" y="486.587" stroke="#fff" stroke-width="2" rx="29.005" transform="rotate(180 802.503 486.587)"/><circle cx="715.59" cy="458.097" r="19.341" stroke="#fff" stroke-width="2" transform="rotate(176.065 715.59 458.097)"/></svg>
