<?xml version="1.0" encoding="utf-8"?>
<svg width="248" height="248" viewBox="0 0 248 248" fill="none" xmlns="http://www.w3.org/2000/svg">
  <g clip-path="url(#clip0_59_120)">
    <rect x="135.504" y="153.201" width="18.9418" height="38.9316" transform="rotate(-45 135.504 153.201)" fill="white" stroke="black" stroke-width="2"/>
    <path d="M151.658 174.74L170.436 155.961L193.961 179.486C199.146 184.671 199.146 193.079 193.961 198.264C188.775 203.45 180.368 203.45 175.182 198.264L151.658 174.74Z" fill="white" stroke="black" stroke-width="2"/>
    <path d="M147.636 66.5226C171.121 90.0073 171.11 128.095 147.602 151.602C124.095 175.11 86.0074 175.121 62.5227 151.636C39.038 128.151 39.0493 90.0642 62.5568 66.5567C86.0642 43.0493 124.152 43.0379 147.636 66.5226Z" fill="white" stroke="black" stroke-width="2"/>
    <path d="M137.287 76.9733C155.037 94.7239 155.04 123.5 137.287 141.254C119.533 159.007 90.7568 159.004 73.0062 141.254C55.2556 123.503 55.2526 94.7269 73.0062 76.9733C90.7598 59.2197 119.536 59.2227 137.287 76.9733Z" fill="#FF8A50" stroke="black" stroke-width="2"/>
    <path d="M105.5 87.7751C121.737 87.7751 132.158 99.8456 135.3 108.259C132.437 117.486 121.879 127.942 105.5 127.942C89.1215 127.942 79.3241 116.984 75.7484 108.252C79.8126 99.3706 89.359 87.7751 105.5 87.7751Z" fill="white" stroke="black" stroke-width="2" stroke-linejoin="round"/>
    <path d="M105.615 119.715C112.119 119.715 117.39 114.443 117.39 107.94C117.39 101.437 112.119 96.1648 105.615 96.1648C99.1119 96.1648 93.84 101.437 93.84 107.94C93.84 114.443 99.1119 119.715 105.615 119.715Z" fill="#FF8A50" stroke="black" stroke-width="2" stroke-linejoin="round"/>
  </g>
  <defs>
    <clipPath id="clip0_59_120">
      <rect width="248" height="248" fill="white"/>
    </clipPath>
  </defs>
</svg>
