<svg viewBox="0 0 2560 452" xmlns="http://www.w3.org/2000/svg"><g transform="translate(0 -104)"><clipPath id="a"><path overflow="visible" d="M0 0h2560v562H0z"/></clipPath><g clip-path="url(#a)"><linearGradient id="b" gradientUnits="userSpaceOnUse" x1="966.706" y1="-270.238" x2="1008.498" y2="-138.393"><stop offset="0" stop-color="#ff298a"/><stop offset=".257" stop-color="#ff3750"/><stop offset=".452" stop-color="#ff4f5e"/><stop offset=".662" stop-color="#ff4558"/><stop offset="1" stop-color="#ff7139"/></linearGradient><path d="M1472-206h626.9C1520-603.2 730.6-599.3 149.8-142.2-11.6-15.1-40.1 219.9 86.2 382.7s359.5 191.9 521 64.8c254.3-200.1 581.2-242.7 864.8-142V-206z" fill="url(#b)"/><linearGradient id="c" gradientUnits="userSpaceOnUse" x1="1472.984" y1="-1414.823" x2="1473.076" y2="-1414.721" gradientTransform="matrix(-2171.49 -622.6647 -351.162 1224.6475 2702541.5 2650038.5)"><stop offset="0" stop-color="#b833e1"/><stop offset="1" stop-color="#f82c92"/></linearGradient><path d="M399.4-245.3C194.6-234.1 36.9-58 47.2 148.1s184.7 364 389.6 352.8l1602.8-87.7c204.8-11.2 362.5-187.3 352.2-393.4s-184.7-364-389.6-352.8L399.4-245.3z" fill="url(#c)"/><linearGradient id="d" gradientUnits="userSpaceOnUse" x1="63.401" y1="-477" x2="1892.199" y2="-477"><stop offset="0" stop-color="#9059ff"/><stop offset="1" stop-color="#952bb9"/></linearGradient><path d="M1667.2 4.4c146 22.5 245.2 159.1 221.5 304.9-23.7 145.9-161.3 245.8-307.3 223.3L288.4 333C142.4 310.5 43.2 173.9 66.9 28.1l209.7-1291.4c23.7-145.9 161.3-245.8 307.3-223.3s245.2 159.1 221.5 304.9L638.6-154.4 1667.2 4.4z" fill="url(#d)"/></g></g></svg>
