<svg width="16" height="14" viewBox="0 0 16 14" xmlns="http://www.w3.org/2000/svg" xmlns:xlink="http://www.w3.org/1999/xlink"><defs><path d="M15.717 1.46a.716.716 0 0 0-.732 0 6.685 6.685 0 0 1-1.53.804 3.548 3.548 0 0 0-4.79 0 3.438 3.438 0 0 0-1.33 2.748c-1.93-.134-3.66-1.14-4.79-2.748-.133-.201-.333-.268-.599-.268-.266 0-.466.2-.532.402-.067.067-.732 1.676-.665 3.62.066 1.676.731 3.822 3.193 5.364-.998.469-2.129.67-3.26.67-.266 0-.599.201-.665.47a.676.676 0 0 0 .333.737c1.663.938 3.459 1.408 5.122 1.408 1.663 0 3.26-.403 4.723-1.274 2.86-1.61 4.457-4.693 4.457-8.38v-.336c.665-.737 1.131-1.609 1.33-2.547a.64.64 0 0 0-.265-.67zm-2.262 2.547c-.133.134-.2.402-.2.603.067.134.067.268.067.402 0 3.219-1.397 5.833-3.792 7.241-1.863 1.073-4.058 1.341-6.253.805.864-.269 1.663-.604 2.394-1.14.267-.134.333-.335.333-.603 0-.269-.2-.47-.399-.537C1.747 9.035 1.88 5.75 2.279 4.074a7.74 7.74 0 0 0 5.72 2.28c.333 0 .666-.336.666-.671v-.67c0-.67.266-1.341.798-1.81.932-.872 2.462-.738 3.26.2.2.202.466.269.665.202.133-.067.333-.067.466-.135-.133.202-.266.336-.4.537z" id="a"/></defs><g transform="translate(0 -1)" fill="none" fill-rule="evenodd"><mask id="b" fill="#fff"><use xlink:href="#a"/></mask><use fill="#000" fill-rule="nonzero" xlink:href="#a"/><g mask="url(#b)" fill="#48C7FF"><path d="M0 0h16v16H0z"/></g></g></svg>
