<svg width="16" height="16" viewBox="0 0 16 16" xmlns="http://www.w3.org/2000/svg" xmlns:xlink="http://www.w3.org/1999/xlink"><defs><path d="M8 .667C6.067.667 4.2 1.4 2.8 2.8 1.4 4.2.667 6.067.667 8A7.312 7.312 0 0 0 8 15.333c1.6 0 3.2-.533 4.467-1.533.266-.2.333-.667.133-.933-.2-.267-.667-.334-.933-.134C10.6 13.533 9.333 14 8 14c-3.333 0-6-2.667-6-6 0-1.6.6-3.133 1.733-4.267C4.867 2.6 6.4 2 8 2c3.333 0 6 2.667 6 6v.667C14 9.4 13.4 10 12.667 10c-.734 0-1.334-.6-1.334-1.333V8A3.301 3.301 0 0 0 8 4.667 3.301 3.301 0 0 0 4.667 8 3.301 3.301 0 0 0 8 11.333c1 0 1.867-.466 2.467-1.133a2.68 2.68 0 0 0 2.2 1.133c1.466 0 2.666-1.2 2.666-2.666V8A7.312 7.312 0 0 0 8 .667zM8 10c-1.133 0-2-.867-2-2s.867-2 2-2 2 .867 2 2-.867 2-2 2z" id="a"/></defs><g fill="none" fill-rule="evenodd"><mask id="b" fill="#fff"><use xlink:href="#a"/></mask><use fill="#000" fill-rule="nonzero" xlink:href="#a"/><g mask="url(#b)" fill="#48C7FF"><path d="M0 0h16v16H0z"/></g></g></svg>
