<svg width="67" height="66" viewBox="0 0 67 66" xmlns="http://www.w3.org/2000/svg" xmlns:xlink="http://www.w3.org/1999/xlink"><defs><circle id="a" cx="33" cy="33" r="33"/><linearGradient x1="76.252%" y1="15.493%" x2="80.354%" y2="28.438%" id="c"><stop stop-color="#FF298A" offset="0%"/><stop stop-color="#FF3750" offset="25.731%"/><stop stop-color="#FF4F5E" offset="45.201%"/><stop stop-color="#FF4558" offset="66.182%"/><stop stop-color="#FF7139" offset="100%"/></linearGradient><linearGradient x1="80.268%" y1="55.401%" x2="89.44%" y2="65.566%" id="d"><stop stop-color="#B833E1" offset="0%"/><stop stop-color="#F82C92" offset="100%"/></linearGradient><linearGradient x1="50%" y1="55.901%" x2="55.507%" y2="69.015%" id="e"><stop stop-color="#971DB5" offset="0%"/><stop stop-color="#9059FF" offset="100%"/></linearGradient></defs><g transform="translate(.5)" fill="none" fill-rule="evenodd"><mask id="b" fill="#fff"><use xlink:href="#a"/></mask><use fill="#D8D8D8" xlink:href="#a"/><g mask="url(#b)" fill-rule="nonzero"><path d="M677.1 1299.02c63.54 41.564 81.6 127.143 40.336 191.146-41.263 64.003-126.223 82.193-189.763 40.63-283.229-185.272-363.722-566.745-179.785-852.047 183.929-285.29 562.641-366.374 845.867-181.105 63.54 41.564 81.599 127.143 40.336 191.146-41.264 64.003-126.223 82.193-189.763 40.63-156.146-102.142-364.94-57.439-466.342 99.846-101.41 157.297-57.033 367.612 99.115 469.754z" fill="url(#c)" transform="scale(-1 1) rotate(5 7450.348 -13998.328)"/><path d="M991.993 588.063c71.64 24.847 109.726 103.465 85.07 175.596-24.657 72.132-102.72 110.463-174.359 85.615L342.096 654.83c-71.64-24.847-109.726-103.464-85.07-175.596 24.656-72.132 102.72-110.463 174.359-85.615l560.608 194.445z" fill="url(#d)" transform="scale(-1 1) rotate(-16 -2166.568 4243.969)"/><path d="M748.566 273.289c38.474-38.758 100.852-38.758 139.326 0 38.473 38.758 38.473 101.598 0 140.356L547.265 756.79c-38.474 38.758-100.85 38.759-139.325.002L67.3 413.646C28.827 374.89 28.826 312.05 67.299 273.29s100.852-38.76 139.326-.002l270.977 272.97 270.965-272.969z" fill="url(#e)" transform="rotate(54 993.428 -26.915)"/></g></g></svg>
