<svg xmlns="http://www.w3.org/2000/svg" width="134" height="80" fill="none" viewBox="0 0 134 80"><path fill="#f8f6f4" stroke="#333336" stroke-linejoin="round" stroke-width="1.6" d="m3.967 2.703-2.73 6.264A2.8 2.8 0 0 0 1 10.1v5.968L42.544 9.51l-2.967-6.806A2.84 2.84 0 0 0 36.977 1H6.567c-1.128 0-2.15.669-2.6 1.703Z"/><path fill="#f8f6f4" stroke="#333336" stroke-linecap="round" stroke-linejoin="round" stroke-width="1.6" d="M1 9.51h87.218a2.836 2.836 0 0 1 2.836 2.836v46.8a2.836 2.836 0 0 1-2.836 2.836H3.836A2.836 2.836 0 0 1 1 59.146z"/><rect width="53.182" height="6.027" x="9.154" y="18.695" fill="#00a6f9" rx=".805"/><rect width="73.745" height="6.027" x="9.154" y="28.055" fill="#00a6f9" rx=".805"/><rect width="73.745" height="6.027" x="9.154" y="37.412" fill="#00a6f9" rx=".805"/><rect width="24.818" height="6.027" x="9.154" y="46.77" fill="#00a6f9" rx=".805"/><path stroke="#333336" stroke-linejoin="round" stroke-width="1.6" d="m21.564 18.019 2.966-6.806a2.84 2.84 0 0 1 2.6-1.703h30.41c1.129 0 2.15.668 2.6 1.703l2.968 6.806"/><path fill="#f8f6f4" stroke="#333336" stroke-linecap="round" stroke-linejoin="round" stroke-width="1.6" d="M21.564 18.02h87.217a2.837 2.837 0 0 1 2.837 2.836v46.8a2.837 2.837 0 0 1-2.837 2.836H24.4a2.836 2.836 0 0 1-2.836-2.836z"/><rect width="53.182" height="6.027" x="29.718" y="27.203" fill="#ffb279" rx=".805"/><rect width="73.745" height="6.027" x="29.718" y="36.563" fill="#ffb279" rx=".805"/><rect width="73.745" height="6.027" x="29.718" y="45.92" fill="#ffb279" rx=".805"/><rect width="24.818" height="6.027" x="29.718" y="55.277" fill="#ffb279" rx=".805"/><path stroke="#333336" stroke-linejoin="round" stroke-width="1.6" d="m42.481 26.527 2.967-6.806a2.84 2.84 0 0 1 2.6-1.703h30.41c1.129 0 2.15.668 2.6 1.703l2.968 6.806"/><path fill="#f8f6f4" stroke="#333336" stroke-linecap="round" stroke-linejoin="round" stroke-width="1.6" d="M42.481 26.525H129.7a2.837 2.837 0 0 1 2.837 2.837v46.8a2.837 2.837 0 0 1-2.837 2.836H45.318a2.836 2.836 0 0 1-2.837-2.837z"/><rect width="53.182" height="6.027" x="50.636" y="35.713" fill="#e0e0e6" rx=".805"/><rect width="73.745" height="6.027" x="50.636" y="45.07" fill="#e0e0e6" rx=".805"/><rect width="73.745" height="6.027" x="50.636" y="54.428" fill="#e0e0e6" rx=".805"/><rect width="24.818" height="6.027" x="50.636" y="63.785" fill="#e0e0e6" rx=".805"/><rect width="38.103" height="19.439" x=".8" y="-.8" fill="#f8f6f4" stroke="#333336" stroke-width="1.6" rx="9.196" transform="matrix(1 0 0 -1 67.3 61.922)"/><rect width="15.61" height="14.931" fill="#00a6f9" rx="7.094" transform="matrix(1 0 0 -1 72.174 60.467)"/><mask id="a" fill="#fff"><path fill-rule="evenodd" d="M83.967 52.944h-7.862z" clip-rule="evenodd"/></mask><path fill="#00a6f9" fill-rule="evenodd" d="M83.967 52.944h-7.862z" clip-rule="evenodd"/><path fill="#f8f6f4" d="M83.967 51.944a1 1 0 1 1 0 2zm-7.862 2a1 1 0 1 1 0-2zm7.862-1v1h-7.862v-2h7.862z" mask="url(#a)"/><mask id="b" fill="#fff"><path fill-rule="evenodd" d="M80.036 56.875v-7.862z" clip-rule="evenodd"/></mask><path fill="#00a6f9" fill-rule="evenodd" d="M80.036 56.875v-7.862z" clip-rule="evenodd"/><path fill="#f8f6f4" d="M81.036 56.875a1 1 0 1 1-2 0zm-2-7.862a1 1 0 1 1 2 0zm1 7.862h-1v-7.862h2v7.862z" mask="url(#b)"/><path fill="#fff" stroke="#333336" stroke-linejoin="round" stroke-width="1.6" d="M92.176 49.894a.8.8 0 0 1 .876.191l16.032 16.82a.798.798 0 0 1-.578 1.352l-6.279.004 3.01 6.418a.8.8 0 0 1-.424 1.08l-2.824 1.146a.8.8 0 0 1-1.02-.392l-3.301-6.807-4.68 3.95a.8.8 0 0 1-1.315-.612V50.637a.8.8 0 0 1 .503-.743Z"/></svg>