<svg xmlns="http://www.w3.org/2000/svg" width="105" height="81" fill="none" viewBox="0 0 105 81"><path fill="#f8f6f4" stroke="#333336" stroke-width="1.611" d="M1 3.417A2.417 2.417 0 0 1 3.417 1h91.05a2.417 2.417 0 0 1 2.416 2.417v55.194a2.417 2.417 0 0 1-2.417 2.417H3.417A2.417 2.417 0 0 1 1 58.61z"/><path stroke="#333336" stroke-linejoin="bevel" stroke-width="1.611" d="m2.007 1.805 44.776 28.442a4.03 4.03 0 0 0 4.318.001L96.279 1.604"/><path fill="#00a6f9" stroke="#333336" stroke-width="1.611" d="M89.365 42.571a1.6 1.6 0 0 0-1.18-.015c-4.171 1.614-8.114 3.327-12.056 4.949a1.62 1.62 0 0 0-1.007 1.477c-.04 4.367-.052 10.138-.17 14.122-.111 3.761 2.433 7.991 5.61 11.361 1.57 1.665 3.25 3.074 4.743 4.06.747.492 1.435.871 2.028 1.125.607.258 1.06.36 1.352.36.304 0 .768-.098 1.384-.34.603-.238 1.303-.593 2.065-1.053 1.522-.92 3.244-2.23 4.866-3.777 1.623-1.546 3.127-3.308 4.229-5.122 1.037-1.708 1.691-3.415 1.797-5.005l.014-.316c.076-4.252.112-10.296.161-14.947a1.62 1.62 0 0 0-.989-1.506c-4.162-1.75-8.028-3.386-12.847-5.373Z"/><path stroke="#333336" stroke-miterlimit="10" stroke-width="1.611" d="m88.783 42.662-.057 37.35"/></svg>