<svg xmlns="http://www.w3.org/2000/svg" width="130" height="82" fill="none" viewBox="0 0 130 82"><rect width="118.676" height="80" x="1.59" y="1.129" fill="#f8f6f4" stroke="#333336" stroke-linecap="round" stroke-linejoin="round" stroke-width="1.6" rx="3.732"/><path stroke="#333336" stroke-linecap="round" stroke-linejoin="round" stroke-width="1.6" d="M10.661 9.385a2.184 2.184 0 1 0 0-4.367 2.184 2.184 0 0 0 0 4.367m8.943 0a2.184 2.184 0 1 0 0-4.368 2.184 2.184 0 0 0 0 4.368m8.942 0a2.184 2.184 0 1 0 0-4.368 2.184 2.184 0 0 0 0 4.368M1.59 12.522h118.675"/><rect width="90.958" height="7.93" x="15.583" y="23.984" fill="#333336" opacity=".5" rx="1.06"/><rect width="90.958" height="7.93" x="15.583" y="32.848" fill="#e0e0e6" opacity=".5" rx="1.06"/><rect width="32.652" height="7.93" x="15.583" y="41.709" fill="#e0e0e6" opacity=".5" rx="1.06"/><rect width="96.089" height="32.652" x="13.251" y="20.254" stroke="#333336" stroke-width="1.6" rx="1.399"/><mask id="a" width="121" height="81" x="0" y="0" maskUnits="userSpaceOnUse" style="mask-type:alpha"><rect width="118.479" height="78.831" x="1.59" y="1.129" fill="#f8f6f4" stroke="#000" stroke-linecap="round" stroke-linejoin="round" stroke-width="1.6" rx="5.298"/></mask><g mask="url(#a)"><rect width="63.438" height="7.93" x="15.583" y="58.037" fill="#333336" opacity=".5" rx="1.06"/><rect width="90.958" height="7.93" x="15.583" y="66.9" fill="#e0e0e6" opacity=".5" rx="1.06"/><rect width="90.958" height="7.93" x="15.583" y="75.762" fill="#e0e0e6" opacity=".5" rx="1.06"/></g><path stroke="#333336" stroke-linejoin="round" stroke-width="1.6" d="m44.97 12.29 2.237-5.13c.741-1.7 2.42-2.8 4.276-2.8h25.691c1.856 0 3.535 1.1 4.276 2.8l2.236 5.13"/><path stroke="#333336" stroke-linejoin="round" stroke-width="1.6" d="m35.175 12.29 2.208-5.115a4.67 4.67 0 0 1 4.282-2.816h14.5"/><path stroke="#333336" stroke-linejoin="round" stroke-width="1.6" d="m44.97 12.29 2.48-5.69a3.73 3.73 0 0 1 3.421-2.24h26.914c1.485 0 2.828.88 3.421 2.24l2.48 5.69"/><path stroke="#333336" stroke-linejoin="round" stroke-width="1.6" d="m35.175 12.29 2.45-5.678a3.73 3.73 0 0 1 3.427-2.253h15.113"/><circle cx="109.341" cy="20.253" r="6.197" fill="#00a6f9" stroke="#f8f6f4" stroke-width="1.6"/><path fill="#00a6f9" fill-rule="evenodd" d="M113.072 20.269h-7.639z" clip-rule="evenodd"/><path stroke="#f8f6f4" stroke-linecap="round" stroke-linejoin="round" d="M113.072 20.269h-7.639"/><path fill="#00a6f9" fill-rule="evenodd" d="M109.253 16.45v7.638z" clip-rule="evenodd"/><path stroke="#f8f6f4" stroke-linecap="round" stroke-linejoin="round" d="M109.253 16.45v7.638"/><path fill="#fff" stroke="#333336" stroke-linejoin="round" stroke-width="1.6" d="M112.315 23.238a.8.8 0 0 1 .88.206l14.927 16.29a.802.802 0 0 1-.59 1.34l-5.779.004 2.792 6.19c.088.196.094.42.016.62a.8.8 0 0 1-.435.446l-2.629 1.11a.8.8 0 0 1-1.036-.4l-3.041-6.521-4.287 3.763a.801.801 0 0 1-1.327-.601v-21.7a.8.8 0 0 1 .509-.747Z"/></svg>