<svg xmlns="http://www.w3.org/2000/svg" width="350" height="350" viewBox="0 0 350 350" xml:space="preserve">
  <style>
    .st0{fill:#fff}.st2{fill:#bfbfc9}.st3{fill:#3fe1b0}.st4{fill:#f770ff}.st6{fill:#afafbb}.st11{fill:none;stroke:#7542e5;stroke-width:3.1104;stroke-linecap:round;stroke-linejoin:round}.st12{opacity:.5;fill:#fff;enable-background:new}
  </style>
  <path d="M116.6 116.7h116.6v116.6H116.6V116.7z" class="st0"/>
  <path fill="#ebebf0" d="M3.7 38.9h272.5c2.1 0 3.7 1.6 3.7 3.7v204c0 2.1-1.6 3.7-3.7 3.7H3.7c-2.1 0-3.7-1.6-3.7-3.7v-204c0-2 1.6-3.7 3.7-3.7z"/>
  <path d="M18 114h57.7c.9 0 1.6.7 1.6 1.6v6.1c0 .9-.7 1.6-1.6 1.6H18c-.9 0-1.6-.7-1.6-1.6v-6.1c.1-.9.8-1.6 1.6-1.6z" class="st2"/>
  <path d="M18 160.5h73.6c.9 0 1.6.7 1.6 1.6v6.1c0 .9-.7 1.6-1.6 1.6H18c-.9 0-1.6-.7-1.6-1.6v-6.1c.1-.9.8-1.6 1.6-1.6z" class="st2"/>
  <path d="M18 207.1h49.8c.9 0 1.6.7 1.6 1.6v6.1c0 .9-.7 1.6-1.6 1.6H18c-.9 0-1.6-.7-1.6-1.6v-6.1c.1-.9.8-1.6 1.6-1.6z" class="st2"/>
  <path d="M129.9 129.9c-.7 0-1.4-.3-1.9-.8l-7.1-7.1c-1.1-1.1-1.1-2.8 0-3.8 1.1-1.1 2.8-1.1 3.8 0l5.2 5.2 15.3-15.3c1.1-1.1 2.8-1.1 3.8 0 1.1 1.1 1.1 2.8 0 3.8l-17.2 17.2c-.5.5-1.2.8-1.9.8z" class="st3"/>
  <path d="M184.4 129.9c-.7 0-1.4-.3-1.9-.8l-7.1-7.1c-1.1-1.1-1.1-2.8 0-3.8 1.1-1.1 2.8-1.1 3.8 0l5.2 5.2 15.3-15.3c1.1-1.1 2.8-1.1 3.8 0 1.1 1.1 1.1 2.8 0 3.8l-17.2 17.2c-.5.5-1.2.8-1.9.8z" class="st3"/>
  <path d="M248 118.6l7.3-7.3c1.1-1.1 1.1-2.8 0-3.8-1.1-1.1-2.8-1.1-3.8 0l-7.3 7.3-7.3-7.3c-1.1-1.1-2.8-1.1-3.8 0-1.1 1.1-1.1 2.8 0 3.8l7.3 7.3-7.4 7.4c-1.1 1.1-1.1 2.8 0 3.8.5.5 1.2.8 1.9.8s1.4-.3 1.9-.8l7.3-7.3 7.3 7.3c.5.5 1.2.8 1.9.8s1.4-.3 1.9-.8c1.1-1.1 1.1-2.8 0-3.8l-7.2-7.4z" class="st4"/>
  <path d="M129.9 176.5c-.7 0-1.4-.3-1.9-.8l-7.1-7.1c-1.1-1.1-1.1-2.8 0-3.8 1.1-1.1 2.8-1.1 3.8 0l5.2 5.2 15.3-15.3c1.1-1.1 2.8-1.1 3.8 0 1.1 1.1 1.1 2.8 0 3.8l-17.2 17.2c-.5.5-1.2.8-1.9.8z" class="st3"/>
  <path d="M184.4 176.5c-.7 0-1.4-.3-1.9-.8l-7.1-7.1c-1.1-1.1-1.1-2.8 0-3.8 1.1-1.1 2.8-1.1 3.8 0l5.2 5.2 15.3-15.3c1.1-1.1 2.8-1.1 3.8 0 1.1 1.1 1.1 2.8 0 3.8l-17.2 17.2c-.5.5-1.2.8-1.9.8z" class="st3"/>
  <path d="M248 165.2l7.3-7.3c1.1-1.1 1.1-2.8 0-3.8-1.1-1.1-2.8-1.1-3.8 0l-7.3 7.3-7.3-7.3c-1.1-1.1-2.8-1.1-3.8 0-1.1 1.1-1.1 2.8 0 3.8l7.3 7.3-7.3 7.3c-1.1 1.1-1.1 2.8 0 3.8.5.5 1.2.8 1.9.8s1.4-.3 1.9-.8l7.3-7.3 7.3 7.3c.5.5 1.2.8 1.9.8s1.4-.3 1.9-.8c1.1-1.1 1.1-2.8 0-3.8l-7.3-7.3z" class="st4"/>
  <path d="M129.9 223.1c-.7 0-1.4-.3-1.9-.8l-7.1-7.1c-1.1-1.1-1.1-2.8 0-3.8 1.1-1.1 2.8-1.1 3.8 0l5.2 5.2 15.3-15.3c1.1-1.1 2.8-1.1 3.8 0 1.1 1.1 1.1 2.8 0 3.8l-17.2 17.2c-.5.5-1.2.8-1.9.8z" class="st3"/>
  <path d="M239.1 223.1c-.7 0-1.4-.3-1.9-.8l-7.1-7.1c-1.1-1.1-1.1-2.8 0-3.8 1.1-1.1 2.8-1.1 3.8 0l5.2 5.2 15.3-15.3c1.1-1.1 2.8-1.1 3.8 0 1.1 1.1 1.1 2.8 0 3.8L241 222.3c-.5.5-1.2.8-1.9.8z" class="st3"/>
  <path d="M190.5 211.8l7.4-7.3c1.1-1.1 1.1-2.8 0-3.8-1.1-1.1-2.8-1.1-3.8 0l-7.4 7.3-7.4-7.3c-1.1-1.1-2.8-1.1-3.8 0-1.1 1.1-1.1 2.8 0 3.8l7.4 7.3-7.4 7.3c-1.1 1.1-1.1 2.8 0 3.8.5.5 1.2.8 1.9.8s1.4-.3 1.9-.8l7.4-7.3 7.4 7.3c.5.5 1.2.8 1.9.8s1.4-.3 1.9-.8c1.1-1.1 1.1-2.8 0-3.8l-7.4-7.3z" class="st4"/>
  <path fill="#cfcfd8" d="M3.7 38.9h272.5c2.1 0 3.7 1.6 3.7 3.7V55H0V42.7c0-2.1 1.6-3.8 3.7-3.8z"/>
  <path d="M0 55.3h279.9v29.9H0V55.3z" class="st6"/>
  <path d="M26.3 63.4h219c1.4 0 2.5 1.1 2.5 2.5v8.7c0 1.4-1.1 2.5-2.5 2.5h-219c-1.4 0-2.5-1.1-2.5-2.5v-8.7c0-1.4 1.2-2.5 2.5-2.5z" class="st0"/>
  <path d="M24.4 42h49.8c.3 0 .6.3.6.6v8.7c0 .3-.3.6-.6.6H24.4c-.3 0-.6-.3-.6-.6v-8.7c0-.3.3-.6.6-.6z" class="st6"/>
  <path fill="#c38afa" d="M349.9 302.2c0 4.9-4 8.9-8.9 8.9h-88.5c-4.9 0-8.9-4-8.9-8.9V147.3c0-4.9 4-8.9 8.9-8.9h88.6c4.9 0 8.9 4 8.9 8.9"/>
  <path fill="#7542e5" d="M341.1 151.7v146.1c0 2.4-1.9 4.4-4.4 4.4H257c-2.4 0-4.4-1.9-4.4-4.4V151.7c0-2.4 1.9-4.4 4.4-4.4h79.7c2.4 0 4.4 2 4.4 4.4z"/>
  <path fill="#fff" d="M252.6 156.2v88.5l88.6-88.5h-88.6z" opacity=".33"/>
  <path fill="#592acb" d="M257 147.3h79.7c2.4 0 4.4 1.9 4.4 4.4v4.4h-88.6v-4.4c.1-2.4 2-4.4 4.5-4.4z"/>
  <path d="M291.6 306.6h10.3" class="st11"/>
  <path d="M295.7 142.9h2.3" class="st11"/>
  <path d="M261.3 164.6h12.4c1.6 0 3 1.3 3 3V180c0 1.6-1.3 3-3 3h-12.4c-1.6 0-3-1.3-3-3v-12.4c0-1.7 1.3-3 3-3z" class="st12"/>
  <path d="M290.7 164.6H303c1.6 0 3 1.3 3 3V180c0 1.6-1.3 3-3 3h-12.4c-1.6 0-3-1.3-3-3v-12.4c.1-1.7 1.4-3 3.1-3z" class="st12"/>
  <path d="M320.1 164.6h12.4c1.6 0 3 1.3 3 3V180c0 1.6-1.3 3-3 3h-12.4c-1.6 0-3-1.3-3-3v-12.4c0-1.7 1.3-3 3-3z" class="st12"/>
  <path d="M261.3 191.6h12.4c1.6 0 3 1.3 3 3V207c0 1.6-1.3 3-3 3h-12.4c-1.6 0-3-1.3-3-3v-12.4c0-1.7 1.3-3 3-3z" class="st12"/>
  <path d="M290.7 191.6H303c1.6 0 3 1.3 3 3V207c0 1.6-1.3 3-3 3h-12.4c-1.6 0-3-1.3-3-3v-12.4c.1-1.7 1.4-3 3.1-3z" class="st12"/>
  <path d="M320.1 191.6h12.4c1.6 0 3 1.3 3 3V207c0 1.6-1.3 3-3 3h-12.4c-1.6 0-3-1.3-3-3v-12.4c0-1.7 1.3-3 3-3z" class="st12"/>
</svg>
