<svg width="285" height="186" viewBox="0 0 285 186" fill="none" xmlns="http://www.w3.org/2000/svg"><g clip-path="url(#a)"><path fill="#FC7F6E" d="M0 0h285v186H0z"/><path fill="#C5A5F8" d="M76 0h153v30H76z"/><path fill="#FCB644" d="M-.19 0h76.384v30H-.19z"/><path fill="#FF6582" d="M-1 156.082h105v30H-1z"/><path fill="#00266C" d="M186.34 0h98.639v30H186.34z"/><path fill="#81ECB6" d="M104.098 156h133.931v30H104.098z"/><path fill="#9871EF" d="M-.891 34.616H285v119.006H-.891z"/><path d="M285 30H0v126h285V30Z" fill="#9871EF"/><path d="M75.415 81.425h12.392c6.954 0 10.58-2.908 10.58-8.43v-.169c0-4.046-2.108-6.28-6.028-7.08 3.372-.97 4.89-3.288 4.89-6.45v-.168c0-5.143-3.415-7.84-9.99-7.84H75.415v30.137Zm6.66-17.745v-7.713h4.046c3.203 0 4.636 1.138 4.636 3.666v.17c0 2.697-1.306 3.877-4.594 3.877h-4.089Zm0 13.024v-8.64h4.34c3.71 0 5.227 1.433 5.227 4.215v.168c0 2.74-1.517 4.257-4.889 4.257h-4.679Zm30.734 5.185c6.028 0 9.821-2.656 10.538-7.419h-5.775c-.379 1.855-1.77 3.077-4.594 3.077-3.33 0-5.311-2.107-5.48-5.774h15.891v-1.686c0-7.882-5.058-11.212-10.748-11.212-6.407 0-11.339 4.51-11.339 11.465v.337c0 7.039 4.848 11.212 11.507 11.212Zm-5.226-13.868c.463-3.119 2.318-4.931 5.058-4.931 2.908 0 4.594 1.602 4.805 4.931h-9.863Zm28.021 13.868c5.817 0 9.273-2.487 9.273-7.25 0-4.72-3.035-6.112-8.557-6.913-3.203-.463-4.257-1.011-4.257-2.402 0-1.349 1.138-2.276 3.119-2.276 2.108 0 3.119.843 3.457 2.655h5.606c-.548-5.058-4.215-6.828-9.105-6.828-4.51 0-8.725 2.276-8.725 6.87 0 4.3 2.276 5.986 8.135 6.87 3.161.464 4.468 1.097 4.468 2.614s-1.096 2.403-3.456 2.403c-2.656 0-3.625-1.139-3.878-3.12h-5.69c.21 4.763 3.667 7.377 9.61 7.377Zm21.199-.042c1.644 0 2.866-.295 3.709-.59v-4.721c-.716.295-1.39.421-2.318.421-1.559 0-2.444-.843-2.444-2.613V63.722h4.636v-4.341h-4.636v-4.763h-6.07v4.763h-2.824v4.341h2.824v11.17c0 4.594 2.487 6.955 7.123 6.955Zm27.424.042c6.618 0 11.634-4.426 11.634-11.38v-.338c0-6.87-4.974-11.296-11.591-11.296-6.618 0-11.634 4.51-11.634 11.422v.338c0 6.87 5.016 11.254 11.591 11.254Zm.043-4.637c-3.457 0-5.396-2.529-5.396-6.744v-.337c0-4.215 2.024-6.66 5.396-6.66 3.414 0 5.395 2.53 5.395 6.744v.295c0 4.173-1.981 6.702-5.395 6.702Zm16.7 4.173h6.07V63.722h4.805v-4.341h-4.805v-2.698c0-1.686.8-2.908 2.739-2.908.885 0 1.644.168 2.234.379V49.56c-.969-.295-1.854-.422-3.161-.422-4.889 0-7.882 2.571-7.882 7.714v2.529h-2.908v4.341h2.908v17.703ZM63.732 140.456h38.48v-10.92H87.847l5.33-5.135c5.135-4.94 8.645-9.555 8.645-16.12 0-8.71-6.175-15.015-18.005-15.015-11.635 0-18.98 5.98-19.37 18.07h13.26c.585-5.135 2.405-7.02 5.395-7.02 2.925 0 4.225 1.95 4.225 4.615 0 3.835-3.12 7.735-7.8 12.74l-15.795 16.77v2.015Zm63.706.845c13.585 0 22.295-8.58 22.295-23.53v-1.755c0-15.405-9.685-22.75-22.035-22.75-12.415 0-21.97 8.19-21.97 23.075v1.82c0 14.82 8.32 23.14 21.71 23.14Zm.455-11.375c-5.395 0-7.54-3.705-7.54-11.83v-1.82c0-8.06 2.145-11.83 7.41-11.83 5.2 0 7.345 3.77 7.345 11.895v1.69c0 8.06-2.015 11.895-7.215 11.895Zm24.389 10.53h38.48v-10.92h-14.365l5.33-5.135c5.135-4.94 8.645-9.555 8.645-16.12 0-8.71-6.175-15.015-18.005-15.015-11.635 0-18.98 5.98-19.37 18.07h13.26c.585-5.135 2.405-7.02 5.395-7.02 2.925 0 4.225 1.95 4.225 4.615 0 3.835-3.12 7.735-7.8 12.74l-15.795 16.77v2.015Zm50.511 0h14.755V93.981h-12.675l-10.66 7.41v12.22l8.58-5.135v31.98Z" fill="#fff"/></g><defs><clipPath id="a"><path fill="#fff" d="M0 0h285v186H0z"/></clipPath></defs></svg>
