<svg xmlns="http://www.w3.org/2000/svg" id="Layer_1" x="0" y="0" version="1.1" viewBox="0 0 330 330" xml:space="preserve">
  <style>
    .line,.logo,.objectline{fill:#000}.object{fill:#fff}.shapelight{fill:#c3c4fd}.shapedark{fill:#a67bfc}.building{fill:#c3c4fd}
  </style>
  <circle cx="302.2" cy="55.5" r="10.5" class="shapelight"/>
  <path d="M312.3 45.1c-2.7-2.7-6.4-4.2-10.2-4.2-.2 0-.5.1-.6.3-.2.2-.3.4-.3.6v13.6c0 .2.1.5.3.6.2.2.4.3.6.3h13.6c.2 0 .5-.1.6-.3.2-.2.3-.4.3-.6-.1-3.9-1.6-7.6-4.3-10.3zm-9.3-2.4c3 .2 5.9 1.5 8.1 3.7s3.5 5 3.7 8.1H303V42.7z" class="line"/>
  <path d="M73.6 208v20.8H51.2v22.5h.2v.1h58V208z" class="building"/>
  <path d="M41.8 250.6v-.9H12.5v-16.9h28.4v17.7l.9.1v-1 1h.9v-19.5h-32v20.4h32v-.9h-.9z" class="line"/>
  <path d="M14.4 222.3v-9.5H3.6V251h1.8v-36.4h7.2v7.7h1.8z" class="line"/>
  <path d="M93 247.2v-19.5H81.5v15.4h1.8v-13.6h7.9v17.7H93z" class="line"/>
  <path d="M75.1 194.9v-15.3H57.7v23.5H39.4v7h1.5v16.1H8.8v6.6h32.1v18.6h23.8V210h1.5v-7h-6.7v-21.7h13.9v15.3h6.7v27.1h1.8v-28.8h-6.8zM10.6 228h30.3v3.1H10.6V228zm52.3 21.7H42.7v-39.5h20.2v39.5zm1.5-41.4H41.2v-3.4h23.2v3.4z" class="line"/>
  <path d="M265.2 278.3c1.4 0 2.7-.5 3.6-1.5 1-1 1.5-2.3 1.5-3.6v-94.7c0-1.4-.5-2.7-1.5-3.6-1-1-2.3-1.5-3.6-1.5H107.6c-1.4 0-2.7.5-3.6 1.5-1 1-1.5 2.3-1.5 3.6v94.7c0 1.4.5 2.7 1.5 3.6 1 1 2.3 1.5 3.6 1.5" class="object"/>
  <path d="M271.1 177.6c-.2-1.3-.8-2.5-1.7-3.4-1.1-1.1-2.7-1.8-4.3-1.8H107.6c-1.6 0-3.1.6-4.3 1.8-1.1 1.1-1.8 2.7-1.8 4.3v94.7c0 .8.2 1.6.5 2.3.3.7.8 1.4 1.3 2 .6.6 1.2 1 2 1.3.7.3 1.5.5 2.3.5v-1.8c-1.1 0-2.2-.5-3-1.2-.8-.8-1.3-1.9-1.3-3v-94.7c0-1.1.5-2.2 1.3-3s1.9-1.3 3-1.3h157.6c1.1 0 2.2.5 3 1.3s1.3 1.9 1.3 3v94.7c0 1.1-.5 2.2-1.3 3s-1.9 1.2-3 1.2v1.8c1.6 0 3.1-.6 4.3-1.8 1.1-1.1 1.8-2.7 1.8-4.3l-.2-95.6z" class="objectline"/>
  <path d="M72.8 304.4v3.3c0 1 .4 1.9 1.1 2.6s1.6 1.1 2.6 1.1h219.8c1 0 1.9-.4 2.6-1.1s1.1-1.6 1.1-2.6v-3.3" class="object"/>
  <path d="M297.1 306.8c.6 0 1.1-.2 1.6-.5s.8-.8 1-1.3.2-1.1.1-1.7-.5-1-.9-1.4L271.1 279c-.5-.4-1.1-.6-1.8-.6h-166c-.6 0-1.3.2-1.8.6l-27.8 22.9c-.4.4-.8.9-.9 1.4-.2.5-.1 1.1.1 1.7.2.5.5 1 1 1.3s1 .5 1.6.5h221.6z" class="object"/>
  <path d="M300.8 304c0-.5-.1-1-.3-1.5-.2-.5-.6-1-1-1.3l-27.8-22.9c-.7-.5-1.5-.8-2.3-.8h-166c-.9 0-1.7.3-2.3.8l-27.8 22.9c-.4.4-.8.8-1 1.3s-.3 1-.3 1.5v.4h-.1v3.3c0 1.2.5 2.3 1.3 3.2.8.8 2 1.3 3.2 1.3h219.8c1.2 0 2.3-.5 3.2-1.3.8-.8 1.3-2 1.3-3.2v-3.3c.1-.1.1-.3.1-.4zm-226.9-.8c.1-.3.3-.5.5-.7l27.8-22.9c.3-.3.8-.4 1.2-.4h166c.4 0 .9.2 1.2.4l27.8 22.9c.2.2.4.4.5.7.1.2.2.5.2.8 0 .5-.2 1-.5 1.3-.2.2-.4.3-.6.4s-.5.2-.8.2H75.6c-.3 0-.5-.1-.8-.2s-.6-.4-.8-.7c-.2-.3-.3-.7-.3-1 0-.3.1-.5.2-.8zm224.3 6.4c-.5.5-1.2.8-1.9.8H76.5c-.7 0-1.4-.3-1.9-.8s-.8-1.2-.8-1.9v-.6c.2.1.3.2.5.3.5.2 1 .3 1.5.3h221.5c.5 0 1-.1 1.5-.3.1-.1.3-.1.4-.2v.5c-.2.7-.5 1.4-1 1.9z" class="objectline"/>
  <path d="M122.3 301.9l13.1-12.4h131.1l13.1 12.4z" class="shapelight"/>
  <path d="M186.5 296.8v.9h78.1c.2 0 .3 0 .5-.1.1-.1.3-.2.3-.4s.1-.3.1-.5-.1-.3-.2-.5L252.6 282c-.1-.1-.2-.2-.3-.2-.1-.1-.2-.1-.4-.1h-131c-.1 0-.3 0-.4.1s-.2.1-.3.2l-12.7 14.2c-.1.1-.2.3-.2.5s0 .3.1.5.2.3.3.4c.1.1.3.1.5.1h78.3v-1.8h-76.4l11.1-12.4h130.3l11.1 12.4h-76.1v.9z" class="objectline"/>
  <path d="M261.2 179.9H111.5v92.5h149.7v-92.5z" class="object"/>
  <path d="M261.2 272.4h.9v-92.5c0-.2-.1-.5-.3-.6-.2-.2-.4-.3-.6-.3H111.5c-.2 0-.5.1-.6.3-.2.2-.3.4-.3.6v92.5c0 .2.1.5.3.6.2.2.4.3.6.3h149.7c.2 0 .5-.1.6-.3.2-.2.3-.4.3-.6h-.9v-.9H112.4v-90.7h147.9v91.6h.9z" class="objectline"/>
  <path d="M204 223.3c-.5-1.1-1.2-2.1-2.2-2.8s-2.1-1.1-3.3-1.3c-1.2-.1-2.4.1-3.5.6s-2 1.3-2.7 2.3c-.4.6-.7 1.2-.9 1.9h-9.3c-.1-.3-.2-.5-.3-.8-.1-.2-.2-.5-.4-.7l3.3-3.3c1 .6 2.1.9 3.3.9.9 0 1.8-.2 2.6-.5 1.2-.5 2.2-1.4 3-2.4.7-1.1 1.1-2.4 1.1-3.7 0-.9-.2-1.8-.5-2.6-.6-1.4-1.6-2.6-3-3.4-1.4-.7-2.9-1-4.5-.7-1.5.3-2.9 1.1-3.8 2.3-1 1.2-1.5 2.7-1.5 4.3 0 .9.2 1.8.5 2.6l.3.6-3.4 3.4c-1-.6-2.1-.8-3.3-.8s-2.3.3-3.3.9c-1 .6-1.8 1.4-2.4 2.4-.6 1-.9 2.1-.9 3.3 0 1.4.5 2.8 1.3 3.9s2 2 3.4 2.4 2.8.4 4.1-.1 2.5-1.4 3.3-2.5c.4-.6.7-1.2.9-1.9h9.3c.1.3.2.5.3.8l.3.6-3.4 3.4c-1-.5-2.1-.8-3.2-.8-.9 0-1.8.2-2.6.5-1.6.7-2.9 2-3.6 3.6-.7 1.6-.6 3.5 0 5.1.5 1.2 1.3 2.2 2.4 2.9 1.1.7 2.4 1.1 3.7 1.1.9 0 1.8-.2 2.6-.5 1.2-.5 2.2-1.4 2.9-2.4.7-1.1 1.1-2.4 1.1-3.7 0-.9-.2-1.8-.5-2.6-.1-.2-.2-.5-.4-.7l3.3-3.3c1.2.7 2.6 1 4 .8s2.7-.7 3.7-1.6c1-.9 1.8-2.1 2.1-3.5.7-1.3.6-2.8.1-4zm-18.7-11c.2-.5.6-1 1.1-1.3.4-.3.9-.5 1.4-.5.5-.1 1 0 1.5.2s1 .6 1.4 1.1c.3.5.5 1.1.5 1.7 0 .4-.1.8-.2 1.2-.2.4-.4.7-.7 1s-.6.5-1 .7c-.4.1-.8.2-1.2.2s-.8-.1-1.2-.2c-.5-.2-1-.6-1.4-1.1-.3-.5-.5-1.1-.5-1.7.1-.6.2-1 .3-1.3zm-6.7 14.7c-.2.5-.6 1-1.1 1.3s-1.1.5-1.7.5c-.4 0-.8-.1-1.2-.2-.6-.2-1-.6-1.4-1.1-.3-.5-.5-1.1-.5-1.7 0-.4.1-.8.2-1.2.2-.5.6-1 1.1-1.3s1.1-.5 1.7-.5c.4 0 .8.1 1.2.2.5.2 1 .6 1.4 1.1.3.4.5.9.5 1.4s-.1 1.1-.2 1.5zm9.7 12.4c-.2.6-.6 1-1.1 1.4-.5.3-1.1.5-1.7.5-.5 0-1-.1-1.4-.4-.4-.2-.8-.6-1.1-1-.3-.5-.5-1.1-.5-1.7 0-.4.1-.8.2-1.2.2-.6.6-1 1.1-1.4.5-.3 1.1-.5 1.7-.5.4 0 .8.1 1.2.2.6.2 1 .6 1.4 1.1.3.5.5 1.1.5 1.7-.1.5-.1.9-.3 1.3zm12.4-12.4c-.2.6-.6 1-1.1 1.4-.5.3-1.1.5-1.7.5-.4 0-.8-.1-1.2-.2-.5-.2-1-.6-1.3-1.1s-.5-1.1-.5-1.7c0-.4.1-.8.2-1.2.2-.5.6-1 1.1-1.3.4-.3.9-.5 1.4-.5s1 0 1.5.2 1 .6 1.4 1.1c.3.5.5 1.1.5 1.7-.1.3-.2.7-.3 1.1z" class="logo"/>
  <path d="M231.4 92.2c3.6-.7 7.2-1 10.9-1 8.8 0 17.5 2.2 25.3 6.2 14.1 7 24.4 17.2 31.2 29 6.7 11.9 10.2 25.3 10.1 38.9 0 14-3.4 27.8-9.9 40.2-6.6 12.9-16.5 23.8-28.7 31.6l1 1.5c12.4-8 22.5-19.1 29.3-32.3 6.6-12.7 10.1-26.8 10.1-41.1.1-14-3.5-27.7-10.3-39.8-6.9-12.1-17.5-22.5-31.9-29.6-8.1-4.1-17-6.3-26.1-6.4-3.8.1-7.7.4-11.5 1.2l.5 1.6z" class="line"/>
  <path d="M120.6 48.9c3-1.1 6.1-2 9.2-2.7 3.6-.9 7.2-1.3 10.9-1.4 1.8 0 3.6.2 5.4.5 2.3.4 4.5 1.5 6.2 3.2.8.8 1.5 1.8 2 2.9.6 1.3.9 2.7 1.1 4.1.1 1 .2 2 .2 3.1 0 3.4-.8 6.8-2.4 9.9-1.4 2.7-3.2 5.1-5.4 7.1-3.9 3.8-9.1 7.1-14.8 10.1-8.6 4.5-18.4 8.4-27.1 12.8-4.2 2-8.2 4.4-12 7-3.4 2.3-6.3 5.2-8.7 8.6-3.5 5.3-5.1 10.6-5.1 15.5 0 3.6.9 7.2 2.6 10.3 2.6 4.8 6.6 8.7 11.5 11.3 5.3 2.8 11.2 4.3 17.2 4.2.8 0 1.7 0 2.6-.1 9.2-.6 17.9-3.7 26.1-7.8 8.2-4.2 15.9-9.5 23-14.7 7.2-5.3 14.7-11.2 22.3-16.9l-.6-1.7c-7.9 5.9-15.5 11.9-22.9 17.3-7.1 5.2-14.7 10.4-22.8 14.6-8.1 4.1-16.6 7.1-25.5 7.6-.8.1-1.6.1-2.4.1-7.9 0-15.3-2.6-20.7-6.9-2.6-2.1-4.8-4.7-6.4-7.6-1.5-2.9-2.4-6.2-2.4-9.5 0-4.5 1.4-9.4 4.8-14.5 1.9-2.8 4.2-5.2 6.9-7.2 5-3.8 11.4-7.1 18.3-10.3C122 93 133.3 88.5 142 82.5c4.4-3 8.1-6.2 10.8-10.2 2.8-4 4.2-8.7 4.2-13.5 0-1.1-.1-2.2-.2-3.3-.2-2.1-.8-4.1-1.9-5.9-.7-1.2-1.6-2.2-2.7-3.1-1.6-1.2-3.5-2.1-5.4-2.6-2.1-.5-4.3-.8-6.4-.7-3.8.1-7.6.5-11.3 1.4-3.2.7-6.4 1.7-9.5 2.8l1 1.5" class="line"/>
  <path d="M256.6 108.5l-.4-.8-16.1 5.7-9.4-26.6-22.8 8.1-8.2-23.2-27.3 9.7 17.8 50.2c.7 2 2.1 3.8 3.8 5.1 1.8 1.3 3.9 1.9 6.1 1.9 1.2 0 2.4-.2 3.5-.6l4.6-1.6 42.2-15c1.3-.4 2.4-1.1 3.4-2s1.8-2 2.4-3.2c.6-1.2.9-2.5 1-3.8 0-1.3-.2-2.6-.6-3.9zM196.3 136c-2.1-1-3.7-2.8-4.5-5l-17.2-48.5 24-8.5 8.2 23.2 22.8-8.1 8.9 24.9-30.4 10.8.3.9c.3.9.5 1.8.5 2.8 0 1.7-.5 3.4-1.5 4.8s-2.4 2.4-4 3v.1l-.3.1c-2.3.6-4.7.5-6.8-.5zm59.1-23.7c-.1 1.1-.3 2.2-.8 3.2s-1.1 1.9-1.9 2.6c-.8.7-1.8 1.3-2.8 1.7l-41.3 14.6c.4-.5.7-1.1 1-1.7.6-1.2.9-2.5 1-3.8.1-1-.1-2-.3-3l44.8-15.9c.2.8.3 1.5.3 2.3z" class="line"/>
  <path d="M227.1 56.4l-24.3 8.5 8.6 24.2.2-.1 24.1-8.5-8.6-24.1z" class="shapelight"/>
  <path d="M104 62.2h14.6c1.4 0 2.5-1.1 2.5-2.5V45c0-1.4-1.1-2.5-2.5-2.5H104c-1.4 0-2.5 1.1-2.5 2.5v14.6c0 1.5 1.1 2.6 2.5 2.6z" class="shapedark"/>
  <path d="M102.8 75.9h7.7c.7 0 1.3-.6 1.3-1.3v-7.7c0-.7-.6-1.3-1.3-1.3h-7.7c-.7 0-1.3.6-1.3 1.3v7.7c0 .7.6 1.3 1.3 1.3z" class="shapedark"/>
  <path d="M89.6 75.9h7.7c.7 0 1.3-.6 1.3-1.3v-7.7c0-.7-.6-1.3-1.3-1.3h-7.7c-.7 0-1.3.6-1.3 1.3v7.7c-.1.7.5 1.3 1.3 1.3z" class="shapedark"/>
  <path d="M89.6 62.2h7.7c.7 0 1.3-.6 1.3-1.3v-7.7c0-.7-.6-1.3-1.3-1.3h-7.7c-.7 0-1.3.6-1.3 1.3v7.7c-.1.7.5 1.3 1.3 1.3z" class="shapedark"/>
  <path d="M181.2 41.8h-1.5v-1.5c0-.5-.4-.9-.9-.9s-.9.4-.9.9v1.5h-1.5c-.5 0-.9.4-.9.9s.4.9.9.9h1.5V45c0 .5.4.9.9.9s.9-.4.9-.9v-1.5h1.5c.5 0 .9-.4.9-.9s-.4-.8-.9-.8z" class="line"/>
  <path d="M101.7 44H79.9c-1.3 0-2.4-1.1-2.4-2.4V29.3c0-1.3 1.1-2.4 2.4-2.4h21.8c1.3 0 2.4 1.1 2.4 2.4v12.3c0 1.3-1.1 2.4-2.4 2.4zM79.9 28.7c-.3 0-.6.3-.6.6v12.3c0 .3.3.6.6.6h21.8c.3 0 .6-.3.6-.6V29.3c0-.3-.3-.6-.6-.6H79.9z" class="line"/>
  <path d="M94.4 17.5H72.2c-1.3 0-2.4 1.1-2.4 2.4V59c0 1.3 1.1 2.4 2.4 2.4h22.2c1.3 0 2.4-1.1 2.4-2.4V19.9c0-1.3-1.1-2.4-2.4-2.4zm-22.2 1.8h22.2c.3 0 .6.3.6.6v1.6H71.5v-1.6c0-.3.3-.6.7-.6zm22.8 4v31.9H71.5V23.3H95zm-.6 36.3H72.2c-.3 0-.6-.3-.6-.6v-2H95v2c0 .3-.3.6-.6.6z" class="line"/>
  <path d="M98.6 33.9h-9.3c-.5 0-.9-.4-.9-.9s.4-.9.9-.9h9.3c.5 0 .9.4.9.9s-.5.9-.9.9z" class="line"/>
  <path d="M98.6 37.9h-9.3c-.5 0-.9-.4-.9-.9s.4-.9.9-.9h9.3c.5 0 .9.4.9.9s-.5.9-.9.9z" class="line"/>
  <circle cx="48.5" cy="124.6" r="11.9" class="shapelight"/>
  <path d="M53.1 125.5c-.3-.3-.9-.3-1.2 0l-2.5 2.5v-9c0-.5-.4-.9-.9-.9s-.9.4-.9.9v8.9l-2.5-2.5c-.3-.3-.9-.3-1.2 0s-.3.9 0 1.2l4 4c.1.1.2.1.3.2.1 0 .2.1.3.1s.2 0 .3-.1c.1 0 .2-.1.3-.2l4-4c.3-.2.3-.8 0-1.1z" class="objectline"/>
  <path d="M58.6 163.8c-1.8 0-3.3-1.5-3.3-3.3s1.5-3.3 3.3-3.3 3.3 1.5 3.3 3.3-1.5 3.3-3.3 3.3zm0-4.8c-.8 0-1.5.7-1.5 1.5s.7 1.5 1.5 1.5 1.5-.7 1.5-1.5-.7-1.5-1.5-1.5z" class="line"/>
  <path d="M131.4 126.6c-1.8 0-3.3-1.5-3.3-3.3s1.5-3.3 3.3-3.3 3.3 1.5 3.3 3.3-1.5 3.3-3.3 3.3zm0-4.8c-.8 0-1.5.7-1.5 1.5s.7 1.5 1.5 1.5 1.5-.7 1.5-1.5-.6-1.5-1.5-1.5z" class="line"/>
  <path d="M325.4 191.3H324v-1.5c0-.5-.4-.9-.9-.9s-.9.4-.9.9v1.5h-1.5c-.5 0-.9.4-.9.9s.4.9.9.9h1.5v1.5c0 .5.4.9.9.9s.9-.4.9-.9v-1.5h1.5c.5 0 .9-.4.9-.9s-.5-.9-1-.9z" class="line"/>
</svg>
