<svg xmlns="http://www.w3.org/2000/svg" xml:space="preserve" x="0" y="0" viewBox="0 0 150 300" width="150" height="300">
  <style>
    .st1{fill:#333336}
  </style>
  <path fill="#f8f6f4" stroke="#333336" stroke-width="4.7548" d="M2.7 25c0-12.5 10.1-22.6 22.6-22.6h96.3c12.5 0 22.6 10.1 22.6 22.6v250c0 12.5-10.1 22.6-22.6 22.6H25.4c-12.5 0-22.6-10.1-22.6-22.6V25z"/>
  <path d="M70.2 9.6h6.7c2.4 0 4.3 1.9 4.3 4.3s-1.9 4.3-4.3 4.3h-6.7c-2.4 0-4.3-1.9-4.3-4.3.1-2.4 2-4.3 4.3-4.3z" class="st1"/>
  <path d="M145.8 64.7h1.9c1.1 0 1.9.9 1.9 1.9v33.3c0 1.1-.9 1.9-1.9 1.9h-1.9c-1.1 0-1.9-.9-1.9-1.9V66.6c0-1 .9-1.9 1.9-1.9z" class="st1"/>
</svg>
