<svg xmlns="http://www.w3.org/2000/svg" xml:space="preserve" shape-rendering="crispEdges" viewBox="0 0 160 160" width="160" height="160">
  <path fill="#fff" d="M5 5h150v150H5V5z"/>
  <path stroke="#000" stroke-width="5.1724" d="M5 7.6h36.2m10.4 0h5.2m10.3 0h5.2m10.3 0h10.3m5.2 0h5.2m5.1 0h5.2m5.2 0H155M5 12.8h5.2m25.8 0h5.2m5.2 0h20.7m5.1 0h10.3m5.3 0h10.3m10.3 0h5.2m5.2 0h5.2m25.8 0h5.2M5 17.9h5.2m5.1 0h15.5m5.2 0h5.2m5.2 0h5.2m5.1 0h5.2m5.2 0h10.3m5.2 0h5.2m20.6 0h5.2m5.2 0h5.2m5.1 0h15.5m5.2 0h5.2M5 23.1h5.2m5.1 0h15.5m5.2 0h5.2m5.2 0h10.3m5.2 0h10.3m15.6 0h10.3m5.2 0h10.3m5.2 0h5.2m5.1 0h15.5m5.2 0h5.2M5 28.3h5.2m5.1 0h15.5m5.2 0h5.2m10.4 0h10.3m5.2 0h5.2m10.3 0h31m5.2 0h5.2m5.1 0h15.5m5.2 0h5.2M5 33.4h5.2m25.8 0h5.2m15.5 0h5.2m20.7 0h5.2m5.1 0h5.2m10.3 0h5.2m5.2 0h5.2m25.8 0h5.2M5 38.6h36.2m5.2 0h5.2m5.1 0h5.2m5.2 0h5.2m5.1 0h5.2m5.2 0H93m5.1 0h5.2m5.1 0h5.2m5.2 0H155M46.4 43.8h20.7m10.3 0h15.5m10.4 0h10.3M5 49h5.2M36 49h5.2m5.2 0h5.2m10.3 0h5.2m20.7 0h10.3m5.2 0h5.2m5.1 0H124m10.3 0h15.5M5 54.1h5.2m15.5 0H36m10.4 0h5.2m15.5 0h10.3m10.4 0h20.7m15.5 0h10.3m5.2 0h10.3M15.3 59.3h10.3m5.3 0h20.7m5.1 0h46.6m5.1 0h10.3M5 64.5h10.3m10.4 0H36m10.4 0h5.2m5.1 0h5.2m5.2 0h10.3m20.7 0h10.3m5.2 0h5.2m5.2 0h5.2m5.1 0h5.2M5 69.7h5.2m5.1 0h5.2m15.5 0h5.2m20.7 0h15.5m5.2 0h10.3m5.2 0h15.5m5.2 0h10.3m20.7 0h5.2M15.3 74.8h5.2m5.2 0H36m10.4 0h5.2m10.3 0h5.2m20.7 0H93m10.3 0h10.3m5.2 0h5.2m5.1 0h5.2m10.4 0H155M5 80h5.2m20.7 0h15.5m5.2 0h15.5m25.8 0h10.3m25.9 0h15.5M5 85.2h5.2m15.5 0h5.2m10.3 0h5.2m20.7 0h5.2m10.3 0h5.2m10.3 0h10.3m10.4 0h5.2m5.1 0h5.2m5.2 0h5.2m5.1 0h5.2M15.3 90.3h5.2m15.5 0h5.2m5.2 0h5.2m5.1 0H67m20.8 0h20.7m15.5 0h5.2m5.1 0h10.3M5 95.5h5.2m5.1 0h5.2m5.2 0h5.2m15.5 0h10.3m10.4 0h15.5m20.7 0h5.2m10.3 0h15.5m5.2 0H155M5 100.7h25.9m5.1 0h15.5m5.2 0H67m15.6 0h5.2m15.5 0h15.5m5.2 0h15.5m10.3 0h5.2M5 105.9h5.2m10.3 0h10.3m15.6 0h10.3m5.2 0h15.5m20.7 0h5.2m5.1 0h5.2m5.2 0h5.2m5.1 0h5.2M5 111h5.2m15.5 0h15.5m5.2 0h15.5m15.5 0h10.3m5.2 0h5.2m10.3 0h25.9m5.2 0H155m-108.6 5.2h25.9m5.1 0h5.2m20.7 0h10.3m15.5 0h10.3M5 121.4h36.2m20.7 0h10.3m25.9 0h15.5m5.2 0h5.2m5.1 0h15.5M5 126.6h5.2m25.8 0h5.2m10.4 0h5.2m5.1 0h10.3m5.2 0h15.5m5.2 0h15.5m15.5 0h5.2m15.5 0h5.2M5 131.7h5.2m5.1 0h15.5m5.2 0h5.2m10.4 0h5.2m15.4 0h10.3m5.3 0H93m10.3 0h36.2M5 136.9h5.2m5.1 0h15.5m5.2 0h5.2m10.4 0h5.2m20.6 0h5.2m10.3 0h5.2m5.2 0h15.5m5.2 0h5.2m5.1 0h15.5M5 142.1h5.2m5.1 0h15.5m5.2 0h5.2m15.5 0H67m5.2 0h31m15.6 0h31M5 147.2h5.2m25.8 0h5.2m10.4 0h5.2m5.1 0h15.5m10.4 0H93m5.1 0h10.3m5.2 0h31m5.2 0h5.2M5 152.4h36.2m5.2 0h20.7m5.1 0h5.2m10.4 0h20.7m20.6 0h5.2m5.2 0h5.2"/>
</svg>
