<svg width="100" height="100" fill="none" xmlns="http://www.w3.org/2000/svg"><path d="M90.923 22.73v-9.076h-9.115V4.538H63.654v9.116h-9.116v9.077h-9.076v-9.077h-9.116V4.538H18.192v9.116H9.077v9.077H0v27.307h9.077v9.077h9.115v9.077h9.077v9.116h9.077v9.038h9.116v9.115h9.076v-9.115h9.116v-9.038h9.077v-9.116h9.077v-9.077h9.115v-9.077H100V22.732h-9.077Z" fill="#EE3AA6"/><path d="M36.346 31.846h27.269v27.27h-27.27v-27.27Z" fill="#000"/><path d="M61.346 51.154H56.46v-6.27c0-1.922-.692-2.653-2-2.653-1.577 0-2.23 1.115-2.23 2.615v3.846h1.538v2.423h-4.885v-6.23c0-1.923-.692-2.654-2-2.654-1.577 0-2.23 1.115-2.23 2.615v3.846h2.23v2.423H39.73v-2.423h1.539v-6.269H39.73V40h4.884v1.654c.73-1.193 1.923-1.885 3.538-1.885 1.654 0 3.231.77 3.77 2.385.654-1.462 1.961-2.385 3.769-2.385 2.115 0 4 1.231 4 3.808v5.115h1.577v2.462h.077Z" fill="#fff"/></svg>
