<svg width="333" height="49" viewBox="0 0 333 49" fill="none" xmlns="http://www.w3.org/2000/svg">
<path d="M41.1043 10.6295L36.3078 7.88201L25.3571 1.61206L25.0164 1.41617C23.2211 0.394479 21.0203 0.394479 19.2251 1.41617L18.8844 1.61376L3.48632 10.4336L3.14566 10.6312C1.35974 11.6538 0.255691 13.5521 0.25 15.61V34.0315C0.256137 36.0898 1.35998 37.9884 3.14566 39.012L18.8895 48.0278C20.0433 48.6902 21.5153 48.2995 22.1889 47.1523C22.5094 46.6017 22.5963 45.9458 22.4302 45.3308C22.2641 44.7158 21.8589 44.1928 21.3048 43.8785L5.90675 35.0603C5.39509 34.7686 5.07864 34.2253 5.07723 33.6363V16.0052C5.07864 15.4162 5.39509 14.873 5.90675 14.5812L8.63208 13.0192L21.2878 5.75625C21.8 5.46492 22.4278 5.46492 22.94 5.75625L38.3432 14.5778C38.8526 14.8706 39.1673 15.4126 39.1694 16.0001V33.6432C39.168 34.2322 38.8515 34.7754 38.3398 35.0671L33.1294 38.0514L30.4994 34.086C33.151 31.7374 34.6696 28.3655 34.6709 24.8233C34.6709 17.9538 29.038 12.3652 22.1122 12.3652C15.1865 12.3652 9.55358 17.9538 9.55358 24.8233C9.55358 31.6928 15.1865 37.2815 22.1122 37.2815C23.557 37.2827 24.9912 37.0349 26.3518 36.549L30.3461 42.572C30.4085 42.6639 30.4762 42.752 30.5488 42.836L30.5914 42.8786C30.6757 42.9695 30.7674 43.0533 30.8656 43.129C30.8895 43.1477 30.9116 43.1682 30.9372 43.1869C31.0452 43.2648 31.1591 43.3343 31.2778 43.3947L31.3596 43.4305C31.4658 43.478 31.575 43.5184 31.6866 43.5514L31.7616 43.5753C31.8884 43.6074 32.0178 43.6285 32.1482 43.6383H32.2555C32.293 43.6383 32.3288 43.6383 32.3663 43.6383C32.4395 43.6383 32.5127 43.6298 32.5843 43.623C32.6184 43.623 32.6507 43.623 32.6848 43.623C32.8223 43.6041 32.958 43.5733 33.0902 43.531C33.1259 43.5208 33.16 43.5054 33.1958 43.4918C33.301 43.4535 33.4034 43.4079 33.5024 43.3555C33.5245 43.3436 33.5501 43.3368 33.5722 43.3232L41.1043 39.0189C42.8919 37.9937 43.9959 36.0921 44 34.0315V15.6083C43.9943 13.5504 42.8903 11.6521 41.1043 10.6295ZM14.3825 24.8233C14.3563 21.6912 16.2229 18.8529 19.1091 17.636C21.9953 16.4192 25.3305 17.0644 27.5546 19.2699C29.7788 21.4754 30.452 24.8051 29.2595 27.7015C28.067 30.5978 25.2445 32.4883 22.1122 32.4883C17.8634 32.5006 14.406 29.0721 14.3825 24.8233Z" fill="url(#paint0_linear_1323_41610)"/>
<path d="M41.1043 10.6295L36.3078 7.88201L25.3571 1.61206L25.0164 1.41617C23.2211 0.394479 21.0203 0.394479 19.2251 1.41617L18.8844 1.61376L3.48632 10.4336L3.14566 10.6312C1.35974 11.6538 0.255691 13.5521 0.25 15.61V34.0315C0.256137 36.0898 1.35998 37.9884 3.14566 39.012L18.8895 48.0278C20.0433 48.6902 21.5153 48.2995 22.1889 47.1523C22.5094 46.6017 22.5963 45.9458 22.4302 45.3308C22.2641 44.7158 21.8589 44.1928 21.3048 43.8785L5.90675 35.0603C5.39509 34.7686 5.07864 34.2253 5.07723 33.6363V16.0052C5.07864 15.4162 5.39509 14.873 5.90675 14.5812L8.63208 13.0192L21.2878 5.75625C21.8 5.46492 22.4278 5.46492 22.94 5.75625L38.3432 14.5778C38.8526 14.8706 39.1673 15.4126 39.1694 16.0001V33.6432C39.168 34.2322 38.8515 34.7754 38.3398 35.0671L33.1294 38.0514L30.4994 34.086C33.151 31.7374 34.6696 28.3655 34.6709 24.8233C34.6709 17.9538 29.038 12.3652 22.1122 12.3652C15.1865 12.3652 9.55358 17.9538 9.55358 24.8233C9.55358 31.6928 15.1865 37.2815 22.1122 37.2815C23.557 37.2827 24.9912 37.0349 26.3518 36.549L30.3461 42.572C30.4085 42.6639 30.4762 42.752 30.5488 42.836L30.5914 42.8786C30.6757 42.9695 30.7674 43.0533 30.8656 43.129C30.8895 43.1477 30.9116 43.1682 30.9372 43.1869C31.0452 43.2648 31.1591 43.3343 31.2778 43.3947L31.3596 43.4305C31.4658 43.478 31.575 43.5184 31.6866 43.5514L31.7616 43.5753C31.8884 43.6074 32.0178 43.6285 32.1482 43.6383H32.2555C32.293 43.6383 32.3288 43.6383 32.3663 43.6383C32.4395 43.6383 32.5127 43.6298 32.5843 43.623C32.6184 43.623 32.6507 43.623 32.6848 43.623C32.8223 43.6041 32.958 43.5733 33.0902 43.531C33.1259 43.5208 33.16 43.5054 33.1958 43.4918C33.301 43.4535 33.4034 43.4079 33.5024 43.3555C33.5245 43.3436 33.5501 43.3368 33.5722 43.3232L41.1043 39.0189C42.8919 37.9937 43.9959 36.0921 44 34.0315V15.6083C43.9943 13.5504 42.8903 11.6521 41.1043 10.6295ZM14.3825 24.8233C14.3563 21.6912 16.2229 18.8529 19.1091 17.636C21.9953 16.4192 25.3305 17.0644 27.5546 19.2699C29.7788 21.4754 30.452 24.8051 29.2595 27.7015C28.067 30.5978 25.2445 32.4883 22.1122 32.4883C17.8634 32.5006 14.406 29.0721 14.3825 24.8233Z" fill="url(#paint1_linear_1323_41610)"/>
<path d="M41.1017 10.6294L36.3051 7.88188L29.6144 4.0528C28.0766 3.17437 26.1957 3.14607 24.6322 3.97785L21.2852 5.75613C21.7974 5.4648 22.4252 5.4648 22.9374 5.75613L38.3406 14.5777C38.8499 14.8705 39.1647 15.4125 39.1667 15.9999V33.643C39.166 34.2322 38.8494 34.7758 38.3372 35.067L33.1267 38.0512L33.9392 39.3509C34.9119 40.9014 36.936 41.4061 38.5228 40.4938L41.1017 39.0187C42.892 37.9965 43.9973 36.093 43.9973 34.0314V15.6082C43.9948 13.5494 42.8899 11.6496 41.1017 10.6294Z" fill="url(#paint2_linear_1323_41610)"/>
<path d="M39.1667 16.0051V24.5643H43.9973V15.6082C43.9948 13.5494 42.8899 11.6496 41.1017 10.6294L36.3051 7.88188L29.6144 4.0528C28.0766 3.17437 26.1957 3.14607 24.6322 3.97785L21.2852 5.75613C21.7976 5.46582 22.4249 5.46582 22.9374 5.75613L38.3406 14.5777C38.8515 14.8714 39.1665 15.4157 39.1667 16.0051Z" fill="url(#paint3_linear_1323_41610)"/>
<path opacity="0.9" d="M39.166 25.9424V33.6431C39.1653 34.2323 38.8486 34.7759 38.3365 35.0671L33.126 38.0513L33.9385 39.351C34.9112 40.9015 36.9353 41.4062 38.5221 40.4939L41.101 39.0188C42.8913 37.9966 43.9965 36.0932 43.9966 34.0315V25.9424H39.166Z" fill="url(#paint4_linear_1323_41610)"/>
<path opacity="0.9" d="M32.7566 37.4927L30.4962 34.0861C29.2856 35.167 27.8772 36.0034 26.3486 36.5491L28.752 40.1755C30.109 39.3102 31.4439 38.4159 32.7566 37.4927Z" fill="url(#paint5_linear_1323_41610)"/>
<path d="M64.09 36.75V12.705H69.235L76.69 26.285L84.11 12.705H89.29V36.75H84.11V21.77L76.69 35.35L69.235 21.77V36.75H64.09ZM102.732 37.17C97.3416 37.17 92.8266 32.83 92.8266 27.685C92.8266 22.54 97.3416 18.235 102.732 18.235C108.087 18.235 112.567 22.54 112.567 27.685C112.567 32.83 108.087 37.17 102.732 37.17ZM102.732 32.865C105.427 32.865 107.702 30.485 107.702 27.685C107.702 24.885 105.427 22.54 102.732 22.54C100.002 22.54 97.7266 24.885 97.7266 27.685C97.7266 30.485 100.002 32.865 102.732 32.865ZM114.969 36.75V33.145L124.069 22.995H115.214V18.655H130.719V22.26L121.619 32.41H130.789V36.75H114.969ZM136.707 16.17C135.132 16.17 133.907 14.91 133.907 13.37C133.907 11.935 135.132 10.64 136.707 10.64C138.212 10.64 139.437 11.935 139.437 13.37C139.437 14.91 138.212 16.17 136.707 16.17ZM134.117 36.75V18.655H139.227V36.75H134.117ZM143.438 36.75V12.285H148.548V36.75H143.438ZM152.759 36.75V12.285H157.869V36.75H152.759ZM170.164 18.235C174.889 18.235 178.109 21.21 178.109 25.935V36.75H173.174V34.93C171.879 36.4 169.814 37.17 167.854 37.17C164.004 37.17 161.029 34.86 161.029 31.395C161.029 27.825 164.354 25.375 168.554 25.375C170.024 25.375 171.634 25.69 173.174 26.285V25.935C173.174 24.01 171.984 22.33 169.009 22.33C167.329 22.33 165.754 22.89 164.319 23.625L162.604 20.23C165.159 18.935 167.644 18.235 170.164 18.235ZM169.009 33.635C170.969 33.635 172.824 32.725 173.174 31.045V29.365C172.019 28.945 170.689 28.7 169.289 28.7C167.434 28.7 165.964 29.785 165.964 31.255C165.964 32.725 167.259 33.635 169.009 33.635ZM192.496 36.75V12.705H196.031L204.466 28.42L212.901 12.705H216.436V36.75H212.901V19.635L204.466 35.35L196.031 19.635V36.75H192.496ZM229.84 37.17C224.66 37.17 220.285 32.83 220.285 27.685C220.285 22.54 224.66 18.235 229.84 18.235C234.985 18.235 239.325 22.54 239.325 27.685C239.325 32.83 234.985 37.17 229.84 37.17ZM229.84 34.16C233.095 34.16 235.86 31.22 235.86 27.685C235.86 24.185 233.095 21.245 229.84 21.245C226.515 21.245 223.75 24.185 223.75 27.685C223.75 31.22 226.515 34.16 229.84 34.16ZM251.834 18.235C255.824 18.235 258.624 21.14 258.624 25.235V36.75H255.229V25.83C255.229 23.135 253.514 21.245 251.064 21.245C248.544 21.245 246.374 22.89 246.094 25.025V36.75H242.629V18.655H246.094V21.28C247.179 19.495 249.384 18.235 251.834 18.235ZM264.547 15.645C263.357 15.645 262.447 14.665 262.447 13.545C262.447 12.46 263.357 11.48 264.547 11.48C265.667 11.48 266.612 12.46 266.612 13.545C266.612 14.665 265.667 15.645 264.547 15.645ZM262.797 36.75V18.655H266.262V36.75H262.797ZM278.994 33.495L280.254 35.875C279.274 36.68 277.944 37.17 276.649 37.17C273.849 37.17 271.889 35.14 271.889 32.235V21.595H269.159V18.655H271.889V13.685H275.284V18.655H279.554V21.595H275.284V31.99C275.284 33.25 276.124 34.16 277.139 34.16C277.909 34.16 278.609 33.88 278.994 33.495ZM291.611 37.17C286.431 37.17 282.056 32.83 282.056 27.685C282.056 22.54 286.431 18.235 291.611 18.235C296.756 18.235 301.096 22.54 301.096 27.685C301.096 32.83 296.756 37.17 291.611 37.17ZM291.611 34.16C294.866 34.16 297.631 31.22 297.631 27.685C297.631 24.185 294.866 21.245 291.611 21.245C288.286 21.245 285.521 24.185 285.521 27.685C285.521 31.22 288.286 34.16 291.611 34.16ZM308.04 22.12C309.195 19.74 311.645 18.235 314.76 18.235V21.245C311.015 21.245 308.355 23.31 308.04 26.46V36.75H304.575V18.655H308.04V22.12Z" fill="black"/>
<defs>
<linearGradient id="paint0_linear_1323_41610" x1="30.9022" y1="6.73056" x2="9.42853" y2="43.9218" gradientUnits="userSpaceOnUse">
<stop stop-color="#FF980E"/>
<stop offset="0.21" stop-color="#FF7139"/>
<stop offset="0.36" stop-color="#FF5854"/>
<stop offset="0.46" stop-color="#FF4F5E"/>
<stop offset="0.69" stop-color="#FF3750"/>
<stop offset="0.86" stop-color="#F92261"/>
<stop offset="1" stop-color="#F5156C"/>
</linearGradient>
<linearGradient id="paint1_linear_1323_41610" x1="30.9022" y1="6.73056" x2="9.42853" y2="43.9218" gradientUnits="userSpaceOnUse">
<stop stop-color="#FFF44F" stop-opacity="0.8"/>
<stop offset="0.09" stop-color="#FFF44F" stop-opacity="0.7"/>
<stop offset="0.75" stop-color="#FFF44F" stop-opacity="0"/>
</linearGradient>
<linearGradient id="paint2_linear_1323_41610" x1="32.6412" y1="49.9064" x2="32.6412" y2="3.82796" gradientUnits="userSpaceOnUse">
<stop stop-color="#3A8EE6"/>
<stop offset="0.24" stop-color="#5C79F0"/>
<stop offset="0.63" stop-color="#9059FF"/>
<stop offset="1" stop-color="#C139E6"/>
</linearGradient>
<linearGradient id="paint3_linear_1323_41610" x1="24.8076" y1="3.66116" x2="43.9578" y2="22.8113" gradientUnits="userSpaceOnUse">
<stop stop-color="#6E008B" stop-opacity="0.5"/>
<stop offset="0.5" stop-color="#C846CB" stop-opacity="0"/>
</linearGradient>
<linearGradient id="paint4_linear_1323_41610" x1="42.1533" y1="27.351" x2="33.1601" y2="36.3442" gradientUnits="userSpaceOnUse">
<stop offset="0.14" stop-color="#6A2BEA" stop-opacity="0"/>
<stop offset="0.34" stop-color="#642DE4" stop-opacity="0.03"/>
<stop offset="0.55" stop-color="#5131D3" stop-opacity="0.12"/>
<stop offset="0.76" stop-color="#3139B7" stop-opacity="0.27"/>
<stop offset="0.98" stop-color="#054490" stop-opacity="0.48"/>
<stop offset="1" stop-color="#00458B" stop-opacity="0.5"/>
</linearGradient>
<linearGradient id="paint5_linear_1323_41610" x1="27.7266" y1="35.0857" x2="30.3338" y2="38.1941" gradientUnits="userSpaceOnUse">
<stop stop-color="#960E18" stop-opacity="0.6"/>
<stop offset="0.19" stop-color="#AC1624" stop-opacity="0.48"/>
<stop offset="0.58" stop-color="#E42C41" stop-opacity="0.16"/>
<stop offset="0.75" stop-color="#FF3750" stop-opacity="0"/>
</linearGradient>
</defs>
</svg>
