<svg width="147" height="95" viewBox="0 0 147 95" fill="none" xmlns="http://www.w3.org/2000/svg">
<path d="M99.5029 13.8605L92.841 10.0446L77.6317 1.33632L77.1585 1.06426C74.6651 -0.354755 71.6084 -0.354755 69.115 1.06426L68.6419 1.33869L47.2556 13.5885L46.7825 13.8629C44.302 15.2831 42.7686 17.9197 42.7607 20.7779V46.3633C42.7693 49.2221 44.3024 51.859 46.7825 53.2808L68.649 65.8026C70.2514 66.7226 72.2959 66.1801 73.2314 64.5866C73.6765 63.822 73.7972 62.911 73.5666 62.0568C73.3359 61.2027 72.7731 60.4763 72.0036 60.0397L50.6173 47.7923C49.9067 47.387 49.4672 46.6326 49.4652 45.8145V21.3268C49.4672 20.5087 49.9067 19.7542 50.6173 19.349L54.4025 17.1796L71.9799 7.09216C72.6913 6.68753 73.5633 6.68753 74.2747 7.09216L95.668 19.3443C96.3754 19.751 96.8126 20.5037 96.8154 21.3197V45.824C96.8135 46.642 96.3739 47.3965 95.6633 47.8017L88.4265 51.9465L84.7738 46.4391C88.4566 43.1771 90.5657 38.4939 90.5675 33.5742C90.5675 24.0332 82.744 16.2712 73.1249 16.2712C63.5059 16.2712 55.6824 24.0332 55.6824 33.5742C55.6824 43.1152 63.5059 50.8772 73.1249 50.8772C75.1316 50.8788 77.1235 50.5347 79.0133 49.8599L84.5609 58.2251C84.6475 58.3528 84.7415 58.4752 84.8424 58.5918L84.9016 58.651C85.0187 58.7773 85.1461 58.8936 85.2825 58.9987C85.3156 59.0248 85.3463 59.0532 85.3818 59.0792C85.5319 59.1874 85.6901 59.2838 85.855 59.3678L85.9685 59.4175C86.116 59.4835 86.2677 59.5396 86.4227 59.5854L86.5268 59.6186C86.703 59.6632 86.8826 59.6925 87.0638 59.7061H87.2129C87.2649 59.7061 87.3146 59.7061 87.3667 59.7061C87.4684 59.7061 87.5701 59.6943 87.6695 59.6848C87.7168 59.6848 87.7617 59.6848 87.8091 59.6848C88.0001 59.6586 88.1885 59.6158 88.3721 59.5571C88.4218 59.5429 88.4691 59.5216 88.5188 59.5026C88.6649 59.4494 88.8072 59.3862 88.9446 59.3134C88.9754 59.2968 89.0108 59.2874 89.0416 59.2684L99.5029 53.2902C101.986 51.8664 103.519 49.2253 103.525 46.3633V20.7756C103.517 17.9173 101.983 15.2808 99.5029 13.8605ZM62.3892 33.5742C62.3528 29.224 64.9453 25.2819 68.9539 23.5918C72.9625 21.9018 77.5948 22.798 80.6839 25.8612C83.7729 28.9243 84.708 33.5489 83.0517 37.5716C81.3955 41.5943 77.4753 44.22 73.1249 44.22C67.2238 44.237 62.4218 39.4753 62.3892 33.5742Z" fill="url(#paint0_linear_1323_41611)"/>
<path d="M99.5029 13.8605L92.841 10.0446L77.6317 1.33632L77.1585 1.06426C74.6651 -0.354755 71.6084 -0.354755 69.115 1.06426L68.6419 1.33869L47.2556 13.5885L46.7825 13.8629C44.302 15.2831 42.7686 17.9197 42.7607 20.7779V46.3633C42.7693 49.2221 44.3024 51.859 46.7825 53.2808L68.649 65.8026C70.2514 66.7226 72.2959 66.1801 73.2314 64.5866C73.6765 63.822 73.7972 62.911 73.5666 62.0568C73.3359 61.2027 72.7731 60.4763 72.0036 60.0397L50.6173 47.7923C49.9067 47.387 49.4672 46.6326 49.4652 45.8145V21.3268C49.4672 20.5087 49.9067 19.7542 50.6173 19.349L54.4025 17.1796L71.9799 7.09216C72.6913 6.68753 73.5633 6.68753 74.2747 7.09216L95.668 19.3443C96.3754 19.751 96.8126 20.5037 96.8154 21.3197V45.824C96.8135 46.642 96.3739 47.3965 95.6633 47.8017L88.4265 51.9465L84.7738 46.4391C88.4566 43.1771 90.5657 38.4939 90.5675 33.5742C90.5675 24.0332 82.744 16.2712 73.1249 16.2712C63.5059 16.2712 55.6824 24.0332 55.6824 33.5742C55.6824 43.1152 63.5059 50.8772 73.1249 50.8772C75.1316 50.8788 77.1235 50.5347 79.0133 49.8599L84.5609 58.2251C84.6475 58.3528 84.7415 58.4752 84.8424 58.5918L84.9016 58.651C85.0187 58.7773 85.1461 58.8936 85.2825 58.9987C85.3156 59.0248 85.3463 59.0532 85.3818 59.0792C85.5319 59.1874 85.6901 59.2838 85.855 59.3678L85.9685 59.4175C86.116 59.4835 86.2677 59.5396 86.4227 59.5854L86.5268 59.6186C86.703 59.6632 86.8826 59.6925 87.0638 59.7061H87.2129C87.2649 59.7061 87.3146 59.7061 87.3667 59.7061C87.4684 59.7061 87.5701 59.6943 87.6695 59.6848C87.7168 59.6848 87.7617 59.6848 87.8091 59.6848C88.0001 59.6586 88.1885 59.6158 88.3721 59.5571C88.4218 59.5429 88.4691 59.5216 88.5188 59.5026C88.6649 59.4494 88.8072 59.3862 88.9446 59.3134C88.9754 59.2968 89.0108 59.2874 89.0416 59.2684L99.5029 53.2902C101.986 51.8664 103.519 49.2253 103.525 46.3633V20.7756C103.517 17.9173 101.983 15.2808 99.5029 13.8605ZM62.3892 33.5742C62.3528 29.224 64.9453 25.2819 68.9539 23.5918C72.9625 21.9018 77.5948 22.798 80.6839 25.8612C83.7729 28.9243 84.708 33.5489 83.0517 37.5716C81.3955 41.5943 77.4753 44.22 73.1249 44.22C67.2238 44.237 62.4218 39.4753 62.3892 33.5742Z" fill="url(#paint1_linear_1323_41611)"/>
<path d="M99.4976 13.8604L92.8357 10.0445L83.5431 4.72631C81.4072 3.50626 78.7949 3.46697 76.6233 4.62221L71.9746 7.09204C72.686 6.68741 73.558 6.68741 74.2694 7.09204L95.6627 19.3442C96.3701 19.7509 96.8073 20.5036 96.8101 21.3196V45.8238C96.8091 46.6422 96.3693 47.3971 95.658 47.8016L88.4212 51.9464L89.5497 53.7514C90.9007 55.9049 93.7119 56.6059 95.9158 55.3388L99.4976 53.2901C101.984 51.8703 103.519 49.2266 103.519 46.3632V20.7755C103.516 17.916 101.981 15.2774 99.4976 13.8604Z" fill="url(#paint2_linear_1323_41611)"/>
<path d="M96.8101 21.3267V33.2145H103.519V20.7754C103.516 17.916 101.981 15.2774 99.4976 13.8604L92.8357 10.0445L83.5431 4.72631C81.4072 3.50626 78.7949 3.46697 76.6233 4.62221L71.9746 7.09204C72.6864 6.68883 73.5576 6.68883 74.2694 7.09204L95.6627 19.3442C96.3723 19.7522 96.8098 20.5082 96.8101 21.3267Z" fill="url(#paint3_linear_1323_41611)"/>
<path opacity="0.9" d="M96.8088 35.1284V45.8239C96.8079 46.6422 96.3681 47.3972 95.6567 47.8017L88.4199 51.9464L89.5484 53.7515C90.8994 55.9049 93.7106 56.6059 95.9146 55.3389L99.4963 53.2902C101.983 51.8703 103.518 49.2267 103.518 46.3633V35.1284H96.8088Z" fill="url(#paint4_linear_1323_41611)"/>
<path opacity="0.9" d="M87.9106 51.1706L84.7713 46.4391C83.0899 47.9405 81.1337 49.1021 79.0107 49.8599L82.3488 54.8966C84.2335 53.6948 86.0874 52.4528 87.9106 51.1706Z" fill="url(#paint5_linear_1323_41611)"/>
<path d="M7.18345 89.5V76.6364H9.93592L13.9242 83.9014L17.8937 76.6364H20.6649V89.5H17.8937V81.486L13.9242 88.751L9.93592 81.486V89.5H7.18345ZM27.8559 89.7247C24.9724 89.7247 22.5569 87.4029 22.5569 84.6504C22.5569 81.8979 24.9724 79.5948 27.8559 79.5948C30.7207 79.5948 33.1174 81.8979 33.1174 84.6504C33.1174 87.4029 30.7207 89.7247 27.8559 89.7247ZM27.8559 87.4216C29.2977 87.4216 30.5148 86.1484 30.5148 84.6504C30.5148 83.1525 29.2977 81.8979 27.8559 81.8979C26.3954 81.8979 25.1783 83.1525 25.1783 84.6504C25.1783 86.1484 26.3954 87.4216 27.8559 87.4216ZM34.4028 89.5V87.5714L39.2711 82.1414H34.5339V79.8195H42.8287V81.7481L37.9604 87.1782H42.8662V89.5H34.4028ZM46.0321 78.4901C45.1896 78.4901 44.5342 77.816 44.5342 76.9922C44.5342 76.2245 45.1896 75.5317 46.0321 75.5317C46.8373 75.5317 47.4926 76.2245 47.4926 76.9922C47.4926 77.816 46.8373 78.4901 46.0321 78.4901ZM44.6465 89.5V79.8195H47.3803V89.5H44.6465ZM49.6332 89.5V76.4117H52.3669V89.5H49.6332ZM54.6193 89.5V76.4117H57.3531V89.5H54.6193ZM63.9308 79.5948C66.4586 79.5948 68.1813 81.1864 68.1813 83.7142V89.5H65.5411V88.5263C64.8483 89.3128 63.7436 89.7247 62.695 89.7247C60.6354 89.7247 59.0438 88.4889 59.0438 86.6352C59.0438 84.7253 60.8226 83.4146 63.0695 83.4146C63.8559 83.4146 64.7173 83.5831 65.5411 83.9014V83.7142C65.5411 82.6844 64.9045 81.7856 63.3129 81.7856C62.4142 81.7856 61.5716 82.0852 60.8039 82.4784L59.8864 80.6621C61.2533 79.9693 62.5827 79.5948 63.9308 79.5948ZM63.3129 87.8335C64.3615 87.8335 65.3539 87.3467 65.5411 86.4479V85.5492C64.9232 85.3245 64.2117 85.1934 63.4627 85.1934C62.4703 85.1934 61.6839 85.7739 61.6839 86.5603C61.6839 87.3467 62.3767 87.8335 63.3129 87.8335ZM75.8782 89.5V76.6364H77.7693L82.2819 85.0436L86.7944 76.6364H88.6856V89.5H86.7944V80.3438L82.2819 88.751L77.7693 80.3438V89.5H75.8782ZM95.8564 89.7247C93.0852 89.7247 90.7447 87.4029 90.7447 84.6504C90.7447 81.8979 93.0852 79.5948 95.8564 79.5948C98.6089 79.5948 100.931 81.8979 100.931 84.6504C100.931 87.4029 98.6089 89.7247 95.8564 89.7247ZM95.8564 88.1144C97.5978 88.1144 99.077 86.5416 99.077 84.6504C99.077 82.778 97.5978 81.2051 95.8564 81.2051C94.0776 81.2051 92.5984 82.778 92.5984 84.6504C92.5984 86.5416 94.0776 88.1144 95.8564 88.1144ZM107.623 79.5948C109.757 79.5948 111.255 81.149 111.255 83.3397V89.5H109.439V83.658C109.439 82.2162 108.522 81.2051 107.211 81.2051C105.863 81.2051 104.702 82.0852 104.552 83.2274V89.5H102.698V79.8195H104.552V81.2239C105.133 80.2689 106.312 79.5948 107.623 79.5948ZM114.424 78.2092C113.787 78.2092 113.3 77.685 113.3 77.0858C113.3 76.5053 113.787 75.9811 114.424 75.9811C115.023 75.9811 115.528 76.5053 115.528 77.0858C115.528 77.685 115.023 78.2092 114.424 78.2092ZM113.487 89.5V79.8195H115.341V89.5H113.487ZM122.153 87.7586L122.827 89.0319C122.303 89.4626 121.591 89.7247 120.898 89.7247C119.4 89.7247 118.352 88.6387 118.352 87.0846V81.3924H116.891V79.8195H118.352V77.1607H120.168V79.8195H122.452V81.3924H120.168V86.9535C120.168 87.6276 120.617 88.1144 121.16 88.1144C121.572 88.1144 121.947 87.9646 122.153 87.7586ZM128.902 89.7247C126.131 89.7247 123.791 87.4029 123.791 84.6504C123.791 81.8979 126.131 79.5948 128.902 79.5948C131.655 79.5948 133.977 81.8979 133.977 84.6504C133.977 87.4029 131.655 89.7247 128.902 89.7247ZM128.902 88.1144C130.644 88.1144 132.123 86.5416 132.123 84.6504C132.123 82.778 130.644 81.2051 128.902 81.2051C127.124 81.2051 125.644 82.778 125.644 84.6504C125.644 86.5416 127.124 88.1144 128.902 88.1144ZM137.692 81.6732C138.31 80.4 139.62 79.5948 141.287 79.5948V81.2051C139.283 81.2051 137.86 82.3099 137.692 83.9951V89.5H135.838V79.8195H137.692V81.6732Z" fill="black"/>
<defs>
<linearGradient id="paint0_linear_1323_41611" x1="85.3332" y1="8.44536" x2="55.5087" y2="60.0998" gradientUnits="userSpaceOnUse">
<stop stop-color="#FF980E"/>
<stop offset="0.21" stop-color="#FF7139"/>
<stop offset="0.36" stop-color="#FF5854"/>
<stop offset="0.46" stop-color="#FF4F5E"/>
<stop offset="0.69" stop-color="#FF3750"/>
<stop offset="0.86" stop-color="#F92261"/>
<stop offset="1" stop-color="#F5156C"/>
</linearGradient>
<linearGradient id="paint1_linear_1323_41611" x1="85.3332" y1="8.44536" x2="55.5087" y2="60.0998" gradientUnits="userSpaceOnUse">
<stop stop-color="#FFF44F" stop-opacity="0.8"/>
<stop offset="0.09" stop-color="#FFF44F" stop-opacity="0.7"/>
<stop offset="0.75" stop-color="#FFF44F" stop-opacity="0"/>
</linearGradient>
<linearGradient id="paint2_linear_1323_41611" x1="87.747" y1="68.4119" x2="87.747" y2="4.41403" gradientUnits="userSpaceOnUse">
<stop stop-color="#3A8EE6"/>
<stop offset="0.24" stop-color="#5C79F0"/>
<stop offset="0.63" stop-color="#9059FF"/>
<stop offset="1" stop-color="#C139E6"/>
</linearGradient>
<linearGradient id="paint3_linear_1323_41611" x1="76.8669" y1="4.18237" x2="103.464" y2="30.7798" gradientUnits="userSpaceOnUse">
<stop stop-color="#6E008B" stop-opacity="0.5"/>
<stop offset="0.5" stop-color="#C846CB" stop-opacity="0"/>
</linearGradient>
<linearGradient id="paint4_linear_1323_41611" x1="100.958" y1="37.0849" x2="88.4673" y2="49.5753" gradientUnits="userSpaceOnUse">
<stop offset="0.14" stop-color="#6A2BEA" stop-opacity="0"/>
<stop offset="0.34" stop-color="#642DE4" stop-opacity="0.03"/>
<stop offset="0.55" stop-color="#5131D3" stop-opacity="0.12"/>
<stop offset="0.76" stop-color="#3139B7" stop-opacity="0.27"/>
<stop offset="0.98" stop-color="#054490" stop-opacity="0.48"/>
<stop offset="1" stop-color="#00458B" stop-opacity="0.5"/>
</linearGradient>
<linearGradient id="paint5_linear_1323_41611" x1="80.9246" y1="47.8275" x2="84.5457" y2="52.1447" gradientUnits="userSpaceOnUse">
<stop stop-color="#960E18" stop-opacity="0.6"/>
<stop offset="0.19" stop-color="#AC1624" stop-opacity="0.48"/>
<stop offset="0.58" stop-color="#E42C41" stop-opacity="0.16"/>
<stop offset="0.75" stop-color="#FF3750" stop-opacity="0"/>
</linearGradient>
</defs>
</svg>
