<svg width="375" height="375" fill="none" xmlns="http://www.w3.org/2000/svg"><g clip-path="url(#a)"><path d="m235.683 242.58-8.192 76.621-25.085 12.238-59.136-1.219-42.167-18.671 5.476-22.406-10.235-26.077-36.887-55.613-3.317-76.577 53.445-51.59 62.791-9.496 34.501-16.638 16.66 2.999 17.51 32.315 101.243 13.379 21.803 41.379-.554 20.91-97.929-2.48-7.431 17.24 90.239 7.507-21.067 22.922-63.784 7.493-27.884 25.764Z" fill="#FF1A00"/><path d="m226.555 91.337 10.743 11.328-10.15 5.775-15.284-2.265-6.785-7.154 2.722-6.206 18.754-1.478Z" fill="#fff"/><path d="M117.384 64.239c-7.338 2.493-14.624 6.015-21.859 10.567-5.873 3.877-11.527 8.471-16.964 13.783a128.032 128.032 0 0 0-11.444 11.32l-3.93 5.115c-9.552 11.529-20.477 27.133-32.774 46.814-11.87 18.505-21.143 34.391-27.816 47.657 1.985-.342 4.552-1.776 7.702-4.302 2.578-1.829 4.547-3.082 5.909-3.757l32.555-20.485-8.638 12.819c-8.472 12.506-14.573 22.071-18.305 28.694-6.705 11.446-10.665 20.752-11.882 27.916 2.339-1.757 6.668-5.556 12.988-11.398 6.32-5.842 11.055-10.026 14.204-12.551 5.415-4.522 9.76-7.411 13.034-8.668l-4.708 7.703c-5.707 9.576-9.891 16.858-12.552 21.849-4.73 8.494-7.672 15.137-8.826 19.931.312.166.577.608.795 1.326l.219.717 2.93-3.243c6.435-7.183 11.596-12.542 15.484-16.076 6.486-6.154 11.45-10.015 14.89-11.584-12.37 25.451-18.462 43.636-18.276 54.555 3.597-4.491 8.989-10.377 16.177-17.659 7.188-7.282 12.798-12.451 16.831-15.507-.135 2.132-1.091 5.428-2.87 9.889-1.278 3.524-2.099 6.191-2.463 8-.364 1.81-1.434 4.944-3.212 9.405-1.778 4.46-2.973 7.829-3.587 10.106-.894 3.93-1.06 7.247-.499 9.951 5.063-9.118 11.86-18.11 20.394-26.977-.228 2.683-1.04 6.457-2.432 11.323-1.3 4.315-2.137 7.575-2.51 9.779-.729 3.619-.859 7.055-.391 10.31 1.424-3.046 3.997-6.18 7.718-9.403 2.266-1.995 5.774-4.63 10.524-7.904l3.508-2.635-.998 1.871c-4.927 6.986-8.529 13.178-10.805 18.574l2.76-1.232c.405-.384 1.517-.592 3.336-.622l2.26-.296-10.056 8.154c47.863 34.571 101.117 40.064 159.761 16.479l-7.717-8.628c1.081-5.033 1.061-13.258-.061-24.676-1.122-11.418-1.252-20.002-.389-25.752 1.352-9.296 5.234-17.14 11.648-23.533l7.437-7.75c4.719-5.094 8.523-8.472 11.413-10.135 4.012-2.265 9.942-3.807 17.79-4.626 1.985-.343 6.065-.669 12.239-.979 9.022-.392 15.674-.847 19.956-1.366 7.609-.746 13.18-2.179 16.714-4.299l3.041-2.884c7.005-7.88 12.52-14.653 16.543-20.319 6.101-.549 10.279-1.624 12.535-3.224 2.256-1.601 3.867-4.247 4.834-7.938l.265-5.568c.666-13.269 1.394-22.898 2.184-28.887l-1.278-5.491c-3.201-4.514-7.244-13.084-12.129-25.709-2.806-7.509-4.713-11.632-5.721-12.371-4.417-3.36-11.033-5.79-19.847-7.291-5.509-.938-14.5-1.731-26.973-2.38-14.364-.858-25.008-1.932-31.93-3.224-11.808-1.897-21.406-5.118-28.796-9.665.094-6.561-2.359-12.479-7.358-17.753-3.773-3.817-9.053-7.438-15.84-10.861-7.286-2.488-15.399-2.111-24.338 1.13-5.665 1.984-12.878 5.746-21.641 11.286-7.608.746-18.761 1.002-33.458.768-7.588-.044-13.357-.119-17.306-.224-1.986.342-4.174.877-6.564 1.604l-1.435.437Zm4.879 17.33c5.26-1.6 13.347-2.49 24.26-2.674 6.964-.289 12.193-.703 15.685-1.243.052 1.03-.434 2.223-1.458 3.58-1.024 1.356-1.546 2.43-1.567 3.22l-.78 2.589c-.592 1.487-.941 2.703-1.044 3.65-.104.946.228 1.825.997 2.636l10.166-7.796c2.817-1.902 6.923-4.718 12.317-8.45 6.85-4.957 12.079-8.377 15.685-10.258 6.258-3.47 12.245-5.683 17.962-6.638l11.989 8.505c-7.193-3.04-14.313-2.834-21.36.616-4.324 2.1-10.29 6.527-17.899 13.284-6.798 5.987-12.001 9.921-15.607 11.802-2.485 1.278-6.138 3.435-10.961 6.469-3.701 2.432-6.434 4.178-8.201 5.238 8.533 3.154 18.116 2.461 28.75-2.08 1.808 3.37 5.214 6.842 10.219 10.415 5.005 3.574 9.289 5.21 12.855 4.91-.676-1.362-2.258-3.56-4.748-6.592-2.489-3.032-4.144-5.468-4.965-7.309-1.736-3.131-2.167-6.266-1.294-9.406l2.573-3.134c3.337-3.628 5.972-6.128 7.905-7.5 3.461-2.36 6.834-2.863 10.119-1.51-2.318.967-5.026 3.227-8.123 6.783l-2.324 2.666c-1.143 1.393-1.65 3.377-1.52 5.95.13 2.574.579 4.266 1.348 5.078 3.129 4.275 8.991 6.803 17.587 7.586 9.625.731 20.892-.866 33.801-4.792-1.008-.739-3.593-2.37-7.756-4.893-4.163-2.523-7.096-4.44-8.801-5.75-2.952-1.978-4.526-3.72-4.724-5.228 9.355 4.995 21.037 8.628 35.048 10.9 8.191 1.167 20.102 2.117 35.735 2.851 9.24.325 15.752.696 19.536 1.114 5.986.792 10.383 1.937 13.189 3.436.603 1.123-.151 4.227-2.261 9.311-1.019 2.661-1.621 4.543-1.809 5.646-.447 1.965-.322 3.233.374 3.806-.208 1.892 1.429 4.269 4.911 7.129 1.778 1.55 5.462 4.219 11.054 8.006l1.512 1.108c-2.536-5.762-4.043-10.073-4.521-12.932-.478-2.86-.106-4.214 1.115-4.063 1.222.151 2.765 1.576 4.631 4.275 1.865 2.699 3.261 5.999 4.185 9.898 1.383 4.545 1.892 9.225 1.528 14.039l-13.424.947c-11.455 2.7-22.041 3.96-31.759 3.779-8.544.247-17.452-.702-26.723-2.847-5.894-1.344-15.191-4.004-27.892-7.98l-12.941-3.904c-7.764-2.343-19.389-6.646-34.876-12.912l-6.221-2.419-20.003-1.364c4.583 3.048 10.378 6.643 17.383 10.784 6.382 3.808 10.462 6.487 12.239 8.037 2.546 2.361 4.035 5.11 4.466 8.245.432 3.135-.153 8.082-1.754 14.841l-9.479-9.269-8.512-18.97c.28 10.368 1.127 18.734 2.54 25.098 2.141 8.757 5.95 15.699 11.427 20.827 6.247 5.94 14.962 9.692 26.146 11.255l18.694-2.941c-6.569-2.706-11.21-5.084-13.923-7.133-4.032-2.955-6.116-6.372-6.251-10.25 5.768 6.085 17.092 9.827 33.972 11.226 9.386.804 23.101.814 41.145.03l9.261-.465c4.022.344 7.437 1.266 10.243 2.764-1.237 1.944-2.463 3.493-3.68 4.647-.81.769-2.201 1.78-4.17 3.032-1.97 1.253-3.599 2.336-4.888 3.251l-11.023-.175c-9.407-.014-16.158-.313-20.253-.896-7.016-.741-12.228-2.422-15.637-5.044 1.392 1.145-1.326 3.8-8.155 7.968-4.012 2.266-11.07 6.111-21.173 11.535-6.569 3.305-10.737 5.487-12.504 6.547-2.89 1.663-3.103 2.25-.64 1.762-8.44 2.306-17.883 2.173-28.329-.399-9.271-2.145-18.381-5.908-27.33-11.287l-3.555-.094c1.237 4.066 3.825 7.852 7.764 11.357 2.234 2.195 6.088 5.204 11.56 9.028 5.472 3.823 9.29 6.712 11.451 8.668l15.482 1.955-2.931 3.243c-3.098 3.556-5.265 6.305-6.502 8.25-2.38 3.337-3.888 6.539-4.522 9.606l-.062 2.371c-.541 2.516-.749 4.409-.624 5.678.104 2.058.732 3.696 1.886 4.913 3.347-7.028 9.439-13.192 18.274-18.492l-3.01 10.714c1.788 4.16 2.494 10.348 2.12 18.563a26.236 26.236 0 0 0-2.885-3.043c-12.691-1.367-22.596-3.45-29.716-6.249 2.89 4.347 7.478 8.701 13.766 13.06 5.353 3.859 11.158 7.059 17.415 9.598a56.543 56.543 0 0 1-1.793 9.561c-10.425-3.362-18.408-6.422-23.948-9.179 1.85 1.789 4.147 4.618 6.891 8.487 3.898 5.086 6.927 8.607 9.089 10.563-32.523 7.278-61.444 5.36-86.764-5.754l17.806-18.742c-2.245 1.205-7.463 4.229-15.654 9.072l-9.885 6.142-3.383-2.106 7.297-6.923c5.915-5.458 10.135-9.616 12.661-12.474 4.48-5.021 7-9.185 7.562-12.492l-1.933 1.372-21.548 7.729c-1.902-2.818-2.884-6.047-2.946-9.687-.176-2.298.187-5.61 1.092-9.935.904-4.326 1.185-7.482.842-9.468-.467-3.255-2.213-5.99-5.238-8.206-11.714-8.458-20.48-16.244-26.3-23.359-8.129-9.549-13.195-19.767-15.2-30.655l.576.609c2.765 3.078 5.046 4.998 6.844 5.757l-1.138-6.317c-.83-4.451-1.179-7.742-1.044-9.874l.11.359c2.889 4.348 5.258 7.416 7.109 9.205 3.076 3.245 6.46 5.352 10.149 6.321l.14-.827c-6.984-10.942-10.678-22.231-11.083-33.867-.603-13.144 3.254-24.508 11.57-34.093-1.289.915-3.893 2.23-7.811 3.944-5.925 2.847-10.462 5.534-13.612 8.059.406-.384.64-1.762.702-4.133.52-7.736 1.85-13.236 3.992-16.501 1.144-1.393 2.464-3.493 3.96-6.3 1.903-3.192 3.628-5.676 5.177-7.454 4.356-6.29 8.477-11.202 12.365-14.736 5.197-5.239 11.558-9.656 19.084-13.252a48.272 48.272 0 0 1 5.628-2.103l1.434-.437Zm10.508 15.227c-6.694 2.036-13.429 5.653-20.206 10.85l-3.571 5.005c-2.11 5.085-3.436 8.885-3.976 11.401-1.372 4.076-1.752 7.98-1.139 11.714l1.512 1.108c1.944-4.773 5.349-9.466 10.213-14.082 1.31 4.306 3.664 7.967 7.062 10.984 3.399 3.016 7.338 5.019 11.818 6.009l1.076-.327c-2.099-4.327-3.656-9.015-4.669-14.064-1.013-5.048-1.301-9.86-.865-14.436 1.237-1.944 3.477-4.454 6.721-7.531 3.575-3.7 5.945-6.643 7.109-8.826-3.637.061-7.333.793-11.085 2.195Zm78.158-.644c1.913-.581 3.815-.768 5.706-.56-1.216 1.154-1.772 2.76-1.668 4.82.052 1.029.307 1.867.764 2.511-3.212-1.113-5.291-3.225-6.236-6.335l1.434-.436Zm-58.342 18.136c.987 1.529 3.461 3.651 7.421 6.367l4.427 2.965c-6.548 2.514-13.32 6.011-20.315 10.49 1.486.594 3.547 1.143 6.181 1.648 2.635.505 4.576 1.091 5.824 1.757l-5.083 3.897c-4.511 3.202-7.817 5.644-9.917 7.328-3.243 3.077-5.898 6.367-7.967 9.871l2.011.172c6.975-3.689 14.664-6.746 23.068-9.171 8.403-2.426 16.685-3.964 24.844-4.617l.858-1.044-13.985-13.778 12.754-7.015c-12.015-6.014-22.056-8.971-30.121-8.87Zm73.247-16.79c2.422 1.093 4.797 2.462 7.125 4.105a15.381 15.381 0 0 1-7.889 2.4c.977-1.081 1.45-2.532 1.419-4.352l-.655-2.152Zm-19.973 15.483c5.945 8.383 11.859 11.941 17.742 10.675 8.326-.965 15.773-3.099 22.343-6.404-3.378-.801-8.513-.938-15.404-.41-5.696.164-9.885.132-12.567-.098-4.573-.438-8.611-1.693-12.114-3.763Zm-76.071 47.438c-4.262 5.739-6.619 11.943-7.071 18.614-.453 6.67.818 13.209 3.811 19.615.987 1.529 1.725 3.526 2.214 5.991.197 1.507.337 3.686.42 6.535.281 4.357.831 7.456 1.652 9.297.946 3.11 2.703 5.45 5.27 7.021 7.078 4.38 16.609 8.668 28.593 12.862l-1.59-2.652c-11.35-7.262-19.54-14.44-24.57-21.533l6.75.298c9.553.492 16.709.406 21.469-.258-2.161-1.955-5.846-4.624-11.053-8.005-9.168-6.097-15.399-11.126-18.693-15.089-5.675-6.637-8.408-13.906-8.2-21.809-.364-1.196-.083-2.849.842-4.96.946-2.901.998-4.876.156-5.927Zm143.173 7.021c.478-.146 1.112-.208 1.902-.187 2.058-.103 3.279.048 3.664.454-.572.696-1.334 1.843-2.285 3.439-.951 1.595-1.749 2.622-2.393 3.079l-.296-2.262c-.655-2.152-.852-3.66-.592-4.523Zm16.635 3.172c.956-.291 2.178-.14 3.664.454l.358-.11-3.243 6.083-1.496-6.209.717-.218Zm11.958.675 4.241 1.062c-.239.072-.702 1.128-1.388 3.166-.686 2.038-1.107 3.015-1.263 2.932-.156-.084-.452-.843-.888-2.278-.946-3.109-1.18-4.737-.702-4.882Zm12.645 1.642 3.445-.264c-.166.312-.39 1.294-.67 2.948-.635 3.067-1.549 4.782-2.745 5.146l.562-3.307-.982-3.229c-.218-.717-.089-1.149.39-1.294Zm12.129-1.338 4.631-.232-2.261 9.311-2.37-9.079Zm13.206-1.664c.239-.073 1.268-.124 3.087-.155l1.653.281-4.179 5.583c-.894-2.08-1.39-3.497-1.489-4.251-.098-.754.211-1.24.928-1.458Zm13.923-1.883c1.195-.363 2.105-.378 2.729-.045.363 1.195-.037 2.885-1.201 5.068-.666 1.248-1.009 2.267-1.029 3.057l-.655-2.153c-.249-2.537-.795-4.331-1.637-5.381l1.793-.546Z" fill="#000"/></g><defs><clipPath id="a"><path fill="#fff" d="M0 0h375v375H0z"/></clipPath></defs></svg>
