<svg width="800" height="693" viewBox="0 0 800 693" fill="none" xmlns="http://www.w3.org/2000/svg">
<g style="mix-blend-mode:plus-darker">
<path fill-rule="evenodd" clip-rule="evenodd" d="M725.613 0.710693H77.1952C35.0895 0.710693 0 32.0273 0 72.8705V305.671C0 516.69 179.644 692.322 401.402 692.322C621.752 692.322 800 516.69 800 305.671V72.8705C800 32.0273 766.316 0.710693 725.613 0.710693Z" fill="black" fill-opacity="0.75"/>
</g>
<path d="M437.89 463.591L628.771 289.336C648.417 268.916 648.417 234.879 628.771 213.096C609.119 194.035 574.036 191.314 554.384 213.096L401.402 353.319L251.23 213.096C230.173 191.314 195.083 194.035 174.034 213.096C151.578 234.879 154.383 268.916 174.034 289.336L362.108 463.591C373.336 474.482 387.369 478.574 401.402 478.574C412.63 478.574 428.068 474.482 437.89 463.591Z" fill="white"/>
</svg>
