<svg width="135" height="127" fill="none" xmlns="http://www.w3.org/2000/svg"><path d="M97.273 115.051H52.41a4.708 4.708 0 0 1-4.712-4.714V42.584a4.707 4.707 0 0 1 4.712-4.713h44.876A4.707 4.707 0 0 1 102 42.584v67.753a4.72 4.72 0 0 1-4.726 4.714Z" fill="#C3C4FD"/><path d="M92.456 109.787H47.594a4.707 4.707 0 0 1-4.711-4.713V37.321a4.707 4.707 0 0 1 4.711-4.714h44.877a4.707 4.707 0 0 1 4.712 4.714v67.753a4.72 4.72 0 0 1-4.727 4.713Z" fill="#fff" stroke="#333336" stroke-width="1.125" stroke-miterlimit="10"/><path d="M78.851 55.625a3.47 3.47 0 0 0-3.196-2.121 3.46 3.46 0 0 0-2.883 1.525 3.501 3.501 0 0 0-.46 1.004h-4.878a2.778 2.778 0 0 0-.324-.795l1.745-1.745a3.493 3.493 0 0 0 3.081.188 3.39 3.39 0 0 0 1.525-1.253 3.472 3.472 0 0 0-.93-4.818 3.47 3.47 0 0 0-1.942-.595 3.463 3.463 0 0 0-3.479 3.469c0 .48.094.94.272 1.358.052.115.105.22.157.324l-1.766 1.766a3.526 3.526 0 0 0-3.04-.157 3.472 3.472 0 0 0-2.12 3.197 3.466 3.466 0 0 0 3.468 3.48c.48 0 .94-.093 1.348-.271a3.39 3.39 0 0 0 1.525-1.254 3.13 3.13 0 0 0 .46-1.003h4.877c.042.146.084.282.147.418.052.115.104.22.156.324l-1.765 1.766a3.495 3.495 0 0 0-1.682-.429 3.46 3.46 0 0 0-2.883 1.526 3.473 3.473 0 0 0-.595 1.944 3.466 3.466 0 0 0 3.468 3.48 3.46 3.46 0 0 0 2.883-1.526 3.447 3.447 0 0 0 .595-1.944c0-.48-.104-.94-.271-1.348-.063-.125-.126-.261-.188-.376l1.744-1.745a3.493 3.493 0 0 0 3.081.188 3.39 3.39 0 0 0 1.526-1.254 3.447 3.447 0 0 0 .595-1.944 2.96 2.96 0 0 0-.25-1.379Zm-9.745-5.768c.125-.282.323-.533.574-.7.25-.178.564-.272.898-.272a1.598 1.598 0 0 1 1.337.71c.167.252.272.565.272.889 0 .23-.042.439-.125.627a1.593 1.593 0 0 1-.585.7c-.251.178-.564.272-.888.272-.23 0-.439-.053-.627-.126a1.62 1.62 0 0 1-.71-.585 1.549 1.549 0 0 1-.272-.899c0-.219.042-.417.126-.616ZM65.565 57.6a1.642 1.642 0 0 1-.575.7 1.57 1.57 0 0 1-.898.272c-.23 0-.44-.052-.627-.126a1.62 1.62 0 0 1-.71-.585 1.548 1.548 0 0 1-.272-.898c0-.22.042-.429.125-.627.126-.282.324-.533.575-.7.25-.178.564-.272.898-.272.22 0 .439.042.627.125.292.126.533.324.71.585a1.62 1.62 0 0 1 .146 1.526Zm5.076 6.49a1.641 1.641 0 0 1-.575.7 1.571 1.571 0 0 1-.898.27c-.23 0-.439-.051-.627-.124a1.62 1.62 0 0 1-.71-.586 1.549 1.549 0 0 1-.271-.898c0-.22.041-.429.125-.627.125-.282.324-.533.574-.7.262-.178.564-.272.899-.272.22 0 .439.042.626.125.293.126.533.324.71.585a1.62 1.62 0 0 1 .147 1.526Zm6.487-6.49a1.642 1.642 0 0 1-.575.7 1.57 1.57 0 0 1-.898.272c-.23 0-.439-.052-.627-.126a1.62 1.62 0 0 1-.71-.585 1.548 1.548 0 0 1-.272-.898c0-.22.042-.429.126-.627.125-.282.323-.533.574-.7.25-.178.564-.272.898-.272.22 0 .44.042.627.125.293.126.533.324.71.585a1.62 1.62 0 0 1 .147 1.526Z" fill="#333336"/><path d="m75.186 96.516-12.706-.073c-3.268-.015-5.89-2.681-5.874-5.95.014-3.27 2.68-5.892 5.948-5.878l12.706.074c3.269.015 5.89 2.68 5.875 5.95-.015 3.27-2.68 5.892-5.949 5.877Z" fill="#84FCBF" stroke="#333336" stroke-width="1.125" stroke-miterlimit="10"/><path d="M81.703 94.728a5.908 5.908 0 0 0 0-8.353 5.902 5.902 0 0 0-8.35 0 5.908 5.908 0 0 0 0 8.353 5.902 5.902 0 0 0 8.35 0Z" fill="#fff" stroke="#333336" stroke-width="1.125" stroke-miterlimit="10"/><path d="M36.765 38.927H4.173a.795.795 0 0 1-.798-.8v-21.39c0-.443.354-.798.798-.798h32.592c.443 0 .797.355.797.799v21.39c0 .444-.354.8-.797.8ZM3.605 19.759h34.188" stroke="#333336" stroke-width="1.125" stroke-miterlimit="10"/><path d="M18.457 23.827h13.93M18.457 27.877h13.93M18.457 31.945h13.93" stroke="#333336" stroke-width="1.125" stroke-miterlimit="10" stroke-linecap="round"/><path d="M13.89 30.97a4.057 4.057 0 0 0 0-5.729 4.034 4.034 0 0 0-5.715 0 4.057 4.057 0 0 0 0 5.729 4.034 4.034 0 0 0 5.714 0Z" stroke="#333336" stroke-width="1.125" stroke-miterlimit="10"/><path d="M10.322 29.885v-3.518l2.322 1.759-2.322 1.759ZM33.175 71.908H19.688v13.52h13.487v-13.52Z" stroke="#333336" stroke-width="1.125" stroke-miterlimit="10" stroke-linejoin="round"/><path d="m24.402 78.89 1.808 1.794 2.694-3.607" stroke="#333336" stroke-width="1.125" stroke-miterlimit="10" stroke-linecap="round" stroke-linejoin="round"/><path d="M43.046 52.52c-3.597-4.915-14.333-1.255-19.637-3.524-4.079-1.75-6.864-5.605-6.49-10.128M42.75 7.782h23.03v8.123H48.933l-2.985 2.565v-2.565H42.75V7.782Z" stroke="#333336" stroke-width="1.125" stroke-miterlimit="10"/><path d="M131.473 85.701a.58.58 0 0 0-.49-.171l-3.922.466-.024-.295a4.99 4.99 0 0 0-1.912-3.409 5.01 5.01 0 0 0-3.775-1.055 4.98 4.98 0 0 0-3.408 1.913c-.833 1.08-1.225 2.428-1.054 3.777l.049.295-3.064.368-.662-3.017a.608.608 0 0 0-.637-.466l-1.789.22a.641.641 0 0 0-.393.221.556.556 0 0 0-.122.442c.049.319.319.54.662.515l1.274-.147.687 3.164c.711 3.286 1.765 8.29 1.789 8.338.196.81.687 1.496 1.422 1.938l.27.147-.221.27c-.466.785-.466 1.766.049 2.526.515.785 1.373 1.202 2.304 1.079a2.32 2.32 0 0 0 1.814-1.251 2.346 2.346 0 0 0 .025-2.207l-.196-.392 5.711-.687-.098.417c-.172.76.024 1.545.564 2.134.539.588 1.274.882 2.059.784a2.311 2.311 0 0 0 1.593-.907 2.414 2.414 0 0 0 .49-1.766 2.313 2.313 0 0 0-.907-1.594 2.41 2.41 0 0 0-1.765-.49l-9.878 1.201a1.98 1.98 0 0 1-1.937-.956l-.22-.368 14.462-2.624a.575.575 0 0 0 .466-.516l.931-7.406a.505.505 0 0 0-.147-.49Zm-3.529 12.312a1.251 1.251 0 0 1 1.372 1.08c.049.318-.049.637-.245.907-.196.269-.49.417-.809.466h-.147c-.27 0-.539-.098-.76-.27-.269-.196-.417-.49-.466-.81-.098-.662.393-1.275 1.055-1.373Zm-10.688 1.668c.196-.27.49-.417.809-.466a1.252 1.252 0 0 1 1.373 1.079 1.252 1.252 0 0 1-1.079 1.373h-.147a1.242 1.242 0 0 1-1.226-1.079 1.246 1.246 0 0 1 .27-.907Zm4.241-17.29c2.157-.27 4.118 1.274 4.387 3.433a4.011 4.011 0 0 1-.808 2.918 4.05 4.05 0 0 1-2.623 1.496c-.172.025-.319.025-.491.025-1.961 0-3.676-1.472-3.922-3.458-.245-2.183 1.3-4.145 3.457-4.415Zm8.113 10.619-14.045 2.55-1.447-6.818 3.163-.392.098.196a5.144 5.144 0 0 0 5.196 2.82 5.083 5.083 0 0 0 4.388-3.973l.049-.22 3.383-.417-.785 6.254Z" fill="#333336"/><path d="M97.385 82.314c-.553-.307 1.973-8.821 10.282-16.585 8.036-7.51 13.112-13.142 9.618-16.361-4.46-4.108-15.938 2.114-19.9 4.604" stroke="#333336" stroke-width="1.125"/><path d="m120.246 86.928 1.006.785a.555.555 0 0 0 .441.122.636.636 0 0 0 .392-.22l1.569-2.012a.556.556 0 0 0 .122-.441.637.637 0 0 0-.22-.393.558.558 0 0 0-.442-.122.636.636 0 0 0-.392.22l-1.225 1.546-.54-.417a.6.6 0 0 0-.367-.123h-.074a.636.636 0 0 0-.392.22.56.56 0 0 0-.123.442.828.828 0 0 0 .245.393Z" fill="#333336"/><path d="M113.906 92.245c-1.383-.418-4.451.559-5.833 5.026-1.245 4.02-3.501 8.096-10.76 6.7" stroke="#333336" stroke-width="1.125" stroke-linecap="round"/></svg>
