<svg id="icon-sprite">

    <symbol id="icon-encryption" viewBox="0 0 29 40">
      <path d="M14.5,40C6.5,40,0,33.5,0,25.5C0,17.5,6.5,11,14.5,11c8,0,14.5,6.5,14.5,14.5C29,33.5,22.5,40,14.5,40z M14.5,12.2c-7.3,0-13.3,6-13.3,13.3c0,7.3,6,13.3,13.3,13.3c7.3,0,13.3-6,13.3-13.3C27.8,18.2,21.8,12.2,14.5,12.2z"/>
      <path d="M14.5,28.8c-0.9,0-1.7-0.3-2.3-1c-0.6-0.6-1-1.4-1-2.3c0-0.9,0.3-1.7,1-2.3c1.3-1.3,3.4-1.3,4.7,0 c1.3,1.3,1.3,3.4,0,4.7l0,0c0,0,0,0,0,0l0,0C16.2,28.4,15.4,28.8,14.5,28.8z M14.5,23.4c-0.5,0-1.1,0.2-1.5,0.6 c-0.4,0.4-0.6,0.9-0.6,1.5c0,0.6,0.2,1.1,0.6,1.5c0.8,0.8,2.1,0.8,2.9,0v0c0.8-0.8,0.8-2.1,0-2.9C15.6,23.6,15,23.4,14.5,23.4z"/>
      <rect x="15.9" y="22" transform="matrix(0.7126 -0.7016 0.7016 0.7126 -10.8593 18.6312)" width="2.7" height="1.2"/>
      <path d="M22.5,13.9h-1.2V7.7c0-3.6-3-6.5-6.8-6.5c-3.7,0-6.8,2.9-6.8,6.5l0,6l-1.2,0l0-6c0-4.3,3.6-7.7,8-7.7 s8,3.5,8,7.7V13.9z"/>
      <rect x="22.8" y="24.9" class="st1" width="1.6" height="1.2"/>
      <rect x="4.5" y="24.9" class="st1" width="1.6" height="1.2"/>
      <rect x="13.9" y="33.8" class="st1" width="1.2" height="1.6"/>
      <rect x="13.9" y="15.4" class="st1" width="1.2" height="1.6"/>
      <rect x="20.3" y="18.1" transform="matrix(0.7075 -0.7067 0.7067 0.7075 -7.0728 20.412)" width="1.6" height="1.2"/>
      <rect x="7" y="31.5" transform="matrix(0.7075 -0.7067 0.7067 0.7075 -20.4006 14.8871)" width="1.6" height="1.2"/>
      <rect x="20.5" y="31.3" transform="matrix(0.7068 -0.7074 0.7074 0.7068 -16.5067 24.3501)" width="1.2" height="1.6"/>
      <rect x="7.2" y="18" transform="matrix(0.7071 -0.7071 0.7071 0.7071 -10.9789 10.9962)" width="1.2" height="1.6"/>
    </symbol>

    <symbol id="icon-teachtheweb" viewBox="0 0 30 30">
      <path d="M27.5,15c0-6.8-5.4-12.3-12.2-12.5c-0.1,0-0.1,0-0.2,0c0,0,0,0,0,0c0,0,0,0,0,0c0,0,0,0,0,0c0,0,0,0-0.1,0 C8.1,2.5,2.5,8.1,2.5,15S8.1,27.5,15,27.5c0,0,0,0,0.1,0c0,0,0,0,0,0c0,0,0,0,0,0c0,0,0,0,0,0c0.1,0,0.1,0,0.2,0 C22.1,27.3,27.5,21.8,27.5,15z M20.8,15c0,6.4-2.5,11.5-5.5,11.7c-0.1,0-0.2,0-0.2,0c-3.1,0-5.7-5.3-5.7-11.7 c0-6.4,2.6-11.7,5.7-11.7c0.1,0,0.2,0,0.2,0C18.4,3.5,20.8,8.6,20.8,15z M3.3,15c0-5.6,3.9-10.3,9.2-11.4C10.2,5.5,8.7,9.8,8.7,15 c0,5.2,1.5,9.5,3.8,11.4C7.2,25.3,3.3,20.6,3.3,15z M17.9,26.3c2.2-2,3.7-6.2,3.7-11.3s-1.5-9.4-3.7-11.3C23,5,26.7,9.5,26.7,15 C26.7,20.5,23,25,17.9,26.3z"/>
      <path d="M15,27.5c-0.2,0-0.4-0.2-0.4-0.4V2.9c0-0.2,0.2-0.4,0.4-0.4c0.2,0,0.4,0.2,0.4,0.4v24.2 C15.4,27.3,15.2,27.5,15,27.5z"/>
      <path d="M27.1,15.9H2.9c-0.2,0-0.4-0.2-0.4-0.4c0-0.2,0.2-0.4,0.4-0.4h24.2c0.2,0,0.4,0.2,0.4,0.4 C27.5,15.7,27.3,15.9,27.1,15.9z"/>
      <path d="M26.2,11.1H3.8c-0.2,0-0.4-0.2-0.4-0.4s0.2-0.4,0.4-0.4h22.4c0.2,0,0.4,0.2,0.4,0.4S26.4,11.1,26.2,11.1z"/>
      <path d="M25.8,20.5H4.2c-0.2,0-0.4-0.2-0.4-0.4s0.2-0.4,0.4-0.4h21.6c0.2,0,0.4,0.2,0.4,0.4S26,20.5,25.8,20.5z"/>
    </symbol>

    <symbol id="icon-leandata" viewBox="0 0 28 34">
      <path d="M9.2,28.9L9.2,28.9c-0.7,0-1.3-0.6-1.3-1.3c0,0,0,0,0,0l0,0c0-0.7,0.6-1.3,1.3-1.3c0.7,0,1.3,0.6,1.3,1.3 c0,0.3-0.1,0.7-0.4,0.9C9.9,28.8,9.6,28.9,9.2,28.9z M9.2,27.1c-0.3,0-0.5,0.2-0.5,0.5c0,0.3,0.2,0.5,0.5,0.5l0,0 c0.1,0,0.2,0,0.3-0.1c0.1-0.1,0.1-0.2,0.1-0.3C9.7,27.4,9.5,27.1,9.2,27.1L9.2,27.1z"/>
      <path d="M9.2,31c-2.1,0-3.8-1.7-3.8-3.7l0.9-13c-1.1-0.7-3.8-2.8-3.8-5.5c0-2.2,1.1-4.3,3-5.5c0.1-0.1,0.3-0.1,0.4,0 C6,3.3,6.1,3.5,6.1,3.6v3.9l1.5,2.2h3.2l1.5-2.2V3.6c0-0.2,0.1-0.3,0.2-0.4c0.1-0.1,0.3-0.1,0.4,0c1.9,1.2,3,3.3,3,5.5 c0,2.7-2.7,4.7-3.8,5.5L13,27.2C13,29.3,11.3,31,9.2,31C9.2,31,9.2,31,9.2,31z M5.3,4.4c-1.3,1.1-2,2.7-2,4.3c0,2.5,2.8,4.4,3.7,4.9 c0.1,0.1,0.2,0.2,0.2,0.4L6.2,27.3c0.1,1.6,1.5,2.9,3.1,2.8c1.5-0.1,2.7-1.3,2.8-2.8l-0.9-13.2c0-0.2,0.1-0.3,0.2-0.4 c0.8-0.5,3.7-2.5,3.7-4.9c0-1.7-0.7-3.3-2-4.3v3.2c0,0.1,0,0.2-0.1,0.2l-1.7,2.5c-0.1,0.1-0.2,0.2-0.3,0.2H7.4 c-0.1,0-0.3-0.1-0.4-0.2L5.3,7.9c0-0.1-0.1-0.1-0.1-0.2V4.4z"/>
      <path d="M21.5,31c-2.2,0-4-1.5-4-3.3V21c0-0.2,0.1-0.3,0.2-0.4c0.5-0.2,0.8-0.6,0.8-1.1c0-0.5-0.4-0.9-0.8-1.1 c-0.1-0.1-0.2-0.2-0.2-0.4v-2.5c0-0.2,0.2-0.4,0.4-0.4h7.1c0.2,0,0.4,0.2,0.4,0.4v2.5c0,0.2-0.1,0.3-0.2,0.4 c-0.5,0.2-0.8,0.6-0.8,1.1c0,0.5,0.4,0.9,0.8,1.1c0.1,0.1,0.2,0.2,0.2,0.4v6.7C25.5,29.5,23.7,31,21.5,31z M18.4,21.2v6.5 c0,1.4,1.4,2.5,3.2,2.5c1.7,0,3.2-1.1,3.2-2.5v-6.5c-0.9-0.5-1.3-1.6-0.9-2.5c0.2-0.4,0.5-0.7,0.9-0.9v-1.8h-6.3v1.8 c0.9,0.5,1.3,1.6,0.9,2.5C19.1,20.7,18.8,21.1,18.4,21.2z"/>
      <path d="M21.5,16.1c-0.2,0-0.4-0.2-0.4-0.4V6.5c0-0.2,0.2-0.4,0.4-0.4c0.2,0,0.4,0.2,0.4,0.4v9.2 C22,15.9,21.8,16.1,21.5,16.1z"/>
      <path d="M22.2,6.9h-1.4c-0.2,0-0.3-0.1-0.4-0.3l-0.6-1.8c0-0.1,0-0.2,0-0.3l0.6-1.3C20.5,3.1,20.7,3,20.8,3h1.4 c0.2,0,0.3,0.1,0.4,0.3l0.6,1.3c0,0.1,0,0.2,0,0.3l-0.5,1.8C22.6,6.8,22.4,6.9,22.2,6.9z M21.1,6.1h0.8l0.4-1.3L22,3.8h-0.9 l-0.4,0.9L21.1,6.1z"/>
      <path d="M21.5,28c-0.2,0-0.4-0.2-0.4-0.4V22c0-0.2,0.2-0.4,0.4-0.4c0.2,0,0.4,0.2,0.4,0.4v5.6 C21.9,27.8,21.8,28,21.5,28z"/>
    </symbol>

    <symbol id="icon-nethealth" viewBox="0 0 30 30">
      <path d="M4.3,9.3"/>
      <path d="M25.7,9.3"/>
      <path d="M14.8,20.1L14.6,20c-4.4-3-4.6-5.8-4.6-5.9v-0.2c0-0.8,0.3-1.6,0.8-2.1c0.6-0.6,1.3-0.9,2.1-0.9c0.7,0,1.4,0.3,1.9,0.7 c0.5-0.4,1.2-0.7,1.9-0.7c0.8,0,1.5,0.3,2.1,0.9c0.6,0.6,0.8,1.3,0.8,2.1c0,0.5-0.1,1-0.4,1.5C18.6,17,17.2,18.6,15,20L14.8,20.1z M13,11.6c-0.6,0-1.1,0.3-1.5,0.7c-0.4,0.4-0.6,1-0.6,1.6l0,0.2c0,0,0.1,2.4,4,5.1c2.8-1.9,3.5-3.6,3.7-4.2c0.2-0.4,0.3-0.8,0.3-1.2 v0c0-0.6-0.2-1.2-0.6-1.6c-0.4-0.4-1-0.7-1.6-0.7c-0.6,0-1.2,0.3-1.6,0.7l-0.3,0.3l-0.3-0.3C14.1,11.8,13.6,11.6,13,11.6z"/>
      <path d="M14.8,2.5C14.8,2.5,14.8,2.5,14.8,2.5C14.8,2.5,14.8,2.5,14.8,2.5C14.8,2.5,14.8,2.5,14.8,2.5C7.9,2.5,2.3,8.1,2.3,15 c0,6.9,5.6,12.5,12.5,12.5c0,0,0,0,0,0c0,0,0,0,0,0c0,0,0,0,0,0c6.9,0,12.5-5.6,12.5-12.5C27.3,8.1,21.7,2.5,14.8,2.5z M3.1,15 c0-5.3,3.5-9.8,8.3-11.2C8.8,5.8,7,10.1,7,15c0,4.9,1.8,9.2,4.4,11.2C6.6,24.8,3.1,20.3,3.1,15z M15.2,26.7l0-7l-0.8,0l0,7 c-3.7-0.3-6.7-5.4-6.7-11.7c0-6.3,3-11.4,6.7-11.7l0,8.7l0.8,0l0-8.7c3.7,0.3,6.7,5.4,6.7,11.7C21.9,21.3,18.9,26.4,15.2,26.7z M18.2,26.2c2.6-2,4.4-6.3,4.4-11.2c0-4.9-1.8-9.2-4.4-11.2c4.8,1.5,8.3,5.9,8.3,11.2C26.6,20.3,23.1,24.8,18.2,26.2z"/>
      <path d="M3.3,9.3"/>
      <path d="M12.9,15c0.6,0,1.1-0.5,1.1-1.1c0-0.6-0.5-1.1-1.1-1.1c-0.5,0-0.9,0.3-1.1,0.7H3.3c-1,0-1.9-0.9-1.9-1.9s0.9-1.9,1.9-1.9 h22.3V8.9H3.3c-1.5,0-2.7,1.2-2.7,2.7s1.2,2.7,2.7,2.7h8.5C11.9,14.7,12.4,15,12.9,15z M12.9,13.5c0.2,0,0.4,0.2,0.4,0.4 c0,0.2-0.2,0.4-0.4,0.4c-0.2,0-0.4-0.2-0.4-0.4C12.5,13.7,12.7,13.5,12.9,13.5z"/>
      <path d="M26.7,15.8h-9.8c-0.2-0.4-0.6-0.7-1-0.7c-0.6,0-1.1,0.5-1.1,1.1c0,0.6,0.5,1.1,1.1,1.1c0.5,0,0.9-0.3,1.1-0.8h9.7 c1,0,1.9,0.9,1.9,1.9c0,1-0.9,1.9-1.9,1.9H4.3v0.8h22.4c1.5,0,2.7-1.2,2.7-2.7C29.4,17,28.2,15.8,26.7,15.8z M15.9,16.6 c-0.2,0-0.4-0.2-0.4-0.4s0.2-0.4,0.4-0.4c0.2,0,0.4,0.2,0.4,0.4S16.1,16.6,15.9,16.6z"/>
    </symbol>

    <symbol id="icon-gaming" viewBox="0 0 32 32">
      <path d="M16.5,13c-0.2,0-0.4-0.2-0.4-0.4c0-0.5-0.1-0.6-1-1.2c-1.8-1.2-4-2.6-2.6-5.2l1.3-2.3c0.1-0.2,0.3-0.2,0.5-0.1 c0.2,0.1,0.2,0.3,0.1,0.5l-1.3,2.3c-1,1.9,0.3,2.9,2.4,4.2c1,0.6,1.4,1,1.4,1.8C16.9,12.8,16.7,13,16.5,13L16.5,13L16.5,13z"/>
      <path d="M25,28.3c-2.2,0-5.9-2.5-7.2-5.4h-3.8c-1.3,3-4.8,5.4-6.9,5.4c-4,0-4-5.5-4-7.9c-0.1-3.4,2.6-6.2,6-6.3h14 c3.4,0.1,6.1,2.9,6,6.3C29,22.8,29,28.3,25,28.3z M13.7,22.2H18c0.1,0,0.3,0.1,0.3,0.2c1.2,2.9,4.9,5.1,6.7,5.1 c2.9,0,3.3-3.6,3.3-7.1c0.1-3-2.3-5.5-5.3-5.6l0,0H9c-3,0.1-5.4,2.6-5.3,5.6c0,3.5,0.4,7.1,3.3,7.1c1.9,0,5.2-2.4,6.3-5.1 C13.4,22.3,13.5,22.2,13.7,22.2z M23,14.8L23,14.8z"/>
      <path d="M8.6,22.4c-1.4,0-2.5-1.1-2.6-2.5c0-1.4,1.1-2.5,2.5-2.6c1.4,0,2.5,1.1,2.6,2.5c0,0,0,0,0,0 C11.1,21.2,10,22.4,8.6,22.4z M8.6,18.1c-1,0-1.8,0.8-1.8,1.8c0,1,0.8,1.8,1.8,1.8c1,0,1.8-0.8,1.8-1.8c0,0,0,0,0,0 C10.3,18.9,9.6,18.1,8.6,18.1L8.6,18.1z"/>
      <path d="M23.4,22.4c-0.2,0-0.4-0.2-0.4-0.4v-4.3c0-0.2,0.2-0.4,0.4-0.4c0.2,0,0.4,0.2,0.4,0.4V22 C23.8,22.2,23.6,22.4,23.4,22.4z"/>
      <path d="M25.6,20.2h-4.2c-0.2,0-0.4-0.2-0.4-0.4c0-0.2,0.2-0.4,0.4-0.4h4.2c0.2,0,0.4,0.2,0.4,0.4 C25.9,20.1,25.8,20.2,25.6,20.2z"/>
    </symbol>

    <symbol id="icon-vr" viewBox="0 0 39 40">
      <g>
        <path d="M22.1,30.6l-2.6,0.1L17,30.6c-0.3,0-0.5,0.2-0.5,0.4s0.2,0.5,0.4,0.5c0.8,0.1,1.6,0.1,2.4,0.1 c0.1,0,0.1,0,0.2,0c0,0,0,0,0,0c0.9,0,1.8-0.1,2.6-0.2c0.3,0,0.4-0.3,0.4-0.5S22.3,30.6,22.1,30.6z"/>
        <path d="M36.9,18.6C36.9,18.6,36.9,18.6,36.9,18.6c-0.6-6-1.7-9.6-3.5-10.7c-0.5-0.3-1.5-0.6-3-0.8 c-1.7-1.8-4.1-3-7.4-3.5C22.9,2.7,22.2,2,21.3,2h-3.6c-0.9,0-1.6,0.7-1.7,1.6C12.8,4,10.3,5.2,8.6,7.1C7.1,7.3,6.1,7.6,5.5,7.9 C3.8,9,2.6,12.6,2.1,18.6c-0.4,4.1,0.2,6.9,1.6,7.9c0.7,0.5,1.3,0.7,2,0.7c0.4,0,0.7,0,1.1-0.1c0.2,0,0.3,0,0.5-0.1 c0.3,3.2,2.9,6.3,4.5,8.2c0.2,0.3,0.4,0.5,0.6,0.7c1.6,2,5.3,2,7.3,2h0.2c0.1,0,0.1,0,0.2,0c2.2,0,5.4,0,7-2 c0.2-0.2,0.4-0.5,0.7-0.8c1.6-1.9,4.1-5,4.4-8.2c1.9,0,2.9-0.1,3.5-0.5C36.2,25.9,37.2,22.8,36.9,18.6z M23,4.6 c2.5,0.4,4.4,1.2,5.8,2.4c-0.1,0-0.2,0-0.3,0c-0.2,0-0.4,0-0.5,0c-0.4,0-0.8-0.1-1.3-0.1c-0.2,0-0.3,0-0.5,0 c-0.6,0-1.2-0.1-1.7-0.1c0,0,0,0-0.1,0c-0.5,0-0.9,0-1.4,0V4.6z M17,4V3.7C17,3.3,17.3,3,17.7,3h3.6C21.7,3,22,3.3,22,3.7V4v2.6h-5 V4z M16,4.6v2.1c-0.5,0-0.9,0-1.4,0c0,0,0,0-0.1,0c-0.6,0-1.2,0-1.7,0.1c-0.2,0-0.3,0-0.5,0c-0.4,0-0.9,0.1-1.3,0.1 c-0.2,0-0.3,0-0.5,0c-0.1,0-0.2,0-0.3,0C11.7,5.7,13.6,4.9,16,4.6z M26.7,34.6c-0.3,0.3-0.5,0.6-0.7,0.8C24.8,37,21.7,37,19.7,37 h-0.2c-1.8,0-5.2,0-6.5-1.7c-0.2-0.2-0.4-0.4-0.6-0.7c-1.5-1.8-4-4.8-4.3-7.7c1-0.1,1.9-0.2,2.8-0.3c0.3,0,0.6-0.1,0.9-0.1 c2.7-0.3,6.9-0.5,7.7-0.5c0.8,0,5,0.2,7.7,0.5c0.3,0,0.7,0.1,1.1,0.1c0.9,0.1,1.7,0.2,2.6,0.3C30.7,29.8,28.3,32.7,26.7,34.6z M34.8,25.7c-0.4,0.3-1.5,0.4-3.3,0.3c-1.1-0.1-2.3-0.2-3.3-0.3l-0.8-0.1c-2.7-0.3-6.9-0.6-7.8-0.6c-0.9,0-5.1,0.2-7.8,0.5 l-0.9,0.1c-1,0.1-2.1,0.3-3.2,0.3c-0.1,0-0.1,0-0.2,0.1c-0.3,0-0.5,0-0.8,0.1c-1,0.1-1.6,0.2-2.4-0.4c-1.1-0.8-1.5-3.4-1.2-7.1 c0.5-5.5,1.6-9,3-9.9C6.5,8.5,7.5,8.2,8.9,8c2.5-0.3,5.1-0.4,7.6-0.4h6c2.5,0,5.1,0.2,7.6,0.4c1.5,0.2,2.4,0.4,2.8,0.7 c1.4,0.9,2.5,4.4,3,9.9C36.3,23.1,35.1,25.5,34.8,25.7z"/>
        <path d="M23,16.4l-6.2-3.6l-0.3-0.1c-0.2-0.1-0.3-0.1-0.5,0c-0.1,0.1-0.2,0.2-0.2,0.4v7.4c0,0.2,0.1,0.3,0.2,0.4 c0.1,0,0.2,0.1,0.2,0.1c0.1,0,0.2,0,0.2-0.1l6.5-3.7c0.2-0.1,0.2-0.2,0.2-0.4C23.2,16.7,23.1,16.5,23,16.4z M16.7,19.7V14l5,2.9 L16.7,19.7z"/>
      </g>
      <path d="M16.2,21c-0.1,0-0.2,0-0.2-0.1c-0.1-0.1-0.2-0.2-0.2-0.4v-7.4c0-0.2,0.1-0.3,0.2-0.4c0.1-0.1,0.3-0.1,0.5,0 l0.3,0.1l6.2,3.6c0.2,0.1,0.2,0.2,0.2,0.4c0,0.2-0.1,0.3-0.2,0.4L16.5,21C16.4,21,16.3,21,16.2,21z M16.7,14v5.7l5-2.9l-2.9-1.6 c0,0,0,0,0,0L16.7,14z"/>
      <path d="M19.4,31.8c-0.9,0-1.7,0-2.6-0.1c-0.3,0-0.5-0.3-0.4-0.5s0.2-0.5,0.5-0.4l2.6,0.1c0.3,0,0.5,0.2,0.5,0.5 C20,31.6,19.8,31.8,19.4,31.8C19.5,31.8,19.5,31.8,19.4,31.8z"/>
      <path d="M19.6,31.8C19.5,31.8,19.5,31.8,19.6,31.8c-0.3,0-0.6-0.2-0.6-0.5c0-0.3,0.2-0.5,0.5-0.5l2.6-0.1 c0.3,0,0.5,0.2,0.5,0.4c0,0.3-0.2,0.5-0.4,0.5C21.3,31.7,20.4,31.8,19.6,31.8z"/>
    </symbol>

    <symbol id="icon-servo" viewBox="0 0 32 32">
      <path d="M18.3,22.8h-4.8c-0.2,0-0.4-0.2-0.4-0.4s0.2-0.4,0.4-0.4h4.8c0.2,0,0.4,0.2,0.4,0.4S18.6,22.8,18.3,22.8z"/>
      <path d="M8.6,22.8c-0.2,0-0.4-0.2-0.4-0.4c0-0.1,0-0.2,0.1-0.2l3.2-3.7l-3.2-3.7c-0.1-0.2-0.1-0.4,0.1-0.5 c0.2-0.1,0.4-0.1,0.5,0.1l3.4,4c0.1,0.1,0.1,0.3,0,0.5l-3.4,4C8.8,22.8,8.7,22.8,8.6,22.8z"/>
      <path d="M25.2,8.7L24.5,8l0.7-0.7c0.1-0.1,0.1-0.4,0-0.5c-0.1-0.1-0.4-0.1-0.5,0L24,7.5l-0.6-0.7 c-0.1-0.1-0.4-0.2-0.5,0c-0.1,0.1-0.2,0.4,0,0.5L23.5,8l-0.7,0.7c-0.1,0.1-0.1,0.2-0.1,0.3c0,0.2,0.2,0.4,0.4,0.4 c0.1,0,0.2,0,0.3-0.1L24,8.5l0.7,0.7c0.1,0.1,0.2,0.1,0.3,0.1c0.1,0,0.2,0,0.3-0.1C25.3,9.1,25.3,8.8,25.2,8.7z"/>
      <path d="M28,5.4C28,5.2,27.8,5,27.6,5H4.4C4.2,5,4,5.2,4,5.4v21.3C4,26.8,4.2,27,4.4,27h23.3c0.2,0,0.4-0.2,0.4-0.4V5.4 z M27,6v5H5V6H27z M5,26V12h22v14H5z"/>
      <path d="M20.8,9.2h-1.6c-0.2,0-0.4-0.2-0.4-0.4V7.3c0-0.2,0.2-0.4,0.4-0.4h1.6c0.2,0,0.4,0.2,0.4,0.4v1.6 C21.1,9.1,21,9.2,20.8,9.2z M19.5,8.5h0.9V7.6h-0.9C19.5,7.6,19.5,8.5,19.5,8.5z"/>
      <path d="M16.8,9.2h-1.6c-0.2,0-0.4-0.2-0.4-0.4c0-0.2,0.2-0.4,0.4-0.4h1.6c0.2,0,0.4,0.2,0.4,0.4 C17.2,9.1,17,9.2,16.8,9.2z"/>
    </symbol>

    <symbol id="icon-rust" viewBox="0 0 32 32">
      <path d="M16,29.1c-0.3,0-0.5-0.1-0.6-0.4l-0.5-0.9l-0.7,0.8c-0.2,0.2-0.4,0.3-0.7,0.2c-0.3-0.1-0.5-0.3-0.5-0.5 l-0.4-0.9L11.7,28c-0.3,0.2-0.8,0.2-1.1-0.2c-0.1-0.1-0.1-0.2-0.1-0.3l-0.2-1l-0.9,0.4C9.2,27,9,27,8.7,26.9 c-0.2-0.1-0.3-0.4-0.3-0.7v-1l-1,0.2c-0.4,0.1-0.8-0.2-0.9-0.6c0-0.1,0-0.2,0-0.3l0.3-1h-1c-0.3,0-0.5-0.1-0.7-0.3 C5,23,5,22.7,5.1,22.5l0.4-0.9l-1-0.1c-0.3,0-0.5-0.2-0.6-0.5c-0.1-0.2-0.1-0.5,0.1-0.7l0.6-0.8l-0.9-0.4c-0.4-0.2-0.6-0.6-0.4-1 c0-0.1,0.1-0.2,0.2-0.2l0.8-0.7l-0.9-0.5c-0.4-0.2-0.4-0.7-0.2-1.1c0.1-0.1,0.1-0.2,0.2-0.2l0.9-0.5l-0.8-0.7 c-0.3-0.3-0.2-0.8,0.1-1.1c0,0,0.1-0.1,0.2-0.1l0.9-0.4L4,11.7c-0.2-0.3-0.2-0.8,0.2-1.1c0.1-0.1,0.2-0.1,0.3-0.1l1-0.2L5.1,9.5 C5,9.2,5,9,5.2,8.8c0.1-0.2,0.4-0.3,0.6-0.3l1,0l-0.2-1C6.5,7.1,6.8,6.7,7.2,6.6c0.1,0,0.2,0,0.3,0l1,0.2v-1 c0-0.4,0.4-0.8,0.8-0.7c0.1,0,0.1,0,0.2,0l0.9,0.4l0.2-1c0-0.3,0.2-0.5,0.5-0.6c0.2-0.1,0.5-0.1,0.7,0.1l0.8,0.6l0.4-0.9 c0.1-0.2,0.3-0.4,0.5-0.5c0.3,0,0.5,0,0.7,0.2l0.7,0.8l0.5-0.9c0.2-0.4,0.7-0.4,1.1-0.2c0.1,0.1,0.2,0.1,0.2,0.2l0.5,0.9l0.7-0.8 c0.2-0.2,0.4-0.3,0.7-0.2c0.2,0.1,0.4,0.2,0.5,0.5l0.4,0.9L20.3,4c0.3-0.2,0.8-0.2,1.1,0.2c0.1,0.1,0.1,0.2,0.1,0.3l0.2,1l0.9-0.4 C22.8,5,23,5,23.3,5.1c0.2,0.1,0.3,0.4,0.3,0.7v1l1-0.2c0.4-0.1,0.8,0.2,0.9,0.6c0,0.1,0,0.2,0,0.3l-0.2,1h1 c0.3,0,0.5,0.1,0.7,0.3C27,9,27,9.3,26.9,9.5l-0.4,0.9l1,0.2c0.4,0.1,0.7,0.5,0.6,0.9c0,0.1-0.1,0.2-0.1,0.3l-0.6,0.8l0.9,0.4 c0.4,0.2,0.6,0.6,0.4,1c0,0.1-0.1,0.2-0.2,0.2l-0.8,0.7l0.9,0.5c0.4,0.2,0.4,0.7,0.2,1.1c-0.1,0.1-0.1,0.2-0.2,0.2l-0.9,0.5 l0.8,0.7c0.3,0.3,0.2,0.8-0.1,1.1c0,0-0.1,0.1-0.2,0.1l-0.9,0.4l0.6,0.8c0.2,0.2,0.2,0.5,0.1,0.7c-0.1,0.2-0.3,0.4-0.6,0.5l-1,0.2 l0.4,0.9c0.1,0.2,0.1,0.5-0.1,0.7c-0.1,0.2-0.4,0.3-0.7,0.3h-1l0.2,1c0.1,0.4-0.2,0.8-0.6,0.9c-0.1,0-0.2,0-0.3,0l-1-0.2v1 c0,0.3-0.1,0.5-0.3,0.7C23,27,22.7,27,22.5,26.9l-0.9-0.4l-0.1,1c0,0.3-0.2,0.5-0.5,0.6c-0.2,0.1-0.5,0.1-0.7-0.1l-0.8-0.6 l-0.4,0.9c-0.1,0.2-0.3,0.4-0.6,0.5c-0.3,0-0.5,0-0.7-0.2l-0.7-0.8l-0.5,0.9C16.5,28.9,16.3,29,16,29.1z M14.7,27L14.7,27h0.3 c0.1,0,0.2,0.1,0.3,0.2l0.6,1.1l0.6-1.1c0.1-0.1,0.2-0.2,0.3-0.2h0.3c0.1,0,0.2,0,0.3,0.1l0.9,0.9l0.4-1.2c0-0.1,0.1-0.2,0.3-0.3 l0.3-0.1c0.1,0,0.2,0,0.3,0.1l1,0.7l0.2-1.2c0-0.1,0.1-0.2,0.2-0.3l0.2-0.1c0.1-0.1,0.3-0.1,0.4,0l1.1,0.5L22.8,25 c0-0.1,0-0.2,0.1-0.3l0.2-0.2c0.1-0.1,0.2-0.1,0.3-0.1l1.2,0.3l-0.3-1.2c0-0.1,0-0.2,0.1-0.3l0.2-0.2c0.1-0.1,0.2-0.1,0.3-0.1 l1.3,0l-0.5-1.1c-0.1-0.1-0.1-0.2,0-0.3l0.1-0.3c0.1-0.1,0.2-0.2,0.3-0.2l1.2-0.2l-0.8-1c-0.1-0.1-0.1-0.2-0.1-0.3l0.1-0.3 c0-0.1,0.1-0.2,0.2-0.3l1.2-0.4l-0.9-0.8c-0.1-0.1-0.1-0.2-0.1-0.3v-0.3c0-0.1,0.1-0.2,0.2-0.3l1.1-0.6l-1-0.6 c-0.1-0.1-0.2-0.2-0.2-0.3v-0.3c0-0.1,0-0.2,0.1-0.3l0.9-0.9l-1.2-0.4c-0.1,0-0.2-0.2-0.2-0.3l-0.1-0.3c0-0.1,0-0.2,0.1-0.3l0.7-1 l-1.2-0.2c-0.1,0-0.2-0.1-0.3-0.2l-0.1-0.3c-0.1-0.1-0.1-0.2,0-0.3l0.5-1.1L25,9.2c-0.1,0-0.2,0-0.3-0.1l-0.2-0.2 c-0.1-0.1-0.1-0.2-0.1-0.3l0.3-1.2l-1.2,0.3c-0.1,0-0.2,0-0.3,0l-0.2-0.2c-0.1-0.1-0.2-0.2-0.1-0.3l0-1.3l-1.1,0.5 c-0.1,0.1-0.2,0.1-0.3,0l-0.3-0.1C21,6.1,20.9,6,20.9,5.9l-0.2-1.2l-1,0.8c-0.1,0.1-0.2,0.1-0.3,0.1l-0.3-0.1 c-0.1,0-0.2-0.1-0.3-0.2l-0.4-1.2l-0.8,0.9C17.5,5,17.3,5,17.2,5h-0.3c-0.1,0-0.2-0.1-0.3-0.2L16,3.7l-0.6,1.1 c-0.1,0.1-0.2,0.2-0.3,0.2h-0.3c-0.1,0-0.2,0-0.3-0.1L13.6,4l-0.4,1.2c0,0.1-0.1,0.2-0.3,0.2l-0.3,0.1c-0.1,0-0.2,0-0.3-0.1 l-1-0.7l-0.2,1.2c0,0.1-0.1,0.2-0.2,0.3l-0.3,0.1c-0.1,0.1-0.2,0.1-0.3,0L9.2,5.8L9.2,7c0,0.1,0,0.2-0.1,0.3L8.9,7.6 C8.8,7.6,8.6,7.7,8.5,7.6L7.3,7.3l0.3,1.2c0,0.1,0,0.2-0.1,0.3L7.3,9.1C7.3,9.2,7.1,9.2,7,9.2L5.8,9.2l0.5,1.1 c0.1,0.1,0.1,0.2,0,0.3l-0.1,0.3C6.1,11,6,11.1,5.9,11.1l-1.2,0.2l0.8,1c0.1,0.1,0.1,0.2,0.1,0.3l-0.1,0.3c0,0.1-0.1,0.2-0.2,0.3 l-1.2,0.4l0.9,0.8C4.9,14.6,5,14.7,5,14.8c0,0.1,0,0.2,0,0.3c0,0.1-0.1,0.2-0.2,0.3L3.7,16l1.1,0.6c0.1,0.1,0.2,0.2,0.2,0.3 c0,0.1,0,0.2,0,0.3c0,0.1,0,0.2-0.1,0.3l-0.9,0.9l1.2,0.4c0.1,0,0.2,0.1,0.2,0.3l0.1,0.3c0,0.1,0,0.2-0.1,0.3l-0.7,1l1.2,0.2 c0.1,0,0.2,0.1,0.3,0.2l0.2,0.3c0.1,0.1,0.1,0.2,0,0.3l-0.5,1.1L7,22.8c0.1,0,0.2,0,0.3,0.1l0.2,0.2c0.1,0.1,0.1,0.2,0.1,0.3 l-0.3,1.2l1.2-0.3c0.1,0,0.2,0,0.3,0.1l0.2,0.2c0.1,0.1,0.2,0.2,0.1,0.3l-0.1,1.2l1.1-0.5c0.1-0.1,0.2-0.1,0.3,0l0.3,0.1 c0.1,0.1,0.2,0.2,0.2,0.3l0.2,1.2l1-0.8c0.1-0.1,0.2-0.1,0.3-0.1l0.3,0.1c0.1,0,0.2,0.1,0.3,0.2l0.4,1.2l0.8-0.9 C14.5,27.1,14.6,27,14.7,27z M28.3,16L28.3,16z M19.6,21.8c-0.8,0-1.5-1-1.7-1.5c-0.1-0.5-0.2-0.9-0.3-1.4 c-0.1-0.3-0.1-0.5-0.1-0.6c-0.1-0.6-0.5-1-1.1-1h-2v0.9h1.8c0.3,0,0.5,0.2,0.5,0.4c0,0,0,0,0,0.1v2.7c0,0.3-0.2,0.5-0.5,0.5 c0,0,0,0-0.1,0H8.5c-0.2,0-0.4-0.2-0.4-0.4v-3c0-0.2,0.2-0.4,0.4-0.4h0.8v-5.1H8.4c-0.2,0-0.4-0.2-0.4-0.4V9.8 c0-0.2,0.2-0.4,0.4-0.4h10.5c0.8,0,1.5,0.3,2.2,0.7c1,0.6,1.6,1.6,1.6,2.8c-0.1,1.1-0.7,2.1-1.6,2.7c0.7,0.6,1.2,1.5,1.2,2.4 c0.2,0.1,0.4,0.2,0.7,0.2c0.4,0,0.8-0.3,0.8-0.8c0-0.1,0-0.1,0-0.2v-0.4c0-0.3,0.2-0.5,0.5-0.5c0,0,0,0,0,0h0.9 c0.2,0,0.4,0.2,0.4,0.4v2.7c0.1,1.3-0.8,2.4-2.1,2.5c-0.1,0-0.1,0-0.2,0L19.6,21.8L19.6,21.8z M13.9,16.5h2.4 c0.9,0,1.7,0.7,1.8,1.5c0,0.1,0.1,0.4,0.1,0.7c0.1,0.4,0.2,1.1,0.3,1.3c0.1,0.5,0.5,0.9,1,1.1h3.8c0.8,0,1.5-0.7,1.5-1.5 c0-0.1,0-0.1,0-0.2V17h-0.3v0.2c0.1,0.8-0.5,1.6-1.4,1.7c0,0,0,0-0.1,0c-0.6,0.1-1.3-0.2-1.5-0.8c0-0.9-0.5-1.8-1.3-2.3 c-0.1-0.1-0.2-0.2-0.2-0.3c0-0.1,0.1-0.2,0.2-0.3c1.1-0.7,1.7-1.5,1.7-2.3c0-0.9-0.5-1.7-1.3-2.1c-0.5-0.3-1.1-0.5-1.8-0.6H8.8v2 h0.9c0.2,0,0.4,0.2,0.4,0.4v5.9c0,0.2-0.2,0.4-0.4,0.4H8.9V21h6.9v-2.1h-1.9c-0.2,0-0.4-0.2-0.4-0.4v-1.7 C13.5,16.6,13.7,16.5,13.9,16.5L13.9,16.5z M16.8,14.7h-2.9c-0.2,0-0.4-0.2-0.4-0.4v-1.7c0-0.2,0.2-0.4,0.4-0.4H17 c0.4,0,1.5,0.3,1.5,1.3C18.5,14.3,17.9,14.7,16.8,14.7z M14.3,14h2.5c0.4,0,1-0.1,1-0.4c0-0.3-0.8-0.5-0.8-0.5h-2.7L14.3,14 L14.3,14z"/>
    </symbol>

    <symbol id="icon-common-voice" viewBox="0 0 24 20">
      <g fill="none" fill-rule="evenodd">
        <path d="M23.463.627c-.003-.35-.21-.57-.48-.618-.27-.05-.523.09-.598.43-.076.33.05.69.3.83v6.16c-.43-1.1-1.083-1.76-1.917-1.9-.05-.27-.093-.55-.15-.82-.22-1.06-.89-1.86-1.725-2.08l-.164-.04c-4.62-1.14-9.36-1.13-13.98.03-.84.21-1.51 1.02-1.72 2.08-.06.284-.11.58-.16.87-.73.24-1.34.883-1.65 1.76V1.26c.23-.15.34-.486.28-.804C1.44.14 1.22.024.97.04.71.055.483.195.44.52c-.044.325.094.645.332.77v7.772C.325 9.278 0 10.112 0 11.14c0 .997.306 1.813.733 2.057.29 2.184 1.105 3.544 2.308 3.792.22 1.09.9 1.91 1.74 2.13l.1.02c2.3.57 4.63.85 6.96.85 2.36 0 4.7-.3 7.01-.87.89-.23 1.56-1.05 1.77-2.11 1.28-.12 2.15-1.4 2.5-3.56.45-.22.77-1.05.77-2.08 0-1.71-.84-2.86-.73-2.08l.038-8.04c.14-.23.284-.27.29-.65z" fill="#000"/>
        <path d="M.645 12.266c-.13-.352-.193-.736-.187-1.125-.007-.4.063-.8.206-1.17.22-.55.457 0 .488-.28.206.2.392.75.392 1.46 0 .74-.2 1.31-.414 1.48-.015-.18-.296.21-.485-.35z" fill="#FFF"/>
        <path d="M1.24 9.07c.44.223.76 1.05.76 2.07 0 1.05-.337 1.9-.8 2.092.252 1.707.852 2.808 1.722 3.116-.622-3.31-.677-6.755-.162-10.095-.743.364-1.268 1.347-1.52 2.817zm18.937-4.192c-.175-.838-.706-1.476-1.37-1.646l-.163-.04c-4.56-1.125-9.244-1.113-13.8.035-.663.167-1.193.806-1.363 1.644l-.15.83c-.28 1.72-.44 3.47-.46 5.23.02 1.71.18 3.41.47 5.08.04.2.07.39.11.59l.06.288c.17.848.71 1.496 1.38 1.67l.096.02c4.555 1.134 9.24 1.13 13.8-.01l.08.28-.04-.292c.667-.172 1.2-.82 1.37-1.67l.057-.29c.04-.2.07-.4.106-.6 0 0 .29-2.648.34-5.08.02-1.33-.03-2.664-.15-3.987-.098-.68-.206-1.36-.347-2.03zm.59 11.29v.234c.93-.2 1.58-1.247 1.87-2.938-.44-.224-.76-1.053-.76-2.073 0-1.04.337-1.89.8-2.08-.258-1.75-.885-2.87-1.794-3.14.52 3.31.48 6.72-.117 10.01z" fill="#FFF"/>
        <path d="M22.724 12.85c-.223-.436-.358-.938-.39-1.46 0-.73.198-1.304.412-1.477.26-.21.486.354.486.354.1.362.164.74.187 1.124-.04.49-.13.96-.25 1.42l-.45.05z" fill="#FFF"/>
        <path d="M18.75 16.384c-.028.142-.117.25-.23.278-2.202.55-4.442.83-6.686.83-2.216 0-4.427-.27-6.603-.81l-.09-.023c-.11-.03-.2-.14-.22-.28l-.06-.29c-.7-3.52-.69-7.2.04-10.71.03-.15.12-.26.23-.29C9.5 4 14 3.99 18.38 5.06l.163.04c.11.03.2.135.23.275.737 3.507.75 7.2.046 10.714l-.06.29z" fill="#000"/>
        <path d="M18.352 5.667l-.063-.015C14 4.602 9.59 4.605 5.31 5.66c-.69 3.37-.695 6.91-.018 10.284l.03.156c4.3 1.057 8.716 1.058 13.014.002l.032-.158c.678-3.372.672-6.91-.016-10.277z" fill="#FFF"/>
        <path fill="#000" d="M18.022 11.304h.468v.6h-.468m-1.166-1.2h.468v1.8h-.468m-.708-2.1v2.1h-.468v-2.098m-1.165-1.5h.468v4.796h-.468M13.34 7.706h.467v7.2h-.468m-1.17-8.704h.46v9.906h-.47m-1.17-6.902h.47v4.796h-.47M9.83 7.71h.47v7.198h-.47M9.135 8.91v5.39h-.47V8.906m-.705.904v2.697h-.47v-2.7m-.697.603v1.8h-.468v-1.804m-1.175.304h.468v1.2H5.15"/>
      </g>
    </symbol>

    <symbol id="icon-coral-project" viewBox="0 0 42 42">
      <g stroke="#000" fill="none" fill-rule="evenodd" stroke-linecap="round" stroke-linejoin="round">
        <path d="M7.875 15.94c1.198-1.23 3.14-1.23 4.34 0 1.2 1.228 3.143 1.228 4.34 0 1.2-1.23 3.143-1.23 4.34 0 1.2 1.228 3.144 1.228 4.34 0m-17.36 5.97c1.198-1.23 3.14-1.23 4.34 0 1.2 1.227 3.143 1.227 4.34 0 1.2-1.23 3.143-1.23 4.34 0 1.2 1.227 3.144 1.227 4.34 0m-17.36 5.97c1.198-1.23 3.14-1.23 4.34 0 1.2 1.225 3.143 1.225 4.34 0 1.2-1.23 3.143-1.23 4.34 0 1.2 1.225 3.144 1.225 4.34 0"/>
        <path d="M27.06 9.625H6.35c-2.932 0-5.474 2.36-5.474 5.27v13.938c0 2.91 2.542 5.292 5.475 5.292h1.527v5.16c0 1.135 1.14 1.735 1.98.963l6.44-6.123H27.06c2.932 0 5.316-2.382 5.316-5.292V14.896c0-2.91-2.384-5.27-5.315-5.27z"/>
        <path d="M36.224 18.38c2.685-.303 4.9-2.58 4.9-5.344v-6.78c0-2.97-2.667-5.38-5.638-5.38H18.243c-2.798 0-4.823 2.14-5.082 4.867"/>
      </g>
    </symbol>

    <symbol id="icon-empowering-women" viewBox="0 0 42 30">
      <g stroke="#000" fill="none" fill-rule="evenodd" stroke-linecap="round" stroke-linejoin="round">
        <path d="M37.654 21.905V2.135c0-.696-.563-1.26-1.26-1.26h-30.8c-.698 0-1.263.564-1.263 1.26v19.77m18.83 3.552v.532c0 .41-.34.75-.76.75h-2.81c-.42 0-.76-.34-.76-.76v-.53H.88v2.1c0 .773.623 1.4 1.394 1.4H39.71c.775 0 1.4-.627 1.4-1.4v-2.1H23.16z"/>
        <path d="M24.5 21v-2.055c0-.242-.154-.46-.385-.546-2.724-1.02-5.748-.96-6.002-1.75v-1.17c2.72-.01 3.8-.856 3.8-.856-1.136-.62-1.495-4.952-1.495-4.952 0-2.244-1.74-4.425-4.376-4.425-2.482 0-4.377 2.042-4.377 4.424 0 0-.36 4.333-1.494 4.953 0 0 1.08.846 3.8.853v1.176c-.25.782-3.27.73-6 1.742-.23.08-.38.3-.38.54V21m18.668-6.475h4.116m-4.115-3.5h6.725"/>
      </g>
    </symbol>

    <symbol id="icon-information-trust" viewBox="0 0 34 43">
      <g stroke="#000" fill="none" fill-rule="evenodd" stroke-linecap="round" stroke-linejoin="round">
        <path d="M18.3 29.54h12.324c1.04 0 1.88.905 1.88 2.02 0 1.112-.84 2.1-1.88 2.1l-12.587-.002"/>
        <path d="M17.41 37.742h11.416c1.04 0 1.882-1.034 1.882-2.148 0-1.115-.842-1.935-1.882-1.935h-10.79m-5.74-8.156h16.398c1.038 0 1.88.903 1.88 2.018 0 1.113-.842 2.017-1.88 2.017H18.3M.743 37.774h4.072c1.07.2 3.1 1.498 4.94 2.503 2.59 1.413 13.55 1.53 13.55 1.53 1.04 0 2.135-.766 2.135-1.88 0-1.436-1.052-2.185-2.09-2.185m-5.94 0h-.627"/>
        <path d="M30.246 6.084c-.008.002-.713.204-1.795.204-2.284 0-5.6-.855-8.39-4.933-.322-.473-1.1-.473-1.424 0-3.37 4.923-8.122 5.44-10.185 4.73-.552-.165-1.114.253-1.114.845v8.29c0 11.57 11.666 14.932 11.782 14.966.076.02.152.03.23.03.076 0 .153-.01.227-.03.12-.034 11.786-3.395 11.786-14.966V6.93c0-.575-.546-1.008-1.112-.846z" fill="#FFF"/>
        <path d="M14.333 13.132l4.937 4.914 6.454-7.713"/>
        <path d="M.917 25.647h3.926c1.38-.614 2.312-1.753 2.312-1.753 3.456-3.203 11.236-4.15 11.236-4.15 2.466-.38 2.9 2.36 1.34 2.917l-6.56 2.278c-1.05.582-1.29 1.158-.724 1.727" fill="#FFF"/>
      </g>
    </symbol>

</svg>
