<svg width="44" height="79" xmlns="http://www.w3.org/2000/svg"><g fill="none" fill-rule="evenodd"><path d="M42.71 70.526l-10.29 6.689a1 1 0 01-1.545-.839V63a1 1 0 011.545-.839l10.29 6.69a1 1 0 010 1.676z" fill="#736A84"/><path stroke="#736A84" stroke-width="5" stroke-linecap="round" d="M2.656 69.688h30.188"/><path d="M42.71 40.526l-10.29 6.689a1 1 0 01-1.545-.839V33a1 1 0 011.545-.839l10.29 6.69a1 1 0 010 1.676z" fill="#736A84"/><path stroke="#736A84" stroke-width="5" stroke-linecap="round" d="M2.656 39.688h30.188"/><path d="M42.71 10.526l-10.29 6.689a1 1 0 01-1.545-.839V3a1 1 0 011.545-.839l10.29 6.69a1 1 0 010 1.676z" fill="#736A84"/><path stroke="#736A84" stroke-width="5" stroke-linecap="round" d="M2.656 9.688h30.188"/></g></svg>