<svg width="78" height="44" xmlns="http://www.w3.org/2000/svg"><g fill="none" fill-rule="evenodd"><path d="M7.974 42.71L1.285 32.42a1 1 0 01.839-1.545H15.5a1 1 0 01.839 1.545L9.65 42.71a1 1 0 01-1.676 0z" fill="#736A84"/><path stroke="#736A84" stroke-width="5" stroke-linecap="round" d="M8.812 2.656v30.188"/><path d="M37.974 42.71l-6.689-10.29a1 1 0 01.839-1.545H45.5a1 1 0 01.839 1.545l-6.69 10.29a1 1 0 01-1.676 0z" fill="#736A84"/><path stroke="#736A84" stroke-width="5" stroke-linecap="round" d="M38.812 2.656v30.188"/><path d="M67.974 42.71l-6.689-10.29a1 1 0 01.839-1.545H75.5a1 1 0 01.839 1.545l-6.69 10.29a1 1 0 01-1.676 0z" fill="#736A84"/><path stroke="#736A84" stroke-width="5" stroke-linecap="round" d="M68.812 2.656v30.188"/></g></svg>
