<svg xmlns="http://www.w3.org/2000/svg" viewBox="0 0 700 317" width="700" height="317">
  <path fill="#d1efee" d="M662.26 42.53a128.39 128.39 0 0133.07 70.64c4.76 33.35-17.34 65.91-51.39 79.37a381.54 381.54 0 00-55.13 27.25c-134.37 80.84-179.38 123.72-325.94 80.91l-76.48-12.86a415.09 415.09 0 00-66.23-5.53c-52-.54-95.87-33.65-102.71-81.25C6.88 126.92 60.89 53.68 143.09 31.27c1.21-.29 2.35-.66 3.58-.95 50.1-13 102.59-7.36 145 15.89.65.3 1 .51 1 .51 35 17.55 62.41 23.62 62.41 23.62 53.69 13 90.23-17.67 101.34-28.71a134.06 134.06 0 0113.12-11.28l1.54-1.16C526.21-10.5 603-9.71 650.84 31.53z" opacity=".65" style="isolation:isolate"/>
  <path fill="#20123a" d="M688.82 106.49H12.06A11.56 11.56 0 00.43 118v41.84h700v-41.7A11.56 11.56 0 00689 106.49z"/>
  <path fill="#f0f0f4" d="M264.61 158.94v-53.4H119.64v53.4H.43v61.03h700v-61.03H264.61z"/>
  <rect width="579.25" height="26.7" x="99.25" y="176.11" fill="#fff" rx="4.65" ry="4.65"/>
  <path fill="#cfcfd8" d="M651.65 199.33a1.08 1.08 0 01-1.08-1.08 1.15 1.15 0 010-.19l1-6-4.33-4.25a1.08 1.08 0 010-1.53 1.1 1.1 0 01.61-.32l6-.88 2.69-5.46a1.14 1.14 0 011.95 0l2.69 5.46 6 .88a1.09 1.09 0 01.61 1.85l-4.34 4.25 1 6a1.09 1.09 0 01-.43 1.06 1.05 1.05 0 01-1.14.08l-5.39-2.89-5.39 2.89a1.14 1.14 0 01-.45.13zm5.9-5.26a1 1 0 01.5.11l4 2.08-.76-4.33a1.06 1.06 0 01.32-1l3.19-3.11-4.42-.65a1.08 1.08 0 01-.81-.59l-2-4-2 4a1.09 1.09 0 01-.82.59l-4.42.65 3.21 3.11a1.13 1.13 0 01.3 1l-.75 4.33 3.94-2.08a1 1 0 01.52-.11z"/>
  <circle cx="425.77" cy="189.95" r="2.86" fill="#cfcfd8"/>
  <circle cx="433.4" cy="189.95" r="2.86" fill="#cfcfd8"/>
  <circle cx="441.03" cy="189.95" r="2.86" fill="#cfcfd8"/>
  <circle cx="33.07" cy="134.02" r="6.44" fill="#f0f0f4"/>
  <circle cx="59.13" cy="134.02" r="6.44" fill="#f0f0f4"/>
  <circle cx="85.18" cy="134.02" r="6.44" fill="#f0f0f4"/>
  <path fill="#cfcfd8" d="M398.12 194.36a1.1 1.1 0 01-.77-.32l-7.63-7.63a1.08 1.08 0 011.53-1.53l6.87 6.86 6.86-6.86a1.09 1.09 0 011.53 0 1.07 1.07 0 010 1.51l-7.63 7.61a1.05 1.05 0 01-.76.36z"/>
  <path fill="none" stroke="#ccc" stroke-miterlimit="10" stroke-width="1.44" d="M12.25 106.75h676.33a11.48 11.48 0 0111.48 11.47h0v101.23H.72V118.31a11.57 11.57 0 0111.53-11.56z"/>
  <circle cx="547.69" cy="153.22" r="90.51" fill="#cfcfd8"/>
  <circle cx="547.69" cy="153.22" r="78.92" fill="#fff"/>
  <path fill="#ef4056" d="M510.05 119h76.08a6 6 0 016 5.87v28.38c0 23.67-19.74 42.85-44.07 42.85S504 177 504 153.28v-28.47a6 6 0 016.05-5.81zm52.55 23.61l-14.45 14.24-14.44-14.24a5.51 5.51 0 00-7.71 7.89l18.36 18a5.54 5.54 0 007.72 0l18.36-18a5.51 5.51 0 10-7.71-7.86h-.12z"/>
  <path fill="#cfcfd8" d="M68.63 180a9.5 9.5 0 016.58 2.65l1.44-1.37a.93.93 0 011.58.65v5.15a.92.92 0 01-.93.91h-5.16a.91.91 0 01-.91-.93.9.9 0 01.26-.64l1.61-1.6a6.37 6.37 0 00-4.34-1.74A6.46 6.46 0 1073 194.39a.47.47 0 01.64 0l1.44 1.51a.47.47 0 010 .66 9.53 9.53 0 11-8.3-16.39 10.26 10.26 0 011.85-.17z"/>
  <path fill="#cfcfd8" d="M36.73 197.06l-.85.85a.91.91 0 01-1.29 0l-7.47-7.47a.91.91 0 010-1.29l7.47-7.47a.9.9 0 011.28 0l.85.85a.91.91 0 010 1.29l-4.62 4.42h11a.91.91 0 01.93.89v1.26a.93.93 0 01-.93.93h-11l4.62 4.33a.91.91 0 010 1.29z"/>
</svg>
