<svg width="132" height="105" fill="none" xmlns="http://www.w3.org/2000/svg"><g clip-path="url(#a)"><path d="M97.842 43.53c-4.294 7.018-8.865 14.53-13.254 21.49-3.079 4.878-6.048 9.891-9.69 14.33-2.807 3.419-4.252 6.19-4.252 8.219 0 3.665.588 10.297.582 13.978-.004 2.125-.152 2.843-2.206 2.054-12.866-4.942-25.29-11.345-36.716-19.16-5.173-3.537-10.474-6.867-15.129-11.123-1.165-1.064-1.36-1-.31-1.579 2.256-1.246 4.777-2.342 7.102-3.45 1.177-.56 1.407-1.922.796-2.853-1.89-2.876-3.88-5.69-5.656-8.633-3.284-5.443-3.235-3.81.274-9.082.816-1.226 1.75-2.374 2.547-3.61.266-.414.392-.997.385-1.5-.111-9.34-.312-18.679-.357-28.018-.014-2.943.303-5.891.593-8.826.2-2.021.479-1.89 2.232-.793 8.282 5.183 15.377 13 21.512 20.497.858 1.049 7.568.744 9.132-.203 0 0 1.949-3.712 2.88-5.462 3.316-6.222 7.482-11.837 12.075-17.15.426-.493 1.266-1.098 1.733-.974.609.162 1.325.927 1.492 1.565 1.04 3.967 1.921 7.977 2.908 11.96.184.744.325 2.633.83 3.16 2.817 2.935 4.158 5.464 4.714 9.393.122.864.331 2.427.968 2.987 4.436 3.882 14.807 12.288 14.815 12.785v-.002Z" fill="#FDA519"/><path d="M21.617 32.52h-.166l-.166-.007V19.969c.105-.004.209-.006.314-.004.006 4.184.012 8.371.02 12.556h-.002Z" fill="#FEE9D5"/><path d="M21.597 19.965c-.105 0-.209 0-.314.004v-3.32c.111-.004.223-.004.335-.004-.006 1.106-.015 2.212-.02 3.32Z" fill="#FEF2E7"/><path d="M75.157 78.247c.735-4.058 3.523-19.316 4.016-22.487.102-8.905-.022-17.79-1.351-26.634-.481-3.197-.41-6.476-.568-9.72-.017-.342.12-.691.184-1.038.315.233.69.416.936.708 2.14 2.539 2.955 5.605 3.395 8.802.168 1.227.473 2.193 1.575 3.078 4.254 3.418 8.365 7.014 12.534 10.54 1.875 1.586 2.019 1.963.773 4.007-4.09 6.699-8.191 13.39-12.384 20.024-2.717 4.298-5.605 8.49-8.416 12.728-.231-.001-.46-.004-.692-.006l-.002-.002ZM40.572 67.455c4.62.043 8.806 3.543 9.275 8.075.14 1.347-.165 3.083-.95 4.118-2.517 3.318-5.335 6.41-8.108 9.528-.247.278-1.146.324-1.505.101-3.593-2.238-7.124-4.574-10.701-6.835-.774-.489-.778-.946-.343-1.642 2.242-3.59 4.39-7.24 6.723-10.77 1.276-1.928 3.334-2.597 5.607-2.575h.002Z" fill="#FE7D03"/><path d="m21.597 19.965.02-3.32c.135-2.448.183-4.905.45-7.339.084-.779.58-1.783 1.197-2.13.375-.212 1.593.302 2.126.842 3.018 3.044 4.217 7.133 5.632 11.1 1.837 5.157-.211 9.939-1.979 14.47-.769 1.97-6.697 3.856-7.43-1.065-.005-4.185-.012-8.372-.02-12.556l.004-.002Z" fill="#FE7E05"/><path d="m75.157 78.247.692.006-.657.662-.035-.668Z" fill="#FEA14A"/><path d="m74.926 79.605-.026-.12.091.017-.065.103Z" fill="#FED0A5"/><path d="M98.16 43.816c-1.012 1.666-2.016 3.337-3.037 4.997-3.205 5.211-6.344 10.461-9.642 15.614-3.162 4.94-6.476 9.782-9.753 14.648-.68 1.011-1.392 2.036-2.26 2.874-1.426 1.374-2.044 2.9-1.91 4.913.162 2.45.04 4.917.04 7.38v9.485c-1.122-.256-2.076-.331-2.908-.688-5.22-2.245-10.389-4.607-15.618-6.827-5.72-2.428-11.055-5.535-16.256-8.895-.148-.096-.268-.236-.625-.556 2.145-.816 4.022-1.384 6.25-2.233-.32-.44-4.36-3.67-5.885-5.073-2.155-1.983-4.059-4.43-6.076-6.553-1.175-1.236-2.256-2.578-3.261-3.957-.934-1.281-1.705-2.677-2.56-4.015-2.37-3.71-4.758-7.407-7.112-11.127-.804-1.27-.723-1.731.424-2.626 3.902-3.04 8.385-3.898 13.106-2.772 5.617 1.341 22.865 7.58 25.165 8.726 0 0 .08-3.575 1.826-5.48 4.465-4.87 11.066-5.01 11.973-5.073 5.886-.406 9.056 3.03 9.336 3.247 3.247-5.682 8.38-6.078 11.332-6.37 1.455-.144 2.914-.308 4.373-.327 1.025-.012 2.054.207 3.079.323v.37-.005Z" fill="#FEEDD3"/><path d="M29.487 20.395a6.671 6.671 0 0 1 1.182-2.841c.381.694 4.058 8.32 5.073 11.568-2.236 1.787-5.38 3.922-7.687 5.828-1.66-1.626-2.338-3.815-2.872-5.942-.542-2.163-.16-5.39.818-7.598 1.045-2.36 1.15-1.782 3.486-1.015ZM76.533 17.436c2.697 1.965 3.962 4.81 4.739 7.909.333 1.329.447 2.711.73 4.523-1.103-.582-1.88-1.087-2.729-1.414-1.128-.437-1.165-1.29-1.335-2.314-.483-2.914-1.167-5.796-1.772-8.69.122-.004.246-.008.367-.014Z" fill="#FEEDD4"/><path d="M77.142 17.233c-.122.006-.245.01-.367.014l-.424-2.605c.133-.023.267-.043.401-.065l.39 2.658v-.002Z" fill="#FEF4E5"/><path d="M34.91 76.557c2.632 1.335 5.344 2.468 8.309 2.772 7.78.796 15.03-.388 21.077-5.86.272-.248.536-.51.775-.788 1.457-1.683 1.334-1.668-.255-3.266-1.52-1.53-3.057-2.934-4.315-5.185 0 0 .424.152.514.205 3.939 2.41 7.918 3.063 12.271 2.028 4.353-1.035 8.524-5.721 8.524-9.944 0-4.224-2.435-6.698-2.435-6.698 2.435-3.45 6.143-5.463 7.914-5.885 4.262-1.015 7.444-.962 9.336-.406 1.286.378 1.165.246.608 1.218-1.641 2.876-3.064 5.35-4.87 8.117-5.894 9.04-11.367 18.436-17.656 27.195-2.078 2.894-4.256 3.622-4.059 7.102.236 4.147.631 11.06.609 15.221-.008 1.664.148 1.892-1.419 1.281-3.764-1.466-7.535-2.931-11.218-4.587-7.438-3.342-22.594-12.101-22.88-12.322.335-.21 4.26-1.472 5.683-1.827.815-.203.921-.282.316-.862-.793-.763-1.623-1.49-2.388-2.283-1.65-1.713-4.62-3.85-6.249-5.581.152-.014-.203-.61 1.804.353l.004.002Z" fill="#FEA19A"/><path d="M77.211 16.85c1.331 2.025 2.92 3.93 3.915 6.11.866 1.9 1.09 4.102 1.546 6.18.189.852-.213.866-.925.613-2.042-.727-3.406-1.762-3.552-4.26-.168-2.898-.836-5.77-1.286-8.651l.152-.013.15.019v.002Z" fill="#FEA59D"/><path d="M31.777 19.372c1.248 2.86 2.794 6.86 3.965 9.752 0 0-3.131 2.555-3.14 2.384a58.013 58.013 0 0 0-.107-1.573c-.406-4.261-1.38-7.971-2.03-11.567-.054-.307 1.204.759 1.312 1.004Z" fill="#FEA7A0"/><path d="m77.211 16.85-.15-.019-.152.012-.416-1.554.533-.09.185 1.653v-.002Z" fill="#FEDDDA"/><path d="M70.403 104.891c-7.954-2.573-15.448-6.23-22.833-10.055-5.265-2.728-10.285-5.944-15.304-9.12-3.834-2.428-7.54-5.066-11.208-7.74-2.158-1.573-4.228-3.436-6.432-5.267a.205.205 0 0 1 0-.317c2.982-2.394 6.488-3.468 9.628-5.47L15.487 52.76c1.18-3.47 3.762-5.85 5.57-8.4 0-3.415-.026-6.6.005-9.783.083-8.664.136-17.33.332-25.991.039-1.717.19-3.552 1.31-5.1 3.916 1.078 6.79 3.675 9.76 6.117 5.667 4.66 10.572 10.055 15.014 15.65l7.495-.74C59.379 15.84 64.45 6.922 72.27.303c1.42 0 1.893 1.971 2.24 3.698.771 3.84 1.654 7.66 2.523 11.48.117.518.302 1.099.647 1.472 3.255 3.525 4.712 7.8 5.264 12.574L98.95 43.281C90.41 57.706 82.185 72.19 71.746 85.316c.13 5.516.292 11.038.363 16.56.013 1.008.16 3.549-1.71 3.013l.004.002Zm9.469-54.956c2.147 2.66 3.017 5.57 2.017 8.822-1.08 3.51-2.985 5.741-5.61 6.553-.16.049-.271-.158-.141-.264.811-.65 1.534-1.19 2.155-1.83 1.977-2.044 3.387-4.4 3.194-7.367-.38-5.816-6.313-9.504-10.737-8.844-1.942.29-3.913.487-5.813.957-3.878.958-6.977 2.923-8.077 7.091-.166.631-.261 1.632-.416 2.484-.787-.09-1.501-.406-2.161-.619-1.041-.337-2.03-.838-3.042-1.264-5.865-2.472-11.773-4.832-17.97-6.354-3.108-.763-6.243-1.413-9.457-.558-2.468.657-4.743 1.625-6.314 3.803.23.493.39.962.645 1.368 4.34 6.906 8.745 13.77 13.9 20.111.878 1.08 1.64 2.287 2.654 3.219 2.695 2.476 5.5 4.836 8.457 7.411-1.898.664-5.583 1.9-5.989 2.103 0 0 20.497 13.19 32.817 16.14.273.064.246-.465.242-.626-.148-6.686-.31-13.373-.459-20.06-.02-.879-.349-1.835.481-2.602 1.26.371 1.157 1.544 1.52 2.977 8.798-12.777 16.999-25.382 24.66-38.43-5.36-1.58-13.693.415-16.554 5.78h-.002Zm-15.513-24.67c-.609 1.218-1.552 1.19-2.435 1.218-6.291.203-14.815.406-16.033.203C42.24 21.613 33.825 12.813 27.533 7.87c-1.187-.933-2.502-1.7-3.95-2.672-.421 1.6-.413 2.581-.45 3.73-.16 4.972-.36 9.944-.363 14.918-.002 5.69.122 11.383.33 17.071.086 2.43-.125 4.62-2.075 6.348-.503.447-.818 1.104-1.244 1.699.248.101.31.154.355.142.238-.063.48-.12.702-.22 4.081-1.842 8.246-1.474 12.416-.42 5.957 1.507 11.694 3.646 17.336 6.06 1.65.707 3.324 1.356 5.178 2.11.413-3.826 2.34-6.365 5.441-8.08 2.977-1.648 6.249-2.054 9.557-2.336a10.38 10.38 0 0 1 5.859 1.206c.9.479 1.727 1.098 2.62 1.674 1.976-2.462 4.205-4.586 7.198-5.327 2.835-.702 5.806-.86 8.77-1.265-2.801-2.455-5.598-5.01-8.506-7.43-2.91-2.42-5.934-4.71-9.145-7.24-1.457-8.158-3.872-22.253-5.292-25.094-6.291 6.291-11.209 13.865-15.485 22.103 2.74 0 5.135.018 7.57.424l.004-.004Zm-47.03 47.349c5.936 5.286 12.607 9.47 19.042 13.587l5.151-1.871c-3.08-2.718-6.005-5.305-8.937-7.88-.812-.715-1.774-1.297-2.456-2.115-1.603-1.924-3.077-3.956-4.597-5.934a17849.08 17849.08 0 0 0-8.203 4.213Zm60.625-52.219c.304 2.119.704 4.335 1.015 6.494.603.231 1.28.846 1.962 1.108-.142-2.756-1.299-5.548-2.977-7.602Z" fill="#000"/><path d="M113.865 16.391v1.098c-.351 5.786-.686 11.572-1.066 17.355-.059.885-.314 1.758-.479 2.637-.99-.299-2.033-.48-2.963-.916-2.362-1.11-3.425-2.967-3.671-5.725-.481-5.398-1.374-10.756-2.072-16.133-.519-3.992-.497-4.013 3.207-2.75 2.366.805 4.71 1.676 7.066 2.518l-.024 1.916h.002ZM111.22 44.772v.183c-.018 4.06-.036 4.097-3.482 2.182-.522-.29-1.015-1.044-1.11-1.652-.264-1.679-.321-3.392-.441-5.092-.075-1.07.426-1.342 1.311-.869 1.11.59 2.222 1.185 3.267 1.886.301.2.479.76.512 1.173.057.722-.045 1.459-.079 2.19h.024-.002Z" fill="#E24F53"/><path d="M114.437 13.753a.706.706 0 0 1 .493.698c-.018.515-.126 1.098-.172 1.709-.372 4.947-.832 9.889-1.251 14.832-.174 2.054-.409 4.244-.789 7.298a.343.343 0 0 1-.416.294c-2.133-.513-5.102-2.516-6.734-3.577 0 0-.233-.662-.294-1.108a2876.247 2876.247 0 0 1-3.097-23.004.56.56 0 0 1 .678-.617c3.582.806 5.969 1.717 7.88 2.344.987.325 2.358.709 3.704 1.133l-.002-.002Zm-10.285-1.386 2.985 21.803 4.108 2.23 1.761-21.113c-2.961-.976-5.737-1.894-8.854-2.922v.002ZM111.09 49.438l-4.911-2.427a.61.61 0 0 1-.337-.487l-.745-7.69a.562.562 0 0 1 .382-.584c.789-.262 1.453-.146 2.114.235 1.163.67 2.361 1.289 3.479 2.026.467.306 1.094.858 1.094 1.298-.004 2.255-.181 4.51-.333 6.762-.012.19-.061 1.017-.745.865l.002.002Zm-.505-7.095-3.586-2.084.505 5.437c.968.448 1.762.818 2.758 1.28l.323-4.633Z" fill="#000"/><path d="m129.206 25.007-.29 1.06c-1.866 5.487-3.918 10.327-5.81 15.805-.291.838-.927.831-1.318 1.636-.876-.55-1.675-.218-2.456-.884-1.986-1.695-2.32-3.113-1.828-5.838.96-5.334 1.513-10.737 2.259-16.109.553-3.987.617-4 3.857-1.805 2.157.926 3.686 1.165 5.737 2.599-.177.614.023 2.923-.153 3.536h.002Z" fill="#E24F53"/><path d="M130.54 20.615c.269.173.385.501.292.804-.154.492-.412 1.026-.618 1.602-1.664 4.675-3.456 10.319-5.164 14.977-.71 1.934-1.396 3.637-2.568 6.482a.344.344 0 0 1-.479.174c-1.922-1.058-4.381-2.426-5.675-3.88 0 0-.05-.7.009-1.146.959-7.358 1.872-14.911 3.127-24.004a.56.56 0 0 1 .817-.417c2.91 1.324 5.132 2.348 6.89 3.313.865.573 2.185 1.334 3.371 2.098l-.002-.003Zm-9.56-3.051c-.99 7.51-1.974 15.653-2.918 22.818 1.125 1.078 1.981 1.3 3.498 1.887 2.48-6.788 4.815-14.036 7.195-20.551-2.74-1.67-5.924-3.085-7.774-4.156l-.001.002Z" fill="#000"/><path d="m119.474 50.075-.029.17c-.647 3.765-.669 3.796-3.517 1.504-.431-.347-.765-1.119-.757-1.698.019-1.596.233-3.194.388-4.79.097-1.003.597-1.18 1.331-.61.922.714 2.114 1.31 2.959 2.115.243.231.319.778.285 1.165-.06.678-.536 1.469-.681 2.141l.022.004h-.001Z" fill="#E24F53"/><path d="M118.728 53.974c-1.28-.784-2.78-1.538-4.203-2.574a.57.57 0 0 1-.232-.502c.444-2.303.562-4.265 1.206-6.712a.53.53 0 0 1 .439-.485c.761-.125 1.894.534 1.894.534s2.231 1.2 3.137 2.05c.379.355.586.626.517 1.034-.679 1.89-1.416 4.348-1.946 5.962-.04.173-.213.934-.814.69l.002.003Zm1.158-6.443c-.975-.815-1.991-1.194-3.161-1.915-.233 1.247-.504 3.179-.787 4.762.814.56 1.727 1.197 2.558 1.72.415-1.2 1.077-3.255 1.39-4.567ZM71.561 52.573c-1.852-.525-3.417-1.36-4.68-2.348a.364.364 0 0 1 .068-.613c2.104-1.008 4.105-1.248 6.451-.231a.362.362 0 0 1 .199.43c-.333 1.18-.739 2.151-1.762 2.732a.364.364 0 0 1-.276.03ZM57.962 61.848c-.057-.096.061-.201.15-.136 1.804 1.315 3.438 2.806 5.356 3.644 1.869.816 4.026.973 5.987 1.334.16.03.19.247.046.323-2.754 1.41-9.325-1.39-11.539-5.165ZM66.055 58.82c3.038-1.423 6.076-2.847 9.07-4.248.395.12-.108.761-2.39 2.04a28.14 28.14 0 0 1-3.132 1.49c-1.1.448-2.243.789-3.367 1.177-.388-.068-.615-.177-.18-.457v-.002ZM26.488 9.373c.73-1.154 10.472 20.154 9.254 19.951-1.964-2.973-3.233-7.606-5.073-10.756-.398.626-.61 1.421-1.015 2.436-1.218-.609-2.232-1.015-2.232-1.015-.508.339-1.336 1.745-1.624 3.044-.933 4.22-.31 7.639 2.03 11.162.052.08.306.459.343.708a.146.146 0 0 1-.106.163c-.325.083-.718-.2-.863-.382-3.08-3.896-4.004-11.929.004-15.75l1.916.911c.374-.773.735-1.52 1.14-2.362l-3.772-8.11h-.002ZM55.275 41.036c2.588.465 2.994 4.93.934 5.49-1.39.048-2.239-1.129-2.452-2.495-.227-1.448.047-2.731 1.518-2.995ZM73.254 38.66c1.656 0 2.482 1.575 2.67 3.044.126.984-.202 2.232-1.698 2.263-1.751-.03-2.766-4.901-.972-5.307Z" fill="#000"/></g><defs><clipPath id="a"><path fill="#fff" transform="translate(.5)" d="M0 0h131v105H0z"/></clipPath></defs></svg>