<svg width="204" height="183" xmlns="http://www.w3.org/2000/svg" xmlns:xlink="http://www.w3.org/1999/xlink"><defs><path id="a" d="M0 0h92v59H0z"/></defs><g fill="none" fill-rule="evenodd"><path d="M114.49 12C67.274 12 29 50.275 29 97.49c0 47.213 38.275 85.488 85.49 85.488 47.213 0 85.488-38.275 85.488-85.489C199.978 50.275 161.703 12 114.49 12z" fill-opacity=".3" fill="#F0F0F4"/><path fill="#9E9EAC" d="M203.646 148.526v7.9H24.298v-7.9l29.103-5.267H171.91z"/><path d="M187.71 45.818v94.807c0 4.346-3.554 7.9-7.9 7.9H48.134c-4.345 0-7.9-3.554-7.9-7.9V45.818c0-4.345 3.555-7.9 7.9-7.9H179.81c4.346 0 7.9 3.555 7.9 7.9" fill="#9E9EAC"/><path d="M48.134 48.719v86.64a2.641 2.641 0 002.633 2.633h126.41a2.641 2.641 0 002.633-2.634v-86.64a3 3 0 00-3-3H51.134a3 3 0 00-3 3z" fill="#391E6F"/><path fill="#FFF" opacity=".1" d="M48.134 53.719v65.793l65.793-65.793z"/><path d="M177.177 45.818H50.767a2.641 2.641 0 00-2.633 2.634v5.267H179.81v-5.267a2.641 2.641 0 00-2.633-2.634" fill-opacity=".5" fill="#000" opacity=".3"/><path d="M178.494 145.892H49.45a1.316 1.316 0 110-2.633h129.043a1.316 1.316 0 110 2.633" fill="#8F8F9D"/><path stroke="#80808E" stroke-width="2" stroke-linecap="round" stroke-linejoin="round" d="M104.362 150.964h18.435"/><rect fill="#D8D8D8" x="68" y="67" width="93" height="71" rx="2"/><circle fill="#B2B2B2" cx="73.5" cy="71.5" r="1.5"/><path d="M73.5 73a1.5 1.5 0 100-3 1.5 1.5 0 000 3zm5 0a1.5 1.5 0 100-3 1.5 1.5 0 000 3z" fill="#B2B2B2"/><path fill="#EFEFEF" d="M68 76h93v62H68z"/><g transform="translate(69 79)"><mask id="b" fill="#fff"><use xlink:href="#a"/></mask><g mask="url(#b)"><path d="M16.638 19.24h58.145a1 1 0 011 1v82.632a1 1 0 01-1 1H16.638a1 1 0 01-1-1V20.239a1 1 0 011-1z" fill="#FFF"/><path fill-opacity=".5" fill="#D8D8D8" d="M46.57 34.275h23.198v4.296H46.57zm0-6.873h14.606v4.296H46.569zM20.793 50.6h48.975v2.578H20.793zm0 5.156h40.383v2.577H20.793zm0 5.155h48.975v2.578H20.793zm0 5.155H67.19v2.578H20.793zm0 5.156H35.4v2.577H20.793zm0 8.592h40.383v2.577H20.793zm0 5.155h48.975v2.578H20.793zm0 5.155h45.538v2.578H20.793zm0 5.156h6.014v2.577h-6.014z"/><path d="M31.533 23.589c5.182 0 9.398 4.217 9.398 9.398 0 5.18-4.216 9.397-9.398 9.397-5.182 0-9.398-4.217-9.398-9.397 0-5.181 4.216-9.398 9.398-9.398zm0 1.342c-4.442 0-8.055 3.613-8.055 8.056a8.01 8.01 0 001.482 4.651c-.18-.61.633-2.133 1.14-2.533C27.5 34 29.455 35 31.5 35c2.046 0 4-1 5.466.105.377.435 1.307 1.932 1.14 2.538a8.032 8.032 0 001.482-4.656c0-4.443-3.612-8.056-8.055-8.056zm0 1.343a4.027 4.027 0 110 8.055 4.027 4.027 0 010-8.055z" fill="#049AF1"/></g></g><g fill-rule="nonzero"><path d="M75.347 35.283c0-3.673-.108-7.838-.108-12.53a4.02 4.02 0 00-3.336-3.95l-31.95-5.533a4.26 4.26 0 00-.685 0c-.23.003-.458.023-.684.06L6.645 18.804a3.997 3.997 0 00-3.336 4.008c0 4.693 0 8.858-.108 12.53-.084 6.626-.144 11.415.12 14.404C5.06 68.854 9.13 77.58 15.959 86.978a37.46 37.46 0 0022.529 14.51 4.225 4.225 0 001.572 0 37.976 37.976 0 0022.529-14.51c6.853-9.398 10.898-18.124 12.626-37.292.276-2.989.216-7.778.132-14.403z" fill="#029BF0"/><path d="M38.692 19.416l-26.79 4.597A3.385 3.385 0 009.13 27.36c0 3.937 0 7.43-.084 10.514-.072 5.558-.12 9.602.108 12.075C10.57 66.02 13.93 73.355 19.716 81.24A31.422 31.422 0 0038.62 93.4c.216.018.432.018.648 0V19.367a3.144 3.144 0 00-.576.049z" fill="#00BBF6"/><path d="M69.526 37.875c0-3.084-.084-6.577-.096-10.514a3.36 3.36 0 00-2.784-3.348l-26.802-4.597a3.109 3.109 0 00-.576 0v74.043c.22.018.44.018.66 0a31.83 31.83 0 0018.892-12.23c5.761-7.874 9.122-15.208 10.598-31.28.228-2.496.18-6.516.108-12.074z" fill="#8BEDFF"/></g><path d="M8.5 9.5C11.25 6.75 10.5 2 12 2s.75 4.75 3.5 7.5 7.5 2 7.5 3.5-4.643.143-7.5 3-2 8-3.5 8-.857-5.357-3.5-8S1 14.5 1 13s4.75-.75 7.5-3.5zM5.75 77.75C7.125 76.375 6.75 74 7.5 74s.375 2.375 1.75 3.75 3.75 1 3.75 1.75-2.321.071-3.75 1.5c-1.429 1.429-1 4-1.75 4s-.429-2.679-1.75-4C4.429 79.679 2 80.25 2 79.5s2.375-.375 3.75-1.75zm9.318 10.318C16.193 86.943 15.886 85 16.5 85s.307 1.943 1.432 3.068S21 88.886 21 89.5s-1.9.058-3.068 1.227C16.763 91.897 17.114 94 16.5 94s-.35-2.192-1.432-3.273C13.987 89.647 12 90.114 12 89.5c0-.614 1.943-.307 3.068-1.432zm51.83-63.17C67.96 23.835 67.67 22 68.25 22c.58 0 .29 1.835 1.352 2.898 1.063 1.062 2.898.772 2.898 1.352 0 .58-1.794.055-2.898 1.16-1.104 1.103-.772 3.09-1.352 3.09-.58 0-.331-2.07-1.352-3.09C65.877 26.387 64 26.83 64 26.25s1.835-.29 2.898-1.352zM52.92 4.92C54.358 3.483 53.966 1 54.75 1s.392 2.483 1.83 3.92c1.437 1.438 3.92 1.046 3.92 1.83s-2.427.075-3.92 1.568c-1.494 1.494-1.046 4.182-1.83 4.182s-.448-2.8-1.83-4.182C51.54 6.937 49 7.534 49 6.75s2.483-.392 3.92-1.83zM64.5 78.5c2.75-2.75 2-7.5 3.5-7.5s.75 4.75 3.5 7.5 7.5 2 7.5 3.5-4.643.143-7.5 3-2 8-3.5 8-.857-5.357-3.5-8-7.5-1.5-7.5-3 4.75-.75 7.5-3.5z" fill="#FFDA73"/></g></svg>