<svg width="270" height="270" xmlns="http://www.w3.org/2000/svg"><g fill="none" fill-rule="evenodd"><path d="M135.013 49C87.51 49 49 87.51 49 135.013c0 47.504 38.51 86.013 86.013 86.013 47.504 0 86.013-38.51 86.013-86.013 0-47.504-38.51-86.013-86.013-86.013z" fill-opacity=".4" fill="#F0F0F4"/><g transform="translate(157 104)"><path d="M15.693 10.049c1.124-4.496 8.215-2.054 6.161-6.16-2.054-4.108 32.857-6.162 32.857 0 0 6.16 4.107 2.053 6.16 6.16.594 1.187-11.83 12.246-12.32 14.375-1.408 6.112 32.678 30.803 25.378 55.397-7.3 24.594-64.822 24.643-72.322 0-7.5-24.642 20.357-34.285 24.354-53.344 1.406-6.702-10.65-14.896-10.268-16.428z" fill="#FFDA73"/><path d="M54.711 3.888c0 6.16 4.107 2.054 6.16 6.16.594 1.188-11.83 12.247-12.32 14.376-.448 1.944-3.852 3.645-3.015.219C47.328 17.3 54.71-.312 54.71 3.888z" fill="#FFC830"/><path d="M48.55 24.424c-1.407 6.112 32.68 30.803 25.38 55.396-2.334 7.86-9.797 13.214-19.117 16.055 10.01-36.947 1.598-52.96-4.455-58.376-10.178-9.107-1.316-15.205-1.807-13.076z" fill="#FFC830"/><path d="M50.486 69.457c2.675 0 5-1.1 6.2-2.7.15-.2.25-.45.25-.75 0-.75-.6-1.35-1.35-1.35-.35 0-.675.15-1.075.55-1.2 1.225-2.175 1.65-4.025 1.65-2.5 0-3.925-.975-4.525-3.325h3.025c.6 0 1.075-.475 1.075-1.075s-.475-1.075-1.075-1.075H45.66v-1.1h3.325c.6 0 1.075-.475 1.075-1.075s-.475-1.075-1.075-1.075H45.91c.575-2.4 2.025-3.6 4.575-3.6 1.825 0 2.9.6 3.9 1.75.325.375.675.5 1.025.5.75 0 1.35-.6 1.35-1.325 0-.275-.075-.525-.275-.825-1.025-1.5-2.975-2.7-6-2.7-4.2 0-6.85 2.025-7.6 6.2h-.4c-.6 0-1.075.475-1.075 1.075s.475 1.075 1.075 1.075h.175v1.1h-.175c-.6 0-1.075.475-1.075 1.075s.475 1.075 1.075 1.075h.425c.8 4.125 3.45 5.925 7.575 5.925zM29.549 84.05c.728 0 1.316-.589 1.316-1.317v-1.568c3.752-.364 5.712-2.38 5.712-5.46 0-7-10.22-5.292-10.22-8.96 0-1.12.868-2.212 3.192-2.212 1.596 0 3.052.644 3.92 1.484.42.392.812.616 1.204.616.84 0 1.512-.672 1.512-1.484 0-.336-.112-.644-.28-.896-.952-1.344-2.8-2.24-5.04-2.52V60.11c0-.728-.588-1.316-1.316-1.316-.7 0-1.288.588-1.288 1.316v1.596c-3.584.392-5.152 2.548-5.152 5.04 0 6.748 10.22 4.872 10.22 8.96 0 1.736-1.232 2.576-3.78 2.576-1.932 0-3.416-.952-4.592-2.128-.28-.28-.616-.616-1.232-.616-.812 0-1.484.672-1.484 1.512 0 .28.084.56.224.784.952 1.54 3.08 2.996 5.796 3.332v1.568c0 .728.588 1.316 1.288 1.316z" fill-opacity=".65" fill="#000" fill-rule="nonzero"/><path d="M25.961 24.424c4.59.41 8.258.661 11.003.755 2.745.093 6.495.093 11.25 0m-22.466 2.025c3.36.418 7.276.815 11.752 1.189 4.476.374 8.386.305 11.73-.206M39.143 45.71c.738-1.193.738-3.931 0-8.214s1.315-7.021 6.16-8.215" stroke="#FF9400" stroke-width="2" stroke-linecap="round"/><circle fill="#FF9400" cx="45" cy="28.929" r="2.143"/><path d="M51.36 45.71c-.324-2.413-1.195-5.507-2.61-9.281-1.415-3.775-2.599-6.157-3.55-7.148" stroke="#FF9400" stroke-width="2" stroke-linecap="round"/></g><g transform="translate(206.531 192)"><path d="M27.443 14.063c.641 0 1.16-.499 1.16-1.114V1.412c0-.616-.519-1.114-1.16-1.114H1.911C1.27.298.75.796.75 1.412v11.537c0 .615.519 1.114 1.16 1.114h25.532z" fill="#3FE1B0"/><path d="M28.432 14.203c.528 0 .74-.203.74-.678V.678c0-.475-.212-.678-.74-.678H.74C.21 0 0 .203 0 .678v12.847c0 .475.423.678.74.678h27.692z" fill="#3FE1B0"/><path d="M28.009 14.203c.493-.053.74-.279.74-.678V.678c0-.599-.098-.678-.74-.678H1.163C.52 0 .423.08.423.678v12.847c0 .598.098.678.74.678h26.846z" fill="#3FE1B0"/><path d="M27.96 13.797c.662 0 .776-.109.776-.743V1.149c0-.634-.114-.743-.775-.743H1.198c-.662 0-.775.109-.775.743v11.905c0 .54.211.743.775.743H27.96z" stroke="#2AC3A2"/><path d="M14.586 12.58c3.152 0 4.862-2.453 4.862-5.479 0-3.025-1.71-5.478-4.862-5.478S9.724 4.076 9.724 7.101c0 3.026 1.71 5.479 4.862 5.479z" stroke="#2AC3A2"/><path d="M14.586 11.768c2.685 0 4.016-2.09 4.016-4.667s-1.331-4.666-4.016-4.666-4.017 2.09-4.017 4.666c0 2.578 1.332 4.667 4.017 4.667z" fill="#2AC3A2"/><path d="M18.49 8.349a6.73 6.73 0 00.112-1.248c0-2.577-1.331-4.666-4.016-4.666-1.624 0-2.753.764-3.392 1.938L18.49 8.35z" fill-opacity=".1" fill="#000"/><ellipse fill="#2AC3A2" cx="4.862" cy="7.101" rx="1.902" ry="1.826"/><ellipse fill="#2AC3A2" cx="24.31" cy="7.101" rx="1.902" ry="1.826"/></g><g transform="translate(222.159 203)"><ellipse fill="#FFDA72" cx="6.251" cy="6" rx="6.251" ry="6"/><ellipse fill="#FFC559" cx="6.251" cy="6" rx="5.06" ry="4.857"/><path d="M12.011 8.335c.124-.282.491-1.832.491-2.335 0-3.314-2.799-6-6.251-6a6.347 6.347 0 00-4.75 2.1l10.51 6.235z" fill-opacity=".2" fill="#FFF"/></g><g transform="translate(232.577 204)"><ellipse fill="#C7C7C7" cx="4.688" cy="4.5" rx="4.688" ry="4.5"/><ellipse fill="#B3B3B3" cx="4.688" cy="4.5" rx="3.795" ry="3.643"/><path d="M9.008 6.251c.094-.211.369-1.374.369-1.751 0-2.485-2.1-4.5-4.689-4.5a4.76 4.76 0 00-3.563 1.575l7.883 4.676z" fill-opacity=".2" fill="#FFF"/></g><path d="M64 79h58a5 5 0 015 5v79.705a5 5 0 01-5 5H64a5 5 0 01-5-5V84a5 5 0 015-5z" fill="#FFF"/><path fill-opacity=".5" fill="#D8D8D8" d="M93.91 87.652h15.483v4.553H93.91zm0 7.286h24.59v4.553H93.91zm-27.32 17.303h51.91v2.732H66.59zm0 5.464h42.803v2.733H66.589zm0 5.465h51.91v2.732H66.59zm0 5.464h49.178v2.732H66.589zm0 5.464h15.48v2.732H66.59zm0 9.107h42.803v2.733H66.589zm0 5.465h51.91v2.732H66.59zm0 5.464h48.267v2.732H66.59zm0 5.464h6.374v2.732H66.59z"/><path d="M77.5 85c4.687 0 8.5 3.814 8.5 8.5s-3.813 8.5-8.5 8.5c-4.687 0-8.5-3.814-8.5-8.5s3.813-8.5 8.5-8.5zm0 1.214a7.293 7.293 0 00-7.286 7.286c0 1.565.496 3.016 1.339 4.205-.159-.554.575-1.927 1.033-2.289 1.266-1 3.035-.095 4.884-.095 1.85 0 3.618-.904 4.944.095.34.393 1.18 1.745 1.032 2.294a7.26 7.26 0 001.34-4.21 7.293 7.293 0 00-7.286-7.286zm0 1.215a3.643 3.643 0 110 7.285 3.643 3.643 0 010-7.285z" fill="#049AF1"/><path d="M37.265 142.13h34a1 1 0 011 1v20.153a1 1 0 01-1 1h-34a1 1 0 01-1-1V143.13a1 1 0 011-1z" fill="#016BE4"/><path fill="#5F5F5F" d="M36.265 144.898h36v4.615h-36z"/><path fill="#FFF" d="M39.034 151.36h30.462v4.616H39.034z"/><path d="M47.192 155.097h34a1 1 0 011 1v20.154a1 1 0 01-1 1h-34a1 1 0 01-1-1v-20.154a1 1 0 011-1z" fill="#FFC55A"/><path fill="#7B7B7B" d="M48.96 171.713h11.078v1.846H48.96zm24 0h6.462v1.846h-6.461zm-24-4.616h6.462v2.77h-6.461zm7.386 0h7.384v2.77h-7.384zm8.307 0h6.462v2.77h-6.462zm7.385 0h7.384v2.77h-7.384z"/><path d="M73.038 158.405h5.384a1 1 0 011 1v3.077a1 1 0 01-1 1h-5.384a1 1 0 01-1-1v-3.077a1 1 0 011-1z" fill-opacity=".8" fill="#FFF"/><g><path d="M35.64 108.077h37.663a3.64 3.64 0 013.64 3.64v4.388a3.64 3.64 0 01-3.64 3.64H35.64a3.64 3.64 0 01-3.64-3.64v-4.387a3.64 3.64 0 013.64-3.64" fill="#0090ED"/><path fill="#80EBFF" d="M38.347 113.124l-.402-1.745h1.708l-.402 1.745 1.335-1.216.832 1.488-1.708.515 1.708.544-.875 1.46-1.292-1.217.402 1.746h-1.708l.416-1.774-1.349 1.245-.847-1.488 1.766-.53-1.766-.53.876-1.459zm31.3 0l-.402-1.745h1.708l-.402 1.745 1.335-1.216.832 1.488-1.708.515 1.708.544-.875 1.46-1.292-1.217.402 1.746h-1.708l.416-1.774-1.349 1.245-.847-1.488 1.766-.53-1.766-.53.876-1.459zm-7.825 0l-.402-1.745h1.708l-.402 1.745 1.335-1.216.832 1.488-1.708.515 1.708.544-.875 1.46-1.292-1.217.402 1.746H61.42l.416-1.774-1.349 1.245-.847-1.488 1.766-.53-1.766-.53.876-1.459zm-7.825 0l-.402-1.745h1.708l-.402 1.745 1.335-1.216.832 1.488-1.708.515 1.708.544-.875 1.46-1.292-1.217.402 1.746h-1.708l.416-1.774-1.349 1.245-.847-1.488 1.766-.53-1.766-.53.876-1.459zm-7.825 0l-.402-1.745h1.708l-.402 1.745 1.335-1.216.832 1.488-1.708.515 1.708.544-.875 1.46-1.292-1.217.402 1.746H45.77l.416-1.774-1.349 1.245-.847-1.488 1.766-.53-1.766-.53.876-1.459z"/></g><g><path d="M20.802 89H60.14c2.1 0 3.802 1.702 3.802 3.802v4.582c0 2.1-1.702 3.803-3.802 3.803H20.802A3.802 3.802 0 0117 97.384v-4.582c0-2.1 1.702-3.802 3.802-3.802" fill="#AB71FF"/><path fill="#D9BFFF" d="M23.629 94.271l-.42-1.823h1.784l-.42 1.823 1.394-1.27.87 1.554-1.784.538 1.784.568-.915 1.525-1.349-1.27.42 1.822h-1.784l.435-1.853-1.41 1.3-.884-1.554 1.844-.553-1.844-.552.915-1.525zm32.691 0l-.42-1.823h1.784l-.42 1.823 1.394-1.27.87 1.554-1.784.538 1.784.568-.914 1.525-1.35-1.27.42 1.822H55.9l.435-1.853-1.409 1.3-.884-1.554 1.843-.553-1.843-.552.914-1.525zm-8.173 0l-.42-1.823h1.784l-.42 1.823 1.395-1.27.87 1.554-1.785.538 1.784.568-.914 1.525-1.35-1.27.42 1.822h-1.783l.434-1.853-1.409 1.3-.884-1.554 1.844-.553-1.844-.552.914-1.525zm-8.173 0l-.42-1.823h1.785l-.42 1.823 1.394-1.27.87 1.554-1.785.538 1.784.568-.914 1.525-1.35-1.27.42 1.822h-1.783l.434-1.853-1.408 1.3-.885-1.554 1.844-.553-1.844-.552.915-1.525zm-8.172 0l-.42-1.823h1.784l-.42 1.823 1.394-1.27.87 1.554-1.784.538 1.784.568-.915 1.525-1.35-1.27.42 1.822h-1.783l.435-1.853-1.41 1.3-.884-1.554 1.844-.553-1.844-.552.915-1.525z"/></g><g><path d="M159.5 199.953c-14 7.196-27.333 8.862-40 5-12.667-3.862-21-11.696-25-23.5" stroke="#FF7580" stroke-width="4" stroke-linecap="round"/><path d="M94.058 175.75l8.739 8.274a1 1 0 01-.345 1.666l-10.115 3.682A1 1 0 0191 188.318l1.376-11.956a1 1 0 011.681-.612z" fill="#FF7580"/></g><g><path d="M114.5 70c14-7.196 27.333-8.862 40-5 12.667 3.862 21 11.696 25 23.5" stroke="#FF7580" stroke-width="4" stroke-linecap="round"/><path d="M179.942 94.203l-8.739-8.274a1 1 0 01.345-1.666l10.115-3.682A1 1 0 01183 81.635l-1.376 11.956a1 1 0 01-1.681.612z" fill="#FF7580"/></g></g></svg>
