<svg width="251" height="173" xmlns="http://www.w3.org/2000/svg">
  <g fill="none" fill-rule="evenodd">
    <path d="M118.013 0C70.51 0 32 38.51 32 86.013c0 47.504 38.51 86.013 86.013 86.013 47.504 0 86.013-38.51 86.013-86.013C204.026 38.51 165.516 0 118.013 0z" fill-opacity=".4" fill="#F0F0F4"/>
    <g transform="translate(140 55)">
      <path d="M15.693 10.049c1.124-4.496 8.215-2.054 6.161-6.16-2.054-4.108 32.857-6.162 32.857 0 0 6.16 4.107 2.053 6.16 6.16.594 1.187-11.83 12.246-12.32 14.375-1.408 6.112 32.678 30.803 25.378 55.397-7.3 24.594-64.822 24.643-72.322 0-7.5-24.642 20.357-34.285 24.354-53.344 1.406-6.702-10.65-14.896-10.268-16.428z" fill="#FFDA73"/>
      <path d="M54.711 3.888c0 6.16 4.107 2.054 6.16 6.16.594 1.188-11.83 12.247-12.32 14.376-.448 1.944-3.852 3.645-3.015.219C47.328 17.3 54.71-.312 54.71 3.888z" fill="#FFC830"/>
      <path d="M48.55 24.424C47.143 30.536 81.23 55.227 73.93 79.82c-2.334 7.86-9.797 13.214-19.117 16.055 10.01-36.947 1.598-52.96-4.455-58.376-10.178-9.107-1.316-15.205-1.807-13.076z" fill="#FFC830"/>
      <text font-family="Bariol-Bold, Bariol" font-size="25" font-weight="bold" letter-spacing="-.192" fill="#000" fill-opacity=".65">
        <tspan x="41.786" y="69.107">€</tspan>
      </text>
      <text font-family="Bariol-Bold, Bariol" font-size="28" font-weight="bold" letter-spacing="-.215" fill="#000" fill-opacity=".65">
        <tspan x="21.429" y="80.857">$</tspan>
      </text>
      <path d="M25.961 24.424c4.59.41 8.258.661 11.003.755 2.745.093 6.495.093 11.25 0M25.748 27.204c3.36.418 7.276.815 11.752 1.189 4.476.374 8.386.305 11.73-.206M39.143 45.71c.738-1.193.738-3.931 0-8.214s1.315-7.021 6.16-8.215" stroke="#FF9400" stroke-width="2" stroke-linecap="round"/>
      <circle fill="#FF9400" cx="45" cy="28.929" r="2.143"/>
      <path d="M51.36 45.71c-.324-2.413-1.195-5.507-2.61-9.281-1.415-3.775-2.599-6.157-3.55-7.148" stroke="#FF9400" stroke-width="2" stroke-linecap="round"/>
    </g>
    <g transform="translate(189.531 143)">
      <path d="M27.443 14.063c.641 0 1.16-.499 1.16-1.114V1.412c0-.616-.519-1.114-1.16-1.114H1.911C1.27.298.75.796.75 1.412v11.537c0 .615.519 1.114 1.16 1.114h25.532z" fill="#3FE1B0"/>
      <path d="M28.432 14.203c.528 0 .74-.203.74-.678V.678c0-.475-.212-.678-.74-.678H.74C.21 0 0 .203 0 .678v12.847c0 .475.423.678.74.678h27.692z" fill="#3FE1B0"/>
      <path d="M28.009 14.203c.493-.053.74-.279.74-.678V.678c0-.599-.098-.678-.74-.678H1.163C.52 0 .423.08.423.678v12.847c0 .598.098.678.74.678h26.846z" fill="#3FE1B0"/>
      <path d="M27.96 13.797c.662 0 .776-.109.776-.743V1.149c0-.634-.114-.743-.775-.743H1.198c-.662 0-.775.109-.775.743v11.905c0 .54.211.743.775.743H27.96z" stroke="#2AC3A2"/>
      <path d="M14.586 12.58c3.152 0 4.862-2.453 4.862-5.479 0-3.025-1.71-5.478-4.862-5.478S9.724 4.076 9.724 7.101c0 3.026 1.71 5.479 4.862 5.479z" stroke="#2AC3A2"/>
      <path d="M14.586 11.768c2.685 0 4.016-2.09 4.016-4.667s-1.331-4.666-4.016-4.666-4.017 2.09-4.017 4.666c0 2.578 1.332 4.667 4.017 4.667z" fill="#2AC3A2"/>
      <path d="M18.49 8.349c.075-.397.112-.815.112-1.248 0-2.577-1.331-4.666-4.016-4.666-1.624 0-2.753.764-3.392 1.938L18.49 8.35z" fill-opacity=".1" fill="#000"/>
      <ellipse fill="#2AC3A2" cx="4.862" cy="7.101" rx="1.902" ry="1.826"/>
      <ellipse fill="#2AC3A2" cx="24.31" cy="7.101" rx="1.902" ry="1.826"/>
    </g>
    <g transform="translate(205.159 154)">
      <ellipse fill="#FFDA72" cx="6.251" cy="6" rx="6.251" ry="6"/>
      <ellipse fill="#FFC559" cx="6.251" cy="6" rx="5.06" ry="4.857"/>
      <path d="M12.011 8.335c.124-.282.491-1.832.491-2.335 0-3.314-2.799-6-6.251-6a6.347 6.347 0 00-4.75 2.1l10.51 6.235z" fill-opacity=".2" fill="#FFF"/>
    </g>
    <g transform="translate(215.577 155)">
      <ellipse fill="#C7C7C7" cx="4.688" cy="4.5" rx="4.688" ry="4.5"/>
      <ellipse fill="#B3B3B3" cx="4.688" cy="4.5" rx="3.795" ry="3.643"/>
      <path d="M9.008 6.251c.094-.211.369-1.374.369-1.751 0-2.485-2.1-4.5-4.689-4.5a4.76 4.76 0 00-3.563 1.575l7.883 4.676z" fill-opacity=".2" fill="#FFF"/>
    </g>
    <path d="M47 30h58a5 5 0 015 5v79.705a5 5 0 01-5 5H47a5 5 0 01-5-5V35a5 5 0 015-5z" fill="#FFF"/>
    <path fill-opacity=".5" fill="#D8D8D8" d="M76.91 38.652h15.483v4.553H76.91zM76.91 45.938h24.59v4.553H76.91zM49.59 63.241h51.91v2.732H49.59zM49.59 68.705h42.803v2.733H49.589zM49.59 74.17h51.91v2.732H49.59zM49.59 79.634h49.178v2.732H49.589zM49.59 85.098H65.07v2.732H49.59zM49.59 94.205h42.803v2.733H49.589zM49.59 99.67h51.91v2.732H49.59zM49.59 105.134h48.267v2.732H49.59zM49.59 110.598h6.374v2.732H49.59z"/>
    <path d="M60.5 36c4.687 0 8.5 3.814 8.5 8.5S65.187 53 60.5 53c-4.687 0-8.5-3.814-8.5-8.5s3.813-8.5 8.5-8.5zm0 1.214a7.293 7.293 0 00-7.286 7.286c0 1.565.496 3.016 1.339 4.205-.159-.554.575-1.927 1.033-2.289 1.266-1 3.035-.095 4.884-.095 1.85 0 3.618-.904 4.944.095.34.393 1.18 1.745 1.032 2.294a7.26 7.26 0 001.34-4.21 7.293 7.293 0 00-7.286-7.286zm0 1.215a3.643 3.643 0 110 7.285 3.643 3.643 0 010-7.285z" fill="#049AF1"/>
    <g>
      <path d="M20.265 93.13h34a1 1 0 011 1v20.153a1 1 0 01-1 1h-34a1 1 0 01-1-1V94.13a1 1 0 011-1z" fill="#016BE4"/>
      <path fill="#5F5F5F" d="M19.265 95.898h36v4.615h-36z"/>
      <path fill="#FFF" d="M22.034 102.36h30.462v4.616H22.034z"/>
    </g>
    <g>
      <path d="M30.192 106.097h34a1 1 0 011 1v20.154a1 1 0 01-1 1h-34a1 1 0 01-1-1v-20.154a1 1 0 011-1z" fill="#FFC55A"/>
      <path fill="#7B7B7B" d="M31.96 122.713h11.078v1.846H31.96zM55.96 122.713h6.462v1.846h-6.461zM31.96 118.097h6.462v2.77h-6.461zM39.346 118.097h7.384v2.77h-7.384zM47.653 118.097h6.462v2.77h-6.462zM55.038 118.097h7.384v2.77h-7.384z"/>
      <path d="M56.038 109.405h5.384a1 1 0 011 1v3.077a1 1 0 01-1 1h-5.384a1 1 0 01-1-1v-3.077a1 1 0 011-1z" fill-opacity=".8" fill="#FFF"/>
    </g>
    <g>
      <path d="M18.64 59.077h37.663a3.64 3.64 0 013.64 3.64v4.388a3.64 3.64 0 01-3.64 3.64H18.64a3.64 3.64 0 01-3.64-3.64v-4.387a3.64 3.64 0 013.64-3.64" fill="#0090ED"/>
      <path fill="#80EBFF" d="M21.347 64.124l-.402-1.745h1.708l-.402 1.745 1.335-1.216.832 1.488-1.708.515 1.708.544-.875 1.46-1.292-1.217.402 1.746h-1.708l.416-1.774-1.349 1.245-.847-1.488 1.766-.53-1.766-.53.876-1.459zM52.647 64.124l-.402-1.745h1.708l-.402 1.745 1.335-1.216.832 1.488-1.708.515 1.708.544-.875 1.46-1.292-1.217.402 1.746h-1.708l.416-1.774-1.349 1.245-.847-1.488 1.766-.53-1.766-.53.876-1.459zM44.822 64.124l-.402-1.745h1.708l-.402 1.745 1.335-1.216.832 1.488-1.708.515 1.708.544-.875 1.46-1.292-1.217.402 1.746H44.42l.416-1.774-1.349 1.245-.847-1.488 1.766-.53-1.766-.53.876-1.459zM36.997 64.124l-.402-1.745h1.708l-.402 1.745 1.335-1.216.832 1.488-1.708.515 1.708.544-.875 1.46-1.292-1.217.402 1.746h-1.708l.416-1.774-1.349 1.245-.847-1.488 1.766-.53-1.766-.53.876-1.459zM29.172 64.124l-.402-1.745h1.708l-.402 1.745 1.335-1.216.832 1.488-1.708.515 1.708.544-.875 1.46-1.292-1.217.402 1.746H28.77l.416-1.774-1.349 1.245-.847-1.488 1.766-.53-1.766-.53.876-1.459z"/>
    </g>
    <g>
      <path d="M3.802 40H43.14c2.1 0 3.802 1.702 3.802 3.802v4.582c0 2.1-1.702 3.803-3.802 3.803H3.802A3.802 3.802 0 010 48.384v-4.582C0 41.702 1.702 40 3.802 40" fill="#AB71FF"/>
      <path fill="#D9BFFF" d="M6.629 45.271l-.42-1.823h1.784l-.42 1.823 1.394-1.27.87 1.554-1.784.538 1.784.568-.915 1.525-1.349-1.27.42 1.822H6.209l.435-1.853-1.41 1.3-.884-1.554 1.844-.553-1.844-.552L5.265 44zM39.32 45.271l-.42-1.823h1.784l-.42 1.823 1.394-1.27.87 1.554-1.784.538 1.784.568-.914 1.525-1.35-1.27.42 1.822H38.9l.435-1.853-1.409 1.3-.884-1.554 1.843-.553-1.843-.552.914-1.525zM31.147 45.271l-.42-1.823h1.784l-.42 1.823 1.395-1.27.87 1.554-1.785.538 1.784.568-.914 1.525-1.35-1.27.42 1.822h-1.783l.434-1.853-1.409 1.3-.884-1.554 1.844-.553-1.844-.552.914-1.525zM22.974 45.271l-.42-1.823h1.785l-.42 1.823 1.394-1.27.87 1.554-1.785.538 1.784.568-.914 1.525-1.35-1.27.42 1.822h-1.783l.434-1.853-1.408 1.3-.885-1.554 1.844-.553-1.844-.552.915-1.525zM14.802 45.271l-.42-1.823h1.784l-.42 1.823 1.394-1.27.87 1.554-1.784.538 1.784.568-.915 1.525-1.35-1.27.42 1.822h-1.783l.435-1.853-1.41 1.3-.884-1.554 1.844-.553-1.844-.552.915-1.525z"/>
    </g>
    <g>
      <path d="M142.5 150.953c-14 7.196-27.333 8.862-40 5-12.667-3.862-21-11.696-25-23.5" stroke="#FF7580" stroke-width="4" stroke-linecap="round"/>
      <path d="M77.058 126.75l8.739 8.274a1 1 0 01-.345 1.666l-10.115 3.682A1 1 0 0174 139.318l1.376-11.956a1 1 0 011.681-.612z" fill="#FF7580"/>
    </g>
    <g>
      <path d="M97.5 21c14-7.196 27.333-8.862 40-5 12.667 3.862 21 11.696 25 23.5" stroke="#FF7580" stroke-width="4" stroke-linecap="round"/>
      <path d="M162.942 45.203l-8.739-8.274a1 1 0 01.345-1.666l10.115-3.682A1 1 0 01166 32.635l-1.376 11.956a1 1 0 01-1.681.612z" fill="#FF7580"/>
    </g>
  </g>
</svg>
