<svg xmlns="http://www.w3.org/2000/svg" width="128" height="128" viewBox="0 0 128 128">
  <defs>
    <style>
      .cls-5{fill:#fc8c22}
    </style>
  </defs>
  <path fill="#cc086a" d="M81.07 2H20A18 18 0 002 20v88a18 18 0 0018 18h22.89C36 90.63 99.2 32.07 81.07 2z"/>
  <path fill="#e71784" d="M109.46 33c5.87-14.19 5.76-23.84 3.54-30.3a17.93 17.93 0 00-5-.7H81.07C99.2 32.07 36 90.63 42.89 126h7.51c-4.58-31.75 37.1-39.91 59.06-93z"/>
  <path fill="#fc441c" d="M126 81V58.8a62.57 62.57 0 00-21.75 3.33A78.44 78.44 0 00126 30.9V20a18 18 0 00-13-17.28c2.22 6.46 2.33 16.11-3.54 30.3-22 53.07-63.64 61.23-59.06 93h1.73C62.42 110.77 81.07 91.92 126 81z"/>
  <path fill="#fb5d1d" d="M52.13 126h10.34c27.31-14.47 47.05-13.44 63.12-24.06l.41-.3V81c-44.93 10.92-63.58 29.77-73.87 45z"/>
  <path d="M104.25 62.13A62.57 62.57 0 01126 58.8V30.9a78.44 78.44 0 01-21.75 31.23z" class="cls-5"/>
  <path d="M62.47 126H108a18 18 0 0018-18v-6.36l-.41.3c-16.07 10.62-35.81 9.59-63.12 24.06z" class="cls-5"/>
  <path fill="#fff" d="M100 28l-6 6v12H82V34l-6-6-6 6v12H58V34l-6-6-6 6v12H34V34l-6-6-6 6v66h12V88h12v12h12V88h12v12h12V88h12v12h12V34zM34 82V52h12v30zm24 0V52h12v30zm24 0V52h12v30z"/>
</svg>
