<svg xmlns="http://www.w3.org/2000/svg" width="640" height="360" fill="none" viewBox="0 0 640 360">
  <path fill="#333336" d="M0 0h640v360H0z"/>
  <path fill="#0290FF" stroke="#333336" stroke-width="1.8" d="M115 48c0-3.3137 2.686-6 6-6h261.333c3.314 0 6 2.6863 6 6v14H115V48Z"/>
  <ellipse cx="128.706" cy="51.7974" fill="#333336" rx="2.70555" ry="2.66651"/>
  <ellipse cx="138.982" cy="51.7974" fill="#333336" rx="2.70555" ry="2.66651"/>
  <ellipse cx="149.269" cy="51.7974" fill="#333336" rx="2.70555" ry="2.66651"/>
  <path fill="#F8F6F4" stroke="#333336" stroke-width="1.8" d="M115 62h273.333v158c0 3.314-2.686 6-6 6H121c-3.314 0-6-2.686-6-6V62Z"/>
  <path fill="#FF7139" stroke="#333336" stroke-width="1.8" d="M251 140c0-3.314 2.686-6 6-6h261.333c3.314 0 6 2.686 6 6v14H251v-14Z"/>
  <ellipse cx="264.705" cy="143.797" fill="#333336" rx="2.70554" ry="2.66648"/>
  <ellipse cx="274.981" cy="143.797" fill="#333336" rx="2.70554" ry="2.66648"/>
  <ellipse cx="285.268" cy="143.797" fill="#333336" rx="2.70554" ry="2.66648"/>
  <path fill="#F8F6F4" stroke="#333336" stroke-width="1.8" d="M251 154h273.333v158c0 3.314-2.686 6-6 6H257c-3.314 0-6-2.686-6-6V154Z"/>
  <rect width="53.3333" height="53.3333" x="146.667" y="203" fill="#0290FF" stroke="#333336" stroke-width="1.8" rx="6.4"/>
  <path fill="#fff" fill-rule="evenodd" d="m175.342 212.333-17.775 21.331h15.998l-1.778 14.22 17.776-21.331h-15.998l1.777-14.22Z" clip-rule="evenodd"/>
  <path fill="#FBF0BA" stroke="#333336" stroke-width="1.8" d="M294 178.333h128v32H294z"/>
  <path fill="#333336" d="M347.103 198.45c-1.837 0-2.96-.725-3.767-1.755l1.439-1.147c.562.89 1.322 1.346 2.34 1.346.924 0 1.404-.445 1.404-1.065 0-.795-.819-.959-2.001-1.228-1.275-.269-2.702-.679-2.702-2.41 0-1.404 1.252-2.528 3.03-2.528 1.509 0 2.457.527 3.323 1.486l-1.346 1.053c-.444-.655-1.018-1.064-2-1.064-.925 0-1.323.456-1.323 1.017 0 .691.855.819 1.919 1.065 1.311.281 2.82.702 2.82 2.551 0 1.462-1.229 2.679-3.136 2.679Zm7.213.012c-2.036 0-3.346-1.439-3.346-3.276 0-1.837 1.427-3.3 3.311-3.3 1.895 0 3.264 1.369 3.264 3.241v.609h-5.019c.21.819.877 1.333 1.813 1.333.749 0 1.252-.327 1.568-.842l1.322.772c-.632.889-1.521 1.463-2.913 1.463Zm-.035-5.207c-.819 0-1.451.48-1.708 1.217h3.369c-.21-.784-.819-1.217-1.661-1.217Zm4.125 5.078v-9.22h1.603v3.674c.421-.561 1.065-.901 1.837-.901 1.497 0 2.457.983 2.457 2.633v3.814h-1.662v-3.568c0-.901-.432-1.463-1.286-1.463-.761 0-1.346.562-1.346 1.544v3.487h-1.603Zm6.94 0v-6.318h1.592v.971c.304-.749.936-1.088 1.743-1.088.421 0 .796.105 1.065.246l-.585 1.591c-.176-.129-.48-.222-.843-.222-.83 0-1.369.421-1.369 1.486v3.334h-1.603Zm10.09.129c-1.498 0-2.446-.562-2.949-1.568l1.556-.608c.281.561.784.854 1.451.854.655 0 1.006-.316 1.006-.691 0-.456-.678-.561-1.486-.725-1.064-.222-2.246-.55-2.246-1.884 0-1.064 1.03-1.989 2.586-1.977 1.334 0 2.129.503 2.714 1.345l-1.474.597c-.257-.421-.655-.667-1.24-.667-.632 0-.936.258-.936.609 0 .397.515.503 1.439.702 1.053.21 2.293.573 2.293 1.93 0 .983-.877 2.094-2.714 2.083Zm6.634 0c-1.895 0-3.322-1.451-3.322-3.288 0-1.86 1.439-3.288 3.311-3.288 1.462 0 2.585.808 3.077 2.001l-1.486.597c-.258-.679-.843-1.088-1.568-1.088-.971 0-1.732.795-1.732 1.778 0 .959.773 1.755 1.744 1.755.749 0 1.31-.456 1.568-1.1l1.509.62c-.538 1.17-1.591 2.013-3.101 2.013Zm3.851-.129v-9.22h1.603v3.674c.421-.561 1.065-.901 1.837-.901 1.497 0 2.457.983 2.457 2.633v3.814h-1.662v-3.568c0-.901-.432-1.463-1.287-1.463-.76 0-1.345.562-1.345 1.544v3.487h-1.603Zm6.94 0v-6.318h1.615v.796c.41-.574 1.065-.925 1.849-.925 1.497 0 2.445.983 2.445 2.633v3.814h-1.65v-3.568c0-.901-.433-1.463-1.287-1.463-.76 0-1.345.562-1.345 1.544v3.487h-1.627Zm10.099.129c-2.035 0-3.346-1.439-3.346-3.276 0-1.837 1.428-3.3 3.311-3.3 1.896 0 3.265 1.369 3.265 3.241v.609h-5.02c.211.819.878 1.333 1.814 1.333.749 0 1.252-.327 1.568-.842l1.322.772c-.632.889-1.521 1.463-2.914 1.463Zm-.035-5.207c-.819 0-1.45.48-1.708 1.217h3.37c-.211-.784-.819-1.217-1.662-1.217Zm4.126 5.078v-9.22h1.614v9.22h-1.614Zm2.701 0v-9.22h1.615v9.22h-1.615Z"/>
  <path fill="#333336" d="m294.175 226.333 3.229-8.541h1.626l3.23 8.541h-1.697l-.561-1.556h-3.569l-.561 1.556h-1.697Zm4.048-6.447-1.24 3.393h2.469l-1.229-3.393Zm4.651 6.447v-6.318h1.615v.796c.409-.574 1.064-.925 1.848-.925 1.498 0 2.446.983 2.446 2.633v3.814h-1.65v-3.568c0-.901-.433-1.463-1.287-1.463-.761 0-1.346.562-1.346 1.544v3.487h-1.626Zm6.419-4.867v-1.451h1.041v-.222c0-2.048.643-2.68 2.703-2.68h.421v1.475h-.269c-1.123 0-1.252.163-1.252 1.123v.304h1.521v1.451h-1.521v4.867h-1.603v-4.867h-1.041Zm6.606 4.996c-1.381 0-2.2-.772-2.2-1.884 0-1.31 1.088-2.118 2.843-2.118h1.661v-.082c0-.678-.456-1.146-1.368-1.146-.714 0-1.194.304-1.486.831l-1.486-.738c.643-.842 1.568-1.439 2.983-1.439 1.861 0 2.925.971 2.925 2.563v3.884h-1.556v-.971c-.456.655-1.322 1.1-2.316 1.1Zm.468-1.334c.772 0 1.532-.468 1.848-1.147v-.339h-1.486c-.959 0-1.345.304-1.345.796 0 .456.316.69.983.69Zm4.449 1.205v-6.318h1.615v.796c.409-.574 1.064-.925 1.848-.925 1.498 0 2.445.983 2.445 2.633v3.814h-1.649v-3.568c0-.901-.433-1.463-1.287-1.463-.761 0-1.346.562-1.346 1.544v3.487h-1.626Zm9.795.094c-1.556 0-3.042-1.264-3.042-3.265 0-2 1.451-3.276 3.065-3.276.843 0 1.545.375 1.966.96v-.831h1.614v5.85c0 1.837-1.369 3.171-3.311 3.171-1.439 0-2.386-.422-3.1-1.252l1.334-1.041c.421.549.889.854 1.72.854 1.017 0 1.743-.691 1.743-1.685v-.48c-.445.62-1.17.995-1.989.995Zm.316-1.498c.994 0 1.755-.784 1.755-1.778 0-.995-.761-1.779-1.755-1.779-.971 0-1.755.772-1.755 1.779 0 .994.784 1.778 1.755 1.778Zm6.835 1.404v-1.381c0-1.544 1.264-2.398 2.399-3.088.947-.585 1.755-1.053 1.755-1.744 0-.596-.433-1.018-1.217-1.018s-1.346.515-1.626 1.206l-1.463-.714c.574-1.158 1.662-1.919 3.112-1.919 1.802 0 2.855 1.076 2.855 2.457 0 1.381-1.158 2.118-2.246 2.773-.936.573-1.802 1.076-1.849 1.86h4.06v1.568h-5.78Zm9.956-1.462c1.041 0 1.685-.597 1.685-2.68v-.351c0-2.071-.679-2.597-1.674-2.597-1.017 0-1.696.585-1.696 2.597v.351c0 2.106.643 2.68 1.685 2.68Zm0 1.579c-1.978 0-3.335-1.135-3.335-4.235v-.398c0-2.96 1.463-4.142 3.335-4.142 1.907 0 3.346 1.217 3.346 4.142v.398c0 3.135-1.392 4.235-3.346 4.235Zm4.085-.117v-1.381c0-1.544 1.264-2.398 2.398-3.088.948-.585 1.755-1.053 1.755-1.744 0-.596-.432-1.018-1.216-1.018s-1.346.515-1.627 1.206l-1.462-.714c.573-1.158 1.661-1.919 3.112-1.919 1.802 0 2.855 1.076 2.855 2.457 0 1.381-1.158 2.118-2.247 2.773-.936.573-1.801 1.076-1.848 1.86h4.06v1.568h-5.78Zm9.46.117c-1.509 0-2.445-.48-3.182-1.462l1.38-1.018c.422.69 1.018.982 1.802.982.843 0 1.439-.444 1.439-1.158 0-.678-.596-1.088-1.486-1.088h-.947v-1.486h.877c.901 0 1.369-.48 1.369-1.111 0-.562-.421-1.03-1.299-1.03-.772 0-1.275.339-1.603.936l-1.368-.819c.62-.948 1.649-1.521 2.96-1.521 1.837 0 2.948.959 2.948 2.387 0 .784-.386 1.416-1.006 1.825.749.386 1.217 1.03 1.217 1.942 0 1.486-1.17 2.621-3.101 2.621Z"/>
  <path fill="#FBB397" stroke="#333336" stroke-width="1.8" d="M294 244.333h187v32H294z"/>
  <path fill="#333336" d="M387.682 264.333v-8.541h1.767l3.744 5.815v-5.815h1.591v8.541h-1.638l-3.861-6.002v6.002h-1.603Zm11.319.129c-1.896 0-3.335-1.474-3.335-3.288 0-1.825 1.439-3.288 3.335-3.288 1.884 0 3.346 1.463 3.346 3.288 0 1.814-1.439 3.288-3.346 3.288Zm.012-1.533c.959 0 1.731-.784 1.731-1.767 0-.982-.772-1.766-1.731-1.766-.972 0-1.732.784-1.732 1.766 0 .983.76 1.767 1.732 1.767Zm7.328 1.533c-1.896 0-3.323-1.451-3.323-3.288 0-1.86 1.439-3.288 3.311-3.288 1.463 0 2.586.808 3.077 2.001l-1.486.597c-.257-.679-.842-1.088-1.567-1.088-.972 0-1.732.795-1.732 1.778 0 .959.772 1.755 1.743 1.755.749 0 1.311-.456 1.568-1.1l1.509.62c-.538 1.17-1.591 2.013-3.1 2.013Zm3.851-.129v-9.22h1.602v3.674c.422-.561 1.065-.901 1.837-.901 1.498 0 2.457.983 2.457 2.633v3.814h-1.661v-3.568c0-.901-.433-1.463-1.287-1.463-.761 0-1.346.562-1.346 1.544v3.487h-1.602Zm11.997.129c-1.498 0-2.445-.562-2.949-1.568l1.557-.608c.28.561.783.854 1.45.854.656 0 1.007-.316 1.007-.691 0-.456-.679-.561-1.486-.725-1.065-.222-2.247-.55-2.247-1.884 0-1.064 1.03-1.989 2.586-1.977 1.334 0 2.129.503 2.714 1.345l-1.474.597c-.257-.421-.655-.667-1.24-.667-.632 0-.936.258-.936.609 0 .397.515.503 1.439.702 1.053.21 2.293.573 2.293 1.93 0 .983-.877 2.094-2.714 2.083Zm6.635 0c-1.896 0-3.323-1.451-3.323-3.288 0-1.86 1.439-3.288 3.311-3.288 1.462 0 2.586.808 3.077 2.001l-1.486.597c-.257-.679-.842-1.088-1.568-1.088-.971 0-1.731.795-1.731 1.778 0 .959.772 1.755 1.743 1.755.749 0 1.31-.456 1.568-1.1l1.509.62c-.538 1.17-1.591 2.013-3.1 2.013Zm3.85-.129v-9.22h1.603v3.674c.421-.561 1.065-.901 1.837-.901 1.498 0 2.457.983 2.457 2.633v3.814h-1.661v-3.568c0-.901-.433-1.463-1.287-1.463-.761 0-1.346.562-1.346 1.544v3.487h-1.603Zm6.941 0v-6.318h1.614v.796c.41-.574 1.065-.925 1.849-.925 1.497 0 2.445.983 2.445 2.633v3.814h-1.65v-3.568c0-.901-.433-1.463-1.287-1.463-.76 0-1.345.562-1.345 1.544v3.487h-1.626Zm10.099.129c-2.036 0-3.347-1.439-3.347-3.276 0-1.837 1.428-3.3 3.312-3.3 1.895 0 3.264 1.369 3.264 3.241v.609h-5.019c.21.819.877 1.333 1.813 1.333.749 0 1.252-.327 1.568-.842l1.322.772c-.632.889-1.521 1.463-2.913 1.463Zm-.035-5.207c-.819 0-1.451.48-1.709 1.217h3.37c-.211-.784-.819-1.217-1.661-1.217Zm4.125 5.078v-9.22h1.614v9.22h-1.614Zm2.701 0v-9.22h1.615v9.22h-1.615Zm5.815.129c-2.036 0-3.347-1.439-3.347-3.276 0-1.837 1.428-3.3 3.312-3.3 1.895 0 3.264 1.369 3.264 3.241v.609h-5.019c.21.819.877 1.333 1.813 1.333.749 0 1.252-.327 1.568-.842l1.322.772c-.632.889-1.521 1.463-2.913 1.463Zm-.035-5.207c-.819 0-1.451.48-1.709 1.217h3.37c-.211-.784-.819-1.217-1.661-1.217Zm4.113 5.078v-6.318h1.592v.971c.304-.749.936-1.088 1.743-1.088.421 0 .795.105 1.065.246l-.585 1.591c-.176-.129-.48-.222-.843-.222-.831 0-1.369.421-1.369 1.486v3.334h-1.603Z"/>
  <path fill="#333336" d="M299.861 292.333v-3.487h-3.451v3.487h-1.662v-8.541h1.662v3.44h3.451v-3.44h1.65v8.541h-1.65Zm5.875.129c-2.036 0-3.346-1.439-3.346-3.276 0-1.837 1.427-3.3 3.311-3.3 1.895 0 3.264 1.369 3.264 3.241v.609h-5.019c.21.819.877 1.333 1.813 1.333.749 0 1.252-.327 1.568-.842l1.322.772c-.632.889-1.521 1.463-2.913 1.463Zm-.035-5.207c-.819 0-1.451.48-1.708 1.217h3.369c-.21-.784-.819-1.217-1.661-1.217Zm6.536 5.207c-1.556 0-2.457-.995-2.457-2.656v-3.791h1.65v3.569c0 .889.421 1.439 1.287 1.439.76 0 1.322-.55 1.322-1.533v-3.475l1.638-.012v6.318l-1.615.012v-.796c-.409.574-1.053.925-1.825.925Zm4.167-5.02v-1.427h1.17v-1.369l1.591-.936v2.305h1.661v1.427h-1.661v2.598c0 .667.281.901.69.901.223 0 .398-.07.585-.234l.737 1.263c-.409.305-.924.48-1.509.48-1.322 0-2.094-.632-2.094-2.352v-2.656h-1.17Zm8.131 5.02c-2.036 0-3.347-1.439-3.347-3.276 0-1.837 1.428-3.3 3.311-3.3 1.896 0 3.265 1.369 3.265 3.241v.609h-5.02c.211.819.878 1.333 1.814 1.333.749 0 1.252-.327 1.568-.842l1.322.772c-.632.889-1.521 1.463-2.913 1.463Zm-.036-5.207c-.819 0-1.45.48-1.708 1.217h3.37c-.211-.784-.819-1.217-1.662-1.217Z"/>
  <path fill="#333336" d="M154.884 112.582c-3.909 0-6.3-1.544-8.018-3.735l3.063-2.44c1.195 1.892 2.814 2.863 4.98 2.863 1.967 0 2.988-.946 2.988-2.266 0-1.693-1.743-2.041-4.258-2.614-2.714-.573-5.752-1.444-5.752-5.1295 0-2.988 2.664-5.3784 6.449-5.3784 3.212 0 5.229 1.1205 7.072 3.1623l-2.864 2.241c-.946-1.3944-2.166-2.2659-4.258-2.2659-1.967 0-2.813.9711-2.813 2.1663 0 1.4692 1.817 1.7432 4.083 2.2662 2.789.597 6.001 1.494 6.001 5.428 0 3.112-2.614 5.702-6.673 5.702Zm15.528.025c-4.332 0-7.121-3.063-7.121-6.972 0-3.909 3.038-7.0219 7.047-7.0219 4.033 0 6.947 2.9129 6.947 6.8969v1.295h-10.682c.448 1.743 1.867 2.839 3.859 2.839 1.594 0 2.664-.697 3.337-1.793l2.813 1.643c-1.344 1.893-3.237 3.113-6.2 3.113Zm-.074-11.081c-1.743 0-3.088 1.021-3.636 2.59h7.171c-.448-1.668-1.743-2.59-3.535-2.59Zm8.957 10.807V98.887h3.511v13.446h-3.511Zm-.448-17.2308c0-1.2948.921-2.241 2.191-2.241 1.32 0 2.216.9462 2.216 2.241 0 1.2699-.896 2.1912-2.216 2.1912-1.295 0-2.191-.9213-2.191-2.1912Zm5.629 6.8228v-3.038h2.49v-2.9133l3.386-1.992v4.9053h3.536v3.038h-3.536v5.528c0 1.419.598 1.917 1.469 1.917.473 0 .847-.149 1.245-.498l1.569 2.689c-.872.648-1.967 1.021-3.212 1.021-2.814 0-4.457-1.345-4.457-5.005v-5.652h-2.49Zm17.481 10.682c-4.332 0-7.121-3.063-7.121-6.972 0-3.909 3.038-7.0219 7.047-7.0219 4.034 0 6.947 2.9129 6.947 6.8969v1.295h-10.682c.448 1.743 1.867 2.839 3.859 2.839 1.594 0 2.665-.697 3.337-1.793l2.814 1.643c-1.345 1.893-3.237 3.113-6.201 3.113Zm-.074-11.081c-1.743 0-3.088 1.021-3.636 2.59h7.172c-.449-1.668-1.743-2.59-3.536-2.59Zm8.933 10.807V98.887h3.436v1.693c.872-1.2199 2.266-1.9669 3.934-1.9669 3.188 0 5.205 2.0919 5.205 5.6029v8.117h-3.511v-7.594c0-1.918-.922-3.113-2.739-3.113-1.619 0-2.864 1.195-2.864 3.287v7.42h-3.461Zm14.973 0V92.7118h3.436v19.6212h-3.436Zm10.063.274c-2.939 0-4.682-1.643-4.682-4.009 0-2.789 2.316-4.507 6.051-4.507h3.536v-.174c0-1.444-.971-2.44-2.913-2.44-1.519 0-2.54.647-3.163 1.768l-3.162-1.569c1.369-1.793 3.337-3.0629 6.349-3.0629 3.96 0 6.225 2.0669 6.225 5.4529v8.267h-3.311v-2.067c-.971 1.395-2.814 2.341-4.93 2.341Zm.996-2.839c1.643 0 3.261-.996 3.934-2.44v-.722h-3.163c-2.041 0-2.863.647-2.863 1.693 0 .971.672 1.469 2.092 1.469Zm15.698 2.839c-3.312 0-6.474-2.714-6.474-6.997 0-4.283 3.087-6.9969 6.523-6.9969 1.768 0 3.237.747 4.159 1.9919v-7.9181h3.386v19.6461h-3.386v-1.843c-.946 1.32-2.465 2.117-4.208 2.117Zm.672-3.237c2.116 0 3.735-1.693 3.735-3.785 0-2.091-1.619-3.785-3.735-3.785-2.067 0-3.735 1.669-3.735 3.785 0 2.117 1.668 3.785 3.735 3.785Zm16.042 3.237c-4.332 0-7.121-3.063-7.121-6.972 0-3.909 3.038-7.0219 7.047-7.0219 4.033 0 6.947 2.9129 6.947 6.8969v1.295h-10.682c.448 1.743 1.867 2.839 3.859 2.839 1.594 0 2.664-.697 3.337-1.793l2.813 1.643c-1.344 1.893-3.237 3.113-6.2 3.113Zm-.074-11.081c-1.743 0-3.088 1.021-3.636 2.59h7.171c-.448-1.668-1.743-2.59-3.535-2.59Zm8.22 10.807v-3.063l7.495-7.395h-7.345v-2.988h11.578v3.063l-7.47 7.37h7.57v3.013h-11.828Zm20.001.274c-4.332 0-7.121-3.063-7.121-6.972 0-3.909 3.038-7.0219 7.046-7.0219 4.034 0 6.948 2.9129 6.948 6.8969v1.295h-10.683c.449 1.743 1.868 2.839 3.86 2.839 1.594 0 2.664-.697 3.337-1.793l2.813 1.643c-1.344 1.893-3.237 3.113-6.2 3.113Zm-.075-11.081c-1.743 0-3.087 1.021-3.635 2.59h7.171c-.448-1.668-1.743-2.59-3.536-2.59Zm8.958 10.807V98.887h3.511v13.446h-3.511Zm-.448-17.2308c0-1.2948.921-2.241 2.191-2.241 1.32 0 2.216.9462 2.216 2.241 0 1.2699-.896 2.1912-2.216 2.1912-1.295 0-2.191-.9213-2.191-2.1912Zm5.628 6.8228v-3.038h2.49v-2.9133l3.387-1.992v4.9053h3.536v3.038h-3.536v5.528c0 1.419.597 1.917 1.469 1.917.473 0 .846-.149 1.245-.498l1.569 2.689c-.872.648-1.968 1.021-3.213 1.021-2.813 0-4.457-1.345-4.457-5.005v-5.652h-2.49Z"/>
</svg>
