<svg width="80" height="80" viewBox="0 0 80 80" fill="none" xmlns="http://www.w3.org/2000/svg"><path d="M71.788 17.453 43.308.856C42.309.294 41.189 0 40.05 0a6.651 6.651 0 0 0-3.259.856L8.21 17.453a6.813 6.813 0 0 0-2.49 2.532 7.111 7.111 0 0 0-.92 3.484v33.088a6.985 6.985 0 0 0 .903 3.495 6.688 6.688 0 0 0 2.507 2.522l28.48 16.492A6.15 6.15 0 0 0 40 80a6.413 6.413 0 0 0 3.309-.934l28.48-16.492a6.81 6.81 0 0 0 2.49-2.532c.598-1.057.916-2.26.919-3.485V23.47a6.793 6.793 0 0 0-.876-3.51 6.496 6.496 0 0 0-2.534-2.506Z" fill="url(#a)"/><path d="m20.613 48.25-1.678 1.042c-.3.175-.564.412-.776.697-.213.284-.37.61-.462.96a2.874 2.874 0 0 0 .252 2.093c.22.435.547.8.946 1.056.399.256.856.395 1.323.402.445-.004.882-.11 1.283-.313l1.678-1.041c.3-.176.564-.413.777-.697.212-.285.37-.61.46-.96a2.878 2.878 0 0 0-.25-2.093 2.66 2.66 0 0 0-.633-.864 2.5 2.5 0 0 0-.907-.526 2.408 2.408 0 0 0-2.013.244Zm10.264-6.146-3.455 2.083c-.3.176-.564.413-.776.697a2.79 2.79 0 0 0-.462.96 2.879 2.879 0 0 0 .252 2.093c.22.435.547.8.946 1.057.4.256.856.395 1.323.402a2.91 2.91 0 0 0 1.283-.313L33.442 47c.3-.176.565-.413.777-.697.213-.284.37-.61.461-.96a2.87 2.87 0 0 0-.25-2.093 2.66 2.66 0 0 0-.633-.864 2.497 2.497 0 0 0-.908-.526 2.407 2.407 0 0 0-2.013.244ZM44.79 37.01a2.448 2.448 0 0 0-.57-.773 2.299 2.299 0 0 0-.811-.477V14.813a2.937 2.937 0 0 0-.2-1.078 2.818 2.818 0 0 0-.578-.914 2.65 2.65 0 0 0-.866-.61 2.533 2.533 0 0 0-1.02-.211 2.459 2.459 0 0 0-1.004.219 2.578 2.578 0 0 0-.844.614c-.24.262-.426.573-.55.913-.123.34-.18.702-.169 1.066v21.042c-.298.1-.574.262-.811.477a2.446 2.446 0 0 0-.57.773 2.908 2.908 0 0 0-.099 2.396 2.908 2.908 0 0 0 .099 2.396c.139.295.333.558.57.773a2.3 2.3 0 0 0 .811.477v21.041c0 .746.281 1.462.78 1.99.5.527 1.178.823 1.885.823.707 0 1.384-.296 1.884-.824.5-.527.78-1.243.78-1.989V43.042c.298-.1.574-.262.812-.477.237-.215.431-.478.57-.773a2.907 2.907 0 0 0 .099-2.396 3.371 3.371 0 0 0-.198-2.386Zm6.72-7.198-3.453 2.084c-.3.175-.564.412-.777.697-.212.284-.37.61-.461.96a2.876 2.876 0 0 0 .251 2.093c.22.435.547.8.946 1.056.4.256.856.395 1.324.402.444-.004.882-.11 1.283-.312l3.454-2.084c.3-.175.564-.412.776-.697.213-.284.37-.61.462-.96a2.876 2.876 0 0 0-.252-2.093 2.662 2.662 0 0 0-.632-.864 2.505 2.505 0 0 0-.907-.526 2.41 2.41 0 0 0-2.013.244Zm8.182 1.042c.444-.004.882-.11 1.283-.312l1.678-1.042c.3-.177.563-.415.776-.7.212-.284.37-.61.462-.96a2.902 2.902 0 0 0-.24-2.097 2.72 2.72 0 0 0-.667-.815 2.559 2.559 0 0 0-.911-.484 2.475 2.475 0 0 0-1.986.264L58.41 25.75c-.3.176-.564.413-.777.697-.212.284-.37.61-.46.96a2.876 2.876 0 0 0 .25 2.093 2.6 2.6 0 0 0 .957 1.01c.4.239.854.358 1.313.344Zm2.96 18.438-1.677-1.042A2.486 2.486 0 0 0 59 48.002a2.635 2.635 0 0 0-1.566 1.296 2.886 2.886 0 0 0-.244 2.085 2.735 2.735 0 0 0 1.22 1.659l1.678 1.041c.4.202.838.309 1.283.313a2.514 2.514 0 0 0 1.323-.402c.4-.257.726-.622.946-1.057.177-.303.292-.643.338-.996a2.713 2.713 0 0 0-.072-1.055 2.624 2.624 0 0 0-.467-.936 2.465 2.465 0 0 0-.785-.658Zm-8.585-5.105-3.454-2.083a2.474 2.474 0 0 0-1.986-.264c-.331.096-.64.26-.912.483-.27.223-.497.5-.666.816a2.898 2.898 0 0 0-.24 2.097c.092.35.25.676.462.96.212.285.476.523.776.7l3.454 2.083c.4.202.839.309 1.283.313a2.513 2.513 0 0 0 1.323-.403c.4-.256.726-.62.947-1.056a2.688 2.688 0 0 0 .275-2.055 2.602 2.602 0 0 0-.471-.936 2.442 2.442 0 0 0-.791-.655Zm-26.646-9.583 3.454 2.083c.401.202.84.309 1.284.313a2.515 2.515 0 0 0 1.323-.402c.4-.257.726-.621.946-1.056a2.87 2.87 0 0 0 .251-2.093 2.782 2.782 0 0 0-.46-.96 2.63 2.63 0 0 0-.778-.697l-3.454-2.084a2.455 2.455 0 0 0-1.983-.265c-.33.097-.64.263-.91.487a2.7 2.7 0 0 0-.66.82 3.06 3.06 0 0 0-.229 2.133 2.908 2.908 0 0 0 1.216 1.721ZM23.18 25.75 21.5 24.708a2.473 2.473 0 0 0-1.986-.264c-.33.096-.64.26-.911.484-.271.223-.497.5-.666.815a2.9 2.9 0 0 0-.24 2.097c.092.35.249.676.461.96.213.285.477.523.776.7l1.678 1.042c.4.202.839.308 1.283.312a2.514 2.514 0 0 0 1.323-.402c.4-.257.726-.621.947-1.056.168-.306.275-.645.317-.996a2.78 2.78 0 0 0-.078-1.048 2.69 2.69 0 0 0-.458-.933 2.532 2.532 0 0 0-.768-.669Z" fill="#20133A"/><defs><linearGradient id="a" x1="4.8" y1="40.003" x2="75.208" y2="40.003" gradientUnits="userSpaceOnUse"><stop stop-color="#9059FF"/><stop offset="1" stop-color="#F770FF"/></linearGradient></defs></svg>
