<?xml version="1.0" encoding="utf-8"?>
<svg width="137px" height="150px" fill="none" viewBox="0 0 137 150" xmlns="http://www.w3.org/2000/svg">
  <g clip-path="url(#a)" transform="matrix(4.699528, 0, 0, 4.699528, 0, 0)">
    <path fill="url(#b)" d="M27.69 6.96 15.916.338a2.826 2.826 0 0 0-2.694 0L1.409 6.96A2.767 2.767 0 0 0 0 9.36v13.204a2.712 2.712 0 0 0 1.41 2.4l11.771 6.581a2.61 2.61 0 0 0 1.368.373c.481-.001.953-.13 1.368-.373l11.772-6.58a2.766 2.766 0 0 0 1.41-2.401V9.36a2.637 2.637 0 0 0-1.41-2.401Z"/>
    <path fill="#20133A" d="m6.341 19.42-.704.414a1.086 1.086 0 0 0-.415 1.49 1.097 1.097 0 0 0 .954.58c.186-.002.37-.045.538-.125l.705-.414a1.085 1.085 0 0 0 .415-1.49 1.064 1.064 0 0 0-1.493-.455Zm4.311-2.442-1.45.828a1.086 1.086 0 0 0-.415 1.49 1.097 1.097 0 0 0 .953.58c.187-.002.37-.045.54-.125l1.45-.828a1.085 1.085 0 0 0 .415-1.49 1.063 1.063 0 0 0-1.493-.455Zm5.845-2.024a.976.976 0 0 0-.58-.497V6.134a1.112 1.112 0 0 0-1.541-1.03 1.082 1.082 0 0 0-.656 1.03v8.36a.98.98 0 0 0-.58.497 1.1 1.1 0 0 0-.042.952 1.098 1.098 0 0 0 .041.952.976.976 0 0 0 .58.497v8.36a1.116 1.116 0 0 0 1.12 1.118 1.12 1.12 0 0 0 1.119-1.117V17.35a.979.979 0 0 0 .58-.497 1.1 1.1 0 0 0 .042-.952 1.273 1.273 0 0 0-.083-.948Zm2.823-2.86-1.451.828a1.085 1.085 0 0 0-.415 1.49 1.097 1.097 0 0 0 .954.58c.186-.002.37-.045.539-.125l1.45-.828a1.085 1.085 0 0 0 .415-1.49 1.065 1.065 0 0 0-1.492-.455Zm3.436.414c.186-.002.37-.044.539-.124l.704-.414a1.094 1.094 0 1 0-1.077-1.904l-.705.414a1.085 1.085 0 0 0-.013 1.891c.168.095.359.142.552.137Zm1.243 7.326-.704-.414a1.097 1.097 0 0 0-1.59 1.245c.077.278.26.515.512.659l.705.414c.168.08.352.122.539.124a1.1 1.1 0 0 0 .953-.58 1.02 1.02 0 0 0-.415-1.448Zm-3.606-2.028-1.45-.828a1.097 1.097 0 0 0-1.631.818 1.09 1.09 0 0 0 .553 1.086l1.45.828c.169.08.353.122.54.124a1.1 1.1 0 0 0 .953-.58 1.012 1.012 0 0 0-.415-1.448ZM9.201 13.998l1.451.828c.169.08.353.122.54.124a1.1 1.1 0 0 0 .953-.58 1.083 1.083 0 0 0-.415-1.49l-1.45-.827a1.09 1.09 0 0 0-1.493.413 1.158 1.158 0 0 0 .414 1.532ZM7.42 10.48l-.705-.414a1.097 1.097 0 0 0-1.63.818 1.092 1.092 0 0 0 .553 1.086l.704.414c.169.08.353.122.54.124a1.1 1.1 0 0 0 .953-.58 1.046 1.046 0 0 0-.415-1.448Z"/>
  </g>
  <defs>
    <linearGradient id="b" x1="0" x2="29.103" y1="15.958" y2="15.958" gradientUnits="userSpaceOnUse">
      <stop stop-color="#9059FF"/>
      <stop offset="1" stop-color="#F770FF"/>
    </linearGradient>
    <clipPath id="a">
      <path fill="#fff" d="M0 0h32v33H0z"/>
    </clipPath>
  </defs>
</svg>
