<svg xmlns="http://www.w3.org/2000/svg" width="238" height="33" fill="none"><path fill="url(#a)" d="M27.69 7.96 15.916 1.338a2.826 2.826 0 0 0-2.694 0L1.409 7.96A2.767 2.767 0 0 0 0 10.36v13.204a2.712 2.712 0 0 0 1.41 2.4l11.771 6.582a2.61 2.61 0 0 0 1.368.372c.481-.001.953-.13 1.368-.372l11.772-6.581a2.767 2.767 0 0 0 1.41-2.401V10.361a2.637 2.637 0 0 0-1.41-2.4Z"/><path fill="#20133A" d="m6.342 20.42-.705.414a1.086 1.086 0 0 0-.414 1.49 1.097 1.097 0 0 0 .953.58c.186-.002.37-.044.539-.125l.704-.413a1.085 1.085 0 0 0 .415-1.49 1.063 1.063 0 0 0-1.492-.456Zm4.31-2.442-1.45.828a1.086 1.086 0 0 0-.415 1.49 1.098 1.098 0 0 0 .954.58c.186-.002.37-.045.539-.125l1.45-.828a1.085 1.085 0 0 0 .415-1.49 1.064 1.064 0 0 0-1.492-.455Zm5.845-2.024a.976.976 0 0 0-.58-.496V7.134a1.114 1.114 0 0 0-1.54-1.03 1.082 1.082 0 0 0-.657 1.03v8.36a.978.978 0 0 0-.58.498 1.1 1.1 0 0 0-.042.951 1.101 1.101 0 0 0 .042.952.975.975 0 0 0 .58.497v8.36a1.117 1.117 0 0 0 1.12 1.118 1.12 1.12 0 0 0 1.118-1.117V18.35a.976.976 0 0 0 .58-.497 1.1 1.1 0 0 0 .042-.952 1.273 1.273 0 0 0-.083-.948Zm2.823-2.86-1.45.828a1.085 1.085 0 0 0-.415 1.49 1.097 1.097 0 0 0 .953.58c.187-.002.37-.044.539-.125l1.45-.827a1.085 1.085 0 0 0 .415-1.49 1.063 1.063 0 0 0-1.492-.456Zm3.436.414c.187-.001.37-.044.54-.124L24 12.97a1.094 1.094 0 1 0-1.078-1.904l-.705.414a1.087 1.087 0 0 0-.414 1.49 1.06 1.06 0 0 0 .953.538ZM24 20.834l-.705-.414a1.096 1.096 0 0 0-1.59 1.245c.077.279.261.516.512.66l.705.413c.168.08.352.123.539.124a1.1 1.1 0 0 0 .953-.58A1.024 1.024 0 0 0 24 20.835Zm-3.607-2.028-1.45-.828a1.096 1.096 0 0 0-1.598 1.245 1.095 1.095 0 0 0 .52.66l1.45.827c.17.08.353.122.54.124a1.1 1.1 0 0 0 .953-.58 1.013 1.013 0 0 0-.415-1.448ZM9.202 14.998l1.45.828c.169.08.353.123.54.124a1.1 1.1 0 0 0 .953-.58 1.083 1.083 0 0 0-.415-1.49l-1.45-.827a1.084 1.084 0 0 0-1.493.414 1.157 1.157 0 0 0 .415 1.531ZM7.419 11.48l-.704-.414a1.096 1.096 0 0 0-1.404 1.626c.09.113.2.208.326.278l.705.414c.168.08.352.123.539.124a1.1 1.1 0 0 0 .953-.58 1.046 1.046 0 0 0-.415-1.448Z"/><path fill="#000" d="M112.999 10.075a4.464 4.464 0 0 1 1.766.33 4.084 4.084 0 0 1 2.289 2.288c.367.945.418 1.995.145 2.976-.116.4-.287.78-.508 1.127a4.018 4.018 0 0 1-.824.928 3.676 3.676 0 0 1-1.116.639l2.749 5.124h-1.626l-2.472-4.722h-3.968v4.722H108V10.075h4.999Zm-3.565 7.292h3.455c.44.008.877-.076 1.286-.248.355-.151.678-.376.951-.661.257-.27.458-.596.589-.955.131-.36.198-.741.198-1.127a3.142 3.142 0 0 0-.208-1.157 2.659 2.659 0 0 0-.618-.924 2.708 2.708 0 0 0-.951-.597 3.573 3.573 0 0 0-1.24-.196h-3.462v5.865Zm12.248 5.929a4.613 4.613 0 0 1-1.554-1.086 4.694 4.694 0 0 1-.993-1.627 5.807 5.807 0 0 1-.353-2.021c-.011-.701.109-1.397.353-2.048a5.08 5.08 0 0 1 1.06-1.63 4.677 4.677 0 0 1 1.537-1.128 4.636 4.636 0 0 1 1.943-.405 4.713 4.713 0 0 1 1.893.375 4.42 4.42 0 0 1 1.502 1.049c.429.461.768 1.009.996 1.611.244.645.364 1.335.353 2.03v.68h-8.249c.06.667.296 1.304.681 1.836a3.37 3.37 0 0 0 1.495 1.169 3.8 3.8 0 0 0 1.357.236 3.15 3.15 0 0 0 1.83-.462 3.433 3.433 0 0 0 1.296-1.45l1.212.752a5.623 5.623 0 0 1-1.766 1.856 4.71 4.71 0 0 1-2.576.66 5.052 5.052 0 0 1-2.017-.397Zm.728-8.364a3.181 3.181 0 0 0-1.028.647 3.52 3.52 0 0 0-.752.973c-.204.379-.348.792-.424 1.22h6.758a3.416 3.416 0 0 0-1.064-2.25 3.02 3.02 0 0 0-2.239-.819 3.39 3.39 0 0 0-1.251.23ZM131.973 9v14.487h-1.413V9h1.413Zm3.907 14.46a2.896 2.896 0 0 1-1.038-.634 2.664 2.664 0 0 1-.622-.928 2.985 2.985 0 0 1-.208-1.127c-.02-.467.075-.93.273-1.347.199-.417.495-.772.861-1.031.752-.556 1.787-.838 3.101-.838h2.954v-.376c.016-.34-.037-.68-.154-.998a2.429 2.429 0 0 0-.525-.843c-.455-.458-1.141-.687-2.049-.687a3.107 3.107 0 0 0-1.702.399 3.364 3.364 0 0 0-1.269 1.273l-1.226-.827a5.363 5.363 0 0 1 1.728-1.556 4.953 4.953 0 0 1 2.473-.578 5.247 5.247 0 0 1 1.766.274c.474.162.909.428 1.279.782.347.337.619.753.795 1.217.181.492.271 1.016.265 1.544v6.308h-1.381v-1.743a4.262 4.262 0 0 1-1.643 1.431c-.693.344-1.45.52-2.215.515a4.204 4.204 0 0 1-1.463-.23Zm2.756-1.239a4.156 4.156 0 0 0 1.883-1.123c.272-.28.502-.601.682-.955v-1.375h-2.887c-.978 0-1.699.162-2.158.477a1.708 1.708 0 0 0-.662 1.089 1.78 1.78 0 0 0 .256 1.267c.065.1.14.19.222.274a2.267 2.267 0 0 0 1.618.489 3.94 3.94 0 0 0 1.06-.14l-.014-.003Zm5.504 4.539a3 3 0 0 1-1.003-.643l.918-1.232c.17.196.368.364.587.496.235.128.498.191.763.184.218.004.436-.027.646-.09.197-.068.38-.177.537-.32.188-.189.347-.406.473-.646.179-.327.341-.664.484-1.01l.209-.478-3.911-9.456h1.54l3.113 7.683 2.964-7.683H153l-4.239 10.365c-.199.486-.427.958-.682 1.413-.198.357-.446.68-.735.958a2.563 2.563 0 0 1-.872.534 3.524 3.524 0 0 1-2.346-.075h.014ZM38 23.781h3.035v-6.166h5.84v-2.603h-5.84v-3.557h6.47V8.853H38V23.78ZM49.021 23.781h2.986V12.585h-2.986v11.196Zm1.5-12.64c.89 0 1.62-.706 1.62-1.574 0-.86-.73-1.567-1.62-1.567-.883 0-1.612.707-1.612 1.567 0 .868.73 1.575 1.612 1.575ZM53.93 23.781h2.986v-6.334c0-1.378.967-2.325 2.285-2.325.414 0 .982.072 1.262.167v-2.755a4.318 4.318 0 0 0-.94-.11c-1.205 0-2.194.73-2.586 2.115h-.112v-1.954H53.93v11.196ZM65.943 24c2.664 0 4.458-1.349 4.879-3.426l-2.762-.19c-.302.853-1.073 1.298-2.068 1.298-1.493 0-2.44-1.028-2.44-2.697v-.007h7.333v-.853c0-3.805-2.215-5.686-5.061-5.686-3.169 0-5.223 2.34-5.223 5.795 0 3.55 2.026 5.766 5.342 5.766Zm-2.39-6.947c.062-1.275.995-2.296 2.32-2.296 1.296 0 2.194.962 2.2 2.296h-4.52ZM78.154 12.585h-2.138v-.75c0-.759.294-1.204 1.17-1.204.358 0 .722.08.96.16l.527-2.332a7.586 7.586 0 0 0-2.11-.306c-2.026 0-3.533 1.188-3.533 3.623v.809h-1.522v2.332h1.522v8.864h2.986v-8.863h2.138v-2.333ZM83.988 24c3.266 0 5.3-2.325 5.3-5.773 0-3.47-2.034-5.788-5.3-5.788-3.267 0-5.3 2.318-5.3 5.788 0 3.448 2.033 5.773 5.3 5.773Zm.014-2.405c-1.507 0-2.279-1.436-2.279-3.39 0-1.953.772-3.397 2.279-3.397 1.479 0 2.25 1.444 2.25 3.397 0 1.954-.771 3.39-2.25 3.39ZM92.85 12.585h-3.085l3.085 5.598-3.197 5.598h3.085l2.089-3.87 2.124 3.87H100l-3.204-5.598 3.12-5.598h-3.063l-2.026 3.914-1.977-3.914ZM159 23.781h2.976v-4.84h2.501c3.236 0 5.119-2.048 5.119-5.03 0-2.966-1.848-5.058-5.044-5.058H159V23.78Zm2.976-7.37v-4.978h2.006c1.718 0 2.55.992 2.55 2.479 0 1.48-.832 2.5-2.536 2.5h-2.02ZM171.013 23.781h2.928v-6.334c0-1.378.948-2.325 2.24-2.325.405 0 .962.072 1.237.167v-2.755a4.15 4.15 0 0 0-.921-.11c-1.182 0-2.151.73-2.536 2.115h-.11v-1.954h-2.838v11.196ZM182.79 24c2.611 0 4.37-1.349 4.782-3.426l-2.707-.19c-.296.853-1.051 1.298-2.027 1.298-1.464 0-2.392-1.028-2.392-2.697v-.007h7.188v-.853c0-3.805-2.171-5.686-4.961-5.686-3.106 0-5.12 2.34-5.12 5.795 0 3.55 1.986 5.766 5.237 5.766Zm-2.344-6.947c.062-1.275.976-2.296 2.275-2.296 1.271 0 2.151.962 2.158 2.296h-4.433ZM189.084 23.781h2.927v-6.72c0-1.24.742-2.063 1.718-2.063.962 0 1.608.7 1.608 1.8v6.983h2.838v-6.837c0-1.159.626-1.946 1.691-1.946.934 0 1.635.62 1.635 1.866v6.917h2.921v-7.53c0-2.427-1.361-3.812-3.326-3.812-1.546 0-2.749.838-3.182 2.121h-.11c-.336-1.297-1.415-2.12-2.865-2.12-1.423 0-2.502.801-2.941 2.12h-.124v-1.975h-2.79v11.196ZM206.273 23.781h2.928V12.585h-2.928v11.196Zm1.471-12.64c.873 0 1.587-.706 1.587-1.574 0-.86-.714-1.567-1.587-1.567-.866 0-1.581.707-1.581 1.567 0 .868.715 1.575 1.581 1.575ZM217.854 19.014c.007 1.502-.962 2.289-2.014 2.289-1.106 0-1.821-.824-1.828-2.143v-6.575h-2.927v7.129c.007 2.617 1.45 4.213 3.573 4.213 1.588 0 2.729-.867 3.203-2.18h.11v2.034h2.81V12.585h-2.927v6.43ZM222.662 23.781h2.927v-6.72c0-1.24.743-2.063 1.718-2.063.962 0 1.608.7 1.608 1.8v6.983h2.839v-6.837c0-1.159.625-1.946 1.69-1.946.935 0 1.635.62 1.635 1.866v6.917H238v-7.53c0-2.427-1.361-3.812-3.326-3.812-1.546 0-2.749.838-3.182 2.121h-.11c-.336-1.297-1.415-2.12-2.865-2.12-1.423 0-2.501.801-2.941 2.12h-.124v-1.975h-2.79v11.196Z"/><defs><linearGradient id="a" x1="0" x2="29.103" y1="16.958" y2="16.958" gradientUnits="userSpaceOnUse"><stop stop-color="#9059FF"/><stop offset="1" stop-color="#F770FF"/></linearGradient></defs></svg>
