<svg xmlns="http://www.w3.org/2000/svg" width="151" height="33" fill="none"><g clip-path="url(#a)"><path fill="url(#b)" d="M27.69 6.96 15.916.338a2.826 2.826 0 0 0-2.694 0L1.409 6.96A2.767 2.767 0 0 0 0 9.36v13.204a2.712 2.712 0 0 0 1.41 2.4l11.771 6.581a2.61 2.61 0 0 0 1.368.373c.481-.001.953-.13 1.368-.373l11.772-6.58a2.766 2.766 0 0 0 1.41-2.401V9.36a2.637 2.637 0 0 0-1.41-2.401Z"/><path fill="#20133A" d="m6.341 19.42-.704.414a1.086 1.086 0 0 0-.415 1.49 1.097 1.097 0 0 0 .954.58c.186-.002.37-.045.538-.125l.705-.414a1.085 1.085 0 0 0 .415-1.49 1.064 1.064 0 0 0-1.493-.455Zm4.311-2.442-1.45.828a1.086 1.086 0 0 0-.415 1.49 1.097 1.097 0 0 0 .953.58c.187-.002.37-.045.54-.125l1.45-.828a1.085 1.085 0 0 0 .415-1.49 1.063 1.063 0 0 0-1.493-.455Zm5.845-2.024a.976.976 0 0 0-.58-.497V6.134a1.112 1.112 0 0 0-1.541-1.03 1.082 1.082 0 0 0-.656 1.03v8.36a.98.98 0 0 0-.58.497 1.1 1.1 0 0 0-.042.952 1.098 1.098 0 0 0 .041.952.976.976 0 0 0 .58.497v8.36a1.116 1.116 0 0 0 1.12 1.118 1.12 1.12 0 0 0 1.119-1.117V17.35a.979.979 0 0 0 .58-.497 1.1 1.1 0 0 0 .042-.952 1.273 1.273 0 0 0-.083-.948Zm2.823-2.86-1.451.828a1.085 1.085 0 0 0-.415 1.49 1.097 1.097 0 0 0 .954.58c.186-.002.37-.045.539-.125l1.45-.828a1.085 1.085 0 0 0 .415-1.49 1.065 1.065 0 0 0-1.492-.455Zm3.436.414c.186-.002.37-.044.539-.124l.704-.414a1.094 1.094 0 1 0-1.077-1.904l-.705.414a1.085 1.085 0 0 0-.013 1.891c.168.095.359.142.552.137Zm1.243 7.326-.704-.414a1.097 1.097 0 0 0-1.59 1.245c.077.278.26.515.512.659l.705.414c.168.08.352.122.539.124a1.1 1.1 0 0 0 .953-.58 1.02 1.02 0 0 0-.415-1.448Zm-3.606-2.028-1.45-.828a1.097 1.097 0 0 0-1.631.818 1.09 1.09 0 0 0 .553 1.086l1.45.828c.169.08.353.122.54.124a1.1 1.1 0 0 0 .953-.58 1.012 1.012 0 0 0-.415-1.448ZM9.201 13.998l1.451.828c.169.08.353.122.54.124a1.1 1.1 0 0 0 .953-.58 1.083 1.083 0 0 0-.415-1.49l-1.45-.827a1.09 1.09 0 0 0-1.493.413 1.158 1.158 0 0 0 .414 1.532ZM7.42 10.48l-.705-.414a1.097 1.097 0 0 0-1.63.818 1.092 1.092 0 0 0 .553 1.086l.704.414c.169.08.353.122.54.124a1.1 1.1 0 0 0 .953-.58 1.046 1.046 0 0 0-.415-1.448Z"/></g><path fill="#000" d="M110.999 9.075a4.463 4.463 0 0 1 1.766.33 4.082 4.082 0 0 1 2.289 2.288c.367.945.418 1.995.145 2.976-.116.4-.287.78-.508 1.127a4.018 4.018 0 0 1-.824.928 3.676 3.676 0 0 1-1.116.639l2.749 5.124h-1.626l-2.472-4.722h-3.968v4.722H106V9.075h4.999Zm-3.565 7.292h3.455c.44.008.877-.076 1.286-.248.355-.151.678-.376.951-.661.257-.27.458-.596.589-.955.131-.36.198-.741.198-1.127a3.142 3.142 0 0 0-.208-1.157 2.659 2.659 0 0 0-.618-.924 2.708 2.708 0 0 0-.951-.597 3.573 3.573 0 0 0-1.24-.196h-3.462v5.865Zm12.248 5.929a4.613 4.613 0 0 1-1.554-1.086 4.694 4.694 0 0 1-.993-1.627 5.807 5.807 0 0 1-.353-2.021c-.011-.701.109-1.397.353-2.048a5.08 5.08 0 0 1 1.06-1.63 4.677 4.677 0 0 1 1.537-1.128 4.636 4.636 0 0 1 1.943-.405 4.713 4.713 0 0 1 1.893.375 4.42 4.42 0 0 1 1.502 1.049c.429.461.768 1.009.996 1.611.244.645.364 1.335.353 2.03v.68h-8.249c.06.667.296 1.304.681 1.836a3.37 3.37 0 0 0 1.495 1.169 3.8 3.8 0 0 0 1.357.236 3.15 3.15 0 0 0 1.83-.462 3.433 3.433 0 0 0 1.296-1.45l1.212.752a5.623 5.623 0 0 1-1.766 1.856 4.71 4.71 0 0 1-2.576.66 5.052 5.052 0 0 1-2.017-.397Zm.728-8.364a3.181 3.181 0 0 0-1.028.647 3.52 3.52 0 0 0-.752.973c-.204.379-.348.792-.424 1.22h6.758a3.416 3.416 0 0 0-1.064-2.25 3.02 3.02 0 0 0-2.239-.819 3.39 3.39 0 0 0-1.251.23ZM129.973 8v14.487h-1.413V8h1.413Zm3.907 14.46a2.896 2.896 0 0 1-1.038-.634 2.664 2.664 0 0 1-.622-.928 2.985 2.985 0 0 1-.208-1.127c-.02-.467.075-.93.273-1.347.199-.417.495-.772.861-1.031.752-.556 1.787-.838 3.101-.838h2.954v-.376c.016-.34-.037-.68-.154-.998a2.429 2.429 0 0 0-.525-.843c-.455-.458-1.141-.687-2.049-.687a3.107 3.107 0 0 0-1.702.399 3.364 3.364 0 0 0-1.269 1.272l-1.226-.826a5.363 5.363 0 0 1 1.728-1.556 4.953 4.953 0 0 1 2.473-.578 5.247 5.247 0 0 1 1.766.274c.474.162.909.428 1.279.782.347.337.619.753.795 1.217.181.492.271 1.016.265 1.544v6.308h-1.381v-1.743a4.262 4.262 0 0 1-1.643 1.431c-.693.344-1.45.52-2.215.515a4.204 4.204 0 0 1-1.463-.23Zm2.756-1.239a4.156 4.156 0 0 0 1.883-1.123c.272-.28.502-.601.682-.955v-1.375h-2.887c-.978 0-1.699.162-2.158.477a1.708 1.708 0 0 0-.662 1.089 1.78 1.78 0 0 0 .256 1.267c.065.1.14.19.222.274a2.267 2.267 0 0 0 1.618.489 3.94 3.94 0 0 0 1.06-.14l-.014-.003Zm5.504 4.539a3 3 0 0 1-1.003-.643l.918-1.232c.17.196.368.364.587.496.235.128.498.191.763.184.218.004.436-.027.646-.09.197-.068.38-.177.537-.32.188-.189.347-.406.473-.646.179-.327.341-.664.484-1.01l.209-.478-3.911-9.456h1.54l3.113 7.683 2.964-7.683H151l-4.239 10.365c-.199.486-.427.958-.682 1.413-.198.357-.446.68-.735.958a2.563 2.563 0 0 1-.872.534 3.524 3.524 0 0 1-2.346-.075h.014ZM38 22.781h3.035v-6.166h5.84v-2.603h-5.84v-3.557h6.47V7.853H38V22.78ZM49.021 22.781h2.986V11.585h-2.986v11.196Zm1.5-12.64c.89 0 1.62-.706 1.62-1.574 0-.86-.73-1.567-1.62-1.567-.883 0-1.612.707-1.612 1.567 0 .868.73 1.575 1.612 1.575ZM53.93 22.781h2.986v-6.334c0-1.378.967-2.325 2.285-2.325.414 0 .982.072 1.262.167v-2.755a4.318 4.318 0 0 0-.94-.11c-1.205 0-2.194.73-2.586 2.115h-.112v-1.954H53.93v11.196ZM65.943 23c2.664 0 4.458-1.349 4.879-3.426l-2.762-.19c-.302.853-1.073 1.298-2.068 1.298-1.493 0-2.44-1.028-2.44-2.697v-.007h7.333v-.853c0-3.805-2.215-5.686-5.061-5.686-3.169 0-5.223 2.34-5.223 5.795 0 3.55 2.026 5.766 5.342 5.766Zm-2.39-6.947c.062-1.275.995-2.296 2.32-2.296 1.296 0 2.194.962 2.2 2.296h-4.52ZM78.154 11.585h-2.138v-.75c0-.759.294-1.204 1.17-1.204.358 0 .722.08.96.16l.527-2.332a7.586 7.586 0 0 0-2.11-.306c-2.026 0-3.533 1.188-3.533 3.623v.809h-1.522v2.332h1.522v8.864h2.986v-8.863h2.138v-2.333ZM83.988 23c3.266 0 5.3-2.325 5.3-5.773 0-3.47-2.034-5.788-5.3-5.788-3.267 0-5.3 2.318-5.3 5.788 0 3.448 2.033 5.773 5.3 5.773Zm.014-2.405c-1.507 0-2.279-1.436-2.279-3.39 0-1.953.772-3.397 2.279-3.397 1.479 0 2.25 1.444 2.25 3.397 0 1.954-.771 3.39-2.25 3.39ZM92.85 11.585h-3.085l3.085 5.598-3.197 5.598h3.085l2.089-3.87 2.124 3.87H100l-3.204-5.598 3.12-5.598h-3.063l-2.026 3.914-1.977-3.914Z"/><defs><linearGradient id="b" x1="0" x2="29.103" y1="15.958" y2="15.958" gradientUnits="userSpaceOnUse"><stop stop-color="#9059FF"/><stop offset="1" stop-color="#F770FF"/></linearGradient><clipPath id="a"><path fill="#fff" d="M0 0h32v33H0z"/></clipPath></defs></svg>
