<svg class="list-number" xmlns="http://www.w3.org/2000/svg" width="65" height="65" viewBox="0 0 65 65"><path class="circle" fill="#CCC" d="M33.265 59.43c-2.17 0-4.342-.23-6.4-.688-7.885-1.6-14.514-6.172-18.628-12.8-4.343-6.972-4.457-16.686-.23-23.77 2.4-4 5.144-7.315 8.46-10.058-.23-.23-.46-.57-.573-.914-.57-1.372 0-3.086 1.486-3.657 3.77-1.6 7.657-2.286 11.543-2.17.8-.23 1.484-.46 2.285-.687 1.258-.343 2.514.23 3.085 1.257 9.485 1.714 17.942 7.085 22.286 12.114 7.427 8.457 7.313 22.743-.114 31.314-5.6 6.4-14.287 10.06-23.2 10.06zm-3.77-48.344c-7.43 2.743-12.687 7.085-16.8 13.942-3.087 5.257-3.087 12.687.228 17.943 3.314 5.373 8.685 9.03 15.085 10.288 9.143 1.828 18.627-1.144 24.342-7.658 5.6-6.398 5.6-17.6.115-24-4.456-4.914-13.712-10.057-22.97-10.514z"/><path class="number" fill="#CCC" d="M42.98 45.258H24.01c-1.03 0-2.06-.572-2.516-1.6-.457-1.03-.343-2.172.343-2.973 3.086-3.77 6.286-7.543 9.258-11.314.113-.228.342-.457.57-.685.57-.686 2.172-2.514 2.514-3.314 0-.113-.23-.342-.343-.342-.457-.457-1.258-.686-1.83-.57-.914.113-1.942.685-2.742 1.37-.23.8-.8 1.487-1.6 1.83l-1.144.457c-1.256.57-2.627.114-3.313-1.028-.686-1.143-.57-2.515.343-3.543 2.172-2.17 4.57-4.23 7.77-4.686 2.172-.343 4.573.343 6.287 1.83 1.485 1.256 2.286 2.97 2.17 4.685 0 2.057-1.713 4.23-3.77 6.743-.23.23-.342.457-.457.57-1.828 2.287-3.656 4.573-5.6 6.858h13.03c1.483 0 2.74 1.257 2.74 2.742.002 1.714-1.254 2.972-2.74 2.972z"/></svg>
