<svg width="926" height="1269" viewBox="0 0 926 1269" fill="none" xmlns="http://www.w3.org/2000/svg">
<path d="M924.5 1.5L721 151C408 371 261 526 211.5 623.5C162 721 171.1 850.7 211.5 915.5C251.9 980.3 373 1114 611.5 1198C698.299 1228.57 813.309 1250.93 924.5 1267" stroke="black" stroke-width="3"/>
<circle cx="327.269" cy="979" r="30.5" fill="#EF4056"/>
<circle cx="378.5" cy="360" r="11" fill="#1A1A1A"/>
<circle cx="361.769" cy="1093.5" r="11" fill="#1A1A1A"/>
<circle cx="440.769" cy="1065.5" r="23.5" stroke="#1A1A1A" stroke-width="3"/>
<circle cx="346" cy="450.5" r="30.5" fill="#EF4056"/>
<path d="M108.367 568.367C103.385 560.14 99.0977 560.488 93.3513 559.379C89.8515 558.704 81.6953 562.762 75.4678 566.393C80.6141 576.776 92.1249 598.037 96.9976 600.021C103.089 602.501 108.312 595.721 112.251 591.086C116.19 586.451 113.35 576.593 108.367 568.367Z" fill="#1A1A1A"/>
<path d="M4.49992 628.5C-8.27312e-05 620 2.49992 616.5 4.49992 611C5.71798 607.651 13.3885 602.736 19.7019 599.257C25.968 609.005 38.3 629.8 37.5 635C36.5 641.5 28 642.5 22 643.5C16 644.5 8.99992 637 4.49992 628.5Z" fill="#1A1A1A"/>
<path d="M18.5861 600.271L6.70578 608.21C-2.41583 617.159 3.51011 628.946 7.79566 633.736C12.0812 638.526 20.2074 646.037 29.8422 641.17C39.4758 636.312 38.9626 632.231 32.2399 621.364C28.8786 615.931 5.97291 578.579 2.59472 569.125C-5.28903 545.506 41.7343 517.515 58.5074 536.873C64.9258 544.593 85.4168 583.323 88.3825 588.982C94.314 600.3 97.5657 602.819 106.65 597C115.744 591.184 113.416 580.366 111.474 574.239C109.533 568.112 102.403 557.011 90.0577 560.308L77.1762 566.492" stroke="black" stroke-width="3" stroke-miterlimit="10" stroke-linecap="round" stroke-linejoin="round"/>
<path d="M176.919 426.572L293.749 396.541" stroke="black" stroke-width="3" stroke-miterlimit="10" stroke-linecap="round" stroke-linejoin="round"/>
<path d="M174.028 403.606L288.293 372.661" stroke="black" stroke-width="3" stroke-miterlimit="10" stroke-linecap="round" stroke-linejoin="round"/>
<path d="M150.323 363.025L287.958 322.333" stroke="#95D2FF" stroke-width="16" stroke-miterlimit="10" stroke-linecap="square" stroke-linejoin="round"/>
<path d="M156.007 383.758L235.722 362.954" stroke="#95D2FF" stroke-width="16" stroke-miterlimit="10" stroke-linecap="square" stroke-linejoin="round"/>
<path d="M162.065 359.676L276.686 325.139" stroke="black" stroke-width="3" stroke-miterlimit="10" stroke-linecap="round" stroke-linejoin="round"/>
<path d="M156.598 335.799L273.786 302.176" stroke="black" stroke-width="3" stroke-miterlimit="10" stroke-linecap="round" stroke-linejoin="round"/>
<path d="M168.13 380.741L281.716 350.016" stroke="black" stroke-width="3" stroke-miterlimit="10" stroke-linecap="round" stroke-linejoin="round"/>
<path d="M118.578 1002.89C118.512 1002.39 118.258 1001.93 117.868 1001.61L47.4185 943.415C46.5373 942.687 45.2262 942.844 44.5423 943.76L8.77943 991.648C8.11065 992.543 8.30558 993.813 9.21217 994.467L79.1521 1044.9C79.5412 1045.18 80.0183 1045.31 80.4963 1045.27L121.559 1041.67C122.693 1041.57 123.516 1040.54 123.368 1039.42L118.578 1002.89Z" fill="#00CB77"/>
<path d="M7.56269 993.277L79.1523 1044.9C79.5415 1045.18 80.0185 1045.31 80.4965 1045.27L123.639 1041.49" stroke="#1A1A1A" stroke-width="3" stroke-miterlimit="10" stroke-linecap="round" stroke-linejoin="round"/>
<path d="M98.8878 1023.76C98.0014 1027.15 99.9859 1030.61 103.32 1031.48C106.654 1032.35 110.076 1030.3 110.962 1026.91C111.849 1023.51 109.864 1020.05 106.53 1019.18C103.196 1018.31 99.7742 1020.36 98.8878 1023.76Z" fill="white" stroke="black" stroke-width="2.506" stroke-miterlimit="10" stroke-linecap="round" stroke-linejoin="round"/>
<path d="M54.1257 1006.11C51.9363 1004.17 48.6288 1001.35 47.568 995.241C47.473 994.694 47.8685 994.189 48.4202 994.124L49.8547 993.956C50.418 993.89 50.9198 994.306 51.0059 994.867C51.5452 998.379 53.3738 1001.35 56.008 1003.6L62.3293 994.644C56.6428 988.912 55.2387 984.95 57.6867 981.476C61.2489 976.438 67.305 978.173 71.8197 981.367L73.7666 978.604C74.0848 978.152 74.7086 978.044 75.1601 978.362L75.716 978.754C76.1674 979.072 76.2755 979.696 75.9574 980.148L74.0105 982.91C78.6689 986.43 79.8681 990.165 80.4344 992.78C80.5533 993.329 80.1821 993.861 79.6287 993.955L78.2662 994.189C77.7129 994.283 77.1929 993.902 77.0838 993.351C76.2413 989.103 74.3832 987.367 72.1936 985.471L66.2122 993.943C69.4375 997.108 75.2462 1002.51 71.4939 1007.82C67.5689 1013.37 61.1905 1010.69 56.4554 1007.75L53.4984 1011.94C53.1799 1012.39 52.5569 1012.49 52.1059 1012.18L51.4111 1011.69C50.9591 1011.37 50.8514 1010.74 51.1706 1010.29L54.1257 1006.11ZM69.9375 983.882C66.8148 981.681 62.6068 980.257 60.6483 983.037C59.0816 985.26 60.1196 987.606 64.3016 991.862L69.9375 983.882ZM58.2641 1005.19C61.6548 1007.32 66.3838 1009.31 68.5693 1006.22C70.6026 1003.34 68.6414 1000.96 64.3056 996.648L58.2641 1005.19Z" fill="black"/>
<path d="M105.044 1025.89C114.697 1034.91 145.324 1034.18 143.337 1052.63C141.35 1071.08 111.805 1057.53 104.941 1043.35" stroke="black" stroke-width="3" stroke-linecap="round" stroke-linejoin="round"/>
<line x1="17.6752" y1="990.904" x2="45.9037" y2="952.325" stroke="black" stroke-width="3" stroke-linecap="round"/>
<path d="M225.627 766.067C225.627 766.067 214.164 755.486 226.302 734.831C235.668 718.892 290.797 704.158 288.064 638.65C285.653 580.983 244.805 569.537 207.09 579.607C177.817 587.422 171.805 601.765 179.051 610.174C191.151 624.221 192.23 606.259 212.365 603.681C228.347 601.636 256.31 611.038 265.244 637.592C273.003 660.656 255.617 694.76 232.705 707.476C199.491 725.912 198.392 756.959 202.682 773.445C206.971 789.931 213.133 800.2 223.04 797.048C232.948 793.895 225.627 766.067 225.627 766.067Z" fill="#FFD25E"/>
<path d="M349.681 708.04C349.681 708.04 345.993 724.454 332.031 728.06C318.07 731.665 297.606 735.398 282.764 734.411C267.92 733.423 251.542 732.73 239.186 743.012C226.83 753.297 203.074 785.43 227.633 807.11C227.633 807.11 224.955 812.221 243.23 813.667C261.506 815.113 289.855 823.373 300.45 826.279C311.045 829.184 333.473 833.175 335.432 825.977C337.39 818.779 298.384 808.102 298.384 808.102C298.384 808.102 326.994 814.409 340.364 807.741C340.364 807.741 338.573 832.365 337.986 836.762C337.399 841.159 343.679 846.472 353.356 848.758C363.033 851.044 377.159 849.948 370.061 839.55C362.963 829.155 362.014 825.05 362.014 825.05L363.706 797.428L370.475 795.348C370.475 795.348 369.406 822.056 370.519 828.67C371.631 835.285 376.67 842.42 393.05 843.116C409.43 843.813 395.333 826.017 388.792 822.657C388.792 822.657 392.05 783.312 393.453 776.536C394.856 769.761 404.072 753.091 411.292 740.132C418.512 727.174 430.637 707.41 430.53 682.036C430.53 682.036 434.746 676.633 436.736 665.46C438.727 654.288 438.201 643.28 439.245 635.463C440.288 627.646 435.483 629.988 427.179 632.361C418.875 634.734 408.285 639.286 405.245 643.355C405.245 643.355 393.865 638.852 386.508 637.869C379.151 636.887 371.569 641.344 371.569 641.344C371.569 641.344 364.277 639.874 359.765 636.287C355.252 632.7 351.59 630.223 347.208 625.66C342.826 621.096 336.808 621.287 335.112 633.989C333.417 646.691 331.037 668.253 340.523 679.466C340.517 679.466 336.6 693.862 349.681 708.04Z" fill="#FFD25E"/>
<path d="M239.186 743.012C226.83 753.297 203.074 785.43 227.633 807.11" stroke="black" stroke-width="3" stroke-miterlimit="10" stroke-linecap="round" stroke-linejoin="round"/>
<path d="M414.693 647.81C414.07 648.027 413.823 648.774 414.195 649.319C416.764 653.085 425.161 665.519 425.146 667.2C425.132 669.186 430.011 656.915 429.814 650.922C429.616 644.93 428.864 643.092 423.913 644.666C421.894 645.309 416.996 647.008 414.693 647.81Z" fill="#EF4056"/>
<path d="M344.81 667.163C344.81 667.163 350.57 655.408 361.009 646.212C361.703 645.601 361.313 644.38 360.394 644.281C357.734 643.997 353.779 643.362 351.91 642.013C348.952 639.877 344.586 633.331 342.383 644.219C340.182 655.113 341.77 663.776 344.81 667.163Z" fill="#EF4056"/>
<path d="M341.843 690.692C341.843 690.692 344.42 711.472 365.528 719.823" stroke="black" stroke-width="3" stroke-miterlimit="10" stroke-linecap="round" stroke-linejoin="round"/>
<path d="M354.796 688.164C354.796 688.164 356.955 700.799 371.314 698.884C385.672 696.97 384.734 685.384 384.995 682.831C386.071 686.779 390.499 698.491 404.437 696.52C418.375 694.55 417.662 684.637 417.662 684.637" stroke="black" stroke-width="3" stroke-miterlimit="10" stroke-linecap="round" stroke-linejoin="round"/>
<path d="M254.54 765.659C254.54 765.659 271.404 748.404 294.655 751.009C317.905 753.613 330.182 769.304 329.72 781.7C329.108 798.084 323.022 806.687 316.077 814.266" stroke="black" stroke-width="3" stroke-miterlimit="10" stroke-linecap="round" stroke-linejoin="round"/>
<path d="M273.363 805.185C273.363 805.185 308.812 808.765 322.758 817.131" stroke="black" stroke-width="3" stroke-miterlimit="10" stroke-linecap="round" stroke-linejoin="round"/>
<path d="M365.725 771.5L361.634 828.472" stroke="black" stroke-width="3" stroke-miterlimit="10" stroke-linecap="round" stroke-linejoin="round"/>
<path d="M391.213 772.403C391.213 772.403 385.22 789.989 363.706 797.431" stroke="black" stroke-width="3" stroke-miterlimit="10" stroke-linecap="round" stroke-linejoin="round"/>
<path d="M386.842 673.768C391.844 673.689 393.95 674.717 392.35 679.226C390.75 683.735 389.59 686.811 385.604 686.776C381.618 686.741 377.907 682.767 375.831 681.496C373.754 680.225 370.878 675.615 377.022 674.448C383.165 673.277 386.842 673.768 386.842 673.768Z" fill="#F67D6D"/>
<path d="M360.841 667.492C362.122 667.663 363.334 666.508 363.547 664.913C363.76 663.317 362.894 661.885 361.612 661.714C360.331 661.543 359.12 662.698 358.907 664.293C358.694 665.889 359.56 667.321 360.841 667.492Z" fill="black"/>
<path d="M404.22 665.008C405.51 664.941 406.487 663.584 406.402 661.976C406.316 660.369 405.201 659.12 403.91 659.187C402.619 659.254 401.642 660.611 401.728 662.218C401.813 663.826 402.929 665.075 404.22 665.008Z" fill="black"/>
<path d="M142.999 774.855C153.479 777.035 196.219 784.365 212.119 788.165C225.599 791.386 231.599 798.765 229.099 815.265C226.599 831.765 224.599 848.265 220.149 863.645C216.666 875.685 209.439 882.915 195.529 881.845C181.609 880.775 138.479 871.945 125.099 869.265C111.719 866.585 104.849 853.985 107.599 838.765C110.349 823.545 113.629 803.685 116.839 788.165C120.039 772.645 134.489 773.085 142.999 774.855Z" fill="#EF4056"/>
<path d="M155.471 804.592C152.881 816.052 150.121 832.432 147.981 841.532C145.841 850.632 147.061 855.982 157.621 851.702C170.001 846.682 180.681 841.202 185.991 837.782C191.491 834.252 190.439 829.485 184.599 822.765C178.899 816.205 172.611 808.882 167.251 802.452C161.891 796.022 157.131 797.202 155.471 804.592Z" fill="#FFFBE3"/>
</svg>
