<svg width="1151" height="768" viewBox="0 0 1151 768" fill="none" xmlns="http://www.w3.org/2000/svg">
<path d="M254 542.614C257.335 541.717 260.668 540.911 264 540.188L267.757 539.468M508.5 530.114C420.708 549.776 347.552 525.949 274.5 538.174" stroke="#1CB0A8" stroke-width="1.5" stroke-miterlimit="10" stroke-linecap="round" stroke-linejoin="round"/>
<g clip-path="url(#clip0)">
<path d="M468.102 400.002L466.878 394.29L461.24 387.242L455.781 385.022L447.943 385.104L440.031 410.083L466.459 407.591L468.102 400.002Z" fill="#FFFBE3"/>
<path d="M447.998 385.102C448.092 385.938 448.715 394.484 448.715 394.484L458.654 406.484L466.513 407.588" stroke="#1CB0A8" stroke-width="1.29055" stroke-miterlimit="10"/>
<path d="M456.066 391.805L448.715 393.713L440.085 410.083L458.652 406.485L461.799 398.97L456.066 391.805Z" stroke="#1CB0A8" stroke-width="1.29055" stroke-miterlimit="10"/>
<path d="M455.835 385.022L456.066 391.805L461.799 398.97L468.156 400.774" stroke="#1CB0A8" stroke-width="1.29055" stroke-miterlimit="10"/>
<path d="M309.332 519.986C309.332 519.986 311.297 519.986 319.652 507.945C328.007 495.904 351.104 459.537 377.397 454.868C403.689 450.199 430.473 462.24 440.547 483.371C450.621 504.503 453.325 523.178 441.039 524.162C428.753 525.145 426.051 521.705 426.051 521.705L367.323 512.121C367.323 512.121 362.408 501.309 364.374 489.269C364.374 489.269 351.596 504.996 348.893 510.401C346.191 515.805 345.453 517.035 345.453 518.017C345.453 519.001 342.012 521.212 337.59 522.44C333.167 523.669 312.772 525.392 309.332 519.986Z" fill="#00CF6E"/>
<path d="M365.399 489.543C365.357 489.321 365.336 489.097 365.308 488.874C365.26 488.495 365.331 489.344 365.304 488.825C365.296 488.666 365.286 488.506 365.279 488.348C365.264 487.98 365.255 487.612 365.254 487.244C365.252 487.073 365.255 486.902 365.259 486.731C365.261 486.623 365.26 486.515 365.266 486.408C365.221 487.129 365.274 486.176 365.278 485.961C365.283 485.728 365.286 485.493 365.292 485.259C365.295 485.138 365.296 485.015 365.301 484.894C365.273 485.463 365.297 485.019 365.301 484.903C365.321 484.378 365.34 483.854 365.359 483.329C365.403 482.168 365.464 481.008 365.536 479.849C365.692 477.352 365.907 474.859 366.175 472.372C366.313 471.093 366.465 469.817 366.632 468.542C366.712 467.925 366.797 467.309 366.889 466.695C366.911 466.545 366.934 466.394 366.956 466.244C366.886 466.718 366.927 466.431 366.943 466.328C366.997 465.989 367.051 465.651 367.108 465.311C367.309 464.116 367.535 462.924 367.809 461.742C367.924 461.249 368.044 460.756 368.178 460.268C368.206 460.163 368.237 460.059 368.266 459.954C368.403 459.464 368.175 460.211 368.276 459.913C368.393 459.566 368.49 459.219 368.566 458.861C368.741 458.045 368.725 457.032 368.359 456.263C368.159 455.845 367.575 455.321 367.232 455.955C366.714 456.912 366.464 457.996 366.211 459.051C365.957 460.113 365.753 461.188 365.568 462.264C365.122 464.872 364.777 467.5 364.521 470.134C364.026 475.199 363.683 480.322 363.754 485.414C363.778 487.204 363.811 489.078 364.215 490.829C364.297 491.187 364.629 491.903 365.059 491.477C365.487 491.058 365.5 490.071 365.399 489.543Z" fill="#1CB0A8"/>
<path d="M366.516 471.865C373.041 471.342 379.714 471.25 386.236 471.827C389.749 472.138 393.17 472.893 396.564 473.83C400.73 474.98 404.819 476.396 408.825 478.017C411.173 478.967 413.49 479.991 415.786 481.062C416.971 481.615 418.146 482.186 419.312 482.776C420.454 483.354 421.569 484.035 422.754 484.517C423.556 484.844 423.598 481.715 422.965 481.279C421.095 479.99 418.891 479.058 416.842 478.086C414.764 477.1 412.654 476.185 410.522 475.323C406.475 473.687 402.346 472.226 398.153 471.01C394.705 470.011 391.192 469.125 387.616 468.749C383.957 468.365 380.262 468.313 376.585 468.359C373.203 468.402 369.812 468.527 366.442 468.828C365.678 468.898 365.817 471.921 366.516 471.865Z" fill="#1CB0A8"/>
<path d="M366.078 489.056C368.076 487.358 370.79 487.038 373.32 486.954C376.403 486.852 379.504 486.923 382.583 487.079C388.846 487.396 395.085 488.204 401.223 489.494C404.719 490.228 408.153 491.16 411.583 492.15C412.138 492.31 412.473 488.985 411.498 488.678C405.42 486.76 399.093 485.479 392.78 484.637C386.548 483.807 380.231 483.432 373.944 483.641C371.048 483.738 367.96 484.084 365.727 486.124C365.283 486.53 365.342 487.471 365.407 488.008C365.433 488.208 365.655 489.416 366.078 489.056Z" fill="#1CB0A8"/>
<path d="M364.765 504.296C366.999 503.341 369.431 502.856 371.827 502.505C374.533 502.108 377.279 501.923 380.014 501.905C382.694 501.888 385.379 502.031 388.037 502.371C390.874 502.732 393.625 503.437 396.403 504.1C400.376 505.051 404.351 506.002 408.325 506.954C408.935 507.099 409.235 503.731 408.24 503.495C404.679 502.647 401.12 501.799 397.559 500.952C394.662 500.263 391.775 499.474 388.822 499.054C383.455 498.293 377.843 498.25 372.485 499.094C369.709 499.532 366.964 500.241 364.415 501.445C363.752 501.759 364.003 504.622 364.765 504.296Z" fill="#1CB0A8"/>
<path d="M372.658 456.95C373.794 456.914 374.931 457.016 376.068 457.003C377.162 456.991 378.257 456.992 379.351 457.023C381.585 457.085 383.81 457.258 386.03 457.499C389.745 457.903 393.433 458.58 397.084 459.372C404.541 460.989 411.881 463.271 418.844 466.403C423.324 468.418 427.645 470.759 431.802 473.373C432.363 473.726 432.492 472.324 432.51 472.054C432.545 471.524 432.602 470.124 432.034 469.774C424.904 465.371 417.221 461.868 409.258 459.265C402.31 456.994 395.084 455.33 387.829 454.411C385.325 454.094 382.806 453.926 380.281 453.881C379.019 453.858 377.757 453.867 376.495 453.907C375.176 453.948 373.898 454.17 372.591 454.313C371.941 454.384 372.032 456.97 372.658 456.95Z" fill="#1CB0A8"/>
<path d="M432.59 470.441C431.093 471.511 429.87 472.878 428.705 474.291C427.376 475.904 426.069 477.539 424.783 479.189C422.142 482.576 419.562 486.01 417.052 489.496C416.605 490.116 416.716 491.281 416.883 491.975C416.987 492.409 417.324 493.239 417.774 492.603C420.206 489.168 422.695 485.776 425.257 482.438C426.523 480.789 427.79 479.141 429.087 477.517C430.245 476.067 431.462 474.661 432.958 473.549C433.444 473.186 433.355 472.07 433.293 471.554C433.264 471.305 433.066 470.102 432.59 470.441Z" fill="#1CB0A8"/>
<path d="M444.316 490.042C443.65 489.756 442.893 489.621 442.188 489.474C440.83 489.188 439.465 488.931 438.093 488.717C436.695 488.497 435.277 488.322 433.861 488.269C432.093 488.203 430.345 488.508 428.66 489.038C427.659 489.354 426.678 489.745 425.728 490.193C425.238 490.424 424.756 490.671 424.283 490.934C423.804 491.2 423.221 491.462 422.868 491.886C422.459 492.379 422.439 493.132 422.488 493.741C422.51 494.013 422.623 495.264 423.108 495.184C423.53 495.114 423.881 494.809 424.24 494.593C424.639 494.351 425.044 494.123 425.457 493.906C426.318 493.453 427.205 493.049 428.118 492.715C429.832 492.088 431.648 491.659 433.479 491.648C436.231 491.631 439.029 492.102 441.735 492.555C442.553 492.692 443.459 492.75 444.25 493.005C444.757 493.167 444.982 490.327 444.316 490.042Z" fill="#1CB0A8"/>
<path d="M447.216 521.497C447.945 517.185 447.451 512.647 445.698 508.631C444.307 505.442 442.206 502.803 439.688 500.431C439.158 499.932 438.612 499.437 438.022 499.008C437.698 498.771 437.239 498.411 436.813 498.435C436.146 498.471 436.134 499.984 436.152 500.417C436.17 500.856 436.227 502.333 436.91 502.364C436.968 502.367 437.136 502.43 436.968 502.362C437.061 502.399 437.148 502.442 437.236 502.488C437.479 502.619 437.706 502.781 437.928 502.945C438.554 503.407 439.138 503.926 439.706 504.455C440.872 505.542 442.007 506.701 442.94 507.996C445.423 511.447 446.853 515.807 446.271 520.069C446.194 520.637 446.104 521.548 446.509 522.026C446.897 522.488 447.154 521.865 447.216 521.497Z" fill="#1CB0A8"/>
<path d="M431.441 520.152C431.177 515.98 430.64 511.828 429.769 507.738C429.352 505.779 428.863 503.832 428.288 501.914C427.989 500.915 427.674 499.921 427.33 498.937C427.017 498.049 426.753 496.856 426.171 496.109C425.814 495.651 425.505 495.994 425.355 496.424C425.11 497.127 425.133 497.991 425.305 498.706C425.542 499.689 426.021 500.622 426.377 501.569C426.689 502.399 426.981 503.236 427.255 504.078C427.835 505.866 428.31 507.684 428.721 509.517C429.535 513.16 430.076 516.856 430.367 520.577C430.389 520.859 430.555 521.767 430.999 521.636C431.44 521.507 431.461 520.466 431.441 520.152Z" fill="#1CB0A8"/>
<path d="M318.06 511.868C321.953 513.553 326.086 514.466 330.262 515.136C332.289 515.461 334.349 515.871 336.402 515.968C338.391 516.062 340.256 515.525 342.145 514.976C344.233 514.368 346.208 513.928 348.371 514.394C349.145 514.56 349.264 511.083 348.282 510.753C346.541 510.167 344.623 510.588 342.908 511.061C341.057 511.574 339.218 512.244 337.28 512.313C335.229 512.387 333.153 511.942 331.133 511.632C329.093 511.318 327.052 510.989 325.033 510.565C322.697 510.073 320.415 509.413 318.141 508.695C317.533 508.501 317.325 511.55 318.06 511.868Z" fill="#1CB0A8"/>
<path d="M329.932 494.013C332.54 497.252 335.435 500.366 338.879 502.74C341.527 504.565 344.756 505.419 347.755 506.493C348.54 506.774 349.326 507.055 350.106 507.348C350.377 507.45 350.645 507.557 350.915 507.663C351.039 507.711 351.161 507.757 351.288 507.799C351.312 507.807 351.337 507.812 351.361 507.819C351.061 507.723 351.603 508.017 351.292 507.797C351.84 508.185 352.021 506.799 352.04 506.54C352.084 505.962 352.105 504.767 351.545 504.371C350.737 503.801 349.592 503.552 348.67 503.22C347.074 502.644 345.472 502.083 343.872 501.516C342.533 501.041 341.211 500.585 339.988 499.848C338.146 498.738 336.49 497.321 334.911 495.87C333.364 494.449 331.804 492.956 330.418 491.378C330.001 490.903 329.757 491.549 329.683 491.94C329.575 492.51 329.534 493.52 329.932 494.013Z" fill="#1CB0A8"/>
<path d="M341.685 480.342C344.089 486.336 346.696 492.182 350.25 497.598C351.565 499.603 352.964 501.551 354.409 503.464C354.892 504.103 355.225 503.202 355.308 502.771C355.443 502.056 355.483 500.847 355.006 500.219C352.648 497.129 350.419 493.932 348.45 490.578C346.949 488.02 345.644 485.368 344.415 482.671C343.729 481.163 343.071 479.643 342.41 478.124C342.184 477.606 341.823 477.584 341.632 478.143C341.408 478.794 341.428 479.701 341.685 480.342Z" fill="#1CB0A8"/>
<path d="M354.761 466.058C355.106 471.215 356.027 476.282 356.947 481.363C357.377 483.731 357.796 486.101 358.129 488.486C358.476 490.974 358.666 493.532 358.825 495.781C358.857 496.232 358.893 497.735 359.591 497.753C360.256 497.77 360.264 496.075 360.261 495.746C360.204 490.58 359.129 485.384 358.159 480.329C357.223 475.46 356.221 470.591 355.713 465.653C355.683 465.365 355.572 464.559 355.15 464.635C354.752 464.707 354.745 465.826 354.761 466.058Z" fill="#1CB0A8"/>
<path d="M396.286 425.005C396.286 425.005 404.782 415.902 415.705 414.081C426.628 412.26 434.821 412.564 430.269 418.025C430.269 418.025 437.855 419.543 438.765 422.88C439.675 426.218 433.303 425.915 433.303 425.915C433.303 425.915 438.158 427.128 438.158 430.466C438.158 433.804 433.91 435.625 431.483 435.018C431.483 435.018 433.911 436.839 432.393 439.873C430.876 442.907 419.954 440.783 419.954 440.783L396.286 425.005Z" fill="black"/>
<path d="M412.677 447.788C421.173 444.761 425.944 436.365 423.332 429.034C420.721 421.704 411.716 418.215 403.22 421.242C394.724 424.269 389.954 432.665 392.565 439.995C395.177 447.326 404.181 450.815 412.677 447.788Z" fill="#9E001F"/>
<path d="M398.924 428.554C401.271 428.554 403.173 426.652 403.173 424.305C403.173 421.959 401.271 420.057 398.924 420.057C396.578 420.057 394.676 421.959 394.676 424.305C394.676 426.652 396.578 428.554 398.924 428.554Z" fill="#9E001F"/>
<path d="M417.433 449.794C419.779 449.794 421.682 447.892 421.682 445.545C421.682 443.199 419.779 441.297 417.433 441.297C415.087 441.297 413.185 443.199 413.185 445.545C413.185 447.892 415.087 449.794 417.433 449.794Z" fill="#9E001F"/>
<path d="M404.979 425.958C404.979 425.958 400.225 429.705 401.665 430.713C403.106 431.722 407.429 429.993 408.437 427.831" stroke="black" stroke-width="1.29055" stroke-miterlimit="10" stroke-linecap="round"/>
<path d="M415.354 434.459C415.354 434.459 412.328 437.196 413.049 438.494C413.769 439.791 418.236 439.214 419.388 437.196" stroke="black" stroke-width="1.29055" stroke-miterlimit="10" stroke-linecap="round"/>
<path d="M400.495 550.947C400.495 550.947 360.933 552.913 354.545 544.559C348.157 536.205 349.876 517.038 359.951 514.581C370.026 512.124 426.296 521.707 433.176 524.901C440.056 528.095 440.793 532.273 440.547 537.924C440.302 543.576 439.564 547.261 433.667 547.998C427.77 548.735 400.495 550.947 400.495 550.947Z" fill="#004AB2"/>
<path d="M341.275 521.214C341.275 521.214 344.224 523.671 342.749 530.306C341.275 536.941 328.251 542.837 318.669 542.837C309.086 542.837 303.434 544.066 302.942 539.152C302.942 539.152 290.164 537.923 285.987 535.221C281.809 532.518 279.844 526.129 285.495 523.18C291.146 520.231 298.518 522.443 303.432 521.706C308.347 520.969 308.347 520.969 308.347 520.969" fill="#9E001F"/>
<path d="M437.353 527.357C437.353 527.357 449.884 525.883 457.747 526.129C465.611 526.374 472.736 530.306 473.228 535.712C473.719 541.118 472.244 547.261 466.348 547.998C460.451 548.735 441.284 546.525 438.581 544.067C435.879 541.61 437.353 527.357 437.353 527.357Z" fill="#1CB0A8"/>
<path d="M463.646 548.982C465.119 542.347 462.662 527.112 462.662 527.112L462.761 526.801C468.422 528.173 472.845 531.493 473.228 535.712C473.72 541.118 472.244 547.261 466.348 547.998C465.655 548.085 464.78 548.131 463.769 548.14L463.646 548.982Z" fill="#FFFBE3"/>
<path d="M435.388 500.82C435.388 499.836 429.49 497.379 423.593 497.379" stroke="black" stroke-width="1.29055" stroke-miterlimit="10" stroke-linecap="round"/>
<path d="M326.287 533.009C326.041 531.78 314.246 531.78 309.823 532.517C305.4 533.254 302.451 533.746 302.943 539.152" stroke="black" stroke-width="1.29055" stroke-miterlimit="10" stroke-linecap="round"/>
<path d="M311.052 524.163C311.052 524.163 301.223 523.671 293.114 525.637C286.255 527.3 285.023 531.601 286.739 534.82" stroke="black" stroke-width="1.29055" stroke-miterlimit="10" stroke-linecap="round"/>
<path d="M454.035 541.604C454.814 541.604 455.445 541.204 455.445 540.712C455.445 540.219 454.814 539.82 454.035 539.82C453.256 539.82 452.624 540.219 452.624 540.712C452.624 541.204 453.256 541.604 454.035 541.604Z" fill="black"/>
<path d="M441.419 537.235C441.419 537.235 456.274 538.424 461.324 537.384" stroke="black" stroke-width="1.29055" stroke-miterlimit="10" stroke-linecap="round"/>
<path d="M427.892 557.331C427.892 557.331 433.892 564.871 440.047 566.116C446.201 567.36 454.145 562.521 456.821 558.99C459.498 555.459 460.045 549.547 456.425 545.863C452.805 542.178 439.637 539.467 439.637 539.467L427.892 557.331Z" fill="#1CB0A8"/>
<path d="M434.11 563.106C434.11 563.106 443.882 566.162 450.842 555.411C457.802 544.661 453.806 544.283 453.806 544.283L456.127 545.579C456.233 545.673 456.332 545.767 456.426 545.863C460.046 549.547 459.499 555.46 456.822 558.99C454.146 562.52 446.202 567.359 440.048 566.115C439.342 565.972 438.638 565.747 437.947 565.46L434.11 563.106Z" fill="#FFFBE3"/>
<path d="M427.892 557.331C427.892 557.331 433.892 564.871 440.047 566.116C446.201 567.36 454.145 562.521 456.821 558.99C459.498 555.459 460.045 549.547 456.425 545.863C452.805 542.178 439.637 539.467 439.637 539.467L427.892 557.331Z" stroke="black" stroke-width="1.29055" stroke-miterlimit="10" stroke-linecap="round"/>
<path d="M441.452 563.008C441.668 562.162 440.796 555.983 444.641 551.66C448.485 547.336 454.525 545.712 454.525 545.712C454.525 545.712 456.675 547.046 450.828 555.426C445.655 562.84 441.452 563.008 441.452 563.008Z" fill="#FFFBE3"/>
<path d="M441.427 562.926C444.43 562.047 447.889 559.971 450.841 555.411C457.801 544.661 453.805 544.283 453.805 544.283" stroke="black" stroke-width="1.54867" stroke-miterlimit="10" stroke-linecap="round"/>
<path d="M456.425 545.863C452.805 542.178 439.637 539.467 439.637 539.467" stroke="black" stroke-width="1.29055" stroke-miterlimit="10" stroke-linecap="round"/>
<path d="M393.549 458.617C393.549 458.617 389.332 468.385 391.551 477.044" stroke="black" stroke-width="1.29055" stroke-miterlimit="10" stroke-linecap="round"/>
<path d="M387.332 466.831C388.006 466.831 388.553 466.285 388.553 465.611C388.553 464.936 388.006 464.39 387.332 464.39C386.658 464.39 386.111 464.936 386.111 465.611C386.111 466.285 386.658 466.831 387.332 466.831Z" fill="black"/>
<path d="M386.444 473.936C387.119 473.936 387.665 473.39 387.665 472.715C387.665 472.041 387.119 471.494 386.444 471.494C385.77 471.494 385.224 472.041 385.224 472.715C385.224 473.39 385.77 473.936 386.444 473.936Z" fill="black"/>
<path d="M422.433 561.095C422.433 561.095 415.438 555.585 404.879 548.695C394.32 541.804 376.725 534.793 372.006 518.612C367.286 502.431 378.115 499.648 382.163 499.432C391.324 498.946 426.311 513.382 436.712 527.153C441.634 533.672 442.742 534.681 441.208 539.118C439.674 543.555 432.689 560.601 422.433 561.095Z" fill="#396AFF"/>
<path d="M404.879 548.695C394.319 541.804 376.725 534.793 372.006 518.612C369.936 511.513 371.146 506.748 373.501 503.619" stroke="black" stroke-width="1.29055" stroke-miterlimit="10" stroke-linecap="round"/>
<path d="M428.508 515.563C428.508 515.563 426.296 495.66 415.976 488.534C405.656 481.407 397.792 484.848 398.039 487.55C398.284 490.253 399.759 495.905 406.394 495.167C406.394 495.167 400.251 495.659 403.445 500.818C406.639 505.978 409.833 505.978 409.833 505.978C409.833 505.978 407.505 507.796 410.817 511.629C415.483 517.037 428.508 515.563 428.508 515.563Z" fill="#9E001F"/>
<path d="M414.009 496.642C414.009 496.642 412.044 495.168 406.393 495.168" stroke="black" stroke-width="1.29055" stroke-miterlimit="10" stroke-linecap="round"/>
<path d="M420.889 504.751C420.889 504.751 413.273 502.293 409.832 505.979" stroke="black" stroke-width="1.29055" stroke-miterlimit="10" stroke-linecap="round"/>
<path d="M407.762 418.1C407.762 418.1 412.259 419.506 415.632 423.722C419.004 427.938 421.253 434.403 425.188 435.808C429.123 437.213 427.436 424.565 426.593 423.722C425.749 422.878 407.762 418.1 407.762 418.1Z" fill="black"/>
<path d="M343.522 540.521C342.679 540.802 304.173 550.639 304.173 550.639L342.96 572L363.479 552.326L343.522 540.521Z" fill="black"/>
<path d="M345.888 541.92L313.928 550.857L342.79 565.003L360.637 550.645L345.888 541.92Z" fill="#FFFBE3"/>
<path d="M327.074 551.857L341.648 560.43" stroke="black" stroke-width="1.29055" stroke-miterlimit="10" stroke-linecap="round"/>
<path d="M335.789 549.715L345.934 556.144" stroke="black" stroke-width="1.29055" stroke-miterlimit="10" stroke-linecap="round"/>
<path d="M343.934 547.856L349.363 551.715" stroke="black" stroke-width="1.29055" stroke-miterlimit="10" stroke-linecap="round"/>
<path d="M437.353 527.357C437.353 527.357 449.884 525.883 457.748 526.129C465.611 526.374 472.736 530.306 473.228 535.712" stroke="black" stroke-width="1.29055" stroke-miterlimit="10" stroke-linecap="round"/>
<path d="M417.579 556.486C417.579 556.486 429.814 547.78 431.696 539.545" stroke="black" stroke-width="1.29055" stroke-miterlimit="10" stroke-linecap="round"/>
</g>
<path d="M457.911 729.048C457.911 729.048 471.088 717.702 458.585 714.202C451.362 712.179 450.204 717.643 450.581 719.73C450.958 721.817 450.443 714.987 445.051 715.425C437.465 716.041 439.762 722.959 439.762 722.959C439.762 722.959 437.871 716.435 432.086 719.586C426.835 722.444 429.12 732.269 437.278 733.988C445.434 735.706 457.911 729.048 457.911 729.048Z" fill="#FF5780"/>
<path d="M447.977 734.789C449.264 734.362 461.611 730.404 459.161 723.744C456.303 715.975 451.336 721.698 450.692 724.056C450.692 724.056 449.626 718.694 444.585 720.725C439.543 722.756 441.267 726.423 441.267 726.423C441.267 726.423 437.617 720.181 434.182 724.894C430.746 729.607 435.273 737.396 446.099 735.129C456.925 732.862 447.977 734.789 447.977 734.789Z" fill="#FFB211"/>
<path d="M445.802 739.074C445.802 739.074 439.508 732.885 429.868 737.09C420.229 741.292 437.795 746 445.802 739.074Z" fill="#00CF6E"/>
<path d="M444.652 738.102C444.651 738.101 444.651 738.101 444.651 738.101C444.65 738.1 444.648 738.1 444.647 738.099C444.643 738.098 444.637 738.096 444.63 738.093C444.617 738.089 444.596 738.083 444.572 738.075C444.52 738.059 444.447 738.037 444.351 738.011C444.16 737.957 443.881 737.883 443.527 737.802C442.818 737.64 441.804 737.446 440.57 737.318C438.104 737.062 434.746 737.066 431.205 738.117L431.507 739.135C434.877 738.134 438.087 738.128 440.459 738.374C441.644 738.498 442.616 738.684 443.289 738.838C443.626 738.915 443.888 738.985 444.064 739.033C444.152 739.058 444.219 739.078 444.262 739.092C444.284 739.098 444.3 739.103 444.311 739.106C444.316 739.108 444.319 739.109 444.322 739.11C444.323 739.11 444.323 739.11 444.324 739.11C444.324 739.11 444.324 739.11 444.489 738.605C444.654 738.101 444.652 738.102 444.652 738.102ZM431.204 738.118C430.922 738.201 430.762 738.497 430.846 738.778C430.93 739.059 431.225 739.219 431.506 739.136L431.204 738.118ZM444.323 739.111C444.602 739.203 444.902 739.051 444.993 738.771C445.084 738.493 444.932 738.192 444.652 738.102L444.323 739.111Z" fill="#1A1A1A"/>
<path d="M458.259 729.576C457.192 727.026 453.518 726.231 451.964 728.514C451.6 729.379 451.702 730.266 451.801 730.953C451.967 729.113 451.011 727.217 449.435 726.253C447.859 725.289 446.427 724.547 444.975 726.093C443.523 727.638 444.087 729.55 444.954 731.354C444.474 730.231 443.914 728.923 442.849 728.326C441.785 727.728 440.316 727.738 439.446 728.594C438.919 729.112 438.674 729.856 438.571 730.589C437.979 734.831 442.013 739.37 446.281 739.021C455.741 738.248 459.327 732.126 458.259 729.576Z" fill="#FF5780"/>
<path d="M650.146 717.39C650.146 717.39 657.532 720.534 663.338 720.456C669.143 720.377 670.82 707.99 672.108 694.686C673.074 684.708 670.594 672.592 668.362 670.798C667.617 670.2 665.196 669.184 664.642 671.341C662.528 679.592 663.508 684.646 660.512 689.828C659.487 691.601 658.043 693.096 656.316 694.197C655.551 694.686 664.745 692.262 663.852 695.573C661.998 702.459 650.146 717.39 650.146 717.39Z" fill="#FFFBE3"/>
<path d="M460.485 712C460.485 712 457.568 713.255 455.251 716.751C453.748 719.019 452.496 722.23 452.459 726.652C452.364 737.891 469.104 737.193 473.855 730.193C478.607 723.194 469.79 728.245 470.109 719.849C470.109 719.849 465.752 738.715 471.201 737.032C476.649 735.349 478.259 720.294 478.259 720.294L470.999 702.448C468.42 700.697 460.485 712 460.485 712Z" fill="#FFD25E"/>
<path d="M470.108 719.849C470.108 719.849 465.751 738.715 471.2 737.032" stroke="black" stroke-width="1.3" stroke-miterlimit="10" stroke-linecap="round" stroke-linejoin="round"/>
<path d="M647.616 717.23C647.616 717.23 655.003 720.374 660.808 720.296C666.614 720.216 668.29 707.83 669.578 694.526C670.867 681.222 666.028 664.117 663.817 672.744C661.702 680.995 660.978 684.485 657.983 689.666C656.957 691.439 655.513 692.935 653.786 694.036C651.43 695.54 647.772 697.723 644.272 699.204C638.464 701.664 647.616 717.23 647.616 717.23Z" fill="#FFFBE3"/>
<path d="M647.617 717.23C647.617 717.23 655.003 720.374 660.808 720.296C666.614 720.217 668.29 707.83 669.579 694.526C670.867 681.222 666.028 664.117 663.817 672.744C661.703 680.995 660.978 684.485 657.983 689.667C657.263 690.913 656.305 691.747 655.156 692.599C653.693 693.683 652.457 693.864 651.831 695.017C651.629 695.388 652.431 696.377 654.371 696.215C656.594 696.03 661.28 691.649 661.324 695.413C661.407 702.543 647.617 717.23 647.617 717.23Z" fill="#396AFF"/>
<path d="M571.784 703.691C571.784 703.691 546.866 708.187 528.074 709.078C509.283 709.972 509.283 709.972 509.283 709.972L506.321 699.203C506.321 699.203 490.179 706.486 490.511 695.618C490.576 693.45 491.771 685.819 494.411 677.952L494.938 674.164L474.262 722.456L464.308 718.424L458.943 713.546C458.943 713.546 462.125 708.074 468.139 693.707C474.153 679.34 481.34 655.405 491.903 649.833C498.274 646.472 505.091 645.822 509.5 645.836C512.814 645.53 525.155 644.583 534.117 646.49C544.558 648.712 550.317 653.548 554.907 668.757C559.495 683.966 571.784 703.691 571.784 703.691Z" fill="#396AFF"/>
<path d="M522.936 694.961C522.936 694.961 547.856 688.953 584.659 692.62C621.461 696.288 637.904 697.328 637.904 697.328L649.155 695.809L651.996 721.421C651.996 721.421 559.412 724.933 539.998 721.474C520.585 718.015 496.626 701.774 522.936 694.961Z" fill="#FCB643"/>
<path d="M559.194 711.786C559.194 711.786 577.691 708.558 584.211 708.971C586.511 709.116 595.344 719.143 600.471 725.702C606.646 733.603 608.605 737.309 607.405 739.597C605.678 742.888 604.785 738.095 593.961 731.111C581.921 723.341 570.715 725.205 570.715 725.205L549.61 728.55L559.194 711.786Z" fill="#FFFBE3"/>
<path d="M574.306 724.748C573.786 724.7 573.591 724.098 573.931 723.701C577.923 719.05 586.978 725.154 584.726 719.73C582.965 715.492 575.863 710.164 576.187 709.197C580.261 708.714 586.584 706.713 588.889 707.29C593.389 708.42 597.936 716.556 602.905 723.45C608.768 731.586 613.602 741.414 611.221 742.422C610.256 742.831 609.419 743.362 608.273 742.589C604.371 739.952 598.076 732.397 588.58 728.888C579.947 725.701 576.014 724.908 574.306 724.748Z" fill="#FFFBE3"/>
<path d="M571.928 725.185C571.408 725.137 571.213 724.535 571.553 724.139C575.545 719.488 584.601 725.591 582.348 720.167C580.587 715.93 573.485 710.601 573.809 709.634C577.883 709.151 584.206 707.15 586.511 707.727C591.011 708.857 595.558 716.994 600.527 723.888C606.39 732.023 611.427 742.927 608.843 742.859C605.676 742.777 598.486 733.862 586.202 729.326C577.569 726.138 573.636 725.344 571.928 725.185Z" fill="#396AFF"/>
<path d="M496.323 614.88C496.323 614.88 485.882 610.65 482.873 622.953C479.864 635.257 483.132 647.064 488.797 649.208C494.462 651.351 501.291 656.244 510.737 655.057C520.182 653.87 513.514 672.837 533.929 674.574C554.343 676.312 563.307 670.43 575.064 660.912C581.974 655.317 585.805 649.681 587.788 645.985C588.482 644.693 587.072 643.286 585.776 643.976C581.116 646.458 573.194 650.085 567.294 649.712C550.796 648.668 552.048 643.839 542.839 627.193C536.284 615.343 515.915 608.324 507.802 608.774C497.146 609.364 496.323 614.88 496.323 614.88Z" fill="#FF806F"/>
<path d="M494.939 674.164C494.939 674.164 484.235 704.677 474.904 713.51" stroke="black" stroke-width="1.3" stroke-miterlimit="10" stroke-linecap="round" stroke-linejoin="round"/>
<path d="M459.183 727.54C459.198 729.603 459.548 731.787 460.607 733.573" stroke="black" stroke-width="1.3" stroke-miterlimit="10" stroke-linecap="round" stroke-linejoin="round"/>
<path d="M504.163 695.491C504.163 695.491 483.919 695.16 475.731 704.457C467.544 713.755 458.111 727.723 460.941 738.035C463.771 748.346 474.49 754.09 499.553 743.327C524.614 732.564 554.157 729.383 562.638 730.777L561.708 711.797L559.218 696.124L504.163 695.491Z" fill="#FCB643"/>
<path d="M509.44 709.517C509.44 709.517 498.728 725.984 482.626 714.121C466.525 702.258 485.947 696.381 485.947 696.381L507.39 699.057L509.44 709.517Z" fill="#FFD25E"/>
<path d="M540.546 645.45C540.546 645.45 559.503 667.606 590.189 655.776" stroke="black" stroke-width="1.3" stroke-miterlimit="10" stroke-linecap="round" stroke-linejoin="round"/>
<path d="M570.864 701.408C571.337 702.587 570.6 703.901 569.348 704.114C562.631 705.255 543.334 708.354 528.076 709.078C509.284 709.971 509.284 709.971 509.284 709.971L506.322 699.203C506.322 699.203 509.874 698.45 514.65 697.438C514.65 697.438 536.792 691.595 532.552 685.642C526.848 677.632 495.893 671.918 485.504 664.241C479.27 659.635 489.2 651.26 491.904 649.834C498.275 646.473 505.093 645.824 509.501 645.837C512.815 645.531 525.156 644.584 534.118 646.491C544.559 648.713 552.956 649.622 557.545 664.83C561.272 677.187 568.343 695.118 570.864 701.408Z" fill="#396AFF"/>
<path d="M482.654 725.16C482.654 725.16 517.376 711.842 540.538 711.091" stroke="black" stroke-width="1.3" stroke-miterlimit="10" stroke-linecap="round" stroke-linejoin="round"/>
<path d="M503.344 645.755C511.145 646.249 517.869 640.325 518.362 632.525C518.856 624.724 512.932 618 505.132 617.507C497.331 617.013 490.607 622.937 490.114 630.737C489.62 638.538 495.544 645.262 503.344 645.755Z" fill="#FFD25E"/>
<path d="M492.436 693.176C492.436 693.176 504.648 700.447 512.779 700.311C520.91 700.175 534.043 692.884 534.043 692.884L519.484 686.764L492.436 693.176Z" fill="#396AFF"/>
<path d="M526.505 631.513C526.505 631.513 515.339 631.699 507.064 628.499C498.789 625.298 494.542 621.906 496.325 614.88C498.108 607.853 511.547 614.059 516.211 617.923C520.873 621.787 526.505 631.513 526.505 631.513Z" fill="#FF806F"/>
<path d="M526.505 631.514C526.505 631.514 515.339 631.7 507.064 628.499C498.789 625.299 494.542 621.906 496.324 614.88" stroke="black" stroke-width="1.3" stroke-miterlimit="10" stroke-linecap="round" stroke-linejoin="round"/>
<path d="M558.489 715.09L558.506 728.374" stroke="black" stroke-width="1.3" stroke-miterlimit="10" stroke-linecap="round" stroke-linejoin="round"/>
<path d="M500.383 630.151C500.383 630.151 500.2 633.043 501.917 633.442C503.633 633.841 504.106 630.968 504.136 630.485" stroke="black" stroke-width="1.3" stroke-miterlimit="10" stroke-linecap="round" stroke-linejoin="round"/>
<path d="M492.193 631.53C492.193 631.53 491.428 634.819 492.883 635.282C494.337 635.744 495.066 633.009 495.159 631.531" stroke="black" stroke-width="1.3" stroke-miterlimit="10" stroke-linecap="round" stroke-linejoin="round"/>
<path d="M494.91 641.345C494.91 641.345 497.086 642.887 500.011 642.78C503.727 642.645 507.585 640.293 507.983 634.013" stroke="black" stroke-width="1.3" stroke-miterlimit="10" stroke-linecap="round" stroke-linejoin="round"/>
<path d="M509.283 709.971L506.321 699.203C506.321 699.203 544.123 691.639 547.817 690.831C547.817 690.831 526.365 670.286 525.108 662.746" stroke="black" stroke-width="1.3" stroke-miterlimit="10" stroke-linecap="round" stroke-linejoin="round"/>
<path d="M485.123 693.466C485.123 693.466 459.532 711.411 460.749 711.488C461.968 711.565 496.696 723.137 496.696 723.137L504.145 695.755L485.123 693.466Z" fill="#FFFBE3"/>
<path d="M485.123 693.466C485.123 693.466 459.532 711.411 460.749 711.488C461.968 711.565 496.696 723.137 496.696 723.137L504.145 695.755" fill="#FFFBE3"/>
<path d="M485.123 693.466C485.123 693.466 459.532 711.411 460.749 711.488C461.968 711.565 496.696 723.137 496.696 723.137L504.145 695.755" stroke="black" stroke-width="1.15503" stroke-miterlimit="10" stroke-linecap="round" stroke-linejoin="round"/>
<path d="M471.132 708.899L494.056 715.199" stroke="black" stroke-width="1.3" stroke-miterlimit="10" stroke-linecap="round" stroke-linejoin="round"/>
<path d="M475.731 704.457L495.511 709.662" stroke="black" stroke-width="1.3" stroke-miterlimit="10" stroke-linecap="round" stroke-linejoin="round"/>
<path d="M479.362 700.874L497.12 705.075" stroke="black" stroke-width="1.3" stroke-miterlimit="10" stroke-linecap="round" stroke-linejoin="round"/>
<path d="M495.825 670.646C495.825 670.646 492.643 679.867 496.362 682.702C500.082 685.536 506.275 680.08 507.147 676.562" stroke="black" stroke-width="1.3" stroke-miterlimit="10" stroke-linecap="round" stroke-linejoin="round"/>
<path d="M514.376 675.069C514.376 675.069 515.179 682.918 519.873 680.615C524.567 678.313 527.18 672.955 527.18 672.955" stroke="black" stroke-width="1.3" stroke-miterlimit="10" stroke-linecap="round" stroke-linejoin="round"/>
<path d="M523.064 653.096C523.808 655.052 525.601 654.514 526.792 653.877C528.038 653.209 528.193 651.472 527.061 650.624C526.73 650.375 526.286 650.161 525.695 650.015C522.763 649.287 523.064 653.096 523.064 653.096Z" fill="#1AFFFF"/>
<path d="M528.218 681.628C529.73 683.076 531.119 681.82 531.92 680.733C532.76 679.595 532.152 677.96 530.767 677.68C530.361 677.597 529.868 677.595 529.271 677.716C526.311 678.318 528.218 681.628 528.218 681.628Z" fill="#1AFFFF"/>
<path d="M508.72 694.227C510.233 695.675 511.621 694.419 512.423 693.332C513.261 692.194 512.655 690.559 511.27 690.279C510.863 690.196 510.37 690.194 509.773 690.315C506.814 690.917 508.72 694.227 508.72 694.227Z" fill="#1AFFFF"/>
<path d="M533.521 701.047C535.033 702.495 536.422 701.239 537.223 700.152C538.062 699.014 537.455 697.378 536.07 697.099C535.663 697.016 535.171 697.014 534.574 697.135C531.613 697.737 533.521 701.047 533.521 701.047Z" fill="#1AFFFF"/>
<path d="M549.25 670.003C548.398 671.916 550.051 672.797 551.344 673.184C552.7 673.588 554.032 672.465 553.828 671.065C553.768 670.655 553.604 670.19 553.288 669.67C551.72 667.089 549.25 670.003 549.25 670.003Z" fill="#1AFFFF"/>
<path d="M544.27 657.574C545.014 659.53 546.807 658.992 547.998 658.355C549.244 657.687 549.399 655.95 548.267 655.102C547.936 654.853 547.492 654.639 546.901 654.493C543.969 653.766 544.27 657.574 544.27 657.574Z" fill="#1AFFFF"/>
<path d="M481.223 684.018C481.968 685.975 483.761 685.437 484.952 684.799C486.197 684.131 486.352 682.395 485.221 681.547C484.89 681.298 484.446 681.083 483.855 680.937C480.923 680.21 481.223 684.018 481.223 684.018Z" fill="#1AFFFF"/>
<path d="M499.055 661.713C499.799 663.67 501.592 663.132 502.783 662.494C504.029 661.827 504.184 660.09 503.053 659.242C502.721 658.993 502.278 658.779 501.686 658.632C498.754 657.905 499.055 661.713 499.055 661.713Z" fill="#1AFFFF"/>
<path d="M514.826 661.32C514.001 662.226 513.243 663.617 515.122 664.215C517.002 664.813 517.784 663.041 517.469 661.967C517.154 660.892 515.65 660.413 514.826 661.32Z" fill="#1AFFFF"/>
<path d="M487.313 667.007C486.489 667.913 485.731 669.304 487.609 669.902C489.489 670.5 490.272 668.728 489.956 667.654C489.641 666.579 488.137 666.101 487.313 667.007Z" fill="#1AFFFF"/>
<path d="M542.821 662.817C541.997 663.723 541.239 665.114 543.117 665.712C544.996 666.31 545.779 664.538 545.464 663.464C545.149 662.389 543.646 661.911 542.821 662.817Z" fill="#1AFFFF"/>
<path d="M538.286 649.68C537.461 650.587 536.703 651.977 538.582 652.575C540.462 653.173 541.244 651.401 540.929 650.327C540.614 649.253 539.111 648.774 538.286 649.68Z" fill="#FF806F"/>
<path d="M552.743 678.617C551.918 679.523 551.16 680.913 553.039 681.511C554.919 682.11 555.701 680.337 555.386 679.263C555.071 678.189 553.567 677.709 552.743 678.617Z" fill="#FF806F"/>
<path d="M474.962 679.202C474.138 680.108 473.38 681.499 475.258 682.097C477.138 682.695 477.92 680.923 477.605 679.848C477.29 678.774 475.787 678.296 474.962 679.202Z" fill="#FF806F"/>
<path d="M541.743 694.57C540.918 695.476 540.16 696.867 542.039 697.465C543.917 698.063 544.701 696.291 544.386 695.217C544.071 694.142 542.567 693.664 541.743 694.57Z" fill="#FF806F"/>
<path d="M534.213 685.364C533.388 686.27 532.63 687.661 534.509 688.259C536.389 688.857 537.171 687.085 536.856 686.01C536.541 684.936 535.036 684.458 534.213 685.364Z" fill="#FF806F"/>
<path d="M504.096 685.637C503.272 686.543 502.513 687.933 504.392 688.531C506.272 689.129 507.054 687.357 506.739 686.283C506.424 685.209 504.921 684.729 504.096 685.637Z" fill="#FF806F"/>
<path d="M553.135 661.586C552.31 662.492 551.552 663.882 553.431 664.48C555.309 665.078 556.093 663.306 555.778 662.232C555.463 661.158 553.959 660.68 553.135 661.586Z" fill="#FF806F"/>
<path d="M516.032 686.187C515.207 687.093 514.449 688.483 516.328 689.081C518.208 689.68 518.99 687.907 518.675 686.833C518.36 685.759 516.856 685.281 516.032 686.187Z" fill="#FF806F"/>
<path d="M556.747 672.241C555.922 673.147 555.164 674.538 557.043 675.136C558.922 675.734 559.705 673.961 559.39 672.887C559.074 671.813 557.571 671.335 556.747 672.241Z" fill="#FF806F"/>
<path d="M520.408 659.49C519.584 660.396 518.825 661.786 520.704 662.384C522.584 662.983 523.366 661.21 523.051 660.136C522.736 659.062 521.232 658.584 520.408 659.49Z" fill="#FF806F"/>
<path d="M540.474 674.336C539.649 675.242 538.891 676.633 540.77 677.231C542.649 677.829 543.432 676.057 543.117 674.982C542.802 673.908 541.298 673.43 540.474 674.336Z" fill="#FF806F"/>
<path d="M493.847 690.575C493.022 691.482 492.264 692.872 494.143 693.47C496.023 694.068 496.805 692.296 496.49 691.222C496.175 690.148 494.67 689.669 493.847 690.575Z" fill="#FF806F"/>
<path d="M512.582 704.185C511.757 705.091 510.999 706.482 512.878 707.08C514.758 707.678 515.54 705.906 515.225 704.831C514.91 703.757 513.406 703.278 512.582 704.185Z" fill="#FF806F"/>
<path d="M517.185 673.457C516.36 674.363 515.602 675.754 517.481 676.352C519.36 676.95 520.143 675.178 519.828 674.104C519.512 673.029 518.009 672.55 517.185 673.457Z" fill="#FF806F"/>
<path d="M515.471 650.52C514.646 651.426 513.888 652.817 515.767 653.415C517.645 654.013 518.429 652.241 518.114 651.167C517.799 650.092 516.295 649.614 515.471 650.52Z" fill="#FF806F"/>
<path d="M498.376 666.805C497.552 667.711 496.794 669.101 498.672 669.699C500.552 670.297 501.335 668.525 501.019 667.451C500.704 666.377 499.2 665.899 498.376 666.805Z" fill="#FF806F"/>
<path d="M490.537 672.421C489.712 673.327 488.954 674.717 490.833 675.315C492.713 675.913 493.495 674.141 493.18 673.067C492.865 671.993 491.361 671.514 490.537 672.421Z" fill="#FF806F"/>
<path d="M479.91 690.576C479.086 691.482 478.327 692.873 480.206 693.471C482.086 694.069 482.868 692.296 482.553 691.222C482.238 690.148 480.735 689.67 479.91 690.576Z" fill="#FF806F"/>
<path d="M533.993 667.224C533.169 668.13 532.41 669.521 534.289 670.119C536.169 670.717 536.951 668.945 536.636 667.87C536.321 666.796 534.818 666.318 533.993 667.224Z" fill="#1AFFFF"/>
<path d="M545.912 682.221C545.087 683.127 544.329 684.518 546.208 685.116C548.088 685.714 548.87 683.942 548.555 682.868C548.24 681.793 546.736 681.314 545.912 682.221Z" fill="#1AFFFF"/>
<path d="M524.606 684.822C523.782 685.728 523.024 687.119 524.902 687.717C526.781 688.315 527.565 686.543 527.249 685.468C526.934 684.394 525.43 683.916 524.606 684.822Z" fill="#1AFFFF"/>
<path d="M505.755 653.173C504.721 654.204 504.781 654.933 506.081 655.59C507.382 656.248 508.373 655.735 508.254 654.577C508.136 653.419 507.289 651.64 505.755 653.173Z" fill="#1AFFFF"/>
<path d="M492.681 652.906C491.647 653.937 491.707 654.666 493.007 655.323C494.308 655.981 495.299 655.468 495.18 654.31C495.061 653.152 494.215 651.373 492.681 652.906Z" fill="#1AFFFF"/>
<path d="M473.044 688.374C472.01 689.406 472.071 690.134 473.37 690.792C474.671 691.449 475.662 690.937 475.543 689.779C475.426 688.621 474.58 686.842 473.044 688.374Z" fill="#1AFFFF"/>
<path d="M510.27 677.271C509.236 678.302 509.296 679.031 510.596 679.688C511.896 680.346 512.888 679.833 512.769 678.675C512.651 677.517 511.804 675.738 510.27 677.271Z" fill="#1AFFFF"/>
<path d="M494.335 662.418C492.89 662.203 492.341 662.685 492.587 664.12C492.833 665.556 493.835 666.047 494.695 665.263C495.555 664.478 496.48 662.738 494.335 662.418Z" fill="#1AFFFF"/>
<path d="M498.454 685.873C497.42 686.905 497.481 687.633 498.781 688.291C500.082 688.948 501.072 688.436 500.953 687.278C500.836 686.12 499.99 684.341 498.454 685.873Z" fill="#1AFFFF"/>
<path d="M558.014 684.59C556.98 685.622 557.04 686.35 558.34 687.007C559.639 687.665 560.631 687.152 560.512 685.994C560.394 684.836 559.548 683.057 558.014 684.59Z" fill="#1AFFFF"/>
<path d="M543.338 702.112C541.915 701.783 541.329 702.22 541.463 703.671C541.597 705.123 542.556 705.691 543.475 704.976C544.393 704.261 545.452 702.6 543.338 702.112Z" fill="#1AFFFF"/>
<path d="M520.585 699.392C519.161 699.063 518.576 699.5 518.71 700.951C518.844 702.403 519.803 702.971 520.722 702.256C521.641 701.541 522.699 699.879 520.585 699.392Z" fill="#1AFFFF"/>
<path d="M550.852 697.058C549.818 698.09 549.879 698.819 551.179 699.476C552.479 700.133 553.47 699.621 553.351 698.463C553.234 697.305 552.387 695.526 550.852 697.058Z" fill="#1AFFFF"/>
<path d="M561.607 696.6C560.573 697.632 560.634 698.36 561.933 699.018C563.234 699.675 564.225 699.163 564.106 698.005C563.989 696.847 563.143 695.068 561.607 696.6Z" fill="#1AFFFF"/>
<path d="M531.873 648.355C530.839 649.386 530.899 650.115 532.199 650.772C533.5 651.43 534.491 650.917 534.372 649.759C534.253 648.601 533.407 646.822 531.873 648.355Z" fill="#1AFFFF"/>
<path d="M500.234 673.078C499.2 674.11 499.26 674.838 500.56 675.496C501.861 676.153 502.852 675.641 502.733 674.483C502.615 673.325 501.769 671.546 500.234 673.078Z" fill="#1AFFFF"/>
<path d="M532.744 655.106C532.744 655.106 534.351 653.582 535.905 654.725C537.459 655.869 537.485 659.123 535.749 659.014C534.013 658.904 531.324 659.198 532.744 655.106Z" fill="#FF806F"/>
<path d="M471.805 695.685C471.805 695.685 473.774 696.699 473.207 698.543C472.641 700.387 469.577 701.486 469.108 699.812C468.639 698.136 467.474 695.693 471.805 695.685Z" fill="#FF806F"/>
<path d="M480.068 669.832C480.068 669.832 481.674 668.308 483.228 669.451C484.782 670.595 484.809 673.85 483.073 673.74C481.337 673.63 478.648 673.924 480.068 669.832Z" fill="#FF806F"/>
<path d="M554.435 690.804C554.435 690.804 556.042 689.28 557.596 690.423C559.15 691.566 559.176 694.821 557.44 694.711C555.704 694.602 553.016 694.896 554.435 690.804Z" fill="#FF806F"/>
<path d="M527.405 703.054C527.405 703.054 529.012 701.529 530.565 702.673C532.119 703.816 532.146 707.071 530.41 706.961C528.674 706.851 525.984 707.146 527.405 703.054Z" fill="#FF806F"/>
<path d="M507.889 667.379C507.889 667.379 509.047 666.279 510.167 667.104C511.287 667.928 511.306 670.274 510.054 670.195C508.803 670.116 506.865 670.329 507.889 667.379Z" fill="#FF806F"/>
<path d="M486.251 658.865C486.251 658.865 487.409 657.766 488.529 658.591C489.649 659.415 489.669 661.761 488.417 661.682C487.165 661.602 485.227 661.815 486.251 658.865Z" fill="#FF806F"/>
<path d="M483.896 697.192L485.767 695.661C486.121 695.372 486.586 695.26 487.032 695.358L498.234 697.812C498.613 697.895 498.844 698.279 498.741 698.652L498.104 700.968C498.007 701.318 497.652 701.53 497.297 701.447L484.168 698.373C483.624 698.246 483.462 697.546 483.896 697.192Z" fill="#0B6639"/>
<path d="M504.841 698.831C504.841 698.831 501.323 696.614 496.324 692.912C491.127 689.062 489.152 689.185 488.319 694.053C487.086 701.266 502.461 709.503 503.705 707.798L504.841 698.831Z" fill="#FFD25E"/>
<path d="M488.321 694.052C487.266 700.224 498.369 707.144 502.376 707.946" stroke="black" stroke-width="1.3" stroke-miterlimit="10" stroke-linecap="round" stroke-linejoin="round"/>
<path d="M627.291 699.108L649.155 695.808" stroke="black" stroke-width="1.3" stroke-miterlimit="10" stroke-linecap="round" stroke-linejoin="round"/>
<path d="M479.106 574.719L483.542 571.195L492.108 569.39L497.564 571.091L503.382 575.981L493.917 599.565L475.66 581.414L479.106 574.719Z" fill="#FFFBE3"/>
<path d="M503.343 575.946C502.755 576.515 497.5 581.953 497.5 581.953L482.663 584.816L475.621 581.38" stroke="#1CB0A8" stroke-width="1.5" stroke-miterlimit="10"/>
<path d="M493.171 575.995L497.5 581.953L493.878 599.53L482.663 584.818L484.462 577.829L493.171 575.995Z" stroke="#1CB0A8" stroke-width="1.5" stroke-miterlimit="10"/>
<path d="M497.522 571.059L493.171 575.995L484.462 577.829L479.066 574.684" stroke="#1CB0A8" stroke-width="1.5" stroke-miterlimit="10"/>
<path d="M698.204 707.078C735.923 704.016 741.161 719.096 742.221 722.798C743.416 724.543 723.1 727.445 713.49 727.223C703.88 727.001 691.254 723.507 687.069 722.401C688.932 719.518 688.427 707.871 698.204 707.078Z" fill="#DB6900"/>
<path d="M685.276 719.685C686.49 709.989 696.568 676.557 702.265 660.155C705.176 651.632 711.051 663.115 713.236 669.425L710.736 708.893L706.101 726.668C699.621 727.238 684.062 729.381 685.276 719.685Z" fill="#FFFBE3"/>
<path d="M872.728 690.225C872.728 690.225 877.566 677.255 878.516 671.3C878.516 671.3 876.01 662.707 881.816 662.337C887.623 661.966 895.493 668.924 893.679 678.312C891.865 687.7 887.434 717.994 886.672 721.652C885.911 725.31 881.432 728.392 876.041 725.17C869.794 721.437 872.182 702.09 872.182 702.09L872.728 690.225V690.225Z" fill="#DB6900"/>
<path d="M871.329 695.881C871.329 695.881 874.406 696.426 878.083 698.62C881.759 700.811 890.509 704.739 890.509 704.739C890.509 704.739 890.595 704.307 890.722 703.638C891.01 702.163 891.509 699.531 891.775 697.796C891.778 697.789 891.778 697.783 891.778 697.776L891.957 696.327L893.538 683.493C893.538 683.493 891.16 681.146 885.58 679.272C880.001 677.396 875.113 678.07 875.113 678.07C875.113 678.07 871.743 690.279 871.935 690.488C871.549 692.78 871.329 695.881 871.329 695.881Z" fill="#FF2350"/>
<path d="M890.722 703.638C890.917 703.799 891.025 703.892 891.025 703.892L891.775 697.796C891.509 699.531 891.01 702.163 890.722 703.638Z" fill="#FF2350"/>
<path d="M893.538 683.493C893.538 683.493 891.158 681.146 885.58 679.272C880.001 677.398 875.113 678.072 875.113 678.072" stroke="black" stroke-width="1.5" stroke-miterlimit="10" stroke-linecap="round" stroke-linejoin="round"/>
<path d="M891.778 697.776C891.878 697.13 891.946 696.612 891.957 696.327L891.778 697.776Z" fill="#FF2350"/>
<path d="M872.673 688.119C872.673 688.119 877.804 689.731 883.633 692.265C887.439 693.919 891.952 696.153 891.952 696.153" stroke="black" stroke-width="1.5" stroke-miterlimit="10" stroke-linecap="round" stroke-linejoin="round"/>
<path d="M897.935 668.779C897.935 668.779 900.122 679.652 897.44 703.25C895.92 716.617 889.984 728.605 889.984 728.605L885.909 725.307C885.909 725.307 890.675 703.427 891.863 687.698C893.052 671.968 892.171 668.512 892.171 668.512C892.171 668.512 897.62 663.388 897.935 668.779Z" fill="black" stroke="black" stroke-width="1.5" stroke-miterlimit="10" stroke-linecap="round" stroke-linejoin="round"/>
<path d="M752.538 688.679C752.538 688.679 769.793 668.088 774.868 662.21C779.943 656.333 791.986 654.943 808.439 668.197C824.891 681.451 857.02 710.143 857.02 710.143L812.628 722.923C812.628 722.923 788.081 685.455 786.898 686.282C785.715 687.109 764.39 722.834 764.39 722.834L752.538 688.679Z" fill="#00CF6E"/>
<path d="M719.775 712.386C719.775 712.386 720.015 733.564 742.488 734.04C764.961 734.517 850.799 736.518 860.355 732.791C869.912 729.065 877.109 723.562 876.776 706.607C876.442 689.651 869.523 690.999 869.523 690.999C869.523 690.999 857.908 700.183 847.044 700.935C836.178 701.686 752.092 698.379 752.092 698.379L719.775 712.386Z" fill="#00CF6E"/>
<path d="M869.524 691C869.524 691 857.91 700.184 847.046 700.935C836.179 701.686 752.094 698.379 752.094 698.379" stroke="black" stroke-width="1.5" stroke-miterlimit="10" stroke-linecap="round" stroke-linejoin="round"/>
<path d="M783.923 678.457C783.923 678.457 792.531 696.905 798.618 703.293" stroke="black" stroke-width="1.5" stroke-miterlimit="10" stroke-linecap="round" stroke-linejoin="round"/>
<path d="M797.689 710.471C797.689 710.471 806.28 721.697 820.486 724.849C834.692 728.001 837.757 721.754 833.526 717.118C829.294 712.479 822.669 711.621 822.669 711.621C822.669 711.621 835.816 714.447 840.443 711.048C845.07 707.649 840.349 701.601 831.228 700.626C831.228 700.626 837.892 700.782 838.501 693.462C839.121 685.993 833.237 686.38 821.521 687.873C809.805 689.366 796.018 692.203 796.018 692.203L797.689 710.471Z" fill="#EC6000"/>
<path d="M708.303 645.594C701.887 645.3 696.924 639.859 697.219 633.442C697.513 627.026 702.954 622.063 709.371 622.358C715.788 622.652 720.75 628.093 720.455 634.51C720.161 640.927 714.72 645.889 708.303 645.594Z" fill="#EC6000"/>
<path d="M700.28 621.459C700.28 621.459 699.865 620.569 696.8 619.028L695.145 624.036L700.28 621.459Z" fill="#B10132"/>
<path d="M709.982 624.313C709.982 624.313 717.238 626.115 719.576 622.211C721.914 618.309 716.095 612.958 712.743 617.455C712.743 617.455 709.722 614.325 706.222 615.3C702.724 616.276 702.51 618.644 703.379 620.766C703.379 620.766 698.83 618.359 695.278 621.092C691.726 623.826 691.507 626.722 691.507 626.722C691.507 626.722 687.92 625.236 686.443 629.197C684.966 633.158 687.847 633.807 689.943 633.387C689.943 633.387 686.273 632.893 686.514 637.026C686.755 641.156 690.765 641.628 693.388 640.885C696.014 640.141 706.543 636.502 706.543 636.502C706.543 636.502 710.97 637.721 711.157 633.672C711.283 630.908 708.239 630.915 708.239 630.915C708.239 630.915 711.314 630.235 711.415 628.039C711.504 626.109 709.982 624.313 709.982 624.313Z" fill="black"/>
<path d="M701.118 652.014C696.049 651.781 692.129 647.484 692.362 642.415C692.595 637.347 696.893 633.427 701.961 633.66C707.029 633.893 710.949 638.19 710.717 643.259C710.484 648.327 706.186 652.247 701.118 652.014Z" fill="#FF2350"/>
<path d="M701.323 647.54C698.726 647.421 696.717 645.218 696.836 642.621C696.955 640.024 699.158 638.015 701.755 638.135C704.352 638.254 706.361 640.456 706.241 643.053C706.122 645.651 703.92 647.659 701.323 647.54Z" fill="black"/>
<path d="M696.663 619.035C696.429 619.229 699.254 632.965 701.603 635.558L695.916 637.966C695.916 637.966 692.391 631.884 691.488 627.13C690.583 622.376 690.493 621.425 690.493 621.425L696.663 619.035Z" fill="#FF2350"/>
<path d="M758.647 711.475C766.609 713.999 796.33 719.411 796.33 719.411C796.33 719.411 802.611 717.811 803.293 706.512C803.975 695.212 800.309 691.808 800.309 691.808L763.256 691.724C743.021 648.713 721.131 647.707 710.297 652.434C699.463 657.161 699.637 666.053 702.695 681.839C705.752 697.625 719.777 712.386 719.777 712.386C719.777 712.386 731.851 715.637 740.9 714.435C749.95 713.233 755.286 710.192 755.286 710.192C755.286 710.192 757.159 711.004 758.647 711.475Z" fill="#FFFBE0"/>
<path d="M800.307 691.809L763.254 691.724" stroke="black" stroke-width="1.5" stroke-miterlimit="10" stroke-linecap="round" stroke-linejoin="round"/>
<path d="M715.15 660.381C714.564 669.922 720.132 681.111 727.119 690.066C734.107 699.019 750.685 708.953 758.647 711.477C766.609 714.001 796.33 719.414 796.33 719.414" stroke="black" stroke-width="1.5" stroke-miterlimit="10" stroke-linecap="round" stroke-linejoin="round"/>
<path d="M814.511 696.525C814.511 696.525 831.298 699.235 839.43 703.5" stroke="black" stroke-width="1.5" stroke-miterlimit="10" stroke-linecap="round" stroke-linejoin="round"/>
<path d="M813.423 705.619C813.423 705.619 829.309 712.203 833.525 717.118" stroke="black" stroke-width="1.5" stroke-miterlimit="10" stroke-linecap="round" stroke-linejoin="round"/>
<path d="M894.467 666.23C895.325 669.91 896.331 676.519 895.599 685.608C894.652 697.37 890.073 718.19 887.259 727.257" stroke="#00CF6E" stroke-width="1.94966" stroke-miterlimit="10" stroke-linecap="round" stroke-linejoin="round"/>
<path d="M715.576 628.487C715.163 628.468 714.843 628.118 714.862 627.704C714.881 627.29 715.232 626.97 715.645 626.989C716.059 627.008 716.379 627.359 716.36 627.773C716.341 628.186 715.99 628.506 715.576 628.487Z" fill="black"/>
<path d="M705.806 667.973C705.493 667.613 704.903 667.863 704.947 668.338C705.245 671.558 706.248 679.533 709.327 687.308C713.309 697.367 713.309 697.367 713.309 697.367L709.836 697.702L713.977 704.312L722.489 701.74L719.872 694.213L716.78 694.783C716.78 694.783 711.032 679.464 710.491 678.461L713.871 677.247L705.806 667.973Z" fill="#00B3A9"/>
<path d="M720.456 634.51C720.456 634.51 718.751 636.056 714.953 634.866" stroke="black" stroke-width="1.5" stroke-miterlimit="10" stroke-linecap="round" stroke-linejoin="round"/>
<path d="M673.97 568.883L681.199 563.942L694.602 562.11L702.821 565.335L711.251 573.515L694.054 608.821L667.919 578.827L673.97 568.883Z" fill="#FFFBE3"/>
<path d="M711.193 573.46C710.227 574.274 701.524 582.072 701.524 582.072L678.335 584.845L667.858 578.769" stroke="#1CB0A8" stroke-width="1.5" stroke-miterlimit="10"/>
<path d="M695.509 572.409L701.524 582.072L693.995 608.767L678.338 584.846L681.884 574.274L695.509 572.409Z" stroke="#1CB0A8" stroke-width="1.5" stroke-miterlimit="10"/>
<path d="M702.763 565.28L695.509 572.409L681.885 574.274L673.912 568.829" stroke="#1CB0A8" stroke-width="1.5" stroke-miterlimit="10"/>
<path d="M699.979 673.479C701.036 683.238 707.049 697.108 710.99 701.884" stroke="black" stroke-width="1.61444" stroke-linecap="round" stroke-linejoin="round"/>
<path d="M211.574 577.167C211.574 577.167 223.27 571.279 225.306 561.823C227.342 552.367 229.254 539.961 219.833 537.31C215.607 536.122 211.574 539.344 211.574 539.344L203.914 548.2C203.914 548.2 200.802 540.313 196.494 541.084C192.185 541.856 193.263 545.139 195.177 549.063C197.091 552.986 202.004 563.557 199.844 568.786C197.686 574.016 211.574 577.167 211.574 577.167Z" fill="#FFB211"/>
<path d="M211.575 577.166C211.575 577.166 223.27 571.278 225.306 561.823C227.342 552.367 229.254 539.961 219.833 537.31" fill="#FFB211"/>
<path d="M211.575 577.166C211.575 577.166 223.27 571.278 225.306 561.823C227.342 552.367 229.254 539.961 219.833 537.31" stroke="#1A1A1A" stroke-width="1.5" stroke-miterlimit="10"/>
<path d="M244.546 613.527C241.995 617.355 236.255 626.285 233.704 627.561C233.704 627.561 216.481 616.397 209.784 611.296C206.588 608.86 200.138 603.667 194.265 598.9C189.645 604.727 184.8 610.976 184.8 610.976C186.182 618.311 185.952 626.285 184.792 632.984C183.631 639.68 183.214 641.913 183.214 641.913C183.214 641.913 167.162 636.49 159.29 636.49C151.419 636.49 136.746 638.085 136.746 638.085C136.746 638.085 118.937 586.759 143.456 563.261C159.521 547.865 174.699 559.946 186.18 566.325C188.07 567.374 190.497 568.956 193.259 570.87L197.982 563.22C197.982 563.22 199.258 564.73 201.811 566.325C204.361 567.919 214.473 576.712 214.473 576.712C213.869 577.92 211.714 580.017 209.104 582.498C220.322 590.959 231.459 599.519 234.66 600.651C240.4 602.683 245.184 604.595 246.779 606.509C248.374 608.423 247.099 609.699 244.546 613.527Z" fill="#007C73"/>
<path d="M354.435 707.047C354.064 706.554 362.018 688.668 363.174 686.076C363.246 685.915 363.485 685.815 363.589 685.959C365.722 688.879 370.82 690.645 375.639 689.038C375.845 688.968 376.067 688.972 376.269 689.055C378.326 689.911 390.159 694.469 392.964 687.412C393.016 687.28 392.966 687.13 392.842 687.058L391.543 686.091C389.086 684.264 386.478 682.65 383.745 681.266L373.803 676.232C373.764 676.21 373.733 676.179 373.707 676.145C373.364 675.63 370.489 671.612 364.551 671.756C364.467 671.758 364.384 671.749 364.304 671.728C362.928 671.358 349.842 668.153 347.109 679.084C344.682 688.794 342.253 694.611 341.544 696.21C341.418 696.492 341.156 696.688 340.849 696.729C338.035 697.096 323.748 698.871 315.372 698.12C306.051 697.283 293.845 693.381 286.742 696.664C279.639 699.947 276.311 704.231 275.201 712.631C274.171 720.429 278.118 724.097 282.772 723.406C283.316 723.325 283.8 723.749 283.789 724.299C283.744 726.98 284.361 733.606 291.402 735.014C298.853 736.505 305.367 733.096 307.268 731.96C307.598 731.762 308.019 731.801 308.308 732.057C310.17 733.704 317.212 739.149 325.425 735.558C325.66 735.455 325.927 735.453 326.159 735.558C327.706 736.255 333.97 738.51 338.261 731.688C338.587 731.171 339.333 731.14 339.708 731.623C342.038 734.61 348.84 743.121 352.66 745.667C356.73 748.381 367.061 756.003 369.616 757.891C369.935 758.126 370.059 758.543 369.92 758.914C369.618 759.727 369.377 761.117 371.08 761.426C373.522 761.869 384.619 763.423 386.394 759.651C388.169 755.879 381.066 755.655 376.629 752.994C372.191 750.33 359.763 735.017 357.764 730.356L356.095 726.465C355.919 726.054 356.073 725.576 356.458 725.348C358.5 724.14 363.787 719.512 354.435 707.047Z" fill="#FFB211"/>
<path d="M394.064 686.906C395.869 685.864 396.815 684.123 396.177 683.019C395.539 681.914 393.559 681.863 391.754 682.906C389.949 683.948 389.003 685.688 389.641 686.793C390.278 687.897 392.259 687.948 394.064 686.906Z" fill="#FF7466"/>
<path d="M262.321 630.435C262.897 631.213 332.421 690.061 338.498 693.355C338.677 693.452 338.892 693.452 339.07 693.357C340.499 692.603 340.526 690.565 339.115 689.774L263.8 625.785L262.321 630.435Z" fill="black"/>
<path d="M344.725 733.172C344.829 733.346 344.84 733.559 344.753 733.741C343.71 735.955 337.088 750.076 336.68 752.324C336.275 754.551 340.023 758.069 340.686 758.671C340.749 758.727 340.821 758.771 340.901 758.797C341.657 759.049 345.838 760.587 344.827 763.592C343.717 766.892 336.921 767.649 334.257 765.652C331.83 763.831 330.679 759.053 330.494 758.221C330.476 758.139 330.442 758.063 330.392 757.995C329.864 757.28 326.789 752.931 327.804 749.671C328.86 746.284 335.552 732.985 336.197 731.707C336.23 731.642 336.275 731.584 336.33 731.534L340.571 727.647C340.856 727.386 341.305 727.453 341.503 727.784L344.725 733.172Z" fill="#FF7466"/>
<path d="M313.522 731.999C313.783 732.325 313.649 732.809 313.257 732.95C310.837 733.83 303.695 736.355 300.282 740.338C296.947 744.229 294.694 748.127 294.042 749.309C293.922 749.526 293.946 749.793 294.103 749.985L301.247 758.801C301.338 758.914 301.468 758.993 301.614 759.019C302.596 759.19 306.555 760.007 306.941 762.119C307.385 764.531 303.613 765.42 299.839 765.198C296.065 764.976 295.4 763.644 293.846 760.759C292.293 757.874 286.744 751.012 285.19 749.672C283.637 748.331 285.634 743.892 288.519 739.453C290.941 735.727 292.113 729.583 292.425 727.706C292.478 727.388 292.767 727.169 293.086 727.201L310.876 728.996C311.039 729.013 311.187 729.094 311.289 729.22L313.522 731.999Z" fill="#FF7466"/>
<path d="M278.668 716.738C278.322 716.633 277.962 716.851 277.894 717.205C277.425 719.675 276.478 728.635 272.487 733.45C267.878 739.008 265.438 741.228 264.993 743.668C264.55 746.111 270.764 754.321 271.539 758.095C272.315 761.869 272.317 765.309 276.754 766.584C281.193 767.859 288.517 768.813 287.85 765.23C287.185 761.648 285.631 761.424 282.301 759.206C278.97 756.987 277.881 755.877 276.43 751.438C275.237 747.794 275.063 744.748 275.037 743.775C275.033 743.573 275.126 743.382 275.294 743.266C277.577 741.65 294.248 729.928 296.728 730.135C299.254 730.345 287.593 720.164 286.394 719.123C286.329 719.067 286.253 719.025 286.17 718.999L278.668 716.738Z" fill="#FF7466"/>
<path d="M238.201 617.455C238.201 617.455 235.048 632.301 239.776 633.94C244.504 635.578 247.702 634.789 247.483 628.882C247.483 628.882 246.446 636.779 252.146 638.003C257.845 639.224 257.979 630.268 257.979 630.268C257.979 630.268 254.722 638.409 262.186 638.952C269.649 639.495 266.527 629.318 266.527 629.318C266.527 629.318 267.341 634.087 274.533 633.942C281.725 633.796 277.653 627.665 273.177 624.693C268.699 621.72 263.242 616.156 258.522 614.257C253.805 612.358 242.24 608.695 242.24 608.695L238.201 617.455Z" fill="#FFB211"/>
<path d="M246.718 623.83C246.718 624.023 247.483 627.009 247.346 631.776" stroke="#1A1A1A" stroke-width="1.5" stroke-miterlimit="10" stroke-linecap="round" stroke-linejoin="round"/>
<path d="M257.812 625.788C258.477 627.406 258.612 629.861 257.006 635.082" stroke="#1A1A1A" stroke-width="1.5" stroke-miterlimit="10" stroke-linecap="round" stroke-linejoin="round"/>
<path d="M217.474 555.917C217.474 555.917 213.256 542.768 217.763 538.26C217.763 538.26 219.562 536.48 222.076 538.156" fill="#FFB211"/>
<path d="M217.474 555.917C217.474 555.917 213.256 542.768 217.763 538.26C217.763 538.26 219.562 536.48 222.076 538.156" stroke="#1A1A1A" stroke-width="1.5" stroke-miterlimit="10" stroke-linecap="round"/>
<path d="M213.224 561.929L221.511 529.651L207.512 531.166L203.284 554.866L213.224 561.929Z" fill="#FFFBE0"/>
<path d="M203.284 554.866L213.224 561.929L221.511 529.651L207.512 531.166" fill="#FFFBE0"/>
<path d="M203.284 554.866L213.224 561.929L221.511 529.651L207.512 531.166" stroke="black" stroke-width="1.95544" stroke-miterlimit="10" stroke-linecap="round" stroke-linejoin="round"/>
<path d="M217.474 555.917C217.474 555.917 213.256 542.768 217.763 538.26C217.763 538.26 219.562 536.48 222.076 538.156" fill="#FFB211"/>
<path d="M217.474 555.917C217.474 555.917 213.256 542.768 217.763 538.26C217.763 538.26 219.562 536.48 222.076 538.156" stroke="#1A1A1A" stroke-width="1.5" stroke-miterlimit="10" stroke-linecap="round"/>
<path d="M160.692 725.652C160.692 725.652 158.432 736.779 159.29 741.663C160.148 746.547 163.992 751.432 163.992 751.432L175.751 749.124C176.146 749.046 176.433 748.698 176.433 748.296C176.433 745.281 179.785 743.495 182.301 745.157C184.555 746.647 187.142 747.905 189.461 747.905C195.16 747.905 208.554 746.278 214.475 745.463C220.396 744.648 219.04 732.981 212.255 733.25C205.469 733.52 196.131 733.793 192.116 731.08C188.1 728.366 184.791 716.696 184.791 716.696L160.692 725.652Z" fill="black"/>
<path d="M142.754 692.759C142.754 692.759 134.361 695.343 133.07 697.279C131.779 699.215 136.748 706.747 136.748 706.747C139.401 705.511 142.295 707.925 141.554 710.756C141.007 712.846 140.214 715.299 139.064 717.937C135.223 726.76 136.34 733.218 136.751 739.458C137.161 745.698 144.049 749.787 147.923 739.458C151.797 729.128 156.492 707.823 156.492 707.823L142.754 692.759Z" fill="black"/>
<path d="M173.743 712.394C173.743 712.394 185.608 697.405 192.114 689.112C198.619 680.818 200.852 669.338 195.11 661.364C189.367 653.39 177.25 630.109 177.25 630.109L153.011 624.688C153.011 624.688 155.562 677.631 146.313 685.922C137.063 694.213 139.297 694.215 139.297 694.215C139.297 694.215 146.313 698.361 149.183 707.929C152.053 717.498 157.157 723.238 157.157 723.238L173.743 712.394Z" fill="#EC6000"/>
<path d="M139.299 694.217C139.299 694.217 146.315 698.363 149.185 707.931C152.055 717.5 157.159 723.24 157.159 723.24L173.743 712.396" stroke="#1A1A1A" stroke-width="1.5" stroke-miterlimit="10" stroke-linecap="round" stroke-linejoin="round"/>
<path d="M186.501 719.412C186.501 719.412 171.508 727.705 166.05 729.118C159.19 730.893 153.972 727.705 153.972 727.705C153.972 727.705 154.289 715.905 153.972 707.932C153.652 699.958 150.463 685.288 150.463 678.591C150.463 671.895 148.231 654.991 145.361 649.887C142.491 644.784 141.213 634.898 141.533 633.94H175.977C175.977 633.94 180.442 642.87 180.955 649.887C181.469 656.903 183.949 677.316 184.792 685.607C185.632 693.898 186.501 719.412 186.501 719.412Z" fill="#FF8200"/>
<path d="M178.721 640.495C179.753 643.387 180.731 646.819 180.955 649.885C181.47 656.901 183.949 677.314 184.792 685.605C185.633 693.898 186.502 719.412 186.502 719.412" stroke="#1A1A1A" stroke-width="1.5" stroke-miterlimit="10" stroke-linecap="round"/>
<path d="M159.291 538.788C159.291 545.83 164.998 551.537 172.04 551.537C179.082 551.537 184.79 545.83 184.79 538.788C184.79 531.746 179.225 523.77 172.203 523.229C160.055 522.295 159.291 531.746 159.291 538.788Z" fill="#FFB211"/>
<path d="M354.435 707.047C354.064 706.554 362.018 688.668 363.174 686.076C363.246 685.915 363.485 685.815 363.589 685.959C365.722 688.879 370.82 690.645 375.639 689.038C375.845 688.968 376.067 688.972 376.269 689.055C378.326 689.911 390.159 694.469 392.964 687.412C393.016 687.28 392.966 687.13 392.842 687.058L391.543 686.091C389.086 684.264 386.478 682.65 383.745 681.266L373.803 676.232C373.764 676.21 373.733 676.179 373.707 676.145C373.364 675.63 370.489 671.612 364.551 671.756C364.467 671.758 364.384 671.749 364.304 671.728C362.928 671.358 349.842 668.153 347.109 679.084C344.682 688.794 342.253 694.611 341.544 696.21C341.418 696.492 341.156 696.688 340.849 696.729C338.035 697.096 323.748 698.871 315.372 698.12C306.051 697.283 293.845 693.381 286.742 696.664C279.639 699.947 276.311 704.231 275.201 712.631C274.171 720.429 278.118 724.097 282.772 723.406C283.316 723.325 283.8 723.749 283.789 724.299C283.744 726.98 284.361 733.606 291.402 735.014C298.853 736.505 305.367 733.096 307.268 731.96C307.598 731.762 308.019 731.801 308.308 732.057C310.17 733.704 317.212 739.149 325.425 735.558C325.66 735.455 325.927 735.453 326.159 735.558C327.704 736.253 333.949 738.502 338.238 731.723C338.576 731.186 339.361 731.18 339.717 731.705C341.247 733.963 343.711 737.687 350.883 735.499C355.854 733.982 355.876 725.95 355.876 725.95C355.815 725.811 355.876 725.65 356.013 725.585C357.479 724.881 364.593 720.588 354.435 707.047Z" fill="#FFB211"/>
<path d="M280.289 702.884C280.289 702.884 269.356 679.528 267.729 676.421C266.101 673.314 263.394 674.652 264.969 677.868C266.462 680.914 277.039 701.848 278.14 704.031C278.201 704.153 278.303 704.251 278.427 704.31C279.146 704.638 281.536 705.581 280.289 702.884Z" fill="#FF7466"/>
<path d="M267.233 679.424C270.214 678.299 272.159 676.134 271.576 674.588C270.992 673.042 268.102 672.701 265.12 673.826C262.138 674.951 260.194 677.116 260.777 678.662C261.361 680.208 264.251 680.549 267.233 679.424Z" fill="#FFB211"/>
<path d="M267.216 679.452C270.197 678.326 272.141 676.162 271.559 674.615" stroke="#1A1A1A" stroke-width="1.5" stroke-miterlimit="10" stroke-linecap="round" stroke-linejoin="round"/>
<path d="M271.6 689.757C274.36 688.163 275.928 685.711 275.102 684.28C274.275 682.849 271.368 682.981 268.608 684.575C265.848 686.168 264.281 688.62 265.107 690.051C265.933 691.482 268.84 691.35 271.6 689.757Z" fill="#FFB211"/>
<path d="M276.53 700.698C279.29 699.105 280.858 696.653 280.031 695.222C279.205 693.791 276.298 693.923 273.538 695.516C270.778 697.11 269.21 699.562 270.036 700.992C270.863 702.423 273.77 702.292 276.53 700.698Z" fill="#FFB211"/>
<path d="M354.701 682.617C354.668 682.63 354.642 682.645 354.611 682.663C350.157 685.535 341.112 687.999 339.342 685.763C337.567 683.521 340.191 680.321 344.891 675.532C349.33 671.008 362.425 667.097 362.425 673.314C362.425 679.252 355.331 682.354 354.701 682.617Z" fill="#FFB211"/>
<path d="M362.424 673.314C362.424 679.252 355.33 682.354 354.7 682.617C354.668 682.63 354.642 682.645 354.611 682.663C350.157 685.535 341.112 687.999 339.341 685.763" stroke="#1A1A1A" stroke-width="1.5" stroke-miterlimit="10" stroke-linecap="round" stroke-linejoin="round"/>
<path d="M369.749 681.083C371.955 681.083 373.744 680.363 373.744 679.476C373.744 678.588 371.955 677.868 369.749 677.868C367.542 677.868 365.753 678.588 365.753 679.476C365.753 680.363 367.542 681.083 369.749 681.083Z" fill="white"/>
<path d="M341.192 691.158C343.28 693.07 351.337 700.053 359.05 701.422C359.339 701.474 359.547 701.728 359.55 702.024C359.552 703.099 359.45 705.542 358.515 706.458C358.355 706.617 358.113 706.658 357.9 706.582C356.853 706.206 353.173 704.744 347.776 701.059C342.615 697.537 339.95 694.813 339.096 693.87C338.909 693.663 338.887 693.357 339.041 693.127L340.275 691.273C340.484 690.958 340.919 690.906 341.192 691.158Z" fill="#FF2350"/>
<path d="M369.749 680.495C370.311 680.495 370.768 680.038 370.768 679.476C370.768 678.913 370.311 678.457 369.749 678.457C369.186 678.457 368.729 678.913 368.729 679.476C368.729 680.038 369.186 680.495 369.749 680.495Z" fill="black"/>
<path d="M170.447 726.819C170.408 726.539 169.648 719.727 167.312 685.896C166.645 676.253 165.146 661.992 161.778 648.81C159.764 640.929 157.411 635.119 157.394 635.083L160.585 635.884C160.659 636.043 162.436 639.882 164.514 647.973C166.415 655.38 168.937 667.938 170.163 685.698C172.485 719.334 173.448 725.646 173.456 725.715L170.447 726.819Z" fill="#FFD041"/>
<path d="M244.545 613.527C241.995 617.355 236.254 626.285 233.704 627.561C233.704 627.561 216.728 616.056 209.784 611.296C202.199 606.096 181.4 586.299 181.4 586.299C182.782 593.634 191.512 617.962 184.794 632.982C182.019 639.187 183.216 641.911 183.216 641.911C183.216 641.911 167.164 636.488 159.292 636.488C151.421 636.488 136.748 638.083 136.748 638.083C136.748 638.083 118.939 586.757 143.458 563.259C159.523 547.863 174.701 559.944 186.182 566.323C188.072 567.372 190.499 568.954 193.261 570.868C193.261 570.868 231.459 599.517 234.66 600.649C240.4 602.681 245.184 604.593 246.779 606.507C248.374 608.423 247.098 609.699 244.545 613.527Z" fill="#00B3A9"/>
<path d="M148.558 625.801C159.191 625.162 175.23 625.553 187.997 631.68" stroke="#81D7D3" stroke-width="1.95544" stroke-miterlimit="10" stroke-linecap="round"/>
<path d="M156.427 618.529C168.082 618.707 182.43 620.256 188.707 626.244" stroke="#81D7D3" stroke-width="1.95544" stroke-miterlimit="10" stroke-linecap="round"/>
<path d="M136.505 633.077C136.505 633.077 165.77 627.043 185.02 636.968" stroke="#81D7D3" stroke-width="1.95544" stroke-miterlimit="10" stroke-linecap="round"/>
<path d="M226.08 626.296C226.08 626.296 242.186 608.986 244.592 599.852" stroke="#81D7D3" stroke-width="1.95544" stroke-miterlimit="10"/>
<path d="M219.829 621.008C219.829 621.488 228.965 612.593 238.58 597.929" stroke="#81D7D3" stroke-width="1.95544" stroke-miterlimit="10"/>
<path d="M177.671 532.426C177.671 532.426 179.896 537.032 181.372 536.645C182.847 536.259 182.036 532.228 180.018 530.549" stroke="black" stroke-width="1.55222" stroke-miterlimit="10" stroke-linecap="round" stroke-linejoin="round"/>
<path d="M172.401 536.995C172.401 536.995 175.417 546.282 183.638 543.933" stroke="#1A1A1A" stroke-width="1.5" stroke-miterlimit="10" stroke-linecap="round" stroke-linejoin="round"/>
<path d="M160.14 533.302L169.426 531.813L168.075 536.048L165.17 542.568L157.672 547.487C157.672 547.485 150.578 535.557 160.14 533.302Z" fill="#FFFBE0"/>
<path d="M166.721 540.233C168.443 540.233 169.839 538.788 169.839 537.006C169.839 535.224 168.443 533.78 166.721 533.78C164.999 533.78 163.603 535.224 163.603 537.006C163.603 538.788 164.999 540.233 166.721 540.233Z" fill="#FFB211"/>
<path d="M203.509 535.776L214.975 535.448" stroke="#1A1A1A" stroke-width="1.5" stroke-miterlimit="10" stroke-linecap="round"/>
<path d="M202.527 540.363L212.683 541.345" stroke="#1A1A1A" stroke-width="1.5" stroke-miterlimit="10" stroke-linecap="round"/>
<path d="M201.872 544.622L210.389 546.914" stroke="#1A1A1A" stroke-width="1.5" stroke-miterlimit="10" stroke-linecap="round"/>
<path d="M208.65 555.195C208.796 554.811 208.468 554.331 207.918 554.123C207.368 553.915 206.804 554.057 206.659 554.441C206.514 554.825 206.842 555.305 207.392 555.513C207.942 555.721 208.505 555.579 208.65 555.195Z" fill="#231F20"/>
<path d="M169.441 572.795C169.441 573.38 179.823 585.167 185.726 590.594" stroke="#1A1A1A" stroke-width="1.5" stroke-miterlimit="10" stroke-linecap="round" stroke-linejoin="round"/>
<path d="M150.009 477.051L144.347 477.251L136.66 481.437L133.614 486.272L132.36 493.77L154.869 505.566L156.977 479.91L150.009 477.051Z" fill="#FFFBE3"/>
<path d="M132.368 493.717C133.183 493.769 140.711 494.495 140.711 494.495L153.856 487.042L156.983 479.857" stroke="#1CB0A8" stroke-width="1.5" stroke-miterlimit="10"/>
<path d="M140.138 487.151L140.712 494.495L154.878 505.515L153.857 487.042L147.953 482.895L140.138 487.151Z" stroke="#1CB0A8" stroke-width="1.5" stroke-miterlimit="10"/>
<path d="M133.622 486.221L140.138 487.151L147.953 482.895L150.017 477" stroke="#1CB0A8" stroke-width="1.5" stroke-miterlimit="10"/>
<path d="M91.4436 753.31C94.9866 736.246 96.2579 699.419 75.5 677.31" stroke="#1CB0A8" stroke-width="1.5"/>
<path d="M94.5 719.653C85.4257 716.266 68.4941 711.017 73.3622 717.113C78.2303 723.209 89.4824 721.346 94.5 719.653Z" stroke="#1CB0A8" stroke-width="1.5" stroke-linecap="round" stroke-linejoin="round"/>
<path d="M89.5 700.89C80.8382 697.987 64.6762 693.487 69.323 698.712C73.9698 703.938 84.7105 702.341 89.5 700.89Z" stroke="#1CB0A8" stroke-width="1.5" stroke-linecap="round" stroke-linejoin="round"/>
<path d="M83.5 685.653C74.4257 682.266 57.4941 677.017 62.3622 683.113C67.2303 689.209 78.4824 687.346 83.5 685.653Z" stroke="#1CB0A8" stroke-width="1.5" stroke-linecap="round" stroke-linejoin="round"/>
<path d="M93.0467 720.873C100.362 714.871 113.099 703.145 105.526 704.259C97.9539 705.372 94.0514 715.799 93.0467 720.873Z" stroke="#1CB0A8" stroke-width="1.5" stroke-linecap="round" stroke-linejoin="round"/>
<path d="M88.887 702.12C96.202 696.118 108.939 684.392 101.367 685.506C93.7942 686.619 89.8917 697.046 88.887 702.12Z" stroke="#1CB0A8" stroke-width="1.5" stroke-linecap="round" stroke-linejoin="round"/>
<path d="M82.0111 686.493C89.3261 680.49 102.063 668.764 94.4906 669.878C86.9182 670.992 83.0158 681.418 82.0111 686.493Z" stroke="#1CB0A8" stroke-width="1.5" stroke-linecap="round" stroke-linejoin="round"/>
<path d="M76.5 678.31L75.9772 678.847C76.2296 679.093 76.6189 679.129 76.9128 678.936C77.2068 678.742 77.3264 678.37 77.2002 678.041L76.5 678.31ZM66.553 664.893L67.1839 665.299L66.553 664.893ZM77.0228 677.772C76.7409 677.498 76.2725 677.214 75.7822 676.939C75.2708 676.651 74.6271 676.314 73.948 675.948C72.5684 675.204 70.9699 674.302 69.5775 673.23C68.1751 672.151 67.0579 670.956 66.5496 669.656C66.0624 668.41 66.1004 666.985 67.1839 665.299L65.9221 664.488C64.5992 666.546 64.4767 668.474 65.1527 670.203C65.8075 671.877 67.1771 673.275 68.6625 674.419C70.1579 675.57 71.8483 676.52 73.2363 677.268C73.9409 677.648 74.5505 677.967 75.0469 678.246C75.5644 678.537 75.858 678.731 75.9772 678.847L77.0228 677.772ZM67.1839 665.299C67.629 664.607 68.009 664.277 68.2952 664.143C68.5409 664.028 68.7643 664.031 69.0319 664.159C69.3343 664.304 69.693 664.613 70.0958 665.13C70.4925 665.638 70.8953 666.301 71.3015 667.087C72.9479 670.27 74.4331 675.017 75.7998 678.578L77.2002 678.041C75.893 674.634 74.3299 669.677 72.6339 666.398C72.2045 665.567 71.7534 664.816 71.2789 664.207C70.8106 663.607 70.2811 663.094 69.6793 662.806C69.0429 662.501 68.3463 662.462 67.6573 662.785C67.0089 663.09 66.4397 663.683 65.9221 664.488L67.1839 665.299Z" fill="#1CB0A8"/>
<path d="M53.4154 746.31C53.8163 735.416 52.9945 710.764 46.5 699.31" stroke="#1CB0A8" stroke-width="1.5"/>
<path d="M52.5 718.31C50.1 717.643 44.34 715.71 40.5 713.31" stroke="#1CB0A8" stroke-width="1.5"/>
<circle cx="38" cy="711.81" r="3.75" fill="#95D5D2" stroke="#1CB0A8" stroke-width="1.5"/>
<circle cx="44" cy="695.81" r="3.75" fill="#95D5D2" stroke="#1CB0A8" stroke-width="1.5"/>
<path d="M53.5 732.31C53.5 732.31 58.3387 722.31 63.5 722.31" stroke="#1CB0A8" stroke-width="1.5"/>
<circle cx="64" cy="721.81" r="3.75" fill="#95D5D2" stroke="#1CB0A8" stroke-width="1.5"/>
<path d="M216.5 745.31C120.067 761.47 57.3695 751.802 14.5 735.644M8 733.085C5.60176 732.1 3.26936 731.096 1 730.077" stroke="#1CB0A8" stroke-width="1.5" stroke-linecap="round"/>
<path d="M291.358 584.387C294.083 584.387 296.292 582.178 296.292 579.452C296.292 576.727 294.083 574.518 291.358 574.518C288.633 574.518 286.424 576.727 286.424 579.452C286.424 582.178 288.633 584.387 291.358 584.387Z" fill="#1CB0A8"/>
<path d="M921.934 568.868C924.659 568.868 926.868 566.659 926.868 563.934C926.868 561.209 924.659 559 921.934 559C919.209 559 917 561.209 917 563.934C917 566.659 919.209 568.868 921.934 568.868Z" fill="#1CB0A8"/>
<path d="M696 253C702.075 253 707 248.075 707 242C707 235.925 702.075 231 696 231C689.925 231 685 235.925 685 242C685 248.075 689.925 253 696 253Z" fill="#1CB0A8"/>
<path d="M735.026 532.187C736.093 534.956 739.203 536.334 741.972 535.267C744.741 534.199 746.12 531.089 745.052 528.32C743.984 525.551 740.874 524.172 738.105 525.24C735.337 526.308 733.958 529.418 735.026 532.187Z" stroke="#1CB0A8" stroke-width="1.73817" stroke-miterlimit="10" stroke-linecap="round" stroke-linejoin="round"/>
<path d="M654.93 505.533C660.689 507.682 667.099 504.756 669.248 498.998C671.397 493.239 668.471 486.829 662.713 484.68C656.954 482.531 650.544 485.457 648.395 491.215C646.246 496.974 649.172 503.384 654.93 505.533Z" stroke="#1CB0A8" stroke-width="1.5" stroke-miterlimit="10" stroke-linecap="round" stroke-linejoin="round"/>
<path d="M383.791 706.519C384.858 709.287 387.969 710.666 390.737 709.599C393.506 708.531 394.885 705.421 393.817 702.652C392.749 699.883 389.639 698.504 386.871 699.572C384.102 700.64 382.723 703.75 383.791 706.519Z" stroke="#1CB0A8" stroke-width="1.73817" stroke-miterlimit="10" stroke-linecap="round" stroke-linejoin="round"/>
<path d="M538.887 542.643C539.744 544.865 542.24 545.972 544.462 545.115C546.684 544.258 547.79 541.762 546.933 539.541C546.076 537.319 543.581 536.212 541.359 537.069C539.137 537.926 538.031 540.422 538.887 542.643Z" stroke="#1CB0A8" stroke-width="1.73817" stroke-miterlimit="10" stroke-linecap="round" stroke-linejoin="round"/>
<path d="M914.248 539.348C914.248 539.348 815.775 533.998 756 546.917M746 549.359C747.785 548.866 749.62 548.394 751.5 547.943" stroke="#1CB0A8" stroke-width="1.5" stroke-miterlimit="10" stroke-linecap="round" stroke-linejoin="round"/>
<path d="M933.657 499.702C933.657 499.702 942.357 497.762 942.185 499.427C941.583 505.256 935.067 514.019 933.131 520.152C929.349 532.132 922.3 546.375 919.276 550.503C916.249 554.629 909.449 556.102 906.422 555.826C904.556 555.656 900.947 554.516 900.239 552.423C899.658 550.711 900.206 547.124 901.023 546.103C906.39 539.4 924.036 518.792 927.33 512.908C931.182 506.032 933.657 499.702 933.657 499.702Z" fill="#FFB211"/>
<path d="M854.899 505.801C854.899 505.801 841.615 465.947 837.96 455.653C834.308 445.356 835.968 444.693 840.448 433.71C844.928 422.727 848.919 413.141 848.919 413.141L877.482 407.494L862.117 441.723C869.667 450.379 872.991 494.34 875.7 505.847C878.41 517.353 881.095 520.195 883.913 527.444C886.731 534.692 884.022 538.866 881.741 539.939C879.459 541.012 833.956 542.49 827.514 541.549C821.072 540.61 822.01 534.435 826.977 534.301C831.944 534.166 848.935 528.102 851.716 525.24C857.452 519.339 856.913 514.212 854.899 505.801Z" fill="#FF7466"/>
<path d="M850.625 493.015C846.408 480.419 840.265 462.149 837.96 455.653C834.308 445.356 835.968 444.693 840.448 433.71C844.928 422.727 848.919 413.141 848.919 413.141L877.482 407.494L862.116 441.723C868.005 448.474 871.324 476.704 873.784 494.26C874.479 499.213 853.091 500.378 850.625 493.015Z" fill="#FFB29A"/>
<path d="M893.877 498.119C893.877 498.119 856.674 470.579 847.277 460.126C837.882 449.673 840.902 445.608 843.794 437.724C846.686 429.839 858.777 413.278 858.777 413.278C858.777 413.278 901.358 420.637 895.839 429.839C890.318 439.038 875.179 445.88 875.179 445.88C877.551 448.568 881.295 448.468 887.294 453.743C898.196 463.329 910.944 485.849 910.944 485.849C911.767 486.384 915.546 493.182 920.645 497.336C923.337 499.529 930.707 496.213 933.053 500.691C935.398 505.169 930.844 510.366 924.988 522.075C919.133 533.784 908.369 550.214 908.369 550.214C908.369 550.214 907.085 554.101 903.687 551.646C900.287 549.19 901.855 547.281 903.272 542.848C905.277 536.569 906.105 524.719 905.16 517.729C904.211 510.746 899.783 503.057 893.877 498.119Z" fill="#FF7466"/>
<path d="M893.877 498.119C906.197 494.866 907.941 480.669 907.941 480.669" stroke="#FFD041" stroke-width="1.73817" stroke-miterlimit="10" stroke-linecap="round"/>
<path d="M910.942 485.849C910.942 485.849 909.158 491.631 906.316 494.47C903.474 497.31 897.793 500.965 897.793 500.965" stroke="#FFD041" stroke-width="1.73817" stroke-miterlimit="10" stroke-linecap="round"/>
<path d="M875.064 501.371C875.064 501.371 868.018 509.419 854.899 505.801" stroke="#FFD041" stroke-width="1.73817" stroke-miterlimit="10" stroke-linecap="round"/>
<path d="M875.702 505.847C875.702 505.847 871.005 512.33 856.797 510.301" stroke="#FFD041" stroke-width="1.73817" stroke-miterlimit="10" stroke-linecap="round"/>
<path d="M880.962 491.12C869.182 482.24 852.828 467.577 847.277 460.126C838.879 448.857 840.902 445.608 843.794 437.724C846.686 429.839 858.777 413.278 858.777 413.278C858.777 413.278 901.358 420.637 895.839 429.839C890.318 439.038 875.179 445.88 875.179 445.88C877.551 448.568 881.295 448.468 887.294 453.743C892.113 457.98 897.29 464.743 901.571 470.973C906.972 478.836 887.917 496.363 880.962 491.12Z" fill="#FFB29A"/>
<path d="M897.981 468.007C897.981 468.007 895.118 474.14 890.62 477.821" stroke="#1A1A1A" stroke-width="1.5" stroke-miterlimit="10" stroke-linecap="round"/>
<path d="M872.626 487.637C872.626 487.637 868.128 490.09 863.22 489.682" stroke="#1A1A1A" stroke-width="1.5" stroke-miterlimit="10" stroke-linecap="round"/>
<path d="M880.962 491.12C869.182 482.24 852.828 467.577 847.277 460.126C838.879 448.857 840.902 445.608 843.794 437.724C846.686 429.839 858.777 413.278 858.777 413.278" stroke="#1A1A1A" stroke-width="1.5" stroke-miterlimit="10" stroke-linecap="round"/>
<path d="M873.569 446.037C876.081 445.067 879.492 443.575 883.003 441.511" stroke="#1A1A1A" stroke-width="1.5" stroke-miterlimit="10" stroke-linecap="round"/>
<path d="M832.733 359.997L830.286 349.138L844.967 348.219L848.179 362.902" stroke="#004AB2" stroke-width="0.217272" stroke-miterlimit="10"/>
<path d="M849.352 297.281C849.352 297.281 847.388 287.178 857.771 286.055C868.155 284.932 868.717 289.423 875.172 288.019C881.628 286.615 891.45 284.091 893.695 288.862C895.939 293.633 887.8 290.826 884.995 292.23C882.188 293.633 886.959 299.245 892.574 298.965C898.186 298.685 908.572 298.685 907.448 302.613C906.325 306.541 900.993 303.174 896.222 302.893C891.45 302.613 894.777 305.907 899.179 306.394C911.961 307.812 912.33 320.093 903.911 317.566C895.492 315.039 890.89 308.506 887.522 311.313C884.154 314.12 880.506 315.804 874.332 316.084C868.157 316.364 864.228 305.418 864.228 305.418L849.352 297.281Z" fill="black"/>
<path d="M860.884 313.855C853.932 313.855 848.296 308.746 848.296 302.444C848.296 296.141 853.932 291.032 860.884 291.032C867.837 291.032 873.473 296.141 873.473 302.444C873.473 308.746 867.837 313.855 860.884 313.855Z" fill="#FFD041"/>
<path d="M872.543 300.356C872.543 300.356 863.537 309.725 868.563 312.727C879.607 319.326 883.44 305.67 883.972 304.608C884.504 303.545 876.795 299.558 872.543 300.356Z" fill="black"/>
<path d="M872.828 302.257C870.77 302.257 869.102 300.686 869.102 298.748C869.102 296.81 870.77 295.239 872.828 295.239C874.886 295.239 876.554 296.81 876.554 298.748C876.554 300.686 874.886 302.257 872.828 302.257Z" fill="#FFD041"/>
<path d="M918.358 347.538C920.044 323.093 898.84 317.703 882.099 317.798C864.578 317.9 826.439 330.765 826.439 330.765C826.439 330.765 815.414 314.798 812.753 312.136C812.753 312.136 797.357 323.732 795.075 327.343C795.075 327.343 798.687 354.146 811.612 356.047C824.538 357.948 851.34 354.906 851.34 354.906C851.34 354.906 859.323 372.964 858.753 383.23C858.184 393.494 856.472 400.718 856.283 400.146C856.092 399.577 887.077 396.916 897.152 401.287C907.227 405.659 914.449 412.883 915.02 413.643C915.59 414.404 918.442 413.454 918.251 408.7C918.062 403.949 917.682 389.691 910.269 380.377C910.264 380.377 917.104 365.722 918.358 347.538Z" fill="#FF7466"/>
<path d="M853.225 376.666C853.225 376.666 848.485 382.936 844.202 383.701C839.92 384.466 831.661 382.784 831.968 374.83C831.968 374.83 828.298 374.982 827.072 372.077C825.847 369.172 827.225 366.113 827.225 366.113C827.225 366.113 824.778 362.747 825.695 359.69C826.612 356.631 831.507 355.102 831.507 355.102C831.507 355.102 832.73 360.455 832.73 359.997C832.73 359.538 843.283 358.161 847.259 362.443L846.646 354.795C846.646 354.795 855.67 354.643 856.893 360.607C858.116 366.571 853.225 376.666 853.225 376.666Z" fill="#FFD041"/>
<path d="M912.693 384.97C912.693 384.97 940.521 427.976 929.136 441.888C917.751 455.8 833.004 412.163 811.503 424.813C790 437.463 845.917 383.386 858.751 383.229C871.585 383.071 912.693 384.97 912.693 384.97Z" fill="#246BFF"/>
<path d="M912.693 384.97C912.693 384.97 940.521 427.977 929.136 441.889C917.751 455.801 833.004 412.164 811.503 424.813C790 437.463 845.917 383.386 858.751 383.23" fill="#FF2350"/>
<path d="M934.844 420.548C935.028 423.746 934.255 426.525 932.067 428.52C920.4 439.166 833.543 405.776 811.503 415.455" stroke="#1A1A1A" stroke-width="1.5" stroke-miterlimit="10" stroke-linecap="round"/>
<path d="M825.697 359.69C826.614 356.631 831.509 355.102 831.509 355.102C831.509 355.102 832.732 360.455 832.732 359.997C832.732 359.538 843.285 358.161 847.261 362.443L847.118 360.388L846.651 354.795C846.651 354.795 850.866 354.739 852.089 360.705C853.312 366.669 824.778 362.75 825.697 359.69Z" fill="#FFD041"/>
<path d="M840.685 374.832C840.685 374.832 834.262 377.127 829.215 374.067" stroke="#1A1A1A" stroke-width="1.5" stroke-miterlimit="10" stroke-linecap="round"/>
<path d="M882.512 367.642C882.512 367.642 863.416 359.823 856.382 358.493C856.382 358.493 851.526 362.891 850.768 370.113C850.008 377.335 852.478 380.568 852.478 380.568C852.478 380.568 881.751 387.79 890.874 389.122C899.998 390.452 906.461 390.263 910.264 380.379" fill="#FF7466"/>
<path d="M882.512 367.642C882.512 367.642 863.416 359.823 856.382 358.493C856.382 358.493 851.526 362.891 850.768 370.113C850.008 377.335 852.478 380.568 852.478 380.568C852.478 380.568 881.751 387.79 890.874 389.122C899.998 390.452 906.461 390.263 910.264 380.379" stroke="#1A1A1A" stroke-width="1.5" stroke-miterlimit="10" stroke-linecap="round"/>
<path d="M886.327 333.209C886.327 333.02 877.38 358.517 885.934 371.634" stroke="#1A1A1A" stroke-width="1.5" stroke-miterlimit="10" stroke-linecap="round"/>
<path d="M860.541 300.156C860.659 301.34 860.713 304.462 858.636 305.279C857.324 305.794 855.983 305.331 856.42 301.662" stroke="black" stroke-width="1.5" stroke-miterlimit="10" stroke-linecap="round"/>
<path d="M852.452 301.433C852.452 301.433 853.274 304.467 851.862 304.981C849.406 305.877 848.813 301.479 849.552 300.295" stroke="black" stroke-width="1.5" stroke-miterlimit="10" stroke-linecap="round"/>
<path d="M872.239 293.596C872.239 293.596 872.124 300.004 861.821 296.662C850.879 293.114 849.352 297.281 849.352 297.281C849.352 297.281 850.501 287.535 853.904 288.569C857.304 289.603 872.239 293.596 872.239 293.596Z" fill="black"/>
<path d="M859.331 309.197C859.331 309.197 857.645 313.409 853.434 311.723" stroke="#1A1A1A" stroke-width="1.5" stroke-miterlimit="10" stroke-linecap="round"/>
<path d="M795.262 326.348C795.262 326.348 785.015 323.289 782.262 315.643C782.262 315.643 776.144 315.949 775.379 310.444C774.615 304.938 775.531 302.796 779.662 301.266C779.662 301.266 781.039 292.549 788.074 295.76C788.074 295.76 788.074 289.796 795.416 292.549C795.416 292.549 793.428 282.148 795.875 277.866C798.321 273.584 802.758 275.878 806.275 292.549C806.275 292.549 817.745 295.302 817.745 305.09C817.745 314.878 809.639 320.232 806.427 322.372C803.214 324.514 795.262 326.348 795.262 326.348Z" fill="#FFD041"/>
<path d="M807.497 306.007C807.497 306.007 795.72 306.466 797.096 313.807C798.473 321.149 814.073 318.548 817.285 309.066" stroke="#1A1A1A" stroke-width="1.5" stroke-miterlimit="10" stroke-linecap="round"/>
<path d="M807.955 301.879C807.955 301.42 805.661 286.892 802.908 280.315" stroke="#1A1A1A" stroke-width="1.5" stroke-miterlimit="10" stroke-linecap="round"/>
<path d="M799.238 302.183C799.238 302.183 798.321 307.689 794.191 307.843C790.061 307.995 786.391 301.421 787.921 294.689" stroke="#1A1A1A" stroke-width="1.5" stroke-miterlimit="10" stroke-linecap="round"/>
<path d="M790.979 308.76C790.979 308.76 788.075 315.03 782.263 309.525C776.451 304.019 780.427 298.359 781.65 296.525" stroke="#1A1A1A" stroke-width="1.5" stroke-miterlimit="10" stroke-linecap="round"/>
<path d="M786.084 313.042C786.084 313.042 784.861 316.253 780.579 315.337C776.296 314.42 774.767 312.89 774.919 306.465" stroke="#1A1A1A" stroke-width="1.5" stroke-miterlimit="10" stroke-linecap="round"/>
<path d="M850.71 339.765C850.71 339.765 843.162 350.667 848.194 353.183C853.226 355.699 858.677 352.345 858.677 350.667" stroke="#1A1A1A" stroke-width="1.5" stroke-miterlimit="10" stroke-linecap="round"/>
<path d="M847.527 360.559L848.524 345.579L829.521 342.965L832.181 359.864C832.181 359.864 841.413 366.124 844.7 365.655C847.987 365.185 847.527 360.559 847.527 360.559Z" fill="#FFFBE0" stroke="#1A1A1A" stroke-width="1.5" stroke-miterlimit="10"/>
<path d="M827.227 366.113C827.227 366.113 824.781 362.747 825.697 359.69C826.614 356.631 831.51 355.102 831.51 355.102C831.51 355.102 832.733 360.455 832.733 359.997C832.733 359.567 842.008 358.33 846.445 361.704C846.74 361.93 847.118 360.388 847.118 360.388L847.879 354.889C847.879 354.889 853.369 354.402 852.285 360.212C851.777 362.936 850.358 365.528 844.8 366.317C838.151 367.262 827.227 366.113 827.227 366.113Z" fill="#FFD041"/>
<path d="M829.595 343.445L832.546 361.622" stroke="#1A1A1A" stroke-width="1.5" stroke-miterlimit="10" stroke-linecap="round"/>
<path d="M837.474 368.101C837.474 368.101 830.59 371.925 827.227 366.113" stroke="#1A1A1A" stroke-width="1.5" stroke-miterlimit="10" stroke-linecap="round"/>
<path d="M847.296 361.887L848.524 345.579" stroke="#1A1A1A" stroke-width="1.5" stroke-miterlimit="10" stroke-linecap="round"/>
<path d="M867.483 344.377C867.483 344.377 865.386 356.538 871.257 354.441C877.127 352.345 878.385 346.474 878.385 346.474" stroke="#1A1A1A" stroke-width="1.5" stroke-miterlimit="10" stroke-linecap="round"/>
<path d="M828.997 336.71C828.884 336.149 826.42 329.987 821.714 323.823" stroke="#1A1A1A" stroke-width="1.5" stroke-miterlimit="10" stroke-linecap="round"/>
<path d="M838.898 356.77C837.257 356.77 835.926 355.538 835.926 354.017C835.926 352.497 837.257 351.264 838.898 351.264C840.54 351.264 841.871 352.497 841.871 354.017C841.871 355.538 840.54 356.77 838.898 356.77Z" fill="#FFB29A"/>
<path d="M922.453 497.152C921.69 496.904 920.893 497.417 920.777 498.21C920.558 499.742 920.267 501.98 920.121 504.009C919.869 507.524 918.363 509.786 915.852 510.288C913.34 510.79 910.496 511.075 908.317 510.288C904.947 509.073 900.851 506.512 903.07 514.875C904.245 519.305 905.373 528.458 904.462 535.896C903.765 541.59 899.535 546.8 900.163 549.453C900.73 551.841 902.72 554.768 907.522 552.526C924.949 544.387 924.082 522.351 933.299 510.012C938.596 502.918 937.757 499.009 937.757 499.009C937.757 499.009 923.493 497.491 922.453 497.152Z" fill="#00B3A9"/>
<path d="M911.396 521.732C911.396 521.732 904.632 521.732 903.665 523.181" stroke="#1A1A1A" stroke-width="1.5" stroke-miterlimit="10" stroke-linecap="round"/>
<path d="M910.687 527.492C910.687 527.492 906.339 526.525 904.647 528.217" stroke="#1A1A1A" stroke-width="1.5" stroke-miterlimit="10" stroke-linecap="round"/>
<path d="M825.934 543.248C831.009 545.106 844.626 545.97 850.444 545.97C856.263 545.97 861.834 544.856 864.928 545.351C868.022 545.847 870.622 547.209 876.563 547.085C882.503 546.961 890.307 545.514 891.546 544.4C892.423 543.609 889.336 540.506 888.254 537.432C887.809 536.171 887.533 535.161 887.209 534.333C886.094 531.487 855.148 536.191 848.587 536.563C842.025 536.934 824.324 535.943 823.705 535.943C823.086 535.943 822.466 535.324 821.723 536.191C820.982 537.06 820.858 541.393 825.934 543.248Z" fill="#FFB211"/>
<path d="M881.206 519.828C881.043 519.348 880.389 519.281 880.134 519.72C879.033 521.619 876.502 525.123 872.506 525.788C866.97 526.709 856.941 527.622 856.332 518.909C855.724 510.197 854.07 521.478 848.584 525.467C841.775 530.418 838.681 531.781 831.874 532.769C825.073 533.758 818.527 535.833 822.466 539.166C824.076 540.528 826.529 542.618 840.167 541.764C853.805 540.912 868.232 540.597 876.773 539.92C884.528 539.302 888.271 537.577 888.239 537.44C887.826 535.698 887.719 534.964 886.574 532.674C885.773 531.072 885.053 529.519 884.417 528.067C882.833 524.456 881.757 521.46 881.206 519.828Z" fill="#00B3A9"/>
<path d="M848.586 525.464C848.586 525.464 851.133 527.902 851.133 530.033" stroke="#1A1A1A" stroke-width="1.5" stroke-miterlimit="10" stroke-linecap="round"/>
<path d="M842.847 528.852C842.847 528.852 845.215 530.273 846.399 533.115" stroke="#1A1A1A" stroke-width="1.5" stroke-miterlimit="10" stroke-linecap="round"/>
<path d="M925.645 506.175C925.645 506.175 928.13 514.699 923.869 514.699" stroke="#FFD041" stroke-width="1.73817" stroke-miterlimit="10" stroke-linecap="round"/>
<path d="M878.763 527.129C878.763 527.129 873.792 534.942 869.883 533.521" stroke="#FFD041" stroke-width="1.73817" stroke-miterlimit="10" stroke-linecap="round"/>
<path d="M850.39 240.155L856.204 237.118L866.339 236.938L872.169 240.067L877.718 246.898L861.796 271.646L845.007 247.016L850.39 240.155Z" fill="#FFFBE3"/>
<path d="M877.68 246.853C876.889 247.372 869.723 252.404 869.723 252.404L852.225 252.415L844.969 246.966" stroke="#1CB0A8" stroke-width="1.5" stroke-miterlimit="10"/>
<path d="M866.103 244.683L869.723 252.404L861.758 271.599L852.225 252.417L855.799 244.862L866.103 244.683Z" stroke="#1CB0A8" stroke-width="1.5" stroke-miterlimit="10"/>
<path d="M872.13 240.02L866.103 244.683L855.799 244.863L850.351 240.108" stroke="#1CB0A8" stroke-width="1.5" stroke-miterlimit="10"/>
<path d="M1092.6 361.655C1081.59 212.386 914.568 131.498 819.556 131.498C758.022 128.854 614.378 163.789 659.735 335.077C695.892 471.627 840.772 379.942 729.365 351.833C614.284 322.797 571.801 478.165 657.862 559.319" stroke="black" stroke-width="2" stroke-miterlimit="10" stroke-linecap="round" stroke-linejoin="round"/>
<path d="M623.997 564.231C628.097 565.761 632.662 563.678 634.192 559.577C635.723 555.477 633.639 550.912 629.539 549.382C625.438 547.851 620.873 549.935 619.343 554.035C617.813 558.136 619.896 562.701 623.997 564.231Z" stroke="#1A1A1A" stroke-width="1.5" stroke-miterlimit="10" stroke-linecap="round" stroke-linejoin="round"/>
<path d="M591.901 431.694C594.089 432.511 596.526 431.399 597.343 429.21C598.159 427.021 597.047 424.585 594.859 423.768C592.67 422.951 590.233 424.063 589.417 426.252C588.6 428.441 589.712 430.877 591.901 431.694Z" stroke="#1A1A1A" stroke-width="1.5" stroke-miterlimit="10" stroke-linecap="round" stroke-linejoin="round"/>
<path d="M684.921 390.312C687.881 391.417 691.177 389.913 692.282 386.952C693.387 383.991 691.882 380.696 688.922 379.591C685.961 378.486 682.665 379.99 681.56 382.951C680.456 385.911 681.96 389.207 684.921 390.312Z" fill="#1A1A1A"/>
<path d="M624.502 391.96C632.711 395.023 641.849 390.852 644.913 382.643C647.977 374.433 643.805 365.295 635.596 362.231C627.387 359.168 618.248 363.339 615.185 371.548C612.121 379.758 616.292 388.896 624.502 391.96Z" fill="#FF2350"/>
<path d="M771.001 159.698C772.069 162.467 775.179 163.846 777.948 162.778C780.716 161.71 782.095 158.6 781.028 155.832C779.96 153.063 776.85 151.684 774.081 152.752C771.312 153.819 769.933 156.93 771.001 159.698Z" stroke="#1A1A1A" stroke-width="1.73817" stroke-miterlimit="10" stroke-linecap="round" stroke-linejoin="round"/>
<path d="M621.899 478.519C623.907 483.726 629.756 486.319 634.963 484.311C640.171 482.303 642.764 476.454 640.756 471.247C638.748 466.04 632.898 463.446 627.691 465.454C622.484 467.463 619.891 473.312 621.899 478.519Z" fill="#1A1A1A" stroke="#1A1A1A" stroke-width="1.73817" stroke-miterlimit="10" stroke-linecap="round" stroke-linejoin="round"/>
<path d="M961.411 176.505C969.885 176.505 976.754 169.635 976.754 161.162C976.754 152.688 969.885 145.818 961.411 145.818C952.937 145.818 946.068 152.688 946.068 161.162C946.068 169.635 952.937 176.505 961.411 176.505Z" fill="#FF2350"/>
<path d="M925.043 146.251C930.343 146.251 934.64 141.954 934.64 136.654C934.64 131.354 930.343 127.057 925.043 127.057C919.743 127.057 915.446 131.354 915.446 136.654C915.446 141.954 919.743 146.251 925.043 146.251Z" fill="#95D5D2" stroke="#1A1A1A" stroke-width="1.5" stroke-miterlimit="10" stroke-linecap="round" stroke-linejoin="round"/>
<path d="M643.002 296.112C645.727 296.112 647.936 293.903 647.936 291.178C647.936 288.453 645.727 286.244 643.002 286.244C640.277 286.244 638.068 288.453 638.068 291.178C638.068 293.903 640.277 296.112 643.002 296.112Z" fill="#EF4056"/>
<path d="M687.828 156.753C687.828 159.418 685.667 161.578 683.002 161.578C680.337 161.578 678.177 159.418 678.177 156.753C678.177 154.088 680.337 151.927 683.002 151.927C685.667 151.927 687.828 154.088 687.828 156.753Z" fill="#1A1A1A" stroke="#1A1A1A" stroke-width="0.217272"/>
<path d="M966.002 226.687C968.727 226.687 970.936 224.478 970.936 221.753C970.936 219.027 968.727 216.818 966.002 216.818C963.277 216.818 961.068 219.027 961.068 221.753C961.068 224.478 963.277 226.687 966.002 226.687Z" fill="#1A1A1A"/>
<defs>
<clipPath id="clip0">
<rect width="191.874" height="187" fill="white" transform="translate(282 385)"/>
</clipPath>
</defs>
</svg>
