<svg height="24" width="24" xmlns="http://www.w3.org/2000/svg"><path d="M4 3c-1.105 0-2 .9-2 2v16c0 1.1.895 2 2 2h16c1.105 0 2-.9 2-2V5c0-1.1-.895-2-2-2H4z" fill="#d35400"/><path d="M4 2a2 2 0 0 0-2 2v16a2 2 0 0 0 2 2h16a2 2 0 0 0 2-2V4a2 2 0 0 0-2-2H4z" fill="#e67e22"/><path d="M5 6v2.3c6.443 0 11.667 5.2 11.667 11.7H19c0-7.8-6.268-14-14-14zm0 4.6V13c3.866 0 7 3.1 7 7h2.333c0-5.2-4.178-9.4-9.333-9.4zm2.042 5.3c-1.128 0-2.042.9-2.042 2S5.914 20 7.042 20c1.127 0 2.041-1 2.041-2.1s-.914-2-2.041-2z" fill="#d35400"/><path d="M5 5v2.3c6.443 0 11.667 5.2 11.667 11.7H19c0-7.8-6.268-14-14-14zm0 4.6V12c3.866 0 7 3.1 7 7h2.333c0-5.2-4.178-9.4-9.333-9.4zm2.042 5.3c-1.128 0-2.042.9-2.042 2S5.914 19 7.042 19c1.127 0 2.041-1 2.041-2.1s-.914-2-2.041-2z" fill="#ecf0f1"/></svg>