<svg width="983" height="957" fill="none" xmlns="http://www.w3.org/2000/svg"><g clip-path="url(#clip0)"><path d="M934 916c6.075 0 11-4.925 11-11s-4.925-11-11-11-11 4.925-11 11 4.925 11 11 11z" fill="#fff"/><path d="M850 757.5c17.397 0 31.5-14.103 31.5-31.5s-14.103-31.5-31.5-31.5-31.5 14.103-31.5 31.5 14.103 31.5 31.5 31.5zm-111.5 198c9.941 0 18-8.059 18-18s-8.059-18-18-18-18 8.059-18 18 8.059 18 18 18z" stroke="#fff" stroke-width="3"/><path d="M675.5 818a7.5 7.5 0 1 0 0-15 7.5 7.5 0 0 0 0 15z" fill="#EF4056"/><path d="M-206 465.5c66.8 62 298.5 238.5 406 319 364.5 241 504-23.5 702 0 121.3 14.396 120 165.5-122.5 125-123.793-20.675-241-217-520.5-217-89.283 0-265.526 41.174-465 96.369" stroke="#fff" stroke-width="3"/><path d="M356.5 884c16.845 0 30.5-13.655 30.5-30.5S373.345 823 356.5 823 326 836.655 326 853.5s13.655 30.5 30.5 30.5z" fill="#EF4056"/><path d="M641.525 702.919l-1.875-1.333-4.075-2.959-4.238-3.105-4.264-3.011-65.141-46.815-.016-.31.049-2.025-.095-.026.095.026.118-1.903.31-5.927.981-7.984 2.019-15.442.503-4.039.317-2.256 5.881-4.695 19.682-15.562 9.966-2.141 9.535-2.056 27.971 4.253 8.405 1.301 2.635.421 3.808 3.191 3.48 2.896 1.59 1.254 1.401 1.202.258.173 6.635 5.5 1.495 1.228-1.097 3.977-23.929 87.455-2.404 8.712z" fill="#95D2FF"/><path d="M635.482 698.601l-4.238-3.106-4.265-3.011-23.315-37.005-.437-.63c-.164-.147-.206-.363-.249-.578l-.757-3.164-6.052-24.599-.264-.888c-.213-1.078.385-2.136 1.463-2.348 1.077-.212 2.135.386 2.347 1.463l.35 1.319 6.146 24.625.562 2.397.849 1.355 27.86 44.17zm6.043 4.317l-1.874-1.332 3.399-70.294.163-2.808-1.453-1.012-21.296-15.15-1.1-.813c-.842-.641-1.123-1.839-.457-2.776.64-.842 1.839-1.123 2.776-.457l1.263.96 22.07 15.669 1.358.986c.516.347.833 1.045.865 1.666l.007.715-3.17 65.771-2.551 8.875z" fill="#000"/><path d="M597.253 627.011l-.284-.078-31.807-15.095c-.989-.477-1.391-1.607-.914-2.596.477-.99 1.607-1.391 2.596-.914l30.818 14.618 21.246-14.213 7.554-16.666c.477-.989 1.606-1.39 2.622-1.008.989.477 1.391 1.606 1.009 2.622l-7.806 17.208c-.199.353-.372.61-.735.816l-22.627 15.156c-.578.248-1.103.307-1.672.15zm70.605-20.259l-20.76 21.684-.467.584c-.121.069-.268.232-.388.3l-3.22 2.067-35.402 23.044-1.623 1.081c-.484.274-1.035.428-1.509.297l-.757-.209-41.748-10.093.05-2.025-.095-.026.095.026.117-1.904.284.079 39.828 9.665 2.298.533 1.623-1.081 35.523-23.113 2.227-1.423 1.003-1.048 22.497-23.549 1.495 1.228-1.071 3.883z" fill="#000"/><path d="M476.062 314.769s6.726-18.946-15.675-46.084c-22.401-27.139-70.567-64.414-125.554-72.242-54.987-7.827-101.834-5.943-101.834-5.943V160s66.771-3.287 127.502 8.702c60.731 11.989 127.336 45.335 139.804 61.426 12.469 16.092 31.224 59.165 34.643 67.412 3.419 8.248-14.374 39.563-14.374 39.563l-44.512-22.334z" fill="#00CB77"/><path d="M233 172.5s130.958-37.203 232.043 54.705c30.493 27.721 49.216 70.292 55.87 90.281 6.654 19.989 43.014 35.246 43.014 35.246s34.471-41.652 13.696-79.574-79.714-110.135-128.219-127.788C400.899 127.718 251.443 132.07 233 136v36.5z" fill="#1CB0A8"/><path d="M567.964 296.485l18.639 41.799 3.767-14.661s41.173-42.347 6.563-97.134C562.317 171.701 534.7 117.29 457.851 105.14c-76.85-12.15-216.955-7.984-225.095 0-3.256 14.36 0 49.824 0 49.824s109.508-27.831 185.979 0c130.097 47.344 149.229 141.521 149.229 141.521z" fill="#FCB643"/><path d="M230.997 86.5S353.065 19.665 466 57.5c90.351 30.27 164.58 149.388 155.698 250.608l-28.054 6.574s13.916-63.176-37.97-117.032C411.498 47.972 230.996 124 230.996 124l.001-37.5z" fill="#EF4056"/><path d="M478.884 327.262s-21.297 84.873-38.531 116.192c-17.235 31.313-49.316 103.559-22.379 150.452 26.937 46.894 125.968 75.9 150.786 36.073 24.818-39.827 7.156-36.978-18.756-53-25.912-16.021-42.957-86.796 13.639-101.345 56.596-14.549 91.449 37.525 83.72 61.89-7.734 24.366-47.171 48.435 2.534 59.577 49.704 11.142 71.409-35.06 71.409-35.06s87.223 51.327 78.824-83.326c0 0 66.75 16.097 65.631-29.545-1.118-45.642-46.459-76.233-137.091-102.226-90.631-25.994-104.664-39.349-104.664-39.349s34.356-58.166-56.587-29.237c-11.706 3.721 3.833 50.071.431 51.035-4.992 1.414-9.865-46.838-26.153-43.559-22.825 4.59-56.661 4.473-69.054 14.176-12.387 9.707 6.241 27.252 6.241 27.252z" fill="#FCB643" stroke="#FEB69F" stroke-width=".548" stroke-miterlimit="10"/><path d="M541.701 285.833c-22.825 4.59-56.66 4.473-69.053 14.176-12.387 9.708 6.235 27.248 6.235 27.248" stroke="#000" stroke-width="3" stroke-miterlimit="10" stroke-linecap="round" stroke-linejoin="round"/><path d="M567.855 329.392c-4.992 1.414-9.865-46.837-26.153-43.559-22.825 4.59-56.661 4.473-69.054 14.176" stroke="#000" stroke-width="3" stroke-miterlimit="10" stroke-linecap="round" stroke-linejoin="round"/><path d="M567.849 329.393c3.402-.964-12.137-47.314-.431-51.035 90.943-28.929 56.587 29.237 56.587 29.237C635.499 317 650.999 325 678.499 331" stroke="#000" stroke-width="3" stroke-miterlimit="10" stroke-linecap="round" stroke-linejoin="round"/><path d="M628.029 406.087S758.491 495 724.584 560.763m-99.479-197.32s184.996 47.263 177.587 135.226" stroke="#000" stroke-width="4" stroke-miterlimit="10" stroke-linecap="round" stroke-linejoin="round"/><path d="M537.92 302.805a4.5 4.5 0 1 0-1.037-8.94 4.5 4.5 0 0 0 1.037 8.94zm38-10a4.5 4.5 0 1 0-1.037-8.94 4.5 4.5 0 0 0 1.037 8.94z" stroke="#1A1A1A" stroke-width="3"/></g><defs><clipPath id="clip0"><path fill="#fff" d="M0 0H983V957H0z"/></clipPath></defs></svg>