<svg width="983" height="957" fill="none" xmlns="http://www.w3.org/2000/svg"><path d="M640.526 702.919l-1.874-1.333-4.075-2.959-4.238-3.105-4.264-3.011-65.141-46.815-.016-.31.049-2.025-.095-.026.095.026.117-1.903.311-5.927.98-7.984 2.02-15.442.503-4.039.317-2.256 5.881-4.695 19.682-15.562 9.966-2.141 9.535-2.056 27.971 4.253 8.405 1.301 2.635.421 3.807 3.191 3.481 2.896 1.59 1.254 1.401 1.202.258.173 6.635 5.5 1.495 1.228-1.097 3.977-23.93 87.455-2.404 8.712z" fill="#95D2FF"/><path d="M634.482 698.601l-4.238-3.106-4.264-3.011-23.316-37.005-.437-.63c-.163-.147-.206-.363-.248-.578l-.757-3.164-6.053-24.599-.264-.888c-.212-1.078.386-2.136 1.463-2.348 1.078-.212 2.136.386 2.348 1.463l.349 1.319 6.147 24.625.561 2.397.849 1.355 27.86 44.17zm6.044 4.317l-1.874-1.332 3.398-70.294.164-2.808-1.453-1.012-21.296-15.15-1.1-.813c-.843-.641-1.123-1.839-.457-2.776.64-.843 1.838-1.123 2.775-.457l1.264.96 22.07 15.669 1.358.986c.516.347.832 1.045.865 1.666l.007.715-3.17 65.771-2.551 8.875z" fill="#000"/><path d="M596.254 627.011l-.284-.078-31.807-15.095c-.99-.477-1.391-1.607-.914-2.596.476-.99 1.606-1.391 2.596-.914l30.817 14.618 21.246-14.213 7.554-16.666c.477-.989 1.607-1.39 2.622-1.008.99.477 1.391 1.606 1.009 2.622l-7.806 17.208c-.199.353-.372.61-.734.816l-22.627 15.156c-.578.248-1.104.307-1.672.15zm70.605-20.259L646.1 628.436l-.467.584c-.121.069-.268.232-.389.3l-3.22 2.067-35.402 23.044-1.623 1.081c-.483.274-1.035.428-1.508.297l-.758-.209-41.747-10.093.049-2.025-.095-.026.095.026.118-1.904.284.079 39.827 9.665 2.299.533 1.623-1.081 35.523-23.113 2.227-1.423 1.002-1.048 22.497-23.549 1.496 1.228-1.072 3.883z" fill="#000"/><path d="M475.062 314.769s6.726-18.946-15.675-46.084c-22.401-27.139-70.567-64.414-125.554-72.242C278.846 188.616 232 190.5 232 190.5V160s66.771-3.287 127.502 8.702c60.731 11.989 127.335 45.335 139.804 61.426 12.468 16.092 31.224 59.165 34.642 67.412 3.419 8.248-14.373 39.563-14.373 39.563l-44.513-22.334z" fill="#00CB77"/><path d="M232 172.5s130.958-37.203 232.044 54.705c30.492 27.721 49.216 70.292 55.87 90.281 6.653 19.989 43.014 35.246 43.014 35.246s34.47-41.652 13.695-79.574-79.714-110.135-128.219-127.788C399.899 127.718 250.444 132.07 232 136v36.5z" fill="#1CB0A8"/><path d="M566.965 296.485l18.639 41.799 3.767-14.661s41.173-42.347 6.562-97.134c-34.616-54.788-62.232-109.199-139.082-121.349-76.85-12.15-216.955-7.984-225.095 0-3.256 14.36.001 49.824.001 49.824s109.507-27.831 185.978 0c130.098 47.344 149.23 141.521 149.23 141.521z" fill="#FCB643"/><path d="M229.997 86.5S352.065 19.665 465 57.5c90.351 30.27 164.58 149.388 155.698 250.608l-28.054 6.574s13.916-63.176-37.969-117.032C410.498 47.972 229.996 124 229.996 124l.001-37.5z" fill="#EF4056"/><path d="M477.884 327.262s-21.297 84.873-38.532 116.192c-17.234 31.313-49.315 103.558-22.378 150.452 26.937 46.894 125.968 75.9 150.786 36.073 24.818-39.827 7.156-36.978-18.756-53-25.912-16.021-42.957-86.796 13.639-101.345 56.596-14.549 91.449 37.525 83.72 61.89-7.734 24.366-47.171 48.435 2.533 59.577 49.705 11.142 71.41-35.06 71.41-35.06s87.223 51.327 78.824-83.326c0 0 66.75 16.097 65.631-29.545-1.118-45.642-46.459-76.233-137.091-102.226-90.632-25.994-104.664-39.349-104.664-39.349s34.356-58.166-56.587-29.237c-11.706 3.721 3.833 50.071.431 51.035-4.992 1.414-9.865-46.838-26.153-43.559-22.825 4.59-56.661 4.473-69.054 14.176-12.387 9.707 6.241 27.252 6.241 27.252z" fill="#FCB643" stroke="#FEB69F" stroke-width=".548" stroke-miterlimit="10"/><path d="M540.702 285.833c-22.825 4.59-56.661 4.473-69.054 14.176-12.387 9.708 6.235 27.248 6.235 27.248" stroke="#000" stroke-width="3" stroke-miterlimit="10" stroke-linecap="round" stroke-linejoin="round"/><path d="M566.855 329.392c-4.992 1.414-9.865-46.837-26.153-43.559-22.825 4.59-56.661 4.473-69.054 14.176" stroke="#000" stroke-width="3" stroke-miterlimit="10" stroke-linecap="round" stroke-linejoin="round"/><path d="M566.85 329.393c3.402-.964-12.137-47.314-.431-51.035 90.943-28.929 56.587 29.237 56.587 29.237C634.5 317 650 325 677.5 331" stroke="#000" stroke-width="3" stroke-miterlimit="10" stroke-linecap="round" stroke-linejoin="round"/><path d="M627.028 406.087S757.49 495 723.583 560.763m-99.478-197.32S809.1 410.706 801.692 498.668" stroke="#000" stroke-width="4" stroke-miterlimit="10" stroke-linecap="round" stroke-linejoin="round"/><path d="M536.92 302.805a4.501 4.501 0 1 0-1.04-8.942 4.501 4.501 0 0 0 1.04 8.942zm38-10a4.501 4.501 0 1 0-1.04-8.942 4.501 4.501 0 0 0 1.04 8.942z" stroke="#1A1A1A" stroke-width="3"/><circle cx="934" cy="905" r="11" fill="#1A1A1A"/><circle cx="850" cy="726" r="31.5" stroke="#1A1A1A" stroke-width="3"/><circle cx="738.5" cy="937.5" r="18" stroke="#1A1A1A" stroke-width="3"/><circle cx="675.5" cy="810.5" r="7.5" fill="#EF4056"/><path d="M-206 465.5c66.8 62 298.5 238.5 406 319 364.5 241 504-23.5 702 0 121.3 14.396 120 165.5-122.5 125-123.793-20.675-241-217-520.5-217-89.283 0-265.526 41.174-465 96.369" stroke="#000" stroke-width="3"/><circle cx="356.5" cy="853.5" r="30.5" fill="#EF4056"/></svg>