<svg width="435" height="292" fill="none" xmlns="http://www.w3.org/2000/svg"><circle cx="373" cy="62" r="62" fill="#FF6682"/><path fill="#DCEAFF" d="M19 60h60v147H19z"/><path d="M0 63c0 23.748 19.252 43 43 43V20C19.252 20 0 39.252 0 63z" fill="#82ECB7"/><g clip-path="url(#a)" fill="#202020"><path d="m305.393 278.667.521.122c-.009-.069-.148-.122-.521-.122zm46.057 6.363c.044 0 .096 0 .131-.009-.087-.009-.122 0-.131.009zm-24.451-5.989c-.009 0-.018.008-.026.008l-.13.079.156-.087z"/><path d="M298.348 282.834c2.021.477 3.679.677 5.136.781 1.458.096 2.734.13 3.992.078 2.525-.087 5.05-.416 8.789-1.467 1.805-.408 3.619-.92 5.389-1.449 1.77-.538 3.618-1.111 5.319-1.728.737-.512 1.865-.894 3.019-1.319 1.163-.391 2.352-.859 3.211-1.458l.85-.009c.59-.408 1.293-.868 2.013-.998v.104c.868-.633 1.996-1.041 2.412-1.389v.105l1.128-.617-.138.217c.772-.512 1.544-1.067 2.334-1.536.798-.46 1.57-.912 2.308-1.337l-.321-.243c1.64-.772 2.577-1.597 3.488-2.37.46-.373.894-.772 1.379-1.189a16.004 16.004 0 0 1 1.771-1.258l.026.095a12.238 12.238 0 0 1 1.83-2.222 35.356 35.356 0 0 1 1.84-1.771c.642-.546 1.197-1.197 1.753-1.927.277-.364.546-.755.798-1.171.217-.452.425-.929.607-1.459-.182.53.287-.095.347-.017.235-.451.495-.894.703-1.337a14.9 14.9 0 0 0 .469-1.267c.243-.772.295-1.337-.044-1.502.573-1.319.642-1.006.99-1.076-.313-.121.008-1.328.355-2.404a5.439 5.439 0 0 1-.052.538c.321-1.033.573-2.179.642-3.42a9.487 9.487 0 0 1-.685.634c.208-.894.364-1.033.521-1.137.138-.113.295-.209.112-1.224l-.503.086a10.009 10.009 0 0 0-.364-1.952c-.096-.304-.226-.582-.33-.868l-.174-.434-.26-.417c-.321-.582-.807-1.085-1.397-1.563a11.808 11.808 0 0 0-.998-.59 9.687 9.687 0 0 0-1.136-.39c-1.684-.209-3.116.104-4.408.503a20.008 20.008 0 0 0-3.549 1.571 34.5 34.5 0 0 0-3.115 2.005c-.252.182-.486.347-.738.556l-.763.659-.755.66c-.243.226-.443.477-.668.721-1.77 1.918-3.063 4.053-4.105 6.18a71.333 71.333 0 0 0-2.733 6.319l-.477.277c-.607.035.226 2.57-.33 2.787l.07 1.059c-.148.269-.365.85-.399.33-.183.937-.07.98.008 1.683-.156.33-.321.651-.46.99-.295 1.892-.234 3.706.096 5.616.113.495.191.963.347 1.484l.277.807.139.4c.044.121.096.208.139.321.365.833.738 1.684 1.128 2.578.677 2.283 2.221 5.373 4.772 8.133.66.677 1.345 1.345 2.187 1.927.382.304.868.564 1.302.816.234.121.486.226.728.338.243.113.495.209.773.278.26.078.555.156.781.208.191.035.381.061.564.096.373.061.737.121 1.093.174.711.112 1.38.225 1.987.295 3.471.329 7.08 1.293 10.785 2.065 3.697.782 7.471 1.389 11.029 1.077.225.087.833-.061.824-.122 2.152.122 4.304.191 6.456.243 0 0 1.952.035 4.512-.043 2.559-.07 5.709-.287 8.104-.634 2.395-.356 4.043-.842 3.61-1.458-.434-.625-2.959-1.319-8.816-2.335l.156-.121c-3.471-.226-5.631-.287-8.026.303-.365-.755-2.837-.112-3.636-.399l.078-.061c-2.126.521-4.303-.642-6.351-.269.078-.052.139-.26.607-.234-1.475.009-3.497 0-3.566-.451-3.514-.174-8.313-1.042-10.638-.764l.174-.096c-1.345.226-1.649-.208-3.098-.269-.07-.069-.156-.121-.139-.139-.729.078-1.735-.087-2.69-.338-.477-.122-.946-.243-1.362-.347a10.189 10.189 0 0 0-.59-.131c-.2-.034-.252-.06-.373-.069l.043-.287a5.431 5.431 0 0 1-1.822-1.032c.217.191.425.416.642.564-.347.269-.651-.122-1.015-.66-.373-.555-.79-1.285-1.571-1.849-.494-.72-1.353-1.224-2.178-1.84-.832-.599-1.596-1.311-1.882-2.265-.747-.669.902.46.026-.66.355-.226.52.46.659-.009-.781-1.119-.573-2.17-1.449-3.593l.278-.183a2.666 2.666 0 0 1-.365-.607c-.078-.2-.173-.356-.199-.59-.052-.46-.113-.868-.061-1.32.035-.868.156-1.666-.113-2.369-.139-2.205 1.015-1.363.668-3.689l.582-.799c.243-.929-.434-.79.026-1.797.251.122.52-1.267.633-.599.503-1.111.686-2.326 1.033-3.593.321-1.267.824-2.613 1.865-3.785-.095-.434.165-.92.408-1.388.243-.478.503-.912.495-1.207.121.035.59-.564.945-.955.399-.347.651-.494.287.243-.052.139-.209.339-.269.261l.13.356c.182-.113.338-.252.486-.374.156-.112.295-.234.416-.364.252-.252.443-.573.651-.859.46-.521.79-1.138 1.623-1.606-.512.208-1.05.625-.799.182.469-.304.946-.599 1.423-.877l-.147.417c.72-.399 1.449-.755 2.169-1.076l-.442-.139c1.128-.391 1.709-.061 2.663-.92.443-.443-1.128-.052-.069-.565.72-.121 1.631-.208 2.291-.078.321.061.581.157.694.269.026.027.061.044.095.061.018.026.026.061.044.087.017.026.043.026.06.052.009.035.026.07.044.096.225-.296.347-.209.555.034l-.26.183c.416.277.225.503.069.598-.191.157-.329.148-.191.825l-.217-.139c.217.13.434.278.634.452.208.807-.052 1.05-.243 1.249-.191.217-.382.452-.347 1.598.243-.816.815-.148.312.807l-.199-.365c-.139.573-.087.808-.278 1.146-.052-.399-.321-.33-.66.443l-.112-.669-.183 1.684a5 5 0 0 0-.572.868c-.208.304-.399.634-.582.938-.364.616-.694 1.145-1.006 1.232 0 0-.443.504-.885 1.103a9.313 9.313 0 0 0-.599.928c-.173.296-.312.547-.321.747.13-.599-.937.434-.928-.113-.104.365-.425.998-.868 1.554-.46.538-1.007 1.033-1.423 1.189l.087-.139c-2.482 1.771-3.705 3.819-6.343 4.956.312.243-1.05.886-.486 1.094-2.317 1.944-5.154 1.719-5.475 3.515-1.206.634-1.614.348-2.282.565l.26-.209c-2.291 1.103-2.967 1.398-4.764 2.005-.841.452-.746 1.181-2.429 1.545.442-.434-.208-.165-.816.026.373-.165.46-.303-.39-.217-.087.122-.243.226-.391.313-.017-.017-.052-.026-.043-.061-.989.391-.79.417-.304.321-.008.044.044.087.217.122-1.171-.035-2.959.876-3.219.451-3.124.964-5.215 2.023-7.792 2.778-.347-.174.217-.512.955-.781-.608.173-1.215.338-1.823.486-.052-.348 1.016-.417 1.562-.617-2.29-.06-4.416 1.511-7.045 1.224-.165.113-.339.217-.504.321l-.156-.034c.018.147-.546.382-.928.442-.373-.295 0-.703-1.241-.659-.963-.295-2.751.026-4.026-.078.659.182.416.312.104.355-.616-.112-.885-.477-1.371-.486l.052-.408c.069.209-.347.226-.798.157-.451-.079-.963-.191-1.094-.165-.208-.4.981.078 1.189-.096-1.136-.356-1.397-.521-1.674-.625-.278-.113-.547-.234-1.58-.816-1.249-.434-.008.452-.72.426-.529-.261-1.024-.582-1.553-.903-.477-.373-.998-.764-1.371-1.363l.043.573c-1.813-1.441-2.611-2.673-3.097-4.175a50.35 50.35 0 0 1-3.219-4.175c-.807-1.094-1.337-1.884-1.788-2.37-.876-.972-1.223-.755-1.345-.052-.069.729.078 2.005.373 3.09.139.538.278 1.042.391 1.398.13.356.208.581.208.581 1.215 3.629 3.002 6.233 5.467 8.437 2.455 2.214 5.726 4.123 10.395 5zm-75.099-148.289-.634-.521c-.017.07.131.226.634.521zm11.375-10.511c-.061-.026-.121-.061-.173-.087.112.069.156.087.173.087zm-42.994 7.039c.035-.009.052-.017.078-.026.113-.052.234-.104.33-.156l-.408.182z"/><path d="M233.991 134.832c-4.686-2.448-7.541-4.219-10.361-5.99-.694-.442-1.397-.894-2.117-1.354-.737-.477-1.588-1.033-2.638-1.58-1.049-.538-2.316-1.111-3.974-1.397a10.843 10.843 0 0 0-2.611-.121c-.877.069-1.736.234-2.543.451-.781.182-1.501.408-2.169.625-.642.217-1.284.434-1.926.659-1.276.452-2.551.895-3.835 1.346-1.276.46-2.543.911-3.801 1.363-2.134.746-4.243 1.484-6.308 2.213-1.883.929-4.703 1.884-7.757 2.908-1.519.512-3.081 1.033-4.478 1.528l-1.015.364a2.059 2.059 0 0 0-.225.087l.295.078c.199.052.399.104.59.156.789.209 1.57.4 2.351.573.339.208.703.434 1.111.66 2.186.495 4.338 1.041 5.796 1.658l-.269.017c.79.174 1.432.339 2.056.503.608.174 1.207.339 1.762.495 1.093.321 2.03.608 2.655.738l-.174.043 2.847.816-.556-.034 2.768.685a68.09 68.09 0 0 1 1.892.495c1.241.347 2.438.738 3.557 1.128l-.078-.416c4.72 1.84 6.716 1.614 10.95 3.368l-.086.069c5.813.642 8.581 3.168 14.568 3.828-.746-.078.252.269.174.347 2.672.608 5.51 1.32 5.744.608 1.926.512 1.51.633 1.692.981.069-.322 1.787-.009 3.297.364l-.729-.061 4.356.99-.703-.807c2.256.746.399.876 2.638 1.276l.096-.504c3.158.868 4.841 2.075 7.852 3.151 1.605.391 3.228.764 4.868 1.12 1.64.338 3.297.659 4.963.972 1.658.321 3.332.59 5.007.868l2.507.417c1.241.191 2.482.39 3.714.581 1.232.2 2.464.391 3.688.582l1.813.295c.582.078 1.102.104 1.658.165 2.178.199 4.338.425 6.516.659l.208.026.104.009-.069-.087-.278-.338-.555-.669-1.067-1.284c-.686-.816-1.363-1.632-2.039-2.439-1.319-1.589-2.734-3.229-4.469-4.957a8.69 8.69 0 0 0-.269-.746c.139-.252-1.258-1.224-2.49-1.936l-.46-.277c-.148-.087-.217-.113-.321-.165-.2-.096-.382-.2-.547-.295-.321-.191-.546-.382-.555-.556l-1.302-.686c-.26-.321-.885-.928-.234-.59-1.059-.816-1.137-.764-2.004-1.198l-.946-1.119c-4.052-3.282-8.009-5.313-12.356-8.637-4.894-4.427-15.272-11.145-21.25-15.016-4.295-2.596-8.469-6.05-12.668-9.514-2.1-1.727-4.217-3.463-6.352-5.086a79.89 79.89 0 0 0-4.859-3.437l-.824-.521-.469-.295-.694-.452c-.434-.416-1.683-1.102-1.675-1.015l-3.167-2.318-1.579-1.154-1.492-1.025-2.994-2.048-1.501-1.033-.373-.26-.095-.061c-.035-.026-.079-.06-.053 0l.053.226.216.902s.278 1.094.729 2.917c.478 1.814 1.059 4.262 1.927 7.196a87.001 87.001 0 0 0 1.475 4.53c.303.877.434 1.198.633 1.719l.581 1.467a67.152 67.152 0 0 0 2.508 5.416c1.675 3.186 3.185 5.191 3.471 4.375.156-.408 0-1.519-.46-3.567-.451-2.049-1.223-5.035-2.117-9.219l.191.174a55.725 55.725 0 0 0-.261-.885l-.06-.217-.026-.104-.044-.2c-.052-.226-.095-.443-.139-.651a10.435 10.435 0 0 0-.26-.998c-.217-.669-.573-1.398-1.31-2.986.772 1.015 1.085 1.276 1.38 1.432.286.148.633.269.893.616v.078c.339-.112 1.068.565 1.467 1.016l.078.087.217.191.46.382c.303.251.616.503.928.737.625.478 1.267.903 1.952 1.242-.13-.018-.303.104-.867-.287 1.83 1.215 4.364 2.839 4.243 3.29 4.312 2.986 10.126 7.447 13.258 8.862l-.26-.035c1.831.747 2.047 1.398 3.922 2.466.06.112.165.225.13.234 1.961.851 4.972 3.515 6.455 4.349l-.078.295 3.402 2.387-1.224-.964c.903-.33 2.248 2.248 4.998 3.602 2.221 1.736 5.606 2.014 7.749 4.054 1.353.521-1.354-.234.503.764-.191.373-.946-.365-.703.226 1.779 1.041 2.473 2.317 4.686 3.576l-.104.321c3.019 1.458 4.789 4.001 6.898 4.835 2.907 1.779 1.284 2.109 4.477 3.689l.816 1.163c1.128.963 1.18.225 2.334 1.415-.078.295.546.729.061.677.138.251.199.329.399.468.251.165.503.33.763.504.295.208.634.468.807.694.087.104.13.208.104.261-.208-.053-.581-.2-.928-.348.564.374.399.4.217.408-.191.009-.399-.008-.295.226-.165-.148-.755-.269-1.172-.382-.442-.121-.616-.234-.286-.434.052-.035.2 0 .278.104a3.88 3.88 0 0 0-.2-.356c-.685-.425-.789-.364-1.145-.277l-.278.069c0 .017-.26-.009-.39-.017l-.495-.044a15.066 15.066 0 0 1-2.004-.312c.798.269 1.891.451 1.119.521l-2.551-.547.581-.157c-1.258-.303-2.525-.598-3.783-.928l.46.434c-1.831-.564-2.36-1.25-4.564-1.242-1.007.053 1.666.808-.321.495-2.438-.781-6.091-1.927-9.224-2.795.209.434-.642.217-1.535.078l-.026-.338c-3.463-.365-1.059-.99-4.469-1.467l.347-.148-1.041.434c-3.159-.13-1.449-1.05-4.998-1.067 1.327.286.442.85-1.146.295l.486-.2c-.911-.173-1.249-.121-1.822-.338.573-.026.399-.365-.937-.66l.981-.148-2.638-.104c-1.831-.842-4.989-1.25-5.658-1.901 0 0-4.06-1.354-5.136-1.154.911-.052-1.328-.807-.59-.964-1.154.027-4.382-.607-5.545-1.319l.252.026c-4.556-1.701-8.105-1.84-12.148-3.507.087.417-2.065-.442-1.657.183-1.111-.209-2.144-.521-3.098-.851a24.687 24.687 0 0 0-.703-.252l-.338-.13c-.113-.043-.243-.087-.269-.104-.2-.095-.382-.191-.564-.278-.703-.338-1.093-.442-2.595-.121-.685-.165-.798-.287-.798-.4 0-.112.13-.199.035-.269l.338.018c-.746-.165-1.345-.295-1.726-.417.347-.13.72-.252 1.266-.417.078-.104-.199-.225-.26-.39-.069-.156.13-.365.928-.547-.069.313.374.104.816-.043-.26.139-.173.208.469.191 0-.087.078-.174.165-.243.017.017.043.026.052.052.147-.078.26-.139.329-.183.104-.06.235-.121.226-.139.035-.052-.286.027-.417.044 0-.044-.052-.087-.199-.113.139 0 .225.009.408-.035.234-.052.477-.121.729-.191.494-.147.997-.312 1.457-.468.92-.304 1.684-.539 1.848-.348 2.256-.815 4.157-1.623 5.953-2.395 1.761-.755 3.332-1.415 4.972-1.302.312.295-.425.356-1.319.529a5.774 5.774 0 0 1 2.178.113c-.13.304-1.241-.095-1.909.052.651.104 1.189.217 1.848.382.642.165 1.354.391 2.109.712a25.847 25.847 0 0 1 4.885 2.777l.859.165.182.157c.061-.131.937.121 1.484.355.355.53-.373.599 1.379 1.519 1.241.99 4 1.919 5.892 2.683-.963-.539-.564-.53-.096-.417.886.425 1.259.955 1.996 1.172l-.095.408c-.174-.512 2.49.755 2.889.764.373.52-1.484-.434-1.805-.339 3.558 1.693 1.779.851 5.345 2.517 2.031.625-.182-.512.885-.408 1.71.712 3.471 1.224 5.302 2.326l-.46-.607c3.28 1.198 5.163 2.066 7.167 3.342 6.248 1.901 9.814 2.56 11.593 2.647 1.778.096 1.813-.347 1.032-.955-.755-.616-2.264-1.406-3.592-2.092-1.336-.659-2.464-1.223-2.464-1.223-4.486-2.283-8-3.785-11.784-5.287-3.739-1.501-7.8-3.029-13.249-5.589zm-31.203 20.493c-.052.078-.13.174-.164.243a.655.655 0 0 0 .164-.243z"/><path d="M266.104 157.955c.017-.009.043-.017.061-.035-.044.018-.061.026-.061.035zm-55.871 3.377h-.017c-.026.017-.052.017-.07.034l.087-.034z"/><path d="M198.276 153.433a91.206 91.206 0 0 1-.659 4.036c-.096 1.102-.946 2.734.503 2.543a51.77 51.77 0 0 0 3.176.616c.607.096 1.258.191 1.978.278.868.122 1.128.113 1.614.122 1.736.217 3.627.277 5.328.304.85-.487 2.221.156 3.21-.235l.347.339c.339-.131.729-.209 1.05-.026l-.026.086c.503-.208 1.041-.034 1.293-.138l-.026.086.599-.008-.113.121a5.956 5.956 0 0 1 2.508-.008l-.044-.382c1.631.52 2.274-.243 3.74.329l-.026.087c1.926-.911 2.95.825 4.928-.043-.243.113.096.199.07.286.894-.078 1.857-.095 1.9-.833.651.035.521.252.599.538.008-.33.581-.443 1.084-.443l-.234.113 1.458-.052-.26-.625c.763.209.173.755.911.634l.008-.512c1.059.139 1.666.92 2.682 1.328 4.295.356 8.937-.842 12.911.139l.173.382c.07.555 1.12-.808 1.259-.287l.468-.243c.13.104.399.217.165.339.425.026.442-.061.755-.226l.46.356c1.692.295 3.141-.347 4.928-.2 2.135.738 6.178.113 8.504-.269 3.262-.824 7.08 1.389 10.429.373.113.079.391-.104.391-.165 1.024.009 2.048.027 3.08.018 0 0 .937-.009 2.161-.096 1.223-.086 2.759-.295 3.93-.625 1.25-.39 2.022-.894 1.701-1.484-.156-.304-.573-.625-1.276-.989a27.455 27.455 0 0 0-3.106-1.32l.069-.121c-1.648-.217-2.698-.278-3.826.373-.2-.746-1.362-.043-1.761-.278l.034-.061c-1.006.591-2.1-.451-3.071.079.034-.061.052-.27.277-.278-.711.104-1.683.286-1.744-.156-1.7.121-4.087-.07-5.171.633l.078-.121c-.625.468-.807.069-1.501.303-.035-.06-.087-.086-.078-.112-.677.46-1.979.069-2.534.26l-.035-.286-1.353.06.503.061c-.182.799-1.024-.495-2.004.009-.92-.113-1.875 1.64-2.829 1.241-.46.365.408-.599-.278-.321-.017-.417.321-.261.148-.59-.668.191-1.094-.434-1.918-.165l-.026-.321c-1.085.581-2.022-.452-2.742.104-1.11.251-.729-.972-1.891-.356l-.443-.443c-.494-.078-.364.53-.902.313.034-.278-.686-.235-.365-.486-1.232-.452-2.525.564-4.139-.2-.364.529-1.18.191-1.449.59-.034-.234-1.64-.078-.711-.564.078-.043.217-.026.208.061l.122-.313c-.912-.625-1.692.295-2.612.183.269.112.633.095.382.303l-.851-.069.182-.26-1.266-.191.164.338c-.616-.191-.824-.764-1.535-.312-.33.251.572.46-.087.546-.824-.251-2.065-.625-3.124-.755.087.374-.199.356-.494.426l-.026-.322c-1.146.408-.391-.729-1.519-.408l.104-.225-.321.668c-1.032.608-.52-.694-1.674.139.442-.035.182.72-.356.564l.147-.304c-.303.053-.408.183-.607.113.182-.165.113-.451-.33-.416l.313-.382-.859.547c-.634-.356-1.684.026-1.927-.426 0 0-1.379-.278-1.718.191.295-.286-.468-.434-.234-.781-.373.321-1.449.547-1.866.165l.087-.035c-1.553-.442-2.724.391-4.104-.147.043.382-.694.13-.529.625-1.493.39-2.603-1.129-3.228.321-.668.043-.764-.391-1.102-.495l.165-.069c-1.25.026-1.614.017-2.534-.087-.469.113-.599.79-1.414.564.286-.252-.052-.226-.365-.252.2-.026.269-.121-.121-.338a.582.582 0 0 1-.243.165c0-.026-.018-.044-.009-.07-.52.061-.442.148-.208.209-.017.043 0 .095.069.173-.512-.382-1.492-.113-1.509-.581-.773-.018-1.45.06-2.092.156-.321.043-.642.095-.954.139-.295.043-.694.078-.868.095-.026-.121.026-.234.104-.321a.563.563 0 0 1 .131-.113c.078-.026.173-.052.269-.069h-.226l-.139.008-.252.009c.053-.165.131-.208.209-.217.095 0 .13.026.321.009-.156-.087-.182-.139-.243-.165a.304.304 0 0 0-.174-.044c-.121 0-.277.053-.451.105-.338.104-.842.191-.902-.079l-.426.217.009-.043c-.191.156-.364.139-.408.052.339-.321.764-.512.773-.764.164-.191.138-.286.06-.425-.078-.13-.217-.304-.277-.477-.07.182-.235.138-.33.043.009-.104.087-.156.156-.243.07-.113.122-.208.078-.339l.408.018c-.399.087-.321-.877-.477-1.007.321-.148.208.521.425.625l.156-1.918c-.234-.712-.399.078-.72-.287-.017-.607-.234-1.224.087-1.883l-.382.182c-.156-1.155-.043-1.823.408-2.543-2.031-8.715-3.835-2.214-3.835-2.214-1.189 3.212-.321 4.957-.478 9.019zm-60.07 84.274c.208-.261.425-.513.625-.782-.07-.026-.243.165-.625.782zm21.198-135.287c.069.035.156.07.216.096-.147-.078-.19-.096-.216-.096zm-1.944 100.983c-.009.018-.009.035-.017.052-.009.087-.026.183-.035.261l.052-.313z"/><path d="M135.429 250.518c4.208-5.52 6.543-9.227 8.799-13.037 2.212-3.828 4.312-7.829 6.837-14.478 2.594-6.276 4.686-13.185 6.386-19.548.347-3.142 2.222-8.358 2.577-12.065l.616-1.328c.139-1.276.321-2.751.747-3.975l.069.095c.165-1.901.685-3.984.746-4.93l.078.096c.13-.756.261-1.519.373-2.275l.061.417c.33-3.298.868-6.658 1.406-9.617l-.408.191c1.319-6.293.816-8.715 1.9-14.418l.087.087c-.304-7.352 1.666-11.484.998-19.07.087.946.208-.399.295-.313.017-3.471-.009-7.187-.755-7.247.017-2.526.243-2.057.529-2.387-.312.017-.468-2.179-.512-4.149l.139.902c-.043-1.883-.156-3.767-.243-5.65l-.581 1.128c.069-2.994.72-.79.46-3.654l-.504.061c-.121-4.141.504-6.615.478-10.685a108.505 108.505 0 0 0-1.857-12.69c-.885-4.245-2.074-8.48-3.74-12.595-.876-2.049-1.865-4.071-3.202-5.99-.694-1.006-1.345-1.744-2.004-2.586a183.212 183.212 0 0 0-2.013-2.422c-2.725-3.177-5.458-6.24-8.651-8.94l-.373-.755c.026-.321-1.067-.85-2.3-1.276-1.214-.452-2.603-.703-2.898-1.05-.772-.122-1.579-.192-2.429-.122-.703-.139-2.386.095-1.024-.27-1.293.183-1.961.539-2.447.869-.495.33-.868.677-1.432 1.371a8.815 8.815 0 0 0-1.7 1.875c-1.024 1.97-1.302 3.828-1.432 5.581-.113 1.763.017 3.429.243 5.078.486 3.29 1.371 6.475 2.707 9.939.347 1.067.816 2.23 1.449 3.446.321.59.694 1.258 1.093 1.822.4.573.816 1.164 1.241 1.763.417.616.894 1.18 1.389 1.753.485.573.98 1.163 1.501 1.745.538.546 1.084 1.102 1.631 1.666l.833.833.876.79c4.651 4.236 9.909 7.691 13.823 10.017 5.562 3.177 11.384 6.831 17.414 10.242 6.022 3.412 12.243 6.58 18.404 8.672.356.234 1.432.494 1.449.434a463.75 463.75 0 0 0 10.968 4.522s3.34 1.328 7.748 2.942a401.653 401.653 0 0 0 14.083 4.87c2.1.677 3.853 1.241 5.015 1.536 1.128.304 1.762.356 1.588-.095-.087-.217-.373-.556-.928-1.042-.564-.46-1.38-1.05-2.499-1.744-2.248-1.398-5.701-3.247-10.577-5.695l.312-.008c-5.944-2.543-9.701-4.054-14.057-5.104-.381-.946-4.885-2.022-6.186-2.821h.156c-3.861-.946-7.263-3.55-10.916-4.6.156.008.313-.148 1.111.191-1.276-.513-2.785-1.12-3.974-1.658-1.189-.556-2.057-1.033-2.057-1.268-3.002-1.319-6.507-3.072-9.744-4.687-3.236-1.632-6.195-3.125-8.173-3.888l.312.043c-2.3-.799-2.707-1.493-5.085-2.708-.095-.122-.234-.252-.199-.252-1.241-.469-2.803-1.536-4.33-2.552a113.124 113.124 0 0 0-3.775-2.69l.07-.313-2.048-1.536c-.668-.53-1.319-1.077-1.987-1.615l1.423 1.276c-.503.096-1.171-.634-2.1-1.623-.477-.486-.954-1.094-1.544-1.675-.573-.6-1.267-1.163-1.979-1.754-.581-.642-1.249-1.198-1.952-1.736-.668-.564-1.388-1.11-2.108-1.666-.738-.547-1.363-1.198-1.996-1.858-.634-.66-1.172-1.389-1.519-2.23-1.145-1.32 1.241 1.024-.208-1.077.33-.252.781.92.764.191-.66-1.033-.963-2.005-1.267-3.047-.295-1.041-.581-2.152-1.102-3.584l.286-.2c-.772-1.84-.963-3.732-.963-5.399-.009-1.684.148-3.133.052-4.383.174-1.91.712-2.361 1.102-2.752.208-.19.408-.364.625-.608.225-.243.416-.503.842-.842.303.053.598.174.902.33.521.07.798.026 1.085-.017.286-.026.616-.052 1.37.434-.104.096.365.4.729.668.365.287.625.504.104.339 3.237 2.517 7.385 5.32 10.751 10.529.634.347 1.371 1.18 2.065 2.005.651.807 1.137 1.467 1.545 1.805-.035.061.13.408.364.842.209.46.469 1.033.677 1.502.382.98.547 1.57-.338.156-.165-.234-.373-.677-.278-.686l-.451-.2c.885 3.117 2.62 5.452 3.427 8.81-.165-1.006-.555-2.3-.104-1.492.269 1.033.538 2.057.764 3.107l-.417-.581c.339 1.553.608 3.125.868 4.704l.199-.711c.278 2.352-.138 3.246.729 5.806.443 1.155.096-2.282.582.174.234 3.177.416 7.934.598 11.996.339-.408.426.686.556 1.805l-.313.148c.694 4.279-.616 1.614-.069 5.867l-.243-.364.72 1.102c.738 3.854-.599 2.101.33 6.389-.078-1.702.711-.808.581 1.293l-.312-.529c.061 1.163.191 1.553.121 2.326-.165-.695-.451-.365-.408 1.337l-.39-1.146c.191 1.076.364 2.152.538 3.229-.364 2.482-.095 6.449-.59 7.447 0 0-.113 1.337-.182 2.83-.078 1.493-.113 3.133.095 3.767-.225-1.094-.546 1.84-.841.981.251 1.406.19 5.52-.322 7.117l-.017-.312c-.937 5.998-.599 10.381-1.813 15.711.416-.191-.209 2.621.364 1.996-.373 5.668-2.707 9.947-1.623 12.239-.442 2.534-.954 2.908-1.301 4.192l.043-.616c-.902 4.722-1.223 6.076-2.126 9.531-.321 1.753.322 2.213-.711 5.251.017-1.068-.286.2-.616 1.354.165-.746.13-.998-.469.46.026.234-.017.582-.078.894-.026.009-.06.061-.078.026-.486 1.936-.304 1.632 0 .755.026.061.104 0 .26-.251-.477.937-.876 2.326-1.249 3.48-.382 1.155-.712 2.083-.972 2.127-1.779 5.711-2.863 9.878-4.659 14.539-.452.416-.174-.738.303-2.101l-1.319 3.273c-.303-.174.625-1.936.99-2.96-2.144 3.628-2.994 8.15-5.797 12.23l-.243 1.024-.182.234c.148.061-.243 1.111-.572 1.762-.616.443-.573-.39-1.797 1.702-.642.729-1.31 1.909-2.03 3.151-.737 1.223-1.432 2.578-2.134 3.61.85-1.05.728-.607.459-.078-.72.981-1.371 1.363-1.839 2.179l-.399-.165c.598-.139-1.649 2.726-1.84 3.142-.347.156-.078-.234.269-.72.33-.495.746-1.077.755-1.267-.746.946-1.232 1.527-1.588 1.918-.347.399-.546.625-.746.85-.399.452-.781.921-2.464 2.63-1.597 2.049.607-.052-.018 1.077-.807.816-1.596 1.632-2.42 2.465-.886.772-1.797 1.588-2.933 2.265.295-.069.598-.13.885-.217-3.271 2.856-5.623 4.106-8.356 5.122-3.428 2.135-6.395 3.315-8.66 4.253-1.154.399-2.134.798-2.967 1.076-.842.26-1.519.495-2.057.703-2.143.807-1.917 1.155-.72 1.363 1.258.139 3.627.104 5.649-.243 1.024-.122 1.935-.339 2.612-.504l1.093-.269c3.341-.876 6.213-2.005 8.72-3.402 2.551-1.337 4.72-2.934 6.881-4.644 2.091-1.788 4.165-3.706 6.239-6.024 2.056-2.283 4.199-4.947 6.516-8.142zm102.987-26.812.399.304c.018-.052-.078-.139-.399-.304zm-9.605-8.229c.026-.034.06-.06.078-.095-.061.061-.078.087-.078.095zm14.325 15.155-.009-.026.009.026z"/><path d="M232.984 226.24c.547-.208.798-.199 1.093-.147.313.061.729.234 1.189.46 1.05.538 1.97 1.016 2.898 1.493.946.486 1.901.963 3.011 1.476.556.26 1.154.52 1.814.807.043.008.052 0 .121 0a.172.172 0 0 0 .087.043c.035.009.147.026.113.044 0 .043-.061.121-.174.199a.185.185 0 0 1 0 .139c-.104.078-.373.208-.572.304-.434.217-.929.399-1.423.581-.998.374-2.031.756-2.794 1.233h-.729c-.53.321-1.18.642-1.796.72l.008-.078c-.789.486-1.805.703-2.204.929l.018-.078-1.042.382.148-.156c-1.44.703-3.011 1.18-4.408 1.519l.2.251c-3.055.556-3.974 1.476-6.777 1.806l.017-.078c-3.219 1.675-5.527.859-8.902 2.413.425-.191-.226-.104-.2-.183-1.622.443-3.358.868-3.262 1.441-1.198.243-1.016.026-1.215-.165.061.252-.963.565-1.9.773l.407-.182a91.62 91.62 0 0 1-2.672.616l.625.373c-1.458.139-.478-.512-1.823-.139l.096.391c-.495.069-.963.113-1.371.113a2.738 2.738 0 0 1-.694-.148c-.382-.13-.599-.321-.798-.443a7.342 7.342 0 0 0-1.016.165c-.468.113-.928.217-1.397.33.287-.364.816-.946 1.666-1.666.209-.174.426-.356.651-.53l1.449-1.085a58.133 58.133 0 0 1 3.297-2.239l.452.034c.381.261 1.266-1.779 1.744-1.631l.581-.695c.243-.087.712-.33.425.009.66-.477.634-.547 1.015-1.007l.859-.304c2.69-1.762 4.547-3.819 7.315-5.763 3.584-1.988 9.389-6.979 12.729-9.878 4.538-4.253 11.332-7.257 15.844-11.814.2-.078.53-.52.495-.555l1.024-.79-2.777-2.448-2.334 3.854s-14.464 24.105-.469 7.63l.009.174c1.814-2.613 2.881-4.306 3.575-6.441.685.009 1.38-2.213 1.918-2.752l.008.087c.078-.252.174-.486.287-.72l3.913-8.047-6.334 5.92c-1.25 1.163-2.976 1.806-4.035 3.082.026-.079-.043-.235.286-.504-1.024.894-2.403 2.144-2.69 1.927-2.498 2.066-6.178 4.687-7.505 6.38l.052-.165c-.72 1.016-1.189.972-2.126 1.918-.087.009-.173.044-.173.018-.807 1.076-2.968 2.317-3.705 3.072l-.191-.139-2.022 1.589.798-.538c.113.703-1.787.85-3.037 2.3-1.44.981-2.048 3.168-3.687 4.01-.512.755.321-.842-.573.113-.234-.234.356-.53-.061-.538-.92.885-1.865.981-2.985 2.1l-.208-.165c-1.354 1.597-3.289 2.049-4.104 3.221-1.553 1.441-1.588.243-3.037 1.97l-.885.243c-.781.521-.278.747-1.215 1.241-.078-.208-1.154.66-.79.122-1.041.581-1.917 1.406-2.889 2.265-.486.426-.989.868-1.553 1.285-.286.217-.555.399-.911.634a53.92 53.92 0 0 1-1.71 1.128c-.269.486-.971 1.076-1.639 1.64-.669.565-1.319 1.103-1.371 1.346-.209.043-1.224.842-2.013 1.415-.773.564-1.38.972-.608.104.139-.156.521-.452.634-.443-.07-.052-.131-.113-.191-.173-1.736 1.067-2.864 2.039-3.714 2.864-.876.842-1.484 1.536-2.803 2.535.989-.678 1.84-1.381 1.744-1.085l-2.264 1.753a2.309 2.309 0 0 1-.269-.061l-1.293.972 2.542-.321c.07-.095.148-.2.234-.304.79-.06 1.068.044 1.606.044.52 0 1.336-.113 2.915-.556.746-.225.443-.269.278-.312-.174-.044-.217-.096.867-.313 2.109-.156 5.901-.486 9.319-1.024-.242-.252.643-.399 1.536-.616l.13.234c.356-.095.625-.174.851-.234.165-.044.303-.061.408-.07a.751.751 0 0 1 .433.104c.217.113.443.235 1.467-.112l-.156.208.451-.634c1.805-.859 1.128.321 3.098-.79-.825.209-.504-.468.538-.572l-.209.295c.556-.165.729-.304 1.111-.33-.312.199-.104.39.72.165l-.494.425 1.475-.79c1.275 0 3.123-.755 3.696-.538 0 0 2.646-.434 3.15-.963-.469.364.989.086.65.46.608-.434 2.543-1.129 3.411-1.077l-.139.07c3.019-.495 4.911-1.754 7.618-2.196-.208-.252 1.223-.521.764-.773 2.577-1.163 5.136-.859 5.726-2.283 1.189-.486 1.519-.251 2.17-.416l-.269.165c2.238-.886 2.872-1.181 4.555-1.788.399-.217.581-.452.85-.712.139-.13.295-.261.512-.382.113-.061.235-.13.382-.191.191-.078.434-.174.703-.269-.59.477.278.078 1.111-.269-.495.234-.643.39.616.017.095-.113.295-.252.486-.364.026.008.086 0 .086.017 1.311-.651.955-.573.313-.321-.009-.035-.104-.035-.356.008.824-.199 1.822-.651 2.646-1.015.833-.365 1.536-.651 2.005-.66.494-.234.972-.469 1.431-.686l.33-.164-.39-.157c-.261-.104-.521-.208-.772-.304l-2.881-1.102c-1.822-.677-3.445-1.241-5.007-1.849-.269-.33.547-.156 1.623.235l-2.222-.903c.079-.122.278-.07.634.069.46.191.998.443 1.406.591-1.64-.964-2.369-1.164-3.506-1.537-1.076-.347-2.187-.703-3.228-1.38l-.555-.009-.122-.095c-.043.104-.607.035-.954-.078-.226-.365.269-.495-.894-.981-.425-.304-1.171-.599-2.143-.686a5.26 5.26 0 0 0-1.51.087c-.486.104-.92.269-1.275.425.833-.217.59 0 .277.183-.685.234-1.145.208-1.553.538l-.208-.252c.191.07-.165.356-.529.642-.365.287-.781.582-.842.695-.416-.026.694-.66.746-.894-2.074 1.276-1.032.633-3.106 1.909-.989.877.356.139-.026.703-.946.643-1.796 1.407-3.02 1.919l.504.034c-1.727 1.294-2.855 1.927-4.243 2.422-12.547 10.225-1.259 4.479-1.259 4.479 2.872-1.345 4.894-2.613 6.994-4.053 1.041-.73 2.117-1.476 3.315-2.318.607-.417 1.24-.851 1.917-1.311.703-.399 1.415-.902 1.987-1.172zm8.99 18.376-.139.148c.052 0 .104-.035.139-.148zm-40.617 3.689c-.017.009-.026.017-.044.026.027-.017.044-.017.044-.026zm34.864-3.446a.112.112 0 0 0 .052-.035l-.052.035z"/><path d="M238.503 242.246a12.22 12.22 0 0 1-.321 1.354c-.061.191-.113.374-.165.547l-.078.261c-.026.086-.052.191-.07.165-.138.043-.191-.044-.138.078-.035-.018-.035 0-.07.043-.009.009.009.009-.035.017l-.208.018-.408.043c-.269.026-.538.052-.798.087-.486.451-1.371.043-1.952.425l-.235-.243c-.199.13-.433.217-.642.087l.009-.069c-.295.191-.642.086-.79.191l.009-.07-.364.044.06-.105a2.805 2.805 0 0 1-1.544.139l.043.295c-1.032-.321-1.397.313-2.325-.086l.009-.07c-1.163.79-1.849-.521-3.055.226.148-.096-.06-.156-.052-.226-.555.087-1.145.13-1.154.712-.408-.009-.33-.182-.382-.408 0 .26-.347.365-.668.382l.148-.096-.903.078.174.487c-.477-.148-.122-.591-.581-.478v.399c-.669-.086-1.05-.703-1.684-1.006-2.664-.209-5.562.746-8.026-.053l-.095-.303c-.035-.443-.712.625-.79.217l-.295.191c-.078-.078-.243-.174-.095-.269-.269-.026-.278.043-.478.173l-.277-.286c-1.042-.261-1.961.225-3.063.069-1.302-.625-3.827-.252-5.293-.052-2.074.53-4.304-1.397-6.439-.807-.06-.07-.251.061-.251.113l-1.892-.226s-2.29-.243-3.757.026c-1.458.278-2.117 1.085 1.224 3.246l-.052.087c1.023.339 1.683.434 2.446.018.061.598.859.138 1.085.347l-.026.043c.677-.399 1.284.486 1.935.13-.026.044-.052.209-.2.209.46-.035 1.076-.122 1.085.225 1.085-.008 2.568.252 3.297-.243l-.052.096c.417-.339.512-.018.963-.183.018.044.052.07.044.087.451-.338 1.249.018 1.605-.113l.009.226h.85l-.312-.069c.147-.625.624.434 1.258.06.572.113 1.241-1.241 1.822-.902.304-.278-.278.468.165.26 0 .33-.208.191-.113.46.425-.13.668.373 1.197.174l.009.26c.694-.434 1.258.391 1.727-.035.703-.182.434.782 1.18.304l.269.356c.312.07.243-.417.581-.234-.026.217.425.191.217.39.772.365 1.605-.425 2.612.183.234-.417.746-.148.92-.469.026.182 1.032.061.442.443-.052.034-.139.026-.13-.052l-.078.251c.573.495 1.076-.234 1.649-.147-.174-.087-.4-.07-.243-.235l.538.044-.113.208.798.139-.104-.26c.39.138.521.59.972.225.208-.199-.365-.364.052-.434.52.191 1.31.469 1.978.556-.061-.295.122-.287.304-.339l.017.261c.72-.348.252.564.963.286l-.06.182.19-.529c.643-.504.339.538 1.05-.156-.277.043-.13-.565.217-.452l-.086.243c.19-.052.251-.156.381-.104-.112.13-.06.356.217.321l-.191.313.53-.452c.407.269 1.058-.06 1.223.287 0 0 .885.165 1.085-.217-.174.234.312.33.173.607.226-.269.903-.494 1.172-.208l-.052.035c1.006.286 1.7-.417 2.603-.078-.044-.295.434-.139.303-.521.92-.391 1.701.746 2.013-.434.417-.07.504.26.721.321l-.096.061c.79-.113 1.015-.13 1.605-.113.287-.122.321-.668.851-.556-.165.226.052.174.243.165-.122.035-.165.122.104.252a.38.38 0 0 1 .139-.147c0 .017.017.026.008.052.321-.087.269-.157.113-.174.009-.035-.009-.078-.052-.13.356.269.92-.052 1.024.321 1.562-.122 2.438-.573 2.993-1.545.209.026.209.365 0 .651.191-.2.348-.434.452-.686.225.183-.113.512-.278.729.529-.199.712-.772.746-1.354.044-.59-.043-1.198.226-1.762l-.2-.191.044-.043c-.113-.009-.252-.208-.278-.33.252-.087.547.069.581-.33.269-.286-.017-.903-.104-1.328-.061.217-.191.13-.26.026.017-.199.269-.286.182-.451l.321.017c-.312.044-.269-.555-.39-.642.251-.087.173.33.347.399.061-.798.026-.399.087-1.198-.2-.451-.313.044-.573-.191-.017-.382-.208-.772.035-1.18l-.304.104c-.148-.729-.061-1.146.278-1.588-1.753-5.512-3.055-1.459-3.055-1.459-.807 1.945-.095 3.099-.147 5.59zm95.073-50.508-.338.052c.034.052.13.052.338-.052zm-75.203 28.374c-.026.018-.052.026-.07.044.053-.026.07-.035.07-.044zm62.491-25.996.018-.009.052-.069-.07.078z"/><path d="M335.008 186.599c-1.814 1.059-3.089 1.519-4.313 2.092-1.241.555-2.455 1.172-4.295 2.326-1.857.929-3.748 2.083-5.51 3.09-.642.859-2.377 1.198-3.236 2.031l-.504-.026c-.295.287-.676.564-1.084.617l-.009-.079c-.442.426-1.093.617-1.31.834l-.009-.078-.624.347.069-.148c-.824.643-1.796 1.068-2.681 1.372l.191.243c-1.953.512-2.36 1.38-4.165 1.753l-.009-.078c-1.761 1.666-3.514.894-5.38 2.5.235-.2-.173-.096-.182-.174-.963.495-2.013.972-1.813 1.519-.729.295-.66.07-.842-.104.095.234-.503.582-1.076.807l.226-.191-1.614.703.494.33c-.928.2-.434-.469-1.232-.043l.156.373c-1.24.382-2.16.078-3.427.243-2.464.799-4.955 1.832-7.41 2.838-2.482.938-4.955 1.754-7.367 2.127l-.286-.226c-.208-.39-1.102.981-1.397.634l-.486.338c-.174-.034-.521-.026-.278-.199-.503.121-.494.191-.824.416l-.607-.121c-2.031.312-3.567 1.328-5.701 1.693-1.328.026-3.141.442-4.963.972a147.509 147.509 0 0 0-5.016 1.493c-.937.356-1.943.573-2.985.72-1.049.122-2.125.156-3.21.208-2.169.079-4.312.243-6.265.851-.139-.043-.46.139-.451.191l-3.67.425s-.278.035-.738.096c-.46.069-1.102.165-1.831.243-1.457.182-3.254.46-4.616.798-2.716.686-3.783 1.667 3.271 2.804l-.078.104c1.033.018 1.875 0 2.629-.087a6.96 6.96 0 0 0 2.083-.642c.295.556 1.683-.165 2.186-.035l-.034.052c1.18-.616 2.62.044 3.757-.538-.044.052-.044.226-.313.269.86-.208 2.031-.546 2.144-.217 2.065-.442 4.998-.746 6.221-1.545l-.069.113c.685-.512.963-.252 1.77-.607.052.034.121.043.113.069.746-.521 2.377-.538 3.01-.825l.087.217 1.623-.381-.616.078c.078-.66 1.319.147 2.403-.547 1.12-.182 1.935-1.797 3.141-1.771.478-.417-.364.582.391.165.104.312-.33.286-.061.495.764-.339 1.388.017 2.325-.434l.105.234c1.162-.772 2.49-.321 3.227-.972 1.259-.556 1.085.495 2.317-.356l.625.191c.599-.104.304-.521.998-.538.017.217.867-.052.546.243 1.562-.104 2.829-1.363 4.92-1.398.295-.529 1.336-.59 1.553-.989.105.165 1.944-.564.981.147-.087.061-.252.105-.26.035l-.052.278c1.249.121 1.9-.911 3.002-1.198-.347.026-.764.191-.53-.069l1.007-.304-.139.269 1.527-.391-.286-.182c.772-.121 1.171.217 1.874-.417.304-.321-.807-.095-.061-.434 1.033-.147 2.569-.425 3.827-.824-.217-.235.121-.347.434-.53l.13.226c1.18-.825.677.347 1.874-.408l-.052.208.148-.625c.98-.911.824.261 1.865-.876-.494.234-.442-.434.226-.564l-.07.286c.33-.182.408-.321.651-.373-.156.208.026.382.512.13l-.226.425.79-.816c.842-.06 1.883-.85 2.325-.659 0 0 1.658-.504 1.875-1.007-.226.347.685.069.546.434.313-.417 1.441-1.12 2.031-1.085l-.078.069c1.9-.538 2.88-1.736 4.624-2.135-.199-.234.712-.469.348-.72 1.501-1.059 3.305-.73 3.392-2.066.712-.417.998-.183 1.406-.313l-.148.139c1.345-.764 1.736-.972 2.777-1.449.46-.356.304-.868 1.258-1.233-.191.347.156.113.495-.061-.2.148-.235.252.277.148.035-.096.113-.182.183-.261.008.018.034.018.034.044.53-.365.399-.373.122-.261 0-.034-.044-.06-.156-.069.711-.061 1.622-.885 1.865-.59 1.649-.99 2.707-1.927 4.018-2.856.251.078.008.408-.365.703l.955-.625c.13.243-.486.46-.764.686 1.388-.278 2.204-1.771 3.775-2.196l.173-.356.104-.017c-.061-.096.165-.408.356-.556.312.096.26.486.937.087.66-.096 1.466-.981 2.091-1.528-.39.191-.338.009-.225-.165.329-.208.642-.121.85-.373l.2.26c-.287-.182.702-.815.754-1.006.313.086-.407.494-.399.703 1.328-.851.66-.426 1.987-1.276.582-.643-.295-.183-.095-.634.599-.443 1.093-1.007 1.917-1.285l-.381-.104c1.05-.929 1.752-1.371 2.69-1.64 3.67-3.811 3.644-4.774 2.75-4.774-.902-.009-2.698.911-2.698.911-1.849.833-3.081 1.719-4.356 2.734-1.319 1.007-2.638 2.127-4.616 3.481zM82.96 174.221l-.33-.364c-.026.069.043.173.33.364zm-10.17 28.288c.027-.026.061-.052.079-.086-.061.052-.079.069-.079.086zm-2.889-41.724c.009.008.017.008.017.008l.122.026-.139-.034z"/><path d="M90.18 172.98c-5.285-3.264-6.361-4.696-12.07-7.673-2.63-1.588-5.545-3.081-8.192-4.505-1.51-.234-3.418-1.962-5.102-2.404l-.407-.599c-.582-.156-1.224-.399-1.65-.842l.079-.061c-.434-.113-.85-.321-1.206-.521-.182-.095-.347-.191-.495-.269a2.318 2.318 0 0 1-.208-.104c-.078-.035-.156-.061-.226-.087l.105-.043-1.675-.92.321.034c-2.482-1.145-4.738-2.43-6.994-3.862l.469.712a45.23 45.23 0 0 0-1.45-.955c-.077 1.849.018 3.489.088 5 .07 1.536.095 2.925-.122 4.921l-.095-.078c.121.877.208 1.128.26 1.536.052.382.07.747.07 1.103 0 .711-.087 1.371-.174 2.039-.174 1.337-.356 2.691.113 4.419-.122-.434-.191.182-.287.147.105 1.589.165 3.29.903 3.316-.009 1.163-.234.946-.52 1.094.329-.009.459.998.476 1.909l-.121-.416.113 2.595.616-.512c-.174 1.371-.746.347-.599 1.666l.512-.017c-.104 1.901-.868 3.021-1.25 4.861-.216 7.655 1.076 15.875.183 23.002l-.382.312c-.555.191.824 1.771.312 2.648l.252 1.31c-.096.408-.208 1.311-.33.669-.017 1.328.07 1.319.234 2.1l-.347 1.745a58.804 58.804 0 0 0-.052 4.053c1.666-1.007 3.306-2.074 4.894-3.09.798-.503 1.588-1.007 2.386-1.493.4-.234.807-.477 1.224-.72.208-.122.416-.234.625-.356l.433-.234c3.662-1.294 9.562-5.46 12.964-7.856 4.624-3.637 11.6-5.095 16.286-8.905.209-.026.556-.434.521-.486l4.764-2.657s23.02-13.046 3.297-6.996l.052-.173c-2.733 1.241-4.39 2.118-5.874 3.68-.66-.486-2.161 1.163-2.89 1.302l.026-.087c-1.293 1.415-3.488 1.459-4.755 2.787.026-.087-.043-.287.304-.495-1.059.72-2.49 1.744-2.794 1.415-2.586 1.623-6.386 3.584-7.731 5.164l.052-.173c-.729.963-1.215.781-2.178 1.614-.087-.017-.182 0-.182-.026-.825 1.007-3.037 1.84-3.783 2.5l-.2-.217-2.065 1.267.816-.399c.13.851-1.831.486-3.098 1.805-1.475.738-2.057 3.099-3.731 3.62-.52.729.32-.885-.59-.026-.243-.339.364-.512-.078-.642-.469.381-.946.538-1.45.72-.312.069-.555.113-.884.46l-.044-.347c-.32.477-.72.659-.972.712-.269.06-.399-.018-.685.225-.026-.061-.07-.069-.165-.034-.13-.304.104-.816.304-1.146.19-.373.347-.538.026-.721.147-.191.295-.356.434-.486.034-.13-.096-.139-.217-.182-.061-.017-.113-.043-.14-.096-.008-.026-.017-.052-.017-.086 0-.052.018-.183.044-.295.277.06.217-1.242.486-.669.434-2.213-.616-4.496.113-7.421-.538-.634-.217-2.101-.625-2.578.234-.078.035-2.943.547-1.293.043.138.034.39-.061.373l.32.199c.6-1.666-.329-3.029-.233-4.669-.105.486-.079 1.137-.295.703l.043-1.528.269.321.156-2.283-.33.313c.174-1.12.738-1.511.26-2.769-.26-.573-.442 1.059-.546-.122.226-1.493.564-3.723.668-5.633-.373.182-.356-.338-.434-.859l.321-.061c-.45-2.022.712-.738.356-2.743l.226.174-.677-.53c-.642-1.805.668-.972-.208-2.986.052.799-.712.374-.573-.607l.312.251c-.07-.538-.2-.72-.13-1.085.165.322.451.174.4-.624l.39.538-.573-1.502c.339-1.163-.087-3.003.356-3.481 0 0 .217-2.499-.27-3.072.305.503.417-.877.764-.486-.338-.651-.616-2.561-.251-3.325l.043.148c.044-.426.07-.348.078-.391a.123.123 0 0 0 .009-.095c-.009-.07-.052-.157-.104-.278-.104-.226-.226-.625-.148-.712.07.061.148.148.235.26-.321-.616.095-.138-.243-.894.13-.06.355.07.546.235.191.165.339.356.452.486.06.069.104.121.156.156l.043.026.139.07c.095.043.182.078.278.112.364.122.728.113 1.119-.086 1.076.529 1.05 1.007 1.553 1.388l-.286-.078c2.004 1.016 2.568 1.328 3.991 2.188.79.286 1.25-.243 2.456.642-.556 0 0 .26.477.538-.33-.139-.477-.104.07.417.13-.026.294.008.442.052-.009.017.008.052-.017.069.85.382.754.226.399-.026.043-.026.034-.087-.044-.225.66.789 2.343 1.328 2.204 1.788 2.473 1.302 4.451 1.883 6.551 2.881.104.339-.477.252-1.102 0l1.475.747c-.19.295-.92-.304-1.397-.495 1.423 1.476 3.792 1.536 5.528 3.134h.555l.095.104c.07-.13.617-.044.929.087.13.425-.373.598.625 1.145.633.703 2.29 1.155 3.392 1.606-.529-.364-.26-.408.026-.364.495.277.634.703 1.076.807l-.156.382c0-.452 1.501.382 1.762.347.13.425-.894-.217-1.137-.087l2.993 1.667c1.215.338 0-.443.686-.469.972.469 2.022.746 2.976 1.58l-.156-.512c1.891.763 2.924 1.406 3.913 2.413 14.534 4.973 4.772-1.919 4.772-1.919-4.676-3.663-7.86-4.279-14.117-7.56zM38.55 81.64l.217.114c-.009-.061-.07-.113-.217-.113zm49.814-4.418c.018-.008.035-.017.044-.034-.035.017-.044.026-.044.034zm-41.562 8.203h-.009c-.017.017-.035.026-.043.043l.052-.043z"/><path d="M36.894 86.475c2.612-.225 3.392.33 6.03-.33 1.285-.12 2.63-.477 3.87-.72.53-.599 1.64-.217 2.29-.746l.313.26c.226-.182.495-.321.764-.19l-.009.086c.339-.278.764-.191.929-.321l-.01.087.435-.087-.052.13a3.467 3.467 0 0 1 1.84-.365l-.087-.355c1.275.26 1.64-.547 2.802-.183l-.009.087c1.302-1.102 2.282.417 3.645-.642-.174.13.095.182.086.269.66-.165 1.363-.287 1.31-.998.487-.035.417.182.504.451-.035-.313.382-.477.755-.538l-.165.139 1.085-.209-.27-.572c.59.112.209.703.756.512l-.053-.486c.807.026 1.345.729 2.144 1.024 3.228-.061 6.603-1.545 9.657-.85l.156.364c.087.53.781-.842.92-.356l.338-.27c.105.088.313.183.148.313.321 0 .33-.087.547-.26l.364.321c1.284.2 2.334-.495 3.68-.425 1.63.625 4.633-.122 6.377-.512 2.447-.868 5.327 1.24 7.826.312.078.078.295-.096.295-.156l2.3.078s.616.009 1.457-.026l-1.405-4.158c-2.074 1.78-5.614 5.39 1.622 4.088l.026.13c.452-.208.833-.407 1.137-.624l5.206-3.637-6.55-.339a2.593 2.593 0 0 0-1.667.443c-.139-.72-1.05-.078-1.345-.313l.026-.06c-.772.555-1.605-.47-2.351.043.026-.06.043-.26.217-.269-.547.096-1.293.27-1.337-.156-1.301.121-3.132-.052-3.948.642l.053-.121c-.469.46-.617.078-1.137.32-.026-.051-.07-.077-.06-.103-.504.46-1.51.104-1.927.303l-.035-.277-1.032.095.39.044c-.113.772-.798-.452-1.527.069-.703-.07-1.362 1.64-2.1 1.293-.33.373.278-.59-.226-.304-.034-.399.235-.26.087-.573-.503.209-.85-.373-1.466-.078l-.035-.312c-.79.608-1.562-.339-2.082.226-.833.295-.616-.903-1.458-.243l-.347-.365c-.382-.043-.243.53-.668.356.008-.27-.538-.182-.313-.451-.972-.356-1.883.694-3.167.069-.234.538-.885.27-1.058.668-.052-.225-1.259.052-.59-.486.06-.043.165-.043.165.044l.06-.313c-.746-.53-1.267.408-1.978.365.217.087.486.043.32.26h-.65l.113-.269-.98-.078.156.304c-.486-.122-.695-.651-1.198-.156-.225.269.486.39-.008.529-.651-.165-1.632-.417-2.447-.443.104.356-.113.356-.33.452l-.052-.313c-.824.504-.373-.66-1.197-.234l.052-.226-.165.668c-.712.686-.478-.607-1.25.313.33-.087.226.668-.208.573l.078-.313c-.226.087-.286.217-.451.174.121-.174.034-.443-.304-.365l.191-.399-.59.608c-.53-.278-1.267.2-1.51-.2 0 0-1.084-.095-1.275.39.182-.312-.417-.355-.278-.711-.243.356-1.024.703-1.388.39l.06-.043c-1.24-.234-2.004.712-3.132.408.087.356-.503.226-.304.668-1.058.582-2.143-.703-2.368.773-.495.139-.642-.252-.911-.295l.112-.087c-.937.234-1.206.287-1.917.347-.33.182-.304.85-.955.773.165-.287-.078-.209-.32-.174.147-.06.181-.165-.157-.295a.486.486 0 0 1-.148.191.125.125 0 0 1-.017-.06c-.382.147-.304.216-.113.234 0 .043.018.086.087.156-.451-.278-1.128.182-1.24-.26-1.163.268-1.944.85-2.899 1.163-.147-.217.052-.452.33-.582l-.686.182c-.043-.338.374-.251.573-.347-.91-.425-1.631.79-2.672.443l-.165.295-.061-.035c.026.139-.165.365-.304.425-.182-.269-.095-.668-.572-.581-.425-.217-1.059.304-1.528.538.278.009.217.182.113.304-.234.078-.416-.191-.581-.035l-.087-.39c.156.355-.564.503-.624.677-.183-.27.33-.313.355-.539-.954.191-.477.096-1.431.296-.46.373.156.347-.035.729-.443.147-.833.494-1.389.347l.226.321c-.807.408-1.31.46-1.944.208-2.906 1.962-3.045 2.986-2.49 3.507.564.538 1.84.573 1.84.573 2.585.321 3.679-.894 6.577-1.64zm20.13 12.213.113.14c-.008-.07-.035-.122-.113-.14zm26.769-1.606a.111.111 0 0 0 .026-.034c-.017.008-.026.026-.026.034zm-22.378 6.276-.035.035.035-.035z"/><path d="M56 103.28c1.424.095 1.84.755 3.298.391.703.017 1.44-.183 2.117-.304.295-.547.902-.061 1.258-.53l.165.295c.121-.156.269-.269.416-.112v.086c.183-.243.417-.112.504-.234v.087l.234-.052-.035.13c.33-.26.686-.295 1.007-.208l-.043-.365c.694.365.893-.399 1.527.043v.087c.711-1.007 1.25.582 1.978-.373-.096.122.052.182.052.269.356-.121.738-.2.703-.92.269-.009.225.208.278.486-.018-.312.2-.46.407-.486l-.086.13.58-.139-.147-.581c.322.147.122.712.417.555l-.035-.486c.443.07.738.799 1.18 1.137 1.762.104 3.558-1.25 5.232-.486l.096.365c.06.538.4-.825.495-.33l.173-.26c.06.095.174.19.087.312.173.009.173-.078.295-.243l.208.321c.703.217 1.25-.46 1.987-.373.911.634 2.516-.087 3.436-.512 1.284-.877 2.95 1.172 4.26.173.053.07.157-.104.148-.165h1.25s6.047-.147 1.206-4.33l.026-.122c-.695-.243-1.128-.287-1.562.33-.113-.721-.564-.044-.738-.27l.009-.06c-.382.581-.885-.408-1.258.112.008-.06.008-.26.104-.277-.286.104-.677.295-.72-.13-.694.147-1.675.008-2.083.711l.026-.121c-.225.468-.33.087-.598.33-.018-.052-.044-.079-.035-.105-.252.46-.807.113-1.015.322l-.035-.278-.547.095.209.044c-.026.772-.443-.46-.816.06-.382-.078-.668 1.641-1.076 1.285-.165.373.13-.59-.13-.304-.035-.399.113-.26.026-.573-.26.209-.469-.381-.79-.095l-.034-.313c-.408.59-.85-.364-1.111.2-.434.287-.356-.903-.79-.269l-.208-.408c-.208-.052-.113.52-.347.33 0-.27-.295-.191-.182-.451-.53-.382-.99.65-1.7-.018-.114.521-.47.234-.556.634-.035-.226-.677 0-.33-.504.026-.043.087-.034.087.052l.026-.312c-.417-.556-.668.356-1.05.286.121.096.26.061.174.278l-.348-.017.061-.26-.53-.122.088.312c-.26-.147-.382-.685-.642-.217-.113.26.269.417 0 .53-.356-.2-.885-.495-1.32-.564.061.356-.051.347-.173.434l-.035-.313c-.433.46-.208-.677-.642-.304l.026-.217-.087.66c-.373.642-.26-.634-.668.234.183-.06.122.686-.104.556l.044-.304c-.122.07-.156.2-.243.139.06-.165.017-.443-.165-.382l.104-.382-.312.573c-.287-.304-.677.122-.816-.295 0 0-.581-.174-.685.295.095-.295-.226-.39-.157-.73-.13.34-.546.626-.746.287l.035-.043c-.668-.321-1.076.547-1.683.156.043.365-.27.183-.165.642-.573.495-1.146-.876-1.285.565-.269.095-.338-.313-.486-.382l.061-.078c-.503.147-.65.165-1.032.156-.183.147-.174.816-.52.677.095-.27-.044-.217-.166-.208.078-.044.096-.148-.078-.313a.396.396 0 0 1-.087.182c0-.017-.008-.034-.008-.06-.209.104-.165.182-.061.217 0 .043.009.095.043.165-.243-.33-.616.06-.668-.391-.633.139-1.058.634-1.579.842a.488.488 0 0 1 .19-.547l-.372.104c-.018-.338.208-.208.32-.278-.476-.52-.893.6-1.448.13l-.096.27-.034-.044c.008.14-.096.339-.174.391-.095-.286-.035-.677-.295-.642-.225-.27-.573.173-.833.347.148.043.113.208.052.312-.13.018-.225-.269-.312-.139l-.035-.39c.07.373-.312.425-.356.581-.086-.286.191-.26.209-.486l-.781.105c-.26.312.07.373-.044.72-.243.095-.468.382-.763.156l.112.347c-.442.296-.72.278-1.058-.06-3.271 3.055-.495 3.94-.495 3.94 1.38.729 2.022-.329 3.619-.694z"/></g><path d="m207.835 48.538-.242-.009c.052.052.121.07.242.009zm-4.121-20.086c.017-.008.035-.008.052-.017-.035 0-.043.009-.052.017zm-2.742 17.482c.017-.017.017-.026.026-.043l-.026.043z" fill="#202020"/><path d="M205.857 43.946c-.555.495-1.058.625-1.501.738-.451.13-.85.252-1.432.642-.624.2-1.275.495-1.943.608-.148.287-.382.304-.616.27-.235-.018-.469-.053-.703.138l-.104-.33c-.156.139-.339.217-.434.009l.026-.087c-.243.174-.434 0-.564.07l.035-.087-.243-.052.086-.105c-.416.14-.763-.034-.997-.269l-.157.348c-.199-.374-.46-.4-.694-.486-.225-.087-.494-.148-.555-.565l.069-.06c-.642.112-.763-.296-.841-.643-.061-.382-.113-.694-.721-.824.157.026.139-.14.226-.183-.312-.26-.495-.625-1.197-.32-.131-.287.112-.322.364-.47-.304.13-.512-.078-.616-.295l.156.061c-.13-.2-.208-.417-.303-.625l-.556.286c.07-.425.703-.277.469-.59l-.495.105c.017-.565.72-.973 1.093-1.424.079-.92-.043-1.901.148-2.908.173-.99.703-1.962 1.657-2.3l.321.208c.399.373-.217-.911.183-.59l-.009-.339c.113.044.277.053.269.209.165-.096.113-.165.121-.39l.365.156c.729-.157.98-1.033 1.805-1.164.564.226 1.162.07 1.839-.052.338-.104.686-.13 1.024-.234.33-.035.668-.139.946-.148.859-.251 1.588.443 2.073 1.137.512.712.816 1.39 1.64 1.632-.026.078.183.078.235.035.26.373.486.773.677 1.18-.018.01.199.356.416.851.26.486.486 1.111.824 1.623.295.504.72.929 1.345.834.313-.053.677-.243 1.085-.695a3.66 3.66 0 0 0 .616-.885c.208-.373.399-.834.538-1.398l.13.026c-.009-1.25-.338-2.057-1.241-2.5.582-.477-.434-.894-.399-1.25l.07-.008c-.46-.13-.573-.503-.721-.877-.156-.364-.312-.755-.755-.824.061-.018.226-.165.347-.052-.451-.313-1.093-.66-.85-1.016-.277-.174-.564-.382-.868-.59a12.671 12.671 0 0 0-.954-.538c-.659-.287-1.302-.46-1.805-.26l.096-.096c-.59.295-.564-.156-1.128-.052-.009-.061-.035-.096-.026-.122-.573.304-1.397-.226-1.814-.078l.009-.295c-.321-.009-.651.009-.972.009l.356.078c-.087.39-.252.26-.495.086-.243-.173-.59-.338-.92-.06-.329-.044-.616.425-.867.842-.252.416-.46.798-.799.694-.19.434.105-.65-.251-.26-.122-.4.139-.304-.061-.6-.382.296-.859-.199-1.31.27l-.139-.295c-.252.39-.599.477-.946.512-.347.035-.668.104-.737.477-.512.625-.998-.512-1.311.504l-.537-.14c-.33.2.156.582-.287.695-.165-.217-.529.191-.538-.165-.494.174-.711.66-.954 1.12-.226.486-.486.946-1.111 1.302.312.495-.26.885.026 1.25-.234-.078-.538 1.102-.729.26-.008-.07.044-.165.122-.121l-.252-.209c-.442.2-.477.573-.451.93.017.364.113.728-.009 1.058.156-.173.2-.451.365-.208l-.2.616-.226-.2a7.26 7.26 0 0 0-.355.938l.347-.078c-.234.434-.851.547-.417 1.146.252.26.469-.408.547.095-.278.59-.616 1.554-.616 2.404.364-.121.373.105.486.313l-.321.07c.59.78-.677.45-.113 1.258L188 42.6l.712.06c.806.565-.538.626.581 1.155-.165-.295.616-.39.625.026l-.33.017c.139.183.278.209.286.365-.208-.052-.451.113-.251.4l-.452-.044c.269.122.538.234.799.339-.096.607.703 1.041.425 1.458 0 0 .113.251.295.486.182.234.434.46.703.4-.373.025-.07.546-.443.65.451 0 1.189.4 1.206.877l-.078-.009c.33.573.842.799 1.328 1.007.477.217.963.356 1.327.833.13-.356.556.078.642-.408.59.035.938.434 1.293.686.347.26.686.338 1.059-.339.477.035.468.495.703.608l-.13.06c.937.027 1.197.062 1.874.114.347-.13.399-.799.972-.669-.174.287.06.226.277.209-.139.052-.182.156.13.32.035-.086.096-.138.148-.19a.132.132 0 0 1 .017.07c.365-.131.287-.218.113-.226 0-.044-.017-.096-.078-.165.416.303 1.033-.174 1.171.277 1.094-.356 1.692-1.067 2.395-1.614.191.174.104.46-.104.66l.555-.365c.157.313-.251.347-.407.495.468.078.815-.209 1.093-.564.295-.348.573-.686 1.084-.764l-.017-.33h.07c-.087-.113-.053-.39.017-.503.286.147.442.546.772.225.234-.017.408-.217.538-.468.122-.27.2-.582.295-.808-.208.157-.278-.026-.286-.173.139-.165.46-.07.46-.287l.338.234c-.356-.173.017-.72-.069-.885.321.07.008.425.156.608.512-.755.26-.373.711-1.163-.026-.564-.381-.122-.572-.495.138-.39.026-.86.442-1.163l-.39-.018c.008-.772.182-1.12.65-1.51-.39-1.493-1.067-2.144-1.553-2.456-.503-.304-.928-.304-1.249-.113a1.92 1.92 0 0 0-.729.555c-.078.096-.139.174-.191.235l-.069.095c-.469.573-.573.972-.564 1.528-.044.59-.018 1.276-.443 2.022zm27.107 4.592-.243-.009c.043.052.121.07.243.009zm-4.122-20.086c.018-.008.035-.008.052-.017-.034 0-.052.009-.052.017zM226.1 45.934c.018-.017.018-.026.026-.043l-.026.043z" fill="#202020"/><path d="M230.986 43.946c-.556.495-1.059.625-1.502.738-.451.13-.85.252-1.431.642-.625.2-1.276.495-1.944.608-.147.287-.382.304-.616.27-.234-.018-.468-.053-.703.138l-.104-.33c-.156.139-.338.217-.434.009l.026-.087c-.243.174-.434 0-.564.07l.035-.087-.243-.052.087-.105c-.417.14-.764-.034-.998-.269l-.156.348c-.2-.374-.46-.4-.694-.486-.226-.087-.495-.148-.556-.565l.07-.06c-.642.112-.764-.296-.842-.643-.061-.382-.113-.694-.72-.824.156.026.139-.14.225-.183-.312-.26-.494-.625-1.197-.32-.13-.287.113-.322.364-.47-.303.13-.511-.078-.616-.295l.157.061c-.131-.2-.209-.417-.304-.625l-.555.286c.069-.425.702-.277.468-.59l-.494.105c.017-.565.72-.973 1.093-1.424.078-.92-.044-1.901.147-2.908.174-.99.703-1.962 1.658-2.3l.321.208c.399.373-.217-.911.182-.59l-.009-.339c.113.044.278.053.269.209.165-.096.113-.165.122-.39l.364.156c.729-.157.981-1.033 1.805-1.164.564.226 1.163.07 1.839-.052.339-.104.686-.13 1.024-.234.33-.035.668-.139.946-.148.859-.251 1.588.443 2.074 1.137.512.712.816 1.39 1.64 1.632-.026.078.182.078.234.035.26.373.486.773.677 1.18-.017.01.199.356.416.851.261.486.486 1.111.825 1.623.295.504.72.929 1.345.834.312-.053.676-.243 1.084-.695a3.66 3.66 0 0 0 .616-.885c.209-.373.399-.834.538-1.398l.13.026c-.008-1.25-.338-2.057-1.24-2.5.581-.477-.434-.894-.399-1.25l.069-.008c-.46-.13-.573-.503-.72-.877-.156-.364-.313-.755-.755-.824.061-.018.225-.165.347-.052-.451-.313-1.093-.66-.85-1.016-.278-.174-.564-.382-.868-.59a12.892 12.892 0 0 0-.955-.538c-.659-.287-1.301-.46-1.804-.26l.095-.096c-.59.295-.564-.156-1.128-.052-.009-.061-.035-.096-.026-.122-.573.304-1.397-.226-1.813-.078l.008-.295c-.321-.009-.651.009-.972.009l.356.078c-.087.39-.251.26-.494.086-.243-.173-.59-.338-.92-.06-.33-.044-.616.425-.868.842-.252.416-.46.798-.798.694-.191.434.104-.65-.252-.26-.121-.4.139-.304-.061-.6-.381.296-.859-.199-1.31.27l-.139-.295c-.251.39-.598.477-.945.512-.347.035-.668.104-.738.477-.512.625-.998-.512-1.31.504l-.538-.14c-.33.2.156.582-.286.695-.165-.217-.53.191-.538-.165-.495.174-.712.66-.955 1.12-.225.486-.486.946-1.111 1.302.313.495-.26.885.027 1.25-.235-.078-.538 1.102-.729.26-.009-.07.043-.165.121-.121l-.252-.209c-.442.2-.477.573-.451.93.018.364.113.728-.008 1.058.156-.173.199-.451.364-.208l-.2.616-.225-.2c-.139.304-.26.617-.356.938l.347-.078c-.234.434-.85.547-.416 1.146.251.26.468-.408.546.095-.277.59-.616 1.554-.616 2.404.365-.121.373.105.486.313l-.321.07c.59.78-.677.45-.113 1.258l-.243-.026.712.06c.807.565-.538.626.581 1.155-.165-.295.616-.39.625.026l-.33.017c.139.183.278.209.287.365-.209-.052-.452.113-.252.4l-.451-.044c.269.122.538.234.798.339-.095.607.703 1.041.425 1.458 0 0 .113.251.295.486.182.234.434.46.703.4-.373.025-.069.546-.442.65.451 0 1.188.4 1.206.877l-.078-.009c.329.573.841.799 1.327 1.007.477.217.963.356 1.328.833.13-.356.555.078.642-.408.59.035.937.434 1.293.686.347.26.685.338 1.058-.339.477.035.469.495.703.608l-.13.06c.937.027 1.197.062 1.874.114.347-.13.399-.799.972-.669-.174.287.061.226.278.209-.139.052-.183.156.13.32.034-.086.095-.138.147-.19a.131.131 0 0 1 .018.07c.364-.131.286-.218.112-.226 0-.044-.017-.096-.078-.165.417.303 1.033-.174 1.172.277 1.093-.356 1.692-1.067 2.395-1.614.19.174.104.46-.105.66l.556-.365c.156.313-.252.347-.408.495.469.078.816-.209 1.093-.564.295-.348.573-.686 1.085-.764l-.017-.33h.069c-.087-.113-.052-.39.017-.503.287.147.443.546.773.225.234-.017.407-.217.538-.468.121-.27.199-.582.295-.808-.209.157-.278-.026-.287-.173.139-.165.46-.07.46-.287l.338.234c-.355-.173.018-.72-.069-.885.321.07.009.425.156.608.512-.755.261-.373.712-1.163-.026-.564-.382-.122-.573-.495.139-.39.026-.86.443-1.163l-.391-.018c.009-.772.182-1.12.651-1.51-.391-1.493-1.067-2.144-1.553-2.456-.504-.304-.929-.304-1.25-.113a1.936 1.936 0 0 0-.729.555c-.078.096-.138.174-.191.235l-.069.095c-.468.573-.573.972-.564 1.528-.052.59-.017 1.276-.442 2.022zm27.098 4.592-.243-.009c.052.052.121.07.243.009zm-4.122-20.086c.017-.008.035-.008.052-.017-.035 0-.043.009-.052.017zm-2.742 17.482c.017-.017.017-.026.026-.043l-.026.043z" fill="#202020"/><path d="M256.105 43.946c-.555.495-1.058.625-1.501.738-.451.13-.85.252-1.432.642-.624.2-1.275.495-1.943.608-.148.287-.382.304-.616.27-.235-.018-.469-.053-.703.138l-.104-.33c-.156.139-.339.217-.434.009l.026-.087c-.243.174-.434 0-.564.07l.035-.087-.243-.052.086-.105c-.416.14-.763-.034-.997-.269l-.157.348c-.199-.374-.459-.4-.694-.486-.225-.087-.494-.148-.555-.565l.069-.06c-.642.112-.763-.296-.841-.643-.061-.382-.113-.694-.72-.824.156.026.138-.14.225-.183-.312-.26-.494-.625-1.197-.32-.13-.287.112-.322.364-.47-.304.13-.512-.078-.616-.295l.156.061c-.13-.2-.208-.417-.303-.625l-.556.286c.07-.425.703-.277.469-.59l-.495.105c.018-.565.72-.973 1.093-1.424.079-.92-.043-1.901.148-2.908.174-.99.703-1.962 1.657-2.3l.321.208c.399.373-.217-.911.183-.59l-.009-.339c.113.044.278.053.269.209.165-.096.113-.165.121-.39l.365.156c.729-.157.98-1.033 1.805-1.164.564.226 1.162.07 1.839-.052.338-.104.686-.13 1.024-.234.33-.035.668-.139.946-.148.85-.251 1.588.443 2.074 1.137.511.712.815 1.39 1.639 1.632-.026.078.183.078.235.035.26.373.486.773.677 1.18-.018.01.199.356.416.851.26.486.486 1.111.824 1.623.295.504.721.929 1.345.834.313-.053.677-.243 1.085-.695a3.66 3.66 0 0 0 .616-.885c.208-.373.399-.834.538-1.398l.13.026c-.009-1.25-.338-2.057-1.241-2.5.582-.477-.434-.894-.399-1.25l.07-.008c-.46-.13-.573-.503-.721-.877-.156-.364-.312-.755-.755-.824.061-.018.226-.165.348-.052-.452-.313-1.094-.66-.851-1.016-.277-.174-.564-.382-.867-.59a12.892 12.892 0 0 0-.955-.538c-.659-.287-1.301-.46-1.805-.26l.096-.096c-.59.295-.564-.156-1.128-.052-.009-.061-.035-.096-.026-.122-.573.304-1.397-.226-1.814-.078l.009-.295c-.321-.009-.651.009-.972.009l.356.078c-.087.39-.252.26-.495.086-.243-.173-.59-.338-.92-.06-.329-.044-.616.425-.867.842-.252.416-.46.798-.799.694-.19.434.105-.65-.251-.26-.122-.4.139-.304-.061-.6-.382.296-.859-.199-1.31.27l-.139-.295c-.252.39-.599.477-.946.512-.347.035-.668.104-.737.477-.512.625-.998-.512-1.31.504l-.538-.14c-.33.2.156.582-.287.695-.165-.217-.529.191-.538-.165-.494.174-.711.66-.954 1.12-.226.486-.486.946-1.111 1.302.313.495-.26.885.026 1.25-.234-.078-.538 1.102-.729.26-.008-.07.044-.165.122-.121l-.252-.209c-.442.2-.477.573-.451.93.017.364.113.728-.009 1.058.156-.173.2-.451.365-.208l-.2.616-.225-.2a7.094 7.094 0 0 0-.356.938l.347-.078c-.234.434-.85.547-.417 1.146.252.26.469-.408.547.095-.278.59-.616 1.554-.616 2.404.364-.121.373.105.486.313l-.321.07c.59.78-.677.45-.113 1.258l-.243-.026.712.06c.807.565-.538.626.581 1.155-.165-.295.616-.39.625.026l-.33.017c.139.183.278.209.286.365-.208-.052-.451.113-.251.4l-.452-.044c.269.122.538.234.799.339-.096.607.703 1.041.425 1.458 0 0 .113.251.295.486.182.234.434.46.703.4-.373.025-.07.546-.443.65.451 0 1.189.4 1.206.877l-.078-.009c.33.573.842.799 1.328 1.007.477.217.963.356 1.327.833.131-.356.556.078.642-.408.59.035.938.434 1.293.686.347.26.686.338 1.059-.339.477.035.468.495.703.608l-.13.06c.937.027 1.197.062 1.874.114.347-.13.399-.799.972-.669-.174.287.06.226.277.209-.139.052-.182.156.13.32.035-.086.096-.138.148-.19a.132.132 0 0 1 .017.07c.365-.131.287-.218.113-.226 0-.044-.017-.096-.078-.165.417.303 1.033-.174 1.171.277 1.094-.356 1.692-1.067 2.395-1.614.191.174.104.46-.104.66l.555-.365c.157.313-.251.347-.407.495.468.078.815-.209 1.093-.564.295-.348.573-.686 1.085-.764l-.018-.33h.07c-.087-.113-.052-.39.017-.503.286.147.442.546.772.225.234-.017.408-.217.538-.468.122-.27.2-.582.295-.808-.208.157-.277-.026-.286-.173.139-.165.46-.07.46-.287l.338.234c-.356-.173.017-.72-.069-.885.321.07.008.425.156.608.512-.755.26-.373.711-1.163-.026-.564-.381-.122-.572-.495.139-.39.026-.86.442-1.163l-.39-.018c.008-.772.182-1.12.651-1.51-.391-1.493-1.068-2.144-1.554-2.456-.503-.304-.928-.304-1.249-.113a1.92 1.92 0 0 0-.729.555c-.078.096-.139.174-.191.235l-.069.095c-.469.573-.573.972-.564 1.528-.044.59-.018 1.276-.443 2.022z" fill="#202020"/><path d="m390.066 69.862-22.443 32.494c-1.094 1.957-3.228 3.069-4.879 3.422-2.069.45-4.278.268-6.283-1.026l-33.445-20.483c-3.56-2.47-5.104-7.53-2.498-11.562 2.477-3.55 5.643-2.349 9.482.293l26 13.5 20.619-25.857c2.177-3.936 11.353-5.91 14.881-3.643 3.592 2.706.796 9.151-1.434 12.862z" fill="#fff"/><g clip-path="url(#b)" fill="#202020"><path d="m329.238 76.146-.389-.378c-.038.093.055.203.389.378zm54.488-17.254c-.024.02-.063.041-.084.074.063-.04.087-.06.084-.074zm-63.345 25.446-.019-.025-.14-.057.159.082z"/><path d="M337.505 74.124c-3.204-1.78-5.107-3.038-7.36-4.196a24.337 24.337 0 0 0-3.718-1.578c-.184-.063-.365-.112-.548-.175l-.287-.085-.493-.115a7.71 7.71 0 0 0-2.158-.181 7.823 7.823 0 0 0-4.584 1.784 8.167 8.167 0 0 0-2.876 4.206c-.501 1.695-.425 3.573.259 5.216a8 8 0 0 0 1.355 2.221l.406.46.262.247.526.493c.69.673 1.388 1.317 2.075 1.906 1.684.731 3.579 3.158 5.496 3.985l.383.778c.668.279 1.385.662 1.815 1.246l-.101.063c.98.416 1.834 1.2 2.33 1.4l-.101.062 1.035.69-.258-.005c1.637.783 3.154 1.819 4.447 2.8l.126-.439c2.625 2.309 4.192 2.167 6.563 4.27l-.085.074c3.978.956 5.029 3.793 9.175 4.659-.52-.11.088.296.005.383 1.728.737 3.579 1.521 3.979.743 1.229.594.895.704.917 1.098.159-.345 1.293-.016 2.287.398l-.512-.069c.922.343 2.031.833 3.485.984a5.065 5.065 0 0 1-.64-.855c.944.31 1.136.485 1.259.674.132.159.271.359 1.413.088l-.145-.583c1.503-.244 2.566-.698 3.582-1.101a14.511 14.511 0 0 0 2.851-1.552c3.204-3.203 6.006-6.995 8.608-10.79 2.615-3.798 5.017-7.595 7.63-10.908l.581-.088c.649.184.359-2.478 1.03-2.47l.213-.996c.236-.175.63-.624.515-.132.471-.777.386-.846.523-1.514l.822-.662c1.958-3.026 2.583-6.098 4.218-9.458.318-.476.622-1.021.942-1.626.154-.301.305-.616.469-.934a8.952 8.952 0 0 0 .833-4.737 8.483 8.483 0 0 0-1.185-3.579c-.737-1.191-1.829-2.169-3.102-2.698-1.293-.553-2.467-.66-3.502-.638-1.035.022-1.939.202-2.75.421-.761.252-1.476.452-2.105.72-3.487 1.58-7.03 3.441-10.144 5.957-3.122 2.475-5.759 5.451-7.274 8.701-.2.14-.362.756-.299.786l-3.481 5.238s-1.043 1.547-2.402 3.584c-1.372 2.04-3.095 4.676-4.185 6.845-1.087 2.182-1.553 3.841-.718 3.888.865.055 2.944-1.514 7.394-5.393l.028.208c2.273-2.59 3.637-4.386 4.349-6.807.958.165 1.643-2.393 2.287-2.877l.019.095c.545-2.116 2.785-3.233 3.429-5.142.006.1.184.277-.071.641.739-1.215 1.783-2.834 2.246-2.584.988-1.323 2.33-2.73 3.612-3.94 1.262-1.235 2.478-2.204 3.133-3.061l-.047.194c.715-1.054 1.241-.774 2.284-1.538.093.038.181.05.187.076.476-.465 1.339-.78 2.204-.938.857-.2 1.599-.192 2.035-.293l.054.345c.668-.006 1.216.099 1.553.288a1.542 1.542 0 0 0-.438-.269c.244-.419.523-.161.709.2.107.178.167.408.246.592.082.197.186.361.436.61.128.573.668 1.134.996 1.994.156.424.249.89.213 1.353a2.829 2.829 0 0 1-.498 1.352c.049 1.03-.334-1.03-.564.384-.471-.148-.03-.72-.534-.534-.299 1.355-1.339 1.848-1.72 3.504l-.375-.096c-.286 2.279-2.208 3.489-2.277 5.069-.769 2.133-1.689.807-2.15 3.206l-.89.534c-.561.824.203.942-.572 1.766-.244-.222-.94 1.07-.868.358-1.69 1.876-2.036 4.707-4.607 6.944.117.945-1.134 2.092-1.08 2.793-.273-.088-2.004 2.65-1.377.802.055-.153.225-.372.296-.301l-.164-.395c-1.665 1.074-1.718 2.95-2.967 4.324.444-.345.879-.945.775-.397l-1.12 1.306-.024-.48a56.448 56.448 0 0 1-1.781 1.851l.523-.019c-.958.833-1.747.734-2.262 2.147-.191.679 1.186-.55.392.534a259.52 259.52 0 0 1-2.353 1.908c-.879.731-1.717 1.454-2.311 1.829.392.249.046.517-.189.764l-.233-.31c-.356.499-.446.26-.542.066-.098-.208-.071-.427-.219-.241.025-.09.052-.167.063-.255a2.12 2.12 0 0 1-.29.756c-.592.246-.857-.085-1.002-.312-.176-.236-.411-.488-1.649-.482.843.301.047.944-.901.336l.411-.224c-.591-.181-.835-.118-1.169-.365.408-.024.402-.408-.444-.723l.737-.161-1.816-.107c-1.01-.923-3.085-1.405-3.329-2.126 0 0-2.371-1.533-3.204-1.353.663-.032-.635-.898-.038-1.046-.838.011-2.878-.791-3.406-1.583l.164.038c-2.519-1.988-5.002-2.303-7.113-4.316-.126.438-1.27-.586-1.265.082-2.801-1.192-3.778-4.015-5.673-3.238-1.131-.742-1.027-1.29-1.525-1.788l.309.123c-2.067-1.438-2.667-1.873-4.041-3.122-.808-.48-1.484.055-2.568-1.238.61.134.071-.285-.384-.707.332.233.501.228.047-.479-.156.003-.329-.076-.474-.161.011-.017.003-.058.041-.08-.799-.652-.744-.449-.443-.082-.052.025-.069.085-.019.26-.233-.523-.767-1.057-1.197-1.498a1.53 1.53 0 0 1-.252-.405.3.3 0 0 1 .14-.299c-.397-.561-.501-1.224-.32-1.958.216-.698.739-1.358 1.594-1.571.211.271-.154.515-.444.772.268-.153.586-.203.907-.238-.031.205-.146.271-.302.274-.145.057-.337.024-.443.131.282.058.482.132.717.099.137.044.2.002.444.01.279.045.542.078.821.121 1.117.176 2.322.433 3.36 1.209l.61-.08.121.104c.068-.156.685-.137 1.049-.024.18.476-.381.73.794 1.265.763.759 2.675 1.131 3.962 1.586-.619-.389-.321-.463.016-.416.586.296.753.775 1.26.887l-.165.46c-.019-.523 1.725.367 2.029.32.156.496-1.04-.218-1.306-.051 2.308 1.218 1.147.61 3.456 1.83 1.396.361.008-.53.799-.56 1.117.532 2.333.845 3.395 1.814l-.161-.594c2.174.904 3.329 1.698 4.397 2.909 4.085 1.632 6.424 2.575 7.733 2.925 1.319.334 1.547-.095 1.336-.794-.26-.73-1.098-1.788-1.853-2.577-.759-.802-1.46-1.388-1.46-1.388-2.686-2.468-5.018-3.81-7.562-5.067-2.544-1.257-5.317-2.383-9.063-4.17zm2.708-35.255h-.997c.03.08.293.112.997 0zm68.188 56.996c.014-.074.011-.158.025-.232-.039.164-.042.221-.025.232zM301.8 39.882l.055-.011c.079-.03.172-.063.238-.09l-.293.1z"/><path d="M350.874 31.299c-12.895 2.164-16.449 1.977-29.716 4.771-6.373 1.103-13.117 2.55-19.303 3.8-.356.143-.742.277-1.172.406-.474.123-.972.265-1.501.4-1.221.3-2.503.798-3.74 1.445-2.479 1.278-4.59 3.466-5.505 5.585-.375.473-.811.93-1.134 1.451-.493 1.594-.778 3.445-1.022 5.074l-.093-.11c.052.616.106 1.246.186 1.857.101.578.199 1.284.284 1.637.167.836.298 1.564.443 2.005l-.125-.06.448 2.174-.213-.356c.87 3.072 1.486 6.295 1.874 9.165l.392-.32c.634 6.166 1.956 8.223 2.391 13.817l-.126-.06c.608 1.687.985 3.22 1.262 4.675.265 1.47.396 2.84.664 4.323.236 1.463.49 2.95.857 4.5a33.05 33.05 0 0 0 2.058 4.814c-.441-.852-.077.471-.197.438 1.522 3.198 3.208 6.578 4.076 6.148 1.276 2.18.824 1.914.701 2.366.164-.104.559.301 1.04.931.25.32.51.696.775 1.098.304.381.613.789.917 1.17l-.657-.652c1.167 1.49 2.284 3.018 3.499 4.469a13.923 13.923 0 0 1-.134-1.311c1.725 2.431-.197 1.15 1.834 3.193l.414-.425a26.62 26.62 0 0 1 1.73 2.246 57.043 57.043 0 0 1 1.563 1.98c1.016 1.306 1.928 2.733 3.466 4.091 6.593 5.347 14.81 9.058 23.184 10.916 8.398 1.91 16.886 1.993 24.702 1.2l.761.389c.46.663 4.044-1.919 4.751-1.448l1.692-.722c.515-.061 1.58-.288.756.148 1.616-.537 1.621-.652 2.7-1.238l1.865-.216c1.588-.531 3.034-1.275 4.48-1.949 1.451-.646 2.755-1.533 4.064-2.392 1.309-.86 2.664-1.7 3.908-2.746 1.26-1.035 2.659-1.941 3.995-3.091 3.492-2.407 7.871-6.784 11.292-11.967 3.372-5.216 5.736-11.057 6.985-15.421 1.554-6.191 3.134-12.886 3.47-19.902l.058-2.631c.024-.874.046-1.76-.055-2.623a165.496 165.496 0 0 0-.514-5.209c-.522-3.256-1.157-6.432-2.006-9.466.017-.416-.383-1.419-.451-1.405l-1.992-11.32s-.654-3.415-1.508-7.9c-.224-1.123-.459-2.3-.717-3.516-.057-.288-.12-.603-.229-1.008-.104-.378-.167-.764-.323-1.117a14.404 14.404 0 0 0-.945-2.161c-1.522-2.771-4.052-4.815-6.51-5.719-2.468-.945-4.746-.874-6.088-.535-1.38.362-1.875.803-1.435 1.085.438.34 1.914.386 4.198 1.34 1.123.487 2.429 1.251 3.589 2.5a9.206 9.206 0 0 1 2.44 5.08l-.222-.184c.252 1.046.405 2.667.615 3.935.192 1.315.402 2.511.63 3.648.454 2.273.985 4.288 1.724 6.347-.745.833.848 5.1.834 6.597l-.096-.123c1.369 3.642.875 7.87 2.151 11.402-.096-.123-.345-.159-.512-.994.306 1.32.659 2.873.897 4.135.222 1.251.216 2.15-.011 2.295.107.747.224 1.55.342 2.352.134.813.246 1.66.246 2.514.03 1.717.21 3.475.133 5.156-.09 1.684-.137 3.302-.173 4.762-.153 1.44-.227 2.708-.195 3.727l-.087-.296c.227 2.346-.54 2.856-.908 5.364-.104.12-.186.28-.194.238 0 1.282-.66 2.966-1.29 4.587-.337.807-.603 1.615-.948 2.31-.348.682-.625 1.293-.786 1.767l-.362-.028-1.052 2.218c-.334.75-.813 1.416-1.213 2.122l1.033-1.531c.24.493-.381 1.23-1.222 2.224a20.194 20.194 0 0 0-1.348 1.736c-.435.67-1.002 1.325-1.396 2.13-1.068 1.281-1.625 2.987-2.531 4.507-.86 1.538-1.687 3.241-3.218 4.202-.964 1.446.622-1.519-1.027.419-.389-.307.668-1.002-.074-.868-.83.906-1.654 1.484-2.525 2.114-.926.569-1.906 1.149-3.012 2.168l-.318-.236c-1.32 1.517-3.07 2.237-4.541 3.001-1.476.807-2.924 1.254-3.948 2.113-3.528 2.015-2.867.046-6.504 2.154-.567.014-1.117.038-1.673.036-1.731.317-1.074.898-3.04 1.105.044-.35-2.456.32-1.416-.244-1.087.189-2.207.214-3.318.422-1.12.167-2.262.437-3.451.618-2.39.15-5.019.533-7.891-.231-.644.271-1.701.254-2.717.229-1.002-.098-1.96-.263-2.47-.104-.057-.145-1.506-.411-2.533-.633-.517-.096-.892-.263-.95-.337-.049-.104.203-.055 1.049-.096.285.001.772.088.72.184l.452-.304c-1.563-.556-2.99-.926-4.471-1.142-.748-.107-1.498-.228-2.246-.335a14.524 14.524 0 0 1-2.242-.748c.862.469 2.086.893 1.191.83l-2.848-1.139.712-.071c-.687-.304-1.396-.576-2.075-.91l-1.983-1.084.397.632c-1.905-1.2-2.321-1.999-4.69-2.879-1.12-.331 1.522 1.562-.542.422-.603-.449-1.273-.956-1.993-1.495-.731-.523-1.399-1.23-2.152-1.863-.742-.649-1.498-1.295-2.243-1.958a94.646 94.646 0 0 0-2.053-2.081c-.044.564-.783-.143-1.61-.789l.172-.348c-3.132-2.563-.385-1.646-3.348-4.286l.43.085c-.43-.085-.887-.164-1.284-.298-1.355-1.225-1.5-1.737-1.676-2.257a3.004 3.004 0 0 0-.476-.887c-.287-.37-.775-.814-1.476-1.542.863 1.323-.32 1.103-1.191-.688l.575.241c-.618-.887-.936-1.122-1.24-1.788.504.455.633.03-.232-1.306l.95.693c-.345-.373-.731-.737-1.038-1.131l-.939-1.208c-.301-1.15-1.005-2.462-1.519-3.683-.449-1.249-.824-2.341-.731-2.873 0 0-.088-.295-.235-.75-.121-.46-.4-1.074-.534-1.744-.326-1.345-.758-2.796-1.158-3.3.578.895.069-1.794.66-1.114-.687-1.159-1.71-5.14-1.595-6.773l.101.293c-.659-5.933-2.438-9.92-2.895-15.269-.391.32-.67-2.5-1.097-1.717-.775-2.664-.955-5.205-1.199-7.278-.12-1.03-.262-1.955-.5-2.72-.241-.777-.575-1.38-1.046-1.67-.186-1.002.008-1.596.162-2.04.189-.408.356-.712.55-1.164-.011.16-.038.307-.035.463.372-1.697 1.008-2.721 1.673-3.524.679-.805 1.411-1.42 2.61-2.045.567-.37.849-.739 1.317-1.103.233-.189.534-.32.929-.485.443-.131 1.059-.254 1.837-.353-.939.501.312.209 1.465-.008-.731.19-.928.343.624.274.2-.14.518-.26.811-.361.019.025.077.027.057.074 1.901-.465 1.55-.51.649-.386.033-.05-.049-.104-.342-.145 2.073.041 5.556-1.054 5.899-.552 5.756-1.194 9.789-2.526 14.568-3.624.591.181-.485.638-1.865 1l3.398-.737c.038.406-1.917.597-2.957.876 4.181-.095 8.261-2.192 13.144-2.484l.925-.498.299-.003c-.047-.162.977-.594 1.681-.778.742.222.107.82 2.465.362 1.936-.002 5.265-1.152 7.686-1.792-1.331.18-.942-.083-.391-.32 1.177-.236 1.922 0 2.812-.32l.205.457c-.542-.362 2.993-1.054 3.396-1.32.742.222-1.78.64-2.016.959l7.087-1.374c2.457-.818-.542-.362.584-1 2.207-.498 4.324-1.234 6.933-1.428l-.893-.263c4.124-1.095 6.646-1.513 9.546-1.608 30.572-9.186 5.716-5.884 5.716-5.884-12.495 1.315-18.607 3.718-33.167 6.742z"/></g><defs><clipPath id="a"><path fill="#fff" transform="translate(28 56)" d="M0 0h367v236H0z"/></clipPath><clipPath id="b"><path fill="#fff" transform="rotate(-11.301 360.749 -1418.987)" d="M0 0h122.605v111.463H0z"/></clipPath></defs></svg>