<svg width="1140" height="1211" viewBox="0 0 1140 1211" fill="none" xmlns="http://www.w3.org/2000/svg">
<path d="M779.004 755.107C760.397 688.338 686.422 663.893 651.305 646.106C616.187 628.32 526.25 587.456 485.751 482.377C445.252 377.298 380.67 331.057 327.038 307.702C273.406 284.346 29.0395 223.88 2.13135 1.77393" stroke="black" stroke-width="2.73643" stroke-linecap="round" stroke-linejoin="round"/>
<path d="M499.433 603.236C504.974 603.236 509.467 598.743 509.467 593.202C509.467 587.661 504.974 583.168 499.433 583.168C493.892 583.168 489.399 587.661 489.399 593.202C489.399 598.743 493.892 603.236 499.433 603.236Z" fill="#1A1A1A"/>
<path d="M777.636 673.471C783.178 673.471 787.67 668.978 787.67 663.437C787.67 657.896 783.178 653.403 777.636 653.403C772.095 653.403 767.603 657.896 767.603 663.437C767.603 668.978 772.095 673.471 777.636 673.471Z" fill="#1A1A1A"/>
<path d="M605.697 567.662C608.468 567.662 610.714 565.416 610.714 562.645C610.714 559.874 608.468 557.628 605.697 557.628C602.926 557.628 600.68 559.874 600.68 562.645C600.68 565.416 602.926 567.662 605.697 567.662Z" fill="#FCB643"/>
<path d="M795.423 444.523C800.713 444.523 805.001 440.235 805.001 434.946C805.001 429.656 800.713 425.368 795.423 425.368C790.134 425.368 785.846 429.656 785.846 434.946C785.846 440.235 790.134 444.523 795.423 444.523Z" fill="#FCB643"/>
<path d="M590.191 460.942C595.48 460.942 599.768 456.654 599.768 451.364C599.768 446.075 595.48 441.787 590.191 441.787C584.901 441.787 580.613 446.075 580.613 451.364C580.613 456.654 584.901 460.942 590.191 460.942Z" fill="#1CB0A8"/>
<path d="M586.543 366.079C597.877 366.079 607.066 356.891 607.066 345.556C607.066 334.221 597.877 325.033 586.543 325.033C575.208 325.033 566.02 334.221 566.02 345.556C566.02 356.891 575.208 366.079 586.543 366.079Z" fill="#00CB77"/>
<path d="M796.335 520.231C799.106 520.231 801.352 517.985 801.352 515.214C801.352 512.443 799.106 510.197 796.335 510.197C793.564 510.197 791.318 512.443 791.318 515.214C791.318 517.985 793.564 520.231 796.335 520.231Z" fill="#82ECB7"/>
<path d="M507.642 723.182C519.48 723.182 529.077 713.585 529.077 701.747C529.077 689.909 519.48 680.312 507.642 680.312C495.803 680.312 486.207 689.909 486.207 701.747C486.207 713.585 495.803 723.182 507.642 723.182Z" stroke="#1A1A1A" stroke-width="2.73643" stroke-linecap="round" stroke-linejoin="round"/>
<path d="M875.692 368.36C884.76 368.36 892.111 361.009 892.111 351.941C892.111 342.873 884.76 335.522 875.692 335.522C866.624 335.522 859.273 342.873 859.273 351.941C859.273 361.009 866.624 368.36 875.692 368.36Z" stroke="#1A1A1A" stroke-width="2.73643" stroke-linecap="round" stroke-linejoin="round"/>
<path d="M466.596 551.699C478.434 551.699 488.031 542.102 488.031 530.264C488.031 518.425 478.434 508.829 466.596 508.829C454.758 508.829 445.161 518.425 445.161 530.264C445.161 542.102 454.758 551.699 466.596 551.699Z" stroke="#1A1A1A" stroke-width="2.73643"/>
<path d="M481.646 466.414C497.011 466.414 509.466 453.959 509.466 438.594C509.466 423.229 497.011 410.774 481.646 410.774C466.281 410.774 453.826 423.229 453.826 438.594C453.826 453.959 466.281 466.414 481.646 466.414Z" fill="#EF4056"/>
<path d="M732.015 630.687L674.583 576.815L704.887 556.763L732.015 630.687Z" fill="#00CB77"/>
<path d="M808.263 661.915L805.061 583.235L840.729 590.175L808.263 661.915Z" fill="#FCB643"/>
<path d="M854.312 711.067C859.71 699.777 867.865 703.676 873.255 692.402C878.646 681.128 870.491 677.229 875.889 665.939C881.288 654.648 889.443 658.547 894.833 647.273C900.231 635.983 892.076 632.084 897.475 620.794C902.873 609.503 911.028 613.402 916.419 602.128C921.817 590.838 913.662 586.939 919.06 575.649C924.459 564.358 932.614 568.257 938.012 556.967" stroke="#221F1F" stroke-width="2.73643" stroke-miterlimit="10"/>
<path d="M601.465 699.996C609.912 696.699 614.086 687.178 610.788 678.731C607.491 670.284 597.97 666.11 589.523 669.408C581.076 672.705 576.902 682.226 580.199 690.673C583.497 699.12 593.018 703.294 601.465 699.996Z" fill="#EF4056"/>
<path d="M824.616 728.534C826.651 733.746 824.222 739.459 819.344 741.364C814.465 743.268 808.808 740.712 806.773 735.5C804.738 730.289 807.167 724.575 812.046 722.671C816.925 720.766 822.582 723.323 824.616 728.534Z" stroke="black" stroke-width="2.73643"/>
<path d="M421.45 332.502C423.484 337.714 421.056 343.427 416.177 345.332C411.298 347.237 405.641 344.68 403.606 339.468C401.572 334.257 404 328.543 408.879 326.639C413.758 324.734 419.415 327.291 421.45 332.502Z" stroke="black" stroke-width="2.73643"/>
<path d="M929.513 474.299C929.23 475.238 928.146 476.239 925.628 476.959C923.182 477.658 919.757 477.973 915.548 477.859C907.152 477.632 895.957 475.705 883.978 472.103C871.999 468.502 861.597 463.936 854.467 459.496C850.894 457.27 848.211 455.118 846.556 453.186C844.852 451.197 844.499 449.764 844.782 448.825C845.064 447.885 846.149 446.885 848.666 446.165C851.113 445.466 854.538 445.15 858.746 445.264C867.143 445.492 878.337 447.419 890.316 451.02C902.296 454.622 912.697 459.187 919.827 463.628C923.4 465.853 926.084 468.006 927.739 469.938C929.442 471.927 929.795 473.36 929.513 474.299Z" stroke="#1A1A1A" stroke-width="2.73643"/>
<path d="M902.389 504.759C901.382 505.084 899.883 504.75 897.826 503.11C895.818 501.51 893.573 498.886 891.241 495.372C886.589 488.361 881.77 478.073 877.924 466.173C874.079 454.273 871.967 443.11 871.637 434.702C871.471 430.488 871.757 427.046 872.448 424.574C873.157 422.04 874.177 420.892 875.184 420.567C876.191 420.242 877.69 420.575 879.748 422.215C881.755 423.816 884.001 426.439 886.332 429.953C890.984 436.965 895.804 447.253 899.649 459.153C903.494 471.053 905.606 482.216 905.937 490.624C906.102 494.838 905.816 498.279 905.125 500.752C904.416 503.285 903.396 504.433 902.389 504.759Z" stroke="#1A1A1A" stroke-width="2.73643"/>
<path d="M848.158 485.436C848.798 486.402 850.245 487.116 852.895 487.167C855.493 487.217 858.912 486.614 862.949 485.361C871.006 482.862 881.217 477.876 891.64 470.973C902.064 464.069 910.639 456.613 916.083 450.17C918.812 446.941 920.702 444.029 921.669 441.617C922.656 439.157 922.563 437.546 921.924 436.58C921.284 435.614 919.836 434.9 917.187 434.849C914.588 434.798 911.169 435.402 907.132 436.654C899.075 439.154 888.864 444.14 878.441 451.043C868.018 457.947 859.443 465.403 853.998 471.846C851.269 475.074 849.38 477.987 848.412 480.399C847.425 482.858 847.518 484.47 848.158 485.436Z" stroke="#1A1A1A" stroke-width="2.73643"/>
<path d="M886.521 462.626C888.209 463.134 889.99 462.177 890.497 460.488C891.005 458.8 890.048 457.019 888.359 456.512C886.671 456.004 884.89 456.961 884.383 458.65C883.875 460.338 884.832 462.119 886.521 462.626Z" stroke="#1A1A1A" stroke-width="2.73643"/>
<path d="M786.171 208.113L766.246 198.343L731.953 198.607L712.507 209.693L694.329 233.273L750.309 315.6L804.965 230.853L786.171 208.113Z" fill="#95D2FF" stroke="#95D2FF" stroke-width="3.1925"/>
<path d="M694.453 233.118C697.172 234.806 721.841 251.207 721.841 251.207L781.02 249.734L805.091 230.681" stroke="#231F20" stroke-width="3.1925" stroke-miterlimit="10" stroke-linecap="round" stroke-linejoin="round"/>
<path d="M733.419 224.782L721.841 251.206L750.435 315.436L781.019 249.742L768.281 224.5L733.419 224.782Z" stroke="#231F20" stroke-width="3.1925" stroke-miterlimit="10" stroke-linecap="round" stroke-linejoin="round"/>
<path d="M712.633 209.53L733.419 224.783L768.281 224.501L786.297 207.95" stroke="#231F20" stroke-width="3.1925" stroke-miterlimit="10" stroke-linecap="round" stroke-linejoin="round"/>
<path d="M688.088 267.568L663.916 280.794" stroke="black" stroke-width="2.73643" stroke-linecap="round"/>
<path d="M673.791 236.861L646.288 238.529" stroke="black" stroke-width="2.73643" stroke-linecap="round"/>
<path d="M678.484 210.863L655.871 195.12" stroke="black" stroke-width="2.73643" stroke-linecap="round"/>
<path d="M811.227 261.081L835.398 274.307" stroke="black" stroke-width="2.73643" stroke-linecap="round"/>
<path d="M825.523 230.374L853.026 232.043" stroke="black" stroke-width="2.73643" stroke-linecap="round"/>
<path d="M820.83 204.376L843.443 188.633" stroke="black" stroke-width="2.73643" stroke-linecap="round"/>
<path fill-rule="evenodd" clip-rule="evenodd" d="M884.815 953.927C885.636 947.398 886.059 940.748 886.059 934C886.059 845.634 813.529 774 724.059 774C634.589 774 562.059 845.634 562.059 934C562.059 956.743 566.863 978.377 575.524 997.967C626.545 982.086 692.45 967.009 768.569 960.259C809.43 956.636 848.59 954.701 884.815 953.927Z" fill="#FFD25E"/>
<path d="M456.922 1046.52C501.907 1018.29 639.602 959.127 826.956 956.6" stroke="black" stroke-width="3" stroke-linecap="round"/>
<path d="M968.059 962.999C984.752 963.683 1038.4 966.277 1088.06 972.993M1119.56 977.999C1113.42 976.849 1107.06 975.78 1100.56 974.789" stroke="black" stroke-width="3" stroke-linecap="round"/>
<path d="M871.25 913.679C871.25 912.999 858.344 904.849 854.722 903.717C851.1 902.585 859.476 917.529 859.476 917.529L871.25 913.679Z" fill="#FF2350"/>
<path d="M876.917 927.289C876.78 927.546 864.193 905.16 851.47 903.594C838.746 902.027 824.078 929.823 825.83 943.194C825.83 943.194 826.484 953.108 831.922 953.844C837.362 954.581 838.929 954.581 838.929 954.581C838.929 954.581 876.271 955.871 887.059 943.424C897.846 930.976 900.152 926.735 900.152 926.735C900.152 926.735 891.283 918.205 890.913 912.671C890.913 912.673 879.704 922.057 876.917 927.289Z" fill="#FCB643"/>
<path d="M926.4 954.168C927.037 953.22 928.947 948.623 936.371 949.472C943.795 950.322 944.432 951.806 947.189 955.413C947.189 955.413 971.373 952.866 975.827 953.079C978.676 953.214 984.101 942.048 986.011 936.108C987.921 930.168 990.041 934.198 990.041 934.198L982.191 965.529C982.191 965.529 974.978 970.687 967.766 971.96C960.553 973.233 946.128 976.618 936.371 971.106L923.006 971.96L926.4 954.168Z" fill="#FCB643"/>
<path d="M929.188 948.228C929.188 949.271 927.521 975.741 927.521 975.741C927.991 977.444 892.984 975.63 883.75 966.153C878.668 960.938 886.876 941.558 886.876 941.558C886.876 941.558 905.218 940.932 928.773 946.768L929.188 948.228Z" fill="#FF2350"/>
<path d="M915.45 975.897C910.179 975.03 888.821 978.889 873.625 973.561C860.354 977.431 847.205 976.82 841.336 975.73C829.258 973.483 821.039 962.644 822.423 952.13C823.929 940.686 823.687 942.498 827.933 943.452L882.392 947.776C882.392 947.776 906.631 955.376 914.776 955.936" fill="#FF2350"/>
<path d="M914.378 958.168C918.265 957.742 919.402 953.714 918.122 952.017C916.842 950.32 908.582 952.017 908.582 952.017L895.604 954.235L914.378 958.168Z" fill="#FCB643"/>
<path d="M849.525 895.429C855.831 895.429 860.943 890.317 860.943 884.011C860.943 877.705 855.831 872.593 849.525 872.593C843.219 872.593 838.107 877.705 838.107 884.011C838.107 890.317 843.219 895.429 849.525 895.429Z" fill="#FCB643"/>
<path d="M856.956 890.37C856.956 890.37 856.956 888.732 855.744 888.046C854.531 887.359 853.223 890.44 853.223 890.44C853.223 890.44 852.558 893.275 855.744 894.336C857.245 894.835 861.091 890.838 859.657 889.645C858.486 888.669 856.956 890.37 856.956 890.37Z" fill="#FF2350"/>
<path d="M890.312 914.344C890.329 914.083 893.823 907.75 897.755 903.613C901.688 899.478 906.444 899.478 908.91 900.039C911.378 900.602 915.45 905.516 915.45 905.516C915.45 905.516 922.331 906.781 921.069 912.258C919.804 917.736 914.468 915.348 914.468 915.348C914.468 915.348 919.665 917.594 917.838 921.386C916.013 925.177 911.517 923.072 911.517 923.072C911.517 923.072 916.432 925.544 914.466 929.153C912.499 932.762 905.056 930.235 903.511 926.724C903.511 926.724 902.253 928.873 900.15 926.811C898.049 924.749 889.89 920.645 890.312 914.344Z" fill="#FCB643"/>
<path d="M915.452 905.517C915.452 905.517 922.333 906.781 921.07 912.259C919.806 917.736 914.47 915.348 914.47 915.348C914.47 915.348 919.667 917.595 917.84 921.386C916.014 925.178 911.519 923.072 911.519 923.072C911.519 923.072 916.434 925.545 914.468 929.154C912.501 932.762 905.057 930.236 903.513 926.724" stroke="#1A1A1A" stroke-width="1.5" stroke-miterlimit="10" stroke-linecap="round" stroke-linejoin="round"/>
<path d="M898.318 918.965L905.292 925.518L915.671 899.335C916.256 897.997 915.893 896.434 914.783 895.487L907.878 889.614L902.042 907.915L898.318 918.965Z" fill="#FFFBE0"/>
<path d="M898.318 907.765C899.55 907.591 901.642 907.75 904.497 908.328C907.352 908.906 908.71 911.689 907.445 915.346C906.181 919.002 896.649 917.982 893.559 917" fill="#FCB643"/>
<path d="M898.318 907.765C899.55 907.591 901.642 907.75 904.497 908.328C907.352 908.906 908.71 911.689 907.445 915.346C906.181 919.002 901.968 918.44 898.878 917.458" stroke="#1A1A1A" stroke-width="1.5" stroke-miterlimit="10" stroke-linecap="round" stroke-linejoin="round"/>
<path d="M910.956 903.539L903.962 897.619" stroke="#1A1A1A" stroke-width="1.5" stroke-miterlimit="10" stroke-linecap="round"/>
<path d="M909.257 907.698L902.263 901.777" stroke="#1A1A1A" stroke-width="1.5" stroke-miterlimit="10" stroke-linecap="round"/>
<path d="M912.369 914.34L914.468 915.348" stroke="#1A1A1A" stroke-width="1.5" stroke-miterlimit="10" stroke-linecap="round" stroke-linejoin="round"/>
<path d="M908.91 921.601L911.519 923.072" stroke="#1A1A1A" stroke-width="1.5" stroke-miterlimit="10" stroke-linecap="round" stroke-linejoin="round"/>
<path d="M860.539 892.18C860.539 892.18 855.796 894.034 848.68 887.518" stroke="#1A1A1A" stroke-width="1.5" stroke-miterlimit="10" stroke-linecap="round"/>
<path d="M855.75 884.455C856.303 884.455 856.75 884.008 856.75 883.455C856.75 882.903 856.303 882.455 855.75 882.455C855.198 882.455 854.75 882.903 854.75 883.455C854.75 884.008 855.198 884.455 855.75 884.455Z" fill="black"/>
<path d="M833.612 877.782C833.612 877.782 830.794 887.203 836.982 892.424L840.915 887.394C840.915 887.394 837.356 883.485 840.541 880.491C843.724 877.495 846.347 883.02 846.347 883.02L864.324 874.875C864.324 874.875 862.129 869.445 854.614 869.632C854.614 869.632 848.691 863.679 841.762 867.051C834.833 870.421 835.29 875.251 835.29 875.251" fill="#1A1A1A"/>
<path d="M911.128 947.776L899.671 966.948L895.604 964.11L908.158 946.292L911.128 947.776Z" fill="#00CF6E"/>
<path d="M848.156 908.245C848.156 908.245 862.42 908.925 869.438 911.867C876.456 914.811 883.022 921.829 881.212 928.169C879.402 934.509 873.74 936.547 873.74 936.547C873.74 936.547 883.48 941.588 886.874 941.557C890.268 941.527 887.326 950.583 887.326 950.583L854.95 948.319L848.156 908.245Z" fill="#FF2350"/>
<path d="M833.71 921.286C833.034 922.298 833.769 939.191 825.31 942.413C820.847 944.115 839.615 946.863 839.615 946.863L833.71 921.286Z" fill="#FF2350"/>
<path d="M870.051 949.029C870.051 949.029 868.276 924.017 852.524 910.707C843.4 902.998 831.422 913.983 833.037 926.181C834.97 940.775 839.892 949.029 843.546 954.057C847.203 959.085 854.475 964.566 864.319 967.308C874.164 970.05 892.441 974.163 892.441 974.163C892.441 974.163 901.579 982.389 907.978 981.018C914.377 979.647 914.833 973.251 914.833 973.251C914.833 973.251 920.317 968.682 917.119 964.112C917.119 964.112 921.31 959.235 914.377 958.172C914.377 958.172 906.681 956.701 895.602 954.239C888.174 952.586 879.224 949.946 870.051 949.029Z" fill="#FCB643"/>
<path d="M870.051 949.029C870.051 949.029 868.276 924.017 852.524 910.707C843.4 902.998 831.422 913.983 833.037 926.181" stroke="#1A1A1A" stroke-width="1.5" stroke-miterlimit="10" stroke-linecap="round"/>
<path d="M906.885 966.444C906.885 966.444 913.353 968.564 917.12 964.11" stroke="#1A1A1A" stroke-width="1.5" stroke-miterlimit="10" stroke-linecap="round"/>
<path d="M899.671 971.96C899.671 971.96 907.723 975.389 914.835 973.251" stroke="#1A1A1A" stroke-width="1.5" stroke-miterlimit="10" stroke-linecap="round"/>
<path d="M845.153 920.334C845.153 920.334 845.634 917.864 848.682 918.077C851.73 918.29 853.475 923.804 849.527 926.351C845.577 928.897 845.577 928.897 845.577 928.897C845.577 928.897 842.183 926.542 840.061 923.476C837.938 920.41 839.037 917.864 841.929 917.332C844.938 916.776 845.153 920.334 845.153 920.334Z" fill="#FF2350"/>
<path d="M977.95 951.593L978.832 969.401L977.057 969.946C975.656 970.694 975.08 968.456 975.156 966.87L975.83 953.077C975.83 953.079 977.95 949.201 977.95 951.593Z" fill="#FF2350"/>
<path d="M985.8 936.532C985.8 936.532 987.921 942.896 985.8 948.836C983.68 954.776 977.95 962.361 978.163 966.948C978.376 971.535 981.346 971.324 983.89 970.898C986.437 970.474 993.011 967.876 994.921 966.948C996.234 966.309 995.742 963.678 995.306 962.096C995.128 961.451 994.441 961.086 993.809 961.305C991.988 961.94 988.431 962.842 986.963 960.871C984.951 958.17 988.131 957.838 991.527 954.716C994.921 951.593 998.204 946.533 996.931 936.139C995.658 925.745 993.014 925.078 990.043 925.288C987.073 925.501 986.013 928.682 986.226 931.228C986.437 933.775 985.8 936.532 985.8 936.532Z" fill="#FF2350"/>
<path d="M978.163 966.948C978.163 966.948 978.158 964.756 976.577 965.97" stroke="#1A1A1A" stroke-width="1.5" stroke-miterlimit="10" stroke-linecap="round"/>
<path d="M990.676 935.587C990.676 935.587 987.879 933.886 985.813 935.222" stroke="#1A1A1A" stroke-width="1.5" stroke-miterlimit="10" stroke-linecap="round"/>
<path d="M994.078 967.187C994.322 966.457 995.052 963.541 992.985 961.231" stroke="#1A1A1A" stroke-width="1.5" stroke-miterlimit="10" stroke-linecap="round"/>
<path d="M914.342 948.953C914.342 948.953 923.226 955.35 924.293 950.374C925.36 945.399 925.003 939.18 921.983 938.292C918.963 937.403 915.587 941.668 915.587 941.668C915.587 941.668 923.76 935.094 917.542 932.073C911.324 929.053 903.902 929.221 904.925 936.338C904.925 936.338 903.735 925.464 896.395 930.183C887.622 935.824 897.64 940.425 901.549 943.624C905.457 946.82 914.342 948.953 914.342 948.953Z" fill="#FF5780"/>
<path d="M896.395 930.181C887.622 935.822 897.64 940.423 901.549 943.622" stroke="#1A1A1A" stroke-width="1.5" stroke-miterlimit="10" stroke-linecap="round"/>
<path d="M907.569 952.638C908.263 953.101 918.201 951.252 919.587 946.861C920.973 942.47 918.822 939.589 915.587 941.668C915.587 941.668 919.585 937.099 914.52 934.205C910.789 932.074 907.341 934.683 906.879 937.225C906.879 937.225 907.107 932.995 902.253 933.918C897.399 934.842 897.862 939.926 899.711 942.931C901.56 945.936 905.025 951.02 905.025 951.02L907.569 952.638Z" fill="#FFB211"/>
<path d="M907.413 953.394C907.945 953.751 916.134 954.211 916.654 948.951C917.001 945.427 915.411 943.443 912.923 945.042C912.923 945.042 915.943 943.621 912.213 941.134C908.482 938.646 907.415 940.777 907.059 942.733C907.059 942.733 907.059 938.29 903.328 939.002C899.598 939.713 899.952 943.621 901.373 945.933C902.794 948.243 905.46 952.151 905.46 952.151L907.413 953.394Z" fill="#FF5780"/>
<path d="M900.58 955.437L911.415 957.883" stroke="#1A1A1A" stroke-width="1.5" stroke-miterlimit="10" stroke-linecap="round"/>
<path d="M947.204 959.782C947.204 959.782 949.377 953.066 941.672 950.696" stroke="#1A1A1A" stroke-width="1.5" stroke-miterlimit="10" stroke-linecap="round"/>
<path d="M905.999 894.264L912.595 899.585" stroke="#1A1A1A" stroke-width="1.5" stroke-miterlimit="10" stroke-linecap="round"/>
<path d="M910.257 894.603C910.576 894.603 910.835 894.344 910.835 894.025C910.835 893.706 910.576 893.447 910.257 893.447C909.938 893.447 909.679 893.706 909.679 894.025C909.679 894.344 909.938 894.603 910.257 894.603Z" fill="black"/>
<path d="M832.261 877.404C839 877.404 844.463 871.941 844.463 865.202C844.463 858.463 839 853 832.261 853C825.522 853 820.059 858.463 820.059 865.202C820.059 871.941 825.522 877.404 832.261 877.404Z" fill="#1A1A1A"/>
<path d="M664.5 387L710.5 443.5M664.5 387H684.5L691.179 395M664.5 387L637 429.5L645.5 439.163M710.5 443.5L726 438M710.5 443.5L684.5 483.5M726 438L701 480L684.5 483.5M726 438L709.13 416.5M696.5 422L684.5 406.5L692 394.5M696.5 422L707 420L714 408.5M696.5 422L704 408.5M714 408.5L702.5 393L692 394.5M714 408.5H704M692 394.5L704 408.5M684.5 483.5L665 461.332" stroke="black" stroke-width="3" stroke-linecap="round" stroke-linejoin="round"/>
<ellipse cx="665" cy="404" rx="4.5" ry="4" transform="rotate(38.0692 665 404)" stroke="black" stroke-width="3" stroke-linecap="round" stroke-linejoin="round"/>
<ellipse cx="660.14" cy="445.157" rx="16.1055" ry="15.9131" transform="rotate(135.742 660.14 445.157)" stroke="black" stroke-width="3" stroke-linecap="round" stroke-linejoin="round"/>
<path d="M661 428.5L676.5 427.5C680.167 428.667 687.7 433.1 688.5 441.5C689.5 452 687.5 456.5 682 458.5C676.5 460.5 665.5 461 659.5 461" stroke="black" stroke-width="3" stroke-linecap="round" stroke-linejoin="round"/>
<path d="M663.5 429C659.5 429 651.5 433.2 651.5 446C651.5 458.8 665.5 459.5 669.5 458" stroke="black" stroke-width="3" stroke-linecap="round" stroke-linejoin="round"/>
</svg>
