<svg width="1155" height="1247" viewBox="0 0 1155 1247" fill="none" xmlns="http://www.w3.org/2000/svg">
<g clip-path="url(#clip0)">
<path d="M791.202 827.395C770.802 754.195 689.702 727.395 651.202 707.895C612.702 688.395 514.102 643.595 469.702 528.395C425.302 413.195 354.5 362.5 295.702 336.895C236.904 311.29 -31 245 -60.5 1.5" stroke="white" stroke-width="3" stroke-linecap="round" stroke-linejoin="round"/>
<path d="M484.701 660.895C490.776 660.895 495.701 655.97 495.701 649.895C495.701 643.82 490.776 638.895 484.701 638.895C478.626 638.895 473.701 643.82 473.701 649.895C473.701 655.97 478.626 660.895 484.701 660.895Z" fill="white"/>
<path d="M789.701 737.895C795.776 737.895 800.701 732.97 800.701 726.895C800.701 720.82 795.776 715.895 789.701 715.895C783.626 715.895 778.701 720.82 778.701 726.895C778.701 732.97 783.626 737.895 789.701 737.895Z" fill="white"/>
<path d="M601.201 621.895C604.239 621.895 606.701 619.433 606.701 616.395C606.701 613.357 604.239 610.895 601.201 610.895C598.164 610.895 595.701 613.357 595.701 616.395C595.701 619.433 598.164 621.895 601.201 621.895Z" fill="#FCB643"/>
<path d="M809.201 486.895C815 486.895 819.701 482.194 819.701 476.395C819.701 470.596 815 465.895 809.201 465.895C803.402 465.895 798.701 470.596 798.701 476.395C798.701 482.194 803.402 486.895 809.201 486.895Z" fill="#FCB643"/>
<path d="M584.201 504.895C590 504.895 594.701 500.194 594.701 494.395C594.701 488.596 590 483.895 584.201 483.895C578.402 483.895 573.701 488.596 573.701 494.395C573.701 500.194 578.402 504.895 584.201 504.895Z" fill="#1CB0A8"/>
<path d="M580.201 400.895C592.628 400.895 602.701 390.821 602.701 378.395C602.701 365.969 592.628 355.895 580.201 355.895C567.775 355.895 557.701 365.969 557.701 378.395C557.701 390.821 567.775 400.895 580.201 400.895Z" fill="#00CB77"/>
<path d="M810.201 569.895C813.239 569.895 815.701 567.433 815.701 564.395C815.701 561.357 813.239 558.895 810.201 558.895C807.164 558.895 804.701 561.357 804.701 564.395C804.701 567.433 807.164 569.895 810.201 569.895Z" fill="#82ECB7"/>
<path d="M493.701 792.395C506.68 792.395 517.201 781.874 517.201 768.895C517.201 755.916 506.68 745.395 493.701 745.395C480.722 745.395 470.201 755.916 470.201 768.895C470.201 781.874 480.722 792.395 493.701 792.395Z" stroke="white" stroke-width="3" stroke-linecap="round" stroke-linejoin="round"/>
<path d="M897.201 403.395C907.142 403.395 915.201 395.336 915.201 385.395C915.201 375.454 907.142 367.395 897.201 367.395C887.26 367.395 879.201 375.454 879.201 385.395C879.201 395.336 887.26 403.395 897.201 403.395Z" stroke="white" stroke-width="3" stroke-linecap="round" stroke-linejoin="round"/>
<path d="M448.701 604.395C461.68 604.395 472.201 593.874 472.201 580.895C472.201 567.916 461.68 557.395 448.701 557.395C435.722 557.395 425.201 567.916 425.201 580.895C425.201 593.874 435.722 604.395 448.701 604.395Z" stroke="white" stroke-width="3"/>
<path d="M465.201 510.895C482.046 510.895 495.701 497.24 495.701 480.395C495.701 463.55 482.046 449.895 465.201 449.895C448.356 449.895 434.701 463.55 434.701 480.395C434.701 497.24 448.356 510.895 465.201 510.895Z" fill="#EF4056"/>
<path d="M739.687 690.991L676.723 631.929L709.946 609.946L739.687 690.991Z" fill="#00CB77"/>
<path d="M823.28 725.226L819.77 638.968L858.874 646.576L823.28 725.226Z" fill="#FCB643"/>
<path d="M873.764 779.113C879.682 766.735 888.623 771.01 894.532 758.65C900.442 746.29 891.502 742.015 897.42 729.638C903.338 717.26 912.279 721.535 918.189 709.175C924.107 696.797 915.166 692.522 921.085 680.144C927.003 667.766 935.943 672.041 941.853 659.681C947.771 647.303 938.831 643.028 944.749 630.651C950.667 618.273 959.608 622.548 965.526 610.17" stroke="white" stroke-width="3" stroke-miterlimit="10"/>
<path d="M596.563 766.976C605.823 763.36 610.399 752.922 606.784 743.662C603.169 734.402 592.731 729.825 583.471 733.44C574.21 737.056 569.634 747.493 573.249 756.754C576.864 766.014 587.302 770.591 596.563 766.976Z" fill="#EF4056"/>
<path d="M841.206 798.262C843.437 803.976 840.774 810.24 835.426 812.328C830.077 814.416 823.875 811.613 821.644 805.899C819.414 800.186 822.076 793.922 827.425 791.834C832.774 789.746 838.976 792.549 841.206 798.262Z" stroke="white" stroke-width="3"/>
<path d="M399.207 364.085C401.438 369.798 398.775 376.062 393.427 378.15C388.078 380.238 381.876 377.435 379.645 371.721C377.415 366.008 380.077 359.744 385.426 357.656C390.775 355.568 396.977 358.371 399.207 364.085Z" stroke="white" stroke-width="3"/>
<path d="M956.208 519.539C955.898 520.569 954.709 521.666 951.949 522.455C949.267 523.221 945.512 523.567 940.898 523.442C931.693 523.193 919.42 521.08 906.287 517.132C893.154 513.183 881.75 508.178 873.934 503.31C870.016 500.87 867.075 498.51 865.26 496.392C863.392 494.212 863.005 492.641 863.315 491.611C863.625 490.581 864.814 489.484 867.574 488.695C870.256 487.929 874.011 487.583 878.625 487.708C887.83 487.957 900.103 490.07 913.236 494.018C926.369 497.967 937.772 502.972 945.589 507.84C949.507 510.28 952.448 512.64 954.263 514.758C956.13 516.938 956.517 518.509 956.208 519.539Z" stroke="#95D2FF" stroke-width="3"/>
<path d="M926.471 552.932C925.367 553.289 923.724 552.923 921.469 551.125C919.268 549.371 916.806 546.495 914.25 542.642C909.149 534.956 903.866 523.676 899.65 510.63C895.435 497.584 893.119 485.346 892.757 476.128C892.576 471.508 892.889 467.735 893.647 465.024C894.424 462.247 895.542 460.988 896.646 460.632C897.75 460.275 899.394 460.641 901.649 462.439C903.85 464.193 906.312 467.069 908.868 470.922C913.968 478.609 919.252 489.888 923.467 502.934C927.683 515.98 929.999 528.219 930.361 537.436C930.542 542.056 930.229 545.829 929.471 548.54C928.694 551.317 927.575 552.576 926.471 552.932Z" stroke="#95D2FF" stroke-width="3"/>
<path d="M867.018 531.749C867.719 532.808 869.306 533.591 872.211 533.647C875.059 533.702 878.808 533.04 883.234 531.667C892.067 528.927 903.261 523.461 914.689 515.892C926.116 508.324 935.517 500.149 941.486 493.086C944.477 489.546 946.549 486.353 947.61 483.709C948.691 481.012 948.59 479.246 947.889 478.187C947.187 477.127 945.6 476.345 942.695 476.289C939.847 476.234 936.098 476.895 931.672 478.269C922.84 481.009 911.645 486.475 900.218 494.043C888.791 501.612 879.39 509.786 873.42 516.85C870.429 520.389 868.357 523.582 867.296 526.227C866.215 528.923 866.316 530.69 867.018 531.749Z" stroke="#95D2FF" stroke-width="3"/>
<path d="M909.075 506.742C910.926 507.298 912.878 506.249 913.434 504.398C913.991 502.547 912.941 500.595 911.09 500.038C909.239 499.482 907.287 500.531 906.731 502.382C906.174 504.233 907.224 506.185 909.075 506.742Z" stroke="#95D2FF" stroke-width="3"/>
<path d="M433.689 214.426C433.689 214.426 452.752 220.37 457.96 231.054C463.169 241.738 457.72 247.403 468.088 258.638C478.455 269.872 497.549 277.386 503.779 299.903C510.003 322.414 502.615 334.927 481.514 345.6C460.406 356.28 446.798 346.8 438.734 338.017C430.663 329.228 427.374 308.499 427.559 291.125C427.744 273.752 427.221 273.762 419.7 266.016C412.18 258.269 410.142 248.04 413.58 235.349C417.01 222.651 411.022 212.243 411.022 212.243L380.06 149.428C380.06 149.428 379.729 151.69 373.402 148.186C367.074 144.681 365.785 132.605 362.981 123.706C360.177 114.807 365.878 110.495 373.191 107.191C380.496 103.894 386.542 103.508 391.374 108.683C396.214 113.85 399.777 121.412 403.293 125.821C406.801 130.222 403.946 132.123 401.89 134.794C399.835 137.465 401.498 144.81 408.959 159.658C417.531 176.755 433.689 214.426 433.689 214.426Z" fill="#FCB643" stroke="black" stroke-width="3" stroke-miterlimit="10" stroke-linecap="round" stroke-linejoin="round"/>
<path d="M382.864 131.466L424.915 217.114" stroke="black" stroke-width="3" stroke-miterlimit="10" stroke-linecap="round" stroke-linejoin="round"/>
<path d="M474.145 291.534C474.145 291.534 447.798 303.363 448.348 304.406C448.899 305.449 452.996 313.523 452.996 313.523L478.45 300.474L474.145 291.534Z" stroke="black" stroke-width="3" stroke-miterlimit="10" stroke-linecap="round" stroke-linejoin="round"/>
<path d="M429.149 252.959C433.739 257.374 441.038 257.232 445.452 252.642C449.866 248.053 449.724 240.754 445.134 236.339C440.545 231.925 433.246 232.067 428.832 236.657C424.417 241.246 424.559 248.545 429.149 252.959Z" stroke="black" stroke-width="3" stroke-miterlimit="10" stroke-linecap="round" stroke-linejoin="round"/>
<path d="M405.303 108.136L394.977 113.188" stroke="black" stroke-width="3" stroke-miterlimit="10" stroke-linecap="round" stroke-linejoin="round"/>
<path d="M411.555 118.283L401.809 123.006" stroke="black" stroke-width="3" stroke-miterlimit="10" stroke-linecap="round" stroke-linejoin="round"/>
<path d="M351.818 131.547L363.75 127.22" stroke="black" stroke-width="3" stroke-miterlimit="10" stroke-linecap="round" stroke-linejoin="round"/>
<path d="M356.239 142.515L366.295 138.132" stroke="black" stroke-width="3" stroke-miterlimit="10" stroke-linecap="round" stroke-linejoin="round"/>
<path fill-rule="evenodd" clip-rule="evenodd" d="M899.814 988.927C900.636 982.398 901.059 975.748 901.059 969C901.059 880.634 828.529 809 739.059 809C649.588 809 577.059 880.634 577.059 969C577.059 991.743 581.863 1013.38 590.524 1032.97C641.544 1017.09 707.449 1002.01 783.569 995.259C824.429 991.636 863.59 989.701 899.814 988.927Z" fill="#FFD25E"/>
<path d="M471.922 1081.52C516.907 1053.29 654.602 994.127 841.956 991.6" stroke="white" stroke-width="3" stroke-linecap="round"/>
<path d="M983.059 997.999C999.751 998.683 1053.4 1001.28 1103.06 1007.99M1134.56 1013C1128.42 1011.85 1122.06 1010.78 1115.56 1009.79" stroke="white" stroke-width="3" stroke-linecap="round"/>
<path d="M886.249 948.679C886.249 947.999 873.343 939.849 869.721 938.717C866.099 937.585 874.475 952.529 874.475 952.529L886.249 948.679Z" fill="#FF2350"/>
<path d="M891.916 962.289C891.779 962.546 879.192 940.16 866.469 938.594C853.745 937.027 839.077 964.823 840.829 978.194C840.829 978.194 841.483 988.108 846.921 988.844C852.361 989.581 853.928 989.581 853.928 989.581C853.928 989.581 891.27 990.871 902.058 978.424C912.845 965.976 915.151 961.735 915.151 961.735C915.151 961.735 906.282 953.205 905.912 947.671C905.912 947.673 894.703 957.057 891.916 962.289Z" fill="#FCB643"/>
<path d="M941.4 989.168C942.036 988.22 943.946 983.623 951.37 984.472C958.794 985.322 959.431 986.806 962.188 990.413C962.188 990.413 986.373 987.866 990.827 988.079C993.675 988.214 999.1 977.048 1001.01 971.108C1002.92 965.168 1005.04 969.198 1005.04 969.198L997.191 1000.53C997.191 1000.53 989.977 1005.69 982.766 1006.96C975.553 1008.23 961.128 1011.62 951.37 1006.11L938.006 1006.96L941.4 989.168Z" fill="#FCB643"/>
<path d="M944.188 983.228C944.188 984.271 942.521 1010.74 942.521 1010.74C942.991 1012.44 907.984 1010.63 898.75 1001.15C893.668 995.938 901.876 976.558 901.876 976.558C901.876 976.558 920.218 975.932 943.773 981.768L944.188 983.228Z" fill="#FF2350"/>
<path d="M930.448 1010.9C925.177 1010.03 903.82 1013.89 888.624 1008.56C875.353 1012.43 862.203 1011.82 856.335 1010.73C844.257 1008.48 836.037 997.644 837.421 987.13C838.927 975.686 838.686 977.498 842.931 978.452L897.39 982.776C897.39 982.776 921.629 990.376 929.775 990.936" fill="#FF2350"/>
<path d="M929.378 993.168C933.265 992.742 934.401 988.714 933.122 987.017C931.842 985.32 923.581 987.017 923.581 987.017L910.604 989.235L929.378 993.168Z" fill="#FCB643"/>
<path d="M864.525 930.429C870.831 930.429 875.943 925.317 875.943 919.011C875.943 912.705 870.831 907.593 864.525 907.593C858.219 907.593 853.107 912.705 853.107 919.011C853.107 925.317 858.219 930.429 864.525 930.429Z" fill="#FCB643"/>
<path d="M871.956 925.37C871.956 925.37 871.956 923.732 870.744 923.046C869.532 922.359 868.224 925.44 868.224 925.44C868.224 925.44 867.559 928.275 870.744 929.336C872.245 929.835 876.091 925.838 874.657 924.645C873.486 923.669 871.956 925.37 871.956 925.37Z" fill="#FF2350"/>
<path d="M905.311 949.344C905.328 949.083 908.822 942.75 912.754 938.613C916.687 934.478 921.443 934.478 923.909 935.039C926.377 935.602 930.449 940.516 930.449 940.516C930.449 940.516 937.33 941.781 936.068 947.258C934.803 952.736 929.467 950.348 929.467 950.348C929.467 950.348 934.664 952.594 932.837 956.386C931.012 960.177 926.516 958.072 926.516 958.072C926.516 958.072 931.431 960.544 929.465 964.153C927.498 967.762 920.055 965.235 918.51 961.724C918.51 961.724 917.252 963.873 915.149 961.811C913.048 959.749 904.889 955.645 905.311 949.344Z" fill="#FCB643"/>
<path d="M930.451 940.517C930.451 940.517 937.332 941.781 936.069 947.259C934.805 952.736 929.469 950.348 929.469 950.348C929.469 950.348 934.666 952.595 932.839 956.386C931.014 960.178 926.518 958.072 926.518 958.072C926.518 958.072 931.433 960.545 929.467 964.154C927.5 967.762 920.057 965.236 918.512 961.724" stroke="#1A1A1A" stroke-width="1.5" stroke-miterlimit="10" stroke-linecap="round" stroke-linejoin="round"/>
<path d="M913.316 953.965L920.291 960.518L930.67 934.335C931.254 932.997 930.892 931.434 929.781 930.487L922.876 924.614L917.04 942.915L913.316 953.965Z" fill="#FFFBE0"/>
<path d="M913.317 942.765C914.549 942.591 916.642 942.75 919.497 943.328C922.352 943.906 923.709 946.689 922.445 950.346C921.18 954.002 911.648 952.982 908.559 952" fill="#FCB643"/>
<path d="M913.316 942.765C914.548 942.591 916.641 942.75 919.496 943.328C922.351 943.906 923.709 946.689 922.444 950.346C921.179 954.002 916.967 953.44 913.877 952.458" stroke="#1A1A1A" stroke-width="1.5" stroke-miterlimit="10" stroke-linecap="round" stroke-linejoin="round"/>
<path d="M925.957 938.539L918.963 932.619" stroke="#1A1A1A" stroke-width="1.5" stroke-miterlimit="10" stroke-linecap="round"/>
<path d="M924.258 942.698L917.264 936.777" stroke="#1A1A1A" stroke-width="1.5" stroke-miterlimit="10" stroke-linecap="round"/>
<path d="M927.369 949.34L929.468 950.348" stroke="#1A1A1A" stroke-width="1.5" stroke-miterlimit="10" stroke-linecap="round" stroke-linejoin="round"/>
<path d="M923.91 956.601L926.52 958.072" stroke="#1A1A1A" stroke-width="1.5" stroke-miterlimit="10" stroke-linecap="round" stroke-linejoin="round"/>
<path d="M875.538 927.18C875.538 927.18 870.795 929.034 863.68 922.518" stroke="#1A1A1A" stroke-width="1.5" stroke-miterlimit="10" stroke-linecap="round"/>
<path d="M870.75 919.455C871.302 919.455 871.75 919.008 871.75 918.455C871.75 917.903 871.302 917.455 870.75 917.455C870.198 917.455 869.75 917.903 869.75 918.455C869.75 919.008 870.198 919.455 870.75 919.455Z" fill="black"/>
<path d="M848.611 912.782C848.611 912.782 845.793 922.203 851.981 927.424L855.913 922.394C855.913 922.394 852.355 918.485 855.54 915.491C858.723 912.495 861.345 918.02 861.345 918.02L879.322 909.875C879.322 909.875 877.128 904.445 869.612 904.632C869.612 904.632 863.69 898.679 856.761 902.051C849.832 905.421 850.288 910.251 850.288 910.251" fill="#1A1A1A"/>
<path d="M926.128 982.776L914.671 1001.95L910.604 999.11L923.157 981.292L926.128 982.776Z" fill="#00CF6E"/>
<path d="M863.156 943.245C863.156 943.245 877.42 943.925 884.438 946.867C891.456 949.811 898.022 956.829 896.212 963.169C894.402 969.509 888.74 971.547 888.74 971.547C888.74 971.547 898.48 976.588 901.874 976.557C905.268 976.527 902.326 985.583 902.326 985.583L869.95 983.319L863.156 943.245Z" fill="#FF2350"/>
<path d="M848.709 956.286C848.033 957.299 848.768 974.191 840.309 977.414C835.846 979.115 854.614 981.863 854.614 981.863L848.709 956.286Z" fill="#FF2350"/>
<path d="M885.051 984.029C885.051 984.029 883.275 959.017 867.523 945.707C858.4 937.998 846.422 948.983 848.036 961.181C849.97 975.775 854.891 984.029 858.546 989.057C862.202 994.085 869.474 999.566 879.319 1002.31C889.163 1005.05 907.44 1009.16 907.44 1009.16C907.44 1009.16 916.579 1017.39 922.977 1016.02C929.376 1014.65 929.832 1008.25 929.832 1008.25C929.832 1008.25 935.316 1003.68 932.118 999.112C932.118 999.112 936.309 994.235 929.376 993.172C929.376 993.172 921.68 991.701 910.602 989.239C903.173 987.586 894.224 984.946 885.051 984.029Z" fill="#FCB643"/>
<path d="M885.051 984.029C885.051 984.029 883.275 959.017 867.523 945.707C858.4 937.998 846.422 948.983 848.036 961.181" stroke="#1A1A1A" stroke-width="1.5" stroke-miterlimit="10" stroke-linecap="round"/>
<path d="M921.885 1001.44C921.885 1001.44 928.353 1003.56 932.12 999.11" stroke="#1A1A1A" stroke-width="1.5" stroke-miterlimit="10" stroke-linecap="round"/>
<path d="M914.672 1006.96C914.672 1006.96 922.724 1010.39 929.835 1008.25" stroke="#1A1A1A" stroke-width="1.5" stroke-miterlimit="10" stroke-linecap="round"/>
<path d="M860.153 955.334C860.153 955.334 860.633 952.864 863.681 953.077C866.729 953.29 868.474 958.804 864.526 961.35C860.576 963.897 860.576 963.897 860.576 963.897C860.576 963.897 857.182 961.542 855.06 958.476C852.937 955.41 854.036 952.864 856.928 952.331C859.937 951.775 860.153 955.334 860.153 955.334Z" fill="#FF2350"/>
<path d="M992.949 986.593L993.831 1004.4L992.056 1004.95C990.655 1005.69 990.079 1003.46 990.155 1001.87L990.829 988.077C990.829 988.079 992.949 984.201 992.949 986.593Z" fill="#FF2350"/>
<path d="M1000.8 971.532C1000.8 971.532 1002.92 977.896 1000.8 983.836C998.679 989.776 992.949 997.361 993.162 1001.95C993.375 1006.53 996.345 1006.32 998.889 1005.9C1001.44 1005.47 1008.01 1002.88 1009.92 1001.95C1011.23 1001.31 1010.74 998.678 1010.3 997.096C1010.13 996.451 1009.44 996.086 1008.81 996.305C1006.99 996.94 1003.43 997.841 1001.96 995.871C999.95 993.17 1003.13 992.838 1006.53 989.715C1009.92 986.593 1013.2 981.533 1011.93 971.139C1010.66 960.744 1008.01 960.077 1005.04 960.288C1002.07 960.501 1001.01 963.682 1001.23 966.228C1001.44 968.775 1000.8 971.532 1000.8 971.532Z" fill="#FF2350"/>
<path d="M993.162 1001.95C993.162 1001.95 993.158 999.756 991.576 1000.97" stroke="#1A1A1A" stroke-width="1.5" stroke-miterlimit="10" stroke-linecap="round"/>
<path d="M1005.68 970.587C1005.68 970.587 1002.88 968.886 1000.81 970.222" stroke="#1A1A1A" stroke-width="1.5" stroke-miterlimit="10" stroke-linecap="round"/>
<path d="M1009.08 1002.19C1009.32 1001.46 1010.05 998.541 1007.98 996.231" stroke="#1A1A1A" stroke-width="1.5" stroke-miterlimit="10" stroke-linecap="round"/>
<path d="M929.342 983.953C929.342 983.953 938.226 990.35 939.293 985.374C940.36 980.399 940.004 974.18 936.984 973.292C933.964 972.403 930.587 976.668 930.587 976.668C930.587 976.668 938.761 970.094 932.543 967.073C926.324 964.053 918.902 964.221 919.926 971.338C919.926 971.338 918.735 960.464 911.396 965.183C902.622 970.824 912.641 975.425 916.549 978.624C920.458 981.82 929.342 983.953 929.342 983.953Z" fill="#FF5780"/>
<path d="M911.396 965.181C902.622 970.822 912.641 975.423 916.549 978.622" stroke="#1A1A1A" stroke-width="1.5" stroke-miterlimit="10" stroke-linecap="round"/>
<path d="M922.57 987.638C923.263 988.101 933.201 986.252 934.587 981.861C935.973 977.47 933.822 974.589 930.587 976.668C930.587 976.668 934.585 972.099 929.52 969.205C925.79 967.074 922.342 969.683 921.879 972.225C921.879 972.225 922.107 967.995 917.253 968.918C912.399 969.842 912.862 974.926 914.711 977.931C916.56 980.936 920.026 986.02 920.026 986.02L922.57 987.638Z" fill="#FFB211"/>
<path d="M922.412 988.394C922.944 988.751 931.133 989.211 931.652 983.951C932 980.427 930.409 978.443 927.922 980.042C927.922 980.042 930.942 978.621 927.211 976.134C923.481 973.646 922.414 975.777 922.057 977.733C922.057 977.733 922.057 973.29 918.327 974.002C914.596 974.713 914.95 978.621 916.371 980.933C917.792 983.243 920.458 987.151 920.458 987.151L922.412 988.394Z" fill="#FF5780"/>
<path d="M915.58 990.437L926.415 992.883" stroke="#1A1A1A" stroke-width="1.5" stroke-miterlimit="10" stroke-linecap="round"/>
<path d="M962.204 994.782C962.204 994.782 964.376 988.066 956.672 985.696" stroke="#1A1A1A" stroke-width="1.5" stroke-miterlimit="10" stroke-linecap="round"/>
<path d="M920.998 929.264L927.594 934.585" stroke="#1A1A1A" stroke-width="1.5" stroke-miterlimit="10" stroke-linecap="round"/>
<path d="M925.256 929.603C925.575 929.603 925.834 929.344 925.834 929.025C925.834 928.706 925.575 928.447 925.256 928.447C924.936 928.447 924.678 928.706 924.678 929.025C924.678 929.344 924.936 929.603 925.256 929.603Z" fill="black"/>
<path d="M847.261 912.404C854 912.404 859.463 906.941 859.463 900.202C859.463 893.463 854 888 847.261 888C840.522 888 835.059 893.463 835.059 900.202C835.059 906.941 840.522 912.404 847.261 912.404Z" fill="#1A1A1A"/>
<path d="M813.735 184.492L781.153 168.517L725.078 168.949L693.281 187.076L663.555 225.634L755.094 360.254L844.466 221.676L813.735 184.492Z" fill="#95D2FF" stroke="#95D2FF" stroke-width="5.22033"/>
<path d="M663.759 225.381C668.205 228.141 708.544 254.959 708.544 254.959L805.313 252.55L844.674 221.396" stroke="black" stroke-width="5.22033" stroke-miterlimit="10" stroke-linecap="round" stroke-linejoin="round"/>
<path d="M727.477 211.75L708.544 254.958L755.3 359.986L805.311 252.563L784.482 211.289L727.477 211.75Z" stroke="black" stroke-width="5.22033" stroke-miterlimit="10" stroke-linecap="round" stroke-linejoin="round"/>
<path d="M693.486 186.81L727.476 211.751L784.481 211.29L813.941 184.226" stroke="black" stroke-width="5.22033" stroke-miterlimit="10" stroke-linecap="round" stroke-linejoin="round"/>
<path d="M653.35 281.712L613.824 303.339" stroke="white" stroke-width="4.47457" stroke-linecap="round"/>
<path d="M629.972 231.5L585 234.228" stroke="white" stroke-width="4.47457" stroke-linecap="round"/>
<path d="M637.647 188.989L600.669 163.246" stroke="white" stroke-width="4.47457" stroke-linecap="round"/>
<path d="M854.705 271.105L894.23 292.732" stroke="white" stroke-width="4.47457" stroke-linecap="round"/>
<path d="M878.082 220.893L923.055 223.622" stroke="white" stroke-width="4.47457" stroke-linecap="round"/>
<path d="M870.408 178.382L907.385 152.64" stroke="white" stroke-width="4.47457" stroke-linecap="round"/>
<path d="M681.297 525.605L634.297 470.105L661.297 428.105H681.297L721.297 478.105L699.297 521.105L681.297 525.605Z" fill="#95D5D2"/>
<path d="M707.5 484.5L723 479L706.13 457.5L704 461L693.5 463L681.5 447.5L689 435.5L699.5 434L711 449.5L706.13 457.5L723 479L698 521L681.5 524.5L707.5 484.5Z" fill="#95D5D2"/>
<path d="M661.5 428L707.5 484.5M661.5 428H681.5L688.179 436M661.5 428L634 470.5L642.5 480.163M707.5 484.5L723 479M707.5 484.5L681.5 524.5M723 479L698 521L681.5 524.5M723 479L706.13 457.5M693.5 463L681.5 447.5L689 435.5M693.5 463L704 461L711 449.5M693.5 463L701 449.5M711 449.5L699.5 434L689 435.5M711 449.5H701M689 435.5L701 449.5M681.5 524.5L662 502.332" stroke="black" stroke-width="3" stroke-linecap="round" stroke-linejoin="round"/>
<ellipse cx="662" cy="445" rx="4.5" ry="4" transform="rotate(38.0692 662 445)" fill="#95D5D2" stroke="black" stroke-width="3" stroke-linecap="round" stroke-linejoin="round"/>
<ellipse cx="657.141" cy="486.157" rx="16.1055" ry="15.9131" transform="rotate(135.742 657.141 486.157)" fill="#95D5D2" stroke="black" stroke-width="3" stroke-linecap="round" stroke-linejoin="round"/>
<path d="M658 469.5L673.5 468.5C677.167 469.667 684.7 474.1 685.5 482.5C686.5 493 684.5 497.5 679 499.5C673.5 501.5 662.5 502 656.5 502" stroke="black" stroke-width="3" stroke-linecap="round" stroke-linejoin="round"/>
<path d="M660.5 470C656.5 470 648.5 474.2 648.5 487C648.5 499.8 662.5 500.5 666.5 499" stroke="black" stroke-width="3" stroke-linecap="round" stroke-linejoin="round"/>
</g>
<defs>
<clipPath id="clip0">
<rect width="1155" height="1247" fill="white"/>
</clipPath>
</defs>
</svg>
