<svg width="1682" height="773" viewBox="0 0 1682 773" fill="none" xmlns="http://www.w3.org/2000/svg">
<g clip-path="url(#clip0)">
<path d="M1605.3 130C1505.8 161 1418 170.5 1321.5 201.4C1242.4 226.7 1174.6 279.4 1158.5 365.3C1131.4 509.8 1082.6 674 994.9 663C907.2 652 969.1 518.5 994.9 585.5C1020.7 652.5 834.6 731 708.1 698C581.6 665 331.6 528.7 80.6001 552C-170.4 575.3 -268.4 966 -195.4 1161" stroke="black" stroke-width="2" stroke-linecap="round" stroke-linejoin="round"/>
<path fill-rule="evenodd" clip-rule="evenodd" d="M1608.9 1.59994C1608.2 0.199939 1606.5 -0.400062 1605.1 0.199938L1400.5 85.4999L1398.9 74.2999C1398.4 71.0999 1395.1 69.1999 1392.1 70.2999L1347.3 87.4999C1345.4 88.1999 1344.1 90.0999 1344.1 92.1999V108.2L1335.1 111.9C1333.9 112.4 1333.1 113.6 1333.3 114.9L1352.4 324.3C1352.6 326.5 1355 327.7 1356.9 326.6L1680 142.3C1681.4 141.5 1681.9 139.7 1681.2 138.3L1608.9 1.59994Z" fill="white"/>
<path d="M1366.1 216L1357.1 142L1416.1 117.5L1429.6 185L1366.1 216Z" stroke="black" stroke-width="2" stroke-linecap="round" stroke-linejoin="round"/>
<path d="M1462.1 169.5C1457.4 152 1444 110.3 1443.6 107.5L1515.6 79.5L1540.1 134L1462.1 169.5Z" stroke="black" stroke-width="2" stroke-linecap="round" stroke-linejoin="round"/>
<path d="M1373.1 232.5L1436.6 201.5" stroke="black" stroke-width="2" stroke-linecap="round"/>
<path d="M1467.1 186L1546.6 150" stroke="black" stroke-width="2" stroke-linecap="round"/>
<path d="M1574.1 135L1639.6 104" stroke="black" stroke-width="2" stroke-linecap="round"/>
<path d="M1583.1 148L1644.6 118" stroke="black" stroke-width="2" stroke-linecap="round"/>
<path d="M1373.1 250.5L1437.1 218" stroke="black" stroke-width="2" stroke-linecap="round"/>
<path d="M1470.1 202L1553.1 163.5" stroke="black" stroke-width="2" stroke-linecap="round"/>
<path d="M1345.1 108.9L1335.5 112.9C1334.7 113.2 1334.2 114.1 1334.3 114.9L1353.4 324.3C1353.5 325.8 1355.1 326.6 1356.4 325.9L1679.5 141.4C1680.4 140.9 1680.8 139.7 1680.3 138.7L1608 2.09997C1607.5 1.19997 1606.4 0.799976 1605.5 1.19997L1399.7 87" stroke="black" stroke-width="2" stroke-linecap="round"/>
<path d="M1345.1 109V92.2C1345.1 90.5 1346.1 89.1 1347.7 88.5L1392.5 71.3C1394.9 70.4 1397.5 71.9 1397.9 74.5L1399.7 87" stroke="black" stroke-width="2" stroke-linecap="round"/>
<path d="M1372.7 182.5L1369.1 166.3L1374.1 168.5C1376.9 169.7 1380.1 169.6 1382.8 168.1C1385 166.9 1386.6 165 1387.5 162.7L1389.4 157.5L1404.9 161.2L1406.5 160.8C1413.3 159 1420.1 163.5 1421.3 170.4L1372.7 182.5Z" fill="#FF6682"/>
<path d="M1371.1 178.5L1420.1 167.5" stroke="black" stroke-width="2" stroke-linecap="round" stroke-linejoin="round"/>
<path d="M1372.7 182.4L1421.5 170.5" stroke="black" stroke-width="2" stroke-linecap="round" stroke-linejoin="round"/>
<path d="M1396.7 155.5C1396.5 155.4 1396.3 155.6 1396.2 155.8L1394.4 163.1C1394.3 163.3 1394.5 163.5 1394.7 163.6C1394.9 163.7 1395.1 163.5 1395.2 163.3L1397 156C1397 155.7 1396.9 155.5 1396.7 155.5Z" stroke="black" stroke-width="0.8007"/>
<path d="M1400.4 155.8C1400.2 155.7 1400 155.9 1399.9 156.1L1398.1 163.4C1398 163.6 1398.2 163.8 1398.4 163.9C1398.6 164 1398.8 163.8 1398.9 163.6L1400.7 156.3C1400.7 156.1 1400.6 155.8 1400.4 155.8Z" stroke="black" stroke-width="0.8007"/>
<path d="M1468.9 146.7C1466.2 147.4 1462.9 147.4 1462.2 143.4C1462.2 143.4 1458.9 126.5 1462.1 120.2C1465.3 113.9 1469 110.4 1480.2 106.1C1491.4 101.8 1512.9 108.7 1516.4 110.4C1519.9 112.1 1523.2 116.2 1524.1 118.8C1525 121.4 1524.1 125.3 1520.4 126.4C1520.2 126.5 1519.8 126.6 1519.3 126.8" fill="#95D2FF"/>
<path d="M1507.4 130.3C1499.1 133.7 1489 138.4 1480.9 141.1" stroke="black" stroke-width="1.5" stroke-miterlimit="10"/>
<path d="M1467.6 122.5C1467.2 123.3 1462.8 124.5 1460.6 125C1460.6 123.5 1462.1 119 1463.1 117.5C1464.1 116 1467.1 112.5 1467.6 113C1468.1 113.5 1468.1 121.5 1467.6 122.5Z" fill="#E8F7F6"/>
<path d="M1486.3 107.1C1483.1 107.1 1480.9 107.8 1477.7 109.4C1473.5 111.5 1470.8 114.7 1471.9 117.9C1472.5 119.6 1473.5 121.7 1474.9 124L1497.8 114.5C1497.5 114 1497.2 113.4 1497 113C1494.9 109.3 1489.4 107.1 1486.3 107.1Z" fill="#E8F7F6"/>
<path d="M1492.7 103.9C1492.7 104.1 1492.8 104.3 1493 104.3C1493 104.3 1507.7 110.4 1509 110.4C1510.3 110.4 1513.2 108.4 1513.2 108.4" fill="#E8F7F6"/>
<path d="M1521.5 116.6C1522 116.2 1521.8 115.1 1521.1 114.2C1520.4 113.3 1519.4 112.8 1518.9 113.2C1518.4 113.6 1518.6 114.7 1519.3 115.6C1520 116.5 1521 117 1521.5 116.6Z" fill="black"/>
<path d="M1515.4 133.6C1519 132.4 1521 128.4 1519.7 124.7C1518.4 121 1514.5 119 1510.8 120.3C1507.2 121.5 1505.2 125.5 1506.5 129.2C1507.8 132.9 1511.8 134.9 1515.4 133.6Z" fill="#1A1A1A" stroke="#1A1A1A" stroke-width="2" stroke-miterlimit="10"/>
<path d="M1476.1 147.1C1479.7 145.9 1481.7 141.9 1480.4 138.2C1479.1 134.5 1475.2 132.5 1471.5 133.8C1467.9 135 1465.9 139 1467.2 142.7C1468.5 146.3 1472.5 148.3 1476.1 147.1Z" fill="#1A1A1A" stroke="#1A1A1A" stroke-width="2" stroke-miterlimit="10"/>
<path d="M1474.9 124L1498.6 114.5" stroke="black" stroke-width="1.5" stroke-miterlimit="10" stroke-linecap="round"/>
<path d="M1360.1 95C1360.7 96.6 1359.6 98.9 1357.1 99.9C1354.6 100.8 1352.3 99.9 1351.6 98.2C1351 96.6 1352.1 94.3 1354.6 93.3C1357.2 92.4 1359.5 93.4 1360.1 95Z" stroke="#1A1A1A" stroke-width="2"/>
<path d="M1368.1 92.5L1390.6 84.5" stroke="black" stroke-width="2" stroke-linecap="round"/>
<path d="M680.1 664C686.175 664 691.1 659.075 691.1 653C691.1 646.925 686.175 642 680.1 642C674.025 642 669.1 646.925 669.1 653C669.1 659.075 674.025 664 680.1 664Z" fill="#1A1A1A"/>
<path d="M1298.1 213C1304.18 213 1309.1 208.075 1309.1 202C1309.1 195.925 1304.18 191 1298.1 191C1292.02 191 1287.1 195.925 1287.1 202C1287.1 208.075 1292.02 213 1298.1 213Z" fill="#1A1A1A"/>
<path d="M1252.1 333C1265.35 333 1276.1 322.255 1276.1 309C1276.1 295.745 1265.35 285 1252.1 285C1238.85 285 1228.1 295.745 1228.1 309C1228.1 322.255 1238.85 333 1252.1 333Z" stroke="#1A1A1A" stroke-width="2"/>
<path d="M771.1 770C784.355 770 795.1 759.255 795.1 746C795.1 732.745 784.355 722 771.1 722C757.845 722 747.1 732.745 747.1 746C747.1 759.255 757.845 770 771.1 770Z" stroke="#1A1A1A" stroke-width="2"/>
<path d="M1568.1 121.5L1544.6 68.5L1611.5 40L1635.6 89.5L1568.1 121.5Z" stroke="black" stroke-width="2" stroke-linecap="round" stroke-linejoin="round"/>
<path d="M1601.9 86.7C1597.4 85.1 1592.1 87.4 1590.2 91.8L1587.6 96.5L1583.4 106L1579.2 115.5L1624.3 94.6L1601.9 86.7Z" fill="#FCB643"/>
<path d="M1577.7 93.5L1586.5 112.4L1593.4 108.8L1587.9 96.9L1582.4 85C1582.4 85 1583.2 84.8 1583.3 84.8C1587 83.1 1588.6 76.9 1588.1 73C1587.6 69.1 1585.3 65 1582.5 66.6C1579.7 68.3 1579.7 70.7 1581 72.6C1582.3 74.4 1583.8 77.6 1582.9 79.2C1582.1 80.8 1580.2 80.3 1580.2 80.3C1580.2 80.3 1576.9 71.8 1575.7 68.9C1574.6 66 1572.4 63.8 1569.4 65.4C1566.4 67 1566.2 69.8 1567.6 73.1C1569 76.4 1576.5 90.7 1576.5 90.7C1576.5 90.7 1572.6 92.5 1571.5 89.3C1570.9 87.3 1569.8 84.4 1568.4 83.2C1566.3 81.5 1564.3 83.6 1564.2 85C1563.9 87.5 1568.3 93.6 1570.4 94.5C1573.1 96 1577.7 93.5 1577.7 93.5Z" fill="#00CB77"/>
<path d="M1582.4 85.1001L1593.4 108.9" stroke="black" stroke-width="2" stroke-miterlimit="10" stroke-linecap="round" stroke-linejoin="round"/>
<path d="M1604.6 68C1607.36 68 1609.6 65.7614 1609.6 63C1609.6 60.2386 1607.36 58 1604.6 58C1601.84 58 1599.6 60.2386 1599.6 63C1599.6 65.7614 1601.84 68 1604.6 68Z" fill="#FF8A00"/>
<path d="M264.3 648.7L453.5 735.3L512.4 581.6L322.6 517.4L264.3 648.7Z" fill="white" stroke="black" stroke-width="2.2" stroke-linecap="round" stroke-linejoin="round"/>
<path d="M399.1 668.7L300.9 627.1L328.8 555.1L431.1 587.7L399.1 668.7Z" stroke="black" stroke-width="2.2" stroke-linecap="round" stroke-linejoin="round"/>
<path d="M433.6 617.9L472.5 629.6" stroke="black" stroke-width="2.2" stroke-linecap="round" stroke-linejoin="round"/>
<path d="M428.4 631.2L467.3 642.9" stroke="black" stroke-width="2.2" stroke-linecap="round" stroke-linejoin="round"/>
<path d="M422.6 644.2L461.5 655.9" stroke="black" stroke-width="2.2" stroke-linecap="round" stroke-linejoin="round"/>
<path d="M360.4 610.4C359.7 604.5 361.5 591.7 347 592C332.5 592.2 329 620.1 360.8 626.1C392.6 632.1 386.4 602.3 373.4 600.5C363.1 599 360.5 606.5 360.4 610.4Z" fill="#FF6682"/>
<path d="M324.6 597.5C324.6 597.5 347.9 609.3 361.3 613.6C374.7 617.9 392 622.1 392 622.1" stroke="black" stroke-width="2.2" stroke-linecap="round"/>
<path d="M1590.6 234C1594.74 234 1598.1 230.642 1598.1 226.5C1598.1 222.358 1594.74 219 1590.6 219C1586.46 219 1583.1 222.358 1583.1 226.5C1583.1 230.642 1586.46 234 1590.6 234Z" fill="#EF4056"/>
<path d="M1122.6 384C1133.65 384 1142.6 375.046 1142.6 364C1142.6 352.954 1133.65 344 1122.6 344C1111.55 344 1102.6 352.954 1102.6 364C1102.6 375.046 1111.55 384 1122.6 384Z" fill="#EF4056"/>
<path d="M871.1 658C875.242 658 878.6 654.642 878.6 650.5C878.6 646.358 875.242 643 871.1 643C866.958 643 863.6 646.358 863.6 650.5C863.6 654.642 866.958 658 871.1 658Z" fill="#EF4056"/>
<path d="M1215.3 559.4L1232.5 539.9" stroke="black" stroke-width="2.6031" stroke-linecap="round" stroke-linejoin="round"/>
<path d="M1212.7 574L1204.9 554.5L1234.3 524L1241.9 538.1" stroke="black" stroke-width="2.6031" stroke-linecap="round" stroke-linejoin="round"/>
<path d="M1450.1 639L1274.7 506.7C1272.1 504.7 1268.4 505.2 1266.4 507.7L1155.7 645C1154.4 646.7 1154 648.9 1154.8 651L1198.2 762.2C1199 764.4 1201.1 765.9 1203.4 766L1319.2 772.8C1320.9 772.9 1322.5 772.3 1323.7 771.1L1450.5 648.2C1453.3 645.6 1453 641.3 1450.1 639Z" fill="#1CB0A8"/>
<path d="M1424.9 640.5L1276 528.1C1274.3 526.8 1271.8 527.1 1270.5 528.8L1176.7 645.2C1175.8 646.3 1175.6 647.8 1176.1 649.2L1212.9 743.7C1213.5 745.2 1214.8 746.2 1216.4 746.2L1314.7 751.9C1315.8 752 1316.9 751.6 1317.7 750.8L1425.3 646.5C1427 644.9 1426.8 642 1424.9 640.5Z" fill="#95D5D2"/>
<path d="M1285.6 660.8C1292.6 626.9 1284.2 602.6 1267.9 577.8C1260.4 566.3 1250.1 578.4 1255.2 586.2C1274.8 616.1 1271.9 637.9 1271.5 676.5C1271.5 678.9 1274.4 680.7 1276.7 679.7C1315 662.8 1327.2 659.5 1358 668.3C1370.9 673 1379.6 660.1 1365.5 655.4C1334.4 646.5 1312.9 642.9 1285.6 660.8Z" fill="white"/>
<path d="M1364.8 523.2C1364.8 523.2 1356.5 522.7 1352.7 527.3C1348.9 531.8 1346.6 542.6 1352.9 549.2C1355.3 551.7 1358 553.3 1360.9 554.1C1365.7 555.4 1370.7 554.3 1375 550.7C1381.7 544.9 1379.6 537.2 1376.4 533.9C1373.2 530.6 1365.3 533.6 1361.9 537C1356.1 542.7 1359.8 553.3 1359.8 553.3" stroke="black" stroke-width="3.0052" stroke-miterlimit="10" stroke-linecap="round" stroke-linejoin="round"/>
<path d="M1380.2 505.2C1385.7 498.6 1393.9 496.5 1400.5 498.8C1408.4 501.6 1409.1 512.7 1403.1 519.9C1397.1 527.1 1387.2 529.8 1382.3 526.1C1377.5 522.5 1374.9 511.6 1380.2 505.2Z" stroke="black" stroke-width="3.0052" stroke-miterlimit="10" stroke-linecap="round" stroke-linejoin="round"/>
<path d="M1425 489.8L1419 459.9L1431.2 462.3V448.1L1455.6 459.1" stroke="black" stroke-width="3.0052" stroke-miterlimit="10" stroke-linecap="round" stroke-linejoin="round"/>
<path d="M1447.5 432.3L1461.8 453.5" stroke="black" stroke-width="3.0052" stroke-miterlimit="10" stroke-linecap="round" stroke-linejoin="round"/>
<path d="M1456.9 423.9L1469.8 442.6L1480.4 429.1" stroke="black" stroke-width="3.0052" stroke-miterlimit="10" stroke-linecap="round" stroke-linejoin="round"/>
<path d="M1472.6 406.5L1484.2 423.4L1493.1 412.4" stroke="black" stroke-width="3.0052" stroke-miterlimit="10" stroke-linecap="round" stroke-linejoin="round"/>
<path d="M1485.9 389.3L1497.7 407.1" stroke="black" stroke-width="3.0052" stroke-miterlimit="10" stroke-linecap="round" stroke-linejoin="round"/>
<path d="M1499 373.2C1506.3 366 1513.2 367.3 1515.7 369.8C1518.1 372.3 1523.5 380.7 1517.9 388.2C1512.3 395.6 1504.1 396.2 1500.4 392.1C1496.6 387.9 1492 380.1 1499 373.2Z" stroke="black" stroke-width="3.0052" stroke-miterlimit="10" stroke-linecap="round" stroke-linejoin="round"/>
<path d="M1525.7 375.4L1517.7 354.2L1543.2 355.3L1532.4 334.9" stroke="black" stroke-width="3.0052" stroke-miterlimit="10" stroke-linecap="round" stroke-linejoin="round"/>
<path d="M1600.9 403.1C1600.9 403.1 1599.1 393.5 1584.4 401C1574.2 406.2 1571.8 414.6 1573.2 419.9C1575.2 427.3 1587.9 419.2 1591.7 417.6C1596 415.9 1612.2 411.6 1616 421.6C1620 432 1616.8 438 1608.7 444.3C1600.6 450.6 1584 451.7 1579.1 441.9" stroke="black" stroke-width="3.0052" stroke-miterlimit="10" stroke-linecap="round" stroke-linejoin="round"/>
<path d="M1561.9 425.2L1532.2 444.1L1549.3 488.5L1580.9 465.2" stroke="black" stroke-width="3.0052" stroke-miterlimit="10" stroke-linecap="round" stroke-linejoin="round"/>
<path d="M1564.4 437.6L1537.9 456.2" stroke="black" stroke-width="3.0052" stroke-miterlimit="10" stroke-linecap="round" stroke-linejoin="round"/>
<path d="M1519.2 445.9L1529.5 502.3L1475 479" stroke="black" stroke-width="3.0052" stroke-miterlimit="10" stroke-linecap="round" stroke-linejoin="round"/>
<path d="M1517.7 526.5L1459.9 498.2L1458.4 566.4" stroke="black" stroke-width="3.0052" stroke-miterlimit="10" stroke-linecap="round" stroke-linejoin="round"/>
<path d="M1481.7 509.2L1459.1 526.3" stroke="black" stroke-width="3.0052" stroke-miterlimit="10" stroke-linecap="round" stroke-linejoin="round"/>
<path d="M1434.9 528.8C1434.9 528.8 1429.4 520.5 1414.7 528.9C1400.1 537.4 1403.1 543.7 1404.1 546.1C1405.1 548.6 1408.1 552 1422.8 548.2C1437.5 544.4 1446.9 552.4 1448.6 559.6C1450.3 566.9 1447.7 578.3 1430.3 588.7C1419.4 595.3 1407.1 588.7 1405.2 576.5" stroke="black" stroke-width="3.0052" stroke-miterlimit="10" stroke-linecap="round" stroke-linejoin="round"/>
<path d="M1384.6 458.1C1384.6 458.1 1383.8 438.5 1378.2 424.9" stroke="black" stroke-width="2.0034" stroke-miterlimit="10" stroke-linecap="round"/>
<path d="M1380 430.1C1380 430.1 1383.8 446.4 1389.1 445.8C1392.6 445.4 1394 444.4 1394.2 433C1394.4 421.6 1393.7 412.1 1390.5 414.3C1387.3 416.5 1394.9 434.8 1397.4 440.1" stroke="black" stroke-width="2.0034" stroke-miterlimit="10" stroke-linecap="round"/>
<path d="M1394.3 433C1394.3 433 1395 427.1 1396.5 425.5C1399.4 422.7 1400.4 430.4 1401.3 432.4C1402.1 434.4 1404.1 435.6 1406.1 432.7C1408.1 429.9 1407.3 425 1407.3 425" stroke="black" stroke-width="2.0034" stroke-miterlimit="10" stroke-linecap="round" stroke-linejoin="round"/>
<path d="M1375.7 444.1L1386.3 429.9" stroke="black" stroke-width="2.0034" stroke-miterlimit="10" stroke-linecap="round"/>
<path d="M1406.4 411.3C1402.8 414.5 1403.4 418.6 1405.6 422.6C1407.8 426.6 1409.8 427.2 1412.3 424.8C1414.8 422.3 1414.3 416.2 1412.1 411.6C1409.8 407 1406.4 411.3 1406.4 411.3Z" stroke="black" stroke-width="2.0034" stroke-miterlimit="10" stroke-linecap="round" stroke-linejoin="round"/>
<path d="M1410.1 407.6C1410.1 407.6 1410.4 408.6 1412 411.6C1413.7 414.6 1416.8 417.9 1418.9 415.7C1421 413.5 1420.3 408 1418.6 403.7C1416.9 399.4 1416.8 397.8 1418 397C1419.2 396.2 1421.5 396.5 1422.9 400.1C1424.4 403.6 1425.7 406.4 1425.7 406.4" stroke="black" stroke-width="2.0034" stroke-miterlimit="10" stroke-linecap="round" stroke-linejoin="round"/>
<path d="M1439 389.7C1439 389.7 1442 396.2 1438.1 398.7C1434.2 401.2 1431.4 398.4 1429.1 392.3C1427.3 387.4 1425.2 388.7 1424.2 389.3C1423 390 1420 393.6 1422.5 399.1" stroke="black" stroke-width="2.0034" stroke-miterlimit="10" stroke-linecap="round" stroke-linejoin="round"/>
<path d="M1445.8 612.9L1447.8 592.7L1455.5 599L1464.9 587.3L1472.6 609.5" stroke="black" stroke-width="3.0052" stroke-miterlimit="10" stroke-linecap="round" stroke-linejoin="round"/>
<path d="M1489.4 607.3C1495.4 607.9 1500.8 603.5 1501.4 597.5C1502 591.5 1497.6 586.1 1491.6 585.5C1485.6 584.9 1480.2 589.3 1479.6 595.3C1478.9 601.3 1483.3 606.7 1489.4 607.3Z" stroke="black" stroke-width="3.0052" stroke-miterlimit="10" stroke-linecap="round" stroke-linejoin="round"/>
<path d="M1509.1 608.7L1510.4 584.6L1531 615.8L1531.4 577.8" stroke="black" stroke-width="3.0052" stroke-miterlimit="10" stroke-linecap="round" stroke-linejoin="round"/>
<path d="M1554.4 579L1541.6 619.6" stroke="black" stroke-width="3.0052" stroke-miterlimit="10" stroke-linecap="round" stroke-linejoin="round"/>
<path d="M1537.8 579.5C1537.8 579.5 1554.5 577.8 1572.5 580.1" stroke="black" stroke-width="3.0052" stroke-miterlimit="10" stroke-linecap="round" stroke-linejoin="round"/>
<path d="M1566.7 588.4L1554.2 626.3" stroke="black" stroke-width="3.0052" stroke-miterlimit="10" stroke-linecap="round" stroke-linejoin="round"/>
<path d="M1586 587.6L1571.5 634.1" stroke="black" stroke-width="3.0052" stroke-miterlimit="10" stroke-linecap="round" stroke-linejoin="round"/>
<path d="M1563.5 598.7L1582 601.1" stroke="black" stroke-width="3.0052" stroke-miterlimit="10" stroke-linecap="round" stroke-linejoin="round"/>
<path d="M1576 541.5C1572.1 535.9 1563.8 547.3 1567.7 551C1570.2 553.4 1575.7 553.6 1584.5 546.4C1593.3 539.3 1600.1 532.6 1596.5 531.5C1592.8 530.5 1583.7 548 1581.2 553.4" stroke="black" stroke-width="2.0034" stroke-miterlimit="10" stroke-linecap="round"/>
<path d="M1584.5 546.5C1584.5 546.5 1589.5 543.2 1591.7 543.4C1595.7 543.8 1590.5 549.6 1589.5 551.5C1588.5 553.4 1588.8 555.7 1592.3 555.4C1595.8 555.1 1598.9 551.3 1598.9 551.3" stroke="black" stroke-width="2.0034" stroke-miterlimit="10" stroke-linecap="round" stroke-linejoin="round"/>
<path d="M1557.3 539.9C1552.5 539.2 1549.7 542.3 1548.1 546.6C1546.5 550.9 1547.3 552.8 1550.7 553.1C1554.2 553.4 1558.5 549 1560.6 544.4C1562.8 539.7 1557.3 539.9 1557.3 539.9Z" stroke="black" stroke-width="2.0034" stroke-miterlimit="10" stroke-linecap="round" stroke-linejoin="round"/>
<path d="M1562.5 540.3C1562.5 540.3 1561.9 541.2 1560.7 544.4C1559.5 547.6 1559 552.2 1562 552.3C1563.4 552.4 1564.9 551.6 1566.4 550.3" stroke="black" stroke-width="2.0034" stroke-miterlimit="10" stroke-linecap="round" stroke-linejoin="round"/>
<path d="M1547.3 549C1543.7 556.6 1535.8 556.4 1533.3 549.5C1530.8 542.6 1536.5 535.7 1543.1 536.9C1549.1 538 1544.2 543.5 1539 545.2C1533.8 546.9 1524.9 548 1522.9 542.3" stroke="black" stroke-width="2.0034" stroke-linecap="round" stroke-linejoin="round"/>
<path d="M1330.7 531.7L1311.6 505.2H1325L1313 490.3L1336.4 493.4" stroke="black" stroke-width="3.0052" stroke-miterlimit="10" stroke-linecap="round" stroke-linejoin="round"/>
<path d="M1332.9 482.7C1341.4 481.4 1347.2 473.3 1345.9 464.6C1344.6 455.8 1336.7 449.8 1328.2 451C1319.7 452.3 1313.9 460.4 1315.2 469.1C1316.5 477.9 1324.4 484 1332.9 482.7Z" stroke="black" stroke-width="3.0052" stroke-miterlimit="10" stroke-linecap="round" stroke-linejoin="round"/>
<path d="M1356 442.8C1356 442.8 1312.6 439.2 1312.3 439C1312.3 439 1311.4 420.2 1319 421.2C1326.6 422.2 1326 439.8 1326 439.8" stroke="black" stroke-width="3.0052" stroke-miterlimit="10" stroke-linecap="round" stroke-linejoin="round"/>
<path d="M1325.4 431C1325.4 431 1335.6 430.9 1342.9 430.3C1350.2 429.7 1350.7 423.5 1346.3 419.1" stroke="black" stroke-width="3.0052" stroke-miterlimit="10" stroke-linecap="round" stroke-linejoin="round"/>
<path d="M1347.4 380.5L1347.3 410.4L1315.5 409.3L1308.5 390.4" stroke="black" stroke-width="3.0052" stroke-miterlimit="10" stroke-linecap="round" stroke-linejoin="round"/>
<path d="M1324.2 388.5L1326.3 409.8" stroke="black" stroke-width="3.0052" stroke-miterlimit="10" stroke-linecap="round" stroke-linejoin="round"/>
<path d="M1271.3 519.7C1272.68 519.7 1273.8 518.581 1273.8 517.2C1273.8 515.819 1272.68 514.7 1271.3 514.7C1269.92 514.7 1268.8 515.819 1268.8 517.2C1268.8 518.581 1269.92 519.7 1271.3 519.7Z" stroke="#1A1A1A" stroke-width="2.0034"/>
<path d="M1438.9 646.6C1440.28 646.6 1441.4 645.481 1441.4 644.1C1441.4 642.719 1440.28 641.6 1438.9 641.6C1437.52 641.6 1436.4 642.719 1436.4 644.1C1436.4 645.481 1437.52 646.6 1438.9 646.6Z" stroke="#1A1A1A" stroke-width="2.0034"/>
</g>
<defs>
<clipPath id="clip0">
<rect width="1682" height="773" fill="white"/>
</clipPath>
</defs>
</svg>
