<svg width="1311" height="805" viewBox="0 0 1311 805" fill="none" xmlns="http://www.w3.org/2000/svg">
<path d="M1309.44 185.819C1218.88 199.868 1141.31 196.725 1053.34 211.025C981.276 222.739 915.478 259.79 890.311 332.398C847.984 454.516 784.204 590.998 709.354 570.036C634.503 549.075 705.696 441.022 719.422 502.639C733.148 564.256 561.113 608.346 455.383 563.212C349.653 518.079 127.771 414.252 9.26413 451.669" stroke="black" stroke-width="2" stroke-linecap="round" stroke-linejoin="round"/>
<ellipse cx="436.878" cy="520.44" rx="9.67285" ry="9.67224" transform="rotate(8.49658 436.878 520.44)" fill="#1A1A1A"/>
<ellipse cx="870.745" cy="370.55" rx="9.67282" ry="9.67227" transform="rotate(8.49658 870.745 370.55)" fill="#1A1A1A"/>
<path d="M916.417 422.34C914.704 433.801 904.025 441.704 892.563 439.992C881.101 438.279 873.197 427.6 874.91 416.139C876.622 404.678 887.301 396.775 898.763 398.487C910.225 400.2 918.129 410.879 916.417 422.34Z" stroke="#1A1A1A" stroke-width="2"/>
<path d="M524.692 616.241C522.98 627.702 512.3 635.605 500.838 633.892C489.376 632.18 481.473 621.501 483.185 610.04C484.897 598.579 495.577 590.676 507.039 592.388C518.501 594.101 526.404 604.78 524.692 616.241Z" stroke="#1A1A1A" stroke-width="2"/>
<ellipse cx="1284.15" cy="267.834" rx="6.59515" ry="6.5947" transform="rotate(8.49658 1284.15 267.834)" fill="#EF4056"/>
<ellipse cx="806.172" cy="467.628" rx="17.587" ry="17.5859" transform="rotate(8.49658 806.172 467.628)" fill="#EF4056"/>
<ellipse cx="603.239" cy="543.07" rx="6.59512" ry="6.59476" transform="rotate(8.49658 603.239 543.07)" fill="#EF4056"/>
<circle cx="711" cy="646" r="14" fill="#EF4056"/>
</svg>
