<svg width="1682" height="773" viewBox="0 0 1682 773" fill="none" xmlns="http://www.w3.org/2000/svg">
<g clip-path="url(#clip0)">
<path d="M1605.3 130C1505.8 161 1418 170.5 1321.5 201.4C1242.4 226.7 1174.6 279.4 1158.5 365.3C1131.4 509.8 1082.6 674 994.9 663C907.2 652 969.1 518.5 994.9 585.5C1020.7 652.5 834.6 731 708.1 698C581.6 665 331.6 528.7 80.5996 552C-170.4 575.3 -268.4 966 -195.4 1161" stroke="white" stroke-width="2" stroke-linecap="round" stroke-linejoin="round"/>
<path fill-rule="evenodd" clip-rule="evenodd" d="M1608.9 1.59994C1608.2 0.199939 1606.5 -0.400062 1605.1 0.199938L1400.5 85.4999L1398.9 74.2999C1398.4 71.0999 1395.1 69.1999 1392.1 70.2999L1347.3 87.4999C1345.4 88.1999 1344.1 90.0999 1344.1 92.1999V108.2L1335.1 111.9C1333.9 112.4 1333.1 113.6 1333.3 114.9L1352.4 324.3C1352.6 326.5 1355 327.7 1356.9 326.6L1680 142.3C1681.4 141.5 1681.9 139.7 1681.2 138.3L1608.9 1.59994Z" fill="white"/>
<path d="M1366.1 216L1357.1 142L1416.1 117.5L1429.6 185L1366.1 216Z" stroke="black" stroke-width="2" stroke-linecap="round" stroke-linejoin="round"/>
<path d="M1462.1 169.5C1457.4 152 1444 110.3 1443.6 107.5L1515.6 79.5L1540.1 134L1462.1 169.5Z" stroke="black" stroke-width="2" stroke-linecap="round" stroke-linejoin="round"/>
<path d="M1373.1 232.5L1436.6 201.5" stroke="black" stroke-width="2" stroke-linecap="round"/>
<path d="M1467.1 186L1546.6 150" stroke="black" stroke-width="2" stroke-linecap="round"/>
<path d="M1574.1 135L1639.6 104" stroke="black" stroke-width="2" stroke-linecap="round"/>
<path d="M1583.1 148L1644.6 118" stroke="black" stroke-width="2" stroke-linecap="round"/>
<path d="M1373.1 250.5L1437.1 218" stroke="black" stroke-width="2" stroke-linecap="round"/>
<path d="M1470.1 202L1553.1 163.5" stroke="black" stroke-width="2" stroke-linecap="round"/>
<path d="M1345.1 108.9L1335.5 112.9C1334.7 113.2 1334.2 114.1 1334.3 114.9L1353.4 324.3C1353.5 325.8 1355.1 326.6 1356.4 325.9L1679.5 141.4C1680.4 140.9 1680.8 139.7 1680.3 138.7L1608 2.09997C1607.5 1.19997 1606.4 0.799976 1605.5 1.19997L1399.7 87" stroke="black" stroke-width="2" stroke-linecap="round"/>
<path d="M1345.1 109V92.2C1345.1 90.5 1346.1 89.1 1347.7 88.5L1392.5 71.3C1394.9 70.4 1397.5 71.9 1397.9 74.5L1399.7 87" stroke="black" stroke-width="2" stroke-linecap="round"/>
<path d="M1372.7 182.5L1369.1 166.3L1374.1 168.5C1376.9 169.7 1380.1 169.6 1382.8 168.1C1385 166.9 1386.6 165 1387.5 162.7L1389.4 157.5L1404.9 161.2L1406.5 160.8C1413.3 159 1420.1 163.5 1421.3 170.4L1372.7 182.5Z" fill="#FF6682"/>
<path d="M1371.1 178.5L1420.1 167.5" stroke="black" stroke-width="2" stroke-linecap="round" stroke-linejoin="round"/>
<path d="M1372.7 182.4L1421.5 170.5" stroke="black" stroke-width="2" stroke-linecap="round" stroke-linejoin="round"/>
<path d="M1396.7 155.5C1396.5 155.4 1396.3 155.6 1396.2 155.8L1394.4 163.1C1394.3 163.3 1394.5 163.5 1394.7 163.6C1394.9 163.7 1395.1 163.5 1395.2 163.3L1397 156C1397 155.7 1396.9 155.5 1396.7 155.5Z" stroke="black" stroke-width="0.8007"/>
<path d="M1400.4 155.8C1400.2 155.7 1400 155.9 1399.9 156.1L1398.1 163.4C1398 163.6 1398.2 163.8 1398.4 163.9C1398.6 164 1398.8 163.8 1398.9 163.6L1400.7 156.3C1400.7 156.1 1400.6 155.8 1400.4 155.8Z" stroke="black" stroke-width="0.8007"/>
<path d="M1468.9 146.7C1466.2 147.4 1462.9 147.4 1462.2 143.4C1462.2 143.4 1458.9 126.5 1462.1 120.2C1465.3 113.9 1469 110.4 1480.2 106.1C1491.4 101.8 1512.9 108.7 1516.4 110.4C1519.9 112.1 1523.2 116.2 1524.1 118.8C1525 121.4 1524.1 125.3 1520.4 126.4C1520.2 126.5 1519.8 126.6 1519.3 126.8" fill="#95D2FF"/>
<path d="M1507.4 130.3C1499.1 133.7 1489 138.4 1480.9 141.1" stroke="black" stroke-width="1.5" stroke-miterlimit="10"/>
<path d="M1467.6 122.5C1467.2 123.3 1462.8 124.5 1460.6 125C1460.6 123.5 1462.1 119 1463.1 117.5C1464.1 116 1467.1 112.5 1467.6 113C1468.1 113.5 1468.1 121.5 1467.6 122.5Z" fill="#E8F7F6"/>
<path d="M1486.3 107.1C1483.1 107.1 1480.9 107.8 1477.7 109.4C1473.5 111.5 1470.8 114.7 1471.9 117.9C1472.5 119.6 1473.5 121.7 1474.9 124L1497.8 114.5C1497.5 114 1497.2 113.4 1497 113C1494.9 109.3 1489.4 107.1 1486.3 107.1Z" fill="#E8F7F6"/>
<path d="M1492.7 103.9C1492.7 104.1 1492.8 104.3 1493 104.3C1493 104.3 1507.7 110.4 1509 110.4C1510.3 110.4 1513.2 108.4 1513.2 108.4" fill="#E8F7F6"/>
<path d="M1521.5 116.6C1522 116.2 1521.8 115.1 1521.1 114.2C1520.4 113.3 1519.4 112.8 1518.9 113.2C1518.4 113.6 1518.6 114.7 1519.3 115.6C1520 116.5 1521 117 1521.5 116.6Z" fill="black"/>
<path d="M1515.4 133.6C1519 132.4 1521 128.4 1519.7 124.7C1518.4 121 1514.5 119 1510.8 120.3C1507.2 121.5 1505.2 125.5 1506.5 129.2C1507.8 132.9 1511.8 134.9 1515.4 133.6Z" fill="#1A1A1A" stroke="#1A1A1A" stroke-width="2" stroke-miterlimit="10"/>
<path d="M1476.1 147.1C1479.7 145.9 1481.7 141.9 1480.4 138.2C1479.1 134.5 1475.2 132.5 1471.5 133.8C1467.9 135 1465.9 139 1467.2 142.7C1468.5 146.3 1472.5 148.3 1476.1 147.1Z" fill="#1A1A1A" stroke="#1A1A1A" stroke-width="2" stroke-miterlimit="10"/>
<path d="M1474.9 124L1498.6 114.5" stroke="black" stroke-width="1.5" stroke-miterlimit="10" stroke-linecap="round"/>
<path d="M1360.1 95C1360.7 96.6 1359.6 98.9 1357.1 99.9C1354.6 100.8 1352.3 99.9 1351.6 98.2C1351 96.6 1352.1 94.3 1354.6 93.3C1357.2 92.4 1359.5 93.4 1360.1 95Z" stroke="#1A1A1A" stroke-width="2"/>
<path d="M1368.1 92.5L1390.6 84.5" stroke="black" stroke-width="2" stroke-linecap="round"/>
<path d="M680.1 664C686.175 664 691.1 659.075 691.1 653C691.1 646.925 686.175 642 680.1 642C674.025 642 669.1 646.925 669.1 653C669.1 659.075 674.025 664 680.1 664Z" fill="white"/>
<path d="M1298.1 213C1304.18 213 1309.1 208.075 1309.1 202C1309.1 195.925 1304.18 191 1298.1 191C1292.02 191 1287.1 195.925 1287.1 202C1287.1 208.075 1292.02 213 1298.1 213Z" fill="white"/>
<path d="M1252.1 333C1265.35 333 1276.1 322.255 1276.1 309C1276.1 295.745 1265.35 285 1252.1 285C1238.85 285 1228.1 295.745 1228.1 309C1228.1 322.255 1238.85 333 1252.1 333Z" stroke="#1A1A1A" stroke-width="2"/>
<path d="M771.1 770C784.355 770 795.1 759.255 795.1 746C795.1 732.745 784.355 722 771.1 722C757.845 722 747.1 732.745 747.1 746C747.1 759.255 757.845 770 771.1 770Z" stroke="white" stroke-width="2"/>
<path d="M1568.1 121.5L1544.6 68.5L1611.5 40L1635.6 89.5L1568.1 121.5Z" stroke="black" stroke-width="2" stroke-linecap="round" stroke-linejoin="round"/>
<path d="M1601.9 86.7C1597.4 85.1 1592.1 87.4 1590.2 91.8L1587.6 96.5L1583.4 106L1579.2 115.5L1624.3 94.6L1601.9 86.7Z" fill="#FCB643"/>
<path d="M1577.7 93.5L1586.5 112.4L1593.4 108.8L1587.9 96.9L1582.4 85C1582.4 85 1583.2 84.8 1583.3 84.8C1587 83.1 1588.6 76.9 1588.1 73C1587.6 69.1 1585.3 65 1582.5 66.6C1579.7 68.3 1579.7 70.7 1581 72.6C1582.3 74.4 1583.8 77.6 1582.9 79.2C1582.1 80.8 1580.2 80.3 1580.2 80.3C1580.2 80.3 1576.9 71.8 1575.7 68.9C1574.6 66 1572.4 63.8 1569.4 65.4C1566.4 67 1566.2 69.8 1567.6 73.1C1569 76.4 1576.5 90.7 1576.5 90.7C1576.5 90.7 1572.6 92.5 1571.5 89.3C1570.9 87.3 1569.8 84.4 1568.4 83.2C1566.3 81.5 1564.3 83.6 1564.2 85C1563.9 87.5 1568.3 93.6 1570.4 94.5C1573.1 96 1577.7 93.5 1577.7 93.5Z" fill="#00CB77"/>
<path d="M1582.4 85.1001L1593.4 108.9" stroke="black" stroke-width="2" stroke-miterlimit="10" stroke-linecap="round" stroke-linejoin="round"/>
<path d="M1604.6 68C1607.36 68 1609.6 65.7614 1609.6 63C1609.6 60.2386 1607.36 58 1604.6 58C1601.84 58 1599.6 60.2386 1599.6 63C1599.6 65.7614 1601.84 68 1604.6 68Z" fill="#FF8A00"/>
<path d="M264.3 648.7L453.5 735.3L512.4 581.6L322.6 517.4L264.3 648.7Z" fill="white" stroke="black" stroke-width="2.2" stroke-linecap="round" stroke-linejoin="round"/>
<path d="M399.099 668.7L300.899 627.1L328.799 555.1L431.099 587.7L399.099 668.7Z" stroke="black" stroke-width="2.2" stroke-linecap="round" stroke-linejoin="round"/>
<path d="M433.6 617.9L472.5 629.6" stroke="black" stroke-width="2.2" stroke-linecap="round" stroke-linejoin="round"/>
<path d="M428.399 631.2L467.299 642.9" stroke="black" stroke-width="2.2" stroke-linecap="round" stroke-linejoin="round"/>
<path d="M422.6 644.2L461.5 655.9" stroke="black" stroke-width="2.2" stroke-linecap="round" stroke-linejoin="round"/>
<path d="M360.4 610.4C359.7 604.5 361.5 591.7 347 592C332.5 592.2 329 620.1 360.8 626.1C392.6 632.1 386.4 602.3 373.4 600.5C363.1 599 360.5 606.5 360.4 610.4Z" fill="#FF6682"/>
<path d="M324.6 597.5C324.6 597.5 347.9 609.3 361.3 613.6C374.7 617.9 392 622.1 392 622.1" stroke="black" stroke-width="2.2" stroke-linecap="round"/>
<path d="M1590.6 234C1594.74 234 1598.1 230.642 1598.1 226.5C1598.1 222.358 1594.74 219 1590.6 219C1586.46 219 1583.1 222.358 1583.1 226.5C1583.1 230.642 1586.46 234 1590.6 234Z" fill="#EF4056"/>
<path d="M1122.6 384C1133.65 384 1142.6 375.046 1142.6 364C1142.6 352.954 1133.65 344 1122.6 344C1111.55 344 1102.6 352.954 1102.6 364C1102.6 375.046 1111.55 384 1122.6 384Z" fill="#EF4056"/>
<path d="M871.1 658C875.242 658 878.6 654.642 878.6 650.5C878.6 646.358 875.242 643 871.1 643C866.958 643 863.6 646.358 863.6 650.5C863.6 654.642 866.958 658 871.1 658Z" fill="#EF4056"/>
<path d="M1365.44 523.359C1365.44 523.359 1357.16 522.845 1353.31 527.36C1349.47 531.875 1347.13 542.662 1353.38 549.232C1355.72 551.694 1358.45 553.345 1361.3 554.143C1366.05 555.474 1371.15 554.433 1375.38 550.834C1382.16 545.075 1380.02 537.338 1376.9 534.052C1373.77 530.766 1365.82 533.724 1362.4 537.097C1356.61 542.802 1360.27 553.368 1360.27 553.368" stroke="#FFFBE3" stroke-width="3.00516" stroke-miterlimit="10" stroke-linecap="round" stroke-linejoin="round"/>
<path d="M1380.9 505.513C1386.41 498.936 1394.65 496.862 1401.29 499.245C1409.21 502.092 1409.78 513.217 1403.78 520.378C1397.77 527.539 1387.82 530.23 1382.98 526.479C1378.15 522.729 1375.58 511.869 1380.9 505.513Z" stroke="#FFFBE3" stroke-width="3.00516" stroke-miterlimit="10" stroke-linecap="round" stroke-linejoin="round"/>
<path d="M1425.84 490.336L1419.95 460.406L1432.11 462.919L1432.22 448.705L1456.59 459.86" stroke="#FFFBE3" stroke-width="3.00516" stroke-miterlimit="10" stroke-linecap="round" stroke-linejoin="round"/>
<path d="M1448.65 432.978L1462.82 454.272" stroke="#FFFBE3" stroke-width="3.00516" stroke-miterlimit="10" stroke-linecap="round" stroke-linejoin="round"/>
<path d="M1458.04 424.568L1470.81 443.382L1481.5 429.966" stroke="#FFFBE3" stroke-width="3.00516" stroke-miterlimit="10" stroke-linecap="round" stroke-linejoin="round"/>
<path d="M1473.9 407.248L1485.37 424.222L1494.36 413.234" stroke="#FFFBE3" stroke-width="3.00516" stroke-miterlimit="10" stroke-linecap="round" stroke-linejoin="round"/>
<path d="M1487.28 390.128L1498.98 408.03" stroke="#FFFBE3" stroke-width="3.00516" stroke-miterlimit="10" stroke-linecap="round" stroke-linejoin="round"/>
<path d="M1500.45 374.119C1507.81 366.972 1514.73 368.308 1517.12 370.822C1519.51 373.336 1524.86 381.792 1519.19 389.202C1513.52 396.613 1505.36 397.135 1501.68 392.966C1498 388.796 1493.38 380.982 1500.45 374.119Z" stroke="#FFFBE3" stroke-width="3.00516" stroke-miterlimit="10" stroke-linecap="round" stroke-linejoin="round"/>
<path d="M1527.14 376.416L1519.3 355.195L1544.81 356.415L1534.13 335.958" stroke="#FFFBE3" stroke-width="3.00516" stroke-miterlimit="10" stroke-linecap="round" stroke-linejoin="round"/>
<path d="M1602.21 404.512C1602.21 404.512 1600.48 394.907 1585.71 402.285C1575.44 407.416 1573.04 415.811 1574.45 421.101C1576.42 428.465 1589.16 420.437 1593 418.939C1597.33 417.249 1613.56 413.094 1617.33 423.075C1621.25 433.452 1618 439.457 1609.88 445.716C1601.76 451.976 1585.18 453.015 1580.29 443.17" stroke="#FFFBE3" stroke-width="3.00516" stroke-miterlimit="10" stroke-linecap="round" stroke-linejoin="round"/>
<path d="M1563.07 426.406L1533.24 445.142L1550.14 489.626L1581.9 466.444" stroke="#FFFBE3" stroke-width="3.00516" stroke-miterlimit="10" stroke-linecap="round" stroke-linejoin="round"/>
<path d="M1565.47 438.867L1538.88 457.359" stroke="#FFFBE3" stroke-width="3.00516" stroke-miterlimit="10" stroke-linecap="round" stroke-linejoin="round"/>
<path d="M1520.24 446.875L1530.26 503.367L1475.87 479.809" stroke="#FFFBE3" stroke-width="3.00516" stroke-miterlimit="10" stroke-linecap="round" stroke-linejoin="round"/>
<path d="M1518.28 527.501L1460.6 498.939L1458.74 567.135" stroke="#FFFBE3" stroke-width="3.00516" stroke-miterlimit="10" stroke-linecap="round" stroke-linejoin="round"/>
<path d="M1482.46 510.015L1459.77 526.962" stroke="#FFFBE3" stroke-width="3.00516" stroke-miterlimit="10" stroke-linecap="round" stroke-linejoin="round"/>
<path d="M1435.54 529.38C1435.54 529.38 1430.07 521.027 1415.38 529.412C1400.69 537.801 1403.74 544.118 1404.71 546.594C1405.68 549.07 1408.67 552.534 1423.35 548.78C1438.04 545.026 1447.42 553.059 1449.09 560.358C1450.76 567.658 1448.07 579.007 1430.67 589.343C1419.7 595.863 1407.49 589.185 1405.66 576.999" stroke="#FFFBE3" stroke-width="3.00516" stroke-miterlimit="10" stroke-linecap="round" stroke-linejoin="round"/>
<path d="M1385.63 458.399C1385.63 458.399 1384.89 438.799 1379.36 425.176" stroke="#FFFBE3" stroke-width="2.00344" stroke-miterlimit="10" stroke-linecap="round"/>
<path d="M1381.16 430.408C1381.16 430.408 1384.86 446.758 1390.19 446.167C1393.64 445.784 1395.09 444.752 1395.39 433.386C1395.68 422.021 1394.99 412.494 1391.82 414.644C1388.66 416.793 1396.09 435.122 1398.55 440.468" stroke="#FFFBE3" stroke-width="2.00344" stroke-miterlimit="10" stroke-linecap="round"/>
<path d="M1395.38 433.387C1395.38 433.387 1396.09 427.454 1397.67 425.912C1400.56 423.093 1401.58 430.875 1402.38 432.858C1403.19 434.841 1405.13 436.071 1407.15 433.233C1409.17 430.395 1408.35 425.534 1408.35 425.534" stroke="#FFFBE3" stroke-width="2.00344" stroke-miterlimit="10" stroke-linecap="round" stroke-linejoin="round"/>
<path d="M1376.78 444.398L1387.48 430.249" stroke="#FFFBE3" stroke-width="2.00344" stroke-miterlimit="10" stroke-linecap="round"/>
<path d="M1407.64 411.688C1404.03 414.881 1404.55 418.999 1406.75 423.008C1408.95 427.017 1410.94 427.652 1413.41 425.208C1415.88 422.764 1415.4 416.612 1413.24 412.007C1411.09 407.402 1407.64 411.688 1407.64 411.688Z" stroke="#FFFBE3" stroke-width="2.00344" stroke-miterlimit="10" stroke-linecap="round" stroke-linejoin="round"/>
<path d="M1411.32 408.015C1411.32 408.015 1411.61 409.01 1413.25 412.006C1414.89 415.006 1418.03 418.355 1420.12 416.124C1422.22 413.893 1421.54 408.41 1419.89 404.133C1418.23 399.856 1418.15 398.264 1419.36 397.447C1420.57 396.633 1422.84 397.012 1424.28 400.566C1425.72 404.12 1427.02 406.919 1427.02 406.919" stroke="#FFFBE3" stroke-width="2.00344" stroke-miterlimit="10" stroke-linecap="round" stroke-linejoin="round"/>
<path d="M1440.33 390.326C1440.33 390.326 1443.29 396.831 1439.42 399.293C1435.55 401.754 1432.74 398.927 1430.48 392.858C1428.67 387.995 1426.58 389.214 1425.6 389.812C1424.43 390.521 1421.41 394.042 1423.82 399.621" stroke="#FFFBE3" stroke-width="2.00344" stroke-miterlimit="10" stroke-linecap="round" stroke-linejoin="round"/>
<path d="M1446.01 613.559L1448.1 593.382L1455.72 599.679L1465.2 587.982L1472.81 610.271" stroke="#FFFBE3" stroke-width="3.00516" stroke-miterlimit="10" stroke-linecap="round" stroke-linejoin="round"/>
<path d="M1489.56 608.138C1495.58 608.761 1500.96 604.386 1501.59 598.366C1502.21 592.345 1497.83 586.96 1491.81 586.336C1485.79 585.713 1480.41 590.088 1479.78 596.108C1479.16 602.128 1483.54 607.514 1489.56 608.138Z" stroke="#FFFBE3" stroke-width="3.00516" stroke-miterlimit="10" stroke-linecap="round" stroke-linejoin="round"/>
<path d="M1509.25 609.634L1510.64 585.527L1531.09 616.85L1531.72 578.888" stroke="#FFFBE3" stroke-width="3.00516" stroke-miterlimit="10" stroke-linecap="round" stroke-linejoin="round"/>
<path d="M1554.73 580.172L1541.72 620.709" stroke="#FFFBE3" stroke-width="3.00516" stroke-miterlimit="10" stroke-linecap="round" stroke-linejoin="round"/>
<path d="M1538.15 580.661C1538.15 580.661 1554.85 579.087 1572.79 581.489" stroke="#FFFBE3" stroke-width="3.00516" stroke-miterlimit="10" stroke-linecap="round" stroke-linejoin="round"/>
<path d="M1566.98 589.709L1554.24 627.515" stroke="#FFFBE3" stroke-width="3.00516" stroke-miterlimit="10" stroke-linecap="round" stroke-linejoin="round"/>
<path d="M1586.34 588.954L1571.61 635.376" stroke="#FFFBE3" stroke-width="3.00516" stroke-miterlimit="10" stroke-linecap="round" stroke-linejoin="round"/>
<path d="M1563.71 599.985L1582.18 602.442" stroke="#FFFBE3" stroke-width="3.00516" stroke-miterlimit="10" stroke-linecap="round" stroke-linejoin="round"/>
<path d="M1576.54 542.862C1572.67 537.241 1564.26 548.641 1568.15 552.338C1570.66 554.733 1576.12 554.944 1585 547.845C1593.88 540.746 1600.72 534.078 1597.04 533.044C1593.35 532.01 1584.13 549.502 1581.62 554.828" stroke="#FFFBE3" stroke-width="2.00344" stroke-miterlimit="10" stroke-linecap="round"/>
<path d="M1585 547.845C1585 547.845 1589.99 544.558 1592.19 544.776C1596.21 545.171 1590.91 550.962 1589.91 552.855C1588.91 554.747 1589.22 557.024 1592.7 556.742C1596.17 556.459 1599.36 552.702 1599.36 552.702" stroke="#FFFBE3" stroke-width="2.00344" stroke-miterlimit="10" stroke-linecap="round" stroke-linejoin="round"/>
<path d="M1557.89 541.104C1553.12 540.403 1550.31 543.45 1548.66 547.718C1547.01 551.985 1547.81 553.916 1551.27 554.23C1554.73 554.543 1559.13 550.217 1561.26 545.598C1563.39 540.985 1557.89 541.104 1557.89 541.104Z" stroke="#FFFBE3" stroke-width="2.00344" stroke-miterlimit="10" stroke-linecap="round" stroke-linejoin="round"/>
<path d="M1563.07 541.554C1563.07 541.554 1562.5 542.417 1561.26 545.6C1560.02 548.785 1559.49 553.347 1562.54 553.512C1563.93 553.587 1565.45 552.798 1566.91 551.539" stroke="#FFFBE3" stroke-width="2.00344" stroke-miterlimit="10" stroke-linecap="round" stroke-linejoin="round"/>
<path d="M1547.78 550.211C1544.11 557.835 1536.24 557.514 1533.74 550.636C1531.24 543.758 1537.03 536.903 1543.6 538.117C1549.62 539.229 1544.65 544.725 1539.43 546.403C1534.21 548.081 1525.35 549.085 1523.37 543.437" stroke="#FFFBE3" stroke-width="2.00344" stroke-linecap="round" stroke-linejoin="round"/>
<path d="M1331.29 531.724L1312.36 505.09L1325.74 505.17L1313.82 490.214L1337.18 493.416" stroke="#FFFBE3" stroke-width="3.00516" stroke-miterlimit="10" stroke-linecap="round" stroke-linejoin="round"/>
<path d="M1333.78 482.783C1342.27 481.567 1348.13 473.478 1346.88 464.715C1345.62 455.953 1337.72 449.835 1329.23 451.051C1320.74 452.267 1314.88 460.356 1316.14 469.118C1317.39 477.881 1325.29 483.998 1333.78 482.783Z" stroke="#FFFBE3" stroke-width="3.00516" stroke-miterlimit="10" stroke-linecap="round" stroke-linejoin="round"/>
<path d="M1357.02 442.969C1357.02 442.969 1313.65 439.179 1313.39 438.98C1313.39 438.98 1312.55 420.191 1320.13 421.236C1327.71 422.281 1327.01 439.854 1327.01 439.854" stroke="#FFFBE3" stroke-width="3.00516" stroke-miterlimit="10" stroke-linecap="round" stroke-linejoin="round"/>
<path d="M1326.57 430.967C1326.57 430.967 1336.74 430.9 1344.1 430.379C1351.45 429.858 1351.89 423.67 1347.54 419.233" stroke="#FFFBE3" stroke-width="3.00516" stroke-miterlimit="10" stroke-linecap="round" stroke-linejoin="round"/>
<path d="M1348.81 380.643L1348.58 410.504L1316.8 409.197L1309.87 390.302" stroke="#FFFBE3" stroke-width="3.00516" stroke-miterlimit="10" stroke-linecap="round" stroke-linejoin="round"/>
<path d="M1325.53 388.505L1327.51 409.792" stroke="#FFFBE3" stroke-width="3.00516" stroke-miterlimit="10" stroke-linecap="round" stroke-linejoin="round"/>
<path d="M1215.73 558.839L1233.01 539.407" stroke="white" stroke-width="2.6031" stroke-linecap="round" stroke-linejoin="round"/>
<path d="M1213.05 573.403L1205.34 553.839L1234.92 523.538L1242.39 537.634" stroke="white" stroke-width="2.6031" stroke-linecap="round" stroke-linejoin="round"/>
<path d="M1450.09 639.69L1275.39 506.469C1272.81 504.502 1269.14 504.936 1267.09 507.45L1155.72 644.055C1154.36 645.725 1154 647.995 1154.77 650.006L1197.54 761.464C1198.38 763.658 1200.42 765.16 1202.77 765.309L1318.58 772.665C1320.26 772.772 1321.9 772.17 1323.12 771.006L1450.6 648.808C1453.27 646.255 1453.02 641.927 1450.09 639.69Z" fill="#1CB0A8"/>
<path d="M1424.9 641.022L1276.55 527.877C1274.83 526.566 1272.38 526.856 1271.01 528.532L1176.56 644.398C1175.66 645.511 1175.41 647.025 1175.93 648.366L1212.27 743.08C1212.83 744.542 1214.2 745.544 1215.76 745.643L1314.05 751.894C1315.17 751.965 1316.27 751.564 1317.08 750.788L1425.25 647.101C1427.02 645.399 1426.86 642.514 1424.9 641.022Z" fill="#95D5D2"/>
<path d="M1285.52 660.611C1292.73 626.73 1284.48 602.44 1268.31 577.539C1260.84 566.021 1250.5 578.042 1255.55 585.824C1275.04 615.843 1272.02 637.569 1271.39 676.252C1271.35 678.694 1274.29 680.444 1276.53 679.471C1314.87 662.814 1327.09 659.547 1357.89 668.492C1370.8 673.244 1379.53 660.363 1365.46 655.614C1334.38 646.589 1312.91 642.828 1285.52 660.611Z" fill="white"/>
<circle cx="1271.93" cy="516.883" r="2.5043" transform="rotate(-1.1879 1271.93 516.883)" stroke="#1A1A1A" stroke-width="2.00344"/>
<circle cx="1438.9" cy="644.675" r="2.5043" transform="rotate(-1.1879 1438.9 644.675)" stroke="#1A1A1A" stroke-width="2.00344"/>
</g>
<defs>
<clipPath id="clip0">
<rect width="1682" height="773" fill="white"/>
</clipPath>
</defs>
</svg>
