<svg width="1601" height="909" viewBox="0 0 1601 909" fill="none" xmlns="http://www.w3.org/2000/svg">
<g clip-path="url(#clip0)">
<path d="M1524.75 140C1425.26 171.02 1337.49 180.518 1240.95 211.386C1161.86 236.671 1094.08 289.401 1077.98 375.3C1050.89 519.77 1002.09 684 914.38 673C826.672 662 888.589 528.5 914.38 595.5C940.172 662.5 754.089 741 627.589 708C563.479 691.276 467.627 648.038 356 612.479C247.367 577.874 123.795 550.543 0 562" stroke="white" stroke-width="2" stroke-linecap="round" stroke-linejoin="round"/>
<path fill-rule="evenodd" clip-rule="evenodd" d="M1528.33 11.6462C1527.6 10.2752 1525.95 9.68241 1524.52 10.279L1319.89 95.5559L1318.29 84.3284C1317.83 81.1484 1314.54 79.2157 1311.54 80.3688L1266.79 97.5804C1264.86 98.3231 1263.59 100.178 1263.59 102.247V118.278L1254.57 122.013C1253.35 122.515 1252.61 123.749 1252.73 125.057L1271.81 334.493C1272.01 336.668 1274.39 337.909 1276.29 336.826L1599.4 152.328C1600.81 151.526 1601.32 149.752 1600.57 148.321L1528.33 11.6462Z" fill="white"/>
<path d="M1285.59 226L1276.59 152L1335.59 127.5L1349.09 195L1285.59 226Z" stroke="black" stroke-width="2" stroke-linecap="round" stroke-linejoin="round"/>
<path d="M1381.59 179.5C1376.92 162 1363.49 120.3 1363.09 117.5L1435.09 89.5L1459.59 144L1381.59 179.5Z" stroke="black" stroke-width="2" stroke-linecap="round" stroke-linejoin="round"/>
<path d="M1292.59 242.5L1356.09 211.5" stroke="black" stroke-width="2" stroke-linecap="round"/>
<path d="M1386.59 196L1466.09 160" stroke="black" stroke-width="2" stroke-linecap="round"/>
<path d="M1493.59 145L1559.09 114" stroke="black" stroke-width="2" stroke-linecap="round"/>
<path d="M1502.59 158L1564.09 128" stroke="black" stroke-width="2" stroke-linecap="round"/>
<path d="M1292.59 260.5L1356.59 228" stroke="black" stroke-width="2" stroke-linecap="round"/>
<path d="M1389.59 212L1472.59 173.5" stroke="black" stroke-width="2" stroke-linecap="round"/>
<path d="M1264.59 118.947L1254.95 122.937C1254.14 123.272 1253.64 124.094 1253.72 124.966L1272.81 334.402C1272.94 335.852 1274.53 336.679 1275.79 335.958L1598.91 151.46C1599.84 150.925 1600.19 149.743 1599.68 148.788L1527.44 12.1136C1526.96 11.1995 1525.86 10.8044 1524.9 11.2021L1319.09 96.9744" stroke="black" stroke-width="2" stroke-linecap="round"/>
<path d="M1264.59 119V102.247C1264.59 100.592 1265.61 99.108 1267.15 98.5138L1311.9 81.3022C1314.3 80.3797 1316.94 81.9259 1317.3 84.4699L1319.09 97" stroke="black" stroke-width="2" stroke-linecap="round"/>
<path d="M1292.19 192.5L1288.59 176.295L1293.54 178.446C1296.33 179.659 1299.53 179.529 1302.21 178.092C1304.38 176.935 1306.04 175.02 1306.88 172.715L1308.78 167.5L1324.24 171.164L1325.79 170.764C1332.59 169.009 1339.43 173.447 1340.59 180.366L1292.19 192.5Z" fill="#FF6682"/>
<path d="M1290.59 188.5L1339.59 177.5" stroke="black" stroke-width="2" stroke-linecap="round" stroke-linejoin="round"/>
<path d="M1292.1 192.427L1340.9 180.573" stroke="black" stroke-width="2" stroke-linecap="round" stroke-linejoin="round"/>
<path d="M1315.64 165.811C1315.69 165.596 1315.91 165.465 1316.12 165.518C1316.34 165.571 1316.47 165.788 1316.41 166.003L1314.62 173.258C1314.57 173.473 1314.35 173.604 1314.14 173.55C1313.92 173.497 1313.79 173.28 1313.84 173.066L1315.64 165.811Z" stroke="black" stroke-width="0.800696"/>
<path d="M1319.33 166.132C1319.38 165.917 1319.6 165.786 1319.81 165.839C1320.03 165.892 1320.16 166.109 1320.1 166.324L1318.31 173.579C1318.26 173.793 1318.04 173.924 1317.83 173.871C1317.61 173.818 1317.48 173.601 1317.53 173.387L1319.33 166.132Z" stroke="black" stroke-width="0.800696"/>
<path d="M1388.33 156.787C1385.67 157.471 1382.33 157.483 1381.62 153.44C1381.62 153.44 1378.29 136.508 1381.48 130.225C1384.68 123.941 1388.38 120.421 1399.6 116.131C1410.83 111.842 1432.33 118.71 1435.82 120.45C1439.31 122.191 1442.66 126.26 1443.56 128.887C1444.46 131.514 1443.57 135.429 1439.91 136.454C1439.69 136.517 1439.3 136.638 1438.77 136.809" fill="#95D2FF"/>
<path d="M1426.87 140.375C1418.53 143.819 1408.49 148.44 1400.39 151.197" stroke="black" stroke-width="1.5" stroke-miterlimit="10"/>
<path d="M1387 132.539C1386.6 133.339 1382.17 134.539 1380 135.039C1380 133.539 1381.5 129 1382.5 127.5C1383.5 126 1386.5 122.539 1387 123.039C1387.5 123.539 1387.5 131.539 1387 132.539Z" fill="#E8F7F6"/>
<path d="M1405.74 117.122C1402.58 117.104 1400.35 117.787 1397.14 119.402C1392.96 121.508 1390.27 124.687 1391.37 127.92C1391.94 129.577 1392.97 131.727 1394.39 134L1417.26 124.5C1416.98 123.955 1416.7 123.435 1416.41 122.951C1414.3 119.384 1408.89 117.141 1405.74 117.122Z" fill="#E8F7F6"/>
<path d="M1412.19 113.919L1412.24 113.973C1412.21 114.135 1412.3 114.294 1412.46 114.343C1412.46 114.343 1427.2 120.438 1428.45 120.435C1429.7 120.432 1432.64 118.453 1432.64 118.453" fill="#E8F7F6"/>
<path d="M1440.99 126.632C1441.49 126.236 1441.31 125.159 1440.59 124.228C1439.87 123.297 1438.88 122.864 1438.37 123.261C1437.87 123.658 1438.05 124.734 1438.77 125.665C1439.49 126.596 1440.48 127.029 1440.99 126.632Z" fill="black"/>
<path d="M1434.84 143.668C1438.47 142.426 1440.4 138.433 1439.14 134.751C1437.88 131.068 1433.91 129.089 1430.28 130.332C1426.65 131.574 1424.72 135.567 1425.98 139.25C1427.24 142.932 1431.21 144.911 1434.84 143.668Z" fill="#1A1A1A" stroke="#1A1A1A" stroke-width="2" stroke-miterlimit="10"/>
<path d="M1395.55 157.101C1399.18 155.859 1401.11 151.866 1399.85 148.184C1398.59 144.501 1394.62 142.523 1390.99 143.765C1387.36 145.007 1385.43 149 1386.69 152.683C1387.95 156.365 1391.92 158.344 1395.55 157.101Z" fill="#1A1A1A" stroke="#1A1A1A" stroke-width="2" stroke-miterlimit="10"/>
<path d="M1394.38 134.018L1418.1 124.568" stroke="black" stroke-width="1.5" stroke-miterlimit="10" stroke-linecap="round"/>
<path d="M1279.53 105.063C1280.15 106.705 1279.07 108.98 1276.56 109.926C1274.05 110.872 1271.73 109.881 1271.11 108.239C1270.49 106.597 1271.58 104.323 1274.09 103.376C1276.6 102.43 1278.91 103.422 1279.53 105.063Z" stroke="#1A1A1A" stroke-width="2"/>
<path d="M1287.59 102.5L1310.09 94.5" stroke="black" stroke-width="2" stroke-linecap="round"/>
<path d="M599.588 674C605.663 674 610.588 669.075 610.588 663C610.588 656.925 605.663 652 599.588 652C593.513 652 588.588 656.925 588.588 663C588.588 669.075 593.513 674 599.588 674Z" fill="white"/>
<path d="M1217.59 223C1223.66 223 1228.59 218.075 1228.59 212C1228.59 205.925 1223.66 201 1217.59 201C1211.51 201 1206.59 205.925 1206.59 212C1206.59 218.075 1211.51 223 1217.59 223Z" fill="white"/>
<path d="M1171.59 343C1184.84 343 1195.59 332.255 1195.59 319C1195.59 305.745 1184.84 295 1171.59 295C1158.34 295 1147.59 305.745 1147.59 319C1147.59 332.255 1158.34 343 1171.59 343Z" stroke="white" stroke-width="2"/>
<path d="M690.588 780C703.843 780 714.588 769.255 714.588 756C714.588 742.745 703.843 732 690.588 732C677.333 732 666.588 742.745 666.588 756C666.588 769.255 677.333 780 690.588 780Z" stroke="white" stroke-width="2"/>
<path d="M1487.5 131.5L1464 78.5L1530.91 50L1555 99.5L1487.5 131.5Z" stroke="black" stroke-width="2" stroke-linecap="round" stroke-linejoin="round"/>
<path d="M1521.31 96.7957C1516.82 95.2159 1511.56 97.505 1509.63 101.879L1507 106.573L1502.8 116.093L1498.6 125.614L1543.68 104.665L1521.31 96.7957Z" fill="#FCB643"/>
<path d="M1497.12 103.59L1505.87 122.517L1512.79 118.911L1507.3 107.019L1501.8 95.1264C1501.8 95.1264 1502.58 94.9717 1502.7 94.9141C1506.38 93.2162 1507.96 86.9958 1507.52 83.1364C1507.07 79.2771 1504.7 75.0919 1501.91 76.7854C1499.12 78.479 1499.13 80.9136 1500.43 82.7536C1501.73 84.5936 1503.2 87.7756 1502.37 89.3752C1501.55 90.9747 1499.64 90.4366 1499.64 90.4366C1499.64 90.4366 1496.32 81.9796 1495.19 79.0475C1494.05 76.1154 1491.89 73.9192 1488.84 75.5297C1485.8 77.1402 1485.61 79.955 1487 83.2687C1488.39 86.5822 1495.92 100.895 1495.92 100.895C1495.92 100.895 1491.99 102.721 1490.92 99.482C1490.28 97.5204 1489.21 94.5665 1487.78 93.4291C1485.64 91.7264 1483.69 93.841 1483.55 95.2113C1483.29 97.7302 1487.63 103.806 1489.74 104.749C1492.54 106.005 1497.12 103.59 1497.12 103.59Z" fill="#00CB77"/>
<path d="M1501.8 95.1265L1512.79 118.911" stroke="black" stroke-width="2" stroke-miterlimit="10" stroke-linecap="round" stroke-linejoin="round"/>
<path d="M1524 78C1526.76 78 1529 75.7614 1529 73C1529 70.2386 1526.76 68 1524 68C1521.24 68 1519 70.2386 1519 73C1519 75.7614 1521.24 78 1524 78Z" fill="#FF8A00"/>
<path d="M1510.09 244C1514.23 244 1517.59 240.642 1517.59 236.5C1517.59 232.358 1514.23 229 1510.09 229C1505.95 229 1502.59 232.358 1502.59 236.5C1502.59 240.642 1505.95 244 1510.09 244Z" fill="#EF4056"/>
<path d="M1042 394C1053.05 394 1062 385.046 1062 374C1062 362.954 1053.05 354 1042 354C1030.95 354 1022 362.954 1022 374C1022 385.046 1030.95 394 1042 394Z" fill="#EF4056"/>
<path d="M790.5 668C794.642 668 798 664.642 798 660.5C798 656.358 794.642 653 790.5 653C786.358 653 783 656.358 783 660.5C783 664.642 786.358 668 790.5 668Z" fill="#EF4056"/>
<path d="M1143.21 688.797C1143.21 688.797 1135.87 688.342 1132.46 692.343C1129.05 696.344 1126.98 705.903 1132.52 711.725C1134.6 713.908 1137.02 715.37 1139.54 716.078C1143.75 717.258 1148.27 716.335 1152.02 713.145C1158.02 708.042 1156.13 701.185 1153.36 698.273C1150.59 695.361 1143.54 697.983 1140.52 700.972C1135.39 706.027 1138.62 715.391 1138.62 715.391" stroke="#FFFBE3" stroke-width="3.00516" stroke-miterlimit="10" stroke-linecap="round" stroke-linejoin="round"/>
<path d="M1156.91 672.982C1161.79 667.153 1169.09 665.315 1174.97 667.427C1182 669.95 1182.5 679.809 1177.18 686.155C1171.86 692.501 1163.04 694.886 1158.75 691.562C1154.47 688.238 1152.2 678.615 1156.91 672.982Z" stroke="#FFFBE3" stroke-width="3.00516" stroke-miterlimit="10" stroke-linecap="round" stroke-linejoin="round"/>
<path d="M1196.73 659.531L1191.52 633.007L1202.3 635.235L1202.39 622.638L1223.99 632.524" stroke="#FFFBE3" stroke-width="3.00516" stroke-miterlimit="10" stroke-linecap="round" stroke-linejoin="round"/>
<path d="M1216.95 608.7L1229.51 627.572" stroke="#FFFBE3" stroke-width="3.00516" stroke-miterlimit="10" stroke-linecap="round" stroke-linejoin="round"/>
<path d="M1225.27 601.248L1236.59 617.921L1246.06 606.031" stroke="#FFFBE3" stroke-width="3.00516" stroke-miterlimit="10" stroke-linecap="round" stroke-linejoin="round"/>
<path d="M1239.32 585.898L1249.49 600.941L1257.46 591.204" stroke="#FFFBE3" stroke-width="3.00516" stroke-miterlimit="10" stroke-linecap="round" stroke-linejoin="round"/>
<path d="M1251.18 570.727L1261.55 586.591" stroke="#FFFBE3" stroke-width="3.00516" stroke-miterlimit="10" stroke-linecap="round" stroke-linejoin="round"/>
<path d="M1262.86 556.539C1269.38 550.205 1275.51 551.39 1277.63 553.618C1279.74 555.846 1284.49 563.339 1279.46 569.906C1274.44 576.473 1267.21 576.936 1263.94 573.242C1260.68 569.547 1256.59 562.621 1262.86 556.539Z" stroke="#FFFBE3" stroke-width="3.00516" stroke-miterlimit="10" stroke-linecap="round" stroke-linejoin="round"/>
<path d="M1286.51 558.575L1279.56 539.769L1302.17 540.85L1292.7 522.721" stroke="#FFFBE3" stroke-width="3.00516" stroke-miterlimit="10" stroke-linecap="round" stroke-linejoin="round"/>
<path d="M1353.04 583.474C1353.04 583.474 1351.5 574.962 1338.41 581.5C1329.31 586.047 1327.18 593.487 1328.43 598.175C1330.18 604.702 1341.47 597.586 1344.87 596.259C1348.71 594.761 1363.1 591.079 1366.44 599.924C1369.91 609.12 1367.03 614.442 1359.83 619.989C1352.63 625.537 1337.95 626.457 1333.61 617.733" stroke="#FFFBE3" stroke-width="3.00516" stroke-miterlimit="10" stroke-linecap="round" stroke-linejoin="round"/>
<path d="M1318.35 602.876L1291.91 619.481L1306.89 658.902L1335.04 638.358" stroke="#FFFBE3" stroke-width="3.00516" stroke-miterlimit="10" stroke-linecap="round" stroke-linejoin="round"/>
<path d="M1320.47 613.92L1296.91 630.307" stroke="#FFFBE3" stroke-width="3.00516" stroke-miterlimit="10" stroke-linecap="round" stroke-linejoin="round"/>
<path d="M1280.4 621.016L1289.27 671.079L1241.07 650.202" stroke="#FFFBE3" stroke-width="3.00516" stroke-miterlimit="10" stroke-linecap="round" stroke-linejoin="round"/>
<path d="M1278.66 692.467L1227.54 667.155L1225.89 727.591" stroke="#FFFBE3" stroke-width="3.00516" stroke-miterlimit="10" stroke-linecap="round" stroke-linejoin="round"/>
<path d="M1246.91 676.971L1226.81 691.99" stroke="#FFFBE3" stroke-width="3.00516" stroke-miterlimit="10" stroke-linecap="round" stroke-linejoin="round"/>
<path d="M1205.33 694.133C1205.33 694.133 1200.48 686.73 1187.46 694.161C1174.44 701.595 1177.15 707.194 1178.01 709.388C1178.87 711.582 1181.52 714.652 1194.53 711.325C1207.54 707.999 1215.86 715.117 1217.34 721.586C1218.82 728.055 1216.44 738.112 1201.02 747.272C1191.29 753.05 1180.47 747.132 1178.85 736.333" stroke="#FFFBE3" stroke-width="3.00516" stroke-miterlimit="10" stroke-linecap="round" stroke-linejoin="round"/>
<path d="M1161.1 631.229C1161.1 631.229 1160.44 613.859 1155.55 601.786" stroke="#FFFBE3" stroke-width="2.00344" stroke-miterlimit="10" stroke-linecap="round"/>
<path d="M1157.13 606.423C1157.13 606.423 1160.41 620.913 1165.14 620.389C1168.2 620.05 1169.49 619.134 1169.75 609.062C1170 598.99 1169.39 590.547 1166.59 592.453C1163.78 594.358 1170.37 610.6 1172.55 615.339" stroke="#FFFBE3" stroke-width="2.00344" stroke-miterlimit="10" stroke-linecap="round"/>
<path d="M1169.74 609.063C1169.74 609.063 1170.37 603.805 1171.77 602.439C1174.33 599.941 1175.23 606.837 1175.95 608.594C1176.66 610.351 1178.38 611.442 1180.17 608.927C1181.96 606.412 1181.24 602.103 1181.24 602.103" stroke="#FFFBE3" stroke-width="2.00344" stroke-miterlimit="10" stroke-linecap="round" stroke-linejoin="round"/>
<path d="M1153.26 618.821L1162.74 606.282" stroke="#FFFBE3" stroke-width="2.00344" stroke-miterlimit="10" stroke-linecap="round"/>
<path d="M1180.6 589.833C1177.41 592.663 1177.86 596.312 1179.81 599.865C1181.77 603.418 1183.53 603.981 1185.72 601.815C1187.91 599.649 1187.49 594.197 1185.57 590.116C1183.66 586.035 1180.6 589.833 1180.6 589.833Z" stroke="#FFFBE3" stroke-width="2.00344" stroke-miterlimit="10" stroke-linecap="round" stroke-linejoin="round"/>
<path d="M1183.87 586.579C1183.87 586.579 1184.12 587.46 1185.58 590.115C1187.03 592.773 1189.81 595.741 1191.67 593.764C1193.53 591.787 1192.92 586.928 1191.46 583.138C1189.99 579.348 1189.92 577.937 1190.99 577.213C1192.07 576.491 1194.07 576.827 1195.35 579.977C1196.63 583.127 1197.78 585.607 1197.78 585.607" stroke="#FFFBE3" stroke-width="2.00344" stroke-miterlimit="10" stroke-linecap="round" stroke-linejoin="round"/>
<path d="M1209.57 570.903C1209.57 570.903 1212.2 576.667 1208.77 578.848C1205.34 581.03 1202.85 578.525 1200.85 573.146C1199.24 568.837 1197.39 569.917 1196.52 570.447C1195.49 571.075 1192.81 574.195 1194.94 579.14" stroke="#FFFBE3" stroke-width="2.00344" stroke-miterlimit="10" stroke-linecap="round" stroke-linejoin="round"/>
<path d="M1214.61 768.732L1216.46 750.852L1223.21 756.432L1231.61 746.066L1238.36 765.819" stroke="#FFFBE3" stroke-width="3.00516" stroke-miterlimit="10" stroke-linecap="round" stroke-linejoin="round"/>
<path d="M1253.2 763.928C1258.54 764.48 1263.31 760.603 1263.86 755.268C1264.42 749.933 1260.54 745.16 1255.2 744.608C1249.87 744.055 1245.1 747.933 1244.54 753.268C1243.99 758.603 1247.87 763.376 1253.2 763.928Z" stroke="#FFFBE3" stroke-width="3.00516" stroke-miterlimit="10" stroke-linecap="round" stroke-linejoin="round"/>
<path d="M1270.66 765.254L1271.89 743.89L1290.01 771.649L1290.57 738.007" stroke="#FFFBE3" stroke-width="3.00516" stroke-miterlimit="10" stroke-linecap="round" stroke-linejoin="round"/>
<path d="M1310.96 739.145L1299.43 775.069" stroke="#FFFBE3" stroke-width="3.00516" stroke-miterlimit="10" stroke-linecap="round" stroke-linejoin="round"/>
<path d="M1296.27 739.579C1296.27 739.579 1311.07 738.184 1326.97 740.312" stroke="#FFFBE3" stroke-width="3.00516" stroke-miterlimit="10" stroke-linecap="round" stroke-linejoin="round"/>
<path d="M1321.81 747.596L1310.52 781.1" stroke="#FFFBE3" stroke-width="3.00516" stroke-miterlimit="10" stroke-linecap="round" stroke-linejoin="round"/>
<path d="M1338.97 746.928L1325.92 788.067" stroke="#FFFBE3" stroke-width="3.00516" stroke-miterlimit="10" stroke-linecap="round" stroke-linejoin="round"/>
<path d="M1318.91 756.703L1335.29 758.88" stroke="#FFFBE3" stroke-width="3.00516" stroke-miterlimit="10" stroke-linecap="round" stroke-linejoin="round"/>
<path d="M1330.29 706.08C1326.86 701.099 1319.4 711.202 1322.85 714.478C1325.08 716.601 1329.91 716.788 1337.78 710.497C1345.65 704.205 1351.72 698.296 1348.45 697.38C1345.19 696.463 1337.01 711.965 1334.79 716.685" stroke="#FFFBE3" stroke-width="2.00344" stroke-miterlimit="10" stroke-linecap="round"/>
<path d="M1337.78 710.496C1337.78 710.496 1342.2 707.583 1344.15 707.776C1347.72 708.127 1343.02 713.259 1342.14 714.936C1341.25 716.613 1341.53 718.631 1344.6 718.381C1347.68 718.131 1350.51 714.8 1350.51 714.8" stroke="#FFFBE3" stroke-width="2.00344" stroke-miterlimit="10" stroke-linecap="round" stroke-linejoin="round"/>
<path d="M1313.76 704.523C1309.53 703.901 1307.04 706.602 1305.58 710.383C1304.12 714.165 1304.82 715.877 1307.89 716.154C1310.96 716.432 1314.85 712.598 1316.74 708.505C1318.64 704.417 1313.76 704.523 1313.76 704.523Z" stroke="#FFFBE3" stroke-width="2.00344" stroke-miterlimit="10" stroke-linecap="round" stroke-linejoin="round"/>
<path d="M1318.35 704.921C1318.35 704.921 1317.84 705.686 1316.75 708.507C1315.65 711.329 1315.17 715.372 1317.88 715.519C1319.11 715.585 1320.46 714.886 1321.76 713.77" stroke="#FFFBE3" stroke-width="2.00344" stroke-miterlimit="10" stroke-linecap="round" stroke-linejoin="round"/>
<path d="M1304.8 712.593C1301.55 719.35 1294.58 719.065 1292.36 712.97C1290.14 706.874 1295.28 700.8 1301.1 701.875C1306.43 702.861 1302.02 707.732 1297.4 709.219C1292.78 710.706 1284.92 711.595 1283.17 706.59" stroke="#FFFBE3" stroke-width="2.00344" stroke-linecap="round" stroke-linejoin="round"/>
<path d="M1112.95 696.21L1096.17 672.606L1108.03 672.678L1097.47 659.423L1118.17 662.261" stroke="#FFFBE3" stroke-width="3.00516" stroke-miterlimit="10" stroke-linecap="round" stroke-linejoin="round"/>
<path d="M1115.15 652.838C1122.67 651.76 1127.87 644.592 1126.76 636.827C1125.65 629.061 1118.65 623.64 1111.12 624.717C1103.6 625.795 1098.4 632.963 1099.52 640.728C1100.63 648.494 1107.63 653.915 1115.15 652.838Z" stroke="#FFFBE3" stroke-width="3.00516" stroke-miterlimit="10" stroke-linecap="round" stroke-linejoin="round"/>
<path d="M1135.75 617.555C1135.75 617.555 1097.31 614.196 1097.08 614.02C1097.08 614.02 1096.34 597.369 1103.06 598.295C1109.78 599.221 1109.16 614.794 1109.16 614.794" stroke="#FFFBE3" stroke-width="3.00516" stroke-miterlimit="10" stroke-linecap="round" stroke-linejoin="round"/>
<path d="M1108.76 606.918C1108.76 606.918 1117.78 606.859 1124.3 606.398C1130.81 605.936 1131.21 600.452 1127.35 596.52" stroke="#FFFBE3" stroke-width="3.00516" stroke-miterlimit="10" stroke-linecap="round" stroke-linejoin="round"/>
<path d="M1128.48 562.321L1128.27 588.784L1100.11 587.625L1093.97 570.881" stroke="#FFFBE3" stroke-width="3.00516" stroke-miterlimit="10" stroke-linecap="round" stroke-linejoin="round"/>
<path d="M1107.84 569.289L1109.6 588.153" stroke="#FFFBE3" stroke-width="3.00516" stroke-miterlimit="10" stroke-linecap="round" stroke-linejoin="round"/>
<path d="M1016.39 755.373L1033.67 735.94" stroke="white" stroke-width="2.6031" stroke-linecap="round" stroke-linejoin="round"/>
<path d="M1013.71 769.936L1006 750.372L1035.58 720.071L1043.05 734.168" stroke="white" stroke-width="2.6031" stroke-linecap="round" stroke-linejoin="round"/>
<path d="M1217.59 791.405L1063.93 674.23C1061.36 672.263 1057.68 672.698 1055.63 675.212L957.607 795.451C956.246 797.121 955.882 799.391 956.654 801.402L994.254 899.397C995.096 901.591 997.139 903.093 999.484 903.242L1101.38 909.715C1103.06 909.821 1104.71 909.219 1105.92 908.055L1218.1 800.523C1220.77 797.97 1220.52 793.643 1217.59 791.405Z" fill="#1CB0A8"/>
<path d="M1195.48 792.748L1064.78 693.069C1063.06 691.757 1060.61 692.047 1059.25 693.723L975.991 795.858C975.084 796.971 974.841 798.484 975.356 799.825L1007.37 883.242C1007.93 884.704 1009.29 885.705 1010.85 885.805L1097.47 891.313C1098.59 891.384 1099.69 890.983 1100.5 890.207L1195.82 798.826C1197.6 797.124 1197.44 794.239 1195.48 792.748Z" fill="#95D5D2"/>
<path d="M1072.38 810.43C1078.77 780.405 1071.46 758.879 1057.14 736.811C1050.51 726.605 1041.35 737.257 1045.83 744.154C1063.1 770.757 1060.42 790.01 1059.86 824.292C1059.83 826.456 1062.43 828.007 1064.41 827.144C1098.39 812.383 1109.22 809.487 1136.52 817.414C1147.96 821.626 1155.69 810.211 1143.23 806.002C1115.68 798.004 1096.66 794.671 1072.38 810.43Z" fill="white"/>
<circle cx="1061.56" cy="683.556" r="2.5043" transform="rotate(-1.1879 1061.56 683.556)" stroke="#1A1A1A" stroke-width="2.00344"/>
<circle cx="1208.56" cy="796.556" r="2.5043" transform="rotate(-1.1879 1208.56 796.556)" stroke="#1A1A1A" stroke-width="2.00344"/>
</g>
<defs>
<clipPath id="clip0">
<rect width="1601" height="909" fill="white"/>
</clipPath>
</defs>
</svg>
