<svg width="240" height="116" fill="none" xmlns="http://www.w3.org/2000/svg"><path d="M184.673 13H68.259v20.942h116.414V13Z" fill="#fff"/><path d="M77.776 27.306a2.483 2.483 0 1 0 0-4.966 2.483 2.483 0 0 0 0 4.966ZM88.9 27.155a2.483 2.483 0 1 0 0-4.967 2.483 2.483 0 0 0 0 4.967ZM100.027 27.155a2.483 2.483 0 1 0 0-4.967 2.483 2.483 0 0 0 0 4.967Z" fill="#000"/><path d="M184.673 34.137H68.259v68.553h116.414V34.137Z" fill="#fff"/><path d="M67.95 34.07h116.423" stroke="#000" stroke-width="2" stroke-miterlimit="10"/><path d="M135.935 50.672h24.808M135.935 58.022h18.336M135.935 65.373h18.336" stroke="#000" stroke-width="2" stroke-miterlimit="10" stroke-linecap="round"/><rect x="76.293" y="45.24" width="48.535" height="45.779" rx="3" fill="#fff" stroke="#000" stroke-width="2"/><path d="M88.646 67.138v-.284c0-6.274 5.086-11.36 11.36-11.36v0c6.274 0 11.36 5.18 11.36 11.455v0" stroke="#000" stroke-width="2" stroke-linecap="round"/><path d="M88.602 68.21h2.23v11.783h-2.23a3.121 3.121 0 0 1-3.121-3.121v-5.54a3.121 3.121 0 0 1 3.121-3.122ZM111.599 79.993h-2.229V68.21h2.229a3.122 3.122 0 0 1 3.122 3.12v5.54a3.122 3.122 0 0 1-3.122 3.122Z" stroke="#000" stroke-width="2"/><path d="M67.942 13.308h116.431v87.778a2.462 2.462 0 0 1-2.462 2.462H70.421a2.461 2.461 0 0 1-2.479-2.462V13.308Z" stroke="#000" stroke-width="2" stroke-linejoin="round"/><path d="M181.601 96.063c11.52 0 20.858-9.339 20.858-20.858 0-11.52-9.338-20.858-20.858-20.858-11.519 0-20.858 9.338-20.858 20.858 0 11.52 9.339 20.858 20.858 20.858Z" fill="#B3FFE3" stroke="#000" stroke-width="2" stroke-miterlimit="10"/><path d="m188.816 84.416-1.952-4.413h-10.833l-1.952 4.413h-2.404l8.57-19.432h2.405l8.57 19.432h-2.404Zm-11.88-6.506h9.023l-4.497-10.21-4.526 10.21Z" fill="#000"/><path d="M199.501 18v17M207 31l-15-9M207.075 22.127l-15.149 8.746M42.47 66.082l2.615-2.817a1.25 1.25 0 0 1 1.832 0l2.616 2.817M49.533 42.173l-2.616 2.818a1.25 1.25 0 0 1-1.832 0l-2.616-2.818M46 59v9M46 40v9M54.587 63.163l-1.132-3.674a1.25 1.25 0 0 1 .916-1.586l3.748-.857M37.415 45.092l1.131 3.674a1.25 1.25 0 0 1-.916 1.586l-3.747.857M33.766 47.064 42 52M50 56l8 5M58.119 51.209l-3.748-.857a1.25 1.25 0 0 1-.916-1.586l1.132-3.674M33.882 57.046l3.748.857a1.25 1.25 0 0 1 .916 1.586l-1.132 3.674M50 52l8.236-4.936M33.766 61.191 42 56" stroke="#000" stroke-width="1.8" stroke-linecap="round"/><path d="M42 56.434v-4.868l4-2.4 4 2.4v4.868l-4 2.4-4-2.4Z" stroke="#000" stroke-width="2" stroke-linecap="round"/></svg>
