<?xml version="1.0" encoding="UTF-8"?>
<svg width="487px" height="34px" viewBox="0 0 487 34" version="1.1" xmlns="http://www.w3.org/2000/svg" xmlns:xlink="http://www.w3.org/1999/xlink">
    <!-- Generator: Sketch 47 (45396) - http://www.bohemiancoding.com/sketch -->
    <title>Copy</title>
    <desc>Created with Sketch.</desc>
    <defs></defs>
    <g id="Page-1" stroke="none" stroke-width="1" fill="none" fill-rule="evenodd">
        <g id="Copy" fill="#FFFFFF">
            <path d="M22.4897879,33.512894 L23.4488407,23.3810888 L20.3319191,23.1375358 L19.3728663,30.3954155 L7.4326591,30.3954155 L7.4326591,4.96848138 L12.6594968,4.96848138 L12.6594968,1.85100287 L0,1.85100287 L0,4.96848138 L3.93211643,4.96848138 L3.93211643,30.3954155 L0,30.3954155 L0,33.512894 L22.4897879,33.512894 Z M46.9456339,22.6504298 C46.9456339,29.226361 42.821707,34 36.2521954,34 C29.778589,34 25.8944253,29.3724928 25.8944253,22.8452722 C25.8944253,16.512894 29.5388259,11.3495702 36.4440059,11.3495702 C43.3971386,11.3495702 46.9456339,16.512894 46.9456339,22.6504298 Z M43.3971386,22.6017192 C43.3971386,17.6332378 40.8076961,14.2722063 36.3481006,14.2722063 C31.8885052,14.2722063 29.3949679,17.8280802 29.3949679,22.6504298 C29.3949679,27.3753582 31.7925999,31.0773639 36.3481006,31.0773639 C40.9036014,31.0773639 43.3971386,27.4727794 43.3971386,22.6017192 Z M71.9289591,14.6131805 L71.9289591,11.8366762 L62.5781944,11.8366762 L62.5781944,14.6131805 L65.9828318,14.6131805 L60.6600888,28.8853868 L60.372373,28.8853868 L54.4262457,14.6131805 L58.1185989,14.6131805 L58.1185989,11.8366762 L48.2883078,11.8366762 L48.2883078,14.6131805 L50.7818451,14.6131805 L58.9337938,33.512894 L61.5232363,33.512894 L69.3395165,14.6131805 L71.9289591,14.6131805 Z M92.4047361,27.277937 C91.8293044,30.9799427 88.7123828,34 83.4375925,34 C77.3955599,34 73.3675382,30.0057307 73.3675382,22.991404 C73.3675382,16.269341 77.1078441,11.3982808 83.1498767,11.3982808 C89.0000987,11.3982808 92.1649729,15.782235 92.2129255,20.8968481 C92.2129255,21.7249284 92.1170202,22.6017192 91.9252097,23.47851 L76.9160335,23.47851 C77.1078441,28.3008596 79.4575234,31.0773639 83.6773557,31.0773639 C87.0340405,31.0773639 88.9041934,29.3237822 89.5755303,26.6446991 L92.4047361,27.277937 Z M88.6644302,20.9455587 C89.0000987,17.730659 87.225851,14.2234957 83.0539714,14.2234957 C79.121855,14.2234957 77.3955599,17.2922636 76.9639862,20.9455587 L88.6644302,20.9455587 Z M122.518994,27.6676218 L119.977504,26.8395415 C119.354119,30.3467049 117.771682,31.0286533 116.09334,31.0286533 C113.503897,31.0286533 112.496892,29.3237822 112.496892,26.6934097 L112.496892,14.5644699 L120.840651,14.5644699 L120.840651,11.8366762 L112.496892,11.8366762 L112.496892,4.87106017 L109.140207,4.87106017 L109.140207,11.8366762 L105.687617,11.8366762 L105.687617,14.5644699 L109.140207,14.5644699 L109.140207,27.1318052 C109.140207,31.3696275 111.489887,34 115.757671,34 C119.593883,34 121.943562,31.8567335 122.518994,27.6676218 Z M149.180661,33.512894 L149.180661,30.7363897 L145.488308,30.7363897 L145.488308,19.6303725 C145.488308,13.8825215 142.323434,11.3982808 138.151554,11.3982808 C134.698964,11.3982808 132.109521,13.0544413 130.670942,15.7335244 L130.670942,0 L123.573952,0 L123.573952,2.7765043 L127.266305,2.7765043 L127.266305,30.7363897 L123.573952,30.7363897 L123.573952,33.512894 L134.363296,33.512894 L134.363296,30.7363897 L130.670942,30.7363897 L130.670942,20.5071633 C130.8148,17.3409742 133.308337,14.2722063 137.048643,14.2722063 C140.021707,14.2722063 142.08367,15.9770774 142.08367,20.6532951 L142.08367,30.7363897 L138.343365,30.7363897 L138.343365,33.512894 L149.180661,33.512894 Z M170.471633,27.277937 C169.896201,30.9799427 166.77928,34 161.504489,34 C155.462457,34 151.434435,30.0057307 151.434435,22.991404 C151.434435,16.269341 155.174741,11.3982808 161.216774,11.3982808 C167.066996,11.3982808 170.23187,15.782235 170.279822,20.8968481 C170.279822,21.7249284 170.183917,22.6017192 169.992107,23.47851 L154.98293,23.47851 C155.174741,28.3008596 157.52442,31.0773639 161.744253,31.0773639 C165.100937,31.0773639 166.97109,29.3237822 167.642427,26.6446991 L170.471633,27.277937 Z M166.731327,20.9455587 C167.066996,17.730659 165.292748,14.2234957 161.120868,14.2234957 C157.188752,14.2234957 155.462457,17.2922636 155.030883,20.9455587 L166.731327,20.9455587 Z M218.184509,14.6131805 L218.184509,11.8366762 L208.593981,11.8366762 L208.593981,14.6131805 L212.478145,14.6131805 L208.546029,28.3008596 L208.306265,28.3008596 L201.640849,11.8366762 L199.387074,11.8366762 L193.057326,28.3008596 L192.817563,28.3008596 L188.357967,14.6131805 L192.433942,14.6131805 L192.433942,11.8366762 L182.363888,11.8366762 L182.363888,14.6131805 L184.713567,14.6131805 L191.235126,33.512894 L193.728663,33.512894 L200.106364,16.9512894 L200.346127,16.9512894 L206.867686,33.512894 L209.457129,33.512894 L215.738925,14.6131805 L218.184509,14.6131805 Z M238.995955,27.277937 C238.420523,30.9799427 235.303601,34 230.028811,34 C223.986778,34 219.958757,30.0057307 219.958757,22.991404 C219.958757,16.269341 223.699063,11.3982808 229.741095,11.3982808 C235.591317,11.3982808 238.756191,15.782235 238.804144,20.8968481 C238.804144,21.7249284 238.708239,22.6017192 238.516428,23.47851 L223.507252,23.47851 C223.699063,28.3008596 226.048742,31.0773639 230.268574,31.0773639 C233.625259,31.0773639 235.495412,29.3237822 236.166749,26.6446991 L238.995955,27.277937 Z M235.255649,20.9455587 C235.591317,17.730659 233.81707,14.2234957 229.64519,14.2234957 C225.713074,14.2234957 223.986778,17.2922636 223.555205,20.9455587 L235.255649,20.9455587 Z M264.458806,22.1146132 C264.458806,27.8624642 261.725506,34 254.964184,34 C251.607499,34 248.826246,32.5386819 247.483572,29.9083095 L247.004045,33.512894 L243.647361,33.512894 C243.935076,31.6131805 244.318698,29.3237822 244.318698,27.1805158 L244.318698,2.7765043 L240.626344,2.7765043 L240.626344,0 L247.675382,0 L247.675382,16.3180516 C248.970104,13.6389685 251.223878,11.3982808 255.299852,11.3982808 C260.622595,11.3982808 264.458806,15.2464183 264.458806,22.1146132 Z M260.910311,22.4555874 C260.910311,17.0487106 258.081105,14.3209169 254.484657,14.3209169 C250.408683,14.3209169 247.81924,18.0716332 247.675382,21.286533 L247.675382,24.5501433 C247.675382,28.2034384 250.552541,31.0773639 254.244894,31.0773639 C258.944253,31.0773639 260.910311,26.9369628 260.910311,22.4555874 Z M270.309028,11.1060172 L270.932412,6.42979943 C272.370992,5.21203438 274.097287,4.53008596 276.111297,4.53008596 C279.61184,4.53008596 281.43404,6.23495702 281.43404,8.4269341 C281.43404,13.6876791 271.79556,14.7106017 271.79556,20.5558739 C271.79556,23.0401146 273.569808,24.9398281 277.933498,24.6962751 L277.933498,22.260745 C276.255155,22.260745 275.392008,21.530086 275.392008,20.2636103 C275.392008,16.025788 285.174346,14.5157593 285.174346,7.93982808 C285.174346,3.84813754 281.24223,1.36389685 276.351061,1.36389685 C273.090281,1.36389685 269.829502,3.02005731 267.911396,5.01719198 L267.527775,10.8624642 L270.309028,11.1060172 Z M273.234139,33.512894 L277.501924,33.512894 L277.501924,28.7879656 L273.234139,28.7879656 L273.234139,33.512894 Z M320.994968,24.6475645 C320.994968,17.3896848 314.904983,16.3667622 310.733103,15.3925501 C307.23256,14.5644699 303.77997,13.6876791 303.77997,9.74212034 C303.77997,6.33237822 306.417366,4.53008596 310.301529,4.53008596 C312.12373,4.53008596 314.281598,4.77363897 316.247657,5.84527221 L316.727183,10.5702006 L319.604341,10.277937 L319.316626,3.99426934 C317.350567,2.43553009 313.418451,1.36389685 309.965861,1.36389685 C304.595165,1.36389685 300.039665,4.18911175 300.039665,10.1318052 C300.039665,16.3667622 305.026739,17.5845272 309.438382,18.5100287 C313.274593,19.3868195 317.206709,20.1661891 317.206709,24.9885387 C317.206709,29.2750716 313.802072,30.8825215 309.678145,30.8825215 C307.376418,30.8825215 305.314455,30.5415473 303.204539,29.469914 L303.396349,25.4756447 L300.519191,25.1833811 L299.847854,31.4183381 C301.95777,32.9770774 305.698076,34 309.869956,34 C316.199704,34 320.994968,30.7363897 320.994968,24.6475645 Z M345.882388,22.6504298 C345.882388,29.226361 341.758461,34 335.188949,34 C328.715343,34 324.831179,29.3724928 324.831179,22.8452722 C324.831179,16.512894 328.47558,11.3495702 335.38076,11.3495702 C342.333892,11.3495702 345.882388,16.512894 345.882388,22.6504298 Z M342.333892,22.6017192 C342.333892,17.6332378 339.74445,14.2722063 335.284854,14.2722063 C330.825259,14.2722063 328.331722,17.8280802 328.331722,22.6504298 C328.331722,27.3753582 330.729354,31.0773639 335.284854,31.0773639 C339.840355,31.0773639 342.333892,27.4727794 342.333892,22.6017192 Z M384.196547,33.512894 L377.147509,33.512894 L377.147509,29.1289398 C375.756882,31.7106017 373.407203,34 369.523039,34 C364.008485,34 360.364085,30.0057307 360.364085,23.234957 C360.364085,17.4383954 363.049433,11.3982808 370.002565,11.3982808 C373.119487,11.3982808 375.756882,12.8108883 377.147509,15.3438395 L377.147509,2.7765043 L371.968624,2.7765043 L371.968624,0 L380.504193,0 L380.504193,30.7363897 L384.196547,30.7363897 L384.196547,33.512894 Z M377.147509,23.9169054 L377.147509,20.4584527 C377.003651,16.8538682 374.174445,14.3209169 370.769808,14.3209169 C366.022496,14.3209169 363.91258,18.4126074 363.91258,22.991404 C363.91258,28.3008596 366.693833,31.0773639 370.386186,31.0773639 C374.222398,31.0773639 377.003651,27.1805158 377.147509,23.9169054 Z M407.69334,22.6504298 C407.69334,29.226361 403.569413,34 396.999901,34 C390.526295,34 386.642131,29.3724928 386.642131,22.8452722 C386.642131,16.512894 390.286532,11.3495702 397.191712,11.3495702 C404.144845,11.3495702 407.69334,16.512894 407.69334,22.6504298 Z M404.144845,22.6017192 C404.144845,17.6332378 401.555402,14.2722063 397.095807,14.2722063 C392.636211,14.2722063 390.142674,17.8280802 390.142674,22.6504298 C390.142674,27.3753582 392.540306,31.0773639 397.095807,31.0773639 C401.651307,31.0773639 404.144845,27.4727794 404.144845,22.6017192 Z M455.502121,14.6131805 L455.502121,11.8366762 L445.911593,11.8366762 L445.911593,14.6131805 L449.795757,14.6131805 L445.863641,28.3008596 L445.623878,28.3008596 L438.958461,11.8366762 L436.704687,11.8366762 L430.374938,28.3008596 L430.135175,28.3008596 L425.67558,14.6131805 L429.751554,14.6131805 L429.751554,11.8366762 L419.6815,11.8366762 L419.6815,14.6131805 L422.031179,14.6131805 L428.552738,33.512894 L431.046275,33.512894 L437.423976,16.9512894 L437.66374,16.9512894 L444.185298,33.512894 L446.774741,33.512894 L453.056537,14.6131805 L455.502121,14.6131805 Z M476.313567,27.277937 C475.738135,30.9799427 472.621214,34 467.346423,34 C461.304391,34 457.276369,30.0057307 457.276369,22.991404 C457.276369,16.269341 461.016675,11.3982808 467.058707,11.3982808 C472.908929,11.3982808 476.073804,15.782235 476.121756,20.8968481 C476.121756,21.7249284 476.025851,22.6017192 475.83404,23.47851 L460.824864,23.47851 C461.016675,28.3008596 463.366354,31.0773639 467.586186,31.0773639 C470.942871,31.0773639 472.813024,29.3237822 473.484361,26.6446991 L476.313567,27.277937 Z M472.573261,20.9455587 C472.908929,17.730659 471.134682,14.2234957 466.962802,14.2234957 C463.030686,14.2234957 461.304391,17.2922636 460.872817,20.9455587 L472.573261,20.9455587 Z M485.712284,1.85100287 L481.732215,1.85100287 L482.403552,24.1604585 L484.992995,24.1604585 L485.712284,1.85100287 Z M481.684262,33.512894 L486,33.512894 L486,28.7879656 L481.684262,28.7879656 L481.684262,33.512894 Z" id="Love-the-web?-So-do"></path>
        </g>
    </g>
</svg>