<?xml version="1.0" encoding="UTF-8"?>
<svg width="116px" height="74px" viewBox="0 0 116 74" version="1.1" xmlns="http://www.w3.org/2000/svg" xmlns:xlink="http://www.w3.org/1999/xlink">
    <!-- Generator: Sketch 47 (45396) - http://www.bohemiancoding.com/sketch -->
    <title>Hearts</title>
    <desc>Created with Sketch.</desc>
    <defs></defs>
    <g id="Page-1" stroke="none" stroke-width="1" fill="none" fill-rule="evenodd">
        <g id="Hearts" fill="#FFFFFF">
            <g id="Page-1">
                <polygon id="Fill-1" points="6 12 12 12 12 6 6 6"></polygon>
                <polygon id="Fill-2" points="12 0 12 6 18 6 24 6 30 6 30 0"></polygon>
                <polygon id="Fill-3" points="31 12 37 12 37 6 31 6"></polygon>
                <polygon id="Fill-4" points="72.9216746 12 72.9216746 18.074114 72.9216746 21.111171 72.9216746 32.0020574 39.4992404 65.4081658 6.07680622 32.0020574 6.07680622 24.148228 6.07680622 18.074114 6.07680622 12 0 12 0 18.074114 0 21.111171 0 34.5167406 39.4992404 74 79 34.5167406 79 24.148228 79 18.074114 79 12"></polygon>
                <polygon id="Fill-5" points="109.883263 12 109.883263 18.074114 109.883263 21.111171 109.883263 32.0020574 76.2412072 65.4081658 67.3245333 56.5551446 63 60.8495432 76.2412072 74 116 34.5167406 116 24.148228 116 18.074114 116 12"></polygon>
                <polygon id="Fill-6" points="104 12 110 12 110 6 104 6"></polygon>
                <polygon id="Fill-7" points="85 0 85 6 91.0009999 6 96.9990001 6 103 6 103 0"></polygon>
                <polygon id="Fill-8" points="37 18 43 18 43 12 37 12"></polygon>
                <polygon id="Fill-9" points="43 12 49 12 49 6 43 6"></polygon>
                <polygon id="Fill-10" points="49 0 49 6 55 6 60.9985 6 67 6 67 0"></polygon>
                <polygon id="Fill-11" points="67 12 73 12 73 6 67 6"></polygon>
            </g>
        </g>
    </g>
</svg>