<svg id="Layer_1" xmlns="http://www.w3.org/2000/svg" viewBox="0 0 1348.2 1130.6" width="400" height="397"><style>.st0{opacity:0.5;} .st1{fill:#FFFFFF;} .st2{opacity:0.6;fill:#B3DFF5;enable-background:new ;} .st3{fill:#BEE1F5;} .st4{fill:#0798D5;}</style><title>Untitled-3</title><path class="st0 st1" d="M1003.1 35c132 0 280.1 88.5 307.7 257.6 16.3 99.8-5.9 185.6-69.9 270.2-58.9 77.8-147.1 147-240.5 220.2-108.3 85-230.4 180.6-323.2 305.6v.1c-92.7-125-213.9-220.7-321.6-305.6-184.4-145.5-343.6-271-312-490.9C67.8 123.9 215 35.8 347.9 35.8c141.1 0 256.1 90.6 307.5 242.3l18.5 54.5 19.3-54.2C747.4 126 863.2 35 1003.1 35m.1-20c-130.9 0-265 77.3-328.8 256.6C613.8 93.2 479.3 15.8 347.9 15.8c-151.9 0-299.6 103.4-324 273.6-53.7 374.1 410.1 482.8 653 833v1.1l.4-.6.4.6v-1.1c242.8-350.2 713.9-460.1 653-833-27.8-170-175.5-274.4-327.5-274.4z"/><path class="st2" d="M1316.1 394.4c5.5-4.6 11-9.2 16.4-13.8 14.9-12.6 7.8-33-6-41.6 24.8-20.1.1-63-28.6-44.7-167.5 106.4-335.1 212.8-504.6 316 29-20.3 58.3-40.2 87.9-59.7 143.9-94.7 291.9-183.4 429-288 27.4-20.9 4.9-59.7-26.9-46.1-5.8 2.5-11.6 5.1-17.3 7.8l10.7-6.6c27.8-17.1 5.5-58.6-22.7-48 5.3-4.2 10.5-8.4 15.7-12.6 21.3-17.2-1.8-51.7-25.9-44.6-27.6 8.2-54.8 17.9-81.4 29.1 9.9-6.4 19.9-12.8 29.9-19.1 29-18.2 2.2-64.4-26.9-46.1-158.3 99.6-317.6 197.4-478 293.6 66.5-47.6 133.3-95.1 200.2-142.3 74.2-52.3 155.1-95.1 233.5-140.7 25.5-14.8 8.7-58.8-20.6-48.7-9.5 3.3-19.1 6.6-28.6 10-5.8-9.9-16.9-17-29.7-13.4-7.8 2.2-15.7 4.4-23.6 6.5-6.4-5.6-15.1-7.9-23.5-6.1-93.1 19.6-178 60.9-252 120.3l-4.8 3.9c-14 11.5-10.1 27.4.6 36.6-27.5 19.9-54.6 40.2-81.4 61 2.6-12.8-4.2-26.6-15-31.8 18.7-16.9 6-47.8-13.7-49.2 9.9-20.8-11.9-49.4-36.9-34.9l-215 123.9c63.9-50.6 129.5-98.9 200.2-140.2 30.2-17.6 3.7-60.1-26.9-46-28.2 12.9-56.2 26.3-84 40.1 10.5-6.8 21-13.5 31.5-20.3 28.7-18.5 3-63.4-26.9-46l-18.3 10.7c10-18.3-9.9-43.9-31.5-37.8l-83 23.3c-3-16-23.3-29.8-40.9-20.7-79.7 41-156.7 87-230.6 137.8-28.1 19.3-1.4 65.6 26.9 46.1 2.6-1.8 5.3-3.6 7.9-5.4-18.5 19.2-36.6 38.8-54.3 58.7-8.1 9.2-9 19.5-5.5 27.9-7.8 7.8-15.4 15.7-22.9 23.8-20.2 21.8 5.4 57.6 32.3 41.9l6.6-3.8c-11.1 10.3-21.9 20.7-32.7 31.3-20.9 20.6 7.2 60.1 32.3 41.9 63.5-45.9 128.6-89.4 195.3-130.3-63.3 51.8-126.6 103.5-193.6 150.3-27.7 19.4-3.3 63.5 26.9 46l30.8-17.8-27.6 21.3-5.4 4.2c-25.4 19.7 6.9 54 32.3 41.9l2.4-1.2-3.1 2.3c-24.8 18.1-7.5 55.7 19.1 49.2 0 17.7 21.5 34 40.8 24.3 30.5-15.4 60.9-31.3 91-47.5l-71.1 55.4c-21.9 17.1 1.5 49.9 25 44.8 4.3 16 21.6 27.2 38.6 17.1 75.7-45.1 151.4-90.2 227.1-135.4-12.2 9.6-24.3 19.4-36.3 29.2-61.5 35.2-122 72.5-176.4 117.8-23.6 19.6 6.7 57 32.3 41.9l5.9-3.5c2.3 17.6 25.1 26 40 17.8 47.6-26.2 95.1-52.5 142.4-79-43.5 28.5-87.4 56.4-132 83.1-29.6 17.7-3.4 62 26.9 46 58.7-30.8 117.4-61.8 175.9-93-51.8 40.1-103.1 80.9-154.3 121.8-24.3 19.4 6.7 56.1 32.3 41.9 45.4-25.3 90.6-51 135.5-77l-94.5 66.4c-28.3 19.9-4.3 60.4 26.9 46 28.9-13.3 57.9-26.6 86.8-39.9-19.1 10.3-38 21.3-56.5 32.9-24.4 15.4-9 59.5 20.5 48.7l13.5-4.9c.9 4.8 2.9 9.4 5.9 13.4-6.7 14.4 3.4 31.8 17.8 36.5 3 8.1 9.4 14.5 17.5 17.5 5.4 12 19.3 20 32.8 15-3.8 5.2-7.5 10.4-11.1 15.8-16.9 24.8 22.1 55.4 41.9 32.3 23.2-27.1 46.1-54.4 68.7-81.9 9.3-9 18.9-17.7 28.9-26.2 3.1-2.5 5.5-5.8 7-9.4l69.2-47.9c13.8-9.6 15.2-24.3 9.3-35.1 39.4-27.7 79.5-54.4 120.4-80 9.3-5.7 18.6-11.5 27.9-17.3 8-5 11.7-12.1 12.4-19.4 21.3-11.3 42.5-23 63.5-35.1 15.9-9.2 15.8-26.3 7.6-37.8 34-20.2 67.6-41.1 100.9-62.6 12.2-7.9 14.5-20.6 10.8-31.3l47.1-30.8c18.9-12.4 13.9-36.5-.2-46.1 30-23.4 57.8-49.4 81.9-79.3 16.4-19.6 2.9-45.4-18.6-45.1zM298.3 95.6c2.1 3.4 5 6.2 8.3 8.4-17.2 10.1-34.6 19.8-52.1 29.5 14.4-12.8 29-25.5 43.8-37.9zm544.3 274.3c46.5-28 93.7-54.8 141.6-80.4-46.5 27.8-93.9 54.4-141.6 80.4zm-141.1-79.7c4.4-.3 8.6-1.9 12.1-4.4l-19.3 13.8c.4-1.5.7-3 .8-4.6l6.4-4.8zm371.5 51.2c11.5-6.9 23.1-13.9 34.6-20.8-13.8 9.7-27.5 19.4-41.2 29.1-58.4 41.2-117.9 80.6-178.7 118.2 61.2-43.1 122.7-85.6 185.3-126.5zm-198.6 408c-7.7 5-11.5 11.7-12.5 18.5l-1.8 1.2-.1.1c-5.9-5.2-13.8-7.5-21.5-6.5 11.5-6.1 22.8-12.4 34.1-18.9 1.5 1.4 3.2 2.6 5.1 3.5l-3.3 2.1zM683.6 905.6c-.3-.4-.5-.7-.8-1.1 2.1-1.1 4.2-2.2 6.2-3.4l-5.4 4.5zm79.9-170.8l-2.8 2.3-1.6.8 4.4-3.1zM759 797c1.6.2 3.2.3 4.8.1-7.7 3.9-15.4 7.9-23.1 12-11.6 4.1-23.1 8.5-34.4 13 17.6-8.4 35.1-16.7 52.7-25.1z"/><path class="st3" d="M1335.6 1119.1H14c-.9 0-1.7-.7-1.7-1.7V12.7c0-.9.8-1.7 1.7-1.7h1321.6c.9 0 1.7.7 1.7 1.7v1104.7c-.1 1-.8 1.7-1.7 1.7zm-1319.9-3.3h1318.2V14.4H15.7v1101.4z"/><path class="st3" d="M1321.2 0h27v27h-27zM661 0h27v27h-27z"/><path class="st4" d="M666.4 5.4h16.2v16.2h-16.2z"/><path class="st3" d="M661 1103.7h27v27h-27z"/><path class="st4" d="M666.4 1109.1h16.2v16.2h-16.2zM1326.6 5.4h16.2v16.2h-16.2z"/><path class="st3" d="M0 0h27v27H0z"/><path class="st4" d="M5.4 5.4h16.2v16.2H5.4z"/><path class="st3" d="M1321.2 1103.7h27v27h-27z"/><path class="st4" d="M1326.6 1109.1h16.2v16.2h-16.2z"/><path class="st3" d="M0 1103.7h27v27H0z"/><path class="st4" d="M5.4 1109.1h16.2v16.2H5.4z"/><path class="st3" d="M1321.2 552.4h27v27h-27z"/><path class="st4" d="M1326.6 557.8h16.2V574h-16.2z"/><path class="st3" d="M0 552.4h27v27H0z"/><path class="st4" d="M5.4 557.8h16.2V574H5.4z"/></svg>
