<svg width="2100" height="1180" viewBox="0 0 2100 1180" xmlns="http://www.w3.org/2000/svg"><g fill="none" fill-rule="evenodd"><path fill="#4961B4" d="M282.141 547l-15.016 28.257-28.791 18.655-41.789 15.716L157 635v395h1770.001V636.109l-74.058-16.498-48.78-41.997-82.464-5.997-66.009 18.002-75.05-7.491-54.042 12.015-24.018-11.968-54.055 10.561-28.528 4.625-15.016 7.75L1393.397 628h-15.444l-15.267 7.001-15.43 4.109-12.255-.11-3 9.109-11.562 3.004-8.64 10.503-22.482 10.507-31.514 1.516-12.003 10.531-27.024 3.062-27.027 12.125-22.523 9.143-18.103-8.5h-41.96l-46.551-1.446L1043.001 709h-70.486l-43.643-15h-20.927l-21.022-8.946L817.746 679H801.33l-10.614-10h-17.917l-7.507-15.445-31.535-7.946L712.627 631h-17.912l-6.115-10h-11.904l-28.446-21.222-70.491-27.223L507.352 548h-22.864l-10.511 9.671L456.338 548h-37.922l-74.08 7.729"/><path fill="#485AAF" d="M282.07 641l-32.018 12.656L225.038 668l-33.018-4-35.02 8v358h1770V717h-27.468l-7.504 4.052-12.006 5.553-30.066-2.605H1838l-15.008 2.552-10.505 4.053-18.009 3-13.507-4.5-13.507-2.998-15.008-2.998-13.506 7.504-42.022 6.007-40.521-19.484-57.03 18.031-61.532-8.937-48.025-25.374-57.029 21.249-39.092-1.105h-43.451l-19.509-9.446-39.02 16.052-27.014 1.5-21.011-7.497-33.017 3.004-52.527-1.493-22.512 10.516-24.012 12.03-22.512-5.937-25.513 3.125-24.012-5.749-25.105-5.105h-33.425l-9.005-8.135-22.512-11.134-22.511-4.375-27.014-4.25L888.413 691h-63.434l-10.069 8.99-31.08 11.991-18.883 2.374-9.005 1.751-8.609 4.894h-16.904l-13.506-7.822-15.374-4.61-8.639 3.038L681.296 715h-12.398l-11.883-4.445-13.63-8.198-16.509-5.75L613.257 699h-13.394l-10.506-5.193-13.507-12.692-15.008-1.492-12.006 7.515-16.508 7.531-9.005-5.937-18.009-4.375-15.008-5.75-9.123-8.607h-11.888l-25.513 2.679-10.506-6.321-15.007-2.75L406.14 660h-11.883l-24.138 6.804-9.13-6.695-12.256-13.5"/><path fill="#4351A0" d="M1515.102 598l-21.023 9-7.508-3-16.519-4.498-10.511 1.503-6.006 1.505-7.508 4.511-7.509 9.021-6.005 12.043-7.509 12.086-7.508 15.173-4.504 12.348-4.506 11.196h-7.508l-7.508-8.196-7.508-8.196-7.508-3-7.509-1.499-4.504-3-6.007-1.5-4.504 1.5-6.007 4.499-9.01 10.499-7.508 6.001-7.507 2.999-7.509 4.5-6.007 6.001-6.006 7.5-7.508 7.502-12.013 10.503-7.508 1.508-12.013 4.516-15.016 9.03-6.006-1.437-27.03 12.124-16.518 19.749-5.589.397h-10.929l-12.013 2.552-24.025 2.551-12.013-6-16.518-3-24.027 3-19.521-4.499-16.517-19.5-25.528-10.499-9.01-13.499-27.029-7.5-19.521 4.499-16.517 4.5-10.512 9-6.007 10.5-19.521 4.5-24.025-3.001-12.014-3-7.507 6.001-10.512-4.5-10.511-3-6.007-3-9.01 6-6.007-3-10.511-6-6.005 4.5-15.017-12-13.514-10.499-10.512-10.5-9.01-11.999-21.022-13.5-10.511-1.499-13.516 7.5-24.025-7.5-12.013-9-12.014 9-7.507-4.5-6.007 3-6.007 3-15.015 7.5-16.519 4.501L623.138 673l-10.511-7.496-21.023-8.992-16.518-1.484-9.01 9.03-16.517 9.062-19.521-4.375-16.518-10.249-30.151-5.608h-47.933l-13.515-11.693-24.024 10.804-16.516-8.996-12.009-7.495-13.507-2.239-7.492 3.771-23.994-3.708-23.963-3.665-17.893 7.67-24.409 30.551-34.038 9.106-41.046 11.894L157 676.994V1030h1770V636.997l-17.496-4.493-9.987-7.492-6.006-5.986-19.522 3.027-10.511 6.056-46.55 1.611-13.515-4.277-9.009-2.555h-7.509l-10.511 5h-12.014l-10.511-11.194-7.507-6.695-10.512-1.501-7.508 4.5-13.515 13.5-19.521-4.5-30.033-7.499-22.524 25.499-60.064-12-16.519-4.5-15.015-14.999"/></g></svg>