<svg width="2100" height="1180" viewBox="0 0 2100 1180" xmlns="http://www.w3.org/2000/svg"><defs><linearGradient x1="50%" y1="0%" x2="50%" y2="100%" id="a"><stop stop-color="#13387A" offset="0%"/><stop stop-color="#1261B3" offset="52.6407047%"/><stop stop-color="#526ACC" offset="100%"/></linearGradient><linearGradient x1="0%" y1="0%" y2="100%" id="b"><stop stop-color="#FFFFFF" stop-opacity=".1" offset="0%"/><stop stop-color="#FFFFFF" stop-opacity="0" offset="100%"/></linearGradient><linearGradient x1="0%" y1="100%" y2="0%" id="c"><stop stop-color="#FFFFFF" stop-opacity=".1" offset="0%"/><stop stop-color="#FFFFFF" stop-opacity="0" offset="100%"/></linearGradient><linearGradient x1="100%" y1="0%" x2="12.9386137%" y2="91.1907016%" id="d"><stop stop-color="#FFFFFF" stop-opacity=".1" offset="0%"/><stop stop-color="#FFFFFF" stop-opacity="0" offset="100%"/></linearGradient><linearGradient x1="119.96691%" y1="-19.8494274%" x2="11.9642404%" y2="90.1839882%" id="e"><stop stop-color="#FFFFFF" stop-opacity=".1" offset="0%"/><stop stop-color="#FFFFFF" stop-opacity="0" offset="100%"/></linearGradient><linearGradient x1="0%" y1="100%" y2="8.79720781%" id="f"><stop stop-color="#FFFFFF" stop-opacity=".1" offset="0%"/><stop stop-color="#FFFFFF" stop-opacity="0" offset="100%"/></linearGradient><linearGradient x1="0%" y1="0%" x2="85.03158%" y2="84.0755021%" id="g"><stop stop-color="#FFFFFF" stop-opacity=".1" offset="0%"/><stop stop-color="#FFFFFF" stop-opacity="0" offset="100%"/></linearGradient><linearGradient x1="64.28498%" y1="0%" x2="0%" y2="0%" id="h"><stop stop-color="#FFFFFF" stop-opacity=".1" offset="0%"/><stop stop-color="#FFFFFF" stop-opacity="0" offset="100%"/></linearGradient><linearGradient x1="20.0492165%" y1="15.6986607%" x2="79.4955388%" y2="77.0378107%" id="i"><stop stop-color="#FFFFFF" stop-opacity=".1" offset="0%"/><stop stop-color="#FFFFFF" stop-opacity="0" offset="100%"/></linearGradient></defs><g fill="none" fill-rule="evenodd"><path fill="url(#a)" d="M0 0h2184v717H0z" transform="translate(-42 -2)"/><path d="M632.9699 214.9688c8.249-.456 16.533-.732 24.748-1.624.235-.025.247-.374 0-.375-8.251-.038-16.508.547-24.748.948-8.243.4-16.544.652-24.748 1.58-.287.033-.304.458 0 .461 8.246.076 16.518-.535 24.748-.99z" fill-opacity=".1" fill="#FFFFFF"/><path d="M99.5722 158.9934c14.642 13.253 29.402 26.438 44.505 39.165.267.224.654-.153.387-.387-14.86-13.031-29.781-25.975-44.473-39.197-14.692-13.221-28.966-26.902-43.664-40.111 13.832 14.08 28.616 27.287 43.245 40.53z" fill="url(#b)" transform="translate(608 94)"/><path d="M51.205 123.7912c.045-.137-.159-.185-.211-.058-2.292 5.638-4.529 11.24-6.255 17.089-.031.107.139.185.186.078 2.463-5.586 4.385-11.316 6.28-17.109z" fill="url(#c)" transform="translate(608 94)"/><path d="M177.3168 175.793c8.31-6.817 16.77-13.492 24.861-20.571.144-.126-.053-.389-.208-.269-8.283 6.362-16.255 13.144-24.332 19.764-8.322 6.82-16.714 13.527-24.795 20.636-.065.058.024.177.095.123 8.308-6.345 16.299-13.054 24.379-19.683z" fill="url(#d)" transform="translate(608 94)"/><path d="M116.1489 227.2518c-9.361 7.153-18.912 14.041-28.491 20.898-.451.323-.029 1.075.442.756 9.873-6.699 19.482-13.794 28.944-21.06 9.216-7.078 18.545-14.203 27.121-22.054.233-.214-.086-.648-.346-.448-9.327 7.167-18.321 14.762-27.67 21.908z" fill="url(#e)" transform="translate(608 94)"/><path d="M63.1471 74.4168c.058-.41-.53-.603-.64-.177-3.074 11.815-4.845 24.012-7.004 36.015-.028.156.206.225.241.066 2.629-11.9 5.685-23.827 7.403-35.904z" fill="url(#f)" transform="translate(608 94)"/><path d="M241.4842 198.5441c.214.261.681-.094.472-.364-9.962-12.91-20.875-25.179-32.391-36.719-.05-.05-.125.025-.077.077 11.064 12.01 21.656 24.371 31.996 37.006z" fill="url(#g)" transform="translate(608 94)"/><path d="M1134.7945 134.9205c.294-.161.036-.566-.256-.439-8.82 3.841-17.634 8.226-25.992 12.983-.049.028-.015.116.039.093 8.886-3.71 17.767-8.001 26.209-12.637z" fill-opacity=".1" fill="#FFFFFF"/><path d="M430.1566 55.4775c19.98.256 40.027.671 60-.027.397-.014.399-.608 0-.617-19.99-.473-40.005-.181-60-.416-19.973-.234-40.017-1.231-59.987-.923-.229.004-.223.335 0 .352 19.896 1.507 40.042 1.376 59.987 1.631z" fill="url(#h)" transform="translate(608 94)"/><path d="M1210.135 134.1551c22.149.96 44.282 2.27 66.391 3.916 12.538.934 25.063 2.023 37.59 3.092.739.063.727-1.076 0-1.148-44.105-4.374-88.454-6.84-132.749-8.155-12.558-.373-25.15-.839-37.713-.475-.399.011-.396.596 0 .617 22.132 1.183 44.334 1.192 66.481 2.153zM1351.094 166.5481c5.781 6.537 11.639 13.006 17.572 19.407 11.965 12.907 24.191 25.625 36.854 37.852.373.359.937-.203.569-.569-12.378-12.313-24.643-24.712-36.55-37.483-5.843-6.266-11.613-12.599-17.311-18.998-5.869-6.591-11.367-13.758-17.628-19.972-.094-.093-.272.032-.19.147 4.92 6.937 11.054 13.251 16.684 19.616zM1299.7081 311.1535c8.736-6.418 17.439-12.882 26.109-19.39 17.25-12.947 34.373-26.064 51.355-39.362 9.677-7.578 19.387-15.139 28.886-22.941.549-.451-.23-1.199-.774-.773-34.369 26.918-68.63 53.894-103.784 79.793-9.654 7.113-19.576 13.944-28.941 21.435-.219.175.065.537.298.387 9.231-5.944 18.006-12.651 26.851-19.149zM1171.522 187.7536c.107.183.383.021.284-.166-8.886-16.752-18.494-33.089-27.779-49.62-.03-.053-.11-.006-.081.047 9.172 16.596 18.007 33.366 27.576 49.739z" fill-opacity=".1" fill="#FFFFFF"/><path d="M1084.0604 118.2375c-.167-.181-.413.081-.266.266 6.215 7.775 12.706 15.337 18.789 23.218.042.055.136.003.094-.055-5.885-8.049-11.878-16.059-18.617-23.429z" fill="#FFFFFF" opacity=".1"/><path d="M1352.279 112.9699c.138-.128-.064-.322-.205-.204-6.387 5.372-12.564 10.966-18.737 16.582-.094.085.043.219.138.138 6.347-5.422 12.672-10.85 18.804-16.516z" fill-opacity=".1" fill="#FFFFFF"/><path d="M819.9935 155.6864c.429.459 1.096-.221.685-.685-5.686-6.427-11.332-13.213-17.62-19.059-.215-.2-.626.074-.429.331 5.249 6.834 11.482 13.122 17.364 19.413z" fill="url(#i)" transform="translate(608 94)"/><path d="M1239.1822 274.912c-.153-.241-.529-.024-.384.225 9.624 16.561 19.376 33.06 29.2 49.502.041.069.147.008.108-.063-9.254-16.755-18.636-33.515-28.924-49.664zM1286.6128 186.8415c-.309.469.423.874.742.434 8.795-12.133 18.314-23.381 28.959-33.935.127-.125-.062-.308-.193-.193-11.173 9.801-21.311 21.285-29.508 33.694zM1193.4324 94.6139618c.247-.168.019-.57-.236-.405-16.784 10.847-33.371 21.956-49.815 33.295-.094.065-.007.218.091.155 16.812-10.772 33.47-21.768 49.96-33.045z" fill-opacity=".1" fill="#FFFFFF"/><g transform="translate(456 123)" fill="#FFFFFF"><circle cx="684.5" cy="9.5" r="1.5"/><circle cx="651.5" cy="25.5" r="1.5"/><path d="M953.5 105c.828427 0 1.5-.671573 1.5-1.5s-.671573-1.5-1.5-1.5-1.5.671573-1.5 1.5.671573 1.5 1.5 1.5z"/><circle fill-opacity=".3" cx="195.5" cy="114.5" r="1.5"/><circle fill-opacity=".3" cx="115.5" cy="195.5" r="1.5"/><circle cx="206.5" cy="88.5" r="1.5"/><circle fill-opacity=".3" cx="1171.5" cy="28.5" r="1.5"/><circle fill-opacity=".3" cx="956.5" cy="217.5" r="1.5"/><circle fill-opacity=".3" cx="981.5" cy="195.5" r="1.5"/><circle fill-opacity=".3" cx="1030.5" cy="239.5" r="1.5"/><circle fill-opacity=".05" cx="870" cy="16" r="16"/><circle fill-opacity=".15" cx="870.5" cy="16.5" r="10.5"/><circle cx="870.5" cy="16.5" r="2.5"/><circle cx="2.5" cy="194.5" r="2.5"/><circle cx="1097.5" cy="184.5" r="2.5"/><circle cx="1177.5" cy="114.5" r="2.5"/><circle fill-opacity=".3" cx="1034.5" cy="62.5" r="2.5"/><circle fill-opacity=".3" cx="39.5" cy="76.5" r="2.5"/><circle cx="151.5" cy="92.5" r="2.5"/><circle fill-opacity=".3" cx="298.5" cy="313.5" r="2.5"/></g></g></svg>