<svg width="50" height="51" fill="none" xmlns="http://www.w3.org/2000/svg"><path d="M25.004.182c13.794 0 24.976 11.182 24.976 24.975 0 13.794-11.182 24.975-24.976 24.975C11.21 50.132.029 38.952.029 25.157.029 11.364 11.21.182 25.004.182z" fill="none"/><path d="M40.618 17.008a12.432 12.432 0 01-3.496.932 5.955 5.955 0 002.677-3.27 12.34 12.34 0 01-3.867 1.434 6.166 6.166 0 00-4.442-1.864c-3.36 0-6.085 2.643-6.085 5.905 0 .464.053.915.158 1.348-5.058-.247-9.544-2.6-12.544-6.172a5.737 5.737 0 00-.824 2.968c0 2.048 1.074 3.859 2.707 4.916a6.188 6.188 0 01-2.759-.74v.075c0 2.863 2.098 5.25 4.883 5.793a6.296 6.296 0 01-2.748.101c.775 2.348 3.023 4.055 5.687 4.102a12.442 12.442 0 01-7.56 2.53c-.491 0-.975-.029-1.453-.084a17.613 17.613 0 009.332 2.656c11.195 0 17.317-9.004 17.317-16.809l-.017-.765a12.143 12.143 0 003.034-3.056z" fill="#2B1340"/></svg>
