<svg width="2100" height="1180" viewBox="0 0 2100 1180" xmlns="http://www.w3.org/2000/svg"><g fill="none" fill-rule="evenodd"><path fill="#2D253A" d="M157.4404 383.0004l-14.303 16.953-16.861 25.99-8.099 21.043 10.856 1.99-11.595 16.785-11.821 31.335 9.752 2.126-18.462 26.683-13.056 26.914 12.022 1.849-20.873 29.182-23.763 46.245 25.986 2.636-15.934 29.067-10.191 30.108 18.914 2.851-13.661 24.92-10.654 31.477 15.384 2.318-15.423 29.361-11.658 36.681 80.277 11.061 35.298-8.124v55.328h23.583l1.593-54.309 39.61 6.09 107.449-15.932-23.457-27.211-20.917-35.04 16.24-2.199-19.748-23.695-17.825-31.107 32.191-4.36-18.89-22.664-22.389-39.07-1.456-2.246 25.673-4.128-25.288-44.114-18.983-21.61 8.73-.809-16.879-34.099-19.066-20.028 8.826-1.053-4.254-15.905-12.558-20.906-6.718-12.489 14.449-1.267-21.166-39.492"/><path fill="#F8C083" d="M295.5436 788.733l15.177 18.549-2.083 5.248-17.322 5.479 11.258-1.69 19.237-2.691-23.457-27.211-16.794-28.133M273.176 751.9544l20.565-2.82-19.78-23.673-15.382-27.026 13.203 27.89 13.794 17.908-2 3.546M252.1534 694.9114l36.14-4.895-18.889-22.664-20.852-36.389 19.144 40.128 10.138 12.642-1.936 4.728M238.2465 627.212l32.987-5.304-25.289-44.114-12.871-14.652 10.805 18.021 17.605 33.73-2.531 4.941M214.9615 558.1851l20.73-2.809-16.879-34.1-13.595-14.281 10.776 16.412 11.726 26.392-1.697 4.166M204.3188 484.291l-16.384-28.386 13.556 29.052 2.418 9.822-1.86 3.535-11.479 3.284 9.177-.349 8.826-1.054M157.4404 383.0004l19.413 29.353 15.06 30.928-1.96 4.659-12.679 4.072 22.217-2.384-21.166-39.492"/><g><path fill="#2D253A" d="M298.4404 351.0004l-14.303 16.953-16.861 25.99-8.099 21.043 10.856 1.99-11.595 16.785-11.821 31.335 9.752 2.126-18.462 26.683-13.056 26.914 12.022 1.849-20.873 29.182-23.763 46.245 25.986 2.636-15.934 29.067-10.191 30.108 18.914 2.851-13.661 24.92-10.654 31.477 15.384 2.318-15.423 29.361-11.658 36.681 80.277 11.061 35.298-8.124v55.328h23.583l1.593-54.309 39.61 6.09 107.449-15.932-23.457-27.211-20.917-35.04 16.24-2.199-19.748-23.695-17.825-31.107 32.191-4.36-18.89-22.664-22.389-39.07-1.456-2.246 25.673-4.128-25.288-44.114-18.983-21.61 8.73-.809-16.879-34.099-19.066-20.028 8.826-1.053-4.254-15.905-12.558-20.906-6.718-12.489 14.449-1.267-21.166-39.492"/><path fill="#F8C083" d="M436.5436 756.733l15.177 18.549-2.083 5.248-17.322 5.479 11.258-1.69 19.237-2.691-23.457-27.211-16.794-28.133M414.176 719.9544l20.565-2.82-19.78-23.673-15.382-27.026 13.203 27.89 13.794 17.908-2 3.546M393.1534 662.9114l36.14-4.895-18.889-22.664-20.852-36.389 19.144 40.128 10.138 12.642-1.936 4.728M379.2465 595.212l32.987-5.304-25.289-44.114-12.871-14.652 10.805 18.021 17.605 33.73-2.531 4.941M355.9615 526.1851l20.73-2.809-16.879-34.1-13.595-14.281 10.776 16.412 11.726 26.392-1.697 4.166M345.3188 452.291l-16.384-28.386 13.556 29.052 2.418 9.822-1.86 3.535-11.479 3.284 9.177-.349 8.826-1.054M298.4404 351.0004l19.413 29.353 15.06 30.928-1.96 4.659-12.679 4.072 22.217-2.384-21.166-39.492"/></g><g><path fill="#2D253A" d="M519.4404 351.0004l-14.303 16.953-16.861 25.99-8.099 21.043 10.856 1.99-11.595 16.785-11.821 31.335 9.752 2.126-18.462 26.683-13.056 26.914 12.022 1.849-20.873 29.182-23.763 46.245 25.986 2.636-15.934 29.067-10.191 30.108 18.914 2.851-13.661 24.92-10.654 31.477 15.384 2.318-15.423 29.361-11.658 36.681 80.277 11.061 35.298-8.124v55.328h23.583l1.593-54.309 39.61 6.09 107.449-15.932-23.457-27.211-20.917-35.04 16.24-2.199-19.748-23.695-17.825-31.107 32.191-4.36-18.89-22.664-22.389-39.07-1.456-2.246 25.673-4.128-25.288-44.114-18.983-21.61 8.73-.809-16.879-34.099-19.066-20.028 8.826-1.053-4.254-15.905-12.558-20.906-6.718-12.489 14.449-1.267-21.166-39.492"/><path fill="#F8C083" d="M657.5436 756.733l15.177 18.549-2.083 5.248-17.322 5.479 11.258-1.69 19.237-2.691-23.457-27.211-16.794-28.133M635.176 719.9544l20.565-2.82-19.78-23.673-15.382-27.026 13.203 27.89 13.794 17.908-2 3.546M614.1534 662.9114l36.14-4.895-18.889-22.664-20.852-36.389 19.144 40.128 10.138 12.642-1.936 4.728M600.2465 595.212l32.987-5.304-25.289-44.114-12.871-14.652 10.805 18.021 17.605 33.73-2.531 4.941M576.9615 526.1851l20.73-2.809-16.879-34.1-13.595-14.281 10.776 16.412 11.726 26.392-1.697 4.166M566.3188 452.291l-16.384-28.386 13.556 29.052 2.418 9.822-1.86 3.535-11.479 3.284 9.177-.349 8.826-1.054M519.4404 351.0004l19.413 29.353 15.06 30.928-1.96 4.659-12.679 4.072 22.217-2.384-21.166-39.492"/></g><g fill="#2D253A"><path d="M99.4404 454.0004l-14.303 16.953-16.861 25.99-8.099 21.043 10.856 1.99-11.595 16.785-11.821 31.335 9.752 2.126-18.462 26.683-13.056 26.914 12.022 1.849-20.873 29.182-23.763 46.245 25.986 2.636-15.934 29.067-10.191 30.108 18.914 2.851-13.661 24.92-10.654 31.477 15.384 2.318-15.423 29.361-11.658 36.681 80.277 11.061 35.298-8.124v55.328h23.583l1.593-54.309 39.61 6.09 107.449-15.932-23.457-27.211-20.917-35.04 16.24-2.199-19.748-23.695-17.825-31.107 32.191-4.36-18.89-22.664-22.389-39.07-1.456-2.246 25.673-4.128-25.288-44.114-18.983-21.61 8.73-.809-16.879-34.099-19.066-20.028 8.826-1.053-4.254-15.905-12.558-20.906-6.718-12.489 14.449-1.267-21.166-39.492"/></g><g fill="#2D253A"><path d="M19.4404 347.0004l-14.303 16.953-16.861 25.99-8.099 21.043 10.856 1.99-11.595 16.785-11.821 31.335 9.752 2.126-18.462 26.683-13.056 26.914 12.022 1.849-20.873 29.182-23.763 46.245 25.986 2.636-15.934 29.067-10.191 30.108 18.914 2.851-13.661 24.92-10.654 31.477 15.384 2.318-15.423 29.361-11.658 36.681 80.277 11.061 35.298-8.124v55.328h23.583l1.593-54.309 39.61 6.09 107.449-15.932-23.457-27.211-20.917-35.04 16.24-2.199-19.748-23.695-17.825-31.107 32.191-4.36-18.89-22.664-22.389-39.07-1.456-2.246 25.673-4.128-25.288-44.114-18.983-21.61 8.73-.809-16.879-34.099-19.066-20.028 8.826-1.053-4.254-15.905-12.558-20.906-6.718-12.489 14.449-1.267-21.166-39.492"/></g><g><path fill="#2D253A" d="M1797.5596 404.0004l14.303 16.953 16.861 25.99 8.099 21.043-10.856 1.99 11.595 16.785 11.821 31.335-9.752 2.126 18.462 26.683 13.056 26.914-12.022 1.849 20.873 29.182 23.763 46.245-25.986 2.636 15.934 29.067 10.191 30.108-18.914 2.851 13.661 24.92 10.654 31.477-15.384 2.318 15.423 29.361 11.658 36.681-80.277 11.061-35.298-8.124v55.328h-23.583l-1.593-54.309-39.61 6.09-107.449-15.932 23.457-27.211 20.917-35.04-16.24-2.199 19.748-23.695 17.825-31.107-32.191-4.36 18.89-22.664 22.389-39.07 1.456-2.246-25.673-4.128 25.288-44.114 18.983-21.61-8.73-.809 16.879-34.099 19.066-20.028-8.826-1.053 4.254-15.905 12.558-20.906 6.718-12.489-14.449-1.267 21.166-39.492"/><path fill="#F8C083" d="M1659.4564 809.733l-15.177 18.549 2.083 5.248 17.322 5.479-11.258-1.69-19.237-2.691 23.457-27.211 16.794-28.133M1681.824 772.9544l-20.565-2.82 19.78-23.673 15.382-27.026-13.203 27.89-13.794 17.908 2 3.546M1702.8466 715.9114l-36.14-4.895 18.889-22.664 20.852-36.389-19.144 40.128-10.138 12.642 1.936 4.728M1716.7535 648.212l-32.987-5.304 25.289-44.114 12.871-14.652-10.805 18.021-17.605 33.73 2.531 4.941M1740.0385 579.1851l-20.73-2.809 16.879-34.1 13.595-14.281-10.776 16.412-11.726 26.392 1.697 4.166M1750.6812 505.291l16.384-28.386-13.556 29.052-2.418 9.822 1.86 3.535 11.479 3.284-9.177-.349-8.826-1.054M1797.5596 404.0004l-19.413 29.353-15.06 30.928 1.96 4.659 12.679 4.072-22.217-2.384 21.166-39.492"/><g><path fill="#2D253A" d="M1673.5596 349.0004l14.303 16.953 16.861 25.99 8.099 21.043-10.856 1.99 11.595 16.785 11.821 31.335-9.752 2.126 18.462 26.683 13.056 26.914-12.022 1.849 20.873 29.182 23.763 46.245-25.986 2.636 15.934 29.067 10.191 30.108-18.914 2.851 13.661 24.92 10.654 31.477-15.384 2.318 15.423 29.361 11.658 36.681-80.277 11.061-35.298-8.124v55.328h-23.583l-1.593-54.309-39.61 6.09-107.449-15.932 23.457-27.211 20.917-35.04-16.24-2.199 19.748-23.695 17.825-31.107-32.191-4.36 18.89-22.664 22.389-39.07 1.456-2.246-25.673-4.128 25.288-44.114 18.983-21.61-8.73-.809 16.879-34.099 19.066-20.028-8.826-1.053 4.254-15.905 12.558-20.906 6.718-12.489-14.449-1.267 21.166-39.492"/><path fill="#F8C083" d="M1535.4564 754.733l-15.177 18.549 2.083 5.248 17.322 5.479-11.258-1.69-19.237-2.691 23.457-27.211 16.794-28.133M1557.824 717.9544l-20.565-2.82 19.78-23.673 15.382-27.026-13.203 27.89-13.794 17.908 2 3.546M1578.8466 660.9114l-36.14-4.895 18.889-22.664 20.852-36.389-19.144 40.128-10.138 12.642 1.936 4.728M1592.7535 593.212l-32.987-5.304 25.289-44.114 12.871-14.652-10.805 18.021-17.605 33.73 2.531 4.941M1616.0385 524.1851l-20.73-2.809 16.879-34.1 13.595-14.281-10.776 16.412-11.726 26.392 1.697 4.166M1626.6812 450.291l16.384-28.386-13.556 29.052-2.418 9.822 1.86 3.535 11.479 3.284-9.177-.349-8.826-1.054M1673.5596 349.0004l-19.413 29.353-15.06 30.928 1.96 4.659 12.679 4.072-22.217-2.384 21.166-39.492"/></g><g><path fill="#2D253A" d="M1544.7314182 465.000299l10.6911313 12.6719394 12.6031717 19.4268687 6.053798 15.7291111-8.1145859 1.4874747 8.6669697 12.5463637 8.835899 23.4221212-7.2893737 1.5891313 13.7998788 19.9448689 9.7590303 20.117535-8.9861414 1.382081 15.6020404 21.812808 17.7622424 34.56697-19.4238788 1.970343 11.9102626 21.726849 7.6175152 22.504969-14.1377374 2.131051 10.2112525 18.627071 7.963596 23.528262-11.4991515 1.732647 11.528303 21.946606 8.7140606 27.418121-60.0050303 8.267818-26.3843636-6.072485v41.356283H1532.98261l-1.190727-40.594606-29.607475 4.552121-80.315414-11.908767 17.533515-20.339536 15.634929-26.191515-12.13899-1.643697 14.761132-17.711414 13.323737-23.251697-24.061959-3.25899 14.119798-16.940768 16.735212-29.203838 1.088323-1.678828-19.189919-3.085576 18.902141-32.974101 14.189313-16.152929-6.525454-.604707 12.616626-25.488142 14.251354-14.9704241-6.597213-.7870909 3.179758-11.8885858 9.386788-15.6267071 5.021535-9.3352121-10.800262-.9470505 15.82105-29.5192728"/><path fill="#F8C083" d="M1441.502764 768.275172l-11.344425 13.864909 1.55699 3.922747 12.947758 4.095414-8.415071-1.263232-14.379172-2.011454 17.533516-20.339536 12.553091-21.028707M1458.22198 740.784097l-15.371818-2.107879 14.78505-17.69497 11.497657-20.201252-9.868909 20.847071-10.310667 13.385777 1.494949 2.650546M1473.935842 698.145895l-27.013737-3.658889 14.119051-16.940768 15.586343-27.199858-14.309657 29.994666-7.577899 9.449576 1.447112 3.534061M1484.330899 647.542303l-24.65695-3.964606 18.902889-32.974101 9.620748-10.952-8.076465 13.470242-13.159293 25.212324 1.891859 3.693272M1501.735848 595.946438l-15.495151-2.099656 12.616626-25.488889 10.161919-10.6746869-8.054787 12.2675559-8.764889 19.727353 1.268464 3.11398M1509.690998 540.7124646l12.246626-21.2178181-10.132767 21.7156363-1.807394 7.341697 1.390303 2.6423232 8.580262 2.4547071-6.859575-.2608687-6.597213-.7878384M1544.7314182 465.000299l-14.5107272 21.9406263-11.25697 23.1178989 1.465051 3.4824849 9.477232 3.0437172-16.606646-1.7819798 15.82105-29.5192728"/></g><g fill="#2D253A"><path d="M1900.4595273 483.0002707l9.6798081 11.4732424 11.4109798 17.589192 5.4811414 14.2412222-7.3469899 1.3467676 7.8471212 11.3595455 8.0000707 21.2065152-6.5998384 1.438808 12.4944849 18.058192 8.8358787 18.2145254-8.136101 1.251343 14.1261717 19.749435 16.0820303 31.297121-17.5864848 1.783959 10.7836162 19.671606 6.8969394 20.376122-12.8003839 1.929464 9.2453232 16.865051 7.21028288 21.302616-10.41139398 1.568747 10.43778792 19.870576 7.88975757 24.824515-54.3288788 7.485728-23.8885454-5.498061v37.444202h-15.9602122l-1.0780909-36.754576-26.806768 4.121515-72.71801-10.782262 15.87494-18.415525 14.155949-23.71394-10.990707-1.488212 13.364808-16.03601 12.063384-21.052212-21.785828-2.950707 12.784141-15.338263 15.152152-26.441313.985373-1.52002-17.374656-2.793697 17.114101-29.854929 12.847081-14.62495-5.908182-.547505 11.423161-23.077101 12.903253-13.5543031-5.973152-.7126363 2.87897-10.7639899 8.498849-14.1485051 4.546525-8.4521515-9.778616-.8574646 14.3244643-26.7269091"/></g><g fill="#2D253A"><path d="M2018.089273 370.00038384l-13.725101 16.26803026-16.1797474 24.939899-7.7717677 20.1927778 10.4173738 1.909596-11.1265152 16.1068182-11.3433838 30.0689389 9.3579798 2.040101-17.7160606 25.604899-12.5284849 25.826566 11.5362626 1.774293-20.0296464 28.002929-22.8028788 44.376515 24.9360606 2.529495-15.290202 27.892576-9.7792424 28.891515 18.1497979 2.735808-13.1090404 23.913132-10.2235353 30.205202 14.7624242 2.224343-14.7998485 28.174697-11.18696966 35.19894 77.03348486 10.61409 33.8718183-7.795757v53.092525h22.630151l1.528637-52.114697 38.009596 5.84394 103.107626-15.288283-22.509242-26.111566-20.071869-33.624242 15.583838-2.110152-18.950101-22.737626-17.104798-29.850152 30.890354-4.183838-18.126768-21.748283-21.484394-37.491414-1.397172-2.155253 24.635708-3.961212-24.266263-42.331616-18.21601-20.736868 8.377273-.776314-16.197021-32.721262-18.295656-19.218788 8.469394-1.010455-4.082122-15.2623734-12.050606-20.0613131-6.446565-11.984394 13.865202-1.2158081-20.310808-37.8963636"/></g><g fill="#2D253A"><path d="M2117.4745382 471.0002901l10.3732869 12.2952061 12.2284828 18.8493131 5.8738202 15.2614889-7.8733414 1.4432525 8.409303 12.1733636 8.5732101 22.7257879-7.0726626 1.5418869 13.3896121 19.3519129 9.468897 19.519447-8.7189859 1.340992 15.138196 21.164319 17.2341757 33.539303-18.8464121 1.911765 11.5561737 21.080916 7.3910485 21.835903-13.7174262 2.067695 9.9076747 18.073293 7.7268404 22.828773-11.1572848 1.681136 11.18556966 21.294139 8.45499394 26.602988-58.221097 8.022018-25.5999636-5.891951v40.126771h-17.1036303l-1.155327-39.387739-28.727253 4.416788-77.927658-11.554723 17.012248-19.734847 15.170107-25.412848-11.778101-1.594831 14.322287-17.184858 12.927626-22.560431-23.346604-3.162101 13.70002-16.437123 16.237679-28.335616 1.055968-1.628917-18.619408-2.993843 18.340186-31.993789 13.767468-15.672708-6.331454-.586729 12.241537-24.730386 13.827665-14.5253573-6.401079-.7636909 3.085224-11.5351414 9.107722-15.1621293 4.872246-9.0576788-10.479174-.9188949 15.350695-28.6416728"/></g></g><g><path d="M1734.89146 788c-5.00282 3.158-41.02317 6-41.02317 6l-86.04862 3-50.02826 5-45.02544 6-52.0294 2h-43.0243l-36.02035 4-21.01187 1-23.01301 11-29.01639 7-47.02657 14-11.00622-1-17.00961 8-14.00791 3-9.00509 3-7.00396 3-16.00904-1-9.00509 4-10.00565-2-7.00396 5h-10.00565l-15.00848 6-10.00565 7-9.00509 4-1.00057 6-11.00621 3h-12.00679l-9.00509 8h-8.08256l-9.88058 5.026-27.52656-.026-11.54252-3-5.00282 3-6.00339-6-8.00453-5-7.00395-3h-8.00453l-5.00282 3-7.00396 3-6.00339-5-9.00509-3-7.00396-4-3.001692-7-10.005653-3-16.009045-4-6.003392-4-12.006783-1-7.003957 2-4.002261 6-14.007914 5-8.004523-9-5.002826-5-6.003392-1-9.005088-1-10.005653-7-9.005087-2-9.005088 9-21.011871-19h-8.004522l-30.016959-12-32.018089-12-14.007914-12H644.275297l-73.041266-9s-115.065009-6-126.071227-9c-11.006218-3-28.015828-22-28.015828-22l-72.040701-7-63.035614 7-50.028264 3L157 788H-42v434h2184V788h-407.10854z" fill="#2D253A"/><path fill="#2F263C" d="M1766.344411 920.1546392h17.347432L1790 922.5051546V975h-5.519637l-14.152351-.391753-8.714719-52.1030924"/><path fill="#30283E" d="M1726.918429 916.1312619l17.347432 1.2833814 12.287502 14.7197117 5.05993 36.989278-10.119072 5.484536-13.010574-5.484536-11.565218-42.225443"/><path fill="#322941" d="M1702.202202 916.1312619l15.74516 1.447134 15.653692 51.1534841-17.994018-1.653979-8.567266-5.448495-8.95916-41.8360411"/><path fill="#332B43" d="M1672.573656 907.6056289l16.45325 1.8584742 10.939922 54.7254849-5.813755 1.052247-20.762511-2.345031-5.174266-6.798474 1.466647-44.0345568"/><path fill="#352C45" d="M1644.549668 901.7374103l19.464607 4.3656907-3.491565 56.428825-20.738855-1.369567-6.584928-7.177691 6.889297-46.1312165"/><path fill="#372D47" d="M1611.784153 897.904268l-10.978558 54.488866 7.953797 6.936371 15.350112-1.244206 8.946544-43.5331134-1.364139-16.8046186-16.078704-3.2805361"/><path fill="#382F49" d="M1589.376081 893.6506186l-25.629254 48.9048244 1.63539 6.737361 7.02571 2.044949 14.307689 1.762886 6.087372-6.256288 12.524057-48.7348046-2.177891-5.6185155-8.791206-2.1084123"/><path fill="#3A304C" d="M1567.268514 887.3625979l-52.502792 44.6449071-.252326 5.479052 32.18816 3.812536 9.776067-6.615134 26.379924-40.693691 2.08248-6.6276701-10.462867-3.2499793"/><path fill="#3B324E" d="M1468.283988 922.5051546l70.178248-45.4432989 11.039275 2.3505154 11.039274 3.9175258-66.235649 48.5773191-21.29003-3.917525"/><path fill="#3D3350" d="M1435.166163 904.4845361l69.389728-39.1752577 11.039275.7835051 9.462236 4.7010309-4.731118 10.9690722-68.601208 38.3917526-15.770393-4.701031M1397.297586 896.5877443l75.749139-39.8623917 12.614738 1.5826804 8.664253 7.063299-75.749927 40.6458969-16.558124-.8046598M1368.762717 883.082701l58.911879-31.0659794 16.334973-4.1353402 18.680818 8.2800825-76.578661 39.208165-11.211961-2.4562887M1330.2930514 871.5773196l83.5830816-32.9072165 10.250755.7835051 5.519638 7.0515464-76.4864052 37.6082475-13.4048338-2.3505155M1316.0996979 866.8762887l82.7945621-27.4226805-.78852-5.484536-14.981873-3.9175258-88.3141993 28.2061856v5.484536M1348.4287665 822.9996866l-8.673716 2.35129897-60.7428218 17.13760823-3.12726888.8822268-7.88519638 3.1348041.78851964 7.8350516 14.19335352 2.3497319 85.1601204-27.42268036-2.3655585-4.70024743"/><g fill="#F8C083"><path d="M1399.582164 900.7623381l-2.284341-4.1745154 75.749139-39.8623918 7.710933.9676289-7.770861-.3353402-74.567936 39.4244124M1372.637108 889.2888454l-3.873997-6.2061444 58.911879-31.0659794 16.334184-4.1353402 5.145879 2.2807835-5.70967-.6534433-15.507027 4.2920413-56.905097 29.5295258M1336.2394356 877.9782433l-5.9462265-6.4012371 83.5830819-32.9072165 8.407196.6432577-8.195873.905732-80.5173173 31.4068041M1294.8096677 863.742268v-5.484536l88.3141993-28.2061856 9.429906 2.4656907-9.581302-1.0679175-86.2498547 27.6632165M1348.4287665 822.9996866l-72.54380668 20.371134-7.88519638 3.1348041.80507855 7.2952165.8681601-6.2124123 6.59990938-3.5437938 21.01247132-5.1766186 13.7186646-4.3139794 24.1389517-6.4639175 11.7087281-3.67307218 11.9303021-.48185567"/></g></g><g><path d="M1430.93525468 852.42261114c-9.80166376-2.48808594-17.9709799-3.6938715-24.8991848-4.27430044-7.95925603-.66677466-14.73051663-.54723396-16.853501 1.49106494-2.35570267 2.1356343.6052216 6.3182583-4.3119411 7.40820233-3.17136822.6789769-9.32918202.0690431-12.69117956.6203076-10.86856836-4.03667225-18.40444074-9.79593022-28.6489957-13.98392098-4.23108426-1.7309928-8.2975275-4.90595177-12.39339444-5.8975676 2.8968077 1.71452796 7.93630465 5.60502762 11.99716447 7.25290217 6.98969318 2.83582073 9.54799003 5.46132586 15.36862092 8.51496845.69115372.36233623 2.5028362 1.57701998 3.18917774 1.94104234 1.84087672 1.43678214 5.8473043 4.38589576 4.56499297 5.21341234-.25388864.1407038-3.44390648-.80755997-5.97006993-1.5158793-1.31755988-.46515798-2.64446575-.92496317-4.01268453-1.37694255-5.56671508-1.8361321-11.45035345-3.7357751-16.8166972-5.74851222-6.4707551-2.42706498-21.29908483-7.72996784-27.50484955-10.20437306-1.39190483-.1103583-1.05896042.62041666.19512068 1.38835583 1.25534972.76978054 11.76437598 5.38815245 13.57911477 6.12879753 15.04282203 6.1321212 30.42260795 11.3494433 46.3926689 17.6340013 14.9912746 6.22520105 31.47245865 12.93476053 47.78352506 19.01587987-7.24276257-1.74801382-14.71827036-3.82281605-22.13437284-6.15034543-6.35930967-1.99335434-16.74956782-5.66605234-22.95856542-7.40181925-1.68383062-.47023234-2.10282096-.0528583.03509323.92511916 19.26382687 7.19501487 39.96936072 13.8056962 60.3513924 19.26418732 2.12837002.5723583 4.341871 1.1468898 6.1183853 1.40717993 15.8773717 5.81185753 31.4945383 11.0584273 46.24016707 15.787253 6.68479746 2.14654606 13.9981529 4.3824837 18.5594029 4.89163542 4.59511173.23274915-11.29372564-5.38764942-17.85559612-7.85946913.5763357-1.2019073 1.13034485-2.41178492 1.66301774-3.62977203 6.3011086 1.71575276 12.46114943 3.2756213 18.38994923 4.65592487 2.7113168.63180633 5.80780503 1.16605776 4.85616782.2364532-.8134921-.79451594-3.96415623-2.00884602-6.5600828-2.94769973-19.7481749-7.1420916-39.13094085-14.14872-58.1486618-20.92188073-1.31005536-.84287836-3.16897085-1.74696584-4.98541722-2.60754042-6.8579234-3.25625114-13.9448182-6.44598832-21.16347214-9.53137262 6.56563852 1.24838897 12.87640873 2.32154337 17.39503425 2.4196268 6.76091906.13739908 8.51934016-2.15968086 4.60607247-6.02669276-2.9868047-2.93689883-8.98824806-6.76693297-8.8409556-8.729532.1374751-2.99528272 14.04652484-.16651897 27.230158 3.68717784-10.04752385-4.5751803-21.8735048-8.5550537-31.76560414-11.075872M1386.6389 771.904c-5.451-.311-9.882-4.357-14.874-6.594-6.59-2.953-14.537-2.617-20.839.882-4.196 2.329-7.524 5.854-10.628 9.573-1.218-4.61-2.847-9.148-4.88-13.557-.536-1.161-1.146-2.355-2.132-3.26.463-11.289.652-22.597.838-33.893.025-1.469-.149-3.267-1.493-3.868-1.574-.704-3.186.866-4.155 2.291-2.122 3.126-3.986 6.425-5.566 9.854-3.82-.149-7.639-.299-11.459-.449-.205-3.781.287-12.713-3.62-10.618-3.129 2.172-4.303 6.168-5.099 9.88-1.771 8.268-3.005 17.244-2.963 26.707-1.049.914-1.68 2.153-2.235 3.356-5.361 11.623-7.925 24.138-7.486 36.53.533 1.477 2.077 1.467 2.468.44 1.435-3.769 1.759-10.357 2.646-14.239 1.029-4.492 2.797-8.872 5.221-12.977.343 10.187 2.216 20.926 4.251 30.944 1.232 10.746 2.7 21.462 4.434 32.135.212 1.304.456 2.671 1.297 3.695.841 1.025 2.488 1.534 3.564.73-.567-4.449-.94-8.923-1.115-13.407-.145-3.688.523-7.569 1.053-11.229.13-.896.196-1.773.236-2.645.58-1.592 1.164-3.619 1.794-3.692 3.505-.331 6.172 3.373 8.24 4.899.307.503.616 1.005.913 1.51 2.512 4.279 4.213 9.049 4.981 13.962.449 2.877.654 5.988 2.433 8.277 1.361-2.677.943-5.925.436-8.924-1.213-7.183-2.745-14.388-2.934-21.637 4.809-1.579 9.238-5.055 14.204-6.523 7.799-2.305 16.186.523 24.285-.212 7.608-.689 14.614-4.507 20.666-9.182 5.266-4.068 10.071-8.948 13.017-14.936 2.947-5.988 3.863-13.206 1.409-19.43-2.595 7.868-8.674 16.077-16.908 15.607zm-54.03.125c1.588 2.699 2.886 5.518 3.882 8.408-1.576 1.922-3.217 3.828-4.988 5.568.447-4.652.809-9.312 1.106-13.976z" fill="#2D253A"/><path d="M1330.4758 723.4654c-2.122 3.126-3.986 6.425-5.566 9.854-.654-.026-1.308-.051-1.963-.077 1.573-3.401 3.423-6.675 5.529-9.777.969-1.426 2.581-2.996 4.155-2.292.057.026.099.065.152.094-.903.435-1.723 1.338-2.307 2.198zm-3.4253 91.4244c2.511 4.279 4.213 9.049 4.98 13.961.309 1.978.514 4.062 1.183 5.918-.139.818-.37 1.612-.75 2.359-1.779-2.288-1.983-5.399-2.433-8.277-.767-4.912-2.469-9.682-4.98-13.961-.297-.506-.607-1.008-.914-1.51-1.713-1.266-3.84-4.019-6.513-4.739.09-.087.181-.15.274-.161 3.504-.331 6.172 3.373 8.239 4.9.307.502.617 1.004.914 1.51zm-27.5162-52.695c-5.361 11.624-7.926 24.138-7.486 36.53.092.255.221.451.363.62-.5.83-1.866.759-2.363-.62-.44-12.392 2.125-24.906 7.486-36.53.555-1.202 1.186-2.442 2.235-3.356-.042-9.463 1.192-18.439 2.963-26.707.795-3.712 1.97-7.707 5.098-9.879.845-.453 1.484-.389 1.969.026-3.103 2.176-4.274 6.154-5.067 9.853-1.771 8.268-3.005 17.244-2.963 26.707-1.049.914-1.68 2.154-2.235 3.356zm11.5336 72.8338c.212 1.304.456 2.671 1.297 3.695.324.394.768.71 1.253.906-1.063.519-2.489.025-3.253-.906-.841-1.024-1.085-2.391-1.297-3.695-1.734-10.673-3.202-21.39-4.433-32.135-1.81-8.909-3.486-18.385-4.077-27.538l-.04-.527-.04-.711-.042-.834-.052-1.322c.997-1.297 1.652-1.329 1.652-1.329l.348 1.316c.341 10.188 2.215 20.927 4.251 30.945 1.231 10.745 2.699 21.462 4.433 32.135zm21.5411-62.9998l.113-.013c2.161 2.251 4.773 5.518 5.769 8.409-1.576 1.922-4.494 3.822-6.886 5.568l-.102.012 2.202-2.328c.957-1.062 1.884-2.152 2.786-3.252-.595-1.727-1.31-3.423-2.118-5.087l-1.764-3.309zm71.8204-12.8358c-3.01 6.852-8.571 13.11-15.79 12.698-.11-.006-.218-.023-.327-.033 7.382-.638 12.819-8.249 15.235-15.574.374.949.66 1.923.882 2.909zm-62.6335 14.814c2.685-3.057 5.599-5.868 9.13-7.828 3.714-2.062 7.999-3.016 12.241-2.855-3.574.162-7.111 1.117-10.241 2.855-2.078 1.153-3.943 2.6-5.673 4.218-1.764 1.65-3.388 3.478-4.955 5.356l-2 .012 1.498-1.758z" fill="#F8C083"/></g></g></svg>