<svg width="2100" height="1180" viewBox="0 0 2100 1180" xmlns="http://www.w3.org/2000/svg"><g fill="none" fill-rule="evenodd"><path d="M1179.7307 817.8614c-13.886 24.001-33.642 45.083-57.643 58.969-23.264 13.46-51.074 18.704-79.885 18.704-28.81 0-55.855-6.567-79.119-20.027-24.002-13.886-43.374-34.309-57.261-58.31-13.46-23.265-24.823-49.924-24.823-78.735 0-28.81 8.646-57.042 22.106-80.307 13.887-24.001 37.054-40.988 61.056-54.875 23.264-13.46 49.23-25.281 78.041-25.281 28.81 0 56.508 8.83 79.772 22.29 24.001 13.886 43.618 34.918 57.505 58.919 13.46 23.265 23.529 50.443 23.529 79.254 0 28.81-9.818 56.135-23.278 79.399z" fill-opacity=".08" fill="#FFEDDD"/><path d="M1160.4704 806.7394c-12.107 20.927-27.558 40.485-48.485 52.593-20.284 11.735-44.663 16.392-69.783 16.392-25.119 0-49.625-4.438-69.909-16.174-20.926-12.108-39.725-29.874-51.832-50.801-11.736-20.284-17.085-45.167-17.085-70.287 0-25.12 8.511-48.174 20.247-68.458 12.107-20.927 28.47-39.267 49.396-51.375 20.284-11.736 44.064-18.668 69.183-18.668 25.12 0 48.558 7.522 68.842 19.258 20.927 12.107 40.072 28.446 52.179 49.373 11.736 20.284 17.3 44.75 17.3 69.87 0 25.12-8.317 47.993-20.053 68.277z" fill-opacity=".22" fill="#FFEDDD"/><path d="M1148.571 799.8694c-10.945 18.918-24.778 36.204-43.695 47.149-18.337 10.609-39.965 14.246-62.673 14.246s-45.213-2.123-63.549-12.732c-18.917-10.945-32.89-29.158-43.835-48.075-10.609-18.337-15.268-39.287-15.268-61.995s6.212-42.76 16.821-61.096c10.945-18.917 24.739-35.654 43.656-46.599 18.336-10.609 39.467-19.194 62.175-19.194s43.491 9.184 61.828 19.793c18.917 10.945 36.249 25.236 47.194 44.153 10.609 18.337 15.859 40.235 15.859 62.943s-7.904 43.071-18.513 61.407z" fill-opacity=".4" fill="#FFEDDD"/><path d="M1129.0359 800.3203c-16.069 22.558-39.338 40.497-68.81 45.447-29.471 4.95-57.325-4.401-79.882-20.471-22.557-16.069-41.994-39.088-46.944-68.559-4.95-29.471 5.071-58.166 21.14-80.724 16.07-22.557 40.553-37.614 70.024-42.564 29.472-4.95 56.627 2.55 79.184 18.62 22.557 16.069 40.427 38.963 45.377 68.434 4.95 29.471-4.02 57.26-20.089 79.817z" fill-opacity=".85" fill="#FFEDDD"/><path d="M1114.8517 811.1114c-18.287 18.287-44.744 29.92-72.649 29.92s-53.639-12.356-71.926-30.643-27.679-44.021-27.679-71.926 8.985-54.046 27.272-72.333 44.428-28.168 72.333-28.168 54.381 9.546 72.668 27.833c18.287 18.287 27.727 44.763 27.727 72.668 0 27.905-9.459 54.362-27.746 72.649z" fill="#FFEDDD"/><path d="M1112.703116 808.981817c-17.743208 17.743208-43.413468 29.030283-70.48867 29.030283-27.075202 0-52.043962-11.988575-69.7871694-29.731783-17.7432078-17.743208-26.8559222-42.711968-26.8559222-69.787169 0-27.075202 8.7178172-52.438859 26.461025-70.182067 17.7432076-17.7432078 43.1068646-27.330381 70.1820666-27.330381 27.075202 0 52.763897 9.262135 70.507105 27.0053428 17.743208 17.7432082 26.902495 43.4319032 26.902495 70.5071052 0 27.075201-9.177722 52.745462-26.92093 70.488669z" fill="#FFFFFF"/></g></svg>