<svg width="3000" height="688" viewBox="0 0 3000 688" xmlns="http://www.w3.org/2000/svg"><g fill="none" fill-rule="evenodd"><path fill="#4961B4" d="M741.14 182l-15.015 28.257-28.79 18.655-41.79 15.716L616 270v395h1770V271.11l-74.057-16.5-48.78-41.996-82.464-5.997-66.01 18.002-75.05-7.492-54.042 12.015-24.018-11.968-54.055 10.56-28.528 4.626-15.016 7.75-11.583 22.89h-15.444l-15.267 7-15.43 4.11L1794 274l-3 9.11-11.56 3.003-8.64 10.503-22.483 10.507-31.514 1.516-12.003 10.53-27.024 3.062-27.027 12.125-22.524 9.143-18.103-8.5h-41.96l-46.55-1.446L1502 344h-70.485l-43.643-15h-20.927l-21.022-8.946-69.177-6.054h-16.416l-10.614-10H1231.8l-7.508-15.445-31.535-7.946-21.13-14.61h-17.912l-6.115-10h-11.904l-28.446-21.222-70.49-27.223L966.35 183h-22.864l-10.51 9.67-17.64-9.67h-37.922l-74.08 7.73"/><path fill="#485AAF" d="M741.07 276l-32.018 12.656L684.038 303l-33.018-4-35.02 8v358h1770V352h-27.468l-7.504 4.052-12.006 5.553-30.066-2.605H2297l-15.008 2.552-10.505 4.053-18.01 3-13.506-4.5-13.506-2.998-15.008-2.998-13.506 7.503-42.022 6.007-40.52-19.484-57.03 18.03-61.533-8.936-48.025-25.374-57.03 21.25L1852.7 356h-43.452l-19.51-9.446-39.02 16.052-27.013 1.5-21.01-7.497-33.018 3.003-52.527-1.493-22.512 10.516-24.012 12.03-22.512-5.937-25.513 3.124-24.01-5.75-25.106-5.104h-33.425l-9.006-8.135-22.512-11.134-22.51-4.374-27.015-4.25L1347.413 326h-63.434l-10.07 8.99-31.08 11.99-18.883 2.375-9.005 1.75-8.61 4.895h-16.903l-13.507-7.822-15.374-4.61-8.64 3.038-11.614 3.394h-12.398l-11.883-4.445-13.63-8.198-16.51-5.75-13.618 2.393h-13.394l-10.506-5.193-13.507-12.692-15.008-1.492-12.006 7.515-16.508 7.53-9.005-5.936-18.01-4.375-15.007-5.75-9.123-8.607h-11.888l-25.513 2.68-10.506-6.322-15.007-2.75L865.14 295h-11.883l-24.138 6.804-9.13-6.695-12.257-13.5"/><path fill="#4351A0" d="M1974.102 233l-21.023 9-7.51-3-16.518-4.498-10.51 1.503-6.007 1.505-7.508 4.51-7.51 9.022-6.004 12.043-7.51 12.086-7.507 15.174-4.504 12.348-4.506 11.196h-7.508l-7.508-8.196-7.508-8.196-7.508-3-7.51-1.5-4.503-3-6.006-1.5-4.504 1.5-6.007 4.5-9.01 10.5-7.508 6-7.507 3-7.51 4.5-6.006 6-6.006 7.5-7.508 7.502L1745.855 350l-7.508 1.51-12.013 4.515-15.016 9.03-6.006-1.437-27.03 12.124-16.518 19.75-5.59.396h-10.928l-12.013 2.552-24.025 2.55-12.013-6-16.518-3-24.027 3-19.52-4.498-16.518-19.5-25.528-10.5-9.01-13.498-27.03-7.5-19.52 4.5-16.517 4.5-10.512 9-6.007 10.5-19.52 4.5-24.026-3.002-12.014-3-7.507 6-10.51-4.5-10.512-3-6.007-3-9.01 6-6.006-3-10.51-6-6.006 4.5-15.017-12-13.513-10.498-10.512-10.5-9.01-12-21.022-13.5-10.51-1.498-13.517 7.5-24.025-7.5-12.012-9-12.014 9-7.507-4.5-6.007 3-6.007 3-15.015 7.5-16.52 4.5-10.51-8.996-10.51-7.496-21.024-8.992-16.518-1.484-9.01 9.03-16.517 9.062-19.522-4.375-16.518-10.25-30.15-5.607h-47.935l-13.514-11.693L856.898 287l-16.516-8.997-12.008-7.495-13.507-2.24-7.492 3.772-23.994-3.708-23.964-3.665-17.893 7.67-24.41 30.55-34.037 9.107-41.046 11.894L616 311.994V665h1770V271.997l-17.496-4.493-9.987-7.492-6.006-5.986-19.52 3.027-10.512 6.056-46.55 1.61-13.515-4.277-9.01-2.555h-7.508l-10.51 5h-12.015l-10.51-11.194-7.508-6.695-10.512-1.502-7.508 4.5-13.515 13.5-19.52-4.5-30.034-7.5-22.524 25.5-60.065-12-16.52-4.5-15.014-15"/><path d="M1174 369.688c-1-3.157-2.788-6.33-4.432-9.52-1.652 1.853-3.06 3.736-4.718 5.647-2.308-3.025-4.493-6.062-6.804-9.112-1.67 2.282-3.28 4.594-4.955 6.935-1.663-2.158-3.297-4.32-4.963-6.49-1.676 1.318-3.34 2.656-5.02 4.015-1.666-2.857-3.326-5.723-4.995-8.598-2.015 1.998-4.03 4.027-6.05 6.086-1.343-2.074-2.683-4.154-4.026-6.237-1.36 1.5-2.718 3.012-4.08 4.538-1.35-1.352-2.698-2.707-4.048-4.06-1.692.75-3.384 1.514-5.078 2.29l-5.053-5.306c-1.698 1.156-3.397 2.328-5.097 3.514-1.688-1.386-3.378-2.77-5.068-4.152-1.7.833-3.402 1.68-5.104 2.54l-4.063-7.297c-2.043 1.93-4.086 3.886-6.13 5.86-2.02-4.006-4.042-8.02-6.066-12.037-1.718 3.537-3.436 7.093-5.153 10.67-2.363-3.28-4.73-6.56-7.096-9.836-2.05 2.813-4.104 5.647-6.156 8.5-2.035-2.84-4.07-5.675-6.108-8.508-2.052 2.496-4.104 5.01-6.155 7.542-1.7-3.933-3.4-7.865-5.104-11.796-1.38 3.736-2.762 7.482-4.143 11.238-1.032-1.968-2.065-3.935-3.098-5.9l-2.108 5.65c-1.704-4.29-3.41-8.58-5.12-12.864-1.716 4.157-3.432 8.326-5.147 12.506-1.708-2.733-3.417-5.46-5.127-8.18-1.713 2.658-3.426 5.326-5.137 8.002-1.71-3.86-3.422-7.712-5.135-11.556-1.713 3.845-3.425 7.697-5.137 11.556-1.713-1.907-3.426-3.806-5.14-5.696-1.71 1.952-3.422 3.91-5.132 5.876-1.714-3.795-3.43-7.58-5.148-11.353-1.708 3.9-3.414 7.805-5.12 11.713-1.376-1.857-2.753-3.706-4.13-5.55-1.372 1.988-2.74 3.977-4.11 5.968-1.377-1.833-2.754-3.658-4.132-5.476-1.705 2.024-3.41 4.052-5.113 6.083-2.056-4.042-4.112-8.062-6.17-12.06-2.368 4.396-4.734 8.793-7.098 13.188-1.72-3.622-3.436-7.227-5.154-10.814l-5.072 11.89c-1.712-2.063-3.423-4.113-5.134-6.147-1.693 2.467-3.385 4.936-5.076 7.403-1.714-3.515-3.428-7.008-5.14-10.478-1.35 3.93-2.7 7.85-4.046 11.763-1.704-1.604-3.408-3.194-5.11-4.767-1.69 2.123-3.375 4.245-5.06 6.365-1.37-1.982-2.737-3.95-4.104-5.904-1.68 2.503-3.362 5.002-5.042 7.497-2.038-3.64-4.075-7.245-6.11-10.812-2 4.4-4 8.785-6 13.152-1.704-4.69-3.406-9.343-5.106-13.956-1.66 5.394-3.32 10.764-4.98 16.108-1.688-2.467-3.374-4.908-5.058-7.32-1.664 3.228-3.328 6.446-4.992 9.65-1.68-2.047-3.358-4.07-5.033-6.067-1.662 2.87-3.323 5.73-4.985 8.578-1.676-3.705-3.35-7.37-5.02-10.995-1.652 4.588-3.306 9.15-4.96 13.684-1.65-2.594-3.794-5.156-5.436-7.683-1.637 3.528-3.412 7.036-5.412 10.524V545h335V369.688zM1913 410l-4.87-5.833-4.054 4.877-2.508-4.877-4.718 4.648s-3.493-5.062-5.804-8.112c-1.67 2.282-4.28 4.594-5.955 6.935-1.663-2.158-3.297-4.32-4.963-6.49-1.676 1.318-3.34 2.656-5.02 4.015-1.666-2.857-3.326-5.723-4.995-8.598-2.015 1.998-4.03 4.027-6.05 6.086-1.343-2.074-2.683-4.154-4.026-6.237-1.36 1.5-2.718 3.012-4.08 4.538-1.35-1.352-2.698-2.707-4.048-4.06-1.692.75-3.384 1.514-5.078 2.29l-5.053-5.306c-1.698 1.156-3.397 2.328-5.097 3.514-1.688-1.386-3.378-2.77-5.068-4.152-1.7.833-3.402 1.68-5.104 2.54l-4.063-7.297c-2.043 1.93-4.086 3.886-6.13 5.86-2.02-4.006-4.042-8.02-6.066-12.037-1.718 3.537-3.436 7.093-5.153 10.67-2.363-3.28-4.73-6.56-7.096-9.836-2.05 2.813-4.104 5.647-6.156 8.5-2.035-2.84-4.07-5.675-6.108-8.508-2.052 2.496-4.104 5.01-6.155 7.542-1.7-3.933-3.4-7.865-5.104-11.796-1.38 3.736-2.762 7.482-4.143 11.238-1.032-1.968-2.065-3.935-3.098-5.9l-2.108 5.65c-1.704-4.29-3.41-8.58-5.12-12.864-1.716 4.157-3.432 8.326-5.147 12.506-1.708-2.733-3.417-5.46-5.127-8.18-1.713 2.658-3.426 5.326-5.137 8.002-1.71-3.86-3.422-7.712-5.135-11.556-1.713 3.845-3.425 7.697-5.137 11.556-1.713-1.907-3.426-3.806-5.14-5.696-1.71 1.952-3.422 3.91-5.132 5.876-1.714-3.795-3.43-7.58-5.148-11.353-1.708 3.9-3.414 7.805-5.12 11.713-1.376-1.857-2.753-3.706-4.13-5.55-1.372 1.988-2.74 3.977-4.11 5.968-1.377-1.833-2.754-3.658-4.132-5.476-1.705 2.024-3.41 4.052-5.113 6.083-2.056-4.042-4.112-8.062-6.17-12.06-2.368 4.396-4.734 8.793-7.098 13.188-1.72-3.622-3.436-7.227-5.154-10.814l-5.072 11.89c-1.712-2.063-3.423-4.113-5.134-6.147-1.693 2.467-3.385 4.936-5.076 7.403-1.714-3.515-3.428-7.008-5.14-10.478-1.35 3.93-2.7 7.85-4.046 11.763-1.704-1.604-3.408-3.194-5.11-4.767-1.69 2.123-3.375 4.245-5.06 6.365-1.37-1.982-2.737-3.95-4.104-5.904-1.68 2.503-3.362 5.002-5.042 7.497-2.038-3.64-4.075-7.245-6.11-10.812-2 4.4-4 8.785-6 13.152-1.704-4.69-3.406-9.343-5.106-13.956-1.66 5.394-3.32 10.764-4.98 16.108-1.688-2.467-3.374-4.908-5.058-7.32-1.664 3.228-3.328 6.446-4.992 9.65-1.68-2.047-3.358-4.07-5.033-6.067-1.662 2.87-3.323 5.73-4.985 8.578-1.676-3.705-3.35-7.37-5.02-10.995-1.652 4.588-3.306 9.15-4.96 13.684-1.65-2.594-3.794-5.156-5.436-7.683-1.637 3.528-3.412 7.036-5.412 10.524l-5.25-5.53-2.99 8.49-2.51-2.96L1557 420v155h356V410z" fill="#3D4797"/><path fill="#3A4088" d="M819.288 343l-12.465 17.033-14.195-14.843-11.505 17.007-14.22-14.844-11.567 17.008L741 350.017l-14 16.06-12-14.59-6 14.59-16-19.615-7 19.615-12-19.614-11 19.615-13-19.614-8 25.026-14-19-12 22.264V665h1770V351.486l-6.24 17.303-6.785-15.626-5.178 16.29-6.963-15.625-5.27 16.29-7.172-15.615-6.012 16.594-8.782-15.252-5.88 16.583-8.783-15.25-5.882 16.583-7.69-15.276-9.13 14.512-12.476-17.058-10.193 14.394-4.472-17.057-10.194 14.392-5.968-17.185-10.944 17.42-13.99-14.36-10.013 17.357-21.985-14.36-5.013 17.356-9.824-14.21-12.72 24.3-6.798-12.5-9.637 12.492-3.523-17.048-7.48 11.717-6.517-17.042-8.48 11.718-4.692-13.74-7.504 12.206-8.13-15.637-6.873 16.302-8.128-15.637-4.87 16.303-9.95-15.562-11.93 18.738-10.878-12.66-11.455 18.654-13.874-12.662-11.455 18.654-14.162-15.593-11.187 21.76-11.855-12.003-10.816 18.662-11.85-12.003-10.816 18.662-11.75-12.033-9.778 18.08-11.127-11.78-8.876 17.107-11.124-11.78-8.874 17.108-8.136-12.776-9.152 17.426-7.547-13.42-7.12 17.415-10.544-17.417-4.122 21.413-10.903-8.575-5.52 11.64-9.53-9.067-6.14 10.735-8.526-11.066-7.14 12.728-8.185-10.096-9.56 8.996-3.377-17.276-10.963 13.778-3.365-17.273-10.96 13.78-4.318-17.446-8.45 15.926-7.505-15.982-7.498 15.982-7.5-15.982-7.498 15.982-6.952-15.963-10.54 14.778-7.02-11.988-10.983 9.74-7.016-10.99-3.98 8.743-7.17-16.83-8.416 12.864-7.35-17.046-7.654 12.464-7.342-17.04-7.652 12.464-3.394-10.664-2.687 10.78-7.695-8.817-4.977 13.314-6.685-8.82-5.975 13.313-7.443-21.137-7.57 23.844-6.005-11.986-6 11.986-5.995-12.985-6 12.984L1532 404.93l-7.337 21.974-8.337-16.982-6.33 16.982-7.335-20.976-7.33 20.976-9.337-15.92-5.354 14.024-6.29-21.808-7.715 16.73-6.282-16.812-6.713 13.733-4.585-20.163-3.224 20.262-8.177-21.167-5.495 24.08-6.167-11.178-7.49 14.09-8.424-22.34-8.475 22.162-5.717-13.116-7.287 9.952-6.708-14.112-6.285 10.95-10.773-27.28-8.5 25.928-8.672-15.984-8.664 15.984-8.668-15.984-8.664 15.984-11.686-15.923-7.64 13.208-8.69-18.175-11.313 16.094-11.685-21.172-10.312 16.095-10.9-20.965-11.427 9.888-11.536-19.76-11.135 11.622-10.53-20.757-13.135 13.62-11.75-28.34-9.193 22.94-12.983-13.675-9.022 17.9-13.976-13.677-9.02 17.904-12.46-15.74-9.944 17.947-8.354-23.44-6.17 12.21-6.146-4.75-11.665 15.98-7.667-22.974-9.664 22.975-9.662-15.98-9.67 15.98-9.673-15.98-9.664 15.98-9.668-15.98-9.664 15.98-8.895-15.945-13.347 13.822-8.352-17.73-13.985 13.734-8.345-17.73-13.985 13.736-8.566-17.767-18.885 13.663-14.61-18.014-18.73 13.684-14.604-18.014-18.725 13.685"/><path fill="#353974" d="M1592.673 447l-7.382 28.193-7.097-14.396-6.24 17.064-9.088-14.397-7.24 17.063-6.87-14.53-10.627 15.323-13.77-16.652-10.232 15.317-14.764-23.65-14.23 22.317-13.463-16.63-11.14 14.557-7.073-17.174-11.594 14.507-11.072-17.173-7.592 14.506-12.933-24.218-9.518 29.234-12.01-13.032-9.324 20.032-10.004-17.034-8.326 21.033-7.3-14.174-7.315 18.727-12.957-17.138-9.047 18.805-10.955-29.14-12.05 30.806-12.75-20.148-11.53 21.162-9.057-15.832-8.8 16.166L1249.08 480l-10.13 16.827L1228 483v182h648V465l-10.84 14.994-15.83-22-8.834 22-14.836-15-10.832 15-10.036-18.997-8.5 19.472-13.598-21.45-8.074 22.45-7.587-13.45-5.073 14.45-9.22-10.473-6.744 10.997-11.004-21-6.998 21-10-16-8 16-10.623-15.99-8.112 15.122-9.528-24.766-8.474 23.1-10.525-16.766-7.472 15.098-10.6-17.77-6.41 16.284-11.01-16.625-8.325 15.292-11.007-19.625-6.324 18.292M2159.327 447l7.382 28.193 7.097-14.396 6.24 17.064 9.088-14.397 7.24 17.063 6.87-14.53 10.627 15.323 13.77-16.652 10.232 15.317 14.764-23.65 14.23 22.317 13.463-16.63 11.14 14.557 7.073-17.174 11.594 14.507 11.072-17.173 7.592 14.506 12.933-24.218 9.518 29.234 12.01-13.032 9.324 20.032 10.004-17.034 8.326 21.033 7.3-14.174 7.315 18.727 12.957-17.138 9.047 18.805 10.955-29.14 12.05 30.806 12.75-20.148 11.53 21.162 9.057-15.832 8.8 16.166L2502.92 480l10.13 16.827L2524 483v182h-648V465l10.84 14.994 15.83-22 8.834 22 14.836-15 10.832 15 10.036-18.997 8.5 19.472 13.598-21.45 8.074 22.45 7.587-13.45 5.073 14.45 9.22-10.473 6.744 10.997 11.004-21 6.998 21 10-16 8 16 10.623-15.99 8.112 15.122 9.528-24.766 8.474 23.1 10.525-16.766 7.472 15.098 10.6-17.77 6.41 16.284 11.01-16.625 8.325 15.292 11.007-19.625 6.324 18.292M863.327 447l7.382 28.193 7.097-14.396 6.24 17.064 9.088-14.397 7.24 17.063 6.87-14.53 10.627 15.323 13.77-16.652 10.232 15.317 14.764-23.65 14.23 22.317 13.463-16.63 11.14 14.557 7.073-17.174 11.594 14.507 11.072-17.173 7.592 14.506 12.933-24.218 9.518 29.234 12.01-13.032 9.324 20.032 10.004-17.034 8.326 21.033 7.3-14.174 7.315 18.727 12.957-17.138 9.047 18.805 10.955-29.14 12.05 30.806 12.75-20.148 11.53 21.162 9.057-15.832 8.8 16.166L1206.92 480l10.13 16.827L1228 483v182H580V465l10.84 14.994 15.83-22 8.834 22 14.836-15 10.832 15 10.036-18.997 8.5 19.472 13.598-21.45 8.074 22.45 7.587-13.45 5.073 14.45 9.22-10.473 6.744 10.997 11.004-21 6.998 21 10-16 8 16 10.623-15.99 8.112 15.122 9.528-24.766 8.474 23.1 10.525-16.766 7.472 15.098 10.6-17.77 6.41 16.284 11.01-16.625 8.325 15.292 11.007-19.625 6.324 18.292"/><g fill="#2D253A"><path d="M603.44 36l-14.303 16.953-16.86 25.99-8.1 21.043 10.856 1.99-11.595 16.785-11.82 31.336 9.75 2.126-18.46 26.683-13.057 26.914 12.023 1.848L521 236.85l-23.763 46.245 25.986 2.636L507.29 314.8l-10.192 30.108 18.914 2.85-13.66 24.92-10.655 31.478 15.384 2.318-15.422 29.36L480 472.515l80.277 11.06 35.298-8.123v55.33h23.583l1.593-54.31 39.61 6.09 107.45-15.932-23.457-27.21-20.917-35.04 16.24-2.2-19.748-23.695-17.825-31.107 32.19-4.36-18.89-22.664-22.388-39.07-1.456-2.246 25.672-4.128-25.288-44.114-18.983-21.61 8.73-.81-16.878-34.098-19.066-20.028 8.826-1.053-4.254-15.905-12.558-20.906-6.718-12.49 14.45-1.266-21.167-39.492"/><path d="M744.44 4l-14.303 16.953-16.86 25.99-8.1 21.043 10.856 1.99-11.595 16.785-11.82 31.336 9.75 2.126-18.46 26.683-13.057 26.914 12.023 1.848L662 204.85l-23.763 46.245 25.986 2.636L648.29 282.8l-10.192 30.108 18.914 2.85-13.66 24.92-10.655 31.478 15.384 2.318-15.422 29.36L621 440.515l80.277 11.06 35.298-8.123v55.33h23.583l1.593-54.31 39.61 6.09 107.45-15.932-23.457-27.21-20.917-35.04 16.24-2.2-19.748-23.695-17.825-31.107 32.19-4.36-18.89-22.664-22.388-39.07-1.456-2.246 25.672-4.128-25.288-44.114-18.983-21.61 8.73-.81-16.878-34.098-19.066-20.028 8.826-1.053-4.254-15.905-12.558-20.906-6.718-12.49 14.45-1.266-21.167-39.492"/><path d="M971.44 4l-14.303 16.953-16.86 25.99-8.1 21.043 10.856 1.99-11.595 16.785-11.82 31.336 9.75 2.126-18.46 26.683-13.057 26.914 12.023 1.848L889 204.85l-23.763 46.245 25.986 2.636L875.29 282.8l-10.192 30.108 18.914 2.85-13.66 24.92-10.655 31.478 15.384 2.318-15.422 29.36L848 440.515l80.277 11.06 35.298-8.123v55.33h23.583l1.593-54.31 39.61 6.09 107.45-15.932-23.457-27.21-20.917-35.04 16.24-2.2-19.748-23.695-17.825-31.107 32.19-4.36-18.89-22.664-22.388-39.07-1.456-2.246 25.672-4.128-25.288-44.114-18.983-21.61 8.73-.81-16.878-34.098-19.066-20.028 8.826-1.053-4.254-15.905-12.558-20.906-6.718-12.49 14.45-1.266-21.167-39.492M545.44 107l-14.303 16.953-16.86 25.99-8.1 21.043 10.856 1.99-11.595 16.785-11.82 31.336 9.75 2.126-18.46 26.683-13.057 26.914 12.023 1.848L463 307.85l-23.763 46.245 25.986 2.636L449.29 385.8l-10.192 30.108 18.914 2.85-13.66 24.92-10.655 31.478 15.384 2.318-15.422 29.36L422 543.515l80.277 11.06 35.298-8.123v55.33h23.583l1.593-54.31 39.61 6.09 107.45-15.932-23.457-27.21-20.917-35.04 16.24-2.2-19.748-23.695-17.825-31.107 32.19-4.36-18.89-22.664-22.388-39.07-1.456-2.246 25.672-4.128-25.288-44.114-18.983-21.61 8.73-.81-16.878-34.098-19.066-20.028 8.826-1.053-4.254-15.905-12.558-20.906-6.718-12.49 14.45-1.266-21.167-39.492"/><path d="M465.44 0l-14.303 16.953-16.86 25.99-8.1 21.043 10.856 1.99-11.595 16.785-11.82 31.336 9.75 2.126-18.46 26.683-13.057 26.914 12.023 1.848L383 200.85l-23.763 46.245 25.986 2.636L369.29 278.8l-10.192 30.108 18.914 2.85-13.66 24.92-10.655 31.478 15.384 2.318-15.422 29.36L342 436.515l80.277 11.06 35.298-8.123v55.33h23.583l1.593-54.31 39.61 6.09 107.45-15.932-23.457-27.21-20.917-35.04 16.24-2.2-19.748-23.695-17.825-31.107 32.19-4.36-18.89-22.664-22.388-39.07-1.456-2.246 25.672-4.128-25.288-44.114-18.983-21.61 8.73-.81-16.878-34.098-19.066-20.028 8.826-1.053-4.254-15.905-12.558-20.906-6.718-12.49 14.45-1.266-21.167-39.492"/><path d="M304.057 154l-8.93 10.583-10.524 16.224-5.056 13.136 6.777 1.242-7.238 10.478-7.38 19.56 6.088 1.328-11.525 16.658-8.15 16.8 7.504 1.155-13.03 18.216-14.834 28.867 16.222 1.646-9.947 18.145-6.36 18.794 11.805 1.78-8.527 15.556-6.65 19.65 9.602 1.447-9.627 18.328L227 426.49l50.113 6.906 22.034-5.072v34.538h14.722l.993-33.902 24.726 3.802 67.073-9.945-14.642-16.987-13.057-21.873 10.138-1.373-12.327-14.79-11.127-19.42 20.095-2.72-11.79-14.15-13.977-24.388-.91-1.402 16.028-2.577-15.785-27.538-11.85-13.49 5.45-.506-10.537-21.286-11.902-12.502 5.51-.658-2.656-9.928-7.84-13.05-4.193-7.797 9.02-.79-13.213-24.653"/><path d="M350.588 197l-7.484 8.87-8.822 13.6-4.238 11.01 5.68 1.04-6.066 8.783-6.185 16.396 5.102 1.11-9.66 13.963-6.83 14.082 6.29.967-10.922 15.27-12.434 24.196 13.596 1.38-8.337 15.208-5.334 15.754 9.897 1.492-7.148 13.038-5.575 16.47 8.05 1.213-8.07 15.363-6.1 19.192 42.004 5.788 18.47-4.25v28.95h12.338l.834-28.418 20.725 3.187 56.222-8.336-12.274-14.24-10.944-18.333 8.497-1.15-10.332-12.4-9.326-16.275 16.843-2.28-9.884-11.86-11.713-20.442-.762-1.176 13.433-2.16-13.232-23.08-9.932-11.308 4.567-.424-8.83-17.84-9.976-10.48 4.618-.552-2.226-8.322-6.57-10.938-3.516-6.535 7.56-.663-11.074-20.663"/><g><path d="M2243.56 57l14.303 16.953 16.86 25.99 8.1 21.043-10.856 1.99 11.595 16.785 11.82 31.336-9.75 2.126 18.46 26.683 13.057 26.914-12.023 1.848L2326 257.85l23.763 46.245-25.986 2.636 15.934 29.068 10.192 30.108-18.914 2.85 13.66 24.92 10.655 31.478-15.384 2.318 15.422 29.36L2367 493.515l-80.277 11.06-35.298-8.123v55.33h-23.583l-1.593-54.31-39.61 6.09-107.45-15.932 23.457-27.21 20.917-35.04-16.24-2.2 19.748-23.695 17.825-31.107-32.19-4.36 18.89-22.664 22.388-39.07 1.456-2.246-25.672-4.128 25.288-44.114 18.983-21.61-8.73-.81 16.878-34.098 19.066-20.028-8.826-1.053 4.254-15.905 12.558-20.906 6.718-12.49-14.45-1.266 21.167-39.492"/><path d="M2119.56 2l14.303 16.953 16.86 25.99 8.1 21.043-10.856 1.99 11.595 16.785 11.82 31.336-9.75 2.126 18.46 26.683 13.057 26.914-12.023 1.848L2202 202.85l23.763 46.245-25.986 2.636 15.934 29.068 10.192 30.108-18.914 2.85 13.66 24.92 10.655 31.478-15.384 2.318 15.422 29.36L2243 438.515l-80.277 11.06-35.298-8.123v55.33h-23.583l-1.593-54.31-39.61 6.09-107.45-15.932 23.457-27.21 20.917-35.04-16.24-2.2 19.748-23.695 17.825-31.107-32.19-4.36 18.89-22.664 22.388-39.07 1.456-2.246-25.672-4.128 25.288-44.114 18.983-21.61-8.73-.81 16.878-34.098 19.066-20.028-8.826-1.053 4.254-15.905 12.558-20.906 6.718-12.49-14.45-1.266 21.167-39.492"/><path d="M1990.73 118l10.693 12.672 12.603 19.427 6.054 15.728-8.115 1.488 8.667 12.546 8.836 23.422-7.29 1.59 13.8 19.944 9.76 20.118-8.987 1.382 15.603 21.813 17.762 34.568-19.423 1.97 11.91 21.727 7.617 22.505-14.138 2.13 10.21 18.628 7.964 23.528-11.5 1.733 11.53 21.945 8.714 27.418-60.005 8.268-26.385-6.07v41.355h-17.627l-1.19-40.594-29.61 4.553-80.314-11.91 17.533-20.34 15.634-26.19-12.14-1.644 14.763-17.712 13.323-23.252-24.062-3.26 14.12-16.94 16.736-29.204 1.09-1.678-19.19-3.086 18.9-32.974 14.19-16.153-6.525-.604 12.617-25.488 14.252-14.97-6.598-.787 3.18-11.888 9.386-15.627 5.022-9.335-10.8-.947 15.82-29.52M2346.46 136l9.68 11.474 11.41 17.59 5.48 14.24-7.346 1.347 7.848 11.36 8 21.207-6.6 1.44 12.494 18.057 8.836 18.214-8.136 1.252 14.126 19.75 16.082 31.296-17.586 1.784 10.783 19.672 6.898 20.376-12.8 1.93 9.245 16.864 7.21 21.303-10.41 1.57 10.437 19.87 7.89 24.824-54.33 7.485-23.888-5.498v37.444h-15.96l-1.078-36.754-26.807 4.122-72.718-10.783 15.874-18.415 14.156-23.714-10.99-1.488 13.364-16.036 12.064-21.053-21.786-2.95 12.784-15.34 15.152-26.44.985-1.52-17.374-2.795 17.113-29.854 12.847-14.624-5.908-.548 11.423-23.077 12.903-13.553-5.973-.713 2.88-10.764 8.498-14.148 4.546-8.453-9.78-.858 14.325-26.727"/><path d="M2464.09 23l-13.726 16.268-16.18 24.94-7.77 20.193 10.416 1.91-11.126 16.108-11.344 30.068 9.358 2.04-17.716 25.605-12.528 25.828 11.536 1.774-20.03 28.003-22.803 44.377 24.936 2.53-15.29 27.892-9.78 28.89 18.15 2.737-13.108 23.914-10.224 30.205 14.764 2.224-14.8 28.175-11.187 35.197 77.033 10.615 33.872-7.796v53.092h22.63l1.53-52.114 38.008 5.844 103.108-15.29-22.51-26.11-20.07-33.625 15.583-2.11-18.95-22.737-17.104-29.85 30.89-4.184-18.127-21.75-21.485-37.49-1.397-2.155 24.636-3.96-24.267-42.333-18.216-20.737 8.38-.776-16.198-32.72-18.296-19.22 8.47-1.01-4.083-15.262-12.05-20.06-6.447-11.986 13.865-1.216-20.31-37.896"/><path d="M2563.475 124l10.373 12.295 12.228 18.85 5.874 15.26-7.873 1.445 8.41 12.173 8.572 22.726-7.073 1.54 13.39 19.353 9.468 19.52-8.72 1.34 15.14 21.164 17.234 33.54-18.848 1.91 11.556 21.082 7.39 21.835-13.716 2.068 9.908 18.073 7.726 22.83-11.157 1.68 11.185 21.294 8.455 26.603-58.22 8.022-25.6-5.892v40.127h-17.105l-1.155-39.388-28.728 4.417-77.927-11.556 17.012-19.735 15.17-25.413-11.778-1.595 14.32-17.185 12.93-22.56-23.348-3.163 13.7-16.437 16.238-28.335 1.056-1.63-18.62-2.993 18.34-31.995 13.768-15.673-6.33-.586 12.24-24.73 13.828-14.526-6.4-.764 3.084-11.535 9.108-15.16 4.872-9.06-10.48-.918 15.352-28.64"/><path d="M2714.437 145l8.64 10.24 10.184 15.7 4.893 12.71-6.557 1.202 7.004 10.14 7.14 18.927-5.89 1.283L2751 231.32l7.888 16.258-7.262 1.117 12.608 17.627 14.354 27.934-15.697 1.592 9.626 17.557 6.156 18.187-11.425 1.722 8.252 15.053 6.434 19.013-9.292 1.4 9.316 17.736 7.042 22.156-48.49 6.682-21.322-4.908v33.42h-14.245l-.963-32.804-23.926 3.68-64.903-9.625 14.17-16.437 12.635-21.165-9.81-1.328 11.93-14.313 10.766-18.79-19.444-2.634 11.41-13.69 13.524-23.6.88-1.356-15.508-2.494 15.275-26.646 11.467-13.054-5.274-.488 10.196-20.597 11.516-12.098-5.33-.636 2.57-9.607 7.584-12.628 4.058-7.543-8.727-.766 12.785-23.855"/></g></g><g><path d="M2193.89 435c-5 3.158-41.022 6-41.022 6l-86.048 3-50.03 5-45.024 6-52.03 2h-43.024l-36.02 4-21.012 1-23.013 11-29.016 7-47.026 14-11.006-1-17.01 8-14.008 3-9.005 3-7.004 3-16.008-1-9.005 4-10.005-2-7.004 5h-10.006l-15.01 6-10.004 7-9.005 4-1 6-11.007 3h-12.007l-9.006 8h-8.083l-9.88 5.026-27.526-.026-11.542-3-5.003 3-6.004-6-8.005-5-7.003-3h-8.004l-5.003 3-7.004 3-6.004-5-9.005-3-7.004-4-3-7-10.007-3-16.01-4-6.002-4-12.007-1-7.004 2-4.002 6-14.007 5-8.005-9-5.003-5-6.003-1-9.005-1-10.006-7-9.004-2-9.005 9-21.01-19h-8.005l-30.017-12-32.018-12-14.008-12H1103.275l-73.04-9s-115.066-6-126.072-9-28.016-22-28.016-22l-72.04-7-63.036 7-50.028 3L486 435v253h2090V435h-382.11z" fill="#2D253A"/><path fill="#2D243B" d="M-2 435h617v253H-2zM2385 435h617v253h-617z"/></g><g fill="#2D253A"><path d="M1889.935 499.423c-9.8-2.488-17.97-3.694-24.9-4.275-7.958-.666-14.73-.547-16.852 1.49-2.356 2.137.605 6.32-4.312 7.41-3.17.68-9.33.07-12.69.62-10.87-4.037-18.405-9.796-28.65-13.984-4.23-1.73-8.297-4.906-12.393-5.898 2.897 1.715 7.936 5.605 11.997 7.253 6.99 2.835 9.548 5.46 15.37 8.514.69.363 2.502 1.577 3.188 1.94 1.84 1.438 5.847 4.387 4.565 5.215-.254.14-3.444-.81-5.97-1.517-1.318-.465-2.645-.925-4.013-1.377-5.566-1.836-11.45-3.736-16.816-5.75-6.47-2.426-21.3-7.73-27.505-10.203-1.392-.11-1.06.62.195 1.388 1.255.77 11.764 5.39 13.58 6.13 15.042 6.132 30.422 11.35 46.392 17.634 14.99 6.225 31.472 12.935 47.783 19.016-7.243-1.748-14.718-3.823-22.134-6.15-6.36-1.994-16.75-5.666-22.96-7.402-1.684-.47-2.103-.053.035.925 19.264 7.195 39.97 13.806 60.352 19.264 2.128.573 4.342 1.147 6.118 1.407 15.877 5.812 31.495 11.06 46.24 15.788 6.685 2.146 13.998 4.382 18.56 4.89 4.595.234-11.294-5.386-17.856-7.858.575-1.202 1.13-2.412 1.662-3.63 6.3 1.716 12.46 3.276 18.39 4.656 2.71.632 5.808 1.166 4.856.236-.813-.794-3.964-2.008-6.56-2.947-19.748-7.143-39.13-14.15-58.15-20.923-1.31-.843-3.168-1.747-4.984-2.608-6.858-3.257-13.945-6.447-21.163-9.532 6.566 1.248 12.877 2.32 17.396 2.42 6.76.137 8.52-2.16 4.606-6.027-2.987-2.936-8.99-6.766-8.84-8.73.136-2.994 14.045-.165 27.23 3.688-10.05-4.575-21.875-8.555-31.767-11.075M1845.64 418.904c-5.452-.31-9.883-4.357-14.875-6.594-6.59-2.953-14.537-2.617-20.84.882-4.195 2.33-7.523 5.854-10.627 9.573-1.218-4.61-2.847-9.148-4.88-13.557-.536-1.16-1.146-2.355-2.132-3.26.463-11.29.652-22.597.838-33.893.025-1.47-.15-3.267-1.493-3.868-1.573-.704-3.185.866-4.154 2.29-2.122 3.127-3.986 6.426-5.566 9.855l-11.46-.45c-.204-3.78.288-12.712-3.62-10.617-3.128 2.172-4.302 6.168-5.098 9.88-1.77 8.268-3.005 17.244-2.963 26.707-1.05.914-1.68 2.153-2.236 3.356-5.36 11.623-7.925 24.138-7.486 36.53.533 1.477 2.077 1.467 2.468.44 1.435-3.77 1.76-10.357 2.646-14.24 1.03-4.49 2.797-8.87 5.22-12.976.344 10.187 2.217 20.926 4.252 30.944 1.232 10.746 2.7 21.462 4.434 32.135.212 1.305.456 2.672 1.297 3.696.84 1.025 2.488 1.534 3.564.73-.568-4.45-.94-8.923-1.116-13.407-.145-3.69.523-7.57 1.053-11.23.13-.896.196-1.773.236-2.645.58-1.592 1.164-3.62 1.794-3.692 3.505-.33 6.172 3.373 8.24 4.9.307.502.616 1.004.913 1.51 2.512 4.278 4.213 9.048 4.98 13.96.45 2.878.655 5.99 2.434 8.278 1.36-2.676.943-5.924.436-8.923-1.213-7.183-2.745-14.388-2.934-21.637 4.81-1.58 9.238-5.055 14.204-6.523 7.8-2.305 16.186.523 24.285-.212 7.608-.69 14.614-4.507 20.666-9.182 5.267-4.068 10.072-8.948 13.018-14.936 2.947-5.988 3.863-13.206 1.41-19.43-2.596 7.868-8.675 16.077-16.91 15.607zm-54.03.125c1.587 2.698 2.885 5.517 3.88 8.407-1.575 1.922-3.216 3.828-4.987 5.568.447-4.652.81-9.312 1.106-13.976z"/></g></g></svg>
