<svg width="2600" height="937" viewBox="0 0 2600 937" xmlns="http://www.w3.org/2000/svg"><g fill="none" fill-rule="evenodd"><path fill="#6F84D9" d="M518.14 457l-15.015 28.257-28.79 18.655-41.79 15.716L393 545v395h1770V546.11l-74.057-16.5-48.78-41.996-82.464-5.997-66.01 18.002-75.05-7.492-54.042 12.015-24.018-11.968-54.055 10.56-28.528 4.626-15.016 7.75-11.583 22.89h-15.444l-15.267 7-15.43 4.11L1571 549l-3 9.11-11.56 3.003-8.64 10.503-22.483 10.507-31.514 1.516-12.003 10.53-27.024 3.062-27.027 12.125-22.524 9.143-18.103-8.5h-41.96l-46.55-1.446L1279 619h-70.485l-43.643-15h-20.927l-21.022-8.946-69.177-6.054h-16.416l-10.614-10H1008.8l-7.508-15.445-31.535-7.946-21.13-14.61h-17.912l-6.115-10h-11.904l-28.446-21.222-70.49-27.223L743.35 458h-22.864l-10.51 9.67-17.64-9.67h-37.922l-74.08 7.73"/><path fill="#7076C9" d="M518.07 551l-32.018 12.656L461.038 578l-33.018-4-35.02 8v358h1770V627h-27.468l-7.504 4.052-12.006 5.553-30.066-2.605H2074l-15.008 2.552-10.505 4.053-18.01 3-13.506-4.5-13.506-2.998-15.008-2.998-13.506 7.503-42.022 6.007-40.52-19.484-57.03 18.03-61.533-8.936-48.025-25.374-57.03 21.25L1629.7 631h-43.452l-19.51-9.446-39.02 16.052-27.013 1.5-21.01-7.497-33.018 3.003-52.527-1.493-22.512 10.516-24.012 12.03-22.512-5.937-25.513 3.124-24.01-5.75-25.106-5.104h-33.425l-9.006-8.135-22.512-11.134-22.51-4.374-27.015-4.25L1124.413 601h-63.434l-10.07 8.99-31.08 11.99-18.883 2.375-9.005 1.75-8.61 4.895H966.43l-13.507-7.822-15.374-4.61-8.64 3.038L917.296 625h-12.398l-11.883-4.445-13.63-8.198-16.51-5.75L849.258 609h-13.394l-10.506-5.193-13.507-12.692-15.008-1.492-12.006 7.515-16.508 7.53-9.005-5.936-18.01-4.375-15.007-5.75-9.123-8.607h-11.888l-25.513 2.68-10.506-6.322-15.007-2.75L642.14 570h-11.883l-24.138 6.804-9.13-6.695-12.257-13.5"/><path fill="#666CC2" d="M1751.102 508l-21.023 9-7.51-3-16.518-4.498-10.51 1.503-6.007 1.505-7.508 4.51-7.51 9.022-6.004 12.043-7.51 12.086-7.507 15.174-4.504 12.348-4.506 11.196h-7.508l-7.508-8.196-7.508-8.196-7.508-3-7.51-1.5-4.503-3-6.006-1.5-4.504 1.5-6.007 4.5-9.01 10.5-7.508 6-7.507 3-7.51 4.5-6.006 6-6.006 7.5-7.508 7.502L1522.855 625l-7.508 1.51-12.013 4.515-15.016 9.03-6.006-1.437-27.03 12.124-16.518 19.75-5.59.396h-10.928l-12.013 2.552-24.025 2.55-12.013-6-16.518-3-24.027 3-19.52-4.498-16.518-19.5-25.528-10.5-9.01-13.498-27.03-7.5-19.52 4.5-16.517 4.5-10.512 9-6.007 10.5-19.52 4.5-24.026-3.002-12.014-3-7.507 6-10.51-4.5-10.512-3-6.007-3-9.01 6-6.006-3-10.51-6-6.006 4.5-15.017-12-13.513-10.498-10.512-10.5-9.01-12-21.022-13.5-10.51-1.498-13.517 7.5-24.025-7.5-12.012-9-12.014 9-7.507-4.5-6.007 3-6.007 3-15.015 7.5-16.52 4.5L859.14 583l-10.51-7.496-21.024-8.992-16.518-1.484-9.01 9.03-16.517 9.062-19.522-4.375-16.518-10.25-30.15-5.607h-47.935l-13.514-11.693L633.898 562l-16.516-8.997-12.008-7.495-13.507-2.24-7.492 3.772-23.994-3.708-23.964-3.665-17.893 7.67-24.41 30.55-34.037 9.107-41.046 11.894L393 586.994V940h1770V546.997l-17.496-4.493-9.987-7.492-6.006-5.986-19.52 3.027-10.512 6.056-46.55 1.61-13.515-4.277-9.01-2.555h-7.508l-10.51 5h-12.015l-10.51-11.194-7.508-6.695-10.512-1.502-7.508 4.5-13.515 13.5-19.52-4.5-30.034-7.5-22.524 25.5-60.065-12-16.52-4.5-15.014-15"/><path d="M951 644.688c-1-3.157-2.788-6.33-4.432-9.52-1.652 1.853-3.06 3.736-4.718 5.647-2.308-3.025-4.493-6.062-6.804-9.112-1.67 2.282-3.28 4.594-4.955 6.935-1.663-2.158-3.297-4.32-4.963-6.49-1.676 1.318-3.34 2.656-5.02 4.015-1.666-2.857-3.326-5.723-4.995-8.598-2.015 1.998-4.03 4.027-6.05 6.086-1.343-2.074-2.683-4.154-4.026-6.237-1.36 1.5-2.718 3.012-4.08 4.538-1.35-1.352-2.698-2.707-4.048-4.06-1.692.75-3.384 1.514-5.078 2.29l-5.053-5.306c-1.698 1.156-3.397 2.328-5.097 3.514-1.688-1.386-3.378-2.77-5.068-4.152-1.7.833-3.402 1.68-5.104 2.54l-4.063-7.297c-2.043 1.93-4.086 3.886-6.13 5.86-2.02-4.006-4.042-8.02-6.066-12.037-1.718 3.537-3.436 7.093-5.153 10.67-2.363-3.28-4.73-6.56-7.096-9.836-2.05 2.813-4.104 5.647-6.156 8.5-2.035-2.84-4.07-5.675-6.108-8.508-2.052 2.496-4.104 5.01-6.155 7.542-1.7-3.933-3.4-7.865-5.104-11.796-1.38 3.736-2.762 7.482-4.143 11.238-1.032-1.968-2.065-3.935-3.098-5.9l-2.108 5.65c-1.704-4.29-3.41-8.58-5.12-12.864-1.716 4.157-3.432 8.326-5.147 12.506-1.708-2.733-3.417-5.46-5.127-8.18-1.713 2.658-3.426 5.326-5.137 8.002-1.71-3.86-3.422-7.712-5.135-11.556-1.713 3.845-3.425 7.697-5.137 11.556-1.713-1.907-3.426-3.806-5.14-5.696-1.71 1.952-3.422 3.91-5.132 5.876-1.714-3.795-3.43-7.58-5.148-11.353-1.708 3.9-3.414 7.805-5.12 11.713-1.376-1.857-2.753-3.706-4.13-5.55-1.372 1.988-2.74 3.977-4.11 5.968-1.377-1.833-2.754-3.658-4.132-5.476-1.705 2.024-3.41 4.052-5.113 6.083-2.056-4.042-4.112-8.062-6.17-12.06-2.368 4.396-4.734 8.793-7.098 13.188-1.72-3.622-3.436-7.227-5.154-10.814l-5.072 11.89c-1.712-2.063-3.423-4.113-5.134-6.147-1.693 2.467-3.385 4.936-5.076 7.403-1.714-3.515-3.428-7.008-5.14-10.478-1.35 3.93-2.7 7.85-4.046 11.763-1.704-1.604-3.408-3.194-5.11-4.767-1.69 2.123-3.375 4.245-5.06 6.365-1.37-1.982-2.737-3.95-4.104-5.904-1.68 2.503-3.362 5.002-5.042 7.497-2.038-3.64-4.075-7.245-6.11-10.812-2 4.4-4 8.785-6 13.152-1.704-4.69-3.406-9.343-5.106-13.956-1.66 5.394-3.32 10.764-4.98 16.108-1.688-2.467-3.374-4.908-5.058-7.32-1.664 3.228-3.328 6.446-4.992 9.65-1.68-2.047-3.358-4.07-5.033-6.067-1.662 2.87-3.323 5.73-4.985 8.578-1.676-3.705-3.35-7.37-5.02-10.995-1.652 4.588-3.306 9.15-4.96 13.684-1.65-2.594-3.794-5.156-5.436-7.683-1.637 3.528-3.412 7.036-5.412 10.524V820h335V644.688zM1690 685l-4.87-5.833-4.054 4.877-2.508-4.877-4.718 4.648s-3.493-5.062-5.804-8.112c-1.67 2.282-4.28 4.594-5.955 6.935-1.663-2.158-3.297-4.32-4.963-6.49-1.676 1.318-3.34 2.656-5.02 4.015-1.666-2.857-3.326-5.723-4.995-8.598-2.015 1.998-4.03 4.027-6.05 6.086-1.343-2.074-2.683-4.154-4.026-6.237-1.36 1.5-2.718 3.012-4.08 4.538-1.35-1.352-2.698-2.707-4.048-4.06-1.692.75-3.384 1.514-5.078 2.29l-5.053-5.306c-1.698 1.156-3.397 2.328-5.097 3.514-1.688-1.386-3.378-2.77-5.068-4.152-1.7.833-3.402 1.68-5.104 2.54l-4.063-7.297c-2.043 1.93-4.086 3.886-6.13 5.86-2.02-4.006-4.042-8.02-6.066-12.037-1.718 3.537-3.436 7.093-5.153 10.67-2.363-3.28-4.73-6.56-7.096-9.836-2.05 2.813-4.104 5.647-6.156 8.5-2.035-2.84-4.07-5.675-6.108-8.508-2.052 2.496-4.104 5.01-6.155 7.542-1.7-3.933-3.4-7.865-5.104-11.796-1.38 3.736-2.762 7.482-4.143 11.238-1.032-1.968-2.065-3.935-3.098-5.9l-2.108 5.65c-1.704-4.29-3.41-8.58-5.12-12.864-1.716 4.157-3.432 8.326-5.147 12.506-1.708-2.733-3.417-5.46-5.127-8.18-1.713 2.658-3.426 5.326-5.137 8.002-1.71-3.86-3.422-7.712-5.135-11.556-1.713 3.845-3.425 7.697-5.137 11.556-1.713-1.907-3.426-3.806-5.14-5.696-1.71 1.952-3.422 3.91-5.132 5.876-1.714-3.795-3.43-7.58-5.148-11.353-1.708 3.9-3.414 7.805-5.12 11.713-1.376-1.857-2.753-3.706-4.13-5.55-1.372 1.988-2.74 3.977-4.11 5.968-1.377-1.833-2.754-3.658-4.132-5.476-1.705 2.024-3.41 4.052-5.113 6.083-2.056-4.042-4.112-8.062-6.17-12.06-2.368 4.396-4.734 8.793-7.098 13.188-1.72-3.622-3.436-7.227-5.154-10.814l-5.072 11.89c-1.712-2.063-3.423-4.113-5.134-6.147-1.693 2.467-3.385 4.936-5.076 7.403-1.714-3.515-3.428-7.008-5.14-10.478-1.35 3.93-2.7 7.85-4.046 11.763-1.704-1.604-3.408-3.194-5.11-4.767-1.69 2.123-3.375 4.245-5.06 6.365-1.37-1.982-2.737-3.95-4.104-5.904-1.68 2.503-3.362 5.002-5.042 7.497-2.038-3.64-4.075-7.245-6.11-10.812-2 4.4-4 8.785-6 13.152-1.704-4.69-3.406-9.343-5.106-13.956-1.66 5.394-3.32 10.764-4.98 16.108-1.688-2.467-3.374-4.908-5.058-7.32-1.664 3.228-3.328 6.446-4.992 9.65-1.68-2.047-3.358-4.07-5.033-6.067-1.662 2.87-3.323 5.73-4.985 8.578-1.676-3.705-3.35-7.37-5.02-10.995-1.652 4.588-3.306 9.15-4.96 13.684-1.65-2.594-3.794-5.156-5.436-7.683-1.637 3.528-3.412 7.036-5.412 10.524l-5.25-5.53-2.99 8.49-2.51-2.96L1334 695v155h356V685z" fill="#585EB9"/><path fill="#454A92" d="M596.288 618l-12.465 17.033-14.195-14.843-11.505 17.007-14.22-14.844-11.567 17.008L518 625.017l-14 16.06-12-14.59-6 14.59-16-19.615-7 19.615-12-19.614-11 19.615-13-19.614-8 25.026-14-19-12 22.264V940h1770V626.486l-6.24 17.303-6.785-15.626-5.178 16.29-6.963-15.625-5.27 16.29-7.172-15.615-6.012 16.594-8.782-15.252-5.88 16.583-8.783-15.25-5.882 16.583-7.69-15.276-9.13 14.512-12.476-17.058-10.193 14.394-4.472-17.057-10.194 14.392-5.968-17.185-10.944 17.42-13.99-14.36-10.013 17.357-21.985-14.36-5.013 17.356-9.824-14.21-12.72 24.3-6.798-12.5-9.637 12.492-3.523-17.048-7.48 11.717-6.517-17.042-8.48 11.718-4.692-13.74-7.504 12.206-8.13-15.637-6.873 16.302-8.128-15.637-4.87 16.303-9.95-15.562-11.93 18.738-10.878-12.66-11.455 18.654-13.874-12.662-11.455 18.654-14.162-15.593-11.187 21.76-11.855-12.003-10.816 18.662-11.85-12.003-10.816 18.662-11.75-12.033-9.778 18.08-11.127-11.78-8.876 17.107-11.124-11.78-8.874 17.108-8.136-12.776-9.152 17.426-7.547-13.42-7.12 17.415-10.544-17.417-4.122 21.413-10.903-8.575-5.52 11.64-9.53-9.067-6.14 10.735-8.526-11.066-7.14 12.728-8.185-10.096-9.56 8.996-3.377-17.276-10.963 13.778-3.365-17.273-10.96 13.78-4.318-17.446-8.45 15.926-7.505-15.982-7.498 15.982-7.5-15.982-7.498 15.982-6.952-15.963-10.54 14.778-7.02-11.988-10.983 9.74-7.016-10.99-3.98 8.743-7.17-16.83-8.416 12.864-7.35-17.046-7.654 12.464-7.342-17.04-7.652 12.464-3.394-10.664-2.687 10.78-7.695-8.817-4.977 13.314-6.685-8.82-5.975 13.313-7.443-21.137-7.57 23.844-6.005-11.986-6 11.986-5.995-12.985-6 12.984L1309 679.93l-7.337 21.974-8.337-16.982-6.33 16.982-7.335-20.976-7.33 20.976-9.337-15.92-5.354 14.024-6.29-21.808-7.715 16.73-6.282-16.812-6.713 13.733-4.585-20.163-3.224 20.262-8.177-21.167-5.495 24.08-6.167-11.178-7.49 14.09-8.424-22.34-8.475 22.162-5.717-13.116-7.287 9.952-6.708-14.112-6.285 10.95-10.773-27.28-8.5 25.928-8.672-15.984-8.664 15.984-8.668-15.984-8.664 15.984-11.686-15.923-7.64 13.208-8.69-18.175-11.313 16.094-11.685-21.172-10.312 16.095-10.9-20.965-11.427 9.888-11.536-19.76-11.135 11.622-10.53-20.757-13.135 13.62-11.75-28.34-9.193 22.94-12.983-13.675-9.022 17.9-13.976-13.677-9.02 17.904-12.46-15.74-9.944 17.947-8.354-23.44-6.17 12.21-6.146-4.75-11.665 15.98-7.667-22.974-9.664 22.975L821 642.97l-9.67 15.98-9.673-15.98-9.664 15.98-9.668-15.98-9.664 15.98-8.895-15.945-13.347 13.822-8.352-17.73-13.985 13.734-8.345-17.73-13.985 13.736-8.566-17.767-18.885 13.663-14.61-18.014-18.73 13.684-14.604-18.014-18.725 13.685"/><path fill="#363266" d="M1369.673 722l-7.382 28.192-7.097-14.396-6.24 17.064-9.088-14.398-7.24 17.063-6.87-14.53-10.627 15.323-13.77-16.65-10.232 15.316-14.764-23.65-14.23 22.317-13.463-16.63-11.14 14.558-7.073-17.173-11.594 14.507-11.072-17.173-7.592 14.505-12.933-24.218-9.518 29.234-12.01-13.03-9.324 20.03-10.004-17.033-8.326 21.033-7.3-14.175-7.315 18.727-12.957-17.138-9.047 18.805-10.955-29.14-12.05 30.805-12.75-20.148-11.53 21.162-9.057-15.833-8.8 16.166L1026.08 755l-10.13 16.826L1005 758v182h648V740l-10.84 14.993-15.83-22-8.834 22-14.836-15-10.832 15-10.036-18.997-8.5 19.472-13.598-21.45-8.074 22.45-7.587-13.45-5.073 14.45-9.22-10.472-6.744 10.997-11.004-21-6.998 21-10-16-8 16-10.623-15.99-8.112 15.122-9.528-24.766-8.474 23.098-10.525-16.765-7.472 15.098-10.6-17.77-6.41 16.285-11.01-16.625-8.325 15.29-11.007-19.624-6.324 18.292M721.673 739l-7.382 28.192-7.097-14.396-6.24 17.064-9.088-14.398-7.24 17.063-6.87-14.53-10.627 15.323-13.77-16.65-10.232 15.316-14.764-23.65-14.23 22.317-13.463-16.63-11.14 14.558-7.073-17.173-11.594 14.507-11.072-17.173-7.592 14.505-12.933-24.218-9.518 29.234-12.01-13.03-9.324 20.03-10.004-17.033-8.326 21.033-7.3-14.175-7.315 18.727-12.957-17.138-9.047 18.805-10.955-29.14-12.05 30.805-12.75-20.148-11.53 21.162-9.057-15.833-8.8 16.166L378.08 772l-10.13 16.826L357 775v182h648V757l-10.84 14.993-15.83-22-8.834 22-14.836-15-10.832 15-10.036-18.997-8.5 19.472-13.598-21.45-8.074 22.45-7.587-13.45-5.073 14.45-9.22-10.472-6.744 10.997-11.004-21-6.998 21-10-16-8 16-10.623-15.99-8.112 15.122-9.528-24.766-8.474 23.098-10.525-16.765-7.472 15.098-10.6-17.77-6.41 16.285-11.01-16.625-8.325 15.29-11.007-19.624-6.324 18.292M2017.673 705l-7.382 28.192-7.097-14.396-6.24 17.064-9.088-14.398-7.24 17.063-6.87-14.53-10.627 15.323-13.77-16.65-10.232 15.316-14.764-23.65-14.23 22.317-13.463-16.63-11.14 14.558-7.073-17.173-11.594 14.507-11.072-17.173-7.592 14.505-12.933-24.218-9.518 29.234-12.01-13.03-9.324 20.03-10.004-17.033-8.326 21.033-7.3-14.175-7.315 18.727-12.957-17.138-9.047 18.805-10.955-29.14-12.05 30.805-12.75-20.148-11.53 21.162-9.057-15.833-8.8 16.166L1674.08 738l-10.13 16.826L1653 741v210l648 4V723l-10.84 14.993-15.83-22-8.834 22-14.836-15-10.832 15-10.036-18.997-8.5 19.472-13.598-21.45-8.074 22.45-7.587-13.45-5.073 14.45-9.22-10.472-6.744 10.997-11.004-21-6.998 21-10-16-8 16-10.623-15.99-8.112 15.122-9.528-24.766-8.474 23.098-10.525-16.765-7.472 15.098-10.6-17.77-6.41 16.285-11.01-16.625-8.325 15.29-11.007-19.624-6.324 18.292"/><g fill="#78D2FE"><path opacity=".5" d="M1324.96 814.26l-5.858-1.336-5.653-1.413-11.315-2.932-.527-.298-2.666-2.597-2.285-2.406-4.873-2.508-3.587-1.903-6.138-3.07-5.06-2.748 5.49 1.736 6.465 2.3 3.807 1.69 5.273 2.534 2.667 2.6 2.605 2.633 10.713 2.85 5.617 1.682 5.523 1.938 16.2 3.25"/><path fill-opacity=".5" d="M1167.813 755.98l.652 7.27 6.54 3.343 7.573-.248 23.358 4.638 7.504 3.667 6.93 3.577 7.253-.073 7.38-.13 5.13 3.566 5.067.977 6.143 2.204 7.122 1.518 7.234 1.583 11.303 5.155-11.58-4.222-7.218-1.14-7.305-1.205-6.196-1.975-5.357-.894-5.096-3.19-6.627.254-7.253.026-8.03-3.798-7.468-3.714-22.5-4.902-7.76-.142-6.762-3.745-.334-.503-.513-7.82.257-.418 9.743-3.615"/><path opacity=".5" d="M1279.03 725.576l-10.667.13-5.378-.08-5.325-.268-10.642-.665-4.415 1.387-4.865 1.394-4.873 1.37-4.886 1.323-3.607 1.708-3.77 1.743-7.606 3.354 7.12-4.292 3.594-2.08 3.61-2.054 4.95-1.67 4.814-1.562 4.822-1.538 5.246-1.546 10.665.725 5.315.426 5.276.3 10.652.61 9.937.94M1294.716 722.91l2.546-.998 1.817-.847 1.043-5.386-2.298-1.918-2.807-2.495-1.996-1.034-2.18-1.2-4.77-.402v-.505l4.995-.165 2.583.855 2.336.85 3.275 2.284 2.995 2.258.453 1.197-1.503 6.928-.743.758-2.654.637-2.674.572-5.428.873"/><path fill-opacity=".5" d="M1284.926 702.082l-2.776.136-2.113 1.628.323 3.18 2.992.737 2.663.312v.552l-2.743.133-3.874-1.315-.382-3.76 2.563-2.2 5.215-.24.213.837M1304.12 692.09l-4.375 2.368-.945-.046.476-.817 4.368-2.38.948.052"/><path fill-opacity=".3" d="M1330.273 671.14l-3.47 1.595-3.546 1.377-3.613 1.178-3.85 4.906-4.783 4.59 3.474-5.565 3.828-5.75 4.137-1.708 3.64-1.096 4.51-1.355 2.963.66M1200.8 640.865l8.616-.58 8.618-.532 11.103 5.993 8.005 2.07 8.257 2.223 15.334 10.934 8.352-1.702 8.8-1.54 4.845.973 4.436.906 8.98 1.636 16.882 3.77-17.083-2.5-9.047-1.21-4.534-.765-4.49-.817-8.374 1.756-8.766 1.724-.898-.187-15.468-10.778-7.86-2.1-8.494-2.43-10.422-6.133-8.105.347-8.633.17-16.842.928M1278.998 619l5.742.325 5.73.418 11.434 1.078 11.4 1.345 11.267 1.755 6.104.225 6.103.095 6.103-.03 6.103-.147 12.123 7.07.33 1.355-6.045 6.26-5.918 6.017-1.04.364-10.555-1.486-10.063-1.697-7.19 1.348-7.2 1.295-7.214 1.233-7.2 1.22 6.987-2.232 7.097-1.783 7.11-1.722 7.123-1.67 10.936 1.365 10.492 1.584 4.993-5.498 5.28-5.11-10.346-6.878-5.802-.06-6.103-.03-6.103-.006-6.187.22-11.444-.94-11.393-1.36-11.36-1.67-5.667-.956"/></g><g><path fill="#2D253A" d="M393.44 305l-14.303 16.953-16.86 25.99-8.1 21.043 10.856 1.99-11.595 16.785-11.82 31.336 9.75 2.126-18.46 26.683-13.057 26.914 12.023 1.848L311 505.85l-23.763 46.245 25.986 2.636L297.29 583.8l-10.192 30.108 18.914 2.85-13.66 24.92-10.655 31.478 15.384 2.318-15.422 29.36L270 741.515l80.277 11.06 35.298-8.123v55.33h23.583l1.593-54.31 39.61 6.09 107.45-15.932-23.457-27.21-20.917-35.04 16.24-2.2-19.748-23.695-17.825-31.107 32.19-4.36-18.89-22.664-22.388-39.07-1.456-2.246 25.672-4.128-25.288-44.114-18.983-21.61 8.73-.81-16.878-34.098-19.066-20.028 8.826-1.053-4.254-15.905-12.558-20.906-6.718-12.49 14.45-1.266-21.167-39.492"/><path fill="#78D2FE" d="M531.544 710.733l15.177 18.55-2.082 5.247-17.322 5.48 11.258-1.69 19.237-2.692-23.456-27.21-16.794-28.134M509.176 673.954l20.565-2.82-19.78-23.673-15.38-27.025 13.202 27.89 13.794 17.908-2 3.546M488.153 616.91l36.14-4.894-18.89-22.664-20.85-36.39 19.143 40.13 10.138 12.64-1.936 4.73M474.246 549.212l32.987-5.304-25.29-44.114-12.87-14.652 10.805 18.02 17.605 33.73-2.53 4.942M450.962 480.185l20.73-2.81-16.88-34.1-13.595-14.28 10.776 16.412L463.72 471.8l-1.698 4.165M440.32 406.29l-16.385-28.385 13.556 29.052 2.42 9.822-1.86 3.534-11.48 3.284 9.177-.35 8.826-1.053M393.44 305l19.413 29.353 15.06 30.928-1.96 4.66-12.68 4.072 22.218-2.384-21.165-39.492"/><g><path fill="#2D253A" d="M534.44 273l-14.303 16.953-16.86 25.99-8.1 21.043 10.856 1.99-11.595 16.785-11.82 31.336 9.75 2.126-18.46 26.683-13.057 26.914 12.023 1.848L452 473.85l-23.763 46.245 25.986 2.636L438.29 551.8l-10.192 30.108 18.914 2.85-13.66 24.92-10.655 31.478 15.384 2.318-15.422 29.36L411 709.515l80.277 11.06 35.298-8.123v55.33h23.583l1.593-54.31 39.61 6.09 107.45-15.932-23.457-27.21-20.917-35.04 16.24-2.2-19.748-23.695-17.825-31.107 32.19-4.36-18.89-22.664-22.388-39.07-1.456-2.246 25.672-4.128-25.288-44.114-18.983-21.61 8.73-.81-16.878-34.098-19.066-20.028 8.826-1.053-4.254-15.905-12.558-20.906-6.718-12.49 14.45-1.266-21.167-39.492"/><path fill="#78D2FE" d="M672.544 678.733l15.177 18.55-2.082 5.247-17.322 5.48 11.258-1.69 19.237-2.692-23.456-27.21-16.794-28.134M650.176 641.954l20.565-2.82-19.78-23.673-15.38-27.025 13.202 27.89 13.794 17.908-2 3.546M629.153 584.91l36.14-4.894-18.89-22.664-20.85-36.39 19.143 40.13 10.138 12.64-1.936 4.73M615.246 517.212l32.987-5.304-25.288-44.114-12.872-14.652 10.805 18.02 17.605 33.73-2.53 4.942M591.96 448.185l20.73-2.81-16.878-34.1-13.595-14.28 10.776 16.412L604.72 439.8l-1.697 4.165M581.32 374.29l-16.385-28.385 13.556 29.052 2.42 9.822-1.86 3.534-11.48 3.284 9.177-.35 8.826-1.053M534.44 273l19.413 29.353 15.06 30.928-1.96 4.66-12.68 4.072 22.218-2.384-21.165-39.492"/></g><g><path fill="#2D253A" d="M755.44 273l-14.303 16.953-16.86 25.99-8.1 21.043 10.856 1.99-11.595 16.785-11.82 31.336 9.75 2.126-18.46 26.683-13.057 26.914 12.023 1.848L673 473.85l-23.763 46.245 25.986 2.636L659.29 551.8l-10.192 30.108 18.914 2.85-13.66 24.92-10.655 31.478 15.384 2.318-15.422 29.36L632 709.515l80.277 11.06 35.298-8.123v55.33h23.583l1.593-54.31 39.61 6.09 107.45-15.932-23.457-27.21-20.917-35.04 16.24-2.2-19.748-23.695-17.825-31.107 32.19-4.36-18.89-22.664-22.388-39.07-1.456-2.246 25.672-4.128-25.288-44.114-18.983-21.61 8.73-.81-16.878-34.098-19.066-20.028 8.826-1.053-4.254-15.905-12.558-20.906-6.718-12.49 14.45-1.266-21.167-39.492"/><path fill="#78D2FE" d="M893.544 678.733l15.177 18.55-2.082 5.247-17.322 5.48 11.258-1.69 19.237-2.692-23.456-27.21-16.794-28.134M871.176 641.954l20.565-2.82-19.78-23.673-15.38-27.025 13.202 27.89 13.794 17.908-2 3.546M850.153 584.91l36.14-4.894-18.89-22.664-20.85-36.39 19.143 40.13 10.138 12.64-1.936 4.73M836.246 517.212l32.987-5.304-25.288-44.114-12.872-14.652 10.805 18.02 17.605 33.73-2.53 4.942M812.96 448.185l20.73-2.81-16.878-34.1-13.595-14.28 10.776 16.412L825.72 439.8l-1.697 4.165M802.32 374.29l-16.385-28.385 13.556 29.052 2.42 9.822-1.86 3.534-11.48 3.284 9.177-.35 8.826-1.053M755.44 273l19.413 29.353 15.06 30.928-1.96 4.66-12.68 4.072 22.218-2.384-21.165-39.492"/></g><g fill="#2D253A"><path d="M335.44 376l-14.303 16.953-16.86 25.99-8.1 21.043 10.856 1.99-11.595 16.785-11.82 31.336 9.75 2.126-18.46 26.683-13.057 26.914 12.023 1.848L253 576.85l-23.763 46.245 25.986 2.636L239.29 654.8l-10.192 30.108 18.914 2.85-13.66 24.92-10.655 31.478 15.384 2.318-15.422 29.36L212 812.515l80.277 11.06 35.298-8.123v55.33h23.583l1.593-54.31 39.61 6.09 107.45-15.932-23.457-27.21-20.917-35.04 16.24-2.2-19.748-23.695-17.825-31.107 32.19-4.36-18.89-22.664-22.388-39.07-1.456-2.246 25.672-4.128-25.288-44.114-18.983-21.61 8.73-.81-16.878-34.098-19.066-20.028 8.826-1.053-4.254-15.905-12.558-20.906-6.718-12.49 14.45-1.266-21.167-39.492"/></g><g fill="#2D253A"><path d="M255.44 269l-14.303 16.953-16.86 25.99-8.1 21.043 10.856 1.99-11.595 16.785-11.82 31.336 9.75 2.126-18.46 26.683-13.057 26.914 12.023 1.848L173 469.85l-23.763 46.245 25.986 2.636L159.29 547.8l-10.192 30.108 18.914 2.85-13.66 24.92-10.655 31.478 15.384 2.318-15.422 29.36L132 705.515l80.277 11.06 35.298-8.123v55.33h23.583l1.593-54.31 39.61 6.09 107.45-15.932-23.457-27.21-20.917-35.04 16.24-2.2-19.748-23.695-17.825-31.107 32.19-4.36-18.89-22.664-22.388-39.07-1.456-2.246 25.672-4.128-25.288-44.114-18.983-21.61 8.73-.81-16.878-34.098-19.066-20.028 8.826-1.053-4.254-15.905-12.558-20.906-6.718-12.49 14.45-1.266-21.167-39.492"/></g><g fill="#2D253A"><path d="M94.057 423l-8.93 10.583-10.524 16.224-5.056 13.136 6.777 1.242-7.238 10.478-7.38 19.56 6.088 1.328L56.27 512.21l-8.15 16.8 7.504 1.155-13.03 18.216-14.834 28.867 16.222 1.646-9.947 18.145-6.36 18.794 11.805 1.78-8.527 15.556-6.65 19.65 9.602 1.447-9.627 18.328L17 695.49l50.113 6.906 22.034-5.072v34.538h14.722l.993-33.902 24.726 3.802 67.073-9.945-14.642-16.987-13.057-21.873 10.138-1.373-12.327-14.79-11.127-19.42 20.095-2.72-11.79-14.15-13.977-24.388-.91-1.402 16.028-2.577-15.785-27.538-11.85-13.49 5.45-.506-10.537-21.286-11.902-12.502 5.51-.658-2.656-9.928-7.84-13.05-4.193-7.797 9.02-.79-13.213-24.653"/></g><g fill="#2D253A"><path d="M140.588 466l-7.484 8.87-8.822 13.6-4.238 11.01 5.68 1.04-6.066 8.783-6.185 16.396 5.102 1.11-9.66 13.963-6.83 14.082 6.29.967-10.922 15.27-12.434 24.196 13.596 1.38-8.337 15.208-5.334 15.754 9.897 1.492-7.148 13.038-5.575 16.47 8.05 1.213-8.07 15.363-6.1 19.192 42.004 5.788 18.47-4.25v28.95h12.338l.834-28.418 20.725 3.187 56.222-8.336-12.274-14.24-10.944-18.333 8.497-1.15-10.332-12.4-9.326-16.275 16.843-2.28-9.884-11.86-11.713-20.442-.762-1.176 13.433-2.16-13.232-23.08-9.932-11.308 4.567-.424-8.83-17.84-9.976-10.48 4.618-.552-2.226-8.322-6.57-10.938-3.516-6.535 7.56-.663-11.074-20.663"/></g><g><path fill="#2D253A" d="M2033.56 326l14.303 16.953 16.86 25.99 8.1 21.043-10.856 1.99 11.595 16.785 11.82 31.336-9.75 2.126 18.46 26.683 13.057 26.914-12.023 1.848L2116 526.85l23.763 46.245-25.986 2.636 15.934 29.068 10.192 30.108-18.914 2.85 13.66 24.92 10.655 31.478-15.384 2.318 15.422 29.36L2157 762.515l-80.277 11.06-35.298-8.123v55.33h-23.583l-1.593-54.31-39.61 6.09-107.45-15.932 23.457-27.21 20.917-35.04-16.24-2.2 19.748-23.695 17.825-31.107-32.19-4.36 18.89-22.664 22.388-39.07 1.456-2.246-25.672-4.128 25.288-44.114 18.983-21.61-8.73-.81 16.878-34.098 19.066-20.028-8.826-1.053 4.254-15.905 12.558-20.906 6.718-12.49-14.45-1.266 21.167-39.492"/><path fill="#78D2FE" d="M1895.456 731.733l-15.177 18.55 2.082 5.247 17.322 5.48-11.258-1.69-19.237-2.692 23.456-27.21 16.794-28.134M1917.824 694.954l-20.565-2.82 19.78-23.673 15.38-27.025-13.202 27.89-13.794 17.908 2 3.546M1938.847 637.91l-36.14-4.894 18.89-22.664 20.85-36.39-19.143 40.13-10.138 12.64 1.936 4.73M1952.754 570.212l-32.987-5.304 25.288-44.114 12.87-14.652-10.803 18.02-17.606 33.73 2.53 4.942M1976.04 501.185l-20.73-2.81 16.878-34.1 13.594-14.28-10.775 16.412-11.727 26.392 1.697 4.165M1986.68 427.29l16.385-28.385-13.556 29.052-2.42 9.822 1.86 3.534 11.48 3.284-9.177-.35-8.826-1.053M2033.56 326l-19.413 29.353-15.06 30.928 1.96 4.66 12.68 4.072-22.218-2.384 21.165-39.492"/><g><path fill="#2D253A" d="M1909.56 271l14.303 16.953 16.86 25.99 8.1 21.043-10.856 1.99 11.595 16.785 11.82 31.336-9.75 2.126 18.46 26.683 13.057 26.914-12.023 1.848L1992 471.85l23.763 46.245-25.986 2.636 15.934 29.068 10.192 30.108-18.914 2.85 13.66 24.92 10.655 31.478-15.384 2.318 15.422 29.36L2033 707.515l-80.277 11.06-35.298-8.123v55.33h-23.583l-1.593-54.31-39.61 6.09-107.45-15.932 23.457-27.21 20.917-35.04-16.24-2.2 19.748-23.695 17.825-31.107-32.19-4.36 18.89-22.664 22.388-39.07 1.456-2.246-25.672-4.128 25.288-44.114 18.983-21.61-8.73-.81 16.878-34.098 19.066-20.028-8.826-1.053 4.254-15.905 12.558-20.906 6.718-12.49-14.45-1.266 21.167-39.492"/><path fill="#78D2FE" d="M1771.456 676.733l-15.177 18.55 2.082 5.247 17.322 5.48-11.258-1.69-19.237-2.692 23.456-27.21 16.794-28.134M1793.824 639.954l-20.565-2.82 19.78-23.673 15.38-27.025-13.202 27.89-13.794 17.908 2 3.546M1814.847 582.91l-36.14-4.894 18.89-22.664 20.85-36.39-19.143 40.13-10.138 12.64 1.936 4.73M1828.754 515.212l-32.987-5.304 25.288-44.114 12.87-14.652-10.803 18.02-17.606 33.73 2.53 4.942M1852.04 446.185l-20.73-2.81 16.878-34.1 13.594-14.28-10.775 16.412-11.727 26.392 1.697 4.165M1862.68 372.29l16.385-28.385-13.556 29.052-2.42 9.822 1.86 3.534 11.48 3.284-9.177-.35-8.826-1.053M1909.56 271l-19.413 29.353-15.06 30.928 1.96 4.66 12.68 4.072-22.218-2.384 21.165-39.492"/></g><g><path fill="#2D253A" d="M1780.73 387l10.693 12.672 12.603 19.427 6.054 15.728-8.115 1.488 8.667 12.546 8.836 23.422-7.29 1.59 13.8 19.944 9.76 20.118-8.987 1.382 15.603 21.813 17.762 34.568-19.423 1.97 11.91 21.727 7.617 22.505-14.138 2.13 10.21 18.628 7.964 23.528-11.5 1.733 11.53 21.945 8.714 27.418-60.005 8.268-26.385-6.07v41.355h-17.627l-1.19-40.594-29.61 4.553-80.314-11.91 17.533-20.34 15.634-26.19-12.14-1.644 14.763-17.712 13.323-23.252-24.062-3.26 14.12-16.94 16.736-29.204 1.09-1.678-19.19-3.086 18.9-32.974 14.19-16.153-6.525-.604 12.617-25.488 14.252-14.97-6.598-.787 3.18-11.888 9.386-15.627 5.022-9.335-10.8-.947 15.82-29.52"/><path fill="#78D2FE" d="M1677.503 690.275l-11.345 13.865 1.557 3.923 12.948 4.095-8.415-1.263-14.38-2.01 17.534-20.34 12.553-21.03M1694.222 662.784l-15.372-2.108 14.785-17.695 11.498-20.2-9.87 20.847-10.31 13.386 1.495 2.65M1709.936 620.146l-27.014-3.66 14.12-16.94 15.585-27.2-14.31 29.995-7.577 9.45 1.447 3.535M1720.33 569.542l-24.656-3.964 18.903-32.974 9.62-10.952-8.076 13.47-13.158 25.212 1.892 3.693M1737.736 517.946l-15.495-2.1 12.617-25.488 10.162-10.675-8.056 12.268-8.764 19.728 1.268 3.114M1745.69 462.712l12.248-21.217-10.133 21.715-1.808 7.342 1.39 2.642 8.58 2.455-6.86-.262-6.596-.788M1780.73 387l-14.51 21.94-11.256 23.12 1.465 3.48 9.476 3.045-16.607-1.782 15.82-29.52"/></g><g fill="#2D253A"><path d="M2136.46 405l9.68 11.474 11.41 17.59 5.48 14.24-7.346 1.347 7.848 11.36 8 21.207-6.6 1.44 12.494 18.057 8.836 18.214-8.136 1.252 14.126 19.75 16.082 31.296-17.586 1.784 10.783 19.672 6.898 20.376-12.8 1.93 9.245 16.864 7.21 21.303-10.41 1.57 10.437 19.87 7.89 24.824-54.33 7.485-23.888-5.498v37.444h-15.96l-1.078-36.754-26.807 4.122-72.718-10.783 15.874-18.415 14.156-23.714-10.99-1.488 13.364-16.036 12.064-21.053-21.786-2.95 12.784-15.34 15.152-26.44.985-1.52-17.374-2.795 17.113-29.854 12.847-14.624-5.908-.548 11.423-23.077 12.903-13.553-5.973-.713 2.88-10.764 8.498-14.148 4.546-8.453-9.78-.858 14.325-26.727"/></g><g fill="#2D253A"><path d="M2254.09 292l-13.726 16.268-16.18 24.94-7.77 20.193 10.416 1.91-11.126 16.108-11.344 30.068 9.358 2.04-17.716 25.605-12.528 25.828 11.536 1.774-20.03 28.003-22.803 44.377 24.936 2.53-15.29 27.892-9.78 28.89 18.15 2.737-13.108 23.914-10.224 30.205 14.764 2.224-14.8 28.175-11.187 35.197 77.033 10.615 33.872-7.796v53.092h22.63l1.53-52.114 38.008 5.844 103.108-15.29-22.51-26.11-20.07-33.625 15.583-2.11-18.95-22.737-17.104-29.85 30.89-4.184-18.127-21.75-21.485-37.49-1.397-2.155 24.636-3.96-24.267-42.333-18.216-20.737 8.38-.776-16.198-32.72-18.296-19.22 8.47-1.01-4.083-15.262-12.05-20.06-6.447-11.986 13.865-1.216-20.31-37.896"/></g><g fill="#2D253A"><path d="M2353.475 393l10.373 12.295 12.228 18.85 5.874 15.26-7.873 1.445 8.41 12.173 8.572 22.726-7.073 1.54 13.39 19.353 9.468 19.52-8.72 1.34 15.14 21.164 17.234 33.54-18.848 1.91 11.556 21.082 7.39 21.835-13.716 2.068 9.908 18.073 7.726 22.83-11.157 1.68 11.185 21.294 8.455 26.603-58.22 8.022-25.6-5.892v40.127h-17.105l-1.155-39.388-28.728 4.417-77.927-11.556 17.012-19.735 15.17-25.413-11.778-1.595 14.32-17.185 12.93-22.56-23.348-3.163 13.7-16.437 16.238-28.335 1.056-1.63-18.62-2.993 18.34-31.995 13.768-15.673-6.33-.586 12.24-24.73 13.828-14.526-6.4-.764 3.084-11.535 9.108-15.16 4.872-9.06-10.48-.918 15.352-28.64"/></g><g fill="#2D253A"><path d="M2504.437 414l8.64 10.24 10.184 15.7 4.893 12.71-6.557 1.202 7.004 10.14 7.14 18.927-5.89 1.283L2541 500.32l7.888 16.258-7.262 1.117 12.608 17.627 14.354 27.934-15.697 1.592 9.626 17.557 6.156 18.187-11.425 1.722 8.252 15.053 6.434 19.013-9.292 1.4 9.316 17.736 7.042 22.156-48.49 6.682-21.322-4.908v33.42h-14.245l-.963-32.804-23.926 3.68-64.903-9.625 14.17-16.437 12.635-21.165-9.81-1.328 11.93-14.313 10.766-18.79-19.444-2.634 11.41-13.69 13.524-23.6.88-1.356-15.508-2.494 15.275-26.646 11.467-13.054-5.274-.488 10.196-20.597 11.516-12.098-5.33-.636 2.57-9.607 7.584-12.628 4.058-7.543-8.727-.766 12.785-23.855"/></g></g><g><path fill="#2D253A" d="M2163 704.273L2780 701v240h-617M-224 720h617v220h-617zM1970.89 710c-5 3.158-41.022 6-41.022 6l-86.048 3-50.03 5-45.024 6-52.03 2h-43.024l-36.02 4-21.012 1-23.013 11-29.016 7-47.026 14-11.006-1-17.01 8-14.008 3-9.005 3-7.004 3-16.008-1-9.005 4-10.005-2-7.004 5h-10.006l-15.01 6-10.004 7-9.005 4-1 6-11.007 3h-12.007l-9.006 8h-8.083l-9.88 5.026-27.526-.026-11.542-3-5.003 3-6.004-6-8.005-5-7.003-3h-8.004l-5.003 3-7.004 3-6.004-5-9.005-3-7.004-4-3-7-10.007-3-16.01-4-6.002-4-12.007-1-7.004 2-4.002 6-14.007 5-8.005-9-5.003-5-6.003-1-9.005-1-10.006-7-9.004-2-9.005 9-21.01-19h-8.005l-30.017-12-32.018-12-14.008-12H880.275l-73.04-9s-115.066-6-126.072-9-28.016-22-28.016-22l-72.04-7-63.036 7-50.028 3L393 710v230h1770V710h-192.11z"/><path fill="#2F263C" d="M2002.344 842.155h17.348l6.308 2.35V897h-5.52l-14.152-.392-8.715-52.103"/><path fill="#30283E" d="M1962.918 838.13l17.348 1.285 12.287 14.72 5.06 36.99-10.12 5.483-13.01-5.484-11.565-42.226"/><path fill="#322941" d="M1938.202 838.13l15.745 1.448 15.654 51.154-17.993-1.654-8.567-5.45-8.96-41.835"/><path fill="#332B43" d="M1908.574 829.606l16.453 1.858 10.94 54.726-5.814 1.052-20.762-2.345-5.174-6.8 1.467-44.033"/><path fill="#352C45" d="M1880.55 823.737l19.464 4.366-3.49 56.43-20.74-1.37-6.585-7.178 6.888-46.132"/><path fill="#372D47" d="M1847.784 819.904l-10.978 54.49 7.953 6.936 15.35-1.245 8.946-43.533-1.364-16.804-16.08-3.28"/><path fill="#382F49" d="M1825.376 815.65l-25.63 48.905 1.636 6.738 7.026 2.045 14.308 1.763 6.087-6.256 12.524-48.734-2.178-5.62-8.792-2.107"/><path fill="#3A304C" d="M1803.27 809.363l-52.504 44.645-.253 5.48 32.19 3.81 9.775-6.614 26.38-40.694 2.082-6.627-10.463-3.25"/><path fill="#3B324E" d="M1704.284 844.505l70.178-45.443 11.04 2.35 11.04 3.918-66.237 48.577-21.29-3.917"/><path fill="#3D3350" d="M1671.166 826.485l69.39-39.176 11.04.783 9.46 4.7-4.73 10.97-68.6 38.392-15.77-4.7M1633.298 818.588l75.75-39.863 12.613 1.583 8.666 7.063-75.75 40.647-16.558-.804M1604.763 805.083l58.912-31.066 16.335-4.136 18.68 8.28-76.578 39.21-11.212-2.457M1566.293 793.577l83.583-32.907 10.25.784 5.52 7.05-76.486 37.61-13.405-2.35M1552.1 788.876l82.794-27.422-.788-5.485-14.982-3.918-88.314 28.206v5.484M1584.43 745l-8.675 2.35-60.743 17.14-3.127.88-7.885 3.136.788 7.835 14.194 2.35 85.16-27.422-2.366-4.7"/><g fill="#78D2FE"><path d="M1635.582 822.762l-2.284-4.174 75.75-39.863 7.71.968-7.77-.335-74.57 39.424M1608.637 811.29l-3.874-6.207 58.912-31.066 16.334-4.136 5.145 2.282-5.71-.653-15.507 4.29-56.905 29.53M1572.24 799.978l-5.947-6.4 83.583-32.908 8.407.643-8.195.906-80.518 31.406M1530.81 785.742v-5.484l88.314-28.206 9.43 2.465-9.582-1.068-86.25 27.663M1584.43 745l-72.545 20.37-7.885 3.136.805 7.295.868-6.212 6.6-3.543 21.012-5.177 13.72-4.314 24.138-6.464 11.71-3.673 11.93-.482"/></g></g></g></g></svg>
