<svg width="507" height="1029" viewBox="0 0 507 1029" fill="none" xmlns="http://www.w3.org/2000/svg">
<path d="M491.55 0.919434C491.55 358.687 276.385 435.523 179.601 579.59C82.817 723.657 162.803 838.911 219.594 891.736C253.819 923.571 355.442 975.464 491.55 970.858" stroke="black" stroke-width="2.19928"/>
<ellipse cx="367.98" cy="915.936" rx="27.3494" ry="27.3666" fill="#EF4056"/>
<ellipse cx="430.225" cy="336.542" rx="9.86371" ry="9.86994" fill="#1A1A1A"/>
<ellipse cx="398.917" cy="993.767" rx="9.8637" ry="9.86994" fill="#1A1A1A"/>
<path d="M504.903 954.806C504.903 966.588 495.358 976.138 483.585 976.138C471.812 976.138 462.267 966.588 462.267 954.806C462.267 943.024 471.812 933.474 483.585 933.474C495.358 933.474 504.903 943.024 504.903 954.806Z" stroke="#1A1A1A" stroke-width="2.19928"/>
<ellipse cx="329.33" cy="432.475" rx="27.3494" ry="27.3666" fill="#EF4056"/>
<path d="M7.6056 482.706C5.64301 479.099 4.17349 476.166 3.58508 474.525C2.28166 470.607 3.21875 466.428 5.71276 462.477C8.21108 458.518 12.2193 454.888 16.8173 452.197C21.416 449.505 26.5233 447.802 31.175 447.612C35.812 447.423 39.9023 448.733 42.6965 451.952C43.81 453.294 45.5865 456.052 47.6923 459.578C49.7875 463.086 52.1679 467.283 54.473 471.441C59.0828 479.755 63.3774 487.882 64.4622 489.952C65.5553 492.037 66.551 493.769 67.5416 495.113C68.5294 496.452 69.5696 497.486 70.7818 498.079C73.326 499.325 76.0623 498.397 79.4208 496.245C83.108 493.888 84.4786 490.485 84.7269 487.143C84.9715 483.852 84.136 480.583 83.413 478.301C82.6549 475.909 80.898 472.563 78.0998 470.11C75.2601 467.619 71.3224 466.038 66.3807 467.358C66.3145 467.376 66.2501 467.399 66.1884 467.429L57.1637 471.762C56.9093 471.301 56.6534 470.838 56.3965 470.374C54.0862 466.208 51.693 461.987 49.5804 458.45C47.4828 454.938 45.6202 452.029 44.3806 450.538L44.366 450.521C41.0123 446.65 36.1856 445.206 31.0853 445.414C25.9957 445.622 20.5406 447.47 15.7065 450.299C10.8718 453.128 6.57702 456.987 3.85297 461.303C1.12695 465.621 -0.0782919 470.496 1.50262 475.232L1.51016 475.254C2.16261 477.08 3.71864 480.164 5.67377 483.757C7.64286 487.376 10.0577 491.585 12.4682 495.694C12.7362 496.151 13.0043 496.607 13.2717 497.061L4.94847 502.623C4.89153 502.661 4.83828 502.705 4.78939 502.753C1.13816 506.335 0.494581 510.529 1.1925 514.241C1.88023 517.898 3.86531 521.113 5.53897 522.984C7.13501 524.768 9.52326 527.151 12.4809 528.615C15.4835 530.103 19.11 530.655 23.0165 528.682C26.5778 526.886 28.7695 525.003 28.9923 522.179C29.0984 520.833 28.7384 519.412 28.0883 517.88C27.4364 516.343 26.4524 514.605 25.2136 512.602C23.9841 510.615 19.1749 502.781 14.3652 494.582C11.96 490.481 9.55854 486.295 7.6056 482.706Z" fill="black"/>
<path d="M124.239 453.151L231.91 463.51" stroke="black" stroke-width="2.19928" stroke-miterlimit="10" stroke-linecap="round" stroke-linejoin="round"/>
<path d="M128.814 432.892L234.6 441.696" stroke="black" stroke-width="2.19928" stroke-miterlimit="10" stroke-linecap="round" stroke-linejoin="round"/>
<path d="M121.288 390.381L249.614 400.167" stroke="#FFE55E" stroke-width="11.7295" stroke-miterlimit="10" stroke-linecap="square" stroke-linejoin="round"/>
<path d="M119.624 411.322L193.297 416.764" stroke="#FFE55E" stroke-width="11.7295" stroke-miterlimit="10" stroke-linecap="square" stroke-linejoin="round"/>
<path d="M132.14 392.175L239.325 398.058" stroke="black" stroke-width="2.19928" stroke-miterlimit="10" stroke-linecap="round" stroke-linejoin="round"/>
<path d="M134.822 370.361L243.891 377.799" stroke="black" stroke-width="2.19928" stroke-miterlimit="10" stroke-linecap="round" stroke-linejoin="round"/>
<path d="M130.822 411.8L235.97 420.583" stroke="black" stroke-width="2.19928" stroke-miterlimit="10" stroke-linecap="round" stroke-linejoin="round"/>
<path d="M216.32 921.499C215.997 921.317 215.617 921.264 215.257 921.352L135.159 940.761C134.345 940.958 133.861 941.797 134.098 942.601L149.439 994.691C149.67 995.478 150.501 995.921 151.282 995.676L225.504 972.431C225.84 972.326 226.126 972.103 226.312 971.804L246.046 939.984C246.486 939.274 246.246 938.341 245.519 937.932L216.32 921.499Z" fill="#00CB77"/>
<path d="M149.861 996.122L225.505 972.431C225.84 972.326 226.127 972.103 226.312 971.804L246.853 938.683" stroke="#1A1A1A" stroke-width="2.19928" stroke-miterlimit="10" stroke-linecap="round" stroke-linejoin="round"/>
<path d="M220.824 946.924C222.786 949.388 226.335 949.823 228.752 947.896C231.168 945.97 231.537 942.411 229.575 939.947C227.613 937.483 224.064 937.048 221.647 938.975C219.231 940.902 218.862 944.461 220.824 946.924Z" fill="white" stroke="black" stroke-width="1.83713" stroke-miterlimit="10" stroke-linecap="round" stroke-linejoin="round"/>
<path d="M184.099 969.581C181.505 970.117 177.649 970.985 172.623 968.37C172.262 968.182 172.139 967.729 172.344 967.376L173.162 965.965C173.371 965.605 173.836 965.493 174.2 965.694C177.05 967.266 180.223 967.573 183.306 966.877L180.278 957.522C173.106 958.525 169.508 957.403 168.33 953.776C166.63 948.509 171.131 945.092 175.851 943.567L174.864 940.526C174.739 940.141 174.949 939.728 175.335 939.602L176.226 939.312C176.611 939.187 177.025 939.398 177.15 939.783L178.137 942.823C183.286 941.335 186.649 942.572 188.827 943.586C189.2 943.76 189.349 944.211 189.162 944.577L188.443 945.98C188.256 946.346 187.803 946.484 187.434 946.303C183.845 944.539 181.572 944.944 178.998 945.505L181.862 954.356C185.869 953.742 192.869 952.474 194.661 958.023C196.537 963.828 191.181 966.967 186.53 968.791L187.992 973.319C188.116 973.704 187.905 974.117 187.52 974.242L186.484 974.579C186.098 974.704 185.685 974.493 185.56 974.107L184.099 969.581ZM176.644 946.271C173.386 947.33 170.101 949.587 171.043 952.488C171.796 954.809 174.039 955.325 179.342 954.61L176.644 946.271ZM185.66 966.111C189.013 964.822 192.982 962.494 191.943 959.266C190.965 956.254 188.208 956.387 182.779 957.181L185.66 966.111Z" fill="black"/>
<path d="M196.715 802.647C206.249 800.945 219.282 782.651 229.233 791.922C239.184 801.193 218.25 812.579 206.917 810.38" stroke="black" stroke-width="2.19928" stroke-linecap="round" stroke-linejoin="round"/>
<line x1="137.793" y1="838.538" x2="127.559" y2="805.021" stroke="black" stroke-width="2.19928" stroke-linecap="round"/>
<path d="M130.925 766.016C130.925 766.016 120.646 756.523 131.53 737.989C139.928 723.688 189.363 710.468 186.912 651.69C184.75 599.947 148.121 589.677 114.303 598.712C88.0535 605.724 82.6627 618.594 89.1595 626.139C100.01 638.743 100.978 622.626 119.033 620.313C133.363 618.478 158.438 626.914 166.449 650.74C173.407 671.435 157.816 702.035 137.272 713.445C107.488 729.986 106.503 757.844 110.35 772.636C114.196 787.428 119.721 796.643 128.605 793.815C137.489 790.986 130.925 766.016 130.925 766.016Z" fill="#FFD25E"/>
<path d="M242.164 713.951C242.164 713.951 238.857 728.679 226.338 731.914C213.819 735.149 195.469 738.499 182.16 737.613C168.849 736.726 154.163 736.104 143.084 745.33C132.004 754.559 110.702 783.391 132.724 802.843C132.724 802.843 130.323 807.429 146.71 808.727C163.098 810.024 188.518 817.436 198.019 820.042C207.52 822.649 227.631 826.23 229.387 819.772C231.144 813.313 196.167 803.733 196.167 803.733C196.167 803.733 221.821 809.392 233.81 803.409C233.81 803.409 232.204 825.504 231.677 829.449C231.151 833.394 236.782 838.162 245.46 840.212C254.137 842.263 266.804 841.28 260.439 831.951C254.074 822.624 253.224 818.941 253.224 818.941L254.741 794.156L260.81 792.289C260.81 792.289 259.852 816.254 260.85 822.189C261.847 828.123 266.366 834.526 281.054 835.151C295.742 835.775 283.101 819.808 277.236 816.793C277.236 816.793 280.157 781.49 281.415 775.41C282.673 769.331 290.937 754.373 297.411 742.746C303.885 731.119 314.758 713.386 314.662 690.618C314.662 690.618 318.442 685.77 320.227 675.746C322.012 665.721 321.541 655.844 322.476 648.83C323.412 641.816 319.103 643.918 311.657 646.047C304.211 648.176 294.715 652.26 291.989 655.911C291.989 655.911 281.785 651.87 275.187 650.989C268.59 650.108 261.792 654.107 261.792 654.107C261.792 654.107 255.253 652.787 251.207 649.569C247.16 646.351 243.876 644.128 239.947 640.034C236.017 635.939 230.622 636.11 229.101 647.508C227.58 658.905 225.446 678.251 233.952 688.313C233.947 688.312 230.435 701.229 242.164 713.951Z" fill="#FFD25E"/>
<path d="M143.083 745.33C132.003 754.559 110.701 783.391 132.723 802.843" stroke="black" stroke-width="2.19928" stroke-miterlimit="10" stroke-linecap="round" stroke-linejoin="round"/>
<path d="M300.256 659.98C299.8 660.139 299.616 660.681 299.889 661.08C302.031 664.218 309.847 675.769 309.834 677.307C309.821 679.089 314.196 668.078 314.019 662.701C313.842 657.324 313.167 655.675 308.728 657.087C306.855 657.685 302.222 659.294 300.256 659.98Z" fill="#EF4056"/>
<path d="M237.796 677.273C237.796 677.273 243.082 666.478 252.651 658.187C253.163 657.743 252.881 656.853 252.207 656.787C249.84 656.556 245.945 655.994 244.163 654.707C241.51 652.79 237.595 646.917 235.62 656.686C233.646 666.461 235.07 674.234 237.796 677.273Z" fill="#EF4056"/>
<path d="M235.135 698.385C235.135 698.385 237.446 717.03 256.374 724.524" stroke="black" stroke-width="2.19928" stroke-miterlimit="10" stroke-linecap="round" stroke-linejoin="round"/>
<path d="M246.751 696.117C246.751 696.117 248.687 707.454 261.562 705.736C274.438 704.018 273.596 693.622 273.83 691.332C274.795 694.874 278.766 705.383 291.264 703.615C303.762 701.847 303.123 692.952 303.123 692.952" stroke="black" stroke-width="2.19928" stroke-miterlimit="10" stroke-linecap="round" stroke-linejoin="round"/>
<path d="M156.851 765.65C156.851 765.65 171.973 750.168 192.822 752.505C213.671 754.842 224.68 768.921 224.265 780.044C223.717 794.745 218.259 802.463 212.032 809.264" stroke="black" stroke-width="2.19928" stroke-miterlimit="10" stroke-linecap="round" stroke-linejoin="round"/>
<path d="M173.729 801.116C173.729 801.116 205.517 804.328 218.021 811.834" stroke="black" stroke-width="2.19928" stroke-miterlimit="10" stroke-linecap="round" stroke-linejoin="round"/>
<path d="M256.551 770.891L252.883 822.011" stroke="black" stroke-width="2.19928" stroke-miterlimit="10" stroke-linecap="round" stroke-linejoin="round"/>
<path d="M279.406 771.702C279.406 771.702 274.032 787.481 254.741 794.159" stroke="black" stroke-width="2.19928" stroke-miterlimit="10" stroke-linecap="round" stroke-linejoin="round"/>
<path d="M275.486 683.2C279.971 683.129 281.86 684.052 280.425 688.097C278.991 692.143 277.951 694.903 274.376 694.871C270.802 694.84 267.475 691.274 265.613 690.134C263.751 688.993 261.171 684.857 266.681 683.81C272.189 682.76 275.486 683.2 275.486 683.2Z" fill="#F67D6D"/>
<path d="M252.171 677.568C253.32 677.722 254.406 676.686 254.597 675.254C254.788 673.823 254.012 672.538 252.863 672.384C251.714 672.231 250.628 673.267 250.437 674.699C250.246 676.13 251.022 677.415 252.171 677.568Z" fill="black"/>
<path d="M291.069 675.34C292.227 675.28 293.103 674.062 293.026 672.62C292.949 671.177 291.949 670.057 290.791 670.116C289.634 670.176 288.758 671.394 288.835 672.837C288.911 674.279 289.912 675.4 291.069 675.34Z" fill="black"/>
<path d="M73.5032 759.641C82.9006 761.597 121.226 768.174 135.483 771.584C147.57 774.474 152.951 781.095 150.709 795.9C148.467 810.705 146.674 825.509 142.684 839.309C139.56 850.112 133.08 856.6 120.607 855.64C108.125 854.68 69.4502 846.757 57.4523 844.352C45.4545 841.947 39.2942 830.642 41.7602 816.985C44.2261 803.329 47.1672 785.509 50.0456 771.584C52.915 757.658 65.8723 758.053 73.5032 759.641Z" fill="#EF4056"/>
<path d="M84.6869 786.323C82.3644 796.606 79.8895 811.303 77.9706 819.468C76.0517 827.633 77.1456 832.434 86.6148 828.593C97.716 824.089 107.293 819.172 112.054 816.103C116.986 812.936 116.042 808.659 110.805 802.629C105.694 796.743 100.056 790.172 95.25 784.403C90.4437 778.633 86.1754 779.692 84.6869 786.323Z" fill="#FFFBE3"/>
</svg>
