<svg width="507" height="1029" fill="none" xmlns="http://www.w3.org/2000/svg"><path d="M491.549.92c0 357.767-215.165 434.603-311.949 578.67-96.784 144.067-16.798 259.321 39.993 312.146 34.225 31.835 135.848 83.728 271.956 79.122" stroke="#fff" stroke-width="2.199"/><path d="M367.98 943.303c15.105 0 27.35-12.253 27.35-27.367s-12.245-27.367-27.35-27.367c-15.104 0-27.349 12.253-27.349 27.367s12.245 27.367 27.349 27.367z" fill="#EF4056"/><path d="M430.225 346.412c5.448 0 9.864-4.419 9.864-9.87s-4.416-9.87-9.864-9.87-9.864 4.419-9.864 9.87 4.416 9.87 9.864 9.87zm-31.309 657.228c5.448 0 9.864-4.422 9.864-9.873s-4.416-9.87-9.864-9.87c-5.447 0-9.863 4.419-9.863 9.87s4.416 9.873 9.863 9.873z" fill="#fff"/><path d="M504.904 954.806c0 11.782-9.545 21.332-21.318 21.332-11.773 0-21.318-9.55-21.318-21.332s9.545-21.332 21.318-21.332c11.773 0 21.318 9.55 21.318 21.332z" stroke="#fff" stroke-width="2.199"/><path d="M329.33 459.842c15.105 0 27.349-12.253 27.349-27.367s-12.244-27.367-27.349-27.367-27.35 12.253-27.35 27.367 12.245 27.367 27.35 27.367z" fill="#EF4056"/><path d="M7.605 482.706c-1.963-3.607-3.432-6.54-4.02-8.181-1.304-3.918-.367-8.097 2.127-12.048 2.498-3.959 6.506-7.589 11.104-10.28 4.6-2.692 9.706-4.395 14.358-4.585 4.637-.189 8.727 1.121 11.522 4.34 1.113 1.342 2.89 4.1 4.995 7.626 2.096 3.508 4.476 7.705 6.781 11.863 4.61 8.314 8.904 16.441 9.99 18.511 1.092 2.085 2.088 3.817 3.079 5.161.987 1.339 2.028 2.373 3.24 2.966 2.544 1.246 5.28.318 8.639-1.834 3.687-2.357 5.058-5.76 5.306-9.102.245-3.291-.59-6.56-1.314-8.842-.758-2.392-2.515-5.738-5.313-8.191-2.84-2.491-6.778-4.072-11.72-2.752-.065.018-.13.041-.192.071l-9.024 4.333-.767-1.388c-2.31-4.166-4.704-8.387-6.816-11.924-2.098-3.512-3.96-6.421-5.2-7.912l-.015-.017c-3.354-3.871-8.18-5.315-13.28-5.107-5.09.208-10.545 2.056-15.38 4.885-4.834 2.829-9.129 6.688-11.853 11.004-2.726 4.318-3.931 9.193-2.35 13.929l.007.022c.653 1.826 2.209 4.91 4.164 8.503 1.969 3.619 4.384 7.828 6.794 11.937l.804 1.367-8.323 5.562c-.057.038-.11.082-.16.13-3.65 3.582-4.294 7.776-3.596 11.488.687 3.657 2.672 6.872 4.346 8.743 1.596 1.784 3.984 4.167 6.942 5.631 3.003 1.488 6.63 2.04 10.536.067 3.56-1.796 5.753-3.679 5.975-6.503.107-1.346-.253-2.767-.904-4.299-.651-1.537-1.636-3.275-2.874-5.278-1.23-1.987-6.039-9.821-10.849-18.02-2.405-4.101-4.806-8.287-6.76-11.876z" fill="#fff"/><path d="M124.238 453.151l107.671 10.359m-103.095-30.618l105.786 8.804" stroke="#fff" stroke-width="2.199" stroke-miterlimit="10" stroke-linecap="round" stroke-linejoin="round"/><path d="M121.287 390.381l128.326 9.786m-129.99 11.155l73.673 5.442" stroke="#FFE55E" stroke-width="11.729" stroke-miterlimit="10" stroke-linecap="square" stroke-linejoin="round"/><path d="M132.141 392.175l107.185 5.883m-104.504-27.697l109.069 7.438M130.822 411.8l105.148 8.783" stroke="#fff" stroke-width="2.199" stroke-miterlimit="10" stroke-linecap="round" stroke-linejoin="round"/><path d="M216.319 921.499a1.46 1.46 0 0 0-1.063-.147l-80.098 19.409a1.467 1.467 0 0 0-1.061 1.84l15.341 52.09a1.464 1.464 0 0 0 1.843.985l74.222-23.245c.336-.105.622-.328.808-.627l19.734-31.82c.44-.71.2-1.643-.527-2.052l-29.199-16.433z" fill="#00CB77"/><path d="M149.861 996.122l75.644-23.691c.335-.105.622-.328.807-.627l20.541-33.121" stroke="#1A1A1A" stroke-width="2.199" stroke-miterlimit="10" stroke-linecap="round" stroke-linejoin="round"/><path d="M220.823 946.924c1.962 2.464 5.511 2.899 7.928.972 2.416-1.926 2.785-5.485.823-7.949-1.962-2.464-5.511-2.899-7.928-.972-2.416 1.927-2.785 5.486-.823 7.949z" fill="#fff" stroke="#000" stroke-width="1.837" stroke-miterlimit="10" stroke-linecap="round" stroke-linejoin="round"/><path d="M184.099 969.581c-2.594.536-6.45 1.404-11.476-1.211a.713.713 0 0 1-.279-.994l.818-1.411a.768.768 0 0 1 1.038-.271c2.85 1.572 6.023 1.879 9.106 1.183l-3.028-9.355c-7.172 1.003-10.77-.119-11.948-3.746-1.7-5.267 2.801-8.684 7.521-10.209l-.987-3.041a.733.733 0 0 1 .471-.924l.891-.29a.734.734 0 0 1 .924.471l.987 3.04c5.149-1.488 8.512-.251 10.69.763a.727.727 0 0 1 .335.991l-.719 1.403a.757.757 0 0 1-1.009.323c-3.589-1.764-5.862-1.359-8.436-.798l2.864 8.851c4.007-.614 11.007-1.882 12.799 3.667 1.876 5.805-3.48 8.944-8.131 10.768l1.462 4.528a.734.734 0 0 1-.472.923l-1.036.337a.733.733 0 0 1-.924-.472l-1.461-4.526zm-7.455-23.31c-3.258 1.059-6.543 3.316-5.601 6.217.753 2.321 2.996 2.837 8.299 2.122l-2.698-8.339zm9.016 19.84c3.353-1.289 7.322-3.617 6.283-6.845-.978-3.012-3.735-2.879-9.164-2.085l2.881 8.93z" fill="#000"/><path d="M196.715 802.647c9.534-1.702 22.567-19.996 32.518-10.725 9.951 9.271-10.983 20.657-22.316 18.458" stroke="#000" stroke-width="2.199" stroke-linecap="round" stroke-linejoin="round"/><path d="M137.793 838.538l-10.234-33.517" stroke="#000" stroke-width="2.199" stroke-linecap="round"/><path d="M130.925 766.016s-10.279-9.493.605-28.027c8.398-14.301 57.833-27.521 55.382-86.299-2.162-51.743-38.791-62.013-72.609-52.978-26.25 7.012-31.64 19.882-25.143 27.427 10.85 12.604 11.818-3.513 29.873-5.826 14.33-1.835 39.405 6.601 47.416 30.427 6.958 20.695-8.633 51.295-29.177 62.705-29.784 16.541-30.769 44.399-26.922 59.191 3.846 14.792 9.371 24.007 18.255 21.179 8.884-2.829 2.32-27.799 2.32-27.799z" fill="#FFD25E"/><path d="M242.165 713.951s-3.307 14.728-15.826 17.963c-12.519 3.235-30.869 6.585-44.178 5.699-13.311-.887-27.997-1.509-39.076 7.717-11.08 9.229-32.382 38.061-10.36 57.513 0 0-2.401 4.586 13.986 5.884 16.388 1.297 41.808 8.709 51.309 11.315 9.501 2.607 29.612 6.188 31.368-.27 1.757-6.459-33.22-16.039-33.22-16.039s25.654 5.659 37.643-.324c0 0-1.606 22.095-2.133 26.04-.526 3.945 5.105 8.713 13.783 10.763 8.677 2.051 21.344 1.068 14.979-8.261-6.365-9.327-7.215-13.01-7.215-13.01l1.517-24.785 6.069-1.867s-.958 23.965.04 29.9c.997 5.934 5.516 12.337 20.204 12.962 14.688.624 2.047-15.343-3.818-18.358 0 0 2.921-35.303 4.179-41.383 1.258-6.079 9.522-21.037 15.996-32.664 6.474-11.627 17.347-29.36 17.251-52.128 0 0 3.78-4.848 5.565-14.872 1.785-10.025 1.314-19.902 2.249-26.916.936-7.014-3.373-4.912-10.819-2.783-7.446 2.129-16.942 6.213-19.668 9.864 0 0-10.204-4.041-16.802-4.922-6.597-.881-13.395 3.118-13.395 3.118s-6.539-1.32-10.585-4.538c-4.047-3.218-7.331-5.441-11.26-9.535-3.93-4.095-9.325-3.924-10.846 7.474-1.521 11.397-3.655 30.743 4.851 40.805-.005-.001-3.517 12.916 8.212 25.638z" fill="#FFD25E"/><path d="M143.083 745.33c-11.08 9.229-32.382 38.061-10.36 57.513" stroke="#000" stroke-width="2.199" stroke-miterlimit="10" stroke-linecap="round" stroke-linejoin="round"/><path d="M300.256 659.98a.728.728 0 0 0-.367 1.1c2.142 3.138 9.958 14.689 9.945 16.227-.013 1.782 4.362-9.229 4.185-14.606-.177-5.377-.852-7.026-5.291-5.614-1.873.598-6.506 2.207-8.472 2.893zm-62.461 17.293s5.286-10.795 14.855-19.086c.512-.444.23-1.334-.444-1.4-2.367-.231-6.262-.793-8.044-2.08-2.653-1.917-6.568-7.79-8.543 1.979-1.974 9.775-.55 17.548 2.176 20.587z" fill="#EF4056"/><path d="M235.135 698.385s2.311 18.645 21.239 26.139m-9.622-28.407s1.936 11.337 14.811 9.619c12.876-1.718 12.034-12.114 12.268-14.404.965 3.542 4.936 14.051 17.434 12.283 12.498-1.768 11.859-10.663 11.859-10.663M156.852 765.65s15.122-15.482 35.971-13.145c20.849 2.337 31.858 16.416 31.443 27.539-.548 14.701-6.006 22.419-12.233 29.22m-38.304-8.148s31.788 3.212 44.292 10.718m38.53-40.943l-3.668 51.12m26.522-50.309s-5.374 15.779-24.665 22.457" stroke="#000" stroke-width="2.199" stroke-miterlimit="10" stroke-linecap="round" stroke-linejoin="round"/><path d="M275.487 683.2c4.485-.071 6.374.852 4.939 4.897-1.434 4.046-2.474 6.806-6.049 6.774-3.574-.031-6.901-3.597-8.763-4.737-1.862-1.141-4.442-5.277 1.068-6.324 5.508-1.05 8.805-.61 8.805-.61z" fill="#F67D6D"/><path d="M252.171 677.568c1.149.154 2.235-.882 2.426-2.314.191-1.431-.585-2.716-1.734-2.87-1.149-.153-2.235.883-2.426 2.315-.191 1.431.585 2.716 1.734 2.869zm38.898-2.228c1.158-.06 2.034-1.278 1.957-2.72-.077-1.443-1.077-2.563-2.235-2.504-1.157.06-2.033 1.278-1.956 2.721.076 1.442 1.077 2.563 2.234 2.503z" fill="#000"/><path d="M73.503 759.641c9.397 1.956 47.723 8.533 61.98 11.943 12.087 2.89 17.468 9.511 15.226 24.316-2.242 14.805-4.035 29.609-8.025 43.409-3.124 10.803-9.604 17.291-22.077 16.331-12.482-.96-51.157-8.883-63.155-11.288-11.998-2.405-18.158-13.71-15.692-27.367 2.466-13.656 5.407-31.476 8.285-45.401 2.87-13.926 15.827-13.531 23.458-11.943z" fill="#EF4056"/><path d="M84.688 786.323c-2.323 10.283-4.798 24.98-6.717 33.145-1.919 8.165-.825 12.966 8.644 9.125 11.102-4.504 20.679-9.421 25.44-12.49 4.932-3.167 3.988-7.444-1.249-13.474-5.111-5.886-10.749-12.457-15.555-18.226-4.807-5.77-9.075-4.711-10.564 1.92z" fill="#FFFBE3"/></svg>
