<svg width="926" height="1269" fill="none" xmlns="http://www.w3.org/2000/svg"><path d="M924.5 1.5L721 151C408 371 261 526 211.5 623.5s-40.4 227.2 0 292c40.4 64.8 161.5 198.5 400 282.5 86.799 30.57 201.809 52.93 313 69" stroke="#fff" stroke-width="3"/><path d="M327.269 1009.5c16.844 0 30.5-13.655 30.5-30.5s-13.656-30.5-30.5-30.5c-16.845 0-30.5 13.655-30.5 30.5s13.655 30.5 30.5 30.5z" fill="#EF4056"/><path d="M378.5 371c6.075 0 11-4.925 11-11s-4.925-11-11-11-11 4.925-11 11 4.925 11 11 11zm-16.731 733.5c6.075 0 11-4.92 11-11s-4.925-11-11-11c-6.076 0-11 4.92-11 11s4.924 11 11 11z" fill="#fff"/><path d="M440.77 1089c12.978 0 23.5-10.52 23.5-23.5s-10.522-23.5-23.5-23.5c-12.979 0-23.5 10.52-23.5 23.5s10.521 23.5 23.5 23.5z" stroke="#fff" stroke-width="3"/><path d="M346 481c16.845 0 30.5-13.655 30.5-30.5S362.845 420 346 420s-30.5 13.655-30.5 30.5S329.155 481 346 481z" fill="#EF4056"/><path d="M108.367 568.367c-4.982-8.227-9.27-7.879-15.016-8.988-3.5-.675-11.656 3.383-17.883 7.014 5.146 10.383 16.657 31.644 21.53 33.628 6.091 2.48 11.314-4.3 15.253-8.935 3.939-4.635 1.099-14.493-3.884-22.719zM4.5 628.5c-4.5-8.5-2-12 0-17.5 1.218-3.349 8.889-8.264 15.202-11.743C25.968 609.005 38.3 629.8 37.501 635c-1 6.5-9.5 7.5-15.5 8.5s-13-6.5-17.5-15z" fill="#fff"/><path d="M18.586 600.271l-11.88 7.939c-9.122 8.949-3.196 20.736 1.09 25.526 4.285 4.79 12.411 12.301 22.046 7.434 9.633-4.858 9.12-8.939 2.398-19.806-3.362-5.433-26.267-42.785-29.646-52.239-7.883-23.619 39.14-51.61 55.913-32.252 6.419 7.72 26.91 46.45 29.875 52.109 5.932 11.318 9.183 13.837 18.268 8.018 9.094-5.816 6.766-16.634 4.824-22.761-1.941-6.127-9.071-17.228-21.417-13.931l-12.881 6.184m99.743-139.92l116.83-30.031m-119.721 7.065l114.265-30.945" stroke="#fff" stroke-width="3" stroke-miterlimit="10" stroke-linecap="round" stroke-linejoin="round"/><path d="M150.323 363.025l137.635-40.692m-131.951 61.425l79.715-20.804" stroke="#95D2FF" stroke-width="16" stroke-miterlimit="10" stroke-linecap="square" stroke-linejoin="round"/><path d="M162.065 359.676l114.621-34.537m-120.088 10.66l117.188-33.623M168.13 380.741l113.586-30.725" stroke="#fff" stroke-width="3" stroke-miterlimit="10" stroke-linecap="round" stroke-linejoin="round"/><path d="M118.578 1002.89c-.066-.5-.32-.96-.71-1.28l-70.45-58.195a2 2 0 0 0-2.876.345L8.78 991.648a2 2 0 0 0 .432 2.819l69.94 50.433c.39.28.866.41 1.344.37l41.063-3.6a2.003 2.003 0 0 0 1.809-2.25l-4.79-36.53z" fill="#00CB77"/><path d="M7.563 993.277l71.59 51.623c.388.28.865.41 1.343.37l43.143-3.78" stroke="#1A1A1A" stroke-width="3" stroke-miterlimit="10" stroke-linecap="round" stroke-linejoin="round"/><path d="M98.888 1023.76c-.886 3.39 1.098 6.85 4.432 7.72 3.334.87 6.756-1.18 7.642-4.57.887-3.4-1.098-6.86-4.432-7.73-3.334-.87-6.756 1.18-7.642 4.58z" fill="#000" stroke="#000" stroke-width="2.506" stroke-miterlimit="10" stroke-linecap="round" stroke-linejoin="round"/><path d="M54.126 1006.11c-2.19-1.94-5.497-4.76-6.558-10.869a.967.967 0 0 1 .852-1.117l1.434-.168c.564-.066 1.066.35 1.152.911.539 3.512 2.368 6.483 5.002 8.733l6.321-8.956c-5.686-5.732-7.09-9.694-4.642-13.168 3.562-5.038 9.618-3.303 14.133-.109l1.946-2.763a1 1 0 0 1 1.394-.242l.556.392a1 1 0 0 1 .241 1.394l-1.947 2.762c4.659 3.52 5.858 7.255 6.424 9.87a.986.986 0 0 1-.805 1.175l-1.363.234c-.553.094-1.073-.287-1.182-.838-.843-4.248-2.701-5.984-4.89-7.88l-5.982 8.472c3.225 3.165 9.034 8.567 5.282 13.877-3.925 5.55-10.304 2.87-15.039-.07l-2.957 4.19c-.318.45-.941.55-1.392.24l-.695-.49c-.452-.32-.56-.95-.24-1.4l2.955-4.18zm15.811-22.228c-3.122-2.201-7.33-3.625-9.289-.845-1.567 2.223-.529 4.569 3.653 8.825l5.636-7.98zm-11.673 21.308c3.39 2.13 8.12 4.12 10.305 1.03 2.033-2.88.072-5.26-4.264-9.572l-6.041 8.542z" fill="#000"/><path d="M105.044 1025.89c9.653 9.02 40.28 8.29 38.293 26.74-1.987 18.45-31.429 7.55-38.293-6.63" stroke="#fff" stroke-width="3" stroke-linecap="round" stroke-linejoin="round"/><path d="M17.675 990.904l28.228-38.579" stroke="#000" stroke-width="3" stroke-linecap="round"/><path d="M225.627 766.067s-11.463-10.581.675-31.236c9.366-15.939 64.495-30.673 61.762-96.181-2.411-57.667-43.259-69.113-80.974-59.043-29.273 7.815-35.285 22.158-28.039 30.567 12.1 14.047 13.179-3.915 33.314-6.493 15.982-2.045 43.945 7.357 52.879 33.911 7.759 23.064-9.627 57.168-32.539 69.884-33.214 18.436-34.313 49.483-30.023 65.969 4.289 16.486 10.451 26.755 20.358 23.603 9.908-3.153 2.587-30.981 2.587-30.981z" fill="#FFD25E"/><path d="M349.681 708.04s-3.688 16.414-17.65 20.02c-13.961 3.605-34.425 7.338-49.267 6.351-14.844-.988-31.222-1.681-43.578 8.601-12.356 10.285-36.112 42.418-11.553 64.098 0 0-2.678 5.111 15.597 6.557 18.276 1.446 46.625 9.706 57.22 12.612 10.595 2.905 33.023 6.896 34.982-.302 1.958-7.198-37.048-17.875-37.048-17.875s28.61 6.307 41.98-.361c0 0-1.791 24.624-2.378 29.021-.587 4.397 5.693 9.71 15.37 11.996 9.677 2.286 23.803 1.19 16.705-9.208-7.098-10.395-8.047-14.5-8.047-14.5l1.692-27.622 6.769-2.08s-1.069 26.708.044 33.322c1.112 6.615 6.151 13.75 22.531 14.446 16.38.697 2.283-17.099-4.258-20.459 0 0 3.258-39.345 4.661-46.121 1.403-6.775 10.619-23.445 17.839-36.404 7.22-12.958 19.345-32.722 19.238-58.096 0 0 4.216-5.403 6.206-16.576 1.991-11.172 1.465-22.18 2.509-29.997 1.043-7.817-3.762-5.475-12.066-3.102-8.304 2.373-18.894 6.925-21.934 10.994 0 0-11.38-4.503-18.737-5.486-7.357-.982-14.939 3.475-14.939 3.475s-7.292-1.47-11.804-5.057c-4.513-3.587-8.175-6.064-12.557-10.627-4.382-4.564-10.4-4.373-12.096 8.329-1.695 12.702-4.075 34.264 5.411 45.477-.006 0-3.923 14.396 9.158 28.574z" fill="#FFD25E"/><path d="M239.186 743.012c-12.356 10.285-36.112 42.418-11.553 64.098" stroke="#000" stroke-width="3" stroke-miterlimit="10" stroke-linecap="round" stroke-linejoin="round"/><path d="M414.692 647.81a1 1 0 0 0-.498 1.509c2.569 3.766 10.966 16.2 10.951 17.881-.014 1.986 4.865-10.285 4.668-16.278-.198-5.992-.95-7.83-5.901-6.256-2.019.643-6.917 2.342-9.22 3.144zm-69.882 19.353s5.76-11.755 16.199-20.951c.694-.611.304-1.832-.615-1.931-2.66-.284-6.615-.919-8.484-2.268-2.958-2.136-7.324-8.682-9.527 2.206-2.201 10.894-.613 19.557 2.427 22.944z" fill="#EF4056"/><path d="M341.843 690.692s2.577 20.78 23.685 29.131m-10.732-31.659s2.159 12.635 16.518 10.72c14.358-1.914 13.42-13.5 13.681-16.053 1.076 3.948 5.504 15.66 19.442 13.689 13.938-1.97 13.225-11.883 13.225-11.883M254.54 765.659s16.864-17.255 40.115-14.65c23.25 2.604 35.527 18.295 35.065 30.691-.612 16.384-6.698 24.987-13.643 32.566m-42.714-9.081s35.449 3.58 49.395 11.946m42.967-45.631l-4.091 56.972m29.579-56.069s-5.993 17.586-27.507 25.028" stroke="#000" stroke-width="3" stroke-miterlimit="10" stroke-linecap="round" stroke-linejoin="round"/><path d="M386.842 673.768c5.002-.079 7.108.949 5.508 5.458-1.6 4.509-2.76 7.585-6.746 7.55-3.986-.035-7.697-4.009-9.773-5.28-2.077-1.271-4.953-5.881 1.191-7.048 6.143-1.171 9.82-.68 9.82-.68z" fill="#F67D6D"/><path d="M360.841 667.492c1.281.171 2.493-.984 2.706-2.579.213-1.596-.653-3.028-1.935-3.199-1.281-.171-2.492.984-2.705 2.579-.213 1.596.653 3.028 1.934 3.199zm43.379-2.484c1.29-.067 2.267-1.424 2.182-3.032-.086-1.607-1.201-2.856-2.492-2.789-1.291.067-2.268 1.424-2.182 3.031.085 1.608 1.201 2.857 2.492 2.79z" fill="#000"/><path d="M142.999 774.855c10.48 2.18 53.22 9.51 69.12 13.31 13.48 3.221 19.48 10.6 16.98 27.1s-4.5 33-8.95 48.38c-3.483 12.04-10.71 19.27-24.62 18.2-13.92-1.07-57.05-9.9-70.43-12.58-13.38-2.68-20.25-15.28-17.5-30.5s6.03-35.08 9.24-50.6c3.2-15.52 17.65-15.08 26.16-13.31z" fill="#EF4056"/><path d="M155.471 804.592c-2.59 11.46-5.35 27.84-7.49 36.94-2.14 9.1-.92 14.45 9.64 10.17 12.38-5.02 23.06-10.5 28.37-13.92 5.5-3.53 4.448-8.297-1.392-15.017-5.7-6.56-11.988-13.883-17.348-20.313-5.36-6.43-10.12-5.25-11.78 2.14z" fill="#FFFBE3"/></svg>
