<svg id="Layer_1" xmlns="http://www.w3.org/2000/svg" xmlns:xlink="http://www.w3.org/1999/xlink" viewBox="0 0 1622.8 730.5"><style>.st0{fill:none;stroke:#000;stroke-width:2;stroke-linecap:round;stroke-linejoin:round}.st1{fill:#1cb0a8}.st2,.st3,.st4{fill:none;stroke:#000;stroke-width:2;stroke-linecap:round;stroke-linejoin:round;stroke-miterlimit:10}.st3,.st4{stroke:#1a1a1a;stroke-width:1.5}.st4{stroke:#1cb0a8}.st5{fill:#1a1a1a}.st6{fill:#ff2350}.st7,.st8,.st9{fill:none;stroke:#1a1a1a;stroke-width:1.7382;stroke-linecap:round;stroke-linejoin:round;stroke-miterlimit:10}.st8,.st9{fill:#1a1a1a}.st9{fill:#95d5d2;stroke-width:1.5}.st10{fill:#ef4056}.st11{fill:#1a1a1a;stroke:#1a1a1a;stroke-width:.2173}.st12{fill:#ffb211}.st13{fill:#ff7466}.st14{fill:#ffb29a}.st15{stroke:#ffd041;stroke-width:1.7382;stroke-linecap:round}.st15,.st16,.st17{fill:none;stroke-miterlimit:10}.st16{stroke-linecap:round;stroke:#1a1a1a;stroke-width:1.5}.st17{stroke:#004ab2;stroke-width:.2173}.st18{fill:#ffd041}.st19{fill:#246bff}.st20,.st21{stroke-width:1.5;stroke-miterlimit:10}.st20{stroke-linecap:round;fill:none;stroke:#000}.st21{fill:#fffbe0;stroke:#1a1a1a}.st22{fill:#00b3a9}.st23{fill:#fffbe3}.st24{fill:none;stroke:#1cb0a8;stroke-width:1.5;stroke-miterlimit:10}.st25{fill:#ff5780}.st26{fill:#00cf6e}.st27{fill:#ffd25e}.st28{fill:none;stroke:#000;stroke-width:1.3;stroke-linecap:round;stroke-linejoin:round;stroke-miterlimit:10}.st29{fill:#396aff}.st30{fill:#fcb643}.st31{fill:#ff806f}.st32{fill:none;stroke:#000;stroke-width:1.155;stroke-linecap:round;stroke-linejoin:round;stroke-miterlimit:10}.st33{fill:#1affff}.st34{fill:#0b6639}.st35,.st36,.st37{stroke:#1cb0a8;stroke-miterlimit:10}.st35{stroke-linecap:round;stroke-linejoin:round;fill:none;stroke-width:1.7382}.st36,.st37{fill:#81d6d2;stroke-width:1.5}.st37{fill:#95d5d2}.st38{fill:#fffbe0}.st39{fill:#ec6000}.st40,.st41,.st42{stroke-miterlimit:10}.st40{fill:none;stroke:#1a1a1a;stroke-linecap:round;stroke-width:1.5522}.st41,.st42{stroke-width:1.5}.st41{stroke-linecap:round;stroke-linejoin:round;fill:#81d6d2;stroke:#1cb0a8}.st42{fill:none;stroke:#1a1a1a}.st43{fill:#007c73}.st44{fill:none;stroke:#000;stroke-width:1.9554;stroke-linecap:round;stroke-linejoin:round;stroke-miterlimit:10}.st45{fill:#ff8200}.st46{fill:#fff}.st47{stroke-linecap:round}.st47,.st48,.st49{fill:none;stroke:#81d7d3;stroke-width:1.9554;stroke-miterlimit:10}.st49{stroke:#000;stroke-width:1.5522;stroke-linecap:round;stroke-linejoin:round}.st50{fill:#231f20}.st51{fill:none}.st51,.st52,.st53,.st54{stroke:#1cb0a8;stroke-width:1.5}.st52{stroke-linecap:round;stroke-linejoin:round;fill:none}.st53,.st54{fill:#95d5d2}.st54{fill:none;stroke-linecap:round}.st55{clip-path:url(#SVGID_2_)}.st56{fill:none;stroke:#1cb0a8;stroke-width:1.2905;stroke-miterlimit:10}.st57{fill:#9e001f}.st58{fill:none;stroke:#000;stroke-width:1.2905;stroke-linecap:round;stroke-miterlimit:10}.st59{fill:#004ab2}.st60{fill:none;stroke:#000;stroke-width:1.5487;stroke-linecap:round;stroke-miterlimit:10}.st61{fill:#db6900}.st62{fill:none}.st62,.st63{stroke:#000;stroke-width:1.5;stroke-linecap:round;stroke-linejoin:round;stroke-miterlimit:10}.st64{fill:#b10132}.st65{stroke:#00cf6e;stroke-width:1.9497;stroke-linejoin:round;stroke-miterlimit:10}.st65,.st66,.st67{fill:none;stroke-linecap:round}.st66{stroke-linejoin:round;stroke:#000;stroke-width:1.6144}.st67{stroke:#00cf6e;stroke-width:2.6073;stroke-miterlimit:10}.st68{fill:#00a962}.st69{fill:none;stroke:#000;stroke-width:1.5522;stroke-linecap:round;stroke-miterlimit:10}.st70,.st71{stroke:#1a1a1a}.st70{stroke-linecap:round;stroke-miterlimit:10;fill:#fffbe0;stroke-width:1.5}.st71{fill:none;stroke-width:2}</style><path class="st0" d="M1563 218.5c35.9 180.5-77.9 466-222.2 511"/><path class="st1" d="M434.6 579.5c-.4.1-.6.5-.5.9.1.4.5.6.9.5l-.4-1.4zm296.2-39.3v.8-.8zm468 37.6l-.4.7c.3.2.7.1.9-.2.2-.3.2-.7 0-1l-.5.5zm-751.4.1c.4-.1.7-.5.6-.9-.1-.4-.5-.7-.9-.6l.3 1.5zm14.7-4.9c-.4.1-.7.5-.6.9.1.4.5.7.9.6l-.3-1.5zm724.7-19.8l-.7.1.7-.1z"/><path class="st1" d="M1198.2 557.7L1198.8 557.1 1198.7 557.1 1198.7 557.1z"/><path class="st1" d="M1198.2 542.2L1198.9 542.5 1198.9 542.5z"/><path class="st1" d="M1218.8 541.2L1218.2 541.6 1218.2 541.6z"/><path class="st1" d="M1230.8 548.7L1230 548.9 1230 548.9z"/><path class="st1" d="M1211.8 573.1c-.3.3-.4.7-.1 1.1.3.3.7.4 1.1.1l-1-1.2zm-481-32.2c72 0 182.6 5.7 278.4 13.3 47.9 3.8 92.1 8 125.9 12.2 16.9 2.1 31.2 4.2 42.1 6.2 5.4 1 10 2 13.6 3 3.6 1 6.2 1.9 7.7 2.8l.7-1.3c-1.7-1-4.4-1.9-8.1-2.9-3.6-1-8.3-2-13.7-3-10.9-2-25.2-4.1-42.2-6.2-33.8-4.2-78-8.5-126-12.2-95.8-7.6-206.5-13.3-278.5-13.3v1.4zm-295.9 40c3.8-1 8-2 12.5-3.1l-.3-1.5c-4.5 1-8.7 2.1-12.5 3.1l.3 1.5z"/><path class="st1" d="M462.4 574.5c69.5-15 188.6-33.6 268.3-33.6v-1.5c-79.9 0-199.2 18.6-268.7 33.6l.4 1.5zm725.1-21.4c-.4-2.7-.3-5.1.1-7.1s1.2-3.4 2-4.1c.4-.3.8-.5 1.2-.5.4 0 .9.1 1.4.5 1.1.8 2.4 2.5 3.6 5.5l1.4-.6c-1.3-3.2-2.7-5.2-4.2-6.2-.8-.5-1.5-.8-2.3-.7-.8 0-1.5.3-2.1.8-1.2 1-2.1 2.8-2.5 4.9-.5 2.2-.5 4.8-.1 7.6l1.5-.1z"/><path class="st1" d="M1195.9 547.5c2 5 2.8 7.9 2.9 9.3v.7c0 .1 0 0 .1-.1.2-.1.3 0 .2-.1 0 0-.2-.1-.3-.3l-1 1.1c.2.2.5.4.8.5.3.1.7.2 1.1 0 .4-.2.5-.6.6-.9.1-.3.1-.7.1-1.1-.2-1.7-1-4.8-3-9.8l-1.5.7z"/><path class="st1" d="M1198.7 557.1c-1-.8-2.8-3.9-1.4-9.7l-1.5-.3c-1.4 6.2.3 9.9 2 11.3l.9-1.3zm-1.4-9.7c.3-1.5.9-3.1 1.6-4.9l-1.4-.6c-.8 1.9-1.4 3.6-1.7 5.1l1.5.4zm1.6-4.9c.8-1.9 1.6-3.1 2.3-3.7.7-.6 1.2-.6 1.7-.5.6.2 1.2.7 2 1.4.7.8 1.4 1.8 2.2 2.8l1.2-.8c-.7-1.1-1.5-2.2-2.3-3-.8-.9-1.7-1.6-2.7-1.9-1.1-.3-2.1-.1-3.1.8-1 .8-1.9 2.2-2.7 4.2l1.4.7zm8.2.1c.1.2.3.6.5 1.1.2.6.5 1.3.8 2.2.6 1.7 1.2 3.9 1.7 6.1.5 2.3 1 4.6 1.3 6.8.3 2.1.3 4 .1 5.3l1.5.3c.3-1.5.2-3.5-.1-5.7-.3-2.2-.8-4.6-1.3-6.9-.5-2.3-1.2-4.5-1.7-6.2-.3-.9-.5-1.6-.8-2.3-.2-.6-.5-1.1-.7-1.4l-1.3.7z"/><path class="st1" d="M1211.5 564.1c-.2 1.3-.7 2.1-1.2 2.5-.5.4-1.1.6-1.7.5-1.2-.2-2.6-1.4-2.9-4l-1.5.2c.4 3 2.1 5 4.2 5.3 1 .2 2.1-.1 2.9-.9.8-.7 1.4-1.9 1.7-3.4l-1.5-.2z"/><path class="st1" d="M1205.7 563.1c-.3-2.6.1-7.2.8-11.5.3-2.1.7-4.1 1.1-5.8.4-1.7.7-2.9.9-3.4l-1.4-.6c-.3.7-.6 2-1 3.6-.4 1.7-.8 3.7-1.1 5.9-.7 4.3-1.2 9-.8 11.9l1.5-.1z"/><path class="st1" d="M1208.4 542.5c.8-2.1 2.3-3.6 3.9-4 1.6-.4 3.6.2 5.8 3.2l1.2-.9c-2.4-3.2-5-4.3-7.3-3.7-2.3.6-4 2.6-5 4.9l1.4.5z"/><path class="st1" d="M1218.2 541.6c.8 1 1.3 2.5 1.6 4.2l1.5-.3c-.3-1.8-.9-3.5-1.8-4.8l-1.3.9zm1.5 4.3c1.1 3.6.3 6.1-.5 7.2-.2.3-.4.4-.6.5-.2.1-.2 0-.1.1.1 0 .1.1 0 0 0-.1-.1-.4 0-.8l-1.5-.2c-.1.6-.1 1.1.1 1.5.2.4.5.8 1 1 .5.1.9 0 1.3-.2s.7-.5 1-.9c1.2-1.5 2-4.6.8-8.5l-1.5.3z"/><path class="st1" d="M1218.5 552.8c.2-2 .5-2.7.8-3.5.2-.4.4-.7.7-1.3.3-.5.7-1.2 1.1-2.1l-1.4-.7c-.4.9-.8 1.5-1 2-.3.5-.5.9-.8 1.4-.5.9-.7 1.9-1 3.9l1.6.3z"/><path class="st1" d="M1221.1 546c.3-.6.9-1.1 1.6-1.2.8-.2 1.7-.1 2.7.2 2 .6 3.9 2.1 4.6 4l1.4-.5c-.8-2.5-3.2-4.3-5.6-5-1.2-.4-2.4-.4-3.5-.2-1.1.3-2.1.9-2.6 2l1.4.7z"/><path class="st1" d="M1230 548.9c.2.7.2 1.7-.1 2.8-.3 1.1-.9 2.3-1.7 3.7-1.6 2.6-3.9 5.5-6.4 8.1-2.5 2.6-5 5-6.9 6.8-1 .9-1.8 1.6-2.3 2.1-.3.2-.5.4-.7.6-.1.1-.1.1-.2.1l.5.6.5.6.2-.2c.2-.1.4-.3.7-.6.6-.5 1.4-1.2 2.4-2.1 1.9-1.8 4.5-4.2 7-6.9s4.9-5.6 6.6-8.4c.8-1.4 1.5-2.7 1.8-4 .3-1.3.4-2.5.1-3.7l-1.5.5zm-30.7 28.4c-8.9-10.4-11.2-20-11.8-24.2l-1.5.2c.7 4.4 3.1 14.2 12.2 24.9l1.1-.9z"/><path class="st2" d="M1556.3 235.3c-11-149.3-206-228.3-273-230.2s-205.2 32.3-159.8 203.6c36.1 136.5 181 44.9 69.6 16.8-115.1-29-157.6 126.3-71.5 207.5"/><path class="st3" d="M1087.7 437.9c4.1 1.5 8.7-.6 10.2-4.7 1.5-4.1-.6-8.7-4.7-10.2-4.1-1.5-8.7.6-10.2 4.7-1.5 4.1.6 8.7 4.7 10.2zm-32.1-132.5c2.2.8 4.6-.3 5.4-2.5.8-2.2-.3-4.6-2.5-5.4-2.2-.8-4.6.3-5.4 2.5-.8 2.1.3 4.6 2.5 5.4z"/><path class="st4" d="M963.2 145.1c3.2 1.2 6.8-.4 8-3.7 1.2-3.2-.4-6.8-3.7-8-3.2-1.2-6.8.4-8 3.7-1.2 3.2.5 6.8 3.7 8z"/><path class="st5" d="M1148.6 264c3 1.1 6.3-.4 7.4-3.4 1.1-3-.4-6.3-3.4-7.4-3-1.1-6.2.4-7.4 3.4-1.1 3 .4 6.3 3.4 7.4z"/><path class="st6" d="M1088.2 265.7c8.2 3.1 17.3-1.1 20.4-9.3 3.1-8.2-1.1-17.3-9.3-20.4-8.2-3.1-17.3 1.1-20.4 9.3-3.1 8.2 1.1 17.3 9.3 20.4z"/><path class="st7" d="M1234.7 33.4a5.4 5.4 0 0 0 6.9 3.1c2.8-1.1 4.2-4.2 3.1-6.9a5.4 5.4 0 0 0-6.9-3.1c-2.8 1-4.2 4.1-3.1 6.9z"/><path class="st8" d="M1085.6 352.2c2 5.2 7.9 7.8 13.1 5.8 5.2-2 7.8-7.9 5.8-13.1-2-5.2-7.9-7.8-13.1-5.8-5.2 2.1-7.8 7.9-5.8 13.1z"/><path class="st6" d="M1425.1 50.2c8.5 0 15.3-6.9 15.3-15.3 0-8.5-6.9-15.3-15.3-15.3-8.5 0-15.3 6.9-15.3 15.3s6.8 15.3 15.3 15.3z"/><path class="st9" d="M1388.7 19.9c5.3 0 9.6-4.3 9.6-9.6s-4.3-9.6-9.6-9.6-9.6 4.3-9.6 9.6 4.3 9.6 9.6 9.6z"/><path class="st10" d="M1106.7 169.8c2.7 0 4.9-2.2 4.9-4.9s-2.2-4.9-4.9-4.9-4.9 2.2-4.9 4.9 2.2 4.9 4.9 4.9z"/><path class="st11" d="M1151.5 30.4c0 2.7-2.2 4.8-4.8 4.8-2.7 0-4.8-2.2-4.8-4.8 0-2.7 2.2-4.8 4.8-4.8 2.6 0 4.8 2.2 4.8 4.8z"/><path class="st5" d="M1429.7 100.4c2.7 0 4.9-2.2 4.9-4.9s-2.2-4.9-4.9-4.9-4.9 2.2-4.9 4.9 2.2 4.9 4.9 4.9z"/><path class="st4" d="M865.7 420.9s98.5-5.4 158.2 7.6m10 2.4c-1.8-.5-3.6-1-5.5-1.4"/><path class="st12" d="M846.3 381.2s-8.7-1.9-8.5-.3c.6 5.8 7.1 14.6 9.1 20.7 3.8 12 10.8 26.2 13.8 30.4 3 4.1 9.8 5.6 12.9 5.3 1.9-.2 5.5-1.3 6.2-3.4.6-1.7 0-5.3-.8-6.3-5.4-6.7-23-27.3-26.3-33.2-3.9-6.9-6.4-13.2-6.4-13.2z"/><path class="st13" d="M925 387.3s13.3-39.9 16.9-50.1c3.7-10.3 2-11-2.5-21.9s-8.5-20.6-8.5-20.6l-28.6-5.6 15.4 34.2c-7.5 8.7-10.9 52.6-13.6 64.1-2.7 11.5-5.4 14.3-8.2 21.6-2.8 7.2-.1 11.4 2.2 12.5 2.3 1.1 47.8 2.6 54.2 1.6 6.4-.9 5.5-7.1.5-7.2-5-.1-22-6.2-24.7-9.1-5.6-5.9-5.1-11.1-3.1-19.5z"/><path class="st14" d="M929.3 374.5c4.2-12.6 10.4-30.9 12.7-37.4 3.7-10.3 2-11-2.5-21.9s-8.5-20.6-8.5-20.6l-28.6-5.6 15.4 34.2c-5.9 6.8-9.2 35-11.7 52.5-.6 5 20.7 6.2 23.2-1.2z"/><path class="st13" d="M886.1 379.6s37.2-27.5 46.6-38 6.4-14.5 3.5-22.4c-2.9-7.9-15-24.4-15-24.4s-42.6 7.4-37.1 16.6c5.5 9.2 20.7 16 20.7 16-2.4 2.7-6.1 2.6-12.1 7.9-10.9 9.6-23.7 32.1-23.7 32.1-.8.5-4.6 7.3-9.7 11.5-2.7 2.2-10.1-1.1-12.4 3.4-2.3 4.5 2.2 9.7 8.1 21.4 5.9 11.7 16.6 28.1 16.6 28.1s1.3 3.9 4.7 1.4c3.4-2.5 1.8-4.4.4-8.8-2-6.3-2.8-18.1-1.9-25.1.9-7 5.4-14.7 11.3-19.7z"/><path class="st15" d="M886.1 379.6c-12.3-3.3-14.1-17.4-14.1-17.4m-3 5.2s1.8 5.8 4.6 8.6 8.5 6.5 8.5 6.5m22.8.4s7.1 8 20.2 4.4m-20.9.1s4.7 6.5 18.9 4.5"/><path class="st14" d="M899 372.6c11.8-8.9 28.1-23.5 33.7-31 8.4-11.3 6.4-14.5 3.5-22.4-2.9-7.9-15-24.4-15-24.4s-42.6 7.4-37.1 16.6c5.5 9.2 20.7 16 20.7 16-2.4 2.7-6.1 2.6-12.1 7.9-4.8 4.2-10 11-14.3 17.2-5.4 7.8 13.6 25.4 20.6 20.1z"/><path class="st16" d="M882 349.5s2.9 6.1 7.4 9.8m17.9 9.8s4.5 2.5 9.4 2m-17.7 1.5c11.8-8.9 28.1-23.5 33.7-31 8.4-11.3 6.4-14.5 3.5-22.4-2.9-7.9-15-24.4-15-24.4m-14.8 32.7c-2.5-1-5.9-2.5-9.4-4.5"/><path class="st17" d="M947.2 241.5l2.4-10.9-14.7-.9-3.2 14.7"/><path d="M930.6 178.8s2-10.1-8.4-11.2c-10.4-1.1-11 3.4-17.4 2-6.5-1.4-16.3-3.9-18.5.8-2.2 4.8 5.9 2 8.7 3.4 2.8 1.4-2 7-7.6 6.7-5.6-.3-16-.3-14.9 3.6 1.1 3.9 6.4.6 11.2.3 4.8-.3 1.4 3-3 3.5-12.8 1.4-13.2 13.7-4.7 11.2 8.4-2.5 13-9.1 16.4-6.3 3.4 2.8 7 4.5 13.2 4.8 6.2.3 10.1-10.7 10.1-10.7l14.9-8.1z"/><path class="st18" d="M919.1 195.4c7 0 12.6-5.1 12.6-11.4 0-6.3-5.6-11.4-12.6-11.4s-12.6 5.1-12.6 11.4c0 6.3 5.6 11.4 12.6 11.4z"/><path d="M907.4 181.9s9 9.4 4 12.4c-11 6.6-14.9-7.1-15.4-8.1-.6-1.1 7.1-5.1 11.4-4.3z"/><path class="st18" d="M907.1 183.8c2.1 0 3.7-1.6 3.7-3.5s-1.7-3.5-3.7-3.5c-2.1 0-3.7 1.6-3.7 3.5s1.7 3.5 3.7 3.5z"/><path class="st13" d="M861.6 229c-1.7-24.4 19.5-29.8 36.3-29.7 17.5.1 55.7 13 55.7 13s11-16 13.7-18.6c0 0 15.4 11.6 17.7 15.2 0 0-3.6 26.8-16.5 28.7-12.9 1.9-39.7-1.1-39.7-1.1s-8 18.1-7.4 28.3c.6 10.3 2.3 17.5 2.5 16.9.2-.6-30.8-3.2-40.9 1.1-10.1 4.4-17.3 11.6-17.9 12.4-.6.8-3.4-.2-3.2-4.9.2-4.8.6-19 8-28.3-.2-.1-7.1-14.8-8.3-33z"/><path class="st18" d="M926.7 258.2s4.7 6.3 9 7c4.3.8 12.5-.9 12.2-8.9 0 0 3.7.2 4.9-2.8 1.2-2.9-.2-6-.2-6s2.5-3.4 1.5-6.4c-.9-3.1-5.8-4.6-5.8-4.6s-1.2 5.4-1.2 4.9-10.6-1.8-14.5 2.4l.6-7.6s-9-.2-10.2 5.8c-1.2 6.1 3.7 16.2 3.7 16.2z"/><path class="st19" d="M867.2 266.5s-27.8 43-16.4 56.9c11.4 13.9 96.1-29.7 117.6-17.1 21.5 12.7-34.4-41.4-47.2-41.6-12.9-.1-54 1.8-54 1.8z"/><path class="st6" d="M867.2 266.5s-27.8 43-16.4 56.9c11.4 13.9 96.1-29.7 117.6-17.1 21.5 12.7-34.4-41.4-47.2-41.6"/><path class="st16" d="M845.1 302.1c-.2 3.2.6 6 2.8 8 11.7 10.6 98.5-22.7 120.6-13.1"/><path class="st18" d="M954.2 241.2c-.9-3.1-5.8-4.6-5.8-4.6s-1.2 5.4-1.2 4.9-10.6-1.8-14.5 2.4l.1-2.1.5-5.6s-4.2-.1-5.4 5.9c-1.3 6.1 27.3 2.2 26.3-.9z"/><path class="st16" d="M939.2 256.3s6.4 2.3 11.5-.8"/><path class="st13" d="M897.4 249.2s19.1-7.8 26.1-9.1c0 0 4.9 4.4 5.6 11.6.8 7.2-1.7 10.5-1.7 10.5s-29.3 7.2-38.4 8.6c-9.1 1.3-15.6 1.1-19.4-8.7"/><path class="st16" d="M897.4 249.2s19.1-7.8 26.1-9.1c0 0 4.9 4.4 5.6 11.6.8 7.2-1.7 10.5-1.7 10.5s-29.3 7.2-38.4 8.6c-9.1 1.3-15.6 1.1-19.4-8.7m24-47.4c0-.2 9 25.3.4 38.4"/><path class="st20" d="M919.4 181.7c-.1 1.2-.2 4.3 1.9 5.1 1.3.5 2.6.1 2.2-3.6m4-.3s-.8 3 .6 3.5c2.5.9 3-3.5 2.3-4.7"/><path d="M907.7 175.1s.1 6.4 10.4 3.1c10.9-3.5 12.5.6 12.5.6s-1.2-9.7-4.6-8.7c-3.4 1-18.3 5-18.3 5z"/><path class="st16" d="M920.6 190.7s1.7 4.2 5.9 2.5"/><path class="st18" d="M984.7 207.9s10.2-3.1 13-10.7c0 0 6.1.3 6.9-5.2.8-5.5-.2-7.6-4.3-9.2 0 0-1.4-8.7-8.4-5.5 0 0 0-6-7.3-3.2 0 0 2-10.4-.5-14.7-2.4-4.3-6.9-2-10.4 14.7 0 0-11.5 2.8-11.5 12.5 0 9.8 8.1 15.1 11.3 17.3 3.2 2.1 11.2 4 11.2 4z"/><path class="st16" d="M972.4 187.5s11.8.5 10.4 7.8c-1.4 7.3-17 4.7-20.2-4.7m9.4-7.2c0-.5 2.3-15 5.1-21.6m3.6 21.9s.9 5.5 5.1 5.7c4.1.2 7.8-6.4 6.3-13.2m-3.1 14.1s2.9 6.3 8.7.8c5.8-5.5 1.8-11.2.6-13m-4.5 16.5s1.2 3.2 5.5 2.3c4.3-.9 5.8-2.4 5.7-8.9m-75.8 33.3s7.6 10.9 2.5 13.4c-5 2.5-10.5-.8-10.5-2.5"/><path class="st21" d="M932.4 242.1l-1-15 19-2.6-2.7 16.9s-9.2 6.3-12.5 5.8c-3.3-.5-2.8-5.1-2.8-5.1z"/><path class="st18" d="M952.7 247.6s2.5-3.4 1.5-6.4c-.9-3.1-5.8-4.6-5.8-4.6s-1.2 5.4-1.2 4.9c0-.4-9.3-1.7-13.7 1.7-.3.2-.7-1.3-.7-1.3l-.8-5.5s-5.5-.5-4.4 5.3c.5 2.7 1.9 5.3 7.5 6.1 6.7 1 17.6-.2 17.6-.2z"/><path class="st16" d="M950.3 225l-2.9 18.2m-4.9 6.4s6.9 3.8 10.2-2m-20.1-4.2l-1.2-16.3m-19-1.2s2.1 12.2-3.8 10.1c-5.9-2.1-7.1-8-7.1-8m49.4-9.8c.1-.6 2.6-6.7 7.3-12.9"/><path class="st14" d="M941 238.3c1.6 0 3-1.2 3-2.8 0-1.5-1.3-2.8-3-2.8s-3 1.2-3 2.8c.1 1.5 1.4 2.8 3 2.8z"/><path class="st22" d="M857.5 378.7c.8-.2 1.6.3 1.7 1.1.2 1.5.5 3.8.7 5.8.2 3.5 1.8 5.8 4.3 6.3s5.3.8 7.5 0c3.4-1.2 7.5-3.8 5.2 4.6-1.2 4.4-2.3 13.6-1.4 21 .7 5.7 4.9 10.9 4.3 13.6-.6 2.4-2.6 5.3-7.3 3.1-17.4-8.1-16.6-30.2-25.8-42.5-5.3-7.1-4.5-11-4.5-11s14.2-1.7 15.3-2z"/><path class="st16" d="M868.5 403.2s6.8 0 7.7 1.5m-7 4.3s4.3-1 6 .7"/><path class="st12" d="M954 424.8c-5.1 1.9-18.7 2.7-24.5 2.7-5.8 0-11.4-1.1-14.5-.6-3.1.5-5.7 1.9-11.6 1.7-5.9-.1-13.8-1.6-15-2.7-.9-.8 2.2-3.9 3.3-7 .4-1.3.7-2.3 1-3.1 1.1-2.8 32.1 1.9 38.6 2.2 6.6.4 24.3-.6 24.9-.6s1.2-.6 2 .2c.8 1 .9 5.3-4.2 7.2z"/><path class="st22" d="M898.7 401.3c.2-.5.8-.5 1.1-.1 1.1 1.9 3.6 5.4 7.6 6.1 5.5.9 15.6 1.8 16.2-6.9.6-8.7 2.3 2.6 7.7 6.6 6.8 5 9.9 6.3 16.7 7.3 6.8 1 13.3 3.1 9.4 6.4-1.6 1.4-4.1 3.5-17.7 2.6-13.6-.9-28.1-1.2-36.6-1.8-7.8-.6-11.5-2.3-11.5-2.5.4-1.7.5-2.5 1.7-4.8.8-1.6 1.5-3.2 2.2-4.6 1.6-3.6 2.7-6.6 3.2-8.3z"/><path class="st16" d="M931.3 407s-2.5 2.4-2.5 4.6m8.3-1.2s-2.4 1.4-3.5 4.3"/><path class="st15" d="M854.3 387.7s-2.5 8.5 1.8 8.5m45.1 12.4s5 7.8 8.9 6.4"/><path class="st23" d="M929.6 121.7l-5.8-3-10.1-.2-5.8 3.1-5.6 6.8 15.9 24.7 16.8-24.6-5.4-6.8z"/><path class="st24" d="M902.3 128.4c.8.5 7.9 5.6 7.9 5.6h17.5l7.3-5.4"/><path class="st24" d="M913.8 126.2l-3.6 7.7 8 19.2 9.5-19.2-3.6-7.6-10.3-.1z"/><path class="st24" d="M907.8 121.5l6 4.7 10.3.2 5.4-4.8"/><path class="st25" d="M720 542.9s14.6-9.4 2.7-14.6c-6.9-3-8.8 2.2-8.7 4.4.1 2.1.5-4.7-4.9-5-7.6-.4-6.3 6.7-6.3 6.7s-1-6.7-7.1-4.4c-5.6 2.1-4.7 12.1 3.1 15 8 2.7 21.2-2.1 21.2-2.1z"/><path class="st12" d="M709.4 547.2c1.3-.2 14.1-2.4 12.6-9.4-1.8-8.1-7.5-3.1-8.4-.9 0 0-.3-5.5-5.6-4.1-5.3 1.3-4.1 5.2-4.1 5.2s-2.7-6.7-6.8-2.5-.7 12.5 10.4 11.8c11-.8 1.9-.1 1.9-.1z"/><path class="st26" d="M706.7 551.1s-5.4-7-15.5-4.2c-10.2 2.9 6.6 10 15.5 4.2z"/><path class="st5" d="M705.7 550s-.1 0 0 0c-.1 0-.1 0 0 0-.1-.1-.2-.1-.3-.1-.2-.1-.4-.2-.8-.3-.7-.3-1.7-.6-2.9-.9-2.4-.6-5.7-1.1-9.4-.5l.2 1c3.5-.5 6.7-.1 9 .5 1.2.3 2.1.6 2.7.9.3.1.6.2.7.3.1 0 .1.1.2.1l.2-.5.4-.5zm-13.4-1.9c-.3 0-.5.3-.4.6 0 .3.3.5.6.4l-.2-1zm12.9 2.8c.3.1.6 0 .7-.2.1-.3 0-.6-.2-.7l-.5.9z"/><path class="st25" d="M720.3 543.4c-.7-2.7-4.2-4-6.1-1.9-.5.8-.5 1.7-.5 2.4.4-1.8-.3-3.8-1.7-5-1.4-1.2-2.7-2.1-4.4-.8-1.7 1.3-1.4 3.3-.8 5.2-.3-1.2-.7-2.6-1.7-3.3-1-.7-2.4-.9-3.4-.2-.6.4-.9 1.1-1.1 1.9-1.2 4.1 2.2 9.2 6.5 9.4 9.5.6 13.9-5 13.2-7.7z"/><path class="st23" d="M912 558s6.9 4.1 12.6 4.9c5.8.7 9.1-11.3 12.3-24.3 2.4-9.7 1.6-22.1-.4-24.2-.7-.7-2.9-2-3.8 0-3.2 7.9-3 13-6.7 17.7-1.3 1.6-2.9 2.9-4.8 3.7-.8.4 8.6-.7 7.3 2.4-2.7 6.7-16.5 19.8-16.5 19.8z"/><path class="st27" d="M725 526.3s-3.1.8-5.8 4c-1.8 2-3.5 5-4.1 9.4-1.7 11.1 15 12.7 20.7 6.5 5.7-6.3-3.8-2.5-2.3-10.8 0 0-6.9 18.1-1.3 17.2 5.6-.9 9.3-15.6 9.3-15.6l-4.7-18.7c-2.4-2.1-11.8 8-11.8 8z"/><path class="st28" d="M733.4 535.4s-6.9 18.1-1.3 17.2"/><path class="st23" d="M909.6 557.5s6.9 4.1 12.6 4.9 9.1-11.3 12.3-24.3c3.1-13 .7-30.6-2.7-22.4-3.2 7.9-4.4 11.2-8.1 15.9-1.3 1.6-2.9 2.9-4.8 3.7-2.5 1.2-6.5 2.8-10.1 3.8-6.1 1.7.8 18.4.8 18.4z"/><path class="st29" d="M909.6 557.5s6.9 4.1 12.6 4.9c5.8.7 9.1-11.3 12.3-24.3 3.1-13 .7-30.6-2.7-22.4-3.2 7.9-4.4 11.2-8.1 15.9-.9 1.1-2 1.8-3.2 2.5-1.6.9-2.8.9-3.6 1.9-.2.3.4 1.4 2.4 1.5 2.2.1 7.5-3.6 7 .2-1 7.2-16.7 19.8-16.7 19.8zm-73.3-23.9s-25.3 1-44-.7l-18.7-1.7-1.4-11.1s-17 5-15.2-5.7c.4-2.1 2.6-9.5 6.3-17l1-3.7-27.2 45-9.3-5.4-4.6-5.6s3.9-5 11.9-18.4c7.9-13.4 18.4-36.1 29.6-40.2 6.8-2.4 13.6-2.1 18-1.5 3.3.2 15.7.9 24.3 4.1 10 3.7 15.1 9.2 17.5 24.9 2.4 15.7 11.8 37 11.8 37z"/><path class="st30" d="M789.2 518.1s25.5-2.5 61.4 6.2 52.1 12.1 52.1 12.1l11.4.1-.8 25.8s-92.2-9.4-110.9-15.5c-18.7-6.2-40.2-25.6-13.2-28.7z"/><path class="st23" d="M822.8 539.8s18.8-.6 25.2.7c2.3.5 9.6 11.6 13.8 18.8 5 8.7 6.5 12.6 4.9 14.7-2.2 3-2.4-1.9-12.1-10.3-10.8-9.4-22.2-9.1-22.2-9.1l-21.4.4 11.8-15.2z"/><path class="st23" d="M835.9 554.8c-.5-.1-.6-.7-.2-1.1 4.6-4.1 12.7 3.2 11.2-2.4-1.2-4.4-7.5-10.7-7-11.6 4.1.1 10.6-1 12.8-.1 4.3 1.7 7.7 10.4 11.6 17.9 4.7 8.9 8.1 19.3 5.6 19.9-1 .3-1.9.7-2.9-.2-3.5-3.2-8.7-11.5-17.6-16.3-8-4.4-11.8-5.7-13.5-6.1z"/><path class="st29" d="M833.5 554.9c-.5-.1-.6-.7-.2-1.1 4.6-4.1 12.7 3.2 11.2-2.4-1.2-4.4-7.5-10.7-7-11.6 4.1.1 10.6-1 12.8-.1 4.3 1.7 7.7 10.4 11.6 17.9 4.7 8.9 8.2 20.4 5.6 19.9-3.1-.5-9-10.3-20.5-16.5-8.1-4.4-11.8-5.7-13.5-6.1z"/><path class="st31" d="M773.9 435.1s-9.8-5.6-14.4 6.1c-4.7 11.8-3.1 23.9 2.2 26.8 5.3 2.9 11.4 8.7 20.9 8.8 9.5.1.3 18 20.2 22.5 20 4.6 29.7 0 42.6-7.8 7.6-4.6 12.2-9.6 14.7-13 .9-1.2-.3-2.8-1.7-2.3-5 1.8-13.3 4.3-19.1 3.1-16.2-3.3-14.3-7.9-21.1-25.7-4.9-12.6-24.1-22.4-32.2-23.1-10.5-.7-12.1 4.6-12.1 4.6z"/><path class="st28" d="M764.3 493.6s-14.8 28.7-25.3 36.2m-17.5 11.7c-.3 2-.2 4.3.6 6.2"/><path class="st30" d="M770.5 516s-20-3.1-29.4 4.9c-9.4 8.1-20.7 20.6-19.3 31.2 1.4 10.6 11.2 17.8 37.5 10.6 26.3-7.2 56-6.2 64.2-3.7l1.7-18.9-.3-15.9-54.4-8.2z"/><path class="st27" d="M773.8 530.7s-12.9 14.8-27.2.8c-14.3-14 5.8-17.1 5.8-17.1l20.9 5.6.5 10.7z"/><path class="st28" d="M813.5 471.5s15.7 24.6 47.7 17.1"/><path class="st29" d="M835.8 531.2c.3 1.2-.6 2.4-1.9 2.5-6.8.2-26.3.6-41.6-.8l-18.7-1.7-1.4-11.1s3.6-.3 8.5-.6c0 0 22.7-2.7 19.4-9.2-4.5-8.7-34.4-18.7-43.6-27.7-5.5-5.4 5.5-12.3 8.3-13.4 6.8-2.4 13.6-2.1 18-1.5 3.3.2 15.7.9 24.3 4.1 10 3.6 18.2 5.7 20.7 21.4 1.8 12.6 6.3 31.4 8 38z"/><path class="st28" d="M745.1 542.4s36.2-8.4 59.3-5.9"/><path class="st27" d="M776.6 466.7c7.7 1.6 15.1-3.4 16.7-11 1.6-7.7-3.4-15.1-11-16.7-7.7-1.6-15.1 3.4-16.7 11-1.6 7.6 3.3 15.1 11 16.7z"/><path class="st29" d="M759.2 512.1s11.1 8.9 19.2 9.9 22.1-4.4 22.1-4.4l-13.6-8.1-27.7 2.6z"/><path class="st31" d="M801.5 455.8s-11.1-1.4-18.8-5.7c-7.8-4.3-11.5-8.3-8.7-15 2.7-6.7 15.2 1.3 19.3 5.8 4 4.5 8.2 14.9 8.2 14.9z"/><path class="st28" d="M801.5 455.8s-11.1-1.4-18.8-5.7c-7.8-4.3-11.5-8.3-8.7-15M821.6 543l-1.8 13.2m-44-105.4s-.6 2.8 1.1 3.5c1.7.6 2.5-2.1 2.6-2.6m-12-.7s-1.2 3.2.2 3.8 2.5-1.9 2.8-3.4m-1.6 9.7s2 1.8 4.9 2.1c3.7.4 7.8-1.4 9.1-7.6m-9.3 75.5l-1.4-11.1s38.5-2.2 42.3-2.5c0 0-18.4-23.3-18.6-31"/><path class="st23" d="M751.9 511.4s-27.8 14.2-26.6 14.5c1.2.2 34 16.5 34 16.5l11.2-26.1-18.6-4.9z"/><path class="st23" d="M751.9 511.4s-27.8 14.2-26.6 14.5c1.2.2 34 16.5 34 16.5l11.2-26.1"/><path class="st32" d="M751.9 511.4s-27.8 14.2-26.6 14.5c1.2.2 34 16.5 34 16.5l11.2-26.1"/><path class="st28" d="M735.9 524.7l21.8 9.4M741.1 521l18.9 7.9m-14.8-11l17 6.6m3.5-34.2s-4.4 8.7-1.1 12c3.3 3.3 10.2-1.2 11.5-4.6m7.4-.5s-.3 7.9 4.7 6.3c5-1.6 8.3-6.6 8.3-6.6"/><path class="st33" d="M795.1 476.7c.5 2 2.3 1.8 3.6 1.3 1.3-.5 1.7-2.2.7-3.2-.3-.3-.7-.6-1.3-.8-2.8-1.1-3 2.7-3 2.7zm1.2 29c1.3 1.6 2.8.6 3.8-.4s.6-2.7-.7-3.2c-.4-.1-.9-.2-1.5-.2-3.1.2-1.6 3.8-1.6 3.8zm-21.1 9.7c1.3 1.6 2.9.6 3.8-.4 1-1 .6-2.7-.7-3.2-.4-.1-.9-.2-1.5-.2-3 .3-1.6 3.8-1.6 3.8zm23.6 10.2c1.3 1.6 2.8.6 3.8-.4s.6-2.7-.7-3.2c-.4-.1-.9-.2-1.5-.2-3 .3-1.6 3.8-1.6 3.8zm19.9-28.5c-1.1 1.8.4 2.9 1.6 3.4 1.3.6 2.8-.3 2.8-1.8 0-.4-.1-.9-.3-1.5-1.2-2.7-4.1-.1-4.1-.1zm-3.2-13c.5 2 2.3 1.8 3.6 1.3 1.3-.5 1.7-2.2.7-3.2-.3-.3-.7-.6-1.3-.8-2.8-1.2-3 2.7-3 2.7zm-66.1 17.4c.5 2 2.3 1.8 3.6 1.3 1.3-.5 1.7-2.2.7-3.2-.3-.3-.7-.6-1.3-.8-2.8-1.1-3 2.7-3 2.7zm20.7-19.6c.5 2 2.3 1.8 3.6 1.3 1.3-.5 1.7-2.2.7-3.2-.3-.3-.7-.6-1.3-.8-2.7-1.1-3 2.7-3 2.7zm15.7 1.8c-.9.8-1.9 2.1-.1 2.9 1.8.9 2.8-.8 2.6-1.9-.1-1.1-1.5-1.8-2.5-1zm-28 1.8c-.9.8-1.9 2.1-.1 2.9 1.8.9 2.8-.8 2.6-1.9-.2-1.1-1.6-1.8-2.5-1zm55.5 3.6c-.9.8-1.9 2.1-.1 2.9 1.8.9 2.8-.8 2.6-1.9-.1-1.1-1.5-1.8-2.5-1z"/><path class="st31" d="M810.7 475.4c-.9.8-1.9 2.1-.1 2.9 1.8.9 2.8-.8 2.6-1.9-.2-1.1-1.6-1.8-2.5-1zm10.3 30.7c-.9.8-1.9 2.1-.1 2.9 1.8.9 2.8-.8 2.6-1.9-.2-1.1-1.6-1.8-2.5-1zm-77.1-10.2c-1 .8-1.9 2.1-.1 2.9 1.8.9 2.8-.8 2.6-1.9-.2-1.1-1.6-1.8-2.5-1zm64 24.4c-.9.8-1.9 2.1-.1 2.9s2.8-.8 2.6-1.9c-.2-1.1-1.6-1.7-2.5-1zm-6.2-10.1c-1 .8-1.9 2.1-.1 2.9 1.8.9 2.8-.8 2.6-1.9-.2-1.1-1.6-1.8-2.5-1zm-29.9-3.9c-.9.8-1.9 2.1-.1 2.9 1.8.9 2.8-.8 2.6-1.9-.1-1.1-1.5-1.8-2.5-1zm51.9-17c-.9.8-1.9 2.1-.1 2.9 1.8.9 2.8-.8 2.6-1.9-.1-1.1-1.5-1.8-2.5-1zm-40.1 19.2c-.9.8-1.9 2.1-.1 2.9 1.8.9 2.8-.8 2.6-1.9-.2-1.1-1.6-1.8-2.5-1zm42.2-8.2c-.9.8-1.9 2.1-.1 2.9 1.8.9 2.8-.8 2.6-1.9-.1-1.1-1.5-1.8-2.5-1zm-34.2-17.7c-.9.8-1.9 2.1-.1 2.9 1.8.9 2.8-.8 2.6-1.9-.1-1.1-1.6-1.7-2.5-1zm17.8 17.5c-.9.8-1.9 2.1-.1 2.9 1.8.9 2.8-.8 2.6-1.9-.1-1.1-1.6-1.7-2.5-1zm-48.4 9.6c-.9.8-1.9 2.1-.1 2.9 1.8.9 2.8-.8 2.6-1.9-.2-1.1-1.6-1.7-2.5-1zm16.6 16.1c-.9.8-1.9 2.1-.1 2.9 1.8.9 2.8-.8 2.6-1.9-.1-1.1-1.5-1.8-2.5-1zm8.9-29.8c-.9.8-1.9 2.1-.1 2.9 1.8.9 2.8-.8 2.6-1.9-.2-1.1-1.6-1.8-2.5-1zm1.4-22.9c-.9.8-1.9 2.1-.1 2.9 1.8.9 2.8-.8 2.6-1.9-.1-1.1-1.5-1.8-2.5-1zm-19.1 13.7c-.9.8-1.9 2.1-.1 2.9 1.8.9 2.8-.8 2.6-1.9-.2-1.1-1.6-1.8-2.5-1zm-8.6 4.5c-.9.8-1.9 2.1-.1 2.9 1.8.9 2.8-.8 2.6-1.9-.1-1.1-1.5-1.8-2.5-1zm-13 16.5c-1 .8-1.9 2.1-.1 2.9 1.8.9 2.8-.8 2.6-1.9-.2-1.1-1.6-1.8-2.5-1z"/><path class="st33" d="M804 492.2c-.9.8-1.9 2.1-.1 2.9 1.8.9 2.8-.8 2.6-1.9-.2-1.1-1.6-1.8-2.5-1zm9.7 16.5c-.9.8-1.9 2.1-.1 2.9 1.8.9 2.8-.8 2.6-1.9-.1-1.1-1.6-1.8-2.5-1zm-21.5-.4c-.9.8-1.9 2.1-.1 2.9 1.8.9 2.8-.8 2.6-1.9-.1-1.1-1.5-1.8-2.5-1zM778 474.4c-1.2.9-1.2 1.6 0 2.4 1.2.8 2.2.5 2.3-.7 0-1.2-.6-3-2.3-1.7zm-12.9-2.1c-1.2.9-1.2 1.6 0 2.4 1.2.8 2.2.5 2.3-.7 0-1.1-.6-3-2.3-1.7zm-24.4 32.4c-1.2.9-1.2 1.6 0 2.4 1.2.8 2.2.5 2.3-.7 0-1.1-.6-3-2.3-1.7zm38.4-5.9c-1.2.9-1.2 1.6 0 2.4 1.2.8 2.2.5 2.3-.7 0-1.1-.6-3-2.3-1.7zm-13.7-16.9c-1.4-.4-2 0-2 1.4 0 1.5 1 2.1 1.9 1.4 1-.6 2.1-2.2.1-2.8zm.8 23.8c-1.2.9-1.2 1.6 0 2.4 1.2.8 2.2.5 2.3-.7 0-1.1-.6-3-2.3-1.7zm59.1 7c-1.2.9-1.2 1.6 0 2.4 1.2.8 2.2.5 2.3-.7.1-1.1-.5-3-2.3-1.7zM808.4 528c-1.4-.5-2-.2-2.1 1.3-.1 1.5.8 2.2 1.8 1.6 1-.6 2.3-2.1.3-2.9zm-22.2-5.8c-1.4-.5-2-.2-2.1 1.3-.1 1.5.8 2.2 1.8 1.6 1.1-.6 2.4-2.1.3-2.9zm30.3 1.9c-1.2.9-1.2 1.6 0 2.4 1.2.8 2.2.5 2.3-.7.1-1.1-.5-3-2.3-1.7zm10.7 1c-1.2.9-1.2 1.6 0 2.4 1.2.8 2.2.5 2.3-.7.1-1.1-.5-3-2.3-1.7zm-22.7-51.9c-1.2.9-1.2 1.6 0 2.4 1.2.8 2.2.5 2.3-.7 0-1.1-.6-3-2.3-1.7zm-34.8 20.1c-1.2.9-1.2 1.6 0 2.4 1.2.8 2.2.5 2.3-.7.1-1.1-.5-3-2.3-1.7z"/><path class="st31" d="M804.4 480s1.8-1.3 3.2.1 1 4.6-.8 4.2c-1.6-.3-4.4-.4-2.4-4.3zm-66 31.7s1.8 1.3 1 3-4 2.4-4.2.7c-.2-1.7-1-4.2 3.2-3.7zm11.8-24.4s1.8-1.3 3.2.1c1.4 1.3 1 4.6-.7 4.2-1.8-.4-4.5-.5-2.5-4.3zm70.7 31.1s1.8-1.3 3.2.1c1.4 1.3 1 4.6-.8 4.2-1.6-.4-4.3-.5-2.4-4.3zm-28.4 8.4s1.8-1.3 3.2.1 1 4.6-.8 4.2c-1.7-.4-4.4-.5-2.4-4.3zm-14.4-38.1s1.3-.9 2.3 0c1 1 .7 3.3-.5 3s-3.2-.2-1.8-3zm-20.2-11.4s1.3-.9 2.3 0c1 1 .7 3.3-.5 3-1.3-.2-3.3-.2-1.8-3z"/><path class="st34" d="M750.2 514.9l2.1-1.3c.4-.2.9-.3 1.3-.1l10.7 4c.4.1.5.5.4.9l-.9 2.2c-.1.3-.5.5-.9.4l-12.6-4.9c-.5-.2-.6-.9-.1-1.2z"/><path class="st27" d="M770.7 519.4s-3.2-2.7-7.6-7c-4.6-4.5-6.6-4.7-8.1 0-2.2 7 11.9 17.3 13.3 15.7l2.4-8.7z"/><path class="st28" d="M755 512.4c-1.9 6 8.1 14.4 12 15.7m124.9 8.6l22.1-.2"/><path class="st23" d="M762.5 393l4.9-2.9 8.7-.6 5.2 2.4 5.1 5.7-12.6 22-15.6-20.5 4.3-6.1z"/><path class="st24" d="M786.3 397.5c-.7.5-6.6 5.1-6.6 5.1l-15.1.8-6.5-4.4"/><path class="st24" d="M776.2 396.2l3.5 6.5-6 16.9-9.1-16.1 2.8-6.7 8.8-.6zm5-4.3l-5 4.3-8.9.6-4.9-3.9"/><path class="st1" d="M347.1 409.9c2.7 0 4.9-2.2 4.9-4.9s-2.2-4.9-4.9-4.9-4.9 2.2-4.9 4.9 2.2 4.9 4.9 4.9zm630.6-15.5c2.7 0 4.9-2.2 4.9-4.9s-2.2-4.9-4.9-4.9-4.9 2.2-4.9 4.9 2.2 4.9 4.9 4.9zm373.1-224.9c5 0 9-4 9-9s-4-9-9-9-9 4-9 9 4 9 9 9zm-599-91c6.1 0 11-4.9 11-11s-4.9-11-11-11-11 4.9-11 11 4.9 11 11 11z"/><path class="st35" d="M790.8 357.7a5.4 5.4 0 0 0 6.9 3.1c2.8-1.1 4.2-4.2 3.1-6.9a5.4 5.4 0 0 0-6.9-3.1c-2.8 1-4.2 4.1-3.1 6.9z"/><path class="st4" d="M710.7 331c5.8 2.1 12.2-.8 14.3-6.5 2.1-5.8-.8-12.2-6.5-14.3-5.8-2.1-12.2.8-14.3 6.5-2.2 5.8.7 12.2 6.5 14.3z"/><path class="st35" d="M439.5 532a5.4 5.4 0 0 0 6.9 3.1 5.4 5.4 0 0 0 3.1-6.9 5.4 5.4 0 0 0-6.9-3.1c-2.7 1.1-4.1 4.2-3.1 6.9zm155.1-163.8c.9 2.2 3.4 3.3 5.6 2.5 2.2-.9 3.3-3.4 2.5-5.6-.9-2.2-3.4-3.3-5.6-2.5s-3.3 3.3-2.5 5.6z"/><path class="st36" d="M665.8 506.7c4.6 1.3 8.4 17.6 8.2 30.3-.1 7.7-5.4 14.3-12.8 16.2l-7.8 2 12.4-48.5z"/><path class="st37" d="M665.8 506.7s6.2 20.5.6 31.7c-4.2 8.5-9.6 13.8-11.9 15.8-.7.6-1.2 1-1.2 1l-8.1-4.3s-3.9-64.7 9.2-50.9c5.3 5.4 8.5 8.1 11.4 6.7z"/><path class="st14" d="M508.7 570.6s4.2.9 1.1 1.5-10.9.2-8.7-7c2.2-7.2 14.1-42.4 17.4-48.3 3.3-5.8 6.5-7.7 8.8-7.9 2.2-.2 4.4 4.8 4.5 6.7.2 1.9-23.1 55-23.1 55z"/><path class="st38" d="M536.7 570.1s-9.3 3.6-20.1 3.1-12.7-2.4-11.7-8.6c1-6.2 9.1-32.8 14.1-42.2 5-9.3 7.4-11.8 10.5-10.4 3.1 1.4 3.1 7.1 1.2 14.6-1.9 7.4-4 9.7-2.7 20.7 1.4 11 8.7 22.8 8.7 22.8z"/><path class="st16" d="M504.8 568.4c-.2-1.1-.1-2.3.1-3.9 1-6.2 9.1-32.8 14.1-42.2 1.9-3.5 3.4-6.1 4.7-7.8"/><path class="st39" d="M565.1 521.5s-10.1 3.2-17 6.8c-3.3 1.7-1.4 9.3 3 9.3s17.8-12 17.8-12l-3.8-4.1z"/><path class="st16" d="M518.5 536.7s1 1.5 5.2 2.2c2.4.4 3.5-.1 4-.6m9.9 28.1s-10.9 5.4-25.8 6.3c0 0-7.1-.5-7-4.3"/><path class="st22" d="M602.9 528.7s-39.9 8.4-47.4 8.9c-6.8.5-24.2.1-27.4 0-.3 0-.6.2-.6.5-.5 2.4-2.6 12.5.1 20.6 3.1 9.3 10.3 18.4 18.6 17.9 8.2-.5 24.2-10.8 33.6-12.4 9.4-1.5 43.9-6.7 55-8.8 11.1-2.1 21.3-13.3 23.2-22.8 1.9-9.5 2.6-11-1.3-10.2l-53.8 6.3z"/><path class="st39" d="M625.7 476.4c5 0 9-4 9-9s-4-9-9-9-9 4-9 9 4 9 9 9z"/><path class="st5" d="M615.1 462.5l12.1 3.4s3.1-3.1 5.2-1.7c2.1 1.4 1.8 3.7 0 5.8-1.8 2.1.3 3.9 3.3 3.6 3.1-.3 6.7 1 9.3 8 2.6 7 24.5 25.2 40.7 19.8 16.2-5.4 13.7-27.5 8.5-34.2-5.2-6.7-16.8-2.1-21.9 1-5.2 3.1-11.1 1.5-17.5-5.7s-14.4-10.1-21.6-10c-6.5 0-9.3 4.9-9.3 4.9s-6.7-1.8-8.8 5.1z"/><path class="st14" d="M608.1 503c.1.2 11.7-20.3 23.3-21.7 11.7-1.4 26.8 29 25.2 41.3 0 0-2.3 4.1-7.3 4.8-5 .7-6.4.7-6.4.7s-34.3 1.2-44.2-10.2c-9.9-11.4-12-15.3-12-15.3s9.2-8.5 9.6-13.5c0-.2 8.1 5 11.8 13.9z"/><path class="st25" d="M597.2 502.1s-4.6-3.1-.9-4.3c3.7-1.2 4.9 3.1 4.3 4.6-.6 1.5.6-7.1 2.8-4.6 2.2 2.5 3.1 6.2.9 6.2s-2.9-.1-2.9-.1 4.7 3.2 1.9 4.4c-2.8 1.2-6.5-2.8-5.5-3.7.9-.9-3.7 3.6-4.5.5-.8-3.4 1.4-5.2 3.9-3z"/><path class="st22" d="M623.7 531.5c-2.2-10-22.6-24.8-30.4-22.3-7.8 2.5-36.9 28.7-36.9 28.7s33.3 12.8 33.3 13.3c.2.5 34-19.7 34-19.7z"/><path class="st39" d="M585.6 515.2s-5.4-2.6-8.8-1.4c-12 4.3-15.9 8.8-20.7 13.9-4.7 5.1-10 6-10 12 0 2.5 4.4 3.5 10.6 0 5.2-3 9.9-7 9.9-7s-1.7 2.8.9 4.9c2.6 2.1 13.4-5.9 16.4-13.4 3-7.4 1.7-9 1.7-9z"/><path class="st16" d="M561 523c-8 6-14.8 13.1-14.8 16.7"/><path class="st39" d="M595.8 491.1c0-.2-3.2-6.1-6.8-9.8-3.6-3.8-8-3.8-10.2-3.3-2.3.5-6 5-6 5s-6.3 1.2-5.2 6.2c1.2 5 6.1 2.8 6.1 2.8s-4.8 2.1-3.1 5.5c1.7 3.5 5.8 1.5 5.8 1.5s-4.5 2.3-2.7 5.6c1.8 3.3 8.6 1 10-2.2 0 0 1.2 2 3.1.1 1.9-1.9 9.4-5.6 9-11.4z"/><path class="st3" d="M572.7 483s-6.3 1.2-5.2 6.2c1.2 5 6.1 2.8 6.1 2.8s-4.8 2.1-3.1 5.5c1.7 3.5 5.8 1.5 5.8 1.5s-4.5 2.3-2.7 5.6c1.8 3.3 8.6 1 10-2.2"/><path class="st16" d="M522.1 528s6 3.7 9.7 3.4"/><path class="st19" d="M523.9 559.6c.5-2.1-.4-4.2-2.1-4.6-1.6-.4-3.4 1-3.9 3.1s.4 4.2 2.1 4.6c1.6.4 3.4-1 3.9-3.1z"/><path class="st40" d="M619.4 466.4s-1.9 2.3-.3 3.1c1.7.8 3.1-2.1 3.1-2.1"/><path class="st3" d="M534.6 560s29.4-9.6 54.3-16.2"/><path class="st25" d="M650.3 509.3s-6-5.1-3.2-7c2.9-1.9 5.7 3.2 5.7 5.1 0 1.9 2.2 1.6 2.2 4.5s-1.9 1.6-1.9 1.6 3.8 2.9.3 4.8-7-2.5-5.4-4.8c1.6-2.2-7.6-.6-6-3.2 1.6-2.6 3.5-3.9 8.3-1z"/><path class="st14" d="M639.1 492.6s9.1 7 6.5 26.3c-2.5 19.3-4.5 19.2-5.9 19.7-1.4.4-39.6 7.8-60.9-5.8 0 0 4.2-6.6 5.2-12.9l.9-6.3s9.6-.1 15.5 1c6.7 1.2 17.8 4.2 17.8 4.2s-.9-6.3 1.1-17.9c2-11.7 8.5-14.1 8.5-14.1"/><path class="st16" d="M639.1 492.6s9.1 7 6.5 26.3c-2.5 19.3-4.5 19.2-5.9 19.7m-54.9-24.9s9.6-.1 15.5 1c6.7 1.2 17.8 4.2 17.8 4.2s-.9-6.3 1.1-17.9c2-11.7 8.5-14.1 8.5-14.1"/><path class="st5" d="M589.4 498.1l-7.7 7.2-10.7-24.2c-.6-1.5-.2-3.2 1-4.3l7.6-6.5 5.6 15.6 4.2 12.2z"/><path class="st38" d="M588.5 495.3l-6.4 6-8.8-20.2c-.5-1.2-.2-2.7.8-3.5l6.3-5.4 4.6 12.9 3.5 10.2z"/><path class="st39" d="M588.5 485.1c-1.1-.2-3 0-5.7.5-2.6.5-3.9 3.1-2.7 6.4 1.2 3.4 5 2.8 7.9 1.9"/><path class="st3" d="M588.5 485.1c-1.1-.2-3 0-5.7.5-2.6.5-3.9 3.1-2.7 6.4 1.2 3.4 5 2.8 7.9 1.9"/><path class="st16" d="M573.6 524.4s-5.5 4-7 8.4"/><path class="st3" d="M576.9 481.2l6.4-5.4m-4.9 9.2l6.4-5.4m-9.2 11.5l-1.9.9m5 5.8l-2.4 1.3m76.2 34.8l3.4 5.2s2-3.2 2-6.4"/><path class="st25" d="M629.3 501c-.8-3.1-1.3-5.1-4.1-4.1-2.9 1-.6 6.7-.6 6.7-2.1-1.8-2.6-2.4-4.3.1-1.7 2.5 4.1 3 4.1 3-2.2 1.3-3.1 4.5.4 6.5 3.5 1.9 3.2-6.4 3.2-6.4s1.1 4.7 3 4.1c1.9-.6 1.2-4.2-1-6.4 0 0 5.6-.4 4.1-3.5-1.6-3.2-3.8-2.6-4.8 0zm-19.4 29.2s-5.4-4.9-.7-6.1c4.7-1.2 4.9 1.2 4.2 3.7 0 0 2.8-3.3 4.4 0 1.6 3.3.7 7.2-1.4 6.1-2.1-1.2-3-3-3-3s3.3 6.1 0 5.6-4.4-2.8-3.3-3.7c1.2-.9-5.8 2.3-5.4-.7.5-3.1 2.2-3.8 5.2-1.9zm33.1-1.1c1.6-.7 1-4.1-1.1-5.3-2.1-1.2-3.1 4.8-2.4 1.5.7-3.3-2.8-4.4-5.8-2.3s1.9 4.4 1.9 4.4c-4.2-.5-5.4-.1-3.8 2.2 1.6 2.3 5.4.1 5.4.1s-2.4-.1-2.8 2.9c-.5 3 3.7 3.7 4.4 1.1v-3.1s.7 3.6 2.4 2.3c3.9-3-.4-3.9-.4-3.9l2.2.1zm-27.1-27.5s-5.9-1.2-4.7 1.4c1.2 2.6 3.3 2 3.3 2s-3.9 1.2-2.4 2.6c1.6 1.4 2.6 1.4 3.5-.2 1-1.6 1.6-5.9 1.6-5.9s2.4-3.9 1.2-4.7c-1.1-.9-3.3-.1-2.5 4.8zm21.9-16.7s-2.3-2.5-3.2.4c-.9 2.8.7 3.7 2 2.5 0 0 1.2 2.8 2.8 1.2s-.2-2.5-.2-2.5 1.8-.7.2-2c-1.6-1.2-1.6.4-1.6.4zm-55.2 39.9s-1.4 5.1 2.3 4.3c3.7-.8 2.5-5.1.8-5.5-1.6-.4 4.5 3.7 4.5-.2 0-3.9-1-5.1-2.9-4.1-1.8 1 .4-1.2-1.6-1.8-2.1-.6-1-.7-1.7 2.5-.8 3.2-1.4 4.8-1.4 4.8z"/><path class="st36" d="M653.4 555.1s-6.2 1.2-7.2 4.5l4.9 2.3 2.3-6.8z"/><path class="st41" d="M666.2 506.7s5.7-2.4 5.7-2.3c-1 2.2-.9 4.3-.9 4.3l-4.8-2z"/><path class="st23" d="M630.5 414.1l-5.1-2.4-8.8.2-4.9 2.9-4.5 6.1 14.7 20.8 13.6-21.9-5-5.7z"/><path class="st24" d="M607.2 420.9c.7.4 7.1 4.5 7.1 4.5l15.1-.6 6.1-5"/><path class="st24" d="M617.1 418.5l-2.8 6.8 7.6 16.3 7.5-16.9-3.4-6.4-8.9.2z"/><path class="st24" d="M611.8 414.8l5.4 3.8 8.9-.2 4.5-4.3"/><path class="st12" d="M211.3 412.7s11.7-5.9 13.7-15.3c2-9.5 3.9-21.9-5.5-24.5-4.2-1.2-8.3 2-8.3 2l-7.7 8.9s-3.1-7.9-7.4-7.1c-4.3.8-3.2 4.1-1.3 8 1.9 3.9 6.8 14.5 4.7 19.7-2.1 5.1 11.8 8.3 11.8 8.3z"/><path class="st12" d="M211.3 412.7s11.7-5.9 13.7-15.3c2-9.5 3.9-21.9-5.5-24.5"/><path class="st42" d="M211.3 412.7s11.7-5.9 13.7-15.3c2-9.5 3.9-21.9-5.5-24.5"/><path class="st43" d="M244.3 449c-2.6 3.8-8.3 12.8-10.8 14 0 0-17.2-11.2-23.9-16.3-3.2-2.4-9.6-7.6-15.5-12.4-4.6 5.8-9.5 12.1-9.5 12.1 1.4 7.3 1.2 15.3 0 22-1.2 6.7-1.6 8.9-1.6 8.9s-16.1-5.3-24-5.3c-7.9 0-22.5 1.6-22.5 1.6s-17.8-51.3 6.7-74.8c16.1-15.4 31.2-3.3 42.7 3.1 1.9 1 4.3 2.6 7.1 4.5l4.7-7.6s1.3 1.5 3.8 3.1 12.7 10.4 12.7 10.4c-.6 1.2-2.8 3.3-5.4 5.8 11.2 8.5 22.4 17 25.6 18.2 5.7 2 10.5 3.9 12.1 5.9s.3 3-2.2 6.8z"/><path class="st12" d="M354.2 542.6c-.4-.5 7.6-18.4 8.7-21 .1-.2.3-.3.4-.1 2.1 2.9 7.2 4.7 12 3.1.2-.1.4-.1.6 0 2.1.9 13.9 5.4 16.7-1.6.1-.1 0-.3-.1-.4l-1.3-1c-2.5-1.8-5.1-3.4-7.8-4.8l-9.9-5-.1-.1c-.3-.5-3.2-4.5-9.2-4.4h-.2c-1.4-.4-14.5-3.6-17.2 7.4-2.4 9.7-4.9 15.5-5.6 17.1-.1.3-.4.5-.7.5-2.8.4-17.1 2.1-25.5 1.4-9.3-.8-21.5-4.7-28.6-1.5-7.1 3.3-10.4 7.6-11.5 16-1 7.8 2.9 11.5 7.6 10.8.5-.1 1 .3 1 .9 0 2.7.6 9.3 7.6 10.7 7.5 1.5 14-1.9 15.9-3.1.3-.2.8-.2 1 .1 1.9 1.6 8.9 7.1 17.1 3.5.2-.1.5-.1.7 0 1.5.7 7.8 3 12.1-3.9.3-.5 1.1-.5 1.4-.1 2.3 3 9.1 11.5 13 14 4.1 2.7 14.4 10.3 17 12.2.3.2.4.7.3 1-.3.8-.5 2.2 1.2 2.5 2.4.4 13.5 2 15.3-1.8 1.8-3.8-5.3-4-9.8-6.7-4.4-2.7-16.9-18-18.9-22.6l-1.7-3.9c-.2-.4 0-.9.4-1.1 2.1-1 7.4-5.7-1.9-18.1z"/><path class="st13" d="M393.8 522.4c1.8-1 2.8-2.8 2.1-3.9-.6-1.1-2.6-1.2-4.4-.1-1.8 1-2.8 2.8-2.1 3.9.6 1.1 2.6 1.2 4.4.1z"/><path d="M262.1 465.9c.6.8 70.1 59.6 76.2 62.9.2.1.4.1.6 0 1.4-.8 1.5-2.8 0-3.6l-75.3-64-1.5 4.7z"/><path class="st13" d="M344.5 568.7c.1.2.1.4 0 .6-1 2.2-7.7 16.3-8.1 18.6-.4 2.2 3.3 5.7 4 6.3.1.1.1.1.2.1.8.3 4.9 1.8 3.9 4.8-1.1 3.3-7.9 4.1-10.6 2.1-2.4-1.8-3.6-6.6-3.8-7.4 0-.1-.1-.2-.1-.2-.5-.7-3.6-5.1-2.6-8.3 1.1-3.4 7.7-16.7 8.4-18 0-.1.1-.1.1-.2l4.2-3.9c.3-.3.7-.2.9.1l3.5 5.4zm-31.2-1.2c.3.3.1.8-.3 1-2.4.9-9.6 3.4-13 7.4-3.3 3.9-5.6 7.8-6.2 9-.1.2-.1.5.1.7l7.1 8.8c.1.1.2.2.4.2 1 .2 4.9 1 5.3 3.1.4 2.4-3.3 3.3-7.1 3.1-3.8-.2-4.4-1.6-6-4.4-1.6-2.9-7.1-9.7-8.7-11.1-1.6-1.3.4-5.8 3.3-10.2 2.4-3.7 3.6-9.9 3.9-11.7.1-.3.3-.5.7-.5l17.8 1.8c.2 0 .3.1.4.2l2.3 2.6z"/><path class="st13" d="M278.4 552.2c-.3-.1-.7.1-.8.5-.5 2.5-1.4 11.4-5.4 16.2-4.6 5.6-7 7.8-7.5 10.2-.4 2.4 5.8 10.7 6.5 14.4.8 3.8.8 7.2 5.2 8.5 4.4 1.3 11.8 2.2 11.1-1.4-.7-3.6-2.2-3.8-5.5-6s-4.4-3.3-5.9-7.8c-1.2-3.6-1.4-6.7-1.4-7.7 0-.2.1-.4.3-.5 2.3-1.6 19-13.3 21.4-13.1 2.5.2-9.1-10-10.3-11-.1-.1-.1-.1-.2-.1l-7.5-2.2z"/><path class="st12" d="M238 453s-3.2 14.8 1.6 16.5c4.7 1.6 7.9.8 7.7-5.1 0 0-1 7.9 4.7 9.1 5.7 1.2 5.8-7.7 5.8-7.7s-3.3 8.1 4.2 8.7c7.5.5 4.3-9.6 4.3-9.6s.8 4.8 8 4.6c7.2-.1 3.1-6.3-1.4-9.2-4.5-3-9.9-8.5-14.7-10.4-4.7-1.9-16.3-5.6-16.3-5.6L238 453z"/><path class="st3" d="M246.5 459.3c0 .2.8 3.2.6 7.9m10.5-5.9c.7 1.6.8 4.1-.8 9.3"/><path class="st12" d="M217.2 391.4s-4.2-13.1.3-17.7c0 0 1.8-1.8 4.3-.1"/><path class="st16" d="M217.2 391.4s-4.2-13.1.3-17.7c0 0 1.8-1.8 4.3-.1"/><path class="st38" d="M213 397.4l8.3-32.3-14 1.5-4.2 23.7 9.9 7.1z"/><path class="st38" d="M203 390.4l9.9 7.1 8.3-32.3-14 1.5"/><path class="st44" d="M203 390.4l9.9 7.1 8.3-32.3-14 1.5"/><path class="st12" d="M217.2 391.4s-4.2-13.1.3-17.7c0 0 1.8-1.8 4.3-.1"/><path class="st16" d="M217.2 391.4s-4.2-13.1.3-17.7c0 0 1.8-1.8 4.3-.1"/><path d="M160.4 561.2s-2.3 11.1-1.4 16c.9 4.9 4.7 9.8 4.7 9.8l11.8-2.3c.4-.1.7-.4.7-.8 0-3 3.4-4.8 5.9-3.1 2.3 1.5 4.8 2.7 7.2 2.7 5.7 0 19.1-1.6 25-2.4 5.9-.8 4.6-12.5-2.2-12.2-6.8.3-16.1.5-20.1-2.2s-7.3-14.4-7.3-14.4l-24.3 8.9zm-17.9-32.9s-8.4 2.6-9.7 4.5c-1.3 1.9 3.7 9.5 3.7 9.5 2.7-1.2 5.5 1.2 4.8 4-.5 2.1-1.3 4.5-2.5 7.2-3.8 8.8-2.7 15.3-2.3 21.5.4 6.2 7.3 10.3 11.2 0 3.9-10.3 8.6-31.6 8.6-31.6l-13.8-15.1z"/><path class="st39" d="M173.5 547.9s11.9-15 18.4-23.3c6.5-8.3 8.7-19.8 3-27.7-5.7-8-17.9-31.3-17.9-31.3l-24.2-5.4s2.6 52.9-6.7 61.2c-9.2 8.3-7 8.3-7 8.3s7 4.1 9.9 13.7c2.9 9.6 8 15.3 8 15.3l16.5-10.8z"/><path class="st3" d="M139 529.7s7 4.1 9.9 13.7c2.9 9.6 8 15.3 8 15.3l16.6-10.8"/><path class="st45" d="M186.3 554.9s-15 8.3-20.5 9.7c-6.9 1.8-12.1-1.4-12.1-1.4s.3-11.8 0-19.8-3.5-22.6-3.5-29.3c0-6.7-2.2-23.6-5.1-28.7s-4.1-15-3.8-15.9h34.4s4.5 8.9 5 15.9 3 27.4 3.8 35.7c.9 8.3 1.8 33.8 1.8 33.8z"/><path class="st16" d="M178.5 476c1 2.9 2 6.3 2.2 9.4.5 7 3 27.4 3.8 35.7.8 8.3 1.7 33.8 1.7 33.8"/><path class="st12" d="M159 374.3c0 7 5.7 12.7 12.8 12.7 7 0 12.7-5.7 12.7-12.7 0-7-5.6-15-12.6-15.6-12.1-.9-12.9 8.6-12.9 15.6zm195.2 168.3c-.4-.5 7.6-18.4 8.7-21 .1-.2.3-.3.4-.1 2.1 2.9 7.2 4.7 12 3.1.2-.1.4-.1.6 0 2.1.9 13.9 5.4 16.7-1.6.1-.1 0-.3-.1-.4l-1.3-1c-2.5-1.8-5.1-3.4-7.8-4.8l-9.9-5-.1-.1c-.3-.5-3.2-4.5-9.2-4.4h-.2c-1.4-.4-14.5-3.6-17.2 7.4-2.4 9.7-4.9 15.5-5.6 17.1-.1.3-.4.5-.7.5-2.8.4-17.1 2.1-25.5 1.4-9.3-.8-21.5-4.7-28.6-1.5-7.1 3.3-10.4 7.6-11.5 16-1 7.8 2.9 11.5 7.6 10.8.5-.1 1 .3 1 .9 0 2.7.6 9.3 7.6 10.7 7.5 1.5 14-1.9 15.9-3.1.3-.2.8-.2 1 .1 1.9 1.6 8.9 7.1 17.1 3.5.2-.1.5-.1.7 0 1.5.7 7.8 2.9 12.1-3.8.3-.5 1.1-.5 1.5 0 1.5 2.3 4 6 11.2 3.8 5-1.5 5-9.5 5-9.5-.1-.1 0-.3.1-.4 1.5-.8 8.6-5.1-1.5-18.6z"/><path class="st13" d="M280 538.4s-10.9-23.4-12.6-26.5c-1.6-3.1-4.3-1.8-2.8 1.4 1.5 3 12.1 24 13.2 26.2l.3.3c.8.3 3.2 1.3 1.9-1.4z"/><path class="st12" d="M267 514.9c3-1.1 4.9-3.3 4.3-4.8-.6-1.5-3.5-1.9-6.5-.8-3 1.1-4.9 3.3-4.3 4.8s3.5 2 6.5.8z"/><path class="st3" d="M267 515c3-1.1 4.9-3.3 4.3-4.8"/><path class="st12" d="M271.3 525.3c2.8-1.6 4.3-4 3.5-5.5-.8-1.4-3.7-1.3-6.5.3s-4.3 4-3.5 5.5c.9 1.4 3.8 1.3 6.5-.3zm5 10.9c2.8-1.6 4.3-4 3.5-5.5-.8-1.4-3.7-1.3-6.5.3s-4.3 4-3.5 5.5c.8 1.4 3.7 1.3 6.5-.3zm78.2-18.1c-.1 0-.1.1 0 0-4.5 2.9-13.6 5.4-15.4 3.1-1.8-2.2.8-5.4 5.5-10.2 4.4-4.5 17.5-8.4 17.5-2.2.1 6-7 9.1-7.6 9.3z"/><path class="st3" d="M362.2 508.8c0 5.9-7.1 9-7.7 9.3h-.1c-4.5 2.9-13.5 5.3-15.3 3.1"/><path class="st46" d="M369.5 516.6c2.2 0 4-.7 4-1.6 0-.9-1.8-1.6-4-1.6s-4 .7-4 1.6c0 .9 1.8 1.6 4 1.6z"/><path class="st6" d="M340.9 526.7c2.1 1.9 10.1 8.9 17.9 10.3.3.1.5.3.5.6 0 1.1-.1 3.5-1 4.4-.2.2-.4.2-.6.1-1-.4-4.7-1.8-10.1-5.5-5.2-3.5-7.8-6.2-8.7-7.2-.2-.2-.2-.5-.1-.7l1.2-1.9c.2-.3.7-.4.9-.1z"/><path d="M369.5 516c.6 0 1-.5 1-1 0-.6-.5-1-1-1-.6 0-1 .5-1 1s.4 1 1 1z"/><path class="st18" d="M170.2 562.3c0-.3-.8-7.1-3.1-40.9-.7-9.6-2.2-23.9-5.5-37.1-2-7.9-4.4-13.7-4.4-13.7l3.2.8c.1.2 1.9 4 3.9 12.1 1.9 7.4 4.4 20 5.6 37.7 2.3 33.6 3.3 39.9 3.3 40l-3 1.1z"/><path class="st22" d="M244.3 449c-2.6 3.8-8.3 12.8-10.8 14 0 0-17-11.5-23.9-16.3-7.6-5.2-28.4-25-28.4-25 1.4 7.3 10.1 31.7 3.4 46.7-2.8 6.2-1.6 8.9-1.6 8.9s-16.1-5.3-24-5.3c-7.9 0-22.5 1.6-22.5 1.6s-17.8-51.3 6.7-74.8c16.1-15.4 31.2-3.3 42.7 3.1 1.9 1.1 4.3 2.6 7.1 4.5 0 0 38.2 28.6 41.4 29.8 5.7 2 10.5 3.9 12.1 5.9 1.6 1.8.3 3.1-2.2 6.9z"/><path class="st47" d="M148.3 461.3c10.6-.6 26.7-.2 39.4 5.9M156.2 454c11.7.2 26 1.7 32.3 7.7m-52.2 6.9s29.3-6 48.5 3.9"/><path class="st48" d="M225.8 461.8s16.1-17.3 18.5-26.4m-24.7 21.1c0 .5 9.1-8.4 18.8-23.1"/><path class="st49" d="M177.4 367.9s2.2 4.6 3.7 4.2c1.5-.4.7-4.4-1.4-6.1"/><path class="st3" d="M172.2 372.5s3 9.3 11.2 6.9"/><path class="st38" d="M159.9 368.8l9.3-1.5-1.4 4.2-2.9 6.5-7.5 4.9c0 .1-7.1-11.8 2.5-14.1z"/><path class="st12" d="M166.5 375.7c1.7 0 3.1-1.4 3.1-3.2 0-1.8-1.4-3.2-3.1-3.2-1.7 0-3.1 1.4-3.1 3.2 0 1.8 1.3 3.2 3.1 3.2z"/><path class="st16" d="M203.3 371.3l11.5-.3m-12.5 4.9l10.2 1m-10.9 3.2l8.5 2.3"/><path class="st50" d="M208.4 390.7c.1-.4-.2-.9-.7-1.1-.5-.2-1.1-.1-1.3.3-.1.4.2.9.7 1.1s1.2.1 1.3-.3z"/><path class="st3" d="M169.2 408.3c0 .6 10.4 12.4 16.3 17.8"/><path class="st23" d="M149.8 312.6l-5.7.2-7.7 4.2-3 4.8-1.3 7.5 22.5 11.8 2.1-25.7-6.9-2.8z"/><path class="st24" d="M132.1 329.2c.8.1 8.3.8 8.3.8l13.1-7.5 3.1-7.2"/><path class="st24" d="M139.9 322.7l.6 7.3 14.2 11-1-18.5-5.9-4.1-7.9 4.3zm-6.5-1l6.5.9 7.8-4.3 2.1-5.9"/><path class="st51" d="M91.2 588.8c3.5-17.1 4.8-53.9-15.9-76"/><path class="st52" d="M94.2 555.2c-9.1-3.4-26-8.6-21.1-2.5 4.9 6 16.1 4.2 21.1 2.5zm-5-18.8c-8.7-2.9-24.8-7.4-20.2-2.2 4.7 5.2 15.5 3.7 20.2 2.2zm-6-15.2c-9.1-3.4-26-8.6-21.1-2.5 4.9 6 16.1 4.2 21.1 2.5z"/><path class="st52" d="M92.8 556.4c7.3-6 20.1-17.7 12.5-16.6-7.6 1.1-11.5 11.5-12.5 16.6zm-4.2-18.8c7.3-6 20.1-17.7 12.5-16.6-7.6 1.1-11.5 11.6-12.5 16.6zM81.8 522c7.3-6 20.1-17.7 12.5-16.6-7.6 1.1-11.5 11.5-12.5 16.6z"/><path class="st1" d="M76.2 513.8l-.5.5c.3.2.6.3.9.1.3-.2.4-.6.3-.9l-.7.3zm-9.9-13.4l.6.4-.6-.4zm10.5 12.9c-.3-.3-.8-.6-1.2-.8-.5-.3-1.2-.6-1.8-1-1.4-.7-3-1.6-4.4-2.7-1.4-1.1-2.5-2.3-3-3.6-.5-1.2-.4-2.7.6-4.4l-1.3-.8c-1.3 2.1-1.4 4-.8 5.7.7 1.7 2 3.1 3.5 4.2 1.5 1.2 3.2 2.1 4.6 2.8.7.4 1.3.7 1.8 1 .5.3.8.5.9.6l1.1-1zm-9.9-12.5c.4-.7.8-1 1.1-1.2.2-.1.5-.1.7 0 .3.1.7.5 1.1 1 .4.5.8 1.2 1.2 2 1.6 3.2 3.1 7.9 4.5 11.5l1.4-.5c-1.3-3.4-2.9-8.4-4.6-11.6-.4-.8-.9-1.6-1.4-2.2-.5-.6-1-1.1-1.6-1.4-.6-.3-1.3-.3-2 0-.6.3-1.2.9-1.7 1.7l1.3.7z"/><path class="st51" d="M53.2 581.8c.4-10.9-.4-35.5-6.9-47m5.9 19c-2.4-.7-8.2-2.6-12-5"/><circle class="st53" cx="37.8" cy="547.3" r="3.8"/><circle class="st53" cx="43.8" cy="531.3" r="3.8"/><path class="st51" d="M53.2 567.8s4.8-10 10-10"/><circle class="st53" cx="63.8" cy="557.3" r="3.8"/><path class="st54" d="M216.2 580.8c-96.4 16.2-159.1 6.5-202-9.7m-6.4-2.5c-2.4-1-4.7-2-7-3"/><path class="st4" d="M304.8 462.1c3.3-.9 6.7-1.7 10-2.4l3.8-.7m240.6-9.4c-87.8 19.7-160.9-4.2-234 8.1"/><defs><path id="SVGID_1_" d="M332.8 304.5H524.7V491.5H332.8z"/></defs><clipPath id="SVGID_2_"><use xlink:href="#SVGID_1_" overflow="visible"/></clipPath><g class="st55"><path class="st23" d="M518.9 319.5l-1.2-5.7-5.6-7-5.5-2.2-7.8.1-7.9 25 26.4-2.5 1.6-7.7z"/><path class="st56" d="M498.7 304.6c.1.8.7 9.4.7 9.4l9.9 12 7.9 1.1"/><path class="st56" d="M506.8 311.3l-7.4 1.9-8.6 16.4 18.6-3.6 3.1-7.5-5.7-7.2z"/><path class="st56" d="M506.6 304.5l.2 6.8 5.7 7.2 6.4 1.8"/><path class="st26" d="M360.1 439.5s2 0 10.3-12c8.4-12 31.5-48.4 57.7-53.1 26.3-4.7 53.1 7.4 63.2 28.5 10.1 21.1 12.8 39.8.5 40.8s-15-2.5-15-2.5l-58.7-9.6s-4.9-10.8-2.9-22.9c0 0-12.8 15.7-15.5 21.1-2.7 5.4-3.4 6.6-3.4 7.6s-3.4 3.2-7.9 4.4c-4.5 1.4-24.9 3.1-28.3-2.3z"/><path class="st1" d="M416.2 409.1c0-.2-.1-.4-.1-.7 0-.4 0 .5 0 0v-.5-1.1-.5-.3-.4-.7-.4c0 .6 0 .1 0 0 0-.5 0-1 .1-1.6 0-1.2.1-2.3.2-3.5l.6-7.5c.1-1.3.3-2.6.5-3.8l.3-1.8c0-.1 0-.3.1-.5-.1.5 0 .2 0 .1.1-.3.1-.7.2-1 .2-1.2.4-2.4.7-3.6.1-.5.2-1 .4-1.5 0-.1.1-.2.1-.3.1-.5-.1.3 0 0s.2-.7.3-1.1c.2-.8.2-1.8-.2-2.6-.2-.4-.8-.9-1.1-.3-.5 1-.8 2-1 3.1-.3 1.1-.5 2.1-.6 3.2-.4 2.6-.8 5.2-1 7.9-.5 5.1-.8 10.2-.8 15.3 0 1.8.1 3.7.5 5.4.1.4.4 1.1.8.6v-1.9z"/><path class="st1" d="M417.3 391.4c6.5-.5 13.2-.6 19.7 0 3.5.3 6.9 1.1 10.3 2 4.2 1.2 8.3 2.6 12.3 4.2 2.3 1 4.7 2 7 3 1.2.6 2.4 1.1 3.5 1.7 1.1.6 2.3 1.3 3.4 1.7.8.3.8-2.8.2-3.2-1.9-1.3-4.1-2.2-6.1-3.2-2.1-1-4.2-1.9-6.3-2.8-4-1.6-8.2-3.1-12.4-4.3-3.4-1-7-1.9-10.5-2.3-3.7-.4-7.4-.4-11-.4-3.4 0-6.8.2-10.1.5-.9.1-.7 3.1 0 3.1zm-.5 17.2c2-1.7 4.7-2 7.2-2.1 3.1-.1 6.2 0 9.3.1 6.3.3 12.5 1.1 18.6 2.4 3.5.7 6.9 1.7 10.4 2.7.6.2.9-3.2-.1-3.5-6.1-1.9-12.4-3.2-18.7-4-6.2-.8-12.5-1.2-18.8-1-2.9.1-6 .4-8.2 2.5-.4.4-.4 1.3-.3 1.9 0 .1.2 1.3.6 1zm-1.3 15.2c2.2-1 4.7-1.4 7.1-1.8 2.7-.4 5.5-.6 8.2-.6 2.7 0 5.4.1 8 .5 2.8.4 5.6 1.1 8.4 1.7 4 1 7.9 1.9 11.9 2.9.6.1.9-3.2-.1-3.5-3.6-.8-7.1-1.7-10.7-2.5-2.9-.7-5.8-1.5-8.7-1.9-5.4-.8-11-.8-16.3 0-2.8.4-5.5 1.1-8.1 2.4-.7.3-.4 3.1.3 2.8zm7.9-47.3c1.1 0 2.3.1 3.4.1h3.3c2.2.1 4.5.2 6.7.5 3.7.4 7.4 1.1 11.1 1.9 7.5 1.6 14.8 3.9 21.8 7 4.5 2 8.8 4.4 13 7 .6.4.7-1 .7-1.3 0-.5.1-1.9-.5-2.3-7.1-4.4-14.8-7.9-22.8-10.5-6.9-2.3-14.2-3.9-21.4-4.9-2.5-.3-5-.5-7.5-.5h-3.8c-1.3 0-2.6.3-3.9.4-.8 0-.7 2.6-.1 2.6z"/><path class="st1" d="M483.3 390c-1.5 1.1-2.7 2.4-3.9 3.8-1.3 1.6-2.6 3.2-3.9 4.9-2.6 3.4-5.2 6.8-7.7 10.3-.4.6-.3 1.8-.2 2.5.1.4.4 1.3.9.6 2.4-3.4 4.9-6.8 7.5-10.2 1.3-1.6 2.5-3.3 3.8-4.9 1.2-1.5 2.4-2.9 3.9-4 .5-.4.4-1.5.3-2 0-.2-.2-1.4-.7-1zm11.8 19.6c-.7-.3-1.4-.4-2.1-.6-1.4-.3-2.7-.5-4.1-.8-1.4-.2-2.8-.4-4.2-.4-1.8-.1-3.5.2-5.2.8-1 .3-2 .7-2.9 1.2-.5.2-1 .5-1.4.7-.5.3-1.1.5-1.4 1-.4.5-.4 1.2-.4 1.9 0 .3.1 1.5.6 1.4.4-.1.8-.4 1.1-.6.4-.2.8-.5 1.2-.7.9-.5 1.7-.9 2.7-1.2 1.7-.6 3.5-1.1 5.4-1.1 2.8 0 5.5.5 8.3.9.8.1 1.7.2 2.5.5.3.1.5-2.8-.1-3zM498 441c.7-4.3.2-8.9-1.5-12.9-1.4-3.2-3.5-5.8-6-8.2-.5-.5-1.1-1-1.7-1.4-.3-.2-.8-.6-1.2-.6-.7 0-.7 1.6-.7 2 0 .4.1 1.9.8 1.9.1 0 .2.1.1 0 .1 0 .2.1.3.1.2.1.5.3.7.5l1.8 1.5c1.2 1.1 2.3 2.2 3.2 3.5 2.5 3.5 3.9 7.8 3.3 12.1-.1.6-.2 1.5.2 2 .3.5.6-.1.7-.5zm-15.8-1.3c-.3-4.2-.8-8.3-1.7-12.4-.4-2-.9-3.9-1.5-5.8-.3-1-.6-2-1-3-.3-.9-.6-2.1-1.2-2.8-.4-.5-.7-.1-.8.3-.2.7-.2 1.6 0 2.3.2 1 .7 1.9 1.1 2.9.3.8.6 1.7.9 2.5.6 1.8 1.1 3.6 1.5 5.4.8 3.6 1.4 7.3 1.6 11.1 0 .3.2 1.2.6 1.1.5-.3.5-1.3.5-1.6zm-113.4-8.3c3.9 1.7 8 2.6 12.2 3.3 2 .3 4.1.7 6.1.8 2 .1 3.9-.4 5.7-1 2.1-.6 4.1-1 6.2-.6.8.2.9-3.3-.1-3.6-1.7-.6-3.7-.2-5.4.3-1.9.5-3.7 1.2-5.6 1.3-2.1.1-4.1-.4-6.1-.7-2-.3-4.1-.6-6.1-1.1-2.3-.5-4.6-1.2-6.9-1.9-.5-.2-.7 2.9 0 3.2zm11.9-17.9c2.6 3.2 5.5 6.4 8.9 8.7 2.6 1.8 5.9 2.7 8.9 3.8.8.3 1.6.6 2.3.9.3.1.5.2.8.3.1 0 .2.1.4.1h.1c-.3-.1.2.2-.1 0 .5.4.7-1 .7-1.3 0-.6.1-1.8-.5-2.2-.8-.6-2-.8-2.9-1.2-1.6-.6-3.2-1.1-4.8-1.7-1.3-.5-2.7-.9-3.9-1.7-1.8-1.1-3.5-2.5-5.1-4-1.5-1.4-3.1-2.9-4.5-4.5-.4-.5-.7.2-.7.6 0 .7 0 1.7.4 2.2zm11.7-13.6c2.4 6 5 11.8 8.6 17.3 1.3 2 2.7 4 4.2 5.9.5.6.8-.3.9-.7.1-.7.2-1.9-.3-2.6-2.4-3.1-4.6-6.3-6.6-9.6-1.5-2.6-2.8-5.2-4-7.9-.7-1.5-1.3-3-2-4.5-.2-.5-.6-.5-.8 0-.2.5-.2 1.4 0 2.1zm13.1-14.3c.3 5.2 1.3 10.2 2.2 15.3.4 2.4.8 4.7 1.2 7.1.3 2.5.5 5 .7 7.3 0 .5.1 2 .8 2 .7 0 .7-1.7.7-2-.1-5.2-1.1-10.4-2.1-15.4-.9-4.9-1.9-9.7-2.4-14.7 0-.3-.1-1.1-.6-1-.5 0-.5 1.1-.5 1.4z"/><path d="M447 344.5s8.5-9.1 19.4-10.9c10.9-1.8 19.1-1.5 14.6 3.9 0 0 7.6 1.5 8.5 4.9.9 3.3-5.5 3-5.5 3s4.9 1.2 4.9 4.6c0 3.3-4.2 5.2-6.7 4.6 0 0 2.4 1.8.9 4.9-1.5 3-12.4.9-12.4.9L447 344.5z"/><path class="st57" d="M463.4 367.3c8.5-3 13.3-11.4 10.7-18.8-2.6-7.3-11.6-10.8-20.1-7.8-8.5 3-13.3 11.4-10.7 18.8 2.6 7.3 11.6 10.8 20.1 7.8z"/><path class="st57" d="M449.7 348.1c2.3 0 4.2-1.9 4.2-4.2 0-2.3-1.9-4.2-4.2-4.2-2.3 0-4.2 1.9-4.2 4.2-.1 2.3 1.8 4.2 4.2 4.2zm18.5 21.2c2.3 0 4.2-1.9 4.2-4.2 0-2.3-1.9-4.2-4.2-4.2-2.3 0-4.2 1.9-4.2 4.2-.1 2.3 1.8 4.2 4.2 4.2z"/><path class="st58" d="M455.7 345.5s-4.8 3.7-3.3 4.8c1.4 1 5.8-.7 6.8-2.9m6.9 6.6s-3 2.7-2.3 4c.7 1.3 5.2.7 6.3-1.3"/><path class="st59" d="M451.2 470.5s-39.6 2-46-6.4c-6.4-8.4-4.7-27.5 5.4-30s66.3 7.1 73.2 10.3 7.6 7.4 7.4 13c-.2 5.7-1 9.3-6.9 10.1-5.8.7-33.1 3-33.1 3z"/><path class="st57" d="M392 440.7s2.9 2.5 1.5 9.1c-1.5 6.6-14.5 12.5-24.1 12.5-9.6 0-15.2 1.2-15.7-3.7 0 0-12.8-1.2-17-3.9-4.2-2.7-6.1-9.1-.5-12s13-.7 17.9-1.5l4.9-.7"/><path class="st1" d="M488.1 446.9s12.5-1.5 20.4-1.2c7.9.2 15 4.2 15.5 9.6.5 5.4-1 11.5-6.9 12.3-5.9.7-25.1-1.5-27.8-3.9-2.7-2.6-1.2-16.8-1.2-16.8z"/><path class="st23" d="M514.4 468.5c1.5-6.6-1-21.9-1-21.9l.1-.3c5.7 1.4 10.1 4.7 10.5 8.9.5 5.4-1 11.5-6.9 12.3-.7.1-1.6.1-2.6.1l-.1.9z"/><path class="st58" d="M486.1 420.3c0-1-5.9-3.4-11.8-3.4M377 452.5c-.2-1.2-12-1.2-16.5-.5s-7.4 1.2-6.9 6.6m8.2-14.9s-9.8-.5-17.9 1.5c-6.9 1.7-8.1 6-6.4 9.2"/><path d="M504.8 461.1c.8 0 1.4-.4 1.4-.9s-.6-.9-1.4-.9c-.8 0-1.4.4-1.4.9s.6.9 1.4.9z"/><path class="st58" d="M492.2 456.7s14.9 1.2 19.9.1"/><path class="st1" d="M478.6 476.8s6 7.5 12.2 8.8c6.2 1.2 14.1-3.6 16.8-7.1s3.2-9.4-.4-13.1c-3.6-3.7-16.8-6.4-16.8-6.4l-11.8 17.8z"/><path class="st23" d="M484.9 482.6s9.8 3.1 16.7-7.7c7-10.8 3-11.1 3-11.1l2.3 1.3.3.3c3.6 3.7 3.1 9.6.4 13.1s-10.6 8.4-16.8 7.1c-.7-.1-1.4-.4-2.1-.7l-3.8-2.3z"/><path class="st58" d="M478.6 476.8s6 7.5 12.2 8.8c6.2 1.2 14.1-3.6 16.8-7.1s3.2-9.4-.4-13.1c-3.6-3.7-16.8-6.4-16.8-6.4l-11.8 17.8z"/><path class="st23" d="M492.2 482.5c.2-.8-.7-7 3.2-11.3 3.8-4.3 9.9-5.9 9.9-5.9s2.1 1.3-3.7 9.7c-5.2 7.4-9.4 7.5-9.4 7.5z"/><path class="st60" d="M492.2 482.4c3-.9 6.5-3 9.4-7.5 7-10.8 3-11.1 3-11.1"/><path class="st58" d="M507.2 465.4c-3.6-3.7-16.8-6.4-16.8-6.4m-46.1-80.9s-4.2 9.8-2 18.4"/><path d="M438.1 386.3c.7 0 1.2-.5 1.2-1.2s-.5-1.2-1.2-1.2-1.2.5-1.2 1.2.5 1.2 1.2 1.2zm-.9 7.1c.7 0 1.2-.5 1.2-1.2s-.5-1.2-1.2-1.2-1.2.5-1.2 1.2.5 1.2 1.2 1.2z"/><path class="st29" d="M473.2 480.6s-7-5.5-17.6-12.4c-10.6-6.9-28.2-13.9-32.9-30.1-4.7-16.2 6.1-19 10.2-19.2 9.2-.5 44.1 13.9 54.5 27.7 4.9 6.5 6 7.5 4.5 12s-8.5 21.5-18.7 22z"/><path class="st58" d="M455.6 468.2c-10.6-6.9-28.2-13.9-32.9-30.1-2.1-7.1-.9-11.9 1.5-15"/><path class="st57" d="M479.3 435.1s-2.2-19.9-12.5-27c-10.3-7.1-18.2-3.7-17.9-1 .2 2.7 1.7 8.4 8.4 7.6 0 0-6.1.5-2.9 5.7 3.2 5.2 6.4 5.2 6.4 5.2s-2.3 1.8 1 5.7c4.4 5.2 17.5 3.8 17.5 3.8z"/><path class="st58" d="M464.8 416.2s-2-1.5-7.6-1.5m14.4 9.6s-7.6-2.5-11.1 1.2"/><path d="M458.5 337.6s4.5 1.4 7.9 5.6c3.4 4.2 5.6 10.7 9.6 12.1s2.2-11.2 1.4-12.1c-.9-.8-18.9-5.6-18.9-5.6zM394.3 460c-.8.3-39.3 10.1-39.3 10.1l38.8 21.4 20.5-19.7-20-11.8z"/><path class="st23" d="M396.6 461.4l-32 8.9 28.9 14.1 17.8-14.4-14.7-8.6z"/><path class="st58" d="M377.8 471.4l14.6 8.6m-5.9-10.8l10.1 6.4m-1.9-8.2l5.4 3.9m88-24.4s12.5-1.5 20.4-1.2c7.9.2 15 4.2 15.5 9.6M468.3 476s12.2-8.7 14.1-16.9"/></g><path class="st61" d="M1154.3 552.9c-37.5-5.2-43.6 9.6-44.8 13.2-1.3 1.7 18.8 5.7 28.4 6 9.6.3 22.4-2.5 26.7-3.3-1.7-3-.5-14.6-10.3-15.9z"/><path class="st23" d="M1166.6 566.2c-.7-9.7-8.9-43.7-13.6-60.4-2.4-8.7-8.9 2.5-11.5 8.6l.3 39.5 3.6 18c6.4 1 21.8 4 21.2-5.7z"/><path class="st61" d="M981 526.3s-4.1-13.2-4.7-19.2c0 0 3-8.4-2.8-9.1-5.8-.7-14 5.8-12.7 15.3 1.3 9.5 4 40 4.6 43.7.6 3.7 4.8 7 10.4 4.1 6.4-3.4 5.1-22.8 5.1-22.8l.1-12z"/><path class="st6" d="M982.1 532s-3.1.4-6.9 2.4c-3.8 2-12.7 5.4-12.7 5.4s-.1-.4-.2-1.1c-.2-1.5-.5-4.1-.7-5.9l-.1-1.5-.9-12.9s2.5-2.2 8.2-3.8c5.7-1.6 10.5-.6 10.5-.6s2.7 12.4 2.5 12.6c.3 2.3.3 5.4.3 5.4z"/><path class="st6" d="M962.3 538.7c-.2.1-.3.2-.3.2l-.4-6.1c.2 1.7.5 4.4.7 5.9z"/><path class="st62" d="M960.6 518.4s2.5-2.2 8.2-3.8c5.7-1.6 10.5-.6 10.5-.6"/><path class="st6" d="M961.6 532.7c-.1-.7-.1-1.2-.1-1.5l.1 1.5z"/><path class="st62" d="M981.2 524.2s-5.2 1.3-11.2 3.5c-3.9 1.4-8.5 3.4-8.5 3.4"/><path class="st63" d="M957.1 503.4s-2.8 10.7-1.4 34.4c.8 13.4 6 25.7 6 25.7l4.3-3.1s-3.5-22.1-3.8-37.9c-.3-15.8.8-19.2.8-19.2s-5.3-5.2-5.9.1z"/><path class="st26" d="M1101.1 531.5s-16.1-21.5-20.8-27.7c-4.7-6.2-16.7-8.2-33.9 4.1-17.2 12.3-50.8 39.2-50.8 39.2l43.6 15.2s26.6-36 27.8-35.1c1.1.9 20.4 37.8 20.4 37.8l13.7-33.5z"/><path class="st26" d="M1132.5 557s-1.4 21.1-23.9 20.3c-22.5-.8-108.3-3.6-117.6-7.9s-16.2-10.2-14.9-27.1c1.3-16.9 8.1-15.2 8.1-15.2s11.1 9.8 21.9 11.2c10.8 1.4 94.9 2.8 94.9 2.8l31.5 15.9z"/><path class="st62" d="M984.2 527.2s11.1 9.8 21.9 11.2c10.8 1.4 95 2.8 95 2.8m-30.7-21.7s-9.6 17.9-16.1 24"/><path class="st39" d="M1054.8 550.7s-9.2 10.7-23.6 13.1c-14.4 2.3-17.1-4.1-12.6-8.5 4.5-4.4 11.1-4.9 11.1-4.9s-13.3 2.1-17.7-1.6c-4.4-3.7.6-9.4 9.8-9.9 0 0-6.7-.2-6.9-7.6-.2-7.5 5.7-6.8 17.3-4.6 11.6 2.1 25.2 5.8 25.2 5.8l-2.6 18.2zm92.9-59.8c6.4.1 11.7-5.1 11.8-11.5.1-6.4-5.1-11.7-11.5-11.7-6.4-.1-11.7 5.1-11.8 11.5-.1 6.4 5.1 11.7 11.5 11.7z"/><path class="st64" d="M1157.1 467.3s.5-.9 3.6-2.2l1.4 5.1-5-2.9z"/><path d="M1147.2 469.6s-7.3 1.4-9.5-2.6c-2.1-4 4-9 7.1-4.4 0 0 3.2-3 6.6-1.8 3.4 1.2 3.5 3.5 2.5 5.6 0 0 4.7-2.1 8.1.8 3.4 2.9 3.5 5.8 3.5 5.8s3.7-1.3 4.9 2.8c1.3 4-1.7 4.5-3.7 4 0 0 3.7-.3 3.2 3.8s-4.5 4.4-7.1 3.5c-2.6-.9-12.9-5.1-12.9-5.1s-4.5 1-4.4-3.1c0-2.8 3.1-2.6 3.1-2.6s-3-.9-3-3c0-2 1.6-3.7 1.6-3.7z"/><path class="st6" d="M1154.5 497.7c5.1.1 9.2-4 9.3-9.1.1-5.1-4-9.2-9.1-9.3-5.1-.1-9.2 4-9.3 9.1 0 5.1 4 9.3 9.1 9.3z"/><path d="M1154.6 493.3c2.6 0 4.7-2.1 4.8-4.7 0-2.6-2.1-4.7-4.6-4.8-2.6 0-4.7 2.1-4.8 4.7-.1 2.6 2 4.7 4.6 4.8z"/><path class="st6" d="M1160.8 465.1c.2.2-3.4 13.8-5.9 16.2l5.5 2.7s3.9-5.9 5-10.6c1.2-4.7 1.3-5.6 1.3-5.6l-5.9-2.7z"/><path class="st38" d="M1093.8 553.9c-8.1 2.1-38.1 5.8-38.1 5.8s-6.2-1.9-6.2-13.3c0-11.3 3.8-14.5 3.8-14.5l37 2c22.6-41.8 44.5-41.6 55.1-36.3 10.6 5.3 9.9 14.2 5.9 29.8-3.9 15.6-18.8 29.5-18.8 29.5s-12.2 2.6-21.2.9c-9-1.7-14.1-5-14.1-5s-1.9.7-3.4 1.1z"/><path class="st62" d="M1053.3 531.9l37 2m49.7-28.6c0 9.6-6.1 20.4-13.6 29-7.5 8.5-24.6 17.5-32.7 19.6s-38.1 5.8-38.1 5.8m-16.8-23.9s-16.9 1.8-25.3 5.6m25.9 3.6s-16.2 5.7-20.7 10.4"/><path class="st65" d="M960.7 501.1c-1.1 3.6-2.4 10.2-2.2 19.3.3 11.8 3.7 32.8 6 42.1"/><path d="M1141.4 473.4c.4 0 .8-.3.8-.7 0-.4-.3-.8-.7-.8-.4 0-.8.3-.8.7 0 .5.3.8.7.8z"/><path class="st22" d="M1148.9 513.4c.3-.3.9-.1.8.4-.5 3.2-1.9 11.1-5.4 18.7l-4.5 9.8 3.4.5-4.5 6.4-8.3-3 3-7.4 3.1.7s6.6-15 7.2-15.9l-3.3-1.4 8.5-8.8z"/><path class="st62" d="M1136.2 479.2s1.6 1.6 5.5.7"/><path class="st23" d="M1186.3 416.3l-6.9-5.3-13.3-2.6-8.4 2.8-8.9 7.7L1164 455l27.8-28.5-5.5-10.2z"/><path class="st24" d="M1148.9 418.7c.9.9 9.2 9.1 9.2 9.1l23 4.1 10.8-5.5"/><path class="st24" d="M1164.6 418.6l-6.5 9.3 6 27.1 17-23-3-10.8-13.5-2.6z"/><path class="st24" d="M1157.7 411.1l6.8 7.5 13.5 2.6 8.3-5"/><path class="st66" d="M1154.5 519.2c-1.6 9.7-8.4 23.2-12.6 27.7"/><path class="st12" d="M1264.6 334.6s4.8-1.4 4.5-1.2c-.5.2 1.1-3.4 0-9.8-.7-3.9-2.6-6.9-4.8-6.4-2.2.5-2.9 5.3-2.8 7.6.2 2.2 3.1 9.8 3.1 9.8z"/><path class="st38" d="M1313.9 523.5c-8.3 3.4-21.1 7.8-20.1 12.4 1 4.6 1.6 5.6 1.6 5.6s15.5 2.5 24.8.9 40.8-14.8 42.1-16.5c1.3-1.8-10.2-16.7-11.8-17.7 0 0-1.6.1-3.2 1.6-5 4.5-5.5 5.4-13.2 8.1l-20.2 5.6z"/><path class="st67" d="M1336.6 519.2s11.7 4.5 7.6 6.5c-4.1 2.1-12.7 0-17.9-3.1"/><path class="st16" d="M1324.9 522.6s-8.6 5.8-16.7 7.9c-8.1 2.1-13.9 3.6-13.9 3.6"/><path class="st26" d="M1295.3 541.5s15.5 2.5 24.8.9 40.8-14.8 42.1-16.5c1.5 1.3 2 2.1 1.8 2.6-.2.5-24.5 12-37.2 15.6-12.7 3.6-30.9.5-30.9.5-.7-1-.6-3.1-.6-3.1z"/><path class="st59" d="M1349.2 429.5s-24.5 34.1-27 36.7c0 0 15.8 26.1 23.2 30.9 4.6 2.9 7.7 7.6 6.1 11.2-1.5 3.6-38 14.5-38.2 13.7-.3-.8-26.2-35.4-26.2-35.4s1.8-27.5 7.9-34.9c6.1-7.4 27.3-28.5 27.3-28.5l26.9 6.3z"/><path class="st19" d="M1360.9 374.1c1 1.5 15.6 11.2 14.8 28.8-.8 17.6-18.9 26.8-33.4 28 0 0-35.2 12.5-48.2 10.4 0 0 18.3 14 24.5 24.7 0 0 2.8 5.9-8 16.8-6.7 6.8-18.1 11.2-19.3 11.5 0 0-44-42.5-28.2-65.2s46.6-39.2 46.2-40.4c-.4-1.1 51.6-14.6 51.6-14.6z"/><path class="st12" d="M1303 369.3c.5 5.7-2.6 11.3-7.9 13.6-1.1.5-2.2.8-3.1.8-4 0-10.3-32.2-5.1-29.6 4.1 2.1 8.8 2.8 13.4 2.5l1.6-.1 1.1 12.8z"/><path class="st26" d="M1297.1 278.1s-2.8-4.8-10.7-4.4c-7.8.5 4.7 9.7 5.2 9.3.5-.3 5.5-4.9 5.5-4.9z"/><path class="st6" d="M1300.5 319.2s-9.9 9.7-11.2 21.3c-1.3 11.6-3.8 14.1-3.8 14.1l19.2 7.9-4.2-43.3z"/><path class="st12" d="M1292.1 383.7c-4.6 0-48.7-37.5-55-51.6-6.3-14.1-5-20.4-.8-23.2 4.2-2.8 7.1-.2 7.1-.2s36.6 33.7 46.3 48.5c.1 0 6.9 26.5 2.4 26.5z"/><path class="st16" d="M1274.6 339.2c6.4 6.8 12.4 13.7 15.2 18 2.7 4.3 2.2 9.8 2.2 9.8"/><path class="st68" d="M1284.2 274.8c.1-.5 9.1 1 11.7 5.1l-3.3 3.6c0-.1-8.8-4.6-8.4-8.7z"/><path class="st25" d="M1377.3 387.4c1 0 1.8-1 1.6-2-2.6-11.9-17.9-74.8-53.5-75.6-32.7-.7-39.5 31.6-27.5 44.5 22.2 23.9 14.7 33.9 14.7 33.9l64.7-.8z"/><path class="st12" d="M1312.8 422.4c-3.5 8.5-12.8 2-12.8 2s-1.8 2.2-6-.1c-3.7-2-5.5-11.2-3.6-18.8 1.9-7.7 27.2-40.7 27.2-40.7l-3.5-6.7 27.2-8s2.9 17.6 1.9 19.2c-1 1.6-28.2 36.2-28.2 36.2s-.3 3.8-2.2 6.4c1.3.6 6.6 4.1 4.3 7.6.1 0-1.1 2.7-4.3 2.9z"/><path class="st16" d="M1315.1 404.8s-.3 3.8-2.2 6.4c1.3.6 6.7 5.1 4.5 8.6s-12.8 6.7-12.8-5.8c0-3.8 1.3-7.4 1.3-7.4"/><path class="st16" d="M1290.4 405.5c-1.9 7.7-.1 16.8 3.6 18.8 4.2 2.3 6 .1 6 .1s7.7 5.8 12.8-.6"/><path class="st25" d="M1331.4 324.8l15 26.9-32.3 6.4s-7.1-16.7-7.7-25.9"/><path class="st16" d="M1314.1 358.1s-7.1-16.7-7.7-25.9m25-7.4l15 26.9-8.6 1.7"/><path class="st6" d="M1299.7 400.3s2.6.8 6.7 2c4.1 1.3 8.6 4.5 8.6 4.5l4.3-5.8s-2.6-5.6-16.6-8.4c0 0 .6 2.8-.1 4s-2.9 3.7-2.9 3.7z"/><path d="M1254.6 308.7s10.8 24.7 10.6 24.2c-.2-.5-8.4 2.6-8.4 2.6l-13.7-27.3 11.5.5z"/><path class="st38" d="M1258.5 333.1l-12.5-24.9 8.6.4s7.3 16.8 9.8 22.4c-2.5.8-5.9 2.1-5.9 2.1z"/><path class="st16" d="M1248 314.7s-4.1-5.5-8.4 0c-4.3 5.5 3.4 16.5 3.4 16.5m52.9 77.2s-3.4 9.5 4.2 16"/><path class="st38" d="M1318.6 466.1c.6 0 14.4 6.7 16.9 13.5 0 0-14.3 24.7-39.1 35.9s-23.3-5.8-23.3-5.8 1-5.9 7.2-9.2c6.2-3.2 11-6.2 11-6.2s10.9-7.7 17.3-14.4c6.3-6.5 10-13.8 10-13.8z"/><path class="st67" d="M1310.6 482.9c.1-.1 10.5 1.6 8.7 5.6s-6.5 3.7-16.7 3.5"/><path class="st26" d="M1274.5 515.8s1.2 2.8 3.1 4.6c1.9 1.8 9.6 2.1 24.5-3.2 14.9-5.3 38.2-33.8 38.1-34.3-.3-2.4-4.7-3.2-4.7-3.2s-14.3 24.7-39.1 35.9-23.3-5.8-23.3-5.8l1.4 6z"/><path class="st12" d="M1305.1 301c7.7 0 13.9-6.2 13.9-13.9s-6.2-13.9-13.9-13.9-13.9 6.2-13.9 13.9 6.2 13.9 13.9 13.9z"/><path class="st69" d="M1299.1 284.5s0 6.9-2.7 5.7c-2.7-1.1-1.5-6.1-1.5-6.1"/><path class="st16" d="M1305.1 287.1s1.6 10.7-6 13"/><path d="M1319.5 290.4l-4.9-3.3s.6-3.8-2.2-3.4c-1.3.2-1.9.6-2.3.9-.3.3-.8.3-1.1 0l-8.3-7.8 20.7 7-1.4 6.4c-.1.2-.3.3-.5.2z"/><path class="st26" d="M1321.6 286.8c-.7-1.4-16.2-10-27.6-9.1-.2 0-1.1-1-.7-1.7 2.1-3.9 6.8-9.5 16.5-7.5 14.4 3.1 11.8 18.3 11.8 18.3z"/><path class="st70" d="M1295.5 401.4c4 0 7.2-2.9 7.2-6.5s-3.2-6.5-7.2-6.5c-3.9 0-7.2 2.9-7.2 6.5s3.2 6.5 7.2 6.5z"/><path class="st16" d="M1300.4 392.7l-5.9 2.1 1.1 3.5m9.3 90s-8.9 11.7-23.3 18.8m-23.1-193.2l-6.7-.2m8.6 3.1l-6.7-.2"/><path d="M1321.2 280.5c.3-.8 9.6-5.7 15.5 6.1 3.8 7.5 10.3 11.6 14.6 13.7.9.5.7 1.9-.4 1.9l-9.5.4c-5.5.2-10.6-2.9-12.8-8-2.5-5.6-5.7-12-7.4-12.4-2.9-.7-1.9-2.1 0-1.7z"/><path class="st16" d="M1366.2 390.8s12.1 12.6 9.4 9.7c-2.7-3-.9-11.5-.9-11.5m-44.5 1.8s2.4 8.5 11 9.8c8.5 1.2 5.5-12.2 5.5-12.2m-72.6 50.7s22 17.7 31.7 29.3m-62.7-160.3l11.5.5"/><path class="st12" d="M1312.9 289.1c1.7 0 3.1-1.4 3.1-3.2 0-1.8-1.4-3.2-3.1-3.2-1.7 0-3.1 1.4-3.1 3.2 0 1.7 1.3 3.2 3.1 3.2z"/><path class="st23" d="M1318.5 229.7l-4.9-2.8-8.7-.4-5.1 2.5-5 5.7 13.1 21.8 15.2-20.8-4.6-6z"/><path class="st24" d="M1294.8 234.8c.7.5 6.7 5 6.7 5l15.1.5 6.4-4.5"/><path class="st24" d="M1304.8 233.2l-3.3 6.6 6.3 16.8 8.8-16.3-2.9-6.6-8.9-.5zm-5-4.2l5.1 4.2 8.9.4 4.8-4"/><path class="st4" d="M1378 608.8v-30.6h-62.1V549h-49.6v-29.6h-20.6m-13.9.1h10.5"/><path class="st36" d="M665.8 506.7c4.6 1.3 8.4 17.6 8.2 30.3-.1 7.7-5.4 14.3-12.8 16.2l-7.8 2 12.4-48.5z"/><path class="st37" d="M665.8 506.7s6.2 20.5.6 31.7c-4.2 8.5-9.6 13.8-11.9 15.8-.7.6-1.2 1-1.2 1l-8.1-4.3s-3.9-64.7 9.2-50.9c5.3 5.4 8.5 8.1 11.4 6.7z"/><path class="st14" d="M508.7 570.6s4.2.9 1.1 1.5-10.9.2-8.7-7c2.2-7.2 14.1-42.4 17.4-48.3 3.3-5.8 6.5-7.7 8.8-7.9 2.2-.2 4.4 4.8 4.5 6.7.2 1.9-23.1 55-23.1 55z"/><path class="st38" d="M536.7 570.1s-9.3 3.6-20.1 3.1-12.7-2.4-11.7-8.6c1-6.2 9.1-32.8 14.1-42.2 5-9.3 7.4-11.8 10.5-10.4 3.1 1.4 3.1 7.1 1.2 14.6-1.9 7.4-4 9.7-2.7 20.7 1.4 11 8.7 22.8 8.7 22.8z"/><path class="st16" d="M504.8 568.4c-.2-1.1-.1-2.3.1-3.9 1-6.2 9.1-32.8 14.1-42.2 1.9-3.5 3.4-6.1 4.7-7.8"/><path class="st39" d="M565.1 521.5s-10.1 3.2-17 6.8c-3.3 1.7-1.4 9.3 3 9.3s17.8-12 17.8-12l-3.8-4.1z"/><path class="st16" d="M518.5 536.7s1 1.5 5.2 2.2c2.4.4 3.5-.1 4-.6m9.9 28.1s-10.9 5.4-25.8 6.3c0 0-7.1-.5-7-4.3"/><path class="st22" d="M602.9 528.7s-39.9 8.4-47.4 8.9c-6.8.5-24.2.1-27.4 0-.3 0-.6.2-.6.5-.5 2.4-2.6 12.5.1 20.6 3.1 9.3 10.3 18.4 18.6 17.9 8.2-.5 24.2-10.8 33.6-12.4 9.4-1.5 43.9-6.7 55-8.8 11.1-2.1 21.3-13.3 23.2-22.8 1.9-9.5 2.6-11-1.3-10.2l-53.8 6.3z"/><path class="st39" d="M625.7 476.4c5 0 9-4 9-9s-4-9-9-9-9 4-9 9 4 9 9 9z"/><path class="st5" d="M615.1 462.5l12.1 3.4s3.1-3.1 5.2-1.7c2.1 1.4 1.8 3.7 0 5.8-1.8 2.1.3 3.9 3.3 3.6 3.1-.3 6.7 1 9.3 8 2.6 7 24.5 25.2 40.7 19.8 16.2-5.4 13.7-27.5 8.5-34.2-5.2-6.7-16.8-2.1-21.9 1-5.2 3.1-11.1 1.5-17.5-5.7s-14.4-10.1-21.6-10c-6.5 0-9.3 4.9-9.3 4.9s-6.7-1.8-8.8 5.1z"/><path class="st14" d="M608.1 503c.1.2 11.7-20.3 23.3-21.7 11.7-1.4 26.8 29 25.2 41.3 0 0-2.3 4.1-7.3 4.8-5 .7-6.4.7-6.4.7s-34.3 1.2-44.2-10.2c-9.9-11.4-12-15.3-12-15.3s9.2-8.5 9.6-13.5c0-.2 8.1 5 11.8 13.9z"/><path class="st25" d="M597.2 502.1s-4.6-3.1-.9-4.3c3.7-1.2 4.9 3.1 4.3 4.6-.6 1.5.6-7.1 2.8-4.6 2.2 2.5 3.1 6.2.9 6.2s-2.9-.1-2.9-.1 4.7 3.2 1.9 4.4c-2.8 1.2-6.5-2.8-5.5-3.7.9-.9-3.7 3.6-4.5.5-.8-3.4 1.4-5.2 3.9-3z"/><path class="st22" d="M623.7 531.5c-2.2-10-22.6-24.8-30.4-22.3-7.8 2.5-36.9 28.7-36.9 28.7s33.3 12.8 33.3 13.3c.2.5 34-19.7 34-19.7z"/><path class="st39" d="M585.6 515.2s-5.4-2.6-8.8-1.4c-12 4.3-15.9 8.8-20.7 13.9-4.7 5.1-10 6-10 12 0 2.5 4.4 3.5 10.6 0 5.2-3 9.9-7 9.9-7s-1.7 2.8.9 4.9c2.6 2.1 13.4-5.9 16.4-13.4 3-7.4 1.7-9 1.7-9z"/><path class="st16" d="M561 523c-8 6-14.8 13.1-14.8 16.7"/><path class="st39" d="M595.8 491.1c0-.2-3.2-6.1-6.8-9.8-3.6-3.8-8-3.8-10.2-3.3-2.3.5-6 5-6 5s-6.3 1.2-5.2 6.2c1.2 5 6.1 2.8 6.1 2.8s-4.8 2.1-3.1 5.5c1.7 3.5 5.8 1.5 5.8 1.5s-4.5 2.3-2.7 5.6c1.8 3.3 8.6 1 10-2.2 0 0 1.2 2 3.1.1 1.9-1.9 9.4-5.6 9-11.4z"/><path class="st3" d="M572.7 483s-6.3 1.2-5.2 6.2c1.2 5 6.1 2.8 6.1 2.8s-4.8 2.1-3.1 5.5c1.7 3.5 5.8 1.5 5.8 1.5s-4.5 2.3-2.7 5.6c1.8 3.3 8.6 1 10-2.2"/><path class="st16" d="M522.1 528s6 3.7 9.7 3.4"/><path class="st19" d="M523.9 559.6c.5-2.1-.4-4.2-2.1-4.6-1.6-.4-3.4 1-3.9 3.1s.4 4.2 2.1 4.6c1.6.4 3.4-1 3.9-3.1z"/><path class="st40" d="M619.4 466.4s-1.9 2.3-.3 3.1c1.7.8 3.1-2.1 3.1-2.1"/><path class="st3" d="M534.6 560s29.4-9.6 54.3-16.2"/><path class="st25" d="M650.3 509.3s-6-5.1-3.2-7c2.9-1.9 5.7 3.2 5.7 5.1 0 1.9 2.2 1.6 2.2 4.5s-1.9 1.6-1.9 1.6 3.8 2.9.3 4.8-7-2.5-5.4-4.8c1.6-2.2-7.6-.6-6-3.2 1.6-2.6 3.5-3.9 8.3-1z"/><path class="st14" d="M639.1 492.6s9.1 7 6.5 26.3c-2.5 19.3-4.5 19.2-5.9 19.7-1.4.4-39.6 7.8-60.9-5.8 0 0 4.2-6.6 5.2-12.9l.9-6.3s9.6-.1 15.5 1c6.7 1.2 17.8 4.2 17.8 4.2s-.9-6.3 1.1-17.9c2-11.7 8.5-14.1 8.5-14.1"/><path class="st16" d="M639.1 492.6s9.1 7 6.5 26.3c-2.5 19.3-4.5 19.2-5.9 19.7m-54.9-24.9s9.6-.1 15.5 1c6.7 1.2 17.8 4.2 17.8 4.2s-.9-6.3 1.1-17.9c2-11.7 8.5-14.1 8.5-14.1"/><path class="st5" d="M589.4 498.1l-7.7 7.2-10.7-24.2c-.6-1.5-.2-3.2 1-4.3l7.6-6.5 5.6 15.6 4.2 12.2z"/><path class="st38" d="M588.5 495.3l-6.4 6-8.8-20.2c-.5-1.2-.2-2.7.8-3.5l6.3-5.4 4.6 12.9 3.5 10.2z"/><path class="st39" d="M588.5 485.1c-1.1-.2-3 0-5.7.5-2.6.5-3.9 3.1-2.7 6.4 1.2 3.4 5 2.8 7.9 1.9"/><path class="st3" d="M588.5 485.1c-1.1-.2-3 0-5.7.5-2.6.5-3.9 3.1-2.7 6.4 1.2 3.4 5 2.8 7.9 1.9"/><path class="st16" d="M573.6 524.4s-5.5 4-7 8.4"/><path class="st3" d="M576.9 481.2l6.4-5.4m-4.9 9.2l6.4-5.4m-9.2 11.5l-1.9.9m5 5.8l-2.4 1.3m76.2 34.8l3.4 5.2s2-3.2 2-6.4"/><path class="st25" d="M629.3 501c-.8-3.1-1.3-5.1-4.1-4.1-2.9 1-.6 6.7-.6 6.7-2.1-1.8-2.6-2.4-4.3.1-1.7 2.5 4.1 3 4.1 3-2.2 1.3-3.1 4.5.4 6.5 3.5 1.9 3.2-6.4 3.2-6.4s1.1 4.7 3 4.1c1.9-.6 1.2-4.2-1-6.4 0 0 5.6-.4 4.1-3.5-1.6-3.2-3.8-2.6-4.8 0zm-19.4 29.2s-5.4-4.9-.7-6.1c4.7-1.2 4.9 1.2 4.2 3.7 0 0 2.8-3.3 4.4 0 1.6 3.3.7 7.2-1.4 6.1-2.1-1.2-3-3-3-3s3.3 6.1 0 5.6-4.4-2.8-3.3-3.7c1.2-.9-5.8 2.3-5.4-.7.5-3.1 2.2-3.8 5.2-1.9zm33.1-1.1c1.6-.7 1-4.1-1.1-5.3-2.1-1.2-3.1 4.8-2.4 1.5.7-3.3-2.8-4.4-5.8-2.3s1.9 4.4 1.9 4.4c-4.2-.5-5.4-.1-3.8 2.2 1.6 2.3 5.4.1 5.4.1s-2.4-.1-2.8 2.9c-.5 3 3.7 3.7 4.4 1.1v-3.1s.7 3.6 2.4 2.3c3.9-3-.4-3.9-.4-3.9l2.2.1zm-27.1-27.5s-5.9-1.2-4.7 1.4c1.2 2.6 3.3 2 3.3 2s-3.9 1.2-2.4 2.6c1.6 1.4 2.6 1.4 3.5-.2 1-1.6 1.6-5.9 1.6-5.9s2.4-3.9 1.2-4.7c-1.1-.9-3.3-.1-2.5 4.8zm21.9-16.7s-2.3-2.5-3.2.4c-.9 2.8.7 3.7 2 2.5 0 0 1.2 2.8 2.8 1.2s-.2-2.5-.2-2.5 1.8-.7.2-2c-1.6-1.2-1.6.4-1.6.4zm-55.2 39.9s-1.4 5.1 2.3 4.3c3.7-.8 2.5-5.1.8-5.5-1.6-.4 4.5 3.7 4.5-.2 0-3.9-1-5.1-2.9-4.1-1.8 1 .4-1.2-1.6-1.8-2.1-.6-1-.7-1.7 2.5-.8 3.2-1.4 4.8-1.4 4.8z"/><path class="st36" d="M653.4 555.1s-6.2 1.2-7.2 4.5l4.9 2.3 2.3-6.8z"/><path class="st41" d="M666.2 506.7s5.7-2.4 5.7-2.3c-1 2.2-.9 4.3-.9 4.3l-4.8-2z"/><path class="st23" d="M630.5 414.1l-5.1-2.4-8.8.2-4.9 2.9-4.5 6.1 14.7 20.8 13.6-21.9-5-5.7z"/><path class="st24" d="M607.2 420.9c.7.4 7.1 4.5 7.1 4.5l15.1-.6 6.1-5"/><path class="st24" d="M617.1 418.5l-2.8 6.8 7.6 16.3 7.5-16.9-3.4-6.4-8.9.2z"/><path class="st24" d="M611.8 414.8l5.4 3.8 8.9-.2 4.5-4.3"/><circle class="st10" cx="1486.2" cy="492" r="7.5"/><circle class="st10" cx="1557.8" cy="217.5" r="35"/><circle class="st5" cx="1545.8" cy="287.5" r="11"/><circle class="st71" cx="1597.8" cy="381.5" r="24"/></svg>