<svg width="48" height="48" fill="none" xmlns="http://www.w3.org/2000/svg"><g clip-path="url(#a)"><path d="M.004 41.188c.778-1.979 1.563-3.955 2.333-5.936 3.61-9.295 7.216-18.589 10.819-27.884.418-1.08.843-1.368 2.008-1.368h4.5c1.079 0 1.52.299 1.908 1.297 3.683 9.484 7.366 18.967 11.05 28.447a1186.61 1186.61 0 0 1 1.986 5.125c.336.87 0 1.356-.928 1.357h-4.779c-.625 0-.82-.14-1.045-.725-.847-2.204-1.692-4.408-2.535-6.613-.305-.794-.436-.886-1.265-.886H10.654c-.75 0-.911.108-1.179.805L6.94 41.42c-.27.702-.424.807-1.176.807-1.547 0-3.093-.015-4.64.01-.5.007-.88-.132-1.124-.581l.004-.467Zm17.381-12.965h4.17c.913 0 1.28-.522.954-1.369a6799.01 6799.01 0 0 0-4.258-11.091c-.157-.412-.4-.707-.875-.703-.475.004-.712.306-.875.717-1.416 3.698-2.832 7.396-4.249 11.092-.322.844.045 1.354.968 1.356 1.386.004 2.78-.002 4.165-.002Z" fill="#1CAFA1"/><path d="M47.994 41.656c-.241.447-.614.613-1.125.578-.466-.032-.936 0-1.404-.007-.662 0-.83-.114-1.083-.746a2315.73 2315.73 0 0 1-1.724-4.277c-.25-.605-.438-.746-1.086-.746h-6.183c-.215 0-.431.036-.693.06-.29-.746-.585-1.515-.875-2.279-.326-.838-.666-1.673-.971-2.52a.955.955 0 0 1 0-.61 970.329 970.329 0 0 1 2.817-7.4c.348-.908.86-1.243 1.855-1.257h1.875c1.072 0 1.56.341 1.94 1.34l6.476 16.966c.055.144.125.284.187.424l-.006.474Zm-9.513-8.484c.625 0 1.25.009 1.875 0 .462-.009.624-.241.46-.667a268.162 268.162 0 0 0-1.92-4.739.622.622 0 0 0-.434-.33c-.125-.012-.327.18-.387.325a303.917 303.917 0 0 0-1.91 4.743c-.17.43-.011.66.451.668.618.007 1.241-.001 1.865-.001Z" fill="#94DAD6"/></g><defs><clipPath id="a"><path fill="#fff" d="M0 0h48v48H0z"/></clipPath></defs></svg>