<svg width="265" height="231" fill="none" xmlns="http://www.w3.org/2000/svg"><path d="M123.136 0H76.392v228.321h46.744V0Z" fill="#EF3A58"/><path d="M193.248 0h-46.74v228.321h46.74V0Z" fill="#F9BFD1"/><path d="M216.62 14.401h-23.372v213.916h23.372V14.401Z" fill="#82ECB7"/><path d="M76.392 14.401h-36.16v213.916h36.16V14.401Z" fill="#FBB54A"/><path d="M253.081 70.108h-36.158v158.214h36.158V70.108ZM40.232 87.47H10.55v140.854h29.682V87.471Z" fill="#18AFA1"/><path d="M146.508 44.794h-23.372v183.53h23.372V44.794Z" fill="#95D5D2"/><path d="m83.437 173.614-2.36 2.373 30.808 30.985 2.362-2.376-30.81-30.982Z" fill="#221F1F"/><path d="m111.954 173.528-30.81 30.982 2.362 2.373 30.81-30.982-2.362-2.373Zm75.819-130.411h-35.758v3.359h35.758v-3.359Zm0 8.957h-35.758v3.356h35.758v-3.356Zm42.204 155.531h-3.339c0-6.749 3.84-10.205 7.245-13.262 3.272-2.955 6.109-5.507 6.109-10.778 0-5.271-2.837-7.823-6.109-10.779-3.405-3.053-7.245-6.512-7.245-13.261s3.84-10.208 7.245-13.262c3.272-2.955 6.109-5.507 6.109-10.778 0-5.24-2.837-7.792-6.109-10.744-3.405-3.056-7.245-6.516-7.245-13.265 0-6.749 3.84-10.205 7.245-13.261 3.272-2.956 6.109-5.508 6.109-10.744h3.339c0 6.749-3.84 10.205-7.245 13.261-3.272 2.956-6.109 5.508-6.109 10.744 0 5.24 2.837 7.792 6.109 10.744 3.405 3.056 7.245 6.516 7.245 13.265 0 6.749-3.84 10.205-7.245 13.261-3.272 2.956-6.109 5.508-6.109 10.744 0 5.271 2.837 7.823 6.109 10.779 3.405 3.056 7.245 6.515 7.245 13.264s-3.84 10.206-7.245 13.262c-3.272 2.987-6.109 5.539-6.109 10.81ZM265 226.206H0v4.196h265v-4.196Z" fill="#221F1F"/></svg>