<svg width="48" height="48" fill="none" xmlns="http://www.w3.org/2000/svg"><path d="M4 25.29v-.856a3.723 3.723 0 0 1 .952-1.747C10.2 17.446 15.445 12.202 20.69 6.955a3.096 3.096 0 0 1 2.267-.947c4 0 8.012-.018 12.018 0 1.793.009 3.016 1.27 3.02 3.062.01 3.98 0 7.96 0 11.942a3.131 3.131 0 0 1-.948 2.306 22014.446 22014.446 0 0 1-15.742 15.723 3.407 3.407 0 0 1-1.228.78c-1.231.437-2.278.045-3.178-.857-3.82-3.826-7.643-7.65-11.47-11.468-.645-.636-1.221-1.295-1.429-2.205Zm23.777-11.297a2.186 2.186 0 0 0 2.148 2.247c1.168.034 2.172-.932 2.223-2.136.049-1.179-.938-2.206-2.156-2.242-1.175-.04-2.176.925-2.215 2.13Z" fill="#1CAFA1"/><path d="M41.05 9.002c1.37-.058 2.641 1.002 2.877 2.356.044.272.066.547.065.822 0 3.947 0 7.895.007 11.843a3.368 3.368 0 0 1-1.016 2.505c-4.804 4.817-9.604 9.637-14.4 14.463-1.39 1.393-3.338 1.346-4.583-.156.128-.087.25-.183.364-.287l15.676-15.74a3.247 3.247 0 0 0 1.017-2.451c-.02-4.279 0-8.55 0-12.827l-.007-.528Z" fill="#94DAD6"/></svg>