<svg width="48" height="48" fill="none" xmlns="http://www.w3.org/2000/svg"><path d="M43 26.562c-.06.46-.117.921-.18 1.419-.086-.064-.157-.123-.234-.173-.614-.393-1.234-.777-1.84-1.183-.139-.095-.295-.238-.334-.389-.215-.829-.6-1.553-1.224-2.123-.261-.24-.362-.512-.414-.844-.81-5.205-3.523-9.045-8.074-11.474-2.832-1.512-5.89-1.973-9.043-1.434-4.92.848-8.556 3.58-10.934 8.042a13.8 13.8 0 0 0-1.508 4.806c-.046.363-.152.658-.433.915-.613.561-.995 1.276-1.209 2.09-.035.14-.137.317-.254.365-.76.31-1.456.764-2.05 1.338a.937.937 0 0 1-.186.083c-.028-1.204-.117-2.363-.069-3.516.121-2.88.829-5.62 2.194-8.148 2.97-5.504 7.474-8.927 13.538-10.016 5.627-1.009 10.742.374 15.198 4.034 3.681 3.023 5.921 6.965 6.76 11.72.13.732.2 1.473.296 2.21v2.278Z" fill="#94DAD6"/><path d="M9.796 38.767c-.648-.175-1.263-.265-1.81-.503-1.289-.561-1.995-1.531-1.973-2.962.021-1.163.059-2.328-.007-3.488-.118-2.042 1.58-3.276 3.299-3.444.146-.015.294-.023.488-.038v-.92c0-1.071.485-1.782 1.488-2.197 1.221-.503 2.776-.097 3.39.94.199.35.306.743.311 1.144.022 4.139 0 8.278.018 12.41.005 1.522-1.393 2.363-2.73 2.286-1.068-.06-1.937-.486-2.343-1.531a2.705 2.705 0 0 1-.129-.79c-.018-.32-.002-.638-.002-.907ZM38.215 28.23c.651.175 1.266.264 1.813.503 1.29.562 1.995 1.533 1.97 2.964-.021 1.196-.043 2.4 0 3.598.063 1.616-1.094 2.771-2.495 3.17-.403.115-.828.156-1.293.24v.886c0 1.07-.487 1.782-1.491 2.194-1.223.503-2.777.097-3.39-.943-.2-.35-.306-.743-.311-1.143-.022-4.14 0-8.278-.018-12.41 0-1.513 1.387-2.362 2.735-2.284 1.085.063 1.968.498 2.35 1.569.117.324.095.697.122 1.048.02.218.008.44.008.608Z" fill="#1CAFA1"/></svg>