<svg width="664" height="621" fill="none" xmlns="http://www.w3.org/2000/svg"><path d="M622.223 585.795a9.307 9.307 0 1 0 0-18.614 9.307 9.307 0 0 0 0 18.614z" fill="#fff"/><path d="M551.147 451.682c14.72 0 26.653-11.933 26.653-26.653 0-14.72-11.933-26.653-26.653-26.653-14.72 0-26.653 11.933-26.653 26.653 0 14.72 11.933 26.653 26.653 26.653zm-94.345 167.535c8.412 0 15.23-6.819 15.23-15.23 0-8.411-6.818-15.23-15.23-15.23-8.411 0-15.23 6.819-15.23 15.23 0 8.411 6.819 15.23 15.23 15.23z" stroke="#fff" stroke-width="2.538"/><path d="M403.496 502.874a6.346 6.346 0 1 0 0-12.691 6.346 6.346 0 0 0 0 12.691z" fill="#EF4056"/><path d="M51.08 396.684c118.459 0 335.667 166.118 440.413 183.612 205.188 34.268 206.285-93.586 103.652-105.767-167.535-19.885-285.571 203.918-593.987 0" stroke="#fff" stroke-width="2.538"/><path d="M133.578 558.719c14.253 0 25.807-11.554 25.807-25.807 0-14.253-11.554-25.807-25.807-25.807-14.252 0-25.807 11.554-25.807 25.807 0 14.253 11.555 25.807 25.807 25.807z" fill="#EF4056"/><path d="M417.093 535.614l-1.34-.732-2.92-1.632-3.038-1.716-3.048-1.651-46.627-25.768-.035-.204-.126-1.339-.065-.009.065.009-.072-1.264-.26-3.933.021-5.342.122-10.342.015-2.703.032-1.513 3.511-3.557 11.76-11.804 6.404-2.194 6.127-2.103 18.78.613 5.644.199 1.771.072 2.761 1.805 2.522 1.638 1.147.702 1.018.683.184.094 4.806 3.107 1.083.692-.412 2.709-8.927 59.549-.903 5.934z" fill="#95D2FF"/><path d="M412.768 533.24l-3.038-1.716-3.048-1.651-18.276-22.577-.338-.381c-.119-.085-.164-.223-.209-.362l-.747-2.027-5.919-15.748-.244-.565c-.224-.694.087-1.439.781-1.663.694-.225 1.438.087 1.663.781l.333.842 5.984 15.758.558 1.537.666.827 21.834 26.945zm4.326 2.373l-1.341-.731-3.267-46.623-.113-1.865-1.037-.554-15.231-8.322-.79-.45c-.605-.356-.884-1.124-.519-1.794.357-.606 1.125-.885 1.795-.519l.909.534 15.782 8.604.973.544c.367.188.631.624.701 1.03l.06.471 3.064 43.623-.986 6.052z" fill="#000"/><path d="M381.946 489.025l-.193-.03-22.159-7.462a1.273 1.273 0 0 1-.806-1.64 1.273 1.273 0 0 1 1.64-.807l21.469 7.226 12.897-11.038 3.676-11.583c.237-.69.951-1.043 1.65-.871.69.237 1.043.951.871 1.651l-3.799 11.96c-.104.248-.198.431-.421.595l-13.734 11.769c-.362.209-.704.288-1.091.23zm44.977-18.894l-11.992 15.927-.262.422c-.074.054-.158.173-.232.228l-1.962 1.615-21.54 17.972-.986.84c-.297.218-.649.363-.972.314l-.516-.079-28.322-3.384-.126-1.339-.064-.01.064.01-.071-1.265.193.029 27.022 3.253 1.558.171.986-.84 21.615-18.026 1.357-1.113.579-.77 12.991-17.292 1.082.693-.402 2.644z" fill="#000"/><path d="M277.553 292.608s2.951-13.021-13.949-29.163c-16.899-16.142-51.584-36.949-88.46-37.802-36.876-.853-67.622 4.061-67.622 4.061l-2.39-20.114s43.776-7.4 84.766-4.253c40.989 3.147 87.526 19.918 97.01 29.553 9.483 9.635 25.228 36.57 28.129 41.741 2.9 5.171-6.379 27.217-6.379 27.217l-31.105-11.24z" fill="#00CB77"/><path d="M106.113 217.834s83.448-34.797 157.313 17.891c22.281 15.892 37.965 42.499 43.919 55.16 5.955 12.66 31.129 19.872 31.129 19.872s19.468-30.169 2.796-53.55c-16.672-23.38-61.2-66.383-94.571-74.223-33.371-7.841-131.591 6.742-143.446 10.779l2.86 24.071z" fill="#1CB0A8"/><path d="M336.727 273.348l15.568 26.104 1.335-9.963s23.834-31.153-3.285-64.572c-27.121-33.418-49.598-67.136-101.23-69.126-51.632-1.991-143.701 11.737-148.443 17.64-1.022 9.725 3.905 32.857 3.905 32.857s70.036-26.935 122.647-14.574c89.506 21.027 109.503 81.634 109.503 81.634z" fill="#FCB643"/><path d="M98.051 161.276s75.263-53.642 152.705-37.541c61.956 12.882 120.243 85.619 122.317 153.067l-17.985 6.534s4.226-42.753-34.211-74.203c-106.81-87.41-219.887-23.127-219.887-23.127l-2.939-24.73z" fill="#EF4056"/><path d="M280.394 300.626S273 358.265 264.089 380.27c-8.912 22.001-24.406 72.158-2.967 100.972 21.439 28.814 89.02 40.183 102.266 11.973 13.245-28.21 1.821-24.947-16.523-33.482s-35.131-53.873 1.052-67.903c36.183-14.03 63.249 17.58 60.061 34.254-3.19 16.674-27.312 35.637 6.34 39.09 33.652 3.453 44.345-28.717 44.345-28.717s61.543 27.013 45.452-61.128c0 0 45.281 5.385 40.966-24.627-4.314-30.012-36.612-46.633-98.418-56.672-61.806-10.039-72.107-17.747-72.107-17.747s18.099-41.051-39.608-14.847c-7.428 3.371 6.451 32.721 4.283 33.622-3.181 1.324-10.176-30.114-20.661-26.676-14.692 4.816-37.015 7.39-44.427 14.76-7.408 7.373 6.251 17.484 6.251 17.484z" fill="#FCB643" stroke="#FEB69F" stroke-width=".548" stroke-miterlimit="10"/><path d="M318.574 268.381c-14.693 4.816-37.015 7.391-44.428 14.761-7.408 7.372 6.248 17.48 6.248 17.48" stroke="#000" stroke-width="3" stroke-miterlimit="10" stroke-linecap="round" stroke-linejoin="round"/><path d="M339.234 295.058c-3.182 1.323-10.177-30.115-20.661-26.677-14.693 4.816-37.016 7.391-44.428 14.761" stroke="#000" stroke-width="3" stroke-miterlimit="10" stroke-linecap="round" stroke-linejoin="round"/><path d="M339.232 295.058c2.168-.902-11.712-30.251-4.284-33.622 57.707-26.205 39.609 14.847 39.609 14.847 8.317 5.301 19.165 9.362 37.771 11.164" stroke="#000" stroke-width="3" stroke-miterlimit="10" stroke-linecap="round" stroke-linejoin="round"/><path d="M384.928 340.92s93.003 48.412 75.796 94.438m-81.066-122.331s125.703 16.671 127.711 75.26" stroke="#000" stroke-width="4" stroke-miterlimit="10" stroke-linecap="round" stroke-linejoin="round"/><path d="M317.41 279.87a2.987 2.987 0 1 0-1.386-5.814 2.988 2.988 0 1 0 1.386 5.814zm24.275-9.572a2.989 2.989 0 1 0-1.387-5.815 2.989 2.989 0 0 0 1.387 5.815z" stroke="#1A1A1A" stroke-width="3"/></svg>