<svg width="664" height="621" fill="none" xmlns="http://www.w3.org/2000/svg"><path d="M372.643 481.782l-1.334-.745-2.905-1.661-3.023-1.745-3.034-1.681-46.398-26.222-.033-.204-.113-1.34-.065-.011.065.011-.06-1.266-.222-3.937.072-5.343.22-10.344.041-2.705.046-1.513 3.546-3.525 11.877-11.696 6.428-2.133 6.149-2.046 18.78.793 5.645.252 1.771.089 2.744 1.832 2.508 1.662 1.141.714 1.011.693.183.095 4.779 3.154 1.076.703-.438 2.706-9.498 59.485-.959 5.928z" fill="#95D2FF"/><path d="M368.339 479.366l-3.023-1.745-3.033-1.682-18.067-22.759-.335-.384c-.118-.086-.162-.225-.205-.364l-.729-2.035-5.771-15.81-.238-.568c-.218-.696.1-1.438.797-1.656.696-.218 1.438.101 1.656.797l.326.846 5.835 15.821.544 1.542.658.834 21.585 27.163zm4.303 2.416l-1.334-.745-2.824-46.671-.094-1.866-1.033-.564-15.157-8.47-.786-.458c-.602-.362-.874-1.133-.502-1.8.362-.603 1.134-.875 1.801-.502l.903.543 15.706 8.757.968.554c.366.191.626.63.692 1.037l.056.472 2.649 43.667-1.045 6.046z" fill="#000"/><path d="M337.929 434.841l-.194-.031-22.095-7.676a1.274 1.274 0 0 1-.791-1.649 1.274 1.274 0 0 1 1.649-.791l21.407 7.433 13.007-10.919 3.788-11.552c.243-.688.961-1.034 1.659-.855.688.243 1.034.961.855 1.659l-3.914 11.928c-.106.247-.202.43-.427.592l-13.851 11.641c-.364.206-.707.283-1.093.22zM383.1 416.37l-12.148 15.818-.266.419c-.075.054-.16.173-.235.227l-1.978 1.597-21.719 17.772-.994.831c-.299.216-.653.357-.975.305l-.515-.083-28.3-3.656-.114-1.341-.064-.01.064.01-.059-1.266.193.032 27.001 3.511 1.556.186.994-.831 21.795-17.826 1.368-1.101.587-.764 13.16-17.175 1.076.703-.427 2.642z" fill="#000"/><path d="M235.372 237.36s3.076-12.998-13.675-29.307c-16.752-16.308-51.251-37.453-88.132-38.658-36.88-1.205-62.032 3.225-62.032 3.225l-6.495-20.374s42.505-6.562 83.48-3.024c40.974 3.539 87.368 20.759 96.763 30.488 9.395 9.729 24.888 36.824 27.741 42.024 2.852 5.201-6.641 27.166-6.641 27.166l-31.009-11.54z" fill="#00CB77"/><path d="M67.607 160.723s80.785-33.812 154.174 19.599c22.138 16.11 37.574 42.876 43.41 55.598 5.836 12.722 30.95 20.176 30.95 20.176s19.762-29.995 3.307-53.542c-16.455-23.547-60.589-66.991-93.897-75.152-33.308-8.161-125.289 5.354-137.186 9.279-11.898 3.926-.758 24.042-.758 24.042z" fill="#1CB0A8"/><path d="M294.752 218.657l15.324 26.262 1.431-9.955s24.139-30.937-2.671-64.625c-26.812-33.689-48.975-67.633-100.607-70.116-51.632-2.484-131.845 4.788-136.645 10.648-4.8 5.86-6.733 29.513-6.733 29.513s68.625-17.301 121.136-4.434c89.338 21.887 108.765 82.707 108.765 82.707z" fill="#FCB643"/><path d="M57.058 104.27s75.801-52.943 153.117-36.099c61.856 13.477 119.47 86.796 120.902 154.288l-18.054 6.364s4.635-42.728-33.516-74.556c-106.014-88.459-219.745-25.23-219.745-25.23l-2.704-24.767z" fill="#EF4056"/><path d="M238.137 245.407s-7.946 57.59-17.07 79.517c-9.124 21.924-25.102 71.952-3.931 100.981 21.172 29.028 88.67 41.045 102.189 12.951 13.519-28.093 2.059-24.938-16.21-33.651-18.269-8.713-34.63-54.227 1.7-67.917 36.33-13.69 63.104 18.189 59.756 34.838-3.351 16.65-27.661 35.39 5.969 39.165 33.631 3.774 44.635-28.305 44.635-28.305s61.307 27.609 46.051-60.716c0 0 45.246 5.818 41.216-24.246-4.03-30.064-36.182-46.998-97.914-57.63-61.732-10.632-71.963-18.441-71.963-18.441s18.496-40.893-39.481-15.229c-7.463 3.301 6.142 32.793 3.964 33.675-3.195 1.294-9.893-30.223-20.414-26.883-14.743 4.678-37.099 7.04-44.584 14.342-7.481 7.305 6.087 17.549 6.087 17.549z" fill="#FCB643" stroke="#FEB69F" stroke-width=".464" stroke-miterlimit="10"/><path d="M276.638 213.515c-14.744 4.678-37.1 7.04-44.585 14.342-7.481 7.305 6.083 17.547 6.083 17.547" stroke="#000" stroke-width="2.538" stroke-miterlimit="10" stroke-linecap="round" stroke-linejoin="round"/><path d="M297.052 240.398c-3.196 1.294-9.893-30.222-20.414-26.883-14.744 4.678-37.1 7.04-44.585 14.342" stroke="#000" stroke-width="2.538" stroke-miterlimit="10" stroke-linecap="round" stroke-linejoin="round"/><path d="M297.048 240.399c2.178-.882-11.427-30.373-3.964-33.675 57.977-25.664 39.481 15.23 39.481 15.23 8.269 5.382 19.083 9.548 37.678 11.528" stroke="#000" stroke-width="2.538" stroke-miterlimit="10" stroke-linecap="round" stroke-linejoin="round"/><path d="M342.323 286.712s92.576 49.316 74.924 95.194m-79.929-123.147s125.588 17.875 127.038 76.504" stroke="#000" stroke-width="3.385" stroke-miterlimit="10" stroke-linecap="round" stroke-linejoin="round"/><path d="M275.364 224.997a2.99 2.99 0 1 0-1.33-5.829 2.99 2.99 0 0 0 1.33 5.829zm24.375-9.344a2.99 2.99 0 1 0-1.331-5.83 2.99 2.99 0 0 0 1.331 5.83z" stroke="#1A1A1A" stroke-width="2.538"/><circle cx="622.223" cy="576.488" r="9.307" fill="#1A1A1A"/><circle cx="551.147" cy="425.029" r="26.653" stroke="#1A1A1A" stroke-width="2.538"/><circle cx="456.803" cy="603.987" r="15.23" stroke="#1A1A1A" stroke-width="2.538"/><circle cx="403.496" cy="496.528" r="6.346" fill="#EF4056"/><path d="M51.08 396.684c118.46 0 335.668 166.118 440.414 183.612 205.188 34.268 206.285-93.586 103.652-105.767-167.535-19.885-285.571 203.918-593.987 0" stroke="#000" stroke-width="2.538"/><circle cx="133.579" cy="532.912" r="25.807" fill="#EF4056"/></svg>
