<svg width="1140" height="1211" viewBox="0 0 1140 1211" fill="none" xmlns="http://www.w3.org/2000/svg">
<path d="M779.004 755.107C760.397 688.338 686.422 663.893 651.305 646.106C616.187 628.32 526.25 587.456 485.751 482.377C445.252 377.298 380.67 331.057 327.038 307.702C273.406 284.346 29.039 223.88 2.13086 1.77393" stroke="white" stroke-width="2.73643" stroke-linecap="round" stroke-linejoin="round"/>
<path d="M499.432 603.236C504.973 603.236 509.466 598.743 509.466 593.202C509.466 587.661 504.973 583.168 499.432 583.168C493.891 583.168 489.398 587.661 489.398 593.202C489.398 598.743 493.891 603.236 499.432 603.236Z" fill="white"/>
<path d="M777.635 673.471C783.177 673.471 787.669 668.978 787.669 663.437C787.669 657.896 783.177 653.403 777.635 653.403C772.094 653.403 767.602 657.896 767.602 663.437C767.602 668.978 772.094 673.471 777.635 673.471Z" fill="white"/>
<path d="M605.696 567.662C608.467 567.662 610.713 565.416 610.713 562.645C610.713 559.874 608.467 557.628 605.696 557.628C602.926 557.628 600.68 559.874 600.68 562.645C600.68 565.416 602.926 567.662 605.696 567.662Z" fill="#FCB643"/>
<path d="M795.423 444.523C800.713 444.523 805.001 440.235 805.001 434.946C805.001 429.656 800.713 425.368 795.423 425.368C790.134 425.368 785.846 429.656 785.846 434.946C785.846 440.235 790.134 444.523 795.423 444.523Z" fill="#FCB643"/>
<path d="M590.191 460.942C595.48 460.942 599.768 456.654 599.768 451.364C599.768 446.075 595.48 441.787 590.191 441.787C584.901 441.787 580.613 446.075 580.613 451.364C580.613 456.654 584.901 460.942 590.191 460.942Z" fill="#1CB0A8"/>
<path d="M586.543 366.079C597.877 366.079 607.066 356.891 607.066 345.556C607.066 334.221 597.877 325.033 586.543 325.033C575.208 325.033 566.02 334.221 566.02 345.556C566.02 356.891 575.208 366.079 586.543 366.079Z" fill="#00CB77"/>
<path d="M796.335 520.231C799.106 520.231 801.352 517.985 801.352 515.214C801.352 512.443 799.106 510.197 796.335 510.197C793.564 510.197 791.318 512.443 791.318 515.214C791.318 517.985 793.564 520.231 796.335 520.231Z" fill="#82ECB7"/>
<path d="M507.642 723.182C519.481 723.182 529.078 713.585 529.078 701.747C529.078 689.909 519.481 680.312 507.642 680.312C495.804 680.312 486.207 689.909 486.207 701.747C486.207 713.585 495.804 723.182 507.642 723.182Z" stroke="white" stroke-width="2.73643" stroke-linecap="round" stroke-linejoin="round"/>
<path d="M875.692 368.36C884.76 368.36 892.111 361.009 892.111 351.941C892.111 342.873 884.76 335.522 875.692 335.522C866.624 335.522 859.273 342.873 859.273 351.941C859.273 361.009 866.624 368.36 875.692 368.36Z" stroke="white" stroke-width="2.73643" stroke-linecap="round" stroke-linejoin="round"/>
<path d="M466.595 551.699C478.434 551.699 488.031 542.102 488.031 530.264C488.031 518.425 478.434 508.829 466.595 508.829C454.757 508.829 445.16 518.425 445.16 530.264C445.16 542.102 454.757 551.699 466.595 551.699Z" stroke="white" stroke-width="2.73643"/>
<path d="M481.646 466.414C497.011 466.414 509.467 453.959 509.467 438.594C509.467 423.229 497.011 410.774 481.646 410.774C466.282 410.774 453.826 423.229 453.826 438.594C453.826 453.959 466.282 466.414 481.646 466.414Z" fill="#EF4056"/>
<path d="M732.014 630.687L674.582 576.815L704.886 556.763L732.014 630.687Z" fill="#00CB77"/>
<path d="M808.263 661.915L805.061 583.235L840.729 590.175L808.263 661.915Z" fill="#FCB643"/>
<path d="M854.312 711.067C859.71 699.777 867.865 703.676 873.255 692.402C878.646 681.128 870.491 677.229 875.889 665.939C881.288 654.648 889.443 658.547 894.833 647.273C900.231 635.983 892.076 632.084 897.475 620.794C902.873 609.503 911.028 613.402 916.419 602.128C921.817 590.838 913.662 586.939 919.06 575.649C924.459 564.358 932.615 568.257 938.013 556.967" stroke="white" stroke-width="2.73643" stroke-miterlimit="10"/>
<path d="M601.465 699.996C609.912 696.699 614.086 687.178 610.788 678.731C607.491 670.284 597.97 666.11 589.523 669.408C581.076 672.705 576.902 682.226 580.199 690.673C583.497 699.12 593.018 703.294 601.465 699.996Z" fill="#EF4056"/>
<path d="M824.615 728.534C826.65 733.746 824.221 739.459 819.343 741.364C814.464 743.268 808.807 740.712 806.772 735.5C804.737 730.289 807.166 724.575 812.045 722.671C816.924 720.766 822.581 723.323 824.615 728.534Z" stroke="white" stroke-width="2.73643"/>
<path d="M421.45 332.502C423.484 337.714 421.056 343.427 416.177 345.332C411.298 347.237 405.641 344.68 403.606 339.468C401.572 334.257 404 328.543 408.879 326.639C413.758 324.734 419.415 327.291 421.45 332.502Z" stroke="white" stroke-width="2.73643"/>
<path d="M929.512 474.299C929.229 475.238 928.145 476.239 925.627 476.959C923.181 477.658 919.756 477.973 915.547 477.859C907.151 477.632 895.956 475.705 883.977 472.103C871.998 468.502 861.596 463.936 854.466 459.496C850.893 457.27 848.21 455.118 846.555 453.186C844.851 451.197 844.498 449.764 844.781 448.825C845.063 447.885 846.148 446.885 848.665 446.165C851.112 445.466 854.537 445.15 858.745 445.264C867.142 445.492 878.336 447.419 890.315 451.02C902.295 454.622 912.696 459.187 919.826 463.628C923.399 465.853 926.083 468.006 927.738 469.938C929.441 471.927 929.794 473.36 929.512 474.299Z" stroke="#DCEAFF" stroke-width="2.73643"/>
<path d="M902.39 504.759C901.383 505.084 899.884 504.75 897.827 503.11C895.819 501.51 893.574 498.886 891.242 495.372C886.59 488.361 881.771 478.073 877.925 466.173C874.08 454.273 871.968 443.11 871.638 434.702C871.472 430.488 871.758 427.046 872.449 424.574C873.158 422.04 874.178 420.892 875.185 420.567C876.192 420.242 877.691 420.575 879.749 422.215C881.756 423.816 884.002 426.439 886.333 429.953C890.985 436.965 895.805 447.253 899.65 459.153C903.495 471.053 905.607 482.216 905.938 490.624C906.103 494.838 905.817 498.279 905.126 500.752C904.417 503.285 903.397 504.433 902.39 504.759Z" stroke="#DCEAFF" stroke-width="2.73643"/>
<path d="M848.158 485.436C848.798 486.402 850.245 487.116 852.895 487.167C855.493 487.217 858.912 486.614 862.949 485.361C871.006 482.862 881.217 477.876 891.64 470.973C902.064 464.069 910.639 456.613 916.083 450.17C918.812 446.941 920.702 444.029 921.669 441.617C922.656 439.157 922.563 437.546 921.924 436.58C921.284 435.614 919.836 434.9 917.187 434.849C914.588 434.798 911.169 435.402 907.132 436.654C899.075 439.154 888.864 444.14 878.441 451.043C868.018 457.947 859.443 465.403 853.998 471.846C851.269 475.074 849.38 477.987 848.412 480.399C847.425 482.858 847.518 484.47 848.158 485.436Z" stroke="#DCEAFF" stroke-width="2.73643"/>
<path d="M886.522 462.626C888.21 463.134 889.991 462.177 890.498 460.488C891.006 458.8 890.049 457.019 888.36 456.512C886.672 456.004 884.891 456.961 884.384 458.65C883.876 460.338 884.833 462.119 886.522 462.626Z" stroke="#DCEAFF" stroke-width="2.73643"/>
<path d="M786.17 208.113L766.245 198.343L731.952 198.607L712.506 209.693L694.328 233.273L750.308 315.6L804.964 230.853L786.17 208.113Z" fill="#95D2FF" stroke="#95D2FF" stroke-width="3.1925"/>
<path d="M694.453 233.118C697.172 234.806 721.841 251.207 721.841 251.207L781.02 249.734L805.091 230.681" stroke="#231F20" stroke-width="3.1925" stroke-miterlimit="10" stroke-linecap="round" stroke-linejoin="round"/>
<path d="M733.42 224.782L721.842 251.206L750.436 315.436L781.02 249.742L768.282 224.5L733.42 224.782Z" stroke="#231F20" stroke-width="3.1925" stroke-miterlimit="10" stroke-linecap="round" stroke-linejoin="round"/>
<path d="M712.633 209.53L733.419 224.783L768.281 224.501L786.297 207.95" stroke="#231F20" stroke-width="3.1925" stroke-miterlimit="10" stroke-linecap="round" stroke-linejoin="round"/>
<path d="M688.088 267.568L663.916 280.794" stroke="white" stroke-width="2.73643" stroke-linecap="round"/>
<path d="M673.79 236.861L646.287 238.529" stroke="white" stroke-width="2.73643" stroke-linecap="round"/>
<path d="M678.484 210.863L655.871 195.12" stroke="white" stroke-width="2.73643" stroke-linecap="round"/>
<path d="M811.227 261.081L835.398 274.307" stroke="white" stroke-width="2.73643" stroke-linecap="round"/>
<path d="M825.523 230.374L853.026 232.043" stroke="white" stroke-width="2.73643" stroke-linecap="round"/>
<path d="M820.83 204.376L843.443 188.633" stroke="white" stroke-width="2.73643" stroke-linecap="round"/>
<path fill-rule="evenodd" clip-rule="evenodd" d="M884.814 953.927C885.636 947.398 886.059 940.748 886.059 934C886.059 845.634 813.529 774 724.059 774C634.588 774 562.059 845.634 562.059 934C562.059 956.743 566.863 978.377 575.524 997.967C626.544 982.086 692.449 967.009 768.569 960.259C809.429 956.636 848.59 954.701 884.814 953.927Z" fill="#FFD25E"/>
<path d="M456.922 1046.52C501.907 1018.29 639.602 959.127 826.956 956.6" stroke="white" stroke-width="3" stroke-linecap="round"/>
<path d="M968.059 962.999C984.751 963.683 1038.4 966.277 1088.06 972.993M1119.56 977.999C1113.42 976.849 1107.06 975.78 1100.56 974.789" stroke="white" stroke-width="3" stroke-linecap="round"/>
<path d="M871.249 913.679C871.249 912.999 858.343 904.849 854.721 903.717C851.099 902.585 859.475 917.529 859.475 917.529L871.249 913.679Z" fill="#FF2350"/>
<path d="M876.916 927.289C876.779 927.546 864.192 905.16 851.469 903.594C838.745 902.027 824.077 929.823 825.829 943.194C825.829 943.194 826.483 953.108 831.921 953.844C837.361 954.581 838.928 954.581 838.928 954.581C838.928 954.581 876.27 955.871 887.058 943.424C897.845 930.976 900.151 926.735 900.151 926.735C900.151 926.735 891.282 918.205 890.912 912.671C890.912 912.673 879.703 922.057 876.916 927.289Z" fill="#FCB643"/>
<path d="M926.4 954.168C927.036 953.22 928.946 948.623 936.37 949.472C943.794 950.322 944.431 951.806 947.188 955.413C947.188 955.413 971.373 952.866 975.827 953.079C978.675 953.214 984.1 942.048 986.01 936.108C987.92 930.168 990.041 934.198 990.041 934.198L982.191 965.529C982.191 965.529 974.977 970.687 967.766 971.96C960.553 973.233 946.128 976.618 936.37 971.106L923.006 971.96L926.4 954.168Z" fill="#FCB643"/>
<path d="M929.188 948.228C929.188 949.271 927.521 975.741 927.521 975.741C927.991 977.444 892.984 975.63 883.75 966.153C878.668 960.938 886.876 941.558 886.876 941.558C886.876 941.558 905.218 940.932 928.773 946.768L929.188 948.228Z" fill="#FF2350"/>
<path d="M915.448 975.897C910.177 975.03 888.82 978.889 873.624 973.561C860.353 977.431 847.203 976.82 841.335 975.73C829.257 973.483 821.037 962.644 822.421 952.13C823.927 940.686 823.686 942.498 827.931 943.452L882.39 947.776C882.39 947.776 906.629 955.376 914.775 955.936" fill="#FF2350"/>
<path d="M914.378 958.168C918.265 957.742 919.401 953.714 918.122 952.017C916.842 950.32 908.581 952.017 908.581 952.017L895.604 954.235L914.378 958.168Z" fill="#FCB643"/>
<path d="M849.525 895.429C855.831 895.429 860.943 890.317 860.943 884.011C860.943 877.705 855.831 872.593 849.525 872.593C843.219 872.593 838.107 877.705 838.107 884.011C838.107 890.317 843.219 895.429 849.525 895.429Z" fill="#FCB643"/>
<path d="M856.956 890.37C856.956 890.37 856.956 888.732 855.744 888.046C854.532 887.359 853.224 890.44 853.224 890.44C853.224 890.44 852.559 893.275 855.744 894.336C857.245 894.835 861.091 890.838 859.657 889.645C858.486 888.669 856.956 890.37 856.956 890.37Z" fill="#FF2350"/>
<path d="M890.311 914.344C890.328 914.083 893.822 907.75 897.754 903.613C901.687 899.478 906.443 899.478 908.909 900.039C911.377 900.602 915.449 905.516 915.449 905.516C915.449 905.516 922.33 906.781 921.068 912.258C919.803 917.736 914.467 915.348 914.467 915.348C914.467 915.348 919.664 917.594 917.837 921.386C916.012 925.177 911.516 923.072 911.516 923.072C911.516 923.072 916.431 925.544 914.465 929.153C912.498 932.762 905.055 930.235 903.51 926.724C903.51 926.724 902.252 928.873 900.149 926.811C898.048 924.749 889.889 920.645 890.311 914.344Z" fill="#FCB643"/>
<path d="M915.451 905.517C915.451 905.517 922.332 906.781 921.069 912.259C919.805 917.736 914.469 915.348 914.469 915.348C914.469 915.348 919.666 917.595 917.839 921.386C916.014 925.178 911.518 923.072 911.518 923.072C911.518 923.072 916.433 925.545 914.467 929.154C912.5 932.762 905.057 930.236 903.512 926.724" stroke="#1A1A1A" stroke-width="1.5" stroke-miterlimit="10" stroke-linecap="round" stroke-linejoin="round"/>
<path d="M898.316 918.965L905.291 925.518L915.67 899.335C916.254 897.997 915.892 896.434 914.781 895.487L907.876 889.614L902.04 907.915L898.316 918.965Z" fill="#FFFBE0"/>
<path d="M898.317 907.765C899.549 907.591 901.642 907.75 904.497 908.328C907.352 908.906 908.709 911.689 907.445 915.346C906.18 919.002 896.648 917.982 893.559 917" fill="#FCB643"/>
<path d="M898.316 907.765C899.548 907.591 901.641 907.75 904.496 908.328C907.351 908.906 908.709 911.689 907.444 915.346C906.179 919.002 901.967 918.44 898.877 917.458" stroke="#1A1A1A" stroke-width="1.5" stroke-miterlimit="10" stroke-linecap="round" stroke-linejoin="round"/>
<path d="M910.957 903.539L903.963 897.619" stroke="#1A1A1A" stroke-width="1.5" stroke-miterlimit="10" stroke-linecap="round"/>
<path d="M909.258 907.698L902.264 901.777" stroke="#1A1A1A" stroke-width="1.5" stroke-miterlimit="10" stroke-linecap="round"/>
<path d="M912.369 914.34L914.468 915.348" stroke="#1A1A1A" stroke-width="1.5" stroke-miterlimit="10" stroke-linecap="round" stroke-linejoin="round"/>
<path d="M908.91 921.601L911.52 923.072" stroke="#1A1A1A" stroke-width="1.5" stroke-miterlimit="10" stroke-linecap="round" stroke-linejoin="round"/>
<path d="M860.538 892.18C860.538 892.18 855.795 894.034 848.68 887.518" stroke="#1A1A1A" stroke-width="1.5" stroke-miterlimit="10" stroke-linecap="round"/>
<path d="M855.75 884.455C856.302 884.455 856.75 884.008 856.75 883.455C856.75 882.903 856.302 882.455 855.75 882.455C855.198 882.455 854.75 882.903 854.75 883.455C854.75 884.008 855.198 884.455 855.75 884.455Z" fill="black"/>
<path d="M833.611 877.782C833.611 877.782 830.793 887.203 836.981 892.424L840.913 887.394C840.913 887.394 837.355 883.485 840.54 880.491C843.723 877.495 846.345 883.02 846.345 883.02L864.322 874.875C864.322 874.875 862.128 869.445 854.612 869.632C854.612 869.632 848.69 863.679 841.761 867.051C834.832 870.421 835.288 875.251 835.288 875.251" fill="#1A1A1A"/>
<path d="M911.128 947.776L899.671 966.948L895.604 964.11L908.157 946.292L911.128 947.776Z" fill="#00CF6E"/>
<path d="M848.156 908.245C848.156 908.245 862.42 908.925 869.438 911.867C876.456 914.811 883.022 921.829 881.212 928.169C879.402 934.509 873.74 936.547 873.74 936.547C873.74 936.547 883.48 941.588 886.874 941.557C890.268 941.527 887.326 950.583 887.326 950.583L854.95 948.319L848.156 908.245Z" fill="#FF2350"/>
<path d="M833.709 921.286C833.033 922.298 833.768 939.191 825.309 942.413C820.846 944.115 839.614 946.863 839.614 946.863L833.709 921.286Z" fill="#FF2350"/>
<path d="M870.051 949.029C870.051 949.029 868.275 924.017 852.523 910.707C843.4 902.998 831.422 913.983 833.036 926.181C834.97 940.775 839.891 949.029 843.546 954.057C847.202 959.085 854.474 964.566 864.319 967.308C874.163 970.05 892.44 974.163 892.44 974.163C892.44 974.163 901.579 982.389 907.977 981.018C914.376 979.647 914.832 973.251 914.832 973.251C914.832 973.251 920.316 968.682 917.118 964.112C917.118 964.112 921.309 959.235 914.376 958.172C914.376 958.172 906.68 956.701 895.602 954.239C888.173 952.586 879.224 949.946 870.051 949.029Z" fill="#FCB643"/>
<path d="M870.051 949.029C870.051 949.029 868.275 924.017 852.523 910.707C843.4 902.998 831.422 913.983 833.036 926.181" stroke="#1A1A1A" stroke-width="1.5" stroke-miterlimit="10" stroke-linecap="round"/>
<path d="M906.885 966.444C906.885 966.444 913.353 968.564 917.12 964.11" stroke="#1A1A1A" stroke-width="1.5" stroke-miterlimit="10" stroke-linecap="round"/>
<path d="M899.672 971.96C899.672 971.96 907.724 975.389 914.835 973.251" stroke="#1A1A1A" stroke-width="1.5" stroke-miterlimit="10" stroke-linecap="round"/>
<path d="M845.153 920.334C845.153 920.334 845.633 917.864 848.681 918.077C851.729 918.29 853.474 923.804 849.526 926.351C845.576 928.897 845.576 928.897 845.576 928.897C845.576 928.897 842.182 926.542 840.06 923.476C837.937 920.41 839.036 917.864 841.928 917.332C844.937 916.776 845.153 920.334 845.153 920.334Z" fill="#FF2350"/>
<path d="M977.949 951.593L978.831 969.401L977.056 969.946C975.655 970.694 975.079 968.456 975.155 966.87L975.829 953.077C975.829 953.079 977.949 949.201 977.949 951.593Z" fill="#FF2350"/>
<path d="M985.799 936.532C985.799 936.532 987.92 942.896 985.799 948.836C983.679 954.776 977.949 962.361 978.162 966.948C978.375 971.535 981.345 971.324 983.889 970.898C986.436 970.474 993.01 967.876 994.92 966.948C996.233 966.309 995.742 963.678 995.305 962.096C995.127 961.451 994.44 961.086 993.808 961.305C991.987 961.94 988.43 962.842 986.962 960.871C984.95 958.17 988.13 957.838 991.526 954.716C994.92 951.593 998.203 946.533 996.93 936.139C995.657 925.745 993.013 925.078 990.042 925.288C987.072 925.501 986.012 928.682 986.225 931.228C986.436 933.775 985.799 936.532 985.799 936.532Z" fill="#FF2350"/>
<path d="M978.162 966.948C978.162 966.948 978.158 964.756 976.576 965.97" stroke="#1A1A1A" stroke-width="1.5" stroke-miterlimit="10" stroke-linecap="round"/>
<path d="M990.675 935.587C990.675 935.587 987.879 933.886 985.812 935.222" stroke="#1A1A1A" stroke-width="1.5" stroke-miterlimit="10" stroke-linecap="round"/>
<path d="M994.077 967.187C994.321 966.457 995.051 963.541 992.984 961.231" stroke="#1A1A1A" stroke-width="1.5" stroke-miterlimit="10" stroke-linecap="round"/>
<path d="M914.342 948.953C914.342 948.953 923.226 955.35 924.293 950.374C925.36 945.399 925.004 939.18 921.984 938.292C918.964 937.403 915.587 941.668 915.587 941.668C915.587 941.668 923.761 935.094 917.543 932.073C911.324 929.053 903.902 929.221 904.926 936.338C904.926 936.338 903.735 925.464 896.396 930.183C887.622 935.824 897.641 940.425 901.549 943.624C905.458 946.82 914.342 948.953 914.342 948.953Z" fill="#FF5780"/>
<path d="M896.396 930.181C887.622 935.822 897.641 940.423 901.549 943.622" stroke="#1A1A1A" stroke-width="1.5" stroke-miterlimit="10" stroke-linecap="round"/>
<path d="M907.57 952.638C908.263 953.101 918.201 951.252 919.587 946.861C920.973 942.47 918.822 939.589 915.587 941.668C915.587 941.668 919.585 937.099 914.52 934.205C910.79 932.074 907.342 934.683 906.879 937.225C906.879 937.225 907.107 932.995 902.253 933.918C897.399 934.842 897.862 939.926 899.711 942.931C901.56 945.936 905.026 951.02 905.026 951.02L907.57 952.638Z" fill="#FFB211"/>
<path d="M907.412 953.394C907.944 953.751 916.133 954.211 916.652 948.951C917 945.427 915.409 943.443 912.922 945.042C912.922 945.042 915.942 943.621 912.211 941.134C908.481 938.646 907.414 940.777 907.057 942.733C907.057 942.733 907.057 938.29 903.327 939.002C899.596 939.713 899.95 943.621 901.371 945.933C902.792 948.243 905.458 952.151 905.458 952.151L907.412 953.394Z" fill="#FF5780"/>
<path d="M900.58 955.437L911.415 957.883" stroke="#1A1A1A" stroke-width="1.5" stroke-miterlimit="10" stroke-linecap="round"/>
<path d="M947.204 959.782C947.204 959.782 949.376 953.066 941.672 950.696" stroke="#1A1A1A" stroke-width="1.5" stroke-miterlimit="10" stroke-linecap="round"/>
<path d="M905.998 894.264L912.594 899.585" stroke="#1A1A1A" stroke-width="1.5" stroke-miterlimit="10" stroke-linecap="round"/>
<path d="M910.256 894.603C910.575 894.603 910.834 894.344 910.834 894.025C910.834 893.706 910.575 893.447 910.256 893.447C909.936 893.447 909.678 893.706 909.678 894.025C909.678 894.344 909.936 894.603 910.256 894.603Z" fill="black"/>
<path d="M832.261 877.404C839 877.404 844.463 871.941 844.463 865.202C844.463 858.463 839 853 832.261 853C825.522 853 820.059 858.463 820.059 865.202C820.059 871.941 825.522 877.404 832.261 877.404Z" fill="#1A1A1A"/>
<path d="M681.297 504.605L634.297 449.105L661.297 407.105H681.297L721.297 457.105L699.297 500.105L681.297 504.605Z" fill="#95D5D2"/>
<path d="M707.5 463.5L723 458L706.13 436.5L704 440L693.5 442L681.5 426.5L689 414.5L699.5 413L711 428.5L706.13 436.5L723 458L698 500L681.5 503.5L707.5 463.5Z" fill="#95D5D2"/>
<path d="M661.5 407L707.5 463.5M661.5 407H681.5L688.179 415M661.5 407L634 449.5L642.5 459.163M707.5 463.5L723 458M707.5 463.5L681.5 503.5M723 458L698 500L681.5 503.5M723 458L706.13 436.5M693.5 442L681.5 426.5L689 414.5M693.5 442L704 440L711 428.5M693.5 442L701 428.5M711 428.5L699.5 413L689 414.5M711 428.5H701M689 414.5L701 428.5M681.5 503.5L662 481.332" stroke="black" stroke-width="3" stroke-linecap="round" stroke-linejoin="round"/>
<ellipse cx="662" cy="424" rx="4.5" ry="4" transform="rotate(38.0692 662 424)" fill="#95D5D2" stroke="black" stroke-width="3" stroke-linecap="round" stroke-linejoin="round"/>
<ellipse cx="657.141" cy="465.157" rx="16.1055" ry="15.9131" transform="rotate(135.742 657.141 465.157)" fill="#95D5D2" stroke="black" stroke-width="3" stroke-linecap="round" stroke-linejoin="round"/>
<path d="M658 448.5L673.5 447.5C677.167 448.667 684.7 453.1 685.5 461.5C686.5 472 684.5 476.5 679 478.5C673.5 480.5 662.5 481 656.5 481" stroke="black" stroke-width="3" stroke-linecap="round" stroke-linejoin="round"/>
<path d="M660.5 449C656.5 449 648.5 453.2 648.5 466C648.5 478.8 662.5 479.5 666.5 478" stroke="black" stroke-width="3" stroke-linecap="round" stroke-linejoin="round"/>
</svg>
