<svg width="1155" height="1247" viewBox="0 0 1155 1247" fill="none" xmlns="http://www.w3.org/2000/svg">
<g clip-path="url(#clip0)">
<path d="M791.202 827.395C770.802 754.195 689.702 727.395 651.202 707.895C612.702 688.395 514.102 643.595 469.702 528.395C425.302 413.195 354.5 362.5 295.702 336.895C236.904 311.29 -31 245 -60.5 1.5" stroke="black" stroke-width="3" stroke-linecap="round" stroke-linejoin="round"/>
<path d="M484.702 660.895C490.777 660.895 495.702 655.97 495.702 649.895C495.702 643.82 490.777 638.895 484.702 638.895C478.627 638.895 473.702 643.82 473.702 649.895C473.702 655.97 478.627 660.895 484.702 660.895Z" fill="#1A1A1A"/>
<path d="M789.702 737.895C795.777 737.895 800.702 732.97 800.702 726.895C800.702 720.82 795.777 715.895 789.702 715.895C783.627 715.895 778.702 720.82 778.702 726.895C778.702 732.97 783.627 737.895 789.702 737.895Z" fill="#1A1A1A"/>
<path d="M601.202 621.895C604.24 621.895 606.702 619.433 606.702 616.395C606.702 613.357 604.24 610.895 601.202 610.895C598.165 610.895 595.702 613.357 595.702 616.395C595.702 619.433 598.165 621.895 601.202 621.895Z" fill="#FCB643"/>
<path d="M809.202 486.895C815.001 486.895 819.702 482.194 819.702 476.395C819.702 470.596 815.001 465.895 809.202 465.895C803.403 465.895 798.702 470.596 798.702 476.395C798.702 482.194 803.403 486.895 809.202 486.895Z" fill="#FCB643"/>
<path d="M584.202 504.895C590.001 504.895 594.702 500.194 594.702 494.395C594.702 488.596 590.001 483.895 584.202 483.895C578.403 483.895 573.702 488.596 573.702 494.395C573.702 500.194 578.403 504.895 584.202 504.895Z" fill="#1CB0A8"/>
<path d="M580.202 400.895C592.629 400.895 602.702 390.821 602.702 378.395C602.702 365.969 592.629 355.895 580.202 355.895C567.776 355.895 557.702 365.969 557.702 378.395C557.702 390.821 567.776 400.895 580.202 400.895Z" fill="#00CB77"/>
<path d="M810.202 569.895C813.24 569.895 815.702 567.433 815.702 564.395C815.702 561.357 813.24 558.895 810.202 558.895C807.165 558.895 804.702 561.357 804.702 564.395C804.702 567.433 807.165 569.895 810.202 569.895Z" fill="#82ECB7"/>
<path d="M493.702 792.395C506.681 792.395 517.202 781.874 517.202 768.895C517.202 755.916 506.681 745.395 493.702 745.395C480.723 745.395 470.202 755.916 470.202 768.895C470.202 781.874 480.723 792.395 493.702 792.395Z" stroke="#1A1A1A" stroke-width="3" stroke-linecap="round" stroke-linejoin="round"/>
<path d="M897.202 403.395C907.143 403.395 915.202 395.336 915.202 385.395C915.202 375.454 907.143 367.395 897.202 367.395C887.261 367.395 879.202 375.454 879.202 385.395C879.202 395.336 887.261 403.395 897.202 403.395Z" stroke="#1A1A1A" stroke-width="3" stroke-linecap="round" stroke-linejoin="round"/>
<path d="M448.702 604.395C461.681 604.395 472.202 593.874 472.202 580.895C472.202 567.916 461.681 557.395 448.702 557.395C435.723 557.395 425.202 567.916 425.202 580.895C425.202 593.874 435.723 604.395 448.702 604.395Z" stroke="#1A1A1A" stroke-width="3"/>
<path d="M465.202 510.895C482.047 510.895 495.702 497.24 495.702 480.395C495.702 463.55 482.047 449.895 465.202 449.895C448.357 449.895 434.702 463.55 434.702 480.395C434.702 497.24 448.357 510.895 465.202 510.895Z" fill="#EF4056"/>
<path d="M739.687 690.991L676.723 631.929L709.946 609.946L739.687 690.991Z" fill="#00CB77"/>
<path d="M823.279 725.226L819.769 638.968L858.873 646.576L823.279 725.226Z" fill="#FCB643"/>
<path d="M873.763 779.113C879.681 766.735 888.622 771.01 894.531 758.65C900.441 746.29 891.501 742.015 897.419 729.638C903.337 717.26 912.278 721.535 918.188 709.175C924.106 696.797 915.165 692.522 921.084 680.144C927.002 667.766 935.942 672.041 941.852 659.681C947.77 647.303 938.83 643.028 944.748 630.651C950.666 618.273 959.607 622.548 965.525 610.17" stroke="#221F1F" stroke-width="3" stroke-miterlimit="10"/>
<path d="M596.562 766.976C605.823 763.36 610.399 752.922 606.784 743.662C603.168 734.402 592.731 729.825 583.47 733.44C574.21 737.056 569.633 747.493 573.249 756.754C576.864 766.014 587.302 770.591 596.562 766.976Z" fill="#EF4056"/>
<path d="M841.207 798.262C843.438 803.976 840.775 810.24 835.427 812.328C830.078 814.416 823.876 811.613 821.645 805.899C819.415 800.186 822.077 793.922 827.426 791.834C832.775 789.746 838.977 792.549 841.207 798.262Z" stroke="black" stroke-width="3"/>
<path d="M399.207 364.085C401.438 369.798 398.775 376.062 393.427 378.15C388.078 380.238 381.876 377.435 379.645 371.721C377.415 366.008 380.077 359.744 385.426 357.656C390.775 355.568 396.977 358.371 399.207 364.085Z" stroke="black" stroke-width="3"/>
<path d="M956.208 519.539C955.898 520.569 954.709 521.666 951.949 522.455C949.267 523.221 945.512 523.567 940.898 523.442C931.693 523.193 919.42 521.08 906.287 517.132C893.154 513.183 881.75 508.178 873.934 503.31C870.016 500.87 867.075 498.51 865.26 496.392C863.392 494.212 863.005 492.641 863.315 491.611C863.625 490.581 864.814 489.484 867.574 488.695C870.256 487.929 874.011 487.583 878.625 487.708C887.83 487.957 900.103 490.07 913.236 494.018C926.369 497.967 937.772 502.972 945.589 507.84C949.507 510.28 952.448 512.64 954.263 514.758C956.13 516.938 956.517 518.509 956.208 519.539Z" stroke="#1A1A1A" stroke-width="3"/>
<path d="M926.471 552.932C925.367 553.289 923.724 552.923 921.469 551.125C919.268 549.371 916.806 546.495 914.25 542.642C909.149 534.956 903.866 523.676 899.65 510.63C895.435 497.584 893.119 485.346 892.757 476.128C892.576 471.508 892.889 467.735 893.647 465.024C894.424 462.247 895.542 460.988 896.646 460.632C897.75 460.275 899.394 460.641 901.649 462.439C903.85 464.193 906.312 467.069 908.868 470.922C913.968 478.609 919.252 489.888 923.467 502.934C927.683 515.98 929.999 528.219 930.361 537.436C930.542 542.056 930.229 545.829 929.471 548.54C928.694 551.317 927.575 552.576 926.471 552.932Z" stroke="#1A1A1A" stroke-width="3"/>
<path d="M867.017 531.749C867.718 532.808 869.305 533.591 872.21 533.647C875.058 533.702 878.807 533.04 883.233 531.667C892.066 528.927 903.26 523.461 914.688 515.892C926.115 508.324 935.516 500.149 941.485 493.086C944.476 489.546 946.548 486.353 947.609 483.709C948.69 481.012 948.589 479.246 947.888 478.187C947.186 477.127 945.599 476.345 942.694 476.289C939.846 476.234 936.097 476.895 931.671 478.269C922.839 481.009 911.644 486.475 900.217 494.043C888.79 501.612 879.389 509.786 873.419 516.85C870.428 520.389 868.356 523.582 867.295 526.227C866.214 528.923 866.315 530.69 867.017 531.749Z" stroke="#1A1A1A" stroke-width="3"/>
<path d="M909.075 506.742C910.926 507.298 912.878 506.249 913.435 504.398C913.991 502.547 912.942 500.595 911.091 500.038C909.239 499.482 907.288 500.531 906.731 502.382C906.175 504.233 907.224 506.185 909.075 506.742Z" stroke="#1A1A1A" stroke-width="3"/>
<path d="M799.059 227.714L777.214 217.003L739.619 217.292L718.3 229.446L698.37 255.297L759.743 345.554L819.663 252.644L799.059 227.714Z" fill="#95D2FF" stroke="#95D2FF" stroke-width="3.5"/>
<path d="M698.506 255.128C701.487 256.978 728.532 274.959 728.532 274.959L793.412 273.344L819.802 252.456" stroke="#231F20" stroke-width="3.5" stroke-miterlimit="10" stroke-linecap="round" stroke-linejoin="round"/>
<path d="M741.226 245.989L728.533 274.958L759.88 345.375L793.411 273.352L779.446 245.68L741.226 245.989Z" stroke="#231F20" stroke-width="3.5" stroke-miterlimit="10" stroke-linecap="round" stroke-linejoin="round"/>
<path d="M718.437 229.268L741.226 245.989L779.446 245.68L799.197 227.535" stroke="#231F20" stroke-width="3.5" stroke-miterlimit="10" stroke-linecap="round" stroke-linejoin="round"/>
<path d="M691.528 292.895L665.028 307.395" stroke="black" stroke-width="3" stroke-linecap="round"/>
<path d="M675.854 259.23L645.702 261.06" stroke="black" stroke-width="3" stroke-linecap="round"/>
<path d="M681 230.728L656.208 213.469" stroke="black" stroke-width="3" stroke-linecap="round"/>
<path d="M826.528 285.784L853.028 300.284" stroke="black" stroke-width="3" stroke-linecap="round"/>
<path d="M842.201 252.119L872.353 253.948" stroke="black" stroke-width="3" stroke-linecap="round"/>
<path d="M837.056 223.617L861.848 206.358" stroke="black" stroke-width="3" stroke-linecap="round"/>
<path d="M433.689 214.426C433.689 214.426 452.752 220.37 457.96 231.054C463.169 241.738 457.72 247.403 468.088 258.638C478.455 269.872 497.549 277.386 503.779 299.903C510.003 322.414 502.615 334.927 481.514 345.6C460.406 356.28 446.798 346.8 438.734 338.017C430.663 329.228 427.374 308.499 427.559 291.125C427.744 273.752 427.221 273.762 419.7 266.016C412.18 258.269 410.142 248.04 413.58 235.349C417.01 222.651 411.022 212.243 411.022 212.243L380.06 149.428C380.06 149.428 379.729 151.69 373.402 148.186C367.074 144.681 365.785 132.605 362.981 123.706C360.177 114.807 365.878 110.495 373.191 107.191C380.496 103.894 386.542 103.508 391.374 108.683C396.214 113.85 399.777 121.412 403.293 125.821C406.801 130.222 403.946 132.123 401.89 134.794C399.835 137.465 401.498 144.81 408.959 159.658C417.531 176.755 433.689 214.426 433.689 214.426Z" stroke="black" stroke-width="3" stroke-miterlimit="10" stroke-linecap="round" stroke-linejoin="round"/>
<path d="M382.864 131.466L424.915 217.114" stroke="black" stroke-width="3" stroke-miterlimit="10" stroke-linecap="round" stroke-linejoin="round"/>
<path d="M474.145 291.534C474.145 291.534 447.798 303.363 448.348 304.406C448.899 305.449 452.996 313.523 452.996 313.523L478.45 300.474L474.145 291.534Z" stroke="black" stroke-width="3" stroke-miterlimit="10" stroke-linecap="round" stroke-linejoin="round"/>
<path d="M429.149 252.959C433.739 257.374 441.038 257.232 445.452 252.642C449.866 248.053 449.724 240.754 445.134 236.339C440.545 231.925 433.246 232.067 428.832 236.657C424.417 241.246 424.559 248.545 429.149 252.959Z" stroke="black" stroke-width="3" stroke-miterlimit="10" stroke-linecap="round" stroke-linejoin="round"/>
<path d="M405.303 108.136L394.977 113.188" stroke="black" stroke-width="3" stroke-miterlimit="10" stroke-linecap="round" stroke-linejoin="round"/>
<path d="M411.555 118.283L401.809 123.006" stroke="black" stroke-width="3" stroke-miterlimit="10" stroke-linecap="round" stroke-linejoin="round"/>
<path d="M351.818 131.547L363.75 127.22" stroke="black" stroke-width="3" stroke-miterlimit="10" stroke-linecap="round" stroke-linejoin="round"/>
<path d="M356.239 142.515L366.295 138.132" stroke="black" stroke-width="3" stroke-miterlimit="10" stroke-linecap="round" stroke-linejoin="round"/>
<path fill-rule="evenodd" clip-rule="evenodd" d="M899.815 988.927C900.636 982.398 901.059 975.748 901.059 969C901.059 880.634 828.529 809 739.059 809C649.589 809 577.059 880.634 577.059 969C577.059 991.743 581.863 1013.38 590.524 1032.97C641.545 1017.09 707.45 1002.01 783.569 995.259C824.43 991.636 863.59 989.701 899.815 988.927Z" fill="#FFD25E"/>
<path d="M471.922 1081.52C516.907 1053.29 654.602 994.127 841.956 991.6" stroke="black" stroke-width="3" stroke-linecap="round"/>
<path d="M983.059 997.999C999.752 998.683 1053.4 1001.28 1103.06 1007.99M1134.56 1013C1128.42 1011.85 1122.06 1010.78 1115.56 1009.79" stroke="black" stroke-width="3" stroke-linecap="round"/>
<path d="M886.25 948.679C886.25 947.999 873.344 939.849 869.722 938.717C866.1 937.585 874.476 952.529 874.476 952.529L886.25 948.679Z" fill="#FF2350"/>
<path d="M891.917 962.289C891.78 962.546 879.193 940.16 866.47 938.594C853.746 937.027 839.078 964.823 840.83 978.194C840.83 978.194 841.484 988.108 846.922 988.844C852.362 989.581 853.929 989.581 853.929 989.581C853.929 989.581 891.271 990.871 902.059 978.424C912.846 965.976 915.152 961.735 915.152 961.735C915.152 961.735 906.283 953.205 905.913 947.671C905.913 947.673 894.704 957.057 891.917 962.289Z" fill="#FCB643"/>
<path d="M941.4 989.168C942.037 988.22 943.947 983.623 951.371 984.472C958.795 985.322 959.432 986.806 962.189 990.413C962.189 990.413 986.373 987.866 990.827 988.079C993.676 988.214 999.101 977.048 1001.01 971.108C1002.92 965.168 1005.04 969.198 1005.04 969.198L997.191 1000.53C997.191 1000.53 989.978 1005.69 982.766 1006.96C975.553 1008.23 961.128 1011.62 951.371 1006.11L938.006 1006.96L941.4 989.168Z" fill="#FCB643"/>
<path d="M944.188 983.228C944.188 984.271 942.521 1010.74 942.521 1010.74C942.991 1012.44 907.984 1010.63 898.75 1001.15C893.668 995.938 901.876 976.558 901.876 976.558C901.876 976.558 920.218 975.932 943.773 981.768L944.188 983.228Z" fill="#FF2350"/>
<path d="M930.45 1010.9C925.179 1010.03 903.821 1013.89 888.625 1008.56C875.354 1012.43 862.205 1011.82 856.336 1010.73C844.258 1008.48 836.039 997.644 837.423 987.13C838.929 975.686 838.687 977.498 842.933 978.452L897.392 982.776C897.392 982.776 921.631 990.376 929.776 990.936" fill="#FF2350"/>
<path d="M929.378 993.168C933.265 992.742 934.402 988.714 933.122 987.017C931.842 985.32 923.582 987.017 923.582 987.017L910.604 989.235L929.378 993.168Z" fill="#FCB643"/>
<path d="M864.525 930.429C870.831 930.429 875.943 925.317 875.943 919.011C875.943 912.705 870.831 907.593 864.525 907.593C858.219 907.593 853.107 912.705 853.107 919.011C853.107 925.317 858.219 930.429 864.525 930.429Z" fill="#FCB643"/>
<path d="M871.956 925.37C871.956 925.37 871.956 923.732 870.744 923.046C869.531 922.359 868.223 925.44 868.223 925.44C868.223 925.44 867.558 928.275 870.744 929.336C872.245 929.835 876.091 925.838 874.657 924.645C873.486 923.669 871.956 925.37 871.956 925.37Z" fill="#FF2350"/>
<path d="M905.312 949.344C905.329 949.083 908.823 942.75 912.755 938.613C916.688 934.478 921.444 934.478 923.91 935.039C926.378 935.602 930.45 940.516 930.45 940.516C930.45 940.516 937.331 941.781 936.069 947.258C934.804 952.736 929.468 950.348 929.468 950.348C929.468 950.348 934.665 952.594 932.838 956.386C931.013 960.177 926.517 958.072 926.517 958.072C926.517 958.072 931.432 960.544 929.466 964.153C927.499 967.762 920.056 965.235 918.511 961.724C918.511 961.724 917.253 963.873 915.15 961.811C913.049 959.749 904.89 955.645 905.312 949.344Z" fill="#FCB643"/>
<path d="M930.452 940.517C930.452 940.517 937.333 941.781 936.07 947.259C934.806 952.736 929.47 950.348 929.47 950.348C929.47 950.348 934.667 952.595 932.84 956.386C931.014 960.178 926.519 958.072 926.519 958.072C926.519 958.072 931.434 960.545 929.468 964.154C927.501 967.762 920.057 965.236 918.513 961.724" stroke="#1A1A1A" stroke-width="1.5" stroke-miterlimit="10" stroke-linecap="round" stroke-linejoin="round"/>
<path d="M913.318 953.965L920.292 960.518L930.671 934.335C931.256 932.997 930.893 931.434 929.783 930.487L922.878 924.614L917.042 942.915L913.318 953.965Z" fill="#FFFBE0"/>
<path d="M913.318 942.765C914.55 942.591 916.642 942.75 919.497 943.328C922.352 943.906 923.71 946.689 922.445 950.346C921.181 954.002 911.649 952.982 908.559 952" fill="#FCB643"/>
<path d="M913.318 942.765C914.55 942.591 916.642 942.75 919.497 943.328C922.352 943.906 923.71 946.689 922.445 950.346C921.181 954.002 916.968 953.44 913.878 952.458" stroke="#1A1A1A" stroke-width="1.5" stroke-miterlimit="10" stroke-linecap="round" stroke-linejoin="round"/>
<path d="M925.956 938.539L918.962 932.619" stroke="#1A1A1A" stroke-width="1.5" stroke-miterlimit="10" stroke-linecap="round"/>
<path d="M924.257 942.698L917.263 936.777" stroke="#1A1A1A" stroke-width="1.5" stroke-miterlimit="10" stroke-linecap="round"/>
<path d="M927.369 949.34L929.468 950.348" stroke="#1A1A1A" stroke-width="1.5" stroke-miterlimit="10" stroke-linecap="round" stroke-linejoin="round"/>
<path d="M923.91 956.601L926.519 958.072" stroke="#1A1A1A" stroke-width="1.5" stroke-miterlimit="10" stroke-linecap="round" stroke-linejoin="round"/>
<path d="M875.539 927.18C875.539 927.18 870.796 929.034 863.68 922.518" stroke="#1A1A1A" stroke-width="1.5" stroke-miterlimit="10" stroke-linecap="round"/>
<path d="M870.75 919.455C871.303 919.455 871.75 919.008 871.75 918.455C871.75 917.903 871.303 917.455 870.75 917.455C870.198 917.455 869.75 917.903 869.75 918.455C869.75 919.008 870.198 919.455 870.75 919.455Z" fill="black"/>
<path d="M848.612 912.782C848.612 912.782 845.794 922.203 851.982 927.424L855.915 922.394C855.915 922.394 852.356 918.485 855.541 915.491C858.724 912.495 861.347 918.02 861.347 918.02L879.324 909.875C879.324 909.875 877.129 904.445 869.614 904.632C869.614 904.632 863.691 898.679 856.762 902.051C849.833 905.421 850.29 910.251 850.29 910.251" fill="#1A1A1A"/>
<path d="M926.128 982.776L914.671 1001.95L910.604 999.11L923.158 981.292L926.128 982.776Z" fill="#00CF6E"/>
<path d="M863.156 943.245C863.156 943.245 877.42 943.925 884.438 946.867C891.456 949.811 898.022 956.829 896.212 963.169C894.402 969.509 888.74 971.547 888.74 971.547C888.74 971.547 898.48 976.588 901.874 976.557C905.268 976.527 902.326 985.583 902.326 985.583L869.95 983.319L863.156 943.245Z" fill="#FF2350"/>
<path d="M848.71 956.286C848.034 957.299 848.769 974.191 840.31 977.414C835.847 979.115 854.615 981.863 854.615 981.863L848.71 956.286Z" fill="#FF2350"/>
<path d="M885.051 984.029C885.051 984.029 883.276 959.017 867.524 945.707C858.4 937.998 846.422 948.983 848.037 961.181C849.97 975.775 854.892 984.029 858.546 989.057C862.203 994.085 869.475 999.566 879.319 1002.31C889.164 1005.05 907.441 1009.16 907.441 1009.16C907.441 1009.16 916.579 1017.39 922.978 1016.02C929.377 1014.65 929.833 1008.25 929.833 1008.25C929.833 1008.25 935.317 1003.68 932.119 999.112C932.119 999.112 936.31 994.235 929.377 993.172C929.377 993.172 921.681 991.701 910.602 989.239C903.174 987.586 894.224 984.946 885.051 984.029Z" fill="#FCB643"/>
<path d="M885.051 984.029C885.051 984.029 883.276 959.017 867.524 945.707C858.4 937.998 846.422 948.983 848.037 961.181" stroke="#1A1A1A" stroke-width="1.5" stroke-miterlimit="10" stroke-linecap="round"/>
<path d="M921.885 1001.44C921.885 1001.44 928.353 1003.56 932.12 999.11" stroke="#1A1A1A" stroke-width="1.5" stroke-miterlimit="10" stroke-linecap="round"/>
<path d="M914.671 1006.96C914.671 1006.96 922.723 1010.39 929.835 1008.25" stroke="#1A1A1A" stroke-width="1.5" stroke-miterlimit="10" stroke-linecap="round"/>
<path d="M860.153 955.334C860.153 955.334 860.634 952.864 863.682 953.077C866.73 953.29 868.475 958.804 864.527 961.35C860.577 963.897 860.577 963.897 860.577 963.897C860.577 963.897 857.183 961.542 855.061 958.476C852.938 955.41 854.037 952.864 856.929 952.331C859.938 951.775 860.153 955.334 860.153 955.334Z" fill="#FF2350"/>
<path d="M992.95 986.593L993.832 1004.4L992.057 1004.95C990.656 1005.69 990.08 1003.46 990.156 1001.87L990.83 988.077C990.83 988.079 992.95 984.201 992.95 986.593Z" fill="#FF2350"/>
<path d="M1000.8 971.532C1000.8 971.532 1002.92 977.896 1000.8 983.836C998.68 989.776 992.95 997.361 993.163 1001.95C993.376 1006.53 996.346 1006.32 998.89 1005.9C1001.44 1005.47 1008.01 1002.88 1009.92 1001.95C1011.23 1001.31 1010.74 998.678 1010.31 997.096C1010.13 996.451 1009.44 996.086 1008.81 996.305C1006.99 996.94 1003.43 997.841 1001.96 995.871C999.951 993.17 1003.13 992.838 1006.53 989.715C1009.92 986.593 1013.2 981.533 1011.93 971.139C1010.66 960.744 1008.01 960.077 1005.04 960.288C1002.07 960.501 1001.01 963.682 1001.23 966.228C1001.44 968.775 1000.8 971.532 1000.8 971.532Z" fill="#FF2350"/>
<path d="M993.163 1001.95C993.163 1001.95 993.158 999.756 991.577 1000.97" stroke="#1A1A1A" stroke-width="1.5" stroke-miterlimit="10" stroke-linecap="round"/>
<path d="M1005.68 970.587C1005.68 970.587 1002.88 968.886 1000.81 970.222" stroke="#1A1A1A" stroke-width="1.5" stroke-miterlimit="10" stroke-linecap="round"/>
<path d="M1009.08 1002.19C1009.32 1001.46 1010.05 998.541 1007.99 996.231" stroke="#1A1A1A" stroke-width="1.5" stroke-miterlimit="10" stroke-linecap="round"/>
<path d="M929.342 983.953C929.342 983.953 938.226 990.35 939.293 985.374C940.36 980.399 940.003 974.18 936.983 973.292C933.963 972.403 930.587 976.668 930.587 976.668C930.587 976.668 938.76 970.094 932.542 967.073C926.324 964.053 918.902 964.221 919.925 971.338C919.925 971.338 918.735 960.464 911.395 965.183C902.622 970.824 912.64 975.425 916.549 978.624C920.457 981.82 929.342 983.953 929.342 983.953Z" fill="#FF5780"/>
<path d="M911.395 965.181C902.622 970.822 912.64 975.423 916.549 978.622" stroke="#1A1A1A" stroke-width="1.5" stroke-miterlimit="10" stroke-linecap="round"/>
<path d="M922.569 987.638C923.263 988.101 933.201 986.252 934.587 981.861C935.973 977.47 933.822 974.589 930.587 976.668C930.587 976.668 934.585 972.099 929.52 969.205C925.789 967.074 922.341 969.683 921.879 972.225C921.879 972.225 922.107 967.995 917.253 968.918C912.399 969.842 912.862 974.926 914.711 977.931C916.56 980.936 920.025 986.02 920.025 986.02L922.569 987.638Z" fill="#FFB211"/>
<path d="M922.413 988.394C922.945 988.751 931.134 989.211 931.654 983.951C932.001 980.427 930.411 978.443 927.923 980.042C927.923 980.042 930.943 978.621 927.213 976.134C923.482 973.646 922.415 975.777 922.059 977.733C922.059 977.733 922.059 973.29 918.328 974.002C914.598 974.713 914.952 978.621 916.373 980.933C917.794 983.243 920.46 987.151 920.46 987.151L922.413 988.394Z" fill="#FF5780"/>
<path d="M915.58 990.437L926.415 992.883" stroke="#1A1A1A" stroke-width="1.5" stroke-miterlimit="10" stroke-linecap="round"/>
<path d="M962.204 994.782C962.204 994.782 964.377 988.066 956.672 985.696" stroke="#1A1A1A" stroke-width="1.5" stroke-miterlimit="10" stroke-linecap="round"/>
<path d="M920.999 929.264L927.595 934.585" stroke="#1A1A1A" stroke-width="1.5" stroke-miterlimit="10" stroke-linecap="round"/>
<path d="M925.257 929.603C925.576 929.603 925.835 929.344 925.835 929.025C925.835 928.706 925.576 928.447 925.257 928.447C924.938 928.447 924.679 928.706 924.679 929.025C924.679 929.344 924.938 929.603 925.257 929.603Z" fill="black"/>
<path d="M847.261 912.404C854 912.404 859.463 906.941 859.463 900.202C859.463 893.463 854 888 847.261 888C840.522 888 835.059 893.463 835.059 900.202C835.059 906.941 840.522 912.404 847.261 912.404Z" fill="#1A1A1A"/>
<path d="M667.5 440L713.5 496.5M667.5 440H687.5L694.179 448M667.5 440L640 482.5L648.5 492.163M713.5 496.5L729 491M713.5 496.5L687.5 536.5M729 491L704 533L687.5 536.5M729 491L712.13 469.5M699.5 475L687.5 459.5L695 447.5M699.5 475L710 473L717 461.5M699.5 475L707 461.5M717 461.5L705.5 446L695 447.5M717 461.5H707M695 447.5L707 461.5M687.5 536.5L668 514.332" stroke="black" stroke-width="3" stroke-linecap="round" stroke-linejoin="round"/>
<ellipse cx="668" cy="457" rx="4.5" ry="4" transform="rotate(38.0692 668 457)" stroke="black" stroke-width="3" stroke-linecap="round" stroke-linejoin="round"/>
<ellipse cx="663.14" cy="498.157" rx="16.1055" ry="15.9131" transform="rotate(135.742 663.14 498.157)" stroke="black" stroke-width="3" stroke-linecap="round" stroke-linejoin="round"/>
<path d="M664 481.5L679.5 480.5C683.167 481.667 690.7 486.1 691.5 494.5C692.5 505 690.5 509.5 685 511.5C679.5 513.5 668.5 514 662.5 514" stroke="black" stroke-width="3" stroke-linecap="round" stroke-linejoin="round"/>
<path d="M666.5 482C662.5 482 654.5 486.2 654.5 499C654.5 511.8 668.5 512.5 672.5 511" stroke="black" stroke-width="3" stroke-linecap="round" stroke-linejoin="round"/>
</g>
<defs>
<clipPath id="clip0">
<rect width="1155" height="1247" fill="white"/>
</clipPath>
</defs>
</svg>
