<svg width="1601" height="909" viewBox="0 0 1601 909" fill="none" xmlns="http://www.w3.org/2000/svg">
<g clip-path="url(#clip0)">
<path d="M1524.75 140C1425.26 171.02 1337.49 180.518 1240.95 211.386C1161.86 236.671 1094.08 289.401 1077.98 375.3C1050.89 519.77 1002.09 684 914.38 673C826.672 662 888.589 528.5 914.38 595.5C940.172 662.5 754.089 741 627.589 708C563.479 691.276 467.627 648.038 356 612.479C247.367 577.874 123.795 550.543 0.000488281 562" stroke="black" stroke-width="2" stroke-linecap="round" stroke-linejoin="round"/>
<path fill-rule="evenodd" clip-rule="evenodd" d="M1528.33 11.6462C1527.6 10.2752 1525.95 9.68241 1524.52 10.279L1319.89 95.5559L1318.29 84.3284C1317.83 81.1484 1314.54 79.2157 1311.54 80.3688L1266.79 97.5804C1264.86 98.3231 1263.59 100.178 1263.59 102.247V118.278L1254.57 122.013C1253.35 122.515 1252.61 123.749 1252.73 125.057L1271.81 334.493C1272.01 336.668 1274.39 337.909 1276.29 336.826L1599.4 152.328C1600.81 151.526 1601.32 149.752 1600.57 148.321L1528.33 11.6462Z" fill="white"/>
<path d="M1285.59 226L1276.59 152L1335.59 127.5L1349.09 195L1285.59 226Z" stroke="black" stroke-width="2" stroke-linecap="round" stroke-linejoin="round"/>
<path d="M1381.59 179.5C1376.92 162 1363.49 120.3 1363.09 117.5L1435.09 89.5L1459.59 144L1381.59 179.5Z" stroke="black" stroke-width="2" stroke-linecap="round" stroke-linejoin="round"/>
<path d="M1292.59 242.5L1356.09 211.5" stroke="black" stroke-width="2" stroke-linecap="round"/>
<path d="M1386.59 196L1466.09 160" stroke="black" stroke-width="2" stroke-linecap="round"/>
<path d="M1493.59 145L1559.09 114" stroke="black" stroke-width="2" stroke-linecap="round"/>
<path d="M1502.59 158L1564.09 128" stroke="black" stroke-width="2" stroke-linecap="round"/>
<path d="M1292.59 260.5L1356.59 228" stroke="black" stroke-width="2" stroke-linecap="round"/>
<path d="M1389.59 212L1472.59 173.5" stroke="black" stroke-width="2" stroke-linecap="round"/>
<path d="M1264.59 118.947L1254.95 122.937C1254.14 123.272 1253.64 124.094 1253.72 124.966L1272.81 334.402C1272.94 335.852 1274.53 336.679 1275.79 335.958L1598.91 151.46C1599.84 150.925 1600.19 149.743 1599.68 148.788L1527.44 12.1136C1526.96 11.1995 1525.86 10.8044 1524.9 11.2021L1319.09 96.9744" stroke="black" stroke-width="2" stroke-linecap="round"/>
<path d="M1264.59 119V102.247C1264.59 100.592 1265.61 99.108 1267.15 98.5138L1311.9 81.3022C1314.3 80.3797 1316.94 81.9259 1317.3 84.4699L1319.09 97" stroke="black" stroke-width="2" stroke-linecap="round"/>
<path d="M1292.19 192.5L1288.59 176.295L1293.54 178.446C1296.33 179.659 1299.53 179.529 1302.21 178.092C1304.38 176.935 1306.04 175.02 1306.88 172.715L1308.78 167.5L1324.24 171.164L1325.79 170.764C1332.59 169.009 1339.43 173.447 1340.59 180.366L1292.19 192.5Z" fill="#FF6682"/>
<path d="M1290.59 188.5L1339.59 177.5" stroke="black" stroke-width="2" stroke-linecap="round" stroke-linejoin="round"/>
<path d="M1292.1 192.427L1340.9 180.573" stroke="black" stroke-width="2" stroke-linecap="round" stroke-linejoin="round"/>
<path d="M1315.64 165.811C1315.69 165.596 1315.91 165.465 1316.12 165.518C1316.34 165.571 1316.47 165.788 1316.41 166.003L1314.62 173.258C1314.57 173.473 1314.35 173.604 1314.14 173.55C1313.92 173.497 1313.79 173.28 1313.84 173.066L1315.64 165.811Z" stroke="black" stroke-width="0.800696"/>
<path d="M1319.33 166.132C1319.38 165.917 1319.6 165.786 1319.81 165.839C1320.03 165.892 1320.16 166.109 1320.1 166.324L1318.31 173.579C1318.26 173.793 1318.04 173.924 1317.83 173.871C1317.61 173.818 1317.48 173.601 1317.53 173.387L1319.33 166.132Z" stroke="black" stroke-width="0.800696"/>
<path d="M1388.33 156.787C1385.67 157.471 1382.33 157.483 1381.62 153.44C1381.62 153.44 1378.29 136.508 1381.48 130.225C1384.68 123.941 1388.38 120.421 1399.6 116.131C1410.83 111.842 1432.33 118.71 1435.82 120.45C1439.31 122.191 1442.66 126.26 1443.56 128.887C1444.46 131.514 1443.57 135.429 1439.91 136.454C1439.69 136.517 1439.3 136.638 1438.77 136.809" fill="#95D2FF"/>
<path d="M1426.87 140.375C1418.53 143.819 1408.49 148.44 1400.39 151.197" stroke="black" stroke-width="1.5" stroke-miterlimit="10"/>
<path d="M1387 132.539C1386.6 133.339 1382.17 134.539 1380 135.039C1380 133.539 1381.5 129 1382.5 127.5C1383.5 126 1386.5 122.539 1387 123.039C1387.5 123.539 1387.5 131.539 1387 132.539Z" fill="#E8F7F6"/>
<path d="M1405.74 117.122C1402.58 117.104 1400.35 117.787 1397.14 119.402C1392.96 121.508 1390.27 124.687 1391.37 127.92C1391.94 129.577 1392.97 131.727 1394.39 134L1417.26 124.5C1416.98 123.955 1416.7 123.435 1416.41 122.951C1414.3 119.384 1408.89 117.141 1405.74 117.122Z" fill="#E8F7F6"/>
<path d="M1412.19 113.919L1412.24 113.973C1412.21 114.135 1412.3 114.294 1412.46 114.343C1412.46 114.343 1427.2 120.438 1428.45 120.435C1429.7 120.432 1432.64 118.453 1432.64 118.453" fill="#E8F7F6"/>
<path d="M1440.99 126.632C1441.49 126.236 1441.31 125.159 1440.59 124.228C1439.87 123.297 1438.88 122.864 1438.37 123.261C1437.87 123.658 1438.05 124.734 1438.77 125.665C1439.49 126.596 1440.48 127.029 1440.99 126.632Z" fill="black"/>
<path d="M1434.84 143.668C1438.47 142.426 1440.4 138.433 1439.14 134.751C1437.88 131.068 1433.91 129.089 1430.28 130.332C1426.65 131.574 1424.72 135.567 1425.98 139.25C1427.24 142.932 1431.21 144.911 1434.84 143.668Z" fill="#1A1A1A" stroke="#1A1A1A" stroke-width="2" stroke-miterlimit="10"/>
<path d="M1395.55 157.101C1399.18 155.859 1401.11 151.866 1399.85 148.184C1398.59 144.501 1394.62 142.523 1390.99 143.765C1387.36 145.007 1385.43 149 1386.69 152.683C1387.95 156.365 1391.92 158.344 1395.55 157.101Z" fill="#1A1A1A" stroke="#1A1A1A" stroke-width="2" stroke-miterlimit="10"/>
<path d="M1394.38 134.018L1418.1 124.568" stroke="black" stroke-width="1.5" stroke-miterlimit="10" stroke-linecap="round"/>
<path d="M1279.53 105.063C1280.15 106.705 1279.07 108.98 1276.56 109.926C1274.05 110.872 1271.73 109.881 1271.11 108.239C1270.49 106.597 1271.58 104.323 1274.09 103.376C1276.6 102.43 1278.91 103.422 1279.53 105.063Z" stroke="#1A1A1A" stroke-width="2"/>
<path d="M1287.59 102.5L1310.09 94.5" stroke="black" stroke-width="2" stroke-linecap="round"/>
<path d="M599.588 674C605.663 674 610.588 669.075 610.588 663C610.588 656.925 605.663 652 599.588 652C593.513 652 588.588 656.925 588.588 663C588.588 669.075 593.513 674 599.588 674Z" fill="#1A1A1A"/>
<path d="M1217.59 223C1223.66 223 1228.59 218.075 1228.59 212C1228.59 205.925 1223.66 201 1217.59 201C1211.51 201 1206.59 205.925 1206.59 212C1206.59 218.075 1211.51 223 1217.59 223Z" fill="#1A1A1A"/>
<path d="M1171.59 343C1184.84 343 1195.59 332.255 1195.59 319C1195.59 305.745 1184.84 295 1171.59 295C1158.34 295 1147.59 305.745 1147.59 319C1147.59 332.255 1158.34 343 1171.59 343Z" stroke="#1A1A1A" stroke-width="2"/>
<path d="M690.588 780C703.843 780 714.588 769.255 714.588 756C714.588 742.745 703.843 732 690.588 732C677.333 732 666.588 742.745 666.588 756C666.588 769.255 677.333 780 690.588 780Z" stroke="#1A1A1A" stroke-width="2"/>
<path d="M1487.5 131.5L1464 78.5L1530.91 50L1555 99.5L1487.5 131.5Z" stroke="black" stroke-width="2" stroke-linecap="round" stroke-linejoin="round"/>
<path d="M1521.31 96.7957C1516.82 95.2159 1511.56 97.505 1509.63 101.879L1507 106.573L1502.8 116.093L1498.6 125.614L1543.68 104.665L1521.31 96.7957Z" fill="#FCB643"/>
<path d="M1497.12 103.59L1505.87 122.517L1512.79 118.911L1507.3 107.019L1501.8 95.1264C1501.8 95.1264 1502.58 94.9717 1502.7 94.9141C1506.38 93.2162 1507.96 86.9958 1507.52 83.1364C1507.07 79.2771 1504.7 75.0919 1501.91 76.7854C1499.12 78.479 1499.13 80.9136 1500.43 82.7536C1501.73 84.5936 1503.2 87.7756 1502.37 89.3752C1501.55 90.9747 1499.64 90.4366 1499.64 90.4366C1499.64 90.4366 1496.32 81.9796 1495.19 79.0475C1494.05 76.1154 1491.89 73.9192 1488.84 75.5297C1485.8 77.1402 1485.61 79.955 1487 83.2687C1488.39 86.5822 1495.92 100.895 1495.92 100.895C1495.92 100.895 1491.99 102.721 1490.92 99.482C1490.28 97.5204 1489.21 94.5665 1487.78 93.4291C1485.64 91.7264 1483.69 93.841 1483.55 95.2113C1483.29 97.7302 1487.63 103.806 1489.74 104.749C1492.54 106.005 1497.12 103.59 1497.12 103.59Z" fill="#00CB77"/>
<path d="M1501.8 95.1265L1512.79 118.911" stroke="black" stroke-width="2" stroke-miterlimit="10" stroke-linecap="round" stroke-linejoin="round"/>
<path d="M1524 78C1526.76 78 1529 75.7614 1529 73C1529 70.2386 1526.76 68 1524 68C1521.24 68 1519 70.2386 1519 73C1519 75.7614 1521.24 78 1524 78Z" fill="#FF8A00"/>
<path d="M1510.09 244C1514.23 244 1517.59 240.642 1517.59 236.5C1517.59 232.358 1514.23 229 1510.09 229C1505.95 229 1502.59 232.358 1502.59 236.5C1502.59 240.642 1505.95 244 1510.09 244Z" fill="#EF4056"/>
<path d="M1042 394C1053.05 394 1062 385.046 1062 374C1062 362.954 1053.05 354 1042 354C1030.95 354 1022 362.954 1022 374C1022 385.046 1030.95 394 1042 394Z" fill="#EF4056"/>
<path d="M790.5 668C794.642 668 798 664.642 798 660.5C798 656.358 794.642 653 790.5 653C786.358 653 783 656.358 783 660.5C783 664.642 786.358 668 790.5 668Z" fill="#EF4056"/>
<path d="M1016.81 756.873L1034 737.349" stroke="black" stroke-width="2.6031" stroke-linecap="round" stroke-linejoin="round"/>
<path d="M1014.21 771.45L1006.4 751.927L1035.82 721.471L1043.37 735.527" stroke="black" stroke-width="2.6031" stroke-linecap="round" stroke-linejoin="round"/>
<path d="M1217.83 791.352L1063.8 675.164C1061.21 673.211 1057.54 673.665 1055.5 676.19L958.256 796.763C956.904 798.44 956.552 800.712 957.335 802.719L995.393 900.367C996.246 902.556 998.298 904.048 1000.64 904.184L1102.42 910.11C1104.1 910.208 1105.74 909.597 1106.95 908.427L1218.39 800.468C1221.04 797.901 1220.78 793.574 1217.83 791.352Z" fill="#1CB0A8"/>
<path d="M1195.77 792.811L1064.74 693.97C1063.02 692.668 1060.57 692.97 1059.21 694.653L976.615 797.074C975.713 798.192 975.479 799.706 976.001 801.044L1008.4 884.167C1008.97 885.626 1010.34 886.62 1011.9 886.712L1098.42 891.756C1099.54 891.821 1100.63 891.414 1101.44 890.634L1196.14 798.888C1197.91 797.177 1197.73 794.292 1195.77 792.811Z" fill="#95D5D2"/>
<path d="M1072.95 811.12C1079.16 781.104 1071.75 759.648 1057.33 737.687C1050.66 727.53 1041.57 738.215 1046.07 745.079C1063.46 771.553 1060.89 790.793 1060.51 825.028C1060.49 827.189 1063.1 828.724 1065.07 827.853C1098.93 812.933 1109.72 809.985 1137.03 817.757C1148.47 821.903 1156.13 810.463 1143.66 806.326C1116.12 798.484 1097.1 795.256 1072.95 811.12Z" fill="white"/>
<path d="M1143.03 689.288C1143.03 689.288 1135.69 688.872 1132.31 692.885C1128.93 696.898 1126.92 706.456 1132.48 712.24C1134.56 714.408 1136.98 715.856 1139.51 716.549C1143.72 717.705 1148.22 716.76 1151.95 713.555C1157.92 708.428 1156 701.59 1153.22 698.697C1150.44 695.804 1143.41 698.459 1140.4 701.46C1135.31 706.535 1138.59 715.869 1138.59 715.869" stroke="black" stroke-width="3.00516" stroke-miterlimit="10" stroke-linecap="round" stroke-linejoin="round"/>
<path d="M1156.63 673.423C1161.47 667.577 1168.75 665.704 1174.64 667.781C1181.67 670.264 1182.22 680.107 1176.94 686.471C1171.66 692.836 1162.86 695.264 1158.57 691.967C1154.27 688.671 1151.95 679.073 1156.63 673.423Z" stroke="black" stroke-width="3.00516" stroke-miterlimit="10" stroke-linecap="round" stroke-linejoin="round"/>
<path d="M1196.32 659.783L1190.97 633.324L1201.75 635.491L1201.77 622.912L1223.39 632.67" stroke="black" stroke-width="3.00516" stroke-miterlimit="10" stroke-linecap="round" stroke-linejoin="round"/>
<path d="M1216.24 608.918L1228.88 627.696" stroke="black" stroke-width="3.00516" stroke-miterlimit="10" stroke-linecap="round" stroke-linejoin="round"/>
<path d="M1224.51 601.432L1235.9 618.022L1245.3 606.099" stroke="black" stroke-width="3.00516" stroke-miterlimit="10" stroke-linecap="round" stroke-linejoin="round"/>
<path d="M1238.46 586.031L1248.7 600.998L1256.6 591.233" stroke="black" stroke-width="3.00516" stroke-miterlimit="10" stroke-linecap="round" stroke-linejoin="round"/>
<path d="M1250.23 570.818L1260.66 586.605" stroke="black" stroke-width="3.00516" stroke-miterlimit="10" stroke-linecap="round" stroke-linejoin="round"/>
<path d="M1261.81 556.589C1268.29 550.23 1274.41 551.381 1276.54 553.595C1278.67 555.808 1283.45 563.266 1278.46 569.85C1273.48 576.434 1266.26 576.935 1262.98 573.262C1259.7 569.59 1255.58 562.696 1261.81 556.589Z" stroke="black" stroke-width="3.00516" stroke-miterlimit="10" stroke-linecap="round" stroke-linejoin="round"/>
<path d="M1285.44 558.498L1278.4 539.755L1300.98 540.715L1291.43 522.662" stroke="black" stroke-width="3.00516" stroke-miterlimit="10" stroke-linecap="round" stroke-linejoin="round"/>
<path d="M1352 583.011C1352 583.011 1350.42 574.519 1337.39 581.117C1328.32 585.706 1326.24 593.146 1327.51 597.821C1329.29 604.329 1340.52 597.164 1343.92 595.821C1347.74 594.305 1362.09 590.553 1365.47 599.367C1368.99 608.532 1366.14 613.861 1358.98 619.439C1351.82 625.016 1337.16 626.012 1332.78 617.324" stroke="black" stroke-width="3.00516" stroke-miterlimit="10" stroke-linecap="round" stroke-linejoin="round"/>
<path d="M1317.46 602.568L1291.15 619.288L1306.32 658.575L1334.32 637.912" stroke="black" stroke-width="3.00516" stroke-miterlimit="10" stroke-linecap="round" stroke-linejoin="round"/>
<path d="M1319.64 613.585L1296.2 630.073" stroke="black" stroke-width="3.00516" stroke-miterlimit="10" stroke-linecap="round" stroke-linejoin="round"/>
<path d="M1279.66 620.882L1288.79 670.827L1240.55 650.234" stroke="black" stroke-width="3.00516" stroke-miterlimit="10" stroke-linecap="round" stroke-linejoin="round"/>
<path d="M1278.3 692.24L1227.12 667.234L1225.79 727.592" stroke="black" stroke-width="3.00516" stroke-miterlimit="10" stroke-linecap="round" stroke-linejoin="round"/>
<path d="M1246.52 676.933L1226.52 692.036" stroke="black" stroke-width="3.00516" stroke-miterlimit="10" stroke-linecap="round" stroke-linejoin="round"/>
<path d="M1205.08 694.289C1205.08 694.289 1200.21 686.923 1187.25 694.412C1174.29 701.904 1177.02 707.48 1177.89 709.667C1178.76 711.853 1181.42 714.905 1194.4 711.514C1207.37 708.124 1215.71 715.188 1217.22 721.64C1218.73 728.092 1216.41 738.147 1201.06 747.376C1191.38 753.197 1180.55 747.344 1178.87 736.568" stroke="black" stroke-width="3.00516" stroke-miterlimit="10" stroke-linecap="round" stroke-linejoin="round"/>
<path d="M1160.59 631.709C1160.59 631.709 1159.84 614.367 1154.89 602.337" stroke="black" stroke-width="2.00344" stroke-miterlimit="10" stroke-linecap="round"/>
<path d="M1156.5 606.959C1156.5 606.959 1159.85 621.41 1164.57 620.862C1167.62 620.507 1168.9 619.587 1169.11 609.528C1169.31 599.469 1168.66 591.041 1165.87 592.958C1163.08 594.876 1169.74 611.06 1171.94 615.78" stroke="black" stroke-width="2.00344" stroke-miterlimit="10" stroke-linecap="round"/>
<path d="M1169.11 609.529C1169.11 609.529 1169.7 604.274 1171.09 602.903C1173.64 600.395 1174.57 607.277 1175.3 609.028C1176.02 610.778 1177.74 611.858 1179.52 609.337C1181.29 606.817 1180.54 602.518 1180.54 602.518" stroke="black" stroke-width="2.00344" stroke-miterlimit="10" stroke-linecap="round" stroke-linejoin="round"/>
<path d="M1152.69 619.359L1162.1 606.789" stroke="black" stroke-width="2.00344" stroke-miterlimit="10" stroke-linecap="round"/>
<path d="M1179.85 590.269C1176.67 593.112 1177.15 596.753 1179.11 600.291C1181.08 603.828 1182.85 604.381 1185.02 602.207C1187.19 600.032 1186.74 594.59 1184.81 590.525C1182.89 586.46 1179.85 590.269 1179.85 590.269Z" stroke="black" stroke-width="2.00344" stroke-miterlimit="10" stroke-linecap="round" stroke-linejoin="round"/>
<path d="M1183.09 587.002C1183.09 587.002 1183.35 587.881 1184.81 590.524C1186.28 593.171 1189.07 596.12 1190.92 594.136C1192.76 592.152 1192.13 587.303 1190.65 583.526C1189.17 579.749 1189.09 578.341 1190.16 577.612C1191.23 576.885 1193.23 577.21 1194.52 580.349C1195.81 583.488 1196.98 585.958 1196.98 585.958" stroke="black" stroke-width="2.00344" stroke-miterlimit="10" stroke-linecap="round" stroke-linejoin="round"/>
<path d="M1208.68 571.213C1208.68 571.213 1211.33 576.955 1207.92 579.152C1204.51 581.348 1202 578.859 1199.98 573.499C1198.35 569.204 1196.5 570.293 1195.64 570.826C1194.61 571.459 1191.95 574.589 1194.11 579.515" stroke="black" stroke-width="2.00344" stroke-miterlimit="10" stroke-linecap="round" stroke-linejoin="round"/>
<path d="M1214.75 768.734L1216.5 750.869L1223.27 756.406L1231.61 746.01L1238.45 765.699" stroke="black" stroke-width="3.00516" stroke-miterlimit="10" stroke-linecap="round" stroke-linejoin="round"/>
<path d="M1253.26 763.733C1258.59 764.257 1263.33 760.36 1263.86 755.029C1264.38 749.699 1260.48 744.953 1255.15 744.43C1249.82 743.906 1245.08 747.803 1244.55 753.133C1244.03 758.464 1247.93 763.209 1253.26 763.733Z" stroke="black" stroke-width="3.00516" stroke-miterlimit="10" stroke-linecap="round" stroke-linejoin="round"/>
<path d="M1270.69 764.965L1271.81 743.626L1290.05 771.249L1290.43 737.652" stroke="black" stroke-width="3.00516" stroke-miterlimit="10" stroke-linecap="round" stroke-linejoin="round"/>
<path d="M1310.8 738.681L1299.48 774.615" stroke="black" stroke-width="3.00516" stroke-miterlimit="10" stroke-linecap="round" stroke-linejoin="round"/>
<path d="M1296.13 739.192C1296.13 739.192 1310.9 737.721 1326.79 739.762" stroke="black" stroke-width="3.00516" stroke-miterlimit="10" stroke-linecap="round" stroke-linejoin="round"/>
<path d="M1321.68 747.063L1310.59 780.579" stroke="black" stroke-width="3.00516" stroke-miterlimit="10" stroke-linecap="round" stroke-linejoin="round"/>
<path d="M1338.81 746.305L1326 787.455" stroke="black" stroke-width="3.00516" stroke-miterlimit="10" stroke-linecap="round" stroke-linejoin="round"/>
<path d="M1318.84 756.172L1335.2 758.26" stroke="black" stroke-width="3.00516" stroke-miterlimit="10" stroke-linecap="round" stroke-linejoin="round"/>
<path d="M1329.93 705.562C1326.48 700.606 1319.09 710.734 1322.54 713.987C1324.78 716.095 1329.61 716.256 1337.44 709.933C1345.26 703.609 1351.29 697.676 1348.02 696.778C1344.76 695.88 1336.67 711.403 1334.48 716.128" stroke="black" stroke-width="2.00344" stroke-miterlimit="10" stroke-linecap="round"/>
<path d="M1337.44 709.932C1337.44 709.932 1341.84 707 1343.78 707.183C1347.34 707.514 1342.68 712.663 1341.81 714.343C1340.93 716.022 1341.22 718.036 1344.29 717.77C1347.36 717.504 1350.17 714.163 1350.17 714.163" stroke="black" stroke-width="2.00344" stroke-miterlimit="10" stroke-linecap="round" stroke-linejoin="round"/>
<path d="M1313.42 704.094C1309.19 703.495 1306.72 706.205 1305.28 709.989C1303.84 713.773 1304.55 715.478 1307.62 715.74C1310.68 716.001 1314.55 712.152 1316.42 708.055C1318.29 703.963 1313.42 704.094 1313.42 704.094Z" stroke="black" stroke-width="2.00344" stroke-miterlimit="10" stroke-linecap="round" stroke-linejoin="round"/>
<path d="M1318 704.467C1318 704.467 1317.5 705.233 1316.42 708.056C1315.34 710.881 1314.89 714.92 1317.59 715.052C1318.82 715.112 1320.16 714.407 1321.45 713.286" stroke="black" stroke-width="2.00344" stroke-miterlimit="10" stroke-linecap="round" stroke-linejoin="round"/>
<path d="M1304.51 712.2C1301.3 718.964 1294.34 718.716 1292.09 712.641C1289.84 706.566 1294.94 700.473 1300.76 701.517C1306.09 702.473 1301.71 707.36 1297.1 708.869C1292.5 710.378 1284.66 711.308 1282.88 706.319" stroke="black" stroke-width="2.00344" stroke-linecap="round" stroke-linejoin="round"/>
<path d="M1112.84 696.85L1095.97 673.368L1107.81 673.377L1097.19 660.197L1117.88 662.922" stroke="black" stroke-width="3.00516" stroke-miterlimit="10" stroke-linecap="round" stroke-linejoin="round"/>
<path d="M1114.82 653.528C1122.32 652.412 1127.48 645.227 1126.32 637.479C1125.17 629.73 1118.15 624.353 1110.65 625.469C1103.14 626.584 1097.99 633.77 1099.14 641.518C1100.29 649.266 1107.31 654.643 1114.82 653.528Z" stroke="black" stroke-width="3.00516" stroke-miterlimit="10" stroke-linecap="round" stroke-linejoin="round"/>
<path d="M1135.2 618.187C1135.2 618.187 1096.8 615.035 1096.57 614.861C1096.57 614.861 1095.74 598.237 1102.45 599.127C1109.17 600.016 1108.63 615.57 1108.63 615.57" stroke="black" stroke-width="3.00516" stroke-miterlimit="10" stroke-linecap="round" stroke-linejoin="round"/>
<path d="M1108.19 607.708C1108.19 607.708 1117.2 607.601 1123.71 607.106C1130.21 606.611 1130.57 601.132 1126.7 597.226" stroke="black" stroke-width="3.00516" stroke-miterlimit="10" stroke-linecap="round" stroke-linejoin="round"/>
<path d="M1127.65 563.07L1127.58 589.496L1099.45 588.488L1093.23 571.799" stroke="black" stroke-width="3.00516" stroke-miterlimit="10" stroke-linecap="round" stroke-linejoin="round"/>
<path d="M1107.08 570.137L1108.93 588.965" stroke="black" stroke-width="3.00516" stroke-miterlimit="10" stroke-linecap="round" stroke-linejoin="round"/>
<path d="M1060.63 686.072C1062.02 686.036 1063.11 684.886 1063.07 683.503C1063.04 682.121 1061.89 681.029 1060.5 681.065C1059.12 681.101 1058.03 682.251 1058.07 683.634C1058.1 685.016 1059.25 686.108 1060.63 686.072Z" stroke="#1A1A1A" stroke-width="2.00344"/>
<path d="M1209.63 798.072C1211.02 798.036 1212.11 796.886 1212.07 795.504C1212.04 794.121 1210.89 793.029 1209.5 793.065C1208.12 793.101 1207.03 794.251 1207.07 795.634C1207.1 797.016 1208.25 798.108 1209.63 798.072Z" stroke="#1A1A1A" stroke-width="2.00344"/>
</g>
<defs>
<clipPath id="clip0">
<rect width="1601" height="909" fill="white"/>
</clipPath>
</defs>
</svg>
