<svg width="1311" height="805" fill="none" xmlns="http://www.w3.org/2000/svg"><path d="M1309.44 185.819c-90.56 14.049-168.13 10.906-256.1 25.206-72.065 11.714-137.862 48.765-163.029 121.373-42.327 122.118-106.107 258.6-180.957 237.638-74.851-20.961-3.658-129.014 10.068-67.397 13.726 61.617-158.309 105.707-264.039 60.573-105.73-45.133-327.612-148.96-446.12-111.543" stroke="#fff" stroke-width="2" stroke-linecap="round" stroke-linejoin="round"/><path d="M435.449 530.006c5.283.789 10.206-2.854 10.996-8.137.789-5.283-2.855-10.206-8.138-10.995a9.672 9.672 0 0 0-2.858 19.132zm433.867-149.89a9.672 9.672 0 0 0 2.858-19.132 9.672 9.672 0 0 0-2.858 19.132z" fill="#fff"/><path d="M916.416 422.34c-1.713 11.461-12.392 19.364-23.854 17.652-11.462-1.713-19.366-12.392-17.653-23.853 1.712-11.461 12.391-19.364 23.853-17.652 11.462 1.713 19.366 12.392 17.654 23.853zM524.691 616.241c-1.712 11.461-12.392 19.364-23.854 17.651-11.462-1.712-19.365-12.391-17.653-23.852 1.712-11.461 12.392-19.364 23.854-17.652 11.462 1.713 19.365 12.392 17.653 23.853z" stroke="#fff" stroke-width="2"/><path d="M1283.18 274.356a6.59 6.59 0 0 0 7.49-5.548 6.588 6.588 0 0 0-5.55-7.496 6.59 6.59 0 0 0-7.49 5.548 6.588 6.588 0 0 0 5.55 7.496zM803.574 485.021c9.607 1.435 18.558-5.189 19.993-14.795 1.435-9.605-5.19-18.556-14.796-19.991-9.607-1.435-18.557 5.189-19.992 14.794-1.435 9.606 5.189 18.557 14.795 19.992zm-201.309 64.571a6.595 6.595 0 1 0 1.949-13.044 6.595 6.595 0 1 0-1.949 13.044zM711 660c7.732 0 14-6.268 14-14s-6.268-14-14-14-14 6.268-14 14 6.268 14 14 14z" fill="#EF4056"/></svg>
