<svg width="1601" height="909" viewBox="0 0 1601 909" fill="none" xmlns="http://www.w3.org/2000/svg">
<g clip-path="url(#clip0)">
<path d="M1524.75 139.952C1425.26 170.972 1337.49 180.47 1240.95 211.338C1161.86 236.623 1094.08 289.353 1077.98 375.252C1050.89 519.722 1002.09 683.952 914.38 672.952C826.672 661.952 888.589 528.452 914.38 595.452C940.172 662.452 754.089 740.952 627.589 707.952C563.479 691.228 467.627 647.99 356 612.431C247.367 577.826 123.795 550.495 0 561.952" stroke="white" stroke-width="2" stroke-linecap="round" stroke-linejoin="round"/>
<path fill-rule="evenodd" clip-rule="evenodd" d="M1528.33 11.5986C1527.6 10.2276 1525.95 9.6348 1524.52 10.2314L1319.89 95.5083L1318.29 84.2808C1317.83 81.1008 1314.54 79.1681 1311.54 80.3212L1266.79 97.5328C1264.86 98.2755 1263.59 100.13 1263.59 102.199V118.23L1254.57 121.965C1253.35 122.467 1252.61 123.701 1252.73 125.009L1271.81 334.445C1272.01 336.62 1274.39 337.861 1276.29 336.778L1599.4 152.28C1600.81 151.478 1601.32 149.704 1600.57 148.273L1528.33 11.5986Z" fill="white"/>
<path d="M1285.59 225.952L1276.59 151.952L1335.59 127.452L1349.09 194.952L1285.59 225.952Z" stroke="black" stroke-width="2" stroke-linecap="round" stroke-linejoin="round"/>
<path d="M1381.59 179.452C1376.92 161.952 1363.49 120.252 1363.09 117.452L1435.09 89.4524L1459.59 143.952L1381.59 179.452Z" stroke="black" stroke-width="2" stroke-linecap="round" stroke-linejoin="round"/>
<path d="M1292.59 242.452L1356.09 211.452" stroke="black" stroke-width="2" stroke-linecap="round"/>
<path d="M1386.59 195.952L1466.09 159.952" stroke="black" stroke-width="2" stroke-linecap="round"/>
<path d="M1493.59 144.952L1559.09 113.952" stroke="black" stroke-width="2" stroke-linecap="round"/>
<path d="M1502.59 157.952L1564.09 127.952" stroke="black" stroke-width="2" stroke-linecap="round"/>
<path d="M1292.59 260.452L1356.59 227.952" stroke="black" stroke-width="2" stroke-linecap="round"/>
<path d="M1389.59 211.952L1472.59 173.452" stroke="black" stroke-width="2" stroke-linecap="round"/>
<path d="M1264.59 118.899L1254.95 122.889C1254.14 123.224 1253.64 124.046 1253.72 124.918L1272.81 334.354C1272.94 335.804 1274.53 336.631 1275.79 335.91L1598.91 151.412C1599.84 150.877 1600.19 149.695 1599.68 148.74L1527.44 12.066C1526.96 11.1519 1525.86 10.7568 1524.9 11.1545L1319.09 96.9268" stroke="black" stroke-width="2" stroke-linecap="round"/>
<path d="M1264.59 118.952V102.199C1264.59 100.544 1265.61 99.0604 1267.15 98.4662L1311.9 81.2546C1314.3 80.3321 1316.94 81.8783 1317.3 84.4223L1319.09 96.9524" stroke="black" stroke-width="2" stroke-linecap="round"/>
<path d="M1292.19 192.452L1288.59 176.247L1293.54 178.398C1296.33 179.611 1299.53 179.481 1302.21 178.044C1304.38 176.887 1306.04 174.972 1306.88 172.667L1308.78 167.452L1324.24 171.116L1325.79 170.716C1332.59 168.961 1339.43 173.399 1340.59 180.318L1292.19 192.452Z" fill="#FF6682"/>
<path d="M1290.59 188.452L1339.59 177.452" stroke="black" stroke-width="2" stroke-linecap="round" stroke-linejoin="round"/>
<path d="M1292.1 192.379L1340.9 180.525" stroke="black" stroke-width="2" stroke-linecap="round" stroke-linejoin="round"/>
<path d="M1315.64 165.763C1315.69 165.549 1315.91 165.418 1316.12 165.471C1316.34 165.524 1316.47 165.741 1316.41 165.955L1314.62 173.21C1314.57 173.425 1314.35 173.556 1314.14 173.503C1313.92 173.45 1313.79 173.233 1313.84 173.018L1315.64 165.763Z" stroke="black" stroke-width="0.800696"/>
<path d="M1319.33 166.084C1319.38 165.87 1319.6 165.739 1319.81 165.792C1320.03 165.845 1320.16 166.062 1320.1 166.276L1318.31 173.531C1318.26 173.746 1318.04 173.877 1317.83 173.824C1317.61 173.771 1317.48 173.554 1317.53 173.339L1319.33 166.084Z" stroke="black" stroke-width="0.800696"/>
<path d="M1388.33 156.739C1385.67 157.423 1382.33 157.435 1381.62 153.392C1381.62 153.392 1378.29 136.46 1381.48 130.177C1384.68 123.893 1388.38 120.373 1399.6 116.083C1410.83 111.794 1432.33 118.662 1435.82 120.402C1439.31 122.143 1442.66 126.212 1443.56 128.839C1444.46 131.466 1443.57 135.381 1439.91 136.406C1439.69 136.469 1439.3 136.59 1438.77 136.761" fill="#95D2FF"/>
<path d="M1426.87 140.327C1418.53 143.771 1408.49 148.392 1400.39 151.149" stroke="black" stroke-width="1.5" stroke-miterlimit="10"/>
<path d="M1387 132.491C1386.6 133.291 1382.17 134.491 1380 134.991C1380 133.491 1381.5 128.952 1382.5 127.452C1383.5 125.952 1386.5 122.491 1387 122.991C1387.5 123.491 1387.5 131.491 1387 132.491Z" fill="#E8F7F6"/>
<path d="M1405.74 117.074C1402.58 117.056 1400.35 117.739 1397.14 119.354C1392.96 121.46 1390.27 124.639 1391.37 127.872C1391.94 129.529 1392.97 131.679 1394.39 133.952L1417.26 124.452C1416.98 123.907 1416.7 123.387 1416.41 122.903C1414.3 119.336 1408.89 117.093 1405.74 117.074Z" fill="#E8F7F6"/>
<path d="M1412.19 113.871L1412.24 113.925C1412.21 114.087 1412.3 114.246 1412.46 114.295C1412.46 114.295 1427.2 120.39 1428.45 120.387C1429.7 120.384 1432.64 118.405 1432.64 118.405" fill="#E8F7F6"/>
<path d="M1440.99 126.584C1441.49 126.188 1441.31 125.111 1440.59 124.18C1439.87 123.249 1438.88 122.816 1438.37 123.213C1437.87 123.61 1438.05 124.686 1438.77 125.617C1439.49 126.548 1440.48 126.981 1440.99 126.584Z" fill="black"/>
<path d="M1434.84 143.62C1438.47 142.378 1440.4 138.385 1439.14 134.703C1437.88 131.02 1433.91 129.041 1430.28 130.284C1426.65 131.526 1424.72 135.519 1425.98 139.202C1427.24 142.884 1431.21 144.863 1434.84 143.62Z" fill="#1A1A1A" stroke="#1A1A1A" stroke-width="2" stroke-miterlimit="10"/>
<path d="M1395.55 157.053C1399.18 155.811 1401.11 151.818 1399.85 148.136C1398.59 144.453 1394.62 142.475 1390.99 143.717C1387.36 144.959 1385.43 148.952 1386.69 152.635C1387.95 156.317 1391.92 158.296 1395.55 157.053Z" fill="#1A1A1A" stroke="#1A1A1A" stroke-width="2" stroke-miterlimit="10"/>
<path d="M1394.38 133.97L1418.1 124.52" stroke="black" stroke-width="1.5" stroke-miterlimit="10" stroke-linecap="round"/>
<path d="M1279.53 105.015C1280.15 106.657 1279.07 108.932 1276.56 109.878C1274.05 110.824 1271.73 109.833 1271.11 108.191C1270.49 106.549 1271.58 104.275 1274.09 103.328C1276.6 102.382 1278.91 103.374 1279.53 105.015Z" stroke="#1A1A1A" stroke-width="2"/>
<path d="M1287.59 102.452L1310.09 94.4524" stroke="black" stroke-width="2" stroke-linecap="round"/>
<path d="M599.588 673.952C605.663 673.952 610.588 669.028 610.588 662.952C610.588 656.877 605.663 651.952 599.588 651.952C593.513 651.952 588.588 656.877 588.588 662.952C588.588 669.028 593.513 673.952 599.588 673.952Z" fill="white"/>
<path d="M1217.59 222.952C1223.66 222.952 1228.59 218.028 1228.59 211.952C1228.59 205.877 1223.66 200.952 1217.59 200.952C1211.51 200.952 1206.59 205.877 1206.59 211.952C1206.59 218.028 1211.51 222.952 1217.59 222.952Z" fill="white"/>
<path d="M1171.59 342.952C1184.84 342.952 1195.59 332.207 1195.59 318.952C1195.59 305.698 1184.84 294.952 1171.59 294.952C1158.34 294.952 1147.59 305.698 1147.59 318.952C1147.59 332.207 1158.34 342.952 1171.59 342.952Z" stroke="#1A1A1A" stroke-width="2"/>
<path d="M690.588 779.952C703.843 779.952 714.588 769.207 714.588 755.952C714.588 742.698 703.843 731.952 690.588 731.952C677.333 731.952 666.588 742.698 666.588 755.952C666.588 769.207 677.333 779.952 690.588 779.952Z" stroke="white" stroke-width="2"/>
<path d="M1487.5 131.452L1464 78.4524L1530.91 49.9524L1555 99.4524L1487.5 131.452Z" stroke="black" stroke-width="2" stroke-linecap="round" stroke-linejoin="round"/>
<path d="M1521.31 96.7481C1516.82 95.1683 1511.56 97.4574 1509.63 101.831L1507 106.525L1502.8 116.045L1498.6 125.566L1543.68 104.617L1521.31 96.7481Z" fill="#FCB643"/>
<path d="M1497.12 103.542L1505.87 122.469L1512.79 118.863L1507.3 106.971L1501.8 95.0788C1501.8 95.0788 1502.58 94.9241 1502.7 94.8665C1506.38 93.1686 1507.96 86.9482 1507.52 83.0888C1507.07 79.2295 1504.7 75.0443 1501.91 76.7378C1499.12 78.4314 1499.13 80.866 1500.43 82.706C1501.73 84.546 1503.2 87.728 1502.37 89.3276C1501.55 90.9271 1499.64 90.389 1499.64 90.389C1499.64 90.389 1496.32 81.932 1495.19 78.9999C1494.05 76.0678 1491.89 73.8716 1488.84 75.4821C1485.8 77.0926 1485.61 79.9074 1487 83.2211C1488.39 86.5346 1495.92 100.847 1495.92 100.847C1495.92 100.847 1491.99 102.673 1490.92 99.4344C1490.28 97.4728 1489.21 94.5189 1487.78 93.3815C1485.64 91.6788 1483.69 93.7934 1483.55 95.1637C1483.29 97.6826 1487.63 103.758 1489.74 104.701C1492.54 105.957 1497.12 103.542 1497.12 103.542Z" fill="#00CB77"/>
<path d="M1501.8 95.0789L1512.79 118.863" stroke="black" stroke-width="2" stroke-miterlimit="10" stroke-linecap="round" stroke-linejoin="round"/>
<path d="M1524 77.9524C1526.76 77.9524 1529 75.7138 1529 72.9524C1529 70.191 1526.76 67.9524 1524 67.9524C1521.24 67.9524 1519 70.191 1519 72.9524C1519 75.7138 1521.24 77.9524 1524 77.9524Z" fill="#FF8A00"/>
<path d="M1510.09 243.952C1514.23 243.952 1517.59 240.595 1517.59 236.452C1517.59 232.31 1514.23 228.952 1510.09 228.952C1505.95 228.952 1502.59 232.31 1502.59 236.452C1502.59 240.595 1505.95 243.952 1510.09 243.952Z" fill="#EF4056"/>
<path d="M1042 393.952C1053.05 393.952 1062 384.998 1062 373.952C1062 362.907 1053.05 353.952 1042 353.952C1030.95 353.952 1022 362.907 1022 373.952C1022 384.998 1030.95 393.952 1042 393.952Z" fill="#EF4056"/>
<path d="M790.5 667.952C794.642 667.952 798 664.595 798 660.452C798 656.31 794.642 652.952 790.5 652.952C786.358 652.952 783 656.31 783 660.452C783 664.595 786.358 667.952 790.5 667.952Z" fill="#EF4056"/>
<path d="M1167.3 634.393C1167.3 634.393 1159.02 633.903 1155.18 638.428C1151.35 642.954 1149.05 653.749 1155.32 660.3C1157.67 662.756 1160.4 664.398 1163.25 665.188C1168.01 666.506 1173.1 665.449 1177.33 661.838C1184.08 656.06 1181.93 648.328 1178.79 645.051C1175.66 641.775 1167.71 644.756 1164.3 648.139C1158.53 653.861 1162.22 664.417 1162.22 664.417" stroke="#FFFBE3" stroke-width="3.00516" stroke-miterlimit="10" stroke-linecap="round" stroke-linejoin="round"/>
<path d="M1182.71 616.501C1188.2 609.908 1196.43 607.81 1203.08 610.174C1211.01 612.998 1211.61 624.122 1205.63 631.299C1199.65 638.478 1189.7 641.198 1184.85 637.461C1180.01 633.725 1177.41 622.873 1182.71 616.501Z" stroke="#FFFBE3" stroke-width="3.00516" stroke-miterlimit="10" stroke-linecap="round" stroke-linejoin="round"/>
<path d="M1227.6 601.193L1221.63 571.28L1233.8 573.758L1233.86 559.544L1258.27 570.628" stroke="#FFFBE3" stroke-width="3.00516" stroke-miterlimit="10" stroke-linecap="round" stroke-linejoin="round"/>
<path d="M1250.25 543.769L1264.48 565.022" stroke="#FFFBE3" stroke-width="3.00516" stroke-miterlimit="10" stroke-linecap="round" stroke-linejoin="round"/>
<path d="M1259.61 535.333L1272.44 554.109L1283.09 540.662" stroke="#FFFBE3" stroke-width="3.00516" stroke-miterlimit="10" stroke-linecap="round" stroke-linejoin="round"/>
<path d="M1275.42 517.966L1286.95 534.907L1295.91 523.893" stroke="#FFFBE3" stroke-width="3.00516" stroke-miterlimit="10" stroke-linecap="round" stroke-linejoin="round"/>
<path d="M1288.75 500.807L1300.51 518.675" stroke="#FFFBE3" stroke-width="3.00516" stroke-miterlimit="10" stroke-linecap="round" stroke-linejoin="round"/>
<path d="M1301.88 484.76C1309.22 477.591 1316.14 478.908 1318.53 481.415C1320.93 483.922 1326.31 492.362 1320.66 499.789C1315.01 507.216 1306.85 507.762 1303.16 503.603C1299.47 499.445 1294.83 491.644 1301.88 484.76Z" stroke="#FFFBE3" stroke-width="3.00516" stroke-miterlimit="10" stroke-linecap="round" stroke-linejoin="round"/>
<path d="M1328.57 486.98L1320.67 465.781L1346.19 466.927L1335.44 446.501" stroke="#FFFBE3" stroke-width="3.00516" stroke-miterlimit="10" stroke-linecap="round" stroke-linejoin="round"/>
<path d="M1403.73 514.857C1403.73 514.857 1401.96 505.257 1387.22 512.678C1376.96 517.839 1374.58 526.241 1376.01 531.527C1378 538.885 1390.72 530.819 1394.56 529.311C1398.88 527.608 1415.1 523.406 1418.9 533.376C1422.85 543.741 1419.62 549.755 1411.51 556.039C1403.41 562.322 1386.84 563.409 1381.92 553.579" stroke="#FFFBE3" stroke-width="3.00516" stroke-miterlimit="10" stroke-linecap="round" stroke-linejoin="round"/>
<path d="M1364.65 536.864L1334.87 555.688L1351.9 600.122L1383.6 576.848" stroke="#FFFBE3" stroke-width="3.00516" stroke-miterlimit="10" stroke-linecap="round" stroke-linejoin="round"/>
<path d="M1367.08 549.319L1340.54 567.888" stroke="#FFFBE3" stroke-width="3.00516" stroke-miterlimit="10" stroke-linecap="round" stroke-linejoin="round"/>
<path d="M1321.88 557.458L1332.06 613.92L1277.6 590.521" stroke="#FFFBE3" stroke-width="3.00516" stroke-miterlimit="10" stroke-linecap="round" stroke-linejoin="round"/>
<path d="M1320.15 638.089L1262.39 609.695L1260.73 677.896" stroke="#FFFBE3" stroke-width="3.00516" stroke-miterlimit="10" stroke-linecap="round" stroke-linejoin="round"/>
<path d="M1284.28 620.708L1261.65 637.72" stroke="#FFFBE3" stroke-width="3.00516" stroke-miterlimit="10" stroke-linecap="round" stroke-linejoin="round"/>
<path d="M1237.41 640.209C1237.41 640.209 1231.92 631.872 1217.26 640.3C1202.59 648.731 1205.66 655.04 1206.64 657.513C1207.62 659.985 1210.62 663.441 1225.29 659.645C1239.96 655.848 1249.37 663.853 1251.06 671.148C1252.75 678.442 1250.09 689.799 1232.72 700.186C1221.77 706.738 1209.54 700.095 1207.68 687.914" stroke="#FFFBE3" stroke-width="3.00516" stroke-miterlimit="10" stroke-linecap="round" stroke-linejoin="round"/>
<path d="M1187.3 569.374C1187.3 569.374 1186.51 549.776 1180.94 536.169" stroke="#FFFBE3" stroke-width="2.00344" stroke-miterlimit="10" stroke-linecap="round"/>
<path d="M1182.75 541.396C1182.75 541.396 1186.49 557.735 1191.82 557.128C1195.28 556.736 1196.73 555.699 1196.99 544.332C1197.25 532.966 1196.53 523.441 1193.37 525.6C1190.21 527.759 1197.7 546.066 1200.17 551.406" stroke="#FFFBE3" stroke-width="2.00344" stroke-miterlimit="10" stroke-linecap="round"/>
<path d="M1196.98 544.334C1196.98 544.334 1197.67 538.398 1199.25 536.852C1202.13 534.024 1203.17 541.804 1203.98 543.784C1204.79 545.764 1206.73 546.989 1208.75 544.145C1210.76 541.302 1209.93 536.442 1209.93 536.442" stroke="#FFFBE3" stroke-width="2.00344" stroke-miterlimit="10" stroke-linecap="round" stroke-linejoin="round"/>
<path d="M1178.41 555.399L1189.07 541.219" stroke="#FFFBE3" stroke-width="2.00344" stroke-miterlimit="10" stroke-linecap="round"/>
<path d="M1209.17 522.599C1205.58 525.803 1206.1 529.919 1208.32 533.921C1210.53 537.924 1212.52 538.553 1214.99 536.102C1217.45 533.651 1216.95 527.5 1214.78 522.901C1212.62 518.303 1209.17 522.599 1209.17 522.599Z" stroke="#FFFBE3" stroke-width="2.00344" stroke-miterlimit="10" stroke-linecap="round" stroke-linejoin="round"/>
<path d="M1212.85 518.916C1212.85 518.916 1213.14 519.909 1214.79 522.9C1216.43 525.895 1219.59 529.235 1221.67 526.998C1223.76 524.761 1223.07 519.28 1221.4 515.008C1219.73 510.736 1219.65 509.144 1220.86 508.324C1222.07 507.506 1224.33 507.878 1225.78 511.428C1227.23 514.978 1228.54 517.773 1228.54 517.773" stroke="#FFFBE3" stroke-width="2.00344" stroke-miterlimit="10" stroke-linecap="round" stroke-linejoin="round"/>
<path d="M1241.8 501.142C1241.8 501.142 1244.78 507.638 1240.92 510.111C1237.06 512.584 1234.24 509.765 1231.97 503.703C1230.14 498.845 1228.05 500.07 1227.07 500.671C1225.91 501.383 1222.9 504.913 1225.32 510.485" stroke="#FFFBE3" stroke-width="2.00344" stroke-miterlimit="10" stroke-linecap="round" stroke-linejoin="round"/>
<path d="M1248.14 724.357L1250.17 704.174L1257.8 710.449L1267.25 698.724L1274.92 720.991" stroke="#FFFBE3" stroke-width="3.00516" stroke-miterlimit="10" stroke-linecap="round" stroke-linejoin="round"/>
<path d="M1291.66 718.809C1297.69 719.415 1303.06 715.025 1303.67 709.003C1304.27 702.981 1299.88 697.608 1293.86 697.002C1287.84 696.396 1282.46 700.787 1281.86 706.809C1281.25 712.83 1285.64 718.203 1291.66 718.809Z" stroke="#FFFBE3" stroke-width="3.00516" stroke-miterlimit="10" stroke-linecap="round" stroke-linejoin="round"/>
<path d="M1311.36 720.248L1312.68 696.137L1333.22 727.401L1333.74 689.437" stroke="#FFFBE3" stroke-width="3.00516" stroke-miterlimit="10" stroke-linecap="round" stroke-linejoin="round"/>
<path d="M1356.76 690.655L1343.86 731.229" stroke="#FFFBE3" stroke-width="3.00516" stroke-miterlimit="10" stroke-linecap="round" stroke-linejoin="round"/>
<path d="M1340.18 691.192C1340.18 691.192 1356.87 689.569 1374.82 691.919" stroke="#FFFBE3" stroke-width="3.00516" stroke-miterlimit="10" stroke-linecap="round" stroke-linejoin="round"/>
<path d="M1369.03 700.155L1356.4 737.998" stroke="#FFFBE3" stroke-width="3.00516" stroke-miterlimit="10" stroke-linecap="round" stroke-linejoin="round"/>
<path d="M1388.39 699.344L1373.8 745.809" stroke="#FFFBE3" stroke-width="3.00516" stroke-miterlimit="10" stroke-linecap="round" stroke-linejoin="round"/>
<path d="M1365.79 710.441L1384.27 712.844" stroke="#FFFBE3" stroke-width="3.00516" stroke-miterlimit="10" stroke-linecap="round" stroke-linejoin="round"/>
<path d="M1378.46 653.281C1374.57 647.671 1366.19 659.096 1370.09 662.782C1372.62 665.169 1378.07 665.365 1386.93 658.24C1395.79 651.115 1402.61 644.427 1398.93 643.403C1395.24 642.38 1386.06 659.899 1383.57 665.232" stroke="#FFFBE3" stroke-width="2.00344" stroke-miterlimit="10" stroke-linecap="round"/>
<path d="M1386.93 658.239C1386.93 658.239 1391.91 654.938 1394.11 655.149C1398.13 655.533 1392.85 661.339 1391.86 663.235C1390.87 665.13 1391.18 667.407 1394.65 667.114C1398.13 666.821 1401.31 663.054 1401.31 663.054" stroke="#FFFBE3" stroke-width="2.00344" stroke-miterlimit="10" stroke-linecap="round" stroke-linejoin="round"/>
<path d="M1359.8 651.578C1355.03 650.89 1352.23 653.946 1350.59 658.218C1348.96 662.489 1349.76 664.419 1353.22 664.722C1356.68 665.026 1361.07 660.686 1363.18 656.062C1365.31 651.442 1359.8 651.578 1359.8 651.578Z" stroke="#FFFBE3" stroke-width="2.00344" stroke-miterlimit="10" stroke-linecap="round" stroke-linejoin="round"/>
<path d="M1364.98 652.012C1364.98 652.012 1364.41 652.876 1363.19 656.064C1361.96 659.252 1361.43 663.815 1364.49 663.972C1365.87 664.043 1367.4 663.249 1368.86 661.986" stroke="#FFFBE3" stroke-width="2.00344" stroke-miterlimit="10" stroke-linecap="round" stroke-linejoin="round"/>
<path d="M1349.72 660.714C1346.07 668.348 1338.21 668.05 1335.68 661.179C1333.16 654.308 1338.93 647.437 1345.51 648.632C1351.53 649.726 1346.57 655.237 1341.36 656.93C1336.15 658.623 1327.28 659.653 1325.29 654.01" stroke="#FFFBE3" stroke-width="2.00344" stroke-linecap="round" stroke-linejoin="round"/>
<path d="M1133.18 642.857L1114.16 616.277L1127.55 616.319L1115.59 601.397L1138.96 604.532" stroke="#FFFBE3" stroke-width="3.00516" stroke-miterlimit="10" stroke-linecap="round" stroke-linejoin="round"/>
<path d="M1135.52 593.908C1144.01 592.667 1149.85 584.562 1148.57 575.803C1147.29 567.044 1139.37 560.95 1130.88 562.19C1122.4 563.431 1116.56 571.536 1117.84 580.295C1119.12 589.054 1127.04 595.148 1135.52 593.908Z" stroke="#FFFBE3" stroke-width="3.00516" stroke-miterlimit="10" stroke-linecap="round" stroke-linejoin="round"/>
<path d="M1158.65 554.027C1158.65 554.027 1115.27 550.363 1115 550.165C1115 550.165 1114.11 531.379 1121.7 532.401C1129.28 533.424 1128.63 550.999 1128.63 550.999" stroke="#FFFBE3" stroke-width="3.00516" stroke-miterlimit="10" stroke-linecap="round" stroke-linejoin="round"/>
<path d="M1128.16 542.113C1128.16 542.113 1138.34 542.017 1145.69 541.475C1153.04 540.933 1153.47 534.743 1149.1 530.319" stroke="#FFFBE3" stroke-width="3.00516" stroke-miterlimit="10" stroke-linecap="round" stroke-linejoin="round"/>
<path d="M1150.26 491.725L1150.11 521.587L1118.33 520.372L1111.35 501.497" stroke="#FFFBE3" stroke-width="3.00516" stroke-miterlimit="10" stroke-linecap="round" stroke-linejoin="round"/>
<path d="M1127 499.655L1129.05 520.936" stroke="#FFFBE3" stroke-width="3.00516" stroke-miterlimit="10" stroke-linecap="round" stroke-linejoin="round"/>
<path d="M1017.7 670.307L1034.92 650.825" stroke="white" stroke-width="2.6031" stroke-linecap="round" stroke-linejoin="round"/>
<path d="M1015.06 684.879L1007.3 665.337L1036.78 634.95L1044.3 649.025" stroke="white" stroke-width="2.6031" stroke-linecap="round" stroke-linejoin="round"/>
<path d="M1252.29 750.476L1077.21 617.764C1074.62 615.805 1070.95 616.25 1068.91 618.769L957.94 755.698C956.584 757.371 956.227 759.642 957.004 761.651L1000.09 872.984C1000.94 875.176 1002.99 876.672 1005.34 876.814L1121.17 883.834C1122.85 883.935 1124.49 883.329 1125.7 882.161L1252.83 759.593C1255.49 757.032 1255.23 752.705 1252.29 750.476Z" fill="#1CB0A8"/>
<path d="M1227.11 751.882L1078.43 639.169C1076.7 637.862 1074.26 638.159 1072.89 639.839L978.779 755.98C977.875 757.096 977.637 758.61 978.156 759.949L1014.78 854.557C1015.34 856.018 1016.71 857.016 1018.27 857.11L1116.58 863.075C1117.7 863.143 1118.8 862.739 1119.61 861.96L1227.47 757.959C1229.24 756.252 1229.07 753.368 1227.11 751.882Z" fill="#95D5D2"/>
<path d="M1087.79 771.876C1094.89 737.974 1086.57 713.708 1070.34 688.854C1062.82 677.359 1052.52 689.409 1057.6 697.176C1077.17 727.139 1074.22 748.873 1073.7 787.558C1073.67 790 1076.61 791.741 1078.85 790.762C1117.14 773.993 1129.35 770.691 1160.18 779.546C1173.1 784.261 1181.79 771.354 1167.71 766.646C1136.6 757.712 1115.12 754.013 1087.79 771.876Z" fill="white"/>
<circle cx="1073.78" cy="628.188" r="2.5043" transform="rotate(-1.35454 1073.78 628.188)" stroke="#1A1A1A" stroke-width="2.00344"/>
<circle cx="1241.12" cy="755.494" r="2.5043" transform="rotate(-1.35454 1241.12 755.494)" stroke="#1A1A1A" stroke-width="2.00344"/>
</g>
<defs>
<clipPath id="clip0">
<rect width="1601" height="909" fill="white"/>
</clipPath>
</defs>
</svg>
