<svg height="80" width="456" xmlns="http://www.w3.org/2000/svg" viewBox="0 0 456 80"><linearGradient id="a" gradientUnits="userSpaceOnUse" x1="64.51" x2="14.037" y1="15.364" y2="66.212"><stop offset="0" stop-color="#ff9640"/><stop offset=".6" stop-color="#fc4055"/><stop offset="1" stop-color="#e31587"/></linearGradient><linearGradient id="b" gradientUnits="userSpaceOnUse" x1="65.224" x2="25.773" y1="7.341" y2="58.44"><stop offset="0" stop-color="#fff36e" stop-opacity=".8"/><stop offset=".094" stop-color="#fff36e" stop-opacity=".699"/><stop offset=".752" stop-color="#fff36e" stop-opacity="0"/></linearGradient><linearGradient id="c" gradientUnits="userSpaceOnUse" x1="13.158" x2="55.479" y1="72.895" y2="30.575"><stop offset="0" stop-color="#0090ed"/><stop offset=".325" stop-color="#5b6df8"/><stop offset=".529" stop-color="#9059ff"/><stop offset="1" stop-color="#b833e1"/></linearGradient><linearGradient id="d" gradientUnits="userSpaceOnUse" x1="-.1" x2="24.498" y1="40.341" y2="58.395"><stop offset="0" stop-color="#054096" stop-opacity=".6"/><stop offset=".127" stop-color="#1b3aa4" stop-opacity=".441"/><stop offset=".315" stop-color="#3633b5" stop-opacity=".249"/><stop offset=".502" stop-color="#4a2ec1" stop-opacity=".111"/><stop offset=".686" stop-color="#552bc9" stop-opacity=".028"/><stop offset=".864" stop-color="#592acb" stop-opacity="0"/></linearGradient><linearGradient id="e" gradientUnits="userSpaceOnUse" x1="75.497" x2="67.047" y1="39.04" y2="53.675"><stop offset="0" stop-color="#722291" stop-opacity=".5"/><stop offset=".5" stop-color="#722291" stop-opacity="0"/></linearGradient><path d="M39.994 80a14.559 14.559 0 0 1-9.507-3.395A279.9 279.9 0 0 1 3.418 49.528a15.021 15.021 0 0 1-.018-19.04A279.767 279.767 0 0 1 30.471 3.419a15.023 15.023 0 0 1 19.042-.014A280.029 280.029 0 0 1 76.578 30.5a15.023 15.023 0 0 1 .014 19.041 160.244 160.244 0 0 1-2.769 3.075l-.913 1a4.065 4.065 0 0 1-5.046.832 4.005 4.005 0 0 1-.932-6.15l1-1.088a149.103 149.103 0 0 0 2.624-2.913 7.042 7.042 0 0 0-.015-8.551 271.95 271.95 0 0 0-26.269-26.3 7.041 7.041 0 0 0-8.552.014A271.79 271.79 0 0 0 9.445 35.732a7.042 7.042 0 0 0 .014 8.552 271.813 271.813 0 0 0 26.273 26.283 7.044 7.044 0 0 0 8.552-.014c4.121-3.6 7.72-6.882 10.917-9.963L44.175 50.518l-.087-.082A6.906 6.906 0 0 1 42 45.305a7.114 7.114 0 0 1 2.447-5.153C46.671 38.214 48 35.915 48 34a8 8 0 0 0-15.963-.8c-.295 3.154 2.681 6.07 3.6 6.888a7 7 0 0 1-.031 10.5l-4.867 4.332a4.065 4.065 0 0 1-5.109.3 4 4 0 0 1-.284-6.214l3.381-3a1.007 1.007 0 0 0 .051-1.443c-3.394-3.649-5.093-7.968-4.706-12.1A16 16 0 0 1 56 34a15.925 15.925 0 0 1-4.77 10.718 1 1 0 0 0 .033 1.439l11.69 10.68a5.079 5.079 0 0 1 1.614 3.628 5.016 5.016 0 0 1-1.467 3.594C59.232 67.9 54.8 72 49.529 76.594A14.606 14.606 0 0 1 39.994 80z" fill="url(#a)"/><path d="M39.994 80a14.559 14.559 0 0 1-9.507-3.395A279.9 279.9 0 0 1 3.418 49.528a15.021 15.021 0 0 1-.018-19.04A279.767 279.767 0 0 1 30.471 3.419a15.023 15.023 0 0 1 19.042-.014A280.029 280.029 0 0 1 76.578 30.5a15.023 15.023 0 0 1 .014 19.041 160.244 160.244 0 0 1-2.769 3.075l-.913 1a4.065 4.065 0 0 1-5.046.832 4.005 4.005 0 0 1-.932-6.15l1-1.088a149.103 149.103 0 0 0 2.624-2.913 7.042 7.042 0 0 0-.015-8.551 271.95 271.95 0 0 0-26.269-26.3 7.041 7.041 0 0 0-8.552.014A271.79 271.79 0 0 0 9.445 35.732a7.042 7.042 0 0 0 .014 8.552 271.813 271.813 0 0 0 26.273 26.283 7.044 7.044 0 0 0 8.552-.014c4.121-3.6 7.72-6.882 10.917-9.963L44.175 50.518l-.087-.082A6.906 6.906 0 0 1 42 45.305a7.114 7.114 0 0 1 2.447-5.153C46.671 38.214 48 35.915 48 34a8 8 0 0 0-15.963-.8c-.295 3.154 2.681 6.07 3.6 6.888a7 7 0 0 1-.031 10.5l-4.867 4.332a4.065 4.065 0 0 1-5.109.3 4 4 0 0 1-.284-6.214l3.381-3a1.007 1.007 0 0 0 .051-1.443c-3.394-3.649-5.093-7.968-4.706-12.1A16 16 0 0 1 56 34a15.925 15.925 0 0 1-4.77 10.718 1 1 0 0 0 .033 1.439l11.69 10.68a5.079 5.079 0 0 1 1.614 3.628 5.016 5.016 0 0 1-1.467 3.594C59.232 67.9 54.8 72 49.529 76.594A14.606 14.606 0 0 1 39.994 80z" fill="url(#b)"/><path d="M75.369 41.656a37.313 37.313 0 0 0-4.832-5.911 7.042 7.042 0 0 1 .015 8.551c-.96 1.1-1.743 1.953-2.624 2.913l-.84.917a4.151 4.151 0 0 0-.051 5.673 4 4 0 0 0 5.807-.112l.979-1.071a225.682 225.682 0 0 0 1.574-1.727l.06-.074c1.543-1.928 2.6-5.027-.088-9.159zm-18.292 20.81L55.2 60.59c-3.2 3.081-6.8 6.365-10.917 9.963a7.044 7.044 0 0 1-8.552.014A271.813 271.813 0 0 1 9.459 44.284a7.042 7.042 0 0 1-.014-8.552s-3.8 4.331-4.565 5.6a9.176 9.176 0 0 0 .852 10.815 279.447 279.447 0 0 0 24.755 24.46 15.024 15.024 0 0 0 19.042-.014c2.867-2.5 5.487-4.858 7.9-7.1l.025-.023a4.415 4.415 0 0 0 .528-5.879 13.488 13.488 0 0 0-.905-1.125z" fill="url(#c)"/><path d="M9.459 44.284a7.042 7.042 0 0 1-.014-8.552s-3.8 4.331-4.565 5.6a9.176 9.176 0 0 0 .852 10.815A282.118 282.118 0 0 0 18.891 65.9l5.657-5.657A275.396 275.396 0 0 1 9.459 44.284z" fill="url(#d)" opacity=".9"/><path d="M75.369 41.656a37.313 37.313 0 0 0-4.832-5.911 7.042 7.042 0 0 1 .015 8.551c-.96 1.1-1.743 1.953-2.624 2.913l-.84.917a4.151 4.151 0 0 0-.051 5.673 4 4 0 0 0 5.807-.112l.979-1.071a225.682 225.682 0 0 0 1.574-1.727l.06-.074c1.543-1.928 2.6-5.027-.088-9.159z" fill="url(#e)"/><path d="M97 24h21.419v5.79h-15.274v7.851h15.274v5.746h-15.274v12.634H97zm28.705-2.237a3.444 3.444 0 0 1 3.555 3.6 3.577 3.577 0 0 1-7.154.088 3.553 3.553 0 0 1 3.599-3.686zm-3.028 10.571h6.057v23.687h-6.057zm23.613 6.579a4.9 4.9 0 0 0-2.94-1.053c-2.458 0-3.863 1.579-3.863 5.044v13.117h-6.013V32.336h5.75v3.421a5.647 5.647 0 0 1 5.662-3.641 7.194 7.194 0 0 1 4.038 1.228zm2.5 5.4a12.121 12.121 0 0 1 12.2-12.457c7.11 0 12.158 5.044 12.158 12.062v2.5h-18.431c.659 2.983 2.985 4.957 6.54 4.957a6.354 6.354 0 0 0 5.882-3.509l5.047 3.026c-2.5 3.685-6.057 5.614-11.1 5.614-7.686-.006-12.294-5.134-12.294-12.196zm6.013-2.676h12.467c-.658-3.026-3.116-4.693-6.32-4.693a6.088 6.088 0 0 0-6.145 4.69zm19.839-9.3h4.258v-1.186c0-6.448 2.721-9.123 8.69-9.123h2.11v5.22h-1.712c-2.809 0-3.423.964-3.423 3.9v1.185h5.135v5.438h-5v18.25h-5.8V37.774h-4.258zm16.2 11.842a12.131 12.131 0 0 1 12.378-12.325 12.325 12.325 0 1 1 0 24.65 11.951 11.951 0 0 1-12.38-12.326zm18.874 0a6.5 6.5 0 1 0-12.992 0 6.5 6.5 0 1 0 12.992 0zm14.045-.263l-8.561-11.58h7.11l5.048 7.281 5.179-7.281h6.979l-8.691 11.535 9.13 12.15h-7.067l-5.662-7.72-5.486 7.72h-7.067zm34.885-19.832h-3.725v31.932h20.4v-3.544h-16.675zm31.22 7.83a12.293 12.293 0 1 0 12.46 12.292 12.212 12.212 0 0 0-12.46-12.292zm0 21.171a8.616 8.616 0 0 1-8.735-8.879 8.759 8.759 0 1 1 17.514 0 8.652 8.652 0 0 1-8.779 8.879zm28.558.044a8.89 8.89 0 0 1-8.957-8.923 8.779 8.779 0 0 1 8.824-8.924 8.466 8.466 0 0 1 8.027 5.249l3.325-1.443a12.049 12.049 0 0 0-11.307-7.174 12.294 12.294 0 1 0 .044 24.586 11.971 11.971 0 0 0 11.4-7.436l-3.37-1.4a8.562 8.562 0 0 1-7.986 5.465zm36.23-20.729h-4.568L337.4 45.737v-24.19h-3.592v34.469h3.592v-6.167l5.1-5.337 8.337 11.5h4.39l-10.063-13.731zm29.268 18.59l-7.139-18.59h-3.371L366.1 51.116 360.065 32.4h-3.813l7.848 23.616h3.547l7.36-18.721 7.361 18.721h3.282l8.293-23.616h-3.769zm15.434-28.694a2.844 2.844 0 1 0 2.882 2.843 2.792 2.792 0 0 0-2.882-2.848zm-1.819 33.725h3.681V32.4h-3.681zm18.448-13.648c-3.725-.743-6.607-1.225-6.607-3.673 0-2.188 1.507-3.763 5.188-3.763a7.764 7.764 0 0 1 6.563 3.15l3.015-2.012c-2.129-2.581-5.144-4.2-9.578-4.2-5.676-.044-8.913 3.193-8.913 6.867 0 4.724 4.39 5.818 8.514 6.6 3.5.7 6.784 1.225 6.784 3.85 0 2.362-1.951 4.112-5.676 4.112a8.879 8.879 0 0 1-7.715-3.85l-3.148 2.1c2.128 3.018 5.543 4.943 10.774 4.943 6.253.043 9.446-3.63 9.446-7.349 0-4.855-4.523-5.992-8.647-6.78zm36.315 1.57c0-7-5.189-12.029-12.195-12.029a12.2 12.2 0 0 0-12.5 12.379c0 6.912 4.966 12.2 12.637 12.2a12.339 12.339 0 0 0 11.13-5.993l-3.1-1.793a8.581 8.581 0 0 1-8.027 4.549c-5.054 0-8.558-3.193-9.09-7.7H452.3zm-21.06-1.531a8.862 8.862 0 0 1 8.868-7.3c4.657 0 7.894 2.843 8.47 7.305z" fill="#20123a"/></svg>
