<svg xmlns="http://www.w3.org/2000/svg" width="350" height="350" viewBox="0 0 350 350" xml:space="preserve">
  <style>
    .st0{fill:#d9bfff}.st1{fill:#c38afa}.st2{fill:#7542e5}.st3{fill:#9060fb}
  </style>
  <path id="path-2" d="M169.1 70.4c0-.7-.5-1.4-1.2-1.5-3-.5-11.2-2.5-14-5.2s-4.7-11-5.2-14c-.1-.7-.8-1.2-1.5-1.2v22h21.9z" class="st0"/>
  <path id="path-3" d="M147.2 48.5c-.7 0-1.4.5-1.5 1.3-.5 3-2.3 11-5.1 14s-11 4.7-14.2 5.3c-.7.1-1.2.8-1.2 1.5h22.1l-.1-22.1z" class="st1"/>
  <path id="path-4" d="M147.1 70.4v22c.7 0 1.4-.5 1.5-1.3.5-3 2.5-11.4 5.2-14.1 2.8-2.8 11-4.6 14-5.1.7-.1 1.3-.7 1.3-1.5h-22z" class="st1"/>
  <path id="path-5" d="M125.2 70.4c0 .7.5 1.4 1.3 1.5 3 .5 11.4 2.3 14.2 5.1 2.8 2.8 4.6 11 5.1 14.2.1.7.7 1.3 1.5 1.3V70.4h-22.1z" class="st2"/>
  <path id="path-2-2" d="M221.8 41.4c0-1.1-.8-2.1-1.9-2.4-4.7-.9-17.5-3.9-21.9-8.2s-7.4-17.2-8.2-21.9c-.2-1.1-1.2-1.9-2.4-1.9v34.3h34.4z" class="st0"/>
  <path id="path-3-2" d="M187.7 7.1c-1.1 0-2.1.8-2.3 2-.8 4.6-3.7 17.3-8 21.9s-17.2 7.4-22.2 8.2c-1.1.2-1.9 1.2-1.9 2.4h34.4V7.1z" class="st1"/>
  <path id="path-4-2" d="M187.5 41.4v34.3c1.1 0 2.1-.8 2.3-2 .8-4.7 3.9-17.7 8.2-22.1s17.2-7.2 21.8-7.9c1.1-.2 1.9-1.2 2-2.3h-34.3z" class="st1"/>
  <path id="path-5-2" d="M153.2 41.4c0 1.2.8 2.2 2 2.3 4.7.8 17.8 3.7 22.2 8 4.4 4.4 7.2 17.2 8 22.2.2 1.2 1.1 2 2.3 2V41.4h-34.5z" class="st2"/>
  <path d="M73.4 234.5h203v21.4h-203z" class="st3"/>
  <path id="path-2-3" d="M167.7 14.5c0-.5-.3-.9-.8-1-2-.4-7.4-1.6-9.2-3.5-1.8-1.8-3.1-7.2-3.5-9.2-.1-.5-.5-.8-1-.8v14.5h14.5z" class="st0"/>
  <path id="path-3-3" d="M153.3 0c-.5 0-.9.4-1 .8-.3 2-1.5 7.3-3.4 9.2-1.8 2-7.3 3.1-9.4 3.5-.5.1-.8.5-.8 1h14.5l.1-14.5z" class="st1"/>
  <path id="path-4-3" d="M153.2 14.5V29c.5 0 .9-.4 1-.8.4-2 1.6-7.5 3.5-9.3 1.8-1.8 7.2-3 9.2-3.4.5-.1.8-.5.8-1h-14.5z" class="st1"/>
  <path id="path-5-3" d="M138.7 14.5c0 .5.3.9.8 1 2 .3 7.5 1.5 9.3 3.4 1.9 1.8 3 7.3 3.4 9.3.1.5.5.9 1 .9V14.5h-14.5z" class="st2"/>
  <path d="M62 182.2h226c4.9 0 8.8 4 8.8 8.8v45.8H53.1V191c0-4.9 4-8.8 8.9-8.8z" class="st0"/>
  <path d="M267.6 350H82.1c-4.9 0-8.8-4-8.8-8.8v-87.1h203.1v87.1c.1 4.8-3.9 8.8-8.8 8.8z" class="st1"/>
  <path d="M140.7 182.2h68.7V350h-68.7z" class="st3"/>
  <circle cx="175.2" cy="263.3" r="49" fill="#7542e5" stroke="#9060fb" stroke-miterlimit="10" stroke-width="7.0657"/>
  <circle cx="175" cy="251.1" r="20.1" class="st0" transform="rotate(-80.781 175.01330683 251.0862882)"/>
  <path d="M202.8 274.8c-3.8-4.4-10.5-3.5-16 1.1-4.2 3.5-11.8 3.6-11.8 3.6s-7.6-.1-11.8-3.6c-5.5-4.7-12.1-5.5-16-1.1-2.5 2.9-1.8 8.4 2 12.1 3.8 3.7 13.2 12.2 25.8 12.2s22.1-8.5 25.8-12.2c3.7-3.8 4.5-9.2 2-12.1z" class="st0"/>
  <path d="M197.9 113.8c-19 0-25.2 18.2-25.2 18.2s-6.2-18.2-25.2-18.2S123 125.5 123 140s16.7 33.1 49.6 50.2c32.9-17.1 49.6-35.8 49.6-50.2s-5.4-26.2-24.3-26.2z" class="st2"/>
  <path d="M178.7 174.4c15.6-6.4 29.9-15.6 42.1-27.2l.2-.1c.8-2.3 1.2-4.7 1.3-7.2 0-14.5-5.5-26.2-24.4-26.2S172.7 132 172.7 132s-6.2-18.2-25.2-18.2c-8.8 0-14.7 2.5-18.5 6.7 0 4 1.2 35.7 49.7 53.9z" class="st3"/>
</svg>
