<svg xmlns="http://www.w3.org/2000/svg" width="350" height="350" viewBox="0 0 350 350" xml:space="preserve">
  <style>
    .st1{fill:#592ac9}.st6{fill:#7542e5}.st7{fill:#9059ff}.st9{fill:#45278d}
  </style>
  <path fill="#9d9dab" d="M207.6 226.7c1.5-1.8 2.3-4 2.3-6.3V100.5c0-5.5-4.5-10-10-10H30c-5.5 0-10 4.5-10 10v119.9c0 2.3.8 4.5 2.3 6.3L0 230.5v10h229.8v-10l-22.2-3.8z"/>
  <path d="M133.2 110.5L30 213.8c0 1.8 1.5 3.3 3.3 3.3h163.2c1.8 0 3.4-1.5 3.4-3.3V110.5h-66.7z" class="st1"/>
  <path fill="#6736d6" d="M30 110.5v103.3l103.3-103.3H30z"/>
  <path d="M196.5 100.5H33.3c-1.8 0-3.3 1.5-3.3 3.3v6.7h169.9v-6.7c0-1.8-1.5-3.3-3.4-3.3z" class="st1"/>
  <path fill="#8d8d9b" d="M196.8 229.2H33.6c-.9.1-1.7-.6-1.8-1.5-.1-.9.6-1.7 1.5-1.8h163.5c.9.1 1.6.9 1.5 1.8 0 .7-.7 1.4-1.5 1.5z"/>
  <path fill="none" stroke="#80808c" stroke-linecap="round" stroke-linejoin="round" stroke-width="1.5556" d="M102.7 233.5H126"/>
  <g>
    <path fill="#dedee4" d="M230.3 48.6h113.5c3.4 0 6.1 2.7 6.1 6.1v150.9c0 3.4-2.7 6.1-6.1 6.1H230.3c-3.4 0-6.1-2.7-6.1-6.1V54.8c0-3.4 2.7-6.2 6.1-6.2z"/>
    <path d="M234.4 174.4v20.4c0 1.9 1.5 3.4 3.4 3.4h98.6c1.9 0 3.4-1.5 3.4-3.4V69L234.4 174.4z" class="st6"/>
    <path d="M234.4 69v105.4L339.8 69H234.4z" class="st7"/>
    <path d="M336.4 58.8h-98.6c-1.9 0-3.4 1.5-3.4 3.4V69h105.4v-6.8c0-1.9-1.5-3.4-3.4-3.4z" class="st6"/>
    <path fill="none" stroke="#5b5b66" stroke-linecap="round" stroke-linejoin="round" stroke-width="1.5556" d="M282 205.1h9.6"/>
    <path d="M275 177.1h3.9c2.1 0 3.9 1.7 3.9 3.9v3.9c0 2.1-1.7 3.9-3.9 3.9H275c-2.1 0-3.9-1.7-3.9-3.9V181c0-2.1 1.7-3.9 3.9-3.9z" class="st9"/>
    <path d="M295.4 177.1h3.9c2.1 0 3.9 1.7 3.9 3.9v3.9c0 2.1-1.7 3.9-3.9 3.9h-3.9c-2.1 0-3.9-1.7-3.9-3.9V181c0-2.1 1.7-3.9 3.9-3.9z" class="st9"/>
    <path d="M315.8 177.1h3.9c2.1 0 3.9 1.7 3.9 3.9v3.9c0 2.1-1.7 3.9-3.9 3.9h-3.9c-2.1 0-3.9-1.7-3.9-3.9V181c0-2.1 1.7-3.9 3.9-3.9z" class="st9"/>
  </g>
  <g>
    <path fill="#bdbdc7" d="M255.1 152h-71.4c-5.6 0-10.2 4.6-10.2 10.2v129c0 5.6 4.6 10.2 10.2 10.2h71.4c5.6 0 10.2-4.6 10.2-10.2v-129c0-5.6-4.6-10.2-10.2-10.2z"/>
    <path fill="#ab71ff" d="M183.7 172.4v112c0 1.9 1.5 3.4 3.4 3.4h64.6c1.9 0 3.4-1.5 3.4-3.4v-112h-71.4z"/>
    <path fill="#c689ff" d="M183.7 172.4v71.3l71.4-71.3h-71.4z"/>
    <path d="M251.7 162.2h-64.6c-1.9 0-3.4 1.5-3.4 3.4v6.8h71.4v-6.8c0-1.9-1.5-3.4-3.4-3.4z" class="st7"/>
    <path fill="none" stroke="#9d9dab" stroke-linecap="round" stroke-linejoin="round" stroke-width="1.5556" d="M214.9 294.6h9.6"/>
    <path d="M200.1 267.1h4.7c1.7 0 3.1 1.4 3.1 3.1v4.7c0 1.7-1.4 3.1-3.1 3.1h-4.7c-1.7 0-3.1-1.4-3.1-3.1v-4.7c0-1.7 1.4-3.1 3.1-3.1z" class="st6"/>
    <path d="M217.3 267.1h4.7c1.7 0 3.1 1.4 3.1 3.1v4.7c0 1.7-1.4 3.1-3.1 3.1h-4.7c-1.7 0-3.1-1.4-3.1-3.1v-4.7c0-1.7 1.3-3.1 3.1-3.1z" class="st6"/>
    <path d="M234.1 267.1h4.7c1.7 0 3.1 1.4 3.1 3.1v4.7c0 1.7-1.4 3.1-3.1 3.1h-4.7c-1.7 0-3.1-1.4-3.1-3.1v-4.7c0-1.7 1.4-3.1 3.1-3.1z" class="st6"/>
    <path fill="#fff" d="M301.1 123.2c-.3-.1-.7-.1-1 0-1 0-1.8.7-2 1.6-1.2 5-5.7 8.5-10.8 8.5l-1.5-.1c-2.9-.4-5.6-2-7.4-4.4h4.4c1.2-.1 2.2-1.1 2.1-2.4-.1-1.1-1-2-2.1-2.1h-8.9c-1.2 0-2.2 1-2.2 2.2v9c0 1.2 1 2.2 2.2 2.2 1.2 0 2.2-1 2.2-2.2v-2c2.5 2.3 5.7 3.7 9.1 4.1.7.1 1.3.2 2 .2 7.4.2 14-4.8 15.6-12.1.3-1.2-.5-2.3-1.7-2.5zm1.9-14.4c0-1.2-1-2.2-2.2-2.2-1.2 0-2.2 1-2.2 2.2v2c-2.6-2.3-5.8-3.8-9.2-4.2-.7-.1-1.4-.1-2.1-.1h-.3c-7.3-.2-13.8 4.9-15.4 12-.2 1.2.6 2.4 1.8 2.6h.1c.3.1.6.1.8 0 1 0 1.9-.7 2.2-1.7 1.2-4.9 5.6-8.4 10.7-8.5h.1c.5 0 1 0 1.6.1 2.9.4 5.6 2 7.4 4.4h-4.6c-1.2 0-2.2 1-2.2 2.2s1 2.2 2.2 2.2h9c1.2.1 2.3-.9 2.3-2.1v-8.9zm-167.3 55c-2-.2-3.8.9-4.7 2.7-1.9 7.7-8.8 13-16.7 13.1-5.3-.1-10.3-2.6-13.5-6.9h6.8c1.9-.1 3.4-1.7 3.3-3.6-.1-1.8-1.5-3.2-3.3-3.3H93.8c-1.9 0-3.4 1.5-3.4 3.4V183c.1 1.9 1.7 3.4 3.6 3.3 1.8-.1 3.2-1.5 3.3-3.3v-3.2c3.9 3.5 8.8 5.8 14.1 6.4 1 .2 2.1.2 3.1.2 11.9 0 22.1-7.8 24.1-18.6.2-1.8-1-3.6-2.9-4zm2.9-22.2c-.2-1.9-1.8-3.3-3.7-3.2-1.7.1-3 1.5-3.2 3.2v3.2c-3.9-3.5-8.8-5.7-14-6.3-1.1-.2-2.1-.2-3.2-.2h-.3c-11.8.2-21.8 7.9-23.6 18.6-.3 1.9.9 3.7 2.7 4h.6c.2 0 .4-.1.7-.1 1.5 0 2.9-1.1 3.3-2.6 1.9-7.6 8.6-13 16.5-13.1h.2c.8 0 1.6.1 2.3.2 4.5.6 8.6 3 11.3 6.7h-6.8c-1.9 0-3.4 1.5-3.4 3.4s1.5 3.4 3.4 3.4H135c1.9 0 3.5-1.5 3.5-3.4v-13.8zm94.8 80.2c-1.3-.2-2.5.5-3 1.6-1.2 5-5.7 8.5-10.8 8.5-.5 0-1 0-1.5-.1-2.9-.4-5.6-2-7.4-4.4h4.4c1.2-.1 2.2-1.1 2.1-2.4-.1-1.1-1-2-2.1-2.1h-9c-1.2 0-2.2 1-2.2 2.2v8.9c-.1 1.2.8 2.3 2 2.4s2.3-.8 2.4-2V232c2.6 2.3 5.7 3.7 9.2 4.1.7.1 1.3.1 2 .1 7.4.2 14-4.8 15.6-12.1.3-.9-.5-2-1.7-2.3zm1.9-14.3c.1-1.2-.9-2.3-2.1-2.4-1.2-.1-2.3.9-2.4 2.1v2.4c-2.5-2.3-5.7-3.8-9.1-4.2-.7-.1-1.4-.1-2.1-.1h-.2c-7.3-.2-13.8 4.9-15.4 12.1-.2 1.2.6 2.4 1.8 2.6h.8c1 0 1.9-.7 2.2-1.7 1.2-4.9 5.6-8.4 10.7-8.5h.1c.5 0 1 0 1.6.1 2.9.4 5.6 2 7.4 4.4h-4.4c-1.2-.2-2.3.7-2.5 1.9-.2 1.2.7 2.3 1.9 2.5h9.5c1.2 0 2.2-1 2.3-2.2l-.1-9z"/>
  </g>
</svg>
