<svg xmlns="http://www.w3.org/2000/svg" viewBox="0 0 1920 608" width="1920" height="608">
  <linearGradient id="a" x1="1144.6028" x2="196.2508" y1="644.6767" y2="894.3907" gradientTransform="translate(0 -468.9)" gradientUnits="userSpaceOnUse">
    <stop offset="0" stop-color="#ff483a"/>
    <stop offset=".31" stop-color="#ff723a"/>
    <stop offset=".452" stop-color="#ff7c3a"/>
    <stop offset=".688" stop-color="#ff963c"/>
    <stop offset=".99" stop-color="#ffbf3e"/>
    <stop offset="1" stop-color="#ffc13e"/>
  </linearGradient>
  <path fill="url(#a)" d="M594 0H125.7l-24.6 332.9c-9.6 128.7 87.1 239.9 225.1 248.9l789.6 24.8c335.3-.2 607-270.7 607-606L594 0"/>
  <linearGradient id="b" x1="1052.6643" x2="946.0204" y1="435.6333" y2="562.7253" gradientTransform="translate(0 -468.9)" gradientUnits="userSpaceOnUse">
    <stop offset=".249" stop-color="#ff2a76"/>
    <stop offset="1" stop-color="#ff723a"/>
  </linearGradient>
  <path fill="url(#b)" d="M1324.8 0h-600"/>
  <linearGradient id="c" x1="1129.1169" x2="680.097" y1="111.6926" y2="1130.6686" gradientTransform="translate(0 -468.9)" gradientUnits="userSpaceOnUse">
    <stop offset="0" stop-color="#702ac7"/>
    <stop offset=".523" stop-color="#ff2a76"/>
    <stop offset=".974" stop-color="#ff723a"/>
  </linearGradient>
  <path fill="url(#c)" d="M725.8 0H.8L76 360.8C102.2 487.1 225.8 567.3 351.9 540l373.9-81.1 994-212.3C1836.1 221.8 1919.2 119 1919.2 0H724.8"/>
  <g transform="translate(-587.73 -.689)">
    <linearGradient id="d" x1="2854.4338" x2="1931.2297" y1="361.7121" y2="829.666" gradientTransform="translate(-1175.46 -468.9)" gradientUnits="userSpaceOnUse">
      <stop offset=".059" stop-color="#804bef"/>
      <stop offset=".116" stop-color="#8b48e7"/>
      <stop offset=".407" stop-color="#bc3bbf"/>
      <stop offset=".661" stop-color="#e131a2"/>
      <stop offset=".868" stop-color="#f72b90"/>
      <stop offset="1" stop-color="#ff298a"/>
    </linearGradient>
    <path fill="url(#d)" d="M1951.7.8H743.8L865 304.7c47.8 119.8 183.4 177.4 302.8 128.5l144.5-59.1L2188.3.7l-236.6.1z"/>
  </g>
</svg>
