<svg xmlns="http://www.w3.org/2000/svg" width="350" height="350" viewBox="0 0 350 350" xml:space="preserve">
  <style>
    .st0{fill:#ab71ff}.st1{fill:#7542e5}.st2{fill:#592acb}.st5{fill:#e7dfff}.st6{fill:#cb9eff}
  </style>
  <path d="M275.6 10.5v329c0 5.8-4.7 10.5-10.5 10.5H84.9c-5.8 0-10.5-4.7-10.5-10.5v-329C74.4 4.7 79.1 0 84.9 0h180.2c5.8 0 10.5 4.7 10.5 10.5z" class="st0"/>
  <path d="M84.9 0h180.2c5.8 0 10.5 4.7 10.5 10.5v8.2H74.4v-8.2C74.4 4.7 79.1 0 84.9 0z" class="st1"/>
  <path d="M74.4 18.7h201.2v27.7H74.4z" class="st2"/>
  <path fill="#45278d" d="M84.4 22.1h181.1c2 0 3.6 1.6 3.6 3.6v13.6c0 2-1.6 3.6-3.6 3.6H84.4c-2 0-3.6-1.6-3.6-3.6V25.7c0-2 1.6-3.6 3.6-3.6z"/>
  <path d="M99 31.1h-.2v-2.2c0-2.2-1.8-3.9-3.9-3.9S91 26.7 91 28.9v2.2h-.2c-1.1 0-1.9.9-1.9 1.9v4.4c0 1.1.9 1.9 1.9 1.9H99c1.1 0 1.9-.9 1.9-1.9V33c.1-1-.8-1.9-1.9-1.9zm-5.9-2.3c-.1-1 .7-1.8 1.7-1.9h.1c.9 0 1.7.7 1.8 1.7v2.5h-3.6v-2.3z" class="st0"/>
  <path fill="#d9bfff" d="M111.2 27h104.6c1.4 0 2.6 1.2 2.6 2.6v5.2c0 1.4-1.2 2.6-2.6 2.6H111.2c-1.4 0-2.6-1.2-2.6-2.6v-5.2c.1-1.5 1.2-2.6 2.6-2.6z"/>
  <path d="M83 139.4V59.6c0-2.7 2.2-4.8 4.8-4.8h77.4c2.7 0 4.8 2.2 4.8 4.8v79.8c0 2.7-2.2 4.8-4.8 4.8H87.9c-2.7 0-4.9-2.1-4.9-4.8z" class="st0"/>
  <path d="M87.9 55.7h77.4c2 0 3.6 1.6 3.6 3.6v79.8c0 2-1.6 3.6-3.6 3.6H87.9c-2 0-3.6-1.6-3.6-3.6V59.4c-.1-2 1.6-3.7 3.6-3.7z" class="st5"/>
  <path d="M268.5 139.7c0 3.5-2.9 6.4-6.4 6.4h-77.9c-3.5 0-6.4-2.9-6.4-6.4V59.4c0-3.5 2.9-6.4 6.4-6.4h77.9c3.5 0 6.4 2.9 6.4 6.4" class="st0"/>
  <path d="M179.3 139.7V59.4c0-2.7 2.2-4.9 4.9-4.9h77.9c2.7 0 4.9 2.2 4.9 4.9v80.3c0 2.7-2.2 4.9-4.9 4.9h-77.9c-2.7-.1-4.9-2.2-4.9-4.9z" class="st0"/>
  <path d="M184.2 56h77.9c2 0 3.6 1.6 3.6 3.6V140c0 2-1.6 3.6-3.6 3.6h-77.9c-2 0-3.6-1.6-3.6-3.6V59.6c0-2 1.6-3.6 3.6-3.6z" class="st5"/>
  <path d="M81.5 239.1v-79.8c0-3.5 2.8-6.3 6.3-6.3h77.3c3.5 0 6.3 2.8 6.3 6.3v79.8c0 3.5-2.8 6.3-6.3 6.3H87.9c-3.5 0-6.4-2.8-6.4-6.3z" class="st0"/>
  <path d="M83 239.1v-79.8c0-2.7 2.2-4.8 4.8-4.8h77.4c2.7 0 4.8 2.2 4.8 4.8v79.8c0 2.7-2.2 4.8-4.8 4.8H87.9c-2.7 0-4.9-2.1-4.9-4.8z" class="st0"/>
  <path d="M87.9 156h77.4c2 0 3.6 1.6 3.6 3.6v79.8c0 2-1.6 3.6-3.6 3.6H87.9c-2 0-3.6-1.6-3.6-3.6v-79.8c-.1-2 1.6-3.6 3.6-3.6z" class="st5"/>
  <path d="M268.5 239.4c0 3.5-2.9 6.4-6.4 6.4h-77.9c-3.5 0-6.4-2.9-6.4-6.4v-80.3c0-3.5 2.9-6.4 6.4-6.4h77.9c3.5 0 6.4 2.9 6.4 6.4" class="st0"/>
  <path d="M179.3 239.4v-80.3c0-2.7 2.2-4.9 4.9-4.9h77.9c2.7 0 4.9 2.2 4.9 4.9v80.3c0 2.7-2.2 4.9-4.9 4.9h-77.9c-2.7-.1-4.9-2.2-4.9-4.9z" class="st0"/>
  <path d="M184.2 155.7h77.9c2 0 3.6 1.6 3.6 3.6v80.3c0 2-1.6 3.6-3.6 3.6h-77.9c-2 0-3.6-1.6-3.6-3.6v-80.3c0-2 1.6-3.6 3.6-3.6z" class="st5"/>
  <path d="M81.5 338.8V259c0-3.5 2.8-6.3 6.3-6.3h77.3c3.5 0 6.3 2.8 6.3 6.3v79.8c0 3.5-2.8 6.3-6.3 6.3H87.9c-3.5 0-6.4-2.8-6.4-6.3z" class="st0"/>
  <path d="M83 338.8V259c0-2.7 2.2-4.8 4.8-4.8h77.4c2.7 0 4.8 2.2 4.8 4.8v79.8c0 2.7-2.2 4.8-4.8 4.8H87.9c-2.7 0-4.9-2.1-4.9-4.8z" class="st0"/>
  <path d="M87.9 255.7h77.4c2 0 3.6 1.6 3.6 3.6v79.8c0 2-1.6 3.6-3.6 3.6H87.9c-2 0-3.6-1.6-3.6-3.6v-79.8c-.1-2 1.6-3.6 3.6-3.6z" class="st5"/>
  <path d="M139 277.8c-8.1 0-12.5 7.7-12.5 7.7s-4.4-7.7-12.5-7.7-10.8 7-10.8 11.8 1.6 8.9 9.1 14.6 11.9 8.8 14.2 8.8c2.3 0 6.8-3.1 14.2-8.8s9.1-9.9 9.1-14.6-2.7-11.8-10.8-11.8z" class="st6"/>
  <path d="M265.1 350H84.9c-5.8 0-10.5-4.7-10.5-10.5v-8.2h201.2v8.2c0 5.8-4.7 10.5-10.5 10.5z" class="st1"/>
  <path d="M74.4 299.8h201.2v31.5H74.4z" class="st2"/>
  <path d="M103.2 314.2H90.5l4.8-5.1c.5-.5.5-1.4-.1-1.9-.5-.5-1.4-.5-1.9.1l-6.9 7.4c-.1.1-.2.2-.2.3v.1c0 .1-.1.2-.1.3v.1c0 .1 0 .2.1.3v.1c.1.1.1.2.2.4l6.9 7.4c.3.3.6.4 1 .4.3 0 .6-.1.9-.4.5-.5.6-1.3.1-1.9l-4.8-5.2h12.7c.7 0 1.3-.6 1.3-1.3s-.5-1.1-1.3-1.1z" class="st0"/>
  <path d="M144.4 315.6v-.1c0-.1 0-.2-.1-.3v-.1c-.1-.1-.1-.2-.2-.3l-6.9-7.4c-.5-.5-1.3-.6-1.9-.1-.5.5-.6 1.3-.1 1.9l4.8 5.1h-12.7c-.7 0-1.3.6-1.3 1.3s.6 1.3 1.3 1.3H140l-4.8 5.2c-.5.5-.5 1.4.1 1.9.3.2.6.4.9.4.4 0 .7-.1 1-.4l6.9-7.4c.1-.1.2-.2.2-.4v-.1c.1-.3.1-.4.1-.5z" class="st0"/>
  <path d="M220.6 323.2h-10.9c-2.1 0-3.7-1.7-3.7-3.7v-7.8c0-2.1 1.7-3.7 3.7-3.7h10.9c2.1 0 3.7 1.7 3.7 3.7v7.8c0 2-1.7 3.7-3.7 3.7zm-10.9-12.6c-.6 0-1.1.5-1.1 1.1v7.8c0 .6.5 1.1 1.1 1.1h10.9c.6 0 1.1-.5 1.1-1.1v-7.8c0-.6-.5-1.1-1.1-1.1h-10.9z" class="st0"/>
  <path d="M262.9 309.8h-15.8c-.7 0-1.3-.6-1.3-1.3s.6-1.3 1.3-1.3h15.8c.7 0 1.3.6 1.3 1.3s-.6 1.3-1.3 1.3z" class="st0"/>
  <path d="M262.9 324h-15.8c-.7 0-1.3-.6-1.3-1.3s.6-1.3 1.3-1.3h15.8c.7 0 1.3.6 1.3 1.3s-.6 1.3-1.3 1.3z" class="st0"/>
  <path d="M262.9 316.9h-15.8c-.7 0-1.3-.6-1.3-1.3s.6-1.3 1.3-1.3h15.8c.7 0 1.3.6 1.3 1.3s-.6 1.3-1.3 1.3z" class="st0"/>
  <path d="M177.1 312.9c0 .3.1.6.3.8.2.2.5.3.8.3h4c.6 0 1.1-.5 1.1-1.1v-4c0-.6-.5-1.1-1.1-1.1-.3 0-.6.1-.8.3l-1 1c-1.5-1.2-3.4-2-5.3-2-2.2 0-4.3.9-5.9 2.4s-2.4 3.7-2.4 5.9.9 4.3 2.4 5.9c1.6 1.6 3.6 2.4 5.9 2.4 3.9 0 7.3-2.8 8.1-6.6.1-.7-.3-1.3-1-1.4-.7-.1-1.3.3-1.4 1-.3 1.5-1.2 2.8-2.5 3.7-2.7 1.8-6.3 1.1-8.1-1.6-.9-1.3-1.2-2.9-.9-4.4.3-1.5 1.2-2.9 2.5-3.7 2.2-1.5 4.9-1.3 6.9.2l-1.2 1.2c-.3.2-.4.5-.4.8z" class="st0"/>
  <path d="M242 112.6l-.1-.1-11-10.9c4.8-6.8 3.2-16.3-3.6-21.1-6.8-4.8-16.3-3.2-21.1 3.6-4.8 6.8-3.2 16.3 3.6 21.1 4.9 3.4 11.3 3.7 16.4.7l11.1 11.1c1.2 1.3 3.2 1.3 4.5.1s1.4-3.2.2-4.5zm-13.6-19.8c0 5.4-4.4 9.8-9.7 9.8-5.5.1-10-4.3-10.1-9.7-.1-5.5 4.3-10 9.7-10.1 5.5-.1 10 4.3 10.1 9.7V92.8z" class="st6"/>
  <path d="M113.2 96c5.3 0 9.6-4.3 9.5-9.6 0-5.3-4.3-9.6-9.6-9.5-5.3 0-9.5 4.3-9.5 9.6 0 5.2 4.3 9.5 9.6 9.5z" class="st6"/>
  <path d="M100.6 116.9l13.7-13.9 5.5 5.6L135 93l23.3 24.1-57.7-.2z" class="st6"/>
  <path d="M119.1 181.9v23.3c-3.2-1.9-7.4-.9-9.4 2.3-1.9 3.2-.9 7.4 2.3 9.4 3.2 1.9 7.4.9 9.4-2.3.6-1.1 1-2.3 1-3.5v-24.7l18.7-3.2v17.6c-3.2-1.9-7.4-.9-9.4 2.3-1.9 3.2-.9 7.4 2.3 9.4 3.2 1.9 7.4.9 9.4-2.3.6-1.1 1-2.3 1-3.5v-29l-25.3 4.2z" class="st6"/>
  <circle cx="223.2" cy="197.8" r="20.1" class="st6"/>
  <path d="M234.6 197.8l-18-10.3v20.7l18-10.4z" class="st5"/>
</svg>
