<svg xmlns="http://www.w3.org/2000/svg" width="350" height="350" viewBox="0 0 350 350" xml:space="preserve">
  <style>
    .st1{fill:#592ac9}.st6{fill:#7542e5}.st7{fill:#9059ff}.st8{fill:#1a59b0}.st9{fill:none;stroke:#9d9dab;stroke-width:2.3333;stroke-linecap:round;stroke-linejoin:round}.st10{fill:#45278d}
  </style>
  <path fill="#9d9dab" d="M256.7 268.1c1.8-2.2 2.8-4.9 2.8-7.8V112.1c0-6.8-5.5-12.3-12.4-12.4h-210c-6.8 0-12.3 5.5-12.4 12.4v148.2c0 2.8 1 5.6 2.8 7.8L0 272.8v12.4h284.2v-12.4l-27.5-4.7z"/>
  <path d="M164.8 124.4L37.1 252.1c0 2.3 1.9 4.1 4.2 4.1H243c2.3 0 4.1-1.8 4.1-4.1V124.4h-82.3z" class="st1"/>
  <path fill="#6736d6" d="M37.1 124.4V252l127.7-127.6H37.1z"/>
  <path d="M243 112.1H41.2c-2.3 0-4.1 1.8-4.1 4.1v8.3h210.1v-8.3c0-2.3-1.9-4.1-4.2-4.1z" class="st1"/>
  <path fill="#8d8d9b" d="M243.4 271.1H41.6c-1.1.2-2.2-.6-2.3-1.8-.2-1.1.6-2.2 1.8-2.3h202.5c1.1.1 2 1.1 1.8 2.3-.2.9-1 1.7-2 1.8z"/>
  <path fill="none" stroke="#80808c" stroke-linecap="round" stroke-linejoin="round" stroke-width="2.3333" d="M126.9 276.4h28.8"/>
  <g>
    <path fill="#dedee4" d="M202 38.9h140.4c4.2 0 7.6 3.4 7.6 7.6v186.6c0 4.2-3.4 7.6-7.6 7.6H202c-4.2 0-7.6-3.4-7.6-7.6V46.5c0-4.2 3.4-7.6 7.6-7.6z"/>
    <path d="M207 194.4v25.2c0 2.3 1.9 4.2 4.2 4.2h122c2.3 0 4.2-1.9 4.2-4.2V64.1L207 194.4z" class="st6"/>
    <path d="M207 64.1v130.3L337.4 64.1H207z" class="st7"/>
    <path d="M333.2 51.5h-122c-2.3 0-4.2 1.9-4.2 4.2v8.4h130.3v-8.4c.1-2.3-1.8-4.2-4.1-4.2z" class="st6"/>
    <circle cx="259.6" cy="204.9" r="6.3" class="st8"/>
    <circle cx="234.4" cy="204.9" r="6.3" class="st8"/>
    <path d="M265.9 232.3h11.9" class="st9"/>
    <path d="M281.3 197.9h7c1.9 0 3.5 1.6 3.5 3.5v7c0 1.9-1.6 3.5-3.5 3.5h-7c-1.9 0-3.5-1.6-3.5-3.5v-7c0-1.9 1.6-3.5 3.5-3.5z" class="st10"/>
    <path d="M306.6 197.9h7c1.9 0 3.5 1.6 3.5 3.5v7c0 1.9-1.6 3.5-3.5 3.5h-7c-1.9 0-3.5-1.6-3.5-3.5v-7c0-1.9 1.5-3.5 3.5-3.5z" class="st10"/>
  </g>
  <g>
    <path fill="#bdbdc7" d="M261.5 144h-79.9c-6.3 0-11.4 5.1-11.4 11.4v144.4c0 6.3 5.1 11.4 11.4 11.4h79.9c6.3 0 11.4-5.1 11.4-11.4V155.4c0-6.3-5.1-11.4-11.4-11.4z"/>
    <path fill="#ab71ff" d="M181.9 166.8v125.4c0 2.1 1.7 3.8 3.8 3.8h72c2.1 0 3.8-1.7 3.8-3.8V166.8h-79.6z"/>
    <path fill="#c689ff" d="M181.6 166.8v79.8l79.9-79.8h-79.9z"/>
    <path d="M257.7 155.4h-72.3c-2.1 0-3.8 1.7-3.8 3.8v7.6h79.9v-7.6c0-2.1-1.7-3.8-3.8-3.8z" class="st7"/>
    <path d="M216.4 303.5h10.9" class="st9"/>
    <path d="M199.4 272.6h6.2c1.7 0 3.1 1.4 3.1 3.1v6.2c0 1.7-1.4 3.1-3.1 3.1h-6.2c-1.7 0-3.1-1.4-3.1-3.1v-6.2c0-1.7 1.4-3.1 3.1-3.1z" class="st6"/>
    <path d="M218.8 272.6h6.2c1.7 0 3.1 1.4 3.1 3.1v6.2c0 1.7-1.4 3.1-3.1 3.1h-6.2c-1.7 0-3.1-1.4-3.1-3.1v-6.2c0-1.7 1.4-3.1 3.1-3.1z" class="st6"/>
    <path d="M237.5 272.6h6.2c1.7 0 3.1 1.4 3.1 3.1v6.2c0 1.7-1.4 3.1-3.1 3.1h-6.2c-1.7 0-3.1-1.4-3.1-3.1v-6.2c0-1.7 1.4-3.1 3.1-3.1z" class="st6"/>
  </g>
</svg>
