<svg xmlns="http://www.w3.org/2000/svg" xml:space="preserve" shape-rendering="crispEdges" viewBox="0 0 400 400" width="400" height="400">
  <path fill="#fff" d="M0 0h400v400H0V0z"/>
  <path stroke="#000" stroke-width="13.7931" d="M0 6.9h96.6m13.7 0h27.6m41.4 0h41.4m13.8 0h41.4m27.5 0H400M0 20.7h13.8m69 0h13.8m13.7 0h13.8m13.8 0h55.2m27.6 0h13.8m13.8 0h13.8m41.3 0h13.8m69 0H400M0 34.5h13.8m13.8 0H69m13.8 0h13.8m41.3 0h41.4m41.4 0h13.8m13.8 0h41.4m13.7 0h13.8m13.8 0h41.4m13.8 0H400M0 48.3h13.8m13.8 0H69m13.8 0h13.8m13.7 0h27.6m27.6 0h13.8m13.8 0h27.6m13.8 0h13.8m13.8 0h13.8m27.5 0h13.8m13.8 0h41.4m13.8 0H400M0 62.1h13.8m13.8 0H69m13.8 0h13.8m27.5 0h27.6m13.8 0h13.8m13.8 0h13.8m13.8 0h13.8m27.6 0h13.8m27.5 0h13.8m13.8 0h41.4m13.8 0H400M0 75.9h13.8m69 0h13.8m41.3 0h55.2m13.8 0h82.8m13.7 0h13.8m69 0H400M0 89.7h96.6m13.7 0h13.8m13.8 0h13.8m13.8 0h13.8m13.8 0h13.8m13.8 0h13.8m13.8 0h13.8m13.8 0h13.8m13.7 0H400m-289.7 13.7h27.6m69 0h69M0 117.2h13.8m13.8 0h27.6m13.8 0h41.4m13.7 0h27.6m27.6 0h13.8m13.8 0h13.8m13.8 0h27.6m41.3 0h13.8m27.6 0h13.8m13.8 0H400M27.6 131h27.6m13.8 0h13.8m13.8 0h13.8m55.1 0h55.2m41.4 0h82.8m41.3 0H400M13.8 144.8h96.6m55.1 0h27.6m27.6 0h41.4m55.1 0h27.6m13.8 0h27.6M27.6 158.6h13.8m27.6 0h13.8m27.5 0h13.8m13.8 0h41.4m41.4 0h13.8m13.8 0h13.8m27.6 0h55.2m41.3 0H400M0 172.4h41.4m27.6 0h41.4m82.7 0h27.6m13.8 0h13.8m96.5 0h27.6M0 186.2h27.6m69 0h27.6m27.5 0h27.6m13.8 0h13.8m13.8 0h27.6m13.8 0h13.8m27.5 0H331m27.6 0H400M0 200h27.6m55.2 0h41.4m41.3 0h27.6m13.8 0h27.6m13.8 0h27.6m13.8 0h27.6m41.3 0H400M0 213.8h13.8m55.2 0h13.8m68.9 0h13.8m27.6 0h13.8m13.8 0h13.8m13.8 0h55.2m27.5 0h13.8m27.6 0h13.8M0 227.6h27.6m41.4 0h27.6m41.3 0h13.8m13.8 0h13.8m13.8 0h41.4m13.8 0h55.2m27.5 0h27.6m13.8 0h13.8M27.6 241.4h13.8m27.6 0h13.8m13.8 0H138m55.1 0h13.8m13.8 0h27.6m68.9 0H331m13.8 0h41.4M0 255.2h13.8m13.8 0h13.8m13.8 0H69m13.8 0h13.8m55.1 0h13.8m13.8 0h69m41.4 0h27.6m13.7 0h13.8m13.8 0h13.8M41.4 269h41.4m13.8 0H138m13.7 0h55.2m27.6 0h27.6m41.3 0H331m27.6 0h13.8M13.8 282.8h13.8m13.8 0h55.2m13.7 0h27.6m13.8 0h13.8m13.8 0h27.6m13.8 0h27.6m13.8 0h110.3m-262.1 13.8h13.8m27.6 0h27.6m27.6 0h27.6m27.6 0h27.6m41.3 0h69M0 310.3h96.6m13.7 0h13.8m41.4 0h13.8m13.8 0h27.6m13.8 0h13.8m13.8 0h27.6m13.7 0h13.8m13.8 0h27.6m13.8 0h13.8M0 324.1h13.8m69 0h13.8m13.7 0h13.8m13.8 0h27.6m13.8 0h41.4m55.2 0h13.8m41.3 0h27.6M0 337.9h13.8m13.8 0H69m13.8 0h13.8m27.5 0h13.8m13.8 0h27.6m55.2 0h13.8m27.6 0h69m13.7 0h13.8m13.8 0H400M0 351.7h13.8m13.8 0H69m13.8 0h13.8m13.7 0h13.8m13.8 0h27.6m13.8 0h13.8m69 0h13.8m13.8 0h13.8m27.5 0h27.6m13.8 0h13.8M0 365.5h13.8m13.8 0H69m13.8 0h13.8m13.7 0h13.8m13.8 0h13.8m41.4 0h13.8m13.8 0h55.2m13.8 0h13.8m13.7 0H331m27.6 0h13.8m13.8 0H400M0 379.3h13.8m69 0h13.8m55.1 0h13.8m55.2 0h13.8m27.6 0h27.6m27.5 0h41.4m13.8 0h13.8M0 393.1h96.6m13.7 0h13.8m13.8 0h13.8m13.8 0h41.4m41.4 0h55.2m13.7 0H331m41.4 0h13.8"/>
</svg>
