<svg xmlns="http://www.w3.org/2000/svg" width="350" height="350" viewBox="0 0 350 350" xml:space="preserve">
  <style>
    .st0{fill:#9059ff}.st1{fill:#d9bfff}.st2{fill:#cb9eff}.st3{fill:#ab71ff}
  </style>
  <path d="M201.2 19.9v239.4c0 5-4 9-9 9H9c-5 0-9-4-9-9V19.9c0-5 4-9 9-9h183.2c5 0 9 4.1 9 9z" class="st0"/>
  <path d="M16.9 29.5h72.2c1.2 0 2.3 1 2.3 2.3v6.8c0 1.2-1 2.3-2.3 2.3H16.9c-1.2 0-2.3-1-2.3-2.3v-6.8c0-1.3 1-2.3 2.3-2.3z" class="st1"/>
  <path d="M17.9 51.2h159.4c1.8 0 3.3 1.5 3.3 3.3v4.7c0 1.8-1.5 3.3-3.3 3.3H17.9c-1.8 0-3.3-1.5-3.3-3.3v-4.7c0-1.8 1.5-3.3 3.3-3.3z" class="st1"/>
  <path d="M17.9 72.8h159.4c1.8 0 3.3 1.5 3.3 3.3v4.7c0 1.8-1.5 3.3-3.3 3.3H17.9c-1.8 0-3.3-1.5-3.3-3.3v-4.7c0-1.8 1.5-3.3 3.3-3.3z" class="st1"/>
  <path d="M17.9 95.5h159.4c1.8 0 3.3 1.5 3.3 3.3v4.7c0 1.8-1.5 3.3-3.3 3.3H17.9c-1.8 0-3.3-1.5-3.3-3.3v-4.7c0-1.8 1.5-3.3 3.3-3.3z" class="st1"/>
  <path d="M16.6 118.1h56.2c1.1 0 2 .9 2 2v7.3c0 1.1-.9 2-2 2H16.6c-1.1 0-2-.9-2-2v-7.3c0-1.1.9-2 2-2z" class="st1"/>
  <path d="M17.9 159.6h159.4c1.8 0 3.3 1.5 3.3 3.3v4.7c0 1.8-1.5 3.3-3.3 3.3H17.9c-1.8 0-3.3-1.5-3.3-3.3v-4.7c0-1.9 1.5-3.3 3.3-3.3z" class="st1"/>
  <path d="M17.9 181.2h159.4c1.8 0 3.3 1.5 3.3 3.3v4.7c0 1.8-1.5 3.3-3.3 3.3H17.9c-1.8 0-3.3-1.5-3.3-3.3v-4.7c0-1.8 1.5-3.3 3.3-3.3z" class="st1"/>
  <path d="M17.9 203.9h159.4c1.8 0 3.3 1.5 3.3 3.3v4.7c0 1.8-1.5 3.3-3.3 3.3H17.9c-1.8 0-3.3-1.5-3.3-3.3v-4.7c0-1.8 1.5-3.3 3.3-3.3z" class="st1"/>
  <path d="M17.2 226.5h92.1c1.4 0 2.5 1.1 2.5 2.5v6.2c0 1.4-1.1 2.5-2.5 2.5H17.2c-1.4 0-2.5-1.1-2.5-2.5V229c-.1-1.3 1.1-2.5 2.5-2.5z" class="st1"/>
  <g>
    <path d="M236.2 55v239.4c0 5-4 9-9 9H44c-5 0-9-4-9-9V55c0-5 4-9 9-9h183.2c5-.1 9 4 9 9z" class="st2"/>
    <path d="M135.6 136.4V67.2c0-2.2 1.8-3.9 3.9-3.9h77.8c2.2 0 3.9 1.8 3.9 3.9v69.2c0 2.2-1.8 3.9-3.9 3.9h-77.8c-2.1.1-3.9-1.7-3.9-3.9z" class="st3"/>
    <path d="M217.5 286.2H53.8c-2.1 0-3.8-1.7-3.8-3.8V226c0-2.1 1.7-3.8 3.8-3.8h163.7c2.1 0 3.8 1.7 3.8 3.8v56.3c0 2.2-1.7 3.9-3.8 3.9z" class="st3"/>
    <path d="M52.2 63h72.2c1.2 0 2.3 1 2.3 2.3v6.8c0 1.2-1 2.3-2.3 2.3H52.2c-1.2 0-2.3-1-2.3-2.3v-6.8c0-1.3 1.1-2.3 2.3-2.3z" class="st0"/>
    <path d="M53 152.8h130c1.7 0 3 1.3 3 3v5.3c0 1.7-1.3 3-3 3H53c-1.7 0-3-1.3-3-3v-5.3c-.1-1.7 1.3-3 3-3z" class="st0"/>
    <path d="M52.7 175.3H163c1.5 0 2.8 1.2 2.8 2.8v5.8c0 1.5-1.2 2.8-2.8 2.8H52.7c-1.5 0-2.8-1.2-2.8-2.8v-5.8c0-1.6 1.3-2.8 2.8-2.8z" class="st0"/>
    <path d="M52.3 197.7h75.5c1.3 0 2.3 1 2.3 2.3v6.7c0 1.3-1 2.3-2.3 2.3H52.3c-1.3 0-2.3-1-2.3-2.3V200c-.1-1.2 1-2.3 2.3-2.3z" class="st0"/>
    <path d="M51.9 85.4h50.8c1.1 0 1.9.9 1.9 1.9v7.5c0 1.1-.9 1.9-1.9 1.9H51.9c-1.1 0-1.9-.9-1.9-1.9v-7.5c-.1-1.1.8-1.9 1.9-1.9z" class="st0"/>
    <path d="M52 107.8h61.8c1.2 0 2.1.9 2.1 2.1v7.1c0 1.2-.9 2.1-2.1 2.1H52c-1.2 0-2.1-.9-2.1-2.1v-7.1c0-1.1 1-2.1 2.1-2.1z" class="st0"/>
    <path d="M52.2 130.3H122c1.2 0 2.2 1 2.2 2.2v6.9c0 1.2-1 2.2-2.2 2.2H52.2c-1.2 0-2.2-1-2.2-2.2v-6.9c-.1-1.2.9-2.2 2.2-2.2z" class="st0"/>
  </g>
  <g>
    <path d="M271.3 90.7v239.4c0 5-4 9-9 9H79c-5 0-9-4-9-9V90.7c0-5 4-9 9-9h183.2c5-.1 9.1 4 9.1 9z" class="st1"/>
    <path d="M88.1 212.8h141.8c1.7 0 3.1 1.4 3.1 3.1v5c0 1.7-1.4 3.1-3.1 3.1H88.1c-1.7 0-3.1-1.4-3.1-3.1v-5c-.1-1.7 1.4-3.1 3.1-3.1z" class="st3"/>
    <path d="M88 281.3h136.1c1.7 0 3.1 1.4 3.1 3.1v5.2c0 1.7-1.4 3.1-3.1 3.1H88c-1.7 0-3.1-1.4-3.1-3.1v-5.2c0-1.8 1.4-3.1 3.1-3.1z" class="st3"/>
    <path d="M87.9 235.3h121.9c1.6 0 2.9 1.3 2.9 2.9v5.5c0 1.6-1.3 2.9-2.9 2.9H87.9c-1.6 0-2.9-1.3-2.9-2.9v-5.5c-.1-1.6 1.2-2.9 2.9-2.9z" class="st3"/>
    <path d="M87.7 304.1H198c1.5 0 2.8 1.2 2.8 2.8v5.8c0 1.5-1.2 2.8-2.8 2.8H87.7c-1.5 0-2.8-1.2-2.8-2.8v-5.8c0-1.6 1.3-2.8 2.8-2.8z" class="st3"/>
    <path d="M87.3 257.7h75.5c1.3 0 2.3 1 2.3 2.3v6.7c0 1.3-1 2.3-2.3 2.3H87.3c-1.3 0-2.3-1-2.3-2.3V260c-.1-1.2 1-2.3 2.3-2.3z" class="st3"/>
    <path d="M90.6 96.2h160.1c4.1 0 7.4 3.3 7.4 7.4v83.6c0 4.1-3.3 7.4-7.4 7.4H90.6c-4.1 0-7.4-3.3-7.4-7.4v-83.6c-.1-4.1 3.3-7.4 7.4-7.4z" class="st2"/>
    <path d="M158.8 163.7l27.9-14c2.4-1.2 3.4-4.1 2.2-6.6-.5-.9-1.2-1.7-2.2-2.2l-27.9-14c-2.4-1.2-5.4-.2-6.6 2.2-.3.7-.5 1.4-.5 2.2v27.9c0 2.7 2.1 4.9 4.8 5 .9.1 1.6-.1 2.3-.5z" class="st3"/>
  </g>
  <g>
    <circle cx="272.1" cy="210.3" r="77.9" class="st0"/>
    <circle cx="272.1" cy="210.3" r="66.5" fill="#592acb"/>
    <circle cx="272.1" cy="190.8" r="29.8" class="st1"/>
    <path d="M301.7 220.6c-8 0-20.4 8.8-29.5 8.9s-21.6-8.9-29.5-8.9c-4.2 0-12.5 2.6-12.5 11.4 0 10 18.6 27.6 42.1 27.6s42.1-17.6 42.1-27.6c-.2-8.9-8.5-11.4-12.7-11.4z" class="st1"/>
  </g>
</svg>
