<svg xmlns="http://www.w3.org/2000/svg" viewBox="0 0 744.66669 149.49333" height="149.493" width="744.667"><g><g fill="#fff"><path d="M590.75 21.987c-12.384 0-23.453 6.015-28.473 15.51-4.653 8.715-6.78 20.153-6.78 36.606 0 19.986 3.275 37.414 8.524 46.318 5.043 8.527 17.43 14.346 28.29 14.346 10.852 0 18.794-3.88 24.81-11.427 6.59-8.344 9.676-18.988 9.676-40.894 0-19.577-1.935-32.934-6.402-42.248-4.63-9.88-14.342-18.21-29.644-18.21zm0-12.78c23.054 0 35.47 12.206 41.866 21.7 8.33 12.387 12.003 27.894 12.003 49.21 0 25.59-5.797 41.673-19.376 54.07-9.89 8.908-19.96 12.787-33.728 12.787-16.274 0-28.85-6.593-37.78-16.866-10.456-12.012-15.87-30.03-15.87-52.706 0-42.223 20.142-68.195 52.884-68.195"/><path d="M739.134 21.413l-6.985 11.44c-12.797-8.342-20.935-11.248-32.348-11.248-16.67 0-26.56 8.33-26.56 21.894 0 10.655 6.393 16.668 22.094 21.7l15.303 4.836c11.808 3.684 18.016 7.178 23.44 13.385 5.437 6.19 8.726 15.096 8.726 23.44 0 12.41-6.59 24.41-18.4 31.972-8.724 5.617-17.656 8.142-29.848 8.142-15.892 0-29.454-3.88-42.636-12.02l6.975-12.41c11.055 7.96 22.288 11.454 35.66 11.454 10.068 0 15.505-1.563 21.125-5.823 6.398-4.836 9.493-11.232 9.493-18.988 0-11.823-7.753-19.957-23.837-24.795l-13.372-4.07c-12.025-3.684-18.397-6.397-23.634-11.836-5.435-5.808-8.343-13.166-8.343-21.687 0-22.674 17.25-38.18 43.022-38.18 14.328 0 27.518 4.258 40.122 12.793"/><path d="M70.188 27.683H22.954V65.16H61.41v18.553H22.953v63.193H0V8.94h72.984l-2.796 18.743"/><path d="M82.15 16.5c0-8.163 6.38-14.74 14.555-14.74 7.773 0 14.342 6.385 14.342 14.74 0 7.983-6.57 14.56-14.75 14.56-7.966 0-14.148-6.577-14.148-14.56"/><path d="M85.33 146.906v-99.29l22.137-3.99v103.28H85.33"/><path d="M175.65 65.16c-2.186-.795-3.8-1.394-6.155-1.394-9.2 0-16.967 6.78-18.96 14.945v68.196H128.61v-71.19c0-12.744-1.393-20.933-3.583-27.112l20.137-5.17c2.382 4.568 3.784 10.378 3.784 15.954 7.96-10.978 15.955-16.146 25.718-16.146 3.172 0 5.17.383 7.78 1.573L175.65 65.16"/><path d="M222.723 60.182c-12.372 0-19.14 9.75-19.14 26.102h37.285c0-16.35-7.178-26.102-18.145-26.102zm-19.333 42.262v1.576c0 13.973 5.182 28.712 24.938 28.712 9.354 0 17.517-3.38 25.092-9.954l8.57 13.344c-10.567 8.967-22.723 13.37-36.285 13.37-28.494 0-46.446-20.545-46.446-52.82 0-17.77 3.8-29.53 12.565-39.485 8.175-9.377 18.143-13.562 30.898-13.562 9.982 0 19.143 2.598 27.716 10.365 8.762 7.983 13.165 20.344 13.165 43.86v4.594H203.39"/><path d="M325.994 20.108c-4.964-2.38-7.972-3.608-12.157-3.608-7.574 0-12.345 5.195-12.345 14.164v15.353h26.305L322.22 61.18h-20.537v85.726h-21.726V61.18h-9.354V46.016h9.762s-.625-5.565-.625-14.956c0-20.904 12.783-30.68 30.71-30.68 8.58 0 15.76 1.79 22.735 5.783l-7.19 13.945"/><path d="M349.024 95.265c0 29.3 7.395 37.874 20.538 37.874 12.96 0 20.14-10.555 20.14-35.892 0-28.506-7.975-37.066-20.73-37.066-13.947 0-19.948 10.544-19.948 35.083zm64.808 1.588c0 32.5-17.378 52.64-44.668 52.64-27.305 0-44.462-20.546-44.462-52.82 0-32.308 17.35-53.048 44.08-53.048 28.712 0 45.05 21.344 45.05 53.228"/><path d="M479.637 146.906c-3.582-5.808-19.95-34.11-21.92-37.694-3.785 7.576-18.168 32.092-21.944 37.694h-27.696l37.462-54.633-29.085-43.26 23.698-4.785c4.592 7.574 13.575 23.324 18.36 32.69 2.788-6.576 12.945-26.715 15.955-30.9h25.502l-29.7 45.872 36.88 55.016h-27.513"/></g></g></svg>