<svg xmlns="http://www.w3.org/2000/svg" width="326" height="192" fill="none" viewBox="0 0 326 192"><g clip-path="url(#a)"><mask id="b" width="326" height="192" x="0" y="0" maskUnits="userSpaceOnUse" style="mask-type:luminance"><path fill="#fff" d="M0 0h326v192H0V0Z"/></mask><g mask="url(#b)"><path stroke="#333336" stroke-width="2.5" d="M172.572 32.7c.904.991.082 2.571-1.249 2.402l-34.258-4.362c-9.767-1.244-15.312-11.832-10.771-20.568 4.54-8.737 16.392-10.283 23.022-3.004L172.572 32.7Z"/><path fill="#80EBFF" stroke="#333336" stroke-width="2.5" d="M214 100.75a7.254 7.254 0 0 0-5.127 2.123A7.254 7.254 0 0 0 206.75 108v73c0 1.923.764 3.767 2.123 5.127A7.254 7.254 0 0 0 214 188.25h96a7.254 7.254 0 0 0 5.127-2.123A7.254 7.254 0 0 0 317.25 181v-73a7.254 7.254 0 0 0-2.123-5.127A7.254 7.254 0 0 0 310 100.75h-96Z"/><path stroke="#333336" stroke-width="2.5" d="M166.035 32.7c-.903.991-.082 2.571 1.249 2.402l34.259-4.362c9.767-1.244 15.311-11.832 10.771-20.568-4.541-8.737-16.393-10.283-23.023-3.004L166.035 32.7Zm104.534 50.983c.5.548.046 1.423-.691 1.33l-26.061-3.32c-7.223-.919-11.323-8.75-7.965-15.21 3.358-6.461 12.123-7.605 17.026-2.222l17.691 19.422Z"/><path stroke="#333336" stroke-width="2.5" d="M266.039 83.683c-.5.548-.046 1.423.691 1.33l26.06-3.32c7.223-.919 11.324-8.75 7.966-15.21-3.358-6.461-12.123-7.605-17.027-2.222l-17.69 19.422Z"/><path fill="#0DF" d="M316 108h-88v20h88v-20Z"/><path fill="#ABF2FF" stroke="#333336" stroke-width="2.5" d="M194 109.25h-1.25V90a7.252 7.252 0 0 1 7.25-7.25h115a7.251 7.251 0 0 1 7.25 7.25v19.25H194Z"/><path fill="#FFB4DC" stroke="#333336" stroke-width="2.5" d="M112 55.75h-1.25V181c0 1.923.764 3.767 2.123 5.127A7.254 7.254 0 0 0 118 188.25h102a7.254 7.254 0 0 0 5.127-2.123A7.254 7.254 0 0 0 227.25 181V55.75H112Z"/><path fill="#FF8AC6" d="M226 56h-45v20h45V56Zm-114 0h69v20h-69V56Z"/><path fill="#FFEA80" stroke="#333336" stroke-width="2.5" d="M155.75 54.75h26.5v133.5h-26.5V54.75Z"/><path fill="#FFD567" d="M157 56h24v20h-24V56Z"/><path fill="#FFB4DC" stroke="#333336" stroke-width="2.5" d="M106 57.25h-1.25V38a7.252 7.252 0 0 1 7.25-7.25h115a7.251 7.251 0 0 1 7.25 7.25v19.25H106Z"/><path fill="#FFEA80" stroke="#333336" stroke-width="2.5" d="M155.75 57.25h26.5v-26.5h-26.5v26.5Z"/><path fill="#fff" stroke="#333336" stroke-width="2.5" d="M11 47.75A7.25 7.25 0 0 0 3.75 55v126a7.251 7.251 0 0 0 7.25 7.25h112a7.254 7.254 0 0 0 5.127-2.123A7.254 7.254 0 0 0 130.25 181V55a7.252 7.252 0 0 0-7.25-7.25H11Z"/><path fill="#333336" d="M43.736 167.518c-.065-.726-.592-1.158-1.551-1.158-.955 0-1.432.403-1.437.959-.02.607.567.915 1.492 1.114l.875.199c2.008.442 3.107 1.437 3.117 3.062-.01 1.934-1.512 3.083-4.047 3.083-2.56 0-4.216-1.139-4.246-3.52h2.357c.054.979.77 1.486 1.86 1.486.988 0 1.57-.432 1.58-1.054-.01-.571-.512-.875-1.63-1.133l-1.065-.249c-1.76-.402-2.843-1.272-2.838-2.819-.015-1.894 1.66-3.162 3.987-3.162 2.366 0 3.883 1.288 3.903 3.192h-2.357Zm7.303 7.274c-2.416 0-3.858-1.606-3.858-3.938 0-2.341 1.452-3.942 3.853-3.942 2.123 0 3.495 1.223 3.55 3.102h-2.272c-.094-.781-.547-1.253-1.243-1.253-.85 0-1.412.721-1.412 2.068 0 1.358.557 2.078 1.412 2.078.666 0 1.154-.442 1.243-1.252h2.272c-.065 1.889-1.397 3.137-3.545 3.137Zm6.942-.015c-1.462 0-2.51-.736-2.51-2.247 0-1.691 1.292-2.263 2.838-2.392 1.303-.114 1.81-.214 1.81-.681v-.025c0-.512-.378-.8-.975-.8-.641 0-1.044.298-1.148.785l-2.242-.079c.194-1.392 1.357-2.426 3.41-2.426 1.944 0 3.38.929 3.38 2.545v5.19h-2.286v-1.063h-.06c-.417.78-1.153 1.193-2.217 1.193Zm.75-1.591c.776 0 1.403-.507 1.403-1.253v-.726c-.274.144-.83.244-1.283.308-.691.105-1.079.403-1.079.895 0 .507.397.776.959.776Zm7.731-2.894v4.355h-2.43v-7.636h2.311v1.402h.085c.338-.93 1.193-1.501 2.321-1.501 1.606 0 2.655 1.148 2.65 2.868v4.867h-2.43v-4.389c.004-.846-.453-1.353-1.224-1.353-.77 0-1.278.517-1.283 1.387Zm9.45 4.355v-7.636h2.312v1.402h.084c.319-.93 1.114-1.501 2.158-1.501 1.06 0 1.88.586 2.083 1.501h.08c.283-.91 1.173-1.501 2.302-1.501 1.441 0 2.436.979 2.436 2.595v5.14h-2.431v-4.583c0-.761-.438-1.174-1.054-1.174-.672 0-1.074.468-1.074 1.199v4.558H80.47v-4.608c0-.706-.418-1.149-1.049-1.149-.636 0-1.079.483-1.079 1.238v4.519h-2.43Zm16.53.145c-2.4 0-3.862-1.487-3.862-3.933 0-2.366 1.481-3.947 3.788-3.947 2.168 0 3.699 1.382 3.699 3.897v.607h-5.09v.065c0 .934.576 1.556 1.51 1.556.637 0 1.134-.274 1.323-.781l2.232.065c-.278 1.501-1.596 2.471-3.6 2.471Zm-1.466-4.788h2.829c-.01-.781-.587-1.337-1.387-1.337-.806 0-1.407.576-1.442 1.337Z"/></g><path fill="#000" d="M19 60h2.317v2.317H19V60Zm2.317 0h2.317v2.317h-2.317V60Zm2.317 0h2.317v2.317h-2.317V60Zm2.317 0h2.317v2.317h-2.317V60Zm2.317 0h2.317v2.317h-2.317V60Zm2.317 0h2.317v2.317h-2.317V60Zm2.317 0h2.317v2.317h-2.317V60Zm13.903 0h2.317v2.317h-2.317V60Zm2.317 0h2.317v2.317h-2.317V60Zm4.634 0h2.317v2.317h-2.317V60Zm4.634 0h2.317v2.317H58.39V60Zm4.634 0h2.317v2.317h-2.317V60Zm6.952 0h2.317v2.317h-2.317V60Zm2.317 0h2.317v2.317h-2.317V60Zm6.95 0h2.318v2.317h-2.317V60Zm4.635 0h2.317v2.317h-2.317V60Zm4.634 0h2.317v2.317h-2.317V60Zm2.317 0h2.317v2.317H90.83V60Zm2.317 0h2.317v2.317h-2.317V60Zm4.635 0h2.317v2.317h-2.317V60Zm2.317 0h2.317v2.317h-2.317V60Zm2.317 0h2.317v2.317h-2.317V60Zm2.317 0h2.317v2.317h-2.317V60Zm2.317 0h2.317v2.317h-2.317V60Zm2.317 0h2.317v2.317h-2.317V60Zm2.317 0H114v2.317h-2.317V60ZM19 62.317h2.317v2.317H19v-2.317Zm13.902 0h2.317v2.317h-2.317v-2.317Zm6.952 0h2.317v2.317h-2.317v-2.317Zm2.317 0h2.317v2.317H42.17v-2.317Zm9.268 0h2.317v2.317H51.44v-2.317Zm2.317 0h2.317v2.317h-2.317v-2.317Zm4.634 0h2.317v2.317H58.39v-2.317Zm9.269 0h2.317v2.317h-2.317v-2.317Zm2.317 0h2.317v2.317h-2.317v-2.317Zm6.95 0h2.318v2.317h-2.317v-2.317Zm2.318 0h2.317v2.317h-2.317v-2.317Zm2.317 0h2.317v2.317h-2.317v-2.317Zm2.317 0h2.317v2.317h-2.317v-2.317Zm4.634 0h2.317v2.317h-2.317v-2.317Zm9.269 0h2.317v2.317h-2.317v-2.317Zm13.902 0H114v2.317h-2.317v-2.317ZM19 64.634h2.317v2.317H19v-2.317Zm4.634 0h2.317v2.317h-2.317v-2.317Zm2.317 0h2.317v2.317h-2.317v-2.317Zm2.317 0h2.317v2.317h-2.317v-2.317Zm4.634 0h2.317v2.317h-2.317v-2.317Zm4.635 0h2.317v2.317h-2.317v-2.317Zm4.634 0h2.317v2.317H42.17v-2.317Zm2.317 0h2.317v2.317h-2.317v-2.317Zm4.634 0h2.317v2.317h-2.317v-2.317Zm4.634 0h2.317v2.317h-2.317v-2.317Zm2.317 0h2.317v2.317h-2.317v-2.317Zm2.317 0h2.317v2.317H58.39v-2.317Zm2.317 0h2.317v2.317h-2.317v-2.317Zm2.317 0h2.317v2.317h-2.317v-2.317Zm2.317 0h2.318v2.317H65.34v-2.317Zm2.318 0h2.317v2.317h-2.317v-2.317Zm2.317 0h2.317v2.317h-2.317v-2.317Zm9.268 0h2.317v2.317h-2.317v-2.317Zm4.634 0h2.317v2.317h-2.317v-2.317Zm6.951 0h2.317v2.317H90.83v-2.317Zm2.317 0h2.317v2.317h-2.317v-2.317Zm4.635 0h2.317v2.317h-2.317v-2.317Zm4.634 0h2.317v2.317h-2.317v-2.317Zm2.317 0h2.317v2.317h-2.317v-2.317Zm2.317 0h2.317v2.317h-2.317v-2.317Zm4.634 0H114v2.317h-2.317v-2.317ZM19 66.951h2.317v2.317H19v-2.317Zm4.634 0h2.317v2.317h-2.317v-2.317Zm2.317 0h2.317v2.317h-2.317v-2.317Zm2.317 0h2.317v2.317h-2.317v-2.317Zm4.634 0h2.317v2.317h-2.317v-2.317Zm4.635 0h2.317v2.317h-2.317v-2.317Zm2.317 0h2.317v2.317h-2.317v-2.317Zm2.317 0h2.317v2.317H42.17v-2.317Zm2.317 0h2.317v2.317h-2.317v-2.317Zm6.951 0h2.317v2.317H51.44v-2.317Zm2.317 0h2.317v2.317h-2.317v-2.317Zm2.317 0h2.317v2.317h-2.317v-2.317Zm6.951 0h2.317v2.317h-2.317v-2.317Zm2.317 0h2.318v2.317H65.34v-2.317Zm4.635 0h2.317v2.317h-2.317v-2.317Zm2.317 0h2.317v2.317h-2.317v-2.317Zm2.317 0h2.317v2.317H74.61v-2.317Zm2.317 0h2.317v2.317h-2.317v-2.317Zm9.268 0h2.317v2.317h-2.317v-2.317Zm6.951 0h2.317v2.317h-2.317v-2.317Zm4.635 0h2.317v2.317h-2.317v-2.317Zm4.634 0h2.317v2.317h-2.317v-2.317Zm2.317 0h2.317v2.317h-2.317v-2.317Zm2.317 0h2.317v2.317h-2.317v-2.317Zm4.634 0H114v2.317h-2.317v-2.317ZM19 69.268h2.317v2.317H19v-2.317Zm4.634 0h2.317v2.317h-2.317v-2.317Zm2.317 0h2.317v2.317h-2.317v-2.317Zm2.317 0h2.317v2.317h-2.317v-2.317Zm4.634 0h2.317v2.317h-2.317v-2.317Zm4.635 0h2.317v2.317h-2.317v-2.317Zm2.317 0h2.317v2.317h-2.317v-2.317Zm4.634 0h2.317v2.317h-2.317v-2.317Zm4.634 0h2.317v2.317h-2.317v-2.317Zm2.317 0h2.317v2.317H51.44v-2.317Zm4.634 0h2.317v2.317h-2.317v-2.317Zm2.317 0h2.317v2.317H58.39v-2.317Zm2.317 0h2.317v2.317h-2.317v-2.317Zm2.317 0h2.317v2.317h-2.317v-2.317Zm2.317 0h2.318v2.317H65.34v-2.317Zm2.318 0h2.317v2.317h-2.317v-2.317Zm2.317 0h2.317v2.317h-2.317v-2.317Zm2.317 0h2.317v2.317h-2.317v-2.317Zm4.634 0h2.317v2.317h-2.317v-2.317Zm13.902 0h2.317v2.317H90.83v-2.317Zm2.317 0h2.317v2.317h-2.317v-2.317Zm4.635 0h2.317v2.317h-2.317v-2.317Zm4.634 0h2.317v2.317h-2.317v-2.317Zm2.317 0h2.317v2.317h-2.317v-2.317Zm2.317 0h2.317v2.317h-2.317v-2.317Zm4.634 0H114v2.317h-2.317v-2.317ZM19 71.585h2.317v2.317H19v-2.317Zm13.902 0h2.317v2.317h-2.317v-2.317Zm4.635 0h2.317v2.317h-2.317v-2.317Zm2.317 0h2.317v2.317h-2.317v-2.317Zm2.317 0h2.317v2.317H42.17v-2.317Zm4.634 0h2.317v2.317h-2.317v-2.317Zm4.634 0h2.317v2.317H51.44v-2.317Zm6.951 0h2.317v2.317H58.39v-2.317Zm9.269 0h2.317v2.317h-2.317v-2.317Zm9.268 0h2.317v2.317h-2.317v-2.317Zm2.317 0h2.317v2.317h-2.317v-2.317Zm2.317 0h2.317v2.317h-2.317v-2.317Zm2.317 0h2.317v2.317h-2.317v-2.317Zm2.317 0h2.317v2.317h-2.317v-2.317Zm6.951 0h2.317v2.317h-2.317v-2.317Zm4.635 0h2.317v2.317h-2.317v-2.317Zm13.902 0H114v2.317h-2.317v-2.317ZM19 73.902h2.317v2.317H19v-2.317Zm2.317 0h2.317v2.317h-2.317v-2.317Zm2.317 0h2.317v2.317h-2.317v-2.317Zm2.317 0h2.317v2.317h-2.317v-2.317Zm2.317 0h2.317v2.317h-2.317v-2.317Zm2.317 0h2.317v2.317h-2.317v-2.317Zm2.317 0h2.317v2.317h-2.317v-2.317Zm4.635 0h2.317v2.317h-2.317v-2.317Zm4.634 0h2.317v2.317H42.17v-2.317Zm4.634 0h2.317v2.317h-2.317v-2.317Zm4.634 0h2.317v2.317H51.44v-2.317Zm4.634 0h2.317v2.317h-2.317v-2.317Zm4.634 0h2.317v2.317h-2.317v-2.317Zm4.634 0h2.318v2.317H65.34v-2.317Zm4.635 0h2.317v2.317h-2.317v-2.317Zm4.634 0h2.317v2.317H74.61v-2.317Zm4.634 0h2.317v2.317h-2.317v-2.317Zm4.634 0h2.317v2.317h-2.317v-2.317Zm4.634 0h2.317v2.317h-2.317v-2.317Zm4.634 0h2.317v2.317h-2.317v-2.317Zm4.635 0h2.317v2.317h-2.317v-2.317Zm2.317 0h2.317v2.317h-2.317v-2.317Zm2.317 0h2.317v2.317h-2.317v-2.317Zm2.317 0h2.317v2.317h-2.317v-2.317Zm2.317 0h2.317v2.317h-2.317v-2.317Zm2.317 0h2.317v2.317h-2.317v-2.317Zm2.317 0H114v2.317h-2.317v-2.317ZM37.537 76.22h2.317v2.318h-2.317v-2.318Zm4.634 0h2.317v2.318H42.17v-2.318Zm2.317 0h2.317v2.318h-2.317v-2.318Zm2.317 0h2.317v2.318h-2.317v-2.318Zm9.268 0h2.317v2.318h-2.317v-2.318Zm11.586 0h2.317v2.318h-2.317v-2.318Zm2.317 0h2.317v2.318h-2.317v-2.318Zm4.634 0h2.317v2.318H74.61v-2.318Zm4.634 0h2.317v2.318h-2.317v-2.318Zm11.585 0h2.317v2.318H90.83v-2.318Zm2.317 0h2.317v2.318h-2.317v-2.318ZM19 78.537h2.317v2.317H19v-2.317Zm4.634 0h2.317v2.317h-2.317v-2.317Zm2.317 0h2.317v2.317h-2.317v-2.317Zm2.317 0h2.317v2.317h-2.317v-2.317Zm2.317 0h2.317v2.317h-2.317v-2.317Zm2.317 0h2.317v2.317h-2.317v-2.317Zm6.952 0h2.317v2.317h-2.317v-2.317Zm9.268 0h2.317v2.317h-2.317v-2.317Zm2.317 0h2.317v2.317H51.44v-2.317Zm4.634 0h2.317v2.317h-2.317v-2.317Zm2.317 0h2.317v2.317H58.39v-2.317Zm13.903 0h2.317v2.317h-2.317v-2.317Zm2.317 0h2.317v2.317H74.61v-2.317Zm2.317 0h2.317v2.317h-2.317v-2.317Zm2.317 0h2.317v2.317h-2.317v-2.317Zm2.317 0h2.317v2.317h-2.317v-2.317Zm4.634 0h2.317v2.317h-2.317v-2.317Zm4.634 0h2.317v2.317H90.83v-2.317Zm2.317 0h2.317v2.317h-2.317v-2.317Zm4.635 0h2.317v2.317h-2.317v-2.317Zm2.317 0h2.317v2.317h-2.317v-2.317Zm2.317 0h2.317v2.317h-2.317v-2.317Zm2.317 0h2.317v2.317h-2.317v-2.317Zm2.317 0h2.317v2.317h-2.317v-2.317ZM19 80.854h2.317v2.317H19v-2.317Zm2.317 0h2.317v2.317h-2.317v-2.317Zm2.317 0h2.317v2.317h-2.317v-2.317Zm2.317 0h2.317v2.317h-2.317v-2.317Zm4.634 0h2.317v2.317h-2.317v-2.317Zm4.634 0h2.318v2.317h-2.318v-2.317Zm2.318 0h2.317v2.317h-2.317v-2.317Zm2.317 0h2.317v2.317h-2.317v-2.317Zm2.317 0h2.317v2.317H42.17v-2.317Zm2.317 0h2.317v2.317h-2.317v-2.317Zm9.268 0h2.317v2.317h-2.317v-2.317Zm6.951 0h2.317v2.317h-2.317v-2.317Zm2.317 0h2.317v2.317h-2.317v-2.317Zm9.269 0h2.317v2.317h-2.317v-2.317Zm4.634 0h2.317v2.317h-2.317v-2.317Zm2.317 0h2.317v2.317h-2.317v-2.317Zm4.634 0h2.317v2.317h-2.317v-2.317Zm6.951 0h2.317v2.317H90.83v-2.317Zm2.317 0h2.317v2.317h-2.317v-2.317Zm2.317 0h2.318v2.317h-2.318v-2.317Zm2.318 0h2.317v2.317h-2.317v-2.317Zm2.317 0h2.317v2.317h-2.317v-2.317Zm2.317 0h2.317v2.317h-2.317v-2.317Zm4.634 0h2.317v2.317h-2.317v-2.317Zm2.317 0h2.317v2.317h-2.317v-2.317Zm2.317 0H114v2.317h-2.317v-2.317ZM19 83.17h2.317v2.317H19V83.17Zm6.951 0h2.317v2.317h-2.317V83.17Zm2.317 0h2.317v2.317h-2.317V83.17Zm2.317 0h2.317v2.317h-2.317V83.17Zm2.317 0h2.317v2.317h-2.317V83.17Zm6.952 0h2.317v2.317h-2.317V83.17Zm6.95 0h2.318v2.317h-2.317V83.17Zm13.903 0h2.317v2.317h-2.317V83.17Zm4.634 0h2.318v2.317H65.34V83.17Zm2.318 0h2.317v2.317h-2.317V83.17Zm2.317 0h2.317v2.317h-2.317V83.17Zm4.634 0h2.317v2.317H74.61V83.17Zm2.317 0h2.317v2.317h-2.317V83.17Zm2.317 0h2.317v2.317h-2.317V83.17Zm2.317 0h2.317v2.317h-2.317V83.17Zm2.317 0h2.317v2.317h-2.317V83.17Zm2.317 0h2.317v2.317h-2.317V83.17Zm6.951 0h2.317v2.317h-2.317V83.17Zm2.317 0h2.318v2.317h-2.318V83.17Zm2.318 0h2.317v2.317h-2.317V83.17Zm2.317 0h2.317v2.317h-2.317V83.17Zm2.317 0h2.317v2.317h-2.317V83.17ZM19 85.488h2.317v2.317H19v-2.317Zm9.268 0h2.317v2.317h-2.317v-2.317Zm2.317 0h2.317v2.317h-2.317v-2.317Zm4.634 0h2.318v2.317h-2.318v-2.317Zm2.318 0h2.317v2.317h-2.317v-2.317Zm2.317 0h2.317v2.317h-2.317v-2.317Zm2.317 0h2.317v2.317H42.17v-2.317Zm2.317 0h2.317v2.317h-2.317v-2.317Zm2.317 0h2.317v2.317h-2.317v-2.317Zm2.317 0h2.317v2.317h-2.317v-2.317Zm2.317 0h2.317v2.317H51.44v-2.317Zm4.634 0h2.317v2.317h-2.317v-2.317Zm4.634 0h2.317v2.317h-2.317v-2.317Zm2.317 0h2.317v2.317h-2.317v-2.317Zm2.317 0h2.318v2.317H65.34v-2.317Zm2.318 0h2.317v2.317h-2.317v-2.317Zm11.585 0h2.317v2.317h-2.317v-2.317Zm2.317 0h2.317v2.317h-2.317v-2.317Zm2.317 0h2.317v2.317h-2.317v-2.317Zm6.951 0h2.317v2.317H90.83v-2.317Zm2.317 0h2.317v2.317h-2.317v-2.317Zm2.317 0h2.318v2.317h-2.318v-2.317Zm4.635 0h2.317v2.317h-2.317v-2.317Zm2.317 0h2.317v2.317h-2.317v-2.317Zm2.317 0h2.317v2.317h-2.317v-2.317Zm4.634 0h2.317v2.317h-2.317v-2.317Zm2.317 0H114v2.317h-2.317v-2.317Zm-88.049 2.317h2.317v2.317h-2.317v-2.317Zm4.634 0h2.317v2.317h-2.317v-2.317Zm4.634 0h2.317v2.317h-2.317v-2.317Zm2.317 0h2.318v2.317h-2.318v-2.317Zm4.635 0h2.317v2.317h-2.317v-2.317Zm4.634 0h2.317v2.317h-2.317v-2.317Zm4.634 0h2.317v2.317h-2.317v-2.317Zm2.317 0h2.317v2.317H51.44v-2.317Zm2.317 0h2.317v2.317h-2.317v-2.317Zm4.634 0h2.317v2.317H58.39v-2.317Zm2.317 0h2.317v2.317h-2.317v-2.317Zm4.634 0h2.318v2.317H65.34v-2.317Zm4.635 0h2.317v2.317h-2.317v-2.317Zm2.317 0h2.317v2.317h-2.317v-2.317Zm2.317 0h2.317v2.317H74.61v-2.317Zm2.317 0h2.317v2.317h-2.317v-2.317Zm2.317 0h2.317v2.317h-2.317v-2.317Zm4.634 0h2.317v2.317h-2.317v-2.317Zm2.317 0h2.317v2.317h-2.317v-2.317Zm4.634 0h2.317v2.317H90.83v-2.317Zm4.634 0h2.318v2.317h-2.318v-2.317Zm9.269 0h2.317v2.317h-2.317v-2.317Zm2.317 0h2.317v2.317h-2.317v-2.317Zm2.317 0h2.317v2.317h-2.317v-2.317Zm-85.732 2.317h2.317v2.317h-2.317v-2.317Zm2.317 0h2.317v2.317h-2.317v-2.317Zm2.317 0h2.317v2.317h-2.317v-2.317Zm2.317 0h2.317v2.317h-2.317v-2.317Zm4.634 0h2.318v2.317h-2.318v-2.317Zm2.318 0h2.317v2.317h-2.317v-2.317Zm6.95 0h2.318v2.317h-2.317v-2.317Zm6.952 0h2.317v2.317H51.44v-2.317Zm2.317 0h2.317v2.317h-2.317v-2.317Zm4.634 0h2.317v2.317H58.39v-2.317Zm2.317 0h2.317v2.317h-2.317v-2.317Zm6.952 0h2.317v2.317h-2.317v-2.317Zm4.634 0h2.317v2.317h-2.317v-2.317Zm2.317 0h2.317v2.317H74.61v-2.317Zm2.317 0h2.317v2.317h-2.317v-2.317Zm6.951 0h2.317v2.317h-2.317v-2.317Zm2.317 0h2.317v2.317h-2.317v-2.317Zm4.634 0h2.317v2.317H90.83v-2.317Zm2.317 0h2.317v2.317h-2.317v-2.317Zm2.317 0h2.318v2.317h-2.318v-2.317Zm2.318 0h2.317v2.317h-2.317v-2.317Zm4.634 0h2.317v2.317h-2.317v-2.317Zm2.317 0h2.317v2.317h-2.317v-2.317Zm6.951 0H114v2.317h-2.317v-2.317Zm-85.732 2.317h2.317v2.317h-2.317V92.44Zm2.317 0h2.317v2.317h-2.317V92.44Zm4.634 0h2.317v2.317h-2.317V92.44Zm4.635 0h2.317v2.317h-2.317V92.44Zm4.634 0h2.317v2.317H42.17V92.44Zm2.317 0h2.317v2.317h-2.317V92.44Zm2.317 0h2.317v2.317h-2.317V92.44Zm2.317 0h2.317v2.317h-2.317V92.44Zm2.317 0h2.317v2.317H51.44V92.44Zm4.634 0h2.317v2.317h-2.317V92.44Zm9.268 0h2.318v2.317H65.34V92.44Zm2.318 0h2.317v2.317h-2.317V92.44Zm13.902 0h2.317v2.317h-2.317V92.44Zm2.317 0h2.317v2.317h-2.317V92.44Zm4.634 0h2.317v2.317h-2.317V92.44Zm6.951 0h2.318v2.317h-2.318V92.44Zm6.952 0h2.317v2.317h-2.317V92.44Zm2.317 0h2.317v2.317h-2.317V92.44ZM19 94.756h2.317v2.317H19v-2.317Zm2.317 0h2.317v2.317h-2.317v-2.317Zm2.317 0h2.317v2.317h-2.317v-2.317Zm2.317 0h2.317v2.317h-2.317v-2.317Zm4.634 0h2.317v2.317h-2.317v-2.317Zm13.903 0h2.317v2.317h-2.317v-2.317Zm2.317 0h2.317v2.317h-2.317v-2.317Zm2.317 0h2.317v2.317h-2.317v-2.317Zm2.317 0h2.317v2.317H51.44v-2.317Zm16.22 0h2.317v2.317h-2.317v-2.317Zm6.95 0h2.318v2.317H74.61v-2.317Zm6.952 0h2.317v2.317h-2.317v-2.317Zm2.317 0h2.317v2.317h-2.317v-2.317Zm13.903 0h2.317v2.317h-2.317v-2.317Zm6.951 0h2.317v2.317h-2.317v-2.317Zm4.634 0h2.317v2.317h-2.317v-2.317Zm-83.415 2.317h2.317v2.317h-2.317v-2.317Zm6.951 0h2.317v2.317h-2.317v-2.317Zm6.952 0h2.317v2.317h-2.317v-2.317Zm6.95 0h2.318v2.317h-2.317v-2.317Zm2.318 0h2.317v2.317h-2.317v-2.317Zm2.317 0h2.317v2.317H51.44v-2.317Zm6.951 0h2.317v2.317H58.39v-2.317Zm11.586 0h2.317v2.317h-2.317v-2.317Zm4.634 0h2.317v2.317H74.61v-2.317Zm2.317 0h2.317v2.317h-2.317v-2.317Zm4.634 0h2.317v2.317h-2.317v-2.317Zm4.634 0h2.317v2.317h-2.317v-2.317Zm4.634 0h2.317v2.317H90.83v-2.317Zm4.634 0h2.318v2.317h-2.318v-2.317Zm4.635 0h2.317v2.317h-2.317v-2.317Zm6.951 0h2.317v2.317h-2.317v-2.317Zm2.317 0h2.317v2.317h-2.317v-2.317ZM19 99.39h2.317v2.317H19V99.39Zm4.634 0h2.317v2.317h-2.317V99.39Zm2.317 0h2.317v2.317h-2.317V99.39Zm4.634 0h2.317v2.317h-2.317V99.39Zm16.22 0h2.317v2.317h-2.317V99.39Zm6.951 0h2.317v2.317h-2.317V99.39Zm2.317 0h2.317v2.317h-2.317V99.39Zm4.634 0h2.317v2.317h-2.317V99.39Zm2.317 0h2.317v2.317h-2.317V99.39Zm2.317 0h2.318v2.317H65.34V99.39Zm2.318 0h2.317v2.317h-2.317V99.39Zm4.634 0h2.317v2.317h-2.317V99.39Zm4.634 0h2.317v2.317h-2.317V99.39Zm6.951 0h2.317v2.317h-2.317V99.39Zm6.951 0h2.317v2.317H90.83V99.39Zm2.317 0h2.317v2.317h-2.317V99.39Zm4.635 0h2.317v2.317h-2.317V99.39Zm2.317 0h2.317v2.317h-2.317V99.39Zm2.317 0h2.317v2.317h-2.317V99.39Zm6.951 0h2.317v2.317h-2.317V99.39Zm2.317 0H114v2.317h-2.317V99.39ZM19 101.707h2.317v2.317H19v-2.317Zm4.634 0h2.317v2.317h-2.317v-2.317Zm2.317 0h2.317v2.317h-2.317v-2.317Zm6.951 0h2.317v2.317h-2.317v-2.317Zm4.635 0h2.317v2.317h-2.317v-2.317Zm2.317 0h2.317v2.317h-2.317v-2.317Zm6.95 0h2.318v2.317h-2.317v-2.317Zm13.903 0h2.317v2.317h-2.317v-2.317Zm4.634 0h2.318v2.317H65.34v-2.317Zm2.318 0h2.317v2.317h-2.317v-2.317Zm2.317 0h2.317v2.317h-2.317v-2.317Zm9.268 0h2.317v2.317h-2.317v-2.317Zm2.317 0h2.317v2.317h-2.317v-2.317Zm11.585 0h2.317v2.317h-2.317v-2.317Zm4.635 0h2.317v2.317h-2.317v-2.317Zm4.634 0h2.317v2.317h-2.317v-2.317Zm4.634 0h2.317v2.317h-2.317v-2.317Zm-83.415 2.317h2.317v2.317h-2.317v-2.317Zm2.317 0h2.317v2.317h-2.317v-2.317Zm2.317 0h2.317v2.317h-2.317v-2.317Zm11.586 0h2.317v2.317h-2.317v-2.317Zm9.268 0h2.317v2.317h-2.317v-2.317Zm2.317 0h2.317v2.317H51.44v-2.317Zm2.317 0h2.317v2.317h-2.317v-2.317Zm2.317 0h2.317v2.317h-2.317v-2.317Zm6.951 0h2.317v2.317h-2.317v-2.317Zm2.317 0h2.318v2.317H65.34v-2.317Zm2.318 0h2.317v2.317h-2.317v-2.317Zm2.317 0h2.317v2.317h-2.317v-2.317Zm4.634 0h2.317v2.317H74.61v-2.317Zm4.634 0h2.317v2.317h-2.317v-2.317Zm4.634 0h2.317v2.317h-2.317v-2.317Zm4.634 0h2.317v2.317h-2.317v-2.317Zm4.634 0h2.317v2.317h-2.317v-2.317Zm4.635 0h2.317v2.317h-2.317v-2.317Zm4.634 0h2.317v2.317h-2.317v-2.317Zm2.317 0h2.317v2.317h-2.317v-2.317Zm4.634 0h2.317v2.317h-2.317v-2.317Zm2.317 0H114v2.317h-2.317v-2.317Zm-83.415 2.317h2.317v2.318h-2.317v-2.318Zm2.317 0h2.317v2.318h-2.317v-2.318Zm2.317 0h2.317v2.318h-2.317v-2.318Zm2.317 0h2.318v2.318h-2.318v-2.318Zm6.952 0h2.317v2.318H42.17v-2.318Zm2.317 0h2.317v2.318h-2.317v-2.318Zm6.951 0h2.317v2.318H51.44v-2.318Zm2.317 0h2.317v2.318h-2.317v-2.318Zm2.317 0h2.317v2.318h-2.317v-2.318Zm4.634 0h2.317v2.318h-2.317v-2.318Zm4.634 0h2.318v2.318H65.34v-2.318Zm4.635 0h2.317v2.318h-2.317v-2.318Zm4.634 0h2.317v2.318H74.61v-2.318Zm2.317 0h2.317v2.318h-2.317v-2.318Zm4.634 0h2.317v2.318h-2.317v-2.318Zm2.317 0h2.317v2.318h-2.317v-2.318Zm2.317 0h2.317v2.318h-2.317v-2.318Zm4.634 0h2.317v2.318H90.83v-2.318Zm9.269 0h2.317v2.318h-2.317v-2.318Zm6.951 0h2.317v2.318h-2.317v-2.318Zm2.317 0h2.317v2.318h-2.317v-2.318Zm-88.049 2.318h2.317v2.317h-2.317v-2.317Zm4.634 0h2.317v2.317h-2.317v-2.317Zm2.317 0h2.317v2.317h-2.317v-2.317Zm9.269 0h2.317v2.317h-2.317v-2.317Zm2.317 0h2.317v2.317h-2.317v-2.317Zm2.317 0h2.317v2.317H42.17v-2.317Zm4.634 0h2.317v2.317h-2.317v-2.317Zm2.317 0h2.317v2.317h-2.317v-2.317Zm2.317 0h2.317v2.317H51.44v-2.317Zm2.317 0h2.317v2.317h-2.317v-2.317Zm2.317 0h2.317v2.317h-2.317v-2.317Zm6.951 0h2.317v2.317h-2.317v-2.317Zm2.317 0h2.318v2.317H65.34v-2.317Zm4.635 0h2.317v2.317h-2.317v-2.317Zm2.317 0h2.317v2.317h-2.317v-2.317Zm4.634 0h2.317v2.317h-2.317v-2.317Zm2.317 0h2.317v2.317h-2.317v-2.317Zm4.634 0h2.317v2.317h-2.317v-2.317Zm6.951 0h2.317v2.317H90.83v-2.317Zm2.317 0h2.317v2.317h-2.317v-2.317Zm2.317 0h2.318v2.317h-2.318v-2.317Zm2.318 0h2.317v2.317h-2.317v-2.317Zm2.317 0h2.317v2.317h-2.317v-2.317Zm2.317 0h2.317v2.317h-2.317v-2.317Zm2.317 0h2.317v2.317h-2.317v-2.317Zm4.634 0h2.317v2.317h-2.317v-2.317Zm2.317 0H114v2.317h-2.317v-2.317Zm-88.049 2.317h2.317v2.317h-2.317v-2.317Zm9.268 0h2.317v2.317h-2.317v-2.317Zm2.317 0h2.318v2.317h-2.318v-2.317Zm2.318 0h2.317v2.317h-2.317v-2.317Zm9.268 0h2.317v2.317h-2.317v-2.317Zm9.268 0h2.317v2.317h-2.317v-2.317Zm2.317 0h2.317v2.317H58.39v-2.317Zm6.951 0h2.318v2.317H65.34v-2.317Zm4.635 0h2.317v2.317h-2.317v-2.317Zm4.634 0h2.317v2.317H74.61v-2.317Zm2.317 0h2.317v2.317h-2.317v-2.317Zm4.634 0h2.317v2.317h-2.317v-2.317Zm4.634 0h2.317v2.317h-2.317v-2.317Zm9.268 0h2.318v2.317h-2.318v-2.317Zm4.635 0h2.317v2.317h-2.317v-2.317Zm4.634 0h2.317v2.317h-2.317v-2.317ZM19 113.293h2.317v2.317H19v-2.317Zm2.317 0h2.317v2.317h-2.317v-2.317Zm2.317 0h2.317v2.317h-2.317v-2.317Zm23.17 0h2.318v2.317h-2.317v-2.317Zm4.635 0h2.317v2.317H51.44v-2.317Zm4.634 0h2.317v2.317h-2.317v-2.317Zm4.634 0h2.317v2.317h-2.317v-2.317Zm6.952 0h2.317v2.317h-2.317v-2.317Zm4.634 0h2.317v2.317h-2.317v-2.317Zm2.317 0h2.317v2.317H74.61v-2.317Zm16.22 0h2.316v2.317H90.83v-2.317Zm6.95 0h2.318v2.317h-2.317v-2.317Zm2.318 0h2.317v2.317h-2.317v-2.317Zm4.634 0h2.317v2.317h-2.317v-2.317Zm-83.415 2.317h2.317v2.317h-2.317v-2.317Zm2.317 0h2.317v2.317h-2.317v-2.317Zm6.951 0h2.317v2.317h-2.317v-2.317Zm2.317 0h2.317v2.317h-2.317v-2.317Zm2.317 0h2.318v2.317h-2.318v-2.317Zm2.318 0h2.317v2.317h-2.317v-2.317Zm2.317 0h2.317v2.317h-2.317v-2.317Zm2.317 0h2.317v2.317H42.17v-2.317Zm2.317 0h2.317v2.317h-2.317v-2.317Zm2.317 0h2.317v2.317h-2.317v-2.317Zm9.268 0h2.317v2.317h-2.317v-2.317Zm2.317 0h2.317v2.317H58.39v-2.317Zm11.586 0h2.317v2.317h-2.317v-2.317Zm4.634 0h2.317v2.317H74.61v-2.317Zm2.317 0h2.317v2.317h-2.317v-2.317Zm2.317 0h2.317v2.317h-2.317v-2.317Zm2.317 0h2.317v2.317h-2.317v-2.317Zm4.634 0h2.317v2.317h-2.317v-2.317Zm13.903 0h2.317v2.317h-2.317v-2.317Zm6.951 0h2.317v2.317h-2.317v-2.317ZM19 117.927h2.317v2.317H19v-2.317Zm2.317 0h2.317v2.317h-2.317v-2.317Zm2.317 0h2.317v2.317h-2.317v-2.317Zm4.634 0h2.317v2.317h-2.317v-2.317Zm2.317 0h2.317v2.317h-2.317v-2.317Zm4.634 0h2.318v2.317h-2.318v-2.317Zm16.22 0h2.317v2.317H51.44v-2.317Zm6.951 0h2.317v2.317H58.39v-2.317Zm2.317 0h2.317v2.317h-2.317v-2.317Zm2.317 0h2.317v2.317h-2.317v-2.317Zm2.317 0h2.318v2.317H65.34v-2.317Zm2.318 0h2.317v2.317h-2.317v-2.317Zm4.634 0h2.317v2.317h-2.317v-2.317Zm4.634 0h2.317v2.317h-2.317v-2.317Zm6.951 0h2.317v2.317h-2.317v-2.317Zm6.951 0h2.317v2.317H90.83v-2.317Zm6.952 0h2.317v2.317h-2.317v-2.317Zm2.317 0h2.317v2.317h-2.317v-2.317Zm2.317 0h2.317v2.317h-2.317v-2.317Zm2.317 0h2.317v2.317h-2.317v-2.317Zm6.951 0H114v2.317h-2.317v-2.317Zm-88.049 2.317h2.317v2.317h-2.317v-2.317Zm2.317 0h2.317v2.317h-2.317v-2.317Zm2.317 0h2.317v2.317h-2.317v-2.317Zm4.634 0h2.317v2.317h-2.317v-2.317Zm2.317 0h2.318v2.317h-2.318v-2.317Zm4.635 0h2.317v2.317h-2.317v-2.317Zm2.317 0h2.317v2.317H42.17v-2.317Zm6.95 0h2.318v2.317h-2.317v-2.317Zm2.318 0h2.317v2.317H51.44v-2.317Zm2.317 0h2.317v2.317h-2.317v-2.317Zm2.317 0h2.317v2.317h-2.317v-2.317Zm2.317 0h2.317v2.317H58.39v-2.317Zm9.269 0h2.317v2.317h-2.317v-2.317Zm2.317 0h2.317v2.317h-2.317v-2.317Zm4.634 0h2.317v2.317H74.61v-2.317Zm4.634 0h2.317v2.317h-2.317v-2.317Zm2.317 0h2.317v2.317h-2.317v-2.317Zm4.634 0h2.317v2.317h-2.317v-2.317Zm2.317 0h2.317v2.317h-2.317v-2.317Zm4.634 0h2.317v2.317h-2.317v-2.317Zm4.635 0h2.317v2.317h-2.317v-2.317Zm4.634 0h2.317v2.317h-2.317v-2.317Zm-81.098 2.317h2.317v2.317h-2.317v-2.317Zm13.902 0h2.318v2.317h-2.318v-2.317Zm2.318 0h2.317v2.317h-2.317v-2.317Zm6.95 0h2.318v2.317h-2.317v-2.317Zm2.318 0h2.317v2.317h-2.317v-2.317Zm4.634 0h2.317v2.317H51.44v-2.317Zm11.585 0h2.317v2.317h-2.317v-2.317Zm4.635 0h2.317v2.317h-2.317v-2.317Zm2.317 0h2.317v2.317h-2.317v-2.317Zm9.268 0h2.317v2.317h-2.317v-2.317Zm4.634 0h2.317v2.317h-2.317v-2.317Zm6.951 0h2.317v2.317H90.83v-2.317Zm2.317 0h2.317v2.317h-2.317v-2.317Zm6.952 0h2.317v2.317h-2.317v-2.317Zm2.317 0h2.317v2.317h-2.317v-2.317Zm2.317 0h2.317v2.317h-2.317v-2.317ZM19 124.878h2.317v2.317H19v-2.317Zm2.317 0h2.317v2.317h-2.317v-2.317Zm4.634 0h2.317v2.317h-2.317v-2.317Zm2.317 0h2.317v2.317h-2.317v-2.317Zm4.634 0h2.317v2.317h-2.317v-2.317Zm4.635 0h2.317v2.317h-2.317v-2.317Zm6.95 0h2.318v2.317h-2.317v-2.317Zm2.318 0h2.317v2.317h-2.317v-2.317Zm4.634 0h2.317v2.317H51.44v-2.317Zm4.634 0h2.317v2.317h-2.317v-2.317Zm2.317 0h2.317v2.317H58.39v-2.317Zm2.317 0h2.317v2.317h-2.317v-2.317Zm11.586 0h2.317v2.317h-2.317v-2.317Zm4.634 0h2.317v2.317h-2.317v-2.317Zm2.317 0h2.317v2.317h-2.317v-2.317Zm6.951 0h2.317v2.317h-2.317v-2.317Zm4.634 0h2.317v2.317H90.83v-2.317Zm9.269 0h2.317v2.317h-2.317v-2.317Zm4.634 0h2.317v2.317h-2.317v-2.317Zm2.317 0h2.317v2.317h-2.317v-2.317Zm2.317 0h2.317v2.317h-2.317v-2.317Zm2.317 0H114v2.317h-2.317v-2.317ZM19 127.195h2.317v2.317H19v-2.317Zm2.317 0h2.317v2.317h-2.317v-2.317Zm4.634 0h2.317v2.317h-2.317v-2.317Zm11.586 0h2.317v2.317h-2.317v-2.317Zm13.902 0h2.317v2.317H51.44v-2.317Zm2.317 0h2.317v2.317h-2.317v-2.317Zm11.585 0h2.318v2.317H65.34v-2.317Zm2.318 0h2.317v2.317h-2.317v-2.317Zm4.634 0h2.317v2.317h-2.317v-2.317Zm2.317 0h2.317v2.317H74.61v-2.317Zm9.268 0h2.317v2.317h-2.317v-2.317Zm4.634 0h2.317v2.317h-2.317v-2.317Zm2.317 0h2.317v2.317H90.83v-2.317Zm2.317 0h2.317v2.317h-2.317v-2.317Zm4.635 0h2.317v2.317h-2.317v-2.317Zm2.317 0h2.317v2.317h-2.317v-2.317Zm2.317 0h2.317v2.317h-2.317v-2.317Zm2.317 0h2.317v2.317h-2.317v-2.317Zm6.951 0H114v2.317h-2.317v-2.317ZM19 129.512h2.317v2.317H19v-2.317Zm6.951 0h2.317v2.317h-2.317v-2.317Zm4.634 0h2.317v2.317h-2.317v-2.317Zm2.317 0h2.317v2.317h-2.317v-2.317Zm2.317 0h2.318v2.317h-2.318v-2.317Zm6.952 0h2.317v2.317H42.17v-2.317Zm6.95 0h2.318v2.317h-2.317v-2.317Zm2.318 0h2.317v2.317H51.44v-2.317Zm6.951 0h2.317v2.317H58.39v-2.317Zm4.634 0h2.317v2.317h-2.317v-2.317Zm4.635 0h2.317v2.317h-2.317v-2.317Zm6.95 0h2.318v2.317H74.61v-2.317Zm2.318 0h2.317v2.317h-2.317v-2.317Zm2.317 0h2.317v2.317h-2.317v-2.317Zm2.317 0h2.317v2.317h-2.317v-2.317Zm4.634 0h2.317v2.317h-2.317v-2.317Zm2.317 0h2.317v2.317h-2.317v-2.317Zm4.634 0h2.317v2.317h-2.317v-2.317Zm2.317 0h2.318v2.317h-2.318v-2.317Zm2.318 0h2.317v2.317h-2.317v-2.317Zm2.317 0h2.317v2.317h-2.317v-2.317Zm6.951 0h2.317v2.317h-2.317v-2.317ZM19 131.829h2.317v2.317H19v-2.317Zm4.634 0h2.317v2.317h-2.317v-2.317Zm4.634 0h2.317v2.317h-2.317v-2.317Zm18.537 0h2.317v2.317h-2.317v-2.317Zm4.634 0h2.317v2.317H51.44v-2.317Zm2.317 0h2.317v2.317h-2.317v-2.317Zm6.951 0h2.317v2.317h-2.317v-2.317Zm2.317 0h2.317v2.317h-2.317v-2.317Zm2.317 0h2.318v2.317H65.34v-2.317Zm2.318 0h2.317v2.317h-2.317v-2.317Zm2.317 0h2.317v2.317h-2.317v-2.317Zm2.317 0h2.317v2.317h-2.317v-2.317Zm2.317 0h2.317v2.317H74.61v-2.317Zm9.268 0h2.317v2.317h-2.317v-2.317Zm4.634 0h2.317v2.317h-2.317v-2.317Zm2.317 0h2.317v2.317H90.83v-2.317Zm2.317 0h2.317v2.317h-2.317v-2.317Zm2.317 0h2.318v2.317h-2.318v-2.317Zm2.318 0h2.317v2.317h-2.317v-2.317Zm2.317 0h2.317v2.317h-2.317v-2.317Zm4.634 0h2.317v2.317h-2.317v-2.317Zm6.951 0H114v2.317h-2.317v-2.317ZM19 134.146h2.317v2.317H19v-2.317Zm9.268 0h2.317v2.317h-2.317v-2.317Zm2.317 0h2.317v2.317h-2.317v-2.317Zm2.317 0h2.317v2.317h-2.317v-2.317Zm4.635 0h2.317v2.317h-2.317v-2.317Zm4.634 0h2.317v2.317H42.17v-2.317Zm2.317 0h2.317v2.317h-2.317v-2.317Zm2.317 0h2.317v2.317h-2.317v-2.317Zm4.634 0h2.317v2.317H51.44v-2.317Zm2.317 0h2.317v2.317h-2.317v-2.317Zm2.317 0h2.317v2.317h-2.317v-2.317Zm2.317 0h2.317v2.317H58.39v-2.317Zm4.634 0h2.317v2.317h-2.317v-2.317Zm6.952 0h2.317v2.317h-2.317v-2.317Zm4.634 0h2.317v2.317H74.61v-2.317Zm2.317 0h2.317v2.317h-2.317v-2.317Zm2.317 0h2.317v2.317h-2.317v-2.317Zm6.951 0h2.317v2.317h-2.317v-2.317Zm6.951 0h2.317v2.317h-2.317v-2.317Zm2.317 0h2.318v2.317h-2.318v-2.317Zm2.318 0h2.317v2.317h-2.317v-2.317Zm2.317 0h2.317v2.317h-2.317v-2.317Zm2.317 0h2.317v2.317h-2.317v-2.317Zm4.634 0h2.317v2.317h-2.317v-2.317Zm4.634 0H114v2.317h-2.317v-2.317Zm-74.146 2.317h2.317v2.317h-2.317v-2.317Zm2.317 0h2.317v2.317h-2.317v-2.317Zm2.317 0h2.317v2.317H42.17v-2.317Zm2.317 0h2.317v2.317h-2.317v-2.317Zm4.634 0h2.317v2.317h-2.317v-2.317Zm2.317 0h2.317v2.317H51.44v-2.317Zm4.634 0h2.317v2.317h-2.317v-2.317Zm2.317 0h2.317v2.317H58.39v-2.317Zm2.317 0h2.317v2.317h-2.317v-2.317Zm2.317 0h2.317v2.317h-2.317v-2.317Zm2.317 0h2.318v2.317H65.34v-2.317Zm2.318 0h2.317v2.317h-2.317v-2.317Zm4.634 0h2.317v2.317h-2.317v-2.317Zm11.585 0h2.317v2.317h-2.317v-2.317Zm4.634 0h2.317v2.317h-2.317v-2.317Zm2.317 0h2.317v2.317H90.83v-2.317Zm2.317 0h2.317v2.317h-2.317v-2.317Zm9.269 0h2.317v2.317h-2.317v-2.317Zm2.317 0h2.317v2.317h-2.317v-2.317Zm2.317 0h2.317v2.317h-2.317v-2.317Zm4.634 0H114v2.317h-2.317v-2.317ZM19 138.78h2.317v2.318H19v-2.318Zm2.317 0h2.317v2.318h-2.317v-2.318Zm2.317 0h2.317v2.318h-2.317v-2.318Zm2.317 0h2.317v2.318h-2.317v-2.318Zm2.317 0h2.317v2.318h-2.317v-2.318Zm2.317 0h2.317v2.318h-2.317v-2.318Zm2.317 0h2.317v2.318h-2.317v-2.318Zm11.586 0h2.317v2.318h-2.317v-2.318Zm4.634 0h2.317v2.318h-2.317v-2.318Zm2.317 0h2.317v2.318H51.44v-2.318Zm6.951 0h2.317v2.318H58.39v-2.318Zm6.951 0h2.318v2.318H65.34v-2.318Zm16.22 0h2.317v2.318h-2.317v-2.318Zm2.317 0h2.317v2.318h-2.317v-2.318Zm2.317 0h2.317v2.318h-2.317v-2.318Zm2.317 0h2.317v2.318h-2.317v-2.318Zm2.317 0h2.317v2.318H90.83v-2.318Zm2.317 0h2.317v2.318h-2.317v-2.318Zm4.635 0h2.317v2.318h-2.317v-2.318Zm4.634 0h2.317v2.318h-2.317v-2.318Zm2.317 0h2.317v2.318h-2.317v-2.318Zm2.317 0h2.317v2.318h-2.317v-2.318ZM19 141.098h2.317v2.317H19v-2.317Zm13.902 0h2.317v2.317h-2.317v-2.317Zm4.635 0h2.317v2.317h-2.317v-2.317Zm2.317 0h2.317v2.317h-2.317v-2.317Zm4.634 0h2.317v2.317h-2.317v-2.317Zm4.634 0h2.317v2.317h-2.317v-2.317Zm2.317 0h2.317v2.317H51.44v-2.317Zm2.317 0h2.317v2.317h-2.317v-2.317Zm2.317 0h2.317v2.317h-2.317v-2.317Zm2.317 0h2.317v2.317H58.39v-2.317Zm2.317 0h2.317v2.317h-2.317v-2.317Zm6.952 0h2.317v2.317h-2.317v-2.317Zm2.317 0h2.317v2.317h-2.317v-2.317Zm2.317 0h2.317v2.317h-2.317v-2.317Zm2.317 0h2.317v2.317H74.61v-2.317Zm4.634 0h2.317v2.317h-2.317v-2.317Zm2.317 0h2.317v2.317h-2.317v-2.317Zm2.317 0h2.317v2.317h-2.317v-2.317Zm9.268 0h2.317v2.317h-2.317v-2.317Zm9.269 0h2.317v2.317h-2.317v-2.317Zm2.317 0h2.317v2.317h-2.317v-2.317ZM19 143.415h2.317v2.317H19v-2.317Zm4.634 0h2.317v2.317h-2.317v-2.317Zm2.317 0h2.317v2.317h-2.317v-2.317Zm2.317 0h2.317v2.317h-2.317v-2.317Zm4.634 0h2.317v2.317h-2.317v-2.317Zm4.635 0h2.317v2.317h-2.317v-2.317Zm2.317 0h2.317v2.317h-2.317v-2.317Zm6.95 0h2.318v2.317h-2.317v-2.317Zm6.952 0h2.317v2.317h-2.317v-2.317Zm2.317 0h2.317v2.317h-2.317v-2.317Zm6.951 0h2.317v2.317h-2.317v-2.317Zm4.635 0h2.317v2.317h-2.317v-2.317Zm6.95 0h2.318v2.317H74.61v-2.317Zm2.318 0h2.317v2.317h-2.317v-2.317Zm4.634 0h2.317v2.317h-2.317v-2.317Zm2.317 0h2.317v2.317h-2.317v-2.317Zm2.317 0h2.317v2.317h-2.317v-2.317Zm6.951 0h2.317v2.317h-2.317v-2.317Zm2.317 0h2.318v2.317h-2.318v-2.317Zm2.318 0h2.317v2.317h-2.317v-2.317Zm2.317 0h2.317v2.317h-2.317v-2.317Zm2.317 0h2.317v2.317h-2.317v-2.317Zm4.634 0h2.317v2.317h-2.317v-2.317Zm2.317 0h2.317v2.317h-2.317v-2.317Zm2.317 0H114v2.317h-2.317v-2.317ZM19 145.732h2.317v2.317H19v-2.317Zm4.634 0h2.317v2.317h-2.317v-2.317Zm2.317 0h2.317v2.317h-2.317v-2.317Zm2.317 0h2.317v2.317h-2.317v-2.317Zm4.634 0h2.317v2.317h-2.317v-2.317Zm4.635 0h2.317v2.317h-2.317v-2.317Zm2.317 0h2.317v2.317h-2.317v-2.317Zm4.634 0h2.317v2.317h-2.317v-2.317Zm4.634 0h2.317v2.317h-2.317v-2.317Zm2.317 0h2.317v2.317H51.44v-2.317Zm2.317 0h2.317v2.317h-2.317v-2.317Zm2.317 0h2.317v2.317h-2.317v-2.317Zm2.317 0h2.317v2.317H58.39v-2.317Zm2.317 0h2.317v2.317h-2.317v-2.317Zm2.317 0h2.317v2.317h-2.317v-2.317Zm2.317 0h2.318v2.317H65.34v-2.317Zm6.952 0h2.317v2.317h-2.317v-2.317Zm4.634 0h2.317v2.317h-2.317v-2.317Zm2.317 0h2.317v2.317h-2.317v-2.317Zm4.634 0h2.317v2.317h-2.317v-2.317Zm4.634 0h2.317v2.317h-2.317v-2.317Zm6.951 0h2.318v2.317h-2.318v-2.317Zm4.635 0h2.317v2.317h-2.317v-2.317Zm4.634 0h2.317v2.317h-2.317v-2.317Zm4.634 0h2.317v2.317h-2.317v-2.317Zm2.317 0H114v2.317h-2.317v-2.317ZM19 148.049h2.317v2.317H19v-2.317Zm4.634 0h2.317v2.317h-2.317v-2.317Zm2.317 0h2.317v2.317h-2.317v-2.317Zm2.317 0h2.317v2.317h-2.317v-2.317Zm4.634 0h2.317v2.317h-2.317v-2.317Zm4.635 0h2.317v2.317h-2.317v-2.317Zm2.317 0h2.317v2.317h-2.317v-2.317Zm2.317 0h2.317v2.317H42.17v-2.317Zm2.317 0h2.317v2.317h-2.317v-2.317Zm9.268 0h2.317v2.317h-2.317v-2.317Zm2.317 0h2.317v2.317h-2.317v-2.317Zm4.634 0h2.317v2.317h-2.317v-2.317Zm4.634 0h2.318v2.317H65.34v-2.317Zm4.635 0h2.317v2.317h-2.317v-2.317Zm11.585 0h2.317v2.317h-2.317v-2.317Zm2.317 0h2.317v2.317h-2.317v-2.317Zm2.317 0h2.317v2.317h-2.317v-2.317Zm4.634 0h2.317v2.317H90.83v-2.317Zm4.634 0h2.318v2.317h-2.318v-2.317Zm2.318 0h2.317v2.317h-2.317v-2.317Zm2.317 0h2.317v2.317h-2.317v-2.317Zm2.317 0h2.317v2.317h-2.317v-2.317Zm4.634 0h2.317v2.317h-2.317v-2.317ZM19 150.366h2.317v2.317H19v-2.317Zm13.902 0h2.317v2.317h-2.317v-2.317Zm6.952 0h2.317v2.317h-2.317v-2.317Zm2.317 0h2.317v2.317H42.17v-2.317Zm4.634 0h2.317v2.317h-2.317v-2.317Zm6.951 0h2.317v2.317h-2.317v-2.317Zm2.317 0h2.317v2.317h-2.317v-2.317Zm2.317 0h2.317v2.317H58.39v-2.317Zm2.317 0h2.317v2.317h-2.317v-2.317Zm2.317 0h2.317v2.317h-2.317v-2.317Zm2.317 0h2.318v2.317H65.34v-2.317Zm2.318 0h2.317v2.317h-2.317v-2.317Zm2.317 0h2.317v2.317h-2.317v-2.317Zm2.317 0h2.317v2.317h-2.317v-2.317Zm6.95 0h2.318v2.317h-2.317v-2.317Zm2.318 0h2.317v2.317h-2.317v-2.317Zm2.317 0h2.317v2.317h-2.317v-2.317Zm6.951 0h2.317v2.317H90.83v-2.317Zm2.317 0h2.317v2.317h-2.317v-2.317Zm2.317 0h2.318v2.317h-2.318v-2.317Zm6.952 0h2.317v2.317h-2.317v-2.317Zm2.317 0h2.317v2.317h-2.317v-2.317Zm4.634 0h2.317v2.317h-2.317v-2.317ZM19 152.683h2.317V155H19v-2.317Zm2.317 0h2.317V155h-2.317v-2.317Zm2.317 0h2.317V155h-2.317v-2.317Zm2.317 0h2.317V155h-2.317v-2.317Zm2.317 0h2.317V155h-2.317v-2.317Zm2.317 0h2.317V155h-2.317v-2.317Zm2.317 0h2.317V155h-2.317v-2.317Zm4.635 0h2.317V155h-2.317v-2.317Zm6.95 0h2.318V155h-2.317v-2.317Zm6.952 0h2.317V155H51.44v-2.317Zm4.634 0h2.317V155h-2.317v-2.317Zm6.951 0h2.317V155h-2.317v-2.317Zm2.317 0h2.318V155H65.34v-2.317Zm4.635 0h2.317V155h-2.317v-2.317Zm2.317 0h2.317V155h-2.317v-2.317Zm2.317 0h2.317V155H74.61v-2.317Zm2.317 0h2.317V155h-2.317v-2.317Zm2.317 0h2.317V155h-2.317v-2.317Zm2.317 0h2.317V155h-2.317v-2.317Zm4.634 0h2.317V155h-2.317v-2.317Zm2.317 0h2.317V155h-2.317v-2.317Zm2.317 0h2.317V155H90.83v-2.317Zm4.634 0h2.318V155h-2.318v-2.317Zm2.318 0h2.317V155h-2.317v-2.317Zm2.317 0h2.317V155h-2.317v-2.317Zm2.317 0h2.317V155h-2.317v-2.317Zm4.634 0h2.317V155h-2.317v-2.317Z"/></g><defs><clipPath id="a"><path fill="#fff" d="M0 0h326v192H0z"/></clipPath></defs></svg>
