<svg xmlns="http://www.w3.org/2000/svg" width="600" height="450" fill="none" viewBox="0 0 600 450"><rect width="600" height="450" fill="#ECDFFF" rx="15"/><g filter="url(#a)"><g clip-path="url(#b)"><rect width="507.821" height="358.053" x="46" y="46" fill="#fff" rx="5.951"/><path fill="#C9C3D2" d="M40.05 42.033h525.673v28.763H40.05z"/><circle cx="57.364" cy="57.365" r="3.099" fill="#592ACB"/><circle cx="67.696" cy="57.365" r="3.099" fill="#592ACB"/><circle cx="78.028" cy="57.365" r="3.099" fill="#592ACB"/><path fill="#0C0C0D" d="m96.49 248-6.833-22.569h5.256l4.173 15.144 4.993-15.144h5.256l4.994 15.144 4.172-15.144h5.257L116.924 248h-4.862l-5.322-15.506L101.385 248H96.49Zm33.908 5.913c-1.413 0-3.121-.427-4.271-1.051l1.018-3.285c.822.46 1.676.755 2.234.755.92 0 1.643-.295 2.004-.919l.592-1.249-7.064-17.149h4.961l4.468 11.926 4.238-11.926h4.895l-6.965 17.839c-1.281 3.318-3.449 5.059-6.11 5.059Zm22.227-5.519c-2.727 0-5.618-.92-7.655-2.562l2.07-3.318c1.511 1.084 3.417 1.905 5.684 1.905 1.281 0 2.201-.526 2.201-1.281 0-1.051-1.249-1.38-2.99-1.84-3.482-.854-6.176-1.807-6.209-5.158-.033-3.219 2.628-5.519 6.636-5.519 2.431 0 4.829.854 6.702 2.103l-1.938 3.416c-1.544-.952-3.318-1.511-4.764-1.511-1.182 0-2.004.427-2.004 1.019 0 .919.69 1.182 2.99 1.806 2.924.756 6.176 1.742 6.176 5.454 0 3.351-2.727 5.486-6.899 5.486Zm9.361-.394v-3.384l8.542-9.527h-8.312v-4.074h14.554v3.384l-8.542 9.527h8.607V248h-14.849Zm29.509-16.985h4.796V248h-4.796v-2.135c-1.018 1.544-2.924 2.529-5.125 2.529-3.679 0-6.308-2.726-6.308-6.57v-10.809h4.633v9.79c0 2.103 1.314 3.548 3.219 3.548 2.004 0 3.548-1.445 3.548-3.285l.033.099v-10.152Zm25.436 0-6.603 7.524 6.537 9.461h-5.519l-4.205-6.373-2.037 2.201V248h-4.796v-22.964h4.796v13.305l6.308-7.326h5.519Zm4.642-2.332a2.615 2.615 0 0 1-2.629-2.628c0-1.347 1.15-2.563 2.629-2.563 1.412 0 2.562 1.216 2.562 2.563 0 1.445-1.15 2.628-2.562 2.628ZM219.142 248v-16.985h4.796V248h-4.796Zm13.254 0-5.782-16.985h4.698l3.219 10.579 3.351-10.579h3.975l3.351 10.579 3.22-10.579h4.698L247.344 248h-4.304l-3.154-10.677L236.7 248h-4.304Zm30.941-17.379c4.435 0 7.457 2.793 7.457 7.228V248h-4.632v-1.708c-1.215 1.379-3.154 2.102-4.993 2.102-3.614 0-6.407-2.168-6.407-5.42 0-3.351 3.121-5.651 7.064-5.651 1.379 0 2.891.296 4.336.854v-.328c0-1.807-1.117-3.384-3.909-3.384-1.577 0-3.056.526-4.403 1.215l-1.609-3.186c2.398-1.216 4.73-1.873 7.096-1.873Zm-1.084 14.455c1.839 0 3.581-.854 3.909-2.431v-1.577a10.748 10.748 0 0 0-3.647-.624c-1.741 0-3.12 1.018-3.12 2.398 0 1.38 1.215 2.234 2.858 2.234Zm22.407-14.455c3.679 0 6.307 2.727 6.307 6.571V248h-4.632v-9.79c0-2.102-1.314-3.548-3.219-3.548-2.004 0-3.548 1.446-3.548 3.285l-.033-.098V248h-4.797v-16.985h4.797v2.136c1.018-1.544 2.924-2.53 5.125-2.53Zm12.755-1.938a2.615 2.615 0 0 1-2.628-2.628c0-1.347 1.149-2.563 2.628-2.563 1.412 0 2.562 1.216 2.562 2.563 0 1.445-1.15 2.628-2.562 2.628ZM294.984 248v-16.985h4.796V248h-4.796Zm16.999-3.844c1.347 0 2.99-.624 3.91-1.511l3.055 3.121c-1.511 1.577-4.435 2.628-6.932 2.628-5.059 0-9.001-3.712-9.001-8.936 0-5.124 3.778-8.837 8.738-8.837 5.322 0 8.443 4.041 8.443 10.447h-12.254c.559 1.84 2.037 3.088 4.041 3.088Zm-.033-9.297c-1.806 0-3.318 1.051-3.942 2.76h7.589c-.46-1.676-1.708-2.76-3.647-2.76ZM90.347 283v-3.384l8.541-9.527h-8.311v-4.074h14.553v3.384l-8.541 9.527h8.607V283h-14.85Zm25.829-17.379c4.435 0 7.458 2.793 7.458 7.228V283h-4.633v-1.708c-1.215 1.379-3.153 2.102-4.993 2.102-3.614 0-6.406-2.168-6.406-5.42 0-3.351 3.121-5.651 7.063-5.651 1.38 0 2.891.296 4.336.854v-.328c0-1.807-1.117-3.384-3.909-3.384-1.577 0-3.055.526-4.402 1.215l-1.61-3.186c2.398-1.216 4.731-1.873 7.096-1.873Zm-1.084 14.455c1.84 0 3.581-.854 3.909-2.431v-1.577a10.746 10.746 0 0 0-3.646-.624c-1.741 0-3.121 1.018-3.121 2.398 0 1.38 1.215 2.234 2.858 2.234Zm24.871-14.061h4.829v15.178c0 4.369-3.778 7.458-9.133 7.458-2.989 0-5.815-.953-7.49-2.267l1.675-3.384c1.117.986 3.088 1.61 5.06 1.61 3.088 0 5.059-1.413 5.059-3.614v-1.873c-1.347 1.643-3.384 2.629-5.618 2.629-4.271 0-7.523-3.351-7.523-8.082 0-4.731 3.252-8.049 7.523-8.049 2.3 0 4.468 1.084 5.618 2.694v-2.3Zm-4.107 11.696c2.399 0 4.107-1.676 4.107-4.041s-1.708-4.008-4.107-4.008c-2.398 0-4.106 1.643-4.106 4.008s1.708 4.041 4.106 4.041Zm17.951-8.542c1.117-2.201 3.22-3.548 5.815-3.548v4.041c-3.548 0-5.815 2.037-5.815 5.224V283h-4.796v-16.985h4.796v3.154Zm16.541 14.225c-5.059 0-9.297-4.073-9.297-8.903 0-4.829 4.238-8.87 9.297-8.87 5.027 0 9.232 4.041 9.232 8.87 0 4.83-4.205 8.903-9.232 8.903Zm0-4.041c2.53 0 4.665-2.234 4.665-4.862s-2.135-4.829-4.665-4.829c-2.562 0-4.697 2.201-4.697 4.829 0 2.628 2.135 4.862 4.697 4.862Zm19.343-15.539c-1.347 0-2.332-1.051-2.332-2.299 0-1.249.985-2.3 2.332-2.3 1.249 0 2.3 1.051 2.3 2.3 0 1.248-1.051 2.299-2.3 2.299ZM182.07 283v-3.384l8.541-9.527H182.3v-4.074h14.553v3.384l-8.541 9.527h8.607V283H182.07Zm26.256-3.844c1.347 0 2.99-.624 3.909-1.511l3.056 3.121c-1.512 1.577-4.435 2.628-6.932 2.628-5.059 0-9.002-3.712-9.002-8.936 0-5.124 3.778-8.837 8.739-8.837 5.322 0 8.443 4.041 8.443 10.447h-12.254c.559 1.84 2.037 3.088 4.041 3.088Zm-.033-9.297c-1.807 0-3.318 1.051-3.942 2.76h7.589c-.46-1.676-1.709-2.76-3.647-2.76Zm24.599-10.085-4.862 4.336h-3.253l3.811-5.125 4.304.789Zm-3.285 5.847c3.679 0 6.307 2.727 6.307 6.571V283h-4.632v-9.79c0-2.102-1.314-3.548-3.219-3.548-2.004 0-3.548 1.446-3.548 3.285l-.033-.098V283h-4.797v-16.985h4.797v2.136c1.018-1.544 2.924-2.53 5.125-2.53Zm13.083 17.773a3.05 3.05 0 0 1-3.055-3.055c0-1.544 1.347-2.924 3.055-2.924 1.61 0 2.924 1.38 2.924 2.924 0 1.675-1.314 3.055-2.924 3.055Zm9.529 0a3.05 3.05 0 0 1-3.056-3.055c0-1.544 1.347-2.924 3.056-2.924 1.609 0 2.924 1.38 2.924 2.924 0 1.675-1.315 3.055-2.924 3.055Zm9.528 0a3.05 3.05 0 0 1-3.055-3.055c0-1.544 1.347-2.924 3.055-2.924 1.61 0 2.924 1.38 2.924 2.924 0 1.675-1.314 3.055-2.924 3.055Z"/><rect width="423.385" height="44.63" x="89.424" y="320.895" fill="#EAEAEA" rx="22.315"/><rect width="91.006" height="44.784" x="88.218" y="320.895" fill="url(#c)" rx="22.392"/><path fill="#fff" d="M115.607 340.349c2.844 0 5.195 1.836 5.195 4.882 0 3.157-2.53 5.329-5.889 5.329-4.501 0-6.539-3.224-6.539-7.703 0-4.792 2.799-8.218 7.054-8.218 1.926 0 3.471.65 4.725 1.657l-1.568 2.508c-.94-.784-1.858-1.254-3.135-1.254-1.993 0-3.358 1.657-3.65 4.255.963-.918 2.352-1.456 3.807-1.456Zm-.873 7.412c1.634 0 2.665-1.142 2.665-2.374 0-1.477-1.254-2.351-2.755-2.351-1.276 0-2.306.694-2.754 1.792.291 1.881 1.12 2.933 2.844 2.933Zm11.724-5.128c-2.284 0-3.829-1.724-3.829-3.918 0-2.217 1.545-3.964 3.851-3.964 2.329 0 3.829 1.769 3.829 3.941 0 2.217-1.567 3.941-3.851 3.941Zm-1.814 7.658 10.704-15.383h2.373l-10.703 15.383h-2.374Zm1.836-9.584c.941 0 1.635-.783 1.635-2.015 0-1.187-.694-1.993-1.657-1.993-.941 0-1.612.784-1.612 1.993s.716 2.015 1.634 2.015Zm9.383 9.831c-2.307 0-3.852-1.747-3.852-3.941 0-2.195 1.568-3.941 3.852-3.941 2.306 0 3.829 1.769 3.829 3.941 0 2.216-1.59 3.941-3.829 3.941Zm0-1.949c.962 0 1.634-.783 1.634-1.992 0-1.21-.716-2.016-1.634-2.016-.986 0-1.657.784-1.657 2.016 0 1.186.694 1.992 1.657 1.992Z"/><rect width="27.776" height="27.776" x="164.232" y="131.895" fill="#592ACB" rx="13.888"/><path fill="#fff" d="M175.798 152.738a1.16 1.16 0 0 1-.82-.34l-3.477-3.477a1.158 1.158 0 0 1 .824-1.964c.304-.003.596.114.815.325l2.5 2.5 7.321-10.458a1.158 1.158 0 0 1 2.084.466c.055.3-.012.61-.184.862l-8.114 11.591a1.15 1.15 0 0 1-.848.495.85.85 0 0 1-.101 0Z"/><path fill="#D9BFFF" d="M192.008 144.046h83.328v3.472h-83.328z"/><rect width="27.776" height="27.776" x="275.336" y="131.895" fill="#592ACB" rx="13.888"/><path fill="#fff" d="M286.901 152.738a1.16 1.16 0 0 1-.82-.34l-3.477-3.477a1.158 1.158 0 0 1 .824-1.964c.304-.003.597.114.815.325l2.5 2.5 7.321-10.458a1.16 1.16 0 0 1 1.9 1.328l-8.114 11.591a1.15 1.15 0 0 1-.848.495.85.85 0 0 1-.101 0Z"/><path fill="#D9BFFF" d="M303.112 144.046h41.664v3.472h-41.664z"/><path fill="#D9BFFF" d="M344.775 144.046h39.06v3.472h-39.06z"/><rect width="31.248" height="31.248" x="382.099" y="130.159" fill="#592ACB" rx="15.624"/><path fill="#fff" d="m404.422 151.257-4.178-4.179a5.215 5.215 0 1 0-1.226 1.226l4.179 4.179a.87.87 0 0 0 1.215-.011.866.866 0 0 0 .01-1.215Zm-8.412-3.72a3.464 3.464 0 0 1-3.399-4.143 3.461 3.461 0 0 1 2.723-2.723 3.46 3.46 0 0 1 3.559 1.474 3.466 3.466 0 0 1-2.883 5.392Z"/><rect width="31.248" height="31.248" x="382.099" y="130.159" stroke="#D9BFFF" stroke-width="3.472" rx="15.624"/><path fill="#592ACB" d="M155.374 182v-.854l3.884-5.571h-3.906v-1.15h5.607v.854l-3.88 5.571h3.903V182h-5.608Zm8.511.115c-1.084 0-1.901-.592-1.901-1.709 0-1.28 1.054-1.609 2.156-1.728 1.003-.107 1.406-.125 1.406-.51v-.022c0-.559-.34-.877-.962-.877-.654 0-1.032.333-1.165.721l-1.25-.177c.296-1.036 1.213-1.568 2.408-1.568 1.084 0 2.308.451 2.308 1.953V182h-1.287v-.78h-.045c-.244.477-.776.895-1.668.895Zm.348-.984c.806 0 1.317-.537 1.317-1.169v-.67c-.174.141-.877.23-1.228.278-.6.085-1.047.299-1.047.814 0 .492.399.747.958.747Zm6.477.98c-1.698 0-2.723-1.21-2.723-2.93 0-1.734 1.051-2.936 2.715-2.936 1.387 0 2.349.81 2.441 2.041h-1.279c-.104-.547-.5-.961-1.143-.961-.825 0-1.376.688-1.376 1.834 0 1.162.54 1.861 1.376 1.861.588 0 1.028-.352 1.143-.962h1.279c-.096 1.206-1.006 2.053-2.433 2.053Zm3.459-.111v-.851l2.929-3.673v-.048h-2.833v-1.109h4.472v.913l-2.789 3.61v.048h2.885V182h-4.664Zm6.755 2.131c-.366 0-.692-.067-.873-.141l.311-1.043c.584.17.976.126 1.224-.522l.115-.307-2.061-5.799h1.421l1.309 4.29h.059l1.313-4.29h1.425l-2.275 6.369c-.322.906-.925 1.443-1.968 1.443Zm6.508-5.46V182h-1.339v-5.681h1.28v.965h.066c.259-.633.844-1.039 1.695-1.039 1.172 0 1.949.776 1.945 2.138V182h-1.339v-3.41c0-.759-.414-1.214-1.106-1.214-.706 0-1.202.474-1.202 1.295Zm6.643 3.444c-1.084 0-1.901-.592-1.901-1.709 0-1.28 1.054-1.609 2.156-1.728 1.003-.107 1.406-.125 1.406-.51v-.022c0-.559-.34-.877-.962-.877-.654 0-1.032.333-1.165.721l-1.25-.177c.296-1.036 1.213-1.568 2.408-1.568 1.084 0 2.308.451 2.308 1.953V182h-1.287v-.78h-.045c-.244.477-.776.895-1.668.895Zm.348-.984c.806 0 1.317-.537 1.317-1.169v-.67c-.174.141-.877.23-1.228.278-.6.085-1.047.299-1.047.814 0 .492.399.747.958.747Zm3.998-4.812h1.339v6.006c0 1.229-.721 1.806-1.975 1.806-.096 0-.177 0-.274-.008v-1.091c.074.004.126.007.193.007.514 0 .717-.255.717-.732v-5.988Zm.666-.807c-.429 0-.777-.325-.777-.725 0-.403.348-.728.777-.728.425 0 .773.325.773.728 0 .4-.348.725-.773.725ZM249.655 182l-2.138-7.575h1.476l1.365 5.567h.07l1.457-5.567h1.343l1.461 5.57h.066l1.365-5.57h1.476L255.458 182h-1.354l-1.516-5.315h-.059l-1.52 5.315h-1.354Zm8.478 2.131v-7.812h1.316v.939h.078c.203-.41.621-1.013 1.624-1.013 1.313 0 2.345 1.028 2.345 2.922 0 1.871-1.003 2.933-2.342 2.933-.976 0-1.416-.581-1.627-.995h-.056v3.026h-1.338Zm1.313-4.972c0 1.103.48 1.842 1.335 1.842.884 0 1.35-.776 1.35-1.842 0-1.058-.459-1.816-1.35-1.816-.862 0-1.335.714-1.335 1.816Zm5.196 2.841v-5.681h1.299v.946H266c.207-.658.751-1.028 1.402-1.028.148 0 .359.015.481.037v1.232a2.561 2.561 0 0 0-.622-.078c-.736 0-1.28.511-1.28 1.232V182h-1.339Zm6.374.111c-1.664 0-2.722-1.173-2.722-2.93 0-1.76 1.058-2.936 2.722-2.936 1.665 0 2.723 1.176 2.723 2.936 0 1.757-1.058 2.93-2.723 2.93Zm.008-1.073c.906 0 1.357-.821 1.357-1.86 0-1.04-.451-1.872-1.357-1.872-.921 0-1.372.832-1.372 1.872 0 1.039.451 1.86 1.372 1.86Zm4.871.962-1.605-5.681h1.365l.999 3.994h.051l1.021-3.994h1.35l1.021 3.972h.056l.984-3.972h1.368L280.896 182h-1.394l-1.066-3.839h-.077L277.293 182h-1.398Zm9.18.115c-1.084 0-1.901-.592-1.901-1.709 0-1.28 1.054-1.609 2.156-1.728 1.002-.107 1.406-.125 1.406-.51v-.022c0-.559-.341-.877-.962-.877-.655 0-1.032.333-1.165.721l-1.25-.177c.296-1.036 1.213-1.568 2.408-1.568 1.083 0 2.308.451 2.308 1.953V182h-1.288v-.78h-.044c-.244.477-.777.895-1.668.895Zm.348-.984c.806 0 1.316-.537 1.316-1.169v-.67c-.173.141-.876.23-1.228.278-.599.085-1.046.299-1.046.814 0 .492.399.747.958.747Zm6.106.969c-1.339 0-2.341-1.062-2.341-2.933 0-1.894 1.032-2.922 2.345-2.922 1.002 0 1.42.603 1.624 1.013h.055v-2.833h1.343V182h-1.317v-.895h-.081c-.211.414-.651.995-1.628.995Zm.374-1.099c.854 0 1.335-.739 1.335-1.842 0-1.102-.473-1.816-1.335-1.816-.891 0-1.35.758-1.35 1.816 0 1.066.466 1.842 1.35 1.842Zm4.005.999v-.851l2.929-3.673v-.048h-2.833v-1.109h4.472v.913l-2.789 3.61v.048h2.885V182h-4.664Zm1.79-6.429.829-1.69h1.309l-1.136 1.69h-1.002Zm8.825 6.529c-1.339 0-2.342-1.062-2.342-2.933 0-1.894 1.032-2.922 2.345-2.922 1.003 0 1.421.603 1.624 1.013h.056v-2.833h1.342V182h-1.317v-.895h-.081c-.211.414-.651.995-1.627.995Zm.373-1.099c.855 0 1.335-.739 1.335-1.842 0-1.102-.473-1.816-1.335-1.816-.891 0-1.35.758-1.35 1.816 0 1.066.466 1.842 1.35 1.842Zm5.714 1.114c-1.084 0-1.901-.592-1.901-1.709 0-1.28 1.054-1.609 2.156-1.728 1.003-.107 1.406-.125 1.406-.51v-.022c0-.559-.341-.877-.962-.877-.655 0-1.032.333-1.165.721l-1.25-.177c.296-1.036 1.213-1.568 2.408-1.568 1.083 0 2.308.451 2.308 1.953V182h-1.287v-.78h-.045c-.244.477-.777.895-1.668.895Zm.348-.984c.806 0 1.316-.537 1.316-1.169v-.67c-.173.141-.876.23-1.228.278-.599.085-1.046.299-1.046.814 0 .492.399.747.958.747Zm5.337-2.46V182h-1.339v-5.681h1.28v.965h.066c.259-.633.844-1.039 1.695-1.039 1.172 0 1.949.776 1.945 2.138V182h-1.339v-3.41c0-.759-.414-1.214-1.106-1.214-.706 0-1.202.474-1.202 1.295Zm7.524 3.44c-1.713 0-2.76-1.136-2.76-2.918 0-1.754 1.062-2.948 2.689-2.948 1.398 0 2.597.876 2.597 2.87v.41h-3.958c.011.973.585 1.543 1.45 1.543.577 0 1.021-.252 1.202-.732l1.25.14c-.236.988-1.146 1.635-2.47 1.635Zm-1.428-3.488h2.67c-.007-.773-.525-1.335-1.294-1.335-.799 0-1.336.61-1.376 1.335ZM353.952 182v-.854l3.884-5.571h-3.906v-1.15h5.607v.854l-3.88 5.571h3.902V182h-5.607Zm8.215-3.329V182h-1.339v-5.681h1.28v.965h.067c.258-.633.843-1.039 1.694-1.039 1.172 0 1.949.776 1.945 2.138V182h-1.339v-3.41c0-.759-.414-1.214-1.106-1.214-.706 0-1.202.474-1.202 1.295Zm6.643 3.444c-1.084 0-1.901-.592-1.901-1.709 0-1.28 1.054-1.609 2.156-1.728 1.003-.107 1.406-.125 1.406-.51v-.022c0-.559-.34-.877-.962-.877-.654 0-1.032.333-1.165.721l-1.25-.177c.296-1.036 1.213-1.568 2.408-1.568 1.084 0 2.308.451 2.308 1.953V182h-1.287v-.78h-.045c-.244.477-.776.895-1.668.895Zm.348-.984c.806 0 1.317-.537 1.317-1.169v-.67c-.174.141-.877.23-1.228.278-.6.085-1.047.299-1.047.814 0 .492.399.747.958.747Zm3.998-4.812h1.339v6.006c0 1.229-.721 1.806-1.975 1.806-.096 0-.177 0-.274-.008v-1.091c.074.004.126.007.193.007.514 0 .717-.255.717-.732v-5.988Zm.666-.807c-.429 0-.777-.325-.777-.725 0-.403.348-.728.777-.728.426 0 .773.325.773.728 0 .4-.347.725-.773.725Zm4.159 6.588c-1.339 0-2.342-1.062-2.342-2.933 0-1.894 1.032-2.922 2.345-2.922 1.003 0 1.421.603 1.624 1.013h.056v-2.833h1.342V182h-1.317v-.895h-.081c-.211.414-.651.995-1.627.995Zm.373-1.099c.855 0 1.335-.739 1.335-1.842 0-1.102-.473-1.816-1.335-1.816-.891 0-1.35.758-1.35 1.816 0 1.066.466 1.842 1.35 1.842Zm4.005.999v-.851l2.93-3.673v-.048h-2.834v-1.109h4.472v.913l-2.789 3.61v.048h2.885V182h-4.664Zm1.79-6.429.829-1.69h1.309l-1.135 1.69h-1.003Zm6.643 6.429v-.851l2.929-3.673v-.048h-2.833v-1.109h4.472v.913l-2.789 3.61v.048h2.885V182h-4.664Zm7.557.115c-1.084 0-1.901-.592-1.901-1.709 0-1.28 1.054-1.609 2.156-1.728 1.003-.107 1.406-.125 1.406-.51v-.022c0-.559-.34-.877-.962-.877-.654 0-1.032.333-1.165.721l-1.25-.177c.296-1.036 1.213-1.568 2.408-1.568 1.084 0 2.308.451 2.308 1.953V182h-1.287v-.78h-.045c-.244.477-.776.895-1.668.895Zm.348-.984c.806 0 1.317-.537 1.317-1.169v-.67c-.174.141-.877.23-1.228.278-.6.085-1.047.299-1.047.814 0 .492.399.747.958.747Zm6.469 3.118c-1.446 0-2.264-.64-2.508-1.435l1.206-.292c.163.332.518.713 1.324.713.762 0 1.317-.344 1.317-1.18v-1.076h-.066c-.208.418-.663.94-1.635.94-1.31 0-2.342-.925-2.342-2.778 0-1.868 1.032-2.896 2.345-2.896 1.003 0 1.428.603 1.632 1.013h.074v-.939h1.32v5.773c0 1.454-1.132 2.157-2.667 2.157Zm.011-3.381c.855 0 1.336-.651 1.336-1.735 0-1.076-.474-1.79-1.336-1.79-.891 0-1.35.758-1.35 1.79 0 1.047.466 1.735 1.35 1.735Zm4.028 1.132v-5.681h1.299v.946h.059c.207-.658.751-1.028 1.402-1.028.148 0 .358.015.48.037v1.232a2.545 2.545 0 0 0-.621-.078c-.736 0-1.28.511-1.28 1.232V182h-1.339Zm6.374.111c-1.664 0-2.722-1.173-2.722-2.93 0-1.76 1.058-2.936 2.722-2.936 1.665 0 2.723 1.176 2.723 2.936 0 1.757-1.058 2.93-2.723 2.93Zm.008-1.073c.906 0 1.357-.821 1.357-1.86 0-1.04-.451-1.872-1.357-1.872-.921 0-1.373.832-1.373 1.872 0 1.039.452 1.86 1.373 1.86Zm3.777.962v-.851l2.93-3.673v-.048h-2.834v-1.109h4.472v.913l-2.789 3.61v.048h2.885V182h-4.664Zm2.305-6.488c-.43 0-.777-.325-.777-.725 0-.403.347-.728.777-.728.425 0 .773.325.773.728 0 .4-.348.725-.773.725Zm5.97 6.599c-1.712 0-2.759-1.136-2.759-2.918 0-1.754 1.062-2.948 2.689-2.948 1.398 0 2.597.876 2.597 2.87v.41h-3.958c.011.973.584 1.543 1.45 1.543.577 0 1.021-.252 1.202-.732l1.25.14c-.236.988-1.146 1.635-2.471 1.635Zm-1.427-3.488h2.67c-.007-.773-.525-1.335-1.294-1.335-.799 0-1.336.61-1.376 1.335Zm6.425.048V182h-1.339v-5.681h1.28v.965h.067c.259-.633.843-1.039 1.694-1.039 1.172 0 1.949.776 1.946 2.138V182h-1.339v-3.41c0-.759-.415-1.214-1.106-1.214-.707 0-1.203.474-1.203 1.295Zm5.009 3.329v-5.681h1.339V182h-1.339Zm.673-6.488c-.429 0-.777-.325-.777-.725 0-.403.348-.728.777-.728.425 0 .773.325.773.728 0 .4-.348.725-.773.725Zm3.677 6.603c-1.083 0-1.901-.592-1.901-1.709 0-1.28 1.054-1.609 2.157-1.728 1.002-.107 1.405-.125 1.405-.51v-.022c0-.559-.34-.877-.961-.877-.655 0-1.032.333-1.166.721l-1.25-.177c.296-1.036 1.213-1.568 2.408-1.568 1.084 0 2.308.451 2.308 1.953V182h-1.287v-.78h-.044c-.244.477-.777.895-1.669.895Zm.348-.984c.806 0 1.317-.537 1.317-1.169v-.67c-.174.141-.877.23-1.228.278-.599.085-1.047.299-1.047.814 0 .492.4.747.958.747Z"/></g></g><defs><radialGradient id="c" cx="0" cy="0" r="1" gradientTransform="matrix(-91.00646 44.78467 -35.48405 -72.10675 179.224 320.895)" gradientUnits="userSpaceOnUse"><stop stop-color="#9D62FC"/><stop offset="1" stop-color="#FD3296"/></radialGradient><clipPath id="b"><rect width="507.821" height="358.053" x="46" y="46" fill="#fff" rx="5.951"/></clipPath><filter id="a" width="531.625" height="381.858" x="34.098" y="38.065" color-interpolation-filters="sRGB" filterUnits="userSpaceOnUse"><feFlood flood-opacity="0" result="BackgroundImageFix"/><feColorMatrix in="SourceAlpha" result="hardAlpha" values="0 0 0 0 0 0 0 0 0 0 0 0 0 0 0 0 0 0 127 0"/><feOffset dy="3.967"/><feGaussianBlur stdDeviation="5.951"/><feComposite in2="hardAlpha" operator="out"/><feColorMatrix values="0 0 0 0 0 0 0 0 0 0 0 0 0 0 0 0 0 0 0.08 0"/><feBlend in2="BackgroundImageFix" result="effect1_dropShadow_1092_12036"/><feBlend in="SourceGraphic" in2="effect1_dropShadow_1092_12036" result="shape"/></filter></defs></svg>
