<svg xmlns="http://www.w3.org/2000/svg" width="140" height="68.142" viewBox="19.506 9.48 140 68.142"><path opacity=".5" fill="#FFF" d="M26.5 36.943c-.267-2.79-.412-9.07-.407-17.38l21.95-3.59v51.933c-2.457-.496-9.03-2.358-13.66-8.337-4.523-5.85-6.725-10.508-7.883-22.627zM74.915 23.09c-.96.327-1.867.628-2.74.937.012-1.89.016-3.895.01-6.04 0-.14-.118-.253-.283-.288l-23.857-3.883-23.84 3.882c-.167.035-.294.148-.294.29-.02 9.16.13 16.146.412 19.162 1.208 12.542 3.642 17.645 8.333 23.697 5.417 7.02 13.35 8.868 15.393 9.222 1.815-.336 8.4-1.84 13.66-7.222.56.834 1.17 1.69 1.847 2.634.237.294.486.61.75.923-7.305 7.02-16.26 7.986-16.26 7.986s-11.35-1.21-18.89-10.947c-5.562-7.167-8.017-13.38-9.212-25.876-.41-4.307-.452-14.078-.433-19.55.01-2.257 1.678-4.17 3.975-4.535l24.56-4.003 24.58 4.003c2.288.364 3.966 2.278 3.974 4.534.004 1.302.004 2.866-.004 4.51-.516.18-1.07.358-1.68.56z"/><path opacity=".5" fill="#FFF" d="M157.626 37.843c-.422 7.013 1.265 15.43-8.165 27.527-10.092 12.942-20.09 11.947-21.968 12.158-11.32 1.15-12.807-8.626-19.434-8.626-5.77 0-10.503 9.72-18.998 8.626-1.887-.273-11.895.784-21.946-12.158-9.434-12.098-7.764-20.515-8.186-27.527-.423-7.042-1.88-14.658-1.88-14.658s4.537 4.488 10.41 4.882c5.88.396 6.973-2.005 19.348-5.47 13.41-3.747 21.48 11.6 21.48 11.6s9.076-15.113 21.46-11.6c12.35 3.518 12.877 5.867 18.753 5.47 5.872-.392 11.005-4.88 11.005-4.88s-1.456 7.614-1.88 14.656zm-69.25 2.94c-7.312-1.573-10.39 1.115-13.532 2.26-2.736 1.012-5.217 1.317-5.217 1.317s.422 4.102 7.746 7.607c7.343 3.544 22.398 1.72 22.398 1.72s1.586-10.102-11.393-12.905zm53.316 2.26c-3.135-1.147-6.185-3.834-13.525-2.26-12.988 2.802-11.385 12.904-11.385 12.904s15.04 1.825 22.4-1.72c7.324-3.505 7.745-7.606 7.745-7.606s-2.496-.303-5.235-1.318z"/></svg>