<?xml version="1.0" encoding="UTF-8"?>
<!-- Generated by Pixelmator Pro 3.3.2 -->
<svg width="1100" height="1300" viewBox="0 0 1100 1300" xmlns="http://www.w3.org/2000/svg" xmlns:xlink="http://www.w3.org/1999/xlink">
    <g id="hex">
        <filter id="filter1" x="0" y="0" width="1100" height="1300" filterUnits="userSpaceOnUse" primitiveUnits="userSpaceOnUse" color-interpolation-filters="sRGB">
            <feGaussianBlur stdDeviation="0.836235"/>
        </filter>
        <g id="Group" opacity="0.5" filter="url(#filter1)">
            <path id="Path" fill="#ff651d" stroke="none" d="M 423.194031 101.611328 L 416.913849 107.434326 L 410.867126 101.921997 L 410.146667 102.623535 L 393.805725 118.694214 C 394.447174 119.328003 395.323853 119.688599 396.240967 119.696411 L 437.588593 119.696411 C 438.505707 119.689209 439.382385 119.328491 440.023834 118.694214 L 423.960419 102.402954 L 423.194031 101.611328 Z"/>
            <path id="path1" fill="#ff9200" stroke="none" d="M 410.885498 102.570068 L 393.785522 87.573853 L 393.816742 87.545044 L 393.785522 87.545044 C 393.167969 88.14917 392.816956 88.944946 392.800385 89.776855 L 392.800385 116.431274 C 392.805908 117.283081 393.178986 118.09729 393.836975 118.69165 L 410.18158 103.267578 L 410.885498 102.570068 Z"/>
            <path id="path2" fill="#ff9200" stroke="none" d="M 439.902527 87.545044 L 439.876801 87.545044 C 439.876801 87.545044 439.876801 87.545044 439.902527 87.569824 L 422.9422 102.851074 L 423.704956 103.603516 L 440.003601 119.696411 C 440.659729 119.080444 441.029144 118.243042 441.027344 117.369873 L 441.027344 89.960815 C 441.027344 89.617676 440.968506 89.276733 440.854553 88.950928 C 440.667114 88.415161 440.339935 87.931885 439.902527 87.545044 Z"/>
            <path id="path3" fill="#fbb85e" stroke="none" d="M 410.924072 103.1604 L 416.981873 108.644043 L 423.274872 102.861328 L 440.021973 87.47229 C 440.021973 87.47229 440.021973 87.47229 439.994415 87.447266 C 439.378723 86.870972 438.555328 86.545776 437.69519 86.540039 L 396.270386 86.540039 C 395.345886 86.547852 394.465546 86.919067 393.835144 87.566895 L 393.803894 87.596924 L 410.924072 103.1604 Z"/>
            <path id="path4" fill="#ffffff" stroke="none" d="M 452.642944 90.583496 C 452.642944 96.836182 447.574127 101.905151 441.321381 101.905151 C 435.068665 101.905151 429.999847 96.836182 429.999847 90.583496 C 429.999847 84.330811 435.068665 79.261963 441.321381 79.261963 C 447.574127 79.261963 452.642944 84.330811 452.642944 90.583496 Z"/>
            <path id="path5" fill="#ff298a" stroke="none" d="M 441.31955 82.496338 C 436.855255 82.496338 433.232697 86.119141 433.232697 90.58313 C 433.232697 95.047119 436.855255 98.670044 441.31955 98.670044 C 445.783844 98.670044 449.406372 95.047119 449.406372 90.58313 C 449.406372 86.119141 445.783844 82.496338 441.31955 82.496338 Z M 434.850098 90.58313 C 434.850098 87.008789 437.744781 84.113647 441.31955 84.113647 C 442.815613 84.113647 444.190369 84.623169 445.282074 85.480347 L 436.217499 94.545654 C 435.359192 93.453979 434.850098 92.079224 434.850098 90.58313 Z M 441.31955 97.052612 C 439.823517 97.052612 438.44873 96.543091 437.356995 95.685913 L 446.421631 86.620605 C 447.279907 87.71228 447.789032 89.087036 447.789032 90.58313 C 447.789032 94.157593 444.894287 97.052612 441.31955 97.052612 Z"/>
        </g>
        <filter id="filter2" x="0" y="0" width="1100" height="1300" filterUnits="userSpaceOnUse" primitiveUnits="userSpaceOnUse" color-interpolation-filters="sRGB">
            <feGaussianBlur stdDeviation="0.836235"/>
        </filter>
        <g id="g1" opacity="0.5" filter="url(#filter2)">
            <path id="path6" fill="#ff651d" stroke="none" d="M 790.777283 83.232178 L 784.497192 89.055054 L 778.450378 83.542847 L 777.729919 84.244385 L 761.389038 100.315063 C 762.030457 100.948853 762.907166 101.309448 763.82428 101.317261 L 805.171875 101.317261 C 806.08905 101.309937 806.965698 100.949341 807.607117 100.315063 L 791.543762 84.023804 L 790.777283 83.232178 Z"/>
            <path id="path7" fill="#ff9200" stroke="none" d="M 778.468811 84.190918 L 761.368835 69.194702 L 761.400085 69.165894 L 761.368835 69.165894 C 760.751343 69.77002 760.400269 70.565796 760.383728 71.397705 L 760.383728 98.052124 C 760.389221 98.903931 760.762329 99.71814 761.420288 100.3125 L 777.764893 84.888428 L 778.468811 84.190918 Z"/>
            <path id="path8" fill="#ff9200" stroke="none" d="M 807.48584 69.165894 L 807.460144 69.165894 C 807.460144 69.165894 807.460144 69.165894 807.48584 69.190674 L 790.525513 84.471924 L 791.288269 85.224365 L 807.586914 101.317261 C 808.243042 100.701294 808.612488 99.863892 808.610596 98.990723 L 808.610596 71.581665 C 808.610596 71.238525 808.551819 70.897583 808.437866 70.571777 C 808.250427 70.036011 807.923279 69.552734 807.48584 69.165894 Z"/>
            <path id="path9" fill="#fbb85e" stroke="none" d="M 778.507385 84.78125 L 784.565186 90.264771 L 790.858215 84.482178 L 807.605286 69.09314 C 807.605286 69.09314 807.605286 69.09314 807.577759 69.068115 C 806.961975 68.491821 806.138611 68.166626 805.278503 68.160889 L 763.853699 68.160889 C 762.92926 68.168701 762.048889 68.539917 761.418457 69.187744 L 761.387207 69.217773 L 778.507385 84.78125 Z"/>
            <path id="path10" fill="#ffffff" stroke="none" d="M 820.226257 72.204346 C 820.226257 78.457031 815.15741 83.525879 808.904663 83.525879 C 802.651978 83.525879 797.58313 78.457031 797.58313 72.204346 C 797.58313 65.95166 802.651978 60.882813 808.904663 60.882813 C 815.15741 60.882813 820.226257 65.95166 820.226257 72.204346 Z"/>
            <path id="path11" fill="#ff298a" stroke="none" d="M 808.902832 64.117188 C 804.438599 64.117188 800.81604 67.73999 800.81604 72.203979 C 800.81604 76.667847 804.438599 80.290894 808.902832 80.290894 C 813.367188 80.290894 816.989746 76.667847 816.989746 72.203979 C 816.989746 67.73999 813.367188 64.117188 808.902832 64.117188 Z M 802.433411 72.203979 C 802.433411 68.629639 805.328125 65.734497 808.902832 65.734497 C 810.398926 65.734497 811.773682 66.244019 812.865417 67.101196 L 803.800781 76.166504 C 802.942505 75.074829 802.433411 73.700073 802.433411 72.203979 Z M 808.902832 78.673462 C 807.406799 78.673462 806.032043 78.16394 804.940369 77.306763 L 814.004883 68.241455 C 814.86322 69.33313 815.372314 70.707886 815.372314 72.203979 C 815.372314 75.778442 812.4776 78.673462 808.902832 78.673462 Z"/>
        </g>
        <filter id="filter3" x="0" y="0" width="1100" height="1300" filterUnits="userSpaceOnUse" primitiveUnits="userSpaceOnUse" color-interpolation-filters="sRGB">
            <feGaussianBlur stdDeviation="0.836235"/>
        </filter>
        <g id="g2" opacity="0.5" filter="url(#filter3)">
            <path id="path12" fill="#ff651d" stroke="none" d="M 1060.95105 809.208862 L 1054.670898 815.031372 L 1048.624146 809.519531 L 1047.903687 810.221558 L 1031.562744 826.292297 C 1032.204224 826.926392 1033.080933 827.286621 1033.998047 827.293945 L 1075.345703 827.293945 C 1076.262695 827.286621 1077.139404 826.926392 1077.780762 826.292297 L 1061.717407 810.001038 L 1060.95105 809.208862 Z"/>
            <path id="path13" fill="#ff9200" stroke="none" d="M 1048.642578 810.168335 L 1031.542603 795.172729 L 1031.57373 795.143311 L 1031.542603 795.143311 C 1030.925049 795.746094 1030.573975 796.541992 1030.557495 797.374573 L 1030.557495 824.029846 C 1030.562988 824.880859 1030.936035 825.695007 1031.594116 826.290527 L 1047.938599 810.864868 L 1048.642578 810.168335 Z"/>
            <path id="path14" fill="#ff9200" stroke="none" d="M 1077.659546 795.143311 L 1077.633911 795.143311 C 1077.633911 795.143311 1077.633911 795.143311 1077.659546 795.167175 L 1060.699341 810.449463 L 1061.462036 811.201172 L 1077.76062 827.293945 C 1078.416748 826.678345 1078.786255 825.84021 1078.784302 824.967163 L 1078.784302 797.55835 C 1078.784302 797.214661 1078.725586 796.874634 1078.611572 796.549316 C 1078.424194 796.012695 1078.097046 795.529297 1077.659546 795.143311 Z"/>
            <path id="path15" fill="#fbb85e" stroke="none" d="M 1048.681152 810.75824 L 1054.738892 816.242554 L 1061.031982 810.458679 L 1077.779053 795.069824 C 1077.779053 795.069824 1077.779053 795.069824 1077.751465 795.045898 C 1077.135742 794.468811 1076.312378 794.143555 1075.452271 794.137939 L 1034.027466 794.137939 C 1033.103027 794.145264 1032.222656 794.516541 1031.592163 795.165405 L 1031.561035 795.194824 L 1048.681152 810.75824 Z"/>
            <path id="path16" fill="#ffffff" stroke="none" d="M 1090.400024 798.181396 C 1090.400024 804.434082 1085.331177 809.50293 1079.078491 809.50293 C 1072.825684 809.50293 1067.756836 804.434082 1067.756836 798.181396 C 1067.756836 791.928711 1072.825684 786.859802 1079.078491 786.859802 C 1085.331177 786.859802 1090.400024 791.928711 1090.400024 798.181396 Z"/>
            <path id="path17" fill="#ff298a" stroke="none" d="M 1079.076538 790.094604 C 1074.612305 790.094604 1070.989868 793.717041 1070.989868 798.181396 C 1070.989868 802.64563 1074.612305 806.268188 1079.076538 806.268188 C 1083.540894 806.268188 1087.163452 802.64563 1087.163452 798.181396 C 1087.163452 793.717041 1083.540894 790.094604 1079.076538 790.094604 Z M 1072.607178 798.181396 C 1072.607178 794.606628 1075.501831 791.711914 1079.076538 791.711914 C 1080.572632 791.711914 1081.947388 792.221008 1083.039185 793.077515 L 1073.974487 802.143921 C 1073.116211 801.052185 1072.607178 799.67749 1072.607178 798.181396 Z M 1079.076538 804.650879 C 1077.580566 804.650879 1076.205688 804.141785 1075.114014 803.283447 L 1084.178589 794.218872 C 1085.036987 795.310547 1085.546021 796.685303 1085.546021 798.181396 C 1085.546021 801.756165 1082.651367 804.650879 1079.076538 804.650879 Z"/>
        </g>
        <filter id="filter4" x="0" y="0" width="1100" height="1300" filterUnits="userSpaceOnUse" primitiveUnits="userSpaceOnUse" color-interpolation-filters="sRGB">
            <feGaussianBlur stdDeviation="0.836235"/>
        </filter>
        <g id="g3" opacity="0.5" filter="url(#filter4)">
            <path id="path18" fill="#ff651d" stroke="none" d="M 35.393627 555.576416 L 29.113831 561.398926 L 23.067272 555.887024 L 22.346992 556.589111 L 6.005119 572.65979 C 6.646865 573.293884 7.523129 573.654175 8.440341 573.661499 L 49.78727 573.661499 C 50.704758 573.654175 51.581074 573.293884 52.222511 572.65979 L 36.160408 556.36853 L 35.393627 555.576416 Z"/>
            <path id="path19" fill="#ff9200" stroke="none" d="M 23.0851 556.535828 L 5.984571 541.540222 L 6.015669 541.510803 L 5.984571 541.510803 C 5.368208 542.113647 5.017093 542.909485 5 543.742065 L 5 570.397339 C 5.005753 571.248352 5.379034 572.0625 6.036401 572.65802 L 22.380259 557.232361 L 23.0851 556.535828 Z"/>
            <path id="path20" fill="#ff9200" stroke="none" d="M 52.102493 541.510803 L 52.07621 541.510803 C 52.07621 541.510803 52.07621 541.510803 52.102493 541.534729 L 35.142567 556.816956 L 35.904938 557.568665 L 52.202477 573.661499 C 52.859715 573.045837 53.228767 572.207764 53.227665 571.334717 L 53.227665 543.925903 C 53.227116 543.582153 53.168667 543.242126 53.054165 542.916809 C 52.865963 542.380188 52.538815 541.89679 52.102493 541.510803 Z"/>
            <path id="path21" fill="#fbb85e" stroke="none" d="M 23.124063 557.125732 L 29.182203 562.610107 L 35.473942 556.826172 L 52.220856 541.437317 C 52.220856 541.437317 52.220856 541.437317 52.194756 541.413452 C 51.579052 540.836365 50.754932 540.511047 49.895157 540.505493 L 8.469141 540.505493 C 7.545423 540.512817 6.665428 540.884094 6.034472 541.532898 L 6.003318 541.562317 L 23.124063 557.125732 Z"/>
            <path id="path22" fill="#ffffff" stroke="none" d="M 64.842934 544.548889 C 64.842934 550.801636 59.77409 555.870483 53.521366 555.870483 C 47.268635 555.870483 42.199799 550.801636 42.199799 544.548889 C 42.199799 538.296204 47.268635 533.227356 53.521366 533.227356 C 59.77409 533.227356 64.842934 538.296204 64.842934 544.548889 Z"/>
            <path id="path23" fill="#ff298a" stroke="none" d="M 53.519161 536.462097 C 49.055225 536.462097 45.432327 540.084595 45.432327 544.548889 C 45.432327 549.013184 49.055225 552.635742 53.519161 552.635742 C 57.983093 552.635742 61.605991 549.013184 61.605991 544.548889 C 61.605991 540.084595 57.983093 536.462097 53.519161 536.462097 Z M 47.049694 544.548889 C 47.049694 540.974121 49.944782 538.079468 53.519161 538.079468 C 55.015221 538.079468 56.389984 538.588501 57.481709 539.445007 L 48.41637 548.511475 C 47.559166 547.419678 47.049694 546.044983 47.049694 544.548889 Z M 53.519161 551.018372 C 52.023094 551.018372 50.648335 550.509277 49.55661 549.65094 L 58.621952 540.586365 C 59.479156 541.67804 59.988625 543.052856 59.988625 544.548889 C 59.988625 548.123657 57.09354 551.018372 53.519161 551.018372 Z"/>
        </g>
        <g id="g4">
            <path id="path24" fill="#f5f7f9" stroke="none" d="M 926.977966 19.771729 L 939.977539 7.583252 L 962.730957 47.399048 L 926.977966 19.771729 Z"/>
            <path id="path25" fill="#666666" stroke="none" d="M 922.914368 39.273682 L 926.976135 19.771851 L 962.729065 47.399292 L 922.914368 39.273682 Z"/>
            <path id="path26" fill="#666666" stroke="none" d="M 918.03833 29.523315 L 920.477234 43.336914 L 963.543396 47.39978 L 918.03833 29.523315 Z"/>
            <path id="path27" fill="#f5f7f9" stroke="none" d="M 918.03833 23.83374 L 879.848267 23.83374 L 963.543396 47.398193 L 918.03833 23.83374 Z"/>
        </g>
        <path id="path28" fill="none" stroke="#c10cd7" stroke-width="3.675833" stroke-linejoin="round" stroke-dasharray="7.351666 7.351666" stroke-dashoffset="0" opacity="0.2" d="M 896.389526 17.534302 C 849.597961 4.315674 726.373047 -6.129272 607.80542 57.840332 C 580.383667 71.708984 516.267944 112.318481 479.182465 163.806152"/>
    </g>
</svg>
