<?xml version="1.0" encoding="UTF-8"?>
<!-- Generated by Pixelmator Pro 3.3.2 -->
<svg width="1100" height="1300" viewBox="0 0 1100 1300" xmlns="http://www.w3.org/2000/svg" xmlns:xlink="http://www.w3.org/1999/xlink">
    <g id="hex">
        <linearGradient id="linearGradient1" x1="104.704768" y1="760.768759" x2="838.098171" y2="247.07108" gradientUnits="userSpaceOnUse">
            <stop offset="1e-05" stop-color="#570d70" stop-opacity="1"/>
            <stop offset="0.904505" stop-color="#b10ec1" stop-opacity="1"/>
        </linearGradient>
        <path id="Path" fill="url(#linearGradient1)" stroke="none" d="M 891.774536 219.458252 L 524.922668 10.767822 C 512.035217 3.701416 497.603943 0 482.94104 0 C 468.276306 0 453.844971 3.701416 440.95932 10.767822 L 72.814522 219.458252 C 59.524368 227.02124 48.457722 238.008301 40.742699 251.296387 C 33.027493 264.586426 28.939598 279.703308 28.895489 295.106873 L 28.895489 711.181763 C 28.776209 726.620239 32.795734 741.801453 40.527664 755.120789 C 48.259594 768.438354 59.415928 779.396057 72.814522 786.832214 L 439.667267 994.217285 C 452.529022 1002.031982 467.283813 1006.093872 482.294067 1005.955994 C 497.282257 1005.919312 511.99115 1001.868469 524.922668 994.217285 L 891.774536 786.832214 C 905.064514 779.269226 916.132446 768.282166 923.84613 754.992188 C 931.561707 741.704041 935.649231 726.587158 935.69342 711.181763 L 935.69342 295.106873 C 936.073853 279.618774 932.16272 264.332764 924.403076 250.967529 C 916.645203 237.602051 905.343872 226.688599 891.774536 219.458252 Z"/>
    </g>
</svg>
