<svg width="36" height="36" viewBox="0 0 36 36" xmlns="http://www.w3.org/2000/svg" xmlns:xlink="http://www.w3.org/1999/xlink"><defs><path id="a" d="M35.2 35.2V0H0v35.2z"/></defs><g fill="none" fill-rule="evenodd" opacity=".8"><mask id="b" fill="#fff"><use xlink:href="#a"/></mask><path d="M20.16 17.922l6 6c.16.156.238.398.238.56 0 .16-.078.397-.238.557l-1.12 1.12c-.16.16-.4.24-.56.24-.242 0-.402-.08-.558-.24l-6-6c-.16-.16-.402-.16-.563 0l-6 6c-.16.16-.4.24-.56.24-.24 0-.402-.08-.562-.24L9.12 25.04c-.16-.16-.24-.4-.24-.56 0-.16.08-.402.24-.558l6-6c.16-.16.16-.402 0-.562l-6-6c-.16-.16-.24-.4-.24-.56 0-.16.08-.402.24-.562L10.24 9.12c.16-.16.403-.24.563-.24.16 0 .4.08.56.24l6 6c.16.16.402.16.562 0l6-6c.156-.16.398-.24.558-.24.24 0 .4.08.56.24l1.12 1.118c.16.16.238.403.238.563 0 .16-.078.4-.238.56l-6 6c-.16.082-.16.402 0 .562M17.602 0C7.84 0 0 7.84 0 17.602 0 27.36 7.84 35.2 17.602 35.2 27.36 35.2 35.2 27.36 35.2 17.6 35.2 7.84 27.36 0 17.6 0" fill="#FEFEFE" mask="url(#b)"/></g></svg>
