<svg width="69" height="60" viewBox="0 0 69 60" fill="none" xmlns="http://www.w3.org/2000/svg"><path d="M37.976 33.733h26.627c2.183 0 3.93 1.73 3.93 3.892V55.48c0 2.162-1.747 3.892-3.93 3.892H37.977c-2.182 0-3.928-1.73-3.928-3.892V37.625c0-2.162 1.746-3.892 3.928-3.892Z" fill="#fff"/><path d="M22.325 59.372H9.79c-5.425 0-9.79-4.386-9.79-9.7V9.7C0 4.325 4.427 0 9.79 0h48.952c5.425 0 9.79 4.386 9.79 9.7v12.418c0 2.162-1.745 3.892-3.928 3.892s-3.929-1.73-3.929-3.892V9.7c0-1.05-.873-1.916-1.933-1.916H9.728c-1.06 0-1.933.865-1.933 1.916v39.972c0 1.05.873 1.916 1.933 1.916h12.534c2.183 0 3.929 1.73 3.929 3.892s-1.746 3.892-3.866 3.892Z" fill="#fff"/><path d="M27.687 29.532c-.623 0-1.185-.247-1.684-.68l-12.596-12.48c-.935-.927-.935-2.41 0-3.274.935-.927 2.432-.927 3.305 0l12.596 12.48c.936.926.936 2.41 0 3.274-.436.433-.997.68-1.62.68Z" fill="#fff"/><path d="M28.061 29.902H17.897c-1.31 0-2.37-1.05-2.37-2.347a2.358 2.358 0 0 1 2.37-2.348h7.857v-7.785a2.358 2.358 0 0 1 2.37-2.347c1.31 0 2.37 1.05 2.37 2.347v10.07c-.063 1.422-1.123 2.41-2.433 2.41Z" fill="#fff"/></svg>
