<?xml version="1.0" encoding="utf-8"?>
<svg width="65" height="65" viewBox="0 0 65 65" xmlns="http://www.w3.org/2000/svg" xmlns:bx="https://boxy-svg.com">
  <path class="st0" d="M 32.5 0 C 50.4 0 64.9 14.5 64.9 32.4 C 64.9 50.3 50.2 64.8 32.5 64.8 C 14.5 64.8 0 50.2 0 32.4 C 0 14.6 14.5 0 32.5 0 Z M 32.5 2.8 C 16 2.8 2.8 16 2.8 32.4 C 2.8 48.8 16 62 32.5 62 C 49 62 62 48.7 62 32.4 C 62 16.1 48.8 2.8 32.5 2.8 Z" style="fill: rgb(128, 0, 215);" bx:origin="0.499784 0.5"/>
  <path class="st1" d="M 46.8 24.3 C 45.1 20.8 42.3 19 38.5 18.7 C 36.4 18.5 34.6 19.1 32.8 20.3 C 32.8 20.3 32.7 20.3 32.7 20.4 C 32.6 20.4 32.5 20.5 32.4 20.5 C 32.3 20.5 32.2 20.5 32.1 20.4 C 32.1 20.4 32 20.4 32 20.3 C 30.3 19.1 28.4 18.5 26.3 18.7 C 22.5 18.9 19.7 20.8 18 24.3 C 17.1 26.3 16.9 28.3 17.3 30.4 C 17.8 32.4 18.9 34 20.2 35.5 C 23.5 38.8 26.8 42 30.1 45.3 C 30.7 45.9 31.3 46.2 32 46.3 L 32 46.3 C 32.1 46.3 32.2 46.3 32.3 46.3 C 32.4 46.3 32.5 46.3 32.6 46.3 L 32.6 46.3 C 33.3 46.2 33.9 45.9 34.5 45.3 C 37.8 42 41.1 38.8 44.4 35.5 C 45.8 34 46.8 32.4 47.3 30.4 C 47.8 28.3 47.7 26.2 46.8 24.3 Z M 42.6 32.8 C 39.3 36.2 35.9 39.4 32.6 42.8 C 32.5 42.9 32.5 42.9 32.4 43 C 32.3 43 32.3 42.9 32.2 42.8 C 28.9 39.4 25.5 36.2 22.2 32.8 C 20.2 30.7 19.5 28.3 20.6 25.6 C 21.4 23.3 23.3 21.8 25.7 21.4 C 28 21 31.5 23.2 32.4 23.9 C 33.7 22.7 36.8 21 39.1 21.4 C 41.5 21.9 43.3 23.3 44.2 25.6 C 45.3 28.3 44.6 30.8 42.6 32.8 Z" style="fill: rgb(128, 0, 215);" bx:origin="0.502772 0.497067"/>
</svg>