<svg xmlns="http://www.w3.org/2000/svg" width="1080" height="854" fill="none"><g clip-path="url(#a)"><mask id="b" width="1080" height="1080" x="0" y="-87" maskUnits="userSpaceOnUse" style="mask-type:luminance"><path fill="#fff" d="M1080-87H0V993h1080V-87Z"/></mask><g mask="url(#b)"><path fill="#28733F" d="M919 206.25c-16.933-25.333-36.817-49.417-59.65-72.25C771.183 45.667 664.75 1.5 540.05 1.5 415.317 1.5 308.967 45.667 221 134 132.667 221.967 88.5 328.317 88.5 453.05c0 124.7 44.167 231.133 132.5 319.3 87.967 88.133 194.317 132.2 319.05 132.2 124.7 0 231.133-44.067 319.3-132.2 22.833-22.833 42.717-46.933 59.65-72.3 48.367-72.233 72.55-154.567 72.55-247 0-92.433-24.183-174.7-72.55-246.8Z"/><path fill="#022611" d="M549.85 248H378.8v239.45h171.05V248Zm362.85 98.05v143.4h114.7v-143.4H912.7Z"/><path fill="#161616" d="M469.3 206.6c0-1.367-.5-2.55-1.5-3.55-.967-.967-2.134-1.45-3.5-1.45-1.367 0-2.55.483-3.55 1.45-.967 1-1.45 2.183-1.45 3.55s.483 2.533 1.45 3.5c1 1 2.183 1.5 3.55 1.5 1.366 0 2.533-.5 3.5-1.5 1-.967 1.5-2.133 1.5-3.5Zm497.15 102.85c-.967 1-1.45 2.183-1.45 3.55s.483 2.533 1.45 3.5c1 1 2.183 1.5 3.55 1.5 1.366 0 2.533-.5 3.5-1.5 1-.967 1.5-2.133 1.5-3.5s-.5-2.55-1.5-3.55c-.967-.967-2.134-1.45-3.5-1.45-1.367 0-2.55.483-3.55 1.45Z"/><path stroke="#161616" stroke-linecap="round" stroke-linejoin="round" stroke-width="5" d="M1027.4 346.05v143.4H912.7v-143.4m114.7 0-57.35-43-57.35 43m114.7 0H912.7M378.8 248l85.55-51.3 85.5 51.3m-171.05 0v239.45h171.05V248m-171.05 0h171.05"/><path fill="#D6FFCD" d="M890 503V43H570v460h320Z"/><path stroke="#161616" stroke-linecap="round" stroke-linejoin="round" stroke-width="5" d="M570 43h320v460H570V43Z"/><mask id="c" width="316" height="456" x="572" y="45" maskUnits="userSpaceOnUse" style="mask-type:luminance"><path fill="#fff" d="M887.5 46a.475.475 0 0 0-.15-.35.477.477 0 0 0-.35-.15H573a.477.477 0 0 0-.35.15.475.475 0 0 0-.15.35v454a.477.477 0 0 0 .15.35.477.477 0 0 0 .35.15h314a.477.477 0 0 0 .35-.15.477.477 0 0 0 .15-.35V46Z"/></mask><g mask="url(#c)"><path fill="#161616" d="M726.65 359.25V213H640v146.25h86.65ZM920 284.9H807.6v224.35H920V284.9Z"/><path stroke="#161616" stroke-linecap="round" stroke-linejoin="round" stroke-width="5" d="M807.6 284.9H920v224.35H807.6V284.9ZM640 213h86.65v146.25H640V213Z"/></g><mask id="d" width="316" height="456" x="572" y="45" maskUnits="userSpaceOnUse" style="mask-type:luminance"><path fill="#fff" d="M887.5 46a.475.475 0 0 0-.15-.35.477.477 0 0 0-.35-.15H573a.477.477 0 0 0-.35.15.475.475 0 0 0-.15.35v454a.477.477 0 0 0 .15.35.477.477 0 0 0 .35.15h314a.477.477 0 0 0 .35-.15.477.477 0 0 0 .15-.35V46Z"/></mask><g mask="url(#d)"><path fill="#FFF1F8" d="M716.85 275.2c3.567 3.567 7.867 5.35 12.9 5.35h68.5c5.033 0 9.333-1.783 12.9-5.35 3.567-3.567 5.35-7.867 5.35-12.9v-.05c0-5.033-1.783-9.333-5.35-12.9-3.567-3.567-7.867-5.35-12.9-5.35h-68.5c-5.033 0-9.333 1.783-12.9 5.35-3.567 3.567-5.35 7.867-5.35 12.9v.05c0 5.033 1.783 9.333 5.35 12.9Z"/><path stroke="#161616" stroke-linecap="round" stroke-linejoin="round" stroke-width="5" d="M729.75 244h68.5c5.033 0 9.333 1.783 12.9 5.35 3.567 3.567 5.35 7.867 5.35 12.9v.05c0 5.033-1.783 9.333-5.35 12.9-3.567 3.567-7.867 5.35-12.9 5.35h-68.5c-5.033 0-9.333-1.783-12.9-5.35-3.567-3.567-5.35-7.867-5.35-12.9v-.05c0-5.033 1.783-9.333 5.35-12.9 3.567-3.567 7.867-5.35 12.9-5.35Z"/></g><mask id="e" width="316" height="456" x="572" y="45" maskUnits="userSpaceOnUse" style="mask-type:luminance"><path fill="#fff" d="M887.5 46a.475.475 0 0 0-.15-.35.477.477 0 0 0-.35-.15H573a.477.477 0 0 0-.35.15.475.475 0 0 0-.15.35v454a.477.477 0 0 0 .15.35.477.477 0 0 0 .35.15h314a.477.477 0 0 0 .35-.15.477.477 0 0 0 .15-.35V46Z"/></mask><g mask="url(#e)"><path fill="#FF97E2" d="M832.4 225.8 807.6 60.25 782.85 225.8 748.5 455.7v89.4h118.25v-89.4L832.4 225.8Z"/><path fill="#AE49EC" d="M866.75 225.8H832.4l34.35 229.9V225.8Zm-83.9 0H748.5v229.9l34.35-229.9Z"/><path stroke="#161616" stroke-linecap="round" stroke-linejoin="round" stroke-width="5" d="M795.8 225.8v11.8m0 23.65v11.85m-11.85 11.8v11.85m23.65-11.85v11.85M748.5 455.7V225.8h34.35M748.5 455.7v89.4h118.25v-89.4m-118.25 0 34.35-229.9m0 0L807.6 60.25l24.8 165.55m0 0h34.35v229.9M832.4 225.8l34.35 229.9M807.6 249.45v11.8m0-59.1v11.8m11.85 11.85v11.8m0 23.65v11.85m11.85 11.8v11.85m0 35.5v11.8m0 35.5v11.8m11.8-35.45v11.8m-23.65-11.8v11.8m35.5 59.15v11.8m-23.65-11.8v11.8m11.8-35.45V415m-23.65-11.8V415m-35.5-82.75v11.8m23.65-11.8v11.8m-23.65 35.5v11.8m23.65-11.8v11.8m-11.8-35.45v11.8m-23.65-11.8v11.8m11.8 59.15v11.8m23.65-11.8v11.8m-47.3-11.8v11.8m35.5-35.45V415m-23.65-11.8V415m23.65-106.4v11.8m23.65-11.8v11.8"/></g><mask id="f" width="316" height="456" x="572" y="45" maskUnits="userSpaceOnUse" style="mask-type:luminance"><path fill="#fff" d="M887.5 46a.475.475 0 0 0-.15-.35.477.477 0 0 0-.35-.15H573a.477.477 0 0 0-.35.15.475.475 0 0 0-.15.35v454a.477.477 0 0 0 .15.35.477.477 0 0 0 .35.15h314a.477.477 0 0 0 .35-.15.477.477 0 0 0 .15-.35V46Z"/></mask><g mask="url(#f)"><path fill="#FF97E2" d="M700 523V179.7H550V523h150Z"/><path stroke="#161616" stroke-linecap="round" stroke-linejoin="round" stroke-width="5" d="M550 179.7h150V523H550V179.7Z"/></g><mask id="g" width="316" height="456" x="572" y="45" maskUnits="userSpaceOnUse" style="mask-type:luminance"><path fill="#fff" d="M887.5 46a.475.475 0 0 0-.15-.35.477.477 0 0 0-.35-.15H573a.477.477 0 0 0-.35.15.475.475 0 0 0-.15.35v454a.477.477 0 0 0 .15.35.477.477 0 0 0 .35.15h314a.477.477 0 0 0 .35-.15.477.477 0 0 0 .15-.35V46Z"/></mask><g mask="url(#g)"><path fill="#E7E5E2" d="M800 297.2H670v240h130v-240Z"/><path stroke="#161616" stroke-linecap="round" stroke-linejoin="round" stroke-width="5" d="M670 297.2h130v240H670v-240Z"/></g><mask id="h" width="316" height="456" x="572" y="45" maskUnits="userSpaceOnUse" style="mask-type:luminance"><path fill="#fff" d="M887.5 46a.475.475 0 0 0-.15-.35.477.477 0 0 0-.35-.15H573a.477.477 0 0 0-.35.15.475.475 0 0 0-.15.35v454a.477.477 0 0 0 .15.35.477.477 0 0 0 .35.15h314a.477.477 0 0 0 .35-.15.477.477 0 0 0 .15-.35V46Z"/></mask><g mask="url(#h)"><path fill="#FFF1F8" d="M723.8 88.65c-4.4-4.4-9.7-6.6-15.9-6.6h-79.4c-6.2 0-11.5 2.2-15.9 6.6-4.4 4.4-6.6 9.7-6.6 15.9 0 2.666.417 5.166 1.25 7.5H512.9c-6.2 0-11.5 2.2-15.9 6.6-4.4 4.4-6.6 9.7-6.6 15.9 0 6.2 2.2 11.5 6.6 15.9 4.4 4.4 9.7 6.6 15.9 6.6h150c6.2 0 11.5-2.2 15.9-6.6 4.4-4.4 6.6-9.7 6.6-15.9 0-2.667-.4-5.167-1.2-7.5h23.7c6.2 0 11.5-2.2 15.9-6.6 4.4-4.4 6.6-9.7 6.6-15.9 0-6.2-2.2-11.5-6.6-15.9Zm273.95 52.15c-6.133-6.133-13.55-9.2-22.25-9.2h-33.9c5.567-.133 10.317-2.183 14.25-6.15 4.1-4.067 6.15-9 6.15-14.8v-.05c0-5.8-2.05-10.75-6.15-14.85-4.067-4.067-9-6.1-14.8-6.1H858.9c-5.8 0-10.75 2.033-14.85 6.1-4.067 4.1-6.1 9.05-6.1 14.85v.05c0 5.8 2.033 10.733 6.1 14.8 3.967 3.967 8.733 6.017 14.3 6.15H783.5c-8.7 0-16.133 3.067-22.3 9.2-6.133 6.167-9.2 13.6-9.2 22.3v.05c0 8.7 3.067 16.117 9.2 22.25 6.167 6.167 13.6 9.25 22.3 9.25h192c8.7 0 16.117-3.083 22.25-9.25 5.83-5.802 8.9-12.752 9.2-20.85.03-.463.05-.93.05-1.4v-.05c0-8.7-3.08-16.133-9.25-22.3Z"/><path stroke="#161616" stroke-linecap="round" stroke-linejoin="round" stroke-width="5" d="M975.5 194.65h-192c-8.7 0-16.133-3.084-22.3-9.25-6.133-6.134-9.2-13.55-9.2-22.25v-.05c0-8.7 3.067-16.134 9.2-22.3 6.167-6.134 13.6-9.2 22.3-9.2h74.85c-5.567-.134-10.333-2.184-14.3-6.15-4.067-4.067-6.1-9-6.1-14.8v-.05c0-5.8 2.033-10.75 6.1-14.85 4.1-4.067 9.05-6.1 14.85-6.1h82.15c5.8 0 10.733 2.033 14.8 6.1 4.1 4.1 6.15 9.05 6.15 14.85v.05c0 5.8-2.05 10.733-6.15 14.8-3.933 3.966-8.683 6.016-14.25 6.15h33.9c8.7 0 16.117 3.066 22.25 9.2 6.17 6.166 9.25 13.6 9.25 22.3v.05m-.03 1.4c.02 8.7-3.05 16.116-9.22 22.25-6.133 6.166-13.55 9.25-22.25 9.25m-462.6-84h94.35c-.833-2.334-1.25-4.834-1.25-7.5 0-6.2 2.2-11.5 6.6-15.9 4.4-4.4 9.7-6.6 15.9-6.6h79.4c6.2 0 11.5 2.2 15.9 6.6 4.4 4.4 6.6 9.7 6.6 15.9 0 6.2-2.2 11.5-6.6 15.9-4.4 4.4-9.7 6.6-15.9 6.6h-23.7c.8 2.333 1.2 4.833 1.2 7.5 0 6.2-2.2 11.5-6.6 15.9-4.4 4.4-9.7 6.6-15.9 6.6h-150c-6.2 0-11.5-2.2-15.9-6.6-4.4-4.4-6.6-9.7-6.6-15.9 0-6.2 2.2-11.5 6.6-15.9 4.4-4.4 9.7-6.6 15.9-6.6Z"/></g><path fill="#959595" d="M890 402.4v-20H572.5v20H890Z"/><path stroke="#161616" stroke-linecap="round" stroke-linejoin="round" stroke-width="5" d="M730 382.4H572.5v20H890v-20H730Zm0 0V45.5"/><path stroke="#fff" stroke-linecap="round" stroke-linejoin="round" stroke-width="5" d="M820.325 224.25 869.6 153m-6.45-36.65 11.05-16M768.65 253l72.55-104.85M745.15 333l49.075-71M583.4 343l37-53.5M606.9 263l72.55-104.85m-32.95 93.6L707.85 163"/><mask id="i" width="1074" height="1074" x="3" y="-84" maskUnits="userSpaceOnUse" style="mask-type:luminance"><path fill="#fff" d="M1076.15 453.05c0-148.1-52.38-274.516-157.15-379.25C814.467-30.767 688.15-83.05 540.05-83.05S265.534-30.767 160.8 73.8C56.233 178.534 3.95 304.95 3.95 453.05S56.233 727.467 160.8 832c104.734 104.77 231.15 157.15 379.25 157.15S814.467 936.77 919 832c104.77-104.533 157.15-230.85 157.15-378.95Z"/></mask><g mask="url(#i)"><path fill="#D6FFCD" d="M1190 863V555.55H-120V863h1310Z"/><path stroke="#161616" stroke-linecap="round" stroke-linejoin="round" stroke-width="5" d="M1220 555.55h-30m0 0V863m0-307.45V503m0 52.55H-120M1190 863h20m-20 0v40m0-40H-120m1310 40v120m0-120H-120m1310 120h50m-50 0H-120m0-120v120m0-120v-40m0 160v10m0-10h-70m20-467.45h50m0 0V533m0 22.55V863"/></g><mask id="j" width="1074" height="1074" x="3" y="-84" maskUnits="userSpaceOnUse" style="mask-type:luminance"><path fill="#fff" d="M1076.15 453.05c0-148.1-52.38-274.516-157.15-379.25C814.467-30.767 688.15-83.05 540.05-83.05S265.534-30.767 160.8 73.8C56.233 178.534 3.95 304.95 3.95 453.05S56.233 727.467 160.8 832c104.734 104.77 231.15 157.15 379.25 157.15S814.467 936.77 919 832c104.77-104.533 157.15-230.85 157.15-378.95Z"/></mask><g mask="url(#j)"><path fill="#00D230" d="M237.35 278.9C234.783 208.067 225 155.034 208 119.8c-17 35.234-26.783 88.267-29.35 159.1-20.767-39.9-41.65-69.566-62.65-89-2.4 32.167 4.183 73.784 19.75 124.85C103.017 287.684 73.767 269.4 48 259.9c11.433 34.667 38.117 76.117 80.05 124.35H288c41.9-48.233 68.567-89.683 80-124.35-25.767 9.5-55.017 27.784-87.75 54.85 15.567-51.066 22.15-92.683 19.75-124.85-21 19.434-41.883 49.1-62.65 89Z"/><path stroke="#161616" stroke-linecap="round" stroke-linejoin="round" stroke-width="5" d="m160.05 303.1-28-71.95m123.9 71.95 28-71.95m-46.6 47.75C234.783 208.067 225 155.034 208 119.8c-17 35.234-26.783 88.267-29.35 159.1m58.7 0c20.767-39.9 41.65-69.566 62.65-89 2.4 32.167-4.183 73.784-19.75 124.85m-42.9-35.85c.367 9.934.583 20.234.65 30.9m-59.35-30.9c-.367 9.934-.583 20.234-.65 30.9m.65-30.9C157.883 239 137 209.334 116 189.9c-2.4 32.167 4.183 73.784 19.75 124.85m144.5 0c32.733-27.066 61.983-45.35 87.75-54.85-11.433 34.667-38.1 76.117-80 124.35H128.05C86.117 336.017 59.433 294.567 48 259.9c25.767 9.5 55.017 27.784 87.75 54.85m144.5 0a752.169 752.169 0 0 1-5 15.65M208 301.35V157.7m-72.25 157.05a752.169 752.169 0 0 0 5 15.65m102.7 4.9 6-15.5M208 335.4v-17.25m-35.45 17.15-6-15.5m-57.4 6.7-39.4-42.95m237.1 42.95 39.4-42.95"/><path fill="#FF97E2" d="M277.8 569.9h2.85l19.9-130.1h-180.5l19.9 130.1H277.8Zm24.5-141.6h5.4c7.466 0 13.833-2.65 19.1-7.95 5.3-5.266 7.95-11.633 7.95-19.1V379.6c0-7.466-2.65-13.85-7.95-19.15-5.267-5.266-11.634-7.9-19.1-7.9H111.35c-7.467 0-13.85 2.634-19.15 7.9-5.267 5.3-7.9 11.684-7.9 19.15v21.65c0 7.467 2.633 13.834 7.9 19.1 5.3 5.3 11.683 7.95 19.15 7.95H302.3Z"/><path fill="#161616" d="m300.55 439.8 1.75-11.5h-184l1.75 11.5h180.5Z"/><path stroke="#161616" stroke-linecap="round" stroke-linejoin="round" stroke-width="5" d="M118.3 428.3h-6.95c-7.467 0-13.85-2.65-19.15-7.95-5.267-5.266-7.9-11.633-7.9-19.1V379.6c0-7.466 2.633-13.85 7.9-19.15 5.3-5.266 11.683-7.9 19.15-7.9H307.7c7.466 0 13.833 2.634 19.1 7.9 5.3 5.3 7.95 11.684 7.95 19.15v21.65c0 7.467-2.65 13.834-7.95 19.1-5.267 5.3-11.634 7.95-19.1 7.95h-5.4m-184 0 1.75 11.5m-1.75-11.5h184m0 0-1.75 11.5m0 0-19.9 130.1m19.9-130.1h-180.5M277.8 569.9H139.95l-19.9-130.1"/></g><mask id="k" width="1074" height="1074" x="3" y="-84" maskUnits="userSpaceOnUse" style="mask-type:luminance"><path fill="#fff" d="M1076.15 453.05c0-148.1-52.38-274.516-157.15-379.25C814.467-30.767 688.15-83.05 540.05-83.05S265.534-30.767 160.8 73.8C56.233 178.534 3.95 304.95 3.95 453.05S56.233 727.467 160.8 832c104.734 104.77 231.15 157.15 379.25 157.15S814.467 936.77 919 832c104.77-104.533 157.15-230.85 157.15-378.95Z"/></mask><g mask="url(#k)"><path fill="#FDA343" d="M511.05 475.25c-5.233-3.733-8.95-8.3-11.15-13.7-5.033 6.3-9.783 14.2-14.25 23.7a6.357 6.357 0 0 0-.2.6c-.2.4-.366.8-.5 1.2-1.7 4.3-1.05 8.983 1.95 14.05 2.833 4.633 7.267 7.633 13.3 9 5.334 1.2 9.967.45 13.9-2.25 2.533-1.933 4.634-4.95 6.3-9.05a15.44 15.44 0 0 0 .6-1.6c1.433-4.133 2.567-7.266 3.4-9.4.8-2.066 1.9-4.183 3.3-6.35-5.966-.4-11.517-2.466-16.65-6.2Zm34.25-37.4c-.667-.233-1.35-.4-2.05-.5-1.433-.267-3.133-.383-5.1-.35-2.266.334-4.016.55-5.25.65a50.284 50.284 0 0 0-11.25 4.5c.934 5.467 2.7 9.867 5.3 13.2 3.934 4.8 8.45 7.2 13.55 7.2l1.1.65c1.467-1.9 2.7-3.517 3.7-4.85v-20.5Z"/><path fill="#fff" d="M499.9 461.55c2.2 5.4 5.917 9.967 11.15 13.7 5.133 3.734 10.683 5.8 16.65 6.2a.762.762 0 0 1 .25-.3c1.967-3.2 4.45-6.666 7.45-10.4 2.3-2.933 4.367-5.45 6.2-7.55l-1.1-.65c-5.1 0-9.617-2.4-13.55-7.2-2.6-3.333-4.367-7.733-5.3-13.2-7.233 3.967-13.867 9.617-19.9 16.95-.633.834-1.25 1.65-1.85 2.45Zm-365 112.15.95 13.15-11.5 3.6 27.8 34.9-18.3 11.55 3.1 4 14.55 19.95v1.9h.55c8.733-.7 17.317-2.016 25.75-3.95 1.633.267 3.2.567 4.7.9 6.333.867 11.867 1.117 16.6.75 4.833-.5 8.8-1.783 11.9-3.85 3.733-2.4 6.25-5.85 7.55-10.35.967-3.266 1.333-7 1.1-11.2l-5.75-4.8-19.1 2.25c.833-9.4 5.533-16.366 14.1-20.9l5 18.65 5.75 4.8c7.433-1.6 12.883-4.533 16.35-8.8-.533-.466-.4-1.2.4-2.2 1.3-1.733 2-2.7 2.1-2.9 1.133-3.633 1.083-7.8-.15-12.5-1.067-4.566-3.15-9.566-6.25-15a35.222 35.222 0 0 0-2.5-4.15c-3.333-8.633-7.517-16.416-12.55-23.35-.8-1.1-1.533-2.116-2.2-3.05l1 1.6 1.05 1.65h-.05l-8.65 5.4-10.3-2.3-3.1-.55-5.5 6.5-54.4-1.7Zm148.3-80.3c-4.433-3.333-11.633-9.483-21.6-18.45-5.233-4.5-10.217-8.35-14.95-11.55-1.233 0-2.383.067-3.45.2-29.1 1.434-53.967 9.85-74.6 25.25-7.867 5.867-15.167 12.767-21.9 20.7 6.033 5.267 12.283 11.567 18.75 18.9 13.139 4.949 24.539 11.382 34.2 19.3a99.928 99.928 0 0 1 15.2 15.35c.667.934 1.4 1.95 2.2 3.05 5.033 6.934 9.217 14.717 12.55 23.35a35.222 35.222 0 0 1 2.5 4.15c3.1 5.434 5.183 10.434 6.25 15 1.233 4.7 1.283 8.867.15 12.5-.1.2-.8 1.167-2.1 2.9-.8 1-.933 1.734-.4 2.2 5.5 4.934 8.433 9.767 8.8 14.5.1 1.134.067 2.3-.1 3.5 6.8-.397 12.866-.73 18.2-1 6.769-.292 12.37-.475 16.8-.55 20.767-.066 39.15 1.55 55.15 4.85 7.333 1.634 12.417 2.65 15.25 3.05 5.733.9 10.8 1 15.2.3 1.367-.2 2.667-.466 3.9-.8 0-.066.017-.1.05-.1 8.567 18.3 14.817 31.217 18.75 38.75 7.633 14.6 15.433 27.034 23.4 37.3 6.133 7.9 11.833 13.45 17.1 16.65 5.433 3.1 10.6 4.75 15.5 4.95h1.55c2.2 0 4.317-.3 6.35-.9 3.9-1.3 7.167-3.616 9.8-6.95.3-.266.567-.6.8-1l.15-.1c2.9-4.3 4.083-8.25 3.55-11.85-1-8.9-4.433-18.616-10.3-29.15-7.5-11.966-13.117-21.033-16.85-27.2-7.567-12.066-15.867-26.883-24.9-44.45v-.1l2.1-1c22.767-.4 47.267-3.583 73.5-9.55 14.333-3.333 32.667-7.9 55-13.7.167-.033.35-.066.55-.1v-94.55a380.831 380.831 0 0 0-24.3-9.85 15.671 15.671 0 0 1-.6 1.6c-1.667 4.1-3.767 7.117-6.3 9.05-3.933 2.7-8.567 3.45-13.9 2.25-6.033-1.366-10.467-4.366-13.3-9-3-5.066-3.65-9.75-1.95-14.05.133-.4.3-.8.5-1.2-18.667-5.233-38.467-9.633-59.4-13.2h-.3c5.433 5.467 9.567 11.334 12.4 17.6 3.133 6.9 4.433 13.784 3.9 20.65-.467 8.167-3.383 14.217-8.75 18.15-4.633 3.6-10.933 4.967-18.9 4.1-6.633-.8-15.017-4.133-25.15-10-11.8-6.666-20.25-10.75-25.35-12.25-6-1.8-15.233-2.65-27.7-2.55-12.667 0-22.083-.816-28.25-2.45-7.933-2.1-16.183-6.266-24.75-12.5Z"/><path fill="#161616" d="M241.35 652.1a14.466 14.466 0 0 1-5.55 5.4l27.1-14.25c-5.334.269-11.401.603-18.2 1-.5 2.4-1.617 5.017-3.35 7.85Zm-42.25 8.35a74.072 74.072 0 0 0-1.35 6.7L230 659.5a9.614 9.614 0 0 1-1 .2c-5.733.767-11.733-.267-18-3.1-3.1 2.067-7.067 3.35-11.9 3.85Zm0 0c-4.733.367-10.267.117-16.6-.75a72.474 72.474 0 0 0-3.7 10.05c2.942.16 5.659.143 8.15-.05l10.8-2.55c.338-2.21.788-4.443 1.35-6.7Zm-110.5 7.6c9.9 2.167 19.65 3.533 29.25 4.1 7.233.4 14.4.35 21.5-.15h.55c8.733-.7 17.317-2.017 25.75-3.95 6.134 1.011 10.517 1.577 13.15 1.7a72.474 72.474 0 0 1 3.7-10.05 84.957 84.957 0 0 0-4.7-.9 179.175 179.175 0 0 1-25.75 3.95h-.55c-7.089.501-14.256.535-21.5.1-9.614-.533-19.364-1.883-29.25-4.05a203.32 203.32 0 0 1-8.4-2.35l-12.1 9.25c2.7.833 5.483 1.617 8.35 2.35Z"/><path fill="#FFF1F8" d="M219.65 635.05c.233 4.2-.133 7.933-1.1 11.2-1.3 4.5-3.817 7.95-7.55 10.35 6.267 2.833 12.267 3.867 18 3.1a9.562 9.562 0 0 0 1-.2c2.195-.39 4.128-1.057 5.8-2a14.466 14.466 0 0 0 5.55-5.4c1.733-2.833 2.85-5.45 3.35-7.85.167-1.2.2-2.367.1-3.5-.367-4.733-3.3-9.567-8.8-14.5-3.467 4.267-8.917 7.2-16.35 8.8Zm-100.75-81.1-2.15-2.35c-14.262 12.045-22.346 27.228-24.25 45.55-30.133 1.8-49.517 8.384-58.15 19.75 10.373 17.765 29.706 30.948 58 39.55a203.32 203.32 0 0 0 8.4 2.35c9.886 2.167 19.636 3.517 29.25 4.05 7.244.435 14.411.401 21.5-.1v-1.9l-14.55-19.95c-.845.162-1.695.295-2.55.4l-.55-4.4 18.3-11.55-27.8-34.9 11.5-3.6-.95-13.15 54.4 1.7 5.5-6.5 3.1.55 10.3 2.3 8.65-5.4h.05l-1.05-1.65-1-1.6a99.883 99.883 0 0 0-15.2-15.35c-9.661-7.918-21.061-14.352-34.2-19.3-6.467-7.333-12.717-13.633-18.75-18.9-13.1-11.4-25.333-18.133-36.7-20.2-5.8 19-3.333 39.567 7.4 61.7.5.9 1 1.867 1.5 2.9Zm142.7-79c9.967 8.967 17.167 15.117 21.6 18.45 8.567 6.234 16.817 10.4 24.75 12.5 6.167 1.634 15.583 2.45 28.25 2.45 12.467-.1 21.7.75 27.7 2.55 5.1 1.5 13.55 5.584 25.35 12.25 10.133 5.867 18.517 9.2 25.15 10 7.967.867 14.267-.5 18.9-4.1 5.367-3.933 8.283-9.983 8.75-18.15.533-6.866-.767-13.75-3.9-20.65-2.833-6.267-6.967-12.133-12.4-17.6-54.633-9.2-114.333-12.283-179.1-9.25 4.733 3.2 9.717 7.05 14.95 11.55Z"/><path fill="#FF97E2" d="m213.9 630.25-5-18.65c-8.567 4.534-13.267 11.5-14.1 20.9l19.1-2.25Zm-79.5 11.05a38.393 38.393 0 0 0 2.55-.4l-3.1-4 .55 4.4Zm-17.65-89.7 2.15 2.35c-.5-1.033-1-2-1.5-2.9-.219.182-.436.365-.65.55Z"/><path stroke="#201439" stroke-linecap="round" stroke-linejoin="round" stroke-width="5" d="M146.7 509.55c6.733-7.933 14.033-14.833 21.9-20.7 20.633-15.4 45.5-23.817 74.6-25.25 1.067-.133 2.217-.2 3.45-.2 64.767-3.033 124.467.05 179.1 9.25h.3c20.933 3.567 40.733 7.967 59.4 13.2m-338.75 23.7c6.033 5.267 12.283 11.567 18.75 18.9 13.139 4.949 24.548 11.382 34.225 19.3a100.488 100.488 0 0 1 15.175 15.35c.667.933 1.4 1.95 2.2 3.05 5.033 6.934 9.217 14.717 12.55 23.35a35.222 35.222 0 0 1 2.5 4.15m-85.4-84.1c-13.1-11.4-25.333-18.133-36.7-20.2-5.8 19-3.333 39.567 7.4 61.7.5.9 1 1.867 1.5 2.9 1 1.867 2.05 3.833 3.15 5.9m110.05 33.8c10.1-5.833 21.85-9.2 35.25-10.1m-35.25 10.1c-4 2.267-7.75 4.884-11.25 7.85m11.25-7.85c3.1 5.434 5.183 10.434 6.25 15m-133.8-11.95c-4.1.1-8.117.25-12.05.45-30.133 1.8-49.517 8.384-58.15 19.75 10.373 17.765 29.715 30.949 58.025 39.55 2.707.827 5.5 1.61 8.375 2.35 9.886 2.167 19.636 3.526 29.25 4.075 7.244.418 14.411.376 21.5-.125h.55c8.733-.7 17.317-2.016 25.75-3.95 1.633.267 3.2.567 4.7.9m15.85-110.45c.633 3.067.983 5.984 1.05 8.75.1 4.134-.4 7.95-1.5 11.45-2.6 8.4-8.383 15.117-17.35 20.15m-18.65 30.35c-4.8 10.667-12.083 17.4-21.85 20.2-1 .3-2.033.55-3.1.75-.845.162-1.695.295-2.55.4-.73.087-1.463.154-2.2.2-2.833.1-5.8.017-8.9-.25M80.25 665.7c2.7.834 5.483 1.617 8.35 2.35 9.9 2.167 19.65 3.534 29.25 4.1 7.233.4 14.4.35 21.5-.15h.55c8.733-.7 17.317-2.016 25.75-3.95 6.134 1.011 10.517 1.586 13.15 1.725m0 0a71.985 71.985 0 0 1 3.7-10.075m-3.7 10.075A68.908 68.908 0 0 0 176.45 683m2.35-13.225c2.942.143 5.659.118 8.15-.075m-4.45-10c1.7-4.066 3.85-8.066 6.45-12 .333-.5.7-.983 1.1-1.45m-7.55 13.45c6.333.867 11.867 1.117 16.6.75m39.25-51.8c10.4-4.066 21.55-4.783 33.45-2.15m-33.45 2.15c1.233 4.7 1.283 8.867.15 12.5-.1.2-.8 1.167-2.1 2.9-.8 1-.933 1.734-.4 2.2m2.35-17.6c-4.167 1.567-8.15 3.684-11.95 6.35m9.6 11.25c5.5 4.934 8.433 9.767 8.8 14.5.1 1.134.067 2.3-.1 3.5-.5 2.4-1.617 5.017-3.35 7.85-1.362 2.307-3.204 4.107-5.525 5.4-1.688.943-3.63 1.618-5.825 2.025-.328.068-.662.126-1 .175-5.733.767-11.733-.267-18-3.1m25-30.35c-3.467 4.267-8.917 7.2-16.35 8.8M211 656.6c3.733-2.4 6.25-5.85 7.55-10.35.967-3.266 1.333-7 1.1-11.2M211 656.6c-3.1 2.067-7.067 3.35-11.9 3.85m20.55-25.4-5.75-4.8m-9.7 15.35c-.267.633-.517 1.217-.75 1.75-1.9 4.467-3.35 8.834-4.35 13.1m0 0a68.498 68.498 0 0 0-1.325 6.7c-1.049 7.341-.741 14.408.925 21.2m229 31.85 17.85 27.45m99.75-309.8c-.667-.233-1.35-.4-2.05-.5-1.433-.267-3.133-.383-5.1-.35-2.267.334-4.017.55-5.25.65a50.284 50.284 0 0 0-11.25 4.5c-7.233 3.967-13.867 9.617-19.9 16.95-.633.833-1.25 1.65-1.85 2.45-5.033 6.3-9.783 14.2-14.25 23.7a6.357 6.357 0 0 0-.2.6m59.85-27.5c-1 1.333-2.233 2.95-3.7 4.85-1.833 2.1-3.9 4.617-6.2 7.55-3 3.734-5.483 7.2-7.45 10.4a.762.762 0 0 0-.25.3c-1.4 2.167-2.5 4.284-3.3 6.35-.833 2.134-1.967 5.267-3.4 9.4m0 0a380.831 380.831 0 0 1 24.3 9.85M521 497.2a15.671 15.671 0 0 1-.6 1.6c-1.667 4.1-3.767 7.117-6.3 9.05-3.933 2.7-8.567 3.45-13.9 2.25-6.033-1.367-10.467-4.367-13.3-9-3-5.067-3.65-9.75-1.95-14.05.133-.4.3-.8.5-1.2m59.3 115.85c.167-.033.35-.067.55-.1m-189.45 36.6 24.6 4.85c3.4-3.633 5.067-7.65 5-12.05v-1.4c-.1-.933-.25-1.9-.45-2.9l-26-6.6m-62.35-79.7c26.467 10.534 46.15 19.484 59.05 26.85 20.833 11.967 36.783 25.65 47.85 41.05 3.233 4.467 6.767 10.35 10.6 17.65m30.95 85.8 17.4 27.05"/><path stroke="#FF97E2" stroke-linecap="round" stroke-linejoin="round" stroke-width="5" d="m194.8 632.5 19.1-2.25-5-18.65c-8.566 4.533-13.266 11.5-14.1 20.9Z"/><path stroke="#161616" stroke-linecap="round" stroke-linejoin="round" stroke-width="5" d="M117.4 551.05c-.219.182-.436.365-.65.55-14.262 12.045-22.346 27.228-24.25 45.55m-.125 59.3L80.25 665.7m164.45-21.45c6.799-.397 12.874-.722 18.225-.975m0 0 .525-.275m-.525.275c6.753-.309 12.344-.5 16.775-.575 20.767-.066 39.15 1.55 55.15 4.85 7.333 1.634 12.417 2.65 15.25 3.05 5.733.9 10.8 1 15.2.3 1.367-.2 2.667-.466 3.9-.8 0-.066.017-.1.05-.1 8.567 18.3 14.817 31.217 18.75 38.75 7.633 14.6 15.433 27.034 23.4 37.3 6.133 7.9 11.833 13.45 17.1 16.65 5.433 3.1 10.6 4.75 15.5 4.95h1.55M262.925 643.275l-27.1 14.225M230 659.525l-32.225 7.625-10.825 2.55"/></g><mask id="l" width="1074" height="1074" x="3" y="-84" maskUnits="userSpaceOnUse" style="mask-type:luminance"><path fill="#fff" d="M1076.15 453.05c0-148.1-52.38-274.516-157.15-379.25C814.467-30.767 688.15-83.05 540.05-83.05S265.534-30.767 160.8 73.8C56.233 178.534 3.95 304.95 3.95 453.05S56.233 727.467 160.8 832c104.734 104.77 231.15 157.15 379.25 157.15S814.467 936.77 919 832c104.77-104.533 157.15-230.85 157.15-378.95Z"/></mask><g mask="url(#l)"><path fill="#161616" d="M967.7 661.05a24.123 24.123 0 0 0 1.8-2.8c1.9-3.466 2.85-7.116 2.85-10.95v-2.35H950l17.7 16.1ZM806 678.3c-14.733-6.633-23.733-14.316-27-23.05l-48.75 34.9c3.367 8.8 12.383 16.484 27.05 23.05 18.9 8.6 41.867 12.9 68.9 12.9 27 0 49.95-4.3 68.85-12.9 4.233-1.866 7.917-3.783 11.05-5.75l48.05-34.55c-3.058 1.882-6.525 3.682-10.4 5.4-19 8.6-41.95 12.9-68.85 12.9-26.867 0-49.833-4.3-68.9-12.9Zm55.15-223.55c8.133 1.034 15.1 1.184 20.9.45 2.767-.366 8.1-1.583 16-3.65 6.567-1.7 11.883-2.55 15.95-2.55 5.633-.133 13.45 1.434 23.45 4.7 1.7.567 3.317 1.084 4.85 1.55.9-1.7 1.367-3.416 1.4-5.15v-.35c0-7.133-6.717-13.233-20.15-18.3-13.4-5.033-29.617-7.55-48.65-7.55-18.967 0-35.15 2.517-48.55 7.55-13.433 5.067-20.15 11.167-20.15 18.3v.35c.033 1.6.417 3.15 1.15 4.65 3.333-1.5 7.133-2.566 11.4-3.2 6.267-.866 13.4-.8 21.4.2 4.7.534 11.7 1.534 21 3ZM972.35 543v-20.35H950L972.35 543Z"/><path fill="#AE49EC" d="M874.9 493.6c26.9 0 49.85-4.3 68.85-12.9 18.767-8.4 28.3-18.533 28.6-30.4v-.6c0-12.1-9.533-22.45-28.6-31.05-19-8.566-41.95-12.85-68.85-12.85-26.867 0-49.833 4.284-68.9 12.85-19 8.6-28.5 18.95-28.5 31.05v.6c.3 11.867 9.8 22 28.5 30.4 19.067 8.6 42.033 12.9 68.9 12.9Zm-48.55-62.15c13.4-5.033 29.583-7.55 48.55-7.55 19.033 0 35.25 2.517 48.65 7.55 13.433 5.067 20.15 11.167 20.15 18.3v.35c-.033 1.734-.5 3.45-1.4 5.15-2.6 4.8-8.85 9.034-18.75 12.7-13.4 5.1-29.617 7.65-48.65 7.65-18.967 0-35.15-2.55-48.55-7.65-10.2-3.8-16.533-8.2-19-13.2-.733-1.5-1.117-3.05-1.15-4.65v-.35c0-7.133 6.717-13.233 20.15-18.3Z"/><path fill="#022611" d="M882.05 455.2c-5.8.733-12.767.583-20.9-.45-9.3-1.467-16.3-2.467-21-3-8-1-15.133-1.067-21.4-.2-4.267.633-8.067 1.7-11.4 3.2 2.467 5 8.8 9.4 19 13.2 13.4 5.1 29.583 7.65 48.55 7.65 19.033 0 35.25-2.55 48.65-7.65 9.9-3.667 16.15-7.9 18.75-12.7a194.42 194.42 0 0 1-4.85-1.55c-10-3.267-17.817-4.833-23.45-4.7-4.067 0-9.383.85-15.95 2.55-7.9 2.067-13.233 3.283-16 3.65Z"/><path fill="#FF97E2" d="M943.75 480.7c-19 8.6-41.95 12.9-68.85 12.9-26.867 0-49.833-4.3-68.9-12.9-18.7-8.4-28.2-18.533-28.5-30.4v197c0 2.734.5 5.384 1.5 7.95 3.267 8.734 12.267 16.417 27 23.05 19.067 8.6 42.033 12.9 68.9 12.9 26.9 0 49.85-4.3 68.85-12.9 3.875-1.718 7.342-3.518 10.4-5.4.2-.106.4-.223.6-.35 5.704-3.558 10.021-7.392 12.95-11.5l-17.7-16.1h42.6c16.13 0 29.92-5.716 41.35-17.15 11.43-11.433 17.15-25.216 17.15-41.35v-36c0-16.133-5.72-29.916-17.15-41.35-11.43-11.433-25.22-17.15-41.35-17.15h-20.25V450.3c-.3 11.867-9.833 22-28.6 30.4Zm35.05 41.95c9.767 0 18.117 3.434 25.05 10.3 6.93 6.834 10.4 15.084 10.4 24.75v21.55c0 9.667-3.47 17.917-10.4 24.75-6.933 6.867-15.283 10.3-25.05 10.3h-6.45V543L950 522.65h28.8Z"/><path stroke="#161616" stroke-linecap="round" stroke-linejoin="round" stroke-width="5" d="M807.35 454.75c3.333-1.5 7.133-2.566 11.4-3.2 6.267-.866 13.4-.8 21.4.2 4.7.534 11.7 1.534 21 3 8.133 1.034 15.1 1.184 20.9.45 2.767-.366 8.1-1.583 16-3.65 6.567-1.7 11.883-2.55 15.95-2.55 5.633-.133 13.45 1.434 23.45 4.7 1.7.567 3.317 1.084 4.85 1.55m-134.95-.5c-.733-1.5-1.117-3.05-1.15-4.65m1.15 4.65c2.467 5 8.8 9.4 19 13.2 13.4 5.1 29.583 7.65 48.55 7.65 19.033 0 35.25-2.55 48.65-7.65 9.9-3.666 16.15-7.9 18.75-12.7m0 0c.9-1.7 1.367-3.416 1.4-5.15m0-.35c0-7.133-6.717-13.233-20.15-18.3-13.4-5.033-29.617-7.55-48.65-7.55-18.967 0-35.15 2.517-48.55 7.55-13.433 5.067-20.15 11.167-20.15 18.3m166.15.55c-.3 11.867-9.833 22-28.6 30.4-19 8.6-41.95 12.9-68.85 12.9-26.867 0-49.833-4.3-68.9-12.9-18.7-8.4-28.2-18.533-28.5-30.4m194.85 0v-.6c0-12.1-9.533-22.45-28.6-31.05-19-8.566-41.95-12.85-68.85-12.85-26.867 0-49.833 4.284-68.9 12.85-19 8.6-28.5 18.95-28.5 31.05v.6m194.85 0v41.65M777.5 450.3v197c0 2.734.5 5.384 1.5 7.95m0 0c3.267 8.734 12.267 16.417 27 23.05 19.067 8.6 42.033 12.9 68.9 12.9 26.9 0 49.85-4.3 68.85-12.9 3.875-1.718 7.342-3.51 10.4-5.375M779 655.25l-48.75 34.9c3.367 8.8 12.383 16.484 27.05 23.05 18.9 8.6 41.867 12.9 68.9 12.9 27 0 49.95-4.3 68.85-12.9 4.233-1.866 7.917-3.783 11.05-5.75l48.05-34.525m0 0c.2-.123.4-.248.6-.375 5.704-3.558 10.029-7.383 12.975-11.475m0 0L950 644.95h22.35m-4.625 16.125a28.504 28.504 0 0 0 1.775-2.825c1.9-3.466 2.85-7.116 2.85-10.95v-2.35m0 0h20.25c16.13 0 29.92-5.716 41.35-17.15 11.43-11.433 17.15-25.216 17.15-41.35v-36c0-16.133-5.72-29.916-17.15-41.35-11.43-11.433-25.22-17.15-41.35-17.15h-20.25m0 0H950m22.35 30.7h6.45c9.767 0 18.117 3.434 25.05 10.3 6.93 6.834 10.4 15.084 10.4 24.75v21.55c0 9.667-3.47 17.917-10.4 24.75-6.933 6.867-15.283 10.3-25.05 10.3h-6.45m0-91.65V543m0-20.35H950L972.35 543m0 71.3H950m22.35 0V543"/></g><mask id="m" width="1074" height="1074" x="3" y="-84" maskUnits="userSpaceOnUse" style="mask-type:luminance"><path fill="#fff" d="M1076.15 453.05c0-148.1-52.38-274.516-157.15-379.25C814.467-30.767 688.15-83.05 540.05-83.05S265.534-30.767 160.8 73.8C56.233 178.534 3.95 304.95 3.95 453.05S56.233 727.467 160.8 832c104.734 104.77 231.15 157.15 379.25 157.15S814.467 936.77 919 832c104.77-104.533 157.15-230.85 157.15-378.95Z"/></mask><g mask="url(#m)"><path fill="#E7E5E2" d="m296.8 718.45-46.75 35.9h168.4L465 718.6l-168.2-.15Z"/><path fill="#161616" d="M375.1 563.95c-14.9.3-25.35 1.2-31.35 2.7-4.366 1.033-7.116 2.733-8.25 5.1-.766 1.567-.85 3.283-.25 5.15.534 1.8 1.534 3.3 3 4.5 2.234 1.833 5.534 3.15 9.9 3.95 9.734 2.033 19.65 2.483 29.75 1.35 1.267-.133 2.534-.3 3.8-.5a13 13 0 0 1-1.55-1.75c-2.466-3.4-3.7-7.2-3.7-11.4-.1-3.3.6-6.383 2.1-9.25-1.1.067-2.25.117-3.45.15ZM520 813l29.75-22.7h-419.1L100.9 813H520Zm209.15-225.55-2.05 27.4-2.55 34.35c3.395-3.395 5.878-6.128 7.45-8.2l2.8-33.7 1.8-21.55c-1.384-.434-2.85-.867-4.4-1.3a101.36 101.36 0 0 0-2.75-.7l-.3 3.7ZM349.7 370.15l-2.8 34.65c1.467-.4 2.867-.95 4.2-1.65a24.034 24.034 0 0 0 4-3c3.767-3.5 5.85-7.717 6.25-12.65.4-5-1.016-9.283-4.25-12.85-1.066-1.167-2.233-2.1-3.5-2.8-1.2-.733-2.5-1.3-3.9-1.7Zm115.95 33a23.354 23.354 0 0 0 3.9-3c3.834-3.5 5.95-7.717 6.35-12.65.4-5-1.05-9.283-4.35-12.85-1.033-1.167-2.166-2.1-3.4-2.8a16.882 16.882 0 0 0-3.9-1.7l-2.8 34.65c1.434-.4 2.834-.95 4.2-1.65Zm191.9 85.55c-5.2-.133-9.8 1.633-13.8 5.3a19.118 19.118 0 0 0-3.55 4 21.61 21.61 0 0 0-1.8 3.35l35.75.45c-.666-2.733-1.95-5.183-3.85-7.35-3.4-3.733-7.65-5.65-12.75-5.75Zm-85.3 13.1c-.633-2.733-1.95-5.183-3.95-7.35-3.333-3.733-7.533-5.65-12.6-5.75-5.266-.133-9.866 1.633-13.8 5.3-2.433 2.1-4.233 4.55-5.4 7.35l35.75.45ZM660 416.15c-1.1-3.467-3.083-5.85-5.95-7.15-2.766-1.267-6.016-1.283-9.75-.05-2.4.8-5.533 2.383-9.4 4.75a495.115 495.115 0 0 0-11 7.05c1.267.7 2.317 1.367 3.15 2 3.467 2.767 6.034 7.267 7.7 13.5 1.034 4.2 1.534 8.4 1.5 12.6 4-2.5 7.85-5.217 11.55-8.15 6.534-4.967 10.584-9.9 12.15-14.8 1.067-3.233 1.084-6.483.05-9.75ZM357.95 517.3c-2.2-3.633-5.35-5.967-9.45-7-2.466-.633-4.85-.7-7.15-.2l15.05 25.05c1.5-1.733 2.55-3.8 3.15-6.2.9-3.533.634-6.883-.8-10.05a8.917 8.917 0 0 0-.8-1.6ZM597 381.95c-1.166 2-1.833 4.233-2 6.7-.3 4.267.9 7.95 3.6 11.05 2.767 3.267 6.284 5.05 10.55 5.35 2.5.2 4.867-.167 7.1-1.1l-19.25-22Zm-94.05-50.15c-2.3 2.367-3.45 5.2-3.45 8.5 0 1.9.367 3.65 1.1 5.25.234.433.467.85.7 1.25.467.7 1.017 1.367 1.65 2 2.334 2.3 5.084 3.467 8.25 3.5h.55c3.167-.1 5.884-1.267 8.15-3.5 2.334-2.367 3.5-5.2 3.5-8.5v-1a14.05 14.05 0 0 0-.45-2.6c-.633-1.8-1.65-3.433-3.05-4.9-2.333-2.3-5.15-3.45-8.45-3.45-3.3 0-6.133 1.15-8.5 3.45Z"/><path fill="#fff" d="m549.75 754.35 155.7-119.75h-431.1l-155.7 119.75h131.4l46.75-35.9 168.2.15-46.55 35.75h131.3Zm174.75-105.1c-2.853 2.782-5.72 5.265-8.6 7.45-2.252 1.698-5.752 4.131-10.5 7.3.737.323 1.47.69 2.2 1.1 3.1 1.7 5.767 3.916 8 6.65 2.3 2.8 3.884 5.833 4.75 9.1 1.288 4.936.921 10.386-1.1 16.35a80.237 80.237 0 0 0 3.45-1.95c6.881-4.145 13.698-9.278 20.45-15.4a37.453 37.453 0 0 0-.35-4.45c-.666-4.867-2.15-9.384-4.45-13.55-2.266-4.1-5.183-7.4-8.75-9.9-1.681-1.169-3.381-2.069-5.1-2.7Zm33.3-51.2a.45.45 0 0 1-.15.05c-5.8.7-11.233 2.366-16.3 5a46.803 46.803 0 0 0-6.55 4.2L732 641c.239-.29.456-.574.65-.85 1.808-2.63 3.242-5.33 4.3-8.1 2.655-.413 5.389-.447 8.2-.1 4.6.566 8.75 2.066 12.45 4.5 3.734 2.5 6.75 5.766 9.05 9.8.316.561.616 1.128.9 1.7a50.126 50.126 0 0 0 1.3-3.85c1.8-5.967 2.384-12.134 1.75-18.5-.666-6.4-2.466-12.317-5.4-17.75-1.733-3.234-4-6.284-6.8-9.15-.2-.208-.4-.424-.6-.65ZM346.9 404.8l2.8-34.65c-1.5-.4-3.133-.6-4.9-.6-4.9 0-9.283 1.7-13.15 5.1-3.7 3.566-5.75 7.85-6.15 12.85-.4 4.933.984 9.15 4.15 12.65 3.267 3.5 7.35 5.25 12.25 5.25 1.767 0 3.434-.2 5-.6Zm6.05 58.9 2.15-26.85h-26.85c-1.666 0-3.25.266-4.75.8-1.866.6-3.583 1.616-5.15 3.05-2.833 2.666-4.4 5.85-4.7 9.55-.3 3.766.75 6.95 3.15 9.55 2.434 2.6 5.534 3.9 9.3 3.9h26.85Zm2.15-26.85-2.15 26.85h40.45l2.15-26.85H355.1Zm78.7 26.85 2.15-26.85h-40.4l-2.15 26.85h40.4Zm2.15-26.85-2.15 26.85h27c3.734 0 6.984-1.3 9.75-3.9 2.867-2.6 4.45-5.784 4.75-9.55.3-3.7-.766-6.884-3.2-9.55-2.066-2.234-4.666-3.5-7.8-3.8-.433-.034-.883-.05-1.35-.05h-27Zm25.5-32.05 2.8-34.65c-1.533-.4-3.166-.6-4.9-.6-3.266 0-6.283.75-9.05 2.25-1.433.733-2.8 1.683-4.1 2.85-3.766 3.566-5.85 7.85-6.25 12.85-.4 4.933 1.017 9.15 4.25 12.65a18.782 18.782 0 0 0 3.45 2.9c2.567 1.566 5.5 2.35 8.8 2.35 1.734 0 3.4-.2 5-.6Zm176.95 96.55a22.902 22.902 0 0 0-1.3 5.95 19.612 19.612 0 0 0-.1 3.4c.2 3.766 1.634 7.083 4.3 9.95 2.8 3.233 6.334 5.1 10.6 5.6.7.066 1.417.1 2.15.1 5.234 0 9.834-1.817 13.8-5.45 4-3.634 6.267-8 6.8-13.1 0-.2.017-.384.05-.55.1-1.967-.083-3.784-.55-5.45l-35.75-.45Zm-65.65 6.45c0-.2.017-.384.05-.55.067-1.634-.05-3.15-.35-4.55l-.2-.9-35.75-.45a21.713 21.713 0 0 0-1.35 5.95 18.484 18.484 0 0 0-.1 3.3c.2 3.8 1.634 7.15 4.3 10.05 3.334 3.766 7.617 5.666 12.85 5.7h1.3c4.634-.3 8.8-2.117 12.5-5.45 3.967-3.634 6.217-8 6.75-13.1Zm-231.4 2.3a18.385 18.385 0 0 0-4.55 1.85c-.733.466-1.433.95-2.1 1.45a13.776 13.776 0 0 0-3.15 3.65c-.2.3-.383.616-.55.95l-.4.8c-.366.8-.65 1.65-.85 2.55-.2.866-.35 1.7-.45 2.5-.133 1.1-.116 2.133.05 3.1l1.05 3.95c.034.1.067.166.1.2.1.3.234.633.4 1 .167.333.35.65.55.95.134.233.267.416.4.55 2.134 3.3 5.15 5.466 9.05 6.5 4.134 1.033 8.034.466 11.7-1.7a15.568 15.568 0 0 0 3.8-3.25l-15.05-25.05Zm280.5-130.5c-2.766-3.167-6.266-4.9-10.5-5.2-4.3-.3-8.05.916-11.25 3.65a14.555 14.555 0 0 0-3.1 3.9l19.25 22a16.89 16.89 0 0 0 4.1-2.65c3.2-2.734 4.95-6.234 5.25-10.5.3-4.234-.95-7.967-3.75-11.2Z"/><path fill="#959595" d="M549.75 790.3v-35.95h-431.1l12 35.95h419.1Zm155.7-155.7 2.75-35.8-1.3-.1H277.1l-2.75 35.9h431.1Zm21.2-275.35 2.7-36H298.3l-2.75 35.95H725.7l.95.05ZM499.5 340.3c0-3.3 1.15-6.133 3.45-8.5 2.367-2.3 5.2-3.45 8.5-3.45s6.117 1.15 8.45 3.45c1.4 1.467 2.417 3.1 3.05 4.9.234.867.384 1.733.45 2.6v1c0 3.3-1.166 6.133-3.5 8.5-2.266 2.233-4.983 3.4-8.15 3.5h-.55c-3.166-.033-5.916-1.2-8.25-3.5a13.157 13.157 0 0 1-1.65-2c-.233-.4-.466-.817-.7-1.25-.733-1.6-1.1-3.35-1.1-5.25Zm-10.2-5.45c1.8 1.833 2.7 3.95 2.7 6.35 0 2.5-.9 4.6-2.7 6.3-1.733 1.8-3.833 2.7-6.3 2.7-2.433 0-4.533-.9-6.3-2.7-1.8-1.7-2.7-3.8-2.7-6.3 0-2.4.9-4.517 2.7-6.35 1.767-1.733 3.867-2.6 6.3-2.6 2.467 0 4.567.867 6.3 2.6Zm240.05-11.6-2.7 36-9.25 119.7-9.2 119.85-2.75 35.8-155.7 119.75v35.95l124.3-95.6c.134-.7.55-1.933 1.25-3.7 1-2.567 2.05-4.5 3.15-5.8 2.9-3.467 6.684-6.95 11.35-10.45 2.634-2 7.734-5.517 15.3-10.55l.3-.2c4.748-3.169 8.248-5.602 10.5-7.3 2.88-2.185 5.747-4.668 8.6-7.45l.05-.05 2.55-34.35 2.05-27.4.3-3.7 8.1-104.8 9.8-128.15-18-27.55Z"/><path fill="#FFF1F8" d="m705.4 664-.3.2c-7.566 5.034-12.666 8.55-15.3 10.55-4.666 3.5-8.45 6.984-11.35 10.45-1.1 1.3-2.15 3.234-3.15 5.8-.7 1.767-1.116 3-1.25 3.7-.033.567.15 1.517.55 2.85.567 1.967 1.45 3.684 2.65 5.15 3.7 4.567 9.567 5.9 17.6 4 8.385-1.979 16.518-5.146 24.4-9.5 2.021-5.964 2.388-11.414 1.1-16.35-.866-3.266-2.45-6.3-4.75-9.1a27.002 27.002 0 0 0-8-6.65c-.73-.41-1.463-.777-2.2-1.1Zm62.15-16.05a36.901 36.901 0 0 0-.9-1.7c-2.3-4.033-5.316-7.3-9.05-9.8-3.7-2.433-7.85-3.933-12.45-4.5-2.811-.346-5.545-.313-8.2.1-1.058 2.77-2.492 5.47-4.3 8.1a13.7 13.7 0 0 1-.65.85c-1.572 2.072-4.055 4.806-7.45 8.2l-.05.05c1.719.632 3.419 1.532 5.1 2.7 3.567 2.5 6.484 5.8 8.75 9.9 2.3 4.167 3.784 8.684 4.45 13.55.207 1.496.323 2.98.35 4.45a138.828 138.828 0 0 0 4.2-3.9c9.925-9.603 16.658-18.937 20.2-28Zm-9.9-49.85a.428.428 0 0 0 .15-.05 50.496 50.496 0 0 0-8.8-6.95c-3.004-1.871-7.138-3.654-12.4-5.35l-1.8 21.55a46.803 46.803 0 0 1 6.55-4.2c5.067-2.633 10.5-4.3 16.3-5ZM532.8 366.8a53.978 53.978 0 0 1 11.9-7.6h-34.8l-9.25 119.75H601.4a1.937 1.937 0 0 0-.15-.4c-.7-4.133.15-7.75 2.55-10.85 1.9-2.6 4.717-4.916 8.45-6.95 1.334-.766 4.75-2.35 10.25-4.75 4.8-2.133 9.384-4.516 13.75-7.15.034-4.2-.466-8.4-1.5-12.6-1.666-6.233-4.233-10.733-7.7-13.5-.833-.633-1.883-1.3-3.15-2a39047.14 39047.14 0 0 1-36 22.7c-.866-5.1-1.566-8.933-2.1-11.5-10.766 5.8-22.783 11.284-36.05 16.45-2.666 1-5.033 1.5-7.1 1.5-2.666-.033-4.533-.933-5.6-2.7-1.566-2.466-.816-6.116 2.25-10.95l17.5-26.05c1.9-2.966 3.217-5.1 3.95-6.4 1.3-2.5 2.167-4.8 2.6-6.9.467-2.6.317-5.133-.45-7.6-.9-2.633-2.35-4.583-4.35-5.85-2.066-1.4-4.766-1.95-8.1-1.65-4 .634-6.983 1.084-8.95 1.35-3.266.367-6.25 0-8.95-1.1-3.133-1.266-4.85-3.25-5.15-5.95-.2-2.933 1.6-6.033 5.4-9.3Zm193.85-7.55-.95-.05h-181a53.978 53.978 0 0 0-11.9 7.6c-3.8 3.267-5.6 6.367-5.4 9.3.3 2.7 2.017 4.684 5.15 5.95 2.7 1.1 5.684 1.467 8.95 1.1 1.967-.266 4.95-.716 8.95-1.35 3.334-.3 6.034.25 8.1 1.65 2 1.267 3.45 3.217 4.35 5.85.767 2.467.917 5 .45 7.6-.433 2.1-1.3 4.4-2.6 6.9-.733 1.3-2.05 3.434-3.95 6.4l-17.5 26.05c-3.066 4.834-3.816 8.484-2.25 10.95 1.067 1.767 2.934 2.667 5.6 2.7 2.067 0 4.434-.5 7.1-1.5 13.267-5.166 25.284-10.65 36.05-16.45.534 2.567 1.234 6.4 2.1 11.5a39047.14 39047.14 0 0 0 36-22.7c3.534-2.333 7.2-4.683 11-7.05 3.867-2.366 7-3.95 9.4-4.75 3.734-1.233 6.984-1.216 9.75.05 2.867 1.3 4.85 3.684 5.95 7.15 1.034 3.267 1.017 6.517-.05 9.75-1.566 4.9-5.616 9.834-12.15 14.8-3.7 2.934-7.55 5.65-11.55 8.15A124.294 124.294 0 0 1 622.5 456c-5.5 2.4-8.916 3.984-10.25 4.75-3.733 2.034-6.55 4.35-8.45 6.95-2.4 3.1-3.25 6.717-2.55 10.85.067.134.117.267.15.4h116l9.25-119.7Zm-115.3 15.15c4.234.3 7.734 2.034 10.5 5.2 2.8 3.234 4.05 6.967 3.75 11.2-.3 4.267-2.05 7.767-5.25 10.5a16.861 16.861 0 0 1-4.1 2.65c-2.233.934-4.6 1.3-7.1 1.1-4.266-.3-7.783-2.083-10.55-5.35-2.7-3.1-3.9-6.783-3.6-11.05.167-2.466.834-4.7 2-6.7a14.586 14.586 0 0 1 3.1-3.9c3.2-2.733 6.95-3.95 11.25-3.65Z"/><path fill="#00D230" d="m500.65 478.95 9.25-119.75H295.55l-9.25 119.75h214.35Zm-31.1-78.8a23.354 23.354 0 0 1-3.9 3c-1.366.7-2.766 1.25-4.2 1.65-1.6.4-3.266.6-5 .6-3.3 0-6.233-.783-8.8-2.35a18.782 18.782 0 0 1-3.45-2.9c-3.233-3.5-4.65-7.717-4.25-12.65.4-5 2.484-9.283 6.25-12.85 1.3-1.167 2.667-2.117 4.1-2.85 2.767-1.5 5.784-2.25 9.05-2.25 1.734 0 3.367.2 4.9.6 1.367.4 2.667.967 3.9 1.7 1.234.7 2.367 1.633 3.4 2.8 3.3 3.567 4.75 7.85 4.35 12.85-.4 4.933-2.516 9.15-6.35 12.65Zm-8.75 63.55H326.1c-3.766 0-6.866-1.3-9.3-3.9-2.4-2.6-3.45-5.783-3.15-9.55.3-3.7 1.867-6.883 4.7-9.55 1.567-1.433 3.284-2.45 5.15-3.05 1.5-.533 3.084-.8 4.75-.8h134.7c.467 0 .917.017 1.35.05 3.134.3 5.734 1.567 7.8 3.8 2.434 2.667 3.5 5.85 3.2 9.55-.3 3.767-1.883 6.95-4.75 9.55-2.766 2.6-6.016 3.9-9.75 3.9Zm-109.7-60.55c-1.333.7-2.733 1.25-4.2 1.65-1.566.4-3.233.6-5 .6-4.9 0-8.983-1.75-12.25-5.25-3.166-3.5-4.55-7.717-4.15-12.65.4-5 2.45-9.283 6.15-12.85 3.867-3.4 8.25-5.1 13.15-5.1 1.767 0 3.4.2 4.9.6 1.4.4 2.7.967 3.9 1.7 1.267.7 2.434 1.633 3.5 2.8 3.234 3.567 4.65 7.85 4.25 12.85-.4 4.933-2.483 9.15-6.25 12.65a24.034 24.034 0 0 1-4 3ZM492 341.2c0-2.4-.9-4.517-2.7-6.35-1.733-1.733-3.833-2.6-6.3-2.6-2.433 0-4.533.867-6.3 2.6-1.8 1.833-2.7 3.95-2.7 6.35 0 2.5.9 4.6 2.7 6.3 1.767 1.8 3.867 2.7 6.3 2.7 2.467 0 4.567-.9 6.3-2.7 1.8-1.7 2.7-3.8 2.7-6.3Z"/><path fill="#FF97E2" d="M717.4 478.95H500.65l-9.2 119.75H706.9l1.3.1 9.2-119.85Zm-149.1 15.5c2 2.167 3.317 4.617 3.95 7.35l.2.9c.3 1.4.417 2.917.35 4.55.034.8.017 1.65-.05 2.55-.533 5.1-2.783 9.467-6.75 13.1-3.7 3.334-7.866 5.15-12.5 5.45h-1.3c-5.233-.033-9.516-1.933-12.85-5.7-3.133-3.4-4.566-7.416-4.3-12.05a18.49 18.49 0 0 1 .1-3.3 21.73 21.73 0 0 1 1.35-5.95c1.167-2.8 2.967-5.25 5.4-7.35 3.934-3.666 8.534-5.433 13.8-5.3 5.067.1 9.267 2.017 12.6 5.75Zm68.8 12.85a22.92 22.92 0 0 1 1.3-5.95c.5-1.166 1.1-2.283 1.8-3.35.967-1.466 2.15-2.8 3.55-4 4-3.666 8.6-5.433 13.8-5.3 5.1.1 9.35 2.017 12.75 5.75 1.9 2.167 3.184 4.617 3.85 7.35.467 1.667.65 3.484.55 5.45.034.8.017 1.65-.05 2.55-.533 5.1-2.8 9.467-6.8 13.1-3.966 3.634-8.566 5.45-13.8 5.45-.733 0-1.45-.033-2.15-.1-4.266-.5-7.8-2.366-10.6-5.6-3.133-3.366-4.566-7.35-4.3-11.95-.066-1.1-.033-2.233.1-3.4Z"/><path fill="#D6FFCD" d="M427.801 532.15c1.1-3.733.566-7.516-1.6-11.35-2.1-3.7-5.034-6.416-8.8-8.15-6.434-2.8-14.317-2.716-23.65.25-2.334.767-6.1 2.217-11.3 4.35a95.35 95.35 0 0 1-5.05 2.05c-4.9-7.266-11.05-13.116-18.45-17.55-7.867-4.666-15.967-6.983-24.3-6.95-11.834.034-22.384 2.284-31.65 6.75-6.067 2.867-12.55 7.3-19.45 13.3l-6.45 83.85h168.9c2.933-5.633 3.15-11.15.65-16.55-2.534-5.333-6.35-8.7-11.45-10.1-4.167-1.066-8.984-.716-14.45 1.05-1.167.434-5.834 2.434-14 6-8 3.534-16.35 5.9-25.05 7.1-1.267.2-2.534.367-3.8.5-10.1 1.134-20.017.684-29.75-1.35-4.367-.8-7.667-2.116-9.9-3.95-1.467-1.2-2.467-2.7-3-4.5-.6-1.866-.517-3.583.25-5.15 1.133-2.366 3.883-4.066 8.25-5.1 6-1.5 16.45-2.4 31.35-2.7 1.2-.033 2.35-.083 3.45-.15 11.866-.433 21.05-1.783 27.55-4.05l-10.4-8.2c2.233-1.433 5.15-2.766 8.75-4 2.033-.733 5.1-1.733 9.2-3 7.733-2.966 12.45-7.1 14.15-12.4Zm-93.1-18.75c.966-.8 1.966-1.516 3-2.15 2.133-1.033 4.45-1.55 6.95-1.55 4.266 0 7.916 1.517 10.95 4.55.933.934 1.716 1.95 2.35 3.05.333.534.6 1.067.8 1.6 1.433 3.167 1.7 6.517.8 10.05-.6 2.4-1.65 4.467-3.15 6.2a15.584 15.584 0 0 1-3.8 3.25c-3.667 2.167-7.567 2.734-11.7 1.7-3.9-1.033-6.917-3.2-9.05-6.5a2.551 2.551 0 0 1-.4-.55c-.2-.3-.384-.616-.55-.95-.167-.366-.3-.7-.4-1a.525.525 0 0 1-.1-.2l-1.05-3.95c-.167-.966-.184-2-.05-3.1.1-1.833.533-3.516 1.3-5.05l.4-.8c.166-.333.35-.65.55-.95a13.755 13.755 0 0 1 3.15-3.65Zm91.5 7.4c2.166 3.834 2.7 7.617 1.6 11.35-1.7 5.3-6.417 9.434-14.15 12.4-4.1 1.267-7.167 2.267-9.2 3-3.6 1.234-6.517 2.567-8.75 4l10.4 8.2c-6.5 2.267-15.684 3.617-27.55 4.05-1.5 2.867-2.2 5.95-2.1 9.25 0 4.2 1.233 8 3.7 11.4.466.634.983 1.217 1.55 1.75 8.7-1.2 17.05-3.566 25.05-7.1 8.166-3.566 12.833-5.566 14-6 5.466-1.766 10.283-2.116 14.45-1.05 5.1 1.4 8.916 4.767 11.45 10.1 2.5 5.4 2.283 10.917-.65 16.55h45.45l9.2-119.75h-214.35l-2.75 35.9c6.9-6 13.383-10.433 19.45-13.3 9.266-4.466 19.816-6.716 31.65-6.75 8.333-.033 16.433 2.284 24.3 6.95 7.4 4.434 13.55 10.284 18.45 17.55a95.35 95.35 0 0 0 5.05-2.05c5.2-2.133 8.966-3.583 11.3-4.35 9.333-2.966 17.216-3.05 23.65-.25 3.766 1.734 6.7 4.45 8.8 8.15Z"/><path stroke="#161616" stroke-linecap="round" stroke-linejoin="round" stroke-width="5" d="m729.35 323.25-2.7 36-9.25 119.7m11.95-155.7 18 27.55-9.8 128.15-8.1 104.8m-.1-260.5H298.3l-2.75 35.95M717.4 478.95l-9.2 119.85-2.75 35.8m11.95-155.65h-116M705.45 634.6l-155.7 119.75m155.7-119.75h-431.1m275.4 119.75v35.95m0-35.95h-131.3m131.3 35.95 124.3-95.6m-124.3 95.6L520 813H100.9l29.75-22.7m419.1 0h-419.1m543.4-95.6c.134-.7.55-1.933 1.25-3.7 1-2.567 2.05-4.5 3.15-5.8 2.9-3.467 6.684-6.95 11.35-10.45 2.634-2 7.734-5.517 15.3-10.55l.3-.2c4.748-3.169 8.248-5.602 10.5-7.3 2.88-2.185 5.747-4.668 8.6-7.45l.05-.05m-50.5 45.5c-.033.567.15 1.517.55 2.85.567 1.967 1.45 3.683 2.65 5.15 3.7 4.567 9.567 5.9 17.6 4 8.385-1.98 16.527-5.138 24.425-9.475 1.149-.637 2.29-1.296 3.425-1.975 6.881-4.145 13.706-9.278 20.475-15.4a160.439 160.439 0 0 0 4.175-3.9c9.925-9.603 16.658-18.937 20.2-28a49.98 49.98 0 0 0 1.3-3.85c1.8-5.967 2.384-12.133 1.75-18.5-.666-6.4-2.466-12.317-5.4-17.75-1.733-3.233-4-6.283-6.8-9.15l-.6-.625a49.882 49.882 0 0 0-8.8-6.975c-3.004-1.871-7.137-3.646-12.4-5.325-1.384-.451-2.85-.892-4.4-1.325a101.36 101.36 0 0 0-2.75-.7m-4.9 65.45 2.575-34.325 2.05-27.425.275-3.7m-4.9 65.45c3.395-3.395 5.878-6.12 7.45-8.175.239-.307.456-.599.65-.875 1.808-2.63 3.242-5.322 4.3-8.075a33.225 33.225 0 0 0 2.15-10.475M295.55 359.2H509.9m-214.35 0-9.25 119.75M509.9 359.2h34.8m-34.8 0-9.25 119.75M544.7 359.2h181m-181 0a53.941 53.941 0 0 0-11.9 7.6c-3.8 3.267-5.6 6.367-5.4 9.3.3 2.7 2.017 4.683 5.15 5.95 2.7 1.1 5.684 1.467 8.95 1.1 1.967-.267 4.95-.717 8.95-1.35 3.334-.3 6.034.25 8.1 1.65 2 1.267 3.45 3.217 4.35 5.85.767 2.467.917 5 .45 7.6-.433 2.1-1.3 4.4-2.6 6.9-.733 1.3-2.05 3.433-3.95 6.4l-17.5 26.05c-3.066 4.833-3.816 8.483-2.25 10.95 1.067 1.767 2.934 2.667 5.6 2.7 2.067 0 4.434-.5 7.1-1.5 13.267-5.167 25.284-10.65 36.05-16.45.534 2.567 1.234 6.4 2.1 11.5a39047.14 39047.14 0 0 0 36-22.7m0 0c3.534-2.333 7.2-4.683 11-7.05 3.867-2.367 7-3.95 9.4-4.75 3.734-1.233 6.984-1.217 9.75.05 2.867 1.3 4.85 3.683 5.95 7.15 1.034 3.267 1.017 6.517-.05 9.75-1.566 4.9-5.616 9.833-12.15 14.8a126.55 126.55 0 0 1-11.55 8.15m-12.35-28.1c1.267.7 2.317 1.367 3.15 2 3.467 2.767 6.034 7.267 7.7 13.5 1.034 4.2 1.534 8.4 1.5 12.6m0 0A124.465 124.465 0 0 1 622.5 456c-5.5 2.4-8.916 3.983-10.25 4.75-3.733 2.033-6.55 4.35-8.45 6.95-2.4 3.1-3.25 6.717-2.55 10.85.067.133.117.267.15.4m0 0H500.65m-36.4-108.8c1.367.4 2.667.967 3.9 1.7 1.234.7 2.367 1.633 3.4 2.8 3.3 3.567 4.75 7.85 4.35 12.85-.4 4.933-2.516 9.15-6.35 12.65a23.354 23.354 0 0 1-3.9 3c-1.366.7-2.766 1.25-4.2 1.65m2.8-34.65c-1.533-.4-3.166-.6-4.9-.6-3.266 0-6.283.75-9.05 2.25-1.433.733-2.8 1.683-4.1 2.85-3.766 3.567-5.85 7.85-6.25 12.85-.4 4.933 1.017 9.15 4.25 12.65a18.782 18.782 0 0 0 3.45 2.9c2.567 1.567 5.5 2.35 8.8 2.35 1.734 0 3.4-.2 5-.6m2.8-34.65-2.8 34.65m-25.5 32.05-2.15 26.85m2.15-26.85h27c.467 0 .917.017 1.35.05 3.134.3 5.734 1.567 7.8 3.8 2.434 2.667 3.5 5.85 3.2 9.55-.3 3.767-1.883 6.95-4.75 9.55-2.766 2.6-6.016 3.9-9.75 3.9h-27m2.15-26.85h-40.4m38.25 26.85h-40.4m2.15-26.85-2.15 26.85m2.15-26.85H355.1m38.3 26.85h-40.45m-69.4 51.15c6.9-6 13.384-10.433 19.45-13.3 9.267-4.467 19.817-6.717 31.65-6.75 8.334-.033 16.434 2.283 24.3 6.95 7.4 4.433 13.55 10.283 18.45 17.55a95.514 95.514 0 0 0 5.05-2.05c5.2-2.133 8.967-3.583 11.3-4.35 9.334-2.967 17.217-3.05 23.65-.25 3.767 1.733 6.7 4.45 8.8 8.15 2.167 3.833 2.7 7.617 1.6 11.35-1.7 5.3-6.416 9.433-14.15 12.4-4.1 1.267-7.166 2.267-9.2 3-3.6 1.233-6.516 2.567-8.75 4l10.4 8.2c-6.5 2.267-15.683 3.617-27.55 4.05m-95-48.95 2.75-35.9m-2.75 35.9-6.45 83.85m101.45-34.9c-1.5 2.867-2.2 5.95-2.1 9.25 0 4.2 1.234 8 3.7 11.4a13 13 0 0 0 1.55 1.75m-3.15-22.4c-1.1.067-2.25.117-3.45.15-14.9.3-25.35 1.2-31.35 2.7-4.366 1.033-7.116 2.733-8.25 5.1-.766 1.567-.85 3.283-.25 5.15.534 1.8 1.534 3.3 3 4.5 2.234 1.833 5.534 3.15 9.9 3.95 9.734 2.033 19.65 2.483 29.75 1.35 1.267-.133 2.534-.3 3.8-.5m0 0a93.24 93.24 0 0 0 25.05-7.1c8.167-3.567 12.834-5.567 14-6 5.467-1.767 10.284-2.117 14.45-1.05 5.1 1.4 8.917 4.767 11.45 10.1 2.5 5.4 2.284 10.917-.65 16.55m0 0h45.45m-45.45 0H277.1m214.35 0 9.2-119.75m-9.2 119.75H706.9M500.65 478.95H286.3m-9.2 119.75-2.75 35.9M536.5 501.35c1.167-2.8 2.967-5.25 5.4-7.35 3.934-3.667 8.534-5.433 13.8-5.3 5.067.1 9.267 2.017 12.6 5.75 2 2.167 3.317 4.617 3.95 7.35m-35.75-.45a21.721 21.721 0 0 0-1.35 5.95 18.484 18.484 0 0 0-.1 3.3c.2 3.8 1.634 7.15 4.3 10.05 3.334 3.767 7.617 5.667 12.85 5.7h1.3c4.634-.3 8.8-2.117 12.5-5.45 3.967-3.633 6.217-8 6.75-13.1 0-.2.017-.383.05-.55.067-1.633-.05-3.15-.35-4.55l-.2-.9m-35.75-.45 35.75.45m-43 49.7-1.15 14.65m0 0c48.867 25.033 97.734 25.033 146.6 0m-146.6 0-1.1 14.6m147.7-14.6 1.15-14.65m-1.15 14.65-1.1 14.6m-6.35-189.8c2.934 1.267 5.417 3.35 7.45 6.25a22.257 22.257 0 0 1 3.2 5.8c1.3 3.6 1.9 7.4 1.8 11.4M597 381.95a14.555 14.555 0 0 1 3.1-3.9c3.2-2.733 6.95-3.95 11.25-3.65 4.234.3 7.734 2.033 10.5 5.2 2.8 3.233 4.05 6.967 3.75 11.2-.3 4.267-2.05 7.767-5.25 10.5a16.89 16.89 0 0 1-4.1 2.65m-19.25-22c-1.166 2-1.833 4.233-2 6.7-.3 4.267.9 7.95 3.6 11.05 2.767 3.267 6.284 5.05 10.55 5.35 2.5.2 4.867-.167 7.1-1.1m-19.25-22 19.25 22m22.15 97.4a22.911 22.911 0 0 0-1.3 5.95 19.614 19.614 0 0 0-.1 3.4c.2 3.767 1.634 7.083 4.3 9.95 2.8 3.233 6.334 5.1 10.6 5.6.7.067 1.417.1 2.15.1 5.234 0 9.834-1.817 13.8-5.45 4-3.633 6.267-8 6.8-13.1 0-.2.017-.383.05-.55.1-1.967-.083-3.783-.55-5.45m-35.75-.45a21.61 21.61 0 0 1 1.8-3.35c.967-1.467 2.15-2.8 3.55-4 4-3.667 8.6-5.433 13.8-5.3 5.1.1 9.35 2.017 12.75 5.75 1.9 2.167 3.184 4.617 3.85 7.35m-35.75-.45 35.75.45m-75.45 5.7c-6.9 15.567-8.733 27.267-5.5 35.1 3.1 7.533 10.4 10.5 21.9 8.9m-22.05 102.85h42.75m-106.85 0h42.75M443.5 675.7h42.75m21.35 0h42.75m-85.45-21.35h42.7M130.65 790.3l-12-35.95m0 0 155.7-119.75m-155.7 119.75h131.4M571.7 675.7h42.7m-64.05 21.4h42.7M349.7 370.15l-2.8 34.65m2.8-34.65c1.4.4 2.7.967 3.9 1.7 1.267.7 2.434 1.633 3.5 2.8 3.234 3.567 4.65 7.85 4.25 12.85-.4 4.933-2.483 9.15-6.25 12.65a24.034 24.034 0 0 1-4 3c-1.333.7-2.733 1.25-4.2 1.65m2.8-34.65c-1.5-.4-3.133-.6-4.9-.6-4.9 0-9.283 1.7-13.15 5.1-3.7 3.567-5.75 7.85-6.15 12.85-.4 4.933.984 9.15 4.15 12.65 3.267 3.5 7.35 5.25 12.25 5.25 1.767 0 3.434-.2 5-.6m8.2 32.05-2.15 26.85m2.15-26.85h-26.85c-1.666 0-3.25.267-4.75.8-1.866.6-3.583 1.617-5.15 3.05-2.833 2.667-4.4 5.85-4.7 9.55-.3 3.767.75 6.95 3.15 9.55 2.434 2.6 5.534 3.9 9.3 3.9h26.85m17.8-53.9c4.9 5.067 13.7 7.683 26.4 7.85 13.034.267 22.2-2.35 27.5-7.85M356.4 535.15c1.5-1.733 2.55-3.8 3.15-6.2.9-3.533.634-6.883-.8-10.05a8.917 8.917 0 0 0-.8-1.6c-2.2-3.633-5.35-5.967-9.45-7-2.466-.633-4.85-.7-7.15-.2m15.05 25.05a15.546 15.546 0 0 1-3.8 3.25c-3.666 2.167-7.566 2.733-11.7 1.7-3.9-1.033-6.916-3.2-9.05-6.5a2.647 2.647 0 0 1-.4-.55c-.2-.3-.383-.617-.55-.95-.166-.367-.3-.7-.4-1a.556.556 0 0 1-.1-.2l-1.05-3.95c-.166-.967-.183-2-.05-3.1.1-.8.25-1.633.45-2.5.2-.9.484-1.75.85-2.55l.4-.8c.167-.333.35-.65.55-.95a13.776 13.776 0 0 1 3.15-3.65c.667-.5 1.367-.983 2.1-1.45a18.423 18.423 0 0 1 4.55-1.85m15.05 25.05-15.05-25.05M272.6 654.35h42.75m64.05 21.35h42.75m-85.45-21.35h42.7m-64.05 21.35h42.7m-108 78.65 46.75-35.9 168.2.15-46.55 35.75m-168.4 0h168.4m-167.2-78.65h42.7m-64.1 21.4h42.75m128.2-42.75h42.7M293.95 697.1h235"/></g><mask id="n" width="1074" height="1074" x="3" y="-84" maskUnits="userSpaceOnUse" style="mask-type:luminance"><path fill="#fff" d="M1076.15 453.05c0-148.1-52.38-274.516-157.15-379.25C814.467-30.767 688.15-83.05 540.05-83.05S265.534-30.767 160.8 73.8C56.233 178.534 3.95 304.95 3.95 453.05S56.233 727.467 160.8 832c104.734 104.77 231.15 157.15 379.25 157.15S814.467 936.77 919 832c104.77-104.533 157.15-230.85 157.15-378.95Z"/></mask><g mask="url(#n)"><path fill="#959595" d="M718.75 845.2H933.1c-66.419-19.795-137.869-19.795-214.35 0Zm-.95 0c-.273-.079-.573-.245-.9-.5-75.796-19.309-146.646-19.142-212.55.5H717.8Zm215.3 0c-1.767-1.433-3.55-2.8-5.35-4.1-24.033-17.3-54.6-25.95-91.7-25.95-37.433 0-74.133 8.8-110.1 26.4a184.123 184.123 0 0 0-7.2 3.65c76.481-19.795 147.931-19.795 214.35 0Zm-421.5-3.65a164.66 164.66 0 0 0-7.25 3.65c65.904-19.642 136.754-19.809 212.55-.5a5.225 5.225 0 0 1-.85-.8c-1.567-1.7-2.467-2.633-2.7-2.8-24.033-17.3-54.583-25.95-91.65-25.95-37.467 0-74.167 8.8-110.1 26.4Z"/><path fill="#161616" d="m504.35 845.2.25-.2-23.6 18h428.75l23.35-17.8H718.75a.106.106 0 0 0-.05 0H504.35Z"/><path fill="#fff" d="M1116.95 703.85c-24.83-20.067-57.18-30.1-97.05-30.1-40 0-79.117 10.033-117.35 30.1L718.7 845.2a.106.106 0 0 1 .05 0c2.38-1.273 4.78-2.49 7.2-3.65 35.967-17.6 72.667-26.4 110.1-26.4 37.1 0 67.667 8.65 91.7 25.95 1.8 1.3 3.583 2.667 5.35 4.1l183.85-141.35Zm-311.45-30.1c-40 0-79.117 10.033-117.35 30.1L504.6 845l-.25.2a163.565 163.565 0 0 1 7.25-3.65c35.933-17.6 72.633-26.4 110.1-26.4 37.067 0 67.617 8.65 91.65 25.95.233.167 1.133 1.1 2.7 2.8.3.341.583.608.85.8.605.171 1.205.337 1.8.5l183.85-141.35c-24.8-20.067-57.15-30.1-97.05-30.1Z"/><path stroke="#161616" stroke-linecap="round" stroke-linejoin="round" stroke-width="5" d="M902.55 703.85c-24.8-20.067-57.15-30.1-97.05-30.1-40 0-79.117 10.033-117.35 30.1L504.6 845m397.95-141.15L718.7 845.2m183.85-141.35c38.233-20.067 77.35-30.1 117.35-30.1 39.87 0 72.22 10.033 97.05 30.1L933.1 845.2m-428.5-.2-.25.2m.25-.2L481 863h428.775l23.325-17.8m-428.75 0a163.565 163.565 0 0 1 7.25-3.65c35.933-17.6 72.633-26.4 110.1-26.4 37.067 0 67.617 8.65 91.65 25.95.233.167 1.133 1.1 2.7 2.8.3.341.592.616.875.825m-212.575.475c65.904-19.642 136.762-19.801 212.575-.475m-212.575.475h213.475m-.9-.475c.589.154 1.18.312 1.775.475m-1.775-.475c.31.237.61.396.9.475m.875 0a.106.106 0 0 1 .05 0m-.05 0h-.875m215.275 0c-1.767-1.433-3.55-2.8-5.35-4.1-24.033-17.3-54.6-25.95-91.7-25.95-37.433 0-74.133 8.8-110.1 26.4-2.42 1.16-4.82 2.377-7.2 3.65m214.35 0c-66.419-19.796-137.869-19.796-214.35 0m214.35 0H718.75"/><path stroke="#161616" stroke-linecap="round" stroke-linejoin="round" stroke-width="5" d="M719.1 702.6c8.267-8.033 15.65-11.117 22.15-9.25.733.233 2.133.833 4.2 1.8 1.7.767 3.083 1.25 4.15 1.45 2.767.467 5.933-.267 9.5-2.2 2-1.1 5-2.867 9-5.3 4.567-2.233 9.517-2.917 14.85-2.05 5.3.9 9.733 3.167 13.3 6.8m21.25 1.9c2 1.767 4.283 3.083 6.85 3.95 2.567.9 5.2 1.283 7.9 1.15.967-.067 3.15-.417 6.55-1.05 2.7-.5 4.883-.65 6.55-.45 3.233.367 7.083 2.25 11.55 5.65 5.233 3.933 8.967 6.3 11.2 7.1m54.5-9.35c4.3-2.4 9.267-3.733 14.9-4 2.1-.033 5.283.033 9.55.2 3.7-.067 6.683-.717 8.95-1.95m19.85-2.65c1.867-2.133 4.183-3.683 6.95-4.65 2.733-1 5.5-1.283 8.3-.85 1.933.333 4.683 1.333 8.25 3 3.67 1.733 6.47 2.783 8.4 3.15 2.37.467 7.15.283 14.35-.55 5.97-.667 10.47-.117 13.5 1.65m19.65 6c4.63-.8 8.17-.467 10.6 1 .73.467 1.63 1.25 2.7 2.35 1.23 1.3 2.08 2.15 2.55 2.55 1.4 1.167 3.22 2.083 5.45 2.75 1.3.4 3.37.85 6.2 1.35M592.6 802.6c1.267-1.567 3.117-2.583 5.55-3.05 2.033-.4 4.267-.383 6.7.05 1.433.3 3.567.817 6.4 1.55 2.5.533 4.667.733 6.5.6 1.833-.133 5.25-1.133 10.25-3 4.2-1.6 7.567-2.15 10.1-1.65m-27.75-11.85c1.567-2.7 4.533-4.367 8.9-5 1.4-.2 3.15-.267 5.25-.2 3.533.133 5.317.2 5.35.2 5.667.2 12.583-.85 20.75-3.15m319.15-64.6c3.067.867 8.417.867 16.05 0 6.933-.733 12.117-.283 15.55 1.35.47.233 1.55.867 3.25 1.9 1.33.833 2.47 1.417 3.4 1.75 2.03.8 5.52 1.133 10.45 1 4.63-.1 8.02.433 10.15 1.6m-14.85 27c2.37 0 3.87.017 4.5.05 1.7.067 3.2.267 4.5.6 1.13.267 2.78.817 4.95 1.65 2.23.867 3.92 1.433 5.05 1.7m-87-18.35c2-1.5 4.283-2.483 6.85-2.95 2.567-.467 5.033-.367 7.4.3 1.333.367 3.383 1.217 6.15 2.55 2.567 1.267 4.6 2.05 6.1 2.35 1.233.3 2.817.467 4.75.5 2.767.033 4.35.067 4.75.1 2.3.167 4.8.7 7.5 1.6 1.9.633 4.317 1.6 7.25 2.9m-18.75 22.65c2.667-.367 5.367-.25 8.1.35 2.7.567 5.2 1.567 7.5 3 1.267.8 3.133 2.083 5.6 3.85 2.27 1.4 4.37 2.117 6.3 2.15m37.85-44.5c3.5 1.3 7.17 3.3 11 6m-150.85-13.75c3.933-1.767 7.1-2.95 9.5-3.55 3.633-.867 6.883-.85 9.75.05 3.633 1.167 8.867.767 15.7-1.2 7.433-2.167 12.783-3.017 16.05-2.55m-37.15 41c2-1.8 4.367-2.983 7.1-3.55 2.7-.6 5.333-.5 7.9.3 1.333.467 3.767 1.75 7.3 3.85 2.967 1.8 5.45 2.817 7.45 3.05.933.133 2.833.083 5.7-.15 2.4-.167 4.25 0 5.55.5m-99.85 1.15c2.8-2.333 5.267-4 7.4-5 2.967-1.4 5.75-1.817 8.35-1.25.867.2 2.083.65 3.65 1.35 1.6.733 2.8 1.2 3.6 1.4 2.533.667 6.067.35 10.6-.95 5.1-1.467 8.683-2.15 10.75-2.05m-28-11.15c1.533-1.367 3.333-2.417 5.4-3.15 1.967-.733 4-1.133 6.1-1.2 1.333-.067 3.217.083 5.65.45 2.567.367 4.433.55 5.6.55 2.367 0 5.067-.483 8.1-1.45.667-.2 3.3-1.183 7.9-2.95 3.133-1.2 5.833-1.983 8.1-2.35 3-.5 5.717-.417 8.15.25m-33.5 42c2.5-1.367 5.2-2.167 8.1-2.4 2.9-.267 5.667.067 8.3 1 1.267.4 3.133 1.217 5.6 2.45 2.467 1.2 4.35 2.017 5.65 2.45 2.633.833 7.8 1.25 15.5 1.25 6.567-.033 11.433.967 14.6 3m-59.25 14.25a20.051 20.051 0 0 1 7.05.15c2.4.5 4.6 1.367 6.6 2.6 1.067.7 2.8 2.15 5.2 4.35 2.1 1.9 3.867 3.233 5.3 4 1.867 1.067 5.85 2.217 11.95 3.45 5.133 1.033 8.767 2.633 10.9 4.8m-123.35-91.5c2 2.433 4.333 4.183 7 5.25 1.567.667 4.317 1.4 8.25 2.2 3.6.7 6.3 1.55 8.1 2.55m-7.35 44.65c3.667-2.433 6.7-4.067 9.1-4.9 3.767-1.167 7.15-1.033 10.15.4 3.167 1.733 7.5 1.85 13 .35 1.467-.367 3.633-.95 6.5-1.75 2.5-.6 4.7-.85 6.6-.75m-67.85 29.65c1.8-2.067 4.033-3.617 6.7-4.65 2.7-1.067 5.417-1.433 8.15-1.1 1.667.2 4.217.917 7.65 2.15 3.233 1.167 5.767 1.817 7.6 1.95 2.433.233 6.667-.483 12.7-2.15 5.367-1.467 9.55-1.75 12.55-.85M720.85 735c3.833-2.867 8.25-4.533 13.25-5 5.033-.433 9.667.433 13.9 2.6.8.433 3.1 1.967 6.9 4.6 2.8 1.9 5.25 3.167 7.35 3.8 3.1.9 8.517.717 16.25-.55 7.067-1.2 12.317-.9 15.75.9 1.867.933 4.617 3.333 8.25 7.2 3.2 3.367 6.067 5.35 8.6 5.95m-65.75-39.65c2.333-1.8 5.05-2.933 8.15-3.4 3.1-.433 6.017-.133 8.75.9 1.067.433 2.667 1.283 4.8 2.55 2 1.2 3.567 2.017 4.7 2.45 2.433.867 5.317 1.267 8.65 1.2 1.1-.033 4.05-.3 8.85-.8 7.633-.967 13.3-.017 17 2.85m-86.65 39.5c3.9-2 7.717-3.217 11.45-3.65 4.333-.5 8.1.183 11.3 2.05 1.167.633 3.083 2.117 5.75 4.45 2.267 2 4.233 3.3 5.9 3.9 2.067.8 4.933 1.05 8.6.75 4.433-.367 7.4-.45 8.9-.25 2.9.5 5.833 1.883 8.8 4.15 2 1.533 4.433 3.867 7.3 7m-58 4.75c3.167-1.167 5.633-1.633 7.4-1.4 1.733.233 3.4.983 5 2.25.5.4 1.567 1.333 3.2 2.8 1.3 1.167 2.4 2.033 3.3 2.6 1.333.9 2.95 1.633 4.85 2.2 1.1.367 2.85.8 5.25 1.3m-103-49.25a20.215 20.215 0 0 0 6.9 1.1c2.4 0 4.683-.417 6.85-1.25 1.4-.467 3.267-1.367 5.6-2.7 2.533-1.467 4.383-2.433 5.55-2.9a23.73 23.73 0 0 1 9.5-2.05 25.313 25.313 0 0 1 9.6 1.65m-13.5-14c1.4-1.3 2.533-2.25 3.4-2.85 1.367-.933 2.7-1.517 4-1.75 1.267-.267 3.3-.15 6.1.35 4.633.9 7.883 1.433 9.75 1.6 3.7.333 6.95.1 9.75-.7m-63.85 77.1c2.433-1.7 5.167-2.733 8.2-3.1 3.033-.4 5.917-.067 8.65 1 .867.367 2.933 1.467 6.2 3.3 2.5 1.467 4.65 2.367 6.45 2.7 1.467.233 3.3.217 5.5-.05 1.233-.167 3.1-.45 5.6-.85 3.5-.433 6.983-.25 10.45.55 3.467.767 6.7 2.083 9.7 3.95m-41.9-29.6c3.4-1.433 7.483-1.65 12.25-.65 1.5.333 3.517.883 6.05 1.65 2.833.9 4.817 1.483 5.95 1.75 7.1 1.8 13.517 1.833 19.25.1m-76-12.85c3.833-2.7 8.15-4.383 12.95-5.05 4.833-.667 9.433-.2 13.8 1.4 3.8 1.3 8.717.683 14.75-1.85 3.467-1.467 5.817-2.417 7.05-2.85 2.7-.867 5.15-1.25 7.35-1.15m35.1 54.85c1.5.933 3.583 2.1 6.25 3.5.167.1.467.267.9.5.233.233.35.567.35 1m227-29.5c3.533 1.933 5.867 3.933 7 6"/></g><path fill="#161616" d="M537.212 179.7V73H242.788v106.7h294.424ZM395 43c0-1.367-.5-2.55-1.5-3.55-.967-.967-2.133-1.45-3.5-1.45s-2.55.483-3.55 1.45c-.967 1-1.45 2.183-1.45 3.55s.483 2.533 1.45 3.5c1 1 2.183 1.5 3.55 1.5s2.533-.5 3.5-1.5c1-.967 1.5-2.133 1.5-3.5Z"/><path stroke="#161616" stroke-linecap="round" stroke-linejoin="round" stroke-width="5" d="M537.212 73 390 33 242.788 73m294.424 0H242.788m294.424 0v106.7H242.788V73"/><path fill="#fff" d="m283.353 119.194 4.555 22.389h1.637l4.555-22.389h13.305v35.267h-7.266v-29.082h-1.638l-6.346 29.082h-6.857l-6.346-29.082h-1.637v29.082h-7.267v-35.267h13.305Zm41.91 7.463c8.393 0 13.254 5.009 13.254 14.159s-4.861 14.159-13.254 14.159-13.254-5.009-13.254-14.159 4.861-14.159 13.254-14.159Zm0 22.693c3.787 0 5.578-2.045 5.578-6.543v-3.987c0-4.498-1.791-6.543-5.578-6.543-3.787 0-5.578 2.045-5.578 6.543v3.987c0 4.498 1.791 6.543 5.578 6.543Zm16.222-.153 13.869-16.767H341.69v-5.264h22.312v5.264l-13.868 16.767h14.073v5.264h-22.722v-5.264Zm26.506-22.029h10.235v27.293h-7.267V132.43h-2.968v-5.264.002Zm2.968-7.974h7.267v5.265h-7.267v-5.265Zm12.078 0h10.235v35.267h-7.267v-30.002h-2.968v-5.265Zm15.045 0h10.235v35.267h-7.267v-30.002h-2.968v-5.265Zm25.841 7.463c4.043 0 6.704 1.993 7.471 5.469h1.638v-4.958h8.648v5.265h-2.968v16.766h2.968v5.265h-4.145c-2.917 0-4.503-1.585-4.503-4.498v-.46h-1.638c-.767 3.476-3.428 5.469-7.471 5.469-6.397 0-10.9-5.418-10.9-14.159s4.503-14.159 10.9-14.159Zm2.149 22.693c3.685 0 5.373-2.045 5.373-6.543v-3.987c0-4.498-1.688-6.543-5.373-6.543-3.684 0-5.373 2.045-5.373 6.543v3.987c0 4.498 1.689 6.543 5.373 6.543Zm42.634 5.111h-7.267V97.725h7.267v56.736Zm5.936-27.804h28.76v-1.636l-18.73-6.798v-5.725l18.73-6.799v-1.636h-22.21v-6.338h28.761v11.45l-15.25 5.265v1.636l15.25 5.265v11.654h-35.309v-6.338h-.002Zm0-22.594h6.55v6.543h-6.55v-6.543Z"/><path fill="url(#o)" d="M928.142 517.15H806.55v121.592h121.592V517.15Z"/></g></g><defs><clipPath id="a"><path fill="#fff" d="M0-87h1080V993H0z"/></clipPath><pattern id="o" width="1" height="1" patternContentUnits="objectBoundingBox"/></defs><path d="M851.567 557.134Zm-14.532-7.213Zm86.98 11.131c-2.628-6.265-7.939-13.028-12.111-15.166a61.899 61.899 0 0 1 6.114 18.188l.011.1c-6.838-16.883-18.411-23.692-27.864-38.522a73.679 73.679 0 0 1-1.422-2.294 20.146 20.146 0 0 1-.665-1.237 10.856 10.856 0 0 1-.901-2.373.155.155 0 0 0-.138-.154.236.236 0 0 0-.112 0c-.009 0-.022.013-.031.016-.01.004-.029.018-.043.023l.024-.034c-13.425 7.8-18.989 21.469-20.421 30.16a32.349 32.349 0 0 0-11.962 3.029 1.534 1.534 0 1 0 1.291 2.784 29.42 29.42 0 0 1 10.417-2.701l.353-.025a31.99 31.99 0 0 1 1.491-.052 30.66 30.66 0 0 1 8.664 1.192c.166.048.327.104.49.155.463.143.927.296 1.39.462.338.124.67.257 1.003.392.27.108.538.217.805.33.415.184.826.376 1.237.576.187.093.372.184.556.28a29.474 29.474 0 0 1 1.917 1.087 30.782 30.782 0 0 1 10.558 10.843 20.964 20.964 0 0 0-14.549-3.516c21.716 10.777 15.886 47.883-14.206 46.481a26.89 26.89 0 0 1-7.856-1.502 32.158 32.158 0 0 1-1.773-.721 22.419 22.419 0 0 1-1.017-.482c-7.375-3.782-13.463-10.931-14.223-19.61 0 0 2.782-10.308 19.955-10.308 1.855 0 7.163-5.139 7.267-6.63-.023-.486-10.531-4.638-14.627-8.642-2.189-2.141-3.228-3.172-4.149-3.946-.5-.419-1.021-.809-1.564-1.173a27.567 27.567 0 0 1-.168-14.645 44.718 44.718 0 0 0-14.533 11.146h-.027c-2.408-3.008-2.242-12.933-2.102-15.006-.706.284-1.38.64-2.011 1.062a44.185 44.185 0 0 0-5.899 5.017 52.418 52.418 0 0 0-5.644 6.719v.009-.011a50.377 50.377 0 0 0-8.101 18.155 67.464 67.464 0 0 0-.985 5.522c-.07.464-.133.928-.194 1.41a40.676 40.676 0 0 0-.358 3.432 204.665 204.665 0 0 0-.132 2.171v.309c.421 46.508 51.029 75.119 91.092 51.501a60.415 60.415 0 0 0 28.787-41.375c.103-.772.184-1.539.274-2.32a61.14 61.14 0 0 0-3.916-30.098l.008-.008Zm-41.226 17.987Z" style="stroke-width:1px;fill:#fff"/></svg>
