<svg xmlns="http://www.w3.org/2000/svg" xml:space="preserve" id="Layer_1" x="0" y="0" version="1.1" viewBox="0 0 640 360">
  <style>
    .st0{fill:#333336}.st1,.st2{fill:#0290ff;stroke:#333336;stroke-width:1.8}.st2{fill:#f8f6f4}
  </style>
  <path d="M0 0h640v360H0z" class="st0"/>
  <path d="M84 64c0-3.3 2.7-6 6-6h261.3c3.3 0 6 2.7 6 6v14H84V64z" class="st1"/>
  <circle cx="97.7" cy="67.8" r="2.7" class="st0"/>
  <circle cx="108" cy="67.8" r="2.7" class="st0"/>
  <circle cx="118.3" cy="67.8" r="2.7" class="st0"/>
  <path d="M84 78h273.3v158c0 3.3-2.7 6-6 6H90c-3.3 0-6-2.7-6-6V78z" class="st2"/>
  <path fill="#ff7139" stroke="#333336" stroke-width="1.8" d="M281.7 123.3c0-3.3 2.7-6 6-6H549c3.3 0 6 2.7 6 6v14H281.7v-14z"/>
  <circle cx="295.4" cy="127.1" r="2.7" class="st0"/>
  <circle cx="305.6" cy="127.1" r="2.7" class="st0"/>
  <circle cx="315.9" cy="127.1" r="2.7" class="st0"/>
  <path d="M281.7 137.3H555v158c0 3.3-2.7 6-6 6H287.7c-3.3 0-6-2.7-6-6v-158z" class="st2"/>
  <path d="M122.1 219h40.5c3.5 0 6.4 2.9 6.4 6.4v40.5c0 3.5-2.9 6.4-6.4 6.4h-40.5c-3.5 0-6.4-2.9-6.4-6.4v-40.5c0-3.5 2.8-6.4 6.4-6.4z" class="st1"/>
  <path fill="#fff" fill-rule="evenodd" d="m144.3 228.3-17.8 21.3h16l-1.8 14.2 17.8-21.3h-16l1.8-14.2z" clip-rule="evenodd"/>
  <path fill="#fbf0ba" stroke="#333336" stroke-width="1.8" d="M324.7 161.7h128v32h-128z"/>
  <path d="M404 181.7v-8.5h3.5c2 0 3.1 1.3 3.1 2.9 0 1.1-.5 2-1.5 2.5l1.7 3.1H409l-1.4-2.7h-1.9v2.7H404zm3.4-7.1h-1.7v2.8h1.7c1.1 0 1.6-.7 1.6-1.4-.1-.8-.6-1.4-1.6-1.4zm5.9 7.2c-1.4 0-2.2-.8-2.2-1.9 0-1.3 1.1-2.1 2.8-2.1h1.7v-.1c0-.7-.5-1.1-1.4-1.1-.7 0-1.2.3-1.5.8l-1.5-.7c.6-.8 1.6-1.4 3-1.4 1.9 0 2.9 1 2.9 2.6v3.9h-1.6v-1c-.4.6-1.2 1-2.2 1zm.5-1.3c.8 0 1.5-.5 1.8-1.1v-.4h-1.5c-1 0-1.3.3-1.3.8 0 .4.3.7 1 .7zm8 1.3c-.9 0-1.6-.3-2-.9v3.3h-1.6v-8.8h1.6v.9c.4-.6 1.1-1 2-1 1.6 0 3 1.3 3 3.3 0 1.9-1.4 3.2-3 3.2zm-.3-1.5c1 0 1.7-.8 1.7-1.8s-.8-1.8-1.7-1.8c-1 0-1.8.8-1.8 1.8s.8 1.8 1.8 1.8zm4.2 1.4v-6.3h1.6v6.3h-1.6zm-.2-8.1c0-.6.4-1.1 1-1.1s1 .4 1 1.1c0 .6-.4 1-1 1s-1-.4-1-1zm5.7 8.2c-1.6 0-3-1.3-3-3.3 0-2 1.5-3.3 3.1-3.3.8 0 1.5.4 2 .9v-3.7h1.6v9.2h-1.6v-.9c-.5.7-1.2 1.1-2.1 1.1zm.4-1.5c1 0 1.8-.8 1.8-1.8s-.8-1.8-1.8-1.8-1.8.8-1.8 1.8.8 1.8 1.8 1.8zm7.4 1.5c-2 0-3.3-1.4-3.3-3.3 0-1.8 1.4-3.3 3.3-3.3s3.3 1.4 3.3 3.2v.6h-5c.2.8.9 1.3 1.8 1.3.7 0 1.3-.3 1.6-.8l1.3.8c-.7.9-1.6 1.5-3 1.5zm0-5.2c-.8 0-1.4.5-1.7 1.2h3.4c-.3-.8-.9-1.2-1.7-1.2z" class="st0"/>
  <path d="M325.4 209.7v-8.5h2.8c2.7 0 4.5 1.8 4.5 4.3 0 2.4-1.9 4.3-4.4 4.3h-2.9zm2.7-7h-1v5.5h1c1.7 0 2.9-1.2 2.9-2.7 0-1.7-1.1-2.8-2.9-2.8zm8.6 7.1c-2 0-3.3-1.4-3.3-3.3 0-1.8 1.4-3.3 3.3-3.3s3.3 1.4 3.3 3.2v.6h-5c.2.8.9 1.3 1.8 1.3.7 0 1.3-.3 1.6-.8l1.3.8c-.7.9-1.6 1.5-3 1.5zm0-5.2c-.8 0-1.5.5-1.7 1.2h3.4c-.3-.8-.9-1.2-1.7-1.2zm-.8-2 1.3-2h1.6l-1.8 2h-1.1zm8.5 7.2c-.8 0-1.6-.4-2-1v.9h-1.6v-9.2h1.6v3.8c.4-.6 1.1-1 2-1 1.6 0 3 1.3 3 3.3 0 1.9-1.4 3.2-3 3.2zm-.3-1.5c1 0 1.7-.8 1.7-1.8s-.8-1.8-1.7-1.8c-1 0-1.8.8-1.8 1.8s.8 1.8 1.8 1.8zm6.6 1.5c-1.6 0-2.5-1-2.5-2.7v-3.8h1.6v3.6c0 .9.4 1.4 1.3 1.4.8 0 1.3-.6 1.3-1.5v-3.5h1.6v6.3h-1.6v-.8c-.2.6-.9 1-1.7 1zm4.2-5v-1.4h1.2V202l1.6-.9v2.3h1.7v1.4h-1.7v2.6c0 .7.3.9.7.9.2 0 .4-.1.6-.2l.7 1.3c-.4.3-.9.5-1.5.5-1.3 0-2.1-.6-2.1-2.4v-2.7h-1.2zm7.8 4.9v-1.4c0-1.5 1.3-2.4 2.4-3.1.9-.6 1.8-1.1 1.8-1.7 0-.6-.4-1-1.2-1-.8 0-1.3.5-1.6 1.2l-1.5-.7c.6-1.2 1.7-1.9 3.1-1.9 1.8 0 2.9 1.1 2.9 2.5s-1.2 2.1-2.2 2.8c-.9.6-1.8 1.1-1.8 1.9h4.1v1.6h-6zm9.9-1.5c1 0 1.7-.6 1.7-2.7v-.4c0-2.1-.7-2.6-1.7-2.6s-1.7.6-1.7 2.6v.4c0 2.1.7 2.7 1.7 2.7zm0 1.6c-2 0-3.3-1.1-3.3-4.2v-.4c0-3 1.5-4.1 3.3-4.1 1.9 0 3.3 1.2 3.3 4.1v.4c.1 3.1-1.3 4.2-3.3 4.2zm4.1-.1v-1.4c0-1.5 1.3-2.4 2.4-3.1.9-.6 1.8-1.1 1.8-1.7 0-.6-.4-1-1.2-1-.8 0-1.3.5-1.6 1.2l-1.5-.7c.6-1.2 1.7-1.9 3.1-1.9 1.8 0 2.9 1.1 2.9 2.5s-1.2 2.1-2.2 2.8c-.9.6-1.8 1.1-1.8 1.9h4.1v1.6h-6zm9.5.1c-1.5 0-2.4-.5-3.2-1.5l1.4-1c.4.7 1 1 1.8 1s1.4-.4 1.4-1.2c0-.7-.6-1.1-1.5-1.1h-.9v-1.5h.9c.9 0 1.4-.5 1.4-1.1 0-.6-.4-1-1.3-1-.8 0-1.3.3-1.6.9l-1.4-.8c.6-.9 1.6-1.5 3-1.5 1.8 0 2.9 1 2.9 2.4 0 .8-.4 1.4-1 1.8.7.4 1.2 1 1.2 1.9 0 1.5-1.2 2.7-3.1 2.7z" class="st0"/>
  <path fill="#fbb397" stroke="#333336" stroke-width="1.8" d="M324.7 227.7h187v32h-187z"/>
  <path d="M397.7 247.7v-8.5h5.7v1.6h-4.1v1.9h4.1v1.6h-4.1v1.9h4.1v1.6h-5.7zm6.8 0v-6.3h1.6v.8c.4-.6 1.1-.9 1.8-.9 1.5 0 2.4 1 2.4 2.6v3.8h-1.6v-3.6c0-.9-.4-1.5-1.3-1.5-.8 0-1.3.6-1.3 1.5v3.5h-1.6zm10.1.1c-1.9 0-3.3-1.5-3.3-3.3 0-1.9 1.4-3.3 3.3-3.3 1.5 0 2.6.8 3.1 2l-1.5.6c-.3-.7-.8-1.1-1.6-1.1-1 0-1.7.8-1.7 1.8s.8 1.8 1.7 1.8c.7 0 1.3-.5 1.6-1.1l1.5.6c-.5 1.2-1.6 2-3.1 2zm6.9 0c-1.9 0-3.3-1.5-3.3-3.3 0-1.8 1.4-3.3 3.3-3.3s3.3 1.5 3.3 3.3c0 1.8-1.4 3.3-3.3 3.3zm0-1.5c1 0 1.7-.8 1.7-1.8s-.8-1.8-1.7-1.8c-1 0-1.7.8-1.7 1.8s.7 1.8 1.7 1.8zm4.2 1.4v-6.3h1.6v1c.3-.7.9-1.1 1.7-1.1.4 0 .8.1 1.1.2l-.6 1.6c-.2-.1-.5-.2-.8-.2-.8 0-1.4.4-1.4 1.5v3.3h-1.6zm7.6.1c-2 0-3.3-1.4-3.3-3.3 0-1.8 1.4-3.3 3.3-3.3s3.3 1.4 3.3 3.2v.6h-5c.2.8.9 1.3 1.8 1.3.7 0 1.3-.3 1.6-.8l1.3.8c-.7.9-1.6 1.5-3 1.5zm0-5.2c-.8 0-1.5.5-1.7 1.2h3.4c-.2-.8-.8-1.2-1.7-1.2zm10.3 5.2c-.9 0-1.6-.3-2-.9v3.3H440v-8.8h1.6v.9c.4-.6 1.1-1 2-1 1.6 0 3 1.3 3 3.3 0 1.9-1.5 3.2-3 3.2zm-.4-1.5c1 0 1.7-.8 1.7-1.8s-.8-1.8-1.7-1.8c-1 0-1.8.8-1.8 1.8.1 1 .8 1.8 1.8 1.8zm4.2 1.4v-9.2h1.6v9.2h-1.6zm5.2.1c-1.6 0-2.5-1-2.5-2.7v-3.8h1.6v3.6c0 .9.4 1.4 1.3 1.4.8 0 1.3-.6 1.3-1.5v-3.5h1.6v6.3h-1.6v-.8c-.3.6-1 1-1.7 1zm7 0c-1.5 0-2.4-.6-2.9-1.6l1.6-.6c.3.6.8.9 1.5.9s1-.3 1-.7c0-.5-.7-.6-1.5-.7-1.1-.2-2.2-.6-2.2-1.9 0-1.1 1-2 2.6-2 1.3 0 2.1.5 2.7 1.3l-1.5.6c-.3-.4-.7-.7-1.2-.7-.6 0-.9.3-.9.6 0 .4.5.5 1.4.7 1.1.2 2.3.6 2.3 1.9-.2 1.1-1.1 2.2-2.9 2.2zm6.1-.1v-6.3h1.6v1c.3-.7.9-1.1 1.7-1.1.4 0 .8.1 1.1.2l-.6 1.6c-.2-.1-.5-.2-.8-.2-.8 0-1.4.4-1.4 1.5v3.3h-1.6zm6.6.1c-1.4 0-2.2-.8-2.2-1.9 0-1.3 1.1-2.1 2.8-2.1h1.7v-.1c0-.7-.5-1.1-1.4-1.1-.7 0-1.2.3-1.5.8l-1.5-.7c.6-.8 1.6-1.4 3-1.4 1.9 0 2.9 1 2.9 2.6v3.9h-1.6v-1c-.4.6-1.2 1-2.2 1zm.5-1.3c.8 0 1.5-.5 1.8-1.1v-.4h-1.5c-1 0-1.3.3-1.3.8 0 .4.3.7 1 .7zm8 1.3c-.9 0-1.6-.3-2-.9v3.3h-1.6v-8.8h1.6v.9c.4-.6 1.1-1 2-1 1.6 0 3 1.3 3 3.3 0 1.9-1.4 3.2-3 3.2zm-.3-1.5c1 0 1.7-.8 1.7-1.8s-.8-1.8-1.7-1.8c-1 0-1.8.8-1.8 1.8s.8 1.8 1.8 1.8zm4.2 1.4v-6.3h1.6v6.3h-1.6zm-.2-8.1c0-.6.4-1.1 1-1.1s1 .4 1 1.1c0 .6-.4 1-1 1s-1-.4-1-1zm5.7 8.2c-1.6 0-3-1.3-3-3.3 0-2 1.5-3.3 3.1-3.3.8 0 1.5.4 2 .9v-3.7h1.6v9.2h-1.6v-.9c-.5.7-1.2 1.1-2.1 1.1zm.4-1.5c1 0 1.8-.8 1.8-1.8s-.8-1.8-1.8-1.8-1.8.8-1.8 1.8.8 1.8 1.8 1.8zm7.4 1.5c-2 0-3.3-1.4-3.3-3.3 0-1.8 1.4-3.3 3.3-3.3s3.3 1.4 3.3 3.2v.6h-5c.2.8.9 1.3 1.8 1.3.7 0 1.3-.3 1.6-.8l1.3.8c-.7.9-1.6 1.5-3 1.5zm0-5.2c-.8 0-1.4.5-1.7 1.2h3.4c-.3-.8-.9-1.2-1.7-1.2z" class="st0"/>
  <path d="m324.8 275.7 3.2-8.5h1.6l3.2 8.5h-1.7l-.6-1.6h-3.6l-.6 1.6h-1.5zm4.1-6.5-1.2 3.4h2.5l-1.3-3.4zm6.7 6.6c-1.6 0-2.5-1-2.5-2.7v-3.8h1.6v3.6c0 .9.4 1.4 1.3 1.4.8 0 1.3-.5 1.3-1.5v-3.5h1.6v6.3h-1.6v-.8c-.3.6-.9 1-1.7 1zm3.3 2.4v-1.5c1.1 0 1.2-.2 1.2-1.2v-6.1h1.6v6.2c0 2-.6 2.7-2.7 2.7h-.1zm1-10.6c0-.6.4-1.1 1-1.1s1 .4 1 1.1c0 .6-.4 1-1 1s-1-.4-1-1zm6.1 8.2c-1.9 0-3.3-1.5-3.3-3.3 0-1.8 1.4-3.3 3.3-3.3s3.3 1.5 3.3 3.3c0 1.8-1.4 3.3-3.3 3.3zm0-1.5c1 0 1.7-.8 1.7-1.8s-.8-1.8-1.7-1.8c-1 0-1.7.8-1.7 1.8-.1 1 .7 1.8 1.7 1.8zm6.6 1.5c-1.6 0-2.5-1-2.5-2.7v-3.8h1.6v3.6c0 .9.4 1.4 1.3 1.4.8 0 1.3-.5 1.3-1.5v-3.5h1.6v6.3h-1.6v-.8c-.3.6-.9 1-1.7 1zm4.5-.1v-6.3h1.6v1c.3-.7.9-1.1 1.7-1.1.4 0 .8.1 1.1.2l-.6 1.6c-.2-.1-.5-.2-.8-.2-.8 0-1.4.4-1.4 1.5v3.3h-1.6zm7.4.1c-1.6 0-3-1.3-3-3.3 0-2 1.5-3.3 3.1-3.3.8 0 1.5.4 2 .9v-3.7h1.6v9.2h-1.6v-.9c-.6.7-1.3 1.1-2.1 1.1zm.3-1.5c1 0 1.8-.8 1.8-1.8s-.8-1.8-1.8-1.8-1.8.8-1.8 1.8.8 1.8 1.8 1.8zm5-3.7-.5-.5c.7-.5 1-.9 1.1-1.5-.1.2-.3.3-.5.3-.5 0-.8-.4-.8-.9 0-.6.4-1.1 1.1-1.1.8 0 1.2.6 1.2 1.3-.2 1.1-.8 1.8-1.6 2.4zm2.3 5.1v-9.2h1.6v3.7c.4-.6 1.1-.9 1.8-.9 1.5 0 2.5 1 2.5 2.6v3.8h-1.7v-3.6c0-.9-.4-1.5-1.3-1.5-.8 0-1.3.6-1.3 1.5v3.5h-1.6zm9.3.1c-1.6 0-2.5-1-2.5-2.7v-3.8h1.6v3.6c0 .9.4 1.4 1.3 1.4.8 0 1.3-.5 1.3-1.5v-3.5h1.6v6.3h-1.6v-.8c-.3.6-.9 1-1.7 1zm4.5-.1v-6.3h1.7v6.3h-1.7zm-.2-8.1c0-.6.4-1.1 1-1.1s1 .4 1 1.1c0 .6-.4 1-1 1s-1-.4-1-1z" class="st0"/>
  <path d="m122.9 128.3-6.9-18.2h3.7l4.9 13.5 4.9-13.5h3.7l-6.9 18.2h-3.4zm11.8 0v-13.4h3.5v13.4h-3.5zm-.4-17.2c0-1.3.9-2.2 2.2-2.2 1.3 0 2.2.9 2.2 2.2 0 1.3-.9 2.2-2.2 2.2-1.3 0-2.2-.9-2.2-2.2zm5.6 6.8v-3h2.5V112l3.4-2v4.9h3.5v3h-3.5v5.5c0 1.4.6 1.9 1.5 1.9.5 0 .8-.1 1.2-.5l1.6 2.7c-.9.6-2 1-3.2 1-2.8 0-4.5-1.3-4.5-5v-5.7h-2.5zm17.5 10.7c-4.3 0-7.1-3.1-7.1-7s3-7 7-7 6.9 2.9 6.9 6.9v1.3h-10.7c.4 1.7 1.9 2.8 3.9 2.8 1.6 0 2.7-.7 3.3-1.8l2.8 1.6c-1.3 2-3.2 3.2-6.1 3.2zm-.1-11.1c-1.7 0-3.1 1-3.6 2.6h7.2c-.5-1.7-1.8-2.6-3.6-2.6zm14.3 11.1c-3.2 0-5.2-1.2-6.3-3.3l3.3-1.3c.6 1.2 1.7 1.8 3.1 1.8 1.4 0 2.1-.7 2.1-1.5 0-1-1.4-1.2-3.2-1.5-2.3-.5-4.8-1.2-4.8-4 0-2.3 2.2-4.2 5.5-4.2 2.8 0 4.5 1.1 5.8 2.9l-3.1 1.3c-.5-.9-1.4-1.4-2.6-1.4-1.3 0-2 .5-2 1.3s1.1 1.1 3.1 1.5c2.2.4 4.9 1.2 4.9 4.1 0 2-1.9 4.3-5.8 4.3zm13 0c-3.2 0-5.2-1.2-6.3-3.3l3.3-1.3c.6 1.2 1.7 1.8 3.1 1.8 1.4 0 2.1-.7 2.1-1.5 0-1-1.4-1.2-3.2-1.5-2.3-.5-4.8-1.2-4.8-4 0-2.3 2.2-4.2 5.5-4.2 2.8 0 4.5 1.1 5.8 2.9l-3.1 1.3c-.5-.9-1.4-1.4-2.6-1.4-1.3 0-2 .5-2 1.3s1.1 1.1 3.1 1.5c2.2.4 4.9 1.2 4.9 4.1-.1 2-1.9 4.3-5.8 4.3zm14.3 0c-4.3 0-7.1-3.1-7.1-7s3-7 7-7 6.9 2.9 6.9 6.9v1.3H195c.4 1.7 1.9 2.8 3.9 2.8 1.6 0 2.7-.7 3.3-1.8l2.8 1.6c-1.2 2-3.1 3.2-6.1 3.2zm-.1-11.1c-1.7 0-3.1 1-3.6 2.6h7.2c-.5-1.7-1.8-2.6-3.6-2.6zm20.6 11.1c-3.3 0-6.5-2.7-6.5-7s3.1-7 6.5-7c1.8 0 3.2.7 4.2 2v-7.9h3.4v19.6h-3.4v-1.8c-.9 1.3-2.4 2.1-4.2 2.1zm.7-3.2c2.1 0 3.7-1.7 3.7-3.8 0-2.1-1.6-3.8-3.7-3.8s-3.7 1.7-3.7 3.8c0 2.1 1.6 3.8 3.7 3.8zm16 3.2c-4.3 0-7.1-3.1-7.1-7s3-7 7-7 6.9 2.9 6.9 6.9v1.3h-10.7c.4 1.7 1.9 2.8 3.9 2.8 1.6 0 2.7-.7 3.3-1.8l2.8 1.6c-1.2 2-3.1 3.2-6.1 3.2zm0-11.1c-1.7 0-3.1 1-3.6 2.6h7.2c-.5-1.7-1.8-2.6-3.6-2.6zm-112.4 38.1c-4 0-7.1-3.1-7.1-7 0-4 3.1-7 7-7 3.1 0 5.5 1.7 6.5 4.3l-3.2 1.3c-.5-1.4-1.8-2.3-3.3-2.3-2.1 0-3.7 1.7-3.7 3.8 0 2 1.6 3.7 3.7 3.7 1.6 0 2.8-1 3.3-2.3l3.2 1.3c-1 2.4-3.2 4.2-6.4 4.2zm8.3-.3v-19.6h3.4v7.8c.9-1.2 2.3-1.9 3.9-1.9 3.2 0 5.2 2.1 5.2 5.6v8.1H141v-7.6c0-1.9-.9-3.1-2.7-3.1-1.6 0-2.9 1.2-2.9 3.3v7.4H132zm19.1.3c-2.9 0-4.7-1.6-4.7-4 0-2.8 2.3-4.5 6.1-4.5h3.5v-.2c0-1.4-1-2.4-2.9-2.4-1.5 0-2.5.6-3.2 1.8l-3.2-1.6c1.4-1.8 3.3-3.1 6.3-3.1 4 0 6.2 2.1 6.2 5.5v8.3h-3.3v-2.1c-.8 1.4-2.6 2.3-4.8 2.3zm1-2.8c1.6 0 3.3-1 3.9-2.4v-.7h-3.2c-2 0-2.9.6-2.9 1.7.1.9.8 1.4 2.2 1.4zm9.7 2.5v-13.4h3.4v2.1c.6-1.6 2-2.3 3.7-2.3.9 0 1.7.2 2.3.5l-1.2 3.4c-.4-.3-1-.5-1.8-.5-1.8 0-2.9.9-2.9 3.2v7.1h-3.5zm15.9.2c-3.3 0-6.5-2.7-6.5-6.9 0-4.3 3.1-7 6.5-7 1.8 0 3.3.8 4.2 2v-1.8h3.4v12.5c0 3.9-2.9 6.7-7 6.7-3.1 0-5.1-.9-6.6-2.7l2.8-2.2c.9 1.2 1.9 1.8 3.7 1.8 2.2 0 3.7-1.5 3.7-3.6v-1c-.9 1.4-2.4 2.2-4.2 2.2zm.7-3.2c2.1 0 3.7-1.7 3.7-3.8 0-2.1-1.6-3.8-3.7-3.8s-3.7 1.6-3.7 3.8c0 2.2 1.6 3.8 3.7 3.8zm16.1 3.3c-4.3 0-7.1-3.1-7.1-7s3-7 7-7 6.9 2.9 6.9 6.9v1.3h-10.7c.4 1.7 1.9 2.8 3.9 2.8 1.6 0 2.7-.7 3.3-1.8l2.8 1.6c-1.2 2-3.1 3.2-6.1 3.2zm0-11.1c-1.7 0-3.1 1-3.6 2.6h7.2c-.5-1.7-1.8-2.6-3.6-2.6zm8.9 10.8v-13.4h3.4v1.6c.8-1.2 2.1-1.9 3.7-1.9 2 0 3.4.8 4.1 2.3.8-1.4 2.4-2.3 4.2-2.3 3.4 0 5.1 2.1 5.1 5.5v8.3h-3.5v-7.8c0-1.8-.7-2.9-2.5-2.9-1.5 0-2.6 1-2.6 3.2v7.5h-3.5v-7.9c0-1.8-.7-2.8-2.4-2.8-1.6 0-2.6 1.1-2.6 3.2v7.5h-3.4zm29.7.3c-4.3 0-7.1-3.1-7.1-7s3-7 7-7 6.9 2.9 6.9 6.9v1.3h-10.7c.4 1.7 1.9 2.8 3.9 2.8 1.6 0 2.7-.7 3.3-1.8l2.8 1.6c-1.3 2-3.1 3.2-6.1 3.2zm-.1-11.1c-1.7 0-3.1 1-3.6 2.6h7.2c-.5-1.7-1.8-2.6-3.6-2.6zm9 10.8v-13.4h3.4v1.7c.9-1.2 2.3-2 3.9-2 3.2 0 5.2 2.1 5.2 5.6v8.1H251v-7.6c0-1.9-.9-3.1-2.7-3.1-1.6 0-2.9 1.2-2.9 3.3v7.4H242zm13.7-10.4v-3h2.5V139l3.4-2v4.9h3.5v3h-3.5v5.5c0 1.4.6 1.9 1.5 1.9.5 0 .8-.1 1.2-.5l1.6 2.7c-.9.6-2 1-3.2 1-2.8 0-4.5-1.3-4.5-5v-5.7h-2.5zm-132.6 37.7c-3.3 0-6.5-2.7-6.5-7s3.1-7 6.5-7c1.8 0 3.2.7 4.2 2v-7.9h3.4v19.6h-3.4v-1.8c-1 1.3-2.5 2.1-4.2 2.1zm.6-3.2c2.1 0 3.7-1.7 3.7-3.8 0-2.1-1.6-3.8-3.7-3.8s-3.7 1.7-3.7 3.8c0 2.1 1.7 3.8 3.7 3.8zm16.1 3.2c-4.3 0-7.1-3.1-7.1-7s3-7 7-7 6.9 2.9 6.9 6.9v1.3H136c.4 1.7 1.9 2.8 3.9 2.8 1.6 0 2.7-.7 3.3-1.8l2.8 1.6c-1.4 2-3.3 3.2-6.2 3.2zm-.1-11.1c-1.7 0-3.1 1-3.6 2.6h7.2c-.5-1.7-1.8-2.6-3.6-2.6zm14.3 11.1c-3.2 0-5.2-1.2-6.3-3.3l3.3-1.3c.6 1.2 1.7 1.8 3.1 1.8 1.4 0 2.1-.7 2.1-1.5 0-1-1.4-1.2-3.2-1.5-2.3-.5-4.8-1.2-4.8-4 0-2.3 2.2-4.2 5.5-4.2 2.8 0 4.5 1.1 5.8 2.9l-3.1 1.3c-.5-.9-1.4-1.4-2.6-1.4-1.3 0-2 .5-2 1.3s1.1 1.1 3.1 1.5c2.2.4 4.9 1.2 4.9 4.1 0 2-1.9 4.3-5.8 4.3zm20.9 0c-1.8 0-3.3-.7-4.2-1.9v7h-3.4v-18.8h3.4v1.9c.9-1.3 2.4-2.1 4.2-2.1 3.4 0 6.5 2.7 6.5 7s-3.2 6.9-6.5 6.9zm-.7-3.2c2.1 0 3.7-1.7 3.7-3.8 0-2.1-1.6-3.8-3.7-3.8s-3.7 1.7-3.7 3.8c0 2.1 1.6 3.8 3.7 3.8zm13.2 3.2c-2.9 0-4.7-1.6-4.7-4 0-2.8 2.3-4.5 6.1-4.5h3.5v-.2c0-1.4-1-2.4-2.9-2.4-1.5 0-2.5.6-3.2 1.8l-3.2-1.6c1.4-1.8 3.3-3.1 6.4-3.1 4 0 6.2 2.1 6.2 5.5v8.3h-3.3v-2.1c-.9 1.4-2.8 2.3-4.9 2.3zm1-2.8c1.6 0 3.3-1 3.9-2.4v-.7h-3.2c-2 0-2.9.6-2.9 1.7.1.9.8 1.4 2.2 1.4zm15.7 2.7c-3.3 0-6.5-2.7-6.5-6.9 0-4.3 3.1-7 6.5-7 1.8 0 3.3.8 4.2 2v-1.8h3.4v12.5c0 3.9-2.9 6.7-7 6.7-3.1 0-5.1-.9-6.6-2.7l2.8-2.2c.9 1.2 1.9 1.8 3.7 1.8 2.2 0 3.7-1.5 3.7-3.6v-1c-.9 1.4-2.5 2.2-4.2 2.2zm.7-3.2c2.1 0 3.7-1.7 3.7-3.8 0-2.1-1.6-3.8-3.7-3.8s-3.7 1.6-3.7 3.8c-.1 2.2 1.6 3.8 3.7 3.8zm16.1 3.3c-4.3 0-7.1-3.1-7.1-7s3-7 7-7 6.9 2.9 6.9 6.9v1.3H217c.4 1.7 1.9 2.8 3.9 2.8 1.6 0 2.7-.7 3.3-1.8l2.8 1.6c-1.2 2-3.1 3.2-6.1 3.2zm-.1-11.1c-1.7 0-3.1 1-3.6 2.6h7.2c-.5-1.7-1.8-2.6-3.6-2.6zm14.3 11.1c-3.2 0-5.2-1.2-6.3-3.3l3.3-1.3c.6 1.2 1.7 1.8 3.1 1.8 1.4 0 2.1-.7 2.1-1.5 0-1-1.4-1.2-3.2-1.5-2.3-.5-4.8-1.2-4.8-4 0-2.3 2.2-4.2 5.5-4.2 2.8 0 4.5 1.1 5.8 2.9l-3.1 1.3c-.5-.9-1.4-1.4-2.6-1.4-1.3 0-2 .5-2 1.3s1.1 1.1 3.1 1.5c2.2.4 4.9 1.2 4.9 4.1 0 2-1.8 4.3-5.8 4.3z" class="st0"/>
</svg>
