<?xml version="1.0" encoding="utf-8"?>
<!-- Generator: Adobe Illustrator 16.0.0, SVG Export Plug-In . SVG Version: 6.00 Build 0)  -->
<!DOCTYPE svg PUBLIC "-//W3C//DTD SVG 1.1//EN" "http://www.w3.org/Graphics/SVG/1.1/DTD/svg11.dtd">
<svg version="1.1" id="AR_Download_on_the_App_Store"
	 xmlns="http://www.w3.org/2000/svg" xmlns:xlink="http://www.w3.org/1999/xlink" x="0px" y="0px" width="135px" height="40px"
	 viewBox="0 0 135 40" enable-background="new 0 0 135 40" xml:space="preserve">
<g>
	<path fill="#A6A6A6" d="M130.197,40H4.729C2.122,40,0,37.872,0,35.267V4.726C0,2.12,2.122,0,4.729,0h125.468
		C132.803,0,135,2.12,135,4.726v30.541C135,37.872,132.803,40,130.197,40L130.197,40z"/>
	<path d="M134.032,35.268c0,2.116-1.714,3.83-3.834,3.83H4.729c-2.119,0-3.839-1.714-3.839-3.83V4.725
		c0-2.115,1.72-3.835,3.839-3.835h125.468c2.121,0,3.834,1.72,3.834,3.835L134.032,35.268L134.032,35.268z"/>
	<g>
		<g>
			<path fill="#FFFFFF" d="M30.128,19.784c-0.029-3.223,2.639-4.791,2.761-4.864c-1.511-2.203-3.853-2.504-4.676-2.528
				c-1.967-0.207-3.875,1.177-4.877,1.177c-1.022,0-2.565-1.157-4.228-1.123c-2.14,0.033-4.142,1.272-5.24,3.196
				c-2.266,3.923-0.576,9.688,1.595,12.859c1.086,1.553,2.355,3.287,4.016,3.226c1.625-0.067,2.232-1.036,4.193-1.036
				c1.943,0,2.513,1.036,4.207,0.997c1.744-0.028,2.842-1.56,3.89-3.127c1.255-1.78,1.759-3.533,1.779-3.623
				C33.507,24.924,30.161,23.647,30.128,19.784z"/>
			<path fill="#FFFFFF" d="M26.928,10.306c0.874-1.093,1.472-2.58,1.306-4.089c-1.265,0.056-2.847,0.875-3.758,1.944
				c-0.806,0.942-1.526,2.486-1.34,3.938C24.557,12.205,26.016,11.382,26.928,10.306z"/>
		</g>
	</g>
	<g>
		<path fill="#FFFFFF" d="M53.645,31.504h-2.271l-1.244-3.909h-4.324l-1.185,3.909h-2.211l4.284-13.308h2.646L53.645,31.504z
			 M49.755,25.955L48.63,22.48c-0.119-0.355-0.342-1.191-0.671-2.507h-0.04c-0.131,0.566-0.342,1.402-0.632,2.507l-1.105,3.475
			H49.755z"/>
		<path fill="#FFFFFF" d="M64.662,26.588c0,1.632-0.441,2.922-1.323,3.869c-0.79,0.843-1.771,1.264-2.942,1.264
			c-1.264,0-2.172-0.454-2.725-1.362h-0.04v5.055h-2.132V25.067c0-1.026-0.027-2.079-0.079-3.159h1.875l0.119,1.521h0.04
			c0.711-1.146,1.79-1.718,3.238-1.718c1.132,0,2.077,0.447,2.833,1.342C64.284,23.949,64.662,25.127,64.662,26.588z M62.49,26.666
			c0-0.934-0.21-1.704-0.632-2.31c-0.461-0.632-1.08-0.948-1.856-0.948c-0.526,0-1.004,0.176-1.431,0.523
			c-0.428,0.35-0.708,0.807-0.839,1.373c-0.066,0.264-0.099,0.48-0.099,0.65v1.6c0,0.698,0.214,1.287,0.642,1.768
			s0.984,0.721,1.668,0.721c0.803,0,1.428-0.31,1.875-0.928C62.266,28.496,62.49,27.68,62.49,26.666z"/>
		<path fill="#FFFFFF" d="M75.699,26.588c0,1.632-0.441,2.922-1.324,3.869c-0.789,0.843-1.77,1.264-2.941,1.264
			c-1.264,0-2.172-0.454-2.724-1.362H68.67v5.055h-2.132V25.067c0-1.026-0.027-2.079-0.079-3.159h1.875l0.119,1.521h0.04
			c0.71-1.146,1.789-1.718,3.238-1.718c1.131,0,2.076,0.447,2.834,1.342C75.32,23.949,75.699,25.127,75.699,26.588z M73.527,26.666
			c0-0.934-0.211-1.704-0.633-2.31c-0.461-0.632-1.078-0.948-1.855-0.948c-0.527,0-1.004,0.176-1.432,0.523
			c-0.428,0.35-0.707,0.807-0.838,1.373c-0.065,0.264-0.099,0.48-0.099,0.65v1.6c0,0.698,0.214,1.287,0.64,1.768
			c0.428,0.48,0.984,0.721,1.67,0.721c0.803,0,1.428-0.31,1.875-0.928C73.303,28.496,73.527,27.68,73.527,26.666z"/>
		<path fill="#FFFFFF" d="M88.039,27.772c0,1.132-0.393,2.053-1.182,2.764c-0.867,0.777-2.074,1.165-3.625,1.165
			c-1.432,0-2.58-0.276-3.449-0.829l0.494-1.777c0.936,0.566,1.963,0.85,3.082,0.85c0.803,0,1.428-0.182,1.877-0.544
			c0.447-0.362,0.67-0.848,0.67-1.454c0-0.54-0.184-0.995-0.553-1.364c-0.367-0.369-0.98-0.712-1.836-1.029
			c-2.33-0.869-3.494-2.142-3.494-3.816c0-1.094,0.408-1.991,1.225-2.689c0.814-0.699,1.9-1.048,3.258-1.048
			c1.211,0,2.217,0.211,3.02,0.632l-0.533,1.738c-0.75-0.408-1.598-0.612-2.547-0.612c-0.75,0-1.336,0.185-1.756,0.553
			c-0.355,0.329-0.533,0.73-0.533,1.205c0,0.526,0.203,0.961,0.611,1.303c0.355,0.316,1,0.658,1.936,1.027
			c1.145,0.461,1.986,1,2.527,1.618C87.77,26.081,88.039,26.852,88.039,27.772z"/>
		<path fill="#FFFFFF" d="M95.088,23.508h-2.35v4.659c0,1.185,0.414,1.777,1.244,1.777c0.381,0,0.697-0.033,0.947-0.099l0.059,1.619
			c-0.42,0.157-0.973,0.236-1.658,0.236c-0.842,0-1.5-0.257-1.975-0.77c-0.473-0.514-0.711-1.376-0.711-2.587v-4.837h-1.4v-1.6h1.4
			v-1.757l2.094-0.632v2.389h2.35V23.508z"/>
		<path fill="#FFFFFF" d="M105.691,26.627c0,1.475-0.422,2.686-1.264,3.633c-0.883,0.975-2.055,1.461-3.516,1.461
			c-1.408,0-2.529-0.467-3.365-1.401s-1.254-2.113-1.254-3.534c0-1.487,0.43-2.705,1.293-3.652c0.861-0.948,2.023-1.422,3.484-1.422
			c1.408,0,2.541,0.467,3.396,1.402C105.283,24.021,105.691,25.192,105.691,26.627z M103.479,26.696
			c0-0.885-0.189-1.644-0.572-2.277c-0.447-0.766-1.086-1.148-1.914-1.148c-0.857,0-1.508,0.383-1.955,1.148
			c-0.383,0.634-0.572,1.405-0.572,2.317c0,0.885,0.189,1.644,0.572,2.276c0.461,0.766,1.105,1.148,1.936,1.148
			c0.814,0,1.453-0.39,1.914-1.168C103.281,28.347,103.479,27.58,103.479,26.696z"/>
		<path fill="#FFFFFF" d="M112.621,23.783c-0.211-0.039-0.436-0.059-0.672-0.059c-0.75,0-1.33,0.283-1.738,0.85
			c-0.355,0.5-0.533,1.132-0.533,1.895v5.035h-2.131l0.02-6.574c0-1.106-0.027-2.113-0.08-3.021h1.857l0.078,1.836h0.059
			c0.225-0.631,0.58-1.139,1.066-1.52c0.475-0.343,0.988-0.514,1.541-0.514c0.197,0,0.375,0.014,0.533,0.039V23.783z"/>
		<path fill="#FFFFFF" d="M122.156,26.252c0,0.382-0.025,0.704-0.078,0.967h-6.396c0.025,0.948,0.334,1.673,0.928,2.173
			c0.539,0.447,1.236,0.671,2.092,0.671c0.947,0,1.811-0.151,2.588-0.454l0.334,1.48c-0.908,0.396-1.98,0.593-3.217,0.593
			c-1.488,0-2.656-0.438-3.506-1.313c-0.848-0.875-1.273-2.05-1.273-3.524c0-1.447,0.395-2.652,1.186-3.613
			c0.828-1.026,1.947-1.539,3.355-1.539c1.383,0,2.43,0.513,3.141,1.539C121.873,24.047,122.156,25.055,122.156,26.252z
			 M120.123,25.699c0.014-0.632-0.125-1.178-0.414-1.639c-0.369-0.593-0.936-0.889-1.699-0.889c-0.697,0-1.264,0.289-1.697,0.869
			c-0.355,0.461-0.566,1.014-0.631,1.658H120.123z"/>
	</g>
	<g>
		<path fill="#FFFFFF" d="M92.193,9.419l0.695,0.108c-0.107,0.371-0.207,0.732-0.207,1.192c0,0.903,0.632,1.464,1.553,1.464
			c0.434,0,1.103-0.163,1.482-0.696c0.117-0.154,0.225-0.397,0.225-0.515c0-0.208-0.008-0.352-0.053-0.542
			c-0.19-0.786-0.516-1.391-0.66-1.671l0.885-0.37c0.127,0.234,0.452,0.976,0.578,1.644c0.154,0.072,0.38,0.1,0.623,0.1
			c0.316,0,0.67,0.145,0.67,0.578c0,0.253-0.118,0.578-0.67,0.578c-0.27,0-0.514-0.036-0.623-0.09
			c-0.035,0.298-0.18,0.677-0.334,0.913c-0.416,0.659-1.111,1.165-2.249,1.165c-1.499,0-2.294-1.003-2.294-2.285
			C91.814,10.404,91.986,9.826,92.193,9.419z M93.477,7.296c0-0.361,0.234-0.596,0.56-0.596c0.343,0,0.569,0.235,0.569,0.596
			s-0.227,0.587-0.569,0.587C93.711,7.884,93.477,7.658,93.477,7.296z"/>
		<path fill="#FFFFFF" d="M96.631,10.711c0-0.271,0.135-0.578,0.695-0.578h0.009c0.415,0,0.578-0.199,0.769-0.695
			c0.441-1.111,0.821-1.572,1.57-1.572c0.994,0,1.545,1.175,1.545,2.096c0,0.741-0.441,1.328-1.156,1.328
			c-0.551,0-1.057-0.208-1.635-0.614c-0.244,0.379-0.479,0.614-1.093,0.614h-0.026C96.992,11.289,96.631,11.136,96.631,10.711z
			 M100.072,10.178c0.226,0,0.389-0.072,0.389-0.307c0-0.461-0.389-1.048-0.84-1.048c-0.316,0-0.561,0.171-0.777,0.849
			C99.15,9.943,99.693,10.178,100.072,10.178z"/>
		<path fill="#FFFFFF" d="M109.215,9.311c0.117,0.75,0.588,0.822,0.949,0.822c0.316,0,0.668,0.145,0.668,0.578
			c0,0.253-0.117,0.578-0.668,0.578c-0.28,0-0.66-0.072-0.895-0.389c0,0.669-0.145,1.084-0.352,1.346
			c-0.525,0.75-1.438,1.102-2.322,1.102c-1.291,0-2.258-0.795-2.258-2.186c0-0.434,0.1-0.93,0.324-1.455l0.695,0.118
			c-0.107,0.371-0.162,0.696-0.162,0.985c0,0.993,0.688,1.499,1.562,1.499c0.65,0,1.283-0.253,1.545-0.641
			c0.082-0.135,0.09-0.28,0.082-0.497l-0.262-6.414l0.92-0.063L109.215,9.311z"/>
		<path fill="#FFFFFF" d="M109.551,10.693c0-0.217,0.137-0.56,0.615-0.56h0.225c0.598,0,0.985-0.054,1.184-0.172
			c0-0.045,0-0.09,0-0.126c-0.018-0.65-0.361-1.418-0.713-2.006l0.885-0.325c0.344,0.642,0.668,1.662,0.668,2.466
			c0,0.28-0.045,0.614-0.145,0.849c-0.243,0.217-0.65,0.47-1.996,0.47h-0.107C109.668,11.289,109.551,10.946,109.551,10.693z
			 M111.186,13.114c0,0.343-0.225,0.56-0.541,0.56s-0.551-0.199-0.551-0.56c0-0.352,0.234-0.569,0.551-0.569
			S111.186,12.762,111.186,13.114z M112.559,13.114c0,0.343-0.225,0.56-0.551,0.56c-0.316,0-0.533-0.199-0.533-0.56
			c0-0.352,0.217-0.569,0.533-0.569C112.334,12.545,112.559,12.762,112.559,13.114z"/>
		<path fill="#FFFFFF" d="M114.602,6.754c0-0.361,0.234-0.597,0.569-0.597c0.343,0,0.569,0.235,0.569,0.597
			s-0.227,0.587-0.578,0.587C114.836,7.341,114.602,7.115,114.602,6.754z"/>
		<path fill="#FFFFFF" d="M117.557,6.355c0-0.361,0.234-0.596,0.568-0.596c0.344,0,0.57,0.234,0.57,0.596s-0.227,0.587-0.578,0.587
			C117.791,6.943,117.557,6.717,117.557,6.355z"/>
		<path fill="#FFFFFF" d="M114.484,12.292c0.704,0,1.445-0.569,1.445-1.274c0-0.407-0.289-1.166-0.85-2.06l0.857-0.316
			c0.309,0.542,0.615,0.687,1.049,0.687c0.561,0,0.984-0.289,1.057-0.822l0.759-0.072c-0.054,0.28-0.081,0.533-0.081,0.714
			c0,0.75,0.416,0.966,0.994,0.984c0.315,0,0.668,0.145,0.668,0.578c0,0.253-0.109,0.578-0.668,0.578
			c-0.913,0-1.572-0.452-1.662-1.382c-0.236,0.307-0.715,0.451-1.121,0.451c-0.1,0-0.244-0.027-0.307-0.036
			c0.072,0.244,0.09,0.578,0.09,0.741c0,1.138-0.85,2.33-2.168,2.33c-0.496,0-1.047-0.153-1.355-0.533l0.145-0.849
			C113.652,12.201,114.041,12.292,114.484,12.292z"/>
		<path fill="#FFFFFF" d="M119.102,10.693c0-0.217,0.135-0.56,0.614-0.56h0.226c0.596,0,0.984-0.054,1.184-0.172
			c0-0.045,0-0.09,0-0.126c-0.018-0.65-0.361-1.418-0.713-2.006l0.885-0.325c0.344,0.642,0.668,1.662,0.668,2.466
			c0,0.28-0.045,0.614-0.145,0.849c-0.244,0.217-0.65,0.47-1.996,0.47h-0.108C119.219,11.289,119.102,10.946,119.102,10.693z
			 M119.219,5.996c0-0.352,0.234-0.569,0.551-0.569c0.326,0,0.551,0.217,0.551,0.569s-0.225,0.56-0.551,0.56
			C119.453,6.556,119.219,6.357,119.219,5.996z M120.609,5.996c0-0.352,0.217-0.569,0.533-0.569c0.326,0,0.543,0.217,0.543,0.569
			s-0.217,0.56-0.543,0.56C120.826,6.556,120.609,6.357,120.609,5.996z"/>
	</g>
</g>
</svg>
