<svg width="16" height="16" viewBox="0 0 16 16" fill="none" xmlns="http://www.w3.org/2000/svg">
<path d="M3.46825 1.94232C5.3025 3.31104 7.27575 6.08587 8 7.57494V11.508C8 11.4243 7.9675 11.5189 7.8975 11.7227C7.5195 12.8262 6.043 17.1329 2.66675 13.69C0.889 11.8772 1.712 10.0645 4.948 9.5172C3.09675 9.83022 1.0155 9.31289 0.4445 7.2847C0.28 6.70126 0 3.10747 0 2.6221C0 0.190746 2.14475 0.954969 3.46825 1.94232ZM12.5317 1.94232C10.6975 3.31104 8.72425 6.08587 8 7.57494V11.508C8 11.4243 8.0325 11.5189 8.1025 11.7227C8.4805 12.8262 9.957 17.1329 13.3333 13.69C15.111 11.8772 14.288 10.0645 11.052 9.5172C12.9033 9.83022 14.9845 9.31289 15.5555 7.2847C15.72 6.70126 16 3.10747 16 2.6221C16 0.190746 13.8555 0.954969 12.5317 1.94232Z" fill="white"/>
</svg>
