<svg xmlns="http://www.w3.org/2000/svg" width="330" height="224" viewBox="0 0 330 224">
  <style>@keyframes pupil{0%,1.5%{transform:translate()}4.5%{transform:translate(-20px,8px)}7.5%{transform:translate(-20px,8px);animation-timing-function:cubic-bezier(.175,.885,.32,1.275);transition:0.2s}11%{transform:translate(21px,-4px)}14%{transform:translate(21px,-4px);animation-timing-function:cubic-bezier(.175,.885,.32,1.275)}18.5%{transform:translate(0,12px)}22%{transform:translate(0,12px);animation-timing-function:cubic-bezier(.175,.885,.32,1.275)}24%,50%{transform:translate(0,0)}}@keyframes blink{0%,30%,32%,50%,to{fill-opacity:0}31%{fill-opacity:1;animation-timing-function:step-end}}@keyframes flipInX2{0%,30%{transform:rotate3d(1,0,0,0deg) perspective(400px);animation-timing-function:ease-in;opacity:1}31%{opacity:0}31.5%{transform:rotate3d(1,0,0,90deg) perspective(400px);animation-timing-function:ease-in;opacity:0}32.5%{transform:rotate3d(1,0,0,-20deg) perspective(400px);opacity:1}34%{transform:rotate3d(1,0,0,0deg) perspective(400px);opacity:1}36%{transform:rotate3d(1,0,0,-5deg) perspective(400px);opacity:1}}</style>
  <path id="browserbar" fill="#ccc" fill-rule="evenodd" d="M329.8 34.85H0V13.94A14 14 0 0114 0h301.77a14 14 0 0114 13.94z"/>
  <path id="browser" fill="#eaeaea" fill-rule="evenodd" d="M119.85 34.85V0H56.1v34.85H0v175.51a14 14 0 0014 14h301.77a14 14 0 0014-14V34.85z"/>
  <path id="eyelidopen" fill="#8F59FF" d="M94.41 136.82c0-3.07 0-7.71 3.31-11.74a97.3 97.3 0 0127-22.12c13.74-7.73 27.12-11.54 40.13-11.54 16.81 0 26.35 3.28 40 11 13.94 7.92 19.73 14.16 27 22.5 3.24 3.72 3.31 8.66 3.31 11.73l-140.76.13"/>
  <path id="eyebg" fill="#ffd65d" d="M164.85 98.78c-13 0-26.39 3.8-40.13 11.54a136.25 136.25 0 00-27 20.12 10.22 10.22 0 00-3.31 7.73 9.93 9.93 0 003.31 7.61 136 136 0 0027 20c13.74 7.61 27.12 11.53 40.13 11.53s26.26-3.8 40-11.53a132.42 132.42 0 0027-20.13 10.54 10.54 0 000-15.34c-8.6-8-13.93-12.77-27-20-13.74-7.6-23.51-11.53-40-11.53z"/>
  <path style="animation:pupil 14s ease-in-out infinite" fill="#d942f3" d="M146.44 118.78a25.84 25.84 0 0018.29 44.06 26 26 0 0025.77-25.77 25.05 25.05 0 00-7.61-18.29 24.31 24.31 0 00-18.16-7.61 25 25 0 00-18.29 7.61z"/>
  <path style="animation:blink 14s linear infinite" fill="#8F59FF" d="M235.17 136.69c0-3.07-.07-8-3.31-11.73-7.27-8.34-13.06-14.58-27-22.5-13.66-7.76-23.2-11-40-11-13 0-26.39 3.81-40.13 11.54a97.3 97.3 0 00-27 22.12c-3.31 4-3.31 8.67-3.31 11.74h.08a11.94 11.94 0 00-.08 1.35 9.93 9.93 0 003.31 7.61 136 136 0 0027 20c13.74 7.61 27.12 11.53 40.13 11.53s26.26-3.8 40-11.53a132.42 132.42 0 0027-20.13 10.17 10.17 0 003.31-7.61 12.26 12.26 0 00-.09-1.36z"/>
  <g fill="#7539E9" style="animation:flipInX2 14s linear;animation-iteration-count:infinite;transform-origin:150px 150px">
    <path id="eyelash1" d="M115.39 91.42a5 5 0 01-3.84-1.8L97.18 72.35a5 5 0 117.68-6.35l14.37 17.26a5 5 0 01-3.84 8.2z"/>
    <path id="eyelash2" d="M164.79 82.79a5 5 0 01-5-5V55.32a5 5 0 1110 0v22.47a5 5 0 01-5 5z"/>
    <path id="eyelash3" d="M214.18 91.42a5 5 0 01-3.84-8.2L224.71 66a5 5 0 017.69 6.39L218 89.62a5 5 0 01-3.82 1.8z"/>
  </g>
</svg>
