  <svg id="e8dy5w0bq9p71" xmlns="http://www.w3.org/2000/svg" xmlns:xlink="http://www.w3.org/1999/xlink" width="320px" viewBox="74 33 233 158" shape-rendering="geometricPrecision" text-rendering="geometricPrecision"><style>@keyframes float{0%{transform: translatey(0px);}50%{transform:translatey(5px);}100%{transform:translatey(0px);}}.lock{animation:float 5s ease-in-out infinite;}<![CDATA[#e8dy5w0bq9p714_to {animation: e8dy5w0bq9p714_to__to 7000ms linear infinite normal forwards}@keyframes e8dy5w0bq9p714_to__to { 0% {transform: translate(205.610012px,103.259483px);animation-timing-function: cubic-bezier(0.645000,0.045000,0.355000,1)} 7.142857% {transform: translate(205.425000px,92.969335px);animation-timing-function: cubic-bezier(0.680000,-0.550000,0.265000,1.550000)} 14.285714% {transform: translate(205.610012px,103.259483px)} 100% {transform: translate(205.610012px,103.259483px)} }#e8dy5w0bq9p714_tr {animation: e8dy5w0bq9p714_tr__tr 7000ms linear infinite normal forwards}@keyframes e8dy5w0bq9p714_tr__tr { 0% {transform: rotate(0deg)} 14.285714% {transform: rotate(0deg)} 100% {transform: rotate(0deg)} }#e8dy5w0bq9p716_to {animation: e8dy5w0bq9p716_to__to 7000ms linear infinite normal forwards}@keyframes e8dy5w0bq9p716_to__to { 0% {transform: translate(190.390012px,128.064993px)} 11.428571% {transform: translate(190.390012px,128.064993px)} 12.857143% {transform: translate(190.390012px,130px)} 14.285714% {transform: translate(190.390012px,128px)} 100% {transform: translate(190.390012px,128px)} }#e8dy5w0bq9p717_to {animation: e8dy5w0bq9p717_to__to 7000ms linear infinite normal forwards}@keyframes e8dy5w0bq9p717_to__to { 0% {transform: translate(190.680012px,125.649993px)} 11.428571% {transform: translate(190.680012px,125.649993px)} 12.857143% {transform: translate(190.680012px,128px)} 14.285714% {transform: translate(190.680012px,125.649993px)} 100% {transform: translate(190.680012px,125.649993px)} }#e8dy5w0bq9p717_ts {animation: e8dy5w0bq9p717_ts__ts 7000ms linear infinite normal forwards}@keyframes e8dy5w0bq9p717_ts__ts { 0% {transform: scale(1,1)} 14.714286% {transform: scale(1,1)} 15.857143% {transform: scale(1.100000,1.100000);animation-timing-function: cubic-bezier(0.785000,0.135000,0.150000,0.860000)} 17.285714% {transform: scale(1,1)} 100% {transform: scale(1,1)} }]]></style><defs><clipPath id="e8dy5w0bq9p72"><rect id="e8dy5w0bq9p73" width="24" height="64" rx="0" ry="0" transform="matrix(1 0 0 1 797 493)" fill="none" stroke="none" stroke-width="1"/></clipPath><clipPath id="e8dy5w0bq9p74"><rect id="e8dy5w0bq9p75" width="33" height="63" rx="0" ry="0" transform="matrix(1 0 0 1 1094 492)" fill="none" stroke="none" stroke-width="1"/></clipPath><clipPath id="e8dy5w0bq9p76"><rect id="e8dy5w0bq9p77" width="23" height="66" rx="0" ry="0" transform="matrix(1 0 0 1 797 492)" fill="none" stroke="none" stroke-width="1"/></clipPath><clipPath id="e8dy5w0bq9p78"><rect id="e8dy5w0bq9p79" width="29" height="78" rx="0" ry="0" transform="matrix(1 0 0 1 1098 489)" fill="none" stroke="none" stroke-width="1"/></clipPath><clipPath id="e8dy5w0bq9p710"><path id="e8dy5w0bq9p711" d="M1003.420000,518.820000C979.110000,518.820000,971.990000,528.820000,960.210000,528.820000C948.430000,528.820000,941.320000,518.870000,917.010000,518.870000C892.700000,518.870000,887.080000,524.870000,887.220000,543.750000C887.440000,574.130000,901.220000,591.860000,919.990000,591.860000C934.260000,591.860000,945.660000,573.610000,960.210000,573.610000C974.760000,573.610000,985.210000,591.860000,1000.440000,591.860000C1019.160000,591.860000,1032.980000,574.130000,1033.210000,543.740000C1033.350000,524.880000,1027.730000,518.860000,1003.420000,518.860000M950.780000,553.770000C949.960000,558.940000,942.630000,564.490000,933.020000,564.490000C930.584799,564.484677,928.163132,564.127658,925.830000,563.430000C916.770000,560.570000,911.830000,555.140000,911.050000,551.310000C910.622852,549.657808,911.169231,547.906293,912.460000,546.790000C916.460000,543.200000,925.240000,541.910000,932.150000,541.910000C933.250000,541.910000,934.360000,541.910000,935.450000,542C941.980000,542.500000,946.890000,544.490000,949.300000,547.600000C950.676798,549.338887,951.218155,551.595760,950.780000,553.770000M1009.380000,551.310000C1008.610000,555.140000,1003.660000,560.570000,994.590000,563.430000C992.257173,564.129032,989.835305,564.486080,987.400000,564.490000C977.790000,564.490000,970.460000,558.940000,969.650000,553.770000C969.211845,551.595760,969.753202,549.338887,971.130000,547.600000C973.540000,544.490000,978.450000,542.500000,984.970000,542C986.070000,541.950000,987.170000,541.910000,988.270000,541.910000C995.180000,541.910000,1003.990000,543.200000,1007.960000,546.790000C1009.258538,547.901290,1009.809722,549.655762,1009.380000,551.310000" clip-rule="evenodd" fill="none" stroke="none" stroke-width="1"/></clipPath></defs><path id="e8dy5w0bq9p712" d="M1116.059501,433.529767L807.840499,433.529767L807.840499,413.988047C807.871374,406.783923,813.720197,400.960167,820.924386,400.960233L1102.910194,400.960233C1110.114384,400.960167,1115.963206,406.783923,1115.994081,413.988047Z" transform="matrix(0.75000000000000 0 0 0.75000000000000 -530.57123779222638 -266.93732932316402)" fill="#20123A" fill-rule="evenodd" stroke="none" stroke-width="1"/><path id="e8dy5w0bq9p713" d="M919.313819,439.856022L919.313819,407.440470L859.143138,407.440470L859.143138,439.856022L807.770499,439.704307L807.770499,603.801607C807.770499,611.030814,813.630929,616.891244,820.860136,616.891244L1102.969864,616.891244C1110.199071,616.891244,1116.059501,611.030814,1116.059501,603.801607L1116.059501,439.704307Z" transform="matrix(0.75000000000000 0 0 0.75000000000000 -530.57123779222661 -271.79750732316404)" fill="#8F59FF" stroke="none" stroke-width="1"/><g class="lock"><g id="e8dy5w0bq9p714_to" transform="translate(205.610012,103.259483)"><g id="e8dy5w0bq9p714_tr" transform="rotate(0)"><path id="e8dy5w0bq9p714" d="M976.660000,514.200000L976.660000,490.470000C976.450513,482.377599,969.830112,475.926361,961.735000,475.926361C953.639888,475.926361,947.019487,482.377599,946.810000,490.470000L946.810000,502.910000" transform="translate(-976.660000,-502.079490)" fill="none" stroke="#20123a" stroke-width="7.140000" stroke-linecap="round" stroke-miterlimit="10"/></g></g><g id="e8dy5w0bq9p715"><g id="e8dy5w0bq9p716_to" transform="translate(190.390012,128.064993)"><path id="e8dy5w0bq9p716" d="M935.390000,502.910000L987.480000,502.910000C990.568953,502.887813,993.092499,505.371089,993.120000,508.460000L993.120000,547.310000C993.092499,550.398911,990.568953,552.882187,987.480000,552.860000L935.390000,552.860000C933.907428,552.870647,932.481354,552.291888,931.425516,551.251053C930.369678,550.210218,929.770571,548.792572,929.760000,547.310000L929.760000,508.460000C929.770571,506.977428,930.369678,505.559782,931.425516,504.518947C932.481354,503.478112,933.907428,502.899353,935.390000,502.910000" transform="translate(-961.440000,-527.885000)" fill="#FFD65D" fill-rule="evenodd" stroke="none" stroke-width="1"/></g><g id="e8dy5w0bq9p717_to" transform="translate(190.680012,125.649993)"><g id="e8dy5w0bq9p717_ts" transform="scale(1,1)"><path id="e8dy5w0bq9p717" d="M961.730000,514.200000C964.113691,514.210709,966.140984,515.977068,966.524830,518.377687C966.908677,520.778305,965.536736,523.110595,963.280000,523.893878L966.460000,533.526531C966.746451,534.367021,966.619018,535.296818,966.117590,536.024873C965.616162,536.752928,964.802016,537.190270,963.930000,537.200000L959.530000,537.200000C958.657984,537.190270,957.843838,536.752928,957.342410,536.024873C956.840982,535.296818,956.713549,534.367021,957,533.526531L960.180000,523.893878C957.923264,523.110595,956.551323,520.778305,956.935170,518.377687C957.319016,515.977068,959.346309,514.210709,961.730000,514.200000Z" transform="translate(-961.730000,-525.470000)" fill="#D942F3" fill-rule="evenodd" stroke="none" stroke-width="1"/></g></g></g></g></svg>