<svg xmlns="http://www.w3.org/2000/svg" width="420.5" height="224.4" viewBox="0 0 420.5 224.4"><defs><clipPath id="a"><path fill="none" d="M44 47h88.4v135.15H44z"/></clipPath><clipPath id="b"><path fill="none" d="M303 75.85h93.5v110.53H303z"/></clipPath><clipPath id="c"><path fill="none" d="M302.5 75h95v112h-95z"/></clipPath><clipPath id="d"><path d="M349.75 75.85h-43.16a3.57 3.57 0 00-3.59 3.56v60.21a35.57 35.57 0 0018 30.86l27.07 15.46a3.45 3.45 0 003.38 0l27.07-15.46a35.57 35.57 0 0018-30.86v-60.2a3.59 3.59 0 00-3.6-3.57z" fill="none" clip-rule="evenodd"/></clipPath><clipPath id="e"><path fill="none" d="M302.5 75h94v112h-94z"/></clipPath></defs><path d="M373.8 34.85H44V13.94A14 14 0 0158 0h301.77a14 14 0 0114 13.94z" fill="#45278d" fill-rule="evenodd"/><path d="M163.85 34.85V0H100.1v34.85H44v175.51a14 14 0 0014 14h301.77a14 14 0 0014-14V34.85z" fill="#9b51ff" fill-rule="evenodd"/><g clip-path="url(#a)" fill="#7542e4"><path d="M33.16 107.35h72.68a7.8 7.8 0 017.86 7.74v54.22a7.8 7.8 0 01-7.86 7.74H33.16a7.8 7.8 0 01-7.86-7.74v-54.22a7.8 7.8 0 017.86-7.74" fill-rule="evenodd"/><path d="M69.08 149.85a26.61 26.61 0 01-26.78-26.38V90.38a26.78 26.78 0 0153.55 0v33.09a26.61 26.61 0 01-26.77 26.38zm0-73.95A14.7 14.7 0 0054.2 90.38v33.09a14.88 14.88 0 0029.75 0V90.38A14.7 14.7 0 0069.08 75.9z"/></g><path d="M28.9 76.43a14.88 14.88 0 0129.75 0v17h11.9v-17a26.78 26.78 0 00-53.55 0v17h11.9z" fill="#dfbdff"/><path d="M80.54 93.4H7.86A7.8 7.8 0 000 101.14v54.22a7.8 7.8 0 007.86 7.74h72.68a7.8 7.8 0 007.86-7.74v-54.22a7.8 7.8 0 00-7.86-7.74z" fill="#d283ff"/><path d="M51 116.35a6.8 6.8 0 10-6.8 6.8 6.79 6.79 0 006.8-6.8" fill="#621ed2" fill-rule="evenodd"/><path d="M44.2 116.35L37.6 136a3.79 3.79 0 003.53 5h6.14a3.79 3.79 0 003.53-5z" fill="#621ed2" fill-rule="evenodd"/><path d="M252.21 98c-24.31 0-31.43 10-43.21 10s-18.89-10-43.21-10-29.93 6-29.79 24.88c.23 30.37 14.05 48.11 32.78 48.11 14.27 0 25.67-18.25 40.22-18.25S234.05 171 249.22 171c18.73 0 32.55-17.74 32.78-48.12C282.14 104 276.52 98 252.21 98m-52.64 34.91c-.82 5.16-8.15 10.71-17.76 10.71a25.17 25.17 0 01-7.19-1.05c-9.07-2.86-14-8.29-14.79-12.12a4.51 4.51 0 011.42-4.52c4-3.59 12.78-4.88 19.69-4.88q1.65 0 3.3.09c6.52.5 11.43 2.49 13.84 5.6a7.53 7.53 0 011.49 6.17m58.6-2.46c-.77 3.83-5.72 9.26-14.79 12.12a25.17 25.17 0 01-7.19 1.05c-9.61 0-16.94-5.55-17.76-10.71a7.53 7.53 0 011.49-6.17c2.41-3.11 7.32-5.1 13.84-5.6q1.65-.09 3.3-.09c6.91 0 15.72 1.29 19.69 4.88a4.49 4.49 0 011.42 4.52" fill="#7542e4" fill-rule="evenodd"/><path d="M252.21 81C227.9 81 220.78 91 209 91s-18.89-10-43.21-10-29.93 6-29.79 24.89c.23 30.37 14.05 48.11 32.78 48.11 14.27 0 25.67-18.25 40.22-18.25S234.05 154 249.22 154c18.73 0 32.55-17.74 32.78-48.12C282.14 87 276.52 81 252.21 81m-52.64 34.91c-.82 5.16-8.15 10.71-17.76 10.71a25.17 25.17 0 01-7.19-1.05c-9.07-2.86-14-8.29-14.79-12.12a4.51 4.51 0 011.42-4.52c4-3.59 12.78-4.88 19.69-4.88q1.65 0 3.3.09c6.52.5 11.43 2.49 13.84 5.6a7.53 7.53 0 011.49 6.17m58.6-2.46c-.77 3.83-5.72 9.26-14.79 12.12a25.17 25.17 0 01-7.19 1.05c-9.61 0-16.94-5.55-17.76-10.71a7.53 7.53 0 011.49-6.17c2.41-3.11 7.32-5.1 13.84-5.6q1.65-.09 3.3-.09c6.91 0 15.72 1.29 19.69 4.88a4.49 4.49 0 011.42 4.52" fill="#e9deff" fill-rule="evenodd"/><g clip-path="url(#b)"><g clip-path="url(#c)"><g clip-path="url(#d)"><g clip-path="url(#e)"><path fill="#7542e4" d="M298 70.85h103.5v120.53H298z"/></g></g></g></g><path d="M373.75 62.85h-43.16a3.57 3.57 0 00-3.59 3.56v60.21a35.57 35.57 0 0018 30.86l27.07 15.46a3.45 3.45 0 003.38 0l27.07-15.46a35.57 35.57 0 0018-30.86v-60.2a3.59 3.59 0 00-3.6-3.57z" fill="#d283ff" fill-rule="evenodd"/><path d="M394 101a20.2 20.2 0 10-20.2 20.2A20.2 20.2 0 00394 101M394 121.85c-5.45 0-14 5.92-20.2 6s-14.74-6-20.2-6c-2.86 0-8.57 1.72-8.57 7.69 0 6.75 12.72 18.64 28.77 18.64s28.77-11.89 28.77-18.64c-.05-5.97-5.76-7.69-8.57-7.69z" fill="#dfbdff" fill-rule="evenodd"/></svg>