 <svg id="Layer_1" data-name="Layer 1" xmlns="http://www.w3.org/2000/svg" xmlns:xlink="http://www.w3.org/1999/xlink" width="344.77" height="130" viewBox="0 0 344.77 130"><style>@keyframes float{0%{transform:translatey(0px);}50%{transform: translatey(-12px);}100%{transform: translatey(0px);}}#chrome_logo,#firefox_logo{animation:float 5s ease-in-out infinite;
}</style><defs><clipPath id="clip-path"><circle cx="300.77" cy="64.64" r="44" fill="none"/></clipPath><linearGradient id="linear-gradient" x1="-288.77" y1="1379.67" x2="-262.53" y2="1395" gradientTransform="matrix(1, 0, 0, -1, 556, 1434)" gradientUnits="userSpaceOnUse"><stop offset="0" stop-color="#a52714" stop-opacity="0.6"/><stop offset="0.66" stop-color="#a52714" stop-opacity="0"/></linearGradient><linearGradient id="linear-gradient-2" x1="-247.89" y1="1334.86" x2="-277.11" y2="1351.97" gradientTransform="matrix(1, 0, 0, -1, 556, 1434)" gradientUnits="userSpaceOnUse"><stop offset="0" stop-color="#055524" stop-opacity="0.4"/><stop offset="0.33" stop-color="#055524" stop-opacity="0"/></linearGradient><clipPath id="clip-path-6"><polygon points="256.55 108.82 298.55 108.82 318.05 89.38 318.05 74.82 283.3 74.82 256.55 29.06 256.55 108.82" fill="none"/></clipPath><linearGradient id="linear-gradient-3" x1="-242.53" y1="1392.28" x2="-235.18" y2="1360.11" gradientTransform="matrix(1, 0, 0, -1, 556, 1434)" gradientUnits="userSpaceOnUse"><stop offset="0" stop-color="#ea6100" stop-opacity="0.3"/><stop offset="0.66" stop-color="#ea6100" stop-opacity="0"/></linearGradient><clipPath id="clip-path-9"><polygon points="300.55 44.82 317.87 74.82 298.43 108.82 344.55 108.82 344.55 44.82 300.55 44.82" fill="none"/></clipPath><radialGradient id="radial-gradient" cx="318.64" cy="1389.21" r="42.04" gradientTransform="matrix(1, 0, 0, -1, -20, 1434)" gradientUnits="userSpaceOnUse"><stop offset="0" stop-color="#3e2723" stop-opacity="0.2"/><stop offset="1" stop-color="#3e2723" stop-opacity="0"/></radialGradient><clipPath id="clip-path-12"><polygon points="263.55 20.82 263.55 40.99 283.24 74.82 300.56 44.82 344.55 44.82 344.55 20.82 263.55 20.82" fill="none"/></clipPath><radialGradient id="radial-gradient-2" cx="283.71" cy="1393.1" r="39.02" xlink:href="#radial-gradient"/><radialGradient id="radial-gradient-3" cx="320.69" cy="1369.29" r="43.94" gradientTransform="matrix(1, 0, 0, -1, -20, 1434)" gradientUnits="userSpaceOnUse"><stop offset="0" stop-color="#263238" stop-opacity="0.2"/><stop offset="1" stop-color="#263238" stop-opacity="0"/></radialGradient><radialGradient id="radial-gradient-4" cx="-286.08" cy="1401.35" r="88.38" gradientTransform="matrix(1, 0, 0, -1, 556, 1434)" gradientUnits="userSpaceOnUse"><stop offset="0" stop-color="#fff" stop-opacity="0.1"/><stop offset="1" stop-color="#fff" stop-opacity="0"/></radialGradient><linearGradient id="linear-gradient-7" x1="-779.09" y1="605.63" x2="-779.24" y2="605.47" gradientTransform="matrix(480, 0, 0, -496, 374048.14, 300421.21)" gradientUnits="userSpaceOnUse"><stop offset="0.05" stop-color="#fff44f"/><stop offset="0.37" stop-color="#ff980e"/><stop offset="0.53" stop-color="#ff3647"/><stop offset="0.7" stop-color="#e31587"/></linearGradient><radialGradient id="radial-gradient-5" cx="-779.16" cy="606.45" r="0.25" gradientTransform="matrix(384, 0, 0, -390.47, 299282.82, 236836.58)" gradientUnits="userSpaceOnUse"><stop offset="0.13" stop-color="#ffbd4f"/><stop offset="0.28" stop-color="#ff980e"/><stop offset="0.47" stop-color="#ff3750"/><stop offset="0.78" stop-color="#eb0878"/><stop offset="0.86" stop-color="#e50080"/></radialGradient><radialGradient id="radial-gradient-6" cx="-779.16" cy="606.24" r="0.25" gradientTransform="matrix(393.6, 0, 0, -390.47, 306724.64, 236786.21)" gradientUnits="userSpaceOnUse"><stop offset="0.3" stop-color="#960e18"/><stop offset="0.35" stop-color="#b11927" stop-opacity="0.74"/><stop offset="0.43" stop-color="#db293d" stop-opacity="0.34"/><stop offset="0.5" stop-color="#f5334b" stop-opacity="0.09"/><stop offset="0.53" stop-color="#ff3750" stop-opacity="0"/></radialGradient><radialGradient id="radial-gradient-7" cx="-779.46" cy="608.23" r="0.28" gradientTransform="matrix(115.24, 0, 0, -195.64, 89879.36, 119005.83)" gradientUnits="userSpaceOnUse"><stop offset="0.13" stop-color="#fff44f"/><stop offset="0.53" stop-color="#ff980e"/></radialGradient><radialGradient id="radial-gradient-8" cx="-779.19" cy="607.75" r="0.2" gradientTransform="matrix(213.48, 0, 0, -233.98, 166380.56, 142294.96)" gradientUnits="userSpaceOnUse"><stop offset="0.35" stop-color="#3a8ee6"/><stop offset="0.67" stop-color="#9059ff"/><stop offset="1" stop-color="#c139e6"/></radialGradient><radialGradient id="radial-gradient-9" cx="-779.09" cy="607.91" r="0.12" gradientTransform="matrix(192.13, 0, 0, -233.98, 149735.77, 142294.96)" gradientUnits="userSpaceOnUse"><stop offset="0.21" stop-color="#9059ff" stop-opacity="0"/><stop offset="0.97" stop-color="#6e008b" stop-opacity="0.6"/></radialGradient><radialGradient id="radial-gradient-10" cx="-777.24" cy="619.51" r="0.58" gradientTransform="matrix(58.52, 0, 0, -58.73, 45531.42, 36407.73)" gradientUnits="userSpaceOnUse"><stop offset="0.1" stop-color="#ffe226"/><stop offset="0.79" stop-color="#ff7139"/></radialGradient><radialGradient id="radial-gradient-11" cx="-779.07" cy="606.43" r="0.36" gradientTransform="matrix(450.15, 0, 0, -377.88, 350776.59, 229157.63)" gradientUnits="userSpaceOnUse"><stop offset="0.11" stop-color="#fff44f"/><stop offset="0.46" stop-color="#ff980e"/><stop offset="0.72" stop-color="#ff3647"/><stop offset="0.9" stop-color="#e31587"/></radialGradient><radialGradient id="radial-gradient-12" cx="-784.59" cy="604.4" r="0.69" gradientTransform="matrix(16.08, 151.87, 153.03, -15.96, -79811.66, 128806.56)" gradientUnits="userSpaceOnUse"><stop offset="0" stop-color="#fff44f"/><stop offset="0.3" stop-color="#ff980e"/><stop offset="0.57" stop-color="#ff3647"/><stop offset="0.74" stop-color="#e31587"/></radialGradient><radialGradient id="radial-gradient-13" cx="-779.39" cy="609.13" r="0.47" gradientTransform="matrix(195.14, 0, 0, -191.71, 152136.98, 116812.74)" gradientUnits="userSpaceOnUse"><stop offset="0.14" stop-color="#fff44f"/><stop offset="0.48" stop-color="#ff980e"/><stop offset="0.66" stop-color="#ff3647"/><stop offset="0.9" stop-color="#e31587"/></radialGradient><radialGradient id="radial-gradient-14" cx="-778.52" cy="610.22" r="0.62" gradientTransform="matrix(178.59, 0, 0, -159.77, 139107.81, 97537.38)" gradientUnits="userSpaceOnUse"><stop offset="0.09" stop-color="#fff44f"/><stop offset="0.63" stop-color="#ff980e"/></radialGradient><linearGradient id="linear-gradient-8" x1="-779.1" y1="605.63" x2="-779.22" y2="605.49" gradientTransform="matrix(480, 0, 0, -496, 374045.02, 300421.21)" gradientUnits="userSpaceOnUse"><stop offset="0.17" stop-color="#fff44f" stop-opacity="0.8"/><stop offset="0.6" stop-color="#fff44f" stop-opacity="0"/></linearGradient></defs><title>firefoxvschrome_2</title><g id="chrome_logo"><g clip-path="url(#clip-path)"><path d="M263.55,20.82v54h19.69l17.32-30h44v-24Z" fill="#db4437"/><path d="M263.55,20.82v54h19.69l17.32-30h44v-24Z" fill="url(#linear-gradient)"/></g><g clip-path="url(#clip-path)"><path d="M283.93,74.46,264,40.31l-.29.5,19.77,33.9Z" fill="#3e2723" fill-opacity="0.15"/></g><g clip-path="url(#clip-path)"><path d="M256.55,108.82h42l19.5-19.44V74.82H283.3L256.55,29.06Z" fill="#0f9d58"/><path d="M256.55,108.82h42l19.5-19.44V74.82H283.3L256.55,29.06Z" fill="url(#linear-gradient-2)"/></g><g clip-path="url(#clip-path)"><path d="M317.69,75.48l-.41-.24-19.2,33.58h.58l19-33.32Z" fill="#263238" fill-opacity="0.15"/></g><g clip-path="url(#clip-path)"><g clip-path="url(#clip-path-6)"><path d="M300.55,44.82l17.32,30-19.44,34h46.12v-64Z" fill="#ffcd40"/><path d="M300.55,44.82l17.32,30-19.44,34h46.12v-64Z" fill="url(#linear-gradient-3)"/></g></g><g clip-path="url(#clip-path)"><path d="M300.55,44.82l17.32,30-19.44,34h46.12v-64Z" fill="#ffcd40"/><path d="M300.55,44.82l17.32,30-19.44,34h46.12v-64Z" fill="url(#linear-gradient-3)"/></g><g clip-path="url(#clip-path)"><g clip-path="url(#clip-path-9)"><path d="M263.55,20.82v54h19.69l17.32-30h44v-24Z" fill="#db4437"/><path d="M263.55,20.82v54h19.69l17.32-30h44v-24Z" fill="url(#linear-gradient)"/></g></g><g clip-path="url(#clip-path)"><path d="M300.55,44.82V55.29l39.2-10.47Z" fill="url(#radial-gradient)"/></g><g clip-path="url(#clip-path)"><g clip-path="url(#clip-path-12)"><path d="M256.55,108.82h42l19.5-19.44V74.82H283.3L256.55,29.06Z" fill="#0f9d58"/><path d="M256.55,108.82h42l19.5-19.44V74.82H283.3L256.55,29.06Z" fill="url(#linear-gradient-2)"/></g></g><g clip-path="url(#clip-path)"><path d="M263.76,40.86l28.62,28.62-8.93,5.16Z" fill="url(#radial-gradient-2)"/></g><g clip-path="url(#clip-path)"><path d="M298.69,108.58l10.48-39.1,8.93,5.16Z" fill="url(#radial-gradient-3)"/></g><g clip-path="url(#clip-path)"><circle cx="300.77" cy="64.64" r="20" fill="#f1f1f1"/><circle cx="300.77" cy="64.64" r="16" fill="#4285f4"/></g><g clip-path="url(#clip-path)"><path d="M300.55,44.32a20,20,0,0,0-20,20v.5a20,20,0,0,1,20-20h44v-.5Z" fill="#3e2723" fill-opacity="0.2"/><path d="M318,74.82a20.05,20.05,0,0,1-34.7,0h0L256.55,29.06v.5L283.3,75.32h0a20.05,20.05,0,0,0,34.7,0h0v-.5Z" fill="#fff" fill-opacity="0.1"/><path d="M301.27,44.64H301a20,20,0,0,1,0,40l.25,0a20,20,0,0,0,0-40Z" fill="#3e2723" opacity="0.1" style="isolation:isolate"/><path d="M318.27,75.48a19.89,19.89,0,0,0,1.75-16,19.81,19.81,0,0,1-1.93,15.35v0l-19.44,34h.58l19-33.32Z" fill="#fff" fill-opacity="0.2"/></g><g clip-path="url(#clip-path)"><path d="M300.77,21.14a44,44,0,0,1,44,43.75v-.25a44,44,0,1,0-88,0c0,.08,0,.16,0,.25a44,44,0,0,1,44-43.75Z" fill="#fff" fill-opacity="0.2"/><path d="M300.77,108.14a44,44,0,0,0,44-43.75v.25a44,44,0,0,1-88,0c0-.09,0-.17,0-.25a44,44,0,0,0,44,43.75Z" fill="#3e2723" fill-opacity="0.15"/></g><circle cx="300.77" cy="64.64" r="44" fill="url(#radial-gradient-4)"/></g><g id="firefox_logo"><path id="shape-base" d="M91.89,48.26c-2.07-5-6.28-10.38-9.57-12.08a49.93,49.93,0,0,1,4.83,14.49.6.6,0,0,0,0,.08c-5.4-13.46-14.55-18.88-22-30.69-.38-.6-.76-1.19-1.13-1.83-.18-.32-.36-.65-.52-1a9.2,9.2,0,0,1-.72-1.89.11.11,0,0,0-.1-.13h-.12l0,0,0,0c-12,7-16.06,20-16.43,26.51A23.81,23.81,0,0,0,33,46.81a12.49,12.49,0,0,0-1.23-.94,22.08,22.08,0,0,1-.14-11.66,35.39,35.39,0,0,0-11.49,8.88h0c-1.89-2.4-1.76-10.3-1.65-12a8.31,8.31,0,0,0-1.59.84,34.86,34.86,0,0,0-4.67,4,41.32,41.32,0,0,0-4.45,5.34h0A40.28,40.28,0,0,0,1.32,55.78l-.06.31c-.09.42-.41,2.53-.47,3,0,0,0,.07,0,.11A45.44,45.44,0,0,0,0,65.76V66a47.73,47.73,0,0,0,94.77,8.08c.08-.61.14-1.22.22-1.84A49.17,49.17,0,0,0,91.89,48.26Zm-55,37.26c.22.1.43.22.66.32l0,0ZM87.16,50.66v0Z" fill="url(#linear-gradient-7)"/><path id="body-outer-ring" d="M91.89,48.16c-2.07-5-6.28-10.37-9.57-12.08a49.93,49.93,0,0,1,4.83,14.49v.09c4.51,12.21,2,24.63-1.48,32.21C80.21,94.61,67,106.64,46.24,106.05,23.85,105.41,4.12,88.8.44,67c-.67-3.43,0-5.17.34-8A35.28,35.28,0,0,0,0,65.66c0,.09,0,.17,0,.25A47.73,47.73,0,0,0,94.77,74c.08-.61.14-1.22.22-1.84A49.18,49.18,0,0,0,91.89,48.16Z" fill="url(#radial-gradient-5)"/><path id="body-outer-ring-shadow" d="M91.89,48.16c-2.07-5-6.28-10.37-9.57-12.08a49.93,49.93,0,0,1,4.83,14.49v.09c4.51,12.21,2,24.63-1.48,32.21C80.21,94.61,67,106.64,46.24,106.05,23.85,105.41,4.12,88.8.44,67c-.67-3.43,0-5.17.34-8A35.28,35.28,0,0,0,0,65.66c0,.09,0,.17,0,.25A47.73,47.73,0,0,0,94.77,74c.08-.61.14-1.22.22-1.84A49.18,49.18,0,0,0,91.89,48.16Z" fill="url(#radial-gradient-6)"/><path id="tail-tip" d="M68.7,53.77,69,54a25.67,25.67,0,0,0-4.43-5.78c-14.83-14.83-3.89-32.16-2-33l0,0c-12,7-16.06,20-16.43,26.51.55,0,1.11-.09,1.68-.09A24.1,24.1,0,0,1,68.7,53.77Z" fill="url(#radial-gradient-7)"/><path id="globe-base" d="M47.82,56.73C47.74,57.92,43.54,62,42.08,62,28.5,62,26.3,70.22,26.3,70.22c.6,6.92,5.42,12.61,11.24,15.62.27.14.54.26.81.39.46.2.93.39,1.4.57A21.23,21.23,0,0,0,46,88c23.79,1.11,28.4-28.44,11.23-37A16.45,16.45,0,0,1,68.7,53.77,24.1,24.1,0,0,0,47.79,41.56c-.57,0-1.12,0-1.68.09A23.88,23.88,0,0,0,33,46.71c.73.61,1.55,1.44,3.28,3.14,3.24,3.19,11.55,6.5,11.57,6.88Z" fill="url(#radial-gradient-8)"/><path id="globe-shadow" d="M47.82,56.73C47.74,57.92,43.54,62,42.08,62,28.5,62,26.3,70.22,26.3,70.22c.6,6.92,5.42,12.61,11.24,15.62.27.14.54.26.81.39.46.2.93.39,1.4.57A21.23,21.23,0,0,0,46,88c23.79,1.11,28.4-28.44,11.23-37A16.45,16.45,0,0,1,68.7,53.77,24.1,24.1,0,0,0,47.79,41.56c-.57,0-1.12,0-1.68.09A23.88,23.88,0,0,0,33,46.71c.73.61,1.55,1.44,3.28,3.14,3.24,3.19,11.55,6.5,11.57,6.88Z" fill="url(#radial-gradient-9)"/><path id="ear" d="M30.75,45.12q.49.32,1,.66a22.11,22.11,0,0,1-.14-11.67A35.39,35.39,0,0,0,20.11,43c.23,0,7.16-.13,10.64,2.13Z" fill="url(#radial-gradient-10)"/><path id="body" d="M.44,67.14c3.68,21.76,23.41,38.37,45.8,39,20.73.58,34-11.44,39.44-23.18,3.53-7.59,6-20,1.48-32.21h0v0s0-.05,0,0a.45.45,0,0,0,0,.08c1.69,11-3.93,21.76-12.72,29l0,.06c-17.13,14-33.52,8.42-36.83,6.15l-.7-.35c-10-4.77-14.11-13.86-13.22-21.67a12.25,12.25,0,0,1-11.31-7.11,18,18,0,0,1,17.55-.7,23.72,23.72,0,0,0,17.91.7c0-.38-8.32-3.69-11.56-6.88-1.73-1.7-2.55-2.53-3.28-3.14a12.49,12.49,0,0,0-1.23-.94l-1-.65C27.27,43,20.34,43.08,20.11,43.09h0c-1.89-2.4-1.76-10.3-1.65-12a8.31,8.31,0,0,0-1.59.84,34.86,34.86,0,0,0-4.67,4,41.32,41.32,0,0,0-4.45,5.34h0A40.28,40.28,0,0,0,1.32,55.78c0,.1-1.71,7.51-.88,11.36Z" fill="url(#radial-gradient-11)"/><path id="tail-flame" d="M64.56,48.21A25.67,25.67,0,0,1,69,54a7.59,7.59,0,0,1,.72.59c10.82,10,5.15,24.07,4.73,25.07,8.79-7.24,14.41-18,12.72-29C81.76,37.2,72.61,31.77,65.14,20c-.38-.59-.76-1.19-1.13-1.82-.18-.33-.36-.66-.52-1a9,9,0,0,1-.72-1.89.12.12,0,0,0-.1-.13.14.14,0,0,0-.09,0l0,0,0,0c-1.85.88-12.79,18.21,2,33Z" fill="url(#radial-gradient-12)"/><path id="tail-small" d="M69.71,54.58A7.59,7.59,0,0,0,69,54l-.29-.22A16.45,16.45,0,0,0,57.19,51C74.36,59.56,69.75,89.11,46,88a21.23,21.23,0,0,1-6.21-1.2c-.47-.18-.94-.37-1.4-.57-.27-.13-.54-.25-.81-.39l0,0c3.31,2.27,19.7,7.8,36.83-6.15l0-.06c.42-1,6.09-15.1-4.73-25.07Z" fill="url(#radial-gradient-13)"/><path id="cheek-tufts" d="M26.3,70.22S28.5,62,42.08,62c1.46,0,5.66-4.09,5.74-5.28S39.14,60.38,29.9,56a18,18,0,0,0-17.55.7,12.25,12.25,0,0,0,11.31,7.11c-.89,7.81,3.24,16.9,13.22,21.68.22.1.43.22.66.32C31.72,82.83,26.9,77.14,26.3,70.22Z" fill="url(#radial-gradient-14)"/><path id="overlay-yellow" d="M91.89,48.26c-2.07-5-6.28-10.37-9.57-12.08a49.93,49.93,0,0,1,4.83,14.49.6.6,0,0,0,0,.08c-5.4-13.45-14.55-18.88-22-30.69-.38-.6-.76-1.19-1.13-1.83-.18-.32-.36-.65-.52-1a9.2,9.2,0,0,1-.72-1.89.12.12,0,0,0-.1-.13h-.12l0,0,0,0c-12,7-16.06,20-16.43,26.51.55,0,1.11-.09,1.67-.09A24.11,24.11,0,0,1,68.7,53.87a16.47,16.47,0,0,0-11.51-2.79C74.35,59.66,69.75,89.21,46,88.1a21.23,21.23,0,0,1-6.21-1.2c-.47-.18-.94-.37-1.4-.58-.27-.12-.54-.24-.81-.38l0,0-.7-.35c.22.11.43.23.66.33-5.83-3-10.64-8.71-11.24-15.62,0,0,2.2-8.21,15.77-8.21,1.47,0,5.67-4.09,5.74-5.28,0-.39-8.32-3.69-11.56-6.88-1.73-1.7-2.55-2.53-3.28-3.14a13.8,13.8,0,0,0-1.23-.94,22.08,22.08,0,0,1-.14-11.66,35.39,35.39,0,0,0-11.49,8.88h0c-1.89-2.4-1.76-10.3-1.65-12a8.31,8.31,0,0,0-1.59.84,34.86,34.86,0,0,0-4.67,4,41.32,41.32,0,0,0-4.45,5.34h0A40.28,40.28,0,0,0,1.32,55.78l-.06.31c-.09.42-.49,2.56-.55,3h0A55.29,55.29,0,0,0,0,65.76c0,.08,0,.16,0,.25a47.73,47.73,0,0,0,94.77,8.07c.08-.61.14-1.22.22-1.84A49.17,49.17,0,0,0,91.89,48.26Zm-4.73,2.35v0h0Z" fill="url(#linear-gradient-8)"/></g><line id="line" x1="176.32" y1="5" x2="176.32" y2="125" fill="none" stroke="#ededf0" stroke-linecap="round" stroke-miterlimit="10" stroke-width="10"/></svg>