<svg xmlns="http://www.w3.org/2000/svg" viewBox="0 0 329.8 224.4" width="320"><style>@keyframes spin{0%{transform:rotateY(360deg)}10%,12.5%,5%{transform:rotateY(0deg)}}@keyframes jump{0%,17.5%,5%{transform:translateY(0)}10%{transform:rotateY(340deg) translateY(-5px);animation-timing-function:cubic-bezier(.755,.05,.855,.06)}12.5%{transform:translateY(5px)}15%{transform:translateY(-5px);animation-timing-function:cubic-bezier(.755,.05,.855,.06)}19%{transform:translateY(-1px);animation-timing-function:cubic-bezier(.755,.05,.855,.06)}20%{transform:translateY(0);animation-timing-function:cubic-bezier(.755,.05,.855,.06)}}</style><path id="browserbar" d="M329.8 34.85H0V13.94A14 14 0 0114 0h301.77a14 14 0 0114 13.94z" fill="#ccc" fill-rule="evenodd"/><path id="browser" d="M119.85 34.85V.18H56.1v34.67H0v175.51a14 14 0 0014 14h301.77a14 14 0 0014-14V34.85z" fill="#eaeaea"/><g style="animation:jump 12s infinite;transform-origin:50% 50%"><g style="animation:spin 12s infinite;transform-origin:50% 50%;perspective-origin:25% 25%"><path d="M209.78 96.23c0-4.47-.12-9.53-.12-15.25a4.88 4.88 0 00-4-4.88l-39-6.75a4.69 4.69 0 00-1.67 0l-38.88 6.72A4.88 4.88 0 00122 81c0 5.72 0 10.78-.13 15.25 0 8.06-.19 13.91.15 17.52 2.2 23.27 7.09 33.83 15.37 45.34a45.59 45.59 0 0027.42 17.64 6.1 6.1 0 00.95.17 3.85 3.85 0 001 0 46.29 46.29 0 0027.42-17.64c8.28-11.68 13.17-22.24 15.37-45.58.23-3.7.23-9.5.23-17.47z" fill="#9059ff"/><path d="M165 69.35l-38.88 6.8A4.87 4.87 0 00122 81c0 5.72 0 10.78-.13 15.25 0 8.07-.17 13.91.15 17.55 2.2 23.24 7.09 33.87 15.37 45.31a45.53 45.53 0 0027.42 17.74 3.78 3.78 0 00.95 0V69.35a5.75 5.75 0 00-.76 0z" fill="#7542e5"/></g></g></svg>
