 <svg id="Layer_2" data-name="Layer 2" xmlns="http://www.w3.org/2000/svg" width="320px" viewBox="0 0 353.78 224.4"><title>privacy_eyes_multi</title><style>@keyframes ifloat{from{transform:rotate(0) translate(-6px) rotate(0)}to{transform:rotate(360deg) translate(-6px) rotate(-360deg)}}#eyemain{animation:ifloat 5s linear infinite}#eyelid{animation:blink 14s linear infinite}@keyframes blink{0%{fill-opacity:0}30%{fill-opacity:0}31%{fill-opacity:1;animation-timing-function:step-end}32%{fill-opacity:0}100%,50%{fill-opacity:0}}#eyelid4{animation:blink1 14s linear infinite}@keyframes blink1{0%{fill-opacity:0}20%{fill-opacity:0}21%{fill-opacity:1;animation-timing-function:step-end}22%{fill-opacity:0}100%,50%{fill-opacity:0}}#eyelid2,#eyelid3,#eyelid6{fill-opacity:0}#eyelid1{animation:blink2 14s linear infinite}@keyframes blink2{0%{fill-opacity:0}10%{fill-opacity:0}11%{fill-opacity:1;animation-timing-function:step-end}12%{fill-opacity:0}100%,50%{fill-opacity:0}}#eyelid5{animation:blink3 14s linear infinite}@keyframes blink3{0%{fill-opacity:0}40%{fill-opacity:0}41%{fill-opacity:1;animation-timing-function:step-end}42%{fill-opacity:0}100%,50%{fill-opacity:0}}#eyepupil{animation:pupil 14s ease-in-out infinite}@keyframes pupil{0%,1.5%{transform:translate(0,0)}4.5%{transform:translate(-10px,8px)}7.5%{transform:translate(-10px,8px);animation-timing-function:cubic-bezier(.175,.885,.32,1.275);transition:.2s}11%{transform:translate(15px,-3px)}14%{transform:translate(15px,-3px);animation-timing-function:cubic-bezier(.175,.885,.32,1.275)}18.5%{transform:translate(0,9px)}22%{transform:translate(0,9px);animation-timing-function:cubic-bezier(.175,.885,.32,1.275)}24%,50%{transform:translate(0,0)}}</style><path id="browserbar" d="M341.82,34.85H12V13.94A14,14,0,0,1,26.06,0H327.79a14,14,0,0,1,14,13.94Z" fill="#cccccc" fill-rule="evenodd"/><path id="browser" d="M131.87,34.85V0H68.12V34.85H12V210.36a14,14,0,0,0,14,14H327.79a14,14,0,0,0,14-14V34.85Z" fill="#eaeaea" fill-rule="evenodd"/><g id="eyemain"><path id="eyelidopen" d="M124.08,131.62c0-2.3,0-5.78,2.49-8.81a73.07,73.07,0,0,1,20.28-16.62c10.33-5.81,20.37-8.67,30.15-8.67,12.63,0,19.79,2.47,30.05,8.29,10.47,6,14.82,10.64,20.28,16.91,2.44,2.8,2.49,6.51,2.49,8.81l-105.74.09h0" fill="#8F59FF"/><path id="eyebg" d="M177,103.05c-9.78,0-19.82,2.86-30.15,8.67a102.1,102.1,0,0,0-20.28,15.12,7.65,7.65,0,0,0-2.49,5.8,7.48,7.48,0,0,0,2.49,5.72,102.35,102.35,0,0,0,20.28,15c10.33,5.71,20.37,8.66,30.15,8.66s19.72-2.86,30.05-8.66a99.45,99.45,0,0,0,20.28-15.12,7.92,7.92,0,0,0,0-11.53c-6.45-6-10.46-9.59-20.28-15C196.72,106,189.38,103.05,177,103.05Z" fill="#ffd65d"/><path id="eyepupil" d="M163.17,118.08a19.4,19.4,0,1,0,27.38,0,18.27,18.27,0,0,0-13.65-5.72A18.8,18.8,0,0,0,163.17,118.08Z" fill="#d942f3"/><path id="eyelid" d="M229.82,131.53c0-2.3,0-6-2.49-8.81-5.46-6.27-9.81-11-20.28-16.91C196.79,100,189.63,97.52,177,97.52c-9.78,0-19.82,2.86-30.15,8.67a73.07,73.07,0,0,0-20.28,16.62c-2.49,3-2.49,6.51-2.49,8.81h.06c0,.34-.06.67-.06,1a7.48,7.48,0,0,0,2.49,5.72,102.35,102.35,0,0,0,20.28,15c10.33,5.71,20.37,8.66,30.15,8.66s19.72-2.86,30.05-8.66a99.45,99.45,0,0,0,20.28-15.12,7.63,7.63,0,0,0,2.49-5.72,8.45,8.45,0,0,0-.07-1Z" fill="#8F59FF"/></g><g id="eye1"><path id="eyelidopen1" d="M62.5,73.17a8.43,8.43,0,0,1,1.62-5.73A47.43,47.43,0,0,1,77.3,56.64C84,52.86,90.54,51,96.89,51c8.21,0,12.87,1.6,19.54,5.39a43.61,43.61,0,0,1,13.18,11c1.59,1.82,1.62,4.23,1.62,5.73l-68.73.06h0" fill="#8F59FF"/><path id="eyebg1" d="M96.89,54.6c-6.35,0-12.88,1.85-19.59,5.63a66.22,66.22,0,0,0-13.18,9.83,5,5,0,0,0-1.62,3.77,4.86,4.86,0,0,0,1.62,3.72A66.2,66.2,0,0,0,77.3,87.31C84,91,90.54,93,96.89,93s12.83-1.86,19.54-5.64a64.29,64.29,0,0,0,13.18-9.82,5.14,5.14,0,0,0,0-7.49,56.05,56.05,0,0,0-13.18-9.77C109.72,56.52,105,54.6,96.89,54.6Z" fill="#ffd65d"/><path id="eyepupil1" d="M87.91,64.36a12.58,12.58,0,1,0,17.79,17.8,12.08,12.08,0,0,0,3.72-8.87,12.23,12.23,0,0,0-3.72-8.93,11.87,11.87,0,0,0-8.87-3.71A12.22,12.22,0,0,0,87.91,64.36Z" fill="#d942f3"/><path id="eyelid1" d="M131.23,73.11c0-1.5,0-3.91-1.62-5.73a43.61,43.61,0,0,0-13.18-11C109.76,52.6,105.1,51,96.89,51,90.54,51,84,52.86,77.3,56.64a47.43,47.43,0,0,0-13.18,10.8,8.43,8.43,0,0,0-1.62,5.73h0c0,.21,0,.43,0,.66a4.86,4.86,0,0,0,1.62,3.72A66.2,66.2,0,0,0,77.3,87.31C84,91,90.54,93,96.89,93s12.83-1.86,19.54-5.64a64.29,64.29,0,0,0,13.18-9.82,5,5,0,0,0,1.62-3.72c0-.23,0-.45,0-.66Z" fill="#8F59FF"/></g><g id="eye2"><path id="eyelidopen2" d="M222.55,73.17a8.43,8.43,0,0,1,1.62-5.73,47.43,47.43,0,0,1,13.18-10.8C244.06,52.86,250.6,51,257,51c8.21,0,12.86,1.6,19.53,5.39a43.61,43.61,0,0,1,13.18,11c1.59,1.82,1.62,4.23,1.62,5.73l-68.73.06h0" fill="#8F59FF"/><path id="eyebg2" d="M257,54.6c-6.35,0-12.89,1.85-19.6,5.63a66.22,66.22,0,0,0-13.18,9.83,5,5,0,0,0-1.62,3.77,4.86,4.86,0,0,0,1.62,3.72,66.2,66.2,0,0,0,13.18,9.76C244.06,91,250.6,93,257,93s12.82-1.86,19.53-5.64a64,64,0,0,0,13.18-9.82,5.14,5.14,0,0,0,0-7.49,55.84,55.84,0,0,0-13.18-9.77C269.77,56.52,265,54.6,257,54.6Z" fill="#ffd65d"/><path id="eyepupil2" d="M248,64.36a12.59,12.59,0,1,0,21.51,8.93,12.26,12.26,0,0,0-3.71-8.93,11.9,11.9,0,0,0-8.87-3.71A12.24,12.24,0,0,0,248,64.36Z" fill="#d942f3"/><path id="eyelid2" data-name="eye2" d="M291.28,73.11c0-1.5,0-3.91-1.62-5.73a43.61,43.61,0,0,0-13.18-11C269.81,52.6,265.16,51,257,51c-6.35,0-12.89,1.86-19.6,5.64a47.43,47.43,0,0,0-13.18,10.8,8.43,8.43,0,0,0-1.62,5.73h0c0,.21,0,.43,0,.66a4.86,4.86,0,0,0,1.62,3.72,66.2,66.2,0,0,0,13.18,9.76C244.06,91,250.6,93,257,93s12.82-1.86,19.53-5.64a64,64,0,0,0,13.18-9.82,5,5,0,0,0,1.62-3.72,4.68,4.68,0,0,0,0-.66Z" fill="#8F59FF"/></g><g id="eye5"><path id="eyelidopen5" d="M62.5,186.54a8.41,8.41,0,0,1,1.62-5.72A47.47,47.47,0,0,1,77.3,170c6.71-3.77,13.24-5.63,19.59-5.63,8.21,0,12.87,1.6,19.54,5.39a43.61,43.61,0,0,1,13.18,11c1.59,1.81,1.62,4.23,1.62,5.72l-68.73.06h0" fill="#8F59FF"/><path id="eyebg5" d="M96.89,168c-6.35,0-12.88,1.86-19.59,5.64a66.55,66.55,0,0,0-13.18,9.82,5,5,0,0,0-1.62,3.78,4.84,4.84,0,0,0,1.62,3.71,66.26,66.26,0,0,0,13.18,9.77c6.71,3.71,13.24,5.63,19.59,5.63s12.83-1.86,19.54-5.63a64.35,64.35,0,0,0,13.18-9.83,4.93,4.93,0,0,0,1.62-3.71,5,5,0,0,0-1.62-3.78,56.32,56.32,0,0,0-13.18-9.76C109.72,169.89,105,168,96.89,168Z" fill="#ffd65d"/><path id="eyepupil5" d="M87.91,177.74a12.58,12.58,0,1,0,17.79,17.8,12.51,12.51,0,0,0,0-17.8A11.84,11.84,0,0,0,96.83,174,12.19,12.19,0,0,0,87.91,177.74Z" fill="#d942f3"/><path id="eyelid5" d="M131.23,186.48c0-1.49,0-3.91-1.62-5.72a43.61,43.61,0,0,0-13.18-11c-6.67-3.79-11.33-5.39-19.54-5.39-6.35,0-12.88,1.86-19.59,5.63a47.47,47.47,0,0,0-13.18,10.81,8.41,8.41,0,0,0-1.62,5.72h0c0,.22,0,.44,0,.67a4.84,4.84,0,0,0,1.62,3.71,66.26,66.26,0,0,0,13.18,9.77c6.71,3.71,13.24,5.63,19.59,5.63s12.83-1.86,19.54-5.63a64.35,64.35,0,0,0,13.18-9.83,4.93,4.93,0,0,0,1.62-3.71c0-.23,0-.45,0-.67Z" fill="#8F59FF"/></g><g id="eye6"><path id="eyelidopen6" d="M222.55,186.54a8.41,8.41,0,0,1,1.62-5.72A47.47,47.47,0,0,1,237.35,170c6.71-3.77,13.25-5.63,19.6-5.63,8.21,0,12.86,1.6,19.53,5.39a43.61,43.61,0,0,1,13.18,11c1.59,1.81,1.62,4.23,1.62,5.72l-68.73.06h0" fill="#8F59FF"/><path id="eyebg6" d="M257,168c-6.35,0-12.89,1.86-19.6,5.64a66.55,66.55,0,0,0-13.18,9.82,5,5,0,0,0-1.62,3.78,4.84,4.84,0,0,0,1.62,3.71,66.26,66.26,0,0,0,13.18,9.77c6.71,3.71,13.25,5.63,19.6,5.63s12.82-1.86,19.53-5.63a64.08,64.08,0,0,0,13.18-9.83,4.93,4.93,0,0,0,1.62-3.71,5,5,0,0,0-1.62-3.78,56.11,56.11,0,0,0-13.18-9.76C269.77,169.89,265,168,257,168Z" fill="#ffd65d"/><path id="eyepupil6" d="M248,177.74a12.59,12.59,0,1,0,21.51,8.93,12.24,12.24,0,0,0-3.71-8.93,11.87,11.87,0,0,0-8.87-3.72A12.21,12.21,0,0,0,248,177.74Z" fill="#d942f3"/><path id="eyelid6" d="M291.28,186.48c0-1.49,0-3.91-1.62-5.72a43.61,43.61,0,0,0-13.18-11c-6.67-3.79-11.32-5.39-19.53-5.39-6.35,0-12.89,1.86-19.6,5.63a47.47,47.47,0,0,0-13.18,10.81,8.41,8.41,0,0,0-1.62,5.72h0c0,.22,0,.44,0,.67a4.84,4.84,0,0,0,1.62,3.71,66.26,66.26,0,0,0,13.18,9.77c6.71,3.71,13.25,5.63,19.6,5.63s12.82-1.86,19.53-5.63a64.08,64.08,0,0,0,13.18-9.83,5.13,5.13,0,0,0,1.58-4.38Z" fill="#8F59FF"/></g><g id="eye3"><path id="eyelidopen3" d="M0,131a8.43,8.43,0,0,1,1.62-5.73,47.61,47.61,0,0,1,13.18-10.8c6.71-3.78,13.24-5.63,19.59-5.63,8.21,0,12.87,1.6,19.54,5.39a43.6,43.6,0,0,1,13.18,11c1.59,1.82,1.62,4.23,1.62,5.73L0,131H0" fill="#8F59FF"/><path id="eyebg3" d="M34.39,112.41c-6.35,0-12.88,1.86-19.59,5.63a66.61,66.61,0,0,0-13.18,9.83A5,5,0,0,0,0,131.64a4.86,4.86,0,0,0,1.62,3.72,66.65,66.65,0,0,0,13.18,9.77c6.71,3.71,13.24,5.63,19.59,5.63s12.83-1.86,19.54-5.63a64.71,64.71,0,0,0,13.18-9.83,5.14,5.14,0,0,0,0-7.49A56.05,56.05,0,0,0,53.93,118C47.22,114.33,42.45,112.41,34.39,112.41Z" fill="#ffd65d"/><path id="eyepupil3" d="M25.41,122.18a12.49,12.49,0,0,0,0,17.79,12.09,12.09,0,0,0,8.92,3.72A12.06,12.06,0,0,0,43.2,140a12.06,12.06,0,0,0,3.72-8.86,12.2,12.2,0,0,0-3.72-8.93,11.84,11.84,0,0,0-8.87-3.72A12.19,12.19,0,0,0,25.41,122.18Z" fill="#d942f3"/><path id="eyelid3" d="M68.73,130.92c0-1.5,0-3.91-1.62-5.73a43.6,43.6,0,0,0-13.18-11c-6.67-3.79-11.33-5.39-19.54-5.39-6.35,0-12.88,1.85-19.59,5.63a47.61,47.61,0,0,0-13.18,10.8A8.43,8.43,0,0,0,0,131H0c0,.22,0,.44,0,.66a4.86,4.86,0,0,0,1.62,3.72,66.65,66.65,0,0,0,13.18,9.77c6.71,3.71,13.24,5.63,19.59,5.63s12.83-1.86,19.54-5.63a64.71,64.71,0,0,0,13.18-9.83,5,5,0,0,0,1.62-3.72c0-.22,0-.44,0-.66Z" fill="#8F59FF"/></g><g id="eye4"><path id="eyelidopen4" d="M285.05,131a8.43,8.43,0,0,1,1.62-5.73,47.61,47.61,0,0,1,13.18-10.8c6.71-3.78,13.25-5.63,19.6-5.63,8.21,0,12.86,1.6,19.53,5.39a43.6,43.6,0,0,1,13.18,11c1.59,1.82,1.62,4.23,1.62,5.73l-68.73.06h0" fill="#8F59FF"/><path id="eyebg4" d="M319.45,112.41c-6.35,0-12.89,1.86-19.6,5.63a66.61,66.61,0,0,0-13.18,9.83,5,5,0,0,0-1.62,3.77,4.86,4.86,0,0,0,1.62,3.72,66.65,66.65,0,0,0,13.18,9.77c6.71,3.71,13.25,5.63,19.6,5.63s12.82-1.86,19.53-5.63a64.44,64.44,0,0,0,13.18-9.83,5.14,5.14,0,0,0,0-7.49A55.84,55.84,0,0,0,339,118C332.27,114.33,327.5,112.41,319.45,112.41Z" fill="#ffd65d"/><path id="eyepupil4" d="M310.46,122.18A12.58,12.58,0,1,0,332,131.11a12.23,12.23,0,0,0-3.71-8.93,11.87,11.87,0,0,0-8.87-3.72A12.21,12.21,0,0,0,310.46,122.18Z" fill="#d942f3"/><path id="eyelid4" d="M353.78,130.92c0-1.5,0-3.91-1.62-5.73a43.6,43.6,0,0,0-13.18-11c-6.67-3.79-11.32-5.39-19.53-5.39-6.35,0-12.89,1.85-19.6,5.63a47.61,47.61,0,0,0-13.18,10.8,8.43,8.43,0,0,0-1.62,5.73h0c0,.22,0,.44,0,.66a4.86,4.86,0,0,0,1.62,3.72,66.65,66.65,0,0,0,13.18,9.77c6.71,3.71,13.25,5.63,19.6,5.63s12.82-1.86,19.53-5.63a64.44,64.44,0,0,0,13.18-9.83,5,5,0,0,0,1.62-3.72,4.87,4.87,0,0,0,0-.66Z" fill="#8F59FF"/></g></svg>