<svg id="e8dy5w0bq9p71" xmlns="http://www.w3.org/2000/svg" width="320" viewBox="74 33 233 158" shape-rendering="geometricPrecision" text-rendering="geometricPrecision"><style>@keyframes float{0%{transform:translatey(0)}50%{transform:translatey(5px)}}<![CDATA[#e8dy5w0bq9p714_to {animation: e8dy5w0bq9p714_to__to 7000ms linear infinite normal forwards}@keyframes e8dy5w0bq9p714_to__to { 0% {transform: translate(205.610012px,103.259483px);animation-timing-function: cubic-bezier(0.645000,0.045000,0.355000,1)} 7.142857% {transform: translate(205.425000px,92.969335px);animation-timing-function: cubic-bezier(0.680000,-0.550000,0.265000,1.550000)} 14.285714% {transform: translate(205.610012px,103.259483px)} 100% {transform: translate(205.610012px,103.259483px)} }#e8dy5w0bq9p714_tr {animation: e8dy5w0bq9p714_tr__tr 7000ms linear infinite normal forwards}@keyframes e8dy5w0bq9p714_tr__tr { 0% {transform: rotate(0deg)} 14.285714% {transform: rotate(0deg)} 100% {transform: rotate(0deg)} }#e8dy5w0bq9p716_to {animation: e8dy5w0bq9p716_to__to 7000ms linear infinite normal forwards}@keyframes e8dy5w0bq9p716_to__to { 0% {transform: translate(190.390012px,128.064993px)} 11.428571% {transform: translate(190.390012px,128.064993px)} 12.857143% {transform: translate(190.390012px,130px)} 14.285714% {transform: translate(190.390012px,128px)} 100% {transform: translate(190.390012px,128px)} }#e8dy5w0bq9p717_to {animation: e8dy5w0bq9p717_to__to 7000ms linear infinite normal forwards}@keyframes e8dy5w0bq9p717_to__to { 0% {transform: translate(190.680012px,125.649993px)} 11.428571% {transform: translate(190.680012px,125.649993px)} 12.857143% {transform: translate(190.680012px,128px)} 14.285714% {transform: translate(190.680012px,125.649993px)} 100% {transform: translate(190.680012px,125.649993px)} }#e8dy5w0bq9p717_ts {animation: e8dy5w0bq9p717_ts__ts 7000ms linear infinite normal forwards}@keyframes e8dy5w0bq9p717_ts__ts { 0% {transform: scale(1,1)} 14.714286% {transform: scale(1,1)} 15.857143% {transform: scale(1.100000,1.100000);animation-timing-function: cubic-bezier(0.785000,0.135000,0.150000,0.860000)} 17.285714% {transform: scale(1,1)} 100% {transform: scale(1,1)} }]]></style><defs><clipPath id="e8dy5w0bq9p72"><rect id="e8dy5w0bq9p73" width="24" height="64" rx="0" ry="0" transform="translate(797 493)" fill="none" stroke="none" stroke-width="1"/></clipPath><clipPath id="e8dy5w0bq9p74"><rect id="e8dy5w0bq9p75" width="33" height="63" rx="0" ry="0" transform="translate(1094 492)" fill="none" stroke="none" stroke-width="1"/></clipPath><clipPath id="e8dy5w0bq9p76"><rect id="e8dy5w0bq9p77" width="23" height="66" rx="0" ry="0" transform="translate(797 492)" fill="none" stroke="none" stroke-width="1"/></clipPath><clipPath id="e8dy5w0bq9p78"><rect id="e8dy5w0bq9p79" width="29" height="78" rx="0" ry="0" transform="translate(1098 489)" fill="none" stroke="none" stroke-width="1"/></clipPath><clipPath id="e8dy5w0bq9p710"><path id="e8dy5w0bq9p711" d="M1003.42 518.82c-24.31 0-31.43 10-43.21 10-11.78 0-18.89-9.95-43.2-9.95-24.31 0-29.93 6-29.79 24.88.22 30.38 14 48.11 32.77 48.11 14.27 0 25.67-18.25 40.22-18.25 14.55 0 25 18.25 40.23 18.25 18.72 0 32.54-17.73 32.77-48.12.14-18.86-5.48-24.88-29.79-24.88m-52.64 34.91c-.82 5.17-8.15 10.72-17.76 10.72a25.29 25.29 0 01-7.19-1.06c-9.06-2.86-14-8.29-14.78-12.12a4.49 4.49 0 011.41-4.52c4-3.59 12.78-4.88 19.69-4.88 1.1 0 2.21 0 3.3.09 6.53.5 11.44 2.49 13.85 5.6a7.54 7.54 0 011.48 6.17m58.6-2.46c-.77 3.83-5.72 9.26-14.79 12.12a25.19 25.19 0 01-7.19 1.06c-9.61 0-16.94-5.55-17.75-10.72a7.54 7.54 0 011.48-6.17c2.41-3.11 7.32-5.1 13.84-5.6 1.1-.05 2.2-.09 3.3-.09 6.91 0 15.72 1.29 19.69 4.88a4.47 4.47 0 011.42 4.52" clip-rule="evenodd" fill="none" stroke="none" stroke-width="1"/></clipPath></defs><path id="e8dy5w0bq9p712" d="M1116.06 433.53H807.84v-19.542c.031-7.204 5.88-13.028 13.084-13.028h281.986c7.204 0 13.053 5.824 13.084 13.028z" transform="matrix(.75 0 0 .75 -530.571 -266.937)" fill="#ccc" fill-rule="evenodd" stroke="none" stroke-width="1"/><path id="e8dy5w0bq9p713" d="M919.314 439.856V407.44h-60.17v32.416l-51.374-.152v164.098c0 7.229 5.86 13.09 13.09 13.09h282.11c7.23 0 13.09-5.861 13.09-13.09V439.704z" transform="matrix(.75 0 0 .75 -530.571 -271.798)" fill="#eaeaea" stroke="none" stroke-width="1"/><g style="animation:float 5s ease-in-out infinite"><g id="e8dy5w0bq9p714_to" transform="translate(205.61 103.26)"><g id="e8dy5w0bq9p714_tr"><path id="e8dy5w0bq9p714" d="M0 12.12v-23.73c-.21-8.092-6.83-14.543-14.925-14.543S-29.641-19.702-29.85-11.61V.83" fill="none" stroke="#20123a" stroke-width="7.14" stroke-linecap="round" stroke-miterlimit="10"/></g></g><g id="e8dy5w0bq9p715"><g id="e8dy5w0bq9p716_to" transform="translate(190.39 128.065)"><path id="e8dy5w0bq9p716" d="M935.39 502.91h52.09a5.6 5.6 0 015.64 5.55v38.85a5.6 5.6 0 01-5.64 5.55h-52.09a5.59 5.59 0 01-5.63-5.55v-38.85a5.59 5.59 0 015.63-5.55" transform="translate(-961.44 -527.885)" fill="#8F59FF" fill-rule="evenodd" stroke="none" stroke-width="1"/></g><g id="e8dy5w0bq9p717_to" transform="translate(190.68 125.65)"><g id="e8dy5w0bq9p717_ts"><path id="e8dy5w0bq9p717" d="M961.73 514.2c2.384.01 4.411 1.777 4.795 4.178.384 2.4-.988 4.733-3.245 5.516l3.18 9.633c.286.84.159 1.77-.342 2.498a2.695 2.695 0 01-2.188 1.175h-4.4a2.695 2.695 0 01-2.188-1.175 2.813 2.813 0 01-.342-2.498l3.18-9.633c-2.257-.783-3.629-3.116-3.245-5.516.384-2.4 2.411-4.167 4.795-4.178z" transform="translate(-961.73 -525.47)" fill="#FFD65D" fill-rule="evenodd" stroke="none" stroke-width="1"/></g></g></g></g></svg>