<svg id="enaw72db01wd1" xmlns="http://www.w3.org/2000/svg" xmlns:xlink="http://www.w3.org/1999/xlink" viewBox="74 33 233 158" width="320px" shape-rendering="geometricPrecision" text-rendering="geometricPrecision"><style>@keyframes float{0%{transform: translatey(0px);}50%{transform:translatey(5px);}100%{transform:translatey(0px);}}.lock{animation:float 5s ease-in-out infinite;}<![CDATA[#enaw72db01wd12_to {animation: enaw72db01wd12_to__to 7000ms linear infinite normal forwards}@keyframes enaw72db01wd12_to__to { 0% {transform: translate(205.610012px,103.259483px);animation-timing-function: cubic-bezier(0.645000,0.045000,0.355000,1)} 7.142857% {transform: translate(205.425000px,92.969335px);animation-timing-function: cubic-bezier(0.680000,-0.550000,0.265000,1.550000)} 14.285714% {transform: translate(205.610012px,103.259483px)} 100% {transform: translate(205.610012px,103.259483px)} }#enaw72db01wd12_tr {animation: enaw72db01wd12_tr__tr 7000ms linear infinite normal forwards}@keyframes enaw72db01wd12_tr__tr { 0% {transform: rotate(0deg)} 14.285714% {transform: rotate(0deg)} 100% {transform: rotate(0deg)} }#enaw72db01wd14_to {animation: enaw72db01wd14_to__to 7000ms linear infinite normal forwards}@keyframes enaw72db01wd14_to__to { 0% {transform: translate(190.390012px,128.064993px)} 11.428571% {transform: translate(190.390012px,128.064993px)} 12.857143% {transform: translate(190.390012px,130px)} 14.285714% {transform: translate(190.390012px,128px)} 100% {transform: translate(190.390012px,128px)} }#enaw72db01wd15_to {animation: enaw72db01wd15_to__to 7000ms linear infinite normal forwards}@keyframes enaw72db01wd15_to__to { 0% {transform: translate(190.680012px,125.649993px)} 11.428571% {transform: translate(190.680012px,125.649993px)} 12.857143% {transform: translate(190.680012px,128px)} 14.285714% {transform: translate(190.680012px,125.649993px)} 100% {transform: translate(190.680012px,125.649993px)} }#enaw72db01wd15_ts {animation: enaw72db01wd15_ts__ts 7000ms linear infinite normal forwards}@keyframes enaw72db01wd15_ts__ts { 0% {transform: scale(1,1)} 14.714286% {transform: scale(1,1)} 15.857143% {transform: scale(1.100000,1.100000);animation-timing-function: cubic-bezier(0.785000,0.135000,0.150000,0.860000)} 17.285714% {transform: scale(1,1)} 100% {transform: scale(1,1)} }]]></style><defs><clipPath id="enaw72db01wd2"><rect id="enaw72db01wd3" width="24" height="64" rx="0" ry="0" transform="matrix(1 0 0 1 797 493)" fill="none" stroke="none" stroke-width="1"/></clipPath><clipPath id="enaw72db01wd4"><rect id="enaw72db01wd5" width="33" height="63" rx="0" ry="0" transform="matrix(1 0 0 1 1094 492)" fill="none" stroke="none" stroke-width="1"/></clipPath><clipPath id="enaw72db01wd6"><rect id="enaw72db01wd7" width="23" height="66" rx="0" ry="0" transform="matrix(1 0 0 1 797 492)" fill="none" stroke="none" stroke-width="1"/></clipPath><clipPath id="enaw72db01wd8"><rect id="enaw72db01wd9" width="29" height="78" rx="0" ry="0" transform="matrix(1 0 0 1 1098 489)" fill="none" stroke="none" stroke-width="1"/></clipPath></defs><path id="enaw72db01wd10" d="M1116.059501,433.529767L807.840499,433.529767L807.840499,413.988047C807.871374,406.783923,813.720197,400.960167,820.924386,400.960233L1102.910194,400.960233C1110.114384,400.960167,1115.963206,406.783923,1115.994081,413.988047Z" transform="matrix(0.75000000000000 0 0 0.75000000000000 -530.57123779222638 -266.93732932316402)" fill="#20123a" fill-rule="evenodd" stroke="none" stroke-width="1"/><path id="enaw72db01wd11" d="M924.502012,439.704307L924.502012,407.288756L855.547674,407.288756L855.547674,439.704307L807.770499,439.704307L807.770499,603.801607C807.770499,611.030814,813.630929,616.891244,820.860136,616.891244L1102.969864,616.891244C1110.199071,616.891244,1116.059501,611.030814,1116.059501,603.801607L1116.059501,439.704307Z" transform="matrix(0.75000000000000 0 0 0.75000000000000 -530.57123779222661 -271.79750732316404)" fill="#8F59FF" stroke="none" stroke-width="1"/>
<g class="lock"><g id="enaw72db01wd12_to" transform="translate(205.610012,103.259483)"><g id="enaw72db01wd12_tr" transform="rotate(0)"><path id="enaw72db01wd12" d="M976.660000,514.200000L976.660000,490.470000C976.450513,482.377599,969.830112,475.926361,961.735000,475.926361C953.639888,475.926361,947.019487,482.377599,946.810000,490.470000L946.810000,502.910000" transform="translate(-976.660000,-502.079490)" fill="none" stroke="#20123a" stroke-width="7.140000" stroke-linecap="round" stroke-miterlimit="10"/></g></g><g id="enaw72db01wd13"><g id="enaw72db01wd14_to" transform="translate(190.390012,128.064993)"><path id="enaw72db01wd14" d="M935.390000,502.910000L987.480000,502.910000C990.568953,502.887813,993.092499,505.371089,993.120000,508.460000L993.120000,547.310000C993.092499,550.398911,990.568953,552.882187,987.480000,552.860000L935.390000,552.860000C933.907428,552.870647,932.481354,552.291888,931.425516,551.251053C930.369678,550.210218,929.770571,548.792572,929.760000,547.310000L929.760000,508.460000C929.770571,506.977428,930.369678,505.559782,931.425516,504.518947C932.481354,503.478112,933.907428,502.899353,935.390000,502.910000" transform="translate(-961.440000,-527.885000)" fill="#FFD65D" fill-rule="evenodd" stroke="none" stroke-width="1"/></g><g id="enaw72db01wd15_to" transform="translate(190.680012,125.649993)"><g id="enaw72db01wd15_ts" transform="scale(1,1)"><path id="enaw72db01wd15" d="M961.730000,514.200000C964.113691,514.210709,966.140984,515.977068,966.524830,518.377687C966.908677,520.778305,965.536736,523.110595,963.280000,523.893878L966.460000,533.526531C966.746451,534.367021,966.619018,535.296818,966.117590,536.024873C965.616162,536.752928,964.802016,537.190270,963.930000,537.200000L959.530000,537.200000C958.657984,537.190270,957.843838,536.752928,957.342410,536.024873C956.840982,535.296818,956.713549,534.367021,957,533.526531L960.180000,523.893878C957.923264,523.110595,956.551323,520.778305,956.935170,518.377687C957.319016,515.977068,959.346309,514.210709,961.730000,514.200000Z" transform="translate(-961.730000,-525.470000)" fill="#D942F3" fill-rule="evenodd" stroke="none" stroke-width="1"/></g></g></g></g></svg> 