<svg width="508" height="416" viewBox="0 0 508 416" version="1.1" xmlns="http://www.w3.org/2000/svg" xmlns:xlink="http://www.w3.org/1999/xlink" id="compare-hero_VGFQMOz8y"><style>@keyframes compare-hero-kf_el_0AKEMg-FFm7_an_rzb6-FFJX{0%,29.63%{opacity:0}31.6%,to{opacity:1}}@keyframes compare-hero-kf_el_0AKEMg-FFm7_an_BmO1tTMjp{0%,29.63%{transform:translate(162.962px,12.636px) scale(.85,.85) translate(-162.962px,-12.636px)}33.33%,to{transform:translate(162.962px,12.636px) scale(1,1) translate(-162.962px,-12.636px)}}@keyframes compare-hero-kf_el_Lp8UrjQ4-Lc_an_FRrB0GQP5{0%,25.93%{opacity:0}27.9%,to{opacity:1}}@keyframes compare-hero-kf_el_Lp8UrjQ4-Lc_an_0MWQ4tdJ2{0%,25.93%{transform:translate(88.079px,12.876px) scale(.85,.85) translate(-88.079px,-12.876px)}29.63%,to{transform:translate(88.079px,12.876px) scale(1,1) translate(-88.079px,-12.876px)}}@keyframes compare-hero-kf_el_9lYNPVtUhRC_an_Wcn9SHHXFV{0%,22.22%{opacity:0}24.2%,to{opacity:1}}@keyframes compare-hero-kf_el_9lYNPVtUhRC_an_6yfKubkFI{0%,22.22%{transform:translate(15.962px,12.636px) scale(.85,.85) translate(-15.962px,-12.636px)}25.93%,to{transform:translate(15.962px,12.636px) scale(1,1) translate(-15.962px,-12.636px)}}@keyframes compare-hero-kf_el_wVtTWU1_1VJ_an_qC5UhNihS{0%,18.52%{opacity:0}20.49%,to{opacity:1}}@keyframes compare-hero-kf_el_wVtTWU1_1VJ_an_XEos09jj4{0%,18.52%{transform:translate(161.079px,12.876px) scale(.85,.85) translate(-161.079px,-12.876px)}22.22%,to{transform:translate(161.079px,12.876px) scale(1,1) translate(-161.079px,-12.876px)}}@keyframes compare-hero-kf_el_vuDvaPWTBw-_an_7FFyNoaoR{0%,14.81%{opacity:0}16.79%,to{opacity:1}}@keyframes compare-hero-kf_el_vuDvaPWTBw-_an_dHhdbNpgM{0%,14.81%{transform:translate(89.962px,12.636px) scale(.85,.85) translate(-89.962px,-12.636px)}18.52%,to{transform:translate(89.962px,12.636px) scale(1,1) translate(-89.962px,-12.636px)}}@keyframes compare-hero-kf_el_WtjWusJ4Fwu_an_AgpA-Zk_e{0%,11.11%{opacity:0}13.09%,to{opacity:1}}@keyframes compare-hero-kf_el_WtjWusJ4Fwu_an_URAn3ib-z{0%,11.11%{transform:translate(15.962px,12.636px) scale(.85,.85) translate(-15.962px,-12.636px)}14.81%,to{transform:translate(15.962px,12.636px) scale(1,1) translate(-15.962px,-12.636px)}}@keyframes compare-hero-kf_el_AAqgOH6XZRW_an_C--CPg6Mn{0%,7.41%{opacity:0}9.38%,to{opacity:1}}@keyframes compare-hero-kf_el_AAqgOH6XZRW_an_sVy8SWQuj{0%,7.41%{transform:translate(161.079px,12.876px) scale(.85,.85) translate(-161.079px,-12.876px)}11.11%,to{transform:translate(161.079px,12.876px) scale(1,1) translate(-161.079px,-12.876px)}}@keyframes compare-hero-kf_el_hoNa9KBNqh3_an_XAjL7TgCc{0%,3.7%{opacity:0}5.68%,to{opacity:1}}@keyframes compare-hero-kf_el_hoNa9KBNqh3_an_9UVyPSwO1{0%,3.7%{transform:translate(89.962px,11.636px) scale(.85,.85) translate(-89.962px,-11.636px)}7.41%,to{transform:translate(89.962px,11.636px) scale(1,1) translate(-89.962px,-11.636px)}}@keyframes compare-hero-kf_el_or1bP7GV-r3_an_9m5lGdD-Cx{0%{opacity:0}1.98%,to{opacity:1}}@keyframes compare-hero-kf_el_or1bP7GV-r3_an_ZlKqLvIa3{0%{transform:translate(15.962px,11.636px) scale(.85,.85) translate(-15.962px,-11.636px)}3.7%,to{transform:translate(15.962px,11.636px) scale(1,1) translate(-15.962px,-11.636px)}}#compare-hero_VGFQMOz8y *{animation-duration:13.5s;animation-iteration-count:infinite;animation-timing-function:cubic-bezier(0,0,1,1)}</style><defs><linearGradient x1="1.018%" y1="109.891%" x2="52.903%" y2="37.827%" id="linearGradient-1"><stop stop-color="#FF723A" offset="0%"/><stop stop-color="#FFA535" offset="100%"/></linearGradient><linearGradient x1="23.806%" y1="66.189%" x2="46.918%" y2="28.313%" id="linearGradient-2"><stop stop-color="#45228F" offset="0%"/><stop stop-color="#AC6BFF" offset="100%"/></linearGradient><linearGradient x1="13.932%" y1="86.987%" x2="37.601%" y2="140.081%" id="linearGradient-3"><stop stop-color="#FFD65D" offset="0%"/><stop stop-color="#FFBE42" offset="100%"/></linearGradient><path d="M8.44.915h424.646a8.287 8.287 0 018.287 8.287v292.54a5.18 5.18 0 01-5.18 5.18H5.334a5.18 5.18 0 01-5.18-5.18V9.202A8.287 8.287 0 018.442.915z" id="path-4"/><path d="M77.66 22.976h335.31c1.145 0 2.072.927 2.072 2.071v9.378a2.072 2.072 0 01-2.072 2.072H77.66a2.072 2.072 0 01-2.072-2.072v-9.378c0-1.144.928-2.071 2.072-2.071z" id="path-6"/><filter x="-7%" y="-8.5%" width="114.1%" height="120.3%" filterUnits="objectBoundingBox" id="filter-5"><feOffset dy="5" in="SourceAlpha" result="shadowOffsetOuter1"/><feGaussianBlur stdDeviation="9.5" in="shadowOffsetOuter1" result="shadowBlurOuter1"/><feColorMatrix values="0 0 0 0 0.125490196 0 0 0 0 0.0705882353 0 0 0 0 0.22745098 0 0 0 0.24 0" in="shadowBlurOuter1"/></filter></defs><g fill-rule="evenodd" style="stroke:none;stroke-width:1;fill:none"><g style="transform:translate(0,-12px)"><path d="M125.74 394.05c-13.327 14.805-31.393 22.805-49.83 23.771-18.435.967-37.24-5.1-52.042-18.429C9.065 386.063 1.066 367.997.1 349.562c-.967-18.437 5.1-37.242 18.427-52.046L237.5 54.323c13.33-14.801 31.397-22.799 49.832-23.765 18.435-.965 37.239 5.1 52.043 18.429 14.802 13.33 22.801 31.397 23.767 49.832.966 18.435-5.101 37.238-18.43 52.04L125.741 394.05z" style="fill:url(#linearGradient-1)"/><path d="M354.064 386.914c-58.375 15.642-122.718 9.014-179.192-23.591-56.474-32.605-94.385-85.014-110.027-143.39-15.642-58.375-9.014-122.718 23.592-179.192 9.038-15.655 23.565-26.164 39.747-30.5 16.181-4.335 34.017-2.498 49.672 6.54 15.654 9.038 26.164 23.566 30.5 39.747 4.335 16.182 2.498 34.017-6.54 49.672-14.53 25.165-17.483 53.837-10.513 79.849 6.97 26.013 23.864 49.366 49.028 63.895 25.165 14.529 53.837 17.482 79.85 10.512 26.012-6.97 49.365-23.863 63.894-49.028 9.038-15.655 23.566-26.164 39.747-30.5 16.182-4.336 34.017-2.498 49.672 6.54 15.655 9.038 26.164 23.566 30.5 39.747 4.336 16.182 2.498 34.017-6.54 49.672-32.605 56.474-85.014 94.385-143.39 110.027z" style="fill:url(#linearGradient-2);transform:translate(-6.86px,9.946px) rotate(-2deg)"/><path d="M281.497 427.692c50.26 0 91.002-40.741 91.002-91.002 0-50.26-40.741-91.002-91.002-91.002-50.26 0-91.002 40.742-91.002 91.002s40.742 91.002 91.002 91.002" style="fill:url(#linearGradient-3)"/></g><g style="transform:translate(33.782px,68.256px)"><g id="compare-hero_TQ89esiyri"><g id="compare-hero_CU37Ll_0Nf"><use filter="url(#filter-5)" xlink:href="#path-4" style="fill:#000;fill-opacity:1"/><use xlink:href="#path-4" style="fill:#fff"/></g><path d="M5.333.915h430.86a5.18 5.18 0 015.18 5.179v11.82H.153V6.095a5.18 5.18 0 015.18-5.18z" fill-rule="nonzero" style="fill:#2c2831"/><path d="M.154 292.754h441.219v8.988a5.18 5.18 0 01-5.18 5.18H5.334a5.18 5.18 0 01-5.18-5.18v-8.988z" fill-rule="nonzero" style="fill:#bbb"/><path d="M113.749 5.541l-.001 12.373h327.625v22.668H.153V17.915h26.32l.001-12.374h87.275z" fill-rule="nonzero" style="fill:#e1e1e2"/><mask id="mask-7" fill="#fff"><use xlink:href="#path-6"/></mask><use xlink:href="#path-6" style="fill:#fff"/><rect fill-rule="nonzero" x="85.35" y="27.835" width="108.746" height="4.25" rx="1.036" style="fill:#bbb"/><rect fill-rule="nonzero" x="19.548" y="24.998" width="8.312" height="8.5" rx="4.156" style="fill:#bbb"/><rect fill-rule="nonzero" x="33.401" y="24.998" width="8.312" height="8.5" rx="4.156" style="fill:#bbb"/><rect fill-rule="nonzero" x="47.947" y="24.998" width="8.312" height="8.5" rx="4.156" style="fill:#bbb"/></g><g style="transform:translate(57.122px,89.497px)"><g stroke-linecap="round" style="transform:translate(146.73px,124.853px);stroke-width:5.783"><g style="animation-fill-mode:backwards;transform:translate(88.079px,12.876px) scale(.85,.85) translate(-88.079px,-12.876px);animation-name:compare-hero-kf_el_Lp8UrjQ4-Lc_an_0MWQ4tdJ2;animation-timing-function:cubic-bezier(0,0,1,1)"><g style="transform:translate(71.138px,0);stroke:#df7cf1;animation-fill-mode:backwards;opacity:0;animation-name:compare-hero-kf_el_Lp8UrjQ4-Lc_an_FRrB0GQP5;animation-timing-function:cubic-bezier(0,0,1,1)" data-animator-group="true" data-animator-type="2"><path style="transform:translate(38.308px,15.488px) rotate(-210deg)" d="M.126 17.419l33.906-9.085"/><path id="compare-hero_GE7BLkVoCWf" d="M29.489 25.287L4.669.466"/></g></g><g style="animation-fill-mode:backwards;transform:translate(162.962px,12.636px) scale(.85,.85) translate(-162.962px,-12.636px);animation-name:compare-hero-kf_el_0AKEMg-FFm7_an_BmO1tTMjp;animation-timing-function:cubic-bezier(0,0,1,1)"><g stroke-linejoin="round" style="transform:translate(146.639px,1.939px);stroke:#3fe1b0;animation-fill-mode:backwards;opacity:0;animation-name:compare-hero-kf_el_0AKEMg-FFm7_an_rzb6-FFJX;animation-timing-function:cubic-bezier(0,0,1,1)" data-animator-group="true" data-animator-type="2"><path id="compare-hero_1XzbUXiL5zc" d="M31.926 0L9.976 21.274 0 11.604"/></g></g><g style="animation-fill-mode:backwards;transform:translate(15.962px,12.636px) scale(.85,.85) translate(-15.962px,-12.636px);animation-name:compare-hero-kf_el_9lYNPVtUhRC_an_6yfKubkFI;animation-timing-function:cubic-bezier(0,0,1,1)"><g stroke-linejoin="round" style="transform:translate(0,1.939px);stroke:#3fe1b0;animation-fill-mode:backwards;opacity:0;animation-name:compare-hero-kf_el_9lYNPVtUhRC_an_Wcn9SHHXFV;animation-timing-function:cubic-bezier(0,0,1,1)" data-animator-group="true" data-animator-type="2"><path id="compare-hero_pegzedE8yhf" d="M31.926 0L9.976 21.274 0 11.604"/></g></g></g><g stroke-linecap="round" style="transform:translate(146.759px,63.14px);stroke-width:5.783"><g style="animation-fill-mode:backwards;transform:translate(161.079px,12.876px) scale(.85,.85) translate(-161.079px,-12.876px);animation-name:compare-hero-kf_el_wVtTWU1_1VJ_an_XEos09jj4;animation-timing-function:cubic-bezier(0,0,1,1)"><g style="transform:translate(144.292px,0);stroke:#df7cf1;animation-fill-mode:backwards;opacity:0;animation-name:compare-hero-kf_el_wVtTWU1_1VJ_an_qC5UhNihS;animation-timing-function:cubic-bezier(0,0,1,1)" data-animator-group="true" data-animator-type="2"><path style="transform:translate(38.308px,15.488px) rotate(-210deg)" d="M.126 17.419l33.906-9.085"/><path id="compare-hero_bGHcBNDlowq" d="M29.489 25.287L4.669.466"/></g></g><g style="animation-fill-mode:backwards;transform:translate(15.962px,12.636px) scale(.85,.85) translate(-15.962px,-12.636px);animation-name:compare-hero-kf_el_WtjWusJ4Fwu_an_URAn3ib-z;animation-timing-function:cubic-bezier(0,0,1,1)"><g stroke-linejoin="round" style="transform:translate(0,1.939px);stroke:#3fe1b0;animation-fill-mode:backwards;opacity:0;animation-name:compare-hero-kf_el_WtjWusJ4Fwu_an_AgpA-Zk_e;animation-timing-function:cubic-bezier(0,0,1,1)" data-animator-group="true" data-animator-type="2"><path id="compare-hero_fUg80GAz1-j" d="M31.926 0L9.976 21.274 0 11.604"/></g></g><g style="animation-fill-mode:backwards;transform:translate(89.962px,12.636px) scale(.85,.85) translate(-89.962px,-12.636px);animation-name:compare-hero-kf_el_vuDvaPWTBw-_an_dHhdbNpgM;animation-timing-function:cubic-bezier(0,0,1,1)"><g stroke-linejoin="round" style="transform:translate(73.735px,1.939px);stroke:#3fe1b0;animation-fill-mode:backwards;opacity:0;animation-name:compare-hero-kf_el_vuDvaPWTBw-_an_7FFyNoaoR;animation-timing-function:cubic-bezier(0,0,1,1)" data-animator-group="true" data-animator-type="2"><path id="compare-hero_Tszul4KZS4h" d="M31.926 0L9.976 21.274 0 11.604"/></g></g></g><g stroke-linecap="round" style="transform:translate(146.759px,0);stroke-width:5.783"><g style="animation-fill-mode:backwards;transform:translate(161.079px,12.876px) scale(.85,.85) translate(-161.079px,-12.876px);animation-name:compare-hero-kf_el_AAqgOH6XZRW_an_sVy8SWQuj;animation-timing-function:cubic-bezier(0,0,1,1)"><g style="transform:translate(144.292px,0);stroke:#df7cf1;animation-fill-mode:backwards;opacity:0;animation-name:compare-hero-kf_el_AAqgOH6XZRW_an_C--CPg6Mn;animation-timing-function:cubic-bezier(0,0,1,1)" data-animator-group="true" data-animator-type="2"><path style="transform:translate(38.308px,15.488px) rotate(-210deg)" d="M.126 17.419l33.906-9.085"/><path id="compare-hero_lrpjbRfjeeL" d="M29.489 25.287L4.669.466"/></g></g><g style="animation-fill-mode:backwards;transform:translate(15.962px,11.636px) scale(.85,.85) translate(-15.962px,-11.636px);animation-name:compare-hero-kf_el_or1bP7GV-r3_an_ZlKqLvIa3;animation-timing-function:cubic-bezier(0,0,1,1)"><g stroke-linejoin="round" style="transform:translate(0,.718px);stroke:#3fe1b0;animation-fill-mode:backwards;opacity:0;animation-name:compare-hero-kf_el_or1bP7GV-r3_an_9m5lGdD-Cx;animation-timing-function:cubic-bezier(0,0,1,1)" data-animator-group="true" data-animator-type="2"><path id="compare-hero_AxM1InAt7UM" d="M31.926 0L9.976 21.274 0 11.604"/></g></g><g style="animation-fill-mode:backwards;transform:translate(89.962px,11.636px) scale(.85,.85) translate(-89.962px,-11.636px);animation-name:compare-hero-kf_el_hoNa9KBNqh3_an_9UVyPSwO1;animation-timing-function:cubic-bezier(0,0,1,1)"><g stroke-linejoin="round" style="transform:translate(73.744px,.718px);stroke:#3fe1b0;animation-fill-mode:backwards;opacity:0;animation-name:compare-hero-kf_el_hoNa9KBNqh3_an_XAjL7TgCc;animation-timing-function:cubic-bezier(0,0,1,1)" data-animator-group="true" data-animator-type="2"><path id="compare-hero_qDHvKrxI2yL" d="M31.926 0L9.976 21.274 0 11.604"/></g></g></g><rect y="6.373" width="68.561" height="11.567" rx="2.313" style="fill:#cdcdd4"/><rect y="70.499" width="88.931" height="11.567" rx="2.313" style="fill:#cdcdd4"/><rect y="132.311" width="60.115" height="11.567" rx="2.313" style="fill:#cdcdd4"/></g></g></g></svg>
