<svg xmlns="http://www.w3.org/2000/svg" xmlns:xlink="http://www.w3.org/1999/xlink" width="420" height="224" viewbox="0 0 420 224"><style>.st0{fill:#ccc}.st0,.st6,.st7{fill-rule:evenodd;clip-rule:evenodd}.st6{fill:#ffd65d}.st7{fill:#8f59ff}</style><path class="st0" d="M373.8 34.8H44V13.9C44 6.2 50.3 0 58 0h301.8c7.7 0 14 6.2 14 13.9v20.9z"/><path d="M163.9 34.8V0h-63.8v34.8H44v175.5c0 7.7 6.3 14 14 14h301.8c7.7 0 14-6.3 14-14V34.8H163.9z" fill-rule="evenodd" clip-rule="evenodd" fill="#eaeaea"/><defs><path id="SVGID_1_" d="M44 47h88.4v135.1H44z"/></defs><clipPath id="SVGID_2_"><use xlink:href="#SVGID_1_" overflow="visible"/></clipPath><g clip-path="url(#SVGID_2_)"><path class="st0" d="M33.2 107.3h72.7c4.3 0 7.8 3.4 7.9 7.7v54.2c0 4.3-3.6 7.8-7.9 7.7H33.2c-4.3 0-7.8-3.4-7.9-7.7V115c0-4.2 3.6-7.7 7.9-7.7"/><path d="M69.1 149.9c-14.7.1-26.7-11.7-26.8-26.4V90.4c.3-14.8 12.5-26.5 27.3-26.3 14.4.3 26 11.9 26.2 26.3v33.1c-.1 14.6-12.1 26.4-26.7 26.4zm0-74c-8.1-.1-14.8 6.4-14.9 14.5v33.1c.2 8.2 7 14.7 15.3 14.5 7.9-.2 14.3-6.6 14.5-14.5V90.4c-.2-8.1-6.8-14.6-14.9-14.5z" fill="#ccc"/></g><path d="M28.9 76.4c.2-8.2 7-14.7 15.3-14.5 7.9.2 14.3 6.6 14.5 14.5v17h11.9v-17C70.3 61.6 58 49.9 43.3 50.2c-14.4.3-26 11.8-26.3 26.2v17h11.9v-17z" fill="#20103a"/><path d="M80.5 93.4H7.9c-4.3 0-7.8 3.4-7.9 7.7v54.2c0 4.3 3.6 7.8 7.9 7.7h72.7c4.3 0 7.8-3.4 7.9-7.7v-54.2c-.1-4.3-3.7-7.7-8-7.7z" fill="#8f59ff"/><path class="st6" d="M51 116.3c0-3.8-3-6.8-6.8-6.8s-6.8 3-6.8 6.8 3 6.8 6.8 6.8c3.8.1 6.8-3 6.8-6.8 0 .1 0 .1 0 0"/><path class="st6" d="M44.2 116.3L37.6 136c-.7 2 .4 4.1 2.4 4.8.4.1.8.2 1.1.2h6.1c2.1 0 3.8-1.8 3.7-3.9 0-.4-.1-.8-.2-1.1l-6.5-19.7z"/><path class="st0" d="M252.2 98c-24.3 0-31.4 10-43.2 10s-18.9-10-43.2-10-29.9 6-29.8 24.9c.2 30.4 14.1 48.1 32.8 48.1 14.3 0 25.7-18.2 40.2-18.2s25.1 18.3 40.2 18.3c18.7 0 32.5-17.7 32.8-48.1.1-19-5.5-25-29.8-25m-52.6 34.9c-.8 5.2-8.1 10.7-17.8 10.7-2.4 0-4.9-.4-7.2-1.1-9.1-2.9-14-8.3-14.8-12.1-.4-1.7.1-3.4 1.4-4.5 4-3.6 12.8-4.9 19.7-4.9 1.1 0 2.2 0 3.3.1 6.5.5 11.4 2.5 13.8 5.6 1.5 1.8 2 4 1.6 6.2m58.6-2.4c-.8 3.8-5.7 9.3-14.8 12.1-2.3.7-4.8 1-7.2 1.1-9.6 0-16.9-5.6-17.8-10.7-.4-2.2.1-4.4 1.5-6.2 2.4-3.1 7.3-5.1 13.8-5.6 1.1-.1 2.2-.1 3.3-.1 6.9 0 15.7 1.3 19.7 4.9 1.3 1 1.9 2.8 1.5 4.5"/><path class="st7" d="M252.2 81c-24.3 0-31.4 10-43.2 10s-18.9-10-43.2-10-29.9 6-29.8 24.9c.2 30.4 14.1 48.1 32.8 48.1 14.3 0 25.7-18.2 40.2-18.2s25.1 18.2 40.2 18.2c18.7 0 32.5-17.7 32.8-48.1.1-18.9-5.5-24.9-29.8-24.9m-52.6 34.9c-.8 5.2-8.1 10.7-17.8 10.7-2.4 0-4.9-.4-7.2-1.1-9.1-2.9-14-8.3-14.8-12.1-.4-1.7.1-3.4 1.4-4.5 4-3.6 12.8-4.9 19.7-4.9 1.1 0 2.2 0 3.3.1 6.5.5 11.4 2.5 13.8 5.6 1.5 1.8 2 4 1.6 6.2m58.6-2.5c-.8 3.8-5.7 9.3-14.8 12.1-2.3.7-4.8 1-7.2 1.1-9.6 0-16.9-5.6-17.8-10.7-.4-2.2.1-4.4 1.5-6.2 2.4-3.1 7.3-5.1 13.8-5.6 1.1-.1 2.2-.1 3.3-.1 6.9 0 15.7 1.3 19.7 4.9 1.3 1.1 1.9 2.9 1.5 4.5"/><defs><path id="SVGID_3_" d="M349.8 75.8h-43.2c-2 0-3.6 1.6-3.6 3.5v60.2c0 12.8 6.9 24.6 18 30.9l27.1 15.5c1 .6 2.3.6 3.4 0l27.1-15.5c11.1-6.3 18-18.1 18-30.9V79.4c0-2-1.6-3.6-3.6-3.6h-43.2z"/></defs><clipPath id="SVGID_4_"><use xlink:href="#SVGID_3_" overflow="visible"/></clipPath><path clip-path="url(#SVGID_4_)" fill="#ccc" d="M299 72.1h101.4v118.1H299z"/><path class="st7" d="M373.8 64h-42.3c-1.9 0-3.5 1.5-3.5 3.5v59c0 12.5 6.8 24.1 17.6 30.2l26.5 15.2c1 .6 2.3.6 3.3 0l26.5-15.2c10.9-6.2 17.6-17.7 17.6-30.2v-59c0-1.9-1.6-3.5-3.5-3.5h-42.2z"/><path class="st6" d="M393.6 101.3c0-10.9-8.9-19.8-19.8-19.8S354 90.4 354 101.3s8.9 19.8 19.8 19.8 19.8-8.8 19.8-19.8m0 20.5c-5.3 0-13.7 5.8-19.8 5.9s-14.4-5.9-19.8-5.9c-2.8 0-8.4 1.7-8.4 7.5 0 6.6 12.5 18.3 28.2 18.3s28.2-11.7 28.2-18.3c-.1-5.8-5.7-7.5-8.4-7.5z"/></svg>
