<svg id="Layer_1" data-name="Layer 1" xmlns="http://www.w3.org/2000/svg" viewBox="0 0 329.8 224.4" width="320px"><title>privacy_eye</title><style>#eyelashes{-webkit-transform-origin:-25px 150px;-moz-transform-origin:150px 150px}#eyepupil{animation:pupil 14s ease-in-out infinite}@keyframes pupil{0%,1.5%{transform:translate()}4.5%{transform:translate(-20px,8px)}7.5%{transform:translate(-20px,8px);animation-timing-function:cubic-bezier(.175,.885,.32,1.275);transition:.2s}11%{transform:translate(21px,-4px)}14%{transform:translate(21px,-4px);animation-timing-function:cubic-bezier(.175,.885,.32,1.275)}18.5%{transform:translate(0,12px)}22%{transform:translate(0,12px);animation-timing-function:cubic-bezier(.175,.885,.32,1.275)}24%,50%{transform:translate(0,0)}}#eyelid{animation:blink 14s linear infinite}@keyframes blink{0%{fill-opacity:0}30%{fill-opacity:0}31%{fill-opacity:1;animation-timing-function:step-end}32%{fill-opacity:0}100%,50%{fill-opacity:0}}#eyelashes{animation:flipInX2 14s linear;animation-iteration-count:infinite}@keyframes flipInX2{from{transform:perspective(400px) rotate3d(1,0,0,0deg);animation-timing-function:ease-in;opacity:1}30%{transform:perspective(400px) rotate3d(1,0,0,0deg);animation-timing-function:ease-in;opacity:1}31%{opacity:0}31.5%{transform:perspective(400px) rotate3d(1,0,0,90deg);animation-timing-function:ease-in;opacity:0}32.5%{transform:perspective(400px) rotate3d(1,0,0,-20deg);opacity:1}34%{transform:perspective(400px) rotate3d(1,0,0,0deg);opacity:1}36%{transform:perspective(400px) rotate3d(1,0,0,-5deg)}to{transform:perspective(400px)}}</style><path id="browserbar" d="M329.8,34.85H0V13.94A14,14,0,0,1,14,0H315.77a14,14,0,0,1,14,13.94Z" fill="#cccccc" fill-rule="evenodd"/><path id="browser" d="M119.85,34.85V0H56.1V34.85H0V210.36a14,14,0,0,0,14,14H315.77a14,14,0,0,0,14-14V34.85Z" fill="#eaeaea" fill-rule="evenodd"/><path id="eyelidopen" d="M94.41,136.82c0-3.07,0-7.71,3.31-11.74a97.3,97.3,0,0,1,27-22.12c13.74-7.73,27.12-11.54,40.13-11.54,16.81,0,26.35,3.28,40,11,13.94,7.92,19.73,14.16,27,22.5,3.24,3.72,3.31,8.66,3.31,11.73l-140.76.13h0" fill="#8F59FF"/><path id="eyebg" d="M164.85,98.78c-13,0-26.39,3.8-40.13,11.54a136.25,136.25,0,0,0-27,20.12,10.22,10.22,0,0,0-3.31,7.73,9.93,9.93,0,0,0,3.31,7.61,136,136,0,0,0,27,20c13.74,7.61,27.12,11.53,40.13,11.53s26.26-3.8,40-11.53a132.42,132.42,0,0,0,27-20.13,10.54,10.54,0,0,0,0-15.34c-8.6-8-13.93-12.77-27-20C191.11,102.71,181.34,98.78,164.85,98.78Z" fill="#ffd65d"/><path id="eyepupil" d="M146.44,118.78a25.84,25.84,0,0,0,18.29,44.06,26,26,0,0,0,25.77-25.77,25.05,25.05,0,0,0-7.61-18.29,24.31,24.31,0,0,0-18.16-7.61A25,25,0,0,0,146.44,118.78Z" fill="#d942f3"/><path id="eyelid" d="M235.17,136.69c0-3.07-.07-8-3.31-11.73-7.27-8.34-13.06-14.58-27-22.5-13.66-7.76-23.2-11-40-11-13,0-26.39,3.81-40.13,11.54a97.3,97.3,0,0,0-27,22.12c-3.31,4-3.31,8.67-3.31,11.74h.08a11.94,11.94,0,0,0-.08,1.35,9.93,9.93,0,0,0,3.31,7.61,136,136,0,0,0,27,20c13.74,7.61,27.12,11.53,40.13,11.53s26.26-3.8,40-11.53a132.42,132.42,0,0,0,27-20.13,10.17,10.17,0,0,0,3.31-7.61,12.26,12.26,0,0,0-.09-1.36Z" fill="#8F59FF"/><g id="eyelashes"><path id="eyelash1" d="M115.39,91.42a5,5,0,0,1-3.84-1.8L97.18,72.35A5,5,0,1,1,104.86,66l14.37,17.26a5,5,0,0,1-3.84,8.2Z" fill="#7539E9"/><path id="eyelash2" d="M164.79,82.79a5,5,0,0,1-5-5V55.32a5,5,0,1,1,10,0V77.79A5,5,0,0,1,164.79,82.79Z" fill="#7539E9"/><path id="eyelash3" d="M214.18,91.42a5,5,0,0,1-3.84-8.2L224.71,66a5,5,0,0,1,7.69,6.39L218,89.62A5,5,0,0,1,214.18,91.42Z" fill="#7539E9"/></g></svg>