<?xml version="1.0" encoding="UTF-8"?>
<svg width="31px" height="29px" viewBox="0 0 31 29" version="1.1" xmlns="http://www.w3.org/2000/svg" xmlns:xlink="http://www.w3.org/1999/xlink">
    <!-- Generator: Sketch 59.1 (86144) - https://sketch.com -->
    <title>Logos / Other (Opera) Copy 2</title>
    <desc>Created with Sketch.</desc>
    <defs>
        <linearGradient x1="50.0009721%" y1="1.63134428%" x2="50.0009721%" y2="98.5433682%" id="linearGradient-1">
            <stop stop-color="#FF1B2D" offset="0%"></stop>
            <stop stop-color="#FF1B2D" offset="30%"></stop>
            <stop stop-color="#FF1B2D" offset="61%"></stop>
            <stop stop-color="#A70014" offset="100%"></stop>
        </linearGradient>
        <linearGradient x1="49.9990268%" y1="0.848538179%" x2="49.9990268%" y2="99.613169%" id="linearGradient-2">
            <stop stop-color="#9C0000" offset="0%"></stop>
            <stop stop-color="#FF4B4B" offset="70%"></stop>
            <stop stop-color="#FF4B4B" offset="100%"></stop>
        </linearGradient>
    </defs>
    <g id="Page-1" stroke="none" stroke-width="1" fill="none" fill-rule="evenodd">
        <g id="bch---1312" transform="translate(-939.000000, -1611.000000)">
            <g id="privacy" transform="translate(184.000000, 1356.270988)">
                <g id="Group" transform="translate(0.000000, 241.000000)">
                    <g id="Logos-/-Other-(Opera)" transform="translate(754.000000, 12.000000)">
                        <g id="opera" transform="translate(1.650000, 1.600000)">
                            <path d="M14.85,0.211764706 C6.76985294,0.211764706 0.218382353,6.56470588 0.218382353,14.4 L0.218382353,14.4 C0.218382353,22.0094118 6.39714706,28.2183529 14.1540882,28.5712941 L14.1540882,28.5712941 C14.3870294,28.5825882 14.6170588,28.5882353 14.85,28.5882353 L14.85,28.5882353 C18.5974412,28.5882353 22.0129412,27.2216471 24.6015,24.9769412 L24.6015,24.9769412 C22.8864706,26.0809412 20.8802647,26.7134118 18.7372059,26.7134118 L18.7372059,26.7134118 C15.2518235,26.7134118 12.1333235,25.0362353 10.0339412,22.3934118 L10.0339412,22.3934118 C8.415,20.5411765 7.36967647,17.8051765 7.29688235,14.7331765 L7.29688235,14.7331765 C7.29688235,14.7247059 7.29688235,14.0724706 7.29688235,14.064 L7.29688235,14.064 C7.36967647,10.992 8.415,8.25317647 10.0339412,6.40376471 L10.0339412,6.40376471 C12.1333235,3.76094118 15.2547353,2.08376471 18.7372059,2.08376471 L18.7372059,2.08376471 C20.8802647,2.08376471 22.8864706,2.71905882 24.6015,3.82305882 L24.6015,3.82305882 C22.0275,1.58964706 18.6294706,0.225882353 14.9053235,0.211764706 L14.9053235,0.211764706 C14.8878529,0.211764706 14.8674706,0.211764706 14.85,0.211764706 L14.85,0.211764706 Z" id="Shape" fill="url(#linearGradient-1)" fill-rule="nonzero"></path>
                            <path d="M10.0339412,6.40376471 C11.3762647,4.86776471 13.1116765,3.93882353 15.0043235,3.93882353 L15.0043235,3.93882353 C19.2642353,3.93882353 22.7175882,8.62305882 22.7175882,14.3971765 L22.7175882,14.3971765 C22.7175882,20.1741176 19.2642353,24.8555294 15.0043235,24.8555294 L15.0043235,24.8555294 C13.1087647,24.8555294 11.3762647,23.9294118 10.0339412,22.3934118 L10.0339412,22.3934118 C12.1333235,25.0362353 15.2518235,26.7134118 18.7372059,26.7134118 L18.7372059,26.7134118 C20.8802647,26.7134118 22.8864706,26.0781176 24.6015,24.9769412 L24.6015,24.9769412 C27.5977059,22.3792941 29.4816176,18.6042353 29.4816176,14.4 L29.4816176,14.4 C29.4816176,10.1985882 27.5977059,6.42070588 24.6015,3.82305882 L24.6015,3.82305882 C22.8864706,2.71905882 20.8802647,2.08658824 18.7372059,2.08658824 L18.7372059,2.08658824 C15.2518235,2.08658824 12.1333235,3.76376471 10.0339412,6.40658824" id="Shape" fill="url(#linearGradient-2)" fill-rule="nonzero"></path>
                        </g>
                    </g>
                </g>
            </g>
        </g>
    </g>
</svg>