<?xml version="1.0" encoding="UTF-8"?>
<svg width="34px" height="31px" viewBox="0 0 34 31" version="1.1" xmlns="http://www.w3.org/2000/svg" xmlns:xlink="http://www.w3.org/1999/xlink">
    <!-- Generator: Sketch 59.1 (86144) - https://sketch.com -->
    <title>Internet_Explorer_9_icon Copy 2</title>
    <desc>Created with Sketch.</desc>
    <defs>
        <radialGradient cx="49.3170616%" cy="41.7018491%" fx="49.3170616%" fy="41.7018491%" r="52.684326%" gradientTransform="translate(0.493171,0.417018),scale(0.929293,1.000000),rotate(49.347503),translate(-0.493171,-0.417018)" id="radialGradient-1">
            <stop stop-color="#89EAFE" offset="0%"></stop>
            <stop stop-color="#86E8FD" offset="26.24%"></stop>
            <stop stop-color="#7DDFF9" offset="43.57%"></stop>
            <stop stop-color="#6ED2F2" offset="58.32%"></stop>
            <stop stop-color="#59BEE9" offset="71.63%"></stop>
            <stop stop-color="#3EA5DD" offset="83.97%"></stop>
            <stop stop-color="#1C87CF" offset="95.44%"></stop>
            <stop stop-color="#0D79C8" offset="100%"></stop>
        </radialGradient>
        <linearGradient x1="54.8821097%" y1="3.81513158%" x2="42.2473606%" y2="105.226316%" id="linearGradient-2">
            <stop stop-color="#FFB700" offset="0%"></stop>
            <stop stop-color="#FFB700" stop-opacity="0" offset="85.99%"></stop>
        </linearGradient>
        <linearGradient x1="1.96573209%" y1="57.0232366%" x2="68.9498442%" y2="45.9597572%" id="linearGradient-3">
            <stop stop-color="#FFB700" offset="0%"></stop>
            <stop stop-color="#FFB700" stop-opacity="0" offset="100%"></stop>
        </linearGradient>
    </defs>
    <g id="Page-1" stroke="none" stroke-width="1" fill="none" fill-rule="evenodd">
        <g id="bch---1312" transform="translate(-1054.000000, -1610.000000)" fill-rule="nonzero">
            <g id="privacy" transform="translate(184.000000, 1356.270988)">
                <g id="Group" transform="translate(0.000000, 241.000000)">
                    <g id="Internet_Explorer_9_icon-Copy-2" transform="translate(870.000000, 13.000000)">
                        <g id="the_e" transform="translate(3.443478, 2.000000)" fill="url(#radialGradient-1)" stroke="#2064A9" stroke-width="0.8">
                            <path d="M8.39347826,11.7066667 C8.76652174,8.6 11.4065217,6.10666667 14.6921739,6.10666667 C18.3795652,6.10666667 20.9191304,8.50666667 21.1486957,11.7066667 L8.39347826,11.7066667 Z M20.4743478,18.2666667 C19.5417391,20.0533333 17.6047826,21.2133333 14.6778261,21.28 C10.6173913,21.3733333 8.47956522,18.16 8.37913043,15.4 L20.4313043,15.4 L21.1343478,15.4 L29.2982609,15.4 C29.37,14.84 29.4130435,14.28 29.4130435,13.6933333 C29.4130435,6.17333333 22.856087,0.08 14.763913,0.08 C6.67173913,0.08 0.114782609,6.17333333 0.114782609,13.6933333 C0.114782609,21.2133333 6.67173913,27.3066667 14.763913,27.3066667 C21.1343478,27.3066667 26.5434783,23.5333333 28.5665217,18.2666667 L20.4743478,18.2666667 Z" id="Shape"></path>
                        </g>
                        <g id="halo">
                            <path d="M31.2065217,6.49333333 C31.0917391,6.90666667 30.9769565,7.26666667 30.9052174,7.57333333 C30.8478261,7.81333333 30.8191304,8.52 30.8191304,8.52 C30.8191304,8.52 31.3643478,8.2 31.4934783,8.04 C31.6082609,7.89333333 31.766087,7.26666667 31.9095652,6.64 L31.2065217,6.49333333 Z" id="Path" fill-opacity="0.95" fill="url(#linearGradient-2)"></path>
                            <path d="M31.9382609,6.66666667 C32.0386957,6.25333333 32.1247826,5.82666667 32.1678261,5.53333333 C32.3543478,4.45333333 32.7417391,-1.30666667 24.4630435,0.333333333 C13.3578261,2.52 7.21695652,10.6133333 6.24130435,11.7333333 C4.39043478,13.8666667 -1.11913043,22.1066667 0.33,27.1733333 C1.17652174,30.1333333 4.5626087,30.12 7.03043478,29.6533333 L6.85826087,28.84 C2.66869565,29.4666667 2.0373913,26.5066667 2.61130435,24.2 C3.31434783,21.32 5.59565217,16.5866667 12.9704348,9.92 C19.5130435,4 26.4573913,0.693333333 30.0730435,2.33333333 C31.9956522,3.2 31.6226087,5.08 31.2065217,6.52 L31.9382609,6.66666667 Z" id="Path" fill-opacity="0.95" fill="#FFB700"></path>
                            <path d="M24.4630435,0.333333333 C13.3578261,2.52 7.21695652,10.6133333 6.24130435,11.7333333 C5.07913043,13.0666667 2.49652174,16.8 1.07608696,20.64 C0.99,20.9466667 0.889565217,21.2533333 0.774782609,21.52 C0.774782609,21.52 0.774782609,21.52 0.774782609,21.52 C5.3373913,10.6533333 16.6721739,2.96 24.9078261,0.253333333 C24.7643478,0.28 24.6065217,0.306666667 24.4630435,0.333333333 Z" id="Path" fill="#FFFFA6"></path>
                            <path d="M7.03043478,29.64 C8.37913043,29.3733333 9.48391304,28.9733333 9.72782609,28.8533333 C9.9573913,28.7333333 10.7465217,28.3333333 11.463913,27.9333333 L10.8326087,27.6 C10.4882609,27.72 10.0865217,27.8666667 9.64173913,28.04 C8.59434783,28.44 7.6473913,28.6933333 6.85826087,28.8 L7.03043478,29.64 Z" id="Path" fill-opacity="0.95" fill="url(#linearGradient-3)"></path>
                        </g>
                    </g>
                </g>
            </g>
        </g>
    </g>
</svg>