<?xml version="1.0" encoding="UTF-8"?>
<svg width="27px" height="28px" viewBox="0 0 27 28" version="1.1" xmlns="http://www.w3.org/2000/svg" xmlns:xlink="http://www.w3.org/1999/xlink">
    <!-- Generator: Sketch 59.1 (86144) - https://sketch.com -->
    <title>Logos / Other (Edge) Copy 2</title>
    <desc>Created with Sketch.</desc>
    <g id="Page-1" stroke="none" stroke-width="1" fill="none" fill-rule="evenodd">
        <g id="bch---1312" transform="translate(-709.000000, -1611.000000)" fill="#0078D7">
            <g id="privacy" transform="translate(184.000000, 1356.270988)">
                <g id="Group" transform="translate(0.000000, 241.000000)">
                    <g id="Logos-/-Other-(Edge)" transform="translate(521.000000, 11.000000)">
                        <g id="edge" transform="translate(4.375000, 3.400000)">
                            <path d="M8.255625,16.15 C8.255625,16.8045 8.35625,17.3995 8.561875,17.935 C8.780625,18.462 9.065,18.93375 9.428125,19.346 C9.79125,19.75825 10.215625,20.111 10.714375,20.4085 C11.195625,20.706 11.720625,20.9525 12.280625,21.14375 C12.83625,21.33925 13.418125,21.48375 14.00875,21.57725 C14.608125,21.67075 15.19,21.7175 15.780625,21.7175 C16.524375,21.7175 17.215625,21.66225 17.871875,21.5475 C18.528125,21.4285 19.166875,21.27125 19.796875,21.0715 C20.426875,20.87175 21.035,20.63375 21.643125,20.36175 C22.255625,20.08975 22.876875,19.79225 23.515625,19.46075 L23.515625,25.22375 C22.8025,25.56375 22.1025,25.8485 21.4025,26.095 C20.7025,26.333 20.0025,26.54125 19.289375,26.707 C18.57625,26.877 17.854375,27.0045 17.115,27.081 C16.375625,27.1575 15.61875,27.2 14.83125,27.2 C13.78125,27.2 12.76625,27.081 11.790625,26.84725 C10.815,26.6135 9.900625,26.27775 9.043125,25.83575 C8.185625,25.39375 7.4025,24.85825 6.689375,24.22925 C5.971875,23.60025 5.36375,22.8905 4.851875,22.10425 C4.34,21.318 3.94625,20.45525 3.661875,19.52875 C3.38625,18.60225 3.24625,17.61625 3.24625,16.57075 C3.24625,15.453 3.40375,14.3905 3.71875,13.37475 C4.038125,12.35475 4.48875,11.42825 5.08375,10.57825 C5.674375,9.72825 6.39625,8.97175 7.249375,8.313 C8.1025,7.65425 9.060625,7.1145 10.128125,6.698 C9.54625,7.26325 9.09125,7.9305 8.771875,8.70825 C8.44375,9.48175 8.238125,10.2595 8.14625,11.03725 L18.1125,11.03725 C18.1125,10.05975 18.011875,9.20975 17.80625,8.47875 C17.600625,7.74775 17.2725,7.14 16.813125,6.65975 C16.358125,6.17525 15.771875,5.80975 15.05,5.57175 C14.328125,5.3295 13.4575,5.20625 12.438125,5.20625 C11.235,5.20625 10.031875,5.37625 8.82875,5.729 C7.625625,6.069 6.48375,6.55775 5.39875,7.174 C4.31375,7.79875 3.31625,8.534 2.40625,9.3755 C1.49625,10.2255 0.730625,11.13925 0.109375,12.1295 C0.240625,10.982 0.503125,9.877 0.86625,8.82725 C1.229375,7.7775 1.710625,6.8 2.288125,5.89475 C2.865625,5.00225 3.54375,4.18625 4.318125,3.45525 C5.0925,2.72425 5.95,2.09525 6.899375,1.58525 C7.84875,1.07525 8.855,0.663 9.94875,0.38675 C11.0425,0.1445 12.20625,-4.77395901e-15 13.43125,-4.77395901e-15 C14.14875,-4.77395901e-15 14.861875,0.06375 15.575,0.187 C16.288125,0.3145 16.98375,0.4845 17.661875,0.7055 C19.009375,1.156 20.2125,1.785 21.27125,2.584 C22.33,3.3915 23.218125,4.3095 23.94,5.35925 C24.661875,6.409 25.20875,7.56925 25.585,8.8315 C25.96125,10.09375 26.15375,11.407 26.15375,12.77125 L26.15375,16.15 L8.255625,16.15 Z" id="Shape" fill-rule="nonzero"></path>
                        </g>
                    </g>
                </g>
            </g>
        </g>
    </g>
</svg>