<svg width="16" height="16" viewBox="0 0 16 16" xmlns="http://www.w3.org/2000/svg"><path d="M5.032 14.5c6.037 0 9.34-5.002 9.34-9.34 0-.142 0-.283-.01-.424A6.679 6.679 0 0 0 16 3.037c-.6.266-1.235.44-1.885.517a3.294 3.294 0 0 0 1.443-1.816 6.579 6.579 0 0 1-2.085.797A3.286 3.286 0 0 0 7.88 5.528 9.32 9.32 0 0 1 1.114 2.1 3.285 3.285 0 0 0 2.13 6.481 3.258 3.258 0 0 1 .64 6.07v.041A3.284 3.284 0 0 0 3.274 9.33c-.484.132-.99.151-1.483.056a3.286 3.286 0 0 0 3.067 2.28A6.587 6.587 0 0 1 0 13.025a9.294 9.294 0 0 0 5.032 1.472" fill="#777777" fill-rule="nonzero"/></svg>