<svg width="253" height="136" xmlns="http://www.w3.org/2000/svg" xmlns:bx="https://boxy-svg.com"><g fill="none" fill-rule="evenodd" transform="translate(71)" bx:origin="0.496303 0.496958"><path d="M146 117H8a8 8 0 0 1-8-8V8a8 8 0 0 1 8-8h138a8 8 0 0 1 8 8v101a8 8 0 0 1-8 8" fill="#67117C"/><path d="M174 133h-40a8 8 0 0 1-8-8V40a8 8 0 0 1 8-8h40a8 8 0 0 1 8 8v85a8 8 0 0 1-8 8" fill="#FFBD4F"/><path d="M154 16H0V8a8 8 0 0 1 8-8h138a8 8 0 0 1 8 8v8z" fill="#971DB5"/><mask id="a" fill="#fff"><path d="M0 133h182V0H0z"/></mask><path fill="#FF7038" mask="url(#a)" d="M126 117h56V47h-56z"/><path fill="#FF2A8A" mask="url(#a)" d="M45 125h64V93H45z"/><path d="M101 117a8 8 0 1 1 0 16H53a8 8 0 1 1 0-16h48z" fill="#C60084" mask="url(#a)"/><path d="M101 85a8 8 0 1 1 0 16H53a8 8 0 1 1 0-16h48z" fill="#FF2A8A" mask="url(#a)"/><path d="M69 77a8 8 0 1 1 16 0 8 8 0 0 1-16 0" fill="#FFBD4F" mask="url(#a)"/><path d="M69 77a8 8 0 1 1 16 0h16c0-13.255-10.745-24-24-24S53 63.745 53 77v8h16v-8z" fill="#C60084" mask="url(#a)"/><path d="M85 77a8 8 0 1 1 16 0 8 8 0 0 1-16 0" fill="#FF2A8A" mask="url(#a)"/><path d="M77 77l-7.131 21.393A1.98 1.98 0 0 0 71.748 101h10.504a1.98 1.98 0 0 0 1.879-2.607L77 77z" fill="#FFBD4F" mask="url(#a)"/><path d="M140 81a3 3 0 1 1-6 0 3 3 0 0 1 6 0m7 0a3 3 0 1 1-6 0 3 3 0 0 1 6 0m7 0a3 3 0 1 1-6 0 3 3 0 0 1 6 0m7 0a3 3 0 1 1-6 0 3 3 0 0 1 6 0m7 0a3 3 0 1 1-6 0 3 3 0 0 1 6 0m7 0a3 3 0 1 1-6 0 3 3 0 0 1 6 0" fill="#67117C" mask="url(#a)"/><path d="M62 41a3 3 0 1 1-6 0 3 3 0 0 1 6 0m7 0a3 3 0 1 1-6 0 3 3 0 0 1 6 0m7 0a3 3 0 1 1-6 0 3 3 0 0 1 6 0m7 0a3 3 0 1 1-6 0 3 3 0 0 1 6 0m7 0a3 3 0 1 1-6 0 3 3 0 0 1 6 0m7 0a3 3 0 1 1-6 0 3 3 0 0 1 6 0" fill="#FF7038" mask="url(#a)"/></g></svg>