<svg width="51" height="56" xmlns="http://www.w3.org/2000/svg"><defs><linearGradient x1="70.071%" y1="12.765%" x2="27.13%" y2="93.929%" id="a"><stop stop-color="#FF980E" offset="0%"/><stop stop-color="#FF7139" offset="20.75%"/><stop stop-color="#FF5854" offset="36.33%"/><stop stop-color="#FF4F5E" offset="45.63%"/><stop stop-color="#FF3750" offset="69.29%"/><stop stop-color="#F92261" offset="85.75%"/><stop stop-color="#F5156C" offset="100%"/></linearGradient><linearGradient x1="70.071%" y1="12.765%" x2="27.13%" y2="93.929%" id="b"><stop stop-color="#FFF44F" stop-opacity=".8" offset="0%"/><stop stop-color="#FFF44F" stop-opacity="0" offset="75%"/></linearGradient><linearGradient x1="50.063%" y1="123.845%" x2="50.063%" y2="1.199%" id="c"><stop stop-color="#3A8EE6" offset="0%"/><stop stop-color="#5C79F0" offset="23.59%"/><stop stop-color="#9059FF" offset="62.93%"/><stop stop-color="#C139E6" offset="100%"/></linearGradient><linearGradient x1="15.512%" y1=".527%" x2="105.631%" y2="86.093%" id="d"><stop stop-color="#6E008B" stop-opacity=".5" offset="0%"/><stop stop-color="#C846CB" stop-opacity="0" offset="50%"/></linearGradient><linearGradient x1="80.489%" y1="9.454%" x2="27.967%" y2="88.059%" id="e"><stop stop-color="#6A2BEA" stop-opacity="0" offset="13.6%"/><stop stop-color="#662CE6" stop-opacity=".095" offset="29.95%"/><stop stop-color="#592FDB" stop-opacity=".193" offset="46.89%"/><stop stop-color="#4534C9" stop-opacity=".292" offset="64.1%"/><stop stop-color="#283BAF" stop-opacity=".393" offset="81.5%"/><stop stop-color="#03448D" stop-opacity=".494" offset="98.9%"/><stop stop-color="#00458B" stop-opacity=".5" offset="100%"/></linearGradient><linearGradient x1="21.47%" y1="14.055%" x2="64.649%" y2="66.406%" id="f"><stop stop-color="#960E18" stop-opacity=".6" offset="0%"/><stop stop-color="#A91522" stop-opacity=".465" offset="16.83%"/><stop stop-color="#D9283C" stop-opacity=".195" offset="50.65%"/><stop stop-color="#FF3750" stop-opacity="0" offset="75%"/></linearGradient></defs><g fill="none" fill-rule="evenodd"><path d="M47.639 11.654L42.04 8.452 29.288 1.134 28.892.9a6.8 6.8 0 0 0-6.76 0l-.407.235L3.78 11.42l-.407.235A6.7 6.7 0 0 0 0 17.464v21.484c0 2.386 1.298 4.611 3.374 5.81l18.35 10.508c.446.26.928.37 1.41.37a2.85 2.85 0 0 0 2.446-1.396 2.785 2.785 0 0 0-1.025-3.82L6.587 40.147a1.927 1.927 0 0 1-.964-1.656V17.92c0-.68.37-1.322.964-1.656l3.176-1.817 14.78-8.468a1.981 1.981 0 0 1 1.927 0l17.956 10.285c.593.346.964.976.964 1.656v20.57c0 .68-.371 1.323-.964 1.656l-6.068 3.474-3.065-4.623c2.979-2.658 4.857-6.515 4.857-10.804 0-8.01-6.562-14.525-14.644-14.525s-14.644 6.514-14.644 14.525c0 8.01 6.575 14.525 14.644 14.525 1.73 0 3.398-.297 4.943-.853l4.659 7.02c.074.112.148.211.235.31l.05.05c.098.11.21.197.32.296.025.025.05.05.087.062.124.086.26.173.395.247.038.013.062.025.1.037.123.062.246.1.382.136a.229.229 0 0 0 .087.025c.148.037.297.062.445.074.037 0 .086 0 .123.012.037 0 .087.013.124.013.086 0 .173-.013.26-.013.037 0 .074 0 .11-.012a2.89 2.89 0 0 0 .47-.111c.037-.013.087-.025.124-.05a4.56 4.56 0 0 0 .358-.16l.074-.037 8.774-5.032A6.714 6.714 0 0 0 51 38.923V17.465a6.647 6.647 0 0 0-3.361-5.81zm-31.142 16.54c0-4.933 4.041-8.938 9.01-8.938 4.967 0 9.008 4.005 9.008 8.938 0 4.932-4.041 8.937-9.009 8.937s-9.009-4.005-9.009-8.937z" fill="url(#a)" fill-rule="nonzero"/><path d="M47.639 11.654L42.04 8.452 29.288 1.134 28.892.9a6.8 6.8 0 0 0-6.76 0l-.407.235L3.78 11.42l-.407.235A6.7 6.7 0 0 0 0 17.464v21.484c0 2.386 1.298 4.611 3.374 5.81l18.35 10.508c.446.26.928.37 1.41.37a2.85 2.85 0 0 0 2.446-1.396 2.785 2.785 0 0 0-1.025-3.82L6.587 40.147a1.927 1.927 0 0 1-.964-1.656V17.92c0-.68.37-1.322.964-1.656l3.176-1.817 14.78-8.468a1.981 1.981 0 0 1 1.927 0l17.956 10.285c.593.346.964.976.964 1.656v20.57c0 .68-.371 1.323-.964 1.656l-6.068 3.474-3.065-4.623c2.979-2.658 4.857-6.515 4.857-10.804 0-8.01-6.562-14.525-14.644-14.525s-14.644 6.514-14.644 14.525c0 8.01 6.575 14.525 14.644 14.525 1.73 0 3.398-.297 4.943-.853l4.659 7.02c.074.112.148.211.235.31l.05.05c.098.11.21.197.32.296.025.025.05.05.087.062.124.086.26.173.395.247.038.013.062.025.1.037.123.062.246.1.382.136a.229.229 0 0 0 .087.025c.148.037.297.062.445.074.037 0 .086 0 .123.012.037 0 .087.013.124.013.086 0 .173-.013.26-.013.037 0 .074 0 .11-.012a2.89 2.89 0 0 0 .47-.111c.037-.013.087-.025.124-.05a4.56 4.56 0 0 0 .358-.16l.074-.037 8.774-5.032A6.714 6.714 0 0 0 51 38.923V17.465a6.647 6.647 0 0 0-3.361-5.81zm-31.142 16.54c0-4.933 4.041-8.938 9.01-8.938 4.967 0 9.008 4.005 9.008 8.938 0 4.932-4.041 8.937-9.009 8.937s-9.009-4.005-9.009-8.937z" fill="url(#b)" fill-rule="nonzero"/><path d="M47.664 11.597l-5.557-3.22s-4.6-2.672-7.74-4.487a5.88 5.88 0 0 0-5.764-.087l-3.876 2.088a1.944 1.944 0 0 1 1.914 0l17.821 10.342c.59.348.957.982.957 1.666v20.683c0 .683-.368 1.33-.957 1.665l-6.034 3.493.944 1.53a3.921 3.921 0 0 0 5.299 1.342l2.98-1.728A6.752 6.752 0 0 0 51 39.042V17.426a6.695 6.695 0 0 0-3.336-5.83z" fill="url(#c)" fill-rule="nonzero"/><path d="M45.41 17.837v9.981H51v-10.45c0-2.4-1.275-4.614-3.347-5.814L42.1 8.351s-4.597-2.659-7.736-4.465a5.9 5.9 0 0 0-5.762-.086l-3.874 2.077a1.95 1.95 0 0 1 1.913 0l17.813 10.29c.589.347.957.978.957 1.67z" fill="url(#d)" fill-rule="nonzero"/><path d="M45.512 29.376v9.117c0 .691-.362 1.344-.941 1.683l-5.935 3.53.93 1.544c1.097 1.833 3.413 2.424 5.21 1.356l2.931-1.746C49.746 43.642 51 41.394 51 38.958v-9.594h-5.488v.012z" fill="url(#e)" fill-rule="nonzero" opacity=".9"/><path d="M34.494 28.375c0-4.95-3.92-8.97-8.74-8.97-4.821 0-8.742 4.02-8.742 8.97 0 4.95 3.92 8.97 8.741 8.97 4.82 0 8.741-4.02 8.741-8.97z"/><path d="M20.792 23.882l-2.554-3.983a14.17 14.17 0 0 1-4.689 2.879l2.722 4.243a109.929 109.929 0 0 0 4.52-3.14z" fill="url(#f)" fill-rule="nonzero" opacity=".9" transform="translate(17 19.318)"/></g></svg>