<svg width="241" height="136" xmlns="http://www.w3.org/2000/svg"><g fill="none" fill-rule="evenodd"><path d="M49.567 118.76c-4.477 0-8.107-3.636-8.107-8.12V8.12c0-4.484 3.63-8.12 8.107-8.12h139.857c4.478 0 8.108 3.636 8.108 8.12v102.52c0 4.484-3.63 8.12-8.108 8.12H49.567z" fill="#FFBD4F"/><g transform="translate(169.134 32.481)"><mask id="a" fill="#fff"><path d="M.02 0h56.754v102.519H.021z"/></mask><path d="M48.667 102.519H8.128c-4.477 0-8.107-3.636-8.107-8.12V8.12C.02 3.636 3.65 0 8.128 0h40.539c4.477 0 8.107 3.636 8.107 8.12v86.278c0 4.485-3.63 8.12-8.107 8.12" fill="#FF4F5D" mask="url(#a)"/></g><path d="M197.532 16.24H41.46V8.12c0-4.484 3.63-8.12 8.107-8.12h139.857c4.478 0 8.108 3.636 8.108 8.12v8.12z" fill="#971DB5"/><mask id="b" fill="#fff"><path d="M0 135h225.908V0H0z"/></mask><path fill="#C60084" mask="url(#b)" d="M169.155 118.76h56.753V47.706h-56.753z"/><path fill="#FF7139" mask="url(#b)" d="M175.236 83.233h44.592V54.812h-44.592z"/><path fill="#FF4F5D" mask="url(#b)" d="M91.119 51.767h32.43v-20.3H91.12z"/><path fill="#971DB5" mask="url(#b)" d="M128.617 51.767h32.43v-20.3h-32.43z"/><path fill="#67117C" mask="url(#b)" d="M91.119 78.158h32.43v-20.3H91.12z"/><path fill="#FF7139" mask="url(#b)" d="M128.617 78.158h32.43v-20.3h-32.43z"/><path fill="#971DB5" mask="url(#b)" d="M91.119 104.549h32.43v-20.3H91.12z"/><path fill="#FF4F5D" mask="url(#b)" d="M128.617 104.549h32.43v-20.3h-32.43z"/><path fill="#FFF" mask="url(#b)" d="M10.043 91.353H70.85V43.647H10.043z"/><path d="M65.244 62.389l-19.806 18.67c-1.02 1.167-2.622 1.605-3.787 1.605-1.456 0-2.912-.438-4.077-1.605L18.059 62.39c-2.04-2.188-2.33-5.835 0-8.168 2.184-2.042 5.825-2.334 8.01 0L41.65 69.244l15.874-15.023c2.04-2.334 5.68-2.042 7.719 0 2.039 2.333 2.039 5.98 0 8.168m10.049-30.923H8.01c-4.37 0-8.01 3.355-8.01 7.73V64.14c0 22.609 18.641 41.425 41.651 41.425 22.865 0 41.36-18.816 41.36-41.425V39.197c0-4.376-3.495-7.73-7.718-7.73" fill="#FF4F5D" mask="url(#b)"/><path d="M216.28 97.444h-37.497a3.55 3.55 0 0 1-3.547-3.553 3.55 3.55 0 0 1 3.547-3.553h37.497a3.55 3.55 0 0 1 3.548 3.553 3.55 3.55 0 0 1-3.548 3.553m0 12.18h-37.497a3.55 3.55 0 0 1-3.547-3.553 3.55 3.55 0 0 1 3.547-3.552h37.497a3.55 3.55 0 0 1 3.548 3.552 3.55 3.55 0 0 1-3.548 3.553" fill="#67117C" mask="url(#b)"/></g></svg>