<svg width="279" height="225" xmlns="http://www.w3.org/2000/svg"><g fill="none" fill-rule="evenodd"><path d="M228.143 177.5H6.857C3.07 177.5 0 174.456 0 170.702V7.298C0 3.544 3.07.5 6.857.5h221.286C231.93.5 235 3.544 235 7.298v163.404c0 3.754-3.07 6.798-6.857 6.798" fill="#C60084"/><g transform="translate(0 -.5)"><path fill="#FF7038" d="M20.272 160h195.207V42.617H20.272z"/><path d="M134.533 101.577l-29.09-16.724c-1.816-1.043-4.085.261-4.085 2.349v33.447c0 2.087 2.27 3.392 4.085 2.348l29.09-16.724c1.815-1.043 1.815-3.653 0-4.696" fill="#971DB5"/><path d="M113.746 65.047c21.355 0 38.666 17.072 38.666 38.13 0 21.06-17.311 38.131-38.666 38.131-21.355 0-38.666-17.071-38.666-38.13 0-11.816 5.45-22.377 14.006-29.371m-16.259 69.744l81.838-81.495" stroke="#592ACB" stroke-width="7" stroke-linecap="round"/><path stroke="#592ACB" stroke-width="7" stroke-linecap="round" stroke-linejoin="round" d="M72.077 71.776h18.019V89.72"/><mask id="a" fill="#fff"><path d="M0 .071h234.941v23.773H0z"/></mask><path d="M234.941 24.591H0V7.496C0 3.808 3.07.819 6.856.819h221.23c3.786 0 6.855 2.99 6.855 6.677V24.59z" fill="#971DB5" mask="url(#a)"/></g><path d="M272.019 224.5H198.98c-3.855 0-6.981-3.068-6.981-6.852V77.352c0-3.784 3.126-6.852 6.981-6.852h73.038c3.855 0 6.981 3.068 6.981 6.852v140.296c0 3.784-3.126 6.852-6.981 6.852" fill="#C60084"/><path fill="#FFBD4F" d="M192 200.578h87V93.675h-87z"/></g><g fill="none" fill-rule="evenodd"><path d="M206.692 146.809c.342-.67.983-1.787 1.918-3.204a48.929 48.929 0 0 1 5.477-6.885c6.119-6.39 13.317-10.277 21.537-10.277 8.222 0 15.418 3.887 21.54 10.277a49.085 49.085 0 0 1 5.474 6.885c.934 1.417 1.577 2.534 1.919 3.204.343.67.343 1.459 0 2.129-.342.67-.985 1.786-1.919 3.203a48.948 48.948 0 0 1-5.475 6.885c-6.12 6.39-13.317 10.278-21.54 10.278-8.22 0-15.417-3.889-21.536-10.278a48.793 48.793 0 0 1-5.477-6.885c-.935-1.417-1.576-2.533-1.918-3.203a2.336 2.336 0 0 1 0-2.13m5.714 2.736a43.768 43.768 0 0 0 4.936 6.16c5.278 5.472 11.303 8.701 17.975 8.701 6.673 0 12.698-3.23 17.977-8.7a43.84 43.84 0 0 0 5.99-7.832 44.032 44.032 0 0 0-5.99-7.832c-5.279-5.471-11.304-8.7-17.977-8.7-6.672 0-12.697 3.229-17.975 8.7a43.96 43.96 0 0 0-5.99 7.832c.306.514.657 1.075 1.054 1.67" stroke="#E31587" stroke-width="2.95588" fill="#E31587"/><path d="M235.255 158.958c5.713 0 10.346-4.798 10.346-10.715s-4.633-10.715-10.346-10.715-10.345 4.798-10.345 10.715 4.632 10.715 10.345 10.715z" fill="#592ACB"/><path d="M211.608 172.998l48.772-48.772" stroke="#E31587" stroke-width="7.3897" stroke-linecap="round" stroke-linejoin="round"/></g></svg>