<svg xmlns="http://www.w3.org/2000/svg" width="46" height="37" viewBox="0 0 46 37">
  <path fill="#FF7139" fill-rule="evenodd" d="M25.2020953,32.1172401 L25.2055217,32.1129861 C23.9966274,33.3132668 22.0373407,33.3132668 20.8288747,32.1129861 L20.406779,31.6941747 C20.406779,31.6941747 20.4063506,31.693962 20.4063506,31.6937493 L6.76008651,18.1392768 C3.53815306,14.9398044 3.3826779,9.79686855 6.4144434,6.67418184 C7.931504,5.11060511 9.9700274,4.2389499 12.1535325,4.21916856 C12.1781601,4.21874315 12.2038584,4.21874315 12.2289143,4.21874315 C14.383937,4.21874315 16.4076839,5.05062298 17.9341672,6.56634163 L20.001173,8.6102008 L15.2094973,13.3694212 C14.7118054,13.8641675 14.3533131,14.4601601 14.1545791,15.11103 C14.0350816,15.501552 13.9734055,15.9118553 13.9734055,16.3313048 C13.9734055,17.0030196 14.1346628,17.6489973 14.4334064,18.2301008 C14.4456131,18.2543489 14.4554642,18.2798732 14.4685275,18.3039086 C14.4813767,18.327944 14.4976523,18.3504905 14.511144,18.3745259 C14.6987421,18.7065546 14.9308841,19.0168877 15.2094973,19.2936137 L17.0377223,21.1090303 L17.037294,21.1090303 L20.0178769,24.0687869 C20.8143123,24.8602532 21.8732994,25.2960808 23.0003872,25.2960808 C24.1268325,25.2960808 25.1860338,24.8602532 25.9816126,24.0696377 L30.7919196,19.2927629 C32.4342598,17.6598452 32.4342598,15.0031898 30.791063,13.3700593 L26.0030279,8.61488026 L28.0655364,6.56634163 L28.0655364,6.56612892 C29.5922339,5.05062298 31.6144817,4.21874315 33.7705751,4.21874315 C33.7956311,4.21874315 33.8213294,4.21874315 33.8461712,4.21916856 C36.0298904,4.2389499 38.0677713,5.11060511 39.5850461,6.67460724 C42.6165974,9.79665584 42.4617647,14.9400171 39.2402596,18.1397022 L25.2020953,32.1172401 Z M18.2125662,16.3527877 L23.011309,11.5867608 L27.7875657,16.3100345 L23.0218025,21.0862712 L23.0203034,21.0849949 L23.0203034,21.0847822 L18.2125662,16.3527877 Z M42.6431524,3.7465434 C40.3279432,1.36129657 37.2173694,0.0308418754 33.8853612,0.000425405178 C33.8470278,0 33.8080519,0 33.7688619,0 C30.4796844,0 27.3911683,1.26962175 25.0626816,3.58361322 L25.0624674,3.58361322 L22.9997447,5.63215185 L20.9368079,3.58361322 C18.6074646,1.26962175 15.5198051,0 12.2304134,0 C12.1914376,0 12.1526758,0 12.1145566,0.000425405178 C8.78190598,0.0308418754 5.67197459,1.36129657 3.35612292,3.746118 C-1.27129737,8.51320842 -1.0907663,16.3085456 3.75680338,21.1224306 L3.75680338,21.1226433 L17.4007118,34.674138 C20.419414,37.6723936 25.2404287,37.7674717 28.3841963,34.9848964 L42.2433286,21.1226433 C47.0915407,16.3083329 47.2707869,8.51278302 42.6431524,3.7465434 L42.6431524,3.7465434 Z"/>
</svg>
