<svg xmlns="http://www.w3.org/2000/svg" width="290" height="202" fill="none" viewBox="0 0 290 202"><path stroke="#fff" stroke-miterlimit="10" stroke-width="1.5" d="M1.5 194.669v3.062a3.416 3.416 0 0 0 3.416 3.413h103.726M21.059 69.001a2.917 2.917 0 1 0-1.341-5.677A2.917 2.917 0 0 0 21.058 69Z"/><path stroke="#fff" stroke-linecap="round" stroke-miterlimit="10" stroke-width="1.5" d="M32.89 58.618v-5.83M29.973 55.7h5.835"/><path stroke="#fff" stroke-miterlimit="10" stroke-width="1.5" d="M262.669 27.028a2.919 2.919 0 1 0-4.127 0 2.919 2.919 0 0 0 4.127 0Z"/><path stroke="#fff" stroke-linecap="round" stroke-miterlimit="10" stroke-width="1.5" d="M249.266 9.707v5.835M246.353 12.622h5.835"/><path stroke="#fff" stroke-miterlimit="10" stroke-width="1.5" d="M242.94 24.575H177.3a8.752 8.752 0 0 0-8.752 8.752V141.27a8.751 8.751 0 0 0 8.752 8.752h65.64a8.751 8.751 0 0 0 8.752-8.752V33.327a8.752 8.752 0 0 0-8.752-8.752Z"/><path fill="#fff" stroke="#fff" stroke-miterlimit="10" stroke-width="1.5" d="M251.692 33.327h-83.144V141.27h83.144V33.327Z"/><path fill="#47FFB9" fill-opacity=".2" stroke="#fff" stroke-miterlimit="10" stroke-width="1.5" d="M251.692 33.327h-83.144V141.27h83.144V33.327Z"/><path fill="#000" d="M222.015 72.423a4.627 4.627 0 0 0-1.634-2.05 4.571 4.571 0 0 0-2.559-.826 4.706 4.706 0 0 0-1.799.337 4.642 4.642 0 0 0-2.052 1.634 4.49 4.49 0 0 0-.628 1.323l-6.465-.104c-.042-.19-.1-.375-.176-.554a3.257 3.257 0 0 0-.247-.503l2.363-2.272a4.604 4.604 0 0 0 5.769-.868 4.595 4.595 0 0 0 1.01-1.826 4.593 4.593 0 0 0-.729-4 4.596 4.596 0 0 0-3.615-1.86 4.593 4.593 0 0 0-4.679 4.52 4.565 4.565 0 0 0 .543 2.232l-2.382 2.305a4.558 4.558 0 0 0-2.212-.604 4.586 4.586 0 0 0-4.676 4.52 4.624 4.624 0 0 0 3.618 4.574 4.592 4.592 0 0 0 4.768-1.866c.285-.4.5-.845.635-1.317l6.458.105c.05.188.111.372.181.553.066.145.132.294.207.43l-2.363 2.305a4.587 4.587 0 0 0-2.214-.605 4.607 4.607 0 0 0-4.676 4.53 4.531 4.531 0 0 0 .338 1.8 4.645 4.645 0 0 0 1.633 2.05 4.55 4.55 0 0 0 2.558.827 4.566 4.566 0 0 0 3.842-1.969c.532-.749.822-1.64.835-2.559a4.606 4.606 0 0 0-.339-1.792 7.902 7.902 0 0 0-.238-.507l2.342-2.268c.69.412 1.479.634 2.283.645a4.613 4.613 0 0 0 4.677-4.527 4.65 4.65 0 0 0-.377-1.813Zm-12.788-7.839a2.15 2.15 0 0 1 .78-.918c.356-.23.772-.347 1.195-.338a2.123 2.123 0 0 1 1.751.976c.224.351.339.761.332 1.178a2.12 2.12 0 0 1-3.899 1.124 2.083 2.083 0 0 1-.338-1.195 2.05 2.05 0 0 1 .179-.827Zm-4.854 10.168a2.131 2.131 0 0 1-1.771 1.26 2.147 2.147 0 0 1-1.962-.962 2.106 2.106 0 0 1-.339-1.192c.006-.284.066-.564.179-.824.171-.373.441-.691.784-.918a2.118 2.118 0 0 1 2.026-.166c.382.168.706.444.932.796a2.128 2.128 0 0 1 .151 2.006Zm6.582 8.7a2.118 2.118 0 0 1-1.767 1.249 2.127 2.127 0 0 1-1.946-.952 2.121 2.121 0 0 1-.159-2.026 2.114 2.114 0 0 1 2.793-1.084 2.129 2.129 0 0 1 1.087 2.8l-.008.013Zm8.731-8.44a2.12 2.12 0 0 1-1.172 1.123 2.115 2.115 0 0 1-1.624-.04 2.116 2.116 0 0 1-1.26-1.778 2.165 2.165 0 0 1 .176-1.033c.167-.376.438-.695.781-.922a2.113 2.113 0 0 1 2.184-.084 2.122 2.122 0 0 1 .915 2.72v.014Z"/><path stroke="#fff" stroke-miterlimit="10" stroke-width="1.5" d="M182.301 170.14a4.85 4.85 0 0 0 4.851-4.855V76.289a4.851 4.851 0 0 0-4.853-4.854H34.137a4.854 4.854 0 0 0-4.854 4.854v88.996a4.858 4.858 0 0 0 2.996 4.486c.59.244 1.22.369 1.858.369"/><path stroke="#fff" stroke-miterlimit="10" stroke-width="1.5" d="M104.543 196.876h107.78a2.595 2.595 0 0 0 1.5-.474 2.61 2.61 0 0 0 1.013-2.823 2.584 2.584 0 0 0-.857-1.32l-26.105-21.525a2.589 2.589 0 0 0-1.658-.593H30.217a2.6 2.6 0 0 0-1.66.593L2.454 192.259a2.602 2.602 0 0 0 .157 4.143c.44.31.963.475 1.5.474h107.78"/><path stroke="#fff" stroke-miterlimit="10" stroke-width="1.5" d="M214.932 194.669v3.062c0 .905-.359 1.773-1 2.413-.639.641-1.507 1-2.412 1H107.794"/><path stroke="#fff" stroke-linecap="round" stroke-linejoin="round" stroke-width="1.5" d="M108.362 187.489h73.386l-11.946-13.368H46.632l-11.947 13.368h73.677Z"/><path fill="#fff" stroke="#fff" stroke-linecap="round" stroke-linejoin="round" stroke-width="1.5" d="M178.547 77.65H37.797v86.917h140.75V77.65Z"/><path fill="#47FFB9" fill-opacity=".5" stroke="#fff" stroke-linecap="round" stroke-linejoin="round" stroke-width="1.5" d="M178.547 77.65H37.797v86.917h140.75V77.65Z"/><path fill="#000" d="M124.758 118.362a6.22 6.22 0 0 0-5.738-3.805 6.195 6.195 0 0 0-5.172 2.741 6.09 6.09 0 0 0-.821 1.807h-8.777a4.243 4.243 0 0 0-.25-.743 4.088 4.088 0 0 0-.337-.675l3.129-3.13a6.195 6.195 0 0 0 3.103.821 6.115 6.115 0 0 0 2.423-.493 6.235 6.235 0 0 0 3.693-6.978 6.229 6.229 0 0 0-6.116-4.993 6.23 6.23 0 0 0-4.412 1.819 6.234 6.234 0 0 0-1.331 6.84c.085.198.181.391.287.578l-3.173 3.176a6.204 6.204 0 0 0-3.011-.77 6.196 6.196 0 0 0-5.172 2.741 6.282 6.282 0 0 0-1.063 3.485 6.142 6.142 0 0 0 .492 2.43 6.253 6.253 0 0 0 2.259 2.742 6.187 6.187 0 0 0 3.484 1.063 6.246 6.246 0 0 0 5.161-2.748c.38-.547.661-1.156.831-1.799h8.757a6.023 6.023 0 0 0 .547 1.323l-3.177 3.173a6.2 6.2 0 0 0-3.008-.769 6.34 6.34 0 0 0-2.431.483 6.226 6.226 0 0 0-3.311 8.165 6.3 6.3 0 0 0 2.255 2.744 6.247 6.247 0 0 0 9.722-5.171 6.311 6.311 0 0 0-.493-2.424 7.449 7.449 0 0 0-.337-.675l3.122-3.122c.946.54 2.017.822 3.106.82a6.097 6.097 0 0 0 2.42-.493 6.236 6.236 0 0 0 3.816-5.74 6.28 6.28 0 0 0-.477-2.423Zm-17.497-10.336a2.91 2.91 0 0 1 1.04-1.264 2.873 2.873 0 0 1 3.637 4.413 2.885 2.885 0 0 1-2.03.847 2.886 2.886 0 0 1-2.387-1.273 2.825 2.825 0 0 1-.482-1.606c0-.384.076-.765.226-1.117h-.004Zm-6.346 13.881a2.881 2.881 0 0 1-2.372 1.745 2.876 2.876 0 0 1-3.148-2.869 2.783 2.783 0 0 1 .227-1.114 2.869 2.869 0 0 1 5.04-.476c.313.471.48 1.024.479 1.59.003.386-.074.769-.226 1.124Zm9.115 11.639a2.865 2.865 0 0 1-1.565 1.547 2.88 2.88 0 0 1-2.199-.014 2.966 2.966 0 0 1-1.27-1.046 2.891 2.891 0 0 1-.26-2.724 2.871 2.871 0 0 1 2.647-1.756c.383-.003.763.074 1.114.226a2.86 2.86 0 0 1 1.526 3.767h.007Zm11.639-11.639a2.876 2.876 0 0 1-3.876 1.483 2.88 2.88 0 0 1-1.157-.998 2.916 2.916 0 0 1-.26-2.723 2.884 2.884 0 0 1 1.04-1.264 2.817 2.817 0 0 1 1.607-.496c.384-.001.764.076 1.117.228.521.219.965.587 1.278 1.057.312.471.478 1.023.478 1.589 0 .386-.079.769-.233 1.124h.006Z"/><path stroke="#fff" stroke-miterlimit="10" stroke-width="1.5" d="M288.93 194.767v-85.408a6.444 6.444 0 0 0-6.445-6.445h-41.586a6.45 6.45 0 0 0-6.445 6.445v85.408a6.457 6.457 0 0 0 1.887 4.557 6.443 6.443 0 0 0 4.558 1.888h41.593a6.445 6.445 0 0 0 6.438-6.445Z"/><path fill="#fff" stroke="#fff" stroke-miterlimit="10" stroke-width="1.5" d="M281.452 107.473H241.93a2.918 2.918 0 0 0-2.918 2.918v83.345a2.917 2.917 0 0 0 2.918 2.917h39.522a2.917 2.917 0 0 0 2.918-2.917v-83.345a2.918 2.918 0 0 0-2.918-2.918Z"/><path fill="#47FFB9" stroke="#fff" stroke-miterlimit="10" stroke-width="1.5" d="M281.452 107.473H241.93a2.918 2.918 0 0 0-2.918 2.918v83.345a2.917 2.917 0 0 0 2.918 2.917h39.522a2.917 2.917 0 0 0 2.918-2.917v-83.345a2.918 2.918 0 0 0-2.918-2.918Z"/><path fill="#000" d="M273.589 143.111a4.597 4.597 0 0 0-5.992-2.542 4.666 4.666 0 0 0-2.05 1.634c-.281.404-.492.85-.628 1.323l-6.464-.105a3.567 3.567 0 0 0-.179-.553 2.834 2.834 0 0 0-.247-.5l2.364-2.272a4.617 4.617 0 0 0 6.123-1.32 4.595 4.595 0 0 0-1.133-6.407 4.603 4.603 0 0 0-2.559-.827 4.718 4.718 0 0 0-1.8.338 4.592 4.592 0 0 0-2.876 4.192 4.48 4.48 0 0 0 .54 2.232l-2.363 2.301a4.617 4.617 0 0 0-2.211-.603 4.564 4.564 0 0 0-3.852 1.961 4.637 4.637 0 0 0-.827 2.559c-.01.616.105 1.228.337 1.799a4.632 4.632 0 0 0 1.634 2.049 4.55 4.55 0 0 0 2.559.828 4.53 4.53 0 0 0 1.793-.338 4.535 4.535 0 0 0 2.052-1.631c.284-.401.498-.847.632-1.32l6.46.109c.047.188.109.371.183.549.06.148.127.293.202.433l-2.38 2.302a4.562 4.562 0 0 0-2.211-.604 4.679 4.679 0 0 0-1.799.338 4.596 4.596 0 0 0-2.542 5.992 4.66 4.66 0 0 0 1.634 2.052 4.604 4.604 0 0 0 5.502-.168 4.595 4.595 0 0 0 1.398-5.325 5.12 5.12 0 0 0-.239-.509l2.342-2.265c.691.41 1.477.632 2.28.645a4.497 4.497 0 0 0 1.795-.338 4.624 4.624 0 0 0 2.071-1.662 4.623 4.623 0 0 0 .812-2.528 4.653 4.653 0 0 0-.361-1.819Zm-12.789-7.838a2.149 2.149 0 0 1 1.776-1.264 2.1 2.1 0 0 1 1.034.18 2.104 2.104 0 0 1 1.262 1.971 2.12 2.12 0 0 1-2.154 2.086 2.228 2.228 0 0 1-.82-.178 2.176 2.176 0 0 1-.925-.79 2.14 2.14 0 0 1-.158-2.026l-.015.021Zm-4.851 10.164a2.13 2.13 0 0 1-.796.931c-.351.224-.761.34-1.177.335a2.25 2.25 0 0 1-.822-.179 2.108 2.108 0 0 1-.924-.791 2.044 2.044 0 0 1-.338-1.19 2.118 2.118 0 0 1 .96-1.739 2.055 2.055 0 0 1 1.194-.338 2.12 2.12 0 0 1 2.084 2.154c-.004.282-.066.56-.181.817Zm6.581 8.702a2.126 2.126 0 0 1-2.796 1.085 2.187 2.187 0 0 1-.924-.787 2.122 2.122 0 0 1 1.816-3.278c.283.002.562.064.819.179a2.11 2.11 0 0 1 1.264 1.975 2.1 2.1 0 0 1-.193.826h.014Zm8.73-8.438a2.128 2.128 0 0 1-1.975 1.262 2.118 2.118 0 0 1-2.084-2.161 2.11 2.11 0 0 1 .964-1.738 2.08 2.08 0 0 1 1.19-.339 2.112 2.112 0 0 1 2.084 2.154c-.004.28-.064.557-.179.811v.011Z"/><path fill="#47FFB9" stroke="#fff" stroke-miterlimit="10" stroke-width="1.5" d="m132.206 61.613 7.605-3.748a27.501 27.501 0 0 0 15.405-24.824l-.082-22.47-23.175-9.352-.374-.007-23.158 9.483.081 22.471a27.935 27.935 0 0 0 5.104 15.917 26.53 26.53 0 0 0 10.504 8.858l7.716 3.67.374.002Z"/><path fill="#000" d="M127.7 40.685a1.607 1.607 0 0 1-1.246-.526l-6.411-6.288a1.773 1.773 0 0 1 .047-2.51 1.775 1.775 0 0 1 2.51.047l5.076 5.135 13.185-13.564a1.781 1.781 0 0 1 3.078 1.157 1.78 1.78 0 0 1-.48 1.275l-14.468 14.796a1.676 1.676 0 0 1-1.264.478h-.027Z"/></svg>
