<svg xmlns="http://www.w3.org/2000/svg" width="600" height="301" fill="none" viewBox="0 0 600 301"><path fill="#6A52DE" stroke="#6A52DE" stroke-miterlimit="10" stroke-width="1.703" d="M182.515 80.939H80.709a20.88 20.88 0 0 1 20.599-17.243h.819a30.097 30.097 0 0 1 29.602-15.216 30.102 30.102 0 0 1 25.524 21.36 15.042 15.042 0 0 1 25.257 11.099h.005Z"/><path stroke="#fff" stroke-miterlimit="10" stroke-width="1.507" d="M154.443 88.857H52.598a20.881 20.881 0 0 1 20.599-17.238h.824a30.1 30.1 0 0 1 55.125 6.13 15.037 15.037 0 0 1 25.252 11.108h.045Z"/><path fill="#6A52DE" stroke="#6A52DE" stroke-miterlimit="10" stroke-width="1.703" d="M444.205 194.808h-71.57a14.702 14.702 0 0 1 14.47-12.124h.572a21.177 21.177 0 0 1 20.812-10.68 21.172 21.172 0 0 1 17.945 15.006 10.575 10.575 0 0 1 17.771 7.798Z"/><path fill="#fff" stroke="#000" stroke-miterlimit="10" stroke-width="1.507" d="M323.107 217.336a84.475 84.475 0 0 0 82.849-67.992 84.474 84.474 0 0 0-50.524-94.522 84.47 84.47 0 0 0-92.053 137.775 84.408 84.408 0 0 0 59.728 24.739Z"/><path fill="#C3C5FF" stroke="#C2C6FF" stroke-miterlimit="10" stroke-width="1.552" d="M323.106 206.022a73.17 73.17 0 0 0 64.509-107.667 73.168 73.168 0 1 0-64.509 107.667Z"/><path stroke="#000" stroke-miterlimit="10" stroke-width="1.507" d="M300.673 214.357c-20.001-19.213-32.768-48.595-32.768-81.488 0-32.894 12.767-62.3 32.768-81.502M345.57 51.326c20.001 19.213 32.758 48.594 32.758 81.498 0 32.903-12.757 62.3-32.758 81.493M238.635 132.869h168.954M323.106 48.347v168.989"/><path fill="#AD79FF" stroke="#000" stroke-miterlimit="10" stroke-width="1.507" d="M383.115 80.085a7.442 7.442 0 0 0 5.757-2.73 7.445 7.445 0 0 0 1.538-6.183 7.448 7.448 0 0 0-9.652-5.61 7.45 7.45 0 0 0 2.357 14.523ZM322.911 112.38a7.473 7.473 0 0 0 7.339-6.002 7.468 7.468 0 0 0-4.457-8.368 7.472 7.472 0 1 0-2.882 14.37Z"/><path fill="#6F4AE7" stroke="#000" stroke-miterlimit="10" stroke-width="1.507" d="M378.794 140.194a7.462 7.462 0 0 0 2.864-14.353 7.462 7.462 0 1 0-2.864 14.353Z"/><path stroke="#fff" stroke-miterlimit="10" stroke-width="1.507" d="M206.917 50.9a3.426 3.426 0 0 0 2.421-5.849 3.413 3.413 0 0 0-3.733-.743 3.423 3.423 0 0 0-2.048 3.834 3.427 3.427 0 0 0 3.36 2.758Z"/><path fill="#6A45E3" fill-rule="evenodd" d="M434.966 80.597a2.513 2.513 0 0 1 .502 4.934 2.508 2.508 0 0 1-2.557-1.06 2.505 2.505 0 0 1-.417-1.387 2.509 2.509 0 0 1 2.487-2.487h-.015ZM453.956 62.003a25.787 25.787 0 0 0-18.916-8.258 25.796 25.796 0 0 0-18.916 8.258 1.523 1.523 0 0 0-.316.504 1.522 1.522 0 0 0 .04 1.159c.078.189.195.36.341.502a1.54 1.54 0 0 0 1.086.412c.199-.01.395-.055.577-.135.189-.079.36-.196.503-.342a22.756 22.756 0 0 1 25.83-5.4 22.766 22.766 0 0 1 7.591 5.4 1.508 1.508 0 0 0 2.612-1.005 1.494 1.494 0 0 0-.432-1.095Z" clip-rule="evenodd"/><path fill="#6A45E3" fill-rule="evenodd" d="M448.43 68.233a18.469 18.469 0 0 0-13.374-5.728 18.48 18.48 0 0 0-13.375 5.728 1.508 1.508 0 0 0-.502 1.768 1.502 1.502 0 0 0 .92.884c.207.075.429.102.648.076.22-.02.434-.09.623-.206a1.56 1.56 0 0 0 .477-.447 15.447 15.447 0 0 1 22.458 0 1.51 1.51 0 0 0 1.04.447c.388-.01.758-.166 1.035-.437a1.506 1.506 0 0 0 .065-2.085h-.015ZM442.366 74.533a10.854 10.854 0 0 0-7.335-3.115h-.116a10.86 10.86 0 0 0-7.345 3.115 1.5 1.5 0 0 0-.33 1.65c.076.184.188.35.33.49.273.279.645.438 1.035.443.389-.004.762-.16 1.04-.433a7.83 7.83 0 0 1 5.19-2.286h.11a7.863 7.863 0 0 1 5.19 2.286 1.51 1.51 0 0 0 1.005.297c.366-.028.709-.189.965-.452a1.51 1.51 0 0 0 .422-1.005 1.543 1.543 0 0 0-.332-1.005l.171.015Z" clip-rule="evenodd"/><path fill="#C0C3F6" d="M522.085 84.425c-4.798 2.563-9.571 5.19-14.239 8.004l-15.324-4.019-1.507-.402a3.11 3.11 0 0 0-2.241.643l-5.396 2.864a1.605 1.605 0 0 0-.753 1.155c-.03.237-.006.478.07.704a1.5 1.5 0 0 0 .372.598l9.415 7.681-3.467 2.422a1.51 1.51 0 0 0-.502.503 1.527 1.527 0 0 0-.246.658 1.59 1.59 0 0 0 .427 1.306l2.708 3.115 1.04 1.141c.235.219.528.367.844.426.317.066.646.041.95-.07l7.536-1.422 12.982-2.441c.117-.001.233-.021.342-.06a1.64 1.64 0 0 0 .312-.106c11.334-3.874 22.608-8.039 33.571-12.882a155.735 155.735 0 0 0 19.489-9.973 48.764 48.764 0 0 0 9.436-7.265 12.882 12.882 0 0 0 3.115-4.672c.139-.416.216-.85.231-1.287a5.314 5.314 0 0 0-.066-.563c-.105-.758-1.225-1.336-1.813-1.723a18.867 18.867 0 0 0-3.874-1.869 25.402 25.402 0 0 0-16.61.146c-2.698.884-5.341 1.944-7.958 3.044-4.733 1.97-9.34 4.15-14.033 6.29l-14.811 8.055Z"/><path fill="#fff" stroke="#000" stroke-linecap="round" stroke-linejoin="round" stroke-width="1.507" d="M516.312 80.96c-4.793 2.572-9.546 5.189-14.239 8.003l-15.324-4.02-1.507-.392a2.952 2.952 0 0 0-1.186.096c-.385.11-.743.296-1.055.547l-5.411 2.864a1.565 1.565 0 0 0-.502.503c-.131.201-.215.43-.247.668-.029.237-.005.477.071.703.079.225.206.431.372.603l9.415 7.677-3.467 2.412a1.563 1.563 0 0 0-.502.502c-.13.199-.214.423-.246.658a1.578 1.578 0 0 0 .427 1.307l2.708 3.115 1.04 1.14a1.748 1.748 0 0 0 1.794.357l7.536-1.417 12.982-2.437c.117-.01.233-.03.347-.06.108-.027.212-.065.312-.115 11.334-3.874 22.609-8.04 33.566-12.873 6.726-2.863 13.24-6.2 19.494-9.983a48.514 48.514 0 0 0 9.436-7.265 12.862 12.862 0 0 0 3.11-4.672c.139-.412.217-.842.231-1.276a5.066 5.066 0 0 0-.061-.563c-.105-.759-1.226-1.337-1.818-1.734a18.468 18.468 0 0 0-3.874-1.859 26.026 26.026 0 0 0-12.661-.909 24.86 24.86 0 0 0-3.954 1.035c-2.698.884-5.346 1.944-7.963 3.015-4.733 1.984-9.341 4.155-14.033 6.29l-14.791 8.08Z"/><path fill="#fff" stroke="#000" stroke-linecap="round" stroke-linejoin="round" stroke-width="1.507" d="M542.056 75.734c-.03-.102-.073-.2-.126-.292a1.442 1.442 0 0 0-.768-.653l-.166-.076c-3.974-1.266-8.004-2.436-11.938-3.838l-17.363-6.134-8.305-2.96-1.9-.663c-1.04-.357-1.848.422-2.627.925l-5.396 3.456a1.589 1.589 0 0 0 0 2.698l13.244 8.943a7783.39 7783.39 0 0 0 11.5 7.773l3.115 2.075a1.506 1.506 0 0 0 1.568 0l14.811-7.536 3.738-1.9c.162-.087.305-.205.422-.347.117-.148.203-.319.251-.502v-.095c.067-.291.046-.595-.06-.874Z"/><path fill="#C0C3F6" stroke="#000" stroke-linecap="round" stroke-linejoin="round" stroke-width="1.507" d="m570.382 63.792-6.592 5.084-3.115-1.567-1.547-4.693s3.165-1.91 11.254 1.176Z"/><path fill="#C0C3F6" d="M111.607 156.367H57.632a7.208 7.208 0 0 0-7.2 7.205v74.861a7.206 7.206 0 0 0 7.2 7.204h53.975a7.206 7.206 0 0 0 6.657-4.447 7.205 7.205 0 0 0 .548-2.757v-74.861a7.205 7.205 0 0 0-7.205-7.205Z"/><path stroke="#000" stroke-linecap="round" stroke-linejoin="round" stroke-width="1.507" d="M74.73 164.929v69.886M93.27 164.929v69.886M111.809 164.929v46.358"/><path stroke="#fff" stroke-linecap="round" stroke-linejoin="round" stroke-width="1.507" d="M81.01 247.667a6.427 6.427 0 0 1-10.875 4.379 6.427 6.427 0 0 1-1.967-4.379M121.732 149.951H64.818a7.205 7.205 0 0 0-7.205 7.205v81.894a7.205 7.205 0 0 0 7.205 7.205h56.914a7.196 7.196 0 0 0 7.2-7.205v-81.894a7.204 7.204 0 0 0-4.444-6.656 7.179 7.179 0 0 0-2.756-.549ZM82.578 137.828v11.41M103.971 137.828v11.41M108.964 130.688H77.583v7.13h31.381v-7.13Z"/><path fill="#fff" stroke="#000" stroke-linecap="round" stroke-linejoin="round" stroke-width="1.507" d="M122.199 270.306a4.821 4.821 0 0 0 4.726-5.758 4.82 4.82 0 0 0-6.569-3.512 4.82 4.82 0 0 0-1.564 7.858 4.818 4.818 0 0 0 3.407 1.412ZM163.915 270.306a4.82 4.82 0 0 0 3.407-8.226 4.827 4.827 0 0 0-5.251-1.044 4.825 4.825 0 0 0-2.975 4.451 4.82 4.82 0 0 0 4.819 4.819ZM133.176 216.984v-9.581a9.202 9.202 0 0 1 9.192-8.827 9.203 9.203 0 0 1 9.192 8.827v9.581h5.19v-9.154a14.411 14.411 0 0 0-24.425-9.886 14.407 14.407 0 0 0-4.379 9.886v9.154h5.23Z"/><path fill="#fff" stroke="#000" stroke-linecap="round" stroke-linejoin="round" stroke-width="1.507" d="M173.672 211.287H111.05a7.207 7.207 0 0 0-7.205 7.204v37.682a7.206 7.206 0 0 0 7.205 7.205h62.622a7.204 7.204 0 0 0 7.199-7.205v-37.682a7.204 7.204 0 0 0-7.199-7.204Z"/><path fill="#6A52DE" stroke="#000" stroke-linecap="round" stroke-linejoin="round" stroke-width="1.507" d="m133.578 225.631-15.646 4.13 2.321 8.792 15.646-4.13-2.321-8.792Z"/><path fill="#A77FFA" stroke="#000" stroke-linecap="round" stroke-linejoin="round" stroke-width="1.507" d="m157.413 237.558 8.968-6.727 2.432 10.938-11.4-4.211Z"/><path fill="#C0C3F6" stroke="#000" stroke-linecap="round" stroke-linejoin="round" stroke-width="1.507" d="M140.909 252.647a4.278 4.278 0 0 0 4.194-5.11 4.284 4.284 0 0 0-3.36-3.36 4.28 4.28 0 0 0-4.389 1.818 4.274 4.274 0 0 0 .532 5.399 4.275 4.275 0 0 0 3.023 1.253Z"/><path stroke="#fff" stroke-linecap="round" stroke-linejoin="round" stroke-width="1.507" d="m437.035 116.063 9.385-3.653M454.459 109.245l15.49-6.355M432.549 128.312l38.184-14.957"/><path fill="#C4C6FC" d="M465.08 267.784v-28.548h28.864v-26.809h45.64v55.357H465.08Z"/><path fill="#C4C7FC" d="M465.081 267.784h.236v-28.316h28.859v-26.815h45.193v54.9h-74.288v.457h74.745v-55.809h-46.117v26.82H464.86v28.999h.221v-.236Z"/><path stroke="#fff" stroke-linecap="round" stroke-linejoin="round" stroke-width="1.507" d="M417.415 230.56v-12.194h-13.816v49.157M518.698 262.715v-25.121h-14.766v19.866M475.5 199.962v-22.026h17.866v19.69h8.642v34.863"/><path stroke="#fff" stroke-linecap="round" stroke-linejoin="round" stroke-width="1.507" d="M484.428 205.886h-34.461v9.018h34.461v-9.018ZM482.394 215.759v52.281h-30.391v-52.281M451.068 238.106h-40.003v5.481h40.003M451.067 268.04h-37.43v-23.925M510.068 153.951v5.873M513.002 156.885h-5.874M181.61 34.5v6.737M184.972 37.871h-6.733"/><path stroke="#fff" stroke-miterlimit="10" stroke-width="1.507" d="M141.869 143.621a2.608 2.608 0 0 0 2.562-3.125 2.595 2.595 0 0 0-2.055-2.055 2.615 2.615 0 0 0-2.82 1.328 2.611 2.611 0 0 0 .459 3.083 2.613 2.613 0 0 0 1.854.769ZM40.269 143.621a2.616 2.616 0 0 0 1.452-.442 2.618 2.618 0 0 0 1.115-2.683 2.62 2.62 0 0 0-2.437-2.102 2.629 2.629 0 0 0-1.13.192 2.692 2.692 0 0 0-1.176.965 2.618 2.618 0 0 0 2.176 4.07Z"/><path stroke="#fff" stroke-linecap="round" stroke-linejoin="round" stroke-width="1.507" d="M154.831 148.585v6.732M158.191 151.946h-6.732M22.126 152.037v6.737M25.488 155.413H18.75"/><path stroke="#fff" stroke-miterlimit="10" stroke-width="1.507" d="M531.706 177.419a3.045 3.045 0 1 0 .01-6.09 3.045 3.045 0 0 0-.01 6.09Z"/><path fill="#9C7452" d="M337.522 264.328c-6.029 1.17-12.742-.001-18.329-2.377-3.682-1.538-7.496-4.215-11.42-4.954-3.924-.738-8.425.643-12.279 1.683-3.853 1.04-7.853 2.337-10.998-.407-2.713-2.346-3.657-6.893-4.391-11.053-.733-4.16-1.467-8.189-2.201-12.279a16.576 16.576 0 0 1-.376-4.773 10.19 10.19 0 0 1 1.849-4.391c2.471-3.573 5.948-5.688 9.395-7.537 2.979-1.567 6.089-3.014 9.34-3.014 2.694.176 5.335.833 7.797 1.939l12.883 4.924a10.606 10.606 0 0 1 3.808 2.075 23.287 23.287 0 0 1 2.477 3.245c4.682 6.622 11.947 9.969 15.394 17.791 1.763 3.989 2.512 9.17 2.803 13.722.106 3.411-2.667 4.843-5.752 5.406Z"/><path fill="#fff" stroke="#000" stroke-miterlimit="10" stroke-width="1.507" d="m292.178 221.938-62.662 11.164a5.851 5.851 0 0 1-2.306-.045 5.913 5.913 0 0 1-4.522-4.738l-22.181-124.555a5.918 5.918 0 0 1 .969-4.423 5.914 5.914 0 0 1 3.814-2.44l62.621-11.18a5.937 5.937 0 0 1 6.863 4.789l22.212 124.6a5.912 5.912 0 0 1-4.808 6.828Z"/><path fill="#9C7452" d="M206.519 129.493c-2.944-1.131-10.048-4.276-13.063-5.025a6.753 6.753 0 0 0-5.19.573c-4.411 2.798-1.401 8.893 1.141 11.872 4.848 5.617 13.882 11.335 20.338 14.917"/><path stroke="#000" stroke-miterlimit="10" stroke-width="1.507" d="M206.519 129.493c-2.944-1.131-10.048-4.276-13.063-5.025a6.753 6.753 0 0 0-5.19.573c-4.411 2.798-1.401 8.893 1.141 11.872 4.848 5.617 13.882 11.335 20.338 14.917"/><path fill="#9C7452" d="m289.163 222.476-47.73 9.672s10.049 12.56 31.844 13.952l7.933 7.993"/><path stroke="#000" stroke-miterlimit="10" stroke-width="1.507" d="m289.163 222.476-47.73 9.672s10.049 12.56 31.844 13.952l7.933 7.993"/><path fill="#fff" stroke="#000" stroke-miterlimit="10" stroke-width="1.507" d="M299.754 213.985 277.507 90.766a9.488 9.488 0 0 0-10.973-7.627L206.52 93.987a9.49 9.49 0 0 0-7.627 10.967l22.273 123.209a9.507 9.507 0 0 0 11.003 7.627l60.009-10.837a9.454 9.454 0 0 0 7.591-10.984l-.015.016Z"/><path fill="#9C7452" stroke="#000" stroke-miterlimit="10" stroke-width="1.507" d="M207.122 199.017c.829.166 1.643.402 2.442.633 4.522 1.307 3.04.975 7.536 2.281 5.085 1.467 9.099 8.225 4.889 12.707-5.19 5.491-11.078 2.346-16.826.342-3.015-1.035-5.627-2.583-6.697-5.794-1.472-4.481 1.276-10.048 6.29-10.375.794-.016 1.587.054 2.366.206Z"/><path fill="#fff" d="m282.656 219.974-49.378 9.043a4.832 4.832 0 0 1-5.612-3.848l-22.785-120.767a4.541 4.541 0 0 1 0-1.814 4.484 4.484 0 0 1 2.01-2.904 4.52 4.52 0 0 1 1.703-.628l7.16-1.306a1.507 1.507 0 0 1 1.673.965 7.178 7.178 0 0 0 7.993 4.587l26.829-4.849a7.183 7.183 0 0 0 5.884-7.034c.001-.367.13-.723.367-1.005a1.54 1.54 0 0 1 .914-.502l5.642-1.04a5.458 5.458 0 0 1 5.582 2.427c.388.604.654 1.278.784 1.984l4.522 25.694"/><path stroke="#000" stroke-miterlimit="10" stroke-width="1.507" d="m282.656 219.974-49.378 9.043a4.832 4.832 0 0 1-5.612-3.848l-22.785-120.767a4.541 4.541 0 0 1 0-1.814 4.484 4.484 0 0 1 2.01-2.904 4.52 4.52 0 0 1 1.703-.628l7.16-1.306a1.507 1.507 0 0 1 1.673.965 7.178 7.178 0 0 0 7.993 4.587l26.829-4.849a7.183 7.183 0 0 0 5.884-7.034c.001-.367.13-.723.367-1.005a1.54 1.54 0 0 1 .914-.502l5.642-1.04a5.458 5.458 0 0 1 5.582 2.427c.388.604.654 1.278.784 1.984l4.522 25.694"/><path fill="#9C7452" stroke="#000" stroke-miterlimit="10" stroke-width="1.507" d="M201.104 163.658c.829.165 1.638.406 2.437.632 4.522 1.307 9.044 2.648 13.565 3.955 5.085 1.477 9.099 8.234 4.889 12.716-5.19 5.481-17.082.698-22.835-1.336-3.015-1.04-5.627-2.588-6.697-5.793-1.473-4.487 1.276-10.049 6.29-10.381a9.38 9.38 0 0 1 2.351.207Z"/><path fill="#9C7452" stroke="#000" stroke-miterlimit="10" stroke-width="1.507" d="M201.104 180.262c.829.166 1.638.402 2.437.633 4.522 1.307 9.044 2.648 13.565 3.945 5.085 1.472 9.099 8.229 4.889 12.716-5.19 5.486-17.082.703-22.835-1.342-3.015-1.04-5.627-2.572-6.697-5.782-1.473-4.482 1.276-10.049 6.29-10.381.789-.011 1.577.06 2.351.211Z"/><path fill="#9C7452" d="m344.268 259.012-1.774-7.361c-.165-1.834-21.207-53.03-23.508-59.321-2.301-6.29-18.589-38.571-18.589-38.571a50.532 50.532 0 0 1-4.427-15.258s-1.432-10.375-1.864-16.751c-.165-2.572-3.823-4.285-6.23-3.416-3.175 1.1-5.853 3.341-7.33 7.857a12.024 12.024 0 0 0-.432 5.326l4.286 54.493c-14.46 35.672 13.349 52.387 13.349 52.387"/><path stroke="#000" stroke-miterlimit="10" stroke-width="1.507" d="m344.268 259.012-1.774-7.361c-.165-1.834-21.207-53.03-23.508-59.321-2.301-6.29-18.589-38.571-18.589-38.571a50.532 50.532 0 0 1-4.427-15.258s-1.432-10.375-1.864-16.751c-.165-2.572-3.823-4.285-6.23-3.416-3.175 1.1-5.853 3.341-7.33 7.857a12.024 12.024 0 0 0-.432 5.326l4.286 54.493c-14.46 35.672 13.349 52.387 13.349 52.387"/><path fill="#000" d="M255.4 128.604a4.444 4.444 0 0 0-1.879-1.603 4.377 4.377 0 0 0-5.723 2.2 4.41 4.41 0 0 0-.331 1.342l-5.959 1.005a2.367 2.367 0 0 0-.266-.467c-.106-.136-.196-.302-.302-.438l1.774-2.512a4.322 4.322 0 0 0 1.959.231 4.193 4.193 0 0 0 1.849-.668 4.31 4.31 0 0 0 1.914-4.391 4.583 4.583 0 0 0-.638-1.598 4.293 4.293 0 0 0-4.376-1.909 4.489 4.489 0 0 0-1.613.633 4.31 4.31 0 0 0-1.909 4.392c.107.573.321 1.12.633 1.612.086.126.176.252.272.372l-1.774 2.542a4.242 4.242 0 0 0-2.14-.175 4.548 4.548 0 0 0-1.608.642 4.346 4.346 0 0 0-1.598 1.87 4.194 4.194 0 0 0-.301 2.512c.122.698.414 1.355.849 1.914a4.292 4.292 0 0 0 1.653 1.291 4.204 4.204 0 0 0 2.512.377 4.387 4.387 0 0 0 3.215-2.512c.196-.422.308-.877.332-1.342l5.989-1.035c.069.165.157.322.261.468.087.127.178.247.272.361l-1.764 2.512a4.251 4.251 0 0 0-2.14-.165 4.494 4.494 0 0 0-1.608.633 4.4 4.4 0 0 0-1.598 1.879 4.265 4.265 0 0 0-.301 2.512 4.304 4.304 0 0 0 5.024 3.517 4.563 4.563 0 0 0 1.613-.633 4.398 4.398 0 0 0 1.608-1.879 4.324 4.324 0 0 0 .301-2.512 4.57 4.57 0 0 0-.643-1.608c-.096-.136-.201-.302-.302-.437l1.774-2.513a4.46 4.46 0 0 0 2.211.211 4.714 4.714 0 0 0 1.607-.642 4.389 4.389 0 0 0 1.603-1.87 4.233 4.233 0 0 0 .297-2.512 5.817 5.817 0 0 0-.749-1.607Zm-13.184-4.985c.088-.394.287-.754.573-1.039a1.861 1.861 0 0 1 1.035-.538c.336-.057.682-.03 1.005.08.314.1.6.272.834.503.239.236.412.531.502.854.088.329.088.676 0 1.005-.091.393-.29.752-.572 1.04a2.076 2.076 0 0 1-1.834.537 2.276 2.276 0 0 1-1.04-.558 2.162 2.162 0 0 1-.528-1.039 1.913 1.913 0 0 1 .025-.845Zm-2.677 10.275a1.988 1.988 0 0 1-2.588 1.422 2.048 2.048 0 0 1-.829-.503 2.09 2.09 0 0 1-.528-1.04 2.035 2.035 0 0 1 0-.808c.089-.372.289-.709.573-.965.281-.282.643-.47 1.035-.538a1.955 1.955 0 0 1 1.522.312 1.97 1.97 0 0 1 .784 2.095l.031.025Zm7.631 6.853a1.974 1.974 0 0 1-.573.975c-.236.238-.53.412-.854.502a1.964 1.964 0 0 1-1.004 0 2.219 2.219 0 0 1-1.035-.572 2.156 2.156 0 0 1-.543-1.036 2.195 2.195 0 0 1 0-.808c.074-.377.272-.719.563-.97a1.996 1.996 0 0 1 1.035-.537c.267-.046.541-.046.809 0 .391.094.75.292 1.04.572.27.29.457.648.542 1.035.056.277.063.561.02.839Zm6.532-9.345c-.08.372-.275.71-.558.965a1.954 1.954 0 0 1-1.04.542c-.327.049-.66.022-.975-.08a2.048 2.048 0 0 1-.829-.503 2.208 2.208 0 0 1-.542-1.039 2.381 2.381 0 0 1 0-.799 2.047 2.047 0 0 1 1.427-1.462 1.946 1.946 0 0 1 1.005 0c.39.097.749.294 1.04.572.27.29.456.648.537 1.035.04.26.026.525-.04.779l-.025-.01Z"/><path fill="#47FFB9" d="m259.042 166.24-16.61 3.014a6.49 6.49 0 0 1-7.191-4.023 6.492 6.492 0 0 1 2.539-7.839 6.486 6.486 0 0 1 2.361-.929l16.58-3.015a6.475 6.475 0 0 1 7.526 5.221 6.476 6.476 0 0 1-5.22 7.526l.015.045Z"/><path fill="#000" d="m259.042 166.24-.135-.669-16.605 3.015a6.599 6.599 0 0 1-1.04.1 5.798 5.798 0 0 1-3.683-1.336 5.713 5.713 0 0 1-2.009-3.446 5.13 5.13 0 0 1-.106-1.041 5.804 5.804 0 0 1 4.788-5.687l16.605-3.015a5.19 5.19 0 0 1 1.04-.105 5.805 5.805 0 0 1 3.683 1.341 5.734 5.734 0 0 1 2.01 3.447c.068.341.102.688.1 1.035a5.802 5.802 0 0 1-4.783 5.687l.135.669.136.673a7.135 7.135 0 0 0-1.276-14.158 8.253 8.253 0 0 0-1.266.095l-16.61 3.015a6.962 6.962 0 0 0-4.215 2.477 7.088 7.088 0 0 0-1.097 7.252 7.139 7.139 0 0 0 3.859 3.861 7.14 7.14 0 0 0 2.729.543 7.98 7.98 0 0 0 1.246-.065l16.61-3.015-.116-.673Z"/><path fill="#fff" d="M264.127 158.714a6.485 6.485 0 0 1-11.814 4.728 6.486 6.486 0 0 1 9.121-8.873 6.43 6.43 0 0 1 2.693 4.145Z"/><path fill="#000" d="m264.127 158.714-.673.135c.065.341.1.688.105 1.035a5.796 5.796 0 0 1-1.361 3.714 5.795 5.795 0 0 1-3.427 1.973 5.898 5.898 0 0 1-1.035.106 5.826 5.826 0 0 1-5.692-4.783 5.802 5.802 0 0 1 4.692-6.727c.342-.07.691-.106 1.04-.106a5.801 5.801 0 0 1 3.673 1.342 5.728 5.728 0 0 1 2.009 3.446l.674-.135.663-.136a7.13 7.13 0 0 0-7.034-5.853 8.388 8.388 0 0 0-1.276.1 6.978 6.978 0 0 0-4.215 2.472 7.112 7.112 0 0 0-.973 7.587 7.123 7.123 0 0 0 6.464 4.089c.424 0 .847-.03 1.266-.09a6.996 6.996 0 0 0 4.216-2.482 7.085 7.085 0 0 0 1.637-4.522 6.826 6.826 0 0 0-.105-1.276l-.648.111Z"/><path fill="#9C7452" d="M337.522 264.328c-6.029 1.17-12.742-.001-18.329-2.377-3.682-1.538-7.496-4.215-11.42-4.954-3.924-.738-8.425.643-12.279 1.683-3.853 1.04-7.853 2.337-10.998-.407-2.713-2.346-3.657-6.893-4.391-11.053-.733-4.16-1.467-8.189-2.201-12.279a16.576 16.576 0 0 1-.376-4.773 10.19 10.19 0 0 1 1.849-4.391c2.471-3.573 5.948-5.688 9.395-7.537 2.979-1.567 6.089-3.014 9.34-3.014 2.694.176 5.335.833 7.797 1.939l12.883 4.924a10.606 10.606 0 0 1 3.808 2.075 23.287 23.287 0 0 1 2.477 3.245c4.682 6.622 11.947 9.969 15.394 17.791 1.763 3.989 2.512 9.17 2.803 13.722.106 3.411-2.667 4.843-5.752 5.406Z"/><path fill="#fff" stroke="#000" stroke-miterlimit="10" stroke-width="1.507" d="m292.178 221.938-62.662 11.164a5.851 5.851 0 0 1-2.306-.045 5.913 5.913 0 0 1-4.522-4.738l-22.181-124.555a5.918 5.918 0 0 1 .969-4.423 5.914 5.914 0 0 1 3.814-2.44l62.621-11.18a5.937 5.937 0 0 1 6.863 4.789l22.212 124.6a5.912 5.912 0 0 1-4.808 6.828Z"/><path fill="#9C7452" d="M206.519 129.493c-2.944-1.131-10.048-4.276-13.063-5.025a6.753 6.753 0 0 0-5.19.573c-4.411 2.798-1.401 8.893 1.141 11.872 4.848 5.617 13.882 11.335 20.338 14.917"/><path stroke="#000" stroke-miterlimit="10" stroke-width="1.507" d="M206.519 129.493c-2.944-1.131-10.048-4.276-13.063-5.025a6.753 6.753 0 0 0-5.19.573c-4.411 2.798-1.401 8.893 1.141 11.872 4.848 5.617 13.882 11.335 20.338 14.917"/><path fill="#9C7452" d="m289.163 222.476-47.73 9.672s10.049 12.56 31.844 13.952l7.933 7.993"/><path stroke="#000" stroke-miterlimit="10" stroke-width="1.507" d="m289.163 222.476-47.73 9.672s10.049 12.56 31.844 13.952l7.933 7.993"/><path fill="#fff" stroke="#000" stroke-miterlimit="10" stroke-width="1.507" d="M299.754 213.985 277.507 90.766a9.488 9.488 0 0 0-10.973-7.627L206.52 93.987a9.49 9.49 0 0 0-7.627 10.967l22.273 123.209a9.507 9.507 0 0 0 11.003 7.627l60.009-10.837a9.454 9.454 0 0 0 7.591-10.984l-.015.016Z"/><path fill="#9C7452" stroke="#000" stroke-miterlimit="10" stroke-width="1.507" d="M207.122 199.017c.829.166 1.643.402 2.442.633 4.522 1.307 3.04.975 7.536 2.281 5.085 1.467 9.099 8.225 4.889 12.707-5.19 5.491-11.078 2.346-16.826.342-3.015-1.035-5.627-2.583-6.697-5.794-1.472-4.481 1.276-10.048 6.29-10.375.794-.016 1.587.054 2.366.206Z"/><path fill="#fff" d="m282.656 219.974-49.378 9.043a4.832 4.832 0 0 1-5.612-3.848l-22.785-120.767a4.541 4.541 0 0 1 0-1.814 4.484 4.484 0 0 1 2.01-2.904 4.52 4.52 0 0 1 1.703-.628l7.16-1.306a1.507 1.507 0 0 1 1.673.965 7.178 7.178 0 0 0 7.993 4.587l26.829-4.849a7.183 7.183 0 0 0 5.884-7.034c.001-.367.13-.723.367-1.005a1.54 1.54 0 0 1 .914-.502l5.642-1.04a5.458 5.458 0 0 1 5.582 2.427c.388.604.654 1.278.784 1.984l4.522 25.694"/><path stroke="#000" stroke-miterlimit="10" stroke-width="1.507" d="m282.656 219.974-49.378 9.043a4.832 4.832 0 0 1-5.612-3.848l-22.785-120.767a4.541 4.541 0 0 1 0-1.814 4.484 4.484 0 0 1 2.01-2.904 4.52 4.52 0 0 1 1.703-.628l7.16-1.306a1.507 1.507 0 0 1 1.673.965 7.178 7.178 0 0 0 7.993 4.587l26.829-4.849a7.183 7.183 0 0 0 5.884-7.034c.001-.367.13-.723.367-1.005a1.54 1.54 0 0 1 .914-.502l5.642-1.04a5.458 5.458 0 0 1 5.582 2.427c.388.604.654 1.278.784 1.984l4.522 25.694"/><path fill="#9C7452" stroke="#000" stroke-miterlimit="10" stroke-width="1.507" d="M201.104 163.658c.829.165 1.638.406 2.437.632 4.522 1.307 9.044 2.648 13.565 3.955 5.085 1.477 9.099 8.234 4.889 12.716-5.19 5.481-17.082.698-22.835-1.336-3.015-1.04-5.627-2.588-6.697-5.793-1.473-4.487 1.276-10.049 6.29-10.381a9.38 9.38 0 0 1 2.351.207Z"/><path fill="#9C7452" stroke="#000" stroke-miterlimit="10" stroke-width="1.507" d="M201.104 180.262c.829.166 1.638.402 2.437.633 4.522 1.307 9.044 2.648 13.565 3.945 5.085 1.472 9.099 8.229 4.889 12.716-5.19 5.486-17.082.703-22.835-1.342-3.015-1.04-5.627-2.572-6.697-5.782-1.473-4.482 1.276-10.049 6.29-10.381.789-.011 1.577.06 2.351.211Z"/><path fill="#9C7452" d="m344.268 259.012-1.774-7.361c-.165-1.834-21.207-53.03-23.508-59.321-2.301-6.29-18.589-38.571-18.589-38.571a50.532 50.532 0 0 1-4.427-15.258s-1.432-10.375-1.864-16.751c-.165-2.572-3.823-4.285-6.23-3.416-3.175 1.1-5.853 3.341-7.33 7.857a12.024 12.024 0 0 0-.432 5.326l4.286 54.493c-14.46 35.672 13.349 52.387 13.349 52.387"/><path stroke="#000" stroke-miterlimit="10" stroke-width="1.507" d="m344.268 259.012-1.774-7.361c-.165-1.834-21.207-53.03-23.508-59.321-2.301-6.29-18.589-38.571-18.589-38.571a50.532 50.532 0 0 1-4.427-15.258s-1.432-10.375-1.864-16.751c-.165-2.572-3.823-4.285-6.23-3.416-3.175 1.1-5.853 3.341-7.33 7.857a12.024 12.024 0 0 0-.432 5.326l4.286 54.493c-14.46 35.672 13.349 52.387 13.349 52.387"/><path fill="#000" d="M255.4 128.604a4.444 4.444 0 0 0-1.879-1.603 4.377 4.377 0 0 0-5.723 2.2 4.41 4.41 0 0 0-.331 1.342l-5.959 1.005a2.367 2.367 0 0 0-.266-.467c-.106-.136-.196-.302-.302-.438l1.774-2.512a4.322 4.322 0 0 0 1.959.231 4.193 4.193 0 0 0 1.849-.668 4.31 4.31 0 0 0 1.914-4.391 4.583 4.583 0 0 0-.638-1.598 4.293 4.293 0 0 0-4.376-1.909 4.489 4.489 0 0 0-1.613.633 4.31 4.31 0 0 0-1.909 4.392c.107.573.321 1.12.633 1.612.086.126.176.252.272.372l-1.774 2.542a4.242 4.242 0 0 0-2.14-.175 4.548 4.548 0 0 0-1.608.642 4.346 4.346 0 0 0-1.598 1.87 4.194 4.194 0 0 0-.301 2.512c.122.698.414 1.355.849 1.914a4.292 4.292 0 0 0 1.653 1.291 4.204 4.204 0 0 0 2.512.377 4.387 4.387 0 0 0 3.215-2.512c.196-.422.308-.877.332-1.342l5.989-1.035c.069.165.157.322.261.468.087.127.178.247.272.361l-1.764 2.512a4.251 4.251 0 0 0-2.14-.165 4.494 4.494 0 0 0-1.608.633 4.4 4.4 0 0 0-1.598 1.879 4.265 4.265 0 0 0-.301 2.512 4.304 4.304 0 0 0 5.024 3.517 4.563 4.563 0 0 0 1.613-.633 4.398 4.398 0 0 0 1.608-1.879 4.324 4.324 0 0 0 .301-2.512 4.57 4.57 0 0 0-.643-1.608c-.096-.136-.201-.302-.302-.437l1.774-2.513a4.46 4.46 0 0 0 2.211.211 4.714 4.714 0 0 0 1.607-.642 4.389 4.389 0 0 0 1.603-1.87 4.233 4.233 0 0 0 .297-2.512 5.817 5.817 0 0 0-.749-1.607Zm-13.184-4.985c.088-.394.287-.754.573-1.039a1.861 1.861 0 0 1 1.035-.538c.336-.057.682-.03 1.005.08.314.1.6.272.834.503.239.236.412.531.502.854.088.329.088.676 0 1.005-.091.393-.29.752-.572 1.04a2.076 2.076 0 0 1-1.834.537 2.276 2.276 0 0 1-1.04-.558 2.162 2.162 0 0 1-.528-1.039 1.913 1.913 0 0 1 .025-.845Zm-2.677 10.275a1.988 1.988 0 0 1-2.588 1.422 2.048 2.048 0 0 1-.829-.503 2.09 2.09 0 0 1-.528-1.04 2.035 2.035 0 0 1 0-.808c.089-.372.289-.709.573-.965.281-.282.643-.47 1.035-.538a1.955 1.955 0 0 1 1.522.312 1.97 1.97 0 0 1 .784 2.095l.031.025Zm7.631 6.853a1.974 1.974 0 0 1-.573.975c-.236.238-.53.412-.854.502a1.964 1.964 0 0 1-1.004 0 2.219 2.219 0 0 1-1.035-.572 2.156 2.156 0 0 1-.543-1.036 2.195 2.195 0 0 1 0-.808c.074-.377.272-.719.563-.97a1.996 1.996 0 0 1 1.035-.537c.267-.046.541-.046.809 0 .391.094.75.292 1.04.572.27.29.457.648.542 1.035.056.277.063.561.02.839Zm6.532-9.345c-.08.372-.275.71-.558.965a1.954 1.954 0 0 1-1.04.542c-.327.049-.66.022-.975-.08a2.048 2.048 0 0 1-.829-.503 2.208 2.208 0 0 1-.542-1.039 2.381 2.381 0 0 1 0-.799 2.047 2.047 0 0 1 1.427-1.462 1.946 1.946 0 0 1 1.005 0c.39.097.749.294 1.04.572.27.29.456.648.537 1.035.04.26.026.525-.04.779l-.025-.01Z"/><path fill="#47FFB9" d="m259.042 166.24-16.61 3.014a6.49 6.49 0 0 1-7.191-4.023 6.492 6.492 0 0 1 2.539-7.839 6.486 6.486 0 0 1 2.361-.929l16.58-3.015a6.475 6.475 0 0 1 7.526 5.221 6.476 6.476 0 0 1-5.22 7.526l.015.045Z"/><path fill="#000" d="m259.042 166.24-.135-.669-16.605 3.015a6.599 6.599 0 0 1-1.04.1 5.798 5.798 0 0 1-3.683-1.336 5.713 5.713 0 0 1-2.009-3.446 5.13 5.13 0 0 1-.106-1.041 5.804 5.804 0 0 1 4.788-5.687l16.605-3.015a5.19 5.19 0 0 1 1.04-.105 5.805 5.805 0 0 1 3.683 1.341 5.734 5.734 0 0 1 2.01 3.447c.068.341.102.688.1 1.035a5.802 5.802 0 0 1-4.783 5.687l.135.669.136.673a7.135 7.135 0 0 0-1.276-14.158 8.253 8.253 0 0 0-1.266.095l-16.61 3.015a6.962 6.962 0 0 0-4.215 2.477 7.088 7.088 0 0 0-1.097 7.252 7.139 7.139 0 0 0 3.859 3.861 7.14 7.14 0 0 0 2.729.543 7.98 7.98 0 0 0 1.246-.065l16.61-3.015-.116-.673Z"/><path fill="#fff" d="M264.127 158.714a6.485 6.485 0 0 1-11.814 4.728 6.486 6.486 0 0 1 9.121-8.873 6.43 6.43 0 0 1 2.693 4.145Z"/><path fill="#000" d="m264.127 158.714-.673.135c.065.341.1.688.105 1.035a5.796 5.796 0 0 1-1.361 3.714 5.795 5.795 0 0 1-3.427 1.973 5.898 5.898 0 0 1-1.035.106 5.826 5.826 0 0 1-5.692-4.783 5.802 5.802 0 0 1 4.692-6.727c.342-.07.691-.106 1.04-.106a5.801 5.801 0 0 1 3.673 1.342 5.728 5.728 0 0 1 2.009 3.446l.674-.135.663-.136a7.13 7.13 0 0 0-7.034-5.853 8.388 8.388 0 0 0-1.276.1 6.978 6.978 0 0 0-4.215 2.472 7.112 7.112 0 0 0-.973 7.587 7.123 7.123 0 0 0 6.464 4.089c.424 0 .847-.03 1.266-.09a6.996 6.996 0 0 0 4.216-2.482 7.085 7.085 0 0 0 1.637-4.522 6.826 6.826 0 0 0-.105-1.276l-.648.111Z"/></svg>
