<svg xmlns="http://www.w3.org/2000/svg" width="132" height="152" fill="none" viewBox="0 0 132 152"><path fill="#fff" stroke="#000" stroke-linejoin="round" stroke-width="1.225" d="m59.88 151.194 18.928-9.351a68.475 68.475 0 0 0 38.14-61.769l-.271-51.617a6.102 6.102 0 0 0-3.83-5.628L59.079 1.212h-.777l-53.55 22.2a6.1 6.1 0 0 0-3.765 5.67l.273 51.621a68.504 68.504 0 0 0 38.807 61.357l19.03 9.152.782-.018Z"/><path fill="#47FFB9" stroke="#000" stroke-miterlimit="10" stroke-width="1.225" d="m60.617 135.877 15.114-7.469a54.671 54.671 0 0 0 30.455-49.323l-.236-44.49-45.688-18.386a1.575 1.575 0 0 0-1.192.006L13.574 35.08l.236 44.494a54.711 54.711 0 0 0 30.986 49.001l15.197 7.307.624-.005Z"/><path fill="#fff" stroke="#000" stroke-miterlimit="10" stroke-width="1.225" d="M59.88 44.21c-8.157 0-14.77 6.614-14.77 14.772v15.2h6.09v-15.2c0-4.786 3.894-8.68 8.68-8.68 4.787 0 8.68 3.894 8.68 8.68v15.2h6.092v-15.2c0-8.032-6.487-14.771-14.771-14.771Z"/><path fill="#fff" stroke="#000" stroke-width="1.225" d="M75.993 66.51H43.765a5.371 5.371 0 0 0-5.371 5.372V94.04a5.371 5.371 0 0 0 5.37 5.371h32.23a5.371 5.371 0 0 0 5.37-5.371V71.882a5.371 5.371 0 0 0-5.37-5.371Z"/><path fill="#47FFB9" stroke="#000" stroke-miterlimit="10" stroke-width="1.225" d="M64.517 79.87a4.644 4.644 0 0 1-2.167 3.92v3.283a2.48 2.48 0 0 1-4.198 1.699 2.478 2.478 0 0 1-.755-1.699V83.79a4.646 4.646 0 0 1-2.15-4.058 4.639 4.639 0 0 1 6.99-3.85 4.631 4.631 0 0 1 2.28 3.989Z"/><path stroke="#000" stroke-miterlimit="10" stroke-width="1.392" d="M130.923 16.672a3.066 3.066 0 1 0-5.969-1.407 3.066 3.066 0 0 0 5.969 1.407Z"/><path stroke="#000" stroke-linecap="round" stroke-miterlimit="10" stroke-width="1.392" d="M113.965 1.035v6.49M110.719 4.277h6.495"/></svg>
