<svg width="62" height="64" viewBox="0 0 62 64" fill="none" xmlns="http://www.w3.org/2000/svg">
<g id="Logo">
<path id="Vector" d="M59.7581 21.464C58.4031 18.2195 55.6931 14.7253 53.518 13.62C55.0512 16.5794 56.121 19.7526 56.6559 23.0328V23.0685C53.1614 14.3331 47.2065 10.8033 42.357 3.1376C42.1074 2.7454 41.8578 2.3532 41.6439 1.961C41.5012 1.71142 41.3942 1.49749 41.2873 1.31922C41.0733 0.927018 40.9307 0.499163 40.8237 0.106964C40.8237 0.0713091 40.7881 0.0356545 40.7524 0.0356545C40.7167 0.0356545 40.7167 0.0356545 40.6811 0.0356545C40.6811 0.0356545 40.6811 0.0356545 40.6454 0.0356545V0C32.872 4.56378 30.2333 13.0139 29.9837 17.2211C26.8815 17.4351 23.8862 18.576 21.4614 20.5014C21.2118 20.2874 20.9266 20.0735 20.677 19.8952C19.9638 17.4351 19.9282 14.7966 20.6057 12.3008C17.753 13.6913 15.1856 15.6523 13.1531 18.0768C11.9408 16.508 12.0121 11.3738 12.0834 10.3042C11.7268 10.4468 11.3702 10.625 11.0493 10.839C9.97958 11.6234 8.9455 12.4791 8.01839 13.4418C6.94865 14.5114 5.98589 15.688 5.1301 16.9359C3.06193 19.7883 1.63561 22.9972 0.886797 26.3487L0.851139 26.5626C0.779823 26.8479 0.565875 28.2027 0.530217 28.488C0.530217 28.5236 0.530217 28.5236 0.530217 28.5593C0.244954 29.9855 0.102322 31.4116 0.0310059 32.8378V32.9804C0.0310059 50.1303 13.9376 63.9999 31.0891 63.9642C46.1724 63.9642 59.0806 53.0896 61.648 38.2217C61.6836 37.8295 61.7549 37.4373 61.7906 37.0094C62.3968 31.7682 61.7193 26.42 59.7581 21.464ZM23.9932 45.7448C24.1358 45.8161 24.2784 45.8874 24.4211 45.9587H24.4567C24.3141 45.923 24.1358 45.8161 23.9932 45.7448Z" fill="url(#paint0_linear_10_117635)"/>
<path id="Vector_2" d="M59.7573 21.4641C58.4023 18.2196 55.6923 14.7254 53.5172 13.6201C55.0504 16.5794 56.1202 19.7527 56.6551 23.0329V23.0686V23.1042C59.0441 29.9499 58.6876 37.4373 55.6923 44.0334C52.1265 51.6635 43.5329 59.4718 30.0542 59.1153C15.5058 58.6874 2.66891 47.9198 0.279831 33.7649C-0.148064 31.5187 0.279831 30.4134 0.493779 28.595C0.208516 29.9855 0.0302258 31.4474 -0.00543213 32.8736V33.0162C-0.00543213 50.166 13.9012 64.0356 31.0526 64C46.136 64 59.0441 53.1253 61.6115 38.2574C61.6472 37.8652 61.7185 37.473 61.7541 37.0451C62.396 31.7683 61.7185 26.4201 59.7573 21.4641Z" fill="url(#paint1_radial_10_117635)"/>
<path id="Vector_3" d="M59.7573 21.4641C58.4023 18.2196 55.6923 14.7254 53.5172 13.6201C55.0504 16.5794 56.1202 19.7527 56.6551 23.0329V23.0686V23.1042C59.0441 29.9499 58.6876 37.4373 55.6923 44.0334C52.1265 51.6635 43.5329 59.4718 30.0542 59.1153C15.5058 58.6874 2.66891 47.9198 0.279831 33.7649C-0.148064 31.5187 0.279831 30.4134 0.493779 28.595C0.208516 29.9855 0.0302258 31.4474 -0.00543213 32.8736V33.0162C-0.00543213 50.166 13.9012 64.0356 31.0526 64C46.136 64 59.0441 53.1253 61.6115 38.2574C61.6472 37.8652 61.7185 37.473 61.7541 37.0451C62.396 31.7683 61.7185 26.4201 59.7573 21.4641Z" fill="url(#paint2_radial_10_117635)"/>
<path id="Vector_4" d="M44.6735 25.1367C44.7448 25.1723 44.8161 25.2436 44.8518 25.2793C44.0673 23.8888 43.1046 22.6409 41.9635 21.5356C32.3358 11.9088 39.4318 0.642006 40.6442 0.0715332C32.8707 4.56401 30.232 13.0141 29.9824 17.2214C30.339 17.1857 30.6956 17.1501 31.0878 17.1501C36.7218 17.1857 41.8922 20.2163 44.6735 25.1367Z" fill="url(#paint3_radial_10_117635)"/>
<path id="Vector_5" d="M31.1227 27.0619C31.0871 27.8463 28.3414 30.4847 27.3786 30.4847C18.5711 30.4847 17.1091 35.8329 17.1091 35.8329C17.5014 40.3253 20.6393 44.0334 24.419 45.9944C24.5973 46.1014 24.7756 46.1727 24.9539 46.244C25.2748 46.3866 25.5601 46.4936 25.881 46.6005C27.1647 47.064 28.5553 47.3136 29.9103 47.3849C45.3859 48.098 48.3812 28.8802 37.2202 23.3181C39.8589 22.9616 42.5333 23.639 44.7084 25.1365C41.9271 20.2518 36.7567 17.2212 31.1227 17.1855C30.7661 17.1855 30.4096 17.2212 30.0173 17.2569C26.9151 17.4708 23.9198 18.6117 21.4951 20.5371C21.9586 20.9293 22.4935 21.4641 23.6345 22.5694C25.7027 24.6373 31.0871 26.7766 31.1227 27.0619Z" fill="url(#paint4_radial_10_117635)"/>
<path id="Vector_6" d="M31.1227 27.0619C31.0871 27.8463 28.3414 30.4847 27.3786 30.4847C18.5711 30.4847 17.1091 35.8329 17.1091 35.8329C17.5014 40.3253 20.6393 44.0334 24.419 45.9944C24.5973 46.1014 24.7756 46.1727 24.9539 46.244C25.2748 46.3866 25.5601 46.4936 25.881 46.6005C27.1647 47.064 28.5553 47.3136 29.9103 47.3849C45.3859 48.098 48.3812 28.8802 37.2202 23.3181C39.8589 22.9616 42.5333 23.639 44.7084 25.1365C41.9271 20.2518 36.7567 17.2212 31.1227 17.1855C30.7661 17.1855 30.4096 17.2212 30.0173 17.2569C26.9151 17.4708 23.9198 18.6117 21.4951 20.5371C21.9586 20.9293 22.4935 21.4641 23.6345 22.5694C25.7027 24.6373 31.0871 26.7766 31.1227 27.0619Z" fill="url(#paint5_radial_10_117635)"/>
<path id="Vector_7" d="M19.9972 19.503C20.2468 19.6456 20.4608 19.7882 20.6391 19.9308C19.9259 17.4707 19.8902 14.8322 20.5677 12.3364C17.7151 13.727 15.1477 15.688 13.1152 18.1125C13.2579 18.1125 17.7508 18.0412 19.9972 19.503Z" fill="url(#paint6_radial_10_117635)"/>
<path id="Vector_8" d="M0.315212 33.7292C2.70429 47.8841 15.5412 58.6874 30.0896 59.0796C43.5683 59.4718 52.1619 51.6278 55.7277 43.9977C58.723 37.4016 59.0795 29.9142 56.6904 23.0685V23.0329C56.6904 22.9972 56.6904 22.9972 56.6904 22.9972V23.0329C57.7958 30.2351 54.1231 37.1877 48.4178 41.8941V41.9298C37.2925 50.986 26.6308 47.3849 24.4913 45.9231C24.3487 45.8518 24.206 45.7805 24.0278 45.7092C17.538 42.6072 14.8637 36.6886 15.4342 31.6256C12.2963 31.6613 9.40799 29.8429 8.08865 26.9905C11.5475 24.8512 15.8621 24.7086 19.4992 26.527C23.172 28.2028 27.3439 28.3454 31.1593 26.9905C31.1593 26.7409 25.7393 24.6017 23.6355 22.5337C22.4945 21.4284 21.9596 20.8936 21.496 20.5014C21.2464 20.2875 20.9612 20.0735 20.7116 19.8953C20.5333 19.7527 20.3193 19.6457 20.0697 19.4674C17.8233 18.0056 13.2947 18.0769 13.1521 18.0769C11.9397 16.5081 12.011 11.3738 12.0823 10.3042C11.7258 10.4468 11.3692 10.6251 11.0483 10.839C9.97852 11.6234 8.94444 12.4791 8.01733 13.4418C6.94759 14.5114 5.98483 15.688 5.09338 16.9003C3.06087 19.7883 1.63456 22.9972 0.885739 26.3487C0.885739 26.42 -0.219658 31.2334 0.315212 33.7292Z" fill="url(#paint7_radial_10_117635)"/>
<path id="Vector_9" d="M42.0002 21.4994C43.1412 22.6047 44.104 23.8883 44.8885 25.2788C45.0667 25.4214 45.2094 25.5284 45.352 25.671C52.3766 32.1601 48.7039 41.3234 48.4186 41.9651C54.1239 37.2587 57.7966 30.3061 56.6912 23.1039C53.1968 14.3685 47.2419 10.8387 42.3924 3.13735C42.1428 2.74515 41.8932 2.35295 41.6792 1.96075C41.5366 1.71116 41.4296 1.49724 41.3227 1.31896C41.1087 0.926764 40.9661 0.498909 40.8591 0.106709C40.8591 0.0710549 40.8234 0.0354004 40.7878 0.0354004C40.7521 0.0354004 40.7521 0.0354004 40.7165 0.0354004C40.7165 0.0354004 40.7165 0.0354004 40.6808 0.0354004C39.4684 0.605873 32.3369 11.8727 42.0002 21.4994Z" fill="url(#paint8_radial_10_117635)"/>
<path id="Vector_10" d="M45.3503 25.6357C45.2076 25.5288 45.065 25.3862 44.8867 25.2435C44.8154 25.2079 44.7441 25.1366 44.7084 25.1009C42.5333 23.6034 39.859 22.926 37.2203 23.2825C48.3812 28.8447 45.3859 48.0624 29.9104 47.3494C28.5197 47.278 27.1647 47.0285 25.881 46.565C25.5601 46.458 25.2749 46.3154 24.9539 46.2084C24.7756 46.1371 24.5974 46.0658 24.4191 45.9588H24.4547C26.5942 47.4207 37.2559 51.0218 48.3812 41.9655V41.9299C48.7021 41.2881 52.3749 32.1249 45.3503 25.6357Z" fill="url(#paint9_radial_10_117635)"/>
<path id="Vector_11" d="M17.109 35.797C17.109 35.797 18.5353 30.4489 27.3785 30.4489C28.3413 30.4489 31.0513 27.7748 31.1226 27.026C27.3428 28.4165 23.1352 28.2383 19.4624 26.5625C15.8253 24.7085 11.5107 24.8867 8.05188 27.026C9.37122 29.8784 12.2595 31.6968 15.3974 31.6611C14.8269 36.7241 17.5012 42.6427 23.991 45.7446C24.1336 45.816 24.2762 45.8873 24.4189 45.9586C20.6391 43.9976 17.5012 40.2895 17.109 35.797Z" fill="url(#paint10_radial_10_117635)"/>
<path id="Vector_12" d="M59.7581 21.464C58.4031 18.2195 55.6931 14.7253 53.518 13.62C55.0512 16.5794 56.121 19.7526 56.6559 23.0328V23.0685C53.1614 14.3331 47.2065 10.8033 42.357 3.1376C42.1074 2.7454 41.8578 2.3532 41.6439 1.961C41.5012 1.71142 41.3942 1.49749 41.2873 1.31922C41.0733 0.927018 40.9307 0.499163 40.8237 0.106964C40.8237 0.0713091 40.7881 0.0356545 40.7524 0.0356545C40.7167 0.0356545 40.7167 0.0356545 40.6811 0.0356545C40.6811 0.0356545 40.6811 0.0356545 40.6454 0.0356545V0C32.872 4.56378 30.2333 13.0139 29.9837 17.2211C30.3403 17.1855 30.6969 17.1498 31.0891 17.1498C36.7231 17.1498 41.8935 20.1805 44.6748 25.1008C42.4996 23.6033 39.8253 22.9259 37.1866 23.2824C48.3475 28.8445 45.3523 48.0623 29.8767 47.3492C28.4861 47.2779 27.1311 47.0283 25.8474 46.5648C25.5265 46.4579 25.2412 46.3152 24.9203 46.2083C24.742 46.137 24.5637 46.0657 24.3854 45.9587H24.4211C24.2784 45.8874 24.1358 45.8161 23.9575 45.7448C24.1001 45.8161 24.2428 45.8874 24.3854 45.9587C20.6413 43.9977 17.5034 40.2896 17.1112 35.7971C17.1112 35.7971 18.5375 30.449 27.3807 30.449C28.3434 30.449 31.0534 27.7749 31.1248 27.0261C31.1248 26.7766 25.7047 24.6373 23.6009 22.5693C22.4599 21.464 21.925 20.9292 21.4614 20.537C21.2118 20.3231 20.9266 20.1092 20.677 19.9309C19.9638 17.4707 19.9282 14.8323 20.6057 12.3365C17.753 13.727 15.1856 15.688 13.1531 18.1125C11.9408 16.5437 12.0121 11.4094 12.0834 10.3398C11.7268 10.4824 11.3702 10.6607 11.0493 10.8746C9.97958 11.659 8.9455 12.5147 8.01839 13.4774C6.94865 14.547 5.98589 15.7236 5.1301 16.9716C3.06193 19.7883 1.63561 22.9972 0.886797 26.3487L0.851139 26.5626C0.779823 26.8479 0.530217 28.2384 0.494559 28.5236C0.494559 28.488 0.494559 28.5593 0.494559 28.5236C0.244954 29.9498 0.102322 31.4116 0.0310059 32.8378V32.9804C0.0310059 50.1303 13.9376 63.9999 31.0891 63.9642C46.1724 63.9642 59.0806 53.0896 61.648 38.2217C61.6836 37.8295 61.7549 37.4373 61.7906 37.0094C62.3968 31.7682 61.7193 26.42 59.7581 21.464Z" fill="url(#paint11_linear_10_117635)"/>
</g>
<defs>
<linearGradient id="paint0_linear_10_117635" x1="55.6483" y1="9.91182" x2="4.15172" y2="59.601" gradientUnits="userSpaceOnUse">
<stop offset="0.048" stop-color="#FFF44F"/>
<stop offset="0.111" stop-color="#FFE847"/>
<stop offset="0.225" stop-color="#FFC830"/>
<stop offset="0.368" stop-color="#FF980E"/>
<stop offset="0.401" stop-color="#FF8B16"/>
<stop offset="0.462" stop-color="#FF672A"/>
<stop offset="0.534" stop-color="#FF3647"/>
<stop offset="0.705" stop-color="#E31587"/>
</linearGradient>
<radialGradient id="paint1_radial_10_117635" cx="0" cy="0" r="1" gradientUnits="userSpaceOnUse" gradientTransform="translate(53.2718 7.10351) scale(64.6754 64.6692)">
<stop offset="0.129" stop-color="#FFBD4F"/>
<stop offset="0.186" stop-color="#FFAC31"/>
<stop offset="0.247" stop-color="#FF9D17"/>
<stop offset="0.283" stop-color="#FF980E"/>
<stop offset="0.403" stop-color="#FF563B"/>
<stop offset="0.467" stop-color="#FF3750"/>
<stop offset="0.71" stop-color="#F5156C"/>
<stop offset="0.782" stop-color="#EB0878"/>
<stop offset="0.86" stop-color="#E50080"/>
</radialGradient>
<radialGradient id="paint2_radial_10_117635" cx="0" cy="0" r="1" gradientUnits="userSpaceOnUse" gradientTransform="translate(29.6389 33.5422) scale(64.6754 64.6692)">
<stop offset="0.3" stop-color="#960E18"/>
<stop offset="0.351" stop-color="#B11927" stop-opacity="0.74"/>
<stop offset="0.435" stop-color="#DB293D" stop-opacity="0.343"/>
<stop offset="0.497" stop-color="#F5334B" stop-opacity="0.094"/>
<stop offset="0.53" stop-color="#FF3750" stop-opacity="0"/>
</radialGradient>
<radialGradient id="paint3_radial_10_117635" cx="0" cy="0" r="1" gradientUnits="userSpaceOnUse" gradientTransform="translate(37.4359 -7.57216) scale(46.8528 46.8484)">
<stop offset="0.132" stop-color="#FFF44F"/>
<stop offset="0.252" stop-color="#FFDC3E"/>
<stop offset="0.506" stop-color="#FF9D12"/>
<stop offset="0.526" stop-color="#FF980E"/>
</radialGradient>
<radialGradient id="paint4_radial_10_117635" cx="0" cy="0" r="1" gradientUnits="userSpaceOnUse" gradientTransform="translate(22.4838 50.4342) scale(30.7948 30.7919)">
<stop offset="0.353" stop-color="#3A8EE6"/>
<stop offset="0.472" stop-color="#5C79F0"/>
<stop offset="0.669" stop-color="#9059FF"/>
<stop offset="1" stop-color="#C139E6"/>
</radialGradient>
<radialGradient id="paint5_radial_10_117635" cx="0" cy="0" r="1" gradientUnits="userSpaceOnUse" gradientTransform="translate(33.1716 28.242) rotate(-13.5903) scale(16.3271 19.1134)">
<stop offset="0.206" stop-color="#9059FF" stop-opacity="0"/>
<stop offset="0.278" stop-color="#8C4FF3" stop-opacity="0.064"/>
<stop offset="0.747" stop-color="#7716A8" stop-opacity="0.45"/>
<stop offset="0.975" stop-color="#6E008B" stop-opacity="0.6"/>
</radialGradient>
<radialGradient id="paint6_radial_10_117635" cx="0" cy="0" r="1" gradientUnits="userSpaceOnUse" gradientTransform="translate(28.8208 4.45749) scale(22.1538 22.1516)">
<stop stop-color="#FFE226"/>
<stop offset="0.121" stop-color="#FFDB27"/>
<stop offset="0.295" stop-color="#FFC82A"/>
<stop offset="0.502" stop-color="#FFA930"/>
<stop offset="0.732" stop-color="#FF7E37"/>
<stop offset="0.792" stop-color="#FF7139"/>
</radialGradient>
<radialGradient id="paint7_radial_10_117635" cx="0" cy="0" r="1" gradientUnits="userSpaceOnUse" gradientTransform="translate(46.2354 -9.59288) scale(94.5201 94.511)">
<stop offset="0.113" stop-color="#FFF44F"/>
<stop offset="0.456" stop-color="#FF980E"/>
<stop offset="0.622" stop-color="#FF5634"/>
<stop offset="0.716" stop-color="#FF3647"/>
<stop offset="0.904" stop-color="#E31587"/>
</radialGradient>
<radialGradient id="paint8_radial_10_117635" cx="0" cy="0" r="1" gradientUnits="userSpaceOnUse" gradientTransform="translate(38.2698 -4.33771) rotate(83.9754) scale(69.2695 45.4652)">
<stop stop-color="#FFF44F"/>
<stop offset="0.06" stop-color="#FFE847"/>
<stop offset="0.168" stop-color="#FFC830"/>
<stop offset="0.304" stop-color="#FF980E"/>
<stop offset="0.356" stop-color="#FF8B16"/>
<stop offset="0.455" stop-color="#FF672A"/>
<stop offset="0.57" stop-color="#FF3647"/>
<stop offset="0.737" stop-color="#E31587"/>
</radialGradient>
<radialGradient id="paint9_radial_10_117635" cx="0" cy="0" r="1" gradientUnits="userSpaceOnUse" gradientTransform="translate(28.2993 12.6627) scale(59.0105 59.0049)">
<stop offset="0.137" stop-color="#FFF44F"/>
<stop offset="0.48" stop-color="#FF980E"/>
<stop offset="0.592" stop-color="#FF5634"/>
<stop offset="0.655" stop-color="#FF3647"/>
<stop offset="0.904" stop-color="#E31587"/>
</radialGradient>
<radialGradient id="paint10_radial_10_117635" cx="0" cy="0" r="1" gradientUnits="userSpaceOnUse" gradientTransform="translate(43.8763 16.1155) scale(64.5866 64.5804)">
<stop offset="0.094" stop-color="#FFF44F"/>
<stop offset="0.231" stop-color="#FFE141"/>
<stop offset="0.509" stop-color="#FFAF1E"/>
<stop offset="0.626" stop-color="#FF980E"/>
</radialGradient>
<linearGradient id="paint11_linear_10_117635" x1="55.0302" y1="9.64683" x2="11.2119" y2="53.4685" gradientUnits="userSpaceOnUse">
<stop offset="0.167" stop-color="#FFF44F" stop-opacity="0.8"/>
<stop offset="0.266" stop-color="#FFF44F" stop-opacity="0.634"/>
<stop offset="0.489" stop-color="#FFF44F" stop-opacity="0.217"/>
<stop offset="0.6" stop-color="#FFF44F" stop-opacity="0"/>
</linearGradient>
</defs>
</svg>
