<svg xmlns="http://www.w3.org/2000/svg" xml:space="preserve" viewBox="0 0 381 80" width="381" height="80"><path fill="#20123a" d="M97.25 23.72h21.42v5.79h-15.28v7.85h15.28v5.75h-15.28v12.61h-6.14v-32zm28.7-2.23c1.9-.07 3.49 1.42 3.56 3.31v.28c.1 1.89-1.36 3.5-3.25 3.6-.12.01-.23.01-.35 0-1.87.09-3.46-1.35-3.55-3.22 0-.1-.01-.19 0-.29-.07-1.96 1.46-3.61 3.42-3.68h.17m-3 10.57h6v23.66h-6V32.06zm23.61 6.58c-.84-.67-1.87-1.04-2.94-1.06-2.46 0-3.86 1.58-3.86 5v13.14h-6V32.06h5.75v3.42c.88-2.33 3.18-3.81 5.67-3.64 1.43 0 2.82.43 4 1.23l-2.62 5.57zm2.5 5.39c-.19-6.69 5.08-12.27 11.77-12.46.14 0 .28-.01.42 0 7.11 0 12.16 5 12.16 12.07v2.5h-18.44c.66 3 3 4.95 6.54 4.95 2.48.08 4.77-1.29 5.88-3.51l5.05 3c-2.51 3.68-6.06 5.61-11.11 5.61-7.68 0-12.29-5.13-12.29-12.19m6-2.68h12.47c-.66-3-3.12-4.69-6.32-4.69-2.9-.11-5.48 1.86-6.15 4.69m19.84-9.29h4.26v-1.16c0-6.45 2.72-9.12 8.69-9.12h2.11v5.22h-1.69c-2.81 0-3.43 1-3.43 3.9v1.19h5.14v5.43h-5v18.23h-5.8V37.49h-4.26l-.02-5.46zm16.2 11.84c-.11-6.7 5.24-12.22 11.95-12.33h.43c6.81-.19 12.48 5.17 12.68 11.97.19 6.81-5.17 12.48-11.97 12.68-.23.01-.47.01-.7 0-6.62.21-12.17-4.99-12.38-11.61-.01-.24-.01-.47-.01-.71m18.87 0c-.12-3.59-3.12-6.4-6.71-6.29-3.59.12-6.4 3.12-6.29 6.71.11 3.51 2.99 6.29 6.5 6.29 3.59 0 6.5-2.92 6.49-6.51.02-.06.02-.13.01-.2m14-.26-8.5-11.55h7.11l5.05 7.28 5.18-7.28h7l-8.7 11.53 9.16 12.13h-7.06L227.53 48l-5.54 7.72h-7.07l9.03-12.11zm32.04 12.11h3.72V41.91h16.54v-3.5h-16.54V27.26h16.54V23.8h-20.26v31.92zm36.48-24.11c-6.79.08-12.24 5.65-12.16 12.44.08 6.79 5.65 12.24 12.44 12.16 6.74-.08 12.16-5.56 12.16-12.3.05-6.74-5.37-12.25-12.12-12.3h-.32m0 21.18c-4.75.06-8.66-3.74-8.72-8.49v-.39c0-4.83 3.91-8.74 8.74-8.74s8.74 3.91 8.74 8.74c.13 4.77-3.63 8.74-8.4 8.88h-.36m28.51 0c-4.9.03-8.91-3.92-8.94-8.82v-.1c-.09-4.84 3.77-8.84 8.61-8.93h.19c3.49-.07 6.67 2.02 8 5.25l3.32-1.44c-1.96-4.46-6.42-7.3-11.29-7.18-6.79-.19-12.45 5.15-12.65 11.94-.19 6.79 5.15 12.45 11.94 12.65.23.01.47.01.7 0 4.97.12 9.49-2.84 11.38-7.44l-3.36-1.4c-1.28 3.3-4.46 5.48-8 5.47m32.72-7.66c0 4.55-3.14 7.75-7.35 7.75-4.6 0-7-3-7-7.57V32.12h-3.67v13.42c0 6.65 3.54 10.68 10 10.68 3.28.09 6.35-1.58 8.06-4.38v3.88h3.54v-23.6h-3.63l.05 13.01zm18.46-3.1c-3.71-.74-6.59-1.23-6.59-3.68 0-2.18 1.5-3.76 5.18-3.76 2.6-.1 5.08 1.1 6.6 3.21l3-2c-2.34-2.83-5.89-4.39-9.56-4.2-5.67 0-8.9 3.19-8.9 6.87 0 4.72 4.38 5.82 8.5 6.6 3.5.7 6.77 1.23 6.77 3.85 0 2.37-1.95 4.11-5.66 4.11-3.06.13-5.98-1.32-7.71-3.85l-3.14 2.11c2.12 3 5.53 4.94 10.76 4.94 6.24 0 9.43-3.63 9.43-7.35 0-4.86-4.52-6-8.64-6.78"/><linearGradient id="a" x1="74.2531" x2="7.6204" y1="61.1487" y2="19.1755" gradientTransform="matrix(1 0 0 -1 0 82)" gradientUnits="userSpaceOnUse"><stop offset="0" stop-color="#9658f9"/><stop offset=".13" stop-color="#9356f4"/><stop offset=".29" stop-color="#8951e5"/><stop offset=".46" stop-color="#7a49cd"/><stop offset=".64" stop-color="#643dab"/><stop offset=".82" stop-color="#492e81"/><stop offset="1" stop-color="#291d4f"/></linearGradient><path fill="url(#a)" d="M75.36 27.1c-1.67-4.02-5.06-8.37-7.73-9.75 2.17 4.25 3.42 8.51 3.9 11.69v.06C67.18 18.25 59.79 13.87 53.76 4.34c-.31-.48-.61-.97-.91-1.48-.17-.29-.31-.55-.42-.8-.25-.48-.44-.99-.57-1.52 0-.02-.01-.05-.02-.07-.02-.02-.04-.03-.06-.03-.02-.01-.05-.01-.07 0l-.02.01c-.01 0-.02.01-.03.01l.01-.02C41.98 6.12 38.7 16.6 38.4 21.84c-3.86.26-7.56 1.69-10.6 4.08-.32-.27-.65-.52-1-.75-.88-3.07-.91-6.32-.11-9.41-3.96 1.8-7.03 4.65-9.27 7.16h.01c-1.53-1.93-1.42-8.31-1.33-9.64-.02-.08-1.14.58-1.28.68-1.35.96-2.61 2.04-3.76 3.23-1.32 1.34-2.52 2.78-3.6 4.31-2.48 3.51-4.24 7.48-5.18 11.67-.02.08-.03.17-.05.25-.07.34-.33 2.03-.38 2.4v.08c-.34 1.75-.55 3.53-.63 5.31v.2c0 21.27 17.24 38.51 38.51 38.51 19.05 0 34.86-13.83 37.96-31.99.07-.49.12-.99.18-1.48.75-6.61-.11-13.55-2.51-19.35zM30.97 57.24c.18.09.35.18.53.26l.03.02c-.19-.09-.37-.19-.56-.28zm40.58-28.13v-.04.04z"/><radialGradient id="b" cx="-204.934" cy="446.4482" r="1.3247" gradientTransform="matrix(-23.5301 55.8694 59 24.8486 -31097.8945 369.0178)" gradientUnits="userSpaceOnUse"><stop offset="0" stop-color="#9658f9"/><stop offset=".65" stop-color="#291d4f"/></radialGradient><path fill="url(#b)" d="M75.36 27.1c-1.67-4.02-5.06-8.37-7.73-9.75 2.17 4.25 3.42 8.51 3.9 11.69v.08c3.63 9.85 1.65 19.87-1.2 25.99-4.41 9.47-15.1 19.18-31.81 18.7-18.07-.52-33.98-13.92-36.95-31.48-.55-2.77 0-4.18.27-6.42-.33 1.73-.46 2.23-.63 5.31v.2c0 21.27 17.24 38.5 38.51 38.5 19.05 0 34.86-13.83 37.96-31.99.07-.49.12-.99.18-1.48.76-6.61-.1-13.55-2.5-19.35z"/><radialGradient id="c" cx="-205.3461" cy="434.8644" r="1.3247" gradientTransform="matrix(60.5531 0 0 -60.5531 12480.6006 26382.1484)" gradientUnits="userSpaceOnUse"><stop offset=".25" stop-color="#ab71ff" stop-opacity="0"/><stop offset=".42" stop-color="#9462e0" stop-opacity=".18"/><stop offset=".73" stop-color="#573b8d" stop-opacity=".65"/><stop offset=".94" stop-color="#291d4f"/></radialGradient><path fill="url(#c)" d="M75.36 27.1c-1.67-4.02-5.06-8.37-7.73-9.75 2.17 4.25 3.42 8.51 3.9 11.69v.08c3.63 9.85 1.65 19.87-1.2 25.99-4.41 9.47-15.1 19.18-31.81 18.7-18.07-.52-33.98-13.92-36.95-31.48-.55-2.77 0-4.18.27-6.42-.33 1.73-.46 2.23-.63 5.31v.2c0 21.27 17.24 38.5 38.51 38.5 19.05 0 34.86-13.83 37.96-31.99.07-.49.12-.99.18-1.48.76-6.61-.1-13.55-2.5-19.35z"/><radialGradient id="d" cx="-203.8914" cy="432.798" r="1.3247" gradientTransform="matrix(43.7736 0 0 -43.7736 8980.9863 18943.8984)" gradientUnits="userSpaceOnUse"><stop offset=".18" stop-color="#9658f9"/><stop offset=".33" stop-color="#7e48ea"/><stop offset=".37" stop-color="#7542e5"/><stop offset=".41" stop-color="#6a3dd0"/><stop offset=".48" stop-color="#5332a2"/><stop offset=".56" stop-color="#41297e"/><stop offset=".63" stop-color="#342264"/><stop offset=".69" stop-color="#2c1e54"/><stop offset=".74" stop-color="#291d4f"/></radialGradient><path fill="url(#d)" d="m56.65 31.62.24.18c-.97-1.72-2.17-3.29-3.57-4.67C41.34 15.16 50.17 1.17 51.67.47l.01-.02C42.01 6.12 38.72 16.6 38.42 21.84c.45-.03.9-.07 1.35-.07 7.22 0 13.51 3.97 16.88 9.85z"/><radialGradient id="e" cx="-201.4824" cy="428.0449" r="1.3247" gradientTransform="matrix(28.8575 0 0 -28.8575 5842.9316 12411.5439)" gradientUnits="userSpaceOnUse"><stop offset=".07" stop-color="#9358fc"/><stop offset=".13" stop-color="#9857f8"/><stop offset=".21" stop-color="#a755eb"/><stop offset=".3" stop-color="#bf52d7"/><stop offset=".39" stop-color="#e14eba"/><stop offset=".42" stop-color="#ef4caf"/><stop offset=".74" stop-color="#ff7583"/><stop offset=".97" stop-color="#ffb753"/></radialGradient><path fill="url(#e)" d="M39.87 34.01c-.06.96-3.45 4.26-4.63 4.26-10.95 0-12.73 6.62-12.73 6.62.48 5.58 4.37 10.17 9.07 12.6.21.11.43.21.65.31.38.17.75.32 1.13.46 1.61.57 3.3.9 5.01.97 19.2.9 22.91-22.95 9.06-29.87 3.55-.62 7.23.81 9.29 2.25-3.37-5.88-9.65-9.85-16.87-9.85-.46 0-.91.04-1.35.07-3.86.26-7.56 1.69-10.6 4.08.59.5 1.25 1.16 2.65 2.54 2.61 2.58 9.31 5.25 9.32 5.56z"/><radialGradient id="f" cx="-200.8496" cy="418.2241" r="1.3247" gradientTransform="matrix(14.8399 -3.6717 -4.3134 -17.4334 4822.4209 6585.4404)" gradientUnits="userSpaceOnUse"><stop offset=".22" stop-color="#ffb653" stop-opacity=".3"/><stop offset=".34" stop-color="#ff807a" stop-opacity=".5"/><stop offset=".44" stop-color="#ff7781" stop-opacity=".48"/><stop offset=".57" stop-color="#ff5c94" stop-opacity=".43"/><stop offset=".64" stop-color="#ff4aa2" stop-opacity=".4"/><stop offset=".86" stop-color="#9658f9" stop-opacity=".3"/></radialGradient><path fill="url(#f)" d="M39.87 34.01c-.06.96-3.45 4.26-4.63 4.26-10.95 0-12.73 6.62-12.73 6.62.48 5.58 4.37 10.17 9.07 12.6.21.11.43.21.65.31.38.17.75.32 1.13.46 1.61.57 3.3.9 5.01.97 19.2.9 22.91-22.95 9.06-29.87 3.55-.62 7.23.81 9.29 2.25-3.37-5.88-9.65-9.85-16.87-9.85-.46 0-.91.04-1.35.07-3.86.26-7.56 1.69-10.6 4.08.59.5 1.25 1.16 2.65 2.54 2.61 2.58 9.31 5.25 9.32 5.56z"/><radialGradient id="g" cx="-198.346" cy="423.5159" r="1.3247" gradientTransform="matrix(20.7439 0 0 -20.7439 4159.7134 8799.0635)" gradientUnits="userSpaceOnUse"><stop offset=".03" stop-color="#9658f9"/><stop offset=".62" stop-color="#7542e5"/><stop offset=".72" stop-color="#6339c2"/><stop offset=".93" stop-color="#37246b"/><stop offset="1" stop-color="#291d4f"/></radialGradient><path fill="url(#g)" d="M26.02 24.64c.31.2.57.37.8.53-.88-3.07-.91-6.32-.11-9.41-3.96 1.8-7.03 4.65-9.27 7.16.19.01 5.77-.11 8.58 1.72z"/><radialGradient id="h" cx="-205.5179" cy="445.4245" r="1.3247" gradientTransform="matrix(-18.9321 82.9278 65.0914 14.8601 -32834.5781 10404.4102)" gradientUnits="userSpaceOnUse"><stop offset=".2" stop-color="#ab71ff"/><stop offset=".29" stop-color="#a46bfc"/><stop offset=".41" stop-color="#9059f2"/><stop offset=".54" stop-color="#7542e5"/><stop offset=".64" stop-color="#6239bf"/><stop offset=".94" stop-color="#291d4f"/></radialGradient><path fill="url(#h)" d="M1.57 42.33C4.54 59.88 20.46 73.3 38.53 73.81c16.72.47 27.41-9.23 31.81-18.7 2.85-6.12 4.83-16.14 1.2-25.99v-.08.06c1.37 8.92-3.17 17.55-10.26 23.4l-.02.05c-13.82 11.25-27.04 6.79-29.72 4.96-.18-.09-.37-.18-.56-.28-8.06-3.85-11.39-11.19-10.67-17.49-6.8 0-9.12-5.74-9.12-5.74s6.11-4.36 14.16-.57c7.46 3.51 14.46.57 14.46.57-.01-.31-6.72-2.98-9.32-5.55-1.4-1.37-2.06-2.04-2.65-2.54-.32-.27-.65-.52-1-.75-.23-.16-.49-.33-.8-.53-2.81-1.83-8.39-1.72-8.58-1.72h-.01c-1.53-1.93-1.42-8.31-1.33-9.64-.02-.08-1.14.58-1.28.68-1.35.96-2.61 2.04-3.76 3.23-1.32 1.34-2.52 2.78-3.6 4.31C5 25 3.24 28.96 2.3 33.16c-.04.09-1.41 6.07-.73 9.17z"/><radialGradient id="i" cx="-203.071" cy="445.302" r="1.3247" gradientTransform="matrix(6.8048 64.4667 42.375 -4.4729 -17435.8691 15097.9883)" gradientUnits="userSpaceOnUse"><stop offset=".09" stop-color="#9658f9"/><stop offset=".14" stop-color="#8c51f3"/><stop offset=".26" stop-color="#7542e5"/><stop offset=".29" stop-color="#6e3ed6"/><stop offset=".4" stop-color="#5533a6"/><stop offset=".5" stop-color="#422980"/><stop offset=".59" stop-color="#342365"/><stop offset=".67" stop-color="#2c1e55"/><stop offset=".74" stop-color="#291d4f"/></radialGradient><path fill="url(#i)" d="M53.31 27.13c1.4 1.38 2.61 2.95 3.57 4.67.21.16.41.32.58.47 8.73 8.04 4.16 19.42 3.82 20.23 7.09-5.85 11.63-14.48 10.26-23.4C67.19 18.25 59.8 13.87 53.78 4.34c-.31-.48-.61-.97-.91-1.48-.17-.29-.31-.55-.42-.8-.25-.48-.44-.99-.57-1.52 0-.02-.01-.05-.02-.07-.02-.02-.04-.03-.06-.03-.02-.01-.05-.01-.07 0l-.02.01c-.01 0-.02.01-.03.01-1.51.72-10.34 14.7 1.63 26.67z"/><radialGradient id="j" cx="-205.0026" cy="434.39" r="1.3247" gradientTransform="matrix(55.2472 0 0 -55.2472 11370.4141 24022.7012)" gradientUnits="userSpaceOnUse"><stop offset="0" stop-color="#9658f9"/><stop offset=".12" stop-color="#9155f6"/><stop offset=".25" stop-color="#834cee"/><stop offset=".34" stop-color="#7542e5"/><stop offset=".78" stop-color="#291d4f"/></radialGradient><path fill="url(#j)" d="M57.47 32.27c-.17-.15-.37-.31-.58-.47l-.24-.18c-2.05-1.44-5.74-2.87-9.29-2.25 13.85 6.93 10.13 30.77-9.06 29.87-1.71-.07-3.4-.39-5.01-.97-.38-.14-.75-.3-1.13-.46-.22-.1-.44-.2-.65-.31l.03.02c2.68 1.83 15.91 6.29 29.72-4.96l.02-.05c.34-.82 4.91-12.2-3.81-20.24z"/><radialGradient id="k" cx="-205.2617" cy="434.9309" r="1.3247" gradientTransform="matrix(60.3433 0 0 -60.3433 12450.085 26273.3105)" gradientUnits="userSpaceOnUse"><stop offset=".19" stop-color="#9658f9"/><stop offset=".49" stop-color="#834bed"/><stop offset=".66" stop-color="#7542e5"/><stop offset=".7" stop-color="#6b3dd2"/><stop offset=".79" stop-color="#52319f"/><stop offset=".91" stop-color="#291d4f"/></radialGradient><path fill="url(#k)" d="M22.44 44.9s1.78-6.62 12.73-6.62c1.18 0 4.57-3.3 4.63-4.26 0 0-7 2.94-14.46-.57-8.04-3.79-14.16.57-14.16.57s2.32 5.74 9.12 5.74c-.71 6.29 2.61 13.64 10.67 17.49.18.09.35.18.53.26-4.7-2.44-8.58-7.03-9.06-12.61z"/><linearGradient id="l" x1="69.491" x2="15.0983" y1="69.5751" y2="15.1825" gradientTransform="matrix(1 0 0 -1 0 82)" gradientUnits="userSpaceOnUse"><stop offset="0" stop-color="#9059ff" stop-opacity=".9"/><stop offset=".61" stop-color="#291d4f" stop-opacity="0"/></linearGradient><path fill="url(#l)" d="M75.36 27.1c-1.67-4.02-5.06-8.37-7.73-9.75 2.17 4.25 3.42 8.51 3.9 11.69v.06C67.18 18.25 59.79 13.87 53.76 4.34c-.31-.48-.61-.97-.91-1.48-.17-.29-.31-.55-.42-.8-.25-.48-.44-.99-.57-1.52 0-.02-.01-.05-.02-.07-.02-.02-.04-.03-.06-.03-.02-.01-.05-.01-.07 0l-.02.01c-.01 0-.02.01-.03.01l.01-.02C41.99 6.12 38.7 16.6 38.4 21.84c.45-.03.9-.07 1.35-.07 7.22 0 13.51 3.97 16.87 9.85-2.05-1.44-5.74-2.87-9.29-2.25 13.85 6.93 10.13 30.77-9.06 29.87-1.71-.07-3.4-.39-5.01-.97-.38-.14-.75-.3-1.13-.46-.22-.1-.44-.2-.65-.31l.03.02c-.18-.09-.37-.18-.56-.28.18.09.35.18.53.26-4.7-2.43-8.59-7.02-9.07-12.6 0 0 1.78-6.62 12.73-6.62 1.18 0 4.57-3.3 4.63-4.26-.01-.31-6.72-2.98-9.32-5.55-1.4-1.37-2.06-2.04-2.65-2.54-.32-.27-.65-.52-1-.75-.88-3.07-.91-6.32-.11-9.41-3.96 1.8-7.03 4.65-9.27 7.16-1.53-1.93-1.42-8.31-1.33-9.64-.02-.08-1.14.58-1.28.68-1.35.96-2.61 2.04-3.76 3.23-1.32 1.34-2.52 2.78-3.6 4.31-2.48 3.51-4.24 7.48-5.18 11.67-.02.08-.03.17-.05.25-.07.34-.4 2.06-.44 2.43-.3 1.78-.49 3.57-.57 5.37v.2c0 21.27 17.24 38.51 38.51 38.51 19.05 0 34.86-13.83 37.96-31.99.07-.49.12-.99.18-1.48.76-6.63-.1-13.57-2.5-19.37zm-3.81 1.97v.04-.04z"/></svg>
