<svg version="1.1" id="Layer_1" xmlns="http://www.w3.org/2000/svg" x="0" y="0" width="1307.34" height="239.45" viewBox="0 0 1307.34 239.45" xml:space="preserve"><style>.st0{fill:#fff}</style><path class="st0" d="M228.18 80.84a64.734 64.734 0 00-23.28-29.15c5.71 10.97 9.68 22.77 11.75 34.97v.19c-13.14-32.45-35.37-45.59-53.55-74.06-.92-1.44-1.84-2.88-2.74-4.41-.49-.89-.9-1.7-1.25-2.4-.75-1.45-1.34-2.98-1.74-4.56a.297.297 0 00-.26-.31.41.41 0 00-.22 0h-.05l-.08.05.05-.06a84.114 84.114 0 00-39.27 58.13 62.55 62.55 0 00-22.99 5.74 2.952 2.952 0 002.48 5.35c7.38-3.47 15.43-5.3 23.59-5.36 5.59-.03 11.16.73 16.54 2.27.87.25 1.68.59 2.53.89 1.63.54 3.26 1.1 4.81 1.78 1.15.51 2.24 1.12 3.35 1.7 1.26.66 2.53 1.29 3.71 2.03a59.063 59.063 0 0120.23 20.76 40.371 40.371 0 00-27.99-6.75c23.18 12.44 31.89 41.31 19.45 64.49A47.642 47.642 0 01116.48 177a51.857 51.857 0 01-15.1-2.89c-1.13-.42-2.27-.88-3.41-1.38-.66-.29-1.31-.59-1.95-.93a48.701 48.701 0 01-27.35-37.7s5.36-19.81 38.37-19.81c5.99-2.49 10.93-7 13.96-12.74 0-.94-20.25-8.92-28.12-16.61-4.2-4.12-6.18-6.1-7.97-7.59-.96-.81-1.96-1.56-3.01-2.26a52.952 52.952 0 01-.32-28.15 85.878 85.878 0 00-27.94 21.43h-.05c-4.64-5.79-4.27-24.87-4.01-28.85-1.35.54-2.65 1.22-3.86 2.03a85 85 0 00-11.35 9.65c-3.96 3.99-7.58 8.3-10.82 12.9A96.958 96.958 0 007.97 99c0 .12-1.1 4.81-1.89 10.61-.13.9-.25 1.79-.37 2.71-.26 1.75-.48 3.65-.68 6.6v.34c-.08 1.12-.15 2.37-.23 3.86v.59c.52 64.14 52.94 115.71 117.07 115.19 55.9-.45 103.55-40.67 113.39-95.7.2-1.48.36-2.96.53-4.44 2.36-19.66-.25-39.57-7.61-57.92zM289.19 67.98h65.04v17.6h-46.38v23.85h46.38v17.46h-46.38v38.37h-18.66V67.98zm87.15-6.8c5.77-.19 10.61 4.34 10.8 10.11.01.27.01.54 0 .81.29 5.75-4.14 10.64-9.89 10.93-.34.02-.69.02-1.03 0-5.69.26-10.52-4.14-10.79-9.83-.01-.28-.01-.56-.01-.83-.22-5.95 4.43-10.96 10.38-11.18.18-.01.36-.01.54-.01zm-9.19 32.12h18.39v71.96h-18.39V93.3zm71.7 19.99a14.866 14.866 0 00-8.93-3.2c-7.46 0-11.73 4.8-11.73 15.32v39.85h-18.26V93.3h17.46v10.39c2.66-7.08 9.65-11.57 17.19-11.07 4.37-.01 8.64 1.29 12.26 3.73l-7.99 16.94zm7.59 16.39c-.57-20.32 15.44-37.26 35.77-37.83.43-.01.86-.02 1.29-.01 21.59 0 36.92 15.32 36.92 36.65v7.59h-55.97c2 9.06 9.06 15.06 19.86 15.06 7.52.23 14.5-3.93 17.86-10.66l15.32 9.2c-7.59 11.19-18.39 17.06-33.72 17.06-23.33-.01-37.33-15.6-37.33-37.06zm18.26-8.13h37.85c-2-9.2-9.46-14.27-19.19-14.27-8.83-.31-16.64 5.67-18.66 14.27zm60.24-28.25h12.93v-3.6c0-19.59 8.26-27.72 26.39-27.72h6.4v15.86h-5.2c-8.53 0-10.4 2.93-10.4 11.86v3.6h15.59v16.52h-15.19v55.44h-17.6v-55.44h-12.91l-.01-16.52zm49.17 35.98c-.34-20.35 15.88-37.11 36.23-37.45.45-.01.9-.01 1.36 0 20.68 0 37.45 16.77 37.45 37.45s-16.77 37.45-37.45 37.45c-20.04.72-36.86-14.94-37.58-34.98-.03-.82-.03-1.65-.01-2.47zm57.31 0c0-10.9-8.83-19.73-19.73-19.73s-19.73 8.83-19.73 19.73 8.83 19.73 19.73 19.73c10.89 0 19.73-8.83 19.73-19.73zm42.64-.8L648.07 93.3h21.59l15.33 22.12 15.73-22.12h21.19l-26.39 35.05 27.72 36.92h-21.46l-17.19-23.47-16.66 23.46h-21.46l27.59-36.78zM833.76 115.02a22.506 22.506 0 0012.95-21.09c0-15.75-12.01-25.9-30.16-25.9H774.9v97.44h42.98c18.42 0 30.83-10.41 30.83-27.5a23.402 23.402 0 00-14.95-22.95zm-47.79-36.84h30.44c11.88 0 19.22 6.41 19.22 15.75s-6.41 16.28-18.29 16.28h-31.37V78.18zm31.77 77.01h-31.77v-34.7h31.23c13.35 0 20.29 7.07 20.29 17.35.01 10.14-7.73 17.35-19.75 17.35zm54.73-48.18V93.39h-10.54v72.08h10.81v-39.51c0-15.88 6.94-22.82 18.95-22.82 3.09-.12 6.15.67 8.8 2.27L905.05 95c-3.7-1.94-7.84-2.86-12.01-2.67-9.48-.62-18.08 5.52-20.57 14.68zm70.48-15.08c-20.44-.2-37.17 16.2-37.37 36.64v.87c-.19 20.68 16.43 37.59 37.1 37.77 20.68.19 37.59-16.43 37.77-37.1v-.67c.26-20.45-16.1-37.24-36.55-37.51-.31-.01-.63-.01-.95 0zm0 64.6c-14.43.11-26.21-11.5-26.31-25.93 0-.39 0-.78.02-1.17-.47-14.56 10.95-26.74 25.51-27.21 14.56-.47 26.74 10.95 27.21 25.51.02.57.02 1.13 0 1.7.48 14.48-10.87 26.6-25.35 27.08-.36.02-.72.02-1.08.02zm125.35-6.41l-21.49-56.72h-10.14l-22.02 57.12L996.5 93.4h-11.48l23.62 72.08h10.67l22.16-57.12 22.16 57.12h9.88l24.95-72.08h-11.35l-18.81 56.72zm68.74-26.3c-11.21-2.27-19.89-3.74-19.89-11.21 0-6.68 4.55-11.48 15.62-11.48 7.78-.3 15.19 3.3 19.76 9.61l9.08-6.14a34.823 34.823 0 00-28.83-12.81c-17.08-.13-26.83 9.74-26.83 20.94 0 14.41 13.22 17.75 25.63 20.15 10.54 2.12 20.42 3.74 20.42 11.75 0 7.21-5.87 12.54-17.08 12.54-9.26.39-18.05-4.06-23.22-11.75l-9.48 6.41c6.4 9.21 16.69 15.08 32.43 15.08 18.82.13 28.43-11.08 28.43-22.42-.02-14.79-13.65-18.26-26.04-20.67zm72.61-31.89c-20.41-.38-37.26 15.86-37.64 36.27-.01.5-.01 1 0 1.5 0 21.09 14.95 37.24 38.04 37.24 13.69.57 26.58-6.46 33.5-18.28l-9.34-5.46a25.76 25.76 0 01-24.16 13.88c-15.22 0-25.76-9.74-27.36-23.49h63.67v-4.95c.64-19.63-14.74-36.06-34.37-36.7-.78-.04-1.56-.04-2.34-.01zm-26.71 32.03c2.21-12.99 13.53-22.44 26.71-22.29 13.13-.7 24.44 9.18 25.5 22.29h-52.21zm107.61-31.64c-9.47-.62-18.07 5.52-20.56 14.68V93.39h-10.55v72.08h10.81v-39.51c0-15.88 6.94-22.82 18.95-22.82 3.09-.12 6.15.67 8.8 2.27l4.55-10.41a23.49 23.49 0 00-12-2.68z"/></svg>
