<svg xmlns="http://www.w3.org/2000/svg" xml:space="preserve" viewBox="0 0 240 80" width="240" height="80">
  <linearGradient id="a" x1="70.7809" x2="6.4419" y1="69.6123" y2="7.5373" gradientTransform="matrix(1 0 0 -1 0 82)" gradientUnits="userSpaceOnUse">
    <stop offset=".048" stop-color="#fff44f"/>
    <stop offset=".111" stop-color="#ffe847"/>
    <stop offset=".225" stop-color="#ffc830"/>
    <stop offset=".368" stop-color="#ff980e"/>
    <stop offset=".401" stop-color="#ff8b16"/>
    <stop offset=".462" stop-color="#ff672a"/>
    <stop offset=".534" stop-color="#ff3647"/>
    <stop offset=".705" stop-color="#e31587"/>
  </linearGradient>
  <path fill="url(#a)" d="M75.92 26.83c-1.68-4.05-5.1-8.43-7.78-9.81 1.91 3.7 3.23 7.66 3.93 11.76l.01.07C67.69 17.92 60.26 13.52 54.19 3.93c-.31-.49-.62-.98-.91-1.48-.15-.26-.29-.53-.43-.8-.25-.49-.45-1-.58-1.53 0-.05-.04-.09-.09-.1-.02-.02-.04-.02-.07-.01-.01 0-.01.01-.02.01s-.02.01-.03.02l.01-.03c-9.74 5.7-13.04 16.25-13.34 21.53-3.89.27-7.6 1.7-10.67 4.11-.32-.27-.65-.52-1-.76-.88-3.09-.92-6.36-.11-9.47-3.58 1.73-6.75 4.19-9.33 7.21h-.02c-1.54-1.95-1.43-8.37-1.34-9.71-.45.18-.89.41-1.29.69-1.36.97-2.62 2.05-3.79 3.24-1.33 1.35-2.54 2.8-3.62 4.35v.01-.01c-2.49 3.53-4.26 7.52-5.2 11.74l-.04.26c-.14.8-.27 1.61-.38 2.42 0 .03-.01.06-.01.08-.34 1.76-.55 3.55-.63 5.34v.2c.02 21.41 17.39 38.74 38.79 38.73 18.85-.02 34.96-13.59 38.16-32.17.07-.5.12-.99.18-1.5.8-6.6-.07-13.29-2.51-19.47zM31.25 57.17c.18.09.35.18.54.26l.03.02c-.2-.09-.39-.18-.57-.28zm40.83-28.31v-.04.04z"/>
  <radialGradient id="b" cx="-7907.187" cy="8597.1211" r="80.797" gradientTransform="matrix(1 0 0 -1 7975 8606)" gradientUnits="userSpaceOnUse">
    <stop offset=".129" stop-color="#ffbd4f"/>
    <stop offset=".186" stop-color="#ffac31"/>
    <stop offset=".247" stop-color="#ff9d17"/>
    <stop offset=".283" stop-color="#ff980e"/>
    <stop offset=".403" stop-color="#ff563b"/>
    <stop offset=".467" stop-color="#ff3750"/>
    <stop offset=".71" stop-color="#f5156c"/>
    <stop offset=".782" stop-color="#eb0878"/>
    <stop offset=".86" stop-color="#e50080"/>
  </radialGradient>
  <path fill="url(#b)" d="M75.92 26.83c-1.68-4.05-5.1-8.43-7.78-9.81 1.91 3.7 3.23 7.66 3.93 11.76v.04l.01.04c2.99 8.55 2.56 17.92-1.21 26.16-4.44 9.53-15.19 19.3-32.02 18.83-18.19-.52-34.21-14.01-37.2-31.69-.55-2.79 0-4.2.27-6.47-.37 1.76-.58 3.55-.62 5.35v.2c.02 21.41 17.39 38.74 38.79 38.72 18.85-.02 34.96-13.59 38.16-32.17.07-.5.12-.99.18-1.5.8-6.59-.07-13.28-2.51-19.46z"/>
  <radialGradient id="c" cx="-7936.7109" cy="8564.0889" r="80.797" gradientTransform="matrix(1 0 0 -1 7975 8606)" gradientUnits="userSpaceOnUse">
    <stop offset=".3" stop-color="#960e18"/>
    <stop offset=".351" stop-color="#b11927" stop-opacity=".74"/>
    <stop offset=".435" stop-color="#db293d" stop-opacity=".343"/>
    <stop offset=".497" stop-color="#f5334b" stop-opacity=".094"/>
    <stop offset=".53" stop-color="#ff3750" stop-opacity="0"/>
  </radialGradient>
  <path fill="url(#c)" d="M75.92 26.83c-1.68-4.05-5.1-8.43-7.78-9.81 1.91 3.7 3.23 7.66 3.93 11.76v.04l.01.04c2.99 8.55 2.56 17.92-1.21 26.16-4.44 9.53-15.19 19.3-32.02 18.83-18.19-.52-34.21-14.01-37.2-31.69-.55-2.79 0-4.2.27-6.47-.37 1.76-.58 3.55-.62 5.35v.2c.02 21.41 17.39 38.74 38.79 38.72 18.85-.02 34.96-13.59 38.16-32.17.07-.5.12-.99.18-1.5.8-6.59-.07-13.28-2.51-19.46z"/>
  <radialGradient id="d" cx="-7926.9697" cy="8615.457" r="58.5318" gradientTransform="matrix(1 0 0 -1 7975 8606)" gradientUnits="userSpaceOnUse">
    <stop offset=".132" stop-color="#fff44f"/>
    <stop offset=".252" stop-color="#ffdc3e"/>
    <stop offset=".506" stop-color="#ff9d12"/>
    <stop offset=".526" stop-color="#ff980e"/>
  </radialGradient>
  <path fill="url(#d)" d="m57.08 31.39.24.18c-.97-1.73-2.19-3.31-3.6-4.69C41.68 14.82 50.57.75 52.06.03l.01-.02c-9.74 5.7-13.04 16.25-13.34 21.53.45-.03.9-.07 1.36-.07 7.04.01 13.53 3.8 16.99 9.92z"/>
  <radialGradient id="e" cx="-7945.6479" cy="8542.9844" r="38.471" gradientTransform="matrix(1 0 0 -1 7975 8606)" gradientUnits="userSpaceOnUse">
    <stop offset=".353" stop-color="#3a8ee6"/>
    <stop offset=".472" stop-color="#5c79f0"/>
    <stop offset=".669" stop-color="#9059ff"/>
    <stop offset="1" stop-color="#c139e6"/>
  </radialGradient>
  <path fill="url(#e)" d="M40.12 33.79c-.06.96-3.47 4.29-4.66 4.29-11.02 0-12.81 6.67-12.81 6.67.49 5.61 4.4 10.24 9.13 12.68.22.11.43.21.65.31.38.17.76.32 1.14.47 1.62.57 3.32.9 5.04.97 19.32.91 23.06-23.1 9.12-30.07 3.29-.43 6.62.38 9.35 2.27-3.47-6.12-9.95-9.9-16.98-9.92-.46 0-.91.04-1.36.07-3.89.27-7.6 1.7-10.67 4.11.59.5 1.26 1.17 2.66 2.55 2.63 2.6 9.38 5.29 9.39 5.6z"/>
  <radialGradient id="f" cx="-8073.5933" cy="8509.3242" r="20.397" gradientTransform="matrix(.972 -.235 -.275 -1.138 10230.3008 7821.606)" gradientUnits="userSpaceOnUse">
    <stop offset=".206" stop-color="#9059ff" stop-opacity="0"/>
    <stop offset=".278" stop-color="#8c4ff3" stop-opacity=".064"/>
    <stop offset=".747" stop-color="#7716a8" stop-opacity=".45"/>
    <stop offset=".975" stop-color="#6e008b" stop-opacity=".6"/>
  </radialGradient>
  <path fill="url(#f)" d="M40.12 33.79c-.06.96-3.47 4.29-4.66 4.29-11.02 0-12.81 6.67-12.81 6.67.49 5.61 4.4 10.24 9.13 12.68.22.11.43.21.65.31.38.17.76.32 1.14.47 1.62.57 3.32.9 5.04.97 19.32.91 23.06-23.1 9.12-30.07 3.29-.43 6.62.38 9.35 2.27-3.47-6.12-9.95-9.9-16.98-9.92-.46 0-.91.04-1.36.07-3.89.27-7.6 1.7-10.67 4.11.59.5 1.26 1.17 2.66 2.55 2.63 2.6 9.38 5.29 9.39 5.6z"/>
  <radialGradient id="g" cx="-7937.731" cy="8600.4268" r="27.676" gradientTransform="matrix(1 0 0 -1 7975 8606)" gradientUnits="userSpaceOnUse">
    <stop offset="0" stop-color="#ffe226"/>
    <stop offset=".121" stop-color="#ffdb27"/>
    <stop offset=".295" stop-color="#ffc82a"/>
    <stop offset=".502" stop-color="#ffa930"/>
    <stop offset=".732" stop-color="#ff7e37"/>
    <stop offset=".792" stop-color="#ff7139"/>
  </radialGradient>
  <path fill="url(#g)" d="M26.26 24.36c.31.2.57.37.8.53-.88-3.09-.92-6.36-.11-9.47-3.58 1.73-6.75 4.19-9.33 7.21.2-.01 5.82-.11 8.64 1.73z"/>
  <radialGradient id="h" cx="-7915.9771" cy="8617.9814" r="118.081" gradientTransform="matrix(1 0 0 -1 7975 8606)" gradientUnits="userSpaceOnUse">
    <stop offset=".113" stop-color="#fff44f"/>
    <stop offset=".456" stop-color="#ff980e"/>
    <stop offset=".622" stop-color="#ff5634"/>
    <stop offset=".716" stop-color="#ff3647"/>
    <stop offset=".904" stop-color="#e31587"/>
  </radialGradient>
  <path fill="url(#h)" d="M1.65 42.16c2.99 17.67 19.01 31.17 37.19 31.68 16.83.48 27.58-9.29 32.02-18.83 3.76-8.24 4.19-17.61 1.21-26.16v-.04c0-.03-.01-.05 0-.04l.01.07c1.38 8.98-3.19 17.67-10.33 23.55l-.02.05c-13.91 11.33-27.22 6.83-29.91 5-.19-.09-.38-.18-.56-.28-8.11-3.88-11.46-11.26-10.74-17.6-3.93.06-7.53-2.21-9.18-5.78 4.33-2.65 9.72-2.87 14.25-.57 4.59 2.08 9.81 2.29 14.55.57-.01-.31-6.76-3-9.39-5.59-1.41-1.39-2.07-2.05-2.66-2.55-.32-.27-.65-.52-1-.76-.23-.16-.49-.33-.8-.53-2.83-1.84-8.45-1.74-8.64-1.73h-.02c-1.54-1.95-1.43-8.37-1.34-9.71-.45.18-.89.41-1.29.69-1.36.97-2.62 2.05-3.79 3.25-1.33 1.34-2.55 2.79-3.64 4.34v.01c-2.49 3.53-4.26 7.52-5.2 11.74-.02.08-1.39 6.1-.72 9.22z"/>
  <radialGradient id="i" cx="-8095.2588" cy="10147.8711" r="86.499" gradientTransform="matrix(.105 .995 .653 -.069 -5727.4868 8749.5703)" gradientUnits="userSpaceOnUse">
    <stop offset="0" stop-color="#fff44f"/>
    <stop offset=".06" stop-color="#ffe847"/>
    <stop offset=".168" stop-color="#ffc830"/>
    <stop offset=".304" stop-color="#ff980e"/>
    <stop offset=".356" stop-color="#ff8b16"/>
    <stop offset=".455" stop-color="#ff672a"/>
    <stop offset=".57" stop-color="#ff3647"/>
    <stop offset=".737" stop-color="#e31587"/>
  </radialGradient>
  <path fill="url(#i)" d="M53.72 26.87c1.41 1.39 2.63 2.97 3.6 4.7.21.16.41.32.58.48 8.79 8.1 4.18 19.55 3.84 20.37 7.14-5.88 11.7-14.58 10.33-23.56-4.38-10.94-11.81-15.34-17.88-24.93-.31-.49-.62-.98-.91-1.48-.15-.26-.29-.53-.43-.8-.25-.49-.45-1-.58-1.53 0-.05-.04-.09-.09-.1-.02-.02-.04-.02-.07-.01-.01 0-.01.01-.02.01s-.02.01-.03.02c-1.49.71-10.38 14.78 1.66 26.83z"/>
  <radialGradient id="j" cx="-7938.3828" cy="8590.1758" r="73.72" gradientTransform="matrix(1 0 0 -1 7975 8606)" gradientUnits="userSpaceOnUse">
    <stop offset=".137" stop-color="#fff44f"/>
    <stop offset=".48" stop-color="#ff980e"/>
    <stop offset=".592" stop-color="#ff5634"/>
    <stop offset=".655" stop-color="#ff3647"/>
    <stop offset=".904" stop-color="#e31587"/>
  </radialGradient>
  <path fill="url(#j)" d="M57.9 32.04c-.19-.17-.38-.33-.58-.48l-.24-.18c-2.73-1.89-6.06-2.7-9.35-2.27 13.94 6.97 10.2 30.97-9.12 30.07-1.72-.07-3.42-.4-5.04-.97-.38-.14-.76-.3-1.14-.47-.22-.1-.44-.2-.65-.31l.03.02c2.69 1.84 16 6.33 29.91-5l.02-.05c.35-.81 4.95-12.26-3.84-20.36z"/>
  <radialGradient id="k" cx="-7918.9229" cy="8585.8613" r="80.686" gradientTransform="matrix(1 0 0 -1 7975 8606)" gradientUnits="userSpaceOnUse">
    <stop offset=".094" stop-color="#fff44f"/>
    <stop offset=".231" stop-color="#ffe141"/>
    <stop offset=".509" stop-color="#ffaf1e"/>
    <stop offset=".626" stop-color="#ff980e"/>
  </radialGradient>
  <path fill="url(#k)" d="M22.65 44.75s1.79-6.67 12.81-6.67c1.19 0 4.6-3.33 4.66-4.29-4.74 1.72-9.96 1.51-14.55-.57-4.53-2.3-9.92-2.08-14.25.57 1.65 3.57 5.25 5.83 9.18 5.78-.72 6.34 2.63 13.72 10.74 17.6.18.09.35.18.54.26-4.73-2.44-8.64-7.07-9.13-12.68z"/>
  <linearGradient id="l" x1="70.0087" x2="15.2627" y1="69.9433" y2="15.1983" gradientTransform="matrix(1 0 0 -1 0 82)" gradientUnits="userSpaceOnUse">
    <stop offset=".167" stop-color="#fff44f" stop-opacity=".8"/>
    <stop offset=".266" stop-color="#fff44f" stop-opacity=".634"/>
    <stop offset=".489" stop-color="#fff44f" stop-opacity=".217"/>
    <stop offset=".6" stop-color="#fff44f" stop-opacity="0"/>
  </linearGradient>
  <path fill="url(#l)" d="M75.92 26.83c-1.68-4.05-5.1-8.43-7.78-9.81 1.91 3.7 3.23 7.66 3.93 11.76l.01.07C67.69 17.92 60.26 13.52 54.19 3.93c-.31-.49-.62-.98-.91-1.48-.15-.26-.29-.53-.43-.8-.25-.49-.45-1-.58-1.53 0-.05-.04-.09-.09-.1-.02-.02-.04-.02-.07-.01-.01 0-.01.01-.02.01s-.02.01-.03.02l.01-.03c-9.74 5.7-13.04 16.25-13.34 21.53.45-.03.9-.07 1.36-.07 7.03.01 13.52 3.8 16.98 9.92-2.73-1.89-6.06-2.7-9.35-2.27 13.94 6.97 10.2 30.97-9.12 30.07-1.72-.07-3.42-.4-5.04-.97-.38-.14-.76-.3-1.14-.47-.22-.1-.44-.2-.65-.31l.03.02c-.19-.09-.38-.18-.56-.28.18.09.35.18.54.26-4.73-2.45-8.64-7.07-9.13-12.68 0 0 1.79-6.67 12.81-6.67 1.19 0 4.6-3.33 4.66-4.29-.01-.31-6.76-3-9.39-5.59-1.41-1.39-2.07-2.05-2.66-2.55-.32-.27-.65-.52-1-.76-.88-3.09-.92-6.36-.11-9.47-3.58 1.73-6.75 4.19-9.33 7.21h-.02c-1.54-1.95-1.43-8.37-1.34-9.71-.45.18-.89.41-1.29.69-1.36.97-2.62 2.05-3.79 3.24-1.33 1.35-2.54 2.8-3.62 4.35v.01-.02c-2.49 3.53-4.26 7.52-5.2 11.74l-.05.26c-.07.34-.4 2.07-.45 2.44 0 .03 0-.03 0 0-.3 1.79-.49 3.59-.57 5.4v.2c.02 21.41 17.39 38.74 38.79 38.73 18.85-.02 34.96-13.59 38.16-32.17.07-.5.12-.99.18-1.5.8-6.6-.07-13.29-2.51-19.47zm-3.85 1.99.01.04-.01-.04z"/>
  <path fill="#fff" d="M96.97 23.99h21.43v5.8h-15.28v7.86h15.28v5.75h-15.28v12.64h-6.15V23.99zm28.72-2.24c1.9-.06 3.5 1.43 3.56 3.33v.27c0 1.98-1.6 3.58-3.58 3.58-1.94 0-3.54-1.55-3.58-3.49-.07-1.96 1.46-3.61 3.42-3.69h.18zm-3.03 10.58h6.06v23.71h-6.06V32.33zm23.62 6.59c-.84-.66-1.87-1.03-2.94-1.05-2.46 0-3.86 1.58-3.86 5.05v13.13h-6.01V32.33h5.75v3.42c.88-2.33 3.18-3.81 5.66-3.64 1.44 0 2.85.42 4.04 1.23l-2.64 5.58zm2.5 5.4c-.19-6.7 5.09-12.28 11.78-12.47.14 0 .28-.01.42 0 7.11 0 12.16 5.05 12.16 12.08v2.5H154.7c.66 2.99 2.99 4.96 6.54 4.96 2.48.08 4.78-1.29 5.88-3.51l5.05 3.03c-2.5 3.69-6.06 5.62-11.11 5.62-7.67-.01-12.28-5.14-12.28-12.21zm6.02-2.68h12.47c-.66-3.03-3.12-4.7-6.32-4.7-2.91-.1-5.49 1.86-6.15 4.7zm19.84-9.31h4.26v-1.18c0-6.45 2.72-9.13 8.69-9.13h2.11v5.23h-1.71c-2.81 0-3.43.97-3.43 3.91v1.19h5.14v5.44h-5v18.27h-5.8V37.77h-4.26v-5.44zm16.2 11.85c-.11-6.7 5.23-12.23 11.94-12.34h.45c6.81-.06 12.39 5.41 12.45 12.23s-5.41 12.39-12.23 12.45h-.22c-6.6.24-12.14-4.92-12.38-11.52-.01-.27-.01-.54-.01-.82zm18.88 0c0-3.59-2.91-6.5-6.5-6.5s-6.5 2.91-6.5 6.5 2.91 6.5 6.5 6.5 6.5-2.91 6.5-6.5zm14.05-.26-8.56-11.59h7.11l5.05 7.29 5.18-7.29h6.98l-8.69 11.55 9.13 12.16h-7.07l-5.66-7.73-5.49 7.73h-7.06l9.08-12.12z"/>
</svg>
