<svg xmlns="http://www.w3.org/2000/svg" viewBox="0 0 200 200">
  <path d="M190.5 129.6c5.5-11 13.9-35.6 6.7-55.8.1.2.1.4.1.6-.1-.2-.1-.4-.1-.4s-1.3 4-3.2 10.3c-.1-.8-.3-1.7-.4-2.5.5-7.6.3-12.4-1.7-20.8-3.5-14.8-11.4-25.6-16.4-29 .2.2.5.4.8.6-.6-.4-.9-.7-.9-.7s.2 1.1.6 3.1c-5.4-8.5-13.7-12.5-13.7-12.5s.3 1.4.7 4.4c-17-15-39.3-24.2-63.8-24.2-24.9 0-47.5 9.5-64.6 25 .9 1.1 1.9 2.4 2.9 4 0 0 6.5-1.2 14.4-.4C65.6 21.6 82 16.4 99.2 16.4c22 0 42.6 8.6 58.2 24.1.8.8 1.6 1.6 2.4 2.5-4.6-2.8-10.2-6-14.4-6.3C154 43 168.4 63 166.8 90c-2.8-6.9-6.4-11.9-9.3-14.4 3.1 28.1.4 34.1-1.5 41.6-.4-3.4-1.6-6-2.4-7.6 0 0-.3 8.8-6 21.3-4.3 9.5-8.8 12.4-10.7 12.1-1.7-.3-.5-2-.9-3.6 0 0-3 1.4-5.9 4.5-2.8 2.9-5.3 6.1-6.6 5.2 1-.8 1.7-2.2 2.5-3.5-1.1.8-3.9 2.9-10.1 3.8-2.6.4-13.4 2.4-27.9-4.9 2.1-.2 5.3-1 7.7.4-2.4-2.6-8.2-2.1-12.4-3.4-3.6-1.1-8.4-6.2-11.1-8.8 11.1 2.7 23 .8 29.8-3.9 6.9-4.7 11-8.2 14.7-7.4 3.7.8 6.1-2.9 3.3-6.1-2.8-3.3-9.8-7.8-19.1-5.3-6.6 1.7-14.8 9-27.3 1.6C62.9 105.3 63 100.1 63 96.9c0-2.2 1.4-5.3 3.9-6.7 1.4.5 2.2.9 2.2.9s-.6-1-1-1.5c.1 0 .2-.1.3-.1 1.1.4 3.7 1.3 5 2 1.7.9 2.3 1.8 2.3 1.8s.4-.3 0-1.2c-.2-.4-.8-1.4-2.5-2.5h.1c.9.4 1.9.8 2.9 1.4.3-1.5 1-3.1.5-5.9-.3-2-.3-2.5-.8-3.2-.4-.6.1-.9.8-.3l-.6-1.5c0-.1.1-.3.3-.5 2-2.8 15.3-9.6 16.3-10.4 1.3-.9 2.4-1.8 3.3-3.3 1.3-.8 2.5-4.5 2.1-7.2-.2-1.6-1.4-1.9-3.3-2.3-.7-.2-9.1-.6-14-.4-4.2.2-7.2-2.3-8.8-4.7-.3-.5-.6-1-.9-1.4-.4-.7-.6-1.2-.8-1.7 1.8-6.7 5.6-12.4 11.3-17.1.4-.3-1.4.2-1-.1.4-.4 2.8-1.5 3.3-1.8.6-.3-2.6-1.2-5.4-.6-2.8.6-3.3.9-4.7 1.6.6-.6 2.5-1.6 2-1.5-3 .7-6.6 2.7-9.6 4.8 0-.3 0-.5.1-.9-1.4.7-4.9 3.4-5.8 5.4 0-.4 0-.7-.1-1.2-1 .9-1.9 2-2.8 3.1-9-2.2-16.6-1.7-23 .4-2.1-1.7-5.4-4.8-7.8-8.8-.2-.4-.3.8-.5.4-1.4-2.5-2.6-6.5-2.9-9.8 0-.3-.1-.6-.1-.9 0 0-1.2.7-2.4 2.8-.6.9-1.1 2.2-1.6 3.7-.3.9-.5 1.4-.7 1.9-.1.2.1-1.6.1-1.5-.3.6-1.2 1.6-1.5 2.8-.2.9-.6 1.4-.7 2.5v.1c0-.3 0-1.3-.1-1.1-.7 1.9-1.4 4.2-2 6.7-.5 1.8-.8 3.9-1 6.3-.2 2.7-.3 5.8 0 9.4v1.6c-2.9 3.6-4.4 6.5-5 7.9-2.9 5.8-6 14.6-8.4 28.3 0 0 1.6-5.1 4.8-10.9v.2c-2.4 7.4-4.2 18.8-3.1 35.7 0-.6.6-4.9 1.8-10.8.6 11.5 3.6 25.7 12.2 41.2 14.2 25.5 41.9 43.3 69.8 48.5-4.9-1.4-8-4.3-8-4.3s16.8 5.4 29.1 4.9c-3.8-.7-4.6-2.5-4.6-2.5s34.9 2 53.1-12.4c4.1-3.1 6.7-6.6 7.5-9.8 5.4-2.8 11.1-6.7 17-12.6 9.9-9.7 10.9-17.1 12-24 0 .2-.1.4-.1.6.4-2.6.1-5-1-6.8z"/>
</svg>