<svg width="221" height="208" fill="none" xmlns="http://www.w3.org/2000/svg"><g filter="url(#a)"><g clip-path="url(#b)"><rect x="8" y="6" width="204.986" height="192" rx="7.42" fill="#F9F9FA"/><rect x="148" y="170" width="56.58" height="18.551" rx="1.855" fill="#CECECF"/><rect x="157.043" y="177.42" width="38.493" height="3.71" rx="1.855" fill="#ADADAD"/><g opacity=".3"><path d="M43.544 124.767a21.74 21.74 0 0 1 2.399-.699 13.061 13.061 0 0 1 2.832-.36c.469-.005.937.041 1.395.139.61.113 1.174.4 1.624.826.218.22.394.477.521.758.15.337.246.694.285 1.059.032.265.048.53.049.797a5.591 5.591 0 0 1-.612 2.573 7.164 7.164 0 0 1-1.402 1.854c-1.023.988-2.365 1.84-3.844 2.62-2.232 1.173-4.786 2.185-7.058 3.312a22.971 22.971 0 0 0-3.123 1.821 8.73 8.73 0 0 0-2.25 2.235c-.901 1.389-1.32 2.754-1.32 4.018a5.741 5.741 0 0 0 .664 2.686 7.138 7.138 0 0 0 2.984 2.921 9.414 9.414 0 0 0 4.465 1.097c.22 0 .442 0 .666-.023 2.388-.159 4.663-.95 6.8-2.036 2.136-1.086 4.14-2.467 5.984-3.818 3.094-2.266 6.334-4.976 9.762-7.114a28.557 28.557 0 0 1 5.28-2.655 16.25 16.25 0 0 1 5.577-1.046 14.64 14.64 0 0 1 6.584 1.606c3.657 1.818 6.336 4.454 8.104 7.522a20.208 20.208 0 0 1 2.625 10.109 22.687 22.687 0 0 1-2.57 10.446 21.492 21.492 0 0 1-7.47 8.204l.251.391a21.989 21.989 0 0 0 7.63-8.381 23.146 23.146 0 0 0 2.623-10.66c.026-3.622-.9-7.187-2.686-10.34-1.804-3.145-4.563-5.848-8.3-7.705a15.1 15.1 0 0 0-6.79-1.655c-1.96.021-3.902.387-5.735 1.081-2.773 1.008-5.412 2.624-7.925 4.405-2.513 1.781-4.925 3.735-7.233 5.425-1.836 1.345-3.82 2.712-5.919 3.782-2.1 1.07-4.315 1.833-6.621 1.981a9.02 9.02 0 0 1-.635.022c-2.066 0-3.989-.674-5.385-1.801a6.26 6.26 0 0 1-1.656-1.982 5.266 5.266 0 0 1-.612-2.471c0-1.165.375-2.436 1.245-3.766a7.786 7.786 0 0 1 1.804-1.86c1.293-.998 2.971-1.855 4.757-2.684 2.683-1.242 5.611-2.418 7.89-3.962 1.138-.769 2.117-1.621 2.816-2.642a6.118 6.118 0 0 0 1.091-3.514c0-.284-.018-.568-.052-.85a3.776 3.776 0 0 0-.489-1.527 2.96 2.96 0 0 0-.7-.795 3.773 3.773 0 0 0-1.414-.679 6.79 6.79 0 0 0-1.675-.191 13.59 13.59 0 0 0-2.931.361 22.15 22.15 0 0 0-2.461.72l.157.436M27.988 153.764h-.233a.371.371 0 0 1-.224.368.381.381 0 0 1-.297 0 .375.375 0 0 1-.224-.368.37.37 0 0 1 .1-.28.375.375 0 0 1 .421-.088.374.374 0 0 1 .224.368h.464a.834.834 0 0 0-1.426-.588.835.835 0 1 0 1.426.588h-.231Z" fill="#9E9E9E"/><path d="M46.902 144.045h-.231a.37.37 0 0 1-.23.346.373.373 0 0 1-.35-.655.38.38 0 0 1 .35-.036.365.365 0 0 1 .12.082.36.36 0 0 1 .11.263h.463a.834.834 0 0 0-1-.819.834.834 0 0 0 .163 1.655.84.84 0 0 0 .774-.516.828.828 0 0 0 .063-.32h-.232ZM58.484 122.543v1.185a.235.235 0 0 0 .06.177.23.23 0 0 0 .266.056.23.23 0 0 0 .127-.138.235.235 0 0 0 .011-.095v-1.185a.232.232 0 0 0-.232-.212.234.234 0 0 0-.232.212Z" fill="#9E9E9E"/><path d="M58.125 123.368h1.187a.23.23 0 0 0 .212-.231.233.233 0 0 0-.212-.232h-1.187a.226.226 0 0 0-.178.06.23.23 0 0 0-.075.172.228.228 0 0 0 .075.171.226.226 0 0 0 .178.06ZM95.943 161.324v1.185a.233.233 0 1 0 .464 0v-1.185a.234.234 0 0 0-.232-.212.234.234 0 0 0-.232.212Z" fill="#9E9E9E"/><path d="M95.582 162.15h1.185a.235.235 0 0 0 .178-.06.23.23 0 0 0 .056-.265.23.23 0 0 0-.234-.138H95.58a.231.231 0 0 0-.212.231.233.233 0 0 0 .212.232" fill="#9E9E9E"/><path d="M90.735 129.089a2.662 2.662 0 0 0 2.665-2.66 2.662 2.662 0 0 0-2.665-2.66 2.662 2.662 0 0 0-2.664 2.66 2.662 2.662 0 0 0 2.664 2.66Z" fill="#C3C4FD"/><path d="M93.399 126.429h-.045a2.618 2.618 0 0 1-2.108 2.572 2.627 2.627 0 0 1-2.938-1.564 2.612 2.612 0 0 1 .964-3.181 2.627 2.627 0 0 1 3.882 1.172c.132.318.2.658.2 1.001h.092a2.698 2.698 0 0 0-1.67-2.496 2.713 2.713 0 0 0-3.69 1.969 2.698 2.698 0 0 0 1.15 2.773 2.71 2.71 0 0 0 3.417-.336 2.698 2.698 0 0 0 .793-1.91h-.047Z" fill="#C3C5FD"/><path d="M94.267 126.429h.233c0-.997-.397-1.953-1.103-2.658a3.771 3.771 0 0 0-2.663-1.1.234.234 0 0 0-.232.232v3.526a.235.235 0 0 0 .233.233h3.532a.235.235 0 0 0 .233-.233h-.233v-.23h-3.302v-3.296h-.23v.23c.875 0 1.715.348 2.334.966s.967 1.456.967 2.33h.23Z" fill="#9E9E9E"/><path d="M25.54 177.269v-5.754h5.827v-5.405h9.217v11.159H25.54Z" fill="#A77FFA"/><path d="M25.54 177.269h.047v-5.707h5.827v-5.405h9.125v11.065h-15v.047h.048-.047v.045H40.63v-11.249h-9.31v5.405h-5.826v5.844h.045v-.045Z" fill="#A77FFA"/><path d="M23.053 172.28v-.23h-8.104v-.796h7.871v1.026h.233v-.23.23h.23v-1.487h-8.798v1.72h8.799v-.233h-.231Z" fill="#9E9E9E"/><path d="M23.05 177.12v-.232h-7.62v-4.375h7.388v4.607h.232v-.232.232h.231v-5.07h-8.315v5.301h8.315v-.231h-.23ZM29.156 166.378v-.232h-6.264v-.891h6.032v1.123h.232v-.232.232h.231v-1.586H22.43v1.817h6.958v-.231h-.23Z" fill="#9E9E9E"/><path d="M28.77 177.12v-.232h-5.487v-10.279h5.255v10.511h.233v-.232.232H29v-10.974H22.82v11.205h6.183v-.231h-.231ZM15.915 169.767v-2.459h-2.79v9.91h.465v-9.447h1.862v1.996h.463ZM36.367 176.249v-5.07h-2.982v4.005h.463v-3.543h2.057v4.608h.462Z" fill="#9E9E9E"/><path d="M33.459 170.151v-7.488h-1.747v-3.968H27.18v6.329h.463v-5.866h3.609v3.967h1.744v7.026h.464Z" fill="#9E9E9E"/><path d="M81.138 184.317a1.345 1.345 0 0 0 1.342-1.34v-24.578a1.338 1.338 0 0 0-1.342-1.34H40.153a1.345 1.345 0 0 0-1.343 1.34v24.578a1.338 1.338 0 0 0 1.343 1.34" fill="#fff"/><path d="M81.138 184.548a1.572 1.572 0 0 0 1.575-1.571v-24.808h-.234v.231h.232a1.572 1.572 0 0 0-1.575-1.572H40.153a1.575 1.575 0 0 0-1.575 1.572v24.577a1.57 1.57 0 0 0 1.575 1.571v-.463a1.11 1.11 0 0 1-1.111-1.108V158.4a1.111 1.111 0 0 1 1.111-1.109h40.983a1.111 1.111 0 0 1 1.112 1.109V182.977a1.11 1.11 0 0 1-1.112 1.108v.463h.002Z" fill="#9E9E9E"/><path d="M31.128 191.091v.844a.946.946 0 0 0 .945.944h57.15a.944.944 0 0 0 .944-.944v-.844" fill="#fff"/><path d="M30.895 191.091v.844a1.175 1.175 0 0 0 1.177 1.175h57.15a1.178 1.178 0 0 0 1.176-1.175v-.844h-.464v.844a.722.722 0 0 1-.712.712h-57.15a.723.723 0 0 1-.722-.712v-.844h-.455Z" fill="#9E9E9E"/><path d="M89.446 191.7a.722.722 0 0 0 .458-1.276l-7.216-5.943a.722.722 0 0 0-.459-.164H39.072a.722.722 0 0 0-.458.164l-7.217 5.943a.723.723 0 0 0 .045 1.144.73.73 0 0 0 .414.132h57.59Z" fill="#fff"/><path d="M89.444 191.699v.233c.136 0 .27-.028.393-.083a.926.926 0 0 0 .414-.36.973.973 0 0 0 .147-.514.935.935 0 0 0-.348-.727l-7.216-5.944a.963.963 0 0 0-.606-.218H39.07a.963.963 0 0 0-.607.218l-7.216 5.944a.935.935 0 0 0-.348.727c0 .245.092.48.258.659a.943.943 0 0 0 .696.299h57.59v-.462H31.85a.48.48 0 0 1-.49-.492.496.496 0 0 1 .178-.377l7.217-5.943a.488.488 0 0 1 .31-.112h43.16c.112.001.222.04.31.112l7.216 5.943a.492.492 0 0 1 .18.377.509.509 0 0 1-.287.454.528.528 0 0 1-.204.041l.004.225Z" fill="#9E9E9E"/><path d="M60.687 189.108h20.3l-3.304-3.692H43.611l-3.303 3.692h20.379Z" fill="#fff"/><path d="M60.683 189.108v.232h20.303a.23.23 0 0 0 .238-.265.226.226 0 0 0-.057-.12l-3.305-3.692a.23.23 0 0 0-.172-.078H43.611a.224.224 0 0 0-.099.019.22.22 0 0 0-.081.059l-3.304 3.692a.228.228 0 0 0 .046.347.225.225 0 0 0 .126.038h20.384v-.463H40.825l2.887-3.229h33.863l2.886 3.229H60.683v.231Z" fill="#9E9E9E"/><path d="M80.1 158.776H41.167v24.003H80.1v-24.003Z" fill="#fff"/><path d="M80.1 182.782h.232v-24.006a.232.232 0 0 0-.069-.164.24.24 0 0 0-.164-.069H41.165a.233.233 0 0 0-.163.07.233.233 0 0 0-.068.163v24.006a.23.23 0 0 0 .231.231H80.1a.245.245 0 0 0 .164-.067.236.236 0 0 0 .069-.164h-.233v-.232H41.4v-23.542h38.47v23.774h.23Z" fill="#9E9E9E"/><path d="M65.222 170.018a1.728 1.728 0 0 0-3.018-.293c-.103.152-.18.321-.227.499h-2.425a1.132 1.132 0 0 0-.069-.206 1.374 1.374 0 0 0-.095-.18l.866-.864a1.734 1.734 0 0 0 1.53.092 1.718 1.718 0 0 0 .93-2.261 1.727 1.727 0 0 0-2.941-.436 1.722 1.722 0 0 0-.383 1.104 1.697 1.697 0 0 0 .214.833l-.876.875a1.721 1.721 0 0 0-1.707.027 1.717 1.717 0 0 0 .372 3.124 1.725 1.725 0 0 0 2.163-1.179h2.42a1.505 1.505 0 0 0 .152.366l-.878.875a1.727 1.727 0 0 0-2.43.862 1.722 1.722 0 0 0 .633 2.074 1.727 1.727 0 0 0 2.69-1.429 1.726 1.726 0 0 0-.231-.857l.864-.863a1.727 1.727 0 0 0 2.002-.202 1.719 1.719 0 0 0 .444-1.959v-.002Zm-4.84-2.854a.796.796 0 0 1 1.465.619.79.79 0 0 1-.738.484.79.79 0 0 1-.787-.794.79.79 0 0 1 .06-.309Zm-1.755 3.834a.806.806 0 0 1-.735.485.837.837 0 0 1-.669-.352.79.79 0 0 1-.07-.752.787.787 0 0 1 1.382-.134.795.795 0 0 1 .072.753h.02Zm2.525 3.213a.791.791 0 0 1-1.104.392.797.797 0 0 1-.422-.702.788.788 0 0 1 .796-.792.796.796 0 0 1 .662.353.766.766 0 0 1 .061.749h.007Zm3.22-3.213a.798.798 0 0 1-1.04.422.795.795 0 1 1 1.104-.733.782.782 0 0 1-.07.311h.007Z" fill="#9E9E9E"/><path d="M81.445 187.309h-1.757l1.472 1.646a.233.233 0 0 1 .038.253.236.236 0 0 1-.219.133H45.26l-1.054 1.006h40.448l-3.208-3.034" fill="#C3C4FD"/><path d="M79.065 187.308H47.411l-1.656 1.569h34.714l-1.404-1.569Z" fill="#C3C4FD"/><path d="M79.687 187.309h-.623l1.404 1.569H45.754l-.489.463h35.72a.236.236 0 0 0 .22-.133.23.23 0 0 0-.039-.253l-1.472-1.646" fill="#9E9E9E"/><path d="M81.481 187.217h-1.878l.083.091h1.757l3.208 3.035H44.204l1.06-1.003h-.135l-1.158 1.097h40.913l-3.403-3.22Z" fill="#C3C5FD"/><path d="M78.983 187.217H47.375l-1.755 1.66h.135l1.656-1.569h31.655l-.083-.091Z" fill="#C3C5FD"/><path d="M45.755 188.877h-.136l-.489.463h.136l.489-.463Zm33.85-1.66h-.623l.083.091h.623l-.083-.091Z" fill="#9E9E9E"/><path d="M27.82 144.431a3.045 3.045 0 0 1-1.885 2.817 3.063 3.063 0 0 1-3.329-.661 3.048 3.048 0 0 1 2.16-5.205 3.063 3.063 0 0 1 2.16.893 3.046 3.046 0 0 1 .894 2.156Z" fill="#C3C4FD"/><path d="M27.821 144.431h-.047a3.003 3.003 0 0 1-2.42 2.941 3.004 3.004 0 0 1-3.461-3.815 3.008 3.008 0 0 1 5.882.874h.093a3.096 3.096 0 0 0-3.706-3.037 3.099 3.099 0 0 0-2.437 2.432 3.092 3.092 0 0 0 1.319 3.179 3.107 3.107 0 0 0 3.916-.385 3.094 3.094 0 0 0 .908-2.189h-.047Z" fill="#C3C5FD"/><path d="M24.561 143.017v2.828a.203.203 0 0 0 .127.189.194.194 0 0 0 .079.016.194.194 0 0 0 .079-.016.2.2 0 0 0 .111-.111.203.203 0 0 0 .016-.078v-2.828a.205.205 0 0 0-.351-.145.205.205 0 0 0-.06.145Z" fill="#9E9E9E"/><path d="m23.54 144.912 1.03 1.028a.205.205 0 0 0 .291-.001.207.207 0 0 0 0-.291l-1.031-1.028a.2.2 0 0 0-.145-.061.202.202 0 0 0-.145.061.205.205 0 0 0 0 .292Z" fill="#9E9E9E"/><path d="m25.706 144.62-1.03 1.028a.203.203 0 0 0-.06.146.205.205 0 0 0 .06.146.21.21 0 0 0 .146.06.21.21 0 0 0 .146-.06l1.03-1.028a.21.21 0 0 0 0-.292.204.204 0 0 0-.225-.045.203.203 0 0 0-.067.045Z" fill="#9E9E9E"/><path d="M65.123 147.623a2.384 2.384 0 0 0 1.35-1.216 2.365 2.365 0 0 0 .093-1.812v-.009l12.322-4.353-.204.072a2.394 2.394 0 0 1-1.461 3.062l-10.987 3.881-1.194.414a2.499 2.499 0 0 1-1.912-.099 2.51 2.51 0 0 1-1.281-1.421l-4.54-12.804 6.667-2.355 2.134 6.02 5.939-2.101 2.444 6.896-9.365 5.825" fill="#fff"/><path d="M65.194 147.842a2.59 2.59 0 0 0 1.486-1.332 2.592 2.592 0 0 0 .101-1.991l-.218.078.078.219 12.327-4.358-.155-.436-.422.149.077.218a2.16 2.16 0 0 1-1.32 2.763l-10.987 3.881-1.194.422a2.272 2.272 0 0 1-2.9-1.38l-4.461-12.589 6.23-2.214 2.134 6.021 5.933-2.102 2.367 6.677.437-.153-2.526-7.116-5.933 2.103-2.136-6.015-7.103 2.511 4.622 13.023a2.738 2.738 0 0 0 2.578 1.821c.307-.001.613-.054.902-.159l1.196-.421 10.987-3.881a2.635 2.635 0 0 0 1.503-1.343 2.628 2.628 0 0 0 .108-2.011l-.218.078.077.218.204-.072-.155-.436-12.537 4.43.082.227a2.14 2.14 0 0 1-1.306 2.738l.142.432Z" fill="#9E9E9E"/><path d="m71.154 126.805-6.125 2.163 2.169 6.115 6.125-2.163-2.169-6.115Z" fill="#C3C4FD"/><path d="m67.177 135.143.043-.016-.043.016Zm.03-.059-2.166-6.115 6.134-2.161 2.165 6.123-6.125 2.162-.009-.009Zm4.02-8.388-6.316 2.217 2.228 6.29.045-.017 6.255-2.21-2.23-6.289" fill="#C3C5FD"/><path d="M37.05 117.19v10.176a.3.3 0 0 1-.296.304h-5.878a.302.302 0 0 1-.277-.186.296.296 0 0 1-.023-.115V117.19a.296.296 0 0 1 .185-.278.302.302 0 0 1 .115-.023h5.878c.079.001.154.033.21.089a.302.302 0 0 1 .085.212Z" fill="#fff"/><path d="M37.052 117.19h-.23v10.176a.07.07 0 0 1-.02.05.069.069 0 0 1-.05.02H30.88a.074.074 0 0 1-.026-.005.077.077 0 0 1-.043-.065V117.19a.075.075 0 0 1 .043-.064.074.074 0 0 1 .026-.005h5.877a.08.08 0 0 1 .027.005.056.056 0 0 1 .022.015.064.064 0 0 1 .02.049h.464a.54.54 0 0 0-.533-.541H30.88a.529.529 0 0 0-.53.541v10.176a.54.54 0 0 0 .53.54h5.877a.54.54 0 0 0 .533-.54V117.19h-.237Z" fill="#9E9E9E"/><path d="M30.576 118.091h6.477v-.464h-6.477M30.576 126.821h6.477v-.462h-6.477v.462Z" fill="#9E9E9E"/><path d="M38.698 123.357h-5.773a.3.3 0 0 1-.3-.299v-3.39a.298.298 0 0 1 .3-.299h5.773a.3.3 0 0 1 .3.299v3.39a.298.298 0 0 1-.3.299Z" fill="#C3C4FD"/><path d="M38.695 123.356v-.232h-5.773a.06.06 0 0 1-.026-.005.054.054 0 0 1-.023-.015.062.062 0 0 1-.02-.047v-3.389c0-.009.002-.018.006-.026a.071.071 0 0 1 .014-.023.065.065 0 0 1 .023-.014.06.06 0 0 1 .026-.006h5.773a.06.06 0 0 1 .026.006.064.064 0 0 1 .023.014.07.07 0 0 1 .02.049v3.389a.062.062 0 0 1-.02.047.056.056 0 0 1-.023.015.06.06 0 0 1-.026.005v.463a.539.539 0 0 0 .382-.151.535.535 0 0 0 .16-.379v-3.389a.53.53 0 0 0-.542-.541h-5.773a.54.54 0 0 0-.541.541v3.389a.54.54 0 0 0 .541.53h5.773v-.231Z" fill="#9E9E9E"/><path d="M35.438 120.893h2.374a.226.226 0 0 0 .178-.06.23.23 0 0 0 .075-.171.23.23 0 0 0-.075-.172.226.226 0 0 0-.178-.06h-2.374a.236.236 0 0 0-.178.06.23.23 0 0 0-.055.265.23.23 0 0 0 .233.138ZM35.438 121.864h2.374a.236.236 0 0 0 .095-.011.24.24 0 0 0 .139-.127.237.237 0 0 0 0-.188.226.226 0 0 0-.056-.077.237.237 0 0 0-.178-.061h-2.374a.237.237 0 0 0-.233.138.237.237 0 0 0 0 .188.23.23 0 0 0 .233.138ZM43.739 124.207l-.361.124.157.437.2-.07v-.491M39.227 123.092h-.047a.571.571 0 0 0-.564.496h.083a.524.524 0 0 0 .529-.496Z" fill="#9E9E9E"/><path d="M37.471 125.365h-.18v2.001a.54.54 0 0 1-.532.54H35.01a.377.377 0 0 0 .373.304h2.087a.379.379 0 0 0 .38-.38v-2.085a.375.375 0 0 0-.234-.351.382.382 0 0 0-.145-.029Z" fill="#A77FFA"/><path d="M36.821 126.82h-1.819v.616h1.75a.069.069 0 0 0 .064-.043.07.07 0 0 0 .005-.027v-.546Zm0-1.45h-1.248a.573.573 0 0 0-.57.569v.424h1.818v-.998" fill="#A77FFA"/><path d="M37.286 125.365h-.464v.992h.228v.463h-.231v.54a.07.07 0 0 1-.02.051.073.073 0 0 1-.049.02H35v.392a.315.315 0 0 0 0 .07h1.743a.54.54 0 0 0 .532-.54v-1.988" fill="#9E9E9E"/><path d="M37.052 126.359h-2.05v.462h2.049v-.462Z" fill="#9E9E9E"/><path d="M41.08 129.062h-2.09a.38.38 0 0 0-.379.379v1.894a.378.378 0 0 0 .38.38h1.897a.57.57 0 0 0 .57-.569v-1.705a.378.378 0 0 0-.379-.379ZM37.47 129.062h-2.087a.383.383 0 0 0-.38.379v1.705a.57.57 0 0 0 .57.569h1.898a.378.378 0 0 0 .379-.38v-1.894a.378.378 0 0 0-.38-.379ZM43.167 123.092h-3.94a.522.522 0 0 1-.153.34.539.539 0 0 1-.375.155h-.083v4.053a.568.568 0 0 0 .564.571h3.987a.574.574 0 0 0 .57-.57v-2.944l-.2.07-.157-.436.361-.124v-.54a.57.57 0 0 0-.57-.568" fill="#A77FFA"/></g><rect x="84.986" y="169.71" width="56.58" height="18.551" rx="1.855" fill="#E7E7E7"/><rect x="94.029" y="177.13" width="38.493" height="3.71" rx="1.855" fill="#fff" fill-opacity=".6"/><path d="M8 6h197.565a7.421 7.421 0 0 1 7.421 7.42v18.551H8V6Z" fill="#F9F9FA"/><circle cx="20.058" cy="18.522" r="3.246" fill="#FF5F57"/><circle cx="29.334" cy="18.522" r="3.246" fill="#FEBC2E"/><circle cx="38.609" cy="18.522" r="3.246" fill="#D9D9D9"/><path d="M201.556 18.627h-.177v-.701a1.414 1.414 0 0 0-1.417-1.414 1.417 1.417 0 0 0-1.418 1.413v.702h-.177a.53.53 0 0 0-.531.53v1.772a.528.528 0 0 0 .531.53h3.189a.533.533 0 0 0 .531-.53v-1.772a.531.531 0 0 0-.531-.53Zm-2.303-.701a.706.706 0 0 1 .709-.707.711.711 0 0 1 .708.706v.702h-1.417v-.701Z" fill="#CECECF"/><rect x="68.29" y="16.666" width="92.754" height="3.71" rx="1.855" fill="#C4C4C4" fill-opacity=".5"/><path stroke="#E7E7E7" stroke-width=".464" d="M8 31.739h204.986"/><path d="M30.266 43.45h.721v-2.097l1.049 1.902 1.048-1.902v2.096h.72V40.1h-.72l-1.048 1.902-1.049-1.902h-.72v3.35ZM35.727 43.514c.765 0 1.376-.605 1.376-1.318 0-.713-.633-1.318-1.376-1.318-.764 0-1.398.605-1.398 1.318.022.713.655 1.318 1.398 1.318Zm0-.605a.705.705 0 0 1-.699-.713.72.72 0 0 1 .7-.713c.37 0 .698.324.698.713a.705.705 0 0 1-.699.713ZM37.496 43.45h2.228v-.606h-1.288l1.288-1.404v-.497H37.54v.605h1.245l-1.289 1.404v.497ZM40.598 40.597a.39.39 0 0 0 .393-.389.404.404 0 0 0-.393-.389.39.39 0 1 0 0 .778Zm-.371 2.852h.72v-2.528h-.72v2.528ZM41.581 43.45h.72v-3.415h-.72v3.414ZM42.913 43.45h.721v-3.415h-.72v3.414ZM45.404 40.878c-.35 0-.7.108-1.07.28l.24.476c.196-.108.415-.173.655-.173.415 0 .59.238.59.497v.044a1.77 1.77 0 0 0-.656-.13c-.59 0-1.048.346-1.048.843 0 .475.415.799.961.799.284 0 .568-.108.743-.302v.259h.699v-1.513c0-.67-.46-1.08-1.114-1.08Zm-.153 2.14c-.24 0-.437-.13-.437-.325 0-.194.197-.346.459-.346.196 0 .393.044.546.087v.237c-.044.217-.306.346-.568.346ZM36.492 44.983l-2.272 5.51-2.272-5.51h-1.9l3.21 7.822h1.901l3.211-7.822h-1.878ZM39.31 52.805h1.681v-2.528h1.857c1.704 0 2.97-1.102 2.97-2.636 0-1.556-1.266-2.636-2.97-2.636h-3.56v7.8h.021Zm1.681-4.084v-2.204h1.682c.83 0 1.42.432 1.42 1.102 0 .67-.568 1.102-1.42 1.102h-1.682ZM46.976 52.805h1.682v-5.056l3.801 5.056h1.704v-7.822h-1.704v5.056l-3.8-5.056h-1.683v7.822Z" fill="#000"/><path fill-rule="evenodd" clip-rule="evenodd" d="M22.512 41.267a.974.974 0 0 0-.983.972c0 .54.437.973.983.973a.974.974 0 0 0 .983-.973.974.974 0 0 0-.983-.972Zm-2.294.972c0-1.253 1.027-2.268 2.294-2.268 1.267 0 2.293 1.015 2.293 2.268s-1.026 2.269-2.293 2.269c-.393 0-.765-.108-1.092-.281l-.983.972c.065.13.131.281.175.432h3.8a2.304 2.304 0 0 1 2.207-1.62c1.266 0 2.293 1.015 2.293 2.269 0 1.253-1.027 2.268-2.293 2.268a2.34 2.34 0 0 1-1.093-.28l-.983.972c.175.324.284.691.284 1.08 0 1.253-1.026 2.269-2.293 2.269-1.267 0-2.294-1.016-2.294-2.269 0-1.253 1.027-2.269 2.294-2.269.393 0 .764.108 1.092.281l.983-.972a2.559 2.559 0 0 1-.175-.432h-3.8a2.304 2.304 0 0 1-2.207 1.62c-1.267 0-2.293-1.015-2.293-2.268 0-1.254 1.026-2.27 2.293-2.27.393 0 .765.109 1.093.282l.982-.973a2.051 2.051 0 0 1-.284-1.08Zm1.311 8.124c0-.54.437-.972.983-.972s.983.432.983.972-.437.973-.983.973a.974.974 0 0 1-.983-.973Zm-3.123-5.034a.974.974 0 0 0-.983.972c0 .54.436.972.983.972a.974.974 0 0 0 .982-.972.974.974 0 0 0-.983-.972Zm7.23.972c0-.54.436-.972.983-.972.546 0 .983.432.983.972s-.437.972-.983.972a.974.974 0 0 1-.983-.972Z" fill="#000"/><rect x="26.087" y="69.537" width="29.217" height="3.71" rx="1.855" fill="#C4C4C4"/><rect x="26.087" y="78.348" width="43.594" height="3.71" rx="1.855" fill="#C4C4C4" fill-opacity=".5"/><rect x="26.087" y="87.159" width="43.594" height="3.71" rx="1.855" fill="#C4C4C4" fill-opacity=".5"/><rect x="26.087" y="95.971" width="43.594" height="3.71" rx="1.855" fill="#C4C4C4" fill-opacity=".5"/><rect x="26.087" y="104.783" width="43.594" height="3.71" rx="1.855" fill="#C4C4C4" fill-opacity=".5"/><rect x="75.246" y="49.13" width="128.928" height="110.841" rx="1.855" fill="#E7E7E7"/><circle cx="20.522" cy="71.392" r="1.855" fill="#0060DF"/><circle cx="20.522" cy="80.203" r="1.855" fill="#D9D9D9"/><circle cx="20.522" cy="89.014" r="1.855" fill="#D9D9D9"/><circle cx="20.522" cy="97.826" r="1.855" fill="#D9D9D9"/><circle cx="20.522" cy="106.638" r="1.855" fill="#D9D9D9"/><rect x="75.246" y="41.71" width="92.754" height="3.71" rx="1.855" fill="#C4C4C4" fill-opacity=".5"/><rect x="84.986" y="57.942" width="110.377" height="3.71" rx="1.855" fill="#C4C4C4" fill-opacity=".5"/><rect x="84.986" y="64.435" width="100.174" height="3.71" rx="1.855" fill="#C4C4C4" fill-opacity=".5"/><rect x="84.986" y="71.391" width="103.42" height="3.71" rx="1.855" fill="#C4C4C4" fill-opacity=".5"/><rect x="84.986" y="83.449" width="58.435" height="3.71" rx="1.855" fill="#C4C4C4" fill-opacity=".5"/></g></g><defs><clipPath id="b"><rect x="8" y="6" width="204.986" height="192" rx="7.42" fill="#fff"/></clipPath><filter id="a" x="0" y="0" width="220.986" height="208" filterUnits="userSpaceOnUse" color-interpolation-filters="sRGB"><feFlood flood-opacity="0" result="BackgroundImageFix"/><feColorMatrix in="SourceAlpha" values="0 0 0 0 0 0 0 0 0 0 0 0 0 0 0 0 0 0 127 0" result="hardAlpha"/><feOffset dy="2"/><feGaussianBlur stdDeviation="4"/><feColorMatrix values="0 0 0 0 0.0470588 0 0 0 0 0.0470588 0 0 0 0 0.0509804 0 0 0 0.3 0"/><feBlend in2="BackgroundImageFix" result="effect1_dropShadow_2608_7300"/><feBlend in="SourceGraphic" in2="effect1_dropShadow_2608_7300" result="shape"/></filter></defs></svg>
