<svg width="224" height="224" viewBox="0 0 224 224" fill="none" xmlns="http://www.w3.org/2000/svg">
<g clip-path="url(#clip0_3268_8519)">
<rect x="10" y="16" width="204.986" height="192" rx="7.42029" fill="#F9F9FA"/>
<rect x="150" y="180" width="56.5797" height="18.5507" rx="1.85507" fill="#CECECF"/>
<rect x="159.043" y="187.42" width="38.4928" height="3.71015" rx="1.85507" fill="#ADADAD"/>
<g opacity="0.3">
<path d="M45.5434 134.767C46.3291 134.488 47.1303 134.255 47.9429 134.068C48.8709 133.845 49.8208 133.724 50.7753 133.708C51.2438 133.703 51.7115 133.749 52.1698 133.847C52.7797 133.96 53.3436 134.247 53.7935 134.673C54.0115 134.893 54.1881 135.15 54.3149 135.432C54.4645 135.768 54.5607 136.125 54.5999 136.491C54.6318 136.755 54.6481 137.021 54.6486 137.287C54.6536 138.181 54.4439 139.064 54.0371 139.86C53.6741 140.55 53.2006 141.176 52.6353 141.714C51.6124 142.702 50.2701 143.554 48.7908 144.334C46.5591 145.507 44.0045 146.519 41.7332 147.646C40.6459 148.17 39.6017 148.779 38.6103 149.467C37.7299 150.069 36.9674 150.826 36.3606 151.702C35.4586 153.091 35.04 154.456 35.04 155.721C35.0391 156.656 35.267 157.578 35.7039 158.406C36.3848 159.655 37.4239 160.672 38.6879 161.327C40.0625 162.056 41.5967 162.433 43.153 162.424C43.3731 162.424 43.595 162.424 43.8187 162.401C46.2073 162.242 48.4823 161.451 50.6183 160.365C52.7544 159.279 54.7587 157.898 56.6025 156.547C59.6965 154.281 62.9366 151.571 66.3644 149.433C68.0277 148.368 69.7974 147.478 71.6449 146.778C73.4277 146.105 75.3154 145.751 77.2213 145.732C79.5121 145.745 81.7678 146.295 83.8063 147.338C87.4631 149.156 90.1422 151.792 91.9102 154.86C93.6561 157.942 94.5612 161.428 94.5352 164.969C94.5283 168.606 93.6466 172.189 91.9643 175.415C90.2366 178.755 87.6612 181.584 84.4954 183.619L84.7462 184.01C87.9791 181.93 90.6096 179.04 92.3757 175.629C94.0924 172.337 94.992 168.681 94.9988 164.969C95.0244 161.347 94.0981 157.782 92.3125 154.629C90.5084 151.484 87.75 148.781 84.0137 146.924C81.9113 145.849 79.5853 145.282 77.2232 145.269C75.2627 145.29 73.3213 145.656 71.488 146.35C68.7151 147.358 66.0757 148.974 63.5626 150.755C61.0495 152.536 58.6375 154.49 56.33 156.18C54.4935 157.525 52.5108 158.892 50.4108 159.962C48.3109 161.032 46.0955 161.795 43.7899 161.943C43.577 161.958 43.3659 161.965 43.1548 161.965C41.0891 161.965 39.166 161.291 37.7696 160.164C37.0857 159.625 36.5216 158.951 36.1135 158.183C35.7107 157.421 35.5007 156.573 35.5019 155.711C35.5019 154.546 35.8771 153.275 36.7467 151.945C37.2396 151.229 37.8495 150.6 38.5508 150.085C39.8443 149.087 41.5221 148.23 43.3082 147.401C45.9908 146.159 48.9189 144.983 51.1974 143.439C52.3358 142.67 53.3154 141.818 54.0136 140.797C54.7296 139.765 55.1106 138.538 55.1051 137.283C55.1042 136.999 55.0868 136.715 55.0528 136.433C55.001 135.895 54.8343 135.374 54.5638 134.906C54.3804 134.601 54.1432 134.332 53.8639 134.111C53.4455 133.788 52.9635 133.557 52.4495 133.432C51.9016 133.299 51.3391 133.235 50.7753 133.241C49.7878 133.255 48.8048 133.375 47.8436 133.602C47.0101 133.794 46.1885 134.035 45.3829 134.322L45.5398 134.758" fill="#9E9E9E"/>
<path d="M29.988 163.764H29.7553C29.7588 163.815 29.7518 163.866 29.7347 163.914C29.7176 163.963 29.6908 164.007 29.6558 164.044C29.6209 164.082 29.5786 164.111 29.5316 164.132C29.4846 164.152 29.434 164.163 29.3827 164.163C29.3315 164.163 29.2808 164.152 29.2338 164.132C29.1869 164.111 29.1446 164.082 29.1096 164.044C29.0747 164.007 29.0478 163.963 29.0307 163.914C29.0136 163.866 29.0066 163.815 29.0102 163.764C29.0066 163.713 29.0136 163.662 29.0307 163.614C29.0478 163.565 29.0747 163.521 29.1096 163.484C29.1446 163.446 29.1869 163.417 29.2338 163.396C29.2808 163.376 29.3315 163.365 29.3827 163.365C29.434 163.365 29.4846 163.376 29.5316 163.396C29.5786 163.417 29.6209 163.446 29.6558 163.484C29.6908 163.521 29.7176 163.565 29.7347 163.614C29.7518 163.662 29.7588 163.713 29.7553 163.764H30.2189C30.2186 163.599 30.1693 163.438 30.0774 163.301C29.9855 163.165 29.855 163.058 29.7025 162.995C29.5499 162.932 29.3821 162.916 29.2202 162.948C29.0584 162.98 28.9097 163.06 28.793 163.176C28.6763 163.293 28.5968 163.441 28.5645 163.603C28.5322 163.764 28.5486 163.932 28.6116 164.084C28.6746 164.236 28.7814 164.367 28.9184 164.458C29.0555 164.55 29.2168 164.599 29.3818 164.6C29.6038 164.6 29.8168 164.512 29.9737 164.355C30.1307 164.198 30.2189 163.986 30.2189 163.764H29.988Z" fill="#9E9E9E"/>
<path d="M48.9019 154.045H48.671C48.6716 154.119 48.6501 154.192 48.6092 154.253C48.5683 154.315 48.5098 154.363 48.4414 154.391C48.373 154.419 48.2976 154.427 48.2251 154.412C48.1525 154.397 48.086 154.361 48.0341 154.308C47.9822 154.256 47.9468 154.19 47.9325 154.118C47.9182 154.045 47.9256 153.971 47.9538 153.903C47.9819 153.835 48.0296 153.777 48.0908 153.736C48.1519 153.695 48.2239 153.673 48.2975 153.672C48.3466 153.672 48.3953 153.681 48.4406 153.7C48.4859 153.719 48.5268 153.747 48.5609 153.782C48.5962 153.816 48.6242 153.857 48.6431 153.902C48.662 153.948 48.6715 153.996 48.671 154.045H49.1346C49.1346 153.88 49.0855 153.718 48.9936 153.581C48.9016 153.443 48.7708 153.336 48.6179 153.273C48.4649 153.21 48.2966 153.193 48.1342 153.226C47.9719 153.258 47.8227 153.337 47.7056 153.454C47.5886 153.571 47.5088 153.72 47.4765 153.882C47.4442 154.044 47.4608 154.212 47.5242 154.365C47.5875 154.518 47.6948 154.648 47.8325 154.74C47.9701 154.832 48.132 154.881 48.2975 154.881C48.4075 154.881 48.5165 154.86 48.6182 154.818C48.7198 154.776 48.8122 154.714 48.89 154.637C48.9678 154.559 49.0294 154.467 49.0714 154.365C49.1134 154.264 49.1349 154.155 49.1346 154.045H48.9019Z" fill="#9E9E9E"/>
<path d="M60.4848 132.543V133.728C60.4819 133.76 60.4858 133.792 60.4962 133.823C60.5066 133.853 60.5232 133.881 60.545 133.905C60.5668 133.929 60.5933 133.948 60.6228 133.961C60.6524 133.974 60.6843 133.981 60.7166 133.981C60.7489 133.981 60.7808 133.974 60.8104 133.961C60.8399 133.948 60.8665 133.929 60.8883 133.905C60.9101 133.881 60.9267 133.853 60.937 133.823C60.9474 133.792 60.9513 133.76 60.9484 133.728V132.543C60.9433 132.485 60.9167 132.431 60.8738 132.392C60.8309 132.353 60.7748 132.331 60.7166 132.331C60.6584 132.331 60.6024 132.353 60.5595 132.392C60.5165 132.431 60.4899 132.485 60.4848 132.543" fill="#9E9E9E"/>
<path d="M60.1248 133.368H61.3119C61.3698 133.363 61.4238 133.337 61.463 133.294C61.5023 133.251 61.5241 133.195 61.5241 133.137C61.5241 133.078 61.5023 133.022 61.463 132.979C61.4238 132.936 61.3698 132.91 61.3119 132.905H60.1248C60.0926 132.902 60.0602 132.906 60.0296 132.916C59.9991 132.926 59.971 132.943 59.9472 132.965C59.9233 132.987 59.9043 133.013 59.8913 133.043C59.8783 133.072 59.8716 133.104 59.8716 133.137C59.8716 133.169 59.8783 133.201 59.8913 133.23C59.9043 133.26 59.9233 133.286 59.9472 133.308C59.971 133.33 59.9991 133.347 60.0296 133.357C60.0602 133.367 60.0926 133.371 60.1248 133.368" fill="#9E9E9E"/>
<path d="M97.9428 171.324V172.509C97.94 172.541 97.9438 172.574 97.9542 172.604C97.9646 172.635 97.9812 172.663 98.003 172.687C98.0248 172.71 98.0513 172.729 98.0809 172.742C98.1104 172.755 98.1423 172.762 98.1746 172.762C98.2069 172.762 98.2388 172.755 98.2684 172.742C98.2979 172.729 98.3245 172.71 98.3463 172.687C98.3681 172.663 98.3847 172.635 98.395 172.604C98.4054 172.574 98.4093 172.541 98.4065 172.509V171.324C98.4013 171.266 98.3747 171.213 98.3318 171.173C98.2889 171.134 98.2328 171.112 98.1746 171.112C98.1164 171.112 98.0604 171.134 98.0175 171.173C97.9746 171.213 97.9479 171.266 97.9428 171.324" fill="#9E9E9E"/>
<path d="M97.5817 172.15H98.767C98.7992 172.153 98.8316 172.149 98.8622 172.139C98.8927 172.128 98.9208 172.112 98.9447 172.09C98.9685 172.068 98.9875 172.042 99.0005 172.012C99.0135 171.982 99.0202 171.951 99.0202 171.918C99.0202 171.886 99.0135 171.854 99.0005 171.825C98.9875 171.795 98.9685 171.768 98.9447 171.747C98.9208 171.725 98.8927 171.708 98.8622 171.698C98.8316 171.687 98.7992 171.684 98.767 171.686H97.5799C97.522 171.692 97.468 171.718 97.4288 171.761C97.3895 171.804 97.3677 171.86 97.3677 171.918C97.3677 171.976 97.3895 172.033 97.4288 172.075C97.468 172.118 97.522 172.145 97.5799 172.15" fill="#9E9E9E"/>
<path d="M92.7354 139.089C94.2071 139.089 95.4001 137.898 95.4001 136.429C95.4001 134.96 94.2071 133.769 92.7354 133.769C91.2638 133.769 90.0708 134.96 90.0708 136.429C90.0708 137.898 91.2638 139.089 92.7354 139.089Z" fill="#C3C4FD"/>
<path d="M95.399 136.429H95.3539C95.3549 137.035 95.1453 137.623 94.7608 138.091C94.3764 138.56 93.8409 138.882 93.2457 139.001C92.6504 139.12 92.0323 139.029 91.4966 138.744C90.961 138.459 90.541 137.997 90.3082 137.437C90.0754 136.877 90.0443 136.255 90.2201 135.674C90.3959 135.094 90.7678 134.593 91.2724 134.256C91.777 133.919 92.383 133.768 92.9871 133.827C93.5912 133.886 94.1561 134.153 94.5854 134.581C94.829 134.823 95.0224 135.111 95.1543 135.428C95.2861 135.746 95.354 136.086 95.3539 136.429H95.446C95.446 135.895 95.2872 135.372 94.9899 134.928C94.6925 134.484 94.2699 134.137 93.7754 133.933C93.2809 133.728 92.7368 133.675 92.2119 133.779C91.6869 133.883 91.2048 134.141 90.8263 134.519C90.4478 134.896 90.1901 135.378 90.0857 135.902C89.9813 136.426 90.0349 136.969 90.2397 137.463C90.4445 137.956 90.7914 138.378 91.2364 138.675C91.6814 138.972 92.2046 139.13 92.7398 139.13C93.4575 139.13 94.1459 138.846 94.6533 138.339C95.1608 137.833 95.446 137.145 95.446 136.429H95.399Z" fill="#C3C5FD"/>
<path d="M96.2671 136.429H96.4998C96.4998 135.432 96.1031 134.476 95.397 133.771C94.6909 133.066 93.7333 132.67 92.7347 132.67C92.6731 132.671 92.6142 132.696 92.5706 132.739C92.5271 132.782 92.5024 132.841 92.502 132.903V136.429C92.5024 136.491 92.5271 136.55 92.5706 136.593C92.6142 136.636 92.6731 136.661 92.7347 136.662H96.2671C96.3287 136.661 96.3876 136.636 96.4311 136.593C96.4747 136.55 96.4993 136.491 96.4998 136.429H96.2671V136.199H92.9656V132.903H92.7347V133.133C93.6103 133.133 94.45 133.481 95.0692 134.099C95.6883 134.717 96.0362 135.555 96.0362 136.429H96.2671Z" fill="#9E9E9E"/>
<path d="M27.54 187.269V181.515H33.3672V176.11H42.5843V187.269H27.54Z" fill="#A77FFA"/>
<path d="M27.5397 187.269H27.5866V181.562H33.4138V176.157H42.5389V187.223H27.5397V187.269H27.5866H27.5397V187.314H42.6309V176.065H33.32V181.47H27.4946V187.314H27.5397V187.269Z" fill="#A77FFA"/>
<path d="M25.053 182.28V182.05H16.949V181.254H24.8202V182.28H25.053V182.05V182.28H25.2839V180.792H16.4854V182.512H25.2839V182.28H25.053Z" fill="#9E9E9E"/>
<path d="M25.0504 187.12V186.887H17.43V182.513H24.8177V187.12H25.0504V186.887V187.12H25.2813V182.05H16.9663V187.35H25.2813V187.12H25.0504Z" fill="#9E9E9E"/>
<path d="M31.1566 176.378V176.146H24.8928V175.254H30.9239V176.378H31.1566V176.146V176.378H31.3876V174.792H24.4292V176.609H31.3876V176.378H31.1566Z" fill="#9E9E9E"/>
<path d="M30.7705 187.12V186.888H25.2825V176.609H30.5378V187.12H30.7705V186.888V187.12H31.0014V176.146H24.8188V187.35H31.0014V187.12H30.7705Z" fill="#9E9E9E"/>
<path d="M17.9154 179.767V177.308H15.1245V187.218H15.59V177.771H17.4518V179.767H17.9154Z" fill="#9E9E9E"/>
<path d="M38.3669 186.248V181.178H35.3848V185.184H35.8484V181.641H37.9051V186.248H38.3669Z" fill="#9E9E9E"/>
<path d="M35.4587 180.151V172.663H33.7124V168.695H29.1787V175.024H29.6424V169.158H33.2505V173.125H34.9951V180.151H35.4587Z" fill="#9E9E9E"/>
<path d="M83.138 194.316C83.494 194.316 83.8354 194.175 84.0871 193.924C84.3388 193.673 84.4802 193.332 84.4802 192.976V168.399C84.4802 168.044 84.3388 167.703 84.0871 167.452C83.8354 167.2 83.494 167.059 83.138 167.059H42.1528C41.7968 167.059 41.4554 167.2 41.2037 167.452C40.952 167.703 40.8105 168.044 40.8105 168.399V192.976C40.8105 193.332 40.952 193.673 41.2037 193.924C41.4554 194.175 41.7968 194.316 42.1528 194.316" fill="white"/>
<path d="M83.1383 194.548C83.5557 194.548 83.956 194.382 84.2513 194.088C84.5466 193.793 84.7128 193.394 84.7132 192.977V168.169H84.4787V168.4H84.7114C84.7114 167.983 84.5455 167.583 84.2501 167.288C83.9548 166.993 83.5542 166.828 83.1365 166.828H42.1531C41.7354 166.828 41.3348 166.993 41.0394 167.288C40.7441 167.583 40.5781 167.983 40.5781 168.4V192.977C40.5781 193.184 40.6189 193.388 40.698 193.579C40.7772 193.769 40.8933 193.943 41.0395 194.088C41.1858 194.234 41.3594 194.35 41.5505 194.429C41.7416 194.508 41.9464 194.548 42.1531 194.548V194.085C41.8587 194.085 41.5763 193.968 41.3679 193.761C41.1595 193.553 41.0423 193.271 41.0418 192.977V168.4C41.0427 168.106 41.1601 167.824 41.3683 167.617C41.5765 167.409 41.8586 167.291 42.1531 167.291H83.1365C83.4309 167.291 83.713 167.409 83.9212 167.617C84.1294 167.824 84.2468 168.106 84.2478 168.4V168.632V192.977C84.2473 193.271 84.13 193.553 83.9217 193.761C83.7133 193.968 83.4309 194.085 83.1365 194.085V194.548H83.1383Z" fill="#9E9E9E"/>
<path d="M33.1279 201.09V201.935C33.1284 202.185 33.2282 202.425 33.4053 202.602C33.5825 202.779 33.8227 202.878 34.0733 202.879H91.2231C91.4735 202.878 91.7135 202.779 91.8903 202.602C92.0672 202.425 92.1666 202.185 92.1666 201.935V201.09" fill="white"/>
<path d="M32.8955 201.09V201.935C32.8955 202.246 33.0194 202.545 33.24 202.765C33.4606 202.986 33.7598 203.109 34.0718 203.109H91.2216C91.5335 203.109 91.8327 202.986 92.0533 202.765C92.2739 202.545 92.3978 202.246 92.3978 201.935V201.09H91.9342V201.935C91.9318 202.123 91.856 202.303 91.7229 202.435C91.5897 202.568 91.4098 202.644 91.2216 202.646H34.0718C33.8819 202.646 33.6997 202.572 33.5647 202.439C33.4296 202.305 33.3525 202.125 33.3501 201.935V201.09H32.8955Z" fill="#9E9E9E"/>
<path d="M91.4456 201.699C91.5939 201.699 91.7385 201.653 91.8596 201.568C91.9808 201.482 92.0726 201.362 92.1227 201.222C92.1728 201.083 92.1786 200.932 92.1395 200.789C92.1003 200.646 92.0181 200.519 91.9039 200.424L84.6875 194.481C84.5584 194.375 84.3965 194.317 84.2293 194.317H41.072C40.9049 194.317 40.7429 194.375 40.6138 194.481L33.3974 200.424C33.2833 200.519 33.201 200.646 33.1618 200.789C33.1227 200.932 33.1285 201.083 33.1786 201.222C33.2287 201.362 33.3206 201.482 33.4417 201.568C33.5628 201.653 33.7074 201.699 33.8557 201.699H91.4456Z" fill="white"/>
<path d="M91.4442 201.7V201.932C91.5798 201.933 91.7139 201.904 91.8375 201.849C92.0087 201.774 92.1528 201.648 92.2507 201.489C92.347 201.335 92.3982 201.157 92.3986 200.975C92.3986 200.841 92.3697 200.709 92.3138 200.586C92.2527 200.455 92.1627 200.339 92.0504 200.248L84.8341 194.304C84.6633 194.164 84.4491 194.087 84.2279 194.086H41.0706C40.8494 194.087 40.6352 194.164 40.4644 194.304L33.2481 200.248C33.1358 200.339 33.0458 200.455 32.9847 200.586C32.9288 200.709 32.8999 200.841 32.8999 200.975C32.9001 201.22 32.9922 201.455 33.1579 201.635C33.247 201.73 33.3549 201.805 33.4747 201.857C33.5946 201.908 33.7238 201.934 33.8543 201.934H91.4442V201.471H33.8507C33.7805 201.471 33.7111 201.457 33.6468 201.429C33.5609 201.391 33.4882 201.328 33.4375 201.249C33.3872 201.168 33.3603 201.075 33.3599 200.979C33.3603 200.912 33.3744 200.845 33.4014 200.783C33.4329 200.713 33.4798 200.652 33.5385 200.603L40.7549 194.659C40.8421 194.587 40.9519 194.547 41.0652 194.547H84.2243C84.3376 194.548 84.4472 194.587 84.5346 194.659L91.7509 200.603C91.8102 200.651 91.8572 200.713 91.8881 200.783C91.9164 200.844 91.9312 200.911 91.9313 200.979C91.9311 201.107 91.8828 201.229 91.796 201.323C91.7539 201.37 91.7023 201.408 91.6445 201.433C91.5801 201.461 91.5107 201.475 91.4406 201.474L91.4442 201.7Z" fill="#9E9E9E"/>
<path d="M62.687 199.108H82.9866L79.6833 195.416H62.687H62.6077H45.6114L42.3081 199.108H62.6077H62.687Z" fill="white"/>
<path d="M62.6831 199.108V199.34H82.9863C83.0318 199.342 83.0769 199.331 83.1158 199.307C83.1547 199.283 83.1858 199.249 83.2051 199.207C83.2244 199.166 83.231 199.12 83.2242 199.075C83.2174 199.03 83.1974 198.988 83.1667 198.955L79.8616 195.263C79.8403 195.238 79.814 195.219 79.7844 195.205C79.7548 195.192 79.7227 195.185 79.6903 195.185H45.6111C45.5772 195.184 45.5434 195.19 45.5122 195.204C45.481 195.217 45.4532 195.237 45.4307 195.263L42.1274 198.955C42.0972 198.988 42.0773 199.029 42.0702 199.073C42.0632 199.117 42.0693 199.163 42.0877 199.203C42.1062 199.244 42.1359 199.278 42.1733 199.302C42.2107 199.327 42.2542 199.34 42.2988 199.34H62.6831V198.877H42.8256L45.7121 195.648H79.5748L82.4613 198.877H62.6831V199.108Z" fill="#9E9E9E"/>
<path d="M82.1005 168.776H43.1665V192.779H82.1005V168.776Z" fill="white"/>
<path d="M82.0995 192.782H82.3322V168.776C82.3317 168.714 82.307 168.655 82.2635 168.612C82.22 168.569 82.161 168.544 82.0995 168.543H43.1655C43.1042 168.544 43.0458 168.569 43.0026 168.613C42.9595 168.656 42.935 168.715 42.9346 168.776V192.782C42.9346 192.843 42.9589 192.902 43.0022 192.945C43.0455 192.988 43.1043 193.013 43.1655 193.013H82.0995C82.1607 193.012 82.2194 192.988 82.2636 192.946C82.307 192.902 82.3316 192.844 82.3322 192.782H82.0995V192.55H43.3982V169.008H81.8685V192.782H82.0995Z" fill="#9E9E9E"/>
<path d="M67.2221 180.019C67.1013 179.733 66.9054 179.485 66.6552 179.301C66.405 179.118 66.1097 179.005 65.8006 178.975C65.4914 178.945 65.1799 178.998 64.8989 179.131C64.6178 179.263 64.3777 179.468 64.2039 179.725C64.1005 179.877 64.0236 180.046 63.9766 180.224H61.5519C61.5356 180.153 61.5126 180.085 61.4834 180.019C61.4562 179.956 61.4242 179.896 61.3877 179.838L62.2537 178.974C62.5151 179.123 62.8112 179.202 63.1124 179.201C63.343 179.202 63.5713 179.156 63.7836 179.066C64.099 178.935 64.3686 178.715 64.5581 178.431C64.7476 178.148 64.8485 177.814 64.848 177.474C64.847 177.244 64.8011 177.017 64.7127 176.805C64.5617 176.433 64.2853 176.126 63.9313 175.936C63.5772 175.745 63.1677 175.685 62.7736 175.764C62.3794 175.843 62.0254 176.057 61.7727 176.37C61.52 176.682 61.3844 177.072 61.3895 177.474C61.3891 177.705 61.4358 177.933 61.5266 178.145C61.5501 178.199 61.5772 178.255 61.6042 178.306L60.7274 179.181C60.4651 179.037 60.1698 178.964 59.8705 178.969C59.5713 178.973 59.2784 179.056 59.0207 179.208C58.763 179.36 58.5493 179.576 58.4007 179.835C58.252 180.094 58.1735 180.388 58.1729 180.687C58.173 181.055 58.2916 181.414 58.5112 181.71C58.7308 182.006 59.0398 182.225 59.3928 182.332C59.7458 182.44 60.1241 182.432 60.4722 182.309C60.8202 182.187 61.1197 181.956 61.3264 181.65C61.4308 181.499 61.5083 181.331 61.5555 181.153H63.9766C63.9958 181.223 64.0199 181.292 64.0488 181.358C64.0723 181.413 64.0988 181.467 64.1281 181.519L63.2496 182.394C62.9948 182.254 62.7086 182.181 62.4179 182.182C62.1868 182.182 61.9581 182.228 61.7449 182.317C61.3243 182.495 60.9916 182.833 60.8199 183.256C60.6481 183.679 60.6512 184.153 60.8285 184.573C60.9597 184.88 61.1764 185.143 61.4527 185.33C61.7379 185.522 62.074 185.624 62.4179 185.623C62.6486 185.624 62.8771 185.578 63.089 185.487C63.4003 185.354 63.6659 185.133 63.8531 184.851C64.0403 184.57 64.1409 184.24 64.1426 183.902C64.1419 183.672 64.0953 183.445 64.0055 183.233C63.9775 183.169 63.9461 183.106 63.9116 183.044L64.7758 182.182C65.0886 182.361 65.4501 182.439 65.8093 182.402C66.1685 182.366 66.5071 182.218 66.7775 181.979C67.0478 181.74 67.2362 181.423 67.316 181.071C67.3957 180.72 67.3629 180.352 67.2221 180.02V180.019ZM62.3818 177.164C62.4425 177.023 62.5427 176.902 62.6704 176.816C62.7795 176.742 62.9056 176.696 63.0371 176.683C63.1686 176.67 63.3012 176.691 63.4227 176.742C63.5655 176.802 63.6877 176.902 63.7745 177.031C63.8622 177.161 63.9086 177.315 63.908 177.472C63.9095 177.579 63.8886 177.685 63.8467 177.783C63.8061 177.879 63.747 177.966 63.6727 178.039C63.5984 178.113 63.5104 178.17 63.4137 178.21C63.3171 178.249 63.2136 178.268 63.1093 178.268C63.0049 178.267 62.9018 178.245 62.8057 178.205C62.6633 178.144 62.5411 178.044 62.4539 177.917C62.366 177.786 62.3201 177.631 62.3222 177.474C62.3212 177.367 62.3414 177.262 62.3818 177.164V177.164ZM60.6264 180.998C60.5654 181.139 60.4652 181.26 60.3378 181.346C60.2063 181.435 60.0511 181.483 59.8921 181.483C59.7862 181.482 59.6814 181.46 59.5836 181.42C59.4378 181.361 59.3125 181.261 59.2228 181.132C59.1349 181 59.0884 180.845 59.0893 180.687C59.0888 180.581 59.1103 180.476 59.1525 180.379C59.2121 180.236 59.3123 180.115 59.4405 180.028C59.5688 179.942 59.7195 179.896 59.8741 179.894C59.98 179.894 60.085 179.914 60.1826 179.955C60.3254 180.016 60.4476 180.117 60.5344 180.245C60.6082 180.355 60.6534 180.481 60.666 180.613C60.6786 180.744 60.6582 180.877 60.6066 180.998H60.6264ZM63.1521 184.211C63.0916 184.355 62.99 184.478 62.8601 184.564C62.7302 184.651 62.5776 184.697 62.4215 184.698C62.2911 184.697 62.1629 184.665 62.0478 184.604C61.9328 184.542 61.8344 184.454 61.7612 184.346C61.6719 184.215 61.6247 184.06 61.6259 183.902C61.6254 183.796 61.6468 183.691 61.689 183.594C61.7494 183.45 61.8512 183.327 61.9816 183.24C62.112 183.154 62.2651 183.108 62.4215 183.109C62.5274 183.109 62.6323 183.13 62.73 183.17C62.8741 183.231 62.9971 183.333 63.0835 183.463C63.1699 183.593 63.2157 183.746 63.2153 183.902C63.2137 184.009 63.1898 184.114 63.1449 184.211H63.1521ZM66.3724 180.998C66.3114 181.142 66.2097 181.264 66.0798 181.35C65.95 181.436 65.7977 181.482 65.6418 181.483C65.5352 181.482 65.4298 181.461 65.3315 181.42C65.1892 181.36 65.0676 181.26 64.9815 181.132C64.8922 181 64.845 180.845 64.8462 180.687C64.8456 180.581 64.8671 180.476 64.9093 180.379C64.9697 180.237 65.0692 180.116 65.1962 180.029C65.3061 179.956 65.4324 179.911 65.5639 179.898C65.6955 179.885 65.8282 179.905 65.9503 179.955C66.0925 180.017 66.2144 180.118 66.3021 180.245C66.3889 180.376 66.4353 180.53 66.4356 180.687C66.4338 180.794 66.4098 180.9 66.3652 180.998H66.3724Z" fill="#9E9E9E"/>
<path d="M83.4455 197.309H81.6883L83.1604 198.955C83.1911 198.988 83.2111 199.03 83.2179 199.075C83.2247 199.12 83.2181 199.166 83.1988 199.207C83.1795 199.249 83.1484 199.283 83.1095 199.307C83.0706 199.33 83.0255 199.342 82.98 199.34H47.2592L46.2056 200.347H86.6531L83.4455 197.312" fill="#C3C4FD"/>
<path d="M81.0655 197.309H66.4687H66.3893H49.411L47.7549 198.877H62.6079H62.6873H82.4691L81.0655 197.309Z" fill="#C3C4FD"/>
<path d="M81.6871 197.309H81.0647L82.4682 198.877H47.754L47.2651 199.34H82.986C83.0315 199.342 83.0766 199.33 83.1155 199.307C83.1544 199.283 83.1855 199.249 83.2048 199.207C83.2241 199.166 83.2307 199.12 83.2239 199.075C83.2171 199.03 83.1971 198.988 83.1664 198.955L81.6943 197.309" fill="#9E9E9E"/>
<path d="M83.4817 197.217H81.6037L81.6866 197.309H83.4438L86.6515 200.343H66.4674H66.388H46.2039L47.2647 199.34H47.1294L45.9712 200.437H66.388H66.4674H86.8842L83.4817 197.217Z" fill="#C3C5FD"/>
<path d="M80.9826 197.217H66.4687H66.3893H49.375L47.6196 198.877H47.7549L49.4111 197.309H66.3893H66.4687H81.0656L80.9826 197.217Z" fill="#C3C5FD"/>
<path d="M47.7551 198.877H47.6198L47.1309 199.34H47.2662L47.7551 198.877ZM81.6051 197.217H80.9827L81.0657 197.309H81.6881L81.6051 197.217Z" fill="#9E9E9E"/>
<path d="M29.8201 154.431C29.8201 155.034 29.6409 155.624 29.3053 156.125C28.9697 156.627 28.4927 157.017 27.9346 157.248C27.3765 157.479 26.7624 157.539 26.1699 157.422C25.5774 157.304 25.0332 157.014 24.606 156.587C24.1789 156.161 23.888 155.617 23.7701 155.026C23.6523 154.434 23.7127 153.821 23.9439 153.264C24.1751 152.707 24.5666 152.231 25.0689 151.896C25.5711 151.561 26.1617 151.382 26.7657 151.382C27.1668 151.382 27.564 151.461 27.9346 151.614C28.3052 151.767 28.6419 151.992 28.9255 152.275C29.2091 152.558 29.4341 152.894 29.5876 153.264C29.7411 153.634 29.8201 154.031 29.8201 154.431Z" fill="#C3C4FD"/>
<path d="M29.8211 154.431H29.7742C29.7738 155.125 29.5323 155.797 29.091 156.333C28.6497 156.87 28.0357 157.237 27.3537 157.372C26.6717 157.507 25.9639 157.402 25.3508 157.075C24.7378 156.747 24.2573 156.218 23.9914 155.576C23.7255 154.935 23.6906 154.221 23.8925 153.557C24.0945 152.893 24.5209 152.319 25.099 151.934C25.6772 151.548 26.3713 151.375 27.0633 151.443C27.7552 151.511 28.4021 151.816 28.8938 152.307C29.1736 152.586 29.3954 152.917 29.5465 153.281C29.6976 153.645 29.775 154.036 29.7742 154.431H29.868C29.868 153.818 29.6861 153.22 29.3453 152.71C29.0046 152.201 28.5202 151.804 27.9535 151.57C27.3869 151.336 26.7633 151.275 26.1617 151.394C25.5602 151.513 25.0076 151.808 24.5739 152.241C24.1401 152.674 23.8448 153.226 23.7251 153.826C23.6055 154.427 23.6669 155.05 23.9016 155.615C24.1363 156.181 24.5338 156.665 25.0438 157.005C25.5538 157.345 26.1534 157.527 26.7667 157.527C27.5892 157.527 28.3781 157.2 28.9596 156.62C29.5412 156.039 29.868 155.252 29.868 154.431H29.8211Z" fill="#C3C5FD"/>
<path d="M26.5615 153.017V155.845C26.5615 155.872 26.5668 155.898 26.5772 155.923C26.5875 155.948 26.6027 155.971 26.6218 155.99C26.6409 156.009 26.6635 156.024 26.6885 156.034C26.7134 156.045 26.7402 156.05 26.7672 156.05C26.7942 156.05 26.8209 156.045 26.8459 156.034C26.8708 156.024 26.8935 156.009 26.9126 155.99C26.9317 155.971 26.9469 155.948 26.9572 155.923C26.9675 155.898 26.9728 155.872 26.9728 155.845V153.017C26.9728 152.99 26.9675 152.963 26.9572 152.939C26.9469 152.914 26.9317 152.891 26.9126 152.872C26.8935 152.853 26.8708 152.838 26.8459 152.827C26.8209 152.817 26.7942 152.812 26.7672 152.812C26.7402 152.812 26.7134 152.817 26.6885 152.827C26.6635 152.838 26.6409 152.853 26.6218 152.872C26.6027 152.891 26.5875 152.914 26.5772 152.939C26.5668 152.963 26.5615 152.99 26.5615 153.017" fill="#9E9E9E"/>
<path d="M25.5395 154.912L26.5696 155.94C26.6083 155.978 26.6608 156 26.7155 156C26.7701 156 26.8224 155.978 26.861 155.939C26.8995 155.9 26.921 155.848 26.9208 155.793C26.9207 155.739 26.8988 155.687 26.86 155.648L25.8299 154.62C25.811 154.601 25.7883 154.585 25.7634 154.575C25.7385 154.564 25.7117 154.559 25.6847 154.559C25.6577 154.559 25.6309 154.564 25.606 154.575C25.581 154.585 25.5584 154.601 25.5395 154.62C25.5202 154.639 25.5048 154.662 25.4944 154.687C25.4839 154.712 25.4785 154.739 25.4785 154.766C25.4785 154.793 25.4839 154.82 25.4944 154.845C25.5048 154.87 25.5202 154.892 25.5395 154.912" fill="#9E9E9E"/>
<path d="M27.7063 154.62L26.6762 155.648C26.6569 155.667 26.6415 155.69 26.6311 155.715C26.6206 155.74 26.6152 155.767 26.6152 155.794C26.6152 155.821 26.6206 155.848 26.6311 155.873C26.6415 155.898 26.6569 155.921 26.6762 155.94C26.7153 155.978 26.7677 155.999 26.8223 155.999C26.8769 155.999 26.9294 155.978 26.9684 155.94L27.9986 154.912C28.0367 154.873 28.058 154.82 28.058 154.766C28.058 154.711 28.0367 154.659 27.9986 154.62C27.9795 154.601 27.9567 154.585 27.9316 154.575C27.9065 154.564 27.8796 154.559 27.8524 154.559C27.8253 154.559 27.7984 154.564 27.7733 154.575C27.7482 154.585 27.7254 154.601 27.7063 154.62" fill="#9E9E9E"/>
<path d="M67.1231 157.622C67.417 157.518 67.6875 157.357 67.9192 157.149C68.1508 156.94 68.339 156.688 68.473 156.407C68.6071 156.126 68.6843 155.821 68.7003 155.51C68.7163 155.199 68.6708 154.888 68.5663 154.595V154.586L80.8882 150.233L80.6844 150.305C80.7899 150.602 80.8359 150.916 80.8195 151.231C80.8032 151.545 80.725 151.854 80.5893 152.138C80.4536 152.422 80.263 152.677 80.0286 152.888C79.7942 153.099 79.5205 153.261 79.223 153.367L68.2362 157.248L67.0419 157.662C66.7322 157.772 66.404 157.819 66.0759 157.802C65.7478 157.785 65.4263 157.704 65.1297 157.563C64.8332 157.421 64.5674 157.223 64.3476 156.98C64.1278 156.736 63.9582 156.451 63.8486 156.142L59.3096 143.338L65.9757 140.982L68.1099 147.003L74.0489 144.902L76.4935 151.798L67.1285 157.622" fill="white"/>
<path d="M67.1939 157.842C67.5173 157.729 67.8152 157.553 68.0702 157.324C68.3253 157.096 68.5325 156.819 68.6801 156.51C68.8276 156.201 68.9125 155.866 68.93 155.525C68.9474 155.183 68.8969 154.841 68.7815 154.519V154.519L68.5632 154.596L68.6408 154.816L80.9681 150.458L80.813 150.022L80.3908 150.171L80.4684 150.389C80.5638 150.657 80.6054 150.941 80.5907 151.225C80.5759 151.509 80.5052 151.787 80.3825 152.044C80.2598 152.301 80.0876 152.531 79.8757 152.721C79.6639 152.911 79.4165 153.057 79.1478 153.152L68.1609 157.033L66.9666 157.455C66.3989 157.655 65.7746 157.623 65.2309 157.364C64.6872 157.105 64.2687 156.642 64.0674 156.075L59.6059 143.486L65.8354 141.272L67.9697 147.293L73.9033 145.191L76.2703 151.868L76.7069 151.715L74.1811 144.599L68.2475 146.702L66.1115 140.687L59.0088 143.197L63.6309 156.221C63.8193 156.753 64.1683 157.214 64.63 157.54C65.0917 157.866 65.6433 158.042 66.2089 158.042C66.5164 158.041 66.8216 157.987 67.1109 157.883L68.307 157.462L79.2939 153.581C79.6206 153.466 79.9215 153.289 80.1794 153.059C80.4372 152.828 80.647 152.549 80.7967 152.238C80.9463 151.926 81.0329 151.588 81.0515 151.243C81.0701 150.898 81.0203 150.553 80.905 150.227L80.6867 150.304L80.7643 150.522L80.9681 150.45L80.813 150.014L68.2764 154.445L68.3576 154.672C68.4407 154.903 68.4828 155.147 68.482 155.392C68.4814 155.835 68.3435 156.266 68.0873 156.628C67.8312 156.989 67.4693 157.262 67.0514 157.41L67.1939 157.842Z" fill="#9E9E9E"/>
<path d="M73.1542 136.805L67.0293 138.968L69.1978 145.083L75.3227 142.92L73.1542 136.805Z" fill="#C3C4FD"/>
<path d="M69.1776 145.143L69.2208 145.127L69.1776 145.143ZM69.2064 145.084L67.0415 138.969L73.1754 136.808L75.3403 142.931L69.2154 145.093L69.2064 145.084ZM73.2277 136.696L66.9116 138.913L69.1397 145.202L69.1848 145.186L75.4395 142.976L73.2097 136.687" fill="#C3C5FD"/>
<path d="M39.0497 127.189V137.365C39.0504 137.405 39.0433 137.444 39.0288 137.481C39.0143 137.517 38.9927 137.551 38.9652 137.579C38.9377 137.607 38.9049 137.63 38.8686 137.646C38.8323 137.661 38.7933 137.669 38.7539 137.67H32.8761C32.8367 137.67 32.7976 137.662 32.7611 137.647C32.7247 137.632 32.6916 137.61 32.6637 137.582C32.6359 137.554 32.6139 137.521 32.5989 137.484C32.584 137.448 32.5764 137.408 32.5767 137.369V127.189C32.5764 127.15 32.584 127.111 32.5989 127.074C32.6139 127.038 32.6359 127.005 32.6637 126.977C32.6916 126.949 32.7247 126.927 32.7611 126.912C32.7976 126.896 32.8367 126.889 32.8761 126.889H38.7539C38.833 126.89 38.9085 126.922 38.9639 126.978C39.0194 127.034 39.0502 127.11 39.0497 127.189Z" fill="white"/>
<path d="M39.0522 127.189H38.8213V137.365C38.8216 137.375 38.82 137.384 38.8166 137.393C38.8132 137.401 38.808 137.409 38.8015 137.416C38.7884 137.429 38.7709 137.436 38.7528 137.436H32.8787C32.8699 137.436 32.8612 137.434 32.8532 137.431C32.8451 137.427 32.8378 137.422 32.8317 137.416C32.8186 137.402 32.8109 137.384 32.8101 137.365V127.189C32.8112 127.171 32.8189 127.154 32.8317 127.141C32.8378 127.135 32.8451 127.13 32.8532 127.126C32.8612 127.123 32.8699 127.121 32.8787 127.121H38.7564C38.7654 127.121 38.7745 127.122 38.7829 127.126C38.7913 127.129 38.799 127.134 38.8054 127.141C38.8118 127.147 38.8168 127.155 38.8202 127.163C38.8236 127.171 38.8252 127.18 38.8249 127.189H39.2886C39.2886 127.048 39.2328 126.912 39.1332 126.811C39.0337 126.71 38.8983 126.652 38.7564 126.649H32.8787C32.8081 126.649 32.7382 126.663 32.6731 126.69C32.6081 126.718 32.5491 126.758 32.4997 126.808C32.4503 126.858 32.4115 126.918 32.3855 126.984C32.3595 127.049 32.3468 127.119 32.3483 127.189V137.365C32.3482 137.507 32.4038 137.643 32.5029 137.744C32.6021 137.845 32.737 137.903 32.8787 137.906H38.7564C38.8983 137.903 39.0337 137.845 39.1332 137.744C39.2328 137.643 39.2886 137.507 39.2886 137.365V127.189H39.0522Z" fill="#9E9E9E"/>
<path d="M32.5767 128.091H39.0533V127.627H32.5767" fill="#9E9E9E"/>
<path d="M32.5767 136.82H39.0533V136.359H32.5767V136.82Z" fill="#9E9E9E"/>
<path d="M40.698 133.356H34.925C34.8455 133.356 34.7694 133.325 34.7132 133.269C34.657 133.213 34.6255 133.137 34.6255 133.057V129.668C34.6255 129.589 34.657 129.513 34.7132 129.456C34.7694 129.4 34.8455 129.369 34.925 129.369H40.698C40.7775 129.369 40.8536 129.4 40.9098 129.456C40.966 129.513 40.9975 129.589 40.9975 129.668V133.057C40.9975 133.137 40.966 133.213 40.9098 133.269C40.8536 133.325 40.7775 133.356 40.698 133.356" fill="#C3C4FD"/>
<path d="M40.6952 133.356V133.124H34.9221C34.913 133.124 34.9041 133.122 34.8957 133.119C34.8873 133.116 34.8797 133.11 34.8734 133.104C34.867 133.098 34.8619 133.091 34.8585 133.083C34.8551 133.075 34.8534 133.066 34.8535 133.057V129.668C34.8535 129.659 34.8553 129.65 34.8587 129.641C34.8622 129.633 34.8672 129.626 34.8736 129.619C34.88 129.613 34.8875 129.608 34.8959 129.604C34.9042 129.601 34.9131 129.599 34.9221 129.599H40.6952C40.7042 129.599 40.7131 129.601 40.7214 129.604C40.7297 129.608 40.7373 129.613 40.7436 129.619C40.75 129.626 40.7551 129.633 40.7585 129.641C40.7619 129.65 40.7637 129.659 40.7637 129.668V133.057C40.7638 133.066 40.7622 133.075 40.7587 133.083C40.7553 133.091 40.7503 133.098 40.7439 133.104C40.7375 133.11 40.7299 133.116 40.7216 133.119C40.7132 133.122 40.7042 133.124 40.6952 133.124V133.587C40.7657 133.588 40.8359 133.576 40.9015 133.55C40.9671 133.524 41.0268 133.485 41.0772 133.436C41.1276 133.386 41.1677 133.327 41.195 133.262C41.2223 133.197 41.2364 133.128 41.2364 133.057V129.668C41.2379 129.596 41.2249 129.525 41.1982 129.459C41.1715 129.393 41.1317 129.333 41.0812 129.282C41.0306 129.232 40.9703 129.192 40.904 129.165C40.8377 129.139 40.7666 129.126 40.6952 129.127H34.9221C34.7785 129.127 34.6409 129.184 34.5394 129.286C34.4379 129.387 34.3809 129.524 34.3809 129.668V133.057C34.3837 133.199 34.442 133.333 34.5432 133.432C34.6444 133.531 34.7804 133.587 34.9221 133.587H40.6952V133.356" fill="#9E9E9E"/>
<path d="M37.4383 130.893H39.8124C39.8446 130.896 39.877 130.892 39.9076 130.882C39.9382 130.871 39.9662 130.855 39.9901 130.833C40.0139 130.811 40.0329 130.785 40.0459 130.755C40.0589 130.726 40.0656 130.694 40.0656 130.661C40.0656 130.629 40.0589 130.597 40.0459 130.568C40.0329 130.538 40.0139 130.512 39.9901 130.49C39.9662 130.468 39.9382 130.451 39.9076 130.441C39.877 130.431 39.8446 130.427 39.8124 130.43H37.4383C37.4061 130.427 37.3737 130.431 37.3431 130.441C37.3125 130.451 37.2844 130.468 37.2606 130.49C37.2368 130.512 37.2178 130.538 37.2048 130.568C37.1918 130.597 37.1851 130.629 37.1851 130.661C37.1851 130.694 37.1918 130.726 37.2048 130.755C37.2178 130.785 37.2368 130.811 37.2606 130.833C37.2844 130.855 37.3125 130.871 37.3431 130.882C37.3737 130.892 37.4061 130.896 37.4383 130.893Z" fill="#9E9E9E"/>
<path d="M37.4383 131.864H39.8124C39.8446 131.867 39.877 131.863 39.9076 131.853C39.9382 131.842 39.9662 131.826 39.9901 131.804C40.0139 131.782 40.0329 131.755 40.0459 131.726C40.0589 131.696 40.0656 131.664 40.0656 131.632C40.0656 131.6 40.0589 131.568 40.0459 131.538C40.0329 131.509 40.0139 131.482 39.9901 131.46C39.9662 131.439 39.9382 131.422 39.9076 131.412C39.877 131.401 39.8446 131.397 39.8124 131.4H37.4383C37.4061 131.397 37.3737 131.401 37.3431 131.412C37.3125 131.422 37.2844 131.439 37.2606 131.46C37.2368 131.482 37.2178 131.509 37.2048 131.538C37.1918 131.568 37.1851 131.6 37.1851 131.632C37.1851 131.664 37.1918 131.696 37.2048 131.726C37.2178 131.755 37.2368 131.782 37.2606 131.804C37.2844 131.826 37.3125 131.842 37.3431 131.853C37.3737 131.863 37.4061 131.867 37.4383 131.864Z" fill="#9E9E9E"/>
<path d="M45.7387 134.207L45.3779 134.331L45.5349 134.768L45.7351 134.697V134.207" fill="#9E9E9E"/>
<path d="M41.2273 133.092H41.1804C41.0421 133.092 40.9086 133.142 40.8047 133.234C40.7008 133.325 40.6337 133.451 40.6157 133.588H40.6987C40.8392 133.587 40.9738 133.531 41.074 133.433C41.1652 133.342 41.2198 133.22 41.2273 133.092" fill="#9E9E9E"/>
<path d="M39.4715 135.365H39.2911V137.366C39.2911 137.507 39.2353 137.644 39.1358 137.745C39.0362 137.846 38.9009 137.904 38.7589 137.906H37.0107C37.0279 137.992 37.0746 138.07 37.1427 138.125C37.2109 138.181 37.2962 138.211 37.3842 138.21H39.4715C39.5722 138.21 39.6685 138.17 39.7395 138.098C39.8105 138.027 39.8504 137.931 39.8504 137.83V135.745C39.8506 135.695 39.841 135.646 39.822 135.599C39.8031 135.553 39.7752 135.511 39.74 135.476C39.7048 135.441 39.663 135.413 39.6169 135.394C39.5708 135.375 39.5214 135.365 39.4715 135.365" fill="#A77FFA"/>
<path d="M38.821 136.82H37.0024V137.436H38.7524C38.7706 137.436 38.788 137.429 38.8011 137.416C38.8077 137.41 38.8128 137.402 38.8162 137.393C38.8197 137.384 38.8213 137.375 38.821 137.366V136.825V136.82ZM38.821 135.37H37.5725C37.4215 135.371 37.2768 135.431 37.1699 135.537C37.0631 135.644 37.0029 135.788 37.0024 135.939V136.363H38.821V135.365" fill="#A77FFA"/>
<path d="M39.2863 135.365H38.8227V136.357H39.05V136.82H38.8191V137.36C38.8194 137.37 38.8178 137.379 38.8143 137.388C38.8109 137.396 38.8058 137.404 38.7992 137.411C38.7862 137.423 38.7687 137.43 38.7505 137.431H37.0005V137.823C36.9979 137.847 36.9979 137.87 37.0005 137.893H38.7433C38.8853 137.891 39.0206 137.833 39.1202 137.732C39.2197 137.631 39.2755 137.495 39.2755 137.353V135.365" fill="#9E9E9E"/>
<path d="M39.0519 136.359H38.821H37.0024V136.82H38.821H39.0519V136.359Z" fill="#9E9E9E"/>
<path d="M43.0793 139.062H40.9902C40.8897 139.062 40.7933 139.102 40.7223 139.173C40.6512 139.244 40.6113 139.34 40.6113 139.441V141.335C40.6113 141.436 40.6512 141.532 40.7222 141.604C40.7932 141.675 40.8895 141.715 40.9902 141.715H42.8881C43.0393 141.715 43.1843 141.656 43.2912 141.549C43.3981 141.442 43.4582 141.297 43.4582 141.146V139.441C43.4582 139.34 43.4183 139.244 43.3472 139.173C43.2762 139.102 43.1798 139.062 43.0793 139.062Z" fill="#A77FFA"/>
<path d="M39.4704 139.063H37.3831C37.3332 139.062 37.2837 139.072 37.2376 139.091C37.1914 139.11 37.1494 139.137 37.114 139.173C37.0787 139.208 37.0506 139.25 37.0315 139.296C37.0123 139.342 37.0024 139.391 37.0024 139.441V141.146C37.0029 141.297 37.0631 141.442 37.1699 141.548C37.2768 141.655 37.4215 141.715 37.5725 141.715H39.4704C39.5711 141.715 39.6674 141.675 39.7384 141.604C39.8094 141.532 39.8493 141.436 39.8493 141.335V139.441C39.8493 139.34 39.8094 139.244 39.7383 139.173C39.6673 139.102 39.5709 139.063 39.4704 139.063Z" fill="#A77FFA"/>
<path d="M45.1674 133.092H41.2273C41.2198 133.22 41.1652 133.341 41.074 133.432C40.9738 133.53 40.8392 133.586 40.6987 133.587H40.6157C40.6157 133.611 40.6157 133.636 40.6157 133.659V137.639C40.6152 137.79 40.6744 137.934 40.7801 138.041C40.8859 138.148 41.0298 138.209 41.1804 138.21H45.1674C45.3185 138.21 45.4632 138.15 45.57 138.043C45.6768 137.937 45.737 137.792 45.7375 137.641V134.697L45.5373 134.767L45.3803 134.331L45.7411 134.207V133.666C45.7406 133.516 45.6804 133.371 45.5735 133.265C45.4667 133.159 45.3219 133.099 45.171 133.099" fill="#A77FFA"/>
</g>
<rect x="86.9854" y="179.71" width="56.5797" height="18.5507" rx="1.85507" fill="#E7E7E7"/>
<rect x="96.0288" y="187.13" width="38.4928" height="3.71015" rx="1.85507" fill="white" fill-opacity="0.6"/>
<path d="M10 16H207.565C211.663 16 214.986 19.3222 214.986 23.4203V41.971H10V16Z" fill="#F9F9FA"/>
<circle cx="22.0579" cy="28.5218" r="3.24638" fill="#FF5F57"/>
<circle cx="31.3338" cy="28.5218" r="3.24638" fill="#FEBC2E"/>
<circle cx="40.6087" cy="28.5218" r="3.24638" fill="#D9D9D9"/>
<path d="M203.556 28.6269H203.379V27.9256C203.379 27.5507 203.229 27.1912 202.964 26.9262C202.698 26.6611 202.337 26.5122 201.962 26.5122C201.586 26.5122 201.225 26.6611 200.96 26.9262C200.694 27.1912 200.544 27.5507 200.544 27.9256V28.6269H200.367C200.226 28.6269 200.091 28.6827 199.992 28.7821C199.892 28.8815 199.836 29.0163 199.836 29.1569V30.929C199.836 31.0696 199.892 31.2044 199.992 31.3038C200.091 31.4032 200.226 31.4591 200.367 31.4591H203.556C203.697 31.4591 203.832 31.4032 203.932 31.3038C204.031 31.2044 204.087 31.0696 204.087 30.929V29.1569C204.087 29.0163 204.031 28.8815 203.932 28.7821C203.832 28.6827 203.697 28.6269 203.556 28.6269V28.6269ZM201.253 27.9256C201.253 27.7382 201.328 27.5584 201.461 27.4259C201.593 27.2934 201.774 27.2189 201.962 27.2189C202.149 27.2189 202.33 27.2934 202.463 27.4259C202.595 27.5584 202.67 27.7382 202.67 27.9256V28.6269H201.253V27.9256Z" fill="#CECECF"/>
<rect x="70.29" y="26.6665" width="92.7536" height="3.71015" rx="1.85507" fill="#C4C4C4" fill-opacity="0.5"/>
<line x1="10" y1="41.7396" x2="214.986" y2="41.7396" stroke="#E7E7E7" stroke-width="0.463768"/>
<path d="M32.2661 53.4493H32.9869V51.3535L34.0354 53.2549L35.0839 51.3535V53.4493H35.8047V50.1003H35.0839L34.0354 52.0017L32.9869 50.1003H32.2661V53.4493Z" fill="black"/>
<path d="M37.7271 53.5142C38.4916 53.5142 39.1032 52.9092 39.1032 52.1962C39.1032 51.4832 38.4697 50.8782 37.7271 50.8782C36.9626 50.8782 36.3291 51.4832 36.3291 52.1962C36.3509 52.9092 36.9844 53.5142 37.7271 53.5142ZM37.7271 52.9092C37.3339 52.9092 37.0281 52.5851 37.0281 52.1962C37.0281 51.8072 37.3557 51.4832 37.7271 51.4832C38.0984 51.4832 38.4261 51.8072 38.4261 52.1962C38.4261 52.5851 38.1203 52.9092 37.7271 52.9092Z" fill="black"/>
<path d="M39.4961 53.4492H41.7241V52.8442H40.4353L41.7241 51.4398V50.9429H39.5398V51.5479H40.7848L39.4961 52.9523V53.4492V53.4492Z" fill="black"/>
<path d="M42.5983 50.5972C42.8167 50.5972 42.9914 50.4243 42.9914 50.2083C42.9914 50.0138 42.8167 49.8193 42.5983 49.8193C42.3798 49.8193 42.2051 49.9922 42.2051 50.2083C42.2051 50.4027 42.358 50.5972 42.5983 50.5972ZM42.2269 53.4492H42.9477V50.9213H42.2269V53.4492Z" fill="black"/>
<path d="M43.5811 53.4492H44.3019V50.0354H43.5811V53.4492Z" fill="black"/>
<path d="M44.9136 53.4492H45.6344V50.0354H44.9136V53.4492Z" fill="black"/>
<path d="M47.404 50.8782C47.0545 50.8782 46.705 50.9862 46.3337 51.1591L46.5739 51.6344C46.7705 51.5264 46.989 51.4615 47.2292 51.4615C47.6443 51.4615 47.819 51.6992 47.819 51.9585V52.0017C47.6006 51.9153 47.3822 51.8721 47.1637 51.8721C46.574 51.8721 46.1152 52.2178 46.1152 52.7147C46.1152 53.1901 46.5303 53.5142 47.0763 53.5142C47.3603 53.5142 47.6443 53.4061 47.819 53.2117V53.471H48.518V51.9585C48.518 51.2887 48.0593 50.8782 47.404 50.8782ZM47.2511 53.0172C47.0108 53.0172 46.8142 52.8876 46.8142 52.6931C46.8142 52.4987 47.0108 52.3474 47.2729 52.3474C47.4695 52.3474 47.6661 52.3906 47.819 52.4338V52.6715C47.7753 52.8876 47.5132 53.0172 47.2511 53.0172Z" fill="black"/>
<path d="M38.4916 54.9834L36.2199 60.493L33.9482 54.9834H32.0479L35.2588 62.8049H37.1592L40.3701 54.9834H38.4916Z" fill="black"/>
<path d="M41.3094 62.8048H42.9914V60.2769H44.848C46.5518 60.2769 47.8187 59.1749 47.8187 57.6409C47.8187 56.0852 46.5518 55.0049 44.848 55.0049H41.2876V62.8048H41.3094ZM42.9914 58.7212V56.5173H44.6733C45.5033 56.5173 46.0931 56.9495 46.0931 57.6193C46.0931 58.2891 45.5252 58.7212 44.6733 58.7212H42.9914V58.7212Z" fill="black"/>
<path d="M48.9766 62.8049H50.6585V57.749L54.4592 62.8049H56.163V54.9834H54.4592V60.0393L50.6585 54.9834H48.9766V62.8049Z" fill="black"/>
<path fill-rule="evenodd" clip-rule="evenodd" d="M24.512 51.2671C23.9659 51.2671 23.5291 51.6992 23.5291 52.2394C23.5291 52.7795 23.9659 53.2117 24.512 53.2117C25.0581 53.2117 25.4949 52.7795 25.4949 52.2394C25.4949 51.6992 25.0581 51.2671 24.512 51.2671ZM22.2185 52.2394C22.2185 50.9862 23.2451 49.9707 24.512 49.9707C25.7789 49.9707 26.8055 50.9862 26.8055 52.2394C26.8055 53.4926 25.7789 54.5081 24.512 54.5081C24.1188 54.5081 23.7475 54.4 23.4198 54.2272L22.4369 55.1995C22.5024 55.3291 22.568 55.4804 22.6116 55.6316H26.4124C26.6963 54.7025 27.57 54.0111 28.6185 54.0111C29.8854 54.0111 30.9121 55.0266 30.9121 56.2798C30.9121 57.533 29.8854 58.5485 28.6185 58.5485C28.2253 58.5485 27.854 58.4404 27.5264 58.2676L26.5434 59.2399C26.7182 59.564 26.8274 59.9313 26.8274 60.3202C26.8274 61.5734 25.8007 62.5889 24.5338 62.5889C23.2669 62.5889 22.2403 61.5734 22.2403 60.3202C22.2403 59.067 23.2669 58.0515 24.5338 58.0515C24.927 58.0515 25.2984 58.1596 25.626 58.3324L26.6089 57.3601C26.5434 57.2305 26.4779 57.0792 26.4342 56.928H22.6335C22.3495 57.8571 21.4758 58.5485 20.4273 58.5485C19.1604 58.5485 18.1338 57.533 18.1338 56.2798C18.1338 55.0266 19.1604 54.0111 20.4273 54.0111C20.8205 54.0111 21.1918 54.1191 21.5195 54.292L22.5024 53.3197C22.3058 52.9956 22.2185 52.6283 22.2185 52.2394ZM23.5291 60.3634C23.5291 59.8233 23.9659 59.3911 24.512 59.3911C25.0581 59.3911 25.4949 59.8233 25.4949 60.3634C25.4949 60.9036 25.0581 61.3357 24.512 61.3357C23.9659 61.3357 23.5291 60.9036 23.5291 60.3634ZM20.4055 55.3291C19.8594 55.3291 19.4225 55.7612 19.4225 56.3014C19.4225 56.8416 19.8594 57.2737 20.4055 57.2737C20.9516 57.2737 21.3884 56.8416 21.3884 56.3014C21.3884 55.7612 20.9516 55.3291 20.4055 55.3291ZM27.6356 56.3014C27.6356 55.7612 28.0724 55.3291 28.6185 55.3291C29.1646 55.3291 29.6015 55.7612 29.6015 56.3014C29.6015 56.8416 29.1646 57.2737 28.6185 57.2737C28.0724 57.2737 27.6356 56.8416 27.6356 56.3014Z" fill="black"/>
<rect x="28.0874" y="79.5366" width="29.2174" height="3.71015" rx="1.85507" fill="#C4C4C4"/>
<rect x="28.0874" y="88.3479" width="43.5942" height="3.71015" rx="1.85507" fill="#C4C4C4" fill-opacity="0.5"/>
<rect x="28.0874" y="97.1594" width="43.5942" height="3.71015" rx="1.85507" fill="#C4C4C4" fill-opacity="0.5"/>
<rect x="28.0874" y="105.971" width="43.5942" height="3.71015" rx="1.85507" fill="#C4C4C4" fill-opacity="0.5"/>
<rect x="28.0874" y="114.782" width="43.5942" height="3.71015" rx="1.85507" fill="#C4C4C4" fill-opacity="0.5"/>
<rect x="77.2461" y="59.1304" width="128.928" height="110.841" rx="1.85507" fill="#E7E7E7"/>
<circle cx="22.5216" cy="81.3917" r="1.85507" fill="#0060DF"/>
<circle cx="22.5216" cy="90.203" r="1.85507" fill="#D9D9D9"/>
<circle cx="22.5216" cy="99.0145" r="1.85507" fill="#D9D9D9"/>
<circle cx="22.5216" cy="107.826" r="1.85507" fill="#D9D9D9"/>
<circle cx="22.5216" cy="116.638" r="1.85507" fill="#D9D9D9"/>
<rect x="77.2461" y="51.7102" width="92.7536" height="3.71015" rx="1.85507" fill="#C4C4C4" fill-opacity="0.5"/>
<rect x="86.9854" y="67.9419" width="110.377" height="3.71015" rx="1.85507" fill="#C4C4C4" fill-opacity="0.5"/>
<rect x="86.9854" y="74.4348" width="100.174" height="3.71015" rx="1.85507" fill="#C4C4C4" fill-opacity="0.5"/>
<rect x="86.9854" y="81.3911" width="103.42" height="3.71015" rx="1.85507" fill="#C4C4C4" fill-opacity="0.5"/>
<rect x="86.9854" y="93.4492" width="58.4348" height="3.71015" rx="1.85507" fill="#C4C4C4" fill-opacity="0.5"/>
</g>
<defs>
<clipPath id="clip0_3268_8519">
<rect x="10" y="16" width="204.986" height="192" rx="7.42029" fill="white"/>
</clipPath>
</defs>
</svg>
