<svg width="64" height="64" viewBox="0 0 64 64" fill="none" xmlns="http://www.w3.org/2000/svg"><path fill-rule="evenodd" clip-rule="evenodd" d="M42 56H22v-2c3.066-.732 4.772-3.144 4.994-6h10.012c.222 2.854 1.928 5.268 4.994 6v2zm12-10c.53 0 1.04-.21 1.414-.586C55.79 45.04 56 44.53 56 44V10c0-.53-.21-1.04-.586-1.414A1.995 1.995 0 0054 8H10c-.53 0-1.04.21-1.414.586A1.995 1.995 0 008 10v34c0 .53.21 1.04.586 1.414C8.96 45.79 9.47 46 10 46h44zm-22-6.838a2 2 0 11-.001 4.001A2 2 0 0132 39.162zM52 12H12v24h40V12z" fill="#000"/><path d="M38 27.738c-.51 1.52-2.04 4.212-3.616 4.241-1.045.02-1.381-.635-2.576-.635-1.194 0-1.568.615-2.556.655-1.671.066-4.252-3.885-4.252-7.33 0-3.165 2.15-4.733 4.029-4.762 1.007-.019 1.959.697 2.573.697.617 0 1.773-.86 2.987-.735.509.023 1.937.21 2.853 1.585-2.431 1.628-2.052 5.033.558 6.284zM34.606 16c-1.837.076-3.336 2.053-3.127 3.688 1.698.135 3.327-1.817 3.127-3.688z" fill="#000" /></svg>
