<svg width="65" height="64" viewBox="0 0 65 64" fill="none" xmlns="http://www.w3.org/2000/svg"><path d="M20.395 44c0 1.1.9 2 2 2h2v7c0 1.66 1.34 3 3 3s3-1.34 3-3v-7h4v7c0 1.66 1.34 3 3 3s3-1.34 3-3v-7h2c1.1 0 2-.9 2-2V24h-24v20zm-5-20c-1.66 0-3 1.34-3 3v14c0 1.66 1.34 3 3 3s3-1.34 3-3V27c0-1.66-1.34-3-3-3zm34 0c-1.66 0-3 1.34-3 3v14c0 1.66 1.34 3 3 3s3-1.34 3-3V27c0-1.66-1.34-3-3-3zm-9.94-11.68l2.6-2.6c.4-.4.4-1.02 0-1.42a.99.99 0 00-1.42 0l-2.96 2.96c-1.58-.8-3.38-1.26-5.28-1.26-1.92 0-3.72.46-5.32 1.26l-2.98-2.96a.99.99 0 00-1.42 0 .99.99 0 000 1.42l2.62 2.62c-2.96 2.18-4.9 5.68-4.9 9.66h24c0-3.98-1.94-7.5-4.94-9.68zM28.395 18h-2v-2h2v2zm10 0h-2v-2h2v2z" fill="#0c0c0d"/></svg>
