<svg width="64" height="64" viewBox="0 0 64 64" fill="none" xmlns="http://www.w3.org/2000/svg"><path d="M49.162 48.098c-1.1-.892-.672-2.862-1.814-3.834 1.106-6.73-1.994-12.662-5.69-16.464-3.102-3.19-2.102-6.294-2.102-8.98 0-4.292-1.762-8.82-7.1-8.82-5.706 0-7.27 4.76-7.326 7.476-.136 6.524 1.318 8.22-2.5 12.968-4.492 5.586-5.154 11.158-4.14 14.114-.474.552-1.114 1.164-2.31 1.67-3.304 1.44-.882 3.85-1.796 5.56a3.14 3.14 0 00-.384 1.48c0 1.5 1.192 2.798 3.358 2.604 2.922-.26 5.618 1.81 7.362 1.81 1.54 0 2.804-.876 3.392-2.082 2.754-.678 6.154-.592 8.906.118C37.512 57.1 38.852 58 40.342 58c3.262 0 3.89-3.698 7.632-4.95C49.322 52.6 50 51.292 50 50.074c0-.78-.278-1.522-.838-1.976zm-18.294-20.93c-.638 0-1.166-.516-2-1.136-1.056-.784-2.13-1.236-2.118-2.06 0-.566.758-.74 1.738-1.362 1.052-.666 1.462-1.342 2.498-1.342 1.06 0 1.38.536 2.82 1.158 1.416.614 2.402.854 2.402 1.546 0 .71-1.482 1.218-2.316 1.736-1.226.756-1.856 1.46-3.024 1.46zm3.33-10.43c1.764.282 1.962 3.382 1.118 4.908l-.71-.29c.368-1.086.362-2.874-.87-2.988-.782-.072-1.286.96-1.394 1.844a3.373 3.373 0 00-1.046-.254c.124-1.846 1.316-3.474 2.902-3.22zm-6.806.662c1.352-.336 2.15 1.236 2.156 2.87l-.62.38c-.084-.686-.39-1.794-1.158-1.558-.822.256-.688 2.166-.23 2.558l-.612.34c-.84-1.414-.838-4.266.464-4.59zm-4.23 38.486c-3.926-1.786-5.26-1.38-6.01-1.38-1.554 0-2.062-1.158-1.478-2.254.496-.93.342-1.904.22-2.686-.188-1.198-.222-1.588.956-2.104 1.63-.692 2.354-1.582 2.894-2.248 1.516-1.874 3.046 1.074 4.3 3.7.814 1.702 2.416 2.564 2.91 4.45.454 1.742-1.42 3.602-3.792 2.522zm13.974-3.748c-2.768 1.346-6.294 1.964-8.932.598-.39-1.126-1.014-1.854-1.686-2.586 1.078-.284 1.878-1.628.92-2.978-1.022-1.442-3.11-2.448-5.22-4.08-1.974-1.526-2.598-5.288.09-9.492-1.31 3.724-.544 7.156.114 8.138.136-1.976.292-5.276 2.992-9.23 1.362-1.996 1.382-4.632 1.412-6.28l1.24.848c.912.674 1.676 1.416 2.772 1.416 1.62 0 2.516-.932 3.764-1.706.488-.3 1.226-.604 1.846-1.026 1.04 4.952 5.348 10.908 5.59 14.3 1.002-2.064-.284-7.028-.284-7.028 1.684 2.57 1.818 4.712 1.892 7.34 1.178.482 2.442 1.738 2.558 3.392l-.49-.056c-.252-1.838-5.214-4.538-5.66-1.078-2.38.362-1.514 4.132-1.994 6.576-.22 1.118-.628 2.002-.924 2.932zm9.692-.082c-1.97.76-3.3 2.374-4.214 3.376-1.76 1.932-4.088 1.006-4.336-.802-.262-1.932.72-2.986 1.144-5.148.386-1.974-.046-5.012.862-5.336.59 3.506 4.132 2.032 4.94 1.076 1.314 0 1.424.444 1.718 1.674.184.77.438 1.418 1.156 2.18.836.894.58 2.266-1.27 2.98zm-16-26.012c-1.302 0-2.276-.866-3.068-1.538-.406-.342.1-.974.506-.63.774.656 1.554 1.35 2.562 1.35 1.214 0 2.284-1.038 3.734-1.61.494-.194.776.57.286.764-1.408.554-2.538 1.664-4.02 1.664z" fill="#000" /></svg>
