<svg width="60" height="60" fill="none" xmlns="http://www.w3.org/2000/svg"><path fill-rule="evenodd" clip-rule="evenodd" d="M19.128 7.5h21.126c2.881 0 5.186 2.438 4.994 5.25v34.688c0 2.812-2.305 5.062-5.186 5.062H18.936c-2.881 0-5.186-2.438-5.186-5.25V12.562c0-2.812 2.497-5.062 5.378-5.062Zm6.146 42.563h8.45c.577 0 1.153-.563 1.153-.938 0-.75-.384-1.125-.96-1.125h-8.451c-.768 0-1.153.375-1.153.938 0 .75.385 1.124.96 1.124Zm14.788-4.313c.577 0 .96-.375.96-.938V12.939c0-.563-.383-.938-.96-.938h-20.55c-.576 0-.96.375-.96.938v31.874c0 .563.384.938.96.938h20.55Zm-6.857-7.676c2.022-.036 3.985-3.367 4.64-5.248-3.35-1.549-3.836-5.762-.715-7.777-1.176-1.7-3.009-1.933-3.661-1.96-.953-.096-1.878.265-2.633.56-.48.187-.893.348-1.2.348-.342 0-.764-.166-1.238-.353-.622-.244-1.331-.523-2.064-.51-2.411.036-5.17 1.977-5.17 5.894 0 4.263 3.311 9.153 5.456 9.07.589-.022 1.008-.199 1.44-.381.5-.21 1.019-.43 1.84-.43.784 0 1.28.213 1.756.417.456.195.894.383 1.55.37ZM33.49 18.3c-2.357.094-4.28 2.54-4.012 4.563 2.178.168 4.269-2.248 4.012-4.563Z" fill="#6D6D6E"/></svg>
