<svg width="46" height="56" fill="none" xmlns="http://www.w3.org/2000/svg"><g clip-path="url(#a)" fill="#6D6D6E"><path d="M42.54 17.53c-.97-2.32-2.93-4.82-4.46-5.6a22.77 22.77 0 0 1 2.25 6.71v.03c-2.51-6.24-6.78-8.76-10.26-14.23a11.5 11.5 0 0 1-.52-.86l-.25-.45a4.26 4.26 0 0 1-.34-.87c0-.03-.01-.06-.04-.06H28.86c-5.59 3.25-7.5 9.27-7.66 12.28.26-.02.52-.05.78-.05 4.17 0 7.81 2.29 9.76 5.66a7.76 7.76 0 0 0-5.37-1.3c8 3.98 5.86 17.7-5.23 17.18-.98-.05-1.97-.23-2.9-.55l-.66-.26c-.13-.06-.25-.1-.37-.18l-.32-.15.3.15c-2.73-1.4-4.97-4.04-5.24-7.25 0 0 1.02-3.81 7.36-3.81.7 0 2.64-1.9 2.67-2.46 0-.18-3.88-1.7-5.38-3.19-.82-.79-1.2-1.17-1.54-1.46-.18-.15-.38-.3-.58-.43a10.3 10.3 0 0 1-.06-5.41 16.4 16.4 0 0 0-5.36 4.12c-.89-1.12-.81-4.78-.77-5.54 0-.05-.66.33-.73.4-.78.54-1.5 1.17-2.18 1.84a18.93 18.93 0 0 0-5.06 9.18l-.03.16c-.05.2-.23 1.19-.27 1.39 0-.02 0 .01 0 0-.16 1.02-.29 2.05-.33 3.08v.1a22.2 22.2 0 0 0 22.26 22.14A22.23 22.23 0 0 0 43.9 29.46l.1-.86c.45-3.8-.04-7.78-1.43-11.12l-.02.05Z"/><path d="M33.76 53.98a3.03 3.03 0 0 0 6.08 0V49.7h4.31a3.03 3.03 0 1 0 0-6.06h-4.3v-4.28a3.04 3.04 0 0 0-6.09 0v4.28h-4.32a3.05 3.05 0 0 0-3.06 3.03 3.05 3.05 0 0 0 3.06 3.03h4.32v4.28Z" stroke="#fff" stroke-width="2"/></g><defs><clipPath id="a"><path fill="#fff" d="M0 0h46v56H0z"/></clipPath></defs></svg>