<svg width="32" height="32" viewBox="0 0 32 32" fill="none" xmlns="http://www.w3.org/2000/svg"><path fill-rule="evenodd" clip-rule="evenodd" d="M10.901 4H22.3c1.554 0 2.798 1.318 2.694 2.84v18.759c0 1.521-1.244 2.738-2.798 2.738H10.798C9.243 28.337 8 27.019 8 25.497V6.738C8 5.218 9.347 4 10.901 4zm3.316 23.019h4.56c.31 0 .621-.304.621-.507 0-.406-.207-.609-.518-.609h-4.56c-.414 0-.62.203-.62.507 0 .406.206.609.517.609zm7.98-2.333c.31 0 .517-.202.517-.507V6.941c0-.304-.207-.507-.518-.507H11.11c-.311 0-.518.202-.518.507v17.238c0 .305.207.507.518.507h11.087zm-3.7-4.15c1.09-.02 2.15-1.822 2.503-2.84-1.807-.837-2.07-3.115-.386-4.205-.635-.92-1.623-1.046-1.975-1.06-.514-.052-1.013.143-1.42.303-.26.1-.482.188-.648.188-.184 0-.412-.09-.668-.19-.335-.133-.718-.284-1.114-.276-1.3.019-2.789 1.069-2.789 3.187 0 2.306 1.787 4.95 2.944 4.905.317-.012.543-.107.777-.206.27-.114.55-.232.992-.232.423 0 .69.115.948.225.246.105.482.207.836.2zM18.65 9.84c-1.272.05-2.31 1.374-2.164 2.468 1.175.09 2.303-1.216 2.164-2.468z" fill="#000"/></svg>
