<svg viewBox="0 0 64 64" xmlns="http://www.w3.org/2000/svg"><g fill="#6d6d6e"><path d="M55.99 48.81h-6.04V42.8a2.32 2.32 0 0 0-4.64 0v6.01h-6.06c-1.29 0-2.34 1.04-2.34 2.31s1.05 2.31 2.34 2.31h6.06v6.01a2.32 2.32 0 0 0 4.64 0v-6.01h6.04c1.28 0 2.32-1.04 2.32-2.31s-1.04-2.31-2.32-2.31z"/><path d="M34.62 51.11a4.6 4.6 0 0 1 4.62-4.59h3.78v-3.73a4.6 4.6 0 0 1 9.2 0v1.16a24.85 24.85 0 0 0 3.47-9.02 25.67 25.67 0 0 0-1.52-13.63l-.02.05c-1.1-2.64-3.34-5.49-5.08-6.37a26.15 26.15 0 0 1 2.57 7.64v.03c-2.86-7.1-7.72-9.97-11.69-16.2a13.15 13.15 0 0 1-.87-1.49c-.16-.31-.3-.64-.38-.99 0-.03-.02-.07-.05-.07h-.07c-6.36 3.7-8.52 10.56-8.72 13.98.3-.02.59-.05.89-.05 4.75 0 8.89 2.6 11.11 6.44a8.8 8.8 0 0 0-6.11-1.48c9.12 4.53 6.67 20.14-5.96 19.55a11.62 11.62 0 0 1-4.05-.93c-.14-.07-.28-.12-.42-.21l-.09-.04c-3.07-1.61-5.59-4.59-5.9-8.21 0 0 1.17-4.34 8.38-4.34.79 0 3-2.15 3.04-2.8 0-.21-4.42-1.94-6.13-3.63-.93-.9-1.36-1.34-1.75-1.67a7.5 7.5 0 0 0-.66-.49 11.7 11.7 0 0 1-.07-6.16 18.73 18.73 0 0 0-6.1 4.69c-1.01-1.27-.93-5.44-.87-6.3 0-.05-.75.38-.84.45a19.95 19.95 0 0 0-4.84 4.91 21.66 21.66 0 0 0-3.41 7.64l-.03.17-.3 1.58a29.65 29.65 0 0 0-.38 3.51v.12a25.28 25.28 0 0 0 31.57 24.41 4.57 4.57 0 0 1-2.33-3.96z"/></g></svg>