<svg width="224" height="224" viewBox="0 0 224 224" fill="none" xmlns="http://www.w3.org/2000/svg">
<g clip-path="url(#clip0_3268_8655)">
<rect x="58" y="16" width="108.284" height="192" rx="2.40632" fill="#F9F9FA"/>
<g filter="url(#filter0_i_3268_8655)">
<path d="M58 18.4063C58 17.0773 59.0773 16 60.4063 16H78.4537V24.4221H58V18.4063Z" fill="white"/>
<g filter="url(#filter1_i_3268_8655)">
<path fill-rule="evenodd" clip-rule="evenodd" d="M62.211 22.0157C63.2077 22.0157 64.0157 21.2077 64.0157 20.211C64.0157 19.2143 63.2077 18.4062 62.211 18.4062C61.2143 18.4062 60.4062 19.2143 60.4062 20.211C60.4062 21.2077 61.2143 22.0157 62.211 22.0157Z" fill="#FF5F57"/>
</g>
<g filter="url(#filter2_i_3268_8655)">
<path fill-rule="evenodd" clip-rule="evenodd" d="M68.2266 22.0157C69.2233 22.0157 70.0314 21.2077 70.0314 20.211C70.0314 19.2143 69.2233 18.4062 68.2266 18.4062C67.2299 18.4062 66.4219 19.2143 66.4219 20.211C66.4219 21.2077 67.2299 22.0157 68.2266 22.0157Z" fill="#FEBC2E"/>
</g>
<path fill-rule="evenodd" clip-rule="evenodd" d="M74.2427 22.0157C75.2395 22.0157 76.0475 21.2077 76.0475 20.211C76.0475 19.2143 75.2395 18.4062 74.2427 18.4062C73.246 18.4062 72.438 19.2143 72.438 20.211C72.438 21.2077 73.246 22.0157 74.2427 22.0157Z" fill="#CECECF"/>
</g>
<g filter="url(#filter3_i_3268_8655)">
<path d="M78.4536 16H163.878C165.207 16 166.284 17.0773 166.284 18.4063V24.6095H78.4536V16Z" fill="white"/>
<path d="M100.805 21.8047H101.318V19.9297H101.356L102.063 21.8047H102.424L103.13 19.9297H103.168V21.8047H103.682V19.0496H103.021L102.261 21.0658H102.227L101.465 19.0496H100.805V21.8047ZM105.23 21.8486C105.878 21.8486 106.267 21.44 106.267 20.7546V20.7507C106.267 20.071 105.872 19.6567 105.23 19.6567C104.589 19.6567 104.194 20.0729 104.194 20.7507V20.7546C104.194 21.4381 104.583 21.8486 105.23 21.8486ZM105.23 21.4114C104.933 21.4114 104.765 21.1689 104.765 20.7546V20.7507C104.765 20.3402 104.934 20.0939 105.23 20.0939C105.524 20.0939 105.696 20.3402 105.696 20.7507V20.7546C105.696 21.1689 105.526 21.4114 105.23 21.4114ZM106.624 21.8047H108.379V21.3846H107.344V21.3503L108.354 20.0577V19.7025H106.639V20.1226H107.695V20.157L106.624 21.4839V21.8047ZM109.171 19.3799C109.343 19.3799 109.484 19.2424 109.484 19.0706C109.484 18.8968 109.343 18.7593 109.171 18.7593C108.999 18.7593 108.856 18.8968 108.856 19.0706C108.856 19.2424 108.999 19.3799 109.171 19.3799ZM108.891 21.8047H109.448V19.7025H108.891V21.8047ZM110.028 21.8047H110.586V18.8987H110.028V21.8047ZM111.182 21.8047H111.739V18.8987H111.182V21.8047ZM112.889 21.8371C113.164 21.8371 113.385 21.7207 113.492 21.5259H113.526V21.8047H114.076V20.3689C114.076 19.9202 113.761 19.6567 113.204 19.6567C112.675 19.6567 112.327 19.9011 112.283 20.2696L112.281 20.2868H112.797L112.801 20.2791C112.845 20.155 112.973 20.0844 113.173 20.0844C113.402 20.0844 113.526 20.1875 113.526 20.3689V20.5426L113.018 20.5732C112.495 20.6037 112.203 20.8252 112.203 21.2033V21.2071C112.203 21.5889 112.488 21.8371 112.889 21.8371ZM112.747 21.1727V21.1689C112.747 21.0161 112.864 20.9264 113.102 20.9111L113.526 20.8844V21.0391C113.526 21.2605 113.333 21.4305 113.076 21.4305C112.883 21.4305 112.747 21.3331 112.747 21.1727ZM116.407 21.8047H117.118L118.036 19.0496H117.387L116.78 21.1632H116.745L116.136 19.0496H115.489L116.407 21.8047ZM118.508 21.8047H119.084V20.936H119.644C120.224 20.936 120.612 20.5617 120.612 19.9947V19.9908C120.612 19.4238 120.224 19.0496 119.644 19.0496H118.508V21.8047ZM119.502 19.5059C119.833 19.5059 120.028 19.6796 120.028 19.9928V19.9966C120.028 20.3097 119.833 20.4854 119.502 20.4854H119.084V19.5059H119.502ZM121.143 21.8047H121.694V20.0424H121.725L123 21.8047H123.478V19.0496H122.926V20.8042H122.895L121.624 19.0496H121.143V21.8047Z" fill="black"/>
</g>
<g filter="url(#filter4_d_3268_8655)">
<path d="M62.8135 31.6412C62.8135 30.3122 63.8908 29.2349 65.2198 29.2349H159.066C160.395 29.2349 161.473 30.3122 161.473 31.6412V43.6728H62.8135V31.6412Z" fill="#321C64"/>
<path d="M71.2354 35.5513C70.5974 35.552 69.9858 35.8057 69.5347 36.2569C69.0836 36.708 68.8298 37.3196 68.8291 37.9576C68.829 38.3147 68.9091 38.6673 69.0637 38.9893C69.0788 39.0278 69.1017 39.0627 69.1309 39.0919C69.1601 39.1211 69.195 39.144 69.2334 39.1592C69.2718 39.1743 69.313 39.1814 69.3543 39.1799C69.3955 39.1785 69.4361 39.1686 69.4734 39.1507C69.5106 39.1329 69.5438 39.1076 69.5709 39.0764C69.598 39.0452 69.6183 39.0088 69.6307 38.9694C69.6431 38.93 69.6472 38.8884 69.6428 38.8473C69.6384 38.8063 69.6256 38.7665 69.6051 38.7306C69.4899 38.4892 69.4303 38.2251 69.4307 37.9576C69.43 37.6865 69.4904 37.4188 69.6074 37.1742C69.7243 36.9297 69.8949 36.7146 70.1064 36.5451C70.3179 36.3755 70.5648 36.2557 70.829 36.1946C71.0931 36.1336 71.3675 36.1328 71.632 36.1924C71.8964 36.252 72.1441 36.3703 72.3565 36.5387C72.5689 36.7071 72.7407 36.9212 72.8591 37.1651C72.9774 37.409 73.0393 37.6764 73.0401 37.9475C73.041 38.2185 72.9807 38.4863 72.8639 38.7309C72.847 38.7666 72.8372 38.8053 72.8352 38.8447C72.8332 38.8842 72.839 38.9237 72.8523 38.9609C72.8655 38.9981 72.886 39.0323 72.9124 39.0617C72.9389 39.091 72.9709 39.1148 73.0066 39.1317C73.0423 39.1487 73.081 39.1584 73.1204 39.1604C73.1599 39.1624 73.1994 39.1566 73.2366 39.1434C73.2738 39.1301 73.308 39.1097 73.3374 39.0832C73.3667 39.0567 73.3905 39.0247 73.4074 38.989C73.5824 38.6225 73.6616 38.2176 73.6376 37.8121C73.6136 37.4067 73.4873 37.014 73.2703 36.6706C73.0534 36.3273 72.753 36.0445 72.3971 35.8487C72.0412 35.653 71.6416 35.5507 71.2354 35.5513V35.5513Z" fill="white" fill-opacity="0.8"/>
<path d="M72.3694 37.3795C72.3358 37.3581 72.295 37.3509 72.2561 37.3595C72.2172 37.3682 72.1833 37.3919 72.1619 37.4255L71.421 38.5892C71.324 38.5576 71.2204 38.5511 71.1202 38.5705C71.0199 38.5899 70.9263 38.6345 70.848 38.7001C70.7697 38.7656 70.7095 38.8501 70.6728 38.9454C70.6362 39.0407 70.6245 39.1437 70.6387 39.2449C70.6529 39.346 70.6926 39.4418 70.7541 39.5233C70.8155 39.6049 70.8967 39.6694 70.99 39.7109C71.0834 39.7523 71.1857 39.7694 71.2874 39.7604C71.3891 39.7514 71.4868 39.7167 71.5714 39.6595C71.6354 39.6162 71.6906 39.561 71.7338 39.497C71.812 39.3851 71.8487 39.2495 71.8377 39.1134C71.8267 38.9773 71.7687 38.8493 71.6737 38.7514L72.4145 37.587C72.436 37.5535 72.4433 37.5128 72.4349 37.4739C72.4264 37.435 72.4029 37.401 72.3694 37.3795V37.3795Z" fill="white" fill-opacity="0.8"/>
<path d="M62.8135 43.6729H161.473V122.48C161.473 123.809 160.395 124.886 159.066 124.886H65.2198C63.8908 124.886 62.8135 123.809 62.8135 122.48V43.6729Z" fill="#321C64"/>
<rect x="113.045" y="45.1768" width="9.62528" height="9.62528" rx="4.81264" fill="#3FE1B0"/>
<path fill-rule="evenodd" clip-rule="evenodd" d="M111.69 51.3582H108.475C109.233 48.8464 110.607 47.1319 112.143 47.1319C112.169 47.1319 112.196 47.1324 112.222 47.1334C112.767 46.0608 113.609 45.1645 114.64 44.553C113.827 44.3701 112.99 44.2754 112.143 44.2744C109.882 44.2744 107.672 44.9448 105.793 46.2007C103.913 47.4567 102.448 49.2418 101.583 51.3303C100.718 53.4189 100.491 55.7171 100.933 57.9343C101.374 60.1515 102.462 62.1882 104.061 63.7867C105.659 65.3852 107.696 66.4738 109.913 66.9148C112.13 67.3558 114.428 67.1295 116.517 66.2644C118.606 65.3993 120.391 63.9343 121.647 62.0546C122.903 60.1749 123.573 57.9651 123.573 55.7044C123.572 54.8578 123.477 54.0209 123.294 53.2076C122.683 54.2381 121.787 55.0798 120.715 55.6245C120.715 55.6512 120.715 55.6778 120.715 55.7044C120.713 56.6571 120.552 57.6027 120.237 58.5019H117.635C117.752 57.7749 117.823 57.0415 117.848 56.306C117.358 56.3053 116.881 56.2487 116.423 56.1424C116.401 56.9336 116.32 57.7223 116.181 58.5019H108.105C107.773 56.6517 107.773 54.7571 108.105 52.9069H112.254C112.002 52.424 111.811 51.9043 111.69 51.3582ZM108.475 60.0507C109.233 62.5624 110.607 64.2769 112.143 64.2769C113.679 64.2769 115.053 62.5624 115.812 60.0507H108.475ZM104.049 52.9069C103.734 53.8061 103.572 54.7517 103.57 55.7044C103.572 56.6571 103.734 57.6027 104.049 58.5019H106.651C106.353 56.6488 106.353 54.7601 106.651 52.9069H104.049ZM106.984 51.3582C107.288 50.1497 107.796 49.0018 108.485 47.9635C106.935 48.6994 105.64 49.8815 104.766 51.3582H106.984ZM106.984 60.0507H104.771H104.766C105.64 61.5274 106.935 62.7094 108.485 63.4454C107.796 62.4071 107.288 61.2591 106.984 60.0507ZM115.807 63.4424C117.356 62.707 118.65 61.526 119.524 60.0507H117.306C117.002 61.258 116.495 62.4049 115.807 63.4424Z" fill="url(#paint0_radial_3268_8655)"/>
<path fill-rule="evenodd" clip-rule="evenodd" d="M117.858 52.1012L117.824 52.0976C117.342 52.0202 116.91 51.7584 116.618 51.3675C116.278 50.9059 116.089 50.3506 116.076 49.7776C116.053 49.5252 116.053 48.9711 116.053 48.6628C116.053 48.3927 116.246 48.1614 116.513 48.1148L117.858 47.8838L119.203 48.1148C119.469 48.1611 119.663 48.3927 119.663 48.6631C119.663 48.9708 119.663 49.5252 119.639 49.7776C119.626 50.3506 119.437 50.9059 119.097 51.3675C118.805 51.7584 118.372 52.0202 117.89 52.0976L117.858 52.1012ZM116.655 48.7006C116.655 48.8863 116.653 49.0507 116.651 49.1922C116.648 49.423 116.646 49.5925 116.655 49.6932C116.663 50.1684 116.819 50.6293 117.102 51.0112C117.287 51.2587 117.556 51.4303 117.858 51.494C118.16 51.4303 118.429 51.2587 118.614 51.0112C118.897 50.6294 119.053 50.1685 119.061 49.6932C119.07 49.5925 119.068 49.423 119.065 49.1922C119.063 49.0507 119.061 48.8863 119.061 48.7006L117.858 48.4945L116.655 48.7006ZM117.106 49.0811L117.858 48.9523V51.0281H117.856C117.699 50.9756 117.563 50.8767 117.465 50.7444C117.237 50.4376 117.118 50.0643 117.125 49.6826C117.115 49.5789 117.109 49.3644 117.106 49.0811Z" fill="white"/>
<path d="M100.843 77.4089L99.122 81.3198L97.3949 77.4089H96.8324L98.8375 81.9551H99.4L101.405 77.4089H100.843ZM102.139 81.9551H102.655V80.3206H103.985C104.925 80.3206 105.659 79.7184 105.659 78.8648C105.659 78.0111 104.925 77.4089 103.985 77.4089H102.139V81.9551ZM102.655 79.8309V77.8986H103.892C104.634 77.8986 105.136 78.256 105.136 78.8648C105.136 79.4736 104.634 79.8309 103.892 79.8309H102.655ZM106.497 81.9551H107.013V78.256L109.832 81.9551H110.348V77.4089H109.832V81.1081L107.013 77.4089H106.497V81.9551ZM113.634 77.9119C113.813 77.9119 113.958 77.7597 113.958 77.581C113.958 77.4089 113.813 77.2567 113.634 77.2567C113.449 77.2567 113.303 77.4089 113.303 77.581C113.303 77.7597 113.449 77.9119 113.634 77.9119ZM113.383 81.9551H113.879V78.5339H113.383V81.9551ZM116.086 82.0345C116.795 82.0345 117.337 81.6308 117.337 81.0022C117.337 80.3537 116.768 80.1684 116.219 79.9963C115.584 79.7912 115.332 79.6986 115.332 79.4008C115.332 79.0699 115.65 78.8978 116.034 78.8978C116.338 78.8978 116.675 79.0037 117.02 79.2221L117.258 78.8383C116.894 78.6001 116.457 78.4545 116.034 78.4545C115.352 78.4545 114.836 78.8383 114.836 79.4603C114.836 79.95 115.153 80.1949 115.981 80.4331C116.444 80.5654 116.841 80.6845 116.841 81.0551C116.841 81.3794 116.536 81.5911 116.086 81.5911C115.709 81.5911 115.319 81.4455 114.928 81.161L114.67 81.5249C115.081 81.8558 115.61 82.0345 116.086 82.0345ZM121.666 82.0345C122.625 82.0345 123.433 81.2139 123.433 80.2412C123.433 79.2684 122.625 78.4545 121.666 78.4545C120.706 78.4545 119.892 79.2684 119.892 80.2412C119.892 81.2139 120.706 82.0345 121.666 82.0345ZM121.666 81.5911C120.984 81.5911 120.415 80.9757 120.415 80.2412C120.415 79.5133 120.984 78.8978 121.666 78.8978C122.341 78.8978 122.91 79.5133 122.91 80.2412C122.91 80.9757 122.341 81.5911 121.666 81.5911ZM125.88 78.4545C125.397 78.4545 124.954 78.7192 124.755 79.0831V78.5339H124.259V81.9551H124.755V79.778C124.755 79.3015 125.238 78.8978 125.814 78.8978C126.317 78.8978 126.668 79.2883 126.668 79.8441V81.9551H127.164V79.778C127.164 79.0037 126.635 78.4545 125.88 78.4545Z" fill="white"/>
<path d="M82.3647 88.4141C82.3647 87.8327 83.198 87.3613 84.2259 87.3613H140.06C141.088 87.3613 141.921 87.8327 141.921 88.4141C141.921 88.9955 141.088 89.4669 140.06 89.4669H84.2259C83.198 89.4669 82.3647 88.9955 82.3647 88.4141Z" fill="white" fill-opacity="0.2"/>
<rect x="103.119" y="96.6858" width="18.0474" height="9.62528" rx="4.81264" fill="#3FE1B0"/>
<path fill-rule="evenodd" clip-rule="evenodd" d="M116.354 105.108C118.348 105.108 119.964 103.492 119.964 101.498C119.964 99.5049 118.348 97.8889 116.354 97.8889C114.361 97.8889 112.745 99.5049 112.745 101.498C112.745 103.492 114.361 105.108 116.354 105.108Z" fill="white"/>
</g>
<mask id="mask0_3268_8655" style="mask-type:alpha" maskUnits="userSpaceOnUse" x="62" y="29" width="100" height="96">
<rect x="62.8135" y="29.2349" width="98.6591" height="95.6512" rx="1.20316" fill="#321C64"/>
</mask>
<g mask="url(#mask0_3268_8655)">
<rect opacity="0.06" x="90.336" y="34.1975" width="43.6145" height="43.6145" rx="21.8073" stroke="white" stroke-width="1.50395"/>
<rect opacity="0.03" x="78.0034" y="21.8652" width="68.2793" height="68.2793" rx="34.1397" stroke="white" stroke-width="0.90237"/>
</g>
<g clip-path="url(#clip1_3268_8655)">
<path d="M64.5504 143.602C64.2551 143.602 64.0156 143.841 64.0156 144.137V146.543C64.0156 146.838 64.2551 147.078 64.5504 147.078H65.3525V143.602H64.5504ZM68.2935 143.602H67.4914V147.078H68.2935C68.5888 147.078 68.8283 146.838 68.8283 146.543V144.137C68.8283 143.841 68.5888 143.602 68.2935 143.602Z" fill="#D52B1E"/>
<path d="M65.3525 143.602H67.4915V147.078H65.3525V143.602Z" fill="#EEEEEE"/>
<path d="M66.5046 145.89C66.6648 145.908 66.8084 145.925 66.9684 145.943L66.9276 145.81C66.9211 145.786 66.9304 145.76 66.9489 145.746L67.414 145.367L67.3177 145.322C67.2753 145.307 67.287 145.283 67.3023 145.225L67.3733 144.966L67.1031 145.023C67.0768 145.027 67.0593 145.011 67.0553 144.995L67.0204 144.873L66.8068 145.113C66.7764 145.151 66.7149 145.151 66.734 145.063L66.8253 144.577L66.7028 144.64C66.6684 144.659 66.634 144.663 66.6149 144.628L66.4458 144.312V144.32V144.312L66.2767 144.628C66.2575 144.663 66.2231 144.659 66.1887 144.64L66.0663 144.577L66.1576 145.063C66.1768 145.151 66.1152 145.151 66.0849 145.113L65.8712 144.873L65.8365 144.995C65.8325 145.011 65.8148 145.028 65.7885 145.024L65.5183 144.967L65.5893 145.225C65.6044 145.283 65.6162 145.307 65.5738 145.322L65.4775 145.367L65.9426 145.746C65.9611 145.76 65.9704 145.786 65.9637 145.81L65.923 145.944L66.3869 145.89C66.401 145.89 66.4104 145.898 66.4103 145.914L66.3816 146.409H66.5094L66.481 145.914C66.4812 145.898 66.4905 145.89 66.5046 145.89V145.89Z" fill="#D52B1E"/>
</g>
<path d="M157.261 147.141C157.139 147.141 157.029 147.068 156.983 146.955C156.936 146.843 156.962 146.714 157.048 146.628L158.339 145.336L157.048 144.045C156.934 143.927 156.936 143.74 157.052 143.623C157.168 143.507 157.355 143.506 157.473 143.62L158.977 145.124C159.095 145.241 159.095 145.432 158.977 145.549L157.473 147.053C157.417 147.109 157.34 147.141 157.261 147.141Z" fill="#6D6D6E"/>
<g filter="url(#filter5_d_3268_8655)">
<rect x="62.813" y="184.521" width="98.6591" height="19.2506" rx="9.62528" fill="#321C64"/>
<rect x="77.251" y="186.928" width="14.4379" height="14.4379" rx="7.21896" fill="white" fill-opacity="0.2"/>
<path d="M87.5583 193.866L84.7509 191.059C84.5905 190.898 84.3498 190.898 84.1894 191.059L81.382 193.866C81.2216 194.027 81.2216 194.267 81.382 194.428C81.5425 194.588 81.7831 194.588 81.9435 194.428L82.0638 194.307V196.152C82.0638 196.834 82.5852 197.355 83.267 197.355H85.6733C86.3551 197.355 86.8765 196.834 86.8765 196.152V194.307L86.9968 194.428C87.077 194.508 87.1572 194.548 87.2775 194.548C87.3978 194.548 87.478 194.508 87.5583 194.428C87.7187 194.267 87.7187 194.027 87.5583 193.866V193.866ZM84.4701 195.551C84.4701 195.43 84.5504 195.35 84.6707 195.35C84.791 195.35 84.8712 195.43 84.8712 195.551C84.8712 195.671 84.791 195.751 84.6707 195.751C84.5504 195.751 84.4701 195.671 84.4701 195.551ZM86.0744 196.152C86.0744 196.393 85.9139 196.553 85.6733 196.553H85.2723V194.548C85.2723 194.307 85.1118 194.147 84.8712 194.147H84.0691C83.8285 194.147 83.668 194.307 83.668 194.548V196.553H83.267C83.0264 196.553 82.8659 196.393 82.8659 196.152V193.505L84.4701 191.901L86.0744 193.505V196.152Z" fill="#3FE1B0"/>
<path d="M114.399 191.339H109.887C109.12 191.339 108.533 191.948 108.533 192.743V195.55C108.533 196.346 109.12 196.954 109.887 196.954H114.399C115.166 196.954 115.752 196.346 115.752 195.55V192.743C115.752 191.948 115.166 191.339 114.399 191.339ZM114.399 192.275C114.444 192.275 114.489 192.275 114.534 192.322H114.489L112.143 194.1L109.797 192.322H109.751C109.797 192.275 109.842 192.275 109.887 192.275H114.399V192.275ZM114.85 195.55C114.85 195.831 114.669 196.018 114.399 196.018H109.887C109.616 196.018 109.436 195.831 109.436 195.55V192.649C109.436 192.696 109.481 192.696 109.526 192.696L112.007 194.568C112.052 194.615 112.098 194.615 112.143 194.615C112.188 194.615 112.233 194.615 112.278 194.568L114.76 192.696C114.805 192.696 114.805 192.649 114.805 192.603C114.85 192.649 114.85 192.696 114.85 192.743V195.55V195.55Z" fill="white" fill-opacity="0.8"/>
<path fill-rule="evenodd" clip-rule="evenodd" d="M141.781 193.746H142.623C142.844 193.746 143.024 193.925 143.024 194.147C143.024 194.368 142.844 194.548 142.623 194.548H141.781C141.729 194.799 141.629 195.038 141.487 195.251L142.084 195.849C142.236 196.006 142.234 196.256 142.079 196.411C141.925 196.566 141.674 196.568 141.517 196.416L140.919 195.818C140.706 195.961 140.467 196.06 140.216 196.112V196.954C140.216 197.176 140.037 197.355 139.815 197.355C139.594 197.355 139.414 197.176 139.414 196.954V196.112C139.162 196.06 138.921 195.96 138.707 195.816C138.705 195.819 138.703 195.822 138.701 195.825C138.7 195.828 138.698 195.831 138.695 195.834L138.113 196.416C138.013 196.52 137.863 196.562 137.723 196.525C137.583 196.488 137.474 196.379 137.437 196.239C137.4 196.098 137.442 195.949 137.546 195.849L138.128 195.267C138.13 195.264 138.134 195.263 138.137 195.261C138.14 195.259 138.143 195.258 138.146 195.255C138.002 195.041 137.902 194.801 137.85 194.548H137.008C136.786 194.548 136.607 194.368 136.607 194.147C136.607 193.925 136.786 193.746 137.008 193.746H137.85C137.902 193.495 138.002 193.256 138.144 193.043L137.547 192.445C137.39 192.289 137.39 192.035 137.546 191.878C137.703 191.721 137.957 191.721 138.114 191.878L138.711 192.475C138.925 192.333 139.163 192.233 139.414 192.182V191.34C139.414 191.118 139.594 190.938 139.815 190.938C140.037 190.938 140.216 191.118 140.216 191.34V192.182C140.468 192.234 140.706 192.333 140.92 192.476L141.517 191.878C141.675 191.726 141.925 191.728 142.08 191.883C142.234 192.038 142.237 192.288 142.085 192.445L141.487 193.043C141.629 193.256 141.729 193.495 141.781 193.746ZM139.815 192.944C139.151 192.944 138.612 193.482 138.612 194.147C138.612 194.811 139.151 195.35 139.815 195.35C140.48 195.35 141.018 194.811 141.018 194.147C141.018 193.482 140.48 192.944 139.815 192.944Z" fill="white" fill-opacity="0.8"/>
</g>
<rect x="62.813" y="136.843" width="43.9153" height="2.45367" rx="1.22684" fill="#C4C4C4" fill-opacity="0.5"/>
<rect x="71.6494" y="144.303" width="43.9153" height="2.45367" rx="1.22684" fill="#C4C4C4" fill-opacity="0.5"/>
</g>
<defs>
<filter id="filter0_i_3268_8655" x="58" y="16" width="20.4536" height="8.42212" filterUnits="userSpaceOnUse" color-interpolation-filters="sRGB">
<feFlood flood-opacity="0" result="BackgroundImageFix"/>
<feBlend mode="normal" in="SourceGraphic" in2="BackgroundImageFix" result="shape"/>
<feColorMatrix in="SourceAlpha" type="matrix" values="0 0 0 0 0 0 0 0 0 0 0 0 0 0 0 0 0 0 127 0" result="hardAlpha"/>
<feOffset dy="-0.30079"/>
<feComposite in2="hardAlpha" operator="arithmetic" k2="-1" k3="1"/>
<feColorMatrix type="matrix" values="0 0 0 0 0.905882 0 0 0 0 0.905882 0 0 0 0 0.905882 0 0 0 1 0"/>
<feBlend mode="normal" in2="shape" result="effect1_innerShadow_3268_8655"/>
</filter>
<filter id="filter1_i_3268_8655" x="60.4062" y="18.4062" width="3.60938" height="3.60938" filterUnits="userSpaceOnUse" color-interpolation-filters="sRGB">
<feFlood flood-opacity="0" result="BackgroundImageFix"/>
<feBlend mode="normal" in="SourceGraphic" in2="BackgroundImageFix" result="shape"/>
<feColorMatrix in="SourceAlpha" type="matrix" values="0 0 0 0 0 0 0 0 0 0 0 0 0 0 0 0 0 0 127 0" result="hardAlpha"/>
<feOffset/>
<feGaussianBlur stdDeviation="0.90237"/>
<feComposite in2="hardAlpha" operator="arithmetic" k2="-1" k3="1"/>
<feColorMatrix type="matrix" values="0 0 0 0 0.92549 0 0 0 0 0.427451 0 0 0 0 0.384314 0 0 0 1 0"/>
<feBlend mode="normal" in2="shape" result="effect1_innerShadow_3268_8655"/>
</filter>
<filter id="filter2_i_3268_8655" x="66.4219" y="18.4062" width="3.60938" height="3.60938" filterUnits="userSpaceOnUse" color-interpolation-filters="sRGB">
<feFlood flood-opacity="0" result="BackgroundImageFix"/>
<feBlend mode="normal" in="SourceGraphic" in2="BackgroundImageFix" result="shape"/>
<feColorMatrix in="SourceAlpha" type="matrix" values="0 0 0 0 0 0 0 0 0 0 0 0 0 0 0 0 0 0 127 0" result="hardAlpha"/>
<feOffset/>
<feGaussianBlur stdDeviation="0.90237"/>
<feComposite in2="hardAlpha" operator="arithmetic" k2="-1" k3="1"/>
<feColorMatrix type="matrix" values="0 0 0 0 0.960784 0 0 0 0 0.768627 0 0 0 0 0.317647 0 0 0 1 0"/>
<feBlend mode="normal" in2="shape" result="effect1_innerShadow_3268_8655"/>
</filter>
<filter id="filter3_i_3268_8655" x="78.4536" y="16" width="87.8306" height="8.60938" filterUnits="userSpaceOnUse" color-interpolation-filters="sRGB">
<feFlood flood-opacity="0" result="BackgroundImageFix"/>
<feBlend mode="normal" in="SourceGraphic" in2="BackgroundImageFix" result="shape"/>
<feColorMatrix in="SourceAlpha" type="matrix" values="0 0 0 0 0 0 0 0 0 0 0 0 0 0 0 0 0 0 127 0" result="hardAlpha"/>
<feOffset dy="-0.30079"/>
<feComposite in2="hardAlpha" operator="arithmetic" k2="-1" k3="1"/>
<feColorMatrix type="matrix" values="0 0 0 0 0.905882 0 0 0 0 0.905882 0 0 0 0 0.905882 0 0 0 1 0"/>
<feBlend mode="normal" in2="shape" result="effect1_innerShadow_3268_8655"/>
</filter>
<filter id="filter4_d_3268_8655" x="61.6103" y="28.3325" width="101.065" height="98.0577" filterUnits="userSpaceOnUse" color-interpolation-filters="sRGB">
<feFlood flood-opacity="0" result="BackgroundImageFix"/>
<feColorMatrix in="SourceAlpha" type="matrix" values="0 0 0 0 0 0 0 0 0 0 0 0 0 0 0 0 0 0 127 0" result="hardAlpha"/>
<feOffset dy="0.30079"/>
<feGaussianBlur stdDeviation="0.60158"/>
<feColorMatrix type="matrix" values="0 0 0 0 0.0470588 0 0 0 0 0.0470588 0 0 0 0 0.0509804 0 0 0 0.3 0"/>
<feBlend mode="normal" in2="BackgroundImageFix" result="effect1_dropShadow_3268_8655"/>
<feBlend mode="normal" in="SourceGraphic" in2="effect1_dropShadow_3268_8655" result="shape"/>
</filter>
<filter id="filter5_d_3268_8655" x="60.4067" y="182.717" width="103.472" height="24.0631" filterUnits="userSpaceOnUse" color-interpolation-filters="sRGB">
<feFlood flood-opacity="0" result="BackgroundImageFix"/>
<feColorMatrix in="SourceAlpha" type="matrix" values="0 0 0 0 0 0 0 0 0 0 0 0 0 0 0 0 0 0 127 0" result="hardAlpha"/>
<feOffset dy="0.60158"/>
<feGaussianBlur stdDeviation="1.20316"/>
<feColorMatrix type="matrix" values="0 0 0 0 0.0470588 0 0 0 0 0.0470588 0 0 0 0 0.0509804 0 0 0 0.3 0"/>
<feBlend mode="normal" in2="BackgroundImageFix" result="effect1_dropShadow_3268_8655"/>
<feBlend mode="normal" in="SourceGraphic" in2="effect1_dropShadow_3268_8655" result="shape"/>
</filter>
<radialGradient id="paint0_radial_3268_8655" cx="0" cy="0" r="1" gradientUnits="userSpaceOnUse" gradientTransform="translate(123.573 44.2744) rotate(-45) scale(32.329)">
<stop stop-color="#B833E1"/>
<stop offset="0.371" stop-color="#9059FF"/>
<stop offset="0.614" stop-color="#5B6DF8"/>
<stop offset="1" stop-color="#0090ED"/>
</radialGradient>
<clipPath id="clip0_3268_8655">
<rect x="58" y="16" width="108.284" height="192" rx="2.40632" fill="white"/>
</clipPath>
<clipPath id="clip1_3268_8655">
<rect width="4.81264" height="4.81264" fill="white" transform="translate(64.0156 142.934)"/>
</clipPath>
</defs>
</svg>
