<svg width="224" height="224" viewBox="0 0 224 224" fill="none" xmlns="http://www.w3.org/2000/svg">
<g clip-path="url(#clip0_3268_8545)">
<rect x="57" y="16" width="110" height="192" rx="2.45367" fill="#F9F9FA"/>
<g filter="url(#filter0_i_3268_8545)">
<path d="M57 18.4537C57 17.0985 58.0985 16 59.4537 16H77.8562V24.5879H57V18.4537Z" fill="white"/>
<g filter="url(#filter1_i_3268_8545)">
<path fill-rule="evenodd" clip-rule="evenodd" d="M61.2939 22.1341C62.3102 22.1341 63.1341 21.3102 63.1341 20.2939C63.1341 19.2775 62.3102 18.4536 61.2939 18.4536C60.2775 18.4536 59.4536 19.2775 59.4536 20.2939C59.4536 21.3102 60.2775 22.1341 61.2939 22.1341Z" fill="#FC6159"/>
</g>
<g filter="url(#filter2_i_3268_8545)">
<path fill-rule="evenodd" clip-rule="evenodd" d="M67.4281 22.1341C68.4445 22.1341 69.2684 21.3102 69.2684 20.2939C69.2684 19.2775 68.4445 18.4536 67.4281 18.4536C66.4118 18.4536 65.5879 19.2775 65.5879 20.2939C65.5879 21.3102 66.4118 22.1341 67.4281 22.1341Z" fill="#FABF3C"/>
</g>
<path fill-rule="evenodd" clip-rule="evenodd" d="M73.5624 22.1341C74.5788 22.1341 75.4027 21.3102 75.4027 20.2939C75.4027 19.2775 74.5788 18.4536 73.5624 18.4536C72.5461 18.4536 71.7222 19.2775 71.7222 20.2939C71.7222 21.3102 72.5461 22.1341 73.5624 22.1341Z" fill="#CECECF"/>
</g>
<g filter="url(#filter3_i_3268_8545)">
<path d="M77.8564 16H164.962C166.317 16 167.416 17.0985 167.416 18.4537V24.6805H77.8564V16Z" fill="white"/>
<path d="M100.647 21.8403H101.171V19.9285H101.21L101.93 21.8403H102.298L103.019 19.9285H103.058V21.8403H103.581V19.031H102.908L102.133 21.0869H102.098L101.321 19.031H100.647V21.8403ZM105.16 21.8851C105.82 21.8851 106.217 21.4685 106.217 20.7695V20.7657C106.217 20.0726 105.814 19.6501 105.16 19.6501C104.506 19.6501 104.103 20.0745 104.103 20.7657V20.7695C104.103 21.4665 104.5 21.8851 105.16 21.8851ZM105.16 21.4393C104.856 21.4393 104.685 21.192 104.685 20.7695V20.7657C104.685 20.3471 104.858 20.0959 105.16 20.0959C105.46 20.0959 105.635 20.3471 105.635 20.7657V20.7695C105.635 21.192 105.462 21.4393 105.16 21.4393ZM106.581 21.8403H108.371V21.412H107.315V21.377L108.345 20.0589V19.6968H106.597V20.1251H107.674V20.1602L106.581 21.5133V21.8403ZM109.179 19.3678C109.354 19.3678 109.498 19.2276 109.498 19.0524C109.498 18.8752 109.354 18.7351 109.179 18.7351C109.003 18.7351 108.857 18.8752 108.857 19.0524C108.857 19.2276 109.003 19.3678 109.179 19.3678ZM108.892 21.8403H109.461V19.6968H108.892V21.8403ZM110.053 21.8403H110.621V18.8772H110.053V21.8403ZM111.229 21.8403H111.797V18.8772H111.229V21.8403ZM112.969 21.8734C113.249 21.8734 113.475 21.7547 113.584 21.5561H113.619V21.8403H114.18V20.3763C114.18 19.9188 113.859 19.6501 113.29 19.6501C112.751 19.6501 112.397 19.8993 112.352 20.275L112.35 20.2926H112.876L112.88 20.2848C112.924 20.1582 113.055 20.0862 113.259 20.0862C113.493 20.0862 113.619 20.1913 113.619 20.3763V20.5534L113.101 20.5846C112.568 20.6157 112.27 20.8416 112.27 21.2271V21.231C112.27 21.6203 112.56 21.8734 112.969 21.8734ZM112.825 21.1959V21.192C112.825 21.0363 112.944 20.9448 113.187 20.9292L113.619 20.9019V21.0596C113.619 21.2855 113.423 21.4587 113.16 21.4587C112.963 21.4587 112.825 21.3595 112.825 21.1959ZM116.557 21.8403H117.281L118.218 19.031H117.556L116.937 21.1862H116.902L116.281 19.031H115.621L116.557 21.8403ZM118.699 21.8403H119.287V20.9545H119.857C120.449 20.9545 120.844 20.5729 120.844 19.9947V19.9908C120.844 19.4126 120.449 19.031 119.857 19.031H118.699V21.8403ZM119.713 19.4963C120.05 19.4963 120.249 19.6734 120.249 19.9927V19.9966C120.249 20.3159 120.05 20.495 119.713 20.495H119.287V19.4963H119.713ZM121.385 21.8403H121.948V20.0434H121.979L123.28 21.8403H123.767V19.031H123.204V20.8202H123.173L121.876 19.031H121.385V21.8403Z" fill="black"/>
</g>
<g filter="url(#filter4_d_3268_8545)">
<rect x="61.9072" y="183.463" width="100.601" height="19.6294" rx="9.8147" fill="#321C64"/>
<rect x="76.6294" y="185.917" width="14.722" height="14.722" rx="7.36102" fill="white" fill-opacity="0.2"/>
<path d="M87.1397 192.992L84.2771 190.129C84.1135 189.965 83.8681 189.965 83.7045 190.129L80.8419 192.992C80.6783 193.155 80.6783 193.401 80.8419 193.564C81.0055 193.728 81.2509 193.728 81.4144 193.564L81.5371 193.441V195.323C81.5371 196.018 82.0688 196.549 82.764 196.549H85.2176C85.9128 196.549 86.4445 196.018 86.4445 195.323V193.441L86.5672 193.564C86.6489 193.646 86.7307 193.687 86.8534 193.687C86.9761 193.687 87.0579 193.646 87.1397 193.564C87.3033 193.401 87.3033 193.155 87.1397 192.992V192.992ZM83.9908 194.709C83.9908 194.587 84.0726 194.505 84.1953 194.505C84.318 194.505 84.3997 194.587 84.3997 194.709C84.3997 194.832 84.318 194.914 84.1953 194.914C84.0726 194.914 83.9908 194.832 83.9908 194.709ZM85.6266 195.323C85.6266 195.568 85.463 195.732 85.2176 195.732H84.8087V193.687C84.8087 193.441 84.6451 193.278 84.3997 193.278H83.5819C83.3365 193.278 83.1729 193.441 83.1729 193.687V195.732H82.764C82.5186 195.732 82.355 195.568 82.355 195.323V192.624L83.9908 190.988L85.6266 192.624V195.323Z" fill="#3FE1B0"/>
<path d="M114.508 190.415H109.908C109.125 190.415 108.527 191.035 108.527 191.846V194.709C108.527 195.52 109.125 196.14 109.908 196.14H114.508C115.29 196.14 115.888 195.52 115.888 194.709V191.846C115.888 191.035 115.29 190.415 114.508 190.415ZM114.508 191.369C114.554 191.369 114.6 191.369 114.646 191.417H114.6L112.208 193.23L109.816 191.417H109.77C109.816 191.369 109.862 191.369 109.908 191.369H114.508V191.369ZM114.968 194.709C114.968 194.995 114.784 195.186 114.508 195.186H109.908C109.631 195.186 109.447 194.995 109.447 194.709V191.751C109.447 191.799 109.493 191.799 109.539 191.799L112.07 193.707C112.116 193.755 112.162 193.755 112.208 193.755C112.254 193.755 112.3 193.755 112.346 193.707L114.876 191.799C114.922 191.799 114.922 191.751 114.922 191.703C114.968 191.751 114.968 191.799 114.968 191.846V194.709V194.709Z" fill="white" fill-opacity="0.8"/>
<path fill-rule="evenodd" clip-rule="evenodd" d="M142.429 192.869H143.288C143.513 192.869 143.696 193.052 143.696 193.278C143.696 193.504 143.513 193.687 143.288 193.687H142.429C142.376 193.943 142.274 194.187 142.129 194.404L142.738 195.013C142.893 195.174 142.891 195.429 142.733 195.587C142.576 195.744 142.321 195.747 142.16 195.592L141.551 194.982C141.333 195.127 141.09 195.229 140.834 195.282V196.141C140.834 196.366 140.651 196.549 140.425 196.549C140.199 196.549 140.016 196.366 140.016 196.141V195.282C139.758 195.229 139.513 195.126 139.295 194.98C139.292 194.983 139.291 194.986 139.289 194.989C139.287 194.992 139.285 194.995 139.282 194.998L138.689 195.591C138.587 195.698 138.435 195.74 138.292 195.703C138.149 195.665 138.037 195.554 138 195.411C137.962 195.268 138.005 195.116 138.111 195.013L138.704 194.42C138.707 194.417 138.71 194.416 138.713 194.414C138.716 194.412 138.72 194.41 138.722 194.408C138.576 194.189 138.474 193.944 138.421 193.687H137.562C137.336 193.687 137.153 193.504 137.153 193.278C137.153 193.052 137.336 192.869 137.562 192.869H138.421C138.474 192.613 138.576 192.37 138.721 192.152L138.111 191.543C137.952 191.383 137.952 191.124 138.111 190.964C138.271 190.805 138.53 190.804 138.69 190.964L139.299 191.573C139.517 191.428 139.76 191.327 140.016 191.274V190.415C140.016 190.189 140.199 190.006 140.425 190.006C140.651 190.006 140.834 190.189 140.834 190.415V191.274C141.09 191.327 141.334 191.429 141.551 191.574L142.16 190.965C142.321 190.81 142.576 190.812 142.734 190.969C142.891 191.127 142.894 191.382 142.739 191.543L142.129 192.152C142.274 192.37 142.376 192.613 142.429 192.869ZM140.425 192.051C139.747 192.051 139.198 192.6 139.198 193.278C139.198 193.955 139.747 194.505 140.425 194.505C141.102 194.505 141.652 193.955 141.652 193.278C141.652 192.6 141.102 192.051 140.425 192.051Z" fill="white" fill-opacity="0.8"/>
</g>
</g>
<rect opacity="0.6" x="144.412" y="30.7219" width="19.3227" height="2.45367" rx="1.22684" fill="#0060DF" fill-opacity="0.4"/>
<path d="M148.944 155.153H74.0403C73.4658 155.153 73 155.675 73 156.319V165.643C73 166.286 73.4658 166.808 74.0403 166.808H148.944C149.518 166.808 149.984 166.286 149.984 165.643V156.319C149.984 155.675 149.518 155.153 148.944 155.153Z" fill="#0060DF"/>
<g clip-path="url(#clip1_3268_8545)">
<path fill-rule="evenodd" clip-rule="evenodd" d="M112.821 75.8082C111.805 75.8082 110.981 76.6321 110.981 77.6484C110.981 78.6648 111.805 79.4887 112.821 79.4887C113.837 79.4887 114.661 78.6648 114.661 77.6484C114.661 76.6321 113.837 75.8082 112.821 75.8082ZM108.527 77.6484C108.527 75.2769 110.45 73.3545 112.821 73.3545C115.193 73.3545 117.115 75.2769 117.115 77.6484C117.115 80.0199 115.193 81.9424 112.821 81.9424C112.082 81.9424 111.386 81.7554 110.778 81.4262L108.931 83.2733C109.071 83.5306 109.184 83.8037 109.269 84.0893H116.373C116.901 82.3156 118.544 81.0222 120.489 81.0222C122.86 81.0222 124.783 82.9447 124.783 85.3162C124.783 87.6876 122.86 89.6101 120.489 89.6101C119.749 89.6101 119.053 89.4231 118.446 89.094L116.599 90.9411C116.928 91.5486 117.115 92.2444 117.115 92.9839C117.115 95.3554 115.193 97.2778 112.821 97.2778C110.45 97.2778 108.527 95.3554 108.527 92.9839C108.527 90.6124 110.45 88.69 112.821 88.69C113.561 88.69 114.256 88.8769 114.864 89.2061L116.711 87.359C116.572 87.1017 116.458 86.8286 116.373 86.543H109.269C108.742 88.3167 107.098 89.6101 105.153 89.6101C102.782 89.6101 100.859 87.6876 100.859 85.3162C100.859 82.9447 102.782 81.0222 105.153 81.0222C105.893 81.0222 106.589 81.2092 107.196 81.5383L109.043 79.6912C108.714 79.0837 108.527 78.3879 108.527 77.6484ZM110.981 92.9839C110.981 91.9675 111.805 91.1436 112.821 91.1436C113.837 91.1436 114.661 91.9675 114.661 92.9839C114.661 94.0002 113.837 94.8241 112.821 94.8241C111.805 94.8241 110.981 94.0002 110.981 92.9839ZM105.153 83.4759C104.137 83.4759 103.313 84.2998 103.313 85.3162C103.313 86.3325 104.137 87.1564 105.153 87.1564C106.17 87.1564 106.994 86.3325 106.994 85.3162C106.994 84.2998 106.17 83.4759 105.153 83.4759ZM118.649 85.3162C118.649 84.2998 119.472 83.4759 120.489 83.4759C121.505 83.4759 122.329 84.2998 122.329 85.3162C122.329 86.3325 121.505 87.1564 120.489 87.1564C119.472 87.1564 118.649 86.3325 118.649 85.3162Z" fill="black"/>
<path d="M93.4243 106.786H94.2678V103.689L95.7927 106.516L97.3244 103.689V106.786H98.1611V102.15H97.3244L95.7927 104.978L94.2678 102.15H93.4243V106.786ZM100.849 106.867C101.861 106.867 102.718 106.03 102.718 105.038C102.718 104.046 101.861 103.217 100.849 103.217C99.8364 103.217 98.9795 104.046 98.9795 105.038C98.9795 106.03 99.8364 106.867 100.849 106.867ZM100.849 106.165C100.268 106.165 99.7825 105.652 99.7825 105.038C99.7825 104.431 100.268 103.918 100.849 103.918C101.422 103.918 101.908 104.431 101.908 105.038C101.908 105.652 101.422 106.165 100.849 106.165ZM103.29 106.786H106.239V106.064H104.363L106.218 103.898L106.225 103.297H103.33V104.019H105.139L103.29 106.185V106.786ZM107.402 102.771C107.658 102.771 107.867 102.548 107.867 102.299C107.867 102.049 107.658 101.833 107.402 101.833C107.139 101.833 106.929 102.049 106.929 102.299C106.929 102.548 107.139 102.771 107.402 102.771ZM106.983 106.786H107.807V103.297H106.983V106.786ZM108.716 106.786H109.54V102.069H108.716V106.786ZM110.449 106.786H111.273V102.069H110.449V106.786ZM113.701 103.217C113.262 103.217 112.803 103.338 112.311 103.581L112.594 104.154C112.891 104.006 113.208 103.891 113.539 103.891C114.173 103.891 114.396 104.283 114.396 104.687V104.782C114.079 104.66 113.734 104.593 113.417 104.593C112.635 104.593 111.994 105.065 111.994 105.754C111.994 106.428 112.554 106.867 113.296 106.867C113.701 106.867 114.139 106.692 114.396 106.368V106.786H115.199V104.687C115.199 103.804 114.625 103.217 113.701 103.217ZM113.478 106.266C113.087 106.266 112.796 106.057 112.796 105.727C112.796 105.396 113.127 105.167 113.539 105.167C113.849 105.167 114.139 105.214 114.396 105.302V105.693C114.301 106.064 113.876 106.266 113.478 106.266ZM121.557 102.15L120.086 105.666L118.615 102.15H117.684L119.62 106.786H120.558L122.495 102.15H121.557ZM123.108 106.786H123.952V105.227H125.126C126.118 105.227 126.86 104.593 126.86 103.689C126.86 102.785 126.118 102.15 125.126 102.15H123.108V106.786ZM123.952 104.451V102.926H125.031C125.605 102.926 126.003 103.217 126.003 103.689C126.003 104.161 125.605 104.451 125.031 104.451H123.952ZM127.584 106.786H128.428V103.527L130.877 106.786H131.714V102.15H130.877V105.409L128.428 102.15H127.584V106.786Z" fill="black"/>
</g>
<rect x="77.5493" y="117.214" width="69.9297" height="2.45367" rx="1.22684" fill="#C4C4C4" fill-opacity="0.5"/>
<rect x="86.4438" y="122.428" width="52.1406" height="2.45367" rx="1.22684" fill="#C4C4C4" fill-opacity="0.5"/>
<path d="M130.746 164.322H89.8891C89.3142 164.322 88.8481 164.872 88.8481 165.549C88.8481 166.227 89.3142 166.776 89.8891 166.776H130.746C131.321 166.776 131.787 166.227 131.787 165.549C131.787 164.872 131.321 164.322 130.746 164.322Z" fill="#0060DF" fill-opacity="0.4"/>
<path d="M131.898 172.972H91.041C90.4661 172.972 90 173.521 90 174.199C90 174.876 90.4661 175.425 91.041 175.425H131.898C132.473 175.425 132.939 174.876 132.939 174.199C132.939 173.521 132.473 172.972 131.898 172.972Z" fill="#0060DF" fill-opacity="0.4"/>
<path d="M132.898 159.322H92.041C91.4661 159.322 91 159.872 91 160.549C91 161.227 91.4661 161.776 92.041 161.776H132.898C133.473 161.776 133.939 161.227 133.939 160.549C133.939 159.872 133.473 159.322 132.898 159.322Z" fill="white" fill-opacity="0.4"/>
<defs>
<filter id="filter0_i_3268_8545" x="57" y="16" width="20.8564" height="8.58789" filterUnits="userSpaceOnUse" color-interpolation-filters="sRGB">
<feFlood flood-opacity="0" result="BackgroundImageFix"/>
<feBlend mode="normal" in="SourceGraphic" in2="BackgroundImageFix" result="shape"/>
<feColorMatrix in="SourceAlpha" type="matrix" values="0 0 0 0 0 0 0 0 0 0 0 0 0 0 0 0 0 0 127 0" result="hardAlpha"/>
<feOffset dy="-0.306709"/>
<feComposite in2="hardAlpha" operator="arithmetic" k2="-1" k3="1"/>
<feColorMatrix type="matrix" values="0 0 0 0 0.905882 0 0 0 0 0.905882 0 0 0 0 0.905882 0 0 0 1 0"/>
<feBlend mode="normal" in2="shape" result="effect1_innerShadow_3268_8545"/>
</filter>
<filter id="filter1_i_3268_8545" x="59.4536" y="18.4536" width="3.68066" height="3.68042" filterUnits="userSpaceOnUse" color-interpolation-filters="sRGB">
<feFlood flood-opacity="0" result="BackgroundImageFix"/>
<feBlend mode="normal" in="SourceGraphic" in2="BackgroundImageFix" result="shape"/>
<feColorMatrix in="SourceAlpha" type="matrix" values="0 0 0 0 0 0 0 0 0 0 0 0 0 0 0 0 0 0 127 0" result="hardAlpha"/>
<feOffset/>
<feGaussianBlur stdDeviation="0.920128"/>
<feComposite in2="hardAlpha" operator="arithmetic" k2="-1" k3="1"/>
<feColorMatrix type="matrix" values="0 0 0 0 0.92549 0 0 0 0 0.427451 0 0 0 0 0.384314 0 0 0 1 0"/>
<feBlend mode="normal" in2="shape" result="effect1_innerShadow_3268_8545"/>
</filter>
<filter id="filter2_i_3268_8545" x="65.5879" y="18.4536" width="3.68066" height="3.68042" filterUnits="userSpaceOnUse" color-interpolation-filters="sRGB">
<feFlood flood-opacity="0" result="BackgroundImageFix"/>
<feBlend mode="normal" in="SourceGraphic" in2="BackgroundImageFix" result="shape"/>
<feColorMatrix in="SourceAlpha" type="matrix" values="0 0 0 0 0 0 0 0 0 0 0 0 0 0 0 0 0 0 127 0" result="hardAlpha"/>
<feOffset/>
<feGaussianBlur stdDeviation="0.920128"/>
<feComposite in2="hardAlpha" operator="arithmetic" k2="-1" k3="1"/>
<feColorMatrix type="matrix" values="0 0 0 0 0.960784 0 0 0 0 0.768627 0 0 0 0 0.317647 0 0 0 1 0"/>
<feBlend mode="normal" in2="shape" result="effect1_innerShadow_3268_8545"/>
</filter>
<filter id="filter3_i_3268_8545" x="77.8564" y="16" width="89.5591" height="8.68042" filterUnits="userSpaceOnUse" color-interpolation-filters="sRGB">
<feFlood flood-opacity="0" result="BackgroundImageFix"/>
<feBlend mode="normal" in="SourceGraphic" in2="BackgroundImageFix" result="shape"/>
<feColorMatrix in="SourceAlpha" type="matrix" values="0 0 0 0 0 0 0 0 0 0 0 0 0 0 0 0 0 0 127 0" result="hardAlpha"/>
<feOffset dy="-0.306709"/>
<feComposite in2="hardAlpha" operator="arithmetic" k2="-1" k3="1"/>
<feColorMatrix type="matrix" values="0 0 0 0 0.905882 0 0 0 0 0.905882 0 0 0 0 0.905882 0 0 0 1 0"/>
<feBlend mode="normal" in2="shape" result="effect1_innerShadow_3268_8545"/>
</filter>
<filter id="filter4_d_3268_8545" x="59.4536" y="181.623" width="105.508" height="24.5367" filterUnits="userSpaceOnUse" color-interpolation-filters="sRGB">
<feFlood flood-opacity="0" result="BackgroundImageFix"/>
<feColorMatrix in="SourceAlpha" type="matrix" values="0 0 0 0 0 0 0 0 0 0 0 0 0 0 0 0 0 0 127 0" result="hardAlpha"/>
<feOffset dy="0.613418"/>
<feGaussianBlur stdDeviation="1.22684"/>
<feColorMatrix type="matrix" values="0 0 0 0 0.0470588 0 0 0 0 0.0470588 0 0 0 0 0.0509804 0 0 0 0.3 0"/>
<feBlend mode="normal" in2="BackgroundImageFix" result="effect1_dropShadow_3268_8545"/>
<feBlend mode="normal" in="SourceGraphic" in2="effect1_dropShadow_3268_8545" result="shape"/>
</filter>
<clipPath id="clip0_3268_8545">
<rect x="57" y="16" width="110" height="192" rx="2.45367" fill="white"/>
</clipPath>
<clipPath id="clip1_3268_8545">
<rect width="39.5655" height="36.8051" fill="white" transform="translate(92.8848 73.0479)"/>
</clipPath>
</defs>
</svg>
