<svg width="224" height="224" viewBox="0 0 224 224" fill="none" xmlns="http://www.w3.org/2000/svg">
<g clip-path="url(#clip0_3268_8690)">
<path d="M161.542 16H60.8126C39.5423 16 22.2993 33.9596 22.2993 56.1138V159.886C22.2993 182.04 39.5423 200 60.8126 200H161.542C182.812 200 200.055 182.04 200.055 159.886V56.1138C200.055 33.9596 182.812 16 161.542 16Z" fill="url(#paint0_linear_3268_8690)"/>
<path fill-rule="evenodd" clip-rule="evenodd" d="M112.002 54.1282C106.563 54.1282 102.155 58.5364 102.155 63.9743C102.155 69.4121 106.563 73.8204 112.002 73.8204C117.439 73.8204 121.848 69.4121 121.848 63.9743C121.848 58.5364 117.439 54.1282 112.002 54.1282ZM89.0266 63.9743C89.0266 51.2859 99.3127 41 112.002 41C124.69 41 134.976 51.2859 134.976 63.9743C134.976 76.6626 124.69 86.9485 112.002 86.9485C108.044 86.9485 104.32 85.9479 101.069 84.186L91.1873 94.0679C91.9336 95.4448 92.5432 96.9066 92.9981 98.435H131.002C133.826 88.9449 142.617 82.0246 153.026 82.0246C165.714 82.0246 176 92.3105 176 104.999C176 117.687 165.714 127.973 153.026 127.973C149.069 127.973 145.346 126.973 142.096 125.211L132.214 135.094C133.976 138.344 134.976 142.068 134.976 146.026C134.976 158.714 124.69 169 112.002 169C99.3127 169 89.0266 158.714 89.0266 146.026C89.0266 133.337 99.3127 123.051 112.002 123.051C115.957 123.051 119.679 124.051 122.929 125.812L132.813 115.929C132.066 114.552 131.457 113.091 131.002 111.563H92.998C90.1734 121.053 81.3822 127.973 70.9747 127.973C58.2861 127.973 48 117.687 48 104.999C48 92.3105 58.2861 82.0246 70.9747 82.0246C74.9309 82.0246 78.6536 83.0245 81.9037 84.7854L91.7871 74.9023C90.0264 71.6523 89.0266 67.9301 89.0266 63.9743ZM102.155 146.026C102.155 140.588 106.563 136.179 112.002 136.179C117.439 136.179 121.848 140.588 121.848 146.026C121.848 151.463 117.439 155.872 112.002 155.872C106.563 155.872 102.155 151.463 102.155 146.026ZM70.9747 95.1527C65.5368 95.1527 61.1284 99.561 61.1284 104.999C61.1284 110.437 65.5368 114.845 70.9747 114.845C76.4127 114.845 80.821 110.437 80.821 104.999C80.821 99.561 76.4127 95.1527 70.9747 95.1527ZM143.179 104.999C143.179 99.561 147.588 95.1527 153.026 95.1527C158.463 95.1527 162.872 99.561 162.872 104.999C162.872 110.437 158.463 114.845 153.026 114.845C147.588 114.845 143.179 110.437 143.179 104.999Z" fill="white"/>
<path d="M200.055 120H22.2993V208H200.055V120Z" fill="#F0B848"/>
<g filter="url(#filter0_d_3268_8690)">
<path d="M111.177 146.286L200.055 208H22.2993L111.177 146.286Z" fill="#F0B848"/>
</g>
<g filter="url(#filter1_d_3268_8690)">
<path d="M22.2993 120H200.055L222 169.143H2L22.2993 120Z" fill="#F0B848"/>
</g>
</g>
<defs>
<filter id="filter0_d_3268_8690" x="14.2993" y="137.286" width="193.756" height="77.7144" filterUnits="userSpaceOnUse" color-interpolation-filters="sRGB">
<feFlood flood-opacity="0" result="BackgroundImageFix"/>
<feColorMatrix in="SourceAlpha" type="matrix" values="0 0 0 0 0 0 0 0 0 0 0 0 0 0 0 0 0 0 127 0" result="hardAlpha"/>
<feOffset dy="-1"/>
<feGaussianBlur stdDeviation="4"/>
<feComposite in2="hardAlpha" operator="out"/>
<feColorMatrix type="matrix" values="0 0 0 0 0.0470588 0 0 0 0 0.0470588 0 0 0 0 0.0509804 0 0 0 0.4 0"/>
<feBlend mode="normal" in2="BackgroundImageFix" result="effect1_dropShadow_3268_8690"/>
<feBlend mode="normal" in="SourceGraphic" in2="effect1_dropShadow_3268_8690" result="shape"/>
</filter>
<filter id="filter1_d_3268_8690" x="-6" y="113" width="236" height="65.1426" filterUnits="userSpaceOnUse" color-interpolation-filters="sRGB">
<feFlood flood-opacity="0" result="BackgroundImageFix"/>
<feColorMatrix in="SourceAlpha" type="matrix" values="0 0 0 0 0 0 0 0 0 0 0 0 0 0 0 0 0 0 127 0" result="hardAlpha"/>
<feOffset dy="1"/>
<feGaussianBlur stdDeviation="4"/>
<feColorMatrix type="matrix" values="0 0 0 0 0.0470588 0 0 0 0 0.0470588 0 0 0 0 0.0509804 0 0 0 0.4 0"/>
<feBlend mode="normal" in2="BackgroundImageFix" result="effect1_dropShadow_3268_8690"/>
<feBlend mode="normal" in="SourceGraphic" in2="effect1_dropShadow_3268_8690" result="shape"/>
</filter>
<linearGradient id="paint0_linear_3268_8690" x1="111.177" y1="16" x2="111.177" y2="200" gradientUnits="userSpaceOnUse">
<stop stop-opacity="0.81"/>
<stop offset="1"/>
</linearGradient>
<clipPath id="clip0_3268_8690">
<rect width="224" height="224" fill="white"/>
</clipPath>
</defs>
</svg>
