<svg width="207" height="202" fill="none" xmlns="http://www.w3.org/2000/svg"><g filter="url(#a)"><path d="m139.452 76.494-11.297-6.446-25.417-14.696-62.902 36.354 25.417 14.696 11.04 6.445 27.728 15.986 63.159-36.354-27.728-15.985Z" fill="#FFDDA8"/><path d="m102.737 56.126-61.104 35.58 62.645 36.095 61.361-35.322-62.902-36.353Z" fill="#FFD567"/><path d="M102.737 56.126v64.198l7.703 3.868 54.942-31.713-62.645-36.353Z" fill="#FFA436"/><path d="M104.278 129.09V192L76.55 176.015l-11.04-6.446-25.674-14.696V91.706l25.674 14.953 11.04 6.446 27.728 15.985Z" fill="#FFBD4F"/><path d="M104.279 129.09V192l62.902-36.354V92.479l-62.902 36.611Z" fill="#FFD567"/><path d="m101.712 55.61-23.62-28.103L15.96 62.313v1.547l23.877 27.845 1.284.258 60.591-35.322V55.61Z" fill="#FFBD4F"/><path d="m16.467 62.57 25.16 29.393 61.618-35.58v-1.031L79.368 26.475 16.467 62.571Z" fill="#FFEA80"/><path d="m134.317 28.28-30.552 28.104 61.618 36.353 1.797-.258 30.295-28.103-.513-1.031-61.618-35.58-1.027.516Z" fill="#FFBD4F"/><path d="m165.382 92.737 31.579-29.392-62.645-36.354-1.027.516-30.809 28.36 62.902 36.87Z" fill="#FFEA80"/><path d="m102.737 119.808-6.162 3.61 7.702 4.383 6.162-3.61-7.702-4.383Z" fill="#FFA436"/><path d="m8 82.166 33.376 9.798 62.902 35.838v1.289l-33.633-8.509L8 83.198v-1.032Z" fill="#FFD567"/><path d="M41.376 91.705 8 82.165l62.645 37.386 33.633 8.25-62.902-36.096Z" fill="#FFEA80"/><path d="m166.411 93.51-62.132 34.291v1.29l31.579 7.734 62.645-35.837v-1.032l-32.092-6.445Z" fill="#FFD567"/><path d="M165.384 92.479 104.279 127.8l31.579 7.993 62.645-35.838-31.322-7.477h-1.797Z" fill="#FFEA80"/></g><path d="M58.892 5.62V15h1.63V8.541h.087l2.593 6.431h1.218l2.593-6.417h.087V15h1.63V5.62h-2.079l-2.785 6.797h-.11l-2.785-6.798h-2.08Zm14.685 9.517c2.06 0 3.371-1.452 3.371-3.627 0-2.18-1.31-3.637-3.371-3.637s-3.371 1.456-3.371 3.637c0 2.175 1.31 3.627 3.37 3.627Zm.009-1.328c-1.14 0-1.7-1.017-1.7-2.304s.56-2.318 1.7-2.318c1.122 0 1.68 1.031 1.68 2.318 0 1.287-.558 2.304-1.68 2.304ZM78.264 15h5.776v-1.374h-3.573v-.06l3.454-4.47V7.964h-5.538V9.34h3.508v.059l-3.627 4.549V15Zm7.334 0h1.658V7.964h-1.658V15Zm.834-8.034c.527 0 .957-.403.957-.898 0-.5-.43-.902-.957-.902-.532 0-.962.403-.962.902 0 .495.43.898.962.898Zm4.188-1.347H88.96V15h1.659V5.62Zm3.363 0h-1.658V15h1.658V5.62Zm3.73 9.523c1.103 0 1.763-.518 2.065-1.108h.055V15h1.594v-4.709c0-1.86-1.516-2.418-2.858-2.418-1.48 0-2.615.66-2.982 1.942l1.548.22c.165-.481.632-.893 1.443-.893.77 0 1.191.393 1.191 1.085v.028c0 .476-.5.499-1.74.632-1.365.146-2.67.554-2.67 2.139 0 1.383 1.011 2.116 2.354 2.116Zm.43-1.218c-.692 0-1.186-.316-1.186-.926 0-.636.554-.902 1.296-1.007.435-.06 1.305-.17 1.52-.344v.83c0 .782-.631 1.447-1.63 1.447Zm5.625-8.305h-1.864L105.206 15h2.098l3.307-9.38h-1.869l-2.436 7.383h-.097l-2.441-7.384ZM111.847 15h1.699v-3.17h1.796c2.166 0 3.33-1.3 3.33-3.105 0-1.791-1.15-3.106-3.307-3.106h-3.518V15Zm1.699-4.567V7.04h1.557c1.274 0 1.837.687 1.837 1.686 0 .998-.563 1.708-1.827 1.708h-1.567Zm14.311-4.814h-1.69v6.395h-.083l-4.416-6.395h-1.52V15h1.699V8.61h.078l4.42 6.39h1.512V5.62Zm2.8 9.482c.54 0 1.003-.45 1.007-1.008a1.017 1.017 0 0 0-1.007-.998 1 1 0 0 0-1.008.998 1.002 1.002 0 0 0 1.008 1.008Zm2.719 2.537h1.658v-3.747h.069c.261.514.806 1.233 2.016 1.233 1.658 0 2.899-1.315 2.899-3.633 0-2.345-1.278-3.618-2.904-3.618-1.241 0-1.759.746-2.011 1.255h-.096V7.964h-1.631v9.674Zm1.626-6.156c0-1.365.587-2.249 1.654-2.249 1.104 0 1.672.94 1.672 2.25 0 1.318-.577 2.28-1.672 2.28-1.058 0-1.654-.916-1.654-2.28ZM141.438 15h1.658v-2.364l.605-.645L145.854 15h1.983l-2.886-3.999 2.726-3.037h-1.938l-2.528 2.826h-.115V5.62h-1.658V15Zm10.114 2.785c1.901 0 3.302-.87 3.302-2.67v-7.15h-1.635v1.163h-.092c-.252-.509-.778-1.255-2.02-1.255-1.626 0-2.904 1.273-2.904 3.586 0 2.295 1.278 3.44 2.9 3.44 1.204 0 1.768-.646 2.024-1.163h.083v1.333c0 1.035-.687 1.46-1.631 1.46-.998 0-1.438-.47-1.64-.883l-1.493.362c.302.985 1.315 1.777 3.106 1.777Zm.013-4.187c-1.094 0-1.671-.852-1.671-2.148 0-1.278.567-2.217 1.671-2.217 1.068 0 1.654.884 1.654 2.217 0 1.342-.596 2.148-1.654 2.148Z" fill="#6D6D6E"/><defs><filter id="a" x="0" y="20.475" width="206.503" height="181.525" filterUnits="userSpaceOnUse" color-interpolation-filters="sRGB"><feFlood flood-opacity="0" result="BackgroundImageFix"/><feColorMatrix in="SourceAlpha" values="0 0 0 0 0 0 0 0 0 0 0 0 0 0 0 0 0 0 127 0" result="hardAlpha"/><feOffset dy="2"/><feGaussianBlur stdDeviation="4"/><feColorMatrix values="0 0 0 0 0.0470588 0 0 0 0 0.0470588 0 0 0 0 0.0509804 0 0 0 0.3 0"/><feBlend in2="BackgroundImageFix" result="effect1_dropShadow_2608_7263"/><feBlend in="SourceGraphic" in2="effect1_dropShadow_2608_7263" result="shape"/></filter></defs></svg>
