<svg width="224" height="224" viewBox="0 0 224 224" fill="none" xmlns="http://www.w3.org/2000/svg">
<path d="M154.1 73.8757L141.028 66.4176L111.619 49.4131L38.8367 91.4768L68.2465 108.481L81.0205 115.939L113.104 134.435L186.183 92.3718L154.1 73.8757Z" fill="#FFDDA8"/>
<path d="M111.618 50.3079L40.9158 91.4766L113.401 133.242L184.4 92.3716L111.618 50.3079Z" fill="#FFD567"/>
<path d="M111.618 50.3079V124.591L120.53 129.065L184.103 92.3716L111.618 50.3079Z" fill="#FFA436"/>
<path d="M113.401 134.733V207.524L81.3176 189.028L68.5436 181.57L38.8367 164.566V91.4763L68.5436 108.779L81.3176 116.237L113.401 134.733Z" fill="#FFBD4F"/>
<path d="M113.402 134.733V207.524L186.184 165.461V92.3713L113.402 134.733Z" fill="#FFD567"/>
<path d="M110.431 49.7105L83.101 17.1931L11.2102 57.4669V59.2568L38.8376 91.4758L40.323 91.7742L110.431 50.9038V49.7105Z" fill="#FFBD4F"/>
<path d="M11.7966 57.7654L40.9094 91.7744L112.206 50.6056V49.4123L84.5786 16L11.7966 57.7654Z" fill="#FFEA80"/>
<path d="M148.158 18.0891L112.807 50.6064L184.104 92.6701L186.183 92.3718L221.237 59.8545L220.643 58.6612L149.347 17.4924L148.158 18.0891Z" fill="#FFBD4F"/>
<path d="M184.103 92.6696L220.643 58.6606L148.158 16.5969L146.97 17.1936L111.321 50.0092L184.103 92.6696Z" fill="#FFEA80"/>
<path d="M111.618 123.993L104.488 128.17L113.4 133.241L120.53 129.065L111.618 123.993Z" fill="#FFA436"/>
<path d="M2 80.439L40.619 91.7753L113.401 133.242V134.734L74.4849 124.889L2 81.6323V80.439Z" fill="#FFD567"/>
<path d="M40.619 91.4765L2 80.4385L74.4849 123.695L113.401 133.242L40.619 91.4765Z" fill="#FFEA80"/>
<path d="M185.293 93.5652L113.402 133.242V134.734L149.942 143.684L222.427 102.217V101.023L185.293 93.5652Z" fill="#FFD567"/>
<path d="M184.105 92.3713L113.402 133.242L149.942 142.49L222.427 101.023L186.184 92.3713H184.105Z" fill="#FFEA80"/>
</svg>
