<svg width="191" height="192" fill="none" xmlns="http://www.w3.org/2000/svg"><path d="M47.637 5.62V15h1.63V8.541h.088l2.592 6.431h1.219l2.592-6.417h.087V15h1.631V5.62h-2.08l-2.785 6.797h-.11l-2.784-6.798h-2.08Zm14.685 9.517c2.061 0 3.371-1.452 3.371-3.627 0-2.18-1.31-3.637-3.37-3.637-2.062 0-3.372 1.456-3.372 3.637 0 2.175 1.31 3.627 3.371 3.627Zm.01-1.328c-1.141 0-1.7-1.017-1.7-2.304s.559-2.318 1.7-2.318c1.121 0 1.68 1.031 1.68 2.318 0 1.287-.559 2.304-1.68 2.304ZM67.008 15h5.776v-1.374h-3.573v-.06l3.454-4.47V7.964h-5.538V9.34h3.509v.059l-3.628 4.549V15Zm7.335 0h1.658V7.964h-1.658V15Zm.833-8.034c.527 0 .958-.403.958-.898 0-.5-.43-.902-.958-.902-.531 0-.962.403-.962.902 0 .495.431.898.962.898Zm4.188-1.347h-1.658V15h1.658V5.62Zm3.363 0H81.07V15h1.658V5.62Zm3.73 9.523c1.104 0 1.763-.518 2.066-1.108h.055V15h1.594v-4.709c0-1.86-1.516-2.418-2.859-2.418-1.479 0-2.615.66-2.981 1.942l1.548.22c.165-.481.632-.893 1.443-.893.77 0 1.19.393 1.19 1.085v.028c0 .476-.499.499-1.74.632-1.365.146-2.67.554-2.67 2.139 0 1.383 1.012 2.116 2.354 2.116Zm.43-1.218c-.691 0-1.186-.316-1.186-.926 0-.636.554-.902 1.296-1.007.436-.06 1.306-.17 1.521-.344v.83c0 .782-.632 1.447-1.63 1.447Zm5.625-8.305H90.65L93.952 15h2.097l3.308-9.38h-1.87l-2.436 7.383h-.096l-2.442-7.384ZM100.592 15h1.7v-3.17h1.795c2.167 0 3.33-1.3 3.33-3.105 0-1.791-1.15-3.106-3.307-3.106h-3.518V15Zm1.7-4.567V7.04h1.557c1.273 0 1.837.687 1.837 1.686 0 .998-.564 1.708-1.828 1.708h-1.566Zm14.31-4.814h-1.69v6.395h-.082l-4.416-6.395h-1.521V15h1.7V8.61h.077l4.421 6.39h1.511V5.62Zm2.8 9.482a1.02 1.02 0 0 0 1.008-1.008 1.018 1.018 0 0 0-1.008-.998 1 1 0 0 0-1.008.998 1.002 1.002 0 0 0 1.008 1.008Zm2.72-.101h1.658v-4.278c0-.866.577-1.452 1.292-1.452.7 0 1.181.472 1.181 1.195V15h1.626v-4.388c0-.793.472-1.342 1.274-1.342.669 0 1.2.394 1.2 1.264V15h1.663v-4.723c0-1.57-.907-2.404-2.199-2.404-1.022 0-1.8.504-2.112 1.287h-.073c-.27-.797-.953-1.287-1.901-1.287-.943 0-1.649.485-1.942 1.287h-.082V7.964h-1.585V15Zm17.136-5.176c-.229-1.19-1.181-1.951-2.83-1.951-1.695 0-2.849.833-2.845 2.134-.004 1.026.628 1.704 1.979 1.984l1.2.252c.646.141.948.403.948.801 0 .481-.522.843-1.31.843-.76 0-1.255-.33-1.397-.962l-1.617.156c.206 1.292 1.292 2.056 3.019 2.056 1.759 0 3-.911 3.005-2.244-.005-1.003-.651-1.617-1.979-1.905l-1.2-.257c-.715-.16-.999-.408-.994-.815-.005-.477.522-.807 1.214-.807.765 0 1.168.417 1.296.88l1.511-.165ZM140.777 15h1.658V7.964h-1.658V15Zm.834-8.034c.526 0 .957-.403.957-.898 0-.5-.431-.902-.957-.902-.532 0-.962.403-.962.902 0 .495.43.898.962.898Z" fill="#6D6D6E"/><g clip-path="url(#a)"><g filter="url(#b)"><path d="M135.021 36.42H54.219c-17.062 0-30.894 13.813-30.894 30.852v79.813c0 17.039 13.832 30.852 30.894 30.852h80.802c17.062 0 30.894-13.813 30.894-30.852V67.272c0-17.039-13.832-30.852-30.894-30.852Z" fill="url(#c)"/></g><path fill-rule="evenodd" clip-rule="evenodd" d="M95.1 67.01c-4.378 0-7.928 3.484-7.928 7.781s3.55 7.78 7.928 7.78c4.379 0 7.928-3.483 7.928-7.78 0-4.297-3.55-7.78-7.928-7.78Zm-18.498 7.781c0-10.026 8.282-18.154 18.498-18.154 10.217 0 18.498 8.128 18.498 18.154S105.317 92.945 95.1 92.945c-3.186 0-6.185-.79-8.802-2.183l-7.956 7.809a17.878 17.878 0 0 1 1.458 3.45h30.599c2.273-7.499 9.352-12.967 17.732-12.967 10.216 0 18.498 8.128 18.498 18.154s-8.282 18.154-18.498 18.154a18.69 18.69 0 0 1-8.8-2.182l-7.957 7.808a17.808 17.808 0 0 1 2.224 8.639c0 10.026-8.281 18.154-18.498 18.154-10.216 0-18.498-8.128-18.498-18.154 0-10.027 8.282-18.154 18.498-18.154 3.185 0 6.182.79 8.799 2.181l7.958-7.81a17.746 17.746 0 0 1-1.458-3.449h-30.6c-2.274 7.499-9.352 12.967-17.732 12.967-10.216 0-18.498-8.128-18.498-18.154s8.282-18.154 18.498-18.154c3.186 0 6.183.79 8.8 2.182l7.957-7.81a17.808 17.808 0 0 1-2.222-8.635Zm10.57 64.836c0-4.297 3.55-7.781 7.928-7.781 4.379 0 7.928 3.484 7.928 7.781 0 4.296-3.55 7.78-7.928 7.78s-7.928-3.484-7.928-7.78Zm-25.105-40.2c-4.378 0-7.928 3.484-7.928 7.781s3.55 7.78 7.928 7.78c4.379 0 7.928-3.483 7.928-7.78 0-4.297-3.55-7.78-7.928-7.78Zm58.136 7.781c0-4.297 3.55-7.78 7.928-7.78s7.928 3.483 7.928 7.78c0 4.297-3.55 7.78-7.928 7.78s-7.928-3.483-7.928-7.78Z" fill="#fff"/><path d="M165.915 116.408H23.325v67.681h142.59v-67.681Z" fill="#F0B848"/><g filter="url(#d)"><path d="m94.62 136.624 71.295 47.465H23.325l71.295-47.465Z" fill="#F0B848"/></g><g filter="url(#e)"><path d="M23.325 116.408h142.59l17.603 37.796H7.042l16.283-37.796Z" fill="#F0B848"/></g></g><defs><filter id="b" x="15.325" y="29.421" width="158.59" height="157.516" filterUnits="userSpaceOnUse" color-interpolation-filters="sRGB"><feFlood flood-opacity="0" result="BackgroundImageFix"/><feColorMatrix in="SourceAlpha" values="0 0 0 0 0 0 0 0 0 0 0 0 0 0 0 0 0 0 127 0" result="hardAlpha"/><feOffset dy="1"/><feGaussianBlur stdDeviation="4"/><feColorMatrix values="0 0 0 0 0.0470588 0 0 0 0 0.0470588 0 0 0 0 0.0509804 0 0 0 0.4 0"/><feBlend in2="BackgroundImageFix" result="effect1_dropShadow_2608_7432"/><feBlend in="SourceGraphic" in2="effect1_dropShadow_2608_7432" result="shape"/></filter><filter id="d" x="15.325" y="129.624" width="158.59" height="63.465" filterUnits="userSpaceOnUse" color-interpolation-filters="sRGB"><feFlood flood-opacity="0" result="BackgroundImageFix"/><feColorMatrix in="SourceAlpha" values="0 0 0 0 0 0 0 0 0 0 0 0 0 0 0 0 0 0 127 0" result="hardAlpha"/><feOffset dy="1"/><feGaussianBlur stdDeviation="4"/><feColorMatrix values="0 0 0 0 0.0470588 0 0 0 0 0.0470588 0 0 0 0 0.0509804 0 0 0 0.4 0"/><feBlend in2="BackgroundImageFix" result="effect1_dropShadow_2608_7432"/><feBlend in="SourceGraphic" in2="effect1_dropShadow_2608_7432" result="shape"/></filter><filter id="e" x="-.958" y="109.408" width="192.477" height="53.796" filterUnits="userSpaceOnUse" color-interpolation-filters="sRGB"><feFlood flood-opacity="0" result="BackgroundImageFix"/><feColorMatrix in="SourceAlpha" values="0 0 0 0 0 0 0 0 0 0 0 0 0 0 0 0 0 0 127 0" result="hardAlpha"/><feOffset dy="1"/><feGaussianBlur stdDeviation="4"/><feColorMatrix values="0 0 0 0 0.0470588 0 0 0 0 0.0470588 0 0 0 0 0.0509804 0 0 0 0.4 0"/><feBlend in2="BackgroundImageFix" result="effect1_dropShadow_2608_7432"/><feBlend in="SourceGraphic" in2="effect1_dropShadow_2608_7432" result="shape"/></filter><linearGradient id="c" x1="94.62" y1="36.42" x2="94.62" y2="177.937" gradientUnits="userSpaceOnUse"><stop stop-opacity=".81"/><stop offset="1"/></linearGradient><clipPath id="a"><path fill="#fff" transform="translate(0 30.268)" d="M0 0h191v161.733H0z"/></clipPath></defs></svg>
