<svg width="48" height="50" fill="none" xmlns="http://www.w3.org/2000/svg"><rect width="48" height="49.457" rx="6.4" fill="#000"/><path fill-rule="evenodd" clip-rule="evenodd" d="M24.332 14.159c-1.132 0-2.05.945-2.05 2.112 0 1.166.918 2.112 2.05 2.112 1.132 0 2.05-.946 2.05-2.112 0-1.167-.918-2.112-2.05-2.112ZM19.55 16.27c0-2.722 2.141-4.929 4.783-4.929 2.642 0 4.784 2.207 4.784 4.929 0 2.722-2.142 4.928-4.784 4.928a4.652 4.652 0 0 1-2.276-.592L20 22.727c.155.295.282.609.377.937h7.912c.589-2.036 2.419-3.52 4.586-3.52 2.642 0 4.783 2.206 4.783 4.928S35.516 30 32.874 30a4.652 4.652 0 0 1-2.276-.592l-2.057 2.12c.366.697.575 1.496.575 2.345 0 2.721-2.142 4.928-4.784 4.928s-4.783-2.207-4.783-4.928c0-2.722 2.141-4.929 4.783-4.929.824 0 1.6.215 2.276.592l2.057-2.12a4.985 4.985 0 0 1-.376-.936h-7.913C19.788 28.516 17.957 30 15.79 30c-2.641 0-4.783-2.206-4.783-4.928s2.142-4.929 4.783-4.929c.824 0 1.6.215 2.276.593l2.058-2.12a5.024 5.024 0 0 1-.575-2.345Zm2.733 17.602c0-1.167.918-2.113 2.05-2.113 1.132 0 2.05.946 2.05 2.113 0 1.166-.918 2.112-2.05 2.112-1.132 0-2.05-.946-2.05-2.112ZM15.79 22.96c-1.132 0-2.05.945-2.05 2.112 0 1.166.918 2.112 2.05 2.112 1.133 0 2.05-.946 2.05-2.112 0-1.167-.917-2.113-2.05-2.113Zm15.034 2.112c0-1.167.918-2.113 2.05-2.113 1.132 0 2.05.946 2.05 2.113 0 1.166-.918 2.112-2.05 2.112-1.132 0-2.05-.946-2.05-2.112Z" fill="#fff"/></svg>
