<svg width="125" height="208" fill="none" xmlns="http://www.w3.org/2000/svg"><g filter="url(#a)"><g clip-path="url(#b)"><rect x="8" y="6" width="108.284" height="192" rx="2.406" fill="#F9F9FA"/><g filter="url(#c)"><path d="M8 8.406A2.406 2.406 0 0 1 10.406 6h18.048v8.422H8V8.406Z" fill="#fff"/><g filter="url(#d)"><path fill-rule="evenodd" clip-rule="evenodd" d="M12.211 12.016a1.805 1.805 0 1 0 0-3.61 1.805 1.805 0 0 0 0 3.61Z" fill="#FF5F57"/></g><g filter="url(#e)"><path fill-rule="evenodd" clip-rule="evenodd" d="M18.227 12.016a1.805 1.805 0 1 0 0-3.61 1.805 1.805 0 0 0 0 3.61Z" fill="#FEBC2E"/></g><path fill-rule="evenodd" clip-rule="evenodd" d="M24.243 12.016a1.805 1.805 0 1 0 0-3.61 1.805 1.805 0 0 0 0 3.61Z" fill="#CECECF"/></g><g filter="url(#f)"><path d="M28.454 6h85.424a2.406 2.406 0 0 1 2.406 2.406v6.204h-87.83V6Z" fill="#fff"/><path d="M50.805 11.805h.513V9.93h.038l.707 1.875h.36l.707-1.875h.038v1.875h.514V9.05h-.66l-.76 2.016h-.035l-.762-2.016h-.66v2.755Zm4.425.044c.648 0 1.037-.409 1.037-1.094v-.004c0-.68-.395-1.094-1.037-1.094-.641 0-1.036.416-1.036 1.094v.004c0 .683.39 1.094 1.036 1.094Zm0-.438c-.297 0-.465-.242-.465-.656v-.004c0-.41.17-.657.465-.657.295 0 .466.246.466.657v.004c0 .414-.17.656-.465.656Zm1.394.394h1.755v-.42h-1.035v-.035l1.01-1.292v-.355H56.64v.42h1.056v.034l-1.07 1.327v.32Zm2.547-2.425a.311.311 0 0 0 .313-.31.312.312 0 0 0-.313-.31.313.313 0 0 0-.315.31c0 .172.143.31.315.31Zm-.28 2.425h.557V9.703h-.557v2.102Zm1.138 0h.557V8.899h-.557v2.906Zm1.153 0h.557V8.899h-.557v2.906Zm1.707.032c.275 0 .496-.116.603-.311h.034v.279h.55v-1.436c0-.449-.315-.712-.872-.712-.53 0-.877.244-.92.613l-.002.017h.515l.004-.008c.044-.124.172-.194.372-.194.23 0 .353.103.353.284v.174l-.508.03c-.523.03-.815.252-.815.63v.004c0 .382.285.63.686.63Zm-.142-.664v-.004c0-.153.117-.242.356-.258l.423-.027v.155c0 .222-.192.392-.45.392-.193 0-.329-.098-.329-.258Zm3.66.632h.71l.92-2.755h-.65l-.607 2.113h-.034l-.61-2.113h-.647l.919 2.755Zm2.1 0h.577v-.869h.56c.58 0 .968-.374.968-.941V9.99c0-.567-.388-.941-.968-.941h-1.136v2.755Zm.996-2.3c.33 0 .525.175.525.488v.004c0 .313-.195.488-.525.488h-.419v-.98h.419Zm1.64 2.3h.552v-1.762h.03L73 11.805h.478V9.05h-.552v1.754h-.03L71.623 9.05h-.481v2.755Z" fill="#000"/></g><g filter="url(#g)"><path d="M12.813 21.641a2.406 2.406 0 0 1 2.406-2.406h93.847a2.406 2.406 0 0 1 2.406 2.406v12.032H12.813V21.64Z" fill="#321C64"/><path d="M21.235 25.552a2.408 2.408 0 0 0-2.406 2.406c0 .357.08.71.235 1.032a.3.3 0 0 0 .567-.02.302.302 0 0 0-.026-.24 1.806 1.806 0 1 1 3.259 0 .3.3 0 0 0 .473.354.299.299 0 0 0 .07-.095 2.402 2.402 0 0 0-2.172-3.437Z" fill="#fff" fill-opacity=".8"/><path d="M22.369 27.38a.15.15 0 0 0-.208.046l-.74 1.164a.602.602 0 1 0 .312.907.588.588 0 0 0-.06-.745l.741-1.165a.15.15 0 0 0-.045-.207Z" fill="#fff" fill-opacity=".8"/><path d="M12.813 33.673h98.659v78.807a2.406 2.406 0 0 1-2.406 2.406H15.219a2.406 2.406 0 0 1-2.406-2.406V33.673Z" fill="#321C64"/><rect x="63.045" y="35.177" width="9.625" height="9.625" rx="4.813" fill="#3FE1B0"/><path fill-rule="evenodd" clip-rule="evenodd" d="M61.69 41.358h-3.215c.757-2.511 2.132-4.226 3.668-4.226.026 0 .053 0 .08.002a6.345 6.345 0 0 1 2.416-2.581 11.43 11.43 0 1 0 8.655 8.655 6.345 6.345 0 0 1-2.58 2.417l.001.08a8.518 8.518 0 0 1-.478 2.797h-2.602c.117-.727.188-1.46.212-2.196-.49 0-.966-.057-1.424-.164-.022.792-.103 1.58-.243 2.36h-8.075a15.835 15.835 0 0 1 0-5.595h4.149a6.272 6.272 0 0 1-.564-1.549Zm-3.215 8.693c.757 2.511 2.132 4.226 3.668 4.226s2.91-1.715 3.669-4.226h-7.337Zm-4.426-7.144a8.52 8.52 0 0 0-.479 2.798 8.52 8.52 0 0 0 .479 2.797h2.602a17.66 17.66 0 0 1 0-5.595h-2.602Zm2.934-1.549a11.004 11.004 0 0 1 1.502-3.394 8.616 8.616 0 0 0-3.719 3.394h2.217Zm0 8.693h-2.217a8.616 8.616 0 0 0 3.72 3.395 11.004 11.004 0 0 1-1.503-3.395Zm8.824 3.392a8.615 8.615 0 0 0 3.717-3.392h-2.218a11.002 11.002 0 0 1-1.5 3.392Z" fill="url(#h)"/><path fill-rule="evenodd" clip-rule="evenodd" d="m67.858 42.101-.034-.003a1.878 1.878 0 0 1-1.207-.73 2.785 2.785 0 0 1-.541-1.59c-.023-.253-.023-.807-.023-1.115 0-.27.193-.502.46-.548l1.345-.231 1.344.231c.267.046.461.278.46.548 0 .308 0 .862-.024 1.115a2.785 2.785 0 0 1-.541 1.59c-.292.39-.725.652-1.207.73l-.032.003Zm-1.204-3.4c0 .185-.002.35-.004.491-.002.231-.005.4.004.501.008.476.165.936.448 1.318.185.248.453.42.756.483a1.27 1.27 0 0 0 .755-.483c.283-.382.44-.843.448-1.318.009-.1.007-.27.004-.5-.002-.142-.004-.307-.004-.492l-1.203-.206-1.204.206Zm.452.38.752-.129v2.076h-.003a.808.808 0 0 1-.39-.283 1.734 1.734 0 0 1-.34-1.062 9.22 9.22 0 0 1-.02-.602Z" fill="#fff"/><path d="m50.842 67.409-1.72 3.91-1.727-3.91h-.563l2.005 4.546h.563l2.005-4.546h-.563Zm1.296 4.546h.517v-1.634h1.33c.94 0 1.674-.603 1.674-1.456 0-.854-.735-1.456-1.674-1.456h-1.847v4.546Zm.517-2.124v-1.932h1.237c.741 0 1.244.357 1.244.966s-.503.966-1.244.966h-1.238Zm3.841 2.124h.516v-3.699l2.82 3.7h.516v-4.547h-.517v3.7l-2.819-3.7h-.516v4.546Zm7.138-4.043a.33.33 0 0 0 .324-.331.33.33 0 0 0-.324-.324.33.33 0 0 0-.331.324c0 .179.145.33.33.33Zm-.252 4.043h.496v-3.421h-.496v3.421Zm2.704.08c.708 0 1.25-.404 1.25-1.033 0-.648-.568-.834-1.118-1.006-.635-.205-.886-.297-.886-.595 0-.331.317-.503.701-.503.305 0 .642.106.986.324l.238-.384a2.284 2.284 0 0 0-1.224-.383c-.681 0-1.198.383-1.198 1.005 0 .49.318.735 1.145.973.463.132.86.251.86.622 0 .324-.304.536-.754.536-.377 0-.768-.145-1.158-.43l-.258.364c.41.33.94.51 1.416.51Zm5.58 0c.959 0 1.766-.821 1.766-1.794 0-.973-.807-1.787-1.767-1.787-.96 0-1.773.814-1.773 1.787s.814 1.793 1.773 1.793Zm0-.444c-.682 0-1.251-.615-1.251-1.35 0-.728.569-1.343 1.25-1.343.675 0 1.244.615 1.244 1.343 0 .735-.569 1.35-1.244 1.35Zm4.214-3.136c-.483 0-.927.264-1.125.628v-.55h-.497v3.422h.497v-2.177c0-.477.483-.88 1.059-.88.502 0 .853.39.853.946v2.111h.496v-2.177c0-.774-.529-1.324-1.283-1.324Z" fill="#fff"/><path d="M32.364 78.414c0-.581.834-1.053 1.862-1.053H90.06c1.028 0 1.86.472 1.86 1.053 0 .582-.832 1.053-1.86 1.053H34.226c-1.028 0-1.862-.471-1.862-1.053Z" fill="#fff" fill-opacity=".2"/><rect x="53.119" y="86.686" width="18.047" height="9.625" rx="4.813" fill="#3FE1B0"/><path fill-rule="evenodd" clip-rule="evenodd" d="M66.354 95.108a3.61 3.61 0 1 0 0-7.219 3.61 3.61 0 0 0 0 7.22Z" fill="#fff"/></g><mask id="i" style="mask-type:alpha" maskUnits="userSpaceOnUse" x="12" y="19" width="100" height="96"><rect x="12.813" y="19.235" width="98.659" height="95.651" rx="1.203" fill="#321C64"/></mask><g mask="url(#i)" stroke="#fff"><rect opacity=".06" x="40.336" y="24.198" width="43.614" height="43.614" rx="21.807" stroke-width="1.504"/><rect opacity=".03" x="28.003" y="11.865" width="68.279" height="68.279" rx="34.14" stroke-width=".902"/></g><g clip-path="url(#j)"><path d="M14.55 133.602a.535.535 0 0 0-.534.535v2.406c0 .295.24.535.534.535h.803v-3.476h-.803Zm3.744 0h-.802v3.476h.802c.295 0 .534-.24.534-.535v-2.406a.535.535 0 0 0-.534-.535Z" fill="#D52B1E"/><path d="M15.353 133.602h2.139v3.476h-2.14v-3.476Z" fill="#EEE"/><path d="m16.504 135.89.464.053-.04-.134a.06.06 0 0 1 .02-.063l.466-.379-.097-.045c-.042-.015-.03-.039-.015-.097l.071-.259-.27.057c-.027.004-.044-.012-.048-.028l-.035-.122-.213.24c-.03.038-.092.038-.073-.051l.091-.485-.122.063c-.035.019-.07.023-.088-.012l-.17-.316v.008-.008l-.169.316c-.019.035-.053.031-.088.012l-.122-.063.091.485c.02.089-.042.089-.072.051l-.214-.24-.035.122a.04.04 0 0 1-.048.028l-.27-.057.071.259c.015.058.027.082-.016.097l-.096.045.465.379c.019.014.028.04.021.064l-.04.134.464-.054c.014 0 .023.008.023.024l-.029.495h.128l-.028-.495c0-.016.01-.024.023-.024Z" fill="#D52B1E"/></g><path d="M107.261 137.141a.3.3 0 0 1-.278-.186.299.299 0 0 1 .065-.327l1.291-1.292-1.291-1.291a.301.301 0 0 1 .425-.425l1.504 1.504a.3.3 0 0 1 0 .425l-1.504 1.504a.301.301 0 0 1-.212.088Z" fill="#6D6D6E"/><g filter="url(#k)"><rect x="12.813" y="174.522" width="98.659" height="19.251" rx="9.625" fill="#321C64"/><rect x="27.251" y="176.928" width="14.438" height="14.438" rx="7.219" fill="#fff" fill-opacity=".2"/><path d="m37.558 183.866-2.807-2.807a.387.387 0 0 0-.562 0l-2.807 2.807a.388.388 0 0 0 0 .562c.16.16.4.16.561 0l.12-.121v1.845c0 .682.522 1.203 1.204 1.203h2.406c.682 0 1.203-.521 1.203-1.203v-1.845l.12.121c.08.08.16.12.281.12.12 0 .2-.04.281-.12a.388.388 0 0 0 0-.562Zm-3.088 1.685c0-.121.08-.201.2-.201.12 0 .2.08.2.201 0 .12-.08.2-.2.2-.12 0-.2-.08-.2-.2Zm1.604.601c0 .241-.16.401-.401.401h-.401v-2.005c0-.241-.16-.401-.401-.401h-.802c-.24 0-.401.16-.401.401v2.005h-.401c-.24 0-.401-.16-.401-.401v-2.647l1.604-1.604 1.604 1.604v2.647Z" fill="#3FE1B0"/><path d="M64.398 181.34h-4.512c-.767 0-1.353.608-1.353 1.403v2.808c0 .795.586 1.403 1.353 1.403h4.512c.767 0 1.354-.608 1.354-1.403v-2.808c0-.795-.587-1.403-1.354-1.403Zm0 .935c.045 0 .09 0 .136.047h-.046l-2.346 1.778-2.346-1.778h-.045c.045-.047.09-.047.135-.047h4.512Zm.452 3.276c0 .28-.181.467-.452.467h-4.512c-.27 0-.45-.187-.45-.467v-2.901c0 .046.044.046.09.046l2.481 1.872c.045.047.09.047.135.047.045 0 .09 0 .136-.047l2.481-1.872c.045 0 .045-.046.045-.093.046.047.046.093.046.14v2.808Z" fill="#fff" fill-opacity=".8"/><path fill-rule="evenodd" clip-rule="evenodd" d="M91.78 183.746h.842a.4.4 0 1 1 0 .802h-.842c-.052.251-.151.49-.294.703l.598.598a.4.4 0 0 1-.567.567l-.598-.598a1.983 1.983 0 0 1-.703.294v.842a.4.4 0 1 1-.802 0v-.842a1.985 1.985 0 0 1-.707-.296l-.006.008a.037.037 0 0 1-.006.01l-.582.582a.4.4 0 1 1-.567-.567l.581-.582c.003-.003.006-.004.01-.006.003-.002.006-.003.008-.006a1.986 1.986 0 0 1-.295-.707h-.842a.401.401 0 0 1 0-.802h.842a1.99 1.99 0 0 1 .294-.703l-.598-.598a.4.4 0 1 1 .567-.567l.598.597c.213-.142.452-.242.703-.293v-.843a.401.401 0 0 1 .802 0v.843c.251.052.49.151.704.294l.597-.598a.4.4 0 0 1 .567.567l-.597.598c.142.213.242.452.293.703Zm-1.965-.802a1.203 1.203 0 1 0 0 2.405 1.203 1.203 0 0 0 0-2.405Z" fill="#fff" fill-opacity=".8"/></g><rect x="12.813" y="126.843" width="43.915" height="2.454" rx="1.227" fill="#C4C4C4" fill-opacity=".5"/><rect x="21.649" y="134.303" width="43.915" height="2.454" rx="1.227" fill="#C4C4C4" fill-opacity=".5"/></g></g><defs><filter id="a" x="0" y="0" width="124.284" height="208" filterUnits="userSpaceOnUse" color-interpolation-filters="sRGB"><feFlood flood-opacity="0" result="BackgroundImageFix"/><feColorMatrix in="SourceAlpha" values="0 0 0 0 0 0 0 0 0 0 0 0 0 0 0 0 0 0 127 0" result="hardAlpha"/><feOffset dy="2"/><feGaussianBlur stdDeviation="4"/><feColorMatrix values="0 0 0 0 0.0470588 0 0 0 0 0.0470588 0 0 0 0 0.0509804 0 0 0 0.3 0"/><feBlend in2="BackgroundImageFix" result="effect1_dropShadow_2608_7361"/><feBlend in="SourceGraphic" in2="effect1_dropShadow_2608_7361" result="shape"/></filter><filter id="c" x="8" y="6" width="20.454" height="8.422" filterUnits="userSpaceOnUse" color-interpolation-filters="sRGB"><feFlood flood-opacity="0" result="BackgroundImageFix"/><feBlend in="SourceGraphic" in2="BackgroundImageFix" result="shape"/><feColorMatrix in="SourceAlpha" values="0 0 0 0 0 0 0 0 0 0 0 0 0 0 0 0 0 0 127 0" result="hardAlpha"/><feOffset dy="-.301"/><feComposite in2="hardAlpha" operator="arithmetic" k2="-1" k3="1"/><feColorMatrix values="0 0 0 0 0.905882 0 0 0 0 0.905882 0 0 0 0 0.905882 0 0 0 1 0"/><feBlend in2="shape" result="effect1_innerShadow_2608_7361"/></filter><filter id="d" x="10.406" y="8.406" width="3.609" height="3.61" filterUnits="userSpaceOnUse" color-interpolation-filters="sRGB"><feFlood flood-opacity="0" result="BackgroundImageFix"/><feBlend in="SourceGraphic" in2="BackgroundImageFix" result="shape"/><feColorMatrix in="SourceAlpha" values="0 0 0 0 0 0 0 0 0 0 0 0 0 0 0 0 0 0 127 0" result="hardAlpha"/><feOffset/><feGaussianBlur stdDeviation=".902"/><feComposite in2="hardAlpha" operator="arithmetic" k2="-1" k3="1"/><feColorMatrix values="0 0 0 0 0.92549 0 0 0 0 0.427451 0 0 0 0 0.384314 0 0 0 1 0"/><feBlend in2="shape" result="effect1_innerShadow_2608_7361"/></filter><filter id="e" x="16.422" y="8.406" width="3.609" height="3.61" filterUnits="userSpaceOnUse" color-interpolation-filters="sRGB"><feFlood flood-opacity="0" result="BackgroundImageFix"/><feBlend in="SourceGraphic" in2="BackgroundImageFix" result="shape"/><feColorMatrix in="SourceAlpha" values="0 0 0 0 0 0 0 0 0 0 0 0 0 0 0 0 0 0 127 0" result="hardAlpha"/><feOffset/><feGaussianBlur stdDeviation=".902"/><feComposite in2="hardAlpha" operator="arithmetic" k2="-1" k3="1"/><feColorMatrix values="0 0 0 0 0.960784 0 0 0 0 0.768627 0 0 0 0 0.317647 0 0 0 1 0"/><feBlend in2="shape" result="effect1_innerShadow_2608_7361"/></filter><filter id="f" x="28.454" y="6" width="87.831" height="8.61" filterUnits="userSpaceOnUse" color-interpolation-filters="sRGB"><feFlood flood-opacity="0" result="BackgroundImageFix"/><feBlend in="SourceGraphic" in2="BackgroundImageFix" result="shape"/><feColorMatrix in="SourceAlpha" values="0 0 0 0 0 0 0 0 0 0 0 0 0 0 0 0 0 0 127 0" result="hardAlpha"/><feOffset dy="-.301"/><feComposite in2="hardAlpha" operator="arithmetic" k2="-1" k3="1"/><feColorMatrix values="0 0 0 0 0.905882 0 0 0 0 0.905882 0 0 0 0 0.905882 0 0 0 1 0"/><feBlend in2="shape" result="effect1_innerShadow_2608_7361"/></filter><filter id="g" x="11.61" y="18.333" width="101.065" height="98.058" filterUnits="userSpaceOnUse" color-interpolation-filters="sRGB"><feFlood flood-opacity="0" result="BackgroundImageFix"/><feColorMatrix in="SourceAlpha" values="0 0 0 0 0 0 0 0 0 0 0 0 0 0 0 0 0 0 127 0" result="hardAlpha"/><feOffset dy=".301"/><feGaussianBlur stdDeviation=".602"/><feColorMatrix values="0 0 0 0 0.0470588 0 0 0 0 0.0470588 0 0 0 0 0.0509804 0 0 0 0.3 0"/><feBlend in2="BackgroundImageFix" result="effect1_dropShadow_2608_7361"/><feBlend in="SourceGraphic" in2="effect1_dropShadow_2608_7361" result="shape"/></filter><filter id="k" x="10.406" y="172.717" width="103.472" height="24.063" filterUnits="userSpaceOnUse" color-interpolation-filters="sRGB"><feFlood flood-opacity="0" result="BackgroundImageFix"/><feColorMatrix in="SourceAlpha" values="0 0 0 0 0 0 0 0 0 0 0 0 0 0 0 0 0 0 127 0" result="hardAlpha"/><feOffset dy=".602"/><feGaussianBlur stdDeviation="1.203"/><feColorMatrix values="0 0 0 0 0.0470588 0 0 0 0 0.0470588 0 0 0 0 0.0509804 0 0 0 0.3 0"/><feBlend in2="BackgroundImageFix" result="effect1_dropShadow_2608_7361"/><feBlend in="SourceGraphic" in2="effect1_dropShadow_2608_7361" result="shape"/></filter><clipPath id="b"><rect x="8" y="6" width="108.284" height="192" rx="2.406" fill="#fff"/></clipPath><clipPath id="j"><path fill="#fff" transform="translate(14.016 132.934)" d="M0 0h4.813v4.813H0z"/></clipPath><radialGradient id="h" cx="0" cy="0" r="1" gradientUnits="userSpaceOnUse" gradientTransform="rotate(-45 78.16 -71.673) scale(32.329)"><stop stop-color="#B833E1"/><stop offset=".371" stop-color="#9059FF"/><stop offset=".614" stop-color="#5B6DF8"/><stop offset="1" stop-color="#0090ED"/></radialGradient></defs></svg>
