<svg width="400" height="270" viewBox="0 0 240 162" fill="none" xmlns="http://www.w3.org/2000/svg"><path opacity=".5" fill-rule="evenodd" clip-rule="evenodd" d="M124.415.087c28.316-1.626 52.151 19.849 68.464 43.05 15.02 21.363 22.114 48.677 13.315 73.264-7.887 22.037-31.788 31.418-53.712 39.616-18.729 7.004-37.867 7.624-56.99 1.779-25.154-7.688-57.02-13.502-64.175-38.812-7.29-25.786 17.312-47.413 33.833-68.511C81.968 28.993 97.18 1.65 124.415.087Z" fill="#E7DFFF"/><path d="M161.62 115.682c-2.438.473-5.142 0-7.402-.953-1.479-.624-3.024-1.697-4.604-1.989-1.63-.3-3.4.251-4.957.672-1.495.403-3.177.941-4.448-.167-1.091-.941-1.475-2.766-1.776-4.428-.301-1.663-.598-3.293-.897-4.939-.115-.631-.231-1.284-.146-1.923.089-.672 3.334.069 3.683-.433 1.004-1.443-.54-3.617.85-4.345 1.202-.632 2.453-1.21 3.748-1.21 1.071 0 2.115.393 3.143.784l5.198 1.973c.54.204 1.08.415 1.537.843.383.359.675.853.998 1.305 1.891 2.661 4.823 4.008 6.213 7.15.709 1.602 1.018 3.679 1.136 5.511.086 1.333-1.042 1.908-2.276 2.149ZM107.443 60.928c-1.193-.454-2.762-1.147-4-1.446-.699-.168-1.485-.15-2.09.235-1.78 1.128-.569 3.578.466 4.777 1.954 2.265 4.508 4.001 7.11 5.44" fill="#9E7455"/><path d="M107.443 60.928c-1.193-.454-2.762-1.147-4-1.446-.699-.168-1.485-.15-2.09.235-1.78 1.128-.569 3.578.466 4.777 1.954 2.265 4.508 4.001 7.11 5.44" stroke="#000" stroke-width=".822" stroke-miterlimit="10"/><path d="m142.907 99.535-19.258 3.885s3.242 4.378 12.048 4.935l3.198 3.218" fill="#9E7455"/><path d="m142.907 99.535-19.258 3.885s3.242 4.378 12.048 4.935l3.198 3.218" stroke="#000" stroke-width=".822" stroke-miterlimit="10"/><path d="m146.362 95.442-8.981-49.496a3.794 3.794 0 0 0-1.579-2.443 3.83 3.83 0 0 0-2.852-.618l-24.225 4.355a3.814 3.814 0 0 0-2.455 1.571 3.78 3.78 0 0 0-.62 2.84l8.984 49.494c.18.991.748 1.87 1.579 2.444a3.83 3.83 0 0 0 2.853.618l24.224-4.355a3.816 3.816 0 0 0 2.453-1.572 3.78 3.78 0 0 0 .619-2.838Z" fill="#fff" stroke="#000" stroke-width=".822" stroke-miterlimit="10"/><path d="M108.956 89.454c.335.064.664.16.991.254 1.826.53 1.228.39 3.054.919 2.05.593 3.676 3.308 1.975 5.107-2.087 2.206-4.471.941-6.8.135-1.215-.421-2.274-1.035-2.701-2.327-.6-1.805.512-4.047 2.535-4.166.317-.014.635.012.946.078Z" fill="#9E7455" stroke="#000" stroke-width=".822" stroke-miterlimit="10"/><path d="m139.46 97.857-19.939 3.64a1.956 1.956 0 0 1-1.453-.309 1.936 1.936 0 0 1-.812-1.24l-9.192-48.52a1.82 1.82 0 0 1 1.514-2.15l2.882-.517a.608.608 0 0 1 .675.382 2.88 2.88 0 0 0 1.277 1.502 2.899 2.899 0 0 0 1.947.334l10.833-1.948a2.892 2.892 0 0 0 1.702-.983 2.87 2.87 0 0 0 .674-1.84.617.617 0 0 1 .51-.607l2.283-.411a2.207 2.207 0 0 1 2.253.97c.157.244.263.516.313.8l1.83 10.33" stroke="#000" stroke-width=".822" stroke-miterlimit="10"/><path d="M106.53 75.229c.333.064.664.16.991.254l5.477 1.586c2.05.594 3.677 3.308 1.975 5.107-2.087 2.206-6.889.27-9.224-.537-1.216-.421-2.275-1.037-2.701-2.327-.6-1.805.51-4.047 2.533-4.166.319-.012.637.016.949.083Z" fill="#9E7455" stroke="#000" stroke-width=".822" stroke-miterlimit="10"/><path d="M106.53 81.903c.333.064.664.16.991.254l5.477 1.586c2.05.594 3.677 3.308 1.975 5.107-2.087 2.206-6.889.276-9.224-.537-1.216-.42-2.275-1.035-2.701-2.327-.6-1.805.51-4.047 2.533-4.166.319-.012.637.016.949.083Z" fill="#9E7455" stroke="#000" stroke-width=".822" stroke-miterlimit="10"/><path d="m164.273 113.568-.713-2.958c-.06-.742-8.51-21.321-9.435-23.855-.924-2.533-7.469-15.513-7.469-15.513-.952-1.907-1.46-4.036-1.772-6.128 0 0-.57-4.185-.739-6.729-.069-1.039-1.539-1.725-2.527-1.382-1.287.446-2.368 1.338-2.964 3.153a4.806 4.806 0 0 0-.178 2.127l1.69 21.912c-5.867 14.302 5.343 21.059 5.343 21.059" fill="#9E7455"/><path d="m164.273 113.568-.713-2.958c-.06-.742-8.51-21.321-9.435-23.855-.924-2.533-7.469-15.513-7.469-15.513-.952-1.907-1.46-4.036-1.772-6.128 0 0-.57-4.185-.739-6.729-.069-1.039-1.539-1.725-2.527-1.382-1.287.446-2.368 1.338-2.964 3.153a4.806 4.806 0 0 0-.178 2.127l1.69 21.912c-5.867 14.302 5.343 21.059 5.343 21.059" stroke="#000" stroke-width=".822" stroke-miterlimit="10"/><path d="m129.925 76.262-6.705 1.21a2.628 2.628 0 0 1-1.983-.399 2.609 2.609 0 0 1-1.104-1.687 2.591 2.591 0 0 1 1.187-2.672 2.62 2.62 0 0 1 .966-.362l6.704-1.21v.025a2.572 2.572 0 0 0-1.649.909 2.55 2.55 0 0 0-.58 1.785c.042.646.328 1.253.802 1.697a2.573 2.573 0 0 0 2.343.625l.019.08Z" fill="#54FFBD"/><path d="m129.926 76.262-.049-.269-6.705 1.21a2.357 2.357 0 0 1-1.923-.505 2.34 2.34 0 0 1-.841-1.793c0-.546.193-1.075.545-1.494a2.349 2.349 0 0 1 1.381-.8l6.706-1.209a2.357 2.357 0 0 1 1.914.497 2.325 2.325 0 0 1 .772 2.39 2.336 2.336 0 0 1-1.85 1.703l.048.269.049.269a2.886 2.886 0 0 0 1.699-.984 2.86 2.86 0 0 0-.365-4.044 2.899 2.899 0 0 0-2.366-.623l-6.706 1.21c-.664.12-1.265.469-1.698.985a2.87 2.87 0 0 0-.624 2.353c.121.662.471 1.26.989 1.69a2.898 2.898 0 0 0 2.366.622l6.706-1.21-.048-.267Z" fill="#000"/><path d="m131.974 73.248-.271.047c.026.138.039.28.04.42a2.328 2.328 0 0 1-.546 1.494 2.35 2.35 0 0 1-1.803.837 2.354 2.354 0 0 1-2.125-1.346 2.333 2.333 0 0 1 1.414-3.213 2.357 2.357 0 0 1 2.435.64c.303.326.506.73.585 1.168l.271-.047.27-.049a2.868 2.868 0 0 0-.99-1.69 2.894 2.894 0 0 0-4.064.362 2.859 2.859 0 0 0-.625 2.355c.122.661.472 1.259.99 1.69a2.897 2.897 0 0 0 4.063-.363 2.87 2.87 0 0 0 .626-2.354l-.27.049Z" fill="#000"/><path fill-rule="evenodd" clip-rule="evenodd" d="M121.991 57.819c.33-.998 1.649-1.21 2.278-.368l5.449 7.304a1.295 1.295 0 0 1-.845 2.055l-8.284 1.276a1.297 1.297 0 0 1-1.433-1.686l2.835-8.582Zm3.166 7.67a.702.702 0 1 1-1.392.213.702.702 0 0 1 1.392-.212Zm-1.626-5.9a.702.702 0 0 0-.588.8l.43 2.773a.703.703 0 0 0 1.39-.214l-.429-2.772a.704.704 0 0 0-.803-.586Z" fill="#000"/><path d="m129.586 64.854.132-.099-.132.099a1.13 1.13 0 0 1-.738 1.793l-8.285 1.277a1.133 1.133 0 0 1-1.251-1.473l2.835-8.581c.288-.87 1.441-1.057 1.99-.321l5.449 7.305Zm-5.386-.943a.866.866 0 0 0 .726-.988l-.43-2.773a.867.867 0 0 0-1.715.265l.429 2.773a.868.868 0 0 0 .99.723Zm.394 2.541a.866.866 0 1 0-.265-1.71.867.867 0 1 0 .265 1.71Z" fill="#E27F2E" stroke="#000" stroke-width=".329"/><path d="M94.158 102.937h-51.06c.867-4.896 5.167-8.64 10.334-8.64h.417c2.6-4.575 7.51-7.68 13.158-7.68 6.836 0 12.613 4.544 14.474 10.752 1.348-1.248 3.145-1.984 5.135-1.984 4.14 0 7.542 3.392 7.542 7.552Z" fill="#A883F8"/><path d="M80.542 107.352H28.5l.096-.543c.93-5.2 5.455-8.965 10.78-8.965h.13a15.602 15.602 0 0 1 13.41-7.657c6.61 0 12.546 4.243 14.696 10.401a7.97 7.97 0 0 1 4.877-1.659c4.428 0 8.021 3.573 8.021 7.976v.447h.032Zm-50.951-.925h50.02c-.224-3.669-3.336-6.605-7.09-6.605-1.797 0-3.497.67-4.813 1.883l-.545.478-.225-.702c-1.829-6.125-7.604-10.4-14.053-10.4a14.662 14.662 0 0 0-12.77 7.433l-.129.255h-.673a9.912 9.912 0 0 0-9.722 7.658Z" fill="#000"/><path d="M191.242 53.52h-36.117c.602-3.472 3.641-6.092 7.312-6.092h.285A10.668 10.668 0 0 1 172.028 42a10.66 10.66 0 0 1 10.224 7.606 5.276 5.276 0 0 1 3.609-1.42c2.975 0 5.381 2.398 5.381 5.333ZM211.19 62.483h-22.411a4.615 4.615 0 0 1 4.527-3.787h.19a6.619 6.619 0 0 1 5.792-3.377 6.635 6.635 0 0 1 6.362 4.734c.602-.537 1.393-.884 2.248-.884 1.804.032 3.292 1.515 3.292 3.314Z" fill="#A883F8"/><path fill-rule="evenodd" clip-rule="evenodd" d="M63.125 48.153a.602.602 0 1 0-.001 1.204.602.602 0 0 0 0-1.204Zm-1.016.602a1.015 1.015 0 1 1 2.03.002 1.015 1.015 0 0 1-2.03-.002ZM207.952 116.281a.602.602 0 1 0-.002 1.204.602.602 0 0 0 .002-1.204Zm-1.016.602a1.015 1.015 0 1 1 2.03 0 1.015 1.015 0 0 1-2.03 0ZM148.345 44.635a.602.602 0 1 0-.001 1.205.602.602 0 0 0 .001-1.205Zm-1.016.602a1.015 1.015 0 1 1 2.03.001 1.015 1.015 0 0 1-2.03-.001Z" fill="#000"/><path d="M188.614 94.822a.179.179 0 0 1-.128-.053.18.18 0 0 1-.054-.129v-1.642a.183.183 0 0 1 .306-.12.182.182 0 0 1 .057.12v1.642a.183.183 0 0 1-.052.129.183.183 0 0 1-.129.053ZM102.823 120a.186.186 0 0 1-.129-.053.186.186 0 0 1-.053-.129v-1.643a.178.178 0 0 1 .058-.119.18.18 0 0 1 .247 0 .183.183 0 0 1 .058.119v1.643a.186.186 0 0 1-.053.129.181.181 0 0 1-.128.053ZM73.119 78.716a.181.181 0 0 1-.182-.182V76.89a.182.182 0 0 1 .363 0v1.643a.182.182 0 0 1-.112.168.18.18 0 0 1-.069.014Z" fill="#000"/><path d="M189.618 93.819a.18.18 0 0 1-.053.128.171.171 0 0 1-.058.04.184.184 0 0 1-.07.013h-1.646a.181.181 0 0 1 0-.362h1.646a.181.181 0 0 1 .181.18ZM103.833 118.997a.185.185 0 0 1-.013.07.181.181 0 0 1-.168.112h-1.646a.178.178 0 0 1-.119-.058.176.176 0 0 1-.049-.123c0-.046.017-.09.049-.123a.178.178 0 0 1 .119-.058h1.646a.18.18 0 0 1 .181.18ZM74.13 77.713a.18.18 0 0 1-.112.168.182.182 0 0 1-.07.013h-1.645a.182.182 0 0 1 0-.362h1.645a.181.181 0 0 1 .181.18Z" fill="#000"/></svg>
