<svg width="224" height="224" viewBox="0 0 224 224" fill="none" xmlns="http://www.w3.org/2000/svg">
<g clip-path="url(#clip0_3268_8847)">
<rect y="76" width="224" height="73" rx="8.22535" fill="#F9F9FA"/>
<path d="M0 76H219C223.543 76 227.225 79.6826 227.225 84.2254V104.789H0V76Z" fill="#F9F9FA"/>
<path d="M10.7243 86.1682V90.6548H11.5041V87.5659H11.5458L12.7857 90.6416H13.3684L14.6084 87.5725H14.65V90.6548H15.4299V86.1682H14.4353L13.1034 89.4192H13.0508L11.7188 86.1682H10.7243ZM17.7476 90.7205C18.7335 90.7205 19.36 90.0261 19.36 88.9855C19.36 87.9427 18.7335 87.2461 17.7476 87.2461C16.7618 87.2461 16.1353 87.9427 16.1353 88.9855C16.1353 90.0261 16.7618 90.7205 17.7476 90.7205ZM17.752 90.0852C17.2065 90.0852 16.9393 89.5989 16.9393 88.9833C16.9393 88.3677 17.2065 87.8748 17.752 87.8748C18.2888 87.8748 18.556 88.3677 18.556 88.9833C18.556 89.5989 18.2888 90.0852 17.752 90.0852ZM19.9893 90.6548H22.7518V89.9976H21.043V89.9691L22.6948 87.831V87.2899H20.0462V87.9471H21.7243V87.9756L19.9893 90.1509V90.6548ZM23.4971 90.6548H24.2902V87.2899H23.4971V90.6548ZM23.8958 86.8123C24.1478 86.8123 24.3537 86.6195 24.3537 86.3829C24.3537 86.1441 24.1478 85.9514 23.8958 85.9514C23.6417 85.9514 23.4358 86.1441 23.4358 86.3829C23.4358 86.6195 23.6417 86.8123 23.8958 86.8123ZM25.8987 86.1682H25.1057V90.6548H25.8987V86.1682ZM27.5072 86.1682H26.7142V90.6548H27.5072V86.1682ZM29.291 90.7227C29.819 90.7227 30.1344 90.4751 30.279 90.1925H30.3053V90.6548H31.0677V88.4027C31.0677 87.5133 30.3425 87.2461 29.7007 87.2461C28.9931 87.2461 28.4498 87.5615 28.2745 88.1749L29.015 88.2801C29.0938 88.05 29.3173 87.8529 29.705 87.8529C30.0731 87.8529 30.2746 88.0413 30.2746 88.3721V88.3852C30.2746 88.6131 30.0358 88.624 29.4422 88.6875C28.7893 88.7576 28.165 88.9526 28.165 89.7106C28.165 90.3722 28.6491 90.7227 29.291 90.7227ZM29.4969 90.14C29.1661 90.14 28.9295 89.9888 28.9295 89.6974C28.9295 89.3929 29.1946 89.2659 29.5495 89.2155C29.7576 89.187 30.1739 89.1344 30.2768 89.0512V89.4477C30.2768 89.8223 29.9745 90.14 29.4969 90.14ZM34.0306 86.1682H33.139L34.7185 90.6548H35.7218L37.3035 86.1682H36.4097L35.2442 89.6996H35.1982L34.0306 86.1682ZM37.8944 90.6548H38.7072V89.1388H39.5659C40.6021 89.1388 41.1586 88.5167 41.1586 87.6535C41.1586 86.797 40.6087 86.1682 39.5769 86.1682H37.8944V90.6548ZM38.7072 88.4707V86.8473H39.452C40.061 86.8473 40.3305 87.176 40.3305 87.6535C40.3305 88.1311 40.061 88.4707 39.4564 88.4707H38.7072ZM45.5515 86.1682H44.7431V89.2264H44.7037L42.5918 86.1682H41.8645V90.6548H42.6773V87.5988H42.7145L44.8285 90.6548H45.5515V86.1682Z" fill="black"/>
<rect x="38.5562" y="104.789" width="143.43" height="4.11268" rx="2.05634" fill="#C4C4C4" fill-opacity="0.5"/>
<g clip-path="url(#clip1_3268_8847)">
<g filter="url(#filter0_d_3268_8847)">
<path d="M26.7783 97.3408H16.9141C14.8312 97.3408 13.1426 99.0271 13.1426 101.107V110.851C13.1426 112.931 14.8312 114.617 16.9141 114.617H26.7783C28.8613 114.617 30.5499 112.931 30.5499 110.851V101.107C30.5499 99.0271 28.8613 97.3408 26.7783 97.3408Z" fill="url(#paint0_linear_3268_8847)"/>
</g>
<path fill-rule="evenodd" clip-rule="evenodd" d="M21.9052 101.075C21.3706 101.075 20.9373 101.5 20.9373 102.025C20.9373 102.549 21.3706 102.975 21.9052 102.975C22.4396 102.975 22.873 102.549 22.873 102.025C22.873 101.5 22.4396 101.075 21.9052 101.075ZM19.6469 102.025C19.6469 100.801 20.6579 99.8086 21.9052 99.8086C23.1524 99.8086 24.1634 100.801 24.1634 102.025C24.1634 103.249 23.1524 104.241 21.9052 104.241C21.5162 104.241 21.1501 104.145 20.8306 103.975L19.8593 104.928C19.9326 105.061 19.9925 105.202 20.0373 105.349H23.7728C24.0504 104.434 24.9145 103.766 25.9375 103.766C27.1847 103.766 28.1958 104.758 28.1958 105.982C28.1958 107.206 27.1847 108.198 25.9375 108.198C25.5487 108.198 25.1827 108.102 24.8632 107.932L23.8919 108.885C24.0651 109.199 24.1634 109.558 24.1634 109.94C24.1634 111.164 23.1524 112.156 21.9052 112.156C20.6579 112.156 19.6469 111.164 19.6469 109.94C19.6469 108.716 20.6579 107.724 21.9052 107.724C22.2939 107.724 22.6598 107.82 22.9793 107.99L23.9507 107.037C23.8774 106.904 23.8175 106.763 23.7728 106.615H20.0372C19.7596 107.531 18.8955 108.198 17.8725 108.198C16.6253 108.198 15.6143 107.206 15.6143 105.982C15.6143 104.758 16.6253 103.766 17.8725 103.766C18.2614 103.766 18.6273 103.862 18.9468 104.032L19.9182 103.079C19.7452 102.765 19.6469 102.406 19.6469 102.025ZM20.9373 109.94C20.9373 109.415 21.3706 108.99 21.9052 108.99C22.4396 108.99 22.873 109.415 22.873 109.94C22.873 110.464 22.4396 110.89 21.9052 110.89C21.3706 110.89 20.9373 110.464 20.9373 109.94ZM17.8725 105.032C17.338 105.032 16.9047 105.458 16.9047 105.982C16.9047 106.507 17.338 106.932 17.8725 106.932C18.407 106.932 18.8403 106.507 18.8403 105.982C18.8403 105.458 18.407 105.032 17.8725 105.032ZM24.9697 105.982C24.9697 105.458 25.4031 105.032 25.9375 105.032C26.472 105.032 26.9054 105.458 26.9054 105.982C26.9054 106.507 26.472 106.932 25.9375 106.932C25.4031 106.932 24.9697 106.507 24.9697 105.982Z" fill="white"/>
<path d="M30.5499 107.105H13.1426V115.368H30.5499V107.105Z" fill="#F0B848"/>
<g filter="url(#filter1_d_3268_8847)">
<path d="M21.8462 109.573L30.5499 115.368H13.1426L21.8462 109.573Z" fill="#F0B848"/>
</g>
<g filter="url(#filter2_d_3268_8847)">
<path d="M13.1412 107.106H30.5485L32.6975 111.72H11.1533L13.1412 107.106Z" fill="#F0B848"/>
</g>
</g>
<rect x="7.28174" y="125.866" width="140.345" height="11.8239" rx="2.05634" fill="#E7E7E7"/>
<rect x="153.627" y="125.866" width="62.7183" height="12.338" rx="2.05634" fill="#CECECF"/>
<rect x="161.986" y="130.535" width="46" height="3" rx="1.5" fill="#979797" fill-opacity="0.5"/>
<rect x="7.28174" y="125.866" width="23.1338" height="11.8239" rx="2.05634" fill="#3FE1B0"/>
</g>
<defs>
<filter id="filter0_d_3268_8847" x="12.1659" y="96.4863" width="19.3605" height="19.2296" filterUnits="userSpaceOnUse" color-interpolation-filters="sRGB">
<feFlood flood-opacity="0" result="BackgroundImageFix"/>
<feColorMatrix in="SourceAlpha" type="matrix" values="0 0 0 0 0 0 0 0 0 0 0 0 0 0 0 0 0 0 127 0" result="hardAlpha"/>
<feOffset dy="0.122079"/>
<feGaussianBlur stdDeviation="0.488318"/>
<feColorMatrix type="matrix" values="0 0 0 0 0.0470588 0 0 0 0 0.0470588 0 0 0 0 0.0509804 0 0 0 0.4 0"/>
<feBlend mode="normal" in2="BackgroundImageFix" result="effect1_dropShadow_3268_8847"/>
<feBlend mode="normal" in="SourceGraphic" in2="effect1_dropShadow_3268_8847" result="shape"/>
</filter>
<filter id="filter1_d_3268_8847" x="12.1659" y="108.719" width="19.3605" height="7.7477" filterUnits="userSpaceOnUse" color-interpolation-filters="sRGB">
<feFlood flood-opacity="0" result="BackgroundImageFix"/>
<feColorMatrix in="SourceAlpha" type="matrix" values="0 0 0 0 0 0 0 0 0 0 0 0 0 0 0 0 0 0 127 0" result="hardAlpha"/>
<feOffset dy="0.122079"/>
<feGaussianBlur stdDeviation="0.488318"/>
<feColorMatrix type="matrix" values="0 0 0 0 0.0470588 0 0 0 0 0.0470588 0 0 0 0 0.0509804 0 0 0 0.4 0"/>
<feBlend mode="normal" in2="BackgroundImageFix" result="effect1_dropShadow_3268_8847"/>
<feBlend mode="normal" in="SourceGraphic" in2="effect1_dropShadow_3268_8847" result="shape"/>
</filter>
<filter id="filter2_d_3268_8847" x="10.1767" y="106.251" width="23.4977" height="6.56753" filterUnits="userSpaceOnUse" color-interpolation-filters="sRGB">
<feFlood flood-opacity="0" result="BackgroundImageFix"/>
<feColorMatrix in="SourceAlpha" type="matrix" values="0 0 0 0 0 0 0 0 0 0 0 0 0 0 0 0 0 0 127 0" result="hardAlpha"/>
<feOffset dy="0.122079"/>
<feGaussianBlur stdDeviation="0.488318"/>
<feColorMatrix type="matrix" values="0 0 0 0 0.0470588 0 0 0 0 0.0470588 0 0 0 0 0.0509804 0 0 0 0.4 0"/>
<feBlend mode="normal" in2="BackgroundImageFix" result="effect1_dropShadow_3268_8847"/>
<feBlend mode="normal" in="SourceGraphic" in2="effect1_dropShadow_3268_8847" result="shape"/>
</filter>
<linearGradient id="paint0_linear_3268_8847" x1="21.8462" y1="97.3408" x2="21.8462" y2="114.617" gradientUnits="userSpaceOnUse">
<stop stop-opacity="0.81"/>
<stop offset="1"/>
</linearGradient>
<clipPath id="clip0_3268_8847">
<rect y="76" width="224" height="73" rx="8.22535" fill="white"/>
</clipPath>
<clipPath id="clip1_3268_8847">
<rect width="23.3172" height="19.7442" fill="white" transform="translate(10.2949 96.5898)"/>
</clipPath>
</defs>
</svg>
