<svg width="243" height="89" fill="none" xmlns="http://www.w3.org/2000/svg"><g filter="url(#a)"><g clip-path="url(#b)"><rect x="8" y="6.001" width="227" height="73" rx="8.225" fill="#F9F9FA"/><rect x="164.282" y="55.867" width="62.718" height="12.338" rx="2.056" fill="#CECECF"/><rect x="172.642" y="60.536" width="46" height="3" rx="1.5" fill="#979797" fill-opacity=".5"/><path d="M8 6h219a8.225 8.225 0 0 1 8.225 8.226v20.563H8V6.001Z" fill="#F9F9FA"/><path d="M18.724 16.169v4.486h.78v-3.088h.042l1.24 3.075h.582l1.24-3.069h.042v3.082h.78V16.17h-.995l-1.332 3.25h-.052l-1.332-3.25h-.995Zm7.023 4.552c.986 0 1.613-.694 1.613-1.735 0-1.043-.627-1.74-1.613-1.74-.985 0-1.612.697-1.612 1.74 0 1.04.627 1.735 1.612 1.735Zm.005-.635c-.546 0-.813-.486-.813-1.102 0-.616.267-1.109.813-1.109.537 0 .804.493.804 1.109 0 .615-.267 1.102-.804 1.102Zm2.237.57h2.763v-.658h-1.71v-.028l1.653-2.138v-.541h-2.649v.657h1.678v.028l-1.735 2.175v.504Zm3.508 0h.793V17.29h-.793v3.364Zm.399-3.843c.252 0 .458-.193.458-.43 0-.238-.206-.431-.458-.431-.254 0-.46.193-.46.432 0 .236.206.429.46.429Zm2.003-.644h-.794v4.486h.794V16.17Zm1.608 0h-.793v4.486h.793V16.17Zm1.784 4.554c.528 0 .843-.247.988-.53h.026v.462h.763v-2.252c0-.89-.726-1.156-1.367-1.156-.708 0-1.251.315-1.427.928l.74.106c.08-.23.303-.427.69-.427.369 0 .57.188.57.519v.013c0 .228-.238.239-.832.302-.653.07-1.277.265-1.277 1.023 0 .662.484 1.012 1.126 1.012Zm.206-.582c-.331 0-.568-.152-.568-.443 0-.304.265-.431.62-.482.209-.028.625-.081.728-.164v.396c0 .375-.303.693-.78.693Zm4.534-3.972h-.892l1.58 4.486h1.003l1.581-4.486h-.893L43.244 19.7h-.046l-1.167-3.531Zm3.863 4.486h.813V19.14h.859c1.036 0 1.592-.622 1.592-1.485 0-.856-.55-1.485-1.581-1.485h-1.683v4.486Zm.813-2.184v-1.623h.745c.609 0 .878.329.878.806 0 .478-.27.817-.874.817h-.749Zm6.844-2.302h-.808v3.058h-.04l-2.111-3.058h-.728v4.486h.813V17.6h.037l2.114 3.056h.723V16.17Z" fill="#000"/><rect x="46.556" y="34.79" width="143.43" height="4.113" rx="2.056" fill="#C4C4C4" fill-opacity=".5"/><g clip-path="url(#c)"><g filter="url(#d)"><path d="M34.778 27.341h-9.864a3.769 3.769 0 0 0-3.772 3.767v9.743a3.769 3.769 0 0 0 3.772 3.767h9.864a3.769 3.769 0 0 0 3.772-3.767v-9.743a3.769 3.769 0 0 0-3.772-3.767Z" fill="url(#e)"/></g><path fill-rule="evenodd" clip-rule="evenodd" d="M29.905 31.076a.959.959 0 0 0-.968.95c0 .524.433.95.968.95a.959.959 0 0 0 .968-.95.959.959 0 0 0-.968-.95Zm-2.259.95c0-1.225 1.012-2.217 2.259-2.217 1.247 0 2.258.992 2.258 2.216 0 1.224-1.011 2.217-2.258 2.217-.39 0-.755-.097-1.075-.267l-.971.953c.073.133.133.274.178.422h3.735a2.254 2.254 0 0 1 2.165-1.583c1.247 0 2.258.992 2.258 2.216 0 1.224-1.01 2.216-2.258 2.216a2.28 2.28 0 0 1-1.074-.266l-.971.953c.173.314.271.673.271 1.055 0 1.223-1.011 2.216-2.258 2.216s-2.259-.992-2.259-2.216c0-1.224 1.012-2.217 2.259-2.217.389 0 .754.097 1.074.267l.971-.954a2.178 2.178 0 0 1-.178-.42h-3.735a2.254 2.254 0 0 1-2.165 1.582c-1.247 0-2.258-.992-2.258-2.216 0-1.224 1.01-2.216 2.258-2.216.389 0 .755.096 1.074.266l.972-.953a2.173 2.173 0 0 1-.271-1.054Zm1.29 7.915c0-.525.434-.95.969-.95.534 0 .968.425.968.95 0 .524-.434.95-.968.95a.959.959 0 0 1-.968-.95Zm-3.064-4.908a.959.959 0 0 0-.968.95c0 .525.434.95.968.95a.959.959 0 0 0 .968-.95.959.959 0 0 0-.968-.95Zm7.097.95c0-.525.434-.95.968-.95.535 0 .968.425.968.95 0 .525-.433.95-.968.95a.959.959 0 0 1-.968-.95Z" fill="#fff"/><path d="M38.55 37.106H21.142v8.263H38.55v-8.263Z" fill="#F0B848"/><g filter="url(#f)"><path d="m29.846 39.574 8.704 5.794H21.142l8.704-5.794Z" fill="#F0B848"/></g><g filter="url(#g)"><path d="M21.141 37.107h17.407l2.15 4.614H19.152l1.988-4.614Z" fill="#F0B848"/></g></g><rect x="18.282" y="55.867" width="140.345" height="11.824" rx="2.056" fill="#E7E7E7"/><rect x="18.282" y="55.867" width="23.134" height="11.824" rx="2.056" fill="#3FE1B0"/></g></g><defs><filter id="a" x="0" y=".001" width="243" height="89" filterUnits="userSpaceOnUse" color-interpolation-filters="sRGB"><feFlood flood-opacity="0" result="BackgroundImageFix"/><feColorMatrix in="SourceAlpha" values="0 0 0 0 0 0 0 0 0 0 0 0 0 0 0 0 0 0 127 0" result="hardAlpha"/><feOffset dy="2"/><feGaussianBlur stdDeviation="4"/><feColorMatrix values="0 0 0 0 0.0470588 0 0 0 0 0.0470588 0 0 0 0 0.0509804 0 0 0 0.3 0"/><feBlend in2="BackgroundImageFix" result="effect1_dropShadow_2608_7504"/><feBlend in="SourceGraphic" in2="effect1_dropShadow_2608_7504" result="shape"/></filter><filter id="d" x="20.166" y="26.487" width="19.36" height="19.23" filterUnits="userSpaceOnUse" color-interpolation-filters="sRGB"><feFlood flood-opacity="0" result="BackgroundImageFix"/><feColorMatrix in="SourceAlpha" values="0 0 0 0 0 0 0 0 0 0 0 0 0 0 0 0 0 0 127 0" result="hardAlpha"/><feOffset dy=".122"/><feGaussianBlur stdDeviation=".488"/><feColorMatrix values="0 0 0 0 0.0470588 0 0 0 0 0.0470588 0 0 0 0 0.0509804 0 0 0 0.4 0"/><feBlend in2="BackgroundImageFix" result="effect1_dropShadow_2608_7504"/><feBlend in="SourceGraphic" in2="effect1_dropShadow_2608_7504" result="shape"/></filter><filter id="f" x="20.166" y="38.719" width="19.36" height="7.748" filterUnits="userSpaceOnUse" color-interpolation-filters="sRGB"><feFlood flood-opacity="0" result="BackgroundImageFix"/><feColorMatrix in="SourceAlpha" values="0 0 0 0 0 0 0 0 0 0 0 0 0 0 0 0 0 0 127 0" result="hardAlpha"/><feOffset dy=".122"/><feGaussianBlur stdDeviation=".488"/><feColorMatrix values="0 0 0 0 0.0470588 0 0 0 0 0.0470588 0 0 0 0 0.0509804 0 0 0 0.4 0"/><feBlend in2="BackgroundImageFix" result="effect1_dropShadow_2608_7504"/><feBlend in="SourceGraphic" in2="effect1_dropShadow_2608_7504" result="shape"/></filter><filter id="g" x="18.177" y="36.252" width="23.497" height="6.567" filterUnits="userSpaceOnUse" color-interpolation-filters="sRGB"><feFlood flood-opacity="0" result="BackgroundImageFix"/><feColorMatrix in="SourceAlpha" values="0 0 0 0 0 0 0 0 0 0 0 0 0 0 0 0 0 0 127 0" result="hardAlpha"/><feOffset dy=".122"/><feGaussianBlur stdDeviation=".488"/><feColorMatrix values="0 0 0 0 0.0470588 0 0 0 0 0.0470588 0 0 0 0 0.0509804 0 0 0 0.4 0"/><feBlend in2="BackgroundImageFix" result="effect1_dropShadow_2608_7504"/><feBlend in="SourceGraphic" in2="effect1_dropShadow_2608_7504" result="shape"/></filter><clipPath id="b"><rect x="8" y="6.001" width="227" height="73" rx="8.225" fill="#fff"/></clipPath><clipPath id="c"><path fill="#fff" transform="translate(18.295 26.59)" d="M0 0h23.317v19.744H0z"/></clipPath><linearGradient id="e" x1="29.846" y1="27.341" x2="29.846" y2="44.618" gradientUnits="userSpaceOnUse"><stop stop-opacity=".81"/><stop offset="1"/></linearGradient></defs></svg>
