<svg viewBox="0 0 961 448" xmlns="http://www.w3.org/2000/svg" xmlns:xlink="http://www.w3.org/1999/xlink"><style>.st16{fill:#fff}.st18,.st22{display:inline}.st18{opacity:.05;fill:#e6eaef}.st22{fill:none;stroke-width:.25;stroke-miterlimit:10;stroke:#545a5b}</style><symbol id="_x5B_Icon_x5D__Send_80__x28_Full_Color_x29_" viewBox="-39 -40 78 80"><radialGradient id="SVGID_1_" cx="-18437.613" cy="7390.873" r="36.657" gradientTransform="matrix(.7669 -.0339 .0503 1.1202 13802.978 -8885.244)" gradientUnits="userSpaceOnUse"><stop offset=".045" stop-color="#ffea00"/><stop offset=".12" stop-color="#ffde00"/><stop offset=".254" stop-color="#ffbf00"/><stop offset=".429" stop-color="#ff8e00"/><stop offset=".769" stop-color="#ff272d"/><stop offset=".872" stop-color="#e0255a"/><stop offset=".953" stop-color="#cc2477"/><stop offset="1" stop-color="#c42482"/></radialGradient><path d="M24.02 32.56c-1.96-2.27-2.87-7.37-.89-12.54s5.03-4.05 6.93-9.32C32.57 3.74 31.4-5.61 31.4-5.61s3.01-8.67 5.11.54c4.65 17.29-12.49 33.37-12.49 37.63z" fill="url(#SVGID_1_)"/><radialGradient id="XMLID_7_" cx="-6626.281" cy="6692.748" r="64.328" gradientTransform="matrix(1.2332 0 0 1.2255 8186.596 -8177.513)" gradientUnits="userSpaceOnUse"><stop offset="0" stop-color="#00ccda"/><stop offset=".22" stop-color="#0083ff"/><stop offset=".261" stop-color="#007af9"/><stop offset=".33" stop-color="#0060e8"/><stop offset=".333" stop-color="#005fe7"/><stop offset=".438" stop-color="#2639ad"/><stop offset=".522" stop-color="#401e84"/><stop offset=".566" stop-color="#4a1475"/></radialGradient><path id="XMLID_50_" d="M.11-39.24c20.06 0 36.32 16.24 36.32 36.26S20.18 33.29.13 33.29s-36.3-16.24-36.3-36.26C-36.2-23.02-19.93-39.24.11-39.24z" fill="url(#XMLID_7_)"/><linearGradient id="SVGID_2_" gradientUnits="userSpaceOnUse" x1="5.214" y1="-19.3" x2="-10.349" y2="31.611"><stop offset="0" stop-color="#000f43" stop-opacity=".4"/><stop offset=".174" stop-color="#00134f" stop-opacity=".331"/><stop offset=".703" stop-color="#001c6d" stop-opacity=".119"/><stop offset="1" stop-color="#002079" stop-opacity="0"/></linearGradient><path d="M27.33-25.34c-.76-.54-1.6-1.03-2.46-1.48.98 1.43 2.07 3.15 3.13 5.12.77.85 1.48 1.68 2.06 2.57.28.44.6.98.93 1.61 2.04 3.65 4.29 9.56 4.35 15.63v.46c0 1.52-.14 3.05-.47 4.53.02-.12.03-.23.05-.35-.02.09-.03.18-.05.27.03-.17.05-.32.08-.49.42-3.51.12-6.94-1.36-9.47-.02-.04-.05-.07-.07-.11.77 3.84 1.03 8.08.17 12.33 0 0-.34 2.06-2.89 8.33-1.47 3.61-4.08 6.56-6.38 8.72-2.02 2.48-3.85 4.15-4.87 5.21-2.11 2.21-3 3.87-3.36 4.95-.32.16-4.35 4.05-4.67 4.2-1.77-2.71-7.3-11.19-4.67-19.11 1.19-3.59 4.21-7.32 7.37-9.41.14-.16 1.88-2.04 2.71-6.27.86-4.38.41-7.79-1.35-12.84-2.07-4.43-7.37-8.81-12.33-9.26-10.61-.96-14.49 5.29-14.49 5.29 3.79-1.51 7.98-1.19 10.53.37 2.57 1.58 4.12 2.75 5.38 2.29 1.23-.47 2.22.87 1.34 2.25a6.434 6.434 0 0 1-6.5 2.81c-2.57-.42-4.93-2.44-8.3-.48-.2.12-.41.25-.63.41-.22.15.72-.22.5-.06-.66.35-1.82 1.13-2.12 1.4-.05.05.51-.18.46-.13-3.15 2.58-2.76 4.32-2.66 5.41.08.87.65 1.99 1.62 2.45.47-.25.76-.45.76-.45l-.31.62c.04.02.08.02.11.03.38-.18 1.23-.66 1.67-.95.58-.4.77-.76.77-.76s.15.08.04.44c-.05.14-.22.6-.79 1.07h.04c.31-.17.63-.39.97-.67.16.58.45 1.19.39 2.28-.05.76-.03.96-.17 1.26-.12.25.07.35.28.09-.04.2-.09.39-.18.6v.02c.26.91 5.58 3.29 5.97 3.57.56.38 1.14.98 1.57 1.69.3.47.52 1.13.57 2.12.03.72-.31 1.2-5.69 1.76-1.47.14-2.33 1.2-2.82 2.18-.09.21-.18.4-.27.59-.1.27-.17.5-.21.69.88 2.51 2.36 4.63 4.53 6.24.12.11-.47-.03-.35.08.14.13 1.04.49 1.21.57.21.1-.89.56-1.86.45-.99-.11-1.2-.23-1.72-.45.22.22.91.5.75.5-1.06-.16-2.39-.78-3.52-1.47-.01.12.02.2.07.35-.53-.22-1.82-1.12-2.2-1.88.02.18.02.26.02.44-.37-.32-.75-.68-1.08-1.12l-.02-.02c-3.06 1.22-5.75 1.3-8.02.75-.5.5-.74.13-1.87 2.61-.08.15.06-.15 0 0-.19.48.11-.64 0 0-1.9-1.49-4.41-3.19-5.61-4.38-.01-.05 1.4.4 0 0-.49-.14-.46-.43-.53-3.05-.02-.2 0-.42-.02-.6-.96-1.22-1.62-2.25-1.86-2.78-1.24-2.13-2.61-5.45-3.94-10.7 0 0 .76 1.94 2.11 4.1-1.1-2.79-2.17-7.16-2.38-13.9.04.22.35 1.91 1.03 4.12-.19-4.49.28-10.06 2.84-16.35.76-1.86 2.03-4.67 4.17-7.76 6.75-7.06 16.28-11.46 26.82-11.46 10.99 0 20.88 4.78 27.68 12.38z" fill="url(#SVGID_2_)"/><radialGradient id="SVGID_3_" cx="-8247.6" cy="4885.546" r="21.698" gradientTransform="matrix(1.227 -.1226 .1234 1.2186 9558.732 -6976.939)" gradientUnits="userSpaceOnUse"><stop offset=".003" stop-color="#ffea00"/><stop offset=".497" stop-color="#ff272d"/><stop offset="1" stop-color="#c42482"/></radialGradient><path d="M19.18-30.46C32.5-28.93 38.4-15.29 30.83-15.02c-6.84.22-17.96-16.17-11.65-15.44z" fill="url(#SVGID_3_)"/><radialGradient id="SVGID_4_" cx="-8249.563" cy="4906.352" r="36.234" gradientTransform="matrix(1.227 -.1226 .1234 1.2186 9558.732 -6976.939)" gradientUnits="userSpaceOnUse"><stop offset=".003" stop-color="#ffe900"/><stop offset=".157" stop-color="#ffaf0e"/><stop offset=".316" stop-color="#ff7a1b"/><stop offset=".472" stop-color="#ff4e26"/><stop offset=".621" stop-color="#ff2c2e"/><stop offset=".762" stop-color="#ff1434"/><stop offset=".892" stop-color="#ff0538"/><stop offset="1" stop-color="#ff0039"/></radialGradient><path d="M31.79-12.23c9.17 5.3 6.78 16.75 6.78 16.75S35.03.44 32.63-6.08c-2.38-6.44-6.35-9.35-.84-6.15z" fill="url(#SVGID_4_)"/><radialGradient id="SVGID_5_" cx="-8244.438" cy="4872.764" r="33.249" gradientTransform="matrix(1.227 -.1226 .1234 1.2186 9558.732 -6976.939)" gradientUnits="userSpaceOnUse"><stop offset=".003" stop-color="#ff272d"/><stop offset=".497" stop-color="#c42482"/><stop offset=".987" stop-color="#620700"/></radialGradient><path d="M2.68-37.24c12.78-4.05 23.77 5.95 17 9.29-6.16 3.02-23.06-7.37-17-9.29z" fill="url(#SVGID_5_)"/><radialGradient id="SVGID_6_" cx="74.975" cy="7.964" r="63.592" gradientTransform="matrix(1.0063 0 0 1 -55.936 0)" gradientUnits="userSpaceOnUse"><stop offset=".156" stop-color="#ffea00"/><stop offset=".231" stop-color="#ffde00"/><stop offset=".365" stop-color="#ffbf00"/><stop offset=".541" stop-color="#ff8e00"/><stop offset=".763" stop-color="#ff272d"/><stop offset=".796" stop-color="#f92433"/><stop offset=".841" stop-color="#e91b45"/><stop offset=".893" stop-color="#cf0e62"/><stop offset=".935" stop-color="#b5007f"/></radialGradient><path d="M32.74-17.09c.31.44.73 1.83 1.1 2.46 2.26 3.62 2.27 6.51 2.27 6.57 1.36 6.77 1.24 9.53.4 14.64-.68 4.11-3.63 10.01-6.18 12.85-2.63 2.92-.78 1.97-3.33 4.11-2.24 2.46-4.4 4.9-5.58 5.88-8.53 7.09-8.34 8.59-8.17 8.85-.03-.03-.07-.07-.12-.13-.1.4-.17.74-.17.74S8.29 34.23 7.31 26.5c-.64-5.04 1.26-10.3 4.01-13.66 2.33-2.85 4.83-4.72 4.83-4.72 2.08-2.97 3.22-6.63 3.22-10.56 0-9.86-8.05-17.85-17.97-17.85-1.38 0-2.73.16-4.02.45-4.68.89-7.39 3.23-8.74 4.83-.77.91-1.1 1.58-1.1 1.58 4.2-1.49 8.83-1.18 11.66.37 2.84 1.57 4.56 2.73 5.96 2.27 1.38-.46 2.47.87 1.49 2.24-.97 1.37-3.48 3.33-7.2 2.79-2.84-.41-5.45-2.42-9.18-.47-.23.12-.46.24-.7.41-.25.14.8-.22.56-.06-.73.35-2.01 1.12-2.34 1.39-.06.05.56-.18.51-.13-3.49 2.56-3.05 4.28-2.94 5.37.09.87.72 1.98 1.79 2.43.52-.25.84-.44.84-.44s-.22.4-.34.61c.04.02.08.01.12.03.42-.18 1.36-.65 1.85-.94.64-.4.84-.76.84-.76s.17.08.04.43c-.05.14-.24.6-.87 1.06h.04c.34-.17.7-.39 1.07-.66.18.58.5 1.18.43 2.26-.04.76-.02.96-.17 1.25-.15.24.06.34.3.08-.04.2-.1.39-.2.6v.02c.29.91 6.18 3.26 6.61 3.54.62.38 1.26.97 1.73 1.68.33.46.57 1.12.63 2.11.02.45-.12.8-1.68 1.14-.94.2-2.38.4-4.62.61-1.63.14-2.58 1.19-3.13 2.16-.1.21-.2.4-.3.59-.11.27-.19.5-.23.68.97 2.49 2.61 4.59 5.01 6.18.13.11-.52-.03-.39.08.15.12 1.15.48 1.34.56.23.1-.99.56-2.06.44-1.09-.11-1.32-.23-1.91-.45.24.21 1.01.5.83.49-1.18-.16-2.64-.77-3.89-1.46-.01.12.02.2.08.35-.58-.22-2.02-1.11-2.43-1.87.02.18.03.26.02.44-.41-.32-.83-.67-1.19-1.11l-.02-.02c-3.38 1.21-6.36 1.29-8.88.75-.55.49-1.44 1.24-2.69 3.69-.09.15-.13-.31-.2-.16-.49 1.12-.78 2.96-.73 4.23 0 0-1.01-.46-1.84-2.36-.15-.34-.25-.53-.35-.72-.05-.06.1.63.08.59-.14-.24-.52-.58-.68-1.03-.11-.33-.27-.51-.37-.92l-.02-.04c-.01.12.03.49 0 .42-.35-.7-.69-1.5-1.01-2.43-.45-1.47-.97-3.46-1.05-6.06-.02-.2 0-.42-.02-.59-1.06-1.21-1.79-2.23-2.06-2.76-1.38-2.11-2.89-5.4-4.36-10.61 0 0 .84 1.93 2.33 4.06-1.22-2.76-2.4-7.1-2.64-13.78.04.21.39 1.89 1.13 4.08-.21-4.46.31-9.98 3.15-16.21 1.68-3.67 5.56-11.11 15.02-16.92 0 0 3.22-2.38 8.76-4.17.41-.15.82-.29 1.25-.43-.13.05-.26.11-.39.17C-6.93-39.28-3.09-40 1.28-40c14.33-.01 18.56 5.71 18.56 5.71s-.01-.01-.04-.03c.2.19.4.39.58.59-2.26-2.12-7.42-2.26-9.35-2.11 3.29.96 5.46 1.77 9.67 3.38.49.18 1 .39 1.51.62.06.02.11.05.17.08.1.05.2.09.31.14 1.81.84 3.74 1.98 5.75 3.58 4.23 3.36 5.15 6.63 5.63 8.79-.07-.21-.28-.69-.42-1-1.09-2.32-3.51-3.74-6.13-4.96 1.08 1.41 2.29 3.13 3.47 5.08.84.83 1.11 2.15 1.75 3.04z" fill="url(#SVGID_6_)"/><radialGradient id="SVGID_7_" cx="70.191" cy="39.895" r="75.091" gradientTransform="matrix(1.0063 0 0 1 -55.936 0)" gradientUnits="userSpaceOnUse"><stop offset=".279" stop-color="#ffea00"/><stop offset=".402" stop-color="#fd0"/><stop offset=".63" stop-color="#ffba00"/><stop offset=".856" stop-color="#ff9100"/><stop offset=".932" stop-color="#ff6711"/><stop offset=".994" stop-color="#ff4a1d"/></radialGradient><path d="M27.59-25.12c1.72 1.89 3.27 4.05 4.45 6.5 3.02 6.31 7.69 16.8 4.01 27.75-2.91 8.66-6.89 13.39-11.96 18.02-8.23 7.5-10.53 10.86-10.53 12.85 0 0-9.5-10.52-5.38-21.49C12.31 7.53 20.74 7.93 26.32-3.52 32.89-17 21.01-31.7 11.18-35.82c.6.13 21.84 4.91 22.96 16.98-.02-.21-.5-3.55-6.55-6.28z" fill="url(#SVGID_7_)"/><linearGradient id="SVGID_8_" gradientUnits="userSpaceOnUse" x1="-8348.438" y1="4894.087" x2="-8325.178" y2="4900.016" gradientTransform="matrix(1.2193 -.1226 .1227 1.2186 9554.188 -6976.939)"><stop offset="0" stop-color="#c42482" stop-opacity=".5"/><stop offset=".474" stop-color="#ff272d" stop-opacity=".5"/><stop offset=".647" stop-color="#ff6f1d" stop-opacity=".665"/><stop offset=".815" stop-color="#ffad0e" stop-opacity=".824"/><stop offset=".937" stop-color="#ffd405" stop-opacity=".94"/><stop offset="1" stop-color="#ffe302"/></linearGradient><path d="M.07 14.03c.03.71-.34 1.19-6.27 1.74-2.44.22-3.38 2.47-3.66 3.41-.87-2.24-1.23-4.59-1.03-7.44.13-1.86 1.39-3.86 1.99-5.04 0 0 .13.17.2.24 1.13 1.17 5.89 2.96 6.33 3.21.49.32 2.36 1.68 2.44 3.88z" fill="url(#SVGID_8_)"/><linearGradient id="SVGID_9_" gradientUnits="userSpaceOnUse" x1="-717.778" y1="533.57" x2="-722.211" y2="544.931" gradientTransform="rotate(-5.732 -5502.932 -6603.71)"><stop offset="0" stop-color="#891551" stop-opacity=".6"/><stop offset="1" stop-color="#c42482" stop-opacity="0"/></linearGradient><path d="M-26.05 27.28c-.09.15-.13-.31-.2-.16-.49 1.12-.78 2.94-.71 4.23 0 0-1.01-.46-1.84-2.36-.15-.34-.25-.53-.35-.72-.05-.06.1.63.08.59-.14-.24-.52-.58-.68-1.01-.14-.34-.27-.53-.38-.96-.03-.12.03.51 0 .44-1.94-3.73-2.31-9.36-2.11-9.12 4.13 4.38 8.86 5.42 8.86 5.42-.5.37-1.59 1.43-2.67 3.65z" fill="url(#SVGID_9_)"/><linearGradient id="SVGID_10_" gradientUnits="userSpaceOnUse" x1="-1030.342" y1="-1083.241" x2="-1022.676" y2="-1091.949" gradientTransform="rotate(-5.732 10285.296 -10601.643)"><stop offset=".005" stop-color="#891551" stop-opacity=".5"/><stop offset=".484" stop-color="#ff272d" stop-opacity=".5"/><stop offset="1" stop-color="#ff272d" stop-opacity="0"/></linearGradient><path d="M-10.38-18.55c-5.7 2.42-12.19 5.83-11.95 13.59.33 10.21 9.58 8.19 9.58 8.19-.35-.08-1.28-.74-1.61-1.45-.35-.88-.99-2.87.95-4.95 3.03-3.27-6.23-7.75 8.07-16.22.37-.19-3.35.12-5.04.84z" fill="url(#SVGID_10_)"/><linearGradient id="SVGID_11_" gradientUnits="userSpaceOnUse" x1="-1015.8" y1="-1098.35" x2="-1015.795" y2="-1092.276" gradientTransform="rotate(-5.732 10285.296 -10601.643)"><stop offset="0" stop-color="#c42482"/><stop offset=".773" stop-color="#c42482" stop-opacity="0"/></linearGradient><path d="M-12.4-13.46c4.05-1.4 8.76-1.15 11.58.39 1.89 1.04 4.31 2.72 5.8 2.31-1.29.51-2.27.74-3.44.8-.2 0-.44 0-.66.03-.4 0-.82-.02-1.29-.07-.73-.07-1.54-.52-2.27-.45-.04 0 .71.31.65.29-.39-.08-.81-.1-1.26-.15-.28-.03-.53-.07-.81-.08-8.43-.71-15.55 4.54-15.55 4.54-.6-2.03 2.72-6.04 7.25-7.61z" fill="url(#SVGID_11_)"/><linearGradient id="SVGID_12_" gradientUnits="userSpaceOnUse" x1="11.882" y1="37.111" x2="36.747" y2="-18.491"><stop offset="0" stop-color="#fff14f"/><stop offset=".268" stop-color="#ffee4c"/><stop offset=".452" stop-color="#ffe643"/><stop offset=".612" stop-color="#ffd834"/><stop offset=".757" stop-color="#ffc41e"/><stop offset=".892" stop-color="#ffab02"/><stop offset=".902" stop-color="#ffa900"/><stop offset=".949" stop-color="#ffa000"/><stop offset="1" stop-color="#ff9100"/></linearGradient><path d="M27.58-25.17C36.1-16.86 40.41-6.75 38.59 4.58c0 0 .73-5.81-2.03-11.76 1.33 5.8 1.48 13.02-2.04 20.49-4.7 9.97-12.44 15.22-15.39 17.4-4.47 3.32-6.33 6.69-6.36 7.39-1.34-2.72-5.38-12.05-.43-20.08 4.63-7.53 11.93-9.76 17.04-16.66 9.4-12.72-1.8-26.53-1.8-26.53z" fill="url(#SVGID_12_)"/><linearGradient id="SVGID_13_" gradientUnits="userSpaceOnUse" x1="16.652" y1="5.121" x2="4.87" y2="-26.514"><stop offset="0" stop-color="#ff8e00"/><stop offset=".015" stop-color="#ff8e00" stop-opacity=".973"/><stop offset=".282" stop-color="#ff8e00" stop-opacity=".5"/><stop offset="1" stop-color="#ff8e00" stop-opacity="0"/></linearGradient><path d="M26.36-3.54c-2.98 6.11-6.7 8.78-10.21 11.67.41-.57.51-.77.74-1.14 3.09-3.28 7.66-11.27 4.35-21.31-6.24-18.89-31.18-10-33.8-7.5 1.06-10.93 19.48-16.17 31.47-9.08 6.81 6.43 12.33 17.34 7.45 27.36z" fill="url(#SVGID_13_)"/></symbol><g id="Assets"><use width="78" height="80" transform="matrix(3.5891 0 0 -3.5891 84.05 364.129)" overflow="visible" xlink:href="#_x5B_Icon_x5D__Send_80__x28_Full_Color_x29_"/><path class="st16" d="M420.61 238.44h35.68c15.55 0 25.85 8.69 25.85 22.19 0 8.01-3.89 14.52-11.09 18.07 8.12 3.32 12.81 10.29 12.81 19.67 0 14.64-10.64 23.56-26.42 23.56h-36.83v-83.49zm9.49 8.69v27.45h26.88c10.18 0 15.67-5.95 15.67-13.95 0-8-6.29-13.5-16.47-13.5H430.1zm0 36.26v29.74h27.22c10.29 0 16.93-6.18 16.93-14.87 0-8.81-5.95-14.87-17.38-14.87H430.1zm67.52-23.22h9.04v11.67c2.63-8.23 8.81-12.58 17.61-12.58 4.23 0 7.89.8 10.29 2.29l-3.89 8.92c-1.71-1.14-4.23-1.94-7.55-1.94-10.29 0-16.24 5.95-16.24 19.56v33.85h-9.26v-61.77zm39.19 30.88c0-18.07 14.07-32.14 32.02-32.14 18.07 0 32.14 14.07 32.14 32.14 0 17.84-13.95 32.14-32.14 32.14s-32.02-13.95-32.02-32.14zm54.66 0c0-13.15-9.84-23.33-22.64-23.33s-22.53 10.18-22.53 23.33c0 13.27 9.72 23.22 22.53 23.22 12.92 0 22.64-10.07 22.64-23.22zm13.63-30.88h9.83l15.55 48.95 18.87-48.95h8.69l18.41 48.6 16.12-48.6h9.72l-21.39 61.76h-8.46l-18.98-48.95-18.98 48.95h-9.15l-20.23-61.76zm99.9 50.09l8.12-5.49c4.23 6.06 10.52 10.06 19.9 10.06 9.61 0 14.64-4.57 14.64-10.75 0-6.86-8.46-8.23-17.5-10.06-10.64-2.06-21.96-4.92-21.96-17.27 0-9.61 8.35-18.07 22.99-17.96 11.44 0 19.21 4.23 24.7 10.98l-7.78 5.26c-3.66-4.92-9.04-8.23-16.93-8.23-9.49 0-13.38 4.12-13.38 9.84 0 6.4 7.43 7.66 17.04 9.61 10.64 2.06 22.3 5.03 22.3 17.73 0 9.72-8.23 19.33-24.36 19.21-13.49 0-22.29-5.03-27.78-12.93zm59.91-18.98c0-18.18 13.72-32.37 32.25-32.37 18.07 0 31.45 13.15 31.45 31.45v4.23h-54.55c1.37 11.78 10.41 20.13 23.45 20.13 9.83 0 16.47-4.35 20.7-11.89l8 4.69c-6.29 9.84-15.21 15.67-28.71 15.67-19.79 0-32.59-13.84-32.59-31.91zm9.37-4.92H819c-1.49-11.67-9.83-19.1-21.84-19.1-11.78 0-20.82 8.12-22.88 19.1zm66.14-26.19h9.04v11.67c2.63-8.23 8.81-12.58 17.61-12.58 4.23 0 7.89.8 10.29 2.29l-3.89 8.92c-1.71-1.14-4.23-1.94-7.55-1.94-10.29 0-16.24 5.95-16.24 19.56v33.85h-9.26v-61.77zM420 126.31h55.74v15.08h-39.75v20.45h39.75v14.96h-39.75v32.9H420v-83.39zm74.71-5.82c5.48 0 9.25 4 9.25 9.37 0 5.37-3.66 9.37-9.37 9.37-5.48 0-9.25-3.88-9.25-9.14 0-5.72 4.22-9.6 9.37-9.6zm-7.89 27.53h15.76v61.68h-15.76v-61.68zm61.46 17.13c-1.94-1.6-4.91-2.74-7.65-2.74-6.4 0-10.05 4.11-10.05 13.14v34.15h-15.65v-61.68h14.96v8.91c3.2-6.97 8.11-9.48 14.74-9.48 3.66 0 7.65 1.14 10.51 3.2l-6.86 14.5zm6.51 14.05c0-17.71 13.14-32.44 31.76-32.44 18.5 0 31.64 13.14 31.64 31.41v6.51h-47.98c1.71 7.77 7.77 12.91 17.02 12.91 7.2 0 12.11-3.43 15.31-9.14l13.14 7.88c-6.51 9.6-15.76 14.62-28.9 14.62-20 .01-31.99-13.36-31.99-31.75zm15.65-6.97h32.44c-1.71-7.88-8.11-12.22-16.45-12.22-7.54 0-13.82 4.23-15.99 12.22zm51.63-24.21h11.08v-3.08c0-16.79 7.08-23.76 22.62-23.76h5.48v13.59h-4.45c-7.31 0-8.91 2.51-8.91 10.17v3.08h13.36v14.16h-13.02v47.52h-15.08v-47.52h-11.08v-14.16zm42.15 30.84c0-17.71 13.48-32.1 32.21-32.1 17.82 0 32.21 14.28 32.21 32.1s-14.39 32.1-32.21 32.1c-19.19 0-32.21-14.05-32.21-32.1zm49.12 0c0-9.82-7.31-17.48-16.91-17.48-9.71 0-16.91 7.65-16.91 17.48 0 9.82 7.2 17.48 16.91 17.48 9.6 0 16.91-7.66 16.91-17.48zm36.55-.69l-22.27-30.16h18.5l13.14 18.96 13.48-18.96h18.16l-22.62 30.04 23.76 31.64h-18.39l-14.74-20.1-14.28 20.1h-18.39l23.65-31.52z"/></g></svg>