<?xml version="1.0" encoding="utf-8"?>
<svg width="750px" height="750" viewBox="0 0 750 750" fill="none" xmlns="http://www.w3.org/2000/svg">
  <g clip-path="url(#clip0_4383_20980)">
    <path d="M314.805 154.949H314.865C336.905 77.8991 432.945 40.2891 530.815 40.2891C598.445 40.2891 659.155 61.6991 700.775 95.6891C675.937 96.8603 651.413 101.734 628.015 110.149C661.645 122.649 690.535 141.879 711.945 165.669C695.792 162.889 679.412 161.65 663.025 161.969C703.301 220.312 724.819 289.554 724.705 360.449C724.705 553.749 568.005 710.449 374.705 710.449C184.385 710.449 24.7051 551.099 24.7051 360.449C24.7051 330.339 28.7051 299.249 36.4751 270.089C38.5151 263.969 41.3551 258.099 45.1251 255.949C49.8451 253.259 54.1451 261.279 54.8351 263.889C59.9528 283.059 66.839 301.712 75.4051 319.609C74.6551 279.649 91.7251 243.249 115.205 211.769C130.865 190.779 145.385 171.329 152.085 115.199C152.535 111.429 156.105 108.719 159.715 109.899C210.675 126.579 237.915 211.439 233.685 282.399C261.835 286.429 261.705 257.019 261.705 257.019C252.705 229.359 258.705 177.949 314.705 154.949H314.805Z" fill="url(#paint0_linear_4383_20980)"/>
    <path opacity="0.9" d="M713.255 271.32C721.765 463.82 563.515 629.79 370.545 629.79C189.895 629.79 41.8649 490.16 28.4749 312.94C26.086 329.536 24.8297 346.274 24.7148 363.04C26.0848 552.66 185.375 710.45 374.715 710.45C568.015 710.45 724.715 553.75 724.715 360.45C724.715 329.65 720.725 299.78 713.255 271.32Z" fill="url(#paint1_radial_4383_20980)"/>
    <path style="mix-blend-mode:screen" d="M366.175 180.459C362.405 173.789 344.995 163.919 337.385 162.199C366.185 69.9491 512.905 41.6291 602.705 57.9491C640.075 64.7491 686.615 85.1091 700.775 95.6891C659.155 61.6991 598.435 40.2891 530.815 40.2891C432.945 40.2891 336.905 77.8991 314.865 154.949H314.705C258.705 177.949 252.705 229.379 261.705 257.029C270.345 224.039 311.455 183.499 366.175 180.459Z" fill="url(#paint2_radial_4383_20980)"/>
    <path d="M467.885 116.748C389.265 132.218 363.575 137.278 337.265 162.288C366.815 84.0584 442.245 68.1984 532.125 103.858C510.733 108.268 489.32 112.568 467.885 116.758V116.748Z" fill="url(#paint3_linear_4383_20980)"/>
    <path d="M43.7049 259.38C22.2249 347.32 38.8249 450.68 136.405 537.42C107.355 505.65 71.8849 388.35 150.155 304.55C155.425 298.9 164.495 303.05 164.785 310.77C171.235 484.93 311.765 591.3 473.785 571.41C423.585 568.59 257.565 510.44 381.065 487.44C445.615 475.41 546.825 456.56 546.825 365.74C546.825 218.52 432.995 175.48 363.965 181.88C316.725 186.26 274.675 216.24 261.735 257.01C266.705 273.08 246.895 284.33 233.685 282.44C237.925 211.49 210.685 126.58 159.715 109.9C156.115 108.72 152.535 111.43 152.085 115.2C145.385 171.33 130.865 190.78 115.215 211.77C91.7249 243.26 74.6549 279.65 75.4049 319.61C66.839 301.713 59.9528 283.06 54.8349 263.89C54.2649 261.73 51.1349 255.7 47.3549 255.42C45.3049 255.27 44.2149 257.27 43.7049 259.38Z" fill="url(#paint4_radial_4383_20980)"/>
    <path style="mix-blend-mode:screen" d="M337.695 496.349C432.735 573.519 623.865 515.659 623.865 328.029C546.705 444.989 448.425 525.669 337.705 496.349H337.695Z" fill="url(#paint5_linear_4383_20980)"/>
    <path style="mix-blend-mode:screen" d="M150.155 304.55C151.02 303.583 152.108 302.844 153.326 302.397C154.543 301.951 155.851 301.811 157.135 301.99C87.0755 387.44 143.585 537.51 182.365 574.38C184.535 580.52 145.575 548.59 140.205 541.12C110.705 516.09 68.4255 392.06 150.155 304.55Z" fill="url(#paint6_linear_4383_20980)"/>
    <path d="M374.705 503.419C469.765 503.419 546.835 440.54 546.835 362.97C546.835 285.4 469.765 222.52 374.705 222.52C293.605 222.52 202.535 275.28 202.575 365.02C202.615 503.69 349.115 583.47 473.995 571.39C464.615 570.3 406.095 567.19 366.545 522.45C362.975 518.42 356.785 511.38 359.595 506.81C362.395 502.24 370.115 503.41 374.695 503.41L374.705 503.419Z" fill="url(#paint7_linear_4383_20980)"/>
    <path opacity="0.6" d="M528.085 299.15L392.045 429.33C379.975 437.91 367.125 438.53 354.445 430.75L221.015 299.63C224.822 293.512 229.101 287.701 233.815 282.25L247.815 295.35C282.855 328.19 311.185 354.72 351.115 388.8C369.135 404.18 374.735 403.88 392.415 388.8C438.095 349.8 471.505 320.3 514.935 281.51C519.775 287.036 524.169 292.938 528.075 299.16L528.085 299.15Z" fill="white"/>
    <mask id="mask0_4383_20980" style="mask-type:luminance" maskUnits="userSpaceOnUse" x="202" y="297" width="345" height="276">
      <path d="M546.835 362.969C546.835 440.539 469.765 503.419 374.705 503.419C370.115 503.419 362.405 502.239 359.595 506.819C356.785 511.379 362.975 518.419 366.545 522.449C403.705 564.489 457.615 569.779 471.765 571.169L473.995 571.389C349.115 583.469 202.615 503.689 202.575 365.019C202.445 341.93 208.871 319.279 221.105 299.699L355.185 421.479C364.725 430.139 380.795 430.139 390.335 421.479L526.955 297.389C539.655 316.969 546.835 339.289 546.835 362.969Z" fill="white"/>
    </mask>
    <g mask="url(#mask0_4383_20980)">
      <path opacity="0.7" d="M162.705 200.979H597.775V595.449H162.705V200.979Z" fill="url(#paint8_linear_4383_20980)"/>
      <g filter="url(#filter0_f_4383_20980)">
        <path fill-rule="evenodd" clip-rule="evenodd" d="M334.745 422.298C309.395 395.918 233.475 308.268 233.475 308.268L239.345 308.528L358.205 397.298C367.105 403.768 379.805 403.698 388.625 397.148L505.175 308.648L511.355 308.158C511.355 308.158 437.915 393.728 409.785 421.918C381.655 450.108 360.095 448.678 334.745 422.298Z" fill="#458FCD"/>
      </g>
    </g>
    <path d="M398.855 152.258C417.275 146.458 415.655 128.228 415.655 128.228C415.655 128.228 406.445 117.378 388.195 123.388C371.115 129.018 368.465 141.188 368.465 141.188C368.465 141.188 377.795 158.888 398.855 152.258Z" fill="white"/>
  </g>
  <defs>
    <filter id="filter0_f_4383_20980" x="201.475" y="276.158" width="341.88" height="198.416" filterUnits="userSpaceOnUse" color-interpolation-filters="sRGB">
      <feFlood flood-opacity="0" result="BackgroundImageFix"/>
      <feBlend mode="normal" in="SourceGraphic" in2="BackgroundImageFix" result="shape"/>
      <feGaussianBlur stdDeviation="16" result="effect1_foregroundBlur_4383_20980"/>
    </filter>
    <linearGradient id="paint0_linear_4383_20980" x1="146.185" y1="155.649" x2="639.585" y2="615.869" gradientUnits="userSpaceOnUse">
      <stop stop-color="#1B91F3"/>
      <stop offset="1" stop-color="#0B68CB"/>
    </linearGradient>
    <radialGradient id="paint1_radial_4383_20980" cx="0" cy="0" r="1" gradientUnits="userSpaceOnUse" gradientTransform="translate(145.275 314) rotate(66.5177) scale(295.96 283.519)">
      <stop offset="0.53" stop-color="#0B4186" stop-opacity="0"/>
      <stop offset="1" stop-color="#0B4186" stop-opacity="0.45"/>
    </radialGradient>
    <radialGradient id="paint2_radial_4383_20980" cx="0" cy="0" r="1" gradientUnits="userSpaceOnUse" gradientTransform="translate(383.705 192.449) rotate(-127.997) scale(63.2702 104.698)">
      <stop stop-color="#EF3ACC" stop-opacity="0"/>
      <stop offset="1" stop-color="#EF3ACC" stop-opacity="0.64"/>
    </radialGradient>
    <linearGradient id="paint3_linear_4383_20980" x1="283.475" y1="273.458" x2="461.015" y2="75.8184" gradientUnits="userSpaceOnUse">
      <stop stop-color="#0F5DB0"/>
      <stop offset="1" stop-color="#0F5DB0" stop-opacity="0"/>
    </linearGradient>
    <radialGradient id="paint4_radial_4383_20980" cx="0" cy="0" r="1" gradientUnits="userSpaceOnUse" gradientTransform="translate(242.705 551.15) rotate(-64.2624) scale(461.716 570.355)">
      <stop offset="0.02" stop-color="#094188"/>
      <stop offset="0.97" stop-color="#0B4186" stop-opacity="0"/>
    </radialGradient>
    <linearGradient id="paint5_linear_4383_20980" x1="594.625" y1="416.559" x2="512.075" y2="619.249" gradientUnits="userSpaceOnUse">
      <stop stop-color="#E247C4" stop-opacity="0"/>
      <stop offset="1" stop-color="#E247C4" stop-opacity="0.64"/>
    </linearGradient>
    <linearGradient id="paint6_linear_4383_20980" x1="82.7155" y1="234.79" x2="155.445" y2="527.51" gradientUnits="userSpaceOnUse">
      <stop offset="0.1" stop-color="#EF3ACC"/>
      <stop offset="1" stop-color="#EF3ACC" stop-opacity="0"/>
    </linearGradient>
    <linearGradient id="paint7_linear_4383_20980" x1="374.705" y1="273.95" x2="374.705" y2="569.949" gradientUnits="userSpaceOnUse">
      <stop stop-color="white"/>
      <stop offset="0.91" stop-color="#BEE1FE"/>
      <stop offset="1" stop-color="#96CEFD"/>
    </linearGradient>
    <linearGradient id="paint8_linear_4383_20980" x1="380.245" y1="441.449" x2="380.245" y2="565.449" gradientUnits="userSpaceOnUse">
      <stop stop-color="#BCE0FD"/>
      <stop offset="1" stop-color="#88CCFC"/>
    </linearGradient>
    <clipPath id="clip0_4383_20980">
      <rect width="3944" height="750" fill="white"/>
    </clipPath>
  </defs>
</svg>
