<svg width="1024" height="1024" viewBox="0 0 1024 1024" fill="none" xmlns="http://www.w3.org/2000/svg">
<path d="M452.1 306.5H452.16C474.2 229.45 570.24 191.84 668.11 191.84C735.74 191.84 796.45 213.25 838.07 247.24C813.232 248.411 788.708 253.285 765.31 261.7C798.94 274.2 827.83 293.43 849.24 317.22C833.087 314.439 816.707 313.201 800.32 313.52C840.596 371.863 862.114 441.105 862 512C862 705.3 705.3 862 512 862C321.68 862 162 702.65 162 512C162 481.89 166 450.8 173.77 421.64C175.81 415.52 178.65 409.65 182.42 407.5C187.14 404.81 191.44 412.83 192.13 415.44C197.248 434.61 204.134 453.263 212.7 471.16C211.95 431.2 229.02 394.8 252.5 363.32C268.16 342.33 282.68 322.88 289.38 266.75C289.83 262.98 293.4 260.27 297.01 261.45C347.97 278.13 375.21 362.99 370.98 433.95C399.13 437.98 399 408.57 399 408.57C390 380.91 396 329.5 452 306.5H452.1Z" fill="url(#paint0_linear_1_4)"/>
<path opacity="0.9" d="M850.55 422.87C859.06 615.37 700.81 781.34 507.84 781.34C327.19 781.34 179.16 641.71 165.77 464.49C163.381 481.085 162.125 497.824 162.01 514.59C163.38 704.21 322.67 862 512.01 862C705.31 862 862.01 705.3 862.01 512C862.01 481.2 858.02 451.33 850.55 422.87Z" fill="url(#paint1_radial_1_4)"/>
<path style="mix-blend-mode:screen" d="M503.47 332.01C499.7 325.34 482.29 315.47 474.68 313.75C503.48 221.5 650.2 193.18 740 209.5C777.37 216.3 823.91 236.66 838.07 247.24C796.45 213.25 735.73 191.84 668.11 191.84C570.24 191.84 474.2 229.45 452.16 306.5H452C396 329.5 390 380.93 399 408.58C407.64 375.59 448.75 335.05 503.47 332.01Z" fill="url(#paint2_radial_1_4)"/>
<path d="M605.18 268.3C526.56 283.77 500.87 288.83 474.56 313.84C504.11 235.61 579.54 219.75 669.42 255.41C648.028 259.82 626.615 264.12 605.18 268.31V268.3Z" fill="url(#paint3_linear_1_4)"/>
<path d="M181 410.93C159.52 498.87 176.12 602.23 273.7 688.97C244.65 657.2 209.18 539.9 287.45 456.1C292.72 450.45 301.79 454.6 302.08 462.32C308.53 636.48 449.06 742.85 611.08 722.96C560.88 720.14 394.86 661.99 518.36 638.99C582.91 626.96 684.12 608.11 684.12 517.29C684.12 370.07 570.29 327.03 501.26 333.43C454.02 337.81 411.97 367.79 399.03 408.56C404 424.63 384.19 435.88 370.98 433.99C375.22 363.04 347.98 278.13 297.01 261.45C293.41 260.27 289.83 262.98 289.38 266.75C282.68 322.88 268.16 342.33 252.51 363.32C229.02 394.81 211.95 431.2 212.7 471.16C204.134 453.263 197.248 434.61 192.13 415.44C191.56 413.28 188.43 407.25 184.65 406.97C182.6 406.82 181.51 408.82 181 410.93Z" fill="url(#paint4_radial_1_4)"/>
<path style="mix-blend-mode:screen" d="M474.99 647.9C570.03 725.07 761.16 667.21 761.16 479.58C684 596.54 585.72 677.22 475 647.9H474.99Z" fill="url(#paint5_linear_1_4)"/>
<path style="mix-blend-mode:screen" d="M287.45 456.1C288.314 455.133 289.403 454.394 290.62 453.947C291.838 453.501 293.146 453.361 294.43 453.54C224.37 538.99 280.88 689.06 319.66 725.93C321.83 732.07 282.87 700.14 277.5 692.67C248 667.64 205.72 543.61 287.45 456.1Z" fill="url(#paint6_linear_1_4)"/>
<path d="M512 654.97C607.06 654.97 684.13 592.09 684.13 514.52C684.13 436.95 607.06 374.07 512 374.07C430.9 374.07 339.83 426.83 339.87 516.57C339.91 655.24 486.41 735.02 611.29 722.94C601.91 721.85 543.39 718.74 503.84 674C500.27 669.97 494.08 662.93 496.89 658.36C499.69 653.79 507.41 654.96 511.99 654.96L512 654.97Z" fill="url(#paint7_linear_1_4)"/>
<path opacity="0.6" d="M665.38 450.7L529.34 580.88C517.27 589.46 504.42 590.08 491.74 582.3L358.31 451.18C362.117 445.062 366.396 439.251 371.11 433.8L385.11 446.9C420.15 479.74 448.48 506.27 488.41 540.35C506.43 555.73 512.03 555.43 529.71 540.35C575.39 501.35 608.8 471.85 652.23 433.06C657.07 438.586 661.464 444.488 665.37 450.71L665.38 450.7Z" fill="white"/>
<mask id="mask0_1_4" style="mask-type:luminance" maskUnits="userSpaceOnUse" x="339" y="448" width="346" height="277">
<path d="M684.13 514.52C684.13 592.09 607.06 654.97 512 654.97C507.41 654.97 499.7 653.79 496.89 658.37C494.08 662.93 500.27 669.97 503.84 674C541 716.04 594.91 721.33 609.06 722.72L611.29 722.94C486.41 735.02 339.91 655.24 339.87 516.57C339.74 493.482 346.165 470.831 358.4 451.25L492.48 573.03C502.02 581.69 518.09 581.69 527.63 573.03L664.25 448.94C676.95 468.52 684.13 490.84 684.13 514.52Z" fill="white"/>
</mask>
<g mask="url(#mask0_1_4)">
<path opacity="0.7" d="M300 352.53H735.07V747H300V352.53Z" fill="url(#paint8_linear_1_4)"/>
<g filter="url(#filter0_f_1_4)">
<path fill-rule="evenodd" clip-rule="evenodd" d="M472.04 573.85C446.69 547.47 370.77 459.82 370.77 459.82L376.64 460.08L495.5 548.85C504.4 555.32 517.1 555.25 525.92 548.7L642.47 460.2L648.65 459.71C648.65 459.71 575.21 545.28 547.08 573.47C518.95 601.66 497.39 600.23 472.04 573.85Z" fill="#458FCD"/>
</g>
</g>
<path d="M536.15 303.81C554.57 298.01 552.95 279.78 552.95 279.78C552.95 279.78 543.74 268.93 525.49 274.94C508.41 280.57 505.76 292.74 505.76 292.74C505.76 292.74 515.09 310.44 536.15 303.81Z" fill="white"/>
<defs>
<filter id="filter0_f_1_4" x="338.77" y="427.71" width="341.88" height="198.416" filterUnits="userSpaceOnUse" color-interpolation-filters="sRGB">
<feFlood flood-opacity="0" result="BackgroundImageFix"/>
<feBlend mode="normal" in="SourceGraphic" in2="BackgroundImageFix" result="shape"/>
<feGaussianBlur stdDeviation="16" result="effect1_foregroundBlur_1_4"/>
</filter>
<linearGradient id="paint0_linear_1_4" x1="283.48" y1="307.2" x2="776.88" y2="767.42" gradientUnits="userSpaceOnUse">
<stop stop-color="#1B91F3"/>
<stop offset="1" stop-color="#0B68CB"/>
</linearGradient>
<radialGradient id="paint1_radial_1_4" cx="0" cy="0" r="1" gradientUnits="userSpaceOnUse" gradientTransform="translate(282.57 465.55) rotate(66.5177) scale(295.96 283.519)">
<stop offset="0.53" stop-color="#0B4186" stop-opacity="0"/>
<stop offset="1" stop-color="#0B4186" stop-opacity="0.45"/>
</radialGradient>
<radialGradient id="paint2_radial_1_4" cx="0" cy="0" r="1" gradientUnits="userSpaceOnUse" gradientTransform="translate(521 344) rotate(-127.997) scale(63.2702 104.698)">
<stop stop-color="#EF3ACC" stop-opacity="0"/>
<stop offset="1" stop-color="#EF3ACC" stop-opacity="0.64"/>
</radialGradient>
<linearGradient id="paint3_linear_1_4" x1="420.77" y1="425.01" x2="598.31" y2="227.37" gradientUnits="userSpaceOnUse">
<stop stop-color="#0F5DB0"/>
<stop offset="1" stop-color="#0F5DB0" stop-opacity="0"/>
</linearGradient>
<radialGradient id="paint4_radial_1_4" cx="0" cy="0" r="1" gradientUnits="userSpaceOnUse" gradientTransform="translate(380 702.7) rotate(-64.2624) scale(461.716 570.355)">
<stop offset="0.02" stop-color="#094188"/>
<stop offset="0.97" stop-color="#0B4186" stop-opacity="0"/>
</radialGradient>
<linearGradient id="paint5_linear_1_4" x1="731.92" y1="568.11" x2="649.37" y2="770.8" gradientUnits="userSpaceOnUse">
<stop stop-color="#E247C4" stop-opacity="0"/>
<stop offset="1" stop-color="#E247C4" stop-opacity="0.64"/>
</linearGradient>
<linearGradient id="paint6_linear_1_4" x1="220.01" y1="386.34" x2="292.74" y2="679.06" gradientUnits="userSpaceOnUse">
<stop offset="0.1" stop-color="#EF3ACC"/>
<stop offset="1" stop-color="#EF3ACC" stop-opacity="0"/>
</linearGradient>
<linearGradient id="paint7_linear_1_4" x1="512" y1="425.5" x2="512" y2="721.5" gradientUnits="userSpaceOnUse">
<stop stop-color="white"/>
<stop offset="0.91" stop-color="#BEE1FE"/>
<stop offset="1" stop-color="#96CEFD"/>
</linearGradient>
<linearGradient id="paint8_linear_1_4" x1="517.54" y1="593" x2="517.54" y2="717" gradientUnits="userSpaceOnUse">
<stop stop-color="#BCE0FD"/>
<stop offset="1" stop-color="#88CCFC"/>
</linearGradient>
</defs>
</svg>
