<svg xmlns="http://www.w3.org/2000/svg" width="512" height="512" fill="none" viewBox="128 128 512 512"><path fill="url(#a)" d="M340.941 222.372h.044C357.011 166.348 426.845 139 498.009 139c49.175 0 93.32 15.567 123.583 40.284a181.552 181.552 0 0 0-52.906 10.513c24.455 9.09 45.461 23.073 61.028 40.37a188.317 188.317 0 0 0-35.57-2.69 253.321 253.321 0 0 1 44.849 144.322c0 140.554-113.941 254.496-254.497 254.496C246.108 626.295 130 510.427 130 371.799c0-21.894 2.909-44.501 8.558-65.704 1.484-4.45 3.548-8.718 6.291-10.281 3.432-1.956 6.558 3.875 7.06 5.773a233.175 233.175 0 0 0 14.957 40.516c-.546-29.057 11.867-55.524 28.939-78.414 11.387-15.263 21.947-29.405 26.817-70.219.326-2.742 2.923-4.713 5.548-3.854 37.055 12.128 56.862 73.833 53.786 125.43 20.468 2.93 20.374-18.456 20.374-18.456-6.544-20.112-2.181-57.493 38.538-74.218h.073Z"/><path fill="url(#b)" d="M630.667 306.99c6.187 139.973-108.881 260.655-249.195 260.655-131.357 0-238.995-101.53-248.73-230.392a268.5 268.5 0 0 0-2.735 36.429c.996 137.879 116.821 252.613 254.497 252.613C525.059 626.295 639 512.353 639 371.799c0-22.396-2.901-44.115-8.333-64.809Z" opacity=".9"/><path fill="url(#c)" d="M378.293 240.923c-2.74-4.851-15.4-12.029-20.933-13.278 20.941-67.078 127.626-87.67 192.923-75.803 27.172 4.943 61.013 19.748 71.309 27.442C591.329 154.567 547.177 139 498.009 139c-71.164 0-140.998 27.348-157.024 83.372h-.117c-40.719 16.725-45.082 54.122-38.538 74.227 6.284-23.988 36.175-53.467 75.963-55.676Z" style="mix-blend-mode:screen"/><path fill="url(#d)" d="M452.25 194.597c-57.167 11.248-75.847 14.927-94.977 33.113 21.486-56.884 76.334-68.416 141.689-42.487a4665.461 4665.461 0 0 1-46.712 9.382v-.008Z"/><path fill="url(#e)" d="M143.816 298.307c-15.619 63.943-3.548 139.101 67.404 202.173-21.122-23.102-46.913-108.394 9.999-169.327 3.832-4.109 10.427-1.092 10.637 4.523 4.691 126.637 106.875 203.982 224.685 189.519-36.503-2.051-157.221-44.334-67.42-61.058 46.936-8.748 120.53-22.454 120.53-88.492 0-107.049-82.77-138.344-132.964-133.69-34.349 3.184-64.926 24.984-74.336 54.628 3.615 11.686-10.788 19.866-20.395 18.492 3.082-51.59-16.724-113.331-53.786-125.459-2.617-.859-5.222 1.112-5.548 3.854-4.87 40.814-15.43 54.956-26.809 70.219-17.08 22.897-29.493 49.357-28.947 78.414a233.175 233.175 0 0 1-14.957-40.516c-.414-1.571-2.692-5.955-5.439-6.159-1.491-.11-2.284 1.345-2.654 2.879Z"/><path fill="url(#f)" d="M357.586 470.617c69.107 56.112 208.083 14.039 208.083-122.392-56.106 85.046-127.568 143.712-208.076 122.392h-.007Z" style="mix-blend-mode:screen"/><path fill="url(#g)" d="M221.219 331.153a5.739 5.739 0 0 1 5.076-1.863c-50.944 62.134-9.854 171.255 18.345 198.064 1.578 4.465-26.751-18.752-30.656-24.184-21.451-18.2-52.193-108.386 7.235-172.017Z" style="mix-blend-mode:screen"/><path fill="url(#h)" d="M384.496 475.756c69.121 0 125.162-45.722 125.162-102.125s-56.041-102.126-125.162-102.126c-58.97 0-125.19 38.364-125.162 103.617.031 100.831 106.555 158.842 197.359 150.058-6.82-.792-49.372-3.054-78.13-35.586-2.595-2.93-7.096-8.049-5.052-11.372 2.036-3.323 7.648-2.474 10.978-2.474l.007.008Z"/><path fill="#fff" d="m496.023 327.225-98.919 94.658c-8.775 6.24-18.119 6.691-27.339 1.033l-97.021-95.341a100.409 100.409 0 0 1 9.307-12.638l10.18 9.526c25.478 23.878 46.078 43.17 75.112 67.95 13.103 11.183 17.175 10.966 30.031 0 33.215-28.358 57.509-49.809 89.088-78.015 3.52 4.02 6.715 8.31 9.554 12.834l.007-.007Z" opacity=".6"/><mask id="i" width="346" height="277" x="339" y="448" maskUnits="userSpaceOnUse" style="mask-type:luminance"><path fill="#fff" d="M684.13 514.52c0 77.57-77.07 140.45-172.13 140.45-4.59 0-12.3-1.18-15.11 3.4-2.81 4.56 3.38 11.6 6.95 15.63 37.16 42.04 91.07 47.33 105.22 48.72l2.23.22c-124.88 12.08-271.38-67.7-271.42-206.37a121.971 121.971 0 0 1 18.53-65.32l134.08 121.78c9.54 8.66 25.61 8.66 35.15 0l136.62-124.09c12.7 19.58 19.88 41.9 19.88 65.58Z"/></mask><g mask="url(#i)" transform="translate(12.205 -.493) scale(.72713)"><path fill="url(#j)" d="M300 352.53h435.07V747H300V352.53Z" opacity=".7"/><g filter="url(#k)"><path fill="#458FCD" fill-rule="evenodd" d="M472.04 573.85c-25.35-26.38-101.27-114.03-101.27-114.03l5.87.26 118.86 88.77c8.9 6.47 21.6 6.4 30.42-.15l116.55-88.5 6.18-.49s-73.44 85.57-101.57 113.76c-28.13 28.19-49.69 26.76-75.04.38Z" clip-rule="evenodd"/></g></g><path fill="#fff" d="M402.057 220.417c13.393-4.217 12.216-17.473 12.216-17.473s-6.697-7.889-19.968-3.519c-12.419 4.093-14.346 12.943-14.346 12.943s6.785 12.87 22.098 8.049Z"/><defs><linearGradient id="a" x1="283.48" x2="776.88" y1="307.2" y2="767.42" gradientTransform="translate(12.205 -.493) scale(.72713)" gradientUnits="userSpaceOnUse"><stop stop-color="#1B91F3"/><stop offset="1" stop-color="#0B68CB"/></linearGradient><linearGradient id="d" x1="420.77" x2="598.31" y1="425.01" y2="227.37" gradientTransform="translate(12.205 -.493) scale(.72713)" gradientUnits="userSpaceOnUse"><stop stop-color="#0F5DB0"/><stop offset="1" stop-color="#0F5DB0" stop-opacity="0"/></linearGradient><linearGradient id="f" x1="731.92" x2="649.37" y1="568.11" y2="770.8" gradientTransform="translate(12.205 -.493) scale(.72713)" gradientUnits="userSpaceOnUse"><stop stop-color="#E247C4" stop-opacity="0"/><stop offset="1" stop-color="#E247C4" stop-opacity=".64"/></linearGradient><linearGradient id="g" x1="220.01" x2="292.74" y1="386.34" y2="679.06" gradientTransform="translate(12.205 -.493) scale(.72713)" gradientUnits="userSpaceOnUse"><stop offset=".1" stop-color="#EF3ACC"/><stop offset="1" stop-color="#EF3ACC" stop-opacity="0"/></linearGradient><linearGradient id="h" x1="512" x2="512" y1="425.5" y2="721.5" gradientTransform="translate(12.205 -.493) scale(.72713)" gradientUnits="userSpaceOnUse"><stop stop-color="#fff"/><stop offset=".91" stop-color="#BEE1FE"/><stop offset="1" stop-color="#96CEFD"/></linearGradient><linearGradient id="j" x1="517.54" x2="517.54" y1="593" y2="717" gradientUnits="userSpaceOnUse"><stop stop-color="#BCE0FD"/><stop offset="1" stop-color="#88CCFC"/></linearGradient><radialGradient id="b" cx="0" cy="0" r="1" gradientTransform="matrix(85.7507 197.37984 -189.08278 82.14608 217.67 338.023)" gradientUnits="userSpaceOnUse"><stop offset=".53" stop-color="#0B4186" stop-opacity="0"/><stop offset="1" stop-color="#0B4186" stop-opacity=".45"/></radialGradient><radialGradient id="c" cx="0" cy="0" r="1" gradientTransform="matrix(-28.32212 -36.25457 59.9932 -46.86676 391.04 249.64)" gradientUnits="userSpaceOnUse"><stop stop-color="#EF3ACC" stop-opacity="0"/><stop offset="1" stop-color="#EF3ACC" stop-opacity=".64"/></radialGradient><radialGradient id="e" cx="0" cy="0" r="1" gradientTransform="matrix(145.79034 -302.4219 373.5799 180.09392 288.515 510.463)" gradientUnits="userSpaceOnUse"><stop offset=".02" stop-color="#094188"/><stop offset=".97" stop-color="#0B4186" stop-opacity="0"/></radialGradient><filter id="k" width="341.88" height="198.416" x="338.77" y="427.71" color-interpolation-filters="sRGB" filterUnits="userSpaceOnUse"><feFlood flood-opacity="0" result="BackgroundImageFix"/><feBlend in="SourceGraphic" in2="BackgroundImageFix" result="shape"/><feGaussianBlur result="effect1_foregroundBlur_1_4" stdDeviation="16"/></filter></defs></svg>
