<svg xmlns="http://www.w3.org/2000/svg" xmlns:xlink="http://www.w3.org/1999/xlink" viewBox="0 0 1032.7 941.2" width="425" height="386"><defs><style>.a{fill:#209388;}.b{fill:#1c867d;}.c{fill:#1dd4ff;}.d{fill:#f5e857;}.e{fill:none;}.f{fill:#af314f;}.g{fill:#ff507b;}.h{fill:#bd3555;}.i{fill:#ee456e;}.j{fill:#1d847a;}.k{fill:url(#a);}.l{fill:#30c1bf;}.m{fill:#209b99;}.n{fill:#2cbab9;}.o{fill:#209492;}.p{fill:#29aeab;}.q{fill:#1c8a89;}.r{fill:#37d0ce;}.s{fill:#34c8c6;}.t{fill:#25a6a4;}.u{fill:#38d0ce;}.v{fill:#2db5b3;}.w{fill:url(#b);}.x{fill:url(#c);}</style><linearGradient id="a" x1="447.62" y1="777.84" x2="460.12" y2="777.84" gradientUnits="userSpaceOnUse"><stop offset=".33" stop-color="#816356"/><stop offset="1" stop-color="#c59888"/></linearGradient><linearGradient id="b" x1="170.05" y1="617.49" x2="182.55" y2="617.49" xlink:href="#a"/><linearGradient id="c" x1="-67.2" y1="617.49" x2="-54.7" y2="617.49" gradientTransform="translate(932.8)" xlink:href="#a"/></defs><title>mozilla_image_a-frame</title><path class="a" d="M0 643l516.4 298.2L1032.7 643 516.4 344.9 0 643"/><path class="b" d="M375.6 535.1l-128 73.9 334.2 192.9-46.1-174.3-160.1-92.5"/><path class="c" d="M412.7 161.5l-114 309.1 169.7-98-55.7-211.1M247.6 609l128-73.9-83.1-47.9L247.6 609"/><path class="d" d="M529.5 603.8l-36.1-136.7-100.4 58 136.5 78.7"/><path class="d" d="M393 525.1l100.4-58-25-94.5-169.7 98 94.3 54.5"/><path class="e" d="M468.4 372.6l-55.7-211.1-114 309.1 94.3 54.5 136.5 78.7-36.1-136.7-25-94.5"/><path class="f" d="M603.3 814.2l-46-174.2-6.3-23.8-41.7-158.3-25-94.5-60.9-230.8-.6-2.1-8.2-.9-7.8-9.4-2.9 7.9-3.4 9.2-2.5 6.8-116.7 316.4-6.1 16.6-3.3 9-41.7 112.8 17.4 10.1 44.9-121.8 83 47.9 160.2 92.5 46 174.3 21.4 12.4h.3v-.2zM393.1 525l-94.3-54.5 114-309.1 55.6 211.2 25 94.5 36.1 136.7z"/><path class="g" d="M642.4 10.3l-218 119.4-1.6.9.5 2.1 180 681.7 218.2-126.2L642.4 10.3"/><path class="h" d="M635.2 8.8L426.9 122.9l-12.4 6.8 8.3.9 1.6-.9 218-119.4-7.2-1.5"/><path class="i" d="M626.4 0L433.2 105.8l-26.4 14.5 7.7 9.4 12.4-6.8L635.2 8.8 626.4 0"/><ellipse class="j" cx="446.2" cy="798" rx="31" ry="18"/><path class="k" d="M440 745.7v52.6c0 1.7 2.8 3.1 6.3 3.1s6.3-1.4 6.3-3.1v-52.6H440z"/><path class="l" d="M446.2 686.3v2.3l38.9-22-.1-2.3-38.8 22"/><path class="l" d="M446.2 686.3l38.8-22h-38.8v22"/><path class="m" d="M407.4 664.3v2.2l38.8 22.1v-2.3l-38.8-22M407.4 664.3l38.8 22v-22h-38.8"/><path class="n" d="M485 664.3l-38.8-21.9v21.9H485"/><path class="o" d="M446.2 664.3v-21.9l-38.8 21.9h38.8"/><path class="p" d="M446.2 644.7l-34.7 19.6 34.7 19.7 34.8-19.7-34.8-19.6"/><path class="q" d="M426.8 677.6l-19.4-11.1-2.4 2.5v76.7l41.2 23.4v-80.5l-19.4-11M407.4 664.3L405 669l2.4-2.5v-2.2"/><path class="r" d="M485 664.3l.3 6.2V747l2-3.6v-74l-2.3-5.1"/><path class="s" d="M449.7 690.6v74.1l35.6-20.2v-74l-35.6 20.1"/><path class="t" d="M449.7 764.7l-3.5 4.4 3.5-1.9 35.6-20.2v-2.5l-35.6 20.2"/><path class="u" d="M485.1 666.6l-35.4 20-3.5 2 3.5 2 35.6-20.1-.2-3.9"/><path class="v" d="M446.2 688.6v80.5l3.5-4.4v-74.1l-3.5-2"/><ellipse class="j" cx="168.7" cy="637.7" rx="31" ry="18"/><path class="w" d="M162.4 585.3v52.6c0 1.7 2.8 3.1 6.3 3.1s6.3-1.4 6.3-3.1v-52.6h-12.6z"/><path class="l" d="M168.7 525.9v2.3l38.9-22-.1-2.2-38.8 21.9"/><path class="l" d="M168.7 525.9l38.8-21.9h-38.8v21.9"/><path class="m" d="M129.8 504v2.2l38.9 22v-2.3L129.8 504M129.8 504l38.9 21.9V504h-38.9"/><path class="n" d="M207.5 504l-38.8-22v22h38.8"/><path class="o" d="M168.7 504v-22l-38.9 22h38.9"/><path class="p" d="M168.7 484.3L133.9 504l34.8 19.6 34.7-19.6-34.7-19.7"/><path class="q" d="M149.2 517.2l-19.4-11-2.4 2.4v76.8l41.3 23.4v-80.6l-19.5-11"/><path class="q" d="M129.8 504l-2.4 4.6 2.4-2.4V504"/><path class="r" d="M207.5 504l.2 6.1v76.6l2-3.6V509l-2.2-5"/><path class="s" d="M172.2 530.3v74l35.5-20.1v-74.1l-35.5 20.2"/><path class="t" d="M172.2 604.3l-3.5 4.5 3.5-2 35.5-20.1v-2.5l-35.5 20.1"/><path class="u" d="M207.6 506.2l-35.4 20-3.5 2 3.5 2.1 35.5-20.2-.1-3.9"/><path class="v" d="M168.7 528.2v80.6l3.5-4.5v-74l-3.5-2.1"/><ellipse class="j" cx="864.2" cy="637.7" rx="31" ry="18"/><path class="x" d="M858 585.3v52.6c0 1.7 2.8 3.1 6.3 3.1s6.3-1.4 6.3-3.1v-52.6H858z"/><path class="l" d="M864.2 525.9v2.3l38.9-22-.1-2.2-38.8 21.9"/><path class="l" d="M864.2 525.9L903 504h-38.8v21.9"/><path class="m" d="M825.4 504v2.2l38.8 22v-2.3L825.4 504M825.4 504l38.8 21.9V504h-38.8"/><path class="n" d="M903 504l-38.8-22v22H903"/><path class="o" d="M864.2 504v-22l-38.8 22h38.8"/><path class="p" d="M864.2 484.3L829.5 504l34.7 19.6L899 504l-34.8-19.7"/><path class="q" d="M844.8 517.2l-19.4-11-2.4 2.4v76.8l41.2 23.4v-80.6l-19.4-11"/><path class="q" d="M825.4 504l-2.4 4.6 2.4-2.4V504"/><path class="r" d="M903 504l.3 6.1v76.6l2-3.6V509l-2.3-5"/><path class="s" d="M867.7 530.3v74l35.6-20.1v-74.1l-35.6 20.2"/><path class="t" d="M867.7 604.3l-3.5 4.5 3.5-2 35.6-20.1v-2.5l-35.6 20.1"/><path class="u" d="M903.1 506.2l-35.4 20-3.5 2 3.5 2.1 35.6-20.2-.2-3.9"/><path class="v" d="M864.2 528.2v80.6l3.5-4.5v-74l-3.5-2.1"/></svg>
