<svg xmlns="http://www.w3.org/2000/svg" viewBox="0 0 450 360" width="446" height="359"><defs><style>.a{fill:#e1e6e8;}.b,.n{fill:#fff;}.c{fill:#ebf0f2;}.d{fill:#d3d7d9;}.e{fill:#e63d2f;}.f{fill:#ffcd02;}.g{fill:#00af84;}.h,.i{fill:none;stroke-linecap:round;stroke-linejoin:round;stroke-width:5px;}.h{stroke:#d1d3d4;}.i{stroke:#a7a9ac;}.j{fill:#a7a9ac;}.k{fill:#005189;}.l{fill:#757576;}.m{fill:#00a7e0;}.n{fill-rule:evenodd;}</style></defs><title>mozilla_illustration_activity-stream_v2</title><path class="a" d="M0 46.5h450v290.32H0z"/><path class="b" d="M20 64.6h410v252.19H20z"/><path class="c" d="M441.2 0H8.8A8.7 8.7 0 0 0 0 8.7v37.8h450V8.7a8.7 8.7 0 0 0-8.8-8.7z"/><path class="d" d="M8.8 360h432.4a8.8 8.8 0 0 0 8.8-8.8v-14.4H0v14.5a8.8 8.8 0 0 0 8.8 8.7z"/><circle class="e" cx="35.3" cy="23.2" r="11.6"/><circle class="f" cx="70.2" cy="23.2" r="11.6"/><circle class="g" cx="105" cy="23.2" r="11.6"/><rect class="g" x="83.5" y="167.5" width="34.3" height="34.3" rx="5" ry="5"/><rect class="e" x="83.5" y="218.2" width="34.3" height="34.3" rx="5" ry="5"/><path class="h" d="M64.3 191v37.9M64.3 241.7v37.9"/><rect class="i" x="58" y="178.3" width="12.7" height="12.74" rx="6.4" ry="6.4"/><rect class="i" x="58" y="228.9" width="12.7" height="12.74" rx="6.4" ry="6.4"/><rect class="i" x="58" y="280.4" width="12.7" height="12.74" rx="6.4" ry="6.4"/><rect class="j" x="44.2" y="85.4" width="112.8" height="63.61" rx="5" ry="5"/><rect class="j" x="293" y="85.4" width="112.8" height="63.61" rx="5" ry="5"/><path class="b" d="M111.6 98.5c-6.3 0-11 6.3-11 6.3s-4.7-6.3-11-6.3a11.2 11.2 0 0 0-11 11 12 12 0 0 0 3.1 7.8l18.5 18.5a.4.4 0 0 0 .6 0l18.5-18.5a12 12 0 0 0 3.1-7.8 11.2 11.2 0 0 0-10.8-11zM369.1 112.7a1.2 1.2 0 0 0-1.1-.8l-13.2-.3-4.3-12.3a1.2 1.2 0 0 0-2.2 0l-4.3 12.3-13.2.3a1.2 1.2 0 0 0-.7 2.1l10.5 7.9-3.8 12.5a1.2 1.2 0 0 0 1.8 1.3l10.8-7.5 10.8 7.5.7.2.7-.2a1.2 1.2 0 0 0 .4-1.3l-3.8-12.5 10.5-7.9a1.2 1.2 0 0 0 .4-1.3z"/><rect class="j" x="168.6" y="85.4" width="112.8" height="63.61" rx="5" ry="5"/><rect class="k" x="83.5" y="269.6" width="34.3" height="34.3" rx="5" ry="5"/><path class="l" d="M132.8 172.4h187.1v8.73H132.8z"/><path class="m" d="M133.1 189.5h150.6v8.73H133.1z"/><path class="l" d="M132.8 222.4h170.4v8.73H132.8z"/><path class="m" d="M133.1 239.5h128v8.73h-128z"/><path class="l" d="M132.8 273.8h201.1v8.73H132.8z"/><path class="m" d="M133.1 291h160.7v8.73H133.1z"/><path class="n" d="M242.4 122.4v-26a.9.9 0 0 0-1.2-.9l-24.8 1.4a.9.9 0 0 0-.6.9V127.1a8.1 8.1 0 0 0-6 2.5 9.1 9.1 0 0 0-2.5 4.2 4.1 4.1 0 0 0 .8 4 3.7 3.7 0 0 0 2.8 1.1 8.4 8.4 0 0 0 5.5-2.6c2.4-2.3 3.3-5.3 2.3-7.3v-26.2h20.7v17.8a8.1 8.1 0 0 0-6 2.5c-2.8 2.7-3.6 6.3-1.7 8.2a3.7 3.7 0 0 0 2.7 1.1 8.4 8.4 0 0 0 5.5-2.6c2.4-2.3 3.3-5.3 2.3-7.3"/><path class="b" d="M108 180a7.4 7.4 0 1 0-13.8 3.7l6.4 12.9 6.4-12.9a7.3 7.3 0 0 0 1-3.7zm-7.4 2.2a3.1 3.1 0 1 1 3.1-3.1 3.1 3.1 0 0 1-3.1 3.1zM112.1 275.3q-1.5-1.5-4.9 1.4l-1.2 1-14-1.1a2.9 2.9 0 0 0-2.5.5l-.9.9 12.9 4.7-5.3 6.1-4.7-.3-1.7 1.7 5.8 1.2 1.6 6.1 1.7-1.7-.3-4.7 6.1-5.3 4.7 12.9.9-.9a2.9 2.9 0 0 0 .5-2.5l-1.1-14.1 1-1.2.6-.8.7-1a3.8 3.8 0 0 0 .5-1.6 1.7 1.7 0 0 0-.4-1.3zM90.5 246a10.6 10.6 0 0 0 1.7 1.2 1.6 1.6 0 0 0 1.2-.2l6.1-7.5v-.2l-.5-.5.8-.9a7.7 7.7 0 1 0-2-1.5l-.6.9-.4-.4h-.5l-5.8 7.7a1.1 1.1 0 0 0 0 1.4zm12.8-10a5 5 0 1 1 5-5 5 5 0 0 1-5 5.1z"/></svg>
