<svg xmlns="http://www.w3.org/2000/svg" viewBox="0 0 450 360" width="446" height="359"><defs><style>.a,.j,.k{fill:none;}.b{fill:#e1e6e8;}.c,.w{fill:#fff;}.d{fill:#ebf0f2;}.e{fill:#d3d7d9;}.f{fill:#e63d2f;}.g{fill:#ffcd02;}.h{fill:#00af84;}.i{fill:#80bae5;}.j{stroke:#d1d3d4;}.j,.k{stroke-linecap:round;stroke-linejoin:round;stroke-width:5px;}.k{stroke:#a7a9ac;}.l{fill:#a7a9ac;}.m{fill:#218bc0;}.n{fill:#e60;}.o{clip-path:url(#a);}.p{fill:#f15a29;}.q{fill:#f8f6c8;}.r{clip-path:url(#b);}.s{fill:url(#c);}.t{fill:#005189;}.u{fill:#757576;}.v{fill:#00a7e0;}.w{fill-rule:evenodd;}</style><clipPath id="a"><circle class="a" cx="100.6" cy="184.6" r="11.8"/></clipPath><clipPath id="b"><path class="a" d="M100.4 179.8c0-.2-.2-.4-2.1-.4a1.5 1.5 0 0 1-1.3-1 5.4 5.4 0 0 0-.1 2.4 4 4 0 0 0 .8 1.5h.1a18.3 18.3 0 0 1 2-1.3 1.7 1.7 0 0 0 .6-1.2z"/></clipPath><linearGradient id="c" x1="121.69" y1="67.56" x2="123.14" y2="69.8" gradientTransform="matrix(1 0 0 -1 -22.54 248.54)" gradientUnits="userSpaceOnUse"><stop offset="0" stop-color="#37373a"/><stop offset=".65" stop-color="#7b3f3c"/><stop offset="1" stop-color="#dc5a26"/></linearGradient></defs><title>mozilla_illustration_activity-stream</title><path class="b" d="M0 46.5h450v290.32H0z"/><path class="c" d="M20 64.6h410v252.19H20z"/><path class="d" d="M441.2 0H8.8A8.7 8.7 0 0 0 0 8.7v37.8h450V8.7a8.7 8.7 0 0 0-8.8-8.7z"/><path class="e" d="M8.8 360h432.4a8.8 8.8 0 0 0 8.8-8.8v-14.4H0v14.5a8.8 8.8 0 0 0 8.8 8.7z"/><circle class="f" cx="35.3" cy="23.2" r="11.6"/><circle class="g" cx="70.2" cy="23.2" r="11.6"/><circle class="h" cx="105" cy="23.2" r="11.6"/><rect class="i" x="83.5" y="167.5" width="34.3" height="34.3" rx="5" ry="5"/><rect class="f" x="83.5" y="218.2" width="34.3" height="34.3" rx="5" ry="5"/><path class="j" d="M64.3 191v37.9M64.3 241.7v37.9"/><rect class="k" x="58" y="178.3" width="12.7" height="12.74" rx="6.4" ry="6.4"/><rect class="k" x="58" y="228.9" width="12.7" height="12.74" rx="6.4" ry="6.4"/><rect class="k" x="58" y="280.4" width="12.7" height="12.74" rx="6.4" ry="6.4"/><rect class="l" x="44.2" y="85.4" width="112.8" height="63.61" rx="5" ry="5"/><rect class="l" x="293" y="85.4" width="112.8" height="63.61" rx="5" ry="5"/><path class="c" d="M111.6 98.5c-6.3 0-11 6.3-11 6.3s-4.7-6.3-11-6.3a11.2 11.2 0 0 0-11 11 12 12 0 0 0 3.1 7.8l18.5 18.5a.4.4 0 0 0 .6 0l18.5-18.5a12 12 0 0 0 3.1-7.8 11.2 11.2 0 0 0-10.8-11zM369.1 112.7a1.2 1.2 0 0 0-1.1-.8l-13.2-.3-4.3-12.3a1.2 1.2 0 0 0-2.2 0l-4.3 12.3-13.2.3a1.2 1.2 0 0 0-.7 2.1l10.5 7.9-3.8 12.5a1.2 1.2 0 0 0 1.8 1.3l10.8-7.5 10.8 7.5.7.2.7-.2a1.2 1.2 0 0 0 .4-1.3l-3.8-12.5 10.5-7.9a1.2 1.2 0 0 0 .4-1.3z"/><rect class="l" x="168.6" y="85.4" width="112.8" height="63.61" rx="5" ry="5"/><circle class="m" cx="100.6" cy="184.6" r="11.8"/><path class="n" d="M111.2 179.3a16.8 16.8 0 0 1 .1 2c0 7.8-5.3 14.1-11.8 14.1a11.5 11.5 0 0 1-9.8-6.1 11.9 11.9 0 1 0 21.5-10z"/><g class="o"><path class="p" d="M109.6 191.6c.7-1.3 1.6-2 2.1-2.9s1.9-4.5 1-7.2c.4 1.7.3 3.4-1.1 4.2a12.9 12.9 0 0 0 .3-6.1 5.9 5.9 0 0 0-1.9-3.3 3.9 3.9 0 0 1 1 2.5 9.9 9.9 0 0 0-6.1-4.6 9.2 9.2 0 0 1 3.7 3.9 4.6 4.6 0 0 0-2.4-1.3 7.9 7.9 0 0 1 2.6 6.6 7.1 7.1 0 0 0-1.1-1.8c.4 3.5 0 4.2-.2 5.1a3 3 0 0 0-.3-.9 7.7 7.7 0 0 1-.7 2.6c-.5 1.2-1.1 1.5-1.3 1.5h-.1a1 1 0 0 0 0-.4l-.4.3-.2.2-.3.3a1.3 1.3 0 0 1-.8.6.5.5 0 0 0 .3-.4 2.6 2.6 0 0 1-1.3.5 5.5 5.5 0 0 1-3.4-.6 1.5 1.5 0 0 1 .9.1 3.9 3.9 0 0 0-1.5-.4A5 5 0 0 1 97 189a4.9 4.9 0 0 0 3.7-.5c.9-.6 1.4-1 1.8-.9a.4.4 0 0 0 .4-.8 2.4 2.4 0 0 0-2.4-.7c-.9.2-1.6.9-2.9.4h.2l-.8-.5h.2c-1.2-.7-1.1-1.3-1.1-1.6a1 1 0 0 1 .5-.8h.3v-.2l.6.2.3.2s.1 0 0-.1l-.3-.3.4.2a1.6 1.6 0 0 0 .1-.7.9.9 0 0 0-.1-.4c-.1-.1 0-.1.1 0v-.2a9.3 9.3 0 0 1 2-1.3 1.7 1.7 0 0 0 .5-.6 1.3 1.3 0 0 0 .1-.7c0-.2-.1-.4-2-.4a1.3 1.3 0 0 1-1.1-.6v-.4a4.1 4.1 0 0 1 1.4-2.1h-.7l.4-.2a.8.8 0 0 0-.6 0l-.6.2.2-.2a3.7 3.7 0 0 0-1.2.6 2 2 0 0 0-.7.7l-.3.4a5.1 5.1 0 0 0-2.8 0 3.4 3.4 0 0 1-1-1.1h-.1a3.4 3.4 0 0 1-.4-1.3 1.4 1.4 0 0 0-.5.8v0l-.2.3v.3a.4.4 0 0 0 0-.1l-.2.8a7.1 7.1 0 0 0-.1 2v.2l-.6.9a12.6 12.6 0 0 0-1 3.5 8.2 8.2 0 0 1 .6-1.4 12 12 0 0 0-.4 4.5 12.7 12.7 0 0 1 .2-1.3 10.9 10.9 0 0 0 1.5 5 12.6 12.6 0 0 0 8.6 6 2.7 2.7 0 0 1-1-.5 13 13 0 0 0 3.6.6.7.7 0 0 1-.6-.3s5.4.3 7.2-2.2a4.5 4.5 0 0 1-2.9 1c.9-.9 3-.8 5.2-3a4.5 4.5 0 0 0 1.5-3c-.3.9-1.3 1.6-2.4 2.2z"/><path class="n" d="M100.4 179.8c0-.2-.2-.4-2.1-.4a1.5 1.5 0 0 1-1.3-1 5.5 5.5 0 0 0-.1 2.5 4 4 0 0 0 .8 1.5h.1a18.3 18.3 0 0 1 2-1.3 1.7 1.7 0 0 0 .6-1.3z"/><path class="p" d="M100.4 179.8c0-.2-.2-.4-2.1-.4a1.5 1.5 0 0 1-1.3-1 5.5 5.5 0 0 0-.1 2.5 4 4 0 0 0 .8 1.5h.1a18.3 18.3 0 0 1 2-1.3 1.7 1.7 0 0 0 .6-1.3z"/><path class="q" d="M99.7 180.9a1.6 1.6 0 0 0 .5-.8h-.1l-.8.7.3-.3a2 2 0 0 1-1.3.4.9.9 0 0 0 .6-.2h-1l-.4.3v-.2l-.5.4.4-.3-.3.2.2-.2a.4.4 0 0 0-.4.4l.5.7.2.3a10.3 10.3 0 0 1 2.1-1.4z"/><g class="r"><path class="q" d="M99.8 180.9a1.6 1.6 0 0 0 .5-.8h-.1l-.8.7.3-.3a2.1 2.1 0 0 1-1.3.4.9.9 0 0 0 .6-.2h-1.1l-.4.3v-.2l-.5.4.4-.4-.4.2.2-.2a.4.4 0 0 0-.4.4l.5.7.2.3a10.5 10.5 0 0 1 2.3-1.3z"/><path class="q" d="M97.8 181.6l-.4.5.3.5 1.9-1 .6-.8v-.4l-.3.1-.3.5-1.8.6"/></g><path class="s" d="M100.3 180.3c.1-.2.2-.7-.1-.8h-.8a1.1 1.1 0 0 1 .6.3 1.8 1.8 0 0 1 0 1.2 1.1 1.1 0 0 0 .3-.7z"/></g><path class="n" d="M91.6 176.4a3.6 3.6 0 0 1-.4-1.4 1.5 1.5 0 0 0-.5.9V176l-.2.4v.3a1 1 0 0 0 0-.1 7.4 7.4 0 0 0-.4 3.2 6.6 6.6 0 0 1 2.8-2.1 3.6 3.6 0 0 1-1.3-1.3z"/><path class="c" d="M93.4 226.6a4.3 4.3 0 0 1 .6 1.7 5.9 5.9 0 0 1 4.2-1.7 4.6 4.6 0 0 1 3.5 1.4l.7.8a6.3 6.3 0 0 1 4.8-2.2 5.3 5.3 0 0 1 3.4 1.1c1 .8 1.3 1.8 1.3 4.2V244h-4.3v-11.3c0-2-.2-2.4-1.4-2.4a5.1 5.1 0 0 0-3 1.4V244h-4.3v-11.1c0-2.1-.3-2.6-1.6-2.6a4.7 4.7 0 0 0-2.9 1.3V244H90v-11.9c0-2.5-.2-3.5-.6-4.4z"/><rect class="t" x="83.5" y="269.6" width="34.3" height="34.3" rx="5" ry="5"/><path class="u" d="M132.8 172.4h187.1v8.73H132.8z"/><path class="v" d="M133.1 189.5h150.6v8.73H133.1z"/><path class="u" d="M132.8 222.4h170.4v8.73H132.8z"/><path class="v" d="M133.1 239.5h128v8.73h-128z"/><path class="u" d="M132.8 273.8h201.1v8.73H132.8z"/><path class="v" d="M133.1 291h160.7v8.73H133.1z"/><path class="c" d="M115.2 286.8c-.4-1.1-.3-2.9-.4-3.2s-5.5-1.9-7.5-4.1a2.6 2.6 0 0 0-1.1-2.6c-1.1-.8-2.6-.4-3.7-.1s-2.5-.7-3.8-1.1c-2.8-.3-5.6 1.7-5.6 1.7a47.6 47.6 0 0 0-6.7 5.5 5.5 5.5 0 0 0 1.2-.3l2.9-.8c-1.2 1-3.7 2.8-4.5 4.1a23.7 23.7 0 0 1 3.7-1.4 20.2 20.2 0 0 0-3.1 3c.1 0 0 .1 0 .2a12.9 12.9 0 0 1 3.2-1.5 12.3 12.3 0 0 0-2.6 3.5 23.2 23.2 0 0 1 3.2-1.7 10.8 10.8 0 0 1-.8 1.2c-.4.6-1.2 1.3-1.2 2a10.1 10.1 0 0 1 2.1-1.5 9.3 9.3 0 0 0-1.1 2.1 6 6 0 0 1 2.1-1 19.8 19.8 0 0 1-1.7 2 12.5 12.5 0 0 0 11.5 4.8 6.3 6.3 0 0 0-.3-.9c.8-1.5.4-4.2 2.5-5.3s1.6-1.1 3.3-.8 2.8.8 3.8.6l2-1.2a1.3 1.3 0 0 0 1.5-.3v-.4l.9-2.2v-.4z"/><path class="w" d="M242.4 122.4v-26a.9.9 0 0 0-1.2-.9l-24.8 1.4a.9.9 0 0 0-.6.9V127.1a8.1 8.1 0 0 0-6 2.5 9.1 9.1 0 0 0-2.5 4.2 4.1 4.1 0 0 0 .8 4 3.7 3.7 0 0 0 2.8 1.1 8.4 8.4 0 0 0 5.5-2.6c2.4-2.3 3.3-5.3 2.3-7.3v-26.2h20.7v17.8a8.1 8.1 0 0 0-6 2.5c-2.8 2.7-3.6 6.3-1.7 8.2a3.7 3.7 0 0 0 2.7 1.1 8.4 8.4 0 0 0 5.5-2.6c2.4-2.3 3.3-5.3 2.3-7.3"/></svg>
