<svg xmlns="http://www.w3.org/2000/svg" viewBox="0 0 3842.3 2160" width="3842" height="2160"><defs><style>.a{fill:#a4f4ff;}.b{fill:#73d7e7;}.c{fill:#5fb8c1;}.d{fill:#b3e9f3;}.e{fill:#61cada;}.f{fill:#72d8e7;}.g{fill:#b9e8f7;}.h{fill:#bfe6f6;}.i{fill:#abe9f0;}.j{fill:#afe8f3;}.k{fill:#b0e5ef;}.l{fill:#61d2e0;}.m{fill:#b4ebf3;}.n{fill:#7adae8;}.o{fill:#ace5f1;}.p{fill:#7adce9;}.q{fill:#afe9f2;}.r{fill:#68d6e5;}.s{fill:#b1e8f2;}.t{fill:#6cd6e4;}.u{fill:#a4e6ee;}.v{fill:#69d2df;}.w{fill:#98e0eb;}.x{fill:#7cd9e8;}.y{fill:#a9e6f1;}.z{fill:#a6e1ea;}.aa{fill:#a0e4eb;}.ab{fill:#9de8f2;}.ac{fill:#99e1e8;}.ad{fill:#78d8e3;}.ae{fill:#b2e6f4;}.af{fill:#83dceb;}.ag{fill:#a8e6f1;}.ah{fill:#78d9e9;}.ai{fill:#b6ecf8;}.aj{fill:#73dae9;}.ak{fill:#b0eaef;}.al{fill:#73d7e6;}.am{fill:#b5ecf4;}.an{fill:#74d9e9;}.ao{fill:#aaeaf3;}.ap{fill:#6ad5e5;}.aq{fill:#9de4eb;}.ar{fill:#b7ecf1;}.as{fill:#83d9e5;}.at{fill:#99e7f2;}.au{fill:#c5f4fe;}.av{fill:#acecf7;}.aw{fill:#92e8f0;}.ax{fill:#9ce2eb;}.ay{fill:#a2e8f0;}.az{fill:#98e5ed;}.ba{fill:#94e3ea;}.bb{fill:#548f9a;}.bc{fill:#d9f8ff;}.bd{fill:#74b8c5;}.be{fill:none;stroke:#c5f4fe;stroke-miterlimit:10;}</style></defs><title>moz_tech-page_ski-safari-2_build</title><path class="a" d="M3842.3 2160H0V8.46h3842.3z"/><path class="b" d="M1419.7 444.8l22.7-62.3 12.2-33.5 115.3 2 25.7 27.7 4.1 39.3 5.6 54.2 4.3 41.1-214-2.3 24.1-66.2"/><path class="c" d="M1599.7 369.7l.8 14.1a2.1 2.1 0 0 1-2.1 2.2h-1.6a2.1 2.1 0 0 1-1.5-.6l-26.5-27.1a2.1 2.1 0 0 0-1.5-.6l-115.9-1.9a2.1 2.1 0 0 1-2-2.6l5-21.5a2.1 2.1 0 0 1 2-1.6l115 .7a2.1 2.1 0 0 1 1.6.8l26 33.6a2.1 2.1 0 0 1 .4 1.3v3.2z"/><path class="d" d="M1599.7 365.7l.8 14.1a2 2 0 0 1-2 2.2h-1.6a2 2 0 0 1-1.5-.6l-26.5-27.1a2 2 0 0 0-1.4-.6l-116-1.9a2 2 0 0 1-2-2.5l5.1-21.6a2 2 0 0 1 2-1.6l115 .7a2 2 0 0 1 1.6.8l26.1 33.7a2 2 0 0 1 .4 1.2v3.2z"/><path class="e" d="M1279.1 2160V675.6l-95.9 1.5-65.7 136.7-96.2 361.7-6 53.8-85.5 248.9L821.6 2016c-2 14-26.7 134.8-26.7 144h484.2z"/><path class="f" d="M1181.6 681.6h91.5V2160H807.4l128.2-680.4 85.5-249 6-54 96-360.8 58.5-134.2"/><path class="c" d="M1194.1 661l79.5-1a2 2 0 0 1 2 2v24.7a2 2 0 0 1-2 2h-92.4a2 2 0 0 1-1.7-2.9l12.9-23.7a2 2 0 0 1 1.7-1.1z"/><path class="g" d="M1194.1 656l79.5-1a2 2 0 0 1 2 2v24.7a2 2 0 0 1-2 2h-92.4a2 2 0 0 1-1.7-2.9l12.9-23.7a2 2 0 0 1 1.7-1.1z"/><path class="h" d="M1386.8 457.9l2.5 25.1-33.1-.3 15.2-26 15.4 1.2"/><path class="i" d="M1398.8 440l19.1 32.2-29.6-7.8-13.1 6.2-11.7-5.8-34.2 6.5 32.1-33.5 37.4 2.2"/><path class="j" d="M1400.1 414l13.9 36.5-19.4-7.7s-15.6 6.9-15.8 5.6-9.5-7.1-9.5-7.1-24.3 7.1-22.6 4 24.4-33.4 24.4-33.4z"/><path class="k" d="M1393.2 394.8l15 27.2-14.2-4.6-13.1 5.9-5.2-7.2-17.7 6.2 22.2-28.1 13 .6"/><path class="h" d="M1389.2 372.8l13.5 27.9-8.2-1.9-8 3.4-3.5-3.4-11.4 3.7 17.6-29.7M1642.6 516.6l1.2 12.9-17-.1 7.8-13.4 8 .6"/><path class="i" d="M1648.7 507.4l9.9 16.6-15.3-4-6.7 3.2-6.1-3.1-17.6 3.4 16.6-17.2 19.2 1.1"/><path class="j" d="M1649.4 494l7.2 18.8-10-4s-8 3.5-8.2 2.9-4.9-3.7-4.9-3.7-12.5 3.7-11.6 2.1 12.5-17.2 12.5-17.2z"/><path class="k" d="M1645.8 484.1l7.8 14-7.4-2.3-6.7 3-2.6-3.7-9.2 3.2 11.4-14.5 6.7.3"/><path class="h" d="M1643.8 472.8l6.9 14.3-4.2-.9-4.1 1.7-1.8-1.7-5.9 1.9 9.1-15.3"/><path class="e" d="M1189.2 748l97.4-238 302 2 115.7 87.8-4.7 162.2v1398h-783l272.6-1412"/><path class="l" d="M1198.1 750.6l88.5-240.6 302 2 111 86v1562h-783l281.5-1409.4"/><path class="c" d="M1302.5 484H1586a3.1 3.1 0 0 1 1.9.7l119 94.9a3.1 3.1 0 0 1 1.2 2.4v23a3.1 3.1 0 0 1-3.9 3l-1.1-.5-115.7-89.8a3.1 3.1 0 0 0-1.9-.6l-295.2-1a3.1 3.1 0 0 1-2.8-4.4l12.1-25.9a3.1 3.1 0 0 1 2.9-1.8z"/><path class="m" d="M1302.5 479.5H1586a3.1 3.1 0 0 1 1.9.7l119 94.9a3.1 3.1 0 0 1 1.2 2.4v23a3.1 3.1 0 0 1-3.9 3l-1.1-.5-115.7-89.8a3.1 3.1 0 0 0-1.9-.6l-295.2-1a3.1 3.1 0 0 1-2.8-4.4l12.1-25.9a3.1 3.1 0 0 1 2.9-1.8z"/><path class="e" d="M1805.3 833.2l-9.3-167.1-37.3-31.2-120-.2L1618 836l187.3-2.8"/><path class="n" d="M1802.6 835l-9-167.2-36-31.8-116-2-20 201h181"/><path class="c" d="M1646.6 616.2h113.9a2 2 0 0 1 1.3.5l36.4 31.2a2 2 0 0 1 .7 1.5v27a2 2 0 0 1-3.4 1.6l-39.7-34a2 2 0 0 0-1.3-.5H1640a2 2 0 0 1-2-2.6l6.7-23.2a2 2 0 0 1 1.9-1.5z"/><path class="o" d="M1646.6 612.7h113.9a2 2 0 0 1 1.3.5l36.4 31.2a2 2 0 0 1 .7 1.5v27a2 2 0 0 1-3.4 1.6l-39.7-34a2 2 0 0 0-1.3-.5H1640a2 2 0 0 1-2-2.6l6.7-23.2a2 2 0 0 1 1.9-1.5z"/><path class="h" d="M1372.5 694.1l4.6 24.3-32.1-.3 12.4-25.1 15.1 1.1"/><path class="i" d="M1382.4 676.8l21.4 31.1-29.3-7.5-12.2 6-11.8-5.7-32.6 6.3 28.1-32.3 36.4 2.1"/><path class="j" d="M1381.3 651.6l16.8 35.4-19.5-7.5s-14.4 6.7-14.8 5.4-9.8-6.9-9.8-6.9-22.9 6.9-21.5 3.9 20.6-32.4 20.6-32.4z"/><path class="k" d="M1372.9 633l17 26.4-14.2-4.5-12.1 5.7-5.7-6.9-16.6 6 18.9-27.3 12.7.6"/><path class="h" d="M1367.1 611.7l15.6 27-8.2-1.8-7.4 3.3-3.7-3.3-10.7 3.6 14.4-28.8"/><path class="e" d="M1255.5 837.7l33.9-73.4 19.9-43 73.1 3.9 61.9 35.1 1.7 50.8 2.7 81.9.8 23.2-221.9-2.2 27.9-76.3"/><path class="p" d="M1261.1 836.8l30.8-70.8 18.7-43 71 4 59 35.1V909l-213 5 33.5-77.2"/><path class="c" d="M1388.2 705l56 29.7V772l-65-37-72.6-4 15-28 66.6 2"/><path class="q" d="M1388.2 701l56 29.7V768l-65-37-72.6-4 15-28 66.6 2"/><path class="h" d="M1223.9 862.8l4.3 27-35.7-.3 14.7-28 16.7 1.3"/><path class="i" d="M1235.5 843.5l22.7 34.7-32.3-8.4-13.7 6.7-13-6.3-36.3 7 32.3-36 40.3 2.3"/><path class="j" d="M1235.2 815.5l17.3 39.3-21.3-8.3s-16.3 7.4-16.7 6-10.7-7.7-10.7-7.7-25.7 7.7-24 4.3 24-36 24-36z"/><path class="k" d="M1226.5 794.8l18 29.4-15.6-5-13.7 6.3-6-7.7-18.7 6.7 22-30.3 14 .6"/><path class="h" d="M1220.9 771.2l16.3 30-9-2-8.3 3.6-4-3.6-12 4 17-32"/><path class="e" d="M1118.8 896.2c13.5-2 286.4.4 286.4.4l94.4 36.9 69 1226.4H832.1z"/><path class="r" d="M1125.3 896.7c13.3-2 277.3 0 277.3 0l91.3 38 74.7 1225.3h-720z"/><path class="c" d="M1403.7 862.2l94.2 41a2.9 2.9 0 0 1 1.8 2.7v39.6a2.9 2.9 0 0 1-4.1 2.7l-94.4-40-1.1-.2h-279.5a2.9 2.9 0 0 1-2.8-3.8l12.2-40.1a2.9 2.9 0 0 1 2.8-2.1h269.7z"/><path class="s" d="M1403.7 857.7l94.2 41a2.9 2.9 0 0 1 1.8 2.7V941a2.9 2.9 0 0 1-4.1 2.7l-94.4-40-1.1-.2h-279.5a2.9 2.9 0 0 1-2.8-3.8l12.2-40.1a2.9 2.9 0 0 1 2.8-2.1h269.7z"/><path class="e" d="M1858.6 829.7l-99.3-69.7-183.1 1.1-137.6 652.9 434-1-14-583.3"/><path class="t" d="M1850.6 832l-102-72-165 1.1-133 651.9h400V832"/><path class="c" d="M1587.1 735h161.1a3.6 3.6 0 0 1 2 .6l106.8 70a3.6 3.6 0 0 1 1.6 3v33.2a3.6 3.6 0 0 1-5.6 2.9L1748.8 773a3.6 3.6 0 0 0-2-.6h-167.3a3.6 3.6 0 0 1-3.5-4.4l7.5-30.2a3.6 3.6 0 0 1 3.6-2.8z"/><path class="u" d="M1587.1 731h161.1a3.6 3.6 0 0 1 2 .6l106.8 70a3.6 3.6 0 0 1 1.6 3v33.2a3.6 3.6 0 0 1-5.6 2.9L1748.8 769a3.6 3.6 0 0 0-2-.6h-167.3a3.6 3.6 0 0 1-3.5-4.4l7.5-30.2a3.6 3.6 0 0 1 3.6-2.8z"/><path class="e" d="M1784.6 866l173.6-1.2 106.4 49.2 16.1 1142.7-387 96.6L1784.6 866"/><path class="v" d="M1790.6 866l160-1.2 94.8 49.2 14.4 1142.7-345.2 96.6 76-1287.3"/><path class="c" d="M1953.6 839.5a9.6 9.6 0 0 1 3.8.9l100.7 53.1a3.7 3.7 0 0 1 1.8 2.9v37a1.1 1.1 0 0 1-1.8 1.1l-108.6-56.2a9.8 9.8 0 0 0-3.8-.9h-160a1.7 1.7 0 0 1-1.7-2l5.2-34a2.4 2.4 0 0 1 2.3-2h162.2z"/><path class="w" d="M1953.6 835a9.6 9.6 0 0 1 3.8.9l100.7 53.1a3.7 3.7 0 0 1 1.8 2.9v37a1.1 1.1 0 0 1-1.8 1.1l-108.6-56.2a9.8 9.8 0 0 0-3.8-.9h-160a1.7 1.7 0 0 1-1.7-2l5.2-34a2.4 2.4 0 0 1 2.3-2h162.2z"/><path class="e" d="M1584.4 1168.7h161.4l36.8 12.6 57 232.7-342.7-2 87.5-243.3"/><path class="x" d="M1587.9 1168.7h154.7l35.3 12.6 54.7 232.7-328.7-2 84-243.3"/><path class="c" d="M1612.2 1132.4a4.2 4.2 0 0 1 3.1-1.7h120a16 16 0 0 1 3.9.6l29.4 9.1a4.1 4.1 0 0 1 2.5 2.5l12.4 43.4a1 1 0 0 1-1.4 1.3l-38.7-12.5a15 15 0 0 0-3.9-.6s-154.5.8-154.8-.3 27.5-41.8 27.5-41.8z"/><path class="y" d="M1612.2 1128.4a4.2 4.2 0 0 1 3.1-1.7h120a16 16 0 0 1 3.9.6l29.4 9.1a4.1 4.1 0 0 1 2.5 2.5l12.4 43.4a1 1 0 0 1-1.4 1.3l-38.7-12.5a15 15 0 0 0-3.9-.6s-154.5.8-154.8-.3 27.5-41.8 27.5-41.8z"/><path class="z" d="M1851.3 1382.8l2.5 29.5s-31.5-.7-31.5-1.5 5-28.5 5-28.5z"/><path class="aa" d="M1865.6 1347.8l24.2 42-31.5-1.5-22.7 2.7-23-7-29 2 15.5-44.5 66.5 6.3"/><path class="ab" d="M1861.6 1309.8l27.7 45.2-27.7-3-12 4.5-16-6.7-19 4.5-13.2-5.5-16 4.8 27.5-47.5s28.9-18.3 48.7 3.7z"/><path class="ac" d="M1852.6 1273.8l18.3 43.8-17.2-7.5-5.5 6.8-11.2-8.7-10 9.5-3.5-11s-23 13.8-23 12.5 27.3-47.5 27.3-47.5z"/><path class="z" d="M1839.3 1232.8c5.8 0 23.3 46.3 23.3 46.3l-8.2-2-11.5 2-4.5-4.7-10 4.8-4.5-3-8 3.5s18.7-46.9 23.4-46.9z"/><path class="e" d="M1599.3 1246.7l174.3-2 30.2 15.3s30.9 154.5 28.8 154-310.5-1-310.5-1z"/><path class="ad" d="M1600.9 1244.7l169.3-2 29.3 15.3s30 154.5 28 154-295.3-1-295.3-1z"/><path class="c" d="M1631.1 1208.9a4.4 4.4 0 0 1 3.2-1.6l125.3 1.5a12.5 12.5 0 0 1 3.8.8l26.1 10.7a5 5 0 0 1 2.5 2.7l14.2 42.7c.3 1-.2 1.5-1.2 1.1l-30.3-13.2a10.8 10.8 0 0 0-3.8-.7s-170.8 4.2-170.8 1 31-45 31-45z"/><path class="ae" d="M1631.1 1204.4a4.4 4.4 0 0 1 3.2-1.6l125.3 1.5a12.5 12.5 0 0 1 3.8.8l26.1 10.7a5 5 0 0 1 2.5 2.7l14.2 42.7c.3 1-.2 1.5-1.2 1.1l-30.3-13.2a10.8 10.8 0 0 0-3.8-.7s-170.8 4.2-170.8 1 31-45 31-45z"/><path class="e" d="M1531.1 1413l51.2-103.7h121.1l25.4 7 22.6 95.7-220.3 1"/><path class="af" d="M1537.2 1413l46.7-103.7h116l25.3 7.4 20 95.3-208 1"/><path class="c" d="M1725.7 1324.7l-25.8-8h-115.5a2.4 2.4 0 0 1-2.1-3.7l18.5-30.1a2.4 2.4 0 0 1 2.1-1.2l112.1.7a2.4 2.4 0 0 1 2.3 1.7l11.4 37.7a2.4 2.4 0 0 1-3 2.9z"/><path class="ag" d="M1725.7 1321.2l-25.8-8h-115.5a2.4 2.4 0 0 1-2.1-3.7l18.5-30.1a2.4 2.4 0 0 1 2.1-1.2l112.1.7a2.4 2.4 0 0 1 2.3 1.7l11.4 37.7a2.4 2.4 0 0 1-3 2.9z"/><path class="e" d="M1144.2 1792.3l71.2-200.3 174.8-7.1v207.4h-246"/><path class="ah" d="M1152.6 1792.3l66-200.3 162-7.1v207.4h-228"/><path class="c" d="M1212.7 1596.9l24-46.7a2 2 0 0 1 1.8-1.1H1342a2 2 0 0 1 2 2v46.7a2 2 0 0 1-2 2h-127.5a2 2 0 0 1-1.8-2.9z"/><path class="ai" d="M1212.7 1592.4l24-46.7a2 2 0 0 1 1.8-1.1H1342a2 2 0 0 1 2 2v46.7a2 2 0 0 1-2 2h-127.5a2 2 0 0 1-1.8-2.9z"/><path class="h" d="M1494.6 1368l4.3 27-35.7-.3 14.7-28 16.7 1.3"/><path class="i" d="M1506.2 1348.7l22.7 34.6-32.3-8.3-13.7 6.7-13-6.4-36.3 7 32.3-36 40.3 2.4"/><path class="j" d="M1505.9 1320.7l17.4 39.3-21.3-8.3s-16.3 7.4-16.7 6-10.7-7.7-10.7-7.7-25.7 7.7-24 4.3 24-36 24-36z"/><path class="k" d="M1497.2 1300l18 29.3-15.6-5-13.7 6.4-6-7.7-18.7 6.7 22-30.4 14 .7"/><path class="h" d="M1491.6 1276.3l16.3 30-9-2-8.3 3.7-4-3.7-12 4 17-32"/><path class="e" d="M1356.4 1435.6l414.5 4.4 150.1 23.1 44.3 629.9-261.9 67h-601.3l254.3-724.4"/><path class="aj" d="M1358.6 1440h400l156 22 28.2 631-248.2 67h-570l234-720"/><path class="c" d="M1356.4 1442.1l22.4-40.9a3.9 3.9 0 0 1 3.4-2l378-4h.8l146.5 27.5a3.9 3.9 0 0 1 3.1 2.9l10.5 43.9a3.9 3.9 0 0 1-4.4 4.8l-159.1-22.5h-.6l-143 2.7c-2 0-86.2-5.7-89.9-6h-.2l-164-.6a3.9 3.9 0 0 1-3.5-5.8z"/><path class="ak" d="M1356.4 1435.6l22.4-40.9a3.9 3.9 0 0 1 3.4-2l378-4h.8l146.5 27.5a3.9 3.9 0 0 1 3.1 2.9l10.5 43.9a3.9 3.9 0 0 1-4.4 4.8l-159.1-22.5h-.6l-143 2.7c-2 0-86.2-5.7-89.9-6h-.2l-164-.6a3.9 3.9 0 0 1-3.5-5.8z"/><path class="e" d="M1576.1 1781c-3-10.8-19.4-275-19.4-275l-187.6-12.6-94.5 289.2z"/><path class="al" d="M1568.6 1782.6c-2.9-10.8-16-276.6-16-276.6l-181.2-12.6-88.8 289.2h286z"/><path class="c" d="M1366.3 1502.9l15.3-37.8a4 4 0 0 1 3.7-2.5l147.3-2.6a4 4 0 0 1 3.8 2.5l19.8 48.7a4 4 0 0 1-4 5.5l-127.9-10.1h-.5l-53.6 1.8a4 4 0 0 1-3.9-5.5z"/><path class="am" d="M1366.3 1496.9l15.3-37.8a4 4 0 0 1 3.7-2.5l147.3-2.6a4 4 0 0 1 3.8 2.5l19.8 48.7a4 4 0 0 1-4 5.5l-127.9-10.1h-.5l-53.6 1.8a4 4 0 0 1-3.9-5.5z"/><path class="h" d="M1034.8 1795.8l3.2 20.3-26.7-.3 11-21 12.5 1"/><path class="i" d="M1043.5 1781.3l17 26-24.2-6.2-10.3 5-9.7-4.8-27.2 5.3 24.2-27 30.2 1.7"/><path class="j" d="M1043.3 1760.4l13 29.5-16-6.2s-12.2 5.6-12.5 4.5-8-5.7-8-5.7-19.2 5.7-18 3.2 18-27 18-27z"/><path class="k" d="M1036.8 1744.9l13.5 22-11.8-3.8-10.2 4.8-4.5-5.8-14 5 16.5-22.7 10.5.5"/><path class="h" d="M1032.5 1727.1l12.3 22.5-6.8-1.5-6.2 2.8-3-2.8-9 3 12.7-24"/><path class="an" d="M916.6 1846h232v314H862l54.6-314"/><path class="c" d="M1133.9 1783.3c-3.3 0-197.3 18.5-197.3 18.5l-20 50.2 193.3 7.3z"/><path class="ao" d="M1133.9 1777.3c-3.1 0-171.4 16-194.7 18.2a4.4 4.4 0 0 0-3.7 2.7l-19 47.7 193.3 7.3z"/><path class="e" d="M1796.6 1614h276l75.9 426.1L1691 2160l105.6-546"/><path class="ap" d="M1796.6 1614h276l57.6 430.5-415.6 108.8 82-539.3"/><path class="c" d="M1793.2 1619.7l15.4-46.5a2.5 2.5 0 0 1 2.4-1.7h259.7a2.5 2.5 0 0 1 2.4 2l10 47.5a2.5 2.5 0 0 1-2.5 3l-285-1a2.5 2.5 0 0 1-2.4-3.3z"/><path class="aq" d="M1793.2 1614.7l15.4-46.5a2.5 2.5 0 0 1 2.4-1.7h259.7a2.5 2.5 0 0 1 2.4 2l10 47.5a2.5 2.5 0 0 1-2.5 3l-285-1a2.5 2.5 0 0 1-2.4-3.3z"/><path class="h" d="M1140.6 1753.8l4.3 27-35.7-.3 14.7-28 16.7 1.3"/><path class="i" d="M1152.2 1734.5l22.7 34.7-32.3-8.4-13.7 6.7-13-6.3-36.3 7 32.3-36 40.3 2.3"/><path class="j" d="M1151.9 1706.5l17.3 39.3-21.3-4.7s-16.3 3.8-16.7 2.4-10.7-7.7-10.7-7.7-25.7 7.7-24 4.3 24-36 24-36z"/><path class="k" d="M1143.2 1685.8l18 29.4-15.6-5-13.7 6.3-6-7.7-18.7 6.7 22-30.3 14 .6"/><path class="h" d="M1137.6 1662.2l16.3 30-9-2-8.3 3.6-4-3.6-12 4 17-32M1416.5 1709.6l-8.2 33.1 41.2-.4-13.6-34.3-19.4 1.6"/><path class="i" d="M1405.3 1685.9l-30.3 42.5 38.3-10.2 15 8.2 15.8-7.8 41.1 8.6-33.1-44.2-46.8 2.9"/><path class="j" d="M1409 1651.5l-24.7 48.3 25.6-10.2s17.9 9.1 18.5 7.4 13.2-9.4 13.2-9.4 28.7 9.4 27.2 5.3-23.5-44.2-23.5-44.2z"/><path class="k" d="M1421.4 1626.2l-24.3 36 18.7-6.2 15.1 7.8 7.8-9.4 20.8 8.2-21.9-37.2-16.2.8"/><path class="h" d="M1430.7 1597.2l-22.4 36.8 10.7-2.5 9.1 4.5 5.1-4.5 13.4 4.9-15.9-39.2"/><path class="e" d="M1579.3 2160l31.3-364.2-502.7 15.3a1627 1627 0 0 0-56.9 153.3c-16.1 51.2-28.6 92.5-37.2 122.6-5.1 18-17 62.8-19.3 72.9h584.8z"/><path class="an" d="M1570.1 2160l31.5-377.4-484.5 10.5S998.6 2160 1010.6 2160h559.5z"/><path class="c" d="M1107.9 1811.2l22-60.7 482-12.7-1.3 58-288.7 15.4h-214"/><path class="ar" d="M1107.9 1804.7l21-57.9a4.4 4.4 0 0 1 4-2.9l474.4-12.5a4.4 4.4 0 0 1 4.5 4.5l-1.2 53.4-288.7 15.3h-214z"/><path class="as" d="M3073.9 596.2l-216.2 261.9-213.7 160.3s-292.2-12.9-299.1-8.1-11.5 45.1-11.5 45.1-50.1-5.8-58.6 0 0 250.4 0 250.4-24.3 0-26.9 6.7-29.3 188.6-29.3 188.6-27.2-.1-31.8 11.7-95.2 640.6-95.2 640.6h1248.1V596.2h-265.8z"/><path class="at" d="M3622.4 0l-177 313.7-175 192s-239.2-15.5-244.9-9.8-9.4 54-9.4 54-41-7-48 0 0 300 0 300-19.9 0-22 8-24 226-24 226-22.2-.1-26 14-78 767.4-78 767.4h1022V0h-217.7z"/><path class="au" d="M3348 1582.7l60 134.7s-86 30.7-88 26.7-35.3-145.3-35.3-145.3z"/><path class="av" d="M3334.7 1484l141.3 117.3-37.3-4.7-7.3 27.3-75.3-20.7s-28.6 41.2-30.7 40.7-54-11.3-54-11.3l-45.3 28-16-17.3s-16.5 12.6-17.3 9.3 51.3-151.3 51.3-151.3z"/><path class="au" d="M3307.3 1402l110.7 82h-16.7l-2.6 24h-49.4l-37.3 24.7-51.3-14.7-33.7 31.9-29.7-10.6-14.6 12.7 24.6-124 100-26"/><path class="av" d="M3270.7 1331.3s38 46.7 107.3 91.3l-16 1.3s4 8.7 1.3 8.7-45.3-10-45.3-10l-28 26-43.3-4-38 19.3-18-14-28 20.7s34.2-64.1 54-138z"/><path class="au" d="M3202.7 1203.3c6.7-1.8 41.3 72.7 104.7 139.3l-13.3-3.3 2.3 19-29.7-9-13.3 15.3-26.7-12-20 17.3-11.3-6.7-15.3 9.3s16.7-43.4 18-84.7-2.6-82.5 4.6-84.5zM3062 1648s47.9 137.6 44 138.7-99.3 21.3-99.3 21.3l-19.3-158.7z"/><path class="av" d="M3058 1516.7s44 73.3 126.7 136l-18-2-11.3 15.3-26.7-12-4 9.5-42-13.5-30 31.3-61.3-10-61.3 26-6.7-12.7-12 9.3-14.7-4-20.7 14.7s42.7-83.3 70-176.7z"/><path class="au" d="M3058.7 1440s13.3 28.7 32.7 50.7 29.3 25.3 32 51.3c0 0-32.7-18.3-54-21.3l-27.3 34-65.3-10-34 29.4-30.7-22-17.3 16-1.3-13.3-24 22.7s30.7-63.3 48.7-136z"/><path class="av" d="M2984.7 1339.3s32.7 43.3 63.3 64 36 18.7 52 43.3-14.7-1.3-38 0l-29.3 19.3-52.7-6.7-31.3 20-37.3-17.3-30 28a47.9 47.9 0 0 1 10.7-37.3c14.7-18 34-110 34-110z"/><path class="au" d="M2916 1209.3c6.4-2.1 30.7 50.7 52.7 76.7s58.5 63.9 56.7 70.7-24.7-12-32.7-7.3-16.6 20.6-16.6 20.6l-33.3-8-18 16-12.7-9.3-16 14.7s12.7-40 11.3-68 .6-103.4 8.6-106.1zM680.1 2075.3l-4.8 84.7h92.6l-15.5-103.3-72.3 18.6"/><path class="aw" d="M785.4 1944s26 64 107.3 127.3h-32s-7.3 22-10 22-64-7.3-64-7.3l-59.3 28-66.7-2.7L588 2146l-27.3-7.3-27.3 14.7s70.7-100 116-188.7c0 0 34-74.7 136-20.7z"/><path class="ax" d="M782 1840l73.3 119.3-17.3-4.7-4.7 10.7-42.1-9.3-51.2 29.3-54.7-24-58.7 40-42-10-33.3 21.3s44-62.7 77.3-136.7S782 1840 782 1840z"/><path class="av" d="M739.4 1752.7s26.7 49.3 54 66 51.3 46.7 51.3 46.7l-53.7-10.8-36.9 28.2s-54.7-3.3-56.7-3.3-54.6 27.2-56.7 26.7l-30.7-9.3-33.3 24s54-72.7 101.3-162.7 61.4-5.5 61.4-5.5z"/><path class="au" d="M690.7 1602.7c5.3-.8 24.7 64.7 41.3 91.3s41.3 76.7 41.3 76.7l-27.8-7.4s-22.1 18-24.2 17.4-34-14-34-14l-28.1 25.6-13.2-6.3-24.7 13.3s32-49.3 46-107.3 18.7-88.7 23.4-89.3z"/><path class="ay" d="M2157.2 1821.9l18.8 90.4s-61.6 17.6-61.5 14.3-6.4-97.8-3.8-97.6 46.5-7.1 46.5-7.1z"/><path class="az" d="M2163.5 1748.8l65.4 79.4-26.1 1.3-22.8 14.9-28.3-6.8-45.4 25.8-31.9-1.6-31.6 16.4 46.3-123.1 74.4-6.3"/><path class="ay" d="M2151.2 1688.1l55.9 69.6-17.7-5.6-8.6 10.9-33.3-2.3-10 13.5-29.1-6.1s-12.7 15.5-13.3 12.7-9.4-12.5-9.4-12.5l-31.8 22.4 19.1-87.8z"/><path class="ba" d="M2125.8 1636.7l66.1 65.5-23.3-1.2-7.3 11-35.7-5.8-14.2 15.9-29.7-5.5-11.9 10.8-15.4.5-10.3 6.2 38.2-96.2 43.5-1.2"/><path class="ay" d="M2085.1 1543.9c4.7-1 62.4 98.6 62.4 98.6l-13.3-.7-9.1 8.9-21.1-5.1-14.7 13.9-6.8-11.7-16.3 17.9s13.3-120.6 18.9-121.8zM2559.6 1749.3l20.8 124.4s-85.1 20.7-84.6 16.2-3.5-133.8.1-133.5 63.7-7.1 63.7-7.1z"/><path class="az" d="M2572.2 1649.9l85 111.8-35.7.5-31.9 19-38.3-10.7-63.3 32.7-43.5-3.9-43.9 20.7 69.7-165.6 101.9-4.5"/><path class="ay" d="M2558.7 1566.4l72.6 97.9-23.9-8.5-12.3 14.4-45.3-5-14.4 17.9-39.3-9.9s-18.2 20.5-18.9 16.6-12.1-17.5-12.1-17.5l-44.7 28.9 30.8-118.8z"/><path class="ba" d="M2526.7 1494.9l86.7 92.8-31.7-2.8-10.5 14.6-48.5-9.9-20.2 21.1-40.3-9.1-16.8 14h-21l-14.4 7.8 57.3-129.2 59.4.7"/><path class="ay" d="M2476.1 1366c6.5-1.1 79.9 137.9 79.9 137.9l-18.1-1.6-12.9 11.6-28.5-8-20.8 18.2-8.6-16.3-23.1 23.5s24.5-163.9 32.1-165.3zM1994.8 1799l33.6 141.9s-114.3 24.3-115.2 20.2 6-157.9 6-157.9z"/><path class="az" d="M1992.3 1676.1l104.8 132.8-24.5-5.3-1 20.7-63-8.6-40.7 40-52.6-30-52.2 43.5-12.6-16.7-22.8 16.9 73.4-159.2 91.2-34.1"/><path class="ay" d="M1987.3 1603.1l68.7 80.2-18.7-.3 7 19.7-41.6-9.4-34.5 37-52.2-10.7-36.2 28.2-18-26.2-30.2 30.1 41.7-129.1 114-19.5"/><path class="ba" d="M1951.9 1524.2l81.4 105.9-39.6-9.4-27.9 24-47.4-12.4-48.8 27.6-18.4-5.6-20.1 13.7 67.6-136.1 53.2-7.7"/><path class="ay" d="M1910.7 1427c6.7.3 72.5 125.1 72.5 125.1l-24.1-11.9-14.7 13.9-17.1-18.2-19.7 19.7-9.2-15.8-25.8 22.7s33.5-135.7 38.1-135.5zM2314.8 1785.4l5.5 100.4s80.3-6.2 80.1-9.1-34.8-103.2-34.8-103.2z"/><path class="az" d="M2292.5 1703.7l-43.4 108.2 15.1-8.2 4.7 13.4 40-17.9 34.8 18.5 28.9-30.1 43 18.5 5-13.5 18.4 6.7-79.6-90.9-66.9-4.7"/><path class="ay" d="M2281.5 1654.4l-29.8 66.5 12.3-3.9-.8 14.4 25.7-14.3 30.1 17.7 32.4-17.2 29.4 11.6 6.8-20.9 25.9 14-52.8-77.2-79.2 9.3"/><path class="ba" d="M2289.5 1595.3l-33.2 86 24.4-13.9 23.1 10.4 29-17.5 37.6 8.7 11.1-7.3 15.9 5.1-71.3-76.8-36.6 5.3"/><path class="ay" d="M2297.8 1523.1c-4.3 1.5-23.5 96.9-23.5 96.9l13.6-12.6 12.5 6.3 7.8-15.4 16.9 9.2 3-12.3 21.5 10s-48.8-83.2-51.8-82.1zM2682.9 1725.7l-9.8 111.2s89.3 5.9 89.5 2.7-21.9-119-21.9-119z"/><path class="az" d="M2671.2 1632.2l-64.8 112.2 17.9-6.7 3.1 15.5 46.8-13.4 35.2 25.9 36.6-28.6 44.4 27.2 7.6-14 19.2 10.3L2744 1648l-72.8-15.8"/><path class="ay" d="M2666.9 1576.3l-43.2 68.4 14.1-2.3-3.2 15.7 30.5-11.7 30.3 24.2 38.4-13.8 30.5 17.4 10.8-21.9 26.2 19.6-45.8-93.3-88.6-2.3"/><path class="ba" d="M2685.1 1512.6l-50.1 89.2 29-11.4 23.8 15.1 34.6-14.6 40 15.5 13.3-6.3 16.7 8.2-66.2-95.7h-41.1"/><path class="ay" d="M2705.6 1434.4c-5 1-41.2 102.8-41.2 102.8l17-11.7 12.7 8.9 11-15.7 17.1 12.8 5.2-13 22.1 14.4s-40.4-99.2-43.9-98.5z"/><path class="bb" d="M3840 2160h-922v-252h922z"/><path class="bc" d="M2941 2077s889.9-103.7 899-108v-424.4l-7.1 4.2c-.6.4-63.9 37-197.4 86-123.2 45.2-333.2 110.4-633.7 164.3-230.1 41.3-371.6 46.9-479.7 46.9-39.6 0-77.1-.9-113.3-1.7s-70.7-1.6-107.1-1.6c-106.6 0-233.7 6-440.4 49.5C1353.6 1999.1 782.7 2158.6 778 2160h156z"/><path class="bd" d="M3840 1584.9s-250.7 147-835.7 252-627.1-15-1140.1 93S883.1 2160 883.1 2160h2068.3s33-6.5 195-26 250.5 4.5 361.5-16.5 332.2-118.9 332.2-118.9v-413.7z"/><path class="au" d="M3840 1570.9s-250.7 147-835.7 252-627.1-15-1140.1 93S883.1 2160 883.1 2160h2068.3s33-20.5 195-40 250.5 4.5 361.5-16.5S3840 1979 3840 1979v-408.1z"/></svg>
