<svg xmlns="http://www.w3.org/2000/svg" width="690" height="690" viewBox="0 0 690 690">
  <style>.st0{fill:rgba(255,255,255,.15);}</style>
  <path class="st0" d="M685.3 336.5l-29-17.9c-.2-2.8-.5-5.6-.8-8.4l24.9-23.2c2.5-2.4 3.7-5.9 3-9.2-.7-3.4-3-6.2-6.3-7.4l-31.8-11.9c-.8-2.8-1.6-5.5-2.5-8.2l19.8-27.6c2-2.8 2.4-6.4 1.1-9.6-1.3-3.2-4.2-5.5-7.6-6l-33.6-5.5c-1.3-2.5-2.7-5-4-7.5l14.1-31c1.4-3.2 1.1-6.8-.8-9.7-1.9-2.9-5.2-4.6-8.6-4.4l-34.1 1.2c-1.8-2.2-3.6-4.4-5.4-6.5l7.8-33.2c.8-3.4-.2-6.9-2.7-9.3-2.4-2.4-6-3.4-9.3-2.7l-33.2 7.8c-2.2-1.8-4.3-3.6-6.5-5.4l1.2-34.1c.1-3.4-1.6-6.7-4.4-8.6-2.9-1.9-6.5-2.2-9.7-.8L496 71.5c-2.5-1.4-5-2.7-7.5-4L483 33.9c-.6-3.4-2.8-6.3-6-7.6-3.2-1.3-6.8-.9-9.6 1.1l-27.6 19.9c-2.7-.9-5.4-1.7-8.2-2.5L419.7 13c-1.2-3.2-4-5.6-7.4-6.3-3.4-.7-6.9.5-9.2 3l-23.2 24.9c-2.8-.3-5.6-.6-8.4-.8l-17.9-29c-1.8-2.9-5-4.7-8.5-4.7s-6.7 1.8-8.5 4.7l-17.9 29c-2.8.2-5.6.5-8.4.8l-23.4-25c-2.4-2.5-5.8-3.6-9.2-3-3.4.7-6.2 3.1-7.4 6.3l-11.9 31.8c-2.8.8-5.5 1.6-8.2 2.5l-27.6-19.9c-2.8-2-6.5-2.4-9.6-1.1-3.2 1.3-5.5 4.2-6 7.6l-5.5 33.6c-2.5 1.3-5 2.7-7.5 4l-31-14c-3.1-1.4-6.8-1.1-9.7.8-2.9 1.9-4.6 5.2-4.4 8.6l1.2 34.1c-2.2 1.8-4.4 3.6-6.5 5.4l-33.2-7.8c-3.4-.8-6.9.2-9.3 2.7-2.4 2.4-3.4 6-2.7 9.3l7.8 33.2c-1.8 2.1-3.6 4.3-5.4 6.5L66.7 149c-3.4-.1-6.7 1.6-8.6 4.4-1.9 2.9-2.2 6.5-.8 9.7l14.1 31c-1.4 2.5-2.7 5-4 7.5l-33.6 5.5c-3.4.6-6.3 2.8-7.6 6-1.3 3.2-.9 6.8 1.1 9.6l19.9 27.6c-.9 2.7-1.7 5.5-2.5 8.2l-31.8 11.9c-3.2 1.2-5.6 4-6.3 7.4-.7 3.4.5 6.9 3 9.2l24.9 23.2c-.3 2.8-.6 5.6-.8 8.4l-29 17.9c-2.9 1.8-4.7 5-4.7 8.5s1.8 6.7 4.7 8.5l29 17.9c.2 2.8.5 5.6.8 8.4L9.6 403.1c-2.5 2.4-3.7 5.8-3 9.2.7 3.4 3.1 6.2 6.3 7.4l31.8 11.9c.8 2.8 1.6 5.5 2.5 8.2l-19.9 27.6c-2 2.8-2.4 6.5-1.1 9.6 1.3 3.2 4.2 5.5 7.6 6l33.6 5.5c1.3 2.5 2.7 5 4 7.5l-14 31c-1.4 3.1-1.1 6.8.8 9.7 1.9 2.9 5.2 4.6 8.6 4.4l34-1.2c1.8 2.2 3.6 4.4 5.4 6.5l-7.8 33.2c-.8 3.4.2 6.9 2.7 9.3 2.4 2.5 6 3.4 9.3 2.7l33.2-7.8c2.2 1.8 4.3 3.6 6.5 5.4l-1.2 34.1c-.1 3.5 1.6 6.7 4.4 8.6 2.9 1.9 6.5 2.2 9.7.8l30.9-14.1c2.5 1.4 5 2.7 7.5 4l5.5 33.5c.6 3.4 2.8 6.3 6 7.6 3.2 1.3 6.8.9 9.6-1.1l27.6-19.9c2.7.9 5.5 1.7 8.2 2.5l11.9 31.8c1.2 3.2 4 5.6 7.4 6.3 3.4.7 6.9-.5 9.2-3l23.2-24.9c2.8.3 5.6.6 8.4.8l17.9 29c1.8 2.9 5 4.7 8.5 4.7s6.7-1.8 8.5-4.7l17.9-29c2.8-.3 5.6-.5 8.4-.8l23.2 24.9c2.4 2.5 5.8 3.7 9.2 3 3.4-.7 6.2-3.1 7.4-6.3l11.9-31.8c2.8-.8 5.5-1.6 8.2-2.5l27.6 19.9c2.8 2 6.5 2.4 9.6 1.1 3.2-1.3 5.5-4.2 6-7.6l5.5-33.5c2.5-1.3 5-2.7 7.5-4l30.9 14.1c3.1 1.4 6.8 1.1 9.7-.8 2.9-1.9 4.6-5.2 4.4-8.6l-1.2-34.1c2.2-1.8 4.4-3.5 6.5-5.4l33.2 7.8c3.4.8 6.9-.2 9.3-2.7 2.5-2.4 3.5-6 2.7-9.3l-7.8-33.2c1.8-2.2 3.6-4.3 5.4-6.5l34.1 1.2c3.4.1 6.7-1.5 8.6-4.4 1.9-2.9 2.2-6.5.8-9.7l-14.1-30.9c1.4-2.5 2.7-5 4-7.5l33.6-5.5c3.4-.5 6.3-2.8 7.6-6 1.3-3.2.9-6.8-1.1-9.6l-19.8-27.6c.9-2.7 1.7-5.5 2.5-8.2l31.8-11.9c3.2-1.2 5.6-4 6.3-7.4.7-3.4-.5-6.9-3-9.2L655.2 380c.3-2.8.6-5.6.8-8.4l29-17.9c2.9-1.8 4.7-5 4.7-8.5.3-3.7-1.5-6.9-4.4-8.7zM491.4 576.8c-11.1-2.4-18.1-13.3-15.7-24.4 2.4-11.1 13.3-18.1 24.3-15.7 11.1 2.4 18.1 13.3 15.7 24.4-2.3 11-13.2 18.1-24.3 15.7zm-9.8-66.5c-10.1-2.2-20 4.3-22.2 14.4l-10.3 48C417.4 587 382.1 595 345 595c-38 0-74-8.4-106.3-23.4l-10.3-48c-2.2-10.1-12.1-16.5-22.2-14.4l-42.4 9.1c-7.9-8.1-15.2-16.7-21.9-25.8h206.2c2.3 0 3.9-.4 3.9-2.5v-72.9c0-2.1-1.6-2.5-3.9-2.5h-60.3v-46.2H353c6 0 31.8 1.7 40.1 34.8 2.6 10.2 8.3 43.3 12.2 53.9 3.9 11.9 19.7 35.6 36.5 35.6h102.7c1.2 0 2.4-.1 3.7-.4-7.1 9.7-14.9 18.9-23.4 27.4l-43.2-9.4zm-285.2 65.5c-11.1 2.4-22-4.7-24.3-15.7-2.4-11.1 4.7-22 15.7-24.4 11.1-2.4 22 4.7 24.3 15.8 2.4 11-4.6 22-15.7 24.3zm-78.2-317.1c4.6 10.4-.1 22.5-10.4 27.1-10.3 4.6-22.4-.1-27-10.4-4.6-10.4.1-22.5 10.4-27.1 10.3-4.6 22.4 0 27 10.4zm-24 57l44.1-19.6c9.4-4.2 13.7-15.2 9.5-24.7l-9.1-20.6h35.7V412h-72.1c-6.3-22-9.6-45.2-9.6-69.2 0-9.2.5-18.2 1.5-27.1zM287.9 300v-47.5H373c4.4 0 31.1 5.1 31.1 25 0 16.5-20.4 22.5-37.3 22.5h-78.9zm309.4 42.8c0 6.3-.2 12.5-.7 18.7h-25.9c-2.6 0-3.6 1.7-3.6 4.2v11.9c0 28-15.8 34.1-29.6 35.6-13.2 1.5-27.8-5.5-29.6-13.6-7.8-43.7-20.7-53-41.1-69.1 25.4-16.1 51.7-39.9 51.7-71.7 0-34.3-23.5-56-39.6-66.6-22.5-14.8-47.4-17.8-54.2-17.8H157.1c36.3-40.5 85.5-69.2 141.1-79.6l31.5 33.1c7.1 7.5 18.9 7.7 26.4.6l35.3-33.8c74 13.8 136.6 59.8 172.7 123L540 272.4c-4.2 9.4.1 20.5 9.5 24.7l46.5 20.7c.8 8.2 1.3 16.5 1.3 25zM329.8 66.7c8.2-7.8 21.1-7.5 29 .7 7.8 8.2 7.5 21.2-.7 29-8.2 7.8-21.1 7.5-29-.7-7.8-8.2-7.5-21.2.7-29zm239.8 193c4.6-10.4 16.7-15 27-10.4s15 16.7 10.4 27.1c-4.6 10.4-16.7 15-27 10.4s-15-16.7-10.4-27.1z"/>
</svg>
