<svg xmlns="http://www.w3.org/2000/svg" viewBox="0 0 1474.2 1033.7" width="650" height="512"><defs><style>.a,.f,.g,.p,.q,.r,.u{fill:none;}.b{isolation:isolate;}.c{fill:#6d6e71;}.d{fill:#bcbec0;stroke:#c3dcf2;stroke-miterlimit:10;}.e{fill:#1f366c;}.f,.g,.h,.r{stroke:#fff;}.f,.g,.h,.p,.q,.r,.u{stroke-linecap:round;stroke-linejoin:round;}.f,.h{stroke-width:2px;}.g{stroke-width:1.5px;}.h,.o{fill:#fff;}.h{fill-opacity:0.75;}.i{fill:#c3dcf2;}.j{clip-path:url(#a);}.k{fill:#71c4ea;}.l{fill:#f6f6f6;}.m{fill:#dbdbdb;mix-blend-mode:multiply;}.n{fill:#0c99d5;}.p{stroke:#005189;}.p,.q,.r{stroke-width:10px;}.q{stroke:#5381b9;}.s{fill:#005189;}.t{fill:#d8edf9;}.u{stroke:#d1d3d4;stroke-width:12px;stroke-dasharray:8 30;}</style><clipPath id="a" transform="translate(-2 -1.1)"><circle class="a" cx="1211.8" cy="625.7" r="111"/></clipPath></defs><title>mozilla_illustration_IoT_trust</title><g class="b"><path class="c" d="M825.1 529.6H651.9a24.1 24.1 0 0 0-23.8 20.7l-6.8 48.9h234.4l-6.8-48.9a24.1 24.1 0 0 0-23.8-20.7zM651.9 1033.7h173.2a24.1 24.1 0 0 0 23.8-20.7l6.8-48.9H621.3l6.8 48.9a24.1 24.1 0 0 0 23.8 20.7z"/><rect class="d" x="564.3" y="631" width="349.4" height="302" rx="29.9" ry="29.9" transform="rotate(90 738.55 780.45)"/><rect class="e" x="610" y="630.2" width="254" height="301.36" rx="5.9" ry="5.9"/><path class="c" d="M888 675.2h9.9a10.1 10.1 0 0 1 10.1 10.1v17.9a10.1 10.1 0 0 1-10.1 10.1H888v-38-.1z"/><path class="f" d="M823.6 739.7c0 7.2-13 27-13 27s-13-19.8-13-27a13 13 0 1 1 26 0z"/><circle class="f" cx="810.6" cy="737.8" r="4.5"/><rect class="f" x="779.6" y="715.7" width="62" height="62" rx="5.8" ry="5.8"/><path class="f" d="M752.4 751.2c-1.1-3.6-4.6-6.4-9.6-5.8-6.7-5.6-16.7-1.8-18.1 7-7.5 4.6-3.6 14.3 4 14.3h24.7c4.6 0 8.4-3.6 8.4-7.8s-4.1-8.3-9.4-7.7zM726.2 747.2a6.165 6.165 0 1 1 11.4-4.7M714.1 752.2l7-2.9M727.5 734l-2.9-7M736.6 733.7l2.9-7M713.8 737.3l7 2.9"/><rect class="f" x="706.8" y="715.7" width="62" height="62" rx="5.8" ry="5.8"/><rect class="f" x="634" y="715.7" width="62" height="62" rx="5.8" ry="5.8"/><path class="f" d="M641 753h11.1l6.3-28.8 8.9 45 5.3-29.9 4.8 10.4H689"/><path class="g" d="M840.6 651.1V646a.8.8 0 0 0-.8-.8h-31.5a.8.8 0 0 0-.8.8v18.5a.8.8 0 0 0 .8.8h31.5a.8.8 0 0 0 .8-.8v-5.1h3a.8.8 0 0 0 .8-.8v-6.7a.8.8 0 0 0-.8-.8h-3z"/><path class="g" d="M812.3 650.9h3.6v8.51h-3.6zM819.6 650.9h3.6v8.51h-3.6zM826.9 650.9h3.6v8.51h-3.6zM772.9 654.8v10.4M786.3 648.5v16.7M779.6 651.9v13.3M792.9 645.2v20"/><circle class="f" cx="737.7" cy="907.3" r="6.7"/><circle class="f" cx="759.3" cy="907.3" r="6.7"/><circle class="h" cx="716.1" cy="907.3" r="6.7"/><circle class="i" cx="1001.9" cy="63.5" r="63.5"/><circle class="i" cx="1079" cy="63.5" r="36.3"/><circle class="i" cx="952" cy="122.5" r="59"/><circle class="i" cx="1124.4" cy="122.5" r="59"/><path class="i" d="M952 90.8h172.5v90.77H952z"/><circle class="i" cx="181.5" cy="343.9" r="63.5"/><circle class="i" cx="104.4" cy="343.9" r="36.3"/><circle class="i" cx="231.5" cy="402.9" r="59"/><circle class="i" cx="59" cy="402.9" r="59"/><path class="i" d="M59 371.2h172.5v90.77H59z"/><g class="j"><path class="k" d="M914.895 564.608l228.82-228.82L1474.2 666.276l-228.82 228.82z"/><path class="l" d="M1112.37 541.126l13.93-13.93L1307.14 708.04l-13.93 13.93z"/><path class="l" d="M1095.07 666.2l75.096-75.095 13.91 13.91-75.096 75.093zM1229.02 650.007l82.52-82.52 13.91 13.91-82.52 82.52z"/><ellipse class="m" cx="1182.4" cy="665.2" rx="19.3" ry="10"/><path class="n" d="M1182.4 665.9l30.9-57.9h-61.7l30.8 57.9"/><circle class="n" cx="1182.4" cy="592.6" r="34.7"/><circle class="o" cx="1182.4" cy="592.6" r="19.3"/></g><circle class="k" cx="440.3" cy="335.8" r="111"/><path class="p" d="M408.9 359.4l28.6-24.2"/><path class="q" d="M437.5 335.2"/><path class="p" d="M408.9 310.9l28.6 24.3"/><path class="q" d="M437.5 335.2"/><path class="p" d="M437.5 335.2l30.2-25.7-30.2-25.7v29.4M437.5 335.2l30.2 25.7-30.2 25.7v-29.4"/><rect class="p" x="388.3" y="264.3" width="103.9" height="143" rx="46.7" ry="46.7"/><circle class="k" cx="738.5" cy="174.5" r="111"/><path class="r" d="M663 193.7h34.9l19.8-87.5 28 136.7 16.7-91 15 31.8H814"/><circle class="k" cx="268.8" cy="624.5" r="111"/><circle class="r" cx="268.8" cy="682.1" r="8.2"/><path class="r" d="M320 624.5a69.1 69.1 0 0 0-102.5 0M344.9 599.2c-41.6-44.3-110.6-44.3-152.2 0M242.4 649.9a34.6 34.6 0 0 1 52.8 0"/><circle class="k" cx="1036.7" cy="335.8" r="111"/><path class="e" d="M1080.2 400.3a15.2 15.2 0 0 1-15.4 15h-56.3a15.2 15.2 0 0 1-15.4-15v-120a15.2 15.2 0 0 1 15.4-15h56.3a15.2 15.2 0 0 1 15.4 15v120z"/><path class="s" d="M1080.2 395.8a15.2 15.2 0 0 1-15.4 15h-56.3a15.2 15.2 0 0 1-15.4-15v-120a15.2 15.2 0 0 1 15.4-15h56.3a15.2 15.2 0 0 1 15.4 15v120z"/><path class="s" d="M993.2 275.8h87v120.04h-87z"/><path class="t" d="M1001.8 280.8h69.7v110.03h-69.7zM1025.1 265.7h23.2v5h-23.2zM1022.8 399h27.9v5h-27.9z"/><path class="t" d="M1050.6 399a2.5 2.5 0 0 1 0 5v-5zM1022.8 399a2.5 2.5 0 0 0 0 5v-5z"/><ellipse class="t" cx="1060" cy="268.2" rx="2.3" ry="2.5"/><path class="u" d="M1080.2 665.2l-174.6 71.7M987.3 457.1l-102.5 98.7M736.6 309.9L735 479.5M489.7 457.1l102.5 98.7M393.8 665.2l174.6 71.7"/></g></svg>
