<svg xmlns="http://www.w3.org/2000/svg" xmlns:xlink="http://www.w3.org/1999/xlink" viewBox="0 0 1920 1080" width="1920" height="1080"><defs><style>.a,.x{fill:#fff;}.b{fill:none;}.c{clip-path:url(#a);}.d{opacity:0.6;fill:url(#b);}.e{clip-path:url(#c);}.f{fill:url(#d);}.g{opacity:0.25;}.h{fill:url(#e);}.i{fill:url(#f);}.j{fill:url(#g);}.k{fill:url(#h);}.l{fill:#465480;}.m{fill:#43507c;}.n{fill:#424f7a;}.o{fill:#3f4c78;}.p{fill:#43517d;}.q{fill:#ffebe0;}.r{fill:#222945;}.s{fill:#3c4b7d;}.t{fill:#394778;}.u{fill:#364270;}.v{fill:#35416e;}.w{fill:#34406b;}.x{opacity:0.5;}.y{fill:url(#i);}.z{fill:url(#j);}.aa{fill:url(#k);}.ab{fill:url(#l);}.ac{fill:#455794;}.ad{fill:#3e4c82;}.ae{fill:#232b47;}.af{fill:#28304f;}.ag{fill:#3b497b;}.ah{fill:#3d4c7f;}.ai{fill:#3c4a7d;}.aj{fill:#3a4879;}.ak{fill:#3a487a;}.al{fill:#3d4b7f;}.am{fill:#3a4778;}.an{fill:#3b497a;}</style><clipPath id="a"><path class="a" d="M0 540h1920v540H0z"/></clipPath><linearGradient id="b" x1="1039.58" y1="648.1" x2="880.42" y2="-648.1" gradientTransform="matrix(1 0 0 -1 0 540)" gradientUnits="userSpaceOnUse"><stop offset=".57" stop-color="#ffdbc9"/><stop offset=".99" stop-color="#df64a0"/></linearGradient><clipPath id="c"><path class="b" d="M0 0h1920v540H0z"/></clipPath><linearGradient id="d" x1="1039.58" y1="1188.1" x2="880.42" y2="-108.1" xlink:href="#b"/><linearGradient id="e" x1="955.25" y1="266.98" x2="955.25" y2="343.23" gradientTransform="matrix(1 0 0 -1 0 864.98)" gradientUnits="userSpaceOnUse"><stop offset="0" stop-color="#9ba2bd"/><stop offset="1" stop-color="#626d92"/></linearGradient><linearGradient id="f" x1="1572.04" y1="156.74" x2="1671.04" y2="358.74" gradientTransform="matrix(1 0 0 -1 0 864.98)" gradientUnits="userSpaceOnUse"><stop offset="0" stop-color="#626d92"/><stop offset=".78" stop-color="#4a5782"/></linearGradient><linearGradient id="g" x1="1138.62" y1="172.56" x2="1302.62" y2="280.56" xlink:href="#f"/><linearGradient id="h" x1="1524.09" y1="247.78" x2="1607.17" y2="313.62" gradientTransform="matrix(1 0 0 -1 0 864.98)" gradientUnits="userSpaceOnUse"><stop offset="0" stop-color="#4d5b87"/><stop offset="1" stop-color="#445280"/></linearGradient><linearGradient id="i" x1="955.25" y1="463.25" x2="955.25" y2="539.5" xlink:href="#e"/><linearGradient id="j" x1="1572.04" y1="371.76" x2="1671.04" y2="573.76" xlink:href="#f"/><linearGradient id="k" x1="1138.62" y1="387.58" x2="1302.62" y2="495.58" xlink:href="#f"/><linearGradient id="l" x1="1524.09" y1="462.8" x2="1607.17" y2="528.64" xlink:href="#h"/></defs><title>mozilla_image_vr-header</title><path class="a" d="M0 540h1920v540H0z"/><path class="c d" d="M0 0h1920v1080H0z"/><path class="e f" d="M0 0h1920v1080H0z"/><g class="g"><path class="h" d="M938 598c-45.2 0-93.2-30.2-163.7-76.7h362S1053.8 598 938 598z"/><path class="i" d="M1720 755c-153 2.2-644-215-644-215h1157s-376 213-513 215z"/><path class="j" d="M896 540s48 24.5 109.5 66.5 123 69.5 192.5 69.5 101-19.5 203-13 265.5-33 265.5-33l177.7-90H896z"/><path class="k" d="M1366.7 540s72.7 18.7 128.7 60.7c40.4 30.3 106.6 33.9 140.3 33.5a262.7 262.7 0 0 1 49.1 4.1l64.7 2.3 109.1-99.8z"/><path class="l" d="M1934 633c-43.7 32.7-148 30-167 29-13.3-.7-31.9-17.3-39.3-21.4l212-12.1z"/><path class="m" d="M1644.1 574c50.4-8.5 156.3-26.5 200-34H2018c-13.1 0-38 55.1-78.3 88.5l-212 12.1c-3.1-1.7-5-3-5-3s-40.8-35.4-78.6-63.6z"/><path class="n" d="M2026.5 540c-18.5 0-57 95.5-106.5 111s-83.5-10-120.5-49.5l-6.5-6.8 182.4-54.7h51.1z"/><path class="o" d="M1731.5 540h243.9L1793 594.7c-34.1-35.2-61.5-54.7-61.5-54.7z"/><path class="p" d="M1586 540h258.2c-43.7 7.5-149.7 25.6-200 34-25-18.6-48.5-34-58.2-34z"/></g><path class="q" d="M862.4 656.1l14.3-71.4h-28.6l14.3 71.4"/><path class="q" d="M867.1 649.6l14.3-71.4h-28.6l14.3 71.4"/><path class="q" d="M928.5 563l-31.2 12.2-18.1 9.3-34 20.3 28.1-42.8 55.2 1"/><path class="q" d="M836.8 557.8l36.5 4.2-28.1 42.8-37.4 17.9 29-64.9"/><path class="q" d="M720.2 640.7l36.3-85 80.3 2.1-29 64.9-87.6 18"/><path class="q" d="M676.5 554.7l80 1-36.3 85L597 676.3l79.5-121.6"/><path class="q" d="M605 551.3l71.5 3.4L597 676.3l-59.8 15.5-660.2 186V551.3h728M796.5 698.6l25.9-117.4h-51.8l25.9 117.4"/><path class="q" d="M806 720l25.9-117.5h-51.8L806 720"/><path class="q" d="M814.3 716.4l25.9-113.9h-51.8l25.9 113.9"/><path class="q" d="M820.6 704.3l24-101.6h-47.9l23.9 101.6"/><path class="q" d="M828.2 706.2l19.2-103.7h-38.3l19.1 103.7"/><path class="q" d="M850.4 602.5H827l11.7 61"/><path class="q" d="M850 624.4l7.8-40.7h-15.6l7.8 40.7M840.6 632.7l7.8-40.7h-15.6l7.8 40.7"/><g class="g"><path class="r" d="M862.4 656.1l14.3-71.4h-28.6l14.3 71.4"/><path class="r" d="M867.1 649.6l14.3-71.4h-28.6l14.3 71.4"/><path class="s" d="M928.5 563l-31.2 12.2-18.1 9.3-34 20.3 28.1-42.8 55.2 1"/><path class="t" d="M836.8 557.8l36.5 4.2-28.1 42.8-37.4 17.9 29-64.9"/><path class="u" d="M720.2 640.7l36.3-85 80.3 2.1-29 64.9-87.6 18"/><path class="v" d="M676.5 554.7l80 1-36.3 85L597 676.3l79.5-121.6"/><path class="w" d="M605 551.3l71.5 3.4L597 676.3l-59.8 15.5-660.2 186V551.3h728"/><path class="r" d="M796.5 698.6l25.9-117.4h-51.8l25.9 117.4"/><path class="r" d="M806 720l25.9-117.5h-51.8L806 720"/><path class="r" d="M814.3 716.4l25.9-113.9h-51.8l25.9 113.9"/><path class="r" d="M820.6 704.3l24-101.6h-47.9l23.9 101.6"/><path class="r" d="M828.2 706.2l19.2-103.7h-38.3l19.1 103.7"/><path class="r" d="M850.4 602.5H827l11.7 61"/><path class="r" d="M850 624.4l7.8-40.7h-15.6l7.8 40.7M840.6 632.7l7.8-40.7h-15.6l7.8 40.7"/></g><path class="x" d="M1444 1097l-75-88 8-30-23-85 41-31 141.6-47 28.4-34-140-49-180-30-268 399 467-5M894 610l-49.7 50.3c-1.5 1.5 33.5 4.7 33.5 4.7l35.1-2.5s39.8-13.5 41.6-14 .4-20.6.4-20.6z"/><path class="y" d="M938 463.3c-45.2 0-93.2 30.3-163.7 76.8h362s-82.5-76.8-198.3-76.8z"/><path class="z" d="M1720 325c-153-2.2-644 215-644 215h1157s-376-213-513-215z"/><path class="aa" d="M896 540s48-24.5 109.5-66.5 123-69.5 192.5-69.5 101 19.5 203 13 265.5 33 265.5 33l177.7 90H896z"/><path class="ab" d="M1366.7 540s72.7-18.7 128.7-60.7c40.4-30.3 106.6-33.9 140.3-33.5a262.7 262.7 0 0 0 49.1-4.1l64.7-2.3 109.1 99.8z"/><path class="l" d="M1934 447c-43.7-32.7-148-30-167-29-13.3.7-31.9 17.3-39.3 21.4l212 12.1z"/><path class="m" d="M1644.1 506c50.4 8.5 156.3 26.5 200 34H2018c-13.1 0-38-55.1-78.3-88.5l-212-12.1c-3.1 1.7-5 3-5 3s-40.8 35.4-78.6 63.6z"/><path class="n" d="M2026.5 540c-18.5 0-57-95.5-106.5-111s-83.5 10-120.5 49.5l-6.5 6.8 182.4 54.7h51.1z"/><path class="o" d="M1731.5 540h243.9L1793 485.3c-34.1 35.2-61.5 54.7-61.5 54.7z"/><path class="p" d="M1586 540h258.2c-43.7-7.5-149.7-25.6-200-34-25 18.6-48.5 34-58.2 34z"/><path class="r" d="M862.4 470.4l14.3 71.4h-28.6l14.3-71.4"/><path class="r" d="M867.1 476.9l14.3 71.4h-28.6l14.3-71.4"/><path class="s" d="M928.5 563.5l-31.2-12.2-18.1-9.3-34-20.3 28.1 42.8 55.2-1"/><path class="t" d="M836.8 568.7l36.5-4.2-28.1-42.8-37.4-17.9 29 64.9"/><path class="u" d="M720.2 485.8l36.3 85 80.3-2.1-29-64.9-87.6-18"/><path class="v" d="M676.5 571.8l80-1-36.3-85L597 450.2l79.5 121.6"/><path class="w" d="M605 575.2l71.5-3.4L597 450.2l-59.8-15.5-660.2-186v326.5h728"/><path class="ac" d="M691.5 577L461 540H-67v142h898l54-24 21-3 30.5-12-175-48-70-18"/><path class="ad" d="M894 610l-34.5-5.5-8 2-90-11.5 175 48v-12.5L894 610"/><path class="ae" d="M479.2 265.2l61.9 302.2H417.4l61.8-302.2"/><path class="ae" d="M463.7 281.5l31.6 146.2h-63.1l31.5-146.2"/><path class="ae" d="M451.1 287.5l26.7 140.2h-53.5l26.8-140.2"/><path class="ae" d="M438.7 316.6l25.5 111.1h-50.9l25.4-111.1"/><path class="ae" d="M427.3 284.3l25.4 160h-50.8l25.4-160"/><path class="ae" d="M422 288.6l27.2 166.6h-54.4L422 288.6"/><path class="ae" d="M410.6 312l25.5 127.4h-50.9L410.6 312"/><path class="ae" d="M402.6 297.4L428 424.9h-50.8l25.4-127.5"/><path class="r" d="M796.5 427.9l25.9 117.4h-51.8l25.9-117.4"/><path class="r" d="M806 406.5L831.9 524h-51.8L806 406.5"/><path class="r" d="M814.3 410.1L840.2 524h-51.8l25.9-113.9"/><path class="r" d="M820.6 422.2l24 101.6h-47.9l23.9-101.6"/><path class="r" d="M828.2 420.3L847.4 524h-38.3l19.1-103.7"/><path class="r" d="M838.7 463l11.7 61H827l11.7-61"/><path class="r" d="M850 502.1l7.8 40.7h-15.6l7.8-40.7"/><path class="r" d="M840.6 493.8l7.8 40.7h-15.6l7.8-40.7M818.1 491.7l11.6 57.8h-23.1l11.5-57.8M785.4 413.2l21.8 109.1h-43.6l21.8-109.1"/><path class="r" d="M777.1 401.2l21.8 117.5h-43.6l21.8-117.5"/><path class="r" d="M762.8 360.2l32.8 158.5h-65.5l32.7-158.5"/><path class="r" d="M754.2 366.2l29.5 144.5h-58.9l29.4-144.5"/><path class="r" d="M734.6 344.5L764 489h-58.8l29.4-144.5"/><path class="r" d="M742.5 361.1l29.4 144.5H713l29.5-144.5"/><path class="r" d="M707.4 323.3l29.5 216.5H678l29.4-216.5"/><path class="r" d="M654.8 298L694 544.8h-78.4L654.8 298"/><path class="r" d="M648.6 305.3l39.2 234.5h-78.4l39.2-234.5"/><path class="r" d="M630.3 286.3l39.2 234.5h-78.4l39.2-234.5"/><path class="r" d="M623.3 298.6l39.2 234.5h-78.4l39.2-234.5"/><path class="r" d="M670 299.4l34.2 172.4h-68.4L670 299.4"/><path class="r" d="M686.2 308.6l34.2 172.5H652l34.2-172.5"/><path class="r" d="M695.2 323.6l34.2 172.5H661l34.2-172.5"/><path class="r" d="M698.5 326.6l34.2 172.5h-68.4l34.2-172.5"/><path class="af" d="M531.3 106.6L650 592.9H428l103.3-486.3"/><path class="ae" d="M531.3 106.6l103.3 486.3H428l103.3-486.3M303.2 42.7l100.3 472.4H202.9L303.2 42.7"/><path class="ae" d="M198.2 24.3l92.4 435.2H105.8l92.4-435.2"/><path class="af" d="M353.2 96.2l107.5 436.9-199.9-1.7 92.4-435.2"/><path class="ae" d="M353.2 96.2l92.4 435.2H260.8l92.4-435.2"/><path class="af" d="M121.5-21.2l117.1 478.5H19.9L121.5-21.2"/><path class="ae" d="M121-21.2l101.6 478.5H19.4L121-21.2"/><path class="af" d="M35.7-212.8L190 444h-293.8L35.7-212.8"/><path class="ae" d="M35.7-212.8L175.2 444h-279L35.7-212.8"/><path class="af" d="M262.9-69.8l117 573.4-209.4-3.1 92.4-570.3"/><path class="ae" d="M262.9-69.8l92.4 570.3H170.5l92.4-570.3"/><path class="ag" d="M1485 794l-74-35-166-56-83 4 211 115c3 0 112-28 112-28z"/><path class="ah" d="M1068.9 741.8L1162 707l-206.1-34.3 113 69.1"/><path class="ai" d="M747 638l-9-16-393-130 53.2 136.8L747 638M1339 1080l-47-68-173-139-587.8 98 42.4 109H1339"/><path class="aj" d="M1285 874s85-52 88-52l-211-115-93.1 34.8z"/><path class="ag" d="M1285 874l-216.1-132.2-113-69.1L747 638l-348.8-9.2 133 342.2 587.8-98 173 139s4-14 7-20-14-118-14-118z"/><path class="ak" d="M531.2 971l-133-342.2L-123 615v465l654.2-109"/><path class="ag" d="M573.6 1080l-42.4-109-654.2 109h696.6"/><path class="al" d="M-123 334v114.6L345 492l-468-158"/><path class="am" d="M345 492l-468-43.4V615l521.2 13.8L345 492"/><path class="ae" d="M103.3 452L0-38.5V434l52.7 14.7 50.6 3.3"/><path class="af" d="M116 427.3l-10.7-2.6-2 27.3L0-38.5l116 465.8"/><path class="x" d="M1339.6 583.6c-6.2 0-46.5 8.2-46.5 8.2v5.4l25.7 6.7s69.2 1.9 70.4-.6 17.1-9 17.1-9l9.8 2.8 23.6 3.2 17.2-2.8 57.7.5 4.8-1.5-6.7-7.6-60.3-7-49.4 5.4-4.1 2.5z"/><path class="an" d="M1339.6 583.6l-31.3 10.7 13.6 6.2 62.2.4 9.5-7-54-10.3M1452.5 581.9l-49.5 5.4 26.4 4.5-11.1 2.5 22.2 1.6 13.6-3.2 58.1 1.2-5.8-4.5-53.9-7.5"/></svg>
