<?xml version="1.0" encoding="UTF-8"?>
<svg width="61px" height="60px" viewBox="0 0 61 60" version="1.1" xmlns="http://www.w3.org/2000/svg" xmlns:xlink="http://www.w3.org/1999/xlink">
    <!-- Generator: Sketch 59.1 (86144) - https://sketch.com -->
    <title>Asset 44</title>
    <desc>Created with Sketch.</desc>
    <g id="/firefox/features" stroke="none" stroke-width="1" fill="none" fill-rule="evenodd">
        <g id="fx-features-1312-FINAL" transform="translate(-520.000000, -1617.000000)" fill-rule="nonzero">
            <g id="Asset-44" transform="translate(520.000000, 1616.500000)">
                <path d="M60.0000076,4.09 L60.0000076,23.6 C60.0014748,24.2571003 59.787167,24.8965105 59.39,25.42 C58.798299,26.2235791 57.8579066,26.6956337 56.86,26.69 L37.88,26.69 C37.0534464,26.6979904 36.257715,26.3766047 35.6685541,25.7968253 C35.0793931,25.2170459 34.7452771,24.4265754 34.74,23.6 L34.74,20.52 C34.7479182,19.6951646 35.0831965,18.9072622 35.6720691,18.3296419 C36.2609418,17.7520216 37.0551653,17.432005 37.88,17.44 L46.74,17.44 C42.4920545,12.7584777 36.4305298,10.1377704 30.11,10.25 C19.88,10.25 11.26,16.58 9.6,25.3 L9.31,26.81 C8.9775301,28.5001955 7.34182563,29.6040725 5.65,29.28 L3.65,28.91 L2.59,28.71 C1.77336976,28.5782355 1.04406461,28.1235272 0.566298604,27.4482595 C0.0885325963,26.7729918 -0.0975320233,25.9339294 0.05,25.12 L0.33,23.61 C2.82,10.51 15.34,1 30.11,1 C37.541957,0.961163833 44.7578309,3.498381 50.53,8.18 L50.53,4.09 C50.5379184,3.26251246 50.8742502,2.47206661 51.4649982,1.89257099 C52.0557462,1.31307537 52.8525132,0.99200514 53.68,1 L56.82,1 C57.6526449,0.983947597 58.4571508,1.30144447 59.0544203,1.88181014 C59.6516899,2.46217582 59.992147,3.25723741 60.0000076,4.09 Z" id="Path" fill="#FF68BB"></path>
                <path d="M59.35,25.42 C58.758299,26.2235791 57.8179066,26.6956337 56.82,26.69 L37.88,26.69 C37.0534464,26.6979904 36.257715,26.3766047 35.6685541,25.7968253 C35.0793931,25.2170459 34.7452771,24.4265754 34.74,23.6 L34.74,20.52 C34.7479182,19.6951646 35.0831965,18.9072622 35.6720691,18.3296419 C36.2609418,17.7520216 37.0551653,17.432005 37.88,17.44 L46.74,17.44 C42.4920545,12.7584777 36.4305298,10.1377704 30.11,10.25 C19.88,10.25 11.26,16.58 9.6,25.3 L9.31,26.81 C8.9775301,28.5001955 7.34182563,29.6040725 5.65,29.28 L3.65,28.91 L2.59,28.71 C1.77336976,28.5782355 1.04406461,28.1235272 0.566298604,27.4482595 C0.0885325963,26.7729918 -0.0975320233,25.9339294 0.05,25.12 L0.33,23.61 C7.28,4.43 30.24,5.54 30.24,5.54 C49.56,5.54 59.35,25.42 59.35,25.42 Z" id="Path" fill="#E30185"></path>
                <path d="M0.259992439,56.47 L0.259992439,37 C0.258525178,36.3428997 0.472832994,35.7034895 0.87,35.18 C1.45309093,34.361301 2.39488818,33.873651 3.4,33.87 L22.34,33.87 C23.1734875,33.8619421 23.9753257,34.1887966 24.5656572,34.777248 C25.1559887,35.3656995 25.4853992,36.1664911 25.48,37 L25.48,40 C25.4720818,40.8248354 25.1368035,41.6127378 24.5479309,42.1903581 C23.9590582,42.7679784 23.1648347,43.087995 22.34,43.08 L13.48,43.08 C17.7279455,47.7615223 23.7894702,50.3822296 30.11,50.27 C40.34,50.31 49,44 50.62,35.26 L50.91,33.75 C51.2424699,32.0598045 52.8781744,30.9559275 54.57,31.28 L56.57,31.65 L57.63,31.85 C58.4411261,31.9888651 59.1629499,32.4465509 59.6344893,33.1209838 C60.1060287,33.7954166 60.2880649,34.6305027 60.14,35.44 L59.89,37 C57.4,50.1 44.89,59.6101776 30.11,59.6101776 C22.6719158,59.6347155 15.4553736,57.079593 9.69,52.38 L9.69,56.47 C9.68208165,57.2974875 9.34574976,58.0879334 8.75500179,58.667429 C8.16425383,59.2469246 7.36748681,59.5679949 6.54,59.56 L3.4,59.56 C1.68073006,59.5711003 0.276495952,58.1892266 0.259992439,56.47 Z" id="Path" fill="#E30185"></path>
                <path d="M0.87,35.14 C1.46170097,34.3364209 2.4020934,33.8643663 3.4,33.87 L22.34,33.87 C23.1734875,33.8619421 23.9753257,34.1887966 24.5656572,34.777248 C25.1559887,35.3656995 25.4853992,36.1664911 25.48,37 L25.48,40 C25.4720818,40.8248354 25.1368035,41.6127378 24.5479309,42.1903581 C23.9590582,42.7679784 23.1648347,43.087995 22.34,43.08 L13.48,43.08 C17.7279455,47.7615223 23.7894702,50.3822296 30.11,50.27 C40.34,50.31 49,44 50.62,35.26 L50.91,33.75 C51.2424699,32.0598045 52.8781744,30.9559275 54.57,31.28 L56.57,31.65 L57.63,31.85 C58.4411261,31.9888651 59.1629499,32.4465509 59.6344893,33.1209838 C60.1060287,33.7954166 60.2880649,34.6305027 60.14,35.44 L59.89,37 C52.94,56.14 30,55 30,55 C10.66,55 0.87,35.14 0.87,35.14 Z" id="Path" fill="#FF68BB"></path>
            </g>
        </g>
    </g>
</svg>