<svg xmlns="http://www.w3.org/2000/svg" width="238" height="806" viewBox="0 0 238 806.4">
  <path fill="#FF2889" fill-rule="evenodd" d="M36.2 154.9C28.9 146 16 145 7.3 152.4c-8.7 7.5-9.8 20.7-2.5 29.5 47 56.8 130.6 63.8 186.3 15.7 55.7-48.1 62.8-133.5 15.8-190.3-7.3-8.7-20.3-9.8-28.9-2.3-8.7 7.5-9.8 20.7-2.5 29.5 32.4 39.1 27.5 98-10.9 131.2-38.4 33.2-96 28.3-128.4-10.8" clip-rule="evenodd"/>
  <path fill="#FF7038" fill-rule="evenodd" d="M127 508.6l-25.7-42.1c-2.1-3.4-.9-7.9 2.6-9.9 3.5-2.1 8-1 10.1 2.5l25.7 42.1c2.1 3.4.9 7.9-2.6 9.9-3.4 2-8 .9-10.1-2.5" clip-rule="evenodd"/>
  <circle cx="131.5" cy="795.9" r="10.5" fill="#FF2889"/>
</svg>
