<?xml version="1.0" encoding="utf-8"?>
<svg width="202" height="108" viewBox="0 0 202 108" xmlns="http://www.w3.org/2000/svg">
  <g stroke-width="5" fill="none" fill-rule="evenodd" stroke-linecap="round" stroke-linejoin="round">
    <path d="M 2.5 15.2 L 198.9 15.2" style="stroke: rgb(3, 21, 55);"/>
    <path d="M17.9 2.8v24.7M72.4 2.8v24.7M126.3 2.8v24.7M180.2 2.8v24.7" style="stroke: rgb(3, 21, 55);"/>
    <path d="M 85.894 50.733 L 2.824 50.733 C 0.9 50.733 -0.303 52.816 0.659 54.483 C 1.106 55.257 1.931 55.733 2.824 55.733 L 85.894 55.733 C 87.819 55.733 89.021 53.65 88.059 51.983 C 87.613 51.21 86.787 50.733 85.894 50.733 Z" fill="#0080FF"/>
    <path d="M 197.904 102.733 L 140.824 102.733 C 138.9 102.733 137.697 104.816 138.659 106.483 C 139.106 107.257 139.931 107.733 140.824 107.733 L 197.904 107.733 C 199.829 107.733 201.031 105.65 200.069 103.983 C 199.623 103.21 198.797 102.733 197.904 102.733 Z" fill="#00C7D8"/>
    <path d="M 155.904 50.733 L 107.824 50.733 C 105.9 50.733 104.697 52.816 105.659 54.483 C 106.106 55.257 106.931 55.733 107.824 55.733 L 155.904 55.733 C 157.829 55.733 159.031 53.65 158.069 51.983 C 157.623 51.21 156.797 50.733 155.904 50.733 Z" fill="#0080FF"/>
    <path fill-rule="evenodd" d="M 67.324 80.233 C 67.324 78.848 68.449 77.728 69.834 77.733 L 197.614 77.733 C 199.539 77.733 200.741 79.816 199.779 81.483 C 199.333 82.257 198.507 82.733 197.614 82.733 L 69.834 82.733 C 68.449 82.739 67.324 81.618 67.324 80.233 Z" fill="#1C2142"/>
  </g>
</svg>
