<svg xmlns="http://www.w3.org/2000/svg" width="222" height="122" viewBox="0 0 222 122"><path fill="#FFF" d="M62 80.6l1 2.3 102.5-43.1-.9-2.3"/><path fill="#4DE5FF" d="M106.4 99.4h32.5v-2.5h-32.5"/><path fill="#4DE5FF" d="M149.4 89.3c-4.8 0-8.8 4-8.8 8.8 0 4.9 3.9 8.8 8.8 8.8s8.8-4 8.8-8.8c-.1-4.8-4-8.8-8.8-8.8zm0 20.2c-6.2 0-11.3-5.1-11.3-11.3 0-6.3 5.1-11.3 11.3-11.3 6.2 0 11.3 5.1 11.3 11.3-.1 6.2-5.1 11.3-11.3 11.3zm-63.2-88h32.5V19H86.2"/><path fill="#4DE5FF" d="M75.8 11.4c-4.8 0-8.8 4-8.8 8.8 0 4.9 3.9 8.8 8.8 8.8 4.8 0 8.8-4 8.8-8.8 0-4.8-4-8.8-8.8-8.8m0 20.2c-6.2 0-11.3-5.1-11.3-11.3s5-11.4 11.3-11.4S87.1 14 87.1 20.2 82 31.6 75.8 31.6"/><path fill="#306EFD" d="M57.6 108.2l.4-2.5c11.7 1.7 23.4-1.9 33.1-10.3 9.7-8.4 16.2-20.6 18.2-34.2l.2-1.2c4.3-29.5 28.6-50.4 54.2-46.6l-.4 2.5c-24.2-3.6-47.2 16.4-51.3 44.5l-.2 1.2c-2.1 14.3-8.9 27-19 35.8-8.6 7.4-18.7 11.3-29.1 11.3-2.1 0-4.1-.2-6.1-.5z"/><path fill="#306EFD" d="M162.2 21.3h2.5V8.2h-2.5M56.5 114H59v-13.1h-2.5"/></svg>
