<?xml version="1.0" encoding="utf-8"?>
<svg width="202" height="110" viewBox="0 0 202 110" xmlns="http://www.w3.org/2000/svg">
  <g stroke-width="5" fill="none" fill-rule="evenodd" stroke-linecap="round" stroke-linejoin="round">
    <path d="M28.1 37h20.4V16.7M82.7 21.3l14.4 14.4 14.4-14.4" style="stroke: rgb(0, 128, 255);"/>
    <path d="M2.7 54.8h17M75.8 54.8h17.1M101.3 54.8h17.1M136 54.8h17.1M161.6 54.8h17M6.4 31.2L24.5 13l24 24.1M71.5 2.9h25.6v31.6M177.3 32.8l14.4-14.4L177.3 4" style="stroke: rgb(0, 128, 255);"/>
    <path d="M190.4 18.4h-31.6V44" style="stroke: rgb(0, 128, 255);"/>
    <path d="M 197.997 82.263 L 2.997 82.263 C 1.072 82.263 -0.13 84.347 0.832 86.013 C 1.278 86.787 2.104 87.263 2.997 87.263 L 197.997 87.263 C 199.921 87.263 201.124 85.18 200.162 83.513 C 199.715 82.74 198.89 82.263 197.997 82.263 Z" fill="#00C7D8"/>
    <path d="M 57.227 104.493 L 2.997 104.493 C 1.072 104.493 -0.13 106.577 0.832 108.243 C 1.278 109.017 2.104 109.493 2.997 109.493 L 57.227 109.493 C 59.151 109.493 60.354 107.41 59.392 105.743 C 58.945 104.97 58.12 104.493 57.227 104.493 Z" fill="#0080FF"/>
    <path d="M 115.647 104.493 L 75.277 104.493 C 73.352 104.493 72.15 106.577 73.112 108.243 C 73.558 109.017 74.384 109.493 75.277 109.493 L 115.647 109.493 C 117.571 109.493 118.774 107.41 117.812 105.743 C 117.365 104.97 116.54 104.493 115.647 104.493 Z" fill="#1C2142"/>
  </g>
</svg>
