<?xml version="1.0" encoding="utf-8"?>
<svg width="202" height="124" viewBox="0 0 202 124" xmlns="http://www.w3.org/2000/svg">
  <g fill="none" fill-rule="evenodd">
    <g transform="translate(2 2)">
      <path d="M0 0h177v29H0z" style="fill: rgb(0, 128, 255);"/>
      <path d="M 99.806 109.249 L 11.8 109.3 C 5.8 109.3 0.9 104.4 0.9 98.4 L 0.9 0.7 L 176.4 0.7 L 176.4 54.2 M 0.9 29.9 L 176.4 29.9" stroke-width="5" stroke-linecap="round" stroke-linejoin="round" style="stroke: rgb(0, 128, 255);"/>
      <g transform="translate(11 11)" fill="#592ACB">
        <circle cx="4" cy="4.3" r="3.5" style="fill: rgb(255, 255, 255);"/>
        <circle cx="18.1" cy="4.3" r="3.5" style="fill: rgb(255, 255, 255);"/>
        <circle cx="32.2" cy="4.3" r="3.5" style="fill: rgb(255, 255, 255);"/>
      </g>
      <path d="M 105.1 119.3 C 100.8 112 98.3 103.4 98.3 94.3 C 98.3 74.346 110.107 57.17 127.121 49.371 C 133.384 46.5 140.354 44.9 147.7 44.9 C 175 44.9 197.1 67 197.1 94.3 C 197.1 103.3 194.7 111.7 190.5 119 C 190.4 119.1 190.4 119.2 190.3 119.3 L 105.1 119.3 L 105.1 119.3 Z M 21.5 46.9 L 73 46.9 M 21.5 65.6 L 88.2 65.6 M 21.5 86.5 L 72.1 86.5" stroke-width="5" stroke-linecap="round" stroke-linejoin="round" style="stroke: rgb(0, 199, 216);"/>
      <circle stroke-width="5" stroke-linecap="round" stroke-linejoin="round" cx="147.7" cy="94.4" r="13" style="stroke: rgb(0, 34, 169);"/>
    </g>
    <path d="M149.7 64v9.1" stroke="#20123A" stroke-width="5" stroke-linecap="round" stroke-linejoin="round"/>
    <path d="M126.8 73.5l6.4 6.4M117.3 96.4h9.1M172.6 73.5l-22.9 22.9M149.7 64v9.1" stroke-width="5" stroke-linecap="round" stroke-linejoin="round" style="stroke: rgb(19, 126, 255);"/>
    <path d="M83.6 48.9h21.7" stroke-width="5" stroke-linecap="round" stroke-linejoin="round" style="stroke: rgb(0, 199, 216);"/>
  </g>
</svg>
