<svg xmlns="http://www.w3.org/2000/svg" width="222" height="122" viewBox="0 0 222 122"><defs><filter id="a" filterUnits="userSpaceOnUse" x="59" y="5.5" width="103.8" height="111.3"><feColorMatrix values="1 0 0 0 0 0 1 0 0 0 0 0 1 0 0 0 0 0 1 0"/></filter></defs><mask maskUnits="userSpaceOnUse" x="59" y="5.5" width="103.8" height="111.3" id="b"><path fill="#FFF" d="M110.9 5.5H59v111.3h103.8V5.5z" filter="url(#a)"/></mask><path mask="url(#b)" fill="#306EFD" d="M155.3 116.8H66.5c-4.1 0-7.5-3.4-7.5-7.5h3c0 2.5 2 4.5 4.5 4.5h88.8c2.5 0 4.5-2 4.5-4.5V67.9c-5.3-3-8.1-7.4-8.1-12.9s2.8-9.9 8.1-12.9V12.9c0-2.5-2-4.5-4.5-4.5H66.5c-2.5 0-4.5 2-4.5 4.5h-3c0-4.1 3.4-7.5 7.5-7.5h88.8c4.1 0 7.5 3.4 7.5 7.5v31l-.8.4c-4.8 2.4-7.3 6-7.3 10.7s2.4 8.2 7.3 10.7l.8.4v43.2c0 4.1-3.4 7.5-7.5 7.5"/><path fill="#306EFD" d="M62 110.3h-3V64.8l.8-.4c4.8-2.4 7.3-6 7.3-10.7 0-4.6-2.4-8.2-7.3-10.7l-.8-.4V12.5h3v28.3c5.3 2.9 8.1 7.4 8.1 12.9s-2.8 9.9-8.1 12.9v43.7z"/><path fill="#FFF" d="M118.1 102.6h3v-6.4h-3m16.9 6.4h3v-6.4h-3m-33.8 6.4h3.1v-6.4h-3.1m-16.8 6.4h3v-6.4h-3m50.4-53.5h6.4v-3h-6.4m0 15.5h6.4v-3h-6.4m0 15.5h6.4v-3h-6.4M81 42.7h6.4v-3H81m0 15.5h6.4v-3H81m0 15.5h6.4v-3H81m16-33.5h3v-6.3h-3m12.6 6.3h3v-6.3h-3m12.5 6.3h3v-6.3h-3M97 81.9h3v-6.4h-3m12.6 6.4h3v-6.4h-3m12.5 6.4h3v-6.4h-3"/><path fill="#4DE5FF" d="M93.8 34.2c-1.9 0-3.5 1.5-3.5 3.4V69c0 1.9 1.5 3.4 3.5 3.4h34.6c1.9 0 3.5-1.5 3.5-3.4V37.6c0-1.9-1.5-3.4-3.5-3.4H93.8zm34.5 41.3H93.8c-3.6 0-6.5-2.9-6.5-6.4V37.6c0-3.6 2.9-6.4 6.5-6.4h34.6c3.6 0 6.5 2.9 6.5 6.4V69c-.1 3.6-3 6.5-6.6 6.5z"/></svg>
