<svg xmlns="http://www.w3.org/2000/svg" width="222" height="122" viewBox="0 0 222 122"><path fill="#306EFD" d="M34.7 10v94.9c0 5.6 4.5 10.1 10.1 10.1h134.5c5.6 0 10.1-4.5 10.1-10.1V10H34.7zm151.8 2.9v21.3H37.7V12.9h148.8zm-7.2 99.1H44.8c-4 0-7.2-3.2-7.2-7.1V37.2h148.8v67.7c.1 3.9-3.2 7.1-7.1 7.1z"/><path fill="#306EFD" d="M54.2 53.7h49.9v-3H54.2m57.9 3h58.7v-3h-58.7M54.2 66H120v-3H54.2m71.7 3h29.3v-3h-29.3"/><path fill="#30C0E5" d="M68.5 101h17.1v-2.9H68.5m-12.8 1.3l-2.1-2.1 7.5-7.5-7.9-8 2-2.1 10.1 10.1"/><path fill="#306EFD" d="M51.7 23.6c0 2.1-1.7 3.8-3.8 3.8s-3.8-1.7-3.8-3.8c0-2.1 1.7-3.8 3.8-3.8 2.1 0 3.8 1.7 3.8 3.8m12.6 0c0 2.1-1.7 3.8-3.8 3.8s-3.8-1.7-3.8-3.8c0-2.1 1.7-3.8 3.8-3.8 2.1 0 3.8 1.7 3.8 3.8m12.6 0c0 2.1-1.7 3.8-3.8 3.8-2.1 0-3.8-1.7-3.8-3.8 0-2.1 1.7-3.8 3.8-3.8 2.1 0 3.8 1.7 3.8 3.8"/></svg>
