<svg width="57" height="51" viewBox="0 0 57 51" xmlns="http://www.w3.org/2000/svg"><g stroke="#5396F0" stroke-width="4" fill="none" fill-rule="evenodd" stroke-linecap="round" stroke-linejoin="round"><path d="M16.95 28.976v10.99c0 .955.609 1.672 1.462 1.672h8.403v5.495c0 .955 1.218 1.433 1.827.716l6.334-6.211h18.512c.853 0 1.462-.717 1.462-1.673V17.867c0-.956-.609-1.673-1.462-1.673h-11.57"/><path d="M39.488 2.194H4.412c-.731 0-1.462.717-1.462 1.673v22.098c0 .956.609 1.673 1.462 1.673h18.512l6.334 6.211c.73.717 1.827.24 1.827-.716v-5.376h8.403c.853 0 1.462-.716 1.462-1.672V3.867c0-.956-.609-1.673-1.462-1.673z"/></g></svg>