<?xml version="1.0" encoding="utf-8"?>
<svg width="84" height="87" viewBox="0 0 84 87" xmlns="http://www.w3.org/2000/svg">
  <g fill="none" fill-rule="evenodd">
    <path d="M84 43.011L70 47V28zM0 43.011L14 47V28z" style="fill: rgb(14, 89, 225);"/>
    <path d="M70 65H14V5.5C14 2.461 16.397 0 19.356 0h45.288C67.604 0 70 2.461 70 5.5V65z" style="fill: rgb(1, 199, 216);"/>
    <path d="M81.342 42.194c1.255-.563 2.658.37 2.658 1.77v40.278C84 85.765 82.394 87 80.438 87H3.562C1.606 87 0 85.751 0 84.242V43.923c0-1.386 1.403-2.32 2.658-1.757L42.02 59.787l39.322-17.593z" style="fill: rgb(0, 128, 255);"/>
    <path d="M22 12h41M22 22h41M22 32h41" stroke-width="4" stroke-linecap="round" style="stroke: rgb(3, 21, 55);"/>
  </g>
</svg>
