<svg width="1991" height="597" viewBox="0 0 1991 597" xmlns="http://www.w3.org/2000/svg"><defs><linearGradient x1=".387" y1=".075" x2=".269" y2=".2" id="b"><stop stop-color="#0A265C" offset="0"/><stop stop-color="#5A4A9E" offset="1"/></linearGradient><linearGradient x1="-.304" y1=".414" x2=".351" y2=".382" id="c" gradientTransform="matrix(1.01852 -.00131 -.00074 1.00004 .006 0)"><stop stop-color="#AB71FF" offset="0"/><stop offset="1" stop-color="#0A265C"/></linearGradient><linearGradient x1=".32" y1=".581" x2=".864" y2=".34" id="d" gradientTransform="matrix(1.13687 .02046 -.01262 1.84211 -.114 -.304)"><stop offset="0" stop-color="#0a265c"/><stop stop-color="#0A265C" offset=".541"/><stop stop-color="#5396F0" offset="1"/></linearGradient></defs><g fill="none" fill-rule="evenodd"><mask id="a" fill="#fff"><path d="M0 0h2037v777H0z"/></mask><g mask="url(#a)" fill-rule="nonzero"><path d="M1947.67 4010.149c171.889 112.497 220.742 344.125 109.116 517.355-111.626 173.23-341.46 222.464-513.35 109.967-766.195-501.455-983.946-1533.951-486.358-2306.149 497.568-772.166 1522.067-991.63 2288.255-490.179 171.889 112.497 220.742 344.125 109.116 517.355-111.626 173.23-341.46 222.465-513.35 109.968-422.41-276.457-987.24-155.462-1261.556 270.244-274.338 425.74-154.287 994.98 268.127 1271.439z" fill="url(#b)" transform="scale(-1 1) rotate(-1 -104133.82 173493.91)"/><path d="M2532.603 2309.529c193.798 67.224 296.807 279.987 230.077 475.22-66.73 195.233-393.878 435.852-587.676 368.628L774.397 2490.471c-193.798-67.224-296.807-279.987-230.077-475.22 66.73-195.233 277.93-299.004 471.728-231.78l1516.555 526.058z" fill="url(#c)" transform="scale(-1 1) rotate(2 53049.17 -55575.302)"/><path d="M2553.313 930.232c131.239-132.31 344.019-132.31 475.258 0 131.239 132.31 131.239 346.826 0 479.135l-1161.921 1171.4c-131.237 132.309-344.014 132.31-475.254.005l-1161.963-1171.4c-131.24-132.307-131.245-346.824-.008-479.136 131.236-132.311 344.017-132.315 475.258-.008l924.334 931.841 924.296-931.837z" fill="url(#d)" transform="rotate(54 2766.307 -449.416)"/></g></g></svg>