<svg id="Layer_1" xmlns="http://www.w3.org/2000/svg" viewBox="0 0 140 140"><style>.st0{fill:#6FBE4A;}</style><path class="st0" d="M69.2 89.3c-1.2 0-2.3-.4-3.2-1.2-.3-.2-6.7-5.7-11.7-13.7-1.5-2.3-.7-5.4 1.6-6.9s5.4-.7 6.9 1.6c1.9 3.1 4.1 5.7 5.9 7.7 5.9-7.8 18-23.8 23.6-33.2 1.4-2.3 4.5-3.1 6.8-1.7 2.4 1.4 3.1 4.5 1.7 6.8C92.9 62 74 86.4 73.2 87.4c-.8 1.1-2.1 1.8-3.4 1.9h-.6z"/><path class="st0" d="M71.2 102.7c-17.4 0-31.5-14.1-31.5-31.5s14.1-31.5 31.5-31.5 31.5 14.1 31.5 31.5-14.1 31.5-31.5 31.5zm0-60c-15.7 0-28.5 12.8-28.5 28.5s12.8 28.5 28.5 28.5 28.5-12.8 28.5-28.5-12.8-28.5-28.5-28.5z"/></svg>