<svg id="FOX" xmlns="http://www.w3.org/2000/svg" viewBox="0 0 600 325"><style>.st0{fill:#3E0000;} .st1{fill:url(#SVGID_1_);} .st2{fill:url(#SVGID_2_);} .st3{fill:url(#SVGID_3_);} .st4{fill:url(#SVGID_4_);} .st5{fill:url(#SVGID_5_);} .st6{fill:#FFFFFF;} .st7{fill:url(#SVGID_6_);} .st8{fill:url(#SVGID_7_);} .st9{fill:url(#SVGID_8_);} .st10{fill:url(#SVGID_9_);} .st11{fill:url(#SVGID_10_);} .st12{fill:url(#SVGID_11_);} .st13{fill:url(#SVGID_12_);} .st14{fill:url(#SVGID_13_);} .st15{fill:url(#SVGID_14_);} .st16{fill:url(#SVGID_15_);} .st17{fill:url(#SVGID_16_);} .st18{fill:#FFFFFF;stroke:#FFFFFF;stroke-width:5.000000e-02;stroke-linecap:round;stroke-linejoin:round;} .st19{fill:url(#SVGID_17_);} .st20{fill:url(#SVGID_18_);} .st21{fill:#6A3931;} .st22{fill:url(#SVGID_19_);} .st23{fill:url(#SVGID_20_);} .st24{fill:url(#SVGID_21_);} .st25{fill:url(#SVGID_22_);} .st26{fill:url(#SVGID_23_);} .st27{fill:url(#SVGID_24_);} .st28{fill:url(#SVGID_25_);} .st29{fill:url(#SVGID_26_);} .st30{fill:url(#SVGID_27_);} .st31{fill:url(#SVGID_28_);} .st32{fill:url(#SVGID_29_);} .st33{fill:url(#SVGID_30_);} .st34{fill:url(#SVGID_31_);} .st35{fill:url(#SVGID_32_);} .st36{fill:url(#SVGID_33_);} .st37{fill:url(#SVGID_34_);} .st38{fill:url(#SVGID_35_);} .st39{fill:url(#SVGID_36_);} .st40{fill:url(#SVGID_37_);} .st41{fill:url(#SVGID_38_);} .st42{fill:url(#SVGID_39_);} .st43{fill:url(#SVGID_40_);} .st44{fill:url(#SVGID_41_);}</style><path class="st0" d="M121 79.8c-1.9 1.5-6.4 9.3-5.7 12.6.3 1.4 4 1 6.9-1 2.2-1.6 2.5-4.1 5.7-7.8 11.9-13.5 28.3-18.4 32-20 4.1-1.8 3.8-3.3 3.8-3.3s-16.8-.8-42.7 19.5zM223.1 52.3s-1.2.6-1.1 1.6c.2 2.8.5 3.2.8 10.9.2 6.2 1.9 28.3-3.4 33.6-1.4 1.4-2.1 4.9-1.5 5.9 1.4 2.2 4.9 1.7 6.5.8 3.2-1.8 4.9-18.4 4.9-20.4 0-1.9-2.7-26.6-4.3-31.3-.5-1.6-1.9-1.1-1.9-1.1z"/><linearGradient id="SVGID_1_" gradientUnits="userSpaceOnUse" x1="270.427" y1="35.057" x2="156.197" y2="220.681"><stop offset="0" stop-color="#FBAE47"/><stop offset="1" stop-color="#F37032"/></linearGradient><path class="st1" d="M46.6 252.5c5-4.3 7-15 11.7-20.4 9.8-11.3 21.1-16.6 21.6-17.3 1.9-2.3 1.1-16.6 18.2-37.2 7.7-9.3 15.4-9.5 19.1-15.6-1.3.5-5 2.2-9.7.6-5.9-8.6-1-50.1 42.2-95.7C163.3 52.5 189 34.8 205 34.8c8.6 0 14.2 4.5 14.2 4.5 1.4 4.3-1.6 16.6-1.6 16.6s3.3-3.5 7-4.2c.8 1.3 1.2 6.1 1.3 8.5-.1-.7-.6-3.8-.9-3.7-.4 0-.4 2.1-.4 3.1-2.3 11.9-11 31.3-25.5 41.3-3.4 2.4-11.4 3.1-12.6-9.2-10.6 17.5 6.6 33.4-5.1 51.2 3.9-2.1 34.6-19.1 36.8-17.2 2.2 1.8-9 30.2-10.4 34 3.1 1.6 6.9 4.1 10.2 8.1 8.5 10.1 13.5 13.5 23.3 15 11.3 1.7 34.9 4.5 35.4 4.9.5.4 2.1 5 2 6.2 0 .4-.4 1.3-1.2 2.5-1.8 3.1-5.9 8.1-12.4 11.6-2.2 1.2-9.4 3.4-19.1 6-9.6-2.4-29.3.9-44.9 4.7-20.3 4.9-38.7 16-38.7 16l-3.2 2.6s-11.1 9.3-28.6 11c-11.8 1.1-9.2 2.5-11.3 2-1.4-.3-6-2.3-7.5-4.3-1.5-1.9-2.9-5.1 6.9-8.1-6.2 1.8-9.3 2.1-16.3.8-19.7 3.3-38.6 9.3-46.3 13.1l-9.5.7z"/><linearGradient id="SVGID_2_" gradientUnits="userSpaceOnUse" x1="145.716" y1="260.087" x2="248.49" y2="37.797"><stop offset="0" stop-color="#F7941E"/><stop offset="1" stop-color="#FFF"/></linearGradient><path class="st2" d="M56.2 251.9c7.8-3.8 26.7-9.8 46.3-13.1 7 1.3 10.1.9 16.3-.8-9.9 3-8.4 6.2-6.9 8.1 1.6 2.1 6.1 4 7.5 4.3 2.1.5-.5-.9 11.3-2 17.5-1.6 28.6-11 28.6-11l3.2-2.6s18.4-11.1 38.7-16c15.6-3.8 35.3-7.1 44.9-4.7 9.6-2.6 16.8-4.8 19.1-6 6.6-3.5 10.6-8.5 12.4-11.6.8-1.2 1.1-2.2 1.2-2.5.1-.7-.4-2.4-.9-3.8-12.4 1.3-23.5-1.1-33.2-.7 1.7.3 3.1 1 3.9 1.3-5.3-.4-23.7-3-27.9-3.2 1.7.5 2.9 1.3 4.5 2.1-5-1.2-9.5-1-12.3-1.1-3.6-.2-6.3-.4-7.4-.9-1.1-.5-2.4-3.2-5.4-5.9-3.5-3.1-8.1-5.2-11.3-5.8 2.3-.5 3.9-2.4 4.2-3-2.2.9-7.7 1.2-13.7 1.1-18.2-.3-28.3 7.7-28.3 7.7s-3.5-4.4-2.1-10.8c.6-3 1.7-6.7 3.7-11.8-1.2.4-1.3 1.2-2.3 2.1.8-3.7 2.4-7.6 3.6-10.4.9-1.9-1.3-1.8-4.2.6-1 .8-2.6 2.3-3.6 3.5.1-.9.6-1.6.9-2.3-3.4 3.3-8.2 13.3-9.2 16.3 0-1.2.5-4.8.7-5.3-1.9 2.3-4.1 6.8-4 7.7.3 3.5 1.4 8.2 4.9 13.2-1.6.1-9.9-9-11.3-7.3-1.4 1.7-.3 5.3-.2 7.2-1.9-1.7-5.2-6.2-18.7 1.8-12.8 7.6-14-.7-7-12.7-1.3 1.1-2.6 2.5-4 4.1-17.1 20.6-16.3 34.9-18.2 37.2-.3.4-3.8 2.1-8.5 5.5 2.5-.7 6-1.4 3.4 1.7-3.1 3.7-16 13.6-19.6 14.9-2.9 5.6-4.9 12.5-8.6 15.7"/><linearGradient id="SVGID_3_" gradientUnits="userSpaceOnUse" x1="145.716" y1="260.087" x2="248.49" y2="37.797"><stop offset="0" stop-color="#F7941E"/><stop offset="1" stop-color="#FFF"/></linearGradient><path class="st3" d="M56.2 251.9c7.8-3.8 26.7-9.8 46.3-13.1 7 1.3 10.1.9 16.3-.8-9.9 3-8.4 6.2-6.9 8.1 1.6 2.1 6.1 4 7.5 4.3 2.1.5-.5-.9 11.3-2 17.5-1.6 28.6-11 28.6-11l3.2-2.6s18.4-11.1 38.7-16c15.6-3.8 35.3-7.1 44.9-4.7 9.6-2.6 16.8-4.8 19.1-6 6.6-3.5 10.6-8.5 12.4-11.6.8-1.2 1.1-2.2 1.2-2.5.1-.7-.4-2.4-.9-3.8-12.4 1.3-23.5-1.1-33.2-.7 1.7.3 3.1 1 3.9 1.3-5.3-.4-23.7-3-27.9-3.2 1.7.5 2.9 1.3 4.5 2.1-5-1.2-9.5-1-12.3-1.1-3.6-.2-6.3-.4-7.4-.9-1.1-.5-2.4-3.2-5.4-5.9-3.5-3.1-8.1-5.2-11.3-5.8 2.3-.5 3.9-2.4 4.2-3-2.2.9-7.7 1.2-13.7 1.1-18.2-.3-28.3 7.7-28.3 7.7s-3.5-4.4-2.1-10.8c.6-3 1.7-6.7 3.7-11.8-1.2.4-1.3 1.2-2.3 2.1.8-3.7 2.4-7.6 3.6-10.4.9-1.9-1.3-1.8-4.2.6-1 .8-2.6 2.3-3.6 3.5.1-.9.6-1.6.9-2.3-3.4 3.3-8.2 13.3-9.2 16.3 0-1.2.5-4.8.7-5.3-1.9 2.3-4.1 6.8-4 7.7.3 3.5 1.4 8.2 4.9 13.2-1.6.1-9.9-9-11.3-7.3-1.4 1.7-.3 5.3-.2 7.2-1.9-1.7-5.2-6.2-18.7 1.8-12.8 7.6-14-.7-7-12.7-1.3 1.1-2.6 2.5-4 4.1-17.1 20.6-16.3 34.9-18.2 37.2-.3.4-3.8 2.1-8.5 5.5 2.5-.7 6-1.4 3.4 1.7-3.1 3.7-16 13.6-19.6 14.9-2.9 5.6-4.9 12.5-8.6 15.7l9.5-.8z"/><linearGradient id="SVGID_4_" gradientUnits="userSpaceOnUse" x1="152.416" y1="472.022" x2="255.129" y2="249.864" gradientTransform="rotate(-5.377 -2134.646 356.706)"><stop offset="0" stop-color="#F7941E"/><stop offset="1" stop-color="#FFF"/></linearGradient><path class="st4" d="M199.1 156.5s-9-2.3-13.4-2.9c-4.4-.6-6.4-.7-6.4-.7v-5.6s6.9-4 13.8-5.8c6.9-1.8 10.8-.3 10.9-.1.1.2-5.5 8.2-4.5 8.1 1-.1 3-1.7 3-1.7s-2.5 3.8-2.9 4.7c-.4.9-1.3 2.8-.5 2.7.7-.1 2.9-.6 2.9-.6l-2.9 1.9z"/><linearGradient id="SVGID_5_" gradientUnits="userSpaceOnUse" x1="123.441" y1="254.602" x2="132.292" y2="188.378"><stop offset="0" stop-color="#B22B2A"/><stop offset="1" stop-color="#F36B31" stop-opacity="0"/></linearGradient><path class="st5" d="M56.2 251.9c7.8-3.8 26.7-9.8 46.3-13.1 7 1.3 10.1.9 16.3-.8-6.4 2-8 4-8 5.7 0 .9.5 1.7 1 2.4 1.6 2.1 6.1 4 7.5 4.3 2.1.5-.5-.9 11.3-2 17.5-1.6 28.6-11 28.6-11l3.2-2.6s18.4-11.1 38.7-16c.5-.1 1.1-.3 1.6-.4 2.2-4.2 3.5-6.9 3.5-6.9s-15.7 4.5-26.8 3c-4.6-.6-4.2-3.6-6.8-4.5-8.7-2.9-14.3-11.5-29.9-13.7-11.4-1.5-23.7 4.6-23.7 4.6l5.5 1.2s-11.2 4-20.9 1.5c-9.8-2.6-10.9-9.7-10.2-13-2.7 3.3-9.8 14.9-10.1 25.5-.3 3.7-3.1 9-6.4 12.2.5-1.1.8-2.1 1-3.2-1.5 2.5-5.3 6.3-7 7.5-4.1 2.9-13.6 8.2-17.6 8.2-2 4.6-3.9 9.2-6.8 11.7l9.7-.6z"/><path class="st0" d="M204.8 140.8c1 1.6 2.7 2 3.4 1.1.7-.9 6.2-4.3 6.5-3.9.3.4.6.5.9.5 2.1-6.4 3.6-12 2.7-12.8-1-.8-7.3 2-14.5 5.5-.4 1-.6 3.1-.4 4.9.3-.9.5-1.4.8-2-.6 2.4-.1 5.4.6 6.7z"/><path class="st6" d="M207.3 159.5s-2.7-1.3-5.3-2c.3-.4 2.5-3.1 3.7-5.5-2.4 1.3-4.3 1.1-4.3 1.1s6.5-6.3 9-11.8c-1.4 1.4-2.1 1.9-3.7 2.7 3.8-5.9 8.8-14.1 10-13.9 1.1.5-9.4 29.4-9.4 29.4z"/><path class="st0" d="M180.3 132.9c.3-1.5.6-2.9 1.1-4.3 1.7-5.1 1.5-7.6-.7-7.4-4.3.4-22.7 15.3-23.2 16.5.7-.3 3.7-.8 5.5-.7-.4.1-1.4.9-2.5 1 1.1.3 3.6 1.7 4.3 1.6 1.6-.2 2.7-3.6 3.5-5.2 1.8-1.3 9.8-1.1 10.5-.7.8.3 1.5-.8 1.5-.8z"/><path class="st6" d="M172.9 156.3s4.9-.6 5.2-1.3c.3-.7-.6-11.1.1-17.8.7-6.7 3.9-13.2 2.2-13.2-10.5 1.5-27.1 34.1-28.2 43.1 3.4-5.5 7.3-7.3 7.3-7.3s-3.9 4.9-6.9 11.3c-3 6.4-1.8 9.9-1.8 9.9s3.3-5.8 6.9-8.7c3.6-2.9 7.2-4.1 7.2-4.1l-4-.9s4.8-3.8 8.9-5.3c4-1.6 7.7-3.5 7.7-3.5l-4.6-2.2z"/><linearGradient id="SVGID_6_" gradientUnits="userSpaceOnUse" x1="156.671" y1="358.27" x2="182.233" y2="364.467" gradientTransform="rotate(-5.377 -2134.645 356.7)"><stop offset="0" stop-color="#FFDBAE"/><stop offset="1" stop-color="#FBAE47" stop-opacity="0"/></linearGradient><path class="st7" d="M178.6 126.1s-5.1 2.2-11.8 13.4c-6.7 11.2-11.2 21.9-11.2 21.9s3.5-3.9 8.2-4.8c-4.2 2.9-6.7 10.4-6.7 10.4s5-4.1 6.1-7.9c.2 1.6.1 2.3-.3 3.8 1.7-.2 4-1.3 5.5-3.8-.8-.3-1.6-.9-1.7-1.2 4.4 1.3 6 .6 6.2.1-2.4-.6-4-2.2-4.5-2.9 1.3.1 3 .2 4.3-1.4 1.3-1.6 1.9-11.2 2.2-13.8.3-2.6.6-4 .7-4.9-.7.9-2.4 5.9-2.4 5.9s.4-5.7 4.1-11.6c-.5.3-1.2.7-1.9 1.4.6-1.1 3.2-3.3 3.2-4.6z"/><linearGradient id="SVGID_7_" gradientUnits="userSpaceOnUse" x1="192.729" y1="381.317" x2="220.692" y2="366.534" gradientTransform="rotate(-5.377 -2134.645 356.7)"><stop offset="0" stop-color="#FFDBAE"/><stop offset="1" stop-color="#FBAE47" stop-opacity="0"/></linearGradient><path class="st8" d="M210.9 147.7s-.4.7-.9.9c4-9.2 6.1-16.1 5.8-16.3-.5-.4-3.9 6.6-4.3 7.1-.4.5 1.7-1.1 1.7-1.1s-2.8 6-4.8 8.4c-2 2.4-3.1 3.6-3.1 3.6l1.8-.9-1.7 1.8 1.9-.6s-.6 1.9-2 4.2c-.8 1.3-1.7 2.3-2.3 3 1.5.5 3 1.1 3.8 1.5.8-2.4 4.1-11.6 4.1-11.6z"/><path class="st0" d="M277.2 197.1c.1-.1.1-.1 0 0 .2-.2.3-.4.4-.6.7-1.2 1.1-2.2 1.2-2.5.1-1.2-1.5-5.8-2-6.2-.2-.2-5.2-.9-11.6-1.7-.3.5-1 2-.9 3.7.2 2 5.9 13 8.9 12.4 2.5-2.6 3.8-4.7 4-5.1z"/><linearGradient id="SVGID_8_" gradientUnits="userSpaceOnUse" x1="70.704" y1="247.805" x2="157.851" y2="42.369"><stop offset="0" stop-color="#F7941E"/><stop offset="1" stop-color="#FFF"/></linearGradient><path class="st9" d="M130.4 90.3c-4.5 9.4-10.6 24.8-10.6 24.8l2.6-.9s-9.7 22.3-8.2 30.6c.8 4.4 4.4 7.4 7.8 9.3-1 1.4-1.1 2.9-4.6 7.9-1.3.5-5 2.2-9.7.5-5-7.1-2.5-36.6 22.7-72.2z"/><linearGradient id="SVGID_9_" gradientUnits="userSpaceOnUse" x1="122.42" y1="249.284" x2="225.142" y2="27.105"><stop offset="0" stop-color="#F7941E"/><stop offset="1" stop-color="#FFF"/></linearGradient><path class="st10" d="M176.8 122.9c1.6-1 3-1.6 3.9-1.7 2.2-.2 2.3 2.2.7 7.4-.4 1.3-.8 2.7-1 4.1v.1c-.9 3.8-1 11-1 11s0 .2 2-.9c11.7-17.7-5.5-33.7 5.1-51.1 1.2 12.3 9.2 11.6 12.6 9.2 14.4-10 23.2-29.4 25.5-41.3 0-1 0-3.1.4-3.1s.8 3 .9 3.7c-.1-2.4-.5-7.2-1.3-8.5-.2 1-7.6 30.2-21 36.5-9.5 4.4-14 0-13.8-1.6.1-2.4 3.9-6.8 3.9-6.8s-9-2.1-15.7 13.6c-6.7 15.8-1.3 29.4-1.2 29.4-.1 0 0 0 0 0z"/><linearGradient id="SVGID_10_" gradientUnits="userSpaceOnUse" x1="166.52" y1="799.392" x2="125.96" y2="821.665" gradientTransform="rotate(-17.355 -2318.893 338.864)"><stop offset=".012" stop-color="#FFF799"/><stop offset=".16" stop-color="#FFCC32"/><stop offset=".233" stop-color="#FEC232" stop-opacity=".912"/><stop offset=".405" stop-color="#FCB033" stop-opacity=".708"/><stop offset=".585" stop-color="#FAA333" stop-opacity=".493"/><stop offset=".777" stop-color="#F89B33" stop-opacity=".265"/><stop offset="1" stop-color="#F89933" stop-opacity="0"/></linearGradient><path class="st11" d="M194.8 40.6s-17.8 7.3-33.2 19.7c-16.8 13.6 1.5 7.1 5.2 4.9 3.7-2.2 14.6-16.1 28-24.6z"/><linearGradient id="SVGID_11_" gradientUnits="userSpaceOnUse" x1="37.239" y1="1146.129" x2="-3.395" y2="1168.442" gradientTransform="rotate(-26.332 -2246.257 310.897)"><stop offset=".012" stop-color="#FFF799"/><stop offset=".16" stop-color="#FFCC32"/><stop offset=".233" stop-color="#FEC232" stop-opacity=".912"/><stop offset=".405" stop-color="#FCB033" stop-opacity=".708"/><stop offset=".585" stop-color="#FAA333" stop-opacity=".493"/><stop offset=".777" stop-color="#F89B33" stop-opacity=".265"/><stop offset="1" stop-color="#F89933" stop-opacity="0"/></linearGradient><path class="st12" d="M175.3 49.5s-16.5 9.9-29.7 24.6c-14.4 16 2.8 7.3 6.1 4.5 3.4-2.8 11.8-18.7 23.6-29.1z"/><linearGradient id="SVGID_12_" gradientUnits="userSpaceOnUse" x1="-213.377" y1="1584.57" x2="-254.012" y2="1606.883" gradientTransform="rotate(-38.475 -2207.62 303.52)"><stop offset=".012" stop-color="#FFF799"/><stop offset=".16" stop-color="#FFCC32"/><stop offset=".233" stop-color="#FEC232" stop-opacity=".912"/><stop offset=".405" stop-color="#FCB033" stop-opacity=".708"/><stop offset=".585" stop-color="#FAA333" stop-opacity=".493"/><stop offset=".777" stop-color="#F89B33" stop-opacity=".265"/><stop offset="1" stop-color="#F89933" stop-opacity="0"/></linearGradient><path class="st13" d="M155.7 67.5s-14 13.2-23.8 30.3c-10.7 18.7 4.3 6.6 6.9 3.1 2.6-3.3 7.5-20.7 16.9-33.4z"/><linearGradient id="SVGID_13_" gradientUnits="userSpaceOnUse" x1="-36.196" y1="1304.587" x2="-76.719" y2="1326.839" gradientTransform="rotate(-30.486 -2227.927 307.672)"><stop offset=".012" stop-color="#FFF799"/><stop offset=".16" stop-color="#FFCC32"/><stop offset=".233" stop-color="#FEC232" stop-opacity=".912"/><stop offset=".405" stop-color="#FCB033" stop-opacity=".708"/><stop offset=".585" stop-color="#FAA333" stop-opacity=".493"/><stop offset=".777" stop-color="#F89B33" stop-opacity=".265"/><stop offset="1" stop-color="#F89933" stop-opacity="0"/></linearGradient><path class="st14" d="M171.3 57.4s-15.7 11.1-27.8 26.7c-13.2 17 5 7.5 8.1 4.5 3-3 8.6-20 19.7-31.2z"/><linearGradient id="SVGID_14_" gradientUnits="userSpaceOnUse" x1="156.914" y1="808.377" x2="128.155" y2="824.169" gradientTransform="rotate(-17.355 -2318.893 338.864)"><stop offset=".012" stop-color="#FFF799"/><stop offset=".16" stop-color="#FFCC32"/><stop offset=".233" stop-color="#FEC232" stop-opacity=".912"/><stop offset=".405" stop-color="#FCB033" stop-opacity=".708"/><stop offset=".585" stop-color="#FAA333" stop-opacity=".493"/><stop offset=".777" stop-color="#F89B33" stop-opacity=".265"/><stop offset="1" stop-color="#F89933" stop-opacity="0"/></linearGradient><path class="st15" d="M185.8 49.8s-16.4 7.2-22.9 16.1c-6.6 8.9 1.2 9 6.1 3.6 4.9-5.4 9.2-13.9 16.8-19.7z"/><linearGradient id="SVGID_15_" gradientUnits="userSpaceOnUse" x1="133.025" y1="109.44" x2="117.838" y2="139.086"><stop offset=".012" stop-color="#FFF799"/><stop offset=".16" stop-color="#FFCC32"/><stop offset=".233" stop-color="#FEC232" stop-opacity=".912"/><stop offset=".405" stop-color="#FCB033" stop-opacity=".708"/><stop offset=".585" stop-color="#FAA333" stop-opacity=".493"/><stop offset=".777" stop-color="#F89B33" stop-opacity=".265"/><stop offset="1" stop-color="#F89933" stop-opacity="0"/></linearGradient><path class="st16" d="M130.2 106.2s-16.1 22.5-12.2 36.9c3.3 12 5.3-19.6 12.2-36.9z"/><linearGradient id="SVGID_16_" gradientUnits="userSpaceOnUse" x1="130.623" y1="115.652" x2="121.338" y2="148.89"><stop offset=".012" stop-color="#FFF799"/><stop offset=".16" stop-color="#FFCC32"/><stop offset=".233" stop-color="#FEC232" stop-opacity=".912"/><stop offset=".405" stop-color="#FCB033" stop-opacity=".708"/><stop offset=".585" stop-color="#FAA333" stop-opacity=".493"/><stop offset=".777" stop-color="#F89B33" stop-opacity=".265"/><stop offset="1" stop-color="#F89933" stop-opacity="0"/></linearGradient><path class="st17" d="M128.6 114.6s-12.8 26.1-6.9 34.7c5.9 8.5 1.7-5.6 6.9-34.7z"/><path class="st18" d="M200.9 203c12-3.2 33.8-.5 41.2-.8-1.8-.7-5-1.4-8.2-2.5 10.1-.7 30.7 1.5 39.8-1.9 2-.7 3.5-.7 3.5-.7.2-.4-5 9.4-18.7 14.9-13.3 5.3-15 5.5-16.2 5.6.5-.6 1.2-2.8-1.3-2.5-3 .3-28 1.4-39.9 10.9-15.3 12.3-25.2 11.8-25.2 11.8s5-1.5 6.8-4.2c-2.7 1.2-20 7.3-37.5 1.5-10.3-3.4-15.7-7.3-15.7-7.3s3.8.8 6.6.4c-6.6-3.7-18.3-12.6-21.5-27.3 5.7 2.9 14.4 5.7 25.5 2.2.3-.8-3-2.2-8.9-2.2.3-.6 17-4.5 29 .7-.6-1.2-1.3-3.1-1.3-4.4 3.5 4.6 14.6 13.5 25.3 13.5 14.3 0 20.2-6.8 20.2-6.8s-1-.6-3.5-.9z"/><linearGradient id="SVGID_17_" gradientUnits="userSpaceOnUse" x1="220.828" y1="222.983" x2="118.256" y2="213.47"><stop offset="0" stop-color="#FFF" stop-opacity="0"/><stop offset="1" stop-color="#FFE5C2"/></linearGradient><path class="st19" d="M214.3 219.4s-13.1 2.3-20.8 6.2c-7.7 3.9-24.9 9.7-32.5 5.7 2.5.1 4.4-.7 5.2-1.4-23.8.2-33.1-12.2-36-18.9 8.2 3.9 16.8 0 23.4 1.8-2-1.6-3.9-2.9-6.5-3.8 4.2-.3 31.8 8.9 38.8 6.1-1.6-.2-3.5-1.2-3.5-1.2s10.4-.6 16.2-4.5c5.1-3.4 5.4-5.7 5.4-5.7s-5.9 6.8-20.2 6.8c-10.7 0-21.8-8.9-25.3-13.5 0 1.3.6 3.2 1.3 4.4-12-5.2-28.8-1.2-29-.7 5.9 0 9.3 1.4 8.9 2.2-11.1 3.5-19.8.7-25.5-2.2 3.2 14.7 14.9 23.7 21.5 27.3-2.8.5-6.6-.4-6.6-.4s5.4 3.8 15.7 7.3c17.6 5.8 34.8-.2 37.5-1.5-1.8 2.7-6.8 4.2-6.8 4.2s9.8.5 25.2-11.8c3.9-2.7 8.7-4.8 13.6-6.4z"/><path class="st0" d="M277.2 197.1c.1-.1.1-.1 0 0 .2-.2.3-.4.4-.6.7-1.2 1.1-2.2 1.2-2.5.1-1.2-1.5-5.8-2-6.2-.2-.2-5.2-.9-11.6-1.7-.3.5-1 2-.9 3.7.2 2 5.9 13 8.9 12.4 2.5-2.6 3.8-4.7 4-5.1z"/><linearGradient id="SVGID_18_" gradientUnits="userSpaceOnUse" x1="271.152" y1="415.775" x2="295.32" y2="409.274" gradientTransform="rotate(-5.377 -2134.645 356.7)"><stop offset="0" stop-color="#FFF" stop-opacity="0"/><stop offset="1" stop-color="#FFE5C2"/></linearGradient><path class="st20" d="M265.9 186.8c.7-.2 10.3 1 10.4 1.4 0 .4-.2 1.6-.8 1.7-.7.2-9.7.2-10.1.1-.3-.1-.2-3 .5-3.2z"/><path class="st0" d="M119.4 247.6c-2.8-.6-3.6-.4-3.7-.1-.1.5.1 1 1 1.6 1.1.8 1.6 1 4.6 1.7 0 0 6.1 1.5 6.7 1.7.6.1 1.9-.4 1.9-.3-1.1.7-9.2 4.6-21.1 4.6-4 0-7.4-1.9-11.4-1.9s-9.1 1.5-9.1 3.9 7 8.5 13.8 8.5c6.8 0 38.3-7.7 38.3-14.7 0-.4-.1-2.6-1.4-3-1.6-.5-4.1-1-7-1.5-8 1-9.8.2-12.6-.5z"/><path class="st21" d="M129.5 253.6c-.4-.1-5.5 2.2-11.6 3.3-4.5.9-9.2 1.4-11.6.9-5.5-1-10.9 5.7-3 4.9 7.9-.7 31.5-7.3 26.2-9.1zM121.6 81.2c.4.8 1.3.9 3.6.1 2.2-.8 18.7-12.7 16.4-13.5-2.4-.7-20.7 12.3-20 13.4zM225.6 97.3c.8-2.8-.3-5-.9-3.8-.9 1.8-1.9 4.1-2.6 4.6-.5.4-2.1.3-2.4.6-.3.3-1.9 3.9 3.4 2.9 1-.1 1.9-2.1 2.5-4.3z"/><path class="st0" d="M60.4 247.4c-3.6 1.1-8.7 2.8-14.1 5.3-.5.2-1 .5-1.4.8l-.6.3c-.3.2-.6.3-.8.5l-1.5.9c-3.4 2.1-7.1 4.8-11 7.5-9.4 6.7-14.4 13.2-19.3 18.4-1 1-5.6 4.7-5.6 5.7 0 1.9.3 4.4 4.6 4.4 7.4 0 10.4-1.5 13.5-7 4.2-11.8 21-25.4 34.3-33.8.7-.5.9-.9.7-1-.3-.2-2.5.9-4.5 1.4.1 0 3.2-2.2 5.7-3.4z"/><path class="st21" d="M39.9 258.1c-.4-.4-2.4.4-4.2 1.2-1.5 1.1-3.1 2.2-4.7 3.3-9.4 6.7-14.4 13.2-19.3 18.4-.7.8-3.3 2.9-4.7 4.4 1.1 1.5 5.7 1.5 8.7.6 4.1-1.3 6.9-8.9 10.1-12.9 3.2-4 15-14.1 14.1-15z"/><linearGradient id="SVGID_19_" gradientUnits="userSpaceOnUse" x1="181.853" y1="183.161" x2="184.372" y2="193.929"><stop offset="0" stop-color="#B22B2A"/><stop offset="1" stop-color="#F36B31" stop-opacity="0"/></linearGradient><path class="st22" d="M193.5 195.1c.6-1.1-.2-10.3-4.8-11.1-6.7-1.3-12.8 5.3-14.3 9.6 4.8-1.9 7.1-1.2 11-1 4 .3 6.1 1.1 8.1 2.5z"/><path class="st0" d="M174.5 193.4c.5-.5 7-7.5 14.1-7.5 4.8 0 6.2 8.4 4.5 10.1-4.8-3-15.8.8-18.6-2.6z"/><linearGradient id="SVGID_20_" gradientUnits="userSpaceOnUse" x1="193.207" y1="409.035" x2="198.588" y2="403.815" gradientTransform="rotate(-5.377 -2134.645 356.695)"><stop offset="0" stop-color="#FFF" stop-opacity="0"/><stop offset="1" stop-color="#FFE5C2"/></linearGradient><path class="st23" d="M184.6 187.4s3.9-1.8 5.6-.6c2.8 2 2.8 5.2 2 5.7-.7.6-9.9-2.3-7.6-5.1z"/><g><linearGradient id="SVGID_21_" gradientUnits="userSpaceOnUse" x1="521.245" y1="-77.919" x2="436.091" y2="-32.773" gradientTransform="matrix(.994 .11 -.11 .994 25.697 204.65)"><stop offset="0" stop-color="#FBAE47"/><stop offset="1" stop-color="#F37032"/></linearGradient><path class="st24" d="M438.5 202.4s73.5 37.7 114.7-16.9c.8 17.3-19.1 42.9-49.4 39.6-38.3-4.3-65.3-22.7-65.3-22.7z"/><linearGradient id="SVGID_22_" gradientUnits="userSpaceOnUse" x1="503.916" y1="-83.863" x2="436.706" y2="-6.224" gradientTransform="matrix(.994 .11 -.11 .994 25.697 204.65)"><stop offset=".012" stop-color="#FFF799"/><stop offset=".16" stop-color="#FFCC32"/><stop offset=".233" stop-color="#FEC232" stop-opacity=".912"/><stop offset=".405" stop-color="#FCB033" stop-opacity=".708"/><stop offset=".585" stop-color="#FAA333" stop-opacity=".493"/><stop offset=".777" stop-color="#F89B33" stop-opacity=".265"/><stop offset="1" stop-color="#F89933" stop-opacity="0"/></linearGradient><path class="st25" d="M550.8 190.1s-7.1 12.8-27.3 20.5c-20.2 7.7-37.4 8.4-59.1 4-21.8-4.4 24.9 16.2 42.1 10.5 17.1-5.6 36.5-15 44.3-35z"/><linearGradient id="SVGID_23_" gradientUnits="userSpaceOnUse" x1="337.124" y1="-5.732" x2="290.152" y2="-83.608" gradientTransform="matrix(.994 .11 -.11 .994 25.697 204.65)"><stop offset="0" stop-color="#FBAE47"/><stop offset="1" stop-color="#F37032"/></linearGradient><path class="st26" d="M334.6 124.7c10.7 62 10.2 94 27.9 124.3-4.2-2.1-21.8-18.8-26.6-40-.3 1.8-3.1 10.7 1.4 19.6-34.2-37.5-4.5-62.5-2.7-103.9z"/><linearGradient id="SVGID_24_" gradientUnits="userSpaceOnUse" x1="128.516" y1="-206.325" x2="285.545" y2="-166.12" gradientTransform="matrix(.994 .11 -.11 .994 25.697 204.65)"><stop offset="0" stop-color="#FBAE47"/><stop offset="1" stop-color="#F37032"/></linearGradient><path class="st27" d="M206.2 37.4c32.4-2.4 47.7 52.4 111.1 48.8 3.2-2.5-32.8-65.5-58.5-68.4-35.3-3.9-51.8 12.7-52.6 19.6z"/><linearGradient id="SVGID_25_" gradientUnits="userSpaceOnUse" x1="136.231" y1="-175.389" x2="235.037" y2="-179.846" gradientTransform="matrix(.994 .11 -.11 .994 25.697 204.65)"><stop offset="0" stop-color="#FBAE47"/><stop offset="1" stop-color="#F37032"/></linearGradient><path class="st28" d="M317.3 86.2c3.2-2.5-32.8-65.5-58.5-68.4-35-3.9-51.6 12.5-52.5 19.4 1.5-1.6 6.5-5.2 19.8-4 16.9 1.5 66.7 23.2 71.7 31-2.8 1.1-20.8-.7-43.7-14 4.3 9.6 27.1 31.3 50.6 35.8 3.9.4 8.1.5 12.6.2z"/><linearGradient id="SVGID_26_" gradientUnits="userSpaceOnUse" x1="176.904" y1="-198.094" x2="227.634" y2="-194.965" gradientTransform="matrix(.994 .11 -.11 .994 25.697 204.65)"><stop offset="0" stop-color="#FBAE47"/><stop offset="1" stop-color="#F37032"/></linearGradient><path class="st29" d="M281 31.1c-21.1-8.4-40.5-5-47.7-4.1 0 0 16.1.6 39.4 8.7 7.4 2.6 15.3 6.9 22.7 11.7-4.5-5.8-9.4-11.5-14.4-16.3z"/><linearGradient id="SVGID_27_" gradientUnits="userSpaceOnUse" x1="281.614" y1="-209.574" x2="172.879" y2="-144.521" gradientTransform="matrix(.994 .11 -.11 .994 25.697 204.65)"><stop offset="0" stop-color="#B22B2A"/><stop offset="1" stop-color="#F36B31" stop-opacity="0"/></linearGradient><path class="st30" d="M258.8 17.8c-35-3.9-51.6 12.5-52.5 19.4 2-2.3 11.2-10.2 38.4-4.2 31.6 7 42 17.6 42 17.6l-9.8-2.2s21.5 7.7 27.7 19.1c5.4 9.9-12.5 14.6-21.8 14.1 9.8 3.4 21.1 5.3 34.5 4.5 3.2-2.4-32.9-65.5-58.5-68.3z"/><linearGradient id="SVGID_28_" gradientUnits="userSpaceOnUse" x1="388.014" y1="-70.624" x2="351.842" y2="-96.612" gradientTransform="matrix(.994 .11 -.11 .994 25.697 204.65)"><stop offset="0" stop-color="#FBAE47"/><stop offset="1" stop-color="#F37032"/></linearGradient><path class="st31" d="M395.7 134.7s-6.2 22.5 9.1 42.9c15.3 20.5-40.7-25.7-40.1-31.2.6-5.5 13.8-16.3 19.7-16.3 6 0 4 1.1 11.3 4.6z"/><linearGradient id="SVGID_29_" gradientUnits="userSpaceOnUse" x1="327.871" y1="-138.567" x2="267.66" y2="-186.998" gradientTransform="matrix(.994 .11 -.11 .994 25.697 204.65)"><stop offset="0" stop-color="#FBAE47"/><stop offset="1" stop-color="#F37032"/></linearGradient><path class="st32" d="M305.6 28.3s7.4-1.6 17.4-.5c25.9 2.9 89.5 81.6 86.7 123.8-8-13.7-27.4-21.5-34.4-16.5-5.4 4 6.1 24.1 6.1 24.1s-38.9-35.7-42.8-53.4c-3.8-17.7-10.6-53.5-17.1-61.7-6.5-8.1-15.9-15.8-15.9-15.8z"/><linearGradient id="SVGID_30_" gradientUnits="userSpaceOnUse" x1="370.679" y1="-82.979" x2="217.86" y2="-205.039" gradientTransform="matrix(.994 .11 -.11 .994 25.697 204.65)"><stop offset="0" stop-color="#FBAE47"/><stop offset="1" stop-color="#F37032"/></linearGradient><path class="st33" d="M355.5 100.1c4.6-1.5 12.1 7.2 12.1 7.2S339.8 20.8 274 13.5c-25.1-2.8-42.6 6.1-42.6 6.1s9.8-.7 14.2-.2c30.6 3.4 73.9 41.9 91.7 108.9 7.7 28.9 20.8 36.9 27.5 35.5 6.6-1.5-15.6-56.3-9.3-63.7z"/><linearGradient id="SVGID_31_" gradientUnits="userSpaceOnUse" x1="459.917" y1="-50.081" x2="312.577" y2="-161.472" gradientTransform="matrix(.994 .11 -.11 .994 25.697 204.65)"><stop offset="0" stop-color="#FBAE47"/><stop offset="1" stop-color="#F37032"/></linearGradient><path class="st34" d="M337.2 128.3c-17.8-67-61.2-105.6-91.7-108.9 29.6.6 87.5 44.5 77.5 58.9 8.2 13 84.8 132.3 167.3 141.4 74.9 8.3 97.9-60.6 98.6-66.9 1.3 35.3-27.8 155.7-143.9 142.8-66.7-7.4-100.1-138.4-107.8-167.3z"/><linearGradient id="SVGID_32_" gradientUnits="userSpaceOnUse" x1="271.012" y1="-121.043" x2="317.028" y2="-35.054" gradientTransform="matrix(.994 .11 -.11 .994 25.697 204.65)"><stop offset="0" stop-color="#B22B2A"/><stop offset="1" stop-color="#F36B31" stop-opacity="0"/></linearGradient><path class="st35" d="M334.6 124.7c-1.7 39.2-28.5 63.7-2.4 97.9-7.6-11-9-26.5-8.6-29.8.4-3.4 3.7.8 3.7.8s-.4-25.7 5.8-28.5c4.2-1.8 8.1 9.5 10.2 17.2-2.3-16.1-4.7-34.8-8.7-57.6z"/><linearGradient id="SVGID_33_" gradientUnits="userSpaceOnUse" x1="307.792" y1="-14.262" x2="311.196" y2="-39.729" gradientTransform="matrix(.994 .11 -.11 .994 25.697 204.65)"><stop offset="0" stop-color="#FBAE47"/><stop offset="1" stop-color="#F37032"/></linearGradient><path class="st36" d="M335.9 208.9c0 .2.1.3.1.5-.4-1.6-1-4.3-1.2-5.3-.2-1.5-.5-3.5-.5-3.5s-4.2 9.1-1.7 17.4c2.2 7.4 4.1 9.8 4.5 10.3 0 0 0 .1.1.1-4.4-8.8-1.7-17.7-1.3-19.5z"/><linearGradient id="SVGID_34_" gradientUnits="userSpaceOnUse" x1="564.225" y1="-57.203" x2="356.673" y2="-6.983" gradientTransform="matrix(.994 .11 -.11 .994 25.697 204.65)"><stop offset="0" stop-color="#FBAE47"/><stop offset="1" stop-color="#F37032"/></linearGradient><path class="st37" d="M589 152.8c-.7 6.4-23.8 75.2-98.6 66.9-18.1-2-36-9.3-52.8-19.7-4.1-1.6-13.5-3-16.5-.5-1.5 13.9 39.8 53.4 83.2 49.4-23.5 18.8-47.9 8.3-57.7 16.2 2.3 6.4 16.6 17 26.3 9.3 27.4 12.9 61.9-.6 87-30.4 22.5-33.3 29.8-73.2 29.1-91.2z"/><linearGradient id="SVGID_35_" gradientUnits="userSpaceOnUse" x1="473.899" y1="-6.214" x2="401.12" y2="-8.814" gradientTransform="matrix(.994 .11 -.11 .994 25.697 204.65)"><stop offset=".012" stop-color="#FFF799"/><stop offset=".16" stop-color="#FFCC32"/><stop offset=".233" stop-color="#FEC232" stop-opacity=".912"/><stop offset=".405" stop-color="#FCB033" stop-opacity=".708"/><stop offset=".585" stop-color="#FAA333" stop-opacity=".493"/><stop offset=".777" stop-color="#F89B33" stop-opacity=".265"/><stop offset="1" stop-color="#F89933" stop-opacity="0"/></linearGradient><path class="st38" d="M502.1 250s-13.2 2-32.6-4.9c-15.5-5.5-20.3-10.5-23.9-11.6-1.5-.4-1.9 1.7-4.6 2-9.3 1 2.6 19.5 27.8 20 25.3.4 33.3-5.5 33.3-5.5z"/><linearGradient id="SVGID_36_" gradientUnits="userSpaceOnUse" x1="389.957" y1="-96.323" x2="389.957" y2="-96.323" gradientTransform="matrix(.994 .11 -.11 .994 25.697 204.65)"><stop offset=".012" stop-color="#FFF799"/><stop offset=".16" stop-color="#FFCC32"/><stop offset=".233" stop-color="#FEC232" stop-opacity=".912"/><stop offset=".405" stop-color="#FCB033" stop-opacity=".708"/><stop offset=".585" stop-color="#FAA333" stop-opacity=".493"/><stop offset=".777" stop-color="#F89B33" stop-opacity=".265"/><stop offset="1" stop-color="#F89933" stop-opacity="0"/></linearGradient><linearGradient id="SVGID_37_" gradientUnits="userSpaceOnUse" x1="369.421" y1="-102.898" x2="294.578" y2="-206.878" gradientTransform="matrix(.994 .11 -.11 .994 25.697 204.65)"><stop offset=".012" stop-color="#FFF799"/><stop offset=".16" stop-color="#FFCC32"/><stop offset=".233" stop-color="#FEC232" stop-opacity=".912"/><stop offset=".405" stop-color="#FCB033" stop-opacity=".708"/><stop offset=".585" stop-color="#FAA333" stop-opacity=".493"/><stop offset=".777" stop-color="#F89B33" stop-opacity=".265"/><stop offset="1" stop-color="#F89933" stop-opacity="0"/></linearGradient><path class="st40" d="M409.4 148.6s-.8-17.9-14.4-42.4c-16.4-29.5-28-45.5-33.8-48.7-5.8-3.2-9.1 25.4 8.3 40.1 17.4 14.8 33.5 32.3 39.9 51z"/><linearGradient id="SVGID_38_" gradientUnits="userSpaceOnUse" x1="367.959" y1="-109.381" x2="301.217" y2="-159.995" gradientTransform="matrix(.994 .11 -.11 .994 25.697 204.65)"><stop offset=".012" stop-color="#FFF799"/><stop offset=".16" stop-color="#FFCC32"/><stop offset=".233" stop-color="#FEC232" stop-opacity=".912"/><stop offset=".405" stop-color="#FCB033" stop-opacity=".708"/><stop offset=".585" stop-color="#FAA333" stop-opacity=".493"/><stop offset=".777" stop-color="#F89B33" stop-opacity=".265"/><stop offset="1" stop-color="#F89933" stop-opacity="0"/></linearGradient><path class="st41" d="M405 142.2s-2.3-12.1-12.9-25.8c-15.6-20.2-41.2-45.1-46.7-40.6-2.4 1.9-4.7 12 2.2 20.4 9.1 10.9 29.2 20.9 37.1 26 14 9 18.9 16.9 20.3 20z"/><linearGradient id="SVGID_39_" gradientUnits="userSpaceOnUse" x1="455.76" y1="-2.673" x2="403.859" y2="-1.805" gradientTransform="matrix(.994 .11 -.11 .994 25.697 204.65)"><stop offset=".012" stop-color="#FFF799"/><stop offset=".16" stop-color="#FFCC32"/><stop offset=".233" stop-color="#FEC232" stop-opacity=".912"/><stop offset=".405" stop-color="#FCB033" stop-opacity=".708"/><stop offset=".585" stop-color="#FAA333" stop-opacity=".493"/><stop offset=".777" stop-color="#F89B33" stop-opacity=".265"/><stop offset="1" stop-color="#F89933" stop-opacity="0"/></linearGradient><path class="st42" d="M441.9 240.2c12.3 1.9 31.6 16 44.2 16 0 0-8.1 2.7-28.4 2.1-20.3-.6-27.4-5.6-24.9-12.3.6-1.6 5-6.5 9.1-5.8z"/><linearGradient id="SVGID_40_" gradientUnits="userSpaceOnUse" x1="493.921" y1="22.571" x2="321.796" y2="-54.777" gradientTransform="matrix(.994 .11 -.11 .994 25.697 204.65)"><stop offset="0" stop-color="#FBAE47"/><stop offset="1" stop-color="#F37032"/></linearGradient><path class="st43" d="M324.8 93.7c28.7 58.9 23.1 238 162 216.4-47-2.8-77.4-62.3-72.2-64.6 5.2-2.3 12.1 3 15.1 6.9 9.1-35.9-67.3-86.7-104.9-158.7z"/><linearGradient id="SVGID_41_" gradientUnits="userSpaceOnUse" x1="281.932" y1="-121.564" x2="341.494" y2="-26.148" gradientTransform="matrix(.994 .11 -.11 .994 25.697 204.65)"><stop offset="0" stop-color="#B22B2A"/><stop offset="1" stop-color="#F36B31" stop-opacity="0"/></linearGradient><path class="st44" d="M363.3 229.2c.6-6.9 2.4-16.2 8.3-18.8-2.5-20-24.6-53.4-35.8-83.9 7.7 30 14.5 68.5 27.5 102.7z"/></g></svg>