<svg width="24" height="24" xmlns="http://www.w3.org/2000/svg"><path d="M10.95 21.02H8.772L6.11 22.796A2 2 0 0 1 3 21.13v-4.596a2 2 0 0 1 .89-1.664L7 12.798V9.52a10 10 0 0 1 1.264-4.866l1.989-3.571a2 2 0 0 1 3.494 0l1.99 3.571A10 10 0 0 1 17 9.52v3.28l3.11 2.072a2 2 0 0 1 .89 1.664v4.596a2 2 0 0 1-3.11 1.665l-2.662-1.776H12.95V23a1 1 0 0 1-2 0v-1.98zm2-2H15v-9.5a8 8 0 0 0-1.01-3.894L12 2.056l-1.99 3.57A8 8 0 0 0 9 9.52v9.501h1.95V17a1 1 0 1 1 2 0v2.02zM7 15.202l-2 1.333v4.596l2-1.333v-4.596zm10 4.596l2 1.333v-4.596l-2-1.333v4.596zM12 10a1 1 0 1 1 0-2 1 1 0 0 1 0 2z" fill="#000" fill-rule="nonzero"/></svg>
