<svg width="24" height="24" xmlns="http://www.w3.org/2000/svg"><path d="M2.382 8H1a1 1 0 0 1-.857-1.514C3.013 1.7 7.079-.154 11.403.512 14.755 1.028 18 3.19 18 5c0 .83.097.955.98 1.286.349.13 2.105.688 2.336.765 1.888.63 2.548 2.23 2.165 4.145-.262 1.308-1.04 2.777-1.774 3.511-.901.902-1.592.902-3.377.49-.611-.141-.957-.197-1.33-.197-2.657 0-4 2.15-4 7a1 1 0 0 1-1 1c-2.897 0-5.77-1.077-8.6-3.2a1 1 0 0 1-.294-1.247L4.382 16H3a1 1 0 0 1-.894-1.447L3.382 12H2a1 1 0 0 1-.894-1.447L2.382 8zm8.64 12.95C11.255 15.803 13.239 13 17 13c.564 0 1.03.075 1.78.248 1.103.254 1.303.254 1.513.045.453-.453 1.042-1.565 1.226-2.49.204-1.017-.03-1.586-.835-1.854-.186-.062-2.001-.639-2.405-.79C16.652 7.549 16 6.71 16 5c0-.524-2.406-2.128-4.902-2.512-3.051-.47-5.905.58-8.204 3.512H4a1 1 0 0 1 .894 1.447L3.618 10H5a1 1 0 0 1 .894 1.447L4.618 14H6a1 1 0 0 1 .894 1.447l-1.618 3.237c1.937 1.324 3.85 2.075 5.747 2.267z" fill="#000" fill-rule="nonzero"/></svg>
