<svg width="24" height="24" xmlns="http://www.w3.org/2000/svg"><path d="M17.804 22.307a4.816 4.816 0 0 0-.998-.251c-.15-.416-.295-.815-.436-1.196 1.44-1.234 3.63-3.839 3.63-6.784 0-2.438-2.13-4.234-6.388-5.388-2.406-.422-4.34.585-5.802 3.023-2.194 3.657-6.875.708-3.218 5.827 2.824 3.954 7.123 4.542 9.451 4.313l.101.475c-.806.31-1.501.843-2.086 1.597-3.155-.33-6.817-2.035-9.094-5.222-2.467-3.454-2.33-5.695.775-6.642-.016.005.61-.18.775-.233.246-.08.444-.16.62-.248.406-.205.707-.473.96-.896 1.87-3.115 4.6-4.537 7.864-3.964l.177.04C19.163 8.12 22 10.513 22 14.076c0 3.146-2.023 6.387-4.196 8.23zm.475-1.942c1.65.562 3.058 1.774 4.221 3.635H20c-1-1.333-2.333-2-4-2-1.667 0-3 .667-4 2H9.5c.732-1.17 1.56-2.085 2.485-2.742l-.292-1.07c-1.592-.358-2.743-1.462-3.179-3.203-.63-2.524.455-4.78 2.895-6.491a2.5 2.5 0 0 1 3.891 1.568c.992-.01 1.914.53 2.398 1.498.637 1.275.28 2.227-.723 3.324l.041.085.068.152c.34.85.739 1.931 1.195 3.244zm-4.552-.002A7.024 7.024 0 0 1 16.051 20c-.3-.802-.575-1.514-.824-2.136-.454-.91-.454-1.591 0-2.046.682-.682.854-1.02.682-1.363-.172-.345-.682-.682-1.364 0-.404.404-.809-.271-1.213-2.026a.5.5 0 0 0-.774-.298c-1.813 1.271-2.514 2.728-2.103 4.369.333 1.334 1.278 1.934 2.834 1.8l.438 2.063zM17.5 24h2-2zm-4.768 0H14.5h-1.768zM3.5 5c0-.685.187-1.309.605-1.823.133-.164.268-.297.409-.409C4.738 1.075 6.162 0 8 0c2.037 0 3.66.964 4.11 3.085.095.446.118.9.071 1.344L14 8.018c-1.333-.012-2.5.149-3.5.482-1 .333-2 1-3 2L6.366 8.018C4.708 7.725 3.5 6.865 3.5 5zm4.26 1.14L9 8.5l2.5-1-1.41-2.81c.123-.368.151-.777.064-1.19C9.9 2.316 9 2 8 2s-1.625.501-1.5 1.5c.125 1-1 .343-1 1.5 0 .86 1.297 1.124 2.26 1.14z" fill="#020202" fill-rule="nonzero"/></svg>
