<svg width="24" height="24" xmlns="http://www.w3.org/2000/svg"><path d="M3.055 13a9.008 9.008 0 0 0 6.671 7.71A16.331 16.331 0 0 1 7.053 13H3.055zm0-2H7.05a16.3 16.3 0 0 1 2.676-7.71A9.008 9.008 0 0 0 3.055 11zm17.89 0a9.008 9.008 0 0 0-6.671-7.71A16.331 16.331 0 0 1 16.947 11h3.998zm0 2H16.95a16.3 16.3 0 0 1-2.676 7.71A9.008 9.008 0 0 0 20.945 13zm-11.89-2h5.887A14.3 14.3 0 0 0 12 3.55 14.288 14.288 0 0 0 9.055 11zm5.89 2H9.058A14.3 14.3 0 0 0 12 20.45 14.288 14.288 0 0 0 14.945 13zM12 23C5.925 23 1 18.075 1 12S5.925 1 12 1s11 4.925 11 11-4.925 11-11 11z" fill="#000" fill-rule="nonzero"/></svg>
