<svg width="24" height="24" xmlns="http://www.w3.org/2000/svg"><path d="M0 7c0-2.882 5.647-5 12-5s12 2.118 12 5v10h-2c0-.322-.803-.857-2.493-1.28-1.871-.468-4.52-.72-7.507-.72s-5.636.252-7.507.72C2.803 16.143 2 16.678 2 17H0V7zm22 0c0-.42-.911-1.18-2.601-1.814C17.416 4.443 14.759 4 12 4c-2.76 0-5.416.443-7.399 1.186C2.911 5.82 2 6.58 2 7v7.462C4.06 13.458 7.589 13 12 13s7.94.458 10 1.462V7zM9 22c-4.481 0-9-2.26-9-5V7c0-1.333 2-1.333 2 0 0 .313.735 1.071 1.97 1.727C5.45 9.513 7.29 10 9 10a1 1 0 0 1 1 1v10a1 1 0 0 1-1 1zM8 11.955c-2.214-.195-4.455-1.009-6-2.088V17c0 1.14 2.85 2.673 6 2.955v-8zM15 22a1 1 0 0 1-1-1V11a1 1 0 0 1 1-1c1.71 0 3.55-.487 5.03-1.273C21.266 8.07 22 7.313 22 7c0-1.333 2-1.333 2 0v10c0 2.74-4.519 5-9 5zm1-10.045v8c3.15-.282 6-1.815 6-2.955V9.867c-1.545 1.08-3.786 1.893-6 2.088z" fill="#000" fill-rule="nonzero"/></svg>
