<?xml version="1.0" encoding="utf-8"?>
<!-- Generator: Adobe Illustrator 16.0.0, SVG Export Plug-In . SVG Version: 6.00 Build 0)  -->
<!DOCTYPE svg PUBLIC "-//W3C//DTD SVG 1.1//EN" "http://www.w3.org/Graphics/SVG/1.1/DTD/svg11.dtd">
<svg version="1.1" id="HU_Download_on_the_App_Store"
	 xmlns="http://www.w3.org/2000/svg" xmlns:xlink="http://www.w3.org/1999/xlink" x="0px" y="0px" width="135px" height="40px"
	 viewBox="0 0 135 40" enable-background="new 0 0 135 40" xml:space="preserve">
<g>
	<path fill="#A6A6A6" d="M130.197,40H4.729C2.122,40,0,37.872,0,35.267V4.726C0,2.12,2.122,0,4.729,0h125.468
		C132.803,0,135,2.12,135,4.726v30.541C135,37.872,132.803,40,130.197,40L130.197,40z"/>
	<path d="M134.032,35.268c0,2.116-1.714,3.83-3.834,3.83H4.729c-2.119,0-3.839-1.714-3.839-3.83V4.725
		c0-2.115,1.72-3.835,3.839-3.835h125.468c2.121,0,3.834,1.72,3.834,3.835L134.032,35.268L134.032,35.268z"/>
	<g>
		<g>
			<path fill="#FFFFFF" d="M30.128,19.784c-0.029-3.223,2.639-4.791,2.761-4.864c-1.511-2.203-3.853-2.504-4.676-2.528
				c-1.967-0.207-3.875,1.177-4.877,1.177c-1.022,0-2.565-1.157-4.228-1.123c-2.14,0.033-4.142,1.272-5.24,3.196
				c-2.266,3.923-0.576,9.688,1.595,12.859c1.086,1.553,2.355,3.287,4.016,3.226c1.625-0.067,2.232-1.036,4.193-1.036
				c1.943,0,2.513,1.036,4.207,0.997c1.744-0.028,2.842-1.56,3.89-3.127c1.255-1.78,1.759-3.533,1.779-3.623
				C33.507,24.924,30.161,23.647,30.128,19.784z"/>
			<path fill="#FFFFFF" d="M26.928,10.306c0.874-1.093,1.472-2.58,1.306-4.089c-1.265,0.056-2.847,0.875-3.758,1.944
				c-0.806,0.942-1.526,2.486-1.34,3.938C24.557,12.205,26.016,11.382,26.928,10.306z"/>
		</g>
	</g>
	<g>
		<path fill="#FFFFFF" d="M50.383,30.648h-1.587l-0.87-2.732h-3.022l-0.828,2.732h-1.545l2.995-9.301h1.849L50.383,30.648z
			 M47.665,26.771l-0.787-2.429c-0.083-0.248-0.239-0.832-0.469-1.753h-0.028c-0.092,0.396-0.239,0.98-0.441,1.753l-0.773,2.429
			H47.665z"/>
		<path fill="#FFFFFF" d="M58.098,27.212c0,1.142-0.309,2.043-0.925,2.705c-0.552,0.589-1.237,0.883-2.056,0.883
			c-0.883,0-1.518-0.317-1.904-0.952h-0.028v3.533h-1.49v-7.231c0-0.718-0.019-1.453-0.055-2.208h1.311l0.083,1.062h0.028
			c0.497-0.8,1.251-1.2,2.263-1.2c0.791,0,1.451,0.312,1.98,0.938C57.833,25.368,58.098,26.191,58.098,27.212z M56.58,27.268
			c0-0.653-0.147-1.191-0.442-1.614c-0.322-0.442-0.754-0.663-1.297-0.663c-0.368,0-0.702,0.122-1,0.366
			c-0.299,0.243-0.495,0.563-0.587,0.959c-0.046,0.184-0.069,0.336-0.069,0.455v1.118c0,0.487,0.149,0.899,0.449,1.235
			c0.299,0.336,0.688,0.503,1.166,0.503c0.561,0,0.998-0.216,1.311-0.648C56.423,28.546,56.58,27.976,56.58,27.268z"/>
		<path fill="#FFFFFF" d="M65.826,27.212c0,1.142-0.309,2.043-0.925,2.705c-0.552,0.589-1.237,0.883-2.056,0.883
			c-0.883,0-1.518-0.317-1.904-0.952h-0.028v3.533h-1.49v-7.231c0-0.718-0.019-1.453-0.055-2.208h1.311l0.083,1.062h0.028
			c0.497-0.8,1.251-1.2,2.263-1.2c0.791,0,1.451,0.312,1.98,0.938C65.561,25.368,65.826,26.191,65.826,27.212z M64.308,27.268
			c0-0.653-0.147-1.191-0.442-1.614c-0.322-0.442-0.754-0.663-1.297-0.663c-0.368,0-0.702,0.122-1,0.366
			c-0.299,0.243-0.495,0.563-0.587,0.959c-0.046,0.184-0.069,0.336-0.069,0.455v1.118c0,0.487,0.149,0.899,0.449,1.235
			c0.299,0.336,0.688,0.503,1.166,0.503c0.561,0,0.998-0.216,1.311-0.648C64.151,28.546,64.308,27.976,64.308,27.268z"/>
		<path fill="#FFFFFF" d="M74.479,28.04c0,0.792-0.275,1.436-0.826,1.933c-0.605,0.543-1.451,0.813-2.533,0.813
			c-1.002,0-1.805-0.193-2.411-0.579l0.344-1.242c0.654,0.396,1.371,0.594,2.154,0.594c0.561,0,0.998-0.127,1.311-0.381
			c0.314-0.253,0.471-0.592,0.471-1.016c0-0.378-0.129-0.695-0.387-0.954c-0.258-0.258-0.686-0.497-1.283-0.719
			c-1.629-0.607-2.443-1.497-2.443-2.668c0-0.765,0.285-1.391,0.855-1.879c0.57-0.489,1.33-0.733,2.277-0.733
			c0.846,0,1.551,0.147,2.111,0.441l-0.373,1.215c-0.523-0.285-1.117-0.428-1.779-0.428c-0.525,0-0.934,0.129-1.229,0.387
			c-0.248,0.229-0.373,0.51-0.373,0.842c0,0.368,0.143,0.671,0.428,0.91c0.248,0.221,0.699,0.46,1.354,0.718
			c0.801,0.322,1.389,0.699,1.766,1.132S74.479,27.396,74.479,28.04z"/>
		<path fill="#FFFFFF" d="M79.529,25.06h-1.643v3.257c0,0.828,0.289,1.242,0.869,1.242c0.268,0,0.488-0.023,0.662-0.069l0.041,1.132
			c-0.293,0.11-0.68,0.165-1.158,0.165c-0.59,0-1.049-0.179-1.381-0.538c-0.33-0.358-0.496-0.961-0.496-1.808V25.06h-0.98v-1.118
			h0.98v-1.228l1.463-0.442v1.67h1.643V25.06z"/>
		<path fill="#FFFFFF" d="M87.09,27.24c0,1.03-0.293,1.876-0.883,2.539C85.592,30.46,84.771,30.8,83.75,30.8
			c-0.984,0-1.768-0.326-2.352-0.979s-0.877-1.477-0.877-2.47c0-1.04,0.301-1.891,0.904-2.554c0.602-0.662,1.414-0.993,2.436-0.993
			c0.984,0,1.775,0.326,2.373,0.979C86.805,25.418,87.09,26.237,87.09,27.24z M85.545,27.288c0-0.618-0.133-1.148-0.4-1.592
			c-0.312-0.535-0.76-0.803-1.338-0.803c-0.6,0-1.055,0.268-1.367,0.803c-0.266,0.443-0.4,0.983-0.4,1.619
			c0,0.619,0.135,1.149,0.4,1.592c0.322,0.535,0.773,0.803,1.354,0.803c0.57,0,1.016-0.272,1.338-0.816
			C85.406,28.441,85.545,27.906,85.545,27.288z"/>
		<path fill="#FFFFFF" d="M92.279,25.253c-0.146-0.028-0.303-0.042-0.469-0.042c-0.525,0-0.93,0.198-1.215,0.594
			c-0.248,0.35-0.373,0.791-0.373,1.325v3.519h-1.49l0.014-4.596c0-0.772-0.018-1.477-0.055-2.111h1.297l0.055,1.283h0.043
			c0.156-0.441,0.404-0.795,0.744-1.062c0.332-0.239,0.689-0.358,1.076-0.358c0.139,0,0.264,0.009,0.373,0.027V25.253z"/>
		<path fill="#FFFFFF" d="M99.068,26.978c0,0.267-0.02,0.492-0.055,0.677h-4.473c0.02,0.662,0.236,1.168,0.65,1.518
			c0.377,0.312,0.863,0.469,1.461,0.469c0.664,0,1.266-0.105,1.809-0.317l0.234,1.035c-0.635,0.276-1.385,0.414-2.25,0.414
			c-1.039,0-1.855-0.306-2.449-0.918c-0.592-0.611-0.889-1.433-0.889-2.463c0-1.012,0.275-1.854,0.828-2.525
			c0.578-0.718,1.361-1.076,2.346-1.076c0.965,0,1.697,0.358,2.193,1.076C98.871,25.437,99.068,26.141,99.068,26.978z
			 M97.646,26.591c0.01-0.441-0.088-0.823-0.289-1.145c-0.258-0.414-0.654-0.621-1.188-0.621c-0.488,0-0.883,0.202-1.186,0.606
			c-0.25,0.322-0.396,0.709-0.443,1.159H97.646z"/>
		<path fill="#FFFFFF" d="M103.596,27.475h-3.438v-1.049h3.438V27.475z"/>
		<path fill="#FFFFFF" d="M111.57,27.198c0,1.132-0.312,2.033-0.938,2.705c-0.553,0.598-1.229,0.896-2.029,0.896
			c-0.957,0-1.66-0.396-2.111-1.187h-0.027l-0.084,1.035h-1.27c0.037-0.543,0.057-1.146,0.057-1.808v-7.977h1.49v4.058h0.027
			c0.441-0.746,1.154-1.118,2.139-1.118c0.811,0,1.471,0.311,1.98,0.932S111.57,26.177,111.57,27.198z M110.053,27.254
			c0-0.653-0.146-1.188-0.441-1.601c-0.322-0.451-0.76-0.677-1.311-0.677c-0.369,0-0.699,0.12-0.994,0.358
			c-0.295,0.24-0.492,0.558-0.594,0.953c-0.037,0.156-0.055,0.312-0.055,0.469v1.173c0,0.46,0.154,0.855,0.461,1.187
			c0.309,0.332,0.693,0.497,1.152,0.497c0.562,0,1-0.211,1.312-0.635C109.896,28.556,110.053,27.98,110.053,27.254z"/>
		<path fill="#FFFFFF" d="M119.367,27.24c0,1.03-0.293,1.876-0.883,2.539c-0.615,0.681-1.436,1.021-2.457,1.021
			c-0.984,0-1.768-0.326-2.352-0.979s-0.877-1.477-0.877-2.47c0-1.04,0.301-1.891,0.904-2.554c0.602-0.662,1.414-0.993,2.436-0.993
			c0.984,0,1.775,0.326,2.373,0.979C119.082,25.418,119.367,26.237,119.367,27.24z M117.822,27.288c0-0.618-0.133-1.148-0.4-1.592
			c-0.312-0.535-0.76-0.803-1.338-0.803c-0.6,0-1.055,0.268-1.367,0.803c-0.266,0.443-0.4,0.983-0.4,1.619
			c0,0.619,0.135,1.149,0.4,1.592c0.322,0.535,0.773,0.803,1.354,0.803c0.57,0,1.016-0.272,1.338-0.816
			C117.684,28.441,117.822,27.906,117.822,27.288z M118.029,21.127l-1.67,2h-1.035l1.188-2H118.029z"/>
		<path fill="#FFFFFF" d="M122.5,30.648h-1.49v-9.784h1.49V30.648z"/>
	</g>
	<g>
		<g>
			<path fill="#FFFFFF" d="M47.391,16.533h-3.715V9.996h1.048v5.655h2.667V16.533z"/>
			<path fill="#FFFFFF" d="M52.678,13.953c0,0.188-0.014,0.346-0.039,0.475h-3.143c0.013,0.466,0.164,0.821,0.455,1.067
				c0.266,0.22,0.608,0.33,1.028,0.33c0.466,0,0.89-0.074,1.271-0.223l0.164,0.728c-0.446,0.194-0.973,0.291-1.581,0.291
				c-0.73,0-1.305-0.215-1.722-0.645s-0.625-1.007-0.625-1.731c0-0.711,0.193-1.303,0.582-1.775
				c0.407-0.504,0.956-0.756,1.648-0.756c0.679,0,1.193,0.252,1.542,0.756C52.539,12.87,52.678,13.365,52.678,13.953z
				 M51.678,13.682c0.007-0.311-0.062-0.579-0.203-0.805c-0.182-0.291-0.459-0.437-0.834-0.437c-0.343,0-0.621,0.142-0.835,0.427
				c-0.174,0.227-0.277,0.498-0.31,0.815H51.678z"/>
			<path fill="#FFFFFF" d="M56.577,12.604h-1.154v2.29c0,0.582,0.204,0.873,0.611,0.873c0.188,0,0.343-0.016,0.466-0.049
				l0.028,0.795c-0.207,0.078-0.479,0.117-0.814,0.117c-0.414,0-0.737-0.126-0.97-0.378c-0.233-0.252-0.35-0.676-0.35-1.271v-2.377
				h-0.688v-0.786h0.688v-0.863l1.028-0.31v1.173h1.154V12.604z"/>
			<path fill="#FFFFFF" d="M62.33,14.137c0,0.725-0.207,1.319-0.62,1.785c-0.432,0.479-1.006,0.718-1.723,0.718
				c-0.69,0-1.24-0.229-1.65-0.689c-0.41-0.459-0.614-1.038-0.614-1.736c0-0.73,0.211-1.329,0.634-1.794
				c0.422-0.466,0.992-0.698,1.708-0.698c0.69,0,1.245,0.229,1.665,0.688C62.129,12.857,62.33,13.433,62.33,14.137z M59.632,10.626
				c0,0.155-0.05,0.285-0.148,0.388c-0.1,0.104-0.223,0.155-0.37,0.155c-0.154,0-0.28-0.053-0.38-0.16
				c-0.1-0.107-0.148-0.234-0.148-0.383s0.051-0.276,0.153-0.383c0.103-0.106,0.23-0.16,0.385-0.16c0.147,0,0.269,0.054,0.365,0.16
				C59.584,10.35,59.632,10.477,59.632,10.626z M61.243,14.171c0-0.435-0.094-0.808-0.28-1.119
				c-0.219-0.376-0.531-0.564-0.937-0.564c-0.419,0-0.738,0.188-0.957,0.564c-0.187,0.311-0.28,0.69-0.28,1.138
				c0,0.435,0.094,0.808,0.28,1.119c0.226,0.376,0.541,0.564,0.947,0.564c0.398,0,0.712-0.191,0.937-0.574
				C61.146,14.982,61.243,14.606,61.243,14.171z M61.457,10.626c0,0.155-0.05,0.285-0.149,0.388c-0.1,0.104-0.226,0.155-0.38,0.155
				c-0.146,0-0.271-0.053-0.369-0.16c-0.1-0.107-0.149-0.234-0.149-0.383s0.051-0.276,0.153-0.383
				c0.103-0.106,0.228-0.16,0.375-0.16c0.154,0,0.279,0.054,0.375,0.16C61.409,10.35,61.457,10.477,61.457,10.626z"/>
			<path fill="#FFFFFF" d="M64.928,16.533H63.88V9.656h1.048V16.533z"/>
			<path fill="#FFFFFF" d="M69.166,12.604h-1.154v2.29c0,0.582,0.204,0.873,0.611,0.873c0.188,0,0.343-0.016,0.466-0.049
				l0.027,0.795c-0.207,0.078-0.478,0.117-0.814,0.117c-0.414,0-0.737-0.126-0.97-0.378c-0.233-0.252-0.35-0.676-0.35-1.271v-2.377
				h-0.688v-0.786h0.688v-0.863l1.028-0.31v1.173h1.154V12.604z"/>
			<path fill="#FFFFFF" d="M74.715,16.533h-1.049v-2.68c0-0.845-0.316-1.268-0.949-1.268c-0.486,0-0.818,0.245-1,0.735
				c-0.031,0.103-0.049,0.229-0.049,0.377v2.835h-1.047V9.656h1.047v2.841h0.02c0.33-0.517,0.803-0.775,1.416-0.775
				c0.434,0,0.793,0.142,1.078,0.427c0.355,0.355,0.533,0.883,0.533,1.581V16.533z"/>
			<path fill="#FFFFFF" d="M80.439,13.953c0,0.188-0.014,0.346-0.039,0.475h-3.143c0.012,0.466,0.164,0.821,0.455,1.067
				c0.266,0.22,0.607,0.33,1.027,0.33c0.467,0,0.891-0.074,1.271-0.223l0.164,0.728c-0.445,0.194-0.973,0.291-1.58,0.291
				c-0.73,0-1.305-0.215-1.723-0.645c-0.416-0.43-0.625-1.007-0.625-1.731c0-0.711,0.193-1.303,0.582-1.775
				c0.408-0.504,0.957-0.756,1.648-0.756c0.68,0,1.193,0.252,1.543,0.756C80.299,12.87,80.439,13.365,80.439,13.953z M79.439,13.682
				c0.006-0.311-0.062-0.579-0.203-0.805c-0.182-0.291-0.459-0.437-0.834-0.437c-0.344,0-0.621,0.142-0.836,0.427
				c-0.174,0.227-0.277,0.498-0.309,0.815H79.439z"/>
			<path fill="#FFFFFF" d="M84.338,12.604h-1.154v2.29c0,0.582,0.203,0.873,0.611,0.873c0.188,0,0.342-0.016,0.465-0.049
				l0.029,0.795c-0.207,0.078-0.479,0.117-0.814,0.117c-0.414,0-0.738-0.126-0.971-0.378c-0.232-0.252-0.35-0.676-0.35-1.271v-2.377
				h-0.688v-0.786h0.688v-0.863l1.029-0.31v1.173h1.154V12.604z"/>
			<path fill="#FFFFFF" d="M90.1,14.137c0,0.725-0.207,1.319-0.621,1.785c-0.434,0.479-1.01,0.718-1.727,0.718
				c-0.693,0-1.244-0.229-1.654-0.689c-0.41-0.459-0.615-1.038-0.615-1.736c0-0.73,0.211-1.329,0.635-1.794s0.994-0.698,1.711-0.698
				c0.693,0,1.248,0.229,1.67,0.688C89.898,12.857,90.1,13.433,90.1,14.137z M89.012,14.171c0-0.435-0.094-0.808-0.281-1.119
				c-0.219-0.376-0.533-0.564-0.939-0.564c-0.422,0-0.742,0.188-0.961,0.564c-0.188,0.311-0.281,0.69-0.281,1.138
				c0,0.435,0.094,0.808,0.281,1.119c0.227,0.376,0.543,0.564,0.951,0.564c0.4,0,0.713-0.191,0.939-0.574
				C88.916,14.982,89.012,14.606,89.012,14.171z M88.266,9.782l-1.029,1.368h-0.629l0.717-1.368H88.266z M89.75,9.782l-1.029,1.368
				h-0.629l0.717-1.368H89.75z"/>
			<path fill="#FFFFFF" d="M98.004,16.533h-0.941l-0.076-0.543h-0.029c-0.324,0.433-0.783,0.65-1.377,0.65
				c-0.447,0-0.807-0.143-1.078-0.427c-0.246-0.258-0.367-0.579-0.367-0.96c0-0.576,0.24-1.015,0.723-1.319
				c0.48-0.304,1.158-0.453,2.031-0.446V13.4c0-0.621-0.326-0.931-0.977-0.931c-0.465,0-0.875,0.117-1.23,0.349l-0.213-0.688
				c0.439-0.271,0.979-0.407,1.617-0.407c1.234,0,1.85,0.65,1.85,1.95v1.736C97.936,15.88,97.959,16.255,98.004,16.533z
				 M96.918,14.913v-0.727c-1.158-0.02-1.736,0.297-1.736,0.95c0,0.246,0.068,0.43,0.203,0.553c0.135,0.123,0.305,0.184,0.51,0.184
				c0.232,0,0.445-0.073,0.643-0.218c0.195-0.146,0.316-0.331,0.361-0.558C96.912,15.046,96.918,14.984,96.918,14.913z"/>
			<path fill="#FFFFFF" d="M103.135,16.533h-3.84v-0.611l1.881-2.473c0.117-0.155,0.33-0.411,0.641-0.767v-0.019h-2.338v-0.844
				h3.607v0.65l-1.842,2.435c-0.207,0.265-0.42,0.521-0.641,0.766v0.02h2.531V16.533z"/>
		</g>
	</g>
</g>
</svg>
