<?xml version="1.0" encoding="utf-8"?>
<!-- Generator: Adobe Illustrator 19.1.0, SVG Export Plug-In . SVG Version: 6.00 Build 0)  -->
<svg version="1.1" id="Layer_1" xmlns="http://www.w3.org/2000/svg" xmlns:xlink="http://www.w3.org/1999/xlink" x="0px" y="0px"
	 viewBox="0 0 621 300" style="enable-background:new 0 0 621 300;" xml:space="preserve">
<style type="text/css">
	.st0{fill:#F36D25;}
	.st1{fill:#E73F30;}
</style>
<path class="st0" d="M621,66.7c-9.3-27-23.7-49.4-42.7-66.7H360.2c-20.6,15.6-37.9,32.8-49.8,45.8c-11.9-13-29.1-30.2-49.8-45.8
	H42.6C23.7,17.1,9.3,39.3,0,66.1v148.1C12.7,250,32.7,280.2,48,300h51.6C81,278.4,39.5,223,39.5,159.6C39.5,61.4,93.7,2.8,184,2.8
	c52.9,0,102.5,46.2,126.4,72.4C334.3,49,383.9,2.8,436.8,2.8c90.4,0,144.5,58.6,144.5,156.8c0,63.2-41,118.2-59.9,140.4h51.6
	c15.5-20.1,35.5-50.4,48.1-86.3V66.7z"/>
<path class="st1" d="M581.3,159.6c0-98.2-54.1-156.8-144.5-156.8c-52.9,0-102.5,46.2-126.4,72.4C286.5,49,236.9,2.8,184,2.8
	C93.7,2.8,39.5,61.4,39.5,159.6C39.5,223,81,278.4,99.6,300h421.7C540.3,277.8,581.3,222.7,581.3,159.6z"/>
</svg>
