<?xml version="1.0" encoding="utf-8"?>
<!-- Generator: Adobe Illustrator 19.1.0, SVG Export Plug-In . SVG Version: 6.00 Build 0)  -->
<svg version="1.1" id="Layer_1" xmlns="http://www.w3.org/2000/svg" xmlns:xlink="http://www.w3.org/1999/xlink" x="0px" y="0px"
	 viewBox="0 0 515 443" style="enable-background:new 0 0 515 443;" xml:space="preserve">
<style type="text/css">
	.st0{fill:#C33D32;}
	.st1{fill:#E16F34;}
	.st2{fill:#C55929;}
	.st3{fill:#EDE0CD;}
	.st4{fill:#EEE0CC;}
	.st5{fill:#6C5E57;}
</style>
<path class="st0" d="M245.8,434.2L69.4,264C67.1,262,5,205.2,5,137.4C5,54.6,55.5,5.1,140.1,5.1c49.5,0,95.8,39,118.1,61.1
	c22.3-22,68.7-61.1,118.1-61.1c84.5,0,135.1,49.5,135.1,132.3c0,67.8-62.2,124.6-64.7,127.2L270.6,434.2c-3.4,3.4-7.9,5.1-12.4,5.1
	C253.7,439.2,249.1,437.6,245.8,434.2z"/>
<path class="st1" d="M180.2,88.7l-21.8,63c-3.8,11.1,5.8,22.2,17.3,19.9l65.4-12.6c11.5-2.2-35-75.3-35-75.3
	C198.4,74.8,184,77.6,180.2,88.7z"/>
<path class="st2" d="M190.2,118.3l-10.9,31.5c-1.9,5.5,2.9,11.1,8.6,10l32.7-6.3c5.8-1.1-17.5-37.6-17.5-37.6
	C199.3,111.4,192.1,112.8,190.2,118.3z"/>
<path class="st1" d="M338.8,88.7l21.8,63c3.8,11.1-5.8,22.2-17.3,19.9L277.9,159c-11.5-2.2,35-75.3,35-75.3
	C320.6,74.8,335,77.6,338.8,88.7z"/>
<path class="st2" d="M328.8,118.3l10.9,31.5c1.9,5.5-2.9,11.1-8.6,10l-32.7-6.3c-5.8-1.1,17.5-37.6,17.5-37.6
	C319.6,111.4,326.8,112.8,328.8,118.3z"/>
<path class="st3" d="M261.4,178.6l9.8,130.2c0.9,11.7-11.2,20-21.8,14.9l-117.7-56.6c-10.6-5.1-11.7-19.7-2-26.3l107.9-73.6
	C247.3,160.5,260.5,166.9,261.4,178.6z"/>
<path class="st3" d="M254.5,178.6l-9.8,130.2c-0.9,11.7,11.2,20,21.8,14.9l117.7-56.6c10.6-5.1,11.7-19.7,2-26.3l-107.9-73.6
	C268.6,160.5,255.4,166.9,254.5,178.6z"/>
<path class="st4" d="M361,232.7l-55.3,60.2c-4.2,4.5-6.8,10.3-7.7,16.4c-7.1,47.2-72.5,47.2-79.6,0c-0.9-6.1-3.5-11.8-7.7-16.4
	l-55.3-60.2c-32.3-35.2-7.3-91.9,40.4-91.9h124.7C368.3,140.8,393.2,197.5,361,232.7z"/>
<path class="st1" d="M320.5,140.8h-62.4h-62.4c-23,0-40.7,13.2-49.2,30.7c92.1,71.2,88.2,173.2,111.6,173.2h0h0
	c23.4,0,19.5-101.9,111.6-173.2C361.2,153.9,343.5,140.8,320.5,140.8z"/>
<circle class="st5" cx="176.2" cy="237.2" r="14.5"/>
<circle class="st5" cx="340.2" cy="237.2" r="14.5"/>
<path class="st5" d="M272.7,344.7c0,8-6.5,14.5-14.5,14.5c-8,0-14.5-6.5-14.5-14.5s6.5-7,14.5-7
	C266.2,337.7,272.7,336.7,272.7,344.7z"/>
</svg>
