<svg width="346" height="251" viewBox="0 0 346 251" fill="none" xmlns="http://www.w3.org/2000/svg">
  <path d="M36.324 187.5l5.679-13.635 6.73 5.112 7.417-17.812 20.9 15.877L36.324 187.5z" fill="#C4C6FC"/>
  <path class="line" d="M67.97 183.439l-.198-.766-39.13 10.889-8.375-31.946 39.16-10.933h.03l8.327 31.922v.031l.197.766.198.765c.343-.098.644-.316.849-.617a1.693 1.693 0 00.263-1.402l-8.345-31.855c-.1-.351-.31-.657-.598-.871a1.52 1.52 0 00-1.352-.271l-39.117 10.89c-.343.098-.64.316-.844.617a1.648 1.648 0 00-.27 1.396l8.328 31.929c.1.35.31.657.598.87a1.52 1.52 0 001.352.272l39.147-10.89-.22-.796z" fill="#000"/>
  <path d="M37.289 167.691c.2.838.178 1.725-.064 2.548a4.427 4.427 0 01-1.296 2.079 3.592 3.592 0 01-2.091.907 3.48 3.48 0 01-2.18-.57c-.662-.432-1.197-1.078-1.536-1.855a4.931 4.931 0 01-.371-2.514 4.699 4.699 0 01.917-2.326c.501-.654 1.161-1.125 1.897-1.352a3.447 3.447 0 012.92.43c.886.578 1.534 1.532 1.804 2.653zM220.184 74.48H116.767c-5.485 0-9.932 4.457-9.932 9.955V240.09c0 5.498 4.447 9.955 9.932 9.955h103.417c5.485 0 9.932-4.457 9.932-9.955V84.435c0-5.498-4.447-9.955-9.932-9.955z" fill="#C4C6FC"/>
  <path class="line" d="M205.869 225.904l16.891-.591c3.421-.15 6.652-1.357 9.06-3.384 2.667-2.239 4.51-5.065 5.313-8.145.722-2.796 2.387-5.363 4.8-7.4 2.088-1.766 4.893-2.82 7.866-2.957l4.466-.142-.071-1.521-4.473.148c-3.421.152-6.651 1.358-9.061 3.384-2.664 2.24-4.504 5.066-5.305 8.145-.724 2.795-2.392 5.36-4.808 7.394-2.075 1.76-4.864 2.815-7.823 2.958l-16.89.556.071 1.52-.036.035zM208.988 122.825c8.846-7.173 20.501-12.359 31.005-16.787a100.355 100.355 0 0110.203-3.635c4.221-1.242 8.822-2.236 12.614-2.236a14.457 14.457 0 013.95.479 6.083 6.083 0 014.221 3.635c.309.77.464 1.593.458 2.423a11.78 11.78 0 01-1.001 4.417c-1.139 2.768-3.196 5.81-5.716 8.845a125.543 125.543 0 01-12.868 12.928 341.863 341.863 0 01-5.843 5.065c-1.688 1.43-3.051 2.611-3.919 3.435-6.705 6.343-13.374 12.965-19.181 20.108-5.807 7.143-10.745 14.807-13.989 23.246l1.447.557c3.159-8.233 8.007-15.751 13.742-22.815 5.734-7.065 12.355-13.638 19.042-19.963.603-.606 1.556-1.405 2.714-2.423 4.052-3.478 10.787-9.118 16.527-15.207a61.942 61.942 0 007.411-9.208 25.676 25.676 0 002.303-4.562c.545-1.393.839-2.872.869-4.368a7.826 7.826 0 00-.599-3.104 7.782 7.782 0 00-1.777-2.609 7.89 7.89 0 00-3.419-1.89 16.074 16.074 0 00-4.372-.534c-4.052 0-8.767 1.036-13.048 2.296a104.25 104.25 0 00-10.372 3.702c-10.534 4.441-22.31 9.657-31.355 17.012l.971 1.212-.018-.019zM30.82 82.452c.955 5.053 2.402 9.936 5.368 13.8a17.94 17.94 0 005.668 4.853 23.241 23.241 0 008.478 2.542c2.538.276 5.09.404 7.643.382 3.603 0 7.254-.176 10.772-.176 4.33 0 8.49.261 12.297 1.383a20.916 20.916 0 0110.255 6.552l1.16-1.026a22.532 22.532 0 00-10.983-7.024c-4.035-1.183-8.34-1.438-12.729-1.444-3.566 0-7.205.176-10.772.176a64.485 64.485 0 01-7.469-.37 21.654 21.654 0 01-7.914-2.347 17.053 17.053 0 01-6.989-7.28 36.862 36.862 0 01-3.26-10.312l-1.519.291h-.006zM244.541 84.904h-.91c-.002.324-.158.635-.434.864-.276.229-.649.358-1.04.36a1.637 1.637 0 01-1.037-.36c-.274-.23-.429-.54-.429-.864a1 1 0 01.1-.472c.071-.15.179-.286.317-.4.137-.114.301-.204.481-.263.181-.06.374-.088.568-.083.39 0 .763.128 1.04.357.276.228.432.538.434.861h1.829c0-.542-.194-1.073-.557-1.524a3.249 3.249 0 00-1.482-1.01 3.93 3.93 0 00-1.908-.156 3.558 3.558 0 00-1.691.75c-.461.384-.776.873-.903 1.405a2.311 2.311 0 00.188 1.585c.25.501.673.93 1.216 1.231a3.794 3.794 0 001.834.462c.876 0 1.716-.289 2.335-.803.62-.515.968-1.212.968-1.94h-.919zM64.177 17.964h-.759a1.219 1.219 0 01-.757 1.136c-.149.062-.309.094-.47.094a1.233 1.233 0 01-1.212-.733 1.222 1.222 0 011.211-1.709 1.23 1.23 0 011.228 1.218h1.524a2.737 2.737 0 00-1.699-2.534 2.76 2.76 0 00-2.998.594 2.74 2.74 0 00-.597 2.99 2.746 2.746 0 002.542 1.693 2.737 2.737 0 001.953-.796 2.72 2.72 0 00.8-1.947l-.766-.006z" fill="#000"/>
  <path class="stroke" d="M68.177 234.262c.735 0 1.33-.585 1.33-1.306 0-.721-.595-1.306-1.33-1.306-.735 0-1.33.585-1.33 1.306 0 .721.595 1.306 1.33 1.306z" stroke="#000" stroke-width="2" stroke-miterlimit="10"/>
  <path class="line" d="M12.11 121.406v3.941a.915.915 0 00.177.502.475.475 0 00.371.203c.138 0 .27-.072.372-.203a.916.916 0 00.176-.502v-3.941a1.063 1.063 0 00-.026-.315.875.875 0 00-.116-.274.613.613 0 00-.184-.186.421.421 0 00-.222-.065.421.421 0 00-.222.065.614.614 0 00-.184.186.875.875 0 00-.115.274 1.063 1.063 0 00-.027.315z" fill="#000"/>
  <path class="line" d="M10.73 123.859h3.857c.105.007.21-.003.31-.027.099-.025.19-.064.267-.115a.6.6 0 00.182-.185.422.422 0 00.064-.221.426.426 0 00-.064-.222.586.586 0 00-.182-.184.854.854 0 00-.268-.116 1.03 1.03 0 00-.309-.026H10.73a1.03 1.03 0 00-.309.026.853.853 0 00-.268.116.588.588 0 00-.182.184.426.426 0 00-.064.222c0 .076.022.152.064.221.043.07.105.133.182.185.077.051.169.09.268.115.1.024.205.034.31.027z" fill="#000"/>
  <path d="M201.318 61.313H96.976c-5.533 0-10.02 4.457-10.02 9.954v155.656c0 5.497 4.487 9.954 10.02 9.954h104.342c5.533 0 10.019-4.457 10.019-9.954V71.267c0-5.497-4.486-9.954-10.019-9.954z" fill="#fff"/>
  <path d="M201.578 237.174v-.776H96.716a9.33 9.33 0 01-6.57-2.688 9.178 9.178 0 01-2.73-6.508V70.988c0-1.211.24-2.41.707-3.53a9.207 9.207 0 012.017-2.99 9.294 9.294 0 013.018-1.996 9.355 9.355 0 013.558-.698H201.59c2.463 0 4.826.97 6.568 2.699a9.176 9.176 0 012.721 6.514v156.215a9.176 9.176 0 01-2.721 6.515 9.328 9.328 0 01-6.568 2.699v1.559a10.908 10.908 0 007.671-3.16 10.725 10.725 0 003.177-7.613V70.988c0-2.857-1.144-5.597-3.181-7.618a10.906 10.906 0 00-7.679-3.155H96.716c-2.88 0-5.643 1.135-7.68 3.155a10.728 10.728 0 00-3.18 7.617v156.215a10.73 10.73 0 003.187 7.606 10.906 10.906 0 007.673 3.148H201.59l-.012-.782z" fill="#000"/>
  <path d="M177.444 112.949a11.118 11.118 0 00-4.116-4.93 11.203 11.203 0 00-6.17-1.846 11.128 11.128 0 00-5.243 1.283 11.06 11.06 0 00-4.009 3.597 10.727 10.727 0 00-1.47 3.22h-15.672a8.09 8.09 0 00-.448-1.324 7.101 7.101 0 00-.605-1.204l5.603-5.572a11.167 11.167 0 005.555 1.462 10.927 10.927 0 004.332-.879 11.12 11.12 0 005.532-5.035 11.033 11.033 0 001.073-7.38 11.077 11.077 0 00-3.873-6.387 11.184 11.184 0 00-7.064-2.501 11.447 11.447 0 00-4.351.866 11.136 11.136 0 00-4.955 4.094 11.048 11.048 0 00-1.852 6.137 10.897 10.897 0 001.391 5.356l-5.675 5.651a11.206 11.206 0 00-5.392-1.372 11.182 11.182 0 00-7.891 3.24 11.094 11.094 0 00-2.419 3.599 11.035 11.035 0 00-.848 4.246 10.915 10.915 0 00.884 4.327 11.158 11.158 0 004.042 4.874 11.085 11.085 0 006.232 1.896 11.2 11.2 0 005.231-1.296 11.13 11.13 0 004.009-3.585 10.202 10.202 0 001.489-3.201h15.659c.124.453.28.898.466 1.33.158.349.327.704.515 1.029l-5.682 5.645a11.214 11.214 0 00-5.385-1.367 11.137 11.137 0 00-5.246 1.283 11.055 11.055 0 00-4.012 3.598 11.116 11.116 0 00-1.9 6.198 10.96 10.96 0 00.877 4.327 11.277 11.277 0 004.042 4.881 11.22 11.22 0 0011.474.584 11.148 11.148 0 004.324-4.081 11.054 11.054 0 001.598-5.711 11.118 11.118 0 00-.883-4.308 13.13 13.13 0 00-.605-1.204l5.591-5.555a11.157 11.157 0 005.555 1.463 11.238 11.238 0 007.879-3.262 11.114 11.114 0 003.285-7.835 11.096 11.096 0 00-.872-4.351zm-31.313-18.397a5.182 5.182 0 011.857-2.245 5.062 5.062 0 012.881-.879 5.114 5.114 0 011.996.398 5.13 5.13 0 012.155 1.68 5.072 5.072 0 01.504 5.224 5.103 5.103 0 01-1.793 2.056 5.061 5.061 0 01-2.862.879 5.2 5.2 0 01-2.419-.603 5.155 5.155 0 01-1.853-1.66 5.156 5.156 0 01-.466-4.85zm-11.358 24.722a5.123 5.123 0 01-1.693 2.133 5.161 5.161 0 01-5.246.501 5.145 5.145 0 01-2.071-1.774 5.129 5.129 0 01-.46-4.844 5.157 5.157 0 011.858-2.251 5.141 5.141 0 014.841-.475 5.138 5.138 0 012.288 1.884c.559.838.858 1.822.858 2.828a4.947 4.947 0 01-.375 1.998zm16.295 20.719a5.135 5.135 0 01-2.798 2.745 5.178 5.178 0 01-3.93-.018 5.263 5.263 0 01-2.275-1.866 5.015 5.015 0 01-.866-2.865 5.087 5.087 0 011.505-3.612 5.155 5.155 0 013.633-1.497 4.995 4.995 0 011.996.403 5.106 5.106 0 012.289 1.879c.559.838.855 1.822.852 2.827a4.95 4.95 0 01-.406 1.986v.018zm20.834-20.719a5.114 5.114 0 01-1.692 2.134 5.154 5.154 0 01-2.552.969 5.153 5.153 0 01-4.76-2.243 5.102 5.102 0 01-.466-4.844 5.157 5.157 0 011.858-2.251 5.141 5.141 0 014.84-.475 5.127 5.127 0 012.288 1.884 5.09 5.09 0 01.859 2.828 4.964 4.964 0 01-.375 1.998z" fill="#000"/>
  <path d="M161.127 207.246l-29.081-.184a13.477 13.477 0 01-9.362-4.145 13.673 13.673 0 01-3.806-9.56 13.673 13.673 0 013.925-9.512 13.481 13.481 0 019.413-4.026l29.081.184a13.422 13.422 0 015.254.99 13.509 13.509 0 014.464 2.962 13.686 13.686 0 013.998 9.757 13.697 13.697 0 01-1.089 5.271 13.622 13.622 0 01-3.031 4.434 13.53 13.53 0 01-4.5 2.906 13.45 13.45 0 01-5.266.923z" fill="#3BFFB7"/>
  <path d="M160.724 207.541v-.8l-28.863-.194c-3.343-.028-6.54-1.424-8.894-3.884-2.355-2.46-3.676-5.785-3.676-9.25v-.081c.027-3.465 1.374-6.779 3.748-9.219 2.374-2.44 5.581-3.809 8.925-3.809h.084l28.857.194c3.343.028 6.54 1.424 8.895 3.884 2.354 2.46 3.675 5.785 3.675 9.25v.087c-.027 3.465-1.374 6.779-3.748 9.219-2.373 2.44-5.581 3.809-8.924 3.809h-.079v1.601h.091c3.75-.001 7.348-1.54 10.008-4.281 2.661-2.741 4.167-6.46 4.191-10.348v-.093c0-3.887-1.484-7.615-4.127-10.371-2.644-2.756-6.232-4.316-9.982-4.34l-28.863-.193h-.09c-3.746.008-7.337 1.549-9.992 4.287-2.654 2.739-4.158 6.453-4.183 10.335v.094c-.001 3.887 1.483 7.616 4.126 10.373 2.644 2.757 6.232 4.318 9.982 4.343l28.863.188-.024-.801z" fill="#000"/>
  <path d="M179.416 193.621a14.085 14.085 0 01-2.272 7.606 13.328 13.328 0 01-5.958 5.013 12.755 12.755 0 01-7.636.73 13.065 13.065 0 01-6.74-3.798 13.894 13.894 0 01-3.573-7.046 14.21 14.21 0 01.8-7.92 13.613 13.613 0 014.902-6.123 12.859 12.859 0 017.352-2.264c1.735.011 3.45.377 5.048 1.077 1.599.7 3.049 1.72 4.268 3.001a13.8 13.8 0 012.836 4.469c.654 1.668.984 3.454.973 5.255z" fill="#fff"/>
  <path d="M179.726 193.08h-.784a12.717 12.717 0 01-3.762 8.927 12.8 12.8 0 01-8.972 3.71h-.085a12.797 12.797 0 01-8.979-3.76 12.709 12.709 0 01-3.712-8.974v-.079a12.676 12.676 0 013.77-8.944 12.763 12.763 0 019.006-3.68h.085a12.797 12.797 0 018.941 3.763 12.712 12.712 0 013.708 8.94v.079h1.563v-.079a14.23 14.23 0 00-4.157-10.054 14.325 14.325 0 00-10.061-4.207h-.079a14.333 14.333 0 00-10.086 4.144 14.239 14.239 0 00-4.223 10.026v.091a14.245 14.245 0 004.162 10.055 14.346 14.346 0 0010.062 4.213h.085a14.339 14.339 0 0010.086-4.149 14.243 14.243 0 004.223-10.028l-.791.006z" fill="#000"/>
  <path d="M73.431 32.783H2.518c-.783 0-1.417.634-1.417 1.415v46.549c0 .78.634 1.414 1.417 1.414h70.913c.783 0 1.418-.633 1.418-1.414v-46.55c0-.78-.635-1.414-1.418-1.414z" fill="#fff"/>
  <path d="M72.645 81.382v-.773H2.185a.608.608 0 01-.607-.604V33.86a.601.601 0 01.182-.44.607.607 0 01.444-.182h70.441a.609.609 0 01.443.181.604.604 0 01.182.441v46.127a.602.602 0 01-.607.604v1.552a2.202 2.202 0 001.542-.64c.41-.408.64-.959.644-1.534V33.86a2.18 2.18 0 00-.644-1.534 2.203 2.203 0 00-1.542-.64H2.185a2.197 2.197 0 00-2.02 1.344c-.11.263-.166.545-.165.83v46.127a2.147 2.147 0 00.637 1.534c.41.409.968.64 1.548.64h70.46v-.78z" fill="#000"/>
  <path d="M2.201 41.565H74.85v-1.1H2.2M33.856 50.336h29.286c.19-.024.368-.15.498-.352.13-.203.202-.467.202-.741 0-.275-.072-.539-.202-.741-.13-.203-.307-.328-.498-.352H33.856a.555.555 0 00-.313.053.77.77 0 00-.272.23 1.172 1.172 0 00-.184.367 1.51 1.51 0 000 .885c.042.139.105.264.184.367a.769.769 0 00.272.23c.1.049.207.067.313.054zM33.856 59.114h29.286c.19-.024.368-.15.498-.352.13-.203.202-.467.202-.741 0-.275-.072-.539-.202-.741-.13-.203-.307-.328-.498-.352H33.856a.555.555 0 00-.313.053.77.77 0 00-.272.23 1.172 1.172 0 00-.184.368 1.51 1.51 0 000 .884c.042.14.105.264.184.367a.769.769 0 00.272.23c.1.049.207.067.313.054zM33.856 67.892h29.286c.19-.024.368-.15.498-.352.13-.202.202-.467.202-.74 0-.275-.072-.54-.202-.742-.13-.202-.307-.328-.498-.352H33.856a.554.554 0 00-.313.054.769.769 0 00-.272.23 1.173 1.173 0 00-.184.367 1.51 1.51 0 000 .884c.042.14.105.265.184.367a.769.769 0 00.272.23c.1.05.207.068.313.054z" fill="#000"/>
  <path d="M26.417 58.547a7.85 7.85 0 01-1.472 4.578c-.965 1.356-2.338 2.415-3.947 3.041a9.38 9.38 0 01-5.09.478 9.015 9.015 0 01-4.514-2.247c-1.234-1.15-2.075-2.616-2.417-4.213a7.73 7.73 0 01.497-4.758c.665-1.506 1.794-2.792 3.243-3.698a9.25 9.25 0 014.894-1.388c2.332 0 4.568.864 6.218 2.402 1.651 1.539 2.582 3.626 2.588 5.805z" fill="#A67BFC"/>
  <path d="M26.698 58.57h-.814c-.001 1.8-.665 3.544-1.878 4.935-1.214 1.392-2.902 2.344-4.777 2.694a8.72 8.72 0 01-5.509-.77c-1.686-.849-3.008-2.222-3.74-3.885a7.357 7.357 0 01-.272-5.237c.555-1.722 1.727-3.21 3.317-4.211 1.59-1 3.499-1.45 5.402-1.275 1.902.177 3.682.968 5.034 2.241a7.77 7.77 0 011.794 2.527c.416.945.63 1.958.629 2.98h1.634a8.943 8.943 0 00-1.67-5.181c-1.088-1.534-2.635-2.73-4.445-3.435a10.48 10.48 0 00-5.724-.531 10.112 10.112 0 00-5.072 2.552 9.172 9.172 0 00-2.712 4.776 8.821 8.821 0 00.564 5.389c.75 1.704 2.02 3.16 3.649 4.185a10.35 10.35 0 005.503 1.572c1.302.001 2.59-.24 3.793-.708a9.962 9.962 0 003.214-2.022 9.303 9.303 0 002.148-3.026 8.849 8.849 0 00.752-3.57h-.82z" fill="#000"/>
  <path d="M16.191 62.669h.794v-6.486l2.947 2.385-4.214 3.419.473.662.48.663 5.051-4.094a.849.849 0 00.215-.296.91.91 0 000-.734.849.849 0 00-.215-.295l-5.05-4.101a.746.746 0 00-.824-.066.811.811 0 00-.32.313.896.896 0 00-.118.448v8.182a.896.896 0 00.122.444.81.81 0 00.322.309.738.738 0 00.823-.09l-.486-.663z" fill="#000"/>
  <path d="M220.412 16.484c0 3.153-.92 6.077-2.588 8.485l-.115.172-10.812 15.709c-.862 1.26-2.702 1.204-3.565-.058l-10.467-15.995-.115-.172c-1.553-2.35-2.415-5.217-2.358-8.255.115-8.313 7.016-14.964 15.355-14.792 8.052.287 14.608 6.88 14.665 14.906z" fill="#C4C6FC"/>
  <path d="M205.115 42.625c-1.036 0-1.956-.516-2.473-1.319L192.06 25.139c-1.668-2.58-2.531-5.618-2.531-8.714.058-4.243 1.783-8.198 4.831-11.18A15.818 15.818 0 01205.747.831c8.454.23 15.355 7.224 15.413 15.594 0 3.21-.92 6.306-2.703 8.943l-10.927 15.88c-.518.918-1.438 1.377-2.415 1.377zm.287-40.131c-3.681 0-7.189 1.375-9.834 3.955-2.761 2.637-4.313 6.192-4.313 10.033a13.846 13.846 0 002.243 7.797l.115.172 10.466 15.995c.23.344.633.573 1.093.573.46 0 .863-.229 1.093-.573l10.927-15.88a13.74 13.74 0 002.415-8.027c-.057-7.51-6.269-13.816-13.802-13.988a1.13 1.13 0 00-.403-.057z" fill="#000"/>
  <path d="M210.24 19.639a5.666 5.666 0 00-1.832-7.816 5.703 5.703 0 00-7.84 1.826 5.666 5.666 0 001.832 7.816 5.703 5.703 0 007.84-1.826z" fill="#fff"/>
  <path d="M205.402 23.137h-.057c-3.566-.058-6.441-2.981-6.441-6.536.057-3.554 2.933-6.421 6.498-6.421h.058c1.725 0 3.335.688 4.543 1.95a6.543 6.543 0 011.84 4.586c0 1.72-.69 3.325-1.955 4.529-1.15 1.204-2.761 1.892-4.486 1.892zm0-11.352c-2.645 0-4.831 2.121-4.831 4.816-.057 2.695 2.128 4.873 4.831 4.873 1.265 0 2.531-.458 3.451-1.376.92-.917 1.438-2.121 1.438-3.382 0-1.319-.461-2.523-1.381-3.44-.92-.975-2.128-1.49-3.508-1.49.058 0 0 0 0 0z" fill="#000"/>
  <path class="stroke" d="M279.535 229.202h-25.837v-39.743l25.837-15.984 25.832 15.984v39.743h-25.832z" fill="#A77FFA" stroke="#000" stroke-width="2" stroke-miterlimit="10"/>
  <path class="stroke" d="M248.614 192.613l30.921-19.138 30.916 19.138M236.929 229.202c0-4.604 3.752-8.324 8.382-8.324 0-4.604 3.751-8.324 8.381-8.324v16.654h-16.763v-.006zM330.681 202.999c-7.726 0-13.989-6.22-13.989-13.892 0-7.673 6.263-13.893 13.989-13.893 7.726 0 13.989 6.22 13.989 13.893 0 7.672-6.263 13.892-13.989 13.892zM330.681 190.684v38.518M305.367 221.196c0-4.593 3.74-8.307 8.364-8.307 4.624 0 8.364 3.714 8.364 8.307h.093c4.456 0 8.062 3.581 8.062 8.006h-24.883v-8.006z" stroke="#000" stroke-width="2" stroke-miterlimit="10" stroke-linecap="round" stroke-linejoin="round"/>
  <path class="stroke" d="M273.824 210.653h10.15v18.555h-10.15v-18.555z" fill="#fff" stroke="#000" stroke-width="2" stroke-miterlimit="10" stroke-linecap="round" stroke-linejoin="round"/>
  <path class="stroke" d="M330.256 229.202h9.434" stroke="#000" stroke-width="2" stroke-miterlimit="10" stroke-linecap="round" stroke-linejoin="round"/>
</svg>
