<svg xmlns="http://www.w3.org/2000/svg" width="268" height="197" fill="none" viewBox="0 0 268 197">
  <path fill="#FFD25E" d="M14.8804 126.02s-3.833 1.048-7.31155 4.978c-2.25698 2.549-4.36587 6.311-5.17953 11.785-2.070293 13.91 18.79518 15.953 25.89928 8.104 7.1041-7.849-4.6992-3.12-2.8465-13.469 0 0-8.6756 22.622-1.6312 21.483 7.0445-1.139 11.6544-19.516 11.6544-19.516l-5.8974-23.376c-2.8916-2.618-14.6875 10.011-14.6875 10.011z"/>
  <path stroke="#000" stroke-linecap="round" stroke-linejoin="round" stroke-miterlimit="10" stroke-width="1.5" d="M25.4422 137.418s-8.6757 22.622-1.6312 21.483"/>
  <path fill="#FFFBE3" d="M229.932 165.004s8.607 5.179 15.814 6.09c7.209.91 11.437-14.148 15.345-30.411 3.907-16.263.882-38.3-3.357-27.993-4.053 9.857-5.557 14.056-10.169 19.957-1.578 2.019-3.628 3.621-5.959 4.686-3.181 1.454-8.093 3.525-12.688 4.752-7.624 2.04 1.014 22.919 1.014 22.919z"/>
  <path fill="#396AFF" d="M229.932 165.004s8.607 5.179 15.815 6.091c7.208.91 11.436-14.148 15.344-30.411 3.907-16.263.882-38.3-3.357-27.994-4.053 9.858-5.557 14.057-10.169 19.958-1.109 1.419-2.44 2.286-4.012 3.142-2.001 1.09-3.564 1.099-4.541 2.419-.314.425.508 1.79 2.94 1.927 2.787.156 9.354-4.459 8.755.214-1.135 8.849-20.775 24.654-20.775 24.654z"/>
  <path fill="#396AFF" d="M154.247 135.054s-31.66 1.243-55.1018-.916l-23.4417-2.157-1.7999-13.859s-21.268 6.222-18.9698-7.189c.4577-2.675 3.2635-11.9242 7.9012-21.2133l1.3121-4.6026-34.0098 56.2519-11.6358-6.726-5.8008-6.976s4.8932-6.228 14.8415-22.987c9.9482-16.7601 23.0126-45.1721 37.0697-50.2424 8.4785-3.0578 17.0394-2.6787 22.5001-1.8957 4.1604.1959 19.617 1.1657 30.392 5.0858 12.553 4.5669 18.85 11.5606 21.896 31.2042 3.044 19.6451 14.847 46.2221 14.847 46.2221z"/>
  <path fill="#FCB643" d="M79.2944 115.752s31.9256-3.117 76.8946 7.82c44.968 10.937 65.164 15.083 65.164 15.083l14.206.071-.928 32.232S119.29 159.229 95.8327 151.571c-23.4559-7.659-50.3256-31.947-16.5383-35.819z"/>
  <path fill="#FFFBE3" d="M137.238 142.899s23.483-.787 31.491.857c2.824.58 12.029 14.54 17.243 23.558 6.28 10.863 8.064 15.796 6.179 18.423-2.711 3.779-2.986-2.317-15.186-12.851-13.57-11.72-27.781-11.357-27.781-11.357l-26.735.48 14.789-19.11z"/>
  <path fill="#FFFBE3" d="M153.714 161.587c-.637-.15-.773-.931-.283-1.363 5.755-5.07 15.916 4.067 14.067-3.047-1.446-5.556-9.322-13.393-8.752-14.535 5.132.109 13.316-1.273 16.071-.157 5.381 2.182 9.602 13.055 14.562 22.461 5.853 11.1 10.136 24.119 7.011 24.954-1.268.339-2.397.852-3.682-.305-4.378-3.946-10.866-14.402-22.025-20.398-10.145-5.45-14.88-7.115-16.969-7.61z"/>
  <path fill="#396AFF" d="M150.691 161.715c-.636-.149-.772-.93-.282-1.362 5.754-5.07 15.916 4.067 14.066-3.047-1.446-5.557-9.321-13.394-8.752-14.535 5.133.109 13.316-1.273 16.072-.157 5.38 2.181 9.602 13.054 14.562 22.46 5.852 11.1 10.2 25.487 7.01 24.955-3.91-.652-11.272-12.949-25.706-20.704-10.145-5.449-14.88-7.116-16.97-7.61z"/>
  <path fill="#FF806F" d="M76.1598 11.8924s-12.2041-7.05524-18.0694 7.6683c-5.8653 14.7235-3.8669 29.9236 2.7809 33.5633 6.6479 3.6396 14.2603 10.89 26.1721 11.0598 11.9104.1696.3537 22.5156 25.3496 28.2143 24.996 5.6986 37.126-.0328 53.348-9.7858 9.535-5.7329 15.262-12.0513 18.36-16.2872 1.085-1.4815-.418-3.469-2.143-2.8391-6.206 2.2657-16.654 5.3843-23.9 3.8969-20.263-4.1591-17.872-9.9258-26.393-32.1524C125.6 19.4067 101.577 7.17091 91.446 6.31899 78.1384 5.20018 76.1598 11.8924 76.1598 11.8924z"/>
  <path stroke="#000" stroke-linecap="round" stroke-linejoin="round" stroke-miterlimit="10" stroke-width="1.5" d="M64.1469 85.1172S45.5834 121.07 32.4856 130.395"/>
  <path stroke="#000" stroke-linecap="round" stroke-linejoin="round" stroke-miterlimit="10" stroke-width="1.5" d="M10.567 145.049c-.3395 2.56-.2848 5.327.7178 7.724"/>
  <path fill="#FCB643" d="M71.8732 113.147s-25.0292-3.926-36.79 6.173c-11.7607 10.1-25.87642 25.771-24.1605 39.04 1.7159 13.27 14.0016 22.25 46.9289 13.266 32.9259-8.985 70.0884-7.796 80.3564-4.595l2.144-23.682-.364-19.855-68.1148-10.347z"/>
  <path fill="#FFD25E" d="M75.9772 131.446s-16.1354 18.545-34.0278 1.048c-17.8925-17.497 7.1958-21.407 7.1958-21.407l26.1087 7.041.7233 13.318z"/>
  <path stroke="#000" stroke-linecap="round" stroke-linejoin="round" stroke-miterlimit="10" stroke-width="1.5" d="M125.651 57.4557s19.643 30.7492 59.725 21.4186"/>
  <path fill="#396AFF" d="M153.503 132.066c.381 1.543-.761 3.044-2.349 3.09-8.522.247-32.974.736-52.0071-1.017l-23.4417-2.157-1.7999-13.86s4.5323-.315 10.6261-.74c0 0 28.4526-3.395 24.2326-11.508-5.676-10.9167-43.0435-23.3744-54.5853-34.692-6.9247-6.7905 6.8353-15.4451 10.4346-16.7424 8.4785-3.0579 17.0394-2.6788 22.5001-1.8958 4.1604.1959 19.6176 1.1657 30.3916 5.0858 12.553 4.5669 22.801 7.1513 25.846 26.795 2.473 15.9594 8.121 39.4084 10.152 47.6414z"/>
  <path stroke="#000" stroke-linecap="round" stroke-linejoin="round" stroke-miterlimit="10" stroke-width="1.5" d="M40.0661 146.178s45.3419-10.473 74.1749-7.381"/>
  <path fill="#FFD25E" d="M79.4979 51.3725c9.5809 1.9665 18.9419-4.2061 20.9081-13.787 1.967-9.5809-4.2057-18.942-13.7866-20.9085-9.5809-1.9666-18.942 4.2061-20.9086 13.787-1.9665 9.5809 4.2062 18.9419 13.7871 20.9085z"/>
  <path fill="#396AFF" d="M57.7439 108.242s13.8698 11.132 23.9692 12.375c10.0994 1.244 27.6399-5.51 27.6399-5.51l-16.9777-10.113-34.6314 3.248z"/>
  <path fill="#FF806F" d="M110.672 37.7467s-13.8692-1.7092-23.5677-7.1126c-9.6986-5.4034-14.3721-10.345-10.943-18.7417 3.4308-8.39778 19.0063 1.6261 24.1147 7.2249 5.107 5.5984 10.396 18.6294 10.396 18.6294z"/>
  <path stroke="#000" stroke-linecap="round" stroke-linejoin="round" stroke-miterlimit="10" stroke-width="1.5" d="M110.672 37.7476s-13.8691-1.7093-23.5677-7.1127c-9.6985-5.4034-14.3721-10.3449-10.943-18.7416"/>
  <path stroke="#000" stroke-linecap="round" stroke-linejoin="round" stroke-miterlimit="10" stroke-width="1.5" d="M135.791 146.872l-2.287 16.464"/>
  <path stroke="#000" stroke-linecap="round" stroke-linejoin="round" stroke-miterlimit="10" stroke-width="1.5" d="M78.5387 31.5219s-.7288 3.5508 1.329 4.3435c2.0578.7927 3.142-2.6852 3.2638-3.2784"/>
  <path stroke="#000" stroke-linecap="round" stroke-linejoin="round" stroke-miterlimit="10" stroke-width="1.5" d="M68.1501 31.8078s-1.519 3.9434.203 4.769c1.722.8256 3.0999-2.4371 3.4725-4.2521"/>
  <path stroke="#000" stroke-linecap="round" stroke-linejoin="round" stroke-miterlimit="10" stroke-width="1.5" d="M69.812 44.4422s2.4295 2.2884 6.0719 2.6642c4.6292.478 9.8187-1.7662 11.4019-9.4795"/>
  <path stroke="#000" stroke-linecap="round" stroke-linejoin="round" stroke-miterlimit="10" stroke-width="1.5" d="M75.7033 131.982l-1.8-13.86s48.1577-2.807 52.8767-3.166c0 0-23.016-29.1858-23.263-38.7474"/>
  <path fill="#FFFBE3" d="M48.6308 107.331s-34.8299 17.793-33.3348 18.1c1.4965.307 42.5226 20.679 42.5226 20.679l13.9866-32.638-23.1744-6.141z"/>
  <path fill="#FFFBE3" d="M48.6308 107.331s-34.8299 17.793-33.3348 18.1c1.4965.307 42.5226 20.679 42.5226 20.679l13.9866-32.638"/>
  <path stroke="#000" stroke-linecap="round" stroke-linejoin="round" stroke-miterlimit="10" stroke-width="1.5" d="M48.6308 107.331s-34.8299 17.793-33.3348 18.1c1.4965.307 42.5226 20.679 42.5226 20.679l13.9866-32.638"/>
  <path stroke="#000" stroke-linecap="round" stroke-linejoin="round" stroke-miterlimit="10" stroke-width="1.5" d="M28.6129 124.026l27.3135 11.788"/>
  <path stroke="#000" stroke-linecap="round" stroke-linejoin="round" stroke-miterlimit="10" stroke-width="1.5" d="M35.0834 119.32l23.6068 9.886"/>
  <path stroke="#000" stroke-linecap="round" stroke-linejoin="round" stroke-miterlimit="10" stroke-width="1.5" d="M40.205 115.51l21.2768 8.291"/>
  <path stroke="#000" stroke-linecap="round" stroke-linejoin="round" stroke-miterlimit="10" stroke-width="1.5" d="M65.8569 80.9117S60.3113 91.785 64.4284 95.944c4.1171 4.159 12.7395-1.5267 14.4312-5.7357"/>
  <path stroke="#000" stroke-linecap="round" stroke-linejoin="round" stroke-miterlimit="10" stroke-width="1.5" d="M88.0765 89.6146s-.3682 9.866 5.8486 7.8282c6.2169-2.0378 10.3859-8.223 10.3859-8.223"/>
  <path fill="#1AFFFF" d="M102.659 63.8938c.583 2.554 2.898 2.1986 4.485 1.6154 1.66-.611 2.153-2.7361.899-3.9837-.368-.3661-.88-.7088-1.588-.9927-3.507-1.4103-3.796 3.361-3.796 3.361z"/>
  <path fill="#1AFFFF" d="M104.091 100.147c1.623 2.056 3.561.741 4.743-.4667 1.238-1.2641.77-3.3964-.898-3.9836-.49-.1728-1.1-.2612-1.861-.2152-3.773.2318-1.984 4.6655-1.984 4.6655z"/>
  <path fill="#1AFFFF" d="M77.741 112.373c1.6229 2.057 3.5615.741 4.7434-.466 1.2363-1.265.7694-3.397-.8983-3.984-.4898-.173-1.1001-.261-1.8606-.215-3.7717.232-1.9845 4.665-1.9845 4.665z"/>
  <path fill="#1AFFFF" d="M107.29 125.133c1.622 2.056 3.561.741 4.743-.467 1.238-1.264.769-3.396-.898-3.983-.49-.173-1.101-.262-1.861-.216-3.773.232-1.984 4.666-1.984 4.666z"/>
  <path fill="#1AFFFF" d="M132.172 89.3934c-1.387 2.2235.508 3.6024 2.044 4.3058 1.609.736 3.455-.4239 3.445-2.1936-.003-.5184-.125-1.1233-.427-1.8227-1.495-3.4716-5.062-.2895-5.062-.2895z"/>
  <path fill="#1AFFFF" d="M128.161 73.1266c.582 2.554 2.898 2.1986 4.484 1.6154 1.66-.611 2.154-2.7361.899-3.9837-.368-.3661-.88-.7088-1.588-.9927-3.506-1.4104-3.795 3.361-3.795 3.361z"/>
  <path fill="#1AFFFF" d="M45.4396 94.9459c.5824 2.554 2.898 2.1986 4.4843 1.6154 1.6598-.611 2.1536-2.7361.8988-3.9837-.3675-.3661-.8799-.7088-1.5874-.9927-3.5069-1.4103-3.7957 3.361-3.7957 3.361z"/>
  <path fill="#1AFFFF" d="M71.4108 70.4032c.5823 2.554 2.8979 2.1986 4.4842 1.6153 1.6599-.6109 2.1536-2.736.8989-3.9836-.3675-.3661-.88-.7088-1.5874-.9927-3.5069-1.4103-3.7957 3.361-3.7957 3.361z"/>
  <path fill="#1AFFFF" d="M91.022 72.6551c-1.1793.9797-2.3602 2.5712-.136 3.6386 2.2257 1.0677 3.5028-.9925 3.2989-2.3785-.2038-1.386-1.9833-2.2411-3.1629-1.2601z"/>
  <path fill="#1AFFFF" d="M55.9412 74.9241c-1.1793.9796-2.3602 2.5711-.136 3.6385 2.2257 1.0677 3.5028-.9925 3.2989-2.3785-.2038-1.386-1.985-2.2399-3.1629-1.26z"/>
  <path fill="#1AFFFF" d="M125.455 79.3728c-1.179.9796-2.36 2.5712-.136 3.6386 2.224 1.0674 3.503-.9926 3.299-2.3786-.204-1.3859-1.984-2.2396-3.163-1.26z"/>
  <path fill="#FF806F" d="M122.117 62.3058c-1.18.9796-2.361 2.5712-.136 3.6385 2.225 1.0677 3.502-.9925 3.298-2.3785-.203-1.386-1.983-2.2396-3.162-1.26z"/>
  <path fill="#FF806F" d="M135.005 100.675c-1.179.98-2.36 2.571-.136 3.639 2.226 1.067 3.503-.993 3.299-2.379-.204-1.386-1.983-2.2409-3.163-1.26z"/>
  <path fill="#FF806F" d="M38.5173 87.8907c-1.1793.9796-2.3603 2.5712-.136 3.6386 2.2257 1.0676 3.5028-.9926 3.2989-2.3785-.2039-1.386-1.9836-2.2397-3.1629-1.2601z"/>
  <path fill="#FF806F" d="M118.603 118.534c-1.18.98-2.361 2.571-.136 3.639 2.224 1.067 3.502-.993 3.299-2.379-.204-1.386-1.984-2.239-3.163-1.26z"/>
  <path fill="#FF806F" d="M110.871 105.818c-1.18.98-2.361 2.571-.136 3.639 2.225 1.067 3.502-.993 3.298-2.379-.203-1.386-1.985-2.24-3.162-1.26z"/>
  <path fill="#FF806F" d="M73.5023 100.925c-1.1793.979-2.3603 2.571-.136 3.638 2.2256 1.068 3.5028-.992 3.2989-2.378-.2039-1.386-1.9833-2.2415-3.1629-1.26z"/>
  <path fill="#FF806F" d="M138.45 79.6378c-1.18.9796-2.361 2.5712-.136 3.6386 2.224 1.0674 3.503-.9925 3.299-2.3785-.204-1.386-1.984-2.2397-3.163-1.2601z"/>
  <path fill="#FF806F" d="M88.1976 103.68c-1.1793.979-2.3603 2.571-.136 3.638 2.2256 1.068 3.5028-.992 3.2989-2.378-.2039-1.386-1.9836-2.24-3.1629-1.26z"/>
  <path fill="#FF806F" d="M141.074 93.4698c-1.179.9796-2.36 2.5712-.136 3.6386 2.226 1.0677 3.503-.9925 3.299-2.3785-.204-1.386-1.984-2.2397-3.163-1.2601z"/>
  <path fill="#FF806F" d="M98.2582 71.3566c-1.1792.9796-2.3602 2.5712-.136 3.6385 2.2258 1.0677 3.5028-.9925 3.2988-2.3785-.204-1.386-1.9849-2.24-3.1628-1.26z"/>
  <path fill="#FF806F" d="M120.545 93.2391c-1.179.9796-2.36 2.5712-.136 3.6386 2.226 1.0677 3.503-.9926 3.299-2.3785-.204-1.386-1.984-2.2397-3.163-1.2601z"/>
  <path fill="#FF806F" d="M59.9438 105.265c-1.1793.979-2.3603 2.571-.136 3.638 2.2256 1.068 3.5028-.992 3.2989-2.378-.2039-1.386-1.985-2.24-3.1629-1.26z"/>
  <path fill="#FF806F" d="M80.7964 125.384c-1.1793.98-2.3602 2.571-.136 3.639 2.2256 1.067 3.5027-.993 3.2989-2.379-.2039-1.386-1.9848-2.241-3.1629-1.26z"/>
  <path fill="#FF806F" d="M91.8373 88.105c-1.1793.9796-2.3603 2.5712-.136 3.6386 2.2256 1.0676 3.5028-.9926 3.2989-2.3786-.2039-1.386-1.9833-2.2411-3.1629-1.26z"/>
  <path fill="#FF806F" d="M93.6971 59.3833c-1.1793.9796-2.3603 2.5712-.136 3.6386 2.2242 1.0673 3.5028-.9926 3.2989-2.3786-.2039-1.3859-1.9836-2.2396-3.1629-1.26z"/>
  <path fill="#FF806F" d="M69.6855 76.5945c-1.1793.9796-2.3603 2.5712-.136 3.6385 2.2256 1.0677 3.5028-.9925 3.2989-2.3785-.2039-1.386-1.985-2.2399-3.1629-1.26z"/>
  <path fill="#FF806F" d="M58.9956 82.192c-1.1793.9796-2.3603 2.5712-.1361 3.6386 2.2257 1.0676 3.5029-.9926 3.299-2.3786-.2039-1.3859-1.9851-2.2399-3.1629-1.26z"/>
  <path fill="#FF806F" d="M42.6734 102.844c-1.1793.98-2.3603 2.571-.1361 3.639 2.2257 1.067 3.5029-.993 3.299-2.379-.2039-1.386-1.9837-2.239-3.1629-1.26z"/>
  <path fill="#1AFFFF" d="M113.75 83.3002c-1.18.9796-2.361 2.5711-.136 3.6385 2.225 1.0677 3.502-.9925 3.298-2.3785-.203-1.386-1.983-2.2396-3.162-1.26z"/>
  <path fill="#1AFFFF" d="M125.914 103.955c-1.179.98-2.36 2.571-.136 3.639 2.226 1.067 3.503-.993 3.299-2.379-.203-1.386-1.984-2.241-3.163-1.26z"/>
  <path fill="#1AFFFF" d="M99.0606 103.477c-1.1793.98-2.3603 2.571-.1361 3.639 2.2245 1.067 3.5025-.993 3.2985-2.379-.203-1.386-1.985-2.24-3.1624-1.26z"/>
  <path fill="#1AFFFF" d="M81.197 60.9831c-1.4605 1.0989-1.5121 2.0119-.0157 3.0524 1.4979 1.0408 2.8146.5777 2.8685-.8778.0552-1.4553-.6852-3.8071-2.8528-2.1746z"/>
  <path fill="#1AFFFF" d="M65.0415 58.3814c-1.4606 1.0989-1.5122 2.0119-.0157 3.0524 1.4979 1.0407 2.8146.5777 2.8684-.8778.0539-1.4556-.6851-3.8071-2.8527-2.1746z"/>
  <path fill="#1AFFFF" d="M34.5473 98.9234c-1.4605 1.0986-1.5122 2.0116-.0157 3.0526 1.4979 1.041 2.8146.578 2.8684-.878.0553-1.4553-.6837-3.8068-2.8527-2.1746z"/>
  <path fill="#1AFFFF" d="M82.6063 91.6303c-1.4605 1.0989-1.5122 2.012-.0157 3.0524 1.4965 1.0405 2.8146.5777 2.8684-.8778.0553-1.4553-.6851-3.8071-2.8527-2.1746z"/>
  <path fill="#1AFFFF" d="M65.439 70.4565c-1.7528-.5177-2.5167-.0164-2.4612 1.8053.0554 1.8218 1.2122 2.6051 2.4139 1.7821 1.2018-.823 2.6501-2.8186.0473-3.5874z"/>
  <path fill="#1AFFFF" d="M66.47 100.238c-1.4605 1.099-1.5122 2.012-.0157 3.052 1.4979 1.041 2.8146.578 2.8684-.878.0553-1.455-.6837-3.8065-2.8527-2.174z"/>
  <path fill="#1AFFFF" d="M140.499 108.993c-1.46 1.099-1.512 2.012-.016 3.052 1.497 1.041 2.815.578 2.869-.878.054-1.455-.685-3.807-2.853-2.174z"/>
  <path fill="#1AFFFF" d="M119.27 128.157c-1.707-.655-2.508-.216-2.595 1.606-.086 1.823 1.004 2.693 2.267 1.966 1.262-.726 2.863-2.601.328-3.572z"/>
  <path fill="#1AFFFF" d="M91.5458 120.834c-1.707-.654-2.5083-.215-2.5946 1.607-.0863 1.822 1.004 2.692 2.2671 1.966 1.263-.726 2.8624-2.602.3275-3.573z"/>
  <path fill="#1AFFFF" d="M129.46 123.2c-1.461 1.098-1.513 2.011-.016 3.052 1.498 1.041 2.815.578 2.868-.878.056-1.455-.685-3.807-2.852-2.174z"/>
  <path fill="#1AFFFF" d="M142.867 124.5c-1.461 1.099-1.512 2.012-.016 3.052 1.498 1.041 2.815.578 2.868-.878.056-1.455-.683-3.807-2.852-2.174z"/>
  <path fill="#1AFFFF" d="M114.399 59.549c-1.461 1.0989-1.512 2.012-.016 3.0524 1.498 1.0408 2.815.5777 2.869-.8778.054-1.4556-.685-3.8071-2.853-2.1746z"/>
  <path fill="#1AFFFF" d="M70.898 84.6911c-1.4606 1.0989-1.5122 2.012-.0157 3.0524 1.4978 1.0408 2.8145.5777 2.8684-.8778.0552-1.4553-.6838-3.8068-2.8527-2.1746z"/>
  <path fill="#FF806F" d="M114.306 68.067s2.256-1.61 3.983.0768c1.727 1.6868 1.195 5.725-.938 5.2873-2.132-.4376-5.516-.5406-3.045-5.3641z"/>
  <path fill="#FF806F" d="M31.7417 107.768s2.2644 1.598 1.2414 3.786c-1.0227 2.186-5.0099 3.016-5.3006.859-.2905-2.157-1.3096-5.387 4.0592-4.645z"/>
  <path fill="#FF806F" d="M46.4715 77.1658s2.2559-1.61 3.9827.0768c1.7268 1.6867 1.1945 5.7249-.9377 5.2873-2.1322-.4377-5.515-.5403-3.045-5.3641z"/>
  <path fill="#FF806F" d="M134.985 116.072s2.256-1.61 3.983.077c1.727 1.687 1.195 5.725-.938 5.287-2.132-.438-5.515-.54-3.045-5.364z"/>
  <path fill="#FF806F" d="M99.3616 126.557s2.2564-1.61 3.9824.076c1.727 1.687 1.195 5.725-.937 5.288-2.133-.438-5.5171-.539-3.0454-5.364z"/>
  <path fill="#FF806F" d="M81.3743 78.9578s1.6252-1.161 2.8702.0551c1.245 1.216.8615 4.1265-.676 3.8109-1.5376-.3156-3.9763-.3882-2.1942-3.866z"/>
  <path fill="#FF806F" d="M56.0386 64.6502s1.6252-1.161 2.8703.055c1.245 1.2161.8615 4.1267-.6761 3.8111-1.5375-.3156-3.9762-.3883-2.1942-3.8661z"/>
  <path fill="#0B6639" d="M46.4626 111.735l2.5846-1.572c.4887-.296 1.0848-.354 1.621-.155l13.455 4.986c.4552.169.6754.685.4824 1.129l-1.192 2.76c-.1801.417-.6579.617-1.0831.453l-15.7355-6.089c-.6521-.252-.7309-1.148-.1324-1.512z"/>
  <path fill="#FFD25E" d="M72.1344 117.405s-3.9746-3.358-9.5265-8.815c-5.7717-5.673-8.2407-5.864-10.1177.024-2.7808 8.725 14.8413 21.602 16.6781 19.705l2.9661-10.914z"/>
  <path stroke="#000" stroke-linecap="round" stroke-linejoin="round" stroke-miterlimit="10" stroke-width="1.5" d="M52.4919 108.613c-2.3793 7.466 10.178 17.969 15.004 19.659"/>
  <path stroke="#000" stroke-linecap="round" stroke-linejoin="round" stroke-miterlimit="10" stroke-width="1.5" d="M207.892 139.017l27.667-.293"/>
  <path fill="#FF5780" d="M43.8322 171.615s18.3004-11.771 3.4137-18.28c-8.5995-3.761-10.9834 2.808-10.8777 5.46.1042 2.652.6518-5.902-6.1062-6.295-9.5071-.554-7.8621 8.418-7.8621 8.418s-1.2106-8.414-8.9266-5.513c-7.00297 2.63-5.87788 15.201 3.9327 18.748 9.809 3.546 26.4262-2.538 26.4262-2.538z"/>
  <path fill="#FFD25E" d="M30.5247 177.004c1.669-.306 17.6571-3.065 15.7778-11.744-2.1926-10.123-9.3409-3.895-10.5492-1.084 0 0-.3898-6.83-6.9891-5.188-6.601 1.64-5.1017 6.483-5.1017 6.483s-3.4387-8.368-8.5136-3.125c-5.0764 5.244-.8203 15.682 12.9893 14.754 13.8097-.929 2.3865-.096 2.3865-.096z"/>
  <path fill="#00CF6E" d="M27.4787 180.92s-6.7247-8.763-19.40089-5.227c-12.67527 3.534 8.27509 12.419 19.40089 5.227z"/>
  <path fill="#1A1A1A" d="M26.2232 179.515l-.0017-.001c-.0016-.001-.0031-.001-.005-.003-.0048-.002-.0113-.006-.0194-.01-.0161-.007-.0402-.019-.0692-.033-.0611-.028-.1477-.068-.2626-.118-.2269-.099-.5597-.239-.9846-.401-.8501-.325-2.074-.741-3.581-1.114-3.0108-.746-7.1725-1.324-11.74397-.636l.19831 1.314c4.34986-.655 8.32826-.106 11.22526.612 1.4471.359 2.6195.758 3.4267 1.066.4043.154.7166.286.9258.377.1053.045.184.082.2355.107.0256.011.0451.021.0577.026.0065.003.0099.005.013.006.0016.001.0016.001.0031.001l.2916-.597c.2919-.596.2905-.596.2905-.596zm-16.6689-2.316c-.36317.055-.61269.393-.55785.757.05483.363.39299.612.75617.557l-.19832-1.314zm16.0856 3.511c.3294.161.7276.025.8888-.306.1615-.329.0253-.727-.3055-.889l-.5833 1.195z"/>
  <path fill="#FF5780" d="M44.1722 172.33c-.8792-3.344-5.2942-4.968-7.6168-2.409-.6013 1.008-.6286 2.126-.625 2.995.5246-2.252-.3305-4.768-2.1161-6.236-1.7857-1.468-3.431-2.636-5.4991-.973-2.0669 1.662-1.7011 4.13-.9389 6.516-.3998-1.476-.8675-3.193-2.0833-4.118-1.2146-.926-3.0372-1.169-4.2634-.26-.7425.551-1.1762 1.431-1.4303 2.321-1.4707 5.154 2.7395 11.479 8.089 11.789 11.8574.685 17.3649-6.279 16.4839-9.625z"/>
</svg>
