<svg width="303" height="251" viewBox="0 0 303 251" fill="none" xmlns="http://www.w3.org/2000/svg">
  <path class="line" d="M273.036 97.645a60.227 60.227 0 018.898 11.701c2.609 4.536 4.439 9.466 4.432 13.989a14.634 14.634 0 01-.619 4.313 12.725 12.725 0 01-2.157 4.251 11.468 11.468 0 01-5.12 3.646 19.713 19.713 0 01-6.825 1.087 42.355 42.355 0 01-11.828-1.949 58.523 58.523 0 01-10.116-4.075c-6.748-3.531-13.455-8.04-20.495-11.877-7.041-3.837-14.423-7.015-22.556-7.789a.905.905 0 00-.614.221.86.86 0 00-.118 1.184.899.899 0 00.558.333c7.765.747 14.924 3.796 21.867 7.579 6.943 3.782 13.657 8.292 20.524 11.898a60.45 60.45 0 0010.435 4.203 43.849 43.849 0 0012.336 2.038 19.3 19.3 0 009.656-2.235 12.69 12.69 0 003.708-3.185 14.535 14.535 0 002.456-4.808c.468-1.563.703-3.185.696-4.814 0-4.985-1.969-10.139-4.654-14.839a62.356 62.356 0 00-9.17-12.06.91.91 0 00-1.227.012.863.863 0 00-.067 1.196v-.02zM278.546 186.538h-.89c.001.328-.113.645-.324.899a1.462 1.462 0 01-.835.494c-.328.065-.67.017-.966-.136a1.43 1.43 0 01-.658-.704 1.378 1.378 0 01-.05-.951c.096-.314.301-.584.579-.767.279-.182.613-.264.947-.233a1.465 1.465 0 011.199.86c.073.17.11.354.108.538h1.788a3.11 3.11 0 00-.732-1.999 3.24 3.24 0 00-1.866-1.092 3.29 3.29 0 00-2.151.311 3.179 3.179 0 00-1.462 1.572 3.08 3.08 0 00-.107 2.121c.216.698.674 1.3 1.295 1.706a3.293 3.293 0 004.076-.391 3.116 3.116 0 00.947-2.228h-.898zM15.766 66.48h-.905c.002.328-.113.645-.324.899a1.453 1.453 0 01-.835.493c-.328.066-.67.018-.965-.135a1.426 1.426 0 01-.658-.704 1.38 1.38 0 01-.05-.951c.096-.314.3-.584.579-.767a1.474 1.474 0 011.829.174 1.33 1.33 0 01.424.992h1.788c0-.73-.258-1.436-.732-2a3.243 3.243 0 00-1.865-1.092 3.298 3.298 0 00-2.152.31 3.18 3.18 0 00-1.461 1.573 3.08 3.08 0 00-.107 2.12c.216.699.674 1.301 1.295 1.707a3.29 3.29 0 004.076-.391 3.127 3.127 0 00.946-2.227h-.883z" fill="#000"/>
  <path d="M92.469 28.168h-.181c0 3.964-1.408 7.806-3.984 10.87-2.576 3.064-6.162 5.162-10.145 5.935a17.932 17.932 0 01-11.698-1.694c-3.582-1.868-6.389-4.891-7.943-8.553a16.752 16.752 0 01-.58-11.53c1.178-3.794 3.668-7.071 7.044-9.273a17.886 17.886 0 0111.473-2.806c4.041.389 7.82 2.133 10.691 4.936a17.084 17.084 0 013.808 5.558 16.754 16.754 0 011.334 6.557h.355a17.19 17.19 0 00-3.017-9.718 17.829 17.829 0 00-8.04-6.443 18.322 18.322 0 00-10.352-.997 18.055 18.055 0 00-9.174 4.786 17.362 17.362 0 00-4.903 8.956 17.1 17.1 0 001.021 10.104 17.586 17.586 0 006.601 7.848 18.227 18.227 0 009.956 2.944c4.75 0 9.304-1.842 12.662-5.12 3.359-3.278 5.246-7.724 5.246-12.36h-.174z" fill="#C3C5FD"/>
  <path d="M74.735 45.478c9.794 0 17.734-7.75 17.734-17.31 0-9.56-7.94-17.31-17.734-17.31S57 18.608 57 28.168c0 9.56 7.94 17.31 17.734 17.31z" fill="#C3C4FD"/>
  <path class="line" d="M98.236 28.168h.898c0-6.316-2.571-12.374-7.147-16.84-4.575-4.467-10.781-6.976-17.252-6.976a.91.91 0 00-.635.252.868.868 0 00-.263.618v22.946a.872.872 0 00.265.618c.17.16.397.25.633.252h23.501a.938.938 0 00.633-.252.872.872 0 00.265-.618h-.898v-.876h-22.61V5.222h-.891v.876c2.97-.001 5.91.569 8.654 1.678a22.649 22.649 0 017.336 4.784 22.038 22.038 0 014.901 7.161 21.607 21.607 0 011.72 8.447h.89zM113.062 110.479c-7.402-.91-14.339-3.171-21.073-6.112-10.13-4.346-19.745-10.186-29.791-15.11-10.046-4.923-20.503-8.828-32.247-9.263H28.56c-8.418 0-15.563 2.785-20.6 7.253-2.5 2.18-4.5 4.85-5.871 7.834A22.81 22.81 0 000 104.571c-.042 5.908 2.282 12.271 7.416 18.132 6.046 6.968 14.11 11.762 21.936 16.4a.901.901 0 00.705.15.905.905 0 00.59-.405.866.866 0 00.094-.699.872.872 0 00-.464-.54c-7.827-4.631-15.71-9.351-21.49-16.033-4.87-5.623-7.006-11.545-7.006-17.059.004-3.028.663-6.02 1.934-8.782a21.546 21.546 0 015.44-7.245c4.69-4.163 11.382-6.791 19.397-6.791h1.391a66.527 66.527 0 0121.45 4.666c10.22 3.89 19.876 9.622 29.832 14.756s20.217 9.664 31.669 11.07a.928.928 0 00.709-.142.881.881 0 00.371-.606.855.855 0 00-.207-.676.906.906 0 00-.65-.308l-.056.02z" fill="#000"/>
  <path d="M243.537 216.248c1.373 0 2.69-.544 3.66-1.512a5.149 5.149 0 001.516-3.648v-94.642a5.149 5.149 0 00-1.516-3.648 5.182 5.182 0 00-3.66-1.512H85.484c-1.373 0-2.69.544-3.66 1.512a5.15 5.15 0 00-1.516 3.648v94.642a5.15 5.15 0 001.516 3.648 5.184 5.184 0 003.66 1.512" fill="#fff"/>
  <path d="M243.537 217.133c1.61 0 3.154-.637 4.293-1.771a6.049 6.049 0 001.781-4.277v-95.529h-.904v.887h.897c0-1.605-.64-3.145-1.779-4.281a6.085 6.085 0 00-4.295-1.773H85.484c-1.611 0-3.156.638-4.295 1.773a6.047 6.047 0 00-1.779 4.281v94.642a6.028 6.028 0 001.78 4.279 6.069 6.069 0 004.294 1.769v-1.783a4.291 4.291 0 01-3.028-1.249 4.263 4.263 0 01-1.258-3.016v-94.642a4.277 4.277 0 011.26-3.016 4.306 4.306 0 013.026-1.256H243.53a4.307 4.307 0 013.027 1.256 4.277 4.277 0 011.259 3.016v94.642a4.262 4.262 0 01-1.258 3.016 4.29 4.29 0 01-3.028 1.249v1.783h.007z" fill="#000"/>
  <path d="M50.67 242.329v3.253a3.636 3.636 0 001.07 2.568 3.66 3.66 0 002.575 1.066h220.391a3.65 3.65 0 002.573-1.067 3.627 3.627 0 001.065-2.567v-3.253" fill="#fff"/>
  <path d="M49.78 242.329v3.253c0 1.199.477 2.35 1.328 3.198a4.543 4.543 0 003.208 1.324h220.39a4.542 4.542 0 003.207-1.324 4.515 4.515 0 001.329-3.198v-3.253h-1.788v3.253a2.771 2.771 0 01-.815 1.927 2.788 2.788 0 01-1.933.813H54.316a2.787 2.787 0 01-1.956-.801 2.767 2.767 0 01-.827-1.939v-3.253h-1.754z" fill="#000"/>
  <path d="M275.561 244.673a2.775 2.775 0 002.676-3.506 2.776 2.776 0 00-.908-1.404L249.5 216.876a2.79 2.79 0 00-1.767-.631H81.303c-.645 0-1.27.223-1.768.631l-27.828 22.887a2.775 2.775 0 00-.844 3.073 2.775 2.775 0 002.61 1.837h222.088z" fill="#fff"/>
  <path d="M275.561 244.674v.894a3.668 3.668 0 001.517-.319 3.544 3.544 0 001.593-1.387 3.74 3.74 0 00.571-1.977c0-.516-.112-1.027-.327-1.498a3.695 3.695 0 00-1.016-1.303l-27.829-22.887a3.704 3.704 0 00-2.338-.84H81.302a3.703 3.703 0 00-2.337.84l-27.829 22.887c-.433.352-.78.798-1.016 1.303a3.604 3.604 0 00-.327 1.498c.001.941.356 1.847.995 2.539a3.661 3.661 0 002.685 1.151h222.088v-1.782H53.46a1.855 1.855 0 01-1.593-.853 1.99 1.99 0 01-.3-1.041 1.92 1.92 0 01.16-.756c.122-.268.303-.505.53-.693l27.828-22.887c.336-.278.76-.431 1.197-.43h166.437c.436.001.859.153 1.196.43l27.829 22.887c.229.186.41.424.529.693.109.237.166.495.167.756a1.952 1.952 0 01-.522 1.325 1.715 1.715 0 01-.585.423 1.98 1.98 0 01-.786.16l.014.867z" fill="#000"/>
  <path d="M164.664 234.693h78.282l-12.739-14.217H98.814l-12.739 14.217h78.589z" fill="#fff"/>
  <path d="M164.65 234.693v.895h78.296a.894.894 0 00.844-.511.892.892 0 00-.148-.973l-12.746-14.218a.879.879 0 00-.661-.298H98.814a.89.89 0 00-.696.298l-12.739 14.218a.88.88 0 00.177 1.339.903.903 0 00.484.145h78.61v-1.782H88.072l11.131-12.436H229.79l11.131 12.436H164.65v.887z" fill="#000"/>
  <path d="M239.53 117.893H89.387v92.429H239.53v-92.429z" fill="#fff"/>
  <path d="M239.53 210.336h.897v-92.443a.907.907 0 00-.897-.895H89.387a.9.9 0 00-.89.895v92.443a.889.889 0 00.89.888H239.53a.927.927 0 00.633-.257.906.906 0 00.264-.631h-.897v-.895H90.284v-90.653H238.64v91.548h.891z" fill="#000"/>
  <path d="M182.154 161.184a6.637 6.637 0 00-5.482-4.019 6.66 6.66 0 00-6.157 2.889 6.253 6.253 0 00-.877 1.921h-9.35a4.948 4.948 0 00-.634-1.484l3.34-3.329a6.65 6.65 0 003.312.873 6.557 6.557 0 002.588-.52 6.617 6.617 0 004.104-6.131 6.75 6.75 0 00-.521-2.573 6.646 6.646 0 00-3.014-3.35 6.664 6.664 0 00-8.324 1.672 6.618 6.618 0 00-1.478 4.251c-.001.889.179 1.77.529 2.587.091.208.195.423.299.617l-3.381 3.371a6.673 6.673 0 00-6.582.103 6.633 6.633 0 00-3.269 5.695 6.61 6.61 0 001.305 3.941 6.666 6.666 0 0010.856-.23 6.169 6.169 0 00.883-1.915h9.337c.074.27.167.534.278.791.091.211.193.417.306.617l-3.388 3.371a6.653 6.653 0 00-3.207-.818c-.891 0-1.773.177-2.595.52a6.654 6.654 0 00-3.567 3.617 6.621 6.621 0 00.033 5.073 6.704 6.704 0 002.407 2.913 6.655 6.655 0 003.722 1.13 6.483 6.483 0 002.588-.527 6.68 6.68 0 002.947-2.446 6.651 6.651 0 001.116-3.657 6.6 6.6 0 00-.529-2.573 7.818 7.818 0 00-.361-.728l3.332-3.322a6.666 6.666 0 007.719-.78 6.61 6.61 0 001.715-7.543v-.007zm-18.666-10.993a3.074 3.074 0 011.113-1.338 3.039 3.039 0 012.901-.285 3.026 3.026 0 011.872 2.809 3.024 3.024 0 01-.908 2.186 3.054 3.054 0 01-2.173.879 3.055 3.055 0 01-1.17-.242 3.112 3.112 0 01-1.357-1.11 2.986 2.986 0 01-.508-1.706 3.053 3.053 0 01.23-1.193zm-6.77 14.766a3.101 3.101 0 01-2.831 1.866 3.175 3.175 0 01-1.19-.243 3.113 3.113 0 01-1.391-1.11 3.053 3.053 0 01-.515-1.713 2.948 2.948 0 01.243-1.186 3.049 3.049 0 012.783-1.865 3.036 3.036 0 012.547 1.352 3.05 3.05 0 01.278 2.899h.076zm9.741 12.373a3.068 3.068 0 01-2.818 1.872 3.094 3.094 0 01-2.546-1.352 2.992 2.992 0 01-.522-1.713 2.948 2.948 0 01.243-1.186 3.044 3.044 0 012.825-1.866 3.054 3.054 0 012.553 1.362c.333.501.51 1.089.508 1.69a2.945 2.945 0 01-.271 1.193h.028zm12.418-12.373a3.064 3.064 0 01-1.128 1.354 3.093 3.093 0 01-1.69.512 3.19 3.19 0 01-1.196-.243 3.057 3.057 0 01-1.35-1.11 3.007 3.007 0 01-.522-1.713 2.933 2.933 0 01.244-1.186 3.115 3.115 0 011.106-1.345 3.101 3.101 0 012.908-.285 3.18 3.18 0 011.357 1.117c.335.504.514 1.095.515 1.699-.007.414-.1.823-.272 1.2h.028z" fill="#000"/>
  <path d="M244.713 227.765h-6.776l5.677 6.339a.882.882 0 01.148.973.888.888 0 01-.844.511H105.166l-4.063 3.877h155.98l-12.37-11.686" fill="#C3C4FD"/>
  <path d="M235.537 227.765H113.465l-6.386 6.041h133.87l-5.412-6.041z" fill="#C3C4FD"/>
  <path d="M237.937 227.765h-2.4l5.412 6.041h-133.87l-1.885 1.782h137.752a.892.892 0 00.844-.511.884.884 0 00-.148-.973l-5.677-6.339" fill="#000"/>
  <path d="M244.859 227.411h-7.242l.32.354h6.776l12.37 11.686H101.103l4.091-3.863h-.522l-4.467 4.224h157.776l-13.122-12.401z" fill="#C3C5FD"/>
  <path d="M235.217 227.411H113.326l-6.769 6.395h.522l6.387-6.041h122.071l-.32-.354z" fill="#C3C5FD"/>
  <path d="M107.079 233.806h-.522l-1.885 1.782h.521l1.886-1.782zm130.538-6.395h-2.401l.321.354h2.4l-.32-.354z" fill="#000"/>
  <path d="M238.354 51.806v38.858a5.162 5.162 0 001.57 3.688 5.417 5.417 0 003.78 1.527h45.299c.702.001 1.397-.133 2.046-.395a5.356 5.356 0 001.736-1.13 5.209 5.209 0 001.16-1.693 5.107 5.107 0 00.408-1.997V58.65a5.161 5.161 0 00-1.567-3.693 5.418 5.418 0 00-3.783-1.53h-18.834a5.449 5.449 0 01-2.044-.396 5.34 5.34 0 01-1.733-1.131l-3.889-3.79a5.351 5.351 0 00-1.733-1.13 5.452 5.452 0 00-2.045-.397h-15.021c-1.419 0-2.779.55-3.783 1.53a5.161 5.161 0 00-1.567 3.692z" fill="#fff"/>
  <path d="M238.354 51.806h-.89v38.858c0 1.62.659 3.175 1.834 4.322a6.338 6.338 0 004.427 1.79h45.298a6.34 6.34 0 004.428-1.79 6.04 6.04 0 001.834-4.322V58.65a6.04 6.04 0 00-1.834-4.322 6.34 6.34 0 00-4.428-1.79h-18.854a4.536 4.536 0 01-1.702-.333c-.54-.219-1.03-.54-1.442-.944l-3.889-3.789a6.345 6.345 0 00-4.411-1.725h-15.021a6.34 6.34 0 00-4.427 1.79 6.036 6.036 0 00-1.834 4.322h1.788a4.242 4.242 0 01.335-1.665 4.323 4.323 0 01.965-1.412 4.447 4.447 0 011.446-.942 4.533 4.533 0 011.706-.327h15.021c.584 0 1.162.111 1.702.329.539.218 1.03.538 1.443.94l3.909 3.756a6.34 6.34 0 004.411 1.786h18.833a4.535 4.535 0 011.707.328 4.446 4.446 0 011.446.941c.414.404.742.884.965 1.412.223.528.337 1.094.335 1.666v32.005a4.294 4.294 0 01-1.304 3.074 4.51 4.51 0 01-3.149 1.273h-45.298a4.507 4.507 0 01-3.148-1.273 4.294 4.294 0 01-1.304-3.074V51.806h-.898z" fill="#000"/>
  <path d="M289.538 96.573h-46.272a5.006 5.006 0 01-2.226-.518 4.874 4.874 0 01-1.743-1.448 4.739 4.739 0 01-.88-2.062 4.676 4.676 0 01.174-2.227l7.513-22.879a4.767 4.767 0 011.777-2.415 4.95 4.95 0 012.899-.912h46.265a5.007 5.007 0 012.219.526c.687.342 1.282.839 1.736 1.448.454.609.754 1.314.877 2.058a4.682 4.682 0 01-.171 2.222l-7.513 22.88a4.765 4.765 0 01-1.768 2.408 4.954 4.954 0 01-2.887.919z" fill="#fff"/>
  <path d="M289.538 95.88v-.87h-46.272a4.04 4.04 0 01-1.556-.301 3.951 3.951 0 01-1.31-.874 3.875 3.875 0 01-1.155-2.716c.001-.41.067-.818.194-1.209l7.514-22.879a3.924 3.924 0 011.46-1.967 4.08 4.08 0 012.367-.75h46.265a4.04 4.04 0 011.554.279c.494.194.943.482 1.319.85a3.875 3.875 0 011.155 2.716c-.001.41-.067.817-.194 1.208l-7.521 22.92a3.93 3.93 0 01-1.461 1.965 4.087 4.087 0 01-2.366.751v1.746c1.231 0 2.43-.38 3.424-1.089a5.668 5.668 0 002.107-2.85l7.514-22.88a5.529 5.529 0 00.119-3.037 5.632 5.632 0 00-1.51-2.66 5.8 5.8 0 00-1.91-1.264 5.912 5.912 0 00-2.265-.434h-46.265c-1.231 0-2.43.38-3.424 1.089a5.674 5.674 0 00-2.107 2.85l-7.514 22.88a5.52 5.52 0 00-.118 3.037 5.615 5.615 0 001.51 2.66 5.78 5.78 0 001.91 1.264c.717.291 1.487.439 2.264.434h46.265l.007-.87z" fill="#000"/>
  <path class="line" d="M255.636 107.906v4.468c.02.218.122.421.288.569a.91.91 0 001.212 0 .872.872 0 00.288-.569v-4.468a.86.86 0 00-.232-.669.91.91 0 00-1.512.31.86.86 0 00-.044.359z" fill="#000"/>
  <path class="line" d="M254.237 111.015h4.585a.906.906 0 00.583-.282.868.868 0 000-1.187.901.901 0 00-.583-.282h-4.585a.906.906 0 00-.583.282.87.87 0 000 1.187.91.91 0 00.583.282zM219.197 1.837v4.496a.863.863 0 00.288.57.911.911 0 001.212 0 .872.872 0 00.288-.57V1.837a.855.855 0 00-.232-.668.899.899 0 00-.662-.285.916.916 0 00-.662.285.874.874 0 00-.232.668z" fill="#000"/>
  <path class="line" d="M217.805 4.98h4.578a.907.907 0 00.583-.282.87.87 0 000-1.187.907.907 0 00-.583-.281h-4.578a.916.916 0 00-.685.227.874.874 0 00-.291.648.866.866 0 00.291.648.902.902 0 00.685.227z" fill="#000"/>
  <path d="M54.524 202.789l13.817-3.076c8.404-1.864 16.1-5.998 22.21-11.931 6.11-5.933 10.386-13.424 12.34-21.617l7.924-33.065a3.703 3.703 0 00-.151-2.2 3.806 3.806 0 00-1.38-1.746l-31.641-21.907a1.382 1.382 0 00-.981-.224l-38.306 5.949a3.909 3.909 0 00-2.027.967 3.762 3.762 0 00-1.132 1.905l-7.924 33.072a43.88 43.88 0 001.261 24.715c2.784 7.96 7.802 14.997 14.483 20.309l11.013 8.734.494.115z" fill="#fff"/>
  <path d="M54.524 202.789l.195.849 13.824-3.07c8.563-1.902 16.405-6.117 22.632-12.161 6.228-6.045 10.588-13.677 12.585-22.024l7.925-33.072a4.562 4.562 0 00-.407-3.197 4.674 4.674 0 00-1.479-1.659l-31.634-21.908a2.184 2.184 0 00-.786-.339 2.118 2.118 0 00-.508-.061 2.883 2.883 0 00-.348 0l-38.306 5.948a4.815 4.815 0 00-2.497 1.191 4.625 4.625 0 00-1.392 2.348l-7.925 33.072a44.69 44.69 0 001.284 25.187c2.838 8.112 7.955 15.282 14.766 20.693l11.132 8.862.911.21.202-.047-.195-.849.202-.849-.306-.075-10.805-8.577c-6.553-5.205-11.475-12.104-14.205-19.909a42.99 42.99 0 01-1.233-24.232l7.918-33.072c.14-.555.443-1.057.874-1.444.43-.386.969-.64 1.547-.729l38.32-5.949h.16a.429.429 0 01.153.068l31.635 21.907c.389.268.706.623.925 1.036a2.844 2.844 0 01.25 2.014l-7.903 33.031c-1.921 8.031-6.116 15.372-12.107 21.187-5.991 5.814-13.537 9.867-21.775 11.695l-13.817 3.069.202.856.202-.849-.216.849z" fill="#000"/>
  <path d="M56.563 194.056l11.298-2.512c6.87-1.525 13.16-4.904 18.156-9.752 4.996-4.847 8.495-10.968 10.097-17.664l6.958-29.065-27.78-19.232-.418-.095-33.638 5.222-6.957 29.065a35.854 35.854 0 001.732 22.058c2.377 5.754 6.206 10.828 11.132 14.75l8.974 7.13.446.095z" fill="#A577FF"/>
  <path d="M56.563 194.056l.041.17 11.299-2.513c6.9-1.534 13.221-4.931 18.24-9.802 5.019-4.871 8.534-11.021 10.145-17.749l6.957-29.201-27.905-19.32-.487-.109-33.791 5.243-6.957 29.201a36.005 36.005 0 001.74 22.166l.166-.068h-.174v.068c2.402 5.787 6.267 10.885 11.236 14.818l9.044 7.164.494.109h.042l-.042-.17.042-.17-.376-.088-9.01-7.117c-4.906-3.901-8.719-8.952-11.082-14.682l-.167.068h.18v-.034a35.713 35.713 0 01-1.724-21.949l6.957-28.95 33.47-5.229.349.082 27.655 19.143-6.958 28.95c-1.594 6.665-5.075 12.758-10.046 17.584-4.97 4.826-11.232 8.19-18.068 9.71l-11.305 2.512.042.17.041-.17-.048.163z" fill="#C3C5FD"/>
  <rect x="34.709" y="152.161" width="14.228" height="31.423" rx="7.114" transform="rotate(-32.454 34.709 152.161)" fill="#fff"/>
  <rect x="90.644" y="138.088" width="14.228" height="50.897" rx="7.114" transform="rotate(57.984 90.644 138.088)" fill="#fff"/>
  <path d="M91.669 150.954l-.474-.74-34.458 20.889a5.977 5.977 0 01-3.103.869 6.112 6.112 0 01-2.832-.679 5.829 5.829 0 01-2.191-2.038l-9.19-14.505a5.617 5.617 0 01-.892-3.036 5.68 5.68 0 01.696-2.764 5.778 5.778 0 012.087-2.132l.16-.095a5.918 5.918 0 013.103-.869 6.006 6.006 0 012.869.724 5.849 5.849 0 012.148 1.992l5.642 8.869a.885.885 0 00.555.393.913.913 0 00.676-.108l28.525-17.296a5.963 5.963 0 013.11-.869 5.976 5.976 0 012.87.72 5.827 5.827 0 012.146 1.996c.583.91.891 1.962.89 3.035a5.66 5.66 0 01-.741 2.801 5.831 5.831 0 01-2.042 2.096l.474.74.473.74a7.494 7.494 0 002.692-2.784 7.405 7.405 0 00-.174-7.415 7.644 7.644 0 00-2.929-2.758 7.858 7.858 0 00-7.73.217l-27.772 16.842-5.177-8.149a7.52 7.52 0 00-2.852-2.628 7.85 7.85 0 00-3.68-.917 7.796 7.796 0 00-4.05 1.134l-.16.095a7.571 7.571 0 00-2.197 1.996 7.384 7.384 0 00-1.241 2.666 7.298 7.298 0 00-.096 2.928 7.36 7.36 0 001.065 2.739l9.204 14.519a7.55 7.55 0 002.043 2.147 7.76 7.76 0 002.732 1.214 7.828 7.828 0 005.807-.943l34.466-20.896-.452-.74z" fill="#000"/>
  <path d="M164.573 74.9c2.165 0 3.984 1.727 3.984 3.971a3.967 3.967 0 01-3.984 3.972c-2.165 0-3.983-1.727-3.983-3.972 0-2.244 1.818-3.97 3.983-3.97zM194.622 45.635c-7.88-8.373-18.531-13.035-29.962-13.035-11.431 0-22.083 4.661-29.963 13.035-.866.95-.866 2.504.086 3.367.953.863 2.512.863 3.378-.086 6.928-7.424 16.367-11.482 26.499-11.482 10.132 0 19.484 4.058 26.498 11.482.433.518 1.126.777 1.732.777.607 0 1.126-.173 1.646-.605.952-.95.952-2.503.086-3.453z" fill="#6A3DE6"/>
  <path d="M185.876 55.477c-5.802-5.87-13.336-9.065-21.216-9.065-7.881 0-15.415 3.194-21.217 9.065a2.341 2.341 0 000 3.367c.953.95 2.425.95 3.377 0 4.937-4.921 11.258-7.597 17.753-7.597 6.581 0 12.903 2.676 17.752 7.596.433.432 1.04.691 1.732.691a2.37 2.37 0 001.646-.69c1.039-.95 1.039-2.418.173-3.367zM176.264 65.318c-3.118-3.108-7.534-5.007-11.604-5.007h-.174c-4.07 0-8.486 1.9-11.604 5.007a2.341 2.341 0 000 3.367c.433.431 1.126.69 1.732.69.606 0 1.213-.259 1.646-.69 2.251-2.159 5.455-3.626 8.226-3.626h.174c2.771 0 6.061 1.381 8.226 3.626.953.95 2.425.95 3.378 0 .952-.864.952-2.418 0-3.367z" fill="#6A3DE6"/>
</svg>
