<svg width="96" height="96" viewBox="0 0 96 96" xmlns="http://www.w3.org/2000/svg"><title>Group 6</title><g transform="translate(2 2.3)" stroke="#306FFD" fill="none" fill-rule="evenodd"><path d="M41.1 57.16l15.49-15.49c3.49 1.074 7.39.282 10.084-2.41 2.914-2.915 3.7-7.313 1.994-11.197-.148-.34-.457-.583-.82-.65-.365-.067-.737.05-.998.312l-3.524 3.524c-.91.91-2.395.908-3.305-.002-.91-.91-.91-2.395 0-3.305l3.524-3.523c.26-.262.377-.636.308-1.002-.066-.363-.314-.67-.65-.82-3.886-1.707-8.278-.924-11.196 1.994-2.693 2.693-3.487 6.59-2.412 10.08L34.102 50.166c-3.49-1.075-7.388-.28-10.08 2.412-2.916 2.916-3.7 7.314-1.994 11.197.145.338.453.58.82.65.365.068.736-.044 1-.308l3.523-3.524c.912-.91 2.397-.91 3.307 0 .913.913.91 2.396 0 3.306l-3.523 3.523c-.262.262-.376.636-.31 1 .044.225.15.426.31.585.096.097.212.18.343.234 3.884 1.705 8.28.923 11.197-1.995 2.69-2.696 3.482-6.596 2.407-10.086zm12.49-30.99c1.86-1.858 4.508-2.592 7.08-2.05l-2.234 2.233c-1.784 1.785-1.784 4.69 0 6.473 1.786 1.786 4.69 1.786 6.474 0l2.234-2.232c.542 2.57-.193 5.22-2.052 7.08-3.047 3.046-8.105 2.945-11.277-.227-3.17-3.17-3.272-8.23-.225-11.276zm-3.023 10.692c.455.773 1 1.504 1.66 2.167.665.662 1.4 1.21 2.17 1.66L40.12 54.964c-.448-.773-1-1.503-1.662-2.167-.663-.662-1.396-1.21-2.167-1.66L50.567 36.86zM30.027 67.71l2.234-2.233c1.786-1.785 1.787-4.69 0-6.475-1.784-1.785-4.688-1.784-6.473 0l-2.233 2.234c-.542-2.572.19-5.218 2.05-7.08 3.05-3.048 8.106-2.946 11.277.226 3.173 3.17 3.275 8.228.227 11.276-1.862 1.862-4.513 2.593-7.08 2.052z" fill="#306FFD"/><circle stroke-width="3" cx="46" cy="46" r="46"/></g></svg>
