<svg xmlns="http://www.w3.org/2000/svg" width="222" height="122" viewBox="0 0 222 122"><path fill="#306EFD" d="M119.7 28.5l-10.5 10.4V13.5H84.6v3.1H106v22.3L95.5 28.5l-2.3 2.2 14.4 14.2 14.3-14.2m55.8-17.1l-2.3 2.2 10.5 10.5h-25.6v24.3h3.2V29.4h22.4l-10.5 10.4 2.3 2.3L192 27.8M61.4 25.2V40L43.3 22 26 39.2l2.2 2.2 15.1-14.9 15.9 15.7H44.3v3.2h20.3V25.2M23.5 61.5h15.7v-3.1H23.5m65.2 3.1h15.7v-3.1H88.7m22.3 3.1h15.6v-3.1H111m32.3 3.1H159v-3.1h-15.7m22.3 3.1h15.6v-3.1h-15.6"/><path fill="#4DE5FF" d="M23.5 88.6h174.8v-3.2H23.5m0 22.7h80.8v-3.2H23.5m95.3 3.2h46.8v-3.2h-46.8"/></svg>
