<svg xmlns="http://www.w3.org/2000/svg" width="222" height="122" viewBox="0 0 222 122"><path fill="#306EFD" d="M163.8 110.1H37c-5.3 0-9.5-4.3-9.5-9.5V11h145.9v45h-2.8V13.8H30.3v86.8c0 3.7 3 6.7 6.8 6.7h126.8v2.8z"/><path fill="#306EFD" d="M28.9 36.7H172v-2.8H28.9m14.6-10.1c0 2-1.6 3.5-3.6 3.5s-3.6-1.6-3.6-3.5c0-2 1.6-3.5 3.6-3.5s3.6 1.6 3.6 3.5m11.9 0c0 2-1.6 3.5-3.6 3.5s-3.6-1.6-3.6-3.5c0-2 1.6-3.5 3.6-3.5s3.6 1.6 3.6 3.5m11.8 0c0 2-1.6 3.5-3.6 3.5S60 25.7 60 23.8c0-2 1.6-3.5 3.6-3.5 2.1 0 3.6 1.6 3.6 3.5M40 56.1h47v-2.7H40m0 31.9h47v-2.7H40m54.5-26.5H113v-2.7H94.5M40 70.7h62V68H40"/><path fill="#FFF" d="M112 107.4h76.3c2-4.9 3-10.1 3-15.5 0-22.6-18.4-41-41.1-41h-.2c-22.7 0-41.1 18.4-41.1 41 0 5.3 1.1 10.5 3.1 15.5zm78.1 2.7h-80l-.4-.8c-2.4-5.5-3.6-11.4-3.6-17.4 0-24.1 19.7-43.8 43.9-43.8h.2c24.2 0 43.9 19.6 43.9 43.8 0 6.1-1.2 11.9-3.6 17.4l-.4.8z"/><path fill="#4DE5FF" d="M148.8 70.5h2.7v-8h-2.7M132.4 79l-5.2-5.3 2-1.9 5.2 5.2m-12.3 19.1h7.4v-2.8h-7.4m28-12.8c-4.8 0-8.8 3.9-8.8 8.7 0 4.8 3.9 8.7 8.8 8.7 4.8 0 8.8-3.9 8.8-8.7 0-4.8-3.9-8.7-8.8-8.7m0 20.3c-6.4 0-11.5-5.2-11.5-11.5 0-6.4 5.2-11.5 11.5-11.5s11.5 5.2 11.5 11.5c.1 6.3-5.1 11.5-11.5 11.5"/><path fill="#4DE5FF" d="M151.1 90.2l-1.9-2L170.5 67l2 1.9"/></svg>
