<svg xmlns="http://www.w3.org/2000/svg" width="222" height="122" viewBox="0 0 222 122"><path fill="#4DE5FF" d="M153.9 45.8h2.8v-8.9h-2.8m-89.3 8.9h2.8v-8.9h-2.8m89.3 47.2h2.8v-8.8h-2.8m-89.3 8.8h2.8v-8.8h-2.8"/><path fill="#306EFD" d="M52.5 6v32.3h116.3V6H52.5zM166 35.5H55.3V8.8H166v26.7zM52.5 44.4v32.3h116.3V44.4H52.5zM166 73.9H55.3V47.2H166v26.7zM52.5 82.7V115h116.3V82.7H52.5zM166 112.2H55.3V85.5H166v26.7z"/><path fill="#FFF" d="M73 18.6c-1.9 0-3.5 1.6-3.5 3.5s1.6 3.5 3.5 3.5 3.5-1.6 3.5-3.5-1.5-3.5-3.5-3.5m0 9.9c-3.5 0-6.3-2.8-6.3-6.3s2.8-6.3 6.3-6.3 6.3 2.8 6.3 6.3-2.8 6.3-6.3 6.3M73 57c-1.9 0-3.5 1.6-3.5 3.5S71.1 64 73 64s3.5-1.6 3.5-3.5S75 57 73 57m0 9.9c-3.5 0-6.3-2.8-6.3-6.3s2.8-6.3 6.3-6.3 6.3 2.8 6.3 6.3c0 3.4-2.8 6.3-6.3 6.3m0 30c-1.9 0-3.5 1.6-3.5 3.5s1.6 3.5 3.5 3.5 3.5-1.6 3.5-3.5-1.5-3.5-3.5-3.5m0 9.9c-3.5 0-6.3-2.8-6.3-6.3s2.8-6.3 6.3-6.3 6.3 2.8 6.3 6.3c0 3.4-2.8 6.3-6.3 6.3"/></svg>
