<svg xmlns="http://www.w3.org/2000/svg" width="222" height="122" viewBox="0 0 222 122" enable-background="new 0 0 222 122"><defs><filter id="a" filterUnits="userSpaceOnUse" x="53.5" y="11.8" width="114" height="106.4"><feColorMatrix values="1 0 0 0 0 0 1 0 0 0 0 0 1 0 0 0 0 0 1 0"/></filter></defs><mask maskUnits="userSpaceOnUse" x="53.5" y="11.8" width="114" height="106.4" id="b"><path fill="#FFF" d="M167.5 11.8v106.3h-114V11.8z" filter="url(#a)"/></mask><path mask="url(#b)" fill="#306EFD" d="M67.4 14.7c-6 0-11 4.9-11 11v78.6c0 6 4.9 11 11 11h86.2c6 0 11-4.9 11-11V25.6c0-6-4.9-11-11-11H67.4zm86.2 103.4H67.4c-7.7 0-13.9-6.2-13.9-13.9V25.6c0-7.7 6.2-13.9 13.9-13.9h86.2c7.7 0 13.9 6.2 13.9 13.9v78.6c0 7.7-6.2 13.9-13.9 13.9z"/><path fill="#FFF" d="M132 23.4h2.9V3.5H132M148.2 23.4h2.9V3.5h-2.9M116.4 23.4h2.9V3.5h-2.9M100.7 23.4h2.9V3.5h-2.9M85.1 23.4H88V3.5h-2.9M69.4 23.4h3V3.5h-3"/><path fill="#4DE5FF" d="M77.8 41.3h66.6v-2.9H77.8M77.8 58.6h66.6v-2.9H77.8M77.8 75.9h66.6V73H77.8M125.8 93.2h18.6v-2.9h-18.6M77.8 93.2h48v-2.9h-48"/></svg>
