<svg xmlns="http://www.w3.org/2000/svg" width="222" height="122" viewBox="0 0 222 122"><path fill="#306EFE" d="M196 26.9v-2.7h-31.5V6h-2.7v18.2H46.6V6h-2.7v18.2H20.5v2.7h23.3v68.3H20.5V98h23.3v14.2h2.7V98h115.2v8.7h2.7V98H196v-2.7h-31.5V26.9H196zm-34.3 68.4H46.6V26.9h115.2v68.4z"/><path fill="#306EFE" d="M57.5 36.1v50h95.1v-50H57.5zm92.4 47.3H60.3V38.8h89.6v44.6z"/><path fill="#1F2534" d="M184 60.7h-79.6v38.1c0 7.8 6.3 14.1 14.1 14.1H184c7.8 0 14.1-6.3 14.1-14.1v-24c0-7.8-6.4-14.1-14.1-14.1z"/><path fill="#306EFE" d="M184 57.9h-82.3v40.9c0 9.3 7.6 16.9 16.8 16.9H184c9.3 0 16.8-7.6 16.8-16.9v-24c0-9.3-7.5-16.9-16.8-16.9zm14.1 40.9c0 7.8-6.3 14.1-14.1 14.1h-65.5c-7.8 0-14.1-6.3-14.1-14.1V60.7H184c7.8 0 14.1 6.3 14.1 14.1v24z"/><defs><filter id="a" filterUnits="userSpaceOnUse" x="117.2" y="73.1" width="68.1" height="2.7"><feColorMatrix values="1 0 0 0 0 0 1 0 0 0 0 0 1 0 0 0 0 0 1 0"/></filter></defs><mask maskUnits="userSpaceOnUse" x="117.2" y="73.1" width="68.1" height="2.7" id="b"><path fill="#FFF" d="M101.6 115.7h99.2V57.9h-99.2z" filter="url(#a)"/></mask><path mask="url(#b)" fill="#30C0E5" d="M117.2 75.8h68.1v-2.7h-68.1"/><defs><filter id="c" filterUnits="userSpaceOnUse" x="117.2" y="85.4" width="68.1" height="2.7"><feColorMatrix values="1 0 0 0 0 0 1 0 0 0 0 0 1 0 0 0 0 0 1 0"/></filter></defs><mask maskUnits="userSpaceOnUse" x="117.2" y="85.4" width="68.1" height="2.7" id="d"><path fill="#FFF" d="M101.6 115.7h99.2V57.9h-99.2z" filter="url(#c)"/></mask><path mask="url(#d)" fill="#30C0E5" d="M117.2 88.2h68.1v-2.8h-68.1"/><defs><filter id="e" filterUnits="userSpaceOnUse" x="117.2" y="97.8" width="68.1" height="2.7"><feColorMatrix values="1 0 0 0 0 0 1 0 0 0 0 0 1 0 0 0 0 0 1 0"/></filter></defs><mask maskUnits="userSpaceOnUse" x="117.2" y="97.8" width="68.1" height="2.7" id="f"><path fill="#FFF" d="M101.6 115.7h99.2V57.9h-99.2z" filter="url(#e)"/></mask><path mask="url(#f)" fill="#30C0E5" d="M117.2 100.5h68.1v-2.7h-68.1"/></svg>
