<svg width="96" height="96" viewBox="0 0 96 96" xmlns="http://www.w3.org/2000/svg"><title>Group 8</title><g transform="translate(2 2.3)" fill="none" fill-rule="evenodd"><path d="M17.488 54.747c0-15.96 12.932-28.896 28.884-28.896 15.953 0 28.886 12.938 28.886 28.897" stroke="#306FFD" stroke-width="3" stroke-linecap="round"/><path d="M25.226 54.747c0-11.682 9.468-21.153 21.147-21.153 11.678 0 21.145 9.47 21.145 21.153" stroke="#306FFD" stroke-width="3" stroke-linecap="round"/><path d="M50.35 52.822c0 2.197-1.782 3.977-3.978 3.977-2.195 0-3.975-1.78-3.975-3.978 0-2.196 1.78-3.977 3.975-3.977 2.196 0 3.977 1.78 3.977 3.977" fill="#306FFD"/><path d="M50.35 53.582c0 2.198-1.782 3.977-3.978 3.977-2.195 0-3.975-1.78-3.975-3.978 0-2.196 1.78-3.977 3.975-3.977 2.196 0 3.977 1.78 3.977 3.977zM45.62 25.85v7.744M66.797 34.315l-5.472 5.474M25.948 34.315l5.473 5.474M25.226 54.744h-7.738M75.258 54.744h-7.74M46.76 53.603l9.853-8.644" stroke="#306FFD" stroke-width="3" stroke-linecap="round"/><circle stroke="#306FFD" stroke-width="3" cx="46" cy="46" r="46"/></g></svg>
