<svg xmlns="http://www.w3.org/2000/svg" width="600" height="450" fill="none" viewBox="0 0 600 450"><rect width="600" height="450" fill="#ECDFFF" rx="15"/><g filter="url(#a)"><g clip-path="url(#b)"><rect width="507.821" height="358.053" x="46" y="46" fill="#fff" rx="5.951"/><path fill="#C9C3D2" d="M40.049 42.033h525.674v28.763H40.049z"/><circle cx="57.364" cy="57.365" r="3.099" fill="#592ACB"/><circle cx="67.696" cy="57.365" r="3.099" fill="#592ACB"/><circle cx="78.027" cy="57.365" r="3.099" fill="#592ACB"/><path fill="#0C0C0D" d="M89.886 253.666c3.22-.591 7.984-1.708 12.386-2.792l.46 3.613c-4.041 1.052-8.41 2.169-11.827 2.99l-1.019-3.811Zm.428-10.545h11.958v3.646H90.314v-3.646Zm4.369-5.848h3.876v26.446c0 1.905-.36 2.891-1.478 3.449-1.117.624-2.694.723-5.026.723-.099-1.018-.624-2.595-1.084-3.581 1.28.033 2.66.033 3.088.033.46 0 .624-.164.624-.624v-26.446Zm7.95 24.869h14.554v3.679h-14.554v-3.679Zm1.019-11.761h13.567v3.909h-13.567v-3.909Zm-.756-10.283h16.327v27.563h-3.778v-23.949h-12.549v-3.614Zm30.75 1.281h19.744v3.548h-19.744v-3.548Zm3.777-4.27h3.778v11.531h-3.778v-11.531Zm8.279 0h3.811v11.531h-3.811v-11.531Zm-10.94 12.549h17.609v17.937h-3.745v-14.487H138.31v14.652h-3.548v-18.102Zm2.004 6.57h13.536v3.351h-13.536v-3.351Zm.099 6.538H150.4v3.45h-13.535v-3.45Zm4.764-11.4h3.548v13.963h-3.548v-13.963Zm-19.12 2.399c2.661-.559 6.636-1.643 10.381-2.661l.493 3.548a439.655 439.655 0 0 1-9.987 2.923l-.887-3.81Zm.525-10.415h9.987v3.614h-9.987v-3.614Zm3.417-6.209h3.614v26.216c0 1.807-.296 2.826-1.314 3.417-.986.624-2.432.756-4.567.756-.098-.986-.526-2.596-1.018-3.647 1.215.033 2.365.033 2.759.033.394 0 .526-.132.526-.591v-26.184Zm37.188 7.228v1.281h14.817v-1.281h-14.817Zm0-3.647v1.249h14.817v-1.249h-14.817Zm-3.778-2.529h22.537v10.02h-22.537v-10.02Zm-3.285 15.867h29.107v3.121h-29.107v-3.121Zm1.61-4.468h25.953v2.957h-25.953v-2.957Zm19.186 5.651c1.971 1.708 5.946 3.318 9.362 4.106-.755.657-1.741 1.939-2.266 2.76-3.515-1.051-7.491-3.318-9.856-5.618l2.76-1.248Zm-18.693 9.231c2.431-.591 6.045-1.642 9.527-2.661l.46 2.694a322.914 322.914 0 0 1-8.345 2.858l-1.642-2.891Zm5.486-16.82h3.811v8.246h-3.811v-8.246Zm10.02 0h3.844v8.115h-3.844v-8.115Zm-4.961 10.217h3.614v6.899c0 1.577-.296 2.333-1.413 2.825-1.117.427-2.661.427-4.763.427-.132-.919-.591-2.102-.986-2.923 1.216.065 2.628.065 3.023.032.394 0 .525-.098.525-.46v-6.8Zm-4.238-2.694 2.957 1.249c-2.332 2.529-6.308 4.862-9.987 5.979-.493-.789-1.511-2.07-2.267-2.727 3.515-.821 7.326-2.563 9.297-4.501Zm7.162 9.1 1.774-2.267c2.99.756 6.801 2.037 9.034 2.891l-1.774 2.53c-2.201-.953-6.044-2.332-9.034-3.154Zm-9.067-3.975 2.858-1.412c.789.657 1.676 1.642 2.07 2.332l-3.023 1.511c-.328-.69-1.149-1.708-1.905-2.431Zm13.404-1.61 3.318 1.544c-1.019.986-1.971 1.873-2.727 2.464l-2.694-1.379c.657-.69 1.643-1.873 2.103-2.629Zm15.342-20.466h24.244v2.726h-24.244v-2.726Zm2.463 7.096h6.407v1.905h-6.407v-1.905Zm-.854 2.858h7.261v1.905h-7.261v-1.905Zm13.601 0h7.293v1.905h-7.293v-1.905Zm-.756 16.721h8.805v2.399h-8.805v-2.399Zm-9.395-5.683h5.256v2.628h-5.256v-2.628Zm10.184-13.896h6.439v1.905h-6.439v-1.905Zm-5.125-5.914h3.844v11.071h-3.844v-11.071Zm-12.451 2.596h28.976v5.946h-3.647v-3.515h-21.814v3.515h-3.515v-5.946Zm4.632 11.531v1.774h4.599v-1.774h-4.599Zm-3.121-2.399h11.039v6.604h-11.039v-6.604Zm14.127 9.495h11.235v7.26h-3.449v-4.961h-4.468v5.027h-3.318v-7.326Zm2.266-7.622c2.234 3.022 6.899 5.059 12.419 5.782-.658.624-1.545 1.905-1.972 2.727-5.782-1.052-10.414-3.713-13.009-7.753l2.562-.756Zm.296-2.99 2.924.493c-1.511 2.497-3.614 4.665-6.768 6.472-.46-.657-1.412-1.544-2.069-1.938 2.858-1.38 4.829-3.253 5.913-5.027Zm6.603 1.479h.592l.525-.164 2.07 1.117c-2.661 4.993-8.443 7.983-14.225 9.494-.328-.723-1.084-1.906-1.675-2.53 5.223-1.084 10.677-3.811 12.713-7.457v-.46Zm-25.131 13.206c3.515-.23 8.771-.591 13.797-1.018l.033 2.825c-4.829.46-9.888.887-13.535 1.216l-.295-3.023Zm18.922-13.206h7.162v2.299h-8.771l1.609-2.299Zm-12.976 5.256h3.285v8.87l-3.285.164v-9.034Zm-4.501 1.84h2.891v6.833l-2.891.296v-7.129Zm44.975-2.563h11.366v2.793h-11.366v-2.793Zm-4.041-16.688h19.612v2.825h-19.612v-2.825Zm.887 4.139h17.806v2.661h-17.806v-2.661Zm-1.906 4.041h21.65v2.825h-21.65v-2.825Zm5.092 12.779h11.4v2.727h-11.4v-2.727Zm-2.891-8.673h14.061v2.858h-10.414v13.503h-3.647v-16.361Zm13.503 0h3.712v12.55c0 1.708-.329 2.661-1.511 3.186-1.183.559-2.793.592-5.092.592-.132-.986-.625-2.431-1.052-3.351 1.314.065 2.891.065 3.351.033.427 0 .592-.132.592-.526v-12.484Zm-6.965-14.52h3.909v11.334h-3.909v-11.334Zm-14.126 0h3.548v30.848h-3.548v-30.848Zm-2.826 6.504 2.76.329c-.066 2.759-.591 6.702-1.249 9.264l-2.89-.985c.722-2.267 1.182-5.947 1.379-8.608Zm5.848-1.018 2.431-1.019c.69 1.512 1.544 3.516 1.905 4.731l-2.562 1.216c-.329-1.282-1.117-3.351-1.774-4.928Zm46.584 9.888h3.811v10.316c0 1.084.131 1.248.789 1.248h1.708c.723 0 .854-.69.953-4.928.788.658 2.431 1.282 3.449 1.577-.361 5.388-1.281 6.866-3.975 6.866h-2.793c-3.186 0-3.942-1.182-3.942-4.73v-10.349Zm-19.678-10.841 2.661-2.661c2.07 1.511 4.599 3.745 5.749 5.421l-2.924 2.989c-1.018-1.675-3.449-4.106-5.486-5.749Zm-.821 19.613c1.839-2.398 4.5-6.373 6.636-10.053l2.562 2.793c-1.84 3.35-4.074 7.03-6.176 10.151l-3.022-2.891Zm14.52-18.824v6.964h10.283v-6.964h-10.283Zm-3.811-3.746h18.102v14.455h-18.102v-14.455Zm3.187 13.601h3.975c-.427 7.359-1.445 12.714-8.771 15.704-.46-.953-1.512-2.399-2.366-3.121 6.308-2.399 6.866-6.538 7.162-12.583Zm22.799 13.108a3.05 3.05 0 0 1-3.055-3.055c0-1.544 1.347-2.924 3.055-2.924 1.61 0 2.924 1.38 2.924 2.924 0 1.675-1.314 3.055-2.924 3.055Zm8.542 0a3.05 3.05 0 0 1-3.055-3.055c0-1.544 1.347-2.924 3.055-2.924 1.61 0 2.924 1.38 2.924 2.924 0 1.675-1.314 3.055-2.924 3.055Zm8.541 0a3.05 3.05 0 0 1-3.055-3.055c0-1.544 1.347-2.924 3.055-2.924 1.61 0 2.924 1.38 2.924 2.924 0 1.675-1.314 3.055-2.924 3.055Zm9.545 0a3.05 3.05 0 0 1-3.055-3.055c0-1.544 1.347-2.924 3.055-2.924 1.61 0 2.924 1.38 2.924 2.924 0 1.675-1.314 3.055-2.924 3.055Zm8.542 0a3.05 3.05 0 0 1-3.055-3.055c0-1.544 1.347-2.924 3.055-2.924 1.61 0 2.924 1.38 2.924 2.924 0 1.675-1.314 3.055-2.924 3.055Zm8.542 0a3.05 3.05 0 0 1-3.056-3.055c0-1.544 1.347-2.924 3.056-2.924 1.609 0 2.923 1.38 2.923 2.924 0 1.675-1.314 3.055-2.923 3.055Z"/><rect width="423.385" height="44.63" x="89.424" y="320.895" fill="#EAEAEA" rx="22.315"/><rect width="91.006" height="44.784" x="88.217" y="320.895" fill="url(#c)" rx="22.392"/><path fill="#fff" d="M115.607 340.349c2.843 0 5.195 1.836 5.195 4.882 0 3.157-2.531 5.329-5.89 5.329-4.5 0-6.538-3.224-6.538-7.703 0-4.792 2.799-8.218 7.054-8.218 1.925 0 3.47.65 4.724 1.657l-1.567 2.508c-.941-.784-1.859-1.254-3.135-1.254-1.993 0-3.359 1.657-3.65 4.255.963-.918 2.351-1.456 3.807-1.456Zm-.874 7.412c1.635 0 2.665-1.142 2.665-2.374 0-1.477-1.254-2.351-2.754-2.351-1.277 0-2.307.694-2.754 1.792.291 1.881 1.119 2.933 2.843 2.933Zm11.724-5.128c-2.284 0-3.829-1.724-3.829-3.918 0-2.217 1.545-3.964 3.852-3.964 2.329 0 3.829 1.769 3.829 3.941 0 2.217-1.568 3.941-3.852 3.941Zm-1.813 7.658 10.703-15.383h2.374l-10.704 15.383h-2.373Zm1.836-9.584c.94 0 1.634-.783 1.634-2.015 0-1.187-.694-1.993-1.657-1.993-.94 0-1.612.784-1.612 1.993s.717 2.015 1.635 2.015Zm9.382 9.831c-2.306 0-3.851-1.747-3.851-3.941 0-2.195 1.567-3.941 3.851-3.941 2.306 0 3.829 1.769 3.829 3.941 0 2.216-1.59 3.941-3.829 3.941Zm0-1.949c.963 0 1.635-.783 1.635-1.992 0-1.21-.717-2.016-1.635-2.016-.985 0-1.657.784-1.657 2.016 0 1.186.694 1.992 1.657 1.992Z"/><rect width="27.776" height="27.776" x="164.232" y="131.895" fill="#592ACB" rx="13.888"/><path fill="#fff" d="M175.798 152.738a1.16 1.16 0 0 1-.82-.34l-3.477-3.477a1.158 1.158 0 0 1 .824-1.964c.304-.003.596.114.815.325l2.5 2.5 7.321-10.458a1.158 1.158 0 0 1 2.084.466c.055.3-.012.61-.184.862l-8.114 11.591a1.15 1.15 0 0 1-.848.495.85.85 0 0 1-.101 0Z"/><path fill="#D9BFFF" d="M192.008 144.046h83.328v3.472h-83.328z"/><rect width="27.776" height="27.776" x="275.336" y="131.895" fill="#592ACB" rx="13.888"/><path fill="#fff" d="M286.901 152.738a1.16 1.16 0 0 1-.82-.34l-3.477-3.477a1.158 1.158 0 0 1 .824-1.964c.304-.003.597.114.815.325l2.5 2.5 7.321-10.458a1.16 1.16 0 0 1 1.9 1.328l-8.114 11.591a1.15 1.15 0 0 1-.848.495.85.85 0 0 1-.101 0Z"/><path fill="#D9BFFF" d="M303.112 144.046h41.664v3.472h-41.664z"/><path fill="#D9BFFF" d="M344.775 144.046h39.06v3.472h-39.06z"/><rect width="31.248" height="31.248" x="382.099" y="130.159" fill="#592ACB" rx="15.624"/><path fill="#fff" d="m404.422 151.257-4.178-4.179a5.215 5.215 0 1 0-1.226 1.226l4.179 4.179a.87.87 0 0 0 1.215-.011.866.866 0 0 0 .01-1.215Zm-8.412-3.72a3.464 3.464 0 0 1-3.399-4.143 3.461 3.461 0 0 1 2.723-2.723 3.46 3.46 0 0 1 3.559 1.474 3.466 3.466 0 0 1-2.883 5.392Z"/><rect width="31.248" height="31.248" x="382.099" y="130.159" stroke="#D9BFFF" stroke-width="3.472" rx="15.624"/><path fill="#592ACB" d="M157.589 173.761h8.843v1.177h-8.843v-1.177Zm-.344 3.729h9.489v1.198h-9.489v-1.198Zm6.041-3.042h1.302v8.5h-1.302v-8.5Zm-3.676 0h1.281v2.74c0 2.01-.261 4.291-2.656 5.802a5.13 5.13 0 0 0-1.021-.938c2.156-1.302 2.396-3.177 2.396-4.864v-2.74Zm13.29 6.958h3.323v1.125H172.9v-1.125Zm-.625-2.833h4.615v4.323h-1.24v-3.198h-2.187v3.239h-1.188v-4.364Zm-.666-1.979a237.2 237.2 0 0 0 4.895-.271l-.01 1.115c-1.677.135-3.469.271-4.76.364l-.125-1.208Zm3.281-1.312.989-.5c.657.875 1.344 2.041 1.594 2.833l-1.083.573c-.219-.781-.865-1.99-1.5-2.906Zm-1.469-2.136 1.386.261c-.428 1.333-.99 2.854-1.459 3.833l-1.052-.271c.427-1.031.896-2.635 1.125-3.823Zm-5.833 2.084h3.375v1.156h-3.375v-1.156Zm1.406-2.084 1.177.136c-.437 2.208-1.083 5.01-1.593 6.885l-1.021-.552c.479-1.636 1.083-4.396 1.437-6.469Zm-.812 6.313.677-.875c1.094.677 2.469 1.687 3.073 2.468l-.75 1c-.584-.781-1.906-1.875-3-2.593Zm2.323-4.229h.208l.219-.032.739.136c-.239 4.062-1.239 6.364-3.312 7.645-.167-.302-.5-.76-.75-1 1.771-.927 2.698-3.229 2.896-6.52v-.229Zm10.551-1.052h6.645v1.135h-6.645v-1.135Zm1.365 2.885v1.031h3.801v-1.031h-3.801Zm-1.136-1.021h6.135v3.073h-6.135v-3.073Zm.979 3.177c.927 1.5 2.896 2.344 5.594 2.594-.261.27-.573.77-.729 1.114-2.823-.385-4.75-1.437-5.885-3.396l1.02-.312Zm1.427-6h1.229v4.76c0 2.125-.531 4.063-3.52 4.958a5.065 5.065 0 0 0-.781-1.041c2.801-.625 3.072-2.219 3.072-3.927v-4.75Zm-3.427-.093 1.167.375c-.708 1.77-1.854 3.635-3.041 4.812-.105-.292-.438-.979-.646-1.281.989-.938 1.958-2.417 2.52-3.906Zm-1.01 2.906 1.177-1.188.011.011v8.103h-1.188v-6.926Zm10.958-2.177h6.395v1.187h-6.395v-1.187Zm0 2.395h6.416v1.167h-6.416v-1.167Zm-.021 2.459h6.479v1.177h-6.479v-1.177Zm-.698-4.854h1.239v3.749c0 1.657-.208 4-1.489 5.396-.198-.24-.708-.656-.979-.813 1.135-1.26 1.229-3.124 1.229-4.593v-3.739Zm6.677 0h1.239v7.614c0 .666-.146 1-.562 1.198-.438.198-1.063.218-2.011.208a4.776 4.776 0 0 0-.406-1.198c.594.042 1.281.031 1.469.031.198-.01.271-.073.271-.25v-7.603Zm-3.469.468h1.271v8.489h-1.271v-8.489ZM267.584 174.313h3.49v1.115h-3.49v-1.115Zm1.74 1.771h1.052v6.833h-1.052v-6.833Zm-1.781 3.999c.896-.145 2.229-.406 3.51-.656l.083 1.042c-1.145.281-2.375.552-3.343.771l-.25-1.157Zm.323-1.27a7.182 7.182 0 0 0-.354-.99c.208-.073.333-.375.489-.843.146-.448.583-2.229.698-3.813l1.135.157c-.239 1.729-.781 3.603-1.312 4.874v.021s-.656.385-.656.594Zm0 0v-1.011l.52-.281h2.636v1.125h-2.386c-.312 0-.677.063-.77.167Zm4.166-3.188h4.177v.99h-4.177v-.99Zm-.614 1.469h2.239v.948h-1.25v4.854h-.989v-5.802Zm1.989 0h.989v4.708c0 .448-.062.729-.343.896-.271.167-.636.177-1.125.177a3.277 3.277 0 0 0-.261-.969c.271.011.532.011.625.011.094-.011.115-.032.115-.125v-4.698Zm-1.229 1.479h1.979v.886h-1.979v-.886Zm-.021 1.417h1.979v.885h-1.979v-.885Zm2.594-2.604h.916v3.812h-.916v-3.812Zm1.322-.406h.959v4.728c0 .5-.084.782-.417.938-.323.156-.792.177-1.458.177a3.574 3.574 0 0 0-.292-.979c.458.01.896.01 1.042.01.125 0 .166-.031.166-.156v-4.718Zm-2.02-3.896 1.01.458c-.864 1.24-2.229 2.302-3.552 2.969a4.7 4.7 0 0 0-.791-.938c1.25-.531 2.614-1.447 3.333-2.489Zm.521.458c.822.938 1.812 1.521 2.947 1.969-.281.26-.604.646-.75.969-1.229-.636-2.229-1.375-3.145-2.552l.948-.386Zm5.447.198h2.948v1.271h-2.948v-1.271Zm2.333 0h1.292c0 1.979.281 5.812 4.145 8.073-.291.229-.791.781-1.01 1.093-3.968-2.385-4.427-7.041-4.427-9.166Zm-.448 2.281 1.438.261c-.729 3.093-2.115 5.333-4.292 6.645-.229-.271-.812-.792-1.135-1.021 2.177-1.104 3.427-3.125 3.989-5.885Zm10.552-2.458h4.801v.979h-4.801v-.979Zm-.167 3h5.156v.979h-5.156v-.979Zm0 1.489h5.114v.979h-5.114v-.979Zm.5 3.479h4.146v.99h-4.146v-.99Zm-1.323-6.478h6.708v1.01h-6.708v-1.01Zm.656 4.499h5.469v3.344h-1.261v-2.375h-3.01v2.406h-1.198v-3.375Zm-1.427-6.374 1.167.375c-.708 1.77-1.854 3.635-3.041 4.812-.105-.292-.438-.979-.646-1.281.989-.938 1.958-2.417 2.52-3.906Zm-1 2.885 1.177-1.188.011.011v8.02h-1.188v-6.843Zm11.739 3.906h1.24v1.5c0 .291.083.333.583.333h1.437c.396 0 .469-.114.521-.885.25.177.781.364 1.115.427-.157 1.25-.5 1.562-1.511 1.562h-1.708c-1.354 0-1.677-.344-1.677-1.427v-1.51Zm1.156-.24.917-.614c.552.416 1.187 1.021 1.479 1.489l-.979.667c-.26-.448-.875-1.094-1.417-1.542Zm3.24.542 1-.635c.729.656 1.531 1.562 1.843 2.27l-1.083.698c-.281-.677-1.031-1.635-1.76-2.333Zm-5.937-.5 1.114.406c-.26.854-.635 1.792-1.271 2.406l-1.041-.729c.562-.5.979-1.302 1.198-2.083Zm1.708-3.458v.521h4.218v-.521h-4.218Zm0 1.427v.521h4.218v-.521h-4.218Zm0-2.844v.521h4.218v-.521h-4.218Zm-1.208-.948h6.687v5.271h-6.687v-5.271Zm2.635-.906 1.521.188c-.24.5-.511.927-.688 1.239l-1.156-.229a8.97 8.97 0 0 0 .323-1.198ZM382.032 179.708v.532h3.531v-.532h-3.531Zm0-1.312v.521h3.531v-.521h-3.531Zm-1.229-.823h6.062v3.49h-6.062v-3.49Zm-1.593-3.25h9.332v1.073h-9.332v-1.073Zm3.999-1.166h1.24v4.125h-1.24v-4.125Zm-.572 1.5 1.041.396c-.896 1.395-2.375 2.583-3.968 3.208a5.278 5.278 0 0 0-.802-1c1.51-.479 2.979-1.5 3.729-2.604Zm2.333-.011c.76 1.084 2.281 2.063 3.833 2.521-.271.229-.636.708-.813 1.021-1.604-.594-3.114-1.771-4.031-3.156l1.011-.386Zm-5.667 6.896h9.156v1.104h-9.156v-1.104Zm10.052-3.094a74.924 74.924 0 0 0 3.729-.896l.146 1.157c-1.209.333-2.531.677-3.552.937l-.323-1.198Zm.125-3.312h3.645v1.166h-3.645v-1.166Zm1.302-1.979h1.219v8.385c0 .593-.115.906-.459 1.093-.354.188-.854.219-1.593.219a4.728 4.728 0 0 0-.344-1.135c.406.021.844.01.979.01.146 0 .198-.052.198-.198v-8.374Zm2.458 2.771 5.698-.553.125 1.167-5.698.583-.125-1.197Zm2.844-2.052.958-.615c.458.448 1.094 1.094 1.406 1.51l-1.01.698c-.282-.427-.896-1.114-1.354-1.593Zm-1.667-.667h1.281c.073 4.51.698 7.947 2.063 8.145.239.031.375-.479.437-1.604.25.271.802.615 1.052.729-.281 1.948-.844 2.427-1.427 2.375-2.562-.26-3.218-3.968-3.406-9.645Zm3.166 3.739 1.032.625c-.948 2.073-2.802 4.062-4.833 5.021-.23-.323-.646-.719-1-.969 2.114-.823 3.937-2.708 4.801-4.677Zm4.75-1.489v.406h4.698v-.406h-4.698Zm0-1.156v.395h4.698v-.395h-4.698Zm-1.198-.802h7.146v3.176h-7.146v-3.176Zm-1.041 5.03h9.228v.99h-9.228v-.99Zm.51-1.416h8.229v.937h-8.229v-.937Zm6.083 1.791c.625.542 1.885 1.052 2.969 1.302-.24.209-.553.615-.719.875-1.115-.333-2.375-1.052-3.125-1.781l.875-.396Zm-5.927 2.927c.771-.187 1.917-.52 3.021-.843l.146.854c-.906.323-1.875.656-2.646.906l-.521-.917Zm1.74-5.333h1.208v2.615H402.5V176.5Zm3.177 0h1.218v2.573h-1.218V176.5Zm-1.573 3.24h1.146v2.187c0 .5-.094.74-.448.896-.354.135-.844.135-1.511.135-.041-.291-.187-.666-.312-.927.385.021.833.021.958.011.125 0 .167-.032.167-.146v-2.156Zm-1.344-.854.938.395c-.74.802-2 1.542-3.167 1.896a4.622 4.622 0 0 0-.719-.864c1.115-.261 2.323-.813 2.948-1.427Zm2.271 2.885.562-.719c.948.24 2.156.646 2.865.917l-.563.802a25.077 25.077 0 0 0-2.864-1Zm-2.875-1.26.906-.448c.25.208.531.52.656.739l-.958.479c-.104-.218-.364-.541-.604-.77Zm4.25-.511 1.052.49c-.323.312-.625.593-.865.781l-.854-.438c.208-.218.521-.593.667-.833Zm4.864-6.489h7.687v.865h-7.687v-.865Zm.781 2.25h2.031v.604h-2.031v-.604Zm-.271.906h2.302v.604h-2.302v-.604Zm4.313 0h2.312v.604h-2.312v-.604Zm-.24 5.302h2.791v.76h-2.791v-.76Zm-2.979-1.802h1.667V181h-1.667v-.833Zm3.229-4.406h2.042v.604h-2.042v-.604Zm-1.625-1.875h1.219v3.51h-1.219v-3.51Zm-3.948.823h9.187v1.885h-1.156v-1.114h-6.916v1.114h-1.115v-1.885Zm1.469 3.656v.562h1.458v-.562h-1.458Zm-.989-.761h3.499v2.094h-3.499v-2.094Zm4.478 3.011h3.563v2.302h-1.094v-1.573h-1.417v1.593h-1.052v-2.322Zm.719-2.417c.708.958 2.188 1.604 3.937 1.833-.208.198-.489.605-.625.865-1.833-.333-3.301-1.177-4.124-2.458l.812-.24Zm.094-.948.927.157c-.479.791-1.146 1.479-2.146 2.052a2.619 2.619 0 0 0-.656-.615c.906-.437 1.531-1.031 1.875-1.594Zm2.094.469h.187l.167-.052.656.354c-.844 1.583-2.677 2.531-4.51 3.01a3.588 3.588 0 0 0-.531-.802c1.656-.343 3.385-1.208 4.031-2.364v-.146Zm-7.969 4.187c1.115-.073 2.781-.187 4.375-.323l.01.896c-1.531.146-3.135.281-4.291.386l-.094-.959Zm6-4.187h2.271v.729h-2.781l.51-.729Zm-4.114 1.667h1.041v2.812l-1.041.052v-2.864Zm-1.427.583h.916v2.166l-.916.094v-2.26Z"/></g></g><defs><radialGradient id="c" cx="0" cy="0" r="1" gradientTransform="matrix(-91.00646 44.78467 -35.48405 -72.10675 179.223 320.895)" gradientUnits="userSpaceOnUse"><stop stop-color="#9D62FC"/><stop offset="1" stop-color="#FD3296"/></radialGradient><clipPath id="b"><rect width="507.821" height="358.053" x="46" y="46" fill="#fff" rx="5.951"/></clipPath><filter id="a" width="531.625" height="381.858" x="34.098" y="38.065" color-interpolation-filters="sRGB" filterUnits="userSpaceOnUse"><feFlood flood-opacity="0" result="BackgroundImageFix"/><feColorMatrix in="SourceAlpha" result="hardAlpha" values="0 0 0 0 0 0 0 0 0 0 0 0 0 0 0 0 0 0 127 0"/><feOffset dy="3.967"/><feGaussianBlur stdDeviation="5.951"/><feComposite in2="hardAlpha" operator="out"/><feColorMatrix values="0 0 0 0 0 0 0 0 0 0 0 0 0 0 0 0 0 0 0.08 0"/><feBlend in2="BackgroundImageFix" result="effect1_dropShadow_1092_11063"/><feBlend in="SourceGraphic" in2="effect1_dropShadow_1092_11063" result="shape"/></filter></defs></svg>
