<svg xmlns="http://www.w3.org/2000/svg" width="514" height="640" fill="none" viewBox="0 0 514 640"><g clip-path="url(#a)"><mask id="c" fill="#fff"><path d="M482.528 123.926c5.841 0 10.575 4.734 10.575 10.575v70.5c0 5.84-4.734 10.575-10.575 10.575v-91.65Z"/></mask><path fill="url(#b)" d="M482.528 123.926c5.841 0 10.575 4.734 10.575 10.575v70.5c0 5.84-4.734 10.575-10.575 10.575v-91.65Z"/><path fill="#BFBFC7" d="M482.528 215.576h-11.75v11.75h11.75v-11.75Zm0-91.65v-11.75h-11.75v11.75h11.75Zm-1.175 10.575v70.5h23.5v-70.5h-23.5Zm12.925 81.075v-91.65h-23.5v91.65h23.5Zm-12.925-10.575c0-.649.526-1.175 1.175-1.175v23.5c12.33 0 22.325-9.995 22.325-22.325h-23.5Zm1.175-69.325a1.175 1.175 0 0 1-1.175-1.175h23.5c0-12.33-9.995-22.325-22.325-22.325v23.5Z" mask="url(#c)"/><path fill="#F9F9FA" stroke="#BFBFC7" stroke-miterlimit="10" stroke-width="9.4" d="M422.391 24.3H79.761C49.13 24.3 24.3 49.13 24.3 79.76v697.952c0 30.63 24.83 55.461 55.46 55.461h342.631c30.63 0 55.46-24.831 55.46-55.461V79.76c0-30.63-24.83-55.46-55.46-55.46Z"/><path fill="url(#d)" d="m152.244 90.385-4.005-2.294-9.144-5.236-.284-.163a4.889 4.889 0 0 0-4.836 0l-.284.165-12.858 7.364-.284.165a4.805 4.805 0 0 0-2.418 4.158v15.382a4.81 4.81 0 0 0 2.418 4.159l13.146 7.528a2.025 2.025 0 0 0 2.755-.731 1.99 1.99 0 0 0-.738-2.734l-12.858-7.363a1.372 1.372 0 0 1-.692-1.189V94.874c.001-.492.265-.946.692-1.19l2.276-1.303 10.568-6.065a1.394 1.394 0 0 1 1.379 0l12.862 7.366c.425.244.688.697.69 1.188v14.732a1.374 1.374 0 0 1-.693 1.189l-4.351 2.491-2.196-3.311a10.336 10.336 0 0 0 3.483-7.734c0-5.736-4.703-10.403-10.486-10.403s-10.487 4.667-10.487 10.403c0 5.736 4.704 10.403 10.487 10.403a10.495 10.495 0 0 0 3.54-.612l3.335 5.029c.052.077.109.151.17.221l.035.035c.07.076.147.146.229.209.02.016.038.033.06.049.09.065.185.123.284.173l.069.03c.088.04.179.073.273.101l.062.02c.106.027.214.044.323.053h.182c.061 0 .122-.008.182-.013h.084c.115-.016.228-.042.339-.077.029-.009.058-.021.088-.033.088-.032.173-.07.256-.114.018-.009.04-.015.058-.027l6.289-3.594a4.81 4.81 0 0 0 2.418-4.164V94.542a4.803 4.803 0 0 0-2.418-4.157Zm-22.312 11.852a6.454 6.454 0 1 1 6.454 6.4 6.435 6.435 0 0 1-6.454-6.4Z"/><path fill="url(#e)" d="m152.244 90.385-4.005-2.294-9.144-5.236-.284-.163a4.889 4.889 0 0 0-4.836 0l-.284.165-12.858 7.364-.284.165a4.805 4.805 0 0 0-2.418 4.158v15.382a4.81 4.81 0 0 0 2.418 4.159l13.146 7.528a2.025 2.025 0 0 0 2.755-.731 1.99 1.99 0 0 0-.738-2.734l-12.858-7.363a1.372 1.372 0 0 1-.692-1.189V94.874c.001-.492.265-.946.692-1.19l2.276-1.303 10.568-6.065a1.394 1.394 0 0 1 1.379 0l12.862 7.366c.425.244.688.697.69 1.188v14.732a1.374 1.374 0 0 1-.693 1.189l-4.351 2.491-2.196-3.311a10.336 10.336 0 0 0 3.483-7.734c0-5.736-4.703-10.403-10.486-10.403s-10.487 4.667-10.487 10.403c0 5.736 4.704 10.403 10.487 10.403a10.495 10.495 0 0 0 3.54-.612l3.335 5.029c.052.077.109.151.17.221l.035.035c.07.076.147.146.229.209.02.016.038.033.06.049.09.065.185.123.284.173l.069.03c.088.04.179.073.273.101l.062.02c.106.027.214.044.323.053h.182c.061 0 .122-.008.182-.013h.084c.115-.016.228-.042.339-.077.029-.009.058-.021.088-.033.088-.032.173-.07.256-.114.018-.009.04-.015.058-.027l6.289-3.594a4.81 4.81 0 0 0 2.418-4.164V94.542a4.803 4.803 0 0 0-2.418-4.157Zm-22.312 11.852a6.454 6.454 0 1 1 6.454 6.4 6.435 6.435 0 0 1-6.454-6.4Z"/><path fill="url(#f)" d="m152.242 90.386-4.005-2.294-5.587-3.198a4.308 4.308 0 0 0-4.16-.062l-2.795 1.485a1.396 1.396 0 0 1 1.38 0l12.862 7.366c.425.244.688.697.69 1.187v14.732a1.37 1.37 0 0 1-.693 1.189l-4.351 2.492.679 1.085a2.844 2.844 0 0 0 3.827.955l2.153-1.232a4.796 4.796 0 0 0 2.418-4.164V94.543a4.793 4.793 0 0 0-2.418-4.157Z"/><path fill="url(#g)" d="M150.627 94.874v7.148h4.033v-7.479a4.793 4.793 0 0 0-2.418-4.157l-4.005-2.294-5.587-3.198a4.308 4.308 0 0 0-4.16-.062l-2.795 1.485a1.4 1.4 0 0 1 1.38 0l12.862 7.366c.426.245.689.7.69 1.191Z"/><path fill="url(#h)" d="M150.627 103.172v6.43a1.37 1.37 0 0 1-.693 1.189l-4.351 2.492.679 1.085a2.843 2.843 0 0 0 3.827.954l2.154-1.231a4.799 4.799 0 0 0 2.418-4.165v-6.754h-4.034Z" opacity=".9"/><path fill="url(#i)" d="m145.276 112.815-1.887-2.845a10.499 10.499 0 0 1-3.464 2.057l2.007 3.028a88.1 88.1 0 0 0 3.344-2.24Z" opacity=".9"/><path fill="#000" d="M171.438 112.31V92.232h4.296l6.225 11.339 6.195-11.339h4.326v20.078h-4.326V99.801l-6.195 11.34-6.225-11.34v12.509h-4.296Zm32.266.351c-4.501 0-8.271-3.624-8.271-7.921 0-4.296 3.77-7.89 8.271-7.89 4.471 0 8.212 3.594 8.212 7.89 0 4.297-3.741 7.921-8.212 7.921Zm0-3.595c2.25 0 4.149-1.987 4.149-4.326 0-2.338-1.899-4.296-4.149-4.296-2.28 0-4.18 1.958-4.18 4.296 0 2.339 1.9 4.326 4.18 4.326Zm10.218 3.244v-3.01l7.599-8.476h-7.394V97.2h12.946v3.011l-7.598 8.475h7.657v3.624h-13.21Zm18.151-17.185a2.326 2.326 0 0 1-2.338-2.338c0-1.198 1.023-2.28 2.338-2.28 1.257 0 2.28 1.082 2.28 2.28 0 1.286-1.023 2.338-2.28 2.338Zm-2.162 17.185V97.2h4.267v15.11h-4.267Zm7.783 0V91.881h4.267v20.429h-4.267Zm7.782 0V91.881h4.267v20.429h-4.267Zm14.534-15.46c3.945 0 6.634 2.484 6.634 6.429v9.031h-4.121v-1.52c-1.081 1.228-2.805 1.871-4.442 1.871-3.215 0-5.699-1.929-5.699-4.823 0-2.981 2.776-5.026 6.284-5.026 1.227 0 2.571.263 3.857.759v-.292c0-1.607-.993-3.01-3.478-3.01-1.402 0-2.717.468-3.916 1.081l-1.432-2.834c2.134-1.082 4.209-1.666 6.313-1.666Zm-.965 12.859c1.637 0 3.186-.76 3.478-2.163v-1.403a9.574 9.574 0 0 0-3.244-.555c-1.549 0-2.776.906-2.776 2.133 0 1.228 1.081 1.988 2.542 1.988Zm19.612 2.601V92.232h2.952l7.044 13.122 7.043-13.122h2.952v20.078h-2.952V98.019l-7.043 13.122-7.044-13.122v14.291h-2.952Zm31.183.351c-4.325 0-7.979-3.624-7.979-7.921 0-4.296 3.654-7.89 7.979-7.89 4.296 0 7.92 3.594 7.92 7.89 0 4.297-3.624 7.921-7.92 7.921Zm0-2.514c2.718 0 5.027-2.455 5.027-5.407 0-2.922-2.309-5.377-5.027-5.377-2.776 0-5.085 2.455-5.085 5.377 0 2.952 2.309 5.407 5.085 5.407Zm18.365-13.297c3.332 0 5.67 2.425 5.67 5.845v9.615h-2.835v-9.118c0-2.251-1.432-3.829-3.478-3.829-2.104 0-3.916 1.374-4.15 3.156v9.791h-2.893V97.2h2.893v2.192c.906-1.49 2.747-2.542 4.793-2.542Zm10.615-2.163a1.759 1.759 0 0 1-1.754-1.754c0-.906.76-1.724 1.754-1.724.935 0 1.724.819 1.724 1.724 0 .936-.789 1.754-1.724 1.754Zm-1.461 17.623V97.2h2.893v15.11h-2.893Zm13.525-2.718 1.052 1.987a4.865 4.865 0 0 1-3.01 1.082c-2.338 0-3.975-1.696-3.975-4.121v-8.885h-2.28V97.2h2.28v-4.15h2.835v4.15h3.565v2.455h-3.565v8.68c0 1.052.701 1.812 1.549 1.812.643 0 1.227-.234 1.549-.555Zm10.535 3.069c-4.326 0-7.979-3.624-7.979-7.921 0-4.296 3.653-7.89 7.979-7.89 4.296 0 7.92 3.594 7.92 7.89 0 4.297-3.624 7.921-7.92 7.921Zm0-2.514c2.718 0 5.026-2.455 5.026-5.407 0-2.922-2.308-5.377-5.026-5.377-2.777 0-5.086 2.455-5.086 5.377 0 2.952 2.309 5.407 5.086 5.407Zm13.718-10.053c.965-1.988 3.01-3.244 5.611-3.244v2.513c-3.127 0-5.348 1.724-5.611 4.355v8.592h-2.893V97.2h2.893v2.894Z"/><path fill="#fff" d="M47.502 161.79a5.65 5.65 0 0 1 5.65-5.649H448.89a5.649 5.649 0 0 1 5.65 5.649v486.072a5.65 5.65 0 0 1-5.65 5.65H53.151a5.65 5.65 0 0 1-5.649-5.65V161.79Z"/><path stroke="#000" stroke-opacity=".1" stroke-width=".706" d="M53.152 155.788a6.002 6.002 0 0 0-6.003 6.002v486.072a6.003 6.003 0 0 0 6.003 6.003H448.89a6.003 6.003 0 0 0 6.003-6.003V161.79a6.002 6.002 0 0 0-6.003-6.002H53.151Z"/><path fill="#6D6D6E" d="m164.503 527.776 1.014.36c-.425 1.225-1.079 2.484-2.272 3.203l-.948-.654c1.111-.654 1.83-1.798 2.206-2.909Zm1.994-.278h1.112v3.204c0 .441.163.523 1.078.523h3.138c.736 0 .867-.213.932-1.635.261.164.703.327 1.013.392-.147 1.798-.49 2.239-1.847 2.239h-3.301c-1.7 0-2.125-.31-2.125-1.519v-3.204Zm.785-.948.621-.719c.997.441 2.223 1.16 2.844 1.716l-.654.801c-.588-.572-1.814-1.34-2.811-1.798Zm6.145 1.896.883-.605c1.111.899 2.369 2.207 2.925 3.122l-.948.67c-.523-.899-1.749-2.255-2.86-3.187Zm-.817-1.961 1.062.474c-2.402 3.203-6.554 5.246-10.819 6.456-.131-.262-.491-.769-.719-1.03 4.298-1.046 8.319-2.975 10.476-5.9Zm-3.579 5.998h1.258v4.396h-1.258v-4.396Zm-4.871.932h1.21v4.707h-1.21v-4.707Zm10.019 0h1.226v4.658h-1.226v-4.658Zm-9.414 2.843h10.068v1.144h-10.068v-1.144Zm4.266-13.173h1.258v2.125h-1.258v-2.125Zm-6.244 1.39h13.86v3.203h-1.242v-2.092H163.98v2.092h-1.193v-3.203Zm29.256 5.769h1.176s-.016.376-.032.556c-.376 4.412-.736 6.112-1.324 6.717-.311.343-.638.474-1.128.49-.408.033-1.16.033-1.961 0a2.94 2.94 0 0 0-.327-1.144c.785.098 1.504.098 1.814.098.278 0 .458-.033.605-.196.474-.441.85-2.108 1.177-6.309v-.212Zm-6.93-6.211h6.063v1.128h-6.063v-1.128Zm.784 2.158 1.144.065a97.656 97.656 0 0 1-.539 5.05h-1.16c.212-1.324.441-3.514.555-5.115Zm-.212 4.053h6.717v1.062h-6.717v-1.062Zm-1.128 3.22h6.26v1.095h-6.26v-1.095Zm6.113-9.431h.131l.196-.049.85.098a132.948 132.948 0 0 1-.752 6.946l-1.161-.081c.294-2.141.621-5.23.736-6.767v-.147Zm-11.98-.081h5.622v1.127h-5.622v-1.127Zm1.601 5.033h3.547v7.061h-3.547v-1.095h2.468v-4.871h-2.468v-1.095Zm.507-4.494 1.144.245c-.588 3.089-1.536 6.064-3.04 8.025-.081-.294-.359-.997-.572-1.324 1.259-1.667 2.027-4.217 2.468-6.946Zm-1.046 4.494h1.079v8.385h-1.079v-8.385Z"/><rect width="11.236" height="11.236" x="141.099" y="525.128" fill="#9059FF" rx="2.043"/><path fill="#6D6D6E" d="M345.856 535.382v-1.184l5.224-8.265h.859v1.834h-.581l-3.946 6.245v.093h7.034v1.277h-8.59Zm5.595 2.437V525.933h1.37v11.886h-1.37Zm6.215-8.914 2.135 3.644 2.136-3.644h1.579l-2.879 4.457 2.879 4.457h-1.579l-2.136-3.459-2.135 3.459h-1.579l2.832-4.457-2.832-4.457h1.579ZM168.132 553.477h7.567v.997h-7.567v-.997Zm-.196 4.528h8.057v1.013h-8.057v-1.013Zm0 2.271h8.024v1.014h-8.024v-1.014Zm.474 5.672h7.093v1.013h-7.093v-1.013Zm-1.815-10.215h10.64v1.03h-10.64v-1.03Zm1.177 6.815h8.368v5.132h-1.226v-4.135h-5.965v4.184h-1.177v-5.181Zm-1.732-9.806 1.16.36c-1.111 2.762-2.86 5.507-4.674 7.322-.115-.278-.458-.916-.687-1.21 1.651-1.553 3.253-3.988 4.201-6.472Zm-1.7 4.217 1.16-1.161.017.017v11.882h-1.177v-10.738Zm16.72-3.106h10.574v1.177H181.06v-1.177Zm0 3.808h10.558v1.161H181.06v-1.161Zm-.082 3.907h10.672v1.16h-10.672v-1.16Zm-.605-7.715h1.21v5.933c0 2.484-.295 5.868-2.239 8.041-.197-.245-.687-.653-.948-.817 1.797-2.026 1.977-4.936 1.977-7.24v-5.917Zm10.771 0h1.209v12.209c0 .801-.196 1.177-.735 1.389-.556.197-1.504.213-3.057.197-.049-.327-.245-.867-.425-1.194 1.161.049 2.272.033 2.583.033.31-.016.425-.114.425-.425v-12.209Zm-5.639.442h1.242v13.287h-1.242v-13.287Zm9.561 4.429h14.661v1.209h-14.661v-1.209Zm7.093-3.678h5.802v1.194h-5.802v-1.194Zm-.735-2.353h1.275v6.603h-1.275v-6.603Zm0 6.848h1.275v8.188h-1.275v-8.188Zm.915 2.729.605-.98c1.798.474 4.282 1.291 5.606 1.928l-.638 1.095c-1.258-.621-3.726-1.52-5.573-2.043Zm12.471-7.812v2.631h7.959v-2.631h-7.959Zm-1.194-1.079h10.411v4.805h-10.411v-4.805Zm-2.271 6.064h14.725v1.144h-14.725v-1.144Zm3.497 2.582h8.336v1.144h-8.336v-1.144Zm7.894 0h1.308s-.033.393-.066.572c-.425 2.877-.817 4.152-1.438 4.691-.392.343-.784.425-1.422.458-.555.032-1.634 0-2.778-.066a2.717 2.717 0 0 0-.425-1.16c1.16.098 2.353.114 2.795.114.392 0 .604-.016.8-.147.491-.392.867-1.602 1.21-4.282l.016-.18Zm-7.583-2.272 1.291.197c-.441 1.438-1.046 3.219-1.52 4.347l-1.308-.229c.491-1.127 1.128-2.942 1.537-4.315Zm25.921.115h1.177s-.017.376-.033.556c-.376 4.412-.735 6.112-1.324 6.717-.31.343-.637.474-1.128.49-.408.033-1.16.033-1.961 0a2.94 2.94 0 0 0-.327-1.144c.785.098 1.504.098 1.814.098.278 0 .458-.032.605-.196.474-.441.85-2.108 1.177-6.309v-.212Zm-6.93-6.211h6.064v1.128h-6.064v-1.128Zm.785 2.158 1.144.065a98.7 98.7 0 0 1-.54 5.05h-1.16c.212-1.324.441-3.514.556-5.115Zm-.213 4.053h6.718v1.062h-6.718v-1.062Zm-1.127 3.22h6.259v1.095h-6.259v-1.095Zm6.112-9.431h.131l.196-.049.85.098a131.877 131.877 0 0 1-.752 6.946l-1.16-.081c.294-2.141.621-5.23.735-6.767v-.147Zm-11.98-.081h5.622v1.127h-5.622v-1.127Zm1.602 5.033h3.546v7.061h-3.546v-1.095h2.468v-4.871h-2.468v-1.095Zm.506-4.494 1.144.245c-.588 3.089-1.536 6.064-3.039 8.025-.082-.294-.36-.997-.572-1.324 1.258-1.667 2.026-4.217 2.467-6.946Zm-1.046 4.494h1.079v8.385h-1.079v-8.385Z"/><rect width="11.236" height="11.236" x="141.099" y="554.751" fill="#C689FF" rx="2.043"/><path fill="#6D6D6E" d="M351.151 566.584c-.766 0-1.449-.131-2.049-.394-.596-.264-1.07-.629-1.422-1.097a2.944 2.944 0 0 1-.568-1.643h1.462c.031.383.163.714.395.993.232.274.536.487.911.638.375.151.791.226 1.248.226.511 0 .963-.089 1.358-.267.395-.178.704-.425.929-.743a1.86 1.86 0 0 0 .336-1.102c0-.438-.108-.822-.325-1.155-.217-.337-.534-.6-.952-.79-.418-.189-.928-.284-1.532-.284h-.952v-1.277h.952c.472 0 .886-.085 1.242-.255.36-.17.64-.41.842-.72.205-.309.307-.673.307-1.091 0-.402-.089-.753-.267-1.051a1.827 1.827 0 0 0-.754-.696c-.321-.166-.701-.25-1.138-.25a3 3 0 0 0-1.161.227 2.175 2.175 0 0 0-.882.644 1.677 1.677 0 0 0-.371 1.01h-1.393a2.83 2.83 0 0 1 .563-1.637 3.55 3.55 0 0 1 1.381-1.103 4.468 4.468 0 0 1 1.886-.394c.736 0 1.366.149 1.893.447.526.294.93.683 1.213 1.166.282.484.423 1.006.423 1.567 0 .67-.176 1.24-.528 1.712-.348.473-.822.799-1.422.981v.093c.751.124 1.337.443 1.759.958.421.511.632 1.143.632 1.898 0 .646-.176 1.226-.528 1.741a3.581 3.581 0 0 1-1.428 1.207c-.603.294-1.29.441-2.06.441Zm7.435-9.077 2.136 3.645 2.135-3.645h1.579l-2.879 4.457 2.879 4.458h-1.579l-2.135-3.459-2.136 3.459h-1.579l2.832-4.458-2.832-4.457h1.579ZM169.684 582.03h6.522v7.142h-6.522v-1.079h5.394v-4.985h-5.394v-1.078Zm.049 3.056h5.835v1.03h-5.835v-1.03Zm2.91 3.481c.686 3.073 2.206 5.541 4.707 6.587-.262.245-.621.735-.801 1.062-2.599-1.291-4.119-3.971-4.871-7.453l.965-.196Zm3.644 1.177.785.85c-.932.784-2.207 1.634-3.155 2.174l-.637-.785c.915-.556 2.255-1.52 3.007-2.239Zm-7.256 6.603-.082-1.095.572-.458 3.661-.882c-.016.343.016.85.049 1.111-3.367.932-3.874 1.111-4.2 1.324Zm0 0a3.613 3.613 0 0 0-.556-1.013c.261-.147.605-.491.605-1.161V582.03h1.209v13.107s-1.258.752-1.258 1.21Zm-4.593-15.004 1.111.327c-.621 1.798-1.683 3.596-2.843 4.789-.099-.262-.425-.883-.638-1.16.997-.965 1.863-2.419 2.37-3.956Zm-.294 1.831h4.004v1.16h-4.249l.245-1.16Zm-.817 2.909h4.592v1.111h-4.592v-1.111Zm-.85 3.334h5.802v1.112h-5.802v-1.112Zm2.173 6.799-.147-1.079.442-.49 3.317-1.602c.033.311.115.801.197 1.046-3.073 1.586-3.531 1.847-3.809 2.125Zm0 0c-.081-.278-.326-.801-.506-1.046.261-.131.621-.408.621-1.062v-7.633h1.16v8.646s-1.275.67-1.275 1.095Zm20.332-13.925h8.025v1.177h-8.025v-1.177Zm4.773 4.871h1.242v7.6c0 .768-.18 1.144-.736 1.34-.556.18-1.487.196-3.089.196a4.534 4.534 0 0 0-.392-1.21c1.16.033 2.255.033 2.55.017.326-.017.425-.082.425-.36v-7.583Zm-5.492-.36h9.218v1.161h-9.218v-1.161Zm-3.269 1.259 1.079-1.063.147.066v9.316h-1.226v-8.319Zm1.896-3.269 1.161.441c-1.275 2.076-3.204 4.184-4.92 5.557-.18-.245-.605-.784-.866-1.013 1.7-1.21 3.497-3.106 4.625-4.985Zm-.67-3.498 1.177.474c-1.095 1.439-2.779 3.024-4.233 4.07-.18-.262-.507-.736-.719-.981 1.356-.915 2.941-2.386 3.775-3.563Zm15.478 2.86h.98v4.675c0 2.386-.31 5.54-3.187 7.42a3.999 3.999 0 0 0-.67-.736c2.697-1.65 2.877-4.592 2.877-6.684v-4.675Zm.572 8.744.768-.555c.752.882 1.667 2.075 2.075 2.827l-.817.654c-.392-.768-1.258-2.01-2.026-2.926Zm-2.664-10.819h5.115v10.019h-.98v-9.006h-3.171v9.038h-.964v-10.051Zm5.524 5.589h8.531v1.144h-8.531v-1.144Zm4.985.654c.621 2.877 1.945 5.475 3.873 6.717-.278.197-.637.638-.833.948-2.043-1.471-3.384-4.216-4.103-7.42l1.063-.245Zm-3.743 8.107a4.067 4.067 0 0 0-.49-.997c.277-.131.719-.442.719-1.095v-12.699h1.144v13.696s-1.373.67-1.373 1.095Zm5.589-14.416 1.128.36c-.931 1.847-2.435 3.628-3.89 4.789a9.188 9.188 0 0 0-.899-.899c1.439-1.03 2.828-2.599 3.661-4.25Zm-5.589 14.416-.131-1.079.49-.474 3.433-1.226c0 .327.049.817.098 1.063-3.155 1.291-3.612 1.487-3.89 1.716Zm12.438-13.37v2.632h7.959v-2.632h-7.959Zm-1.194-1.078h10.411v4.805h-10.411v-4.805Zm-2.271 6.063h14.725v1.144h-14.725v-1.144Zm3.497 2.583h8.336v1.144h-8.336v-1.144Zm7.894 0h1.308s-.033.392-.066.572c-.425 2.876-.817 4.151-1.438 4.69-.392.344-.784.425-1.422.458-.555.033-1.634 0-2.778-.065a2.716 2.716 0 0 0-.425-1.161c1.16.098 2.353.115 2.795.115.392 0 .604-.017.8-.148.491-.392.867-1.601 1.21-4.282l.016-.179Zm-7.583-2.272 1.291.196c-.441 1.438-1.046 3.22-1.52 4.347l-1.308-.228c.491-1.128 1.128-2.942 1.537-4.315Z"/><rect width="11.236" height="11.236" x="141.099" y="583.353" fill="#AB71FF" rx="2.043"/><path fill="#6D6D6E" d="M346.135 595.023v-1.045l3.923-4.295c.461-.503.84-.94 1.138-1.311.298-.376.518-.728.661-1.057.147-.332.221-.681.221-1.044 0-.418-.101-.78-.302-1.086a1.966 1.966 0 0 0-.812-.708 2.644 2.644 0 0 0-1.161-.249c-.457 0-.855.095-1.196.284a1.956 1.956 0 0 0-.783.784c-.182.336-.273.731-.273 1.184h-1.37c0-.697.161-1.308.482-1.834a3.338 3.338 0 0 1 1.312-1.231c.557-.294 1.182-.441 1.874-.441.697 0 1.314.147 1.852.441.537.294.959.691 1.265 1.19.306.499.458 1.054.458 1.666 0 .437-.079.865-.238 1.282-.154.414-.425.877-.812 1.388-.383.506-.915 1.125-1.596 1.857l-2.67 2.855v.093h5.525v1.277h-7.498Zm10.94-8.915 2.136 3.645 2.136-3.645h1.578l-2.878 4.458 2.878 4.457h-1.578l-2.136-3.459-2.136 3.459h-1.579l2.833-4.457-2.833-4.458h1.579ZM162.411 620.291h14.563v1.144h-14.563v-1.144Zm.458-8.467h13.712v1.128h-13.712v-1.128Zm3.334 2.779h7.012v1.046h-7.012v-1.046Zm0 2.827h7.012v1.063h-7.012v-1.063Zm-.784-7.501h1.209v10.868h-1.209v-10.868Zm7.305 0h1.242v10.868h-1.242v-10.868Zm-1.83 12.65.833-.785c1.945.687 4.021 1.585 5.296 2.272l-1.112.801c-1.16-.687-3.105-1.586-5.017-2.288Zm-3.465-.883 1.079.785c-1.455.898-3.678 1.846-5.443 2.418-.18-.245-.556-.67-.817-.931 1.765-.507 4.021-1.471 5.181-2.272Zm20.56-11.767h1.161v11.358h-1.161v-11.358Zm-5.687 6.733 9.822-3.808.474 1.062-9.839 3.825-.457-1.079Zm2.059-5.132h1.209v10.934c0 .932.229 1.144 1.39 1.144h4.2c.997 0 1.177-.457 1.308-2.386a3.59 3.59 0 0 0 1.144.507c-.213 2.255-.605 2.991-2.419 2.991h-4.282c-1.978 0-2.55-.458-2.55-2.272V611.53Zm7.355 1.602h-.147l.294-.245.212-.196.85.359-.049.196c-.016 2.975-.049 5.328-.212 6.031-.131.752-.474 1.063-.981 1.193-.441.115-1.16.131-1.651.115-.032-.344-.163-.85-.31-1.128.457.016 1.046.016 1.258.016.278 0 .458-.065.572-.49.131-.523.164-2.664.164-5.851Zm-9.496-3.171 1.128.36c-1.063 2.746-2.746 5.524-4.495 7.355-.131-.278-.474-.916-.686-1.194 1.618-1.585 3.138-4.037 4.053-6.521Zm-1.732 4.217 1.176-1.193.017.016v11.915h-1.193v-10.738Z"/><rect width="11.236" height="11.236" x="141.099" y="611.954" fill="#45278D" rx="2.043"/><path fill="#6D6D6E" d="M351.314 611.738v11.887h-1.44v-10.378h-.069l-2.902 1.927v-1.462l2.971-1.974h1.44Zm4.463 2.972 2.136 3.645 2.135-3.645h1.579l-2.879 4.457 2.879 4.458h-1.579l-2.135-3.46-2.136 3.46h-1.579l2.832-4.458-2.832-4.457h1.579ZM164.209 500.384h10.82v1.144h-10.82v-1.144Zm4.691-5.884h1.291v12.34c0 .964.196 1.144 1.16 1.144h3.482c.899 0 1.062-.539 1.193-2.648.31.229.833.441 1.226.54-.213 2.484-.622 3.35-2.354 3.35h-3.628c-1.831 0-2.37-.49-2.37-2.403V494.5Zm-4.593 2.354h11.343v8.237h-11.343v-1.193h10.101v-5.851h-10.101v-1.193Zm-.735 0h1.275v9.234h-1.275v-9.234Zm15.069 4.919h14.84v1.226h-14.84v-1.226Zm6.799-2.631h1.275v8.793c0 .817-.229 1.193-.85 1.389-.605.196-1.667.229-3.236.229a6.051 6.051 0 0 0-.54-1.275c1.324.049 2.534.049 2.893.033.343-.017.458-.098.458-.392v-8.777Zm-5.116-3.53h10.673v1.209h-10.673v-1.209Zm10.248 0h.327l.277-.066.932.687c-1.487 1.503-3.808 3.121-5.72 4.102-.18-.278-.556-.67-.801-.883 1.781-.849 3.955-2.402 4.985-3.563v-.277Zm5.017 1.373h7.273v11.26h-1.128v-10.182h-5.066v10.411h-1.079v-11.489Zm.507 4.527h6.031v1.062h-6.031v-1.062Zm.033 4.805h5.949v1.062h-5.949v-1.062Zm2.5-11.817h1.193v3.073h-.049v9.496h-1.095v-9.496h-.049V494.5Zm5.819.85h4.282v1.161h-3.204v12.977h-1.078V495.35Zm4.004 0h.229l.196-.049.833.539a93.973 93.973 0 0 1-2.059 4.887c1.504 1.553 1.863 2.844 1.863 3.972 0 .964-.212 1.749-.768 2.124-.262.18-.637.278-1.03.327a8.411 8.411 0 0 1-1.438.017c-.033-.311-.147-.817-.343-1.161.49.049.964.049 1.307.049.245-.032.491-.065.687-.179.343-.197.441-.72.441-1.292 0-1.013-.441-2.222-1.929-3.693.769-1.7 1.569-3.89 2.011-5.165v-.376Zm10.231 4.364h6.799v9.692h-1.242v-8.581h-4.38v8.663h-1.177v-9.774Zm-7.159 1.275h6.652v1.127h-6.652v-1.127Zm7.731 1.471h5.573v.948h-5.573v-.948Zm0 2.615h5.573v.98h-5.573v-.98Zm0 2.68h5.573v1.03h-5.573v-1.03Zm-4.87-8.629h1.193v10.394h-1.193v-10.394Zm1.013 3.464c.523.409 2.386 2.158 2.795 2.583l-.785.98c-.523-.735-2.043-2.402-2.697-3.007l.687-.556Zm-2.125-6.537h5.247v1.062h-5.247v-1.062Zm6.423.016h6.342v1.046h-6.342v-1.046Zm-6.129-1.667 1.193.294c-.621 1.782-1.585 3.58-2.582 4.756a6.649 6.649 0 0 0-1.029-.686c1.029-1.079 1.912-2.713 2.418-4.364Zm6.423 0 1.194.294c-.54 1.798-1.504 3.514-2.55 4.626-.229-.213-.752-.556-1.046-.719 1.079-.997 1.929-2.566 2.402-4.201Zm-5.736 2.452 1.013-.376c.425.735.899 1.765 1.062 2.402l-1.078.458c-.147-.654-.572-1.7-.997-2.484Zm6.701.016.997-.392c.621.719 1.291 1.732 1.569 2.402l-1.063.442c-.245-.654-.899-1.7-1.503-2.452Zm-6.587 4.691.899.523c-.703 1.961-2.125 4.331-3.383 5.671-.163-.294-.507-.703-.785-.948 1.226-1.144 2.599-3.383 3.269-5.246Zm22.914-7.093h1.161v11.391h-1.161v-11.391Zm-5.148 6.75 8.809-3.71.458 1.046-8.793 3.742-.474-1.078Zm1.765-5.214h1.177v10.934c0 .899.196 1.095 1.291 1.095h3.939c.964 0 1.128-.441 1.242-2.321.294.196.768.392 1.111.458-.196 2.255-.588 2.974-2.304 2.974h-4.021c-1.879 0-2.435-.441-2.435-2.222v-10.918Zm6.832 1.667h-.147l.294-.245.212-.18.867.327-.05.229c0 3.072-.049 5.524-.163 6.161-.098.654-.409.965-.883 1.079-.441.114-1.095.114-1.536.114-.049-.326-.147-.784-.294-1.062.376.016.915.016 1.095.016.245 0 .409-.065.49-.441.098-.425.115-2.746.115-5.998Zm-13.157.735h5.197v1.161h-5.197v-1.161Zm2.108-3.742h1.161v10.607h-1.161v-10.607Zm-2.255 11.032c1.324-.491 3.334-1.34 5.279-2.174l.261 1.095a139.856 139.856 0 0 1-5.05 2.288l-.49-1.209Zm26.951-5.557h4.347v1.177h-4.347v-1.177Zm-6.047 7.616h10.639v1.16h-10.639v-1.16Zm5.622-13.173h1.242v13.761h-1.242v-13.761Zm-3.612 3.465h1.193v10.231h-1.193v-10.231Zm-6.374.359h5.54v1.161h-5.54v-1.161Zm2.239-3.726h1.16v10.46h-1.16v-10.46Zm-2.403 10.869c1.422-.491 3.58-1.357 5.639-2.158l.229 1.079a244.54 244.54 0 0 1-5.41 2.288l-.458-1.209ZM345.856 505.759v-1.184l5.224-8.265h.859v1.834h-.581l-3.946 6.245v.093h7.034v1.277h-8.59Zm5.595 2.437V496.31h1.37v11.886h-1.37Zm6.215-8.914 2.135 3.644 2.136-3.644h1.579l-2.879 4.457 2.879 4.457h-1.579l-2.136-3.459-2.135 3.459h-1.579l2.832-4.457-2.832-4.457h1.579Z"/><rect width="11.236" height="11.236" x="141.099" y="496.526" fill="#592ACB" rx="2.043"/><path fill="#C689FF" d="M284.794 194.159a137.853 137.853 0 0 1 22.319 7.786l-16.923 37.75a96.535 96.535 0 0 0-15.624-5.45l10.228-40.086Z"/><path fill="#AB71FF" d="M307.07 201.925a137.948 137.948 0 0 1 20.666 11.476l-23.11 34.313a96.619 96.619 0 0 0-14.466-8.033l16.91-37.756Z"/><path fill="#45278D" d="M327.104 212.978a137.798 137.798 0 0 1 18.484 14.735l-28.465 30.02a96.618 96.618 0 0 0-12.939-10.315l22.92-34.44Z"/><path fill="#89CFF5" d="M125.557 385.702a137.894 137.894 0 0 1 13.869-139.372l33.383 24.435a96.523 96.523 0 0 0-9.708 97.561l-37.544 17.376Z"/><path fill="#89CFF5" d="M139.206 246.631a137.9 137.9 0 0 1 129.775-55.535l-5.484 41.005a96.524 96.524 0 0 0-90.842 38.875l-33.449-24.345Z"/><path fill="#592ACB" d="M345.588 227.712a137.912 137.912 0 0 1 42.7 109.392 137.911 137.911 0 0 1-57.07 102.63 137.898 137.898 0 0 1-205.574-53.844l37.518-17.433a96.524 96.524 0 0 0 63.082 52.703 96.536 96.536 0 0 0 120.768-86.853 96.53 96.53 0 0 0-29.89-76.574l28.466-30.021Z"/><path fill="#9059FF" d="M125.636 385.872a137.892 137.892 0 0 1-11.649-76.127 137.894 137.894 0 0 1 171.946-115.29l-10.569 39.997a96.523 96.523 0 0 0-53.893 1.33 96.535 96.535 0 0 0-66.47 79.373 96.534 96.534 0 0 0 8.155 53.289l-37.52 17.428Z"/><circle cx="250.703" cy="326.247" r="96.53" fill="#fff"/><path fill="#2A2A2A" d="M240.584 300.881v36.979h-6.699v-30.461h-.217l-8.649 5.525v-6.139l9.191-5.904h6.374Zm8.721 30.118v-5.327l15.691-24.791h8.343v24.611h4.73v5.507h-4.73v6.861h-6.393v-6.861h-17.641Zm17.714-5.507v-17.028h-.289l-10.563 16.739v.289h10.852Z"/><path fill="#5B5B5B" d="M213.902 359.716v1.344h11.025v-1.344h-11.025Zm0-2.394v1.323h11.025v-1.323h-11.025Zm-1.512-1.113h14.112v5.985H212.39v-5.985Zm-2.205 10.206h18.522v1.302h-18.522v-1.302Zm1.029-2.835h16.443v1.26h-16.443v-1.26Zm11.886 3.276c1.302 1.281 3.906 2.562 6.069 3.129-.315.273-.714.798-.945 1.134-2.163-.693-4.809-2.226-6.258-3.738l1.134-.525Zm-11.529 6.3c1.596-.441 3.99-1.218 6.279-1.974l.21 1.113c-2.016.735-4.158 1.491-5.796 2.079l-.693-1.218Zm3.696-11.235h1.512v5.229h-1.512v-5.229Zm6.699 0h1.533v5.145h-1.533v-5.145Zm-3.36 6.51h1.47v4.914c0 .735-.147 1.071-.714 1.281-.567.21-1.47.189-2.898.189a4.345 4.345 0 0 0-.441-1.197c1.029.021 1.974.021 2.247 0 .273 0 .336-.063.336-.315v-4.872Zm-2.856-1.575 1.197.525c-1.449 1.638-4.074 3.192-6.321 3.948-.21-.336-.63-.861-.945-1.134 2.226-.588 4.767-1.932 6.069-3.339Zm4.557 5.355.735-.966c1.953.567 4.494 1.491 5.88 2.079l-.714 1.092c-1.407-.651-3.948-1.617-5.901-2.205Zm-5.817-2.52 1.155-.609c.588.483 1.26 1.218 1.575 1.701l-1.197.672c-.294-.504-.945-1.239-1.533-1.764Zm8.736-.798 1.302.672c-.609.693-1.281 1.407-1.848 1.869l-1.05-.588c.504-.504 1.239-1.386 1.596-1.953Zm9.513-12.558h15.309v1.176h-15.309v-1.176Zm1.365 4.221h4.284v.903h-4.284v-.903Zm-.399 1.848h4.662v.924h-4.662v-.924Zm8.589 0h4.704v.924h-4.704v-.924Zm-.672 10.794h6.006v1.071h-6.006v-1.071Zm-5.88-3.486h3.444v1.155h-3.444v-1.155Zm6.573-9.156h4.326v.903h-4.326v-.903Zm-2.751-3.738h1.533v6.867h-1.533v-6.867Zm-8.043 1.785h17.745v3.528h-1.491v-2.457h-14.826v2.457h-1.428v-3.528Zm2.142 6.762v1.869h4.011v-1.869h-4.011Zm-1.302-1.071h6.678v4.032h-6.678v-4.032Zm8.736 5.838h7.035v4.641h-1.428v-3.591h-4.221v3.633h-1.386v-4.683Zm1.281-4.704c1.47 2.016 4.557 3.507 7.917 4.074-.273.252-.651.777-.84 1.134-3.444-.714-6.552-2.457-8.148-4.851l1.071-.357Zm.588-1.974 1.281.21c-.903 1.491-2.247 2.919-4.179 4.074-.21-.273-.63-.651-.924-.819 1.827-.966 3.129-2.289 3.822-3.465Zm4.263 1.071h.273l.231-.063.84.462c-1.638 3.066-5.334 4.956-8.778 5.859-.147-.315-.462-.798-.735-1.071 3.234-.693 6.804-2.499 8.169-4.956v-.231Zm-16.212 8.841c2.184-.189 5.481-.483 8.694-.819l.021 1.197c-3.087.336-6.279.672-8.547.924l-.168-1.302Zm11.802-8.841h4.809v1.05h-5.544l.735-1.05Zm-7.749 3.276h1.365v5.775l-1.365.084v-5.859Zm-2.856 1.239h1.239v4.599l-1.239.147v-4.746Zm28.035-13.503 1.638.294c-.84 3.633-2.226 7.056-3.927 9.282-.315-.252-1.071-.672-1.512-.882 1.785-2.058 3.066-5.334 3.801-8.694Zm3.465 5.145h.798v2.814c0 1.869 1.029 7.434 6.741 9.891a29.879 29.879 0 0 0-1.029 1.407c-4.41-2.016-6.195-6.363-6.531-8.337-.357 1.995-2.268 6.216-7.35 8.337a7.882 7.882 0 0 0-.966-1.281c6.405-2.52 7.497-8.022 7.497-10.017v-2.814h.84Zm-12.033 9.786c1.218-1.134 3.129-3.066 4.914-4.935l.861 1.365c-1.554 1.68-3.318 3.507-4.746 4.872l-1.029-1.302Zm.672-12.453 1.113-1.134c1.365.882 3.066 2.205 3.885 3.108l-1.176 1.281c-.798-.924-2.457-2.31-3.822-3.255Zm7.938 1.26h9.45v1.554h-10.164l.714-1.554Zm8.904 0h.252l.294-.105 1.155.651c-.546 2.016-1.533 4.2-2.31 5.607a16.028 16.028 0 0 0-1.344-.672c.693-1.26 1.596-3.486 1.953-5.103v-.378Zm3.528 7.413h10.311v1.323h-10.311v-1.323Zm.126-7.329h10.122v1.281h-10.122v-1.281Zm3.78 5.523 1.47.315c-.945 2.058-2.268 4.62-3.234 6.279l-1.386-.483c.945-1.596 2.268-4.179 3.15-6.111Zm3.15 2.583 1.47.189c-.714 4.095-2.919 6.111-7.77 7.14-.105-.42-.42-.987-.714-1.302 4.389-.735 6.363-2.457 7.014-6.027Zm1.323-11.571 1.344.588c-.609.966-1.302 2.016-1.89 2.73l-1.05-.525a21.739 21.739 0 0 0 1.596-2.793Zm-3.906-.42h1.449v9.66h-1.449v-9.66Zm-3.57 1.008 1.197-.504c.588.84 1.155 1.953 1.365 2.709l-1.239.567c-.189-.756-.735-1.911-1.323-2.772Zm3.591 3.444 1.071.63c-1.029 1.764-3.003 3.633-4.809 4.62a6.622 6.622 0 0 0-.861-1.197c1.743-.756 3.675-2.436 4.599-4.053Zm1.26.735c.756.399 3.318 2.016 3.927 2.457l-.861 1.155c-.756-.714-2.94-2.352-3.822-2.94l.756-.672Zm6.09-1.302h7.476v1.47h-7.476v-1.47Zm.525-3.885 1.596.231c-.693 4.116-1.932 7.875-3.78 10.332-.252-.294-.903-.819-1.281-1.071 1.785-2.226 2.877-5.775 3.465-9.492Zm4.137 4.725 1.596.168c-1.008 7.245-3.234 11.76-8.526 14.49-.168-.378-.63-1.071-.945-1.407 4.998-2.352 7.014-6.594 7.875-13.251Zm-3.822.462c.924 5.775 2.94 10.731 6.846 12.789-.378.315-.882.924-1.113 1.344-4.116-2.415-6.111-7.539-7.161-13.902l1.428-.231Zm-10.668 10.038.84-1.071c2.52.966 5.124 2.352 6.636 3.507l-1.092 1.134c-1.449-1.176-3.948-2.583-6.384-3.57Z"/></g><defs><linearGradient id="b" x1="487.816" x2="487.816" y1="123.926" y2="215.576" gradientUnits="userSpaceOnUse"><stop stop-color="#8060FE"/><stop offset="1" stop-color="#626BFA"/></linearGradient><linearGradient id="d" x1="143.726" x2="125.795" y1="87.129" y2="118.184" gradientUnits="userSpaceOnUse"><stop stop-color="#FF980E"/><stop offset=".21" stop-color="#FF7139"/><stop offset=".36" stop-color="#FF5854"/><stop offset=".46" stop-color="#FF4F5E"/><stop offset=".69" stop-color="#FF3750"/><stop offset=".86" stop-color="#F92261"/><stop offset="1" stop-color="#F5156C"/></linearGradient><linearGradient id="e" x1="143.726" x2="125.795" y1="87.129" y2="118.184" gradientUnits="userSpaceOnUse"><stop stop-color="#FFF44F" stop-opacity=".8"/><stop offset=".09" stop-color="#FFF44F" stop-opacity=".7"/><stop offset=".75" stop-color="#FFF44F" stop-opacity="0"/></linearGradient><linearGradient id="f" x1="145.178" x2="145.178" y1="123.182" y2="84.707" gradientUnits="userSpaceOnUse"><stop stop-color="#3A8EE6"/><stop offset=".24" stop-color="#5C79F0"/><stop offset=".63" stop-color="#9059FF"/><stop offset="1" stop-color="#C139E6"/></linearGradient><linearGradient id="g" x1="138.637" x2="154.627" y1="84.567" y2="100.558" gradientUnits="userSpaceOnUse"><stop stop-color="#6E008B" stop-opacity=".5"/><stop offset=".5" stop-color="#C846CB" stop-opacity="0"/></linearGradient><linearGradient id="h" x1="153.121" x2="145.612" y1="104.348" y2="111.857" gradientUnits="userSpaceOnUse"><stop offset=".14" stop-color="#6A2BEA" stop-opacity="0"/><stop offset=".34" stop-color="#642DE4" stop-opacity=".03"/><stop offset=".55" stop-color="#5131D3" stop-opacity=".12"/><stop offset=".76" stop-color="#3139B7" stop-opacity=".27"/><stop offset=".98" stop-color="#054490" stop-opacity=".48"/><stop offset="1" stop-color="#00458B" stop-opacity=".5"/></linearGradient><linearGradient id="i" x1="141.076" x2="143.253" y1="110.805" y2="113.401" gradientUnits="userSpaceOnUse"><stop stop-color="#960E18" stop-opacity=".6"/><stop offset=".19" stop-color="#AC1624" stop-opacity=".48"/><stop offset=".58" stop-color="#E42C41" stop-opacity=".16"/><stop offset=".75" stop-color="#FF3750" stop-opacity="0"/></linearGradient><clipPath id="a"><path fill="#fff" d="M0 0h514v640H0V0Z"/></clipPath></defs></svg>
