<svg xmlns="http://www.w3.org/2000/svg" width="620" height="450" fill="none" viewBox="0 0 620 450"><g clip-path="url(#a)"><rect width="620" height="450" fill="#ECDFFF" rx="15"/><mask id="c" fill="#fff"><path d="M531.528 137.926c5.841 0 10.575 4.734 10.575 10.575v70.5c0 5.84-4.734 10.575-10.575 10.575v-91.65Z"/></mask><path fill="url(#b)" d="M531.528 137.926c5.841 0 10.575 4.734 10.575 10.575v70.5c0 5.84-4.734 10.575-10.575 10.575v-91.65Z"/><path fill="#BFBFC7" d="M531.528 229.576h-11.75v11.75h11.75v-11.75Zm0-91.65v-11.75h-11.75v11.75h11.75Zm-1.175 10.575v70.5h23.5v-70.5h-23.5Zm12.925 81.075v-91.65h-23.5v91.65h23.5Zm-12.925-10.575c0-.649.526-1.175 1.175-1.175v23.5c12.33 0 22.325-9.995 22.325-22.325h-23.5Zm1.175-69.325a1.175 1.175 0 0 1-1.175-1.175h23.5c0-12.33-9.995-22.325-22.325-22.325v23.5Z" mask="url(#c)"/><path fill="#F9F9FA" stroke="#BFBFC7" stroke-miterlimit="10" stroke-width="9.4" d="M471.296 38.3H128.664c-30.63 0-55.46 24.83-55.46 55.46v697.952c0 30.63 24.83 55.461 55.46 55.461h342.632c30.629 0 55.46-24.831 55.46-55.461V93.76c0-30.63-24.831-55.46-55.46-55.46Z"/><path fill="url(#d)" d="m201.244 104.384-4.005-2.294-9.144-5.236-.284-.163a4.888 4.888 0 0 0-4.836 0l-.284.165-12.858 7.365-.284.165a4.804 4.804 0 0 0-2.418 4.157v15.382a4.81 4.81 0 0 0 2.418 4.159l13.146 7.528a2.025 2.025 0 0 0 2.755-.731 1.99 1.99 0 0 0-.738-2.734l-12.858-7.363a1.372 1.372 0 0 1-.692-1.189v-14.722c.001-.492.265-.946.692-1.189l2.276-1.304 10.568-6.065a1.395 1.395 0 0 1 1.379 0l12.862 7.366c.425.245.688.697.69 1.188v14.732a1.374 1.374 0 0 1-.693 1.189l-4.351 2.492-2.196-3.312a10.336 10.336 0 0 0 3.483-7.734c0-5.736-4.703-10.403-10.486-10.403s-10.487 4.667-10.487 10.403c0 5.736 4.704 10.403 10.487 10.403a10.495 10.495 0 0 0 3.54-.612l3.335 5.029c.052.077.109.151.17.221l.035.035c.07.076.147.146.229.209.02.016.038.033.06.049.09.065.185.123.284.173l.069.03c.088.04.179.074.273.101l.062.02c.106.027.214.045.323.053h.182c.061 0 .122-.007.182-.013h.084c.115-.016.228-.042.339-.077.029-.008.058-.021.088-.033.088-.032.173-.07.256-.113.018-.01.04-.016.058-.027l6.289-3.595a4.809 4.809 0 0 0 2.418-4.164v-15.384a4.803 4.803 0 0 0-2.418-4.157Zm-22.312 11.852a6.453 6.453 0 1 1 6.454 6.4 6.434 6.434 0 0 1-6.454-6.4Z"/><path fill="url(#e)" d="m201.244 104.384-4.005-2.294-9.144-5.236-.284-.163a4.888 4.888 0 0 0-4.836 0l-.284.165-12.858 7.365-.284.165a4.804 4.804 0 0 0-2.418 4.157v15.382a4.81 4.81 0 0 0 2.418 4.159l13.146 7.528a2.025 2.025 0 0 0 2.755-.731 1.99 1.99 0 0 0-.738-2.734l-12.858-7.363a1.372 1.372 0 0 1-.692-1.189v-14.722c.001-.492.265-.946.692-1.189l2.276-1.304 10.568-6.065a1.395 1.395 0 0 1 1.379 0l12.862 7.366c.425.245.688.697.69 1.188v14.732a1.374 1.374 0 0 1-.693 1.189l-4.351 2.492-2.196-3.312a10.336 10.336 0 0 0 3.483-7.734c0-5.736-4.703-10.403-10.486-10.403s-10.487 4.667-10.487 10.403c0 5.736 4.704 10.403 10.487 10.403a10.495 10.495 0 0 0 3.54-.612l3.335 5.029c.052.077.109.151.17.221l.035.035c.07.076.147.146.229.209.02.016.038.033.06.049.09.065.185.123.284.173l.069.03c.088.04.179.074.273.101l.062.02c.106.027.214.045.323.053h.182c.061 0 .122-.007.182-.013h.084c.115-.016.228-.042.339-.077.029-.008.058-.021.088-.033.088-.032.173-.07.256-.113.018-.01.04-.016.058-.027l6.289-3.595a4.809 4.809 0 0 0 2.418-4.164v-15.384a4.803 4.803 0 0 0-2.418-4.157Zm-22.312 11.852a6.453 6.453 0 1 1 6.454 6.4 6.434 6.434 0 0 1-6.454-6.4Z"/><path fill="url(#f)" d="m201.243 104.384-4.005-2.294-5.587-3.198a4.308 4.308 0 0 0-4.16-.062l-2.795 1.485a1.395 1.395 0 0 1 1.379 0l12.862 7.366c.425.244.688.697.69 1.187v14.733a1.371 1.371 0 0 1-.693 1.189l-4.35 2.491.678 1.086a2.844 2.844 0 0 0 3.827.954l2.154-1.232a4.795 4.795 0 0 0 2.418-4.164v-15.384a4.793 4.793 0 0 0-2.418-4.157Z"/><path fill="url(#g)" d="M199.627 108.873v7.147h4.034v-7.479a4.793 4.793 0 0 0-2.418-4.157l-4.005-2.294-5.587-3.198a4.308 4.308 0 0 0-4.16-.062l-2.795 1.485a1.395 1.395 0 0 1 1.379 0l12.862 7.366c.427.245.69.7.69 1.192Z"/><path fill="url(#h)" d="M199.627 117.17v6.431a1.37 1.37 0 0 1-.693 1.189l-4.351 2.492.679 1.085a2.844 2.844 0 0 0 3.827.954l2.154-1.232a4.797 4.797 0 0 0 2.418-4.164v-6.755h-4.034Z" opacity=".9"/><path fill="url(#i)" d="m194.276 126.815-1.887-2.845a10.499 10.499 0 0 1-3.464 2.057l2.007 3.028a88.1 88.1 0 0 0 3.344-2.24Z" opacity=".9"/><path fill="#000" d="M220.438 126.31v-20.078h4.296l6.225 11.339 6.195-11.339h4.326v20.078h-4.326v-12.509l-6.195 11.34-6.225-11.34v12.509h-4.296Zm32.266.351c-4.501 0-8.271-3.624-8.271-7.921 0-4.296 3.77-7.89 8.271-7.89 4.471 0 8.212 3.594 8.212 7.89 0 4.297-3.741 7.921-8.212 7.921Zm0-3.595c2.25 0 4.149-1.988 4.149-4.326 0-2.338-1.899-4.296-4.149-4.296-2.28 0-4.18 1.958-4.18 4.296s1.9 4.326 4.18 4.326Zm10.218 3.244v-3.01l7.599-8.476h-7.394V111.2h12.946v3.011l-7.598 8.475h7.657v3.624h-13.21Zm18.151-17.185a2.326 2.326 0 0 1-2.338-2.338c0-1.198 1.023-2.279 2.338-2.279 1.257 0 2.28 1.081 2.28 2.279 0 1.286-1.023 2.338-2.28 2.338Zm-2.162 17.185V111.2h4.267v15.11h-4.267Zm7.783 0v-20.429h4.267v20.429h-4.267Zm7.782 0v-20.429h4.267v20.429h-4.267Zm14.534-15.46c3.945 0 6.634 2.484 6.634 6.429v9.031h-4.121v-1.52c-1.081 1.228-2.805 1.871-4.442 1.871-3.215 0-5.699-1.929-5.699-4.823 0-2.981 2.776-5.026 6.284-5.026 1.227 0 2.571.263 3.857.759v-.292c0-1.607-.993-3.01-3.478-3.01-1.402 0-2.717.468-3.916 1.081l-1.432-2.835c2.134-1.081 4.209-1.665 6.313-1.665Zm-.965 12.859c1.637 0 3.186-.76 3.478-2.163v-1.403a9.574 9.574 0 0 0-3.244-.555c-1.549 0-2.776.906-2.776 2.133 0 1.228 1.081 1.988 2.542 1.988Zm19.612 2.601v-20.078h2.952l7.044 13.122 7.043-13.122h2.952v20.078h-2.952v-14.291l-7.043 13.122-7.044-13.122v14.291h-2.952Zm31.183.351c-4.325 0-7.979-3.624-7.979-7.921 0-4.296 3.654-7.89 7.979-7.89 4.296 0 7.92 3.594 7.92 7.89 0 4.297-3.624 7.921-7.92 7.921Zm0-2.514c2.718 0 5.027-2.455 5.027-5.407 0-2.922-2.309-5.377-5.027-5.377-2.776 0-5.085 2.455-5.085 5.377 0 2.952 2.309 5.407 5.085 5.407Zm18.365-13.297c3.332 0 5.67 2.425 5.67 5.845v9.615h-2.835v-9.118c0-2.251-1.432-3.829-3.478-3.829-2.104 0-3.916 1.374-4.15 3.156v9.791h-2.893V111.2h2.893v2.192c.906-1.49 2.747-2.542 4.793-2.542Zm10.615-2.163a1.759 1.759 0 0 1-1.754-1.754c0-.905.76-1.724 1.754-1.724.935 0 1.724.819 1.724 1.724 0 .936-.789 1.754-1.724 1.754Zm-1.461 17.623V111.2h2.893v15.11h-2.893Zm13.525-2.718 1.052 1.987a4.865 4.865 0 0 1-3.01 1.082c-2.338 0-3.975-1.696-3.975-4.121v-8.885h-2.28V111.2h2.28v-4.15h2.835v4.15h3.565v2.455h-3.565v8.68c0 1.052.701 1.812 1.549 1.812.643 0 1.227-.234 1.549-.555Zm10.535 3.069c-4.326 0-7.979-3.624-7.979-7.921 0-4.296 3.653-7.89 7.979-7.89 4.296 0 7.92 3.594 7.92 7.89 0 4.297-3.624 7.921-7.92 7.921Zm0-2.514c2.718 0 5.026-2.455 5.026-5.407 0-2.922-2.308-5.377-5.026-5.377-2.777 0-5.086 2.455-5.086 5.377 0 2.952 2.309 5.407 5.086 5.407Zm13.718-10.053c.965-1.988 3.01-3.244 5.611-3.244v2.513c-3.127 0-5.348 1.724-5.611 4.355v8.592h-2.893V111.2h2.893v2.894Z"/><path fill="#fff" d="M96.406 175.79a5.65 5.65 0 0 1 5.65-5.649h395.74a5.649 5.649 0 0 1 5.649 5.649v486.072a5.65 5.65 0 0 1-5.649 5.65h-395.74a5.65 5.65 0 0 1-5.65-5.65V175.79Z"/><path stroke="#000" stroke-opacity=".1" stroke-width=".706" d="M102.056 169.788a6.002 6.002 0 0 0-6.003 6.002v486.072a6.003 6.003 0 0 0 6.003 6.003h395.74a6.003 6.003 0 0 0 6.002-6.003V175.79a6.002 6.002 0 0 0-6.002-6.002h-395.74Z"/><path fill="#000" d="m136.656 295.256 3.08.756c-1.036 2.968-2.8 5.824-4.704 7.672-.532-.588-1.736-1.652-2.436-2.128 1.764-1.512 3.248-3.864 4.06-6.3Zm-.224 7.168 3.08.812c-.868 2.184-2.324 4.452-3.668 5.88-.616-.504-1.932-1.316-2.66-1.708 1.344-1.26 2.548-3.164 3.248-4.984Zm.84-4.816h11.144v2.828h-12.264l1.12-2.828Zm3.192 2.156h3.22v8.708c0 1.456-.224 2.268-1.26 2.744-.952.476-2.212.504-3.948.504-.14-.868-.588-2.128-1.036-2.94 1.064.056 2.24.056 2.576.056.336-.028.448-.112.448-.42v-8.652Zm3.836 3.612 2.744-1.176c1.316 1.848 2.604 4.256 3.192 5.936l-2.884 1.372c-.532-1.652-1.848-4.256-3.052-6.132Zm3.276-5.768h.476l.504-.084 2.38.504c-.616 1.904-1.428 4.032-2.1 5.376l-2.856-.56c.532-1.232 1.204-3.22 1.596-4.844v-.392Zm-15.54 15.176h3.332v4.312c0 .84.224.924 1.54.924h3.808c1.064 0 1.26-.336 1.4-2.772.672.504 2.072 1.008 2.968 1.204-.364 3.64-1.316 4.564-4.088 4.564h-4.508c-3.584 0-4.452-.952-4.452-3.892v-4.34Zm2.38-.784 2.24-1.904c1.708.924 3.808 2.38 4.788 3.528l-2.408 2.128c-.896-1.148-2.912-2.744-4.62-3.752Zm9.044 1.848 2.772-1.512c1.988 1.848 4.088 4.424 4.928 6.384l-2.996 1.68c-.728-1.904-2.716-4.62-4.704-6.552Zm-14.896-.98 3.024 1.008c-.756 2.604-1.848 5.18-3.976 6.804l-2.8-1.932c1.904-1.344 3.136-3.528 3.752-5.88Zm2.548-17.64 2.968 1.008c-1.82 3.528-4.732 7.112-7.532 9.352-.364-.672-1.4-2.1-2.016-2.716 2.548-1.82 5.096-4.732 6.58-7.644Zm-2.408 5.852 3.136-3.164.084.028v13.72h-3.22V301.08Zm24.836-1.96h24.976v3.22H153.54v-3.22Zm9.128 9.072h14.672v3.108h-14.672v-3.108Zm-1.092 9.52h16.828v3.108h-16.828v-3.108Zm6.804-14.168h3.388v15.82h-3.388v-15.82Zm-6.02-8.344 3.5.84c-2.072 6.748-5.6 13.552-11.592 17.64-.336-.952-1.12-2.436-1.624-3.248 5.068-3.304 8.26-9.576 9.716-15.232Zm-5.6 11.732h3.388v14.532h-3.388v-14.532Zm43.324-2.408h4.116v12.936c0 3.724-3.22 6.356-7.784 6.356-2.548 0-4.956-.812-6.384-1.932L191.46 319c.952.84 2.632 1.372 4.312 1.372 2.632 0 4.312-1.204 4.312-3.08v-1.596c-1.148 1.4-2.884 2.24-4.788 2.24-3.64 0-6.412-2.856-6.412-6.888s2.772-6.86 6.412-6.86c1.96 0 3.808.924 4.788 2.296v-1.96Zm-3.5 9.968c2.044 0 3.5-1.428 3.5-3.444s-1.456-3.416-3.5-3.416-3.5 1.4-3.5 3.416 1.456 3.444 3.5 3.444ZM207.796 319v-19.572h4.088V319h-4.088Zm14.124-14.812c3.78 0 6.356 2.38 6.356 6.16V319h-3.948v-1.456c-1.036 1.176-2.688 1.792-4.256 1.792-3.08 0-5.46-1.848-5.46-4.62 0-2.856 2.66-4.816 6.02-4.816 1.176 0 2.464.252 3.696.728v-.28c0-1.54-.952-2.884-3.332-2.884-1.344 0-2.604.448-3.752 1.036l-1.372-2.716c2.044-1.036 4.032-1.596 6.048-1.596Zm-.924 12.32c1.568 0 3.052-.728 3.332-2.072v-1.344a9.158 9.158 0 0 0-3.108-.532c-1.484 0-2.66.868-2.66 2.044 0 1.176 1.036 1.904 2.436 1.904Zm16.158 2.828c-2.324 0-4.788-.784-6.524-2.184l1.764-2.828c1.288.924 2.912 1.624 4.844 1.624 1.092 0 1.876-.448 1.876-1.092 0-.896-1.064-1.176-2.548-1.568-2.968-.728-5.264-1.54-5.292-4.396-.028-2.744 2.24-4.704 5.656-4.704 2.072 0 4.116.728 5.712 1.792l-1.652 2.912c-1.316-.812-2.828-1.288-4.06-1.288-1.008 0-1.708.364-1.708.868 0 .784.588 1.008 2.548 1.54 2.492.644 5.264 1.484 5.264 4.648 0 2.856-2.324 4.676-5.88 4.676Zm14.054 0c-2.324 0-4.788-.784-6.524-2.184l1.764-2.828c1.288.924 2.912 1.624 4.844 1.624 1.092 0 1.876-.448 1.876-1.092 0-.896-1.064-1.176-2.548-1.568-2.968-.728-5.264-1.54-5.292-4.396-.028-2.744 2.24-4.704 5.656-4.704 2.072 0 4.116.728 5.712 1.792l-1.652 2.912c-1.316-.812-2.828-1.288-4.06-1.288-1.008 0-1.708.364-1.708.868 0 .784.588 1.008 2.548 1.54 2.492.644 5.264 1.484 5.264 4.648 0 2.856-2.324 4.676-5.88 4.676Zm15.455-3.612c1.148 0 2.548-.532 3.332-1.288l2.604 2.66c-1.288 1.344-3.78 2.24-5.908 2.24-4.312 0-7.672-3.164-7.672-7.616 0-4.368 3.22-7.532 7.448-7.532 4.536 0 7.196 3.444 7.196 8.904h-10.444c.476 1.568 1.736 2.632 3.444 2.632Zm-.028-7.924c-1.54 0-2.828.896-3.36 2.352h6.468c-.392-1.428-1.456-2.352-3.108-2.352Zm15.226 11.536c-2.324 0-4.788-.784-6.524-2.184l1.764-2.828c1.288.924 2.912 1.624 4.844 1.624 1.092 0 1.876-.448 1.876-1.092 0-.896-1.064-1.176-2.548-1.568-2.968-.728-5.264-1.54-5.292-4.396-.028-2.744 2.24-4.704 5.656-4.704 2.072 0 4.116.728 5.712 1.792l-1.652 2.912c-1.316-.812-2.828-1.288-4.06-1.288-1.008 0-1.708.364-1.708.868 0 .784.588 1.008 2.548 1.54 2.492.644 5.264 1.484 5.264 4.648 0 2.856-2.324 4.676-5.88 4.676Zm19.43-19.908h4.088V319h-4.088v-2.072c-1.148 1.512-2.828 2.408-4.872 2.408-3.864 0-6.664-3.136-6.664-7.588 0-4.424 2.8-7.56 6.664-7.56 2.044 0 3.724.896 4.872 2.408v-7.168Zm-3.696 16.464c2.156 0 3.696-1.708 3.696-4.144 0-2.408-1.54-4.116-3.696-4.116-2.268 0-3.864 1.708-3.864 4.116 0 2.436 1.596 4.144 3.864 4.144Zm18.485 3.444c-4.312 0-7.924-3.472-7.924-7.588s3.612-7.56 7.924-7.56c4.284 0 7.868 3.444 7.868 7.56s-3.584 7.588-7.868 7.588Zm0-3.444c2.156 0 3.976-1.904 3.976-4.144s-1.82-4.116-3.976-4.116c-2.184 0-4.004 1.876-4.004 4.116 0 2.24 1.82 4.144 4.004 4.144Zm18.25-.476.98 2.66c-.84.756-2.156 1.26-3.332 1.26-2.548 0-4.34-1.82-4.34-4.424v-7.084h-1.988v-3.304h1.988v-3.976h3.92v3.976h3.136v3.304h-3.136v6.44c0 .952.616 1.624 1.372 1.624.56 0 1.12-.196 1.4-.476Zm10.624 3.92c-4.284 0-7.896-3.472-7.896-7.588s3.64-7.56 7.924-7.56c2.352 0 4.284.952 5.684 2.464l-2.716 2.324c-.728-.812-1.876-1.344-2.996-1.344-2.128 0-3.92 1.876-3.92 4.088 0 2.268 1.792 4.172 3.948 4.172 1.12 0 2.296-.56 3.052-1.4l2.716 2.296c-1.428 1.568-3.388 2.548-5.796 2.548Zm15.067 0c-4.312 0-7.924-3.472-7.924-7.588s3.612-7.56 7.924-7.56c4.284 0 7.868 3.444 7.868 7.56s-3.584 7.588-7.868 7.588Zm0-3.444c2.156 0 3.976-1.904 3.976-4.144s-1.82-4.116-3.976-4.116c-2.184 0-4.004 1.876-4.004 4.116 0 2.24 1.82 4.144 4.004 4.144Zm27.854-11.704c3.024 0 5.348 2.324 5.348 5.6v9.24h-3.92v-8.54c0-1.68-1.064-2.856-2.576-2.856-1.624 0-2.8 1.092-2.8 2.632v8.764h-3.92v-8.54c0-1.68-1.064-2.856-2.548-2.856-1.652 0-2.8 1.092-2.8 2.632V319h-4.088v-14.476h4.088v1.904c.7-1.372 2.128-2.24 3.92-2.24 1.988 0 3.696 1.008 4.592 2.632.756-1.596 2.548-2.632 4.704-2.632Zm11.108 15.148a2.6 2.6 0 0 1-2.604-2.604c0-1.316 1.148-2.492 2.604-2.492 1.372 0 2.492 1.176 2.492 2.492 0 1.428-1.12 2.604-2.492 2.604Zm12.881 0c-4.284 0-7.896-3.472-7.896-7.588s3.64-7.56 7.924-7.56c2.352 0 4.284.952 5.684 2.464l-2.716 2.324c-.728-.812-1.876-1.344-2.996-1.344-2.128 0-3.92 1.876-3.92 4.088 0 2.268 1.792 4.172 3.948 4.172 1.12 0 2.296-.56 3.052-1.4l2.716 2.296c-1.428 1.568-3.388 2.548-5.796 2.548Zm15.067 0c-4.312 0-7.924-3.472-7.924-7.588s3.612-7.56 7.924-7.56c4.284 0 7.868 3.444 7.868 7.56s-3.584 7.588-7.868 7.588Zm0-3.444c2.156 0 3.976-1.904 3.976-4.144s-1.82-4.116-3.976-4.116c-2.184 0-4.004 1.876-4.004 4.116 0 2.24 1.82 4.144 4.004 4.144Zm27.854-11.704c3.024 0 5.348 2.324 5.348 5.6v9.24h-3.92v-8.54c0-1.68-1.064-2.856-2.576-2.856-1.624 0-2.8 1.092-2.8 2.632v8.764h-3.92v-8.54c0-1.68-1.064-2.856-2.548-2.856-1.652 0-2.8 1.092-2.8 2.632V319h-4.088v-14.476h4.088v1.904c.7-1.372 2.128-2.24 3.92-2.24 1.988 0 3.696 1.008 4.592 2.632.756-1.596 2.548-2.632 4.704-2.632Zm-326.781 29.576h8.596v18.872h-8.596v-2.968h5.544v-12.964h-5.544v-2.94Zm-1.96 0h3.052v20.944h-3.052v-20.944Zm1.82 7.476h7.168v2.912h-7.168v-2.912Zm2.156-12.04 3.668.532c-.644 1.904-1.344 3.892-1.904 5.208l-2.688-.588c.392-1.456.784-3.612.924-5.152Zm10.276 4.368h8.176v3.052h-8.176v-3.052Zm7.028 0h3.108s0 1.092-.028 1.512c-.364 12.6-.7 17.052-1.848 18.536-.784 1.092-1.568 1.4-2.716 1.568-1.064.168-2.772.14-4.396.056-.056-.924-.504-2.352-1.12-3.248 1.82.14 3.5.168 4.2.168.56 0 .868-.112 1.232-.504.896-.952 1.26-5.768 1.568-17.444v-.644Zm-6.944-4.34 3.22.756c-1.092 4.144-2.912 8.4-4.816 11.088-.616-.56-1.988-1.512-2.772-1.96 1.876-2.352 3.472-6.16 4.368-9.884Zm-1.372 12.404 2.632-1.484c1.372 1.932 3.22 4.62 4.088 6.272l-2.856 1.736c-.756-1.708-2.52-4.452-3.864-6.524Zm17.64-4.312 2.744 1.008c-.728 2.072-1.82 4.144-3.724 5.432l-2.576-1.764c1.708-1.064 2.912-2.856 3.556-4.676Zm3.556-.224h2.996v4.788c0 .812.28.924 1.708.924h4.396c1.092 0 1.288-.28 1.428-2.016.616.42 1.848.84 2.66 1.008-.364 2.884-1.204 3.612-3.808 3.612H164.6c-3.528 0-4.396-.812-4.396-3.5v-4.816Zm1.12-1.204 1.596-1.932c1.652.588 3.836 1.652 4.928 2.492l-1.68 2.156c-1.008-.896-3.136-2.044-4.844-2.716Zm10.78 3.22 2.38-1.596c1.68 1.428 3.752 3.556 4.676 5.04l-2.548 1.792c-.84-1.456-2.828-3.668-4.508-5.236Zm-1.904-3.808 2.884 1.26c-4.06 5.488-11.144 8.904-18.452 10.836-.364-.7-1.26-2.072-1.848-2.744 7.28-1.54 14-4.564 17.416-9.352Zm-5.992 10.416h3.444v7.392h-3.444v-7.392Zm-8.036 1.344h3.332v8.456h-3.332v-8.456Zm16.464 0h3.388v8.428h-3.388v-8.428Zm-14.784 4.312H174.4v3.108h-16.548v-3.108Zm6.328-22.12h3.472v3.976h-3.472v-3.976Zm-10.248 2.044h24.164v5.908h-3.444v-2.912h-17.444v2.912h-3.276V331.3Zm49.42 10.08h3.22s-.056.896-.084 1.316c-.588 7.392-1.176 10.416-2.184 11.48-.644.784-1.316 1.064-2.212 1.148-.784.112-2.044.112-3.388.084-.056-.924-.392-2.184-.896-3.024 1.176.14 2.24.14 2.772.14.448 0 .728-.056 1.036-.364.672-.7 1.288-3.472 1.736-10.276v-.504Zm-11.088-10.724h10.276v3.024h-10.276v-3.024Zm1.344 4.116 3.136.168c-.224 3.052-.644 6.916-.98 9.268H192.6c.42-2.464.812-6.412 1.008-9.436Zm-.112 6.608h10.78v2.828h-10.78v-2.828Zm-1.792 5.544h10.024v2.968h-10.024v-2.968Zm9.576-16.268h.364l.504-.112 2.38.224c-.252 3.752-.784 8.708-1.316 12.656l-3.164-.252c.532-3.976 1.064-9.352 1.232-12.18v-.336Zm-20.076-.196h10.08v3.052h-10.08v-3.052Zm3.108 8.736h6.356v12.908h-6.356v-2.94h3.472v-7.028h-3.472v-2.94Zm.14-7.168 3.052.7c-1.064 5.32-2.828 10.78-5.74 14.252-.14-.896-.728-3.024-1.204-4.004 1.988-2.632 3.192-6.692 3.892-10.948Zm-1.568 7.168h2.856v15.008h-2.856v-15.008Zm28.756-2.912h3.472v13.104c0 1.736.476 2.016 3.584 2.016h9.24c2.884 0 3.332-.728 3.724-4.844.868.56 2.436 1.148 3.416 1.316-.644 5.32-1.876 6.86-7 6.86h-9.352c-5.432 0-7.084-1.064-7.084-5.348v-13.104Zm2.016 3.808h15.484v3.332h-15.484v-3.332Zm-3.136-9.296h20.86v13.916h-3.5v-10.584h-17.36v-3.332Zm33.096 4.62v1.092h12.628v-1.092h-12.628Zm0-3.108v1.064h12.628v-1.064h-12.628Zm-3.22-2.156h19.208v8.54h-19.208v-8.54Zm-2.8 13.524h24.808v2.66h-24.808v-2.66Zm1.372-3.808h22.12v2.52h-22.12v-2.52Zm16.352 4.816c1.68 1.456 5.068 2.828 7.98 3.5-.644.56-1.484 1.652-1.932 2.352-2.996-.896-6.384-2.828-8.4-4.788l2.352-1.064Zm-15.932 7.868c2.072-.504 5.152-1.4 8.12-2.268l.392 2.296a278.74 278.74 0 0 1-7.112 2.436l-1.4-2.464Zm4.676-14.336h3.248v7.028h-3.248v-7.028Zm8.54 0h3.276v6.916h-3.276v-6.916Zm-4.228 8.708h3.08v5.88c0 1.344-.252 1.988-1.204 2.408-.952.364-2.268.364-4.06.364-.112-.784-.504-1.792-.84-2.492 1.036.056 2.24.056 2.576.028.336 0 .448-.084.448-.392v-5.796Zm-3.612-2.296 2.52 1.064c-1.988 2.156-5.376 4.144-8.512 5.096-.42-.672-1.288-1.764-1.932-2.324 2.996-.7 6.244-2.184 7.924-3.836Zm6.104 7.756 1.512-1.932c2.548.644 5.796 1.736 7.7 2.464l-1.512 2.156c-1.876-.812-5.152-1.988-7.7-2.688Zm-7.728-3.388 2.436-1.204c.672.56 1.428 1.4 1.764 1.988l-2.576 1.288c-.28-.588-.98-1.456-1.624-2.072Zm11.424-1.372 2.828 1.316c-.868.84-1.68 1.596-2.324 2.1l-2.296-1.176c.56-.588 1.4-1.596 1.792-2.24Zm13.076-17.444h20.664v2.324H267.64v-2.324Zm2.1 6.048h5.46v1.624h-5.46v-1.624Zm-.728 2.436h6.188v1.624h-6.188v-1.624Zm11.592 0h6.216v1.624h-6.216v-1.624Zm-.644 14.252h7.504v2.044h-7.504v-2.044Zm-8.008-4.844h4.48v2.24h-4.48v-2.24Zm8.68-11.844h5.488v1.624h-5.488v-1.624Zm-4.368-5.04h3.276v9.436h-3.276v-9.436Zm-10.612 2.212h24.696v5.068h-3.108v-2.996h-18.592v2.996h-2.996V333.4Zm3.948 9.828v1.512h3.92v-1.512h-3.92Zm-2.66-2.044h9.408v5.628h-9.408v-5.628Zm12.04 8.092h9.576v6.188h-2.94v-4.228h-3.808v4.284h-2.828v-6.244Zm1.932-6.496c1.904 2.576 5.88 4.312 10.584 4.928-.56.532-1.316 1.624-1.68 2.324-4.928-.896-8.876-3.164-11.088-6.608l2.184-.644Zm.252-2.548 2.492.42c-1.288 2.128-3.08 3.976-5.768 5.516-.392-.56-1.204-1.316-1.764-1.652 2.436-1.176 4.116-2.772 5.04-4.284Zm5.628 1.26h.504l.448-.14 1.764.952c-2.268 4.256-7.196 6.804-12.124 8.092-.28-.616-.924-1.624-1.428-2.156 4.452-.924 9.1-3.248 10.836-6.356v-.392Zm-21.42 11.256c2.996-.196 7.476-.504 11.76-.868l.028 2.408c-4.116.392-8.428.756-11.536 1.036l-.252-2.576Zm16.128-11.256h6.104v1.96h-7.476l1.372-1.96Zm-11.06 4.48h2.8v7.56l-2.8.14v-7.7Zm-3.836 1.568h2.464v5.824l-2.464.252v-6.076Z"/><rect width="44.138" height="6.621" x="155" y="205" fill="#592ACB" rx="3.31"/><rect width="44.138" height="6.621" x="207.965" y="205" fill="#592ACB" rx="3.31"/><rect width="129.103" height="6.621" x="260.931" y="205" fill="#D9BFFF" rx="3.31"/><path fill="#592ACB" d="m301.41 228.139.821.291c-.344.993-.874 2.013-1.841 2.596l-.768-.53c.901-.53 1.484-1.457 1.788-2.357Zm1.616-.225h.9v2.595c0 .358.132.424.874.424h2.542c.596 0 .702-.172.755-1.324.212.132.569.265.821.318-.119 1.456-.397 1.814-1.496 1.814h-2.675c-1.377 0-1.721-.252-1.721-1.232v-2.595Zm.635-.768.503-.583c.808.358 1.801.94 2.304 1.391l-.529.648c-.477-.463-1.47-1.085-2.278-1.456Zm4.979 1.536.715-.49c.9.728 1.92 1.788 2.37 2.529l-.768.543c-.424-.728-1.417-1.827-2.317-2.582Zm-.662-1.589.86.384c-1.946 2.595-5.309 4.25-8.765 5.23a5.337 5.337 0 0 0-.583-.834c3.483-.847 6.74-2.41 8.488-4.78Zm-2.9 4.86h1.02v3.561h-1.02v-3.561Zm-3.946.754h.98v3.814h-.98v-3.814Zm8.117 0h.993v3.774h-.993v-3.774Zm-7.627 2.304h8.157v.927h-8.157v-.927Zm3.456-10.672h1.02v1.721h-1.02v-1.721Zm-5.058 1.125h11.228v2.596h-1.006v-1.695h-9.256v1.695h-.966v-2.596Zm23.702 4.674h.953s-.013.305-.026.451c-.305 3.575-.596 4.952-1.073 5.442-.251.278-.516.384-.914.397-.331.027-.94.027-1.588 0a2.416 2.416 0 0 0-.265-.927c.635.08 1.218.08 1.469.08.226 0 .371-.027.49-.159.384-.358.689-1.708.954-5.111v-.173Zm-5.615-5.031h4.913v.913h-4.913v-.913Zm.636 1.748.927.053a79.625 79.625 0 0 1-.437 4.091h-.94c.172-1.072.357-2.847.45-4.144Zm-.172 3.283h5.442v.861h-5.442v-.861Zm-.914 2.609h5.072v.887h-5.072v-.887Zm4.953-7.64h.105l.159-.04.689.079a106.981 106.981 0 0 1-.609 5.628l-.94-.066c.238-1.735.503-4.237.596-5.482v-.119Zm-9.706-.066h4.555v.913h-4.555v-.913Zm1.297 4.078h2.874v5.72h-2.874v-.887h2v-3.946h-2v-.887Zm.411-3.642.927.199c-.477 2.503-1.245 4.913-2.463 6.502-.066-.239-.292-.808-.464-1.073 1.02-1.351 1.642-3.416 2-5.628Zm-.848 3.642h.874v6.793h-.874v-6.793Zm15.347-1.165h9.097v.94h-9.097v-.94Zm4.396 3.879h2.741v.914h-2.741v-.914Zm-2.635 3.059h7.217v.953h-7.217v-.953Zm-.437-10.196h.954v11.812h-.954v-11.812Zm5.27-.159h.954v8.872h-.954v-8.872Zm-2.661-.198h.94v9.097h-.94v-9.097Zm-6.409.821.556-.729c.834.358 1.854.941 2.357 1.391l-.583.834c-.49-.49-1.496-1.112-2.33-1.496Zm-.662 3.588.556-.741c.821.304 1.854.874 2.37 1.297l-.569.821c-.503-.437-1.51-1.019-2.357-1.377Zm.371 6.978c.648-1.033 1.575-2.78 2.264-4.303l.781.582a50.796 50.796 0 0 1-2.171 4.33l-.874-.609Zm14.168-10.858h9.653v.742h-9.653v-.742Zm.861 2.662h2.701v.569h-2.701v-.569Zm-.252 1.165h2.94v.583h-2.94v-.583Zm5.416 0h2.966v.583h-2.966v-.583Zm-.424 6.806h3.787v.676h-3.787v-.676Zm-3.708-2.198h2.172v.728h-2.172v-.728Zm4.145-5.773h2.728v.569h-2.728v-.569Zm-1.735-2.357h.967v4.33h-.967v-4.33Zm-5.071 1.125h11.189v2.225h-.94v-1.549h-9.349v1.549h-.9v-2.225Zm1.35 4.264v1.179h2.53v-1.179h-2.53Zm-.821-.675h4.211v2.542h-4.211v-2.542Zm5.509 3.681h4.436v2.926h-.901v-2.264h-2.661v2.291h-.874v-2.953Zm.808-2.966c.927 1.271 2.873 2.211 4.992 2.569-.172.159-.411.49-.53.715-2.172-.45-4.131-1.549-5.138-3.059l.676-.225Zm.37-1.245.808.133c-.569.94-1.417 1.84-2.635 2.568a2.387 2.387 0 0 0-.583-.516c1.152-.609 1.973-1.443 2.41-2.185Zm2.688.676h.173l.145-.04.53.291c-1.033 1.933-3.363 3.125-5.535 3.694a2.787 2.787 0 0 0-.464-.675c2.04-.437 4.291-1.576 5.151-3.125v-.145Zm-10.222 5.574c1.377-.119 3.456-.304 5.482-.516l.013.754c-1.946.212-3.959.424-5.389.583l-.106-.821Zm7.442-5.574h3.032v.662h-3.496l.464-.662Zm-4.886 2.065h.86v3.642l-.86.053v-3.695Zm-1.801.781h.781v2.9l-.781.093v-2.993Z"/><rect width="44.138" height="6.621" x="398.862" y="205" fill="#9E9E9E" rx="3.31"/><rect width="351" height="40" x="124" y="388" fill="#592ACB" rx="4"/><path fill="#fff" d="m261.31 400.6 1.35-.93c.825.705 1.8 1.71 2.25 2.415l-1.455 1.02c-.39-.72-1.335-1.77-2.145-2.505Zm-9.825 2.925h13.545v1.71h-13.545v-1.71Zm-.285 4.245c1.815-.27 4.665-.765 7.29-1.245l.135 1.635c-2.43.51-5.04 1.035-6.975 1.425l-.45-1.815Zm3.135-6.66h1.815v10.14c0 .975-.195 1.47-.81 1.755-.6.285-1.485.345-2.715.345-.075-.51-.375-1.32-.645-1.83.855.045 1.725.045 1.995.03.27 0 .36-.075.36-.33v-10.11Zm3.075-1.755 1.215 1.53c-1.95.6-4.515 1.005-6.69 1.245-.09-.42-.315-1.095-.525-1.5 2.115-.285 4.455-.75 6-1.275Zm1.47.03h1.89c-.105 6.045 1.245 12.195 2.61 12.195.315 0 .48-.735.57-2.52.375.42.99.84 1.47 1.035-.285 2.655-.855 3.315-2.22 3.315-3.105 0-4.275-7.29-4.32-14.025Zm4.08 6.345 1.59.675c-1.56 2.79-4.005 5.025-6.72 6.465a7.196 7.196 0 0 0-1.215-1.455c2.565-1.17 5.01-3.21 6.345-5.685Zm24.57-6.45 1.65.405c-.555 1.59-1.5 3.12-2.52 4.11a9.605 9.605 0 0 0-1.305-1.14c.945-.81 1.74-2.07 2.175-3.375Zm-.12 3.84 1.65.435c-.465 1.17-1.245 2.385-1.965 3.15-.33-.27-1.035-.705-1.425-.915.72-.675 1.365-1.695 1.74-2.67Zm.45-2.58h5.97v1.515h-6.57l.6-1.515Zm1.71 1.155h1.725v4.665c0 .78-.12 1.215-.675 1.47-.51.255-1.185.27-2.115.27-.075-.465-.315-1.14-.555-1.575.57.03 1.2.03 1.38.03.18-.015.24-.06.24-.225v-4.635Zm2.055 1.935 1.47-.63c.705.99 1.395 2.28 1.71 3.18l-1.545.735c-.285-.885-.99-2.28-1.635-3.285Zm1.755-3.09h.255l.27-.045 1.275.27c-.33 1.02-.765 2.16-1.125 2.88l-1.53-.3c.285-.66.645-1.725.855-2.595v-.21Zm-8.325 8.13h1.785v2.31c0 .45.12.495.825.495h2.04c.57 0 .675-.18.75-1.485.36.27 1.11.54 1.59.645-.195 1.95-.705 2.445-2.19 2.445h-2.415c-1.92 0-2.385-.51-2.385-2.085v-2.325Zm1.275-.42 1.2-1.02c.915.495 2.04 1.275 2.565 1.89l-1.29 1.14c-.48-.615-1.56-1.47-2.475-2.01Zm4.845.99 1.485-.81c1.065.99 2.19 2.37 2.64 3.42l-1.605.9c-.39-1.02-1.455-2.475-2.52-3.51Zm-7.98-.525 1.62.54c-.405 1.395-.99 2.775-2.13 3.645l-1.5-1.035c1.02-.72 1.68-1.89 2.01-3.15Zm1.365-9.45 1.59.54c-.975 1.89-2.535 3.81-4.035 5.01-.195-.36-.75-1.125-1.08-1.455 1.365-.975 2.73-2.535 3.525-4.095Zm-1.29 3.135 1.68-1.695.045.015v7.35h-1.725v-5.67Zm14.61.72h4.155v1.32h-4.155v-1.32Zm0 2.46h4.155v1.275h-4.155v-1.275Zm0 2.505h4.155v1.335h-4.155v-1.335Zm6.495-1.695h5.655v1.515h-5.655v-1.515Zm-5.76-5.73h2.37v1.35h-2.37v-1.35Zm4.635-.63h5.565v1.47h-5.565v-1.47Zm0 9.225h7.065v1.56h-7.065v-1.56Zm2.805-4.215h1.71v8.265h-1.71v-8.265Zm-6.555-1.23h1.2v4.77h-1.2v-4.77Zm8.835-3.78h1.605s-.015.375-.03.57c-.075 2.415-.21 3.45-.54 3.84-.24.315-.525.435-.915.495-.33.045-.915.06-1.515.03-.03-.45-.18-1.05-.405-1.44.48.045.87.06 1.065.06.195 0 .315-.03.42-.165.165-.195.255-1.005.315-3.18v-.21Zm-4.26 5.115 1.47.285c-.27 1.38-.765 2.76-1.35 3.645-.3-.21-.96-.54-1.32-.705.585-.795.99-2.025 1.2-3.225Zm-5.82-5.895 1.605.345c-.54 2.07-1.47 4.095-2.55 5.37a9.988 9.988 0 0 0-1.275-1.065c1.02-1.11 1.815-2.865 2.22-4.65Zm-1.035 3.87h1.44v3.975c0 1.92-.195 4.59-1.29 6.285-.27-.24-.915-.645-1.26-.795 1.02-1.56 1.11-3.795 1.11-5.49v-3.975Zm4.335 0h1.47v8.505c0 .705-.135 1.155-.585 1.425-.465.255-1.08.285-1.995.285-.06-.42-.3-1.11-.51-1.515.585.03 1.185.03 1.365.015.18 0 .255-.06.255-.24v-8.475Zm3.495-2.595h1.605c-.18 2.19-.69 3.87-2.925 4.86-.18-.375-.585-.96-.945-1.23 1.8-.735 2.115-2.01 2.265-3.63Zm-4.485.135h.345l.225-.075 1.02.645c-.33.945-.915 2.13-1.38 2.88-.285-.21-.78-.51-1.095-.675.33-.69.705-1.8.885-2.505v-.27Zm10.74.045 1.425-.855c.84.975 1.95 2.325 2.445 3.21l-1.545 1.005c-.435-.9-1.485-2.31-2.325-3.36Zm-.195 10.89c.735-1.2 1.785-3.165 2.58-4.995l1.365 1.095a61.05 61.05 0 0 1-2.385 4.98l-1.56-1.08Zm4.995-10.11h7.935v5.31h-1.725v-3.6h-6.21v-1.71Zm-.675 4.5h9.855v1.725h-9.855v-1.725Zm5.76.57c.63 2.43 1.965 4.35 4.305 5.175-.405.36-.93 1.095-1.2 1.575-2.61-1.11-3.945-3.345-4.74-6.435l1.635-.315Zm-2.37-7.29h1.905v5.235c0 3.06-.705 6.645-4.905 8.88-.27-.39-.885-1.11-1.335-1.455 4.095-1.83 4.335-4.905 4.335-7.44v-5.22Zm12.075 4.455h2.895v1.725h-2.895v-1.725Zm-.69-4.455h1.86v11.955l-1.86.21v-12.165Zm-2.85 3.12h1.755v9.225l-1.755.24v-9.465Zm-1.11 8.985c1.92-.27 4.815-.765 7.455-1.23l.135 1.77c-2.55.495-5.31.975-7.29 1.365l-.3-1.905Zm12.405-8.865 1.44 1.485c-1.335.93-3.03 1.8-4.515 2.475-.12-.405-.435-1.035-.675-1.41 1.365-.69 2.82-1.71 3.75-2.55Zm-4.32-3.24h1.875v11.07c0 .825.06.945.54.945h1.365c.495 0 .57-.51.645-2.475.45.33 1.185.66 1.695.78-.18 2.49-.645 3.45-2.16 3.45h-1.845c-1.65 0-2.115-.615-2.115-2.73v-11.04Z"/></g><defs><linearGradient id="b" x1="536.816" x2="536.816" y1="137.926" y2="229.576" gradientUnits="userSpaceOnUse"><stop stop-color="#8060FE"/><stop offset="1" stop-color="#626BFA"/></linearGradient><linearGradient id="d" x1="192.726" x2="174.795" y1="101.129" y2="132.183" gradientUnits="userSpaceOnUse"><stop stop-color="#FF980E"/><stop offset=".21" stop-color="#FF7139"/><stop offset=".36" stop-color="#FF5854"/><stop offset=".46" stop-color="#FF4F5E"/><stop offset=".69" stop-color="#FF3750"/><stop offset=".86" stop-color="#F92261"/><stop offset="1" stop-color="#F5156C"/></linearGradient><linearGradient id="e" x1="192.726" x2="174.795" y1="101.129" y2="132.183" gradientUnits="userSpaceOnUse"><stop stop-color="#FFF44F" stop-opacity=".8"/><stop offset=".09" stop-color="#FFF44F" stop-opacity=".7"/><stop offset=".75" stop-color="#FFF44F" stop-opacity="0"/></linearGradient><linearGradient id="f" x1="194.178" x2="194.178" y1="137.181" y2="98.705" gradientUnits="userSpaceOnUse"><stop stop-color="#3A8EE6"/><stop offset=".24" stop-color="#5C79F0"/><stop offset=".63" stop-color="#9059FF"/><stop offset="1" stop-color="#C139E6"/></linearGradient><linearGradient id="g" x1="187.637" x2="203.628" y1="98.566" y2="114.556" gradientUnits="userSpaceOnUse"><stop stop-color="#6E008B" stop-opacity=".5"/><stop offset=".5" stop-color="#C846CB" stop-opacity="0"/></linearGradient><linearGradient id="h" x1="202.121" x2="194.612" y1="118.347" y2="125.856" gradientUnits="userSpaceOnUse"><stop offset=".14" stop-color="#6A2BEA" stop-opacity="0"/><stop offset=".34" stop-color="#642DE4" stop-opacity=".03"/><stop offset=".55" stop-color="#5131D3" stop-opacity=".12"/><stop offset=".76" stop-color="#3139B7" stop-opacity=".27"/><stop offset=".98" stop-color="#054490" stop-opacity=".48"/><stop offset="1" stop-color="#00458B" stop-opacity=".5"/></linearGradient><linearGradient id="i" x1="190.076" x2="192.253" y1="124.805" y2="127.401" gradientUnits="userSpaceOnUse"><stop stop-color="#960E18" stop-opacity=".6"/><stop offset=".19" stop-color="#AC1624" stop-opacity=".48"/><stop offset=".58" stop-color="#E42C41" stop-opacity=".16"/><stop offset=".75" stop-color="#FF3750" stop-opacity="0"/></linearGradient><clipPath id="a"><rect width="620" height="450" fill="#fff" rx="15"/></clipPath></defs></svg>
