<svg xmlns="http://www.w3.org/2000/svg" width="204" height="25" fill="none"><path fill="#000" d="M94.295 15.364h1.395l1.869-5.173h-1.177l-1.335 3.946-1.355-3.946h-1.286l1.89 5.173ZM100.556 15.463c1.523 0 2.661-1.049 2.661-2.66v-.08c0-1.582-1.138-2.64-2.651-2.64-1.523 0-2.66 1.068-2.66 2.67v.079c0 1.572 1.127 2.63 2.65 2.63Zm.01-.93c-.91 0-1.434-.663-1.434-1.72v-.08c0-1.068.544-1.71 1.434-1.71.89 0 1.424.652 1.424 1.72v.07c0 1.057-.534 1.72-1.424 1.72ZM104.298 15.364h1.196v-3.046c0-.821.544-1.236 1.217-1.236.712 0 1.028.356 1.028 1.137v3.145h1.197V12.11c0-1.424-.732-2.027-1.77-2.027-.851 0-1.424.425-1.672.93v-.822h-1.196v5.173Z"/><path fill="#363636" fill-rule="evenodd" d="M23.78 18.046c-2.33 0-4.274-1.99-4.274-4.413 0-2.447 1.944-4.482 4.273-4.482 2.375 0 4.274 2.035 4.274 4.482 0 2.423-1.9 4.413-4.274 4.413Zm.08-10.191c-1.785 0-3.363 1-4.484 2.341l-.046-1.59c-.023-.57-.297-.842-.71-.842-.434 0-.731.341-.731.818v15.505c0 .454.32.773.755.773.457 0 .732-.341.732-.796v-6.775c1.12 1.319 2.7 2.228 4.484 2.228a5.777 5.777 0 0 0 5.81-5.797c0-3.205-2.562-5.865-5.81-5.865ZM60.615 13.085l4.267-3.84c.39-.343.435-.846.137-1.167-.32-.343-.802-.252-1.146.069l-5.798 5.435V3.43c0-.527-.23-.87-.71-.87-.528 0-.78.343-.78.87v15.227c0 .504.298.848.78.848.435 0 .71-.344.71-.848v-3.286l1.485-1.337 4.68 5.196c.298.32.802.435 1.123.137.367-.343.252-.801-.023-1.122l-4.725-5.16ZM36.775 18.046c-2.36 0-4.332-1.99-4.332-4.413 0-2.447 1.971-4.482 4.332-4.482 2.407 0 4.332 2.035 4.332 4.482 0 2.423-1.925 4.413-4.332 4.413Zm.035-10.282c-3.376 0-5.983 2.687-5.983 5.926 0 3.238 2.607 5.856 5.983 5.856 3.167 0 5.914-2.618 5.914-5.856 0-3.239-2.77-5.926-5.914-5.926ZM84.018 17.331c-.228 0-.455.137-.591.251-.319.274-.705.548-1.251.548-.933 0-1.456-.57-1.456-1.871V9.232l2.889.046c.409 0 .682-.251.682-.64 0-.41-.273-.66-.682-.66L80.72 8V5.65c0-.456-.318-.776-.705-.776-.409 0-.75.32-.75.776V8l-1.228-.023c-.387 0-.66.251-.66.662 0 .365.296.661.66.639l1.228-.046v7.072c0 2.213 1.342 3.24 2.888 3.24.955 0 1.683-.365 2.183-.89.16-.182.319-.387.319-.661 0-.388-.25-.662-.637-.662ZM67.56 12.963c.332-2.5 2.09-3.812 4.067-3.812 2.108 0 3.58 1.859 3.671 3.812H67.56Zm4.088-5.199c-3.267 0-5.706 2.687-5.706 5.926 0 3.238 2.485 5.856 5.729 5.856 1.61 0 3.174-.597 4.21-1.608.23-.23.414-.482.414-.735 0-.367-.23-.666-.667-.666a.99.99 0 0 0-.645.253c-.966.85-1.955 1.332-3.312 1.332-2.112 0-3.997-1.605-4.193-3.996h8.219c.782 0 1.219-.413 1.219-1.08 0-2.572-2.255-5.282-5.268-5.282ZM53.932 15.928c-.207 0-.437.16-.574.343-.643.846-2.02 1.853-3.558 1.853-2.295 0-4.269-1.807-4.269-4.415 0-2.791 1.974-4.461 4.27-4.461 1.675 0 2.593.8 3.373 1.739.138.16.344.32.597.32.344 0 .688-.252.688-.595 0-.252-.16-.503-.298-.71-.941-1.349-2.525-2.127-4.36-2.127-3.191 0-5.808 2.608-5.808 5.834 0 3.18 2.617 5.833 5.807 5.833 1.974 0 3.672-1.144 4.568-2.333.16-.206.252-.412.252-.595 0-.412-.298-.686-.688-.686Z" clip-rule="evenodd"/><path fill="#EF4156" fill-rule="evenodd" d="m10.37 12.77-3.135 2.939c-.161.184-.415.252-.6.252a.887.887 0 0 1-.645-.252L2.901 12.77c-.322-.344-.368-.918 0-1.286.346-.321.922-.367 1.268 0l2.467 2.365 2.512-2.365c.323-.367.9-.321 1.222 0 .323.367.323.942 0 1.286Zm1.464-4.895H1.348C.667 7.875.1 8.403.1 9.092v3.927c0 3.56 2.905 6.522 6.49 6.522 3.564 0 6.447-2.963 6.447-6.522V9.092c0-.69-.545-1.217-1.203-1.217Z" clip-rule="evenodd"/><g fill="#000" clip-path="url(#a)"><path d="M149.922 10.932c-1.553 0-2.52 1.154-2.52 3.151 0 1.837.849 3.25 2.494 3.25 1.578 0 2.613-1.273 2.613-3.296 0-2.142-1.154-3.105-2.587-3.105ZM191.531 16.267c0 .683.331 1.226 1.247 1.226 1.081 0 2.235-.776 2.307-2.54-.492-.073-1.035-.14-1.531-.14-1.082-.005-2.023.3-2.023 1.454Z"/><path d="M118.272.156v24.257h84.83V.156h-84.83Zm24.681 19.273h-4.449v-5.976c0-1.837-.611-2.54-1.811-2.54-1.459 0-2.049 1.034-2.049 2.519v3.69h1.413v2.307h-4.445v-5.976c0-1.837-.611-2.54-1.812-2.54-1.459 0-2.048 1.034-2.048 2.519v3.69h2.023v2.307h-6.468v-2.307h1.412V11.12h-1.412V8.813h4.445v1.599c.636-1.129 1.743-1.812 3.223-1.812 1.531 0 2.94.73 3.461 2.282.59-1.412 1.79-2.282 3.461-2.282 1.905 0 3.648 1.154 3.648 3.67v4.852h1.413v2.307h-.005Zm6.85.233c-3.27 0-5.531-1.997-5.531-5.386 0-3.105 1.884-5.671 5.697-5.671s5.671 2.562 5.671 5.526c0 3.39-2.448 5.531-5.837 5.531Zm17.115-.233h-9.272l-.306-1.599 5.837-6.706h-3.317l-.471 1.646-2.188-.238.377-3.72h9.319l.237 1.6-5.887 6.71h3.436l.496-1.646 2.4.233-.661 3.72Zm6.057 0h-3.177v-3.813h3.177v3.813Zm0-6.803h-3.177V8.813h3.177v3.813Zm1.985 6.803 4.589-16.19h2.99l-4.589 16.19h-2.99Zm6.167 0 4.585-16.19h2.99l-4.589 16.19h-2.986Zm16.287.233c-1.412 0-2.188-.822-2.328-2.116-.611 1.081-1.693 2.116-3.411 2.116-1.531 0-3.27-.822-3.27-3.037 0-2.612 2.52-3.223 4.942-3.223.589 0 1.2.025 1.743.093v-.352c0-1.082-.026-2.375-1.743-2.375-.637 0-1.129.046-1.625.305l-.343 1.196-2.422-.258.415-2.443c1.858-.755 2.8-.963 4.543-.963 2.282 0 4.212 1.175 4.212 3.6v4.611c0 .611.237.823.729.823.14 0 .285-.025.446-.072l.025 1.6a4.113 4.113 0 0 1-1.913.495Z"/></g><defs><clipPath id="a"><path fill="#fff" d="M118.272.155h84.83v24.257h-84.83z"/></clipPath></defs></svg>