<svg width="143" height="31" viewBox="0 0 143 31" fill="none" xmlns="http://www.w3.org/2000/svg">
<path d="M124.62 13.1749C124.62 11.8616 124.358 10.8963 123.842 10.2791C123.347 9.63681 122.568 9.31386 121.502 9.31386C120.436 9.31386 119.683 9.63681 119.163 10.2791C118.646 10.9214 118.384 11.8867 118.384 13.1749V25.6122H113.407V9.42868H111.254V5.79009H117.716V9.68705H118.901C119.227 8.22658 119.78 7.15007 120.573 6.45752C121.391 5.76497 122.493 5.4169 123.878 5.4169C125.263 5.4169 126.379 5.77573 127.222 6.4934C128.062 7.18596 128.643 8.2517 128.966 9.68705H130.082C130.405 8.22658 130.972 7.15007 131.79 6.45752C132.608 5.76497 133.71 5.4169 135.095 5.4169C136.979 5.4169 138.4 6.02333 139.365 7.2362C140.355 8.42394 140.847 10.1679 140.847 12.4716V21.9772H143V25.6158H135.834V13.1785C135.834 11.8903 135.572 10.925 135.055 10.2827C134.56 9.6404 133.792 9.31744 132.752 9.31744C131.711 9.31744 130.896 9.6404 130.376 10.2827C129.885 10.925 129.633 11.8903 129.633 13.1785V25.6158H124.624V13.1785L124.62 13.1749Z" fill="#161616"/>
<path d="M92.5872 26.8772H98.6767L99.3046 24.577H95.0022L90.1723 5.79195H95.4077L99.118 20.9743H100.306L104.056 5.79195H109.029L103.499 27.3616C103.202 28.4489 102.782 29.2419 102.236 29.7371C101.72 30.2574 100.966 30.5158 99.9721 30.5158H92.5872V26.8772Z" fill="#161616"/>
<path d="M70.1635 9.42868H68.0105V5.79009H74.4732V9.68705H75.6573C76.0054 8.22658 76.6118 7.15007 77.4802 6.45752C78.345 5.76497 79.4933 5.4169 80.9322 5.4169C82.8879 5.4169 84.3735 6.02333 85.3854 7.2362C86.426 8.42394 86.9463 10.1679 86.9463 12.4716V21.9772H89.0993V25.6158H81.9334V13.4405C81.9334 12.0051 81.6607 10.9645 81.1152 10.3222C80.5734 9.65475 79.7193 9.32103 78.5531 9.32103C77.3869 9.32103 76.5257 9.65475 75.9516 10.3222C75.4097 10.9645 75.137 12.0051 75.137 13.4405V25.6158H70.16V9.42868H70.1635Z" fill="#161616"/>
<path d="M56.5244 25.9855C54.5185 25.9855 52.7997 25.5908 51.3644 24.7978C49.9542 24.0047 48.8776 22.8421 48.1349 21.3099C47.3921 19.7741 47.0189 17.9081 47.0189 15.7049C47.0189 13.5016 47.3921 11.6321 48.1349 10.0998C48.8776 8.56402 49.9542 7.4014 51.3644 6.61196C52.7997 5.81893 54.5185 5.42421 56.5244 5.42421C58.5303 5.42421 60.1989 5.81893 61.6091 6.61196C63.0445 7.40498 64.1353 8.56761 64.8745 10.0998C65.6173 11.6357 65.9905 13.5016 65.9905 15.7049C65.9905 17.9081 65.6173 19.7776 64.8745 21.3099C64.1353 22.8457 63.0445 24.0083 61.6091 24.7978C60.1989 25.5908 58.5016 25.9855 56.5244 25.9855ZM56.5244 22.085C57.9598 22.085 59.0112 21.6902 59.6786 20.8972C60.346 20.0791 60.6834 18.8052 60.6834 17.072V14.3233C60.6834 12.5902 60.346 11.3271 59.6786 10.5376C59.0112 9.71948 57.9598 9.31399 56.5244 9.31399C55.0891 9.31399 53.9982 9.72306 53.3308 10.5376C52.6634 11.3306 52.3261 12.5902 52.3261 14.3233V17.072C52.3261 18.8052 52.6634 20.0791 53.3308 20.8972C53.9982 21.6902 55.064 22.085 56.5244 22.085Z" fill="#161616"/>
<path d="M26.2736 9.42868H24.1206V5.79009H30.5796V9.68705H31.7674C32.1155 8.22658 32.7219 7.15007 33.5867 6.45752C34.4551 5.76497 35.6034 5.4169 37.0423 5.4169C38.9944 5.4169 40.4835 6.02333 41.4954 7.2362C42.5361 8.42394 43.0564 10.1679 43.0564 12.4716V21.9772H45.2094V25.6158H38.0434V13.4405C38.0434 12.0051 37.7671 10.9645 37.2253 10.3222C36.6799 9.65475 35.8258 9.32103 34.6632 9.32103C33.5006 9.32103 32.6322 9.65475 32.0616 10.3222C31.5198 10.9645 31.2435 12.0051 31.2435 13.4405V25.6158H26.27V9.42868H26.2736Z" fill="#161616"/>
<path d="M6.39087 0H15.7098L22.0935 25.6173H16.7469L11.5115 4.30962H10.3596L5.12418 25.6173H0L6.39087 0ZM4.5321 16.223H17.156L17.2313 19.8257H4.42445L4.53569 16.223H4.5321Z" fill="#161616"/>
</svg>
