<svg width="816" height="300" fill="none" xmlns="http://www.w3.org/2000/svg"><path fill="#fff" d="M0 0h816v300H0z"/><path d="M364.683 35V23.364h2.46v9.608h4.989V35h-7.449Zm13.01.17c-2.687 0-4.329-1.727-4.329-4.494 0-2.693 1.664-4.517 4.233-4.517 2.306 0 4.102 1.466 4.102 4.432v.665h-5.943v.005c0 1.302.767 2.103 1.977 2.103.807 0 1.432-.347 1.676-1.012l2.239.148c-.341 1.62-1.796 2.67-3.955 2.67Zm-1.937-5.414h3.664c-.005-1.04-.732-1.79-1.784-1.79-1.074 0-1.829.795-1.88 1.79Zm10.011 5.409c-1.665 0-2.898-.875-2.898-2.602 0-1.95 1.551-2.529 3.279-2.688 1.517-.148 2.113-.222 2.113-.784v-.034c0-.716-.471-1.13-1.295-1.13-.869 0-1.386.425-1.551 1.005l-2.239-.182c.335-1.59 1.71-2.59 3.801-2.59 1.943 0 3.705.874 3.705 2.954V35h-2.296v-1.21h-.068c-.426.812-1.261 1.375-2.551 1.375Zm.693-1.67c1.063 0 1.818-.7 1.818-1.614v-.927c-.289.194-1.153.319-1.681.393-.853.119-1.415.454-1.415 1.136 0 .665.534 1.011 1.278 1.011Zm9.316 1.647c-1.989 0-3.54-1.574-3.54-4.494 0-3 1.619-4.489 3.534-4.489 1.46 0 2.159.87 2.483 1.58h.074v-4.375h2.414V35h-2.386v-1.398h-.102c-.335.728-1.068 1.54-2.477 1.54Zm.767-1.926c1.164 0 1.835-1.023 1.835-2.58 0-1.556-.659-2.55-1.835-2.55-1.199 0-1.836 1.039-1.836 2.55 0 1.523.648 2.58 1.836 2.58Zm10.166 1.954c-2.688 0-4.33-1.727-4.33-4.494 0-2.693 1.665-4.517 4.233-4.517 2.307 0 4.102 1.466 4.102 4.432v.665h-5.943v.005c0 1.302.767 2.103 1.978 2.103.806 0 1.431-.347 1.676-1.012l2.238.148c-.341 1.62-1.795 2.67-3.954 2.67Zm-1.938-5.414h3.665c-.006-1.04-.733-1.79-1.784-1.79-1.074 0-1.83.795-1.881 1.79ZM412.294 35v-8.727h2.347v1.523h.091c.318-1.08 1.119-1.648 2.096-1.648.244 0 .546.034.761.085v2.148c-.227-.074-.687-.131-1.022-.131-1.068 0-1.853.739-1.853 1.813V35h-2.42Zm13.808-6.239-2.216.137c-.119-.563-.619-1.023-1.46-1.023-.75 0-1.341.34-1.335.864-.006.42.295.698 1.108.875l1.579.318c1.694.346 2.517 1.102 2.523 2.363-.006 1.722-1.625 2.875-3.886 2.875-2.313 0-3.733-1.028-3.96-2.698l2.38-.125c.148.71.722 1.08 1.585 1.08.847 0 1.41-.37 1.421-.887-.011-.438-.358-.716-1.119-.87l-1.512-.3c-1.704-.342-2.528-1.188-2.522-2.495-.006-1.682 1.465-2.716 3.698-2.716 2.205 0 3.5.994 3.716 2.602Zm4.144 1.194V35h-2.421V23.364h2.353v4.448h.102c.398-1.028 1.284-1.653 2.608-1.653 1.818 0 3.023 1.239 3.017 3.284V35h-2.421v-5.125c.006-1.074-.573-1.704-1.556-1.704-.989 0-1.677.659-1.682 1.784ZM437.81 35v-8.727h2.42V35h-2.42Zm1.216-9.852c-.716 0-1.307-.551-1.307-1.227 0-.671.591-1.222 1.307-1.222.721 0 1.312.551 1.312 1.221 0 .677-.591 1.228-1.312 1.228Zm3.143 13.125v-12h2.386v1.466h.108c.324-.71 1.023-1.58 2.483-1.58 1.915 0 3.534 1.489 3.534 4.489 0 2.92-1.551 4.494-3.539 4.494-1.409 0-2.142-.813-2.478-1.54h-.074v4.67h-2.42Zm2.369-7.637c0 1.557.671 2.58 1.836 2.58 1.187 0 1.835-1.057 1.835-2.58 0-1.511-.637-2.55-1.835-2.55-1.177 0-1.836.994-1.836 2.55ZM295.054 75l-3.182-11.636h1.432l2.432 9.477h.113l2.478-9.477h1.591l2.477 9.477h.114l2.431-9.477h1.432L303.19 75h-1.454l-2.568-9.273h-.091L296.509 75h-1.455Zm14.233-5.25V75h-1.341V63.364h1.341v4.272h.114c.204-.45.511-.808.92-1.073.413-.27.962-.404 1.648-.404.594 0 1.115.12 1.562.358.447.235.794.597 1.04 1.085.25.485.375 1.102.375 1.852V75h-1.341v-5.454c0-.694-.18-1.23-.54-1.609-.356-.382-.85-.573-1.483-.573-.439 0-.833.092-1.181.278a2.037 2.037 0 0 0-.819.813c-.197.356-.295.787-.295 1.295Zm8.112 5.25v-8.727h1.341V75h-1.341Zm.682-10.182a.953.953 0 0 1-.676-.267.857.857 0 0 1-.279-.642c0-.25.093-.464.279-.642a.953.953 0 0 1 .676-.267c.261 0 .485.089.67.267.19.178.285.392.285.642s-.095.464-.285.642a.932.932 0 0 1-.67.267Zm6.91 1.455v1.136h-4.522v-1.136h4.522Zm-3.204-2.091h1.341V72.5c0 .379.055.663.165.852a.85.85 0 0 0 .431.375c.178.06.366.091.563.091.148 0 .269-.007.364-.022l.227-.046.273 1.204a2.733 2.733 0 0 1-.381.103 2.8 2.8 0 0 1-.619.057 2.7 2.7 0 0 1-1.114-.245 2.215 2.215 0 0 1-.898-.744c-.235-.333-.352-.754-.352-1.261v-8.682Zm8.787 11c-.841 0-1.566-.186-2.176-.557a3.742 3.742 0 0 1-1.404-1.568c-.325-.674-.488-1.459-.488-2.353 0-.893.163-1.681.488-2.363.33-.686.788-1.22 1.375-1.602.591-.387 1.281-.58 2.069-.58.454 0 .903.076 1.346.227.443.152.847.398 1.21.739.364.337.654.784.87 1.34.216.558.324 1.243.324 2.058v.568h-6.728v-1.16h5.364c0-.492-.099-.931-.296-1.317a2.223 2.223 0 0 0-.829-.915c-.356-.224-.777-.335-1.261-.335-.535 0-.997.132-1.387.397a2.615 2.615 0 0 0-.892 1.023c-.208.42-.312.871-.312 1.352v.773c0 .66.113 1.218.341 1.676.231.455.551.801.96 1.04.409.235.884.352 1.426.352.352 0 .67-.049.954-.148.288-.102.536-.253.745-.454.208-.204.369-.458.483-.761l1.295.363c-.136.44-.365.826-.687 1.16a3.35 3.35 0 0 1-1.194.772 4.42 4.42 0 0 1-1.596.273ZM295.543 171h-1.478l4.273-11.636h1.455L304.065 171h-1.477l-3.477-9.795h-.091L295.543 171Zm.545-4.545h5.955v1.25h-5.955v-1.25Zm15.79-2.228-1.205.341a2.197 2.197 0 0 0-.335-.585 1.63 1.63 0 0 0-.591-.477c-.25-.125-.57-.188-.96-.188-.534 0-.979.123-1.335.37-.353.242-.529.551-.529.926 0 .333.122.596.364.789.242.194.621.355 1.136.483l1.296.319c.78.189 1.361.479 1.744.869.383.386.574.884.574 1.494 0 .5-.144.947-.432 1.341-.284.394-.682.705-1.193.932-.511.227-1.106.341-1.784.341-.89 0-1.627-.193-2.21-.58-.584-.386-.953-.95-1.108-1.693l1.272-.318c.122.47.351.822.688 1.057.341.235.786.352 1.335.352.625 0 1.121-.133 1.489-.398.371-.269.557-.591.557-.966 0-.303-.106-.556-.319-.761-.212-.208-.537-.364-.977-.466l-1.454-.341c-.8-.189-1.387-.483-1.762-.88-.371-.402-.557-.904-.557-1.506 0-.493.139-.928.415-1.307a2.82 2.82 0 0 1 1.142-.892c.485-.216 1.034-.324 1.648-.324.864 0 1.542.189 2.034.568.496.379.849.879 1.057 1.5Zm2.177 6.773v-8.727h1.341V171h-1.341Zm.682-10.182a.953.953 0 0 1-.676-.267.856.856 0 0 1-.278-.642c0-.25.092-.464.278-.642a.953.953 0 0 1 .676-.267c.262 0 .485.089.671.267a.851.851 0 0 1 .284.642c0 .25-.095.464-.284.642a.935.935 0 0 1-.671.267Zm5.683 10.387a3.55 3.55 0 0 1-1.505-.313 2.58 2.58 0 0 1-1.074-.915c-.265-.401-.398-.886-.398-1.454 0-.5.099-.906.296-1.216.197-.315.46-.561.789-.739a4.2 4.2 0 0 1 1.091-.398c.402-.09.805-.162 1.211-.215.53-.069.96-.12 1.289-.154.334-.038.576-.1.728-.187.155-.087.233-.239.233-.455v-.045c0-.561-.154-.997-.461-1.307-.303-.311-.763-.466-1.38-.466-.641 0-1.142.14-1.506.42-.364.281-.619.58-.767.898l-1.273-.454c.227-.531.53-.944.909-1.239.383-.299.8-.508 1.25-.625a5.205 5.205 0 0 1 1.341-.182c.28 0 .602.034.966.102.368.065.722.199 1.063.404.344.204.63.513.858.926.227.413.34.966.34 1.659V171h-1.34v-1.182h-.069c-.091.19-.242.392-.454.608-.212.216-.494.4-.847.551-.352.152-.782.228-1.29.228Zm.205-1.205c.53 0 .977-.104 1.341-.312a2.133 2.133 0 0 0 1.114-1.847v-1.227c-.057.068-.182.13-.375.187-.19.053-.41.101-.66.142a27.7 27.7 0 0 1-.721.102c-.231.027-.419.05-.563.069a5.114 5.114 0 0 0-.977.221 1.684 1.684 0 0 0-.727.449c-.182.197-.273.466-.273.807 0 .466.172.818.517 1.057.349.235.79.352 1.324.352Zm7.584-4.25V171h-1.341v-8.727h1.295v1.363h.114c.205-.443.515-.799.932-1.068.416-.273.954-.409 1.613-.409.591 0 1.108.121 1.552.364.443.238.787.602 1.034 1.091.246.484.369 1.098.369 1.841V171h-1.341v-5.455c0-.685-.178-1.219-.534-1.602-.356-.386-.845-.579-1.466-.579-.428 0-.811.092-1.148.278a1.99 1.99 0 0 0-.789.813c-.194.356-.29.787-.29 1.295ZM141.815 123v-11.636h4.069c.81 0 1.479.14 2.005.42.527.277.919.65 1.176 1.119.258.466.387.983.387 1.552 0 .5-.089.912-.267 1.238a2.08 2.08 0 0 1-.694.773 3.156 3.156 0 0 1-.926.42V117c.356.023.714.148 1.074.375.36.227.661.553.904.977.242.425.363.943.363 1.557 0 .583-.132 1.108-.397 1.574-.266.466-.684.835-1.256 1.108-.572.273-1.316.409-2.233.409h-4.205Zm1.409-1.25h2.796c.92 0 1.574-.178 1.96-.534.39-.36.585-.796.585-1.307 0-.394-.1-.757-.301-1.091a2.185 2.185 0 0 0-.858-.807c-.371-.204-.81-.306-1.318-.306h-2.864v4.045Zm0-5.273h2.614c.424 0 .807-.083 1.148-.25.344-.166.617-.401.818-.704a1.86 1.86 0 0 0 .307-1.068c0-.512-.178-.946-.534-1.302-.356-.359-.921-.539-1.693-.539h-2.66v3.863Zm10.157-5.113V123h-1.341v-11.636h1.341Zm5.024 11.841a3.554 3.554 0 0 1-1.506-.313 2.58 2.58 0 0 1-1.074-.915c-.265-.401-.397-.886-.397-1.454 0-.5.098-.906.295-1.216.197-.315.46-.561.79-.739.329-.178.693-.31 1.091-.398.401-.09.805-.162 1.21-.215.53-.069.96-.12 1.29-.154.333-.038.575-.1.727-.187.155-.087.233-.239.233-.455v-.045c0-.561-.153-.997-.46-1.307-.303-.311-.764-.466-1.381-.466-.64 0-1.142.14-1.506.42-.363.281-.619.58-.767.898l-1.272-.454c.227-.531.53-.944.909-1.239a3.398 3.398 0 0 1 1.25-.625 5.193 5.193 0 0 1 1.341-.182c.28 0 .602.034.965.102.368.065.722.199 1.063.404.345.204.631.513.858.926.227.413.341.966.341 1.659V123h-1.341v-1.182h-.068a2.36 2.36 0 0 1-.455.608c-.212.216-.494.4-.846.551-.353.152-.783.228-1.29.228Zm.204-1.205c.531 0 .978-.104 1.341-.312.368-.209.644-.478.83-.807.189-.33.284-.676.284-1.04v-1.227c-.057.068-.182.13-.375.187a6.143 6.143 0 0 1-.659.142c-.246.038-.487.072-.722.102-.231.027-.418.05-.562.069a5.107 5.107 0 0 0-.978.221 1.69 1.69 0 0 0-.727.449c-.182.197-.273.466-.273.807 0 .466.173.818.518 1.057.348.235.789.352 1.323.352Zm9.789 1.182c-.818 0-1.523-.193-2.114-.58a3.78 3.78 0 0 1-1.364-1.596c-.318-.678-.477-1.453-.477-2.324 0-.887.163-1.669.489-2.347.329-.682.788-1.214 1.375-1.596.591-.387 1.28-.58 2.068-.58.614 0 1.167.114 1.659.341.493.227.896.545 1.21.955.315.409.51.886.586 1.431h-1.341c-.103-.397-.33-.75-.682-1.056-.349-.311-.818-.466-1.409-.466-.523 0-.981.136-1.375.409-.39.269-.695.649-.915 1.142-.216.488-.324 1.062-.324 1.721 0 .675.106 1.262.318 1.762.216.5.519.888.909 1.164.394.277.856.415 1.387.415.348 0 .664-.06.949-.182.284-.121.524-.295.721-.522.197-.228.337-.5.421-.818h1.341a3.114 3.114 0 0 1-.563 1.392 3.142 3.142 0 0 1-1.176.977c-.485.238-1.049.358-1.693.358Zm6.642-3.364-.023-1.659h.273l3.818-3.886h1.659l-4.068 4.113h-.114l-1.545 1.432ZM173.79 123v-11.636h1.341V123h-1.341Zm5.545 0-3.409-4.318.955-.932 4.159 5.25h-1.705Zm11.203.182c-.788 0-1.479-.188-2.074-.563-.59-.375-1.053-.899-1.386-1.574-.329-.674-.494-1.462-.494-2.363 0-.909.165-1.703.494-2.381.333-.678.796-1.204 1.386-1.579.595-.375 1.286-.563 2.074-.563.788 0 1.478.188 2.069.563.594.375 1.056.901 1.386 1.579.333.678.5 1.472.5 2.381 0 .901-.167 1.689-.5 2.363a3.772 3.772 0 0 1-1.386 1.574c-.591.375-1.281.563-2.069.563Zm0-1.205c.599 0 1.091-.153 1.478-.46a2.72 2.72 0 0 0 .858-1.21c.185-.5.278-1.042.278-1.625 0-.584-.093-1.127-.278-1.631a2.748 2.748 0 0 0-.858-1.221c-.387-.311-.879-.466-1.478-.466-.598 0-1.091.155-1.477.466-.386.31-.672.717-.858 1.221a4.695 4.695 0 0 0-.278 1.631c0 .583.093 1.125.278 1.625.186.5.472.903.858 1.21.386.307.879.46 1.477.46ZM196.54 123v-8.727h1.295v1.318h.091c.159-.432.447-.782.864-1.051a2.54 2.54 0 0 1 1.409-.404c.098 0 .221.002.369.006s.26.01.335.017v1.364a3.351 3.351 0 0 0-.312-.051 3.026 3.026 0 0 0-.506-.04c-.424 0-.803.089-1.136.267a1.954 1.954 0 0 0-1.068 1.778V123h-1.341Zm11.112 0h-1.477l4.272-11.636h1.455L216.175 123h-1.478l-3.477-9.795h-.091L207.652 123Zm.545-4.545h5.955v1.25h-5.955v-1.25Zm13.495-4.182v1.136h-4.705v-1.136h4.705ZM218.396 123v-9.932c0-.5.118-.916.353-1.25a2.18 2.18 0 0 1 .914-.75c.375-.166.771-.25 1.188-.25.329 0 .598.027.807.08.208.053.363.102.466.147l-.387 1.16a5.962 5.962 0 0 0-.284-.086 1.726 1.726 0 0 0-.466-.051c-.443 0-.763.112-.96.335-.193.224-.29.552-.29.983V123h-1.341Zm5.175 0v-8.727h1.295v1.318h.091c.159-.432.447-.782.864-1.051a2.542 2.542 0 0 1 1.409-.404c.099 0 .222.002.369.006.148.004.26.01.336.017v1.364a3.462 3.462 0 0 0-.313-.051 3.017 3.017 0 0 0-.506-.04c-.424 0-.803.089-1.136.267a2.019 2.019 0 0 0-.784.727 1.963 1.963 0 0 0-.284 1.051V123h-1.341Zm5.953 0v-8.727h1.341V123h-1.341Zm.682-10.182a.953.953 0 0 1-.676-.267.857.857 0 0 1-.279-.642c0-.25.093-.464.279-.642a.953.953 0 0 1 .676-.267c.261 0 .485.089.67.267.19.178.285.392.285.642s-.095.464-.285.642a.932.932 0 0 1-.67.267Zm6.66 10.364c-.818 0-1.522-.193-2.113-.58a3.772 3.772 0 0 1-1.364-1.596c-.318-.678-.477-1.453-.477-2.324 0-.887.163-1.669.489-2.347.329-.682.787-1.214 1.375-1.596.59-.387 1.28-.58 2.068-.58.613 0 1.166.114 1.659.341.492.227.896.545 1.21.955.314.409.51.886.585 1.431h-1.341c-.102-.397-.329-.75-.681-1.056-.349-.311-.819-.466-1.41-.466-.522 0-.981.136-1.375.409-.39.269-.695.649-.914 1.142-.216.488-.324 1.062-.324 1.721 0 .675.106 1.262.318 1.762.216.5.519.888.909 1.164.394.277.856.415 1.386.415.349 0 .665-.06.949-.182.284-.121.525-.295.722-.522.197-.228.337-.5.42-.818h1.341a3.1 3.1 0 0 1-.562 1.392 3.158 3.158 0 0 1-1.176.977c-.485.238-1.05.358-1.694.358Zm7.961.023a3.554 3.554 0 0 1-1.506-.313 2.58 2.58 0 0 1-1.074-.915c-.265-.401-.398-.886-.398-1.454 0-.5.099-.906.296-1.216.197-.315.46-.561.79-.739.329-.178.693-.31 1.091-.398.401-.09.804-.162 1.21-.215.53-.069.96-.12 1.29-.154.333-.038.575-.1.727-.187.155-.087.233-.239.233-.455v-.045c0-.561-.154-.997-.46-1.307-.303-.311-.764-.466-1.381-.466-.64 0-1.142.14-1.506.42-.363.281-.619.58-.767.898l-1.273-.454c.228-.531.531-.944.91-1.239a3.398 3.398 0 0 1 1.25-.625 5.192 5.192 0 0 1 1.34-.182c.281 0 .603.034.966.102.368.065.722.199 1.063.404.345.204.631.513.858.926.227.413.341.966.341 1.659V123h-1.341v-1.182h-.068a2.36 2.36 0 0 1-.455.608c-.212.216-.494.4-.847.551-.352.152-.782.228-1.289.228Zm.204-1.205c.531 0 .978-.104 1.341-.312.368-.209.644-.478.83-.807.189-.33.284-.676.284-1.04v-1.227c-.057.068-.182.13-.375.187-.19.053-.409.101-.659.142-.247.038-.487.072-.722.102-.231.027-.418.05-.562.069a5.107 5.107 0 0 0-.978.221 1.69 1.69 0 0 0-.727.449c-.182.197-.273.466-.273.807 0 .466.173.818.517 1.057.349.235.79.352 1.324.352Zm7.584-4.25V123h-1.341v-8.727h1.296v1.363h.113c.205-.443.515-.799.932-1.068.417-.273.955-.409 1.614-.409.591 0 1.108.121 1.551.364.443.238.788.602 1.034 1.091.246.484.369 1.098.369 1.841V123h-1.341v-5.455c0-.685-.178-1.219-.534-1.602-.356-.386-.844-.579-1.466-.579-.428 0-.81.092-1.147.278a1.985 1.985 0 0 0-.79.813c-.193.356-.29.787-.29 1.295Zm13.178 5.25h-1.478l4.273-11.636h1.455L274.315 123h-1.477l-3.477-9.795h-.091L265.793 123Zm.545-4.545h5.955v1.25h-5.955v-1.25Zm9.608 4.545v-8.727h1.295v1.363h.114c.182-.466.475-.827.881-1.085.405-.261.892-.392 1.46-.392.576 0 1.055.131 1.438.392.386.258.687.619.903 1.085h.091a2.55 2.55 0 0 1 1.006-1.074c.446-.268.982-.403 1.607-.403.781 0 1.419.244 1.915.733.496.485.745 1.241.745 2.267V123h-1.341v-5.841c0-.644-.176-1.104-.529-1.381a1.957 1.957 0 0 0-1.244-.414c-.614 0-1.089.185-1.426.556-.337.368-.506.834-.506 1.398V123h-1.364v-5.977c0-.496-.161-.896-.482-1.199-.322-.307-.737-.46-1.245-.46-.348 0-.674.092-.977.278a2.1 2.1 0 0 0-.727.773 2.277 2.277 0 0 0-.273 1.13V123h-1.341Zm17.565.182c-.841 0-1.566-.186-2.176-.557a3.736 3.736 0 0 1-1.403-1.568c-.326-.674-.489-1.459-.489-2.352 0-.894.163-1.682.489-2.364.329-.686.788-1.22 1.375-1.602.591-.387 1.28-.58 2.068-.58.455 0 .903.076 1.347.227.443.152.846.398 1.21.739.363.337.653.784.869 1.341.216.557.324 1.242.324 2.057v.568h-6.727v-1.159h5.363c0-.493-.098-.932-.295-1.318a2.219 2.219 0 0 0-.83-.915c-.356-.224-.776-.335-1.261-.335-.534 0-.996.132-1.386.397a2.617 2.617 0 0 0-.892 1.023 2.997 2.997 0 0 0-.313 1.352v.773c0 .659.114 1.218.341 1.676.231.455.551.801.96 1.04.409.235.885.352 1.426.352.353 0 .671-.049.955-.147.288-.103.536-.254.744-.455.209-.205.37-.458.483-.761l1.296.363c-.137.44-.366.826-.688 1.159-.322.33-.72.587-1.193.773a4.425 4.425 0 0 1-1.597.273Zm5.654-.182v-8.727h1.295v1.318h.091c.159-.432.447-.782.864-1.051a2.54 2.54 0 0 1 1.409-.404c.098 0 .221.002.369.006s.26.01.335.017v1.364a3.351 3.351 0 0 0-.312-.051 3.026 3.026 0 0 0-.506-.04c-.424 0-.803.089-1.136.267a1.954 1.954 0 0 0-1.068 1.778V123h-1.341Zm5.953 0v-8.727h1.341V123h-1.341Zm.682-10.182a.951.951 0 0 1-.676-.267.857.857 0 0 1-.279-.642c0-.25.093-.464.279-.642a.951.951 0 0 1 .676-.267c.261 0 .485.089.67.267.19.178.284.392.284.642s-.094.464-.284.642a.932.932 0 0 1-.67.267Zm6.66 10.364c-.818 0-1.522-.193-2.113-.58a3.772 3.772 0 0 1-1.364-1.596c-.318-.678-.477-1.453-.477-2.324 0-.887.163-1.669.488-2.347.33-.682.788-1.214 1.375-1.596.591-.387 1.281-.58 2.069-.58.613 0 1.166.114 1.659.341.492.227.895.545 1.21.955.314.409.509.886.585 1.431h-1.341c-.102-.397-.329-.75-.682-1.056-.348-.311-.818-.466-1.409-.466-.522 0-.981.136-1.375.409-.39.269-.695.649-.915 1.142-.215.488-.323 1.062-.323 1.721 0 .675.106 1.262.318 1.762.216.5.519.888.909 1.164.394.277.856.415 1.386.415.349 0 .665-.06.949-.182.284-.121.525-.295.722-.522.197-.228.337-.5.42-.818h1.341a3.112 3.112 0 0 1-.562 1.392 3.153 3.153 0 0 1-1.177.977c-.484.238-1.049.358-1.693.358Zm7.96.023a3.55 3.55 0 0 1-1.505-.313 2.58 2.58 0 0 1-1.074-.915c-.265-.401-.398-.886-.398-1.454 0-.5.099-.906.296-1.216.197-.315.46-.561.789-.739a4.2 4.2 0 0 1 1.091-.398c.402-.09.805-.162 1.211-.215.53-.069.96-.12 1.289-.154.334-.038.576-.1.728-.187.155-.087.233-.239.233-.455v-.045c0-.561-.154-.997-.461-1.307-.303-.311-.763-.466-1.38-.466-.641 0-1.142.14-1.506.42-.364.281-.619.58-.767.898l-1.273-.454c.227-.531.53-.944.909-1.239.383-.299.8-.508 1.25-.625a5.205 5.205 0 0 1 1.341-.182c.28 0 .602.034.966.102.368.065.722.199 1.063.404.344.204.63.513.858.926.227.413.34.966.34 1.659V123h-1.34v-1.182h-.069c-.091.19-.242.392-.454.608-.212.216-.494.4-.847.551-.352.152-.782.228-1.29.228Zm.205-1.205c.53 0 .977-.104 1.341-.312a2.133 2.133 0 0 0 1.114-1.847v-1.227c-.057.068-.182.13-.375.187-.19.053-.41.101-.66.142a27.7 27.7 0 0 1-.721.102c-.231.027-.419.05-.563.069a5.114 5.114 0 0 0-.977.221 1.684 1.684 0 0 0-.727.449c-.182.197-.273.466-.273.807 0 .466.172.818.517 1.057.349.235.79.352 1.324.352Zm7.584-4.25V123h-1.341v-8.727h1.295v1.363h.114c.205-.443.515-.799.932-1.068.416-.273.954-.409 1.613-.409.591 0 1.108.121 1.552.364.443.238.787.602 1.034 1.091.246.484.369 1.098.369 1.841V123h-1.341v-5.455c0-.685-.178-1.219-.534-1.602-.356-.386-.845-.579-1.466-.579-.428 0-.811.092-1.148.278a1.99 1.99 0 0 0-.789.813c-.194.356-.29.787-.29 1.295ZM201.425 219v-11.636h1.409v5.181h6.204v-5.181h1.409V219h-1.409v-5.205h-6.204V219h-1.409Zm11.662 0v-8.727h1.341V219h-1.341Zm.681-10.182a.955.955 0 0 1-.676-.267.86.86 0 0 1-.278-.642.86.86 0 0 1 .278-.642.955.955 0 0 1 .676-.267c.262 0 .485.089.671.267a.851.851 0 0 1 .284.642c0 .25-.095.464-.284.642a.935.935 0 0 1-.671.267Zm9.297 3.409-1.204.341a2.253 2.253 0 0 0-.335-.585 1.63 1.63 0 0 0-.591-.477c-.25-.125-.57-.188-.961-.188-.534 0-.979.123-1.335.37-.352.242-.528.551-.528.926 0 .333.121.596.363.789.243.194.622.355 1.137.483l1.295.319c.781.189 1.362.479 1.745.869.382.386.573.884.573 1.494 0 .5-.144.947-.431 1.341-.284.394-.682.705-1.194.932-.511.227-1.106.341-1.784.341-.89 0-1.627-.193-2.21-.58-.583-.386-.953-.95-1.108-1.693l1.273-.318c.121.47.35.822.687 1.057.341.235.786.352 1.336.352.625 0 1.121-.133 1.488-.398.371-.269.557-.591.557-.966 0-.303-.106-.556-.318-.761-.212-.208-.538-.364-.977-.466l-1.455-.341c-.799-.189-1.386-.483-1.761-.88-.372-.402-.557-.904-.557-1.506 0-.493.138-.928.415-1.307a2.82 2.82 0 0 1 1.142-.892c.485-.216 1.034-.324 1.647-.324.864 0 1.542.189 2.035.568.496.379.848.879 1.056 1.5Zm2.178 10.046v-12h1.295v1.386h.159c.099-.151.235-.345.41-.579.178-.239.431-.451.761-.637.333-.189.784-.284 1.352-.284.735 0 1.383.184 1.943.551.561.368.998.888 1.313 1.563.314.674.471 1.469.471 2.386 0 .924-.157 1.725-.471 2.403-.315.675-.75 1.197-1.307 1.569-.557.367-1.199.551-1.926.551-.561 0-1.01-.093-1.347-.279-.337-.189-.596-.403-.778-.642a8.677 8.677 0 0 1-.421-.602h-.113v4.614h-1.341Zm1.318-7.637c0 .659.097 1.241.29 1.745.193.5.475.892.846 1.176.372.28.826.42 1.364.42.561 0 1.028-.147 1.403-.443.379-.299.663-.701.853-1.204.193-.508.29-1.072.29-1.694 0-.613-.095-1.166-.285-1.659-.185-.496-.467-.888-.846-1.176-.375-.292-.847-.437-1.415-.437-.545 0-1.004.138-1.375.414-.371.273-.651.656-.841 1.148-.189.489-.284 1.059-.284 1.71Zm11 4.569a3.554 3.554 0 0 1-1.506-.313 2.583 2.583 0 0 1-1.073-.915c-.266-.401-.398-.886-.398-1.454 0-.5.098-.906.295-1.216.197-.315.46-.561.79-.739.33-.178.693-.31 1.091-.398.401-.09.805-.162 1.21-.215.53-.069.96-.12 1.29-.154.333-.038.576-.1.727-.187.156-.087.233-.239.233-.455v-.045c0-.561-.153-.997-.46-1.307-.303-.311-.763-.466-1.381-.466-.64 0-1.142.14-1.505.42-.364.281-.62.58-.767.898l-1.273-.454c.227-.531.53-.944.909-1.239a3.398 3.398 0 0 1 1.25-.625 5.193 5.193 0 0 1 1.341-.182c.28 0 .602.034.966.102.367.065.721.199 1.062.404.345.204.631.513.858.926.227.413.341.966.341 1.659V219h-1.341v-1.182h-.068c-.091.19-.242.392-.455.608-.212.216-.494.4-.846.551-.352.152-.782.228-1.29.228Zm.205-1.205c.53 0 .977-.104 1.341-.312a2.14 2.14 0 0 0 .829-.807c.189-.33.284-.676.284-1.04v-1.227c-.057.068-.182.13-.375.187a6.143 6.143 0 0 1-.659.142c-.246.038-.487.072-.722.102-.231.027-.418.05-.562.069a5.114 5.114 0 0 0-.977.221c-.3.099-.542.248-.728.449-.181.197-.272.466-.272.807 0 .466.172.818.517 1.057.348.235.79.352 1.324.352Zm7.583-4.25V219h-1.34v-8.727h1.295v1.363h.114c.204-.443.515-.799.931-1.068.417-.273.955-.409 1.614-.409.591 0 1.108.121 1.551.364.443.238.788.602 1.034 1.091.247.484.37 1.098.37 1.841V219h-1.341v-5.455c0-.685-.178-1.219-.534-1.602-.356-.386-.845-.579-1.466-.579-.428 0-.811.092-1.148.278a1.992 1.992 0 0 0-.79.813c-.193.356-.29.787-.29 1.295Zm8.019 5.25v-8.727h1.341V219h-1.341Zm.682-10.182a.951.951 0 0 1-.676-.267.857.857 0 0 1-.279-.642c0-.25.093-.464.279-.642a.951.951 0 0 1 .676-.267c.261 0 .485.089.67.267.19.178.284.392.284.642s-.094.464-.284.642a.932.932 0 0 1-.67.267Zm6.66 10.364c-.818 0-1.522-.193-2.113-.58a3.772 3.772 0 0 1-1.364-1.596c-.318-.678-.477-1.453-.477-2.324 0-.887.163-1.669.488-2.347.33-.682.788-1.214 1.375-1.596.591-.387 1.281-.58 2.069-.58.613 0 1.166.114 1.659.341.492.227.895.545 1.21.955.314.409.509.886.585 1.431h-1.341c-.102-.397-.329-.75-.682-1.056-.348-.311-.818-.466-1.409-.466-.522 0-.981.136-1.375.409-.39.269-.695.649-.915 1.142-.215.488-.323 1.062-.323 1.721 0 .675.106 1.262.318 1.762.216.5.519.888.909 1.164.394.277.856.415 1.386.415.349 0 .665-.06.949-.182.284-.121.525-.295.722-.522.197-.228.337-.5.42-.818h1.341a3.112 3.112 0 0 1-.562 1.392 3.153 3.153 0 0 1-1.177.977c-.484.238-1.049.358-1.693.358Zm13.438 0c-.788 0-1.479-.188-2.074-.563-.591-.375-1.053-.899-1.386-1.574-.33-.674-.495-1.462-.495-2.363 0-.909.165-1.703.495-2.381.333-.678.795-1.204 1.386-1.579.595-.375 1.286-.563 2.074-.563.788 0 1.477.188 2.068.563.595.375 1.057.901 1.386 1.579.334.678.5 1.472.5 2.381 0 .901-.166 1.689-.5 2.363a3.758 3.758 0 0 1-1.386 1.574c-.591.375-1.28.563-2.068.563Zm0-1.205c.598 0 1.091-.153 1.477-.46a2.72 2.72 0 0 0 .858-1.21c.186-.5.278-1.042.278-1.625 0-.584-.092-1.127-.278-1.631a2.748 2.748 0 0 0-.858-1.221c-.386-.311-.879-.466-1.477-.466-.599 0-1.091.155-1.478.466-.386.31-.672.717-.858 1.221a4.695 4.695 0 0 0-.278 1.631c0 .583.093 1.125.278 1.625.186.5.472.903.858 1.21.387.307.879.46 1.478.46Zm6.001 1.023v-8.727h1.296v1.318h.091c.159-.432.446-.782.863-1.051a2.544 2.544 0 0 1 1.409-.404c.099 0 .222.002.37.006.147.004.259.01.335.017v1.364a3.462 3.462 0 0 0-.313-.051 3.014 3.014 0 0 0-.505-.04c-.425 0-.803.089-1.137.267a2.019 2.019 0 0 0-.784.727 1.963 1.963 0 0 0-.284 1.051V219h-1.341Zm10.635 0v-11.636h1.409v10.386h5.409V219h-6.818Zm11.386.205a3.55 3.55 0 0 1-1.505-.313 2.58 2.58 0 0 1-1.074-.915c-.265-.401-.398-.886-.398-1.454 0-.5.099-.906.296-1.216.197-.315.46-.561.789-.739a4.2 4.2 0 0 1 1.091-.398c.402-.09.805-.162 1.211-.215.53-.069.96-.12 1.289-.154.334-.038.576-.1.728-.187.155-.087.233-.239.233-.455v-.045c0-.561-.154-.997-.461-1.307-.303-.311-.763-.466-1.38-.466-.641 0-1.142.14-1.506.42-.364.281-.619.58-.767.898l-1.273-.454c.227-.531.53-.944.909-1.239.383-.299.8-.508 1.25-.625a5.205 5.205 0 0 1 1.341-.182c.28 0 .602.034.966.102.368.065.722.199 1.063.404.344.204.63.513.858.926.227.413.34.966.34 1.659V219h-1.34v-1.182h-.069c-.091.19-.242.392-.454.608-.212.216-.494.4-.847.551-.352.152-.782.228-1.29.228Zm.205-1.205c.53 0 .977-.104 1.341-.312a2.133 2.133 0 0 0 1.114-1.847v-1.227c-.057.068-.182.13-.375.187-.19.053-.41.101-.66.142a27.7 27.7 0 0 1-.721.102c-.231.027-.419.05-.563.069a5.114 5.114 0 0 0-.977.221 1.684 1.684 0 0 0-.727.449c-.182.197-.273.466-.273.807 0 .466.172.818.517 1.057.349.235.79.352 1.324.352Zm10.038-7.727v1.136h-4.522v-1.136h4.522Zm-3.204-2.091h1.341v8.318c0 .379.055.663.164.852a.853.853 0 0 0 .432.375c.178.061.366.091.563.091.148 0 .269-.007.363-.023l.228-.045.272 1.205c-.09.034-.217.068-.38.102-.163.038-.37.057-.62.057-.378 0-.75-.082-1.113-.245a2.217 2.217 0 0 1-.898-.744c-.235-.333-.352-.754-.352-1.261v-8.682ZM314.43 219v-8.727h1.341V219h-1.341Zm.682-10.182a.953.953 0 0 1-.676-.267.856.856 0 0 1-.278-.642c0-.25.092-.464.278-.642a.953.953 0 0 1 .676-.267c.262 0 .485.089.671.267a.851.851 0 0 1 .284.642c0 .25-.095.464-.284.642a.935.935 0 0 1-.671.267Zm4.456 4.932V219h-1.341v-8.727h1.296v1.363h.113c.205-.443.516-.799.932-1.068.417-.273.955-.409 1.614-.409.591 0 1.108.121 1.551.364.443.238.788.602 1.034 1.091.246.484.369 1.098.369 1.841V219h-1.341v-5.455c0-.685-.178-1.219-.534-1.602-.356-.386-.844-.579-1.466-.579-.428 0-.81.092-1.147.278a1.985 1.985 0 0 0-.79.813c-.193.356-.29.787-.29 1.295Zm9.019-3.477 2.091 3.568 2.09-3.568h1.546l-2.818 4.363 2.818 4.364h-1.546l-2.09-3.386-2.091 3.386h-1.546l2.773-4.364-2.773-4.363h1.546ZM190.616 256.614v-1.25h8.728v1.25h-3.659V267h-1.409v-10.386h-3.66ZM202.314 267l-2.659-8.727h1.409l1.886 6.682h.091l1.864-6.682h1.432l1.841 6.659h.09l1.887-6.659h1.409L208.905 267h-1.318l-1.909-6.705h-.137L203.632 267h-1.318Zm14.271.182c-.788 0-1.479-.188-2.074-.563-.591-.375-1.053-.899-1.386-1.574-.33-.674-.494-1.462-.494-2.363 0-.909.164-1.703.494-2.381.333-.678.795-1.204 1.386-1.579.595-.375 1.286-.563 2.074-.563.788 0 1.478.188 2.068.563.595.375 1.057.901 1.387 1.579.333.678.5 1.472.5 2.381 0 .901-.167 1.689-.5 2.363-.33.675-.792 1.199-1.387 1.574-.59.375-1.28.563-2.068.563Zm0-1.205c.599 0 1.091-.153 1.477-.46.387-.307.673-.71.858-1.21.186-.5.279-1.042.279-1.625 0-.584-.093-1.127-.279-1.631a2.732 2.732 0 0 0-.858-1.221c-.386-.311-.878-.466-1.477-.466-.598 0-1.091.155-1.477.466-.386.31-.672.717-.858 1.221a4.671 4.671 0 0 0-.278 1.631c0 .583.092 1.125.278 1.625.186.5.472.903.858 1.21.386.307.879.46 1.477.46Zm14.047 1.205c-.788 0-1.479-.188-2.074-.563-.591-.375-1.053-.899-1.386-1.574-.33-.674-.494-1.462-.494-2.363 0-.909.164-1.703.494-2.381.333-.678.795-1.204 1.386-1.579.595-.375 1.286-.563 2.074-.563.788 0 1.477.188 2.068.563.595.375 1.057.901 1.387 1.579.333.678.5 1.472.5 2.381 0 .901-.167 1.689-.5 2.363-.33.675-.792 1.199-1.387 1.574-.591.375-1.28.563-2.068.563Zm0-1.205c.599 0 1.091-.153 1.477-.46.387-.307.673-.71.858-1.21.186-.5.279-1.042.279-1.625 0-.584-.093-1.127-.279-1.631a2.732 2.732 0 0 0-.858-1.221c-.386-.311-.878-.466-1.477-.466-.598 0-1.091.155-1.477.466-.387.31-.673.717-.858 1.221a4.672 4.672 0 0 0-.279 1.631c0 .583.093 1.125.279 1.625.185.5.471.903.858 1.21.386.307.879.46 1.477.46Zm6.002 1.023v-8.727h1.295v1.318h.091c.159-.432.447-.782.864-1.051a2.54 2.54 0 0 1 1.409-.404c.098 0 .221.002.369.006a5.5 5.5 0 0 1 .335.017v1.364a3.351 3.351 0 0 0-.312-.051 3.026 3.026 0 0 0-.506-.04c-.424 0-.803.089-1.136.267a1.955 1.955 0 0 0-1.069 1.778V267h-1.34Zm10.634-11.636h1.682l3.955 9.659h.136l3.955-9.659h1.682V267h-1.319v-8.841h-.113L253.609 267h-1.272l-3.637-8.841h-.113V267h-1.319v-11.636Zm17.598 11.818c-.787 0-1.479-.188-2.073-.563-.591-.375-1.053-.899-1.387-1.574-.329-.674-.494-1.462-.494-2.363 0-.909.165-1.703.494-2.381.334-.678.796-1.204 1.387-1.579.594-.375 1.286-.563 2.073-.563.788 0 1.478.188 2.069.563.594.375 1.056.901 1.386 1.579.333.678.5 1.472.5 2.381 0 .901-.167 1.689-.5 2.363a3.772 3.772 0 0 1-1.386 1.574c-.591.375-1.281.563-2.069.563Zm0-1.205c.599 0 1.091-.153 1.478-.46a2.72 2.72 0 0 0 .858-1.21c.185-.5.278-1.042.278-1.625 0-.584-.093-1.127-.278-1.631a2.748 2.748 0 0 0-.858-1.221c-.387-.311-.879-.466-1.478-.466-.598 0-1.09.155-1.477.466-.386.31-.672.717-.858 1.221a4.695 4.695 0 0 0-.278 1.631c0 .583.093 1.125.278 1.625.186.5.472.903.858 1.21.387.307.879.46 1.477.46Zm6.002 1.023v-8.727h1.295v1.318h.091c.159-.432.447-.782.864-1.051a2.542 2.542 0 0 1 1.409-.404c.098 0 .222.002.369.006.148.004.26.01.336.017v1.364a3.462 3.462 0 0 0-.313-.051 3.026 3.026 0 0 0-.506-.04c-.424 0-.803.089-1.136.267-.33.174-.591.417-.784.727a1.963 1.963 0 0 0-.284 1.051V267h-1.341Zm9.346.182c-.84 0-1.566-.186-2.176-.557a3.736 3.736 0 0 1-1.403-1.568c-.326-.674-.489-1.459-.489-2.352 0-.894.163-1.682.489-2.364.329-.686.788-1.22 1.375-1.602.591-.387 1.28-.58 2.068-.58.455 0 .904.076 1.347.227.443.152.846.398 1.21.739.364.337.653.784.869 1.341.216.557.324 1.242.324 2.057v.568h-6.727v-1.159h5.363c0-.493-.098-.932-.295-1.318a2.219 2.219 0 0 0-.83-.915c-.356-.224-.776-.335-1.261-.335-.534 0-.996.132-1.386.397a2.617 2.617 0 0 0-.892 1.023 2.997 2.997 0 0 0-.313 1.352v.773c0 .659.114 1.218.341 1.676.231.455.551.801.96 1.04.409.235.885.352 1.426.352.353 0 .671-.049.955-.147.288-.103.536-.254.744-.455.209-.205.37-.458.483-.761l1.296.363c-.137.44-.366.826-.688 1.159-.322.33-.719.587-1.193.773a4.421 4.421 0 0 1-1.597.273ZM290.55 267v-11.636h3.932c.909 0 1.655.155 2.238.466.584.306 1.015.729 1.296 1.267.28.537.42 1.149.42 1.835 0 .685-.14 1.293-.42 1.824-.281.53-.711.947-1.29 1.25-.58.299-1.32.449-2.222.449h-3.182v-1.273h3.137c.621 0 1.121-.091 1.5-.273.382-.182.659-.439.829-.773.175-.337.262-.738.262-1.204 0-.466-.087-.873-.262-1.222a1.784 1.784 0 0 0-.835-.807c-.382-.193-.888-.289-1.517-.289h-2.477V267h-1.409Zm5.477-5.227 2.864 5.227h-1.637l-2.818-5.227h1.591Zm7.143 5.432a3.55 3.55 0 0 1-1.505-.313 2.58 2.58 0 0 1-1.074-.915c-.265-.401-.398-.886-.398-1.454 0-.5.099-.906.296-1.216.197-.315.46-.561.789-.739a4.2 4.2 0 0 1 1.091-.398c.402-.09.805-.162 1.211-.215.53-.069.96-.12 1.289-.154.334-.038.576-.1.728-.187.155-.087.233-.239.233-.455v-.045c0-.561-.154-.997-.461-1.307-.303-.311-.763-.466-1.38-.466-.641 0-1.142.14-1.506.42-.364.281-.619.58-.767.898l-1.273-.454c.227-.531.53-.944.909-1.239.383-.299.8-.508 1.25-.625a5.205 5.205 0 0 1 1.341-.182c.28 0 .602.034.966.102.368.065.722.199 1.063.404.344.204.63.513.858.926.227.413.34.966.34 1.659V267h-1.34v-1.182h-.069c-.091.19-.242.392-.454.608-.212.216-.494.4-.847.551-.352.152-.782.228-1.29.228Zm.205-1.205c.53 0 .977-.104 1.341-.312a2.133 2.133 0 0 0 1.114-1.847v-1.227c-.057.068-.182.13-.375.187-.19.053-.41.101-.66.142a27.7 27.7 0 0 1-.721.102c-.231.027-.419.05-.563.069a5.114 5.114 0 0 0-.977.221 1.684 1.684 0 0 0-.727.449c-.182.197-.273.466-.273.807 0 .466.172.818.517 1.057.349.235.79.352 1.324.352Zm9.788 1.182c-.818 0-1.522-.193-2.113-.58a3.772 3.772 0 0 1-1.364-1.596c-.318-.678-.477-1.453-.477-2.324 0-.887.163-1.669.488-2.347.33-.682.788-1.214 1.375-1.596.591-.387 1.281-.58 2.069-.58.613 0 1.166.114 1.659.341.492.227.896.545 1.21.955.314.409.509.886.585 1.431h-1.341c-.102-.397-.329-.75-.682-1.056-.348-.311-.818-.466-1.409-.466-.522 0-.981.136-1.375.409-.39.269-.695.649-.914 1.142-.216.488-.324 1.062-.324 1.721 0 .675.106 1.262.318 1.762.216.5.519.888.909 1.164.394.277.856.415 1.386.415.349 0 .665-.06.949-.182.284-.121.525-.295.722-.522.197-.228.337-.5.42-.818h1.341a3.112 3.112 0 0 1-.562 1.392 3.158 3.158 0 0 1-1.176.977c-.485.238-1.05.358-1.694.358Zm9.051 0c-.84 0-1.566-.186-2.176-.557a3.736 3.736 0 0 1-1.403-1.568c-.326-.674-.489-1.459-.489-2.352 0-.894.163-1.682.489-2.364.329-.686.788-1.22 1.375-1.602.591-.387 1.28-.58 2.068-.58.455 0 .904.076 1.347.227.443.152.846.398 1.21.739.364.337.653.784.869 1.341.216.557.324 1.242.324 2.057v.568h-6.727v-1.159h5.363c0-.493-.098-.932-.295-1.318a2.219 2.219 0 0 0-.83-.915c-.356-.224-.776-.335-1.261-.335-.534 0-.996.132-1.386.397a2.617 2.617 0 0 0-.892 1.023 2.997 2.997 0 0 0-.313 1.352v.773c0 .659.114 1.218.341 1.676.231.455.551.801.96 1.04.409.235.885.352 1.426.352.353 0 .671-.049.955-.147.288-.103.536-.254.744-.455.209-.205.37-.458.483-.761l1.296.363c-.137.44-.366.826-.688 1.159-.322.33-.719.587-1.193.773a4.421 4.421 0 0 1-1.597.273Zm11.836-6.955-1.205.341a2.224 2.224 0 0 0-.335-.585 1.63 1.63 0 0 0-.591-.477c-.25-.125-.57-.188-.96-.188-.534 0-.979.123-1.335.37-.353.242-.529.551-.529.926 0 .333.121.596.364.789.242.194.621.355 1.136.483l1.296.319c.78.189 1.361.479 1.744.869.383.386.574.884.574 1.494 0 .5-.144.947-.432 1.341-.284.394-.682.705-1.193.932-.512.227-1.106.341-1.784.341-.89 0-1.627-.193-2.211-.58-.583-.386-.952-.95-1.107-1.693l1.272-.318c.121.47.351.822.688 1.057.341.235.786.352 1.335.352.625 0 1.121-.133 1.489-.398.371-.269.556-.591.556-.966 0-.303-.106-.556-.318-.761-.212-.208-.538-.364-.977-.466l-1.455-.341c-.799-.189-1.386-.483-1.761-.88-.371-.402-.557-.904-.557-1.506 0-.493.139-.928.415-1.307a2.82 2.82 0 0 1 1.142-.892c.485-.216 1.034-.324 1.648-.324.863 0 1.541.189 2.034.568a3.07 3.07 0 0 1 1.057 1.5Z" fill="#000"/><path d="M388.295 255.364V267h-1.409v-10.159h-.068l-2.841 1.886v-1.432l2.909-1.931h1.409Zm3.66 11.727a.983.983 0 0 1-.722-.301.985.985 0 0 1-.301-.722c0-.28.1-.521.301-.721a.984.984 0 0 1 .722-.302c.28 0 .52.101.721.302.201.2.301.441.301.721a.964.964 0 0 1-.142.512c-.091.155-.214.28-.369.375a.984.984 0 0 1-.511.136Zm7.001-11.886a4.15 4.15 0 0 1 1.432.272c.477.178.913.474 1.307.887.394.409.71.967.948 1.676.239.708.358 1.596.358 2.665 0 1.034-.098 1.952-.295 2.755-.193.799-.474 1.474-.841 2.023-.364.549-.807.966-1.329 1.25-.519.284-1.107.426-1.762.426-.651 0-1.233-.129-1.744-.386a3.429 3.429 0 0 1-1.25-1.085 3.768 3.768 0 0 1-.619-1.62h1.386c.125.534.373.976.744 1.324.375.345.87.517 1.483.517.898 0 1.606-.392 2.125-1.176.523-.784.784-1.892.784-3.324h-.091a3.58 3.58 0 0 1-.755.824 3.337 3.337 0 0 1-2.108.722 3.536 3.536 0 0 1-1.836-.495 3.748 3.748 0 0 1-1.329-1.369c-.33-.583-.494-1.25-.494-2 0-.712.159-1.364.477-1.955a3.696 3.696 0 0 1 1.352-1.42c.583-.352 1.269-.523 2.057-.511Zm0 1.25c-.477 0-.907.119-1.29.357-.379.235-.68.554-.903.955a2.69 2.69 0 0 0-.33 1.324c0 .485.106.926.318 1.324.216.394.51.708.881.943.375.231.801.347 1.279.347.359 0 .695-.071 1.005-.211.311-.144.582-.339.813-.585.235-.25.418-.532.551-.847.132-.318.199-.649.199-.994 0-.454-.11-.881-.33-1.278a2.61 2.61 0 0 0-.898-.966 2.322 2.322 0 0 0-1.295-.369Zm12.212 8.363v-.613c0-.425.087-.813.261-1.165.178-.356.436-.64.773-.852.341-.216.753-.324 1.238-.324.493 0 .906.108 1.239.324.333.212.585.496.756.852.17.352.255.74.255 1.165v.613c0 .424-.087.815-.261 1.171-.17.352-.424.636-.761.852-.334.212-.743.318-1.228.318-.492 0-.907-.106-1.244-.318a2.105 2.105 0 0 1-.767-.852 2.633 2.633 0 0 1-.261-1.171Zm1.159-.613v.613c0 .352.083.669.25.949.166.277.454.415.863.415.398 0 .678-.138.841-.415.167-.28.25-.597.25-.949v-.613a1.86 1.86 0 0 0-.238-.944c-.159-.28-.444-.42-.853-.42-.397 0-.683.14-.858.42-.17.277-.255.591-.255.944Zm-6.955-6.046v-.614c0-.424.087-.812.262-1.164.178-.356.435-.64.772-.853.341-.216.754-.323 1.239-.323.492 0 .905.107 1.239.323.333.213.585.497.755.853.171.352.256.74.256 1.164v.614c0 .424-.087.814-.261 1.171a2.071 2.071 0 0 1-.762.852c-.333.212-.742.318-1.227.318-.493 0-.907-.106-1.244-.318a2.098 2.098 0 0 1-.767-.852 2.623 2.623 0 0 1-.262-1.171Zm1.159-.614v.614c0 .352.084.669.25.949.167.276.455.415.864.415.398 0 .678-.139.841-.415.166-.28.25-.597.25-.949v-.614c0-.352-.08-.666-.239-.943-.159-.28-.443-.42-.852-.42-.398 0-.684.14-.858.42a1.757 1.757 0 0 0-.256.943Zm-.727 9.455 8-11.636h1.295l-8 11.636h-1.295ZM388.295 207.364V219h-1.409v-10.159h-.068l-2.841 1.886v-1.432l2.909-1.931h1.409Zm3.66 11.727a.983.983 0 0 1-.722-.301.985.985 0 0 1-.301-.722c0-.28.1-.521.301-.721a.984.984 0 0 1 .722-.302c.28 0 .52.101.721.302.201.2.301.441.301.721a.964.964 0 0 1-.142.512c-.091.155-.214.28-.369.375a.984.984 0 0 1-.511.136Zm7.001-11.886a4.15 4.15 0 0 1 1.432.272c.477.178.913.474 1.307.887.394.409.71.967.948 1.676.239.708.358 1.596.358 2.665 0 1.034-.098 1.952-.295 2.755-.193.799-.474 1.474-.841 2.023-.364.549-.807.966-1.329 1.25-.519.284-1.107.426-1.762.426-.651 0-1.233-.129-1.744-.386a3.429 3.429 0 0 1-1.25-1.085 3.768 3.768 0 0 1-.619-1.62h1.386c.125.534.373.976.744 1.324.375.345.87.517 1.483.517.898 0 1.606-.392 2.125-1.176.523-.784.784-1.892.784-3.324h-.091a3.58 3.58 0 0 1-.755.824 3.337 3.337 0 0 1-2.108.722 3.536 3.536 0 0 1-1.836-.495 3.748 3.748 0 0 1-1.329-1.369c-.33-.583-.494-1.25-.494-2 0-.712.159-1.364.477-1.955a3.696 3.696 0 0 1 1.352-1.42c.583-.352 1.269-.523 2.057-.511Zm0 1.25c-.477 0-.907.119-1.29.357-.379.235-.68.554-.903.955a2.69 2.69 0 0 0-.33 1.324c0 .485.106.926.318 1.324.216.394.51.708.881.943.375.231.801.347 1.279.347.359 0 .695-.071 1.005-.211.311-.144.582-.339.813-.585.235-.25.418-.532.551-.847.132-.318.199-.649.199-.994 0-.454-.11-.881-.33-1.278a2.61 2.61 0 0 0-.898-.966 2.322 2.322 0 0 0-1.295-.369Zm12.212 8.363v-.613c0-.425.087-.813.261-1.165.178-.356.436-.64.773-.852.341-.216.753-.324 1.238-.324.493 0 .906.108 1.239.324.333.212.585.496.756.852.17.352.255.74.255 1.165v.613c0 .424-.087.815-.261 1.171-.17.352-.424.636-.761.852-.334.212-.743.318-1.228.318-.492 0-.907-.106-1.244-.318a2.105 2.105 0 0 1-.767-.852 2.633 2.633 0 0 1-.261-1.171Zm1.159-.613v.613c0 .352.083.669.25.949.166.277.454.415.863.415.398 0 .678-.138.841-.415.167-.28.25-.597.25-.949v-.613a1.86 1.86 0 0 0-.238-.944c-.159-.28-.444-.42-.853-.42-.397 0-.683.14-.858.42-.17.277-.255.591-.255.944Zm-6.955-6.046v-.614c0-.424.087-.812.262-1.164.178-.356.435-.64.772-.853.341-.216.754-.323 1.239-.323.492 0 .905.107 1.239.323.333.213.585.497.755.853.171.352.256.74.256 1.164v.614c0 .424-.087.814-.261 1.171a2.071 2.071 0 0 1-.762.852c-.333.212-.742.318-1.227.318-.493 0-.907-.106-1.244-.318a2.098 2.098 0 0 1-.767-.852 2.623 2.623 0 0 1-.262-1.171Zm1.159-.614v.614c0 .352.084.669.25.949.167.276.455.415.864.415.398 0 .678-.139.841-.415.166-.28.25-.597.25-.949v-.614c0-.352-.08-.666-.239-.943-.159-.28-.443-.42-.852-.42-.398 0-.684.14-.858.42a1.757 1.757 0 0 0-.256.943Zm-.727 9.455 8-11.636h1.295l-8 11.636h-1.295ZM444.295 159.364V171h-1.409v-10.159h-.068l-2.841 1.886v-1.432l2.909-1.931h1.409Zm7.438 0V171h-1.409v-10.159h-.068l-2.841 1.886v-1.432l2.909-1.931h1.409Zm3.659 11.727c-.28 0-.521-.1-.722-.301a.989.989 0 0 1-.301-.722c0-.28.101-.521.301-.721a.986.986 0 0 1 .722-.302c.28 0 .521.101.722.302.2.2.301.441.301.721a.973.973 0 0 1-.142.512c-.091.155-.214.28-.37.375a.981.981 0 0 1-.511.136Zm6.107-11.727V171h-1.41v-10.159h-.068l-2.841 1.886v-1.432l2.909-1.931h1.41Zm9.278 9.454v-.613c0-.425.087-.813.261-1.165.178-.356.436-.64.773-.852.341-.216.754-.324 1.239-.324.492 0 .905.108 1.238.324.334.212.586.496.756.852.17.352.256.74.256 1.165v.613c0 .424-.087.815-.262 1.171-.17.352-.424.636-.761.852-.333.212-.742.318-1.227.318-.493 0-.907-.106-1.245-.318a2.112 2.112 0 0 1-.767-.852 2.633 2.633 0 0 1-.261-1.171Zm1.159-.613v.613c0 .352.083.669.25.949.167.277.455.415.864.415.397 0 .678-.138.841-.415.166-.28.25-.597.25-.949v-.613c0-.353-.08-.667-.239-.944-.159-.28-.443-.42-.852-.42-.398 0-.684.14-.858.42a1.758 1.758 0 0 0-.256.944Zm-6.954-6.046v-.614c0-.424.087-.812.261-1.164.178-.356.436-.64.773-.853.341-.216.753-.323 1.238-.323.493 0 .906.107 1.239.323.333.213.585.497.756.853.17.352.255.74.255 1.164v.614c0 .424-.087.814-.261 1.171a2.07 2.07 0 0 1-.761.852c-.334.212-.743.318-1.228.318-.492 0-.907-.106-1.244-.318a2.105 2.105 0 0 1-.767-.852 2.636 2.636 0 0 1-.261-1.171Zm1.159-.614v.614c0 .352.083.669.25.949.166.276.454.415.863.415.398 0 .678-.139.841-.415.167-.28.25-.597.25-.949v-.614c0-.352-.079-.666-.238-.943-.16-.28-.444-.42-.853-.42-.397 0-.683.14-.858.42-.17.277-.255.591-.255.943Zm-.728 9.455 8-11.636h1.296l-8 11.636h-1.296ZM444.295 111.364V123h-1.409v-10.159h-.068l-2.841 1.886v-1.432l2.909-1.931h1.409Zm7.438 0V123h-1.409v-10.159h-.068l-2.841 1.886v-1.432l2.909-1.931h1.409Zm3.659 11.727c-.28 0-.521-.1-.722-.301a.989.989 0 0 1-.301-.722c0-.28.101-.521.301-.721a.986.986 0 0 1 .722-.302c.28 0 .521.101.722.302.2.2.301.441.301.721a.973.973 0 0 1-.142.512c-.091.155-.214.28-.37.375a.981.981 0 0 1-.511.136Zm6.107-11.727V123h-1.41v-10.159h-.068l-2.841 1.886v-1.432l2.909-1.931h1.41Zm9.278 9.454v-.613c0-.425.087-.813.261-1.165.178-.356.436-.64.773-.852.341-.216.754-.324 1.239-.324.492 0 .905.108 1.238.324.334.212.586.496.756.852.17.352.256.74.256 1.165v.613c0 .424-.087.815-.262 1.171-.17.352-.424.636-.761.852-.333.212-.742.318-1.227.318-.493 0-.907-.106-1.245-.318a2.112 2.112 0 0 1-.767-.852 2.633 2.633 0 0 1-.261-1.171Zm1.159-.613v.613c0 .352.083.669.25.949.167.277.455.415.864.415.397 0 .678-.138.841-.415.166-.28.25-.597.25-.949v-.613c0-.353-.08-.667-.239-.944-.159-.28-.443-.42-.852-.42-.398 0-.684.14-.858.42a1.758 1.758 0 0 0-.256.944Zm-6.954-6.046v-.614c0-.424.087-.812.261-1.164.178-.356.436-.64.773-.853.341-.216.753-.323 1.238-.323.493 0 .906.107 1.239.323.333.213.585.497.756.853.17.352.255.74.255 1.164v.614c0 .424-.087.814-.261 1.171a2.07 2.07 0 0 1-.761.852c-.334.212-.743.318-1.228.318-.492 0-.907-.106-1.244-.318a2.105 2.105 0 0 1-.767-.852 2.636 2.636 0 0 1-.261-1.171Zm1.159-.614v.614c0 .352.083.669.25.949.166.276.454.415.863.415.398 0 .678-.139.841-.415.167-.28.25-.597.25-.949v-.614c0-.352-.079-.666-.238-.943-.16-.28-.444-.42-.853-.42-.397 0-.683.14-.858.42-.17.277-.255.591-.255.943Zm-.728 9.455 8-11.636h1.296l-8 11.636h-1.296ZM751.068 75.16a4.363 4.363 0 0 1-1.432-.274 3.422 3.422 0 0 1-1.306-.88c-.394-.417-.711-.98-.949-1.688-.239-.712-.358-1.606-.358-2.682 0-1.03.096-1.943.289-2.738.194-.8.474-1.472.841-2.017.368-.55.811-.966 1.33-1.25.523-.284 1.112-.426 1.767-.426.652 0 1.231.13 1.739.392a3.32 3.32 0 0 1 1.25 1.08c.322.461.53.993.625 1.596h-1.387a2.573 2.573 0 0 0-.75-1.301c-.371-.345-.863-.517-1.477-.517-.902 0-1.612.392-2.131 1.176-.515.784-.774 1.884-.778 3.3h.091a3.41 3.41 0 0 1 2.863-1.545c.667 0 1.277.167 1.83.5.553.33.996.786 1.33 1.37.333.58.5 1.244.5 1.994 0 .72-.161 1.379-.483 1.977a3.68 3.68 0 0 1-1.358 1.42c-.58.35-1.262.52-2.046.512Zm0-1.25c.477 0 .905-.12 1.284-.359a2.56 2.56 0 0 0 .904-.96c.223-.402.335-.849.335-1.341 0-.481-.108-.919-.324-1.313a2.47 2.47 0 0 0-.881-.948 2.328 2.328 0 0 0-1.272-.353c-.36 0-.695.072-1.006.216-.311.14-.583.334-.818.58a2.81 2.81 0 0 0-.546.846 2.543 2.543 0 0 0-.199.995c0 .462.108.894.324 1.295.22.402.519.726.898.972.383.246.816.37 1.301.37Zm10.053 1.25c-.75 0-1.419-.13-2.006-.387-.583-.258-1.047-.616-1.392-1.074a2.884 2.884 0 0 1-.557-1.608h1.432c.03.375.159.699.386.972.228.268.525.477.892.624.368.148.775.222 1.222.222.5 0 .943-.087 1.33-.261.386-.174.689-.417.909-.727.219-.311.329-.671.329-1.08 0-.428-.106-.805-.318-1.13-.212-.33-.523-.588-.932-.773-.409-.186-.909-.279-1.5-.279h-.932v-1.25h.932c.462 0 .868-.083 1.216-.25a1.887 1.887 0 0 0 1.125-1.773 1.97 1.97 0 0 0-.261-1.028 1.794 1.794 0 0 0-.739-.682c-.314-.163-.686-.244-1.114-.244-.401 0-.78.074-1.136.221-.352.144-.64.355-.864.631a1.645 1.645 0 0 0-.363.989h-1.364c.023-.61.207-1.144.551-1.602a3.472 3.472 0 0 1 1.353-1.08 4.366 4.366 0 0 1 1.846-.386c.72 0 1.337.145 1.852.437.516.288.911.669 1.188 1.142.276.474.415.985.415 1.534 0 .656-.173 1.214-.517 1.676-.341.462-.805.782-1.392.96v.092c.734.12 1.308.433 1.721.937.413.5.62 1.12.62 1.858 0 .633-.173 1.2-.517 1.705-.341.5-.807.893-1.398 1.181-.591.288-1.263.432-2.017.432Zm6.896-.07c-.28 0-.521-.1-.722-.3a.987.987 0 0 1-.301-.722c0-.28.101-.52.301-.721a.986.986 0 0 1 .722-.301c.28 0 .521.1.722.3.2.201.301.442.301.722a1.058 1.058 0 0 1-.512.886.972.972 0 0 1-.511.137Zm6.795.07c-.856 0-1.585-.234-2.187-.7-.602-.47-1.062-1.15-1.381-2.04-.318-.894-.477-1.973-.477-3.238 0-1.258.159-2.332.477-3.222.322-.894.784-1.575 1.387-2.045.606-.474 1.333-.71 2.181-.71.849 0 1.574.236 2.177.71.606.47 1.068 1.151 1.386 2.045.322.89.483 1.964.483 3.222 0 1.265-.159 2.344-.477 3.239-.319.89-.779 1.57-1.381 2.04-.602.465-1.331.698-2.188.698Zm0-1.25c.849 0 1.508-.41 1.978-1.228.469-.818.704-1.985.704-3.5 0-1.008-.108-1.866-.324-2.574-.212-.708-.518-1.248-.92-1.62a2.033 2.033 0 0 0-1.438-.556c-.84 0-1.498.415-1.971 1.244-.474.826-.71 1.995-.71 3.506 0 1.007.106 1.864.318 2.568.212.704.517 1.24.915 1.608.401.367.884.551 1.448.551Zm12.137-1.092v-.614c0-.424.087-.812.261-1.164.178-.356.436-.64.773-.853.341-.215.754-.323 1.239-.323.492 0 .905.108 1.238.323.334.213.585.497.756.853.17.352.256.74.256 1.164v.614c0 .424-.088.815-.262 1.17a2.06 2.06 0 0 1-.761.853c-.333.212-.743.318-1.227.318-.493 0-.908-.106-1.245-.318a2.103 2.103 0 0 1-.767-.852 2.63 2.63 0 0 1-.261-1.17Zm1.159-.614v.614c0 .353.083.669.25.949.167.277.455.415.864.415.397 0 .678-.138.84-.415.167-.28.25-.596.25-.949v-.614c0-.352-.079-.666-.238-.943-.159-.28-.443-.42-.852-.42-.398 0-.684.14-.858.42-.171.277-.256.591-.256.944Zm-6.955-6.045v-.614c0-.424.088-.812.262-1.164a2.09 2.09 0 0 1 .773-.853c.34-.215.753-.323 1.238-.323.493 0 .905.108 1.239.323.333.212.585.497.755.853.171.352.256.74.256 1.165v.613c0 .424-.087.814-.261 1.17a2.063 2.063 0 0 1-.762.853c-.333.212-.742.318-1.227.318-.492 0-.907-.106-1.244-.318a2.103 2.103 0 0 1-.767-.853 2.63 2.63 0 0 1-.262-1.17Zm1.159-.614v.614c0 .352.084.669.25.949.167.276.455.415.864.415.398 0 .678-.138.841-.415.167-.28.25-.597.25-.949v-.614c0-.352-.079-.666-.239-.943-.159-.28-.443-.42-.852-.42-.398 0-.684.14-.858.42-.17.277-.256.591-.256.944ZM781.585 75l8-11.636h1.296l-8 11.636h-1.296ZM354 50h372v38H354zM354 98h65v38h-65zM354 146h65v38h-65zM354 194h10v38h-10zM354 242h10v38h-10z" fill="#7542E5"/><path d="M354 50v230M354 50v230" stroke="#CCD6EB"/></svg>
