<svg width="816" height="350" fill="none" xmlns="http://www.w3.org/2000/svg"><path fill="#fff" d="M0 0h816v350H0z"/><path d="M337.721 23.364V35h-2.125l-5.063-7.324h-.085V35h-2.46V23.364h2.159l5.023 7.318h.102v-7.318h2.449Zm5.93 11.806c-2.647 0-4.295-1.812-4.295-4.5 0-2.704 1.648-4.51 4.295-4.51 2.648 0 4.296 1.806 4.296 4.51 0 2.688-1.648 4.5-4.296 4.5Zm.012-1.875c1.199 0 1.824-1.119 1.824-2.642 0-1.522-.625-2.647-1.824-2.647-1.222 0-1.847 1.125-1.847 2.647 0 1.523.625 2.642 1.847 2.642Zm8.278-3.34V35h-2.42v-8.727h2.306v1.54h.103c.392-1.017 1.329-1.654 2.625-1.654 1.818 0 3.011 1.25 3.011 3.284V35h-2.42v-5.125c.005-1.068-.58-1.704-1.552-1.704-.977 0-1.647.659-1.653 1.784Zm12.97-.694v1.92h-5.307v-1.92h5.307Zm1.196-3.869v-2.028h9.557v2.028h-3.562V35h-2.432v-9.608h-3.563Zm13.797 9.778c-2.687 0-4.329-1.727-4.329-4.494 0-2.693 1.664-4.517 4.233-4.517 2.306 0 4.102 1.466 4.102 4.432v.665h-5.943v.005c0 1.302.767 2.103 1.977 2.103.807 0 1.432-.347 1.676-1.012l2.239.148c-.341 1.62-1.796 2.67-3.955 2.67Zm-1.937-5.414h3.664c-.005-1.04-.733-1.79-1.784-1.79-1.074 0-1.829.795-1.88 1.79Zm11.466 5.414c-2.688 0-4.296-1.846-4.296-4.5 0-2.676 1.636-4.51 4.284-4.51 2.279 0 3.807 1.323 3.909 3.34h-2.284c-.131-.87-.699-1.454-1.585-1.454-1.125 0-1.864.943-1.864 2.59 0 1.67.733 2.62 1.864 2.62.829 0 1.443-.523 1.585-1.455h2.284c-.113 2.006-1.574 3.37-3.897 3.37Zm7.867-5.216V35h-2.42V23.364h2.352v4.448h.103c.397-1.028 1.284-1.653 2.607-1.653 1.819 0 3.023 1.239 3.018 3.284V35h-2.421v-5.125c.006-1.074-.574-1.704-1.557-1.704-.988 0-1.676.659-1.682 1.784Zm9.985 0V35h-2.421v-8.727h2.307v1.54h.102c.392-1.017 1.33-1.654 2.625-1.654 1.819 0 3.012 1.25 3.012 3.284V35h-2.421v-5.125c.006-1.068-.579-1.704-1.551-1.704-.977 0-1.648.659-1.653 1.784ZM414.817 35v-8.727h2.421V35h-2.421Zm1.216-9.852c-.716 0-1.306-.551-1.306-1.227 0-.671.59-1.222 1.306-1.222.722 0 1.313.551 1.313 1.221 0 .677-.591 1.228-1.313 1.228Zm7.087 10.022c-2.687 0-4.295-1.846-4.295-4.5 0-2.676 1.636-4.51 4.284-4.51 2.278 0 3.806 1.323 3.909 3.34h-2.284c-.131-.87-.699-1.454-1.586-1.454-1.125 0-1.863.943-1.863 2.59 0 1.67.733 2.62 1.863 2.62.83 0 1.444-.523 1.586-1.455h2.284c-.114 2.006-1.574 3.37-3.898 3.37Zm7.936-.005c-1.665 0-2.898-.875-2.898-2.602 0-1.95 1.552-2.529 3.279-2.688 1.517-.148 2.113-.222 2.113-.784v-.034c0-.716-.471-1.13-1.295-1.13-.869 0-1.386.425-1.551 1.005l-2.239-.182c.335-1.59 1.71-2.59 3.801-2.59 1.944 0 3.705.874 3.705 2.954V35h-2.296v-1.21h-.068c-.426.812-1.261 1.375-2.551 1.375Zm.693-1.67c1.063 0 1.818-.7 1.818-1.614v-.927c-.289.194-1.153.319-1.681.393-.853.119-1.415.454-1.415 1.136 0 .665.534 1.011 1.278 1.011Zm8.52-10.131V35h-2.42V23.364h2.42ZM445.957 35V23.364h4.591c2.642 0 4.17 1.488 4.17 3.8 0 1.592-.733 2.745-2.057 3.313L455.133 35h-2.716l-2.205-4.125h-1.795V35h-2.46Zm2.46-6.102h1.67c1.409 0 2.097-.58 2.097-1.733 0-1.16-.688-1.79-2.108-1.79h-1.659v3.523Zm11.797 6.272c-2.648 0-4.296-1.812-4.296-4.5 0-2.704 1.648-4.51 4.296-4.51 2.648 0 4.295 1.806 4.295 4.51 0 2.688-1.647 4.5-4.295 4.5Zm.011-1.875c1.199 0 1.824-1.119 1.824-2.642 0-1.522-.625-2.647-1.824-2.647-1.221 0-1.846 1.125-1.846 2.647 0 1.523.625 2.642 1.846 2.642Zm8.279-9.931V35h-2.421V23.364h2.421Zm5.916 11.806c-2.688 0-4.33-1.727-4.33-4.494 0-2.693 1.665-4.517 4.233-4.517 2.307 0 4.102 1.466 4.102 4.432v.665h-5.943v.005c0 1.302.767 2.103 1.978 2.103.806 0 1.431-.347 1.676-1.012l2.238.148c-.341 1.62-1.795 2.67-3.954 2.67Zm-1.938-5.414h3.665c-.006-1.04-.733-1.79-1.784-1.79-1.074 0-1.83.795-1.881 1.79Zm14.784-.995-2.216.137c-.119-.563-.619-1.023-1.46-1.023-.75 0-1.341.34-1.335.864-.006.42.295.698 1.108.875l1.579.318c1.694.346 2.518 1.102 2.523 2.363-.005 1.722-1.625 2.875-3.886 2.875-2.313 0-3.733-1.028-3.96-2.698l2.38-.125c.148.71.722 1.08 1.586 1.08.846 0 1.409-.37 1.42-.887-.011-.438-.358-.716-1.119-.87l-1.512-.3c-1.704-.342-2.528-1.188-2.522-2.495-.006-1.682 1.465-2.716 3.698-2.716 2.205 0 3.5.994 3.716 2.602ZM294.054 77l-3.182-11.636h1.432l2.432 9.477h.113l2.478-9.477h1.591l2.477 9.477h.114l2.431-9.477h1.432L302.19 77h-1.454l-2.568-9.273h-.091L295.509 77h-1.455Zm14.233-5.25V77h-1.341V65.364h1.341v4.272h.114c.204-.45.511-.808.92-1.073.413-.27.962-.404 1.648-.404.594 0 1.115.12 1.562.358.447.235.794.597 1.04 1.085.25.485.375 1.102.375 1.852V77h-1.341v-5.454c0-.694-.18-1.23-.54-1.609-.356-.382-.85-.573-1.483-.573-.439 0-.833.092-1.181.278a2.037 2.037 0 0 0-.819.813c-.197.356-.295.787-.295 1.295Zm8.112 5.25v-8.727h1.341V77h-1.341Zm.682-10.182a.953.953 0 0 1-.676-.267.857.857 0 0 1-.279-.642c0-.25.093-.464.279-.642a.953.953 0 0 1 .676-.267c.261 0 .485.089.67.267.19.178.285.392.285.642s-.095.464-.285.642a.932.932 0 0 1-.67.267Zm6.91 1.455v1.136h-4.522v-1.136h4.522Zm-3.204-2.091h1.341V74.5c0 .379.055.663.165.852a.85.85 0 0 0 .431.375c.178.06.366.091.563.091.148 0 .269-.007.364-.022l.227-.046.273 1.204a2.733 2.733 0 0 1-.381.103 2.8 2.8 0 0 1-.619.057 2.7 2.7 0 0 1-1.114-.245 2.215 2.215 0 0 1-.898-.744c-.235-.333-.352-.754-.352-1.261v-8.682Zm8.787 11c-.841 0-1.566-.186-2.176-.557a3.742 3.742 0 0 1-1.404-1.568c-.325-.674-.488-1.459-.488-2.353 0-.893.163-1.681.488-2.363.33-.686.788-1.22 1.375-1.602.591-.387 1.281-.58 2.069-.58.454 0 .903.076 1.346.227.443.152.847.398 1.21.739.364.337.654.784.87 1.34.216.558.324 1.243.324 2.058v.568h-6.728v-1.16h5.364c0-.492-.099-.931-.296-1.317a2.223 2.223 0 0 0-.829-.915c-.356-.224-.777-.335-1.261-.335-.535 0-.997.132-1.387.397a2.615 2.615 0 0 0-.892 1.023c-.208.42-.312.871-.312 1.352v.773c0 .66.113 1.218.341 1.676.231.455.551.801.96 1.04.409.235.884.352 1.426.352.352 0 .67-.049.954-.148.288-.102.536-.253.745-.454.208-.204.369-.458.483-.761l1.295.363c-.136.44-.365.826-.687 1.16a3.35 3.35 0 0 1-1.194.772 4.42 4.42 0 0 1-1.596.273ZM294.543 125h-1.478l4.273-11.636h1.455L303.065 125h-1.477l-3.477-9.795h-.091L294.543 125Zm.545-4.545h5.955v1.25h-5.955v-1.25Zm15.79-2.228-1.205.341a2.197 2.197 0 0 0-.335-.585 1.63 1.63 0 0 0-.591-.477c-.25-.125-.57-.188-.96-.188-.534 0-.979.123-1.335.37-.353.242-.529.551-.529.926 0 .333.122.596.364.789.242.194.621.355 1.136.483l1.296.319c.78.189 1.361.479 1.744.869.383.386.574.884.574 1.494 0 .5-.144.947-.432 1.341-.284.394-.682.705-1.193.932-.511.227-1.106.341-1.784.341-.89 0-1.627-.193-2.21-.58-.584-.386-.953-.95-1.108-1.693l1.272-.318c.122.47.351.822.688 1.057.341.235.786.352 1.335.352.625 0 1.121-.133 1.489-.398.371-.269.557-.591.557-.966 0-.303-.106-.556-.319-.761-.212-.208-.537-.364-.977-.466l-1.454-.341c-.8-.189-1.387-.483-1.762-.88-.371-.402-.557-.904-.557-1.506 0-.493.139-.928.415-1.307a2.82 2.82 0 0 1 1.142-.892c.485-.216 1.034-.324 1.648-.324.864 0 1.542.189 2.034.568.496.379.849.879 1.057 1.5Zm2.177 6.773v-8.727h1.341V125h-1.341Zm.682-10.182a.953.953 0 0 1-.676-.267.856.856 0 0 1-.278-.642c0-.25.092-.464.278-.642a.953.953 0 0 1 .676-.267c.262 0 .485.089.671.267a.851.851 0 0 1 .284.642c0 .25-.095.464-.284.642a.935.935 0 0 1-.671.267Zm5.683 10.387a3.55 3.55 0 0 1-1.505-.313 2.58 2.58 0 0 1-1.074-.915c-.265-.401-.398-.886-.398-1.454 0-.5.099-.906.296-1.216.197-.315.46-.561.789-.739a4.2 4.2 0 0 1 1.091-.398c.402-.09.805-.162 1.211-.215.53-.069.96-.12 1.289-.154.334-.038.576-.1.728-.187.155-.087.233-.239.233-.455v-.045c0-.561-.154-.997-.461-1.307-.303-.311-.763-.466-1.38-.466-.641 0-1.142.14-1.506.42-.364.281-.619.58-.767.898l-1.273-.454c.227-.531.53-.944.909-1.239.383-.299.8-.508 1.25-.625a5.205 5.205 0 0 1 1.341-.182c.28 0 .602.034.966.102.368.065.722.199 1.063.404.344.204.63.513.858.926.227.413.34.966.34 1.659V125h-1.34v-1.182h-.069c-.091.19-.242.392-.454.608-.212.216-.494.4-.847.551-.352.152-.782.228-1.29.228Zm.205-1.205c.53 0 .977-.104 1.341-.312a2.133 2.133 0 0 0 1.114-1.847v-1.227c-.057.068-.182.13-.375.187-.19.053-.41.101-.66.142a27.7 27.7 0 0 1-.721.102c-.231.027-.419.05-.563.069a5.114 5.114 0 0 0-.977.221 1.684 1.684 0 0 0-.727.449c-.182.197-.273.466-.273.807 0 .466.172.818.517 1.057.349.235.79.352 1.324.352Zm7.584-4.25V125h-1.341v-8.727h1.295v1.363h.114c.205-.443.515-.799.932-1.068.416-.273.954-.409 1.613-.409.591 0 1.108.121 1.552.364.443.238.787.602 1.034 1.091.246.484.369 1.098.369 1.841V125h-1.341v-5.455c0-.685-.178-1.219-.534-1.602-.356-.386-.845-.579-1.466-.579-.428 0-.811.092-1.148.278a1.99 1.99 0 0 0-.789.813c-.194.356-.29.787-.29 1.295ZM140.815 173v-11.636h4.069c.81 0 1.479.14 2.005.42.527.277.919.65 1.176 1.119.258.466.387.983.387 1.552 0 .5-.089.912-.267 1.238a2.08 2.08 0 0 1-.694.773 3.156 3.156 0 0 1-.926.42V167c.356.023.714.148 1.074.375.36.227.661.553.904.977.242.425.363.943.363 1.557 0 .583-.132 1.108-.397 1.574-.266.466-.684.835-1.256 1.108-.572.273-1.316.409-2.233.409h-4.205Zm1.409-1.25h2.796c.92 0 1.574-.178 1.96-.534.39-.36.585-.796.585-1.307 0-.394-.1-.757-.301-1.091a2.185 2.185 0 0 0-.858-.807c-.371-.204-.81-.306-1.318-.306h-2.864v4.045Zm0-5.273h2.614c.424 0 .807-.083 1.148-.25.344-.166.617-.401.818-.704a1.86 1.86 0 0 0 .307-1.068c0-.512-.178-.946-.534-1.302-.356-.359-.921-.539-1.693-.539h-2.66v3.863Zm10.157-5.113V173h-1.341v-11.636h1.341Zm5.024 11.841a3.554 3.554 0 0 1-1.506-.313 2.58 2.58 0 0 1-1.074-.915c-.265-.401-.397-.886-.397-1.454 0-.5.098-.906.295-1.216.197-.315.46-.561.79-.739.329-.178.693-.31 1.091-.398.401-.09.805-.162 1.21-.215.53-.069.96-.12 1.29-.154.333-.038.575-.1.727-.187.155-.087.233-.239.233-.455v-.045c0-.561-.153-.997-.46-1.307-.303-.311-.764-.466-1.381-.466-.64 0-1.142.14-1.506.42-.363.281-.619.58-.767.898l-1.272-.454c.227-.531.53-.944.909-1.239a3.398 3.398 0 0 1 1.25-.625 5.193 5.193 0 0 1 1.341-.182c.28 0 .602.034.965.102.368.065.722.199 1.063.404.345.204.631.513.858.926.227.413.341.966.341 1.659V173h-1.341v-1.182h-.068a2.36 2.36 0 0 1-.455.608c-.212.216-.494.4-.846.551-.353.152-.783.228-1.29.228Zm.204-1.205c.531 0 .978-.104 1.341-.312.368-.209.644-.478.83-.807.189-.33.284-.676.284-1.04v-1.227c-.057.068-.182.13-.375.187a6.143 6.143 0 0 1-.659.142c-.246.038-.487.072-.722.102-.231.027-.418.05-.562.069a5.107 5.107 0 0 0-.978.221 1.69 1.69 0 0 0-.727.449c-.182.197-.273.466-.273.807 0 .466.173.818.518 1.057.348.235.789.352 1.323.352Zm9.789 1.182c-.818 0-1.523-.193-2.114-.58a3.78 3.78 0 0 1-1.364-1.596c-.318-.678-.477-1.453-.477-2.324 0-.887.163-1.669.489-2.347.329-.682.788-1.214 1.375-1.596.591-.387 1.28-.58 2.068-.58.614 0 1.167.114 1.659.341.493.227.896.545 1.21.955.315.409.51.886.586 1.431h-1.341c-.103-.397-.33-.75-.682-1.056-.349-.311-.818-.466-1.409-.466-.523 0-.981.136-1.375.409-.39.269-.695.649-.915 1.142-.216.488-.324 1.062-.324 1.721 0 .675.106 1.262.318 1.762.216.5.519.888.909 1.164.394.277.856.415 1.387.415.348 0 .664-.06.949-.182.284-.121.524-.295.721-.522.197-.228.337-.5.421-.818h1.341a3.114 3.114 0 0 1-.563 1.392 3.142 3.142 0 0 1-1.176.977c-.485.238-1.049.358-1.693.358Zm6.642-3.364-.023-1.659h.273l3.818-3.886h1.659l-4.068 4.113h-.114l-1.545 1.432ZM172.79 173v-11.636h1.341V173h-1.341Zm5.545 0-3.409-4.318.955-.932 4.159 5.25h-1.705Zm11.203.182c-.788 0-1.479-.188-2.074-.563-.59-.375-1.053-.899-1.386-1.574-.329-.674-.494-1.462-.494-2.363 0-.909.165-1.703.494-2.381.333-.678.796-1.204 1.386-1.579.595-.375 1.286-.563 2.074-.563.788 0 1.478.188 2.069.563.594.375 1.056.901 1.386 1.579.333.678.5 1.472.5 2.381 0 .901-.167 1.689-.5 2.363a3.772 3.772 0 0 1-1.386 1.574c-.591.375-1.281.563-2.069.563Zm0-1.205c.599 0 1.091-.153 1.478-.46a2.72 2.72 0 0 0 .858-1.21c.185-.5.278-1.042.278-1.625 0-.584-.093-1.127-.278-1.631a2.748 2.748 0 0 0-.858-1.221c-.387-.311-.879-.466-1.478-.466-.598 0-1.091.155-1.477.466-.386.31-.672.717-.858 1.221a4.695 4.695 0 0 0-.278 1.631c0 .583.093 1.125.278 1.625.186.5.472.903.858 1.21.386.307.879.46 1.477.46ZM195.54 173v-8.727h1.295v1.318h.091c.159-.432.447-.782.864-1.051a2.54 2.54 0 0 1 1.409-.404c.098 0 .221.002.369.006s.26.01.335.017v1.364a3.351 3.351 0 0 0-.312-.051 3.026 3.026 0 0 0-.506-.04c-.424 0-.803.089-1.136.267a1.954 1.954 0 0 0-1.068 1.778V173h-1.341Zm11.112 0h-1.477l4.272-11.636h1.455L215.175 173h-1.478l-3.477-9.795h-.091L206.652 173Zm.545-4.545h5.955v1.25h-5.955v-1.25Zm13.495-4.182v1.136h-4.705v-1.136h4.705ZM217.396 173v-9.932c0-.5.118-.916.353-1.25a2.18 2.18 0 0 1 .914-.75c.375-.166.771-.25 1.188-.25.329 0 .598.027.807.08.208.053.363.102.466.147l-.387 1.16a5.962 5.962 0 0 0-.284-.086 1.726 1.726 0 0 0-.466-.051c-.443 0-.763.112-.96.335-.193.224-.29.552-.29.983V173h-1.341Zm5.175 0v-8.727h1.295v1.318h.091c.159-.432.447-.782.864-1.051a2.542 2.542 0 0 1 1.409-.404c.099 0 .222.002.369.006.148.004.26.01.336.017v1.364a3.462 3.462 0 0 0-.313-.051 3.017 3.017 0 0 0-.506-.04c-.424 0-.803.089-1.136.267a2.019 2.019 0 0 0-.784.727 1.963 1.963 0 0 0-.284 1.051V173h-1.341Zm5.953 0v-8.727h1.341V173h-1.341Zm.682-10.182a.953.953 0 0 1-.676-.267.857.857 0 0 1-.279-.642c0-.25.093-.464.279-.642a.953.953 0 0 1 .676-.267c.261 0 .485.089.67.267.19.178.285.392.285.642s-.095.464-.285.642a.932.932 0 0 1-.67.267Zm6.66 10.364c-.818 0-1.522-.193-2.113-.58a3.772 3.772 0 0 1-1.364-1.596c-.318-.678-.477-1.453-.477-2.324 0-.887.163-1.669.489-2.347.329-.682.787-1.214 1.375-1.596.59-.387 1.28-.58 2.068-.58.613 0 1.166.114 1.659.341.492.227.896.545 1.21.955.314.409.51.886.585 1.431h-1.341c-.102-.397-.329-.75-.681-1.056-.349-.311-.819-.466-1.41-.466-.522 0-.981.136-1.375.409-.39.269-.695.649-.914 1.142-.216.488-.324 1.062-.324 1.721 0 .675.106 1.262.318 1.762.216.5.519.888.909 1.164.394.277.856.415 1.386.415.349 0 .665-.06.949-.182.284-.121.525-.295.722-.522.197-.228.337-.5.42-.818h1.341a3.1 3.1 0 0 1-.562 1.392 3.158 3.158 0 0 1-1.176.977c-.485.238-1.05.358-1.694.358Zm7.961.023a3.554 3.554 0 0 1-1.506-.313 2.58 2.58 0 0 1-1.074-.915c-.265-.401-.398-.886-.398-1.454 0-.5.099-.906.296-1.216.197-.315.46-.561.79-.739.329-.178.693-.31 1.091-.398.401-.09.804-.162 1.21-.215.53-.069.96-.12 1.29-.154.333-.038.575-.1.727-.187.155-.087.233-.239.233-.455v-.045c0-.561-.154-.997-.46-1.307-.303-.311-.764-.466-1.381-.466-.64 0-1.142.14-1.506.42-.363.281-.619.58-.767.898l-1.273-.454c.228-.531.531-.944.91-1.239a3.398 3.398 0 0 1 1.25-.625 5.192 5.192 0 0 1 1.34-.182c.281 0 .603.034.966.102.368.065.722.199 1.063.404.345.204.631.513.858.926.227.413.341.966.341 1.659V173h-1.341v-1.182h-.068a2.36 2.36 0 0 1-.455.608c-.212.216-.494.4-.847.551-.352.152-.782.228-1.289.228Zm.204-1.205c.531 0 .978-.104 1.341-.312.368-.209.644-.478.83-.807.189-.33.284-.676.284-1.04v-1.227c-.057.068-.182.13-.375.187-.19.053-.409.101-.659.142-.247.038-.487.072-.722.102-.231.027-.418.05-.562.069a5.107 5.107 0 0 0-.978.221 1.69 1.69 0 0 0-.727.449c-.182.197-.273.466-.273.807 0 .466.173.818.517 1.057.349.235.79.352 1.324.352Zm7.584-4.25V173h-1.341v-8.727h1.296v1.363h.113c.205-.443.515-.799.932-1.068.417-.273.955-.409 1.614-.409.591 0 1.108.121 1.551.364.443.238.788.602 1.034 1.091.246.484.369 1.098.369 1.841V173h-1.341v-5.455c0-.685-.178-1.219-.534-1.602-.356-.386-.844-.579-1.466-.579-.428 0-.81.092-1.147.278a1.985 1.985 0 0 0-.79.813c-.193.356-.29.787-.29 1.295Zm13.178 5.25h-1.478l4.273-11.636h1.455L273.315 173h-1.477l-3.477-9.795h-.091L264.793 173Zm.545-4.545h5.955v1.25h-5.955v-1.25Zm9.608 4.545v-8.727h1.295v1.363h.114c.182-.466.475-.827.881-1.085.405-.261.892-.392 1.46-.392.576 0 1.055.131 1.438.392.386.258.687.619.903 1.085h.091a2.55 2.55 0 0 1 1.006-1.074c.446-.268.982-.403 1.607-.403.781 0 1.419.244 1.915.733.496.485.745 1.241.745 2.267V173h-1.341v-5.841c0-.644-.176-1.104-.529-1.381a1.957 1.957 0 0 0-1.244-.414c-.614 0-1.089.185-1.426.556-.337.368-.506.834-.506 1.398V173h-1.364v-5.977c0-.496-.161-.896-.482-1.199-.322-.307-.737-.46-1.245-.46-.348 0-.674.092-.977.278a2.1 2.1 0 0 0-.727.773 2.277 2.277 0 0 0-.273 1.13V173h-1.341Zm17.565.182c-.841 0-1.566-.186-2.176-.557a3.736 3.736 0 0 1-1.403-1.568c-.326-.674-.489-1.459-.489-2.352 0-.894.163-1.682.489-2.364.329-.686.788-1.22 1.375-1.602.591-.387 1.28-.58 2.068-.58.455 0 .903.076 1.347.227.443.152.846.398 1.21.739.363.337.653.784.869 1.341.216.557.324 1.242.324 2.057v.568h-6.727v-1.159h5.363c0-.493-.098-.932-.295-1.318a2.219 2.219 0 0 0-.83-.915c-.356-.224-.776-.335-1.261-.335-.534 0-.996.132-1.386.397a2.617 2.617 0 0 0-.892 1.023 2.997 2.997 0 0 0-.313 1.352v.773c0 .659.114 1.218.341 1.676.231.455.551.801.96 1.04.409.235.885.352 1.426.352.353 0 .671-.049.955-.147.288-.103.536-.254.744-.455.209-.205.37-.458.483-.761l1.296.363c-.137.44-.366.826-.688 1.159-.322.33-.72.587-1.193.773a4.425 4.425 0 0 1-1.597.273Zm5.654-.182v-8.727h1.295v1.318h.091c.159-.432.447-.782.864-1.051a2.54 2.54 0 0 1 1.409-.404c.098 0 .221.002.369.006s.26.01.335.017v1.364a3.351 3.351 0 0 0-.312-.051 3.026 3.026 0 0 0-.506-.04c-.424 0-.803.089-1.136.267a1.954 1.954 0 0 0-1.068 1.778V173h-1.341Zm5.953 0v-8.727h1.341V173h-1.341Zm.682-10.182a.951.951 0 0 1-.676-.267.857.857 0 0 1-.279-.642c0-.25.093-.464.279-.642a.951.951 0 0 1 .676-.267c.261 0 .485.089.67.267.19.178.284.392.284.642s-.094.464-.284.642a.932.932 0 0 1-.67.267Zm6.66 10.364c-.818 0-1.522-.193-2.113-.58a3.772 3.772 0 0 1-1.364-1.596c-.318-.678-.477-1.453-.477-2.324 0-.887.163-1.669.488-2.347.33-.682.788-1.214 1.375-1.596.591-.387 1.281-.58 2.069-.58.613 0 1.166.114 1.659.341.492.227.895.545 1.21.955.314.409.509.886.585 1.431h-1.341c-.102-.397-.329-.75-.682-1.056-.348-.311-.818-.466-1.409-.466-.522 0-.981.136-1.375.409-.39.269-.695.649-.915 1.142-.215.488-.323 1.062-.323 1.721 0 .675.106 1.262.318 1.762.216.5.519.888.909 1.164.394.277.856.415 1.386.415.349 0 .665-.06.949-.182.284-.121.525-.295.722-.522.197-.228.337-.5.42-.818h1.341a3.112 3.112 0 0 1-.562 1.392 3.153 3.153 0 0 1-1.177.977c-.484.238-1.049.358-1.693.358Zm7.96.023a3.55 3.55 0 0 1-1.505-.313 2.58 2.58 0 0 1-1.074-.915c-.265-.401-.398-.886-.398-1.454 0-.5.099-.906.296-1.216.197-.315.46-.561.789-.739a4.2 4.2 0 0 1 1.091-.398c.402-.09.805-.162 1.211-.215.53-.069.96-.12 1.289-.154.334-.038.576-.1.728-.187.155-.087.233-.239.233-.455v-.045c0-.561-.154-.997-.461-1.307-.303-.311-.763-.466-1.38-.466-.641 0-1.142.14-1.506.42-.364.281-.619.58-.767.898l-1.273-.454c.227-.531.53-.944.909-1.239.383-.299.8-.508 1.25-.625a5.205 5.205 0 0 1 1.341-.182c.28 0 .602.034.966.102.368.065.722.199 1.063.404.344.204.63.513.858.926.227.413.34.966.34 1.659V173h-1.34v-1.182h-.069c-.091.19-.242.392-.454.608-.212.216-.494.4-.847.551-.352.152-.782.228-1.29.228Zm.205-1.205c.53 0 .977-.104 1.341-.312a2.133 2.133 0 0 0 1.114-1.847v-1.227c-.057.068-.182.13-.375.187-.19.053-.41.101-.66.142a27.7 27.7 0 0 1-.721.102c-.231.027-.419.05-.563.069a5.114 5.114 0 0 0-.977.221 1.684 1.684 0 0 0-.727.449c-.182.197-.273.466-.273.807 0 .466.172.818.517 1.057.349.235.79.352 1.324.352Zm7.584-4.25V173h-1.341v-8.727h1.295v1.363h.114c.205-.443.515-.799.932-1.068.416-.273.954-.409 1.613-.409.591 0 1.108.121 1.552.364.443.238.787.602 1.034 1.091.246.484.369 1.098.369 1.841V173h-1.341v-5.455c0-.685-.178-1.219-.534-1.602-.356-.386-.845-.579-1.466-.579-.428 0-.811.092-1.148.278a1.99 1.99 0 0 0-.789.813c-.194.356-.29.787-.29 1.295ZM200.425 221v-11.636h1.409v5.181h6.204v-5.181h1.409V221h-1.409v-5.205h-6.204V221h-1.409Zm11.662 0v-8.727h1.341V221h-1.341Zm.681-10.182a.955.955 0 0 1-.676-.267.86.86 0 0 1-.278-.642.86.86 0 0 1 .278-.642.955.955 0 0 1 .676-.267c.262 0 .485.089.671.267a.851.851 0 0 1 .284.642c0 .25-.095.464-.284.642a.935.935 0 0 1-.671.267Zm9.297 3.409-1.204.341a2.253 2.253 0 0 0-.335-.585 1.63 1.63 0 0 0-.591-.477c-.25-.125-.57-.188-.961-.188-.534 0-.979.123-1.335.37-.352.242-.528.551-.528.926 0 .333.121.596.363.789.243.194.622.355 1.137.483l1.295.319c.781.189 1.362.479 1.745.869.382.386.573.884.573 1.494 0 .5-.144.947-.431 1.341-.284.394-.682.705-1.194.932-.511.227-1.106.341-1.784.341-.89 0-1.627-.193-2.21-.58-.583-.386-.953-.95-1.108-1.693l1.273-.318c.121.47.35.822.687 1.057.341.235.786.352 1.336.352.625 0 1.121-.133 1.488-.398.371-.269.557-.591.557-.966 0-.303-.106-.556-.318-.761-.212-.208-.538-.364-.977-.466l-1.455-.341c-.799-.189-1.386-.483-1.761-.88-.372-.402-.557-.904-.557-1.506 0-.493.138-.928.415-1.307a2.82 2.82 0 0 1 1.142-.892c.485-.216 1.034-.324 1.647-.324.864 0 1.542.189 2.035.568.496.379.848.879 1.056 1.5Zm2.178 10.046v-12h1.295v1.386h.159c.099-.151.235-.345.41-.579.178-.239.431-.451.761-.637.333-.189.784-.284 1.352-.284.735 0 1.383.184 1.943.551.561.368.998.888 1.313 1.563.314.674.471 1.469.471 2.386 0 .924-.157 1.725-.471 2.403-.315.675-.75 1.197-1.307 1.569-.557.367-1.199.551-1.926.551-.561 0-1.01-.093-1.347-.279-.337-.189-.596-.403-.778-.642a8.677 8.677 0 0 1-.421-.602h-.113v4.614h-1.341Zm1.318-7.637c0 .659.097 1.241.29 1.745.193.5.475.892.846 1.176.372.28.826.42 1.364.42.561 0 1.028-.147 1.403-.443.379-.299.663-.701.853-1.204.193-.508.29-1.072.29-1.694 0-.613-.095-1.166-.285-1.659-.185-.496-.467-.888-.846-1.176-.375-.292-.847-.437-1.415-.437-.545 0-1.004.138-1.375.414-.371.273-.651.656-.841 1.148-.189.489-.284 1.059-.284 1.71Zm11 4.569a3.554 3.554 0 0 1-1.506-.313 2.583 2.583 0 0 1-1.073-.915c-.266-.401-.398-.886-.398-1.454 0-.5.098-.906.295-1.216.197-.315.46-.561.79-.739.33-.178.693-.31 1.091-.398.401-.09.805-.162 1.21-.215.53-.069.96-.12 1.29-.154.333-.038.576-.1.727-.187.156-.087.233-.239.233-.455v-.045c0-.561-.153-.997-.46-1.307-.303-.311-.763-.466-1.381-.466-.64 0-1.142.14-1.505.42-.364.281-.62.58-.767.898l-1.273-.454c.227-.531.53-.944.909-1.239a3.398 3.398 0 0 1 1.25-.625 5.193 5.193 0 0 1 1.341-.182c.28 0 .602.034.966.102.367.065.721.199 1.062.404.345.204.631.513.858.926.227.413.341.966.341 1.659V221h-1.341v-1.182h-.068c-.091.19-.242.392-.455.608-.212.216-.494.4-.846.551-.352.152-.782.228-1.29.228Zm.205-1.205c.53 0 .977-.104 1.341-.312a2.14 2.14 0 0 0 .829-.807c.189-.33.284-.676.284-1.04v-1.227c-.057.068-.182.13-.375.187a6.143 6.143 0 0 1-.659.142c-.246.038-.487.072-.722.102-.231.027-.418.05-.562.069a5.114 5.114 0 0 0-.977.221c-.3.099-.542.248-.728.449-.181.197-.272.466-.272.807 0 .466.172.818.517 1.057.348.235.79.352 1.324.352Zm7.583-4.25V221h-1.34v-8.727h1.295v1.363h.114c.204-.443.515-.799.931-1.068.417-.273.955-.409 1.614-.409.591 0 1.108.121 1.551.364.443.238.788.602 1.034 1.091.247.484.37 1.098.37 1.841V221h-1.341v-5.455c0-.685-.178-1.219-.534-1.602-.356-.386-.845-.579-1.466-.579-.428 0-.811.092-1.148.278a1.992 1.992 0 0 0-.79.813c-.193.356-.29.787-.29 1.295Zm8.019 5.25v-8.727h1.341V221h-1.341Zm.682-10.182a.951.951 0 0 1-.676-.267.857.857 0 0 1-.279-.642c0-.25.093-.464.279-.642a.951.951 0 0 1 .676-.267c.261 0 .485.089.67.267.19.178.284.392.284.642s-.094.464-.284.642a.932.932 0 0 1-.67.267Zm6.66 10.364c-.818 0-1.522-.193-2.113-.58a3.772 3.772 0 0 1-1.364-1.596c-.318-.678-.477-1.453-.477-2.324 0-.887.163-1.669.488-2.347.33-.682.788-1.214 1.375-1.596.591-.387 1.281-.58 2.069-.58.613 0 1.166.114 1.659.341.492.227.895.545 1.21.955.314.409.509.886.585 1.431h-1.341c-.102-.397-.329-.75-.682-1.056-.348-.311-.818-.466-1.409-.466-.522 0-.981.136-1.375.409-.39.269-.695.649-.915 1.142-.215.488-.323 1.062-.323 1.721 0 .675.106 1.262.318 1.762.216.5.519.888.909 1.164.394.277.856.415 1.386.415.349 0 .665-.06.949-.182.284-.121.525-.295.722-.522.197-.228.337-.5.42-.818h1.341a3.112 3.112 0 0 1-.562 1.392 3.153 3.153 0 0 1-1.177.977c-.484.238-1.049.358-1.693.358Zm13.438 0c-.788 0-1.479-.188-2.074-.563-.591-.375-1.053-.899-1.386-1.574-.33-.674-.495-1.462-.495-2.363 0-.909.165-1.703.495-2.381.333-.678.795-1.204 1.386-1.579.595-.375 1.286-.563 2.074-.563.788 0 1.477.188 2.068.563.595.375 1.057.901 1.386 1.579.334.678.5 1.472.5 2.381 0 .901-.166 1.689-.5 2.363a3.758 3.758 0 0 1-1.386 1.574c-.591.375-1.28.563-2.068.563Zm0-1.205c.598 0 1.091-.153 1.477-.46a2.72 2.72 0 0 0 .858-1.21c.186-.5.278-1.042.278-1.625 0-.584-.092-1.127-.278-1.631a2.748 2.748 0 0 0-.858-1.221c-.386-.311-.879-.466-1.477-.466-.599 0-1.091.155-1.478.466-.386.31-.672.717-.858 1.221a4.695 4.695 0 0 0-.278 1.631c0 .583.093 1.125.278 1.625.186.5.472.903.858 1.21.387.307.879.46 1.478.46Zm6.001 1.023v-8.727h1.296v1.318h.091c.159-.432.446-.782.863-1.051a2.544 2.544 0 0 1 1.409-.404c.099 0 .222.002.37.006.147.004.259.01.335.017v1.364a3.462 3.462 0 0 0-.313-.051 3.014 3.014 0 0 0-.505-.04c-.425 0-.803.089-1.137.267a2.019 2.019 0 0 0-.784.727 1.963 1.963 0 0 0-.284 1.051V221h-1.341Zm10.635 0v-11.636h1.409v10.386h5.409V221h-6.818Zm11.386.205a3.55 3.55 0 0 1-1.505-.313 2.58 2.58 0 0 1-1.074-.915c-.265-.401-.398-.886-.398-1.454 0-.5.099-.906.296-1.216.197-.315.46-.561.789-.739a4.2 4.2 0 0 1 1.091-.398c.402-.09.805-.162 1.211-.215.53-.069.96-.12 1.289-.154.334-.038.576-.1.728-.187.155-.087.233-.239.233-.455v-.045c0-.561-.154-.997-.461-1.307-.303-.311-.763-.466-1.38-.466-.641 0-1.142.14-1.506.42-.364.281-.619.58-.767.898l-1.273-.454c.227-.531.53-.944.909-1.239.383-.299.8-.508 1.25-.625a5.205 5.205 0 0 1 1.341-.182c.28 0 .602.034.966.102.368.065.722.199 1.063.404.344.204.63.513.858.926.227.413.34.966.34 1.659V221h-1.34v-1.182h-.069c-.091.19-.242.392-.454.608-.212.216-.494.4-.847.551-.352.152-.782.228-1.29.228Zm.205-1.205c.53 0 .977-.104 1.341-.312a2.133 2.133 0 0 0 1.114-1.847v-1.227c-.057.068-.182.13-.375.187-.19.053-.41.101-.66.142a27.7 27.7 0 0 1-.721.102c-.231.027-.419.05-.563.069a5.114 5.114 0 0 0-.977.221 1.684 1.684 0 0 0-.727.449c-.182.197-.273.466-.273.807 0 .466.172.818.517 1.057.349.235.79.352 1.324.352Zm10.038-7.727v1.136h-4.522v-1.136h4.522Zm-3.204-2.091h1.341v8.318c0 .379.055.663.164.852a.853.853 0 0 0 .432.375c.178.061.366.091.563.091.148 0 .269-.007.363-.023l.228-.045.272 1.205c-.09.034-.217.068-.38.102-.163.038-.37.057-.62.057-.378 0-.75-.082-1.113-.245a2.217 2.217 0 0 1-.898-.744c-.235-.333-.352-.754-.352-1.261v-8.682ZM313.43 221v-8.727h1.341V221h-1.341Zm.682-10.182a.953.953 0 0 1-.676-.267.856.856 0 0 1-.278-.642c0-.25.092-.464.278-.642a.953.953 0 0 1 .676-.267c.262 0 .485.089.671.267a.851.851 0 0 1 .284.642c0 .25-.095.464-.284.642a.935.935 0 0 1-.671.267Zm4.456 4.932V221h-1.341v-8.727h1.296v1.363h.113c.205-.443.516-.799.932-1.068.417-.273.955-.409 1.614-.409.591 0 1.108.121 1.551.364.443.238.788.602 1.034 1.091.246.484.369 1.098.369 1.841V221h-1.341v-5.455c0-.685-.178-1.219-.534-1.602-.356-.386-.844-.579-1.466-.579-.428 0-.81.092-1.147.278a1.985 1.985 0 0 0-.79.813c-.193.356-.29.787-.29 1.295Zm9.019-3.477 2.091 3.568 2.09-3.568h1.546l-2.818 4.363 2.818 4.364h-1.546l-2.09-3.386-2.091 3.386h-1.546l2.773-4.364-2.773-4.363h1.546ZM189.616 258.614v-1.25h8.728v1.25h-3.659V269h-1.409v-10.386h-3.66ZM201.314 269l-2.659-8.727h1.409l1.886 6.682h.091l1.864-6.682h1.432l1.841 6.659h.09l1.887-6.659h1.409L207.905 269h-1.318l-1.909-6.705h-.137L202.632 269h-1.318Zm14.271.182c-.788 0-1.479-.188-2.074-.563-.591-.375-1.053-.899-1.386-1.574-.33-.674-.494-1.462-.494-2.363 0-.909.164-1.703.494-2.381.333-.678.795-1.204 1.386-1.579.595-.375 1.286-.563 2.074-.563.788 0 1.478.188 2.068.563.595.375 1.057.901 1.387 1.579.333.678.5 1.472.5 2.381 0 .901-.167 1.689-.5 2.363-.33.675-.792 1.199-1.387 1.574-.59.375-1.28.563-2.068.563Zm0-1.205c.599 0 1.091-.153 1.477-.46.387-.307.673-.71.858-1.21.186-.5.279-1.042.279-1.625 0-.584-.093-1.127-.279-1.631a2.732 2.732 0 0 0-.858-1.221c-.386-.311-.878-.466-1.477-.466-.598 0-1.091.155-1.477.466-.386.31-.672.717-.858 1.221a4.671 4.671 0 0 0-.278 1.631c0 .583.092 1.125.278 1.625.186.5.472.903.858 1.21.386.307.879.46 1.477.46Zm14.047 1.205c-.788 0-1.479-.188-2.074-.563-.591-.375-1.053-.899-1.386-1.574-.33-.674-.494-1.462-.494-2.363 0-.909.164-1.703.494-2.381.333-.678.795-1.204 1.386-1.579.595-.375 1.286-.563 2.074-.563.788 0 1.477.188 2.068.563.595.375 1.057.901 1.387 1.579.333.678.5 1.472.5 2.381 0 .901-.167 1.689-.5 2.363-.33.675-.792 1.199-1.387 1.574-.591.375-1.28.563-2.068.563Zm0-1.205c.599 0 1.091-.153 1.477-.46.387-.307.673-.71.858-1.21.186-.5.279-1.042.279-1.625 0-.584-.093-1.127-.279-1.631a2.732 2.732 0 0 0-.858-1.221c-.386-.311-.878-.466-1.477-.466-.598 0-1.091.155-1.477.466-.387.31-.673.717-.858 1.221a4.672 4.672 0 0 0-.279 1.631c0 .583.093 1.125.279 1.625.185.5.471.903.858 1.21.386.307.879.46 1.477.46Zm6.002 1.023v-8.727h1.295v1.318h.091c.159-.432.447-.782.864-1.051a2.54 2.54 0 0 1 1.409-.404c.098 0 .221.002.369.006a5.5 5.5 0 0 1 .335.017v1.364a3.351 3.351 0 0 0-.312-.051 3.026 3.026 0 0 0-.506-.04c-.424 0-.803.089-1.136.267a1.955 1.955 0 0 0-1.069 1.778V269h-1.34Zm10.634-11.636h1.682l3.955 9.659h.136l3.955-9.659h1.682V269h-1.319v-8.841h-.113L252.609 269h-1.272l-3.637-8.841h-.113V269h-1.319v-11.636Zm17.598 11.818c-.787 0-1.479-.188-2.073-.563-.591-.375-1.053-.899-1.387-1.574-.329-.674-.494-1.462-.494-2.363 0-.909.165-1.703.494-2.381.334-.678.796-1.204 1.387-1.579.594-.375 1.286-.563 2.073-.563.788 0 1.478.188 2.069.563.594.375 1.056.901 1.386 1.579.333.678.5 1.472.5 2.381 0 .901-.167 1.689-.5 2.363a3.772 3.772 0 0 1-1.386 1.574c-.591.375-1.281.563-2.069.563Zm0-1.205c.599 0 1.091-.153 1.478-.46a2.72 2.72 0 0 0 .858-1.21c.185-.5.278-1.042.278-1.625 0-.584-.093-1.127-.278-1.631a2.748 2.748 0 0 0-.858-1.221c-.387-.311-.879-.466-1.478-.466-.598 0-1.09.155-1.477.466-.386.31-.672.717-.858 1.221a4.695 4.695 0 0 0-.278 1.631c0 .583.093 1.125.278 1.625.186.5.472.903.858 1.21.387.307.879.46 1.477.46Zm6.002 1.023v-8.727h1.295v1.318h.091c.159-.432.447-.782.864-1.051a2.542 2.542 0 0 1 1.409-.404c.098 0 .222.002.369.006.148.004.26.01.336.017v1.364a3.462 3.462 0 0 0-.313-.051 3.026 3.026 0 0 0-.506-.04c-.424 0-.803.089-1.136.267-.33.174-.591.417-.784.727a1.963 1.963 0 0 0-.284 1.051V269h-1.341Zm9.346.182c-.84 0-1.566-.186-2.176-.557a3.736 3.736 0 0 1-1.403-1.568c-.326-.674-.489-1.459-.489-2.352 0-.894.163-1.682.489-2.364.329-.686.788-1.22 1.375-1.602.591-.387 1.28-.58 2.068-.58.455 0 .904.076 1.347.227.443.152.846.398 1.21.739.364.337.653.784.869 1.341.216.557.324 1.242.324 2.057v.568h-6.727v-1.159h5.363c0-.493-.098-.932-.295-1.318a2.219 2.219 0 0 0-.83-.915c-.356-.224-.776-.335-1.261-.335-.534 0-.996.132-1.386.397a2.617 2.617 0 0 0-.892 1.023 2.997 2.997 0 0 0-.313 1.352v.773c0 .659.114 1.218.341 1.676.231.455.551.801.96 1.04.409.235.885.352 1.426.352.353 0 .671-.049.955-.147.288-.103.536-.254.744-.455.209-.205.37-.458.483-.761l1.296.363c-.137.44-.366.826-.688 1.159-.322.33-.719.587-1.193.773a4.421 4.421 0 0 1-1.597.273ZM289.55 269v-11.636h3.932c.909 0 1.655.155 2.238.466.584.306 1.015.729 1.296 1.267.28.537.42 1.149.42 1.835 0 .685-.14 1.293-.42 1.824-.281.53-.711.947-1.29 1.25-.58.299-1.32.449-2.222.449h-3.182v-1.273h3.137c.621 0 1.121-.091 1.5-.273.382-.182.659-.439.829-.773.175-.337.262-.738.262-1.204 0-.466-.087-.873-.262-1.222a1.784 1.784 0 0 0-.835-.807c-.382-.193-.888-.289-1.517-.289h-2.477V269h-1.409Zm5.477-5.227 2.864 5.227h-1.637l-2.818-5.227h1.591Zm7.143 5.432a3.55 3.55 0 0 1-1.505-.313 2.58 2.58 0 0 1-1.074-.915c-.265-.401-.398-.886-.398-1.454 0-.5.099-.906.296-1.216.197-.315.46-.561.789-.739a4.2 4.2 0 0 1 1.091-.398c.402-.09.805-.162 1.211-.215.53-.069.96-.12 1.289-.154.334-.038.576-.1.728-.187.155-.087.233-.239.233-.455v-.045c0-.561-.154-.997-.461-1.307-.303-.311-.763-.466-1.38-.466-.641 0-1.142.14-1.506.42-.364.281-.619.58-.767.898l-1.273-.454c.227-.531.53-.944.909-1.239.383-.299.8-.508 1.25-.625a5.205 5.205 0 0 1 1.341-.182c.28 0 .602.034.966.102.368.065.722.199 1.063.404.344.204.63.513.858.926.227.413.34.966.34 1.659V269h-1.34v-1.182h-.069c-.091.19-.242.392-.454.608-.212.216-.494.4-.847.551-.352.152-.782.228-1.29.228Zm.205-1.205c.53 0 .977-.104 1.341-.312a2.133 2.133 0 0 0 1.114-1.847v-1.227c-.057.068-.182.13-.375.187-.19.053-.41.101-.66.142a27.7 27.7 0 0 1-.721.102c-.231.027-.419.05-.563.069a5.114 5.114 0 0 0-.977.221 1.684 1.684 0 0 0-.727.449c-.182.197-.273.466-.273.807 0 .466.172.818.517 1.057.349.235.79.352 1.324.352Zm9.788 1.182c-.818 0-1.522-.193-2.113-.58a3.772 3.772 0 0 1-1.364-1.596c-.318-.678-.477-1.453-.477-2.324 0-.887.163-1.669.488-2.347.33-.682.788-1.214 1.375-1.596.591-.387 1.281-.58 2.069-.58.613 0 1.166.114 1.659.341.492.227.896.545 1.21.955.314.409.509.886.585 1.431h-1.341c-.102-.397-.329-.75-.682-1.056-.348-.311-.818-.466-1.409-.466-.522 0-.981.136-1.375.409-.39.269-.695.649-.914 1.142-.216.488-.324 1.062-.324 1.721 0 .675.106 1.262.318 1.762.216.5.519.888.909 1.164.394.277.856.415 1.386.415.349 0 .665-.06.949-.182.284-.121.525-.295.722-.522.197-.228.337-.5.42-.818h1.341a3.112 3.112 0 0 1-.562 1.392 3.158 3.158 0 0 1-1.176.977c-.485.238-1.05.358-1.694.358Zm9.051 0c-.84 0-1.566-.186-2.176-.557a3.736 3.736 0 0 1-1.403-1.568c-.326-.674-.489-1.459-.489-2.352 0-.894.163-1.682.489-2.364.329-.686.788-1.22 1.375-1.602.591-.387 1.28-.58 2.068-.58.455 0 .904.076 1.347.227.443.152.846.398 1.21.739.364.337.653.784.869 1.341.216.557.324 1.242.324 2.057v.568h-6.727v-1.159h5.363c0-.493-.098-.932-.295-1.318a2.219 2.219 0 0 0-.83-.915c-.356-.224-.776-.335-1.261-.335-.534 0-.996.132-1.386.397a2.617 2.617 0 0 0-.892 1.023 2.997 2.997 0 0 0-.313 1.352v.773c0 .659.114 1.218.341 1.676.231.455.551.801.96 1.04.409.235.885.352 1.426.352.353 0 .671-.049.955-.147.288-.103.536-.254.744-.455.209-.205.37-.458.483-.761l1.296.363c-.137.44-.366.826-.688 1.159-.322.33-.719.587-1.193.773a4.421 4.421 0 0 1-1.597.273Zm11.836-6.955-1.205.341a2.224 2.224 0 0 0-.335-.585 1.63 1.63 0 0 0-.591-.477c-.25-.125-.57-.188-.96-.188-.534 0-.979.123-1.335.37-.353.242-.529.551-.529.926 0 .333.121.596.364.789.242.194.621.355 1.136.483l1.296.319c.78.189 1.361.479 1.744.869.383.386.574.884.574 1.494 0 .5-.144.947-.432 1.341-.284.394-.682.705-1.193.932-.512.227-1.106.341-1.784.341-.89 0-1.627-.193-2.211-.58-.583-.386-.952-.95-1.107-1.693l1.272-.318c.121.47.351.822.688 1.057.341.235.786.352 1.335.352.625 0 1.121-.133 1.489-.398.371-.269.556-.591.556-.966 0-.303-.106-.556-.318-.761-.212-.208-.538-.364-.977-.466l-1.455-.341c-.799-.189-1.386-.483-1.761-.88-.371-.402-.557-.904-.557-1.506 0-.493.139-.928.415-1.307a2.82 2.82 0 0 1 1.142-.892c.485-.216 1.034-.324 1.648-.324.863 0 1.541.189 2.034.568a3.07 3.07 0 0 1 1.057 1.5ZM35.933 305.364V317H34.57l-6.341-9.136h-.114V317h-1.409v-11.636h1.364l6.363 9.159h.114v-9.159h1.386Zm5.206 11.841a3.552 3.552 0 0 1-1.506-.313 2.581 2.581 0 0 1-1.073-.915c-.266-.401-.398-.886-.398-1.454 0-.5.098-.906.295-1.216.197-.315.46-.561.79-.739.33-.178.693-.31 1.091-.398.402-.09.805-.162 1.21-.215.53-.069.96-.12 1.29-.154.333-.038.576-.1.727-.187.156-.087.233-.239.233-.455v-.045c0-.561-.153-.997-.46-1.307-.303-.311-.763-.466-1.38-.466-.64 0-1.143.14-1.506.42-.364.281-.62.58-.767.898l-1.273-.454c.227-.531.53-.944.909-1.239.383-.299.8-.508 1.25-.625a5.2 5.2 0 0 1 1.34-.182c.281 0 .603.034.967.102.367.065.721.199 1.062.404.345.204.631.513.858.926.228.413.341.966.341 1.659V317H43.8v-1.182h-.069c-.09.19-.242.392-.454.608-.213.216-.495.4-.847.551-.352.152-.782.228-1.29.228Zm.205-1.205c.53 0 .977-.104 1.34-.312.368-.209.645-.478.83-.807.19-.33.284-.676.284-1.04v-1.227c-.056.068-.181.13-.375.187-.19.053-.409.101-.659.142-.246.038-.486.072-.721.102-.231.027-.419.05-.563.069a5.11 5.11 0 0 0-.977.221c-.3.099-.542.248-.727.449-.182.197-.273.466-.273.807 0 .466.172.818.517 1.057.348.235.79.352 1.324.352Zm10.038-7.727v1.136H46.86v-1.136h4.523Zm-3.204-2.091h1.34v8.318c0 .379.055.663.165.852a.85.85 0 0 0 .432.375c.178.061.366.091.563.091.147 0 .269-.007.363-.023l.228-.045.272 1.205c-.09.034-.218.068-.38.102-.163.038-.37.057-.62.057-.379 0-.75-.082-1.113-.245a2.215 2.215 0 0 1-.898-.744c-.235-.333-.352-.754-.352-1.261v-8.682ZM53.399 317v-8.727h1.341V317H53.4Zm.682-10.182a.954.954 0 0 1-.676-.267.858.858 0 0 1-.279-.642c0-.25.093-.464.279-.642a.954.954 0 0 1 .676-.267c.261 0 .485.089.67.267a.85.85 0 0 1 .285.642.85.85 0 0 1-.285.642.934.934 0 0 1-.67.267Zm10.251 1.455L61.105 317h-1.363l-3.228-8.727h1.455l2.409 6.954h.09l2.41-6.954h1.454Zm5.117 8.909c-.841 0-1.566-.186-2.176-.557a3.74 3.74 0 0 1-1.404-1.568c-.325-.674-.488-1.459-.488-2.352 0-.894.163-1.682.488-2.364.33-.686.788-1.22 1.375-1.602.591-.387 1.28-.58 2.069-.58.454 0 .903.076 1.346.227.443.152.847.398 1.21.739.364.337.654.784.87 1.341.215.557.323 1.242.323 2.057v.568h-6.727v-1.159H71.7c0-.493-.099-.932-.296-1.318a2.22 2.22 0 0 0-.83-.915c-.355-.224-.776-.335-1.26-.335-.535 0-.997.132-1.387.397a2.625 2.625 0 0 0-.892 1.023 3.006 3.006 0 0 0-.312 1.352v.773c0 .659.113 1.218.34 1.676.232.455.552.801.96 1.04.41.235.885.352 1.427.352.352 0 .67-.049.954-.147a2.05 2.05 0 0 0 .745-.455c.208-.205.369-.458.483-.761l1.295.363c-.136.44-.365.826-.687 1.159a3.35 3.35 0 0 1-1.194.773 4.421 4.421 0 0 1-1.596.273ZM79.784 317v-11.636h1.41v5.181h6.204v-5.181h1.409V317h-1.41v-5.205h-6.204V317h-1.409Zm14.23.205a3.552 3.552 0 0 1-1.505-.313 2.581 2.581 0 0 1-1.074-.915c-.266-.401-.398-.886-.398-1.454 0-.5.098-.906.295-1.216.197-.315.46-.561.79-.739.33-.178.693-.31 1.091-.398.402-.09.805-.162 1.21-.215.53-.069.96-.12 1.29-.154.333-.038.576-.1.727-.187.156-.087.233-.239.233-.455v-.045c0-.561-.153-.997-.46-1.307-.303-.311-.763-.466-1.38-.466-.64 0-1.143.14-1.506.42-.364.281-.62.58-.767.898l-1.273-.454c.227-.531.53-.944.909-1.239.383-.299.8-.508 1.25-.625a5.2 5.2 0 0 1 1.34-.182c.281 0 .603.034.967.102.367.065.721.199 1.062.404.345.204.631.513.858.926.228.413.341.966.341 1.659V317h-1.34v-1.182h-.069c-.09.19-.242.392-.454.608-.213.216-.495.4-.847.551-.352.152-.782.228-1.29.228ZM94.22 316c.53 0 .977-.104 1.34-.312.368-.209.645-.478.83-.807.19-.33.284-.676.284-1.04v-1.227c-.056.068-.181.13-.375.187-.19.053-.409.101-.659.142-.246.038-.486.072-.721.102-.231.027-.419.05-.563.069a5.11 5.11 0 0 0-.977.221c-.3.099-.542.248-.727.449-.182.197-.273.466-.273.807 0 .466.172.818.517 1.057.348.235.79.352 1.324.352Zm8.22 1-2.66-8.727h1.41l1.886 6.682h.091l1.864-6.682h1.432l1.841 6.659h.09l1.887-6.659h1.409L109.03 317h-1.318l-1.909-6.705h-.137L103.757 317h-1.318Zm13.591.205a3.554 3.554 0 0 1-1.506-.313 2.58 2.58 0 0 1-1.074-.915c-.265-.401-.397-.886-.397-1.454 0-.5.098-.906.295-1.216.197-.315.46-.561.79-.739.329-.178.693-.31 1.091-.398.401-.09.805-.162 1.21-.215.53-.069.96-.12 1.29-.154.333-.038.575-.1.727-.187.155-.087.233-.239.233-.455v-.045c0-.561-.153-.997-.46-1.307-.303-.311-.764-.466-1.381-.466-.64 0-1.142.14-1.506.42-.363.281-.619.58-.767.898l-1.272-.454c.227-.531.53-.944.909-1.239a3.398 3.398 0 0 1 1.25-.625 5.193 5.193 0 0 1 1.341-.182c.28 0 .602.034.965.102.368.065.722.199 1.063.404.345.204.631.513.858.926.227.413.341.966.341 1.659V317h-1.341v-1.182h-.068a2.36 2.36 0 0 1-.455.608c-.212.216-.494.4-.846.551-.353.152-.783.228-1.29.228Zm.204-1.205c.531 0 .978-.104 1.341-.312.368-.209.644-.478.83-.807.189-.33.284-.676.284-1.04v-1.227c-.057.068-.182.13-.375.187a6.143 6.143 0 0 1-.659.142c-.246.038-.487.072-.722.102-.231.027-.418.05-.562.069a5.107 5.107 0 0 0-.978.221 1.69 1.69 0 0 0-.727.449c-.182.197-.273.466-.273.807 0 .466.173.818.518 1.057.348.235.789.352 1.323.352Zm6.243 1v-8.727h1.341V317h-1.341Zm.682-10.182a.953.953 0 0 1-.676-.267.856.856 0 0 1-.278-.642c0-.25.092-.464.278-.642a.953.953 0 0 1 .676-.267c.261 0 .485.089.671.267a.851.851 0 0 1 .284.642c0 .25-.095.464-.284.642a.936.936 0 0 1-.671.267ZM126.274 317v-8.727h1.341V317h-1.341Zm.682-10.182a.953.953 0 0 1-.676-.267.857.857 0 0 1-.279-.642c0-.25.093-.464.279-.642a.953.953 0 0 1 .676-.267c.261 0 .485.089.67.267.19.178.285.392.285.642s-.095.464-.285.642a.932.932 0 0 1-.67.267Zm5.683 10.387a3.546 3.546 0 0 1-1.505-.313 2.58 2.58 0 0 1-1.074-.915c-.265-.401-.398-.886-.398-1.454 0-.5.098-.906.295-1.216.197-.315.461-.561.79-.739.33-.178.693-.31 1.091-.398.402-.09.805-.162 1.21-.215.531-.069.961-.12 1.29-.154.333-.038.576-.1.727-.187.156-.087.233-.239.233-.455v-.045c0-.561-.153-.997-.46-1.307-.303-.311-.763-.466-1.381-.466-.64 0-1.142.14-1.505.42-.364.281-.62.58-.767.898l-1.273-.454c.227-.531.53-.944.909-1.239a3.406 3.406 0 0 1 1.25-.625 5.205 5.205 0 0 1 1.341-.182c.28 0 .602.034.966.102.367.065.721.199 1.062.404.345.204.631.513.858.926.228.413.341.966.341 1.659V317h-1.341v-1.182h-.068c-.091.19-.242.392-.454.608-.213.216-.495.4-.847.551-.352.152-.782.228-1.29.228Zm.205-1.205c.53 0 .977-.104 1.341-.312a2.133 2.133 0 0 0 1.113-1.847v-1.227c-.057.068-.182.13-.375.187a6.143 6.143 0 0 1-.659.142 28.32 28.32 0 0 1-1.284.171 5.114 5.114 0 0 0-.977.221 1.684 1.684 0 0 0-.727.449c-.182.197-.273.466-.273.807 0 .466.172.818.517 1.057.348.235.79.352 1.324.352Zm7.584-4.25V317h-1.341v-8.727h1.295v1.363h.114c.204-.443.515-.799.932-1.068.416-.273.954-.409 1.613-.409.591 0 1.108.121 1.551.364.444.238.788.602 1.034 1.091.247.484.37 1.098.37 1.841V317h-1.341v-5.455c0-.685-.178-1.219-.534-1.602-.356-.386-.845-.579-1.466-.579-.428 0-.811.092-1.148.278a1.998 1.998 0 0 0-.79.813c-.193.356-.289.787-.289 1.295Zm16.063 5.432c-.787 0-1.479-.188-2.073-.563-.591-.375-1.053-.899-1.387-1.574-.329-.674-.494-1.462-.494-2.363 0-.909.165-1.703.494-2.381.334-.678.796-1.204 1.387-1.579.594-.375 1.286-.563 2.073-.563.788 0 1.478.188 2.069.563.594.375 1.056.901 1.386 1.579.333.678.5 1.472.5 2.381 0 .901-.167 1.689-.5 2.363a3.772 3.772 0 0 1-1.386 1.574c-.591.375-1.281.563-2.069.563Zm0-1.205c.599 0 1.091-.153 1.478-.46a2.72 2.72 0 0 0 .858-1.21c.185-.5.278-1.042.278-1.625 0-.584-.093-1.127-.278-1.631a2.748 2.748 0 0 0-.858-1.221c-.387-.311-.879-.466-1.478-.466-.598 0-1.09.155-1.477.466-.386.31-.672.717-.858 1.221a4.695 4.695 0 0 0-.278 1.631c0 .583.093 1.125.278 1.625.186.5.472.903.858 1.21.387.307.879.46 1.477.46Zm6.002 1.023v-8.727h1.295v1.318h.091c.159-.432.447-.782.864-1.051a2.542 2.542 0 0 1 1.409-.404c.098 0 .222.002.369.006.148.004.26.01.336.017v1.364a3.462 3.462 0 0 0-.313-.051 3.026 3.026 0 0 0-.506-.04c-.424 0-.803.089-1.136.267-.33.174-.591.417-.784.727a1.963 1.963 0 0 0-.284 1.051V317h-1.341Zm20.453-5.818c0 1.227-.222 2.288-.665 3.182-.443.894-1.051 1.583-1.824 2.068-.772.485-1.655.727-2.647.727-.993 0-1.875-.242-2.648-.727-.773-.485-1.381-1.174-1.824-2.068-.443-.894-.665-1.955-.665-3.182 0-1.227.222-2.288.665-3.182.443-.894 1.051-1.583 1.824-2.068.773-.485 1.655-.727 2.648-.727.992 0 1.875.242 2.647.727.773.485 1.381 1.174 1.824 2.068.443.894.665 1.955.665 3.182Zm-1.364 0c0-1.008-.168-1.858-.505-2.551-.334-.693-.786-1.218-1.358-1.574a3.522 3.522 0 0 0-1.909-.534 3.55 3.55 0 0 0-1.915.534c-.568.356-1.021.881-1.358 1.574-.333.693-.5 1.543-.5 2.551 0 1.007.167 1.858.5 2.551.337.693.79 1.218 1.358 1.574a3.55 3.55 0 0 0 1.915.534c.704 0 1.341-.178 1.909-.534.572-.356 1.024-.881 1.358-1.574.337-.693.505-1.544.505-2.551Zm7.347-2.909v1.136h-4.523v-1.136h4.523Zm-3.205-2.091h1.341v8.318c0 .379.055.663.165.852a.853.853 0 0 0 .432.375c.178.061.365.091.562.091.148 0 .269-.007.364-.023l.227-.045.273 1.205a2.74 2.74 0 0 1-.381.102 2.785 2.785 0 0 1-.619.057 2.7 2.7 0 0 1-1.114-.245 2.214 2.214 0 0 1-.897-.744c-.235-.333-.353-.754-.353-1.261v-8.682Zm6.75 5.568V317h-1.34v-11.636h1.34v4.272h.114c.205-.45.511-.808.921-1.074.412-.268.962-.403 1.647-.403.595 0 1.116.119 1.563.358.447.235.793.597 1.04 1.085.25.485.375 1.103.375 1.853V317h-1.341v-5.455c0-.693-.18-1.229-.54-1.607-.356-.383-.851-.574-1.483-.574-.44 0-.833.092-1.182.278a2.032 2.032 0 0 0-.818.813c-.197.356-.296.787-.296 1.295Zm11.772 5.432c-.841 0-1.567-.186-2.176-.557a3.744 3.744 0 0 1-1.404-1.568c-.326-.674-.488-1.459-.488-2.352 0-.894.162-1.682.488-2.364.33-.686.788-1.22 1.375-1.602.591-.387 1.28-.58 2.068-.58.455 0 .904.076 1.347.227.443.152.847.398 1.21.739.364.337.654.784.87 1.341.215.557.323 1.242.323 2.057v.568h-6.727v-1.159h5.364c0-.493-.099-.932-.296-1.318a2.217 2.217 0 0 0-.829-.915c-.356-.224-.777-.335-1.262-.335-.534 0-.996.132-1.386.397a2.625 2.625 0 0 0-.892 1.023 3.01 3.01 0 0 0-.313 1.352v.773c0 .659.114 1.218.341 1.676.231.455.552.801.961 1.04.409.235.884.352 1.426.352.352 0 .67-.049.954-.147.288-.103.536-.254.745-.455.208-.205.369-.458.483-.761l1.295.363c-.136.44-.366.826-.687 1.159a3.35 3.35 0 0 1-1.194.773 4.416 4.416 0 0 1-1.596.273Zm5.653-.182v-8.727h1.296v1.318h.091c.159-.432.446-.782.863-1.051a2.544 2.544 0 0 1 1.409-.404c.099 0 .222.002.37.006.147.004.259.01.335.017v1.364a3.462 3.462 0 0 0-.313-.051 3.014 3.014 0 0 0-.505-.04c-.425 0-.803.089-1.137.267a2.019 2.019 0 0 0-.784.727 1.963 1.963 0 0 0-.284 1.051V317h-1.341Zm10.635 0v-11.636h3.932c.913 0 1.659.164 2.239.494.583.326 1.015.767 1.295 1.324s.42 1.178.42 1.863c0 .686-.14 1.309-.42 1.87a3.138 3.138 0 0 1-1.284 1.341c-.58.329-1.322.494-2.227.494h-2.819v-1.25h2.773c.625 0 1.127-.108 1.506-.324a1.93 1.93 0 0 0 .824-.875c.174-.371.261-.79.261-1.256a2.89 2.89 0 0 0-.261-1.25 1.866 1.866 0 0 0-.83-.863c-.382-.212-.89-.318-1.523-.318h-2.477V317h-1.409Zm12.543.205a3.554 3.554 0 0 1-1.506-.313 2.58 2.58 0 0 1-1.074-.915c-.265-.401-.398-.886-.398-1.454 0-.5.099-.906.296-1.216.197-.315.46-.561.79-.739.329-.178.693-.31 1.091-.398.401-.09.804-.162 1.21-.215.53-.069.96-.12 1.29-.154.333-.038.575-.1.727-.187.155-.087.233-.239.233-.455v-.045c0-.561-.154-.997-.46-1.307-.303-.311-.764-.466-1.381-.466-.64 0-1.142.14-1.506.42-.363.281-.619.58-.767.898l-1.273-.454c.228-.531.531-.944.91-1.239a3.398 3.398 0 0 1 1.25-.625 5.192 5.192 0 0 1 1.34-.182c.281 0 .603.034.966.102.368.065.722.199 1.063.404.345.204.631.513.858.926.227.413.341.966.341 1.659V317h-1.341v-1.182h-.068a2.36 2.36 0 0 1-.455.608c-.212.216-.494.4-.847.551-.352.152-.782.228-1.289.228Zm.204-1.205c.531 0 .978-.104 1.341-.312.368-.209.644-.478.83-.807.189-.33.284-.676.284-1.04v-1.227c-.057.068-.182.13-.375.187-.19.053-.409.101-.659.142-.247.038-.487.072-.722.102-.231.027-.418.05-.562.069a5.107 5.107 0 0 0-.978.221 1.69 1.69 0 0 0-.727.449c-.182.197-.273.466-.273.807 0 .466.173.818.517 1.057.349.235.79.352 1.324.352Zm9.789 1.182c-.819 0-1.523-.193-2.114-.58a3.78 3.78 0 0 1-1.364-1.596c-.318-.678-.477-1.453-.477-2.324 0-.887.163-1.669.489-2.347.329-.682.788-1.214 1.375-1.596.591-.387 1.28-.58 2.068-.58.614 0 1.167.114 1.659.341.492.227.896.545 1.21.955.315.409.51.886.585 1.431h-1.34c-.103-.397-.33-.75-.682-1.056-.349-.311-.818-.466-1.409-.466-.523 0-.981.136-1.375.409-.391.269-.695.649-.915 1.142-.216.488-.324 1.062-.324 1.721 0 .675.106 1.262.318 1.762.216.5.519.888.909 1.164.394.277.856.415 1.387.415.348 0 .664-.06.948-.182a1.95 1.95 0 0 0 .722-.522c.197-.228.337-.5.421-.818h1.34a3.1 3.1 0 0 1-.562 1.392 3.158 3.158 0 0 1-1.176.977c-.485.238-1.049.358-1.693.358Zm5.392-.182v-8.727h1.341V317h-1.341Zm.681-10.182a.955.955 0 0 1-.676-.267.86.86 0 0 1-.278-.642.86.86 0 0 1 .278-.642.955.955 0 0 1 .676-.267c.262 0 .485.089.671.267a.851.851 0 0 1 .284.642c0 .25-.095.464-.284.642a.935.935 0 0 1-.671.267Zm7.002 1.455v1.136h-4.705v-1.136h4.705ZM252.849 317v-9.932c0-.5.118-.916.353-1.25.235-.333.539-.583.914-.75.375-.166.771-.25 1.188-.25.33 0 .598.027.807.08.208.053.363.102.466.147l-.387 1.16a5.962 5.962 0 0 0-.284-.086 1.721 1.721 0 0 0-.466-.051c-.443 0-.763.112-.96.335-.193.224-.29.552-.29.983V317h-1.341Zm5.175 0v-8.727h1.341V317h-1.341Zm.682-10.182a.953.953 0 0 1-.676-.267.857.857 0 0 1-.279-.642c0-.25.093-.464.279-.642a.953.953 0 0 1 .676-.267c.261 0 .485.089.67.267.19.178.285.392.285.642s-.095.464-.285.642a.932.932 0 0 1-.67.267Zm6.66 10.364c-.818 0-1.522-.193-2.113-.58a3.772 3.772 0 0 1-1.364-1.596c-.318-.678-.477-1.453-.477-2.324 0-.887.163-1.669.489-2.347.329-.682.787-1.214 1.375-1.596.59-.387 1.28-.58 2.068-.58.613 0 1.166.114 1.659.341.492.227.896.545 1.21.955.314.409.51.886.585 1.431h-1.341c-.102-.397-.329-.75-.681-1.056-.349-.311-.819-.466-1.41-.466-.522 0-.981.136-1.375.409-.39.269-.695.649-.914 1.142-.216.488-.324 1.062-.324 1.721 0 .675.106 1.262.318 1.762.216.5.519.888.909 1.164.394.277.856.415 1.386.415.349 0 .665-.06.949-.182.284-.121.525-.295.722-.522.197-.228.337-.5.42-.818h1.341a3.1 3.1 0 0 1-.562 1.392 3.158 3.158 0 0 1-1.176.977c-.485.238-1.05.358-1.694.358Zm11.483-11.818V317h-1.409v-11.636h1.409Zm8.826 4.863-1.205.341a2.224 2.224 0 0 0-.335-.585 1.63 1.63 0 0 0-.591-.477c-.25-.125-.57-.188-.96-.188-.534 0-.979.123-1.335.37-.353.242-.529.551-.529.926 0 .333.121.596.364.789.242.194.621.355 1.136.483l1.296.319c.78.189 1.361.479 1.744.869.383.386.574.884.574 1.494 0 .5-.144.947-.432 1.341-.284.394-.682.705-1.193.932-.512.227-1.106.341-1.784.341-.89 0-1.627-.193-2.211-.58-.583-.386-.952-.95-1.107-1.693l1.272-.318c.121.47.351.822.688 1.057.341.235.786.352 1.335.352.625 0 1.121-.133 1.489-.398.371-.269.556-.591.556-.966 0-.303-.106-.556-.318-.761-.212-.208-.538-.364-.977-.466l-1.455-.341c-.799-.189-1.386-.483-1.761-.88-.371-.402-.557-.904-.557-1.506 0-.493.139-.928.415-1.307a2.82 2.82 0 0 1 1.142-.892c.485-.216 1.034-.324 1.648-.324.863 0 1.541.189 2.034.568a3.07 3.07 0 0 1 1.057 1.5Zm3.518-4.863V317h-1.341v-11.636h1.341Zm5.024 11.841a3.546 3.546 0 0 1-1.505-.313 2.58 2.58 0 0 1-1.074-.915c-.265-.401-.398-.886-.398-1.454 0-.5.099-.906.296-1.216.196-.315.46-.561.789-.739.33-.178.693-.31 1.091-.398.402-.09.805-.162 1.21-.215.531-.069.961-.12 1.29-.154.334-.038.576-.1.727-.187.156-.087.233-.239.233-.455v-.045c0-.561-.153-.997-.46-1.307-.303-.311-.763-.466-1.38-.466-.641 0-1.143.14-1.506.42-.364.281-.619.58-.767.898l-1.273-.454c.227-.531.53-.944.909-1.239a3.406 3.406 0 0 1 1.25-.625 5.205 5.205 0 0 1 1.341-.182c.28 0 .602.034.966.102a3.09 3.09 0 0 1 1.062.404c.345.204.631.513.858.926.228.413.341.966.341 1.659V317h-1.341v-1.182h-.068c-.091.19-.242.392-.454.608-.212.216-.495.4-.847.551-.352.152-.782.228-1.29.228Zm.205-1.205c.53 0 .977-.104 1.341-.312a2.133 2.133 0 0 0 1.113-1.847v-1.227c-.056.068-.181.13-.375.187a6.143 6.143 0 0 1-.659.142 27.7 27.7 0 0 1-.721.102c-.231.027-.419.05-.563.069a5.114 5.114 0 0 0-.977.221 1.684 1.684 0 0 0-.727.449c-.182.197-.273.466-.273.807 0 .466.172.818.517 1.057.348.235.79.352 1.324.352Zm7.584-4.25V317h-1.341v-8.727h1.295v1.363h.114c.204-.443.515-.799.932-1.068.416-.273.954-.409 1.613-.409.591 0 1.108.121 1.551.364.444.238.788.602 1.035 1.091.246.484.369 1.098.369 1.841V317h-1.341v-5.455c0-.685-.178-1.219-.534-1.602-.356-.386-.845-.579-1.466-.579-.428 0-.811.092-1.148.278a1.998 1.998 0 0 0-.79.813c-.193.356-.289.787-.289 1.295Zm11.314 5.432c-.728 0-1.37-.184-1.927-.551-.556-.372-.992-.894-1.306-1.569-.315-.678-.472-1.479-.472-2.403 0-.917.157-1.712.472-2.386.314-.675.752-1.195 1.312-1.563.561-.367 1.208-.551 1.943-.551.569 0 1.017.095 1.347.284.333.186.587.398.761.637.178.234.317.428.415.579h.114v-4.295h1.341V317h-1.296v-1.341h-.159a8.61 8.61 0 0 1-.42.602c-.182.239-.442.453-.779.642-.337.186-.786.279-1.346.279Zm.181-1.205c.538 0 .993-.14 1.364-.42.371-.284.653-.676.847-1.176.193-.504.289-1.086.289-1.745 0-.651-.094-1.221-.284-1.71-.189-.492-.469-.875-.841-1.148-.371-.276-.829-.414-1.375-.414-.568 0-1.041.145-1.42.437-.375.288-.657.68-.847 1.176a4.694 4.694 0 0 0-.278 1.659c0 .622.095 1.186.284 1.694.193.503.477.905.852 1.204.379.296.849.443 1.409.443Zm10.12 1.205c-.841 0-1.567-.186-2.176-.557a3.744 3.744 0 0 1-1.404-1.568c-.326-.674-.488-1.459-.488-2.352 0-.894.162-1.682.488-2.364.33-.686.788-1.22 1.375-1.602.591-.387 1.28-.58 2.068-.58.455 0 .904.076 1.347.227.443.152.847.398 1.21.739.364.337.654.784.87 1.341.215.557.323 1.242.323 2.057v.568h-6.727v-1.159h5.364c0-.493-.099-.932-.296-1.318a2.217 2.217 0 0 0-.829-.915c-.356-.224-.777-.335-1.262-.335-.534 0-.996.132-1.386.397a2.625 2.625 0 0 0-.892 1.023 3.01 3.01 0 0 0-.313 1.352v.773c0 .659.114 1.218.341 1.676.231.455.552.801.961 1.04.409.235.884.352 1.426.352.352 0 .67-.049.954-.147.288-.103.536-.254.745-.455.208-.205.369-.458.483-.761l1.295.363c-.136.44-.366.826-.687 1.159a3.35 3.35 0 0 1-1.194.773 4.416 4.416 0 0 1-1.596.273Zm5.653-.182v-8.727h1.296v1.318h.091c.159-.432.446-.782.863-1.051a2.544 2.544 0 0 1 1.409-.404c.099 0 .222.002.37.006.147.004.259.01.335.017v1.364a3.462 3.462 0 0 0-.313-.051 3.014 3.014 0 0 0-.505-.04c-.425 0-.803.089-1.137.267a2.019 2.019 0 0 0-.784.727 1.963 1.963 0 0 0-.284 1.051V317h-1.341Z" fill="#000"/><path d="M750.841 77.16c-.667 0-1.267-.133-1.801-.399a3.346 3.346 0 0 1-1.284-1.09 2.979 2.979 0 0 1-.529-1.58h1.364c.053.526.292.962.716 1.307.428.34.939.511 1.534.511.477 0 .901-.112 1.273-.335.375-.224.668-.53.88-.92a2.73 2.73 0 0 0 .324-1.336c0-.507-.112-.96-.335-1.358a2.464 2.464 0 0 0-.909-.949 2.568 2.568 0 0 0-1.324-.352 3.637 3.637 0 0 0-1.097.165c-.375.11-.683.252-.926.426l-1.318-.16.705-5.726h6.045v1.25h-4.864l-.409 3.431h.069a3.02 3.02 0 0 1 .897-.471c.36-.125.735-.188 1.125-.188.712 0 1.347.17 1.904.512.56.337 1 .799 1.318 1.386.322.587.483 1.258.483 2.011 0 .743-.167 1.406-.5 1.99a3.656 3.656 0 0 1-1.364 1.374c-.579.333-1.238.5-1.977.5Zm6.098-.16v-1.023l3.841-4.204c.451-.493.822-.92 1.113-1.284.292-.368.508-.713.648-1.035.144-.325.216-.666.216-1.022 0-.41-.098-.763-.295-1.063-.194-.299-.459-.53-.796-.693a2.58 2.58 0 0 0-1.136-.244c-.447 0-.837.093-1.171.278a1.92 1.92 0 0 0-.767.767c-.178.33-.267.716-.267 1.16h-1.341c0-.683.158-1.28.472-1.796a3.271 3.271 0 0 1 1.284-1.205 3.871 3.871 0 0 1 1.835-.431c.682 0 1.286.144 1.813.431.526.288.939.677 1.238 1.165.3.489.449 1.032.449 1.63 0 .429-.077.847-.233 1.257-.151.405-.416.858-.795 1.358-.375.496-.896 1.102-1.563 1.818l-2.613 2.795v.091h5.409V77h-7.341Zm10.687.09c-.28 0-.52-.1-.721-.3a.983.983 0 0 1-.301-.722c0-.28.1-.52.301-.721a.984.984 0 0 1 .721-.301c.281 0 .521.1.722.3.201.201.301.442.301.722a.96.96 0 0 1-.142.511c-.091.156-.214.28-.369.376a.976.976 0 0 1-.512.136Zm3.407-.09v-1.023l3.841-4.204c.45-.493.822-.92 1.113-1.284.292-.368.508-.713.648-1.035.144-.325.216-.666.216-1.022 0-.41-.099-.763-.296-1.063-.193-.299-.458-.53-.795-.693a2.58 2.58 0 0 0-1.136-.244c-.447 0-.838.093-1.171.278a1.92 1.92 0 0 0-.767.767c-.178.33-.267.716-.267 1.16h-1.341c0-.683.157-1.28.472-1.796a3.271 3.271 0 0 1 1.284-1.205c.545-.287 1.157-.431 1.835-.431.682 0 1.286.144 1.813.431.526.288.939.677 1.238 1.165.299.489.449 1.032.449 1.63 0 .429-.078.847-.233 1.257-.151.405-.417.858-.795 1.358-.375.496-.896 1.102-1.563 1.818l-2.614 2.795v.091h5.41V77h-7.341Zm15.619-2.182v-.614c0-.424.087-.812.261-1.164.178-.356.436-.64.773-.853.341-.215.754-.323 1.239-.323.492 0 .905.108 1.238.323.334.213.586.497.756.853.17.352.256.74.256 1.164v.614c0 .424-.087.815-.262 1.17a2.06 2.06 0 0 1-.761.853c-.333.212-.742.318-1.227.318-.493 0-.907-.106-1.245-.318a2.11 2.11 0 0 1-.767-.852 2.63 2.63 0 0 1-.261-1.17Zm1.159-.614v.614c0 .353.083.669.25.949.167.277.455.415.864.415.397 0 .678-.138.841-.415.166-.28.25-.596.25-.949v-.614c0-.352-.08-.666-.239-.943-.159-.28-.443-.42-.852-.42-.398 0-.684.14-.858.42-.171.277-.256.591-.256.944Zm-6.954-6.045v-.614c0-.424.087-.812.261-1.164.178-.356.436-.64.773-.853.341-.216.753-.324 1.238-.324.493 0 .906.109 1.239.324.333.212.585.497.756.853.17.352.255.74.255 1.165v.613c0 .424-.087.814-.261 1.17a2.067 2.067 0 0 1-.761.853c-.334.212-.743.318-1.228.318-.492 0-.907-.106-1.244-.318a2.103 2.103 0 0 1-.767-.853 2.63 2.63 0 0 1-.261-1.17Zm1.159-.614v.614c0 .352.083.669.25.949.166.276.454.415.863.415.398 0 .678-.138.841-.415.167-.28.25-.597.25-.949v-.614c0-.352-.079-.666-.238-.943-.16-.28-.444-.42-.853-.42-.397 0-.683.14-.858.42-.17.277-.255.591-.255.944ZM781.288 77l8-11.636h1.296l-8 11.636h-1.296ZM482.295 113.364V125h-1.409v-10.159h-.068l-2.841 1.886v-1.432l2.909-1.931h1.409Zm3.074 9.25v-1.159l5.114-8.091h.841v1.795h-.568l-3.864 6.114v.091h6.886v1.25h-8.409Zm5.478 2.386V113.364h1.341V125h-1.341Zm5.514.091a.983.983 0 0 1-.722-.301.985.985 0 0 1-.301-.722c0-.28.1-.521.301-.721a.984.984 0 0 1 .722-.302c.28 0 .521.101.721.302.201.2.302.441.302.721a.965.965 0 0 1-.143.512 1.06 1.06 0 0 1-.369.375.981.981 0 0 1-.511.136Zm6.808.068c-.667 0-1.267-.132-1.801-.398a3.337 3.337 0 0 1-1.284-1.091 2.976 2.976 0 0 1-.529-1.579h1.364c.053.526.292.962.716 1.307.428.341.939.511 1.534.511.477 0 .902-.112 1.273-.335.375-.224.668-.53.88-.921a2.73 2.73 0 0 0 .324-1.335c0-.507-.111-.96-.335-1.358a2.468 2.468 0 0 0-.909-.949 2.571 2.571 0 0 0-1.324-.352 3.616 3.616 0 0 0-1.096.165 3.07 3.07 0 0 0-.927.426l-1.318-.159.705-5.727h6.045v1.25h-4.863l-.41 3.431h.069c.238-.189.538-.346.897-.471.36-.125.735-.188 1.125-.188.713 0 1.347.171 1.904.512.56.337 1 .799 1.318 1.386.322.587.483 1.258.483 2.011 0 .743-.167 1.406-.5 1.989a3.652 3.652 0 0 1-1.364 1.375c-.579.333-1.238.5-1.977.5Zm12.03-2.341v-.613c0-.425.087-.813.261-1.165.178-.356.436-.64.773-.852.341-.216.754-.324 1.239-.324.492 0 .905.108 1.238.324.334.212.585.496.756.852.17.352.256.74.256 1.165v.613c0 .424-.088.815-.262 1.171-.17.352-.424.636-.761.852-.333.212-.743.318-1.227.318-.493 0-.908-.106-1.245-.318a2.105 2.105 0 0 1-.767-.852 2.633 2.633 0 0 1-.261-1.171Zm1.159-.613v.613c0 .352.083.669.25.949.167.277.455.415.864.415.397 0 .678-.138.84-.415.167-.28.25-.597.25-.949v-.613a1.86 1.86 0 0 0-.238-.944c-.159-.28-.443-.42-.852-.42-.398 0-.684.14-.858.42a1.758 1.758 0 0 0-.256.944Zm-6.955-6.046v-.614c0-.424.088-.812.262-1.164.178-.356.435-.64.773-.853.34-.216.753-.323 1.238-.323.493 0 .905.107 1.239.323.333.213.585.497.755.853.171.352.256.74.256 1.164v.614c0 .424-.087.814-.261 1.171a2.065 2.065 0 0 1-.762.852c-.333.212-.742.318-1.227.318-.492 0-.907-.106-1.244-.318a2.105 2.105 0 0 1-.767-.852 2.636 2.636 0 0 1-.262-1.171Zm1.159-.614v.614c0 .352.084.669.25.949.167.276.455.415.864.415.398 0 .678-.139.841-.415.167-.28.25-.597.25-.949v-.614a1.85 1.85 0 0 0-.239-.943c-.159-.28-.443-.42-.852-.42-.398 0-.684.14-.858.42-.17.277-.256.591-.256.943Zm-.727 9.455 8-11.636h1.296l-8 11.636h-1.296ZM406.136 221.159c-.75 0-1.418-.129-2.005-.386-.584-.258-1.048-.616-1.392-1.074a2.883 2.883 0 0 1-.557-1.608h1.432c.03.375.159.699.386.971.227.269.525.478.892.626.367.147.775.221 1.222.221.5 0 .943-.087 1.329-.261.387-.175.69-.417.909-.728.22-.31.33-.67.33-1.079 0-.428-.106-.805-.318-1.131-.212-.329-.523-.587-.932-.772-.409-.186-.909-.279-1.5-.279H405v-1.25h.932c.462 0 .867-.083 1.216-.25.352-.167.627-.401.824-.704.2-.303.301-.66.301-1.069a1.96 1.96 0 0 0-.262-1.028 1.785 1.785 0 0 0-.738-.682c-.315-.163-.686-.244-1.114-.244-.401 0-.78.074-1.136.221-.353.144-.64.355-.864.631a1.646 1.646 0 0 0-.364.989h-1.363c.023-.61.206-1.144.551-1.603a3.464 3.464 0 0 1 1.352-1.079 4.364 4.364 0 0 1 1.847-.386c.72 0 1.337.145 1.852.437a3.09 3.09 0 0 1 1.188 1.142c.276.474.414.985.414 1.534 0 .655-.172 1.214-.517 1.676a2.623 2.623 0 0 1-1.392.961v.09c.735.122 1.309.434 1.722.938.413.5.619 1.119.619 1.858 0 .632-.172 1.201-.517 1.704-.341.5-.807.894-1.398 1.182-.59.288-1.263.432-2.017.432Zm6.897-.068a.983.983 0 0 1-.722-.301.985.985 0 0 1-.301-.722c0-.28.1-.521.301-.721a.984.984 0 0 1 .722-.302c.28 0 .521.101.721.302.201.2.301.441.301.721a.964.964 0 0 1-.142.512c-.091.155-.214.28-.369.375a.981.981 0 0 1-.511.136Zm6.863.068a4.327 4.327 0 0 1-1.432-.273 3.423 3.423 0 0 1-1.306-.88c-.394-.417-.711-.979-.949-1.688-.239-.712-.358-1.606-.358-2.682 0-1.03.096-1.943.29-2.738.193-.8.473-1.472.841-2.017.367-.55.81-.966 1.329-1.25.523-.284 1.112-.426 1.767-.426.652 0 1.231.13 1.739.392.511.257.928.617 1.25 1.079.322.462.53.994.625 1.597h-1.387a2.555 2.555 0 0 0-.75-1.301c-.371-.345-.863-.517-1.477-.517-.901 0-1.612.392-2.131 1.176-.515.784-.774 1.884-.778 3.301h.091a3.407 3.407 0 0 1 2.864-1.546 3.48 3.48 0 0 1 1.829.5 3.7 3.7 0 0 1 1.33 1.37c.333.579.5 1.244.5 1.994 0 .72-.161 1.379-.483 1.977a3.685 3.685 0 0 1-1.358 1.421c-.58.348-1.262.519-2.046.511Zm0-1.25c.478 0 .906-.119 1.284-.358.383-.239.684-.559.904-.96.223-.402.335-.849.335-1.341a2.68 2.68 0 0 0-.324-1.312 2.462 2.462 0 0 0-.881-.949 2.326 2.326 0 0 0-1.272-.353c-.36 0-.695.072-1.006.216-.311.14-.583.334-.818.58a2.807 2.807 0 0 0-.546.846 2.7 2.7 0 0 0 .125 2.29c.22.402.519.726.898.972.383.246.816.369 1.301.369Zm12.053-1.091v-.613c0-.425.087-.813.261-1.165.178-.356.436-.64.773-.852.341-.216.754-.324 1.239-.324.492 0 .905.108 1.238.324.334.212.585.496.756.852.17.352.256.74.256 1.165v.613c0 .424-.088.815-.262 1.171-.17.352-.424.636-.761.852-.333.212-.743.318-1.227.318-.493 0-.908-.106-1.245-.318a2.105 2.105 0 0 1-.767-.852 2.633 2.633 0 0 1-.261-1.171Zm1.159-.613v.613c0 .352.083.669.25.949.167.277.455.415.864.415.397 0 .678-.138.84-.415.167-.28.25-.597.25-.949v-.613a1.86 1.86 0 0 0-.238-.944c-.159-.28-.443-.42-.852-.42-.398 0-.684.14-.858.42a1.758 1.758 0 0 0-.256.944Zm-6.955-6.046v-.614c0-.424.088-.812.262-1.164.178-.356.435-.64.773-.853.34-.216.753-.323 1.238-.323.493 0 .905.107 1.239.323.333.213.585.497.755.853.171.352.256.74.256 1.164v.614c0 .424-.087.814-.261 1.171a2.065 2.065 0 0 1-.762.852c-.333.212-.742.318-1.227.318-.492 0-.907-.106-1.244-.318a2.105 2.105 0 0 1-.767-.852 2.636 2.636 0 0 1-.262-1.171Zm1.159-.614v.614c0 .352.084.669.25.949.167.276.455.415.864.415.398 0 .678-.139.841-.415.167-.28.25-.597.25-.949v-.614a1.85 1.85 0 0 0-.239-.943c-.159-.28-.443-.42-.852-.42-.398 0-.684.14-.858.42-.17.277-.256.591-.256.943Zm-.727 9.455 8-11.636h1.296l-8 11.636h-1.296ZM482.295 161.364V173h-1.409v-10.159h-.068l-2.841 1.886v-1.432l2.909-1.931h1.409Zm3.074 9.25v-1.159l5.114-8.091h.841v1.795h-.568l-3.864 6.114v.091h6.886v1.25h-8.409Zm5.478 2.386V161.364h1.341V173h-1.341Zm5.514.091a.983.983 0 0 1-.722-.301.985.985 0 0 1-.301-.722c0-.28.1-.521.301-.721a.984.984 0 0 1 .722-.302c.28 0 .521.101.721.302.201.2.302.441.302.721a.965.965 0 0 1-.143.512 1.06 1.06 0 0 1-.369.375.981.981 0 0 1-.511.136Zm6.808.068c-.667 0-1.267-.132-1.801-.398a3.337 3.337 0 0 1-1.284-1.091 2.976 2.976 0 0 1-.529-1.579h1.364c.053.526.292.962.716 1.307.428.341.939.511 1.534.511.477 0 .902-.112 1.273-.335.375-.224.668-.53.88-.921a2.73 2.73 0 0 0 .324-1.335c0-.507-.111-.96-.335-1.358a2.468 2.468 0 0 0-.909-.949 2.571 2.571 0 0 0-1.324-.352 3.616 3.616 0 0 0-1.096.165 3.07 3.07 0 0 0-.927.426l-1.318-.159.705-5.727h6.045v1.25h-4.863l-.41 3.431h.069c.238-.189.538-.346.897-.471.36-.125.735-.188 1.125-.188.713 0 1.347.171 1.904.512.56.337 1 .799 1.318 1.386.322.587.483 1.258.483 2.011 0 .743-.167 1.406-.5 1.989a3.652 3.652 0 0 1-1.364 1.375c-.579.333-1.238.5-1.977.5Zm12.03-2.341v-.613c0-.425.087-.813.261-1.165.178-.356.436-.64.773-.852.341-.216.754-.324 1.239-.324.492 0 .905.108 1.238.324.334.212.585.496.756.852.17.352.256.74.256 1.165v.613c0 .424-.088.815-.262 1.171-.17.352-.424.636-.761.852-.333.212-.743.318-1.227.318-.493 0-.908-.106-1.245-.318a2.105 2.105 0 0 1-.767-.852 2.633 2.633 0 0 1-.261-1.171Zm1.159-.613v.613c0 .352.083.669.25.949.167.277.455.415.864.415.397 0 .678-.138.84-.415.167-.28.25-.597.25-.949v-.613a1.86 1.86 0 0 0-.238-.944c-.159-.28-.443-.42-.852-.42-.398 0-.684.14-.858.42a1.758 1.758 0 0 0-.256.944Zm-6.955-6.046v-.614c0-.424.088-.812.262-1.164.178-.356.435-.64.773-.853.34-.216.753-.323 1.238-.323.493 0 .905.107 1.239.323.333.213.585.497.755.853.171.352.256.74.256 1.164v.614c0 .424-.087.814-.261 1.171a2.065 2.065 0 0 1-.762.852c-.333.212-.742.318-1.227.318-.492 0-.907-.106-1.244-.318a2.105 2.105 0 0 1-.767-.852 2.636 2.636 0 0 1-.262-1.171Zm1.159-.614v.614c0 .352.084.669.25.949.167.276.455.415.864.415.398 0 .678-.139.841-.415.167-.28.25-.597.25-.949v-.614a1.85 1.85 0 0 0-.239-.943c-.159-.28-.443-.42-.852-.42-.398 0-.684.14-.858.42-.17.277-.256.591-.256.943Zm-.727 9.455 8-11.636h1.296l-8 11.636h-1.296ZM405.136 269.159c-.75 0-1.418-.129-2.005-.386-.584-.258-1.048-.616-1.392-1.074a2.883 2.883 0 0 1-.557-1.608h1.432c.03.375.159.699.386.971.227.269.525.478.892.626.367.147.775.221 1.222.221.5 0 .943-.087 1.329-.261.387-.175.69-.417.909-.728.22-.31.33-.67.33-1.079 0-.428-.106-.805-.318-1.131-.212-.329-.523-.587-.932-.772-.409-.186-.909-.279-1.5-.279H404v-1.25h.932c.462 0 .867-.083 1.216-.25.352-.167.627-.401.824-.704.2-.303.301-.66.301-1.069a1.96 1.96 0 0 0-.262-1.028 1.785 1.785 0 0 0-.738-.682c-.315-.163-.686-.244-1.114-.244-.401 0-.78.074-1.136.221-.353.144-.64.355-.864.631a1.646 1.646 0 0 0-.364.989h-1.363c.023-.61.206-1.144.551-1.603a3.464 3.464 0 0 1 1.352-1.079 4.364 4.364 0 0 1 1.847-.386c.72 0 1.337.145 1.852.437a3.09 3.09 0 0 1 1.188 1.142c.276.474.414.985.414 1.534 0 .655-.172 1.214-.517 1.676a2.623 2.623 0 0 1-1.392.961v.09c.735.122 1.309.434 1.722.938.413.5.619 1.119.619 1.858 0 .632-.172 1.201-.517 1.704-.341.5-.807.894-1.398 1.182-.59.288-1.263.432-2.017.432Zm6.897-.068a.983.983 0 0 1-.722-.301.985.985 0 0 1-.301-.722c0-.28.1-.521.301-.721a.984.984 0 0 1 .722-.302c.28 0 .521.101.721.302.201.2.301.441.301.721a.964.964 0 0 1-.142.512c-.091.155-.214.28-.369.375a.981.981 0 0 1-.511.136Zm6.863.068a4.327 4.327 0 0 1-1.432-.273 3.423 3.423 0 0 1-1.306-.88c-.394-.417-.711-.979-.949-1.688-.239-.712-.358-1.606-.358-2.682 0-1.03.096-1.943.29-2.738.193-.8.473-1.472.841-2.017.367-.55.81-.966 1.329-1.25.523-.284 1.112-.426 1.767-.426.652 0 1.231.13 1.739.392.511.257.928.617 1.25 1.079.322.462.53.994.625 1.597h-1.387a2.555 2.555 0 0 0-.75-1.301c-.371-.345-.863-.517-1.477-.517-.901 0-1.612.392-2.131 1.176-.515.784-.774 1.884-.778 3.301h.091a3.407 3.407 0 0 1 2.864-1.546 3.48 3.48 0 0 1 1.829.5 3.7 3.7 0 0 1 1.33 1.37c.333.579.5 1.244.5 1.994 0 .72-.161 1.379-.483 1.977a3.685 3.685 0 0 1-1.358 1.421c-.58.348-1.262.519-2.046.511Zm0-1.25c.478 0 .906-.119 1.284-.358.383-.239.684-.559.904-.96.223-.402.335-.849.335-1.341a2.68 2.68 0 0 0-.324-1.312 2.462 2.462 0 0 0-.881-.949 2.326 2.326 0 0 0-1.272-.353c-.36 0-.695.072-1.006.216-.311.14-.583.334-.818.58a2.807 2.807 0 0 0-.546.846 2.7 2.7 0 0 0 .125 2.29c.22.402.519.726.898.972.383.246.816.369 1.301.369Zm12.053-1.091v-.613c0-.425.087-.813.261-1.165.178-.356.436-.64.773-.852.341-.216.754-.324 1.239-.324.492 0 .905.108 1.238.324.334.212.585.496.756.852.17.352.256.74.256 1.165v.613c0 .424-.088.815-.262 1.171-.17.352-.424.636-.761.852-.333.212-.743.318-1.227.318-.493 0-.908-.106-1.245-.318a2.105 2.105 0 0 1-.767-.852 2.633 2.633 0 0 1-.261-1.171Zm1.159-.613v.613c0 .352.083.669.25.949.167.277.455.415.864.415.397 0 .678-.138.84-.415.167-.28.25-.597.25-.949v-.613a1.86 1.86 0 0 0-.238-.944c-.159-.28-.443-.42-.852-.42-.398 0-.684.14-.858.42a1.758 1.758 0 0 0-.256.944Zm-6.955-6.046v-.614c0-.424.088-.812.262-1.164.178-.356.435-.64.773-.853.34-.216.753-.323 1.238-.323.493 0 .905.107 1.239.323.333.213.585.497.755.853.171.352.256.74.256 1.164v.614c0 .424-.087.814-.261 1.171a2.065 2.065 0 0 1-.762.852c-.333.212-.742.318-1.227.318-.492 0-.907-.106-1.244-.318a2.105 2.105 0 0 1-.767-.852 2.636 2.636 0 0 1-.262-1.171Zm1.159-.614v.614c0 .352.084.669.25.949.167.276.455.415.864.415.398 0 .678-.139.841-.415.167-.28.25-.597.25-.949v-.614a1.85 1.85 0 0 0-.239-.943c-.159-.28-.443-.42-.852-.42-.398 0-.684.14-.858.42-.17.277-.256.591-.256.943Zm-.727 9.455 8-11.636h1.296l-8 11.636h-1.296ZM384 317.159c-.856 0-1.585-.233-2.188-.699-.602-.469-1.062-1.149-1.38-2.04-.318-.893-.477-1.973-.477-3.238 0-1.258.159-2.332.477-3.222.322-.894.784-1.576 1.386-2.045.606-.474 1.334-.71 2.182-.71.848 0 1.574.236 2.176.71.606.469 1.068 1.151 1.386 2.045.322.89.483 1.964.483 3.222 0 1.265-.159 2.345-.477 3.238-.318.891-.778 1.571-1.38 2.04-.603.466-1.332.699-2.188.699Zm0-1.25c.848 0 1.508-.409 1.977-1.227.47-.818.705-1.985.705-3.5 0-1.008-.108-1.866-.324-2.574-.212-.708-.519-1.248-.92-1.619a2.03 2.03 0 0 0-1.438-.557c-.841 0-1.498.415-1.972 1.244-.473.826-.71 1.994-.71 3.506 0 1.007.106 1.863.318 2.568.212.705.517 1.241.915 1.608.402.367.885.551 1.449.551Zm6.798 1.182c-.28 0-.521-.1-.721-.301a.985.985 0 0 1-.301-.722c0-.28.1-.521.301-.721a.982.982 0 0 1 .721-.302c.281 0 .521.101.722.302.201.2.301.441.301.721a.964.964 0 0 1-.142.512c-.091.155-.214.28-.369.375a.985.985 0 0 1-.512.136Zm3.536-.091 5.204-10.295v-.091h-6v-1.25h7.455v1.318L395.811 317h-1.477Zm14.709-2.182v-.613c0-.425.087-.813.261-1.165.178-.356.436-.64.773-.852.341-.216.753-.324 1.238-.324.493 0 .906.108 1.239.324.333.212.585.496.756.852.17.352.255.74.255 1.165v.613c0 .424-.087.815-.261 1.171-.17.352-.424.636-.761.852-.334.212-.743.318-1.228.318-.492 0-.907-.106-1.244-.318a2.105 2.105 0 0 1-.767-.852 2.633 2.633 0 0 1-.261-1.171Zm1.159-.613v.613c0 .352.083.669.25.949.166.277.454.415.863.415.398 0 .678-.138.841-.415.167-.28.25-.597.25-.949v-.613a1.86 1.86 0 0 0-.238-.944c-.159-.28-.444-.42-.853-.42-.397 0-.683.14-.858.42-.17.277-.255.591-.255.944Zm-6.955-6.046v-.614c0-.424.087-.812.262-1.164.178-.356.435-.64.772-.853.341-.216.754-.323 1.239-.323.492 0 .905.107 1.239.323.333.213.585.497.755.853.171.352.256.74.256 1.164v.614c0 .424-.087.814-.261 1.171a2.071 2.071 0 0 1-.762.852c-.333.212-.742.318-1.227.318-.493 0-.907-.106-1.244-.318a2.098 2.098 0 0 1-.767-.852 2.623 2.623 0 0 1-.262-1.171Zm1.159-.614v.614c0 .352.084.669.25.949.167.276.455.415.864.415.398 0 .678-.139.841-.415.166-.28.25-.597.25-.949v-.614c0-.352-.08-.666-.239-.943-.159-.28-.443-.42-.852-.42-.398 0-.684.14-.858.42a1.757 1.757 0 0 0-.256.943Zm-.727 9.455 8-11.636h1.295l-8 11.636h-1.295ZM354 52h372v38H354zM354 100h103v38H354zM354 148h103v38H354zM354 196h26v38h-26zM354 244h26v38h-26zM354 292h5v38h-5z" fill="#7542E5"/><path d="M354 52v278M354 52v278" stroke="#CCD6EB"/></svg>
