<svg width="50" height="59" fill="none" xmlns="http://www.w3.org/2000/svg"><path d="M7.745 52.483 1.575 6.215a1.608 1.608 0 0 1 1.595-1.82h43.65c.96 0 1.705.833 1.6 1.785l-5.141 46.268a1.608 1.608 0 0 1-1.599 1.43H9.34a1.608 1.608 0 0 1-1.594-1.395Z" fill="#333336" stroke="#F8F6F4" stroke-width="1.8"/><ellipse cx="24.973" cy="4.943" rx="23.642" ry="3.299" fill="#333336" stroke="#F8F6F4" stroke-width="1.8"/><ellipse cx="25.523" cy="54.153" rx="17.594" ry="3.024" fill="#333336" stroke="#F8F6F4" stroke-width="1.8"/><path d="M12.074 30.15c0-7.166 5.809-12.974 12.974-12.974s12.974 5.808 12.974 12.974c0 7.165-5.809 12.973-12.974 12.973S12.074 37.315 12.074 30.15Z" stroke="#F8F6F4" stroke-width="1.8"/><path d="M18.361 30.543c0-3.91 2.994-7.08 6.686-7.08 3.693 0 6.686 3.17 6.686 7.08M27.285 34.176v-1.79M22.811 34.176v-1.79" stroke="#F8F6F4" stroke-width="1.8" stroke-linecap="round"/></svg>
