<svg width="307" height="49" viewBox="0 0 307 49" fill="none" xmlns="http://www.w3.org/2000/svg"><path d="M18.763 38.845C8.235 38.845.866 30.805.866 20.9c0-10.193 7.752-17.945 17.897-17.945 6.699 0 12.393 3.494 15.504 8.71l-5.934 3.732c-1.866-3.589-5.168-5.838-9.522-5.838-6.413 0-11.102 5.025-11.102 11.341 0 6.173 4.641 11.245 11.006 11.245 4.785 0 8.183-2.68 9.905-6.46l6.173 3.302c-2.967 5.838-8.709 9.858-16.03 9.858Zm19.054-.479V.658h6.603v37.708h-6.603Zm10.819 0v-25.84h6.747v25.84h-6.747Zm-.861-33.114c0-2.488 1.77-4.307 4.21-4.307 2.537 0 4.26 1.819 4.26 4.307 0 2.44-1.723 4.211-4.26 4.211-2.488 0-4.21-1.77-4.21-4.21Zm24.597 33.64c-7.752 0-13.59-5.933-13.59-13.446 0-7.609 5.886-13.447 13.542-13.447 5.982 0 10.575 3.302 12.585 8.183l-6.077 2.44c-1.053-2.775-3.445-4.45-6.412-4.45-3.972 0-7.082 3.254-7.082 7.274 0 3.924 3.158 7.178 7.13 7.178 3.062 0 5.359-1.866 6.412-4.498l6.173 2.536c-2.201 4.785-6.508 8.23-12.681 8.23Zm33.462-.526-7.321-10.67-3.972 4.45v6.22h-6.556V.658h6.556v23.879l10.48-12.011h7.895l-9.714 11.006 10.193 14.834h-7.561Zm9.467 0v-25.84h6.747v25.84h-6.747Zm-.862-33.114c0-2.488 1.771-4.307 4.211-4.307 2.536 0 4.259 1.819 4.259 4.307 0 2.44-1.723 4.211-4.259 4.211-2.488 0-4.211-1.77-4.211-4.21Zm10.339 13.112v-5.838h4.785V6.927l6.508-3.828v9.427h6.795v5.838h-6.795v10.623c0 2.728 1.148 3.685 2.823 3.685.909 0 1.627-.287 2.393-.957l3.014 5.168c-1.674 1.244-3.78 1.962-6.173 1.962-5.407 0-8.565-2.584-8.565-9.619V18.364h-4.785Zm24.477 30.243c-2.727 0-5.455-1.005-7.369-2.393l3.828-5.36c.909.958 2.01 1.58 3.493 1.58 2.345 0 3.781-1.053 5.073-4.116l.431-1.052-10.385-24.74h7.035l6.699 16.652 6.365-16.652h6.89l-11.149 27.228c-2.68 6.604-5.455 8.853-10.911 8.853Zm52.071-9.762c-10.528 0-17.897-8.04-17.897-17.945 0-10.193 7.752-17.945 17.897-17.945 6.699 0 12.394 3.494 15.504 8.71l-5.933 3.732c-1.867-3.589-5.168-5.838-9.523-5.838-6.412 0-11.102 5.025-11.102 11.341 0 6.173 4.642 11.245 11.006 11.245 4.785 0 8.183-2.68 9.906-6.46l6.173 3.302c-2.967 5.838-8.709 9.858-16.031 9.858Zm19.054-.479V.658h6.604v37.708h-6.604Zm10.819 0v-25.84h6.747v25.84h-6.747Zm-.861-33.114c0-2.488 1.77-4.307 4.211-4.307 2.536 0 4.259 1.819 4.259 4.307 0 2.44-1.723 4.211-4.259 4.211-2.488 0-4.211-1.77-4.211-4.21Zm24.597 33.64c-7.752 0-13.59-5.933-13.59-13.446 0-7.609 5.886-13.447 13.542-13.447 5.982 0 10.576 3.302 12.586 8.183l-6.078 2.44c-1.052-2.775-3.445-4.45-6.412-4.45-3.972 0-7.082 3.254-7.082 7.274 0 3.924 3.158 7.178 7.13 7.178 3.063 0 5.359-1.866 6.412-4.498l6.173 2.536c-2.201 4.785-6.508 8.23-12.681 8.23Zm33.463-.526-7.322-10.67-3.972 4.45v6.22h-6.555V.658h6.555v23.879l10.48-12.011h7.896l-9.714 11.006 10.192 14.834h-7.56Zm11.752-10.719c-.91-5.55-1.484-12.106-1.484-18.519V3.434h6.747v5.694c0 6.412-.574 12.92-1.435 18.52h-3.828Zm-2.297 7.178c0-2.44 1.722-4.21 4.163-4.21 2.488 0 4.211 1.77 4.211 4.21s-1.723 4.211-4.211 4.211c-2.488 0-4.163-1.77-4.163-4.21Z" fill="#000"/></svg>
