<svg width="57" height="57" viewBox="0 0 57 57" fill="none" xmlns="http://www.w3.org/2000/svg"><circle cx="28.5" cy="28.5" r="27.9" fill="#FF4F5F" stroke="#333336" stroke-width="1.2"/><path fill-rule="evenodd" clip-rule="evenodd" d="M40.574 17A2.426 2.426 0 0 1 43 19.426V35.3a2.426 2.426 0 0 1-2.426 2.426h-4.143c-.1 0-.182.08-.184.18l-.148 6.168a.184.184 0 0 1-.331.105L31.02 37.8a.184.184 0 0 0-.147-.073H16.426A2.426 2.426 0 0 1 14 35.3V19.426A2.426 2.426 0 0 1 16.426 17h24.148Z" fill="#FFD567"/><path d="m31.021 37.8-.481.358.481-.358Zm5.078 6.274-.6-.015.6.015Zm.148-6.169.6.014-.6-.014Zm6.153-18.48a1.826 1.826 0 0 0-1.826-1.825v-1.2a3.026 3.026 0 0 1 3.026 3.026h-1.2Zm0 15.875V19.426h1.2V35.3h-1.2Zm-1.826 1.826A1.826 1.826 0 0 0 42.4 35.3h1.2a3.026 3.026 0 0 1-3.026 3.026v-1.2Zm-4.143 0h4.143v1.2h-4.143v-1.2Zm-.932 6.933.148-6.168 1.2.029-.148 6.168-1.2-.029Zm-3.996-6.617 4.746 6.379-.963.716-4.746-6.379.963-.716Zm-15.077-.316h14.448v1.2H16.426v-1.2ZM14.6 35.3c0 1.008.818 1.826 1.826 1.826v1.2A3.026 3.026 0 0 1 13.4 35.3h1.2Zm0-15.874V35.3h-1.2V19.426h1.2Zm1.826-1.826a1.826 1.826 0 0 0-1.826 1.826h-1.2a3.026 3.026 0 0 1 3.026-3.026v1.2Zm24.148 0H16.426v-1.2h24.148v1.2ZM30.54 38.158a.416.416 0 0 0 .334.168v-1.2c.248 0 .48.117.629.316l-.963.716Zm6.159 5.93c-.018.745-.968 1.047-1.413.45l.963-.717a.416.416 0 0 0-.75.238l1.2.03Zm-.268-5.762c.226 0 .41-.18.416-.407l-1.2-.028a.784.784 0 0 1 .784-.765v1.2Z" fill="#333336"/><path d="M33.554 22.95a3.668 3.668 0 0 0-5.247 0 .24.24 0 0 1-.341 0 3.684 3.684 0 0 0-2.624-1.102c-.985 0-1.929.397-2.623 1.101a3.773 3.773 0 0 0-1.083 2.649c0 .992.389 1.945 1.083 2.649l.598.607 3.68 3.732a1.6 1.6 0 0 0 2.279 0l3.68-3.732.598-.607s0 0 0 0c.344-.349.617-.762.802-1.216a3.789 3.789 0 0 0-.802-4.082Z" stroke="#333336" stroke-width="1.2" stroke-linecap="round" stroke-linejoin="round"/></svg>
