<svg width="57" height="57" fill="none" xmlns="http://www.w3.org/2000/svg"><circle cx="28.5" cy="28.5" r="27.9" fill="#FFD567" stroke="#333336" stroke-width="1.2"/><path d="M38.24 37.76a.6.6 0 0 0 .848-.849l-.848.849Zm3.938-17.365a.6.6 0 0 0-.6-.6h-5.4a.6.6 0 0 0 0 1.2h4.8v4.8a.6.6 0 0 0 1.2 0v-5.4Zm-3.09 16.516L26.804 24.627l-.849.848L38.24 37.76l.848-.849ZM27.02 35.803 42.002 20.82l-.849-.849L26.17 34.954l.849.849Zm-11.284-.037c3.102 3.102 8.174 3.146 11.284.037l-.849-.849c-2.633 2.633-6.945 2.605-9.586-.036l-.849.848Zm-.035-11.14c-3.07 3.07-3.027 8.078.035 11.14l.849-.848c-2.602-2.602-2.63-6.849-.036-9.443l-.848-.848Zm11.104 0a7.852 7.852 0 0 0-11.104 0l.848.85a6.652 6.652 0 0 1 9.407 0l.849-.85Z" fill="#333336"/></svg>
