<svg width="57" height="57" fill="none" xmlns="http://www.w3.org/2000/svg"><circle cx="28.5" cy="28.5" r="27.9" fill="#FF834D" stroke="#333336" stroke-width="1.2"/><path fill-rule="evenodd" clip-rule="evenodd" d="M15.525 25.193a.816.816 0 0 0-.144-1.049c-1.232-1.123-2.604-1.362-4.104-.806-.924.343-.48 2 .446 2.34l.077.028c1.472.54 2.732 1.002 3.725-.513Zm16.614-7.006c-1.91.407-3.638 1.439-5.108 2.756-.375.335-.02.964.481.926a8.449 8.449 0 0 1 1.116-.01c.648.038 1.313.157 1.85.519.538.362.922 1.01.813 1.65-.113.668-.734 1.162-1.394 1.322-.659.161-1.351.048-2.015-.098-.467-.103-.932-.223-1.398-.342-1.327-.34-2.655-.682-4.017-.641-1.513.045-3.126.724-3.917 1.952-.22.34.145.706.549.687.728-.034 1.469.171 2.064.594.435.308.81.773.81 1.306 0 .589-.458 1.084-.965 1.384-.77.454-1.69.596-2.584.62-1.655.043-3.289-.282-4.903-.672-.418-.1-.748.328-.499.68a8.112 8.112 0 0 0 3.41 2.752 8.118 8.118 0 0 0 5.432.31c.582-.173 1.142-.41 1.701-.648.55-.234 1.1-.468 1.672-.64 1.153-.348 2.484-.413 3.484.257 1 .67 1.397 2.265.538 3.107-.35.343-.835.511-1.312.626a8.318 8.318 0 0 1-2.39.213c-.482-.027-.801.543-.437.86a9.619 9.619 0 0 0 4.2 2.122 9.587 9.587 0 0 0 3.11.162l.105-.011c.366-.04.87-.096 1.358-.196 5.472-.562 10.331-5.339 10.331-10.923 0-4.318-2.52-8.043-6.156-9.759a.444.444 0 0 0-.09-.062 8.84 8.84 0 0 0-5.284-.903 3.933 3.933 0 0 0-.555.1Z" fill="#FFD567"/><path d="m15.381 24.144.405-.443-.405.443Zm.144 1.049.502.329-.502-.329Zm-4.248-1.855.21.563-.21-.563Zm.446 2.34.207-.564-.207.564Zm.077.028.207-.563-.207.563Zm20.34-7.52.124.587a.493.493 0 0 0 .028-.006l-.153-.58Zm-5.11 2.757-.4-.447.4.447Zm.482.926.045.599-.045-.599Zm1.116-.01.035-.598-.035.599Zm2.663 2.168-.591-.1.591.1Zm-1.394 1.323-.142-.583.142.583Zm-2.015-.098-.13.586h.001l.13-.586Zm-1.398-.342-.19.57a.646.646 0 0 0 .041.011l.15-.581Zm0 0 .19-.57a.63.63 0 0 0-.04-.011l-.15.58Zm-4.017-.641.018.6-.018-.6ZM18.55 26.22l.504.325-.504-.325Zm.549.687-.028-.599.028.6Zm2.064.594-.347.489.347-.49Zm-.155 2.69.305.517-.305-.517Zm-2.584.62-.016-.6.015.6Zm-4.903-.672.141-.583-.14.583Zm-.499.68-.489.347.49-.348Zm3.41 2.752-.234.553.235-.553Zm5.432.31.17.576h.001l-.17-.576Zm1.701-.648-.23-.554-.005.001.235.553Zm0 0 .231.553.004-.001-.235-.552Zm1.672-.64.173.574-.173-.574Zm3.484.257-.334.499.334-.499Zm.538 3.107-.42-.428h-.001l.42.428Zm-1.312.626.14.583-.14-.583Zm-2.39.213-.034.599.034-.6Zm-.437.86.393-.454-.393.453Zm4.2 2.122-.129.586.13-.586Zm3.11.162-.066-.596.066.596Zm.105-.011-.065-.597.065.597Zm1.358-.196-.06-.597a.602.602 0 0 0-.06.01l.12.587Zm4.175-20.682-.398.45c.043.038.09.069.142.093l.256-.543Zm-.09-.062-.275.533.276-.533Zm-5.284-.903.068.596.018-.002-.086-.594Zm-17.717 6.5c.09.082.096.201.046.277l1.004.658a1.416 1.416 0 0 0-.241-1.821l-.809.887Zm-3.49-.686c.665-.247 1.27-.307 1.83-.2.559.107 1.112.387 1.66.887l.809-.887c-.685-.624-1.434-1.024-2.244-1.179-.81-.154-1.64-.055-2.473.254l.417 1.125Zm.442 1.213c-.213-.078-.455-.366-.537-.735a.718.718 0 0 1 0-.378c.021-.058.046-.082.094-.1l-.417-1.125c-.415.154-.68.465-.808.825a1.9 1.9 0 0 0-.04 1.039c.14.63.583 1.34 1.296 1.601l.412-1.127Zm.078.029-.077-.029-.413 1.127.077.029.413-1.127Zm3.016-.279c-.208.318-.409.5-.59.604-.18.102-.372.15-.597.152-.49.005-1.061-.196-1.829-.477l-.413 1.127c.703.257 1.499.558 2.254.55a2.38 2.38 0 0 0 1.182-.312c.38-.218.709-.547.997-.986l-1.004-.658ZM32.014 17.6c-2.04.434-3.859 1.53-5.384 2.896l.801.894c1.416-1.269 3.052-2.237 4.833-2.617l-.25-1.173Zm-5.384 2.896c-.44.394-.419.956-.215 1.334.198.368.618.677 1.142.638l-.09-1.197c.009 0 .015.003.015.003a.035.035 0 0 1-.01-.012c-.003-.006.005.006.002.038a.156.156 0 0 1-.043.09l-.8-.894Zm.927 1.972a7.849 7.849 0 0 1 1.037-.01l.069-1.197a9.032 9.032 0 0 0-1.196.01l.09 1.197Zm1.037-.01c.613.036 1.146.147 1.55.418l.67-.996c-.673-.452-1.469-.58-2.15-.62l-.07 1.199Zm1.55.418c.404.272.613.711.556 1.05l1.183.202c.16-.938-.4-1.796-1.07-2.248l-.67.996Zm.555 1.051c-.06.356-.43.715-.944.84l.285 1.166c.805-.196 1.677-.824 1.843-1.806l-1.184-.2Zm-.944.84c-.513.125-1.085.044-1.744-.101l-.258 1.172c.668.147 1.481.292 2.287.095l-.285-1.166Zm-1.743-.101c-.456-.1-.911-.217-1.379-.337l-.298 1.162c.464.12.94.241 1.418.347l.259-1.172Zm-1.338-.325-.38 1.138.38-1.138Zm-.04-.012c-1.313-.337-2.724-.704-4.185-.66l.036 1.2c1.263-.038 2.508.277 3.85.622l.298-1.162Zm-4.185-.66c-1.643.05-3.473.784-4.403 2.226l1.008.65c.652-1.01 2.048-1.635 3.43-1.676l-.035-1.2Zm-4.403 2.226c-.279.432-.166.9.091 1.197.238.274.609.434.99.416l-.056-1.199a.06.06 0 0 1-.025-.005c-.01-.004-.01-.007-.002.002.008.01.032.041.038.098a.224.224 0 0 1-.028.142l-1.008-.65Zm1.081 1.613c.6-.029 1.208.142 1.689.483l.694-.978a3.92 3.92 0 0 0-2.44-.704l.057 1.199Zm1.689.483c.368.261.557.569.557.817h1.2c0-.818-.561-1.44-1.063-1.796l-.694.98Zm.557.817c0 .271-.232.608-.67.867l.61 1.033c.576-.34 1.26-.993 1.26-1.9h-1.2Zm-.67.867c-.642.379-1.44.515-2.295.537l.031 1.2c.936-.025 1.975-.173 2.874-.703l-.61-1.034Zm-2.295.537c-1.572.041-3.141-.267-4.746-.655l-.282 1.167c1.623.392 3.321.733 5.06.687l-.032-1.2Zm-4.746-.655a1.075 1.075 0 0 0-1.121.394 1.02 1.02 0 0 0-.008 1.216l.978-.695a.18.18 0 0 1-.01.198c-.036.05-.092.06-.12.054l.281-1.167Zm-1.129 1.61a8.714 8.714 0 0 0 3.665 2.958l.47-1.105a7.513 7.513 0 0 1-3.157-2.548l-.978.695Zm3.665 2.958c1.83.778 3.93.898 5.837.333l-.341-1.151a7.518 7.518 0 0 1-5.026-.287l-.47 1.105Zm5.837.332c.62-.184 1.21-.436 1.765-.671l-.47-1.105c-.564.24-1.092.464-1.637.626l.342 1.15Zm1.761-.67-.462-1.107.462 1.107Zm.004-.001c.555-.236 1.075-.457 1.61-.618l-.346-1.149c-.609.184-1.189.43-1.733.662l.469 1.105Zm1.61-.618c1.084-.326 2.197-.341 2.977.182l.668-.997c-1.22-.818-2.769-.702-3.991-.334l.346 1.15Zm2.977.182c.354.238.622.659.711 1.107.089.446-.011.83-.26 1.073l.84.857c.611-.6.742-1.434.597-2.164-.144-.727-.575-1.437-1.22-1.87l-.668.997Zm.45 2.18c-.226.223-.574.361-1.03.47l.28 1.167c.498-.12 1.12-.317 1.592-.78l-.841-.856Zm-1.03.47a7.714 7.714 0 0 1-2.217.198l-.067 1.198a8.914 8.914 0 0 0 2.564-.229L27.807 36Zm-2.217.198a1.17 1.17 0 0 0-1.1.62c-.202.383-.19.921.236 1.291l.787-.906a.132.132 0 0 1 .027.036c.01.02.018.04.02.063a.13.13 0 0 1-.009.077c-.005.01-.014.018-.027.017l.066-1.198Zm-.864 1.911a10.217 10.217 0 0 0 4.465 2.256l.26-1.172a9.018 9.018 0 0 1-3.938-1.99l-.787.906Zm4.466 2.256c1.084.239 2.204.294 3.304.173l-.132-1.193a8.985 8.985 0 0 1-2.914-.152l-.258 1.172Zm3.303.173.106-.012-.131-1.193-.106.012.131 1.193Zm.106-.012c.363-.04.892-.097 1.413-.204l-.241-1.176c-.458.094-.934.147-1.303.187l.13 1.193Zm11.023-11.715c0 5.24-4.588 9.792-9.792 10.326l.123 1.194c5.74-.59 10.869-5.592 10.869-11.52h-1.2Zm-5.813-9.216a10.175 10.175 0 0 1 5.813 9.216h1.2c0-4.557-2.66-8.49-6.5-10.301l-.512 1.085Zm.654-.992a1.044 1.044 0 0 0-.21-.146l-.552 1.066a.225.225 0 0 1-.027-.017l-.006-.004.795-.9Zm-.21-.146a9.44 9.44 0 0 0-5.647-.963l.172 1.187a8.24 8.24 0 0 1 4.923.841l.551-1.065Zm-5.963.31c.129-.034.284-.063.47-.084l-.135-1.192c-.231.026-.445.064-.64.115l.305 1.161Z" fill="#333336"/></svg>
