<svg width="163" height="58" fill="none" xmlns="http://www.w3.org/2000/svg"><path d="M64.5 16.866h14.66v3.963H68.706v5.374H79.16v3.932H68.706v8.647H64.5V16.866Zm19.647-1.53a2.358 2.358 0 0 1 2.433 2.463 2.448 2.448 0 0 1-4.897.06 2.432 2.432 0 0 1 2.463-2.522v-.002Zm-2.073 7.234h4.146v16.212h-4.146V22.57Zm16.162 4.503a3.354 3.354 0 0 0-2.013-.72c-1.682 0-2.644 1.08-2.644 3.452v8.977h-4.115v-16.21h3.935v2.341a3.865 3.865 0 0 1 3.876-2.492 4.922 4.922 0 0 1 2.763.84l-1.802 3.812Zm1.71 3.696a8.287 8.287 0 0 1 2.366-6.035 8.307 8.307 0 0 1 5.985-2.49c4.866 0 8.321 3.451 8.321 8.255v1.71h-12.615c.451 2.042 2.043 3.394 4.476 3.394a4.35 4.35 0 0 0 4.026-2.402l3.454 2.071c-1.711 2.522-4.145 3.842-7.597 3.842-5.26-.004-8.414-3.513-8.414-8.347l-.001.002Zm4.116-1.831h8.533c-.451-2.071-2.133-3.212-4.326-3.212a4.17 4.17 0 0 0-4.206 3.21l-.001.002Zm13.578-6.366h2.915v-.811c0-4.413 1.862-6.244 5.947-6.244h1.445v3.572h-1.172c-1.923 0-2.343.66-2.343 2.67v.81h3.515v3.723h-3.423v12.49h-3.969V26.294h-2.915v-3.722Zm11.088 8.105a8.3 8.3 0 0 1 8.472-8.435 8.436 8.436 0 0 1 0 16.871 8.18 8.18 0 0 1-8.473-8.436h.001Zm12.918 0a4.447 4.447 0 0 0-8.599-1.75 4.448 4.448 0 0 0-.293 1.75 4.449 4.449 0 1 0 8.892 0Zm9.613-.18-5.859-7.925h4.866l3.455 4.983 3.544-4.983h4.777l-5.948 7.895 6.249 8.316h-4.837l-3.876-5.284-3.754 5.283h-4.837l6.22-8.285ZM68.282 54.361c-.947 0-1.575-.455-1.92-1.365h-.332v1.242h-1.058v-8.49h1.255v1.526c0 .381-.037.775-.123 1.55h.332c.32-.861.923-1.28 1.846-1.28 1.588 0 2.547 1.243 2.547 3.409 0 2.165-.972 3.408-2.547 3.408Zm-2.055-3.04c0 1.391.517 2.019 1.637 2.019s1.636-.628 1.636-2.018v-.738c0-1.39-.516-2.018-1.636-2.018-1.12 0-1.637.627-1.637 2.018v.738Zm6.546 4.542.776-1.834-2.486-6.362h1.292l1.674 4.455h.332l1.686-4.455h1.23l-3.212 8.196h-1.292ZM85.41 44.941l1.147 5.64h.41l1.147-5.64h3.346v8.882h-1.826v-7.325h-.411l-1.594 7.325h-1.728l-1.594-7.325h-.41v7.325h-1.834v-8.882h3.347Zm10.488 1.882c2.109 0 3.335 1.263 3.335 3.568 0 2.304-1.22 3.567-3.335 3.567s-3.334-1.263-3.334-3.567c.006-2.311 1.226-3.568 3.334-3.568Zm0 5.713c.95 0 1.404-.515 1.404-1.649v-1.005c0-1.134-.448-1.649-1.404-1.649s-1.404.515-1.404 1.649v1.005c.007 1.134.454 1.65 1.404 1.65Zm4.083-.037 3.487-4.223h-3.438v-1.324h5.614v1.324l-3.488 4.223h3.537v1.324h-5.712V52.5Zm6.669-5.547h2.574v6.871h-1.827v-5.547h-.747v-1.324Zm.747-2.01h1.827v1.323h-1.827v-1.324Zm3.035 0h2.574v8.881h-1.827v-7.558h-.747v-1.324Zm3.788 0h2.574v8.881h-1.827v-7.558h-.747v-1.324Zm6.497 1.881c1.018 0 1.686.503 1.882 1.38h.411v-1.251h2.176v1.324h-.748v4.223h.748v1.324h-1.042c-.736 0-1.134-.398-1.134-1.134v-.116h-.411c-.196.876-.864 1.379-1.882 1.379-1.606 0-2.74-1.367-2.74-3.567 0-2.201 1.134-3.562 2.74-3.562Zm.54 5.713c.925 0 1.348-.515 1.348-1.649v-1.005c0-1.134-.423-1.649-1.348-1.649-.926 0-1.349.515-1.349 1.649v1.005c0 1.134.423 1.65 1.349 1.65Z" fill="#fff"/><path d="M51.08 18.336c-1.157-2.772-3.471-5.757-5.33-6.7a26.903 26.903 0 0 1 2.68 8.04v.03C45.447 12.245 40.36 9.23 36.218 2.68c-.213-.335-.426-.67-.61-1.005-.12-.213-.212-.396-.304-.548a4.813 4.813 0 0 1-.396-1.036c0-.03-.03-.06-.06-.06h-.091V0c-6.64 3.899-8.895 11.117-9.108 14.711a13.194 13.194 0 0 0-7.28 2.803 9.907 9.907 0 0 0-.67-.518 12.032 12.032 0 0 1-.06-6.488c-2.437 1.188-4.63 2.863-6.366 4.934-1.036-1.34-.975-5.726-.914-6.64-.305.122-.61.275-.883.457-.914.67-1.797 1.401-2.59 2.224a21.063 21.063 0 0 0-2.466 2.985 21.788 21.788 0 0 0-3.625 8.04l-.03.184c-.061.243-.244 1.4-.275 1.644v.061c-.243 1.219-.365 2.437-.426 3.655v.122c0 14.65 11.879 26.499 26.53 26.468 12.883 0 23.91-9.29 26.102-21.99.03-.336.091-.67.122-1.036a27.515 27.515 0 0 0-1.736-13.28ZM20.532 39.078l.366.183h.03c-.122-.03-.274-.122-.396-.183Z" fill="url(#a)"/><path d="M51.08 18.336c-1.158-2.772-3.473-5.757-5.33-6.701a26.9 26.9 0 0 1 2.68 8.04v.061a24.055 24.055 0 0 1-.823 17.88c-3.046 6.518-10.386 13.188-21.9 12.884C13.282 50.134 2.317 40.936.276 28.844c-.366-1.92 0-2.863.183-4.417a21.005 21.005 0 0 0-.427 3.655v.122c0 14.65 11.879 26.499 26.53 26.468 12.883 0 23.91-9.29 26.102-21.99.03-.336.092-.67.122-1.036a27.214 27.214 0 0 0-1.705-13.31Z" fill="url(#b)"/><path d="M51.08 18.336c-1.158-2.772-3.473-5.757-5.33-6.701a26.9 26.9 0 0 1 2.68 8.04v.061a24.055 24.055 0 0 1-.823 17.88c-3.046 6.518-10.386 13.188-21.9 12.884C13.282 50.134 2.317 40.936.276 28.844c-.366-1.92 0-2.863.183-4.417a21.005 21.005 0 0 0-.427 3.655v.122c0 14.65 11.879 26.499 26.53 26.468 12.883 0 23.91-9.29 26.102-21.99.03-.336.092-.67.122-1.036a27.214 27.214 0 0 0-1.705-13.31Z" fill="url(#c)"/><path d="M38.197 21.473c.06.03.122.091.152.122a14.021 14.021 0 0 0-2.467-3.198C27.658 10.172 33.719.546 34.755.06c-6.64 3.837-8.894 11.056-9.107 14.65.305-.03.61-.06.944-.06 4.813.03 9.23 2.619 11.605 6.822Z" fill="url(#d)"/><path d="M26.62 23.12c-.03.67-2.376 2.925-3.198 2.925-7.523 0-8.772 4.568-8.772 4.568.335 3.838 3.015 7.006 6.244 8.681.152.091.305.152.457.213.274.122.518.213.792.305 1.096.396 2.284.609 3.441.67 13.22.609 15.778-15.808 6.244-20.56 2.254-.304 4.539.275 6.397 1.554a13.441 13.441 0 0 0-11.605-6.792c-.305 0-.61.03-.944.06a13.194 13.194 0 0 0-7.28 2.803c.396.335.853.792 1.828 1.736 1.766 1.766 6.366 3.594 6.396 3.838Z" fill="url(#e)"/><path d="M26.62 23.12c-.03.67-2.376 2.925-3.198 2.925-7.523 0-8.772 4.568-8.772 4.568.335 3.838 3.015 7.006 6.244 8.681.152.091.305.152.457.213.274.122.518.213.792.305 1.096.396 2.284.609 3.441.67 13.22.609 15.778-15.808 6.244-20.56 2.254-.304 4.539.275 6.397 1.554a13.441 13.441 0 0 0-11.605-6.792c-.305 0-.61.03-.944.06a13.194 13.194 0 0 0-7.28 2.803c.396.335.853.792 1.828 1.736 1.766 1.766 6.366 3.594 6.396 3.838Z" fill="url(#f)"/><path d="M17.12 16.661c.212.122.395.244.547.366a12.033 12.033 0 0 1-.06-6.488c-2.437 1.188-4.63 2.863-6.366 4.934.122 0 3.96-.06 5.878 1.188Z" fill="url(#g)"/><path d="M.31 28.814c2.042 12.092 13.007 21.32 25.434 21.656 11.513.335 18.853-6.366 21.9-12.884a24.055 24.055 0 0 0 .822-17.88v-.06.03c.944 6.153-2.193 12.092-7.067 16.113v.03c-9.503 7.737-18.61 4.66-20.437 3.412-.122-.061-.244-.122-.396-.183-5.544-2.65-7.828-7.706-7.34-12.031a6.84 6.84 0 0 1-6.275-3.96c2.954-1.827 6.64-1.95 9.747-.396 3.137 1.432 6.7 1.554 9.96.396 0-.213-4.63-2.04-6.427-3.807-.975-.944-1.432-1.401-1.828-1.736a9.965 9.965 0 0 0-.67-.518c-.152-.122-.335-.213-.548-.365-1.92-1.25-5.787-1.188-5.91-1.188-1.035-1.34-.974-5.727-.913-6.64-.304.122-.609.274-.883.457-.914.67-1.797 1.4-2.59 2.223-.913.914-1.735 1.919-2.497 2.954A22.597 22.597 0 0 0 .798 22.51c0 .06-.944 4.173-.487 6.305Z" fill="url(#h)"/><path d="M35.91 18.367c.975.944 1.797 2.04 2.467 3.229.153.122.274.213.396.335 6 5.543 2.863 13.371 2.62 13.92 4.873-4.021 8.01-9.96 7.066-16.113C45.474 12.275 40.388 9.26 36.245 2.68c-.213-.335-.426-.67-.609-1.005-.122-.213-.213-.396-.304-.548a4.813 4.813 0 0 1-.396-1.036c0-.03-.03-.06-.061-.06h-.091c-1.036.487-7.128 10.111 1.126 18.335Z" fill="url(#i)"/><path d="M38.775 21.9c-.122-.09-.244-.213-.396-.334-.06-.031-.122-.092-.152-.122-1.858-1.28-4.142-1.858-6.396-1.554 9.533 4.752 6.975 21.169-6.244 20.56a11.896 11.896 0 0 1-3.442-.67c-.274-.092-.518-.214-.792-.305-.152-.06-.305-.122-.457-.213h.03c1.828 1.249 10.935 4.325 20.438-3.412v-.03c.274-.548 3.411-8.376-2.589-13.92Z" fill="url(#j)"/><path d="M14.653 30.58s1.219-4.569 8.772-4.569c.823 0 3.138-2.284 3.199-2.924a13.128 13.128 0 0 1-9.96-.396 9.929 9.929 0 0 0-9.747.396 6.84 6.84 0 0 0 6.274 3.96c-.487 4.325 1.797 9.38 7.34 12.03l.366.184c-3.228-1.676-5.908-4.843-6.244-8.681Z" fill="url(#k)"/><path d="M51.08 18.336c-1.157-2.772-3.471-5.757-5.33-6.7a26.903 26.903 0 0 1 2.68 8.04v.03C45.447 12.245 40.36 9.23 36.218 2.68c-.213-.335-.426-.67-.61-1.005-.12-.213-.212-.396-.304-.548a4.813 4.813 0 0 1-.396-1.036c0-.03-.03-.06-.06-.06h-.091V0c-6.64 3.899-8.895 11.117-9.108 14.711.305-.03.61-.06.944-.06 4.813 0 9.23 2.588 11.605 6.792-1.858-1.28-4.142-1.858-6.396-1.554 9.533 4.752 6.975 21.169-6.244 20.56a11.9 11.9 0 0 1-3.442-.67c-.274-.092-.518-.214-.792-.305a3.08 3.08 0 0 1-.457-.213h.03c-.121-.061-.243-.122-.395-.183l.365.183c-3.198-1.675-5.878-4.843-6.213-8.68 0 0 1.218-4.57 8.772-4.57.822 0 3.137-2.284 3.198-2.924 0-.213-4.63-2.04-6.427-3.807-.975-.944-1.432-1.4-1.828-1.736a9.94 9.94 0 0 0-.67-.518 12.032 12.032 0 0 1-.06-6.487c-2.437 1.188-4.63 2.863-6.366 4.934-1.036-1.34-.975-5.726-.914-6.64-.305.122-.61.274-.883.457-.914.67-1.797 1.4-2.59 2.223a21.058 21.058 0 0 0-2.466 2.985 21.435 21.435 0 0 0-3.625 8.01l-.03.184c-.061.243-.275 1.431-.305 1.675 0 .03 0-.03 0 0a30.274 30.274 0 0 0-.396 3.685v.122c0 14.65 11.879 26.499 26.53 26.468 12.883 0 23.91-9.29 26.102-21.99.03-.336.091-.67.122-1.036a27.515 27.515 0 0 0-1.736-13.28Z" fill="url(#l)"/><defs><radialGradient id="b" cx="0" cy="0" r="1" gradientUnits="userSpaceOnUse" gradientTransform="translate(45.54 6.068) scale(55.2446)"><stop offset=".129" stop-color="#FFBD4F"/><stop offset=".186" stop-color="#FFAC31"/><stop offset=".247" stop-color="#FF9D17"/><stop offset=".283" stop-color="#FF980E"/><stop offset=".403" stop-color="#FF563B"/><stop offset=".467" stop-color="#FF3750"/><stop offset=".71" stop-color="#F5156C"/><stop offset=".782" stop-color="#EB0878"/><stop offset=".86" stop-color="#E50080"/></radialGradient><radialGradient id="c" cx="0" cy="0" r="1" gradientUnits="userSpaceOnUse" gradientTransform="translate(25.353 28.653) scale(55.2446)"><stop offset=".3" stop-color="#960E18"/><stop offset=".351" stop-color="#B11927" stop-opacity=".74"/><stop offset=".435" stop-color="#DB293D" stop-opacity=".343"/><stop offset=".497" stop-color="#F5334B" stop-opacity=".094"/><stop offset=".53" stop-color="#FF3750" stop-opacity="0"/></radialGradient><radialGradient id="d" cx="0" cy="0" r="1" gradientUnits="userSpaceOnUse" gradientTransform="translate(32.015 -6.47) scale(40.0209)"><stop offset=".132" stop-color="#FFF44F"/><stop offset=".252" stop-color="#FFDC3E"/><stop offset=".506" stop-color="#FF9D12"/><stop offset=".526" stop-color="#FF980E"/></radialGradient><radialGradient id="e" cx="0" cy="0" r="1" gradientUnits="userSpaceOnUse" gradientTransform="translate(19.24 43.087) scale(26.3044)"><stop offset=".353" stop-color="#3A8EE6"/><stop offset=".472" stop-color="#5C79F0"/><stop offset=".669" stop-color="#9059FF"/><stop offset="1" stop-color="#C139E6"/></radialGradient><radialGradient id="f" cx="0" cy="0" r="1" gradientUnits="userSpaceOnUse" gradientTransform="matrix(13.55584 -3.2774 3.83703 15.87055 28.37 24.129)"><stop offset=".206" stop-color="#9059FF" stop-opacity="0"/><stop offset=".278" stop-color="#8C4FF3" stop-opacity=".064"/><stop offset=".747" stop-color="#7716A8" stop-opacity=".45"/><stop offset=".975" stop-color="#6E008B" stop-opacity=".6"/></radialGradient><radialGradient id="g" cx="0" cy="0" r="1" gradientUnits="userSpaceOnUse" gradientTransform="translate(24.656 3.808) scale(18.9233)"><stop stop-color="#FFE226"/><stop offset=".121" stop-color="#FFDB27"/><stop offset=".295" stop-color="#FFC82A"/><stop offset=".502" stop-color="#FFA930"/><stop offset=".732" stop-color="#FF7E37"/><stop offset=".792" stop-color="#FF7139"/></radialGradient><radialGradient id="h" cx="0" cy="0" r="1" gradientUnits="userSpaceOnUse" gradientTransform="translate(39.535 -8.195) scale(80.7374)"><stop offset=".113" stop-color="#FFF44F"/><stop offset=".456" stop-color="#FF980E"/><stop offset=".622" stop-color="#FF5634"/><stop offset=".716" stop-color="#FF3647"/><stop offset=".904" stop-color="#E31587"/></radialGradient><radialGradient id="i" cx="0" cy="0" r="1" gradientUnits="userSpaceOnUse" gradientTransform="matrix(6.21006 58.84764 -38.62115 4.0756 32.724 -3.705)"><stop stop-color="#FFF44F"/><stop offset=".06" stop-color="#FFE847"/><stop offset=".168" stop-color="#FFC830"/><stop offset=".304" stop-color="#FF980E"/><stop offset=".356" stop-color="#FF8B16"/><stop offset=".455" stop-color="#FF672A"/><stop offset=".57" stop-color="#FF3647"/><stop offset=".737" stop-color="#E31587"/></radialGradient><radialGradient id="j" cx="0" cy="0" r="1" gradientUnits="userSpaceOnUse" gradientTransform="translate(24.21 10.818) scale(50.4057)"><stop offset=".137" stop-color="#FFF44F"/><stop offset=".48" stop-color="#FF980E"/><stop offset=".592" stop-color="#FF5634"/><stop offset=".655" stop-color="#FF3647"/><stop offset=".904" stop-color="#E31587"/></radialGradient><radialGradient id="k" cx="0" cy="0" r="1" gradientUnits="userSpaceOnUse" gradientTransform="translate(37.518 13.767) scale(55.1687)"><stop offset=".094" stop-color="#FFF44F"/><stop offset=".231" stop-color="#FFE141"/><stop offset=".509" stop-color="#FFAF1E"/><stop offset=".626" stop-color="#FF980E"/></radialGradient><linearGradient id="a" x1="47.57" y1="8.467" x2="3.579" y2="50.911" gradientUnits="userSpaceOnUse"><stop offset=".048" stop-color="#FFF44F"/><stop offset=".111" stop-color="#FFE847"/><stop offset=".225" stop-color="#FFC830"/><stop offset=".368" stop-color="#FF980E"/><stop offset=".401" stop-color="#FF8B16"/><stop offset=".462" stop-color="#FF672A"/><stop offset=".534" stop-color="#FF3647"/><stop offset=".705" stop-color="#E31587"/></linearGradient><linearGradient id="l" x1="47.042" y1="8.241" x2="9.61" y2="45.673" gradientUnits="userSpaceOnUse"><stop offset=".167" stop-color="#FFF44F" stop-opacity=".8"/><stop offset=".266" stop-color="#FFF44F" stop-opacity=".634"/><stop offset=".489" stop-color="#FFF44F" stop-opacity=".217"/><stop offset=".6" stop-color="#FFF44F" stop-opacity="0"/></linearGradient></defs></svg>
