<svg width="66" height="50" fill="none" xmlns="http://www.w3.org/2000/svg"><path d="M49.82 48.781H3.88a2.885 2.885 0 0 1-2.886-2.885V4.404A3.397 3.397 0 0 1 4.398 1H19.64c.981 0 1.895.499 2.426 1.324l2.676 4.16a2.885 2.885 0 0 0 2.426 1.323h22.65a2.885 2.885 0 0 1 2.886 2.886v35.203a2.885 2.885 0 0 1-2.885 2.885Z" fill="#333336" stroke="#F8F6F4" stroke-width="1.8"/><path d="M9.29 12.045h45.983c1.888 0 3.42 1.423 3.42 3.175v16.2c0 8.743-7.643 15.84-17.058 15.84H9.289c-1.887 0-3.42-1.422-3.42-3.175V15.22c0-1.752 1.533-3.175 3.42-3.175Z" fill="#333336" stroke="#F8F6F4" stroke-width="1.8"/><path d="M3.879 48.78c1.593 0 3.205-1.206 3.598-2.694L14.8 18.425c.394-1.488 2.005-2.695 3.599-2.695H62.03c1.593 0 2.566 1.207 2.172 2.695l-7.323 27.66c-.394 1.489-2.005 2.695-3.598 2.695H3.879Z" fill="#333336" stroke="#F8F6F4" stroke-width="1.8"/></svg>
