<svg width="156" height="146" viewBox="0 0 156 146" fill="none" xmlns="http://www.w3.org/2000/svg"><g stroke="#fff"><path d="m106.13 94.626.018.016 2.054 2.604a537.873 537.873 0 0 0-2.072-2.62Zm-3.104 8.096c-.523.4-.968.882-1.312 1.44-1.863-1.008-4.377-2.306-6.887-3.012-3.164-.89-6.76-.557-9.819-.274-.349.032-.69.063-1.024.092-3.55.31-6.89.469-10.243-.474l-.898-.252-.89.232-.002.001-.005.001-.002.001h-.004l-.105.025c-.104.023-.271.058-.494.099-.446.081-1.104.181-1.902.243-1.623.126-3.685.085-5.692-.479-2.006-.564-3.788-1.605-5.107-2.558a18.903 18.903 0 0 1-1.496-1.198 12.701 12.701 0 0 1-.447-.418l-.003-.003-.002-.002-.003-.003-.002-.002-.638-.662-.898-.252c-3.353-.943-6.12-2.82-8.99-4.934l-.825-.613c-2.463-1.836-5.358-3.994-8.522-4.884-2.51-.706-5.333-.908-7.448-1.018a5.337 5.337 0 0 0-.37-1.913c-.394-1.019-1.048-1.847-1.625-2.484-.082-.09-.166-.181-.253-.273 1.156-.38 2.209-.985 2.938-1.974a4.22 4.22 0 0 0 .832-2.276 3.994 3.994 0 0 0-.181-1.428 3.57 3.57 0 0 0-.023-.068l-.012-.033-.003-.009c2.154-.375 4.913-1.248 7.237-3.524 2.578-2.523 5.847-5.107 8.53-7.093a130.204 130.204 0 0 1 4.289-3.041l.254-.17.062-.042.015-.01.002-.001 1.514-1 .031-1.813c.05-2.88.874-10.673 2.472-17.485.805-3.432 1.745-6.337 2.744-8.2.28-.523.522-.88.709-1.116.084.065.18.144.288.24.499.44 1.085 1.082 1.738 1.928 1.306 1.69 2.661 3.902 3.915 6.183a112.194 112.194 0 0 1 4.413 9.047l.932 2.195 2.383-.102c1.879-.08 3.8.128 5.707.664a18.181 18.181 0 0 1 5.218 2.409l1.98 1.328 1.94-1.388c.076-.055 3.98-2.844 8.48-5.42 2.26-1.294 4.569-2.475 6.565-3.237.998-.381 1.833-.624 2.488-.74.142-.026.265-.043.371-.055.036.299.056.73.023 1.323-.119 2.11-.831 5.08-1.932 8.427-2.186 6.648-5.544 13.727-7.003 16.211l-.919 1.565.771 1.641.002.004.007.015.032.068.127.278a129.997 129.997 0 0 1 2.075 4.83c1.256 3.094 2.699 7.003 3.584 10.5.797 3.153 2.696 5.336 4.339 6.78l-.007.005-.027.022-.055.046-.064.056-.052.047a3.89 3.89 0 0 0-.784 1.021 4.217 4.217 0 0 0-.475 2.376c.107 1.225.69 2.289 1.478 3.217-.122.032-.241.066-.358.101-.824.242-1.814.609-2.682 1.272ZM24.754 76.838Zm5.79-3.456.024-.005c-.214.077-.903.33-3.135 1.156l3.11-1.151Zm-1.786-2.908c.002 0 .012.021.027.06a.273.273 0 0 1-.027-.06Zm80.376 22.654a.344.344 0 0 1 .053-.037.245.245 0 0 1-.053.037Z" fill="#F8F6F4" stroke-width="6.883"/><path d="m83.19 91.573-.976-.856a31.134 31.134 0 0 1-6.108-7.305l-.28-.463m7.363 8.624-7.363-8.624m7.363 8.624c.99.87 2.094 1.598 3.28 2.164a16.993 16.993 0 0 1-3.188 6.018l2.656 2.188-2.656-2.188a16.994 16.994 0 0 1-17.718 5.556l-6.189-1.741a16.992 16.992 0 0 1-11.81-20.773c1.308.135 2.63.09 3.927-.137l1.28-.223a31.136 31.136 0 0 0 9.02-3.05m21.398 12.186-22.987-15.24 1.589 3.054m14.035 3.562a2.598 2.598 0 0 0-1.081-.99l-5.234-2.564m6.315 3.554-6.314-3.554m0 0-5.803-.54a2.597 2.597 0 0 0-1.439.282l-.48.25m7.721.008-7.72-.008m-15.03 2.185-.133.762.133-.762ZM27.437 74.535l1.253-.464-1.253.464Zm4.054-1.301Zm-4.37 5.916c.31-.102.612-.22.903-.357.028.296.086.603.184.916a4.66 4.66 0 0 0 1.345 2.08 9.244 9.244 0 0 0-.415.515 5.673 5.673 0 0 0-.138-.398c-.395-1.018-1.049-1.847-1.625-2.483a15.89 15.89 0 0 0-.253-.273Zm3.748 3.592-.018-.018a.136.136 0 0 1 .018.018Zm-6.111-5.902Zm2.36-3.072ZM103.026 102.724a5.64 5.64 0 0 0-.325.268l-.005-.049a8.56 8.56 0 0 0-.081-.607 4.658 4.658 0 0 0 2.232-1.074c.247-.217.457-.448.635-.686.176.268.372.527.584.775a20.01 20.01 0 0 0-.359.101c-.823.243-1.813.609-2.681 1.272Zm-2.03-.261Zm7.206-5.215-.828-1.05.828 1.05Zm.671-.489-.014-.013.014.014Zm-3.414-8.59Zm-1.386 8.706h.003-.003Zm5.214 3.737-.008.003.008-.003Z" fill="#F8F6F4" stroke-width="6.883"/><path d="M75.241 69.937c.054.042.112.09.17.145.133.121.233.238.297.335.031.046.048.079.056.098a.594.594 0 0 1-.004.016c-.093.33-.584 1.028-1.835 1.622-.562.266-1.14.44-1.637.518-.484.076-.731.038-.763.033h-.003l-.002-.002c-.03-.012-.26-.108-.634-.425a6.146 6.146 0 0 1-1.127-1.296c-.758-1.159-.814-2.01-.721-2.34a.527.527 0 0 1 .005-.016.672.672 0 0 1 .099-.055c.105-.05.251-.096.427-.131.078-.016.153-.027.221-.035l5.451 1.533Z" fill="#F8F6F4" fill-opacity=".973" stroke-width="6.883"/><g stroke-width="6.883"><path d="M89.307 66.809s-5.272-1.085-8.199 3.02c0 0 7.685-.425 10.133 2.4" stroke-linecap="round" stroke-linejoin="round"/><path d="M61.863 62.597a1.563 1.563 0 1 1-3.01-.846 1.563 1.563 0 0 1 3.01.846Z" fill="#F8F6F4"/><path d="M57.925 59.776a1.717 1.717 0 1 1 3.306.93 1.717 1.717 0 0 1-3.306-.93Z" fill="#F8F6F4"/></g><g fill="#F8F6F4" stroke-width="6.883" stroke-linecap="round" stroke-linejoin="round"><path d="M80.245 79.505c-3.165-.89-6.27.464-10.436-.708-4.167-1.172-6.11-3.945-9.275-4.835-3.166-.89-3.478 2.373-3.444 3.636.034 1.263.738 6.909 10.353 9.612 9.616 2.704 13.159-1.747 13.846-2.807.687-1.06 2.121-4.008-1.044-4.898Z"/><path d="M72.587 83.87c-1.022-.288-1.214-.18-2.17-.124-.956.055-1.92-.281-1.92-.281s-1-.216-1.786-.761c-.787-.546-.895-.738-1.917-1.026-1.021-.287-2.792-.243-3.609 2.66 1.485 1.084 3.505 2.099 6.258 2.873 2.752.774 5.005.96 6.838.809.816-2.903-.673-3.863-1.694-4.15ZM60.803 78.353c.718.551 2.27-1.08 3.402-2.478-1.18-.8-2.313-1.528-3.67-1.91-.027-.008-.052-.012-.078-.02-.231 1.644-.384 3.848.346 4.408ZM77.725 83.11c-.9.097-1.376-2.105-1.612-3.887 1.424-.068 2.77-.099 4.128.283l.076.023c-.66 1.524-1.677 3.484-2.592 3.582Z"/></g><path d="M59.844 36.614c2.608-.75 5.172-.77 7.408-.475-2.541-4.562-5.66-9.15-8.237-9.875-3.553-.999-6.16 6.497-7.798 14.45a29.137 29.137 0 0 1 8.627-4.1ZM100.308 47.992c-1.835-2-4.013-3.352-6.076-4.267 4.547-2.568 9.601-4.858 12.177-4.134 3.554 1 1.872 8.756-.876 16.397a29.152 29.152 0 0 0-5.225-7.996Z" fill="#F8F6F4" stroke-width="6.883" stroke-linecap="round" stroke-linejoin="round"/><g stroke-width="9.849" stroke-linecap="round" stroke-linejoin="round"><path d="M91.067 55.67a21.566 21.566 0 0 0-12.235-8.965 21.566 21.566 0 0 0-15.114 1.274M53.388 54.118s-3.047 1.69-4.223 2.488M96.695 66.297s1.72 3.03 2.308 4.324"/><path d="M72.809 103.807c8.013 2.253 15.557-.9 21.086.655 5.529 1.555 11.22 6.527 10.614 3.763-.606-2.765.661-3.273 4.688-4.043 4.027-.77 2.248-2.48.182-4.358-2.066-1.878-1.177-2.58-1.177-2.58 8.734-3.077-1.269-2.864-3.153-10.31-1.883-7.447-6.048-16.313-6.048-16.313 3.193-5.436 13.819-29.23 7.408-31.033-5.312-1.494-21.155 9.827-21.37 9.981a21.626 21.626 0 0 0-6.203-2.863 21.625 21.625 0 0 0-6.786-.79c-.103-.243-7.724-18.162-13.036-19.656-6.41-1.802-9.744 24.042-9.852 30.346 0 0-8.175 5.396-13.664 10.77-5.488 5.373-13.914-.022-8.064 7.156 0 0 .393 1.062-2.35 1.588-2.741.526-5.151 1.059-2.116 3.814 3.036 2.756 3.852 3.85 1.894 5.894-1.958 2.043 5.492.766 11.02 2.32 5.53 1.555 10.325 8.178 18.337 10.431"/></g></g><path d="M109.589 99.078c-2.066-1.878-1.177-2.579-1.177-2.579 8.734-3.078-1.269-2.864-3.153-10.311-1.883-7.447-6.047-16.313-6.047-16.313 3.192-5.436 13.818-29.23 7.407-31.033-5.312-1.493-21.155 9.827-21.37 9.982a21.626 21.626 0 0 0-6.203-2.863 21.625 21.625 0 0 0-6.786-.79c-.103-.244-7.724-18.163-13.036-19.656-6.41-1.803-9.744 24.042-9.852 30.345 0 0-8.175 5.396-13.664 10.77-5.488 5.374-13.914-.022-8.065 7.157 0 0 .394 1.061-2.348 1.587s-5.152 1.06-2.117 3.815c3.036 2.756 3.852 3.85 1.894 5.893-1.958 2.044 5.492.766 11.02 2.321 5.53 1.555 10.325 8.177 18.337 10.43 0 0 3.549 3.679 8.597 5.098 5.048 1.42 9.993.13 9.993.13 8.013 2.253 15.557-.899 21.086.655 5.529 1.555 11.22 6.528 10.614 3.763-.606-2.764.661-3.273 4.688-4.042 4.027-.77 2.248-2.481.182-4.359Z" fill="#FF834D"/><path d="M91.496 81.287a10.876 10.876 0 0 1-3.19-1.948l-.975-.856a27.692 27.692 0 0 1-5.433-6.498l-.28-.463a6.04 6.04 0 0 0-2.514-2.303l-5.8-2.84-6.43-.599a6.04 6.04 0 0 0-3.346.655l-.48.25a27.696 27.696 0 0 1-8.023 2.713l-1.279.223a10.879 10.879 0 0 1-3.737 0 2.338 2.338 0 0 0-2.652 1.67l-.209.74a20.435 20.435 0 0 0 14.14 25.204l6.19 1.74a20.436 20.436 0 0 0 25.203-14.14l.208-.74a2.338 2.338 0 0 0-1.393-2.808ZM32.302 85.166c-.34-.27-.657-.545-.564-.876.122-.434.566-.957 1.025-1.428.288-.296.583-.571.81-.791.956-.929.622-1.855-.136-2.58a5.064 5.064 0 0 0-.97-.714c-1.736-.997-.337-2.585.915-3.287 1.253-.703.582-2.344-.312-2.855-.894-.51-1.514-1.074-1.28-1.906.234-.83 1.406-2.08 2.927-3.258l.006-.006c-5.436 3.954-12.588-.436-7.08 6.324 0 0 .394 1.062-2.348 1.588s-5.152 1.059-2.116 3.815c3.035 2.755 3.852 3.85 1.894 5.893-1.495 1.56 2.493 1.185 6.923 1.612.238.023.476.048.716.076.134-.24.241-.464.29-.636.103-.367-.314-.666-.7-.97ZM98.506 103.78c.433-.052.846-.122.94-.454.121-.434.015-1.111-.132-1.753-.092-.402-.2-.791-.278-1.096-.333-1.292.435-1.908 1.46-2.132a5.062 5.062 0 0 1 1.2-.103c2.002.053 1.635-2.03.932-3.283-.703-1.253.726-2.304 1.755-2.274 1.029.03 1.851-.127 2.085-.959.234-.831-.116-2.507-.799-4.307l-.003-.007c2.579 6.207 10.971 6.188 2.746 9.087 0 0-.889.7 1.177 2.579 2.066 1.878 3.845 3.588-.182 4.358-4.027.77-5.294 1.278-4.688 4.043.463 2.11-2.746-.288-6.75-2.233a38.276 38.276 0 0 0-.65-.308c.011-.274.036-.522.085-.694.103-.367.615-.404 1.102-.464Z" fill="#fff"/><path d="M77.213 66.212a1.963 1.963 0 0 0-.568-.263l-5.96-1.676a1.96 1.96 0 0 0-.621-.071c-.938.042-3.452.381-4.121 2.762-.947 3.365 2.401 7.614 4.865 8.307 2.464.692 7.536-1.189 8.482-4.554.67-2.38-1.299-3.98-2.078-4.505Z" fill="#1D1D1B"/><path d="M89.519 66.058s-5.272-1.085-8.199 3.02c0 0 7.685-.424 10.133 2.4" stroke="#1D1D1B" stroke-width="1.5" stroke-linecap="round" stroke-linejoin="round"/><path d="M59.215 66.242a5.005 5.005 0 1 0 2.71-9.636 5.005 5.005 0 0 0-2.71 9.636Z" fill="url(#a)"/><path d="M59.323 61.151a1.725 1.725 0 1 0 .934-3.32 1.725 1.725 0 0 0-.934 3.32Z" fill="#fff"/><g stroke="#1D1D1B" stroke-width="1.5" stroke-linecap="round" stroke-linejoin="round"><path d="M80.464 78.761c-3.165-.89-6.27.464-10.436-.708-4.167-1.172-6.11-3.945-9.276-4.835-3.165-.89-3.477 2.373-3.443 3.636.034 1.263.738 6.908 10.353 9.612 9.615 2.704 13.158-1.747 13.845-2.807.688-1.06 2.122-4.008-1.043-4.898Z" fill="#6A1F26"/><path d="M72.806 83.127c-1.022-.287-1.215-.18-2.17-.124-.956.055-1.921-.28-1.921-.28s-.998-.217-1.785-.762c-.787-.546-.895-.738-1.917-1.025-1.021-.288-2.792-.244-3.609 2.658 1.485 1.085 3.505 2.1 6.258 2.874 2.752.774 5.005.96 6.838.81.816-2.903-.673-3.864-1.694-4.151Z" fill="#DE1764"/><path d="M61.02 77.608c.719.551 2.272-1.08 3.402-2.478-1.18-.8-2.313-1.529-3.67-1.91-.026-.008-.051-.013-.077-.02-.232 1.644-.384 3.848.345 4.408ZM77.948 82.365c-.9.097-1.376-2.105-1.612-3.887 1.423-.068 2.77-.1 4.128.283l.075.023c-.658 1.523-1.677 3.484-2.591 3.581Z" fill="#fff"/></g><path d="M60.051 35.865c2.608-.75 5.171-.77 7.409-.475-2.542-4.562-5.662-9.15-8.238-9.875-3.553-.999-6.16 6.497-7.798 14.45a29.14 29.14 0 0 1 8.627-4.1ZM100.514 47.243c-1.835-2-4.013-3.352-6.075-4.267 4.546-2.568 9.6-4.858 12.177-4.133 3.553.999 1.871 8.755-.877 16.396a29.152 29.152 0 0 0-5.225-7.996Z" fill="#1D1D1B" stroke="#1D1D1B" stroke-width="1.5" stroke-linecap="round" stroke-linejoin="round"/><g stroke="#1D1D1B" stroke-width="1.5" stroke-linecap="round" stroke-linejoin="round"><path d="M91.28 54.924a21.566 21.566 0 0 0-12.236-8.964 21.566 21.566 0 0 0-15.114 1.273M53.6 53.374s-3.047 1.69-4.223 2.487M96.907 65.552s1.72 3.03 2.308 4.323"/><path d="M73.02 103.063c8.014 2.253 15.558-.9 21.087.655 5.529 1.554 11.22 6.527 10.614 3.763-.606-2.765.661-3.273 4.688-4.043 4.027-.77 2.248-2.48.182-4.358-2.066-1.878-1.177-2.58-1.177-2.58 8.734-3.077-1.269-2.864-3.153-10.31-1.883-7.447-6.048-16.314-6.048-16.314 3.193-5.435 13.818-29.23 7.408-31.032-5.312-1.494-21.155 9.827-21.37 9.981a21.628 21.628 0 0 0-6.203-2.863 21.625 21.625 0 0 0-6.786-.79c-.103-.243-7.724-18.162-13.036-19.656-6.41-1.802-9.744 24.042-9.852 30.345 0 0-8.175 5.397-13.664 10.77-5.488 5.374-13.914-.021-8.065 7.157 0 0 .393 1.062-2.348 1.588-2.742.526-5.152 1.059-2.117 3.814 3.036 2.756 3.852 3.85 1.894 5.894-1.958 2.043 5.491.766 11.02 2.32 5.53 1.555 10.325 8.178 18.337 10.431"/></g><g stroke-linecap="round" stroke-linejoin="round"><path d="M129.567 58.356a2.51 2.51 0 1 0-4.896-1.112c-1.661 7.313-8.936 11.895-16.249 10.235a2.51 2.51 0 0 0-1.112 4.896c7.313 1.66 11.895 8.936 10.234 16.249a2.511 2.511 0 0 0 4.897 1.112c1.66-7.314 8.935-11.896 16.249-10.235a2.51 2.51 0 1 0 1.111-4.896c-7.313-1.661-11.895-8.936-10.234-16.25Z" fill="#F8F6F4" stroke="#fff" stroke-width="5.021"/><path d="M127.119 57.8c-1.968 8.665-10.588 14.095-19.253 12.127 8.665 1.968 14.094 10.587 12.127 19.253 1.967-8.666 10.587-14.095 19.253-12.127-8.666-1.968-14.095-10.588-12.127-19.253Z" fill="#fff" stroke="#333336" stroke-width="1.5"/><path d="m127.119 57.8.543-2.393M119.45 91.573l.543-2.393" stroke="#333336" stroke-width="1.485"/></g><defs><linearGradient id="a" x1="61.921" y1="56.62" x2="59.62" y2="64.801" gradientUnits="userSpaceOnUse"><stop offset=".212" stop-color="#1E2748"/><stop offset="1" stop-color="#1D1D1B"/></linearGradient></defs></svg>
