<svg width="91" height="66" viewBox="0 0 91 66" fill="none" xmlns="http://www.w3.org/2000/svg"><path fill-rule="evenodd" clip-rule="evenodd" d="M22.464 4c-.897-.01-1.603.43-2.12 1.11-.499.658-.84 1.558-1.079 2.573-.477 2.037-.586 4.763-.497 7.588.17 5.417 1.073 11.392 1.683 14.026l-.004.005a104.649 104.649 0 0 0-2.707 3.265c-1.654 2.08-3.703 4.821-5.249 7.435-1.225 2.072-3.212 2.8-4.754 3.366-.198.072-.389.142-.57.212-.373.144-.764.311-1.052.536a1.398 1.398 0 0 0-.407.483c-.108.22-.14.461-.097.704.076.438.383.834.75 1.2.338.337.807.723 1.416 1.173-.102.14-.376.409-1.083.752-.485.235-.988.482-1.41.74-.406.249-.83.562-1.074.965-.13.215-.218.472-.21.761.01.29.114.553.274.786.303.44.849.83 1.582 1.208.71.365 1.27.668 1.701.947.437.281.696.51.842.709.13.177.174.334.16.528-.017.222-.115.53-.361.978-.143.26-.327.69-.134 1.114.209.46.683.555.932.58.292.028.638-.003.99-.053.361-.052.775-.133 1.219-.225l.723-.154h.003c1.685-.362 3.72-.798 5.59-.775 1.902.024 3.913.818 6.27 1.748l.698.274c2.61 1.023 5.564 2.089 8.934 2.13a.65.65 0 0 0 .58-.342c1.137.575 3.84 1.756 6.927 1.794 3.084.038 5.813-1.074 6.965-1.621a.65.65 0 0 0 .571.355c3.37.041 6.35-.951 8.984-1.91l.701-.256h.003c2.38-.873 4.409-1.617 6.312-1.593 1.87.023 3.893.509 5.569.912l.722.172c.441.103.853.194 1.213.255.35.059.696.098.989.077.25-.019.725-.102.945-.557.204-.42.03-.853-.106-1.116l-.575.298.575-.298c-.235-.454-.325-.765-.336-.987a.736.736 0 0 1 .172-.524c.15-.196.415-.418.859-.689.439-.268 1.006-.556 1.724-.904.742-.36 1.298-.736 1.612-1.168a1.46 1.46 0 0 0 .292-.779 1.381 1.381 0 0 0-.191-.767c-.234-.408-.65-.732-1.05-.99-.415-.27-.911-.528-1.39-.775-.7-.36-.966-.636-1.065-.779.62-.434 1.098-.808 1.445-1.138.376-.356.692-.745.779-1.18a1.14 1.14 0 0 0-.08-.706 1.397 1.397 0 0 0-.395-.494c-.282-.231-.669-.408-1.039-.561-.179-.074-.368-.15-.564-.227-1.528-.603-3.495-1.38-4.67-3.482-1.48-2.65-3.462-5.442-5.063-7.562a104.918 104.918 0 0 0-2.626-3.33l-.004-.005c.674-2.619 1.725-8.57 2.028-13.98.158-2.822.117-5.55-.31-7.598-.213-1.02-.533-1.93-1.016-2.6-.5-.692-1.194-1.15-2.091-1.161-.676-.008-1.4.212-2.117.547-.725.339-1.491.818-2.266 1.378-1.55 1.122-3.189 2.613-4.681 4.094a91.506 91.506 0 0 0-5.228 5.692 17.49 17.49 0 0 0-5.028-.798 17.486 17.486 0 0 0-5.038.672c-.72-.9-2.73-3.362-5.084-5.817-1.455-1.518-3.057-3.048-4.579-4.208-.76-.58-1.515-1.077-2.231-1.434-.71-.353-1.427-.59-2.103-.599Z" fill="#fff"/><path d="m20.345 5.11-2.787-2.117 2.787 2.117ZM22.465 4l.043-3.5-.044 3.5Zm-3.2 3.683-3.407-.798 3.407.798Zm-.497 7.588-3.498.11 3.498-.11Zm1.683 14.026 2.641 2.297a3.5 3.5 0 0 0 .769-3.086l-3.41.79Zm-.004.005-2.641-2.297 2.641 2.297Zm-.62.723-2.67-2.265 2.67 2.265Zm-2.087 2.542 2.74 2.178-2.74-2.178Zm-5.249 7.435L9.48 38.22l3.012 1.782Zm-4.754 3.366 1.189 3.292.016-.006-1.205-3.286Zm0 0-1.189-3.292-.016.006 1.205 3.286Zm-.57.212-1.259-3.265 1.26 3.265Zm-1.052.536-2.151-2.761 2.151 2.76Zm-.407.483-3.145-1.536L5.708 44.6Zm-.097.704-3.449.598 3.449-.598Zm.75 1.2L3.888 48.98l2.471-2.479Zm1.416 1.173 2.825 2.065a3.5 3.5 0 0 0-.745-4.88l-2.08 2.815Zm-1.083.752-1.527-3.15 1.527 3.15Zm-1.41.74-1.828-2.984 1.828 2.984Zm-1.074.965 2.996 1.81-2.996-1.81Zm-.21.761 3.499-.107-3.498.108Zm.274.786 2.883-1.984-2.883 1.984Zm1.582 1.208 1.602-3.112-1.602 3.112Zm1.701.947 1.898-2.941-1.898 2.94Zm.842.709 2.825-2.067-2.825 2.067Zm.16.528-3.491-.26 3.49.26Zm-.361.978 3.067 1.685-3.067-1.685Zm-.134 1.114 3.187-1.446-3.187 1.446Zm.932.58.344-3.484-.344 3.483Zm.99-.053.499 3.464-.499-3.464Zm1.219-.225-.714-3.427.714 3.427Zm.723-.154.734 3.422h.005l-.739-3.422Zm.003 0-.733-3.423-.006.001.739 3.422Zm5.59-.775.043-3.5-.044 3.5Zm6.27 1.748-1.284 3.256 1.285-3.256Zm.698.274-1.277 3.26 1.277-3.26Zm8.934 2.13-.043 3.5.043-3.5Zm.58-.342 1.58-3.123a3.5 3.5 0 0 0-4.662 1.465l3.083 1.658Zm6.927 1.794-.044 3.5.044-3.5Zm6.965-1.621 3.118-1.59a3.5 3.5 0 0 0-4.62-1.572l1.502 3.162Zm.571.355-.043 3.5.043-3.5Zm8.984-1.91 1.196 3.29-1.196-3.29Zm.701-.256-1.203-3.286h-.001l1.204 3.286Zm.003 0 1.203 3.286h.001l-1.204-3.287Zm6.312-1.593-.043 3.5.043-3.5Zm5.569.912.817-3.404-.817 3.404Zm.722.172.798-3.408-.798 3.408Zm1.213.255-.584 3.45.584-3.45Zm.989.077L72.7 55.04l.258 3.49Zm.945-.557-3.15-1.524 3.15 1.524Zm-.106-1.116 3.108-1.61a3.5 3.5 0 0 0-4.717-1.499l1.609 3.109Zm-.575.298-1.61-3.109a3.5 3.5 0 0 0 3.218 6.217l-1.608-3.108Zm.575-.298 1.609 3.108a3.5 3.5 0 0 0 1.5-4.717l-3.109 1.609Zm-.336-.987 3.495-.175-3.495.175Zm.172-.524-2.773-2.136 2.773 2.136Zm.859-.689-1.825-2.986 1.825 2.986Zm1.724-.904-1.525-3.15 1.525 3.15Zm1.612-1.168-2.834-2.055 2.834 2.055Zm.292-.779 3.495.193-3.495-.193Zm-.191-.767 3.039-1.736-3.039 1.736Zm-1.05-.99 1.902-2.939-1.902 2.939Zm-1.39-.775 1.603-3.111-1.604 3.11Zm-1.065-.779-2.01-2.865a3.5 3.5 0 0 0-.865 4.86l2.875-1.994Zm1.445-1.138-2.409-2.539 2.41 2.54Zm.779-1.18 3.433.682-3.433-.683Zm-.08-.706 3.182-1.458-3.182 1.458Zm-.395-.494 2.219-2.707-2.219 2.707Zm-1.039-.561-1.34 3.233 1.34-3.233Zm-.564-.227-1.286 3.256 1.286-3.256ZM69.9 40.71l3.056-1.707L69.9 40.71Zm-5.063-7.562-2.793 2.11 2.793-2.11Zm-2.024-2.593 2.724-2.197-2.724 2.197Zm-.602-.738-2.698 2.23 2.697-2.23Zm-.004-.004-3.39-.873a3.5 3.5 0 0 0 .692 3.103l2.698-2.23Zm2.028-13.98 3.495.195-3.495-.196Zm-.31-7.598-3.427.714 3.427-.714Zm-1.016-2.6-2.839 2.048 2.839-2.048Zm-2.091-1.161.043-3.5-.044 3.5Zm-2.117.547 1.482 3.171-1.482-3.17Zm-2.266 1.378 2.052 2.836-2.052-2.836Zm-4.681 4.094-2.466-2.484 2.466 2.484Zm-5.228 5.692-1.048 3.34a3.5 3.5 0 0 0 3.727-1.087l-2.679-2.253Zm-5.028-.798-.043 3.5.043-3.5Zm-5.038.672-2.733 2.186a3.5 3.5 0 0 0 3.696 1.179l-.963-3.365Zm-5.084-5.817 2.526-2.423-2.526 2.423Zm-4.579-4.208L28.92 3.25l-2.122 2.784ZM24.567 4.6l1.56-3.133-1.56 3.133Zm-1.435 2.628c.017-.023-.035.054-.187.137-.169.093-.362.138-.524.136l.087-7c-2.243-.027-3.92 1.136-4.95 2.493l5.574 4.234Zm-.459 1.255c.189-.805.387-1.16.46-1.255l-5.575-4.234c-.928 1.22-1.413 2.667-1.7 3.892l6.815 1.597Zm-.407 6.68c-.086-2.741.036-5.099.407-6.68l-6.815-1.597c-.584 2.491-.68 5.587-.588 8.495l6.996-.219Zm1.595 13.346c-.557-2.408-1.432-8.155-1.595-13.347l-6.996.22c.176 5.642 1.109 11.845 1.771 14.705l6.82-1.578Zm-.772 3.09.003-.004L17.81 27l-.004.004 5.283 4.593Zm-.593.69c.253-.298.455-.532.593-.69l-5.284-4.592c-.154.177-.374.433-.647.754l5.338 4.529Zm-2.017 2.457a101.16 101.16 0 0 1 2.017-2.456l-5.338-4.529c-.545.643-1.302 1.552-2.158 2.628l5.48 4.357Zm-4.975 7.039c1.425-2.41 3.358-5.005 4.975-7.04L15 30.389c-1.69 2.126-3.854 5.014-5.521 7.832l6.025 3.564Zm-6.562 4.87c1.47-.54 4.63-1.605 6.562-4.87L9.479 38.22c-.52.879-1.333 1.27-2.947 1.862l2.41 6.572Zm-.017.006L6.55 40.076l2.376 6.584Zm-.498.186c.149-.058.311-.117.515-.192l-2.41-6.572c-.192.07-.411.15-.624.233l2.52 6.53Zm-.16.03c-.064.05-.11.078-.127.088-.018.011-.02.011 0 .001a6.923 6.923 0 0 1 .287-.12l-2.519-6.53c-.363.14-1.203.462-1.944 1.04l4.302 5.521Zm.586-.74a2.116 2.116 0 0 1-.587.74l-4.302-5.521a4.893 4.893 0 0 0-1.401 1.708l6.29 3.072Zm.206-1.431c.079.453.022.963-.206 1.43l-6.29-3.072a4.64 4.64 0 0 0-.4 2.838l6.896-1.196Zm-.228-.681c-.094-.094-.083-.098-.036-.026.05.076.197.318.264.707L2.162 45.9c.273 1.573 1.273 2.628 1.727 3.08l4.942-4.957Zm1.026.837c-.55-.407-.863-.675-1.026-.837L3.89 48.98c.516.514 1.141 1.017 1.808 1.51l4.16-5.63ZM8.22 51.577c.985-.477 1.815-1.059 2.382-1.836l-5.651-4.13c.191-.262.36-.396.406-.431.047-.036.005.004-.19.098l3.053 6.3Zm-1.108.576c.253-.155.602-.33 1.108-.576l-3.053-6.299c-.463.225-1.119.543-1.711.906l3.656 5.969Zm.094-.21c-.068.112-.131.19-.173.237a.829.829 0 0 1-.076.076c-.005.005.004-.003.032-.023a2.38 2.38 0 0 1 .123-.08l-3.656-5.97c-.49.3-1.538.976-2.24 2.139l5.99 3.622Zm.293-1.156c.016.516-.149.917-.293 1.157l-5.99-3.622a4.88 4.88 0 0 0-.714 2.68l6.997-.215Zm-.342-1.09c.139.201.326.576.342 1.09l-6.997.215a4.956 4.956 0 0 0 .888 2.662l5.767-3.968Zm.301.079a4.994 4.994 0 0 1-.3-.166 1.927 1.927 0 0 1-.153-.102c-.027-.02-.021-.018.005.008.027.027.082.086.147.18L1.39 53.664C2.2 54.841 3.392 55.556 4.255 56l3.203-6.224Zm1.997 1.118c-.589-.38-1.283-.75-1.997-1.118L4.255 56c.704.362 1.13.598 1.405.775l3.795-5.881Zm1.769 1.583c-.522-.712-1.202-1.218-1.769-1.583L5.66 56.775c.061.04.104.07.13.09l.028.02a1.963 1.963 0 0 1-.243-.274l5.649-4.134Zm.824 2.855a4.23 4.23 0 0 0-.824-2.855l-5.65 4.134a2.765 2.765 0 0 1-.507-1.8l6.981.521Zm-.783 2.403c.35-.635.713-1.457.783-2.403l-6.98-.52c.02-.273.078-.452.099-.51.02-.057.02-.042-.037.063l6.135 3.37Zm-.014-2.017c.283.622.252 1.196.182 1.534-.062.3-.166.48-.168.483l-6.135-3.37c-.193.351-1.197 2.164-.254 4.245l6.375-2.892ZM9.34 54.26c.066.007.342.035.688.2.402.193.92.588 1.224 1.258L4.876 58.61c1.054 2.321 3.357 2.575 3.776 2.616l.687-6.966Zm.148-.034c-.12.018-.194.025-.236.028h-.01c.011 0 .046 0 .099.006l-.688 6.966c.728.072 1.418-.011 1.833-.071l-.998-6.929Zm1.004-.187a17.5 17.5 0 0 1-1.004.188l.998 6.928c.475-.069.977-.168 1.433-.263l-1.427-6.853Zm.704-.15c-.251.054-.483.104-.704.15l1.427 6.853c.244-.05.496-.105.744-.158l-1.467-6.844Zm-.003.001h-.002l1.477 6.843h.002l-1.477-6.843Zm6.372-.852c-2.332-.03-4.761.507-6.367.851l1.467 6.845c1.765-.379 3.407-.714 4.813-.697l.087-7Zm7.513 1.991c-2.168-.855-4.833-1.958-7.514-1.991l-.086 7c1.126.013 2.483.497 5.03 1.503l2.57-6.512Zm.689.272-.69-.272-2.57 6.512.706.277 2.554-6.517Zm7.7 1.889c-2.68-.033-5.117-.877-7.7-1.89l-2.554 6.518c2.637 1.034 6.108 2.321 10.168 2.371l.086-7Zm-2.545 1.5a2.85 2.85 0 0 1 2.545-1.5l-.086 7a4.15 4.15 0 0 0 3.706-2.185l-6.165-3.316Zm1.502 4.78c1.328.671 4.594 2.123 8.463 2.171l.087-7c-2.305-.028-4.444-.939-5.39-1.417l-3.16 6.246Zm8.463 2.171c3.867.048 7.166-1.321 8.51-1.96l-3.003-6.323c-.959.456-3.118 1.312-5.42 1.284l-.087 6.999Zm7.623-8.266a2.85 2.85 0 0 1 2.504 1.556l-6.237 3.178a4.15 4.15 0 0 0 3.647 2.265l.086-6.999Zm7.745-1.699c-2.608.949-5.064 1.732-7.745 1.699l-.086 7c4.06.05 7.561-1.152 10.223-2.12l-2.392-6.579Zm.693-.253-.693.253 2.393 6.579.708-.26-2.408-6.572Zm.003-.001h-.002l2.406 6.574h.003l-2.407-6.574Zm7.56-1.806c-2.681-.033-5.372 1.004-7.56 1.806l2.408 6.573c2.57-.942 3.94-1.393 5.065-1.38l.086-6.999Zm6.342 1.008c-1.596-.383-4.01-.979-6.343-1.008l-.086 7c1.407.017 3.04.393 4.795.815l1.634-6.807Zm.703.168-.703-.168-1.634 6.807c.247.06.498.12.741.176l1.596-6.815Zm1 .212c-.248-.042-.572-.112-1-.212l-1.596 6.815c.454.107.954.218 1.427.299l1.168-6.902Zm.146.037c.053-.004.087-.004.098-.003.012 0 .01 0-.01-.001a3.078 3.078 0 0 1-.235-.033l-1.168 6.902c.413.07 1.1.17 1.83.116l-.515-6.981Zm-1.947 1.41a2.588 2.588 0 0 1 1.254-1.226c.35-.158.627-.18.693-.184l.516 6.981c.42-.031 2.728-.228 3.838-2.523l-6.301-3.048Zm-.064 2.017c-.002-.003-.101-.186-.156-.488a2.518 2.518 0 0 1 .22-1.529l6.301 3.048c.995-2.056.035-3.894-.149-4.25l-6.216 3.218Zm4.141 1.797.576-.298-3.218-6.217-.575.298 3.217 6.217ZM72.19 53.75l-.575.298 3.218 6.217.575-.298-3.218-6.217Zm-2.223 2.296c.047.947.39 1.778.724 2.422l6.216-3.218c-.055-.107-.054-.122-.035-.064.02.058.073.239.087.511l-6.992.35Zm.895-2.834a4.231 4.231 0 0 0-.895 2.834l6.992-.349a2.764 2.764 0 0 1-.552 1.787l-5.545-4.272Zm1.807-1.54c-.576.353-1.268.84-1.807 1.54l5.545 4.272a1.973 1.973 0 0 1-.25.268l.028-.02a2.9 2.9 0 0 1 .133-.086l-3.649-5.973Zm2.024-1.067c-.723.35-1.426.702-2.024 1.068l3.65 5.973c.279-.17.71-.395 1.423-.74l-3.05-6.301Zm.303-.073c.067-.093.124-.15.151-.176.027-.025.033-.027.006-.008-.027.02-.076.052-.156.098a4.93 4.93 0 0 1-.304.159l3.049 6.3c.874-.422 2.082-1.107 2.921-2.264l-5.667-4.109Zm-.369 1.083a2.05 2.05 0 0 1 .369-1.083l5.667 4.109c.476-.656.893-1.55.954-2.64l-6.99-.386Zm.265 1.163a2.122 2.122 0 0 1-.265-1.163l6.99.386a4.88 4.88 0 0 0-.647-2.696l-6.078 3.473Zm.088.211c.055.036.094.063.121.083.028.02.037.029.032.024a.814.814 0 0 1-.074-.077 1.59 1.59 0 0 1-.167-.241l6.078-3.473c-.674-1.18-1.706-1.881-2.187-2.193l-3.803 5.877Zm-1.094-.602c.501.258.846.441 1.094.602l3.802-5.877c-.583-.377-1.23-.711-1.688-.947l-3.208 6.222Zm-2.335-1.895c.548.791 1.364 1.394 2.336 1.895l3.207-6.222c-.192-.1-.234-.14-.187-.103.045.035.21.174.395.44l-5.751 3.99Zm1.911-5.672c-.166.158-.485.42-1.046.812l4.02 5.73c.679-.475 1.316-.963 1.844-1.464l-4.818-5.078Zm-.245.676c.077-.387.23-.626.282-.7.049-.071.06-.067-.037.024l4.818 5.078c.465-.441 1.491-1.47 1.803-3.037l-6.866-1.365Zm.171 1.434a2.361 2.361 0 0 1-.17-1.434l6.865 1.365a4.639 4.639 0 0 0-.33-2.846l-6.365 2.915Zm.569.756a2.113 2.113 0 0 1-.569-.755l6.364-2.916a4.893 4.893 0 0 0-1.358-1.743l-4.437 5.414Zm-.16-.035a6.599 6.599 0 0 1 .283.127c.02.01.019.01 0-.001a1.242 1.242 0 0 1-.123-.091l4.437-5.414c-.727-.596-1.56-.939-1.918-1.088l-2.68 6.467Zm-.51-.204c.201.08.362.143.51.204l2.679-6.467c-.211-.087-.428-.173-.618-.248l-2.572 6.51Zm-6.44-5.03c1.85 3.311 4.983 4.454 6.44 5.03l2.57-6.51c-1.598-.632-2.401-1.044-2.9-1.935l-6.11 3.414Zm-4.8-7.16c1.566 2.073 3.435 4.716 4.8 7.16l6.11-3.415c-1.596-2.858-3.689-5.798-5.326-7.965l-5.585 4.22Zm-1.956-2.505c.492.61 1.18 1.478 1.955 2.505l5.585-4.22a108.354 108.354 0 0 0-2.092-2.68l-5.448 4.395Zm-.576-.706c.134.162.33.401.576.706l5.448-4.395c-.265-.328-.48-.59-.629-.77l-5.395 4.46Zm-.004-.004.004.004 5.395-4.46-.004-.004-5.395 4.46Zm1.232-16.407c-.29 5.187-1.307 10.91-1.923 13.304l6.778 1.746c.733-2.844 1.818-9.022 2.134-14.658l-6.99-.392Zm-.243-6.687c.332 1.59.396 3.95.243 6.687l6.989.392c.163-2.906.143-6.003-.379-8.508l-6.853 1.43Zm-.428-1.266c.07.097.26.457.428 1.266l6.853-1.429c-.257-1.231-.707-2.689-1.603-3.932L60.07 7.682Zm.704.29a1.101 1.101 0 0 1-.52-.148c-.15-.087-.2-.165-.184-.142l5.678-4.095c-.997-1.382-2.644-2.586-4.887-2.614l-.087 7Zm-.591.219c.222-.104.39-.163.505-.195.117-.031.14-.023.086-.023l.087-7c-1.422-.017-2.696.434-3.642.876l2.964 6.342Zm-1.696 1.043c.67-.485 1.239-.83 1.696-1.043L57.22 1.849c-.993.464-1.956 1.077-2.836 1.714l4.104 5.67Zm-4.267 3.742c1.436-1.426 2.93-2.774 4.267-3.742l-4.104-5.67c-1.761 1.274-3.547 2.908-5.095 4.444l4.932 4.968Zm-5.015 5.461a87.945 87.945 0 0 1 5.015-5.46l-4.932-4.969a94.922 94.922 0 0 0-5.44 5.923l5.357 4.507Zm-1.63-5.592c-1.912-.6-3.938-.933-6.034-.96l-.086 7a13.99 13.99 0 0 1 4.023.639l2.096-6.679Zm-6.034-.96a20.99 20.99 0 0 0-6.045.808l1.927 6.73a13.99 13.99 0 0 1 4.032-.538l.086-7Zm-12.691.778a87.965 87.965 0 0 1 4.877 5.581l5.465-4.373a94.944 94.944 0 0 0-5.29-6.053l-5.052 4.845Zm-4.174-3.846c1.314 1.001 2.773 2.385 4.174 3.846l5.052-4.845c-1.51-1.573-3.254-3.25-4.983-4.569l-4.243 5.568Zm-1.67-1.084c.452.224 1.013.583 1.67 1.084l4.243-5.568c-.865-.659-1.812-1.294-2.794-1.783l-3.119 6.267Zm-.586-.233c-.053 0-.03-.008.086.026.115.034.28.097.5.207l3.12-6.267c-.936-.465-2.198-.948-3.62-.966l-.086 7Z" fill="#fff"/><path d="M76.086 18.15c-.083 5.957-4.979 10.719-10.936 10.636 5.957.083 10.719 4.979 10.636 10.936.083-5.957 4.979-10.719 10.936-10.636-5.957-.083-10.719-4.979-10.636-10.936Z" fill="#fff" stroke="#fff" stroke-width="7" stroke-linecap="round" stroke-linejoin="round"/><path d="M76.086 18.15c-.083 5.957-4.979 10.719-10.936 10.636 5.957.083 10.719 4.979 10.636 10.936.083-5.957 4.979-10.719 10.936-10.636-5.957-.083-10.719-4.979-10.636-10.936Z" fill="#fff" stroke="#000" stroke-width="1.3" stroke-linecap="round" stroke-linejoin="round"/><path d="M75.706 50.077c-1.962-1.011-1.426-1.728-1.426-1.728 6.038-4.137-1.556-1.927-4.517-7.228-2.961-5.3-7.955-11.217-7.955-11.217 1.326-4.804 4.57-25.144-.692-25.209-4.362-.054-14.142 11.83-14.275 11.993a17.09 17.09 0 0 0-5.321-.917 17.092 17.092 0 0 0-5.342.785c-.13-.165-9.614-12.287-13.975-12.34-5.263-.065-2.52 20.349-1.314 25.183 0 0-5.137 5.793-8.229 11.018-3.09 5.226-10.628 2.83-4.693 7.114 0 0 .517.73-1.468 1.693-1.986.963-3.717 1.862-.836 3.345 2.882 1.483 3.729 2.152 2.652 4.112-1.077 1.961 4.349-.538 8.888-.482 4.54.056 9.556 4.131 16.134 4.212 0 0 3.462 2.083 7.606 2.134 4.145.05 7.657-1.946 7.657-1.946 6.578.082 11.693-3.87 16.233-3.813 4.539.056 9.902 2.688 8.874.701-1.029-1.986-.165-2.634 2.752-4.045 2.917-1.412 1.208-2.354-.753-3.365Z" fill="#FF7139"/><path d="M58.252 40.194a8.596 8.596 0 0 1-2.834-.834l-.92-.455a21.891 21.891 0 0 1-5.477-3.849l-.308-.296a4.774 4.774 0 0 0-2.39-1.244l-5.01-.982-5.032.858a4.774 4.774 0 0 0-2.42 1.185l-.316.289a21.89 21.89 0 0 1-5.57 3.712l-.931.432c-.9.418-1.866.676-2.854.765a1.848 1.848 0 0 0-1.683 1.817l-.007.609a16.152 16.152 0 0 0 15.952 16.35l5.08.062a16.152 16.152 0 0 0 16.35-15.952l.008-.608a1.848 1.848 0 0 0-1.638-1.859ZM13.853 55.263c-.316-.136-.614-.281-.61-.554.004-.356.235-.846.49-1.3.16-.284.328-.555.456-.769.54-.905.096-1.543-.631-1.942a3.996 3.996 0 0 0-.887-.346c-1.53-.407-.786-1.905.027-2.698.812-.792-.036-1.908-.823-2.115-.787-.208-1.375-.51-1.367-1.193.008-.683.648-1.876 1.568-3.087l.003-.005c-3.341 4.13-9.7 2.242-4.11 6.276 0 0 .517.73-1.469 1.693-1.986.962-3.717 1.862-.835 3.345 2.881 1.483 3.728 2.151 2.651 4.112-.822 1.497 2.146.395 5.616-.185.186-.031.373-.061.562-.089.053-.21.09-.404.091-.545.004-.301-.376-.444-.732-.598ZM68.206 55.937c.32-.129.62-.267.624-.539.004-.356-.215-.852-.458-1.312-.153-.288-.315-.563-.437-.78-.519-.917-.058-1.545.678-1.926.273-.14.582-.25.896-.324 1.538-.369.832-1.885.04-2.697-.793-.813.082-1.907.874-2.095.792-.188 1.388-.476 1.396-1.159.008-.682-.602-1.89-1.491-3.125l-.004-.005c3.239 4.212 9.642 2.48 3.955 6.376 0 0-.535.717 1.427 1.729 1.961 1.01 3.67 1.953.752 3.364-2.917 1.412-3.78 2.06-2.752 4.046.785 1.516-2.155.342-5.61-.324-.185-.036-.371-.07-.559-.102a2.564 2.564 0 0 1-.078-.548c.004-.3.387-.434.747-.579Z" fill="#fff"/><path d="M44.261 31.609a1.55 1.55 0 0 0-.487-.085l-4.893-.06a1.547 1.547 0 0 0-.489.073c-.708.224-2.557.996-2.582 2.951-.034 2.763 3.392 5.322 5.415 5.347 2.023.025 5.51-2.449 5.544-5.212.025-1.954-1.806-2.772-2.508-3.014Z" fill="#000"/><path d="M53.62 28.97s-4.248.25-5.643 3.983c0 0 5.781-1.897 8.228-.241" stroke="#000" stroke-width="1.3" stroke-linecap="round" stroke-linejoin="round"/><path d="M30.522 35.31a3.956 3.956 0 1 0 .097-7.912 3.956 3.956 0 0 0-.097 7.912Z" fill="#000"/><path d="M29.562 31.403a1.363 1.363 0 1 0 .033-2.726 1.363 1.363 0 0 0-.033 2.726Z" fill="#fff"/><path d="M49.312 40.524c-2.598-.032-4.692 1.636-8.113 1.594-3.42-.042-5.472-1.762-8.07-1.794-2.599-.032-2.17 2.523-1.886 3.48.285.958 1.977 5.124 9.871 5.221 7.895.098 9.69-4.025 9.997-4.976.308-.95.8-3.493-1.799-3.525Z" fill="#6A1F26" stroke="#000" stroke-width="1.3" stroke-linecap="round" stroke-linejoin="round"/><path d="M44.36 45.427c-.839-.01-.963.112-1.682.35-.718.237-1.524.178-1.524.178s-.806.04-1.519-.216c-.712-.255-.834-.38-1.673-.39-.838-.011-2.181.385-2.211 2.768 1.356.524 3.105.886 5.365.914 2.26.028 4.018-.291 5.387-.782.029-2.383-1.304-2.812-2.143-2.822Z" fill="#DE1764" stroke="#000" stroke-width="1.3" stroke-linecap="round" stroke-linejoin="round"/><path d="M34.231 43.623c.662.274 1.514-1.29 2.091-2.588-1.064-.369-2.079-.694-3.193-.707h-.063c.16 1.303.494 3.017 1.165 3.295ZM48.127 43.791c-.668.258-1.481-1.326-2.027-2.638 1.074-.343 2.096-.643 3.21-.629.022 0 .041.002.063.003-.192 1.297-.568 3.003-1.246 3.264Z" fill="#fff" stroke="#000" stroke-width="1.3" stroke-linecap="round" stroke-linejoin="round"/><path d="M24.955 11.95c1.838-1.107 3.79-1.646 5.559-1.879-2.874-2.963-6.194-5.828-8.31-5.854-2.917-.036-3.374 6.22-2.997 12.628a23.033 23.033 0 0 1 5.748-4.896ZM58.172 12.359c-1.81-1.151-3.75-1.738-5.511-2.015 2.945-2.89 6.335-5.673 8.45-5.647 2.918.036 3.221 6.302 2.686 12.698a23.03 23.03 0 0 0-5.625-5.036Z" fill="#000" stroke="#000" stroke-width="1.3" stroke-linecap="round" stroke-linejoin="round"/><path d="M52.688 20.109a17.045 17.045 0 0 0-11.175-4.341 17.046 17.046 0 0 0-11.28 4.064M23.608 26.634s-1.981 1.914-2.715 2.763M59.163 27.076s1.934 1.962 2.647 2.829" stroke="#000" stroke-width="1.3" stroke-linecap="round" stroke-linejoin="round"/><path d="M48.598 60.6c6.579.081 11.694-3.87 16.233-3.813 4.54.056 9.902 2.688 8.874.701-1.028-1.986-.165-2.633 2.752-4.045s1.209-2.354-.753-3.365c-1.961-1.011-1.426-1.728-1.426-1.728 6.038-4.137-1.555-1.928-4.517-7.228-2.961-5.3-7.954-11.217-7.954-11.217 1.325-4.804 4.57-25.144-.693-25.209-4.361-.054-14.142 11.83-14.275 11.993a17.095 17.095 0 0 0-5.321-.918 17.093 17.093 0 0 0-5.342.786c-.13-.165-9.614-12.287-13.975-12.34-5.263-.065-2.52 20.349-1.314 25.183 0 0-5.137 5.793-8.228 11.019-3.091 5.225-10.628 2.83-4.694 7.113 0 0 .518.73-1.468 1.693-1.986.962-3.717 1.862-.836 3.345 2.882 1.483 3.729 2.152 2.652 4.112-1.077 1.961 4.35-.538 8.888-.482 4.54.056 9.556 4.131 16.135 4.212" stroke="#000" stroke-width="1.3" stroke-linecap="round" stroke-linejoin="round"/><path d="M34 61c2.5 1.51 8.8 3.622 14 0" stroke="#000" stroke-width="1.3" stroke-linecap="round"/></svg>
