<svg width="95" height="88" fill="none" xmlns="http://www.w3.org/2000/svg"><path fill-rule="evenodd" clip-rule="evenodd" d="M22.33 5.635a25.545 25.545 0 0 1 19.354-.907 25.563 25.563 0 0 1 13.757 11.591 25.446 25.446 0 0 1 8.216-1.77 25.636 25.636 0 0 1 18.27 6.49 25.427 25.427 0 0 1 5.947 7.877 25.126 25.126 0 0 1 2.479 9.538 24.918 24.918 0 0 1-6.463 18.198 25.128 25.128 0 0 1-7.944 5.838l-38.27 17.88a6.69 6.69 0 0 1-8.853-3.144L10.405 39.21a25.017 25.017 0 0 1-1.082-19.29A25.018 25.018 0 0 1 22.331 5.635Zm14.876 11.702a12.165 12.165 0 0 0-9.212.42 11.637 11.637 0 0 0-6.062 6.642 11.637 11.637 0 0 0 .515 8.977l15.542 32.08 32.295-15.089h.001A11.748 11.748 0 0 0 74 47.637a11.54 11.54 0 0 0 2.994-8.428 11.749 11.749 0 0 0-1.162-4.46l-.001-.003a12.044 12.044 0 0 0-2.819-3.73 12.257 12.257 0 0 0-8.732-3.102 12.043 12.043 0 0 0-4.54 1.117l-4.591 2.145a6.69 6.69 0 0 1-8.853-3.145l-2.208-4.558a12.165 12.165 0 0 0-6.882-6.137Z" fill="#fff"/><path d="M82.459 31.564a18.736 18.736 0 0 0-4.383-5.804 18.946 18.946 0 0 0-13.501-4.795c-2.45.114-4.85.705-7.062 1.739l-4.59 2.144-2.208-4.559a18.855 18.855 0 0 0-10.663-9.524 18.855 18.855 0 0 0-14.283.664 18.327 18.327 0 0 0-9.535 10.463 18.327 18.327 0 0 0 .799 14.134l2.208 4.558 16.21 33.458 33.682-15.737 4.59-2.144a18.437 18.437 0 0 0 5.829-4.283 18.228 18.228 0 0 0 4.728-13.313 18.438 18.438 0 0 0-1.821-7Z" fill="#FF4F5F" stroke="#333336" stroke-width="2" stroke-linecap="round" stroke-linejoin="round"/></svg>
