<svg width="72" height="66" viewBox="0 0 72 66" fill="none" xmlns="http://www.w3.org/2000/svg"><path fill-rule="evenodd" clip-rule="evenodd" d="M10.77 3.355A21.427 21.427 0 0 1 26.767.48a21.442 21.442 0 0 1 12.711 8.133 21.345 21.345 0 0 1 6.638-2.372A21.503 21.503 0 0 1 62.02 9.636a21.328 21.328 0 0 1 5.81 5.9 21.081 21.081 0 0 1 3.106 7.66 20.904 20.904 0 0 1-3.382 15.841 21.078 21.078 0 0 1-5.966 5.727L31.721 63.826a5.612 5.612 0 0 1-7.707-1.645L4.532 32.584A20.985 20.985 0 0 1 1.519 16.66 20.985 20.985 0 0 1 10.77 3.355Zm13.653 8.102a10.204 10.204 0 0 0-7.614 1.359 9.761 9.761 0 0 0-4.314 6.187 9.762 9.762 0 0 0 1.412 7.41l16.44 24.975L55.55 35.302l.001-.001a9.854 9.854 0 0 0 2.79-2.676 9.677 9.677 0 0 0 1.567-7.337 9.855 9.855 0 0 0-1.455-3.582l-.002-.002a10.102 10.102 0 0 0-2.752-2.793 10.282 10.282 0 0 0-7.602-1.623c-1.308.235-2.549.72-3.654 1.426l-3.582 2.287a5.612 5.612 0 0 1-7.707-1.646l-2.336-3.549a10.204 10.204 0 0 0-6.396-4.35Z" fill="#fff"/><path d="M63.612 18.33a15.714 15.714 0 0 0-4.28-4.346 15.892 15.892 0 0 0-11.754-2.51 15.715 15.715 0 0 0-5.682 2.22l-3.582 2.287-2.336-3.55a15.816 15.816 0 0 0-9.911-6.752 15.816 15.816 0 0 0-11.805 2.117 15.373 15.373 0 0 0-6.783 9.746A15.373 15.373 0 0 0 9.69 29.21l2.336 3.549 17.146 26.048L55.46 42.029l3.582-2.286a15.465 15.465 0 0 0 4.378-4.201 15.29 15.29 0 0 0 2.474-11.59 15.467 15.467 0 0 0-2.282-5.622Z" fill="#FF4F5F" stroke="#333336" stroke-width="1.5" stroke-linecap="round" stroke-linejoin="round"/></svg>
