<svg width="146" height="108" viewBox="0 0 146 108" fill="none" xmlns="http://www.w3.org/2000/svg"><g filter="url(#a)"><circle cx="85.451" cy="42.748" transform="rotate(160.257 85.451 42.748)" fill="#F8F6F4" r="33.423"/><circle cx="85.45" cy="42.748" r="27.232" transform="rotate(160.257 85.45 42.748)" fill="url(#b)" stroke="#333336" stroke-width="1.5"/><path d="M73.02 48.052c-2.665-7.422.858-15.478 7.868-17.994 7.01-2.515 14.852 1.462 17.515 8.884" stroke="#333336" stroke-width="1.485" stroke-linecap="round"/><path d="m92.441 48.87-1.22-3.4M83.945 51.919l-1.22-3.399" stroke="#333336" stroke-width="2.228" stroke-linecap="round"/></g><path fill-rule="evenodd" clip-rule="evenodd" d="M10.77 45.355a21.427 21.427 0 0 1 15.996-2.875 21.442 21.442 0 0 1 12.711 8.133 21.343 21.343 0 0 1 6.638-2.372 21.503 21.503 0 0 1 15.905 3.395 21.327 21.327 0 0 1 5.81 5.9 21.081 21.081 0 0 1 3.106 7.66 20.904 20.904 0 0 1-3.382 15.841 21.078 21.078 0 0 1-5.966 5.727l-29.867 19.062a5.612 5.612 0 0 1-7.707-1.645L4.532 74.584A20.985 20.985 0 0 1 1.519 58.66a20.985 20.985 0 0 1 9.252-13.305Zm13.653 8.102a10.204 10.204 0 0 0-7.614 1.359 9.761 9.761 0 0 0-4.314 6.187 9.762 9.762 0 0 0 1.412 7.41l16.44 24.975L55.55 77.302l.001-.001a9.854 9.854 0 0 0 2.79-2.676 9.677 9.677 0 0 0 1.567-7.337 9.855 9.855 0 0 0-1.455-3.582l-.002-.002a10.102 10.102 0 0 0-2.752-2.793 10.282 10.282 0 0 0-7.602-1.623c-1.308.235-2.549.72-3.654 1.426l-3.582 2.287a5.612 5.612 0 0 1-7.707-1.645l-2.336-3.55a10.204 10.204 0 0 0-6.396-4.35Z" fill="#fff"/><path d="M63.612 60.33a15.714 15.714 0 0 0-4.28-4.346 15.892 15.892 0 0 0-11.754-2.51 15.715 15.715 0 0 0-5.682 2.22l-3.582 2.287-2.336-3.55a15.815 15.815 0 0 0-9.911-6.752 15.816 15.816 0 0 0-11.805 2.117 15.373 15.373 0 0 0-6.783 9.746A15.373 15.373 0 0 0 9.69 71.21l2.336 3.549 17.146 26.048L55.46 84.029l3.582-2.286a15.465 15.465 0 0 0 4.378-4.201 15.29 15.29 0 0 0 2.474-11.59 15.467 15.467 0 0 0-2.282-5.622Z" fill="#FF4F5F" stroke="#333336" stroke-width="1.5" stroke-linecap="round" stroke-linejoin="round"/><defs><linearGradient id="b" x1="85.45" y1="14.765" x2="85.45" y2="70.73" gradientUnits="userSpaceOnUse"><stop stop-color="#FF7C3F"/><stop offset="1" stop-color="#FFE17A"/></linearGradient><filter id="a" x="49.255" y="6.551" width="96.356" height="95.435" filterUnits="userSpaceOnUse" color-interpolation-filters="sRGB"><feFlood flood-opacity="0" result="BackgroundImageFix"/><feColorMatrix in="SourceAlpha" values="0 0 0 0 0 0 0 0 0 0 0 0 0 0 0 0 0 0 127 0" result="hardAlpha"/><feOffset dx=".922" dy=".922"/><feGaussianBlur stdDeviation="1.843"/><feColorMatrix values="0 0 0 0 0 0 0 0 0 0 0 0 0 0 0 0 0 0 0.05 0"/><feBlend in2="BackgroundImageFix" result="effect1_dropShadow_6801_8168"/><feColorMatrix in="SourceAlpha" values="0 0 0 0 0 0 0 0 0 0 0 0 0 0 0 0 0 0 127 0" result="hardAlpha"/><feOffset dx="4.608" dy="3.687"/><feGaussianBlur stdDeviation="3.226"/><feColorMatrix values="0 0 0 0 0 0 0 0 0 0 0 0 0 0 0 0 0 0 0.04 0"/><feBlend in2="effect1_dropShadow_6801_8168" result="effect2_dropShadow_6801_8168"/><feColorMatrix in="SourceAlpha" values="0 0 0 0 0 0 0 0 0 0 0 0 0 0 0 0 0 0 127 0" result="hardAlpha"/><feOffset dx="10.138" dy="9.217"/><feGaussianBlur stdDeviation="4.147"/><feColorMatrix values="0 0 0 0 0 0 0 0 0 0 0 0 0 0 0 0 0 0 0.02 0"/><feBlend in2="effect2_dropShadow_6801_8168" result="effect3_dropShadow_6801_8168"/><feColorMatrix in="SourceAlpha" values="0 0 0 0 0 0 0 0 0 0 0 0 0 0 0 0 0 0 127 0" result="hardAlpha"/><feOffset dx="17.512" dy="16.59"/><feGaussianBlur stdDeviation="4.608"/><feColorMatrix values="0 0 0 0 0 0 0 0 0 0 0 0 0 0 0 0 0 0 0.01 0"/><feBlend in2="effect3_dropShadow_6801_8168" result="effect4_dropShadow_6801_8168"/><feBlend in="SourceGraphic" in2="effect4_dropShadow_6801_8168" result="shape"/></filter></defs></svg>
