<svg width="41" height="55" fill="none" xmlns="http://www.w3.org/2000/svg"><path fill-rule="evenodd" clip-rule="evenodd" d="M24.987 1.441H6.144a4.711 4.711 0 0 0-4.711 4.711v42.399a4.711 4.711 0 0 0 4.71 4.711H34.41a4.711 4.711 0 0 0 4.711-4.711V15.574L24.987 1.441Z" fill="#333336" stroke="#F8F6F4" stroke-width="1.8" stroke-linecap="round" stroke-linejoin="round"/><path fill-rule="evenodd" clip-rule="evenodd" d="M24.258 2.172v14.133H38.39" fill="#333336"/><path d="M24.258 2.172v14.133H38.39m-21.951 22.39h-4.14a2.07 2.07 0 1 0 0 4.14h2.07a2.07 2.07 0 0 0 2.07-2.07v-2.07Zm12.418-2.07h-4.14a2.07 2.07 0 0 0 0 4.14h2.07a2.07 2.07 0 0 0 2.07-2.07v-2.07Z" stroke="#F8F6F4" stroke-width="1.8" stroke-linecap="round" stroke-linejoin="round"/><path d="M16.438 38.695V26.277l12.418-2.07v12.419" stroke="#F8F6F4" stroke-width="1.8" stroke-linecap="round" stroke-linejoin="round"/></svg>
