<svg width="259" height="174" viewBox="0 0 259 174" fill="none" xmlns="http://www.w3.org/2000/svg"><g filter="url(#a)"><path d="m80.34 87.235-.749-12.603c-.312-5.242-2.657-10.149-6.52-13.638-3.863-3.492-8.928-5.28-14.077-4.973-5.15.306-9.966 2.683-13.388 6.606-3.422 3.923-5.17 9.074-4.858 14.315l.75 12.604" stroke="#fff" stroke-width="13.8" stroke-miterlimit="10"/><path d="m90.456 88.112-58.91 3.504a4.535 4.535 0 0 0-4.264 4.791l2.545 42.803a4.537 4.537 0 0 0 4.802 4.253l58.91-3.504a4.535 4.535 0 0 0 4.264-4.791l-2.546-42.804a4.536 4.536 0 0 0-4.801-4.252Z" fill="#fff" stroke="#fff" stroke-width="13.8" stroke-miterlimit="10"/><path d="m80.498 88.5-.907-13.868c-.312-5.242-2.657-10.149-6.52-13.638-3.863-3.492-8.928-5.28-14.077-4.973-5.15.306-9.966 2.683-13.388 6.606-3.422 3.923-5.17 9.074-4.858 14.315l.907 13.868" stroke="#333336" stroke-width="1.2" stroke-miterlimit="10"/><path d="m90.456 88.112-58.91 3.504a4.535 4.535 0 0 0-4.264 4.791l2.545 42.803a4.537 4.537 0 0 0 4.802 4.253l58.91-3.504a4.535 4.535 0 0 0 4.264-4.791l-2.546-42.804a4.536 4.536 0 0 0-4.801-4.252Z" fill="#0090ED" stroke="#333336" stroke-width="1.2" stroke-miterlimit="10"/><path fill-rule="evenodd" clip-rule="evenodd" d="M62.13 106.36c-3.068-3.211-7.9-3.836-11.306-.527-3.406 3.31-3.604 8.517-.567 12.011 2.526 2.905 10.002 8.904 12.45 10.844.275.217.412.326.566.362.135.032.28.024.41-.024.149-.055.272-.179.518-.427 2.202-2.216 8.914-9.059 11.077-12.243 2.602-3.83 1.848-9.013-1.986-11.859s-8.499-1.689-11.163 1.863Z" fill="#F8F6F4" stroke="#333336" stroke-width="1.2" stroke-linecap="round" stroke-linejoin="round"/></g><g filter="url(#b)"><path d="m226.987 46.247-41.751-3.908c-6.734-.63-12.791 4.237-13.424 10.99l-8.486 90.669c-.633 6.762 4.418 12.66 11.15 13.29l41.751 3.909c6.735.63 12.792-4.238 13.424-10.991l8.487-90.668c.633-6.763-4.419-12.66-11.151-13.29Z" fill="#fff" stroke="#fff" stroke-width="7"/><path d="m184.91 45.824 41.751 3.908c4.863.455 8.439 4.697 7.992 9.48l-8.487 90.668c-.447 4.775-4.749 8.287-9.612 7.832l-41.752-3.908c-4.863-.455-8.439-4.697-7.992-9.48l8.487-90.669c.447-4.775 4.749-8.286 9.613-7.831Z" fill="#FFD567" stroke="#181818" stroke-width="1.2"/><path d="m185.185 49.704 40.497 3.79c3.08.29 5.336 3.142 5.034 6.377l-8.281 88.468c-.302 3.228-3.049 5.619-6.13 5.331l-40.497-3.791c-3.081-.288-5.337-3.141-5.034-6.375l8.281-88.469c.302-3.227 3.049-5.62 6.13-5.33Z" fill="#FFFF98" stroke="#181818" stroke-width="1.2"/><path d="M215.945 101.125c-.777 8.296-8.132 14.392-16.428 13.616-8.296-.777-14.393-8.133-13.616-16.429.776-8.296 8.132-14.392 16.428-13.616 8.296.777 14.393 8.133 13.616 16.429Z" fill="#FFD567" stroke="#181818" stroke-width="1.2"/><path d="M208.647 99.982c-.42 4.489-4.194 7.806-8.433 7.409-4.24-.397-7.332-4.356-6.912-8.845M198.79 94.85l-.192 2.053M203.925 95.33l-.192 2.053" stroke="#181818" stroke-width="1.2" stroke-linecap="round"/><path d="m189.947 146.771 13.035 1.22-13.035-1.22Z" fill="#F8F6F4"/><path d="m189.947 146.771 13.035 1.22" stroke="#181818" stroke-width="1.2" stroke-linecap="round" stroke-linejoin="round"/></g><g filter="url(#c)"><mask id="d" maskUnits="userSpaceOnUse" x="59.282" y="5" width="117" height="87" fill="#000"><path fill="#fff" d="M59.282 5h117v87h-117z"/><path fill-rule="evenodd" clip-rule="evenodd" d="M163.544 61.5 85.65 13.87c-5.996-3.666-13.825-1.778-17.496 4.224-3.67 6.003-1.776 13.836 4.214 17.498l77.893 47.63c5.997 3.666 13.83 1.772 17.496-4.224 3.667-5.997 1.776-13.836-4.213-17.499Z"/></mask><path fill-rule="evenodd" clip-rule="evenodd" d="M163.544 61.5 85.65 13.87c-5.996-3.666-13.825-1.778-17.496 4.224-3.67 6.003-1.776 13.836 4.214 17.498l77.893 47.63c5.997 3.666 13.83 1.772 17.496-4.224 3.667-5.997 1.776-13.836-4.213-17.499Z" fill="#fff"/><path d="m85.65 13.87 3.13-5.118-3.13 5.119Zm77.894 47.63-3.13 5.118 3.13-5.118Zm-95.39-43.406-5.118-3.13 5.118 3.13Zm4.214 17.498-3.13 5.12 3.13-5.12Zm77.893 47.63 3.13-5.12-3.13 5.12Zm17.496-4.224-5.119-3.13 5.119 3.13ZM82.52 18.989l77.894 47.63 6.26-10.238L88.78 8.75 82.52 18.99Zm-9.247 2.235a6.723 6.723 0 0 1 9.247-2.235l6.26-10.237c-8.825-5.397-20.347-2.615-25.745 6.212l10.238 6.26Zm2.225 9.25a6.727 6.727 0 0 1-2.225-9.25l-10.237-6.26c-5.4 8.83-2.615 20.356 6.202 25.747l6.26-10.237Zm77.893 47.629-77.893-47.63-6.26 10.238 77.893 47.63 6.26-10.238Zm9.247-2.235a6.727 6.727 0 0 1-9.247 2.235l-6.26 10.237c8.828 5.398 20.352 2.607 25.745-6.212l-10.238-6.26Zm-2.224-9.25c3.16 1.933 4.163 6.079 2.224 9.25l10.238 6.26c5.394-8.822 2.616-20.355-6.202-25.747l-6.26 10.237Z" fill="#fff" mask="url(#d)"/><path d="M163.03 61.266 85.137 13.637C79.14 9.971 71.31 11.858 67.64 17.861c-3.67 6.002-1.776 13.836 4.214 17.498l77.893 47.629c5.996 3.666 13.83 1.772 17.496-4.224 3.666-5.996 1.776-13.835-4.214-17.498Z" fill="#FF8AC6" stroke="#333336" stroke-width="1.2" stroke-linecap="round" stroke-linejoin="round"/><path d="m91.239 27.072-4.608 1.802-.035.057 4.39 1.942-1.118 1.829-3.764-2.967-.034.057.607 4.81-2.289-.07.687-4.752-.05-.031-4.065 2.722-.942-1.906 4.558-1.72.035-.057-4.29-1.924 1.118-1.829 3.643 2.927.034-.057-.52-4.826 2.217.06-.621 4.759.05.03 3.942-2.762 1.055 1.906ZM103.916 34.824l-4.608 1.802-.034.057 4.391 1.942-1.119 1.829-3.764-2.967-.035.057.608 4.81-2.289-.07.687-4.752-.05-.031-4.065 2.721-.942-1.905 4.558-1.72.035-.057-4.29-1.924 1.118-1.829 3.642 2.927.035-.057-.52-4.826 2.216.06-.62 4.759.05.03 3.942-2.761 1.054 1.905ZM129.229 50.425l-4.608 1.803-.035.056 4.391 1.942-1.118 1.83-3.765-2.967-.034.056.608 4.81-2.289-.07.686-4.752-.05-.03-4.065 2.721-.941-1.906 4.558-1.72.034-.057-4.29-1.923 1.119-1.83 3.642 2.927.034-.056-.52-4.826 2.217.06-.621 4.758.05.03 3.943-2.761 1.054 1.905ZM116.601 42.58l-4.608 1.802-.035.056 4.391 1.943-1.118 1.829-3.765-2.967-.034.057.608 4.81-2.289-.07.693-4.749-.057-.034-4.065 2.721-.941-1.905 4.558-1.72.034-.058-4.29-1.923 1.119-1.83 3.642 2.927.034-.056-.52-4.826 2.217.06-.621 4.758.05.031 3.949-2.758 1.048 1.902ZM141.911 58.18l-4.608 1.803-.034.056 4.391 1.942-1.119 1.83-3.764-2.967-.035.056.608 4.81-2.289-.07.693-4.748-.056-.035-4.065 2.722-.942-1.906 4.558-1.72.035-.057-4.29-1.924 1.118-1.828 3.642 2.926.035-.057-.521-4.825 2.217.06-.621 4.758.051.03 3.948-2.757 1.048 1.901ZM153.967 65.552l-4.608 1.802-.035.057 4.391 1.942-1.118 1.829-3.764-2.967-.035.057.608 4.81-2.289-.07.693-4.749-.057-.034-4.064 2.722-.942-1.906 4.558-1.72.034-.057-4.289-1.924 1.118-1.829 3.642 2.927.035-.057-.521-4.826 2.217.06-.621 4.759.05.03 3.949-2.758 1.048 1.902Z" fill="#333336"/></g><g filter="url(#e)"><mask id="f" maskUnits="userSpaceOnUse" x="85.393" y="67.438" width="98.636" height="107.121" fill="#000"><path fill="#fff" d="M85.393 67.438h98.636v107.121H85.393z"/><path d="M116.604 148.703c7.085 4.247 15.391 7.424 26.117 9.989.213.051.432.079.652.084l.02.001a3.083 3.083 0 0 0 2.327-.979c1.068-1.14 2.151-2.268 3.234-3.399l.237-.248c2.299-2.403 4.668-4.879 6.861-7.449 4.436-5.195 7.615-10.381 9.719-15.859 1.933-5.032 2.205-9.818.824-14.641-1.753-6.119-3.407-12.375-5.011-18.445l-.161-.607c-.7-2.654-1.4-5.308-2.11-7.96l-.285-1.06a.81.81 0 0 0-.729-.601l-.176-.014a2.517 2.517 0 0 0-.429-.02c-5.612.268-9.978-2.056-13.358-7.1-.75-1.115-1.665-.87-2.164-.736l-7.762 2.08-8.754 2.345-19.053 5.106c-.993.266-1.443.81-1.501 1.823-.244 4.205-1.643 7.488-4.281 10.034-.82.788-1.764 1.464-2.77 2.18a55.92 55.92 0 0 0-1.436 1.047l-.032.025a.744.744 0 0 0-.269.786c.01.081.037.241.08.402l1.748 6.524a3900.857 3900.857 0 0 0 6.219 23.084c.338 1.219.916 2.524 1.73 3.877 2.219 3.707 5.462 6.705 10.513 9.731Z"/></mask><path d="M116.604 148.703c7.085 4.247 15.391 7.424 26.117 9.989.213.051.432.079.652.084l.02.001a3.083 3.083 0 0 0 2.327-.979c1.068-1.14 2.151-2.268 3.234-3.399l.237-.248c2.299-2.403 4.668-4.879 6.861-7.449 4.436-5.195 7.615-10.381 9.719-15.859 1.933-5.032 2.205-9.818.824-14.641-1.753-6.119-3.407-12.375-5.011-18.445l-.161-.607c-.7-2.654-1.4-5.308-2.11-7.96l-.285-1.06a.81.81 0 0 0-.729-.601l-.176-.014a2.517 2.517 0 0 0-.429-.02c-5.612.268-9.978-2.056-13.358-7.1-.75-1.115-1.665-.87-2.164-.736l-7.762 2.08-8.754 2.345-19.053 5.106c-.993.266-1.443.81-1.501 1.823-.244 4.205-1.643 7.488-4.281 10.034-.82.788-1.764 1.464-2.77 2.18a55.92 55.92 0 0 0-1.436 1.047l-.032.025a.744.744 0 0 0-.269.786c.01.081.037.241.08.402l1.748 6.524a3900.857 3900.857 0 0 0 6.219 23.084c.338 1.219.916 2.524 1.73 3.877 2.219 3.707 5.462 6.705 10.513 9.731Z" fill="#fff"/><path d="m142.721 158.692-1.395 5.835 1.395-5.835Zm-26.117-9.989 3.085-5.147h-.001l-3.084 5.147Zm-10.513-9.731 5.148-3.082-.007-.011-5.141 3.093Zm-1.73-3.877-5.787 1.584.002.009.003.009 5.782-1.602Zm-6.219-23.084 5.797-1.549-.001-.004-5.796 1.553Zm-1.748-6.524-5.796 1.553 5.796-1.553Zm-.08-.402 5.95-.773-.051-.395-.103-.385-5.796 1.553Zm.27-.786-3.63-4.778 3.63 4.778Zm.031-.025-3.626-4.78-.004.003 3.63 4.777Zm1.436-1.047-3.477-4.89h-.002l3.478 4.89Zm2.77-2.18 4.158 4.325.008-.007-4.166-4.318Zm4.281-10.034 5.99.347.001-.008-5.991-.34Zm20.554-6.929 1.553 5.796-1.553-5.796Zm8.754-2.345-1.553-5.796 1.553 5.796Zm7.762-2.08 1.553 5.795-1.553-5.795Zm2.164.735 4.984-3.34-.007-.01-4.977 3.35Zm13.358 7.102.285 5.993.027-.001.026-.002-.338-5.99Zm.429.019-.674 5.962.099.011.1.008.475-5.981Zm.176.014-.474 5.981.031.002.031.003.412-5.986Zm.729.6 5.796-1.553-5.796 1.553Zm.285 1.062-5.796 1.552 5.796-1.552Zm2.11 7.959-5.801 1.53.001.004 5.8-1.534Zm.161.607 5.801-1.533-5.801 1.533Zm5.011 18.445 5.768-1.652v-.001l-5.768 1.653Zm-.824 14.641-5.601-2.153v.002l5.601 2.151Zm-9.719 15.859-4.563-3.896-.001.001 4.564 3.895Zm-6.861 7.449-4.335-4.148 4.335 4.148Zm-.237.248-4.336-4.148 4.336 4.148Zm-3.234 3.399-4.38-4.101 4.38 4.101Zm-2.347.978.145-5.998h-.001l-.144 5.998Zm.02.001-.145 5.998h.001l.144-5.998Zm1.715-.473 3.196 5.078-3.196-5.078Zm-.992-5.448c-10.316-2.467-18.008-5.452-24.427-9.3l-6.17 10.293c7.752 4.647 16.672 8.016 27.807 10.678l2.79-11.671Zm-24.428-9.3c-4.501-2.697-6.89-5.061-8.449-7.666l-10.297 6.164c2.879 4.809 6.977 8.44 12.579 11.796l6.167-10.294Zm-8.456-7.677c-.591-.982-.923-1.788-1.089-2.386l-11.564 3.204c.51 1.839 1.333 3.644 2.37 5.367l10.283-6.185Zm-1.084-2.368a3881.464 3881.464 0 0 1-6.209-23.049l-11.593 3.098a3935.644 3935.644 0 0 0 6.228 23.119l11.574-3.168Zm-6.21-23.053-1.749-6.524-11.59 3.106 1.748 6.524 11.591-3.106Zm-1.749-6.524c.027.098.041.169.049.209.007.04.016.093.026.169l-11.9 1.546c.035.267.105.699.234 1.182l11.591-3.106Zm-1.976 5.142.032-.024-7.26-9.555-.032.024 7.26 9.555Zm.028-.022a52.54 52.54 0 0 1 1.288-.939l-6.957-9.777a63.6 63.6 0 0 0-1.583 1.156l7.252 9.56Zm1.286-.937c.951-.677 2.261-1.6 3.452-2.745l-8.317-8.65c-.448.43-1.027.86-2.088 1.615l6.953 9.78Zm3.46-2.752c3.887-3.751 5.788-8.538 6.105-14.005l-11.98-.695c-.17 2.943-1.068 4.723-2.457 6.064l8.332 8.636Zm6.106-14.013c-.017.301-.14 1.288-.961 2.285-.811.984-1.733 1.283-1.976 1.348l-3.106-11.591c-1.236.331-2.879 1.035-4.178 2.61-1.31 1.59-1.686 3.355-1.76 4.67l11.981.678Zm-2.937 3.633 19.053-5.105-3.106-11.591-19.053 5.105 3.106 11.591Zm19.053-5.105 8.754-2.346-3.106-11.59-8.754 2.345 3.106 11.59Zm8.754-2.346 7.762-2.08-3.106-11.59-7.762 2.08 3.106 11.59Zm7.762-2.08c.323-.086-.478.194-1.508.03a4.518 4.518 0 0 1-1.775-.689 3.9 3.9 0 0 1-1.084-1.05l9.955-6.701c-1.224-1.82-3.046-3.066-5.21-3.41-1.801-.287-3.308.182-3.484.23l3.106 11.59Zm-4.374-1.72c2.121 3.165 4.75 5.767 8.01 7.5 3.285 1.747 6.875 2.433 10.618 2.255l-.57-11.986c-1.868.088-3.268-.254-4.414-.864-1.171-.623-2.415-1.705-3.675-3.584l-9.969 6.679Zm18.681 9.752a4.065 4.065 0 0 1-.583-.01l1.348-11.923a8.48 8.48 0 0 0-1.441-.048l.676 11.981Zm-.384.01.177.014.949-11.962-.177-.014-.949 11.962Zm-4.415-3.814.284 1.061 11.591-3.105-.284-1.062-11.591 3.106Zm.284 1.061c.707 2.639 1.404 5.281 2.105 7.937l11.603-3.06c-.7-2.652-1.403-5.318-2.117-7.982l-11.591 3.105Zm2.106 7.94.16.608 11.602-3.067-.161-.608-11.601 3.068Zm.16.608c1.602 6.06 3.271 12.375 5.044 18.563l11.536-3.305c-1.733-6.05-3.371-12.245-4.978-18.325l-11.602 3.067Zm5.044 18.563c.994 3.471.848 6.922-.657 10.836l11.201 4.305c2.363-6.148 2.761-12.271.992-18.445l-11.536 3.304Zm-.657 10.838c-1.823 4.746-4.616 9.354-8.681 14.114l9.125 7.793c4.808-5.63 8.373-11.395 10.758-17.605l-11.202-4.302Zm-8.682 14.115c-2.064 2.419-4.314 4.773-6.632 7.196l8.671 8.295c2.278-2.381 4.766-4.98 7.089-7.701l-9.128-7.79Zm-6.632 7.196-.238.248 8.672 8.295.237-.248-8.671-8.295Zm-.238.248c-1.068 1.117-2.182 2.276-3.278 3.446l8.761 8.201c1.039-1.109 2.092-2.205 3.189-3.352l-8.672-8.295Zm-1.391 14.524h.021l.291-11.996-.021-.001-.291 11.997Zm.022 0a9.076 9.076 0 0 0 5.055-1.393l-6.393-10.155a2.922 2.922 0 0 1 1.626-.448l-.288 11.996Zm-1.909-11.078a2.92 2.92 0 0 1 .571-.47l6.393 10.155a9.098 9.098 0 0 0 1.797-1.484l-8.761-8.201Zm-39.23-50.165a5.256 5.256 0 0 1-1.897 5.544l-7.26-9.555a6.745 6.745 0 0 0-2.434 7.117l11.591-3.106Zm55.777-10.017a5.186 5.186 0 0 1-4.654-3.833l11.591-3.106a6.813 6.813 0 0 0-6.113-5.033l-.824 11.972Zm-16.561 71.012c.626.15 1.265.232 1.903.248l.288-11.997c.199.005.399.03.599.078l-2.79 11.671Z" fill="#fff" mask="url(#f)"/><mask id="g" fill="#fff"><path d="M116.604 148.703c7.085 4.247 15.391 7.424 26.117 9.989.213.051.432.079.652.084l.02.001a3.083 3.083 0 0 0 2.327-.979c1.068-1.14 2.151-2.268 3.234-3.399l.237-.248c2.299-2.403 4.668-4.879 6.861-7.449 4.436-5.195 7.615-10.381 9.719-15.859 1.933-5.032 2.205-9.818.824-14.641-1.753-6.119-3.407-12.375-5.011-18.445l-.161-.607c-.7-2.654-1.4-5.308-2.11-7.96l-.285-1.06a.81.81 0 0 0-.729-.601l-.176-.014a2.517 2.517 0 0 0-.429-.02c-5.612.268-9.978-2.056-13.358-7.1-.75-1.115-1.665-.87-2.164-.736l-7.762 2.08-8.754 2.345-19.053 5.106c-.993.266-1.443.81-1.501 1.823-.244 4.205-1.643 7.488-4.281 10.034-.82.788-1.764 1.464-2.77 2.18a55.92 55.92 0 0 0-1.436 1.047l-.032.025a.744.744 0 0 0-.269.786c.01.081.037.241.08.402l1.748 6.524a3900.857 3900.857 0 0 0 6.219 23.084c.338 1.219.916 2.524 1.73 3.877 2.219 3.707 5.462 6.705 10.513 9.731Z"/></mask><path d="M116.604 148.703c7.085 4.247 15.391 7.424 26.117 9.989.213.051.432.079.652.084l.02.001a3.083 3.083 0 0 0 2.327-.979c1.068-1.14 2.151-2.268 3.234-3.399l.237-.248c2.299-2.403 4.668-4.879 6.861-7.449 4.436-5.195 7.615-10.381 9.719-15.859 1.933-5.032 2.205-9.818.824-14.641-1.753-6.119-3.407-12.375-5.011-18.445l-.161-.607c-.7-2.654-1.4-5.308-2.11-7.96l-.285-1.06a.81.81 0 0 0-.729-.601l-.176-.014a2.517 2.517 0 0 0-.429-.02c-5.612.268-9.978-2.056-13.358-7.1-.75-1.115-1.665-.87-2.164-.736l-7.762 2.08-8.754 2.345-19.053 5.106c-.993.266-1.443.81-1.501 1.823-.244 4.205-1.643 7.488-4.281 10.034-.82.788-1.764 1.464-2.77 2.18a55.92 55.92 0 0 0-1.436 1.047l-.032.025a.744.744 0 0 0-.269.786c.01.081.037.241.08.402l1.748 6.524a3900.857 3900.857 0 0 0 6.219 23.084c.338 1.219.916 2.524 1.73 3.877 2.219 3.707 5.462 6.705 10.513 9.731Z" fill="#9059FF"/><path d="m142.721 158.692-.279 1.167.279-1.167Zm-26.117-9.989.617-1.03-.617 1.03Zm-10.513-9.731 1.029-.616-.001-.003-1.028.619Zm-1.73-3.877-1.158.317.001.003 1.157-.32Zm-6.219-23.084 1.16-.31-1.16.31Zm-1.748-6.524-1.16.311 1.16-.311Zm-.08-.402 1.19-.155-.01-.079-.02-.077-1.16.311Zm.27-.786-.727-.956.726.956Zm.031-.025-.725-.956v.001l.725.955Zm1.436-1.047-.696-.978.695.978Zm2.77-2.18.831.865.002-.002-.833-.863Zm4.281-10.034 1.198.069v-.002l-1.198-.067Zm20.554-6.929.31 1.16-.31-1.16Zm8.754-2.345-.31-1.16.31 1.16Zm7.762-2.08.31 1.159-.31-1.16Zm2.164.735.997-.668-.002-.002-.995.67Zm13.358 7.102.057 1.199.011-.001-.068-1.198Zm.429.019-.135 1.192.02.002.02.002.095-1.196Zm.176.014-.095 1.196h.013l.082-1.196Zm.729.6 1.16-.31-1.16.31Zm.285 1.062-1.159.31 1.159-.31Zm2.11 7.959-1.16.306 1.16-.306Zm.161.607 1.16-.306-1.16.306Zm5.011 18.445 1.154-.331-1.154.331Zm-.824 14.641-1.12-.431 1.12.431Zm-9.719 15.859-.913-.779.913.779Zm-6.861 7.449-.867-.83.867.83Zm-.237.248-.867-.83.867.83Zm-3.234 3.399-.876-.82.876.82Zm-2.347.978.029-1.199h-.001l-.028 1.199Zm.02.001-.029 1.199.001.001.028-1.2Zm1.715-.473.639 1.016-.639-1.016Zm-2.108-.779c-10.644-2.546-18.827-5.684-25.779-9.852l-1.234 2.059c7.219 4.327 15.647 7.543 26.455 10.127l.558-2.334Zm-25.779-9.852c-4.941-2.96-8.014-5.831-10.101-9.317l-2.059 1.232c2.351 3.928 5.766 7.052 10.927 10.144l1.233-2.059Zm-10.102-9.32c-.769-1.279-1.298-2.484-1.602-3.578l-2.313.64c.373 1.343 1 2.748 1.858 4.175l2.057-1.237Zm-1.601-3.575c-2.103-7.684-4.193-15.506-6.217-23.077l-2.318.62c2.023 7.57 4.115 15.399 6.22 23.091l2.315-.634Zm-6.217-23.077-1.748-6.525-2.318.622 1.748 6.524 2.318-.621Zm-1.748-6.525a2.054 2.054 0 0 1-.049-.246l-2.38.31c.015.118.05.332.11.558l2.319-.622Zm-.244.078.032-.024-1.452-1.911-.032.024 1.452 1.911Zm.031-.024c.462-.35.931-.688 1.406-1.026l-1.391-1.955c-.48.341-.973.696-1.465 1.069l1.45 1.912Zm1.406-1.025c.995-.708 2.012-1.434 2.906-2.293l-1.663-1.73c-.745.716-1.617 1.343-2.634 2.067l1.39 1.956Zm2.908-2.295c2.888-2.786 4.388-6.37 4.646-10.828l-2.396-.139c-.229 3.953-1.528 6.936-3.917 9.24l1.667 1.727Zm4.646-10.83c.02-.344.097-.458.128-.496.033-.04.137-.142.486-.235l-.622-2.319c-.644.173-1.261.476-1.716 1.028-.457.554-.634 1.219-.672 1.887l2.396.135Zm.614-.731 19.052-5.106-.621-2.318-19.053 5.106.622 2.318Zm19.052-5.106 8.755-2.345-.621-2.319-8.755 2.346.621 2.319Zm8.755-2.345 7.761-2.08-.621-2.318-7.761 2.08.621 2.318Zm7.761-2.08c.265-.07.387-.09.489-.074a.29.29 0 0 1 .119.047.957.957 0 0 1 .25.273l1.991-1.34c-.545-.81-1.242-1.233-1.983-1.35-.668-.107-1.252.063-1.487.126l.621 2.318Zm.857.244c1.776 2.651 3.851 4.645 6.276 5.934 2.429 1.292 5.143 1.84 8.136 1.699l-.114-2.398c-2.618.125-4.894-.355-6.896-1.42-2.006-1.067-3.805-2.757-5.408-5.15l-1.994 1.335Zm14.423 7.632c.036-.002.097-.001.226.013l.27-2.385a3.694 3.694 0 0 0-.631-.024l.135 2.396Zm.266.017.176.014.19-2.392-.176-.014-.19 2.392Zm-.159-.271.285 1.061 2.318-.621-.284-1.061-2.319.62Zm.285 1.061c.709 2.649 1.409 5.3 2.109 7.955l2.321-.612c-.7-2.654-1.401-5.31-2.112-7.964l-2.318.621Zm2.109 7.956.161.607 2.32-.613-.161-.608-2.32.614Zm.161.607c1.604 6.068 3.261 12.335 5.017 18.468l2.308-.661c-1.749-6.105-3.4-12.348-5.005-18.42l-2.32.613Zm5.017 18.468c1.304 4.553 1.058 9.072-.79 13.88l2.24.861c2.019-5.255 2.316-10.309.858-15.402l-2.308.661Zm-.79 13.88c-2.048 5.332-5.15 10.403-9.512 15.511l1.825 1.558c4.511-5.281 7.767-10.584 9.927-16.208l-2.24-.861Zm-9.512 15.511c-2.167 2.54-4.512 4.992-6.815 7.398l1.734 1.659c2.295-2.398 4.688-4.899 6.907-7.499l-1.826-1.558Zm-6.815 7.398-.237.248 1.734 1.659.237-.248-1.734-1.659Zm-.237.248c-1.08 1.129-2.17 2.263-3.243 3.409l1.753 1.64c1.061-1.134 2.139-2.255 3.224-3.39l-1.734-1.659Zm-4.744 6.407h.021l.058-2.399h-.02l-.059 2.399Zm.022.001c.841.02 1.67-.209 2.382-.657l-1.279-2.031a1.874 1.874 0 0 1-1.046.288l-.057 2.4Zm1.479-2.999c-.112.12-.239.225-.376.311l1.279 2.031c.313-.197.598-.434.85-.702l-1.753-1.64Zm-47.37-52.204a.455.455 0 0 1-.165.48l-1.452-1.911a1.945 1.945 0 0 0-.702 2.052l2.318-.621Zm60.743-16.048a.388.388 0 0 1-.348-.286l2.319-.621a2.014 2.014 0 0 0-1.806-1.487l-.165 2.394Zm-15.775 71.133c.296.071.599.11.902.117l.057-2.399a1.993 1.993 0 0 1-.401-.052l-.558 2.334Z" fill="#333336" mask="url(#g)"/><path stroke="#333336" stroke-width="1.2" d="m124.489 84.397 19.67 73.41"/></g><defs><filter id="a" x="14.373" y="45.087" width="96.339" height="113.284" filterUnits="userSpaceOnUse" color-interpolation-filters="sRGB"><feFlood flood-opacity="0" result="BackgroundImageFix"/><feColorMatrix in="SourceAlpha" values="0 0 0 0 0 0 0 0 0 0 0 0 0 0 0 0 0 0 127 0" result="hardAlpha"/><feOffset dy="2"/><feGaussianBlur stdDeviation="3"/><feComposite in2="hardAlpha" operator="out"/><feColorMatrix values="0 0 0 0 0 0 0 0 0 0 0 0 0 0 0 0 0 0 0.15 0"/><feBlend in2="BackgroundImageFix" result="effect1_dropShadow_7043_6169"/><feBlend in="SourceGraphic" in2="effect1_dropShadow_7043_6169" result="shape"/></filter><filter id="b" x="153.771" y="34.784" width="93.92" height="137.967" filterUnits="userSpaceOnUse" color-interpolation-filters="sRGB"><feFlood flood-opacity="0" result="BackgroundImageFix"/><feColorMatrix in="SourceAlpha" values="0 0 0 0 0 0 0 0 0 0 0 0 0 0 0 0 0 0 127 0" result="hardAlpha"/><feOffset dy="2"/><feGaussianBlur stdDeviation="3"/><feComposite in2="hardAlpha" operator="out"/><feColorMatrix values="0 0 0 0 0 0 0 0 0 0 0 0 0 0 0 0 0 0 0.15 0"/><feBlend in2="BackgroundImageFix" result="effect1_dropShadow_7043_6169"/><feBlend in="SourceGraphic" in2="effect1_dropShadow_7043_6169" result="shape"/></filter><filter id="c" x="54.281" y="1.999" width="127.347" height="97.092" filterUnits="userSpaceOnUse" color-interpolation-filters="sRGB"><feFlood flood-opacity="0" result="BackgroundImageFix"/><feColorMatrix in="SourceAlpha" values="0 0 0 0 0 0 0 0 0 0 0 0 0 0 0 0 0 0 127 0" result="hardAlpha"/><feOffset dy="2"/><feGaussianBlur stdDeviation="3"/><feComposite in2="hardAlpha" operator="out"/><feColorMatrix values="0 0 0 0 0 0 0 0 0 0 0 0 0 0 0 0 0 0 0.15 0"/><feBlend in2="BackgroundImageFix" result="effect1_dropShadow_7043_6169"/><feBlend in="SourceGraphic" in2="effect1_dropShadow_7043_6169" result="shape"/></filter><filter id="e" x="84.288" y="69.541" width="95.172" height="103.237" filterUnits="userSpaceOnUse" color-interpolation-filters="sRGB"><feFlood flood-opacity="0" result="BackgroundImageFix"/><feColorMatrix in="SourceAlpha" values="0 0 0 0 0 0 0 0 0 0 0 0 0 0 0 0 0 0 127 0" result="hardAlpha"/><feOffset dy="2"/><feGaussianBlur stdDeviation="3"/><feComposite in2="hardAlpha" operator="out"/><feColorMatrix values="0 0 0 0 0 0 0 0 0 0 0 0 0 0 0 0 0 0 0.15 0"/><feBlend in2="BackgroundImageFix" result="effect1_dropShadow_7043_6169"/><feBlend in="SourceGraphic" in2="effect1_dropShadow_7043_6169" result="shape"/></filter></defs></svg>
