<svg width="259" height="171" fill="none" xmlns="http://www.w3.org/2000/svg"><g filter="url(#a)"><mask id="b" maskUnits="userSpaceOnUse" x="129.788" y="14.441" width="65" height="65" fill="#000"><path fill="#fff" d="M129.788 14.441h65v65h-65z"/><path fill-rule="evenodd" clip-rule="evenodd" d="M162.364 72.552c14.127 0 25.576-11.442 25.576-25.555 0-14.114-11.449-25.556-25.576-25.556-14.128 0-25.576 11.442-25.576 25.556 0 7.547 3.273 14.33 8.48 19.008l.036.036.002-.002a25.49 25.49 0 0 0 17.058 6.513Z"/></mask><path fill-rule="evenodd" clip-rule="evenodd" d="M162.364 72.552c14.127 0 25.576-11.442 25.576-25.555 0-14.114-11.449-25.556-25.576-25.556-14.128 0-25.576 11.442-25.576 25.556 0 7.547 3.273 14.33 8.48 19.008l.036.036.002-.002a25.49 25.49 0 0 0 17.058 6.513Z" fill="#fff"/><path d="m145.268 66.005 4.476-4.477-.119-.12-.126-.113-4.231 4.71Zm.036.036-4.477 4.477 4.477 4.476 4.477-4.476-4.477-4.477Zm.002-.002 4.222-4.718-4.463-3.994-4.236 4.235 4.477 4.477Zm36.302-19.042c0 10.612-8.609 19.224-19.244 19.224v12.662c17.62 0 31.907-14.271 31.907-31.886h-12.663Zm-19.244-19.224c10.635 0 19.244 8.61 19.244 19.224h12.663c0-17.615-14.287-31.887-31.907-31.887v12.663Zm-19.245 19.224c0-10.613 8.61-19.224 19.245-19.224V15.11c-17.62 0-31.907 14.272-31.907 31.887h12.662Zm6.38 14.298c-3.927-3.528-6.38-8.623-6.38-14.298h-12.662c0 9.418 4.093 17.89 10.579 23.717l8.463-9.419Zm.282.269-.037-.036-8.953 8.953.036.037 8.954-8.954Zm-8.952-.002-.002.002 8.954 8.954.002-.002-8.954-8.954Zm21.535 4.659a19.162 19.162 0 0 1-12.836-4.9l-8.444 9.436a31.821 31.821 0 0 0 21.28 8.126V66.221Z" fill="#fff" mask="url(#b)"/><path d="M187.94 46.997c0 14.114-11.449 25.555-25.576 25.555-14.128 0-25.576-11.442-25.576-25.555 0-14.114 11.448-25.556 25.576-25.556 14.127 0 25.576 11.442 25.576 25.556Z" fill="#FF8AC6" stroke="#181818" stroke-width="1.2"/><path d="M162.85 34.521c9.897 0 16.25 7.358 18.165 12.486-1.745 5.625-8.181 11.999-18.165 11.999s-15.956-6.68-18.136-12.003c2.477-5.414 8.297-12.482 18.136-12.482Z" fill="#fff" stroke="#181818" stroke-width="1.2" stroke-linejoin="round"/><path d="M161.302 55.205a7.178 7.178 0 1 0 0-14.357 7.178 7.178 0 0 0 0 14.357Z" fill="#FF8AC6" stroke="#181818" stroke-width="1.2" stroke-linejoin="round"/><path d="m181.034 29.564-36.103 36.104" stroke="#181818" stroke-width="1.2"/></g><g filter="url(#c)"><path d="M192.856 88.39c6.407 1.07 10.879 6.263 13.331 12.525 2.484 6.342 3.209 14.417 1.813 22.777-1.396 8.359-4.707 15.76-9.117 20.95-4.355 5.126-10.272 8.583-16.679 7.513-6.407-1.07-10.878-6.263-13.331-12.526-2.483-6.341-3.209-14.417-1.813-22.776 1.397-8.359 4.707-15.76 9.117-20.95 4.355-5.126 10.272-8.583 16.679-7.513Z" fill="#fff" stroke="#fff" stroke-width="7.116"/><path d="M230.908 94.746c6.407 1.07 10.879 6.263 13.332 12.526 2.483 6.341 3.209 14.417 1.813 22.776-1.397 8.359-4.707 15.761-9.117 20.951-4.355 5.125-10.272 8.582-16.679 7.512-6.407-1.07-10.879-6.263-13.331-12.525-2.484-6.342-3.209-14.417-1.813-22.777 1.396-8.359 4.707-15.76 9.117-20.95 4.355-5.126 10.272-8.583 16.678-7.513Z" fill="#fff" stroke="#fff" stroke-width="7.116"/><path d="M203.346 122.914c1.294-7.746.583-15.045-1.583-20.575-2.171-5.543-5.752-9.207-10.145-9.94-4.393-.734-8.97 1.566-12.825 6.103-3.846 4.526-6.89 11.197-8.184 18.944-1.294 7.746-.583 15.045 1.583 20.575 2.171 5.543 5.752 9.207 10.145 9.941 4.393.733 8.97-1.567 12.825-6.104 3.845-4.526 6.89-11.197 8.184-18.944Z" fill="#fff" stroke="#333336" stroke-width="1.2"/><ellipse cx="179.813" cy="121.072" rx="9.715" ry="10.559" transform="rotate(9.483 179.813 121.072)" fill="#333336"/><ellipse cx="177.361" cy="116.076" rx="2.819" ry="3.064" transform="rotate(9.483 177.361 116.076)" fill="#fff"/><path d="M241.399 129.27c1.294-7.747.582-15.045-1.583-20.575-2.171-5.544-5.752-9.207-10.145-9.941s-8.97 1.567-12.825 6.104c-3.846 4.526-6.891 11.197-8.185 18.943-1.294 7.747-.582 15.045 1.584 20.575 2.171 5.544 5.752 9.207 10.144 9.941 4.393.734 8.971-1.567 12.825-6.104 3.846-4.526 6.891-11.197 8.185-18.943Z" fill="#fff" stroke="#333336" stroke-width="1.2"/><ellipse cx="217.865" cy="127.428" rx="9.715" ry="10.559" transform="rotate(9.483 217.865 127.428)" fill="#333336"/><ellipse cx="215.315" cy="122.206" rx="2.819" ry="3.064" transform="rotate(9.483 215.315 122.206)" fill="#fff"/></g><g filter="url(#d)" stroke-linecap="round" stroke-linejoin="round"><path d="M90.05 44.148a3.166 3.166 0 0 0-5.15-1.136 4.214 4.214 0 0 1-6.999-1.94 3.165 3.165 0 0 0-4.867-1.77 4.214 4.214 0 0 1-6.45-4.672 3.165 3.165 0 0 0-3.158-4.083 4.214 4.214 0 0 1-3.714-6.493 3.165 3.165 0 0 0-2.34-4.858C39.857 17.39 22.69 27.583 16.394 44.884 8.965 65.3 19.493 87.873 39.908 95.302c20.416 7.429 42.989-3.098 50.418-23.514a39.198 39.198 0 0 0-.276-27.64Z" fill="#fff" stroke="#fff" stroke-width="6.331"/><path d="M87.097 45.291a7.38 7.38 0 0 1-12.252-3.393 7.38 7.38 0 0 1-11.29-8.188 7.38 7.38 0 0 1-6.508-11.364c-16.105-1.662-31.89 7.715-37.678 23.62-6.831 18.774 2.85 39.53 21.622 46.361 18.772 6.832 39.529-2.849 46.36-21.621a36.032 36.032 0 0 0-.254-25.415Z" fill="#E25820" stroke="#333336" stroke-width="1.055"/><path d="M41.112 41.351a3.862 3.862 0 1 0 2.641-7.258 3.862 3.862 0 0 0-2.641 7.258ZM47.923 60.754a2.753 2.753 0 1 0 1.883-5.174 2.753 2.753 0 0 0-1.883 5.174ZM28.898 57.813a3.441 3.441 0 1 0 2.353-6.467 3.441 3.441 0 0 0-2.353 6.467ZM68.77 60.544a4.665 4.665 0 1 0-3.942-8.456 4.665 4.665 0 0 0 3.943 8.456ZM69.867 74.93a2.982 2.982 0 1 0 2.04-5.605 2.982 2.982 0 0 0-2.04 5.605ZM40.666 82.289a3.824 3.824 0 1 0 2.615-7.186 3.824 3.824 0 0 0-2.615 7.186Z" fill="#333336" stroke="#333336" stroke-width="1.158"/></g><g filter="url(#e)"><path fill-rule="evenodd" clip-rule="evenodd" d="M158.637 89.042a4.556 4.556 0 0 1 4.808 4.288l1.852 32.394a4.554 4.554 0 0 1-4.287 4.807l-21.607 1.236a.345.345 0 0 0-.275.166l-8.34 13.749a.346.346 0 0 1-.56.043l-10.616-12.687a.347.347 0 0 0-.284-.123l-21.357 1.222a4.556 4.556 0 0 1-4.808-4.288L91.31 97.455a4.555 4.555 0 0 1 4.288-4.808l63.039-3.605Z" fill="#fff"/><path d="m158.637 89.042.395 6.91-.395-6.91Zm2.373 41.489-.396-6.909.396 6.909Zm-67.847-.682 6.909-.395-6.91.395ZM91.31 97.455l-6.91.395 6.91-.395Zm4.288-4.808-.395-6.91.395 6.91Zm24.014 40.391 5.308-4.441-5.308 4.441Zm10.616 12.687-5.307 4.441 5.307-4.441Zm9.175-13.958-.395-6.91.395 6.91Zm-.275.166 5.917 3.589-5.917-3.589Zm17.407-38.208a2.366 2.366 0 0 0 2.497 2.227l-.79-13.82c6.327-.361 11.75 4.475 12.112 10.803l-13.819.79Zm1.852 32.394-1.852-32.394 13.819-.79 1.853 32.393-13.82.791Zm2.227-2.497a2.366 2.366 0 0 0-2.227 2.497l13.82-.791c.362 6.328-4.474 11.751-10.802 12.113l-.791-13.819Zm-21.606 1.235 21.606-1.235.791 13.819-21.607 1.236-.79-13.82Zm-14.137 17.236 8.339-13.75 11.835 7.179-8.339 13.749-11.835-7.178Zm.049-13.496 10.616 12.686-10.615 8.883-10.616-12.686 10.615-8.883Zm-27.345-1.37 21.358-1.222.79 13.82-21.357 1.221-.79-13.819Zm2.497 2.227a2.365 2.365 0 0 0-2.497-2.227l.79 13.819c-6.327.362-11.75-4.474-12.112-10.802l13.819-.79ZM98.22 97.06l1.852 32.394-13.819.79L84.4 97.85l13.82-.79Zm-2.227 2.497a2.366 2.366 0 0 0 2.227-2.497l-13.82.79c-.361-6.327 4.475-11.75 10.803-12.112l.79 13.82Zm63.039-3.605-63.039 3.605-.79-13.82 63.039-3.604.79 13.819Zm-44.727 41.528a6.575 6.575 0 0 0 5.418 2.345l-.79-13.82a7.265 7.265 0 0 1 5.987 2.592l-10.615 8.883Zm22.401 11.791c-2.583 4.259-8.589 4.715-11.785.895l10.615-8.883c-2.893-3.457-8.328-3.045-10.665.81l11.835 7.178Zm3.092-10.594a6.578 6.578 0 0 0 5.247-3.155l-11.835-7.179a7.269 7.269 0 0 1 5.798-3.486l.79 13.82Z" fill="#fff"/><path fill-rule="evenodd" clip-rule="evenodd" d="M149.627 78.36a4.555 4.555 0 0 1 4.808 4.287l1.852 32.393a4.554 4.554 0 0 1-4.287 4.808l-21.608 1.236a.345.345 0 0 0-.275.166l-8.34 13.749a.345.345 0 0 1-.559.043l-10.616-12.687a.349.349 0 0 0-.285-.123l-21.356 1.221a4.555 4.555 0 0 1-4.808-4.287L82.3 86.772a4.555 4.555 0 0 1 4.288-4.808l63.039-3.605Z" fill="#fff"/><path d="m154.435 82.647 6.91-.395-6.91.395Zm-4.808-4.288.395 6.91-.395-6.91Zm6.66 36.681-6.909.396 6.909-.396ZM86.588 81.964l-.395-6.91.395 6.91Zm24.014 40.391-5.308 4.442 5.308-4.442Zm11.175 12.644 5.918 3.589-5.918-3.589Zm-.559.043 5.307-4.442-5.307 4.442Zm8.899-13.792 5.917 3.589-5.917-3.589Zm17.408-38.208a2.366 2.366 0 0 0 2.497 2.227l-.79-13.82c6.328-.361 11.751 4.475 12.113 10.803l-13.82.79Zm1.853 32.394-1.853-32.394 13.82-.79 1.852 32.393-13.819.791Zm2.227-2.497a2.365 2.365 0 0 0-2.227 2.497l13.819-.791c.362 6.328-4.474 11.751-10.802 12.113l-.79-13.819Zm-21.608 1.235 21.608-1.235.79 13.819-21.608 1.236-.79-13.82ZM115.86 131.41l8.339-13.75 11.835 7.179-8.339 13.749-11.835-7.178Zm.049-13.496 10.616 12.686-10.615 8.883-10.616-12.686 10.615-8.883Zm-27.343-1.37 21.356-1.222.79 13.82-21.356 1.221-.79-13.819Zm2.497 2.227a2.365 2.365 0 0 0-2.497-2.227l.79 13.819c-6.328.362-11.75-4.474-12.113-10.802l13.82-.79ZM89.21 86.377l1.853 32.394-13.82.79-1.852-32.394 13.82-.79Zm-2.227 2.497a2.366 2.366 0 0 0 2.227-2.497l-13.82.79c-.361-6.327 4.475-11.75 10.803-12.112l.79 13.82Zm63.039-3.605-63.039 3.605-.79-13.82 63.039-3.605.79 13.82Zm-44.728 41.528a6.575 6.575 0 0 0 5.418 2.345l-.79-13.82a7.265 7.265 0 0 1 5.987 2.592l-10.615 8.883Zm22.401 11.791c-2.583 4.259-8.589 4.715-11.785.895l10.615-8.883c-2.893-3.457-8.327-3.045-10.665.81l11.835 7.178Zm3.092-10.594a6.576 6.576 0 0 0 5.247-3.155l-11.835-7.179a7.269 7.269 0 0 1 5.798-3.486l.79 13.82Z" fill="#fff"/><path fill-rule="evenodd" clip-rule="evenodd" d="M140.287 66.942a4.555 4.555 0 0 1 4.808 4.288l1.853 32.394a4.555 4.555 0 0 1-4.288 4.807l-21.608 1.236a.345.345 0 0 0-.275.166l-8.339 13.749a.346.346 0 0 1-.56.043l-10.616-12.687a.349.349 0 0 0-.285-.123l-21.356 1.221a4.555 4.555 0 0 1-4.808-4.287l-1.852-32.394a4.555 4.555 0 0 1 4.287-4.808l63.039-3.605Z" fill="#fff"/><path d="m140.287 66.942.395 6.91-.395-6.91Zm2.373 41.489.395 6.91-.395-6.91ZM77.248 70.547l-.395-6.91.395 6.91Zm24.014 40.391 5.308-4.441-5.308 4.441Zm11.176 12.644 5.917 3.589-5.917-3.589Zm-.56.043-5.308 4.441 5.308-4.441Zm9.174-13.958.396 6.91-.396-6.91Zm-.275.166 5.918 3.589-5.918-3.589Zm17.408-38.208a2.366 2.366 0 0 0 2.497 2.227l-.79-13.82c6.328-.361 11.751 4.475 12.113 10.803l-13.82.79Zm1.853 32.394-1.853-32.394 13.82-.79 1.852 32.393-13.819.791Zm2.227-2.497a2.365 2.365 0 0 0-2.227 2.497l13.819-.791c.362 6.328-4.474 11.751-10.802 12.113l-.79-13.819Zm-21.608 1.235 21.608-1.235.79 13.819-21.607 1.236-.791-13.82Zm-14.137 17.236 8.34-13.75 11.835 7.179-8.34 13.749-11.835-7.178Zm.05-13.496 10.616 12.686-10.616 8.883-10.616-12.686 10.616-8.883Zm-27.344-1.37 21.356-1.222.791 13.82-21.357 1.221-.79-13.819Zm2.497 2.227a2.365 2.365 0 0 0-2.497-2.227l.79 13.819c-6.328.362-11.75-4.474-12.113-10.802l13.82-.79ZM79.87 74.96l1.853 32.394-13.82.79-1.852-32.394 13.82-.79Zm-2.227 2.497a2.366 2.366 0 0 0 2.227-2.497l-13.82.79C65.69 69.423 70.526 64 76.854 63.638l.79 13.82Zm63.039-3.605-63.039 3.605-.79-13.82 63.039-3.605.79 13.82ZM95.954 115.38a6.576 6.576 0 0 0 5.419 2.345l-.791-13.82a7.267 7.267 0 0 1 5.988 2.592l-10.616 8.883Zm22.401 11.791c-2.583 4.259-8.588 4.715-11.785.895l10.616-8.883c-2.893-3.457-8.328-3.044-10.666.81l11.835 7.178Zm3.093-10.594a6.579 6.579 0 0 0 5.247-3.155l-11.835-7.179a7.267 7.267 0 0 1 5.797-3.486l.791 13.82Z" fill="#fff"/><path d="M109.776 96.059c2.064-1.346 4.057-3.146 5.483-5.144 1.963-2.75 2.365-5.093 1.757-7.035l-.001-.004a1.105 1.105 0 0 0-.049-.13 1.133 1.133 0 0 0-.394-.059 2.115 2.115 0 0 0-1.007.26c-.286.16-.43.336-.504.477l-5.364 10.273-6.501-9.595c-.09-.132-.253-.29-.555-.415a2.115 2.115 0 0 0-1.029-.144 1.124 1.124 0 0 0-.385.104.912.912 0 0 0-.035.136l8.584 11.276Zm0 0c-2.205-1.102-4.39-2.663-6.035-4.485-2.264-2.51-2.931-4.791-2.549-6.79l8.584 11.275Zm-8.533-11.452-.002.004a.012.012 0 0 1 .002-.004Zm15.702-.899.002.003-.002-.003Z" fill="#fff" stroke="#fff" stroke-width="13.842"/><path fill-rule="evenodd" clip-rule="evenodd" d="M157.817 89.094a4.555 4.555 0 0 1 4.808 4.287l1.853 32.394a4.555 4.555 0 0 1-4.288 4.808l-21.607 1.235a.348.348 0 0 0-.276.166l-8.339 13.749a.345.345 0 0 1-.56.043l-10.616-12.686a.345.345 0 0 0-.284-.124l-21.357 1.222a4.556 4.556 0 0 1-4.808-4.288l-1.852-32.394a4.555 4.555 0 0 1 4.287-4.807l63.039-3.605Z" fill="#9059FF"/><path d="m157.817 89.094.035.599-.035-.6Zm-63.039 3.605-.034-.6.034.6Zm24.014 40.391-.46.385.46-.385Zm11.176 12.643.513.312-.513-.312Zm-.56.043-.46.385.46-.385Zm8.899-13.792-.513-.311.513.311Zm23.719-38.569a3.954 3.954 0 0 0-4.174-3.722l-.069-1.198a5.154 5.154 0 0 1 5.441 4.852l-1.198.069Zm1.853 32.394-1.853-32.394 1.198-.068 1.853 32.394-1.198.068Zm-3.723 4.175a3.955 3.955 0 0 0 3.723-4.175l1.198-.068a5.156 5.156 0 0 1-4.853 5.441l-.068-1.198Zm-21.608 1.235 21.608-1.235.068 1.198-21.607 1.235-.069-1.198Zm-9.093 14.203 8.339-13.749 1.026.622-8.339 13.75-1.026-.623Zm-10.203-12.718 10.616 12.687-.92.77-10.616-12.686.92-.771Zm-22.135.885 21.356-1.222.069 1.198-21.356 1.222-.069-1.198Zm-4.175-3.723a3.955 3.955 0 0 0 4.175 3.723l.069 1.198a5.156 5.156 0 0 1-5.442-4.853l1.198-.068ZM91.09 97.472l1.852 32.394-1.198.068-1.852-32.393 1.198-.069Zm3.723-4.174a3.955 3.955 0 0 0-3.723 4.174l-1.198.069a5.155 5.155 0 0 1 4.852-5.441l.069 1.198Zm63.039-3.605-63.04 3.605-.068-1.198 63.039-3.605.069 1.198Zm-39.52 43.782a.255.255 0 0 0 .21.09l-.069-1.198a.945.945 0 0 1 .779.337l-.92.771Zm12.149 12.57a.945.945 0 0 1-1.533.116l.92-.77a.255.255 0 0 0-.413.031l1.026.623Zm8.136-13.628a.25.25 0 0 0 .203-.122l-1.026-.622a.948.948 0 0 1 .754-.454l.069 1.198Z" fill="#333336"/><path fill-rule="evenodd" clip-rule="evenodd" d="M148.81 78.41a4.556 4.556 0 0 1 4.808 4.288l1.852 32.394a4.556 4.556 0 0 1-4.288 4.808l-21.607 1.235a.348.348 0 0 0-.276.166l-8.339 13.749a.345.345 0 0 1-.56.043l-10.616-12.687a.347.347 0 0 0-.284-.123l-21.357 1.222a4.556 4.556 0 0 1-4.807-4.288l-1.853-32.394a4.555 4.555 0 0 1 4.288-4.807l63.039-3.606Z" fill="#6D67FF"/><path d="m88.143 123.505.035.599-.035-.599Zm-4.807-4.288-.6.034.6-.034Zm-1.853-32.394.599-.034-.599.034Zm28.301 35.583-.46.385.46-.385Zm-.284-.123.034.599-.034-.599Zm11.46 12.767.513.312-.513-.312Zm-.56.043.46-.385-.46.385Zm8.899-13.792-.513-.311.513.311Zm23.719-38.569a3.954 3.954 0 0 0-4.174-3.722l-.069-1.199a5.156 5.156 0 0 1 5.442 4.853l-1.199.068Zm1.853 32.394-1.853-32.394 1.199-.068 1.852 32.394-1.198.068Zm-3.723 4.175a3.955 3.955 0 0 0 3.723-4.175l1.198-.068a5.155 5.155 0 0 1-4.852 5.441l-.069-1.198Zm-21.607 1.235 21.607-1.235.069 1.198-21.608 1.235-.068-1.198Zm-9.094 14.203 8.339-13.749 1.026.622-8.339 13.75-1.026-.623Zm-10.203-12.718 10.616 12.687-.92.77-10.616-12.687.92-.77Zm-22.135.885 21.357-1.222.068 1.198-21.356 1.222-.069-1.198Zm-4.174-3.723a3.956 3.956 0 0 0 4.174 3.723l.069 1.198a5.156 5.156 0 0 1-5.441-4.853l1.198-.068Zm-1.853-32.394 1.853 32.394-1.198.068-1.853-32.393 1.198-.069Zm3.723-4.174a3.955 3.955 0 0 0-3.723 4.174l-1.198.069a5.155 5.155 0 0 1 4.852-5.441l.069 1.198Zm63.039-3.605-63.04 3.605-.068-1.198 63.039-3.606.069 1.198Zm-39.52 43.781c.052.062.13.096.21.091l-.068-1.198a.944.944 0 0 1 .778.337l-.92.77Zm12.149 12.571a.946.946 0 0 1-1.533.116l.92-.77a.255.255 0 0 0-.413.031l1.026.623Zm8.136-13.628a.25.25 0 0 0 .203-.122l-1.026-.622a.948.948 0 0 1 .755-.454l.068 1.198Z" fill="#333336"/><path fill-rule="evenodd" clip-rule="evenodd" d="M139.471 66.993a4.556 4.556 0 0 1 4.808 4.288l1.852 32.393a4.555 4.555 0 0 1-4.287 4.808l-21.607 1.236a.344.344 0 0 0-.276.165l-8.339 13.75a.345.345 0 0 1-.56.042l-10.616-12.686a.344.344 0 0 0-.284-.123l-21.358 1.221a4.555 4.555 0 0 1-4.807-4.287l-1.853-32.394a4.555 4.555 0 0 1 4.288-4.808l63.039-3.605Z" fill="#0290FF"/><path d="m139.471 66.993.034.599-.034-.599Zm-60.666 45.094-.035-.599.035.599Zm-2.373-41.489L76.398 70l.034.6Zm24.014 40.391.46-.385-.46.385Zm-.284-.123-.034-.599.034.599Zm11.46 12.767-.513-.311.513.311Zm-.56.042-.46.385.46-.385Zm8.899-13.792.513.311-.513-.311Zm23.719-38.568a3.956 3.956 0 0 0-4.175-3.723l-.068-1.198a5.156 5.156 0 0 1 5.441 4.852l-1.198.069Zm1.852 32.394-1.852-32.394 1.198-.069 1.852 32.394-1.198.069Zm-3.723 4.174a3.955 3.955 0 0 0 3.723-4.174l1.198-.069a5.154 5.154 0 0 1-4.852 5.441l-.069-1.198Zm-21.607 1.236 21.607-1.236.069 1.198-21.607 1.236-.069-1.198Zm-9.093 14.203 8.339-13.75 1.026.622-8.339 13.75-1.026-.622Zm-10.203-12.718 10.616 12.686-.92.77-10.616-12.686.92-.77Zm-22.136.884 21.358-1.221.068 1.198-21.357 1.221-.069-1.198Zm-4.174-3.723a3.955 3.955 0 0 0 4.174 3.723l.069 1.198a5.155 5.155 0 0 1-5.441-4.852l1.198-.069Zm-1.853-32.393 1.853 32.393-1.198.069-1.853-32.394 1.198-.068Zm3.723-4.175a3.955 3.955 0 0 0-3.723 4.175l-1.198.068A5.155 5.155 0 0 1 76.398 70l.068 1.197Zm63.039-3.605-63.039 3.605L76.398 70l63.039-3.605.068 1.198Zm-39.519 43.782c.052.062.13.095.21.091l-.068-1.198a.944.944 0 0 1 .778.337l-.92.77Zm12.149 12.57a.945.945 0 0 1-1.533.116l.92-.77a.254.254 0 0 0-.413.032l1.026.622Zm8.136-13.627a.254.254 0 0 0 .203-.123l-1.026-.622a.947.947 0 0 1 .754-.453l.069 1.198Z" fill="#333336"/><path d="M119.587 94.637c-2.502 3.507-6.133 6.411-9.641 8.195l-.001-.02-1.198.067.001.023c-3.689-1.372-7.628-3.844-10.516-7.043-3.1-3.436-4.938-7.647-4.065-12.213.619-3.234 3.086-4.997 5.879-5.33 2.816-.336 5.876.796 7.567 3.29l.563.833.465-.891c1.395-2.672 4.307-4.145 7.143-4.132 2.813.013 5.465 1.482 6.448 4.625 1.389 4.437.044 8.83-2.645 12.596Z" fill="#F8F6F4" stroke="#333336" stroke-width="1.2"/></g><g filter="url(#f)" fill="#fff"><path d="M61.148 144.993a3.5 3.5 0 0 1-5.763 2.669l-3.746-3.176-2.97 6.155a3.501 3.501 0 0 1-4.473 1.72l-3.718-1.516a3.501 3.501 0 0 1-1.85-4.721l2.342-5.018-4.428-.004a3.5 3.5 0 0 1-2.537-5.908l21.104-22.249a3.5 3.5 0 0 1 6.04 2.409v29.639Z" stroke="#fff" stroke-width="7" stroke-linejoin="round"/><path d="M57.987 144.993v1.295l-.988-.838-6.605-5.6-4.598 9.53-.245.508-.522-.213-3.718-1.516-.584-.238.267-.571 4.267-9.141-8.979-.007-1.394-.001.96-1.011 21.103-22.249 1.036-1.092v31.144Z" stroke="#333336" stroke-width="1.2"/></g><defs><filter id="a" x="124.126" y="10.89" width="76.476" height="76.435" filterUnits="userSpaceOnUse" color-interpolation-filters="sRGB"><feFlood flood-opacity="0" result="BackgroundImageFix"/><feColorMatrix in="SourceAlpha" values="0 0 0 0 0 0 0 0 0 0 0 0 0 0 0 0 0 0 127 0" result="hardAlpha"/><feOffset dy="2.11"/><feGaussianBlur stdDeviation="3.166"/><feComposite in2="hardAlpha" operator="out"/><feColorMatrix values="0 0 0 0 0 0 0 0 0 0 0 0 0 0 0 0 0 0 0.15 0"/><feBlend in2="BackgroundImageFix" result="effect1_dropShadow_7043_6022"/><feBlend in="SourceGraphic" in2="effect1_dropShadow_7043_6022" result="shape"/></filter><filter id="c" x="157.731" y="81.255" width="97.651" height="87.769" filterUnits="userSpaceOnUse" color-interpolation-filters="sRGB"><feFlood flood-opacity="0" result="BackgroundImageFix"/><feColorMatrix in="SourceAlpha" values="0 0 0 0 0 0 0 0 0 0 0 0 0 0 0 0 0 0 127 0" result="hardAlpha"/><feOffset dy="1.69"/><feGaussianBlur stdDeviation="2.534"/><feComposite in2="hardAlpha" operator="out"/><feColorMatrix values="0 0 0 0 0 0 0 0 0 0 0 0 0 0 0 0 0 0 0.15 0"/><feBlend in2="BackgroundImageFix" result="effect1_dropShadow_7043_6022"/><feBlend in="SourceGraphic" in2="effect1_dropShadow_7043_6022" result="shape"/></filter><filter id="d" x="3.73" y="11.081" width="99.258" height="99.257" filterUnits="userSpaceOnUse" color-interpolation-filters="sRGB"><feFlood flood-opacity="0" result="BackgroundImageFix"/><feColorMatrix in="SourceAlpha" values="0 0 0 0 0 0 0 0 0 0 0 0 0 0 0 0 0 0 127 0" result="hardAlpha"/><feOffset dy="2.372"/><feGaussianBlur stdDeviation="3.558"/><feComposite in2="hardAlpha" operator="out"/><feColorMatrix values="0 0 0 0 0 0 0 0 0 0 0 0 0 0 0 0 0 0 0.15 0"/><feBlend in2="BackgroundImageFix" result="effect1_dropShadow_7043_6022"/><feBlend in="SourceGraphic" in2="effect1_dropShadow_7043_6022" result="shape"/></filter><filter id="e" x="60.032" y="56.014" width="118.193" height="104.756" filterUnits="userSpaceOnUse" color-interpolation-filters="sRGB"><feFlood flood-opacity="0" result="BackgroundImageFix"/><feColorMatrix in="SourceAlpha" values="0 0 0 0 0 0 0 0 0 0 0 0 0 0 0 0 0 0 127 0" result="hardAlpha"/><feOffset dy="2"/><feGaussianBlur stdDeviation="3"/><feComposite in2="hardAlpha" operator="out"/><feColorMatrix values="0 0 0 0 0 0 0 0 0 0 0 0 0 0 0 0 0 0 0.15 0"/><feBlend in2="BackgroundImageFix" result="effect1_dropShadow_7043_6022"/><feBlend in="SourceGraphic" in2="effect1_dropShadow_7043_6022" result="shape"/></filter><filter id="f" x="23.214" y="104.132" width="47.766" height="60.43" filterUnits="userSpaceOnUse" color-interpolation-filters="sRGB"><feFlood flood-opacity="0" result="BackgroundImageFix"/><feColorMatrix in="SourceAlpha" values="0 0 0 0 0 0 0 0 0 0 0 0 0 0 0 0 0 0 127 0" result="hardAlpha"/><feOffset dy="2.11"/><feGaussianBlur stdDeviation="3.166"/><feComposite in2="hardAlpha" operator="out"/><feColorMatrix values="0 0 0 0 0 0 0 0 0 0 0 0 0 0 0 0 0 0 0.15 0"/><feBlend in2="BackgroundImageFix" result="effect1_dropShadow_7043_6022"/><feBlend in="SourceGraphic" in2="effect1_dropShadow_7043_6022" result="shape"/></filter></defs></svg>
