<svg width="28" height="28" viewBox="0 0 28 28" fill="none" xmlns="http://www.w3.org/2000/svg"><g clip-path="url(#a)"><path d="M13.577 2.01s.034-.055.045-.061a.14.14 0 0 1 .075-.019c.033 0 .06.01.075.02.01.008.027.022.043.063C15.912 7.692 19.32 11.903 25 14l1.21.319c.044.016.061.035.071.049a.158.158 0 0 1 .025.082.157.157 0 0 1-.019.084c-.008.014-.024.035-.066.054l-.34.156A23.823 23.823 0 0 0 14.133 26.49l-.14.305a.19.19 0 0 1-.076.092.214.214 0 0 1-.114.027.215.215 0 0 1-.113-.033c-.023-.016-.072-.095-.072-.095l-.055-.14a21.739 21.739 0 0 0-12.13-12.13.153.153 0 0 1-.08-.06.194.194 0 0 1-.027-.104c0-.046.014-.086.033-.115a.185.185 0 0 1 .093-.072c5.482-2.188 9.888-6.555 12.08-12.042l.044-.113Z" fill="#fff"/><path d="M25 14c-5.679-2.097-9.088-6.308-11.185-11.987-.016-.041-.033-.055-.043-.062a.14.14 0 0 0-.075-.021.14.14 0 0 0-.075.019.408.408 0 0 0-.045.061l-.045.113c-2.19 5.487-6.597 9.854-12.079 12.042a.185.185 0 0 0-.093.072.217.217 0 0 0-.033.115c0 .045.012.081.027.104.01.018.03.04.08.06a21.739 21.739 0 0 1 12.13 12.13l.056.14s.048.08.072.095a.215.215 0 0 0 .112.033.214.214 0 0 0 .114-.027.19.19 0 0 0 .077-.092l.14-.305A23.823 23.823 0 0 1 25.88 14.744l.341-.156c.042-.02.058-.04.066-.054a.157.157 0 0 0 .02-.084.158.158 0 0 0-.026-.082.134.134 0 0 0-.07-.05L25 14Zm0 0 .336-.91" stroke="#333336" stroke-width="1.938" stroke-linejoin="round"/></g><defs><clipPath id="a"><path fill="#fff" d="M0 0h28v28H0z"/></clipPath></defs></svg>
