<svg xmlns="http://www.w3.org/2000/svg" width="415" height="51" fill="none" viewBox="0 0 415 51">
  <rect width="412.951" height="48.2812" x="1.0498" y="1" fill="#333336" stroke="#F8F6F4" stroke-width="2" rx="24.1406"/>
  <path fill="#F8F6F4" d="M31.9587 33.0371V16.4524h3.4306l7.27 11.2912V16.4524h3.0898v16.5847h-3.1807l-7.4972-11.6547v11.6547h-3.1125Zm21.9138.2499c-3.6805 0-6.4749-2.8626-6.4749-6.384 0-3.5441 2.7944-6.384 6.4749-6.384 3.6577 0 6.4975 2.8399 6.4975 6.384 0 3.5214-2.7944 6.384-6.4975 6.384Zm.0227-2.9761c1.8629 0 3.3624-1.5222 3.3624-3.4306s-1.4995-3.4305-3.3624-3.4305c-1.8857 0-3.3624 1.5221-3.3624 3.4305 0 1.9084 1.4767 3.4306 3.3624 3.4306Zm6.8188-6.7703V20.769h2.2719v-2.6581l3.0898-1.8176v4.4757h3.226v2.7716h-3.226v5.0436c0 1.295.5452 1.7494 1.3404 1.7494.4316 0 .7724-.1363 1.1359-.4544l1.4313 2.4536c-.7952.5907-1.7948.9315-2.9307.9315-2.5673 0-4.0667-1.2268-4.0667-4.5665v-5.1572H60.714Zm10.2111 9.4965V15.1347h3.1124v7.1337c.8179-1.0905 2.0674-1.7494 3.5669-1.7494 2.908 0 4.7709 1.9084 4.7709 5.1118v7.4063h-3.226v-6.9292c0-1.7494-.8406-2.8399-2.4991-2.8399-1.4767 0-2.6127 1.0905-2.6127 2.9989v6.7702h-3.1124Zm13.412 0V20.769h3.2034v12.2681h-3.2034Zm-.4089-15.7214c0-1.1814.8406-2.0447 1.9993-2.0447 1.2041 0 2.0219.8633 2.0219 2.0447 0 1.1587-.8178 1.9992-2.0219 1.9992-1.1814 0-1.9993-.8405-1.9993-1.9992Zm5.6564 15.7214V20.769h3.1352v1.5448c.7952-1.1132 2.0675-1.7948 3.5896-1.7948 2.908 0 4.7486 1.9084 4.7486 5.1118v7.4063h-3.2037v-6.9292c0-1.7494-.8406-2.8399-2.4991-2.8399-1.4767 0-2.6126 1.0905-2.6126 2.9989v6.7702h-3.158Zm18.9554.1818c-3.022 0-5.907-2.4537-5.907-6.3386 0-3.8849 2.817-6.3613 5.952-6.3613 1.636 0 2.999.727 3.817 1.863v-1.613h3.135v11.3594c0 3.5668-2.658 6.1568-6.429 6.1568-2.795 0-4.635-.8179-6.021-2.431l2.59-2.0219c.818 1.0678 1.727 1.6584 3.34 1.6584 1.976 0 3.385-1.3404 3.385-3.2715v-.9314c-.864 1.2041-2.272 1.9311-3.862 1.9311Zm.613-2.908c1.931 0 3.408-1.5222 3.408-3.4533s-1.477-3.4533-3.408-3.4533c-1.886 0-3.408 1.4995-3.408 3.4533 0 1.9311 1.522 3.4533 3.408 3.4533Zm20.232 2.9761c-1.658 0-3.044-.6134-3.862-1.7493v6.4067h-3.112V20.769h3.089v1.7039c.818-1.2041 2.204-1.9539 3.863-1.9539 3.089 0 5.907 2.4764 5.907 6.384 0 3.9077-2.863 6.384-5.885 6.384Zm-.636-2.9534c1.886 0 3.385-1.5222 3.385-3.4533s-1.499-3.4532-3.385-3.4532c-1.931 0-3.408 1.5448-3.408 3.4532 0 1.9084 1.477 3.4533 3.408 3.4533Zm14.25 2.9534c-3.953 0-6.498-2.7944-6.498-6.3613 0-3.5668 2.772-6.4067 6.43-6.4067 3.68 0 6.338 2.6581 6.338 6.2932v1.1813h-9.746c.409 1.5904 1.704 2.59 3.522 2.59 1.454 0 2.43-.6361 3.044-1.6358l2.567 1.4995c-1.227 1.7266-2.953 2.8398-5.657 2.8398Zm-.068-10.1099c-1.59 0-2.817.9315-3.317 2.3628h6.543c-.409-1.5222-1.59-2.3628-3.226-2.3628Zm7.923 9.86V20.769h3.09v1.8856c.591-1.454 1.818-2.1128 3.385-2.1128.818 0 1.545.2044 2.068.4771l-1.136 3.0897c-.341-.2499-.932-.4316-1.636-.4316-1.613 0-2.658.8178-2.658 2.8852v6.4749h-3.113Zm14.082.2499c-2.908 0-4.749-1.0905-5.725-3.0443l3.021-1.1814c.545 1.0905 1.522 1.6585 2.817 1.6585 1.273 0 1.954-.6134 1.954-1.3404 0-.8861-1.318-1.0905-2.885-1.4086-2.068-.4316-4.362-1.0678-4.362-3.6577 0-2.0674 1.999-3.8622 5.021-3.8395 2.59 0 4.134.9769 5.27 2.6127l-2.862 1.1586c-.5-.8178-1.272-1.2949-2.408-1.2949-1.227 0-1.818.4998-1.818 1.1813 0 .7725 1 .9769 2.795 1.3632 2.044.4089 4.452 1.1132 4.452 3.7486 0 1.9083-1.703 4.0666-5.27 4.0439Zm12.841 0c-3.681 0-6.475-2.8626-6.475-6.384 0-3.5441 2.794-6.384 6.475-6.384 3.658 0 6.498 2.8399 6.498 6.384 0 3.5214-2.795 6.384-6.498 6.384Zm.023-2.9761c1.863 0 3.362-1.5222 3.362-3.4306s-1.499-3.4305-3.362-3.4305c-1.886 0-3.363 1.5221-3.363 3.4305 0 1.9084 1.477 3.4306 3.363 3.4306Zm8.077 2.7262V20.769h3.135v1.5448c.795-1.1132 2.068-1.7948 3.59-1.7948 2.908 0 4.748 1.9084 4.748 5.1118v7.4063h-3.203v-6.9292c0-1.7494-.841-2.8399-2.5-2.8399-1.476 0-2.612 1.0905-2.612 2.9989v6.7702h-3.158Zm17.229.2499c-2.681 0-4.271-1.4994-4.271-3.6577 0-2.5445 2.113-4.1121 5.521-4.1121h3.226v-.159c0-1.3177-.886-2.2265-2.658-2.2265-1.386 0-2.318.5907-2.885 1.613l-2.886-1.4312c1.25-1.6358 3.045-2.7945 5.794-2.7945 3.612 0 5.679 1.8857 5.679 4.9755v7.5426h-3.021v-1.8857c-.886 1.2723-2.568 2.1356-4.499 2.1356Zm.909-2.5899c1.499 0 2.976-.9088 3.59-2.2265v-.6588h-2.886c-1.863 0-2.612.5907-2.612 1.5449 0 .886.613 1.3404 1.908 1.3404Zm8.575 2.34V15.1347h3.135v17.9024h-3.135Zm4.841-1.6812c0-1.1586.818-1.9992 1.977-1.9992 1.159 0 1.976.8406 1.976 1.9992 0 1.1587-.817 1.9993-1.976 1.9993-1.181 0-1.977-.8406-1.977-1.9993Zm14.842 1.9084c-2.568 0-4.408-1.3631-5.067-3.3851l3.067-1.2495c.296.9769.932 1.6584 1.954 1.6584 1.136 0 1.727-.8406 1.727-2.0447v-11.791h3.226V28.039c0 3.2488-1.681 5.2253-4.907 5.2253Zm11.691.0227c-3.022 0-4.771-1.9311-4.771-5.1572V20.769h3.203v6.9292c0 1.7266.818 2.7944 2.499 2.7944 1.477 0 2.567-1.0678 2.567-2.9762V20.769l3.181-.0228v12.2682l-3.135.0227v-1.5449c-.795 1.1133-2.045 1.7948-3.544 1.7948Zm13.57 0c-2.908 0-4.748-1.0905-5.725-3.0443l3.022-1.1814c.545 1.0905 1.522 1.6585 2.817 1.6585 1.272 0 1.954-.6134 1.954-1.3404 0-.8861-1.318-1.0905-2.886-1.4086-2.067-.4316-4.362-1.0678-4.362-3.6577 0-2.0674 2-3.8622 5.021-3.8395 2.59 0 4.135.9769 5.271 2.6127l-2.863 1.1586c-.499-.8178-1.272-1.2949-2.408-1.2949-1.227 0-1.817.4998-1.817 1.1813 0 .7725.999.9769 2.794 1.3632 2.045.4089 4.453 1.1132 4.453 3.7486 0 1.9083-1.704 4.0666-5.271 4.0439Zm5.739-9.7464V20.769h2.271v-2.6581l3.09-1.8176v4.4757h3.226v2.7716h-3.226v5.0436c0 1.295.545 1.7494 1.341 1.7494.431 0 .772-.1363 1.136-.4544l1.431 2.4536c-.795.5907-1.795.9315-2.931.9315-2.567 0-4.067-1.2268-4.067-4.5665v-5.1572h-2.271Zm22.056 9.7464c-1.636 0-3.067-.727-3.885-1.9538v1.7039h-3.09V15.112h3.112v7.3381c.818-1.1813 2.181-1.9311 3.84-1.9311 3.09 0 5.907 2.4764 5.907 6.384 0 3.9077-2.863 6.384-5.884 6.384Zm-.636-2.9534c1.885 0 3.385-1.5222 3.385-3.4533s-1.5-3.4532-3.385-3.4532c-1.932 0-3.408 1.5448-3.408 3.4532 0 1.9084 1.476 3.4533 3.408 3.4533Zm8.116 2.7035V20.769h3.09v1.8856c.59-1.454 1.817-2.1128 3.385-2.1128.818 0 1.545.2044 2.067.4771l-1.136 3.0897c-.341-.2499-.931-.4316-1.636-.4316-1.613 0-2.658.8178-2.658 2.8852v6.4749h-3.112Zm14.775.2499c-3.681 0-6.475-2.8626-6.475-6.384 0-3.5441 2.794-6.384 6.475-6.384 3.658 0 6.497 2.8399 6.497 6.384 0 3.5214-2.794 6.384-6.497 6.384Zm.023-2.9761c1.863 0 3.362-1.5222 3.362-3.4306s-1.499-3.4305-3.362-3.4305c-1.886 0-3.363 1.5221-3.363 3.4305 0 1.9084 1.477 3.4306 3.363 3.4306Zm10.591 2.7262-3.975-12.2681h3.18l2.477 7.997 2.908-7.997h2.794l2.863 8.0424 2.567-8.0424h3.18l-4.157 12.2681h-2.954l-2.93-7.997-2.954 7.997h-2.999Zm21.706.2499c-2.908 0-4.748-1.0905-5.725-3.0443l3.022-1.1814c.545 1.0905 1.522 1.6585 2.817 1.6585 1.272 0 1.954-.6134 1.954-1.3404 0-.8861-1.318-1.0905-2.886-1.4086-2.067-.4316-4.362-1.0678-4.362-3.6577 0-2.0674 2-3.8622 5.021-3.8395 2.59 0 4.135.9769 5.271 2.6127l-2.863 1.1586c-.499-.8178-1.272-1.2949-2.408-1.2949-1.227 0-1.817.4998-1.817 1.1813 0 .7725.999.9769 2.794 1.3632 2.045.4089 4.453 1.1132 4.453 3.7486 0 1.9083-1.704 4.0666-5.271 4.0439Zm6.775-.2499V20.769h3.203v12.2681h-3.203Zm-.409-15.7214c0-1.1814.841-2.0447 1.999-2.0447 1.204 0 2.022.8633 2.022 2.0447 0 1.1587-.818 1.9992-2.022 1.9992-1.181 0-1.999-.8405-1.999-1.9992Zm5.657 15.7214V20.769h3.135v1.5448c.795-1.1132 2.067-1.7948 3.589-1.7948 2.908 0 4.749 1.9084 4.749 5.1118v7.4063h-3.204v-6.9292c0-1.7494-.84-2.8399-2.499-2.8399-1.477 0-2.613 1.0905-2.613 2.9989v6.7702h-3.157Zm18.955.1818c-3.022 0-5.907-2.4537-5.907-6.3386 0-3.8849 2.817-6.3613 5.952-6.3613 1.636 0 2.999.727 3.817 1.863v-1.613h3.135v11.3594c0 3.5668-2.658 6.1568-6.43 6.1568-2.794 0-4.634-.8179-6.02-2.431l2.59-2.0219c.818 1.0678 1.727 1.6584 3.34 1.6584 1.976 0 3.385-1.3404 3.385-3.2715v-.9314c-.864 1.2041-2.272 1.9311-3.862 1.9311Zm.613-2.908c1.931 0 3.408-1.5222 3.408-3.4533s-1.477-3.4533-3.408-3.4533c-1.886 0-3.408 1.4995-3.408 3.4533 0 1.9311 1.522 3.4533 3.408 3.4533Zm8.092 1.045c0-1.1586.818-1.9992 1.976-1.9992 1.159 0 1.977.8406 1.977 1.9992 0 1.1587-.818 1.9993-1.977 1.9993-1.181 0-1.976-.8406-1.976-1.9993Z"/>
</svg>
