<svg xmlns="http://www.w3.org/2000/svg" width="415" height="51" fill="none"><rect width="412.951" height="48.281" x="1.05" y="1" fill="#333336" stroke="#F8F6F4" stroke-width="2" rx="24.141"/><path fill="#F8F6F4" d="M31.959 33.037V16.452h3.43l7.27 11.292V16.452h3.09v16.585h-3.18L35.07 21.382v11.655H31.96Zm21.913.25c-3.68 0-6.474-2.863-6.474-6.384 0-3.544 2.794-6.384 6.475-6.384 3.657 0 6.497 2.84 6.497 6.384 0 3.521-2.794 6.384-6.497 6.384Zm.023-2.976c1.863 0 3.363-1.522 3.363-3.43s-1.5-3.431-3.363-3.431c-1.886 0-3.362 1.522-3.362 3.43 0 1.909 1.477 3.43 3.362 3.43Zm6.819-6.77v-2.772h2.272v-2.658l3.09-1.818v4.476h3.226v2.772h-3.226v5.043c0 1.295.545 1.75 1.34 1.75.432 0 .773-.137 1.136-.455l1.431 2.454c-.795.59-1.794.931-2.93.931-2.568 0-4.067-1.227-4.067-4.566V23.54h-2.272Zm10.211 9.496V15.135h3.113v7.133c.817-1.09 2.067-1.749 3.566-1.749 2.908 0 4.771 1.908 4.771 5.112v7.406H79.15v-6.93c0-1.748-.84-2.839-2.499-2.839-1.477 0-2.613 1.09-2.613 2.999v6.77h-3.112Zm13.412 0V20.77h3.204v12.268h-3.204Zm-.409-15.721c0-1.182.84-2.045 2-2.045 1.204 0 2.021.863 2.021 2.045 0 1.158-.817 1.999-2.021 1.999-1.182 0-2-.84-2-2Zm5.657 15.721V20.77h3.135v1.545c.795-1.113 2.067-1.795 3.59-1.795 2.907 0 4.748 1.908 4.748 5.112v7.406h-3.204v-6.93c0-1.749-.84-2.839-2.499-2.839-1.476 0-2.612 1.09-2.612 2.999v6.77h-3.158Zm18.955.182c-3.022 0-5.907-2.454-5.907-6.339 0-3.885 2.817-6.361 5.952-6.361 1.636 0 2.999.727 3.817 1.863v-1.613h3.135v11.36c0 3.566-2.658 6.156-6.429 6.156-2.795 0-4.635-.818-6.021-2.43l2.59-2.023c.818 1.068 1.727 1.659 3.34 1.659 1.976 0 3.385-1.34 3.385-3.272v-.931c-.864 1.204-2.272 1.93-3.862 1.93Zm.613-2.908c1.931 0 3.408-1.522 3.408-3.453s-1.477-3.454-3.408-3.454c-1.886 0-3.408 1.5-3.408 3.454 0 1.93 1.522 3.453 3.408 3.453Zm20.232 2.976c-1.658 0-3.044-.613-3.862-1.75v6.407h-3.112V20.77h3.089v1.704c.818-1.204 2.204-1.954 3.863-1.954 3.089 0 5.907 2.476 5.907 6.384 0 3.908-2.863 6.384-5.885 6.384Zm-.636-2.953c1.886 0 3.385-1.523 3.385-3.454s-1.499-3.453-3.385-3.453c-1.931 0-3.408 1.545-3.408 3.453 0 1.909 1.477 3.454 3.408 3.454Zm14.25 2.953c-3.953 0-6.498-2.794-6.498-6.361 0-3.567 2.772-6.407 6.43-6.407 3.68 0 6.338 2.658 6.338 6.293v1.182h-9.746c.409 1.59 1.704 2.59 3.522 2.59 1.454 0 2.43-.637 3.044-1.636l2.567 1.5c-1.227 1.726-2.953 2.839-5.657 2.839Zm-.068-10.11c-1.59 0-2.817.932-3.317 2.363h6.543c-.409-1.522-1.59-2.363-3.226-2.363Zm7.923 9.86V20.77h3.09v1.886c.591-1.454 1.818-2.113 3.385-2.113.818 0 1.545.204 2.068.477l-1.136 3.09c-.341-.25-.932-.432-1.636-.432-1.613 0-2.658.818-2.658 2.885v6.475h-3.113Zm14.082.25c-2.908 0-4.749-1.09-5.725-3.044l3.021-1.182c.545 1.09 1.522 1.659 2.817 1.659 1.273 0 1.954-.614 1.954-1.34 0-.887-1.318-1.091-2.885-1.41-2.068-.43-4.362-1.067-4.362-3.657 0-2.067 1.999-3.862 5.021-3.84 2.59 0 4.134.978 5.27 2.613l-2.862 1.159c-.5-.818-1.272-1.295-2.408-1.295-1.227 0-1.818.5-1.818 1.181 0 .773 1 .977 2.795 1.364 2.044.408 4.452 1.113 4.452 3.748 0 1.908-1.703 4.067-5.27 4.044Zm12.841 0c-3.681 0-6.475-2.863-6.475-6.384 0-3.544 2.794-6.384 6.475-6.384 3.658 0 6.498 2.84 6.498 6.384 0 3.521-2.795 6.384-6.498 6.384Zm.023-2.976c1.863 0 3.362-1.522 3.362-3.43s-1.499-3.431-3.362-3.431c-1.886 0-3.363 1.522-3.363 3.43 0 1.909 1.477 3.43 3.363 3.43Zm8.077 2.726V20.77h3.135v1.545c.795-1.113 2.068-1.795 3.59-1.795 2.908 0 4.748 1.908 4.748 5.112v7.406h-3.203v-6.93c0-1.749-.841-2.839-2.5-2.839-1.476 0-2.612 1.09-2.612 2.999v6.77h-3.158Zm17.229.25c-2.681 0-4.271-1.5-4.271-3.658 0-2.544 2.113-4.112 5.521-4.112h3.226v-.159c0-1.317-.886-2.226-2.658-2.226-1.386 0-2.318.59-2.885 1.613l-2.886-1.431c1.25-1.636 3.045-2.795 5.794-2.795 3.612 0 5.679 1.886 5.679 4.976v7.542h-3.021v-1.886c-.886 1.273-2.568 2.136-4.499 2.136Zm.909-2.59c1.499 0 2.976-.909 3.59-2.226v-.66h-2.886c-1.863 0-2.612.592-2.612 1.546 0 .886.613 1.34 1.908 1.34Zm8.575 2.34V15.135h3.135v17.902h-3.135Zm4.841-1.681c0-1.159.818-2 1.977-2 1.159 0 1.976.841 1.976 2s-.817 2-1.976 2c-1.181 0-1.977-.841-1.977-2Zm14.842 1.908c-2.568 0-4.408-1.363-5.067-3.385l3.067-1.25c.296.978.932 1.66 1.954 1.66 1.136 0 1.727-.841 1.727-2.046v-11.79h3.226v11.586c0 3.249-1.681 5.225-4.907 5.225Zm11.691.023c-3.022 0-4.771-1.931-4.771-5.157v-7.361h3.203v6.93c0 1.726.818 2.794 2.499 2.794 1.477 0 2.567-1.068 2.567-2.977V20.77l3.181-.023v12.268l-3.135.023v-1.545c-.795 1.113-2.045 1.795-3.544 1.795Zm13.57 0c-2.908 0-4.748-1.09-5.725-3.044l3.022-1.182c.545 1.09 1.522 1.659 2.817 1.659 1.272 0 1.954-.614 1.954-1.34 0-.887-1.318-1.091-2.886-1.41-2.067-.43-4.362-1.067-4.362-3.657 0-2.067 2-3.862 5.021-3.84 2.59 0 4.135.978 5.271 2.613l-2.863 1.159c-.499-.818-1.272-1.295-2.408-1.295-1.227 0-1.817.5-1.817 1.181 0 .773.999.977 2.794 1.364 2.045.408 4.453 1.113 4.453 3.748 0 1.908-1.704 4.067-5.271 4.044Zm5.739-9.746v-2.772h2.271v-2.658l3.09-1.818v4.476h3.226v2.772h-3.226v5.043c0 1.295.545 1.75 1.341 1.75.431 0 .772-.137 1.136-.455l1.431 2.454c-.795.59-1.795.931-2.931.931-2.567 0-4.067-1.227-4.067-4.566V23.54h-2.271Zm22.056 9.746c-1.636 0-3.067-.727-3.885-1.954v1.704h-3.09V15.112h3.112v7.338c.818-1.181 2.181-1.931 3.84-1.931 3.09 0 5.907 2.476 5.907 6.384 0 3.908-2.863 6.384-5.884 6.384Zm-.636-2.953c1.885 0 3.385-1.523 3.385-3.454s-1.5-3.453-3.385-3.453c-1.932 0-3.408 1.545-3.408 3.453 0 1.909 1.476 3.454 3.408 3.454Zm8.116 2.703V20.77h3.09v1.886c.59-1.454 1.817-2.113 3.385-2.113.818 0 1.545.204 2.067.477l-1.136 3.09c-.341-.25-.931-.432-1.636-.432-1.613 0-2.658.818-2.658 2.885v6.475h-3.112Zm14.775.25c-3.681 0-6.475-2.863-6.475-6.384 0-3.544 2.794-6.384 6.475-6.384 3.658 0 6.497 2.84 6.497 6.384 0 3.521-2.794 6.384-6.497 6.384Zm.023-2.976c1.863 0 3.362-1.522 3.362-3.43s-1.499-3.431-3.362-3.431c-1.886 0-3.363 1.522-3.363 3.43 0 1.909 1.477 3.43 3.363 3.43Zm10.591 2.726-3.975-12.268h3.18l2.477 7.997 2.908-7.997h2.794l2.863 8.042 2.567-8.042h3.18l-4.157 12.268h-2.954l-2.93-7.997-2.954 7.997h-2.999Zm21.706.25c-2.908 0-4.748-1.09-5.725-3.044l3.022-1.182c.545 1.09 1.522 1.659 2.817 1.659 1.272 0 1.954-.614 1.954-1.34 0-.887-1.318-1.091-2.886-1.41-2.067-.43-4.362-1.067-4.362-3.657 0-2.067 2-3.862 5.021-3.84 2.59 0 4.135.978 5.271 2.613l-2.863 1.159c-.499-.818-1.272-1.295-2.408-1.295-1.227 0-1.817.5-1.817 1.181 0 .773.999.977 2.794 1.364 2.045.408 4.453 1.113 4.453 3.748 0 1.908-1.704 4.067-5.271 4.044Zm6.775-.25V20.77h3.203v12.268h-3.203Zm-.409-15.721c0-1.182.841-2.045 1.999-2.045 1.204 0 2.022.863 2.022 2.045 0 1.158-.818 1.999-2.022 1.999-1.181 0-1.999-.84-1.999-2Zm5.657 15.721V20.77h3.135v1.545c.795-1.113 2.067-1.795 3.589-1.795 2.908 0 4.749 1.908 4.749 5.112v7.406h-3.204v-6.93c0-1.749-.84-2.839-2.499-2.839-1.477 0-2.613 1.09-2.613 2.999v6.77h-3.157Zm18.955.182c-3.022 0-5.907-2.454-5.907-6.339 0-3.885 2.817-6.361 5.952-6.361 1.636 0 2.999.727 3.817 1.863v-1.613h3.135v11.36c0 3.566-2.658 6.156-6.43 6.156-2.794 0-4.634-.818-6.02-2.43l2.59-2.023c.818 1.068 1.727 1.659 3.34 1.659 1.976 0 3.385-1.34 3.385-3.272v-.931c-.864 1.204-2.272 1.93-3.862 1.93Zm.613-2.908c1.931 0 3.408-1.522 3.408-3.453s-1.477-3.454-3.408-3.454c-1.886 0-3.408 1.5-3.408 3.454 0 1.93 1.522 3.453 3.408 3.453Zm8.092 1.045c0-1.159.818-2 1.976-2 1.159 0 1.977.841 1.977 2s-.818 2-1.977 2c-1.181 0-1.976-.841-1.976-2Z"/></svg>
