<svg xmlns="http://www.w3.org/2000/svg" viewBox="0 0 480 480">
<style>.st14{fill-rule:evenodd;clip-rule:evenodd}.st16{fill:#a883f8}.st18,.st19{fill:none;stroke:#fff;stroke-width:4;stroke-linecap:round;stroke-linejoin:round;stroke-miterlimit:10}.st19{stroke:#000}.st20{fill:#ea5e65}</style>
<g id="Layer_1">
  <path class="st16" d="M178 74.5H76.1c1.7-10 10.3-17.6 20.6-17.6h.8c5.2-9.4 15-15.7 26.3-15.7 13.7 0 25.2 9.3 28.9 22 2.7-2.5 6.3-4.1 10.2-4.1 8.4 0 15.1 6.9 15.1 15.4z"/>
  <path class="line" d="M149.9 82.6H48C49.7 72.6 58.3 65 68.6 65h.8c5.2-9.4 15-15.7 26.3-15.7 13.7 0 25.2 9.3 28.9 22 2.7-2.5 6.3-4.1 10.2-4.1 8.4 0 15.1 6.9 15.1 15.4z" fill="none" stroke="#000" stroke-width="4" stroke-linejoin="round" stroke-miterlimit="10"/>
  <path class="st18" d="M315.6 422.9h149.3M245.2 438.8h149.3"/>
  <path class="st16" d="M404.2 375.7c-5.9 0-11.7 1.6-16.8 4.6s-9.3 7.3-12.2 12.4l-.1.1H374c-5.4 0-10.6 1.9-14.7 5.3s-7 8.2-8 13.4h113c0-3.2-1-6.3-2.8-9-1.8-2.7-4.3-4.7-7.2-6-2.9-1.3-6.2-1.6-9.3-1.1-3.1.5-6.1 2-8.4 4.1l-.3.3-.1-.4c-2.1-6.9-6.3-12.9-12-17.2-5.9-4.2-12.9-6.5-20-6.5z"/>
  <path class="line st19" d="M430.1 422.9H284.2c2.5-14.3 14.8-25.1 29.5-25.1h1.2c7.4-13.3 21.5-22.3 37.6-22.3 19.6 0 36.1 13.2 41.4 31.3 3.8-3.6 9-5.8 14.6-5.8 11.9 0 21.6 9.8 21.6 21.9zM29 215.8h24.8l12.6-37.1 15.1 51.6 10.3-25.8h13.1M21.8 222.7c4-.9 6.5-4.9 5.5-8.9-.9-4-4.9-6.5-8.9-5.5-4 .9-6.5 4.9-5.5 8.9.9 4 4.9 6.4 8.9 5.5zM451.7 211.6H428l-12-35.4-14.4 49.3-9.8-24.7h-12.5M458.6 218.2c-3.8-.9-6.2-4.7-5.3-8.5.9-3.8 4.7-6.2 8.5-5.3 3.8.9 6.2 4.7 5.3 8.5-.9 3.8-4.7 6.2-8.5 5.3z"/>
  <path class="st20" d="M188.6 126.4h-20.9v20.9h20.9v-20.9zM209.5 126.4h-20.9v20.9h20.9v-20.9zM293.3 126.4h-20.9v20.9h20.9v-20.9zM314.2 126.4h-20.9v20.9h20.9v-20.9zM167.7 147.4h-20.9v20.9h20.9v-20.9zM188.6 147.4h-20.9v20.9h20.9v-20.9zM209.5 147.4h-20.9v20.9h20.9v-20.9zM230.5 147.4h-20.9v20.9h20.9v-20.9zM272.3 147.4h-20.9v20.9h20.9v-20.9zM293.3 147.4h-20.9v20.9h20.9v-20.9zM314.2 147.4h-20.9v20.9h20.9v-20.9zM335.1 147.4h-20.9v20.9h20.9v-20.9zM146.8 168.3h-20.9v20.9h20.9v-20.9z"/>
  <path class="st20" d="M167.7 168.3h-20.9v20.9h20.9v-20.9zM188.6 168.3h-20.9v20.9h20.9v-20.9zM209.5 168.3h-20.9v20.9h20.9v-20.9zM230.5 168.3h-20.9v20.9h20.9v-20.9zM251.4 168.3h-20.9v20.9h20.9v-20.9zM272.3 168.3h-20.9v20.9h20.9v-20.9zM293.3 168.3h-20.9v20.9h20.9v-20.9zM314.2 168.3h-20.9v20.9h20.9v-20.9zM335.1 168.3h-20.9v20.9h20.9v-20.9zM356 168.3h-20.9v20.9H356v-20.9z"/>
  <path class="st20" d="M146.8 189.2h-20.9v20.9h20.9v-20.9z"/>
  <path class="st20" d="M167.7 189.2h-20.9v20.9h20.9v-20.9zM188.6 189.2h-20.9v20.9h20.9v-20.9zM209.5 189.2h-20.9v20.9h20.9v-20.9z"/>
  <path d="M230.5 189.2h-20.9v20.9h20.9v-20.9zM251.4 189.2h-20.9v20.9h20.9v-20.9zM272.3 189.2h-20.9v20.9h20.9v-20.9z"/>
  <path class="st20" d="M293.3 189.2h-20.9v20.9h20.9v-20.9zM314.2 189.2h-20.9v20.9h20.9v-20.9zM335.1 189.2h-20.9v20.9h20.9v-20.9zM356 189.2h-20.9v20.9H356v-20.9zM167.7 210.2h-20.9v20.9h20.9v-20.9z"/>
  <path class="st20" d="M146.8 210.2h-20.9v20.9h20.9v-20.9zM188.6 210.2h-20.9v20.9h20.9v-20.9zM209.5 210.2h-20.9v20.9h20.9v-20.9z"/>
  <path d="M230.5 210.2h-20.9v20.9h20.9v-20.9zM251.4 210.2h-20.9v20.9h20.9v-20.9zM272.3 210.2h-20.9v20.9h20.9v-20.9z"/>
  <path class="st20" d="M293.3 210.2h-20.9v20.9h20.9v-20.9zM314.2 210.2h-20.9v20.9h20.9v-20.9zM335.1 210.2h-20.9v20.9h20.9v-20.9zM356 210.2h-20.9v20.9H356v-20.9zM167.7 231.1h-20.9V252h20.9v-20.9zM188.6 231.1h-20.9V252h20.9v-20.9zM188.6 252h-20.9v20.9h20.9V252zM209.5 231.1h-20.9V252h20.9v-20.9z"/>
  <path d="M230.5 231.1h-20.9V252h20.9v-20.9zM251.4 231.1h-20.9V252h20.9v-20.9zM272.3 231.1h-20.9V252h20.9v-20.9z"/>
  <path class="st20" d="M293.3 231.1h-20.9V252h20.9v-20.9zM314.2 231.1h-20.9V252h20.9v-20.9zM314.2 252h-20.9v20.9h20.9V252zM335.1 231.1h-20.9V252h20.9v-20.9zM209.5 252.1h-20.9V273h20.9v-20.9z"/>
  <path class="st20" d="M209.5 272.9h-20.9v20.9h20.9v-20.9zM230.5 252.1h-20.9V273h20.9v-20.9zM251.4 252.1h-20.9V273h20.9v-20.9zM272.3 252.1h-20.9V273h20.9v-20.9zM293.3 252.1h-20.9V273h20.9v-20.9z"/>
  <path class="st20" d="M293.3 272.9h-20.9v20.9h20.9v-20.9zM230.5 273h-20.9v20.9h20.9V273z"/>
  <path class="st20" d="M230.5 293.8h-20.9v20.9h20.9v-20.9zM251.4 273h-20.9v20.9h20.9V273zM272.3 273h-20.9v20.9h20.9V273z"/>
  <path class="st20" d="M272.3 293.8h-20.9v20.9h20.9v-20.9zM251.4 293.9h-20.9v20.9h20.9v-20.9zM251.4 314.8h-20.9v20.9h20.9v-20.9z"/>
  <path d="M267 233.7h-11.3v-14.5c0-4.4-1.6-6.1-4.6-6.1-3.7 0-5.1 2.5-5.1 6v8.9h3.6v5.6h-11.3v-14.4c0-4.4-1.6-6.1-4.6-6.1-3.7 0-5.1 2.5-5.1 6v8.9h5.1v5.6h-16.5V228h3.6v-14.4h-3.6V208h11.3v3.8c1.6-2.7 4.4-4.4 8.1-4.4 3.8 0 7.4 1.7 8.7 5.5 1.5-3.4 4.5-5.5 8.7-5.5 4.8 0 9.2 2.8 9.2 8.8V228h3.7v5.7z" fill="#fff"/>
  <path class="line" d="M341.3 73.3c1.5 0 2.6-1.2 2.6-2.6 0-1.5-1.2-2.6-2.6-2.6-1.5 0-2.6 1.2-2.6 2.6-.1 1.4 1.1 2.6 2.6 2.6z" fill="none" stroke="#000" stroke-width="3" stroke-miterlimit="10"/>
  <path class="fill-line st14" d="M427.5 123.6c0-1.1-.9-2-2-2s-2 .9-2 2v1.8h-1.8c-1.1 0-2 .9-2 2s.9 2 2 2h1.8v1.8c0 1.1.9 2 2 2s2-.9 2-2v-1.8h1.8c1.1 0 2-.9 2-2s-.9-2-2-2h-1.8v-1.8zM88.4 319.5c0-1.1-.9-2-2-2s-2 .9-2 2v1.8h-1.8c-1.1 0-2 .9-2 2s.9 2 2 2h1.8v1.8c0 1.1.9 2 2 2s2-.9 2-2v-1.8h1.8c1.1 0 2-.9 2-2s-.9-2-2-2h-1.8v-1.8z"/>
</g>
</svg>
