<svg xmlns="http://www.w3.org/2000/svg" viewBox="0 0 330 182"><defs><style>.cls-11,.cls-9{stroke-linejoin:round}.cls-11,.cls-3,.cls-4,.cls-9{stroke:#000}.cls-3,.cls-4{stroke-miterlimit:10}.cls-3{stroke-width:.6px}.cls-11,.cls-4{fill:none}.cls-11,.cls-4,.cls-9{stroke-width:1.49px}.cls-9{fill:#fff}.cls-10{fill:#6f4ae7}.cls-11{stroke-linecap:round}</style></defs><g style="isolation:isolate"><g id="Layer_1" data-name="Layer 1"><rect x="64.2" y="96.91" width="91.48" height="71.1" rx="9.5" stroke-linejoin="round" fill="#c3c5ff" stroke="#c2c6ff" stroke-width=".3"/><path class="cls-3" d="M86.7 6.5a.52.52 0 01-.52-.5V1.23a.52.52 0 01.52-.52.52.52 0 01.53.52V6a.52.52 0 01-.53.5z"/><path class="cls-3" d="M89.6 3.61a.52.52 0 01-.52.52h-4.75a.53.53 0 110-1h4.75a.52.52 0 01.52.48z"/><circle class="cls-4" cx="109.94" cy="178.03" r="2.34"/><circle class="cls-4" cx="49.4" cy="140.68" r="2.34"/><path style="mix-blend-mode:multiply" stroke-linejoin="round" fill="#c3c5ff" stroke="#c2c6ff" stroke-width=".3" d="M76.02 26.96h168.15v30.25H76.02z"/><path fill="#fff" d="M76.02 58.09h168.15v99.02H76.02z"/><path d="M75.58 27.41h168.15v124.52a5.83 5.83 0 01-5.83 5.83H81.41a5.83 5.83 0 01-5.83-5.83V27.41h0z" stroke-width="1.49" fill="none" stroke="#000" stroke-linejoin="round"/><path class="cls-4" d="M75.58 57.39h168.15"/><circle class="cls-4" cx="90.29" cy="43.54" r="3.58"/><circle class="cls-4" cx="106.36" cy="43.31" r="3.58"/><circle class="cls-4" cx="122.42" cy="43.31" r="3.58"/><rect x="181.7" y="122.61" width="75.77" height="57.94" rx="8.39" fill="#ad79ff"/><path d="M249.08 180.55v-.74h-59a7.65 7.65 0 01-7.64-7.64V131a7.65 7.65 0 017.64-7.65h59a7.65 7.65 0 017.65 7.65v41.17a7.65 7.65 0 01-7.65 7.64v1.48a9.12 9.12 0 009.13-9.12V131a9.12 9.12 0 00-9.13-9.13h-59A9.13 9.13 0 00181 131v41.17a9.12 9.12 0 009.13 9.12h59z"/><path class="cls-9" d="M199.53 122.29v-14.42a20 20 0 1140.1 0v14.42H251v-13.51a31.42 31.42 0 00-62.83 0v13.51zM227.78 147.12a8.17 8.17 0 01-3.82 6.93v5.82a4.38 4.38 0 01-8.75 0v-5.82a8.2 8.2 0 1112.57-6.93z"/><path class="cls-10" d="M130.31 95.76a3.5 3.5 0 00-4.78-1.28l-7.68 4.44v-8.87a3.5 3.5 0 10-7 0v8.87l-7.68-4.44a3.5 3.5 0 00-3.5 6.06l7.68 4.44-7.68 4.43a3.51 3.51 0 001.75 6.54 3.56 3.56 0 001.75-.47l7.68-4.44v8.87a3.5 3.5 0 007 0V111l7.68 4.44a3.59 3.59 0 001.75.47 3.51 3.51 0 001.75-6.54l-7.68-4.37 7.68-4.44a3.49 3.49 0 001.28-4.8zM175.11 95.76a3.51 3.51 0 00-4.78-1.28l-7.68 4.44v-8.87a3.5 3.5 0 10-7 0v8.87L148 94.48a3.5 3.5 0 00-3.5 6.06l7.68 4.44-7.68 4.43a3.51 3.51 0 001.75 6.54 3.59 3.59 0 001.75-.47l7.68-4.44v8.87a3.5 3.5 0 007 0V111l7.68 4.44a3.56 3.56 0 001.75.47 3.51 3.51 0 001.75-6.54l-7.71-4.37 7.68-4.44a3.5 3.5 0 001.28-4.8z"/><path class="cls-11" d="M279.07 153.16l-9.41-8.69M289.21 133.87l-12.5-2.83M288.34 112.09l-12.23 3.81M276.7 93.66l-8.69 9.42"/></g></g></svg>
