<svg xmlns="http://www.w3.org/2000/svg" viewBox="0 0 330 182"><defs><style>.cls-3,.cls-4,.cls-7,.cls-9{stroke:#000}.cls-3,.cls-4,.cls-7{stroke-miterlimit:10}.cls-3{stroke-width:.6px}.cls-4,.cls-7,.cls-9{fill:none;stroke-width:1.49px}.cls-5{fill:#c3c5ff;stroke:#c2c6ff;stroke-width:.3px;mix-blend-mode:multiply}.cls-5,.cls-9{stroke-linejoin:round}.cls-7,.cls-9{stroke-linecap:round}</style></defs><g style="isolation:isolate"><g id="Layer_1" data-name="Layer 1"><circle class="white" cx="173.3" cy="101.3" r="67.07" fill="#fff"/><path class="cls-3" d="M298.23 110.33a.52.52 0 01-.52-.52V105a.53.53 0 111.05 0v4.77a.52.52 0 01-.53.56z"/><path class="cls-3" d="M301.15 107.42a.53.53 0 01-.53.53h-4.77a.53.53 0 01-.53-.53.52.52 0 01.53-.52h4.77a.52.52 0 01.53.52zM92 157.59a.52.52 0 01-.53-.52v-4.77a.53.53 0 01.53-.53.52.52 0 01.52.53v4.77a.52.52 0 01-.52.52z"/><path class="cls-3" d="M94.86 154.68a.53.53 0 01-.53.53h-4.77a.52.52 0 01-.52-.53.52.52 0 01.52-.52h4.77a.52.52 0 01.53.52z"/><circle class="cls-4" cx="97.03" cy="24.15" r="2.35"/><circle class="cls-4" cx="260.39" cy="76.35" r="2.35"/><path class="cls-5" d="M325.19 154.38h-71.57a14.71 14.71 0 0114.48-12.12h.56a21.18 21.18 0 0138.76 4.32 10.59 10.59 0 0117.77 7.79z"/><path d="M305.47 160H233.9a14.71 14.71 0 0114.48-12.13h.56a21.19 21.19 0 0138.76 4.33 10.59 10.59 0 0117.77 7.8z" stroke-linejoin="round" stroke-width="1.49" fill="none" stroke="#000"/><path class="cls-7" d="M105.93 101.42V101a67.15 67.15 0 01.9-10.59M108 118.22a67.5 67.5 0 01-1.85-10.8M108 84.72a67.31 67.31 0 114.51 45.8q-1.26-2.61-2.29-5.34"/><path class="cls-7" d="M225.59 103.38c0 .43 0 .85-.06 1.27a52.38 52.38 0 01-104.67-3.23"/><path d="M215 71.1c-20.45 9.66-44.32 21.31-47.89 24.17a11.08 11.08 0 1013.67 17.44l.19-.15c3.56-2.85 20.14-23.61 34-41.45z" stroke-width="1.2" fill="#6f4ae7" stroke-linecap="round" stroke-linejoin="round" stroke="#000"/><path class="cls-9" d="M173.25 145.71v8.09M217.5 103.21h8.09M204.81 131.92l5.72 5.72M142.46 132.92l-5.72 5.72M125.56 101.42H68.51M115.06 118.42H58.02M115.06 85.08H58.02"/><path stroke-width="1.2" fill="none" stroke-miterlimit="10" stroke="#000" d="M40.19 55.64h67.47"/><path class="cls-4" d="M8.37 62.73h67.47"/><path class="cls-9" d="M92 55.64H26a13.54 13.54 0 0113.34-11.17h.52a19.52 19.52 0 0135.71 4A9.77 9.77 0 0192 55.64z"/><path class="cls-5" d="M120.86 98.91a41.75 41.75 0 0174.83-25.48l19.72-8.84a52.39 52.39 0 00-94.55 31.09"/><path d="M120.86 98.91a41.75 41.75 0 0174.83-25.48l19.72-8.84a52.39 52.39 0 00-94.55 31.09" fill="#ad79ff"/></g></g></svg>
