<svg xmlns="http://www.w3.org/2000/svg" width="136" height="142" fill="none"><rect width="67.346" height="67.346" x=".948" fill="#0090ED" rx="5.221"/><rect width="67.346" height="67.346" x="68.294" y="74.654" fill="#0090ED" rx="5.221"/><mask id="a" fill="#fff"><path d="M114.235 67.346H74.559V27.669h33.926a5.75 5.75 0 0 1 5.75 5.75v33.927Z"/></mask><path fill="#0090ED" d="M114.235 67.346H74.559h39.676ZM74.559 24.794h33.926a8.625 8.625 0 0 1 8.625 8.625h-5.75a2.875 2.875 0 0 0-2.875-2.875H74.559v-5.75Zm33.926 0a8.625 8.625 0 0 1 8.625 8.625v33.927h-5.75V33.419a2.875 2.875 0 0 0-2.875-2.875v-5.75ZM74.559 67.346V27.669v39.677Z" mask="url(#a)"/><path stroke="#0090ED" stroke-linecap="round" stroke-width="2.875" d="m82.609 36.87-8.05-7.763 8.05-7.763"/><mask id="b" fill="#fff"><path d="M22.353 74.654h39.676v39.677H28.103a5.75 5.75 0 0 1-5.75-5.75V74.654Z"/></mask><path fill="#0090ED" d="M22.353 74.654h39.676-39.676Zm39.676 42.552H28.103a8.625 8.625 0 0 1-8.625-8.625h5.75a2.875 2.875 0 0 0 2.875 2.875H62.03v5.75Zm-33.926 0a8.625 8.625 0 0 1-8.625-8.625V74.654h5.75v33.927a2.875 2.875 0 0 0 2.875 2.875v5.75ZM62.03 74.654v39.677-39.677Z" mask="url(#b)"/><path stroke="#0090ED" stroke-linecap="round" stroke-width="2.875" d="m53.98 105.131 8.05 7.762-8.05 7.763"/><path fill="#FFFFF2" d="M89.95 132.664h.793c7.1 0 9.146-2.464 9.146-9.648v-24.39c0-2.924 1.754-4.469 4.344-4.469 2.631 0 4.301 1.88 4.301 4.218 0 2.59-1.921 4.386-4.719 4.386h-1.002v5.262h1.086c3.382 0 5.512 2.046 5.512 4.678 0 2.714-1.962 4.719-4.552 4.719-.626 0-2.506-.084-2.882-.334v5.22c.71.293 2.047.418 2.924.418 6.473 0 10.525-4.302 10.525-10.065 0-3.592-2.089-6.307-5.221-7.56 2.506-1.336 4.009-3.717 4.009-6.724 0-5.387-4.009-9.146-9.898-9.146-6.473 0-10.19 4.093-10.065 9.898v23.889c0 3.383-.501 4.26-4.302 4.26v5.388ZM35.613 48.028c6.808 0 11.193-4.343 11.193-9.564 0-6.599-5.387-8.102-10.065-9.105-3.8-.877-6.85-1.336-6.85-3.8 0-2.005 1.42-3.634 4.72-3.634 3.508 0 5.555 1.462 7.142 3.8l4.803-3.758c-3.091-3.425-6.474-5.304-11.862-5.304-6.348 0-10.817 4.01-10.817 9.02 0 6.182 5.096 7.644 9.648 8.604 4.218.961 7.142 1.546 7.142 4.386 0 2.213-1.713 3.8-5.012 3.8-3.634 0-6.348-1.629-8.353-4.803l-5.137 4.093c2.882 3.676 6.891 6.265 13.448 6.265Z"/></svg>
