<svg xmlns="http://www.w3.org/2000/svg" xml:space="preserve" viewBox="0 0 110 110">
  <path fill="#9059ff" d="m72.5 61-22.7 3.7c-.6.1-1.1-.3-1.2-.9-.1-.6.3-1.1.9-1.2L72.2 59c.7-.1 1.1-.7 1-1.4-.1-.5-.2-1-.4-1.5-1.2-3-4.4-4.7-7.5-4.2L57 53.3c-.2 0-.4 0-.6-.1-7.8-3.3-21.9-6.8-28.3 6.7 0 .1-.1.2-.2.3L23 65.6c-.4.4-1.1.4-1.5 0-.4-.4-.4-1 0-1.5l4.8-5.3c5.3-11 16.2-13.7 30.7-7.7l8-1.3c4.2-.7 8.2 1.6 9.8 5.5.2.6.4 1.2.5 1.9.1.9-.1 1.7-.6 2.4-.5.8-1.3 1.3-2.2 1.4zm-8.4 15c-1.7.3-3.5.4-5.2.4L40.4 76c-1 0-1.3-.3-2.1.4L36.4 78c-.4.4-1.1.4-1.5-.1-.4-.4-.4-1.1.1-1.5l1.9-1.7c1.2-1 2-.9 3.5-.9l18.6.5c7.5.2 14.7-2.8 19.8-8.3L98 45.7c.4-.4.5-.9.4-1.4-.1-.4-.3-.8-.7-1.1-3.2-2.4-7.8-2.1-10.6.7l-.6.6-12 11.9c-.4.4-1.1.4-1.5 0-.4-.4-.4-1.1 0-1.5l12.6-12.5c3.6-3.6 9.3-4 13.4-.9.8.6 1.3 1.4 1.4 2.4.2 1.2-.2 2.3-1 3.2L80.3 67.5C76 72 70.3 75 64.1 76zm6.8-22.9c-.3.1-.7-.1-.9-.3-.4-.4-.4-1.1 0-1.5l6-6c2.6-2.6 6.5-3.6 10.1-2.5.6.2.9.7.7 1.3-.2.5-.7.9-1.3.7-2.8-.8-5.9-.1-8 2l-6 6c-.2.2-.4.3-.6.3zM31.4 90.5c-.3 0-.6-.1-.8-.3L9.8 69.5c-.5-.4-.5-1.2 0-1.6l5.1-5.1c1.9-1.9 5-1.9 6.9 0 1.2 1.2 2.8 2.7 4.6 4.4 4.4 4.1 9.3 8.7 11.5 11.7 1.3 1.9 1.1 4.5-.5 6.2l-5.2 5.1c-.2.2-.5.3-.8.3zM12.3 68.7l19.1 19 4.3-4.3c.9-.9 1-2.2.3-3.2-2.1-2.8-7.2-7.6-11.2-11.4-1.7-1.6-3.4-3.2-4.6-4.4-1-1-2.6-1-3.6 0l-4.3 4.3z"/>
  <path fill="none" stroke="#9059ff" stroke-linecap="round" stroke-linejoin="round" stroke-width="2" d="M64.9 14.5c.7 5.3 2.7 9.8 10.6 10.6-7.9.8-9.9 5.3-10.6 10.6-.7-5.3-2-9.8-9.9-10.6 8-.8 9.2-5.3 9.9-10.6zm-13.4 29c-.5-4-2.1-7.5-8-8 5.9-.6 7.5-4.1 8-8 .5 4 2.1 7.5 8 8-5.9.5-7.4 4-8 8z"/>
</svg>
