<svg width="91" height="77" fill="none" xmlns="http://www.w3.org/2000/svg"><path d="m63.04 47.52-22.709 3.697a1.044 1.044 0 0 1-1.2-.858 1.036 1.036 0 0 1 .864-1.19l22.71-3.697a1.207 1.207 0 0 0 1.007-1.388 6.658 6.658 0 0 0-.416-1.457c-1.199-2.958-4.358-4.722-7.52-4.208l-8.283 1.349a1.036 1.036 0 0 1-.574-.07c-7.827-3.28-21.916-6.78-28.33 6.708a1.091 1.091 0 0 1-.19.273l-4.867 5.461a1.05 1.05 0 0 1-1.478.036 1.032 1.032 0 0 1-.037-1.467l4.754-5.342c5.299-10.958 16.182-13.685 30.682-7.697l7.987-1.299c4.185-.682 8.212 1.57 9.793 5.47.246.591.432 1.237.541 1.907a3.248 3.248 0 0 1-.578 2.447 3.304 3.304 0 0 1-2.152 1.325h-.004Zm-8.401 15a28.54 28.54 0 0 1-5.236.363l-18.523-.428c-1.02-.017-1.332-.317-2.09.362l-1.9 1.708a1.047 1.047 0 0 1-1.475-.072 1.033 1.033 0 0 1 .073-1.468l1.9-1.708c1.153-1.035 1.98-.93 3.538-.897l18.527.43c7.478.167 14.697-2.84 19.806-8.258l19.182-20.316c.365-.395.531-.923.445-1.447a1.739 1.739 0 0 0-.661-1.082c-3.193-2.427-7.76-2.124-10.614.716l-.592.593L65 42.96a1.05 1.05 0 0 1-1.478 0 1.032 1.032 0 0 1 0-1.468L76.13 28.96c3.595-3.575 9.345-3.958 13.378-.89a3.796 3.796 0 0 1 1.442 2.383 3.762 3.762 0 0 1-.977 3.199L70.784 53.973a28.504 28.504 0 0 1-16.145 8.548Zm6.744-22.927a1.036 1.036 0 0 1-.907-.29 1.032 1.032 0 0 1 0-1.468l6.036-6.004a10.17 10.17 0 0 1 10.062-2.54c.555.165.867.742.701 1.293-.166.547-.747.86-1.302.7a8.07 8.07 0 0 0-7.986 2.017l-6.036 6.002c-.16.158-.362.257-.568.29ZM21.937 76.997c-.299 0-.595-.112-.824-.337L.341 56.038a1.148 1.148 0 0 1 .033-1.662l5.122-5.085c1.9-1.876 4.99-1.876 6.887 0 1.203 1.194 2.84 2.734 4.574 4.366 4.352 4.089 9.282 8.725 11.501 11.696a4.852 4.852 0 0 1-.538 6.19l-5.16 5.12a1.164 1.164 0 0 1-.82.337l-.003-.003ZM2.806 55.223l19.131 18.99 4.332-4.3c.85-.853.98-2.202.306-3.208-2.107-2.81-7.156-7.558-11.216-11.376-1.747-1.642-3.395-3.192-4.617-4.406a2.574 2.574 0 0 0-3.601 0l-4.332 4.3h-.003Z" fill="#9059FF"/><path d="M55.447 1c.729 5.313 2.672 9.842 10.618 10.618-7.946.776-9.89 5.306-10.618 10.618-.728-5.313-1.964-9.842-9.91-10.618 7.946-.776 9.182-5.305 9.91-10.618ZM42.037 30c-.545-3.977-2.09-7.456-8.037-8.037 5.948-.58 7.492-4.06 8.037-8.037.545 3.977 2.09 7.456 8.037 8.037-5.948.58-7.492 4.06-8.037 8.037Z" stroke="#9059FF" stroke-width="2" stroke-linecap="round" stroke-linejoin="round"/></svg>
