<svg width="82" height="82" fill="none" xmlns="http://www.w3.org/2000/svg"><path d="M69.752 38.958a10.14 10.14 0 0 0-6.124 2.052V26.64a8.208 8.208 0 0 0-8.246-8.206H41.005a10.258 10.258 0 1 0-16.382 0H10.238A8.206 8.206 0 0 0 2 26.641v12.52a10.454 10.454 0 0 1 2.052-.203 10.258 10.258 0 0 1 0 20.517c-.69 0-1.376-.068-2.052-.203v12.482a8.215 8.215 0 0 0 8.238 8.245H22.72a10.447 10.447 0 0 1-.203-2.051 10.258 10.258 0 1 1 20.516 0c0 .689-.068 1.376-.203 2.051h12.482a8.215 8.215 0 0 0 8.316-8.214V57.423a10.258 10.258 0 1 0 6.155-18.465h-.031Z" stroke="#9059FF" stroke-width="2.5" stroke-linejoin="round"/></svg>
