<svg xmlns="http://www.w3.org/2000/svg" xml:space="preserve" viewBox="0 0 110 110">
  <path fill="#9059ff" d="M46.3 96.8c-.5.5-1.2.5-1.7 0-.2-.2-.4-.5-.4-.8V83.2c0-.7.5-1.2 1.2-1.2s1.2.5 1.2 1.2v12.7c.1.4 0 .7-.3.9zM54.8 82c-.7 0-1.2.5-1.2 1.2v24.6c0 .7.5 1.2 1.2 1.2s1.2-.5 1.2-1.2V83.2c0-.7-.6-1.2-1.2-1.2zm8.6.1c.2-.2.5-.4.8-.4.7 0 1.2.5 1.2 1.2v12.7c0 .7-.5 1.2-1.2 1.2s-1.2-.5-1.2-1.2V82.9c.1-.3.2-.6.4-.8zM56.1 1.4s0-.1 0 0c-.6-.5-1.3-.5-1.8 0-10.4 11.2-16.7 23.1-18.6 35.4-.5 3.4-.7 6.9-.6 10.3L20.5 61.8c-.9.9-1.4 2.3-1.1 3.6L22 80.7c.1.7.4 1.4.9 2 1.5 1.7 4 1.9 5.7.4L41.5 72c.5 1 1 2.1 1.5 3.1.2.4.6.7 1.1.7l22.1-.3c.4 0 .8-.3 1.1-.7.5-1 1-2.1 1.5-3.1l12.6 10.9c1.1 1 2.7 1.3 4 .7.6-.2 1.1-.5 1.5-1 .6-.6 1-1.4 1.1-2.2l2.6-15.3c.2-1.3-.2-2.6-1.1-3.6L74.8 46.6v-1.3C74.5 26 66.3 11.6 56.1 1.4zM39.6 30.9C42.4 20.8 48 11.7 55.2 4.1c.4-.5 7.6 9.4 8 10 3.8 5.9 6.6 12.4 8 19.3 1.7 8.5 1.6 20.3-1.6 28.3-8.6-6.1-20.9-6.1-29.5 0-3.3-9.8-3.3-20.7-.5-30.8zM27.1 81.3c-.2.2-.5.3-.8.4-.9.2-1.8-.5-1.9-1.4L21.8 65c-.1-.5.1-1.1.5-1.5l13.1-13.3c.6 6.4 2.3 12.9 5.1 19.5L27.1 81.3zm42-17c-1 3-2.3 5.9-3.7 8.8l-20.7.3c-1.5-2.9-2.7-6-3.8-9.1 8.3-6.5 19.9-6.4 28.2 0zM87.8 63c.4.4.6.9.5 1.5l-2.6 15.3c-.1.3-.2.6-.4.8-.6.7-1.7.8-2.4.2L69.7 69.4c2.7-6.6 4.4-13.2 4.9-19.6L87.8 63zM63.7 42.2c-4.8 4.8-12.6 4.8-17.4 0-4.8-4.8-4.8-12.7 0-17.5 4.8-4.8 12.6-4.8 17.4 0 4.8 4.8 4.8 12.7 0 17.5zM63 25.4c-4.4-4.4-11.5-4.4-15.9 0s-4.4 11.6 0 16 11.5 4.4 15.9 0 4.4-11.5 0-16zm-.7.8c-4-4-10.5-4-14.5 0s-4 10.5 0 14.5 10.5 4 14.5 0 4-10.5 0-14.5zm-.6 13.1c0-.2-.1-.3-.2-.5l-.9-.9c-.3-.3-.7-.3-1 0-.3.3-.3.7 0 1l.9.9c.1.1.3.2.5.2-3.3 3-8.4 3-11.7.1.2 0 .3-.1.5-.2l.9-.9c.3-.3.3-.7 0-1-.3-.3-.7-.3-1 0l-.9.9c-.1.1-.2.3-.2.5-3-3.3-3-8.4-.1-11.8 0 .2.1.3.2.5l.9.9c.3.3.7.3 1 0 .3-.3.3-.7 0-1l-.9-.9c-.1-.1-.3-.2-.5-.2 3.3-3 8.4-3 11.7-.1-.2 0-.3.1-.5.2l-.9.9c-.3.3-.3.7 0 1 .3.3.7.3 1 0l.9-.9c.1-.1.2-.3.2-.5 3 3.3 3 8.4.1 11.8zm-14.6-7.2.6.2c.2.1.5 0 .7-.2.3-.3.3-.7 0-1-.1-.1-.2-.2-.3-.2l-.6-.2c-.4-.1-.8.1-.9.5-.1.4.1.8.5.9zm1.5 3.1c-.1-.4-.5-.6-.9-.5l-.6.2c-.4.1-.6.5-.5.9.1.4.5.6.9.5l.6-.2c.4-.1.6-.5.5-.9zm8.1-8.3c.2.1.5 0 .7-.2.1-.1.2-.2.2-.3l.2-.6c.1-.4-.1-.8-.5-.9-.4-.1-.8.1-.9.5l-.2.6c-.1.5.1.8.5.9zm-4.5-1 .2.6c.1.4.5.6.9.5.4-.1.6-.5.5-.9l-.2-.6c-.1-.4-.5-.6-.9-.5-.4.1-.6.5-.5.9zm1.2 14c-.4-.1-.8.1-.9.5l-.2.6c-.1.4.1.8.5.9.4.1.8-.1.9-.5l.2-.6c.1-.4-.2-.8-.5-.9zm4.4 1.1-.2-.6c-.1-.4-.5-.6-.9-.5-.4.1-.6.5-.5.9l.2.6c.1.4.5.6.9.5.4-.1.6-.5.5-.9zm.9-11.2c-.3-.3-.7-.3-1 0L55 32.5l-3.2-3.2c-.3-.3-.7-.3-1 0-.3.3-.3.7 0 1l3.2 3.2-.6.6c-.3.3-.3.7 0 1 .3.3.7.3 1 0l.6-.6.6.6c.3.3.7.3 1 0 .3-.3.3-.7 0-1l-.6-.6 2.7-2.7c.3-.3.3-.7 0-1zm2.8 1.9c.1.4.5.6.9.5l.6-.2c.4-.1.6-.5.5-.9-.1-.4-.5-.6-.9-.5l-.6.2c-.4.1-.6.5-.5.9zm1.9 3.9c.1-.4-.1-.8-.5-.9l-.6-.2c-.4-.1-.8.1-.9.5-.1.4.1.8.5.9l.6.2c.5.2.8-.1.9-.5z"/>
</svg>
