<svg width="108" height="108" viewBox="0 0 70 106" fill="none" xmlns="http://www.w3.org/2000/svg">
  <path d="M26.4952 94.0149C26.0372 94.4748 25.2934 94.4748 24.8334 94.0149C24.6122 93.7928 24.4889 93.4941 24.4889 93.1816V80.6679C24.4889 80.0174 25.0154 79.4887 25.6633 79.4887C26.3112 79.4887 26.8377 80.0174 26.8377 80.6679V93.1816C26.8377 93.4941 26.7144 93.7948 26.4932 94.0149H26.4952ZM34.771 79.4887C34.1231 79.4887 33.5966 80.0174 33.5966 80.6679V104.811C33.5907 105.461 34.1133 105.994 34.7612 106C35.4091 106.006 35.9395 105.481 35.9454 104.83C35.9454 104.825 35.9454 104.817 35.9454 104.811V80.6679C35.9454 80.0174 35.4189 79.4887 34.771 79.4887ZM43.2875 79.5929C43.5068 79.3727 43.8063 79.247 44.1175 79.247C44.7654 79.247 45.2919 79.7756 45.2919 80.4262V92.9398C45.286 93.5845 44.7673 94.1034 44.1273 94.1093C43.4794 94.1152 42.9489 93.5904 42.943 92.9398V80.4262C42.943 80.1137 43.0664 79.813 43.2875 79.5929ZM36.1275 0.393432C36.104 0.367882 36.0805 0.342332 36.055 0.318747C35.5813 -0.127397 34.8395 -0.101847 34.3952 0.373778C24.1189 11.3819 17.963 23.0623 16.0976 35.0905C15.5789 38.4454 15.3871 41.8416 15.5241 45.2339L1.17062 59.7129C0.246742 60.6229 -0.168222 61.9338 0.0627483 63.2113L2.58385 78.2309C2.70521 78.9521 3.02035 79.6282 3.49599 80.1825C4.93662 81.8629 7.46164 82.0516 9.1352 80.605L21.7114 69.7305C22.1733 70.7447 22.6607 71.7608 23.1774 72.7788C23.381 73.1798 23.794 73.4294 24.2422 73.4235L45.9711 73.1031C46.4076 73.0972 46.805 72.8476 47.0027 72.4565C47.5155 71.4385 48.0029 70.4204 48.4668 69.4003L60.8629 80.1176C61.9512 81.0728 63.474 81.3539 64.8305 80.8527C65.3864 80.6522 65.8933 80.3319 66.3122 79.9132C66.8975 79.3236 67.2831 78.565 67.4162 77.7434L69.9373 62.7239C70.1682 61.4444 69.7533 60.1335 68.8294 59.2255L54.4779 44.7445C54.4896 44.3337 54.5053 43.923 54.4975 43.5141C54.1275 24.5245 46.0866 10.413 36.1314 0.391467L36.1275 0.393432ZM19.8812 29.3574C22.6509 19.4813 28.1492 10.4661 35.2368 3.07423C35.6714 2.62022 42.6886 12.2801 43.0977 12.9149C46.8187 18.6853 49.604 25.0945 50.9977 31.8397C52.7143 40.1474 52.5577 51.7491 49.4611 59.6422C41.0601 53.691 28.9204 53.6949 20.5252 59.654C17.1448 49.9705 17.1115 39.2335 19.8812 29.3574ZM7.60453 78.8185C7.37551 79.015 7.09952 79.1467 6.802 79.1978C5.90357 79.3492 5.05211 78.7419 4.90139 77.8397L2.38028 62.8202C2.27654 62.2915 2.44879 61.7471 2.83831 61.3776L15.7374 48.3628C16.3384 54.6343 18.0021 61.0061 20.7248 67.4762L7.60649 78.8185H7.60453ZM48.8328 62.1559C47.811 65.0961 46.6053 67.9676 45.2234 70.7545L24.9449 71.0532C23.5063 68.1621 22.2536 65.1826 21.1966 62.1303C29.3314 55.7959 40.7097 55.8057 48.8348 62.1539L48.8328 62.1559ZM67.1617 60.8902C67.5493 61.2616 67.7215 61.8061 67.6197 62.3348L65.0986 77.3523C65.0477 77.6511 64.9185 77.9301 64.7208 78.1581C64.1258 78.8519 63.0845 78.9286 62.3935 78.3311L49.4474 67.1401C52.1447 60.6563 53.7693 54.2236 54.2998 47.9147L67.1617 60.8902ZM43.5714 40.4246C38.8502 45.1651 31.1949 45.1651 26.4737 40.4246C21.7525 35.684 21.7525 27.9974 26.4737 23.2568C31.1949 18.5163 38.8502 18.5163 43.5714 23.2568C48.2847 28.0013 48.2847 35.6801 43.5714 40.4246ZM42.8432 23.986C38.5213 19.6562 31.5237 19.6562 27.2018 23.986C22.8819 28.3236 22.8819 35.3538 27.2018 39.6915C31.5217 44.0291 38.5233 44.0291 42.8432 39.6915C47.1632 35.3538 47.1632 28.3236 42.8432 23.986ZM42.1327 24.7014C38.2042 20.7647 31.8428 20.7647 27.9123 24.7014C23.9858 28.644 23.9858 35.0374 27.9123 38.98C31.8388 42.9226 38.2062 42.9226 42.1327 38.98C46.0592 35.0374 46.0592 28.644 42.1327 24.7014ZM41.5416 37.5688C41.5318 37.3978 41.4594 37.2367 41.34 37.1168L40.4474 36.2206C40.1753 35.9474 39.7369 35.9474 39.4648 36.2206C39.1927 36.4938 39.1927 36.934 39.4648 37.2072L40.3573 38.1034C40.4807 38.2272 40.647 38.3 40.8213 38.3059C37.5583 41.2481 32.6218 41.2815 29.3177 38.3864C29.488 38.3766 29.6485 38.3059 29.7679 38.184L30.6605 37.2878C30.9326 37.0146 30.9326 36.5743 30.6605 36.3012C30.3884 36.028 29.95 36.028 29.6779 36.3012L28.7853 37.1974C28.662 37.3212 28.5896 37.4883 28.5837 37.6632C25.6535 34.3869 25.6202 29.4301 28.5035 26.1126C28.5133 26.2836 28.5837 26.4447 28.7051 26.5646L29.5976 27.4608C29.8697 27.734 30.3082 27.734 30.5802 27.4608C30.8523 27.1876 30.8523 26.7474 30.5802 26.4742L29.6877 25.578C29.5644 25.4542 29.398 25.3814 29.2238 25.3755C32.4867 22.4333 37.4252 22.398 40.7273 25.295C40.557 25.3048 40.3965 25.3755 40.2771 25.4974L39.3845 26.3936C39.1125 26.6668 39.1125 27.107 39.3845 27.3802C39.6566 27.6534 40.0951 27.6534 40.3671 27.3802L41.2597 26.484C41.383 26.3602 41.4554 26.1951 41.4613 26.0202C44.3915 29.2965 44.4248 34.2532 41.5396 37.5708L41.5416 37.5688ZM27.2468 30.5288L27.8223 30.6841C28.0631 30.7489 28.3175 30.6801 28.4937 30.5032C28.7638 30.2301 28.7638 29.7878 28.4937 29.5166C28.4076 29.4301 28.2999 29.3673 28.1825 29.3358L27.607 29.1805C27.237 29.0803 26.8554 29.3024 26.7555 29.6739C26.6557 30.0453 26.8769 30.4286 27.2468 30.5288ZM28.7012 33.5987C28.6013 33.2273 28.2216 33.0072 27.8497 33.1054L27.2742 33.2607C26.9043 33.3609 26.6831 33.7422 26.7829 34.1156C26.8828 34.4871 27.2625 34.7092 27.6344 34.609L28.2099 34.4537C28.5798 34.3535 28.801 33.9722 28.7012 33.5987ZM36.6657 25.464C36.9065 25.5288 37.1629 25.4601 37.3391 25.2832C37.4252 25.1967 37.4878 25.0886 37.5191 24.9707L37.6738 24.3928C37.7736 24.0214 37.5524 23.6381 37.1825 23.5379C36.8125 23.4377 36.4308 23.6598 36.331 24.0312L36.1764 24.609C36.0766 24.9805 36.2958 25.3637 36.6657 25.464ZM32.2636 24.4125C32.2636 24.4125 32.2636 24.4184 32.2655 24.4223L32.4202 25.0001C32.52 25.3716 32.8997 25.5937 33.2697 25.4935C33.6396 25.3932 33.8608 25.0119 33.761 24.6385L33.6063 24.0607C33.5104 23.6873 33.1307 23.4652 32.7588 23.5615C32.3869 23.6578 32.1657 24.0391 32.2616 24.4125H32.2636ZM33.3852 38.2135C33.0152 38.1113 32.6335 38.3294 32.5317 38.7009C32.5317 38.7048 32.5317 38.7068 32.5298 38.7107L32.3752 39.2886C32.2734 39.66 32.4906 40.0433 32.8606 40.1455C33.2305 40.2477 33.6122 40.0295 33.714 39.6581C33.714 39.6541 33.714 39.6522 33.716 39.6482L33.8706 39.0704C33.9724 38.6989 33.7551 38.3157 33.3852 38.2135ZM37.7795 39.2571L37.6249 38.6793C37.525 38.3078 37.1453 38.0857 36.7734 38.186C36.4034 38.2862 36.1823 38.6675 36.2821 39.0409L36.4367 39.6187C36.5365 39.9902 36.9163 40.2123 37.2882 40.1121C37.6581 40.0118 37.8793 39.6305 37.7795 39.2571ZM38.6368 28.2489C38.3647 27.9758 37.9263 27.9758 37.6542 28.2489L34.9765 30.9376L31.8173 27.7655C31.5452 27.4923 31.1068 27.4923 30.8347 27.7655C30.5626 28.0386 30.5626 28.4789 30.8347 28.7521L33.9939 31.9242L33.4419 32.4785C33.1699 32.7517 33.1699 33.1919 33.4419 33.4651C33.714 33.7383 34.1525 33.7383 34.4245 33.4651L34.9765 32.9109L35.6087 33.5457C35.8808 33.8189 36.3193 33.8189 36.5914 33.5457C36.8634 33.2725 36.8634 32.8322 36.5914 32.5591L35.9591 31.9242L38.6368 29.2356C38.9089 28.9624 38.9089 28.5221 38.6368 28.2489ZM41.3497 30.0827C41.4515 30.4502 41.8273 30.6683 42.1953 30.572L42.7708 30.4168C43.1407 30.3165 43.3619 29.9353 43.2621 29.5618C43.1623 29.1904 42.7825 28.9683 42.4106 29.0685L41.8352 29.2238C41.4652 29.326 41.248 29.7092 41.3497 30.0807V30.0827ZM43.2895 34.0056C43.3893 33.6341 43.1681 33.2509 42.7982 33.1506L42.2227 32.9954C41.8528 32.8951 41.4711 33.1172 41.3713 33.4887C41.2714 33.8601 41.4926 34.2434 41.8626 34.3436L42.438 34.4989C42.808 34.5991 43.1897 34.377 43.2895 34.0056Z" fill="#9059FF"/>
</svg>
