<svg width="437" height="46" fill="none" xmlns="http://www.w3.org/2000/svg"><g clip-path="url(#a)"><path fill="#fff" d="M0 0h437v46H0z"/><path fill="#004D48" d="M0-107h145.643v254.748H0z"/><path fill="#396AFF" d="M145.645-107h145.643v254.748H145.645z"/><path fill="#F67D6D" d="M291.286-107h145.643v254.748H291.286z"/><path d="M14.695 41h28.923v-7.696H31.546l5.03-4.88c4.024-3.872 6.79-7.595 6.79-12.524 0-6.64-4.677-11.368-13.48-11.368-8.702 0-14.134 4.577-14.487 13.581h9.356c.453-4.275 2.063-5.835 4.628-5.835s3.823 1.61 3.823 4.024c0 3.018-2.364 6.087-5.936 9.91l-12.575 13.33V41Zm48.508.604c10.261 0 16.8-6.69 16.8-18.109v-1.408c0-11.67-7.142-17.555-16.599-17.555-9.507 0-16.6 6.388-16.6 17.756v1.51c0 11.317 6.339 17.806 16.399 17.806Zm.302-7.998c-4.427 0-6.389-3.17-6.389-9.86v-1.508c0-6.64 1.962-9.91 6.288-9.91 4.376 0 6.288 3.32 6.288 9.91v1.459c0 6.64-1.76 9.909-6.187 9.909ZM82.238 41h28.923v-7.696H99.089l5.03-4.88c4.024-3.872 6.79-7.595 6.79-12.524 0-6.64-4.678-11.368-13.48-11.368-8.702 0-14.135 4.577-14.487 13.581h9.356c.453-4.275 2.062-5.835 4.628-5.835 2.565 0 3.823 1.61 3.823 4.024 0 3.018-2.364 6.087-5.936 9.91l-12.575 13.33V41Zm38.749 0h10.312V5.035h-8.903l-8.25 5.784v8.602l6.841-4.225V41Z" fill="#F9BFD1"/><path d="M160.338 41h28.923v-7.696h-12.072l5.03-4.88c4.024-3.872 6.791-7.595 6.791-12.524 0-6.64-4.678-11.368-13.481-11.368-8.702 0-14.134 4.577-14.486 13.581h9.356c.452-4.275 2.062-5.835 4.627-5.835 2.566 0 3.823 1.61 3.823 4.024 0 3.018-2.364 6.087-5.935 9.91l-12.576 13.33V41Zm48.508.604c10.262 0 16.801-6.69 16.801-18.109v-1.408c0-11.67-7.143-17.555-16.6-17.555-9.506 0-16.599 6.388-16.599 17.756v1.51c0 11.317 6.338 17.806 16.398 17.806Zm.302-7.998c-4.426 0-6.388-3.17-6.388-9.86v-1.508c0-6.64 1.962-9.91 6.287-9.91 4.377 0 6.288 3.32 6.288 9.91v1.459c0 6.64-1.76 9.909-6.187 9.909ZM227.881 41h28.923v-7.696h-12.072l5.03-4.88c4.024-3.872 6.791-7.595 6.791-12.524 0-6.64-4.678-11.368-13.481-11.368-8.702 0-14.134 4.577-14.487 13.581h9.356c.453-4.275 2.063-5.835 4.628-5.835s3.823 1.61 3.823 4.024c0 3.018-2.364 6.087-5.936 9.91l-12.575 13.33V41Zm38.75 0h10.311V5.035h-8.903l-8.249 5.784v8.602l6.841-4.225V41Z" fill="#82ECB7"/><path d="M305.981 41h28.923v-7.696h-12.072l5.03-4.88c4.024-3.872 6.791-7.595 6.791-12.524 0-6.64-4.678-11.368-13.481-11.368-8.702 0-14.135 4.577-14.487 13.581h9.356c.453-4.275 2.063-5.835 4.628-5.835s3.823 1.61 3.823 4.024c0 3.018-2.364 6.087-5.936 9.91l-12.575 13.33V41Zm48.508.604c10.261 0 16.8-6.69 16.8-18.109v-1.408c0-11.67-7.142-17.555-16.599-17.555-9.507 0-16.599 6.388-16.599 17.756v1.51c0 11.317 6.338 17.806 16.398 17.806Zm.302-7.998c-4.427 0-6.389-3.17-6.389-9.86v-1.508c0-6.64 1.962-9.91 6.288-9.91 4.376 0 6.288 3.32 6.288 9.91v1.459c0 6.64-1.761 9.909-6.187 9.909ZM373.524 41h28.923v-7.696h-12.072l5.03-4.88c4.024-3.872 6.79-7.595 6.79-12.524 0-6.64-4.678-11.368-13.48-11.368-8.702 0-14.135 4.577-14.487 13.581h9.356c.453-4.275 2.062-5.835 4.628-5.835 2.565 0 3.823 1.61 3.823 4.024 0 3.018-2.365 6.087-5.936 9.91l-12.575 13.33V41Zm38.749 0h10.312V5.035h-8.903l-8.25 5.784v8.602l6.841-4.225V41Z" fill="#FFD25E"/></g><defs><clipPath id="a"><path fill="#fff" d="M0 0h437v46H0z"/></clipPath></defs></svg>
