<svg width="114" height="66" fill="none" xmlns="http://www.w3.org/2000/svg"><path d="m77.647 49.033 16.964-22.828 9.155-1.532a10.585 10.585 0 0 0 4.091-1.601l.805-.594c1.097-.725 1.63-1.933 1.399-3.166-.235-1.24-1.182-2.2-2.422-2.509l-1.08-.319a10.93 10.93 0 0 0-4.373-.166l-9.155 1.532L68.72 1.925a5.969 5.969 0 0 0-4.228-.871l-2.61.434a1.117 1.117 0 0 0-.874.707c-.132.365-.04.77.24 1.054l17.183 17.448c-3.334.757-6.09 1.484-9.457 2.38l-3.444.921-6.538-6.462a1.157 1.157 0 0 0-1.02-.316l-2.226.37a1.12 1.12 0 0 0-.791.54c-.164.282-.18.617-.048.915l3.915 8.818-.433 9.55c0 .078.006.153.017.23a1 1 0 0 0 .367.613c.257.212.609.3.946.245l2.225-.37c.372-.058.695-.29.842-.618l3.751-8.18 3.577-.26c3.48-.24 6.337-.45 9.743-.823l-9.701 21.944a.993.993 0 0 0 .157 1.069c.266.31.67.454 1.083.388l2.61-.435c1.492-.248 2.791-1.024 3.64-2.183Z" fill="#fff"/><path d="M4.279 43.686c-.936 1.993-.693 4.132.699 6.338 2.403 3.822 8.185 7.858 17.141 12.011 6.606 3.065 12.612 5.073 12.677 5.094l.14.044.053-.136.425-1.093.054-.14-.142-.05-.016-.005c-.352-.12-6.102-2.068-12.46-5.019-3.25-1.508-6.654-3.275-9.578-5.193-2.926-1.92-5.356-3.98-6.672-6.07-1.163-1.852-1.345-3.512-.588-5.113.593-1.262 1.742-2.423 3.318-3.487 1.575-1.064 3.566-2.025 5.826-2.89 4.522-1.73 10.103-3.069 15.552-4.086 10.897-2.034 21.237-2.776 21.44-2.79l.193-.013-.054-.18-.355-1.197-.032-.108-.116.005c-.115.005-10.631.75-21.63 2.802-7.463 1.395-13.37 3.035-17.69 4.91-4.312 1.874-7.07 3.995-8.185 6.366Z" fill="#fff" stroke="#fff" stroke-width=".3"/></svg>