<svg width="69" height="67" fill="none" xmlns="http://www.w3.org/2000/svg"><path d="m33.054 53.7 16.76-24.021 9.044-1.612a10.09 10.09 0 0 0 4.041-1.685l.796-.625a3.326 3.326 0 0 0 1.382-3.332c-.232-1.304-1.168-2.315-2.393-2.639l-1.067-.336a10.152 10.152 0 0 0-4.32-.174l-9.045 1.612L24.236 4.13a5.605 5.605 0 0 0-4.177-.917l-2.58.457c-.403.072-.732.36-.863.745-.13.384-.04.81.238 1.108l16.975 18.36c-3.293.796-6.016 1.562-9.343 2.506l-3.402.968-6.46-6.8a1.1 1.1 0 0 0-1.008-.332l-2.198.388a1.116 1.116 0 0 0-.83 1.531l3.868 9.28-.427 10.048c0 .083.005.161.017.242.04.25.166.48.362.646.254.224.602.315.934.258l2.2-.39c.366-.06.685-.304.83-.65l3.707-8.607 3.534-.275c3.438-.252 6.26-.472 9.625-.865l-9.584 23.09a1.1 1.1 0 0 0 .155 1.125c.263.326.662.478 1.07.409l2.579-.457a5.496 5.496 0 0 0 3.596-2.298Z" fill="#fff"/></svg>