<svg xmlns="http://www.w3.org/2000/svg" xmlns:xlink="http://www.w3.org/1999/xlink" xmlns:a="http://ns.adobe.com/AdobeSVGViewerExtensions/3.0/" version="1.1" x="0px" y="0px" width="200px" height="200px" viewBox="-12.73 0 200 200" overflow="visible" enable-background="new -12.73 0 200 200" xml:space="preserve"><style>.style0{fill:	#9BA0A3;}.style1{fill:	#ECF0F1;}.style2{fill:	#D8D8D8;}.style3{fill:	#B82A26;}.style4{fill:	#972A28;}.style5{fill:	#C5C8CA;}.style6{fill:	#454548;}.style7{fill:	#C83682;}</style><defs></defs><path d="M174.3 186.33c0 7.5-6.17 13.67-13.67 13.67H13.67C6.17 200 0 193.83 0 186.33V39.38 c0-7.5 6.17-13.67 13.67-13.67h146.95c7.5 0 13.67 6.17 13.67 13.67V186.33z" class="style0"/><path d="M174.3 178.2c0 7.5-6.17 13.67-13.67 13.67H13.67C6.17 191.88 0 185.7 0 178.2V31.25 c0-7.5 6.17-13.67 13.67-13.67h146.95c7.5 0 13.67 6.17 13.67 13.67V178.2z" class="style1"/><path d="M120.47 191.88h40.16c7.5 0 13.67-6.17 13.67-13.67V130c0 0 0.94 34.53-8.75 46.48 c-2.66 3.28-5.55 5.55-5.55 5.55C153.12 187.27 146.09 190.62 120.47 191.88z" class="style2"/><path d="M174.3 82.11V31.48c0-7.66-6.25-13.91-13.91-13.91H13.98c-7.66 0-13.91 6.25-13.91 13.91v50.62H174.3z" class="style3"/><rect y="77.19" width="174.3" height="4.92" class="style4"/><circle cx="31.25" cy="30.55" r="11.02" class="style4"/><path d="M38.2 30.39c0 3.75-3.05 6.88-6.88 6.88h-0.31c-3.75 0-6.88-3.05-6.88-6.88V6.88c0-3.75 3.05-6.88 6.88-6.88 h0.31c3.75 0 6.88 3.05 6.88 6.88V30.39z" class="style5"/><circle cx="143.05" cy="30.55" r="11.02" class="style4"/><path d="M150.08 30.39c0 3.75-3.05 6.88-6.88 6.88h-0.31c-3.75 0-6.88-3.05-6.88-6.88V6.88 c0-3.75 3.05-6.88 6.88-6.88h0.31c3.75 0 6.88 3.05 6.88 6.88V30.39z" class="style5"/><path d="M73.52 110c2.89 1.41 5.08 3.36 6.56 5.78s2.27 5.08 2.27 7.97c0 2.97-0.62 5.78-1.8 8.44 s-3.36 5.78-6.41 9.22s-7.5 7.89-13.36 13.2h22.73l-1.33 9.92H46.09v-9.22c6.72-6.64 11.64-11.64 14.69-15s5.23-6.17 6.48-8.44 s1.88-4.53 1.88-6.88c0-2.27-0.62-3.98-1.95-5.31c-1.25-1.25-3.05-1.95-5.23-1.95c-1.95 0-3.75 0.47-5.23 1.33 c-1.56 0.94-3.12 2.34-4.77 4.38l-7.73-6.09c2.27-3.05 5.08-5.39 8.28-7.03c3.2-1.72 6.8-2.58 10.78-2.58 C67.27 107.81 70.62 108.59 73.52 110z" class="style6"/><path d="M120.94 129.3c2.42 1.48 4.3 3.59 5.7 6.33c1.33 2.73 2.03 6.09 2.03 9.92c0 3.75-0.78 7.19-2.5 10.31 c-1.64 3.12-3.98 5.55-7.03 7.34s-6.56 2.73-10.62 2.73c-7.11 0-12.42-2.42-15.86-7.11c-3.44-4.77-5.16-11.33-5.16-19.61 c0-6.25 0.94-11.72 2.89-16.41s4.77-8.36 8.36-10.94c3.67-2.58 7.89-3.91 12.89-3.91c4.69 0 8.91 1.25 12.66 3.67l-4.77 7.73 c-2.5-1.41-5.08-2.11-7.58-2.11c-3.12 0-5.62 1.33-7.58 3.91c-1.95 2.66-3.05 6.33-3.44 11.17c3.36-3.36 7.27-5.08 11.72-5.08 C115.78 127.19 118.52 127.89 120.94 129.3z M113.91 153.75c1.17-1.95 1.8-4.61 1.8-8.05s-0.55-5.94-1.64-7.42s-2.73-2.19-4.92-2.19 c-2.97 0-5.7 1.48-8.12 4.38c0.08 5.86 0.7 10 1.88 12.5s3.12 3.67 5.86 3.67C111.02 156.64 112.73 155.7 113.91 153.75z" class="style6"/><path d="M65.16 43.28v6.25h7.34v4.92h-7.34v10H58.2V38.36H74.3l-0.7 4.92H65.16z" class="style1"/><path d="M85.31 43.28v5.55h7.81v4.77h-7.81v5.94h9.53v4.92H78.36V38.36H95l-0.7 4.92H85.31z" class="style1"/><path d="M119.06 52.58c1.09 0.94 1.64 2.34 1.64 4.22c0 2.81-1.02 4.84-3.12 5.94c-2.03 1.17-4.92 1.72-8.59 1.72 h-8.83V38.36h7.81c3.75 0 6.64 0.55 8.67 1.56s2.97 2.73 2.97 5.16c0 1.56-0.47 2.73-1.41 3.67s-2.03 1.56-3.44 1.88 C116.56 51.02 117.97 51.64 119.06 52.58z M107.11 48.67h1.8c1.25 0 2.11-0.23 2.73-0.7c0.55-0.47 0.86-1.17 0.86-2.19 c0-0.94-0.31-1.56-0.94-2.03s-1.64-0.62-2.97-0.62h-1.48V48.67L107.11 48.67z M112.34 58.91c0.78-0.47 1.09-1.25 1.09-2.5 c0-1.17-0.39-1.95-1.09-2.5s-1.72-0.78-3.05-0.78h-2.27v6.41h1.88C110.47 59.53 111.56 59.38 112.34 58.91z" class="style1"/><path d="M29.77 112.5c28.36-7.97 64.61-15.78 93.52-5.94c26.72 9.14 25.55 33.52 3.05 47.81 c-14.77 9.38-33.05 13.98-50.23 15.94c-15.62 1.8-59.77 6.72-55.62-21.8c2.11-14.22 19.45-28.2 30-35.55 c23.36-16.41 50.78-22.58 78.98-19.53c3.91 0.39 3.91-5.7 0-6.17C90.39 83.05 45.08 97.66 22.5 131.64 c-7.27 10.94-14.69 27.19-2.73 37.97c12.58 11.33 42.42 8.59 57.19 6.95c20.86-2.42 46.8-8.98 62.5-24.22 c8.75-8.52 15.78-23.59 8.75-35.31c-9.06-15.16-29.77-18.75-45.7-19.84c-25.08-1.72-50.31 2.73-74.3 9.45 C24.3 107.66 25.94 113.59 29.77 112.5L29.77 112.5z" class="style7"/></svg>