<?xml version="1.0" encoding="utf-8"?>
<!-- Generator: Adobe Illustrator 16.0.0, SVG Export Plug-In . SVG Version: 6.00 Build 0)  -->
<!DOCTYPE svg PUBLIC "-//W3C//DTD SVG 1.1//EN" "http://www.w3.org/Graphics/SVG/1.1/DTD/svg11.dtd">
<svg version="1.1" id="KR_Download_on_the" xmlns="http://www.w3.org/2000/svg" xmlns:xlink="http://www.w3.org/1999/xlink" x="0px"
	 y="0px" width="135px" height="40px" viewBox="0 0 135 40" enable-background="new 0 0 135 40" xml:space="preserve">
<g>
	<path fill="#A6A6A6" d="M130.197,40H4.729C2.122,40,0,37.872,0,35.267V4.726C0,2.12,2.122,0,4.729,0h125.468
		C132.803,0,135,2.12,135,4.726v30.541C135,37.872,132.803,40,130.197,40L130.197,40z"/>
	<path d="M134.032,35.268c0,2.116-1.714,3.83-3.834,3.83H4.729c-2.119,0-3.839-1.714-3.839-3.83V4.725
		c0-2.115,1.72-3.835,3.839-3.835h125.468c2.121,0,3.834,1.72,3.834,3.835L134.032,35.268L134.032,35.268z"/>
	<g>
		<g>
			<path fill="#FFFFFF" d="M30.128,19.784c-0.029-3.223,2.639-4.791,2.761-4.864c-1.511-2.203-3.853-2.504-4.676-2.528
				c-1.967-0.207-3.875,1.177-4.877,1.177c-1.022,0-2.565-1.157-4.228-1.123c-2.14,0.033-4.142,1.272-5.24,3.196
				c-2.266,3.923-0.576,9.688,1.595,12.859c1.086,1.553,2.355,3.287,4.016,3.226c1.625-0.067,2.232-1.036,4.193-1.036
				c1.943,0,2.513,1.036,4.207,0.997c1.744-0.028,2.842-1.56,3.89-3.127c1.255-1.78,1.759-3.533,1.779-3.623
				C33.507,24.924,30.161,23.647,30.128,19.784z"/>
			<path fill="#FFFFFF" d="M26.928,10.306c0.874-1.093,1.472-2.58,1.306-4.089c-1.265,0.056-2.847,0.875-3.758,1.944
				c-0.806,0.942-1.526,2.486-1.34,3.938C24.557,12.205,26.016,11.382,26.928,10.306z"/>
		</g>
	</g>
	<g>
		<path fill="#FFFFFF" d="M51.285,16.038h-1.61l-0.882-2.772h-3.066l-0.84,2.772h-1.568l3.038-9.436h1.876L51.285,16.038z
			 M48.527,12.104L47.729,9.64c-0.084-0.252-0.243-0.845-0.476-1.778h-0.028c-0.093,0.401-0.243,0.994-0.448,1.778l-0.784,2.464
			H48.527z"/>
		<path fill="#FFFFFF" d="M59.097,12.552c0,1.157-0.313,2.072-0.938,2.744c-0.56,0.598-1.255,0.896-2.086,0.896
			c-0.896,0-1.54-0.322-1.932-0.966h-0.028v3.584h-1.512v-7.336c0-0.728-0.019-1.475-0.056-2.24h1.33l0.084,1.078h0.028
			c0.504-0.812,1.27-1.218,2.296-1.218c0.803,0,1.472,0.317,2.009,0.952C58.828,10.68,59.097,11.516,59.097,12.552z M57.557,12.607
			c0-0.663-0.149-1.208-0.448-1.638c-0.327-0.448-0.765-0.672-1.316-0.672c-0.374,0-0.712,0.124-1.015,0.371
			c-0.303,0.248-0.502,0.572-0.595,0.973c-0.047,0.187-0.07,0.341-0.07,0.462v1.134c0,0.495,0.152,0.912,0.455,1.253
			s0.698,0.511,1.183,0.511c0.569,0,1.013-0.219,1.33-0.658C57.397,13.905,57.557,13.326,57.557,12.607z"/>
		<path fill="#FFFFFF" d="M66.922,12.552c0,1.157-0.313,2.072-0.938,2.744c-0.56,0.598-1.255,0.896-2.086,0.896
			c-0.896,0-1.54-0.322-1.932-0.966h-0.028v3.584h-1.512v-7.336c0-0.728-0.019-1.475-0.056-2.24h1.33l0.084,1.078h0.028
			c0.504-0.812,1.27-1.218,2.296-1.218c0.803,0,1.472,0.317,2.009,0.952C66.654,10.68,66.922,11.516,66.922,12.552z M65.382,12.607
			c0-0.663-0.149-1.208-0.448-1.638c-0.327-0.448-0.765-0.672-1.316-0.672c-0.374,0-0.712,0.124-1.015,0.371
			c-0.303,0.248-0.502,0.572-0.595,0.973c-0.047,0.187-0.07,0.341-0.07,0.462v1.134c0,0.495,0.152,0.912,0.455,1.253
			s0.698,0.511,1.183,0.511c0.569,0,1.013-0.219,1.33-0.658C65.223,13.905,65.382,13.326,65.382,12.607z"/>
		<path fill="#FFFFFF" d="M75.672,13.392c0,0.803-0.279,1.456-0.838,1.96c-0.615,0.551-1.472,0.826-2.57,0.826
			c-1.016,0-1.83-0.196-2.445-0.588l0.35-1.26c0.663,0.401,1.392,0.602,2.185,0.602c0.57,0,1.014-0.128,1.331-0.386
			c0.317-0.257,0.477-0.601,0.477-1.031c0-0.383-0.131-0.706-0.393-0.967c-0.261-0.262-0.695-0.505-1.302-0.729
			c-1.652-0.617-2.479-1.519-2.479-2.707c0-0.776,0.29-1.412,0.868-1.907c0.579-0.496,1.349-0.744,2.311-0.744
			c0.858,0,1.572,0.149,2.142,0.448L74.93,8.142c-0.532-0.289-1.134-0.434-1.806-0.434c-0.532,0-0.947,0.131-1.246,0.392
			C71.626,8.333,71.5,8.618,71.5,8.954c0,0.374,0.145,0.681,0.434,0.924c0.252,0.224,0.709,0.467,1.372,0.728
			c0.812,0.327,1.409,0.709,1.792,1.148C75.48,12.192,75.672,12.738,75.672,13.392z"/>
		<path fill="#FFFFFF" d="M80.67,10.368h-1.666v3.304c0,0.84,0.294,1.26,0.882,1.26c0.271,0,0.495-0.023,0.672-0.07L80.6,16.01
			c-0.298,0.112-0.69,0.168-1.176,0.168c-0.597,0-1.063-0.182-1.399-0.546c-0.336-0.364-0.504-0.976-0.504-1.834v-3.43h-0.994V9.233
			h0.994V7.988l1.483-0.448v1.694h1.666V10.368z"/>
		<path fill="#FFFFFF" d="M88.188,12.58c0,1.045-0.299,1.904-0.896,2.576c-0.626,0.69-1.456,1.036-2.492,1.036
			c-0.999,0-1.795-0.331-2.388-0.994s-0.889-1.498-0.889-2.506c0-1.054,0.306-1.918,0.917-2.59s1.436-1.008,2.471-1.008
			c0.999,0,1.802,0.331,2.408,0.994C87.899,10.731,88.188,11.562,88.188,12.58z M86.62,12.628c0-0.627-0.135-1.165-0.405-1.614
			c-0.317-0.543-0.771-0.814-1.358-0.814c-0.606,0-1.068,0.271-1.386,0.814c-0.271,0.449-0.406,0.997-0.406,1.643
			c0,0.627,0.135,1.166,0.406,1.614c0.326,0.543,0.784,0.814,1.372,0.814c0.578,0,1.031-0.276,1.357-0.828
			C86.48,13.799,86.62,13.256,86.62,12.628z"/>
		<path fill="#FFFFFF" d="M93.103,10.563c-0.149-0.028-0.308-0.042-0.476-0.042c-0.532,0-0.943,0.201-1.232,0.602
			c-0.252,0.355-0.378,0.803-0.378,1.344v3.57h-1.512l0.014-4.662c0-0.784-0.019-1.498-0.056-2.142h1.315l0.057,1.302h0.042
			c0.158-0.448,0.41-0.807,0.756-1.078c0.336-0.243,0.7-0.364,1.092-0.364c0.14,0,0.267,0.009,0.378,0.028V10.563z"/>
		<path fill="#FFFFFF" d="M99.864,12.313c0,0.271-0.019,0.5-0.056,0.686h-4.536c0.019,0.672,0.238,1.186,0.658,1.54
			c0.383,0.317,0.877,0.476,1.483,0.476c0.673,0,1.283-0.107,1.834-0.322l0.238,1.05c-0.644,0.28-1.404,0.42-2.282,0.42
			c-1.055,0-1.883-0.31-2.484-0.931c-0.603-0.621-0.903-1.454-0.903-2.499c0-1.026,0.28-1.88,0.84-2.562
			c0.588-0.728,1.382-1.092,2.38-1.092c0.98,0,1.723,0.364,2.227,1.092C99.664,10.75,99.864,11.464,99.864,12.313z M98.423,11.921
			c0.009-0.448-0.089-0.835-0.294-1.162c-0.262-0.42-0.663-0.63-1.204-0.63c-0.495,0-0.896,0.206-1.204,0.616
			c-0.252,0.327-0.401,0.719-0.448,1.176H98.423z"/>
		<path fill="#FFFFFF" d="M103.977,7.078c1.287,0,2.062,1.026,2.213,2.715h0.784V6.596h1.166v9.09h-1.166v-4.887h-0.765
			c-0.09,1.84-0.854,2.957-2.232,2.957c-1.377,0-2.202-1.267-2.202-3.329C101.774,8.355,102.569,7.078,103.977,7.078z
			 M102.901,10.417c0,1.328,0.352,2.353,1.065,2.353c0.774,0,1.106-1.016,1.106-2.353s-0.332-2.363-1.106-2.363
			S102.901,9.089,102.901,10.417z M109.91,15.998h-1.167V6.545h1.167V15.998z"/>
		<path fill="#FFFFFF" d="M115.665,6.968v2.645c0,1.498,1.237,2.604,2.504,3.218l-0.573,0.895c-0.814-0.473-1.94-1.237-2.534-2.263
			c-0.532,1.036-1.559,1.84-2.563,2.464l-0.755-0.805c1.429-0.794,2.716-1.971,2.716-3.54V6.968H115.665z M120.15,15.998h-1.188
			v-5.762h-1.84V9.28h1.84V6.545h1.188V15.998z"/>
		<path fill="#FFFFFF" d="M49.135,29.123c-1.73,0.23-3.318,0.23-5.39,0.23v-6.324h4.585v0.955h-3.399v4.395
			c1.408,0,2.675-0.011,4.204-0.222V29.123z M52.563,26.428h-1.619v5.369h-1.187v-9.451h1.187v3.117h1.619V26.428z"/>
		<path fill="#FFFFFF" d="M62.845,27.916h-3.781v1.77h-1.197v-1.77h-4.032V26.98h9.01V27.916z M55.001,24.406
			c0-1.025,1.106-1.93,3.318-1.93c2.172,0,3.358,0.895,3.358,1.93c0,1.156-1.166,1.951-3.358,1.951
			C56.128,26.357,55.001,25.522,55.001,24.406z M62,31.637h-6.968V28.67h1.207v2.021H62V31.637z M56.218,24.406
			c0,0.634,0.875,1.066,2.102,1.066c1.287,0,2.132-0.433,2.132-1.066c0-0.572-0.905-1.025-2.132-1.025
			C57.063,23.381,56.218,23.834,56.218,24.406z"/>
		<path fill="#FFFFFF" d="M69.365,28.529v1.217h3.892v0.955h-9.01v-0.955h3.912v-1.217H69.365z M65.474,28.097v-3.138h5.319v-1.186
			h-5.35v-0.926h6.546v3.037H66.67v1.287h5.682v0.925H65.474z"/>
		<path fill="#FFFFFF" d="M83.668,30.379h-9.01v-0.955h9.01V30.379z M75.885,27.604v-4.625h6.627v0.945h-5.44v2.734h5.562v0.945
			H75.885z"/>
		<path fill="#FFFFFF" d="M92.106,23.723h2.434v0.936h-6.083v-0.936h2.433v-1.377h1.217V23.723z M93.997,27.604
			c0,1.338-0.895,2.465-2.494,2.465c-1.538,0-2.493-1.057-2.493-2.465c0-1.527,0.965-2.473,2.493-2.473
			C93.103,25.131,93.997,26.056,93.997,27.604z M92.831,27.604c0-0.955-0.413-1.527-1.328-1.527c-0.854,0-1.316,0.604-1.316,1.527
			c0,0.886,0.462,1.509,1.316,1.509C92.418,29.112,92.831,28.489,92.831,27.604z M96.3,22.346v3.841h1.599v0.995H96.3v4.615h-1.187
			v-9.451H96.3z"/>
		<path fill="#FFFFFF" d="M104.378,23.029c-0.04,3.82-1.81,5.561-4.243,6.877l-0.744-0.814c2.483-1.357,3.67-2.825,3.73-5.107
			h-3.349v-0.955H104.378z M107.043,31.797h-1.187v-9.451h1.187V31.797z"/>
	</g>
</g>
</svg>
