<svg xmlns="http://www.w3.org/2000/svg" xml:space="preserve" width="232" height="190" viewBox="0 0 232 190">
  <path fill="#C0C3F6" d="M219.09 29.87H22.74v145.88h196.35V29.87z"/>
  <path fill="#FFF" stroke="#000" stroke-miterlimit="10" stroke-width=".8472" d="M210.09 35.5H9.68v130.81H210.1V35.5z"/>
  <path fill="#C0C3F6" stroke="#000" stroke-miterlimit="10" stroke-width=".8472" d="M210.09 12.33H9.68V35.5H210.1V12.33z"/>
  <path fill="none" stroke="#000" stroke-linecap="round" stroke-linejoin="round" stroke-width=".8472" d="M20.36 27.6c.62 0 1.23-.19 1.75-.53.52-.35.92-.84 1.16-1.42.24-.58.3-1.21.18-1.82-.12-.61-.42-1.17-.86-1.61-.44-.44-1-.74-1.61-.86-.61-.12-1.24-.06-1.82.18-.58.24-1.07.64-1.41 1.16-.35.52-.53 1.13-.53 1.75 0 .84.33 1.64.93 2.23.57.59 1.37.93 2.21.92z"/>
  <path fill="none" stroke="#000" stroke-linecap="round" stroke-linejoin="round" stroke-width=".8472" d="M30.8 27.6c.62 0 1.23-.19 1.75-.53.52-.35.92-.84 1.16-1.42.24-.58.3-1.21.18-1.82-.12-.61-.42-1.17-.86-1.61-.44-.44-1-.74-1.61-.86-.61-.12-1.24-.06-1.82.18-.58.24-1.07.64-1.41 1.16-.35.52-.53 1.13-.53 1.75 0 .41.08.82.24 1.21.16.38.39.73.68 1.02.29.29.64.52 1.02.68.37.16.78.25 1.2.24h0z"/>
  <path fill="none" stroke="#000" stroke-linecap="round" stroke-linejoin="round" stroke-width=".8472" d="M41.23 27.6c.62 0 1.23-.19 1.75-.53.52-.35.92-.84 1.16-1.42.24-.58.3-1.21.18-1.82-.12-.61-.42-1.17-.86-1.61-.44-.44-1-.74-1.61-.86s-1.24-.06-1.82.18c-.58.24-1.07.64-1.41 1.16-.35.52-.53 1.13-.53 1.75 0 .41.08.82.24 1.21.16.38.39.73.68 1.02s.64.52 1.02.68c.38.16.79.25 1.2.24h0z"/>
  <path fill="#A77FFA" d="M193.79 109.34h-71.02c-1.31 0-2.37.85-2.37 1.77v43.28c0 .97 1.06 1.76 2.37 1.76h71.01c1.31 0 2.37-.79 2.37-1.76v-43.28c.01-.97-1.06-1.77-2.36-1.77z"/>
  <path fill="#C0C3F6" d="M193.79 52.25h-71.02c-1.31 0-2.37.85-2.37 1.77V97.3c0 .97 1.06 1.76 2.37 1.76h71.01c1.31 0 2.37-.79 2.37-1.76V54.02c.01-.97-1.06-1.77-2.36-1.77z"/>
  <path fill="#C0C3F6" d="M108 109.34H36.98c-1.31 0-2.37.85-2.37 1.77v43.28c0 .97 1.06 1.76 2.37 1.76h71.01c1.31 0 2.37-.79 2.37-1.76v-43.28c.01-.97-1.05-1.77-2.36-1.77z"/>
  <path fill="#C0C3F6" d="M108 52.25H36.98c-1.31 0-2.37.85-2.37 1.77V97.3c0 .97 1.06 1.76 2.37 1.76h71.01c1.31 0 2.37-.79 2.37-1.76V54.02c.01-.97-1.05-1.77-2.36-1.77z"/>
  <path fill="#FFF" stroke="#000" stroke-linecap="round" stroke-linejoin="round" stroke-width=".8472" d="M188.88 104.89h-71.02c-1.31 0-2.37.85-2.37 1.77v43.28c0 .97 1.06 1.76 2.37 1.76h71.01c1.31 0 2.37-.79 2.37-1.76v-43.28c.02-.97-1.06-1.77-2.36-1.77z"/>
  <path fill="#FFF" stroke="#000" stroke-linecap="round" stroke-linejoin="round" stroke-width=".8472" d="M188.88 47.8h-71.02c-1.31 0-2.37.85-2.37 1.77v43.29c0 .97 1.06 1.76 2.37 1.76h71.01c1.31 0 2.37-.79 2.37-1.76V49.57c.02-.97-1.06-1.77-2.36-1.77z"/>
  <path fill="#FFF" stroke="#000" stroke-linecap="round" stroke-linejoin="round" stroke-width=".8472" d="M103.09 104.89H32.07c-1.31 0-2.38.85-2.38 1.77v43.28c0 .97 1.06 1.76 2.38 1.76h71.01c1.31 0 2.38-.79 2.38-1.76v-43.28c0-.97-1.06-1.77-2.37-1.77z"/>
  <path fill="#FFF" stroke="#000" stroke-linecap="round" stroke-linejoin="round" stroke-width=".8472" d="M103.09 47.8H32.07c-1.31 0-2.38.85-2.38 1.77v43.29c0 .97 1.06 1.76 2.38 1.76h71.01c1.31 0 2.38-.79 2.38-1.76V49.57c0-.97-1.06-1.77-2.37-1.77z"/>
  <path fill="#FFF" stroke="#000" stroke-linecap="round" stroke-linejoin="round" stroke-width=".8472" d="m213.41 183.25-8.54-21.47 21.53 8.53-6.31 3.05 6.9 6.9-3.93 3.35-7.01-7.3-2.64 6.94z"/>
  <path fill="none" stroke="#000" stroke-miterlimit="10" d="M165.22 71.75c0 2.26-.67 4.46-1.92 6.34s-3.03 3.34-5.12 4.2c-2.08.86-4.38 1.09-6.59.65-2.21-.44-4.25-1.53-5.84-3.12-1.6-1.59-2.68-3.63-3.12-5.84-.44-2.21-.21-4.51.65-6.59s2.33-3.87 4.2-5.12 4.08-1.92 6.34-1.92c1.5 0 2.98.29 4.36.87 1.38.57 2.64 1.41 3.7 2.47 1.06 1.06 1.9 2.32 2.47 3.7.57 1.38.87 2.86.87 4.36z"/>
  <path fill="#EA3323" d="M143.5 71.75c0 1.45.3 2.89.9 4.21.59 1.32 1.46 2.51 2.54 3.48V64.06c-1.08.97-1.95 2.15-2.54 3.48-.6 1.32-.91 2.76-.9 4.21z"/>
  <path fill="#EA3323" d="M164.15 71.75c0-1.45-.31-2.89-.9-4.22-.59-1.33-1.46-2.51-2.55-3.48v15.39c1.08-.97 1.95-2.15 2.55-3.48.59-1.32.9-2.76.9-4.21z"/>
  <path fill="#FFF" d="M160.69 64.06c-1.89-1.7-4.34-2.63-6.88-2.63s-4.99.94-6.88 2.63v15.38c1.89 1.69 4.34 2.63 6.88 2.63s4.99-.94 6.88-2.63V64.06z"/>
  <path fill="#EA3323" d="m156.62 74.08 2.58-2.1-.54-.25c-.23-.08-.17-.21-.09-.54l.39-1.43-1.5.32c-.06.01-.11 0-.16-.03s-.09-.08-.1-.13l-.19-.67-1.18 1.33c-.17.21-.51.21-.4-.28l.5-2.69-.68.35c-.19.11-.38.12-.49-.06l-.95-1.73-.92 1.75c-.11.19-.3.17-.49.07l-.68-.35.51 2.69c.11.49-.24.49-.4.28l-1.19-1.33-.19.68c-.02.06-.05.1-.1.13s-.11.04-.16.03l-1.5-.32.39 1.43c.08.32.15.46-.09.54l-.53.23 2.58 2.1c.05.04.09.1.11.16.02.06.02.13 0 .19l-.22.74c.89-.1 1.69-.26 2.57-.35.05.01.1.03.14.07.04.04.06.09.07.14l-.16 2.7h.46l-.07-2.71c0-.09.12-.22.2-.21.89.1 1.69.25 2.58.35l-.23-.74c-.02-.06-.02-.13.01-.19.03-.07.07-.13.12-.17z"/>
  <path fill="none" stroke="#000" stroke-miterlimit="10" d="M79.34 71.42c0 2.26-.67 4.46-1.92 6.34s-3.03 3.34-5.12 4.2-4.38 1.09-6.59.65c-2.21-.44-4.24-1.53-5.84-3.12-1.59-1.59-2.68-3.63-3.12-5.84-.44-2.21-.21-4.5.65-6.59.86-2.08 2.32-3.86 4.2-5.12 1.88-1.25 4.08-1.92 6.33-1.92 3.02 0 5.92 1.2 8.06 3.34 2.15 2.13 3.35 5.03 3.35 8.06z"/>
  <path fill="#FFF" d="M73.31 62.59v9.61H57.66c.39 5.36 4.85 9.59 10.31 9.59 5.72 0 10.35-4.63 10.35-10.35 0-3.76-2.01-7.04-5.01-8.85z"/>
  <g fill="#A33138">
    <path d="m73.44 62.68-.14-.08v.08h.14z"/>
    <path d="M73.3 65.86h3.33c-.36-.57-.78-1.1-1.25-1.59H73.3v1.59z"/>
    <path d="M73.3 69.03h4.68c-.13-.54-.3-1.07-.51-1.59H73.3v1.59z"/>
    <path d="M73.3 72.21h4.92c.02-.26.03-.53.03-.79 0-.27-.02-.53-.03-.79H73.3v1.58z"/>
    <path d="M77.98 73.8H57.9c.13.54.3 1.07.51 1.59h19.06c.21-.52.38-1.05.51-1.59z"/>
    <path d="M76.63 76.98H59.24c.37.57.78 1.1 1.25 1.59h14.89c.47-.49.89-1.03 1.25-1.59z"/>
    <path d="M62.44 80.15c1.65 1.04 3.55 1.59 5.5 1.59 1.95 0 3.85-.55 5.5-1.59h-11z"/>
  </g>
  <path fill="#3B3C6B" d="M73.31 62.59c-1.56-.94-3.38-1.5-5.34-1.5-5.72 0-10.35 4.63-10.35 10.35 0 .26.02.51.04.76h15.65v-9.61z"/>
  <path fill="#3B3C6B" d="m72.16 62-.06-.03V62h.06z"/>
  <path fill="#3B3C6B" d="M64.06 61.85c-.12.05-.23.1-.35.15h.3l.05-.15z"/>
  <path fill="#FFF" d="m63.79 62.71.37-.27.37.27-.14-.44.37-.27h-.46l-.07-.21-.17.07-.05.14h-.3c-.03.01-.07.03-.1.04l.31.22-.13.45z"/>
  <path fill="#FFF" d="m66.39 62.71.37-.27.38.27-.14-.44.36-.27h-.46l-.15-.44-.13.44h-.46l.37.27-.14.44z"/>
  <path fill="#FFF" d="m68.99 62.71.37-.27.38.27-.14-.44.36-.27h-.46l-.14-.44-.14.44h-.46l.37.27-.14.44z"/>
  <path fill="#FFF" d="m71.36 62 .37.27-.14.44.37-.27.38.27-.14-.44.21-.16c-.08-.04-.17-.08-.25-.11h-.06v-.03l-.24-.1-.04.13h-.46z"/>
  <path fill="#FFF" d="m62.48 63.82.37-.27.37.27-.14-.44.38-.27H63l-.14-.44-.14.44h-.46l.38.27-.16.44z"/>
  <path fill="#FFF" d="m64.85 63.11.37.27-.14.44.37-.27.37.27-.14-.44.37-.27h-.45l-.14-.44-.14.44h-.47z"/>
  <path fill="#FFF" d="M67.92 63.11h-.46l.38.27-.15.44.37-.27.37.27-.14-.44.37-.27h-.46l-.14-.44-.14.44z"/>
  <path fill="#FFF" d="M70.52 63.11h-.46l.37.27-.14.44.37-.27.37.27-.14-.44.37-.27h-.46l-.14-.44-.14.44z"/>
  <path fill="#FFF" d="m61.18 64.94.37-.27.38.27-.14-.44.37-.27h-.46l-.14-.44-.14.44h-.46l.37.27-.15.44z"/>
  <path fill="#FFF" d="m63.93 64.5-.14.44.37-.27.38.27-.14-.44.37-.27h-.47l-.15-.44-.14.44h-.46l.38.27z"/>
  <path fill="#FFF" d="m66.39 64.94.37-.27.38.27-.14-.44.37-.27h-.47l-.15-.44-.14.44h-.46l.37.27-.13.44z"/>
  <path fill="#FFF" d="m68.99 64.94.37-.27.38.27-.14-.44.37-.27h-.47l-.14-.44-.14.44h-.46l.37.27-.14.44z"/>
  <path fill="#FFF" d="m71.73 64.5-.14.44.37-.27.38.27-.14-.44.37-.27h-.46l-.15-.44-.14.44h-.46l.37.27z"/>
  <path fill="#FFF" d="m59.91 66.06.37-.28.37.28-.14-.44.37-.27h-.46l-.14-.44-.14.44h-.46l.38.27-.15.44z"/>
  <path fill="#FFF" d="m62.52 66.06.37-.28.37.28-.14-.44.37-.27h-.46l-.14-.44-.14.44h-.46l.37.27-.14.44z"/>
  <path fill="#FFF" d="m65.12 66.06.37-.28.37.28-.14-.44.37-.27h-.46l-.14-.44-.14.44h-.46l.37.27-.14.44z"/>
  <path fill="#FFF" d="M68.7 65.35h-.46l-.14-.44-.14.44h-.46l.37.27-.15.44.37-.28.37.28-.14-.44.38-.27z"/>
  <path fill="#FFF" d="M71.3 65.35h-.46l-.14-.44-.14.44h-.46l.37.27-.14.44.38-.28.37.28-.14-.44.36-.27z"/>
  <path fill="#FFF" d="m58.62 67.16.38-.27.38.27-.15-.42.38-.27h-.46l-.09-.28c-.1.18-.21.36-.3.54l.02.01-.16.42z"/>
  <path fill="#FFF" d="m61.23 67.16.37-.27.37.27-.15-.43.37-.27h-.46l-.14-.44-.14.44h-.46l.37.27-.13.43z"/>
  <path fill="#FFF" d="m64.34 66.45-.14-.44-.14.44h-.46l.37.27-.15.43.38-.27.37.27-.14-.43.38-.27h-.47z"/>
  <path fill="#FFF" d="m66.43 67.16.37-.27.37.27-.14-.43.38-.27h-.46l-.14-.44-.14.44h-.46l.37.27-.15.43z"/>
  <path fill="#FFF" d="m69.54 66.45-.14-.44-.14.44h-.46l.38.27-.15.43.38-.27.37.27-.14-.43.38-.27h-.48z"/>
  <path fill="#FFF" d="m72.14 66.45-.14-.44-.14.44h-.46l.37.27-.14.43.37-.26.37.27-.14-.43.38-.27h-.47z"/>
  <path fill="#FFF" d="m58.65 69.36.37-.27.38.27-.14-.44.37-.27h-.46l-.14-.44-.14.44h-.46l.37.27-.15.44z"/>
  <path fill="#FFF" d="m62 69.36-.14-.44.37-.27h-.46l-.14-.44-.14.44h-.46l.37.27-.14.44.37-.27.37.27z"/>
  <path fill="#FFF" d="m64.6 69.36-.14-.44.37-.27h-.46l-.14-.44-.14.44h-.46l.37.27-.14.44.37-.27.37.27z"/>
  <path fill="#FFF" d="m67.2 69.36-.14-.44.37-.27h-.46l-.14-.44-.14.44h-.46l.37.27-.14.44.37-.27.37.27z"/>
  <path fill="#FFF" d="m69.8 69.36-.14-.44.37-.27h-.46l-.14-.44-.14.44h-.46l.37.27-.14.44.37-.27.37.27z"/>
  <path fill="#FFF" d="M72.63 68.64h-.46l-.14-.44-.14.44h-.46l.37.27-.14.44.37-.27.37.27-.14-.44.37-.27z"/>
  <path fill="#FFF" d="m59.13 70.86-.15-.44-.14.44h-.46l.37.27-.14.44.37-.28.38.28-.14-.44.37-.27h-.46z"/>
  <path fill="#FFF" d="m61.73 70.86-.14-.44-.14.44h-.46l.37.27-.14.44.37-.28.38.28-.14-.44.37-.27h-.47z"/>
  <path fill="#FFF" d="m64.34 70.86-.15-.44-.14.44h-.46l.37.27-.14.44.37-.28.38.28-.14-.44.37-.27h-.46z"/>
  <path fill="#FFF" d="m66.93 70.86-.14-.44-.14.44h-.46l.38.27-.14.44.37-.28.38.28-.14-.44.37-.27h-.48z"/>
  <path fill="#FFF" d="m69.54 70.86-.15-.44-.14.44h-.46l.37.27-.14.44.37-.28.38.28-.14-.44.37-.27h-.46z"/>
  <path fill="#FFF" d="m72.14 70.86-.14-.44-.14.44h-.46l.37.27-.14.44.37-.28.37.28-.14-.44.37-.27h-.46z"/>
  <path fill="#FFF" d="m59.69 67.53.37.27-.14.44.38-.27.37.27-.14-.44.37-.27h-.46l-.14-.43-.15.44h-.46z"/>
  <path fill="#FFF" d="m62.29 67.53.37.27-.14.44.38-.27.37.27-.14-.44.37-.27h-.46l-.14-.43-.15.44h-.46z"/>
  <path fill="#FFF" d="M65.35 67.53h-.45l.37.27-.14.44.37-.27.37.27-.14-.44.37-.27h-.46l-.14-.43-.15.43z"/>
  <path fill="#FFF" d="M67.96 67.53h-.46l.37.27-.14.44.38-.27.37.27-.14-.44.37-.27h-.46l-.15-.43-.14.43z"/>
  <path fill="#FFF" d="M70.56 67.53h-.46l.37.27-.14.44.38-.27.37.27-.14-.44.37-.27h-.46l-.15-.43-.14.43z"/>
  <path fill="#FFF" d="m59.91 70.46.37-.27.37.27-.14-.44.37-.28h-.46l-.14-.44-.14.44h-.46l.38.28-.15.44z"/>
  <path fill="#FFF" d="m63.03 69.75-.14-.44-.14.44h-.46l.37.28-.15.44.37-.27.37.27-.14-.44.37-.28h-.45z"/>
  <path fill="#FFF" d="m65.64 69.75-.14-.44-.14.44h-.46l.37.28-.14.44.37-.27.37.27-.14-.44.37-.28h-.46z"/>
  <path fill="#FFF" d="m68.24 69.75-.14-.44-.14.44h-.46l.37.28-.15.44.37-.27.37.27-.14-.44.37-.28h-.45z"/>
  <path fill="#FFF" d="m70.84 69.75-.14-.44-.14.44h-.46l.37.28-.14.44.38-.27.37.27-.14-.44.37-.28h-.47z"/>
  <path fill="none" stroke="#000" stroke-miterlimit="10" d="M79.34 129.04c0 2.26-.67 4.46-1.92 6.34s-3.03 3.34-5.12 4.2c-2.08.86-4.38 1.09-6.59.65-2.21-.44-4.24-1.53-5.84-3.12s-2.68-3.63-3.12-5.84c-.44-2.21-.21-4.51.65-6.59s2.33-3.87 4.2-5.12c1.88-1.25 4.08-1.92 6.34-1.92 3.03 0 5.93 1.2 8.07 3.34 2.13 2.13 3.33 5.04 3.33 8.06z"/>
  <path fill="#0067A2" d="M57.69 131.56c.63 2.56 2.19 4.79 4.38 6.25v-6.25h-4.38z"/>
  <path fill="#0067A2" d="M66.37 139.48c.52.08 1.04.11 1.56.11 2.36 0 4.65-.79 6.51-2.25 1.86-1.46 3.17-3.49 3.74-5.78H66.37v7.92z"/>
  <path fill="#0067A2" d="M62.07 120.27c-1.19.8-2.21 1.83-2.99 3.03-.78 1.2-1.31 2.55-1.55 3.96h4.53v-6.99z"/>
  <path fill="#0067A2" d="M67.94 118.49c-.52 0-1.05.04-1.56.12v8.65h11.96c-.42-2.45-1.7-4.68-3.6-6.28-1.91-1.61-4.31-2.49-6.8-2.49z"/>
  <path fill="#FED200" d="M78.49 129.04c0-.6-.05-1.19-.15-1.78H66.37v-8.65c-1.54.26-2.86.65-4.3 1.66v6.99h-4.53c-.25 1.43-.19 2.89.15 4.3h4.38v6.06c1.29.97 2.76 1.6 4.3 1.86v-7.92h11.81c.21-.83.31-1.67.31-2.52z"/>
  <path fill="none" stroke="#000" stroke-miterlimit="10" d="M165.22 129.11c0 2.26-.67 4.46-1.92 6.34s-3.03 3.34-5.12 4.2c-2.08.86-4.38 1.09-6.59.65-2.21-.44-4.24-1.53-5.84-3.12-1.6-1.6-2.68-3.63-3.12-5.84-.44-2.21-.21-4.51.65-6.59s2.32-3.87 4.2-5.12c1.88-1.25 4.08-1.92 6.34-1.92 1.5 0 2.98.3 4.36.87 1.38.57 2.64 1.41 3.7 2.47 1.06 1.06 1.9 2.32 2.47 3.7.57 1.38.87 2.86.87 4.36z"/>
  <path fill="#FFF" d="M153.81 118.62c-1.48 0-2.95.31-4.3.92v19.27c1.35.61 2.82.92 4.3.92s2.95-.31 4.3-.92v-19.27c-1.35-.61-2.81-.92-4.3-.92z"/>
  <path fill="#0033A7" d="M143.26 129.17c0 2.04.59 4.03 1.7 5.74 1.11 1.71 2.69 3.06 4.55 3.89v-19.27c-1.86.83-3.44 2.18-4.55 3.89-1.11 1.72-1.7 3.71-1.7 5.75z"/>
  <path fill="#F43D45" d="M164.36 129.17c0-2.04-.59-4.03-1.7-5.74-1.11-1.71-2.69-3.06-4.55-3.89v19.27c1.86-.83 3.44-2.18 4.55-3.89 1.11-1.71 1.7-3.71 1.7-5.75z"/>
  <path fill="none" stroke="#000" stroke-miterlimit="10" stroke-width=".8472" d="M21.01 188.42c.37 0 .73-.11 1.04-.32.31-.21.55-.5.69-.84.14-.34.18-.72.1-1.08-.07-.36-.25-.7-.51-.96s-.6-.44-.96-.51-.74-.03-1.08.11c-.34.14-.63.38-.84.69-.21.31-.32.67-.32 1.04 0 .25.05.49.14.72.09.23.23.43.41.61.17.17.38.31.61.41.22.09.47.13.72.13z" class="invert-stroke"/>
  <path fill="none" stroke="#000" stroke-miterlimit="10" stroke-width=".8472" d="M212.31 5.17c.37 0 .73-.11 1.04-.32s.55-.5.69-.84c.14-.34.18-.72.11-1.08-.07-.36-.25-.7-.51-.96s-.6-.44-.96-.51-.74-.03-1.08.11c-.34.14-.63.38-.84.69-.21.31-.32.67-.32 1.04 0 .5.2.97.55 1.32.34.35.82.55 1.32.55z" class="invert-stroke"/>
  <path fill="none" stroke="#000" stroke-linecap="round" stroke-linejoin="round" stroke-width=".8472" d="M3.54 181.55v-4.21" class="invert-stroke"/>
  <path fill="none" stroke="#000" stroke-linecap="round" stroke-linejoin="round" stroke-width=".8472" d="M1.42 179.44h4.21" class="invert-stroke"/>
  <path fill="none" stroke="#000" stroke-linecap="round" stroke-linejoin="round" stroke-width=".8472" d="M229.24 13.43v-4.2" class="invert-stroke"/>
  <path fill="none" stroke="#000" stroke-linecap="round" stroke-linejoin="round" stroke-width=".8472" d="M227.13 11.33h4.21" class="invert-stroke"/>
</svg>
