<svg xmlns="http://www.w3.org/2000/svg" xml:space="preserve" width="280" height="190" viewBox="0 0 280 190">
  <path fill="#6A52DE" d="M84.4 17.63c-1.14-3.85-3.4-7.28-6.48-9.86-3.08-2.58-6.86-4.19-10.85-4.64-3.99-.45-8.03.29-11.61 2.13-3.58 1.83-6.53 4.68-8.5 8.19h-.55c-3.33 0-6.56 1.17-9.11 3.31s-4.27 5.11-4.85 8.4h42.29c4.08-3.65 8.52-6.89 13.27-9.69-1.34.46-2.57 1.18-3.61 2.16z"/>
  <path fill="none" stroke="#000" stroke-linecap="round" stroke-linejoin="round" stroke-width=".9631" d="M75.32 24.64c-.02-.04-.04-.07-.06-.11-1.09-1.67-2.64-2.99-4.47-3.79-1.83-.8-3.85-1.05-5.82-.71-1.97.34-3.79 1.25-5.25 2.61-1.14-3.85-3.4-7.28-6.48-9.86-3.08-2.58-6.86-4.19-10.85-4.64-3.99-.45-8.03.29-11.61 2.13-3.58 1.83-6.53 4.68-8.5 8.19h-.55c-3.33 0-6.56 1.17-9.11 3.31s-4.27 5.11-4.85 8.4H69.6c1.82-1.94 3.73-3.78 5.72-5.53z" class="invert-stroke"/>
  <path fill="#C3C4FD" d="M130.06 158.94c39.71 0 71.9-32.19 71.9-71.9 0-39.71-32.19-71.9-71.9-71.9s-71.9 32.19-71.9 71.9c0 39.71 32.19 71.9 71.9 71.9z"/>
  <path fill="none" stroke="#000" stroke-miterlimit="10" stroke-width=".9631" d="M130.06 170.07c45.86 0 83.03-37.17 83.03-83.03S175.92 4.01 130.06 4.01 47.03 41.18 47.03 87.04s37.18 83.03 83.03 83.03z" class="invert-stroke"/>
  <path fill="none" stroke="#000" stroke-miterlimit="10" stroke-width=".9631" d="M108.01 167.14c-19.64-18.88-32.19-47.75-32.19-80.09 0-32.35 12.55-61.21 32.19-80.1" class="invert-stroke"/>
  <path fill="none" stroke="#000" stroke-miterlimit="10" stroke-width=".9631" d="M152.13 6.94c19.64 18.88 32.19 47.74 32.19 80.09s-12.57 61.21-32.19 80.09" class="invert-stroke"/>
  <path fill="none" stroke="#000" stroke-miterlimit="10" stroke-width=".9631" d="M47.03 87.04h166.06" class="invert-stroke"/>
  <path fill="none" stroke="#000" stroke-miterlimit="10" stroke-width=".9631" d="M130.06 4.01v166.06" class="invert-stroke"/>
  <path fill="#C0C3F6" d="M230.92 177.27h-55.61c.47-2.64 1.86-5.03 3.91-6.76 2.06-1.72 4.66-2.67 7.34-2.67h.44c1.59-2.81 3.96-5.1 6.84-6.57 2.87-1.47 6.12-2.06 9.33-1.7 3.21.36 6.24 1.65 8.72 3.72 2.48 2.07 4.29 4.82 5.22 7.92 1.18-1.07 2.64-1.78 4.22-2.04 1.57-.26 3.19-.05 4.65.59 1.46.64 2.7 1.7 3.57 3.03.87 1.33 1.34 2.89 1.34 4.49l.03-.01z"/>
  <path fill="none" stroke="#000" stroke-miterlimit="10" stroke-width=".9631" d="M46.4 154.51c.43 0 .85-.13 1.2-.36.36-.24.63-.58.8-.97.16-.4.21-.83.12-1.25-.08-.42-.29-.81-.59-1.11-.3-.3-.69-.51-1.11-.59-.42-.08-.86-.04-1.25.12-.4.16-.73.44-.97.8-.24.36-.37.78-.37 1.2 0 .58.23 1.13.63 1.53.42.4.97.63 1.54.63z" class="invert-stroke"/>
  <path fill="none" stroke="#000" stroke-miterlimit="10" stroke-width=".9631" d="M2.65 15.47c.43 0 .85-.13 1.2-.37.36-.24.63-.58.8-.97.16-.4.21-.83.12-1.25-.08-.42-.29-.81-.59-1.11-.3-.3-.69-.51-1.11-.59-.42-.08-.86-.04-1.25.12-.4.16-.73.44-.97.8s-.37.78-.37 1.2c0 .57.23 1.13.63 1.53.41.41.96.64 1.54.64z" class="invert-stroke"/>
  <path fill="none" stroke="#000" stroke-miterlimit="10" stroke-width=".9631" d="M236.41 133.02c.43 0 .85-.13 1.2-.36.36-.24.63-.58.8-.97.16-.4.21-.83.12-1.25-.08-.42-.29-.81-.59-1.11-.3-.3-.69-.51-1.11-.59-.42-.08-.86-.04-1.25.12-.4.16-.74.44-.97.8-.24.36-.36.78-.36 1.2 0 .57.23 1.13.63 1.53.4.4.95.63 1.53.63z" class="invert-stroke"/>
  <path fill="none" stroke="#000" stroke-linecap="round" stroke-linejoin="round" stroke-width=".9631" d="M19.18 111.62v-4.89" class="invert-stroke"/>
  <path fill="none" stroke="#000" stroke-linecap="round" stroke-linejoin="round" stroke-width=".9631" d="M16.73 109.18h4.89" class="invert-stroke"/>
  <path fill="none" stroke="#000" stroke-linecap="round" stroke-linejoin="round" stroke-width=".9631" d="M31.48 66.76v-4.89" class="invert-stroke"/>
  <path fill="none" stroke="#000" stroke-linecap="round" stroke-linejoin="round" stroke-width=".9631" d="M29.04 64.31h4.89" class="invert-stroke"/>
  <path fill="none" stroke="#000" stroke-linecap="round" stroke-linejoin="round" stroke-width=".9631" d="M230.32 45.2v-4.89" class="invert-stroke"/>
  <path fill="none" stroke="#000" stroke-linecap="round" stroke-linejoin="round" stroke-width=".9631" d="M227.87 42.76h4.89" class="invert-stroke"/>
  <path fill="#6A52DE" stroke="#000" stroke-miterlimit="10" stroke-width=".9631" d="M159.37 40.42v-8.1H145.2V.48h43.92v31.87H170.7l-11.33 8.07z" class="invert-stroke"/>
  <path fill="#FFF" stroke="#000" stroke-miterlimit="10" stroke-width=".9631" d="M162.16 25.88c2.03 1.12 4.39 1.49 6.67 1.06 2.28-.43 4.34-1.63 5.83-3.41 1.49-1.78 2.32-4.02 2.34-6.34.02-2.32-.76-4.57-2.21-6.38-1.45-1.81-3.49-3.05-5.76-3.53-2.27-.47-4.63-.15-6.69.93-2.05 1.07-3.67 2.83-4.58 4.96-.91 2.13-1.04 4.52-.39 6.74.74 2.56 2.47 4.7 4.79 5.97z"/>
  <path fill="none" stroke="#000" stroke-miterlimit="10" stroke-width=".9631" d="M176.63 14.5c-1.29.41-2.65.56-4 .43-1.35-.13-2.66-.53-3.85-1.18-1.19-.65-2.23-1.53-3.07-2.6s-1.45-2.29-1.8-3.6"/>
  <path fill="none" stroke="#000" stroke-miterlimit="10" stroke-width=".9631" d="M157.3 19.67c1.29-.42 2.65-.57 4-.44 1.35.13 2.66.53 3.85 1.18 1.19.65 2.23 1.53 3.07 2.6.83 1.07 1.44 2.29 1.79 3.6"/>
  <path fill="#FFF" stroke="#000" stroke-linejoin="round" stroke-width=".9631" d="M160.94 127.94v-7.82h-6.67V93.81h37.25v26.31h-25.57l-5.01 7.82z" class="stroke-med"/>
  <path fill="none" stroke="#000" stroke-width=".9631" d="M167.16 106.49c0 .46-.14.91-.4 1.29s-.62.68-1.05.86c-.32.13-.66.19-1.01.18-.34-.02-.68-.11-.98-.27-.3-.16-.57-.39-.77-.67-.21-.28-.35-.6-.41-.93-.09-.45-.05-.92.13-1.34.18-.43.48-.79.86-1.05.35-.23.76-.36 1.17-.39.42-.02.84.07 1.21.27s.68.49.9.85c.22.36.33.77.33 1.19l.02.01z" class="stroke-none fill-med"/>
  <path fill="none" stroke="#000" stroke-width=".9631" d="M174.96 106.49c0 .58-.21 1.14-.6 1.57-.39.43-.92.7-1.5.76s-1.15-.1-1.62-.45c-.47-.34-.79-.85-.9-1.42-.11-.57-.01-1.16.29-1.65.3-.5.77-.87 1.32-1.03.55-.17 1.15-.13 1.68.12.52.25.94.68 1.16 1.22.11.27.17.57.17.88z" class="stroke-none fill-med"/>
  <path fill="none" stroke="#000" stroke-width=".9631" d="M183.24 106.49c0 .46-.14.91-.4 1.29s-.62.68-1.05.86c-.32.13-.66.19-1.01.18-.34-.02-.68-.11-.98-.27-.3-.16-.57-.39-.77-.67-.21-.28-.35-.6-.41-.93-.09-.45-.05-.92.13-1.34.21-.5.58-.91 1.05-1.16.47-.25 1.02-.34 1.55-.23.53.11 1 .39 1.35.81.34.42.53.94.53 1.48h.01z" class="stroke-none fill-med"/>
  <path fill="#A77FFA" stroke="#000" stroke-miterlimit="10" stroke-width=".9631" d="M86.77 102.81V95h13.71V66.1h-42.5V95H75.8l10.97 7.81z" class="invert-stroke"/>
  <path fill="none" stroke="#FFF" stroke-linecap="round" stroke-linejoin="round" stroke-width=".9617" d="M93.82 76.36H64.64"/>
  <path fill="none" stroke="#FFF" stroke-linecap="round" stroke-linejoin="round" stroke-width=".9617" d="M93.82 85.27h-18.2"/>
  <path fill="none" stroke="#FFF" stroke-linecap="round" stroke-linejoin="round" stroke-width=".9617" d="M70.83 85.27h-6.18"/>
  <path fill="none" stroke="#000" stroke-miterlimit="10" stroke-width=".9631" d="M210.82 182.3h68.35" class="invert-stroke"/>
  <path fill="none" stroke="#000" stroke-miterlimit="10" stroke-width=".9631" d="M178.58 189.48h68.35" class="invert-stroke"/>
  <path fill="none" stroke="#000" stroke-linecap="round" stroke-linejoin="round" stroke-width=".9631" d="M263.25 182.3h-66.81c.57-3.17 2.23-6.05 4.7-8.11 2.47-2.07 5.59-3.2 8.82-3.2.18 0 .35 0 .53.01 1.9-3.38 4.76-6.13 8.22-7.9 3.45-1.77 7.35-2.48 11.21-2.05 3.86.43 7.5 1.99 10.48 4.47 2.98 2.49 5.16 5.8 6.27 9.52 1.41-1.3 3.18-2.16 5.07-2.48 1.9-.32 3.84-.07 5.6.7 1.76.77 3.26 2.04 4.31 3.65 1.04 1.6 1.6 3.48 1.6 5.39h0z" class="invert-stroke"/>
</svg>
