<svg width="557" height="300" viewBox="0 0 557 300" fill="none" xmlns="http://www.w3.org/2000/svg">
<path d="M461.598 171.197H396.053C397.144 164.878 402.659 160.11 409.323 160.11C409.495 160.11 409.668 160.11 409.84 160.11C413.172 154.193 419.491 150.229 426.729 150.229C435.518 150.229 442.928 156.089 445.284 164.074C447.007 162.465 449.305 161.489 451.832 161.489C457.232 161.489 461.598 165.854 461.598 171.197Z" fill="#6F4AE7"/>
<path d="M553.427 258.339C553.197 258.339 552.968 258.109 552.968 257.879V253.8C552.968 253.571 553.197 253.341 553.427 253.341C553.657 253.341 553.887 253.571 553.887 253.8V257.879C553.887 258.109 553.714 258.339 553.427 258.339Z" fill="#888888"/>
<path d="M553.418 258.741C552.958 258.741 552.556 258.339 552.556 257.88V253.801C552.556 253.341 552.958 252.939 553.418 252.939C553.878 252.939 554.28 253.341 554.28 253.801V257.88C554.28 258.339 553.878 258.741 553.418 258.741ZM553.418 253.743C553.361 253.743 553.418 253.743 553.418 253.743L553.361 257.88C553.361 257.937 553.475 257.937 553.475 257.88L553.418 253.743C553.475 253.743 553.475 253.743 553.418 253.743Z" fill="#888888"/>
<path d="M555.946 255.813C555.946 256.043 555.717 256.272 555.487 256.272H551.408C551.178 256.272 550.948 256.043 550.948 255.813C550.948 255.583 551.178 255.353 551.408 255.353H555.487C555.717 255.353 555.946 255.583 555.946 255.813Z" fill="#888888"/>
<path d="M555.478 256.675H551.4C550.94 256.675 550.538 256.273 550.538 255.813C550.538 255.354 550.94 254.952 551.4 254.952H555.478C555.938 254.952 556.34 255.354 556.34 255.813C556.34 256.273 555.938 256.675 555.478 256.675ZM551.342 255.756C551.342 255.756 551.342 255.813 551.342 255.756C551.285 255.813 551.342 255.871 551.342 255.871H555.421C555.421 255.871 555.478 255.871 555.478 255.813C555.478 255.756 555.478 255.756 555.421 255.756H551.342Z" fill="#888888"/>
<path d="M3.5455 108.522C3.31572 108.522 3.08594 108.292 3.08594 108.062V103.984C3.08594 103.754 3.31572 103.524 3.5455 103.524C3.77528 103.524 4.00506 103.754 4.00506 103.984V108.062C4.00506 108.292 3.77528 108.522 3.5455 108.522Z" fill="#888888"/>
<path d="M3.53771 108.925C3.07814 108.925 2.67603 108.522 2.67603 108.063V103.984C2.67603 103.525 3.07814 103.123 3.53771 103.123C3.99727 103.123 4.39939 103.525 4.39939 103.984V108.063C4.39939 108.522 3.99727 108.925 3.53771 108.925ZM3.53771 103.927C3.48026 103.927 3.53771 103.927 3.53771 103.927L3.48026 108.063C3.48026 108.12 3.59515 108.12 3.59515 108.063L3.53771 103.927C3.59515 103.927 3.53771 103.927 3.53771 103.927Z" fill="#888888"/>
<path d="M6.06709 105.994C6.06709 106.223 5.83731 106.453 5.60753 106.453H1.5289C1.29912 106.453 1.06934 106.223 1.06934 105.994C1.06934 105.764 1.29912 105.534 1.5289 105.534H5.60753C5.83731 105.534 6.06709 105.764 6.06709 105.994Z" fill="#888888"/>
<path d="M5.59974 106.855H1.52111C1.06154 106.855 0.659424 106.453 0.659424 105.994C0.659424 105.534 1.06154 105.132 1.52111 105.132H5.59974C6.0593 105.132 6.46142 105.534 6.46142 105.994C6.46142 106.511 6.0593 106.855 5.59974 106.855ZM1.46366 105.994C1.40622 105.994 1.46366 105.994 1.46366 105.994C1.40622 106.051 1.46366 106.109 1.46366 106.109H5.54229C5.54229 106.109 5.59974 106.109 5.59974 106.051C5.59974 105.994 5.59973 105.994 5.54229 105.994H1.46366Z" fill="#888888"/>
<path d="M67.7264 204.399C67.4966 204.399 67.2668 204.17 67.2668 203.94V199.861C67.2668 199.631 67.4966 199.402 67.7264 199.402C67.9562 199.402 68.186 199.631 68.186 199.861V203.94C68.186 204.17 67.9562 204.399 67.7264 204.399Z" fill="#888888"/>
<path d="M67.7186 204.802C67.2591 204.802 66.8569 204.4 66.8569 203.94V199.862C66.8569 199.402 67.2591 199 67.7186 199C68.1782 199 68.5803 199.402 68.5803 199.862V203.94C68.5803 204.4 68.1782 204.802 67.7186 204.802ZM67.7186 199.804C67.6612 199.804 67.7186 199.804 67.7186 199.804L67.6612 203.94C67.6612 203.998 67.7761 203.998 67.7761 203.94L67.7186 199.804C67.7761 199.804 67.7186 199.804 67.7186 199.804Z" fill="#888888"/>
<path d="M70.248 201.871C70.248 202.101 70.0182 202.331 69.7884 202.331H65.7098C65.48 202.331 65.2502 202.101 65.2502 201.871C65.2502 201.641 65.48 201.411 65.7098 201.411H69.7884C70.0182 201.411 70.248 201.641 70.248 201.871Z" fill="#888888"/>
<path d="M69.7806 202.733H65.702C65.2425 202.733 64.8403 202.331 64.8403 201.871C64.8403 201.412 65.2425 201.01 65.702 201.01H69.7806C70.2402 201.01 70.6423 201.412 70.6423 201.871C70.6423 202.388 70.2402 202.733 69.7806 202.733ZM65.6446 201.871C65.5871 201.871 65.6446 201.871 65.6446 201.871C65.5871 201.929 65.6446 201.986 65.6446 201.986H69.7232C69.7232 201.986 69.7806 201.986 69.7806 201.929C69.7806 201.871 69.7806 201.871 69.7232 201.871H65.6446Z" fill="#888888"/>
<path d="M514.755 88.9933C514.526 88.9933 514.296 88.7635 514.296 88.5337V84.4552C514.296 84.2254 514.526 83.9956 514.755 83.9956C514.985 83.9956 515.215 84.2254 515.215 84.4552V88.5337C515.215 88.821 514.985 88.9933 514.755 88.9933Z" fill="#888888"/>
<path d="M514.747 89.3959C514.287 89.3959 513.885 88.9938 513.885 88.5342V84.4557C513.885 83.9961 514.287 83.594 514.747 83.594C515.206 83.594 515.608 83.9961 515.608 84.4557V88.5342C515.608 89.0512 515.206 89.3959 514.747 89.3959ZM514.747 84.3982C514.689 84.3982 514.747 84.3982 514.747 84.3982L514.689 88.5342C514.689 88.5917 514.804 88.5917 514.804 88.5342L514.747 84.3982C514.804 84.3982 514.747 84.3982 514.747 84.3982Z" fill="#888888"/>
<path d="M517.279 86.5216C517.279 86.7513 517.049 86.9811 516.819 86.9811H512.683C512.454 86.9811 512.224 86.7513 512.224 86.5216C512.224 86.2918 512.454 86.062 512.683 86.062H516.762C517.049 86.062 517.279 86.2343 517.279 86.5216Z" fill="#888888"/>
<path d="M516.812 87.3835H512.676C512.216 87.3835 511.814 86.9814 511.814 86.5219C511.814 86.0623 512.216 85.6602 512.676 85.6602H516.754C517.214 85.6602 517.616 86.0623 517.616 86.5219C517.674 86.9814 517.271 87.3835 516.812 87.3835ZM512.676 86.4644C512.618 86.4644 512.676 86.4644 512.676 86.4644C512.618 86.5219 512.676 86.5793 512.676 86.5793H516.754C516.754 86.5793 516.812 86.5793 516.812 86.5219C516.812 86.5219 516.812 86.4644 516.754 86.4644H512.676Z" fill="#888888"/>
<path d="M472.866 240.315H410.998C406.517 240.315 402.84 236.638 402.84 232.157C402.84 227.677 406.517 224 410.998 224H472.866C477.347 224 481.024 227.677 481.024 232.157C481.024 236.638 477.347 240.315 472.866 240.315ZM410.998 225.608C407.379 225.608 404.449 228.538 404.449 232.157C404.449 235.776 407.379 238.706 410.998 238.706H472.866C476.485 238.706 479.415 235.776 479.415 232.157C479.415 228.538 476.485 225.608 472.866 225.608H410.998Z" fill="#888888"/>
<path d="M415.307 234.919C413.354 234.919 411.803 233.367 411.803 231.414C411.803 229.461 413.354 227.91 415.307 227.91C417.26 227.91 418.811 229.461 418.811 231.414C418.811 233.367 417.203 234.919 415.307 234.919ZM415.307 229.519C414.273 229.519 413.411 230.38 413.411 231.414C413.411 232.448 414.273 233.31 415.307 233.31C416.341 233.31 417.203 232.448 417.203 231.414C417.203 230.38 416.341 229.519 415.307 229.519Z" fill="#888888"/>
<path d="M419.323 236.412C419.094 236.412 418.921 236.355 418.749 236.183L416.509 233.942C416.164 233.597 416.164 233.08 416.509 232.793C416.853 232.448 417.37 232.448 417.657 232.793L419.898 235.034C420.242 235.378 420.242 235.895 419.898 236.183C419.725 236.355 419.553 236.412 419.323 236.412Z" fill="#888888"/>
<path d="M341.062 204.154C294.186 204.154 255.985 166.01 255.985 119.077C255.985 72.1443 294.186 34.0005 341.062 34.0005C387.937 34.0005 426.139 72.1443 426.139 119.077C426.139 166.01 387.995 204.154 341.062 204.154ZM341.062 35.6664C295.105 35.6664 257.651 73.0634 257.651 119.077C257.651 165.091 295.048 202.488 341.062 202.488C387.076 202.488 424.473 165.091 424.473 119.077C424.473 73.0634 387.076 35.6664 341.062 35.6664Z" fill="#888888"/>
<path d="M395.258 174.507C424.842 144.922 424.842 96.9562 395.258 67.3717C365.673 37.7873 317.707 37.7873 288.123 67.3717C258.538 96.9562 258.538 144.922 288.123 174.507C317.707 204.091 365.673 204.091 395.258 174.507Z" fill="#C5C8FB"/>
<path d="M318.145 200.936C297.235 180.83 285.229 151.016 285.229 119.076C285.229 87.1941 297.235 57.3225 318.145 37.2166L319.294 38.3655C298.671 58.1841 286.895 87.5962 286.895 119.019C286.895 150.499 298.729 179.911 319.294 199.672L318.145 200.936Z" fill="#888888"/>
<path d="M364.044 200.942L362.896 199.793C383.518 179.974 395.295 150.562 395.295 119.139C395.295 87.6594 383.461 58.2473 362.896 38.4861L364.044 37.3372C384.955 57.4431 396.961 87.2573 396.961 119.197C396.961 150.964 384.955 180.836 364.044 200.942Z" fill="#888888"/>
<path d="M341.128 174.913C309.246 174.913 279.374 162.907 259.269 141.997L260.417 140.848C280.236 161.471 309.648 173.247 341.071 173.247C372.551 173.247 401.963 161.414 421.724 140.848L422.873 141.997C402.825 162.965 373.011 174.913 341.128 174.913Z" fill="#888888"/>
<path d="M421.779 97.2448C401.96 76.6219 372.548 64.8456 341.125 64.8456C309.645 64.8456 280.233 76.6794 260.472 97.2448L259.323 96.0959C279.429 75.1858 309.243 63.1797 341.183 63.1797C373.065 63.1797 402.936 75.1858 423.042 96.0959L421.779 97.2448Z" fill="#888888"/>
<path d="M425.346 118.271H256.858V119.879H425.346V118.271Z" fill="#888888"/>
<path d="M341.865 34.8599H340.257V203.347H341.865V34.8599Z" fill="#888888"/>
<path fill-rule="evenodd" clip-rule="evenodd" d="M198.652 53.5881C194.122 57.2982 190.877 61.0275 189.845 63.9442L188.726 63.5493C189.873 60.3062 193.343 56.4026 197.899 52.6711C202.482 48.9184 208.253 45.2667 214.129 42.5487C219.995 39.8352 226.018 38.0279 231.093 38.0188C236.189 38.0098 240.433 39.8276 242.466 44.4603C244.843 49.8725 242.595 55.5641 239.175 60.6062C236.594 64.4123 233.254 67.9765 230.508 70.9071C229.61 71.8654 228.776 72.756 228.052 73.5651C227.627 74.0402 227.11 74.5974 226.53 75.2224C224.301 77.6249 221.143 81.0281 218.724 84.6129C217.202 86.8695 216.007 89.1499 215.519 91.2501C215.035 93.3357 215.257 95.1849 216.483 96.6907L216.484 96.6914C218.098 98.681 220.942 99.472 223.636 99.2281C226.335 98.9839 228.887 97.8537 231.45 96.658L231.45 96.658C233.476 95.7134 235.538 94.5749 237.658 93.4044C237.921 93.2593 238.185 93.1137 238.449 92.9679C240.84 91.6511 243.3 90.323 245.815 89.2457C250.847 87.0903 256.175 85.9045 261.742 87.8373L261.353 88.9573C256.188 87.1641 251.192 88.2326 246.283 90.3354C243.828 91.3871 241.414 92.6891 239.022 94.0062C238.759 94.1516 238.495 94.2971 238.231 94.4426C236.117 95.6102 234.017 96.7695 231.952 97.7324C229.406 98.92 226.677 100.143 223.743 100.409C220.806 100.675 217.508 99.8358 215.562 97.4385C214.036 95.5637 213.824 93.3024 214.363 90.9821C214.899 88.6763 216.185 86.2555 217.74 83.9501C220.217 80.2786 223.467 76.778 225.694 74.3786C226.261 73.7675 226.762 73.2279 227.167 72.7751L227.167 72.775C227.923 71.9301 228.78 71.0148 229.694 70.0396C232.43 67.1197 235.67 63.6617 238.193 59.9412C241.564 54.9694 243.495 49.7541 241.38 44.9367L241.379 44.9365C239.6 40.8811 235.902 39.196 231.095 39.2045C226.266 39.2131 220.423 40.944 214.628 43.6247C208.842 46.3008 203.156 49.8992 198.652 53.5881Z" fill="#888888"/>
<path fill-rule="evenodd" clip-rule="evenodd" d="M159.493 60.8214C152.149 61.5582 146.668 66.5948 143.88 71.9015C142.481 74.5659 141.563 77.3634 140.663 80.22C140.601 80.4164 140.539 80.6131 140.477 80.8101C139.642 83.4641 138.793 86.1651 137.56 88.7753C134.897 94.4111 129.717 99.9932 122.024 101.401L122.024 101.401C111.458 103.333 103.658 98.4476 96.1319 93.2961C95.6976 92.9988 95.2642 92.7007 94.8313 92.4029C87.7134 87.5067 80.7199 82.6962 71.543 82.9078C67.3606 83.0046 63.2585 84.2845 59.9231 86.3054C56.5824 88.3295 54.0551 91.0687 52.9539 94.0512L51.8403 93.6408C53.0594 90.3391 55.8077 87.4122 59.3077 85.2915C62.8131 83.1676 67.1169 81.8242 71.5155 81.7224H71.5156C81.0904 81.5016 88.3875 86.5258 95.4409 91.3821C95.8957 91.6953 96.3495 92.0077 96.8028 92.318C104.336 97.4746 111.767 102.071 121.81 100.235C129.019 98.9154 133.933 93.6721 136.486 88.2691C137.684 85.7354 138.51 83.1083 139.35 80.4389C139.41 80.2474 139.47 80.0557 139.531 79.8638C140.43 77.0105 141.375 74.1196 142.829 71.3505C145.75 65.7904 151.533 60.4283 159.375 59.6416L159.493 60.8214Z" fill="#888888"/>
<path fill-rule="evenodd" clip-rule="evenodd" d="M170.638 38.1663L132.247 45.3748C132.497 49.0919 131.48 52.7858 129.361 55.8548C127.244 58.9218 124.151 61.182 120.588 62.2705L124.039 80.6211C125.956 90.9416 131.171 100.363 138.901 107.472L138.903 107.474C146.446 114.465 155.984 118.931 166.187 120.249C175.227 115.323 182.501 107.698 186.992 98.44L186.993 98.4376C191.617 89.0114 193.057 78.3414 191.097 68.0284L191.096 68.0274L187.644 49.6894C183.927 49.9669 180.224 48.9817 177.136 46.891C174.045 44.7982 171.756 41.7226 170.638 38.1663ZM188.196 49.415L188.776 49.2871C188.723 49.0493 188.587 48.8383 188.391 48.6928C188.195 48.5473 187.954 48.4769 187.711 48.4947L187.704 48.4952C184.205 48.7907 180.709 47.878 177.802 45.9095C174.896 43.9421 172.754 41.0391 171.731 37.6846C171.662 37.4434 171.505 37.2365 171.291 37.1046C171.076 36.9717 170.818 36.9246 170.57 36.9728C170.568 36.973 170.567 36.9732 170.566 36.9734L131.862 44.2407C131.857 44.2416 131.853 44.2425 131.848 44.2435C131.604 44.2955 131.387 44.4362 131.241 44.6384C131.097 44.8374 131.03 45.0822 131.054 45.3265C131.318 48.8197 130.376 52.2978 128.385 55.1816C126.392 58.0669 123.471 60.1829 120.106 61.177C119.865 61.2466 119.658 61.4035 119.526 61.6173C119.393 61.832 119.345 62.0884 119.392 62.3363C119.392 62.3366 119.393 62.3369 119.393 62.3373L122.873 80.8374C122.873 80.8376 122.873 80.8378 122.873 80.838C124.836 91.4101 130.178 101.061 138.097 108.344C145.835 115.517 155.625 120.093 166.096 121.432C166.102 121.433 166.108 121.434 166.115 121.435C166.313 121.453 166.512 121.415 166.69 121.325C166.695 121.323 166.699 121.32 166.704 121.318C175.984 116.275 183.452 108.456 188.059 98.9581C192.796 89.3019 194.271 78.3717 192.263 67.8072L188.779 49.3054L188.196 49.415ZM120.559 62.1156C120.559 62.116 120.559 62.1165 120.559 62.1169L120.559 62.1156Z" fill="#888888" fill-opacity="0.533333"/>
<path d="M188.196 49.4151L191.68 67.9179C193.664 78.357 192.207 89.1573 187.526 98.6986C182.973 108.085 175.593 115.813 166.421 120.797C166.344 120.836 166.257 120.853 166.171 120.844C155.823 119.521 146.148 114.998 138.5 107.909C130.675 100.713 125.397 91.176 123.456 80.7294L119.976 62.2266C119.956 62.124 119.976 62.0178 120.031 61.9289C120.086 61.84 120.172 61.7749 120.273 61.7464C123.768 60.7141 126.804 58.5159 128.873 55.5184C130.943 52.5208 131.921 48.9051 131.646 45.2741C131.635 45.1719 131.662 45.0693 131.722 44.9861C131.782 44.9029 131.871 44.8449 131.972 44.8235L170.681 37.5552C170.784 37.535 170.891 37.5543 170.98 37.6092C171.069 37.6642 171.134 37.7508 171.162 37.8516C172.223 41.3383 174.45 44.3558 177.469 46.4004C180.489 48.445 184.119 49.393 187.754 49.0861C187.855 49.0787 187.956 49.1079 188.037 49.1684C188.118 49.2288 188.175 49.3164 188.196 49.4151Z" fill="white"/>
<path d="M165.107 113.867C165.044 113.901 164.972 113.914 164.902 113.906C156.35 112.82 148.353 109.089 142.031 103.234C135.563 97.2918 131.2 89.4122 129.599 80.7802L126.724 65.4995C126.708 65.4145 126.724 65.3267 126.77 65.2533C126.815 65.1798 126.887 65.1259 126.97 65.1023C129.856 64.2494 132.363 62.4339 134.071 59.9586C135.78 57.4833 136.588 54.4977 136.361 51.4994C136.353 51.4141 136.378 51.3291 136.429 51.2607C136.481 51.1923 136.556 51.1454 136.64 51.1289L151.111 48.4106L152.345 48.5707L165.107 113.867Z" fill="#5D42D1"/>
<path d="M182.536 95.6251C178.775 103.376 172.68 109.756 165.107 113.873C165.044 113.906 164.973 113.92 164.902 113.911C156.35 112.826 148.353 109.095 142.031 103.24C135.562 97.2961 131.199 89.4143 129.599 80.7801L126.724 65.4995C126.708 65.4145 126.724 65.3267 126.77 65.2532C126.815 65.1797 126.887 65.1259 126.97 65.1022C129.856 64.2493 132.363 62.4339 134.071 59.9586C135.78 57.4833 136.588 54.4977 136.361 51.4993C136.353 51.4141 136.378 51.3291 136.429 51.2607C136.481 51.1923 136.556 51.1453 136.64 51.1288L151.111 48.4106L168.617 45.1262C168.701 45.1109 168.789 45.1272 168.862 45.172C168.935 45.2169 168.99 45.2871 169.014 45.3693C169.892 48.2464 171.73 50.736 174.222 52.4229C176.715 54.1097 179.711 54.8917 182.711 54.6385C182.799 54.6308 182.887 54.6572 182.957 54.7123C183.026 54.7674 183.072 54.8471 183.085 54.9349L185.96 70.2156C187.599 78.8325 186.397 87.748 182.536 95.6251Z" fill="#6F4AE7"/>
<path fill-rule="evenodd" clip-rule="evenodd" d="M168.834 67.4656C168.534 67.4235 168.228 67.4419 167.936 67.5195C167.643 67.5971 167.369 67.7325 167.129 67.9176C166.89 68.1027 166.69 68.3339 166.541 68.5975C166.533 68.6116 166.524 68.6256 166.516 68.6393L157.125 83.333L156.374 82.8545L157.12 83.34C156.937 83.62 156.651 83.8162 156.324 83.8857C155.998 83.955 155.658 83.8927 155.378 83.7127L150.693 80.7283C150.443 80.5682 150.163 80.4589 149.87 80.4069C149.577 80.3549 149.277 80.361 148.986 80.4251C148.695 80.4891 148.42 80.6097 148.176 80.78C147.933 80.9504 147.725 81.167 147.565 81.4177C147.561 81.4228 147.558 81.4278 147.555 81.4328L147.507 81.5046C147.187 82.0102 147.08 82.6216 147.209 83.2058C147.339 83.7926 147.697 84.3039 148.204 84.6274C148.204 84.6273 148.204 84.6274 148.204 84.6274L155.863 89.5099C156.114 89.6702 156.394 89.7795 156.687 89.8316C156.98 89.8836 157.281 89.8775 157.572 89.8134C157.863 89.7494 158.138 89.6287 158.382 89.4583C158.626 89.2879 158.834 89.0711 158.995 88.8203L170.338 71.0732C170.346 71.0616 170.353 71.0502 170.361 71.039C170.377 71.0167 170.394 70.9887 170.43 70.931C170.44 70.9144 170.451 70.8983 170.462 70.8826C170.61 70.6372 170.71 70.3658 170.757 70.0828C170.807 69.7843 170.796 69.4789 170.726 69.1846C170.655 68.8903 170.527 68.613 170.348 68.3691C170.168 68.1252 169.942 67.9197 169.682 67.7645C169.422 67.6093 169.134 67.5077 168.834 67.4656ZM171.829 72.0456L160.495 89.7772C160.209 90.225 159.838 90.612 159.402 90.9163C158.966 91.2205 158.474 91.436 157.955 91.5503C157.436 91.6646 156.899 91.6756 156.375 91.5826C155.852 91.4897 155.352 91.2947 154.904 91.0088M154.904 91.0084L147.246 86.1267C146.341 85.5495 145.703 84.6369 145.471 83.5897C145.239 82.5425 145.433 81.4461 146.01 80.5417C146.013 80.5365 146.017 80.5314 146.02 80.5263L146.069 80.4533C146.354 80.009 146.723 79.6248 147.156 79.3224C147.592 79.0181 148.083 78.8026 148.603 78.6883C149.122 78.5739 149.658 78.5629 150.182 78.6558C150.705 78.7488 151.205 78.9438 151.652 79.2299C151.652 79.2298 151.652 79.2299 151.652 79.2299L155.904 81.9385L165.003 67.7014C165.267 67.2405 165.619 66.8359 166.04 66.5108C166.467 66.1805 166.957 65.939 167.479 65.8005C168.001 65.6619 168.546 65.6293 169.081 65.7044C169.616 65.7794 170.131 65.9608 170.595 66.2376C171.059 66.5145 171.463 66.8813 171.783 67.3165C172.102 67.7517 172.332 68.2464 172.457 68.7716C172.583 69.2967 172.602 69.8416 172.513 70.3742C172.425 70.9068 172.231 71.4163 171.942 71.8727C171.935 71.8842 171.927 71.8955 171.919 71.9065C171.894 71.9468 171.863 71.9958 171.829 72.0456" fill="white"/>
<path d="M171.191 71.3948C171.158 71.4482 171.125 71.5015 171.09 71.5519L159.746 89.2988C159.523 89.6481 159.233 89.9501 158.893 90.1874C158.553 90.4247 158.17 90.5928 157.765 90.682C157.36 90.7712 156.941 90.7797 156.533 90.7072C156.124 90.6347 155.734 90.4825 155.385 90.2592L147.727 85.3771C147.021 84.9268 146.522 84.2149 146.342 83.3978C146.161 82.5808 146.312 81.7254 146.762 81.0197L146.816 80.9397C147.039 80.5905 147.328 80.2886 147.668 80.0513C148.008 79.814 148.391 79.646 148.796 79.5568C149.201 79.4676 149.619 79.459 150.027 79.5315C150.435 79.604 150.825 79.7561 151.174 79.9793L155.86 82.9643C155.943 83.0179 156.044 83.0365 156.14 83.016C156.237 82.9954 156.322 82.9374 156.376 82.8546L165.767 68.1608C165.974 67.7939 166.252 67.4721 166.586 67.2144C166.919 66.9566 167.301 66.7682 167.709 66.6601C168.116 66.552 168.541 66.5265 168.959 66.5851C169.376 66.6437 169.778 66.7852 170.14 67.0012C170.502 67.2172 170.817 67.5034 171.067 67.843C171.316 68.1825 171.495 68.5685 171.593 68.9782C171.691 69.3879 171.706 69.8131 171.637 70.2286C171.568 70.6442 171.416 71.0417 171.191 71.3978V71.3948Z" fill="white"/>
<path d="M396.331 62.329C400.693 62.329 404.229 58.7962 404.229 54.4382C404.229 50.0802 400.693 46.5474 396.331 46.5474C391.968 46.5474 388.432 50.0802 388.432 54.4382C388.432 58.7962 391.968 62.329 396.331 62.329Z" fill="#AD79FF"/>
<path fill-rule="evenodd" clip-rule="evenodd" d="M396.332 47.14C392.298 47.14 389.027 50.4075 389.027 54.438C389.027 58.4686 392.298 61.736 396.332 61.736C400.367 61.736 403.637 58.4686 403.637 54.438C403.637 50.4075 400.367 47.14 396.332 47.14ZM387.84 54.438C387.84 49.7526 391.642 45.9543 396.332 45.9543C401.022 45.9543 404.824 49.7526 404.824 54.438C404.824 59.1234 401.022 62.9217 396.332 62.9217C391.642 62.9217 387.84 59.1234 387.84 54.438Z" fill="#888888"/>
<path d="M395.331 126.328C399.693 126.328 403.229 122.796 403.229 118.438C403.229 114.08 399.693 110.547 395.331 110.547C390.968 110.547 387.432 114.08 387.432 118.438C387.432 122.796 390.968 126.328 395.331 126.328Z" fill="#6F4AE7"/>
<path fill-rule="evenodd" clip-rule="evenodd" d="M395.332 111.14C391.298 111.14 388.027 114.407 388.027 118.438C388.027 122.469 391.298 125.736 395.332 125.736C399.367 125.736 402.637 122.469 402.637 118.438C402.637 114.407 399.367 111.14 395.332 111.14ZM386.84 118.438C386.84 113.753 390.642 109.954 395.332 109.954C400.022 109.954 403.824 113.753 403.824 118.438C403.824 123.123 400.022 126.922 395.332 126.922C390.642 126.922 386.84 123.123 386.84 118.438Z" fill="#888888"/>
<path d="M325.622 92.422C325.622 95.0645 324.875 97.4772 323.496 99.4878L323.381 99.6602L314.42 112.7C313.731 113.734 312.18 113.734 311.49 112.643L302.816 99.3729L302.701 99.2006C301.437 97.2475 300.691 94.8922 300.748 92.3646C300.805 85.4712 306.55 79.8989 313.501 80.0713C320.164 80.3011 325.564 85.7584 325.622 92.422Z" fill="#6A45E3"/>
<path d="M313.875 97.1882C316.452 96.8279 318.248 94.4471 317.888 91.8705C317.528 89.2939 315.147 87.4973 312.57 87.8576C309.994 88.2179 308.197 90.5987 308.557 93.1753C308.918 95.7519 311.299 97.5485 313.875 97.1882Z" fill="white"/>
<path d="M313.207 98.0508H313.149C310.105 97.9933 307.635 95.5232 307.692 92.4786C307.75 89.4339 310.22 87.0212 313.207 87.0212H313.264C316.309 87.0787 318.779 89.5488 318.722 92.5934C318.664 95.6381 316.194 98.0508 313.207 98.0508ZM313.207 88.6297C311.081 88.6297 309.358 90.3531 309.301 92.4786C309.301 94.604 311.024 96.3849 313.149 96.3849H313.207C315.332 96.3849 317.056 94.6615 317.113 92.536C317.113 90.468 315.39 88.6872 313.207 88.6297Z" fill="white"/>
<path d="M357.549 260.846C359.128 260.846 360.643 260.215 361.76 259.092C362.877 257.97 363.505 256.447 363.505 254.859V145.049C363.505 143.461 362.877 141.938 361.76 140.815C360.643 139.692 359.128 139.062 357.549 139.062H175.678C174.099 139.062 172.584 139.692 171.467 140.815C170.35 141.938 169.722 143.461 169.722 145.049V254.859C169.722 256.447 170.35 257.97 171.467 259.092C172.584 260.215 174.099 260.846 175.678 260.846" fill="white"/>
<path d="M357.299 261.612C359.146 261.612 360.917 260.876 362.224 259.566C363.531 258.256 364.266 256.479 364.269 254.626V144.265H363.231V145.291H364.261C364.261 143.435 363.526 141.656 362.219 140.345C360.912 139.033 359.139 138.296 357.291 138.296H175.924C174.075 138.296 172.303 139.033 170.996 140.345C169.688 141.656 168.954 143.435 168.954 145.291V254.626C168.954 255.544 169.134 256.453 169.485 257.301C169.835 258.149 170.349 258.92 170.996 259.569C171.643 260.218 172.412 260.732 173.257 261.083C174.103 261.433 175.009 261.613 175.924 261.612V259.553C174.621 259.553 173.371 259.034 172.449 258.11C171.527 257.186 171.008 255.933 171.006 254.626V145.291C171.01 143.983 171.53 142.73 172.451 141.805C173.372 140.881 174.621 140.359 175.924 140.355H357.291C358.594 140.359 359.842 140.881 360.764 141.805C361.685 142.73 362.205 143.983 362.209 145.291V146.324V254.626C362.207 255.933 361.688 257.186 360.766 258.11C359.843 259.034 358.594 259.553 357.291 259.553V261.612H357.299Z" fill="#2B2A33"/>
<path d="M136.011 289.951V293.93C136.013 295.108 136.456 296.238 137.242 297.071C138.028 297.905 139.094 298.374 140.206 298.376H393.776C394.887 298.374 395.952 297.904 396.737 297.071C397.522 296.237 397.962 295.108 397.962 293.93V289.951" fill="white"/>
<path d="M135.244 289.952V293.797C135.244 295.215 135.793 296.575 136.77 297.577C137.747 298.58 139.072 299.143 140.453 299.143H393.519C394.9 299.143 396.225 298.58 397.202 297.577C398.179 296.575 398.728 295.215 398.728 293.797V289.952H396.674V293.797C396.664 294.653 396.328 295.471 395.739 296.076C395.149 296.681 394.353 297.025 393.519 297.036H140.453C139.612 297.036 138.806 296.696 138.207 296.09C137.609 295.484 137.268 294.66 137.258 293.797V289.952H135.244Z" fill="#2B2A33"/>
<path d="M394.77 293.016C395.428 293.014 396.069 292.814 396.607 292.442C397.145 292.07 397.552 291.544 397.774 290.937C397.997 290.33 398.023 289.67 397.849 289.048C397.675 288.426 397.31 287.871 396.803 287.46L364.78 261.561C364.207 261.099 363.488 260.847 362.746 260.847H171.228C170.486 260.847 169.767 261.099 169.194 261.561L137.17 287.46C136.664 287.871 136.299 288.426 136.125 289.048C135.951 289.67 135.977 290.33 136.199 290.937C136.422 291.544 136.829 292.07 137.367 292.442C137.904 292.814 138.546 293.014 139.204 293.016H394.77Z" fill="white"/>
<path d="M394.501 292.753V293.773C395.101 293.777 395.695 293.653 396.243 293.41C397.001 293.078 397.639 292.526 398.072 291.827C398.499 291.151 398.726 290.37 398.728 289.573C398.727 288.983 398.599 288.4 398.352 287.864C398.081 287.288 397.683 286.779 397.186 286.377L365.229 260.271C364.473 259.655 363.524 259.317 362.545 259.314H171.427C170.448 259.317 169.499 259.655 168.743 260.271L136.786 286.377C136.289 286.779 135.89 287.288 135.62 287.864C135.372 288.4 135.244 288.983 135.244 289.573C135.245 290.646 135.653 291.679 136.387 292.468C136.782 292.886 137.259 293.218 137.79 293.444C138.321 293.67 138.893 293.785 139.471 293.781H394.501V291.748H139.455C139.144 291.751 138.837 291.689 138.552 291.566C138.172 291.398 137.849 291.123 137.625 290.775C137.402 290.419 137.283 290.008 137.282 289.589C137.283 289.292 137.346 288.999 137.465 288.726C137.605 288.421 137.812 288.15 138.073 287.935L170.029 261.83C170.415 261.513 170.902 261.339 171.403 261.339H362.529C363.03 261.34 363.516 261.514 363.903 261.83L395.859 287.935C396.122 288.148 396.33 288.419 396.467 288.726C396.592 288.997 396.658 289.291 396.658 289.589C396.657 290.149 396.443 290.688 396.059 291.1C395.873 291.306 395.644 291.47 395.388 291.582C395.103 291.703 394.796 291.765 394.485 291.764L394.501 292.753Z" fill="#2B2A33"/>
<path d="M266.769 281.525H356.591L341.975 264.675H266.769H266.417H191.212L176.595 281.525H266.417H266.769Z" fill="white"/>
<path d="M266.367 282.029V283.057H356.289C356.49 283.065 356.69 283.014 356.862 282.909C357.035 282.805 357.172 282.652 357.258 282.469C357.343 282.287 357.372 282.084 357.342 281.885C357.312 281.686 357.224 281.5 357.088 281.351L342.45 265.018C342.355 264.91 342.239 264.823 342.108 264.764C341.977 264.705 341.834 264.675 341.691 264.675H190.755C190.605 264.67 190.456 264.699 190.317 264.758C190.179 264.817 190.056 264.906 189.956 265.018L175.326 281.351C175.192 281.498 175.104 281.68 175.073 281.875C175.042 282.07 175.069 282.271 175.15 282.451C175.232 282.63 175.364 282.782 175.529 282.889C175.695 282.997 175.888 283.055 176.085 283.057H266.367V281.009H178.418L191.203 266.723H341.179L353.964 281.009H266.367V282.029Z" fill="#2B2A33"/>
<path d="M352.788 147.487H180.452V253.187H352.788V147.487Z" fill="white"/>
<path d="M352.508 253.695H353.536V146.989C353.533 146.716 353.425 146.454 353.232 146.261C353.04 146.068 352.78 145.958 352.508 145.956H180.686C180.416 145.96 180.158 146.071 179.968 146.264C179.777 146.457 179.669 146.717 179.667 146.989V253.695C179.667 253.967 179.775 254.227 179.966 254.419C180.157 254.612 180.416 254.719 180.686 254.719H352.508C352.779 254.717 353.038 254.611 353.233 254.423C353.424 254.229 353.533 253.968 353.536 253.695H352.508V252.662H181.713V148.021H351.489V253.695H352.508Z" fill="#2B2A33"/>
<path d="M359.171 273.102H351.352L357.903 280.986C358.039 281.148 358.128 281.348 358.159 281.564C358.189 281.779 358.16 281.999 358.074 282.197C357.988 282.394 357.85 282.56 357.676 282.673C357.503 282.786 357.303 282.841 357.1 282.832H198.139L193.45 287.655H373.446L359.171 273.119" fill="#C3C4FD"/>
<path d="M348.071 273.102H283.336H282.984H207.687L200.342 280.761H266.214H266.566H354.296L348.071 273.102Z" fill="#C3C4FD"/>
<path d="M350.552 273.102H347.795L354.013 280.79H200.223L198.057 283.058H356.307C356.509 283.067 356.708 283.01 356.881 282.895C357.053 282.779 357.191 282.609 357.276 282.407C357.362 282.206 357.391 281.98 357.361 281.76C357.33 281.54 357.242 281.334 357.106 281.169L350.584 273.102" fill="#2B2A33"/>
<path d="M359.132 273.102H350.799L351.167 273.517H358.964L373.196 287.231H283.641H283.289H193.734L198.44 282.698H197.84L192.701 287.655H283.289H283.641H374.229L359.132 273.102Z" fill="#C3C5FD"/>
<path d="M347.802 273.102H283.652H283.301H208.101L200.342 280.761H200.94L208.26 273.525H283.301H283.652H348.168L347.802 273.102Z" fill="#C3C5FD"/>
<path d="M200.824 280.889H200.224L198.057 283.059H198.657L200.824 280.889ZM350.877 273.102H348.118L348.486 273.533H351.245L350.877 273.102Z" fill="black"/>
<path d="M151.733 252.737H61.3391C62.1035 248.447 64.3548 244.563 67.6983 241.766C71.0418 238.968 75.2642 237.435 79.6256 237.436C79.866 237.436 80.1033 237.436 80.3377 237.436C82.9137 232.862 86.7799 229.148 91.4545 226.755C96.1291 224.362 101.405 223.396 106.625 223.979C111.846 224.561 116.779 226.665 120.81 230.029C124.841 233.393 127.793 237.868 129.296 242.896C131.207 241.136 133.59 239.971 136.153 239.542C138.717 239.114 141.35 239.441 143.73 240.483C146.11 241.526 148.135 243.238 149.557 245.412C150.979 247.585 151.736 250.126 151.736 252.722L151.733 252.737Z" fill="#A883F8"/>
<path fill-rule="evenodd" clip-rule="evenodd" d="M81.6569 231.607C76.5541 231.035 71.3957 231.976 66.8244 234.312C62.2531 236.649 58.471 240.277 55.9493 244.746C55.8441 244.932 55.6466 245.047 55.4324 245.047H54.7203C50.4983 245.047 46.4106 246.531 43.174 249.239C40.1193 251.795 38.0065 255.288 37.1564 259.163H126.217C126.109 256.893 125.396 254.688 124.147 252.779C122.788 250.702 120.853 249.066 118.578 248.07C116.303 247.074 113.787 246.761 111.337 247.171C108.888 247.58 106.61 248.693 104.783 250.374C104.633 250.513 104.422 250.564 104.224 250.51C104.027 250.456 103.871 250.304 103.813 250.108C102.344 245.192 99.4607 240.817 95.521 237.527C91.5813 234.237 86.7597 232.178 81.6569 231.607ZM126.722 260.349C126.952 260.389 127.187 260.291 127.319 260.093L127.325 260.084C127.407 259.96 127.439 259.812 127.418 259.67C127.399 256.991 126.609 254.374 125.141 252.131C123.655 249.861 121.541 248.072 119.055 246.984C116.568 245.896 113.819 245.554 111.142 246.001C108.767 246.398 106.541 247.4 104.676 248.903C103.071 244.117 100.168 239.862 96.2822 236.617C92.1637 233.178 87.1234 231.026 81.7891 230.428C76.4549 229.831 71.0625 230.814 66.2839 233.257C61.6085 235.646 57.7229 239.329 55.0883 243.862H54.7204C54.7203 243.862 54.7204 243.862 54.7204 243.862C50.2197 243.861 45.8622 245.443 42.4119 248.33C38.9615 251.217 36.6384 255.225 35.8495 259.652C35.8187 259.825 35.8661 260.002 35.9789 260.137C36.0916 260.271 36.2582 260.349 36.4338 260.349H126.722Z" fill="#888888"/>
<path d="M78.8402 168.848C87.0563 168.848 93.7168 162.194 93.7168 153.986C93.7168 145.778 87.0563 139.124 78.8402 139.124C70.6241 139.124 63.9636 145.778 63.9636 153.986C63.9636 162.194 70.6241 168.848 78.8402 168.848Z" fill="#6F4AE7"/>
<path fill-rule="evenodd" clip-rule="evenodd" d="M78.0687 146.65C78.0333 146.675 78 146.703 77.969 146.733C77.9688 146.733 77.9687 146.733 77.9685 146.733L72.878 151.819C72.7588 151.973 72.6931 152.162 72.6931 152.359C72.6931 152.592 72.786 152.816 72.9513 152.982C73.1167 153.147 73.341 153.24 73.5749 153.24C73.8087 153.24 74.033 153.147 74.1983 152.982C74.1983 152.982 74.1983 152.982 74.1983 152.982L77.9628 149.217V160.889C77.9628 161.122 78.0555 161.346 78.2206 161.511C78.3857 161.676 78.6096 161.769 78.843 161.769C79.0765 161.769 79.3004 161.676 79.4654 161.511C79.6305 161.346 79.7233 161.122 79.7233 160.889V149.227L83.4909 152.991C83.6562 153.156 83.8803 153.249 84.1139 153.248C84.3474 153.248 84.5713 153.155 84.7363 152.99C84.9012 152.825 84.9937 152.601 84.9935 152.367C84.9932 152.134 84.9002 151.911 84.7348 151.746L79.7166 146.732L79.7159 146.732C79.6861 146.701 79.6534 146.674 79.6184 146.65C79.1193 146.46 78.5679 146.46 78.0687 146.65ZM72.9875 151.361L77.7959 146.557C77.8406 146.513 77.8892 146.474 77.9409 146.438L77.9527 146.43L77.9659 146.425C78.5302 146.207 79.1559 146.207 79.7201 146.425L79.7323 146.43L79.7432 146.437C79.7968 146.472 79.8465 146.513 79.8915 146.558C79.8916 146.559 79.8917 146.559 79.8919 146.559L84.9091 151.571C85.1208 151.782 85.2399 152.068 85.2403 152.367C85.2406 152.666 85.1222 152.953 84.911 153.164C84.6998 153.375 84.4132 153.494 84.1142 153.495C83.8152 153.495 83.5283 153.377 83.3166 153.166L79.9701 149.823V160.889C79.9701 161.188 79.8513 161.474 79.64 161.685C79.4286 161.897 79.1419 162.015 78.843 162.015C78.5441 162.015 78.2575 161.897 78.0461 161.685C77.8348 161.474 77.716 161.188 77.716 160.889V149.813L74.3729 153.156C74.1613 153.367 73.8742 153.486 73.5749 153.486C73.2755 153.486 72.9885 153.367 72.7768 153.156C72.5652 152.944 72.4463 152.658 72.4463 152.359C72.4463 152.06 72.5652 151.773 72.7768 151.561L72.9875 151.351V151.361Z" fill="#C2C6FB"/>
<path d="M72.8611 151.659L77.8792 146.646C77.9188 146.607 77.9617 146.572 78.0075 146.541C78.5431 146.333 79.1369 146.333 79.6725 146.541C79.7189 146.571 79.7619 146.606 79.8008 146.646L84.8189 151.659C85.0074 151.847 85.1135 152.102 85.1138 152.368C85.1141 152.634 85.0086 152.889 84.8206 153.077C84.6325 153.266 84.3773 153.372 84.111 153.372C83.8447 153.372 83.5892 153.267 83.4007 153.079L79.8436 149.525V160.89C79.8436 161.156 79.7379 161.411 79.5497 161.599C79.3614 161.787 79.1062 161.892 78.84 161.892C78.5738 161.892 78.3185 161.787 78.1303 161.599C77.9421 161.411 77.8364 161.156 77.8364 160.89V149.516L74.2826 153.069C74.0941 153.258 73.8384 153.363 73.5718 153.363C73.3052 153.363 73.0496 153.258 72.8611 153.069C72.6726 152.881 72.5667 152.625 72.5667 152.359C72.5667 152.093 72.6726 151.837 72.8611 151.649V151.659Z" fill="white"/>
<path d="M265.84 187.874L282.247 185.594V202H265.84V187.874ZM263.106 188.325L249.434 190.179V202H263.106V188.325ZM263.106 204.734H249.434V213.821L263.106 215.675V204.734ZM265.84 204.734V216.126L282.247 218.406V204.734H265.84Z" fill="black"/>
<path d="M234.745 145.922C234.745 156.876 225.833 165.756 214.84 165.756C203.848 165.756 194.936 156.876 194.936 145.922C194.936 134.968 203.848 126.088 214.84 126.088C225.833 126.088 234.745 134.968 234.745 145.922Z" fill="white" stroke="url(#paint0_radial_6878_10360)" stroke-width="2.53516"/>
<path fill-rule="evenodd" clip-rule="evenodd" d="M214.84 137.022C213.886 137.022 213.112 137.794 213.112 138.745C213.112 139.696 213.886 140.467 214.84 140.467C215.795 140.467 216.569 139.696 216.569 138.745C216.569 137.794 215.795 137.022 214.84 137.022ZM210.807 138.745C210.807 136.525 212.613 134.726 214.84 134.726C217.067 134.726 218.874 136.525 218.874 138.745C218.874 140.964 217.067 142.764 214.84 142.764C214.146 142.764 213.492 142.589 212.921 142.281L211.186 144.01C211.317 144.25 211.424 144.506 211.505 144.773H218.176C218.672 143.113 220.216 141.903 222.043 141.903C224.27 141.903 226.076 143.702 226.076 145.922C226.076 148.141 224.27 149.941 222.043 149.941C221.348 149.941 220.694 149.766 220.123 149.457L218.388 151.186C218.698 151.755 218.874 152.406 218.874 153.098C218.874 155.318 217.067 157.117 214.84 157.117C212.613 157.117 210.807 155.318 210.807 153.098C210.807 150.879 212.613 149.079 214.84 149.079C215.535 149.079 216.188 149.254 216.759 149.562L218.494 147.834C218.363 147.593 218.257 147.337 218.176 147.07H211.505C211.008 148.73 209.465 149.941 207.638 149.941C205.411 149.941 203.604 148.141 203.604 145.922C203.604 143.702 205.411 141.903 207.638 141.903C208.332 141.903 208.986 142.078 209.557 142.386L211.292 140.657C210.983 140.088 210.807 139.437 210.807 138.745ZM213.112 153.098C213.112 152.147 213.886 151.376 214.84 151.376C215.795 151.376 216.569 152.147 216.569 153.098C216.569 154.05 215.795 154.821 214.84 154.821C213.886 154.821 213.112 154.05 213.112 153.098ZM207.638 144.199C206.683 144.199 205.909 144.97 205.909 145.922C205.909 146.873 206.683 147.644 207.638 147.644C208.592 147.644 209.366 146.873 209.366 145.922C209.366 144.97 208.592 144.199 207.638 144.199ZM220.314 145.922C220.314 144.97 221.088 144.199 222.043 144.199C222.997 144.199 223.771 144.97 223.771 145.922C223.771 146.873 222.997 147.644 222.043 147.644C221.088 147.644 220.314 146.873 220.314 145.922Z" fill="black"/>
<path d="M236.84 145.922C236.84 133.815 226.991 124 214.84 124C202.69 124 192.84 133.815 192.84 145.922C192.84 158.029 202.69 167.843 214.84 167.843C226.991 167.843 236.84 158.029 236.84 145.922Z" stroke="url(#paint1_radial_6878_10360)" stroke-width="2.53516"/>
<defs>
<radialGradient id="paint0_radial_6878_10360" cx="0" cy="0" r="1" gradientUnits="userSpaceOnUse" gradientTransform="translate(214.84 145.922) rotate(90) scale(20.8778 20.9524)">
<stop stop-color="#472C87"/>
<stop offset="0.361992" stop-color="#301962"/>
<stop offset="1" stop-color="#1D0942"/>
</radialGradient>
<radialGradient id="paint1_radial_6878_10360" cx="0" cy="0" r="1" gradientUnits="userSpaceOnUse" gradientTransform="translate(235.793 125.044) rotate(-44.8979) scale(59.1569 59.1565)">
<stop stop-color="#B833E1"/>
<stop offset="0.371" stop-color="#9059FF"/>
<stop offset="0.614" stop-color="#5B6DF8"/>
<stop offset="1" stop-color="#0090ED"/>
</radialGradient>
</defs>
</svg>
