<svg width="557" height="300" viewBox="0 0 557 300" fill="none" xmlns="http://www.w3.org/2000/svg">
<path d="M417.197 87.727C416.967 87.727 416.737 87.4972 416.737 87.2674V83.1888C416.737 82.959 416.967 82.7292 417.197 82.7292C417.427 82.7292 417.657 82.959 417.657 83.1888V87.2674C417.657 87.4972 417.427 87.727 417.197 87.727Z" fill="black"/>
<path d="M417.188 88.1296C416.728 88.1296 416.326 87.7275 416.326 87.2679V83.1893C416.326 82.7298 416.728 82.3276 417.188 82.3276C417.648 82.3276 418.05 82.7298 418.05 83.1893V87.2679C418.05 87.7275 417.648 88.1296 417.188 88.1296ZM417.188 83.0744C417.131 83.0744 417.131 83.1319 417.188 83.0744L417.131 87.2105C417.131 87.2679 417.245 87.2679 417.245 87.2105L417.188 83.0744C417.245 83.1319 417.188 83.0744 417.188 83.0744Z" fill="black"/>
<path d="M419.664 85.1976C419.664 85.4274 419.434 85.6572 419.204 85.6572H415.125C414.896 85.6572 414.666 85.4274 414.666 85.1976C414.666 84.9678 414.896 84.738 415.125 84.738H419.204C419.491 84.738 419.664 84.9678 419.664 85.1976Z" fill="black"/>
<path d="M419.195 86.0595H415.116C414.657 86.0595 414.255 85.6574 414.255 85.1979C414.255 84.7383 414.657 84.3362 415.116 84.3362H419.195C419.655 84.3362 420.057 84.7383 420.057 85.1979C420.057 85.6574 419.712 86.0595 419.195 86.0595ZM415.116 85.1404C415.059 85.1979 415.116 85.1404 415.116 85.1404C415.059 85.1979 415.116 85.2553 415.116 85.2553H419.195C419.195 85.2553 419.252 85.2553 419.252 85.1979C419.252 85.1404 419.252 85.1404 419.195 85.1404H415.116Z" fill="black"/>
<path d="M553.587 258.339C553.357 258.339 553.127 258.109 553.127 257.879V253.8C553.127 253.571 553.357 253.341 553.587 253.341C553.817 253.341 554.046 253.571 554.046 253.8V257.879C554.046 258.109 553.874 258.339 553.587 258.339Z" fill="#888888"/>
<path d="M553.578 258.741C553.118 258.741 552.716 258.339 552.716 257.88V253.801C552.716 253.341 553.118 252.939 553.578 252.939C554.037 252.939 554.439 253.341 554.439 253.801V257.88C554.439 258.339 554.037 258.741 553.578 258.741ZM553.578 253.743C553.52 253.743 553.578 253.743 553.578 253.743L553.52 257.88C553.52 257.937 553.635 257.937 553.635 257.88L553.578 253.743C553.635 253.743 553.635 253.743 553.578 253.743Z" fill="#888888"/>
<path d="M556.106 255.813C556.106 256.043 555.876 256.272 555.647 256.272H551.568C551.338 256.272 551.108 256.043 551.108 255.813C551.108 255.583 551.338 255.353 551.568 255.353H555.647C555.876 255.353 556.106 255.583 556.106 255.813Z" fill="#888888"/>
<path d="M555.638 256.675H551.56C551.1 256.675 550.698 256.273 550.698 255.813C550.698 255.354 551.1 254.952 551.56 254.952H555.638C556.098 254.952 556.5 255.354 556.5 255.813C556.5 256.273 556.098 256.675 555.638 256.675ZM551.502 255.756C551.502 255.756 551.502 255.813 551.502 255.756C551.445 255.813 551.502 255.871 551.502 255.871H555.581C555.581 255.871 555.638 255.871 555.638 255.813C555.638 255.756 555.638 255.756 555.581 255.756H551.502Z" fill="#888888"/>
<path d="M3.70517 108.522C3.47538 108.522 3.24561 108.292 3.24561 108.062V103.984C3.24561 103.754 3.47538 103.524 3.70517 103.524C3.93495 103.524 4.16473 103.754 4.16473 103.984V108.062C4.16473 108.292 3.93495 108.522 3.70517 108.522Z" fill="#888888"/>
<path d="M3.69725 108.925C3.23769 108.925 2.83557 108.522 2.83557 108.063V103.984C2.83557 103.525 3.23769 103.123 3.69725 103.123C4.15681 103.123 4.55893 103.525 4.55893 103.984V108.063C4.55893 108.522 4.15681 108.925 3.69725 108.925ZM3.69725 103.927C3.63981 103.927 3.69725 103.927 3.69725 103.927L3.63981 108.063C3.63981 108.12 3.7547 108.12 3.7547 108.063L3.69725 103.927C3.7547 103.927 3.69725 103.927 3.69725 103.927Z" fill="#888888"/>
<path d="M6.22688 105.994C6.22688 106.223 5.9971 106.453 5.76732 106.453H1.68869C1.45891 106.453 1.22913 106.223 1.22913 105.994C1.22913 105.764 1.45891 105.534 1.68869 105.534H5.76732C5.9971 105.534 6.22688 105.764 6.22688 105.994Z" fill="#888888"/>
<path d="M5.7594 106.855H1.68077C1.22121 106.855 0.819092 106.453 0.819092 105.994C0.819092 105.534 1.22121 105.132 1.68077 105.132H5.7594C6.21897 105.132 6.62109 105.534 6.62109 105.994C6.62109 106.511 6.21897 106.855 5.7594 106.855ZM1.62333 105.994C1.56588 105.994 1.62333 105.994 1.62333 105.994C1.56588 106.051 1.62333 106.109 1.62333 106.109H5.70195C5.70195 106.109 5.7594 106.109 5.7594 106.051C5.7594 105.994 5.7594 105.994 5.70195 105.994H1.62333Z" fill="#888888"/>
<path d="M67.8861 204.399C67.6563 204.399 67.4265 204.17 67.4265 203.94V199.861C67.4265 199.631 67.6563 199.402 67.8861 199.402C68.1159 199.402 68.3456 199.631 68.3456 199.861V203.94C68.3456 204.17 68.1159 204.399 67.8861 204.399Z" fill="#888888"/>
<path d="M67.8782 204.802C67.4186 204.802 67.0165 204.4 67.0165 203.94V199.862C67.0165 199.402 67.4186 199 67.8782 199C68.3377 199 68.7398 199.402 68.7398 199.862V203.94C68.7398 204.4 68.3377 204.802 67.8782 204.802ZM67.8782 199.804C67.8207 199.804 67.8782 199.804 67.8782 199.804L67.8207 203.94C67.8207 203.998 67.9356 203.998 67.9356 203.94L67.8782 199.804C67.9356 199.804 67.8782 199.804 67.8782 199.804Z" fill="#888888"/>
<path d="M70.4078 201.871C70.4078 202.101 70.178 202.331 69.9482 202.331H65.8696C65.6398 202.331 65.41 202.101 65.41 201.871C65.41 201.641 65.6398 201.411 65.8696 201.411H69.9482C70.178 201.411 70.4078 201.641 70.4078 201.871Z" fill="#888888"/>
<path d="M69.9403 202.733H65.8617C65.4021 202.733 65 202.331 65 201.871C65 201.412 65.4021 201.01 65.8617 201.01H69.9403C70.3999 201.01 70.802 201.412 70.802 201.871C70.802 202.388 70.3999 202.733 69.9403 202.733ZM65.8042 201.871C65.7468 201.871 65.8042 201.871 65.8042 201.871C65.7468 201.929 65.8042 201.986 65.8042 201.986H69.8829C69.8829 201.986 69.9403 201.986 69.9403 201.929C69.9403 201.871 69.9403 201.871 69.8829 201.871H65.8042Z" fill="#888888"/>
<path d="M514.915 88.9933C514.685 88.9933 514.456 88.7635 514.456 88.5337V84.4552C514.456 84.2254 514.685 83.9956 514.915 83.9956C515.145 83.9956 515.375 84.2254 515.375 84.4552V88.5337C515.375 88.821 515.145 88.9933 514.915 88.9933Z" fill="#888888"/>
<path d="M514.906 89.3959C514.447 89.3959 514.045 88.9938 514.045 88.5342V84.4557C514.045 83.9961 514.447 83.594 514.906 83.594C515.366 83.594 515.768 83.9961 515.768 84.4557V88.5342C515.768 89.0512 515.366 89.3959 514.906 89.3959ZM514.906 84.3982C514.849 84.3982 514.906 84.3982 514.906 84.3982L514.849 88.5342C514.849 88.5917 514.964 88.5917 514.964 88.5342L514.906 84.3982C514.964 84.3982 514.906 84.3982 514.906 84.3982Z" fill="#888888"/>
<path d="M517.439 86.5216C517.439 86.7513 517.209 86.9811 516.979 86.9811H512.843C512.613 86.9811 512.383 86.7513 512.383 86.5216C512.383 86.2918 512.613 86.062 512.843 86.062H516.922C517.209 86.062 517.439 86.2343 517.439 86.5216Z" fill="#888888"/>
<path d="M516.972 87.3835H512.835C512.376 87.3835 511.974 86.9814 511.974 86.5219C511.974 86.0623 512.376 85.6602 512.835 85.6602H516.914C517.374 85.6602 517.776 86.0623 517.776 86.5219C517.833 86.9814 517.431 87.3835 516.972 87.3835ZM512.835 86.4644C512.778 86.4644 512.835 86.4644 512.835 86.4644C512.778 86.5219 512.835 86.5793 512.835 86.5793H516.914C516.914 86.5793 516.972 86.5793 516.972 86.5219C516.972 86.5219 516.972 86.4644 516.914 86.4644H512.835Z" fill="#888888"/>
<path d="M473.026 240.315H411.157C406.677 240.315 403 236.638 403 232.157C403 227.677 406.677 224 411.157 224H473.026C477.507 224 481.183 227.677 481.183 232.157C481.183 236.638 477.507 240.315 473.026 240.315ZM411.157 225.608C407.538 225.608 404.608 228.538 404.608 232.157C404.608 235.776 407.538 238.706 411.157 238.706H473.026C476.645 238.706 479.575 235.776 479.575 232.157C479.575 228.538 476.645 225.608 473.026 225.608H411.157Z" fill="#888888"/>
<path d="M415.466 234.116C416.957 234.116 418.166 232.907 418.166 231.416C418.166 229.925 416.957 228.716 415.466 228.716C413.975 228.716 412.766 229.925 412.766 231.416C412.766 232.907 413.975 234.116 415.466 234.116Z" fill="white"/>
<path d="M415.467 234.919C413.513 234.919 411.962 233.367 411.962 231.414C411.962 229.461 413.513 227.91 415.467 227.91C417.42 227.91 418.971 229.461 418.971 231.414C418.971 233.367 417.362 234.919 415.467 234.919ZM415.467 229.519C414.433 229.519 413.571 230.38 413.571 231.414C413.571 232.448 414.433 233.31 415.467 233.31C416.501 233.31 417.362 232.448 417.362 231.414C417.362 230.38 416.501 229.519 415.467 229.519Z" fill="#888888"/>
<path d="M419.483 236.412C419.253 236.412 419.081 236.355 418.909 236.183L416.668 233.942C416.324 233.597 416.324 233.08 416.668 232.793C417.013 232.448 417.53 232.448 417.817 232.793L420.058 235.034C420.402 235.378 420.402 235.895 420.058 236.183C419.885 236.355 419.713 236.412 419.483 236.412Z" fill="#888888"/>
<path d="M341.221 204.154C294.346 204.154 256.145 166.01 256.145 119.077C256.145 72.1443 294.346 34.0005 341.221 34.0005C388.097 34.0005 426.298 72.1443 426.298 119.077C426.298 166.01 388.154 204.154 341.221 204.154ZM341.221 35.6664C295.265 35.6664 257.811 73.0634 257.811 119.077C257.811 165.091 295.208 202.488 341.221 202.488C387.235 202.488 424.632 165.091 424.632 119.077C424.632 73.0634 387.235 35.6664 341.221 35.6664Z" fill="#888888"/>
<path d="M395.417 174.507C425.002 144.922 425.002 96.9562 395.417 67.3717C365.833 37.7873 317.867 37.7873 288.283 67.3717C258.698 96.9562 258.698 144.922 288.283 174.507C317.867 204.091 365.833 204.091 395.417 174.507Z" fill="#C5C8FB"/>
<path d="M318.305 200.936C297.395 180.83 285.389 151.016 285.389 119.076C285.389 87.1941 297.395 57.3225 318.305 37.2166L319.454 38.3655C298.831 58.1841 287.055 87.5962 287.055 119.019C287.055 150.499 298.889 179.911 319.454 199.672L318.305 200.936Z" fill="black"/>
<path d="M364.204 200.942L363.055 199.793C383.678 179.974 395.454 150.562 395.454 119.139C395.454 87.6594 383.621 58.2473 363.055 38.4861L364.204 37.3372C385.114 57.4431 397.12 87.2573 397.12 119.197C397.12 150.964 385.114 180.836 364.204 200.942Z" fill="black"/>
<path d="M341.288 174.913C309.406 174.913 279.534 162.907 259.428 141.997L260.577 140.848C280.396 161.471 309.808 173.247 341.231 173.247C372.711 173.247 402.123 161.414 421.884 140.848L423.033 141.997C402.984 162.965 373.17 174.913 341.288 174.913Z" fill="black"/>
<path d="M421.938 97.2448C402.12 76.6219 372.708 64.8456 341.285 64.8456C309.805 64.8456 280.393 76.6794 260.631 97.2448L259.483 96.0959C279.588 75.1858 309.403 63.1797 341.342 63.1797C373.225 63.1797 403.096 75.1858 423.202 96.0959L421.938 97.2448Z" fill="black"/>
<path d="M425.505 118.271H257.018V119.879H425.505V118.271Z" fill="black"/>
<path d="M342.025 34.8599H340.417V203.347H342.025V34.8599Z" fill="black"/>
<path fill-rule="evenodd" clip-rule="evenodd" d="M198.812 53.5881C194.281 57.2982 191.036 61.0275 190.005 63.9442L188.886 63.5493C190.033 60.3062 193.503 56.4026 198.059 52.6711C202.641 48.9184 208.413 45.2667 214.289 42.5487C220.155 39.8352 226.178 38.0279 231.253 38.0188C236.349 38.0098 240.593 39.8276 242.626 44.4603C245.003 49.8725 242.754 55.5641 239.335 60.6062C236.754 64.4123 233.414 67.9765 230.668 70.9071C229.77 71.8654 228.935 72.756 228.212 73.5651C227.787 74.0402 227.27 74.5974 226.69 75.2224C224.461 77.6249 221.303 81.0281 218.884 84.6129C217.361 86.8695 216.167 89.1499 215.679 91.2501C215.195 93.3357 215.417 95.1849 216.643 96.6907L216.643 96.6914C218.258 98.681 221.102 99.472 223.796 99.2281C226.494 98.9839 229.047 97.8537 231.61 96.658L231.61 96.658C233.636 95.7134 235.698 94.5749 237.818 93.4044C238.081 93.2593 238.344 93.1137 238.609 92.9679C241 91.6511 243.46 90.323 245.975 89.2457C251.007 87.0903 256.335 85.9045 261.902 87.8373L261.513 88.9573C256.348 87.1641 251.352 88.2326 246.443 90.3354C243.987 91.3871 241.573 92.6891 239.182 94.0062C238.918 94.1516 238.655 94.2971 238.391 94.4426C236.276 95.6102 234.177 96.7695 232.112 97.7324C229.566 98.92 226.836 100.143 223.903 100.409C220.966 100.675 217.668 99.8358 215.722 97.4385C214.196 95.5637 213.984 93.3024 214.523 90.9821C215.058 88.6763 216.344 86.2555 217.9 83.9501C220.377 80.2786 223.626 76.778 225.854 74.3786C226.421 73.7675 226.922 73.2279 227.327 72.7751L227.327 72.775C228.082 71.9301 228.94 71.0148 229.854 70.0396C232.589 67.1197 235.829 63.6617 238.352 59.9412C241.724 54.9694 243.655 49.7541 241.539 44.9367L241.539 44.9365C239.759 40.8811 236.062 39.196 231.255 39.2045C226.425 39.2131 220.583 40.944 214.787 43.6247C209.002 46.3008 203.316 49.8992 198.812 53.5881Z" fill="#888888" fill-opacity="0.533333"/>
<path fill-rule="evenodd" clip-rule="evenodd" d="M159.653 60.8214C152.308 61.5582 146.828 66.5948 144.04 71.9015C142.64 74.5659 141.723 77.3634 140.822 80.22C140.76 80.4164 140.699 80.6131 140.637 80.8101C139.802 83.4641 138.953 86.1651 137.719 88.7753C135.056 94.4111 129.876 99.9932 122.184 101.401L122.184 101.401C111.618 103.333 103.818 98.4476 96.2916 93.2961C95.8573 92.9988 95.4239 92.7007 94.991 92.4029C87.873 87.5067 80.8796 82.6962 71.7027 82.9078C67.5203 83.0046 63.4181 84.2845 60.0828 86.3054C56.7421 88.3295 54.2147 91.0687 53.1135 94.0512L52 93.6408C53.2191 90.3391 55.9673 87.4122 59.4673 85.2915C62.9728 83.1676 67.2766 81.8242 71.6752 81.7224H71.6752C81.2501 81.5016 88.5472 86.5258 95.6006 91.3821C96.0554 91.6953 96.5091 92.0077 96.9624 92.318C104.496 97.4746 111.927 102.071 121.97 100.235C129.179 98.9154 134.093 93.6721 136.646 88.2691C137.843 85.7354 138.67 83.1083 139.509 80.4389C139.569 80.2474 139.63 80.0557 139.69 79.8638C140.59 77.0105 141.534 74.1196 142.989 71.3505C145.91 65.7904 151.693 60.4283 159.534 59.6416L159.653 60.8214Z" fill="#888888" fill-opacity="0.533333"/>
<path fill-rule="evenodd" clip-rule="evenodd" d="M170.798 38.1663L132.407 45.3748C132.656 49.0919 131.64 52.7858 129.521 55.8548C127.404 58.9218 124.311 61.182 120.747 62.2705L124.199 80.6211C126.116 90.9416 131.331 100.363 139.061 107.472L139.063 107.474C146.605 114.465 156.143 118.931 166.347 120.249C175.387 115.323 182.661 107.698 187.151 98.44L187.152 98.4376C191.777 89.0114 193.217 78.3414 191.256 68.0284L191.256 68.0274L187.804 49.6894C184.087 49.9669 180.384 48.9817 177.296 46.891C174.205 44.7982 171.915 41.7226 170.798 38.1663ZM188.356 49.415L188.935 49.2871C188.883 49.0493 188.746 48.8383 188.551 48.6928C188.355 48.5473 188.114 48.4769 187.871 48.4947L187.864 48.4952C184.364 48.7907 180.869 47.878 177.962 45.9095C175.056 43.9421 172.913 41.0391 171.891 37.6846C171.822 37.4434 171.665 37.2365 171.451 37.1046C171.236 36.9717 170.978 36.9246 170.729 36.9728C170.728 36.973 170.727 36.9732 170.726 36.9734L132.022 44.2407C132.017 44.2416 132.012 44.2425 132.008 44.2435C131.763 44.2955 131.547 44.4362 131.401 44.6384C131.257 44.8374 131.19 45.0822 131.214 45.3265C131.477 48.8197 130.535 52.2978 128.544 55.1816C126.552 58.0669 123.63 60.1829 120.266 61.177C120.024 61.2466 119.817 61.4035 119.685 61.6173C119.553 61.832 119.505 62.0884 119.552 62.3363C119.552 62.3366 119.552 62.3369 119.552 62.3373L123.032 80.8374C123.032 80.8376 123.032 80.8378 123.032 80.838C124.996 91.4101 130.338 101.061 138.257 108.344C145.995 115.517 155.785 120.093 166.255 121.432C166.262 121.433 166.268 121.434 166.274 121.435C166.473 121.453 166.672 121.415 166.85 121.325C166.854 121.323 166.859 121.32 166.864 121.318C176.144 116.275 183.612 108.456 188.219 98.9581C192.955 89.3019 194.43 78.3717 192.422 67.8072L188.939 49.3054L188.356 49.415ZM120.718 62.1156C120.718 62.116 120.718 62.1165 120.718 62.1169L120.718 62.1156Z" fill="#888888" fill-opacity="0.533333"/>
<path d="M188.356 49.4151L191.84 67.9179C193.824 78.357 192.366 89.1573 187.686 98.6986C183.132 108.085 175.752 115.813 166.58 120.797C166.503 120.836 166.417 120.853 166.331 120.844C155.983 119.521 146.307 114.998 138.659 107.909C130.835 100.713 125.556 91.176 123.616 80.7294L120.136 62.2266C120.116 62.124 120.136 62.0178 120.191 61.9289C120.245 61.84 120.332 61.7749 120.432 61.7464C123.928 60.7141 126.963 58.5159 129.033 55.5184C131.103 52.5208 132.081 48.9051 131.805 45.2741C131.794 45.1719 131.821 45.0693 131.882 44.9861C131.942 44.9029 132.031 44.8449 132.132 44.8235L170.841 37.5552C170.944 37.535 171.05 37.5543 171.14 37.6092C171.229 37.6642 171.294 37.7508 171.322 37.8516C172.383 41.3383 174.609 44.3558 177.629 46.4004C180.649 48.445 184.279 49.393 187.914 49.0861C188.015 49.0787 188.115 49.1079 188.196 49.1684C188.278 49.2288 188.334 49.3164 188.356 49.4151Z" fill="white"/>
<path d="M165.266 113.867C165.204 113.901 165.132 113.914 165.062 113.906C156.51 112.82 148.513 109.089 142.191 103.234C135.723 97.2918 131.36 89.4122 129.758 80.7802L126.883 65.4995C126.867 65.4145 126.884 65.3267 126.929 65.2533C126.975 65.1798 127.046 65.1259 127.13 65.1023C130.016 64.2494 132.522 62.4339 134.231 59.9586C135.94 57.4833 136.748 54.4977 136.521 51.4994C136.513 51.4141 136.538 51.3291 136.589 51.2607C136.64 51.1923 136.715 51.1454 136.8 51.1289L151.27 48.4106L152.505 48.5707L165.266 113.867Z" fill="#5D42D1"/>
<path d="M182.695 95.6251C178.934 103.376 172.84 109.756 165.266 113.873C165.204 113.906 165.132 113.92 165.062 113.911C156.51 112.826 148.513 109.095 142.191 103.24C135.721 97.2961 131.359 89.4143 129.759 80.7801L126.883 65.4995C126.867 65.4145 126.884 65.3267 126.929 65.2532C126.975 65.1797 127.046 65.1259 127.13 65.1022C130.016 64.2493 132.522 62.4339 134.231 59.9586C135.94 57.4833 136.748 54.4977 136.521 51.4993C136.513 51.4141 136.538 51.3291 136.589 51.2607C136.64 51.1923 136.715 51.1453 136.8 51.1288L151.27 48.4106L168.776 45.1262C168.861 45.1109 168.948 45.1272 169.022 45.172C169.095 45.2169 169.149 45.2871 169.174 45.3693C170.051 48.2464 171.889 50.736 174.382 52.4229C176.874 54.1097 179.871 54.8917 182.87 54.6385C182.959 54.6308 183.047 54.6572 183.116 54.7123C183.186 54.7674 183.232 54.8471 183.244 54.9349L186.119 70.2156C187.758 78.8325 186.557 87.748 182.695 95.6251Z" fill="#6F4AE7"/>
<path fill-rule="evenodd" clip-rule="evenodd" d="M168.993 67.4656C168.693 67.4235 168.388 67.4419 168.095 67.5195C167.803 67.5971 167.528 67.7325 167.289 67.9176C167.049 68.1027 166.849 68.3339 166.7 68.5975C166.692 68.6116 166.684 68.6256 166.675 68.6393L157.284 83.333L156.534 82.8545L157.28 83.34C157.097 83.62 156.811 83.8162 156.484 83.8857C156.158 83.955 155.818 83.8927 155.537 83.7127L150.853 80.7283C150.602 80.5682 150.323 80.4589 150.03 80.4069C149.737 80.3549 149.436 80.361 149.146 80.4251C148.855 80.4891 148.58 80.6097 148.336 80.78C148.092 80.9504 147.884 81.167 147.724 81.4177C147.721 81.4228 147.718 81.4278 147.715 81.4328L147.667 81.5046C147.347 82.0102 147.24 82.6216 147.369 83.2058C147.499 83.7926 147.857 84.3039 148.364 84.6274C148.364 84.6273 148.364 84.6274 148.364 84.6274L156.022 89.5099C156.273 89.6702 156.554 89.7795 156.847 89.8316C157.14 89.8836 157.441 89.8775 157.731 89.8134C158.022 89.7494 158.298 89.6287 158.542 89.4583C158.786 89.2879 158.994 89.0711 159.154 88.8203L170.498 71.0732C170.505 71.0616 170.513 71.0502 170.521 71.039C170.537 71.0167 170.554 70.9887 170.589 70.931C170.6 70.9144 170.61 70.8983 170.621 70.8826C170.769 70.6372 170.87 70.3658 170.917 70.0828C170.966 69.7843 170.956 69.4789 170.885 69.1846C170.815 68.8903 170.687 68.613 170.507 68.3691C170.328 68.1252 170.102 67.9197 169.842 67.7645C169.582 67.6093 169.293 67.5077 168.993 67.4656ZM171.989 72.0456L160.655 89.7772C160.369 90.225 159.997 90.612 159.561 90.9163C159.126 91.2205 158.634 91.436 158.115 91.5503C157.595 91.6646 157.059 91.6756 156.535 91.5826C156.012 91.4897 155.512 91.2947 155.064 91.0088M155.064 91.0084L147.406 86.1267C146.501 85.5495 145.862 84.6369 145.631 83.5897C145.399 82.5425 145.593 81.4461 146.17 80.5417C146.173 80.5365 146.176 80.5314 146.18 80.5263L146.229 80.4533C146.514 80.009 146.883 79.6248 147.316 79.3224C147.752 79.0181 148.243 78.8026 148.762 78.6883C149.281 78.5739 149.818 78.5629 150.341 78.6558C150.864 78.7488 151.364 78.9438 151.812 79.2299C151.812 79.2298 151.812 79.2299 151.812 79.2299L156.063 81.9385L165.162 67.7014C165.427 67.2405 165.779 66.8359 166.2 66.5108C166.627 66.1805 167.116 65.939 167.639 65.8005C168.161 65.6619 168.706 65.6293 169.241 65.7044C169.776 65.7794 170.291 65.9608 170.755 66.2376C171.219 66.5145 171.622 66.8813 171.942 67.3165C172.262 67.7517 172.492 68.2464 172.617 68.7716C172.743 69.2967 172.762 69.8416 172.673 70.3742C172.585 70.9068 172.39 71.4163 172.102 71.8727C172.094 71.8842 172.087 71.8955 172.079 71.9065C172.054 71.9468 172.023 71.9958 171.989 72.0456" fill="white"/>
<path d="M171.35 71.3948C171.318 71.4482 171.285 71.5015 171.25 71.5519L159.906 89.2988C159.683 89.6481 159.393 89.9501 159.053 90.1874C158.713 90.4247 158.33 90.5928 157.924 90.682C157.519 90.7712 157.101 90.7797 156.692 90.7072C156.284 90.6347 155.894 90.4825 155.544 90.2592L147.886 85.3771C147.18 84.9268 146.682 84.2149 146.501 83.3978C146.32 82.5808 146.472 81.7254 146.922 81.0197L146.975 80.9397C147.198 80.5905 147.488 80.2886 147.828 80.0513C148.167 79.814 148.551 79.646 148.955 79.5568C149.36 79.4676 149.779 79.459 150.187 79.5315C150.595 79.604 150.985 79.7561 151.334 79.9793L156.019 82.9643C156.102 83.0179 156.203 83.0365 156.3 83.016C156.397 82.9954 156.481 82.9374 156.535 82.8546L165.926 68.1608C166.134 67.7939 166.412 67.4721 166.746 67.2144C167.079 66.9566 167.461 66.7682 167.868 66.6601C168.276 66.552 168.701 66.5265 169.119 66.5851C169.536 66.6437 169.938 66.7852 170.3 67.0012C170.662 67.2172 170.977 67.5034 171.226 67.843C171.476 68.1825 171.655 68.5685 171.753 68.9782C171.851 69.3879 171.865 69.8131 171.796 70.2286C171.727 70.6442 171.576 71.0417 171.35 71.3978V71.3948Z" fill="white"/>
<path d="M396.49 62.329C400.853 62.329 404.389 58.7962 404.389 54.4382C404.389 50.0802 400.853 46.5474 396.49 46.5474C392.128 46.5474 388.592 50.0802 388.592 54.4382C388.592 58.7962 392.128 62.329 396.49 62.329Z" fill="#AD79FF"/>
<path fill-rule="evenodd" clip-rule="evenodd" d="M396.492 47.14C392.457 47.14 389.187 50.4075 389.187 54.438C389.187 58.4686 392.457 61.736 396.492 61.736C400.526 61.736 403.797 58.4686 403.797 54.438C403.797 50.4075 400.526 47.14 396.492 47.14ZM388 54.438C388 49.7526 391.802 45.9543 396.492 45.9543C401.182 45.9543 404.984 49.7526 404.984 54.438C404.984 59.1234 401.182 62.9217 396.492 62.9217C391.802 62.9217 388 59.1234 388 54.438Z" fill="black"/>
<path d="M395.49 126.328C399.853 126.328 403.389 122.796 403.389 118.438C403.389 114.08 399.853 110.547 395.49 110.547C391.128 110.547 387.592 114.08 387.592 118.438C387.592 122.796 391.128 126.328 395.49 126.328Z" fill="#6F4AE7"/>
<path fill-rule="evenodd" clip-rule="evenodd" d="M395.492 111.14C391.457 111.14 388.187 114.407 388.187 118.438C388.187 122.469 391.457 125.736 395.492 125.736C399.526 125.736 402.797 122.469 402.797 118.438C402.797 114.407 399.526 111.14 395.492 111.14ZM387 118.438C387 113.753 390.802 109.954 395.492 109.954C400.182 109.954 403.984 113.753 403.984 118.438C403.984 123.123 400.182 126.922 395.492 126.922C390.802 126.922 387 123.123 387 118.438Z" fill="black"/>
<path d="M325.781 92.422C325.781 95.0645 325.035 97.4772 323.656 99.4878L323.541 99.6602L314.579 112.7C313.89 113.734 312.339 113.734 311.65 112.643L302.976 99.3729L302.861 99.2006C301.597 97.2475 300.85 94.8922 300.908 92.3646C300.965 85.4712 306.709 79.8989 313.66 80.0713C320.324 80.3011 325.724 85.7584 325.781 92.422Z" fill="#6A45E3"/>
<path d="M313.145 114.306C313.088 114.306 313.145 114.306 313.145 114.306C312.226 114.306 311.479 113.847 310.962 113.157L302.173 99.7152C300.795 97.5322 300.048 95.0046 300.048 92.4196C300.105 88.858 301.541 85.5261 304.126 83.056C306.711 80.5858 310.101 79.2646 313.662 79.3795C320.728 79.5518 326.53 85.4687 326.588 92.477C326.588 95.177 325.841 97.762 324.347 100.002L324.232 100.175L315.271 113.157C314.754 113.847 314.007 114.306 313.145 114.306ZM313.375 80.9305C310.33 80.9305 307.516 82.0794 305.333 84.2049C303.092 86.3878 301.829 89.3175 301.771 92.4196C301.771 94.7174 302.403 96.9003 303.609 98.8535L312.341 112.296C312.513 112.583 312.801 112.698 313.145 112.698C313.433 112.698 313.777 112.525 313.95 112.296L323.026 99.0833C324.347 97.1301 325.037 94.8323 324.979 92.477C324.922 86.2729 319.866 81.1028 313.662 80.9879C313.547 80.9305 313.433 80.9305 313.375 80.9305Z" fill="#2B2A33"/>
<path d="M314.035 97.1882C316.611 96.8279 318.408 94.4471 318.048 91.8705C317.687 89.2939 315.307 87.4973 312.73 87.8576C310.153 88.2179 308.357 90.5987 308.717 93.1753C309.077 95.7519 311.458 97.5485 314.035 97.1882Z" fill="#2B2A33"/>
<path d="M313.366 98.0508H313.309C310.264 97.9933 307.794 95.5232 307.852 92.4786C307.909 89.4339 310.379 87.0212 313.366 87.0212H313.424C316.468 87.0787 318.939 89.5488 318.881 92.5934C318.824 95.6381 316.354 98.0508 313.366 98.0508ZM313.366 88.6297C311.241 88.6297 309.518 90.3531 309.46 92.4786C309.46 94.604 311.184 96.3849 313.309 96.3849H313.366C315.492 96.3849 317.215 94.6615 317.273 92.536C317.273 90.468 315.549 88.6872 313.366 88.6297Z" fill="#2B2A33"/>
<path d="M357.708 260.846C359.288 260.846 360.803 260.215 361.92 259.092C363.037 257.97 363.664 256.447 363.664 254.859V145.049C363.664 143.461 363.037 141.938 361.92 140.815C360.803 139.692 359.288 139.062 357.708 139.062H175.838C174.258 139.062 172.743 139.692 171.626 140.815C170.509 141.938 169.882 143.461 169.882 145.049V254.859C169.882 256.447 170.509 257.97 171.626 259.092C172.743 260.215 174.258 260.846 175.838 260.846" fill="white"/>
<path d="M357.458 261.612C359.306 261.612 361.077 260.876 362.384 259.566C363.691 258.256 364.426 256.479 364.428 254.626V144.265H363.39V145.291H364.42C364.42 143.435 363.686 141.656 362.379 140.345C361.072 139.033 359.299 138.296 357.45 138.296H176.084C174.235 138.296 172.462 139.033 171.155 140.345C169.848 141.656 169.114 143.435 169.114 145.291V254.626C169.114 255.544 169.294 256.453 169.644 257.301C169.995 258.149 170.508 258.92 171.156 259.569C171.803 260.218 172.571 260.732 173.417 261.083C174.263 261.433 175.169 261.613 176.084 261.612V259.553C174.781 259.553 173.531 259.034 172.609 258.11C171.687 257.186 171.168 255.933 171.166 254.626V145.291C171.17 143.983 171.689 142.73 172.611 141.805C173.532 140.881 174.781 140.359 176.084 140.355H357.45C358.753 140.359 360.002 140.881 360.923 141.805C361.845 142.73 362.364 143.983 362.368 145.291V146.324V254.626C362.366 255.933 361.847 257.186 360.925 258.11C360.003 259.034 358.753 259.553 357.45 259.553V261.612H357.458Z" fill="#2B2A33"/>
<path d="M136.171 289.951V293.93C136.173 295.108 136.616 296.238 137.402 297.071C138.188 297.905 139.254 298.374 140.365 298.376H393.936C395.047 298.374 396.112 297.904 396.896 297.071C397.681 296.237 398.122 295.108 398.122 293.93V289.951" fill="white"/>
<path d="M135.404 289.952V293.797C135.404 295.215 135.953 296.575 136.93 297.577C137.906 298.58 139.231 299.143 140.613 299.143H393.679C395.06 299.143 396.385 298.58 397.362 297.577C398.338 296.575 398.887 295.215 398.887 293.797V289.952H396.834V293.797C396.824 294.653 396.488 295.471 395.898 296.076C395.309 296.681 394.512 297.025 393.679 297.036H140.613C139.772 297.036 138.965 296.696 138.367 296.09C137.769 295.484 137.428 294.66 137.417 293.797V289.952H135.404Z" fill="#2B2A33"/>
<path d="M394.93 293.016C395.588 293.014 396.229 292.814 396.767 292.442C397.304 292.07 397.712 291.544 397.934 290.937C398.156 290.33 398.182 289.67 398.009 289.048C397.835 288.426 397.47 287.871 396.963 287.46L364.939 261.561C364.366 261.099 363.647 260.847 362.906 260.847H171.387C170.646 260.847 169.927 261.099 169.354 261.561L137.33 287.46C136.823 287.871 136.458 288.426 136.285 289.048C136.111 289.67 136.137 290.33 136.359 290.937C136.581 291.544 136.989 292.07 137.526 292.442C138.064 292.814 138.705 293.014 139.364 293.016H394.93Z" fill="white"/>
<path d="M394.661 292.753V293.773C395.261 293.777 395.855 293.653 396.403 293.41C397.16 293.078 397.798 292.526 398.232 291.827C398.659 291.151 398.886 290.37 398.887 289.573C398.887 288.983 398.759 288.4 398.512 287.864C398.241 287.288 397.842 286.779 397.345 286.377L365.389 260.271C364.632 259.655 363.684 259.317 362.704 259.314H171.587C170.607 259.317 169.659 259.655 168.903 260.271L136.946 286.377C136.449 286.779 136.05 287.288 135.78 287.864C135.532 288.4 135.404 288.983 135.404 289.573C135.405 290.646 135.813 291.679 136.546 292.468C136.941 292.886 137.419 293.218 137.95 293.444C138.48 293.67 139.053 293.785 139.63 293.781H394.661V291.748H139.614C139.304 291.751 138.996 291.689 138.712 291.566C138.331 291.398 138.009 291.123 137.785 290.775C137.562 290.419 137.443 290.008 137.441 289.589C137.443 289.292 137.505 288.999 137.625 288.726C137.765 288.421 137.972 288.15 138.232 287.935L170.189 261.83C170.575 261.513 171.061 261.339 171.563 261.339H362.688C363.19 261.34 363.676 261.514 364.062 261.83L396.019 287.935C396.282 288.148 396.49 288.419 396.626 288.726C396.752 288.997 396.817 289.291 396.818 289.589C396.817 290.149 396.603 290.688 396.219 291.1C396.032 291.306 395.804 291.47 395.548 291.582C395.263 291.703 394.955 291.765 394.645 291.764L394.661 292.753Z" fill="#2B2A33"/>
<path d="M266.928 281.525H356.751L342.134 264.675H266.928H266.577H191.371L176.755 281.525H266.577H266.928Z" fill="white"/>
<path d="M266.527 282.029V283.057H356.449C356.65 283.065 356.85 283.014 357.022 282.909C357.194 282.805 357.332 282.652 357.417 282.469C357.503 282.287 357.532 282.084 357.502 281.885C357.472 281.686 357.383 281.5 357.248 281.351L342.609 265.018C342.515 264.91 342.399 264.823 342.268 264.764C342.136 264.705 341.994 264.675 341.85 264.675H190.915C190.765 264.67 190.615 264.699 190.477 264.758C190.339 264.817 190.216 264.906 190.116 265.018L175.486 281.351C175.352 281.498 175.264 281.68 175.233 281.875C175.202 282.07 175.228 282.271 175.31 282.451C175.392 282.63 175.524 282.782 175.689 282.889C175.855 282.997 176.048 283.055 176.245 283.057H266.527V281.009H178.578L191.363 266.723H341.339L354.123 281.009H266.527V282.029Z" fill="#2B2A33"/>
<path d="M352.948 147.487H180.611V253.187H352.948V147.487Z" fill="white"/>
<path d="M352.668 253.695H353.695V146.989C353.693 146.716 353.584 146.454 353.392 146.261C353.2 146.068 352.94 145.958 352.668 145.956H180.846C180.576 145.96 180.318 146.071 180.127 146.264C179.937 146.457 179.829 146.717 179.827 146.989V253.695C179.827 253.967 179.934 254.227 180.125 254.419C180.317 254.612 180.576 254.719 180.846 254.719H352.668C352.938 254.717 353.198 254.611 353.393 254.423C353.584 254.229 353.693 253.968 353.695 253.695H352.668V252.662H181.873V148.021H351.649V253.695H352.668Z" fill="#2B2A33"/>
<path d="M359.331 273.102H351.511L358.063 280.986C358.199 281.148 358.288 281.348 358.318 281.564C358.349 281.779 358.319 281.999 358.233 282.197C358.147 282.394 358.009 282.56 357.836 282.673C357.663 282.786 357.462 282.841 357.26 282.832H198.298L193.61 287.655H373.605L359.331 273.119" fill="#C3C4FD"/>
<path d="M348.231 273.102H283.495H283.143H207.847L200.502 280.761H266.373H266.725H354.455L348.231 273.102Z" fill="#C3C4FD"/>
<path d="M350.712 273.102H347.955L354.173 280.79H200.383L198.217 283.058H356.467C356.668 283.067 356.868 283.01 357.04 282.895C357.213 282.779 357.35 282.609 357.436 282.407C357.521 282.206 357.551 281.98 357.521 281.76C357.49 281.54 357.402 281.334 357.266 281.169L350.744 273.102" fill="#2B2A33"/>
<path d="M359.292 273.102H350.959L351.327 273.517H359.124L373.356 287.231H283.801H283.448H193.893L198.6 282.698H198L192.861 287.655H283.448H283.801H374.388L359.292 273.102Z" fill="#C3C5FD"/>
<path d="M347.961 273.102H283.812H283.461H208.26L200.502 280.761H201.1L208.42 273.525H283.461H283.812H348.328L347.961 273.102Z" fill="#C3C5FD"/>
<path d="M200.984 280.889H200.384L198.217 283.059H198.816L200.984 280.889ZM351.037 273.102H348.278L348.645 273.533H351.405L351.037 273.102Z" fill="black"/>
</svg>
