<svg width="557" height="300" fill="none" xmlns="http://www.w3.org/2000/svg"><path d="M461.598 171.197h-65.545c1.091-6.319 6.606-11.087 13.27-11.087h.517c3.332-5.917 9.651-9.881 16.889-9.881 8.789 0 16.199 5.86 18.555 13.845a9.553 9.553 0 0 1 6.548-2.585c5.4 0 9.766 4.365 9.766 9.708Z" fill="#6F4AE7"/><path d="M553.427 258.339c-.23 0-.459-.23-.459-.46V253.8c0-.229.229-.459.459-.459s.46.23.46.459v4.079c0 .23-.173.46-.46.46Z" fill="#888"/><path d="M553.418 258.741a.883.883 0 0 1-.862-.861v-4.079c0-.46.402-.862.862-.862.46 0 .862.402.862.862v4.079a.883.883 0 0 1-.862.861Zm0-4.998c-.057 0 0 0 0 0l-.057 4.137c0 .057.114.057.114 0l-.057-4.137c.057 0 .057 0 0 0Z" fill="#888"/><path d="M555.946 255.813c0 .23-.229.459-.459.459h-4.079c-.23 0-.46-.229-.46-.459s.23-.46.46-.46h4.079c.23 0 .459.23.459.46Z" fill="#888"/><path d="M555.478 256.675H551.4a.883.883 0 0 1-.862-.862c0-.459.402-.861.862-.861h4.078c.46 0 .862.402.862.861 0 .46-.402.862-.862.862Zm-4.136-.919s0 .057 0 0c-.057.057 0 .115 0 .115h4.079s.057 0 .057-.058c0-.057 0-.057-.057-.057h-4.079ZM3.546 108.522c-.23 0-.46-.23-.46-.46v-4.078c0-.23.23-.46.46-.46s.46.23.46.46v4.078c0 .23-.23.46-.46.46Z" fill="#888"/><path d="M3.538 108.925a.884.884 0 0 1-.862-.862v-4.079c0-.459.402-.861.862-.861.46 0 .861.402.861.861v4.079a.884.884 0 0 1-.861.862Zm0-4.998c-.058 0 0 0 0 0l-.058 4.136c0 .057.115.057.115 0l-.057-4.136c.057 0 0 0 0 0Z" fill="#888"/><path d="M6.067 105.994c0 .229-.23.459-.46.459H1.53c-.23 0-.46-.23-.46-.459 0-.23.23-.46.46-.46h4.079c.23 0 .46.23.46.46Z" fill="#888"/><path d="M5.6 106.855H1.52a.883.883 0 0 1-.862-.861c0-.46.403-.862.862-.862H5.6c.46 0 .861.402.861.862a.845.845 0 0 1-.861.861Zm-4.136-.861c-.058 0 0 0 0 0-.058.057 0 .115 0 .115h4.078s.058 0 .058-.058c0-.057 0-.057-.058-.057H1.464ZM67.726 204.399a.494.494 0 0 1-.46-.459v-4.079c0-.23.23-.459.46-.459s.46.229.46.459v4.079c0 .23-.23.459-.46.459Z" fill="#888"/><path d="M67.719 204.802a.884.884 0 0 1-.862-.862v-4.078c0-.46.402-.862.862-.862.46 0 .861.402.861.862v4.078c0 .46-.402.862-.861.862Zm0-4.998c-.058 0 0 0 0 0l-.058 4.136c0 .058.115.058.115 0l-.057-4.136c.057 0 0 0 0 0Z" fill="#888"/><path d="M70.248 201.871c0 .23-.23.46-.46.46H65.71c-.23 0-.46-.23-.46-.46s.23-.46.46-.46h4.078c.23 0 .46.23.46.46Z" fill="#888"/><path d="M69.78 202.733h-4.078a.884.884 0 0 1-.862-.862c0-.459.403-.861.862-.861h4.079c.46 0 .861.402.861.861a.846.846 0 0 1-.861.862Zm-4.135-.862c-.058 0 0 0 0 0-.058.058 0 .115 0 .115h4.078s.058 0 .058-.057c0-.058 0-.058-.058-.058h-4.078ZM514.755 88.993c-.229 0-.459-.23-.459-.46v-4.078c0-.23.23-.46.459-.46.23 0 .46.23.46.46v4.079c0 .287-.23.46-.46.46Z" fill="#888"/><path d="M514.747 89.396a.883.883 0 0 1-.862-.862v-4.078c0-.46.402-.862.862-.862.459 0 .861.402.861.862v4.078a.846.846 0 0 1-.861.862Zm0-4.998c-.058 0 0 0 0 0l-.058 4.136c0 .058.115.058.115 0l-.057-4.136c.057 0 0 0 0 0Z" fill="#888"/><path d="M517.279 86.522c0 .23-.23.46-.46.46h-4.136a.494.494 0 0 1-.459-.46c0-.23.23-.46.459-.46h4.079c.287 0 .517.172.517.46Z" fill="#888"/><path d="M516.812 87.383h-4.136a.883.883 0 0 1-.862-.861c0-.46.402-.862.862-.862h4.078c.46 0 .862.402.862.862.058.46-.345.861-.804.861Zm-4.136-.919c-.058 0 0 0 0 0-.058.058 0 .115 0 .115h4.078s.058 0 .058-.057c0 0 0-.058-.058-.058h-4.078ZM472.866 240.315h-61.868c-4.481 0-8.158-3.677-8.158-8.158 0-4.48 3.677-8.157 8.158-8.157h61.868c4.481 0 8.158 3.677 8.158 8.157 0 4.481-3.677 8.158-8.158 8.158Zm-61.868-14.707a6.546 6.546 0 0 0-6.549 6.549 6.546 6.546 0 0 0 6.549 6.549h61.868a6.546 6.546 0 0 0 6.549-6.549 6.546 6.546 0 0 0-6.549-6.549h-61.868Z" fill="#888"/><path d="M415.307 234.919a3.482 3.482 0 0 1-3.504-3.505 3.481 3.481 0 0 1 3.504-3.504 3.481 3.481 0 0 1 3.504 3.504c0 1.953-1.608 3.505-3.504 3.505Zm0-5.4a1.912 1.912 0 0 0-1.896 1.895c0 1.034.862 1.896 1.896 1.896a1.913 1.913 0 0 0 1.896-1.896 1.912 1.912 0 0 0-1.896-1.895Z" fill="#888"/><path d="M419.323 236.412a.738.738 0 0 1-.574-.229l-2.24-2.241c-.345-.345-.345-.862 0-1.149.344-.345.861-.345 1.148 0l2.241 2.241c.344.344.344.861 0 1.149a.74.74 0 0 1-.575.229ZM341.062 204.154c-46.876 0-85.077-38.144-85.077-85.077s38.201-85.076 85.077-85.076c46.875 0 85.077 38.143 85.077 85.076 0 46.933-38.144 85.077-85.077 85.077Zm0-168.488c-45.957 0-83.411 37.397-83.411 83.411s37.397 83.411 83.411 83.411 83.411-37.397 83.411-83.411-37.397-83.41-83.411-83.41Z" fill="#888"/><path d="M395.258 174.507c29.584-29.585 29.584-77.55 0-107.135-29.585-29.585-77.551-29.585-107.135 0-29.585 29.584-29.585 77.55 0 107.135 29.584 29.584 77.55 29.584 107.135 0Z" fill="#C5C8FB"/><path d="M318.145 200.936c-20.91-20.106-32.916-49.92-32.916-81.86 0-31.882 12.006-61.753 32.916-81.86l1.149 1.15c-20.623 19.818-32.399 49.23-32.399 80.653 0 31.48 11.834 60.892 32.399 80.653l-1.149 1.264ZM364.044 200.942l-1.148-1.149c20.622-19.819 32.399-49.231 32.399-80.654 0-31.48-11.834-60.892-32.399-80.653l1.148-1.149c20.911 20.106 32.917 49.92 32.917 81.86 0 31.767-12.006 61.639-32.917 81.745Z" fill="#888"/><path d="M341.128 174.913c-31.882 0-61.754-12.006-81.859-32.916l1.148-1.149c19.819 20.623 49.231 32.399 80.654 32.399 31.48 0 60.892-11.833 80.653-32.399l1.149 1.149c-20.048 20.968-49.862 32.916-81.745 32.916ZM421.779 97.245c-19.819-20.623-49.231-32.4-80.654-32.4-31.48 0-60.892 11.834-80.653 32.4l-1.149-1.15c20.106-20.91 49.92-32.915 81.86-32.915 31.882 0 61.753 12.006 81.859 32.916l-1.263 1.149ZM425.346 118.271H256.858v1.608h168.488v-1.608Z" fill="#888"/><path d="M341.865 34.86h-1.608v168.487h1.608V34.86Z" fill="#888"/><path fill-rule="evenodd" clip-rule="evenodd" d="M198.652 53.588c-4.53 3.71-7.775 7.44-8.807 10.356l-1.119-.395c1.147-3.243 4.617-7.146 9.173-10.878 4.583-3.753 10.354-7.404 16.23-10.122 5.866-2.714 11.889-4.521 16.964-4.53 5.096-.01 9.34 1.809 11.373 6.441 2.377 5.413.129 11.104-3.291 16.146-2.581 3.806-5.921 7.37-8.667 10.301-.898.958-1.732 1.849-2.456 2.658-.425.475-.942 1.032-1.522 1.657-2.229 2.403-5.387 5.806-7.806 9.39-1.522 2.258-2.717 4.538-3.205 6.638-.484 2.086-.262 3.935.964 5.44l.001.001c1.614 1.99 4.458 2.781 7.152 2.537 2.699-.244 5.251-1.374 7.814-2.57 2.026-.945 4.088-2.083 6.208-3.254l.791-.436c2.391-1.317 4.851-2.645 7.366-3.722 5.032-2.156 10.36-3.341 15.927-1.409l-.389 1.12c-5.165-1.793-10.161-.724-15.07 1.378-2.455 1.052-4.869 2.354-7.261 3.671l-.791.437c-2.114 1.167-4.214 2.326-6.279 3.29-2.546 1.187-5.275 2.41-8.209 2.676-2.937.266-6.235-.573-8.181-2.97-1.526-1.875-1.738-4.137-1.199-6.457.536-2.306 1.822-4.727 3.377-7.032 2.477-3.671 5.727-7.172 7.954-9.571.567-.612 1.068-1.151 1.473-1.604.756-.845 1.613-1.76 2.527-2.735 2.736-2.92 5.976-6.378 8.499-10.099 3.371-4.972 5.302-10.187 3.187-15.004h-.001c-1.779-4.056-5.477-5.741-10.284-5.732-4.829.008-10.672 1.739-16.467 4.42-5.786 2.676-11.472 6.274-15.976 9.963ZM159.493 60.821c-7.344.737-12.825 5.774-15.613 11.08-1.399 2.665-2.317 5.462-3.217 8.319l-.186.59c-.835 2.654-1.684 5.355-2.917 7.965-2.663 5.636-7.843 11.218-15.536 12.626-10.566 1.932-18.366-2.953-25.892-8.105a688.78 688.78 0 0 1-1.3-.893c-7.119-4.896-14.112-9.707-23.289-9.495-4.182.097-8.285 1.376-11.62 3.397-3.34 2.024-5.868 4.764-6.97 7.746l-1.113-.41c1.22-3.302 3.968-6.229 7.468-8.35 3.505-2.123 7.809-3.467 12.208-3.569 9.574-.22 16.871 4.804 23.925 9.66.455.313.909.626 1.362.936 7.533 5.157 14.964 9.753 25.007 7.917 7.209-1.32 12.123-6.563 14.676-11.966 1.198-2.534 2.024-5.16 2.864-7.83l.181-.575c.899-2.854 1.844-5.744 3.298-8.514 2.921-5.56 8.704-10.922 16.546-11.708l.118 1.18Z" fill="#888"/><path fill-rule="evenodd" clip-rule="evenodd" d="m170.638 38.166-38.391 7.209a16.497 16.497 0 0 1-2.886 10.48 16.527 16.527 0 0 1-8.773 6.416l3.451 18.35a48.519 48.519 0 0 0 14.862 26.851l.002.002a49.46 49.46 0 0 0 27.284 12.775 49.386 49.386 0 0 0 20.805-21.809l.001-.002a48.488 48.488 0 0 0 4.104-30.41h-.001l-3.452-18.339a16.546 16.546 0 0 1-10.508-2.798 16.52 16.52 0 0 1-6.498-8.725Zm17.558 11.249.58-.128a1.014 1.014 0 0 0-1.065-.792h-.007a15.358 15.358 0 0 1-9.902-2.585 15.333 15.333 0 0 1-6.071-8.225 1.007 1.007 0 0 0-1.161-.712h-.004l-38.704 7.268-.014.002a1.008 1.008 0 0 0-.794 1.084 15.314 15.314 0 0 1-2.669 9.855 15.345 15.345 0 0 1-8.279 5.995 1.012 1.012 0 0 0-.714 1.16h.001l3.48 18.5v.001a49.697 49.697 0 0 0 15.224 27.506 50.632 50.632 0 0 0 28.018 13.091c.198.018.397-.02.575-.11l.014-.007a50.569 50.569 0 0 0 21.355-22.36 49.668 49.668 0 0 0 4.204-31.15l-3.484-18.503-.583.11Zm-67.637 12.7v.002-.001Z" fill="#888" fill-opacity=".533"/><path d="m188.196 49.415 3.484 18.503a49.077 49.077 0 0 1-4.154 30.78 49.975 49.975 0 0 1-21.105 22.099.45.45 0 0 1-.25.047 50.04 50.04 0 0 1-27.671-12.935 49.114 49.114 0 0 1-15.044-27.18l-3.48-18.502a.415.415 0 0 1 .297-.48 15.934 15.934 0 0 0 8.6-6.229 15.912 15.912 0 0 0 2.773-10.244.416.416 0 0 1 .326-.45l38.709-7.269a.417.417 0 0 1 .481.297 15.926 15.926 0 0 0 6.307 8.548 15.952 15.952 0 0 0 10.285 2.686.422.422 0 0 1 .442.33Z" fill="#fff"/><path d="M165.107 113.867a.349.349 0 0 1-.205.039 41.318 41.318 0 0 1-22.871-10.672 40.529 40.529 0 0 1-12.432-22.454l-2.875-15.28a.346.346 0 0 1 .246-.397 13.158 13.158 0 0 0 7.101-5.144 13.142 13.142 0 0 0 2.29-8.46.346.346 0 0 1 .279-.37l14.471-2.718 1.234.16 12.762 65.296Z" fill="#5D42D1"/><path d="M182.536 95.625a41.29 41.29 0 0 1-17.429 18.248.347.347 0 0 1-.205.038 41.31 41.31 0 0 1-22.871-10.671 40.532 40.532 0 0 1-12.432-22.46l-2.875-15.28a.344.344 0 0 1 .246-.398 13.158 13.158 0 0 0 7.101-5.143 13.142 13.142 0 0 0 2.29-8.46.346.346 0 0 1 .279-.37l14.471-2.718 17.506-3.285a.35.35 0 0 1 .397.243 13.154 13.154 0 0 0 13.697 9.27.349.349 0 0 1 .374.296l2.875 15.28a40.525 40.525 0 0 1-3.424 25.41Z" fill="#6F4AE7"/><path fill-rule="evenodd" clip-rule="evenodd" d="M168.834 67.466a2.271 2.271 0 0 0-2.293 1.132l-.025.041-9.391 14.694-.751-.478.746.485a1.265 1.265 0 0 1-1.742.373l-4.685-2.985a2.259 2.259 0 0 0-1.707-.303 2.265 2.265 0 0 0-1.431 1.008l-.048.072a2.267 2.267 0 0 0 .697 3.122l7.659 4.883a2.269 2.269 0 0 0 3.132-.69l11.343-17.747.023-.034c.016-.022.033-.05.069-.108a2.268 2.268 0 0 0-1.596-3.465Zm2.995 4.58-11.334 17.731a4.04 4.04 0 0 1-4.12 1.806 4.052 4.052 0 0 1-1.471-.574m0 0-7.658-4.882a4.047 4.047 0 0 1-1.236-5.585l.01-.016.049-.073a4.039 4.039 0 0 1 4.113-1.797 4.04 4.04 0 0 1 1.47.574l4.252 2.709 9.099-14.238a4.042 4.042 0 0 1 2.476-1.9 4.05 4.05 0 0 1 5.034 4.573 4.028 4.028 0 0 1-.684 1.672" fill="#fff"/><path d="M171.191 71.395a3.519 3.519 0 0 1-.101.157l-11.344 17.747a3.153 3.153 0 0 1-3.213 1.408 3.15 3.15 0 0 1-1.148-.448l-7.658-4.882a3.154 3.154 0 0 1-.965-4.357l.054-.08a3.15 3.15 0 0 1 3.211-1.409c.408.073.798.225 1.147.448l4.686 2.985a.373.373 0 0 0 .516-.11l9.391-14.693a3.149 3.149 0 0 1 1.942-1.5 3.16 3.16 0 0 1 3.928 3.568 3.158 3.158 0 0 1-.446 1.169v-.003Z" fill="#fff"/><path d="M396.331 62.329c4.362 0 7.898-3.533 7.898-7.89 0-4.359-3.536-7.892-7.898-7.892-4.363 0-7.899 3.533-7.899 7.891 0 4.358 3.536 7.891 7.899 7.891Z" fill="#AD79FF"/><path fill-rule="evenodd" clip-rule="evenodd" d="M396.332 47.14c-4.034 0-7.305 3.267-7.305 7.298a7.302 7.302 0 0 0 7.305 7.298 7.301 7.301 0 0 0 7.305-7.298c0-4.03-3.27-7.298-7.305-7.298Zm-8.492 7.298c0-4.685 3.802-8.484 8.492-8.484 4.69 0 8.492 3.799 8.492 8.484 0 4.685-3.802 8.484-8.492 8.484-4.69 0-8.492-3.799-8.492-8.484Z" fill="#888"/><path d="M395.331 126.328c4.362 0 7.898-3.532 7.898-7.89s-3.536-7.891-7.898-7.891c-4.363 0-7.899 3.533-7.899 7.891 0 4.358 3.536 7.89 7.899 7.89Z" fill="#6F4AE7"/><path fill-rule="evenodd" clip-rule="evenodd" d="M395.332 111.14a7.302 7.302 0 0 0-7.305 7.298 7.302 7.302 0 0 0 7.305 7.298 7.3 7.3 0 0 0 7.305-7.298 7.3 7.3 0 0 0-7.305-7.298Zm-8.492 7.298c0-4.685 3.802-8.484 8.492-8.484 4.69 0 8.492 3.799 8.492 8.484 0 4.685-3.802 8.484-8.492 8.484-4.69 0-8.492-3.799-8.492-8.484Z" fill="#888"/><path d="M325.622 92.422c0 2.642-.747 5.055-2.126 7.066l-.115.172-8.961 13.04c-.689 1.034-2.24 1.034-2.93-.057l-8.674-13.27-.115-.172a12.062 12.062 0 0 1-1.953-6.836c.057-6.894 5.802-12.466 12.753-12.294 6.663.23 12.063 5.687 12.121 12.351Z" fill="#6A45E3"/><path d="M313.875 97.188a4.71 4.71 0 1 0-1.305-9.33 4.71 4.71 0 0 0 1.305 9.33Z" fill="#fff"/><path d="M313.207 98.05h-.058c-3.044-.057-5.514-2.527-5.457-5.571.058-3.045 2.528-5.458 5.515-5.458h.057c3.045.058 5.515 2.528 5.458 5.572-.058 3.045-2.528 5.458-5.515 5.458Zm0-9.42c-2.126 0-3.849 1.723-3.906 3.849 0 2.125 1.723 3.906 3.848 3.906h.058c2.125 0 3.849-1.724 3.906-3.849 0-2.068-1.723-3.849-3.906-3.906ZM357.549 260.846a5.94 5.94 0 0 0 4.211-1.754 6 6 0 0 0 1.745-4.233v-109.81a6.005 6.005 0 0 0-1.745-4.234 5.939 5.939 0 0 0-4.211-1.753H175.678c-1.579 0-3.094.63-4.211 1.753a6.005 6.005 0 0 0-1.745 4.234v109.81a6 6 0 0 0 1.745 4.233 5.94 5.94 0 0 0 4.211 1.754" fill="#fff"/><path d="M357.299 261.612a6.957 6.957 0 0 0 4.925-2.046 7.01 7.01 0 0 0 2.045-4.94V144.265h-1.038v1.026h1.03a7.005 7.005 0 0 0-2.042-4.946 6.956 6.956 0 0 0-4.928-2.049H175.924a6.955 6.955 0 0 0-4.928 2.049 7.001 7.001 0 0 0-2.042 4.946v109.335a6.994 6.994 0 0 0 4.303 6.457c.846.35 1.752.53 2.667.529v-2.059a4.91 4.91 0 0 1-3.475-1.443 4.943 4.943 0 0 1-1.443-3.484V145.291a4.963 4.963 0 0 1 1.445-3.486 4.926 4.926 0 0 1 3.473-1.45h181.367a4.928 4.928 0 0 1 3.473 1.45 4.963 4.963 0 0 1 1.445 3.486V254.626a4.943 4.943 0 0 1-1.443 3.484 4.911 4.911 0 0 1-3.475 1.443v2.059h.008Z" fill="#2B2A33"/><path d="M136.011 289.951v3.979a4.593 4.593 0 0 0 1.231 3.141 4.083 4.083 0 0 0 2.964 1.305h253.57a4.08 4.08 0 0 0 2.961-1.305 4.585 4.585 0 0 0 1.225-3.141v-3.979" fill="#fff"/><path d="M135.244 289.952v3.845c0 1.418.549 2.778 1.526 3.78a5.141 5.141 0 0 0 3.683 1.566h253.066a5.141 5.141 0 0 0 3.683-1.566 5.416 5.416 0 0 0 1.526-3.78v-3.845h-2.054v3.845a3.324 3.324 0 0 1-.935 2.279 3.157 3.157 0 0 1-2.22.96H140.453c-.841 0-1.647-.34-2.246-.946a3.32 3.32 0 0 1-.949-2.293v-3.845h-2.014Z" fill="#2B2A33"/><path d="M394.77 293.016a3.247 3.247 0 0 0 1.837-.574 3.144 3.144 0 0 0 1.167-1.505 3.073 3.073 0 0 0 .075-1.889 3.132 3.132 0 0 0-1.046-1.588l-32.023-25.899a3.241 3.241 0 0 0-2.034-.714H171.228c-.742 0-1.461.252-2.034.714L137.17 287.46a3.136 3.136 0 0 0-1.045 1.588 3.08 3.08 0 0 0 .074 1.889c.223.607.63 1.133 1.168 1.505a3.245 3.245 0 0 0 1.837.574H394.77Z" fill="#fff"/><path d="M394.501 292.753v1.02c.6.004 1.194-.12 1.742-.363a4.07 4.07 0 0 0 1.829-1.583 4.24 4.24 0 0 0 .656-2.254 4.1 4.1 0 0 0-.376-1.709 4.227 4.227 0 0 0-1.166-1.487l-31.957-26.106a4.272 4.272 0 0 0-2.684-.957H171.427a4.272 4.272 0 0 0-2.684.957l-31.957 26.106a4.215 4.215 0 0 0-1.166 1.487 4.069 4.069 0 0 0-.376 1.709 4.255 4.255 0 0 0 1.143 2.895 4.218 4.218 0 0 0 3.084 1.313h255.03v-2.033H139.455a2.123 2.123 0 0 1-1.83-.973 2.177 2.177 0 0 1-.16-2.049c.14-.305.347-.576.608-.791l31.956-26.105a2.168 2.168 0 0 1 1.374-.491h191.126c.501.001.987.175 1.374.491l31.956 26.105c.263.213.471.484.608.791.125.271.191.565.191.863a2.222 2.222 0 0 1-.599 1.511c-.186.206-.415.37-.671.482a2.291 2.291 0 0 1-.903.182l.016.989Z" fill="#2B2A33"/><path d="M266.769 281.525h89.822l-14.616-16.85H191.212l-14.617 16.85h90.174Z" fill="#fff"/><path d="M266.367 282.029v1.028h89.922a1.023 1.023 0 0 0 .799-1.706l-14.638-16.333a1.006 1.006 0 0 0-.759-.343H190.755a1.032 1.032 0 0 0-.799.343l-14.63 16.333a1.015 1.015 0 0 0 .203 1.538c.166.108.359.166.556.168h90.282v-2.048h-87.949l12.785-14.286h149.976l12.785 14.286h-87.597v1.02Z" fill="#2B2A33"/><path d="M352.788 147.487H180.452v105.7h172.336v-105.7Z" fill="#fff"/><path d="M352.508 253.695h1.028V146.989a1.045 1.045 0 0 0-.304-.728 1.032 1.032 0 0 0-.724-.305H180.686a1.041 1.041 0 0 0-1.019 1.033v106.706a1.027 1.027 0 0 0 1.019 1.024h171.822c.271-.002.53-.108.725-.296.191-.194.3-.455.303-.728h-1.028v-1.033H181.713V148.021h169.776v105.674h1.019Z" fill="#2B2A33"/><path d="M359.171 273.102h-7.819l6.551 7.884c.136.162.225.362.256.578.03.215.001.435-.085.633a1.08 1.08 0 0 1-.398.476.971.971 0 0 1-.576.159H198.139l-4.689 4.823h179.996l-14.275-14.536" fill="#C3C4FD"/><path d="M348.071 273.102H207.687l-7.345 7.659h153.954l-6.225-7.659Z" fill="#C3C4FD"/><path d="M350.552 273.102h-2.757l6.218 7.688h-153.79l-2.166 2.268h158.25a.957.957 0 0 0 .574-.163c.172-.116.31-.286.395-.488a1.23 1.23 0 0 0 .085-.647 1.19 1.19 0 0 0-.255-.591l-6.522-8.067" fill="#2B2A33"/><path d="M359.132 273.102h-8.333l.368.415h7.797l14.232 13.714H193.734l4.706-4.533h-.6l-5.139 4.957h181.528l-15.097-14.553Z" fill="#C3C5FD"/><path d="M347.802 273.102H208.101l-7.759 7.659h.598l7.32-7.236H348.168l-.366-.423Z" fill="#C3C5FD"/><path d="M200.824 280.889h-.6l-2.167 2.17h.6l2.167-2.17Zm150.053-7.787h-2.759l.368.431h2.759l-.368-.431Z" fill="#000"/><path d="M151.733 252.737H61.339a18.545 18.545 0 0 1 6.36-10.971 18.578 18.578 0 0 1 11.927-4.33h.712a26.742 26.742 0 0 1 11.117-10.681 26.772 26.772 0 0 1 15.17-2.776 26.766 26.766 0 0 1 14.185 6.05 26.733 26.733 0 0 1 8.486 12.867 13.383 13.383 0 0 1 20.261 2.516 13.351 13.351 0 0 1 2.179 7.31l-.003.015Z" fill="#A883F8"/><path fill-rule="evenodd" clip-rule="evenodd" d="M81.657 231.607a26.187 26.187 0 0 0-14.833 2.705 26.155 26.155 0 0 0-10.875 10.434.594.594 0 0 1-.517.301h-.712c-4.222 0-8.31 1.484-11.546 4.192a17.959 17.959 0 0 0-6.018 9.924h89.061a12.77 12.77 0 0 0-7.639-11.093 12.791 12.791 0 0 0-13.795 2.304.592.592 0 0 1-.97-.266 26.142 26.142 0 0 0-8.292-12.581 26.17 26.17 0 0 0-13.864-5.92Zm45.065 28.742c.23.04.465-.058.597-.256l.006-.009a.594.594 0 0 0 .093-.414 13.946 13.946 0 0 0-2.277-7.539 13.968 13.968 0 0 0-6.086-5.147 13.977 13.977 0 0 0-14.379 1.919 27.328 27.328 0 0 0-8.394-12.286 27.369 27.369 0 0 0-41.194 7.245h-.368a19.174 19.174 0 0 0-12.308 4.468 19.141 19.141 0 0 0-6.563 11.322.593.593 0 0 0 .585.697h90.288Z" fill="#888"/><path d="M78.84 168.848c8.216 0 14.877-6.654 14.877-14.862s-6.66-14.862-14.877-14.862c-8.216 0-14.876 6.654-14.876 14.862s6.66 14.862 14.876 14.862Z" fill="#6F4AE7"/><path fill-rule="evenodd" clip-rule="evenodd" d="M78.069 146.65a.844.844 0 0 0-.1.083l-5.091 5.086a.88.88 0 0 0 1.32 1.163l3.765-3.765v11.672a.88.88 0 0 0 1.76 0v-11.662l3.768 3.764a.88.88 0 0 0 1.244-1.245l-5.018-5.014h-.001a.623.623 0 0 0-.098-.082c-.499-.19-1.05-.19-1.55 0Zm-5.082 4.711 4.809-4.804c.045-.044.093-.083.145-.119l.012-.008.013-.005a2.434 2.434 0 0 1 1.754 0l.012.005.011.007a.929.929 0 0 1 .149.122l5.017 5.012a1.125 1.125 0 0 1-.795 1.924 1.13 1.13 0 0 1-.797-.329l-3.347-3.343v11.066a1.124 1.124 0 0 1-1.127 1.126 1.124 1.124 0 0 1-1.127-1.126v-11.076l-3.343 3.343a1.13 1.13 0 0 1-1.927-.797c0-.299.12-.586.33-.798l.212-.21v.01Z" fill="#C2C6FB"/><path d="m72.861 151.659 5.018-5.013a.907.907 0 0 1 .128-.105 2.3 2.3 0 0 1 1.665 0c.047.03.09.065.129.105l5.018 5.013a1.003 1.003 0 1 1-1.418 1.42l-3.557-3.554v11.365a1.002 1.002 0 0 1-1.714.709 1.002 1.002 0 0 1-.294-.709v-11.374l-3.553 3.553a1.003 1.003 0 0 1-1.422 0 1.004 1.004 0 0 1 0-1.42v.01Z" fill="#fff"/><path d="m265.84 187.874 16.407-2.28V202H265.84v-14.126Zm-2.734.451-13.672 1.854V202h13.672v-13.675Zm0 16.409h-13.672v9.087l13.672 1.854v-10.941Zm2.734 0v11.392l16.407 2.28v-13.672H265.84Z" fill="#000"/><path d="M234.745 145.922c0 10.954-8.912 19.834-19.905 19.834-10.992 0-19.904-8.88-19.904-19.834 0-10.954 8.912-19.834 19.904-19.834 10.993 0 19.905 8.88 19.905 19.834Z" fill="#fff" stroke="url(#a)" stroke-width="2.535"/><path fill-rule="evenodd" clip-rule="evenodd" d="M214.84 137.022c-.954 0-1.728.772-1.728 1.723 0 .951.774 1.722 1.728 1.722.955 0 1.729-.771 1.729-1.722s-.774-1.723-1.729-1.723Zm-4.033 1.723a4.026 4.026 0 0 1 4.033-4.019 4.027 4.027 0 0 1 4.034 4.019 4.028 4.028 0 0 1-4.034 4.019 4.032 4.032 0 0 1-1.919-.483l-1.735 1.729c.131.24.238.496.319.763h6.671a4.034 4.034 0 0 1 3.867-2.87 4.026 4.026 0 0 1 4.033 4.019 4.027 4.027 0 0 1-4.033 4.019 4.022 4.022 0 0 1-1.92-.484l-1.735 1.729c.31.569.486 1.22.486 1.912a4.027 4.027 0 0 1-4.034 4.019 4.026 4.026 0 0 1-4.033-4.019 4.027 4.027 0 0 1 4.033-4.019c.695 0 1.348.175 1.919.483l1.735-1.728a4.076 4.076 0 0 1-.318-.764h-6.671a4.036 4.036 0 0 1-3.867 2.871 4.028 4.028 0 0 1-4.034-4.019 4.027 4.027 0 0 1 4.034-4.019c.694 0 1.348.175 1.919.483l1.735-1.729a3.994 3.994 0 0 1-.485-1.912Zm2.305 14.353c0-.951.774-1.722 1.728-1.722.955 0 1.729.771 1.729 1.722 0 .952-.774 1.723-1.729 1.723a1.725 1.725 0 0 1-1.728-1.723Zm-5.474-8.899c-.955 0-1.729.771-1.729 1.723 0 .951.774 1.722 1.729 1.722.954 0 1.728-.771 1.728-1.722 0-.952-.774-1.723-1.728-1.723Zm12.676 1.723c0-.952.774-1.723 1.729-1.723.954 0 1.728.771 1.728 1.723 0 .951-.774 1.722-1.728 1.722a1.725 1.725 0 0 1-1.729-1.722Z" fill="#000"/><path d="M236.84 145.922c0-12.107-9.849-21.922-22-21.922-12.15 0-22 9.815-22 21.922 0 12.107 9.85 21.921 22 21.921 12.151 0 22-9.814 22-21.921Z" stroke="url(#b)" stroke-width="2.535"/><defs><radialGradient id="a" cx="0" cy="0" r="1" gradientUnits="userSpaceOnUse" gradientTransform="matrix(0 20.8778 -20.9524 0 214.84 145.922)"><stop stop-color="#472C87"/><stop offset=".362" stop-color="#301962"/><stop offset="1" stop-color="#1D0942"/></radialGradient><radialGradient id="b" cx="0" cy="0" r="1" gradientUnits="userSpaceOnUse" gradientTransform="matrix(41.90472 -41.75564 41.75536 41.90444 235.793 125.044)"><stop stop-color="#B833E1"/><stop offset=".371" stop-color="#9059FF"/><stop offset=".614" stop-color="#5B6DF8"/><stop offset="1" stop-color="#0090ED"/></radialGradient></defs></svg>
