<svg width="65" height="65" fill="none" xmlns="http://www.w3.org/2000/svg"><g clip-path="url(#a)"><path d="M0 33.684a30.31 30.31 0 0 1 15.185-26.26l15.162 26.26H0Z" fill="#CB9EFF"/><path d="M15.185 7.423a30.165 30.165 0 0 1 30.324 0L30.347 33.684 15.185 7.424Z" fill="#C689FF"/><path d="M15.185 59.946A30.31 30.31 0 0 1 0 33.684h30.347L15.185 59.946Z" fill="#592ACB"/><path d="M45.509 7.423a30.31 30.31 0 0 1 15.185 26.261H30.347l15.162-26.26Z" fill="#AB71FF"/><path d="m15.185 59.946 15.162-26.262L45.51 59.945a30.166 30.166 0 0 1-30.324 0Z" fill="#7542E5"/><path d="M60.694 33.684a30.31 30.31 0 0 1-15.185 26.261l-15.162-26.26h30.347Z" fill="#9059FF"/><path d="M52.272 28.102c-2.449 4.27-6.355 6.616-8.723 5.24-2.369-1.377-2.303-5.955.146-10.226L53.72 5.634c2.45-4.27 6.355-6.617 8.724-5.24 2.368 1.377 2.303 5.955-.146 10.225L52.272 28.102Z" fill="#9059FF"/><path d="M62.444.394 43.549 33.341c2.368 1.377 6.274-.969 8.723-5.24L62.298 10.62c2.45-4.27 2.514-8.848.146-10.225Z" fill="#592ACB"/><path d="M31.11 45.059a5 5 0 0 0 .216 5.3l-2.27 3.957a2.155 2.155 0 0 0 .781 2.934 2.125 2.125 0 0 0 2.914-.786l2.27-3.957a4.93 4.93 0 0 0 4.667-2.462l9.826-17.134-8.578-4.985-9.826 17.133Z" fill="#CB9EFF"/><path d="m52.798 27.558-.16-.093-3.124 5.446.16.093a2.876 2.876 0 0 0 3.777-1.435 2.916 2.916 0 0 0-.653-4.011ZM43.504 22.156a2.875 2.875 0 0 0-3.777 1.436 2.916 2.916 0 0 0 .653 4.01l.556.324 3.124-5.447-.556-.323ZM44.06 22.479l-3.124 5.447 8.578 4.985 3.124-5.447-8.578-4.985Z" fill="#D9BFFF"/><path d="M34.067 47.574a1.065 1.065 0 0 1-1.457.393 1.078 1.078 0 0 1-.39-1.466l7.313-12.754a1.064 1.064 0 0 1 1.955.26c.073.275.035.567-.107.814l-7.314 12.753Z" fill="#E7DFFF"/></g><defs><clipPath id="a"><path fill="#fff" d="M0 0h64.178v64.031H0z"/></clipPath></defs></svg>