<svg width="405" height="334" viewBox="0 0 405 334" xmlns="http://www.w3.org/2000/svg">
    <defs>
        <linearGradient x1="1.84%" y1="109.891%" x2="90.061%" y2="-6.22%" id="a"><stop stop-color="#005fe7" offset="0%"/><stop stop-color="#00e1ff" offset="100%"/></linearGradient>
        <linearGradient x1="23.806%" y1="66.463%" x2="46.918%" y2="27.946%" id="b"><stop stop-color="#ff4ca1" offset="0%"/><stop stop-color="#ffde67" offset="100%"/></linearGradient>
        <linearGradient x1="14.846%" y1="87.694%" x2="39.466%" y2="121.366%" id="c"><stop stop-color="#ff008c" offset="0%"/><stop stop-color="#cc0de8" offset="100%"/></linearGradient>
    </defs>
    <g fill="none" fill-rule="evenodd">
        <path d="M100.099 316.357c-10.61 11.885-24.992 18.308-39.668 19.084-14.676.776-29.646-4.095-41.43-14.796C7.215 309.945.848 295.44.078 280.64c-.77-14.8 4.06-29.898 14.67-41.783L189.066 43.612c10.612-11.883 24.995-18.303 39.67-19.079 14.676-.775 29.645 4.095 41.43 14.795 11.785 10.703 18.152 25.207 18.92 40.007.77 14.8-4.06 29.896-14.67 41.78L100.098 316.356z" fill="url(#a)" transform="matrix(-1 0 0 1 405 -10)"/>
        <path d="M281.819 310.61c-46.476 12.57-97.696 7.264-142.646-18.898-44.95-26.163-75.119-68.23-87.557-115.091-12.438-46.862-7.147-98.52 18.823-143.866 7.199-12.57 18.766-21.01 31.65-24.495 12.882-3.485 27.08-2.014 39.54 5.238 12.46 7.253 20.823 18.913 24.271 31.903 3.448 12.99 1.981 27.31-5.218 39.88-11.572 20.206-13.93 43.225-8.387 64.107 5.542 20.882 18.986 39.626 39.015 51.285 20.03 11.658 42.854 14.022 63.564 8.42 20.71-5.601 39.305-19.17 50.877-39.376 7.199-12.57 18.766-21.01 31.65-24.495 12.882-3.485 27.08-2.014 39.54 5.239 12.461 7.252 20.824 18.913 24.271 31.902 3.448 12.99 1.981 27.31-5.218 39.88-25.97 45.346-67.7 75.795-114.175 88.366z" fill="url(#b)" transform="scale(-1 1) rotate(-2 -264.857 11758.003)"/>
        <path d="M224.093 343.366c40.01 0 72.444-32.709 72.444-73.06 0-40.35-32.434-73.06-72.444-73.06-40.011 0-72.445 32.71-72.445 73.06 0 40.351 32.434 73.06 72.445 73.06" fill="url(#c)" transform="matrix(-1 0 0 1 405 -10)"/>
    </g>
</svg>
