<svg xmlns="http://www.w3.org/2000/svg" viewBox="0 0 250 150"><defs><style>.cls-4{fill:#9f9fad}.cls-8{fill:#fff}</style></defs><g style="isolation:isolate"><g id="Layer_1" data-name="Layer 1"><rect x="52.06" y="21.53" width="142.12" height="108.5" rx="1.63" fill="#efeff4"/><path d="M194.18 32.32V23a1.43 1.43 0 0 0-1.44-1.44H53.5A1.44 1.44 0 0 0 52.06 23v9.35z" fill="#80808e"/><path class="cls-4" d="M52.06 30.23h142.12v15.56H52.06z"/><path fill="#d6d6d8" d="M76.88 35.01h111.88v5.98H76.88z"/><path class="cls-4" d="M65.42 23.92h22.93v11.09H65.42z"/><path fill="#e3e3e5" d="M52.06 66.9h142.12v63.13H52.06z"/><path d="M70.78 56.21a6.81 6.81 0 1 0-7.87 6.72v-4.75h-1.73v-2h1.73v-1.5a2.41 2.41 0 0 1 2.57-2.65 10 10 0 0 1 1.52.17v1.67h-.86A1 1 0 0 0 65 54.93v1.28h1.89l-.31 2H65v4.75a6.8 6.8 0 0 0 5.78-6.75z" fill="#1877f2"/><path class="cls-8" d="M66.62 58.18l.31-2H65v-1.25a1 1 0 0 1 1.11-1.06H67V52.2a10 10 0 0 0-1.53-.14 2.41 2.41 0 0 0-2.57 2.65v1.5h-1.72v2h1.73v4.75a7.13 7.13 0 0 0 2.13 0v-4.78z"/><circle class="cls-8" cx="123.12" cy="88.58" r="30.92"/><path d="M136.59 75.11l-2.25 2.25v4.48h-4.48v-4.48l-2.25-2.25-2.24 2.25v4.48h-4.49v-4.48l-2.25-2.25-2.24 2.25v4.48h-4.49v-4.48l-2.24-2.25-2.25 2.25V102h4.49v-4.45h4.49V102h4.49v-4.45h4.49V102h4.49v-4.45h4.48V102h4.49V77.36zm-20.2 20.2h-4.49V84.09h4.49zm9 0h-4.55V84.09h4.55zm8.93 0h-4.48V84.09h4.48z" style="mix-blend-mode:multiply" fill="#fa7050" fill-rule="evenodd"/></g></g></svg>