<svg id="Layer_1" data-name="Layer 1" viewBox="0 0 64 64" xmlns="http://www.w3.org/2000/svg"><defs><style>.cls-1{fill:#591dcd}</style></defs><path class="cls-1" d="M62.817 3.677a3.588 3.588 0 0 0-.571-.47c.438 1.884-1.312 3.649-2.085 4.406L21.665 48.63a3.877 3.877 0 0 1-2.825 1.144 5.356 5.356 0 0 1-3.531-1.446c.289.665.7 1.269 1.211 1.783a5.41 5.41 0 0 0 3.782 1.682 3.935 3.935 0 0 0 2.826-1.127L61.624 9.615c.974-.976 3.565-3.565 1.193-5.938"/><path d="M21.665 48.63L60.161 7.613c.773-.757 2.523-2.522 2.085-4.406-2.203-1.514-4.474.757-5.348 1.682L15.88 43.568a4.28 4.28 0 0 0-.656 4.795 5.37 5.37 0 0 0 3.532 1.445 3.882 3.882 0 0 0 2.909-1.178" fill="#8f51ff"/><path d="M19.766 51.137l-1.195 1.177-1.178 1.194-1.193 1.194-1.261 1.194-1.195 1.177-1.177 1.195-4.692-4.76 1.195-1.194 1.176-1.177 1.194-1.194 1.195-1.195 1.177-1.176 1.127-1.194c.655-.657 2.253-.135 3.566 1.194.405.395.751.848 1.025 1.344.505.909.605 1.783.167 2.221" fill="#d8bcff"/><path class="cls-1" d="M8.935 52.835a4.34 4.34 0 0 0-4.087 3.146c0 .083 0 .167-.084.235a4.372 4.372 0 0 1 3.448 4.355 4.19 4.19 0 0 1-.707 2.304 10.534 10.534 0 0 0 4.339-2.471c2.473-2.265 1.567-6.357-1.631-7.367a4.365 4.365 0 0 0-1.278-.202"/><path d="M4.647 56.266c-.757 2.456-1.481 4.423-3.768 5.399-.36.182-.588.553-.588.957-.03.587.408 1.091.992 1.145a21.17 21.17 0 0 0 6.29-.892c.433-.689.655-1.49.639-2.304a4.356 4.356 0 0 0-3.617-4.305" fill="#c785ff"/></svg>