<svg id="Layer_1" data-name="Layer 1" viewBox="0 0 64 64" xmlns="http://www.w3.org/2000/svg"><defs><style>.cls-2,.cls-3{fill-rule:evenodd}.cls-2{fill:#a976fb}.cls-3{fill:#905ffa}</style><mask id="mask" x="0" y="23.17" width="31.23" height="40.79" maskUnits="userSpaceOnUse"><g id="mask-2"><path id="path-1" fill-rule="evenodd" fill="#fff" d="M0 23.17h31.23v40.79H0V23.17z"/></g></mask></defs><g id="section-whats-new" transform="matrix(1.56863 0 0 1.56863 .144 -36.345)"><g id="Group-23"><g id="Group-22"><path id="Fill-1" class="cls-2" d="M.19 43.6a20.36 20.36 0 0 1 31-17.38.43.43 0 0 1 .21.37.43.43 0 0 1-.4.41 16.58 16.58 0 1 0 0 33.15.43.43 0 0 1 .43.43.45.45 0 0 1-.21.37A20.36 20.36 0 0 1 .19 43.6"/><path id="Fill-3" class="cls-2" d="M35.35 47.05a.42.42 0 0 0-.34-.42c-.83-.15-3.12-.69-3.9-1.46s-1.31-3.06-1.46-3.9a.42.42 0 0 0-.42-.34v6.12z"/><path id="Fill-5" class="cls-3" d="M29.262 40.93a.421.421 0 0 0-.412.352c-.141.824-.654 3.076-1.428 3.91-.774.834-3.076 1.317-3.96 1.468a.421.421 0 0 0-.342.422h6.142z"/><path id="Fill-7" class="cls-2" d="M29.23 47.05v6.12a.44.44 0 0 0 .42-.35c.15-.84.69-3.16 1.46-3.94s3.06-1.28 3.89-1.42a.42.42 0 0 0 .35-.41z"/><path id="Fill-9" class="cls-3" d="M23.12 47.05a.402.402 0 0 0 .352.412c.834.141 3.166.654 3.95 1.428.784.774 1.287 3.075 1.428 3.95a.421.421 0 0 0 .412.362V47.05z"/><g mask="url(#mask)" id="Group-21"><path id="Fill-19" class="cls-3" d="M25.3 61.48a17.92 17.92 0 1 1 5.91-34.81.5.5 0 0 0 0-.12.41.41 0 0 0-.22-.36 20.4 20.4 0 1 0 0 34.76.43.43 0 0 0 .22-.37.36.36 0 0 0 0-.11 17.85 17.85 0 0 1-5.91 1"/></g><path id="path-2" class="cls-2" d="M40.47 35.465a.263.263 0 0 0-.211-.262c-.516-.093-1.94-.429-2.426-.908-.485-.478-.815-1.903-.908-2.426a.26.26 0 0 0-.26-.211v3.807z"/><path id="path-3" class="cls-3" d="M36.684 31.658a.26.26 0 0 0-.256.219c-.088.513-.407 1.913-.889 2.432-.481.518-1.913.819-2.462.913a.262.262 0 0 0-.213.262h3.82z"/><path id="path-4" class="cls-2" d="M36.665 35.465v3.806a.274.274 0 0 0 .26-.218c.093-.522.429-1.966.908-2.45.48-.485 1.904-.797 2.42-.884a.26.26 0 0 0 .217-.254z"/><path id="path-5" class="cls-3" d="M32.864 35.465a.25.25 0 0 0 .219.256c.519.088 1.969.406 2.456.888.488.481.801 1.912.889 2.457a.26.26 0 0 0 .256.224v-3.825z"/></g></g></g></svg>