<svg id="Layer_1" data-name="Layer 1" viewBox="0 0 134 138" xmlns="http://www.w3.org/2000/svg" xmlns:xlink="http://www.w3.org/1999/xlink"><defs><style>.cls-3,.cls-4{opacity:.53;isolation:isolate}.cls-3{fill:url(#radial-gradient-3)}.cls-4{fill:#ffd567}</style><radialGradient id="radial-gradient" cx="-3779.11" cy="417.18" r="0" gradientUnits="userSpaceOnUse"><stop offset="0" stop-color="#ff9640"/><stop offset=".8" stop-color="#fc4055"/></radialGradient><radialGradient id="radial-gradient-2" cx="-3779.11" cy="417.18" r="0" gradientUnits="userSpaceOnUse"><stop offset=".09" stop-color="#ffde67"/><stop offset=".82" stop-color="#ff9640" stop-opacity="0"/></radialGradient><radialGradient id="radial-gradient-3" cx="-3778.67" cy="416.78" r=".54" gradientTransform="matrix(354.22366 0 0 -355.01702 1338615.487 148160.613)" gradientUnits="userSpaceOnUse"><stop offset=".36" stop-color="#fc4055"/><stop offset=".59" stop-color="#ff9640" stop-opacity="0"/></radialGradient><radialGradient id="radial-gradient-4" cx="-3778.4" cy="417.16" r="1.11" gradientTransform="translate(-51.663 .23) scale(.92361)" xlink:href="#radial-gradient"/><radialGradient id="radial-gradient-5" cx="-3778.39" cy="417.09" r="1.13" gradientTransform="translate(-51.663 .23) scale(.92361)" xlink:href="#radial-gradient-2"/></defs><path d="M18.532 61.427v-.054z" fill="url(#radial-gradient)"/><path d="M18.532 61.427v-.054z" fill="url(#radial-gradient-2)"/><path class="cls-3" d="M18.532 61.427v-.054z"/><path class="cls-4" d="M18.532 61.427v-.054z"/><path d="M18.753 61.188c.841-.813 1.7-1.607 2.587-2.402-1.312 1.136-2.171 1.968-2.587 2.402z" fill="url(#radial-gradient-4)"/><path d="M18.753 61.188c.841-.813 1.7-1.607 2.587-2.402-1.312 1.136-2.171 1.968-2.587 2.402z" fill="url(#radial-gradient-5)"/><path class="cls-3" d="M18.753 61.188c.841-.813 1.7-1.607 2.587-2.402-1.312 1.136-2.171 1.968-2.587 2.402z"/><path class="cls-4" d="M18.753 61.188c.841-.813 1.7-1.607 2.587-2.402-1.312 1.136-2.171 1.968-2.587 2.402z"/><path d="M61.11 44.359l.684-.166-.277.065zM18.652 61.345l.24-.167-.147.092z" fill="#ffff98"/><circle cx="67.28" cy="69.5" r="66.5" fill="#bfbfc9" opacity=".15"/><path d="M107.67 46.567c-.056-4.11-.111-8.775-.121-14.039a4.515 4.515 0 0 0-3.694-4.424l-35.771-6.188a4.203 4.203 0 0 0-.767-.065 4.294 4.294 0 0 0-.767.065l-35.771 6.188a4.499 4.499 0 0 0-3.695 4.424c0 5.264-.073 9.929-.129 14.039-.093 7.388-.157 12.783.148 16.126 1.93 21.455 6.465 31.227 14.141 41.756a41.952 41.952 0 0 0 25.224 16.238c.304.057.613.085.923.083.31.003.62-.025.923-.083a42.479 42.479 0 0 0 25.03-16.238c7.676-10.529 12.21-20.319 14.15-41.756.333-3.353.268-8.71.176-16.126z" fill="#9f9fad"/><path d="M66.56 21.989l-35.772 6.188a4.518 4.518 0 0 0-3.694 4.425c0 5.264-.065 9.929-.121 14.038-.091 7.39-.157 12.784.139 16.127 1.94 21.456 6.465 31.227 14.15 41.756a41.871 41.871 0 0 0 25.224 16.228c.288.063.583.095.877.093V21.925a4.231 4.231 0 0 0-.803.064z" fill="#80808e"/><path d="M66.633 28.796l-29.989 5.191a3.768 3.768 0 0 0-3.132 3.694c0 4.407-.054 8.313-.101 11.768-.101 6.243-.101 10.741.121 13.586 1.616 18.001 5.421 26.193 11.859 35.023a35.097 35.097 0 0 0 21.169 13.568c.239.051.484.076.73.074V28.741c-.22 0-.44.019-.657.055z" fill="#592acb"/><path d="M101.149 49.467c0-3.445-.093-7.389-.101-11.767a3.77 3.77 0 0 0-3.122-3.695l-29.999-5.19a3.793 3.793 0 0 0-.647-.055v82.958c.249.003.496-.022.739-.073A35.595 35.595 0 0 0 89.16 98.03c6.465-8.83 10.243-17.022 11.869-35.023.259-2.817.203-7.315.12-13.54z" fill="#7542e5"/><path d="M79.185 59.803a3.194 3.194 0 0 0-2.696-3.141l-9.237-1.524-9.236 1.524a3.196 3.196 0 0 0-2.706 3.141c0 2.502 0 5.818.167 7.388.443 4.766 1.375 7.389 3.694 10.345a12.475 12.475 0 0 0 7.934 4.617h.314a12.482 12.482 0 0 0 7.934-4.617c2.271-2.974 3.195-5.542 3.694-10.345.129-1.663.138-5.338.138-7.388zm-3.121 7.093c-.407 4.239-1.118 6.298-3.049 8.82a9.594 9.594 0 0 1-5.735 3.454 9.58 9.58 0 0 1-5.727-3.454c-1.939-2.531-2.65-4.618-3.047-8.811-.111-1.127-.157-3.695-.157-7.094.011-.112.1-.2.212-.212l8.719-1.441 8.719 1.441a.229.229 0 0 1 .212.212c.01 3.39-.046 5.995-.147 7.085zm-14.732-4.739c0 2.928.092 4.074.13 4.461.387 4.018 1.034 5.441 2.447 7.287a6.453 6.453 0 0 0 3.371 2.208V61.188z" fill="#fff"/></svg>