<svg id="Layer_1" data-name="Layer 1" xmlns="http://www.w3.org/2000/svg" xmlns:xlink="http://www.w3.org/1999/xlink" viewBox="0 0 250 150"><defs><style>.cls-3,.cls-4{opacity:.53;isolation:isolate}.cls-3{fill:url(#radial-gradient-3)}.cls-4{fill:#ffd567}.cls-7{fill:#ffff98}</style><radialGradient id="radial-gradient" cx="-3779.11" cy="417.18" r="0" gradientTransform="matrix(415.24 0 0 -416.17 1569308.9 173681.32)" gradientUnits="userSpaceOnUse"><stop offset="0" stop-color="#ff9640"/><stop offset=".8" stop-color="#fc4055"/></radialGradient><radialGradient id="radial-gradient-2" cx="-3779.11" cy="417.18" r="0" gradientTransform="matrix(415.24 0 0 -416.17 1569308.9 173681.32)" gradientUnits="userSpaceOnUse"><stop offset=".09" stop-color="#ffde67"/><stop offset=".82" stop-color="#ff9640" stop-opacity="0"/></radialGradient><radialGradient id="radial-gradient-3" cx="-3778.67" cy="416.78" r=".54" gradientTransform="matrix(415.24 0 0 -416.17 1569308.9 173681.32)" gradientUnits="userSpaceOnUse"><stop offset=".36" stop-color="#fc4055"/><stop offset=".59" stop-color="#ff9640" stop-opacity="0"/></radialGradient><radialGradient id="radial-gradient-4" cx="-3778.4" cy="417.16" r="1.11" xlink:href="#radial-gradient"/><radialGradient id="radial-gradient-5" cx="-3778.39" cy="417.09" r="1.13" xlink:href="#radial-gradient-2"/></defs><path d="M76 66.26v-.06z" fill="url(#radial-gradient)"/><path d="M76 66.26v-.06z" fill="url(#radial-gradient-2)"/><path class="cls-3" d="M76 66.26v-.06z"/><path class="cls-4" d="M76 66.26v-.06z"/><path d="M76.24 66c.91-.88 1.84-1.74 2.8-2.6-1.42 1.23-2.35 2.13-2.8 2.6z" fill="url(#radial-gradient-4)"/><path d="M76.24 66c.91-.88 1.84-1.74 2.8-2.6-1.42 1.23-2.35 2.13-2.8 2.6z" fill="url(#radial-gradient-5)"/><path class="cls-3" d="M76.24 66c.91-.88 1.84-1.74 2.8-2.6-1.42 1.23-2.35 2.13-2.8 2.6z"/><path class="cls-4" d="M76.24 66c.91-.88 1.84-1.74 2.8-2.6-1.42 1.23-2.35 2.13-2.8 2.6z"/><path class="cls-7" d="M122.1 47.78l.74-.18-.3.07zM76.13 66.17l.26-.18-.16.1z"/><circle cx="128.78" cy="75" r="72" fill="#bfbfc9" opacity=".15"/><path d="M172.51 50.17c-.06-4.45-.12-9.5-.13-15.2a4.89 4.89 0 0 0-4-4.79l-38.73-6.7a4.57 4.57 0 0 0-.83-.07 4.65 4.65 0 0 0-.83.07l-38.73 6.7a4.87 4.87 0 0 0-4 4.79c0 5.7-.08 10.75-.14 15.2-.1 8-.17 13.84.16 17.46 2.09 23.23 7 33.81 15.31 45.21a45.42 45.42 0 0 0 27.31 17.58 5.2 5.2 0 0 0 1 .09 5 5 0 0 0 1-.09 46 46 0 0 0 27.1-17.58c8.31-11.4 13.22-22 15.32-45.21.36-3.63.29-9.43.19-17.46z" fill="#9f9fad"/><path d="M128 23.56l-38.73 6.7a4.89 4.89 0 0 0-4 4.79c0 5.7-.07 10.75-.13 15.2-.1 8-.17 13.84.15 17.46 2.1 23.23 7 33.81 15.32 45.21a45.34 45.34 0 0 0 27.31 17.57 4.32 4.32 0 0 0 .95.1V23.49a4.57 4.57 0 0 0-.87.07z" fill="#80808e"/><path d="M128.08 30.93l-32.47 5.62a4.08 4.08 0 0 0-3.39 4c0 4.77-.06 9-.11 12.74C92 60.05 92 64.92 92.24 68c1.75 19.49 5.87 28.36 12.84 37.92A38 38 0 0 0 128 120.61a3.53 3.53 0 0 0 .79.08V30.87a4.23 4.23 0 0 0-.71.06z" fill="#592acb"/><path d="M165.45 53.31c0-3.73-.1-8-.11-12.74a4.08 4.08 0 0 0-3.38-4l-32.48-5.62a4.14 4.14 0 0 0-.7-.06v89.82a3.62 3.62 0 0 0 .8-.08 38.54 38.54 0 0 0 22.89-14.74c7-9.56 11.09-18.43 12.85-37.92.28-3.05.22-7.92.13-14.66z" fill="#7542e5"/><path d="M141.67 64.5a3.46 3.46 0 0 0-2.92-3.4l-10-1.65-10 1.65a3.46 3.46 0 0 0-2.93 3.4c0 2.71 0 6.3.18 8 .48 5.16 1.49 8 4 11.2a13.51 13.51 0 0 0 8.59 5h.34a13.51 13.51 0 0 0 8.59-5c2.46-3.22 3.46-6 4-11.2.14-1.8.15-5.78.15-8zm-3.38 7.68c-.44 4.59-1.21 6.82-3.3 9.55a10.39 10.39 0 0 1-6.21 3.74 10.37 10.37 0 0 1-6.2-3.74c-2.1-2.74-2.87-5-3.3-9.54-.12-1.22-.17-4-.17-7.68a.26.26 0 0 1 .23-.23l9.44-1.56 9.44 1.56a.25.25 0 0 1 .23.23c.01 3.67-.05 6.49-.16 7.67zm-15.95-5.13c0 3.17.1 4.41.14 4.83.42 4.35 1.12 5.89 2.65 7.89a7 7 0 0 0 3.65 2.39V66z" fill="#fff"/></svg>