<?xml version="1.0" encoding="utf-8"?>
<svg width="367" height="302" viewBox="0 0 367 302" xmlns="http://www.w3.org/2000/svg">
  <defs>
    <path id="a" d="M0 .067h51.522V48H0z"/>
  </defs>
  <g transform="translate(2 1)" fill="none" fill-rule="evenodd">
    <g stroke="#0090ED" stroke-width="3.731">
      <path d="M108.305 186.341h-.037a122.737 122.737 0 0 0-30.976 17.031A124.43 124.43 0 0 0 175 250.734c-28.715 0-53.7-26.008-66.695-64.393zM272.708 203.372a122.659 122.659 0 0 0-30.975-17.015h-.033c-13 38.37-37.985 64.377-66.7 64.377a124.43 124.43 0 0 0 97.708-47.362zM241.7 65.659h.033a122.727 122.727 0 0 0 30.975-17.031A124.43 124.43 0 0 0 175 1.266c28.715 0 53.7 26.008 66.7 64.393z"/>
      <path d="M108.305 186.341a189.245 189.245 0 0 1-9.531-60.34H50.266a124.163 124.163 0 0 0 27.026 77.371 122.686 122.686 0 0 1 30.976-17.015l.037-.016zM241.7 186.341h.033a122.743 122.743 0 0 1 30.975 17.031A124.16 124.16 0 0 0 299.733 126h-48.507a189.393 189.393 0 0 1-9.526 60.341zM241.7 65.659a189.395 189.395 0 0 1 9.526 60.34h48.507a124.16 124.16 0 0 0-27.025-77.371 122.675 122.675 0 0 1-30.975 17.015l-.033.016zM108.305 65.659h-.037a122.72 122.72 0 0 1-30.976-17.031A124.163 124.163 0 0 0 50.266 126h48.508a189.245 189.245 0 0 1 9.53-60.341z"/>
      <path d="M108.305 65.659C121.3 27.274 146.285 1.266 175 1.266a124.43 124.43 0 0 0-97.708 47.362 122.67 122.67 0 0 0 30.976 17.015l.037.016zM175 126v48.507a184.8 184.8 0 0 1 66.7 11.834A189.39 189.39 0 0 0 251.226 126H175zM98.774 126a189.242 189.242 0 0 0 9.53 60.341A184.762 184.762 0 0 1 175 174.507V126H98.774z"/>
      <path d="M241.7 186.341a184.8 184.8 0 0 0-66.7-11.833v76.226c28.715 0 53.7-26.008 66.7-64.393zM241.7 65.659c-13-38.385-37.985-64.393-66.7-64.393v76.226a184.811 184.811 0 0 0 66.7-11.833zM108.305 186.341c12.996 38.385 37.98 64.393 66.695 64.393v-76.226a184.762 184.762 0 0 0-66.695 11.833zM108.305 65.659A184.762 184.762 0 0 0 175 77.492V1.266c-28.715 0-53.7 26.008-66.695 64.393z"/>
      <path d="M251.226 126a189.393 189.393 0 0 0-9.526-60.341A184.811 184.811 0 0 1 175 77.493V126h76.226zM175 77.493c-22.77.199-45.383-3.813-66.695-11.834A189.242 189.242 0 0 0 98.774 126H175V77.493z"/>
    </g>
    <circle stroke="#0090ED" stroke-width="4" fill="#FFF" cx="175.5" cy="236.5" r="62.5"/>
    <circle stroke="#0090ED" stroke-width="4" fill="#FFF" cx="62.5" cy="87.5" r="62.5"/>
    <circle stroke="#0090ED" stroke-width="4" fill="#FFF" cx="300.5" cy="122.5" r="62.5"/>
    <path d="M303.135 93.431C307.398 88.026 313.324 88 313.324 88s.881 5.081-3.353 9.976c-4.522 5.227-9.661 4.372-9.661 4.372s-.965-4.11 2.825-8.917" fill="#000"/>
    <g transform="translate(275 103.6)">
      <mask id="b" fill="#fff">
        <path d="M 0 0.067 L 51.522 0.067 L 51.522 48 L 0 48 Z"/>
      </mask>
      <path d="M26.203 3C28.34 3 32.304.067 37.465.067c8.883 0 12.378 6.312 12.378 6.312s-6.835 3.49-6.835 11.957c0 9.551 8.514 12.843 8.514 12.843s-5.952 16.728-13.99 16.728c-3.693 0-6.564-2.485-10.455-2.485-3.964 0-7.899 2.578-10.461 2.578C9.274 48 0 32.132 0 19.376 0 6.826 7.85.243 15.213.243 20 .243 23.715 3 26.203 3" fill="#000" mask="url(#b)"/>
    </g>
    <g fill="#1E76BC">
      <path d="M32 67.8v18.96h23.04V64.55zM87.32 60l-30.24 4.264V86.76h30.24zM32 88.8v18.96l23.04 3.248V88.8zM57.08 88.8v22.496l30.24 4.264V88.8z"/>
    </g>
  </g>
  <g transform="matrix(0.102849, 0, 0, 0.102849, 146.333267, 200.467957)" style="">
    <path id="body" class="cls-1" d="M 378 677 C 353.365 690.053 343.381 656.982 231 681 C 63.89 664.93 80.859 534.305 81 451 C 81.04 427.271 95.087 393.881 109 371 C 121.376 350.648 133.438 330.242 147 311 C 153.417 301.895 162.427 293.865 169 285 C 181.224 268.288 191.265 249.895 197 230 C 203.783 206.466 202.404 169.787 201.685 156.312 C 201.312 149.322 201 135 201 135 C 201 135 199.545 106.721 201 97 C 208.26 48.48 220.719 24.305 265 8 C 273.849 4.742 298.795 -0.319 316 0 C 329.922 0.258 344.84 2.865 357 8 C 388.616 21.35 403.167 50.594 413 86 C 415.464 98.397 417.519 111.102 418 125 L 418 148 C 418 171.447 416.035 197.81 422 216 C 433.772 251.9 458.027 273.857 478 301 C 497.053 326.892 513.494 352.136 527 384 C 532.778 397.947 537.459 412.324 541 427 C 541.333 432.333 550.029 467.449 536.287 501.588 C 499.016 647.445 394 669 394 669" style="fill-rule: evenodd;">
      <title>body</title>
    </path>
    <path id="white" class="cls-3" d="M 355 244 C 358.732 248.432 358.555 255.089 361 261 C 367.487 276.685 373.17 292.955 380 309 C 394 341.883 407.89 373.739 422 408 C 426.628 419.237 433.136 432.784 435 446 C 419.652 456.456 392.337 492.414 386 512 C 377.939 536.915 381.88 591.2 368 608 C 362.8 614.295 340.793 621.78 332 625 C 300.195 636.646 235.072 629.82 226 604 C 240.763 596.457 243.693 571.765 235 555 C 224.23 534.229 204.444 516.249 186 503 C 179.074 498.025 160.057 487.291 157 480 C 167.483 471.9 167.1 438.872 172 424 C 185.568 382.851 203.865 345 220 306 C 224.9 294.157 228.131 281.019 232 269 C 233.586 264.073 233.072 261.638 234.595 255.555 C 238.395 258.243 247.375 264.973 255.86 268.68 C 268.721 274.3 290.966 280.048 327.905 256.873 C 334.189 252.931 350.22 247.461 355 244 Z" style="fill: rgb(255, 255, 255); fill-rule: evenodd;">
      <title>tux</title>
    </path>
    <path id="rightfoot" class="cls-4" d="M 417.579 498.503 L 427.017 489.759 C 442.592 545.833 470.631 537.965 505.974 511.548 C 516.704 503.528 529.615 509.954 538.953 514.209 C 549.59 519.752 553.306 546.346 558.911 561.558 C 562.405 571.041 569.707 578.893 575.216 586.563 C 578.503 591.136 587.055 602.411 583.957 613.124 C 579.817 627.437 554.272 634.037 541.256 642.838 C 541.251 642.832 516.662 658.544 504.771 667.561 C 488.547 679.864 485.38 694.444 454.01 706.608 C 445.067 710.076 421.362 712.906 409.55 708.149 C 395.215 702.377 377.997 669.778 382.13 656.475 C 386.689 641.799 393.673 617.059 401.165 579.097 C 406.774 550.674 402.619 517.958 417.579 498.503 Z" style="stroke: rgb(0, 0, 0); stroke-width: 16px; fill: rgb(255, 188, 0); fill-rule: evenodd;">
      <title>right foot</title>
    </path>
    <path id="left_foot" data-name="left foot" class="cls-4" d="M 93.251 494.916 C 105.719 486.114 118.571 494.408 124.317 498.255 C 140.472 509.069 151.281 536.304 161.96 553.734 C 179.084 581.69 198.41 606.983 215.617 634.31 C 224.965 649.158 228.804 667.614 217.186 684.696 C 209.869 695.456 188.393 703.387 165.578 702.649 C 150.702 702.168 131.936 693.91 115.39 686.222 C 102.818 680.381 86.953 678.95 73.094 675.368 C 57.101 671.235 16.086 670.317 11.322 657.343 C 7.789 651.746 10.538 636.205 12.401 630.375 C 22.028 600.258 8.555 572.543 14.558 558.102 C 18.574 547.22 43.389 538.303 53.447 532.899 C 81.179 514.508 71.053 510.587 93.251 494.916 Z" style="stroke: rgb(0, 0, 0); stroke-width: 16px; fill: rgb(255, 188, 0); fill-rule: evenodd;">
      <title>left foot</title>
    </path>
    <ellipse style="fill: rgb(255, 255, 255);" cx="239.15" cy="146.737" rx="26.778" ry="40.153" transform="matrix(0.994518, -0.104564, 0.101914, 0.994797, -12.0905, 25.980786)"/>
    <ellipse style="fill: rgb(255, 255, 255);" cx="327.581" cy="155.24" rx="36.085" ry="44.295" transform="matrix(0.979752, 0.200216, -0.138769, 0.992309, 28.947698, -74.538315)"/>
    <ellipse style="" cx="239.808" cy="153.438" rx="13.077" ry="21.305" transform="matrix(0.982767, -0.184851, 0.184851, 0.982767, -23.064868, 47.316908)"/>
    <ellipse style="" cx="325.815" cy="151.331" rx="16.886" ry="24.421" transform="matrix(0.994096, 0.108502, -0.099846, 0.995041, 17.208122, -34.658706)"/>
    <path id="beak" class="cls-2" d="M 273.059 155.364 C 292.441 152.725 306.17 162.31 321.699 170.564 C 334.439 177.335 339.911 177.328 351.085 182.468 C 357.531 185.435 365.636 191.403 365.673 197.932 C 365.786 218.071 350.163 228.286 329.193 237.393 C 320.908 240.991 302.473 250.418 293.865 254.114 C 287.258 256.952 275.108 258.885 264.924 254.064 C 250.833 247.393 232.915 232.414 222.488 223.48 C 214.195 216.374 205.917 202.234 214.149 195.351 C 230.393 181.77 237.379 177.559 250.24 165.761 C 256.24 160.257 265.696 156.367 273.059 155.364 Z" style="stroke: rgb(0, 0, 0); stroke-width: 7px; fill: rgb(255, 148, 42); fill-rule: evenodd;">
      <title>beack</title>
    </path>
    <path style="stroke: rgb(0, 0, 0); fill: none; stroke-width: 8px; stroke-linecap: round;" d="M 224.758 203.192 C 235.373 231.391 302.866 249.306 344.586 195.651"/>
    <ellipse style="" cx="265.131" cy="171.168" rx="7.023" ry="3.736" transform="matrix(0.934273, -0.356557, 0.356557, 0.934273, -44.217284, 106.697698)"/>
    <ellipse style="" cx="292.992" cy="169.819" rx="8.257" ry="3.774" transform="matrix(0.941998, 0.335618, -0.335618, 0.941998, 75.73084, -86.505555)"/>
  </g>
</svg>
