<svg xmlns="http://www.w3.org/2000/svg" xml:space="preserve" x="0" y="0" version="1.1" viewBox="0 0 64 64" width="64" height="64">
  <style>
    .st0{fill:#592acb}.st1{fill:#d9bfff}.st2{fill:#7542e5}
  </style>
  <path d="M57.5 16.5c0-2.6-.1-5.5-.1-8.8 0-1.4-1-2.5-2.3-2.8L32.7 1h-1L9.4 4.9C8 5.2 7 6.3 7.1 7.7c0 3.3 0 6.2-.1 8.8-.1 4.6-.1 8 .1 10.1C8.4 40 11.2 46.2 16 52.8c3.9 5.2 9.5 8.8 15.8 10.2.2 0 .4.1.6.1.2 0 .4 0 .6-.1 6.3-1.4 11.9-4.9 15.8-10.2 4.8-6.6 7.7-12.7 8.8-26.2 0-2.2 0-5.5-.1-10.1z" class="st0"/>
  <path d="M31.8 1.1 9.4 5C8 5.2 7.1 6.3 7.1 7.7c0 3.3-.1 6.2-.1 8.8-.1 4.6-.1 8 .1 10.1 1.3 13.5 4.1 19.6 8.8 26.2 3.9 5.2 9.5 8.8 15.8 10.2.2 0 .4.1.6.1V1c-.2 0-.3 0-.5.1z" class="st0"/>
  <path d="M31.9 5.4 13.1 8.6c-1.2.2-1.9 1.2-1.9 2.3 0 2.8 0 5.2-.1 7.4-.1 3.9-.1 6.8.1 8.4 1 11.2 3.4 16.5 7.4 22 3.2 4.4 7.9 7.5 13.3 8.5h.5V5.3c-.2 0-.4 0-.5.1z" class="st0"/>
  <path d="M53.5 18.2c0-2.1-.1-4.6-.1-7.4 0-1.2-.8-2.1-1.9-2.3L32.6 5.4h-.4v51.9h.5c5.3-1.2 10.1-4.2 13.3-8.6 4.1-5.5 6.4-10.7 7.5-22 .1-1.7.1-4.5 0-8.5z" class="st1"/>
  <path d="M57.5 16.5c0-2.6-.1-5.5-.1-8.8 0-1.4-1-2.5-2.3-2.8L32.7 1h-1L9.4 4.9C8 5.2 7 6.3 7.1 7.7c0 3.3 0 6.2-.1 8.8-.1 4.6-.1 8 .1 10.1C8.4 40 11.2 46.2 16 52.8c3.9 5.2 9.5 8.8 15.8 10.2.2 0 .4.1.6.1.2 0 .4 0 .6-.1 6.3-1.4 11.9-4.9 15.8-10.2 4.8-6.6 7.7-12.7 8.8-26.2 0-2.2 0-5.5-.1-10.1z" class="st2"/>
  <path d="M31.8 1.1 9.4 5C8 5.2 7.1 6.3 7.1 7.7c0 3.3-.1 6.2-.1 8.8-.1 4.6-.1 8 .1 10.1 1.3 13.5 4.1 19.6 8.8 26.2 3.9 5.2 9.5 8.8 15.8 10.2.2 0 .4.1.6.1V1c-.2 0-.3 0-.5.1z" class="st0"/>
  <path d="M31.9 5.4 13.1 8.6c-1.2.2-1.9 1.2-1.9 2.3 0 2.8 0 5.2-.1 7.4-.1 3.9-.1 6.8.1 8.4 1 11.2 3.4 16.5 7.4 22 3.2 4.4 7.9 7.5 13.3 8.5h.5V5.3c-.2 0-.4 0-.5.1z" class="st2"/>
  <path d="M53.5 18.2c0-2.1-.1-4.6-.1-7.4 0-1.2-.8-2.1-1.9-2.3L32.6 5.4h-.4v51.9h.5c5.3-1.2 10.1-4.2 13.3-8.6 4.1-5.5 6.4-10.7 7.5-22 .1-1.7.1-4.5 0-8.5z" class="st1"/>
</svg>
