<svg xmlns="http://www.w3.org/2000/svg" xml:space="preserve" x="0" y="0" version="1.1" viewBox="0 0 84 64" width="84" height="64">
  <style>
    .st1{fill:#592acb}.st3{fill:#ab71ff}.st4{fill:#e7dfff}.st5{fill:#cb9eff}
  </style>
  <path fill="#7542e5" d="M75.3 54c.5-.6.8-1.4.8-2.3V8.6c0-1-.4-1.9-1.1-2.5-.6-.7-1.6-1.1-2.5-1.1H11.3c-1 0-1.9.4-2.5 1.1-.7.6-1.1 1.5-1.1 2.5v43.2c0 .8.3 1.6.8 2.3l-8 1.4V59h82.8v-3.6l-8-1.4z"/>
  <path d="M71.3 8.6H12.5c-.3 0-.6.1-.8.4-.2.2-.4.5-.4.8v2.4h61.2V9.8c0-.3-.1-.6-.4-.8-.2-.3-.5-.4-.8-.4z" class="st1"/>
  <path d="M71.4 54.9h-59c-.1 0-.2-.1-.2-.1l-.2-.2c0-.1-.1-.1-.1-.2v-.2c0-.1.1-.1.1-.2s.1-.1.2-.1.2-.1.2-.1h58.9c.1 0 .3.1.4.2.1.1.2.3.2.4 0 .1-.1.3-.2.4 0 0-.1.1-.3.1z" class="st1"/>
  <path fill="none" stroke="#592acb" stroke-linecap="round" stroke-linejoin="round" stroke-width=".8291" d="M37.5 56.5h8.4"/>
  <path d="M48.5 8.6 11.4 49.2c0 .3.1.7.4.9.2.2.5.4.9.4h58.7c.3 0 .6-.1.9-.4.2-.2.4-.6.4-.9V8.6H48.5z" class="st3"/>
  <path d="M11.4 8.6v40.8L48.5 8.6H11.4z" class="st3"/>
  <path d="M23.7 12.2h36.6c.7 0 1.2.5 1.2 1.2v8.2c0 .7-.5 1.2-1.2 1.2H23.7c-.7 0-1.2-.5-1.2-1.2v-8.2c0-.6.5-1.2 1.2-1.2z" class="st4"/>
  <path d="M23.7 24.6h36.6c.7 0 1.2.5 1.2 1.2V34c0 .7-.5 1.2-1.2 1.2H23.7c-.7 0-1.2-.5-1.2-1.2v-8.2c0-.7.5-1.2 1.2-1.2z" class="st4"/>
  <path d="M23.7 36.8h36.6c.7 0 1.2.5 1.2 1.2v8.2c0 .7-.5 1.2-1.2 1.2H23.7c-.7 0-1.2-.5-1.2-1.2V38c0-.6.5-1.2 1.2-1.2z" class="st4"/>
  <path d="m45.5 32.4-1.9-1.9c.4-.5.5-1.2.5-1.8-.1-.7-.4-1.3-.9-1.7-.5-.4-1.1-.7-1.8-.7s-1.3.3-1.8.7c-.5.4-.8 1-.8 1.7s.1 1.3.5 1.8 1 .9 1.6 1c.6.1 1.3 0 1.9-.3l1.9 1.9c.1.1.1.1.2.1h.4c.1 0 .1-.1.2-.1.1-.1.1-.1.1-.2v-.4s0-.1-.1-.1zm-2.4-3.5c0 .2 0 .4-.1.7-.1.2-.2.4-.4.6-.2.2-.3.3-.6.4s-.4.1-.7.1c-.3 0-.7-.1-1-.3-.3-.2-.5-.5-.7-.8-.1-.3-.2-.7-.1-1 .1-.3.2-.7.5-.9.2-.2.5-.4.9-.5.3-.1.7 0 1 .1.3.1.6.3.8.6.3.3.4.7.4 1z" class="st5"/>
  <path d="M42.4 45.4c1.9 0 3.4-1.5 3.4-3.4s-1.5-3.4-3.4-3.4S39 40.1 39 42s1.5 3.4 3.4 3.4z" class="st5"/>
  <path d="m44.3 42-3-1.7v3.5l3-1.8z" class="st4"/>
  <path d="M43.9 15.1c-1.2 0-1.9 1.2-1.9 1.2s-.7-1.2-1.9-1.2-1.6 1.1-1.6 1.8.2 1.3 1.4 2.2c1.1.9 1.8 1.3 2.1 1.3.3 0 1-.5 2.1-1.3 1.1-.9 1.4-1.5 1.4-2.2s-.3-1.8-1.6-1.8z" class="st5"/>
</svg>
