<svg id="Layer_1" data-name="Layer 1" xmlns="http://www.w3.org/2000/svg" viewBox="0 0 250 150"><defs><style>.cls-3{fill:#0090ed}.cls-8{fill:#faa257}.cls-10{fill:#dc7f48}.cls-12{fill:#fff}</style></defs><circle cx="130.38" cy="73.68" r="72" opacity=".15" fill="#bfbfc9"/><path d="M165.55 92.92a5.24 5.24 0 0 0 1.22-3.34V25.82a5.33 5.33 0 0 0-5.31-5.31H71.13a5.33 5.33 0 0 0-5.32 5.31v63.76A5.24 5.24 0 0 0 67 92.92l-11.85 2v5.31H177.4V94.9z" fill="#9f9fad"/><path class="cls-3" d="M126 31.13L71.13 86a1.77 1.77 0 0 0 1.77 1.77h86.79a1.77 1.77 0 0 0 1.77-1.77V31.13z"/><path fill="#00a2f1" d="M71.13 31.13v54.91l54.9-54.91h-54.9z"/><path class="cls-3" d="M159.69 25.82H72.9a1.77 1.77 0 0 0-1.77 1.77v3.54h90.33v-3.54a1.78 1.78 0 0 0-1.77-1.77z"/><path d="M159.85 94.22H73.06a.89.89 0 1 1 0-1.77h86.79a.89.89 0 0 1 0 1.77z" fill="#8f8f9d"/><path stroke="#80808e" fill="none" stroke-linecap="round" stroke-linejoin="round" d="M109.76 96.53h12.4"/><path d="M190.79 52.61h-37.58a5.38 5.38 0 0 0-5.37 5.39v68a5.38 5.38 0 0 0 5.37 5.36h37.58a5.38 5.38 0 0 0 5.37-5.36V58a5.38 5.38 0 0 0-5.37-5.39z" fill="#bfbfc9"/><path class="cls-8" d="M153.21 100.92v21.48a1.8 1.8 0 0 0 1.79 1.79h34a1.79 1.79 0 0 0 1.79-1.79V63.34z"/><path fill="#fabb6a" d="M153.21 63.34v37.58l37.58-37.58h-37.58z"/><path class="cls-8" d="M189 58h-34a1.8 1.8 0 0 0-1.79 1.79v3.58h37.58v-3.61A1.79 1.79 0 0 0 189 58z"/><circle class="cls-10" cx="163.05" cy="116.13" r="2.68"/><circle class="cls-10" cx="172" cy="116.13" r="2.68"/><circle class="cls-10" cx="180.95" cy="116.13" r="2.68"/><path stroke="#9f9fad" fill="none" stroke-linecap="round" stroke-linejoin="round" d="M169.64 127.77h5.05"/><path class="cls-12" d="M116.25 55.37v5.3h7.87a6.92 6.92 0 0 1-2.92 4.64 8.48 8.48 0 0 1-5 1.43 8.62 8.62 0 0 1-8.14-5.94 8.84 8.84 0 0 1-.47-2.83 9.11 9.11 0 0 1 .46-2.82 8.64 8.64 0 0 1 8.15-5.94 8 8 0 0 1 5.52 2.12l4-3.94a13.74 13.74 0 0 0-9.56-3.71 14.3 14.3 0 0 0-12.78 20.71 14.3 14.3 0 0 0 12.78 7.88 13.6 13.6 0 0 0 9.46-3.46A14 14 0 0 0 130 58.29a12.61 12.61 0 0 0-.3-2.92zM172.2 86v3.73h5.54a4.89 4.89 0 0 1-2.05 3.27 6 6 0 0 1-3.49 1 6 6 0 0 1-5.71-4.18 5.94 5.94 0 0 1-.34-2 6.47 6.47 0 0 1 .32-2 6.07 6.07 0 0 1 5.73-4.18 5.55 5.55 0 0 1 3.89 1.5l2.83-2.77a9.64 9.64 0 0 0-6.72-2.62 10 10 0 0 0-9 14.56 10 10 0 0 0 9 5.54 9.59 9.59 0 0 0 6.66-2.43 9.82 9.82 0 0 0 3-7.39 9 9 0 0 0-.21-2.06z"/></svg>