<svg id="Layer_1" data-name="Layer 1" viewBox="0 0 64 64" xmlns="http://www.w3.org/2000/svg"><defs><style>.cls-1{fill:#ab71ff}.cls-2{fill:#7542e5}.cls-3{fill:#592acb}</style></defs><path class="cls-1" d="M64.006 31.202a1.633 1.633 0 0 0-1.356-1.636c-3.175-.556-12.073-2.666-15.082-5.675-3.01-3.011-5.103-11.943-5.677-15.116a1.636 1.636 0 0 0-1.635-1.357v23.784z"/><path class="cls-2" d="M40.358 7.418a1.637 1.637 0 0 0-1.639 1.376c-.524 3.177-2.505 12.087-5.502 15.084-2.999 2.997-11.974 5.11-15.249 5.716a1.639 1.639 0 0 0-1.36 1.638h23.75z"/><path class="cls-2" d="M40.289 31.163v23.718a1.635 1.635 0 0 0 1.635-1.358c.557-3.271 2.684-12.234 5.676-15.245 2.994-3.009 11.892-4.988 15.066-5.496.8-.13 1.384-.826 1.373-1.636h-23.75z"/><path class="cls-3" d="M16.608 31.163a1.639 1.639 0 0 0 1.36 1.638c3.275.508 12.234 2.506 15.249 5.503 3.013 2.997 4.912 12.022 5.502 15.247a1.638 1.638 0 0 0 1.639 1.377V31.163z"/><path class="cls-1" d="M27.762 13.2a.684.684 0 0 0-.554-.67c-1.323-.23-4.998-1.095-6.24-2.336-1.241-1.241-2.106-4.899-2.334-6.238a.689.689 0 0 0-.67-.556v9.8z"/><path d="M18.015 3.4a.69.69 0 0 0-.673.575c-.214 1.313-1.035 4.923-2.282 6.254-1.248 1.33-4.924 2.117-6.336 2.349a.687.687 0 0 0-.559.673h9.85z" fill="#9158ff"/><path class="cls-2" d="M17.9 13.2v9.849a.691.691 0 0 0 .674-.558c.229-1.345 1.098-5.09 2.346-6.336 1.249-1.249 4.926-2.07 6.256-2.283a.687.687 0 0 0 .574-.672H17.9z"/><path class="cls-3" d="M8.165 13.2a.672.672 0 0 0 .575.671c1.33.214 5.072 1.035 6.32 2.283 1.247 1.247 2.068 4.925 2.281 6.319.05.334.337.579.674.575V13.2z"/><path class="cls-1" d="M26.066 50.761a.882.882 0 0 0-.752-.882c-1.747-.311-6.647-1.47-8.296-3.136-1.649-1.666-2.825-6.534-3.136-8.296a.881.881 0 0 0-.882-.752v13.066z"/><path class="cls-2" d="M13.064 37.695a.896.896 0 0 0-.88.752c-.296 1.747-1.389 6.646-3.039 8.296-1.649 1.649-6.63 2.825-8.393 3.136a.881.881 0 0 0-.752.882h13.064z"/><path class="cls-2" d="M13 50.7v13.064a.882.882 0 0 0 .882-.752c.311-1.764 1.487-6.744 3.136-8.394 1.649-1.649 6.533-2.742 8.296-3.038a.897.897 0 0 0 .752-.88H13z"/><path class="cls-3" d="M0 50.7a.897.897 0 0 0 .752.88c1.779.296 6.744 1.389 8.393 3.038 1.65 1.65 2.743 6.614 3.039 8.394.07.433.443.749.88.752V50.7z"/></svg>