<svg id="Layer_1" data-name="Layer 1" viewBox="0 0 64 64" xmlns="http://www.w3.org/2000/svg"><defs><style>.cls-3{fill:#7641e5}</style></defs><path fill="#ab71ff" d="M.082 59.321h50.302l-.048-30.242H.049l.033 30.242z"/><path d="M34.944 44.318c0 7.645-8.275 12.422-14.896 8.6-6.62-3.821-6.62-13.378 0-17.2a9.927 9.927 0 0 1 4.965-1.331c5.488-.008 9.94 4.442 9.931 9.931z" fill="#d7bbff"/><path class="cls-3" d="M6.488 19.936h8.287v6.682H6.488zM26.557 44.741c2.457-1.213 2.679-4.632.4-6.153-2.28-1.52-5.351-.003-5.528 2.731a3.562 3.562 0 0 0 1.975 3.422l-1.625 3.625a.715.715 0 0 0 .65 1.007h5.201a.715.715 0 0 0 .65-1.007zM35.562 19.682h8.322v6.936h-8.322zM.082 62.375C.082 63.273.81 64 1.706 64h47.135a1.624 1.624 0 0 0 1.543-1.625v-3.251H.082z"/><path class="cls-3" d="M50.348 26.618a1.623 1.623 0 0 0-1.542-1.624H1.624c-.896 0-1.624.727-1.624 1.624v3.251h50.348zM43.883 17.646C43.034 3.258 26.927-4.815 14.892 3.114a18.724 18.724 0 0 0-8.391 14.532v2.471h8.272v-2.471c.317-8.001 9.176-12.658 15.948-8.384a10.401 10.401 0 0 1 4.841 8.384v2.471h8.321z"/></svg>