<svg id="Layer_1" data-name="Layer 1" viewBox="0 0 64 64" xmlns="http://www.w3.org/2000/svg"><defs><style>.cls-1{fill:#7542e5}.cls-2{fill:#d9bfff}</style><clipPath id="clip-path"><path class="cls-1" d="M39.92 46.61H6.49a5.73 5.73 0 0 0-5.72 5.72v5.18a5.73 5.73 0 0 0 5.72 5.72h33.43a5.74 5.74 0 0 0 5.72-5.72v-5.18a5.74 5.74 0 0 0-5.72-5.72z"/></clipPath><clipPath id="clip-path-2"><path class="cls-2" d="M36.84 55.67a.32.32 0 0 1 .15.46l-.7 1.2a.31.31 0 0 1-.22.15.35.35 0 0 1-.26-.06l-1.45-1.17.24 1.94a.37.37 0 0 1-.08.26.28.28 0 0 1-.24.1h-1.39a.3.3 0 0 1-.24-.11.33.33 0 0 1-.08-.25l.24-1.95-1.59 1.18a.28.28 0 0 1-.25.06.3.3 0 0 1-.22-.16l-.67-1.2a.3.3 0 0 1 0-.26.32.32 0 0 1 .17-.19l1.81-.75-1.81-.8a.25.25 0 0 1-.17-.19.32.32 0 0 1 0-.27l.69-1.17a.27.27 0 0 1 .21-.15.34.34 0 0 1 .26 0l1.59 1.18-.24-1.93a.33.33 0 0 1 .08-.25.32.32 0 0 1 .24-.11h1.38a.31.31 0 0 1 .32.36l-.25 2L36 52.44a.3.3 0 0 1 .26-.06.32.32 0 0 1 .21.15l.68 1.2a.32.32 0 0 1 0 .27.35.35 0 0 1-.19.19l-1.8.79zm-10.32 0a.28.28 0 0 1 .18.2.3.3 0 0 1 0 .26l-.7 1.2a.31.31 0 0 1-.22.15.32.32 0 0 1-.25-.06L24 56.25l.25 1.94a.38.38 0 0 1-.08.25.33.33 0 0 1-.25.11h-1.39a.32.32 0 0 1-.24-.11.33.33 0 0 1-.08-.25l.24-1.95-1.59 1.18a.3.3 0 0 1-.26.06.29.29 0 0 1-.21-.16l-.68-1.2a.3.3 0 0 1 0-.26.31.31 0 0 1 .18-.19l1.81-.75-1.81-.8a.29.29 0 0 1-.18-.19.32.32 0 0 1 0-.27l.69-1.17a.31.31 0 0 1 .22-.15.34.34 0 0 1 .26 0l1.56 1.22-.24-1.93a.34.34 0 0 1 .08-.26.32.32 0 0 1 .24-.11h1.38a.33.33 0 0 1 .25.11.34.34 0 0 1 .08.26L24 53.61l1.59-1.17a.28.28 0 0 1 .25-.06.29.29 0 0 1 .22.15l.67 1.2a.32.32 0 0 1 0 .27.33.33 0 0 1-.18.19l-1.8.79zm-10.33 0a.37.37 0 0 1 .18.46l-.71 1.2a.27.27 0 0 1-.21.15.34.34 0 0 1-.26-.06l-1.52-1.17.24 1.94a.33.33 0 0 1-.08.25.3.3 0 0 1-.24.11h-1.42a.32.32 0 0 1-.24-.11.29.29 0 0 1-.07-.25l.24-1.95-1.59 1.18a.3.3 0 0 1-.26.06.31.31 0 0 1-.21-.16l-.68-1.2a.39.39 0 0 1 0-.26.31.31 0 0 1 .18-.19l1.81-.75-1.81-.8a.29.29 0 0 1-.18-.19.32.32 0 0 1 0-.27l.69-1.17a.34.34 0 0 1 .47-.1l1.6 1.22-.25-1.93a.34.34 0 0 1 .08-.26.32.32 0 0 1 .24-.11h1.39a.32.32 0 0 1 .24.11.34.34 0 0 1 .08.26l-.27 1.93 1.59-1.17a.32.32 0 0 1 .27-.06.39.39 0 0 1 .21.15l.67 1.2a.32.32 0 0 1 0 .27.33.33 0 0 1-.18.19l-1.81.81z"/></clipPath></defs><path class="cls-1" d="M55.062 20.902H8.952a7.905 7.905 0 0 0-7.89 7.89v7.145a7.903 7.903 0 0 0 7.89 7.889h46.11a7.917 7.917 0 0 0 7.89-7.889v-7.145a7.918 7.918 0 0 0-7.89-7.89z"/><g transform="translate(0 -43.388) scale(1.37931)" clip-path="url(#clip-path)"><path class="cls-1" d="M-1.84 44h50.09v21.84H-1.84z"/></g><path d="M55.062 20.902V19.84H8.938A8.98 8.98 0 0 0 0 28.792v7.145a8.966 8.966 0 0 0 8.938 8.951h46.124A8.965 8.965 0 0 0 64 35.95v-7.158a8.966 8.966 0 0 0-8.938-8.952v2.124a6.898 6.898 0 0 1 6.897 6.828v7.145a6.897 6.897 0 0 1-6.897 6.896H8.952a6.897 6.897 0 0 1-6.828-6.896v-7.145a6.898 6.898 0 0 1 6.897-6.828h46.027z" fill="#5a2ac9"/><path class="cls-2" d="M50.814 33.399a.441.441 0 0 1 .207.634l-.966 1.655a.428.428 0 0 1-.303.207.482.482 0 0 1-.359-.083l-2-1.613.331 2.675a.51.51 0 0 1-.11.359.386.386 0 0 1-.331.138h-1.917a.417.417 0 0 1-.332-.152.459.459 0 0 1-.11-.345l.331-2.689-2.193 1.627a.386.386 0 0 1-.345.083.414.414 0 0 1-.303-.221l-.924-1.655a.409.409 0 0 1 0-.358.44.44 0 0 1 .234-.262l2.497-1.035-2.497-1.103a.345.345 0 0 1-.234-.262.442.442 0 0 1 0-.373l.951-1.614a.374.374 0 0 1 .29-.206.466.466 0 0 1 .359 0l2.193 1.627-.331-2.662a.453.453 0 0 1 .11-.345.442.442 0 0 1 .331-.152h1.904a.428.428 0 0 1 .441.497l-.345 2.759 2.262-1.587a.415.415 0 0 1 .359-.082c.121.025.226.1.289.207l.938 1.655a.44.44 0 0 1 0 .372.48.48 0 0 1-.262.262l-2.482 1.09zm-14.235 0a.386.386 0 0 1 .249.275.418.418 0 0 1 0 .359l-.966 1.655a.428.428 0 0 1-.303.207.439.439 0 0 1-.345-.083l-2.111-1.613.345 2.675a.517.517 0 0 1-.11.345.454.454 0 0 1-.345.152h-1.917a.442.442 0 0 1-.331-.152.456.456 0 0 1-.111-.345l.332-2.689-2.194 1.627a.41.41 0 0 1-.358.083.4.4 0 0 1-.29-.221l-.938-1.655a.416.416 0 0 1 0-.358.426.426 0 0 1 .248-.262l2.497-1.035-2.497-1.103a.405.405 0 0 1-.248-.262.442.442 0 0 1 0-.373l.952-1.614a.424.424 0 0 1 .303-.206.466.466 0 0 1 .359 0l2.152 1.682-.331-2.662a.467.467 0 0 1 .11-.358.439.439 0 0 1 .331-.152h1.904a.452.452 0 0 1 .455.51l-.318 2.731 2.194-1.614a.386.386 0 0 1 .344-.082.4.4 0 0 1 .304.207l.924 1.655a.44.44 0 0 1 0 .372.454.454 0 0 1-.248.262l-2.483 1.09zm-14.248 0c.233.117.34.39.248.634l-.979 1.655a.37.37 0 0 1-.29.207.463.463 0 0 1-.358-.083l-2.097-1.613.331 2.675a.45.45 0 0 1-.11.345.415.415 0 0 1-.331.152h-1.959a.444.444 0 0 1-.331-.152.398.398 0 0 1-.096-.345l.331-2.689-2.193 1.627a.412.412 0 0 1-.359.083.426.426 0 0 1-.29-.221l-.938-1.655a.536.536 0 0 1 0-.358.425.425 0 0 1 .249-.262l2.496-1.035-2.496-1.103a.404.404 0 0 1-.249-.262.442.442 0 0 1 0-.373l.952-1.614a.47.47 0 0 1 .648-.138l2.207 1.683-.345-2.662a.47.47 0 0 1 .111-.358.439.439 0 0 1 .331-.152h1.917c.127 0 .248.056.331.152a.466.466 0 0 1 .11.358l-.372 2.662 2.193-1.614c.105-.082.242-.113.373-.082a.535.535 0 0 1 .289.207l.924 1.655a.44.44 0 0 1 0 .372.454.454 0 0 1-.248.262l-2.497 1.117z"/><g transform="translate(0 -43.388) scale(1.37931)" clip-path="url(#clip-path-2)"><path class="cls-2" d="M6.72 48.67h33.02v12.5H6.72z"/></g></svg>