<svg data-name="Layer 1" viewBox="0 0 64 64" xmlns="http://www.w3.org/2000/svg"><path d="M25.997 23.931a1.982 1.982 0 0 0-1.999 1.983v3.183l-8.586-8.586a2.033 2.033 0 0 0-2.845 0 1.996 1.996 0 0 0 0 2.828l8.602 8.587h-3.183c-1.539 0-2.499 1.666-1.731 2.998a2 2 0 0 0 1.731.999h8.011l.762-.153a1.993 1.993 0 0 0 1.083-1.083l.153-.762v-8.011a1.983 1.983 0 0 0-1.998-1.983M51.993 7.928H11.99C5.375 7.928.009 13.287 0 19.901V51.91c-.009 6.632 5.36 12.015 11.99 12.024h8.012c3.082-.2 4.793-3.663 3.077-6.233a4.015 4.015 0 0 0-3.077-1.777H11.99a3.997 3.997 0 0 1-3.996-3.998V19.901a3.997 3.997 0 0 1 3.996-3.996h40.003a4.013 4.013 0 0 1 4.013 3.996v8.012c0 3.076 3.33 4.999 5.995 3.46A3.996 3.996 0 0 0 64 27.913v-8.012c0-6.628-5.379-12-12.007-11.99" fill="#7542e5"/><path d="M64 43.917V59.92a3.996 3.996 0 0 1-3.997 4.014H35.989a4.014 4.014 0 0 1-3.998-4.014V43.917a3.998 3.998 0 0 1 3.998-3.981h24.014A3.98 3.98 0 0 1 64 43.917" fill="#d9bfff"/></svg>