<svg id="Layer_1" data-name="Layer 1" viewBox="0 0 64 64" xmlns="http://www.w3.org/2000/svg"><defs><style>.cls-1{fill:#9059ff}</style></defs><path class="cls-1" d="M50.944 15.163c-10.367 0-13.616 4.128-18.544 4.336l8.369 23.696c2.768 2 5.631 3.968 8.832 3.968 8.207 0 14.271-7.776 14.399-21.088 0-8.273-2.415-10.912-13.056-10.912zm-1.84 18.912c-4.191 0-9.135-1.6-9.135-2.913 0-1.311 2.384-6.079 8.495-5.823 6.4.288 9.136 4.144 9.136 5.104s-4.287 3.632-8.496 3.632z"/><path d="M32 19.531v19.632c3.2 0 5.968 2.032 8.769 4.032L32.4 19.499z" fill="#c689ff"/><path d="M13.057 15.163C2.416 15.163 0 17.802 0 26.075c.096 13.312 6.16 21.088 14.4 21.088 3.2 0 6.032-2.064 8.912-4.096l8.32-23.568c-4.96-.208-8.192-4.336-18.575-4.336zm1.839 18.912c-4.208 0-8.496-2.688-8.496-3.632s2.672-4.801 9.136-5.104C21.648 25.083 24 29.563 24 31.162c0 1.601-4.912 2.913-9.104 2.913z" fill="#7641e5"/><path class="cls-1" d="M32 19.531h-.4l-8.319 23.568c2.783-2 5.52-3.936 8.719-3.936z"/></svg>