<svg width="287" height="212" viewBox="0 0 287 212" xmlns="http://www.w3.org/2000/svg"><g transform="translate(1 -2.036)" fill="none" fill-rule="evenodd"><rect stroke="#7542E5" transform="rotate(49 201.5 50)" x="162" y="33" width="79" height="34" rx="17"/><circle stroke="#FF9640" cx="81.5" cy="131.5" r="81.5"/><path d="M273.936 3.676a3.873 3.873 0 0 1-.279 5.393l-.087.086a3.674 3.674 0 0 0-.221 5.158c1.353 1.497 3.649 1.639 5.16.318l.098-.082a3.895 3.895 0 0 1 5.444.334 3.88 3.88 0 0 1-.286 5.483c-4.706 4.228-11.954 3.84-16.185-.86-4.253-4.706-3.884-11.944.821-16.172a3.89 3.89 0 0 1 5.452.245l.042.048.04.05z" fill="#F80089"/></g></svg>