<svg id="Layer_1" data-name="Layer 1" viewBox="0 0 131 138" xmlns="http://www.w3.org/2000/svg"><defs><style>.cls-2,.cls-3,.cls-4{fill:none;stroke:#d0d0d8;stroke-linecap:round;stroke-linejoin:round;stroke-width:2px}.cls-3{stroke-dasharray:2.94 4.9}.cls-4{stroke-dasharray:2.88 4.8}.cls-7{fill:#9f9fad}.cls-9{fill:#fff}</style></defs><rect x="-.06" y="19.97" width="131" height="100.01" rx="1.63" fill="#efeff4"/><path class="cls-2" d="M123.271 111.03v1.383h-1.383"/><path class="cls-3" d="M117.371 112.413H11.25"/><path class="cls-2" d="M8.992 112.413H7.609v-1.383"/><path class="cls-4" d="M7.609 106.615V52.222"/><path class="cls-2" d="M7.609 50.01v-1.382h1.383"/><path class="cls-3" d="M13.509 48.637H119.63"/><path class="cls-2" d="M121.888 48.628h1.383v1.382"/><path class="cls-4" d="M123.271 54.434v54.384"/><path fill="#faa257" d="M13.158 53.429h104.573v54.182H13.158z"/><path d="M130.94 29.916v-8.619a1.319 1.319 0 0 0-1.327-1.3H1.267A1.319 1.319 0 0 0-.06 21.325v8.618z" fill="#80808e"/><path class="cls-7" d="M-.06 27.989h131v14.343h-131z"/><path fill="#d5d5db" d="M22.818 32.395h103.126v5.512H22.818z"/><path class="cls-7" d="M12.246 22.173h21.135v10.222H12.246z"/><circle class="cls-9" cx="45.843" cy="72.39" r="10.296"/><path class="cls-9" d="M44.065 98.781l12.084-12.085 4.857 4.857 13.467-13.466 20.859 20.868-51.267-.174z"/></svg>