<svg id="Layer_1" data-name="Layer 1" xmlns="http://www.w3.org/2000/svg" viewBox="0 0 250 150"><defs><style>.cls-2,.cls-3,.cls-4{fill:none;stroke:#d0d0d8;stroke-linecap:round;stroke-linejoin:round;stroke-width:2px}.cls-3{stroke-dasharray:2.94 4.9}.cls-4{stroke-dasharray:2.88 4.8}.cls-7{fill:#9f9fad}.cls-9{fill:#fff}</style></defs><rect x="53.94" y="19.97" width="142.12" height="108.5" rx="1.63" fill="#efeff4"/><path class="cls-2" d="M187.74 118.76v1.5h-1.5"/><path class="cls-3" d="M181.34 120.26H66.21"/><path class="cls-2" d="M63.76 120.26h-1.5v-1.5"/><path class="cls-4" d="M62.26 113.97V54.96"/><path class="cls-2" d="M62.26 52.56v-1.5h1.5"/><path class="cls-3" d="M68.66 51.07h115.13"/><path class="cls-2" d="M186.24 51.06h1.5v1.5"/><path class="cls-4" d="M187.74 57.36v59"/><path fill="#faa257" d="M68.28 56.27h113.45v58.78H68.28z"/><path d="M196.06 30.76v-9.35a1.43 1.43 0 0 0-1.44-1.41H55.38a1.43 1.43 0 0 0-1.44 1.44v9.35z" fill="#80808e"/><path class="cls-7" d="M53.94 28.67h142.12v15.56H53.94z"/><path fill="#d5d5db" d="M78.76 33.45h111.88v5.98H78.76z"/><path class="cls-7" d="M67.29 22.36h22.93v11.09H67.29z"/><circle class="cls-9" cx="103.74" cy="76.84" r="11.17"/><path class="cls-9" d="M101.81 105.47l13.11-13.11 5.27 5.27 14.61-14.61 22.63 22.64-55.62-.19z"/></svg>