<svg data-name="Layer 1" viewBox="0 0 64 64" xmlns="http://www.w3.org/2000/svg"><path d="M61.389 55.503l-.187-.189L43.744 37.97C54.444 22.849 44.762 1.814 26.318.108 7.871-1.598-5.504 17.303 2.241 34.131c5.964 12.958 21.828 17.914 34.107 10.652l17.664 17.645c2.666 2.811 7.375 1.682 8.475-2.033a5.029 5.029 0 0 0-1.173-4.892zM39.596 24.08c.011 8.566-6.921 15.522-15.485 15.542-12.152.217-19.98-12.802-14.092-23.432 5.888-10.631 21.077-10.902 27.338-.487a15.793 15.793 0 0 1 2.258 7.965v.412z" fill="#7542e5"/></svg>