<svg id="Layer_1" data-name="Layer 1" viewBox="0 0 171 138" xmlns="http://www.w3.org/2000/svg"><defs><style>.cls-3{fill:#0090ed}.cls-6{fill:#1a59b2}.cls-9{fill:#592acb}.cls-14{fill:#fa7050}.cls-16{fill:#dc5c3b}</style></defs><circle cx="85.304" cy="69.094" r="66.154" opacity=".15" fill="#bfbfc9"/><rect x="109.432" y="7.746" width="61.468" height="79.744" rx="3" fill="#e0e0e6"/><path class="cls-3" d="M114.42 69.214v9.968c0 .917.739 1.658 1.654 1.665h48.183c.919 0 1.663-.745 1.663-1.665V17.696z"/><path fill="#00a2f1" d="M114.42 17.714v51.5l51.5-51.5h-51.5z"/><path class="cls-3" d="M164.257 12.726h-48.183a1.662 1.662 0 0 0-1.654 1.662v3.308h51.5v-3.308a1.672 1.672 0 0 0-1.663-1.662z"/><circle cx="125.217" cy="73.367" r="2.489" fill="#ffd567"/><circle class="cls-6" cx="135.186" cy="73.367" r="2.489"/><circle class="cls-6" cx="145.154" cy="73.367" r="2.489"/><circle class="cls-6" cx="155.123" cy="73.367" r="2.489"/><path stroke="#5b5b66" fill="none" stroke-linecap="round" stroke-linejoin="round" d="M137.675 84.173h4.687"/><path d="M101.309 94.757a4.839 4.839 0 0 0 1.121-3.069V33.104a4.896 4.896 0 0 0-4.879-4.887H14.546a4.896 4.896 0 0 0-4.879 4.887v58.584a4.834 4.834 0 0 0 1.122 3.069L-.1 96.595v4.888h112.298v-4.888z" fill="#9f9fad"/><path class="cls-9" d="M64.998 37.984L14.546 88.445c.004.895.73 1.62 1.626 1.626h79.743c.9 0 1.631-.727 1.636-1.626V37.984z"/><path fill="#6736d8" d="M14.546 37.984v50.451l50.452-50.451H14.546z"/><path class="cls-9" d="M95.915 33.104H16.172c-.899 0-1.626.729-1.626 1.627v3.253h83.005v-3.253a1.636 1.636 0 0 0-1.636-1.627z"/><path d="M96.072 95.942H16.328a.817.817 0 1 1 0-1.626h79.744a.818.818 0 0 1 0 1.626z" fill="#8f8f9d"/><path stroke="#80808e" fill="none" stroke-linecap="round" stroke-linejoin="round" d="M50.049 98.064h11.393"/><path d="M124.362 58.564H89.834a4.954 4.954 0 0 0-4.935 4.934v62.48a4.947 4.947 0 0 0 4.935 4.935h34.528a4.946 4.946 0 0 0 4.934-4.935v-62.48a4.952 4.952 0 0 0-4.934-4.934z" fill="#bfbfc9"/><path class="cls-14" d="M89.834 102.962v19.736a1.643 1.643 0 0 0 1.644 1.635h31.24c.904 0 1.639-.73 1.644-1.635V68.433z"/><path fill="#f98a61" d="M89.834 68.433v34.529l34.528-34.529H89.834z"/><path class="cls-14" d="M122.718 63.498h-31.24a1.653 1.653 0 0 0-1.644 1.645v3.29h34.528v-3.29c0-.909-.736-1.645-1.644-1.645z"/><circle class="cls-16" cx="98.874" cy="116.938" r="2.463"/><circle class="cls-16" cx="107.097" cy="116.938" r="2.463"/><circle class="cls-16" cx="115.321" cy="116.938" r="2.463"/><path stroke="#9f9fad" fill="none" stroke-linecap="round" stroke-linejoin="round" d="M104.93 127.623h4.639"/><path d="M147.002 44.158a1.157 1.157 0 0 0-.497 0 1.071 1.071 0 0 0-.982.808 5.45 5.45 0 0 1-5.284 4.144l-.716-.054a5.4 5.4 0 0 1-3.602-2.133h2.149a1.093 1.093 0 1 0 0-2.186h-4.364c-.603 0-1.093.49-1.093 1.093v4.374a1.093 1.093 0 1 0 2.188 0v-.965a7.973 7.973 0 0 0 4.464 2.012c.326.048.655.073.984.073a7.572 7.572 0 0 0 7.635-5.898 1.093 1.093 0 0 0-.882-1.268zm.918-7.038a1.093 1.093 0 1 0-2.187 0v1.001a8.12 8.12 0 0 0-4.51-2.049 7.31 7.31 0 0 0-1.003-.073h-.11a7.535 7.535 0 0 0-7.515 5.88 1.093 1.093 0 0 0 .918 1.277.753.753 0 0 0 .405 0c.5.003.938-.339 1.055-.826a5.46 5.46 0 0 1 5.23-4.135h.055c.249.004.496.023.744.055a5.413 5.413 0 0 1 3.593 2.132h-2.188a1.093 1.093 0 0 0 0 2.187h4.375a1.095 1.095 0 0 0 1.138-1.076V37.12zm-81.7 26.893a2.252 2.252 0 0 0-2.269 1.305 8.399 8.399 0 0 1-8.141 6.377 8.506 8.506 0 0 1-1.104-.084 8.262 8.262 0 0 1-5.512-3.279h3.317c1.295 0 2.103-1.401 1.456-2.523a1.68 1.68 0 0 0-1.456-.84h-6.799c-.929 0-1.682.753-1.682 1.681v6.735c0 1.294 1.401 2.104 2.523 1.457.519-.302.84-.855.84-1.457v-1.543a12.352 12.352 0 0 0 6.882 3.105 10.55 10.55 0 0 0 1.516.12c5.835 0 10.778-3.823 11.76-9.088a1.69 1.69 0 0 0-1.331-1.966zm1.377-10.832c-.095-1.299-1.559-2.005-2.636-1.274a1.694 1.694 0 0 0-.735 1.274v1.543a12.358 12.358 0 0 0-6.864-3.105 10.893 10.893 0 0 0-1.552-.12h-.165c-5.763.092-10.631 3.868-11.551 9.088a1.69 1.69 0 0 0 1.343 1.965h.312c.108-.008.215-.028.321-.054a1.691 1.691 0 0 0 1.608-1.251 8.385 8.385 0 0 1 8.048-6.377h.084c.381.009.762.039 1.139.094a8.272 8.272 0 0 1 5.513 3.279h-3.308a1.681 1.681 0 1 0 0 3.364h6.726a1.68 1.68 0 0 0 1.717-1.646v-6.78zm46.328 39.187a1.054 1.054 0 0 0-.487 0 1.078 1.078 0 0 0-.984.808 5.438 5.438 0 0 1-5.283 4.145 6.373 6.373 0 0 1-.717-.056 5.354 5.354 0 0 1-3.601-2.131h2.15a1.093 1.093 0 0 0 0-2.187h-4.374c-.603 0-1.09.491-1.084 1.093v4.373a1.094 1.094 0 1 0 2.178 0v-.964a8.116 8.116 0 0 0 4.475 2.022c.326.043.654.068.982.073a7.573 7.573 0 0 0 7.636-5.899 1.092 1.092 0 0 0-.891-1.277zm.918-7.029a1.093 1.093 0 1 0-2.186 0v1.002a8.083 8.083 0 0 0-4.466-2.022 7.306 7.306 0 0 0-1.001-.074h-.11a7.537 7.537 0 0 0-7.517 5.89 1.097 1.097 0 0 0 .874 1.278h.201c.067.003.135.003.203 0 .5.001.938-.341 1.057-.828a5.448 5.448 0 0 1 5.228-4.144h.054c.25.005.497.023.745.056a5.337 5.337 0 0 1 3.592 2.131h-2.149a1.094 1.094 0 1 0 0 2.177h4.372a1.09 1.09 0 0 0 1.103-1.092v-4.374z" fill="#fff"/></svg>