<svg id="Layer_1" data-name="Layer 1" xmlns="http://www.w3.org/2000/svg" viewBox="0 0 250 150"><defs><style>.cls-3{fill:#0090ed}.cls-6{fill:#1a59b2}.cls-9{fill:#592acb}.cls-14{fill:#fa7050}.cls-16{fill:#dc5c3b}.cls-18{fill:#fff}</style></defs><circle cx="123.85" cy="74.94" r="72" opacity=".15" fill="#bfbfc9"/><rect x="150.11" y="8.17" width="66.9" height="86.79" rx="3" fill="#e0e0e6"/><path class="cls-3" d="M155.54 75.07v10.85a1.81 1.81 0 0 0 1.8 1.81h52.44a1.81 1.81 0 0 0 1.81-1.81V19z"/><path fill="#00a2f1" d="M155.54 19.02v56.05l56.05-56.05h-56.05z"/><path class="cls-3" d="M209.78 13.59h-52.44a1.81 1.81 0 0 0-1.8 1.81V19h56.05v-3.6a1.82 1.82 0 0 0-1.81-1.81z"/><circle cx="167.29" cy="79.59" r="2.71" fill="#ffd567"/><circle class="cls-6" cx="178.14" cy="79.59" r="2.71"/><circle class="cls-6" cx="188.99" cy="79.59" r="2.71"/><circle class="cls-6" cx="199.84" cy="79.59" r="2.71"/><path stroke="#5b5b66" fill="none" stroke-linecap="round" stroke-linejoin="round" d="M180.85 91.35h5.1"/><path d="M141.27 102.87a5.26 5.26 0 0 0 1.22-3.34V35.77a5.33 5.33 0 0 0-5.31-5.32H46.84a5.33 5.33 0 0 0-5.31 5.32v63.76a5.26 5.26 0 0 0 1.22 3.34l-11.85 2v5.32h122.22v-5.32z" fill="#9f9fad"/><path class="cls-9" d="M101.75 41.08L46.84 96a1.78 1.78 0 0 0 1.77 1.77h86.79a1.78 1.78 0 0 0 1.78-1.77V41.08z"/><path fill="#6736d8" d="M46.84 41.08v54.91l54.91-54.91H46.84z"/><path class="cls-9" d="M135.4 35.77H48.61a1.77 1.77 0 0 0-1.77 1.77v3.54h90.34v-3.54a1.78 1.78 0 0 0-1.78-1.77z"/><path d="M135.57 104.16H48.78a.89.89 0 1 1 0-1.77h86.79a.89.89 0 0 1 0 1.77z" fill="#8f8f9d"/><path stroke="#80808e" fill="none" stroke-linecap="round" stroke-linejoin="round" d="M85.48 106.47h12.4"/><path d="M166.36 63.48h-37.58a5.39 5.39 0 0 0-5.37 5.37v68a5.38 5.38 0 0 0 5.37 5.37h37.58a5.38 5.38 0 0 0 5.37-5.37v-68a5.39 5.39 0 0 0-5.37-5.37z" fill="#bfbfc9"/><path class="cls-14" d="M128.78 111.8v21.48a1.79 1.79 0 0 0 1.79 1.78h34a1.79 1.79 0 0 0 1.79-1.78V74.22z"/><path fill="#f98a61" d="M128.78 74.22v37.58l37.58-37.58h-37.58z"/><path class="cls-14" d="M164.57 68.85h-34a1.8 1.8 0 0 0-1.79 1.79v3.58h37.58v-3.58a1.79 1.79 0 0 0-1.79-1.79z"/><circle class="cls-16" cx="138.62" cy="127.01" r="2.68"/><circle class="cls-16" cx="147.57" cy="127.01" r="2.68"/><circle class="cls-16" cx="156.52" cy="127.01" r="2.68"/><path stroke="#9f9fad" fill="none" stroke-linecap="round" stroke-linejoin="round" d="M145.21 138.64h5.05"/><path class="cls-18" d="M191 47.8a1.22 1.22 0 0 0-.54 0 1.17 1.17 0 0 0-1.07.88 5.93 5.93 0 0 1-5.75 4.51l-.78-.06a5.87 5.87 0 0 1-3.92-2.32h2.34a1.19 1.19 0 0 0 0-2.38h-4.75a1.19 1.19 0 0 0-1.19 1.19v4.76a1.19 1.19 0 1 0 2.38 0v-1.05a8.68 8.68 0 0 0 4.86 2.19 7.59 7.59 0 0 0 1.07.08 8.24 8.24 0 0 0 8.31-6.42 1.19 1.19 0 0 0-.96-1.38zM192 40.14a1.19 1.19 0 0 0-2.38 0v1.09a8.84 8.84 0 0 0-4.91-2.23 7.88 7.88 0 0 0-1.09-.08h-.12a8.2 8.2 0 0 0-8.18 6.4 1.19 1.19 0 0 0 1 1.39.82.82 0 0 0 .44 0 1.18 1.18 0 0 0 1.15-.9 5.94 5.94 0 0 1 5.69-4.5h.06a7.36 7.36 0 0 1 .81.06 5.89 5.89 0 0 1 3.91 2.32H186a1.19 1.19 0 1 0 0 2.38h4.76A1.19 1.19 0 0 0 192 44.9v-4.76zM103.08 69.41a2.45 2.45 0 0 0-2.47 1.42 9.14 9.14 0 0 1-8.86 6.94 9.55 9.55 0 0 1-1.2-.09 9 9 0 0 1-6-3.57h3.61a1.83 1.83 0 0 0 0-3.66h-7.4a1.83 1.83 0 0 0-1.83 1.83v7.33a1.83 1.83 0 0 0 3.66 0v-1.68a13.44 13.44 0 0 0 7.49 3.38 11.35 11.35 0 0 0 1.65.13c6.35 0 11.73-4.16 12.8-9.89a1.84 1.84 0 0 0-1.45-2.14zM104.58 57.62a1.84 1.84 0 0 0-3.67 0v1.68a13.44 13.44 0 0 0-7.47-3.38 11.91 11.91 0 0 0-1.69-.13h-.18C85.3 55.89 80 60 79 65.68a1.84 1.84 0 0 0 1.46 2.14h.34a2.14 2.14 0 0 0 .35-.06 1.84 1.84 0 0 0 1.75-1.36 9.12 9.12 0 0 1 8.76-6.94h.09a10.2 10.2 0 0 1 1.24.1 9 9 0 0 1 6 3.57h-3.6a1.83 1.83 0 1 0 0 3.66h7.32a1.83 1.83 0 0 0 1.87-1.79v-7.38zM155 100.27a1.18 1.18 0 0 0-.53 0 1.17 1.17 0 0 0-1.07.88 5.92 5.92 0 0 1-5.75 4.51 6.83 6.83 0 0 1-.78-.06 5.83 5.83 0 0 1-3.92-2.32h2.34a1.19 1.19 0 0 0 0-2.38h-4.76a1.18 1.18 0 0 0-1.18 1.19v4.76a1.19 1.19 0 1 0 2.37 0v-1.05a8.82 8.82 0 0 0 4.87 2.2 9.45 9.45 0 0 0 1.07.08 8.24 8.24 0 0 0 8.31-6.42 1.19 1.19 0 0 0-.97-1.39zM156 92.62a1.19 1.19 0 0 0-2.38 0v1.09a8.79 8.79 0 0 0-4.86-2.2 7.88 7.88 0 0 0-1.09-.08h-.12a8.2 8.2 0 0 0-8.18 6.41 1.19 1.19 0 0 0 .95 1.39h.22a1.7 1.7 0 0 0 .22 0 1.18 1.18 0 0 0 1.15-.9 5.93 5.93 0 0 1 5.69-4.51h.06a7.36 7.36 0 0 1 .81.06 5.81 5.81 0 0 1 3.91 2.32h-2.34a1.19 1.19 0 1 0 0 2.37h4.76a1.19 1.19 0 0 0 1.2-1.19v-4.76z"/></svg>