<svg width="150" height="112" fill="none" xmlns="http://www.w3.org/2000/svg"><rect x="23.976" width="126.025" height="78.689" rx="21" fill="#9EEEFD"/><path d="M132.787 102.136V61.45a4 4 0 00-4.795-3.92l-33.453 6.78c-3.115.632-4.285 4.468-2.053 6.73l33.453 33.906c2.512 2.546 6.848.767 6.848-2.81z" fill="#9EEEFD"/><path d="M51.64 22.131h71.311" stroke="#20123A" stroke-width="5" stroke-linecap="round" stroke-linejoin="round"/><path d="M51.64 39.037h71.311M76.23 55.942h46.721" stroke="#20123A" stroke-width="5" stroke-linecap="round"/><g clip-path="url(#clip0)"><path d="M35.825 101.198c11.92-9.185 18.96-14.765 23.063-21.993 6.218-10.942 2.452-20.21-5.417-23.847-7.39-3.398-17.051-.2-20.474 7.131-3.417-7.33-13.078-10.53-20.468-7.125C4.66 58.994.894 68.27 7.113 79.204c4.005 7.074 13.479 14.605 25.049 23.526.46.354 1.107.36 1.572.019l2.09-1.551z" fill="#764FDE"/></g><defs><clipPath id="clip0"><path fill="#fff" transform="translate(4 54)" d="M0 0h58v49H0z"/></clipPath></defs></svg>
