<svg width="150" height="113" fill="none" xmlns="http://www.w3.org/2000/svg"><rect x="23.976" width="126.025" height="78.689" rx="21" fill="#EB443F"/><path d="M132.787 102.136V61.45a4 4 0 00-4.795-3.92l-33.453 6.78c-3.115.632-4.285 4.468-2.053 6.73l33.453 33.906c2.512 2.546 6.848.767 6.848-2.81z" fill="#EB443F"/><path d="M35.092 42.06c.733-1.486 2.853-1.486 3.587 0l8.581 17.388a2 2 0 001.506 1.094l19.189 2.789c1.64.238 2.295 2.254 1.108 3.411L55.178 80.277a2 2 0 00-.575 1.77l3.278 19.111c.28 1.634-1.435 2.88-2.902 2.109l-17.163-9.024a2 2 0 00-1.861 0l-17.163 9.024c-1.468.771-3.183-.475-2.902-2.109l3.277-19.111a2 2 0 00-.575-1.77L4.707 66.742c-1.187-1.157-.532-3.173 1.109-3.411l19.188-2.789a2 2 0 001.506-1.094l8.582-17.388z" fill="#FCBC63"/><path d="M51.64 22.131h71.311M51.64 39.037h71.311M76.23 55.942h46.721" stroke="#fff" stroke-width="5" stroke-linecap="round"/></svg>
