<svg xmlns="http://www.w3.org/2000/svg" xmlns:xlink="http://www.w3.org/1999/xlink" width="249" height="193" viewBox="0 0 249 193"><defs><path id="a" d="M.177.504h67.2v19.2H.177z"/><path id="c" d="M.391.156h58.351v50.356H.391z"/></defs><g fill="none" fill-rule="evenodd"><path fill="#FF8AC5" d="M231.577 141.354h-84a9.6 9.6 0 0 1-9.6-9.6c0-5.3 4.298-9.6 9.6-9.6h84a9.6 9.6 0 1 1 0 19.2"/><path fill="#FF4AA2" d="M190.502 128.154l-.104 2.214 1.846-1.158.933 1.572-1.97 1.035 1.951 1.075-.934 1.551-1.826-1.179.083 2.09h-1.868l.125-2.069-1.765 1.117-.933-1.572 1.868-1.034-1.93-1.055.954-1.572 1.806 1.137-.105-2.152zM152.101 128.154l-.104 2.214 1.846-1.158.934 1.572-1.971 1.035 1.951 1.075-.933 1.551-1.827-1.179.083 2.09h-1.867l.125-2.069-1.765 1.117-.934-1.572 1.869-1.034-1.931-1.055.955-1.572 1.806 1.137-.105-2.152zM161.701 128.154l-.104 2.214 1.846-1.158.934 1.572-1.971 1.035 1.951 1.075-.933 1.551-1.827-1.179.083 2.09h-1.867l.125-2.069-1.765 1.117-.934-1.572 1.869-1.034-1.931-1.055.955-1.572 1.806 1.137-.105-2.152zM171.302 128.154l-.105 2.214 1.846-1.158.934 1.572-1.971 1.035 1.952 1.075-.934 1.551-1.827-1.179.083 2.09h-1.867l.125-2.069-1.764 1.117-.935-1.572 1.869-1.034-1.93-1.055.954-1.572 1.806 1.137-.105-2.152zM180.902 128.154l-.104 2.214 1.846-1.158.934 1.572-1.971 1.035 1.951 1.075-.934 1.551-1.826-1.179.083 2.09h-1.867l.124-2.069-1.764 1.117-.934-1.572 1.869-1.034-1.931-1.055.954-1.572 1.806 1.137-.105-2.152zM200.101 128.154l-.104 2.214 1.846-1.158.934 1.572-1.971 1.035 1.951 1.075-.933 1.551-1.827-1.179.083 2.09h-1.867l.125-2.069-1.765 1.117-.934-1.572 1.869-1.034-1.931-1.055.955-1.572 1.806 1.137-.105-2.152zM209.701 128.154l-.104 2.214 1.846-1.158.934 1.572-1.971 1.035 1.951 1.075-.933 1.551-1.827-1.179.083 2.09h-1.867l.125-2.069-1.765 1.117-.934-1.572 1.869-1.034-1.931-1.055.955-1.572 1.806 1.137-.105-2.152zM219.302 128.154l-.105 2.214 1.846-1.158.934 1.572-1.971 1.035 1.952 1.075-.934 1.551-1.827-1.179.083 2.09h-1.867l.125-2.069-1.764 1.117-.935-1.572 1.869-1.034-1.93-1.055.954-1.572 1.806 1.137-.105-2.152zM228.902 128.154l-.104 2.214 1.846-1.158.934 1.572-1.971 1.035 1.951 1.075-.934 1.551-1.826-1.179.083 2.09h-1.867l.124-2.069-1.764 1.117-.934-1.572 1.869-1.034-1.931-1.055.954-1.572 1.806 1.137-.105-2.152z"/><g transform="translate(181 147.844)"><mask id="b" fill="#fff"><use xlink:href="#a"/></mask><path fill="#FF4AA2" d="M57.777 19.704h-48c-5.302 0-9.6-4.298-9.6-9.601 0-5.301 4.298-9.6 9.6-9.6h48c5.302 0 9.6 4.299 9.6 9.6 0 5.303-4.298 9.6-9.6 9.6" mask="url(#b)"/></g><path fill="#C50284" d="M220.502 154.347l-.104 2.214 1.846-1.157.933 1.572-1.97 1.034 1.951 1.075-.934 1.552-1.826-1.179.083 2.09h-1.868l.125-2.07-1.765 1.117-.933-1.571 1.868-1.036-1.93-1.053.954-1.572 1.806 1.136-.105-2.152zM191.701 154.347l-.104 2.214 1.846-1.157.934 1.572-1.971 1.034 1.951 1.075-.933 1.552-1.827-1.179.083 2.09h-1.867l.125-2.07-1.765 1.117-.934-1.571 1.869-1.036-1.931-1.053.955-1.572 1.806 1.136-.105-2.152zM201.302 154.347l-.105 2.214 1.846-1.157.934 1.572-1.971 1.034 1.952 1.075-.934 1.552-1.827-1.179.083 2.09h-1.867l.125-2.07-1.764 1.117-.935-1.571 1.869-1.036-1.93-1.053.954-1.572 1.806 1.136-.105-2.152zM210.902 154.347l-.104 2.214 1.846-1.157.934 1.572-1.971 1.034 1.951 1.075-.934 1.552-1.826-1.179.083 2.09h-1.867l.124-2.07-1.764 1.117-.934-1.571 1.869-1.036-1.931-1.053.954-1.572 1.806 1.136-.105-2.152zM230.101 154.347l-.104 2.214 1.846-1.157.934 1.572-1.971 1.034 1.951 1.075-.933 1.552-1.827-1.179.083 2.09h-1.867l.125-2.07-1.765 1.117-.934-1.571 1.869-1.036-1.931-1.053.955-1.572 1.806 1.136-.105-2.152zM239.701 154.347l-.104 2.214 1.846-1.157.934 1.572-1.971 1.034 1.951 1.075-.933 1.552-1.827-1.179.083 2.09h-1.867l.125-2.07-1.765 1.117-.934-1.571 1.869-1.036-1.931-1.053.955-1.572 1.806 1.136-.105-2.152z"/><path fill="#9059FF" d="M32.736 103.267c-5.458 0-9.898 4.44-9.898 9.898v24.04c0 5.456 4.44 9.896 9.898 9.896 5.458 0 9.898-4.44 9.898-9.897v-24.039c0-5.458-4.44-9.898-9.898-9.898m0 53.733c-10.916 0-19.796-8.88-19.796-19.796v-24.039c0-10.916 8.88-19.794 19.796-19.794 10.916 0 19.796 8.879 19.796 19.794v24.04c0 10.914-8.88 19.794-19.796 19.794"/><path fill="#C689FF" d="M5.303 125.184h54.866a4.381 4.381 0 0 1 4.382 4.382v42.14a4.381 4.381 0 0 1-4.382 4.383H5.303a4.382 4.382 0 0 1-4.383-4.382v-42.14a4.382 4.382 0 0 1 4.383-4.383"/><path fill="#592BCB" d="M34.761 147.669c2.496-.848 4.304-3.186 4.304-5.97a6.33 6.33 0 0 0-12.659 0c0 2.784 1.808 5.122 4.304 5.97l-4.115 12.042c-.77 2.254.905 4.596 3.286 4.596h5.71c2.38 0 4.055-2.342 3.285-4.596l-4.115-12.042z"/><path fill="#FF4AA2" d="M91.032 10.903H0v-5.81a3.875 3.875 0 0 1 3.874-3.875h83.284a3.874 3.874 0 0 1 3.874 3.874v5.811z"/><path fill="#FF8AC5" d="M32.926 10.903V1.218H15.495v9.685H0v48.421a3.873 3.873 0 0 0 3.872 3.874h83.284a3.873 3.873 0 0 0 3.874-3.874v-48.42H32.926z"/><path fill="#FFDEF0" d="M71.966 34.004a4.193 4.193 0 0 1 0 6.094c-4.775 4.513-14.825 12.448-26.45 12.448-11.624 0-21.674-7.935-26.45-12.448a4.193 4.193 0 0 1 0-6.094c4.776-4.514 14.826-12.448 26.45-12.448 11.625 0 21.675 7.934 26.45 12.448"/><path fill="#FF298A" d="M38.326 29.86c-3.971 3.972-3.971 10.41 0 14.381 3.97 3.971 10.409 3.971 14.38 0 3.97-3.972 3.97-10.409 0-14.38-3.971-3.972-10.41-3.972-14.38 0"/><path fill="#FF8AC5" d="M38.326 44.241c3.97 3.971 10.409 3.971 14.38 0 3.97-3.972 3.97-10.409 0-14.38"/><path stroke="#FF298A" stroke-linecap="round" stroke-linejoin="round" stroke-width="4.842" d="M62.089 18.929L28.194 52.825"/><path fill="#9059FF" d="M244.936 15.679h-51.418a3.429 3.429 0 0 0-3.428 3.429V52.53a3.428 3.428 0 0 0 3.428 3.427h11.812l-.012 7.825c-.002 1.536 1.862 2.298 2.937 1.2l8.843-9.025h27.838a3.428 3.428 0 0 0 3.428-3.427V19.108a3.429 3.429 0 0 0-3.428-3.43"/><g transform="translate(174 -.156)"><mask id="d" fill="#fff"><use xlink:href="#c"/></mask><path fill="#C689FF" d="M55.31.156H3.822A3.432 3.432 0 0 0 .391 3.589v33.465a3.432 3.432 0 0 0 3.432 3.433H31.24l9.313 9.507c1.077 1.099 2.944.335 2.941-1.203l-.013-8.304h11.83a3.433 3.433 0 0 0 3.432-3.433V3.589A3.433 3.433 0 0 0 55.31.156" mask="url(#d)"/></g><path stroke="#9059FF" stroke-linecap="round" stroke-linejoin="round" stroke-width="3.296" d="M184.31 20.484h38.512M184.31 9.662h38.512M184.31 30.669h23.36"/><path fill="#2C1B52" fill-opacity=".4" d="M124.471 15.93H52.566a5.988 5.988 0 0 0-5.988 5.987v92.372a59.866 59.866 0 0 0 29.98 51.872l44.923 25.883a5.988 5.988 0 0 0 5.981 0l44.923-25.883a59.866 59.866 0 0 0 29.98-51.872v-92.36a5.998 5.998 0 0 0-5.999-6h-71.895z"/><path fill="#E31587" d="M124.471 16.099H59.102a5.444 5.444 0 0 0-5.443 5.442v92.002a54.428 54.428 0 0 0 27.254 47.159l40.84 23.53a5.45 5.45 0 0 0 5.437 0l40.84-23.53a54.428 54.428 0 0 0 27.253-47.159V21.551a5.452 5.452 0 0 0-5.453-5.452h-65.359z"/><path fill="#FFF" d="M155.074 73.284c0-16.9-13.702-30.603-30.603-30.603-16.9 0-30.603 13.702-30.603 30.603 0 16.902 13.702 30.604 30.603 30.604 16.901 0 30.603-13.702 30.603-30.604m0 31.587c-8.269 0-21.176 8.964-30.603 9.053-9.426-.089-22.334-9.053-30.603-9.053-4.325 0-12.974 2.6-12.974 11.652 0 10.218 19.272 28.235 43.577 28.235 24.306 0 43.577-18.017 43.577-28.235 0-9.052-8.649-11.652-12.974-11.652"/></g></svg>
