<svg width="1441" height="641" fill="none" xmlns="http://www.w3.org/2000/svg"><g clip-path="url(#a)" stroke="#FF9AA2" stroke-width="2" stroke-miterlimit="10"><path d="M1450.69-146.685c-414.06 250.505-1046.749 250.505-1460.811 0"/><path d="M1450.5-58.41c-414.07 250.505-1046.751 250.505-1460.813 0"/><path d="M1450.69 29.013c-414.06 250.506-1046.749 250.506-1460.811 0"/><path d="M1450.69 116.868c-414.06 250.506-1046.749 250.506-1460.811 0"/><path d="M1450.69 204.723c-414.06 250.506-1046.749 250.506-1460.811 0"/><path d="M1450.69 292.567c-414.06 250.506-1046.749 250.506-1460.811 0"/><path d="M1450.69 380.422c-414.06 250.506-1046.749 250.506-1460.811 0"/><path d="M1450.69 468.279c-414.06 250.505-1046.749 250.505-1460.811 0"/><path d="M1450.69 556.121c-414.06 250.505-1046.749 250.505-1460.811 0M110.91-262.648v971.265M237.199-213.276v971.265M370.332-176.241v971.265M508.352-151.553v971.265M649.305-139.216v971.265M791.234-139.216v971.265M932.211-151.553v971.265M1070.23-176.241v971.265M1203.36-213.276v971.265M1329.65-262.648v971.265"/></g><defs><clipPath id="a"><path fill="#fff" d="M0 0h1440.43v640.193H0z"/></clipPath></defs></svg>