<svg xmlns="http://www.w3.org/2000/svg" xml:space="preserve" viewBox="0 0 697 947" width="697" height="947">
  <style>
    .st3{fill:none;stroke:#cb9eff;stroke-width:2;stroke-miterlimit:10}
  </style>
  <g id="Layer_2">
    <path d="M-7.8 262.6c94.9-43.1 214.5-68.8 344.4-68.8 141.3 0 270.4 30.4 368.8 80.5" class="st3"/>
    <path d="M700.2 763.6c-97.7 48.6-224.8 77.9-363.6 77.9-129.9 0-249.5-25.7-344.4-68.8" class="st3"/>
    <path d="M704.9 330.3C572.1 479.6 481.7 658.9 438.6 815.6" class="st3"/>
    <path d="M-10.1 332.1c150.6 185.3 233.8 398.4 251.7 485.2" class="st3"/>
    <path d="M-7.1 742.6c43.7 3.8 86.3 16.6 126 41.4" class="st3"/>
    <path d="M700.2 749.5c-52.3-1.7-102.8 8.1-145.2 33.5" class="st3"/>
    <path d="M121.8 785.9C60.3 752.5 22 704.6 22 651.9 22 551 163 469.3 337 469.3s315 81.8 315 182.6c0 54.8-40.9 103.3-106.8 136.8" class="st3"/>
    <path d="M204.9 809.7c18.6-23.6 74.6-46.2 133.1-46.2 58.1 0 108.6 19.5 132.8 46.5" class="st3"/>
    <path d="M-7.8 13.4C97.9-13.5 214.8-28.5 337.7-28.5c131.5 0 256.1 17.1 367.6 47.7" class="st3"/>
    <path d="M700.2 919c-110.1 29.7-232.9 46.3-362.5 46.3-122.9 0-239.8-14.9-345.5-41.8" class="st3"/>
    <path d="M-7.8 84.4c103.2-30.7 220.3-48 344.3-48 134.3 0 260.3 20.3 369.6 55.9" class="st3"/>
    <path d="M700.2 857.3c-107.9 34.4-231.9 54-363.8 54-123.7 0-240.5-17.2-343.5-47.8" class="st3"/>
    <path d="M-7.8 167.5c100.1-35.8 218-56.5 344.3-56.5 135.7 0 261.8 23.9 366.4 64.8" class="st3"/>
    <path d="M699.3 806.5c-103.9 40.1-228.6 63.4-362.8 63.4-126 0-243.7-20.6-343.6-56.3" class="st3"/>
    <path d="M-7.8 367.8c85.9-53.5 208.5-86.9 344.5-86.9 149.1 0 282 40.1 368.2 102.8" class="st3"/>
    <path d="M699.3 727.6C613 788 482.6 826.4 336.7 826.4c-136 0-258.6-33.4-344.5-86.9" class="st3"/>
    <path d="M-7.8 493.3C57.4 421.8 187.2 373 336.8 373c170.5 0 315.5 63.4 368.1 151.6" class="st3"/>
    <path d="M699.3 680.2C642.5 764.1 501.5 824 336.7 824 187.1 824 57.3 774.7-7.8 702.9" class="st3"/>
    <path d="M101.8 947c24.2-60.5 81.9-128.3 105.7-131" class="st3"/>
    <path d="M448.5 818.7c29.3 12.4 70.8 80.5 88.8 133.6" class="st3"/>
    <path d="M121.8 785.9c-22.5-21.6-34.2-46.9-34.2-74 0-79.6 111.7-144.2 249.6-144.2s249.6 64.5 249.6 144.2c0 27.1-12.9 52.4-35.4 74" class="st3"/>
    <path d="M-7.8 562.6c85.6 75.9 152.1 161.5 190.1 242.8" class="st3"/>
    <path d="M-7.8 669.9c62.6 36 111.7 78.9 144.9 122" class="st3"/>
    <path d="M702.4 556.6c-86.3 71.6-155.8 156.3-204.9 247.2" class="st3"/>
    <path d="M144.7 794c-1.3-5.3-2-10.7-2-16.3 0-61.7 87.1-111.7 194.6-111.7S532 716 532 777.7c0 5.8-.8 11.4-2.2 17" class="st3"/>
    <path d="M137.1-14.4C192.3 103.2 292 515.3 307.4 822.9" class="st3"/>
    <path d="M571.1-9.9C483.9 147.4 378.7 629 373 822.9" class="st3"/>
    <path d="M700.2 664.8c-60.6 30.7-115.6 72.1-160.4 125.8" class="st3"/>
  </g>
</svg>
