<svg xmlns="http://www.w3.org/2000/svg" xml:space="preserve" x="0" y="0" version="1.1" viewBox="0 0 1212.6 926.7" width="1212" height="926">
  <style>
    .st3{fill:none;stroke:#cb9eff;stroke-width:2;stroke-miterlimit:10}
  </style>
  <ellipse cx="619" cy="497.4" class="st3" rx="558.9" ry="323.8"/>
  <path d="M1216.6 115.5C956.5 275 785.6 560.5 721 795.4" class="st3"/>
  <path d="M25.1 90.7C333.7 277.5 498 670.7 524 797.1" class="st3"/>
  <path d="M0 793.4c120.7-66.4 276.2-108 401.3-29.6" class="st3"/>
  <path d="M1212.6 805.7c-107.1-71.8-267.7-107.4-375.2-42.9" class="st3"/>
  <path d="M404.2 765.6c-61.5-33.3-99.8-81.3-99.8-133.9 0-100.9 141-182.6 315-182.6s315 81.8 315 182.6c0 54.8-40.9 103.3-106.8 136.8" class="st3"/>
  <path d="M487.3 789.4c18.6-23.6 74.6-46.2 133.1-46.2 58.1 0 108.6 19.5 132.8 46.5" class="st3"/>
  <path d="M1220.2 803.7c-154.8 87.5-366.6 141.4-600.1 141.4-249.6 0-474.3-61.6-631.2-159.9" class="st3"/>
  <path d="M980.2-3.1c87.8 23.5 167.7 55.3 236.4 93.7" class="st3"/>
  <path d="M0 104.4C73.8 59.8 161.9 23.2 260-3" class="st3"/>
  <path d="M1216.4 721.2C1078.3 824.6 862 891.1 618.9 891.1c-259.5 0-488.5-75.8-624.4-191.4" class="st3"/>
  <path d="M0 202.8C136.6 89.9 362.8 16.1 618.9 16.1c243.2 0 459.6 66.6 597.7 170.1" class="st3"/>
  <path d="M1212.6 631.2C1108 760.3 881.5 849.7 618.9 849.7c-292.3 0-540-110.8-624.4-263.9" class="st3"/>
  <path d="M-4.5 352.7c85.4-152.1 332.2-262 623.4-262 266 0 495 91.8 597.7 223.6" class="st3"/>
  <ellipse cx="619.1" cy="533.4" class="st3" rx="470.7" ry="272.7"/>
  <path d="M1008.5 577.7c0 124.3-174.4 226-389.4 226S230 702 230 577.7s174.3-225 389.2-225 389.3 100.7 389.3 225z" class="st3"/>
  <path d="M384.2 926.7c24.2-60.5 81.9-128.3 105.7-131" class="st3"/>
  <path d="M730.9 798.4c29.3 12.4 70.8 80.5 88.8 133.6" class="st3"/>
  <path d="M404.2 765.6c-22.5-21.6-34.2-46.9-34.2-74 0-79.6 111.7-144.2 249.6-144.2S869.1 612 869.1 691.6c0 27.1-12.9 52.4-35.4 74" class="st3"/>
  <path d="M0 369.8c215.6 89.1 392.2 260 464.6 415.4" class="st3"/>
  <path d="M-.9 561.7C197.5 583.9 347 677.2 419.5 771.6" class="st3"/>
  <path d="M1216.6 396c-196.8 82.8-349.1 225.5-436.8 387.6" class="st3"/>
  <path d="M427.2 773.7c-1.3-5.3-2-10.7-2-16.3 0-61.7 87.1-111.7 194.6-111.7s194.6 50 194.6 111.7c0 5.8-.8 11.4-2.2 17" class="st3"/>
  <path d="M419.5-34.7C474.7 83 574.4 495 589.8 802.7" class="st3"/>
  <path d="M853.6-30.1c-87.3 157.3-192.4 638.9-198.2 832.8" class="st3"/>
  <path d="M1216.6 577c-147.3 16.4-295.9 75.1-394.4 193.3" class="st3"/>
</svg>
