<svg width="1441" height="641" fill="none" xmlns="http://www.w3.org/2000/svg"><g clip-path="url(#a)" stroke="#0090ED" stroke-width="2" stroke-linecap="round" stroke-linejoin="round"><path d="M2412.17 628.914h-3647.66M2412.17 595.376h-3647.66M2412.17 562.243h-3647.66M2412.17 536.202h-3647.66M2412.17 510.466h-3647.66M2412.17 492.734h-3647.66M2412.17 472.064h-3647.66M2412.17 438.932h-3647.66M2412.17 454.738h-3647.66M2412.17 418.768h-3647.66M2412.17 393.842h-3647.66M2412.17 367.701h-3647.66M2412.17 328.793h-3647.66M2412.17 294.849h-3647.66M2412.17 248.342h-3647.66M2412.17 198.997h-3647.66M2412.17 154.516h-3647.66M2412.17 104.968h-3647.66M2412.17 49.544h-3647.66M110.855 1254.79l94.536-208.42 68.697-151.684 51.27-113.584 33.944-75.385 24.013-53.397 22.19-49.548 17.631-39.516 11.449-25.838 11.551-26.04 7.802-17.833 9.018-20.771 3.85-9.221c2.229-5.268 4.256-10.639 5.978-16.11 1.621-5.066 3.141-10.234 4.357-15.503l2.939-12.26 4.66-24.926 3.952-26.141 4.864-38.908 3.445-33.843 3.951-46.71 3.344-49.243 2.533-44.38 2.229-49.548 1.925-55.424.507-50.864.405-59.883.406-61.098.405-65.05.405-61.605.405-63.226.406-65.252.405-63.429.405-61.909 1.419-240.543"/><path d="m-385.023 1256.82 195.859-210.45 141.245-151.684 105.68-113.584 70.117-75.385 49.649-53.398 46.001-49.547 36.78-39.516 24.014-25.838 24.216-26.04 16.516-17.833 19.556-21.075 10.335-11.754c3.039-3.445 5.978-6.991 8.713-10.639l2.23-2.837c3.85-5.066 7.498-10.234 10.841-15.604 4.965-8.004 9.423-16.313 13.172-24.824v-.203c3.648-7.903 6.586-16.009 9.018-24.216l1.621-5.269A168.96 168.96 0 0 0 404.796 360l6.181-30.194s5.674-32.627 5.775-33.234c.101-.608 5.674-47.319 5.674-47.319l4.256-49.243 3.242-44.38 3.141-49.547 3.243-55.425 2.735-51.979 2.939-58.869 2.837-61.098.81-65.05.406-61.605.405-63.226.507-65.252.81-125.439.912-131.62.709-106.998"/><path d="m382.608-742.504-.709 109.024-.912 131.62-.912 125.439-.507 65.252-1.013 63.226-1.419 61.605-2.127 65.05-2.533 61.098-3.04 58.87-3.243 51.979-4.255 55.424-4.762 49.547-5.37 44.38-6.891 43.569c-.608 3.749-1.317 7.498-2.229 11.247l-8.612 36.781c-.709 2.938-1.419 5.876-2.331 8.714l-8.815 29.586-11.247 33.234c-1.317 3.749-2.634 7.498-4.255 11.146l-4.56 10.74c-2.837 6.688-6.079 13.071-9.828 19.252l-1.216 2.128c-5.37 9.018-11.754 17.427-18.846 25.128-5.168 5.573-10.741 10.842-16.618 15.604l-7.396 5.978c-2.229 1.722-4.458 3.445-6.688 5.066l-19.656 14.185-29.384 21.278-24.419 17.833-36.274 26.041-36.072 25.837-55.221 39.517-69.508 49.547-75.081 53.398-105.884 75.385-159.889 113.584-213.793 151.682-293.839 208.42"/><path d="m-1138.57 1130.57 160.095-84.3 287.76-151.685 215.009-113.584 142.36-75.385 100.817-53.398 93.218-49.547 73.967-39.516 48.129-25.838 47.926-26.04 31.511-17.833 36.173-21.582 25.838-16.415 23.405-15.806 6.587-4.864a669.15 669.15 0 0 0 39.82-31.917c6.282-5.471 11.956-11.449 17.123-17.934a132.944 132.944 0 0 0 20.367-35.97l5.876-15.705a153.531 153.531 0 0 0 2.533-7.295l8.309-26.649c.709-2.431 1.419-4.762 2.027-7.194l10.841-43.062 10.031-49.244 7.6-44.38 7.194-49.547 6.788-55.424 5.37-51.98 5.067-58.868 4.255-61.099 3.243-65.05.607-61.604.608-63.226.608-65.253.608-63.429 1.115-127.465 1.114-126.452.406-46.609"/><path d="m249.164-742.504-.81 109.024-1.013 131.62-.912 125.439-.507 65.252-.506 63.226-1.014 61.605-4.053 65.05-4.863 61.098-5.573 58.87-5.978 51.979-7.599 55.424-8.208 49.547-7.802 38.199c-.81 4.154-1.823 8.309-2.938 12.362l-9.423 34.956c-1.419 5.472-3.141 10.842-5.066 16.111l-11.754 32.829a231.105 231.105 0 0 1-4.559 11.652l-7.701 17.935a223.451 223.451 0 0 1-9.727 19.758l-8.511 15.097c-5.269 9.423-11.349 18.441-18.036 26.952-6.991 8.917-14.793 17.225-23.203 24.926l-3.75 3.445a202.726 202.726 0 0 1-23.202 18.339l-9.525 6.485a254.586 254.586 0 0 1-15.806 9.727l-15.401 8.613c-3.344 1.823-6.688 3.647-10.133 5.268l-28.27 13.679-49.445 21.785-41.847 17.833-61.402 26.04-153.911 65.253-116.928 49.547-126.047 53.398-177.823 75.385-267.998 113.584-135.07 57.248"/><path d="m182.391-740.478-.304 106.998-.304 131.62-.303 125.439-.203 65.252-.203 63.226c-.506 41.138-2.432 82.174-5.978 123.109l-.304 3.546-6.383 61.098-7.194 58.87-7.6 51.979-9.828 55.424-.912 4.154c-6.89 30.195-14.894 60.187-24.216 89.773l-19.556 49.244-14.286 34.044a550.543 550.543 0 0 1-11.247 24.926c-6.992 14.388-14.591 28.371-23 42.049l-3.243 5.371c-5.27 8.713-11.247 17.022-17.63 24.824l-.811 1.013c-7.295 8.917-15.3 17.225-23.811 24.825-10.031 8.916-20.974 16.921-32.525 23.912l-1.419.912c-9.626 5.775-19.657 10.841-29.992 15.097l-23 9.423-43.265 15.908-61.099 21.987-49.952 17.833-73.764 26.04-184.308 65.253-298.196 102.945-344.905 119.157"/><path d="m115.62-742.504-1.114 109.024-1.317 131.62-1.216 125.439-.608 65.252-.608 63.226c-.709 41.138-2.736 82.174-6.181 123.109l-.304 3.546-6.89 61.098-8.309 58.87-8.916 51.979-11.652 55.424-11.247 43.873c-1.013 3.749-2.027 7.498-3.242 11.146-8.208 25.939-17.53 51.472-27.865 76.601l-2.026 4.863c-1.824 4.458-3.749 8.815-5.877 13.071l-19.96 40.226-13.983 25.432a273.216 273.216 0 0 1-10.031 16.414l-11.855 17.428c-6.08 9.018-12.868 17.529-20.366 25.432-8.917 9.525-18.644 18.137-29.181 25.737l-3.952 2.938a212.313 212.313 0 0 1-30.499 18.441l-15.3 7.498c-6.282 3.141-12.766 5.877-19.353 8.308l-32.93 12.159-50.358 15.705-75.993 22.292-148.642 43.873-219.872 65.252-345.923 102.946-108.51 32.322"/><path d="M48.948-740.478v429.208l-.203 53.904c0 6.181-.304 12.463-.81 18.644l-4.256 52.384-7.093 65.05-8.308 61.099L18.55-1.32 8.418 50.659-4.45 106.083l-13.678 49.547-12.16 36.984c-1.62 4.964-3.343 9.828-5.268 14.59l-12.564 31.208c-2.837 7.194-6.08 14.185-9.626 21.075l-11.855 22.9c-4.66 8.916-9.828 17.63-15.502 25.938l-4.155 6.08a244.47 244.47 0 0 1-23.102 28.877l-7.599 8.207c-10.639 11.45-22.392 21.785-35.058 31.006-11.348 8.207-23.406 15.502-35.97 21.683l-23.203 11.348c-5.775 2.837-11.754 5.472-17.833 7.903l-41.644 16.415-45.9 15.806-49.547 15.402-142.259 40.326-193.326 51.878-432.651 111.456M582.824 1256.82V-742.504M1054.79 1254.79l-94.538-208.42-68.697-151.684-51.27-113.584-33.944-75.385-24.013-53.397-22.19-49.548-17.631-39.516-11.449-25.838-11.551-26.04-7.802-17.833-9.018-20.771-3.85-9.221c-2.229-5.268-4.256-10.639-5.978-16.11-1.621-5.066-3.141-10.234-4.357-15.503l-2.939-12.26-4.66-24.926-3.952-26.141-4.864-38.908-3.445-33.843-3.951-46.71-3.344-49.243-2.533-44.38-2.229-49.548-1.925-55.424-.507-50.864-.405-59.883-.406-61.098-.405-65.05-.405-61.605-.405-63.226-.406-65.252-.405-63.429-.405-61.909-1.419-240.543"/><path d="m1550.67 1256.82-195.86-210.45-141.25-151.684-105.68-113.584-70.11-75.385-49.652-53.398-46.001-49.547-36.781-39.516-24.014-25.838-24.216-26.04-16.516-17.833-19.556-21.075-10.334-11.754c-3.04-3.445-5.979-6.991-8.714-10.639l-2.23-2.837c-3.85-5.066-7.497-10.234-10.841-15.604-4.965-8.004-9.423-16.313-13.172-24.824v-.203c-3.648-7.903-6.586-16.009-9.018-24.216l-1.621-5.269A168.96 168.96 0 0 1 760.848 360l-6.181-30.194s-5.674-32.627-5.775-33.234c-.101-.608-5.674-47.319-5.674-47.319l-4.256-49.243-3.242-44.38-3.141-49.547-3.243-55.425-2.735-51.979-2.939-58.869-2.837-61.098-.81-65.05-.406-61.605-.405-63.226-.507-65.252-.81-125.439-.912-131.62-.709-106.998"/><path d="m783.039-742.504.709 109.024.912 131.62.912 125.439.507 65.252 1.013 63.226 1.419 61.605 2.127 65.05 2.533 61.098 3.04 58.87 3.243 51.979 4.255 55.424 4.762 49.547 5.371 44.38 6.89 43.569c.608 3.749 1.317 7.498 2.229 11.247l8.612 36.781c.709 2.938 1.419 5.876 2.331 8.714l8.815 29.586 11.247 33.234c1.317 3.749 2.634 7.498 4.255 11.146l4.56 10.74c2.837 6.688 6.079 13.071 9.828 19.252l1.216 2.128c5.37 9.018 11.754 17.427 18.847 25.128 5.167 5.573 10.74 10.842 16.617 15.604l7.396 5.978c2.229 1.722 4.459 3.445 6.688 5.066l19.656 14.185 29.384 21.278 24.419 17.833 36.278 26.041 36.07 25.837 55.22 39.517 69.51 49.547 75.08 53.398 105.88 75.385 159.89 113.584 213.79 151.682 293.84 208.42"/><path d="m2304.22 1130.57-160.1-84.3-287.76-151.685-215.01-113.584-142.36-75.385-100.81-53.398-93.22-49.547-73.97-39.516-48.13-25.838-47.92-26.04-31.51-17.833-36.18-21.582-25.83-16.415-23.41-15.806-6.59-4.864a670.037 670.037 0 0 1-39.816-31.917c-6.282-5.471-11.956-11.449-17.124-17.934a132.967 132.967 0 0 1-20.366-35.97l-5.877-15.705a154.659 154.659 0 0 1-2.533-7.295l-8.308-26.649c-.71-2.431-1.419-4.762-2.027-7.194l-10.841-43.062-10.031-49.244-7.6-44.38-7.194-49.547-6.788-55.424-5.371-51.98-5.066-58.868-4.255-61.099-3.243-65.05-.608-61.604-.608-63.226-.608-65.253-.608-63.429-1.114-127.465-1.115-126.452-.405-46.609"/><path d="m916.484-742.504.811 109.024 1.013 131.62.912 125.439.507 65.252.506 63.226 1.014 61.605 4.053 65.05 4.863 61.098 5.573 58.87 5.978 51.979 7.599 55.424 8.208 49.547 7.801 38.199c.811 4.154 1.824 8.309 2.939 12.362l9.423 34.956c1.418 5.472 3.141 10.842 5.066 16.111l11.754 32.829a231.105 231.105 0 0 0 4.559 11.652l7.697 17.935a222.923 222.923 0 0 0 9.73 19.758l8.51 15.097c5.27 9.423 11.35 18.441 18.04 26.952 6.99 8.917 14.79 17.225 23.2 24.926l3.75 3.445c7.3 6.687 15 12.767 23.2 18.339l9.53 6.485a255.238 255.238 0 0 0 15.8 9.727l15.41 8.613c3.34 1.823 6.68 3.647 10.13 5.268l28.27 13.679 49.44 21.785 41.85 17.833 61.4 26.04 153.91 65.253 116.93 49.547 126.05 53.398 177.82 75.385 268 113.584 135.07 57.248"/><path d="m983.254-740.478.304 106.998.304 131.62.304 125.439.203 65.252.202 63.226c.507 41.138 2.432 82.174 5.978 123.109l.304 3.546 6.384 61.098 7.193 58.87 7.6 51.979 9.83 55.424.91 4.154c6.89 30.195 14.89 60.187 24.22 89.773l19.55 49.244 14.29 34.044c3.55 8.41 7.29 16.719 11.25 24.926 6.99 14.388 14.59 28.371 23 42.049l3.24 5.371c5.27 8.713 11.25 17.022 17.63 24.824l.81 1.013c7.29 8.917 15.3 17.225 23.81 24.825 10.03 8.916 20.97 16.921 32.53 23.912l1.41.912c9.63 5.775 19.66 10.841 30 15.097l23 9.423 43.26 15.908 61.1 21.987 49.95 17.833 73.77 26.04 184.3 65.253 298.2 102.945L2303 824.773"/><path d="m1050.03-742.504 1.11 109.024 1.32 131.62 1.21 125.439.61 65.252.61 63.226c.71 41.138 2.74 82.174 6.18 123.109l.31 3.546 6.89 61.098 8.3 58.87 8.92 51.979 11.65 55.424 11.25 43.873c1.01 3.749 2.03 7.498 3.24 11.146 8.21 25.939 17.53 51.472 27.87 76.601l2.02 4.863c1.83 4.458 3.75 8.815 5.88 13.071l19.96 40.226 13.98 25.432a275.908 275.908 0 0 0 10.03 16.414l11.86 17.428c6.08 9.018 12.87 17.529 20.36 25.432 8.92 9.525 18.65 18.137 29.19 25.737l3.95 2.938a211.954 211.954 0 0 0 30.5 18.441l15.3 7.498c6.28 3.141 12.76 5.877 19.35 8.308l32.93 12.159 50.36 15.705 75.99 22.292 148.64 43.873 219.88 65.252 345.91 102.946 108.52 32.322"/><path d="M1116.7-740.478v429.208l.2 53.904c0 6.181.31 12.463.81 18.644l4.26 52.384 7.09 65.05 8.31 61.099 9.73 58.869 10.13 51.979 12.87 55.424 13.68 49.547 12.15 36.984c1.63 4.964 3.35 9.828 5.27 14.59l12.57 31.208c2.83 7.194 6.08 14.185 9.62 21.075l11.86 22.9c4.66 8.916 9.83 17.63 15.5 25.938l4.16 6.08a244.31 244.31 0 0 0 23.1 28.877l7.6 8.207c10.64 11.45 22.39 21.785 35.05 31.006 11.35 8.207 23.41 15.502 35.97 21.683l23.21 11.348c5.77 2.837 11.75 5.472 17.83 7.903l41.64 16.415 45.9 15.806 49.55 15.402 142.26 40.326 193.33 51.878L2303 674.712"/><path d="m1183.47-742.504.71 109.024.91 131.62.92 125.439.4 65.252.41 56.134c0 4.762.2 9.524.5 14.185l3.45 54.512 6.69 65.05 8.41 61.098 10.33 58.87 11.25 51.979 12.87 48.838c1.11 4.357 2.43 8.714 3.85 13.071l11.45 35.665c1.62 4.965 3.34 9.829 5.16 14.591l10.74 27.662a251.227 251.227 0 0 0 8.11 18.643l12.97 26.75a254.17 254.17 0 0 0 14.29 25.736l12.05 19.049c6.39 10.132 13.58 19.758 21.28 28.877l17.12 20.163 14.39 15.706c13.99 15.401 29.89 28.978 47.22 40.529 8.71 5.877 17.83 11.146 27.26 15.908l25.73 12.868c6.59 3.344 13.28 6.282 20.06 9.018l33.04 13.172c4.66 1.824 9.42 3.546 14.18 5.168l40.63 13.476 54.31 15.198 95.45 22.697 77.71 17.833 115.92 26.04 116.82 25.838 182.18 39.516 80.96 17.225"/><path d="M1250.14-740.478v300.527l.2 128.782 3.14 63.226 5.37 61.605 7.71 65.05 9.42 61.098 11.35 58.87 12.26 51.979 12.46 43.164a359.159 359.159 0 0 0 7.9 24.419l8.21 23c3.45 9.626 7.3 19.151 11.45 28.574l5.07 11.348a410.476 410.476 0 0 0 18.94 37.084l5.78 10.031c8.1 14.084 17.12 27.662 26.95 40.733l6.99 9.321c9.02 11.957 18.65 23.305 28.88 34.147l1.22 1.216c10.23 10.841 21.17 21.176 32.62 30.903l12.06 10.234c11.14 9.423 22.7 18.238 34.75 26.344l3.65 2.432c11.35 7.701 23 14.692 35.06 21.177l5.67 3.039c15.1 8.106 30.7 15.3 46.81 21.38a410.071 410.071 0 0 0 57.96 17.326l42.86 9.423 68.29 14.996 105.28 23.001 81.46 17.833 119.26 26.04 225.25 49.243"/><path d="m1316.91-742.504 1.52 240.542.41 61.909.4 61.403.41 67.279.41 52.789c0 6.992.4 13.983.91 20.974l4.25 51.169 8.11 65.05 10.13 61.098 12.36 58.87 11.45 44.48c1.32 4.965 2.74 9.93 4.26 14.895l12.46 39.01a291.177 291.177 0 0 0 6.38 17.833l11.05 27.864c2.84 7.194 5.98 14.388 9.52 21.278l10.14 20.467a283.624 283.624 0 0 0 17.32 29.992l15.81 23.811c4.86 7.295 10.03 14.388 15.6 21.278l29.49 36.477 22.39 25.027c5.27 5.876 10.84 11.652 16.62 17.022l18.54 17.428a289.71 289.71 0 0 0 29.99 24.52c14.08 9.93 28.98 18.542 44.68 25.736l8.72 3.952c14.69 6.789 29.99 12.159 45.59 16.313l44.79 11.652c5.57 1.419 11.25 2.736 17.02 3.851l72.65 14.185 79.64 14.692 129.8 23.304 100.81 17.833 174.18 30.398"/><path d="m1383.69-740.478.3 106.998.41 131.62.2 61.909.2 63.428.2 65.253 2.13 63.226 4.76 61.605 7.81 65.05 10.23 61.098 10.94 49.547c1.42 6.181 2.94 12.362 4.66 18.441l8.92 31.613c2.13 7.397 4.46 14.794 7.09 22.09l10.95 30.295a334.565 334.565 0 0 0 11.55 27.965l9.12 19.252c5.16 11.044 11.04 21.784 17.42 32.221l11.25 18.238c4.36 6.991 8.92 13.881 13.78 20.569l23.1 31.714c3.65 4.965 7.4 9.829 11.25 14.591l25.23 30.802c4.76 5.776 9.73 11.45 14.79 16.921l13.48 14.388c7.09 7.6 14.59 14.794 22.39 21.582l16.82 14.794c10.54 9.22 21.58 17.833 33.24 25.635 14.28 9.625 29.38 18.035 44.98 25.33l3.25 1.52a319.946 319.946 0 0 0 56.23 19.961l39.72 10.133c6.59 1.722 13.27 3.141 19.96 4.458l73.97 13.982 79.84 14.49 131.92 23.507 101.63 17.833 76.8 13.375"/></g><defs><clipPath id="a"><path fill="#fff" d="M0 0h1440.43v640.193H0z"/></clipPath></defs></svg>