<svg xmlns="http://www.w3.org/2000/svg" xml:space="preserve" version="1.1" viewBox="0 0 1207.7 1200" width="1208" height="1200">
  <style>
    .st0{fill:none;stroke:#0090ed;stroke-width:2;stroke-linecap:round;stroke-linejoin:round}
  </style>
  <path d="M1677.1 1152.5H-457.5" class="st0"/>
  <path d="M1677.1 928.4H-457.5" class="st0"/>
  <path d="M1677.1 897.6H-457.5" class="st0"/>
  <path d="M1677.1 870.4H-457.5" class="st0"/>
  <path d="M1677.1 826.6H-457.5" class="st0"/>
  <path d="M1677.1 805.3H-457.5" class="st0"/>
  <path d="M1677.1 786.2H-457.5" class="st0"/>
  <path d="M1677.1 769.3H-457.5" class="st0"/>
  <path d="M1677.1 848.2H-457.5" class="st0"/>
  <path d="M1677.1 1075.5H-457.5" class="st0"/>
  <path d="M1677.1 1015.4H-457.5" class="st0"/>
  <path d="M1677.1 967.8H-457.5" class="st0"/>
  <path d="M1677.1 754.7H-457.5" class="st0"/>
  <path d="M1677.1 742.9H-457.5" class="st0"/>
  <path d="M1677.1 731.4H-457.5" class="st0"/>
  <path d="M1677.1 711.2H-457.5" class="st0"/>
  <path d="M1677.1 720.8H-457.5" class="st0"/>
  <path d="M1677.1 699H-457.5" class="st0"/>
  <path d="M1677.1 683.8H-457.5" class="st0"/>
  <path d="M1677.1 668H-457.5" class="st0"/>
  <path d="M1677.1 645.4H-457.5" class="st0"/>
  <path d="M1677.1 623.7H-457.5" class="st0"/>
  <path d="M1677.1 595.5H-457.5" class="st0"/>
  <path d="M1677.1 565.5H-457.5" class="st0"/>
  <path d="M1677.1 538.5H-457.5" class="st0"/>
  <path d="M1677.1 508.4H-457.5" class="st0"/>
  <path d="M1677.1 474.7H-457.5" class="st0"/>
  <path d="M1677.1 443.1H-457.5" class="st0"/>
  <path d="M1677.1 407.5H-457.5" class="st0"/>
  <path d="M1677.1 370.3H-457.5" class="st0"/>
  <path d="M1677.1 331H-457.5" class="st0"/>
  <path d="M1677.1 293.4H-457.5" class="st0"/>
  <path d="M1677.1 255H-457.5" class="st0"/>
  <path d="M1677.1 215.4H-457.5" class="st0"/>
  <path d="M1677.1 176.8H-457.5" class="st0"/>
  <path d="M1677.1 139.2H-457.5" class="st0"/>
  <path d="M1677.1 99.4H-457.5" class="st0"/>
  <path d="M1677.1 59.2H-457.5" class="st0"/>
  <path d="M1677.1 22.6H-457.5" class="st0"/>
  <path d="m317.3 1206.8 57.4-126.6 41.7-92.1 31.2-69 20.6-45.8 14.6-32.4 13.5-30.1 10.7-24 6.9-15.7 7-15.8 4.7-10.8 5.5-12.6 2.4-5.6c1.3-3.2 2.6-6.4 3.6-9.8 1-3.1 1.9-6.2 2.7-9.4l1.8-7.5 2.9-15.1 2.4-15.9 3-23.6 2.1-20.5 2.4-28.4 2-29.9 1.5-27 1.3-30.1 1.2-33.7.3-30.9.2-36.4.2-37.1.2-39.5.2-37.4.2-38.4.2-39.7.2-38.5.2-37.6 1-145.9" class="st0"/>
  <path d="m16.1 1208 119-127.8 85.8-92.1 64.2-69 42.6-45.8 30.2-32.4 27.9-30.1 22.4-24 14.6-15.7 14.7-15.8 10-10.8 11.8-12.8 6.3-7.2c1.8-2.1 3.6-4.3 5.3-6.4l1.3-1.7c2.3-3.1 4.6-6.2 6.6-9.5 3-4.9 5.7-9.9 8-15.1v-.1c2.2-4.8 4-9.7 5.5-14.7l1-3.2c1-3.5 1.9-6.9 2.6-10.4l3.8-18.3s3.5-19.8 3.5-20.2 3.5-28.7 3.5-28.7l2.6-29.9 1.9-27 1.9-30.1 1.9-33.7 1.6-31.6 1.8-35.8 1.7-37.1.5-39.5.2-37.4.2-38.4.3-39.7.5-76.2.5-79.9.4-65" class="st0"/>
  <path d="m482.3-6.3-.4 66.2-.5 79.9-.5 76.2-.3 39.7-.6 38.4-.9 37.4-1.3 39.5-1.5 37.1-1.8 35.8-1.9 31.6-2.6 33.7-2.9 30.1-3.3 27-4.2 26.5c-.4 2.2-.8 4.6-1.3 6.8l-5.2 22.4c-.4 1.8-.9 3.6-1.4 5.3l-5.3 18-6.8 20.2c-.8 2.2-1.6 4.6-2.6 6.7l-2.8 6.5c-1.7 4.1-3.7 8-6 11.7l-.7 1.3c-3.3 5.5-7.2 10.6-11.5 15.2-3.2 3.4-6.5 6.6-10.1 9.5l-4.5 3.6c-1.3 1-2.7 2.1-4.1 3.1l-12 8.6-17.9 12.9-14.8 10.6-22 15.8-22 15.6-33.5 24-42.2 30.1-45.6 32.4-64.4 46-97.1 69-129.9 92.1-178.5 126.6" class="st0"/>
  <path d="m-441.6 1131.4 97.2-51.2 174.8-92.2L-39 919l86.5-45.8 61.2-32.4 56.6-30.1 44.9-24 29.2-15.7 29.1-15.8 19.1-10.8 22-13.1 15.7-10 14.2-9.6 4-3c8.3-6.1 16.4-12.6 24.2-19.4 3.8-3.3 7.3-6.9 10.4-10.9 5.2-6.6 9.4-14 12.4-21.9l3.6-9.5c.5-1.5 1-2.9 1.5-4.4l5-16.2c.4-1.5.9-2.9 1.2-4.4l6.6-26.2 6.1-29.9 4.6-27 4.4-30.1 4.1-33.7 3.3-31.6 3.1-35.8 2.6-36.7 1.9-39.5.4-37.4.4-38.4.4-39.7.4-38.5.7-77.4.7-76.8.1-28.4" class="st0"/>
  <path d="m401.3-6.3-.5 66.2-.6 79.9-.6 76.2-.3 39.7-.3 38.4-.6 37.4-2.5 39.5-3 37.1-3.4 35.8-3.6 31.6-4.6 33.7-5 30.1-4.7 23.2c-.5 2.6-1.1 5-1.8 7.5l-5.7 21.3c-.9 3.3-1.9 6.6-3.1 9.8l-7.2 19.9c-.9 2.4-1.8 4.7-2.8 7.1l-4.7 10.9c-1.8 4.1-3.8 8.1-5.9 12l-5.2 9.2c-3.2 5.7-6.9 11.2-10.9 16.4-4.3 5.4-9 10.4-14.1 15.1l-2.3 2.1c-4.4 4.1-9.1 7.8-14.1 11.1l-5.8 3.9c-3.2 2.1-6.3 4.1-9.6 5.9l-9.4 5.2c-2 1.1-4.1 2.2-6.1 3.2l-17.2 8.3-30.1 13.2-25.4 10.8-37.3 15.8-93.3 39.5-71 30.1-76.5 32.4-108 45.8-162.8 69-82.1 34.7" class="st0"/>
  <path d="m360.7-5.1-.2 65-.2 79.9-.2 76.2-.1 39.7-.1 38.4c-.3 25-1.5 49.9-3.6 74.8l-.2 2.1-3.9 37.1-4.4 35.8-4.6 31.6-6 33.7-.5 2.6c-4.2 18.3-9.1 36.6-14.7 54.5L310.1 596l-8.7 20.7c-2.1 5.1-4.4 10.1-6.8 15.1-4.3 8.7-8.9 17.3-14 25.6l-1.9 3.3c-3.2 5.3-6.8 10.3-10.7 15.1l-.5.6c-4.4 5.4-9.3 10.4-14.5 15.1-6.1 5.4-12.8 10.3-19.7 14.5l-.9.5c-5.8 3.5-12 6.6-18.2 9.2l-14 5.7-26.3 9.7-37.1 13.4-30.4 10.8-44.8 15.8-111.9 39.5-181.1 62.5-209.5 72.4" class="st0"/>
  <path d="m320.2-6.3-.7 66.2-.8 79.9-.8 76.2-.4 39.7-.4 38.4c-.4 25-1.6 49.9-3.8 74.8l-.2 2.1-4.2 37.1-5 35.8-5.4 31.6-7.1 33.7-6.8 26.7c-.6 2.2-1.2 4.6-1.9 6.7-5 15.7-10.6 31.3-16.9 46.5l-1.2 3c-1.1 2.7-2.3 5.3-3.6 8l-12.1 24.4-8.5 15.4c-1.9 3.4-3.9 6.7-6.1 10l-7.2 10.6c-3.7 5.5-7.8 10.6-12.4 15.4-5.4 5.8-11.3 11-17.7 15.6l-2.4 1.8c-5.8 4.3-12.1 8-18.5 11.2l-9.3 4.6c-3.8 1.9-7.8 3.6-11.7 5l-20 7.4-30.6 9.5-46.2 13.5-90.3 26.7-133.6 39.7-210.1 62.5-65.9 19.6" class="st0"/>
  <path d="M279.7-5.1v260.7l-.1 32.7c0 3.8-.2 7.6-.5 11.3l-2.6 31.8-4.3 39.5-5 37.1-5.9 35.8-6.1 31.6-7.8 33.7-8.3 30.1-7.4 22.5c-1 3-2 6-3.2 8.9l-7.7 19c-1.7 4.4-3.7 8.6-5.8 12.8l-7.2 13.9c-2.9 5.4-6 10.7-9.4 15.7l-2.6 3.7c-4.3 6.2-8.9 12.1-14 17.6l-4.6 5c-6.4 6.9-13.6 13.2-21.3 18.8-6.9 5-14.2 9.4-21.9 13.2l-14.1 6.9c-3.5 1.7-7.2 3.3-10.8 4.8l-25.3 10-27.9 9.6-30.1 9.4-86.5 24.2-117.4 31.5-262.8 67.7" class="st0"/>
  <path d="m239.1-6.3-.4 66.2-.5 79.9-.6 76.2-.2 39.7-.2 34.1c0 2.9-.1 5.8-.3 8.6l-2.1 33.1-4.1 39.5-5.1 37.1-6.3 35.8-6.8 31.6-7.9 29.7c-.7 2.7-1.5 5.3-2.3 8l-6.9 21.7c-1 3-2 6-3.2 8.9l-6.6 16.8c-1.5 3.8-3.2 7.7-4.9 11.3l-7.9 16.2c-2.6 5.3-5.5 10.6-8.7 15.6l-7.3 11.6c-3.9 6.1-8.3 12-12.9 17.6l-10.4 12.3-8.7 9.5c-8.5 9.4-18.2 17.6-28.7 24.6-5.3 3.6-10.8 6.8-16.6 9.7l-15.6 7.8c-4 2-8.1 3.8-12.2 5.5l-20 8c-2.9 1.1-5.7 2.1-8.6 3.2l-24.7 8.2-33 9.2-57.9 13.8-47.2 10.8-70.4 15.8L-281 787l-110.7 24-49.2 10.4" class="st0"/>
  <path d="M198.6-5.1v182.5l-.1 78.2-1.9 38.4-3.3 37.4-4.7 39.5-5.7 37.1-6.9 35.8-7.5 31.6-7.6 26.2c-1.4 5-3 9.9-4.8 14.8l-5 14c-2.1 5.8-4.4 11.7-6.9 17.4l-3.1 6.9c-3.5 7.7-7.3 15.2-11.5 22.5l-3.5 6.1c-4.9 8.6-10.4 16.8-16.4 24.7l-4.3 5.6c-5.5 7.3-11.3 14.2-17.6 20.7l-.7.7c-6.2 6.6-12.9 12.9-19.8 18.8L60 660c-6.7 5.7-13.8 11.1-21.1 16l-2.2 1.5c-6.9 4.7-14 8.9-21.3 12.9l-3.5 1.8c-9.2 4.9-18.6 9.3-28.4 13-11.4 4.4-23.2 7.9-35.2 10.5l-26.1 5.7-41.5 9.1-64 14-49.5 10.8-72.5 15.8-136.6 29.9" class="st0"/>
  <path d="m158.1-6.3-.9 146.1-.2 37.6-.2 37.3-.3 40.9-.2 32.1c0 4.3-.2 8.5-.5 12.8l-2.6 31.1-4.9 39.5-6.1 37.1-7.5 35.8-7 27c-.8 3-1.6 6-2.6 9.1l-7.6 23.7c-1.2 3.6-2.4 7.3-3.9 10.8l-6.7 16.9c-1.7 4.4-3.6 8.7-5.8 12.9L95 556.9c-3.2 6.3-6.6 12.4-10.5 18.2l-9.6 14.5c-3 4.4-6.1 8.7-9.5 12.9l-17.9 22.2-13.6 15.2c-3.2 3.6-6.6 7.1-10.1 10.3l-11.2 10.6C6.9 666.1.8 671.1-5.6 675.7c-8.6 6-17.6 11.2-27.2 15.6l-5.3 2.4c-8.9 4.1-18.2 7.4-27.7 9.9l-27.2 7.1c-3.4.9-6.8 1.6-10.3 2.3l-44.1 8.6-48.3 8.9-78.8 14.2-61.2 10.8-105.8 18.5" class="st0"/>
  <path d="m117.5-5.1-.2 65-.2 79.9-.1 37.6-.1 38.6-.1 39.7-1.3 38.4-2.9 37.4-4.7 39.5-6.3 37-6.6 30.1c-.9 3.8-1.8 7.5-2.9 11.2l-5.4 19.2c-1.3 4.5-2.7 9-4.3 13.4l-6.6 18.4c-2.1 5.8-4.4 11.4-7 17L63.3 529c-3.2 6.7-6.7 13.2-10.6 19.6l-6.8 11.1c-2.7 4.3-5.4 8.4-8.4 12.5l-14 19.3c-2.2 3-4.5 6-6.8 8.9L1.3 619c-2.9 3.5-5.9 6.9-9 10.3l-8.2 8.7c-4.3 4.6-8.9 9-13.6 13.1l-10.2 9c-6.4 5.6-13.1 10.8-20.2 15.5-8.7 5.8-17.9 10.9-27.3 15.4l-1.9.9c-11 5.1-22.5 9.2-34.1 12.1l-24.1 6.1c-4 1-8.1 1.9-12.1 2.7l-44.9 8.5-48.5 8.8-80.1 14.3-61.7 10.8-46.6 8.1" class="st0"/>
  <path d="m77-6.3-.1 66.2-.1 79.9v37.6l-.1 38.5v40.5l-1.1 30.9c-.1 4.5-.4 9-.8 13.5l-2.7 30.7-5.5 39.5-5.7 30.3c-.9 4.6-1.8 9.1-3 13.6l-5.4 22c-1.1 4.6-2.4 9.2-3.8 13.7l-5.2 16.9c-1.6 5.2-3.4 10.4-5.3 15.5l-6.5 17.3c-2.2 5.8-4.6 11.5-7.3 17.3l-5.7 12.3c-2.9 6.2-6 12.3-9.4 18.3l-4.1 7.2c-4.1 7.3-8.6 14.3-13.4 21.1l-4.5 6.3c-6.3 8.9-13.2 17.4-20.5 25.3l-5.3 5.8c-6.4 7-13.3 13.7-20.5 19.9l-4.2 3.6c-5.8 5-11.9 9.8-18.1 14.3l-12.6 9.1c-7.3 5.2-14.9 10.1-22.7 14.5-10.8 6.1-22.1 11.5-33.7 16l-4.5 1.7c-11.4 4.4-23.3 8-35.3 10.8l-35.7 8.1-48.2 9.6-45.9 8.7-79.7 14.4-41.3 7.2" class="st0"/>
  <path d="M36.5-5.1V216l-1.3 68.5c-.1 6.3-.5 12.7-1 19l-2.4 26.8-4.7 33.5c-.7 4.8-1.5 9.7-2.5 14.4l-4.1 20.5c-1 5.4-2.4 10.8-3.7 16.2L11.4 435c-1.5 5.8-3.2 11.5-5.1 17.3L-1 474l-5.4 13.7c-5.5 14.2-12.3 27.8-20 40.8l-1.9 3.2c-2.5 4.1-5 8.1-7.7 12l-9.8 14.6c-3.5 5.1-7.1 10.1-10.8 15l-9.1 11.7c-5 6.4-10.3 12.6-15.8 18.6l-9 9.7c-6 6.4-12.4 12.6-19 18.5l-1.8 1.6c-7.8 6.8-15.9 13.2-24.4 19.1l-6.5 4.5c-9.4 6.5-19.1 12.5-29.3 17.7-10.6 5.6-21.7 10.4-33 14.5l-11.1 4.1c-11.1 4.1-22.5 7.4-34.1 9.9l-25.3 5.6c-4.8 1-9.7 1.9-14.5 2.8l-48.3 8-61.1 9-42.5 5.3" class="st0"/>
  <path d="M604 1208V-6.3" class="st0"/>
  <path d="m890.6 1206.8-57.4-126.6-41.7-92.1-31.2-69-20.7-45.8-14.6-32.4-13.4-30.1-10.7-24-6.9-15.7-7-15.8-4.7-10.8-5.5-12.6-2.4-5.6c-1.3-3.2-2.6-6.4-3.6-9.8-1-3.1-1.9-6.2-2.7-9.4l-1.8-7.5-2.9-15.1-2.4-15.9-3-23.6-2.1-20.5-2.4-28.4-2-29.9-1.5-27-1.3-30.1-1.2-33.7-.3-30.9-.2-36.4-.2-37.1-.2-39.5-.2-37.4-.2-38.4-.2-39.7-.2-38.5-.2-37.6-1.2-146.1" class="st0"/>
  <path d="m1191.8 1208-119-127.8-85.8-92.1-64.2-69-42.6-45.8-30.1-32.4-27.9-30.1-22.4-24-14.6-15.7-14.6-15.8-10-10.8-12-12.8-6.3-7.2c-1.8-2.1-3.6-4.3-5.3-6.4l-1.3-1.7c-2.3-3.1-4.6-6.2-6.6-9.5-3-4.9-5.7-9.9-8-15.1v-.1c-2.2-4.8-4-9.7-5.5-14.7l-1-3.2c-1-3.5-1.9-6.9-2.6-10.4l-3.8-18.3s-3.5-19.8-3.5-20.2c-.1-.4-3.5-28.7-3.5-28.7l-2.6-29.9-1.9-27-1.9-30.1-1.9-33.7-1.6-31.6-1.8-35.8-1.7-37.1-.5-39.5-.2-37.4-.2-38.4-.3-39.7-.5-76.2-.7-80.2-.4-65" class="st0"/>
  <path d="m725.6-6.3.4 66.2.5 79.9.5 76.2.3 39.7.6 38.4.9 37.4 1.3 39.5 1.5 37 1.8 35.8 1.9 31.6 2.6 33.7 2.9 30.1 3.3 27 4.2 26.5c.4 2.2.8 4.6 1.3 6.8l5.2 22.4c.4 1.8.9 3.6 1.4 5.3l5.3 18 6.8 20.2c.8 2.2 1.6 4.6 2.6 6.7l2.8 6.5c1.7 4.1 3.7 8 6 11.7l.7 1.3c3.3 5.5 7.2 10.6 11.4 15.2 3.2 3.4 6.5 6.6 10.1 9.5l4.5 3.6c1.3 1 2.7 2.1 4.1 3.1l12 8.6 17.9 12.9 14.8 10.8 22 15.8 21.9 15.7 33.5 24 42.2 30.1 45.6 32.4 64.3 45.8 97.1 69 129.9 92.1 178.5 126.6" class="st0"/>
  <path d="m1649.5 1131.4-97.2-51.2-174.9-92.2-130.6-69-86.5-45.8-61.2-32.4-56.6-30.1-44.9-24-29.2-15.7-29.1-15.8-19.1-10.8-22-13.1-15.7-10-14.2-9.6-4-3c-8.3-6.1-16.3-12.6-24.2-19.4-3.8-3.3-7.3-6.9-10.4-10.9-5.2-6.6-9.4-14-12.4-21.9l-3.6-9.5c-.5-1.5-1-2.9-1.5-4.4l-5-16.2c-.4-1.5-.9-2.9-1.2-4.4l-6.6-26.2-6.1-29.9-4.6-27-4.4-30.1-4.1-33.7-3.3-31.6-3.1-35.8-2.6-37.1-1.9-39.5-.4-37.4-.4-38.4-.4-39.7-.4-38.5-.7-77.4-.7-76.8-.2-28.3" class="st0"/>
  <path d="m806.6-6.3.5 66.2.6 79.9.5 76.2.3 39.7.3 38.4.6 37.4 2.5 39.5 3 37.1 3.4 35.8 3.6 31.6 4.7 33.5 5 30.1 4.7 23.2c.5 2.6 1.1 5 1.8 7.5l5.7 21.3c.9 3.3 1.9 6.6 3.1 9.8l7.2 19.9c.9 2.4 1.8 4.7 2.8 7.1l4.7 10.9c1.8 4.1 3.8 8.1 5.9 12l5.2 9.2c3.2 5.7 6.9 11.2 10.9 16.4 4.3 5.4 9 10.4 14.1 15.1l2.3 2.1c4.4 4.1 9.1 7.8 14.1 11.1l5.8 3.9c3.2 2.1 6.3 4.1 9.6 5.9l9.4 5.2c2.1 1.1 4.1 2.2 6.1 3.2l17.2 8.3 30 13.2 25.5 10.8L1055 771l93.5 39.6 71 30.1 76.5 32.4 108 45.8 162.8 69 82.1 34.7" class="st0"/>
  <path d="m847.2-5.1.2 65 .2 79.9.2 76.2.1 39.7.1 38.4c.3 25 1.5 49.9 3.6 74.8l.2 2.1 3.9 37.1 4.4 35.8 4.6 31.6 6 33.7.5 2.6c4.2 18.3 9.1 36.6 14.7 54.5l11.9 29.9 8.7 20.7c2.1 5.1 4.4 10.1 6.8 15.1 4.3 8.7 8.9 17.3 14 25.6l1.9 3.3c3.2 5.3 6.8 10.3 10.7 15.1l.5.6c4.4 5.4 9.3 10.4 14.5 15.1 6.1 5.4 12.8 10.3 19.7 14.5l.9.5c5.8 3.5 12 6.6 18.2 9.2l14 5.7 26.3 9.7 37.1 13.4 30.3 10.8 44.8 15.8 111.9 39.7 181.1 62.5 209.5 72.4" class="st0"/>
  <path d="m887.7-6.3.7 66.2.8 79.9.7 76.2.4 39.7.4 38.4c.4 25 1.6 49.9 3.8 74.8l.2 2.1 4.2 37.1 5 35.8 5.4 31.6 7 33.7 6.8 26.7c.6 2.2 1.2 4.6 1.9 6.7 5 15.7 10.6 31.3 16.9 46.5l1.2 3c1.1 2.7 2.3 5.3 3.6 8l12.1 24.4 8.5 15.4c1.9 3.4 3.9 6.7 6.1 10l7.2 10.6c3.7 5.5 7.8 10.6 12.4 15.4 5.4 5.8 11.3 11 17.7 15.6l2.4 1.8c5.8 4.3 12.1 8 18.5 11.2l9.3 4.6c3.8 1.9 7.8 3.6 11.8 5l20 7.4 30.6 9.5 46.2 13.5 90.3 26.7 133.6 39.7 210.1 62.5 65.9 19.6" class="st0"/>
  <path d="M928.2-5.1v260.7l.1 32.7c0 3.8.2 7.6.5 11.3l2.6 31.8 4.3 39.5 5 37.1 5.9 35.8 6.1 31.6 7.8 33.7 8.3 30.1 7.4 22.5c1 3 2.1 6 3.2 8.9l7.7 19c1.7 4.4 3.7 8.6 5.8 12.8l7.2 13.9c2.9 5.4 6 10.7 9.4 15.7l2.5 3.7c4.3 6.2 8.9 12.1 14 17.6l4.6 5c6.4 6.9 13.6 13.2 21.3 18.8 6.9 5 14.2 9.4 21.9 13.2l14.1 6.9c3.5 1.7 7.2 3.3 10.8 4.8l25.3 10 27.9 9.6 30.1 9.4 86.4 24.5 117.4 31.5 262.8 67.7" class="st0"/>
  <path d="m968.8-6.3.4 66.2.5 79.9.5 76.2.2 39.7.2 34.1c0 2.9.1 5.8.3 8.6l2.1 33.1 4.1 39.5 5.1 37.1 6.3 35.8 6.8 31.6 7.8 29.6c.7 2.7 1.5 5.3 2.3 8l7 21.7c1 3 2 6 3.2 8.9l6.5 16.8c1.5 3.8 3.2 7.7 4.9 11.3l7.9 16.2c2.6 5.3 5.5 10.6 8.7 15.6l7.3 11.6c3.9 6.1 8.3 12 12.9 17.6l10.4 12.3 8.7 9.5c8.5 9.4 18.2 17.6 28.7 24.6 5.3 3.6 10.8 6.8 16.5 9.7l15.6 7.8c4 2 8.1 3.8 12.2 5.5l20 8c2.9 1.1 5.7 2.1 8.6 3.2l24.7 8.2 33 9.2 58 13.8 47.2 10.8 70.4 15.8 70.9 15.7 110.7 24 49.2 10.4" class="st0"/>
  <path d="M1009.3-5.1v182.5l.1 78.2 1.9 38.4 3.3 37.4 4.7 39.5 5.7 37.1 6.9 35.8 7.5 31.6 7.6 26.2c1.4 5 3 9.9 4.8 14.8l5 14c2.1 5.8 4.4 11.6 7 17.4l3.1 6.9c3.5 7.7 7.3 15.2 11.5 22.5l3.5 6.1c4.9 8.6 10.4 16.8 16.4 24.7l4.3 5.6c5.5 7.3 11.3 14.2 17.6 20.7l.7.7c6.2 6.6 12.9 12.9 19.8 18.8l7.3 6.2c6.7 5.7 13.8 11.1 21.1 16l2.2 1.5c6.9 4.7 14 8.9 21.3 12.9l3.5 1.8c9.2 4.9 18.6 9.3 28.4 13 11.4 4.4 23.2 7.9 35.2 10.5l26.1 5.7 41.5 9.1 64 14 49.5 10.8 72.5 15.8 136.8 29.9" class="st0"/>
  <path d="m1049.8-6.3.9 146.1.2 37.6.2 37.3.2 40.9.2 32.1c0 4.3.2 8.5.5 12.8l2.6 31.1 4.9 39.5 6.1 37.1 7.5 35.8 6.9 27c.8 3 1.6 6 2.6 9.1l7.6 23.7c1.2 3.6 2.5 7.3 3.9 10.8l6.7 16.9c1.7 4.4 3.6 8.7 5.8 12.9l6.1 12.5c3.2 6.3 6.6 12.4 10.5 18.2l9.6 14.5c3 4.4 6.1 8.7 9.5 12.9l17.9 22.2 13.6 15.2c3.2 3.6 6.6 7.1 10.1 10.3l11.3 10.6c5.7 5.3 11.8 10.3 18.2 14.9 8.6 6 17.6 11.2 27.2 15.6l5.3 2.4c8.9 4.1 18.2 7.4 27.7 9.9l27.2 7.1c3.4.9 6.8 1.6 10.3 2.3l44.2 8.6 48.3 8.9 78.8 14.2 61.2 10.8 105.8 18.5" class="st0"/>
  <path d="m1090.4-5.1.2 65 .2 79.9.1 37.6.1 38.5.1 39.7 1.3 38.4 2.9 37.4 4.7 39.5 6.2 37.1 6.6 30.1c.9 3.8 1.8 7.5 2.9 11.2l5.4 19.2c1.3 4.5 2.7 9 4.3 13.4l6.6 18.4c2.1 5.8 4.4 11.4 7 17l5.5 11.7c3.2 6.7 6.7 13.2 10.6 19.6l6.8 11.1c2.7 4.3 5.4 8.4 8.4 12.5l14 19.3c2.2 3 4.5 6 6.8 8.9l15.3 18.7c2.9 3.5 5.9 6.9 9 10.3l8.2 8.7c4.3 4.6 8.9 9 13.6 13.1l10.2 9c6.4 5.6 13.1 10.8 20.2 15.5 8.7 5.8 17.9 10.9 27.3 15.4l1.9.9c11 5.1 22.5 9.2 34.1 12.1l24.1 6.1c4 1 8.1 1.9 12.1 2.7l44.9 8.5 48.5 8.8 80.1 14.3 61.7 10.8 46.6 8.1" class="st0"/>
  <path d="m1130.9-6.3.1 66.2.1 79.9v37.6l.1 38.5v40.5l1.1 30.9c.1 4.5.4 9 .8 13.5l2.7 30.7 5.4 39.5 5.7 30.3c.9 4.6 1.8 9.1 3 13.6l5.4 22c1.1 4.6 2.4 9.2 3.8 13.7l5.2 16.9c1.6 5.2 3.4 10.4 5.3 15.5l6.6 17.2c2.2 5.8 4.6 11.5 7.3 17.3l5.7 12.3c2.9 6.2 6 12.3 9.4 18.3l4.1 7.2c4.1 7.3 8.6 14.3 13.4 21.1l4.5 6.3c6.3 8.9 13.2 17.4 20.5 25.3l5.3 5.8c6.4 7 13.3 13.7 20.5 19.9l4.2 3.6c5.8 5 11.9 9.8 18.1 14.3l12.6 9.1c7.3 5.2 14.9 10.1 22.7 14.5 10.8 6.1 22.1 11.5 33.7 16l4.5 1.7c11.4 4.4 23.3 8 35.3 10.8l35.7 8.1 48.2 9.6 45.9 8.7 79.7 14.4 41.3 7.2" class="st0"/>
  <path d="M1171.5-5.1V216l1.3 68.5c.1 6.3.5 12.7 1 19l2.4 26.8 4.7 33.5c.7 4.8 1.5 9.7 2.5 14.4l4.1 20.5c1 5.4 2.3 10.8 3.7 16.2l5.3 20.2c1.5 5.8 3.2 11.5 5.1 17.3l7.2 21.8 5.3 13.7c5.5 14.2 12.3 27.8 20 40.8l1.9 3.2c2.4 4.1 5 8.1 7.7 12l9.8 14.6c3.5 5.1 7.1 10.1 10.8 15l9.1 11.7c5 6.4 10.3 12.6 15.8 18.6l9 9.7c6 6.4 12.4 12.6 19 18.5l1.8 1.6c7.8 6.8 15.9 13.2 24.4 19.1l6.5 4.5c9.4 6.5 19.1 12.5 29.3 17.7 10.6 5.6 21.7 10.4 33 14.5l11.1 4.1c11.1 4.1 22.5 7.4 34.1 9.9l25.3 5.6c4.8 1 9.7 1.9 14.5 2.8l48.3 8 61.4 8.9 42.5 5.3" class="st0"/>
</svg>
