<svg width="1441" height="641" viewBox="0 0 1441 641" fill="none" xmlns="http://www.w3.org/2000/svg">
<g clip-path="url(#clip0_2071_8626)">
<path d="M2412.17 628.914H-1235.49" stroke="#0090ED" stroke-width="2" stroke-linecap="round" stroke-linejoin="round"/>
<path d="M2412.17 595.376H-1235.49" stroke="#0090ED" stroke-width="2" stroke-linecap="round" stroke-linejoin="round"/>
<path d="M2412.17 562.243H-1235.49" stroke="#0090ED" stroke-width="2" stroke-linecap="round" stroke-linejoin="round"/>
<path d="M2412.17 536.202H-1235.49" stroke="#0090ED" stroke-width="2" stroke-linecap="round" stroke-linejoin="round"/>
<path d="M2412.17 510.466H-1235.49" stroke="#0090ED" stroke-width="2" stroke-linecap="round" stroke-linejoin="round"/>
<path d="M2412.17 492.734H-1235.49" stroke="#0090ED" stroke-width="2" stroke-linecap="round" stroke-linejoin="round"/>
<path d="M2412.17 472.064H-1235.49" stroke="#0090ED" stroke-width="2" stroke-linecap="round" stroke-linejoin="round"/>
<path d="M2412.17 438.932H-1235.49" stroke="#0090ED" stroke-width="2" stroke-linecap="round" stroke-linejoin="round"/>
<path d="M2412.17 454.738H-1235.49" stroke="#0090ED" stroke-width="2" stroke-linecap="round" stroke-linejoin="round"/>
<path d="M2412.17 418.768H-1235.49" stroke="#0090ED" stroke-width="2" stroke-linecap="round" stroke-linejoin="round"/>
<path d="M2412.17 393.842H-1235.49" stroke="#0090ED" stroke-width="2" stroke-linecap="round" stroke-linejoin="round"/>
<path d="M2412.17 367.701H-1235.49" stroke="#0090ED" stroke-width="2" stroke-linecap="round" stroke-linejoin="round"/>
<path d="M2412.17 328.793H-1235.49" stroke="#0090ED" stroke-width="2" stroke-linecap="round" stroke-linejoin="round"/>
<path d="M2412.17 294.849H-1235.49" stroke="#0090ED" stroke-width="2" stroke-linecap="round" stroke-linejoin="round"/>
<path d="M2412.17 248.342H-1235.49" stroke="#0090ED" stroke-width="2" stroke-linecap="round" stroke-linejoin="round"/>
<path d="M2412.17 198.997H-1235.49" stroke="#0090ED" stroke-width="2" stroke-linecap="round" stroke-linejoin="round"/>
<path d="M2412.17 154.516H-1235.49" stroke="#0090ED" stroke-width="2" stroke-linecap="round" stroke-linejoin="round"/>
<path d="M2412.17 104.968H-1235.49" stroke="#0090ED" stroke-width="2" stroke-linecap="round" stroke-linejoin="round"/>
<path d="M2412.17 49.5439H-1235.49" stroke="#0090ED" stroke-width="2" stroke-linecap="round" stroke-linejoin="round"/>
<path d="M110.855 1254.79L205.391 1046.37L274.088 894.686L325.358 781.102L359.302 705.717L383.315 652.32L405.505 602.772L423.136 563.256L434.585 537.418L446.136 511.378L453.938 493.545L462.956 472.774L466.806 463.553C469.035 458.285 471.062 452.914 472.784 447.443C474.405 442.377 475.925 437.209 477.141 431.94L480.08 419.68L484.74 394.754L488.692 368.613L493.556 329.705L497.001 295.862L500.952 249.152L504.296 199.909L506.829 155.529L509.058 105.981L510.983 50.5573L511.49 -0.307268L511.895 -60.1896L512.301 -121.288L512.706 -186.338L513.111 -247.943L513.516 -311.169L513.922 -376.421L514.327 -439.85L514.732 -501.759L516.151 -742.302" stroke="#0090ED" stroke-width="2" stroke-linecap="round" stroke-linejoin="round"/>
<path d="M-385.023 1256.82L-189.164 1046.37L-47.919 894.686L57.7618 781.102L127.878 705.717L177.527 652.319L223.528 602.772L260.308 563.256L284.322 537.418L308.538 511.378L325.054 493.545L344.61 472.47L354.945 460.716C357.984 457.271 360.923 453.725 363.658 450.077L365.888 447.24C369.738 442.174 373.386 437.006 376.729 431.636C381.694 423.632 386.152 415.323 389.901 406.812V406.609C393.549 398.706 396.487 390.6 398.919 382.393L400.54 377.124C402.263 371.45 403.681 365.776 404.796 360L410.977 329.806C410.977 329.806 416.651 297.179 416.752 296.572C416.853 295.964 422.426 249.253 422.426 249.253L426.682 200.01L429.924 155.63L433.065 106.083L436.308 50.6585L439.043 -1.32059L441.982 -60.1897L444.819 -121.288L445.629 -186.338L446.035 -247.943L446.44 -311.169L446.947 -376.421L447.757 -501.86L448.669 -633.48L449.378 -740.478" stroke="#0090ED" stroke-width="2" stroke-linecap="round" stroke-linejoin="round"/>
<path d="M382.608 -742.504L381.899 -633.48L380.987 -501.86L380.075 -376.421L379.568 -311.169L378.555 -247.943L377.136 -186.338L375.009 -121.288L372.476 -60.1896L369.436 -1.32048L366.193 50.6586L361.938 106.083L357.176 155.63L351.806 200.01L344.915 243.579C344.307 247.328 343.598 251.077 342.686 254.826L334.074 291.607C333.365 294.545 332.655 297.483 331.743 300.321L322.928 329.907L311.681 363.141C310.364 366.89 309.047 370.639 307.426 374.287L302.866 385.027C300.029 391.715 296.787 398.098 293.038 404.279L291.822 406.407C286.452 415.425 280.068 423.834 272.976 431.535C267.808 437.108 262.235 442.377 256.358 447.139L248.962 453.117C246.733 454.839 244.504 456.562 242.274 458.183L222.618 472.368L193.234 493.646L168.815 511.479L132.541 537.52L96.4694 563.357L41.2479 602.874L-28.2602 652.421L-103.341 705.819L-209.225 781.204L-369.114 894.788L-582.907 1046.47L-876.746 1254.89" stroke="#0090ED" stroke-width="2" stroke-linecap="round" stroke-linejoin="round"/>
<path d="M-1138.57 1130.57L-978.475 1046.27L-690.715 894.585L-475.706 781.001L-333.346 705.616L-232.529 652.218L-139.311 602.671L-65.3442 563.155L-17.2154 537.317L30.7107 511.277L62.2224 493.444L98.3951 471.862L124.233 455.447L147.638 439.641L154.225 434.777C167.903 424.645 181.177 414.006 194.045 402.86C200.327 397.389 206.001 391.411 211.168 384.926C219.781 374.084 226.671 361.925 231.535 348.956L237.411 333.251C238.323 330.819 239.134 328.489 239.944 325.956L248.253 299.307C248.962 296.876 249.672 294.545 250.28 292.113L261.121 249.051L271.152 199.807L278.752 155.427L285.946 105.88L292.734 50.4559L298.104 -1.52318L303.171 -60.3923L307.426 -121.491L310.669 -186.541L311.276 -248.145L311.884 -311.371L312.492 -376.624L313.1 -440.053L314.215 -567.518L315.329 -693.97L315.735 -740.579" stroke="#0090ED" stroke-width="2" stroke-linecap="round" stroke-linejoin="round"/>
<path d="M249.164 -742.504L248.354 -633.48L247.341 -501.86L246.429 -376.421L245.922 -311.169L245.416 -247.943L244.402 -186.338L240.349 -121.288L235.486 -60.1896L229.913 -1.32048L223.935 50.6586L216.336 106.083L208.128 155.63L200.326 193.829C199.516 197.983 198.503 202.138 197.388 206.191L187.965 241.147C186.546 246.619 184.824 251.989 182.899 257.258L171.145 290.087C169.727 294.038 168.207 297.889 166.586 301.739L158.885 319.674C155.947 326.462 152.704 333.048 149.158 339.432L140.647 354.529C135.378 363.952 129.298 372.97 122.611 381.481C115.62 390.398 107.818 398.706 99.4079 406.407L95.6589 409.852C88.3635 416.539 80.663 422.619 72.4558 428.191L62.9313 434.676C57.7638 438.121 52.495 441.363 47.1248 444.403L31.7235 453.016C28.3798 454.839 25.0362 456.663 21.5911 458.284L-6.67824 471.963L-56.1242 493.748L-97.971 511.581L-159.373 537.621L-313.284 602.874L-430.212 652.421L-556.259 705.819L-734.082 781.204L-1002.08 894.788L-1137.15 952.036" stroke="#0090ED" stroke-width="2" stroke-linecap="round" stroke-linejoin="round"/>
<path d="M182.391 -740.478L182.087 -633.48L181.783 -501.86L181.48 -376.421L181.277 -311.169L181.074 -247.943C180.568 -206.805 178.642 -165.769 175.096 -124.834L174.792 -121.288L168.409 -60.1895L161.215 -1.32035L153.615 50.6588L143.787 106.083L142.875 110.237C135.985 140.432 127.981 170.424 118.659 200.01L99.1032 249.254L84.8166 283.298C81.2702 291.708 77.5213 300.017 73.5697 308.224C66.5783 322.612 58.979 336.595 50.5691 350.273L47.3268 355.644C42.0579 364.357 36.0798 372.666 29.6964 380.468L28.8859 381.481C21.5906 390.398 13.586 398.706 5.07477 406.306C-4.95629 415.222 -15.8994 423.227 -27.4503 430.218L-28.8687 431.13C-38.4945 436.905 -48.5256 441.971 -58.8607 446.227L-81.8611 455.65L-125.126 471.558L-186.225 493.545L-236.177 511.378L-309.941 537.418L-494.249 602.671L-792.445 705.616L-1137.35 824.773" stroke="#0090ED" stroke-width="2" stroke-linecap="round" stroke-linejoin="round"/>
<path d="M115.62 -742.504L114.506 -633.48L113.189 -501.86L111.973 -376.421L111.365 -311.169L110.757 -247.943C110.048 -206.805 108.021 -165.769 104.576 -124.834L104.272 -121.288L97.3821 -60.1895L89.0735 -1.3204L80.1571 50.6587L68.5048 106.083L57.2579 149.956C56.2447 153.705 55.2314 157.454 54.0155 161.102C45.8083 187.041 36.4865 212.574 26.1514 237.703L24.125 242.566C22.3011 247.024 20.376 251.381 18.2482 255.637L-1.71262 295.863L-15.6952 321.295C-18.8363 326.868 -22.18 332.339 -25.7263 337.709L-37.5813 355.137C-43.6607 364.155 -50.4494 372.666 -57.9474 380.569C-66.8639 390.094 -76.5909 398.706 -87.1285 406.306L-91.0802 409.244C-100.706 416.235 -110.94 422.416 -121.579 427.685L-136.879 435.183C-143.161 438.324 -149.645 441.06 -156.232 443.491L-189.162 455.65L-239.52 471.355L-315.513 493.647L-464.155 537.52L-684.027 602.772L-1029.95 705.718L-1138.46 738.04" stroke="#0090ED" stroke-width="2" stroke-linecap="round" stroke-linejoin="round"/>
<path d="M48.9479 -740.478V-311.27L48.7453 -257.366C48.7453 -251.185 48.4413 -244.903 47.9347 -238.722L43.6791 -186.338L36.5865 -121.288L28.2778 -60.1894L18.5508 -1.32026L8.41838 50.6589L-4.4497 106.083L-18.1284 155.63L-30.2873 192.614C-31.9085 197.578 -33.631 202.442 -35.5562 207.204L-48.1203 238.412C-50.9573 245.606 -54.1997 252.597 -57.746 259.487L-69.601 282.387C-74.2619 291.303 -79.4293 300.017 -85.1035 308.325L-89.2578 314.405C-96.2492 324.639 -103.95 334.264 -112.36 343.282L-119.959 351.489C-130.598 362.939 -142.351 373.274 -155.017 382.495C-166.365 390.702 -178.423 397.997 -190.987 404.178L-214.19 415.526C-219.965 418.363 -225.944 420.998 -232.023 423.429L-273.667 439.844L-319.567 455.65L-369.114 471.052L-511.373 511.378L-704.699 563.256L-1137.35 674.712" stroke="#0090ED" stroke-width="2" stroke-linecap="round" stroke-linejoin="round"/>
<path d="M582.824 1256.82V-742.504" stroke="#0090ED" stroke-width="2" stroke-linecap="round" stroke-linejoin="round"/>
<path d="M1054.79 1254.79L960.252 1046.37L891.555 894.686L840.285 781.102L806.341 705.717L782.328 652.32L760.138 602.772L742.507 563.256L731.058 537.418L719.507 511.378L711.705 493.545L702.687 472.774L698.837 463.553C696.608 458.285 694.581 452.914 692.859 447.443C691.238 442.377 689.718 437.209 688.502 431.94L685.563 419.68L680.903 394.754L676.951 368.613L672.087 329.705L668.642 295.862L664.691 249.152L661.347 199.909L658.814 155.529L656.585 105.981L654.66 50.5573L654.153 -0.307268L653.748 -60.1896L653.342 -121.288L652.937 -186.338L652.532 -247.943L652.127 -311.169L651.721 -376.421L651.316 -439.85L650.911 -501.759L649.492 -742.302" stroke="#0090ED" stroke-width="2" stroke-linecap="round" stroke-linejoin="round"/>
<path d="M1550.67 1256.82L1354.81 1046.37L1213.56 894.686L1107.88 781.102L1037.77 705.717L988.118 652.319L942.117 602.772L905.336 563.256L881.322 537.418L857.106 511.378L840.59 493.545L821.034 472.47L810.7 460.716C807.66 457.271 804.721 453.725 801.986 450.077L799.756 447.24C795.906 442.174 792.259 437.006 788.915 431.636C783.95 423.632 779.492 415.323 775.743 406.812V406.609C772.095 398.706 769.157 390.6 766.725 382.393L765.104 377.124C763.381 371.45 761.963 365.776 760.848 360L754.667 329.806C754.667 329.806 748.993 297.179 748.892 296.572C748.791 295.964 743.218 249.253 743.218 249.253L738.962 200.01L735.72 155.63L732.579 106.083L729.336 50.6585L726.601 -1.32059L723.662 -60.1897L720.825 -121.288L720.015 -186.338L719.609 -247.943L719.204 -311.169L718.697 -376.421L717.887 -501.86L716.975 -633.48L716.266 -740.478" stroke="#0090ED" stroke-width="2" stroke-linecap="round" stroke-linejoin="round"/>
<path d="M783.039 -742.504L783.748 -633.48L784.66 -501.86L785.572 -376.421L786.079 -311.169L787.092 -247.943L788.511 -186.338L790.638 -121.288L793.171 -60.1896L796.211 -1.32048L799.454 50.6586L803.709 106.083L808.471 155.63L813.842 200.01L820.732 243.579C821.34 247.328 822.049 251.077 822.961 254.826L831.573 291.607C832.282 294.545 832.992 297.483 833.904 300.321L842.719 329.907L853.966 363.141C855.283 366.89 856.6 370.639 858.221 374.287L862.781 385.027C865.618 391.715 868.86 398.098 872.609 404.279L873.825 406.407C879.195 415.425 885.579 423.834 892.672 431.535C897.839 437.108 903.412 442.377 909.289 447.139L916.685 453.117C918.914 454.839 921.144 456.562 923.373 458.183L943.029 472.368L972.413 493.646L996.832 511.479L1033.11 537.52L1069.18 563.357L1124.4 602.874L1193.91 652.421L1268.99 705.819L1374.87 781.204L1534.76 894.788L1748.55 1046.47L2042.39 1254.89" stroke="#0090ED" stroke-width="2" stroke-linecap="round" stroke-linejoin="round"/>
<path d="M2304.22 1130.57L2144.12 1046.27L1856.36 894.585L1641.35 781.001L1498.99 705.616L1398.18 652.218L1304.96 602.671L1230.99 563.155L1182.86 537.317L1134.94 511.277L1103.43 493.444L1067.25 471.862L1041.42 455.447L1018.01 439.641L1011.42 434.777C997.745 424.645 984.472 414.006 971.604 402.86C965.322 397.389 959.648 391.411 954.48 384.926C945.868 374.084 938.978 361.925 934.114 348.956L928.237 333.251C927.325 330.819 926.515 328.489 925.704 325.956L917.396 299.307C916.686 296.876 915.977 294.545 915.369 292.113L904.528 249.051L894.497 199.807L886.897 155.427L879.703 105.88L872.915 50.4559L867.544 -1.52318L862.478 -60.3923L858.223 -121.491L854.98 -186.541L854.372 -248.145L853.764 -311.371L853.156 -376.624L852.548 -440.053L851.434 -567.518L850.319 -693.97L849.914 -740.579" stroke="#0090ED" stroke-width="2" stroke-linecap="round" stroke-linejoin="round"/>
<path d="M916.484 -742.504L917.295 -633.48L918.308 -501.86L919.22 -376.421L919.727 -311.169L920.233 -247.943L921.247 -186.338L925.3 -121.288L930.163 -60.1896L935.736 -1.32048L941.714 50.6586L949.313 106.083L957.521 155.63L965.322 193.829C966.133 197.983 967.146 202.138 968.261 206.191L977.684 241.147C979.102 246.619 980.825 251.989 982.75 257.258L994.504 290.087C995.922 294.038 997.442 297.889 999.063 301.739L1006.76 319.674C1009.7 326.462 1012.94 333.048 1016.49 339.432L1025 354.529C1030.27 363.952 1036.35 372.97 1043.04 381.481C1050.03 390.398 1057.83 398.706 1066.24 406.407L1069.99 409.852C1077.29 416.539 1084.99 422.619 1093.19 428.191L1102.72 434.676C1107.89 438.121 1113.15 441.363 1118.52 444.403L1133.93 453.016C1137.27 454.839 1140.61 456.663 1144.06 458.284L1172.33 471.963L1221.77 493.748L1263.62 511.581L1325.02 537.621L1478.93 602.874L1595.86 652.421L1721.91 705.819L1899.73 781.204L2167.73 894.788L2302.8 952.036" stroke="#0090ED" stroke-width="2" stroke-linecap="round" stroke-linejoin="round"/>
<path d="M983.254 -740.478L983.558 -633.48L983.862 -501.86L984.166 -376.421L984.369 -311.169L984.571 -247.943C985.078 -206.805 987.003 -165.769 990.549 -124.834L990.853 -121.288L997.237 -60.1895L1004.43 -1.32035L1012.03 50.6588L1021.86 106.083L1022.77 110.237C1029.66 140.432 1037.66 170.424 1046.99 200.01L1066.54 249.254L1080.83 283.298C1084.38 291.708 1088.12 300.017 1092.08 308.224C1099.07 322.612 1106.67 336.595 1115.08 350.273L1118.32 355.644C1123.59 364.357 1129.57 372.666 1135.95 380.468L1136.76 381.481C1144.05 390.398 1152.06 398.706 1160.57 406.306C1170.6 415.222 1181.54 423.227 1193.1 430.218L1194.51 431.13C1204.14 436.905 1214.17 441.971 1224.51 446.227L1247.51 455.65L1290.77 471.558L1351.87 493.545L1401.82 511.378L1475.59 537.418L1659.89 602.671L1958.09 705.616L2303 824.773" stroke="#0090ED" stroke-width="2" stroke-linecap="round" stroke-linejoin="round"/>
<path d="M1050.03 -742.504L1051.14 -633.48L1052.46 -501.86L1053.67 -376.421L1054.28 -311.169L1054.89 -247.943C1055.6 -206.805 1057.63 -165.769 1061.07 -124.834L1061.38 -121.288L1068.27 -60.1895L1076.57 -1.3204L1085.49 50.6587L1097.14 106.083L1108.39 149.956C1109.4 153.705 1110.42 157.454 1111.63 161.102C1119.84 187.041 1129.16 212.574 1139.5 237.703L1141.52 242.566C1143.35 247.024 1145.27 251.381 1147.4 255.637L1167.36 295.863L1181.34 321.295C1184.48 326.868 1187.83 332.339 1191.37 337.709L1203.23 355.137C1209.31 364.155 1216.1 372.666 1223.59 380.569C1232.51 390.094 1242.24 398.706 1252.78 406.306L1256.73 409.244C1266.35 416.235 1276.59 422.416 1287.23 427.685L1302.53 435.183C1308.81 438.324 1315.29 441.06 1321.88 443.491L1354.81 455.65L1405.17 471.355L1481.16 493.647L1629.8 537.52L1849.68 602.772L2195.59 705.718L2304.11 738.04" stroke="#0090ED" stroke-width="2" stroke-linecap="round" stroke-linejoin="round"/>
<path d="M1116.7 -740.478V-311.27L1116.9 -257.366C1116.9 -251.185 1117.21 -244.903 1117.71 -238.722L1121.97 -186.338L1129.06 -121.288L1137.37 -60.1894L1147.1 -1.32026L1157.23 50.6589L1170.1 106.083L1183.78 155.63L1195.93 192.614C1197.56 197.578 1199.28 202.442 1201.2 207.204L1213.77 238.412C1216.6 245.606 1219.85 252.597 1223.39 259.487L1235.25 282.387C1239.91 291.303 1245.08 300.017 1250.75 308.325L1254.91 314.405C1261.9 324.639 1269.6 334.264 1278.01 343.282L1285.61 351.489C1296.25 362.939 1308 373.274 1320.66 382.495C1332.01 390.702 1344.07 397.997 1356.63 404.178L1379.84 415.526C1385.61 418.363 1391.59 420.998 1397.67 423.429L1439.31 439.844L1485.21 455.65L1534.76 471.052L1677.02 511.378L1870.35 563.256L2303 674.712" stroke="#0090ED" stroke-width="2" stroke-linecap="round" stroke-linejoin="round"/>
<path d="M1183.47 -742.504L1184.18 -633.48L1185.09 -501.86L1186.01 -376.421L1186.41 -311.169L1186.82 -255.035C1186.82 -250.273 1187.02 -245.511 1187.32 -240.85L1190.77 -186.338L1197.46 -121.288L1205.87 -60.1896L1216.2 -1.32048L1227.45 50.6586L1240.32 99.4967C1241.43 103.854 1242.75 108.211 1244.17 112.568L1255.62 148.233C1257.24 153.198 1258.96 158.062 1260.78 162.824L1271.52 190.486C1273.95 196.768 1276.69 203.05 1279.63 209.129L1292.6 235.879C1296.85 244.694 1301.62 253.306 1306.89 261.615L1318.94 280.664C1325.33 290.796 1332.52 300.422 1340.22 309.541L1357.34 329.704L1371.73 345.41C1385.72 360.811 1401.62 374.388 1418.95 385.939C1427.66 391.816 1436.78 397.085 1446.21 401.847L1471.94 414.715C1478.53 418.059 1485.22 420.997 1492 423.733L1525.04 436.905C1529.7 438.729 1534.46 440.451 1539.22 442.073L1579.85 455.549L1634.16 470.747L1729.61 493.444L1807.32 511.277L1923.24 537.317L2040.06 563.155L2222.24 602.671L2303.2 619.896" stroke="#0090ED" stroke-width="2" stroke-linecap="round" stroke-linejoin="round"/>
<path d="M1250.14 -740.478V-439.951L1250.34 -311.169L1253.48 -247.943L1258.85 -186.338L1266.56 -121.288L1275.98 -60.1895L1287.33 -1.32035L1299.59 50.6588L1312.05 93.8228C1314.38 102.03 1317.01 110.136 1319.95 118.242L1328.16 141.242C1331.61 150.868 1335.46 160.393 1339.61 169.816L1344.68 181.164C1350.35 193.829 1356.73 206.292 1363.62 218.248L1369.4 228.279C1377.5 242.363 1386.52 255.941 1396.35 269.012L1403.34 278.333C1412.36 290.29 1421.99 301.638 1432.22 312.48L1433.44 313.696C1443.67 324.537 1454.61 334.872 1466.06 344.599L1478.12 354.833C1489.26 364.256 1500.82 373.071 1512.87 381.177L1516.52 383.609C1527.87 391.31 1539.52 398.301 1551.58 404.786L1557.25 407.825C1572.35 415.931 1587.95 423.125 1604.06 429.205C1622.91 436.399 1642.26 442.174 1662.02 446.531L1704.88 455.954L1773.17 470.95L1878.45 493.951L1959.91 511.784L2079.17 537.824L2304.42 587.067" stroke="#0090ED" stroke-width="2" stroke-linecap="round" stroke-linejoin="round"/>
<path d="M1316.91 -742.504L1318.43 -501.962L1318.84 -440.053L1319.24 -378.65L1319.65 -311.371L1320.06 -258.582C1320.06 -251.59 1320.46 -244.599 1320.97 -237.608L1325.22 -186.439L1333.33 -121.389L1343.46 -60.291L1355.82 -1.42178L1367.27 43.0593C1368.59 48.0242 1370.01 52.9891 1371.53 57.954L1383.99 96.9636C1385.92 102.942 1388.04 108.92 1390.37 114.797L1401.42 142.661C1404.26 149.855 1407.4 157.049 1410.94 163.939L1421.08 184.406C1426.24 194.741 1432.02 204.772 1438.4 214.398L1454.21 238.209C1459.07 245.504 1464.24 252.597 1469.81 259.487L1499.3 295.964L1521.69 320.991C1526.96 326.867 1532.53 332.643 1538.31 338.013L1556.85 355.441C1566.27 364.256 1576.3 372.463 1586.84 379.961C1600.92 389.891 1615.82 398.503 1631.52 405.697L1640.24 409.649C1654.93 416.438 1670.23 421.808 1685.83 425.962L1730.62 437.614C1736.19 439.033 1741.87 440.35 1747.64 441.465L1820.29 455.65L1899.93 470.342L2029.73 493.646L2130.54 511.479L2304.72 541.877" stroke="#0090ED" stroke-width="2" stroke-linecap="round" stroke-linejoin="round"/>
<path d="M1383.69 -740.478L1383.99 -633.48L1384.4 -501.86L1384.6 -439.951L1384.8 -376.523L1385 -311.27L1387.13 -248.044L1391.89 -186.439L1399.7 -121.389L1409.93 -60.2908L1420.87 -10.7435C1422.29 -4.5627 1423.81 1.61807 1425.53 7.6975L1434.45 39.3105C1436.58 46.7071 1438.91 54.1038 1441.54 61.3991L1452.49 91.6949C1455.93 101.219 1459.78 110.541 1464.04 119.66L1473.16 138.912C1478.32 149.956 1484.2 160.696 1490.58 171.133L1501.83 189.371C1506.19 196.362 1510.75 203.252 1515.61 209.94L1538.71 241.654C1542.36 246.619 1546.11 251.483 1549.96 256.245L1575.19 287.047C1579.95 292.823 1584.92 298.497 1589.98 303.968L1603.46 318.356C1610.55 325.956 1618.05 333.15 1625.85 339.938L1642.67 354.732C1653.21 363.952 1664.25 372.565 1675.91 380.367C1690.19 389.992 1705.29 398.402 1720.89 405.697L1724.14 407.217C1742.27 415.627 1761.12 422.315 1780.37 427.178L1820.09 437.311C1826.68 439.033 1833.36 440.452 1840.05 441.769L1914.02 455.751L1993.86 470.241L2125.78 493.748L2227.41 511.581L2304.21 524.956" stroke="#0090ED" stroke-width="2" stroke-linecap="round" stroke-linejoin="round"/>
</g>
<defs>
<clipPath id="clip0_2071_8626">
<rect width="1440.43" height="640.193" fill="white"/>
</clipPath>
</defs>
</svg>
