<svg xmlns="http://www.w3.org/2000/svg" xml:space="preserve" x="0" y="0" version="1.1" viewBox="0 0 1580 1580" width="1580" height="1580">
  <style>
    .st0{fill:none;stroke:#592acb;stroke-width:2;stroke-miterlimit:10}
  </style>
  <path d="m90.6 4.5-1410 893.4" class="st0"/>
  <path d="m152.5 4.5-1288.6 893.4" class="st0"/>
  <path d="M214.4 4.5-952.9 897.9" class="st0"/>
  <path d="M276.2 4.5-769.7 897.9" class="st0"/>
  <path d="m338.1 4.5-924.5 893.4" class="st0"/>
  <path d="m399.9 4.5-803.2 893.4" class="st0"/>
  <path d="M461.8 4.5-220 897.9" class="st0"/>
  <path d="M523.7 4.5-36.8 897.9" class="st0"/>
  <path d="M585.5 4.5-131.3 1463" class="st0"/>
  <path d="M647.4 4.5 76.9 1608.7" class="st0"/>
  <path d="M709.2 4.5 338.1 1693.1" class="st0"/>
  <path d="M771.1 4.5 630.9 1674.7" class="st0"/>
  <path d="M832.9 4.5 919 1662.9" class="st0"/>
  <path d="m894.8 4.5 301.1 1604.1" class="st0"/>
  <path d="m956.6 4.5 525 1622.3" class="st0"/>
  <path d="m1018.5 4.5 631.1 1373.6" class="st0"/>
  <path d="m1080.4 4.5 531.8 893.4" class="st0"/>
  <path d="m1142.2 4.5 653.2 893.4" class="st0"/>
  <path d="m1204.1 4.5 774.5 893.4" class="st0"/>
  <path d="m1265.9 4.5 895.9 893.4" class="st0"/>
  <path d="M1327.8 4.5 2345 897.9" class="st0"/>
  <path d="m1389.7 4.5 1138.6 893.4" class="st0"/>
  <path d="m1451.5 4.5 1260 893.4" class="st0"/>
  <path d="m1513.4 4.5 1381.3 893.4" class="st0"/>
  <path d="M1677.7 77.6h-1752" class="st0"/>
  <path d="M1677.7 170.4h-1752" class="st0"/>
  <path d="M1677.7 228.2h-1752" class="st0"/>
  <path d="M1677.7 290.4h-1752" class="st0"/>
  <path d="M1677.7 360.9h-1752" class="st0"/>
  <path d="M1677.7 441.5h-1752" class="st0"/>
  <path d="M1677.7 531.3h-1752" class="st0"/>
  <path d="M1677.7 730.9h-1752" class="st0"/>
  <path d="M1677.7 846.9h-1752" class="st0"/>
  <path d="M1677.7 4.5h-1752" class="st0"/>
  <path d="M1677.7 621.3h-1752" class="st0"/>
  <path d="M1677.7 34.9h-1752" class="st0"/>
  <path d="M1677.7 121.9h-1752" class="st0"/>
  <path d="M1677.7 987h-1752" class="st0"/>
  <path d="M1677.7 1162.6h-1752" class="st0"/>
  <path d="M1677.7 1378.2h-1752" class="st0"/>
  <path d="M1677.7 1608.7h-1752" class="st0"/>
</svg>
