<svg width="1441" height="641" viewBox="0 0 1441 641" fill="none" xmlns="http://www.w3.org/2000/svg">
<g clip-path="url(#clip0_2071_8778)">
<path d="M1450.69 -146.685C1036.63 103.82 403.941 103.82 -10.1211 -146.685" stroke="#FF9AA2" stroke-width="2" stroke-miterlimit="10"/>
<path d="M1450.5 -58.4103C1036.43 192.095 403.749 192.095 -10.3125 -58.4103" stroke="#FF9AA2" stroke-width="2" stroke-miterlimit="10"/>
<path d="M1450.69 29.0133C1036.63 279.519 403.941 279.519 -10.1211 29.0133" stroke="#FF9AA2" stroke-width="2" stroke-miterlimit="10"/>
<path d="M1450.69 116.868C1036.63 367.374 403.941 367.374 -10.1211 116.868" stroke="#FF9AA2" stroke-width="2" stroke-miterlimit="10"/>
<path d="M1450.69 204.723C1036.63 455.229 403.941 455.229 -10.1211 204.723" stroke="#FF9AA2" stroke-width="2" stroke-miterlimit="10"/>
<path d="M1450.69 292.567C1036.63 543.073 403.941 543.073 -10.1211 292.567" stroke="#FF9AA2" stroke-width="2" stroke-miterlimit="10"/>
<path d="M1450.69 380.422C1036.63 630.928 403.941 630.928 -10.1211 380.422" stroke="#FF9AA2" stroke-width="2" stroke-miterlimit="10"/>
<path d="M1450.69 468.279C1036.63 718.784 403.941 718.784 -10.1211 468.279" stroke="#FF9AA2" stroke-width="2" stroke-miterlimit="10"/>
<path d="M1450.69 556.121C1036.63 806.626 403.941 806.626 -10.1211 556.121" stroke="#FF9AA2" stroke-width="2" stroke-miterlimit="10"/>
<path d="M110.91 -262.648V708.617" stroke="#FF9AA2" stroke-width="2" stroke-miterlimit="10"/>
<path d="M237.199 -213.276V757.989" stroke="#FF9AA2" stroke-width="2" stroke-miterlimit="10"/>
<path d="M370.332 -176.241V795.024" stroke="#FF9AA2" stroke-width="2" stroke-miterlimit="10"/>
<path d="M508.352 -151.553V819.712" stroke="#FF9AA2" stroke-width="2" stroke-miterlimit="10"/>
<path d="M649.305 -139.216V832.049" stroke="#FF9AA2" stroke-width="2" stroke-miterlimit="10"/>
<path d="M791.234 -139.216V832.049" stroke="#FF9AA2" stroke-width="2" stroke-miterlimit="10"/>
<path d="M932.211 -151.553V819.712" stroke="#FF9AA2" stroke-width="2" stroke-miterlimit="10"/>
<path d="M1070.23 -176.241V795.024" stroke="#FF9AA2" stroke-width="2" stroke-miterlimit="10"/>
<path d="M1203.36 -213.276C1203.36 110.479 1203.36 434.234 1203.36 757.989" stroke="#FF9AA2" stroke-width="2" stroke-miterlimit="10"/>
<path d="M1329.65 -262.648V708.617" stroke="#FF9AA2" stroke-width="2" stroke-miterlimit="10"/>
</g>
<defs>
<clipPath id="clip0_2071_8778">
<rect width="1440.43" height="640.193" fill="white"/>
</clipPath>
</defs>
</svg>
