<svg xmlns="http://www.w3.org/2000/svg" xml:space="preserve" x="0" y="0" version="1.1" viewBox="0 0 1463 1460" width="1463" height="1460">
  <style>
    .st0{fill:none;stroke:#ff9aa2;stroke-width:2;stroke-miterlimit:10}
  </style>
  <path d="M1462.5 155.9c-414.1 250.5-1046.7 250.5-1460.8 0" class="st0"/>
  <path d="M1462.5 244.5C1048.5 495 415.8 495 1.7 244.5" class="st0"/>
  <path d="M1462.5 333c-414 250.5-1046.7 250.5-1460.8 0" class="st0"/>
  <path d="M1462.5 421.5C1048.5 672 415.8 672 1.7 421.5" class="st0"/>
  <path d="M1462.5 510.1c-414.1 250.5-1046.7 250.5-1460.8 0" class="st0"/>
  <path d="M1462.5 598.6c-414.1 250.5-1046.7 250.5-1460.8 0" class="st0"/>
  <path d="M1462.5 687.2c-414.1 250.5-1046.7 250.5-1460.8 0" class="st0"/>
  <path d="M1462.5 775.7c-414.1 250.5-1046.7 250.5-1460.8 0" class="st0"/>
  <path d="M1462.5 864.2c-414.1 250.5-1046.7 250.5-1460.8 0" class="st0"/>
  <path d="M1462.5 952.8c-414.1 250.5-1046.7 250.5-1460.8 0" class="st0"/>
  <path d="M1462.5 1041.3c-414.1 250.5-1046.7 250.5-1460.8 0" class="st0"/>
  <path d="M1462.5 1129.8c-414.1 250.5-1046.7 250.5-1460.8 0" class="st0"/>
  <path d="M4.4-6.8v1472" class="st0"/>
  <path d="M144.9-6.8v1474.5" class="st0"/>
  <path d="M255.2-6.8v1474.5" class="st0"/>
  <path d="M381.3-6.8v1474.5" class="st0"/>
  <path d="M519.4-6.8v1474.5" class="st0"/>
  <path d="M660.3-6.8v1474.5" class="st0"/>
  <path d="M802.2-6.8v1474.5" class="st0"/>
  <path d="M943.2-6.8v1474.5" class="st0"/>
  <path d="M1081.2-6.8v1474.5" class="st0"/>
  <path d="M1201.4-6.8v1474.5" class="st0"/>
  <path d="M1306.7-6.8v1474.5" class="st0"/>
  <path d="M1458.1-6.8v1472" class="st0"/>
  <path d="M60-9.3v1474.5" class="st0"/>
  <path d="M1394.2-9.3v1474.5" class="st0"/>
  <path d="M1462.5-109.7c-414.1 250.5-1046.7 250.5-1460.8 0" class="st0"/>
  <path d="M1462.5-21.1c-414 250.5-1046.7 250.5-1460.8 0" class="st0"/>
  <path d="M1462.5 67.4c-414 250.5-1046.7 250.5-1460.8 0" class="st0"/>
  <path d="M1462.5 1218.4c-414.1 250.5-1046.7 250.5-1460.8 0" class="st0"/>
  <path d="M1462.5 1306.9c-414.1 250.5-1046.7 250.5-1460.8 0" class="st0"/>
  <path d="M1462.5 1395.4c-414.1 250.5-1046.7 250.5-1460.8 0" class="st0"/>
</svg>
