<svg width="1442" height="665" viewBox="0 0 1442 665" fill="none" xmlns="http://www.w3.org/2000/svg">
<g clip-path="url(#clip0_2071_8721)">
<path d="M58.0854 -0.0317383L-1230.52 893.341" stroke="#592ACB" stroke-width="2" stroke-miterlimit="10"/>
<path d="M119.947 -0.0317383L-1047.29 893.341" stroke="#592ACB" stroke-width="2" stroke-miterlimit="10"/>
<path d="M181.802 -0.0317383L-864.086 893.341" stroke="#592ACB" stroke-width="2" stroke-miterlimit="10"/>
<path d="M243.656 -0.0317383L-680.867 893.341" stroke="#592ACB" stroke-width="2" stroke-miterlimit="10"/>
<path d="M305.535 -0.0317383L-497.641 893.341" stroke="#592ACB" stroke-width="2" stroke-miterlimit="10"/>
<path d="M367.388 -0.0317383L-314.422 893.341" stroke="#592ACB" stroke-width="2" stroke-miterlimit="10"/>
<path d="M429.245 -0.0317383L-131.199 893.341" stroke="#592ACB" stroke-width="2" stroke-miterlimit="10"/>
<path d="M491.101 -0.0317383L52.0039 893.341" stroke="#592ACB" stroke-width="2" stroke-miterlimit="10"/>
<path d="M552.958 -0.0317383L235.227 893.341" stroke="#592ACB" stroke-width="2" stroke-miterlimit="10"/>
<path d="M614.815 -0.0317383L418.449 893.341" stroke="#592ACB" stroke-width="2" stroke-miterlimit="10"/>
<path d="M676.672 -0.0317383L601.672 893.341" stroke="#592ACB" stroke-width="2" stroke-miterlimit="10"/>
<path d="M738.527 -0.0317383L784.892 893.341" stroke="#592ACB" stroke-width="2" stroke-miterlimit="10"/>
<path d="M800.383 -0.0317383L968.095 893.341" stroke="#592ACB" stroke-width="2" stroke-miterlimit="10"/>
<path d="M862.238 -0.0317383L1151.32 893.341" stroke="#592ACB" stroke-width="2" stroke-miterlimit="10"/>
<path d="M924.094 -0.0317383L1334.54 893.341" stroke="#592ACB" stroke-width="2" stroke-miterlimit="10"/>
<path d="M985.953 -0.0317383L1517.76 893.341" stroke="#592ACB" stroke-width="2" stroke-miterlimit="10"/>
<path d="M1047.81 -0.0317383L1700.98 893.341" stroke="#592ACB" stroke-width="2" stroke-miterlimit="10"/>
<path d="M1109.68 -0.0317383L1884.18 893.341" stroke="#592ACB" stroke-width="2" stroke-miterlimit="10"/>
<path d="M1171.54 -0.0317383L2067.41 893.341" stroke="#592ACB" stroke-width="2" stroke-miterlimit="10"/>
<path d="M1233.39 -0.0317383L2250.63 893.341" stroke="#592ACB" stroke-width="2" stroke-miterlimit="10"/>
<path d="M1295.25 -0.0317383L2433.85 893.341" stroke="#592ACB" stroke-width="2" stroke-miterlimit="10"/>
<path d="M1357.11 -0.0317383L2617.08 893.341" stroke="#592ACB" stroke-width="2" stroke-miterlimit="10"/>
<path d="M1418.96 -0.0317383L2800.28 893.341" stroke="#592ACB" stroke-width="2" stroke-miterlimit="10"/>
<path d="M2808.71 83.0361H-1322.25" stroke="#592ACB" stroke-width="2" stroke-miterlimit="10"/>
<path d="M2808.71 163.843H-1322.25" stroke="#592ACB" stroke-width="2" stroke-miterlimit="10"/>
<path d="M2808.71 244.643H-1322.25" stroke="#592ACB" stroke-width="2" stroke-miterlimit="10"/>
<path d="M2808.71 325.451H-1322.25" stroke="#592ACB" stroke-width="2" stroke-miterlimit="10"/>
<path d="M2808.71 406.253H-1322.25" stroke="#592ACB" stroke-width="2" stroke-miterlimit="10"/>
<path d="M2808.71 487.058H-1322.25" stroke="#592ACB" stroke-width="2" stroke-miterlimit="10"/>
<path d="M2808.71 567.869H-1322.25" stroke="#592ACB" stroke-width="2" stroke-miterlimit="10"/>
</g>
<defs>
<clipPath id="clip0_2071_8721">
<rect width="1442" height="665" fill="white"/>
</clipPath>
</defs>
</svg>
