<svg width="1441" height="642" fill="none" xmlns="http://www.w3.org/2000/svg"><path d="M2412.96 629.902h-3647.65m3647.65-33.538h-3647.65m3647.65-33.133h-3647.65m3647.65-26.04h-3647.65m3647.65-25.736h-3647.65m3647.65-17.732h-3647.65m3647.65-20.67h-3647.65m3647.65-33.133h-3647.65m3647.65 15.807h-3647.65m3647.65-35.97h-3647.65m3647.65-24.926h-3647.65m3647.65-26.141h-3647.65m3647.65-38.909h-3647.65m3647.65-33.943h-3647.65m3647.65-46.508h-3647.65m3647.65-49.344h-3647.65m3647.65-44.482h-3647.65m3647.65-49.547h-3647.65m3647.65-55.424h-3647.65M111.652 1255.78l94.536-208.42 68.697-151.685 51.27-113.584 33.943-75.385 24.014-53.398 22.19-49.547 17.631-39.516 11.449-25.838 11.551-26.04 7.802-17.833 9.018-20.771 3.85-9.221c2.229-5.269 4.256-10.639 5.978-16.11 1.621-5.067 3.141-10.234 4.357-15.503l2.938-12.26 4.661-24.926 3.952-26.141 4.864-38.909 3.445-33.842 3.951-46.71 3.344-49.244 2.533-44.379 2.229-49.548 1.925-55.424.507-50.864.405-59.883.405-61.098.406-65.05.405-61.605.405-63.226.406-65.253.405-63.428.405-61.909 1.419-240.543" stroke="#0090ED" stroke-width="1.646" stroke-linecap="round" stroke-linejoin="round"/><path d="m-384.227 1257.81 195.859-210.45 141.246-151.685 105.68-113.584 70.117-75.385 49.648-53.398 46.001-49.547 36.781-39.516 24.014-25.838 24.216-26.04 16.516-17.833 19.555-21.076 10.335-11.753c3.04-3.445 5.979-6.991 8.714-10.639l2.229-2.837c3.851-5.066 7.498-10.234 10.842-15.604 4.965-8.005 9.423-16.313 13.172-24.824v-.203c3.648-7.903 6.586-16.009 9.018-24.216l1.621-5.269a169.027 169.027 0 0 0 4.256-17.124l6.181-30.194s5.674-32.627 5.775-33.235c.101-.608 5.674-47.318 5.674-47.318l4.256-49.243 3.242-44.38 3.141-49.548 3.243-55.424L439.84-.332l2.939-58.869 2.837-61.098.81-65.05.406-61.605.405-63.226.507-65.253.81-125.439.912-131.619.709-106.998" stroke="#0090ED" stroke-width="1.646" stroke-linecap="round" stroke-linejoin="round"/><path d="m383.403-741.516-.709 109.025-.912 131.62-.912 125.438-.507 65.253-1.013 63.226-1.419 61.605-2.127 65.05-2.533 61.098-3.04 58.87-3.243 51.978-4.255 55.425-4.762 49.547-5.371 44.38-6.89 43.569c-.608 3.749-1.317 7.498-2.229 11.247l-8.612 36.78c-.71 2.939-1.419 5.877-2.331 8.714l-8.815 29.587-11.247 33.234c-1.317 3.749-2.634 7.498-4.255 11.146l-4.56 10.74c-2.837 6.688-6.079 13.071-9.828 19.252l-1.216 2.127c-5.37 9.018-11.754 17.428-18.847 25.129-5.167 5.573-10.74 10.841-16.617 15.604l-7.396 5.978c-2.229 1.722-4.459 3.445-6.688 5.066l-19.656 14.185-29.384 21.278-24.419 17.833-36.274 26.041-36.072 25.837-55.221 39.516-69.508 49.548-75.081 53.397-105.884 75.385-159.889 113.584-213.793 151.684-293.839 208.42" stroke="#0090ED" stroke-width="1.646" stroke-linecap="round" stroke-linejoin="round"/><path d="m-1137.77 1131.56 160.09-84.3 287.76-151.686 215.009-113.584 142.36-75.385 100.817-53.398 93.218-49.547 73.967-39.517 48.129-25.837 47.926-26.04 31.511-17.833 36.173-21.582 25.838-16.415 23.405-15.806 6.586-4.864a668.849 668.849 0 0 0 39.821-31.917c6.282-5.471 11.956-11.45 17.123-17.934a132.944 132.944 0 0 0 20.367-35.97l5.876-15.705a153.572 153.572 0 0 0 2.533-7.296l8.309-26.648c.709-2.432 1.419-4.762 2.027-7.194l10.841-43.063 10.031-49.243 7.599-44.38 7.194-49.547 6.789-55.424 5.37-51.98 5.067-58.869 4.255-61.098 3.242-65.05.608-61.605.608-63.226.608-65.252.608-63.429 1.115-127.465 1.114-126.453.406-46.609" stroke="#0090ED" stroke-width="1.646" stroke-linecap="round" stroke-linejoin="round"/><path d="m249.959-741.516-.81 109.025-1.013 131.62-.912 125.438-.507 65.253-.507 63.226-1.013 61.605-4.053 65.05-4.863 61.098-5.573 58.87-5.978 51.978-7.599 55.425-8.208 49.547-7.802 38.199c-.81 4.154-1.823 8.309-2.938 12.362l-9.423 34.956c-1.419 5.472-3.141 10.842-5.066 16.111l-11.754 32.829a230.168 230.168 0 0 1-4.56 11.652l-7.7 17.934a223.456 223.456 0 0 1-9.727 19.758l-8.511 15.098c-5.269 9.423-11.349 18.441-18.036 26.952-6.991 8.916-14.793 17.225-23.203 24.925l-3.75 3.445a202.726 202.726 0 0 1-23.202 18.34l-9.525 6.485a254.613 254.613 0 0 1-15.806 9.727l-15.401 8.612c-3.344 1.824-6.688 3.648-10.133 5.269l-28.27 13.679-49.445 21.785-41.847 17.833-61.402 26.04-153.911 65.252-116.928 49.548-126.047 53.397-177.823 75.385-268.003 113.584-135.06 57.248" stroke="#0090ED" stroke-width="1.646" stroke-linecap="round" stroke-linejoin="round"/><path d="m183.186-739.489-.304 106.998-.304 131.62-.304 125.439-.202 65.252-.203 63.226c-.506 41.138-2.432 82.174-5.978 123.109l-.304 3.546-6.383 61.098L162.01-.33l-7.6 51.979-9.828 55.424-.912 4.154c-6.89 30.194-14.895 60.186-24.216 89.773l-19.556 49.243-14.286 34.045a550.433 550.433 0 0 1-11.247 24.926c-6.992 14.388-14.591 28.37-23.001 42.049l-3.242 5.37c-5.27 8.714-11.247 17.023-17.63 24.825l-.811 1.013A220.853 220.853 0 0 1 5.87 407.295c-10.031 8.917-20.974 16.921-32.525 23.913l-1.419.912c-9.626 5.775-19.657 10.841-29.992 15.097l-23 9.423-43.265 15.908-61.099 21.987-49.952 17.833-73.764 26.04-184.308 65.253-298.196 102.945-344.91 119.157" stroke="#0090ED" stroke-width="1.646" stroke-linecap="round" stroke-linejoin="round"/><path d="m116.413-741.516-1.114 109.025-1.317 131.62-1.216 125.438-.608 65.253-.608 63.226c-.709 41.138-2.736 82.174-6.181 123.109l-.304 3.546-6.89 61.098L89.867-.33 80.95 51.647l-11.652 55.424-11.247 43.873c-1.013 3.749-2.027 7.498-3.242 11.146-8.208 25.938-17.53 51.472-27.865 76.6l-2.026 4.864c-1.824 4.458-3.749 8.815-5.877 13.071L-.919 296.85l-13.983 25.433a273.428 273.428 0 0 1-10.031 16.414l-11.855 17.428c-6.08 9.018-12.868 17.529-20.366 25.432-8.917 9.524-18.644 18.137-29.182 25.736l-3.951 2.939a212.313 212.313 0 0 1-30.499 18.441l-15.3 7.498c-6.282 3.141-12.767 5.876-19.353 8.308l-32.93 12.159-50.358 15.705-75.993 22.291-148.642 43.874-219.872 65.252-345.916 102.945-108.52 32.322" stroke="#0090ED" stroke-width="1.646" stroke-linecap="round" stroke-linejoin="round"/><path d="M49.743-739.489v429.208l-.203 53.904c0 6.181-.304 12.463-.81 18.644l-4.256 52.384-7.093 65.05-8.308 61.098L19.346-.33 9.213 51.648l-12.868 55.424-13.679 49.547-12.158 36.983c-1.621 4.965-3.344 9.829-5.27 14.591l-12.563 31.208c-2.837 7.194-6.08 14.185-9.626 21.075l-11.855 22.899c-4.661 8.917-9.828 17.631-15.502 25.939l-4.155 6.08a244.551 244.551 0 0 1-23.102 28.877l-7.599 8.207c-10.639 11.45-22.392 21.785-35.058 31.005-11.348 8.208-23.406 15.503-35.97 21.684l-23.203 11.348c-5.776 2.837-11.754 5.471-17.833 7.903l-41.644 16.415-45.9 15.806-49.547 15.401-142.259 40.327-193.326 51.878-432.656 111.456M583.617 1257.81V-741.516M1055.58 1255.78l-94.531-208.42-68.697-151.685-51.27-113.584-33.944-75.385-24.013-53.398-22.19-49.547-17.631-39.516-11.449-25.838-11.551-26.04-7.802-17.833-9.018-20.771-3.85-9.221c-2.229-5.269-4.256-10.639-5.978-16.11-1.622-5.067-3.141-10.234-4.357-15.503l-2.939-12.26-4.661-24.926-3.951-26.141-4.864-38.909-3.445-33.842-3.951-46.71-3.344-49.244-2.533-44.379-2.229-49.548-1.925-55.424L654.95.682l-.405-59.883-.406-61.098-.405-65.05-.405-61.605-.406-63.226-.405-65.253-.405-63.428-.406-61.909-1.418-240.543" stroke="#0090ED" stroke-width="1.646" stroke-linecap="round" stroke-linejoin="round"/><path d="m1551.46 1257.81-195.85-210.45-141.25-151.685-105.68-113.584-70.12-75.385-49.646-53.398-46.001-49.547-36.78-39.516-24.014-25.838-24.216-26.04-16.516-17.833-19.556-21.076-10.335-11.753c-3.039-3.445-5.978-6.991-8.713-10.639l-2.23-2.837c-3.85-5.066-7.498-10.234-10.841-15.604-4.965-8.005-9.423-16.313-13.172-24.824v-.203c-3.648-7.903-6.586-16.009-9.018-24.216l-1.621-5.269a169.027 169.027 0 0 1-4.256-17.124l-6.181-30.194s-5.674-32.627-5.775-33.235c-.101-.608-5.674-47.318-5.674-47.318l-4.256-49.243-3.242-44.38-3.141-49.548-3.243-55.424-2.735-51.979-2.939-58.869-2.837-61.098-.81-65.05-.406-61.605-.405-63.226-.507-65.253-.81-125.439-.912-131.619-.71-106.998" stroke="#0090ED" stroke-width="1.646" stroke-linecap="round" stroke-linejoin="round"/><path d="m783.834-741.516.709 109.025.912 131.62.912 125.438.507 65.253 1.013 63.226 1.418 61.605 2.128 65.05 2.533 61.098 3.04 58.87 3.243 51.978 4.255 55.425 4.762 49.547 5.37 44.38 6.891 43.569c.607 3.749 1.317 7.498 2.229 11.247l8.612 36.78c.709 2.939 1.419 5.877 2.331 8.714l8.815 29.587 11.247 33.234c1.317 3.749 2.634 7.498 4.255 11.146l4.56 10.74c2.837 6.688 6.079 13.071 9.828 19.252l1.216 2.127c5.37 9.018 11.754 17.428 18.846 25.129 5.168 5.573 10.741 10.841 16.617 15.604l7.397 5.978c2.229 1.722 4.459 3.445 6.688 5.066l19.656 14.185 29.384 21.278 24.419 17.833 36.273 26.041 36.07 25.837 55.22 39.516 69.51 49.548 75.08 53.397 105.89 75.385 159.89 113.584 213.79 151.684 293.84 208.42" stroke="#0090ED" stroke-width="1.646" stroke-linecap="round" stroke-linejoin="round"/><path d="m2305.01 1131.56-160.09-84.3-287.76-151.686-215.01-113.584-142.36-75.385-100.82-53.398-93.22-49.547-73.96-39.517-48.13-25.837-47.93-26.04-31.51-17.833-36.17-21.582-25.84-16.415-23.4-15.806-6.59-4.864a668.527 668.527 0 0 1-39.821-31.917c-6.282-5.471-11.956-11.45-17.124-17.934a132.967 132.967 0 0 1-20.366-35.97l-5.877-15.705a154.7 154.7 0 0 1-2.533-7.296l-8.308-26.648c-.71-2.432-1.419-4.762-2.027-7.194l-10.842-43.063-10.031-49.243-7.599-44.38-7.194-49.547-6.789-55.424-5.37-51.98-5.066-58.869-4.256-61.098-3.242-65.05-.608-61.605-.608-63.226-.608-65.252-.608-63.429-1.114-127.465-1.115-126.453-.405-46.609" stroke="#0090ED" stroke-width="1.646" stroke-linecap="round" stroke-linejoin="round"/><path d="m917.277-741.516.811 109.025 1.013 131.62.912 125.438.507 65.253.506 63.226 1.014 61.605 4.052 65.05 4.864 61.098 5.573 58.87 5.978 51.978 7.599 55.425 8.208 49.547 7.801 38.199c.811 4.154 1.824 8.309 2.939 12.362l9.423 34.956c1.418 5.472 3.141 10.842 5.066 16.111l11.754 32.829a231.105 231.105 0 0 0 4.559 11.652l7.704 17.934a225.354 225.354 0 0 0 9.72 19.758l8.52 15.098c5.26 9.423 11.34 18.441 18.03 26.952 6.99 8.916 14.79 17.225 23.2 24.925l3.75 3.445c7.3 6.688 15 12.767 23.21 18.34l9.52 6.485a255.466 255.466 0 0 0 15.81 9.727l15.4 8.612c3.34 1.824 6.69 3.648 10.13 5.269l28.27 13.679 49.45 21.785 41.84 17.833 61.41 26.04 153.91 65.252 116.92 49.548 126.05 53.397 177.82 75.385 268.01 113.584 135.06 57.248" stroke="#0090ED" stroke-width="1.646" stroke-linecap="round" stroke-linejoin="round"/><path d="m984.051-739.489.304 106.998.304 131.62.304 125.439.202 65.252.203 63.226c.507 41.138 2.432 82.174 5.978 123.109l.304 3.546 6.384 61.098 7.196 58.87 7.6 51.979 9.83 55.424.91 4.154c6.89 30.194 14.89 60.186 24.21 89.773l19.56 49.243 14.29 34.045c3.54 8.41 7.29 16.719 11.24 24.926 6.99 14.388 14.59 28.37 23 42.049l3.25 5.37c5.26 8.714 11.24 17.023 17.63 24.825l.81 1.013c7.29 8.916 15.3 17.225 23.81 24.824 10.03 8.917 20.97 16.921 32.52 23.913l1.42.912c9.63 5.775 19.66 10.841 29.99 15.097l23 9.423 43.27 15.908 61.1 21.987 49.95 17.833 73.76 26.04 184.31 65.253 298.2 102.945 344.9 119.157" stroke="#0090ED" stroke-width="1.646" stroke-linecap="round" stroke-linejoin="round"/><path d="m1050.82-741.516 1.12 109.025 1.31 131.62 1.22 125.438.61 65.253.61 63.226c.7 41.138 2.73 82.174 6.18 123.109l.3 3.546 6.89 61.098 8.31 58.87 8.92 51.979 11.65 55.424 11.24 43.873c1.02 3.749 2.03 7.498 3.25 11.146 8.2 25.938 17.53 51.472 27.86 76.6l2.03 4.864c1.82 4.458 3.75 8.815 5.87 13.071l19.97 40.225 13.98 25.433a271.055 271.055 0 0 0 10.03 16.414l11.85 17.428c6.08 9.018 12.87 17.529 20.37 25.432 8.92 9.524 18.64 18.137 29.18 25.736l3.95 2.939a212.501 212.501 0 0 0 30.5 18.441l15.3 7.498c6.28 3.141 12.77 5.876 19.35 8.308l32.93 12.159 50.36 15.705 76 22.291 148.64 43.874 219.87 65.252 345.92 102.945 108.52 32.322" stroke="#0090ED" stroke-width="1.646" stroke-linecap="round" stroke-linejoin="round"/><path d="M1117.49-739.489v429.208l.21 53.904c0 6.181.3 12.463.81 18.644l4.25 52.384 7.09 65.05 8.31 61.098 9.73 58.87 10.13 51.979 12.87 55.424 13.68 49.547 12.16 36.983c1.62 4.965 3.34 9.829 5.27 14.591l12.56 31.208c2.84 7.194 6.08 14.185 9.63 21.075l11.85 22.899c4.66 8.917 9.83 17.631 15.5 25.939l4.16 6.08a244.392 244.392 0 0 0 23.1 28.877l7.6 8.207c10.64 11.45 22.39 21.785 35.06 31.005 11.35 8.208 23.4 15.503 35.97 21.684l23.2 11.348a257.88 257.88 0 0 0 17.83 7.903l41.65 16.415 45.9 15.806 49.54 15.401 142.26 40.327 193.33 51.878 432.65 111.456" stroke="#0090ED" stroke-width="1.646" stroke-linecap="round" stroke-linejoin="round"/><path d="m1184.27-741.516.7 109.025.92 131.62.91 125.438.4 65.253.41 56.133c0 4.763.2 9.525.51 14.186l3.44 54.512 6.69 65.05 8.41 61.098 10.33 58.87 11.25 51.978 12.87 48.839c1.11 4.356 2.43 8.713 3.85 13.07l11.45 35.666c1.62 4.965 3.34 9.829 5.17 14.591l10.74 27.661a251.33 251.33 0 0 0 8.1 18.644l12.97 26.749a256.041 256.041 0 0 0 14.29 25.737l12.06 19.049c6.38 10.132 13.57 19.758 21.27 28.877l17.13 20.163 14.39 15.705c13.98 15.402 29.89 28.979 47.21 40.53 8.72 5.877 17.84 11.146 27.26 15.908l25.73 12.868c6.59 3.344 13.28 6.282 20.07 9.018l33.03 13.172c4.66 1.824 9.42 3.546 14.18 5.167l40.63 13.477 54.31 15.198 95.45 22.697 77.72 17.833 115.91 26.04 116.83 25.837 182.18 39.517 80.96 17.225" stroke="#0090ED" stroke-width="1.646" stroke-linecap="round" stroke-linejoin="round"/><path d="M1250.94-739.489v300.527l.2 128.782 3.14 63.226 5.37 61.605 7.7 65.05 9.43 61.098 11.34 58.87 12.26 51.979 12.47 43.163a359.112 359.112 0 0 0 7.9 24.42l8.21 23c3.44 9.626 7.29 19.15 11.45 28.573l5.06 11.349a413.169 413.169 0 0 0 18.95 37.084l5.78 10.031c8.1 14.084 17.12 27.662 26.95 40.732l6.99 9.322a403.973 403.973 0 0 0 28.88 34.146l1.21 1.216c10.24 10.842 21.18 21.177 32.63 30.904l12.06 10.234c11.14 9.423 22.69 18.238 34.75 26.344l3.65 2.432c11.35 7.7 23 14.692 35.06 21.176l5.67 3.04c15.1 8.106 30.7 15.3 46.81 21.379a410.075 410.075 0 0 0 57.96 17.327l42.86 9.423 68.29 14.996 105.28 23 81.46 17.833 119.26 26.041 225.24 49.243" stroke="#0090ED" stroke-width="1.646" stroke-linecap="round" stroke-linejoin="round"/><path d="m1317.71-741.516 1.52 240.543.4 61.909.41 61.402.4 67.279.41 52.79c0 6.991.41 13.983.91 20.974l4.26 51.169 8.1 65.05 10.14 61.098 12.36 58.869 11.45 44.481c1.31 4.965 2.73 9.93 4.25 14.895l12.47 39.01a284.36 284.36 0 0 0 6.38 17.832l11.04 27.864c2.84 7.194 5.98 14.388 9.53 21.278l10.13 20.468c5.17 10.335 10.94 20.366 17.33 29.992l15.8 23.811c4.87 7.295 10.03 14.388 15.61 21.278l29.48 36.476 22.39 25.027c5.27 5.877 10.85 11.653 16.62 17.023l18.54 17.428a290.89 290.89 0 0 0 30 24.52c14.08 9.93 28.97 18.542 44.68 25.736l8.71 3.952c14.7 6.788 30 12.159 45.6 16.313l44.78 11.652c5.58 1.419 11.25 2.736 17.03 3.85l72.65 14.186 79.64 14.692 129.79 23.304 100.82 17.833 174.18 30.397" stroke="#0090ED" stroke-width="1.646" stroke-linecap="round" stroke-linejoin="round"/><path d="m1384.48-739.489.31 106.998.4 131.62.2 61.909.21 63.428.2 65.253 2.13 63.226 4.76 61.605 7.8 65.05 10.24 61.098 10.94 49.547c1.42 6.181 2.94 12.362 4.66 18.441l8.92 31.613c2.12 7.397 4.45 14.794 7.09 22.089l10.94 30.296a341.45 341.45 0 0 0 11.55 27.965l9.12 19.252c5.17 11.044 11.05 21.784 17.43 32.221l11.25 18.238c4.35 6.991 8.91 13.881 13.78 20.569l23.1 31.714c3.65 4.965 7.39 9.828 11.24 14.591l25.23 30.802c4.77 5.776 9.73 11.45 14.8 16.921l13.47 14.388a299.955 299.955 0 0 0 22.4 21.582l16.82 14.793c10.53 9.221 21.58 17.833 33.23 25.635 14.29 9.626 29.38 18.036 44.99 25.331l3.24 1.52a320.127 320.127 0 0 0 56.24 19.961l39.71 10.132c6.59 1.723 13.28 3.141 19.97 4.459l73.96 13.982 79.84 14.49 131.93 23.507 101.63 17.833 76.8 13.374" stroke="#0090ED" stroke-width="1.646" stroke-linecap="round" stroke-linejoin="round"/></svg>