<svg width="287" height="276" fill="none" xmlns="http://www.w3.org/2000/svg"><g clip-path="url(#a)" stroke="#333336" stroke-width="1.967" stroke-linecap="round" stroke-linejoin="round"><path d="M590.595-234.015c-123.545-123.546-324.003-123.546-447.548 0-123.545-123.546-324.003-123.546-447.548 0-123.545 123.545-123.545 324.003 0 447.548l447.548 447.548 447.548-447.548c123.546-123.545 123.546-324.003 0-447.548Z" fill="#FFFFF2"/><path d="M569.096-214.636c-117.64-117.641-308.409-117.641-426.049 0-117.64-117.641-308.409-117.641-426.049 0-117.641 117.64-117.641 308.408 0 426.049l426.049 426.049 426.049-426.049c117.64-117.64 117.64-308.409 0-426.049Z" fill="#C7ABFF"/><path d="M547.446-195.255c-111.736-111.736-292.814-111.736-404.398 0-111.736-111.736-292.814-111.736-404.399 0-111.735 111.735-111.735 292.814 0 404.398l404.399 404.398 404.398-404.398c111.736-111.736 111.736-292.814 0-404.398Z" fill="#9059FF"/><path d="M525.794-175.876c-105.679-105.679-277.068-105.679-382.899 0-105.68-105.679-277.068-105.679-382.899 0-105.68 105.68-105.68 277.068 0 382.899l382.899 382.9 382.899-382.9c105.68-105.679 105.68-277.068 0-382.899Z" fill="#FFABB0"/><path d="M504.297-156.497c-99.775-99.775-261.474-99.775-361.249 0-99.775-99.775-261.473-99.775-361.248 0-99.775 99.775-99.775 261.474 0 361.249L143.048 566l361.249-361.248c99.774-99.775 99.774-261.474 0-361.249Z" fill="#C4FCE3"/><path d="M485.673-139.842c-94.627-94.627-247.999-94.627-342.626 0-94.627-94.627-247.998-94.627-342.625 0-94.628 94.627-94.628 247.999 0 342.626L143.047 545.41l342.626-342.626c94.627-94.627 94.627-247.999 0-342.626Z" fill="#F7D5B6"/><path d="M465.99-122.279c-89.177-89.177-233.767-89.177-323.095 0-89.176-89.177-233.767-89.177-323.095 0-89.176 89.177-89.176 233.767 0 323.095l323.095 323.095L465.99 200.816c89.177-89.177 89.177-233.767 0-323.095Z" fill="#FFFFF2"/><path d="M445.855-104.111c-83.575-83.575-219.232-83.575-302.807 0-83.574-83.575-219.232-83.575-302.806 0-83.575 83.575-83.575 219.232 0 302.807l302.806 302.806 302.807-302.806c83.575-83.575 83.575-219.232 0-302.807Z" fill="#C7ABFF"/><path d="M425.564-85.942c-77.973-77.973-204.546-77.973-282.519 0-77.973-77.973-204.546-77.973-282.519 0-77.972 77.972-77.972 204.546 0 282.518l282.519 282.519 282.519-282.519c77.972-77.972 77.972-204.546 0-282.518Z" fill="#F7D5B6"/><path d="M406.942-69.289c-72.825-72.825-191.071-72.825-263.896 0-72.825-72.825-191.071-72.825-263.896 0-72.825 72.825-72.825 191.071 0 263.896l263.896 263.896 263.896-263.896c72.825-72.825 72.825-191.07 0-263.896Z" fill="#FFFFF2"/><path d="M386.655-51.12c-67.223-67.222-176.385-67.222-243.608 0-67.223-67.222-176.385-67.222-243.608 0-67.223 67.224-67.223 176.386 0 243.609l243.608 243.608 243.608-243.608c67.223-67.223 67.223-176.385 0-243.608Z" fill="#C7ABFF"/><path d="M367.124-33.556c-61.924-61.925-162.153-61.925-224.077 0-61.924-61.925-162.153-61.925-224.077 0-61.924 61.923-61.924 162.152 0 224.076l224.077 224.077L367.124 190.52c61.924-61.924 61.924-162.153 0-224.077Z" fill="#9059FF"/><path d="M347.138-14.177c-56.322-56.322-147.619-56.322-203.789 0-56.322-56.322-147.618-56.322-203.79 0-56.321 56.322-56.321 147.618 0 203.789l203.79 203.789 203.789-203.789c56.322-56.322 56.322-147.618 0-203.789Z" fill="#FFABB0"/><path d="M328.364 1.115c-51.174-51.174-134.144-51.174-185.318 0-51.174-51.174-134.143-51.174-185.318 0-51.174 51.175-51.174 134.143 0 185.318l185.318 185.318 185.318-185.318c51.174-51.175 51.174-134.143 0-185.318Z" fill="#C4FCE3"/><path d="M308.532 18.98c-45.724-45.723-119.76-45.723-165.484 0-45.724-45.723-119.76-45.723-165.484 0-45.723 45.724-45.723 119.761 0 165.485l165.484 165.483 165.484-165.483c45.724-45.724 45.724-119.76 0-165.484Z" fill="#F7D5B6"/><path d="M288.091 37.148c-40.122-40.122-105.074-40.122-145.196 0-40.122-40.122-105.074-40.122-145.196 0s-40.122 105.074 0 145.196L142.895 327.54l145.196-145.196c40.121-40.122 40.121-105.074 0-145.196Z" fill="#FFFFF2"/><path d="M268.106 55.165c-34.52-34.52-90.539-34.52-125.059 0-34.52-34.52-90.54-34.52-125.06 0-34.52 34.52-34.52 90.539 0 125.059l125.06 125.059 125.059-125.059c34.52-34.52 34.52-90.54 0-125.06Z" fill="#C7ABFF"/><path d="M249.027 72.274c-29.221-29.22-76.762-29.22-105.983 0-29.22-29.22-76.761-29.22-105.982 0-29.22 29.221-29.22 76.762 0 105.983l105.982 105.982 105.983-105.982c29.221-29.221 29.221-76.762 0-105.983Z" fill="#F7D5B6"/><path d="M229.952 89.383c-24.073-24.073-62.984-24.073-86.906 0-24.073-24.073-62.983-24.073-86.905 0-24.073 24.073-24.073 62.984 0 86.906l86.905 86.905 86.906-86.905c24.073-24.073 24.073-62.984 0-86.906Z" fill="#FFFFF2"/><path d="M209.817 107.399c-18.471-18.471-48.449-18.471-66.92 0-18.471-18.471-48.45-18.471-66.92 0-18.472 18.471-18.472 48.449 0 66.92l66.92 66.921 66.92-66.921c18.471-18.471 18.471-48.449 0-66.92Z" fill="#C7ABFF"/><path d="M189.074 126.023c-12.718-12.718-33.309-12.718-46.027 0-12.717-12.718-33.308-12.718-46.026 0-12.718 12.718-12.718 33.309 0 46.026l46.026 46.027 46.027-46.027c12.718-12.717 12.718-33.308 0-46.026Z" fill="#9059FF"/><path d="M171.813 141.465c-8.024-8.025-20.893-8.025-28.766 0-8.025-8.025-20.894-8.025-28.767 0-7.873 8.024-8.024 20.893 0 28.766l28.767 28.767 28.766-28.767c8.025-8.024 8.025-20.893 0-28.766Z" fill="#FFABB0"/></g><path stroke="#000" stroke-width="3.665" d="M1.879 2.309h282.335v270.93H1.879z"/><defs><clipPath id="a"><path fill="#fff" d="M.047.477h286v274.595h-286z"/></clipPath></defs></svg>