<svg width="331" height="107" fill="none" xmlns="http://www.w3.org/2000/svg"><path d="M188.828 32.881 171.667 12.29l-17.16 20.592H12.935v73.789H330.4V32.881H188.828Z" fill="#333336"/><path d="m178.214 22.268-17.16-20.592-17.16 20.592H2.322v73.789h317.464V22.268H178.214Z" fill="#FFFFF2" stroke="#333336" stroke-width="3.184" stroke-linecap="round" stroke-linejoin="round"/><path d="M251.674 41.145v41.184l10.296-10.296h41.184V41.144h-51.48Z" fill="#FF848C" stroke="#333336" stroke-width="1.592" stroke-linecap="round" stroke-linejoin="round"/><path d="M262.229 49.725h33.462M262.312 56.589h33.463M262.312 63.453h33.463" stroke="#333336" stroke-width="1.592" stroke-linecap="round" stroke-linejoin="round"/><path d="M184.262 57.618c2.745-1.115 4.633-3.775 4.633-6.95 0-3.174-3.346-7.55-7.551-7.55a7.507 7.507 0 0 0-7.55 7.55c0 4.205 1.888 5.835 4.633 6.95-6.521 1.373-11.411 7.122-11.411 13.986v7.55h28.571v-7.55c0-6.864-4.89-12.613-11.411-13.986h.086ZM100.236 46.55c-4.547-4.547-11.84-4.547-16.302 0-4.548-4.547-11.84-4.547-16.302 0-4.462 4.548-4.548 11.755-.086 16.302l16.302 16.303 16.302-16.303c4.548-4.547 4.548-11.84 0-16.302h.086Z" fill="#FF848C" stroke="#333336" stroke-width="1.592" stroke-linecap="round" stroke-linejoin="round"/><path d="M26.665 68.366V47.291h-7.678c-.808 0-1.554.435-1.554 1.554 0 1.12.745 1.554 1.554 1.554h4.57v17.967h-4.57c-.808 0-1.554.436-1.554 1.555s.745 1.554 1.554 1.554h12.247c.808 0 1.554-.435 1.554-1.554v-7.834c0-.901-.404-1.554-1.554-1.554s-1.554.653-1.554 1.554v6.28h-3.015Zm13.14-7.429h8.766c1.026 0 1.74-.155 2.518-.87.87-.809.964-1.648.964-2.767v-6.372c0-1.12-.094-1.959-.964-2.767-.777-.715-1.492-.87-2.518-.87h-10.32c-.808 0-1.554.435-1.554 1.554 0 1.12.746 1.554 1.554 1.554h10.693v7.43h-8.735c-2.331 0-3.512 1.18-3.512 3.512v10.134h13.801c.808 0 1.555-.435 1.555-1.554 0-1.12-.747-1.555-1.555-1.555H39.805v-7.429ZM131.594 60.937h8.766c1.025 0 1.74-.156 2.518-.87.87-.809.963-1.648.963-2.767v-6.372c0-1.12-.093-1.959-.963-2.767-.778-.715-1.493-.87-2.518-.87h-10.321c-.808 0-1.554.435-1.554 1.554s.746 1.554 1.554 1.554h10.694v7.43h-8.735c-2.332 0-3.513 1.18-3.513 3.512v10.134h13.802c.808 0 1.554-.436 1.554-1.555s-.746-1.554-1.554-1.554h-10.693v-7.43Zm28.403-10.538v4.29c0 1.367.062 1.337-.964 2.238l-4.29 3.699c-.777.684-.808.777-.808 1.803v7.491c0 .995.435 1.555 1.554 1.555s1.555-.56 1.555-1.555v-6.03c0-1.088.062-1.15.87-1.865l4.352-3.761c.87-.747.839-.87.839-1.959v-9.014h-13.801c-.995 0-1.555.87-1.555 1.554v1.554c0 .684.56 1.554 1.555 1.554.994 0 1.554-.87 1.554-1.554h9.139ZM225.701 50.4c.902 0 1.554-.622 1.554-1.555 0-.808-.652-1.554-1.461-1.554h-1.865c-1.088 0-1.336.84-1.336 1.554v20.671c0 1.43.559 1.959 2.02 1.959h11.315c1.399 0 2.021-.497 2.021-1.959v-6.963c0-1.43-.311-2.082-1.866-2.082h-10.382V50.399Zm9.139 13.18v4.786h-9.139V63.58h9.139Z" fill="#333336"/></svg>