<svg width="81" height="25" fill="none" xmlns="http://www.w3.org/2000/svg"><path d="M4.223 4.74c-.12-.182-.454-.546-.454-.818 0-.515.697-.424 1.03-.424h6.422c.94 0 1.454.151 1.454 1.181 0 .848.546 1.424 1.454 1.424 1.09 0 1.576-.788 1.576-1.757 0-1.06-.636-2.181-1.424-2.878-.879-.757-1.848-1-3-1H4.86c-.97 0-1.667 0-2.515.546C1.315 1.68.74 2.71.74 3.922c0 1.06.363 1.666 1 2.484l10.39 13.36c.121.181.545.635.545.878 0 .454-.757.363-1 .363H5.103c-.848 0-1.333-.12-1.333-1.03 0-.818-.545-1.545-1.424-1.545-1.06 0-1.605.849-1.605 1.818 0 1.06.606 2.15 1.423 2.817.91.758 1.909.97 3.06.97h6.665c2.09 0 3.817-1.151 3.817-3.424 0-1.03-.455-1.726-1.06-2.514L4.222 4.74ZM28.36 3.498v19.024c0 .97.424 1.515 1.515 1.515 1.09 0 1.514-.546 1.514-1.515V3.498h2.939v1.09c0 .97.424 1.515 1.515 1.515 1.09 0 1.514-.545 1.514-1.515V.468H22.391v4.12c0 .97.424 1.515 1.515 1.515 1.09 0 1.515-.545 1.515-1.515v-1.09h2.938Zm26.832-.546C54.464 1.53 53.22.468 51.525.468s-2.938 1.06-3.665 2.484l-3.03 6.029c-.575 1.181-.787 2.06-.787 3.362 0 1.454.394 2.363 1 3.605l2.786 5.574c.727 1.454 1.94 2.515 3.696 2.515 1.757 0 2.969-1.06 3.696-2.515l2.787-5.574c.606-1.242 1-2.15 1-3.605 0-1.302-.212-2.18-.788-3.362l-3.03-6.029Zm.09 6.938c.455.878.697 1.454.697 2.453 0 .788-.181 1.333-.515 2l-2.908 5.756c-.212.424-.424.908-1.03.908-.606 0-.818-.484-1.03-.909l-2.908-5.755c-.333-.667-.515-1.212-.515-2 0-1 .242-1.575.697-2.453l2.726-5.484c.243-.484.394-.908 1.03-.908s.788.424 1.03.908l2.727 5.484Zm13.443 5.24h6.634c1.636 0 2.878-.12 4.06-1.454 1.12-1.242 1.241-2.332 1.241-3.877v-4.12c0-1.636-.12-2.757-1.424-3.969C78.145.68 77.145.468 75.752.468H65.694v22.054c0 .97.424 1.515 1.515 1.515 1.09 0 1.515-.546 1.515-1.515V15.13Zm0-11.632h6.725c1.787 0 2.18.454 2.18 2.18V9.92c0 1.727-.393 2.181-2.18 2.181h-6.725V3.498Z" fill="#9059FF"/></svg>