<svg width="51" height="45" fill="none" xmlns="http://www.w3.org/2000/svg"><path d="M45.583 44.485h4.834L39.663 19.15a2.227 2.227 0 0 0-2.046-1.356h-2.459c-.892 0-1.699.534-2.046 1.355l-5.48 12.91c-.013-.006-.015-.026-.03-.03-3.556-1.536-6.827-3.74-9.677-6.524 3.286-3.588 5.898-7.826 7.53-12.411l1.488-4.197h2.714V4.45H17.053V0h-4.449v4.449H0v4.448h22.222l-.964 2.708c-1.379 3.879-3.565 7.47-6.302 10.552-2.058-2.67-3.722-5.65-4.852-8.811H5.377l.51 1.432a36.86 36.86 0 0 0 5.866 10.537 32.113 32.113 0 0 1-8.787 5.294v4.686a36.455 36.455 0 0 0 11.753-6.7c3.286 3.23 7.067 5.775 11.18 7.542l-3.544 8.348h4.834l3.147-7.414h12.1l3.147 7.414ZM32.225 32.623l4.161-9.805 4.161 9.805h-8.322Z" fill="#312A64"/></svg>