<svg xmlns="http://www.w3.org/2000/svg" xmlns:xlink="http://www.w3.org/1999/xlink" xmlns:a="http://ns.adobe.com/AdobeSVGViewerExtensions/3.0/" version="1.1" x="0px" y="0px" width="174px" height="200px" viewBox="-1.03 -1.36 174 200" overflow="visible" enable-background="new -1.03 -1.36 174 200" xml:space="preserve"><style>.style0{opacity:	0.6;fill-rule:	evenodd;clip-rule:	evenodd;fill:	#FFFFFF;}</style><defs></defs><path d="M66.31 74.99c-7.29-1.66-10.37 1.13-13.47 2.4 c-3.08 1.25-5.2 1.38-5.2 1.38s0.42 4.3 7.7 8.03s22.29 1.8 22.3 1.79S79.24 77.9 66.3 75 M169.88 22 c0 0-21.49-2.55-45.54-9.21C104.21 7.2 86.3 0 86.1 0c0 0 0 0 0 0c-0.13-0.05-18.04 7.17-38.25 12.8 c-24.05 6.66-45.54 9.21-45.54 9.21S-7.75 80.9 14.1 126.36c27.45 57.1 72 70.9 72 70.92h0.01c0 0 44.5-13.84 71.95-70.92 C179.94 80.9 169.9 22 169.9 22 M135.26 69.09c-0.42 7.4 1.2 16.26-8.14 29.03c-10.02 13.62-20.25 12.36-22.13 12.6 c-14.17 1.47-9.35-1.62-18.98-1.62c-9.63 0-5.21 3.03-18.75 1.62c-1.88-0.19-12.11 1.06-22.13-12.56 c-9.39-12.76-7.72-21.62-8.14-29.03c-0.42-7.41-1.88-15.44-1.88-15.44s3.13 4.7 9 5.15c5.84 0.4 8.35-2.06 20.67-5.76 c12.32-3.71 21.3 1 21.3 1.03h0.16c0 0 8.98-4.73 21.29-1.03c12.32 3.7 14.8 6.2 20.7 5.76c5.85-0.41 8.98-5.15 8.98-5.15 S135.68 61.7 135.3 69.1 M105.94 74.99C93 77.9 94.6 88.6 94.6 88.59s14.99 1.9 22.3-1.79c7.3-3.71 7.72-8.03 7.72-8.03 s-2.48-0.33-5.21-1.38C116.29 76.2 113.2 73.3 105.9 75" class="style0"/></svg>