<svg xmlns="http://www.w3.org/2000/svg" xmlns:xlink="http://www.w3.org/1999/xlink" xmlns:a="http://ns.adobe.com/AdobeSVGViewerExtensions/3.0/" version="1.1" x="0px" y="0px" width="151px" height="173px" viewBox="-0.48 -0.07 151 173" overflow="visible" enable-background="new -0.48 -0.07 151 173" xml:space="preserve"><style>.style0{opacity:	0.6;clip-path:	url(#SVGID_2_);fill:	#FFFFFF;}</style><defs></defs><g><defs><rect y="0" width="150" height="172.7"/></defs><clipPath><use xlink:href="#SVGID_1_" overflow="visible"/></clipPath><path d="M57.65 65.34c-6.36-1.43-8.99 0.96-11.69 2.1 c-2.7 1.11-4.53 1.19-4.53 1.19s0.4 3.7 6.8 7c6.36 3.3 19.4 1.6 19.4 1.59S68.94 67.9 57.6 65.34L57.65 65.34z M92.15 65.3 c-11.29 2.54-9.86 11.84-9.86 11.84s13.04 1.7 19.4-1.59c6.36-3.26 6.76-7 6.76-7s-2.15-0.31-4.53-1.19 C101.22 66.4 98.5 63.8 92.2 65.34L92.15 65.34z M147.8 19.16c0 0-18.68-2.23-39.59-8.03C90.72 6.3 75.1 0 74.9 0 C74.82-0.08 59.2 6.2 41.6 11.13c-20.91 5.8-39.59 8.03-39.59 8.03s-8.74 51.3 10.2 90.86C36.19 159.7 74.9 171.7 74.9 171.7 s38.71-12.08 62.64-61.68C156.54 70.4 147.8 19.2 147.8 19.16L147.8 19.16z M117.67 60.18c-0.39 6.4 1.1 14.15-7.07 25.3 c-8.75 11.85-17.65 10.73-19.24 10.97c-12.32 1.27-8.11-1.43-16.54-1.43c-8.35 0-4.53 2.62-16.29 1.4 c-1.67-0.16-10.57 0.96-19.24-10.97c-1.59-2.22-2.86-4.29-3.82-6.28l2.62 45.79c0 0-0.63 0.55-1.83 0.6 c-1.19 0-1.99-0.55-1.99-0.55l-1.43-53.66c-0.72-4.22-0.48-7.79-0.64-11.05c-0.4-6.44-1.67-13.43-1.67-13.43s2.7 4.1 7.8 4.5 c5.09 0.4 7.23-1.83 17.96-5.01c10.73-3.26 18.5 0.9 18.5 0.87h0.16c0 0 7.79-4.13 18.52-0.87c10.73 3.3 12.9 5.4 18 5 c5.09-0.4 7.79-4.45 7.79-4.45S118.06 53.7 117.7 60.18L117.67 60.18z" class="style0"/></g></svg>