<svg width="53" height="45" viewBox="0 0 53 45" fill="none" xmlns="http://www.w3.org/2000/svg"><path fill="#fff" d="M4.007 12.021h4.007v4.007H4.007zM4.007 8.014h4.007v4.007H4.007z"/><path fill="#5233C3" d="M44.077 4.007h4.007v4.007h-4.007zM48.084 16.028h4.007v4.007h-4.007zM48.084 12.021h4.007v4.007h-4.007zM48.084 8.014h4.007v4.007h-4.007zM40.07 0h4.007v4.007H40.07zM40.07 24.042h4.007v4.007H40.07zM44.077 20.035h4.007v4.007h-4.007zM36.063 28.049h4.007v4.007h-4.007zM32.056 32.056h4.007v4.007h-4.007zM28.049 36.063h4.007v4.007h-4.007zM16.028 0h4.007v4.007h-4.007zM20.035 4.007h4.007v4.007h-4.007zM23.304 40.07h5.483v4.007h-5.483z"/><path fill="#8760F6" d="M40.07 20.035h4.007v4.007H40.07zM40.07 16.028h4.007v4.007H40.07zM40.07 12.021h4.007v4.007H40.07zM40.07 8.014h4.007v4.007H40.07zM40.07 4.007h4.007v4.007H40.07zM44.077 16.028h4.007v4.007h-4.007zM44.077 12.021h4.007v4.007h-4.007zM44.077 8.014h4.007v4.007h-4.007zM32.056 4.007h4.007v4.007h-4.007zM32.056 0h4.007v4.007h-4.007zM36.063 24.042h4.007v4.007h-4.007zM36.063 20.035h4.007v4.007h-4.007zM36.063 16.028h4.007v4.007h-4.007zM36.063 12.021h4.007v4.007h-4.007zM36.063 8.014h4.007v4.007h-4.007zM36.063 4.007h4.007v4.007h-4.007zM36.063 0h4.007v4.007h-4.007zM32.056 28.049h4.007v4.007h-4.007zM32.056 24.042h4.007v4.007h-4.007zM32.056 20.035h4.007v4.007h-4.007zM32.056 16.028h4.007v4.007h-4.007zM32.056 12.021h4.007v4.007h-4.007zM32.056 8.014h4.007v4.007h-4.007zM28.049 32.056h4.007v4.007h-4.007zM28.049 28.049h4.007v4.007h-4.007zM28.049 24.042h4.007v4.007h-4.007zM28.049 20.035h4.007v4.007h-4.007zM28.049 16.028h4.007v4.007h-4.007zM28.049 12.021h4.007v4.007h-4.007zM28.049 8.014h4.007v4.007h-4.007zM28.049 4.007h4.007v4.007h-4.007zM4.007 4.007h4.007v4.007H4.007zM0 16.028h4.007v4.007H0zM0 12.021h4.007v4.007H0zM0 8.014h4.007v4.007H0zM12.021 0h4.007v4.007h-4.007zM8.014 24.042h4.007v4.007H8.014zM8.014 20.035h4.007v4.007H8.014zM4.007 20.035h4.007v4.007H4.007zM8.014 12.021h4.007v4.007H8.014zM8.014 8.014h4.007v4.007H8.014zM8.014 4.007h4.007v4.007H8.014zM8.014 0h4.007v4.007H8.014zM4.007 16.028h4.007v4.007H4.007zM16.028 12.021h4.007v4.007h-4.007zM16.028 8.014h4.007v4.007h-4.007zM16.028 4.007h4.007v4.007h-4.007zM12.021 24.042h4.007v4.007h-4.007zM12.021 20.035h4.007v4.007h-4.007zM12.021 16.028h4.007v4.007h-4.007zM12.021 12.021h4.007v4.007h-4.007zM12.021 8.014h4.007v4.007h-4.007zM12.021 4.007h4.007v4.007h-4.007zM24.042 36.063h4.007v4.007h-4.007zM24.042 32.056h4.007v4.007h-4.007zM24.042 28.049h4.007v4.007h-4.007zM24.042 24.042h4.007v4.007h-4.007zM24.042 20.035h4.007v4.007h-4.007zM24.042 16.028h4.007v4.007h-4.007zM24.042 12.021h4.007v4.007h-4.007zM24.042 8.014h4.007v4.007h-4.007zM20.035 36.063h4.007v4.007h-4.007zM20.035 32.056h4.007v4.007h-4.007zM20.035 28.049h4.007v4.007h-4.007zM20.035 24.042h4.007v4.007h-4.007zM20.035 20.035h4.007v4.007h-4.007zM20.035 16.028h4.007v4.007h-4.007zM20.035 12.021h4.007v4.007h-4.007zM20.035 8.014h4.007v4.007h-4.007zM16.028 32.056h4.007v4.007h-4.007zM16.028 28.049h4.007v4.007h-4.007zM12.021 28.049h4.007v4.007h-4.007zM16.028 24.042h4.007v4.007h-4.007zM16.028 20.035h4.007v4.007h-4.007zM16.028 16.028h4.007v4.007h-4.007zM23.304 40.07h2.531v4.007h-2.531zM8.014 16.028h4.007v4.007H8.014z"/></svg>
