<svg width="240" height="176" viewBox="0 0 240 176" fill="none" xmlns="http://www.w3.org/2000/svg"><g clip-path="url(#a)"><g clip-path="url(#b)"><path d="m101.705 92.646-8.8 33.132a2.237 2.237 0 0 1-1.868 1.653 2.25 2.25 0 0 1-2.24-1.099 2.237 2.237 0 0 1-.224-1.704l8.8-33.133a37.322 37.322 0 0 0-4.91-30.006 2.266 2.266 0 0 1 2.461-3.412c.535.147.999.483 1.304.947a41.915 41.915 0 0 1 5.477 33.622Z" fill="url(#c)"/><path d="M89.765 54.389a2.24 2.24 0 0 1-2.223.665c-.353-.1-.679-.28-.952-.526a37.083 37.083 0 0 0-45.71-3.764 2.317 2.317 0 0 1-1.821.28A2.258 2.258 0 0 1 38.414 47a41.6 41.6 0 0 1 51.23 4.248 2.22 2.22 0 0 1 .12 3.142Z" fill="url(#d)"/><path d="M32.109 58.721a36.79 36.79 0 0 0-6.864 13.62l-6.769 25.487a2.24 2.24 0 1 1-4.332-1.15l6.769-25.487a41.418 41.418 0 0 1 7.68-15.259 2.251 2.251 0 0 1 2.334-.771 2.244 2.244 0 0 1 1.182 3.56Z" fill="url(#e)"/><path d="m71.121 84.523-9.476 35.681a2.243 2.243 0 0 1-2.74 1.585 2.244 2.244 0 0 1-1.593-2.735l9.477-35.681a5.675 5.675 0 0 0-10.173-4.64 5.586 5.586 0 0 0-.787 1.729l-8.799 33.132a24.804 24.804 0 0 1-20.044 18.66 2.29 2.29 0 0 1-.856-.064 2.237 2.237 0 0 1-1.654-1.885 2.277 2.277 0 0 1 1.949-2.511 20.305 20.305 0 0 0 16.272-15.35l8.8-33.133a9.769 9.769 0 0 1 1.427-3.113 10.222 10.222 0 0 1 3.77-3.31 10.138 10.138 0 0 1 14.427 11.635Z" fill="url(#f)"/><path d="m63.475 82.493-7.445 28.035a2.241 2.241 0 0 1-4.333-1.151l7.446-28.035a2.242 2.242 0 0 1 4.332 1.15Z" fill="url(#g)"/><path d="M54 118.174c-4.326 16.286-19.726 20.954-20.375 21.137a2.263 2.263 0 0 1-1.202.008 2.228 2.228 0 0 1-1.583-1.539 2.262 2.262 0 0 1 1.53-2.786 26.671 26.671 0 0 0 17.297-17.97 2.244 2.244 0 0 1 2.741-1.591A2.239 2.239 0 0 1 54 118.174Z" fill="url(#h)"/><path d="M58.939 128.136a42.86 42.86 0 0 1-15.3 16.209 2.247 2.247 0 0 1-1.699.231 2.238 2.238 0 0 1-1.584-2.74 2.244 2.244 0 0 1 1.036-1.362 39.046 39.046 0 0 0 13.52-14.335 2.255 2.255 0 0 1 2.576-1.171l.42.166a2.08 2.08 0 0 1 1.133 1.283 2.258 2.258 0 0 1-.102 1.719Z" fill="url(#i)"/><path d="m78.767 86.554-10.153 38.23c-4.25 16.005-14.361 22.024-14.78 22.267a2.21 2.21 0 0 1-.827.285 2.212 2.212 0 0 1-1.656-.44 2.245 2.245 0 0 1 .237-3.716c.07-.062 8.964-5.504 12.694-19.547l10.153-38.23a13.58 13.58 0 0 0-26.252-6.971l-7.445 28.035c-5.124 19.293-20.319 18.668-20.453 18.66l-.447-.064a2.257 2.257 0 0 1-1.438-3.147 2.216 2.216 0 0 1 1.295-1.138c.28-.093.578-.129.873-.105.46.013 11.675.317 15.837-15.357l7.446-28.035a18.064 18.064 0 0 1 34.916 9.273Z" fill="url(#j)"/><path d="M45.349 67.53a21.126 21.126 0 0 0-4.812 8.872l-7.446 28.035c-1.367 5.149-6.533 14.226-16.32 11.627a2.24 2.24 0 0 1-1.591-2.742 2.24 2.24 0 0 1 2.742-1.591c7.926 2.105 10.722-8.011 10.837-8.444l7.445-28.036a25.786 25.786 0 0 1 5.85-10.724 2.21 2.21 0 0 1 2.222-.665c.35.086.67.266.927.52.439.393.704.944.739 1.532a2.158 2.158 0 0 1-.593 1.616Z" fill="url(#k)"/><path d="m86.413 88.586-10.83 40.778a40.855 40.855 0 0 1-7.096 15.523 2.24 2.24 0 0 1-3.36-2.966 37.498 37.498 0 0 0 6.124-13.708l10.83-40.778a21.476 21.476 0 0 0-27.735-25.837c-.415.158-.87.18-1.3.064a2.243 2.243 0 0 1-.141-4.294 25.746 25.746 0 0 1 15.071-.554 26.008 26.008 0 0 1 18.437 31.772Z" fill="url(#l)"/><path d="M66.454 50.626a2.257 2.257 0 0 1-2.447 2.024A29.66 29.66 0 0 0 32.89 74.37l-6.769 25.487a9.87 9.87 0 0 1-12.418 7.206 2.243 2.243 0 0 1-1.584-2.74 2.24 2.24 0 0 1 2.735-1.592 5.34 5.34 0 0 0 4.38-.44 5.332 5.332 0 0 0 2.555-3.585l6.768-25.486A33.793 33.793 0 0 1 64.43 48.178l.338.063a2.266 2.266 0 0 1 1.686 2.385Z" fill="url(#m)"/><path d="m94.06 90.616-2.031 7.646a2.24 2.24 0 1 1-4.333-1.15l2.031-7.646a29.66 29.66 0 0 0-16.238-34.298 2.243 2.243 0 0 1 1.526-4.206l.325.113a33.793 33.793 0 0 1 18.72 39.541Z" fill="url(#n)"/><path d="m89.32 108.457-7.445 28.035a2.243 2.243 0 0 1-2.741 1.591 2.24 2.24 0 0 1-1.591-2.741l7.445-28.036a2.244 2.244 0 0 1 2.742-1.591 2.245 2.245 0 0 1 1.59 2.742Z" fill="url(#o)"/><path d="M167.235 153.93c6.362 0 13.716-1.735 17.132-3.333l-1.928-6.032c-2.314.826-8.677 2.837-14.846 2.837-18.537 0-28.481-10.219-28.481-28.508 0-17.517 9.833-28.838 27.461-28.838 16.114 0 25.726 10.357 25.699 24.349.027 11.954-1.515 17.325-6.528 17.325-2.837 0-4.407-2.314-4.407-5.206v-25.561h-6.776v3.085h-.358c-.826-2.424-5.619-4.6-11.375-3.911-7.961.937-14.791 7.52-14.791 18.372 0 11.32 5.784 18.895 15.066 19.253 6.28.275 10.356-2.644 11.651-5.895h.33c.662 4.435 5.454 6.391 10.164 6.225 11.761-.22 13.992-11.788 13.992-23.412 0-16.581-11.348-31.014-32.391-31.014-22.063 0-35.036 13.469-35.063 35.173.027 22.338 12.67 35.091 35.449 35.091Zm-2.535-22.916c-7.188 0-9.667-6.17-9.695-12.836.028-6.335 3.581-11.375 9.806-11.375 6.748 0 9.778 2.974 9.805 11.348.028 8.593-2.754 12.863-9.916 12.863Z" fill="url(#p)"/><g filter="url(#q)"><path d="M97.354 25.49c3.448-5.973 12.07-5.973 15.518 0l24.57 42.557c3.449 5.973-.862 13.44-7.759 13.44h-49.14c-6.897 0-11.208-7.467-7.76-13.44l24.57-42.557Z" fill="#fff"/></g><path d="M107.7 34.449a2.988 2.988 0 0 0-5.173 0L83.129 68.047a2.986 2.986 0 0 0 2.587 4.48h38.795a2.985 2.985 0 0 0 2.586-4.48L107.7 34.449Z" stroke="#FF2989" stroke-width="5.973" stroke-linejoin="round"/><path d="M103.375 58.537h3.494l1.129-11.1h-5.779l1.156 11.1Zm1.747 7.687c1.666 0 3.037-1.424 3.037-3.171 0-1.613-1.371-3.037-3.037-3.037-1.801 0-3.172 1.424-3.172 3.037a3.144 3.144 0 0 0 3.172 3.171Z" fill="#FF2989"/><g filter="url(#r)"><path d="M200.633 73.163c2.457-4.256 8.6-4.256 11.057 0l17.507 30.323c2.457 4.255-.615 9.575-5.529 9.575h-35.013c-4.914 0-7.986-5.32-5.529-9.575l17.507-30.323Z" fill="#fff"/></g><path d="M208.005 79.547a2.128 2.128 0 0 0-3.686 0l-13.821 23.939a2.129 2.129 0 0 0 1.843 3.192h27.642a2.13 2.13 0 0 0 1.843-3.192l-13.821-23.94Z" stroke="#FF2989" stroke-width="4.256" stroke-linejoin="round"/><path d="M204.923 96.748h2.49l.804-7.91h-4.118l.824 7.91Zm1.245 5.477c1.187 0 2.164-1.015 2.164-2.26 0-1.15-.977-2.164-2.164-2.164-1.283 0-2.26 1.015-2.26 2.164a2.24 2.24 0 0 0 2.26 2.26Z" fill="#FF2989"/></g></g><defs><linearGradient id="c" x1="101.301" y1="59.771" x2="83.796" y2="125.685" gradientUnits="userSpaceOnUse"><stop stop-color="#2059D4"/><stop offset="1" stop-color="#00B3F4"/></linearGradient><linearGradient id="d" x1="66.745" y1="40.117" x2="62.209" y2="57.193" gradientUnits="userSpaceOnUse"><stop stop-color="#2059D4"/><stop offset="1" stop-color="#00B3F4"/></linearGradient><linearGradient id="e" x1="29.322" y1="54.734" x2="17.34" y2="99.852" gradientUnits="userSpaceOnUse"><stop stop-color="#2059D4"/><stop offset="1" stop-color="#00B3F4"/></linearGradient><linearGradient id="f" x1="57.544" y1="70.413" x2="40.149" y2="135.913" gradientUnits="userSpaceOnUse"><stop stop-color="#2059D4"/><stop offset="1" stop-color="#00B3F4"/></linearGradient><linearGradient id="g" x1="61.885" y1="79.751" x2="53.288" y2="112.119" gradientUnits="userSpaceOnUse"><stop stop-color="#2059D4"/><stop offset="1" stop-color="#00B3F4"/></linearGradient><linearGradient id="h" x1="46.036" y1="113.74" x2="38.794" y2="141.011" gradientUnits="userSpaceOnUse"><stop stop-color="#2059D4"/><stop offset="1" stop-color="#00B3F4"/></linearGradient><linearGradient id="i" x1="52.669" y1="123.688" x2="46.78" y2="145.861" gradientUnits="userSpaceOnUse"><stop stop-color="#2059D4"/><stop offset="1" stop-color="#00B3F4"/></linearGradient><linearGradient id="j" x1="59.576" y1="62.768" x2="38.119" y2="143.56" gradientUnits="userSpaceOnUse"><stop stop-color="#2059D4"/><stop offset="1" stop-color="#00B3F4"/></linearGradient><linearGradient id="k" x1="37.906" y1="62.17" x2="23.144" y2="117.757" gradientUnits="userSpaceOnUse"><stop stop-color="#2059D4"/><stop offset="1" stop-color="#00B3F4"/></linearGradient><linearGradient id="l" x1="73.088" y1="58.172" x2="50.955" y2="141.51" gradientUnits="userSpaceOnUse"><stop stop-color="#2059D4"/><stop offset="1" stop-color="#00B3F4"/></linearGradient><linearGradient id="m" x1="48.232" y1="43.849" x2="30.274" y2="111.469" gradientUnits="userSpaceOnUse"><stop stop-color="#2059D4"/><stop offset="1" stop-color="#00B3F4"/></linearGradient><linearGradient id="n" x1="87.731" y1="54.339" x2="76.542" y2="96.468" gradientUnits="userSpaceOnUse"><stop stop-color="#2059D4"/><stop offset="1" stop-color="#00B3F4"/></linearGradient><linearGradient id="o" x1="87.73" y1="105.715" x2="79.134" y2="138.083" gradientUnits="userSpaceOnUse"><stop stop-color="#2059D4"/><stop offset="1" stop-color="#00B3F4"/></linearGradient><linearGradient id="p" x1="204.13" y1="86.267" x2="134.899" y2="149.531" gradientUnits="userSpaceOnUse"><stop stop-color="#175BD7"/><stop offset="1" stop-color="#00B8F6"/></linearGradient><clipPath id="a"><path fill="#fff" d="M0 0h240v176H0z"/></clipPath><clipPath id="b"><path fill="#fff" transform="translate(-11)" d="M0 0h263.6v184.982H0z"/></clipPath><filter id="q" x="68.583" y="18.024" width="79.032" height="72.422" filterUnits="userSpaceOnUse" color-interpolation-filters="sRGB"><feFlood flood-opacity="0" result="BackgroundImageFix"/><feColorMatrix in="SourceAlpha" values="0 0 0 0 0 0 0 0 0 0 0 0 0 0 0 0 0 0 127 0" result="hardAlpha"/><feOffset dx="2.986" dy="2.986"/><feGaussianBlur stdDeviation="2.986"/><feComposite in2="hardAlpha" operator="out"/><feColorMatrix values="0 0 0 0 0 0 0 0 0 0 0 0 0 0 0 0 0 0 0.15 0"/><feBlend in2="BackgroundImageFix" result="effect1_dropShadow_1043_3416"/><feBlend in="SourceGraphic" in2="effect1_dropShadow_1043_3416" result="shape"/></filter><filter id="r" x="180.134" y="67.844" width="56.311" height="51.601" filterUnits="userSpaceOnUse" color-interpolation-filters="sRGB"><feFlood flood-opacity="0" result="BackgroundImageFix"/><feColorMatrix in="SourceAlpha" values="0 0 0 0 0 0 0 0 0 0 0 0 0 0 0 0 0 0 127 0" result="hardAlpha"/><feOffset dx="2.128" dy="2.128"/><feGaussianBlur stdDeviation="2.128"/><feComposite in2="hardAlpha" operator="out"/><feColorMatrix values="0 0 0 0 0 0 0 0 0 0 0 0 0 0 0 0 0 0 0.15 0"/><feBlend in2="BackgroundImageFix" result="effect1_dropShadow_1043_3416"/><feBlend in="SourceGraphic" in2="effect1_dropShadow_1043_3416" result="shape"/></filter></defs></svg>
