<svg width="240" height="176" viewBox="0 0 240 176" fill="none" xmlns="http://www.w3.org/2000/svg"><g filter="url(#a)"><path d="M228.399 116.111H9.636c-1.989 0-3.601 2.169-3.601 4.845v26.647c0 2.675 1.612 4.844 3.6 4.844H228.4c1.989 0 3.601-2.169 3.601-4.844v-26.647c0-2.676-1.612-4.845-3.601-4.845Z" fill="#fff"/></g><path d="M138.576 132.157H63.85c-1.18 0-2.135.696-2.135 1.556v4.069c0 .859.956 1.556 2.134 1.556h74.727c1.179 0 2.134-.697 2.134-1.556v-4.069c0-.86-.955-1.556-2.134-1.556Z" fill="#D7D7DB"/><path d="M157.806 132.439h-4.059c-.855 0-1.547.692-1.547 1.545v4.037c0 .853.692 1.545 1.547 1.545h4.059c.855 0 1.547-.692 1.547-1.545v-4.037c0-.853-.692-1.545-1.547-1.545Z" fill="#EDEDF0"/><path d="M214.482 129.285h-13.215a6.44 6.44 0 0 0-6.445 6.435c0 3.553 2.885 6.434 6.445 6.434h13.215c3.56 0 6.445-2.881 6.445-6.434a6.44 6.44 0 0 0-6.445-6.435Z" fill="#0060DF" stroke="#0060DF" stroke-width="2.439"/><path d="M214.449 141.342c3.119 0 5.648-2.518 5.648-5.623 0-3.105-2.529-5.622-5.648-5.622-3.119 0-5.647 2.517-5.647 5.622s2.528 5.623 5.647 5.623Z" fill="#fff"/><g filter="url(#b)"><path d="M228.399 70.691H9.636c-1.989 0-3.601 2.102-3.601 4.694v25.813c0 2.592 1.612 4.694 3.6 4.694H228.4c1.989 0 3.601-2.102 3.601-4.694V75.385c0-2.593-1.612-4.694-3.601-4.694Z" fill="#EDEDF0"/></g><path d="M157.807 86.21h-4.06c-.854 0-1.547.692-1.547 1.545v4.038c0 .852.693 1.544 1.547 1.544h4.06c.854 0 1.546-.692 1.546-1.544v-4.038c0-.853-.692-1.544-1.546-1.544ZM138.576 86.196H63.85c-1.18 0-2.135.697-2.135 1.556v4.07c0 .859.956 1.555 2.134 1.555h74.727c1.179 0 2.134-.696 2.134-1.556v-4.069c0-.86-.955-1.556-2.134-1.556Z" fill="#fff"/><path d="M215.661 83.323h-13.042c-3.513 0-6.361 2.843-6.361 6.35 0 3.508 2.848 6.35 6.361 6.35h13.042a6.355 6.355 0 0 0 6.36-6.35 6.355 6.355 0 0 0-6.36-6.35Z" fill="#B1B1B3" stroke="#B1B1B3" stroke-width="2.439"/><path d="M202.635 95.222c3.078 0 5.573-2.484 5.573-5.548 0-3.065-2.495-5.549-5.573-5.549-3.078 0-5.574 2.484-5.574 5.549 0 3.064 2.496 5.548 5.574 5.548Z" fill="#fff"/><g filter="url(#c)"><path d="M228.399 23H9.636c-1.989 0-3.601 2.237-3.601 4.996v27.48c0 2.759 1.612 4.996 3.6 4.996H228.4c1.989 0 3.601-2.237 3.601-4.997V27.996c0-2.76-1.612-4.996-3.601-4.996Z" fill="#fff"/></g><path d="M157.807 38.8h-4.06c-.854 0-1.547.69-1.547 1.543v4.038c0 .853.693 1.544 1.547 1.544h4.06c.854 0 1.546-.691 1.546-1.544v-4.038c0-.853-.692-1.544-1.546-1.544Z" fill="#EDEDF0"/><path d="M138.576 38.8H63.85c-1.179 0-2.134.696-2.134 1.555v4.07c0 .859.955 1.555 2.134 1.555h74.726c1.179 0 2.134-.696 2.134-1.556v-4.069c0-.86-.955-1.556-2.134-1.556Z" fill="#D7D7DB"/><path d="M215.919 35.928h-13.216c-3.559 0-6.445 2.88-6.445 6.434 0 3.554 2.886 6.435 6.445 6.435h13.216c3.559 0 6.445-2.881 6.445-6.435s-2.886-6.434-6.445-6.434Z" fill="#0060DF" stroke="#0060DF" stroke-width="2.439"/><path d="M215.886 47.984c3.119 0 5.647-2.517 5.647-5.622s-2.528-5.622-5.647-5.622-5.647 2.517-5.647 5.622 2.528 5.622 5.647 5.622Z" fill="#fff"/><g clip-path="url(#d)"><path d="M44.401 55.025H12.798c-1.54 0-2.788-1.26-2.788-2.811v-20.15c0-1.553 1.248-2.811 2.788-2.811h31.604c1.54 0 2.788 1.258 2.788 2.811v20.15c0 1.552-1.248 2.811-2.788 2.811Z" fill="#0491ED"/><path d="M10.01 52.212c0 1.553 1.248 2.811 2.788 2.811h31.604c1.54 0 2.788-1.258 2.788-2.811L28.6 38.48 10.01 52.212Z" fill="#0366A9"/><g filter="url(#e)"><path d="M47.19 32.064c0-1.553-1.248-2.811-2.788-2.811H12.797c-1.54 0-2.788 1.258-2.788 2.811l16.544 12.513a3.388 3.388 0 0 0 4.092 0L47.19 32.064Z" fill="#62BFFC"/></g></g><g filter="url(#f)"><circle cx="45.801" cy="30.297" r="6.428" fill="#0366A9" stroke="#fff" stroke-width="1.737"/><path d="m42.674 30.297 2.017 2.085 3.89-4.17" stroke="#FFFFFD" stroke-width="1.564" stroke-linecap="round" stroke-linejoin="round"/></g><g clip-path="url(#g)"><path d="M44.401 100.974H12.798a2.779 2.779 0 0 1-2.788-2.767V78.375a2.778 2.778 0 0 1 2.788-2.767h31.604a2.778 2.778 0 0 1 2.788 2.767v19.832a2.779 2.779 0 0 1-2.788 2.767Z" fill="#FF9201"/><path d="M10.01 98.205a2.778 2.778 0 0 0 2.788 2.767h31.604a2.778 2.778 0 0 0 2.788-2.767L28.6 84.69 10.01 98.205Z" fill="#FF651D"/><g filter="url(#h)"><path d="M47.19 78.375a2.778 2.778 0 0 0-2.788-2.767H12.797a2.778 2.778 0 0 0-2.788 2.767L26.554 90.69a3.432 3.432 0 0 0 4.092 0L47.19 78.375Z" fill="#FBB85F"/></g></g><g filter="url(#i)" stroke-width="1.39"><circle cx="45.453" cy="77.695" r="6.602" fill="#fff" stroke="#fff"/><circle cx="45.453" cy="77.694" r="4.865" stroke="#FF2989"/><path stroke="#FF2989" d="m42.182 80.909 7.004-7.004"/></g><g clip-path="url(#j)"><path d="M44.401 146.947H12.798c-1.54 0-2.788-1.259-2.788-2.811v-20.15c0-1.553 1.248-2.811 2.788-2.811h31.604c1.54 0 2.788 1.258 2.788 2.811v20.15c0 1.552-1.248 2.811-2.788 2.811Z" fill="#0491ED"/><path d="M10.01 144.134c0 1.553 1.248 2.812 2.788 2.812h31.604c1.54 0 2.788-1.259 2.788-2.812L28.6 130.403l-18.59 13.731Z" fill="#0366A9"/><g filter="url(#k)"><path d="M47.19 123.986c0-1.553-1.248-2.811-2.788-2.811H12.797c-1.54 0-2.788 1.258-2.788 2.811l16.544 12.513a3.387 3.387 0 0 0 4.092 0l16.544-12.513Z" fill="#62BFFC"/></g></g><g filter="url(#l)"><circle cx="45.801" cy="122.218" r="6.428" fill="#0366A9" stroke="#fff" stroke-width="1.737"/><path d="m42.673 122.217 2.017 2.085 3.89-4.169" stroke="#FFFFFD" stroke-width="1.564" stroke-linecap="round" stroke-linejoin="round"/></g><defs><filter id="a" x="4.599" y="114.675" width="231.71" height="42.081" filterUnits="userSpaceOnUse" color-interpolation-filters="sRGB"><feFlood flood-opacity="0" result="BackgroundImageFix"/><feColorMatrix in="SourceAlpha" values="0 0 0 0 0 0 0 0 0 0 0 0 0 0 0 0 0 0 127 0" result="hardAlpha"/><feOffset dx="1.436" dy="1.436"/><feGaussianBlur stdDeviation="1.436"/><feComposite in2="hardAlpha" operator="out"/><feColorMatrix values="0 0 0 0 0 0 0 0 0 0 0 0 0 0 0 0 0 0 0.25 0"/><feBlend in2="BackgroundImageFix" result="effect1_dropShadow_1043_3415"/><feBlend in="SourceGraphic" in2="effect1_dropShadow_1043_3415" result="shape"/></filter><filter id="b" x="4.599" y="69.255" width="231.71" height="40.946" filterUnits="userSpaceOnUse" color-interpolation-filters="sRGB"><feFlood flood-opacity="0" result="BackgroundImageFix"/><feColorMatrix in="SourceAlpha" values="0 0 0 0 0 0 0 0 0 0 0 0 0 0 0 0 0 0 127 0" result="hardAlpha"/><feOffset dx="1.436" dy="1.436"/><feGaussianBlur stdDeviation="1.436"/><feComposite in2="hardAlpha" operator="out"/><feColorMatrix values="0 0 0 0 0 0 0 0 0 0 0 0 0 0 0 0 0 0 0.25 0"/><feBlend in2="BackgroundImageFix" result="effect1_dropShadow_1043_3415"/><feBlend in="SourceGraphic" in2="effect1_dropShadow_1043_3415" result="shape"/></filter><filter id="c" x="4.599" y="21.564" width="231.71" height="43.217" filterUnits="userSpaceOnUse" color-interpolation-filters="sRGB"><feFlood flood-opacity="0" result="BackgroundImageFix"/><feColorMatrix in="SourceAlpha" values="0 0 0 0 0 0 0 0 0 0 0 0 0 0 0 0 0 0 127 0" result="hardAlpha"/><feOffset dx="1.436" dy="1.436"/><feGaussianBlur stdDeviation="1.436"/><feComposite in2="hardAlpha" operator="out"/><feColorMatrix values="0 0 0 0 0 0 0 0 0 0 0 0 0 0 0 0 0 0 0.25 0"/><feBlend in2="BackgroundImageFix" result="effect1_dropShadow_1043_3415"/><feBlend in="SourceGraphic" in2="effect1_dropShadow_1043_3415" result="shape"/></filter><filter id="e" x="6.535" y="27.168" width="44.13" height="22.961" filterUnits="userSpaceOnUse" color-interpolation-filters="sRGB"><feFlood flood-opacity="0" result="BackgroundImageFix"/><feColorMatrix in="SourceAlpha" values="0 0 0 0 0 0 0 0 0 0 0 0 0 0 0 0 0 0 127 0" result="hardAlpha"/><feOffset dy="1.39"/><feGaussianBlur stdDeviation="1.737"/><feComposite in2="hardAlpha" operator="out"/><feColorMatrix values="0 0 0 0 0 0 0 0 0 0 0 0 0 0 0 0 0 0 0.1 0"/><feBlend in2="BackgroundImageFix" result="effect1_dropShadow_1043_3415"/><feBlend in="SourceGraphic" in2="effect1_dropShadow_1043_3415" result="shape"/></filter><filter id="f" x="37.114" y="23" width="17.374" height="17.374" filterUnits="userSpaceOnUse" color-interpolation-filters="sRGB"><feFlood flood-opacity="0" result="BackgroundImageFix"/><feColorMatrix in="SourceAlpha" values="0 0 0 0 0 0 0 0 0 0 0 0 0 0 0 0 0 0 127 0" result="hardAlpha"/><feOffset dy="1.39"/><feGaussianBlur stdDeviation=".695"/><feComposite in2="hardAlpha" operator="out"/><feColorMatrix values="0 0 0 0 0 0 0 0 0 0 0 0 0 0 0 0 0 0 0.15 0"/><feBlend in2="BackgroundImageFix" result="effect1_dropShadow_1043_3415"/><feBlend in="SourceGraphic" in2="effect1_dropShadow_1043_3415" result="shape"/></filter><filter id="h" x="6.535" y="73.523" width="44.13" height="22.709" filterUnits="userSpaceOnUse" color-interpolation-filters="sRGB"><feFlood flood-opacity="0" result="BackgroundImageFix"/><feColorMatrix in="SourceAlpha" values="0 0 0 0 0 0 0 0 0 0 0 0 0 0 0 0 0 0 127 0" result="hardAlpha"/><feOffset dy="1.39"/><feGaussianBlur stdDeviation="1.737"/><feComposite in2="hardAlpha" operator="out"/><feColorMatrix values="0 0 0 0 0 0 0 0 0 0 0 0 0 0 0 0 0 0 0.1 0"/><feBlend in2="BackgroundImageFix" result="effect1_dropShadow_1043_3415"/><feBlend in="SourceGraphic" in2="effect1_dropShadow_1043_3415" result="shape"/></filter><filter id="i" x="36.766" y="70.397" width="17.374" height="17.374" filterUnits="userSpaceOnUse" color-interpolation-filters="sRGB"><feFlood flood-opacity="0" result="BackgroundImageFix"/><feColorMatrix in="SourceAlpha" values="0 0 0 0 0 0 0 0 0 0 0 0 0 0 0 0 0 0 127 0" result="hardAlpha"/><feOffset dy="1.39"/><feGaussianBlur stdDeviation=".695"/><feComposite in2="hardAlpha" operator="out"/><feColorMatrix values="0 0 0 0 0 0 0 0 0 0 0 0 0 0 0 0 0 0 0.15 0"/><feBlend in2="BackgroundImageFix" result="effect1_dropShadow_1043_3415"/><feBlend in="SourceGraphic" in2="effect1_dropShadow_1043_3415" result="shape"/></filter><filter id="k" x="6.535" y="119.09" width="44.13" height="22.961" filterUnits="userSpaceOnUse" color-interpolation-filters="sRGB"><feFlood flood-opacity="0" result="BackgroundImageFix"/><feColorMatrix in="SourceAlpha" values="0 0 0 0 0 0 0 0 0 0 0 0 0 0 0 0 0 0 127 0" result="hardAlpha"/><feOffset dy="1.39"/><feGaussianBlur stdDeviation="1.737"/><feComposite in2="hardAlpha" operator="out"/><feColorMatrix values="0 0 0 0 0 0 0 0 0 0 0 0 0 0 0 0 0 0 0.1 0"/><feBlend in2="BackgroundImageFix" result="effect1_dropShadow_1043_3415"/><feBlend in="SourceGraphic" in2="effect1_dropShadow_1043_3415" result="shape"/></filter><filter id="l" x="37.114" y="114.921" width="17.374" height="17.374" filterUnits="userSpaceOnUse" color-interpolation-filters="sRGB"><feFlood flood-opacity="0" result="BackgroundImageFix"/><feColorMatrix in="SourceAlpha" values="0 0 0 0 0 0 0 0 0 0 0 0 0 0 0 0 0 0 127 0" result="hardAlpha"/><feOffset dy="1.39"/><feGaussianBlur stdDeviation=".695"/><feComposite in2="hardAlpha" operator="out"/><feColorMatrix values="0 0 0 0 0 0 0 0 0 0 0 0 0 0 0 0 0 0 0.15 0"/><feBlend in2="BackgroundImageFix" result="effect1_dropShadow_1043_3415"/><feBlend in="SourceGraphic" in2="effect1_dropShadow_1043_3415" result="shape"/></filter><clipPath id="d"><path fill="#fff" transform="translate(10.01 29.255)" d="M0 0h37.18v25.773H0z"/></clipPath><clipPath id="g"><path fill="#fff" transform="translate(10.01 75.61)" d="M0 0h37.18v25.366H0z"/></clipPath><clipPath id="j"><path fill="#fff" transform="translate(10.01 121.176)" d="M0 0h37.18v25.773H0z"/></clipPath></defs></svg>
