<svg width="240" height="160" viewBox="0 0 240 160" fill="none" xmlns="http://www.w3.org/2000/svg"><mask id="a" style="mask-type:alpha" maskUnits="userSpaceOnUse" x="138" y="8" width="90" height="125"><path fill="#FFBD4F" d="M138.142 8.306h89.618V132.24h-89.618z"/></mask><g mask="url(#a)"><path fill="#FFBD4F" d="M138.142 8.306h89.618V132.24h-89.618z"/><path d="M359.617 271.991c15.976 27.432 6.593 62.453-20.959 78.221s-62.839 6.313-78.815-21.119L118.391 86.227c-15.976-27.432-6.592-62.452 20.958-78.22l243.934-139.611c27.552-15.769 62.839-6.315 78.818 21.116 15.978 27.432 6.594 62.453-20.958 78.221L247.095 78.793l112.522 193.198Z" fill="url(#b)"/><path d="M394.83 58.247c31.349-4.328 60.415 17.72 64.925 49.244 4.509 31.523-17.249 60.588-48.597 64.916l-245.314 33.864c-31.349 4.328-60.415-17.72-64.925-49.244-4.509-31.523 17.249-60.587 48.597-64.915L394.83 58.247Z" fill="url(#c)"/></g><g filter="url(#d)"><path fill-rule="evenodd" clip-rule="evenodd" d="M141.657 2.78h82.924a7.277 7.277 0 0 1 7.277 7.277V132.24a7.277 7.277 0 0 1-7.277 7.277h-82.924a7.277 7.277 0 0 1-7.277-7.277V10.059a7.276 7.276 0 0 1 7.277-7.279Zm-2.424 127.03h87.772V12.49h-87.772v117.32Z" fill="#EAEAEA"/></g><mask id="e" style="mask-type:alpha" maskUnits="userSpaceOnUse" x="27" y="34" width="147" height="99"><path d="M173.333 34.536H27.103v97.705h146.23V34.536Z" fill="#FFBD4F"/></mask><g mask="url(#e)"><path d="M173.333 34.536H27.103v97.705h146.23V34.536Z" fill="#FFBD4F"/><path d="M359.617 271.991c15.976 27.432 6.593 62.453-20.959 78.221s-62.839 6.313-78.815-21.119L118.391 86.227c-15.976-27.431-6.592-62.452 20.958-78.22l243.934-139.611c27.552-15.769 62.839-6.315 78.818 21.117 15.978 27.431 6.594 62.452-20.958 78.22L247.095 78.793l112.522 193.198Z" fill="url(#f)"/><path d="M118.216 181.6c21.128 23.629 19.161 60.096-4.393 81.452-23.554 21.355-59.775 19.514-80.903-4.114C-61.252 153.613-52.48-8.94 52.514-104.138c104.99-95.193 266.448-86.983 360.62 18.34 21.128 23.628 19.161 60.095-4.393 81.45-23.554 21.356-59.775 19.515-80.903-4.113-51.919-58.066-140.933-62.592-198.817-10.112C71.135 33.913 66.297 123.532 118.216 181.6Z" fill="url(#g)"/><path d="M394.83 58.247c31.349-4.328 60.415 17.72 64.925 49.244 4.509 31.524-17.249 60.588-48.597 64.916l-245.314 33.864c-31.349 4.328-60.415-17.72-64.925-49.243-4.509-31.524 17.249-60.588 48.597-64.916L394.83 58.247Z" fill="url(#h)"/></g><g filter="url(#i)"><path fill-rule="evenodd" clip-rule="evenodd" d="M25.945 135.781a6.467 6.467 0 0 1-3.72-5.857v-92.75a6.47 6.47 0 0 1 6.47-6.47h143.047a6.47 6.47 0 0 1 6.47 6.47v92.75a6.467 6.467 0 0 1-3.72 5.857h20.782v2.503c-4.452 2.405-9.976 3.607-16.568 3.607H21.733c-6.594 0-12.118-1.202-16.568-3.607v-2.503h20.78Zm1.06-7.173h146.422V37.987H27.006v90.621Z" fill="#EAEAEA"/></g><mask id="j" style="mask-type:alpha" maskUnits="userSpaceOnUse" x="150" y="61" width="47" height="83"><path fill="#C4C4C4" d="M150.383 61.858h45.902v81.311h-45.902z"/></mask><g mask="url(#j)"><path d="M359.617 271.991c15.976 27.432 6.593 62.453-20.959 78.221s-62.839 6.313-78.815-21.119L118.391 86.227c-15.976-27.431-6.592-62.452 20.958-78.22l243.934-139.611c27.552-15.769 62.839-6.315 78.818 21.117 15.978 27.431 6.594 62.452-20.958 78.22L247.095 78.793l112.522 193.198Z" fill="url(#k)"/><path d="M394.83 58.247c31.349-4.328 60.415 17.72 64.925 49.244 4.509 31.523-17.249 60.588-48.597 64.916l-245.314 33.864c-31.349 4.328-60.415-17.72-64.925-49.244-4.509-31.523 17.249-60.587 48.597-64.915L394.83 58.247Z" fill="url(#l)"/></g><g filter="url(#m)"><path fill-rule="evenodd" clip-rule="evenodd" d="M156.122 53.731h34.387a7.277 7.277 0 0 1 7.277 7.276v83.347a7.276 7.276 0 0 1-7.277 7.276h-34.387a7.277 7.277 0 0 1-7.276-7.276V61.01a7.278 7.278 0 0 1 7.276-7.279Zm39.185 88.223V63.381h-43.982v78.575h43.982v-.002Z" fill="#EAEAEA"/></g><defs><linearGradient id="b" x1="77.05" y1="150.088" x2="250.511" y2="125.171" gradientUnits="userSpaceOnUse"><stop offset=".127" stop-color="#FFBD4F"/><stop offset=".519" stop-color="#FF298A"/><stop offset="1" stop-color="#0060DF"/></linearGradient><linearGradient id="c" x1="284.747" y1="100.139" x2="271.33" y2="197.89" gradientUnits="userSpaceOnUse"><stop stop-color="#0060DF"/><stop offset=".893" stop-color="#0DF"/></linearGradient><linearGradient id="f" x1="77.05" y1="150.089" x2="250.511" y2="125.171" gradientUnits="userSpaceOnUse"><stop offset=".127" stop-color="#FFBD4F"/><stop offset=".519" stop-color="#FF298A"/><stop offset="1" stop-color="#0060DF"/></linearGradient><linearGradient id="g" x1="184.698" y1="-12.459" x2="227.824" y2="141.357" gradientUnits="userSpaceOnUse"><stop stop-color="#E31587"/><stop offset=".675" stop-color="#FFBD4F"/></linearGradient><linearGradient id="h" x1="284.747" y1="100.139" x2="271.33" y2="197.891" gradientUnits="userSpaceOnUse"><stop stop-color="#0060DF"/><stop offset=".893" stop-color="#0DF"/></linearGradient><linearGradient id="k" x1="77.05" y1="150.088" x2="250.511" y2="125.171" gradientUnits="userSpaceOnUse"><stop offset=".127" stop-color="#FFBD4F"/><stop offset=".519" stop-color="#FF298A"/><stop offset="1" stop-color="#0060DF"/></linearGradient><linearGradient id="l" x1="284.747" y1="100.139" x2="271.33" y2="197.89" gradientUnits="userSpaceOnUse"><stop stop-color="#0060DF"/><stop offset=".893" stop-color="#0DF"/></linearGradient><filter id="d" x="133.38" y="1.78" width="105.478" height="144.737" filterUnits="userSpaceOnUse" color-interpolation-filters="sRGB"><feFlood flood-opacity="0" result="BackgroundImageFix"/><feColorMatrix in="SourceAlpha" values="0 0 0 0 0 0 0 0 0 0 0 0 0 0 0 0 0 0 127 0" result="hardAlpha"/><feOffset dx="3" dy="3"/><feGaussianBlur stdDeviation="2"/><feComposite in2="hardAlpha" operator="out"/><feColorMatrix values="0 0 0 0 0 0 0 0 0 0 0 0 0 0 0 0 0 0 0.2 0"/><feBlend in2="BackgroundImageFix" result="effect1_dropShadow_1153_6371"/><feBlend in="SourceGraphic" in2="effect1_dropShadow_1153_6371" result="shape"/></filter><filter id="i" x="4.165" y="29.704" width="198.109" height="119.187" filterUnits="userSpaceOnUse" color-interpolation-filters="sRGB"><feFlood flood-opacity="0" result="BackgroundImageFix"/><feColorMatrix in="SourceAlpha" values="0 0 0 0 0 0 0 0 0 0 0 0 0 0 0 0 0 0 127 0" result="hardAlpha"/><feOffset dx="3" dy="3"/><feGaussianBlur stdDeviation="2"/><feComposite in2="hardAlpha" operator="out"/><feColorMatrix values="0 0 0 0 0 0 0 0 0 0 0 0 0 0 0 0 0 0 0.2 0"/><feBlend in2="BackgroundImageFix" result="effect1_dropShadow_1153_6371"/><feBlend in="SourceGraphic" in2="effect1_dropShadow_1153_6371" result="shape"/></filter><filter id="m" x="147.846" y="52.731" width="56.94" height="105.899" filterUnits="userSpaceOnUse" color-interpolation-filters="sRGB"><feFlood flood-opacity="0" result="BackgroundImageFix"/><feColorMatrix in="SourceAlpha" values="0 0 0 0 0 0 0 0 0 0 0 0 0 0 0 0 0 0 127 0" result="hardAlpha"/><feOffset dx="3" dy="3"/><feGaussianBlur stdDeviation="2"/><feComposite in2="hardAlpha" operator="out"/><feColorMatrix values="0 0 0 0 0 0 0 0 0 0 0 0 0 0 0 0 0 0 0.2 0"/><feBlend in2="BackgroundImageFix" result="effect1_dropShadow_1153_6371"/><feBlend in="SourceGraphic" in2="effect1_dropShadow_1153_6371" result="shape"/></filter></defs></svg>
