<?xml version="1.0" encoding="utf-8"?>
<!-- Generator: Adobe Illustrator 16.0.0, SVG Export Plug-In . SVG Version: 6.00 Build 0)  -->
<!DOCTYPE svg PUBLIC "-//W3C//DTD SVG 1.1//EN" "http://www.w3.org/Graphics/SVG/1.1/DTD/svg11.dtd">
<svg version="1.1" id="CY_Download_on_the_App_Store"
	 xmlns="http://www.w3.org/2000/svg" xmlns:xlink="http://www.w3.org/1999/xlink" x="0px" y="0px" width="135px" height="40px"
	 viewBox="0 0 135 40" enable-background="new 0 0 135 40" xml:space="preserve">
<g>
	<path fill="#A6A6A6" d="M130.197,40H4.729C2.122,40,0,37.871,0,35.266V4.724C0,2.119,2.122,0,4.729,0h125.468
		C132.803,0,135,2.119,135,4.724v30.542C135,37.871,132.803,40,130.197,40L130.197,40z"/>
	<path d="M134.032,35.268c0,2.116-1.714,3.83-3.834,3.83H4.729c-2.119,0-3.839-1.714-3.839-3.83V4.725
		c0-2.115,1.72-3.835,3.839-3.835h125.468c2.121,0,3.834,1.72,3.834,3.835L134.032,35.268L134.032,35.268z"/>
	<g>
		<g>
			<path fill="#FFFFFF" d="M30.128,19.782c-0.029-3.223,2.639-4.791,2.761-4.864c-1.511-2.203-3.853-2.504-4.676-2.528
				c-1.967-0.207-3.875,1.177-4.877,1.177c-1.022,0-2.565-1.157-4.228-1.123c-2.14,0.033-4.142,1.272-5.24,3.196
				c-2.266,3.923-0.576,9.688,1.595,12.859c1.086,1.553,2.355,3.287,4.016,3.225c1.625-0.066,2.232-1.035,4.193-1.035
				c1.943,0,2.513,1.035,4.207,0.996c1.744-0.027,2.842-1.559,3.89-3.127c1.255-1.779,1.759-3.533,1.779-3.623
				C33.508,24.922,30.162,23.646,30.128,19.782z"/>
			<path fill="#FFFFFF" d="M26.928,10.305c0.874-1.093,1.472-2.58,1.306-4.089c-1.265,0.056-2.847,0.875-3.758,1.944
				c-0.806,0.942-1.526,2.486-1.34,3.938C24.557,12.203,26.016,11.381,26.928,10.305z"/>
		</g>
	</g>
	<g>
		<path fill="#FFFFFF" d="M53.646,31.502h-2.271l-1.244-3.908h-4.324l-1.185,3.908h-2.211l4.284-13.307h2.646L53.646,31.502z
			 M49.756,25.954l-1.125-3.475c-0.119-0.355-0.342-1.191-0.671-2.508h-0.04c-0.131,0.566-0.342,1.401-0.632,2.508l-1.105,3.475
			H49.756z"/>
		<path fill="#FFFFFF" d="M64.663,26.586c0,1.633-0.441,2.922-1.323,3.869c-0.79,0.844-1.771,1.264-2.942,1.264
			c-1.264,0-2.172-0.453-2.725-1.361h-0.04v5.055h-2.132V25.066c0-1.027-0.027-2.08-0.079-3.16h1.875l0.119,1.521h0.04
			c0.711-1.146,1.79-1.719,3.238-1.719c1.132,0,2.077,0.447,2.833,1.343S64.663,25.125,64.663,26.586z M62.491,26.665
			c0-0.935-0.21-1.704-0.632-2.31c-0.461-0.633-1.08-0.948-1.856-0.948c-0.526,0-1.004,0.175-1.431,0.523
			c-0.428,0.349-0.708,0.806-0.839,1.372c-0.066,0.264-0.099,0.48-0.099,0.651v1.6c0,0.698,0.214,1.286,0.642,1.767
			s0.984,0.721,1.668,0.721c0.803,0,1.428-0.309,1.875-0.928S62.491,27.679,62.491,26.665z"/>
		<path fill="#FFFFFF" d="M75.7,26.586c0,1.633-0.441,2.922-1.324,3.869c-0.789,0.844-1.77,1.264-2.941,1.264
			c-1.264,0-2.172-0.453-2.725-1.361h-0.039v5.055h-2.132V25.066c0-1.027-0.027-2.08-0.079-3.16h1.875l0.119,1.521h0.04
			c0.711-1.146,1.789-1.719,3.238-1.719c1.131,0,2.076,0.447,2.834,1.343C75.321,23.947,75.7,25.125,75.7,26.586z M73.528,26.665
			c0-0.935-0.211-1.704-0.633-2.31c-0.461-0.633-1.078-0.948-1.855-0.948c-0.527,0-1.004,0.175-1.432,0.523
			s-0.707,0.806-0.839,1.372c-0.065,0.264-0.099,0.48-0.099,0.651v1.6c0,0.698,0.214,1.286,0.641,1.767
			c0.428,0.48,0.984,0.721,1.67,0.721c0.803,0,1.428-0.309,1.875-0.928S73.528,27.679,73.528,26.665z"/>
		<path fill="#FFFFFF" d="M88.04,27.771c0,1.131-0.394,2.053-1.182,2.764c-0.867,0.777-2.075,1.164-3.625,1.164
			c-1.432,0-2.581-0.275-3.449-0.828l0.494-1.777c0.935,0.566,1.962,0.85,3.081,0.85c0.804,0,1.429-0.182,1.877-0.545
			c0.447-0.361,0.671-0.848,0.671-1.453c0-0.541-0.185-0.996-0.553-1.365s-0.98-0.711-1.836-1.028
			c-2.33-0.87-3.495-2.142-3.495-3.816c0-1.094,0.408-1.991,1.225-2.69c0.815-0.699,1.901-1.048,3.258-1.048
			c1.211,0,2.218,0.211,3.021,0.632l-0.533,1.738c-0.75-0.408-1.599-0.612-2.547-0.612c-0.75,0-1.336,0.185-1.757,0.553
			c-0.355,0.329-0.533,0.73-0.533,1.204c0,0.527,0.204,0.961,0.612,1.303c0.355,0.316,1,0.658,1.935,1.027
			c1.146,0.461,1.987,1,2.527,1.619S88.04,26.85,88.04,27.771z"/>
		<path fill="#FFFFFF" d="M95.088,23.506h-2.35v4.66c0,1.184,0.415,1.777,1.244,1.777c0.382,0,0.697-0.033,0.948-0.1l0.059,1.619
			c-0.421,0.158-0.974,0.236-1.658,0.236c-0.843,0-1.501-0.256-1.975-0.77s-0.711-1.375-0.711-2.586v-4.838h-1.401v-1.6h1.401
			v-1.757l2.093-0.632v2.389h2.35V23.506z"/>
		<path fill="#FFFFFF" d="M105.691,26.625c0,1.475-0.422,2.686-1.264,3.633c-0.882,0.975-2.054,1.461-3.515,1.461
			c-1.409,0-2.53-0.467-3.366-1.4c-0.836-0.936-1.254-2.113-1.254-3.535c0-1.486,0.431-2.705,1.293-3.652s2.024-1.422,3.485-1.422
			c1.408,0,2.54,0.468,3.396,1.402C105.283,24.02,105.691,25.191,105.691,26.625z M103.479,26.695c0-0.885-0.19-1.645-0.572-2.277
			c-0.447-0.766-1.086-1.148-1.915-1.148c-0.856,0-1.508,0.383-1.955,1.148c-0.382,0.633-0.572,1.405-0.572,2.316
			c0,0.885,0.19,1.645,0.572,2.277c0.461,0.766,1.105,1.148,1.936,1.148c0.815,0,1.454-0.391,1.915-1.168
			C103.282,28.346,103.479,27.579,103.479,26.695z"/>
		<path fill="#FFFFFF" d="M112.621,23.782c-0.211-0.04-0.435-0.06-0.671-0.06c-0.751,0-1.33,0.283-1.738,0.85
			c-0.355,0.5-0.533,1.133-0.533,1.896v5.034h-2.132l0.02-6.574c0-1.105-0.026-2.113-0.079-3.021h1.856l0.079,1.836h0.059
			c0.224-0.631,0.579-1.138,1.066-1.52c0.474-0.342,0.987-0.514,1.54-0.514c0.197,0,0.375,0.014,0.533,0.039V23.782z"/>
		<path fill="#FFFFFF" d="M122.157,26.25c0,0.383-0.026,0.705-0.079,0.968h-6.396c0.025,0.948,0.335,1.673,0.928,2.173
			c0.539,0.447,1.237,0.67,2.093,0.67c0.947,0,1.81-0.15,2.587-0.453l0.335,1.48c-0.908,0.395-1.981,0.592-3.218,0.592
			c-1.488,0-2.656-0.438-3.505-1.312s-1.273-2.051-1.273-3.524c0-1.448,0.395-2.652,1.185-3.613c0.829-1.026,1.948-1.54,3.356-1.54
			c1.382,0,2.429,0.514,3.14,1.54C121.874,24.046,122.157,25.053,122.157,26.25z M120.124,25.697
			c0.013-0.631-0.126-1.178-0.415-1.639c-0.368-0.592-0.935-0.889-1.698-0.889c-0.697,0-1.264,0.29-1.697,0.869
			c-0.355,0.461-0.566,1.014-0.632,1.658H120.124z"/>
	</g>
	<g>
		<g>
			<path fill="#FFFFFF" d="M47.576,13.432l-1.349-4.316c-0.058-0.227-0.112-0.446-0.164-0.66s-0.104-0.423-0.155-0.63h-0.029
				c-0.052,0.207-0.101,0.418-0.146,0.635s-0.094,0.435-0.146,0.655l-1.31,4.316h-1.096l2.104-6.538h1.28l2.144,6.538H47.576z"/>
			<path fill="#FFFFFF" d="M51.029,9.455c0.058-0.097,0.132-0.195,0.223-0.296c0.091-0.1,0.199-0.19,0.325-0.271
				c0.126-0.081,0.27-0.146,0.432-0.194c0.162-0.049,0.336-0.073,0.523-0.073c0.182,0,0.369,0.032,0.563,0.097
				c0.193,0.065,0.371,0.175,0.533,0.33c0.161,0.155,0.292,0.362,0.393,0.621c0.101,0.259,0.15,0.582,0.15,0.97v2.997
				c0,0.136,0,0.285,0,0.446s0.003,0.32,0.01,0.475c0.007,0.155,0.016,0.302,0.029,0.441c0.013,0.139,0.032,0.257,0.058,0.354
				h-0.989c-0.032-0.064-0.058-0.161-0.077-0.291c-0.02-0.129-0.034-0.271-0.044-0.426c-0.01-0.155-0.018-0.32-0.024-0.494
				c-0.006-0.174-0.01-0.339-0.01-0.494v-2.886c0-0.181-0.016-0.349-0.048-0.504c-0.033-0.155-0.084-0.291-0.155-0.407
				c-0.071-0.116-0.169-0.207-0.291-0.271c-0.123-0.064-0.271-0.097-0.446-0.097c-0.246,0-0.458,0.077-0.636,0.232
				s-0.299,0.335-0.363,0.542c-0.039,0.097-0.059,0.226-0.059,0.387v2.787h-1.048v-3.366c0-0.259-0.01-0.506-0.028-0.742
				c-0.02-0.236-0.056-0.438-0.107-0.606h0.922c0.045,0.091,0.081,0.201,0.106,0.33c0.026,0.129,0.039,0.265,0.039,0.407H51.029z
				 M53.26,6.739l-0.805,1.406h-0.688l0.494-1.406H53.26z"/>
			<path fill="#FFFFFF" d="M58.188,13.539c-0.297-0.02-0.58-0.073-0.849-0.16s-0.504-0.227-0.708-0.417
				c-0.203-0.191-0.365-0.44-0.484-0.747c-0.12-0.307-0.18-0.694-0.18-1.159V9.853c0-0.227-0.005-0.438-0.015-0.636
				c-0.01-0.197-0.031-0.364-0.063-0.5h0.971c0.07,0.11,0.106,0.411,0.106,0.902v1.348c0,0.336,0.034,0.618,0.102,0.844
				c0.068,0.227,0.157,0.411,0.267,0.553c0.11,0.142,0.239,0.246,0.389,0.31c0.148,0.065,0.304,0.104,0.465,0.117V7.485h0.941v5.306
				c0.194-0.006,0.368-0.064,0.523-0.175c0.155-0.11,0.29-0.26,0.402-0.451c0.113-0.191,0.199-0.414,0.258-0.669
				c0.058-0.255,0.087-0.539,0.087-0.849c0-0.239-0.012-0.466-0.034-0.679s-0.05-0.404-0.082-0.572s-0.068-0.311-0.106-0.427
				c-0.039-0.117-0.071-0.201-0.098-0.252h0.941c0.097,0.168,0.184,0.409,0.262,0.723c0.077,0.314,0.116,0.69,0.116,1.13
				c0,0.355-0.04,0.705-0.121,1.047s-0.21,0.653-0.388,0.931c-0.179,0.278-0.412,0.506-0.703,0.684s-0.647,0.279-1.067,0.306v1.813
				h-0.932V13.539z"/>
			<path fill="#FFFFFF" d="M63.96,9.455c0.058-0.097,0.132-0.195,0.223-0.296c0.091-0.1,0.199-0.19,0.325-0.271
				c0.126-0.081,0.27-0.146,0.432-0.194c0.162-0.049,0.336-0.073,0.523-0.073c0.182,0,0.369,0.032,0.563,0.097
				c0.193,0.065,0.371,0.175,0.533,0.33c0.161,0.155,0.292,0.362,0.393,0.621c0.101,0.259,0.15,0.582,0.15,0.97v2.997
				c0,0.136,0,0.285,0,0.446s0.003,0.32,0.01,0.475c0.007,0.155,0.016,0.302,0.029,0.441c0.013,0.139,0.032,0.257,0.058,0.354H66.21
				c-0.032-0.064-0.058-0.161-0.077-0.291c-0.02-0.129-0.034-0.271-0.044-0.426c-0.01-0.155-0.018-0.32-0.024-0.494
				c-0.006-0.174-0.01-0.339-0.01-0.494v-2.886c0-0.181-0.016-0.349-0.048-0.504c-0.033-0.155-0.084-0.291-0.155-0.407
				c-0.071-0.116-0.169-0.207-0.291-0.271c-0.123-0.064-0.271-0.097-0.446-0.097c-0.246,0-0.458,0.077-0.636,0.232
				s-0.299,0.335-0.363,0.542c-0.039,0.097-0.059,0.226-0.059,0.387v2.787h-1.048v-3.366c0-0.259-0.01-0.506-0.028-0.742
				c-0.02-0.236-0.056-0.438-0.107-0.606h0.922c0.045,0.091,0.081,0.201,0.106,0.33c0.026,0.129,0.039,0.265,0.039,0.407H63.96z"/>
			<path fill="#FFFFFF" d="M75.222,9.387c0.245,0.188,0.437,0.433,0.572,0.737c0.136,0.304,0.203,0.618,0.203,0.941
				c0,0.427-0.066,0.797-0.198,1.11c-0.133,0.314-0.306,0.571-0.52,0.771c-0.213,0.2-0.454,0.349-0.723,0.446
				c-0.269,0.097-0.542,0.146-0.819,0.146c-0.323,0-0.623-0.055-0.897-0.165s-0.514-0.27-0.718-0.48
				c-0.204-0.21-0.363-0.464-0.48-0.761c-0.116-0.297-0.174-0.634-0.174-1.009c0-0.388,0.058-0.737,0.174-1.047
				c0.117-0.311,0.281-0.574,0.495-0.791c0.213-0.216,0.471-0.383,0.771-0.5c0.301-0.116,0.632-0.174,0.994-0.174h0.883h0.582
				c0.077,0,0.168,0,0.271,0s0.203,0,0.301,0c0.097,0,0.188,0,0.271,0s0.151,0,0.203,0l-0.048,0.786c-0.11,0-0.251-0.003-0.422-0.01
				c-0.172-0.006-0.413-0.02-0.723-0.039V9.387z M73.757,12.772c0.175,0,0.336-0.042,0.484-0.126
				c0.149-0.084,0.278-0.203,0.389-0.355c0.109-0.152,0.195-0.332,0.257-0.54c0.062-0.208,0.092-0.438,0.092-0.69
				c0-0.195-0.022-0.391-0.067-0.588c-0.046-0.198-0.116-0.376-0.214-0.535c-0.097-0.159-0.222-0.291-0.373-0.394
				c-0.152-0.104-0.335-0.156-0.548-0.156c-0.221,0-0.408,0.05-0.563,0.151c-0.154,0.101-0.282,0.23-0.383,0.389
				s-0.175,0.34-0.223,0.545c-0.049,0.204-0.073,0.41-0.073,0.617c0,0.24,0.031,0.462,0.093,0.667
				c0.061,0.205,0.146,0.383,0.252,0.535s0.234,0.271,0.383,0.355C73.41,12.73,73.575,12.772,73.757,12.772z"/>
			<path fill="#FFFFFF" d="M80.188,13.451c-0.052,0.025-0.128,0.047-0.228,0.063c-0.101,0.016-0.202,0.024-0.306,0.024
				c-0.427,0-0.728-0.125-0.902-0.374s-0.262-0.632-0.262-1.149V9.532h-0.466c-0.232,0-0.419,0.008-0.558,0.024
				S77.21,9.59,77.113,9.61l-0.136-0.621c0.084-0.065,0.228-0.126,0.432-0.185c0.203-0.058,0.519-0.087,0.945-0.087h2.668
				l-0.117,0.815h-1.367v2.435c0,0.298,0.048,0.497,0.144,0.597c0.095,0.101,0.213,0.15,0.354,0.15c0.038,0,0.073,0,0.104,0
				c0.032,0,0.064-0.003,0.097-0.01L80.188,13.451z"/>
			<path fill="#FFFFFF" d="M86.601,11.036c0,0.725-0.207,1.319-0.621,1.785c-0.434,0.479-1.009,0.718-1.727,0.718
				c-0.692,0-1.243-0.229-1.654-0.689c-0.41-0.459-0.615-1.038-0.615-1.736c0-0.73,0.211-1.329,0.635-1.794s0.994-0.698,1.712-0.698
				c0.692,0,1.248,0.229,1.669,0.688C86.399,9.755,86.601,10.331,86.601,11.036z M85.514,11.07c0-0.435-0.094-0.808-0.281-1.119
				c-0.22-0.376-0.533-0.564-0.94-0.564c-0.421,0-0.741,0.188-0.961,0.564c-0.188,0.311-0.281,0.69-0.281,1.138
				c0,0.435,0.094,0.808,0.281,1.119c0.227,0.376,0.543,0.564,0.951,0.564c0.4,0,0.714-0.191,0.94-0.574
				C85.417,11.88,85.514,11.504,85.514,11.07z"/>
		</g>
	</g>
</g>
</svg>
