<svg width="326" height="192" fill="none" xmlns="http://www.w3.org/2000/svg"><g clip-path="url(#a)"><path d="M172.572 32.7c.904.991.082 2.571-1.249 2.402l-34.258-4.362c-9.767-1.244-15.312-11.832-10.771-20.568 4.54-8.737 16.392-10.283 23.022-3.004l23.256 25.531Z" stroke="#333336" stroke-width="2.5"/><path d="M214 100.75a7.25 7.25 0 0 0-7.25 7.25v73a7.25 7.25 0 0 0 7.25 7.25h96a7.25 7.25 0 0 0 7.25-7.25v-73a7.25 7.25 0 0 0-7.25-7.25h-96Z" fill="#80EBFF" stroke="#333336" stroke-width="2.5"/><path d="M166.035 32.7c-.903.991-.082 2.571 1.249 2.402l34.259-4.362c9.767-1.244 15.311-11.832 10.771-20.568-4.541-8.737-16.393-10.283-23.023-3.004l-23.256 25.531ZM270.569 83.683c.5.548.046 1.423-.691 1.33l-26.061-3.32c-7.223-.919-11.323-8.75-7.965-15.21 3.358-6.461 12.123-7.605 17.026-2.222l17.691 19.422Z" stroke="#333336" stroke-width="2.5"/><path d="M266.039 83.683c-.5.548-.046 1.423.691 1.33l26.06-3.32c7.223-.919 11.324-8.75 7.966-15.21-3.358-6.461-12.123-7.605-17.027-2.222l-17.69 19.422Z" stroke="#333336" stroke-width="2.5"/><path fill="#0DF" d="M316 108h-88v20h88z"/><path d="M194 109.25h-1.25V90a7.25 7.25 0 0 1 7.25-7.25h115a7.25 7.25 0 0 1 7.25 7.25v19.25H194Z" fill="#ABF2FF" stroke="#333336" stroke-width="2.5"/><path d="M112 55.75h-1.25V181a7.25 7.25 0 0 0 7.25 7.25h102a7.25 7.25 0 0 0 7.25-7.25V55.75H112Z" fill="#FFB4DC" stroke="#333336" stroke-width="2.5"/><path fill="#FF8AC6" d="M226 56h-45v20h45zM112 56h69v20h-69z"/><path fill="#FFEA80" stroke="#333336" stroke-width="2.5" d="M155.75 54.75h26.5v133.5h-26.5z"/><path fill="#FFD567" d="M157 56h24v20h-24z"/><path d="M106 57.25h-1.25V38a7.25 7.25 0 0 1 7.25-7.25h115a7.25 7.25 0 0 1 7.25 7.25v19.25H106Z" fill="#FFB4DC" stroke="#333336" stroke-width="2.5"/><path fill="#FFEA80" stroke="#333336" stroke-width="2.5" d="M155.75 57.25h26.5v-26.5h-26.5z"/><path d="M11 47.75A7.25 7.25 0 0 0 3.75 55v126a7.25 7.25 0 0 0 7.25 7.25h112a7.25 7.25 0 0 0 7.25-7.25V55a7.25 7.25 0 0 0-7.25-7.25H11Z" fill="#fff" stroke="#333336" stroke-width="2.5"/><path d="M37.338 167.518c-.065-.726-.592-1.158-1.552-1.158-.954 0-1.431.403-1.436.959-.02.607.566.915 1.491 1.114l.875.199c2.009.442 3.107 1.437 3.117 3.062-.01 1.934-1.511 3.083-4.047 3.083-2.56 0-4.215-1.139-4.245-3.52h2.356c.055.979.77 1.486 1.86 1.486.989 0 1.57-.432 1.58-1.054-.01-.571-.511-.875-1.63-1.133l-1.064-.249c-1.76-.402-2.844-1.272-2.839-2.819-.015-1.894 1.66-3.162 3.988-3.162 2.366 0 3.882 1.288 3.902 3.192h-2.356Zm7.303 7.274c-2.416 0-3.858-1.606-3.858-3.938 0-2.341 1.452-3.942 3.853-3.942 2.123 0 3.495 1.223 3.55 3.102h-2.272c-.095-.781-.547-1.253-1.243-1.253-.85 0-1.412.721-1.412 2.068 0 1.358.557 2.078 1.412 2.078.666 0 1.153-.442 1.243-1.252h2.272c-.065 1.889-1.397 3.137-3.545 3.137Zm6.942-.015c-1.462 0-2.511-.736-2.511-2.247 0-1.691 1.292-2.263 2.839-2.392 1.302-.114 1.81-.214 1.81-.681v-.025c0-.512-.379-.8-.975-.8-.642 0-1.044.298-1.149.785l-2.242-.079c.194-1.392 1.357-2.426 3.41-2.426 1.945 0 3.381.929 3.381 2.545v5.19H53.86v-1.063h-.06c-.417.78-1.153 1.193-2.216 1.193Zm.75-1.591c.776 0 1.402-.507 1.402-1.253v-.726c-.273.144-.83.244-1.282.308-.692.105-1.08.403-1.08.895 0 .507.398.776.96.776Zm7.731-2.894v4.355h-2.431v-7.636h2.312v1.402h.084c.338-.93 1.193-1.501 2.322-1.501 1.606 0 2.655 1.148 2.65 2.868v4.867H62.57v-4.389c.005-.846-.453-1.353-1.223-1.353s-1.278.517-1.283 1.387Zm9.45 4.355v-7.636h2.312v1.402h.084c.318-.93 1.114-1.501 2.158-1.501 1.059 0 1.879.586 2.083 1.501h.08c.283-.91 1.173-1.501 2.301-1.501 1.442 0 2.436.979 2.436 2.595v5.14h-2.43v-4.583c0-.761-.438-1.174-1.055-1.174-.67 0-1.074.468-1.074 1.199v4.558h-2.336v-4.608c0-.706-.418-1.149-1.05-1.149-.636 0-1.078.483-1.078 1.238v4.519h-2.431Zm12.96 0v-7.636h2.432v7.636h-2.431Zm1.219-8.526c-.686 0-1.248-.522-1.248-1.163 0-.642.562-1.159 1.248-1.159.69 0 1.248.517 1.248 1.159 0 .641-.557 1.163-1.248 1.163Zm6.325 8.671c-2.416 0-3.858-1.606-3.858-3.938 0-2.341 1.452-3.942 3.853-3.942 2.123 0 3.495 1.223 3.55 3.102H91.29c-.095-.781-.547-1.253-1.243-1.253-.85 0-1.412.721-1.412 2.068 0 1.358.557 2.078 1.412 2.078.666 0 1.153-.442 1.243-1.252h2.272c-.065 1.889-1.397 3.137-3.545 3.137Zm7.22-4.5v4.355h-2.431v-10.181h2.351v3.947h.085c.343-.94 1.148-1.501 2.292-1.501 1.606 0 2.66 1.138 2.655 2.868v4.867h-2.432v-4.389c.005-.851-.447-1.353-1.227-1.353-.771 0-1.288.517-1.293 1.387Z" fill="#333336"/><g clip-path="url(#b)"><path d="M21 62h92v92H21V62Z" fill="#fff"/><path d="M21 63.586h22.207Zm34.897 0h6.344Zm12.69 0h15.861Zm22.206 0H113ZM21 66.76h3.172Zm19.035 0h3.172Zm12.69 0h9.516Zm22.206 0h3.172Zm9.517 0h3.173Zm6.345 0h3.172Zm19.035 0H113ZM21 69.93h3.172Zm6.345 0h9.517Zm12.69 0h3.172Zm6.344 0h3.173Zm12.69 0h3.172Zm6.345 0h3.172Zm6.345 0h3.172Zm12.69 0h3.172Zm6.344 0h3.172Zm6.345 0h9.517Zm12.69 0H113ZM21 73.104h3.172Zm6.345 0h9.517Zm12.69 0h3.172Zm6.344 0h6.345Zm9.518 0h3.172Zm15.862 0h12.69Zm19.034 0h3.172Zm6.345 0h9.517Zm12.69 0H113ZM21 76.276h3.172Zm6.345 0h9.517Zm12.69 0h3.172Zm6.344 0h6.345Zm15.862 0h9.518Zm19.035 0h6.345Zm9.517 0h3.172Zm6.345 0h9.517Zm12.69 0H113ZM21 79.448h3.172Zm19.035 0h3.172Zm6.344 0h3.173Zm6.345 0h3.173Zm6.345 0h15.862Zm19.034 0h3.173Zm6.345 0h3.173Zm6.345 0h3.172Zm19.035 0H113ZM21 82.621h22.207Zm25.38 0h3.172Zm6.344 0h3.173Zm6.345 0h3.172Zm6.345 0h3.172Zm6.345 0h3.172Zm6.344 0h3.173Zm6.345 0h3.173Zm6.345 0H113ZM46.38 85.793h6.345Zm9.518 0h9.517Zm12.69 0h3.172Zm12.689 0h6.345ZM21 88.966h3.172Zm6.345 0h15.862Zm22.207 0h6.345Zm9.517 0h3.172Zm6.345 0h6.345Zm9.517 0h9.517Zm15.862 0h15.862Zm-66.62 3.172h3.172Zm12.69 0h3.172Zm6.344 0h3.172Zm15.862 0h3.172Zm9.517 0h6.345Zm12.69 0h19.034Zm28.552 0H113Zm-82.483 3.173h3.172Zm9.517 0h12.69Zm15.862 0h3.173Zm22.207 0h3.172Zm9.517 0h6.345ZM21 98.483h3.172Zm6.345 0h3.172Zm15.862 0h3.172Zm9.517 0h3.173Zm6.345 0h3.172Zm6.345 0h3.172Zm6.345 0h3.172Zm9.517 0h3.172Zm12.69 0h3.172Zm6.344 0h3.173Zm6.345 0h3.173Zm-79.31 3.172h3.172Zm12.69 0h6.344Zm9.517 0h3.172Zm6.345 0h6.344Zm15.862 0h6.344Zm28.551 0h6.345Zm-76.138 3.173h3.173Zm22.207 0h3.173Zm12.69 0h12.69Zm15.862 0h3.172Zm6.345 0h12.69Zm15.862 0h3.172Zm12.69 0H113ZM21 108h3.172Zm12.69 0h3.172Zm6.345 0h3.172Zm6.344 0h9.518Zm15.862 0h12.69Zm15.862 0h3.173Zm19.035 0h9.517Zm-69.793 3.173h12.69Zm19.034 0h19.035Zm22.207 0h3.173Zm9.517 0h12.69Zm19.035 0h3.172Zm9.517 0h3.173ZM21 114.345h9.517Zm15.862 0h9.517Zm12.69 0h6.345Zm15.862 0h6.345Zm9.517 0h3.172Zm6.345 0h3.172Zm12.69 0h3.172Zm6.344 0h6.345ZM21 117.517h6.345Zm9.517 0h3.173Zm6.345 0h3.172Zm6.345 0h3.172Zm9.517 0h3.173Zm15.862 0h6.345Zm9.517 0h6.345Zm9.518 0h12.689Zm15.862 0h3.172Zm6.345 0H113ZM21 120.69h3.172Zm12.69 0h3.172Zm6.345 0h3.172Zm15.862 0h3.172Zm19.034 0h3.172Zm12.69 0h6.345Zm9.517 0h3.172Zm6.345 0h3.172ZM21 123.862h3.172Zm9.517 0h3.173Zm12.69 0h6.345Zm15.862 0h3.172Zm6.345 0h3.172Zm6.345 0h3.172Zm6.344 0h3.173Zm6.345 0h9.518Zm12.69 0h3.172Zm9.517 0h3.173ZM21 127.035h3.172Zm6.345 0h3.172Zm6.345 0h3.172Zm6.345 0h3.172Zm34.896 0h3.172Zm9.517 0h15.862Zm19.035 0H113Zm-57.104 3.172h3.173Zm6.345 0h3.173Zm6.345 0h12.69Zm15.862 0h3.172Zm6.345 0h6.345Zm15.862 0H113ZM21 133.38h22.207Zm28.552 0h6.345Zm12.69 0h9.517Zm12.689 0h12.69Zm15.862 0h3.172Zm6.345 0h9.517ZM21 136.552h3.172Zm19.035 0h3.172Zm6.344 0h9.518Zm15.862 0h3.173Zm15.862 0h9.518Zm19.035 0h3.172Zm12.69 0H113ZM21 139.724h3.172Zm6.345 0h9.517Zm12.69 0h3.172Zm6.344 0h3.173Zm6.345 0h9.517Zm12.69 0h12.69Zm19.034 0h15.862Zm19.035 0h3.172Zm6.345 0H113ZM21 142.897h3.172Zm6.345 0h9.517Zm12.69 0h3.172Zm6.344 0h6.345Zm15.862 0h3.173Zm9.518 0H87.62Zm22.207 0h3.172Zm6.344 0h6.345ZM21 146.069h3.172Zm6.345 0h9.517Zm12.69 0h3.172Zm6.344 0h3.173Zm12.69 0h6.345Zm9.517 0h6.345Zm22.207 0h19.035ZM21 149.242h3.172Zm19.035 0h3.172Zm12.69 0h9.516Zm15.861 0h6.345Zm9.517 0h9.518Zm15.863 0h9.517Zm12.689 0h3.173ZM21 152.414h22.207Zm25.38 0h3.172Zm6.344 0h3.173Zm9.517 0h3.173Zm6.345 0h15.862Zm28.552 0h3.172Zm6.345 0h3.172Z" fill="#333336"/><path d="M21 63.586h22.207m12.69 0h6.344m6.345 0h15.862m6.345 0H113M21 66.76h3.172m15.863 0h3.172m9.517 0h9.517m12.69 0h3.172m6.345 0h3.173m3.172 0h3.172m15.863 0H113M21 69.93h3.172m3.173 0h9.517m3.172 0h3.173m3.172 0h3.173m9.517 0h3.172m3.173 0h3.172m3.173 0h3.172m9.517 0h3.173m3.172 0h3.172m3.173 0h9.517m3.173 0H113m-92 3.173h3.172m3.173 0h9.517m3.172 0h3.173m3.172 0h6.345m3.173 0h3.172m12.69 0h12.69m6.344 0h3.172m3.173 0h9.517m3.173 0H113m-92 3.172h3.172m3.173 0h9.517m3.172 0h3.173m3.172 0h6.345m9.517 0h9.518m9.517 0h6.345m3.172 0h3.172m3.173 0h9.517m3.173 0H113m-92 3.172h3.172m15.863 0h3.172m3.172 0h3.173m3.172 0h3.173m3.172 0h15.862m3.172 0h3.173m3.172 0h3.173m3.172 0h3.172m15.863 0H113m-92 3.173h22.207m3.172 0h3.173m3.172 0h3.173m3.172 0h3.172m3.173 0h3.172m3.173 0h3.172m3.172 0h3.173m3.172 0h3.173m3.172 0H113m-66.62 3.172h6.344m3.173 0h9.517m3.172 0h3.173m9.517 0h6.345M21 88.966h3.172m3.173 0h15.862m6.345 0h6.345m3.172 0h3.172m3.173 0h6.345m3.172 0h9.517m6.345 0h15.862m-82.483 3.172h3.173m9.517 0h3.172m3.173 0h3.172m12.69 0h3.172m6.345 0h6.345m6.345 0h19.034m9.518 0H113m-85.655 3.173h3.172m6.345 0h12.69m3.172 0h3.173m19.034 0h3.172m6.345 0h6.345M21 98.483h3.172m3.173 0h3.172m12.69 0h3.172m6.345 0h3.173m3.172 0h3.172m3.173 0h3.172m3.173 0h3.172m6.345 0h3.172m9.518 0h3.172m3.172 0h3.173m3.172 0h3.173m-82.483 3.172h3.172m9.518 0h6.344m3.173 0h3.172m3.173 0h6.344m9.518 0h6.344m22.207 0h6.345m-82.483 3.173h3.173m19.034 0h3.173m9.517 0h12.69m3.172 0h3.172m3.173 0h12.69m3.172 0h3.172m9.518 0H113M21 108h3.172m9.518 0h3.172m3.172 0h3.173m3.172 0h9.518m6.344 0h12.69m3.172 0h3.173m15.862 0h9.517m-79.31 3.173h12.69m6.344 0h19.035m3.172 0h3.173m6.344 0h12.69m6.345 0h3.172m6.345 0h3.173M21 114.345h9.517m6.345 0h9.517m3.173 0h6.345m9.517 0h6.345m3.172 0h3.172m3.173 0h3.172m9.518 0h3.172m3.172 0h6.345M21 117.517h6.345m3.172 0h3.173m3.172 0h3.172m3.173 0h3.172m6.345 0h3.173m12.69 0h6.344m3.172 0h6.345m3.173 0h12.689m3.173 0h3.172m3.173 0H113m-92 3.173h3.172m9.518 0h3.172m3.172 0h3.173m12.69 0h3.172m15.862 0h3.172m9.518 0h6.345m3.172 0h3.172m3.173 0h3.172M21 123.862h3.172m6.345 0h3.173m9.517 0h6.345m9.517 0h3.172m3.173 0h3.172m3.173 0h3.172m3.172 0h3.173m3.172 0h9.518m3.172 0h3.172m6.345 0h3.173M21 127.035h3.172m3.173 0h3.172m3.173 0h3.172m3.172 0h3.173m31.724 0h3.172m6.345 0h15.862m3.173 0H113m-66.62 3.172h3.172m3.172 0h3.173m3.172 0h12.69m3.172 0h3.172m3.173 0h6.345m9.517 0H113m-92 3.173h22.207m6.345 0h6.345m6.344 0h9.518m3.172 0h12.69m3.172 0h3.172m3.173 0h9.517M21 136.552h3.172m15.863 0h3.172m3.172 0h9.518m6.344 0h3.173m12.69 0h9.517m9.517 0h3.172m9.518 0H113m-92 3.172h3.172m3.173 0h9.517m3.172 0h3.173m3.172 0h3.173m3.172 0h9.517m3.173 0h12.69m6.344 0h15.862m3.173 0h3.172m3.173 0H113m-92 3.173h3.172m3.173 0h9.517m3.172 0h3.173m3.172 0h6.345m9.517 0h3.173m6.345 0H87.62m6.345 0h3.172m3.172 0h6.345M21 146.069h3.172m3.173 0h9.517m3.172 0h3.173m3.172 0h3.173m9.517 0h6.345m3.172 0h6.345m15.862 0h19.035M21 149.242h3.172m15.863 0h3.172m9.517 0h9.517m6.345 0h6.345m3.172 0h9.518m6.345 0h9.517m3.172 0h3.173M21 152.414h22.207m3.172 0h3.173m3.172 0h3.173m6.344 0h3.173m3.172 0h15.862m12.69 0h3.172m3.173 0h3.172" stroke="#333336" stroke-width="3.793"/></g></g><defs><clipPath id="a"><path fill="#fff" d="M0 0h326v192H0z"/></clipPath><clipPath id="b"><path fill="#fff" transform="translate(21 62)" d="M0 0h92v92H0z"/></clipPath></defs></svg>
