<svg xmlns="http://www.w3.org/2000/svg" width="326" height="192" fill="none" viewBox="0 0 326 192"><g clip-path="url(#a)"><mask id="b" width="326" height="192" x="0" y="0" maskUnits="userSpaceOnUse" style="mask-type:luminance"><path fill="#fff" d="M0 0h326v192H0V0Z"/></mask><g mask="url(#b)"><path stroke="#333336" stroke-width="2.5" d="M172.572 32.7c.904.991.082 2.571-1.249 2.402l-34.258-4.362c-9.767-1.244-15.312-11.832-10.771-20.568 4.54-8.737 16.392-10.283 23.022-3.004L172.572 32.7Z"/><path fill="#80EBFF" stroke="#333336" stroke-width="2.5" d="M214 100.75a7.254 7.254 0 0 0-5.127 2.123A7.254 7.254 0 0 0 206.75 108v73c0 1.923.764 3.767 2.123 5.127A7.254 7.254 0 0 0 214 188.25h96a7.254 7.254 0 0 0 5.127-2.123A7.254 7.254 0 0 0 317.25 181v-73a7.254 7.254 0 0 0-2.123-5.127A7.254 7.254 0 0 0 310 100.75h-96Z"/><path stroke="#333336" stroke-width="2.5" d="M166.035 32.7c-.903.991-.082 2.571 1.249 2.402l34.259-4.362c9.767-1.244 15.311-11.832 10.771-20.568-4.541-8.737-16.393-10.283-23.023-3.004L166.035 32.7Zm104.534 50.983c.5.548.046 1.423-.691 1.33l-26.061-3.32c-7.223-.919-11.323-8.75-7.965-15.21 3.358-6.461 12.123-7.605 17.026-2.222l17.691 19.422Z"/><path stroke="#333336" stroke-width="2.5" d="M266.039 83.683c-.5.548-.046 1.423.691 1.33l26.06-3.32c7.223-.919 11.324-8.75 7.966-15.21-3.358-6.461-12.123-7.605-17.027-2.222l-17.69 19.422Z"/><path fill="#0DF" d="M316 108h-88v20h88v-20Z"/><path fill="#ABF2FF" stroke="#333336" stroke-width="2.5" d="M194 109.25h-1.25V90a7.252 7.252 0 0 1 7.25-7.25h115a7.251 7.251 0 0 1 7.25 7.25v19.25H194Z"/><path fill="#FFB4DC" stroke="#333336" stroke-width="2.5" d="M112 55.75h-1.25V181c0 1.923.764 3.767 2.123 5.127A7.254 7.254 0 0 0 118 188.25h102a7.254 7.254 0 0 0 5.127-2.123A7.254 7.254 0 0 0 227.25 181V55.75H112Z"/><path fill="#FF8AC6" d="M226 56h-45v20h45V56Zm-114 0h69v20h-69V56Z"/><path fill="#FFEA80" stroke="#333336" stroke-width="2.5" d="M155.75 54.75h26.5v133.5h-26.5V54.75Z"/><path fill="#FFD567" d="M157 56h24v20h-24V56Z"/><path fill="#FFB4DC" stroke="#333336" stroke-width="2.5" d="M106 57.25h-1.25V38a7.252 7.252 0 0 1 7.25-7.25h115a7.251 7.251 0 0 1 7.25 7.25v19.25H106Z"/><path fill="#FFEA80" stroke="#333336" stroke-width="2.5" d="M155.75 57.25h26.5v-26.5h-26.5v26.5Z"/><path fill="#fff" stroke="#333336" stroke-width="2.5" d="M11 47.75A7.25 7.25 0 0 0 3.75 55v126a7.251 7.251 0 0 0 7.25 7.25h112a7.254 7.254 0 0 0 5.127-2.123A7.254 7.254 0 0 0 130.25 181V55a7.252 7.252 0 0 0-7.25-7.25H11Z"/><path fill="#333336" d="M37.338 167.518c-.065-.726-.592-1.158-1.552-1.158-.954 0-1.431.403-1.436.959-.02.607.566.915 1.491 1.114l.875.199c2.009.442 3.107 1.437 3.117 3.062-.01 1.934-1.511 3.083-4.047 3.083-2.56 0-4.215-1.139-4.245-3.52h2.356c.055.979.77 1.486 1.86 1.486.989 0 1.57-.432 1.58-1.054-.01-.571-.511-.875-1.63-1.133l-1.064-.249c-1.76-.402-2.844-1.272-2.839-2.819-.015-1.894 1.66-3.162 3.988-3.162 2.366 0 3.882 1.288 3.902 3.192h-2.356Zm7.303 7.274c-2.416 0-3.858-1.606-3.858-3.938 0-2.341 1.452-3.942 3.853-3.942 2.123 0 3.495 1.223 3.55 3.102h-2.272c-.095-.781-.547-1.253-1.243-1.253-.85 0-1.412.721-1.412 2.068 0 1.358.557 2.078 1.412 2.078.666 0 1.153-.442 1.243-1.252h2.272c-.065 1.889-1.397 3.137-3.545 3.137Zm6.942-.015c-1.462 0-2.511-.736-2.511-2.247 0-1.691 1.292-2.263 2.839-2.392 1.302-.114 1.81-.214 1.81-.681v-.025c0-.512-.379-.8-.975-.8-.642 0-1.044.298-1.149.785l-2.242-.079c.194-1.392 1.357-2.426 3.41-2.426 1.945 0 3.381.929 3.381 2.545v5.19H53.86v-1.063h-.06c-.417.78-1.154 1.193-2.217 1.193Zm.75-1.591c.776 0 1.402-.507 1.402-1.253v-.726c-.273.144-.83.244-1.282.308-.692.105-1.08.403-1.08.895 0 .507.398.776.96.776Zm7.731-2.894v4.355h-2.431v-7.636h2.312v1.402h.084c.338-.93 1.193-1.501 2.322-1.501 1.606 0 2.655 1.148 2.65 2.868v4.867H62.57v-4.389c.005-.846-.453-1.353-1.223-1.353s-1.278.517-1.283 1.387Zm9.45 4.355v-7.636h2.312v1.402h.084c.318-.93 1.114-1.501 2.158-1.501 1.059 0 1.879.586 2.083 1.501h.08c.283-.91 1.173-1.501 2.301-1.501 1.442 0 2.436.979 2.436 2.595v5.14h-2.43v-4.583c0-.761-.438-1.174-1.055-1.174-.67 0-1.074.468-1.074 1.199v4.558h-2.336v-4.608c0-.706-.418-1.149-1.05-1.149-.636 0-1.078.483-1.078 1.238v4.519h-2.431Zm12.96 0v-7.636h2.432v7.636h-2.432Zm1.219-8.526c-.686 0-1.248-.522-1.248-1.163 0-.642.562-1.159 1.248-1.159.69 0 1.248.517 1.248 1.159 0 .641-.557 1.163-1.248 1.163Zm6.325 8.671c-2.416 0-3.858-1.606-3.858-3.938 0-2.341 1.452-3.942 3.853-3.942 2.123 0 3.495 1.223 3.55 3.102H91.29c-.095-.781-.547-1.253-1.243-1.253-.85 0-1.412.721-1.412 2.068 0 1.358.557 2.078 1.412 2.078.666 0 1.153-.442 1.243-1.252h2.272c-.065 1.889-1.396 3.137-3.544 3.137Zm7.22-4.5v4.355h-2.431v-10.181h2.351v3.947h.085c.343-.94 1.148-1.501 2.292-1.501 1.606 0 2.66 1.138 2.655 2.868v4.867h-2.432v-4.389c.005-.851-.447-1.353-1.227-1.353-.771 0-1.288.517-1.293 1.387Z"/></g><path fill="#000" d="M19 61h2.317v2.317H19V61Zm2.317 0h2.317v2.317h-2.317V61Zm2.317 0h2.317v2.317h-2.317V61Zm2.317 0h2.317v2.317h-2.317V61Zm2.317 0h2.317v2.317h-2.317V61Zm2.317 0h2.317v2.317h-2.317V61Zm2.317 0h2.317v2.317h-2.317V61Zm9.269 0h2.317v2.317H42.17V61Zm4.634 0h2.317v2.317h-2.317V61Zm2.317 0h2.317v2.317h-2.317V61Zm2.317 0h2.317v2.317H51.44V61Zm4.634 0h2.317v2.317h-2.317V61Zm2.317 0h2.317v2.317H58.39V61Zm4.634 0h2.317v2.317h-2.317V61Zm2.317 0h2.318v2.317H65.34V61Zm2.318 0h2.317v2.317h-2.317V61Zm4.634 0h2.317v2.317h-2.317V61Zm9.268 0h2.317v2.317h-2.317V61Zm6.951 0h2.317v2.317h-2.317V61Zm2.317 0h2.317v2.317H90.83V61Zm6.952 0h2.317v2.317h-2.317V61Zm2.317 0h2.317v2.317h-2.317V61Zm2.317 0h2.317v2.317h-2.317V61Zm2.317 0h2.317v2.317h-2.317V61Zm2.317 0h2.317v2.317h-2.317V61Zm2.317 0h2.317v2.317h-2.317V61Zm2.317 0H114v2.317h-2.317V61ZM19 63.317h2.317v2.317H19v-2.317Zm13.902 0h2.317v2.317h-2.317v-2.317Zm6.952 0h2.317v2.317h-2.317v-2.317Zm2.317 0h2.317v2.317H42.17v-2.317Zm2.317 0h2.317v2.317h-2.317v-2.317Zm2.317 0h2.317v2.317h-2.317v-2.317Zm2.317 0h2.317v2.317h-2.317v-2.317Zm4.634 0h2.317v2.317h-2.317v-2.317Zm2.317 0h2.317v2.317h-2.317v-2.317Zm4.634 0h2.317v2.317h-2.317v-2.317Zm6.952 0h2.317v2.317h-2.317v-2.317Zm4.634 0h2.317v2.317h-2.317v-2.317Zm2.317 0h2.317v2.317H74.61v-2.317Zm2.317 0h2.317v2.317h-2.317v-2.317Zm2.317 0h2.317v2.317h-2.317v-2.317Zm2.317 0h2.317v2.317h-2.317v-2.317Zm4.634 0h2.317v2.317h-2.317v-2.317Zm11.586 0h2.317v2.317h-2.317v-2.317Zm13.902 0H114v2.317h-2.317v-2.317ZM19 65.634h2.317v2.317H19v-2.317Zm4.634 0h2.317v2.317h-2.317v-2.317Zm2.317 0h2.317v2.317h-2.317v-2.317Zm2.317 0h2.317v2.317h-2.317v-2.317Zm4.634 0h2.317v2.317h-2.317v-2.317Zm18.537 0h2.317v2.317H51.44v-2.317Zm9.268 0h2.317v2.317h-2.317v-2.317Zm2.317 0h2.317v2.317h-2.317v-2.317Zm2.317 0h2.318v2.317H65.34v-2.317Zm6.952 0h2.317v2.317h-2.317v-2.317Zm6.95 0h2.318v2.317h-2.317v-2.317Zm2.318 0h2.317v2.317h-2.317v-2.317Zm4.634 0h2.317v2.317h-2.317v-2.317Zm4.634 0h2.317v2.317H90.83v-2.317Zm2.317 0h2.317v2.317h-2.317v-2.317Zm4.635 0h2.317v2.317h-2.317v-2.317Zm4.634 0h2.317v2.317h-2.317v-2.317Zm2.317 0h2.317v2.317h-2.317v-2.317Zm2.317 0h2.317v2.317h-2.317v-2.317Zm4.634 0H114v2.317h-2.317v-2.317ZM19 67.951h2.317v2.317H19v-2.317Zm4.634 0h2.317v2.317h-2.317v-2.317Zm2.317 0h2.317v2.317h-2.317v-2.317Zm2.317 0h2.317v2.317h-2.317v-2.317Zm4.634 0h2.317v2.317h-2.317v-2.317Zm6.952 0h2.317v2.317h-2.317v-2.317Zm2.317 0h2.317v2.317H42.17v-2.317Zm4.634 0h2.317v2.317h-2.317v-2.317Zm4.634 0h2.317v2.317H51.44v-2.317Zm2.317 0h2.317v2.317h-2.317v-2.317Zm2.317 0h2.317v2.317h-2.317v-2.317Zm2.317 0h2.317v2.317H58.39v-2.317Zm2.317 0h2.317v2.317h-2.317v-2.317Zm4.634 0h2.318v2.317H65.34v-2.317Zm4.635 0h2.317v2.317h-2.317v-2.317Zm18.536 0h2.317v2.317h-2.317v-2.317Zm2.317 0h2.317v2.317H90.83v-2.317Zm2.317 0h2.317v2.317h-2.317v-2.317Zm4.635 0h2.317v2.317h-2.317v-2.317Zm4.634 0h2.317v2.317h-2.317v-2.317Zm2.317 0h2.317v2.317h-2.317v-2.317Zm2.317 0h2.317v2.317h-2.317v-2.317Zm4.634 0H114v2.317h-2.317v-2.317ZM19 70.268h2.317v2.317H19v-2.317Zm4.634 0h2.317v2.317h-2.317v-2.317Zm2.317 0h2.317v2.317h-2.317v-2.317Zm2.317 0h2.317v2.317h-2.317v-2.317Zm4.634 0h2.317v2.317h-2.317v-2.317Zm9.269 0h2.317v2.317H42.17v-2.317Zm2.317 0h2.317v2.317h-2.317v-2.317Zm6.951 0h2.317v2.317H51.44v-2.317Zm2.317 0h2.317v2.317h-2.317v-2.317Zm2.317 0h2.317v2.317h-2.317v-2.317Zm2.317 0h2.317v2.317H58.39v-2.317Zm2.317 0h2.317v2.317h-2.317v-2.317Zm11.586 0h2.317v2.317h-2.317v-2.317Zm6.95 0h2.318v2.317h-2.317v-2.317Zm2.318 0h2.317v2.317h-2.317v-2.317Zm16.22 0h2.317v2.317h-2.317v-2.317Zm4.634 0h2.317v2.317h-2.317v-2.317Zm2.317 0h2.317v2.317h-2.317v-2.317Zm2.317 0h2.317v2.317h-2.317v-2.317Zm4.634 0H114v2.317h-2.317v-2.317ZM19 72.585h2.317v2.317H19v-2.317Zm13.902 0h2.317v2.317h-2.317v-2.317Zm4.635 0h2.317v2.317h-2.317v-2.317Zm2.317 0h2.317v2.317h-2.317v-2.317Zm2.317 0h2.317v2.317H42.17v-2.317Zm6.95 0h2.318v2.317h-2.317v-2.317Zm9.27 0h2.316v2.317H58.39v-2.317Zm2.316 0h2.317v2.317h-2.317v-2.317Zm2.317 0h2.317v2.317h-2.317v-2.317Zm2.317 0h2.318v2.317H65.34v-2.317Zm2.318 0h2.317v2.317h-2.317v-2.317Zm6.95 0h2.318v2.317H74.61v-2.317Zm6.952 0h2.317v2.317h-2.317v-2.317Zm2.317 0h2.317v2.317h-2.317v-2.317Zm2.317 0h2.317v2.317h-2.317v-2.317Zm2.317 0h2.317v2.317h-2.317v-2.317Zm2.317 0h2.317v2.317H90.83v-2.317Zm6.952 0h2.317v2.317h-2.317v-2.317Zm13.902 0H114v2.317h-2.317v-2.317ZM19 74.902h2.317v2.317H19v-2.317Zm2.317 0h2.317v2.317h-2.317v-2.317Zm2.317 0h2.317v2.317h-2.317v-2.317Zm2.317 0h2.317v2.317h-2.317v-2.317Zm2.317 0h2.317v2.317h-2.317v-2.317Zm2.317 0h2.317v2.317h-2.317v-2.317Zm2.317 0h2.317v2.317h-2.317v-2.317Zm4.635 0h2.317v2.317h-2.317v-2.317Zm4.634 0h2.317v2.317H42.17v-2.317Zm4.634 0h2.317v2.317h-2.317v-2.317Zm4.634 0h2.317v2.317H51.44v-2.317Zm4.634 0h2.317v2.317h-2.317v-2.317Zm4.634 0h2.317v2.317h-2.317v-2.317Zm4.634 0h2.318v2.317H65.34v-2.317Zm4.635 0h2.317v2.317h-2.317v-2.317Zm4.634 0h2.317v2.317H74.61v-2.317Zm4.634 0h2.317v2.317h-2.317v-2.317Zm4.634 0h2.317v2.317h-2.317v-2.317Zm4.634 0h2.317v2.317h-2.317v-2.317Zm4.634 0h2.317v2.317h-2.317v-2.317Zm4.635 0h2.317v2.317h-2.317v-2.317Zm2.317 0h2.317v2.317h-2.317v-2.317Zm2.317 0h2.317v2.317h-2.317v-2.317Zm2.317 0h2.317v2.317h-2.317v-2.317Zm2.317 0h2.317v2.317h-2.317v-2.317Zm2.317 0h2.317v2.317h-2.317v-2.317Zm2.317 0H114v2.317h-2.317v-2.317ZM58.39 77.22h2.317v2.318H58.39v-2.318Zm2.317 0h2.317v2.318h-2.317v-2.318Zm6.952 0h2.317v2.318h-2.317v-2.318Zm4.634 0h2.317v2.318h-2.317v-2.318Zm6.95 0h2.318v2.318h-2.317v-2.318Zm4.635 0h2.317v2.318h-2.317v-2.318Zm2.317 0h2.317v2.318h-2.317v-2.318Zm2.317 0h2.317v2.318h-2.317v-2.318Zm2.317 0h2.317v2.318H90.83v-2.318Zm2.317 0h2.317v2.318h-2.317v-2.318ZM19 79.537h2.317v2.317H19v-2.317Zm6.951 0h2.317v2.317h-2.317v-2.317Zm4.634 0h2.317v2.317h-2.317v-2.317Zm2.317 0h2.317v2.317h-2.317v-2.317Zm4.635 0h2.317v2.317h-2.317v-2.317Zm4.634 0h2.317v2.317H42.17v-2.317Zm2.317 0h2.317v2.317h-2.317v-2.317Zm4.634 0h2.317v2.317h-2.317v-2.317Zm2.317 0h2.317v2.317H51.44v-2.317Zm2.317 0h2.317v2.317h-2.317v-2.317Zm13.903 0h2.317v2.317h-2.317v-2.317Zm2.317 0h2.317v2.317h-2.317v-2.317Zm4.634 0h2.317v2.317H74.61v-2.317Zm2.317 0h2.317v2.317h-2.317v-2.317Zm2.317 0h2.317v2.317h-2.317v-2.317Zm4.634 0h2.317v2.317h-2.317v-2.317Zm6.951 0h2.317v2.317H90.83v-2.317Zm2.317 0h2.317v2.317h-2.317v-2.317Zm2.317 0h2.318v2.317h-2.318v-2.317Zm4.635 0h2.317v2.317h-2.317v-2.317Zm-76.464 2.317h2.317v2.317h-2.317v-2.317Zm2.317 0h2.317v2.317h-2.317v-2.317Zm11.586 0h2.317v2.317h-2.317v-2.317Zm2.317 0h2.317v2.317h-2.317v-2.317Zm2.317 0h2.317v2.317H42.17v-2.317Zm4.634 0h2.317v2.317h-2.317v-2.317Zm2.317 0h2.317v2.317h-2.317v-2.317Zm4.634 0h2.317v2.317h-2.317v-2.317Zm4.634 0h2.317v2.317H58.39v-2.317Zm16.22 0h2.317v2.317H74.61v-2.317Zm4.634 0h2.317v2.317h-2.317v-2.317Zm4.634 0h2.317v2.317h-2.317v-2.317Zm2.317 0h2.317v2.317h-2.317v-2.317Zm2.317 0h2.317v2.317h-2.317v-2.317Zm4.634 0h2.317v2.317h-2.317v-2.317Zm2.317 0h2.318v2.317h-2.318v-2.317Zm2.318 0h2.317v2.317h-2.317v-2.317Zm6.951 0h2.317v2.317h-2.317v-2.317Zm2.317 0h2.317v2.317h-2.317v-2.317Zm2.317 0h2.317v2.317h-2.317v-2.317Zm2.317 0H114v2.317h-2.317v-2.317ZM19 84.17h2.317v2.317H19V84.17Zm4.634 0h2.317v2.317h-2.317V84.17Zm4.634 0h2.317v2.317h-2.317V84.17Zm2.317 0h2.317v2.317h-2.317V84.17Zm2.317 0h2.317v2.317h-2.317V84.17Zm2.317 0h2.318v2.317h-2.318V84.17Zm2.318 0h2.317v2.317h-2.317V84.17Zm9.268 0h2.317v2.317h-2.317V84.17Zm2.317 0h2.317v2.317h-2.317V84.17Zm2.317 0h2.317v2.317H51.44V84.17Zm2.317 0h2.317v2.317h-2.317V84.17Zm6.951 0h2.317v2.317h-2.317V84.17Zm2.317 0h2.317v2.317h-2.317V84.17Zm6.952 0h2.317v2.317h-2.317V84.17Zm4.634 0h2.317v2.317H74.61V84.17Zm9.268 0h2.317v2.317h-2.317V84.17Zm2.317 0h2.317v2.317h-2.317V84.17Zm4.634 0h2.317v2.317H90.83V84.17Zm6.952 0h2.317v2.317h-2.317V84.17Zm2.317 0h2.317v2.317h-2.317V84.17Zm2.317 0h2.317v2.317h-2.317V84.17Zm2.317 0h2.317v2.317h-2.317V84.17Zm2.317 0h2.317v2.317h-2.317V84.17Zm2.317 0h2.317v2.317h-2.317V84.17Zm-85.732 2.317h2.317v2.317h-2.317v-2.317Zm4.634 0h2.317v2.317h-2.317v-2.317Zm11.586 0h2.317v2.317h-2.317v-2.317Zm2.317 0h2.317v2.317H42.17v-2.317Zm2.317 0h2.317v2.317h-2.317v-2.317Zm11.585 0h2.317v2.317h-2.317v-2.317Zm11.586 0h2.317v2.317h-2.317v-2.317Zm6.95 0h2.318v2.317H74.61v-2.317Zm2.318 0h2.317v2.317h-2.317v-2.317Zm4.634 0h2.317v2.317h-2.317v-2.317Zm2.317 0h2.317v2.317h-2.317v-2.317Zm4.634 0h2.317v2.317h-2.317v-2.317Zm6.951 0h2.318v2.317h-2.318v-2.317Zm4.635 0h2.317v2.317h-2.317v-2.317Zm6.951 0h2.317v2.317h-2.317v-2.317Zm2.317 0h2.317v2.317h-2.317v-2.317Zm2.317 0H114v2.317h-2.317v-2.317Zm-90.366 2.317h2.317v2.317h-2.317v-2.317Zm4.634 0h2.317v2.317h-2.317v-2.317Zm2.317 0h2.317v2.317h-2.317v-2.317Zm4.634 0h2.317v2.317h-2.317v-2.317Zm2.317 0h2.318v2.317h-2.318v-2.317Zm2.318 0h2.317v2.317h-2.317v-2.317Zm4.634 0h2.317v2.317H42.17v-2.317Zm2.317 0h2.317v2.317h-2.317v-2.317Zm2.317 0h2.317v2.317h-2.317v-2.317Zm2.317 0h2.317v2.317h-2.317v-2.317Zm6.951 0h2.317v2.317h-2.317v-2.317Zm2.317 0h2.317v2.317H58.39v-2.317Zm2.317 0h2.317v2.317h-2.317v-2.317Zm6.952 0h2.317v2.317h-2.317v-2.317Zm4.634 0h2.317v2.317h-2.317v-2.317Zm2.317 0h2.317v2.317H74.61v-2.317Zm2.317 0h2.317v2.317h-2.317v-2.317Zm4.634 0h2.317v2.317h-2.317v-2.317Zm4.634 0h2.317v2.317h-2.317v-2.317Zm4.634 0h2.317v2.317H90.83v-2.317Zm2.317 0h2.317v2.317h-2.317v-2.317Zm4.635 0h2.317v2.317h-2.317v-2.317Zm6.951 0h2.317v2.317h-2.317v-2.317Zm6.951 0H114v2.317h-2.317v-2.317ZM19 91.122h2.317v2.317H19v-2.317Zm2.317 0h2.317v2.317h-2.317v-2.317Zm2.317 0h2.317v2.317h-2.317v-2.317Zm2.317 0h2.317v2.317h-2.317v-2.317Zm9.268 0h2.318v2.317h-2.318v-2.317Zm2.318 0h2.317v2.317h-2.317v-2.317Zm4.634 0h2.317v2.317H42.17v-2.317Zm4.634 0h2.317v2.317h-2.317v-2.317Zm4.634 0h2.317v2.317H51.44v-2.317Zm16.22 0h2.317v2.317h-2.317v-2.317Zm2.317 0h2.317v2.317h-2.317v-2.317Zm6.95 0h2.318v2.317h-2.317v-2.317Zm11.586 0h2.317v2.317h-2.317v-2.317Zm2.317 0h2.317v2.317H90.83v-2.317Zm2.317 0h2.317v2.317h-2.317v-2.317Zm2.317 0h2.318v2.317h-2.318v-2.317Zm4.635 0h2.317v2.317h-2.317v-2.317Zm4.634 0h2.317v2.317h-2.317v-2.317Zm-74.147 2.317h2.317v2.317h-2.317V93.44Zm2.317 0h2.317v2.317h-2.317V93.44Zm4.635 0h2.317v2.317h-2.317V93.44Zm2.317 0h2.317v2.317h-2.317V93.44Zm4.634 0h2.317v2.317h-2.317V93.44Zm4.634 0h2.317v2.317h-2.317V93.44Zm2.317 0h2.317v2.317H51.44V93.44Zm2.317 0h2.317v2.317h-2.317V93.44Zm2.317 0h2.317v2.317h-2.317V93.44Zm2.317 0h2.317v2.317H58.39V93.44Zm6.951 0h2.318v2.317H65.34V93.44Zm4.635 0h2.317v2.317h-2.317V93.44Zm2.317 0h2.317v2.317h-2.317V93.44Zm13.902 0h2.317v2.317h-2.317V93.44Zm2.317 0h2.317v2.317h-2.317V93.44Zm9.269 0h2.317v2.317h-2.317V93.44Zm2.317 0h2.317v2.317h-2.317V93.44Zm2.317 0h2.317v2.317h-2.317V93.44Zm2.317 0h2.317v2.317h-2.317V93.44Zm4.634 0h2.317v2.317h-2.317V93.44Zm2.317 0H114v2.317h-2.317V93.44Zm-88.049 2.317h2.317v2.317h-2.317v-2.317Zm2.317 0h2.317v2.317h-2.317v-2.317Zm9.268 0h2.318v2.317h-2.318v-2.317Zm9.269 0h2.317v2.317h-2.317v-2.317Zm6.951 0h2.317v2.317H51.44v-2.317Zm6.951 0h2.317v2.317H58.39v-2.317Zm2.317 0h2.317v2.317h-2.317v-2.317Zm2.317 0h2.317v2.317h-2.317v-2.317Zm4.635 0h2.317v2.317h-2.317v-2.317Zm4.634 0h2.317v2.317h-2.317v-2.317Zm4.634 0h2.317v2.317h-2.317v-2.317Zm4.634 0h2.317v2.317h-2.317v-2.317Zm2.317 0h2.317v2.317h-2.317v-2.317Zm2.317 0h2.317v2.317h-2.317v-2.317Zm2.317 0h2.317v2.317h-2.317v-2.317Zm2.317 0h2.317v2.317H90.83v-2.317Zm6.952 0h2.317v2.317h-2.317v-2.317Zm2.317 0h2.317v2.317h-2.317v-2.317Zm2.317 0h2.317v2.317h-2.317v-2.317Zm6.951 0h2.317v2.317h-2.317v-2.317Zm-88.049 2.317h2.317v2.317h-2.317v-2.317Zm2.317 0h2.317v2.317h-2.317v-2.317Zm9.268 0h2.317v2.317h-2.317v-2.317Zm2.317 0h2.318v2.317h-2.318v-2.317Zm2.318 0h2.317v2.317h-2.317v-2.317Zm9.268 0h2.317v2.317h-2.317v-2.317Zm6.951 0h2.317v2.317h-2.317v-2.317Zm4.634 0h2.317v2.317H58.39v-2.317Zm4.634 0h2.317v2.317h-2.317v-2.317Zm2.317 0h2.318v2.317H65.34v-2.317Zm2.318 0h2.317v2.317h-2.317v-2.317Zm2.317 0h2.317v2.317h-2.317v-2.317Zm4.634 0h2.317v2.317H74.61v-2.317Zm4.634 0h2.317v2.317h-2.317v-2.317Zm6.951 0h2.317v2.317h-2.317v-2.317Zm6.951 0h2.317v2.317h-2.317v-2.317Zm6.952 0h2.317v2.317h-2.317v-2.317Zm4.634 0h2.317v2.317h-2.317v-2.317Zm-83.415 2.317h2.317v2.317h-2.317v-2.317Zm4.634 0h2.317v2.317h-2.317v-2.317Zm4.634 0h2.317v2.317h-2.317v-2.317Zm4.634 0h2.318v2.317h-2.318v-2.317Zm2.318 0h2.317v2.317h-2.317v-2.317Zm2.317 0h2.317v2.317h-2.317v-2.317Zm11.585 0h2.317v2.317H51.44v-2.317Zm2.317 0h2.317v2.317h-2.317v-2.317Zm2.317 0h2.317v2.317h-2.317v-2.317Zm11.586 0h2.317v2.317h-2.317v-2.317Zm4.634 0h2.317v2.317h-2.317v-2.317Zm2.317 0h2.317v2.317H74.61v-2.317Zm4.634 0h2.317v2.317h-2.317v-2.317Zm4.634 0h2.317v2.317h-2.317v-2.317Zm4.634 0h2.317v2.317h-2.317v-2.317Zm9.269 0h2.317v2.317h-2.317v-2.317Zm2.317 0h2.317v2.317h-2.317v-2.317Zm4.634 0h2.317v2.317h-2.317v-2.317Zm2.317 0h2.317v2.317h-2.317v-2.317Zm2.317 0h2.317v2.317h-2.317v-2.317Zm2.317 0H114v2.317h-2.317v-2.317ZM19 102.707h2.317v2.317H19v-2.317Zm9.268 0h2.317v2.317h-2.317v-2.317Zm4.634 0h2.317v2.317h-2.317v-2.317Zm13.903 0h2.317v2.317h-2.317v-2.317Zm4.634 0h2.317v2.317H51.44v-2.317Zm2.317 0h2.317v2.317h-2.317v-2.317Zm2.317 0h2.317v2.317h-2.317v-2.317Zm4.634 0h2.317v2.317h-2.317v-2.317Zm23.171 0h2.317v2.317h-2.317v-2.317Zm11.585 0h2.318v2.317h-2.318v-2.317Zm6.952 0h2.317v2.317h-2.317v-2.317Zm6.951 0h2.317v2.317h-2.317v-2.317Zm2.317 0H114v2.317h-2.317v-2.317ZM19 105.024h2.317v2.317H19v-2.317Zm4.634 0h2.317v2.317h-2.317v-2.317Zm2.317 0h2.317v2.317h-2.317v-2.317Zm4.634 0h2.317v2.317h-2.317v-2.317Zm11.586 0h2.317v2.317H42.17v-2.317Zm2.317 0h2.317v2.317h-2.317v-2.317Zm2.317 0h2.317v2.317h-2.317v-2.317Zm6.951 0h2.317v2.317h-2.317v-2.317Zm4.634 0h2.317v2.317H58.39v-2.317Zm2.317 0h2.317v2.317h-2.317v-2.317Zm2.317 0h2.317v2.317h-2.317v-2.317Zm2.317 0h2.318v2.317H65.34v-2.317Zm2.318 0h2.317v2.317h-2.317v-2.317Zm2.317 0h2.317v2.317h-2.317v-2.317Zm2.317 0h2.317v2.317h-2.317v-2.317Zm6.95 0h2.318v2.317h-2.317v-2.317Zm6.952 0h2.317v2.317h-2.317v-2.317Zm6.951 0h2.317v2.317h-2.317v-2.317Zm6.952 0h2.317v2.317h-2.317v-2.317Zm4.634 0h2.317v2.317h-2.317v-2.317Zm4.634 0h2.317v2.317h-2.317v-2.317Zm-83.415 2.317h2.317v2.318h-2.317v-2.318Zm6.951 0h2.317v2.318h-2.317v-2.318Zm2.317 0h2.318v2.318h-2.318v-2.318Zm4.635 0h2.317v2.318h-2.317v-2.318Zm9.268 0h2.317v2.318h-2.317v-2.318Zm2.317 0h2.317v2.318H51.44v-2.318Zm6.951 0h2.317v2.318H58.39v-2.318Zm2.317 0h2.317v2.318h-2.317v-2.318Zm4.634 0h2.318v2.318H65.34v-2.318Zm2.318 0h2.317v2.318h-2.317v-2.318Zm4.634 0h2.317v2.318h-2.317v-2.318Zm2.317 0h2.317v2.318H74.61v-2.318Zm2.317 0h2.317v2.318h-2.317v-2.318Zm13.902 0h2.317v2.318H90.83v-2.318Zm4.634 0h2.318v2.318h-2.318v-2.318Zm2.318 0h2.317v2.318h-2.317v-2.318Zm9.268 0h2.317v2.318h-2.317v-2.318Zm4.634 0H114v2.318h-2.317v-2.318ZM19 109.659h2.317v2.317H19v-2.317Zm9.268 0h2.317v2.317h-2.317v-2.317Zm2.317 0h2.317v2.317h-2.317v-2.317Zm9.269 0h2.317v2.317h-2.317v-2.317Zm4.634 0h2.317v2.317h-2.317v-2.317Zm6.951 0h2.317v2.317H51.44v-2.317Zm2.317 0h2.317v2.317h-2.317v-2.317Zm2.317 0h2.317v2.317h-2.317v-2.317Zm2.317 0h2.317v2.317H58.39v-2.317Zm2.317 0h2.317v2.317h-2.317v-2.317Zm4.634 0h2.318v2.317H65.34v-2.317Zm9.269 0h2.317v2.317H74.61v-2.317Zm4.634 0h2.317v2.317h-2.317v-2.317Zm4.634 0h2.317v2.317h-2.317v-2.317Zm2.317 0h2.317v2.317h-2.317v-2.317Zm2.317 0h2.317v2.317h-2.317v-2.317Zm4.634 0h2.317v2.317h-2.317v-2.317Zm2.317 0h2.318v2.317h-2.318v-2.317Zm2.318 0h2.317v2.317h-2.317v-2.317Zm11.585 0h2.317v2.317h-2.317v-2.317Zm2.317 0H114v2.317h-2.317v-2.317Zm-90.366 2.317h2.317v2.317h-2.317v-2.317Zm4.634 0h2.317v2.317h-2.317v-2.317Zm6.951 0h2.317v2.317h-2.317v-2.317Zm6.952 0h2.317v2.317h-2.317v-2.317Zm6.95 0h2.318v2.317h-2.317v-2.317Zm2.318 0h2.317v2.317h-2.317v-2.317Zm2.317 0h2.317v2.317H51.44v-2.317Zm2.317 0h2.317v2.317h-2.317v-2.317Zm2.317 0h2.317v2.317h-2.317v-2.317Zm2.317 0h2.317v2.317H58.39v-2.317Zm4.634 0h2.317v2.317h-2.317v-2.317Zm4.635 0h2.317v2.317h-2.317v-2.317Zm2.317 0h2.317v2.317h-2.317v-2.317Zm4.634 0h2.317v2.317H74.61v-2.317Zm4.634 0h2.317v2.317h-2.317v-2.317Zm6.951 0h2.317v2.317h-2.317v-2.317Zm4.634 0h2.317v2.317H90.83v-2.317Zm2.317 0h2.317v2.317h-2.317v-2.317Zm6.952 0h2.317v2.317h-2.317v-2.317Zm6.951 0h2.317v2.317h-2.317v-2.317Zm2.317 0h2.317v2.317h-2.317v-2.317Zm-85.732 2.317h2.317v2.317h-2.317v-2.317Zm11.585 0h2.318v2.317h-2.318v-2.317Zm13.903 0h2.317v2.317h-2.317v-2.317Zm6.951 0h2.317v2.317h-2.317v-2.317Zm6.951 0h2.317v2.317h-2.317v-2.317Zm2.317 0h2.318v2.317H65.34v-2.317Zm2.318 0h2.317v2.317h-2.317v-2.317Zm4.634 0h2.317v2.317h-2.317v-2.317Zm4.634 0h2.317v2.317h-2.317v-2.317Zm2.317 0h2.317v2.317h-2.317v-2.317Zm9.268 0h2.317v2.317h-2.317v-2.317Zm4.634 0h2.317v2.317h-2.317v-2.317Zm4.635 0h2.317v2.317h-2.317v-2.317Zm2.317 0h2.317v2.317h-2.317v-2.317Zm2.317 0h2.317v2.317h-2.317v-2.317Zm4.634 0h2.317v2.317h-2.317v-2.317Zm-85.732 2.317h2.317v2.317h-2.317v-2.317Zm4.634 0h2.317v2.317h-2.317v-2.317Zm2.317 0h2.317v2.317h-2.317v-2.317Zm2.317 0h2.317v2.317h-2.317v-2.317Zm2.317 0h2.317v2.317h-2.317v-2.317Zm11.586 0h2.317v2.317h-2.317v-2.317Zm2.317 0h2.317v2.317h-2.317v-2.317Zm4.634 0h2.317v2.317H51.44v-2.317Zm2.317 0h2.317v2.317h-2.317v-2.317Zm4.634 0h2.317v2.317H58.39v-2.317Zm6.951 0h2.318v2.317H65.34v-2.317Zm2.318 0h2.317v2.317h-2.317v-2.317Zm6.95 0h2.318v2.317H74.61v-2.317Zm2.318 0h2.317v2.317h-2.317v-2.317Zm6.951 0h2.317v2.317h-2.317v-2.317Zm2.317 0h2.317v2.317h-2.317v-2.317Zm6.951 0h2.317v2.317h-2.317v-2.317Zm2.317 0h2.318v2.317h-2.318v-2.317Zm2.318 0h2.317v2.317h-2.317v-2.317Zm2.317 0h2.317v2.317h-2.317v-2.317Zm9.268 0h2.317v2.317h-2.317v-2.317Zm2.317 0H114v2.317h-2.317v-2.317ZM19 118.927h2.317v2.317H19v-2.317Zm2.317 0h2.317v2.317h-2.317v-2.317Zm2.317 0h2.317v2.317h-2.317v-2.317Zm4.634 0h2.317v2.317h-2.317v-2.317Zm6.951 0h2.318v2.317h-2.318v-2.317Zm6.952 0h2.317v2.317H42.17v-2.317Zm2.317 0h2.317v2.317h-2.317v-2.317Zm2.317 0h2.317v2.317h-2.317v-2.317Zm4.634 0h2.317v2.317H51.44v-2.317Zm4.634 0h2.317v2.317h-2.317v-2.317Zm6.951 0h2.317v2.317h-2.317v-2.317Zm2.317 0h2.318v2.317H65.34v-2.317Zm2.318 0h2.317v2.317h-2.317v-2.317Zm2.317 0h2.317v2.317h-2.317v-2.317Zm4.634 0h2.317v2.317H74.61v-2.317Zm2.317 0h2.317v2.317h-2.317v-2.317Zm9.268 0h2.317v2.317h-2.317v-2.317Zm2.317 0h2.317v2.317h-2.317v-2.317Zm2.317 0h2.317v2.317H90.83v-2.317Zm13.903 0h2.317v2.317h-2.317v-2.317ZM19 121.244h2.317v2.317H19v-2.317Zm2.317 0h2.317v2.317h-2.317v-2.317Zm2.317 0h2.317v2.317h-2.317v-2.317Zm6.951 0h2.317v2.317h-2.317v-2.317Zm2.317 0h2.317v2.317h-2.317v-2.317Zm2.317 0h2.318v2.317h-2.318v-2.317Zm9.269 0h2.317v2.317h-2.317v-2.317Zm4.634 0h2.317v2.317h-2.317v-2.317Zm2.317 0h2.317v2.317H51.44v-2.317Zm20.854 0h2.317v2.317h-2.317v-2.317Zm2.317 0h2.317v2.317H74.61v-2.317Zm4.634 0h2.317v2.317h-2.317v-2.317Zm4.634 0h2.317v2.317h-2.317v-2.317Zm4.634 0h2.317v2.317h-2.317v-2.317Zm4.634 0h2.317v2.317h-2.317v-2.317Zm2.317 0h2.318v2.317h-2.318v-2.317Zm4.635 0h2.317v2.317h-2.317v-2.317Zm2.317 0h2.317v2.317h-2.317v-2.317Zm6.951 0h2.317v2.317h-2.317v-2.317Zm2.317 0H114v2.317h-2.317v-2.317Zm-90.366 2.317h2.317v2.317h-2.317v-2.317Zm6.951 0h2.317v2.317h-2.317v-2.317Zm9.269 0h2.317v2.317h-2.317v-2.317Zm11.585 0h2.317v2.317h-2.317v-2.317Zm2.317 0h2.317v2.317H51.44v-2.317Zm6.951 0h2.317v2.317H58.39v-2.317Zm2.317 0h2.317v2.317h-2.317v-2.317Zm6.952 0h2.317v2.317h-2.317v-2.317Zm2.317 0h2.317v2.317h-2.317v-2.317Zm2.317 0h2.317v2.317h-2.317v-2.317Zm2.317 0h2.317v2.317H74.61v-2.317Zm2.317 0h2.317v2.317h-2.317v-2.317Zm2.317 0h2.317v2.317h-2.317v-2.317Zm4.634 0h2.317v2.317h-2.317v-2.317Zm2.317 0h2.317v2.317h-2.317v-2.317Zm2.317 0h2.317v2.317h-2.317v-2.317Zm4.634 0h2.317v2.317h-2.317v-2.317ZM19 125.878h2.317v2.317H19v-2.317Zm4.634 0h2.317v2.317h-2.317v-2.317Zm6.951 0h2.317v2.317h-2.317v-2.317Zm2.317 0h2.317v2.317h-2.317v-2.317Zm2.317 0h2.318v2.317h-2.318v-2.317Zm4.635 0h2.317v2.317h-2.317v-2.317Zm4.634 0h2.317v2.317h-2.317v-2.317Zm4.634 0h2.317v2.317h-2.317v-2.317Zm4.634 0h2.317v2.317h-2.317v-2.317Zm2.317 0h2.317v2.317h-2.317v-2.317Zm2.317 0h2.317v2.317H58.39v-2.317Zm2.317 0h2.317v2.317h-2.317v-2.317Zm2.317 0h2.317v2.317h-2.317v-2.317Zm2.317 0h2.318v2.317H65.34v-2.317Zm2.318 0h2.317v2.317h-2.317v-2.317Zm4.634 0h2.317v2.317h-2.317v-2.317Zm9.268 0h2.317v2.317h-2.317v-2.317Zm4.634 0h2.317v2.317h-2.317v-2.317Zm6.951 0h2.317v2.317h-2.317v-2.317Zm2.317 0h2.318v2.317h-2.318v-2.317Zm4.635 0h2.317v2.317h-2.317v-2.317Zm11.585 0H114v2.317h-2.317v-2.317Zm-88.049 2.317h2.317v2.317h-2.317v-2.317Zm2.317 0h2.317v2.317h-2.317v-2.317Zm9.268 0h2.318v2.317h-2.318v-2.317Zm13.903 0h2.317v2.317h-2.317v-2.317Zm6.951 0h2.317v2.317h-2.317v-2.317Zm4.634 0h2.317v2.317h-2.317v-2.317Zm2.317 0h2.317v2.317h-2.317v-2.317Zm4.635 0h2.317v2.317h-2.317v-2.317Zm4.634 0h2.317v2.317h-2.317v-2.317Zm4.634 0h2.317v2.317h-2.317v-2.317Zm2.317 0h2.317v2.317h-2.317v-2.317Zm4.634 0h2.317v2.317h-2.317v-2.317Zm13.903 0h2.317v2.317h-2.317v-2.317Zm2.317 0h2.317v2.317h-2.317v-2.317Zm6.951 0h2.317v2.317h-2.317v-2.317Zm4.634 0H114v2.317h-2.317v-2.317ZM19 130.512h2.317v2.317H19v-2.317Zm4.634 0h2.317v2.317h-2.317v-2.317Zm4.634 0h2.317v2.317h-2.317v-2.317Zm2.317 0h2.317v2.317h-2.317v-2.317Zm2.317 0h2.317v2.317h-2.317v-2.317Zm2.317 0h2.318v2.317h-2.318v-2.317Zm2.318 0h2.317v2.317h-2.317v-2.317Zm2.317 0h2.317v2.317h-2.317v-2.317Zm4.634 0h2.317v2.317h-2.317v-2.317Zm2.317 0h2.317v2.317h-2.317v-2.317Zm2.317 0h2.317v2.317h-2.317v-2.317Zm9.268 0h2.317v2.317H58.39v-2.317Zm4.634 0h2.317v2.317h-2.317v-2.317Zm2.317 0h2.318v2.317H65.34v-2.317Zm4.635 0h2.317v2.317h-2.317v-2.317Zm4.634 0h2.317v2.317H74.61v-2.317Zm2.317 0h2.317v2.317h-2.317v-2.317Zm6.951 0h2.317v2.317h-2.317v-2.317Zm2.317 0h2.317v2.317h-2.317v-2.317Zm2.317 0h2.317v2.317h-2.317v-2.317Zm11.586 0h2.317v2.317h-2.317v-2.317Zm9.268 0h2.317v2.317h-2.317v-2.317Zm2.317 0H114v2.317h-2.317v-2.317Zm-88.049 2.317h2.317v2.317h-2.317v-2.317Zm6.951 0h2.317v2.317h-2.317v-2.317Zm11.586 0h2.317v2.317H42.17v-2.317Zm4.634 0h2.317v2.317h-2.317v-2.317Zm4.634 0h2.317v2.317H51.44v-2.317Zm4.634 0h2.317v2.317h-2.317v-2.317Zm2.317 0h2.317v2.317H58.39v-2.317Zm4.634 0h2.317v2.317h-2.317v-2.317Zm2.317 0h2.318v2.317H65.34v-2.317Zm2.318 0h2.317v2.317h-2.317v-2.317Zm18.536 0h2.317v2.317h-2.317v-2.317Zm4.634 0h2.317v2.317H90.83v-2.317Zm2.317 0h2.317v2.317h-2.317v-2.317Zm2.317 0h2.318v2.317h-2.318v-2.317Zm6.952 0h2.317v2.317h-2.317v-2.317Zm2.317 0h2.317v2.317h-2.317v-2.317ZM19 135.146h2.317v2.317H19v-2.317Zm6.951 0h2.317v2.317h-2.317v-2.317Zm6.951 0h2.317v2.317h-2.317v-2.317Zm4.635 0h2.317v2.317h-2.317v-2.317Zm2.317 0h2.317v2.317h-2.317v-2.317Zm4.634 0h2.317v2.317h-2.317v-2.317Zm2.317 0h2.317v2.317h-2.317v-2.317Zm4.634 0h2.317v2.317H51.44v-2.317Zm11.585 0h2.317v2.317h-2.317v-2.317Zm4.635 0h2.317v2.317h-2.317v-2.317Zm4.634 0h2.317v2.317h-2.317v-2.317Zm2.317 0h2.317v2.317H74.61v-2.317Zm2.317 0h2.317v2.317h-2.317v-2.317Zm2.317 0h2.317v2.317h-2.317v-2.317Zm2.317 0h2.317v2.317h-2.317v-2.317Zm2.317 0h2.317v2.317h-2.317v-2.317Zm9.268 0h2.317v2.317h-2.317v-2.317Zm2.317 0h2.318v2.317h-2.318v-2.317Zm2.318 0h2.317v2.317h-2.317v-2.317Zm2.317 0h2.317v2.317h-2.317v-2.317Zm2.317 0h2.317v2.317h-2.317v-2.317Zm4.634 0h2.317v2.317h-2.317v-2.317Zm2.317 0h2.317v2.317h-2.317v-2.317Zm-71.83 2.317h2.318v2.317h-2.317v-2.317Zm2.318 0h2.317v2.317h-2.317v-2.317Zm2.317 0h2.317v2.317H42.17v-2.317Zm4.634 0h2.317v2.317h-2.317v-2.317Zm2.317 0h2.317v2.317h-2.317v-2.317Zm2.317 0h2.317v2.317H51.44v-2.317Zm4.634 0h2.317v2.317h-2.317v-2.317Zm9.268 0h2.318v2.317H65.34v-2.317Zm2.318 0h2.317v2.317h-2.317v-2.317Zm6.95 0h2.318v2.317H74.61v-2.317Zm2.318 0h2.317v2.317h-2.317v-2.317Zm6.951 0h2.317v2.317h-2.317v-2.317Zm2.317 0h2.317v2.317h-2.317v-2.317Zm6.951 0h2.317v2.317h-2.317v-2.317Zm9.269 0h2.317v2.317h-2.317v-2.317Zm4.634 0h2.317v2.317h-2.317v-2.317Zm4.634 0H114v2.317h-2.317v-2.317ZM19 139.78h2.317v2.318H19v-2.318Zm2.317 0h2.317v2.318h-2.317v-2.318Zm2.317 0h2.317v2.318h-2.317v-2.318Zm2.317 0h2.317v2.318h-2.317v-2.318Zm2.317 0h2.317v2.318h-2.317v-2.318Zm2.317 0h2.317v2.318h-2.317v-2.318Zm2.317 0h2.317v2.318h-2.317v-2.318Zm6.952 0h2.317v2.318h-2.317v-2.318Zm2.317 0h2.317v2.318H42.17v-2.318Zm2.317 0h2.317v2.318h-2.317v-2.318Zm4.634 0h2.317v2.318h-2.317v-2.318Zm2.317 0h2.317v2.318H51.44v-2.318Zm2.317 0h2.317v2.318h-2.317v-2.318Zm4.634 0h2.317v2.318H58.39v-2.318Zm4.634 0h2.317v2.318h-2.317v-2.318Zm6.952 0h2.317v2.318h-2.317v-2.318Zm6.95 0h2.318v2.318h-2.317v-2.318Zm2.318 0h2.317v2.318h-2.317v-2.318Zm4.634 0h2.317v2.318h-2.317v-2.318Zm2.317 0h2.317v2.318h-2.317v-2.318Zm2.317 0h2.317v2.318h-2.317v-2.318Zm4.634 0h2.317v2.318h-2.317v-2.318Zm4.635 0h2.317v2.318h-2.317v-2.318Zm4.634 0h2.317v2.318h-2.317v-2.318Zm6.951 0h2.317v2.318h-2.317v-2.318ZM19 142.098h2.317v2.317H19v-2.317Zm13.902 0h2.317v2.317h-2.317v-2.317Zm4.635 0h2.317v2.317h-2.317v-2.317Zm4.634 0h2.317v2.317H42.17v-2.317Zm2.317 0h2.317v2.317h-2.317v-2.317Zm2.317 0h2.317v2.317h-2.317v-2.317Zm6.951 0h2.317v2.317h-2.317v-2.317Zm2.317 0h2.317v2.317h-2.317v-2.317Zm2.317 0h2.317v2.317H58.39v-2.317Zm4.634 0h2.317v2.317h-2.317v-2.317Zm2.317 0h2.318v2.317H65.34v-2.317Zm2.318 0h2.317v2.317h-2.317v-2.317Zm2.317 0h2.317v2.317h-2.317v-2.317Zm2.317 0h2.317v2.317h-2.317v-2.317Zm4.634 0h2.317v2.317h-2.317v-2.317Zm4.634 0h2.317v2.317h-2.317v-2.317Zm2.317 0h2.317v2.317h-2.317v-2.317Zm4.634 0h2.317v2.317h-2.317v-2.317Zm2.317 0h2.317v2.317H90.83v-2.317Zm2.317 0h2.317v2.317h-2.317v-2.317Zm9.269 0h2.317v2.317h-2.317v-2.317Zm4.634 0h2.317v2.317h-2.317v-2.317ZM19 144.415h2.317v2.317H19v-2.317Zm4.634 0h2.317v2.317h-2.317v-2.317Zm2.317 0h2.317v2.317h-2.317v-2.317Zm2.317 0h2.317v2.317h-2.317v-2.317Zm4.634 0h2.317v2.317h-2.317v-2.317Zm6.952 0h2.317v2.317h-2.317v-2.317Zm2.317 0h2.317v2.317H42.17v-2.317Zm4.634 0h2.317v2.317h-2.317v-2.317Zm16.22 0h2.316v2.317h-2.317v-2.317Zm2.316 0h2.318v2.317H65.34v-2.317Zm4.635 0h2.317v2.317h-2.317v-2.317Zm4.634 0h2.317v2.317H74.61v-2.317Zm2.317 0h2.317v2.317h-2.317v-2.317Zm2.317 0h2.317v2.317h-2.317v-2.317Zm6.951 0h2.317v2.317h-2.317v-2.317Zm6.951 0h2.317v2.317h-2.317v-2.317Zm2.317 0h2.318v2.317h-2.318v-2.317Zm2.318 0h2.317v2.317h-2.317v-2.317Zm2.317 0h2.317v2.317h-2.317v-2.317Zm2.317 0h2.317v2.317h-2.317v-2.317ZM19 146.732h2.317v2.317H19v-2.317Zm4.634 0h2.317v2.317h-2.317v-2.317Zm2.317 0h2.317v2.317h-2.317v-2.317Zm2.317 0h2.317v2.317h-2.317v-2.317Zm4.634 0h2.317v2.317h-2.317v-2.317Zm4.635 0h2.317v2.317h-2.317v-2.317Zm2.317 0h2.317v2.317h-2.317v-2.317Zm2.317 0h2.317v2.317H42.17v-2.317Zm4.634 0h2.317v2.317h-2.317v-2.317Zm2.317 0h2.317v2.317h-2.317v-2.317Zm2.317 0h2.317v2.317H51.44v-2.317Zm2.317 0h2.317v2.317h-2.317v-2.317Zm9.268 0h2.317v2.317h-2.317v-2.317Zm2.317 0h2.318v2.317H65.34v-2.317Zm4.635 0h2.317v2.317h-2.317v-2.317Zm4.634 0h2.317v2.317H74.61v-2.317Zm2.317 0h2.317v2.317h-2.317v-2.317Zm2.317 0h2.317v2.317h-2.317v-2.317Zm6.951 0h2.317v2.317h-2.317v-2.317Zm9.268 0h2.318v2.317h-2.318v-2.317Zm2.318 0h2.317v2.317h-2.317v-2.317Zm4.634 0h2.317v2.317h-2.317v-2.317Zm2.317 0h2.317v2.317h-2.317v-2.317Zm4.634 0h2.317v2.317h-2.317v-2.317ZM19 149.049h2.317v2.317H19v-2.317Zm4.634 0h2.317v2.317h-2.317v-2.317Zm2.317 0h2.317v2.317h-2.317v-2.317Zm2.317 0h2.317v2.317h-2.317v-2.317Zm4.634 0h2.317v2.317h-2.317v-2.317Zm25.488 0h2.317v2.317H58.39v-2.317Zm2.317 0h2.317v2.317h-2.317v-2.317Zm4.634 0h2.318v2.317H65.34v-2.317Zm2.318 0h2.317v2.317h-2.317v-2.317Zm4.634 0h2.317v2.317h-2.317v-2.317Zm18.536 0h2.317v2.317H90.83v-2.317Zm11.586 0h2.317v2.317h-2.317v-2.317Zm4.634 0h2.317v2.317h-2.317v-2.317Zm2.317 0h2.317v2.317h-2.317v-2.317Zm2.317 0H114v2.317h-2.317v-2.317ZM19 151.366h2.317v2.317H19v-2.317Zm13.902 0h2.317v2.317h-2.317v-2.317Zm6.952 0h2.317v2.317h-2.317v-2.317Zm2.317 0h2.317v2.317H42.17v-2.317Zm2.317 0h2.317v2.317h-2.317v-2.317Zm4.634 0h2.317v2.317h-2.317v-2.317Zm4.634 0h2.317v2.317h-2.317v-2.317Zm2.317 0h2.317v2.317h-2.317v-2.317Zm9.268 0h2.318v2.317H65.34v-2.317Zm2.318 0h2.317v2.317h-2.317v-2.317Zm2.317 0h2.317v2.317h-2.317v-2.317Zm4.634 0h2.317v2.317H74.61v-2.317Zm2.317 0h2.317v2.317h-2.317v-2.317Zm2.317 0h2.317v2.317h-2.317v-2.317Zm2.317 0h2.317v2.317h-2.317v-2.317Zm2.317 0h2.317v2.317h-2.317v-2.317Zm2.317 0h2.317v2.317h-2.317v-2.317Zm2.317 0h2.317v2.317h-2.317v-2.317Zm4.634 0h2.317v2.317h-2.317v-2.317Zm2.317 0h2.318v2.317h-2.318v-2.317Zm4.635 0h2.317v2.317h-2.317v-2.317Zm9.268 0h2.317v2.317h-2.317v-2.317ZM19 153.683h2.317V156H19v-2.317Zm2.317 0h2.317V156h-2.317v-2.317Zm2.317 0h2.317V156h-2.317v-2.317Zm2.317 0h2.317V156h-2.317v-2.317Zm2.317 0h2.317V156h-2.317v-2.317Zm2.317 0h2.317V156h-2.317v-2.317Zm2.317 0h2.317V156h-2.317v-2.317Zm4.635 0h2.317V156h-2.317v-2.317Zm2.317 0h2.317V156h-2.317v-2.317Zm4.634 0h2.317V156h-2.317v-2.317Zm4.634 0h2.317V156h-2.317v-2.317Zm4.634 0h2.317V156h-2.317v-2.317Zm2.317 0h2.317V156h-2.317v-2.317Zm11.586 0h2.317V156h-2.317v-2.317Zm2.317 0h2.317V156h-2.317v-2.317Zm2.317 0h2.317V156h-2.317v-2.317Zm2.317 0h2.317V156H74.61v-2.317Zm11.585 0h2.317V156h-2.317v-2.317Zm2.317 0h2.317V156h-2.317v-2.317Zm4.634 0h2.317V156h-2.317v-2.317Zm4.635 0h2.317V156h-2.317v-2.317Zm2.317 0h2.317V156h-2.317v-2.317Zm2.317 0h2.317V156h-2.317v-2.317Zm2.317 0h2.317V156h-2.317v-2.317Zm4.634 0h2.317V156h-2.317v-2.317Z"/></g><defs><clipPath id="a"><path fill="#fff" d="M0 0h326v192H0z"/></clipPath></defs></svg>
