<svg xmlns="http://www.w3.org/2000/svg" width="41" height="41" fill="none" viewBox="0 0 41 41"><rect width="35" height="33.093" x="3" y="4" fill="#FFA266" stroke="#141422" stroke-width=".897" rx="1.696"/><path fill="#141422" fill-rule="evenodd" d="M25.505 24.762a7.553 7.553 0 1 0-.849.848l3.945 3.945a.6.6 0 0 0 .849-.849l-3.945-3.944Z" clip-rule="evenodd"/><path fill="#fff" d="m25.505 24.762-1.52-1.299-1.2 1.406 1.306 1.307 1.414-1.414Zm-.848.848 1.414-1.414-1.307-1.306-1.405 1.198 1.298 1.522Zm3.944 3.945-1.414 1.414 1.414-1.414Zm.849 0 1.414 1.414-1.414-1.414Zm0-.849 1.414-1.414-1.414 1.414ZM25.31 19.86a5.524 5.524 0 0 1-1.327 3.603l3.042 2.597a9.524 9.524 0 0 0 2.285-6.2h-4Zm-5.553-5.553a5.553 5.553 0 0 1 5.553 5.553h4a9.553 9.553 0 0 0-9.553-9.553v4Zm-5.553 5.553a5.553 5.553 0 0 1 5.553-5.553v-4a9.553 9.553 0 0 0-9.553 9.553h4Zm5.553 5.554a5.553 5.553 0 0 1-5.553-5.554h-4a9.553 9.553 0 0 0 9.553 9.554v-4Zm3.6-1.326a5.523 5.523 0 0 1-3.6 1.326v4c2.362 0 4.53-.86 6.196-2.282l-2.595-3.044Zm6.657 4.053-3.944-3.945-2.829 2.828 3.945 3.945 2.828-2.828Zm-1.98 0a1.4 1.4 0 0 1 1.98 0l-2.828 2.828a2.6 2.6 0 0 0 3.677 0l-2.828-2.828Zm0 1.98a1.4 1.4 0 0 1 0-1.98l2.83 2.828a2.6 2.6 0 0 0 0-3.677l-2.83 2.828Zm-3.944-3.945 3.945 3.945 2.828-2.829-3.945-3.945-2.828 2.829Z"/><circle cx="19.758" cy="19.86" r="6.953" fill="#fff" stroke="#141422" stroke-width="1.2"/><path fill="#141422" d="M28.601 29.555a.6.6 0 1 0 .849-.849l-.849.849Zm.849-.849-4.763-4.763-.849.849 4.763 4.763.849-.849Z"/></svg>
