<svg xmlns="http://www.w3.org/2000/svg" width="41" height="41" fill="none" viewBox="0 0 41 41"><path fill="#FF8A50" stroke="#141422" stroke-width=".868" d="m20.524 25.154-.286-.326.286.326 4.298-3.772 3.038 6.514c.11.235.386.342.625.24l2.397-1.01a.483.483 0 0 0 .253-.644l-2.825-6.261 5.855-.005c.42 0 .639-.499.355-.808L20.562 4.179a.483.483 0 0 0-.839.326v20.286c0 .415.49.636.801.363Z"/><path fill="#FFBD4F" stroke="#141422" stroke-width=".868" d="m13.506 29.364-.286-.326.286.326 4.298-3.771 3.038 6.514c.11.235.386.341.625.24l2.398-1.011a.483.483 0 0 0 .252-.643l-2.824-6.262 5.854-.004c.42 0 .639-.5.355-.809L13.544 8.39a.483.483 0 0 0-.838.326v20.286c0 .415.489.636.8.362Z"/><path fill="#FFD5B2" stroke="#141422" stroke-width=".868" d="m7.367 33.398-.286-.325.286.325 4.298-3.77 3.037 6.513c.11.235.386.341.625.24l2.398-1.011a.483.483 0 0 0 .252-.643l-2.824-6.262 5.854-.004c.42 0 .64-.5.356-.809L7.404 12.424a.483.483 0 0 0-.838.326v20.286c0 .415.49.636.801.362Z"/></svg>
