<svg width="24" height="24" viewBox="0 0 24 24" fill="none" xmlns="http://www.w3.org/2000/svg">
  <path
    d="M12.0509 13.1711C11.8343 13.0263 11.6895 12.9544 11.4718 12.8096C10.6759 12.3033 9.9519 11.8689 9.15602 11.3627C8.64975 11.0731 8.57683 11.0731 8.36015 11.5793C8.18557 11.9429 7.96684 12.2828 7.70908 12.5919C7.49239 12.9534 7.56428 13.0982 7.92576 13.3159C9.30082 14.1118 10.6749 14.9076 11.978 15.7035C12.4124 15.9931 12.6291 15.9202 12.9187 15.5587C14.2219 13.894 15.524 12.1575 16.7543 10.4939L19.1419 7.23646C19.3586 7.01978 19.2867 6.80206 19.07 6.51247C18.3676 5.61801 17.5091 4.85911 16.5366 4.27068C12.5428 1.88101 7.38457 2.95107 4.67039 6.73121C1.70358 10.8554 2.78905 16.8609 7.13092 19.5391C10.2415 21.5509 14.2701 21.4358 17.2606 19.2495C20.2428 17.1268 21.6209 13.395 20.7347 9.84281C20.6628 9.40842 20.4451 8.97403 20.3003 8.46775C20.1709 8.5232 20.0487 8.59612 19.9388 8.68443L18.6367 10.422C18.5792 10.5072 18.5545 10.6099 18.5648 10.7116C18.5648 11.2179 18.6367 11.6523 18.6367 12.1585C18.5627 14.8347 16.7543 17.3671 14.2219 18.2349C11.4728 19.1756 8.57786 18.3797 6.84132 16.2817C4.72173 13.6558 4.90863 9.85822 7.27571 7.45314C9.73521 4.92175 13.4989 4.70404 16.3199 6.87498C16.5366 7.01978 16.6095 7.16457 16.3918 7.45417C15.8855 8.10524 15.3792 8.82923 14.8719 9.4803C13.9313 10.6377 13.0635 11.8679 12.0499 13.1701"
    fill="currentColor" />
</svg>
