<svg width="24" height="24" viewBox="0 0 24 24" fill="none" xmlns="http://www.w3.org/2000/svg">
  <path d="M5.5 3C4.11975 3 3 4.11975 3 5.5V9H4.75V5.5C4.75 5.08625 5.08625 4.75 5.5 4.75H9V3H5.5Z" fill="currentColor" />
  <path
    d="M11 10.25C11 10.664 10.664 11 10.25 11H7.75C7.336 11 7 10.664 7 10.25V7.75C7 7.336 7.336 7 7.75 7H10.25C10.664 7 11 7.336 11 7.75V10.25Z"
    fill="currentColor" />
  <path d="M17 15H15V13H17V11H15V9H17V7H15V9H13V11H15V13H13V15H11V13H9V15H7V17H9V15H11V17H13V15H15V17H17V15Z"
    fill="currentColor" />
  <path d="M3 18.5V15H4.75V18.5C4.75 18.9138 5.08625 19.25 5.5 19.25H9V21H5.5C4.11975 21 3 19.8802 3 18.5Z"
    fill="currentColor" />
  <path d="M15 3H18.5C19.8802 3 21 4.11975 21 5.5V9H19.25V5.5C19.25 5.08625 18.9138 4.75 18.5 4.75H15V3Z"
    fill="currentColor" />
  <path d="M21 18.5V15H19.25V18.5C19.25 18.9138 18.9138 19.25 18.5 19.25H15V21H18.5C19.8802 21 21 19.8802 21 18.5Z"
    fill="currentColor" />
</svg>
