<svg width="24" height="24" viewBox="0 0 24 24" fill="none" xmlns="http://www.w3.org/2000/svg">
  <path fill-rule="evenodd" clip-rule="evenodd"
    d="M0 4.75C0 3.36975 1.11975 2.25 2.5 2.25H10.5C11.8802 2.25 13 3.36975 13 4.75V9.25C13 10.6302 11.8802 11.75 10.5 11.75H2.5C1.11975 11.75 0 10.6302 0 9.25V4.75ZM2.5 4C2.08625 4 1.75 4.33625 1.75 4.75V9.25C1.75 9.66375 2.08625 10 2.5 10H10.25V4H2.5Z"
    fill="currentColor" />
  <path
    d="M20.275 7.75H14.75V6H20.275C21.6552 6 22.775 7.11975 22.775 8.5V18.25C22.775 19.0676 22.3821 19.7938 21.7749 20.25H24V22H2V20.25H5.25014C4.64291 19.7938 4.25 19.0676 4.25 18.25V13.5H6V18.25C6 18.6637 6.33625 19 6.75 19H20.275C20.6888 19 21.025 18.6637 21.025 18.25V8.5C21.025 8.08625 20.6888 7.75 20.275 7.75Z"
    fill="currentColor" />
</svg>
