<svg width="301" height="48" viewBox="0 0 301 48" fill="none" xmlns="http://www.w3.org/2000/svg">
	<g class="background1" ><rect width="301" height="48" rx="3" fill="#9059FF"/></g>
	<g id="private" class="toolbar-icon"><path d="M41.8965 20.2182C41.9565 19.0302 41.1525 17.9697 39.993 17.7072C37.119 17.0547 34.1085 17.8647 31.9515 19.8717L31.5825 20.2152C31.152 20.6157 30.585 20.8377 29.997 20.8377C29.409 20.8377 28.842 20.6142 28.4115 20.2137L28.05 19.8777C25.8915 17.8662 22.878 17.0547 20.0025 17.7087H20.001C18.843 17.9712 18.0405 19.0272 18.096 20.2122V20.2182C17.8005 21.3882 18.258 25.7082 18.516 26.3877C19.0365 29.1327 21.279 31.1967 23.9685 31.1967C25.311 31.1967 26.5275 30.6612 27.489 29.8032L28.0755 29.3022C29.157 28.3767 30.747 28.3647 31.8435 29.2722L32.721 29.9997V29.9952C33.6465 30.7407 34.7835 31.1967 36.0255 31.1967C38.7135 31.1967 40.9575 29.1327 41.478 26.3877C41.736 25.7082 42.21 21.4062 41.8965 20.2182ZM27.348 24.8277C26.7075 25.5522 25.716 26.0172 24.6 26.0172C23.484 26.0172 22.4925 25.5522 21.852 24.8292C21.516 24.4497 21.516 23.8527 21.852 23.4717C22.4925 22.7472 23.484 22.2822 24.6 22.2822C25.716 22.2822 26.7075 22.7472 27.348 23.4702C27.684 23.8512 27.684 24.4482 27.348 24.8277ZM38.148 24.8277C37.5075 25.5507 36.516 26.0157 35.4 26.0157C34.284 26.0157 33.2925 25.5507 32.652 24.8277C32.316 24.4482 32.316 23.8512 32.652 23.4702C33.2925 22.7472 34.284 22.2822 35.4 22.2822C36.516 22.2822 37.5075 22.7472 38.148 23.4702C38.484 23.8512 38.484 24.4482 38.148 24.8277Z" fill="white"/></g>
	<g id="key" class="toolbar-icon"><path d="M89.0625 22.5H77.787C77.1165 19.9185 74.787 18 72 18C68.691 18 66 20.691 66 24C66 27.309 68.691 30 72 30C75.18 30 77.7645 27.507 77.9625 24.375H85.3125V27.75C85.3125 27.9986 85.4113 28.2371 85.5871 28.4129C85.7629 28.5887 86.0014 28.6875 86.25 28.6875C86.4986 28.6875 86.7371 28.5887 86.9129 28.4129C87.0887 28.2371 87.1875 27.9986 87.1875 27.75V24.375H89.0625C89.3111 24.375 89.5496 24.2762 89.7254 24.1004C89.9012 23.9246 90 23.6861 90 23.4375C90 23.1889 89.9012 22.9504 89.7254 22.7746C89.5496 22.5988 89.3111 22.5 89.0625 22.5ZM72 28.125C69.7245 28.125 67.875 26.2755 67.875 24C67.875 21.7245 69.7245 19.875 72 19.875C74.2755 19.875 76.125 21.7245 76.125 24C76.125 26.2755 74.2755 28.125 72 28.125Z" fill="white"/></g>
	<g id="forget" class="toolbar-icon"><path d="M127 20V24L125 26" stroke="white" stroke-width="1.8" stroke-linecap="round" stroke-linejoin="round"/>
	<path d="M117 16V22H123" stroke="white" stroke-width="1.8" stroke-linecap="round" stroke-linejoin="round"/>
	<path d="M118 22C118 22 120 15 126.5 15C131.19 15 135 18.81 135 23.5C135 28.19 131.19 32 126.5 32C124.4 32 122.83 31.58 121 30" stroke="white" stroke-width="1.8" stroke-linecap="round"/></g>
	<g id="addons" class="toolbar-icon"><path fill-rule="evenodd" clip-rule="evenodd" d="M174.5 15.75C173.533 15.75 172.75 16.5332 172.75 17.5V19.875C172.75 20.3582 172.358 20.75 171.875 20.75H168.5C168.086 20.75 167.75 21.0862 167.75 21.5V23H169.25C171.183 23 172.75 24.5668 172.75 26.5C172.75 28.4332 171.183 30 169.25 30H167.75V31.5C167.75 31.9138 168.086 32.25 168.5 32.25H180.5C180.914 32.25 181.25 31.9138 181.25 31.5V21.5C181.25 21.0862 180.914 20.75 180.5 20.75H177.125C176.642 20.75 176.25 20.3582 176.25 19.875V17.5C176.25 16.5332 175.467 15.75 174.5 15.75ZM171 17.5C171 15.5668 172.567 14 174.5 14C176.433 14 178 15.5668 178 17.5V19H180.5C181.88 19 183 20.1198 183 21.5V31.5C183 32.8802 181.88 34 180.5 34H168.5C167.12 34 166 32.8802 166 31.5V29.125C166 28.6418 166.392 28.25 166.875 28.25H169.25C170.217 28.25 171 27.4668 171 26.5C171 25.5332 170.217 24.75 169.25 24.75H166.875C166.392 24.75 166 24.3582 166 23.875V21.5C166 20.1198 167.12 19 168.5 19H171V17.5Z" fill="white"/></g>
	<g id="print" class="toolbar-icon"><path d="M216 21V14H228V21" stroke="white" stroke-width="1.8" stroke-linecap="round" stroke-linejoin="round"/>
	<path d="M216 30H214C212.895 30 212 29.1046 212 28V23C212 21.8954 212.895 21 214 21H230C231.105 21 232 21.8954 232 23V28C232 29.1046 231.105 30 230 30H228" stroke="white" stroke-width="1.8" stroke-linecap="round" stroke-linejoin="round"/>
	<rect x="216" y="26" width="12" height="8" stroke="white" stroke-width="1.8" stroke-linecap="round" stroke-linejoin="round"/></g>x
	<path  fill-rule="evenodd" clip-rule="evenodd" d="M270.1 12.2746C270.276 12.4504 270.375 12.6889 270.375 12.9375V25.4205L275.337 20.4585C275.515 20.2899 275.751 20.1974 275.996 20.2005C276.241 20.2037 276.474 20.3024 276.648 20.4755C276.821 20.6486 276.919 20.8825 276.922 21.1273C276.926 21.3721 276.833 21.6085 276.665 21.786L269.949 28.5H268.928L262.211 21.786C262.042 21.6085 261.949 21.3721 261.953 21.1273C261.956 20.8825 262.054 20.6486 262.227 20.4755C262.401 20.3024 262.634 20.2037 262.879 20.2005C263.124 20.1974 263.36 20.2899 263.538 20.4585L268.5 25.422V12.9375C268.5 12.6889 268.599 12.4504 268.775 12.2746C268.95 12.0988 269.189 12 269.438 12C269.686 12 269.925 12.0988 270.1 12.2746ZM278.496 33.6213C277.934 34.1839 277.171 34.5 276.375 34.5H262.5C261.704 34.5 260.941 34.1839 260.379 33.6213C259.816 33.0587 259.5 32.2956 259.5 31.5V29.4375C259.5 29.1889 259.599 28.9504 259.775 28.7746C259.95 28.5988 260.189 28.5 260.438 28.5C260.686 28.5 260.925 28.5988 261.1 28.7746C261.276 28.9504 261.375 29.1889 261.375 29.4375V31.725L262.275 32.625H276.6L277.5 31.725V29.4375C277.5 29.1889 277.599 28.9504 277.775 28.7746C277.95 28.5988 278.189 28.5 278.438 28.5C278.686 28.5 278.925 28.5988 279.1 28.7746C279.276 28.9504 279.375 29.1889 279.375 29.4375V31.5C279.375 32.2956 279.059 33.0587 278.496 33.6213Z" fill="white"/>
</svg>
