<svg width="133" height="36" viewBox="0 0 133 36" fill="none" xmlns="http://www.w3.org/2000/svg"><path fill-rule="evenodd" clip-rule="evenodd" d="M37.14 24.5c-3.71 0-6.806-3.13-6.806-6.945 0-3.851 3.097-7.054 6.806-7.054 3.78 0 6.805 3.203 6.805 7.054 0 3.814-3.025 6.946-6.805 6.946Zm.124-16.19c-2.768 0-5.217 1.57-6.956 3.676l-.071-2.498c-.036-.892-.462-1.32-1.1-1.32-.675 0-1.136.535-1.136 1.284v24.336c0 .714.497 1.213 1.17 1.213.71 0 1.137-.535 1.137-1.249V23.12c1.739 2.07 4.188 3.497 6.956 3.497 5.04 0 9.015-4.068 9.015-9.1 0-5.03-3.975-9.206-9.015-9.206ZM95.102 16.634l6.814-6.068c.622-.542.696-1.339.22-1.845-.513-.543-1.281-.398-1.83.108l-9.26 8.59V1.374C91.045.543 90.678 0 89.91 0c-.842 0-1.245.543-1.245 1.375V25.44c0 .796.476 1.339 1.245 1.339.695 0 1.134-.543 1.134-1.339v-5.193l2.373-2.112 7.473 8.21c.476.506 1.281.687 1.794.217.585-.543.402-1.267-.037-1.773l-7.546-8.154ZM57.75 24.5c-3.708 0-6.805-3.13-6.805-6.945 0-3.851 3.097-7.054 6.806-7.054 3.78 0 6.805 3.203 6.805 7.054 0 3.814-3.025 6.946-6.805 6.946Zm.055-16.332c-5.187 0-9.193 4.257-9.193 9.388 0 5.13 4.006 9.278 9.193 9.278 4.864 0 9.085-4.148 9.085-9.278 0-5.13-4.257-9.388-9.085-9.388ZM131.979 23.313c-.364 0-.729.218-.948.399-.51.435-1.13.87-2.005.87-1.495 0-2.333-.906-2.333-2.975V10.43l4.63.073c.656 0 1.094-.4 1.094-1.016 0-.653-.438-1.053-1.094-1.053l-4.63.037V4.733c0-.726-.511-1.234-1.13-1.234-.657 0-1.204.508-1.204 1.234v3.738l-1.968-.037c-.62 0-1.058.4-1.058 1.053 0 .58.474 1.052 1.058 1.016l1.968-.073v11.25c0 3.52 2.152 5.153 4.631 5.153 1.531 0 2.698-.58 3.5-1.415.255-.29.51-.617.51-1.053 0-.617-.401-1.052-1.021-1.052ZM106.169 16.334c.519-3.827 3.256-5.833 6.336-5.833 3.284 0 5.578 2.843 5.72 5.833h-12.056Zm6.374-8.166c-5.209 0-9.098 4.257-9.098 9.388 0 5.13 3.962 9.278 9.135 9.278 2.568 0 5.063-.946 6.714-2.547.367-.363.66-.764.66-1.164 0-.582-.366-1.055-1.064-1.055-.366 0-.733.145-1.027.4-1.541 1.346-3.118 2.11-5.283 2.11-3.368 0-6.374-2.542-6.686-6.331H119c1.248 0 1.945-.655 1.945-1.71 0-4.076-3.595-8.37-8.402-8.37ZM84.473 21.05c-.325 0-.686.257-.903.55-1.011 1.354-3.178 2.964-5.598 2.964-3.612 0-6.718-2.891-6.718-7.064 0-4.465 3.106-7.137 6.718-7.137 2.637 0 4.081 1.281 5.31 2.782.216.256.541.512.938.512.542 0 1.084-.402 1.084-.951 0-.403-.253-.806-.47-1.135-1.48-2.16-3.972-3.404-6.862-3.404-5.02 0-9.137 4.173-9.137 9.333 0 5.088 4.117 9.334 9.137 9.334 3.106 0 5.779-1.83 7.188-3.734.252-.329.397-.658.397-.951 0-.66-.47-1.098-1.084-1.098ZM16.007 16.022l-4.91 4.586c-.253.286-.65.394-.94.394-.36 0-.722-.108-1.01-.394l-4.839-4.586c-.505-.537-.578-1.432 0-2.006.542-.501 1.444-.573 1.986 0l3.864 3.69 3.935-3.69c.506-.573 1.409-.501 1.914 0 .506.573.506 1.47 0 2.006Zm2.748-7.854H1.995C.907 8.168 0 9.013 0 10.115V16.4c0 5.695 4.643 10.435 10.375 10.435 5.696 0 10.303-4.74 10.303-10.435v-6.284c0-1.102-.87-1.947-1.923-1.947Z" fill="#00256D"/></svg>