<svg width="362" height="54" viewBox="0 0 362 54" fill="none" xmlns="http://www.w3.org/2000/svg"><path fill-rule="evenodd" clip-rule="evenodd" d="M266.14 33.5c-3.709 0-6.806-3.131-6.806-6.946 0-3.851 3.097-7.054 6.806-7.054 3.78 0 6.805 3.203 6.805 7.054 0 3.815-3.025 6.946-6.805 6.946Zm.124-16.19c-2.768 0-5.217 1.57-6.956 3.676l-.071-2.498c-.036-.892-.462-1.32-1.101-1.32-.674 0-1.135.535-1.135 1.284v24.336c0 .714.497 1.213 1.171 1.213.71 0 1.136-.535 1.136-1.249V32.12c1.739 2.07 4.188 3.497 6.956 3.497 5.04 0 9.015-4.068 9.015-9.1 0-5.03-3.975-9.205-9.015-9.205ZM324.102 25.634l6.814-6.068c.622-.542.696-1.338.22-1.845-.513-.543-1.281-.398-1.83.108l-9.261 8.59V10.374c0-.832-.366-1.375-1.134-1.375-.842 0-1.245.543-1.245 1.375V34.44c0 .796.476 1.339 1.245 1.339.695 0 1.134-.543 1.134-1.339v-5.193l2.373-2.112 7.473 8.21c.476.506 1.281.687 1.794.217.585-.543.402-1.267-.037-1.773l-7.546-8.154ZM286.751 33.5c-3.709 0-6.806-3.131-6.806-6.946 0-3.851 3.097-7.054 6.806-7.054 3.78 0 6.805 3.203 6.805 7.054 0 3.815-3.025 6.946-6.805 6.946Zm.054-16.332c-5.187 0-9.193 4.257-9.193 9.388 0 5.13 4.006 9.278 9.193 9.278 4.864 0 9.085-4.148 9.085-9.278 0-5.13-4.257-9.388-9.085-9.388ZM360.979 32.313c-.364 0-.729.218-.948.4-.51.435-1.13.87-2.005.87-1.495 0-2.333-.907-2.333-2.975V19.43l4.63.073c.656 0 1.094-.4 1.094-1.016 0-.654-.438-1.053-1.094-1.053l-4.63.037v-3.738c0-.726-.511-1.234-1.13-1.234-.657 0-1.203.508-1.203 1.234v3.737l-1.969-.036c-.62 0-1.058.4-1.058 1.053 0 .58.474 1.052 1.058 1.016l1.969-.073v11.25c0 3.52 2.151 5.152 4.63 5.152 1.531 0 2.698-.58 3.5-1.415.255-.29.51-.617.51-1.052 0-.617-.401-1.053-1.021-1.053ZM335.169 25.333c.519-3.827 3.256-5.833 6.336-5.833 3.284 0 5.578 2.843 5.72 5.833h-12.056Zm6.375-8.165c-5.21 0-9.099 4.257-9.099 9.388 0 5.13 3.962 9.278 9.135 9.278 2.568 0 5.063-.946 6.714-2.547.367-.364.66-.764.66-1.164 0-.582-.366-1.055-1.064-1.055-.366 0-.733.145-1.027.4-1.541 1.346-3.118 2.11-5.283 2.11-3.368 0-6.374-2.542-6.686-6.331h13.107c1.247 0 1.944-.655 1.944-1.71 0-4.076-3.595-8.37-8.401-8.37ZM313.473 30.05c-.325 0-.686.256-.903.549-1.011 1.354-3.178 2.964-5.598 2.964-3.612 0-6.718-2.891-6.718-7.064 0-4.465 3.106-7.137 6.718-7.137 2.637 0 4.081 1.281 5.309 2.782.217.256.542.512.939.512.542 0 1.084-.402 1.084-.951 0-.403-.253-.806-.47-1.135-1.48-2.16-3.972-3.404-6.862-3.404-5.02 0-9.138 4.173-9.138 9.333 0 5.088 4.118 9.334 9.138 9.334 3.106 0 5.779-1.83 7.187-3.734.253-.329.398-.658.398-.951 0-.66-.47-1.098-1.084-1.098ZM245.007 25.022l-4.911 4.586c-.252.286-.65.394-.938.394-.362 0-.723-.108-1.011-.394l-4.839-4.586c-.505-.537-.578-1.432 0-2.006.542-.501 1.444-.573 1.986 0l3.864 3.69 3.935-3.69c.506-.573 1.409-.501 1.914 0 .506.574.506 1.47 0 2.006Zm2.748-7.854h-16.76c-1.088 0-1.995.845-1.995 1.947V25.4c0 5.695 4.643 10.435 10.375 10.435 5.696 0 10.303-4.74 10.303-10.435v-6.284a1.925 1.925 0 0 0-1.923-1.947Z" fill="#00256D"/><path stroke="#00256D" stroke-width="2" stroke-linecap="round" d="M212 7v40"/><path d="M1.145 19.547h5.89V36H9.88V19.547h5.9V17.09H1.145v2.456Zm20.72-2.456h-2.852V36h2.853V17.09Zm11.505 0v13.406c-.009 2.18-1.025 3.343-2.834 3.343-1.672 0-2.835-.998-2.844-2.567h-2.835c0 3.194 2.401 4.985 5.605 4.985 3.471 0 5.743-2.123 5.752-5.76V17.09H33.37ZM40.367 36h11.965v-2.456H43.22v-5.789h8.384v-2.447h-8.384v-5.761h9.003V17.09H40.367V36Zm30.928-18.91h-2.826v13.887h-.175l-9.62-13.886h-2.642V36h2.854V22.132h.175L68.672 36h2.623V17.09Zm27.468 9.456c0-6.048-3.62-9.714-8.513-9.714-4.912 0-8.522 3.666-8.522 9.713 0 6.039 3.61 9.713 8.522 9.713 4.893 0 8.513-3.665 8.513-9.713Zm-2.826 0c0 4.607-2.437 7.109-5.687 7.109-3.26 0-5.688-2.502-5.688-7.11 0-4.607 2.429-7.109 5.688-7.109 3.25 0 5.687 2.502 5.687 7.11Zm21.645-9.455h-2.826v13.886h-.175l-9.621-13.886h-2.64V36h2.853V22.132h.175L114.96 36h2.622V17.09ZM123.341 36l1.736-5.004h7.386L134.189 36h3.029l-6.805-18.91h-3.296L120.312 36h3.029Zm2.566-7.405 2.789-8.07h.148l2.788 8.07h-5.725ZM139.949 36h2.852v-7.155h4.063L150.705 36h3.25l-4.192-7.654c2.318-.859 3.472-2.788 3.472-5.328 0-3.48-2.161-5.927-6.546-5.927h-6.74V36Zm2.852-9.611v-6.851h3.583c2.816 0 3.979 1.338 3.979 3.48 0 2.133-1.163 3.37-3.942 3.37h-3.62ZM158.304 36l1.735-5.004h7.387L169.152 36h3.029l-6.805-18.91h-3.296L155.275 36h3.029Zm2.566-7.405 2.789-8.07h.147l2.789 8.07h-5.725Zm29.303-11.504h-2.825v13.886h-.175l-9.621-13.886h-2.641V36h2.853V22.132h.176L187.551 36h2.622V17.09Z" fill="#00256D"/></svg>