<svg id="Layer_1" xmlns="http://www.w3.org/2000/svg" viewBox="0 0 260.6 161.4">
  <style>
    .st0{opacity:.06;} .st1{opacity:.06;fill-rule:evenodd;clip-rule:evenodd;}
  </style>
  <path class="st0" d="M89.7 47.9c-1.2 2.2-3.5 3.5-6 3.5H50.2c-2.5 0-4.8-1.3-6.1-3.5-1.3-2.2-1.2-4.8.1-7L61 12.6c1.2-2.1 3.5-3.4 6-3.4s4.7 1.3 6 3.4L89.7 41c1.4 2.1 1.4 4.7 0 6.9zm-4.1-4L68.9 15.6c-.4-.8-1.2-1.2-2.1-1.2-.1 0-1.3 0-2.1 1.2L47.9 43.8c-.4.7-.5 1.5 0 2.4l.2.2c.3.4.8 1 2 1h33.5c1.2 0 1.7-.7 2.1-1.2l.1-.1V46c.1-.4.4-1.2-.2-2.1zM152.1 152.5l4.6-4.6c.9-.9.9-2.5 0-3.4-.9-.9-2.5-.9-3.4 0l-4.6 4.6-4.6-4.6c-.9-.9-2.5-.9-3.4 0-.9.9-.9 2.5 0 3.4l4.6 4.6-4.6 4.6c-.9.9-.9 2.5 0 3.4.9.9 2.5.9 3.4 0l4.6-4.6 4.6 4.6c.9.9 2.5.9 3.4 0s.9-2.5 0-3.4l-4.6-4.6zM65.6 89.6H59v-7c0-1.3-1-2-2.3-2h-.2c-1.3 0-2.5.7-2.5 2v7h-6.5c-1.3 0-2.5.7-2.5 2v.2c0 1.3 1.2 2.8 2.5 2.8H54v6.2c0 1.3 1.2 2.8 2.5 2.8h.2c1.3 0 2.3-1.5 2.3-2.8v-6.2h6.7c1.3 0 2.3-1.5 2.3-2.8v-.2c0-1.3-1-2-2.4-2z"/>
  <path class="st0" d="M67.3 36.9h-.2c-1.3 0-2.4-1.1-2.4-2.4V24c0-1.3 1.1-2.4 2.4-2.4h.2c1.3 0 2.4 1.1 2.4 2.4v10.5c0 1.3-1.1 2.4-2.4 2.4z"/>
  <circle class="st0" cx="67.2" cy="40.9" r="2.5"/>
  <path class="st1" d="M169.4 44c-11.8 0-22.9-5.9-30.7-16.2 7.9-10.3 19-16.2 30.7-16.2s22.9 5.9 30.7 16.2C192.3 38.2 181.2 44 169.4 44zm35.4-17.5C196 14.2 183.1 7.1 169.4 7.1s-26.6 7.1-35.4 19.4l-.9 1.3.9 1.3c8.8 12.3 21.7 19.4 35.4 19.4s26.6-7.1 35.4-19.4l.9-1.3-.9-1.3zm-27.5-2.6c-1.2.3-2 1.5-1.8 2.7.1.4.1.8.1 1.3 0 3.5-2.8 6.3-6.3 6.3s-6.3-2.8-6.3-6.3 2.8-6.3 6.3-6.3c1.3 0 2.6.4 3.6 1.2 1 .7 2.4.5 3.2-.5.7-1 .5-2.4-.5-3.2-1.8-1.3-4-2-6.3-2-5.9 0-10.8 4.8-10.8 10.8 0 6 4.8 10.8 10.8 10.8s10.8-4.8 10.8-10.8c0-.7-.1-1.5-.2-2.2-.2-1.3-1.4-2.1-2.6-1.8zM189.1 120.1h12v10h-12v-10zm-2.2-4c-1 .1-1.8 1-1.8 2v14c0 1.1.9 2 2 2h16c1.1 0 2-.9 2-2v-14c0-1.1-.9-2-2-2h-16.2zm28.1-15.9h12v29.9h-12v-29.9zm-2-4c-1.1 0-2 .9-2 2v33.9c0 1.1.9 2 2 2h16c1 0 1.9-.8 2-1.8V98.2c0-1.1-.9-2-2-2h-16zm2-20h12v10h-12v-10zm-25.9 0h12v29.9h-12V76.2zm39.9-4h-16c-1.1 0-2 .9-2 2v14c0 1.1.9 2 2 2h16c1.1 0 2-.9 2-2v-14c0-1.1-.9-2-2-2zm-25.9 0h-16c-1 0-1.9.8-2 1.8v34.1c0 1.1.9 2 2 2h16c1.1 0 2-.9 2-2V74.2c0-1.1-.9-2-2-2z"/>
  <path class="st0" d="M93.8 134.2l-4-6.9c-.1-.1-.1-.2-.2-.3-.3-1.5-2-2.8-3.7-2-18.1 8.7-38.6 9.6-56.6 0-1.7-.9-3.4.3-3.7 1.8-.1.1-.2.3-.3.4l-4 6.9c-.7 1.1-.3 2.6.9 3.3 1.1.7 2.6.3 3.3-.9l3.5-6c3.2 1.5 6.4 2.8 9.6 3.8l-2.2 7.1c-.4 1.3.3 2.6 1.6 3s2.6-.3 3-1.6l2.1-7.3c3.9.8 7.7 1.3 11.7 1.4v7.7c0 1.3 1.2 2.9 2.5 2.9h.2c1.3 0 2.3-1.6 2.3-2.9v-7.8c4-.2 7.9-.7 11.8-1.6l2.3 7.6c.4 1.3 1.7 2 3 1.6 1.3-.4 2-1.7 1.6-3l-2.2-7.4c3.3-1 6.5-2.1 9.7-3.6l3.5 6.1c.7 1.1 2.1 1.5 3.3.9 1.3-.6 1.7-2.1 1-3.2zM127 77.2h8V87l-3-2.1c-.6-.4-1.4-.4-2 0l-3 2.1v-9.8zm-17.2-1c1 .6 2.2.9 3.4.9h10.3v13.2c0 1.4 1.6 2.2 2.7 1.4l4.7-3.3 4.7 3.3c1.1.8 2.7 0 2.7-1.4V77.2h5.7v34.3h-32c-1.3 0-2.3-1-2.3-2.3v-33zm3.5-9.3H140c-.6 1-.9 2.2-.9 3.4s.3 2.4.9 3.4h-26.7c-1.6 0-3.4-1.8-3.4-3.4-.1-1.6 1.7-3.4 3.4-3.4zm0-3.4c-3.7 0-6.9 3.1-6.9 6.9v38.9c0 3.1 2.6 5.7 5.7 5.7h33.7c.9 0 1.7-.8 1.7-1.7V75.5c0-1-.7-1.7-1.7-1.7-1.6 0-3.4-1.8-3.4-3.4 0-1.6 1.8-3.4 3.4-3.4.9 0 1.7-.8 1.7-1.7 0-.9-.8-1.7-1.7-1.7h-32.5zM260.3 13.7c0-.2 0-.4-.1-.6-.6-7.1-6-13-13.5-13-7.3 0-13.5 6.2-13.5 13.5s6.2 13.5 13.5 13.5c7.4 0 12.9-5.9 13.5-13 .1 0 .1-.2.1-.4zm-23 0c0-12.2 18.3-12.1 18.9 0-.5 12.1-18.9 12.2-18.9 0zM12.4 65.7l4.6-4.6c.9-.9.9-2.5 0-3.4-.9-.9-2.5-.9-3.4 0L9 62.3l-4.6-4.6c-.9-.9-2.5-.9-3.4 0s-.9 2.5 0 3.4l4.6 4.6L1 70.4c-.9.9-.9 2.5 0 3.4.9.9 2.5.9 3.4 0L9 69.1l4.6 4.6c.9.9 2.5.9 3.4 0 .9-.9.9-2.5 0-3.4l-4.6-4.6z"/>
</svg>
