<svg id="Layer_1" xmlns="http://www.w3.org/2000/svg" viewBox="0 0 372 372">
  <style>
    .st0{fill:#FFFFFF;} .st1{fill:#A964EA;} .st2{fill:#ACFE00;} .st3{enable-background:new ;}
  </style>
  <path id="Rectangle-2-Copy" d="M.5 201.7h255.7v61.4H.5z"/>
  <path class="st0" d="M360.1 366.9H27.5V37.7h332.6v329.2zm-303.6-27h275.6V65.7H56.5v274.2z"/>
  <path id="Rectangle-14" class="st1" d="M256.5 263.7h104v103.6h-104z"/>
  <path id="Rectangle-3" d="M196.5 281.7h40v40h-40z"/>
  <path id="Rectangle-3_1_" d="M128.5 281.7h40v40h-40z"/>
  <path id="Rectangle-26" class="st2" d="M.5 86.7h371v96H.5z"/>
  <g class="st3">
    <path d="M20.6 134.5c1.1-2.7 2.6-5.1 4.8-7.3 2.1-2.2 4.7-4.1 7.7-5.5 3-1.5 6.6-2.2 10.6-2.2 2.5 0 4.8.3 6.9.8 2.1.5 3.9 1.3 5.4 2.2 1.5 1 2.7 2.1 3.5 3.5.8 1.4 1.2 2.9 1.2 4.5 0 2.2-.6 3.8-1.7 4.7-1.1.9-2.7 1.3-4.8 1.3-1.5 0-3-.3-4.2-.8-1.3-.6-2-1.8-2-3.5 0-.3.1-.7.2-1.4.2-.7.3-1.4.5-2.1.2-.7.3-1.4.5-2.1.2-.7.2-1.1.2-1.4 0-1.3-.6-2.4-1.8-3.2-1.2-.8-2.6-1.2-4.4-1.2-2.4 0-4.3.6-5.7 1.7-1.4 1.1-2.5 2.7-3.2 4.5-.8 1.9-1.3 4.1-1.5 6.6-.2 2.5-.4 5.1-.4 8 0 2.6.1 5.2.3 7.8.2 2.6.7 5 1.6 7.1.9 2.1 2.1 3.9 3.8 5.2 1.7 1.3 3.9 2 6.8 2 2.7 0 5-.5 6.9-1.5 1.9-1 3.4-2.1 4.5-3.4 1.1-1.3 2-2.6 2.6-3.9.6-1.3.9-2.2 1-2.8l1.4.5c-.3 1.2-.9 2.5-1.5 3.9-.7 1.4-1.7 2.8-3.1 4-1.3 1.2-3 2.3-5.1 3.2s-4.8 1.3-7.9 1.3c-.9 0-2.1-.1-3.7-.2-1.6-.2-3.3-.5-5.1-1.1-1.8-.6-3.7-1.4-5.6-2.4-1.9-1-3.6-2.3-5.1-4-1.6-1.7-2.8-3.8-3.8-6.2-1-2.5-1.5-5.4-1.5-8.8.1-2.5.6-5.1 1.7-7.8zM69.4 149.2c.8 1.9 1.6 3.7 2.5 5.4.8 1.7 1.8 3.3 3 4.6 1.1 1.3 2.5 2.4 4.1 3.2 1.6.8 3.6 1.2 5.9 1.2.6 0 1.4 0 2.4-.1s2-.4 2.9-.9c1-.5 1.8-1.3 2.5-2.3.7-1 1.1-2.5 1.1-4.5 0-.6-.1-1.2-.2-1.8-.2-.6-.5-1.3-1.1-2-.5-.7-1.3-1.3-2.3-2-1-.6-2.5-1.3-4.2-2l-8.1-3c-.9-.3-1.9-.8-3-1.3-1.1-.6-2.1-1.3-3-2.2-.9-.9-1.6-2-2.2-3.3-.6-1.3-.9-2.9-.9-4.7 0-1.9.4-3.8 1.2-5.5.8-1.7 1.9-3.2 3.3-4.5 1.4-1.3 3.2-2.3 5.2-3.1 2-.8 4.2-1.1 6.6-1.1 1.3 0 2.5.1 3.6.4 1.1.3 2.1.6 3 .9.9.3 1.7.6 2.4.8.7.3 1.2.4 1.6.4.7 0 1.2-.1 1.4-.4.2-.3.4-.6.5-.9H99v12.2h-1.3c-.7-1.6-1.4-3.1-2-4.6-.7-1.5-1.5-2.8-2.5-3.8-1-1.1-2.2-2-3.6-2.6-1.4-.6-3.1-1-5.2-1-2.2 0-4.2.6-6.1 1.8-1.8 1.2-2.8 2.9-2.8 5.2 0 .5.1 1 .2 1.6.1.6.4 1.2.9 1.9.5.6 1.2 1.3 2.2 1.9 1 .6 2.3 1.2 4 1.9l8.5 2.9c3.6 1.3 6.3 2.9 8.2 5 1.9 2.1 2.8 4.7 2.8 7.9 0 2.2-.5 4.2-1.5 6-1 1.8-2.2 3.3-3.8 4.5-1.6 1.2-3.4 2.2-5.5 2.8-2.1.7-4.2 1-6.4 1-1.2 0-2.5-.1-3.9-.4-1.4-.3-2.8-.6-4.1-1-1.3-.4-2.5-.7-3.5-1-1.1-.3-1.9-.4-2.5-.4-.5 0-.9.1-1.1.3-.2.2-.5.6-.7 1.1H68v-14.5h1.4zM112 149.2c.8 1.9 1.6 3.7 2.5 5.4.8 1.7 1.8 3.3 3 4.6 1.1 1.3 2.5 2.4 4.1 3.2 1.6.8 3.6 1.2 5.9 1.2.6 0 1.4 0 2.4-.1s2-.4 2.9-.9c1-.5 1.8-1.3 2.5-2.3.7-1 1.1-2.5 1.1-4.5 0-.6-.1-1.2-.2-1.8-.2-.6-.5-1.3-1.1-2-.5-.7-1.3-1.3-2.3-2-1-.6-2.5-1.3-4.2-2l-8.1-3c-.9-.3-1.9-.8-3-1.3-1.1-.6-2.1-1.3-3-2.2-.9-.9-1.6-2-2.2-3.3-.6-1.3-.9-2.9-.9-4.7 0-1.9.4-3.8 1.2-5.5.8-1.7 1.9-3.2 3.3-4.5 1.4-1.3 3.2-2.3 5.2-3.1 2-.8 4.2-1.1 6.6-1.1 1.3 0 2.5.1 3.6.4 1.1.3 2.1.6 3 .9.9.3 1.7.6 2.4.8.7.3 1.2.4 1.6.4.7 0 1.2-.1 1.4-.4.2-.3.4-.6.5-.9h1.4v12.2h-1.3c-.7-1.6-1.4-3.1-2-4.6-.7-1.5-1.5-2.8-2.5-3.8-1-1.1-2.2-2-3.6-2.6-1.4-.6-3.1-1-5.2-1-2.2 0-4.2.6-6.1 1.8-1.8 1.2-2.8 2.9-2.8 5.2 0 .5.1 1 .2 1.6.1.6.4 1.2.9 1.9.5.6 1.2 1.3 2.2 1.9 1 .6 2.3 1.2 4 1.9l8.5 2.9c3.6 1.3 6.3 2.9 8.2 5 1.9 2.1 2.8 4.7 2.8 7.9 0 2.2-.5 4.2-1.5 6-1 1.8-2.2 3.3-3.8 4.5-1.6 1.2-3.4 2.2-5.5 2.8-2.1.7-4.2 1-6.4 1-1.2 0-2.5-.1-3.9-.4-1.4-.3-2.8-.6-4.1-1-1.3-.4-2.5-.7-3.5-1-1.1-.3-1.9-.4-2.5-.4-.5 0-.9.1-1.1.3-.2.2-.5.6-.7 1.1h-1.4v-14.5h1.5z"/>
  </g>
  <g class="st3">
    <path d="M198.2 157.4c2.3.5 4.3 1.3 6 2.5 1.7 1.2 3.1 2.8 4.2 4.8s1.6 4.6 1.6 7.7c0 2.6-.5 5.1-1.6 7.6s-2.6 4.7-4.7 6.6c-2.1 1.9-4.5 3.5-7.5 4.7-2.9 1.2-6.2 1.8-9.9 1.8-4.2 0-7.5-.5-10-1.4-2.5-.9-4.4-2-5.8-3.3-1.3-1.3-2.2-2.6-2.6-4-.4-1.4-.6-2.5-.6-3.5 0-1.8.4-3.4 1.2-4.8.8-1.4 1.8-2.6 3.1-3.7 1.3-1 2.7-1.9 4.3-2.7 1.6-.7 3.1-1.3 4.6-1.7v-.2c-1.3 0-2.8-.2-4.5-.5-1.7-.3-3.3-.9-4.8-1.7-1.5-.8-2.7-1.9-3.7-3.3s-1.5-3.1-1.5-5.2c0-.3.1-.9.2-1.8.2-.9.6-1.9 1.2-3 .6-1.2 1.5-2.4 2.8-3.7 1.2-1.3 2.9-2.5 4.9-3.6-.6-.5-1.3-1-2-1.7-.7-.6-1.4-1.4-2-2.2-.6-.8-1.2-1.8-1.6-2.9-.4-1.1-.6-2.4-.6-3.9 0-2.1.4-4 1.4-5.8.9-1.8 2.2-3.4 3.8-4.8 1.7-1.4 3.7-2.5 6.2-3.2 2.4-.8 5.1-1.2 8.1-1.2s5.6.5 7.8 1.4c2.2.9 4 2 5.5 3.2 1.7-1.5 3.2-2.7 4.5-3.5 1.3-.8 3.1-1.1 5.3-1.1 1.9 0 3.4.5 4.3 1.5 1 1 1.5 2.2 1.5 3.8 0 1.3-.4 2.4-1.2 3.1-.8.8-1.9 1.2-3.2 1.2-.9 0-1.7-.1-2.2-.4-.6-.3-1-.6-1.3-1-.3-.4-.5-.8-.6-1.2s-.2-.8-.2-1.1c-.1-.9-.3-1.6-.4-2.1-.1-.5-.6-.7-1.3-.7-.4 0-.9.2-1.4.5-.5.3-1.5.9-2.8 1.8.8.9 1.7 2 2.6 3.5.9 1.4 1.4 3.5 1.4 6.2 0 1.7-.3 3.3-.9 5-.6 1.6-1.7 3.1-3.1 4.5-1.4 1.3-3.3 2.4-5.5 3.2-2.3.8-5.1 1.2-8.4 1.2-2.7 0-5-.3-7.1-.8-2.1-.5-3.8-1.1-5.1-1.6-1.9 1.3-3.1 2.4-3.4 3.2-.3.9-.5 1.7-.5 2.5 0 1.7.7 2.9 2 3.7 1.3.8 3.1 1.2 5.4 1.2h11c2.4.1 4.8.4 7.1.9zm-21.3 25.8c.3 1.4 1 2.7 1.9 4 .9 1.2 2.2 2.2 3.8 3 1.6.8 3.7 1.2 6.2 1.2 1.9 0 3.8-.3 5.5-1 1.7-.7 3.2-1.6 4.5-2.8 1.3-1.2 2.3-2.6 3.2-4.3.8-1.7 1.2-3.5 1.2-5.5s-.3-3.6-1-4.8c-.7-1.2-1.5-2.2-2.5-3-1-.7-2.1-1.2-3.3-1.5-1.2-.3-2.3-.4-3.3-.4h-10.4c-2 1.6-3.5 3.2-4.6 4.8-1.1 1.6-1.6 3.7-1.6 6.4-.1 1.2 0 2.5.4 3.9zm14.3-36.6c.9-.3 1.7-.9 2.4-1.8s1.2-2.2 1.5-3.9c.4-1.7.5-3.9.5-6.7 0-1.9-.1-3.7-.2-5.3-.1-1.6-.5-3.1-1-4.2-.5-1.2-1.3-2.1-2.3-2.8-1-.7-2.4-1-4.2-1-1.7 0-3 .4-4.1 1.1-1.1.7-1.9 1.6-2.5 2.8-.6 1.1-.9 2.4-1.1 3.9-.2 1.5-.3 3-.3 4.5 0 3.1.2 5.6.6 7.5.4 1.9.9 3.3 1.6 4.2.7 1 1.5 1.6 2.5 1.9 1 .3 2.1.4 3.2.4 1.4-.2 2.4-.3 3.4-.6zM238.7 120.8v8.4h.2c1.2-2.5 2.8-4.7 4.8-6.5 2-1.8 4.7-2.8 8.1-2.8 2.8 0 5.1.8 6.8 2.2 1.7 1.5 2.6 3.6 2.6 6.2 0 2-.5 3.6-1.5 4.7s-2.5 1.7-4.6 1.7c-1.5 0-2.9-.3-4.2-.9-1.3-.6-1.9-1.8-1.9-3.6 0-.2 0-.5.1-1s.1-1 .2-1.6c.1-.6.2-1.1.2-1.5.1-.5.1-.7.1-.8-.1-.5-.2-.9-.3-1.2-.1-.3-.3-.6-.7-.8-.3-.2-.8-.3-1.3-.3-.7 0-1.5.3-2.5 1-1 .6-1.9 1.5-2.8 2.8-.9 1.2-1.6 2.6-2.2 4.3-.6 1.7-1 3.6-1 5.8v25.6h7.9v1.4h-26.6v-1.4h6.5v-40.1h-6.5V121h18.6zM283 120.8v41.5h6.7v1.4h-25.6v-1.4h6.7v-40.1h-6.7v-1.4H283zm-11.1-26.5c1.4-1.4 3.1-2.1 5-2.1s3.6.7 5 2.1c1.4 1.4 2.1 3.1 2.1 5s-.7 3.6-2.1 5c-1.4 1.4-3.1 2.1-5 2.1s-3.6-.7-5-2.1c-1.4-1.4-2.1-3.1-2.1-5s.7-3.6 2.1-5zM348.2 162.3v1.4h-18.6v-7.4h-.2c-1.1 2.8-2.5 5-4.5 6.5s-4.3 2.2-7.3 2.2c-3.3 0-6.2-.6-8.9-1.9-2.7-1.3-5-3-6.8-5.1-1.9-2.1-3.4-4.5-4.5-7.2s-1.6-5.6-1.6-8.6c0-2.3.4-4.8 1.2-7.5.8-2.7 2.1-5.1 3.9-7.4 1.8-2.3 4-4.1 6.8-5.6 2.7-1.5 6-2.2 9.9-2.2 3 0 5.4.7 7.3 2.1 1.9 1.4 3.3 3.5 4.3 6.3h.2V93h-6.8v-1.4h19v70.7h6.6zM329 135.2c-.2-2.5-.7-4.9-1.4-7-.7-2.1-1.8-3.9-3.3-5.3-1.5-1.4-3.4-2.1-5.9-2.1-1.7 0-3.1.4-4.2 1.1-1.2.7-2.1 1.9-2.9 3.6-.7 1.7-1.2 3.9-1.5 6.7-.3 2.8-.5 6.1-.5 10.1 0 3.3.1 6.2.2 8.9.2 2.6.5 4.9 1.1 6.8.6 1.9 1.4 3.3 2.5 4.3s2.6 1.5 4.5 1.5c2.8 0 5-.7 6.5-2.2 1.6-1.4 2.8-3.2 3.5-5.4.8-2.2 1.3-4.5 1.5-7 .2-2.5.2-4.8.2-6.9.1-2.2-.1-4.5-.3-7.1z"/>
  </g>
  <path id="Fill-1" d="M.5 65.8h209.2V4.7H.5z"/>
  <path id="Fill-2" class="st0" d="M58 48.1h3.5v5.8h-11v-15c0-4.6-1.5-6.4-4.5-6.4-3.6 0-5 2.6-5 6.3v9.3h3.5v5.8h-11v-15c0-4.6-1.5-6.4-4.5-6.4-3.6 0-5 2.6-5 6.3v9.3h5v5.8H13v-5.8h3.5V32.9H13v-5.8h11v4c1.6-2.8 4.3-4.6 7.9-4.6 3.8 0 7.3 1.8 8.5 5.7 1.5-3.6 4.4-5.7 8.5-5.7 4.7 0 9 2.9 9 9.2v12.4zm20.6.5c-4.1 0-6.1-3.6-6.1-8.2 0-5 2.4-7.9 6.2-7.9 3.5 0 6.4 2.4 6.4 7.8 0 5.1-2.6 8.3-6.5 8.3zm.2-22c-9.4 0-14 6.5-14 14.3 0 8.5 5.6 13.6 13.6 13.6 8.4 0 14.4-5.4 14.4-13.9 0-7.5-4.6-14-14-14zm37.5 17.3l5.9.6-1.6 9.4H97.7l-.8-4L111.3 33h-8.2l-1.2 4.1-5.4-.6.9-9.4h23l.6 4L106.5 48h8.5l1.3-4.1zm11.4 10h7.8v-9.6h-7.8v9.6zm0-17.2h7.8v-9.6h-7.8v9.6zm31.4-23.6l-11.3 40.8h-7.4l11.3-40.8h7.4zm15.2 0L163 53.9h-7.4L167 13.1h7.3zM184.4 49c-2.3 0-3.1-1.4-3.1-3.1 0-2.9 2.3-3.7 5-3.7 1.2 0 2.6.2 3.8.4-.2 4.4-3.1 6.4-5.7 6.4zm16 .2c-.4.1-.8.2-1.1.2-1.2 0-1.8-.5-1.8-2.1V35.7c0-6.1-4.8-9.1-10.4-9.1-4.3 0-6.6.5-11.2 2.4l-1 6.1 6 .7.8-3c1.2-.7 2.4-.8 4-.8 4.2 0 4.3 3.3 4.3 6v.9c-1.3-.2-2.8-.2-4.3-.2-6 0-12.2 1.5-12.2 8.1 0 5.6 4.3 7.6 8.1 7.6 4.2 0 6.9-2.6 8.4-5.3.3 3.3 2.3 5.3 5.7 5.3 1.6 0 3.3-.5 4.7-1.2v-4z"/>
</svg>
