<svg width="112" height="80" fill="none" xmlns="http://www.w3.org/2000/svg"><path d="M5.81836 1H106.182C108.843 1 111 3.15735 111 5.81836V74.1816C111 76.8426 108.843 79 106.182 79H5.81836C3.15735 79 1 76.8427 1 74.1816V5.81836C1 3.15735 3.15735 1 5.81836 1Z" fill="#F8F6F4"/><path d="M5.81836 1H106.182C108.843 1 111 3.15735 111 5.81836V74.1816C111 76.8426 108.843 79 106.182 79H5.81836C3.15735 79 1 76.8427 1 74.1816V5.81836C1 3.15735 3.15735 1 5.81836 1Z" stroke="#333336" stroke-width="2"/><g clip-path="url(#a)"><rect x="9" y="9" width="94" height="14" rx="1.90909" fill="#F8F6F4"/><rect x="9" y="9" width="94" height="14" rx="1.90909" stroke="#333336" stroke-width="2"/><path d="M16 16H96" stroke="#333336" stroke-width="2" stroke-linecap="round"/><rect x="8" y="32" width="8" height="8" rx="1" fill="#FFEA80"/><rect x="25.6" y="32" width="8" height="8" rx="1" fill="#FFB279"/><rect x="42.2" y="31" width="10" height="10" rx="2" fill="#D98DFA" stroke="#fff" stroke-width="2"/><rect x="60.8" y="32" width="8" height="8" rx="1" fill="#0079D3"/><rect x="78.4" y="32" width="8" height="8" rx="1" fill="#DCD2FF"/><rect x="96" y="32" width="8" height="8" rx="1" fill="#754FE0"/><rect x="9" y="49" width="94" height="22" rx="1.90909" fill="#F8F6F4"/><rect x="9" y="49" width="94" height="22" rx="1.90909" stroke="#333336" stroke-width="2"/><path d="M51.083 54.8629 51.2195 54.2261C51.284 53.9246 51.7145 53.9246 51.7797 54.2261L51.9162 54.8629C51.9402 54.9731 52.0257 55.0594 52.136 55.0826L52.7727 55.2191C53.0742 55.2836 53.0742 55.7141 52.7727 55.7794L52.1367 55.9166C52.0265 55.9399 51.9402 56.0261 51.917 56.1364L51.7797 56.7731C51.7152 57.0746 51.2847 57.0746 51.2195 56.7731L51.083 56.1364C51.0597 56.0261 50.9735 55.9399 50.8632 55.9166L50.2265 55.7794C49.925 55.7149 49.925 55.2844 50.2265 55.2191L50.8632 55.0826C50.9735 55.0594 51.0597 54.9731 51.083 54.8629ZM51.083 63.8629 51.2195 63.2261C51.284 62.9246 51.7145 62.9246 51.7797 63.2261L51.9162 63.8629C51.9402 63.9731 52.0257 64.0594 52.136 64.0826L52.7727 64.2191C53.0742 64.2836 53.0742 64.7141 52.7727 64.7794L52.136 64.9159C52.0257 64.9399 51.9395 65.0254 51.9162 65.1356L51.7797 65.7724C51.7152 66.0739 51.2847 66.0739 51.2195 65.7724L51.083 65.1356C51.059 65.0254 50.9735 64.9391 50.8632 64.9159L50.2265 64.7794C49.925 64.7149 49.925 64.2844 50.2265 64.2191L50.8632 64.0826C50.9735 64.0594 51.0597 63.9731 51.083 63.8629Z" fill="#333336"/><path fill-rule="evenodd" clip-rule="evenodd" d="M57.6977 55.3943C57.358 54.5343 56.142 54.5343 55.8023 55.3943L54.8603 57.7838C54.8012 57.933 54.6831 58.051 54.5339 58.1101L52.1446 59.052C51.2846 59.3916 51.285 60.6078 52.145 60.9474L54.5343 61.8894C54.6834 61.9485 54.8014 62.0666 54.8604 62.2157L55.8023 64.605C56.142 65.465 57.3582 65.4647 57.6978 64.6047L58.6397 62.2154C58.6988 62.0663 58.817 61.9483 58.9661 61.8892L61.3554 60.9473C62.2154 60.6077 62.2151 59.3915 61.3551 59.0518L58.9659 58.11C58.8167 58.0509 58.6987 57.9327 58.6396 57.7836L57.6977 55.3943ZM55.9068 58.1967L56.75 56.0578L57.5934 58.1972C57.7668 58.6358 58.1144 58.983 58.553 59.1564L60.6918 59.9996L58.5524 60.8431C58.1138 61.0165 57.7666 61.364 57.5932 61.8026L56.75 63.9415L55.9066 61.8021C55.7332 61.3635 55.3857 61.0163 54.9471 60.8428L52.8082 59.9996L54.9476 59.1562C55.3862 58.9828 55.7334 58.6353 55.9068 58.1967Z" fill="#333336"/></g><defs><clipPath id="a"><path fill="#fff" transform="translate(8 8)" d="M0 0H96V64H0z"/></clipPath></defs></svg>