<svg width="121" height="82" fill="none" xmlns="http://www.w3.org/2000/svg"><rect x="1" y="1" width="118.675" height="80" rx="4.30964" stroke="#333336" stroke-width="2" stroke-linecap="round" stroke-linejoin="round"/><path d="M7.27026 8.75292C8.23568 8.75292 9.0183 7.9703 9.0183 7.00488 9.0183 6.03946 8.23568 5.25684 7.27026 5.25684 6.30484 5.25684 5.52222 6.03946 5.52222 7.00488 5.52222 7.9703 6.30484 8.75292 7.27026 8.75292ZM13.6623 8.75292C14.6278 8.75292 15.4104 7.9703 15.4104 7.00488 15.4104 6.03946 14.6278 5.25684 13.6623 5.25684 12.6969 5.25684 11.9143 6.03946 11.9143 7.00488 11.9143 7.9703 12.6969 8.75292 13.6623 8.75292ZM20.0542 8.75292C21.0196 8.75292 21.8022 7.9703 21.8022 7.00488 21.8022 6.03946 21.0196 5.25684 20.0542 5.25684 19.0888 5.25684 18.3062 6.03946 18.3062 7.00488 18.3062 7.9703 19.0888 8.75292 20.0542 8.75292ZM1 12.9619H119.675M34.4646 12.9619 34.4646 80.7957" stroke="#333336" stroke-width="2" stroke-linecap="round" stroke-linejoin="round"/><rect x="4.61792" y="17.4844" width="26.229" height="6.20108" rx=".861928" fill="#CCEDFE" stroke="#333336" stroke-width="2" stroke-linecap="round" stroke-linejoin="round"/><rect x="4.61792" y="49.0371" width="26.229" height="6.20108" rx=".861928" fill="#CCEDFE" stroke="#333336" stroke-width="2" stroke-linecap="round" stroke-linejoin="round"/><rect x="4.61792" y="28.002" width="26.229" height="6.20108" rx=".861928" fill="#CCEDFE" stroke="#333336" stroke-width="2" stroke-linecap="round" stroke-linejoin="round"/><rect x="4.61792" y="59.5547" width="26.229" height="6.20108" rx=".861928" fill="#CCEDFE" stroke="#333336" stroke-width="2" stroke-linecap="round" stroke-linejoin="round"/><rect x="4.61792" y="38.5195" width="26.229" height="6.20108" rx=".861928" fill="#CCEDFE" stroke="#333336" stroke-width="2" stroke-linecap="round" stroke-linejoin="round"/><rect x="4.61792" y="70.0723" width="26.229" height="6.20107" rx=".861928" fill="#CCEDFE" stroke="#333336" stroke-width="2" stroke-linecap="round" stroke-linejoin="round"/></svg>