<svg width="240" height="176" viewBox="0 0 240 176" fill="none" xmlns="http://www.w3.org/2000/svg"><g filter="url(#b)" clip-path="url(#a)"><g clip-path="url(#c)"><path d="M173.471 0H7.396A7.22 7.22 0 0 0 .175 7.22v154.041a7.22 7.22 0 0 0 7.22 7.221h166.076a7.221 7.221 0 0 0 7.221-7.221V7.221A7.22 7.22 0 0 0 173.471 0Z" fill="#fff"/><path d="M223.059 0H6.803C1.67 0 0 3.238 0 7.233V164.79c0 3.971 4.113 3.971 9.204 3.971H223.06c5.133 0 9.294-3.239 9.294-7.233V7.233c0-3.995-4.161-7.233-9.294-7.233Z" fill="#D8D8D8"/><path fill-rule="evenodd" clip-rule="evenodd" d="M15.29 0h123.77v21.013h93.293v29.126H0V21.013h15.29V0Z" fill="#ECECEF"/><path d="M23.383 3.911h11.12v11.235h-11.12V3.91Z" fill="#C1C1C5"/><path fill-rule="evenodd" clip-rule="evenodd" d="M40.754 7.425h55.6v5.62h-55.6v-5.62Z" fill="#A6A6A6" fill-opacity=".4"/><path d="M0 50.14h232.353v118.622H0V50.139Z" fill="#F7F7F8"/><path opacity=".59" fill-rule="evenodd" clip-rule="evenodd" d="M231.829 24H8.171a1.39 1.39 0 0 0-.448.073c-.142.048-.271.119-.38.208a.949.949 0 0 0-.256.31.788.788 0 0 0-.087.368V44.04a.788.788 0 0 0 .087.368.949.949 0 0 0 .257.31c.108.09.237.16.379.208.142.048.294.073.448.073H231.83c.31 0 .608-.101.828-.28a.88.88 0 0 0 .343-.679V24.96a.88.88 0 0 0-.343-.678c-.22-.18-.518-.281-.828-.281Z" fill="#fff" stroke="#CDCDCD" stroke-width="1.241"/><path fill-rule="evenodd" clip-rule="evenodd" d="M70.929 30.573h161.424v8.56H70.929v-8.56Z" fill="#A6A6A6" fill-opacity=".2"/><path fill-rule="evenodd" clip-rule="evenodd" d="M14.67 31.44c0 1.143-.036 1.943 0 2.323a5.337 5.337 0 0 0 1.035 3.074 2.906 2.906 0 0 0 1.745 1.126 2.907 2.907 0 0 0 1.745-1.126 5.338 5.338 0 0 0 1.035-3.075c.03-.379 0-1.203 0-2.322l-2.78-.476-2.78.476Zm2.78 7.943h-.079a4.32 4.32 0 0 1-2.755-1.715 6.48 6.48 0 0 1-1.252-3.713c-.054-.602-.054-1.877-.054-2.6a1.294 1.294 0 0 1 1.029-1.269l3.11-.535 3.105.535a1.3 1.3 0 0 1 1.066 1.282c0 .716 0 2.015-.055 2.6a6.564 6.564 0 0 1-1.251 3.712 4.35 4.35 0 0 1-2.792 1.709l-.072-.006Zm0-7.353-1.74.3c0 .662 0 1.162.043 1.409-.012.89.265 1.759.788 2.479.228.305.542.536.903.661l.006-4.85Z" fill="#0C0C0D" fill-opacity=".2"/><path opacity=".4" d="M27.18 28.847V40.08" stroke="#979797" stroke-width="1.241" stroke-linecap="square"/><path fill-rule="evenodd" clip-rule="evenodd" d="M39.69 33.75h-.35v-1.395a2.78 2.78 0 1 0-5.56 0v1.396h-.348a1.046 1.046 0 0 0-1.041 1.053v3.52a1.046 1.046 0 0 0 1.04 1.053h6.259a1.048 1.048 0 0 0 1.04-1.053v-3.52a1.046 1.046 0 0 0-1.04-1.053Zm-4.52-1.395a1.39 1.39 0 1 1 2.78 0v1.396h-2.78v-1.396Z" fill="#0C0C0D" fill-opacity=".8"/><path d="M44.9 28.491h11.12v11.235H44.9V28.49Z" fill="#0C0C0D" fill-opacity=".8"/><path opacity=".25" d="M.35 49.208 232 50" stroke="#979797" stroke-width="1.241" stroke-linecap="square"/><path d="M163.265 75.426H62.513a2.826 2.826 0 0 0-2.828 2.825 2.827 2.827 0 0 0 2.828 2.825h100.752a2.826 2.826 0 0 0 2.828-2.825 2.826 2.826 0 0 0-2.828-2.825Z" fill="#DFDFE3"/><path fill-rule="evenodd" clip-rule="evenodd" d="M187.105 47.136H54.375l-4.206-4.978-4.2 4.977H30.748a3.448 3.448 0 0 0-3.448 3.448v88.88a3.45 3.45 0 0 0 3.448 3.448h156.357V47.136Z" fill="#fff" stroke="#DFDFE3" stroke-width="1.293"/><path fill-rule="evenodd" clip-rule="evenodd" d="M187.105 143.08h-79.489v-25.681h79.489" fill="#0056EE"/><path fill-rule="evenodd" clip-rule="evenodd" d="M75.576 90.07h77.439a2.937 2.937 0 0 1 2.722 1.814 2.944 2.944 0 0 1-2.722 4.073H75.576a2.939 2.939 0 0 1-2.94-2.947 2.94 2.94 0 0 1 2.94-2.94Zm0 11.773h77.439a2.937 2.937 0 0 1 2.724 1.818 2.95 2.95 0 0 1-.641 3.21 2.939 2.939 0 0 1-2.083.859H75.576a2.94 2.94 0 0 1-2.725-4.05 2.943 2.943 0 0 1 2.725-1.837Z" fill="#DFDFE3"/><path d="M65.584 90.07h-3.29c-.693 0-1.255.562-1.255 1.254v3.379c0 .692.562 1.254 1.254 1.254h3.291c.693 0 1.254-.562 1.254-1.254v-3.379c0-.692-.561-1.254-1.254-1.254ZM65.584 101.843h-3.29c-.693 0-1.255.561-1.255 1.254v3.378c0 .693.562 1.254 1.254 1.254h3.291c.693 0 1.254-.561 1.254-1.254v-3.378c0-.693-.561-1.254-1.254-1.254Z" fill="#DFDFE3"/><path d="M26.999 117.101h160.106" stroke="#DFDFE3" stroke-width="1.267" stroke-linecap="square"/><path fill-rule="evenodd" clip-rule="evenodd" d="M107.616 117.399H26.904v20.036c0 1.497.512 2.933 1.423 3.992.91 1.059 2.146 1.653 3.435 1.653h75.854v-25.681Z" fill="#FAFAFC"/><path d="M57.452 130.212a2.219 2.219 0 0 0 1.998-1.203l-.446-.235a1.696 1.696 0 0 1-1.558.957 1.808 1.808 0 0 1-1.477-1.775 1.807 1.807 0 0 1 1.477-1.775 1.7 1.7 0 0 1 1.504.897l.434-.265a2.256 2.256 0 1 0-1.938 3.406l.006-.007Zm3.713 0a1.646 1.646 0 0 0 1.348-.637v.601h.48v-2.07c0-.734-.498-1.245-1.425-1.245a1.75 1.75 0 0 0-1.468.704l.427.271a1.153 1.153 0 0 1 1.035-.548c.602 0 .95.331.95.824v.127h-1.028c-.909 0-1.475.385-1.475 1.053 0 .523.38.957 1.156.957v-.037Zm.09-.433c-.512 0-.74-.24-.74-.559 0-.319.319-.602.993-.602h1.005v.445a1.429 1.429 0 0 1-1.258.734v-.018Zm3.087.367v-1.805a1.014 1.014 0 0 1 .62-.985c.128-.054.264-.081.403-.08a.938.938 0 0 1 .733.292.925.925 0 0 1 .248.749v1.805h.499v-1.853a1.323 1.323 0 0 0-1.384-1.462 1.294 1.294 0 0 0-1.131.601v-.541h-.482v3.249l.494.03Zm4.916.066a1.62 1.62 0 0 0 1.546-1.022l-.457-.193a1.165 1.165 0 0 1-1.083.752 1.206 1.206 0 0 1-1.204-1.203 1.203 1.203 0 0 1 1.204-1.204 1.153 1.153 0 0 1 1.089.722l.451-.198a1.634 1.634 0 0 0-1.534-.987 1.69 1.69 0 1 0 0 3.382l-.012-.049Zm3.79 0a1.659 1.659 0 0 0 1.511-.824l-.421-.247a1.16 1.16 0 0 1-1.09.602 1.2 1.2 0 0 1-1.203-1.059h2.87v-.223a1.604 1.604 0 0 0-1.012-1.544 1.6 1.6 0 0 0-.642-.11 1.672 1.672 0 0 0-1.211.49 1.661 1.661 0 0 0-.486 1.213 1.626 1.626 0 0 0 1.685 1.709v-.007Zm1.132-1.937h-2.353a1.201 1.201 0 0 1 1.204-1.005 1.094 1.094 0 0 1 1.155 1.011l-.006-.006Zm1.745 1.871v-4.741h-.493v4.741h.493Z" fill="#6B6B6F"/><path d="m42.793 68.675.57-1.492h2.834l.583 1.492h.72l-2.369-5.943h-.702l-2.357 5.95.72-.007Zm3.134-2.138h-2.313l1.16-3.002 1.153 3.002Zm4.232 2.226a1.993 1.993 0 0 0 1.642-.871v.783h.715v-6.432h-.665v2.796a1.988 1.988 0 0 0-1.642-.852 2.288 2.288 0 1 0 0 4.576h-.05Zm.056-.627a1.605 1.605 0 0 1-1.624-1.667 1.622 1.622 0 0 1 1.624-1.674 1.674 1.674 0 0 1 0 3.341Zm5.498.627a1.993 1.993 0 0 0 1.648-.871v.783h.627v-6.432h-.627v2.796a1.994 1.994 0 0 0-1.648-.852 2.288 2.288 0 1 0 0 4.576Zm.056-.627a1.606 1.606 0 0 1-1.617-1.667 1.616 1.616 0 0 1 1.617-1.674 1.674 1.674 0 0 1 0 3.341Zm6.532.54v-2.408h2.67v-1.072h-2.67v-1.38h2.67v-1.084h-3.83v5.95l1.16-.007Zm4.088-4.922a.697.697 0 0 0 .727-.72.721.721 0 0 0-1.442 0 .69.69 0 0 0 .733.72h-.018Zm.583 4.921v-4.388h-1.154v4.388h1.154Zm2.012 0V66.35c0-.74.37-1.034.953-1.034.205-.007.409.047.583.157l.407-1.11a1.674 1.674 0 0 0-.74-.17 1.21 1.21 0 0 0-1.216.76v-.678h-1.103v4.389l1.116.012Zm4.35.088a2.332 2.332 0 0 0 2.032-1.016l-.922-.539a1.203 1.203 0 0 1-1.097.583 1.216 1.216 0 0 1-1.254-.927h3.498v-.42a2.194 2.194 0 0 0-2.275-2.257 2.268 2.268 0 0 0-2.307 2.294 2.219 2.219 0 0 0 2.344 2.282h-.018Zm1.135-2.777h-2.332a1.254 1.254 0 0 1 1.191-.847 1.116 1.116 0 0 1 1.16.847h-.019Zm3.279 2.69v-3.392h1.097v-1.01h-1.06v-.213c0-.67.094-.783.878-.783h.182V62.25h-.289c-1.435 0-1.88.445-1.88 1.88v.157h-.721v1.01h.72v3.39l1.073-.012Zm3.648.087a2.288 2.288 0 1 0-.874-.158c.284.112.588.165.893.158h-.019Zm0-1.066a1.253 1.253 0 1 1 1.204-1.254 1.209 1.209 0 0 1-1.179 1.254h-.025Zm3.718.978.984-1.379 1.01 1.38h1.36l-1.68-2.251 1.567-2.15h-1.298l-.928 1.303-.921-1.304H83.86l1.555 2.144-1.643 2.257h1.342Zm7.04 0v-1.88h1.335l.953 1.88h1.329l-1.192-2.181a1.937 1.937 0 0 0 1.047-1.762 1.994 1.994 0 0 0-2.187-2.012H91.03v5.949l1.122.006Zm1.172-2.927h-1.172v-1.963h1.172c.733 0 1.11.377 1.11.96a.99.99 0 0 1-1.085 1.003h-.025Zm5.053 3.015a2.318 2.318 0 0 0 2.031-1.016l-.922-.539a1.197 1.197 0 0 1-1.09.583 1.254 1.254 0 0 1-1.254-.927h3.498v-.42a2.199 2.199 0 0 0-2.276-2.257 2.267 2.267 0 0 0-2.307 2.294 2.219 2.219 0 0 0 2.344 2.282h-.025Zm1.134-2.777h-2.35a1.254 1.254 0 0 1 1.19-.847 1.116 1.116 0 0 1 1.16.847Zm2.984 2.69V62.25h-1.084v6.425h1.084Zm2.244.087a1.96 1.96 0 0 0 1.618-.765v.677h1.084v-2.708c0-1.11-.746-1.78-2.037-1.78a2.466 2.466 0 0 0-2.081.996l1.034.514a1.105 1.105 0 0 1 1.034-.576c.627 0 .953.326.953.796v.063h-1.153c-1.223 0-1.981.557-1.981 1.473 0 .77.57 1.31 1.529 1.31Zm.326-.928c-.464 0-.683-.163-.683-.483 0-.32.27-.551.94-.551h1.035v.238a1.453 1.453 0 0 1-1.267.796h-.025Zm3.505 2.583c.934 0 1.404-.383 1.88-1.505l1.881-4.639h-1.179l-1.053 2.847-1.166-2.847h-1.203l1.774 4.213-.076.182c-.219.52-.463.696-.865.696a.792.792 0 0 1-.595-.27l-.627.915a2.2 2.2 0 0 0 1.254.408h-.025Z" fill="#434346"/><path d="m140.629 130.152.289-.8h1.805l.289.8h.872l-1.661-4.392h-.836l-1.613 4.392h.855Zm1.841-1.57h-1.27l.638-1.745.632 1.745Zm3.123 1.637a1.211 1.211 0 0 0 1.017-.512v.445h.818v-4.747h-.818v1.913a1.204 1.204 0 0 0-1.005-.481 1.694 1.694 0 0 0-1.554 1.691 1.696 1.696 0 0 0 1.554 1.691h-.012Zm.163-.783a.91.91 0 0 1-.854-.556.914.914 0 1 1 1.756-.358.89.89 0 0 1-.26.646.902.902 0 0 1-.642.268Zm3.778.783a1.208 1.208 0 0 0 1.017-.512v.445h.819v-4.747h-.819v1.913a1.204 1.204 0 0 0-1.005-.481 1.699 1.699 0 0 0-1.554 1.691 1.696 1.696 0 0 0 1.554 1.691h-.012Zm.163-.783a.91.91 0 0 1-.854-.556.914.914 0 1 1 1.756-.358.89.89 0 0 1-.26.646.902.902 0 0 1-.642.268Z" fill="#fff"/><path d="M187.105 46.966H54.375l-4.206-4.978-4.2 4.978H30.748a3.448 3.448 0 0 0-3.448 3.448v88.879a3.446 3.446 0 0 0 3.448 3.448h156.357" stroke="#DFDFE3" stroke-width="1.293"/><path d="M150.853 113.823a1.094 1.094 0 0 0 1.072-.997v-11.284a1.076 1.076 0 0 0-.617-1.029 1.073 1.073 0 0 0-1.186.176 1.07 1.07 0 0 0-.354.746v11.284a1.096 1.096 0 0 0 .666 1.018c.133.056.275.085.419.086Zm13.102-.17a1.056 1.056 0 0 0 .816.136 1.078 1.078 0 0 0 .669-.487l5.83-9.491.051-.094a1.11 1.11 0 0 0-.395-1.423 1.063 1.063 0 0 0-.817-.138 1.068 1.068 0 0 0-.669.489l-5.83 9.491-.05.094a1.106 1.106 0 0 0 .395 1.423Zm-28.298 0a1.11 1.11 0 0 0 .395-1.423l-.05-.094-5.83-9.491a1.062 1.062 0 0 0-1.091-.502 1.056 1.056 0 0 0-.395.151 1.108 1.108 0 0 0-.395 1.423l.05.094 5.83 9.491a1.075 1.075 0 0 0 1.092.501c.14-.023.274-.074.394-.15Zm15.196 49.461a1.082 1.082 0 0 0 1.072-.99V150.84a1.08 1.08 0 1 0-2.157-.106v11.283a1.091 1.091 0 0 0 .667 1.014c.132.055.274.083.418.083Zm20.06-1.836a1.118 1.118 0 0 0 .395-1.423l-.05-.094-5.83-9.498a1.062 1.062 0 0 0-1.486-.344 1.111 1.111 0 0 0-.395 1.423l.05.087 5.83 9.498a1.083 1.083 0 0 0 .675.495 1.055 1.055 0 0 0 .824-.144h-.013Zm-42.239 0a1.058 1.058 0 0 0 .817.138 1.063 1.063 0 0 0 .668-.489l5.83-9.498.051-.087a1.111 1.111 0 0 0-.395-1.423 1.049 1.049 0 0 0-.816-.144 1.07 1.07 0 0 0-.67.488l-5.83 9.498-.05.094a1.116 1.116 0 0 0 .407 1.423h-.012Z" fill="url(#d)"/><path fill="#FAFAFC" d="M51.701 122.913h36.093v10.73H51.701z"/><path fill="#0056EE" d="M126.814 121.938h34.142v11.706h-34.142z"/><path d="m50.735 132.7.568-1.598h2.282l.567 1.598h.717l-2.073-5.643h-.705l-2.072 5.643h.716Zm.783-2.204.904-2.547h.044l.904 2.547h-1.852Zm4.23 2.204h.628v-.65h.077c.143.231.419.738 1.235.738 1.058 0 1.796-.849 1.796-2.193 0-1.334-.738-2.183-1.808-2.183-.826 0-1.08.507-1.223.728h-.055v-2.083h-.65v5.643Zm.639-2.116c0-.948.419-1.588 1.212-1.588.827 0 1.235.695 1.235 1.588 0 .904-.419 1.62-1.235 1.62-.782 0-1.212-.661-1.212-1.62Zm4.18 2.116h.629v-.65h.077c.143.231.418.738 1.234.738 1.058 0 1.797-.849 1.797-2.193 0-1.334-.739-2.183-1.808-2.183-.827 0-1.08.507-1.223.728h-.056v-2.083h-.65v5.643Zm.64-2.116c0-.948.418-1.588 1.212-1.588.827 0 1.235.695 1.235 1.588 0 .904-.42 1.62-1.235 1.62-.783 0-1.212-.661-1.212-1.62Zm4.092 2.116h.65v-2.678c0-.574.452-.992 1.07-.992.173 0 .352.033.396.044v-.662a6.814 6.814 0 0 0-.342-.011c-.507 0-.948.287-1.102.706h-.044v-.64h-.628v4.233Zm4.532.088c.86 0 1.489-.43 1.687-1.069l-.628-.176c-.166.441-.549.661-1.058.661-.764 0-1.29-.493-1.32-1.4h3.072v-.275c0-1.577-.937-2.117-1.819-2.117-1.146 0-1.906.904-1.906 2.205 0 1.3.749 2.171 1.973 2.171Zm-1.32-2.546c.045-.659.51-1.246 1.254-1.246.706 0 1.158.53 1.158 1.246h-2.411Zm5.782 2.546c.937 0 1.554-.573 1.664-1.322h-.65c-.121.462-.507.738-1.014.738-.772 0-1.268-.639-1.268-1.62 0-.959.507-1.588 1.268-1.588.573 0 .915.353 1.014.739h.65c-.11-.794-.782-1.323-1.675-1.323-1.147 0-1.907.904-1.907 2.194 0 1.267.727 2.182 1.918 2.182Zm3.265-2.634c0-.739.471-1.158 1.113-1.158.612 0 .981.386.981 1.059v2.645h.65v-2.689c0-1.089-.578-1.599-1.443-1.599-.667 0-1.047.279-1.246.717h-.055v-2.072h-.65v5.643h.65v-2.546Zm5.71 2.634c.859 0 1.487-.43 1.686-1.069l-.629-.176c-.165.441-.548.661-1.058.661-.763 0-1.29-.493-1.32-1.4h3.073v-.275c0-1.577-.937-2.117-1.819-2.117-1.146 0-1.907.904-1.907 2.205 0 1.3.75 2.171 1.973 2.171Zm-1.32-2.546c.043-.659.509-1.246 1.253-1.246.706 0 1.157.53 1.157 1.246h-2.41Zm4.711-.088c0-.739.458-1.158 1.08-1.158.604 0 .97.395.97 1.059v2.645h.65v-2.689c0-1.081-.575-1.599-1.432-1.599-.64 0-1.036.287-1.235.717h-.055v-.662h-.628v4.233h.65v-2.546Z" fill="#6B6B6F"/><path d="M132.332 127.796v2.095h-2.429v-2.095h-1.141v5.331h1.141v-2.204h2.429v2.204h1.141v-5.331h-1.141Zm2.733.768a.614.614 0 0 0 .605-.62.617.617 0 0 0-.605-.606.62.62 0 0 0-.621.606c0 .341.271.62.621.62Zm-.575 4.563h1.133v-4.012h-1.133v4.012Zm4.442-4.105c-.519 0-.969.233-1.21.598v-.505h-1.133v4.012h1.133v-2.398l.008.024c0-.435.364-.776.838-.776.45 0 .76.341.76.838v2.312h1.094v-2.553c0-.908-.62-1.552-1.49-1.552Zm2.268 4.105h3.508v-.962h-2.033l2.017-2.25v-.8h-3.437v.963h1.963l-2.018 2.25v.799Zm6.97-4.012v2.398l-.007-.023c0 .434-.365.776-.838.776-.45 0-.761-.342-.761-.838v-2.313h-1.094v2.553c0 .908.621 1.552 1.49 1.552.52 0 .97-.233 1.21-.597v.504h1.133v-4.012h-1.133Zm3.448-.217c0-.264.17-.45.38-.45.155 0 .31.054.388.132l.272-.691a1.467 1.467 0 0 0-.924-.349c-.706 0-1.203.504-1.203 1.226v.349h-.551v.916h.551v3.096h1.087v-3.096h.869v-.916h-.869v-.217Zm2.653-.303a.55.55 0 0 0 .543-.543.55.55 0 0 0-.543-.543.541.541 0 0 0-.551.543c0 .295.233.543.551.543Zm1.637 0a.544.544 0 0 0 0-1.086.545.545 0 0 0-.543.543c0 .295.241.543.543.543Zm-.031.52v2.398l-.008-.023c0 .434-.364.776-.838.776-.45 0-.76-.342-.76-.838v-2.313h-1.094v2.553c0 .908.621 1.552 1.49 1.552.52 0 .97-.233 1.21-.597v.504h1.133v-4.012h-1.133Zm5.007 0v.544c-.271-.381-.784-.637-1.327-.637-1.008 0-1.777.784-1.777 1.901 0 1.118.769 1.909 1.777 1.909.528 0 1.009-.233 1.327-.621v.443c0 .52-.465.853-1.195.853-.465 0-.931-.147-1.195-.38l-.396.799c.396.311 1.064.536 1.77.536 1.265 0 2.157-.73 2.157-1.762v-3.585h-1.141Zm-.97 2.763c-.566 0-.97-.396-.97-.955 0-.558.404-.946.97-.946.567 0 .97.388.97.946 0 .559-.403.955-.97.955Zm5.001.341c-.474 0-.823-.295-.955-.729h2.895c0-1.513-.737-2.468-1.995-2.468-1.171 0-2.064.877-2.064 2.088 0 1.233.932 2.11 2.127 2.11.589 0 1.28-.248 1.637-.621l-.722-.737c-.217.21-.605.357-.923.357Zm-.008-2.196c.458 0 .753.256.861.652h-1.792a.97.97 0 0 1 .931-.652Zm5.034-1.001c-.52 0-.97.233-1.21.598v-.505h-1.133v4.012h1.133v-2.398l.008.024c0-.435.364-.776.838-.776.45 0 .76.341.76.838v2.312h1.094v-2.553c0-.908-.621-1.552-1.49-1.552ZM40.503 58.504h18.535v12.681H40.503z" fill="#fff"/><path d="M117.402 64.65c-.567 0-1.088.31-1.321.738v-2.06h-.583v5.434h.583v-2.558c0-.56.567-1.034 1.243-1.034.591 0 1.003.459 1.003 1.112v2.48h.583v-2.558c0-.91-.622-1.554-1.508-1.554Zm2.976-.638c.21 0 .381-.179.381-.389a.387.387 0 0 0-.381-.38.388.388 0 0 0-.389.38c0 .21.171.389.389.389Zm-.295 4.75h.583v-4.02h-.583v4.02Zm3.666-4.112c-.568 0-1.089.31-1.322.738v-.645h-.583v4.019h.583v-2.558c0-.56.568-1.034 1.244-1.034.591 0 1.003.459 1.003 1.112v2.48h.583v-2.558c0-.91-.622-1.554-1.508-1.554Zm2.517 4.112h3.172v-.552h-2.395l2.379-3.009v-.458h-3.109v.552h2.324l-2.371 3.008v.459Zm6.994-4.02V67.3c0 .56-.567 1.034-1.244 1.034-.591 0-1.003-.458-1.003-1.111v-2.48h-.583V67.3c0 .91.622 1.555 1.508 1.555.568 0 1.089-.31 1.322-.738v.645h.583v-4.02h-.583Zm2.68-.551c0-.296.203-.506.436-.506a.58.58 0 0 1 .42.164l.287-.428a1.221 1.221 0 0 0-.746-.256c-.575 0-.98.427-.98 1.026v.552h-.629v.52h.629v3.499h.583v-3.498h.988v-.521h-.988v-.552Zm2.773-.07a.361.361 0 0 0 .357-.358.367.367 0 0 0-.357-.357.361.361 0 0 0-.358.357c0 .195.155.358.358.358Zm1.492 0a.362.362 0 0 0 .358-.358.368.368 0 0 0-.358-.357.361.361 0 0 0-.357.357c0 .195.155.358.357.358Zm.381.622V67.3c0 .56-.567 1.034-1.244 1.034-.591 0-1.003-.458-1.003-1.111v-2.48h-.583V67.3c0 .91.622 1.555 1.508 1.555.568 0 1.089-.31 1.322-.738v.645h.583v-4.02h-.583Zm4.896 0v.692c-.311-.49-.824-.785-1.461-.785-1.081 0-1.851.785-1.851 1.904 0 1.12.77 1.912 1.851 1.912.637 0 1.15-.295 1.461-.785v.653c0 .785-.544 1.244-1.469 1.244-.498 0-.98-.179-1.291-.474l-.256.459c.365.31.972.536 1.625.536 1.158 0 1.974-.73 1.974-1.765v-3.591h-.583Zm-1.353 3.203c-.785 0-1.344-.576-1.344-1.392 0-.808.559-1.384 1.344-1.384.793 0 1.353.576 1.353 1.384 0 .816-.56 1.392-1.353 1.392Zm4.981.388c-.792 0-1.344-.575-1.43-1.36h3.288c0-1.407-.691-2.325-1.904-2.325-1.081 0-1.983.894-1.983 2.092 0 1.236.964 2.114 2.037 2.114.56 0 1.267-.24 1.617-.622l-.357-.38c-.249.272-.793.481-1.268.481Zm-.023-3.164c.801 0 1.228.56 1.306 1.283h-2.705c.109-.777.684-1.283 1.399-1.283Zm4.748-.52c-.568 0-1.088.31-1.322.738v-.645h-.583v4.019h.583v-2.558c0-.56.568-1.034 1.244-1.034.591 0 1.003.459 1.003 1.112v2.48h.583v-2.558c0-.91-.622-1.554-1.508-1.554Zm3.528 2.611h.614v-.995c.909-.194 1.555-.824 1.555-1.515 0-.793-.646-1.423-1.633-1.423-.785 0-1.345.38-1.757.894l.397.396c.342-.42.746-.738 1.329-.738.653 0 1.05.45 1.05.925 0 .505-.646.925-1.555 1.003v1.453Zm.311 1.594a.424.424 0 0 0 .412-.427.42.42 0 0 0-.84 0c0 .233.187.427.428.427Z" fill="#434346"/><path d="m54.303 59.169-8.646-4.793c-.636-.378-1.399-.378-1.971 0l-8.647 4.793c-.636.378-1.017 1.009-1.017 1.766v9.648c0 .757.381 1.387 1.017 1.766l8.647 4.792c.636.316 1.399.316 1.97 0l8.648-4.792c.635-.379 1.017-1.01 1.017-1.766v-9.648c0-.694-.382-1.388-1.017-1.766Z" fill="#20123A"/><path d="m38.6 68.313-.51.315c-.38.19-.572.694-.38 1.072.19.379.698.568 1.08.379.063 0 .063-.063.127-.063l.509-.316c.381-.189.508-.693.318-1.072-.191-.378-.763-.567-1.145-.315Z" fill="url(#e)"/><path d="m41.778 66.547-1.08.568c-.382.252-.51.693-.318 1.072.127.252.381.378.699.378.127 0 .254-.063.382-.126l1.08-.567c.382-.19.509-.694.318-1.073-.19-.378-.7-.504-1.08-.252Z" fill="url(#f)"/><path d="M46.039 65.034c-.064-.19-.254-.316-.445-.379v-6.053a.89.89 0 0 0-.89-.757c-.382.063-.7.315-.763.757v6.117c-.19.063-.318.189-.445.378a5.067 5.067 0 0 0 0 1.387c.127.19.254.316.445.379v6.053c-.064.442.318.82.763.883.445.063.826-.315.89-.756V66.8c.19-.063.318-.19.445-.379a5.062 5.062 0 0 0 0-1.387Z" fill="url(#g)"/><path d="m48.136 62.953-1.08.63c-.382.19-.51.694-.319 1.072.255.379.7.505 1.081.316l1.081-.631c.381-.252.445-.757.19-1.135-.19-.316-.572-.442-.953-.252Z" fill="url(#h)"/><path d="M50.616 63.268c.127 0 .254-.063.381-.126l.509-.315c.381-.253.508-.757.254-1.135-.19-.379-.7-.505-1.017-.316l-.509.379c-.381.189-.509.693-.318 1.072.191.252.445.441.7.441Z" fill="url(#i)"/><path d="m51.569 68.628-.509-.315c-.381-.252-.89-.126-1.144.189-.255.378-.127.883.19 1.135.064 0 .064.063.128.063l.508.316c.128.063.255.126.382.126a.838.838 0 0 0 .826-.82c0-.316-.127-.568-.381-.694Z" fill="url(#j)"/><path d="m48.9 67.115-1.08-.568c-.382-.252-.89-.126-1.145.19-.255.378-.127.882.19 1.134.064 0 .064.064.128.064l1.08.567c.128.063.255.126.382.126.318 0 .572-.126.7-.378.317-.442.19-.946-.255-1.135Z" fill="url(#k)"/><path d="m40.697 64.34 1.081.63c.128.064.255.127.382.127a.838.838 0 0 0 .826-.82c0-.315-.127-.568-.445-.694l-1.08-.63c-.382-.19-.89-.063-1.081.315-.191.378-.064.883.317 1.072Z" fill="url(#l)"/><path d="m39.362 61.755-.508-.316c-.382-.189-.89-.063-1.081.316-.19.378-.064.882.318 1.072l.508.315c.382.19.89.063 1.081-.315.191-.379.064-.883-.318-1.072Z" fill="url(#m)"/></g></g><defs><linearGradient id="d" x1="161.917" y1="106.068" x2="124.23" y2="144.146" gradientUnits="userSpaceOnUse"><stop stop-color="#FF9100"/><stop offset=".52" stop-color="#F10366"/><stop offset="1" stop-color="#6173FF"/></linearGradient><linearGradient id="e" x1="37.321" y1="69.165" x2="52.447" y2="69.165" gradientUnits="userSpaceOnUse"><stop stop-color="#9059FF"/><stop offset="1" stop-color="#F770FF"/></linearGradient><linearGradient id="f" x1="37.322" y1="67.514" x2="52.447" y2="67.514" gradientUnits="userSpaceOnUse"><stop stop-color="#9059FF"/><stop offset="1" stop-color="#F770FF"/></linearGradient><linearGradient id="g" x1="37.322" y1="65.814" x2="52.448" y2="65.814" gradientUnits="userSpaceOnUse"><stop stop-color="#9059FF"/><stop offset="1" stop-color="#F770FF"/></linearGradient><linearGradient id="h" x1="37.321" y1="63.968" x2="52.447" y2="63.968" gradientUnits="userSpaceOnUse"><stop stop-color="#9059FF"/><stop offset="1" stop-color="#F770FF"/></linearGradient><linearGradient id="i" x1="37.321" y1="62.312" x2="52.447" y2="62.312" gradientUnits="userSpaceOnUse"><stop stop-color="#9059FF"/><stop offset="1" stop-color="#F770FF"/></linearGradient><linearGradient id="j" x1="37.321" y1="69.133" x2="52.446" y2="69.133" gradientUnits="userSpaceOnUse"><stop stop-color="#9059FF"/><stop offset="1" stop-color="#F770FF"/></linearGradient><linearGradient id="k" x1="37.322" y1="67.497" x2="52.448" y2="67.497" gradientUnits="userSpaceOnUse"><stop stop-color="#9059FF"/><stop offset="1" stop-color="#F770FF"/></linearGradient><linearGradient id="l" x1="37.322" y1="63.955" x2="52.447" y2="63.955" gradientUnits="userSpaceOnUse"><stop stop-color="#9059FF"/><stop offset="1" stop-color="#F770FF"/></linearGradient><linearGradient id="m" x1="37.322" y1="62.303" x2="52.447" y2="62.303" gradientUnits="userSpaceOnUse"><stop stop-color="#9059FF"/><stop offset="1" stop-color="#F770FF"/></linearGradient><clipPath id="a"><rect width="240" height="176" rx="8.69" fill="#fff"/></clipPath><clipPath id="c"><rect width="232" height="169" rx="8" fill="#fff"/></clipPath><filter id="b" x="-1" y="-1" width="240" height="177" filterUnits="userSpaceOnUse" color-interpolation-filters="sRGB"><feFlood flood-opacity="0" result="BackgroundImageFix"/><feColorMatrix in="SourceAlpha" values="0 0 0 0 0 0 0 0 0 0 0 0 0 0 0 0 0 0 127 0" result="hardAlpha"/><feOffset dx="3" dy="3"/><feGaussianBlur stdDeviation="2"/><feComposite in2="hardAlpha" operator="out"/><feColorMatrix values="0 0 0 0 0 0 0 0 0 0 0 0 0 0 0 0 0 0 0.1 0"/><feBlend in2="BackgroundImageFix" result="effect1_dropShadow_1043_2649"/><feBlend in="SourceGraphic" in2="effect1_dropShadow_1043_2649" result="shape"/></filter></defs></svg>
