<svg width="240" height="176" viewBox="0 0 240 176" fill="none" xmlns="http://www.w3.org/2000/svg"><g clip-path="url(#a)"><g filter="url(#b)"><path d="M9.28 0h213.44c5.104 0 9.28 3.26 9.28 7.243v154.514c0 3.984-4.176 7.243-9.28 7.243H9.28C4.176 169 0 165.741 0 161.757V7.243C0 3.259 4.176 0 9.28 0Z" fill="#F2F2F5"/></g><path fill-rule="evenodd" clip-rule="evenodd" d="M131.792 97.646h88.226v24.383h-88.226V97.646Z" fill="#B1B1B3"/><path fill-rule="evenodd" clip-rule="evenodd" d="M13.237 57.776h205.776v32.291H13.237v-32.29Z" fill="#fff" stroke="#979797" stroke-width="1.617"/><path fill-rule="evenodd" clip-rule="evenodd" d="M175.572 62.39c.332.263.73.592.995.922.398.395.73.79 1.194 1.252a51.706 51.706 0 0 1 2.389 2.965 18.17 18.17 0 0 1 1.26 1.846c.199.263.332.593.464.922.067.132.133.33.133.461.066.198.066.462 0 .66l-.199.395a.794.794 0 0 1-.332.33.507.507 0 0 1-.331.131c-.199.066-.465.198-.664.198-.53.132-1.127.263-1.791.395a90.54 90.54 0 0 1-4.643.527c-1.062.066-1.99.132-2.786.132-.398 0-.73 0-1.128-.066-.199 0-.332-.066-.531-.131-.132-.066-.199-.066-.331-.198-.266-.198-.398-.462-.398-.725 0-.132 0-.264.066-.33.066-.131.066-.197.133-.33.066-.13.199-.197.265-.263l.265-.197c.531-.33.995-.725 1.46-1.12.398-.33.796-.726 1.127-1.187.465-.659.796-1.45.995-2.24.199-1.187.266-2.439.266-3.625 0-.132 0-.198.066-.33.066-.329.332-.593.597-.724.133-.066.265-.066.464-.066s.398.066.531.132c.066.065.199.065.265.131 0 0 .133.066.199.132Z" fill="#FF8D04"/><path d="m208.466 67.266-9.021-5.009c-.664-.395-1.46-.395-2.057 0l-9.021 5.009c-.664.395-1.062 1.054-1.062 1.845v10.083c0 .79.398 1.45 1.062 1.845l9.021 5.008c.663.33 1.459.33 2.057 0l9.021-5.008c.663-.396 1.061-1.055 1.061-1.845V69.11c0-.725-.398-1.45-1.061-1.845Z" fill="#20123A"/><path d="m192.081 76.821-.53.33c-.398.197-.597.725-.398 1.12.199.395.729.593 1.127.395.067 0 .067-.066.133-.066l.531-.329c.398-.198.531-.725.332-1.12-.199-.396-.797-.593-1.195-.33Z" fill="url(#c)"/><path d="m195.398 74.976-1.127.593c-.398.264-.531.725-.332 1.12.133.264.398.396.73.396.132 0 .265-.066.398-.132l1.127-.593c.398-.198.531-.725.332-1.12-.199-.396-.73-.528-1.128-.264Z" fill="url(#d)"/><path d="M199.842 73.394c-.067-.197-.266-.33-.465-.395v-6.326a.928.928 0 0 0-.928-.791c-.398.066-.73.33-.796.79v6.393c-.199.066-.332.198-.465.395a5.333 5.333 0 0 0 0 1.45c.133.198.266.33.465.395v6.327c-.067.461.331.857.796.922.464.066.862-.329.928-.79V75.24c.199-.066.332-.198.465-.396a5.327 5.327 0 0 0 0-1.45Z" fill="url(#e)"/><path d="m202.031 71.22-1.128.659c-.398.197-.53.725-.331 1.12.265.395.729.527 1.127.33l1.128-.66c.398-.263.464-.79.199-1.186-.199-.33-.597-.461-.995-.263Z" fill="url(#f)"/><path d="M204.619 71.55c.132 0 .265-.067.398-.133l.53-.33c.398-.263.531-.79.266-1.185-.199-.396-.73-.528-1.062-.33l-.53.395c-.398.198-.531.725-.332 1.12.199.264.464.462.73.462Z" fill="url(#g)"/><path d="m205.613 77.15-.53-.329c-.399-.263-.929-.132-1.195.198-.265.395-.132.922.199 1.186.067 0 .067.066.133.066l.531.33c.133.065.265.131.398.131a.875.875 0 0 0 .862-.856c0-.33-.132-.594-.398-.725Z" fill="url(#h)"/><path d="m202.827 75.569-1.127-.593c-.398-.264-.929-.132-1.194.198-.266.395-.133.922.199 1.186.066 0 .066.066.132.066l1.128.593c.133.066.265.132.398.132.332 0 .597-.132.73-.396.331-.461.199-.988-.266-1.186Z" fill="url(#i)"/><path d="m194.271 72.67 1.127.659c.133.065.266.131.398.131a.875.875 0 0 0 .863-.856c0-.33-.133-.594-.465-.725l-1.127-.66c-.398-.197-.929-.065-1.128.33-.199.396-.066.923.332 1.12Z" fill="url(#j)"/><path d="m192.877 69.968-.53-.33c-.398-.198-.929-.066-1.128.33-.199.395-.066.922.332 1.12l.53.33c.398.197.929.065 1.128-.33.199-.395.066-.923-.332-1.12Z" fill="url(#k)"/><path d="M177.181 68.057c-18.793-6.086-34.222-4.168-47.435 4.696-10.34 6.946-18.546 17.265-27.82 33.274l-.164.264c-1.641 2.845-10.505 18.787-13.295 23.484l-.492.793c-1.888 3.176-4.103 6.152-6.565 8.997-9.11 10.121-21.091 13.362-32.252 9.856l-.41-.132c-1.478-.463-2.873-1.059-4.268-1.72l-.246-.132.328-.265c11.982-10.452 18.957-22.822 16.823-33.075-2.544-12.568-11.735-17.596-21.747-13.495-9.438 3.837-15.593 14.289-13.87 25.667l.083.396c1.395 8.666 6.565 16.207 13.869 20.97l.164.066-.903.728a117.32 117.32 0 0 1-4.842 3.506C21.173 160.6 8.125 164.437 0 161.99v2.447c9.273 2.249 22.814-1.918 35.945-10.716l.492-.331c1.888-1.257 3.693-2.58 5.335-3.969l.41-.331.246.133a30.552 30.552 0 0 0 5.58 2.315c12.393 3.903 25.77.264 35.617-10.65a68.162 68.162 0 0 0 7.14-9.857c2.544-4.035 10.915-19.117 13.213-23.284l.902-1.522c8.946-15.28 16.906-25.27 26.672-31.818 12.31-8.269 26.753-10.12 44.562-4.3.738.265 1.559-.066 1.805-.661.329-.463 0-1.125-.738-1.39Zm-135.163 77.99-.493-.198c-6.811-4.498-11.653-11.576-12.884-19.845-1.56-10.452 4.021-19.911 12.392-23.285 8.125-3.307 15.428.662 17.644 11.841l.082.331c1.642 9.459-5.17 21.234-16.741 31.156Z" fill="url(#l)"/><path d="M156.542 112.807h1.22l-2.057-5.049h-1.213l-2.058 5.049h1.213l.323-.794h2.249l.323.794Zm-2.197-1.712.75-1.845.749 1.845h-1.499Zm6.328-2.176c-.53 0-.971.228-1.272.618v-1.867h-1.073v5.137h1.073v-.536c.301.397.742.624 1.272.624 1.014 0 1.749-.823 1.749-1.991 0-1.161-.735-1.985-1.749-1.985Zm-.309 3.072c-.522 0-.904-.382-.963-.94v-.294c.059-.551.441-.934.963-.934.595 0 1.014.449 1.014 1.081 0 .639-.419 1.087-1.014 1.087Zm4.683.904c1.124 0 2.065-.911 2.065-1.991 0-1.081-.941-1.985-2.065-1.985-1.132 0-2.08.904-2.08 1.985 0 1.08.948 1.991 2.08 1.991Zm0-.904c-.574 0-1.051-.499-1.051-1.087s.477-1.081 1.051-1.081c.565 0 1.043.493 1.043 1.081s-.478 1.087-1.043 1.087Zm4.988-3.072c-.492 0-.918.221-1.146.566v-.477h-1.073v3.799h1.073v-2.271l.007.022c0-.411.345-.735.794-.735.426 0 .72.324.72.794v2.19h1.036v-2.418c0-.86-.588-1.47-1.411-1.47Zm4.515 0c-.493 0-.919.221-1.147.566v-.477h-1.073v3.799h1.073v-2.271l.007.022c0-.411.346-.735.794-.735.426 0 .72.324.72.794v2.19h1.037v-2.418c0-.86-.588-1.47-1.411-1.47Zm2.853-.433a.582.582 0 0 0 .573-.588.583.583 0 0 0-.573-.573.587.587 0 0 0-.588.573c0 .323.257.588.588.588Zm-.544 4.321h1.073v-3.799h-1.073v3.799Zm3.803-.86c-.448 0-.779-.279-.904-.691h2.741c0-1.433-.698-2.337-1.888-2.337-1.11 0-1.955.831-1.955 1.977 0 1.169.882 1.999 2.013 1.999.559 0 1.213-.235 1.551-.588l-.683-.698c-.206.199-.574.338-.875.338Zm-.007-2.08c.433 0 .713.243.816.618h-1.698a.919.919 0 0 1 .882-.618Zm3.643-.154v-.705h-1.073v3.799h1.073v-1.815c0-.713.507-1.169 1.301-1.169v-.904a1.42 1.42 0 0 0-1.301.794Zm3.713 2.234c-.448 0-.779-.279-.904-.691h2.742c0-1.433-.698-2.337-1.889-2.337-1.11 0-1.955.831-1.955 1.977 0 1.169.882 1.999 2.014 1.999.558 0 1.212-.235 1.55-.588l-.683-.698c-.206.199-.573.338-.875.338Zm-.007-2.08c.434 0 .713.243.816.618h-1.698a.92.92 0 0 1 .882-.618Zm4.768-.948c-.492 0-.919.221-1.146.566v-.477h-1.073v3.799h1.073v-2.271l.007.022c0-.411.345-.735.794-.735.426 0 .72.324.72.794v2.19h1.036v-2.418c0-.86-.588-1.47-1.411-1.47Z" fill="#fff"/><path d="M25.702 70.468h-3.559l-.428 2.101h3.224l-.103.532h-3.233l-.454 2.212h3.55l-.12.523h-4.107l1.226-5.89h4.107l-.103.522Zm.394 2.778h2.221l-.111.523h-2.221l.111-.523Zm4.075-3.3h.55l1.362 4.218 3.13-4.219h.549l-1.226 5.89h-.55l.995-4.724-3.112 4.219-1.38-4.219-.995 4.725h-.549l1.226-5.89Zm10.592 1.457-.926 4.433h-.532l.18-.849a2.674 2.674 0 0 1-.823.703 2.104 2.104 0 0 1-.994.249c-.297 0-.572-.08-.823-.24a1.755 1.755 0 0 1-.6-.643 1.92 1.92 0 0 1-.215-.9c0-.492.12-.958.36-1.398a2.97 2.97 0 0 1 .969-1.055 2.24 2.24 0 0 1 1.269-.403c.326 0 .612.094.857.283.252.183.438.429.558.737l.188-.917h.532Zm-2.992 4.047c.446 0 .849-.154 1.209-.463.36-.309.608-.7.745-1.175l.078-.377c.017-.114.025-.226.025-.334 0-.246-.057-.47-.171-.67a1.278 1.278 0 0 0-1.132-.643 1.61 1.61 0 0 0-.952.327 2.391 2.391 0 0 0-.72.866 2.45 2.45 0 0 0-.274 1.14c0 .246.051.472.154.677.109.2.255.36.437.48.183.115.383.172.6.172Zm4.019-4.047h.532l-.927 4.433h-.531l.926-4.433Zm.489-.866a.355.355 0 0 1-.249-.086.344.344 0 0 1-.086-.24c0-.103.04-.197.12-.283a.375.375 0 0 1 .283-.128c.097 0 .178.031.24.094a.326.326 0 0 1 .095.24.393.393 0 0 1-.129.283.378.378 0 0 1-.274.12Zm1.403-.695h.531l-1.243 5.994h-.532l1.244-5.993Zm.793 3.404h2.221l-.111.523h-2.221l.111-.523Zm7.437 2.59-.325-1.39h-3.37l-.9 1.39h-.618l3.824-5.89h.61l-.01.008 1.372 5.882h-.583Zm-3.352-1.92h2.907l-.772-3.293-2.135 3.292Zm9.77-4.073-1.244 5.993h-.532l.18-.858c-.24.298-.517.532-.831.704a2.047 2.047 0 0 1-.995.257c-.297 0-.571-.08-.823-.24a1.755 1.755 0 0 1-.6-.643 1.92 1.92 0 0 1-.215-.9c0-.492.12-.958.36-1.398a2.97 2.97 0 0 1 .97-1.055 2.24 2.24 0 0 1 1.268-.403c.326 0 .615.094.866.283.252.183.435.432.55.746l.514-2.486h.531ZM55.01 75.45c.303 0 .592-.074.866-.223.274-.154.509-.36.703-.617.195-.263.332-.558.412-.883l.043-.206c.023-.12.034-.26.034-.42 0-.246-.057-.47-.172-.67a1.278 1.278 0 0 0-1.132-.643 1.61 1.61 0 0 0-.951.327 2.39 2.39 0 0 0-.72.866 2.45 2.45 0 0 0-.275 1.14c0 .246.052.472.155.677.108.2.254.36.437.48.183.115.383.172.6.172Zm4.388-3.181c.183-.303.443-.54.78-.712a2.423 2.423 0 0 1 1.115-.257l-.069.489c-.469 0-.892.134-1.269.403a1.936 1.936 0 0 0-.755 1.029l-.548 2.615h-.532l.926-4.433h.532l-.18.866Zm2.274 1.56a1.785 1.785 0 0 0-.008.206c0 .423.12.766.36 1.03.245.256.574.385.986.385.285 0 .574-.052.866-.154a2.17 2.17 0 0 0 .72-.412l.283.386c-.223.2-.523.363-.9.489-.378.12-.732.18-1.064.18-.342 0-.648-.077-.917-.232-.269-.16-.48-.38-.635-.66-.148-.28-.222-.6-.222-.96 0-.475.128-.926.385-1.355a2.98 2.98 0 0 1 1.012-1.037 2.423 2.423 0 0 1 1.312-.395c.291 0 .557.052.797.154.24.103.432.25.575.438.143.183.214.394.214.634 0 .395-.186.712-.557.952-.372.234-.883.352-1.535.352h-1.672Zm2.127-2.04c-.458 0-.872.148-1.244.446a2.381 2.381 0 0 0-.771 1.106h1.663c.463 0 .823-.069 1.08-.206.258-.137.386-.332.386-.583 0-.229-.106-.412-.317-.549-.206-.143-.472-.214-.797-.214Zm3.21 4.15c-.32 0-.632-.06-.935-.18a2.436 2.436 0 0 1-.789-.498l.343-.36c.2.172.423.306.669.403.251.097.497.146.737.146.218 0 .423-.04.618-.12.2-.08.36-.189.48-.326a.706.706 0 0 0 .18-.463c0-.148-.077-.28-.232-.394-.148-.115-.394-.229-.737-.343-.451-.138-.777-.289-.977-.455a.762.762 0 0 1-.292-.6c0-.28.077-.529.232-.746.16-.223.374-.394.643-.514.268-.126.563-.189.883-.189.263 0 .526.046.789.137.268.092.508.218.72.377l-.326.378a1.99 1.99 0 0 0-.583-.292 1.88 1.88 0 0 0-.626-.111c-.337 0-.623.083-.857.248-.229.16-.343.36-.343.6 0 .126.077.246.231.36.16.115.42.235.78.36.44.138.755.292.944.464.194.171.291.38.291.626 0 .274-.088.526-.266.754-.171.229-.4.409-.686.54-.28.132-.577.198-.891.198Zm3.675 0c-.32 0-.631-.06-.934-.18a2.436 2.436 0 0 1-.789-.498l.343-.36c.2.172.423.306.669.403.251.097.497.146.737.146.217 0 .423-.04.618-.12.2-.08.36-.189.48-.326a.706.706 0 0 0 .18-.463c0-.148-.077-.28-.232-.394-.148-.115-.394-.229-.737-.343-.452-.138-.777-.289-.978-.455a.763.763 0 0 1-.291-.6c0-.28.077-.529.231-.746.16-.223.375-.394.644-.514.268-.126.563-.189.883-.189.263 0 .525.046.788.137.27.092.51.218.72.377l-.325.378a1.991 1.991 0 0 0-.583-.292 1.88 1.88 0 0 0-.626-.111c-.337 0-.623.083-.858.248-.228.16-.343.36-.343.6 0 .126.078.246.232.36.16.115.42.235.78.36.44.138.755.292.943.464.195.171.292.38.292.626 0 .274-.089.526-.266.754-.171.229-.4.409-.686.54-.28.132-.577.198-.891.198Zm3.012-2.11a1.809 1.809 0 0 0-.008.206c0 .423.12.766.36 1.03.245.256.574.385.986.385.285 0 .574-.052.866-.154a2.17 2.17 0 0 0 .72-.412l.283.386c-.223.2-.523.363-.9.489-.378.12-.732.18-1.064.18-.343 0-.648-.077-.917-.232a1.72 1.72 0 0 1-.635-.66c-.148-.28-.223-.6-.223-.96 0-.475.13-.926.386-1.355a2.98 2.98 0 0 1 1.012-1.037 2.423 2.423 0 0 1 1.312-.395c.291 0 .557.052.797.154.24.103.432.25.575.438.143.183.214.394.214.634 0 .395-.186.712-.557.952-.372.234-.883.352-1.535.352h-1.672Zm2.126-2.04a1.94 1.94 0 0 0-1.243.446 2.38 2.38 0 0 0-.771 1.106h1.663c.463 0 .823-.069 1.08-.206.258-.137.386-.332.386-.583 0-.229-.106-.412-.317-.549-.206-.143-.472-.214-.797-.214Zm4.975 2.04a1.809 1.809 0 0 0-.009.206c0 .423.12.766.36 1.03.246.256.575.385.986.385.286 0 .575-.052.866-.154a2.17 2.17 0 0 0 .72-.412l.283.386c-.223.2-.523.363-.9.489-.377.12-.732.18-1.063.18-.343 0-.649-.077-.918-.232-.268-.16-.48-.38-.634-.66-.149-.28-.223-.6-.223-.96 0-.475.129-.926.386-1.355a2.98 2.98 0 0 1 1.012-1.037 2.423 2.423 0 0 1 1.311-.395c.292 0 .558.052.798.154.24.103.431.25.574.438.143.183.215.394.215.634 0 .395-.186.712-.558.952-.371.234-.883.352-1.534.352h-1.672Zm2.126-2.04a1.94 1.94 0 0 0-1.243.446 2.38 2.38 0 0 0-.772 1.106h1.663c.463 0 .824-.069 1.08-.206.258-.137.387-.332.387-.583 0-.229-.106-.412-.318-.549-.205-.143-.471-.214-.797-.214Zm2.733-.386h.532l-.926 4.433h-.532l.926-4.433Zm.489-.866a.355.355 0 0 1-.249-.086.343.343 0 0 1-.085-.24c0-.103.04-.197.12-.283a.375.375 0 0 1 .283-.128c.097 0 .177.031.24.094a.325.325 0 0 1 .094.24.393.393 0 0 1-.129.283.377.377 0 0 1-.274.12Zm3.032.763c.423 0 .76.12 1.012.36s.377.558.377.952c0 .109-.023.283-.068.523-.046.234-.123.603-.232 1.106-.16.743-.271 1.275-.334 1.595H89.4l.36-1.732c.092-.429.157-.746.198-.952.04-.211.06-.36.06-.446 0-.28-.086-.503-.258-.669-.165-.165-.391-.248-.677-.248-.383 0-.735.114-1.055.343-.314.223-.517.497-.608.823l-.6 2.88h-.532l.926-4.432h.531l-.145.703c.171-.24.4-.434.686-.583.285-.149.582-.223.891-.223Zm6.723.103-.832 3.978c-.08.383-.24.72-.48 1.012-.24.292-.534.517-.883.677a2.66 2.66 0 0 1-1.123.24c-.343 0-.67-.057-.978-.17-.303-.115-.54-.261-.711-.438l.291-.395c.143.16.337.286.583.378.246.091.512.137.798.137.503 0 .934-.135 1.294-.403.366-.269.595-.626.686-1.072l.154-.763a2.444 2.444 0 0 1-.831.686c-.32.16-.655.24-1.003.24-.503 0-.906-.151-1.21-.454-.302-.31-.454-.715-.454-1.218 0-.434.112-.846.335-1.235.228-.388.531-.703.908-.943a2.24 2.24 0 0 1 1.227-.36c.377 0 .697.089.96.266.263.177.446.42.549.729l.188-.892h.532Zm-2.907 3.618c.297 0 .578-.066.84-.197a2.141 2.141 0 0 0 1.09-1.303l.06-.283c.01-.103.017-.177.017-.223 0-.372-.115-.669-.343-.892-.223-.223-.523-.334-.9-.334a1.86 1.86 0 0 0-.987.283 2.143 2.143 0 0 0-.737.746 1.872 1.872 0 0 0-.274.969c0 .371.111.671.334.9.223.223.523.334.9.334Zm3.796-1.192a1.809 1.809 0 0 0-.008.206c0 .423.12.766.36 1.03.246.256.575.385.986.385.286 0 .575-.052.866-.154a2.17 2.17 0 0 0 .72-.412l.283.386c-.223.2-.523.363-.9.489-.377.12-.732.18-1.063.18-.343 0-.649-.077-.918-.232-.268-.16-.48-.38-.634-.66-.149-.28-.223-.6-.223-.96 0-.475.129-.926.386-1.355.257-.434.594-.78 1.011-1.037a2.423 2.423 0 0 1 1.312-.395c.292 0 .558.052.798.154.24.103.431.25.574.438.143.183.215.394.215.634 0 .395-.186.712-.558.952-.371.234-.883.352-1.534.352H96.79Zm2.127-2.04c-.457 0-.872.148-1.243.446a2.381 2.381 0 0 0-.772 1.106h1.663c.463 0 .823-.069 1.08-.206.258-.137.387-.332.387-.583 0-.229-.106-.412-.318-.549-.206-.143-.471-.214-.797-.214Zm4.92-.489c.297 0 .571.08.823.24.251.154.448.369.591.643.149.269.223.566.223.892 0 .492-.12.96-.36 1.406-.24.44-.56.795-.96 1.063a2.236 2.236 0 0 1-1.261.395c-.331 0-.623-.095-.874-.283a1.599 1.599 0 0 1-.549-.755l-.197.935h-.532l1.244-5.993h.531l-.497 2.409a2.57 2.57 0 0 1 .823-.695c.314-.171.646-.257.995-.257Zm-.884 4.15c.338 0 .658-.109.961-.326.308-.217.554-.503.737-.857.183-.36.275-.743.275-1.15 0-.245-.055-.468-.163-.668a1.168 1.168 0 0 0-.429-.48 1.072 1.072 0 0 0-.6-.18c-.303 0-.592.074-.866.223-.269.148-.5.354-.695.617a2.376 2.376 0 0 0-.411.875l-.052.231c-.023.12-.034.257-.034.412 0 .377.12.688.36.934.24.246.546.369.917.369Zm3.659-1.62a2.03 2.03 0 0 0-.008.205c0 .423.12.766.36 1.03.246.256.574.385.986.385.286 0 .574-.052.866-.154.297-.109.537-.246.72-.412l.283.386c-.223.2-.523.363-.9.489-.378.12-.732.18-1.063.18-.343 0-.649-.077-.918-.232-.269-.16-.48-.38-.634-.66-.149-.28-.223-.6-.223-.96 0-.475.128-.926.386-1.355a2.98 2.98 0 0 1 1.011-1.037 2.426 2.426 0 0 1 1.312-.395c.292 0 .557.052.798.154.24.103.431.25.574.438a1 1 0 0 1 .214.634c0 .395-.185.712-.557.952-.372.234-.883.352-1.535.352h-1.672Zm2.127-2.041c-.458 0-.872.148-1.244.446a2.381 2.381 0 0 0-.771 1.106h1.663c.463 0 .823-.069 1.08-.206.258-.137.386-.332.386-.583 0-.229-.105-.412-.317-.549-.206-.143-.471-.214-.797-.214Zm4.696-.489c.423 0 .761.12 1.012.36.252.24.377.558.377.952 0 .109-.022.283-.068.523a63.11 63.11 0 0 1-.232 1.106c-.16.743-.271 1.275-.334 1.595h-.532l.361-1.732c.091-.429.157-.746.197-.952.04-.211.06-.36.06-.446 0-.28-.086-.503-.257-.669-.166-.165-.392-.248-.678-.248-.383 0-.734.114-1.054.343-.315.223-.518.497-.609.823l-.6 2.88h-.532l.926-4.432h.532l-.146.703a1.9 1.9 0 0 1 .686-.583c.286-.149.583-.223.891-.223ZM119.333 46.085l-3.415-4.852c1.749-.812 2.832-2.415 2.832-4.456 0-2.936-2.27-4.998-5.477-4.998h-6.851v14.306h4.04v-4.31h1.25l3.019 4.31h4.602Zm-8.871-10.64h2.478c.958 0 1.645.562 1.645 1.332s-.687 1.333-1.645 1.333h-2.478v-2.666Zm20.246 10.64h4.56l-5.497-14.306h-4.561l-5.497 14.306h4.56l.729-1.916h4.977l.729 1.916Zm-4.561-4.894 1.354-3.477 1.333 3.477h-2.687Zm10.392 4.894h7.996c2.915 0 4.997-1.562 4.997-3.852 0-1.583-.979-2.936-2.644-3.644 1.249-.604 1.978-1.812 1.978-3.207 0-2.082-1.895-3.602-4.623-3.602h-7.704v14.305Zm4.018-8.746v-2.165h2.707c.833 0 1.437.458 1.437 1.082 0 .625-.604 1.083-1.437 1.083h-2.707Zm0 5.352V40.4h3.311c.875 0 1.5.478 1.5 1.144 0 .667-.625 1.146-1.5 1.146h-3.311Zm20.551 3.394h4.561l-5.498-14.306h-4.56l-5.497 14.306h4.56l.729-1.916h4.977l.728 1.916Zm-4.56-4.894 1.354-3.477 1.332 3.477h-2.686Zm12.425 4.894h4.039V35.382h4.227V31.78h-12.493v3.602h4.227v10.703Zm13.421 0h4.039V35.382h4.227V31.78h-12.493v3.602h4.227v10.703ZM19.694 46.51h8.554V16.218h-6.835l-10.142 6.79 3.351 5.91 5.072-3.087v20.68Zm27.253.53c8.378 0 14.287-6.482 14.287-15.698 0-9.172-5.909-15.654-14.287-15.654S32.66 22.17 32.66 31.342c0 9.216 5.909 15.698 14.287 15.698Zm0-7.761c-3.219 0-5.468-3.307-5.468-7.937 0-4.63 2.25-7.893 5.468-7.893 3.22 0 5.468 3.263 5.468 7.893s-2.249 7.937-5.468 7.937Zm25.08-7.673c4.719 0 7.938-3.395 7.938-7.849 0-4.321-3.087-7.849-7.937-7.849-4.807 0-7.894 3.528-7.894 7.85 0 4.453 3.175 7.848 7.894 7.848ZM68.28 46.511H74.1l21.298-30.294h-5.82L68.279 46.51Zm3.749-19.623c-1.411 0-2.514-1.146-2.514-3.13 0-1.985 1.059-3.087 2.514-3.087 1.455 0 2.557 1.146 2.557 3.086 0 2.029-1.102 3.131-2.557 3.131Zm19.578 20.108c4.674 0 7.893-3.44 7.893-7.85 0-4.365-3.086-7.892-7.893-7.892-4.718 0-7.937 3.44-7.937 7.893 0 4.321 3.13 7.849 7.937 7.849Zm0-4.763c-1.455 0-2.557-1.146-2.557-3.086 0-2.073 1.058-3.131 2.557-3.131 1.411 0 2.558 1.146 2.558 3.13 0 1.985-1.103 3.087-2.558 3.087Z" fill="#C1C1C5"/></g><defs><linearGradient id="c" x1="190.748" y1="77.712" x2="206.529" y2="77.712" gradientUnits="userSpaceOnUse"><stop stop-color="#9059FF"/><stop offset="1" stop-color="#F770FF"/></linearGradient><linearGradient id="d" x1="190.748" y1="75.986" x2="206.53" y2="75.986" gradientUnits="userSpaceOnUse"><stop stop-color="#9059FF"/><stop offset="1" stop-color="#F770FF"/></linearGradient><linearGradient id="e" x1="190.747" y1="74.21" x2="206.528" y2="74.21" gradientUnits="userSpaceOnUse"><stop stop-color="#9059FF"/><stop offset="1" stop-color="#F770FF"/></linearGradient><linearGradient id="f" x1="190.747" y1="72.281" x2="206.529" y2="72.281" gradientUnits="userSpaceOnUse"><stop stop-color="#9059FF"/><stop offset="1" stop-color="#F770FF"/></linearGradient><linearGradient id="g" x1="190.748" y1="70.55" x2="206.529" y2="70.55" gradientUnits="userSpaceOnUse"><stop stop-color="#9059FF"/><stop offset="1" stop-color="#F770FF"/></linearGradient><linearGradient id="h" x1="190.747" y1="77.679" x2="206.529" y2="77.679" gradientUnits="userSpaceOnUse"><stop stop-color="#9059FF"/><stop offset="1" stop-color="#F770FF"/></linearGradient><linearGradient id="i" x1="190.748" y1="75.968" x2="206.529" y2="75.968" gradientUnits="userSpaceOnUse"><stop stop-color="#9059FF"/><stop offset="1" stop-color="#F770FF"/></linearGradient><linearGradient id="j" x1="190.748" y1="72.267" x2="206.53" y2="72.267" gradientUnits="userSpaceOnUse"><stop stop-color="#9059FF"/><stop offset="1" stop-color="#F770FF"/></linearGradient><linearGradient id="k" x1="190.748" y1="70.54" x2="206.529" y2="70.54" gradientUnits="userSpaceOnUse"><stop stop-color="#9059FF"/><stop offset="1" stop-color="#F770FF"/></linearGradient><linearGradient id="l" x1="177.083" y1="92.551" x2="42.71" y2="197.705" gradientUnits="userSpaceOnUse"><stop stop-color="#FF9100"/><stop offset=".52" stop-color="#F10366"/><stop offset="1" stop-color="#6173FF"/></linearGradient><clipPath id="a"><rect width="240" height="176" rx="7.887" fill="#fff"/></clipPath><filter id="b" x="-1" y="-1" width="240" height="177" filterUnits="userSpaceOnUse" color-interpolation-filters="sRGB"><feFlood flood-opacity="0" result="BackgroundImageFix"/><feColorMatrix in="SourceAlpha" values="0 0 0 0 0 0 0 0 0 0 0 0 0 0 0 0 0 0 127 0" result="hardAlpha"/><feOffset dx="3" dy="3"/><feGaussianBlur stdDeviation="2"/><feComposite in2="hardAlpha" operator="out"/><feColorMatrix values="0 0 0 0 0 0 0 0 0 0 0 0 0 0 0 0 0 0 0.1 0"/><feBlend in2="BackgroundImageFix" result="effect1_dropShadow_1043_2699"/><feBlend in="SourceGraphic" in2="effect1_dropShadow_1043_2699" result="shape"/></filter></defs></svg>
