<svg width="240" height="176" viewBox="0 0 240 176" fill="none" xmlns="http://www.w3.org/2000/svg"><g clip-path="url(#a)"><g filter="url(#b)"><path d="M222.72 0H9.28C4.155 0 0 3.243 0 7.243v154.514c0 4 4.155 7.243 9.28 7.243h213.44c5.125 0 9.28-3.243 9.28-7.243V7.243c0-4-4.155-7.243-9.28-7.243Z" fill="#F7F7F8"/></g><path d="M210.826 123.051H18.042c-1.753 0-3.174 1.811-3.174 4.044v22.245c0 2.234 1.42 4.044 3.174 4.044h192.784c1.753 0 3.174-1.81 3.174-4.044v-22.245c0-2.233-1.421-4.044-3.174-4.044Z" fill="#fff"/><path d="M127.12 136.398H63.991c-.995 0-1.803.588-1.803 1.314v3.438c0 .726.808 1.314 1.803 1.314h63.129c.995 0 1.803-.588 1.803-1.314v-3.438c0-.726-.808-1.314-1.803-1.314Z" fill="#D7D7DB"/><path d="M143.366 136.636h-3.43c-.722 0-1.306.584-1.306 1.304v3.411c0 .721.584 1.305 1.306 1.305h3.43c.721 0 1.306-.584 1.306-1.305v-3.411c0-.72-.585-1.304-1.306-1.304Z" fill="#EDEDF0"/><path d="M198.919 133.971h-11.164a5.44 5.44 0 0 0-5.445 5.436 5.44 5.44 0 0 0 5.445 5.436h11.164a5.44 5.44 0 0 0 5.445-5.436 5.44 5.44 0 0 0-5.445-5.436Z" fill="#0060DF" stroke="#0060DF" stroke-width="2.061"/><path d="M198.891 144.157c2.635 0 4.771-2.127 4.771-4.75s-2.136-4.75-4.771-4.75-4.771 2.127-4.771 4.75 2.136 4.75 4.771 4.75Z" fill="#fff"/><g clip-path="url(#c)"><path d="M47.563 148.893H20.865a2.366 2.366 0 0 1-2.356-2.375v-17.023a2.366 2.366 0 0 1 2.356-2.375h26.698a2.366 2.366 0 0 1 2.356 2.375v17.023a2.366 2.366 0 0 1-2.356 2.375Z" fill="#0491ED"/><path d="M18.51 146.516a2.366 2.366 0 0 0 2.355 2.376h26.698a2.366 2.366 0 0 0 2.356-2.376l-15.705-11.6-15.705 11.6Z" fill="#0366A9"/><g filter="url(#d)"><path d="M49.919 129.495a2.366 2.366 0 0 0-2.356-2.375H20.865a2.366 2.366 0 0 0-2.356 2.375l13.977 10.571a2.863 2.863 0 0 0 3.456 0l13.977-10.571Z" fill="#62BFFC"/></g></g><g filter="url(#e)"><circle cx="48.744" cy="128.002" r="5.431" fill="#0366A9" stroke="#fff" stroke-width="1.468"/><path d="m46.102 128.002 1.705 1.761 3.286-3.522" stroke="#FFFFFD" stroke-width="1.321" stroke-linecap="round" stroke-linejoin="round"/></g><path d="M210.826 84.224H18.042c-1.753 0-3.174 1.81-3.174 4.044v22.245c0 2.234 1.42 4.044 3.174 4.044h192.784c1.753 0 3.174-1.81 3.174-4.044V88.268c0-2.234-1.421-4.044-3.174-4.044Z" fill="#EDEDF0"/><path d="M143.366 97.583h-3.43c-.722 0-1.306.584-1.306 1.304v3.412c0 .72.584 1.304 1.306 1.304h3.43c.721 0 1.306-.584 1.306-1.304v-3.412c0-.72-.585-1.304-1.306-1.304ZM127.12 97.57H63.991c-.995 0-1.803.59-1.803 1.315v3.438c0 .726.808 1.314 1.803 1.314h63.129c.995 0 1.803-.588 1.803-1.314v-3.438c0-.726-.808-1.315-1.803-1.315Z" fill="#fff"/><path d="M199.915 95.144h-11.019a5.37 5.37 0 0 0-5.373 5.365 5.37 5.37 0 0 0 5.373 5.364h11.019a5.37 5.37 0 0 0 5.373-5.364 5.37 5.37 0 0 0-5.373-5.365Z" fill="#B1B1B3" stroke="#B1B1B3" stroke-width="2.061"/><path d="M188.91 105.196c2.601 0 4.709-2.099 4.709-4.687 0-2.59-2.108-4.688-4.709-4.688-2.6 0-4.708 2.099-4.708 4.688 0 2.588 2.108 4.687 4.708 4.687Z" fill="#fff"/><g clip-path="url(#f)"><path d="M47.563 110.055H20.865a2.348 2.348 0 0 1-2.356-2.338V90.963a2.347 2.347 0 0 1 2.356-2.337h26.698a2.347 2.347 0 0 1 2.356 2.337v16.754a2.348 2.348 0 0 1-2.356 2.338Z" fill="#FF9201"/><path d="M18.51 107.716a2.346 2.346 0 0 0 2.355 2.337h26.698a2.346 2.346 0 0 0 2.356-2.337L34.214 96.299l-15.705 11.417Z" fill="#FF651D"/><g filter="url(#g)"><path d="M49.919 90.963a2.347 2.347 0 0 0-2.356-2.337H20.865a2.347 2.347 0 0 0-2.356 2.337l13.977 10.404a2.9 2.9 0 0 0 3.456 0L49.92 90.963Z" fill="#FBB85F"/></g></g><g filter="url(#h)" stroke-width="1.174"><circle cx="48.451" cy="90.388" r="5.577" fill="#fff" stroke="#fff"/><circle cx="48.452" cy="90.388" r="4.11" stroke="#FF2989"/><path stroke="#FF2989" d="m45.688 93.104 5.917-5.917"/></g><path d="M210.826 44.183H18.042c-1.753 0-3.174 1.866-3.174 4.168v22.92c0 2.302 1.42 4.168 3.174 4.168h192.784c1.753 0 3.174-1.866 3.174-4.167V48.35c0-2.302-1.421-4.168-3.174-4.168Z" fill="#fff"/><path d="M143.366 57.53h-3.43c-.722 0-1.306.584-1.306 1.304v3.412c0 .72.584 1.304 1.306 1.304h3.43c.721 0 1.306-.584 1.306-1.304v-3.412c0-.72-.585-1.304-1.306-1.304Z" fill="#EDEDF0"/><path d="M127.12 57.53H63.991c-.995 0-1.803.589-1.803 1.315v3.437c0 .726.808 1.315 1.803 1.315h63.129c.995 0 1.803-.589 1.803-1.315v-3.437c0-.726-.808-1.315-1.803-1.315Z" fill="#D7D7DB"/><path d="M200.132 55.103h-11.164a5.44 5.44 0 0 0-5.445 5.436 5.44 5.44 0 0 0 5.445 5.436h11.164a5.44 5.44 0 0 0 5.445-5.436 5.44 5.44 0 0 0-5.445-5.436Z" fill="#0060DF" stroke="#0060DF" stroke-width="2.061"/><path d="M200.104 65.289c2.635 0 4.771-2.127 4.771-4.75s-2.136-4.75-4.771-4.75-4.771 2.127-4.771 4.75 2.136 4.75 4.771 4.75Z" fill="#fff"/><g clip-path="url(#i)"><path d="M47.563 71.238H20.865a2.366 2.366 0 0 1-2.356-2.375V51.84a2.365 2.365 0 0 1 2.356-2.375h26.698a2.365 2.365 0 0 1 2.356 2.375v17.023a2.366 2.366 0 0 1-2.356 2.375Z" fill="#0491ED"/><path d="M18.51 68.862a2.365 2.365 0 0 0 2.355 2.375h26.698a2.365 2.365 0 0 0 2.356-2.375l-15.705-11.6-15.705 11.6Z" fill="#0366A9"/><g filter="url(#j)"><path d="M49.919 51.84a2.365 2.365 0 0 0-2.356-2.375H20.865a2.365 2.365 0 0 0-2.356 2.375l13.977 10.571a2.862 2.862 0 0 0 3.456 0l13.977-10.57Z" fill="#62BFFC"/></g></g><g filter="url(#k)"><circle cx="48.744" cy="50.348" r="5.431" fill="#0366A9" stroke="#fff" stroke-width="1.468"/><path d="m46.102 50.348 1.705 1.761 3.286-3.522" stroke="#FFFFFD" stroke-width="1.321" stroke-linecap="round" stroke-linejoin="round"/></g><path d="M212.644 32.272c.335-.018.665.075.919.259s.411.443.437.723a.986.986 0 0 1-.385.692c-.229.182-.53.285-.846.29H16.225a1.445 1.445 0 0 1-.92-.259 1.018 1.018 0 0 1-.437-.723.984.984 0 0 1 .386-.692c.228-.182.53-.285.845-.29h196.545Z" fill="url(#l)"/><path d="m24.004 15.903-2.035 5-2.035-5h-1.715L21.112 23h1.704l2.893-7.097h-1.705Zm4.294 5.888c-.63 0-1.095-.392-1.27-.97h3.852c0-2.015-.981-3.286-2.654-3.286-1.56 0-2.748 1.168-2.748 2.78 0 1.642 1.24 2.809 2.83 2.809.785 0 1.705-.33 2.18-.826l-.96-.982c-.29.28-.807.475-1.23.475Zm-.01-2.923c.609 0 1.002.34 1.146.868h-2.386a1.29 1.29 0 0 1 1.24-.868Zm5.12-.217v-.992h-1.507V23h1.508v-2.552c0-1.002.713-1.642 1.828-1.642v-1.27c-.816 0-1.477.423-1.828 1.115ZM37.45 23h1.353l1.003-3.357.991 3.357h1.353l1.819-5.34H42.49l-1.012 3.326-1.054-3.327h-1.25l-1.053 3.327-1.013-3.327h-1.477L37.45 23Zm9.73-5.465c-.745 0-1.478.207-2.232.59l.506 1.001c.424-.217.889-.382 1.384-.382.878 0 1.23.496 1.23 1.064v.103a3.854 3.854 0 0 0-1.364-.268c-1.24 0-2.22.723-2.22 1.776 0 1.023.877 1.705 2.014 1.705.578 0 1.187-.227 1.57-.661V23h1.456v-3.192c0-1.395-.95-2.273-2.345-2.273Zm-.342 4.546c-.516 0-.898-.269-.898-.703 0-.434.434-.754.981-.754.413 0 .806.072 1.147.196v.496c-.104.496-.651.765-1.23.765Zm3.957.919h1.508v-7.22h-1.508V23Zm5.635-1.322c-.104.103-.31.175-.517.175-.279 0-.506-.248-.506-.599v-2.376h1.157V17.66h-1.157v-1.466h-1.446v1.466h-.734v1.22h.734v2.613c0 .96.66 1.632 1.601 1.632.434 0 .92-.186 1.23-.465l-.362-.981Zm3.826.113c-.63 0-1.095-.392-1.27-.97h3.853c0-2.015-.982-3.286-2.655-3.286-1.56 0-2.748 1.168-2.748 2.78 0 1.642 1.24 2.809 2.83 2.809.786 0 1.705-.33 2.18-.826l-.96-.982c-.29.28-.806.475-1.23.475Zm-.01-2.923c.61 0 1.002.34 1.147.868h-2.387a1.29 1.29 0 0 1 1.24-.868Zm10.486-3.089v2.645a2.193 2.193 0 0 0-1.798-.889c-1.425 0-2.458 1.157-2.458 2.79 0 1.642 1.033 2.799 2.458 2.799.754 0 1.374-.33 1.798-.888V23h1.508v-7.22h-1.508Zm-1.364 6.074c-.837 0-1.425-.63-1.425-1.529 0-.888.588-1.518 1.425-1.518.796 0 1.364.63 1.364 1.518 0 .9-.569 1.53-1.364 1.53Zm6.716-.062c-.63 0-1.095-.392-1.27-.97h3.853c0-2.015-.982-3.286-2.655-3.286-1.56 0-2.748 1.168-2.748 2.78 0 1.642 1.24 2.809 2.83 2.809.786 0 1.705-.33 2.18-.826l-.96-.982c-.29.28-.806.475-1.23.475Zm-.01-2.923c.61 0 1.002.34 1.147.868h-2.387a1.29 1.29 0 0 1 1.24-.868Zm4.367-1.942a.818.818 0 0 0 .806-.826.82.82 0 0 0-.806-.806.825.825 0 0 0-.826.806c0 .454.361.826.826.826ZM79.677 23h1.508v-5.34h-1.508V23Zm5.913-5.465c-.692 0-1.291.31-1.611.796v-.672H82.47V23h1.508v-3.192l.01.031c0-.578.486-1.033 1.116-1.033.599 0 1.012.454 1.012 1.116V23h1.457v-3.399c0-1.208-.827-2.066-1.984-2.066Zm5.777 4.256c-.63 0-1.095-.392-1.27-.97h3.853c0-2.015-.981-3.286-2.655-3.286-1.56 0-2.748 1.168-2.748 2.78 0 1.642 1.24 2.809 2.83 2.809.786 0 1.705-.33 2.18-.826l-.96-.982c-.29.28-.806.475-1.23.475Zm-.01-2.923c.61 0 1.002.34 1.147.868h-2.387a1.29 1.29 0 0 1 1.24-.868ZM103.898 23l-1.745-2.48c.971-.34 1.611-1.166 1.611-2.22 0-1.405-1.136-2.397-2.675-2.397h-3.192V23h1.518v-2.304h1.126L102.163 23h1.735Zm-4.483-5.702h1.508c.754 0 1.271.392 1.271 1.002s-.517 1.002-1.271 1.002h-1.508v-2.004Zm7.962 4.493c-.63 0-1.095-.392-1.271-.97h3.853c0-2.015-.981-3.286-2.654-3.286-1.56 0-2.748 1.168-2.748 2.78 0 1.642 1.239 2.809 2.83 2.809.785 0 1.705-.33 2.18-.826l-.961-.982c-.289.28-.806.475-1.229.475Zm-.01-2.923c.609 0 1.002.34 1.146.868h-2.386a1.29 1.29 0 0 1 1.24-.868ZM110.98 23h1.508v-7.22h-1.508V23Zm5.211-5.465c-.744 0-1.478.207-2.232.59l.506 1.001c.424-.217.889-.382 1.385-.382.878 0 1.229.496 1.229 1.064v.103a3.858 3.858 0 0 0-1.364-.268c-1.239 0-2.221.723-2.221 1.776 0 1.023.878 1.705 2.015 1.705.578 0 1.188-.227 1.57-.661V23h1.456v-3.192c0-1.395-.95-2.273-2.344-2.273Zm-.341 4.546c-.517 0-.899-.269-.899-.703 0-.434.434-.754.981-.754.413 0 .806.072 1.147.196v.496c-.103.496-.651.765-1.229.765Zm5.176 2.778c.836 0 1.518-.547 1.921-1.59l2.19-5.61h-1.539l-1.333 3.75-1.405-3.75h-1.56l2.221 5.393-.186.392c-.113.197-.34.29-.63.29-.175 0-.444-.094-.702-.238l-.32 1.033c.361.196.898.33 1.343.33ZM134.143 23h1.715l-2.892-7.097h-1.705L128.369 23h1.704l.455-1.116h3.161l.454 1.116Zm-3.088-2.407L132.108 18l1.054 2.593h-2.107Zm9.586-4.814v2.645a2.195 2.195 0 0 0-1.798-.889c-1.425 0-2.458 1.157-2.458 2.79 0 1.642 1.033 2.799 2.458 2.799.754 0 1.374-.33 1.798-.888V23h1.508v-7.22h-1.508Zm-1.364 6.074c-.837 0-1.425-.63-1.425-1.529 0-.888.588-1.518 1.425-1.518.796 0 1.364.63 1.364 1.518 0 .9-.568 1.53-1.364 1.53Zm5.704-3.202v-.992h-1.508V23h1.508v-2.552c0-1.002.713-1.642 1.828-1.642v-1.27c-.816 0-1.477.423-1.828 1.115Zm5.219 3.14c-.63 0-1.095-.392-1.271-.97h3.853c0-2.015-.981-3.286-2.654-3.286-1.56 0-2.748 1.168-2.748 2.78 0 1.642 1.239 2.809 2.83 2.809.785 0 1.705-.33 2.18-.826l-.961-.982c-.289.28-.806.475-1.229.475Zm-.01-2.923c.609 0 1.002.34 1.146.868h-2.386a1.29 1.29 0 0 1 1.24-.868Zm5.617 4.256c1.312 0 2.169-.671 2.169-1.725 0-1.167-1.023-1.477-1.942-1.715-.723-.196-.94-.279-.94-.568 0-.186.258-.32.63-.32.455 0 1.012.175 1.498.475l.609-1.075c-.588-.392-1.342-.66-2.107-.66-1.26 0-2.097.723-2.087 1.735.011 1.053.858 1.353 1.953 1.622.547.144.94.248.94.578 0 .238-.289.403-.692.403-.713 0-1.312-.258-1.787-.6l-.651 1.044c.64.517 1.549.806 2.407.806Zm5.185 0c1.312 0 2.169-.671 2.169-1.725 0-1.167-1.022-1.477-1.942-1.715-.723-.196-.94-.279-.94-.568 0-.186.258-.32.63-.32.455 0 1.013.175 1.498.475l.61-1.075c-.589-.392-1.343-.66-2.108-.66-1.26 0-2.097.723-2.086 1.735.01 1.053.857 1.353 1.952 1.622.548.144.94.248.94.578 0 .238-.289.403-.692.403-.713 0-1.312-.258-1.787-.6l-.651 1.044c.641.517 1.55.806 2.407.806Zm5.702-1.333c-.63 0-1.095-.392-1.271-.97h3.853c0-2.015-.981-3.286-2.655-3.286-1.56 0-2.747 1.168-2.747 2.78 0 1.642 1.239 2.809 2.83 2.809.785 0 1.704-.33 2.18-.826l-.961-.982c-.289.28-.806.475-1.229.475Zm-.011-2.923c.61 0 1.002.34 1.147.868h-2.386a1.29 1.29 0 0 1 1.239-.868Zm6.702-1.333c-.692 0-1.291.31-1.611.796v-.672h-1.509V23h1.509v-3.192l.01.031c0-.578.485-1.033 1.116-1.033.599 0 1.012.454 1.012 1.116V23h1.456v-3.399c0-1.208-.826-2.066-1.983-2.066Z" fill="#38383D"/></g><defs><filter id="b" x="-1" y="-1" width="240" height="177" filterUnits="userSpaceOnUse" color-interpolation-filters="sRGB"><feFlood flood-opacity="0" result="BackgroundImageFix"/><feColorMatrix in="SourceAlpha" values="0 0 0 0 0 0 0 0 0 0 0 0 0 0 0 0 0 0 127 0" result="hardAlpha"/><feOffset dx="3" dy="3"/><feGaussianBlur stdDeviation="2"/><feComposite in2="hardAlpha" operator="out"/><feColorMatrix values="0 0 0 0 0 0 0 0 0 0 0 0 0 0 0 0 0 0 0.1 0"/><feBlend in2="BackgroundImageFix" result="effect1_dropShadow_1043_2724"/><feBlend in="SourceGraphic" in2="effect1_dropShadow_1043_2724" result="shape"/></filter><filter id="d" x="15.574" y="125.359" width="37.281" height="19.398" filterUnits="userSpaceOnUse" color-interpolation-filters="sRGB"><feFlood flood-opacity="0" result="BackgroundImageFix"/><feColorMatrix in="SourceAlpha" values="0 0 0 0 0 0 0 0 0 0 0 0 0 0 0 0 0 0 127 0" result="hardAlpha"/><feOffset dy="1.174"/><feGaussianBlur stdDeviation="1.468"/><feComposite in2="hardAlpha" operator="out"/><feColorMatrix values="0 0 0 0 0 0 0 0 0 0 0 0 0 0 0 0 0 0 0.1 0"/><feBlend in2="BackgroundImageFix" result="effect1_dropShadow_1043_2724"/><feBlend in="SourceGraphic" in2="effect1_dropShadow_1043_2724" result="shape"/></filter><filter id="e" x="41.406" y="121.837" width="14.677" height="14.677" filterUnits="userSpaceOnUse" color-interpolation-filters="sRGB"><feFlood flood-opacity="0" result="BackgroundImageFix"/><feColorMatrix in="SourceAlpha" values="0 0 0 0 0 0 0 0 0 0 0 0 0 0 0 0 0 0 127 0" result="hardAlpha"/><feOffset dy="1.174"/><feGaussianBlur stdDeviation=".587"/><feComposite in2="hardAlpha" operator="out"/><feColorMatrix values="0 0 0 0 0 0 0 0 0 0 0 0 0 0 0 0 0 0 0.15 0"/><feBlend in2="BackgroundImageFix" result="effect1_dropShadow_1043_2724"/><feBlend in="SourceGraphic" in2="effect1_dropShadow_1043_2724" result="shape"/></filter><filter id="g" x="15.574" y="86.864" width="37.281" height="19.184" filterUnits="userSpaceOnUse" color-interpolation-filters="sRGB"><feFlood flood-opacity="0" result="BackgroundImageFix"/><feColorMatrix in="SourceAlpha" values="0 0 0 0 0 0 0 0 0 0 0 0 0 0 0 0 0 0 127 0" result="hardAlpha"/><feOffset dy="1.174"/><feGaussianBlur stdDeviation="1.468"/><feComposite in2="hardAlpha" operator="out"/><feColorMatrix values="0 0 0 0 0 0 0 0 0 0 0 0 0 0 0 0 0 0 0.1 0"/><feBlend in2="BackgroundImageFix" result="effect1_dropShadow_1043_2724"/><feBlend in="SourceGraphic" in2="effect1_dropShadow_1043_2724" result="shape"/></filter><filter id="h" x="41.112" y="84.224" width="14.677" height="14.677" filterUnits="userSpaceOnUse" color-interpolation-filters="sRGB"><feFlood flood-opacity="0" result="BackgroundImageFix"/><feColorMatrix in="SourceAlpha" values="0 0 0 0 0 0 0 0 0 0 0 0 0 0 0 0 0 0 127 0" result="hardAlpha"/><feOffset dy="1.174"/><feGaussianBlur stdDeviation=".587"/><feComposite in2="hardAlpha" operator="out"/><feColorMatrix values="0 0 0 0 0 0 0 0 0 0 0 0 0 0 0 0 0 0 0.15 0"/><feBlend in2="BackgroundImageFix" result="effect1_dropShadow_1043_2724"/><feBlend in="SourceGraphic" in2="effect1_dropShadow_1043_2724" result="shape"/></filter><filter id="j" x="15.574" y="47.704" width="37.281" height="19.398" filterUnits="userSpaceOnUse" color-interpolation-filters="sRGB"><feFlood flood-opacity="0" result="BackgroundImageFix"/><feColorMatrix in="SourceAlpha" values="0 0 0 0 0 0 0 0 0 0 0 0 0 0 0 0 0 0 127 0" result="hardAlpha"/><feOffset dy="1.174"/><feGaussianBlur stdDeviation="1.468"/><feComposite in2="hardAlpha" operator="out"/><feColorMatrix values="0 0 0 0 0 0 0 0 0 0 0 0 0 0 0 0 0 0 0.1 0"/><feBlend in2="BackgroundImageFix" result="effect1_dropShadow_1043_2724"/><feBlend in="SourceGraphic" in2="effect1_dropShadow_1043_2724" result="shape"/></filter><filter id="k" x="41.406" y="44.183" width="14.677" height="14.677" filterUnits="userSpaceOnUse" color-interpolation-filters="sRGB"><feFlood flood-opacity="0" result="BackgroundImageFix"/><feColorMatrix in="SourceAlpha" values="0 0 0 0 0 0 0 0 0 0 0 0 0 0 0 0 0 0 127 0" result="hardAlpha"/><feOffset dy="1.174"/><feGaussianBlur stdDeviation=".587"/><feComposite in2="hardAlpha" operator="out"/><feColorMatrix values="0 0 0 0 0 0 0 0 0 0 0 0 0 0 0 0 0 0 0.15 0"/><feBlend in2="BackgroundImageFix" result="effect1_dropShadow_1043_2724"/><feBlend in="SourceGraphic" in2="effect1_dropShadow_1043_2724" result="shape"/></filter><clipPath id="a"><rect width="240" height="176" rx="7" fill="#fff"/></clipPath><clipPath id="c"><path fill="#fff" transform="translate(18.509 127.121)" d="M0 0h31.41v21.773H0z"/></clipPath><clipPath id="f"><path fill="#fff" transform="translate(18.509 88.627)" d="M0 0h31.41v21.429H0z"/></clipPath><clipPath id="i"><path fill="#fff" transform="translate(18.509 49.468)" d="M0 0h31.41v21.773H0z"/></clipPath><linearGradient id="l" x1="213.106" y1="33.254" x2="15.966" y2="33.254" gradientUnits="userSpaceOnUse"><stop stop-color="#FF9100"/><stop offset=".52" stop-color="#F10366"/><stop offset="1" stop-color="#6173FF"/></linearGradient></defs></svg>
