<svg width="310" height="158" viewBox="0 0 310 158" xmlns="http://www.w3.org/2000/svg"><defs><linearGradient x1="50%" y1="0%" x2="50%" y2="100%" id="a"><stop stop-color="#0ECDF8" offset="0%"/><stop stop-color="#069FEF" offset="100%"/></linearGradient><linearGradient x1="-9.304%" y1="-164.651%" x2="118.495%" y2="312.86%" id="b"><stop stop-color="#00C8D7" offset="0%"/><stop stop-color="#0A84FF" offset="100%"/></linearGradient></defs><g fill-rule="nonzero" fill="none"><path d="M218.77 142.7a66.77 66.77 0 0 1-13.54-1.375c-.46-.152-.615-.458-.615-.916.154-.458.462-.61.923-.61a62.338 62.338 0 0 0 13.077 1.374c1.077 0 2.308 0 3.385-.153.462 0 .77.305.77.61 0 .459-.308.764-.77.764-1.077.305-2.154.305-3.23.305zm13.23-1.375c-.462 0-.77-.305-.77-.763 0-.306.308-.61.616-.764 1.077-.152 2.154-.458 3.23-.763.462-.153.77.153.924.61.154.459-.154.764-.615.917-1.077.305-2.154.61-3.231.763H232zm9.538-2.748c-.461 0-.769-.305-.769-.763 0-.306.154-.61.462-.764 4.154-1.526 8-3.51 11.692-5.954.308-.305.77-.152 1.077.153.308.305.154.763-.154 1.069-3.846 2.442-7.846 4.427-12 6.106-.154.153-.154.153-.308.153zm-48.923-1.221h-.307c-4.154-1.832-8-4.122-11.693-6.718-.307-.305-.461-.763-.153-1.068.307-.306.769-.458 1.076-.153 3.539 2.595 7.385 4.733 11.385 6.565.462.152.615.61.462 1.068-.154 0-.462.306-.77.306zm-16.769-10.84c-.154 0-.308 0-.461-.152-.77-.764-1.693-1.527-2.462-2.29a.734.734 0 0 1 0-1.069.748.748 0 0 1 1.077 0c.77.763 1.538 1.527 2.462 2.29a.734.734 0 0 1 0 1.069c-.154 0-.308.152-.616.152zm88-2.442c-.461 0-.77-.306-.77-.764 0-.152.155-.458.155-.61 3.846-3.817 7.23-8.244 10-12.977.154-.305.615-.458 1.077-.305.307.152.461.61.307 1.068-2.769 4.886-6.307 9.313-10.307 13.282 0 .306-.308.306-.462.306zm-96.923-7.481c-.308 0-.461-.153-.615-.305-3.385-4.58-6-9.466-8.154-14.657-.154-.458 0-.763.461-.916.462-.152.77 0 .923.458 2 5.039 4.616 9.924 7.847 14.351.307.306.153.764-.154 1.069h-.308zm111.385-14.504c-.462 0-.77-.305-.77-.763v-.305c.462-1.069.77-1.985 1.077-3.054.154-.458.616-.61.923-.458.462.153.616.611.462.916-.308 1.07-.77 2.138-1.077 3.206 0 .153-.308.458-.615.458zm2.923-9.618h-.154c-.462-.152-.615-.458-.615-.916a62.022 62.022 0 0 0 1.384-12.976v-.306c0-.458.308-.763.77-.763.46 0 .769.305.769.763v.306c0 4.427-.462 9.007-1.385 13.282-.154.305-.462.61-.77.61zm-125.693-3.206c-.307 0-.769-.305-.769-.61-.461-3.359-.769-6.718-.769-10.23 0-1.068 0-2.136.154-3.205 0-.458.308-.763.77-.763.46 0 .768.305.768.763 0 1.069-.154 2.137-.154 3.206 0 3.359.308 6.717.77 9.923 0 .458-.308.916-.77.916zm126.616-16.793c-.462 0-.77-.305-.77-.61a59.53 59.53 0 0 0-2.769-12.825c-.153-.458.154-.763.462-.916.308-.153.77.153.923.458 1.385 4.275 2.308 8.702 2.923 13.13 0 .305-.308.61-.77.763.155 0 .155 0 0 0 .155 0 0 0 0 0zm-126.77-3.053c-.46 0-.769-.458-.769-.916.154-1.07.308-2.29.616-3.36.154-.457.461-.61.923-.61.461.153.615.458.615.916-.154 1.069-.461 2.137-.615 3.206 0 .61-.308.764-.77.764zm3.54-12.825c-.462 0-.77-.305-.77-.763v-.305c2-5.191 4.77-10.229 8-14.81.308-.304.77-.457 1.077-.152.307.306.461.764.154 1.069-3.231 4.427-5.847 9.313-7.847 14.35 0 .459-.307.611-.615.611zm114.922-9.312c-.308 0-.461-.153-.615-.306-2.77-4.732-6.154-9.007-10.154-12.976a.734.734 0 0 1 0-1.07.748.748 0 0 1 1.077 0c4 3.97 7.538 8.398 10.308 13.283.153.305.153.763-.308 1.069h-.308zm-98.154-15.114c-.461 0-.769-.306-.769-.764 0-.153.154-.458.308-.61 3.384-3.054 7.077-5.65 10.923-7.94.308-.152.77-.152 1.077.306.307.458.154.763-.308 1.069a52.601 52.601 0 0 0-10.615 7.786c-.154.153-.462.153-.616.153zM256 27.893c-.154 0-.308 0-.462-.153l-2.769-1.832c-.307-.153-.461-.763-.154-1.069.154-.305.77-.458 1.077-.152l2.77 1.832c.307.305.461.763.153 1.068-.153.153-.307.306-.615.306zm-8.615-5.19c-.154 0-.308 0-.308-.154-4-1.984-8-3.511-12.308-4.732-.461-.153-.615-.458-.615-.916.154-.458.461-.611.923-.611 4.308 1.221 8.615 2.748 12.615 4.733.308.152.462.61.308 1.068 0 .458-.308.611-.615.611zm-54.923-1.375c-.462 0-.77-.305-.77-.763 0-.306.154-.61.462-.764 1.077-.458 2-.916 3.077-1.221.461-.153.769 0 .923.458.154.458 0 .763-.462.916-1.077.458-2 .763-3.077 1.221 0 .153 0 .153-.153.153zm12.615-4.122c-.462 0-.77-.305-.77-.763 0-.306.308-.611.616-.764a62.301 62.301 0 0 1 16.77-1.374c.46 0 .769.306.769.764s-.308.763-.77.763a59.574 59.574 0 0 0-16.461 1.374h-.154zM97.077 142.7a66.77 66.77 0 0 1-13.539-1.375c-.461-.152-.615-.458-.615-.916.154-.458.462-.61.923-.61a62.338 62.338 0 0 0 13.077 1.374c1.077 0 2.308 0 3.385-.153.461 0 .769.305.769.61 0 .459-.308.764-.77.764-.922.305-2 .305-3.23.305zm13.23-1.375c-.46 0-.769-.305-.769-.763 0-.306.308-.61.616-.764 1.077-.152 2.154-.458 3.23-.763.462-.153.77.153.924.61.154.459-.154.764-.616.917-1.077.305-2.154.61-3.23.763h-.154zm9.693-2.748c-.462 0-.77-.305-.77-.763 0-.306.155-.61.462-.764 4.154-1.526 8-3.51 11.693-5.954.307-.305.769-.152 1.077.153.307.305.153.763-.154 1.069-3.846 2.442-7.846 4.427-12 6.106-.154.153-.308.153-.308.153zm-48.923-1.221h-.308c-4.154-1.832-8-4.122-11.692-6.718-.308-.305-.462-.763-.154-1.068.308-.306.77-.458 1.077-.153 3.538 2.595 7.385 4.733 11.385 6.565.461.152.615.61.461 1.068-.154 0-.461.306-.77.306zm-16.77-10.84c-.153 0-.307 0-.46-.152-.77-.764-1.693-1.527-2.462-2.29a.734.734 0 0 1 0-1.069.748.748 0 0 1 1.077 0c.769.763 1.538 1.527 2.461 2.29a.734.734 0 0 1 0 1.069c-.154 0-.461.152-.615.152zm88-2.442c-.46 0-.769-.306-.769-.764 0-.152.154-.458.154-.61 3.846-3.817 7.231-8.244 10-12.977.154-.305.616-.458 1.077-.305.308.152.462.61.308 1.068-2.77 4.886-6.308 9.313-10.308 13.282-.154.306-.307.306-.461.306zm-96.922-7.481c-.308 0-.462-.153-.616-.305-3.384-4.58-6-9.466-8.154-14.657-.153-.458 0-.763.462-.916.461-.152.77 0 .923.458 2 5.039 4.615 9.924 7.846 14.351.308.306.154.764-.154 1.069h-.307zm111.384-14.504c-.461 0-.769-.305-.769-.763v-.305c.462-1.069.77-1.985 1.077-3.054.154-.458.615-.61.923-.458.462.153.615.611.462.916-.308 1.07-.77 2.138-1.077 3.206 0 .153-.308.458-.616.458zm2.77-9.618h-.154c-.462-.152-.616-.458-.616-.916a62.022 62.022 0 0 0 1.385-12.976v-.306c0-.458.308-.763.77-.763.46 0 .768.305.768.763v.306c0 4.427-.461 9.007-1.384 13.282 0 .305-.308.61-.77.61zM33.845 89.265c-.308 0-.77-.305-.77-.61-.46-3.359-.768-6.718-.768-10.23 0-1.068 0-2.136.154-3.205 0-.458.307-.763.769-.763.461 0 .769.305.769.763 0 1.069-.154 2.137-.154 3.206 0 3.359.308 6.717.77 9.923.153.458-.154.916-.77.916.154 0 0 0 0 0zm126.77-16.793c-.462 0-.77-.305-.77-.61a59.53 59.53 0 0 0-2.77-12.825c-.153-.458.155-.763.462-.916.308-.153.77.153.924.458 1.384 4.275 2.307 8.702 2.923 13.13 0 .305-.308.61-.77.763zm-126.77-3.053s-.154 0 0 0c-.461 0-.77-.458-.77-.916.155-1.07.309-2.29.616-3.36.154-.457.462-.61.923-.61.462.153.616.458.616.916-.154 1.069-.462 2.137-.616 3.206 0 .61-.461.764-.769.764zm3.385-12.825c-.462 0-.77-.305-.77-.763v-.305c2-5.191 4.77-10.229 8-14.81.308-.304.77-.457 1.077-.152.308.306.462.764.154 1.069-3.23 4.427-5.846 9.313-7.846 14.35 0 .459-.308.611-.615.611zm115.077-9.312c-.308 0-.462-.153-.616-.306-2.769-4.732-6.154-9.007-10.154-12.976a.734.734 0 0 1 0-1.07.748.748 0 0 1 1.077 0c4 3.97 7.539 8.398 10.308 13.283.154.305.154.763-.308 1.069h-.307zM54.154 32.168c-.462 0-.77-.306-.77-.764 0-.153.154-.458.308-.61 3.385-3.054 7.077-5.65 10.923-7.94.308-.152.77-.152 1.077.306.308.458.154.763-.307 1.069a52.601 52.601 0 0 0-10.616 7.786c-.307.153-.461.153-.615.153zm80.308-4.275c-.154 0-.308 0-.462-.153l-2.77-1.832c-.307-.153-.46-.763-.153-1.069.154-.305.77-.458 1.077-.152l2.77 1.832c.307.305.46.763.153 1.068-.154.153-.462.306-.615.306zm-8.616-5.19c-.154 0-.308 0-.308-.154-4-1.984-8-3.511-12.307-4.732-.462-.153-.616-.458-.616-.916.154-.458.462-.611.923-.611 4.308 1.221 8.616 2.748 12.616 4.733.308.152.461.61.308 1.068 0 .458-.308.611-.616.611zm-54.923-1.375c-.461 0-.77-.305-.77-.763 0-.306.155-.61.462-.764 1.077-.458 2-.916 3.077-1.221.462-.153.77 0 .923.458.154.458 0 .763-.461.916-1.077.458-2 .763-3.077 1.221 0 .153-.154.153-.154.153zm12.615-4.122c-.461 0-.769-.305-.769-.763 0-.306.308-.611.616-.764a62.301 62.301 0 0 1 16.769-1.374c.461 0 .77.306.77.764s-.309.763-.77.763a59.574 59.574 0 0 0-16.462 1.374h-.154z" fill="#FFF" fill-opacity=".32"/><path d="M96.153 157.233c-1.38 0-2.607 0-3.988-.153-.46 0-.767-.307-.767-.767s.46-.767.767-.767c5.83.306 11.658 0 17.334-1.074.46 0 .767.153.92.613 0 .46-.153.767-.613.92-4.449.768-9.05 1.228-13.653 1.228zm-15.493-1.534h-.153c-1.38-.307-2.915-.614-4.295-1.074-.46-.153-.614-.46-.614-.92s.46-.614.92-.614c1.381.307 2.762.767 4.296.92.46.154.613.46.613.921-.153.46-.46.767-.767.767zm-9.97-2.761h-.307l-1.381-.46c-.46-.154-.614-.614-.46-.92.153-.308.613-.614.92-.46.46.152.92.306 1.38.46.46.153.614.613.46.92 0 .306-.306.46-.613.46zm51.848-.307c-.46 0-.767-.307-.767-.767 0-.307.153-.614.46-.767l1.38-.46c.46-.154.768 0 .921.46.153.46 0 .767-.46.92l-1.38.46c0 .154 0 .154-.154.154zm6.75-2.761c-.46 0-.768-.307-.768-.767 0-.307.154-.614.46-.767 1.381-.614 2.608-1.227 3.836-1.994.306-.154.767 0 1.073.307.307.306 0 .767-.306 1.073-1.228.767-2.608 1.38-3.989 1.995 0 .153-.153.153-.307.153zm-71.944-3.068c-.154 0-.307 0-.307-.153a68.857 68.857 0 0 1-14.266-10.585.741.741 0 0 1 0-1.074.741.741 0 0 1 1.074 0 76.16 76.16 0 0 0 13.959 10.278c.307.153.46.614.307 1.074-.154.46-.46.613-.767.46zm85.75-5.216c-.461 0-.768-.306-.768-.767 0-.306.154-.46.307-.613 4.602-3.528 8.897-7.517 12.579-11.965.306-.307.767-.307 1.073-.154.307.154.307.767.154 1.074-3.835 4.602-8.13 8.59-12.886 12.272-.153 0-.306.153-.46.153zm-107.84-13.805c-.306 0-.46-.154-.613-.307a29.946 29.946 0 0 1-2.608-3.528c-.307-.307-.153-.767.153-1.074.307-.307.767-.154 1.074.153.767 1.227 1.688 2.301 2.608 3.528.307.307.153.767-.153 1.074-.154.154-.307.154-.46.154zm-5.829-8.437c-.307 0-.46-.154-.613-.307-.307-.46-.46-.92-.767-1.227-.154-.307-.154-.767.306-1.074.46-.307.767-.153 1.074.307.307.46.46.767.767 1.227.154.307.154.767-.307 1.074h-.46zm134.07-.767c-.46 0-.767-.307-.767-.767 0-.154 0-.307.154-.46.306-.46.46-.767.767-1.228.153-.306.613-.46 1.073-.306.307.153.46.613.307 1.073-.307.46-.46.92-.767 1.228-.307.306-.46.46-.767.46zm3.375-6.443h-.307c-.46-.153-.613-.614-.307-1.074.614-1.38 1.227-2.608 1.688-3.988.153-.46.613-.614 1.073-.46.46.153.614.613.46.92-.613 1.38-1.073 2.761-1.687 4.142-.307.307-.613.46-.92.46zm-143.734-5.983a.844.844 0 0 1-.767-.46c-1.994-5.522-3.375-11.351-4.142-17.18 0-.46.307-.767.614-.92.46 0 .767.306.92.613.767 5.829 2.148 11.505 4.142 16.874.153.46 0 .767-.46.92-.154.153-.307.153-.307.153zm148.95-9.357h-.154c-.46-.153-.614-.46-.614-.92 1.228-5.676 1.995-11.505 1.995-17.334v-.307c0-.46.306-.767.767-.767.46 0 .767.307.767.767v.307c0 5.982-.614 11.811-1.995 17.64-.153.46-.46.614-.767.614zM18.38 77.313c-.46 0-.767-.307-.767-.767 0-1.534.153-2.915.306-4.449 0-.46.46-.767.767-.767.46 0 .767.46.767.767-.153 1.38-.153 2.915-.306 4.295 0 .614-.307.92-.767.92zm.92-10.125c-.614 0-.767-.46-.767-.92.153-.46.153-.92.307-1.534 0-.46.46-.767.92-.614.46.154.767.46.614.92-.154.461-.154.921-.307 1.381 0 .46-.307.767-.767.767zm153.551-1.227c-.306 0-.767-.307-.767-.613-.153-.46-.153-.92-.306-1.381-.154-.46.153-.767.613-.92.46-.154.767.153.92.613.154.46.154.92.307 1.534.154.307-.153.614-.767.767.154 0 .154 0 0 0 .154 0 .154 0 0 0zm-1.534-7.21c-.306 0-.613-.306-.767-.613-.306-1.38-.767-2.761-1.227-4.142-.153-.46.154-.767.46-.92.46-.154.767.153.92.46.461 1.38.921 2.761 1.228 4.295.153.46-.153.767-.614.92.154 0 0 0 0 0zM22.983 52.922h-.307c-.46-.153-.614-.613-.46-.92a80.918 80.918 0 0 1 7.823-15.953c.153-.307.767-.46 1.074-.154.306.154.46.767.153 1.074-3.221 4.909-5.83 10.124-7.67 15.647 0 .153-.307.306-.613.306zm142.506-9.204c-.306 0-.613-.153-.613-.46-2.608-5.215-5.983-9.97-9.664-14.42-.307-.306-.307-.766.153-1.073.46-.307.767-.307 1.074.153 3.835 4.602 7.21 9.511 9.817 14.727.154.306 0 .767-.306 1.073h-.46zM37.862 27.765c-.46 0-.767-.307-.767-.767 0-.153 0-.307.154-.46.92-1.074 1.994-2.148 3.068-3.221a.741.741 0 0 1 1.073 0 .741.741 0 0 1 0 1.073c-1.073 1.074-1.994 2.148-2.914 3.222-.154.153-.307.153-.614.153zm7.363-7.21c-.46 0-.767-.306-.767-.767 0-.153.154-.46.307-.613.307-.307.767-.614 1.074-.92.307-.307.767-.154 1.074.153.306.307.153.767-.154 1.074-.307.306-.767.613-1.074.92-.153.153-.306.153-.46.153zm101.09-.767c-.154 0-.307 0-.46-.153-.307-.307-.768-.614-1.074-.92-.46-.307-.46-.767-.154-1.074.307-.307.767-.307 1.074-.154.46.307.767.614 1.074.92.307.308.307.768.153 1.075-.153.306-.307.306-.613.306zm-5.83-4.448c-.153 0-.306 0-.46-.154-1.227-.767-2.454-1.687-3.681-2.454-.307-.153-.46-.767-.307-1.074.153-.307.767-.46 1.074-.307 1.227.767 2.454 1.534 3.681 2.455.307.307.46.767.154 1.074 0 .306-.154.46-.46.46zm-83.448-3.222c-.46 0-.767-.306-.767-.767 0-.306.153-.46.307-.613a85.943 85.943 0 0 1 16.26-7.21c.46-.153.767.154.92.46.154.46-.153.767-.46.92-5.522 1.688-10.891 4.142-15.953 7.057 0 0-.154.153-.307.153zm69.336-4.448h-.307c-5.369-2.301-11.045-3.835-16.72-4.909-.46 0-.767-.46-.614-.92 0-.46.46-.767.92-.614 5.83 1.074 11.505 2.608 17.028 4.909.46.153.613.614.46 1.074-.154.153-.46.46-.767.46zM84.649 2.454c-.46 0-.767-.306-.767-.767 0-.306.306-.767.613-.767 1.38-.153 2.915-.46 4.449-.46.46 0 .767.307.767.767s-.307.767-.767.767c-1.38 0-2.761.154-4.295.46zm10.277-.92c-.46 0-.767-.307-.767-.767S94.466 0 94.926 0h1.38c.461 0 .768.307.768.767s-.307.767-.767.767h-1.38zM219.153 157.233c-1.38 0-2.607 0-3.988-.153-.46 0-.767-.307-.767-.767s.46-.767.767-.767c5.83.306 11.659 0 17.335-1.074.46 0 .767.153.92.613 0 .46-.153.767-.614.92-4.448.768-9.05 1.228-13.653 1.228zm-15.647-1.534h-.153c-1.381-.307-2.915-.614-4.296-1.074-.46-.153-.613-.46-.613-.92s.46-.614.92-.614c1.38.307 2.761.767 4.295.92.46.154.614.46.614.921 0 .46-.307.767-.767.767zm-9.818-2.761h-.307l-1.38-.46c-.46-.154-.614-.614-.46-.92.153-.308.613-.614.92-.46.46.152.92.306 1.38.46.46.153.614.613.46.92 0 .306-.306.46-.613.46zm51.851-.307c-.46 0-.767-.307-.767-.767 0-.307.153-.614.46-.767l1.38-.46c.461-.154.768 0 .921.46.154.46 0 .767-.46.92l-1.38.46c0 .154-.154.154-.154.154zm6.75-2.761c-.46 0-.767-.307-.767-.767 0-.307.153-.614.46-.767 1.38-.614 2.608-1.227 3.835-1.994.307-.154.767 0 1.074.307.307.306 0 .767-.307 1.073-1.227.767-2.608 1.38-3.988 1.995-.154.153-.154.153-.307.153zm-71.947-3.068c-.154 0-.307 0-.307-.153a68.86 68.86 0 0 1-14.267-10.585.741.741 0 0 1 0-1.074.741.741 0 0 1 1.074 0 76.164 76.164 0 0 0 13.96 10.278c.307.153.46.614.307 1.074-.307.307-.46.46-.767.46zm85.753-5.216c-.46 0-.767-.306-.767-.767 0-.306.154-.46.307-.613 4.602-3.528 8.898-7.517 12.58-11.965.306-.307.766-.307 1.073-.154.307.154.307.767.154 1.074-3.835 4.602-8.13 8.59-12.886 12.272-.154 0-.307.153-.46.153zm-107.843-13.805c-.307 0-.46-.154-.614-.307a29.946 29.946 0 0 1-2.608-3.528c-.307-.307-.153-.767.153-1.074.307-.307.767-.154 1.074.153.767 1.227 1.688 2.301 2.608 3.528.307.307.154.767-.153 1.074-.154.154-.307.154-.46.154zm-5.983-8.437c-.307 0-.46-.154-.614-.307-.307-.46-.46-.92-.767-1.227-.153-.307-.153-.767.307-1.074.46-.307.767-.153 1.074.307.307.46.46.767.767 1.227.153.307.153.767-.307 1.074h-.46zm134.076-.767c-.46 0-.767-.307-.767-.767 0-.154 0-.307.153-.46.307-.46.46-.767.767-1.228.154-.306.614-.46 1.074-.306.307.153.46.613.307 1.073-.307.46-.46.92-.767 1.228a.844.844 0 0 1-.767.46zm3.528-6.443h-.307c-.46-.153-.613-.614-.306-1.074.613-1.38 1.227-2.608 1.687-3.988.153-.46.614-.614 1.074-.46.46.153.614.613.46.92-.614 1.38-1.074 2.761-1.687 4.142-.46.307-.614.46-.92.46zm-143.894-5.983a.844.844 0 0 1-.767-.46c-1.994-5.522-3.375-11.351-4.142-17.18 0-.46.307-.767.614-.92.46 0 .767.306.92.613.767 5.829 2.148 11.505 4.142 16.874.154.46 0 .767-.46.92-.153.153-.153.153-.307.153zm149.11-9.357h-.153c-.46-.153-.614-.46-.614-.92 1.227-5.676 1.994-11.505 1.994-17.334v-.307c0-.46.307-.767.767-.767s.767.307.767.767v.307c0 5.982-.613 11.811-1.994 17.64-.153.46-.46.614-.767.614zM141.377 77.313c-.46 0-.767-.307-.767-.767 0-1.534.153-2.915.307-4.449 0-.46.46-.767.767-.767.46 0 .767.46.767.767-.154 1.38-.154 2.915-.307 4.295 0 .614-.46.92-.767.92zm.92-10.125c-.153 0-.153 0 0 0-.613 0-.767-.46-.767-.92.154-.46.154-.92.307-1.534 0-.46.46-.767.92-.614.46.154.768.46.614.92-.153.461-.153.921-.307 1.381-.153.46-.46.767-.767.767zm153.559-1.227c-.307 0-.767-.307-.767-.613-.153-.46-.153-.92-.307-1.381-.153-.46.154-.767.614-.92.46-.154.767.153.92.613.154.46.154.92.307 1.534 0 .307-.153.614-.767.767.153 0 .153 0 0 0zm-1.687-7.21c-.307 0-.614-.306-.767-.613-.307-1.38-.767-2.761-1.228-4.142-.153-.46.154-.767.46-.92.46-.154.768.153.921.46.46 1.38.92 2.761 1.227 4.295.154.46-.153.767-.613.92.153 0 .153 0 0 0zm-148.19-5.829h-.307c-.46-.153-.613-.613-.46-.92a80.917 80.917 0 0 1 7.824-15.953c.153-.307.767-.46 1.074-.154.306.154.46.767.153 1.074-3.222 4.909-5.83 10.124-7.67 15.647 0 .153-.307.306-.614.306zm142.36-9.204c-.307 0-.613-.153-.613-.46-2.608-5.215-5.983-9.97-9.665-14.42-.307-.306-.307-.766.153-1.073.46-.307.767-.307 1.074.153 3.835 4.602 7.21 9.511 9.818 14.727.154.306 0 .767-.307 1.073h-.46zM160.86 27.765c-.46 0-.767-.307-.767-.767 0-.153 0-.307.154-.46.92-1.074 1.994-2.148 3.068-3.221a.741.741 0 0 1 1.074 0 .741.741 0 0 1 0 1.073c-1.074 1.074-1.995 2.148-2.915 3.222-.153.153-.46.153-.614.153zm7.21-7.21c-.46 0-.767-.306-.767-.767 0-.153.154-.46.307-.613.307-.307.767-.614 1.074-.92.307-.307.767-.154 1.074.153.307.307.153.767-.153 1.074-.307.306-.768.613-1.074.92 0 .153-.307.153-.46.153zm101.248-.767c-.153 0-.307 0-.46-.153-.307-.307-.767-.614-1.074-.92-.307-.307-.307-.767-.154-1.074.154-.307.767-.307 1.074-.154.46.307.767.614 1.074.92.307.308.307.768.154 1.075-.154.153-.46.306-.614.306zm-5.83-4.448c-.153 0-.306 0-.46-.154-1.227-.767-2.454-1.687-3.681-2.454-.307-.153-.46-.767-.307-1.074.153-.307.767-.46 1.074-.307 1.227.767 2.454 1.534 3.681 2.455.307.307.46.767.154 1.074 0 .306-.307.46-.46.46zm-83.452-3.222c-.46 0-.767-.306-.767-.767 0-.306.153-.46.307-.613a85.95 85.95 0 0 1 16.26-7.21c.461-.153.768.154.921.46.154.46-.153.767-.46.92-5.523 1.688-10.892 4.142-15.954 7.057 0 0-.154.153-.307.153zm69.34-4.601h-.308c-5.369-2.301-11.045-3.835-16.72-4.91-.461 0-.768-.46-.614-.92 0-.46.46-.767.92-.613 5.83 1.074 11.505 2.608 17.028 4.909.46.153.614.613.46 1.073-.307.307-.46.46-.767.46zm-41.88-5.063c-.46 0-.767-.306-.767-.767 0-.306.306-.767.613-.767 1.38-.153 2.915-.46 4.449-.46.46 0 .767.307.767.767s-.307.767-.767.767c-1.227 0-2.608.154-4.295.46.153 0 .153 0 0 0zm10.278-.92c-.46 0-.767-.307-.767-.767s.307-.767.767-.767h1.38c.46 0 .767.307.767.767s-.306.767-.613.767h-1.534zM218.617 8.818c18.461 0 36.154 7.339 49.23 20.334h4.309c-25.078-27.214-66.616-31.189-96.463-9.326h5.385c11.077-7.186 24.154-11.008 37.539-11.008z" fill="#FFF" fill-opacity=".32"/><path d="M218.617 147.178c-14.308 0-28.308-4.434-40.154-12.69h-5.077c31.23 24.768 76.923 19.723 101.846-11.313.154-.153.308-.306.308-.458h-4c-13.077 15.44-32.462 24.46-52.923 24.46zM96.308 8.818a69.924 69.924 0 0 1 37.693 11.008h5.384C114.616 1.633 81.077 1.02 55.54 18.144h5.846a69.833 69.833 0 0 1 34.923-9.326zM96.308 147.178c-15.538 0-30.77-5.198-42.923-14.83h-4.77c26.462 23.086 65.54 23.85 93.078 2.14h-5.077c-11.846 8.256-26 12.69-40.308 12.69z" fill-opacity=".32" fill="#FFF"/><path d="M264.155 38.019c-1.384 0-2.615 1.223-2.615 2.599v64.058c0 1.376 1.23 2.6 2.615 2.6h34.308c1.385 0 2.616-1.224 2.616-2.6V40.618c0-1.376-1.231-2.6-2.616-2.6h-34.308z" fill="#FFF"/><path d="M274.925 73.992c0 .458.154 1.07.615 1.376l.77.458 4.461-2.293 3.692 1.988c.462.305 1.077.305 1.539-.153l.769-.612-.615-5.198 3.077-3.21c.307-.46.461-.918.307-1.376l-.307-.765-4.924-.917-2-3.975c-.307-.459-.769-.765-1.384-.765h-.923l-2.308 4.74-4.154.764c-.461.153-.923.459-1.077.918l-.154.917 3.539 3.822-.923 4.28zm4.461-8.562l1.539-2.905 1.538 2.905 3.231.612-2.308 2.446.462 3.363-2.923-1.528-2.923 1.528.461-3.363-2.307-2.446 3.23-.612z" fill="url(#a)" transform="translate(0 5)"/><path d="M11.23 116.295h58.001a2.75 2.75 0 0 0 2.77-2.752V30.222a2.75 2.75 0 0 0-2.77-2.752h-58a2.75 2.75 0 0 0-2.77 2.752v83.169c0 1.528 1.231 2.751 2.77 2.904z" fill="#FFF"/><path d="M48.77 63.901l-5.539-.917-2.154-4.28c-.308-.612-.923-.918-1.538-.918h-1.077l-2.616 5.198-4.615.765c-.615.152-1.077.458-1.23 1.07l-.309.917 4 4.28-.769 4.893c0 .612.154 1.223.616 1.529l.923.611 4.923-2.599 4.154 2.14c.615.307 1.23.307 1.692-.152l.77-.612-.77-5.81 3.385-3.516c.461-.458.615-1.07.461-1.528l-.307-1.07zM42.308 69.1l.461 3.517-3.076-1.682-3.077 1.682.461-3.67-2.461-2.751 3.538-.612 1.539-3.21 1.538 3.21 3.539.612-2.462 2.904z" fill="url(#a)" transform="translate(0 5)"/><path d="M117.078 91.07h88.77c1.846 0 3.23-1.376 3.23-3.211V35.267c0-1.835-1.384-3.21-3.23-3.21h-88.77c-1.847 0-3.231 1.375-3.231 3.21v52.592c0 1.682 1.384 3.21 3.23 3.21z" fill="#FFF"/><path d="M300.925 32.21H261.54c-2.923 0-5.23 2.293-5.23 5.35v76.748c0 2.905 2.307 5.198 5.23 5.198h39.385c2.923 0 5.23-2.293 5.23-5.198v-76.9c.155-2.905-2.307-5.199-5.23-5.199zm-13.385 80.722c0 1.376-1.077 2.446-2.461 2.446h-7.693c-1.384 0-2.461-1.07-2.461-2.293v-.153c0-1.376 1.077-2.446 2.461-2.446h7.693c1.384 0 2.461 1.07 2.461 2.446zm13.693-8.256c0 1.376-1.231 2.6-2.616 2.6H264.31c-1.384 0-2.615-1.224-2.615-2.6V40.618c0-1.376 1.23-2.6 2.615-2.6h34.154c1.385 0 2.616 1.224 2.616 2.6l.154 64.058zM8.769 129.291h63.078c3.077 0 5.692-2.447 5.692-5.657V26.858a5.661 5.661 0 0 0-5.692-5.656H8.769c-3.077 0-5.692 2.446-5.692 5.656v96.776c0 3.21 2.461 5.657 5.692 5.657zm22.154-6.116v-1.834c0-1.07.923-1.988 2-1.988H47.54c1.077 0 2 .917 2 1.988v1.987c0 1.07-.923 1.988-2 1.988H32.923c-1.077 0-2-.918-2-2.14zM8.462 30.222a2.75 2.75 0 0 1 2.769-2.752h58a2.75 2.75 0 0 1 2.77 2.752v83.169c0 1.528-1.231 2.751-2.77 2.904h-58a2.75 2.75 0 0 1-2.77-2.752V30.222zm105.693 65.74h94.462c3.077 0 5.538-2.446 5.538-5.351V28.387c0-3.057-2.461-5.504-5.538-5.504h-94.462c-3.077 0-5.539 2.447-5.539 5.351v62.224c0 3.21 2.462 5.657 5.539 5.504zm45.384-68.798c0-.917.77-1.682 1.847-1.682.923 0 1.846.765 1.846 1.682 0 .917-.77 1.682-1.846 1.682-.923 0-1.693-.765-1.693-1.529l-.154-.153zm-45.692 8.103c0-1.835 1.384-3.21 3.23-3.21h88.77c1.847 0 3.231 1.375 3.231 3.21v52.592c0 1.835-1.384 3.21-3.23 3.21h-88.77c-1.847 0-3.231-1.375-3.231-3.21V35.267zm108.308 96.164c1.846.153 3.385-1.223 3.385-3.058v-1.529c0-.458-.154-.764-.308-1.07l-11.23-24.614c-.616-1.223-1.847-1.988-3.231-1.835h-99.54a3.59 3.59 0 0 0-3.23 1.988l-10.616 24.614c-.154.306-.154.764-.154 1.07v1.682c.154 1.835 1.539 3.21 3.385 3.058l121.54-.306zm-13.077-22.933c.154.612.462 1.223.462 1.682.154.459-.616.917-1.385.917h-5.692c-.462 0-.923-.153-.923-.458-.154-.612-.308-1.223-.462-1.682-.154-.459.462-.917 1.23-.917h5.693c.462-.153.77.153 1.077.458zm-8.461-6.115H206c.462 0 .77.153.923.459.154.611.308 1.07.462 1.681.154.459-.462.918-1.23.918h-5.232c-.461 0-.769-.153-.923-.459-.154-.612-.461-1.07-.615-1.682-.154-.306.461-.764 1.23-.917zm-4.923 6.115l.307 1.835c.154.459-.615.917-1.384.917h-5.847c-.461 0-.923-.153-1.077-.458l-.461-1.835c-.154-.459.615-1.07 1.385-1.07h6c.615.153 1.077.306 1.077.611zm-8-6.115h5.692c.461 0 .923.153.923.459l.308 1.681c.153.459-.616.918-1.385.918h-5.539c-.461 0-.923-.153-.923-.459l-.461-1.682c-.154-.306.461-.764 1.384-.917zm-6.77 6.115c.154.765.154 1.07.308 1.835 0 .459-.616.917-1.385.917h-6c-.615 0-1.077-.306-1.077-.611l-.461-1.835c-.154-.459.615-.917 1.384-.917h6.308c.462.153.923.458.923.611zm-7.692-6.115h6c.615 0 1.077.306 1.077.611l.307 1.682c0 .459-.615.918-1.23.918h-5.846c-.616 0-1.077-.306-1.077-.612l-.308-1.682c-.308-.306.308-.764 1.077-.917zm-15.385.764c.154-.305.616-.611 1.23-.611h5.386c.615 0 1.076.306 1.076.611l.308 1.682c0 .459-.461.765-1.23.765h-6c-.77 0-1.231-.306-1.231-.765.153-.611.307-.917.461-1.682zm-.308 5.657c.154-.306.616-.611 1.231-.611h5.693c.615 0 1.23.305 1.23.611l.308 1.835c.154.458-.462.917-1.23.917h-6.308c-.77 0-1.385-.459-1.231-.917 0-.765.154-1.07.307-1.835zm-13.23-6.268h6c.769 0 1.384.458 1.23.917-.153.459-.307 1.07-.461 1.682-.154.459-.616.611-1.077.611h-5.846c-.77 0-1.385-.458-1.231-.917.154-.459.308-1.07.461-1.682 0-.305.462-.458.924-.611zm-2.154 6.268c0-.306.461-.611 1.077-.611h6.307c.77 0 1.385.458 1.231.917-.154.764-.308 1.07-.461 1.834-.154.46-.616.612-1.077.612h-6c-.77 0-1.385-.459-1.385-.917.154-.612.154-1.07.308-1.835zm-20.308.459c-.308.611-.462 1.223-.615 1.834-.154.306-.462.459-.924.612h-5.692c-.77 0-1.538-.459-1.385-1.07.154-.612.308-1.223.616-1.682.154-.306.615-.612 1.077-.612h5.692c.923 0 1.385.46 1.23.918zm1.385-3.975c-.154.306-.616.611-1.077.458h-5.231c-.77 0-1.231-.458-1.077-.917.154-.611.461-1.07.615-1.682.154-.305.462-.611.923-.458h5.385c.77 0 1.385.458 1.23.917-.153.459-.46 1.07-.768 1.682zm12 5.81c-.154.305-.462.458-1.077.458h-5.847c-.769 0-1.538-.459-1.384-1.07.154-.612.308-1.07.461-1.835.154-.306.462-.611 1.077-.611h6c.77 0 1.539.458 1.385 1.07-.154.611-.462 1.223-.615 1.987zm1.384-5.963c-.154.306-.615.611-1.077.459h-5.538c-.77 0-1.385-.46-1.231-.918.154-.458.308-1.07.462-1.682.153-.305.615-.611.923-.458h5.692c.77 0 1.385.458 1.23.917-.153.459-.307 1.223-.46 1.682zm3.385 16.817c.461-2.599.77-3.975 1.23-6.727 0-.306.462-.611 1.078-.611l38.923-.306c.615 0 1.077.306 1.077.611.308 2.294.615 4.587.615 6.88 0 .459-.615.918-1.384.918h-40.308c-.616 0-1.231-.306-1.231-.765z" fill="#00438D"/><path d="M300.925 29.152h-.308V27.776c0-.765-.615-1.376-1.384-1.376h-7.385c-.77 0-1.385.611-1.385 1.376V29.152H261.54c-4.615 0-8.308 3.669-8.308 8.255v76.9c0 4.587 3.693 8.257 8.308 8.257h39.385c4.615 0 8.462-3.67 8.462-8.256V37.407c0-4.586-3.847-8.255-8.462-8.255zm5.385 85.156c0 2.905-2.308 5.198-5.231 5.198h-39.385c-2.923 0-5.23-2.293-5.23-5.198v-76.9c0-2.905 2.307-5.199 5.23-5.352h39.385c2.923 0 5.23 2.294 5.23 5.351v76.9zm-18.77-1.376c0 1.376-1.077 2.446-2.461 2.446h-7.693c-1.384 0-2.461-1.07-2.461-2.293v-.153c0-1.376 1.077-2.446 2.461-2.446h7.693c1.384 0 2.461 1.07 2.461 2.446zM61.693 132.348h10c4.769 0 8.769-3.822 8.769-8.714V26.858c0-4.586-3.538-8.255-8.154-8.561H8.77C4 18.297 0 22.119 0 26.858v96.776c0 4.74 3.846 8.714 8.77 8.714h52.923zM3.077 26.858a5.661 5.661 0 0 1 5.692-5.656h63.078c3.077 0 5.692 2.446 5.692 5.656v96.776a5.661 5.661 0 0 1-5.692 5.657H8.769c-3.077 0-5.692-2.447-5.692-5.657V26.858zm29.846 98.458c-1.077 0-2-.918-2-1.988v-1.987c0-1.07.923-1.988 2-1.988H47.54c1.077 0 2 .917 2 1.988v1.987c0 1.07-.923 1.988-2 1.988H32.923zm154.617 9.173H222c3.539.152 6.462-2.6 6.462-6.116v-1.529c0-.764-.154-1.681-.462-2.446l-11.23-24.614c-.462-1.223-1.385-2.14-2.462-2.752 1.846-1.682 2.923-3.975 2.923-6.421V28.387c0-4.74-3.846-8.408-8.615-8.561h-94.462c-4.77 0-8.462 3.822-8.616 8.561v62.224c0 2.293.923 4.586 2.616 6.115a5.987 5.987 0 0 0-3.077 3.058L94.616 124.55a6.101 6.101 0 0 0-.462 2.293v1.682c.154 3.516 2.924 6.268 6.462 6.115l86.924-.152zm-86.924-3.058c-1.846.153-3.385-1.223-3.385-3.058v-1.529c0-.305 0-.764.154-1.07l10.616-24.614a3.59 3.59 0 0 1 3.23-1.988h99.54c1.384 0 2.615.765 3.23 1.835l11.231 24.614c.154.306.308.765.308 1.07v1.53c-.154 1.834-1.539 3.21-3.385 3.057l-121.539.153zm8-40.82V28.387c0-3.057 2.462-5.504 5.539-5.504h94.462c3.077 0 5.538 2.447 5.538 5.351v62.224c0 3.058-2.461 5.351-5.538 5.351h-94.462c-3.077.306-5.539-2.14-5.539-5.198zm31.385 31.341c.461-2.599.77-3.975 1.23-6.727 0-.306.462-.611 1.078-.611l38.923-.306c.615 0 1.077.306 1.077.611.308 2.294.615 4.587.615 6.88 0 .459-.615.918-1.384.918h-40.308c-.616 0-1.231-.306-1.231-.765zm-4.308-12.69c-.154.765-.308 1.07-.461 1.835-.154.306-.462.459-1.077.459h-5.847c-.769 0-1.538-.459-1.384-1.07.154-.612.308-1.07.461-1.835.154-.306.462-.611 1.077-.611h6c.77.305 1.539.764 1.231 1.223zm6.154 1.377c.154-.765.154-1.07.308-1.835 0-.306.461-.611 1.077-.611h6.307c.77 0 1.385.458 1.231.917-.154.764-.308 1.07-.461 1.834-.154.46-.616.612-1.077.612h-6.154c-.616 0-1.385-.459-1.231-.917zm38-2.6c.616 0 1.077.306 1.077.612.154.765.154 1.07.308 1.835 0 .458-.616.917-1.385.917h-6c-.615 0-1.077-.306-1.077-.611l-.461-1.835c-.154-.459.615-.917 1.384-.917h6.154zm-22.77 2.6l.309-1.835c.153-.306.615-.611 1.23-.611h5.693c.615 0 1.23.305 1.23.611l.308 1.835c.154.458-.461.917-1.23.917h-6.308c-.77 0-1.385-.459-1.231-.917zm31.693-2.6h6c.462 0 .924.154.924.46l.307 1.834c.154.459-.615.917-1.384.917h-5.847c-.461 0-.923-.153-1.077-.458l-.461-1.835c0-.459.615-.917 1.538-.917zm-51.538-4.433c-.308.612-.308 1.07-.616 1.682-.154.306-.615.611-1.077.458h-5.538c-.77 0-1.385-.458-1.231-.917.154-.459.308-1.07.462-1.682.153-.305.615-.611.923-.458h5.692c.77 0 1.538.458 1.385.917zm7.077-.917h6c.769 0 1.384.458 1.23.917-.153.459-.307 1.07-.461 1.682-.154.458-.616.611-1.077.611h-5.846c-.77 0-1.385-.458-1.231-.917.154-.459.308-1.07.461-1.682 0-.458.462-.611.924-.611zm28 2.446l-.308-1.682c-.154-.459.462-.917 1.23-.917h6c.616 0 1.078.306 1.078.611l.307 1.682c0 .459-.615.917-1.23.917h-5.846c-.77-.152-1.231-.305-1.231-.611zm-14.923-.153c.153-.612.307-1.07.461-1.682.154-.306.616-.611 1.23-.611h5.386c.615 0 1.076.305 1.076.611l.308 1.682c0 .459-.461.764-1.23.764h-6c-.77 0-1.231-.458-1.231-.764zm29.23.153l-.461-1.682c-.154-.459.615-.917 1.385-.917h5.692c.462 0 .923.153.923.458l.308 1.682c.154.459-.616.918-1.385.918h-5.385c-.461 0-.923-.153-1.076-.46zm-64.77 4.28c-.307.612-.46 1.224-.614 1.835-.154.306-.462.459-.924.612h-5.692c-.77 0-1.538-.459-1.385-1.07.154-.612.308-1.224.616-1.835.154-.306.615-.612 1.077-.612h5.692c.923 0 1.385.46 1.23 1.07zm2.155-5.809c-.308.612-.308 1.07-.616 1.682-.153.306-.615.611-1.077.458h-5.384c-.77 0-1.231-.458-1.077-.917.154-.611.461-1.07.615-1.682.154-.305.462-.611.923-.458h5.385c.615 0 1.385.458 1.23.917zm78.308 4.434H208c.462 0 .77.153 1.077.458.154.612.462 1.223.462 1.682.154.459-.616.917-1.385.917h-5.692c-.462 0-.923-.153-.923-.458-.154-.612-.308-1.223-.462-1.682-.308-.459.308-.917 1.23-.917zm-2.462-2.905c-.153-.612-.461-1.07-.615-1.682-.154-.459.615-.917 1.385-.917H206c.462 0 .77.153.923.458.154.612.308 1.07.462 1.682.154.459-.462.918-1.23.918h-5.232c-.461 0-.923-.153-1.077-.46zm-38.461-75.983c-.923 0-1.847-.765-1.847-1.835 0-.917.77-1.682 1.847-1.682.923 0 1.846.765 1.846 1.682-.154 1.07-.923 1.835-1.846 1.835z" fill="#FFF"/><path d="M171.54 52.588l-.308-.917-5.539-.918-2.154-4.28c-.307-.612-.923-.918-1.538-.918h-1.077l-2.615 5.198-4.616.765c-.615.153-1.077.458-1.23 1.07l-.308.917 4 4.281-.616 4.892c0 .612.154 1.223.616 1.53l.923.61L162 62.22l4.154 2.14c.615.306 1.23.306 1.692-.153l.77-.611-.77-5.81 3.385-3.516c.308-.459.461-1.223.308-1.682zm-6.924 4.128l.462 3.67L162 58.702l-3.077 1.682.462-3.67-2.616-2.751 3.539-.612 1.538-3.21 1.539 3.21 3.538.612-2.308 2.752z" fill="url(#a)" transform="translate(0 5)"/><path d="M272.002 47.39c0 4.892 4 8.714 8.769 8.714 4.77 0 8.77-3.975 8.77-8.714 0-4.74-4-8.714-8.77-8.714s-8.77 3.822-8.77 8.714zm8.923-6.115c3.384 0 6.154 2.752 6.154 6.115 0 3.363-2.77 6.115-6.154 6.115-3.385 0-6.154-2.752-6.154-6.115 0-3.363 2.77-6.115 6.154-6.115zm-1.385 6.574v-4.281c0-.459.308-.765.77-.765.461 0 .769.306.769.765v3.516h3.538c.462 0 .77.306.77.765 0 .458-.308.764-.77.764h-4.308c-.307 0-.769-.306-.769-.764zm3.385 37.915c-.77-.153-1.231-.765-1.231-1.529 0-.612.615-1.07 1.23-1.223h1.54c-.924-.917-2.308-1.529-3.693-1.529-2.308 0-4.308 1.529-4.923 3.822-.154.612-.616 1.07-1.385 1.07h-.307c-.77-.153-1.231-.917-.924-1.529 1.077-4.127 5.231-6.574 9.385-5.503 1.23.305 2.308.917 3.23 1.681v-.764c.155-.764.77-1.223 1.54-1.223.615 0 1.076.611 1.23 1.223v4.28c0 .765-.615 1.377-1.384 1.377l-4.308-.153zm-2 8.408c-1.846 0-3.693-.764-5.077-1.834v.611c-.154.765-.77 1.223-1.539 1.223-.615 0-1.077-.611-1.23-1.223v-4.128c0-.764.615-1.375 1.384-1.375h4.308c.77.152 1.23.764 1.23 1.528 0 .612-.615 1.07-1.23 1.223h-1.539c.924.918 2.308 1.53 3.693 1.53 2.308 0 4.308-1.53 4.923-3.823.308-.764 1.077-1.07 1.692-.764.616.153.923.764.923 1.529-.923 3.21-4 5.656-7.538 5.503zM39.693 51.365c5.384 0 9.692-4.28 9.692-9.632 0-5.35-4.308-9.631-9.692-9.631-5.385 0-9.693 4.28-9.693 9.631-.154 5.351 4.154 9.785 9.693 9.632-.154.153-.154.153 0 0zm0-16.206c3.692 0 6.615 2.905 6.615 6.574 0 3.67-2.923 6.574-6.615 6.574-3.693 0-6.616-2.905-6.616-6.574s2.923-6.42 6.616-6.574zm-1.385 7.186v-4.587c0-.458.308-.764.77-.764.46 0 .768.306.768.764v3.822h3.847c.461 0 .769.306.769.765 0 .458-.308.764-.77.764h-4.615c-.461 0-.77-.306-.77-.611v-.153zm9.846 43.266v4.586c0 .918-.615 1.53-1.538 1.53H42c-.923 0-1.538-.612-1.538-1.53 0-.917.615-1.528 1.538-1.528h1.539c-1.077-1.07-2.462-1.53-3.846-1.53-2.462 0-4.77 1.682-5.385 4.129-.154.764-.77 1.223-1.539 1.223h-.307c-.77-.153-1.385-1.07-1.077-1.835 1.077-4.586 5.692-7.338 10.154-6.268a8.406 8.406 0 0 1 3.692 1.834v-.458c0-.918.615-1.529 1.539-1.529.923 0 1.538.611 1.384 1.376zm-.308 9.02c-1.076 4.587-5.692 7.338-10.153 6.268A8.406 8.406 0 0 1 34 99.065v.458c0 .918-.615 1.53-1.538 1.53s-1.539-.612-1.539-1.53v-4.586c0-.917.616-1.529 1.539-1.529h4.615c.923 0 1.539.612 1.539 1.529 0 .917-.616 1.529-1.539 1.529H35.54c1.077 1.07 2.461 1.528 3.846 1.528 2.461.153 4.77-1.528 5.538-3.974.308-.765 1.077-1.224 1.847-1.07.923.305 1.384 1.07 1.076 1.681zm88.155-29.965c5.384 0 9.692-4.28 9.692-9.632 0-5.35-4.308-9.632-9.692-9.632-5.385 0-9.693 4.281-9.693 9.632 0 5.198 4.308 9.632 9.693 9.632zm0-16.359c3.692 0 6.615 2.905 6.615 6.574 0 3.67-2.923 6.574-6.615 6.574s-6.616-2.905-6.616-6.574 2.924-6.574 6.616-6.574zm-1.385 7.186v-4.587c0-.458.308-.764.77-.764.461 0 .769.306.769.764v3.822h4c.461 0 .769.306.769.765 0 .458-.308.764-.77.764h-4.769c-.461 0-.769-.306-.769-.764zm44.616 6.42v-4.586c0-.917.615-1.528 1.538-1.528h4.616c.923 0 1.538.611 1.538 1.528 0 .918-.615 1.53-1.538 1.53h-1.539c1.077 1.07 2.462 1.528 3.846 1.528 2.462 0 4.77-1.682 5.231-4.128.308-.764 1.077-1.223 1.846-1.07.77.153 1.231 1.07 1.077 1.835-1.077 4.586-5.692 7.338-10.154 6.268a8.406 8.406 0 0 1-3.692-1.835v.459c0 .917-.615 1.529-1.538 1.529s-1.385-.612-1.231-1.53zm.308-9.02c1.076-4.586 5.692-7.338 10.153-6.267a8.406 8.406 0 0 1 3.693 1.834v-.458c0-.918.615-1.53 1.538-1.53s1.539.612 1.539 1.53v4.586c0 .917-.616 1.529-1.539 1.529h-4.615c-.923 0-1.539-.612-1.539-1.529 0-.917.616-1.529 1.539-1.529h1.538c-1.077-1.07-2.461-1.529-3.846-1.529-2.461 0-4.77 1.682-5.23 4.128-.154.765-.77 1.223-1.54 1.223h-.307c-.923-.305-1.538-1.07-1.384-1.987z" fill="url(#b)" transform="translate(0 5)"/></g></svg>