<?xml version="1.0" encoding="utf-8"?>
<svg viewBox="0 0 201.1 102.5" xmlns="http://www.w3.org/2000/svg">
  <style>.st0{fill:#eaeaee}.st2{fill:#fff}.st3{fill:#90e8f0}
</style>
  <g id="RingRightInner">
    <path class="st0" d="M142.1 93.3c-3 0-5.9-.3-8.8-.9-.3-.1-.4-.3-.4-.6.1-.3.3-.4.6-.4 2.8.6 5.6.9 8.5.9.7 0 1.5 0 2.2-.1.3 0 .5.2.5.4 0 .3-.2.5-.5.5-.7.2-1.4.2-2.1.2zm8.6-.9c-.3 0-.5-.2-.5-.5 0-.2.2-.4.4-.5.7-.1 1.4-.3 2.1-.5.3-.1.5.1.6.4.1.3-.1.5-.4.6-.7.2-1.4.4-2.1.5h-.1zm6.2-1.8c-.3 0-.5-.2-.5-.5 0-.2.1-.4.3-.5 2.7-1 5.2-2.3 7.6-3.9.2-.2.5-.1.7.1s.1.5-.1.7c-2.5 1.6-5.1 2.9-7.8 4-.1.1-.1.1-.2.1zm-31.8-.8h-.2c-2.7-1.2-5.2-2.7-7.6-4.4-.2-.2-.3-.5-.1-.7.2-.2.5-.3.7-.1 2.3 1.7 4.8 3.1 7.4 4.3.3.1.4.4.3.7-.1 0-.3.2-.5.2zm-10.9-7.1c-.1 0-.2 0-.3-.1-.5-.5-1.1-1-1.6-1.5-.2-.2-.2-.5 0-.7.2-.2.5-.2.7 0 .5.5 1 1 1.6 1.5.2.2.2.5 0 .7-.1 0-.2.1-.4.1zm57.2-1.6c-.3 0-.5-.2-.5-.5 0-.1.1-.3.1-.4 2.5-2.5 4.7-5.4 6.5-8.5.1-.2.4-.3.7-.2.2.1.3.4.2.7-1.8 3.2-4.1 6.1-6.7 8.7 0 .2-.2.2-.3.2zm-63-4.9c-.2 0-.3-.1-.4-.2-2.2-3-3.9-6.2-5.3-9.6-.1-.3 0-.5.3-.6s.5 0 .6.3c1.3 3.3 3 6.5 5.1 9.4.2.2.1.5-.1.7h-.2zm72.4-9.5c-.3 0-.5-.2-.5-.5V66c.3-.7.5-1.3.7-2 .1-.3.4-.4.6-.3.3.1.4.4.3.6-.2.7-.5 1.4-.7 2.1 0 .1-.2.3-.4.3zm1.9-6.3h-.1c-.3-.1-.4-.3-.4-.6.6-2.8.9-5.7.9-8.5v-.2c0-.3.2-.5.5-.5s.5.2.5.5v.2c0 2.9-.3 5.9-.9 8.7-.1.2-.3.4-.5.4zM101 58.3c-.2 0-.5-.2-.5-.4-.3-2.2-.5-4.4-.5-6.7 0-.7 0-1.4.1-2.1 0-.3.2-.5.5-.5s.5.2.5.5c0 .7-.1 1.4-.1 2.1 0 2.2.2 4.4.5 6.5 0 .3-.2.6-.5.6zm82.3-11c-.3 0-.5-.2-.5-.4-.3-2.9-.9-5.7-1.8-8.4-.1-.3.1-.5.3-.6s.5.1.6.3c.9 2.8 1.5 5.7 1.9 8.6 0 .2-.2.4-.5.5.1 0 .1 0 0 0 .1 0 0 0 0 0zm-82.4-2c-.3 0-.5-.3-.5-.6.1-.7.2-1.5.4-2.2.1-.3.3-.4.6-.4.3.1.4.3.4.6-.1.7-.3 1.4-.4 2.1 0 .4-.2.5-.5.5zm2.3-8.4c-.3 0-.5-.2-.5-.5v-.2c1.3-3.4 3.1-6.7 5.2-9.7.2-.2.5-.3.7-.1s.3.5.1.7c-2.1 2.9-3.8 6.1-5.1 9.4 0 .3-.2.4-.4.4zm74.7-6.1c-.2 0-.3-.1-.4-.2-1.8-3.1-4-5.9-6.6-8.5-.2-.2-.2-.5 0-.7.2-.2.5-.2.7 0 2.6 2.6 4.9 5.5 6.7 8.7.1.2.1.5-.2.7h-.2zm-63.8-9.9c-.3 0-.5-.2-.5-.5 0-.1.1-.3.2-.4 2.2-2 4.6-3.7 7.1-5.2.2-.1.5-.1.7.2s.1.5-.2.7c-2.5 1.4-4.8 3.1-6.9 5.1-.1.1-.3.1-.4.1zm52.2-2.8c-.1 0-.2 0-.3-.1l-1.8-1.2c-.2-.1-.3-.5-.1-.7.1-.2.5-.3.7-.1l1.8 1.2c.2.2.3.5.1.7-.1.1-.2.2-.4.2zm-5.6-3.4c-.1 0-.2 0-.2-.1-2.6-1.3-5.2-2.3-8-3.1-.3-.1-.4-.3-.4-.6.1-.3.3-.4.6-.4 2.8.8 5.6 1.8 8.2 3.1.2.1.3.4.2.7 0 .3-.2.4-.4.4zm-35.7-.9c-.3 0-.5-.2-.5-.5 0-.2.1-.4.3-.5.7-.3 1.3-.6 2-.8.3-.1.5 0 .6.3.1.3 0 .5-.3.6-.7.3-1.3.5-2 .8 0 .1 0 .1-.1.1zm8.2-2.7c-.3 0-.5-.2-.5-.5 0-.2.2-.4.4-.5 3.6-.8 7.3-1.1 10.9-.9.3 0 .5.2.5.5s-.2.5-.5.5c-3.6-.2-7.2.1-10.7.9h-.1z"/>
    <animateTransform attributeName="transform" attributeType="XML" type="rotate" from="0 142 51" to="-360 142 51" dur="10s" repeatCount="indefinite"/>
  </g>
  <g id="RingLeftInner">
    <path class="st0" d="M62.8 93.3c-3 0-5.9-.3-8.8-.9-.3-.1-.4-.3-.4-.6.1-.3.3-.4.6-.4 2.8.6 5.6.9 8.5.9.7 0 1.5 0 2.2-.1.3 0 .5.2.5.4 0 .3-.2.5-.5.5-.6.2-1.3.2-2.1.2zm8.6-.9c-.3 0-.5-.2-.5-.5 0-.2.2-.4.4-.5.7-.1 1.4-.3 2.1-.5.3-.1.5.1.6.4.1.3-.1.5-.4.6-.7.2-1.4.4-2.1.5h-.1zm6.3-1.8c-.3 0-.5-.2-.5-.5 0-.2.1-.4.3-.5 2.7-1 5.2-2.3 7.6-3.9.2-.2.5-.1.7.1s.1.5-.1.7c-2.5 1.6-5.1 2.9-7.8 4-.1.1-.2.1-.2.1zm-31.8-.8h-.2c-2.7-1.2-5.2-2.7-7.6-4.4-.2-.2-.3-.5-.1-.7.2-.2.5-.3.7-.1 2.3 1.7 4.8 3.1 7.4 4.3.3.1.4.4.3.7-.1 0-.3.2-.5.2zM35 82.7c-.1 0-.2 0-.3-.1-.5-.5-1.1-1-1.6-1.5-.2-.2-.2-.5 0-.7.2-.2.5-.2.7 0 .5.5 1 1 1.6 1.5.2.2.2.5 0 .7-.1 0-.3.1-.4.1zm57.2-1.6c-.3 0-.5-.2-.5-.5 0-.1.1-.3.1-.4 2.5-2.5 4.7-5.4 6.5-8.5.1-.2.4-.3.7-.2.2.1.3.4.2.7-1.8 3.2-4.1 6.1-6.7 8.7-.1.2-.2.2-.3.2zm-63-4.9c-.2 0-.3-.1-.4-.2-2.2-3-3.9-6.2-5.3-9.6-.1-.3 0-.5.3-.6s.5 0 .6.3c1.3 3.3 3 6.5 5.1 9.4.2.2.1.5-.1.7h-.2zm72.4-9.5c-.3 0-.5-.2-.5-.5V66c.3-.7.5-1.3.7-2 .1-.3.4-.4.6-.3.3.1.4.4.3.6-.2.7-.5 1.4-.7 2.1 0 .1-.2.3-.4.3zm1.8-6.3h-.1c-.3-.1-.4-.3-.4-.6.6-2.8.9-5.7.9-8.5v-.2c0-.3.2-.5.5-.5s.5.2.5.5v.2c0 2.9-.3 5.9-.9 8.7 0 .2-.2.4-.5.4zm-81.7-2.1c-.2 0-.5-.2-.5-.4-.3-2.2-.5-4.4-.5-6.7 0-.7 0-1.4.1-2.1 0-.3.2-.5.5-.5s.5.2.5.5c0 .7-.1 1.4-.1 2.1 0 2.2.2 4.4.5 6.5.1.3-.1.6-.5.6.1 0 0 0 0 0zm82.4-11c-.3 0-.5-.2-.5-.4-.3-2.9-.9-5.7-1.8-8.4-.1-.3.1-.5.3-.6s.5.1.6.3c.9 2.8 1.5 5.7 1.9 8.6 0 .2-.2.4-.5.5zm-82.4-2s-.1 0 0 0c-.3 0-.5-.3-.5-.6.1-.7.2-1.5.4-2.2.1-.3.3-.4.6-.4.3.1.4.3.4.6-.1.7-.3 1.4-.4 2.1 0 .4-.3.5-.5.5zm2.2-8.4c-.3 0-.5-.2-.5-.5v-.2c1.3-3.4 3.1-6.7 5.2-9.7.2-.2.5-.3.7-.1s.3.5.1.7c-2.1 2.9-3.8 6.1-5.1 9.4 0 .3-.2.4-.4.4zm74.8-6.1c-.2 0-.3-.1-.4-.2-1.8-3.1-4-5.9-6.6-8.5-.2-.2-.2-.5 0-.7.2-.2.5-.2.7 0 2.6 2.6 4.9 5.5 6.7 8.7.1.2.1.5-.2.7h-.2zm-63.8-9.9c-.3 0-.5-.2-.5-.5 0-.1.1-.3.2-.4 2.2-2 4.6-3.7 7.1-5.2.2-.1.5-.1.7.2s.1.5-.2.7c-2.5 1.4-4.8 3.1-6.9 5.1-.2.1-.3.1-.4.1zm52.2-2.8c-.1 0-.2 0-.3-.1L85 16.8c-.2-.1-.3-.5-.1-.7.1-.2.5-.3.7-.1l1.8 1.2c.2.2.3.5.1.7-.1.1-.3.2-.4.2zm-5.6-3.4c-.1 0-.2 0-.2-.1-2.6-1.3-5.2-2.3-8-3.1-.3-.1-.4-.3-.4-.6.1-.3.3-.4.6-.4 2.8.8 5.6 1.8 8.2 3.1.2.1.3.4.2.7 0 .3-.2.4-.4.4zm-35.7-.9c-.3 0-.5-.2-.5-.5 0-.2.1-.4.3-.5.7-.3 1.3-.6 2-.8.3-.1.5 0 .6.3.1.3 0 .5-.3.6-.7.3-1.3.5-2 .8 0 .1-.1.1-.1.1zm8.2-2.7c-.3 0-.5-.2-.5-.5 0-.2.2-.4.4-.5 3.6-.8 7.3-1.1 10.9-.9.3 0 .5.2.5.5s-.2.5-.5.5c-3.6-.2-7.2.1-10.7.9H54z"/>
    <animateTransform attributeName="transform" attributeType="XML" type="rotate" from="0 62 51" to="360 62 51" dur="10s" repeatCount="indefinite"/>
  </g>
  <g id="RingLeftOuter">
    <path class="st0" d="M62.6 102.5c-.9 0-1.7 0-2.6-.1-.3 0-.5-.2-.5-.5s.3-.5.5-.5c3.8.2 7.6 0 11.3-.7.3 0 .5.1.6.4 0 .3-.1.5-.4.6-2.9.5-5.9.8-8.9.8zm-10.1-1h-.1c-.9-.2-1.9-.4-2.8-.7-.3-.1-.4-.3-.4-.6s.3-.4.6-.4c.9.2 1.8.5 2.8.6.3.1.4.3.4.6-.1.3-.3.5-.5.5zM46 99.7h-.2l-.9-.3c-.3-.1-.4-.4-.3-.6s.4-.4.6-.3l.9.3c.3.1.4.4.3.6 0 .2-.2.3-.4.3zm33.8-.2c-.3 0-.5-.2-.5-.5 0-.2.1-.4.3-.5l.9-.3c.3-.1.5 0 .6.3s0 .5-.3.6l-.9.3c0 .1 0 .1-.1.1zm4.4-1.8c-.3 0-.5-.2-.5-.5 0-.2.1-.4.3-.5.9-.4 1.7-.8 2.5-1.3.2-.1.5 0 .7.2s0 .5-.2.7c-.8.5-1.7.9-2.6 1.3 0 .1-.1.1-.2.1zm-46.9-2c-.1 0-.2 0-.2-.1-3.4-1.9-6.5-4.2-9.3-6.9-.2-.2-.2-.5 0-.7.2-.2.5-.2.7 0 2.8 2.6 5.8 4.8 9.1 6.7.2.1.3.4.2.7-.1.3-.3.4-.5.3zm55.9-3.4c-.3 0-.5-.2-.5-.5 0-.2.1-.3.2-.4 3-2.3 5.8-4.9 8.2-7.8.2-.2.5-.2.7-.1s.2.5.1.7c-2.5 3-5.3 5.6-8.4 8-.1 0-.2.1-.3.1zm-70.3-9c-.2 0-.3-.1-.4-.2-.6-.7-1.2-1.5-1.7-2.3-.2-.2-.1-.5.1-.7.2-.2.5-.1.7.1.5.8 1.1 1.5 1.7 2.3.2.2.1.5-.1.7-.1.1-.2.1-.3.1zm-3.8-5.5c-.2 0-.3-.1-.4-.2-.2-.3-.3-.6-.5-.8-.1-.2-.1-.5.2-.7s.5-.1.7.2c.2.3.3.5.5.8.1.2.1.5-.2.7h-.3zm87.4-.5c-.3 0-.5-.2-.5-.5 0-.1 0-.2.1-.3.2-.3.3-.5.5-.8.1-.2.4-.3.7-.2.2.1.3.4.2.7-.2.3-.3.6-.5.8-.2.2-.3.3-.5.3zm2.2-4.2h-.2c-.3-.1-.4-.4-.2-.7.4-.9.8-1.7 1.1-2.6.1-.3.4-.4.7-.3.3.1.4.4.3.6-.4.9-.7 1.8-1.1 2.7-.2.2-.4.3-.6.3zM15 69.2c-.2 0-.4-.1-.5-.3-1.3-3.6-2.2-7.4-2.7-11.2 0-.3.2-.5.4-.6.3 0 .5.2.6.4.5 3.8 1.4 7.5 2.7 11 .1.3 0 .5-.3.6-.1.1-.2.1-.2.1zm97.1-6.1h-.1c-.3-.1-.4-.3-.4-.6.8-3.7 1.3-7.5 1.3-11.3V51c0-.3.2-.5.5-.5s.5.2.5.5v.2c0 3.9-.4 7.7-1.3 11.5-.1.3-.3.4-.5.4zM11.9 50.4c-.3 0-.5-.2-.5-.5 0-1 .1-1.9.2-2.9 0-.3.3-.5.5-.5.3 0 .5.3.5.5-.1.9-.1 1.9-.2 2.8 0 .4-.2.6-.5.6zm.6-6.6c-.4 0-.5-.3-.5-.6.1-.3.1-.6.2-1 0-.3.3-.5.6-.4s.5.3.4.6c-.1.3-.1.6-.2.9 0 .3-.2.5-.5.5zm100.1-.8c-.2 0-.5-.2-.5-.4-.1-.3-.1-.6-.2-.9-.1-.3.1-.5.4-.6s.5.1.6.4c.1.3.1.6.2 1 .1.2-.1.4-.5.5.1 0 .1 0 0 0 .1 0 .1 0 0 0zm-1-4.7c-.2 0-.4-.2-.5-.4-.2-.9-.5-1.8-.8-2.7-.1-.3.1-.5.3-.6.3-.1.5.1.6.3.3.9.6 1.8.8 2.8.1.3-.1.5-.4.6.1 0 0 0 0 0zm-96.7-3.8h-.2c-.3-.1-.4-.4-.3-.6 1.3-3.6 3-7.1 5.1-10.4.1-.2.5-.3.7-.1.2.1.3.5.1.7-2.1 3.2-3.8 6.6-5 10.2 0 .1-.2.2-.4.2zm92.9-6c-.2 0-.4-.1-.4-.3-1.7-3.4-3.9-6.5-6.3-9.4-.2-.2-.2-.5.1-.7s.5-.2.7.1c2.5 3 4.7 6.2 6.4 9.6.1.2 0 .5-.2.7h-.3zM24.6 18.1c-.3 0-.5-.2-.5-.5 0-.1 0-.2.1-.3.6-.7 1.3-1.4 2-2.1.2-.2.5-.2.7 0 .2.2.2.5 0 .7-.7.7-1.3 1.4-1.9 2.1-.1.1-.2.1-.4.1zm4.8-4.7c-.3 0-.5-.2-.5-.5 0-.1.1-.3.2-.4.2-.2.5-.4.7-.6.2-.2.5-.1.7.1.2.2.1.5-.1.7-.2.2-.5.4-.7.6-.1.1-.2.1-.3.1zm65.9-.5c-.1 0-.2 0-.3-.1-.2-.2-.5-.4-.7-.6-.3-.2-.3-.5-.1-.7s.5-.2.7-.1c.3.2.5.4.7.6.2.2.2.5.1.7-.1.2-.2.2-.4.2zM91.5 10c-.1 0-.2 0-.3-.1-.8-.5-1.6-1.1-2.4-1.6-.2-.1-.3-.5-.2-.7s.5-.3.7-.2c.8.5 1.6 1 2.4 1.6.2.2.3.5.1.7 0 .2-.1.3-.3.3zM37.1 7.9c-.3 0-.5-.2-.5-.5 0-.2.1-.3.2-.4 3.3-1.9 6.9-3.5 10.6-4.7.3-.1.5.1.6.3.1.3-.1.5-.3.6-3.6 1.1-7.1 2.7-10.4 4.6 0 0-.1.1-.2.1zM82.3 5h-.2c-3.5-1.5-7.2-2.5-10.9-3.2-.3 0-.5-.3-.4-.6 0-.3.3-.5.6-.4 3.8.7 7.5 1.7 11.1 3.2.3.1.4.4.3.7-.1.1-.3.3-.5.3zM55.1 1.6c-.3 0-.5-.2-.5-.5 0-.2.2-.5.4-.5.9-.1 1.9-.3 2.9-.3.3 0 .5.2.5.5s-.2.5-.5.5c-.9 0-1.8.1-2.8.3zm6.7-.6c-.3 0-.5-.2-.5-.5s.2-.5.5-.5h.9c.3 0 .5.2.5.5s-.2.5-.5.5h-.9z"/>
    <animateTransform attributeName="transform" attributeType="XML" type="rotate" from="0 62 51" to="-360 62 51" dur="10s" repeatCount="indefinite"/>
  </g>
  <g id="RingRightOuter">
    <path class="st0" d="M142.1 102.5c-.9 0-1.7 0-2.6-.1-.3 0-.5-.2-.5-.5s.3-.5.5-.5c3.8.2 7.6 0 11.3-.7.3 0 .5.1.6.4 0 .3-.1.5-.4.6-2.9.5-5.9.8-8.9.8zm-10.2-1h-.1c-.9-.2-1.9-.4-2.8-.7-.3-.1-.4-.3-.4-.6s.3-.4.6-.4c.9.2 1.8.5 2.8.6.3.1.4.3.4.6s-.2.5-.5.5zm-6.4-1.8h-.2l-.9-.3c-.3-.1-.4-.4-.3-.6s.4-.4.6-.3l.9.3c.3.1.4.4.3.6 0 .2-.2.3-.4.3zm33.8-.2c-.3 0-.5-.2-.5-.5 0-.2.1-.4.3-.5l.9-.3c.3-.1.5 0 .6.3s0 .5-.3.6l-.9.3c0 .1-.1.1-.1.1zm4.4-1.8c-.3 0-.5-.2-.5-.5 0-.2.1-.4.3-.5.9-.4 1.7-.8 2.5-1.3.2-.1.5 0 .7.2s0 .5-.2.7c-.8.5-1.7.9-2.6 1.3-.1.1-.1.1-.2.1zm-46.9-2c-.1 0-.2 0-.2-.1-3.4-1.9-6.5-4.2-9.3-6.9-.2-.2-.2-.5 0-.7.2-.2.5-.2.7 0 2.8 2.6 5.8 4.8 9.1 6.7.2.1.3.4.2.7-.2.2-.3.3-.5.3zm55.9-3.4c-.3 0-.5-.2-.5-.5 0-.2.1-.3.2-.4 3-2.3 5.8-4.9 8.2-7.8.2-.2.5-.2.7-.1s.2.5.1.7c-2.5 3-5.3 5.6-8.4 8-.1 0-.2.1-.3.1zm-70.3-9c-.2 0-.3-.1-.4-.2-.6-.7-1.2-1.5-1.7-2.3-.2-.2-.1-.5.1-.7.2-.2.5-.1.7.1.5.8 1.1 1.5 1.7 2.3.2.2.1.5-.1.7-.1.1-.2.1-.3.1zm-3.9-5.5c-.2 0-.3-.1-.4-.2-.2-.3-.3-.6-.5-.8-.1-.2-.1-.5.2-.7s.5-.1.7.2c.2.3.3.5.5.8.1.2.1.5-.2.7h-.3zm87.4-.5c-.3 0-.5-.2-.5-.5 0-.1 0-.2.1-.3.2-.3.3-.5.5-.8.1-.2.4-.3.7-.2.2.1.3.4.2.7-.2.3-.3.6-.5.8-.1.2-.3.3-.5.3zm2.3-4.2h-.2c-.3-.1-.4-.4-.2-.7.4-.9.8-1.7 1.1-2.6.1-.3.4-.4.7-.3.3.1.4.4.3.6-.4.9-.7 1.8-1.1 2.7-.3.2-.4.3-.6.3zm-93.8-3.9c-.2 0-.4-.1-.5-.3-1.3-3.6-2.2-7.4-2.7-11.2 0-.3.2-.5.4-.6.3 0 .5.2.6.4.5 3.8 1.4 7.5 2.7 11 .1.3 0 .5-.3.6-.1.1-.1.1-.2.1zm97.2-6.1h-.1c-.3-.1-.4-.3-.4-.6.8-3.7 1.3-7.5 1.3-11.3V51c0-.3.2-.5.5-.5s.5.2.5.5v.2c0 3.9-.4 7.7-1.3 11.5-.1.3-.3.4-.5.4zM91.4 50.4c-.3 0-.5-.2-.5-.5 0-1 .1-1.9.2-2.9 0-.3.3-.5.5-.5.3 0 .5.3.5.5-.1.9-.1 1.9-.2 2.8 0 .4-.3.6-.5.6zm.6-6.6c-.1 0-.1 0 0 0-.4 0-.5-.3-.5-.6.1-.3.1-.6.2-1 0-.3.3-.5.6-.4s.5.3.4.6c-.1.3-.1.6-.2.9-.1.3-.3.5-.5.5zm100.1-.8c-.2 0-.5-.2-.5-.4-.1-.3-.1-.6-.2-.9-.1-.3.1-.5.4-.6s.5.1.6.4c.1.3.1.6.2 1 0 .2-.1.4-.5.5.1 0 .1 0 0 0zm-1.1-4.7c-.2 0-.4-.2-.5-.4-.2-.9-.5-1.8-.8-2.7-.1-.3.1-.5.3-.6.3-.1.5.1.6.3.3.9.6 1.8.8 2.8.1.3-.1.5-.4.6.1 0 .1 0 0 0zm-96.6-3.8h-.2c-.3-.1-.4-.4-.3-.6 1.3-3.6 3-7.1 5.1-10.4.1-.2.5-.3.7-.1.2.1.3.5.1.7-2.1 3.2-3.8 6.6-5 10.2 0 .1-.2.2-.4.2zm92.8-6c-.2 0-.4-.1-.4-.3-1.7-3.4-3.9-6.5-6.3-9.4-.2-.2-.2-.5.1-.7s.5-.2.7.1c2.5 3 4.7 6.2 6.4 9.6.1.2 0 .5-.2.7h-.3zm-83.1-10.4c-.3 0-.5-.2-.5-.5 0-.1 0-.2.1-.3.6-.7 1.3-1.4 2-2.1.2-.2.5-.2.7 0 .2.2.2.5 0 .7-.7.7-1.3 1.4-1.9 2.1-.1.1-.3.1-.4.1zm4.7-4.7c-.3 0-.5-.2-.5-.5 0-.1.1-.3.2-.4.2-.2.5-.4.7-.6.2-.2.5-.1.7.1.2.2.1.5-.1.7-.2.2-.5.4-.7.6 0 .1-.2.1-.3.1zm66-.5c-.1 0-.2 0-.3-.1-.2-.2-.5-.4-.7-.6-.2-.2-.2-.5-.1-.7s.5-.2.7-.1c.3.2.5.4.7.6.2.2.2.5.1.7-.1.1-.3.2-.4.2zM171 10c-.1 0-.2 0-.3-.1-.8-.5-1.6-1.1-2.4-1.6-.2-.1-.3-.5-.2-.7s.5-.3.7-.2c.8.5 1.6 1 2.4 1.6.2.2.3.5.1.7 0 .2-.2.3-.3.3zm-54.4-2.1c-.3 0-.5-.2-.5-.5 0-.2.1-.3.2-.4 3.3-1.9 6.9-3.5 10.6-4.7.3-.1.5.1.6.3.1.3-.1.5-.3.6-3.6 1.1-7.1 2.7-10.4 4.6 0 0-.1.1-.2.1zm45.2-3h-.2c-3.5-1.5-7.2-2.5-10.9-3.2-.3 0-.5-.3-.4-.6 0-.3.3-.5.6-.4 3.8.7 7.5 1.7 11.1 3.2.3.1.4.4.3.7-.2.2-.3.3-.5.3zm-27.3-3.3c-.3 0-.5-.2-.5-.5 0-.2.2-.5.4-.5.9-.1 1.9-.3 2.9-.3.3 0 .5.2.5.5s-.2.5-.5.5c-.8 0-1.7.1-2.8.3.1 0 .1 0 0 0zm6.7-.6c-.3 0-.5-.2-.5-.5s.2-.5.5-.5h.9c.3 0 .5.2.5.5s-.2.5-.4.5h-1z"/>
    <animateTransform attributeName="transform" attributeType="XML" type="rotate" from="0 142 51" to="360 142 51" dur="10s" repeatCount="indefinite"/>
  </g>
  <g id="Layer_1">
    <path d="M 195.6 19.3 L 195.4 19.3 L 195.4 18.4 C 195.4 17.9 195 17.5 194.5 17.5 L 189.7 17.5 C 189.2 17.5 188.8 17.9 188.8 18.4 L 188.8 19.3 L 170 19.3 C 167 19.3 164.6 21.7 164.6 24.7 L 164.6 75 C 164.6 78 167 80.4 170 80.4 L 195.6 80.4 C 198.6 80.4 201.1 78 201.1 75 L 201.1 24.7 C 201.1 21.7 198.6 19.3 195.6 19.3 Z M 40.1 86.8 L 46.6 86.8 C 49.7 86.8 52.3 84.3 52.3 81.1 L 52.3 17.8 C 52.3 14.8 50 12.4 47 12.2 L 5.7 12.2 C 2.6 12.2 0 14.7 0 17.8 L 0 81.1 C 0 84.2 2.5 86.8 5.7 86.8 L 40.1 86.8 Z M 121.9 88.2 L 144.3 88.2 C 146.6 88.3 148.5 86.5 148.5 84.2 L 148.5 83.2 C 148.5 82.7 148.4 82.1 148.2 81.6 L 140.9 65.5 C 140.6 64.7 140 64.1 139.3 63.7 C 140.5 62.6 141.2 61.1 141.2 59.5 L 141.2 18.8 C 141.2 15.7 138.7 13.3 135.6 13.2 L 74.2 13.2 C 71.1 13.2 68.7 15.7 68.6 18.8 L 68.6 59.5 C 68.6 61 69.2 62.5 70.3 63.5 C 69.4 63.9 68.7 64.6 68.3 65.5 L 61.5 81.7 C 61.3 82.2 61.2 82.7 61.2 83.2 L 61.2 84.3 C 61.3 86.6 63.1 88.4 65.4 88.3 L 121.9 88.2 Z" fill="url(#SVGID_1_)"/>
    <path d="M 195.6 21.3 L 170 21.3 C 168.1 21.3 166.6 22.8 166.6 24.8 L 166.6 75 C 166.6 76.9 168.1 78.4 170 78.4 L 195.6 78.4 C 197.5 78.4 199 76.9 199 75 L 199 24.7 C 199.1 22.8 197.5 21.3 195.6 21.3 Z M 186.9 74.1 C 186.9 75 186.2 75.7 185.3 75.7 L 180.3 75.7 C 179.4 75.7 178.7 75 178.7 74.2 L 178.7 74.1 C 178.7 73.2 179.4 72.5 180.3 72.5 L 185.3 72.5 C 186.2 72.5 186.9 73.2 186.9 74.1 Z M 5.7 84.8 L 46.7 84.8 C 48.7 84.8 50.4 83.2 50.4 81.1 L 50.4 17.8 C 50.4 15.8 48.8 14.1 46.7 14.1 L 5.7 14.1 C 3.7 14.1 2 15.7 2 17.8 L 2 81.1 C 2 83.2 3.6 84.8 5.7 84.8 Z M 20.1 80.8 L 20.1 79.6 C 20.1 78.9 20.7 78.3 21.4 78.3 L 30.9 78.3 C 31.6 78.3 32.2 78.9 32.2 79.6 L 32.2 80.9 C 32.2 81.6 31.6 82.2 30.9 82.2 L 21.4 82.2 C 20.7 82.2 20.1 81.6 20.1 80.8 Z M 74.2 63 L 135.6 63 C 137.6 63 139.2 61.4 139.2 59.5 L 139.2 18.8 C 139.2 16.8 137.6 15.2 135.6 15.2 L 74.2 15.2 C 72.2 15.2 70.6 16.8 70.6 18.7 L 70.6 59.4 C 70.6 61.5 72.2 63.1 74.2 63 Z M 103.7 18 C 103.7 17.4 104.2 16.9 104.9 16.9 C 105.5 16.9 106.1 17.4 106.1 18 C 106.1 18.6 105.6 19.1 104.9 19.1 C 104.3 19.1 103.8 18.6 103.8 18.1 L 103.7 18 Z M 144.4 86.2 C 145.6 86.3 146.6 85.4 146.6 84.2 L 146.6 83.2 C 146.6 82.9 146.5 82.7 146.4 82.5 L 139.1 66.4 C 138.7 65.6 137.9 65.1 137 65.2 L 72.3 65.2 C 71.4 65.2 70.6 65.7 70.2 66.5 L 63.3 82.6 C 63.2 82.8 63.2 83.1 63.2 83.3 L 63.2 84.4 C 63.3 85.6 64.2 86.5 65.4 86.4 L 144.4 86.2 Z M 135.9 71.2 C 136 71.6 136.2 72 136.2 72.3 C 136.3 72.6 135.8 72.9 135.3 72.9 L 131.6 72.9 C 131.3 72.9 131 72.8 131 72.6 C 130.9 72.2 130.8 71.8 130.7 71.5 C 130.6 71.2 131 70.9 131.5 70.9 L 135.2 70.9 C 135.5 70.8 135.7 71 135.9 71.2 Z M 130.4 67.2 L 133.9 67.2 C 134.2 67.2 134.4 67.3 134.5 67.5 C 134.6 67.9 134.7 68.2 134.8 68.6 C 134.9 68.9 134.5 69.2 134 69.2 L 130.6 69.2 C 130.3 69.2 130.1 69.1 130 68.9 C 129.9 68.5 129.7 68.2 129.6 67.8 C 129.5 67.6 129.9 67.3 130.4 67.2 Z M 127.2 71.2 L 127.4 72.4 C 127.5 72.7 127 73 126.5 73 L 122.7 73 C 122.4 73 122.1 72.9 122 72.7 L 121.7 71.5 C 121.6 71.2 122.1 70.8 122.6 70.8 L 126.5 70.8 C 126.9 70.9 127.2 71 127.2 71.2 Z M 122 67.2 L 125.7 67.2 C 126 67.2 126.3 67.3 126.3 67.5 L 126.5 68.6 C 126.6 68.9 126.1 69.2 125.6 69.2 L 122 69.2 C 121.7 69.2 121.4 69.1 121.4 68.9 L 121.1 67.8 C 121 67.6 121.4 67.3 122 67.2 Z M 117.6 71.2 C 117.7 71.7 117.7 71.9 117.8 72.4 C 117.8 72.7 117.4 73 116.9 73 L 113 73 C 112.6 73 112.3 72.8 112.3 72.6 L 112 71.4 C 111.9 71.1 112.4 70.8 112.9 70.8 L 117 70.8 C 117.3 70.9 117.6 71.1 117.6 71.2 Z M 112.6 67.2 L 116.5 67.2 C 116.9 67.2 117.2 67.4 117.2 67.6 L 117.4 68.7 C 117.4 69 117 69.3 116.6 69.3 L 112.8 69.3 C 112.4 69.3 112.1 69.1 112.1 68.9 L 111.9 67.8 C 111.7 67.6 112.1 67.3 112.6 67.2 Z M 102.6 67.7 C 102.7 67.5 103 67.3 103.4 67.3 L 106.9 67.3 C 107.3 67.3 107.6 67.5 107.6 67.7 L 107.8 68.8 C 107.8 69.1 107.5 69.3 107 69.3 L 103.1 69.3 C 102.6 69.3 102.3 69.1 102.3 68.8 C 102.4 68.4 102.5 68.2 102.6 67.7 Z M 102.4 71.4 C 102.5 71.2 102.8 71 103.2 71 L 106.9 71 C 107.3 71 107.7 71.2 107.7 71.4 L 107.9 72.6 C 108 72.9 107.6 73.2 107.1 73.2 L 103 73.2 C 102.5 73.2 102.1 72.9 102.2 72.6 C 102.2 72.1 102.3 71.9 102.4 71.4 Z M 93.8 67.3 L 97.7 67.3 C 98.2 67.3 98.6 67.6 98.5 67.9 C 98.4 68.2 98.3 68.6 98.2 69 C 98.1 69.3 97.8 69.4 97.5 69.4 L 93.7 69.4 C 93.2 69.4 92.8 69.1 92.9 68.8 C 93 68.5 93.1 68.1 93.2 67.7 C 93.2 67.5 93.5 67.4 93.8 67.3 Z M 92.4 71.4 C 92.4 71.2 92.7 71 93.1 71 L 97.2 71 C 97.7 71 98.1 71.3 98 71.6 C 97.9 72.1 97.8 72.3 97.7 72.8 C 97.6 73.1 97.3 73.2 97 73.2 L 93.1 73.2 C 92.6 73.2 92.2 72.9 92.2 72.6 C 92.3 72.2 92.3 71.9 92.4 71.4 Z M 79.2 71.7 C 79 72.1 78.9 72.5 78.8 72.9 C 78.7 73.1 78.5 73.2 78.2 73.3 L 74.5 73.3 C 74 73.3 73.5 73 73.6 72.6 C 73.7 72.2 73.8 71.8 74 71.5 C 74.1 71.3 74.4 71.1 74.7 71.1 L 78.4 71.1 C 79 71.1 79.3 71.4 79.2 71.7 Z M 80.1 69.1 C 80 69.3 79.7 69.5 79.4 69.4 L 76 69.4 C 75.5 69.4 75.2 69.1 75.3 68.8 C 75.4 68.4 75.6 68.1 75.7 67.7 C 75.8 67.5 76 67.3 76.3 67.4 L 79.8 67.4 C 80.3 67.4 80.7 67.7 80.6 68 C 80.5 68.3 80.3 68.7 80.1 69.1 Z M 87.9 72.9 C 87.8 73.1 87.6 73.2 87.2 73.2 L 83.4 73.2 C 82.9 73.2 82.4 72.9 82.5 72.5 C 82.6 72.1 82.7 71.8 82.8 71.3 C 82.9 71.1 83.1 70.9 83.5 70.9 L 87.4 70.9 C 87.9 70.9 88.4 71.2 88.3 71.6 C 88.2 72 88 72.4 87.9 72.9 Z M 88.8 69 C 88.7 69.2 88.4 69.4 88.1 69.3 L 84.5 69.3 C 84 69.3 83.6 69 83.7 68.7 C 83.8 68.4 83.9 68 84 67.6 C 84.1 67.4 84.4 67.2 84.6 67.3 L 88.3 67.3 C 88.8 67.3 89.2 67.6 89.1 67.9 C 89 68.2 88.9 68.7 88.8 69 Z M 91 80 C 91.3 78.3 91.5 77.4 91.8 75.6 C 91.8 75.4 92.1 75.2 92.5 75.2 L 117.8 75 C 118.2 75 118.5 75.2 118.5 75.4 C 118.7 76.9 118.9 78.4 118.9 79.9 C 118.9 80.2 118.5 80.5 118 80.5 L 91.8 80.5 C 91.4 80.5 91 80.3 91 80 Z" fill="#ccedf0"/>
    <path class="st0" d="M142.1 6c12 0 23.5 4.8 32 13.3h2.8c-16.3-17.8-43.3-20.4-62.7-6.1h3.5c7.2-4.7 15.7-7.2 24.4-7.2zM142.1 96.5c-9.3 0-18.4-2.9-26.1-8.3h-3.3c20.3 16.2 50 12.9 66.2-7.4.1-.1.2-.2.2-.3h-2.6c-8.5 10.1-21.1 16-34.4 16zM62.6 6c8.7 0 17.2 2.5 24.5 7.2h3.5C74.5 1.3 52.7.9 36.1 12.1h3.8C46.8 8.1 54.6 6 62.6 6zM62.6 96.5c-10.1 0-20-3.4-27.9-9.7h-3.1c17.2 15.1 42.6 15.6 60.5 1.4h-3.3c-7.7 5.4-16.9 8.3-26.2 8.3z"/>
    <path class="st2" d="M194 25.1h-22.3c-.9 0-1.7.8-1.7 1.7v41.9c0 .9.8 1.7 1.7 1.7H194c.9 0 1.7-.8 1.7-1.7V26.8c0-.9-.8-1.7-1.7-1.7zm-11.5 3.7c3.2 0 5.7 2.6 5.7 5.7s-2.6 5.7-5.7 5.7-5.7-2.6-5.7-5.7c0-3.2 2.6-5.8 5.7-5.7 0-.1.1-.1 0 0zM177 45.9c.1-.3.4-.6.7-.6l2.7-.5 1.5-3.1h.6c.4 0 .7.2.9.5l1.3 2.6 3.2.6.2.5c.1.3 0 .7-.2.9l-2 2.1.5 3.5-.5.4c-.3.2-.7.2-1 .1l-2.5-1.3-2.9 1.5-.5-.3c-.3-.2-.4-.6-.4-.9l.4-2.9-2.3-2.5.3-.6zm6.1 12.9c0-.5.4-.9.9-.9h1c-.6-.6-1.5-1-2.4-1-1.5 0-2.8 1-3.2 2.5-.1.4-.4.7-.9.7h-.2c-.5-.1-.8-.6-.6-1 .7-2.7 3.4-4.3 6.1-3.6.8.2 1.5.6 2.1 1.1V56c.1-.5.5-.8 1-.8.4 0 .7.4.8.8v2.8c0 .5-.4.9-.9.9H184c-.5.1-.9-.3-1-.8l.1-.1zm-.5 6.4c-1.2 0-2.4-.5-3.3-1.2v.4c-.1.5-.5.8-1 .8-.4 0-.7-.4-.8-.8v-2.8c0-.5.4-.9.9-.9h2.8c.5.1.8.5.8 1 0 .4-.4.7-.8.8h-1c.6.6 1.5 1 2.4 1 1.5 0 2.8-1 3.2-2.5.2-.5.7-.7 1.1-.5.4.1.6.5.6 1-.6 2.1-2.6 3.7-4.9 3.7z"/>
    <path class="st2" d="M182.6 38.4c2.2 0 4-1.8 4-4s-1.8-4-4-4-4 1.8-4 4 1.8 4 4 4zm-.9-6.4c0-.3.2-.5.5-.5s.5.2.5.5v2.3h2.3c.3 0 .5.2.5.5s-.2.5-.5.5h-2.8c-.3 0-.5-.2-.5-.5V32zm-1 18.6l1.9-1 1.9 1-.3-2.2 1.5-1.6-2.1-.4-1-1.9-1 1.9-2.1.4 1.5 1.6-.3 2.2z"/>
    <path class="st3" d="M178.7 51.9c0 .3.1.7.4.9l.5.3 2.9-1.5 2.4 1.3c.3.2.7.2 1-.1l.5-.4-.4-3.4 2-2.1c.2-.3.3-.6.2-.9l-.2-.5-3.2-.6-1.3-2.6c-.2-.3-.5-.5-.9-.5h-.6l-1.5 3.1-2.7.5c-.3.1-.6.3-.7.6l-.1.6 2.3 2.5-.6 2.8zm2.9-5.6l1-1.9 1 1.9 2.1.4-1.5 1.6.3 2.2-1.9-1-1.9 1 .3-2.2-1.5-1.6 2.1-.4z"/>
    <path class="st2" d="M25.8 44.4l-1 2.1-2.3.4 1.6 1.8-.4 2.3 2-1.1 2 1.1-.3-2.4 1.6-1.8-2.3-.4c.1.1-.9-2-.9-2z"/>
    <path class="st2" d="M7.3 76.3H45c1 0 1.8-.8 1.8-1.8V20c0-1-.8-1.8-1.8-1.8H7.3c-1 0-1.8.8-1.8 1.8v54.4c0 1 .8 1.8 1.8 1.9zm23.8-10.8c-.7 3-3.7 4.8-6.6 4.1-.9-.2-1.7-.6-2.4-1.2v.3c0 .6-.4 1-1 1s-1-.4-1-1v-3c0-.6.4-1 1-1h3c.6 0 1 .4 1 1s-.4 1-1 1h-1c.7.7 1.6 1 2.5 1 1.7 0 3.2-1.1 3.5-2.7.2-.5.7-.8 1.2-.7.7.2 1 .7.8 1.2zm.2-2.9c0 .6-.4 1-1 1h-3c-.6 0-1-.4-1-1s.4-1 1-1h1c-.7-.7-1.6-1-2.5-1-1.6 0-3.1 1.1-3.5 2.7-.1.5-.5.8-1 .8h-.2c-.5-.1-.9-.7-.7-1.2.7-3 3.7-4.8 6.6-4.1.9.2 1.7.6 2.4 1.2v-.3c0-.6.4-1 1-1s1 .4 1 1l-.1 2.9zm.4-15.6l-2.1 2.3.5 3.8-.5.4c-.3.2-.8.3-1.1.1l-2.7-1.4-3.2 1.7-.6-.4c-.3-.2-.5-.6-.4-1l.5-3.2-2.6-2.8.2-.6c.1-.4.4-.6.8-.7l3-.5 1.7-3.4h.7c.4 0 .8.2 1 .6l1.4 2.8 3.6.6.1.7c.1.3 0 .7-.3 1zm-6-22.5c3.5 0 6.3 2.8 6.3 6.3s-2.8 6.3-6.3 6.3-6.3-2.8-6.3-6.3c0-3.4 2.9-6.3 6.3-6.3z"/>
    <path class="st2" d="M21.4 30.9c0 2.4 1.9 4.3 4.3 4.3s4.3-1.9 4.3-4.3-1.9-4.3-4.3-4.3c-2.3 0-4.3 1.9-4.3 4.3zm3.5-2.7c0-.3.2-.5.5-.5s.5.2.5.5v2.5h2.5c.3 0 .5.2.5.5s-.2.5-.5.5h-3c-.3 0-.5-.2-.5-.5v-3z"/>
    <path class="st3" d="M31.7 45.3l-3.6-.6-1.4-2.8c-.2-.4-.6-.6-1-.6H25l-1.7 3.4-3 .5c-.4.1-.7.3-.8.7l-.2.6 2.6 2.8-.5 3.2c0 .4.1.8.4 1l.6.4 3.2-1.7 2.7 1.4c.4.2.8.2 1.1-.1l.5-.4-.5-3.8 2.2-2.3c.3-.3.4-.7.3-1l-.2-.7zm-4.2 3.4l.3 2.3-2-1.1-2 1.1.3-2.4-1.6-1.8 2.3-.4 1-2.1 1 2.1 2.3.4-1.6 1.9z"/>
    <path class="st2" d="M88.4 43.8c2.4 0 4.3-1.9 4.3-4.3s-1.9-4.3-4.3-4.3-4.3 1.9-4.3 4.3c0 2.3 1.9 4.3 4.3 4.3zm-.9-7c0-.3.2-.5.5-.5s.5.2.5.5v2.5h2.6c.3 0 .5.2.5.5s-.2.5-.5.5H88c-.3 0-.5-.2-.5-.5v-3zm18.8 1.6l-1-2.1-1 2.1-2.3.4 1.7 1.8-.3 2.4 2-1.1 2 1.1-.3-2.4 1.7-1.8c-.2 0-2.5-.4-2.5-.4z"/>
    <path class="st2" d="M76.1 59.8h57.7c1.2 0 2.1-.9 2.1-2.1V23.3c0-1.2-.9-2.1-2.1-2.1H76.1c-1.2 0-2.1.9-2.1 2.1v34.4c0 1.1.9 2.1 2.1 2.1zm33-18.5l.5 3.8-.5.4c-.3.2-.8.3-1.1.1l-2.7-1.4-3.2 1.7-.6-.4c-.3-.2-.5-.6-.4-1l.4-3.2-2.6-2.8.2-.6c.1-.4.4-.6.8-.7l3-.5 1.7-3.4h.7c.4 0 .8.2 1 .6l1.4 2.8 3.6.6.2.6c.1.4 0 .8-.2 1.1l-2.2 2.3zm7.6-3.2c.7-3 3.7-4.8 6.6-4.1.9.2 1.7.6 2.4 1.2v-.3c0-.6.4-1 1-1s1 .4 1 1v3c0 .6-.4 1-1 1h-3c-.6 0-1-.4-1-1s.4-1 1-1h1c-.7-.7-1.6-1-2.5-1-1.6 0-3.1 1.1-3.4 2.7-.1.5-.5.8-1 .8h-.2c-.6-.2-1-.7-.9-1.3 0 .1 0 0 0 0zm-.2 2.9c0-.6.4-1 1-1h3c.6 0 1 .4 1 1s-.4 1-1 1h-1c.7.7 1.6 1 2.5 1 1.6 0 3.1-1.1 3.4-2.7.2-.5.7-.8 1.2-.7.5.1.8.7.7 1.2-.7 3-3.7 4.8-6.6 4.1-.9-.2-1.7-.6-2.4-1.2v.3c0 .6-.4 1-1 1s-1-.4-1-1l.2-3zm-28.1-7.9c3.5 0 6.3 2.8 6.3 6.3s-2.8 6.3-6.3 6.3-6.3-2.8-6.3-6.3 2.8-6.3 6.3-6.3z"/>
    <linearGradient id="SVGID_1_" gradientUnits="userSpaceOnUse" x1="-5.898" y1="157.462" x2="221.772" y2="-70.198" gradientTransform="matrix(1, 0, 0, -1, 0, 104)">
      <stop offset="0" stop-color="#00c8d7"/>
      <stop offset="1" stop-color="#0a84ff"/>
    </linearGradient>
    <path class="st3" d="M111.5 37.9l-.2-.6-3.6-.6-1.4-2.8c-.2-.4-.6-.6-1-.6h-.7l-1.7 3.4-3 .5c-.4.1-.7.3-.8.7l-.2.6 2.6 2.8-.4 3.2c0 .4.1.8.4 1l.6.4 3.2-1.7 2.7 1.4c.4.2.8.2 1.1-.1l.5-.4-.5-3.8 2.2-2.3c.2-.3.3-.8.2-1.1zm-4.5 2.7l.3 2.4-2-1.1-2 1.1.3-2.4-1.7-1.8 2.3-.4 1-2.1 1 2.1 2.3.4-1.5 1.8z"/>
    <linearGradient id="SVGID_2_" gradientUnits="userSpaceOnUse" x1="3.801" y1="153.841" x2="219.401" y2="-61.759" gradientTransform="matrix(1 0 0 -1 0 104)">
      <stop offset="0" stop-color="#00c8d7"/>
      <stop offset="1" stop-color="#0a84ff"/>
    </linearGradient>
    <path d="M176.8 34.5c0 3.2 2.6 5.7 5.7 5.7s5.7-2.6 5.7-5.7-2.6-5.7-5.7-5.7-5.7 2.5-5.7 5.7zm5.8-4c2.2 0 4 1.8 4 4s-1.8 4-4 4-4-1.8-4-4 1.8-4 4-4zm-.9 4.3V32c0-.3.2-.5.5-.5s.5.2.5.5v2.3h2.3c.3 0 .5.2.5.5s-.2.5-.5.5h-2.8c-.2 0-.5-.2-.5-.5zm2.2 24.8c-.5-.1-.8-.5-.8-1 0-.4.4-.7.8-.8h1c-.6-.6-1.5-1-2.4-1-1.5 0-2.8 1-3.2 2.5-.1.4-.4.7-.9.7h-.2c-.5-.1-.8-.6-.6-1 .7-2.7 3.4-4.3 6.1-3.6.8.2 1.5.6 2.1 1.1V56c.1-.5.5-.8 1-.8.4 0 .7.4.8.8v2.8c0 .5-.4.9-.9.9l-2.8-.1zm-1.3 5.5c-1.2 0-2.4-.5-3.3-1.2v.4c-.1.5-.5.8-1 .8-.4 0-.7-.4-.8-.8v-2.7c0-.5.4-.9.9-.9h2.8c.5.1.8.5.8 1 0 .4-.4.7-.8.8h-1c.6.6 1.5 1 2.4 1 1.5 0 2.8-1 3.2-2.5.2-.5.7-.7 1.1-.5.4.1.6.5.6 1-.6 2.1-2.6 3.7-4.9 3.6zm-156.8-28c3.5 0 6.3-2.8 6.3-6.3s-2.8-6.3-6.3-6.3-6.3 2.8-6.3 6.3c-.1 3.5 2.7 6.4 6.3 6.3-.1.1-.1.1 0 0zm0-10.6c2.4 0 4.3 1.9 4.3 4.3s-1.9 4.3-4.3 4.3-4.3-1.9-4.3-4.3 1.9-4.2 4.3-4.3zm-.9 4.7v-3c0-.3.2-.5.5-.5s.5.2.5.5v2.5h2.5c.3 0 .5.2.5.5s-.2.5-.5.5h-3c-.3 0-.5-.2-.5-.4v-.1zm6.4 28.3v3c0 .6-.4 1-1 1h-3c-.6 0-1-.4-1-1s.4-1 1-1h1c-.7-.7-1.6-1-2.5-1-1.6 0-3.1 1.1-3.5 2.7-.1.5-.5.8-1 .8h-.2c-.5-.1-.9-.7-.7-1.2.7-3 3.7-4.8 6.6-4.1.9.2 1.7.6 2.4 1.2v-.3c0-.6.4-1 1-1s1 .4.9.9zm-.2 5.9c-.7 3-3.7 4.8-6.6 4.1-.9-.2-1.7-.6-2.4-1.2v.3c0 .6-.4 1-1 1s-1-.4-1-1v-3c0-.6.4-1 1-1h3c.6 0 1 .4 1 1s-.4 1-1 1h-1c.7.7 1.6 1 2.5 1 1.6.1 3.1-1 3.6-2.6.2-.5.7-.8 1.2-.7.6.2.9.7.7 1.1zm57.3-19.6c3.5 0 6.3-2.8 6.3-6.3s-2.8-6.3-6.3-6.3-6.3 2.8-6.3 6.3c0 3.4 2.8 6.3 6.3 6.3zm0-10.7c2.4 0 4.3 1.9 4.3 4.3s-1.9 4.3-4.3 4.3-4.3-1.9-4.3-4.3 1.9-4.3 4.3-4.3zm-.9 4.7v-3c0-.3.2-.5.5-.5s.5.2.5.5v2.5h2.6c.3 0 .5.2.5.5s-.2.5-.5.5H88c-.3 0-.5-.2-.5-.5zm29 4.2v-3c0-.6.4-1 1-1h3c.6 0 1 .4 1 1s-.4 1-1 1h-1c.7.7 1.6 1 2.5 1 1.6 0 3.1-1.1 3.4-2.7.2-.5.7-.8 1.2-.7.5.1.8.7.7 1.2-.7 3-3.7 4.8-6.6 4.1-.9-.2-1.7-.6-2.4-1.2v.3c0 .6-.4 1-1 1s-.9-.4-.8-1zm.2-5.9c.7-3 3.7-4.8 6.6-4.1.9.2 1.7.6 2.4 1.2v-.3c0-.6.4-1 1-1s1 .4 1 1v3c0 .6-.4 1-1 1h-3c-.6 0-1-.4-1-1s.4-1 1-1h1c-.7-.7-1.6-1-2.5-1-1.6 0-3.1 1.1-3.4 2.7-.1.5-.5.8-1 .8h-.2c-.6-.2-1-.7-.9-1.3z" fill="url(#SVGID_2_)"/>
  </g>
</svg>
