<svg xmlns="http://www.w3.org/2000/svg" viewBox="0 0 480 480">
<style>.st7{fill:none;stroke:#fff}.st15,.st19,.st7{stroke-width:4;stroke-miterlimit:10}.st15{fill:none;stroke:#000}.st19{stroke-linejoin:round}.st19,.st23{fill:none;stroke:#000;stroke-linecap:round}.st23,.st24,.st25,.st26{stroke-width:4;stroke-miterlimit:10}.st24{stroke-linecap:round;fill:none;stroke:#fff}.st25,.st26{fill:#fff;stroke:#2b2a33}.st26{fill:#a77ffa;stroke:#000}</style>
<g id="Layer_1">
  <path d="M358.9 409H199.4c-9.3 0-16.8-7.5-16.8-16.8V151.3c0-9.3 7.5-16.8 16.8-16.8H359c9.3 0 16.8 7.5 16.8 16.8v240.9c-.1 9.3-7.6 16.8-16.9 16.8z" fill="#c5c8fb" stroke="#c5c9fb" stroke-miterlimit="10"/>
  <path class="line st15" d="M393.5 132c1.7 0 3.1-1.4 3.1-3.1 0-1.7-1.4-3.1-3.1-3.1-1.7 0-3.1 1.4-3.1 3.1 0 1.7 1.4 3.1 3.1 3.1zM123.3 32.3c1.7 0 3.1-1.4 3.1-3.1 0-1.7-1.4-3.1-3.1-3.1s-3.1 1.4-3.1 3.1c-.1 1.7 1.4 3.1 3.1 3.1zM59.3 334.3c1.7 0 3.1-1.4 3.1-3.1 0-1.7-1.4-3.1-3.1-3.1-1.7 0-3.1 1.4-3.1 3.1-.1 1.7 1.4 3.1 3.1 3.1z"/>
  <path class="line st23" d="M105.6 197.7v6.7M102.2 201h6.7"/>
  <path class="line st23" d="M153.6 73v6.7M150.2 76.4h6.7"/>
  <path class="card st25" d="M132.9 136.7H17c-1.6 0-2.8-1.3-2.8-2.8V57.8c0-1.6 1.3-2.8 2.8-2.8h115.9c1.6 0 2.8 1.3 2.8 2.8v76.1c0 1.6-1.3 2.8-2.8 2.8z"/>
  <path class="line st15" d="M15 68.6h121.6"/>
  <path class="line st23" d="M67.8 83h49.5M67.8 97.4h49.5M67.8 111.9h49.5"/>
  <path class="line st26" d="M51.5 108.4c5.6-5.6 5.6-14.7 0-20.4-5.6-5.6-14.7-5.6-20.3 0-5.6 5.6-5.6 14.7 0 20.4 5.6 5.7 14.7 5.7 20.3 0z"/>
  <path class="play st19" d="M38.9 104.6V92.1l8.3 6.3-8.3 6.2z"/>
  <path class="line" d="M120.1 254h-48v48.1h48V254z" fill="none" stroke="#000" stroke-width="4" stroke-linejoin="round" stroke-miterlimit="10"/>
  <path class="line st19" d="M88.9 278.8l6.4 6.4 9.6-12.8"/>
  <path class="line st15" d="M155.2 185.1c-12.8-17.5-51-4.5-69.8-12.5-14.5-6.2-24.4-19.9-23.1-36"/>
  <path d="M154.1 26h68.1v24h-49.8l-8.8 7.6V50h-9.5V26z" fill="#c4c6fc" stroke="#c4c7fc" stroke-miterlimit="10"/>
  <path class="line" d="M348.4 291c-2-1.1 7-31.4 36.6-59 28.6-26.7 46.6-46.7 34.2-58.2-15.9-14.6-56.7 7.5-70.8 16.4" fill="none" stroke="#000" stroke-width="4"/>
  <path class="line" d="M407.1 326.3c-4.9-1.5-15.8 2-20.7 17.9C382 358.5 374 373 348.1 368" fill="none" stroke="#000" stroke-width="4" stroke-linecap="round"/>
  <path class="fill-line" d="M469.6 303c-.4-.4-1-.7-1.7-.6l-13.9 1.7-.1-1c-.5-4.8-3-9.2-6.8-12.1-3.8-3.1-8.6-4.4-13.4-3.8-4.8.5-9.2 3-12.1 6.8-3 3.8-4.4 8.6-3.7 13.4l.2 1-10.9 1.3-2.4-10.7c-.3-1-1.2-1.7-2.3-1.7l-6.4.8c-.5.1-1 .3-1.4.8-.3.4-.5 1-.4 1.6.2 1.1 1.1 1.9 2.4 1.8l4.5-.5 2.4 11.2c2.5 11.7 6.3 29.5 6.4 29.6.7 2.9 2.4 5.3 5.1 6.9l1 .5-.8 1c-1.7 2.8-1.7 6.3.2 9 1.8 2.8 4.9 4.3 8.2 3.8 2.8-.3 5.1-1.9 6.5-4.4 1.3-2.4 1.4-5.3.1-7.8l-.7-1.4 20.3-2.4-.3 1.5c-.6 2.7.1 5.5 2 7.6 1.9 2.1 4.5 3.1 7.3 2.8 2.3-.3 4.3-1.4 5.7-3.2 1.4-1.8 2-4 1.7-6.3-.3-2.3-1.4-4.3-3.2-5.7-1.8-1.4-4-2-6.3-1.7l-35.1 4.3c-2.8.3-5.5-1-6.9-3.4l-.8-1.3 51.4-9.3c.9-.2 1.6-.9 1.7-1.8l3.3-26.3c-.1-.9-.4-1.5-.8-2zm-12.5 43.8c2.4-.3 4.5 1.4 4.9 3.8.2 1.1-.2 2.3-.9 3.2-.7 1-1.7 1.5-2.9 1.7h-.5c-1 0-1.9-.3-2.7-1-1-.7-1.5-1.7-1.7-2.9-.3-2.2 1.4-4.4 3.8-4.8zm-38 6c.7-1 1.7-1.5 2.9-1.7 2.4-.3 4.5 1.4 4.9 3.8.3 2.4-1.4 4.5-3.8 4.9h-.5c-2.2 0-4.1-1.7-4.4-3.8-.2-1.2.1-2.3.9-3.2zm15-61.5c7.7-1 14.6 4.5 15.6 12.2.4 3.8-.6 7.4-2.9 10.4-2.4 3-5.7 4.8-9.3 5.3-.6.1-1.1.1-1.7.1-7 0-13.1-5.2-13.9-12.3-.9-7.8 4.6-14.8 12.2-15.7zM463 329l-49.9 9.1-5.1-24.2 11.2-1.4.3.7c3.4 6.9 10.8 10.9 18.5 10 7.7-.9 13.9-6.5 15.6-14.1l.2-.8 12-1.5L463 329z"/>
  <path class="st7" d="M66.1 439h137M.1 454h138"/>
  <path d="M194.1 431h-116c1-5.5 3.9-10.5 8.2-14s9.7-5.5 15.3-5.5h.9c3.3-5.8 8.3-10.6 14.3-13.7 6-3.1 12.8-4.3 19.5-3.5 6.7.7 13 3.4 18.2 7.7 5.2 4.3 9 10 10.9 16.5 2.5-2.3 5.5-3.7 8.8-4.3 3.3-.5 6.7-.1 9.7 1.2 3.1 1.3 5.7 3.5 7.5 6.3 1.8 2.7 2.7 6 2.7 9.3z" fill="#a883f8"/>
  <path class="line st19" d="M171.1 439h-135c2.3-12.9 13.7-22.8 27.3-22.8h1.1c6.9-12.1 19.9-20.2 34.8-20.2 18.1 0 33.4 12 38.3 28.4 3.6-3.2 8.3-5.3 13.5-5.3 11.1 0 20 8.9 20 19.9z"/>
  <circle class="circle st26" cx="435.8" cy="305.6" r="15.2"/>
  <path class="fill-line" d="M429.7 307.4l3.6 2.8c.4.3 1 .5 1.6.4.5-.1 1-.3 1.4-.8l5.6-7.1c.3-.4.5-1 .4-1.6-.1-.5-.3-1-.8-1.4-.4-.3-1-.5-1.6-.4-.5.1-1 .3-1.4.8l-4.4 5.5-1.9-1.5c-.3-.3-.8-.4-1.3-.4h-.3c-.5.1-1 .3-1.4.8-.3.4-.5 1-.4 1.6.2.4.5 1 .9 1.3z" fill="#2b2a33"/>
  <path class="st25" d="M330.9 388.7H171.4c-9.3 0-16.8-7.5-16.8-16.8V131c0-9.3 7.5-16.8 16.8-16.8H331c9.3 0 16.8 7.5 16.8 16.8v240.9c-.1 9.3-7.7 16.8-16.9 16.8z"/>
  <path d="M295.6 194.1c-1.3-3.1-3.5-5.8-6.3-7.6-2.8-1.9-6.2-3-9.7-3-2.4 0-4.7.5-6.8 1.4-3.1 1.3-5.8 3.5-7.6 6.3-1 1.5-1.8 3.2-2.3 5h-24.4c-.2-.7-.4-1.4-.7-2.1-.3-.6-.6-1.3-.9-1.9l8.7-8.7c2.6 1.5 5.5 2.3 8.7 2.3 2.4 0 4.7-.5 6.8-1.4 3.1-1.3 5.8-3.5 7.6-6.3 1.9-2.8 3-6.2 3-9.7 0-2.4-.5-4.7-1.4-6.8-1.3-3.1-3.5-5.8-6.3-7.6-2.8-1.9-6.2-3-9.7-3-2.4 0-4.7.5-6.8 1.4-3.1 1.3-5.8 3.5-7.6 6.3-1.9 2.8-3 6.2-3 9.7 0 2.4.5 4.7 1.4 6.8.3.6.5 1.1.8 1.6l-8.8 8.8c-2.5-1.4-5.4-2.1-8.4-2.1-2.4 0-4.7.5-6.8 1.4-3.1 1.3-5.8 3.5-7.6 6.3-1.9 2.8-3 6.2-3 9.7 0 2.4.5 4.7 1.4 6.8 1.3 3.1 3.5 5.8 6.3 7.6 2.8 1.9 6.1 3 9.7 3 2.4 0 4.7-.5 6.8-1.4 3.1-1.3 5.8-3.5 7.6-6.3 1-1.5 1.8-3.2 2.3-5H263c.2.7.4 1.4.7 2.1.3.6.5 1.1.8 1.6l-8.8 8.9c-2.5-1.4-5.3-2.1-8.4-2.1-2.4 0-4.7.5-6.8 1.4-3.1 1.3-5.8 3.5-7.6 6.3-1.9 2.8-3 6.2-3 9.7 0 2.4.5 4.7 1.4 6.8 1.3 3.1 3.5 5.8 6.3 7.6 2.8 1.9 6.1 3 9.7 3 2.4 0 4.7-.5 6.8-1.4 3.1-1.3 5.8-3.5 7.6-6.3 1.9-2.8 3-6.1 3-9.7 0-2.4-.5-4.7-1.4-6.8-.3-.6-.6-1.3-.9-1.9l8.7-8.7c2.6 1.5 5.5 2.3 8.7 2.3 2.4 0 4.7-.5 6.8-1.4 3.1-1.3 5.8-3.5 7.6-6.3 1.9-2.8 3-6.1 3-9.7-.2-2.5-.7-4.8-1.6-6.9zm-48.8-28.9c.6-1.4 1.6-2.7 2.9-3.5 1.3-.9 2.8-1.4 4.5-1.4 1.1 0 2.1.2 3.1.6 1.5.6 2.7 1.6 3.6 2.9.8 1.3 1.4 2.8 1.4 4.5 0 1.2-.2 2.2-.6 3.1-.6 1.4-1.6 2.7-2.9 3.5-1.3.9-2.8 1.4-4.4 1.4-1.2 0-2.2-.3-3.1-.6-1.5-.6-2.7-1.6-3.6-2.9-.9-1.3-1.4-2.8-1.4-4.5-.2-1.1 0-2.1.5-3.1zM229 204c-.6 1.4-1.6 2.7-2.9 3.5-1.3.9-2.8 1.4-4.5 1.4-1.2 0-2.2-.3-3.1-.6-1.5-.6-2.7-1.6-3.6-2.9-.9-1.3-1.4-2.8-1.4-4.5 0-1.1.2-2.1.6-3.1.6-1.4 1.6-2.7 2.9-3.5 1.3-.9 2.8-1.4 4.5-1.4 1.1 0 2.2.2 3.1.6 1.5.6 2.7 1.6 3.6 2.9.8 1.3 1.4 2.8 1.4 4.5 0 1.1-.2 2.1-.6 3.1zm25.5 32.5c-.6 1.4-1.6 2.7-2.9 3.5-1.3.9-2.8 1.4-4.5 1.4-1.2 0-2.2-.3-3.1-.6-1.5-.6-2.7-1.6-3.6-2.9-.9-1.3-1.4-2.8-1.4-4.5 0-1.1.2-2.1.6-3.1.6-1.4 1.6-2.7 2.9-3.5 1.3-.9 2.8-1.4 4.5-1.4 1.1 0 2.2.2 3.1.6 1.5.6 2.7 1.6 3.6 2.9.8 1.3 1.4 2.8 1.4 4.5 0 1.2-.2 2.2-.6 3.1zM287 204c-.6 1.4-1.6 2.7-2.9 3.5-1.3.9-2.8 1.4-4.5 1.4-1.2 0-2.2-.3-3.1-.6-1.5-.6-2.7-1.6-3.6-2.9-.9-1.3-1.4-2.8-1.4-4.5 0-1.1.2-2.1.6-3.1.6-1.4 1.6-2.7 2.9-3.5 1.3-.9 2.8-1.4 4.5-1.4 1.1 0 2.2.2 3.1.6 1.5.6 2.7 1.6 3.6 2.9.8 1.3 1.4 2.8 1.4 4.5 0 1.1-.2 2.1-.6 3.1z"/>
  <path d="M269.5 341.5l-45.2-.3c-11.6-.1-20.9-9.5-20.9-21.2.1-11.6 9.5-20.9 21.1-20.9l45.2.3c11.6.1 20.9 9.5 20.9 21.2 0 11.6-9.5 20.9-21.1 20.9z" fill="#49ffba" stroke="#000" stroke-width="4" stroke-miterlimit="10"/>
  <path d="M292.6 335.1c8.2-8.2 8.2-21.5 0-29.7s-21.5-8.2-29.7 0-8.2 21.5 0 29.7c8.3 8.2 21.5 8.2 29.7 0z" fill="#fff" stroke="#000" stroke-width="4" stroke-miterlimit="10"/>
</g>
</svg>
