<svg xmlns="http://www.w3.org/2000/svg" viewBox="0 0 1200 660">
<style>.st2{fill:#c4c7fc}.st3{fill:#cbcdfc}.st4{fill:#fff}.st6{fill:#a577ff}.st8{fill:#6a3de6}.st9{fill:#c2c2ff}.st10{fill:#c2c3ff}.st11{fill:#6a45e3}.st13{fill:#c4c6fc}</style>
<g id="Layer_1">
  <path class="line" transform="rotate(-84.255 509.56 143.679)" d="M508.1-239.6h2.8V527h-2.8z"/>
  <path class="line" d="M128.2 131.3c-14.3 0-25.9-11.6-25.9-25.9s11.6-25.9 25.9-25.9c14.3 0 25.9 11.6 25.9 25.9s-11.6 25.9-25.9 25.9zm0-49.1c-12.7 0-23.1 10.4-23.1 23.1s10.4 23.1 23.1 23.1c12.7 0 23.1-10.4 23.1-23.1s-10.4-23.1-23.1-23.1z"/>
  <path class="line" d="M128.2 121.3c-8.8 0-16-7.2-16-16s7.2-16 16-16 16 7.2 16 16-7.2 16-16 16zm0-29.1c-7.2 0-13.1 5.9-13.1 13.1s5.9 13.1 13.1 13.1 13.1-5.9 13.1-13.1-5.8-13.1-13.1-13.1zM890.6 207.6c-14.3 0-25.9-11.6-25.9-25.9 0-14.3 11.6-25.9 25.9-25.9 14.3 0 25.9 11.6 25.9 25.9 0 14.3-11.6 25.9-25.9 25.9zm0-49c-12.7 0-23.1 10.4-23.1 23.1 0 12.7 10.4 23.1 23.1 23.1 12.7 0 23.1-10.4 23.1-23.1-.1-12.7-10.4-23.1-23.1-23.1z"/>
  <path class="line" d="M890.6 197.7c-8.8 0-16-7.2-16-16s7.2-16 16-16 16 7.2 16 16-7.2 16-16 16zm0-29.2c-7.2 0-13.1 5.9-13.1 13.1s5.9 13.1 13.1 13.1c7.2 0 13.1-5.9 13.1-13.1s-5.9-13.1-13.1-13.1zM1120.1 155.8c-14.3 0-25.9-11.6-25.9-25.9s11.6-25.9 25.9-25.9c14.3 0 25.9 11.6 25.9 25.9s-11.6 25.9-25.9 25.9zm0-49c-12.7 0-23.1 10.4-23.1 23.1s10.4 23.1 23.1 23.1c12.7 0 23.1-10.4 23.1-23.1s-10.3-23.1-23.1-23.1z"/>
  <path class="line" d="M1120.1 145.1c-8.4 0-15.3-6.9-15.3-15.3s6.9-15.3 15.3-15.3 15.3 6.9 15.3 15.3-6.9 15.3-15.3 15.3zm0-27.7c-6.9 0-12.4 5.6-12.4 12.4s5.6 12.4 12.4 12.4c6.9 0 12.4-5.6 12.4-12.4s-5.5-12.4-12.4-12.4zM758.1 237h113v2.8h-113zM704.8 248.9h113v2.8h-113z"/>
  <path class="line" d="M844.8 239.9H734.3c-.4 0-.8-.2-1.1-.5-.3-.3-.4-.7-.3-1.2 2-11.5 12-19.9 23.7-19.9h.1c6.1-10.3 17.3-16.6 29.3-16.6 14.3 0 27.1 9.1 32 22.3 3-2.2 6.6-3.3 10.4-3.3 9.8 0 17.8 8 17.8 17.8 0 .7-.6 1.4-1.4 1.4zM736.1 237h107.2c-.7-7.6-7.1-13.5-14.9-13.5-3.8 0-7.3 1.4-10.1 3.9-.4.3-.9.5-1.3.3-.5-.1-.8-.5-1-1-3.9-13.1-16.2-22.3-30-22.3-11.3 0-21.7 6.1-27.2 15.9-.3.5-.8.7-1.3.7h-.8c-9.8.1-18.2 6.7-20.6 16z"/>
  <circle class="globe st4" transform="rotate(-45.001 618.244 228.123)" cx="618.2" cy="228.1" r="146.6"/>
  <path class="line" d="M618.2 376.2c-81.6 0-148.1-66.4-148.1-148.1S536.6 80 618.2 80s148.1 66.4 148.1 148.1-66.4 148.1-148.1 148.1zm0-293.3c-80 0-145.2 65.1-145.2 145.2s65.1 145.2 145.2 145.2 145.2-65.1 145.2-145.2S698.3 82.9 618.2 82.9z"/>
  <circle class="globe st13" cx="617.6" cy="228.4" r="132"/>
  <path class="globe st2" d="M617.6 360.8c-73 0-132.4-59.4-132.4-132.4S544.6 96 617.6 96 750 155.4 750 228.4c-.1 73-59.5 132.4-132.4 132.4z"/>
  <path class="line" d="M578.3 370.6c-36.4-35-57.3-86.9-57.3-142.5 0-55.5 20.9-107.5 57.3-142.5l2 2c-35.9 34.5-56.4 85.7-56.4 140.4 0 54.8 20.6 106 56.4 140.4l-2 2.2zM658.2 370.6l-2-2c35.9-34.5 56.4-85.7 56.4-140.4 0-54.8-20.6-106-56.4-140.4l2-2c36.4 35 57.3 86.9 57.3 142.5 0 55.3-20.9 107.3-57.3 142.3z"/>
  <path class="line" d="M618.3 325.3c-55.5 0-107.5-20.9-142.5-57.3l2-2c34.5 35.9 85.7 56.4 140.4 56.4 54.8 0 106-20.6 140.4-56.4l2 2c-34.9 36.5-86.8 57.3-142.3 57.3zM758.7 190.1c-34.5-35.9-85.7-56.4-140.4-56.4-54.8 0-106 20.6-140.4 56.4l-2-2c35-36.4 86.9-57.3 142.5-57.3 55.5 0 107.5 20.9 142.5 57.3l-2.2 2zM471.6 226.7h293.3v2.8H471.6z"/>
  <path class="line" d="M616.8 81.5h2.8v293.3h-2.8z"/>
  <path class="st8" d="M457 189H297.9c2.7-15.3 16.1-27 32.2-27h1.3c8.1-14.3 23.4-24 41-24 21.3 0 39.3 14.2 45.1 33.6 4.2-3.9 9.8-6.2 16-6.2 12.9 0 23.5 10.6 23.5 23.6z"/>
  <path class="line" d="M414.6 202.8H252.4l.3-1.7c2.9-16.3 17-28.1 33.6-28.1h.4c8.7-14.8 24.6-24 41.8-24 20.6 0 39.1 13.3 45.8 32.6 4.4-3.4 9.7-5.2 15.2-5.2 13.8 0 25 11.2 25 25v1.4zm-158.8-2.9h155.9c-.7-11.5-10.4-20.7-22.1-20.7-5.6 0-10.9 2.1-15 5.9l-1.7 1.5-.7-2.2c-5.7-19.2-23.7-32.6-43.8-32.6-16.5 0-31.7 8.9-39.8 23.3l-.4.8h-2.1c-14.5-.1-27 9.9-30.3 24zM830.5 201.3c-.4 0-.8-.4-.8-.8v-7.1c0-.4.4-.8.8-.8s.8.4.8.8v7.1c0 .4-.4.8-.8.8z"/>
  <path class="line" d="M830.5 202c-.8 0-1.5-.7-1.5-1.5v-7.1c0-.8.7-1.5 1.5-1.5s1.5.7 1.5 1.5v7.1c0 .8-.7 1.5-1.5 1.5zm0-8.8c-.1 0-.1.1 0 0l-.1 7.2c0 .1.2.1.2 0l-.1-7.2c.1.1 0 0 0 0z"/>
  <path class="line" d="M834.8 196.9c0 .4-.4.8-.8.8h-7.1c-.4 0-.8-.4-.8-.8s.4-.8.8-.8h7.1c.5 0 .8.4.8.8z"/>
  <path d="M834 198.4h-7.1c-.8 0-1.5-.7-1.5-1.5s.7-1.5 1.5-1.5h7.1c.8 0 1.5.7 1.5 1.5s-.6 1.5-1.5 1.5zm-7.1-1.6s-.1.1 0 0c-.1.1 0 .2 0 .2h7.1s.1 0 .1-.1 0-.1-.1-.1h-7.1zM1067.9 498.3c-.4 0-.8-.4-.8-.8v-7.1c0-.4.4-.8.8-.8s.8.4.8.8v7.1c0 .4-.3.8-.8.8z"/>
  <path d="M1067.9 499c-.8 0-1.5-.7-1.5-1.5v-7.1c0-.8.7-1.5 1.5-1.5s1.5.7 1.5 1.5v7.1c0 .8-.7 1.5-1.5 1.5zm0-8.7s-.1 0 0 0l-.1 7.2c0 .1.2.1.2 0l-.1-7.2c.1 0 .1 0 0 0z"/>
  <path class="line" d="M1072.3 493.9c0 .4-.4.8-.8.8h-7.1c-.4 0-.8-.4-.8-.8s.4-.8.8-.8h7.1c.4 0 .8.4.8.8z"/>
  <path class="line" d="M1071.5 495.4h-7.1c-.8 0-1.5-.7-1.5-1.5s.7-1.5 1.5-1.5h7.1c.8 0 1.5.7 1.5 1.5s-.7 1.5-1.5 1.5zm-7.2-1.6s0 .1 0 0c-.1.1 0 .2 0 .2h7.1s.1 0 .1-.1 0-.1-.1-.1h-7.1zM110.7 237.5c-.4 0-.8-.4-.8-.8v-7.1c0-.4.4-.8.8-.8s.8.4.8.8v7.1c0 .4-.4.8-.8.8z"/>
  <path class="line" d="M110.7 238.2c-.8 0-1.5-.7-1.5-1.5v-7.1c0-.8.7-1.5 1.5-1.5s1.5.7 1.5 1.5v7.1c0 .8-.7 1.5-1.5 1.5zm0-8.7s-.1 0 0 0l-.1 7.2c0 .1.2.1.2 0l-.1-7.2c.1 0 0 0 0 0z"/>
  <path class="line" d="M115.1 233.1c0 .4-.4.8-.8.8h-7.1c-.4 0-.8-.4-.8-.8s.4-.8.8-.8h7.1c.4 0 .8.4.8.8z"/>
  <path class="line" d="M114.3 234.6h-7.1c-.8 0-1.5-.7-1.5-1.5s.7-1.5 1.5-1.5h7.1c.8 0 1.5.7 1.5 1.5 0 .9-.7 1.5-1.5 1.5zm-7.2-1.5s-.1 0 0 0c-.1.1 0 .2 0 .2h7.1s.1 0 .1-.1 0-.1-.1-.1h-7.1zM1000.6 203.5c-.4 0-.8-.4-.8-.8v-7.1c0-.4.4-.8.8-.8s.8.4.8.8v7.1c0 .5-.4.8-.8.8z"/>
  <path class="line" d="M1000.6 204.2c-.8 0-1.5-.7-1.5-1.5v-7.1c0-.8.7-1.5 1.5-1.5s1.5.7 1.5 1.5v7.1c0 .9-.7 1.5-1.5 1.5zm0-8.7s-.1 0 0 0l-.1 7.2c0 .1.2.1.2 0l-.1-7.2c.1 0 0 0 0 0z"/>
  <g>
    <path class="line" d="M1005 199.2c0 .4-.4.8-.8.8H997c-.4 0-.8-.4-.8-.8s.4-.8.8-.8h7.1c.5 0 .9.3.9.8z"/>
    <path class="line" d="M1004.2 200.7H997c-.8 0-1.5-.7-1.5-1.5s.7-1.5 1.5-1.5h7.1c.8 0 1.5.7 1.5 1.5.1.8-.6 1.5-1.4 1.5zm-7.2-1.6s-.1 0 0 0c-.1.1 0 .2 0 .2h7.1s.1 0 .1-.1c0 0 0-.1-.1-.1H997z"/>
  </g>
  <g>
    <path class="line" d="M329.2 413.8c-.4 0-.8-.4-.8-.8v-7.1c0-.4.4-.8.8-.8s.8.4.8.8v7.1c0 .5-.4.8-.8.8z"/>
    <path class="line" d="M329.2 414.5c-.8 0-1.5-.7-1.5-1.5v-7.1c0-.8.7-1.5 1.5-1.5s1.5.7 1.5 1.5v7.1c0 .8-.7 1.5-1.5 1.5zm0-8.7c-.1 0-.1 0 0 0l-.1 7.2c0 .1.2.1.2 0l-.1-7.2c.1 0 0 0 0 0z"/>
    <g>
      <path class="line" d="M333.5 409.4c0 .4-.4.8-.8.8h-7.1c-.4 0-.8-.4-.8-.8s.4-.8.8-.8h7.1c.5.1.8.4.8.8z"/>
      <path class="line" d="M332.8 410.9h-7.1c-.8 0-1.5-.7-1.5-1.5s.7-1.5 1.5-1.5h7.1c.8 0 1.5.7 1.5 1.5 0 .9-.7 1.5-1.5 1.5zm-7.2-1.5s-.1 0 0 0c-.1.1 0 .2 0 .2h7.1s.1 0 .1-.1c0 0 0-.1-.1-.1h-7.1z"/>
    </g>
  </g>
  <g><path class="line" d="M825.9 433.1c-2.7 0-4.8-2.2-4.8-4.8 0-2.7 2.2-4.8 4.8-4.8 2.7 0 4.8 2.2 4.8 4.8.1 2.6-2.1 4.8-4.8 4.8zm0-6.8c-1.1 0-2 .9-2 2s.9 2 2 2 2-.9 2-2-.9-2-2-2z"/></g>
  <g><path class="line" d="M97 505.4c-2.7 0-4.8-2.2-4.8-4.8 0-2.7 2.2-4.8 4.8-4.8 2.7 0 4.8 2.2 4.8 4.8 0 2.6-2.2 4.8-4.8 4.8zm0-6.8c-1.1 0-2 .9-2 2s.9 2 2 2 2-.9 2-2-.9-2-2-2z"/></g>
  <g>
    <path class="st8" d="M234.6 420.6h55.6L290 440h-9.4v6.5h-3l-1.2 8.8-5.3 31.9-36.5.6z"/>
    <path class="line" d="M216.2 488.8c-.2 0-.4 0-.5-.1-.5-.2-.9-.7-.9-1.3v-67.1c0-.8.6-1.4 1.4-1.4H290c.8 0 1.4.6 1.4 1.4V440c0 .8-.6 1.4-1.4 1.4s-1.4-.6-1.4-1.4v-18.3h-62.4l.4 56.7c0 .4-.1.7-.4 1l-9 9c-.2.3-.6.4-1 .4zm1.4-67.1V484l6.1-6.1-.4-56.1h-5.7z"/>
    <path class="line" d="M234.3 489c-.4 0-.7-.1-1-.4l-9.1-9.1c-.6-.6-.6-1.5 0-2 .6-.6 1.5-.6 2 0l6.7 6.7v-63.8c0-.8.6-1.4 1.4-1.4.8 0 1.4.6 1.4 1.4v67.2c0 .6-.3 1.1-.9 1.3-.1 0-.3.1-.5.1zM272.7 421.7c-.8 0-1.4-.6-1.4-1.4v-8.8c0-5.2-4.3-9.5-9.5-9.5s-9.5 4.3-9.5 9.5v8.8c0 .8-.6 1.4-1.4 1.4-.8 0-1.4-.6-1.4-1.4v-8.8c0-6.8 5.5-12.3 12.3-12.3 6.8 0 12.3 5.5 12.3 12.3v8.8c0 .8-.6 1.4-1.4 1.4z"/>
    <path class="line" d="M261.8 421.7c-.8 0-1.4-.6-1.4-1.4v-8.8c0-5.2-4.3-9.5-9.5-9.5s-9.5 4.3-9.5 9.5v8.8c0 .8-.6 1.4-1.4 1.4-.8 0-1.4-.6-1.4-1.4v-8.8c0-6.8 5.5-12.3 12.3-12.3 6.8 0 12.3 5.5 12.3 12.3v8.8c0 .8-.6 1.4-1.4 1.4zM271.1 488.8h-.2c-.8-.1-1.3-.9-1.2-1.6l6.9-41c.1-.7.7-1.2 1.4-1.2h28.8c.8 0 1.4.6 1.4 1.4s-.6 1.4-1.4 1.4h-27.6l-6.7 39.9c-.1.6-.7 1.1-1.4 1.1z"/>
    <path class="line" d="M343.5 488.8c-.7 0-1.3-.5-1.4-1.2l-6.7-39.9h-27.6c-.8 0-1.4-.6-1.4-1.4s.6-1.4 1.4-1.4h28.8c.7 0 1.3.5 1.4 1.2l6.9 41c.1.8-.4 1.5-1.2 1.6-.1.1-.2.1-.2.1z"/>
    <path class="line" d="M319.5 447.2c-.8 0-1.4-.6-1.4-1.4v-9.5c0-5.7-4.7-10.4-10.4-10.4s-10.4 4.7-10.4 10.4v9.5c0 .8-.6 1.4-1.4 1.4s-1.4-.6-1.4-1.4v-9.5c0-7.3 5.9-13.2 13.2-13.2 7.3 0 13.2 5.9 13.2 13.2v9.5c0 .7-.6 1.4-1.4 1.4z"/>
    <path class="line" d="M334.5 447.6h-53.9c-.8 0-1.4-.6-1.4-1.4V440c0-.8.6-1.4 1.4-1.4h53.9c.8 0 1.4.6 1.4 1.4v6.2c0 .8-.6 1.4-1.4 1.4zm-52.5-2.8h51.1v-3.4H282v3.4zM377.2 490H193.9c-.8 0-1.4-.6-1.4-1.4 0-.8.6-1.4 1.4-1.4h183.2c.8 0 1.4.6 1.4 1.4.1.8-.6 1.4-1.3 1.4z"/>
  </g>
  <g><path class="line" transform="rotate(-12.839 1005.256 156.089)" d="M887.5 154.6h235.1v2.8H887.5z"/></g>
  <g>
    <path class="st9" d="M209.1 220.1h76.8v27h-56.1l-10 8.5v-8.5h-10.7z"/>
    <path class="st10" d="M219.5 256.4v-8.9h-10.7v-27.7h77.4v27.7h-56.4l-10.3 8.9zm-10-9.7h10.7v8.1l9.5-8.1h55.9v-26.3h-76v26.3z"/>
  </g>
  <g>
    <path class="st11" d="M1070.3 242.2l15.7-20.5 9.1 11.7 20.6-26.7 28 36.3z"/>
    <path class="line" d="M1128.4 251.1h-77.1V189h77.1v62.1zm-74.2-2.8h71.4v-56.4h-71.4v56.4z"/>
    <path class="st11" d="M1081.1 209.6c0 4.1-3.4 7.5-7.5 7.5s-7.5-3.4-7.5-7.5 3.4-7.5 7.5-7.5 7.5 3.4 7.5 7.5z"/>
  </g>
  <g>
    <circle class="st9" cx="236.3" cy="564.3" r="26.5"/>
    <path class="wheel st10" d="M236.3 591.1c-14.7 0-26.7-12-26.7-26.7s12-26.7 26.7-26.7 26.7 12 26.7 26.7-12 26.7-26.7 26.7z"/>
    <circle class="st9" cx="160.3" cy="564.3" r="26.5"/>
    <path class="wheel st10" d="M160.3 591.1c-14.7 0-26.7-12-26.7-26.7s12-26.7 26.7-26.7 26.7 12 26.7 26.7-11.9 26.7-26.7 26.7z"/>
    <path class="line" d="M224.9 565.8c-.6 0-1.1-.3-1.3-.9l-18.9-48.3c-.2-.4-.1-.9.2-1.3.3-.4.7-.6 1.2-.6h21.7c4.5 0 8.1 3.7 8.1 8.1s-3.7 8.1-8.1 8.1H226c-.8 0-1.4-.6-1.4-1.4s.6-1.4 1.4-1.4h1.7c2.9 0 5.3-2.4 5.3-5.3s-2.4-5.3-5.3-5.3h-19.6l18.1 46.4c.3.7-.1 1.6-.8 1.8-.1 0-.3.1-.5.1zM181.3 565.8h-32.7c-.5 0-.9-.2-1.2-.6-.3-.4-.3-.9-.2-1.3l17-43.6c.3-.7 1.1-1.1 1.8-.8.7.3 1.1 1.1.8 1.8l-16.2 41.6h30.6c.8 0 1.4.6 1.4 1.4.1.8-.5 1.5-1.3 1.5z"/>
    <path class="line" d="M210 527.4h-46.4c-.8 0-1.4-.6-1.4-1.4 0-.8.6-1.4 1.4-1.4H210c.8 0 1.4.6 1.4 1.4 0 .8-.6 1.4-1.4 1.4zM189.8 557.1c-.3 0-.7-.1-.9-.3-.6-.5-.7-1.4-.2-2l21.7-25.6c.5-.6 1.4-.7 2-.2.6.5.7 1.4.2 2l-21.7 25.6c-.3.3-.7.5-1.1.5zM224.9 592.2c-15.4 0-27.9-12.5-27.9-27.9 0-15.4 12.5-27.9 27.9-27.9s27.9 12.5 27.9 27.9c0 15.4-12.5 27.9-27.9 27.9zm0-52.9c-13.8 0-25 11.2-25 25s11.2 25 25 25 25-11.2 25-25c.1-13.8-11.2-25-25-25zM149.6 592.2c-15.4 0-27.9-12.5-27.9-27.9 0-15.4 12.5-27.9 27.9-27.9s27.9 12.5 27.9 27.9c0 15.4-12.5 27.9-27.9 27.9zm0-52.9c-13.8 0-25 11.2-25 25s11.2 25 25 25 25-11.2 25-25c.1-13.8-11.2-25-25-25z"/>
    <path class="line" d="M186.9 569.2c-4.3 0-7.7-3.5-7.7-7.7s3.5-7.7 7.7-7.7 7.7 3.5 7.7 7.7-3.4 7.7-7.7 7.7zm0-12.5c-2.7 0-4.9 2.2-4.9 4.9s2.2 4.9 4.9 4.9 4.9-2.2 4.9-4.9c0-2.8-2.2-4.9-4.9-4.9zM178.2 521.4h-21.8c-4.6 0-8.4-3.8-8.4-8.4 0-.8.6-1.4 1.4-1.4h21.8c4.6 0 8.4 3.8 8.4 8.4 0 .7-.6 1.4-1.4 1.4zm-27.3-7c.6 2.4 2.8 4.2 5.4 4.2h20.2c-.6-2.4-2.8-4.2-5.4-4.2h-20.2z"/>
    <g><path class="line" d="M224.9 592.2h-26.5c-.8 0-1.4-.6-1.4-1.4s.6-1.4 1.4-1.4h26.5c.8 0 1.4.6 1.4 1.4s-.6 1.4-1.4 1.4z"/></g>
    <g><path class="line" d="M149.6 592.2h-26.5c-.8 0-1.4-.6-1.4-1.4s.6-1.4 1.4-1.4h26.5c.8 0 1.4.6 1.4 1.4s-.6 1.4-1.4 1.4z"/></g>
  </g>
  <g><path class="cloud st13" d="M934.4 305.2h-114c1.9-11 11.5-19.3 23.1-19.3h.9c5.8-10.3 16.8-17.2 29.4-17.2 15.3 0 28.2 10.2 32.3 24.1 3-2.8 7-4.5 11.4-4.5 9.4 0 16.9 7.6 16.9 16.9z"/></g>
  <g><path class="cloud st13" d="M1000.8 271.4H930c1.2-6.8 7.2-12 14.3-12h.6c3.6-6.4 10.4-10.7 18.3-10.7 9.5 0 17.5 6.3 20.1 15 1.9-1.7 4.4-2.8 7.1-2.8 5.7.1 10.4 4.8 10.4 10.5z"/></g>
  <g>
    <path class="line" d="M212 197.8H104.3c-7.8 0-14.2-6.4-14.2-14.2s6.4-14.2 14.2-14.2H212c7.8 0 14.2 6.4 14.2 14.2s-6.4 14.2-14.2 14.2zm-107.7-25.6c-6.3 0-11.4 5.1-11.4 11.4S98 195 104.3 195H212c6.3 0 11.4-5.1 11.4-11.4s-5.1-11.4-11.4-11.4H104.3z"/>
    <circle class="magnifying-glass st4" cx="111.8" cy="182.3" r="4.7"/>
    <path class="line" d="M111.8 188.4c-3.4 0-6.1-2.7-6.1-6.1s2.7-6.1 6.1-6.1 6.1 2.7 6.1 6.1-2.8 6.1-6.1 6.1zm0-9.4c-1.8 0-3.3 1.5-3.3 3.3s1.5 3.3 3.3 3.3 3.3-1.5 3.3-3.3-1.5-3.3-3.3-3.3z"/>
    <g><path class="line" d="M118.8 191c-.4 0-.7-.1-1-.4l-3.9-3.9c-.6-.6-.6-1.5 0-2 .6-.6 1.5-.6 2 0l3.9 3.9c.6.6.6 1.5 0 2-.3.3-.6.4-1 .4z"/></g>
  </g>
  <g>
    <path class="st11" d="M742.1 103.1c0 5.5-1.6 10.6-4.5 14.8l-.2.3-18.8 27.4c-1.5 2.2-4.7 2.1-6.2-.1l-18.2-27.9-.2-.3c-2.7-4.1-4.2-9.1-4.1-14.4.2-14.5 12.2-26.1 26.7-25.8 14 .5 25.4 12 25.5 26z"/>
    <path class="line" d="M715.5 148.7c-1.8 0-3.4-.9-4.3-2.3l-18.4-28.2c-2.9-4.5-4.4-9.8-4.4-15.2.1-7.4 3.1-14.3 8.4-19.5 5.3-5.1 12.4-7.9 19.8-7.7 14.7.4 26.7 12.6 26.8 27.2 0 5.6-1.6 11-4.7 15.6l-19 27.7c-.9 1.6-2.5 2.4-4.2 2.4zm.5-70c-6.4 0-12.5 2.4-17.1 6.9-4.8 4.6-7.5 10.8-7.5 17.5-.1 4.8 1.3 9.6 3.9 13.6l.2.3 18.2 27.9c.4.6 1.1 1 1.9 1 .8 0 1.5-.4 1.9-1l19-27.7c2.8-4.1 4.3-9 4.2-14-.1-13.1-10.9-24.1-24-24.4-.3-.1-.5-.1-.7-.1z"/>
    <g>
      <circle class="marker st4" transform="rotate(-58.149 715.997 103.373)" cx="716" cy="103.4" r="9.9"/>
      <path class="line" d="M716 114.7h-.1c-6.2-.1-11.2-5.2-11.2-11.4.1-6.2 5.1-11.2 11.3-11.2h.1c3 0 5.8 1.2 7.9 3.4 2.1 2.2 3.2 5 3.2 8s-1.2 5.8-3.4 7.9c-2 2.1-4.8 3.3-7.8 3.3zm0-19.8c-4.6 0-8.4 3.7-8.4 8.4-.1 4.7 3.7 8.5 8.4 8.5 2.2 0 4.4-.8 6-2.4 1.6-1.6 2.5-3.7 2.5-5.9 0-2.3-.8-4.4-2.4-6-1.6-1.7-3.7-2.6-6.1-2.6.1 0 0 0 0 0z"/>
    </g>
  </g>
  <g>
    <path class="st11" d="M591.3 181.7c0 4.6-1.3 8.8-3.7 12.3l-.2.3-15.6 22.7c-1.2 1.8-3.9 1.8-5.1-.1l-15.1-23.1-.2-.3c-2.2-3.4-3.5-7.5-3.4-11.9.1-12 10.1-21.7 22.2-21.4 11.6.4 21 9.9 21.1 21.5z"/>
    <path class="line"  d="M569.3 219.8s-.1 0 0 0c-1.6 0-2.9-.8-3.8-2l-15.3-23.4a23.8 23.8 0 01-3.7-12.7c.1-6.2 2.6-12 7.1-16.3 4.5-4.3 10.4-6.6 16.6-6.4 12.3.3 22.4 10.6 22.5 22.8 0 4.7-1.3 9.2-3.9 13.1l-.2.3-15.6 22.6c-.9 1.2-2.2 2-3.7 2zm.4-58.1c-5.3 0-10.2 2-14 5.7-3.9 3.8-6.1 8.9-6.2 14.3 0 4 1.1 7.8 3.2 11.2l15.2 23.4c.3.5.8.7 1.4.7.5 0 1.1-.3 1.4-.7l15.8-23c2.3-3.4 3.5-7.4 3.4-11.5-.1-10.8-8.9-19.8-19.7-20-.2-.1-.4-.1-.5-.1z"/>
    <g>
      <circle class="marker st4" transform="rotate(-7.961 569.481 181.864)" cx="569.7" cy="181.9" r="8.2"/>
      <path class="line" d="M569.7 191.5h-.1c-5.3-.1-9.6-4.4-9.5-9.7.1-5.3 4.4-9.5 9.6-9.5h.1c5.3.1 9.6 4.4 9.5 9.7-.1 5.3-4.4 9.5-9.6 9.5zm0-16.4c-3.7 0-6.7 3-6.8 6.7 0 3.7 3 6.8 6.7 6.8h.1c3.7 0 6.7-3 6.8-6.7 0-3.6-3-6.7-6.8-6.8zm8.1 6.9z"/>
    </g>
  </g>
  <g>
    <path class="st6" d="M734.1 231.5c0 4.9-1.4 9.4-4 13.2l-.2.3-16.7 24.3c-1.3 1.9-4.2 1.9-5.5-.1l-16.1-24.7-.2-.3c-2.4-3.7-3.7-8.1-3.7-12.8.1-12.9 10.8-23.2 23.7-22.9 12.5.4 22.6 10.6 22.7 23z"/>
    <path class="line" d="M710.5 272.1c-1.6 0-3.1-.8-3.9-2.1l-16.3-25c-2.6-4-3.9-8.7-3.9-13.6.1-6.6 2.7-12.8 7.5-17.4 4.8-4.6 11-7 17.7-6.9 13.1.3 23.8 11.2 24 24.3 0 5-1.4 9.8-4.2 14L714.5 270c-1 1.4-2.4 2.1-4 2.1zm.4-62.1c-5.7 0-11 2.1-15.1 6.1-4.2 4.1-6.6 9.5-6.6 15.4 0 4.3 1.1 8.4 3.4 12l.2.3 16.1 24.7c.3.5.9.8 1.5.8s1.2-.3 1.6-.8l16.9-24.6c2.5-3.6 3.7-7.9 3.7-12.4-.1-11.6-9.6-21.2-21.2-21.5h-.5z"/>
    <g>
      <circle class="marker st4" transform="rotate(-8.35 711.037 231.739)" cx="710.9" cy="231.7" r="8.8"/>
      <path class="line" d="M710.9 241.9h-.1c-5.6-.1-10.1-4.7-10.1-10.3.1-5.6 4.6-10.1 10.2-10.1h.1c5.6.1 10.1 4.7 10.1 10.3 0 5.6-4.6 10.1-10.2 10.1zm0-17.5c-4 0-7.3 3.2-7.3 7.3 0 4 3.2 7.4 7.3 7.4h.1c4 0 7.3-3.2 7.3-7.3s-3.2-7.4-7.4-7.4c.1 0 .1 0 0 0z"/>
    </g>
  </g>
  <g>
    <circle transform="rotate(-80.781 1042.499 446.115)" class="st9" cx="1042.5" cy="446.1" r="23.4"/>
    <path class="st10" d="M1042.5 469.9c-13.1 0-23.8-10.7-23.8-23.8 0-13.1 10.7-23.8 23.8-23.8 13.1 0 23.8 10.7 23.8 23.8-.1 13.1-10.7 23.8-23.8 23.8z"/>
    <path d="M1051.9 447.6c-.6-.6-1.6-.6-2.2 0l-5.6 5.6v-17.9c0-.9-.7-1.6-1.6-1.6s-1.6.7-1.6 1.6v17.9l-5.6-5.6c-.6-.6-1.6-.6-2.2 0-.6.6-.6 1.6 0 2.2l7.9 7.9.2.2c.3.4.8.7 1.3.7s1-.3 1.3-.7l.2-.2 7.9-7.9c.6-.6.6-1.6 0-2.2z"/>
  </g>
  <g>
    <path class="signal st8" d="M1051.2 365.2c2.5 0 4.6 2 4.6 4.6 0 2.5-2 4.6-4.6 4.6-2.5 0-4.6-2-4.6-4.6 0-2.6 2.1-4.6 4.6-4.6zM1085.9 331.3c-9.1-9.7-21.4-15.1-34.6-15.1-13.2 0-25.5 5.4-34.6 15.1-1 1.1-1 2.9.1 3.9s2.9 1 3.9-.1c8-8.6 18.9-13.3 30.6-13.3 11.7 0 22.5 4.7 30.6 13.3.5.6 1.3.9 2 .9s1.3-.2 1.9-.7c1.1-1.1 1.1-2.9.1-4z"/>
    <path class="signal st8" d="M1075.8 342.7c-6.7-6.8-15.4-10.5-24.5-10.5s-17.8 3.7-24.5 10.5c-1.1 1.1-1.1 2.8 0 3.9s2.8 1.1 3.9 0c5.7-5.7 13-8.8 20.5-8.8 7.6 0 14.9 3.1 20.5 8.8.5.5 1.2.8 2 .8.7 0 1.4-.3 1.9-.8 1.2-1.1 1.2-2.8.2-3.9zM1064.7 354.1c-3.6-3.6-8.7-5.8-13.4-5.8h-.2c-4.7 0-9.8 2.2-13.4 5.8-1.1 1.1-1.1 2.8 0 3.9.5.5 1.3.8 2 .8s1.4-.3 1.9-.8c2.6-2.5 6.3-4.2 9.5-4.2h.2c3.2 0 7 1.6 9.5 4.2 1.1 1.1 2.8 1.1 3.9 0 1.1-1 1.1-2.8 0-3.9z"/>
  </g>
  <g>
    <path class="st6" d="M801.8 400.5l6-3.1c3.3-1.7 6.1-4.2 8.2-7.3 2.5-3.8 3.8-8.2 3.7-12.7l-.4-17.9-18.6-7.1h-.3l-18.3 7.9.4 17.9c.1 4.5 1.6 8.9 4.3 12.6 2.2 3 5.1 5.4 8.5 6.9l6.2 2.8h.3z"/>
    <path class="line" d="M797.9 383.9c-.4 0-.7-.1-1-.4l-5.2-4.9c-.6-.5-.6-1.4 0-2 .5-.6 1.4-.6 2 0l4.1 4 10.3-11c.5-.6 1.4-.6 2-.1.6.5.6 1.4.1 2l-11.3 12c-.2.2-.5.4-1 .4.1 0 .1 0 0 0z"/>
  </g>
  <g>
    <path class="line" d="M897.5 351.2h49.6v2.8h-49.6zM897.5 418.3h49.6v2.8h-49.6z"/>
    <path class="st13" d="M998.4 397.2v30.5c0 2.4-2 4.4-4.4 4.4h-30.5c-2.4 0-4.4-2-4.4-4.4v-30.5c0-2.4 2-4.4 4.4-4.4H994c2.4 0 4.4 2 4.4 4.4zM953.3 429.2v-16c0-1.6-1.3-2.9-2.9-2.9h-14.5c-2.4 0-4.4 2-4.4 4.4v14.5c0 1.6 1.3 2.9 2.9 2.9h16c1.6 0 2.9-1.3 2.9-2.9zM976.5 459c2.4 0 4.4-2 4.4-4.4v-13.1c0-1.6-1.3-2.9-2.9-2.9h-16c-1.6 0-2.9 1.3-2.9 2.9V456c0 1.6 1.3 2.9 2.9 2.9M950.4 459c1.6 0 2.9-1.3 2.9-2.9v-14.5c0-1.6-1.3-2.9-2.9-2.9h-16c-1.6 0-2.9 1.3-2.9 2.9v13.1c0 2.4 2 4.4 4.4 4.4"/>
    <path class="line" d="M944.8 429.4h-45c-2.1 0-3.7-1.7-3.7-3.7v-78.1c0-2.1 1.7-3.7 3.7-3.7h45c2.1 0 3.7 1.7 3.7 3.7v78.1c.1 2-1.6 3.7-3.7 3.7zm-45-82.8c-.5 0-.9.4-.9.9v78.1c0 .5.4.9.9.9h45c.5 0 .9-.4.9-.9v-78.1c0-.5-.4-.9-.9-.9h-45z"/>
    <g>
      <path class="credit-card st4" d="M958.8 394.9h-42.4c-1.8 0-3.2-1.4-3.2-3.2v-24.2c0-1.8 1.4-3.2 3.2-3.2h42.4c1.8 0 3.2 1.4 3.2 3.2v24.2c0 1.7-1.4 3.2-3.2 3.2z"/>
      <path class="line" d="M959.8 396.3h-44.2c-2 0-3.7-1.7-3.7-3.7v-26c0-2 1.7-3.7 3.7-3.7h44.2c2 0 3.7 1.7 3.7 3.7v26c0 2-1.7 3.7-3.7 3.7zm-44.3-30.6c-.5 0-.9.4-.9.9v26c0 .5.4.9.9.9h44.2c.5 0 .9-.4.9-.9v-26c0-.5-.4-.9-.9-.9h-44.2z"/>
    </g>
    <g><path class="line" d="M952.9 375.6h-18.2c-.8 0-1.4-.6-1.4-1.4s.6-1.4 1.4-1.4h18.2c.8 0 1.4.6 1.4 1.4s-.6 1.4-1.4 1.4z"/></g>
    <g><path class="line" d="M952.9 383h-18.2c-.8 0-1.4-.6-1.4-1.4s.6-1.4 1.4-1.4h18.2c.8 0 1.4.6 1.4 1.4s-.6 1.4-1.4 1.4z"/></g>
  </g>
  <g>
    <path class="line" d="M308.6 304.6h-55.9c-.8 0-1.4-.6-1.4-1.4 0-.8.6-1.4 1.4-1.4h55.9c.8 0 1.4.6 1.4 1.4 0 .8-.7 1.4-1.4 1.4zM308.6 320.8h-55.9c-.8 0-1.4-.6-1.4-1.4 0-.8.6-1.4 1.4-1.4h55.9c.8 0 1.4.6 1.4 1.4 0 .8-.7 1.4-1.4 1.4zM308.6 337.1h-55.9c-.8 0-1.4-.6-1.4-1.4 0-.8.6-1.4 1.4-1.4h55.9c.8 0 1.4.6 1.4 1.4 0 .7-.7 1.4-1.4 1.4z"/>
    <path class="line" d="M326.1 365H195.4c-2.6 0-4.6-2.1-4.6-4.6v-85.6c0-2.6 2.1-4.6 4.6-4.6H326c2.6 0 4.6 2.1 4.6 4.6v85.6c.1 2.5-2 4.6-4.5 4.6zm-130.7-92c-1 0-1.8.8-1.8 1.8v85.6c0 1 .8 1.8 1.8 1.8H326c1 0 1.8-.8 1.8-1.8v-85.6c0-1-.8-1.8-1.8-1.8H195.4z"/>
    <path class="line" d="M193.1 285.5h137.1v2.8H193.1z"/>
    <circle transform="rotate(-82.935 222.882 320.308)" class="st6" cx="222.9" cy="320.3" r="16.2"/>
    <path class="line" d="M222.9 338c-9.7 0-17.7-7.9-17.7-17.7 0-9.7 7.9-17.7 17.7-17.7 9.7 0 17.7 7.9 17.7 17.7-.1 9.7-8 17.7-17.7 17.7zm0-32.5c-8.2 0-14.8 6.6-14.8 14.8 0 8.2 6.6 14.8 14.8 14.8 8.2 0 14.8-6.6 14.8-14.8 0-8.2-6.6-14.8-14.8-14.8z"/>
    <path class="line" d="M220 328.8c-.2 0-.4 0-.6-.1-.5-.2-.8-.7-.8-1.3v-14c0-.5.3-1 .8-1.3.5-.2 1.1-.2 1.5.1l9.3 7c.4.3.6.7.6 1.1s-.2.9-.6 1.1l-9.3 7c-.2.3-.5.4-.9.4zm1.5-12.6v8.3l5.5-4.2-5.5-4.1zM410.9 303.3H354v-56.9h56.9v56.9zm-54.1-2.9h51.3v-51.3h-51.3v51.3z"/>
    <path class="line" d="M381.7 285.1l-8.3-8.4 2-2 6 6.1 9.9-13.2 2.2 1.8zM320.8 386.2c-17.5 0-33.7-7.6-44.3-21.5l2.3-1.7c13.9 18.3 38.2 25 61.9 17 11.9-4 23.8-15.1 36.5-26.9 18.3-17 37.2-34.6 57.2-30.4l-.6 2.8c-18.6-3.9-36.9 13.2-54.7 29.7-12.9 12-25 23.3-37.5 27.5-7.1 2.4-14.1 3.5-20.8 3.5z"/>
    <g><path class="line" d="M177.1 316.5c-19.7 0-29.7-11.7-41.8-25.8-3.7-4.3-7.5-8.7-11.9-13.2-10.1-10.3-22.5-14-33.2-10l-1-2.7c11.8-4.5 25.3-.5 36.2 10.6 4.4 4.5 8.3 9 12 13.4 14.7 17.1 25.3 29.5 53.3 23.2l.6 2.8c-5.2 1.2-9.9 1.7-14.2 1.7z"/></g>
    <g>
      <path class="st6" d="M1055.7 575.7l7.6-30.5-54.1-13.5-20.7 12.5L985 558l3.1-12.3-3.4 13.8 12.4 20.7 54.1 13.5 7.6-30.4"/>
      <path class="line" d="M1047.9 585.1l-56-14-13.1-21.8 4.1-16.5 21.8-13.1 56 14-7.9 31.8-4.9 19.6zm-54.2-16.5l52.1 13 7.3-29.1 4.2-16.7-52.1-13-19.7 11.8-3.5 14.2 11.7 19.8z"/>
      <path class="line" d="M997.5 550.4c-.4 0-.8 0-1.2-.2-2.8-.7-4.4-3.5-3.7-6.2.3-1.3 1.2-2.5 2.3-3.2 1.2-.7 2.6-.9 3.9-.6 2.8.7 4.4 3.5 3.7 6.2-.6 2.4-2.7 4-5 4zm-.6-3c1.2.3 2.5-.4 2.8-1.7.3-1.2-.4-2.5-1.7-2.8-.6-.1-1.2-.1-1.7.3-.5.3-.9.8-1 1.4-.4 1.3.4 2.5 1.6 2.8z"/>
      <g><path class="line" d="M923.3 560.9c-3.1 0-6.3-.5-9.7-1.5-11.2-3.5-17.3-12.3-18.2-26-.7-11.3 2.3-23.9 4.4-33.2l.2-.7c2.4-10.2.8-19.5-4.7-26.9-5.9-7.9-15.6-12.8-27.4-13.6-10.4-.7-20.3 2.9-29.9 6.4-11.5 4.2-23.5 8.6-36.5 5.5-10.9-2.5-24.9-11.6-32.6-21.1l2.2-1.8c7.2 8.9 20.8 17.8 31 20.1 12.2 2.9 23.2-1.2 34.9-5.4 9.8-3.6 20-7.3 31-6.6 12.6.9 23.1 6.1 29.5 14.7 6 8.1 7.7 18.2 5.2 29.2l-.2.7c-4.3 18.2-11.4 48.6 11.8 55.8 14 4.4 24.3-2.2 35.2-9.1 2.8-1.8 5.6-3.6 8.6-5.2 6.5-3.6 14.3-4.4 22.5-2.3l-.7 2.8c-7.5-1.9-14.5-1.2-20.4 2-2.9 1.6-5.7 3.4-8.5 5.1-8.4 5.6-17.2 11.1-27.7 11.1z"/></g>
      <g>
        <path class="st10" d="M786.2 547.6H472.7l26.1-24.7h261.4l.1.1 25.9 24.6zm-311.7-.7h310l-24.6-23.3H499l-24.5 23.3z"/>
        <path class="laptop st4" d="M757.5 500.6c5.7 0 10.3-4.6 10.3-10.3V301.7c0-5.7-4.6-10.3-10.3-10.3H443.4c-5.7 0-10.3 4.6-10.3 10.3v188.7c0 5.7 4.6 10.3 10.3 10.3"/>
        <path class="line" d="M757.5 502v-2.8c4.9 0 8.9-4 8.9-8.9V301.7c0-4.9-4-8.9-8.9-8.9H443.4c-4.9 0-8.9 4-8.9 8.9v188.7c0 4.9 4 8.9 8.9 8.9v2.8c-6.5 0-11.7-5.3-11.7-11.7V301.7c0-6.5 5.3-11.7 11.7-11.7h314.1c6 0 10.9 4.5 11.6 10.3h.1v190.1c0 6.4-5.2 11.6-11.7 11.6z"/>
        <path class="laptop st4" d="M821.2 557.3c5.2 0 7.5-6.5 3.5-9.8l-55.3-45.6c-1-.8-2.2-1.3-3.5-1.3H435.3c-1.3 0-2.5.4-3.5 1.3l-55.3 45.6c-4 3.3-1.7 9.8 3.5 9.8h441.2z"/>
        <path class="line" d="M821.2 558.7H379.8c-3 0-5.5-1.8-6.5-4.6s-.2-5.8 2.1-7.7l55.3-45.6c1.2-1 2.8-1.6 4.4-1.6h330.7c1.6 0 3.2.6 4.4 1.6l55.3 45.6c2.3 1.9 3.1 4.9 2.1 7.7-.9 2.8-3.5 4.6-6.4 4.6zM435.1 502c-1 0-1.9.3-2.6.9l-55.3 45.6c-1.6 1.4-1.7 3.2-1.3 4.6.5 1.3 1.7 2.7 3.9 2.7h441.4c2.1 0 3.4-1.4 3.9-2.7.5-1.3.4-3.2-1.3-4.6L768.4 503c-.7-.6-1.7-.9-2.6-.9H435.1z"/>
        <path class="line" d="M819.5 567.8h-438c-4.8 0-8.7-3.9-8.7-8.7v-6.5h2.8v6.5c0 3.2 2.6 5.8 5.8 5.8h438c3.2 0 5.8-2.6 5.8-5.8v-6.5h2.8v6.5c.1 4.8-3.8 8.7-8.5 8.7z"/>
        <path class="st4" d="M600.8 537.4h155.6L731 509.1H469.9l-25.3 28.3h155.6zM451.2 304.5h298.4v184.3H451.2z"/>
        <path class="line" d="M751 490.2H449.8V303.1H751v187.1zm-298.4-2.8h295.5V306H452.6v181.4z"/>
        <path class="st9" d="M629.8 547.2h155.5l-25.3-24H498.9l-25.3 24h155.6z"/>
        <path d="M575.6 382.1h3.3v-9.7l4.8 8.8 4.8-8.8v9.7h3.3v-15.5h-3.3l-4.8 8.8-4.8-8.8h-3.3v15.5zM600.6 382.4c3.5 0 6.3-2.8 6.3-6.1s-2.9-6.1-6.3-6.1c-3.5 0-6.4 2.8-6.4 6.1s2.9 6.1 6.4 6.1zm0-2.8c-1.8 0-3.2-1.5-3.2-3.3 0-1.8 1.5-3.3 3.2-3.3 1.7 0 3.2 1.5 3.2 3.3 0 1.8-1.4 3.3-3.2 3.3zM608.7 382.1h10.2v-2.8H613l5.9-6.5v-2.3h-10v2.8h5.7l-5.9 6.5v2.3zM622.8 368.9c1 0 1.8-.8 1.8-1.8 0-.9-.8-1.8-1.8-1.8s-1.8.8-1.8 1.8c0 .9.8 1.8 1.8 1.8zm-1.6 13.2h3.3v-11.7h-3.3v11.7zM627.3 382.1h3.3v-15.8h-3.3v15.8zM633.5 382.1h3.3v-15.8h-3.3v15.8zM644.9 370.2c-1.6 0-3.2.5-4.9 1.3l1.1 2.2c.9-.5 1.9-.8 3-.8 1.9 0 2.7 1.1 2.7 2.3v.2c-1-.4-2-.6-3-.6-2.7 0-4.8 1.6-4.8 3.9 0 2.2 1.9 3.7 4.4 3.7 1.3 0 2.6-.5 3.4-1.4v1.2h3.2v-7c0-3.1-2.1-5-5.1-5zm-.8 9.9c-1.1 0-2-.6-2-1.5s.9-1.6 2.1-1.6c.9 0 1.8.2 2.5.4v1.1c-.1 1-1.3 1.6-2.6 1.6zM604 389.2l-10.4 25.5-10.4-25.5h-8.7l14.7 36.2h8.7l14.7-36.2H604zM617 425.4h7.7v-11.7h8.5c7.8 0 13.6-5.1 13.6-12.2 0-7.2-5.8-12.2-13.6-12.2H617v36.1zm7.7-18.9v-10.2h7.7c3.8 0 6.5 2 6.5 5.1 0 3.1-2.6 5.1-6.5 5.1h-7.7zM652 425.4h7.7V402l17.4 23.4h7.8v-36.2h-7.8v23.4l-17.4-23.4H652v36.2z"/>
        <path d="M540.1 372c-2.5 0-4.5 2-4.5 4.5s2 4.5 4.5 4.5 4.5-2 4.5-4.5-2-4.5-4.5-4.5zm-10.6 4.5c0-5.8 4.7-10.5 10.5-10.5s10.5 4.7 10.5 10.5S545.8 387 540 387c-1.8 0-3.5-.5-5-1.3l-4.5 4.5c.3.6.6 1.3.8 2h17.4c1.3-4.3 5.3-7.5 10.1-7.5 5.8 0 10.5 4.7 10.5 10.5s-4.7 10.5-10.5 10.5c-1.8 0-3.5-.5-5-1.3l-4.5 4.5c.8 1.5 1.3 3.2 1.3 5 0 5.8-4.7 10.5-10.5 10.5s-10.5-4.7-10.5-10.5 4.7-10.5 10.5-10.5c1.8 0 3.5.5 5 1.3l4.5-4.5c-.3-.6-.6-1.3-.8-2h-17.4c-1.3 4.3-5.3 7.5-10.1 7.5-5.8 0-10.5-4.7-10.5-10.5s4.7-10.5 10.5-10.5c1.8 0 3.5.5 5 1.3l4.5-4.5c-.8-1.5-1.3-3.2-1.3-5zm6.1 37.6c0-2.5 2-4.5 4.5-4.5s4.5 2 4.5 4.5-2 4.5-4.5 4.5-4.5-2-4.5-4.5zm-14.3-23.3c-2.5 0-4.5 2-4.5 4.5s2 4.5 4.5 4.5 4.5-2 4.5-4.5-2-4.5-4.5-4.5zm33 4.5c0-2.5 2-4.5 4.5-4.5s4.5 2 4.5 4.5-2 4.5-4.5 4.5-4.5-2-4.5-4.5z" fill-rule="evenodd" clip-rule="evenodd"/>
        <path d="M759.5 538.8H441.4l27.9-31.2h262.4l27.8 31.2zM447.8 536h305.4l-22.8-25.5H470.6L447.8 536z"/>
        <path d="M759.5 538.8H441.4l27.9-31.2h262.4l27.8 31.2zM447.8 536h305.4l-22.8-25.5H470.6L447.8 536z"/>
      </g>
    </g>
  </g>
</g>
</svg>
