<svg height="24" viewBox="0 0 24 24" width="24" xmlns="http://www.w3.org/2000/svg"><path d="m22.651973 9.10145054c-.0006606-.00247607-.0012944-.00496289-.0019605-.00743897-.01603-.05980176-.0326428-.11936182-.0496477-.17875538-.0024734-.00864746-.0049038-.01731104-.0073986-.02594776-.0160972-.05570899-.0326751-.11120313-.0496236-.16654152-.0036899-.01205273-.0073745-.0241001-.011102-.03613135-.0164571-.05308252-.0332954-.1059878-.0505286-.1587212-.0045574-.01394873-.0091658-.02787598-.0137769-.04180323-.0170022-.0513208-.0342971-.10250196-.0520244-.15348438-.0051871-.01492627-.010487-.02979346-.0157359-.04468751-.0177341-.0503003-.0356856-.1004878-.0541246-.15044972-.0054489-.01476513-.0110631-.02945508-.0165725-.04419336-.0187719-.05019825-.0376997-.10031055-.0571793-.15015431-.0050475-.01292285-.0102883-.02574365-.0153828-.03863965-.0058451-.01479736-.0117385-.02956787-.0176467-.04433301-.0147571-.03687793-.0294538-.07378272-.0445976-.11046192-.0021833-.00528516-.0044701-.01051661-.0066615-.01580176-.0710045-.17123048-.1462374-.34024808-.2254839-.50700444-.0053711-.01130615-.0105515-.02271436-.0159588-.03399365-.0191373-.03991797-.0388196-.07951905-.0584201-.11916847-.0115868-.02344482-.0230004-.0469917-.0347483-.07034522-.0179502-.03566407-.0363314-.07107032-.0546549-.10651417-.0139836-.02705957-.0278813-.05416748-.0420825-.08109278-.0175407-.03325244-.0354157-.06629004-.0532853-.09933839-.0156017-.02886426-.031202-.05772852-.0470521-.08643164-.0174037-.03151758-.0350504-.06286866-.0527522-.09419288-.016927-.02995996-.0339346-.05986085-.0511328-.08964893-.0173742-.0300835-.0349041-.06005958-.0525535-.08996583-.0181651-.03078174-.0364859-.06146143-.0549409-.09204981-.0173581-.02877295-.03479-.05748145-.0524018-.08607716-.0194111-.03152832-.0390532-.06289014-.0587718-.09420362-.0172694-.02741944-.0345321-.0548335-.0520352-.0820918-.0208573-.03248438-.0420167-.06474854-.0632057-.09700197-.0169485-.02579736-.0338151-.05164307-.050973-.07728467-.0227896-.03406348-.0459551-.06785303-.0691126-.10164796-.0161173-.02352002-.0320761-.04715283-.0483707-.07053858-.0262297-.03765137-.052912-.07495362-.0795969-.11226124-.0137527-.01922314-.0272838-.03862353-.0411574-.05775537-.0408028-.05627833-.0820622-.11220753-.123895-.16767482-.3191947-.41936429-.6671033-.81326959-1.0395431-1.1796373-.2614689-.26933889-.5391598-.51991654-.8306303-.75179742-.1691599-.14599708-.3452069-.28379787-.5265673-.41447123-.3486941-.2617173-.7303506-.49694974-1.1461284-.70115874-.0960781-.05004249-.1927027-.09895704-.2900525-.14612599-.7889748-.38227152-1.6129288-.6839605-2.464446-.87143855-.1133328-.02494873-.227118-.04778125-.3411826-.06897559-.567718-.10818458-1.1459257-.16999513-1.7293165-.18160743-.0822193-.00163819-.1635619-.00240986-.2441498-.00240986-.7708352-.00252081-1.5311324.07477998-2.25160426.22641671-1.56648499.32969387-2.94404711 1.0059952-3.81523993 1.85149673.00127832-.00077344.00259961-.00153613.00387927-.00230957-.00144751.00146631-.00265869.00270166-.00357177.0036416.00194433-.00160596.00418945-.00346436.0065581-.00541944.00182349-.00110107.00369397-.00218603.00552283-.00328711-.00139649.00111719-.0028158.00219678-.00421228.0033086.00324146-.00221289.00725769-.00486621.0117627-.0078042.65175139-.39052689 1.55104846-.70694879 2.19380999-.86896785.03546399-.00894287.07100989-.01744531.10655579-.02594775.12071131-.02862793.24513942-.05583253.37357437-.08098536.00143005-.0002793.00286145-.00054785.00429285-.00082715.03535791-.00690722.07101795-.01365869.10694251-.02025977 2.84879343-.51865433 5.88661313.3319014 8.00156603 2.35536982.4547907.43511771.8626018.92199129 1.1932504 1.45826282 1.3494686 2.18867791 1.2217883 4.94021962.1696742 6.56302052-.7816016 1.2055582-2.4553259 2.3365173-4.0169702 2.3242336.0315364.0016489.0630271.0029917.0945058.0042539-.0208842-.0004458-.0418086-.0011064-.0627465-.0018423-.0320883-.0012675-.0641738-.0025136-.0963735-.0044526-.7760654-.0466318-1.44326-.2333741-2.0009421-.5181065-2.4165976-1.2338692-2.77680198-4.30775718-1.0281818-5.79418601-.0000202 0-.0000417-.00000537-.0000618-.00001074.0000027 0 .0000054 0 .000008-.00000537-.5805844-.12474366-1.67168991.1195337-2.43133316 1.25260899-.68151531 1.01654403-.64314556 2.58721843-.22264394 3.70113503-.25574465-.5364702-.44326431-1.0818458-.54108671-1.7410294-.52779594-3.55654521 1.77493581-6.60591948 3.97969071-7.49772522.0155802-.00630029.0311336-.01207959.046703-.01816504.0199698-.0078042.0399516-.0158501.0598998-.0232998.0354855-.01324512.0709347-.02593165.1063329-.03803809.0000175-.00000537.0000336-.00001074.0000511-.00002149-.4967444-.43280814-1.2972321-.67786431-2.22555723-.70409673-1.2803762-.03619043-2.80387633.34404006-4.1090643 1.22191855-.07788892.05238428-.15506214.10640675-.23129811.16235744-.0470951.03456299-.0935846.06978662-.13972633.10537549-.01449927.01118799-.02879981.02258008-.04320508.03386475-.03177808.02489502-.06338026.04997266-.09469642.07535645-.01632276.01322901-.03256226.02653858-.04875879.03990186-.02997877.02472852-.0597024.04972022-.08924879.07489454-.01533985.01307324-.03074549.02607129-.04596985.0392627-.03490674.03025-.0694402.06087598-.1037306.09174903-.00891334.00802441-.01799451.01587695-.02686622.02394434-.04190259.03810254-.08327344.07673682-.12423878.11576856-.01455163.01386817-.02884277.02797803-.04327625.04195899-.02692932.0260874-.05374451.05228223-.08025891.07877247-.01692298.01689746-.03369825.03393994-.05045338.05100391-.02390271.02435254-.04761609.04887695-.07117102.07355713-.01698072.0177837-.03396815.03556202-.05076893.05351759-.02418066.02585107-.04804578.05199219-.07185181.07819238-.01514514.01666651-.03046485.03316114-.04545826.04996729-.0357876.0401167-.07114014.08063087-.10605494.12153712-.01691492.0198086-.0334552.03995557-.05016467.05995216-.01977369.02367041-.03955408.04733008-.05904041.0712583-.01844166.02263379-.03664161.04547706-.05482411.06833644-.01717944.02161328-.03425952.04330713-.05120666.06511377-.01870887.02407324-.03733851.0482002-.05576405.07251514-.01564599.02065186-.03106372.04149708-.04650562.06232081-.01893176.02552881-.03794946.05097706-.05657104.07676905-.01081067.01497461-.02132594.03019629-.03203187.04525684-.03991126.05613331-.07907862.11286817-.11753028.17019923-.01098389.01638184-.022094.03265625-.03295838.04913477-.01984485.03008887-.03933655.06045704-.05877991.0908628-.01088855.01703174-.02176368.03406885-.03252601.05120264-.01960986.03120606-.03902905.06255176-.05821863.09408546-.00932153.01532373-.01851013.03074951-.0277323.04614307-.02031079.03390772-.04057056.06784229-.0603993.10211524-.00191882.00331934-.00377051.00668701-.0056853.01001172-.04942481.08571729-.0973578.17256251-.1437466.26054104-.00058813.00111718-.00119909.00221289-.00178723.00333008-.02031616.03858056-.04016235.07749414-.05989173.11649366-.00580884.0114834-.01165661.02293994-.01741443.03446094-.01908215.0381831-.03786755.07657032-.05638843.11514551-.00520593.01084424-.01034473.02173682-.01550635.03261866-.08467798.17842237-.16335377.36101272-.23590517.54759379-.00247742.00637012-.00500317.01270801-.00746716.01908887-.0168357.04361329-.03328467.0874629-.04945032.1315005-.00320655.0087334-.00638355.01748828-.00956458.02623779-.01636975.04504737-.0324884.09024513-.04815723.13572755-.00048205.00139649-.00094531.00281446-.00142602.00421094-.03432666.09981104-.06717225.20053517-.09810035.30239797.03908411-.49037552.15575636-1.10866366.36367142-1.79160903.00129577-.0042539.00256201-.00848633.0038645-.0127456.0103501-.03385401.02099829-.06791212.03179956-.10207228.00264258-.00835205.00525696-.01668799.00792639-.02506152.00991639-.03111475.02008252-.06239063.03037488-.09374171.0037732-.01149414.00753431-.02297217.01135853-.03449317.00961157-.02897168.0194259-.05806689.0293584-.08722657.00482324-.01415283.00966528-.02831641.01456372-.04251221.00933496-.02706494.01882434-.05421045.02843591-.08142041.0058263-.01649463.01170899-.03301612.01763734-.04955909.0091322-.02549121.01837854-.05104151.02775378-.07665625.00674207-.01841211.01357141-.03686719.0204397-.05533839.0089751-.02414307.01802539-.04832373.02721668-.07256885.00765381-.0201792.01543249-.04041748.02323669-.06066651.0088086-.02285401.01765479-.0457295.02665674-.06866407.0085857-.02187109.01733118-.04380127.02609278-.06574219.0086394-.02163477.01727612-.04326954.0260874-.06496876.00954578-.02350391.01929029-.04707227.02903882-.070646.0084098-.02034033.01678333-.04066455.02534351-.06105323.01063611-.02533008.02150989-.05072461.03238099-.07612451.00807812-.01887403.01608374-.03772657.02429077-.05663819.01176941-.02710791.02381543-.05429102.0358534-.0814795.00772497-.01744532.01534924-.03486377.02318567-.05233594.01323571-.02950879.02678296-.05908204.04033691-.08866065.00696228-.01518946.01379029-.03035743.02083716-.04556299.01558826-.03364454.03152564-.0673589.04752882-.10107863.00534423-.01126318.0105448-.02249951.01593603-.03376806.02014563-.04210938.04065247-.08427247.06145203-.12647853.00146631-.00297022.00287085-.00594043.00433985-.00891602.02272375-.04600879.04583423-.09206592.06933948-.13815528-.0000188.00001074-.00003894.00002148-.00005774.00003223.00000537-.00001075.00001208-.00002149.00001746-.00003223-.2384645.12309473-.49732707.32943069-.75519464.59019731-.02578663.02607666-.05156519.05269581-.07731019.07983057-.54066374.56985698-1.06748214 1.36702404-1.38239745 2.12462762-.53308647 1.28247764-.79985126 2.75851338-.79400659 4.23470488.00185614.4394952.02751251.8789957.07785443 1.3134152.00267346.0229399.00526367.0458584.00787268.0687769.01266638.1116274.02503602.2229594.03937549.3338135.00100574.007788.00192017.0155976.00294739.0233857.88769551 5.2078881 5.42197321 9.1727063 10.88291234 9.1727063 6.0977549 0 11.0410159-4.9432597 11.0410159-11.0410199 0-.9883082-.1303672-1.9460602-.3740161-2.85752956z"/></svg>