<svg width="111" height="104" fill="none" xmlns="http://www.w3.org/2000/svg"><g filter="url(#a)"><path fill-rule="evenodd" clip-rule="evenodd" d="M17.075 4.378C23.27.424 30.791-.915 37.985.62A28.03 28.03 0 0 1 54.6 11.251a27.903 27.903 0 0 1 8.678-3.1 28.11 28.11 0 0 1 20.791 4.437 27.878 27.878 0 0 1 7.594 7.712 27.554 27.554 0 0 1 4.06 10.014 27.325 27.325 0 0 1-.12 10.8 27.325 27.325 0 0 1-4.3 9.909 27.553 27.553 0 0 1-7.799 7.485L44.461 83.426a7.336 7.336 0 0 1-10.074-2.15L8.92 42.586A27.432 27.432 0 0 1 4.98 21.771 27.432 27.432 0 0 1 17.075 4.378Zm17.847 10.59a13.339 13.339 0 0 0-9.953 1.778 12.76 12.76 0 0 0-5.64 8.088 12.76 12.76 0 0 0 1.846 9.685l21.49 32.648L75.612 46.14h.002a12.883 12.883 0 0 0 3.648-3.499 12.652 12.652 0 0 0 2.047-9.59 12.88 12.88 0 0 0-1.902-4.683l-.002-.003a13.204 13.204 0 0 0-3.598-3.651 13.438 13.438 0 0 0-9.937-2.122c-1.71.307-3.332.942-4.776 1.864l-4.683 2.99a7.336 7.336 0 0 1-10.075-2.15l-3.053-4.64a13.339 13.339 0 0 0-8.36-5.686Z" fill="#F9F9FA"/><path d="M86.155 23.954a20.543 20.543 0 0 0-5.596-5.682 20.775 20.775 0 0 0-15.364-3.28 20.544 20.544 0 0 0-7.428 2.903l-4.682 2.988-3.054-4.64c-2.972-4.515-7.633-7.69-12.956-8.826C31.75 6.28 26.2 7.276 21.642 10.184a20.096 20.096 0 0 0-8.867 12.74 20.096 20.096 0 0 0 2.892 15.25l3.054 4.64 22.413 34.05 34.363-21.93 4.682-2.989a20.218 20.218 0 0 0 5.723-5.492 19.99 19.99 0 0 0 3.146-7.248c.555-2.6.585-5.284.088-7.9a20.22 20.22 0 0 0-2.982-7.35Z" fill="#FF4F5F" stroke="#1D1D1B" stroke-width=".9" stroke-linecap="round" stroke-linejoin="round"/></g><defs><filter id="a" x=".379" y="0" width="109.824" height="103.579" filterUnits="userSpaceOnUse" color-interpolation-filters="sRGB"><feFlood flood-opacity="0" result="BackgroundImageFix"/><feColorMatrix in="SourceAlpha" values="0 0 0 0 0 0 0 0 0 0 0 0 0 0 0 0 0 0 127 0" result="hardAlpha"/><feOffset dx="5" dy="10"/><feGaussianBlur stdDeviation="4.5"/><feComposite in2="hardAlpha" operator="out"/><feColorMatrix values="0 0 0 0 0 0 0 0 0 0 0 0 0 0 0 0 0 0 0.08 0"/><feBlend in2="BackgroundImageFix" result="effect1_dropShadow_230_4831"/><feBlend in="SourceGraphic" in2="effect1_dropShadow_230_4831" result="shape"/></filter></defs></svg>