<svg fill="none" height="119" width="130" xmlns="http://www.w3.org/2000/svg" xmlns:xlink="http://www.w3.org/1999/xlink"><filter id="a" color-interpolation-filters="sRGB" filterUnits="userSpaceOnUse" height="118.247" width="129.202" x=".421" y=".539"><feFlood flood-opacity="0" result="BackgroundImageFix"/><feColorMatrix in="SourceAlpha" result="hardAlpha" values="0 0 0 0 0 0 0 0 0 0 0 0 0 0 0 0 0 0 127 0"/><feOffset dx="5" dy="10"/><feGaussianBlur stdDeviation="4.5"/><feComposite in2="hardAlpha" operator="out"/><feColorMatrix values="0 0 0 0 0 0 0 0 0 0 0 0 0 0 0 0 0 0 0.08 0"/><feBlend in2="BackgroundImageFix" result="effect1_dropShadow_230_4802"/><feBlend in="SourceGraphic" in2="effect1_dropShadow_230_4802" result="shape"/></filter><g filter="url(#a)"><g fill="#f9f9fa"><path clip-rule="evenodd" d="m103.251 32.916a4.911 4.911 0 0 1 4.911 4.91v34.98a4.911 4.911 0 0 1 -4.911 4.91h-23.332a.372.372 0 0 0 -.306.162l-9.823 14.284a.372.372 0 0 1 -.605.012l-10.645-14.308a.372.372 0 0 0 -.298-.15h-23.062a4.91 4.91 0 0 1 -4.911-4.91v-34.98a4.91 4.91 0 0 1 4.91-4.91h68.071z" fill-rule="evenodd"/><path d="m58.541 77.867-5.986 4.453zm10.645 14.307 5.986-4.454zm10.427-14.296 6.148 4.227zm21.087-40.051a2.55 2.55 0 0 0 2.551 2.55v-14.922c6.833 0 12.372 5.539 12.372 12.372zm0 34.979v-34.98h14.923v34.98zm2.551-2.55a2.55 2.55 0 0 0 -2.551 2.55h14.923c0 6.833-5.539 12.372-12.372 12.372v-14.923zm-23.332 0h23.332v14.922h-23.332v-14.923zm-16.276 17.68 9.821-14.286 12.297 8.455-9.822 14.285-12.296-8.455zm.884-14.523 10.645 14.307-11.972 8.907-10.645-14.307zm-29.346-3.158h23.062v14.923h-23.063v-14.923zm2.55 2.55a2.55 2.55 0 0 0 -2.55-2.55v14.923c-6.833 0-12.372-5.54-12.372-12.372h14.921zm0-34.978v34.979h-14.921v-34.98h14.92zm-2.55 2.55a2.55 2.55 0 0 0 2.55-2.55h-14.921c0-6.833 5.539-12.372 12.372-12.372v14.922zm68.07 0h-68.07v-14.922h68.07zm-50.696 41.943a7.09 7.09 0 0 0 5.688 2.858v-14.923a7.833 7.833 0 0 1 6.284 3.158zm23.384 14.07c-3.042 4.425-9.534 4.546-12.74.237l11.973-8.907c-2.901-3.899-8.776-3.79-11.53.215l12.298 8.455zm3.98-11.212c2.334 0 4.52-1.15 5.842-3.073l-12.297-8.455a7.833 7.833 0 0 1 6.455-3.395z"/><path clip-rule="evenodd" d="m94.213 20.863a4.91 4.91 0 0 1 4.91 4.911v34.98a4.91 4.91 0 0 1 -4.91 4.91h-23.331a.372.372 0 0 0 -.307.161l-9.823 14.286a.372.372 0 0 1 -.605.011l-10.645-14.308a.372.372 0 0 0 -.299-.15h-23.06a4.91 4.91 0 0 1 -4.912-4.91v-34.98a4.91 4.91 0 0 1 4.911-4.91h68.07z" fill-rule="evenodd"/><path d="m49.502 65.814 5.986-4.454zm11.25 14.297-6.148-4.228zm-.605.011-5.986 4.454zm10.428-14.297 6.148 4.227zm21.087-40.051a2.55 2.55 0 0 0 2.55 2.55v-14.922c6.833 0 12.372 5.54 12.372 12.372zm0 34.98v-34.98h14.922v34.98zm2.55-2.551a2.55 2.55 0 0 0 -2.55 2.55h14.922c0 6.833-5.539 12.372-12.371 12.372v-14.922zm-23.33 0h23.33v14.922h-23.33zm-16.278 17.68 9.823-14.285 12.296 8.454-9.822 14.286-12.297-8.454zm.884-14.523 10.646 14.308-11.973 8.908-10.645-14.308zm-29.346-3.157h23.061v14.922h-23.06v-14.922zm2.55 2.55a2.55 2.55 0 0 0 -2.55-2.55v14.922c-6.833 0-12.372-5.54-12.372-12.372h14.923zm0-34.979v34.98h-14.922v-34.98h14.923zm-2.55 2.55a2.55 2.55 0 0 0 2.55-2.55h-14.922c0-6.833 5.54-12.372 12.372-12.372v14.923zm68.07 0h-68.07v-14.922h68.07v14.923zm-50.695 41.945a7.09 7.09 0 0 0 5.688 2.857v-14.923a7.833 7.833 0 0 1 6.284 3.157l-11.972 8.907zm23.383 14.069c-3.043 4.425-9.534 4.546-12.74.238l11.973-8.908c-2.901-3.899-8.776-3.79-11.53.215zm3.98-11.213a7.09 7.09 0 0 0 5.842-3.073l-12.296-8.454a7.833 7.833 0 0 1 6.454-3.395z"/><path clip-rule="evenodd" d="m84.863 8a4.91 4.91 0 0 1 4.91 4.91v34.98a4.91 4.91 0 0 1 -4.91 4.91h-23.332a.372.372 0 0 0 -.306.162l-9.822 14.284a.372.372 0 0 1 -.605.012l-10.645-14.308a.372.372 0 0 0 -.298-.15h-23.062a4.91 4.91 0 0 1 -4.911-4.91v-34.98a4.91 4.91 0 0 1 4.91-4.91z" fill-rule="evenodd"/><path d="m40.153 52.95-5.986 4.454zm10.645 14.308 5.986-4.454zm10.427-14.296 6.148 4.227zm21.087-40.052a2.55 2.55 0 0 0 2.551 2.55v-14.92c6.833 0 12.372 5.539 12.372 12.372h-14.922zm0 34.979v-34.979h14.923v34.98h-14.922zm2.551-2.55a2.55 2.55 0 0 0 -2.55 2.55h14.922c0 6.833-5.54 12.372-12.372 12.372zm-23.332 0h23.332v14.922h-23.332zm-16.276 17.681 9.822-14.286 12.296 8.455-9.822 14.285-12.296-8.455zm.884-14.523 10.645 14.307-11.972 8.907-10.645-14.307zm-29.346-3.158h23.062v14.923h-23.062zm2.55 2.55a2.55 2.55 0 0 0 -2.55-2.55v14.923c-6.833 0-12.372-5.54-12.372-12.372h14.922zm0-34.978v34.979h-14.922v-34.98h14.922zm-2.55 2.55a2.55 2.55 0 0 0 2.55-2.55h-14.922c-.001-6.833 5.539-12.372 12.372-12.372v14.921zm68.07 0h-68.07v-14.921h68.07v14.92zm-50.696 41.943a7.09 7.09 0 0 0 5.688 2.858v-14.923a7.833 7.833 0 0 1 6.284 3.158zm23.384 14.07c-3.043 4.425-9.534 4.546-12.74.237l11.973-8.907c-2.901-3.899-8.776-3.79-11.53.215zm3.98-11.212a7.09 7.09 0 0 0 5.842-3.073l-12.297-8.455a7.834 7.834 0 0 1 6.455-3.395z"/><path d="m50.23 37.46c2.306-1.322 4.561-3.136 6.219-5.199 2.282-2.84 2.859-5.336 2.324-7.464v-.003a1.116 1.116 0 0 0 -.046-.144 1.214 1.214 0 0 0 -.42-.087 2.283 2.283 0 0 0 -1.1.218c-.317.154-.484.334-.572.481l-6.405 10.728-6.405-10.728c-.089-.148-.255-.328-.572-.481a2.28 2.28 0 0 0 -1.1-.218 1.213 1.213 0 0 0 -.42.088c-.012.03-.029.076-.046.144l8.545 12.664zm0 0c-2.304-1.322-4.56-3.137-6.218-5.199-2.283-2.84-2.86-5.337-2.326-7.465l8.545 12.663zm-8.478-12.85-.002.003a.024.024 0 0 1 .002-.004zm16.955-.002.002.003z" stroke="#f9f9fa" stroke-width="14.922"/></g><path clip-rule="evenodd" d="m102.369 32.916a4.91 4.91 0 0 1 4.91 4.91v34.98a4.91 4.91 0 0 1 -4.91 4.91h-23.332a.372.372 0 0 0 -.307.162l-9.82 14.284a.372.372 0 0 1 -.605.012l-10.646-14.308a.372.372 0 0 0 -.299-.15h-23.062a4.91 4.91 0 0 1 -4.91-4.91v-34.98a4.91 4.91 0 0 1 4.91-4.91z" fill="#9059ff" fill-rule="evenodd"/><path d="m57.659 77.867-.36.267zm10.645 14.307.359-.267-.36.267zm10.426-14.296.37.253zm28.102-40.051a4.464 4.464 0 0 0 -4.463-4.463v-.896c2.959 0 5.358 2.4 5.358 5.359zm0 34.979v-34.98h.895v34.98zm-4.463 4.463a4.464 4.464 0 0 0 4.463-4.463h.895a5.358 5.358 0 0 1 -5.358 5.358zm-23.332 0h23.332v.895h-23.332zm-10.497 14.64 9.822-14.285.737.507-9.822 14.285zm-10.522-14.31 10.645 14.308-.719.534-10.644-14.307zm-23.72-.33h23.062v.895h-23.062zm-4.463-4.463a4.463 4.463 0 0 0 4.463 4.463v.895a5.358 5.358 0 0 1 -5.358-5.358zm0-34.98v34.98h-.895v-34.98zm4.463-4.462a4.463 4.463 0 0 0 -4.463 4.463h-.895a5.358 5.358 0 0 1 5.358-5.359zm68.071 0h-68.07v-.896h68.07zm-45.07 44.77c.015.019.037.03.061.03v-.895a.82.82 0 0 1 .658.33l-.718.535zm11.979 14.282a.82.82 0 0 1 -1.334.025l.719-.534a.076.076 0 0 0 -.123.002l.737.507zm9.759-14.252a.076.076 0 0 0 .062-.033l-.737-.507a.82.82 0 0 1 .675-.355z" fill="#1d1d1b"/><path clip-rule="evenodd" d="m91.197 20.823a4.91 4.91 0 0 1 4.91 4.911v34.979a4.91 4.91 0 0 1 -4.91 4.91h-21.17a.372.372 0 0 0 -.307.162l-9.85 14.325a.372.372 0 0 1 -.604.01l-10.676-14.345a.372.372 0 0 0 -.298-.15h-25.165a4.91 4.91 0 0 1 -4.911-4.911v-34.98a4.91 4.91 0 0 1 4.91-4.91h68.07z" fill="#6d67ff" fill-rule="evenodd"/><path d="m48.591 65.774-.359.267.36-.267zm11.28 14.335-.37-.253.37.254zm-.605.012-.36.267zm10.454-14.336.369.254-.37-.254zm25.94-40.051a4.463 4.463 0 0 0 -4.463-4.463v-.895a5.358 5.358 0 0 1 5.358 5.358zm0 34.979v-34.979h.895v34.979zm-4.463 4.463a4.463 4.463 0 0 0 4.463-4.463h.895a5.358 5.358 0 0 1 -5.358 5.358zm-21.17 0h21.17v.895h-21.17zm-10.525 14.68 9.848-14.326.738.508-9.85 14.324-.737-.507zm-10.552-14.35 10.675 14.348-.718.534-10.675-14.347.718-.534zm-25.823-.33h25.166v.895h-25.166zm-4.463-4.463a4.463 4.463 0 0 0 4.463 4.463v.895a5.358 5.358 0 0 1 -5.359-5.358zm0-34.979v34.979h-.896v-34.979zm4.463-4.463a4.463 4.463 0 0 0 -4.463 4.463h-.896c0-2.96 2.4-5.358 5.359-5.358zm68.07 0h-68.07v-.895h68.07zm-42.965 44.769c.014.02.037.03.06.03v-.895a.82.82 0 0 1 .658.33zm12.008 14.323a.82.82 0 0 1 -1.334.025l.719-.534a.076.076 0 0 0 -.123.002zm9.786-14.292a.076.076 0 0 0 .063-.032l-.738-.508a.82.82 0 0 1 .675-.355z" fill="#1d1d1b"/><path clip-rule="evenodd" d="m83.981 8a4.91 4.91 0 0 1 4.91 4.91v34.98a4.91 4.91 0 0 1 -4.91 4.91h-23.331a.372.372 0 0 0 -.306.162l-9.824 14.284a.372.372 0 0 1 -.605.012l-10.644-14.308a.372.372 0 0 0 -.298-.15h-23.063a4.91 4.91 0 0 1 -4.91-4.91v-34.98a4.91 4.91 0 0 1 4.91-4.91h68.07z" fill="#0290ff" fill-rule="evenodd"/><path d="m39.271 52.95-.359.268.36-.268zm10.645 14.308.36-.267zm10.427-14.296.369.253-.37-.253zm28.101-40.052a4.463 4.463 0 0 0 -4.463-4.463v-.896a5.358 5.358 0 0 1 5.359 5.359zm0 34.979v-34.979h.895v34.98h-.895zm-4.463 4.463a4.463 4.463 0 0 0 4.463-4.463h.895a5.358 5.358 0 0 1 -5.358 5.358zm-23.332 0h23.332v.895h-23.331v-.895zm-10.497 14.64 9.822-14.285.738.507-9.822 14.286-.738-.507zm-10.522-14.309 10.645 14.308-.718.534-10.645-14.307zm-23.72-.33h23.063v.895h-23.063zm-4.462-4.463a4.463 4.463 0 0 0 4.463 4.463v.895c-2.96 0-5.359-2.399-5.359-5.358zm0-34.98v34.98h-.896v-34.98zm4.463-4.462a4.463 4.463 0 0 0 -4.463 4.463h-.896c0-2.96 2.4-5.359 5.359-5.359zm68.07 0h-68.07v-.896h68.07zm-45.069 44.77c.014.019.037.03.06.03v-.895a.82.82 0 0 1 .658.33zm11.978 14.282a.82.82 0 0 1 -1.333.025l.718-.534a.076.076 0 0 0 -.123.002zm9.76-14.252a.076.076 0 0 0 .062-.033l-.738-.507a.82.82 0 0 1 .675-.355v.895z" fill="#1d1d1b"/><path d="m61.033 36.654c-3 3.733-7.238 6.705-11.23 8.403l-.005-.32-.896-.001-.005.322c-3.993-1.698-8.232-4.67-11.233-8.404-3.15-3.919-4.903-8.628-3.662-13.568.89-3.541 3.739-5.333 6.837-5.525 3.114-.192 6.415 1.242 8.124 4.105l.384.643.385-.643c1.709-2.863 5.01-4.297 8.125-4.105 3.098.192 5.947 1.983 6.836 5.525 1.242 4.94-.51 9.65-3.66 13.568z" fill="#f9f9fa" stroke="#1d1d1b" stroke-width=".895"/></g></svg>