<svg width="104" height="105" fill="none" xmlns="http://www.w3.org/2000/svg"><g filter="url(#a)"><path d="M5.957 36.886c-1.624 10.967 1.114 21.907 7.71 30.808 6.597 8.901 16.277 14.707 27.244 16.33l.004.001c2.026.294 4.09.454 6.137.454 9.848 0 19.41-3.533 26.938-9.97a41.431 41.431 0 0 0 14.059-25.417c3.35-22.633-12.32-43.776-34.954-47.138l-.11-.016h-.014a42.795 42.795 0 0 0-6.028-.438 41.448 41.448 0 0 0-26.926 9.958 41.405 41.405 0 0 0-14.06 25.428Zm5.682.845v-.004c.179-1.227.42-2.421.723-3.594l.002-.009c.242-.958.515-1.88.829-2.79v-.001a35.54 35.54 0 0 1 10.545-15.491l.003-.003a35.676 35.676 0 0 1 3.739-2.793 32.664 32.664 0 0 1 2.677-1.58l.012-.007a35.562 35.562 0 0 1 16.774-4.212c1.739 0 3.515.137 5.297.4 19.526 2.889 32.994 21.06 30.105 40.59C79.71 65.976 64.456 78.73 47.041 78.73c-1.74 0-3.515-.136-5.297-.4-19.528-2.9-33.005-21.061-30.105-40.6Z" fill="#F9F9FA" stroke="#F9F9FA" stroke-width="3"/><path d="M82.373 48.25c-1.4 9.445-6.392 17.786-14.076 23.478-6.228 4.619-13.572 7.048-21.245 7.048a36.25 36.25 0 0 1-5.32-.394c-9.456-1.4-17.797-6.403-23.488-14.087-5.692-7.672-8.056-17.096-6.655-26.553C14.183 20.339 29.386 7.215 46.975 7.215c1.74 0 3.514.131 5.265.394 9.435 1.4 17.776 6.403 23.467 14.087 5.703 7.683 8.067 17.118 6.666 26.553Z" fill="#3FE1B0"/><path d="M76.955 20.765c-5.932-8-14.634-13.211-24.485-14.678a37.96 37.96 0 0 0-5.538-.416 37.198 37.198 0 0 0-17.502 4.4 31.613 31.613 0 0 0-2.813 1.653 39.462 39.462 0 0 0-3.908 2.923 37.102 37.102 0 0 0-11 16.177 31.831 31.831 0 0 0-.875 2.922 35.813 35.813 0 0 0-.756 3.766c-3.02 20.347 11.077 39.36 31.425 42.392 1.85.273 3.71.416 5.538.416 18.312 0 34.161-13.693 36.854-31.852 1.466-9.862-.996-19.702-6.94-27.703Zm5.418 27.484c-1.4 9.446-6.392 17.787-14.076 23.478-6.228 4.62-13.572 7.05-21.245 7.05a36.25 36.25 0 0 1-5.32-.395c-9.456-1.4-17.797-6.403-23.488-14.087-5.692-7.672-8.056-17.096-6.655-26.553C14.183 20.338 29.386 7.215 46.975 7.215c1.74 0 3.514.131 5.265.394 9.435 1.4 17.776 6.403 23.467 14.087 5.703 7.683 8.067 17.118 6.666 26.553Z" fill="#1D1D1B"/><path d="M66.37 46.99a1.079 1.079 0 0 1-1.05.908c-.055 0-.11 0-.164-.01a1.07 1.07 0 0 1-.898-1.205c.734-4.947-.383-9.873-3.163-13.868-2.78-3.995-6.874-6.578-11.526-7.267-.81-.12-1.642-.186-2.452-.186-8.745 0-16.374 6.939-17.742 16.133a1.071 1.071 0 0 1-1.062.909h-.142a1.062 1.062 0 0 1-.898-1.204c1.51-10.234 10.048-17.951 19.856-17.951a18 18 0 0 1 2.758.208c10.77 1.598 18.17 12.16 16.484 23.544v-.011ZM40.922 48.413l-.733 4.958a1.069 1.069 0 0 1-1.05.908c-.055 0-.11 0-.165-.01a1.066 1.066 0 0 1-.7-.416 1.076 1.076 0 0 1-.197-.788l.733-4.959a1.09 1.09 0 0 1 1.062-.908 1.065 1.065 0 0 1 .854.427c.164.23.24.514.196.788ZM53.313 50.252l-.734 4.958a1.06 1.06 0 0 1-1.05.909c-.055 0-.11 0-.154-.011a1.054 1.054 0 0 1-.897-1.204l.733-4.958a1.073 1.073 0 0 1 1.062-.909h.142c.285.044.536.186.7.416.176.23.241.514.198.788v.011Z" fill="#1D1D1B"/></g><defs><filter id="a" x="0" y="0" width="104" height="104.979" filterUnits="userSpaceOnUse" color-interpolation-filters="sRGB"><feFlood flood-opacity="0" result="BackgroundImageFix"/><feColorMatrix in="SourceAlpha" values="0 0 0 0 0 0 0 0 0 0 0 0 0 0 0 0 0 0 127 0" result="hardAlpha"/><feOffset dx="5" dy="10"/><feGaussianBlur stdDeviation="4.5"/><feComposite in2="hardAlpha" operator="out"/><feColorMatrix values="0 0 0 0 0 0 0 0 0 0 0 0 0 0 0 0 0 0 0.08 0"/><feBlend in2="BackgroundImageFix" result="effect1_dropShadow_230_4854"/><feBlend in="SourceGraphic" in2="effect1_dropShadow_230_4854" result="shape"/></filter></defs></svg>