<svg width="40" height="39" viewBox="0 0 40 39" xmlns="http://www.w3.org/2000/svg" xmlns:xlink="http://www.w3.org/1999/xlink"><defs><path id="a" d="M0 39V0h39.728v39z"/></defs><g fill="none" fill-rule="evenodd"><mask id="b" fill="#fff"><use xlink:href="#a"/></mask><path d="M0 19.5C0 8.73 8.892 0 19.86 0c3.003-.008 5.967.66 8.667 1.95.91.434 1.292 1.51.85 2.406-.443.895-1.54 1.268-2.45.834-2.202-1.052-4.618-1.596-7.066-1.59-8.936.005-16.177 7.12-16.173 15.896.005 8.775 7.254 15.885 16.19 15.88 8.938-.005 16.18-7.12 16.175-15.896 0-2.27-.498-4.514-1.457-6.58-.422-.905-.017-1.974.904-2.388.92-.414 2.01-.017 2.432.888 4.553 9.802.15 21.37-9.833 25.84C25.512 38.4 22.702 39 19.86 39 8.893 39 0 30.27 0 19.5z" fill="#33F70C" mask="url(#b)"/><path d="M17.098 25.528L8.58 17.86c-.737-.666-.777-1.786-.09-2.5.686-.716 1.842-.756 2.58-.09l7.105 6.43 15.63-17.106c.67-.732 1.828-.796 2.582-.145.755.65.822 1.772.15 2.503L19.66 25.41c-.327.355-.788.568-1.278.59-.52-.002-.953-.172-1.284-.472z" fill="#33F70C" mask="url(#b)"/></g></svg>