<svg width="156" height="156" viewBox="0 0 156 156" xmlns="http://www.w3.org/2000/svg"><defs><filter x="-13.8%" y="-13.8%" width="127.7%" height="127.7%" filterUnits="objectBoundingBox" id="a"><feOffset in="SourceAlpha" result="shadowOffsetOuter1"/><feGaussianBlur stdDeviation="5" in="shadowOffsetOuter1" result="shadowBlurOuter1"/><feColorMatrix values="0 0 0 0 0 0 0 0 0 0 0 0 0 0 0 0 0 0 0.16 0" in="shadowBlurOuter1" result="shadowMatrixOuter1"/><feMerge><feMergeNode in="shadowMatrixOuter1"/><feMergeNode in="SourceGraphic"/></feMerge></filter></defs><g filter="url(#a)" transform="translate(13 13)" fill="none" fill-rule="evenodd"><path d="M88.706 49.86c0-5.576-4.237-10.095-9.463-10.095H47.7c-5.228 0-9.465 4.52-9.465 10.094v26.916c0 5.575 4.237 10.095 9.464 10.095h12.71v-.02c1.693-.057 3.037-1.537 3.037-3.342 0-1.806-1.344-3.286-3.036-3.343v-.024H47.7c-1.744 0-3.156-1.505-3.156-3.364V56.588h37.853v6.568h.032c0 .057-.033.104-.033.162 0 1.858 1.412 3.364 3.154 3.364 1.744 0 3.156-1.506 3.156-3.364 0-.058-.03-.105-.032-.162h.032V49.86zm-44.162 3.364V49.86c0-1.86 1.412-3.366 3.155-3.366h31.543c1.742 0 3.154 1.507 3.154 3.365v3.364H44.544zM87.13 76.776c.87 0 1.576.754 1.576 1.683 0 .928-.706 1.68-1.577 1.68h-7.887v8.413c0 .93-.706 1.682-1.578 1.682-.87 0-1.577-.753-1.577-1.682V80.14h-7.886c-.87 0-1.577-.752-1.577-1.68 0-.93.706-1.684 1.577-1.684h7.886v-8.41c0-.93.706-1.684 1.577-1.684.872 0 1.578.754 1.578 1.683v8.41h7.886z" fill="#FFF" fill-rule="nonzero"/><circle stroke="#FFF" stroke-width="5" cx="65" cy="65" r="65"/></g></svg>