<svg width="156" height="156" viewBox="0 0 156 156" xmlns="http://www.w3.org/2000/svg"><defs><filter x="-13.8%" y="-13.8%" width="127.7%" height="127.7%" filterUnits="objectBoundingBox" id="a"><feOffset in="SourceAlpha" result="shadowOffsetOuter1"/><feGaussianBlur stdDeviation="5" in="shadowOffsetOuter1" result="shadowBlurOuter1"/><feColorMatrix values="0 0 0 0 0 0 0 0 0 0 0 0 0 0 0 0 0 0 0.16 0" in="shadowBlurOuter1" result="shadowMatrixOuter1"/><feMerge><feMergeNode in="shadowMatrixOuter1"/><feMergeNode in="SourceGraphic"/></feMerge></filter></defs><g filter="url(#a)" transform="translate(13 13)" fill="none" fill-rule="evenodd"><circle stroke="#FFF" stroke-width="5" cx="65" cy="65" r="65"/><path d="M89.138 84.98L74.956 70.796c5.337-7.5 4.036-17.838-2.993-23.782-7.028-5.944-17.44-5.51-23.948 1-6.51 6.51-6.944 16.92-1 23.948 5.944 7.03 16.282 8.33 23.782 2.993L84.98 89.138c1.153 1.115 2.988 1.1 4.122-.036 1.135-1.134 1.15-2.97.036-4.123zm-28.55-12.627c-6.497 0-11.764-5.267-11.764-11.765 0-6.497 5.267-11.764 11.764-11.764 6.498 0 11.765 5.267 11.765 11.764 0 3.12-1.24 6.113-3.446 8.32-2.206 2.205-5.2 3.445-8.32 3.445z" fill-rule="nonzero" fill="#FFF"/></g></svg>