<svg width="156" height="156" viewBox="0 0 156 156" xmlns="http://www.w3.org/2000/svg"><defs><filter x="-13.8%" y="-13.8%" width="127.7%" height="127.7%" filterUnits="objectBoundingBox" id="a"><feOffset in="SourceAlpha" result="shadowOffsetOuter1"/><feGaussianBlur stdDeviation="5" in="shadowOffsetOuter1" result="shadowBlurOuter1"/><feColorMatrix values="0 0 0 0 0 0 0 0 0 0 0 0 0 0 0 0 0 0 0.16 0" in="shadowBlurOuter1" result="shadowMatrixOuter1"/><feMerge><feMergeNode in="shadowMatrixOuter1"/><feMergeNode in="SourceGraphic"/></feMerge></filter></defs><g filter="url(#a)" transform="translate(13 13)" fill="none" fill-rule="evenodd"><path d="M56.736 47.847c-1.858 0-3.364 1.49-3.364 3.328V84.45c0 1.84 1.506 3.33 3.364 3.33 1.857 0 3.363-1.49 3.363-3.33V51.176c0-1.838-1.507-3.328-3.364-3.328zm10.09-3.327c-1.858 0-3.364 1.49-3.364 3.327V84.45c0 1.84 1.506 3.33 3.364 3.33 1.857 0 3.363-1.49 3.363-3.33V47.848c0-1.837-1.507-3.327-3.364-3.327zm26.7 38.793L80.075 46.71c-.394-1.14-1.38-1.98-2.577-2.197-1.197-.216-2.42.224-3.196 1.15-.775.93-.984 2.2-.546 3.322L87.207 85.59c.395 1.138 1.38 1.978 2.577 2.195 1.198.217 2.42-.224 3.196-1.15.776-.93.986-2.2.547-3.322zm-46.88-42.12c-1.858 0-3.364 1.49-3.364 3.327v39.93c0 1.84 1.506 3.33 3.364 3.33 1.857 0 3.363-1.49 3.363-3.33V44.52c0-1.838-1.507-3.328-3.364-3.328z" fill="#FFF" fill-rule="nonzero"/><circle stroke="#FFF" stroke-width="5" cx="65" cy="65" r="65"/></g></svg>