<svg xmlns="http://www.w3.org/2000/svg" width="600" height="450" fill="none" viewBox="0 0 600 450"><rect width="600" height="450" fill="#ECDFFF" rx="15"/><g filter="url(#a)"><g clip-path="url(#b)"><rect width="507.821" height="358.053" x="46" y="46" fill="#fff" rx="5.951"/><path fill="#C9C3D2" d="M40.05 42.033h525.673v28.763H40.05z"/><circle cx="57.364" cy="57.365" r="3.099" fill="#592ACB"/><circle cx="67.696" cy="57.365" r="3.099" fill="#592ACB"/><circle cx="78.028" cy="57.365" r="3.099" fill="#592ACB"/><path fill="#0C0C0D" d="M90.945 245.895v-22.57h11.432c4.041 0 6.833 2.366 6.833 5.651 0 2.3-1.149 3.975-3.153 5.026 2.628 1.183 4.139 3.286 4.139 5.782 0 3.614-3.088 6.111-7.392 6.111h-11.86Zm4.829-13.47h5.388c1.806 0 3.088-1.051 3.088-2.496 0-1.413-1.282-2.464-3.088-2.464h-5.388v4.96Zm0 9.33h6.143c1.938 0 3.318-1.149 3.318-2.759 0-1.61-1.38-2.76-3.318-2.76h-6.143v5.519Zm29.081-12.845h4.797v16.985h-4.797v-2.136c-1.018 1.544-2.924 2.53-5.125 2.53-3.679 0-6.307-2.727-6.307-6.57V228.91h4.632v9.79c0 2.103 1.314 3.548 3.219 3.548 2.004 0 3.548-1.445 3.548-3.285l.033.099V228.91Zm15.285 17.379c-2.727 0-5.618-.92-7.655-2.562l2.07-3.319c1.511 1.085 3.417 1.906 5.683 1.906 1.282 0 2.201-.526 2.201-1.281 0-1.052-1.248-1.38-2.989-1.84-3.482-.854-6.176-1.807-6.209-5.158-.033-3.219 2.628-5.519 6.636-5.519 2.431 0 4.829.854 6.702 2.103l-1.938 3.416c-1.544-.953-3.318-1.511-4.764-1.511-1.183 0-2.004.427-2.004 1.018 0 .92.69 1.183 2.99 1.807 2.923.756 6.176 1.741 6.176 5.454 0 3.351-2.727 5.486-6.899 5.486Zm18.428 0c-5.026 0-9.264-4.074-9.264-8.903 0-4.829 4.271-8.87 9.297-8.87 2.76 0 5.027 1.117 6.669 2.891l-3.187 2.727c-.854-.953-2.201-1.577-3.515-1.577-2.496 0-4.599 2.201-4.599 4.796 0 2.661 2.103 4.895 4.632 4.895 1.314 0 2.694-.657 3.581-1.642l3.187 2.693c-1.676 1.84-3.975 2.99-6.801 2.99Zm17.276-17.773c4.435 0 7.457 2.792 7.457 7.227v10.152h-4.632v-1.709c-1.216 1.38-3.154 2.103-4.994 2.103-3.613 0-6.406-2.168-6.406-5.421 0-3.351 3.121-5.65 7.063-5.65 1.38 0 2.891.296 4.337.854v-.329c0-1.806-1.117-3.383-3.909-3.383-1.577 0-3.056.525-4.403 1.215l-1.609-3.186c2.398-1.216 4.73-1.873 7.096-1.873Zm-1.084 14.455c1.839 0 3.58-.854 3.909-2.431v-1.577a10.752 10.752 0 0 0-3.647-.624c-1.741 0-3.121 1.018-3.121 2.398 0 1.38 1.216 2.234 2.859 2.234Zm22.406-14.455c3.68 0 6.308 2.727 6.308 6.57v10.809h-4.632v-9.79c0-2.103-1.314-3.548-3.22-3.548-2.004 0-3.548 1.445-3.548 3.285l-.032-.099v10.152h-4.797V228.91h4.797v2.136c1.018-1.544 2.923-2.53 5.124-2.53Zm23.038-5.585h4.797v22.964h-4.797v-2.431c-1.347 1.774-3.318 2.825-5.716 2.825-4.534 0-7.819-3.679-7.819-8.903 0-5.191 3.285-8.87 7.819-8.87 2.398 0 4.369 1.051 5.716 2.825v-8.41Zm-4.336 19.317c2.529 0 4.336-2.004 4.336-4.862 0-2.825-1.807-4.829-4.336-4.829-2.661 0-4.534 2.004-4.534 4.829 0 2.858 1.873 4.862 4.534 4.862Zm21.687 4.041c-5.059 0-9.297-4.074-9.297-8.903 0-4.829 4.238-8.87 9.297-8.87 5.027 0 9.232 4.041 9.232 8.87 0 4.829-4.205 8.903-9.232 8.903Zm0-4.041c2.53 0 4.665-2.234 4.665-4.862s-2.135-4.829-4.665-4.829c-2.562 0-4.698 2.201-4.698 4.829 0 2.628 2.136 4.862 4.698 4.862Zm29.669-.197c1.346 0 2.989-.624 3.909-1.511l3.055 3.121c-1.511 1.577-4.435 2.628-6.932 2.628-5.059 0-9.001-3.712-9.001-8.936 0-5.125 3.778-8.837 8.739-8.837 5.322 0 8.443 4.041 8.443 10.447h-12.254c.558 1.84 2.037 3.088 4.041 3.088Zm-.033-9.297c-1.807 0-3.318 1.051-3.943 2.76h7.589c-.46-1.676-1.708-2.76-3.646-2.76Zm27.489 13.141h-5.157l-3.68-5.125-3.712 5.125h-5.059l6.242-8.64-5.979-8.345h5.19l3.384 4.731 3.417-4.731h5.059l-5.946 8.246 6.241 8.739Zm13.089-17.379c4.533 0 7.819 3.679 7.819 8.87 0 5.224-3.286 8.903-7.819 8.903-2.365 0-4.337-1.018-5.684-2.792v8.048h-4.796V228.91h4.796v2.366c1.347-1.742 3.319-2.76 5.684-2.76Zm-1.38 13.732c2.661 0 4.534-2.004 4.534-4.862 0-2.825-1.873-4.829-4.534-4.829-2.332 0-4.041 1.708-4.304 4.172v1.314c.263 2.497 1.972 4.205 4.304 4.205Zm20.932 4.041c-5.059 0-9.297-4.074-9.297-8.903 0-4.829 4.238-8.87 9.297-8.87 5.026 0 9.231 4.041 9.231 8.87 0 4.829-4.205 8.903-9.231 8.903Zm0-4.041c2.53 0 4.665-2.234 4.665-4.862s-2.135-4.829-4.665-4.829c-2.562 0-4.698 2.201-4.698 4.829 0 2.628 2.136 4.862 4.698 4.862Zm18.85 4.041c-2.727 0-5.618-.92-7.654-2.562l2.069-3.319c1.512 1.085 3.417 1.906 5.684 1.906 1.281 0 2.201-.526 2.201-1.281 0-1.052-1.249-1.38-2.99-1.84-3.482-.854-6.176-1.807-6.209-5.158-.033-3.219 2.628-5.519 6.636-5.519 2.431 0 4.83.854 6.702 2.103l-1.938 3.416c-1.544-.953-3.318-1.511-4.764-1.511-1.182 0-2.004.427-2.004 1.018 0 .92.69 1.183 2.99 1.807 2.924.756 6.176 1.741 6.176 5.454 0 3.351-2.727 5.486-6.899 5.486Zm12.515-19.711a2.615 2.615 0 0 1-2.628-2.628c0-1.347 1.15-2.563 2.628-2.563 1.413 0 2.563 1.216 2.563 2.563 0 1.445-1.15 2.628-2.563 2.628Zm-2.431 19.317V228.91h4.797v16.985h-4.797Zm17.296.394c-5.027 0-9.265-4.074-9.265-8.903 0-4.829 4.271-8.87 9.297-8.87 2.76 0 5.027 1.117 6.669 2.891l-3.186 2.727c-.854-.953-2.201-1.577-3.515-1.577-2.497 0-4.6 2.201-4.6 4.796 0 2.661 2.103 4.895 4.632 4.895 1.315 0 2.694-.657 3.581-1.642l3.187 2.693c-1.675 1.84-3.975 2.99-6.8 2.99Zm12.084-19.711a2.615 2.615 0 0 1-2.628-2.628c0-1.347 1.15-2.563 2.628-2.563 1.413 0 2.563 1.216 2.563 2.563 0 1.445-1.15 2.628-2.563 2.628Zm-2.431 19.317V228.91h4.797v16.985h-4.797Zm17.328.394c-5.059 0-9.297-4.074-9.297-8.903 0-4.829 4.238-8.87 9.297-8.87 5.027 0 9.232 4.041 9.232 8.87 0 4.829-4.205 8.903-9.232 8.903Zm0-4.041c2.53 0 4.665-2.234 4.665-4.862s-2.135-4.829-4.665-4.829c-2.562 0-4.697 2.201-4.697 4.829 0 2.628 2.135 4.862 4.697 4.862Zm22.3-13.732c3.68 0 6.308 2.727 6.308 6.57v10.809h-4.632v-9.79c0-2.103-1.315-3.548-3.22-3.548-2.004 0-3.548 1.445-3.548 3.285l-.033-.099v10.152h-4.796V228.91h4.796v2.136c1.019-1.544 2.924-2.53 5.125-2.53Zm18.373 13.535c1.347 0 2.989-.624 3.909-1.511l3.055 3.121c-1.511 1.577-4.435 2.628-6.931 2.628-5.06 0-9.002-3.712-9.002-8.936 0-5.125 3.778-8.837 8.739-8.837 5.322 0 8.443 4.041 8.443 10.447h-12.254c.559 1.84 2.037 3.088 4.041 3.088Zm-.033-9.297c-1.807 0-3.318 1.051-3.942 2.76h7.589c-.46-1.676-1.709-2.76-3.647-2.76Zm17.864 13.535c-2.727 0-5.618-.92-7.654-2.562l2.069-3.319c1.511 1.085 3.417 1.906 5.684 1.906 1.281 0 2.201-.526 2.201-1.281 0-1.052-1.249-1.38-2.99-1.84-3.482-.854-6.176-1.807-6.209-5.158-.033-3.219 2.628-5.519 6.636-5.519 2.431 0 4.83.854 6.702 2.103l-1.938 3.416c-1.544-.953-3.318-1.511-4.764-1.511-1.182 0-2.004.427-2.004 1.018 0 .92.69 1.183 2.99 1.807 2.924.756 6.176 1.741 6.176 5.454 0 3.351-2.727 5.486-6.899 5.486Zm12.844 0a3.05 3.05 0 0 1-3.056-3.055c0-1.544 1.347-2.924 3.056-2.924 1.609 0 2.924 1.38 2.924 2.924 0 1.675-1.315 3.055-2.924 3.055Zm9.528 0a3.05 3.05 0 0 1-3.055-3.055c0-1.544 1.347-2.924 3.055-2.924 1.61 0 2.924 1.38 2.924 2.924 0 1.675-1.314 3.055-2.924 3.055Zm9.528 0a3.05 3.05 0 0 1-3.055-3.055c0-1.544 1.347-2.924 3.055-2.924 1.61 0 2.924 1.38 2.924 2.924 0 1.675-1.314 3.055-2.924 3.055Z"/><rect width="423.385" height="44.63" x="89.424" y="295.895" fill="#EAEAEA" rx="22.315"/><rect width="91.006" height="44.784" x="88.218" y="295.895" fill="url(#c)" rx="22.392"/><path fill="#fff" d="M115.607 315.349c2.844 0 5.195 1.836 5.195 4.882 0 3.157-2.53 5.329-5.889 5.329-4.501 0-6.539-3.224-6.539-7.703 0-4.792 2.799-8.218 7.054-8.218 1.926 0 3.471.65 4.725 1.657l-1.568 2.508c-.94-.784-1.858-1.254-3.135-1.254-1.993 0-3.359 1.657-3.65 4.255.963-.918 2.352-1.456 3.807-1.456Zm-.873 7.412c1.634 0 2.664-1.142 2.664-2.374 0-1.477-1.254-2.351-2.754-2.351-1.276 0-2.306.694-2.754 1.792.291 1.881 1.12 2.933 2.844 2.933Zm11.724-5.128c-2.284 0-3.829-1.724-3.829-3.918 0-2.217 1.545-3.964 3.851-3.964 2.329 0 3.829 1.769 3.829 3.941 0 2.217-1.567 3.941-3.851 3.941Zm-1.814 7.658 10.703-15.383h2.374l-10.703 15.383h-2.374Zm1.836-9.584c.941 0 1.635-.783 1.635-2.015 0-1.187-.694-1.993-1.657-1.993-.941 0-1.612.784-1.612 1.993s.716 2.015 1.634 2.015Zm9.382 9.831c-2.306 0-3.851-1.747-3.851-3.941 0-2.195 1.567-3.941 3.851-3.941 2.307 0 3.829 1.769 3.829 3.941 0 2.216-1.589 3.941-3.829 3.941Zm0-1.949c.963 0 1.635-.783 1.635-1.992 0-1.21-.717-2.016-1.635-2.016-.985 0-1.657.784-1.657 2.016 0 1.186.695 1.992 1.657 1.992Z"/><rect width="27.776" height="27.776" x="164.232" y="131.895" fill="#592ACB" rx="13.888"/><path fill="#fff" d="M175.798 152.738c-.308 0-.602-.122-.82-.34l-3.477-3.477a1.158 1.158 0 0 1 .824-1.964c.304-.003.596.114.815.325l2.5 2.5 7.321-10.458a1.158 1.158 0 0 1 2.084.466c.055.3-.012.61-.184.862l-8.114 11.591a1.162 1.162 0 0 1-.848.495.85.85 0 0 1-.101 0Z"/><path fill="#D9BFFF" d="M192.008 144.046h83.328v3.472h-83.328z"/><rect width="27.776" height="27.776" x="275.336" y="131.895" fill="#592ACB" rx="13.888"/><path fill="#fff" d="M286.901 152.738c-.307 0-.602-.122-.819-.34l-3.478-3.477a1.158 1.158 0 0 1 .824-1.964c.304-.003.597.114.815.325l2.5 2.5 7.321-10.458a1.16 1.16 0 0 1 1.9 1.328l-8.114 11.591a1.15 1.15 0 0 1-.848.495.85.85 0 0 1-.101 0Z"/><path fill="#D9BFFF" d="M303.111 144.046h41.664v3.472h-41.664zM344.775 144.046h39.06v3.472h-39.06z"/><rect width="31.248" height="31.248" x="382.099" y="130.159" fill="#592ACB" rx="15.624"/><path fill="#fff" d="m404.423 151.257-4.179-4.179a5.215 5.215 0 1 0-1.225 1.226l4.178 4.179a.864.864 0 0 0 1.469-.616.868.868 0 0 0-.243-.61Zm-8.412-3.72a3.465 3.465 0 0 1-3.4-4.143 3.461 3.461 0 0 1 2.723-2.723 3.459 3.459 0 0 1 3.559 1.474 3.464 3.464 0 0 1-.431 4.377 3.467 3.467 0 0 1-2.451 1.015Z"/><rect width="31.248" height="31.248" x="382.099" y="130.159" stroke="#D9BFFF" stroke-width="3.472" rx="15.624"/><path fill="#592ACB" d="M158.886 174.981h-1.383c-.159-.907-.881-1.428-1.802-1.428-1.239 0-2.112.951-2.112 2.659 0 1.739.881 2.66 2.109 2.66.906 0 1.631-.499 1.805-1.387l1.383.007c-.211 1.446-1.405 2.612-3.207 2.612-1.997 0-3.469-1.447-3.469-3.892 0-2.448 1.49-3.891 3.469-3.891 1.68 0 2.974.977 3.207 2.66Zm3.676 5.13c-1.665 0-2.722-1.173-2.722-2.93 0-1.76 1.057-2.936 2.722-2.936 1.664 0 2.722 1.176 2.722 2.936 0 1.757-1.058 2.93-2.722 2.93Zm.007-1.073c.907 0 1.358-.821 1.358-1.86 0-1.04-.451-1.872-1.358-1.872-.921 0-1.372.832-1.372 1.872 0 1.039.451 1.86 1.372 1.86Zm3.852.962v-5.681h1.28v.965h.066c.237-.647.806-1.039 1.568-1.039.766 0 1.317.395 1.535 1.039h.06c.251-.633.88-1.039 1.705-1.039 1.043 0 1.775.673 1.775 1.941V180h-1.342v-3.606c0-.703-.43-1.021-.97-1.021-.647 0-1.028.444-1.028 1.084V180h-1.313v-3.662c0-.584-.388-.965-.954-.965-.577 0-1.043.473-1.043 1.172V180h-1.339Zm11.863.111c-1.713 0-2.759-1.136-2.759-2.918 0-1.754 1.061-2.948 2.689-2.948 1.398 0 2.596.876 2.596 2.87v.41h-3.958c.011.973.585 1.543 1.45 1.543.577 0 1.021-.252 1.202-.732l1.251.14c-.237.988-1.147 1.635-2.471 1.635Zm-1.428-3.488h2.671c-.008-.773-.526-1.335-1.295-1.335-.799 0-1.335.61-1.376 1.335Zm6.426.048V180h-1.339v-5.681h1.28v.965h.066c.259-.633.844-1.039 1.694-1.039 1.173 0 1.95.776 1.946 2.138V180h-1.339v-3.41c0-.759-.414-1.214-1.106-1.214-.706 0-1.202.474-1.202 1.295Zm4.934 3.329v-.851l2.93-3.673v-.048h-2.834v-1.109h4.472v.913l-2.789 3.61v.048h2.885V180h-4.664Zm7.558.115c-1.084 0-1.901-.592-1.901-1.709 0-1.28 1.054-1.609 2.156-1.728 1.002-.107 1.406-.125 1.406-.51v-.022c0-.559-.341-.877-.962-.877-.655 0-1.032.333-1.165.721l-1.25-.177c.295-1.036 1.213-1.568 2.407-1.568 1.084 0 2.309.451 2.309 1.953V180h-1.288v-.78h-.044c-.244.477-.777.895-1.668.895Zm.348-.984c.806 0 1.316-.537 1.316-1.169v-.67c-.174.141-.876.23-1.228.278-.599.085-1.046.299-1.046.814 0 .492.399.747.958.747Zm3.998.869v-5.681h1.298v.946h.059c.208-.658.751-1.028 1.402-1.028.148 0 .359.015.481.037v1.232a2.559 2.559 0 0 0-.621-.078c-.736 0-1.28.511-1.28 1.232V180h-1.339ZM258.516 172.425V180h-1.372v-7.575h1.372Zm2.766 4.246V180h-1.339v-5.681h1.28v.965h.066c.259-.633.844-1.039 1.694-1.039 1.173 0 1.95.776 1.946 2.138V180h-1.339v-3.41c0-.759-.414-1.214-1.106-1.214-.706 0-1.202.474-1.202 1.295Zm7.479 5.578c-1.446 0-2.264-.64-2.508-1.435l1.206-.292c.163.332.518.713 1.324.713.762 0 1.317-.344 1.317-1.18v-1.076h-.067c-.207.418-.662.94-1.634.94-1.31 0-2.342-.925-2.342-2.778 0-1.868 1.032-2.896 2.345-2.896 1.003 0 1.428.603 1.631 1.013h.074v-.939h1.321v5.773c0 1.454-1.132 2.157-2.667 2.157Zm.011-3.381c.855 0 1.335-.651 1.335-1.735 0-1.076-.473-1.79-1.335-1.79-.891 0-1.35.758-1.35 1.79 0 1.047.466 1.735 1.35 1.735ZM272.8 180v-5.681h1.298v.946h.06c.207-.658.751-1.028 1.402-1.028.147 0 .358.015.48.037v1.232a2.545 2.545 0 0 0-.621-.078c-.736 0-1.28.511-1.28 1.232V180H272.8Zm6.411.111c-1.712 0-2.759-1.136-2.759-2.918 0-1.754 1.061-2.948 2.689-2.948 1.398 0 2.597.876 2.597 2.87v.41h-3.958c.011.973.584 1.543 1.45 1.543.577 0 1.021-.252 1.202-.732l1.25.14c-.237.988-1.147 1.635-2.471 1.635Zm-1.428-3.488h2.671c-.007-.773-.525-1.335-1.295-1.335-.799 0-1.335.61-1.376 1.335Zm9.578-.803-1.221.133c-.103-.373-.429-.71-1.047-.71-.558 0-.984.267-.98.651-.004.329.226.529.803.659l.969.207c1.073.233 1.594.728 1.598 1.539-.004 1.076-1.006 1.812-2.427 1.812-1.394 0-2.271-.618-2.437-1.661l1.305-.126c.115.511.515.777 1.129.777.636 0 1.057-.292 1.057-.68 0-.322-.244-.533-.765-.648l-.969-.203c-1.091-.226-1.602-.773-1.598-1.602-.004-1.05.928-1.723 2.297-1.723 1.331 0 2.101.614 2.286 1.575Zm2.861 4.295c-1.084 0-1.901-.592-1.901-1.709 0-1.28 1.054-1.609 2.156-1.728 1.002-.107 1.406-.125 1.406-.51v-.022c0-.559-.341-.877-.962-.877-.655 0-1.032.333-1.165.721l-1.251-.177c.296-1.036 1.214-1.568 2.408-1.568 1.084 0 2.309.451 2.309 1.953V180h-1.288v-.78h-.044c-.244.477-.777.895-1.668.895Zm.347-.984c.807 0 1.317-.537 1.317-1.169v-.67c-.174.141-.876.23-1.228.278-.599.085-1.047.299-1.047.814 0 .492.4.747.958.747Zm3.999.869v-5.681h1.298v.946h.059c.207-.658.751-1.028 1.402-1.028.148 0 .359.015.481.037v1.232a2.559 2.559 0 0 0-.621-.078c-.736 0-1.28.511-1.28 1.232V180h-1.339Zm6.713 0v-5.681h1.339V180h-1.339Zm.673-6.488c-.429 0-.776-.325-.776-.725 0-.403.347-.728.776-.728.426 0 .774.325.774.728 0 .4-.348.725-.774.725Zm3.382 3.159V180h-1.339v-5.681h1.28v.965h.067c.258-.633.843-1.039 1.694-1.039 1.172 0 1.949.776 1.945 2.138V180h-1.339v-3.41c0-.759-.414-1.214-1.106-1.214-.706 0-1.202.474-1.202 1.295Zm7.886-2.352v1.035h-1.18V180h-1.339v-4.646h-.839v-1.035h.839v-.537c0-1.146.788-1.712 1.776-1.712.462 0 .843.096 1.017.155l-.27 1.036a1.698 1.698 0 0 0-.5-.082c-.499 0-.684.248-.684.692v.448h1.18Zm3.313 5.792c-1.664 0-2.722-1.173-2.722-2.93 0-1.76 1.058-2.936 2.722-2.936 1.665 0 2.723 1.176 2.723 2.936 0 1.757-1.058 2.93-2.723 2.93Zm.008-1.073c.906 0 1.357-.821 1.357-1.86 0-1.04-.451-1.872-1.357-1.872-.921 0-1.373.832-1.373 1.872 0 1.039.452 1.86 1.373 1.86ZM375.519 180v-7.575h4.927v1.15h-3.554v2.057h3.299v1.15h-3.299v2.068h3.584V180h-4.957Zm7.607-3.329V180h-1.339v-5.681h1.28v.965h.067c.258-.633.843-1.039 1.694-1.039 1.172 0 1.949.776 1.945 2.138V180h-1.339v-3.41c0-.759-.414-1.214-1.106-1.214-.706 0-1.202.474-1.202 1.295Zm7.487 3.44c-1.698 0-2.723-1.21-2.723-2.93 0-1.734 1.051-2.936 2.715-2.936 1.387 0 2.349.81 2.441 2.041h-1.279c-.104-.547-.5-.961-1.143-.961-.825 0-1.376.688-1.376 1.834 0 1.162.54 1.861 1.376 1.861.588 0 1.028-.352 1.143-.962h1.279c-.096 1.206-1.006 2.053-2.433 2.053Zm6.011 0c-1.664 0-2.722-1.173-2.722-2.93 0-1.76 1.058-2.936 2.722-2.936 1.665 0 2.722 1.176 2.722 2.936 0 1.757-1.057 2.93-2.722 2.93Zm.008-1.073c.906 0 1.357-.821 1.357-1.86 0-1.04-.451-1.872-1.357-1.872-.921 0-1.373.832-1.373 1.872 0 1.039.452 1.86 1.373 1.86Zm5.19-2.367V180h-1.339v-5.681h1.28v.965h.066c.259-.633.844-1.039 1.694-1.039 1.173 0 1.95.776 1.946 2.138V180h-1.339v-3.41c0-.759-.414-1.214-1.106-1.214-.706 0-1.202.474-1.202 1.295Zm7.845-2.352v1.035h-1.121v2.937c0 .54.27.659.607.659.167 0 .318-.034.392-.052l.226 1.047a2.691 2.691 0 0 1-.788.133c-1.006.029-1.783-.496-1.776-1.565v-3.159h-.806v-1.035h.806v-1.362h1.339v1.362h1.121Zm1.12 5.681v-5.681h1.298v.946h.059c.208-.658.751-1.028 1.402-1.028.148 0 .359.015.481.037v1.232a2.552 2.552 0 0 0-.621-.078c-.736 0-1.28.511-1.28 1.232V180h-1.339Zm5.653.115c-1.084 0-1.901-.592-1.901-1.709 0-1.28 1.054-1.609 2.156-1.728 1.002-.107 1.406-.125 1.406-.51v-.022c0-.559-.341-.877-.962-.877-.655 0-1.032.333-1.165.721l-1.25-.177c.295-1.036 1.213-1.568 2.407-1.568 1.084 0 2.309.451 2.309 1.953V180h-1.288v-.78h-.044c-.244.477-.777.895-1.668.895Zm.347-.984c.807 0 1.317-.537 1.317-1.169v-.67c-.174.141-.876.23-1.228.278-.599.085-1.047.299-1.047.814 0 .492.4.747.958.747Zm3.999.869v-5.681h1.298v.946h.059c.208-.658.751-1.028 1.402-1.028.148 0 .359.015.481.037v1.232a2.559 2.559 0 0 0-.621-.078c-.736 0-1.28.511-1.28 1.232V180h-1.339Zm-51.334 14.111c-1.713 0-2.76-1.136-2.76-2.918 0-1.754 1.062-2.948 2.689-2.948 1.398 0 2.597.876 2.597 2.87v.41h-3.958c.011.973.584 1.543 1.45 1.543.577 0 1.021-.252 1.202-.732l1.25.14c-.236.988-1.146 1.635-2.47 1.635Zm-1.428-3.488h2.67c-.007-.773-.525-1.335-1.294-1.335-.799 0-1.336.61-1.376 1.335Zm6.07-2.304 1.146 2.097 1.165-2.097h1.417l-1.713 2.84 1.743 2.841h-1.41l-1.202-2.045-1.191 2.045h-1.42l1.731-2.841-1.687-2.84h1.421Zm4.764 7.812v-7.812h1.316v.939h.078c.204-.41.622-1.013 1.624-1.013 1.313 0 2.345 1.028 2.345 2.922 0 1.871-1.002 2.933-2.341 2.933-.977 0-1.417-.581-1.628-.995h-.055v3.026h-1.339Zm1.313-4.972c0 1.103.481 1.842 1.335 1.842.884 0 1.35-.776 1.35-1.842 0-1.058-.459-1.816-1.35-1.816-.862 0-1.335.714-1.335 1.816Zm7.675 2.952c-1.665 0-2.722-1.173-2.722-2.93 0-1.76 1.057-2.936 2.722-2.936 1.664 0 2.722 1.176 2.722 2.936 0 1.757-1.058 2.93-2.722 2.93Zm.007-1.073c.906 0 1.358-.821 1.358-1.86 0-1.04-.452-1.872-1.358-1.872-.921 0-1.372.832-1.372 1.872 0 1.039.451 1.86 1.372 1.86Zm8.342-3.218-1.221.133c-.103-.373-.429-.71-1.046-.71-.559 0-.984.267-.98.651-.004.329.225.529.802.659l.969.207c1.073.233 1.594.728 1.598 1.539-.004 1.076-1.006 1.812-2.426 1.812-1.395 0-2.271-.618-2.438-1.661l1.306-.126c.115.511.514.777 1.128.777.636 0 1.058-.292 1.058-.68 0-.322-.244-.533-.766-.648l-.969-.203c-1.091-.226-1.601-.773-1.598-1.602-.003-1.05.929-1.723 2.297-1.723 1.332 0 2.101.614 2.286 1.575Zm1.226 4.18v-5.681h1.339V194h-1.339Zm.673-6.488c-.429 0-.776-.325-.776-.725 0-.403.347-.728.776-.728.426 0 .773.325.773.728 0 .4-.347.725-.773.725Zm4.521 6.599c-1.697 0-2.722-1.21-2.722-2.93 0-1.734 1.05-2.936 2.715-2.936 1.387 0 2.349.81 2.441 2.041h-1.28c-.103-.547-.499-.961-1.143-.961-.824 0-1.376.688-1.376 1.834 0 1.162.541 1.861 1.376 1.861.589 0 1.029-.352 1.143-.962h1.28c-.096 1.206-1.006 2.053-2.434 2.053Zm3.534-.111v-5.681h1.339V194h-1.339Zm.673-6.488c-.429 0-.777-.325-.777-.725 0-.403.348-.728.777-.728.425 0 .773.325.773.728 0 .4-.348.725-.773.725Zm4.521 6.599c-1.665 0-2.723-1.173-2.723-2.93 0-1.76 1.058-2.936 2.723-2.936 1.664 0 2.722 1.176 2.722 2.936 0 1.757-1.058 2.93-2.722 2.93Zm.007-1.073c.906 0 1.358-.821 1.358-1.86 0-1.04-.452-1.872-1.358-1.872-.921 0-1.372.832-1.372 1.872 0 1.039.451 1.86 1.372 1.86Zm5.191-2.367V194h-1.339v-5.681h1.279v.965h.067c.259-.633.843-1.039 1.694-1.039 1.173 0 1.949.776 1.946 2.138V194h-1.339v-3.41c0-.759-.415-1.214-1.106-1.214-.707 0-1.202.474-1.202 1.295Zm7.523 3.44c-1.713 0-2.759-1.136-2.759-2.918 0-1.754 1.061-2.948 2.689-2.948 1.398 0 2.596.876 2.596 2.87v.41h-3.957c.011.973.584 1.543 1.45 1.543.577 0 1.02-.252 1.202-.732l1.25.14c-.237.988-1.147 1.635-2.471 1.635Zm-1.428-3.488h2.671c-.008-.773-.525-1.335-1.295-1.335-.799 0-1.335.61-1.376 1.335Zm9.577-.803-1.22.133c-.104-.373-.429-.71-1.047-.71-.558 0-.984.267-.98.651-.004.329.226.529.803.659l.969.207c1.072.233 1.594.728 1.598 1.539-.004 1.076-1.007 1.812-2.427 1.812-1.394 0-2.271-.618-2.437-1.661l1.305-.126c.115.511.514.777 1.128.777.637 0 1.058-.292 1.058-.68 0-.322-.244-.533-.765-.648l-.969-.203c-1.092-.226-1.602-.773-1.598-1.602-.004-1.05.928-1.723 2.297-1.723 1.331 0 2.101.614 2.285 1.575Z"/></g></g><defs><radialGradient id="c" cx="0" cy="0" r="1" gradientTransform="matrix(-91.00646 44.78467 -35.48405 -72.10675 179.224 295.895)" gradientUnits="userSpaceOnUse"><stop stop-color="#9D62FC"/><stop offset="1" stop-color="#FD3296"/></radialGradient><clipPath id="b"><rect width="507.821" height="358.053" x="46" y="46" fill="#fff" rx="5.951"/></clipPath><filter id="a" width="531.625" height="381.858" x="34.098" y="38.065" color-interpolation-filters="sRGB" filterUnits="userSpaceOnUse"><feFlood flood-opacity="0" result="BackgroundImageFix"/><feColorMatrix in="SourceAlpha" result="hardAlpha" values="0 0 0 0 0 0 0 0 0 0 0 0 0 0 0 0 0 0 127 0"/><feOffset dy="3.967"/><feGaussianBlur stdDeviation="5.951"/><feComposite in2="hardAlpha" operator="out"/><feColorMatrix values="0 0 0 0 0 0 0 0 0 0 0 0 0 0 0 0 0 0 0.08 0"/><feBlend in2="BackgroundImageFix" result="effect1_dropShadow_1092_11341"/><feBlend in="SourceGraphic" in2="effect1_dropShadow_1092_11341" result="shape"/></filter></defs></svg>
