<svg width="641" height="559" viewBox="0 0 641 559" xmlns="http://www.w3.org/2000/svg"><path d="M581.104 322.764c-53.245 29.7-120.474 11.732-151.84-40.4l-1.91-2.996c-30.111-49.898-94.717-66.668-145.501-37.35-50.784 29.318-68.7 93.498-40.231 144.268l1.745 3.269c29.833 53.44 11.2 121.27-42.43 152.222-54.066 31.062-123.263 12.659-154.353-41.162C-45.323 341.82 9.536 138.822 168.89 47.27 328.575-44.824 532.395 9.242 624.302 168.036c30.981 53.385 13.06 121.269-39.915 152.984l-1.642.872-1.641.872z" stroke="#FFF" stroke-width="3" fill="none" fill-rule="evenodd"/></svg>