<svg width="641" height="253" viewBox="0 0 641 253" fill="none" xmlns="http://www.w3.org/2000/svg"><path d="M591.427 278.552c-110.706-15.27-128.644 28.327-132.381 39.066-3.813 4.947 55.606 16.865 83.977 17.8 28.371.935 66.175-7.277 78.698-9.844-5.017-8.808-1.598-43.064-30.294-47.022z" fill="#DB6900"/><path d="M627.457 317.863c-1.976-28.79-26.157-129.027-40.239-178.331-7.173-25.61-26.395 7.275-33.88 25.516l.839 116.783 10.724 53.175c19.011 2.752 64.532 11.646 62.556-17.143z" fill="#FFFBE3"/><path d="M79.65 199.983s-12.12-39.042-13.937-56.757c0 0 8.813-24.921-8.246-26.974-17.059-2.054-41.415 17.158-37.62 45.138 3.794 27.98 11.847 118.033 13.487 128.943 1.64 10.911 14.334 20.74 30.762 12.134 19.036-9.975 15.197-67.414 15.197-67.414l.356-35.07z" fill="#DB6900"/><path d="M82.837 216.887s-9.16 1.1-20.367 6.958c-11.2 5.852-37.648 15.984-37.648 15.984s-.182-1.286-.447-3.279c-.604-4.396-1.64-12.24-2.138-17.4a.179.179 0 01-.006-.058l-.287-4.302-2.537-38.102s7.4-6.526 24.163-11.129c16.757-4.608 31.06-1.811 31.06-1.811s7.915 36.555 7.313 37.139c.76 6.823.894 16 .894 16z" fill="#FF2350"/><path d="M24.375 236.551c-.601.441-.934.697-.934.697l-1.204-18.097c.499 5.16 1.534 13.004 2.138 17.4z" fill="#FF2350"/><path d="M19.407 176.688s7.406-6.526 24.163-11.128c16.757-4.603 31.06-1.805 31.06-1.805" stroke="#000" stroke-width="6.892" stroke-miterlimit="10" stroke-linecap="round" stroke-linejoin="round"/><path d="M22.23 219.092c-.187-1.921-.302-3.459-.286-4.302l.287 4.302z" fill="#FF2350"/><path d="M80.16 193.78s-15.395 3.903-33.002 10.41c-11.494 4.247-25.171 10.087-25.171 10.087" stroke="#000" stroke-width="6.892" stroke-miterlimit="10" stroke-linecap="round" stroke-linejoin="round"/><path d="M8.877 132.578S.63 164.274 4.634 234.294c2.268 39.662 17.786 75.99 17.786 75.99l12.562-9.048s-10.432-65.3-11.334-111.874c-.901-46.573 2.268-56.618 2.268-56.618s-15.218-16.009-17.04-.166z" fill="#000" stroke="#000" stroke-width="6.892" stroke-miterlimit="10" stroke-linecap="round" stroke-linejoin="round"/><path d="M434.273 215.315s-47.468-63.569-61.459-81.738c-13.99-18.169-49.268-24.259-99.969 12.096-50.701 36.355-150.18 115.635-150.18 115.635l128.77 45.025s78.576-106.408 81.928-103.774c3.352 2.635 60.314 111.496 60.314 111.496l40.596-98.74z" fill="#00CF6E"/><path d="M526.949 290.632s-4.213 62.402-70.55 60.088c-66.338-2.315-319.755-10.621-347.316-23.189-27.56-12.568-47.868-29.984-44.08-79.92 3.789-49.937 23.968-44.817 23.968-44.817s32.724 29 64.632 33.014c31.914 4.013 280.38 8.178 280.38 8.178l92.966 46.646z" fill="#00CF6E"/><path d="M88.965 202.794s32.724 29 64.632 33.014c31.914 4.013 280.38 8.178 280.38 8.178M343.43 179.979s-28.434 52.968-47.439 70.795" stroke="#000" stroke-width="6.892" stroke-miterlimit="10" stroke-linecap="round" stroke-linejoin="round"/><path d="M297.544 272.091s-27.187 31.679-69.594 38.621c-42.407 6.942-50.411-11.983-37.168-24.953 13.243-12.977 32.919-14.411 32.919-14.411s-39.229 6.157-52.308-4.63c-13.08-10.786 1.839-27.838 28.892-29.204 0 0-19.673-.641-20.257-22.324-.592-22.124 16.693-20.01 50.99-13.67 34.296 6.34 74.475 16.987 74.475 16.987l-7.949 53.584zM571.825 95.602c18.968.193 34.501-15.027 34.693-33.995.193-18.968-15.027-34.5-33.995-34.693-18.968-.193-34.5 15.027-34.693 33.995-.193 18.968 15.027 34.5 33.995 34.693z" fill="#EC6000"/><path d="M599.478 25.767s1.368-2.553 10.663-6.59l4.049 15.04-14.712-8.45z" fill="#B10132"/><path d="M570.397 32.578s-21.693 4.111-27.939-7.786C536.211 12.9 554.252-1.914 563.39 11.899c0 0 9.426-8.73 19.585-5.273 10.152 3.455 10.392 10.474 7.476 16.585 0 0 13.812-6.344 23.833 2.304 10.022 8.648 10.187 17.222 10.187 17.222s10.822-3.787 14.521 8.136c3.698 11.924-4.902 13.36-11.014 11.775 0 0 10.903-.85 9.508 11.294-1.394 12.138-13.294 12.867-20.906 10.241-7.618-2.626-38.059-15.1-38.059-15.1s-13.257 2.862-13.135-9.107c.083-8.17 9.058-7.644 9.058-7.644s-8.955-2.517-8.889-9.007c.058-5.705 4.842-10.747 4.842-10.747z" fill="#000"/><path d="M591.949 115.721c14.982.152 27.251-11.87 27.403-26.853.152-14.982-11.87-27.25-26.852-27.403-14.982-.152-27.251 11.87-27.403 26.852-.153 14.983 11.869 27.252 26.852 27.404z" fill="#FF2350"/><path d="M592.085 102.493c7.677.078 13.964-6.083 14.042-13.76.078-7.678-6.082-13.965-13.76-14.043-7.677-.078-13.964 6.083-14.042 13.76-.078 7.678 6.083 13.965 13.76 14.043z" fill="#000"/><path d="M610.541 19.22c.656.61-9.945 40.641-17.3 47.9l16.369 8.038s11.401-17.346 14.848-31.214c3.455-13.867 3.879-16.658 3.879-16.658l-17.796-8.065z" fill="#FF2350"/><path d="M412.49 281.511c-23.893 6.125-112.42 17.164-112.42 17.164s-18.253-5.756-18.393-39.184c-.141-33.429 11.232-42.858 11.232-42.858l109.26 5.882C468.948 99.05 533.656 99.707 564.816 115.437c31.16 15.73 29.175 41.919 17.548 87.957-11.627 46.038-55.42 87.236-55.42 87.236s-36.137 7.589-62.62 2.548c-26.483-5.042-41.712-14.891-41.712-14.891s-5.656 2.083-10.122 3.224z" fill="#FFFBE0"/><path d="M292.914 216.634l109.261 5.883M549.192 138.067c.147 28.228-18.121 60.296-40.204 85.542-22.083 25.24-72.606 51.786-96.499 57.911-23.892 6.125-112.419 17.164-112.419 17.164M250.253 228.19s-49.944 5.212-74.627 16.439M251.957 255.184s-47.928 16.781-61.173 30.575" stroke="#000" stroke-width="6.892" stroke-miterlimit="10" stroke-linecap="round" stroke-linejoin="round"/><path d="M19.523 125.637c-3.137 10.706-7.198 30.027-6.544 56.944.846 34.836 10.9 96.981 17.7 124.181" stroke="#00CF6E" stroke-width="8.958" stroke-miterlimit="10" stroke-linecap="round" stroke-linejoin="round"/><path d="M553.212 43.96a2.214 2.214 0 10.046-4.429 2.214 2.214 0 00-.046 4.429z" fill="#000"/><path d="M575.484 161.995c.982-1.008 2.679-.174 2.471 1.218-1.413 9.447-5.69 32.793-16.052 55.208l-13.406 28.998 10.184 1.562-13.303 18.806-24.672-8.991 8.962-21.762 9.023 2.193s19.481-44.214 21.242-47.082l-9.763-4.139 25.314-26.011z" fill="#00B3A9"/><path d="M537.828 60.91s4.768 4.84 16.165 1.96" stroke="#000" stroke-width="6.892" stroke-miterlimit="10" stroke-linecap="round" stroke-linejoin="round"/><path d="M591.751 179.195c-4.731 28.598-24.756 68.498-37.165 81.928" stroke="#000" stroke-width="7.418" stroke-linecap="round" stroke-linejoin="round"/></svg>
