<svg width="191" height="230" viewBox="0 0 191 230" fill="none" xmlns="http://www.w3.org/2000/svg"><g clip-path="url(#clip0)"><path d="M151.376 195.644s2.86 6.724 9.536 12.715c6.675 5.99 13.079 11.491 20.162 9.046 7.083-2.446-.638-14.931-2.86-19.439-2.553-5.173-5.451-14.058-9.401-17.482-3.951-3.423-5.939-3.484-5.939-3.484l-12.724 5.562-3.15 8.366 4.376 4.716z" fill="#82ECB7"/><path d="M59.975 74.895c3.973-8.885 14.028-16.365 25.95-20.573 11.923-4.208 24.081-1.402 24.081-1.402l21.171 2.469s16.236 1.038 27.927 17.87c11.691 16.831 16.835 35.537 14.028 49.565-2.806 14.028-11.691 26.651-27.587 29.927-15.899 3.272-25.771 2.926-31.855 2.926l-59.574-32.461-23.25-24.698 3.412-7.507h11.594c4.092 0 12.276-2.614 12.276-2.614l1.824-13.502h.003z" fill="#FFE55E"/><path d="M129.984 52.448c2.571-1.693 4.494-5.269 4.494-5.269l-.415 6.34c3.741-.647 8.21-6.028 8.21-6.028l-.936 5.924c6.545-.832 9.56-6.937 9.56-6.937-.103 3.453-1.559 10.679-1.559 10.679 4.157-.52 6.857-9.457 6.857-9.457l1.559 7.692s2.494-6.548 3.221-11.823c.726-5.272-3.118-23.614-7.689-29.33C148.715 8.525 138.737 1.563 130.53.627c-8.21-.935-17.873 1.768-17.873 1.768-9.769 1.56-16.834 14.237-17.664 21.303-.83 7.065 1.039 16.105 4.157 20.367 3.118 4.262 10.286 3.324 10.286 3.324l12.73 1.656 5.764.867 2.054 2.537z" fill="#000"/><path d="M46.741 79.389c.284-.235.701-.864.922-2.54.351-2.683-3.43-3.9-5.613-1.951-2.182 1.948-3.118 3.902-3.118 3.902l4.022 2.972 3.787-2.383zM151.449 64.709l-.003.002c-4.694 2.515-15.409 3.874-30.061 1.537-14.652-2.34-22.135-14.229-22.135-14.229v-.003c6.233-.14 10.756.904 10.756.904.323-1.201.2-6.573.091-9.777-5.484-3.739-7.995-9.755-8.273-13.37-.469-6.08 1.11-19.22 10.052-22.91 7.246-2.993 10.602-2.34 10.602-2.34a10.533 10.533 0 016.925 2.331l.009.008s12.626 3.508 13.561 15.665c.856 11.165-.454 19.569-13.53 22.858.077 2.286.34 7.183 1.196 9.964l.538.04s10.215.652 20.272 9.32z" fill="#FBB54B"/><path d="M76.497 100.537s-5.612 1.871-12.47 2.337c-6.859.469-11.378-1.871-11.378-1.871-.487-1.936-.801-4.282-.993-6.722-1.565.67-3.481 1.422-4.852 1.736-2.093.478-4.768.223-5.904.078l1.71-3.696c.642.097 1.86.168 3.803-.123 1.324-.2 3.367-1.107 5.02-1.96-.06-1.78-.075-3.515-.063-5.086-2.183-1.007-5.332-2.145-8.384-2.306-5.925-.311-7.326.624-7.326.624l-6.39-1.404S32.386 78.8 41.58 78.96a29.304 29.304 0 019.878 1.93c.051-1.478.105-2.368.1-2.33 0 0 4.648-3.885 14.337-3.948 13.873-.092 12.938 3.17 12.938 3.17.778 11.064-2.337 22.755-2.337 22.755z" fill="#F35"/><path d="M51.559 78.56s6.61 1.401 13.593 1.247c6.98-.155 13.682-2.026 13.682-2.026" stroke="#000" stroke-width="1.5" stroke-miterlimit="10" stroke-linecap="round" stroke-linejoin="round"/><path d="M38.309 98.52c-5.1 4.563-8.325 4.823-10.396 2.795-.812-.792-.804-1.85-.269-2.795.27-.475.959-.72-.125-.352-1.903.65-3.367.492-4.326-1.215-1.404-2.495 1.871-4.829 1.871-4.829-2.205.237-3.701-.55-4.52-2.185-2.651-5.301 2.804-6.391 6.234-7.08 3.43-.687 8.26-1.34 8.885.689.426 1.379.706 2.397-.933 3.893.097-.046 1.588-.732 2.492.627.443.663.569 1.736.088 2.966l.306-.08s2.254-.698 3.813 0c1.556.698 1.98 3-3.12 7.566z" fill="#FBB54B"/><path d="M19.017 113.967s.744-9.274.278-11.782c-.467-2.509-.701-2.274 2.337-1.339 3.037.935 30.628 5.612 38.343 6.079 7.714.466 10.051.866 12.391 1.367 2.338.503 2.987.709 3.508 4.477a792.33 792.33 0 001.244 8.438l-58.1-7.24z" fill="#1CAFA1"/><path d="M14.93 160.197s-6.703 2.059-11.535 3.307c-4.831 1.247-3.584.935-1.87-1.402 1.713-2.337 9.663-18.705 11.573-27.524 1.911-8.819.272-20.951.115-23.134-.157-2.182-.624-1.87 2.649-1.401 3.272.466 14.963 1.401 19.795 1.87 4.831.467 23.067 2.961 32.264 3.897 9.197.935 11.534 1.559 11.534 1.559l4.717 3.841.818 31.567-70.06 7.42z" fill="#82ECB7"/><path d="M150.843 184.391L165.4 177.3c.452-.936 9.366-10.756 7.729-21.623-1.636-10.867-7.729-15.278-7.729-15.278l-84.54 11.104s-15.276-7.014-34.058-5.612c-18.783 1.402-31.095 8.104-33.746 19.638-2.65 11.533 9.974 21.354 23.848 26.809 13.874 5.455 61.41 19.171 87.284 16.522C150.062 206.212 157.5 205 157.5 205l-2.5-3c-2.849-5.881-5.453-11.204-4.157-17.609z" fill="#50BBB5"/><path d="M125.064 155.677c-.401 3.393-.873 3.776-4.614 4.4-3.742.623-31.776-1.325-35.46-1.559-4.909-.312-3.661-3.118-4.13-7.015-.467-3.896-1.871-38.966-1.248-43.208 0 0-.311-2.46 2.65-3.862 2.96-1.402 6.235-1.436 10.597-1.496 4.363-.06 31.484-.998 33.978-.687 2.495.312 4.005.404 5.593.964.786.278-.544 6.159-1.291 12.295-.758 6.239-1.73 12.458-1.73 12.458l-.338 3.35-4.007 24.36z" fill="#000"/><path d="M137.816 135.007c-1.37-1.688-2.612-3.45-2.869-4.546-.624-2.649.154-5.3 0-9.351-.123-3.175-2.763-3.192-3.902-3.052l-2.26 13.224c-4.213-.054-13.164-.131-15.661.038-3.43.234-8.565-.095-8.573 2.728-.012 3.897 5.455 3.897 5.455 3.897v.005c-1.522.178-2.912.429-4.054.773-6.702 2.025-4.365 6.078-2.337 6.856 2.026.778 6.156 1.325 6.156 1.325-8.65 1.636-5.22 8.77 3.916 8.77 6.085 0 15.956.346 31.855-2.926 8.642-1.779 15.213-6.322 19.858-12.352l-.16-.847c-.998-5.3-2.591-8.338-7.148-13.241l-1.717.572s-12.772 3.619-18.276 8.473l-.283-.346z" fill="#FBB54B"/><path d="M169 215s2.41-3.739 5.047-5.877C176.683 206.984 182 205 182 205" stroke="#1CAFA1" stroke-width="3.923" stroke-miterlimit="10"/><path d="M129.412 46.138s.128 8.416 2.234 11.456M110.008 52.917c.467-1.739 0-9.35 0-9.35" stroke="#000" stroke-width="1.5" stroke-miterlimit="10" stroke-linecap="round" stroke-linejoin="round"/><path d="M129.412 6.86s12.623 3.507 13.559 15.664c.935 12.157-.701 21.042-17.301 23.614-16.6 2.572-23.379-10.287-23.849-16.365-.466-6.079 1.11-19.22 10.052-22.913 7.246-2.993 10.602-2.337 10.602-2.337l.889-.012a8.643 8.643 0 016.048 2.349z" stroke="#000" stroke-width="1.5" stroke-miterlimit="10" stroke-linecap="round" stroke-linejoin="round"/><path d="M109.436 47.385s-7.168.935-10.286-3.324c-3.118-4.26-4.99-13.302-4.157-20.367.833-7.066 7.898-19.744 17.664-21.303 0 0 9.663-2.7 17.873-1.767 8.21.935 18.185 7.898 22.756 13.613 4.571 5.715 8.415 24.054 7.689 29.33-.727 5.271-3.221 11.822-3.221 11.822l-1.559-7.692s-2.7 8.936-6.857 9.457c0 0 1.456-7.226 1.559-10.679 0 0-3.012 6.108-9.56 6.937l.936-5.924s-4.469 5.38-8.21 6.027l.415-6.339s-1.923 3.579-4.494 5.27" stroke="#000" stroke-width="1.5" stroke-miterlimit="10" stroke-linecap="round" stroke-linejoin="round"/><path d="M125.985 38.423s.154-1.482 1.401-1.794c1.247-.311 3.041 1.56 2.026 3.35-1.013 1.794-1.923 3.43-5.092 2.494-3.17-.935-2.312-3.246-1.299-3.947 1.013-.701 2.964-.103 2.964-.103z" fill="#F35"/><path d="M117.955 21.588s1.402 6.546 2.572 9.586c1.17 3.041 2.571 3.507 4.207 1.402l1.637-2.105M124.32 21.588s-.052 2.106 2.051 2.106c3.041 0 3.041-2.105 3.041-2.105M109.227 24.63s.389 2.025 2.26 2.337c1.871.311 3.43-1.794 3.662-2.73M115.152 40.371s5.844.701 10.598-.778c4.754-1.482 6.702-4.365 6.702-4.365M90.68 87.441s-2.96 3.585-1.09 6.079c1.87 2.494 9.949-.752 9.949-.752M153.263 123.962s10.395.752 11.597 16.654" stroke="#000" stroke-width="1.5" stroke-miterlimit="10" stroke-linecap="round" stroke-linejoin="round"/><path d="M125.064 155.677c-.401 3.393-.873 3.776-4.614 4.4-3.742.623-31.776-1.325-35.46-1.559-4.909-.312-3.661-3.118-4.13-7.015-.467-3.896-1.871-38.966-1.248-43.208 0 0-.311-2.46 2.65-3.862 2.96-1.402 6.235-1.436 10.597-1.496 4.363-.06 31.484-.998 33.978-.687 2.495.312 4.005.404 5.593.964.786.278-.544 6.159-1.291 12.295-.758 6.239-1.73 12.458-1.73 12.458l-.338 3.35" stroke="#000" stroke-width=".785" stroke-miterlimit="10" stroke-linecap="round" stroke-linejoin="round"/><path d="M62.623 172.546s19.95-2.495 40.526 0c20.576 2.494 43.486 7.792 47.694 11.845M26.775 82.859c3.43-.687 8.261-1.34 8.885.689M30.983 89.936c5.612-3.118 5.3-4.366 4.677-6.39" stroke="#000" stroke-width="1.5" stroke-miterlimit="10" stroke-linecap="round" stroke-linejoin="round"/><path d="M34.722 87.441s1.561-.778 2.497.624c.935 1.401.466 4.642-4.208 7.309" stroke="#000" stroke-width="1.5" stroke-miterlimit="10" stroke-linecap="round" stroke-linejoin="round"/><path d="M37.614 90.954s2.254-.698 3.813 0c1.559.698 1.982 3.001-3.118 7.567" stroke="#000" stroke-width="1.5" stroke-miterlimit="10" stroke-linecap="round" stroke-linejoin="round"/><path d="M105.257 119.754c.867.143 1.997-3.49 4.751-4.602 2.755-1.113 3.482-.209 2.649 2.3-.832 2.508-4.571 6.456-5.924 7.809-1.353 1.353-2.183 2.182-4.156 0-1.974-2.183-4.366-5.924-4.99-8.001-.623-2.077.833-4.631 2.91-2.108s3.49 4.396 4.76 4.602z" fill="#F35"/><path d="M102.508 37.344S100.22 13.942 128.725 7.6c0 0 2.615-4.099-3.029-4.888-5.647-.787-19.552 1.736-19.781 2.923-.458 2.377-9.148 17.753-9.148 17.753l5.741 13.956z" fill="#000"/><path class="drink-stroke" d="M47.35 22.47c-2.804 3.637-6.73 12.094 0 16.822 8.411 5.911 0 12.276 0 16.823 0 4.547 5.683 6.025 7.73 10.458M60.194 30.313c-2.046.871-5.297 3.66-1.932 7.843 4.206 5.228 3.865 8.411 1.932 12.617-1.932 4.206-.34 8.98 1.933 10.685" stroke="#000" stroke-width="1.5" stroke-linecap="round" stroke-linejoin="round"/><path d="M100.274 148.268c8.65-1.636 25.633-3.235 25.633-3.235M141.961 139.658s-6.391-6.545-7.014-9.197c-.624-2.649.154-5.3 0-9.351-.123-3.175-2.763-3.192-3.902-3.052M130.53 131.319s-13.977-.234-17.404 0c-3.429.235-8.564-.094-8.573 2.729-.011 3.896 5.455 3.896 5.455 3.896" stroke="#000" stroke-width="1.5" stroke-miterlimit="10" stroke-linecap="round" stroke-linejoin="round"/><path d="M127.93 137.942s-15.273-1.248-21.975.778c-6.702 2.025-4.365 6.078-2.337 6.856 2.025.778 6.728 1.039 6.728 1.039" stroke="#000" stroke-width="1.5" stroke-miterlimit="10" stroke-linecap="round" stroke-linejoin="round"/></g><defs><clipPath id="clip0"><path fill="#fff" d="M0 0h190.004v230H0z"/></clipPath></defs></svg>
