<svg xmlns="http://www.w3.org/2000/svg" width="600" height="450" fill="none" viewBox="0 0 600 450"><rect width="600" height="450" fill="#ECDFFF" rx="15"/><g filter="url(#a)"><g clip-path="url(#b)"><rect width="507.821" height="358.053" x="46" y="46" fill="#fff" rx="5.951"/><path fill="#C9C3D2" d="M40.05 42.033h525.673v28.763H40.05z"/><circle cx="57.364" cy="57.365" r="3.099" fill="#592ACB"/><circle cx="67.696" cy="57.365" r="3.099" fill="#592ACB"/><circle cx="78.028" cy="57.365" r="3.099" fill="#592ACB"/><path fill="#0C0C0D" d="M99.25 224.544c2.08 0 3.822.197 5.223.591 1.424.372 2.486.996 3.187 1.873.723.854 1.084 2.014 1.084 3.482 0 .876-.142 1.675-.427 2.398-.285.723-.701 1.314-1.248 1.774-.526.46-1.172.756-1.939.887v.164a6.281 6.281 0 0 1 2.136.822c.635.394 1.139.963 1.511 1.708.372.745.558 1.73.558 2.957 0 1.423-.35 2.65-1.051 3.679-.679 1.008-1.664 1.785-2.957 2.333-1.292.525-2.825.788-4.599.788h-8.771v-23.456h7.293Zm.558 9.297c1.446 0 2.442-.23 2.99-.69.569-.46.854-1.128.854-2.004 0-.898-.328-1.544-.986-1.938-.657-.395-1.697-.592-3.12-.592h-2.629v5.224h2.891Zm-2.89 3.942v6.11h3.252c1.489 0 2.529-.284 3.121-.854.591-.591.887-1.369.887-2.332 0-.592-.132-1.106-.395-1.544-.24-.438-.668-.778-1.281-1.019-.613-.241-1.445-.361-2.497-.361h-3.088Zm42.187-7.72V248h-4.895v-14.258h-6.505V248h-4.895v-17.937h16.295Zm21.431 8.936c0 1.489-.208 2.814-.624 3.975-.394 1.16-.975 2.146-1.741 2.956-.745.789-1.654 1.391-2.727 1.807-1.073.394-2.289.592-3.647.592-1.248 0-2.409-.198-3.482-.592a7.713 7.713 0 0 1-2.727-1.807c-.766-.81-1.369-1.796-1.807-2.956-.416-1.161-.624-2.486-.624-3.975 0-1.993.351-3.669 1.051-5.027.701-1.38 1.709-2.431 3.023-3.154 1.314-.722 2.869-1.084 4.665-1.084 1.686 0 3.176.362 4.468 1.084 1.292.723 2.31 1.774 3.055 3.154.745 1.358 1.117 3.034 1.117 5.027Zm-12.385 0c0 1.182.12 2.179.361 2.989.263.789.668 1.391 1.216 1.807.547.394 1.259.591 2.135.591.876 0 1.577-.197 2.103-.591.547-.416.941-1.018 1.182-1.807.263-.81.394-1.807.394-2.989 0-1.183-.131-2.169-.394-2.957-.241-.789-.635-1.38-1.182-1.774-.548-.394-1.26-.592-2.136-.592-1.292 0-2.234.449-2.825 1.347-.57.876-.854 2.202-.854 3.976Zm21.161-1.84c0 .372-.022.832-.066 1.38a45.382 45.382 0 0 1-.098 1.675 24.948 24.948 0 0 1-.099 1.511c-.044.438-.076.745-.098.92l8.278-12.582h5.881V248h-4.731v-7.162c0-.591.022-1.237.066-1.938.044-.723.088-1.391.131-2.004.066-.635.11-1.117.132-1.445L170.462 248h-5.881v-17.937h4.731v7.096Zm26.207 11.17c-1.774 0-3.285-.318-4.534-.953-1.248-.657-2.201-1.665-2.858-3.023-.657-1.357-.985-3.099-.985-5.223 0-2.19.372-3.975 1.117-5.355.744-1.38 1.774-2.398 3.088-3.055 1.336-.657 2.869-.986 4.599-.986 1.227 0 2.289.121 3.187.362.92.241 1.719.525 2.398.854l-1.446 3.778a23.34 23.34 0 0 0-2.168-.756 6.833 6.833 0 0 0-1.971-.296c-.854 0-1.566.209-2.135.625-.57.394-.997.996-1.281 1.807-.263.788-.395 1.785-.395 2.989 0 1.183.143 2.168.427 2.957.307.766.745 1.347 1.314 1.741.57.372 1.26.558 2.07.558 1.029 0 1.938-.131 2.727-.394a11.28 11.28 0 0 0 2.299-1.15v4.173a7.53 7.53 0 0 1-2.365 1.018c-.81.219-1.84.329-3.088.329Zm21.343-18.266h5.388l-7.096 8.607 7.72 9.33h-5.552l-7.326-9.1v9.1h-4.895v-17.937h4.895v8.706l6.866-8.706Zm15.329-.329c1.665 0 3.088.318 4.271.953a6.646 6.646 0 0 1 2.792 2.76c.657 1.204.986 2.682.986 4.435v2.365h-11.564c.044 1.38.449 2.464 1.216 3.252.788.789 1.872 1.183 3.252 1.183 1.161 0 2.212-.11 3.154-.329.941-.24 1.916-.602 2.924-1.084v3.778c-.876.438-1.807.756-2.793.953-.964.219-2.135.329-3.515.329-1.796 0-3.384-.329-4.764-.986-1.379-.679-2.464-1.697-3.252-3.055-.788-1.358-1.183-3.066-1.183-5.125 0-2.103.351-3.844 1.052-5.224.722-1.401 1.719-2.453 2.989-3.153 1.27-.701 2.749-1.052 4.435-1.052Zm.033 3.483c-.942 0-1.73.306-2.365.919-.614.614-.975 1.566-1.084 2.859h6.866c0-.723-.132-1.369-.395-1.939a2.93 2.93 0 0 0-1.117-1.347c-.503-.328-1.138-.492-1.905-.492Zm-124.367 31.846V283h-4.895v-14.258h-6.505V283h-4.894v-17.937h16.294Zm21.431 8.936c0 1.489-.208 2.814-.624 3.975-.394 1.16-.975 2.146-1.741 2.956-.745.789-1.654 1.391-2.727 1.807-1.073.394-2.289.592-3.647.592-1.248 0-2.409-.198-3.482-.592a7.713 7.713 0 0 1-2.727-1.807c-.766-.81-1.369-1.796-1.807-2.956-.416-1.161-.624-2.486-.624-3.975 0-1.993.351-3.669 1.051-5.027.701-1.38 1.709-2.431 3.023-3.154 1.314-.722 2.869-1.084 4.665-1.084 1.686 0 3.176.362 4.468 1.084 1.292.723 2.31 1.774 3.055 3.154.745 1.358 1.117 3.034 1.117 5.027Zm-12.385 0c0 1.182.12 2.179.361 2.989.263.789.668 1.391 1.216 1.807.547.394 1.259.591 2.135.591.876 0 1.577-.197 2.103-.591.547-.416.941-1.018 1.182-1.807.263-.81.394-1.807.394-2.989 0-1.183-.131-2.169-.394-2.957-.241-.789-.635-1.38-1.182-1.774-.548-.394-1.26-.592-2.136-.592-1.292 0-2.234.449-2.825 1.347-.57.876-.854 2.202-.854 3.976ZM136.06 283h-5.289l4.829-7.096a7.55 7.55 0 0 1-1.741-1.051c-.526-.46-.953-1.041-1.281-1.741-.329-.701-.493-1.534-.493-2.497 0-1.796.679-3.165 2.037-4.107 1.358-.963 3.099-1.445 5.223-1.445h8.345V283h-4.895v-6.669h-2.694L136.06 283Zm.821-12.352c0 .744.296 1.336.887 1.774.592.416 1.358.624 2.3.624h2.727v-4.534h-3.351c-.876 0-1.522.219-1.938.657a2.018 2.018 0 0 0-.625 1.479Zm31.827-.887c0 .963-.307 1.785-.92 2.464-.592.678-1.479 1.116-2.661 1.314v.131c1.248.153 2.245.58 2.989 1.281.767.701 1.15 1.599 1.15 2.694 0 .767-.153 1.478-.46 2.135-.285.658-.744 1.227-1.38 1.709-.635.482-1.456.854-2.463 1.117-.986.263-2.191.394-3.614.394h-8.542v-17.937h8.542c1.401 0 2.65.153 3.745.46 1.117.284 1.993.766 2.628 1.445.657.679.986 1.61.986 2.793Zm-4.501 7.621c0-.701-.274-1.204-.821-1.511-.548-.328-1.369-.493-2.464-.493h-3.22v4.238h3.318c.92 0 1.676-.164 2.267-.493.613-.35.92-.93.92-1.741Zm-.46-7.227c0-.57-.219-.986-.657-1.249-.438-.262-1.084-.394-1.938-.394h-3.45v3.548h2.891c1.03 0 1.807-.142 2.333-.427.547-.306.821-.799.821-1.478ZM189.533 283h-4.895v-14.258h-4.501c-.219 2.628-.493 4.873-.821 6.735-.307 1.84-.701 3.34-1.183 4.501-.46 1.16-1.051 2.015-1.774 2.562-.723.526-1.61.789-2.661.789a8.254 8.254 0 0 1-1.544-.132 5.186 5.186 0 0 1-1.248-.394v-3.91c.241.088.492.165.755.23.263.066.537.099.822.099.306 0 .591-.12.854-.361.284-.241.547-.668.788-1.282.263-.613.504-1.456.723-2.529.219-1.073.416-2.42.591-4.041.197-1.643.373-3.625.526-5.946h13.568V283Zm12.501-18.266c1.665 0 3.088.318 4.271.953a6.652 6.652 0 0 1 2.792 2.76c.657 1.204.986 2.682.986 4.435v2.365h-11.564c.044 1.38.449 2.464 1.215 3.252.789.789 1.873 1.183 3.253 1.183 1.161 0 2.212-.11 3.154-.329.941-.24 1.916-.602 2.923-1.084v3.778c-.876.438-1.806.756-2.792.953-.964.219-2.135.329-3.515.329-1.796 0-3.384-.329-4.764-.986-1.38-.679-2.464-1.697-3.252-3.055-.789-1.358-1.183-3.066-1.183-5.125 0-2.103.351-3.844 1.051-5.224.723-1.401 1.72-2.453 2.99-3.153 1.27-.701 2.749-1.052 4.435-1.052Zm.033 3.483c-.942 0-1.73.306-2.365.919-.614.614-.975 1.566-1.085 2.859h6.867c0-.723-.132-1.369-.395-1.939a2.937 2.937 0 0 0-1.117-1.347c-.503-.328-1.139-.492-1.905-.492Zm16.88-3.154v6.899h6.833v-6.899h4.895V283h-4.895v-7.392h-6.833V283h-4.895v-17.937h4.895Zm21.587 7.096c0 .372-.022.832-.065 1.38a45.416 45.416 0 0 1-.099 1.675 25.863 25.863 0 0 1-.098 1.511c-.044.438-.077.745-.099.92l8.279-12.582h5.88V283h-4.73v-7.162c0-.591.021-1.237.065-1.938.044-.723.088-1.391.132-2.004.065-.635.109-1.117.131-1.445L241.684 283h-5.88v-17.937h4.73v7.096Zm36.096-14.816c-.11 1.138-.427 2.146-.953 3.022-.526.854-1.347 1.522-2.464 2.004s-2.617.723-4.501.723c-1.927 0-3.438-.23-4.533-.69-1.073-.482-1.84-1.15-2.3-2.004-.46-.854-.733-1.873-.821-3.055h4.369c.11 1.204.416 2.003.92 2.398.504.394 1.325.591 2.464.591.942 0 1.708-.208 2.3-.624.613-.438.974-1.227 1.084-2.365h4.435Zm-12.451 14.816c0 .372-.022.832-.066 1.38a47.684 47.684 0 0 1-.098 1.675 24.948 24.948 0 0 1-.099 1.511c-.044.438-.077.745-.098.92l8.278-12.582h5.881V283h-4.731v-7.162c0-.591.022-1.237.066-1.938.044-.723.087-1.391.131-2.004.066-.635.11-1.117.132-1.445L265.329 283h-5.881v-17.937h4.731v7.096Zm21.18 11.235a3.05 3.05 0 0 1-3.055-3.055c0-1.544 1.347-2.924 3.055-2.924 1.61 0 2.924 1.38 2.924 2.924 0 1.675-1.314 3.055-2.924 3.055Zm9.529 0a3.05 3.05 0 0 1-3.055-3.055c0-1.544 1.347-2.924 3.055-2.924 1.61 0 2.924 1.38 2.924 2.924 0 1.675-1.314 3.055-2.924 3.055Zm9.528 0a3.05 3.05 0 0 1-3.055-3.055c0-1.544 1.347-2.924 3.055-2.924 1.61 0 2.924 1.38 2.924 2.924 0 1.675-1.314 3.055-2.924 3.055Z"/><rect width="423.385" height="44.63" x="89.424" y="320.895" fill="#EAEAEA" rx="22.315"/><rect width="91.006" height="44.784" x="88.218" y="320.895" fill="url(#c)" rx="22.392"/><path fill="#fff" d="M115.607 340.349c2.844 0 5.195 1.836 5.195 4.882 0 3.157-2.53 5.329-5.889 5.329-4.501 0-6.539-3.224-6.539-7.703 0-4.792 2.799-8.218 7.054-8.218 1.926 0 3.471.65 4.725 1.657l-1.568 2.508c-.94-.784-1.858-1.254-3.135-1.254-1.993 0-3.358 1.657-3.65 4.255.963-.918 2.352-1.456 3.807-1.456Zm-.873 7.412c1.634 0 2.665-1.142 2.665-2.374 0-1.477-1.254-2.351-2.755-2.351-1.276 0-2.306.694-2.754 1.792.291 1.881 1.12 2.933 2.844 2.933Zm11.724-5.128c-2.284 0-3.829-1.724-3.829-3.918 0-2.217 1.545-3.964 3.851-3.964 2.329 0 3.829 1.769 3.829 3.941 0 2.217-1.567 3.941-3.851 3.941Zm-1.814 7.658 10.704-15.383h2.373l-10.703 15.383h-2.374Zm1.836-9.584c.941 0 1.635-.783 1.635-2.015 0-1.187-.694-1.993-1.657-1.993-.941 0-1.612.784-1.612 1.993s.716 2.015 1.634 2.015Zm9.383 9.831c-2.307 0-3.852-1.747-3.852-3.941 0-2.195 1.568-3.941 3.852-3.941 2.306 0 3.829 1.769 3.829 3.941 0 2.216-1.59 3.941-3.829 3.941Zm0-1.949c.962 0 1.634-.783 1.634-1.992 0-1.21-.716-2.016-1.634-2.016-.986 0-1.657.784-1.657 2.016 0 1.186.694 1.992 1.657 1.992Z"/><rect width="27.776" height="27.776" x="164.232" y="131.895" fill="#592ACB" rx="13.888"/><path fill="#fff" d="M175.798 152.738a1.16 1.16 0 0 1-.82-.34l-3.477-3.477a1.158 1.158 0 0 1 .824-1.964c.304-.003.596.114.815.325l2.5 2.5 7.321-10.458a1.158 1.158 0 0 1 2.084.466c.055.3-.012.61-.184.862l-8.114 11.591a1.15 1.15 0 0 1-.848.495.85.85 0 0 1-.101 0Z"/><path fill="#D9BFFF" d="M192.008 144.046h83.328v3.472h-83.328z"/><rect width="27.776" height="27.776" x="275.336" y="131.895" fill="#592ACB" rx="13.888"/><path fill="#fff" d="M286.901 152.738c-.307 0-.602-.122-.819-.34l-3.478-3.477a1.158 1.158 0 0 1 .824-1.964c.304-.003.597.114.815.325l2.501 2.5 7.32-10.458a1.16 1.16 0 0 1 1.9 1.328l-8.114 11.591a1.15 1.15 0 0 1-.848.495.85.85 0 0 1-.101 0Z"/><path fill="#D9BFFF" d="M303.112 144.046h41.664v3.472h-41.664z"/><path fill="#D9BFFF" d="M344.775 144.046h39.06v3.472h-39.06z"/><rect width="31.248" height="31.248" x="382.099" y="130.159" fill="#592ACB" rx="15.624"/><path fill="#fff" d="m404.423 151.257-4.179-4.179a5.213 5.213 0 0 0-.881-7.007 5.219 5.219 0 0 0-7.057.295 5.211 5.211 0 0 0-.294 7.056 5.216 5.216 0 0 0 7.007.882l4.179 4.179a.868.868 0 0 0 1.214-.011.866.866 0 0 0 .011-1.215Zm-8.412-3.72a3.465 3.465 0 0 1-2.451-5.918 3.453 3.453 0 0 1 1.775-.948 3.463 3.463 0 0 1 4.142 3.399 3.469 3.469 0 0 1-3.466 3.467Z"/><rect width="31.248" height="31.248" x="382.099" y="130.159" stroke="#D9BFFF" stroke-width="3.472" rx="15.624"/><path fill="#592ACB" d="M159.746 182v-7.575h1.372v3.207h3.511v-3.207h1.376V182h-1.376v-3.218h-3.511V182h-1.372Zm9.327.115c-1.084 0-1.901-.592-1.901-1.709 0-1.28 1.054-1.609 2.156-1.728 1.002-.107 1.406-.125 1.406-.51v-.022c0-.559-.341-.877-.962-.877-.655 0-1.032.333-1.165.721l-1.25-.177c.296-1.036 1.213-1.568 2.408-1.568 1.083 0 2.308.451 2.308 1.953V182h-1.288v-.78h-.044c-.244.477-.777.895-1.668.895Zm.348-.984c.806 0 1.316-.537 1.316-1.169v-.67c-.174.141-.876.23-1.228.278-.599.085-1.046.299-1.046.814 0 .492.399.747.958.747Zm8.744-4.812V182h-1.288v-1.801a4.488 4.488 0 0 1-.998.118c-1.517 0-2.46-.662-2.46-2.112v-1.894h1.28v1.894c0 .732.388 1.013 1.18 1.013.351 0 .673-.044.998-.125v-2.774h1.288Zm2.982 5.796c-1.084 0-1.901-.592-1.901-1.709 0-1.28 1.054-1.609 2.156-1.728 1.002-.107 1.406-.125 1.406-.51v-.022c0-.559-.341-.877-.962-.877-.655 0-1.032.333-1.165.721l-1.25-.177c.295-1.036 1.213-1.568 2.407-1.568 1.084 0 2.309.451 2.309 1.953V182h-1.288v-.78h-.044c-.244.477-.777.895-1.668.895Zm.347-.984c.807 0 1.317-.537 1.317-1.169v-.67c-.174.141-.876.23-1.228.278-.599.085-1.047.299-1.047.814 0 .492.4.747.958.747Zm3.363-3.714v-1.098h4.971v1.098h-1.838V182h-1.295v-4.583h-1.838Zm7.328.751h1.291c1.446 0 2.278.769 2.282 1.916-.004 1.117-.836 1.916-2.282 1.916h-2.582v-5.681h1.291v1.849Zm0 1.099v1.634h1.291c.581 0 .999-.329.999-.799 0-.491-.418-.835-.999-.835h-1.291ZM267.52 182v-7.575h2.9c1.642 0 2.456.836 2.456 1.964 0 .921-.584 1.439-1.324 1.613v.074c.806.04 1.62.713 1.62 1.86 0 1.18-.851 2.064-2.585 2.064h-3.067Zm1.372-1.147h1.476c.995 0 1.41-.421 1.41-1.024 0-.677-.526-1.195-1.373-1.195h-1.513v2.219Zm0-3.207h1.358c.714 0 1.254-.414 1.254-1.08 0-.584-.418-1.009-1.224-1.009h-1.388v2.089Zm5.415 4.354v-5.681h2.385c1.343 0 2.183.569 2.183 1.527 0 .64-.474 1.043-1.232 1.184.891.078 1.509.632 1.509 1.428 0 .939-.762 1.542-2.093 1.542h-2.752Zm1.254-1.054h1.498c.492 0 .791-.248.791-.655 0-.47-.299-.754-.791-.754h-1.498v1.409Zm0-2.275h1.157c.544 0 .873-.248.873-.655 0-.388-.34-.625-.899-.625h-1.131v1.28Zm7.211 3.44c-1.712 0-2.759-1.136-2.759-2.918 0-1.754 1.062-2.948 2.689-2.948 1.398 0 2.597.876 2.597 2.87v.41h-3.958c.011.973.584 1.543 1.45 1.543.577 0 1.021-.252 1.202-.732l1.25.14c-.237.988-1.146 1.635-2.471 1.635Zm-1.427-3.488h2.67c-.007-.773-.525-1.335-1.294-1.335-.799 0-1.336.61-1.376 1.335Zm4.583 5.027v-2.752h.452c.48-.374.621-1.317.728-2.589l.163-1.99h4.106v4.579h.88v2.752h-1.294V182h-3.718v1.65h-1.317Zm1.828-2.752h2.341v-3.499h-1.665l-.088.91c-.096 1.202-.23 2.06-.588 2.589Zm6.792-.71 2.274-3.869h1.376V182h-1.294v-3.873L294.636 182h-1.379v-5.681h1.291v3.869Zm4.389-2.771v-1.098h4.971v1.098h-1.838V182h-1.294v-4.583h-1.839Zm8.319 4.694c-1.713 0-2.759-1.136-2.759-2.918 0-1.754 1.061-2.948 2.689-2.948 1.398 0 2.596.876 2.596 2.87v.41h-3.958c.012.973.585 1.543 1.45 1.543.577 0 1.021-.252 1.203-.732l1.25.14c-.237.988-1.147 1.635-2.471 1.635Zm-1.428-3.488h2.671c-.008-.773-.526-1.335-1.295-1.335-.799 0-1.335.61-1.376 1.335Zm-49.725 15.565 2.275-3.869h1.376V196h-1.295v-3.873L256.192 196h-1.38v-5.681h1.291v3.869Zm6.317-3.869v2.285h2.201v-2.285h1.287V196h-1.287v-2.297h-2.201V196h-1.291v-5.681h1.291Zm7.421 7.612v-1.82c-1.672 0-2.822-1.184-2.822-2.93 0-1.749 1.15-2.936 2.822-2.936v-1.82h1.342v1.82c1.672 0 2.823 1.187 2.823 2.936 0 1.746-1.151 2.93-2.823 2.93v1.82h-1.342Zm0-2.9v-3.706c-.955 0-1.454.843-1.454 1.856 0 1.014.507 1.85 1.454 1.85Zm1.342 0c.955 0 1.45-.836 1.45-1.85 0-1.013-.495-1.856-1.45-1.856v3.706Zm6.431 1.08c-1.665 0-2.723-1.173-2.723-2.93 0-1.76 1.058-2.936 2.723-2.936 1.664 0 2.722 1.176 2.722 2.936 0 1.757-1.058 2.93-2.722 2.93Zm.007-1.073c.906 0 1.358-.821 1.358-1.86 0-1.04-.452-1.872-1.358-1.872-.921 0-1.372.832-1.372 1.872 0 1.039.451 1.86 1.372 1.86Zm3.852 3.093v-7.812h1.316v.939h.078c.204-.41.622-1.013 1.624-1.013 1.313 0 2.345 1.028 2.345 2.922 0 1.871-1.002 2.933-2.341 2.933-.977 0-1.417-.581-1.628-.995h-.055v3.026h-1.339Zm1.313-4.972c0 1.103.481 1.842 1.335 1.842.884 0 1.35-.776 1.35-1.842 0-1.058-.459-1.816-1.35-1.816-.862 0-1.335.714-1.335 1.816Zm8.466 1.284 1.687-4.124h1.628V196h-1.28v-3.869L291.722 196h-.936l-1.512-3.828V196h-1.291v-5.681h1.627l1.642 4.124Zm6.3 1.672c-1.084 0-1.902-.592-1.902-1.709 0-1.28 1.054-1.609 2.157-1.728 1.002-.107 1.405-.125 1.405-.51v-.022c0-.559-.34-.877-.961-.877-.655 0-1.032.333-1.166.721l-1.25-.177c.296-1.036 1.213-1.568 2.408-1.568 1.084 0 2.308.451 2.308 1.953V196h-1.287v-.78h-.044c-.244.477-.777.895-1.668.895Zm.347-.984c.807 0 1.317-.537 1.317-1.169v-.67c-.174.141-.877.23-1.228.278-.599.085-1.047.299-1.047.814 0 .492.4.747.958.747Zm8.796-4.812v4.682h.869v2.826h-1.309V196h-4.357v-5.681h1.291v4.582h2.226v-4.582h1.28Zm3.258 3.869 2.275-3.869h1.376V196h-1.295v-3.873L310.042 196h-1.38v-5.681h1.291v3.869Zm6.028-3.869v2.326h1.065c.189-1.446 1.177-2.4 2.649-2.4 1.638 0 2.678 1.187 2.681 2.925-.003 1.739-1.043 2.941-2.681 2.941-1.454 0-2.434-.943-2.641-2.364h-1.073V196h-1.343v-5.681h1.343Zm3.714 4.682c.972 0 1.387-.802 1.387-1.831 0-1.024-.415-1.827-1.387-1.827-.977 0-1.395.795-1.395 1.827s.418 1.831 1.395 1.831ZM384.364 182v-7.575h1.372v3.207h3.51v-3.207h1.376V182h-1.376v-3.218h-3.51V182h-1.372Zm9.327.115c-1.084 0-1.902-.592-1.902-1.709 0-1.28 1.054-1.609 2.157-1.728 1.002-.107 1.405-.125 1.405-.51v-.022c0-.559-.34-.877-.961-.877-.655 0-1.032.333-1.166.721l-1.25-.177c.296-1.036 1.213-1.568 2.408-1.568 1.084 0 2.308.451 2.308 1.953V182h-1.287v-.78h-.044c-.244.477-.777.895-1.668.895Zm.347-.984c.807 0 1.317-.537 1.317-1.169v-.67c-.174.141-.877.23-1.228.278-.599.085-1.047.299-1.047.814 0 .492.4.747.958.747Zm5.29-.943 2.274-3.869h1.376V182h-1.294v-3.873L399.416 182h-1.379v-5.681h1.291v3.869Zm1.908-5.822h1.003c0 .865-.67 1.45-1.735 1.45-1.058 0-1.728-.585-1.724-1.45h.995c0 .355.2.684.729.684.521 0 .728-.322.732-.684Zm2.481 3.051v-1.098h4.971v1.098h-1.838V182h-1.295v-4.583h-1.838Zm7.328 2.771 2.275-3.869h1.376V182h-1.294v-3.873L411.134 182h-1.379v-5.681h1.29v3.869ZM372.561 196v-5.681h4.798V196h-1.291v-4.583h-2.227V196h-1.28Zm8.653.111c-1.665 0-2.722-1.173-2.722-2.93 0-1.76 1.057-2.936 2.722-2.936 1.664 0 2.722 1.176 2.722 2.936 0 1.757-1.058 2.93-2.722 2.93Zm.007-1.073c.906 0 1.358-.821 1.358-1.86 0-1.04-.452-1.872-1.358-1.872-.921 0-1.372.832-1.372 1.872 0 1.039.451 1.86 1.372 1.86Zm7.21.962v-2.138h-1.187L386.079 196h-1.317l1.272-2.338c-.677-.277-1.069-.821-1.065-1.538-.004-1.092.858-1.805 2.249-1.805h2.467V196h-1.254Zm0-3.114v-1.48h-1.213c-.614 0-.958.322-.954.747-.004.426.321.733.91.733h1.257Zm2.602 3.114v-5.681h2.386c1.343 0 2.182.569 2.182 1.527 0 .64-.473 1.043-1.231 1.184.891.078 1.509.632 1.509 1.428 0 .939-.762 1.542-2.094 1.542h-2.752Zm1.254-1.054h1.498c.492 0 .792-.248.792-.655 0-.47-.3-.754-.792-.754h-1.498v1.409Zm0-2.275h1.158c.544 0 .873-.248.873-.655 0-.388-.34-.625-.899-.625h-1.132v1.28Zm4.305 3.329-.008-1.102h.196c.589 0 .796-.47.859-2.064l.099-2.515h4.143V196h-1.294v-4.583h-1.632l-.088 1.831c-.089 1.894-.64 2.752-1.861 2.752h-.414Zm9.153.111c-1.713 0-2.76-1.136-2.76-2.918 0-1.754 1.062-2.948 2.689-2.948 1.398 0 2.597.876 2.597 2.87v.41h-3.958c.011.973.585 1.543 1.45 1.543.577 0 1.021-.252 1.202-.732l1.25.14c-.236.988-1.146 1.635-2.47 1.635Zm-1.428-3.488h2.67c-.007-.773-.525-1.335-1.294-1.335-.799 0-1.335.61-1.376 1.335Zm6.378-2.304v2.285h2.2v-2.285h1.288V196h-1.288v-2.297h-2.2V196h-1.291v-5.681h1.291Zm6.133 3.869 2.275-3.869h1.376V196h-1.295v-3.873L416.917 196h-1.38v-5.681h1.291v3.869Zm8.384 1.812v-2.138h-1.187L422.86 196h-1.317l1.273-2.338c-.677-.277-1.069-.821-1.066-1.538-.003-1.092.859-1.805 2.249-1.805h2.467V196h-1.254Zm0-3.114v-1.48h-1.213c-.614 0-.958.322-.954.747-.004.426.322.733.91.733h1.257Z"/></g></g><defs><radialGradient id="c" cx="0" cy="0" r="1" gradientTransform="matrix(-91.00646 44.78467 -35.48405 -72.10675 179.224 320.895)" gradientUnits="userSpaceOnUse"><stop stop-color="#9D62FC"/><stop offset="1" stop-color="#FD3296"/></radialGradient><clipPath id="b"><rect width="507.821" height="358.053" x="46" y="46" fill="#fff" rx="5.951"/></clipPath><filter id="a" width="531.625" height="381.858" x="34.098" y="38.065" color-interpolation-filters="sRGB" filterUnits="userSpaceOnUse"><feFlood flood-opacity="0" result="BackgroundImageFix"/><feColorMatrix in="SourceAlpha" result="hardAlpha" values="0 0 0 0 0 0 0 0 0 0 0 0 0 0 0 0 0 0 127 0"/><feOffset dy="3.967"/><feGaussianBlur stdDeviation="5.951"/><feComposite in2="hardAlpha" operator="out"/><feColorMatrix values="0 0 0 0 0 0 0 0 0 0 0 0 0 0 0 0 0 0 0.08 0"/><feBlend in2="BackgroundImageFix" result="effect1_dropShadow_1092_11758"/><feBlend in="SourceGraphic" in2="effect1_dropShadow_1092_11758" result="shape"/></filter></defs></svg>
