<svg xmlns="http://www.w3.org/2000/svg" width="475" height="621" fill="none" viewBox="0 0 475 621"><mask id="b" fill="#fff"><path d="M463.529 104.926c5.84 0 10.575 4.734 10.575 10.575v70.5c0 5.84-4.735 10.575-10.575 10.575v-91.65Z"/></mask><path fill="url(#a)" d="M463.529 104.926c5.84 0 10.575 4.734 10.575 10.575v70.5c0 5.84-4.735 10.575-10.575 10.575v-91.65Z"/><path fill="#BFBFC7" d="M463.529 196.576h-11.75v11.75h11.75v-11.75Zm0-91.65v-11.75h-11.75v11.75h11.75Zm-1.175 10.575v70.5h23.5v-70.5h-23.5Zm12.925 81.075v-91.65h-23.5v91.65h23.5Zm-12.925-10.575c0-.649.526-1.175 1.175-1.175v23.5c12.329 0 22.325-9.995 22.325-22.325h-23.5Zm1.175-69.325a1.175 1.175 0 0 1-1.175-1.175h23.5c0-12.33-9.996-22.325-22.325-22.325v23.5Z" mask="url(#b)"/><path fill="#F9F9FA" stroke="#BFBFC7" stroke-miterlimit="10" stroke-width="9.4" d="M403.391 5.3H60.761C30.13 5.3 5.3 30.13 5.3 60.76v697.952c0 30.63 24.83 55.461 55.46 55.461h342.631c30.63 0 55.46-24.831 55.46-55.461V60.76c0-30.63-24.83-55.46-55.46-55.46Z"/><path fill="url(#c)" d="m133.245 71.383-4.005-2.294-9.144-5.235-.285-.164a4.889 4.889 0 0 0-4.836 0l-.284.165-12.858 7.365-.284.165a4.807 4.807 0 0 0-2.418 4.157v15.382a4.81 4.81 0 0 0 2.418 4.159l13.146 7.528a2.025 2.025 0 0 0 2.755-.731 1.993 1.993 0 0 0-.738-2.734l-12.857-7.363a1.37 1.37 0 0 1-.693-1.189V75.872a1.37 1.37 0 0 1 .693-1.189l2.275-1.304 10.568-6.065a1.394 1.394 0 0 1 1.379 0l12.862 7.366c.425.245.688.697.69 1.188V90.6a1.37 1.37 0 0 1-.693 1.189l-4.35 2.492-2.196-3.311a10.337 10.337 0 0 0 3.483-7.735c0-5.736-4.704-10.402-10.487-10.402S106.9 77.499 106.9 83.235c0 5.736 4.703 10.403 10.486 10.403a10.497 10.497 0 0 0 3.54-.612l3.336 5.03c.052.076.108.15.169.22l.035.035c.071.076.147.146.229.21l.06.048c.09.065.185.123.285.174l.068.03c.088.039.18.073.273.1l.062.02c.106.027.214.045.323.053h.182c.062 0 .123-.007.182-.013h.084c.115-.016.228-.041.339-.077.03-.008.058-.021.088-.032.088-.032.173-.07.256-.114.019-.01.04-.016.058-.027l6.29-3.594a4.814 4.814 0 0 0 2.418-4.165V75.541a4.807 4.807 0 0 0-2.418-4.158Zm-22.313 11.852a6.455 6.455 0 1 1 6.454 6.4 6.435 6.435 0 0 1-6.454-6.4Z"/><path fill="url(#d)" d="m133.245 71.383-4.005-2.294-9.144-5.235-.285-.164a4.889 4.889 0 0 0-4.836 0l-.284.165-12.858 7.365-.284.165a4.807 4.807 0 0 0-2.418 4.157v15.382a4.81 4.81 0 0 0 2.418 4.159l13.146 7.528a2.025 2.025 0 0 0 2.755-.731 1.993 1.993 0 0 0-.738-2.734l-12.857-7.363a1.37 1.37 0 0 1-.693-1.189V75.872a1.37 1.37 0 0 1 .693-1.189l2.275-1.304 10.568-6.065a1.394 1.394 0 0 1 1.379 0l12.862 7.366c.425.245.688.697.69 1.188V90.6a1.37 1.37 0 0 1-.693 1.189l-4.35 2.492-2.196-3.311a10.337 10.337 0 0 0 3.483-7.735c0-5.736-4.704-10.402-10.487-10.402S106.9 77.499 106.9 83.235c0 5.736 4.703 10.403 10.486 10.403a10.497 10.497 0 0 0 3.54-.612l3.336 5.03c.052.076.108.15.169.22l.035.035c.071.076.147.146.229.21l.06.048c.09.065.185.123.285.174l.068.03c.088.039.18.073.273.1l.062.02c.106.027.214.045.323.053h.182c.062 0 .123-.007.182-.013h.084c.115-.016.228-.041.339-.077.03-.008.058-.021.088-.032.088-.032.173-.07.256-.114.019-.01.04-.016.058-.027l6.29-3.594a4.814 4.814 0 0 0 2.418-4.165V75.541a4.807 4.807 0 0 0-2.418-4.158Zm-22.313 11.852a6.455 6.455 0 1 1 6.454 6.4 6.435 6.435 0 0 1-6.454-6.4Z"/><path fill="url(#e)" d="m133.243 71.383-4.005-2.294-5.587-3.197a4.308 4.308 0 0 0-4.16-.063l-2.795 1.485a1.394 1.394 0 0 1 1.379 0l12.862 7.366c.425.245.688.697.69 1.188V90.6a1.37 1.37 0 0 1-.693 1.189l-4.35 2.492.678 1.085a2.844 2.844 0 0 0 3.827.954l2.154-1.231a4.796 4.796 0 0 0 2.418-4.165V75.541a4.793 4.793 0 0 0-2.418-4.158Z"/><path fill="url(#f)" d="M131.627 75.872v7.147h4.034v-7.478a4.793 4.793 0 0 0-2.418-4.158l-4.005-2.294-5.587-3.197a4.308 4.308 0 0 0-4.16-.063l-2.795 1.485a1.398 1.398 0 0 1 1.379 0l12.862 7.366c.427.245.69.7.69 1.192Z"/><path fill="url(#g)" d="M131.627 84.17v6.43c0 .492-.265.946-.692 1.189l-4.351 2.492.678 1.085a2.845 2.845 0 0 0 3.828.954l2.153-1.231a4.796 4.796 0 0 0 2.418-4.165V84.17h-4.034Z" opacity=".9"/><path fill="url(#h)" d="m126.276 93.814-1.887-2.844a10.496 10.496 0 0 1-3.464 2.056l2.007 3.028a88.824 88.824 0 0 0 3.344-2.24Z" opacity=".9"/><path fill="#000" d="M152.438 93.309V73.231h4.296l6.225 11.34 6.196-11.34h4.325V93.31h-4.325V80.801l-6.196 11.339-6.225-11.34V93.31h-4.296Zm32.266.35c-4.501 0-8.271-3.623-8.271-7.92 0-4.296 3.77-7.89 8.271-7.89 4.471 0 8.212 3.594 8.212 7.89 0 4.297-3.741 7.92-8.212 7.92Zm0-3.594c2.25 0 4.15-1.987 4.15-4.325s-1.9-4.296-4.15-4.296c-2.28 0-4.179 1.958-4.179 4.296s1.899 4.325 4.179 4.325Zm10.218 3.244v-3.01l7.599-8.476h-7.394V78.2h12.947v3.01l-7.599 8.475h7.657v3.624h-13.21Zm18.152-17.184a2.326 2.326 0 0 1-2.338-2.338c0-1.199 1.022-2.28 2.338-2.28 1.256 0 2.279 1.081 2.279 2.28 0 1.285-1.023 2.337-2.279 2.337Zm-2.163 17.184v-15.11h4.267v15.11h-4.267Zm7.783 0V72.881h4.267v20.428h-4.267Zm7.783 0V72.881h4.266v20.428h-4.266Zm14.533-15.46c3.946 0 6.634 2.484 6.634 6.43v9.03h-4.121v-1.52c-1.081 1.228-2.805 1.87-4.442 1.87-3.215 0-5.699-1.928-5.699-4.822 0-2.98 2.777-5.026 6.284-5.026 1.227 0 2.572.263 3.857.76v-.293c0-1.607-.993-3.01-3.477-3.01-1.403 0-2.718.468-3.916 1.082l-1.433-2.835c2.134-1.082 4.209-1.666 6.313-1.666Zm-.964 12.859c1.636 0 3.185-.76 3.477-2.163v-1.403a9.552 9.552 0 0 0-3.244-.555c-1.548 0-2.776.906-2.776 2.134 0 1.227 1.081 1.987 2.543 1.987Zm19.612 2.601V73.231h2.951l7.044 13.122 7.043-13.122h2.952V93.31h-2.952V79.018l-7.043 13.122-7.044-13.122v14.291h-2.951Zm31.182.35c-4.325 0-7.978-3.623-7.978-7.92 0-4.296 3.653-7.89 7.978-7.89 4.296 0 7.92 3.594 7.92 7.89 0 4.297-3.624 7.92-7.92 7.92Zm0-2.513c2.718 0 5.027-2.455 5.027-5.406 0-2.923-2.309-5.378-5.027-5.378-2.776 0-5.085 2.455-5.085 5.378 0 2.951 2.309 5.406 5.085 5.406Zm18.365-13.297c3.332 0 5.67 2.425 5.67 5.845v9.615h-2.835v-9.118c0-2.25-1.432-3.829-3.477-3.829-2.105 0-3.917 1.374-4.15 3.157v9.79h-2.894v-15.11h2.894v2.192c.906-1.49 2.747-2.542 4.792-2.542Zm10.615-2.163a1.759 1.759 0 0 1-1.753-1.753c0-.906.76-1.725 1.753-1.725.935 0 1.724.819 1.724 1.725 0 .935-.789 1.753-1.724 1.753Zm-1.461 17.623v-15.11h2.893v15.11h-2.893Zm13.525-2.718 1.052 1.987a4.861 4.861 0 0 1-3.01 1.082c-2.338 0-3.975-1.695-3.975-4.121v-8.885h-2.279V78.2h2.279v-4.15h2.835v4.15h3.565v2.454h-3.565v8.68c0 1.052.701 1.812 1.549 1.812.643 0 1.227-.234 1.549-.555Zm10.535 3.069c-4.325 0-7.979-3.624-7.979-7.92 0-4.296 3.654-7.891 7.979-7.891 4.296 0 7.92 3.594 7.92 7.89 0 4.297-3.624 7.92-7.92 7.92Zm0-2.514c2.718 0 5.027-2.455 5.027-5.406 0-2.923-2.309-5.378-5.027-5.378-2.777 0-5.085 2.455-5.085 5.378 0 2.951 2.308 5.406 5.085 5.406Zm13.718-10.053c.965-1.987 3.011-3.244 5.612-3.244v2.513c-3.127 0-5.349 1.725-5.612 4.355v8.592h-2.893v-15.11h2.893v2.894Z"/><path fill="#fff" d="M28.502 142.79a5.65 5.65 0 0 1 5.65-5.649H429.89a5.65 5.65 0 0 1 5.65 5.649v486.072a5.65 5.65 0 0 1-5.65 5.65H34.151a5.65 5.65 0 0 1-5.65-5.65V142.79Z"/><path stroke="#000" stroke-opacity=".1" stroke-width=".706" d="M34.151 136.788a6.002 6.002 0 0 0-6.002 6.002v486.072a6.003 6.003 0 0 0 6.002 6.003h395.74a6.003 6.003 0 0 0 6.003-6.003V142.79a6.003 6.003 0 0 0-6.003-6.002H34.151Z"/><path fill="#6D6D6E" d="M129.761 505.911v11.887h-1.44v-10.61h-5.989v10.61h-1.44v-11.887h8.869Zm5.341 12.096a3.618 3.618 0 0 1-1.538-.32 2.633 2.633 0 0 1-1.097-.934c-.271-.41-.407-.905-.407-1.486 0-.511.101-.925.302-1.242.201-.321.47-.572.807-.754a4.242 4.242 0 0 1 1.114-.407c.41-.092.823-.166 1.237-.22.541-.07.98-.122 1.317-.157.341-.039.588-.102.743-.191.159-.089.238-.244.238-.465v-.046c0-.573-.157-1.018-.47-1.335-.31-.317-.78-.476-1.411-.476-.653 0-1.166.143-1.538.43-.371.286-.632.592-.783.917l-1.3-.465c.232-.541.541-.963.928-1.265a3.48 3.48 0 0 1 1.277-.638 5.299 5.299 0 0 1 1.37-.186c.286 0 .615.035.987.104a3.16 3.16 0 0 1 1.085.412c.352.209.644.525.876.946.233.422.349.987.349 1.695v5.874h-1.37v-1.207h-.07a2.42 2.42 0 0 1-.464.621c-.217.22-.505.408-.865.563-.36.154-.799.232-1.317.232Zm.209-1.231c.541 0 .998-.106 1.369-.319a2.172 2.172 0 0 0 1.138-1.886v-1.254c-.058.07-.186.134-.383.192a6.672 6.672 0 0 1-.673.145 35.215 35.215 0 0 1-1.312.174 5.223 5.223 0 0 0-.998.226 1.721 1.721 0 0 0-.743.459c-.186.201-.279.476-.279.824 0 .476.176.836.528 1.079.356.24.807.36 1.353.36Zm6.377 4.365v-12.258h1.323v1.416h.162c.101-.155.24-.352.418-.592.182-.244.441-.46.778-.65.341-.193.801-.29 1.381-.29.751 0 1.413.188 1.985.563.573.375 1.02.907 1.341 1.596.321.689.482 1.501.482 2.438 0 .944-.161 1.762-.482 2.455-.321.688-.766 1.222-1.335 1.601-.569.376-1.225.563-1.967.563-.573 0-1.032-.094-1.376-.284-.344-.193-.609-.412-.795-.656a8.603 8.603 0 0 1-.43-.615h-.116v4.713h-1.369Zm1.346-7.801c0 .674.099 1.268.296 1.782.197.511.486.911.865 1.202.379.286.843.429 1.393.429.573 0 1.05-.151 1.433-.453.387-.305.678-.715.871-1.23a4.839 4.839 0 0 0 .296-1.73 4.7 4.7 0 0 0-.29-1.694c-.19-.507-.478-.908-.865-1.202-.383-.298-.865-.447-1.445-.447-.557 0-1.026.142-1.405.424-.379.279-.665.669-.859 1.172-.193.499-.29 1.082-.29 1.747Zm12.235 4.643c-.805 0-1.511-.191-2.119-.574-.603-.383-1.075-.919-1.416-1.608-.336-.689-.505-1.493-.505-2.414 0-.929.169-1.739.505-2.432.341-.693.813-1.23 1.416-1.614.608-.383 1.314-.574 2.119-.574.805 0 1.509.191 2.112.574.608.384 1.08.921 1.417 1.614.34.693.51 1.503.51 2.432 0 .921-.17 1.725-.51 2.414-.337.689-.809 1.225-1.417 1.608-.603.383-1.307.574-2.112.574Zm0-1.23c.611 0 1.114-.157 1.509-.47.394-.313.687-.726.876-1.236.19-.511.285-1.064.285-1.66 0-.596-.095-1.151-.285-1.666a2.804 2.804 0 0 0-.876-1.248c-.395-.317-.898-.476-1.509-.476-.612 0-1.115.159-1.509.476a2.806 2.806 0 0 0-.877 1.248 4.798 4.798 0 0 0-.284 1.666c0 .596.095 1.149.284 1.66.19.51.482.923.877 1.236.394.313.897.47 1.509.47Zm5.341 1.045v-1.277h.325c.267 0 .489-.052.667-.157.178-.108.321-.296.43-.563.112-.271.197-.646.255-1.126.062-.483.107-1.099.134-1.845l.162-3.947h5.943v8.915h-1.369v-7.638h-3.274l-.139 3.18a14.523 14.523 0 0 1-.197 1.933c-.097.553-.246 1.018-.447 1.393a2.048 2.048 0 0 1-.79.847c-.329.19-.741.285-1.236.285h-.464Zm11.799-2.02 4.295-6.895h1.579v8.915h-1.37v-6.895l-4.272 6.895h-1.602v-8.915h1.37v6.895Z"/><rect width="11.236" height="11.236" x="99" y="506.128" fill="#9059FF" rx="2.043"/><path fill="#6D6D6E" d="M344.856 516.382v-1.184l5.224-8.265h.859v1.834h-.581l-3.946 6.245v.093h7.034v1.277h-8.59Zm5.595 2.437V506.933h1.37v11.886h-1.37Zm6.215-8.914 2.135 3.644 2.136-3.644h1.579l-2.879 4.457 2.879 4.457h-1.579l-2.136-3.459-2.135 3.459h-1.579l2.832-4.457-2.832-4.457h1.579ZM120.869 547.422v-11.887h1.439v5.294h6.338v-5.294h1.44v11.887h-1.44v-5.317h-6.338v5.317h-1.439Zm15.534.185c-.805 0-1.511-.191-2.118-.574-.604-.383-1.076-.919-1.416-1.608-.337-.689-.505-1.493-.505-2.414 0-.929.168-1.739.505-2.432.34-.693.812-1.23 1.416-1.614.607-.383 1.313-.574 2.118-.574.805 0 1.509.191 2.113.574.607.384 1.079.921 1.416 1.614.34.693.511 1.503.511 2.432 0 .921-.171 1.725-.511 2.414-.337.689-.809 1.225-1.416 1.608-.604.383-1.308.574-2.113.574Zm0-1.23c.612 0 1.115-.157 1.509-.47.395-.313.687-.726.877-1.236a4.747 4.747 0 0 0 .284-1.66c0-.596-.095-1.151-.284-1.666a2.811 2.811 0 0 0-.877-1.248c-.394-.317-.897-.476-1.509-.476-.611 0-1.114.159-1.509.476a2.81 2.81 0 0 0-.876 1.248 4.775 4.775 0 0 0-.285 1.666c0 .596.095 1.149.285 1.66.189.51.482.923.876 1.236.395.313.898.47 1.509.47Zm11.006-.812 3.111-7.058h1.3l-3.854 8.915h-1.114l-3.784-8.915h1.276l3.065 7.058Zm-3.506-7.058v8.915h-1.369v-8.915h1.369Zm7.011 8.915v-8.915h1.37v8.915h-1.37Zm7.615.185c-.859 0-1.6-.189-2.223-.568a3.812 3.812 0 0 1-1.433-1.602c-.333-.689-.5-1.49-.5-2.403s.167-1.718.5-2.414c.336-.701.804-1.246 1.404-1.637.604-.395 1.308-.592 2.113-.592.464 0 .923.077 1.375.232.453.155.865.406 1.237.755.371.344.667.8.888 1.369.22.569.33 1.269.33 2.101v.581h-6.871v-1.184h5.478c0-.503-.1-.952-.301-1.347a2.279 2.279 0 0 0-.848-.934c-.363-.229-.793-.343-1.288-.343-.546 0-1.018.136-1.416.407a2.675 2.675 0 0 0-.912 1.044c-.212.43-.319.89-.319 1.382v.789c0 .673.116 1.244.348 1.712.236.464.563.818.981 1.062.418.24.904.36 1.457.36.36 0 .685-.05.975-.151.294-.104.548-.259.76-.464.213-.209.378-.468.494-.778l1.323.372a2.938 2.938 0 0 1-.702 1.184 3.435 3.435 0 0 1-1.219.789 4.515 4.515 0 0 1-1.631.278Zm5.775 3.158v-12.258h1.323v1.416h.163c.1-.155.24-.352.418-.592.181-.244.441-.46.777-.65.341-.193.801-.29 1.382-.29.75 0 1.412.188 1.985.563.572.375 1.019.907 1.34 1.596.321.689.482 1.501.482 2.438 0 .944-.161 1.762-.482 2.455-.321.688-.766 1.222-1.335 1.601-.568.376-1.224.563-1.967.563-.573 0-1.031-.094-1.376-.284-.344-.193-.609-.412-.795-.656a8.539 8.539 0 0 1-.429-.615h-.116v4.713h-1.37Zm1.346-7.801c0 .674.099 1.268.296 1.782.198.511.486.911.865 1.202.379.286.844.429 1.393.429.573 0 1.051-.151 1.434-.453.387-.305.677-.715.87-1.23a4.817 4.817 0 0 0 .296-1.73c0-.626-.096-1.191-.29-1.694-.189-.507-.478-.908-.865-1.202-.383-.298-.864-.447-1.445-.447-.557 0-1.025.142-1.404.424-.38.279-.666.669-.859 1.172-.194.5-.291 1.082-.291 1.747Zm11.237 4.667a3.618 3.618 0 0 1-1.538-.32 2.633 2.633 0 0 1-1.097-.934c-.271-.41-.406-.905-.406-1.486 0-.51.1-.925.301-1.242.202-.321.47-.572.807-.754a4.242 4.242 0 0 1 1.114-.407c.411-.092.823-.166 1.237-.22.541-.07.981-.122 1.317-.157.341-.039.588-.102.743-.191.159-.089.238-.244.238-.465v-.046c0-.573-.157-1.018-.47-1.335-.31-.317-.78-.476-1.41-.476-.654 0-1.167.143-1.538.43-.372.286-.633.592-.784.917l-1.3-.465c.232-.541.542-.963.929-1.265.39-.306.816-.518 1.276-.638a5.299 5.299 0 0 1 1.37-.186c.286 0 .615.035.987.104a3.16 3.16 0 0 1 1.085.412c.352.209.644.525.877.946.232.422.348.987.348 1.695v5.874h-1.37v-1.207h-.07c-.092.193-.247.4-.464.621-.217.22-.505.408-.865.563-.36.154-.799.232-1.317.232Zm.209-1.231c.541 0 .998-.106 1.369-.319a2.172 2.172 0 0 0 1.138-1.886v-1.254c-.058.07-.186.134-.383.192a6.612 6.612 0 0 1-.673.145 35.138 35.138 0 0 1-1.312.174 5.223 5.223 0 0 0-.998.226 1.721 1.721 0 0 0-.743.459c-.186.201-.279.476-.279.824 0 .476.176.836.528 1.079.356.24.807.36 1.353.36Zm10.973 1.022v-8.915h1.37v3.877h.906l3.203-3.877h1.765l-3.599 4.295 3.645 4.62h-1.764l-2.925-3.761h-1.231v3.761h-1.37Zm8.779 3.343v-12.258h1.323v1.416h.163c.1-.155.24-.352.418-.592.181-.244.441-.46.777-.65.341-.193.801-.29 1.382-.29.75 0 1.412.188 1.985.563.572.375 1.019.907 1.34 1.596.321.689.482 1.501.482 2.438 0 .944-.161 1.762-.482 2.455-.321.688-.766 1.222-1.335 1.601-.568.376-1.224.563-1.967.563-.573 0-1.031-.094-1.376-.284-.344-.193-.609-.412-.795-.656a8.227 8.227 0 0 1-.429-.615h-.116v4.713h-1.37Zm1.346-7.801c0 .674.099 1.268.296 1.782.198.511.486.911.865 1.202.379.286.844.429 1.393.429.573 0 1.051-.151 1.434-.453.387-.305.677-.715.87-1.23a4.817 4.817 0 0 0 .296-1.73 4.7 4.7 0 0 0-.29-1.694c-.19-.507-.478-.908-.865-1.202-.383-.298-.865-.447-1.445-.447-.557 0-1.025.142-1.404.424-.38.279-.666.669-.859 1.172-.194.5-.291 1.082-.291 1.747Zm12.351 4.643c-.859 0-1.6-.189-2.223-.568a3.812 3.812 0 0 1-1.433-1.602c-.333-.689-.5-1.49-.5-2.403s.167-1.718.5-2.414c.336-.701.804-1.246 1.404-1.637.604-.395 1.308-.592 2.113-.592.464 0 .923.077 1.375.232.453.155.865.406 1.237.755.371.344.667.8.888 1.369.22.569.33 1.269.33 2.101v.581h-6.871v-1.184h5.478c0-.503-.1-.952-.301-1.347a2.279 2.279 0 0 0-.848-.934c-.363-.229-.793-.343-1.288-.343-.546 0-1.018.136-1.416.407a2.675 2.675 0 0 0-.912 1.044c-.212.43-.319.89-.319 1.382v.789c0 .673.116 1.244.348 1.712.236.464.563.818.981 1.062.418.24.904.36 1.457.36.36 0 .685-.05.975-.151.294-.104.548-.259.76-.464.213-.209.378-.468.494-.778l1.323.372a2.938 2.938 0 0 1-.702 1.184 3.435 3.435 0 0 1-1.219.789 4.515 4.515 0 0 1-1.631.278Zm4.823 2.368v-3.83h.743a3.41 3.41 0 0 0 .47-.615c.132-.221.246-.482.343-.784.1-.306.185-.677.255-1.114.07-.441.131-.973.186-1.596l.301-3.529h5.665v7.638h1.37v3.83h-1.37v-2.553h-6.593v2.553h-1.37Zm2.298-3.83h4.295v-6.361h-3.018l-.232 2.252a25.33 25.33 0 0 1-.36 2.443c-.143.697-.371 1.252-.685 1.666Zm10.223-.743 4.294-6.895h1.579v8.915h-1.37v-6.895l-4.271 6.895h-1.602v-8.915h1.37v6.895Zm7.169-5.618v-1.277h7.243v1.277h-2.925v7.638h-1.37v-7.638h-2.948Zm15.207 2.554v1.276h-4.921v-1.276h4.921Zm-4.596-3.831v8.915h-1.37v-8.915h1.37Zm5.641 0v8.915h-1.37v-8.915h1.37Zm3.686 3.227h2.553c1.045 0 1.844.265 2.397.795.554.53.83 1.201.83 2.014a2.9 2.9 0 0 1-.371 1.457 2.704 2.704 0 0 1-1.091 1.039c-.48.255-1.068.383-1.765.383h-3.737v-8.915h1.369v7.638h2.368c.542 0 .987-.143 1.335-.43.348-.286.523-.653.523-1.102 0-.472-.175-.857-.523-1.155-.348-.298-.793-.447-1.335-.447h-2.553v-1.277Zm7.196 5.688v-8.915h1.37v8.915h-1.37Zm4.899-8.915 2.136 3.645 2.136-3.645h1.578l-2.878 4.457 2.878 4.458h-1.578l-2.136-3.459-2.136 3.459h-1.579l2.833-4.458-2.833-4.457h1.579Zm12.401 8.915v-8.915h1.37v3.877h.906l3.203-3.877h1.765l-3.599 4.295 3.645 4.62h-1.764l-2.925-3.761h-1.231v3.761h-1.37Zm11.402.209a3.621 3.621 0 0 1-1.538-.32 2.64 2.64 0 0 1-1.097-.934c-.271-.41-.406-.905-.406-1.486 0-.51.101-.925.302-1.242.201-.321.47-.572.807-.754a4.229 4.229 0 0 1 1.114-.407c.41-.092.822-.166 1.236-.22.542-.07.981-.122 1.318-.157.34-.039.588-.102.742-.191.159-.089.238-.244.238-.465v-.046c0-.573-.156-1.018-.47-1.335-.309-.317-.779-.476-1.41-.476-.654 0-1.167.143-1.538.43-.372.286-.633.592-.784.917l-1.3-.465c.233-.541.542-.963.929-1.265a3.473 3.473 0 0 1 1.277-.638 5.293 5.293 0 0 1 1.37-.186c.286 0 .615.035.986.104.376.066.737.203 1.086.412.352.209.644.525.876.946.232.422.348.987.348 1.695v5.874h-1.37v-1.207h-.069c-.093.193-.248.4-.465.621-.216.22-.504.408-.864.563-.36.154-.799.232-1.318.232Zm.209-1.231c.542 0 .998-.106 1.37-.319.375-.213.658-.487.847-.824.194-.337.29-.691.29-1.062v-1.254c-.058.07-.185.134-.383.192a6.554 6.554 0 0 1-.673.145 34.229 34.229 0 0 1-1.312.174 5.24 5.24 0 0 0-.998.226 1.733 1.733 0 0 0-.743.459c-.185.201-.278.476-.278.824 0 .476.176.836.528 1.079.356.24.807.36 1.352.36Zm6.377 4.365v-12.258h1.323v1.416h.163c.101-.155.24-.352.418-.592.182-.244.441-.46.778-.65.34-.193.801-.29 1.381-.29.751 0 1.412.188 1.985.563.572.375 1.019.907 1.341 1.596.321.689.481 1.501.481 2.438 0 .944-.16 1.762-.481 2.455-.322.688-.767 1.222-1.335 1.601-.569.376-1.225.563-1.968.563-.573 0-1.031-.094-1.375-.284-.345-.193-.61-.412-.796-.656a8.876 8.876 0 0 1-.429-.615h-.116v4.713h-1.37Zm1.347-7.801c0 .674.098 1.268.296 1.782.197.511.485.911.864 1.202.38.286.844.429 1.393.429.573 0 1.051-.151 1.434-.453.387-.305.677-.715.871-1.23a4.839 4.839 0 0 0 .296-1.73c0-.626-.097-1.191-.291-1.694-.189-.507-.478-.908-.864-1.202-.383-.298-.865-.447-1.446-.447-.557 0-1.025.142-1.404.424-.379.279-.666.669-.859 1.172-.194.5-.29 1.082-.29 1.747Zm7.448-3.18v-1.277h7.243v1.277h-2.925v7.638h-1.37v-7.638h-2.948Z"/><rect width="11.236" height="11.236" x="99" y="535.751" fill="#C689FF" rx="2.043"/><path fill="#6D6D6E" d="M350.151 547.584c-.766 0-1.449-.131-2.049-.394-.596-.264-1.07-.629-1.422-1.097a2.944 2.944 0 0 1-.568-1.643h1.462c.031.383.163.714.395.993.232.274.536.487.911.638.375.151.791.226 1.248.226.511 0 .963-.089 1.358-.267.395-.178.704-.425.929-.743a1.86 1.86 0 0 0 .336-1.102c0-.438-.108-.822-.325-1.155-.217-.337-.534-.6-.952-.79-.418-.189-.928-.284-1.532-.284h-.952v-1.277h.952c.472 0 .886-.085 1.242-.255.36-.17.64-.41.842-.72.205-.309.307-.673.307-1.091 0-.402-.089-.753-.267-1.051a1.827 1.827 0 0 0-.754-.696c-.321-.166-.701-.25-1.138-.25a3 3 0 0 0-1.161.227 2.175 2.175 0 0 0-.882.644 1.677 1.677 0 0 0-.371 1.01h-1.393a2.83 2.83 0 0 1 .563-1.637 3.55 3.55 0 0 1 1.381-1.103 4.468 4.468 0 0 1 1.886-.394c.736 0 1.366.149 1.893.447.526.294.93.683 1.213 1.166.282.484.423 1.006.423 1.567 0 .67-.176 1.24-.528 1.712-.348.473-.822.799-1.422.981v.093c.751.124 1.337.443 1.759.958.421.511.632 1.143.632 1.898 0 .646-.176 1.226-.528 1.741a3.581 3.581 0 0 1-1.428 1.207c-.603.294-1.29.441-2.06.441Zm7.435-9.077 2.136 3.645 2.135-3.645h1.579l-2.879 4.457 2.879 4.458h-1.579l-2.135-3.459-2.136 3.459h-1.579l2.832-4.458-2.832-4.457h1.579ZM120.869 576.023v-11.886h7.174v1.277h-5.735v3.714h3.018c.852 0 1.569.139 2.154.418.588.279 1.033.671 1.335 1.178.305.507.458 1.105.458 1.794 0 .688-.153 1.296-.458 1.822-.302.526-.747.938-1.335 1.236-.585.298-1.302.447-2.154.447h-4.457Zm1.439-1.254h3.018c.542 0 1.001-.108 1.376-.325.379-.22.665-.503.859-.847.197-.348.296-.716.296-1.103 0-.568-.219-1.058-.656-1.468-.437-.414-1.062-.621-1.875-.621h-3.018v4.364Zm11.772 1.463a3.62 3.62 0 0 1-1.538-.319 2.642 2.642 0 0 1-1.097-.935c-.271-.41-.406-.905-.406-1.485 0-.511.101-.925.302-1.242.201-.322.47-.573.806-.755a4.248 4.248 0 0 1 1.115-.406c.41-.093.822-.167 1.236-.221.542-.069.981-.122 1.318-.156.34-.039.588-.103.742-.192.159-.089.238-.244.238-.464v-.047c0-.572-.156-1.017-.47-1.335-.309-.317-.779-.476-1.41-.476-.654 0-1.167.144-1.538.43-.372.286-.633.592-.784.917l-1.3-.464c.232-.542.542-.964.929-1.266a3.488 3.488 0 0 1 1.277-.638 5.293 5.293 0 0 1 1.37-.186c.286 0 .615.035.986.105a3.14 3.14 0 0 1 1.085.412c.353.209.645.524.877.946.232.422.348.986.348 1.695v5.873h-1.37v-1.207h-.069c-.093.193-.248.4-.465.621-.216.22-.504.408-.864.563-.36.155-.799.232-1.318.232Zm.209-1.23c.542 0 .998-.107 1.37-.32.375-.212.658-.487.847-.824.194-.336.29-.69.29-1.062v-1.254c-.058.07-.185.134-.383.192a6.352 6.352 0 0 1-.673.145 29.004 29.004 0 0 1-1.312.174 5.24 5.24 0 0 0-.998.227c-.306.1-.553.253-.743.458-.185.201-.278.476-.278.824 0 .476.176.836.528 1.08.356.24.807.36 1.352.36Zm12.344-4.063v1.277h-4.922v-1.277h4.922Zm-4.597-3.831v8.915h-1.37v-8.915h1.37Zm5.641 0v8.915h-1.369v-8.915h1.369Zm2.502 8.915v-8.915h1.369v3.877h.906l3.204-3.877h1.764l-3.598 4.295 3.644 4.62h-1.764l-2.925-3.761h-1.231v3.761h-1.369Zm12.033.186c-.805 0-1.511-.192-2.119-.575-.603-.383-1.075-.919-1.416-1.607-.337-.689-.505-1.494-.505-2.415 0-.929.168-1.739.505-2.432.341-.692.813-1.23 1.416-1.613.608-.383 1.314-.575 2.119-.575.804 0 1.509.192 2.112.575.608.383 1.08.921 1.416 1.613.341.693.511 1.503.511 2.432 0 .921-.17 1.726-.511 2.415-.336.688-.808 1.224-1.416 1.607-.603.383-1.308.575-2.112.575Zm0-1.231c.611 0 1.114-.156 1.509-.47.394-.313.686-.725.876-1.236.19-.511.284-1.064.284-1.66 0-.596-.094-1.151-.284-1.666a2.814 2.814 0 0 0-.876-1.247c-.395-.318-.898-.476-1.509-.476-.612 0-1.115.158-1.509.476a2.808 2.808 0 0 0-.877 1.247 4.798 4.798 0 0 0-.284 1.666c0 .596.095 1.149.284 1.66.19.511.482.923.877 1.236.394.314.897.47 1.509.47Zm6.13 1.045v-8.915h3.645c.959 0 1.722.217 2.287.65.565.434.847 1.006.847 1.718 0 .542-.161.962-.482 1.26-.321.294-.733.493-1.236.598.329.046.648.162.958.348.313.185.572.441.777.766.205.321.308.716.308 1.184 0 .456-.116.865-.348 1.224-.232.36-.565.645-.999.854-.433.209-.951.313-1.555.313h-4.202Zm1.3-1.254h2.902c.472 0 .842-.112 1.109-.336.267-.225.4-.53.4-.917 0-.461-.133-.822-.4-1.086-.267-.267-.637-.4-1.109-.4h-2.902v2.739Zm0-3.923h2.345c.367 0 .683-.05.946-.151.263-.104.464-.251.604-.441a1.12 1.12 0 0 0 .214-.685c0-.375-.156-.669-.47-.882-.313-.217-.745-.325-1.294-.325h-2.345v2.484Zm11.499 5.363c-.836 0-1.555-.198-2.159-.592a3.855 3.855 0 0 1-1.393-1.631c-.325-.693-.487-1.484-.487-2.374 0-.905.166-1.704.499-2.397.336-.696.804-1.24 1.404-1.631.604-.394 1.308-.592 2.113-.592.627 0 1.192.116 1.695.348a3.26 3.26 0 0 1 1.236.975c.321.418.52.906.598 1.463h-1.37c-.105-.406-.337-.766-.697-1.079-.356-.318-.835-.476-1.439-.476-.534 0-1.002.139-1.404.418-.399.274-.71.663-.935 1.166-.22.499-.331 1.085-.331 1.759 0 .688.109 1.288.325 1.799.221.511.53.907.929 1.19.402.282.874.423 1.416.423.356 0 .679-.062.969-.185.291-.124.536-.302.737-.534.202-.232.345-.511.43-.836h1.37a3.18 3.18 0 0 1-.575 1.422 3.204 3.204 0 0 1-1.201.998c-.496.244-1.072.366-1.73.366Zm5.508-.186v-8.915h1.37v3.877h.905l3.204-3.877h1.764l-3.598 4.295 3.645 4.62h-1.765l-2.925-3.761h-1.23v3.761h-1.37Zm10.148-2.02 4.295-6.895h1.579v8.915h-1.37v-6.895l-4.272 6.895h-1.602v-8.915h1.37v6.895Zm9.752 0 4.295-6.895h1.579v8.915h-1.37v-6.895l-4.272 6.895h-1.602v-8.915h1.37v6.895Zm3.39-9.866h1.276c0 .627-.216 1.139-.65 1.538-.433.398-1.021.598-1.764.598-.731 0-1.314-.2-1.747-.598-.429-.399-.644-.911-.644-1.538h1.277c0 .301.083.567.249.795.17.228.459.342.865.342.406 0 .696-.114.871-.342.178-.228.267-.494.267-.795Zm13.211 12.072c-.836 0-1.556-.198-2.159-.592a3.855 3.855 0 0 1-1.393-1.631c-.325-.693-.488-1.484-.488-2.374 0-.905.167-1.704.499-2.397.337-.696.805-1.24 1.405-1.631.603-.394 1.308-.592 2.112-.592.627 0 1.192.116 1.695.348a3.26 3.26 0 0 1 1.236.975c.322.418.521.906.598 1.463h-1.369c-.105-.406-.337-.766-.697-1.079-.356-.318-.836-.476-1.439-.476-.534 0-1.002.139-1.405.418-.398.274-.71.663-.934 1.166-.221.499-.331 1.085-.331 1.759 0 .688.108 1.288.325 1.799.22.511.53.907.929 1.19.402.282.874.423 1.416.423.356 0 .679-.062.969-.185.29-.124.536-.302.737-.534a2.06 2.06 0 0 0 .43-.836h1.369c-.077.526-.269 1-.574 1.422a3.208 3.208 0 0 1-1.202.998c-.495.244-1.072.366-1.729.366Zm12.379-9.101v8.915h-1.369v-8.915h1.369Zm-.534 4.249v1.277c-.309.116-.617.218-.922.307a7.966 7.966 0 0 1-.964.203 8.04 8.04 0 0 1-1.108.07c-1.01 0-1.821-.273-2.432-.818-.608-.546-.911-1.364-.911-2.455v-2.856h1.369v2.856c0 .456.087.831.261 1.126.175.294.411.512.709.655.297.144.632.215 1.004.215.58 0 1.104-.052 1.572-.157.473-.108.947-.249 1.422-.423Zm6.785 4.852c-.859 0-1.6-.19-2.223-.569a3.812 3.812 0 0 1-1.433-1.602c-.333-.689-.499-1.49-.499-2.403s.166-1.718.499-2.414c.336-.7.805-1.246 1.404-1.637.604-.394 1.308-.592 2.113-.592.464 0 .923.078 1.375.232a3.42 3.42 0 0 1 1.237.755c.371.344.667.801.888 1.37.22.568.33 1.269.33 2.101v.58H238.6v-1.184h5.479c0-.503-.101-.952-.302-1.347a2.279 2.279 0 0 0-.848-.934c-.363-.228-.793-.342-1.288-.342-.546 0-1.018.135-1.416.406a2.66 2.66 0 0 0-.911 1.045c-.213.429-.32.89-.32 1.381v.789c0 .674.116 1.244.349 1.712.236.465.563.819.98 1.063.418.239.904.359 1.457.359.36 0 .685-.05.975-.151.294-.104.548-.259.761-.464.212-.209.377-.468.493-.778l1.323.372a2.931 2.931 0 0 1-.702 1.184c-.329.337-.735.6-1.219.789a4.515 4.515 0 0 1-1.631.279Zm4.945-7.824v-1.277h7.243v1.277h-2.925v7.638h-1.37v-7.638h-2.948Z"/><rect width="11.236" height="11.236" x="99" y="564.353" fill="#AB71FF" rx="2.043"/><path fill="#6D6D6E" d="M345.135 576.023v-1.045l3.923-4.295c.461-.503.84-.94 1.138-1.311.298-.376.518-.728.661-1.057.147-.332.221-.681.221-1.044 0-.418-.101-.78-.302-1.086a1.966 1.966 0 0 0-.812-.708 2.644 2.644 0 0 0-1.161-.249c-.457 0-.855.095-1.196.284a1.956 1.956 0 0 0-.783.784c-.182.336-.273.731-.273 1.184h-1.37c0-.697.161-1.308.482-1.834a3.338 3.338 0 0 1 1.312-1.231c.557-.294 1.182-.441 1.874-.441.697 0 1.314.147 1.852.441.537.294.959.691 1.265 1.19.306.499.458 1.054.458 1.666 0 .437-.079.865-.238 1.282-.154.414-.425.877-.812 1.388-.383.506-.915 1.125-1.596 1.857l-2.67 2.855v.093h5.525v1.277h-7.498Zm10.94-8.915 2.136 3.645 2.136-3.645h1.578l-2.878 4.458 2.878 4.457h-1.578l-2.136-3.459-2.136 3.459h-1.579l2.833-4.457-2.833-4.458h1.579ZM119.848 607.503v-4.155h.766c.263-.24.51-.579.743-1.016.236-.441.435-1.029.597-1.764.167-.739.277-1.678.331-2.815l.256-5.015h7.057v10.61h1.37v4.132h-1.37v-2.855h-8.381v2.878h-1.369Zm2.484-4.155h5.896v-9.333h-4.387l-.186 3.738a21.855 21.855 0 0 1-.244 2.356 12.036 12.036 0 0 1-.447 1.863 6.418 6.418 0 0 1-.632 1.376Zm10.625 4.62V595.71h1.323v1.416h.163c.101-.155.24-.352.418-.592.182-.244.441-.46.778-.65.34-.193.8-.29 1.381-.29.75 0 1.412.187 1.985.563.572.375 1.019.907 1.34 1.596.322.689.482 1.501.482 2.437 0 .945-.16 1.763-.482 2.456-.321.688-.766 1.222-1.334 1.601-.569.376-1.225.563-1.968.563-.573 0-1.031-.094-1.375-.284-.345-.193-.61-.412-.796-.656a9.388 9.388 0 0 1-.429-.615h-.116v4.713h-1.37Zm1.347-7.801c0 .673.098 1.267.296 1.782.197.511.485.911.864 1.201.38.287.844.43 1.393.43.573 0 1.051-.151 1.434-.453.387-.305.677-.716.87-1.23a4.817 4.817 0 0 0 .296-1.73c0-.627-.096-1.191-.29-1.694-.189-.507-.478-.908-.864-1.202-.384-.298-.865-.447-1.446-.447-.557 0-1.025.141-1.404.424-.379.278-.666.669-.859 1.172-.194.499-.29 1.082-.29 1.747Zm9.176 7.801c-.233 0-.44-.02-.621-.058a1.645 1.645 0 0 1-.378-.105l.349-1.207c.332.085.626.116.882.093a1.06 1.06 0 0 0 .679-.343c.201-.201.385-.528.551-.98l.256-.697-3.297-8.961h1.486l2.461 7.104h.092l2.461-7.104h1.486l-3.784 10.215c-.17.46-.381.841-.633 1.143a2.36 2.36 0 0 1-.876.679c-.329.147-.7.221-1.114.221Zm13.717-12.258v1.277h-4.132v7.638h-1.37v-8.915h5.502Zm5.158 9.1c-.804 0-1.511-.191-2.118-.574-.604-.383-1.076-.919-1.416-1.608-.337-.689-.505-1.493-.505-2.414 0-.929.168-1.74.505-2.432.34-.693.812-1.231 1.416-1.614.607-.383 1.314-.574 2.118-.574.805 0 1.509.191 2.113.574.607.383 1.079.921 1.416 1.614.341.692.511 1.503.511 2.432 0 .921-.17 1.725-.511 2.414-.337.689-.809 1.225-1.416 1.608-.604.383-1.308.574-2.113.574Zm0-1.23c.612 0 1.115-.157 1.509-.47a2.78 2.78 0 0 0 .877-1.236 4.747 4.747 0 0 0 .284-1.66c0-.596-.095-1.151-.284-1.666a2.806 2.806 0 0 0-.877-1.248c-.394-.317-.897-.476-1.509-.476-.611 0-1.114.159-1.509.476a2.804 2.804 0 0 0-.876 1.248 4.774 4.774 0 0 0-.284 1.666c0 .596.094 1.149.284 1.66.189.51.482.922.876 1.236.395.313.898.47 1.509.47Zm9.868 1.23c-.859 0-1.6-.189-2.223-.568a3.819 3.819 0 0 1-1.433-1.602c-.333-.689-.499-1.49-.499-2.403s.166-1.718.499-2.415c.337-.7.805-1.245 1.404-1.636.604-.395 1.308-.592 2.113-.592.464 0 .923.077 1.376.232.452.155.864.406 1.236.754.371.345.667.801.888 1.37.22.569.331 1.269.331 2.101v.581h-6.872v-1.184h5.479c0-.503-.101-.952-.302-1.347a2.27 2.27 0 0 0-.847-.934c-.364-.229-.794-.343-1.289-.343-.545 0-1.018.136-1.416.406a2.675 2.675 0 0 0-.911 1.045c-.213.43-.319.89-.319 1.381v.79c0 .673.116 1.244.348 1.712.236.464.563.818.981 1.062.417.24.903.36 1.456.36.36 0 .685-.05.975-.151.294-.104.548-.259.761-.464.213-.209.377-.468.493-.778l1.323.371a2.925 2.925 0 0 1-.702 1.184c-.329.337-.735.6-1.219.79a4.533 4.533 0 0 1-1.631.278Z"/><rect width="11.236" height="11.236" x="99" y="592.954" fill="#45278D" rx="2.043"/><path fill="#6D6D6E" d="M350.314 592.738v11.887h-1.44v-10.378h-.069l-2.902 1.927v-1.462l2.971-1.974h1.44Zm4.463 2.972 2.136 3.645 2.135-3.645h1.579l-2.879 4.457 2.879 4.458h-1.579l-2.135-3.46-2.136 3.46h-1.579l2.832-4.458-2.832-4.457h1.579ZM121.357 489.196h-1.509l4.364-11.886h1.486l4.364 11.886h-1.509l-3.552-10.006h-.092l-3.552 10.006Zm.557-4.643h6.082v1.277h-6.082v-1.277Zm8.862 7.197v-3.831h.743c.182-.189.339-.394.47-.615.132-.22.246-.481.343-.783.1-.306.185-.677.255-1.115.07-.441.132-.973.186-1.596l.302-3.528h5.664v7.637h1.37v3.831h-1.37v-2.554h-6.593v2.554h-1.37Zm2.299-3.831h4.295v-6.361h-3.018l-.233 2.252a25.07 25.07 0 0 1-.359 2.444c-.144.696-.372 1.251-.685 1.665Zm8.852 4.62v-12.257h1.323v1.416h.163c.1-.155.24-.352.418-.592.182-.244.441-.461.777-.65.341-.194.801-.291 1.382-.291.75 0 1.412.188 1.985.563.572.376 1.019.908 1.34 1.597.322.688.482 1.501.482 2.437 0 .944-.16 1.763-.482 2.455-.321.689-.766 1.223-1.334 1.602-.569.375-1.225.563-1.968.563-.573 0-1.031-.095-1.376-.284-.344-.194-.609-.412-.795-.656a9.011 9.011 0 0 1-.429-.615h-.116v4.712h-1.37Zm1.347-7.8c0 .673.098 1.267.296 1.782.197.51.485.911.864 1.201.38.286.844.43 1.393.43.573 0 1.051-.151 1.434-.453.387-.306.677-.716.87-1.23a4.817 4.817 0 0 0 .296-1.73c0-.627-.096-1.192-.29-1.695-.189-.507-.478-.907-.865-1.201-.383-.298-.864-.447-1.445-.447-.557 0-1.025.141-1.404.424-.379.278-.666.669-.859 1.172-.194.499-.29 1.081-.29 1.747Zm12.35 4.643c-.859 0-1.6-.19-2.223-.569a3.812 3.812 0 0 1-1.433-1.602c-.333-.688-.499-1.489-.499-2.402 0-.914.166-1.718.499-2.415.336-.7.805-1.246 1.404-1.637.604-.394 1.308-.592 2.113-.592.464 0 .923.078 1.375.233.453.154.865.406 1.237.754.371.345.667.801.888 1.37.22.569.331 1.269.331 2.101v.58h-6.872v-1.184h5.479c0-.503-.101-.952-.302-1.346a2.281 2.281 0 0 0-.848-.935c-.363-.228-.793-.342-1.288-.342-.546 0-1.018.135-1.416.406a2.66 2.66 0 0 0-.911 1.045c-.213.429-.32.89-.32 1.381v.79c0 .673.116 1.244.349 1.712.236.464.563.818.98 1.062.418.24.904.36 1.457.36.36 0 .685-.051.975-.151.294-.105.548-.259.761-.465a2.12 2.12 0 0 0 .493-.777l1.323.371a2.925 2.925 0 0 1-.702 1.184c-.329.337-.735.6-1.219.789a4.515 4.515 0 0 1-1.631.279Zm9.397 0c-.836 0-1.556-.197-2.159-.592a3.855 3.855 0 0 1-1.393-1.631c-.325-.692-.488-1.484-.488-2.374 0-.905.167-1.704.499-2.397.337-.696.805-1.24 1.405-1.631.604-.394 1.308-.592 2.113-.592a4 4 0 0 1 1.694.349 3.24 3.24 0 0 1 1.236.975c.322.418.521.905.598 1.462h-1.369c-.105-.406-.337-.766-.697-1.079-.356-.317-.836-.476-1.439-.476-.534 0-1.002.139-1.405.418-.398.275-.71.663-.934 1.166-.221.5-.331 1.086-.331 1.759 0 .689.108 1.288.325 1.799.221.511.53.908.929 1.19.402.282.874.424 1.416.424.356 0 .679-.062.969-.186.29-.124.536-.302.737-.534a2.06 2.06 0 0 0 .43-.836h1.369c-.077.526-.269 1-.574 1.422a3.208 3.208 0 0 1-1.202.998c-.495.244-1.071.366-1.729.366Zm13.053-7.94c-.31.004-.621.084-.935.238-.309.155-.568.36-.777.616a1.293 1.293 0 0 0-.308.841h-1.347c0-.387.093-.758.279-1.114.186-.356.435-.674.749-.952a3.754 3.754 0 0 1 1.079-.662 3.375 3.375 0 0 1 1.26-.244c.812 0 1.501.206 2.066.616.569.41 1 .952 1.294 1.625.298.673.447 1.404.447 2.194v.325a5.39 5.39 0 0 1-.447 2.194 3.866 3.866 0 0 1-1.294 1.625c-.565.41-1.254.615-2.066.615-.65 0-1.229-.143-1.736-.43a3.246 3.246 0 0 1-1.195-1.16 3.081 3.081 0 0 1-.436-1.614h1.347c0 .337.095.652.284.946.194.29.443.526.749.708.31.178.638.269.987.273.518-.004.959-.166 1.323-.488.364-.321.64-.723.83-1.207.19-.483.284-.971.284-1.462v-.325c0-.503-.094-.995-.284-1.475a2.982 2.982 0 0 0-.824-1.201c-.36-.317-.803-.478-1.329-.482Zm2.995 2.624v1.277h-3.901v-1.277h3.901Zm2.109 5.13v-1.277h.325c.267 0 .49-.052.668-.156.178-.109.321-.296.429-.563.112-.271.198-.646.256-1.126a21.39 21.39 0 0 0 .133-1.846l.163-3.946h5.943v8.914h-1.37v-7.638h-3.273l-.14 3.181a14.393 14.393 0 0 1-.197 1.933c-.097.553-.246 1.017-.447 1.393-.197.375-.46.657-.789.847-.329.19-.741.284-1.236.284h-.465Zm14.168.186c-.859 0-1.6-.19-2.223-.569a3.82 3.82 0 0 1-1.434-1.602c-.333-.688-.499-1.489-.499-2.402 0-.914.166-1.718.499-2.415.337-.7.805-1.246 1.405-1.637.603-.394 1.307-.592 2.112-.592.465 0 .923.078 1.376.233a3.4 3.4 0 0 1 1.236.754c.371.345.667.801.888 1.37.221.569.331 1.269.331 2.101v.58h-6.872v-1.184h5.479c0-.503-.101-.952-.302-1.346a2.279 2.279 0 0 0-.847-.935c-.364-.228-.793-.342-1.289-.342-.545 0-1.017.135-1.416.406a2.668 2.668 0 0 0-.911 1.045c-.213.429-.319.89-.319 1.381v.79c0 .673.116 1.244.348 1.712.236.464.563.818.981 1.062.418.24.903.36 1.457.36.359 0 .684-.051.975-.151.294-.105.547-.259.76-.465.213-.209.377-.468.493-.777l1.324.371c-.14.449-.374.844-.703 1.184-.329.337-.735.6-1.219.789a4.51 4.51 0 0 1-1.63.279Zm5.774-.186v-8.914h1.37v3.877h.906l3.203-3.877h1.765l-3.599 4.294 3.645 4.62h-1.764l-2.925-3.761h-1.231v3.761h-1.37Zm8.268-7.638v-1.276h7.243v1.276h-2.925v7.638h-1.37v-7.638h-2.948Zm9.241 10.981v-12.257h1.324v1.416h.162c.101-.155.24-.352.418-.592.182-.244.441-.461.778-.65.34-.194.801-.291 1.381-.291.751 0 1.412.188 1.985.563.573.376 1.02.908 1.341 1.597.321.688.481 1.501.481 2.437 0 .944-.16 1.763-.481 2.455-.321.689-.766 1.223-1.335 1.602-.569.375-1.225.563-1.968.563-.572 0-1.031-.095-1.375-.284-.345-.194-.61-.412-.795-.656a9.083 9.083 0 0 1-.43-.615h-.116v4.712h-1.37Zm1.347-7.8c0 .673.098 1.267.296 1.782.197.51.485.911.865 1.201.379.286.843.43 1.393.43.572 0 1.05-.151 1.433-.453.387-.306.677-.716.871-1.23a4.839 4.839 0 0 0 .296-1.73 4.68 4.68 0 0 0-.291-1.695c-.189-.507-.477-.907-.864-1.201-.383-.298-.865-.447-1.445-.447-.558 0-1.026.141-1.405.424-.379.278-.666.669-.859 1.172-.193.499-.29 1.081-.29 1.747Zm12.234 4.643c-.804 0-1.51-.191-2.118-.575-.604-.383-1.076-.918-1.416-1.607-.337-.689-.505-1.494-.505-2.415 0-.928.168-1.739.505-2.431.34-.693.812-1.231 1.416-1.614.608-.383 1.314-.575 2.118-.575.805 0 1.509.192 2.113.575.608.383 1.08.921 1.416 1.614.341.692.511 1.503.511 2.431 0 .921-.17 1.726-.511 2.415a3.838 3.838 0 0 1-1.416 1.607c-.604.384-1.308.575-2.113.575Zm0-1.23c.612 0 1.115-.157 1.509-.47.395-.314.687-.726.877-1.237.189-.51.284-1.064.284-1.66 0-.595-.095-1.151-.284-1.665a2.806 2.806 0 0 0-.877-1.248c-.394-.317-.897-.476-1.509-.476-.611 0-1.114.159-1.509.476a2.812 2.812 0 0 0-.876 1.248 4.769 4.769 0 0 0-.284 1.665c0 .596.094 1.15.284 1.66.19.511.482.923.876 1.237.395.313.898.47 1.509.47Zm12.097-4.04v1.277h-4.921v-1.277h4.921Zm-4.596-3.83v8.914h-1.37v-8.914h1.37Zm5.641 0v8.914h-1.37v-8.914h1.37Zm8.468 3.83v1.277h-4.922v-1.277h4.922Zm-4.597-3.83v8.914h-1.37v-8.914h1.37Zm5.642 0v8.914h-1.37v-8.914h1.37Zm6.123 9.1c-.805 0-1.511-.191-2.119-.575-.603-.383-1.075-.918-1.416-1.607-.337-.689-.505-1.494-.505-2.415 0-.928.168-1.739.505-2.431.341-.693.813-1.231 1.416-1.614.608-.383 1.314-.575 2.119-.575.804 0 1.509.192 2.112.575.608.383 1.08.921 1.416 1.614.341.692.511 1.503.511 2.431 0 .921-.17 1.726-.511 2.415a3.838 3.838 0 0 1-1.416 1.607c-.603.384-1.308.575-2.112.575Zm0-1.23c.611 0 1.114-.157 1.509-.47.394-.314.686-.726.876-1.237a4.72 4.72 0 0 0 .284-1.66c0-.595-.094-1.151-.284-1.665a2.812 2.812 0 0 0-.876-1.248c-.395-.317-.898-.476-1.509-.476-.612 0-1.115.159-1.509.476a2.806 2.806 0 0 0-.877 1.248 4.792 4.792 0 0 0-.284 1.665c0 .596.095 1.15.284 1.66.19.511.482.923.877 1.237.394.313.897.47 1.509.47Zm7.5-.975 4.295-6.895h1.578v8.914h-1.369v-6.895l-4.272 6.895h-1.602v-8.914h1.37v6.895Zm3.389-9.867h1.277c0 .627-.217 1.139-.65 1.538-.433.399-1.021.598-1.764.598-.732 0-1.314-.199-1.747-.598-.43-.399-.645-.911-.645-1.538h1.277c0 .302.083.567.25.795.17.228.458.343.865.343.406 0 .696-.115.87-.343.178-.228.267-.493.267-.795Zm9.59 11.886v-8.914h7.011v8.914h-1.37v-7.638h-4.272v7.638h-1.369Zm13.134.186c-.805 0-1.511-.191-2.119-.575-.603-.383-1.075-.918-1.416-1.607-.336-.689-.505-1.494-.505-2.415 0-.928.169-1.739.505-2.431.341-.693.813-1.231 1.416-1.614.608-.383 1.314-.575 2.119-.575.805 0 1.509.192 2.113.575.607.383 1.079.921 1.416 1.614.34.692.51 1.503.51 2.431 0 .921-.17 1.726-.51 2.415-.337.689-.809 1.224-1.416 1.607-.604.384-1.308.575-2.113.575Zm0-1.23c.611 0 1.114-.157 1.509-.47.395-.314.687-.726.876-1.237a4.72 4.72 0 0 0 .285-1.66c0-.595-.095-1.151-.285-1.665a2.796 2.796 0 0 0-.876-1.248c-.395-.317-.898-.476-1.509-.476-.611 0-1.114.159-1.509.476a2.806 2.806 0 0 0-.877 1.248 4.792 4.792 0 0 0-.284 1.665c0 .596.095 1.15.284 1.66.19.511.482.923.877 1.237.395.313.898.47 1.509.47Zm13.002-7.87v8.914h-1.37v-8.914h1.37Zm-.534 4.248v1.277c-.309.116-.617.218-.923.307a7.948 7.948 0 0 1-.963.204 8.224 8.224 0 0 1-1.109.069c-1.01 0-1.82-.273-2.432-.818-.607-.546-.911-1.364-.911-2.455v-2.856h1.37v2.856c0 .456.087.832.261 1.126.174.294.41.512.708.656.298.143.633.214 1.004.214a7.27 7.27 0 0 0 1.573-.156c.472-.109.946-.25 1.422-.424Zm1.834-2.972v-1.276h7.243v1.276h-2.925v7.638h-1.369v-7.638h-2.949Zm10.425 1.951h2.554c1.045 0 1.844.265 2.397.795.553.53.83 1.201.83 2.014 0 .534-.124 1.019-.371 1.456-.248.434-.612.78-1.092 1.039-.479.256-1.067.383-1.764.383h-3.738v-8.914h1.37v7.637h2.368c.542 0 .987-.143 1.335-.429.348-.286.522-.654.522-1.103a1.45 1.45 0 0 0-.522-1.155c-.348-.298-.793-.447-1.335-.447h-2.554v-1.276Zm7.197 5.687v-8.914h1.37v8.914h-1.37ZM344.856 486.759v-1.184l5.224-8.265h.859v1.834h-.581l-3.946 6.245v.093h7.034v1.277h-8.59Zm5.595 2.437V477.31h1.37v11.886h-1.37Zm6.215-8.914 2.135 3.644 2.136-3.644h1.579l-2.879 4.457 2.879 4.457h-1.579l-2.136-3.459-2.135 3.459h-1.579l2.832-4.457-2.832-4.457h1.579Z"/><rect width="11.236" height="11.236" x="99" y="477.526" fill="#592ACB" rx="2.043"/><path fill="#C689FF" d="M265.793 175.159a137.864 137.864 0 0 1 22.32 7.786l-16.923 37.75a96.602 96.602 0 0 0-15.624-5.45l10.227-40.086Z"/><path fill="#AB71FF" d="M288.07 182.925a137.948 137.948 0 0 1 20.666 11.476l-23.11 34.313a96.619 96.619 0 0 0-14.466-8.033l16.91-37.756Z"/><path fill="#45278D" d="M308.104 193.978a137.798 137.798 0 0 1 18.484 14.735l-28.466 30.02a96.49 96.49 0 0 0-12.939-10.315l22.921-34.44Z"/><path fill="#89CFF5" d="M106.557 366.702a137.895 137.895 0 0 1 13.868-139.372l33.384 24.435a96.523 96.523 0 0 0-18.162 47.456 96.524 96.524 0 0 0 8.453 50.105l-37.543 17.376Z"/><path fill="#89CFF5" d="M120.206 227.631A137.887 137.887 0 0 1 177.449 182a137.89 137.89 0 0 1 72.532-9.904l-5.484 41.005a96.522 96.522 0 0 0-90.842 38.875l-33.449-24.345Z"/><path fill="#592ACB" d="M326.588 208.712a137.914 137.914 0 0 1 42.7 109.392 137.886 137.886 0 0 1-57.071 102.63 137.894 137.894 0 0 1-168.929-6.127 137.9 137.9 0 0 1-36.644-47.717l37.517-17.433a96.532 96.532 0 0 0 183.851-34.15 96.527 96.527 0 0 0-29.89-76.574l28.466-30.021Z"/><path fill="#9059FF" d="M106.635 366.872a137.903 137.903 0 0 1 83.308-189.518 137.901 137.901 0 0 1 76.99-1.899l-10.569 39.997a96.523 96.523 0 0 0-53.893 1.33 96.535 96.535 0 0 0-66.47 79.373 96.525 96.525 0 0 0 8.155 53.289l-37.521 17.428Z"/><circle cx="231.703" cy="307.247" r="96.53" fill="#fff"/><path fill="#2A2A2A" d="M221.584 264.881v36.979h-6.699v-30.461h-.217l-8.649 5.525v-6.139l9.191-5.904h6.374Zm8.721 30.118v-5.327l15.691-24.791h8.343v24.611h4.73v5.507h-4.73v6.861h-6.393v-6.861h-17.641Zm17.714-5.507v-17.028h-.289l-10.563 16.739v.289h10.852Z"/><path fill="#5B5B5B" d="m181.715 335-5.13-6.846h-1.626V335h-2.305v-15.273h2.305v6.451h.753l5.772-6.451h2.811l-6.107 6.839 6.339 8.434h-2.812Zm8.751.231c-3.229 0-5.339-2.364-5.339-5.906 0-3.565 2.11-5.929 5.339-5.929 3.229 0 5.34 2.364 5.34 5.929 0 3.542-2.111 5.906-5.34 5.906Zm.008-1.872c2.095 0 3.08-1.842 3.08-4.042 0-2.192-.985-4.056-3.08-4.056-2.111 0-3.095 1.864-3.095 4.056 0 2.2.984 4.042 3.095 4.042Zm6.918 1.641-.007-1.931h.41c1.275 0 1.678-.918 1.82-4.453l.201-5.071h7.994V335h-2.185v-9.531h-3.743l-.179 3.893c-.179 3.789-1.096 5.638-3.595 5.638h-.716Zm15.577-3.125 5.049-8.33h2.401V335h-2.185v-8.337L213.208 335h-2.424v-11.455h2.185v8.33Zm19.643-8.33V335h-2.178v-3.811a9.551 9.551 0 0 1-2.386.306c-2.834 0-4.631-1.365-4.631-4.228v-3.744h2.17v3.744c0 1.618.94 2.304 2.461 2.304.872 0 1.633-.119 2.386-.321v-5.705h2.178Zm7.903 11.686c-3.378 0-5.452-2.327-5.452-5.884 0-3.52 2.103-5.951 5.295-5.951 2.595 0 5.071 1.619 5.071 5.757v.791h-8.143c.059 2.207 1.342 3.445 3.251 3.445 1.268 0 2.237-.552 2.64-1.633l2.111.38c-.508 1.865-2.275 3.095-4.773 3.095Zm-3.222-6.958h5.951c-.007-1.752-1.141-3.035-2.871-3.035-1.812 0-2.99 1.41-3.08 3.035Zm15.435 6.958c-3.326 0-5.339-2.453-5.339-5.906 0-3.498 2.088-5.929 5.317-5.929 2.602 0 4.489 1.537 4.728 3.848h-2.17c-.239-1.074-1.104-1.968-2.521-1.968-1.864 0-3.102 1.543-3.102 3.997 0 2.498 1.215 4.071 3.102 4.071 1.275 0 2.237-.73 2.521-1.968h2.17c-.246 2.229-1.999 3.855-4.706 3.855Zm6.223-9.762v-1.924h9.665v1.924h-3.736V335h-2.178v-9.531h-3.751ZM270.975 335v-11.455h4.75c2.58 0 4.206 1.179 4.206 3.058 0 1.342-.932 2.118-2.342 2.386 1.529.179 2.834 1.223 2.834 2.924 0 1.819-1.469 3.087-3.975 3.087h-5.473Zm2.095-1.864h3.378c1.104 0 1.768-.56 1.768-1.469 0-1.067-.664-1.716-1.768-1.716h-3.378v3.185Zm0-4.818h2.677c1.253 0 2.014-.559 2.014-1.476 0-.88-.768-1.41-2.036-1.41h-2.655v2.886Zm14.624 6.913c-3.229 0-5.34-2.364-5.34-5.906 0-3.565 2.111-5.929 5.34-5.929 3.229 0 5.339 2.364 5.339 5.929 0 3.542-2.11 5.906-5.339 5.906Zm.007-1.872c2.096 0 3.08-1.842 3.08-4.042 0-2.192-.984-4.056-3.08-4.056-2.11 0-3.094 1.864-3.094 4.056 0 2.2.984 4.042 3.094 4.042ZM178.423 360v-11.455h9.344V360h-2.185v-9.531h-4.989V360h-2.17Zm17.15.231c-3.229 0-5.34-2.364-5.34-5.906 0-3.565 2.111-5.929 5.34-5.929 3.229 0 5.339 2.364 5.339 5.929 0 3.542-2.11 5.906-5.339 5.906Zm.007-1.872c2.096 0 3.08-1.842 3.08-4.042 0-2.192-.984-4.056-3.08-4.056-2.11 0-3.094 1.864-3.094 4.056 0 2.2.984 4.042 3.094 4.042ZM210.232 360v-4.482h-2.737L204.997 360h-2.282l2.677-4.803c-1.364-.514-2.155-1.625-2.155-3.132 0-2.155 1.611-3.52 4.251-3.52h4.84V360h-2.096Zm0-6.287v-3.266h-2.744c-1.305 0-2.073.664-2.066 1.648-.007.977.701 1.618 1.917 1.618h2.893Zm5.064 6.287v-11.455h4.75c2.58 0 4.206 1.179 4.206 3.058 0 1.342-.932 2.118-2.341 2.386 1.528.179 2.833 1.223 2.833 2.924 0 1.819-1.469 3.087-3.974 3.087h-5.474Zm2.095-1.864h3.379c1.103 0 1.767-.56 1.767-1.469 0-1.067-.664-1.716-1.767-1.716h-3.379v3.185Zm0-4.818h2.678c1.252 0 2.013-.559 2.013-1.476 0-.88-.768-1.41-2.036-1.41h-2.655v2.886Zm8.897 6.682-.007-1.931h.41c1.275 0 1.678-.918 1.819-4.453l.202-5.071h7.994V360h-2.185v-9.531h-3.744l-.179 3.893c-.179 3.789-1.096 5.638-3.594 5.638h-.716Zm18.328.231c-3.378 0-5.451-2.327-5.451-5.884 0-3.52 2.103-5.951 5.295-5.951 2.595 0 5.071 1.619 5.071 5.757v.791h-8.144c.06 2.207 1.343 3.445 3.252 3.445 1.268 0 2.237-.552 2.64-1.633l2.11.38c-.507 1.865-2.274 3.095-4.773 3.095Zm-3.221-6.958h5.951c-.008-1.752-1.141-3.035-2.871-3.035-1.812 0-2.991 1.41-3.08 3.035Zm12.795-4.728v4.766h4.959v-4.766h2.178V360h-2.178v-4.758h-4.959V360h-2.185v-11.455h2.185Zm12.304 8.33 5.049-8.33h2.401V360h-2.185v-8.337L266.733 360h-2.424v-11.455h2.185v8.33Zm12.633 0 5.049-8.33h2.401V360h-2.185v-8.337L279.366 360h-2.424v-11.455h2.185v8.33Zm4.094-12.207h1.835c0 1.678-1.275 2.833-3.296 2.833-2.006 0-3.281-1.155-3.281-2.833h1.827c0 .745.395 1.417 1.454 1.417 1.044 0 1.461-.664 1.461-1.417Z"/><defs><linearGradient id="a" x1="468.816" x2="468.816" y1="104.926" y2="196.576" gradientUnits="userSpaceOnUse"><stop stop-color="#8060FE"/><stop offset="1" stop-color="#626BFA"/></linearGradient><linearGradient id="c" x1="124.726" x2="106.795" y1="68.128" y2="99.183" gradientUnits="userSpaceOnUse"><stop stop-color="#FF980E"/><stop offset=".21" stop-color="#FF7139"/><stop offset=".36" stop-color="#FF5854"/><stop offset=".46" stop-color="#FF4F5E"/><stop offset=".69" stop-color="#FF3750"/><stop offset=".86" stop-color="#F92261"/><stop offset="1" stop-color="#F5156C"/></linearGradient><linearGradient id="d" x1="124.726" x2="106.795" y1="68.128" y2="99.183" gradientUnits="userSpaceOnUse"><stop stop-color="#FFF44F" stop-opacity=".8"/><stop offset=".09" stop-color="#FFF44F" stop-opacity=".7"/><stop offset=".75" stop-color="#FFF44F" stop-opacity="0"/></linearGradient><linearGradient id="e" x1="126.178" x2="126.178" y1="104.18" y2="65.704" gradientUnits="userSpaceOnUse"><stop stop-color="#3A8EE6"/><stop offset=".24" stop-color="#5C79F0"/><stop offset=".63" stop-color="#9059FF"/><stop offset="1" stop-color="#C139E6"/></linearGradient><linearGradient id="f" x1="119.637" x2="135.628" y1="65.565" y2="81.555" gradientUnits="userSpaceOnUse"><stop stop-color="#6E008B" stop-opacity=".5"/><stop offset=".5" stop-color="#C846CB" stop-opacity="0"/></linearGradient><linearGradient id="g" x1="134.122" x2="126.612" y1="85.346" y2="92.855" gradientUnits="userSpaceOnUse"><stop offset=".14" stop-color="#6A2BEA" stop-opacity="0"/><stop offset=".34" stop-color="#642DE4" stop-opacity=".03"/><stop offset=".55" stop-color="#5131D3" stop-opacity=".12"/><stop offset=".76" stop-color="#3139B7" stop-opacity=".27"/><stop offset=".98" stop-color="#054490" stop-opacity=".48"/><stop offset="1" stop-color="#00458B" stop-opacity=".5"/></linearGradient><linearGradient id="h" x1="122.076" x2="124.253" y1="91.805" y2="94.4" gradientUnits="userSpaceOnUse"><stop stop-color="#960E18" stop-opacity=".6"/><stop offset=".19" stop-color="#AC1624" stop-opacity=".48"/><stop offset=".58" stop-color="#E42C41" stop-opacity=".16"/><stop offset=".75" stop-color="#FF3750" stop-opacity="0"/></linearGradient></defs></svg>
