<svg xmlns="http://www.w3.org/2000/svg" width="620" height="450" fill="none" viewBox="0 0 620 450"><g clip-path="url(#a)"><rect width="620" height="450" fill="#ECDFFF" rx="15"/><mask id="c" fill="#fff"><path d="M531.529 137.926c5.84 0 10.575 4.734 10.575 10.575v70.5c0 5.84-4.735 10.575-10.575 10.575v-91.65Z"/></mask><path fill="url(#b)" d="M531.529 137.926c5.84 0 10.575 4.734 10.575 10.575v70.5c0 5.84-4.735 10.575-10.575 10.575v-91.65Z"/><path fill="#BFBFC7" d="M531.529 229.576h-11.75v11.75h11.75v-11.75Zm0-91.65v-11.75h-11.75v11.75h11.75Zm-1.175 10.575v70.5h23.5v-70.5h-23.5Zm12.925 81.075v-91.65h-23.5v91.65h23.5Zm-12.925-10.575c0-.649.526-1.175 1.175-1.175v23.5c12.329 0 22.325-9.995 22.325-22.325h-23.5Zm1.175-69.325a1.175 1.175 0 0 1-1.175-1.175h23.5c0-12.33-9.996-22.325-22.325-22.325v23.5Z" mask="url(#c)"/><path fill="#F9F9FA" stroke="#BFBFC7" stroke-miterlimit="10" stroke-width="9.4" d="M471.296 38.3H128.664c-30.63 0-55.46 24.83-55.46 55.46v697.952c0 30.63 24.83 55.461 55.46 55.461h342.632c30.629 0 55.46-24.831 55.46-55.461V93.76c0-30.63-24.831-55.46-55.46-55.46Z"/><path fill="url(#d)" d="m201.245 94.384-4.005-2.294-9.144-5.236-.285-.163a4.888 4.888 0 0 0-4.836 0l-.284.165-12.858 7.365-.284.164a4.807 4.807 0 0 0-2.418 4.158v15.382a4.81 4.81 0 0 0 2.418 4.159l13.146 7.528a2.025 2.025 0 0 0 2.755-.731 1.993 1.993 0 0 0-.738-2.734l-12.857-7.363a1.371 1.371 0 0 1-.693-1.189V98.873a1.37 1.37 0 0 1 .693-1.19l2.275-1.303 10.568-6.065a1.394 1.394 0 0 1 1.379 0l12.862 7.366c.425.245.688.697.69 1.188V113.6a1.372 1.372 0 0 1-.693 1.189l-4.35 2.492-2.196-3.312a10.336 10.336 0 0 0 3.483-7.734c0-5.736-4.704-10.403-10.487-10.403S174.9 100.5 174.9 106.236c0 5.736 4.703 10.403 10.486 10.403a10.49 10.49 0 0 0 3.54-.612l3.336 5.029c.052.077.108.151.169.221l.035.035c.071.076.147.146.229.209l.06.049c.09.065.185.123.285.173l.068.03c.088.04.18.074.273.101l.062.02c.106.027.214.045.323.053h.182c.062 0 .123-.007.182-.013h.084c.115-.016.228-.042.339-.077.03-.008.058-.021.088-.033.088-.032.173-.07.256-.113.019-.01.04-.016.058-.027l6.29-3.595a4.813 4.813 0 0 0 2.418-4.164V98.542a4.807 4.807 0 0 0-2.418-4.158Zm-22.313 11.852a6.454 6.454 0 1 1 6.454 6.4 6.434 6.434 0 0 1-6.454-6.4Z"/><path fill="url(#e)" d="m201.245 94.384-4.005-2.294-9.144-5.236-.285-.163a4.888 4.888 0 0 0-4.836 0l-.284.165-12.858 7.365-.284.164a4.807 4.807 0 0 0-2.418 4.158v15.382a4.81 4.81 0 0 0 2.418 4.159l13.146 7.528a2.025 2.025 0 0 0 2.755-.731 1.993 1.993 0 0 0-.738-2.734l-12.857-7.363a1.371 1.371 0 0 1-.693-1.189V98.873a1.37 1.37 0 0 1 .693-1.19l2.275-1.303 10.568-6.065a1.394 1.394 0 0 1 1.379 0l12.862 7.366c.425.245.688.697.69 1.188V113.6a1.372 1.372 0 0 1-.693 1.189l-4.35 2.492-2.196-3.312a10.336 10.336 0 0 0 3.483-7.734c0-5.736-4.704-10.403-10.487-10.403S174.9 100.5 174.9 106.236c0 5.736 4.703 10.403 10.486 10.403a10.49 10.49 0 0 0 3.54-.612l3.336 5.029c.052.077.108.151.169.221l.035.035c.071.076.147.146.229.209l.06.049c.09.065.185.123.285.173l.068.03c.088.04.18.074.273.101l.062.02c.106.027.214.045.323.053h.182c.062 0 .123-.007.182-.013h.084c.115-.016.228-.042.339-.077.03-.008.058-.021.088-.033.088-.032.173-.07.256-.113.019-.01.04-.016.058-.027l6.29-3.595a4.813 4.813 0 0 0 2.418-4.164V98.542a4.807 4.807 0 0 0-2.418-4.158Zm-22.313 11.852a6.454 6.454 0 1 1 6.454 6.4 6.434 6.434 0 0 1-6.454-6.4Z"/><path fill="url(#f)" d="m201.243 94.384-4.005-2.294-5.587-3.198a4.308 4.308 0 0 0-4.16-.062l-2.795 1.485a1.394 1.394 0 0 1 1.379 0l12.862 7.366c.425.244.688.697.69 1.188V113.6a1.371 1.371 0 0 1-.693 1.189l-4.35 2.491.678 1.086a2.844 2.844 0 0 0 3.827.954l2.154-1.232a4.795 4.795 0 0 0 2.418-4.164V98.541a4.793 4.793 0 0 0-2.418-4.157Z"/><path fill="url(#g)" d="M199.627 98.873v7.147h4.034v-7.479a4.793 4.793 0 0 0-2.418-4.157l-4.005-2.294-5.587-3.198a4.308 4.308 0 0 0-4.16-.062l-2.795 1.485a1.398 1.398 0 0 1 1.379 0l12.862 7.366c.427.245.69.7.69 1.192Z"/><path fill="url(#h)" d="M199.627 107.17v6.431c0 .492-.265.946-.692 1.189l-4.351 2.492.678 1.085a2.846 2.846 0 0 0 3.828.954l2.153-1.232a4.795 4.795 0 0 0 2.418-4.164v-6.755h-4.034Z" opacity=".9"/><path fill="url(#i)" d="m194.276 116.815-1.887-2.845a10.499 10.499 0 0 1-3.464 2.057l2.007 3.028a88.1 88.1 0 0 0 3.344-2.24Z" opacity=".9"/><path fill="#000" d="M220.438 116.31V96.232h4.296l6.225 11.339 6.196-11.339h4.325v20.078h-4.325v-12.509l-6.196 11.34-6.225-11.34v12.509h-4.296Zm32.266.351c-4.501 0-8.271-3.624-8.271-7.921 0-4.296 3.77-7.89 8.271-7.89 4.471 0 8.212 3.594 8.212 7.89 0 4.297-3.741 7.921-8.212 7.921Zm0-3.595c2.25 0 4.15-1.988 4.15-4.326 0-2.338-1.9-4.296-4.15-4.296-2.28 0-4.179 1.958-4.179 4.296s1.899 4.326 4.179 4.326Zm10.218 3.244v-3.01l7.599-8.476h-7.394V101.2h12.947v3.011l-7.599 8.475h7.657v3.624h-13.21Zm18.152-17.185a2.326 2.326 0 0 1-2.338-2.338c0-1.198 1.022-2.28 2.338-2.28 1.256 0 2.279 1.082 2.279 2.28 0 1.286-1.023 2.338-2.279 2.338Zm-2.163 17.185V101.2h4.267v15.11h-4.267Zm7.783 0V95.881h4.267v20.429h-4.267Zm7.783 0V95.881h4.266v20.429h-4.266Zm14.533-15.46c3.946 0 6.634 2.484 6.634 6.429v9.031h-4.121v-1.52c-1.081 1.228-2.805 1.871-4.442 1.871-3.215 0-5.699-1.929-5.699-4.823 0-2.981 2.777-5.026 6.284-5.026 1.227 0 2.572.263 3.857.759v-.292c0-1.607-.993-3.01-3.477-3.01-1.403 0-2.718.468-3.916 1.081l-1.433-2.835c2.134-1.081 4.209-1.665 6.313-1.665Zm-.964 12.859c1.636 0 3.185-.76 3.477-2.163v-1.403a9.57 9.57 0 0 0-3.244-.555c-1.548 0-2.776.906-2.776 2.133 0 1.228 1.081 1.988 2.543 1.988Zm19.612 2.601V96.232h2.951l7.044 13.122 7.043-13.122h2.952v20.078h-2.952v-14.291l-7.043 13.122-7.044-13.122v14.291h-2.951Zm31.182.351c-4.325 0-7.978-3.624-7.978-7.921 0-4.296 3.653-7.89 7.978-7.89 4.296 0 7.92 3.594 7.92 7.89 0 4.297-3.624 7.921-7.92 7.921Zm0-2.514c2.718 0 5.027-2.455 5.027-5.407 0-2.922-2.309-5.377-5.027-5.377-2.776 0-5.085 2.455-5.085 5.377 0 2.952 2.309 5.407 5.085 5.407Zm18.365-13.297c3.332 0 5.67 2.425 5.67 5.845v9.615h-2.835v-9.118c0-2.251-1.432-3.829-3.477-3.829-2.105 0-3.917 1.374-4.15 3.156v9.791h-2.894V101.2h2.894v2.192c.906-1.49 2.747-2.542 4.792-2.542Zm10.615-2.163a1.758 1.758 0 0 1-1.753-1.754c0-.906.76-1.724 1.753-1.724.935 0 1.724.819 1.724 1.724 0 .936-.789 1.754-1.724 1.754Zm-1.461 17.623V101.2h2.893v15.11h-2.893Zm13.525-2.718 1.052 1.987a4.863 4.863 0 0 1-3.01 1.082c-2.338 0-3.975-1.696-3.975-4.121v-8.885h-2.279V101.2h2.279v-4.15h2.835v4.15h3.565v2.455h-3.565v8.68c0 1.052.701 1.812 1.549 1.812.643 0 1.227-.234 1.549-.555Zm10.535 3.069c-4.325 0-7.979-3.624-7.979-7.921 0-4.296 3.654-7.89 7.979-7.89 4.296 0 7.92 3.594 7.92 7.89 0 4.297-3.624 7.921-7.92 7.921Zm0-2.514c2.718 0 5.027-2.455 5.027-5.407 0-2.922-2.309-5.377-5.027-5.377-2.777 0-5.085 2.455-5.085 5.377 0 2.952 2.308 5.407 5.085 5.407Zm13.718-10.053c.965-1.988 3.011-3.244 5.612-3.244v2.513c-3.127 0-5.349 1.724-5.612 4.355v8.592h-2.893V101.2h2.893v2.894Z"/><path fill="#fff" d="M96.406 165.79a5.65 5.65 0 0 1 5.65-5.649h395.739a5.649 5.649 0 0 1 5.65 5.649v486.072a5.65 5.65 0 0 1-5.65 5.65H102.056a5.65 5.65 0 0 1-5.65-5.65V165.79Z"/><path stroke="#000" stroke-opacity=".1" stroke-width=".706" d="M102.056 159.788a6.002 6.002 0 0 0-6.003 6.002v486.072a6.003 6.003 0 0 0 6.003 6.003h395.739a6.003 6.003 0 0 0 6.003-6.003V165.79a6.002 6.002 0 0 0-6.003-6.002H102.056Z"/><path fill="#000" d="M133.672 272.866c1.963 0 3.606.186 4.929.558 1.343.351 2.346.94 3.007 1.767.682.806 1.023 1.901 1.023 3.286 0 .827-.134 1.581-.403 2.263-.269.682-.661 1.24-1.178 1.674-.496.434-1.106.713-1.829.837v.155a5.934 5.934 0 0 1 2.015.775c.599.372 1.075.909 1.426 1.612.351.703.527 1.633.527 2.79 0 1.343-.331 2.501-.992 3.472-.641.951-1.571 1.684-2.79 2.201-1.219.496-2.666.744-4.34.744h-8.277v-22.134h6.882Zm.527 8.773c1.364 0 2.304-.217 2.821-.651.537-.434.806-1.064.806-1.891 0-.847-.31-1.457-.93-1.829-.62-.372-1.602-.558-2.945-.558h-2.48v4.929h2.728Zm-2.728 3.72v5.766h3.069c1.405 0 2.387-.269 2.945-.806.558-.558.837-1.292.837-2.201 0-.558-.124-1.044-.372-1.457-.227-.413-.63-.734-1.209-.961-.579-.227-1.364-.341-2.356-.341h-2.914Zm22.719-7.626c2.273 0 4.009.496 5.208 1.488 1.219.971 1.829 2.47 1.829 4.495V295h-3.224l-.899-2.294h-.124a8.436 8.436 0 0 1-1.488 1.488 4.52 4.52 0 0 1-1.736.837c-.641.186-1.436.279-2.387.279-.992 0-1.891-.186-2.697-.558a4.385 4.385 0 0 1-1.86-1.767c-.455-.806-.682-1.819-.682-3.038 0-1.798.63-3.121 1.891-3.968 1.261-.868 3.152-1.343 5.673-1.426l2.945-.093v-.744c0-.889-.238-1.54-.713-1.953-.455-.413-1.095-.62-1.922-.62a7.98 7.98 0 0 0-2.418.372 18.08 18.08 0 0 0-2.356.868l-1.519-3.131a13.34 13.34 0 0 1 3.007-1.116 14.764 14.764 0 0 1 3.472-.403Zm.651 9.486c-1.488.041-2.521.31-3.1.806-.579.496-.868 1.147-.868 1.953 0 .703.207 1.209.62 1.519.413.289.951.434 1.612.434.992 0 1.829-.289 2.511-.868.682-.599 1.023-1.436 1.023-2.511v-1.395l-1.798.062Zm36.317-9.145V295h-25.203v-16.926h4.619v13.454h5.673v-13.454h4.619v13.454h5.673v-13.454h4.619Zm28.863 0V295h-4.619v-13.454h-6.138V295h-4.619v-16.926h15.376Zm11.79-.341c2.274 0 4.01.496 5.208 1.488 1.22.971 1.829 2.47 1.829 4.495V295h-3.224l-.899-2.294h-.124a8.436 8.436 0 0 1-1.488 1.488 4.512 4.512 0 0 1-1.736.837c-.64.186-1.436.279-2.387.279-.992 0-1.891-.186-2.697-.558a4.385 4.385 0 0 1-1.86-1.767c-.454-.806-.682-1.819-.682-3.038 0-1.798.631-3.121 1.891-3.968 1.261-.868 3.152-1.343 5.673-1.426l2.945-.093v-.744c0-.889-.237-1.54-.713-1.953-.454-.413-1.095-.62-1.922-.62a7.99 7.99 0 0 0-2.418.372c-.785.227-1.57.517-2.356.868l-1.519-3.131c.91-.475 1.912-.847 3.007-1.116a14.77 14.77 0 0 1 3.472-.403Zm.651 9.486c-1.488.041-2.521.31-3.1.806-.578.496-.868 1.147-.868 1.953 0 .703.207 1.209.62 1.519.414.289.951.434 1.612.434.992 0 1.829-.289 2.511-.868.682-.599 1.023-1.436 1.023-2.511v-1.395l-1.798.062ZM253 277.764c1.902 0 3.441.744 4.619 2.232 1.178 1.467 1.767 3.637 1.767 6.51 0 1.922-.279 3.544-.837 4.867-.558 1.302-1.322 2.284-2.294 2.945-.971.661-2.097.992-3.379.992-.806 0-1.508-.103-2.108-.31a5.129 5.129 0 0 1-1.488-.806 7.554 7.554 0 0 1-1.085-1.054h-.248c.083.393.145.806.186 1.24.042.413.062.827.062 1.24v6.82h-4.619v-24.366h3.751l.651 2.201h.217c.31-.455.682-.868 1.116-1.24a4.833 4.833 0 0 1 1.55-.93c.62-.227 1.333-.341 2.139-.341Zm-1.488 3.689c-.806 0-1.446.165-1.922.496-.475.331-.826.837-1.054 1.519-.206.661-.32 1.498-.341 2.511v.496c0 1.095.104 2.025.31 2.79.207.744.558 1.312 1.054 1.705s1.168.589 2.015.589c.703 0 1.282-.196 1.736-.589.455-.393.796-.971 1.023-1.736.228-.765.341-1.695.341-2.79 0-1.653-.258-2.893-.775-3.72-.496-.847-1.291-1.271-2.387-1.271Zm27.057 5.053c0 1.405-.196 2.656-.589 3.751-.372 1.095-.919 2.025-1.643 2.79-.702.744-1.56 1.312-2.573 1.705-1.012.372-2.159.558-3.441.558-1.178 0-2.273-.186-3.286-.558a7.29 7.29 0 0 1-2.573-1.705c-.723-.765-1.291-1.695-1.705-2.79-.392-1.095-.589-2.346-.589-3.751 0-1.881.331-3.462.992-4.743.662-1.302 1.612-2.294 2.852-2.976 1.24-.682 2.708-1.023 4.402-1.023 1.592 0 2.997.341 4.216 1.023 1.22.682 2.181 1.674 2.883 2.976.703 1.281 1.054 2.862 1.054 4.743Zm-11.687 0c0 1.116.114 2.056.341 2.821.248.744.631 1.312 1.147 1.705.517.372 1.189.558 2.015.558.827 0 1.488-.186 1.984-.558.517-.393.889-.961 1.116-1.705.248-.765.372-1.705.372-2.821s-.124-2.046-.372-2.79c-.227-.744-.599-1.302-1.116-1.674-.516-.372-1.188-.558-2.015-.558-1.219 0-2.108.424-2.666 1.271-.537.827-.806 2.077-.806 3.751ZM297.546 295h-4.619v-13.454h-4.247c-.207 2.48-.465 4.598-.775 6.355-.29 1.736-.662 3.152-1.116 4.247-.434 1.095-.992 1.901-1.674 2.418-.682.496-1.519.744-2.511.744a7.786 7.786 0 0 1-1.457-.124 4.944 4.944 0 0 1-1.178-.372v-3.689c.227.083.465.155.713.217.248.062.506.093.775.093.289 0 .558-.114.806-.341.268-.227.516-.63.744-1.209.248-.579.475-1.374.682-2.387.206-1.013.392-2.284.558-3.813.186-1.55.351-3.42.496-5.611h12.803V295Zm12.695-10.385c1.736 0 3.173.186 4.309.558 1.137.351 1.974.899 2.511 1.643.558.744.837 1.674.837 2.79 0 1.095-.258 2.046-.775 2.852-.496.806-1.291 1.436-2.387 1.891-1.095.434-2.531.651-4.309.651h-8.06v-16.926h4.619v6.541h3.255Zm3.038 5.053c0-.661-.268-1.137-.806-1.426-.516-.289-1.291-.434-2.325-.434h-3.162v3.999h3.224c.91 0 1.643-.165 2.201-.496.579-.331.868-.878.868-1.643Zm27.886-11.594h5.084l-6.696 8.122 7.285 8.804h-5.239l-6.913-8.587V295h-4.619v-16.926h4.619v8.215l6.479-8.215Zm-203.587 34.899h4.557v14.322c0 4.123-3.565 7.037-8.618 7.037-2.821 0-5.487-.899-7.068-2.139L128.03 329c1.054.93 2.914 1.519 4.774 1.519 2.914 0 4.774-1.333 4.774-3.41v-1.767c-1.271 1.55-3.193 2.48-5.301 2.48-4.03 0-7.099-3.162-7.099-7.626s3.069-7.595 7.099-7.595c2.17 0 4.216 1.023 5.301 2.542v-2.17Zm-3.875 11.036c2.263 0 3.875-1.581 3.875-3.813s-1.612-3.782-3.875-3.782-3.875 1.55-3.875 3.782 1.612 3.813 3.875 3.813ZM146.116 329v-21.669h4.526V329h-4.526Zm15.637-16.399c4.185 0 7.037 2.635 7.037 6.82V329h-4.371v-1.612c-1.147 1.302-2.976 1.984-4.712 1.984-3.41 0-6.045-2.046-6.045-5.115 0-3.162 2.945-5.332 6.665-5.332 1.302 0 2.728.279 4.092.806v-.31c0-1.705-1.054-3.193-3.689-3.193-1.488 0-2.883.496-4.154 1.147l-1.519-3.007c2.263-1.147 4.464-1.767 6.696-1.767Zm-1.023 13.64c1.736 0 3.379-.806 3.689-2.294v-1.488a10.139 10.139 0 0 0-3.441-.589c-1.643 0-2.945.961-2.945 2.263s1.147 2.108 2.697 2.108Zm17.889 3.131c-2.573 0-5.301-.868-7.223-2.418l1.953-3.131c1.426 1.023 3.224 1.798 5.363 1.798 1.209 0 2.077-.496 2.077-1.209 0-.992-1.178-1.302-2.821-1.736-3.286-.806-5.828-1.705-5.859-4.867-.031-3.038 2.48-5.208 6.262-5.208 2.294 0 4.557.806 6.324 1.984l-1.829 3.224c-1.457-.899-3.131-1.426-4.495-1.426-1.116 0-1.891.403-1.891.961 0 .868.651 1.116 2.821 1.705 2.759.713 5.828 1.643 5.828 5.146 0 3.162-2.573 5.177-6.51 5.177Zm15.561 0c-2.573 0-5.301-.868-7.223-2.418l1.953-3.131c1.426 1.023 3.224 1.798 5.363 1.798 1.209 0 2.077-.496 2.077-1.209 0-.992-1.178-1.302-2.821-1.736-3.286-.806-5.828-1.705-5.859-4.867-.031-3.038 2.48-5.208 6.262-5.208 2.294 0 4.557.806 6.324 1.984l-1.829 3.224c-1.457-.899-3.131-1.426-4.495-1.426-1.116 0-1.891.403-1.891.961 0 .868.651 1.116 2.821 1.705 2.759.713 5.828 1.643 5.828 5.146 0 3.162-2.573 5.177-6.51 5.177Zm17.11-3.999c1.271 0 2.821-.589 3.689-1.426l2.883 2.945c-1.426 1.488-4.185 2.48-6.541 2.48-4.774 0-8.494-3.503-8.494-8.432 0-4.836 3.565-8.339 8.246-8.339 5.022 0 7.967 3.813 7.967 9.858h-11.563c.527 1.736 1.922 2.914 3.813 2.914Zm-.031-8.773c-1.705 0-3.131.992-3.72 2.604h7.161c-.434-1.581-1.612-2.604-3.441-2.604Zm16.857 12.772c-2.573 0-5.301-.868-7.223-2.418l1.953-3.131c1.426 1.023 3.224 1.798 5.363 1.798 1.209 0 2.077-.496 2.077-1.209 0-.992-1.178-1.302-2.821-1.736-3.286-.806-5.828-1.705-5.859-4.867-.031-3.038 2.48-5.208 6.262-5.208 2.294 0 4.557.806 6.324 1.984l-1.829 3.224c-1.457-.899-3.131-1.426-4.495-1.426-1.116 0-1.891.403-1.891.961 0 .868.651 1.116 2.821 1.705 2.759.713 5.828 1.643 5.828 5.146 0 3.162-2.573 5.177-6.51 5.177Zm21.513-22.041h4.526V329h-4.526v-2.294c-1.271 1.674-3.131 2.666-5.394 2.666-4.278 0-7.378-3.472-7.378-8.401 0-4.898 3.1-8.37 7.378-8.37 2.263 0 4.123.992 5.394 2.666v-7.936Zm-4.092 18.228c2.387 0 4.092-1.891 4.092-4.588 0-2.666-1.705-4.557-4.092-4.557-2.511 0-4.278 1.891-4.278 4.557 0 2.697 1.767 4.588 4.278 4.588Zm20.465 3.813c-4.774 0-8.773-3.844-8.773-8.401s3.999-8.37 8.773-8.37c4.743 0 8.711 3.813 8.711 8.37 0 4.557-3.968 8.401-8.711 8.401Zm0-3.813c2.387 0 4.402-2.108 4.402-4.588s-2.015-4.557-4.402-4.557c-2.418 0-4.433 2.077-4.433 4.557 0 2.48 2.015 4.588 4.433 4.588Zm20.205-.527 1.085 2.945c-.93.837-2.387 1.395-3.689 1.395-2.821 0-4.805-2.015-4.805-4.898v-7.843h-2.201v-3.658h2.201v-4.402h4.34v4.402h3.472v3.658h-3.472v7.13c0 1.054.682 1.798 1.519 1.798.62 0 1.24-.217 1.55-.527Zm11.763 4.34c-4.743 0-8.742-3.844-8.742-8.401s4.03-8.37 8.773-8.37c2.604 0 4.743 1.054 6.293 2.728l-3.007 2.573c-.806-.899-2.077-1.488-3.317-1.488-2.356 0-4.34 2.077-4.34 4.526 0 2.511 1.984 4.619 4.371 4.619 1.24 0 2.542-.62 3.379-1.55l3.007 2.542c-1.581 1.736-3.751 2.821-6.417 2.821Zm16.681 0c-4.774 0-8.773-3.844-8.773-8.401s3.999-8.37 8.773-8.37c4.743 0 8.711 3.813 8.711 8.37 0 4.557-3.968 8.401-8.711 8.401Zm0-3.813c2.387 0 4.402-2.108 4.402-4.588s-2.015-4.557-4.402-4.557c-2.418 0-4.433 2.077-4.433 4.557 0 2.48 2.015 4.588 4.433 4.588Zm30.838-12.958c3.348 0 5.921 2.573 5.921 6.2v10.23h-4.34v-9.455c0-1.86-1.178-3.162-2.852-3.162-1.798 0-3.1 1.209-3.1 2.914v9.703h-4.34v-9.455c0-1.86-1.178-3.162-2.821-3.162-1.829 0-3.1 1.209-3.1 2.914V329h-4.526v-16.027h4.526v2.108c.775-1.519 2.356-2.48 4.34-2.48 2.201 0 4.092 1.116 5.084 2.914.837-1.767 2.821-2.914 5.208-2.914Zm12.298 16.771a2.878 2.878 0 0 1-2.883-2.883c0-1.457 1.271-2.759 2.883-2.759 1.519 0 2.759 1.302 2.759 2.759 0 1.581-1.24 2.883-2.759 2.883Zm14.262 0c-4.743 0-8.742-3.844-8.742-8.401s4.03-8.37 8.773-8.37c2.604 0 4.743 1.054 6.293 2.728l-3.007 2.573c-.806-.899-2.077-1.488-3.317-1.488-2.356 0-4.34 2.077-4.34 4.526 0 2.511 1.984 4.619 4.371 4.619 1.24 0 2.542-.62 3.379-1.55l3.007 2.542c-1.581 1.736-3.751 2.821-6.417 2.821Zm16.681 0c-4.774 0-8.773-3.844-8.773-8.401s3.999-8.37 8.773-8.37c4.743 0 8.711 3.813 8.711 8.37 0 4.557-3.968 8.401-8.711 8.401Zm0-3.813c2.387 0 4.402-2.108 4.402-4.588s-2.015-4.557-4.402-4.557c-2.418 0-4.433 2.077-4.433 4.557 0 2.48 2.015 4.588 4.433 4.588Zm30.839-12.958c3.348 0 5.921 2.573 5.921 6.2v10.23h-4.34v-9.455c0-1.86-1.178-3.162-2.852-3.162-1.798 0-3.1 1.209-3.1 2.914v9.703h-4.34v-9.455c0-1.86-1.178-3.162-2.821-3.162-1.829 0-3.1 1.209-3.1 2.914V329h-4.526v-16.027h4.526v2.108c.775-1.519 2.356-2.48 4.34-2.48 2.201 0 4.092 1.116 5.084 2.914.837-1.767 2.821-2.914 5.208-2.914Zm-294.174 40.262c0-2.501.31-4.619.93-6.355.62-1.757 1.602-3.152 2.945-4.185 1.343-1.054 3.1-1.767 5.27-2.139a58.156 58.156 0 0 1 3.317-.465c1.137-.145 2.304-.289 3.503-.434l.527 4.03c-.517.062-1.085.134-1.705.217-.62.062-1.25.134-1.891.217-.62.062-1.219.134-1.798.217-.579.083-1.106.155-1.581.217-.765.124-1.436.3-2.015.527a3.862 3.862 0 0 0-1.457.899c-.393.393-.703.93-.93 1.612-.207.661-.341 1.519-.403 2.573h.217a5.784 5.784 0 0 1 1.023-1.178c.455-.393 1.013-.723 1.674-.992s1.416-.403 2.263-.403c1.343 0 2.511.279 3.503.837.992.558 1.757 1.385 2.294 2.48.537 1.095.806 2.459.806 4.092 0 1.922-.351 3.524-1.054 4.805-.703 1.281-1.674 2.253-2.914 2.914-1.24.641-2.676.961-4.309.961-1.24 0-2.366-.227-3.379-.682a7.037 7.037 0 0 1-2.604-2.015c-.723-.889-1.281-1.984-1.674-3.286-.372-1.302-.558-2.79-.558-4.464Zm8.494 6.696c.661 0 1.23-.145 1.705-.434.496-.289.878-.765 1.147-1.426.289-.661.434-1.55.434-2.666 0-1.343-.227-2.408-.682-3.193-.434-.806-1.199-1.209-2.294-1.209-.661 0-1.281.165-1.86.496a5.913 5.913 0 0 0-1.426 1.085c-.393.393-.661.734-.806 1.023 0 .806.062 1.591.186 2.356.124.744.331 1.416.62 2.015.289.599.672 1.075 1.147 1.426.496.351 1.106.527 1.829.527ZM145.702 363v-16.926h4.619v6.541h2.232c1.736 0 3.162.186 4.278.558 1.116.351 1.943.899 2.48 1.643.558.744.837 1.674.837 2.79 0 1.095-.258 2.046-.775 2.852-.496.806-1.291 1.436-2.387 1.891-1.074.434-2.5.651-4.278.651h-7.006Zm6.758-3.193c.91 0 1.643-.165 2.201-.496.579-.331.868-.878.868-1.643 0-.661-.268-1.137-.806-1.426-.516-.289-1.291-.434-2.325-.434h-2.077v3.999h2.139ZM162.597 363v-16.926h4.619V363h-4.619Zm24.602 0h-4.619v-13.454h-4.247c-.207 2.48-.465 4.598-.775 6.355-.289 1.736-.661 3.152-1.116 4.247-.434 1.095-.992 1.901-1.674 2.418-.682.496-1.519.744-2.511.744a7.794 7.794 0 0 1-1.457-.124 4.944 4.944 0 0 1-1.178-.372v-3.689c.227.083.465.155.713.217.248.062.506.093.775.093.289 0 .558-.114.806-.341.269-.227.517-.63.744-1.209.248-.579.475-1.374.682-2.387.207-1.013.393-2.284.558-3.813.186-1.55.351-3.42.496-5.611h12.803V363Zm22.904-17.236c1.901 0 3.441.744 4.619 2.232 1.178 1.467 1.767 3.637 1.767 6.51 0 1.922-.279 3.544-.837 4.867-.558 1.302-1.323 2.284-2.294 2.945-.972.661-2.098.992-3.379.992-.806 0-1.509-.103-2.108-.31a5.103 5.103 0 0 1-1.488-.806 7.502 7.502 0 0 1-1.085-1.054h-.248a12.555 12.555 0 0 1 .248 2.48v6.82h-4.619v-24.366h3.751l.651 2.201h.217c.31-.455.682-.868 1.116-1.24.434-.393.95-.703 1.55-.93.62-.227 1.333-.341 2.139-.341Zm-1.488 3.689c-.806 0-1.447.165-1.922.496-.476.331-.827.837-1.054 1.519-.207.661-.321 1.498-.341 2.511v.496c0 1.095.103 2.025.31 2.79.206.744.558 1.312 1.054 1.705s1.167.589 2.015.589c.702 0 1.281-.196 1.736-.589.454-.393.795-.971 1.023-1.736.227-.765.341-1.695.341-2.79 0-1.653-.259-2.893-.775-3.72-.496-.847-1.292-1.271-2.387-1.271Zm18.625-3.72c2.273 0 4.009.496 5.208 1.488 1.219.971 1.829 2.47 1.829 4.495V363h-3.224l-.899-2.294h-.124a8.436 8.436 0 0 1-1.488 1.488 4.52 4.52 0 0 1-1.736.837c-.641.186-1.436.279-2.387.279-.992 0-1.891-.186-2.697-.558a4.385 4.385 0 0 1-1.86-1.767c-.455-.806-.682-1.819-.682-3.038 0-1.798.63-3.121 1.891-3.968 1.261-.868 3.152-1.343 5.673-1.426l2.945-.093v-.744c0-.889-.238-1.54-.713-1.953-.455-.413-1.095-.62-1.922-.62a7.98 7.98 0 0 0-2.418.372 18.08 18.08 0 0 0-2.356.868l-1.519-3.131a13.34 13.34 0 0 1 3.007-1.116 14.764 14.764 0 0 1 3.472-.403Zm.651 9.486c-1.488.041-2.521.31-3.1.806-.579.496-.868 1.147-.868 1.953 0 .703.207 1.209.62 1.519.413.289.951.434 1.612.434.992 0 1.829-.289 2.511-.868.682-.599 1.023-1.436 1.023-2.511v-1.395l-1.798.062Zm17.996 8.091c-1.674 0-3.1-.3-4.278-.899-1.178-.62-2.077-1.571-2.697-2.852-.62-1.281-.93-2.924-.93-4.929 0-2.067.351-3.751 1.054-5.053.703-1.302 1.674-2.263 2.914-2.883 1.261-.62 2.707-.93 4.34-.93 1.157 0 2.16.114 3.007.341.868.227 1.622.496 2.263.806l-1.364 3.565a22.246 22.246 0 0 0-2.046-.713 6.444 6.444 0 0 0-1.86-.279c-.806 0-1.478.196-2.015.589-.537.372-.94.94-1.209 1.705-.248.744-.372 1.684-.372 2.821 0 1.116.134 2.046.403 2.79.289.723.703 1.271 1.24 1.643.537.351 1.188.527 1.953.527.971 0 1.829-.124 2.573-.372.744-.269 1.467-.63 2.17-1.085v3.937a7.095 7.095 0 0 1-2.232.961c-.765.207-1.736.31-2.914.31Zm20.14-17.236h5.084l-6.696 8.122L271.7 363h-5.239l-6.913-8.587V363h-4.619v-16.926h4.619v8.215l6.479-8.215Zm17.519-.31c1.901 0 3.441.744 4.619 2.232 1.178 1.467 1.767 3.637 1.767 6.51 0 1.922-.279 3.544-.837 4.867-.558 1.302-1.323 2.284-2.294 2.945-.971.661-2.098.992-3.379.992-.806 0-1.509-.103-2.108-.31a5.103 5.103 0 0 1-1.488-.806 7.554 7.554 0 0 1-1.085-1.054h-.248c.083.393.145.806.186 1.24.041.413.062.827.062 1.24v6.82h-4.619v-24.366h3.751l.651 2.201h.217c.31-.455.682-.868 1.116-1.24a4.833 4.833 0 0 1 1.55-.93c.62-.227 1.333-.341 2.139-.341Zm-1.488 3.689c-.806 0-1.447.165-1.922.496-.475.331-.827.837-1.054 1.519-.207.661-.32 1.498-.341 2.511v.496c0 1.095.103 2.025.31 2.79.207.744.558 1.312 1.054 1.705s1.168.589 2.015.589c.703 0 1.281-.196 1.736-.589.455-.393.796-.971 1.023-1.736.227-.765.341-1.695.341-2.79 0-1.653-.258-2.893-.775-3.72-.496-.847-1.292-1.271-2.387-1.271ZM293.739 363v-16.926h4.619v6.541h2.232c1.736 0 3.162.186 4.278.558 1.116.351 1.943.899 2.48 1.643.558.744.837 1.674.837 2.79 0 1.095-.258 2.046-.775 2.852-.496.806-1.291 1.436-2.387 1.891-1.074.434-2.5.651-4.278.651h-7.006Zm6.758-3.193c.91 0 1.643-.165 2.201-.496.579-.331.868-.878.868-1.643 0-.661-.268-1.137-.806-1.426-.516-.289-1.291-.434-2.325-.434h-2.077v3.999h2.139ZM310.634 363v-16.926h4.619V363h-4.619Zm23.455-13.454h-5.549V363h-4.619v-13.454h-5.549v-3.472h15.717v3.472Z"/><rect width="44.138" height="6.621" x="155" y="195" fill="#592ACB" rx="3.31"/><rect width="44.138" height="6.621" x="207.966" y="195" fill="#592ACB" rx="3.31"/><rect width="129.103" height="6.621" x="260.931" y="195" fill="#D9BFFF" rx="3.31"/><path fill="#592ACB" d="M264.307 225.58v-1.279h.578c.72 0 1.039-.409 1.246-.912l.137-.344-3.386-7.227h1.542l2.525 5.568 2.248-5.568h1.524l-3.33 7.961c-.423.959-.921 1.801-2.426 1.801h-.658Zm7.271-6.141v-1.213h6.094v1.213h-2.356v6.009h-1.373v-6.009h-2.365Zm10.357 6.155c-2.13 0-3.437-1.467-3.437-3.71 0-2.219 1.326-3.752 3.339-3.752 1.636 0 3.197 1.02 3.197 3.63v.498h-5.135c.038 1.392.847 2.173 2.05 2.173.8 0 1.411-.348 1.665-1.03l1.331.24c-.32 1.175-1.434 1.951-3.01 1.951Zm-2.031-4.387h3.752c-.004-1.105-.719-1.914-1.81-1.914-1.143 0-1.886.889-1.942 1.914Zm12.488-2.981v7.222h-1.373v-2.403a6.02 6.02 0 0 1-1.505.193c-1.787 0-2.92-.86-2.92-2.666v-2.36h1.368v2.36c0 1.02.593 1.453 1.552 1.453.55 0 1.03-.075 1.505-.202v-3.597h1.373Zm1.87 7.222v-7.222h1.406v3.028h.677l2.384-3.028h1.74l-2.798 3.512 2.831 3.71h-1.745l-2.177-2.887h-.912v2.887h-1.406Zm9.434.16c-1.373 0-2.441-.78-2.441-2.201 0-1.641 1.402-1.998 2.77-2.158 1.298-.15 1.824-.141 1.824-.653v-.033c0-.819-.465-1.293-1.373-1.293-.945 0-1.471.493-1.678 1.006l-1.322-.301c.471-1.317 1.674-1.843 2.982-1.843 1.147 0 2.802.418 2.802 2.52v4.796h-1.373v-.987h-.056c-.268.541-.941 1.147-2.135 1.147Zm.306-1.128c1.17 0 1.852-.781 1.852-1.637v-.931c-.202.202-1.284.325-1.74.386-.813.108-1.481.376-1.481 1.128 0 .696.574 1.054 1.369 1.054Zm8.635.968v-7.222h5.892v7.222h-1.378v-6.009h-3.146v6.009h-1.368Zm9.874.16c-1.374 0-2.441-.78-2.441-2.201 0-1.641 1.401-1.998 2.77-2.158 1.297-.15 1.824-.141 1.824-.653v-.033c0-.819-.465-1.293-1.373-1.293-.945 0-1.472.493-1.679 1.006l-1.321-.301c.47-1.317 1.674-1.843 2.981-1.843 1.148 0 2.803.418 2.803 2.52v4.796h-1.373v-.987h-.057c-.268.541-.94 1.147-2.134 1.147Zm.305-1.128c1.171 0 1.853-.781 1.853-1.637v-.931c-.202.202-1.284.325-1.74.386-.813.108-1.481.376-1.481 1.128 0 .696.574 1.054 1.368 1.054Zm5.131 3.677v-9.931h1.373v1.171h.118c.249-.447.734-1.265 2.074-1.265 1.744 0 3.033 1.377 3.033 3.719 0 2.337-1.27 3.738-3.019 3.738-1.317 0-1.834-.804-2.088-1.265h-.085v3.833h-1.406Zm1.378-6.32c0 1.519.677 2.553 1.886 2.553 1.255 0 1.914-1.105 1.914-2.553 0-1.434-.64-2.511-1.914-2.511-1.228 0-1.886 1.002-1.886 2.511Zm9.837 3.757c-2.036 0-3.367-1.491-3.367-3.724 0-2.248 1.331-3.738 3.367-3.738s3.367 1.49 3.367 3.738c0 2.233-1.331 3.724-3.367 3.724Zm.005-1.18c1.321 0 1.942-1.162 1.942-2.549 0-1.382-.621-2.558-1.942-2.558-1.331 0-1.952 1.176-1.952 2.558 0 1.387.621 2.549 1.952 2.549Zm4.362 1.034-.004-1.218h.258c.804 0 1.058-.578 1.148-2.807l.127-3.197h5.04v7.222h-1.377v-6.009h-2.361l-.113 2.454c-.113 2.389-.691 3.555-2.266 3.555h-.452Zm11.557.146c-2.13 0-3.437-1.467-3.437-3.71 0-2.219 1.326-3.752 3.338-3.752 1.637 0 3.198 1.02 3.198 3.63v.498h-5.135c.038 1.392.847 2.173 2.05 2.173.8 0 1.411-.348 1.665-1.03l1.331.24c-.32 1.175-1.435 1.951-3.01 1.951Zm-2.031-4.387h3.752c-.005-1.105-.719-1.914-1.81-1.914-1.143 0-1.886.889-1.942 1.914Zm8.068 2.271 3.183-5.252h1.514v7.222h-1.378v-5.257l-3.169 5.257h-1.528v-7.222h1.378v5.252Zm2.581-7.697h1.157c0 1.058-.804 1.786-2.079 1.786-1.264 0-2.068-.728-2.068-1.786h1.152c0 .47.249.893.916.893.659 0 .922-.419.922-.893Zm7.92 4.852c0-2.356.63-4.321 1.824-5.995h1.289c-.927 1.241-1.656 3.762-1.656 5.995 0 2.238.729 4.759 1.656 6h-1.289c-1.194-1.674-1.824-3.639-1.824-6Zm4.576 4.815v-1.053l3.259-3.376c1.034-1.096 1.542-1.707 1.542-2.558 0-.959-.743-1.561-1.721-1.561-1.039 0-1.707.677-1.702 1.711h-1.387c0-1.758 1.316-2.925 3.117-2.925 1.815 0 3.076 1.185 3.076 2.732 0 1.077-.504 1.928-2.267 3.71l-1.914 2.004v.07h4.336v1.246H376.2Zm10.843-4.81c0 2.356-.63 4.321-1.824 5.995h-1.288c.926-1.241 1.655-3.762 1.655-5.995 0-2.238-.729-4.759-1.655-6h1.288c1.194 1.674 1.824 3.639 1.824 6Z"/><rect width="44.138" height="6.621" x="398.862" y="195" fill="#9E9E9E" rx="3.31"/><rect width="351" height="40" x="124" y="388" fill="#592ACB" rx="4"/><path fill="#fff" d="M219.25 401.29v8.82h1.425v5.01h-2.19V412h-6.705v3.12h-2.19v-5.01h.825c.28-.56.55-1.15.81-1.77.26-.62.5-1.285.72-1.995.23-.71.435-1.48.615-2.31.18-.84.33-1.755.45-2.745h6.24Zm-4.44 1.89c-.07.52-.17 1.075-.3 1.665-.13.58-.285 1.175-.465 1.785-.17.61-.36 1.21-.57 1.8-.21.59-.435 1.15-.675 1.68h4.185v-6.93h-2.175Zm10.69.465c1.1 0 1.94.24 2.52.72.59.47.885 1.195.885 2.175V412h-1.56l-.435-1.11h-.06c-.23.29-.47.53-.72.72-.24.19-.52.325-.84.405-.31.09-.695.135-1.155.135-.48 0-.915-.09-1.305-.27-.38-.19-.68-.475-.9-.855-.22-.39-.33-.88-.33-1.47 0-.87.305-1.51.915-1.92.61-.42 1.525-.65 2.745-.69l1.425-.045v-.36c0-.43-.115-.745-.345-.945-.22-.2-.53-.3-.93-.3s-.79.06-1.17.18c-.38.11-.76.25-1.14.42l-.735-1.515c.44-.23.925-.41 1.455-.54.54-.13 1.1-.195 1.68-.195Zm.315 4.59c-.72.02-1.22.15-1.5.39-.28.24-.42.555-.42.945 0 .34.1.585.3.735.2.14.46.21.78.21.48 0 .885-.14 1.215-.42.33-.29.495-.695.495-1.215v-.675l-.87.03Zm12.637-2.28c0 .44-.14.815-.42 1.125-.27.31-.675.51-1.215.6v.06c.57.07 1.025.265 1.365.585.35.32.525.73.525 1.23 0 .35-.07.675-.21.975-.13.3-.34.56-.63.78-.29.22-.665.39-1.125.51-.45.12-1 .18-1.65.18h-3.9v-8.19h3.9c.64 0 1.21.07 1.71.21.51.13.91.35 1.2.66.3.31.45.735.45 1.275Zm-2.055 3.48c0-.32-.125-.55-.375-.69-.25-.15-.625-.225-1.125-.225h-1.47v1.935h1.515c.42 0 .765-.075 1.035-.225.28-.16.42-.425.42-.795Zm-.21-3.3c0-.26-.1-.45-.3-.57-.2-.12-.495-.18-.885-.18h-1.575v1.62h1.32c.47 0 .825-.065 1.065-.195.25-.14.375-.365.375-.675Zm7.799-2.49c1.1 0 1.94.24 2.52.72.59.47.885 1.195.885 2.175V412h-1.56l-.435-1.11h-.06c-.23.29-.47.53-.72.72-.24.19-.52.325-.84.405-.31.09-.695.135-1.155.135-.48 0-.915-.09-1.305-.27-.38-.19-.68-.475-.9-.855-.22-.39-.33-.88-.33-1.47 0-.87.305-1.51.915-1.92.61-.42 1.525-.65 2.745-.69l1.425-.045v-.36c0-.43-.115-.745-.345-.945-.22-.2-.53-.3-.93-.3s-.79.06-1.17.18c-.38.11-.76.25-1.14.42l-.735-1.515c.44-.23.925-.41 1.455-.54.54-.13 1.1-.195 1.68-.195Zm.315 4.59c-.72.02-1.22.15-1.5.39-.28.24-.42.555-.42.945 0 .34.1.585.3.735.2.14.46.21.78.21.48 0 .885-.14 1.215-.42.33-.29.495-.695.495-1.215v-.675l-.87.03Zm13.223-7.95c-.05.52-.195.98-.435 1.38-.24.39-.615.695-1.125.915-.51.22-1.195.33-2.055.33-.88 0-1.57-.105-2.07-.315-.49-.22-.84-.525-1.05-.915-.21-.39-.335-.855-.375-1.395h1.995c.05.55.19.915.42 1.095.23.18.605.27 1.125.27.43 0 .78-.095 1.05-.285.28-.2.445-.56.495-1.08h2.025Zm-5.685 6.765c0 .17-.01.38-.03.63-.01.25-.025.505-.045.765-.01.26-.025.49-.045.69-.02.2-.035.34-.045.42l3.78-5.745h2.685V412h-2.16v-3.27c0-.27.01-.565.03-.885.02-.33.04-.635.06-.915.03-.29.05-.51.06-.66l-3.765 5.73h-2.685v-8.19h2.16v3.24Zm15.416-1.56h-2.685V412h-2.235v-6.51h-2.685v-1.68h7.605v1.68Zm4.739-1.83c.76 0 1.41.145 1.95.435.55.29.975.71 1.275 1.26.3.55.45 1.225.45 2.025v1.08h-5.28c.02.63.205 1.125.555 1.485.36.36.855.54 1.485.54.53 0 1.01-.05 1.44-.15.43-.11.875-.275 1.335-.495v1.725c-.4.2-.825.345-1.275.435-.44.1-.975.15-1.605.15-.82 0-1.545-.15-2.175-.45a3.445 3.445 0 0 1-1.485-1.395c-.36-.62-.54-1.4-.54-2.34 0-.96.16-1.755.48-2.385.33-.64.785-1.12 1.365-1.44.58-.32 1.255-.48 2.025-.48Zm.015 1.59c-.43 0-.79.14-1.08.42-.28.28-.445.715-.495 1.305h3.135c0-.33-.06-.625-.18-.885a1.34 1.34 0 0 0-.51-.615c-.23-.15-.52-.225-.87-.225Zm11.881 1.8c0 .17-.01.38-.03.63-.01.25-.025.505-.045.765-.01.26-.025.49-.045.69-.02.2-.035.34-.045.42l3.78-5.745h2.685V412h-2.16v-3.27c0-.27.01-.565.03-.885.02-.33.04-.635.06-.915.03-.29.05-.51.06-.66l-3.765 5.73h-2.685v-8.19h2.16v3.24Zm11.965 5.1c-.81 0-1.5-.145-2.07-.435-.57-.3-1.005-.76-1.305-1.38-.3-.62-.45-1.415-.45-2.385 0-1 .17-1.815.51-2.445.34-.63.81-1.095 1.41-1.395.61-.3 1.31-.45 2.1-.45.56 0 1.045.055 1.455.165.42.11.785.24 1.095.39l-.66 1.725c-.35-.14-.68-.255-.99-.345-.3-.09-.6-.135-.9-.135-.39 0-.715.095-.975.285-.26.18-.455.455-.585.825-.12.36-.18.815-.18 1.365 0 .54.065.99.195 1.35.14.35.34.615.6.795.26.17.575.255.945.255.47 0 .885-.06 1.245-.18.36-.13.71-.305 1.05-.525v1.905c-.34.22-.7.375-1.08.465-.37.1-.84.15-1.41.15Zm11.816-8.34V412h-2.235v-6.51h-2.97V412h-2.235v-8.19h7.44Zm6.905-.15c.92 0 1.665.36 2.235 1.08.57.71.855 1.76.855 3.15 0 .93-.135 1.715-.405 2.355-.27.63-.64 1.105-1.11 1.425-.47.32-1.015.48-1.635.48-.39 0-.73-.05-1.02-.15-.28-.1-.52-.23-.72-.39-.2-.16-.375-.33-.525-.51h-.12a6.026 6.026 0 0 1 .12 1.2v3.3h-2.235v-11.79h1.815l.315 1.065h.105c.15-.22.33-.42.54-.6.21-.19.46-.34.75-.45.3-.11.645-.165 1.035-.165Zm-.72 1.785c-.39 0-.7.08-.93.24-.23.16-.4.405-.51.735-.1.32-.155.725-.165 1.215v.24c0 .53.05.98.15 1.35.1.36.27.635.51.825.24.19.565.285.975.285.34 0 .62-.095.84-.285.22-.19.385-.47.495-.84.11-.37.165-.82.165-1.35 0-.8-.125-1.4-.375-1.8-.24-.41-.625-.615-1.155-.615Zm9.012-1.8c1.1 0 1.94.24 2.52.72.59.47.885 1.195.885 2.175V412h-1.56l-.435-1.11h-.06c-.23.29-.47.53-.72.72-.24.19-.52.325-.84.405-.31.09-.695.135-1.155.135-.48 0-.915-.09-1.305-.27-.38-.19-.68-.475-.9-.855-.22-.39-.33-.88-.33-1.47 0-.87.305-1.51.915-1.92.61-.42 1.525-.65 2.745-.69l1.425-.045v-.36c0-.43-.115-.745-.345-.945-.22-.2-.53-.3-.93-.3s-.79.06-1.17.18c-.38.11-.76.25-1.14.42l-.735-1.515c.44-.23.925-.41 1.455-.54.54-.13 1.1-.195 1.68-.195Zm.315 4.59c-.72.02-1.22.15-1.5.39-.28.24-.42.555-.42.945 0 .34.1.585.3.735.2.14.46.21.78.21.48 0 .885-.14 1.215-.42.33-.29.495-.695.495-1.215v-.675l-.87.03Zm12.638-2.28c0 .44-.14.815-.42 1.125-.27.31-.675.51-1.215.6v.06c.57.07 1.025.265 1.365.585.35.32.525.73.525 1.23 0 .35-.07.675-.21.975-.13.3-.34.56-.63.78-.29.22-.665.39-1.125.51-.45.12-1 .18-1.65.18h-3.9v-8.19h3.9c.64 0 1.21.07 1.71.21.51.13.91.35 1.2.66.3.31.45.735.45 1.275Zm-2.055 3.48c0-.32-.125-.55-.375-.69-.25-.15-.625-.225-1.125-.225h-1.47v1.935h1.515c.42 0 .765-.075 1.035-.225.28-.16.42-.425.42-.795Zm-.21-3.3c0-.26-.1-.45-.3-.57-.2-.12-.495-.18-.885-.18h-1.575v1.62h1.32c.47 0 .825-.065 1.065-.195.25-.14.375-.365.375-.675Zm6.598.915c0 .17-.01.38-.03.63-.01.25-.025.505-.045.765-.01.26-.025.49-.045.69-.02.2-.035.34-.045.42l3.78-5.745h2.685V412h-2.16v-3.27c0-.27.01-.565.03-.885.02-.33.04-.635.06-.915.03-.29.05-.51.06-.66l-3.765 5.73h-2.685v-8.19h2.16v3.24Zm18.956-3.24V412h-2.085v-4.02c0-.4.005-.79.015-1.17.02-.38.045-.73.075-1.05h-.045l-2.265 6.24h-1.68l-2.295-6.255h-.06c.04.33.065.685.075 1.065.02.37.03.78.03 1.23V412h-2.085v-8.19h3.165l2.04 5.55 2.07-5.55h3.045Zm8.474 8.34c-.52 0-.985-.04-1.395-.12-.4-.08-.775-.21-1.125-.39v-1.74c.36.16.74.3 1.14.42.41.11.83.165 1.26.165.34 0 .635-.06.885-.18.25-.13.45-.335.6-.615.15-.28.24-.64.27-1.08h-3.09v-1.485h3.09c-.04-.61-.19-1.065-.45-1.365-.25-.3-.625-.45-1.125-.45-.35 0-.69.05-1.02.15-.32.09-.615.195-.885.315l-.63-1.53c.32-.14.705-.27 1.155-.39.46-.13.95-.195 1.47-.195.72 0 1.365.125 1.935.375.57.25 1.02.675 1.35 1.275.34.6.51 1.435.51 2.505 0 .98-.155 1.795-.465 2.445-.31.64-.76 1.115-1.35 1.425-.58.31-1.29.465-2.13.465Zm12.42-6.66h-2.685V412h-2.235v-6.51h-2.685v-1.68h7.605v1.68Zm8.804 2.4c0 .68-.095 1.285-.285 1.815-.18.53-.445.98-.795 1.35-.34.36-.755.635-1.245.825-.49.18-1.045.27-1.665.27-.57 0-1.1-.09-1.59-.27a3.522 3.522 0 0 1-1.245-.825c-.35-.37-.625-.82-.825-1.35-.19-.53-.285-1.135-.285-1.815 0-.91.16-1.675.48-2.295.32-.63.78-1.11 1.38-1.44.6-.33 1.31-.495 2.13-.495.77 0 1.45.165 2.04.495.59.33 1.055.81 1.395 1.44.34.62.51 1.385.51 2.295Zm-5.655 0c0 .54.055.995.165 1.365.12.36.305.635.555.825.25.18.575.27.975.27s.72-.09.96-.27c.25-.19.43-.465.54-.825.12-.37.18-.825.18-1.365s-.06-.99-.18-1.35c-.11-.36-.29-.63-.54-.81-.25-.18-.575-.27-.975-.27-.59 0-1.02.205-1.29.615-.26.4-.39 1.005-.39 1.815Z"/></g><defs><linearGradient id="b" x1="536.816" x2="536.816" y1="137.926" y2="229.576" gradientUnits="userSpaceOnUse"><stop stop-color="#8060FE"/><stop offset="1" stop-color="#626BFA"/></linearGradient><linearGradient id="d" x1="192.726" x2="174.795" y1="91.129" y2="122.183" gradientUnits="userSpaceOnUse"><stop stop-color="#FF980E"/><stop offset=".21" stop-color="#FF7139"/><stop offset=".36" stop-color="#FF5854"/><stop offset=".46" stop-color="#FF4F5E"/><stop offset=".69" stop-color="#FF3750"/><stop offset=".86" stop-color="#F92261"/><stop offset="1" stop-color="#F5156C"/></linearGradient><linearGradient id="e" x1="192.726" x2="174.795" y1="91.129" y2="122.183" gradientUnits="userSpaceOnUse"><stop stop-color="#FFF44F" stop-opacity=".8"/><stop offset=".09" stop-color="#FFF44F" stop-opacity=".7"/><stop offset=".75" stop-color="#FFF44F" stop-opacity="0"/></linearGradient><linearGradient id="f" x1="194.178" x2="194.178" y1="127.181" y2="88.705" gradientUnits="userSpaceOnUse"><stop stop-color="#3A8EE6"/><stop offset=".24" stop-color="#5C79F0"/><stop offset=".63" stop-color="#9059FF"/><stop offset="1" stop-color="#C139E6"/></linearGradient><linearGradient id="g" x1="187.637" x2="203.628" y1="88.566" y2="104.556" gradientUnits="userSpaceOnUse"><stop stop-color="#6E008B" stop-opacity=".5"/><stop offset=".5" stop-color="#C846CB" stop-opacity="0"/></linearGradient><linearGradient id="h" x1="202.122" x2="194.612" y1="108.347" y2="115.856" gradientUnits="userSpaceOnUse"><stop offset=".14" stop-color="#6A2BEA" stop-opacity="0"/><stop offset=".34" stop-color="#642DE4" stop-opacity=".03"/><stop offset=".55" stop-color="#5131D3" stop-opacity=".12"/><stop offset=".76" stop-color="#3139B7" stop-opacity=".27"/><stop offset=".98" stop-color="#054490" stop-opacity=".48"/><stop offset="1" stop-color="#00458B" stop-opacity=".5"/></linearGradient><linearGradient id="i" x1="190.076" x2="192.253" y1="114.805" y2="117.401" gradientUnits="userSpaceOnUse"><stop stop-color="#960E18" stop-opacity=".6"/><stop offset=".19" stop-color="#AC1624" stop-opacity=".48"/><stop offset=".58" stop-color="#E42C41" stop-opacity=".16"/><stop offset=".75" stop-color="#FF3750" stop-opacity="0"/></linearGradient><clipPath id="a"><rect width="620" height="450" fill="#fff" rx="15"/></clipPath></defs></svg>
