<svg width="8" height="15" viewBox="0 0 8 15" fill="none" xmlns="http://www.w3.org/2000/svg"><g clip-path="url(#a)"><path d="M5.05942 4.10949V2.22462c1.59466.39188 2.78117 1.87197 2.78117 3.5858H6.09986c0-.74044-.42335-1.38344-1.04044-1.70093ZM2.27589 8.68156H.535156c0 1.71464 1.187684 3.15694 2.783484 3.54794v-1.8458c-.61834-.3171-1.04275-.96079-1.04275-1.70214Zm4.20434-1.84297c-.66251-.35034-1.45633-.48074-2.22399-.60682-1.72047-.28259-1.98035-.47653-1.98035-.99677 0-.44326.14313-.75194.45046-.97147.15752-.11251.35869-.20054.59229-.26213V2.22462c-.62161.09978-1.16664.30997-1.60407.62242C.942983 3.39818.535156 4.22391.535156 5.235c0 .96371.455033 1.70622 1.315904 2.14723.62791.32168 1.38799.44651 2.12307.56726 1.74826.28716 2.12573.49598 2.12573 1.17606 0 .46097-.15689.80739-.47967 1.05905-.15434.1203-.34443.2156-.56077.2841v1.7608c.62532-.1125 1.17939-.32 1.631-.6721.74169-.5782 1.15017-1.4418 1.15017-2.43185 0-1.02548-.47041-1.81628-1.36036-2.28696ZM3.31864 12.2295v1.7455h1.74078v-1.7455H3.31864ZM5.05942 2.22462V.5H3.31864v1.72462h1.74078Z" fill="#000"/></g><defs><clipPath id="a"><path fill="#fff" transform="translate(.535156 .5)" d="M0 0h7.31v14H0z"/></clipPath></defs></svg>
