<svg width="21" height="15" viewBox="0 0 21 15" fill="none" xmlns="http://www.w3.org/2000/svg"><g clip-path="url(#a)"><path d="M16.6144 7.59742h1.7515c-.1116 2.04191-1.8139 3.66898-3.8832 3.66898-2.1412 0-3.8832-1.74204-3.8832-3.88322v-.1339h-.9371v.1339c0 2.14118-1.742 3.88322-3.88318 3.88322-2.0693 0-3.77159-1.62707-3.88318-3.66898h1.75148c.10783 1.08114 1.02266 1.9282 2.1317 1.9282 1.18135 0 2.14244-.96109 2.14244-2.14244V5.70939c0-.25841-.21024-.46866-.46866-.46866H4.10543c-.25841 0-.46866.21025-.46866.46866v.1473H1.89604v-.1473c0-1.21825.99114-2.20939 2.20939-2.20939H7.453c1.15052 0 2.09798.88412 2.19985 2.00854h.95625C10.7109 4.38412 11.6584 3.5 12.8089 3.5h3.3476c1.2182 0 2.2094.99114 2.2094 2.20939v.1473h-1.7407v-.1473c0-.25841-.2103-.46866-.4687-.46866h-3.3476c-.2584 0-.4686.21025-.4686.46866v1.67379c0 1.18135.9611 2.14244 2.1424 2.14244 1.109 0 2.0239-.84706 2.1317-1.9282Zm1.7515-1.74073v1.74073h1.7408V5.85669h-1.7408Zm-18.210627 0v1.74073H1.89604V5.85669H.155273Z" fill="#000"/></g><defs><clipPath id="a"><path fill="#fff" transform="translate(.155273 .5)" d="M0 0h19.95v14H0z"/></clipPath></defs></svg>
