<svg width="182" height="69" viewBox="0 0 182 69" fill="none" xmlns="http://www.w3.org/2000/svg"><mask id="a" maskUnits="userSpaceOnUse" x="0" y="0" width="182" height="69" fill="#000"><path fill="#fff" d="M0 0h182v69H0z"/><path fill-rule="evenodd" clip-rule="evenodd" d="m12.627 62.524-6.174-6.217A5 5 0 0 1 5 52.784V10a5 5 0 0 1 5-5h80.825a5 5 0 0 1 3.548 1.476l6.174 6.217A4.998 4.998 0 0 1 102 16.216V59a5 5 0 0 1-5 5H16.175a5 5 0 0 1-3.548-1.476ZM118.93 58.5l5.716 4.446a5 5 0 0 0 3.07 1.053H172a5 5 0 0 0 5-5V16.216c0-1.32-.522-2.587-1.453-3.523l-6.174-6.217a5.009 5.009 0 0 0-1.343-.964c-.422-.329-.891-.512-1.385-.512H119.355C117.502 5 116 7.58 116 10.764v41.472c0 2.305.787 4.294 1.925 5.216a4.99 4.99 0 0 0 1.005 1.05Z"/></mask><path fill-rule="evenodd" clip-rule="evenodd" d="m12.627 62.524-6.174-6.217A5 5 0 0 1 5 52.784V10a5 5 0 0 1 5-5h80.825a5 5 0 0 1 3.548 1.476l6.174 6.217A4.998 4.998 0 0 1 102 16.216V59a5 5 0 0 1-5 5H16.175a5 5 0 0 1-3.548-1.476ZM118.93 58.5l5.716 4.446a5 5 0 0 0 3.07 1.053H172a5 5 0 0 0 5-5V16.216c0-1.32-.522-2.587-1.453-3.523l-6.174-6.217a5.009 5.009 0 0 0-1.343-.964c-.422-.329-.891-.512-1.385-.512H119.355C117.502 5 116 7.58 116 10.764v41.472c0 2.305.787 4.294 1.925 5.216a4.99 4.99 0 0 0 1.005 1.05Z" fill="#000"/><path d="M6.453 56.307 10 52.784l-3.547 3.523Zm6.174 6.217L9.08 66.047l3.547-3.523ZM94.373 6.476 90.825 10l3.548-3.524Zm6.174 6.217 3.548-3.524-3.548 3.524Zm24.099 50.254 3.07-3.947-3.07 3.947ZM118.93 58.5l3.07-3.946-3.07 3.946Zm56.617-45.808 3.548-3.524-3.548 3.524Zm-6.174-6.217L165.825 10l3.548-3.524Zm-1.343-.964-3.074 3.944.407.317.462.227 2.205-4.488Zm-50.105 51.94L122 54.555l-.396-.557-.53-.43-3.149 3.884ZM2.905 59.83l6.175 6.216L16.175 59 10 52.784 2.905 59.83ZM0 52.784a10 10 0 0 0 2.905 7.047L10 52.784H0Zm0-.49v.49h10v-.49H0ZM0 10.77v41.522h10V10.771H0ZM0 10v.77h10V10H0ZM10 0C4.477 0 0 4.477 0 10h10V0Zm.644 0H10v10h.644V0ZM90.21 0H10.644v10H90.21V0Zm.615 0h-.615v10h.615V0Zm7.095 2.953A10 10 0 0 0 90.825 0v10l7.095-7.047Zm6.175 6.216L97.92 2.953 90.825 10 97 16.216l7.095-7.047ZM107 16.216a10 10 0 0 0-2.905-7.047L97 16.216h10Zm0 22.862V16.216H97v22.862h10ZM107 59V39.078H97V59h10ZM97 69c5.523 0 10-4.477 10-10H97v10Zm-80.825 0H97V59H16.175v10ZM9.08 66.047A10 10 0 0 0 16.175 69V59L9.08 66.047ZM127.716 59 122 54.555l-6.139 7.893 5.715 4.446 6.14-7.894Zm0 0-6.14 7.894a10 10 0 0 0 6.14 2.106V59ZM172 59h-44.284v10H172V59Zm0 0v10c5.523 0 10-4.477 10-10h-10Zm0-19.922V59h10V39.078h-10Zm0-22.862v22.862h10V16.216h-10Zm0 0h10a9.999 9.999 0 0 0-2.905-7.047L172 16.216ZM165.825 10 172 16.216l7.095-7.047-6.175-6.216L165.825 10Zm0 0 7.095-7.047a10 10 0 0 0-2.685-1.928L165.825 10Zm.82 0c-.809 0-1.394-.315-1.689-.544l6.148-7.887C169.965.681 168.442 0 166.645 0v10Zm-.82 0h.82V0h-.82v10ZM122 10h43.825V0H122v10Zm-2.645 0H122V0h-2.645v10Zm1.645.764c0-.868.215-1.408.304-1.56.039-.069-.032.088-.316.294a2.803 2.803 0 0 1-1.633.502V0c-3.449 0-5.641 2.364-6.694 4.173-1.125 1.934-1.661 4.275-1.661 6.59h10Zm0 41.472V10.764h-10v41.472h10Zm.074 1.332c.088.072.148.133.184.173.035.04.051.064.052.065a1.662 1.662 0 0 1-.095-.206c-.11-.291-.215-.763-.215-1.364h-10c0 3.132 1.025 6.87 3.776 9.1l6.298-7.768Zm.926.987-8.15 5.794a9.971 9.971 0 0 0 2.011 2.1L122 54.554Z" fill="#fff" mask="url(#a)"/><path fill-rule="evenodd" clip-rule="evenodd" d="m6.453 56.307 6.174 6.217A5 5 0 0 0 16.175 64H97a5 5 0 0 0 5-5V16.216c0-1.32-.522-2.587-1.453-3.523l-6.174-6.217A5 5 0 0 0 90.825 5H10a5 5 0 0 0-5 5v42.784a5 5 0 0 0 1.453 3.523Zm112.477 2.194 5.716 4.446a5 5 0 0 0 3.07 1.053H172a5 5 0 0 0 5-5V16.216c0-1.32-.522-2.587-1.453-3.523l-6.174-6.217A5.002 5.002 0 0 0 165.825 5H122a5 5 0 0 0-5 5v44.555a5 5 0 0 0 1.93 3.946Z" fill="url(#b)"/><path d="m12.627 62.524-.567.563.567-.563Zm-6.174-6.217.567-.564-.567.564Zm94.094-43.614.568-.564-.568.564Zm-6.174-6.217-.568.564.568-.564Zm30.273 56.47.491-.63-.491.63Zm-5.716-4.445.491-.631-.491.631Zm56.617-45.808.568-.564-.568.564Zm-6.174-6.217-.568.564.568-.564ZM13.195 61.96 7.02 55.743l-1.135 1.128 6.175 6.216 1.135-1.127Zm2.98 1.24a4.2 4.2 0 0 1-2.98-1.24l-1.135 1.127a5.8 5.8 0 0 0 4.115 1.713v-1.6ZM97 63.2H16.175v1.6H97v-1.6Zm4.2-4.2a4.2 4.2 0 0 1-4.2 4.2v1.6a5.8 5.8 0 0 0 5.8-5.8h-1.6Zm0-19.922V59h1.6V39.078h-1.6Zm0-22.862v22.862h1.6V16.216h-1.6Zm-1.22-2.96a4.201 4.201 0 0 1 1.22 2.96h1.6c0-1.531-.606-3-1.685-4.087l-1.135 1.128ZM93.805 7.04l6.175 6.217 1.135-1.128-6.175-6.216-1.135 1.127Zm-2.98-1.24a4.2 4.2 0 0 1 2.98 1.24l1.135-1.127A5.8 5.8 0 0 0 90.825 4.2v1.6ZM10 5.8h80.825V4.2H10v1.6ZM5.8 10A4.2 4.2 0 0 1 10 5.8V4.2A5.8 5.8 0 0 0 4.2 10h1.6Zm0 42.784V10H4.2v42.784h1.6Zm1.22 2.96a4.2 4.2 0 0 1-1.22-2.96H4.2c0 1.531.606 3 1.685 4.087l1.135-1.128Zm118.117 6.571-5.716-4.445-.982 1.263 5.716 4.445.982-1.263Zm2.579.885a4.2 4.2 0 0 1-2.579-.885l-.982 1.263a5.8 5.8 0 0 0 3.561 1.222v-1.6Zm44.284 0h-44.284v1.6H172v-1.6Zm4.2-4.2a4.2 4.2 0 0 1-4.2 4.2v1.6a5.8 5.8 0 0 0 5.8-5.8h-1.6Zm0-19.922V59h1.6V39.078h-1.6Zm0-22.862v22.862h1.6V16.216h-1.6Zm-1.22-2.96a4.202 4.202 0 0 1 1.22 2.96h1.6c0-1.531-.606-3-1.685-4.087l-1.135 1.128Zm-6.175-6.216 6.175 6.217 1.135-1.128-6.175-6.216-1.135 1.127Zm-2.98-1.24a4.2 4.2 0 0 1 2.98 1.24l1.135-1.127a5.799 5.799 0 0 0-4.115-1.713v1.6ZM122 5.8h43.825V4.2H122v1.6Zm-4.2 4.2a4.2 4.2 0 0 1 4.2-4.2V4.2a5.8 5.8 0 0 0-5.8 5.8h1.6Zm0 44.555V10h-1.6v44.555h1.6Zm1.621 3.315a4.2 4.2 0 0 1-1.621-3.315h-1.6a5.8 5.8 0 0 0 2.239 4.578l.982-1.263Z" fill="#000"/><path d="M90.21 5H10.644C7.527 5 5 7.584 5 10.77v41.523c0 3.187 2.527 5.771 5.644 5.771H90.21c3.117 0 5.644-2.584 5.644-5.77V10.77C95.854 7.584 93.327 5 90.21 5ZM166.645 5h-47.29C117.502 5 116 7.58 116 10.764v41.472c0 3.183 1.502 5.764 3.355 5.764h47.29c1.853 0 3.355-2.58 3.355-5.764V10.764C170 7.58 168.498 5 166.645 5Z" fill="#fff" stroke="#000" stroke-width="1.6" stroke-linecap="round" stroke-linejoin="round"/><path d="M141.905 38.944V34.54h-4.395v-2.186h4.395V27.96h2.186v4.395h4.404v2.186h-4.404v4.404h-2.186ZM21.494 29.188h-1.538c-.252-1.306-1.331-2.03-2.618-2.03-1.74 0-3.041 1.345-3.041 3.794 0 2.47 1.306 3.796 3.036 3.796 1.277 0 2.361-.71 2.623-2.001l1.538.005c-.33 1.996-1.952 3.386-4.17 3.386-2.623 0-4.54-1.957-4.54-5.185 0-3.23 1.927-5.186 4.54-5.186 2.134 0 3.824 1.262 4.17 3.42Zm4.544-.76v1.184h-1.553v4.165c0 .853.43 1.01.907 1.01.237 0 .42-.044.518-.064l.266 1.218a2.82 2.82 0 0 1-.956.158c-1.163.024-2.213-.641-2.208-2.016v-4.471h-1.11v-1.183h1.11v-1.814h1.473v1.814h1.553ZM26.974 36v-7.571H28.4v1.203h.079c.276-.814 1.035-1.317 1.922-1.317.187 0 .478.015.626.035v1.41a3.481 3.481 0 0 0-.769-.09c-1.045 0-1.809.716-1.809 1.706V36h-1.474Zm6.107-10.095V36h-1.474V25.905h1.474Zm8.113-.473-3.253 12.086h-1.316l3.253-12.086h1.316Zm-19.7 16.756h-1.538c-.252-1.306-1.331-2.03-2.618-2.03-1.74 0-3.041 1.345-3.041 3.794 0 2.47 1.306 3.796 3.036 3.796 1.277 0 2.361-.71 2.623-2.001l1.538.005c-.33 1.996-1.952 3.386-4.17 3.386-2.623 0-4.54-1.957-4.54-5.185 0-3.23 1.927-5.186 4.54-5.186 2.134 0 3.824 1.262 4.17 3.42ZM22.504 49v-7.571h1.415v1.232h.093c.316-.833 1.06-1.33 2.06-1.33 1.011 0 1.706.502 2.036 1.33h.08c.364-.808 1.182-1.33 2.271-1.33 1.37 0 2.337.862 2.337 2.592V49h-1.474v-4.939c0-1.025-.64-1.46-1.42-1.46-.96 0-1.518.661-1.518 1.573V49h-1.469v-5.033c0-.823-.566-1.365-1.385-1.365-.838 0-1.552.71-1.552 1.73V49h-1.474Zm14.408.148c-1.839 0-3.165-1.469-3.165-3.919 0-2.454 1.346-3.899 3.174-3.899 1.41 0 1.913.858 2.18 1.326h.088v-3.751h1.474V49h-1.44v-1.178H39.1c-.266.483-.808 1.326-2.188 1.326Zm.325-1.257c1.272 0 1.977-1.084 1.977-2.677 0-1.582-.69-2.632-1.977-2.632-1.331 0-2.001 1.129-2.001 2.632 0 1.519.685 2.677 2 2.677Z" fill="#000"/><defs><linearGradient id="b" x1="177" y1="30.5" x2="111.925" y2="115.193" gradientUnits="userSpaceOnUse"><stop stop-color="#FF7139"/><stop offset="1" stop-color="#FFEA7F"/></linearGradient></defs></svg>
