<svg id="icon-help" xmlns="http://www.w3.org/2000/svg" viewBox="0 0 44.3 44.3"><style>.st0{fill:#C33B32;}</style><path class="st0" d="M7.6 44.3h-.4c-2-.1-3.9-1-5.2-2.5-1.4-1.5-2-3.5-1.9-5.5.1-2 1-3.9 2.5-5.2L19.9 16c-.5-2.9-1-8.6 2.5-12.1C25.4.8 29.8-.5 34 .4c.3 0 .6.2.9.5.6.6.5 1.6-.1 2.2L30 7.9l-1 4 3.4 3.4 4.1-.8 4.8-4.9c.2-.2.5-.4.9-.5.9-.1 1.7.4 1.8 1.3.8 4.2-.5 8.5-3.5 11.6-3.5 3.5-9.3 3-12.1 2.5L13.3 41.7c-.2.2-.4.5-.7.7-1.3 1.2-3.1 1.9-5 1.9zM31.4 2c-2.9 0-5.6 1.1-7.7 3.2-3.1 3.1-2.2 9.1-1.8 10.9.1.4-.1.7-.3 1L3.9 32.5c-1.1 1-1.8 2.4-1.9 3.9s.4 2.9 1.4 4.1c1 1.1 2.4 1.8 3.9 1.9 1.5.1 2.9-.4 4.1-1.4l.5-.5 15.4-17.7c.2-.3.6-.4 1-.3 1.8.4 7.7 1.3 10.9-1.8 2.4-2.4 3.5-5.7 3.1-9L37.7 16c-.1.1-.3.2-.5.3l-4.9 1c-.3.1-.7 0-.9-.3l-4.1-4.1c-.3-.2-.4-.6-.3-.9l1-4.9c0-.2.1-.4.3-.5l4.5-4.5c-.5-.1-.9-.1-1.4-.1z"/><path class="st0" d="M8.1 38.5c-.6 0-1.2-.2-1.7-.7-.4-.4-.7-1-.7-1.7 0-.6.2-1.2.7-1.7.4-.4 1-.7 1.7-.7.6 0 1.2.2 1.7.7.9.9.9 2.4 0 3.3-.5.6-1.1.8-1.7.8zm0-2.6c-.1 0-.2 0-.2.1-.1.1-.1.2-.1.2 0 .1 0 .2.1.2.1.1.4.1.5 0 .1-.1.1-.4 0-.5h-.3z"/></svg>
