<svg xmlns="http://www.w3.org/2000/svg" viewBox="0 0 53.9 64" width="54" height="64">
  <style>.dark {fill: #000}</style>
  <path class="dark" d="M52.8 49.9c-1 2.2-2.1 4.3-3.4 6.2-1.8 2.6-3.3 4.4-4.4 5.4-1.8 1.6-3.7 2.5-5.7 2.5-1.5 0-3.2-.4-5.3-1.3-2.1-.8-3.9-1.3-5.7-1.3-1.8 0-3.7.4-5.8 1.3-2.1.8-3.8 1.3-5 1.3-1.9.1-3.9-.8-5.8-2.6-1.2-1.1-2.8-2.9-4.6-5.5-2-2.8-3.6-6-4.9-9.7C.7 42.1 0 38.3 0 34.5c0-4.3.9-8 2.8-11.1C4.2 21 6.2 19 8.6 17.5c2.4-1.4 5.1-2.2 7.9-2.2 1.5 0 3.6.5 6.1 1.4 2.5.9 4.1 1.4 4.8 1.4.5 0 2.3-.6 5.4-1.7 2.9-1 5.3-1.5 7.3-1.3 5.4.4 9.4 2.6 12.1 6.4-4.8 2.9-7.2 7-7.2 12.2 0 4.1 1.5 7.5 4.4 10.2 1.3 1.3 2.8 2.2 4.4 2.9-.2 1.1-.6 2.1-1 3.1zM40.4 1.3c0 3.2-1.2 6.2-3.5 9-2.8 3.3-6.2 5.2-9.9 4.9 0-.4-.1-.8-.1-1.2 0-3.1 1.3-6.4 3.7-9 1.2-1.4 2.7-2.5 4.5-3.4C37 .6 38.7.1 40.4 0v1.3z"/>
</svg>
