<svg xmlns="http://www.w3.org/2000/svg" viewBox="0 0 53 64" width="53" height="64">
  <style>
    .st0{fill:#202020}.st1{fill:#fff}
  </style>
  <g>
    <path d="M38.1 63.4c-2.1 0-3.9-1.1-4.8-3-.1-.2-.2-.3-.2-.5h-.3c-1.2 0-2.3-.2-3.2-.3-.8-.1-1.6-.2-2.3-.2h-.4c-1.4.1-2.5.3-3.4.5-.8.1-1.4.3-2.1.3-.7 1.2-1.8 2.1-3.3 2.4-.5.1-1.1.2-1.6.2-1.6 0-3.3-.4-5-1.3l-.5-.3c-1.4-.8-3.1-1-4.8-1.1-.8-.1-1.6-.2-2.2-.3-.9-.2-2.1-.6-2.7-1.7-.5-1-.4-2.3.2-4.2.2-.5 0-1.3-.1-2.2-.1-.6-.2-1.1-.2-1.6 0-.7.1-1.2.4-1.7l.1-.1c.6-1.1 1.6-1.6 2.4-1.9l.4-.1c.6-.2 1.2-.4 1.5-.8.2-.2.5-.6.7-.9.3-.4.6-.8 1-1.2l.1-.1c-.2-1.9 0-4.1.8-6.4 1.6-4.8 5.1-9.4 7.1-11.7 1.9-2.7 2.4-4.9 2.6-7.5 0-.6 0-1.4-.1-2.3-.3-4.7-.9-13.5 8.7-14.3.4 0 .9-.1 1.3-.1 2.8 0 4.9.8 6.5 2.4 3.2 3.3 3.2 9.2 3.1 13.2v.7c0 3.4 1.8 5.7 3.8 8.2l.1.2c2.7 3.2 4.6 6.2 5.7 9.1 1.3 3.3 1.5 6.5.6 9.4.1 0 .1.1.2.1.2.1.4.2.6.4.9.8 1.2 2 1.4 2.9.2.9.4 1.8.8 2.2 1.4 1.6 2 2.8 2 3.9-.1 1.3-1.1 2.1-1.9 2.6-.5.3-1.2.6-1.8.9-1.4.7-3 1.5-4.1 2.7l-.4.5c-1.7 1.9-3.8 3-5.8 3.2-.6-.2-.8-.2-.9-.2z" class="st0"/>
    <path d="M28 1.5c9.7 0 9.2 10.2 9.1 15.7 0 3.6 2 6.1 4 8.6 1.8 2.2 4.2 5.3 5.6 8.9 1.1 2.9 1.5 6.2.4 9.5.2.1.3.1.5.2s.3.2.5.3c.8.7 1 1.7 1.3 2.7.2 1 .4 1.9.9 2.4 1.3 1.5 1.9 2.6 1.8 3.5-.1 1-.8 1.7-1.7 2.2-1.8 1.1-4.5 1.9-6.1 3.9l-.3-.1.3.3c-1.7 2-3.8 3.2-5.8 3.3h-.4c-1.8 0-3.5-.9-4.4-2.8-.1-.3-.2-.5-.3-.8h-.6c-2.1 0-3.9-.5-5.5-.5h-.5c-2.6.1-4.3.8-5.8.8-.6 1.3-1.7 2.1-3.1 2.4-.5.1-1 .2-1.5.2-1.6 0-3.4-.5-5.2-1.4l.2-.4-.2.4c-2.2-1.2-5-1.1-7.1-1.5-1-.2-2-.6-2.4-1.5-.5-.8-.4-2 .2-3.8.2-.6 0-1.5-.1-2.5-.1-.5-.1-.9-.1-1.4 0-.5.1-1 .3-1.5.5-1 1.4-1.4 2.2-1.7.8-.3 1.5-.5 2-1 .5-.6 1-1.4 1.7-2.1l.3-.3c-.3-2.1 0-4.2.7-6.4 1.5-4.5 4.7-8.9 7-11.6 1.9-2.7 2.5-5 2.7-7.8.2-3.8-2.7-15.3 8.1-16.2.5.1.9 0 1.3 0m0-.9c-.4 0-.8 0-1.3.1-10 .8-9.4 9.9-9.1 14.8.1.9.1 1.7.1 2.3-.2 2.5-.7 4.6-2.5 7.2-2.4 2.9-5.6 7.2-7.1 11.9-.8 2.3-1 4.4-.8 6.3-.4.4-.7.8-1 1.2-.3.3-.5.6-.7.8-.3.3-.7.4-1.3.6l-.4.2c-.8.3-1.7.7-2.4 1.7h-.1l-.3.5v.1l-.1.1c-.2.5-.3 1.1-.3 1.7 0 .5.1 1 .2 1.6v.1c.1.7.2 1.6.1 2-.7 2-.8 3.4-.2 4.5.7 1.3 2.1 1.8 3.1 2 .7.1 1.4.2 2.2.3 1.6.2 3.3.4 4.6 1.1l.8.4c1.6.7 3.2 1.1 4.8 1.1.6 0 1.2-.1 1.8-.2 1.5-.3 2.7-1.2 3.5-2.4.6-.1 1.2-.2 1.9-.3 1-.2 2-.4 3.4-.5h.4c.6 0 1.4.1 2.2.2 1 .1 2.1.3 3.3.3 0 .1.1.2.1.3 1.1 2.1 3 3.2 5.2 3.2h.5c2-.2 4.1-1.2 5.8-3l.6-.7.1-.1c1-1.2 2.5-1.9 3.9-2.6.7-.3 1.3-.6 1.8-1 .5-.3 2-1.2 2.1-3 .1-1.2-.5-2.4-1.8-4l-.1-.1c0-.1-.1-.1-.1-.2-.3-.3-.5-1.2-.6-1.9-.2-1-.5-2.3-1.5-3.2-.1-.1-.3-.2-.4-.3.8-2.9.5-6-.7-9.3-1.1-2.9-3-5.9-5.7-9.2l-.1-.1c-2-2.5-3.7-4.7-3.7-7.9v-.7c.1-4 .1-10.1-3.2-13.5-1.8-1.6-4.1-2.4-7-2.4z" class="st1"/>
  </g>
  <path id="path5_1_" d="M51.3 53.5c0 .6-.5 1.1-1.3 1.5-1.6 1-4.5 1.8-6.3 4-1.6 1.9-3.5 2.9-5.2 3.1s-3.2-.6-4-2.3c-.5-1-.3-2.6.1-4.3.5-1.7 1.1-3.5 1.2-4.9.1-1.8.2-3.4.5-4.6.3-1.2.8-2.1 1.6-2.5 0 0 .1 0 .1-.1.1 1.6.9 3.2 2.3 3.5 1.5.4 3.7-.9 4.6-2h.5c.8 0 1.5 0 2.2.6.5.5.8 1.3 1 2.3.2 1 .4 2 1.1 2.7 1.2 1.4 1.6 2.3 1.6 3z" class="st1"/>
  <path id="path7_1_" d="M20.6 57.9c-.1 1.9-1.2 3-2.9 3.3-1.7.4-3.9 0-6.1-1.2-2.5-1.3-5.4-1.2-7.3-1.6-.9-.2-1.6-.5-1.8-1-.3-.6-.3-1.5.3-3.2.3-.9.1-1.9-.1-2.9-.1-.9-.2-1.8.1-2.4.4-.8 1-1.1 1.8-1.3.8-.3 1.6-.5 2.3-1.2.7-.7 1.1-1.5 1.7-2.2.5-.5 1-.9 1.7-.9h.4c1 .1 1.8.8 2.6 1.9l2.3 4.3c.6 1.3 1.9 2.7 3.1 4.2 1.1 1.6 2 3.1 1.9 4.2z" class="st1"/>
  <path id="path9_1_" d="M32.3 18.1c-.2-.4-.6-.7-1.2-1-1.4-.6-2-.6-2.7-1.1-1.2-.8-2.3-1.1-3.1-1.1-.4 0-.8.1-1.2.2-1 .4-1.7 1.1-2.2 1.5-.1.1-.2.2-.5.3-.3.2-.7.5-1.2.9s-.7.9-.5 1.5c.2.6.7 1.3 1.8 1.8.6.4 1.1.9 1.6 1.3.2.2.5.4.8.5.3.1.7.2 1.1.3 1.1.1 1.9-.3 2.6-.7.7-.4 1.3-.9 2-1.1 1.4-.4 2.4-1.3 2.7-2.2.2-.3.2-.7 0-1.1z" class="st1"/>
  <path id="path11_1_" d="M28.7 20.2c-1.1.6-2.4 1.3-3.8 1.3s-2.5-.6-3.3-1.3c-.4-.3-.7-.6-1-.9-.4-.3-.4-.8-.2-.8.3 0 .3.4.5.6.2.2.6.5.9.8.7.6 1.7 1.2 3 1.2 1.2 0 2.7-.7 3.6-1.2.5-.3 1.1-.8 1.7-1.2.4-.3.4-.6.7-.6.3 0 .1.4-.4.8s-1.1 1-1.7 1.3z" class="st0"/>
  <path id="path13_1_" d="M45.8 44.1h-.5c.4-1.2-.5-2.1-2.7-3.1-2.3-1-4.2-.9-4.5 1.2v.3c-.2.1-.4.1-.5.2-1.1.6-1.7 1.7-2 3-.3 1.3-.4 3-.5 4.8-.1.9-.4 2.2-.8 3.5-3.8 2.7-9.2 3.9-13.7.8-.3-.5-.7-1-1-1.4-.2-.3-.5-.6-.7-.9.5 0 .9-.1 1.2-.2.4-.2.7-.5.8-.8.3-.7 0-1.8-.9-3s-2.4-2.5-4.6-3.9c-1.6-1-2.5-2.2-2.9-3.6-.4-1.3-.4-2.8 0-4.2.6-2.7 2.2-5.4 3.3-7.1.3-.2.1.4-1 2.5-1 1.9-2.9 6.4-.3 9.9.1-2.5.7-5 1.7-7.4 1.4-3.3 4.5-9 4.7-13.5.1.1.6.4.7.5.6.3 1 .8 1.5 1.2.5.4 1.2.8 2.2.9h.3c1.1 0 1.9-.3 2.6-.7.7-.4 1.3-.9 1.9-1.1 1.2-.4 2.1-1 2.7-1.8.9 3.6 3.1 8.9 4.5 11.5.7 1.4 2.2 4.3 2.8 7.7.4 0 .8 0 1.3.2 1.7-4.3-1.4-8.9-2.8-10.2-.6-.5-.6-.8-.3-.8 1.5 1.3 3.5 4 4.2 7.1.3 1.4.4 2.8 0 4.3.2.1.3.1.5.2 2.3 1.2 3.3 2.3 2.8 3.9z" class="st1"/>
  <path id="path15_1_" d="M32.4 13.9c0 .7-.1 1.3-.4 2-.2.4-.3.7-.6.9-.1 0-.1-.1-.2-.1-.3-.1-.5-.2-.7-.3-.2-.1-.4-.1-.6-.2.1-.2.4-.3.5-.6.1-.3.2-.7.2-1.1 0-.4 0-.7-.2-1-.1-.3-.3-.6-.5-.8-.2-.2-.4-.3-.7-.3-.2 0-.4.1-.7.3-.2.2-.4.4-.5.8-.1.3-.2.7-.2 1.1v.6c-.5-.2-1.1-.4-1.6-.5V14c0-.7.1-1.3.4-2 .3-.6.6-1.1 1.1-1.4.5-.4 1-.5 1.5-.5s1 .2 1.5.5c.5.4.8.8 1.1 1.4.4.6.6 1.2.6 1.9z" class="st1"/>
  <path id="path17_1_" d="M24.1 14.6c-.1 0-.1 0-.2.1-.4.1-.7.3-1 .5v-.7c0-.3-.1-.6-.2-.8-.1-.3-.3-.5-.4-.6-.2-.1-.3-.2-.5-.2h-.1c-.2 0-.3.1-.5.3-.1.2-.2.4-.3.7-.1.3-.1.6-.1.9 0 .3.1.6.2.8.1.3.3.5.4.6 0 0 .1 0 .1.1-.2.1-.3.2-.5.3-.1.1-.2.2-.3.2-.3-.3-.5-.6-.7-1.1-.2-.5-.4-1.1-.4-1.7 0-.6 0-1.2.2-1.7.2-.6.4-1 .7-1.3.3-.3.7-.5 1.1-.5h.1c.4 0 .7.1 1 .4.4.3.6.7.9 1.2.2.5.4 1.1.4 1.7.1.4.1.6.1.8z" class="st1"/>
  <path id="path28396-7_1_" d="M25.9 16.1c0 .1.3.1.4.2.1.1.2.2.4.2.1 0 .3 0 .3-.2s-.2-.3-.4-.3c-.2-.1-.5-.1-.7 0 .1 0 0 .1 0 .1z" class="st0"/>
  <path id="path5461_1_" d="M24.5 16.1c0 .1-.3.1-.4.2-.1.1-.2.2-.4.2-.1 0-.3 0-.3-.2s.2-.3.4-.3c.2-.1.5-.1.7 0v.1z" class="st0"/>
</svg>
