<svg id="tracking-hero-bg" xmlns="http://www.w3.org/2000/svg" viewBox="0 0 543.6 404.4"><style>.st0{fill:none;} .st1{opacity:0.1;fill:#F2B9CF;}</style><path class="st0" d="M168 70.9c3.2-2.5 3.8-7.2 1.2-10.4-2.5-3.2-7.2-3.8-10.4-1.2-3.2 2.5-3.8 7.2-1.2 10.4 2.5 3.2 7.2 3.7 10.4 1.2zM160 116.9c-3.2 2.5-3.8 7.2-1.2 10.4 2.5 3.2 7.2 3.8 10.4 1.2 3.2-2.5 3.8-7.2 1.2-10.4-2.5-3.2-7.2-3.7-10.4-1.2zM287.3 163.1c4.1.3 7.6-2.8 7.9-6.9.3-4.1-2.8-7.6-6.9-7.9-4.1-.3-7.6 2.8-7.9 6.9-.3 4.1 2.8 7.6 6.9 7.9zM211.1 51.9c3.2-2.5 3.8-7.2 1.2-10.4-2.5-3.2-7.2-3.8-10.4-1.2-3.2 2.5-3.8 7.2-1.2 10.4 2.5 3.2 7.1 3.7 10.4 1.2zM126.3 52.3c-3.2 2.5-3.8 7.2-1.2 10.4 2 2.5 5.2 3.4 8.1 2.5l2.1-1.1c.1-.1.2-.1.2-.2 3.2-2.5 3.8-7.2 1.2-10.4-2.5-3.2-7.2-3.7-10.4-1.2zM12.1 260.9c-4.1-.4-7.7 2.7-8.1 6.7-.4 4.1 2.7 7.7 6.7 8.1 4.1.4 7.7-2.7 8.1-6.7.4-4.1-2.6-7.7-6.7-8.1zM33.8 204.9c-3.3 2.5-3.9 7.1-1.5 10.4 2.5 3.3 7.1 3.9 10.4 1.5 3.3-2.5 3.9-7.1 1.5-10.4-2.4-3.3-7.1-3.9-10.4-1.5zM98 175.3l2.4.3h.3c4.1-.3 7.2-3.8 6.9-7.9-.3-4.1-3.8-7.2-7.9-6.9-4.1.3-7.2 3.8-6.9 7.9.1 3.2 2.3 5.7 5.2 6.6zM220.5 120.8l2.3.6h.3c4.1.3 7.6-2.8 7.9-6.9.3-4.1-2.8-7.6-6.9-7.9-4.1-.3-7.6 2.8-7.9 6.9-.3 3.3 1.5 6.1 4.3 7.3zM123.5 199.7c4.1-.3 7.2-3.8 6.9-7.9-.3-4.1-3.8-7.2-7.9-6.9-4.1.3-7.2 3.8-6.9 7.9.3 4.1 3.8 7.2 7.9 6.9zM302.4 8.3c-1.7-3.7-6.1-5.3-9.9-3.6-3.7 1.7-5.3 6.1-3.6 9.9 1.7 3.7 6.1 5.3 9.9 3.6 3.7-1.7 5.3-6.2 3.6-9.9zM498.7 170.9c3.5-2.1 4.7-6.6 2.7-10.2-2.1-3.5-6.6-4.7-10.2-2.7-3.5 2.1-4.7 6.6-2.7 10.2 2.1 3.5 6.7 4.7 10.2 2.7zM301.3 105.5c3.7-1.7 5.3-6.1 3.6-9.9-1.7-3.7-6.1-5.3-9.9-3.6-3.7 1.7-5.3 6.1-3.6 9.9 1.8 3.7 6.2 5.3 9.9 3.6zM436.3 238.2c2.1 3.5 6.6 4.7 10.2 2.7 3.5-2.1 4.7-6.6 2.7-10.2-2.1-3.5-6.6-4.7-10.2-2.7-3.6 2.1-4.8 6.7-2.7 10.2zM314.8 220.3c4.1.3 7.6-2.8 7.9-6.9s-2.8-7.6-6.9-7.9c-4.1-.3-7.6 2.8-7.9 6.9-.3 4.1 2.8 7.6 6.9 7.9zM453.4 183.6c3.5-2.1 4.7-6.6 2.7-10.2-2.1-3.5-6.6-4.7-10.2-2.7-3.5 2.1-4.7 6.6-2.7 10.2 2.1 3.6 6.6 4.8 10.2 2.7zM90.9 233.2c-4.1.3-7.2 3.8-6.9 7.9.3 4.1 3.8 7.2 7.9 6.9 4.1-.3 7.2-3.8 6.9-7.9-.3-4.1-3.8-7.2-7.9-6.9zM328.5 54.6c3.7-1.7 5.3-6.1 3.6-9.9-1.7-3.7-6.1-5.3-9.9-3.6-3.7 1.7-5.3 6.1-3.6 9.9 1.8 3.7 6.2 5.4 9.9 3.6zM368.5 175.7c3.5 2.1 8.1 1 10.2-2.4 2.1-3.5 1-8.1-2.4-10.2-3.5-2.1-8.1-1-10.2 2.4-2.2 3.5-1.1 8.1 2.4 10.2zM419.7 173.1l2.2-.8c.1 0 .2-.1.2-.1 3.5-2.1 4.7-6.6 2.7-10.2-2.1-3.5-6.6-4.7-10.2-2.7-3.5 2.1-4.7 6.6-2.7 10.2 1.7 2.8 4.8 4.1 7.8 3.6zM350.9 59.8l1.4 1.9c2.1 2.1 5.4 2.8 8.3 1.5 3.7-1.7 5.4-6.1 3.6-9.9-1.7-3.7-6.1-5.3-9.9-3.6-3.7 1.7-5.3 6.1-3.6 9.9.1 0 .2.1.2.2zM242.5 148.4c4.1.3 7.6-2.8 7.9-6.9.3-4.1-2.8-7.6-6.9-7.9-4.1-.3-7.6 2.8-7.9 6.9-.3 4.1 2.9 7.6 6.9 7.9zM484.2 400.1c3.9-1.3 6-5.5 4.8-9.4-1.3-3.9-5.5-6-9.4-4.8-3.9 1.3-6 5.5-4.8 9.4 1.3 3.9 5.5 6 9.4 4.8zM385.9 269.1c-4.1 0-7.4 3.3-7.4 7.4 0 4.1 3.3 7.4 7.4 7.4s7.4-3.3 7.4-7.4c0-4-3.3-7.4-7.4-7.4zM359.6 298.2c-4.1 0-7.4 3.3-7.4 7.4 0 4.1 3.3 7.4 7.4 7.4s7.4-3.3 7.4-7.4c.1-4.1-3.3-7.4-7.4-7.4zM356.1 216.2c-4.1 0-7.4 3.3-7.4 7.4s3.3 7.4 7.4 7.4c4.1 0 7.4-3.3 7.4-7.4s-3.3-7.4-7.4-7.4zM321.9 296.6c-4.1 0-7.4 3.3-7.4 7.4 0 4.1 3.3 7.4 7.4 7.4 4.1 0 7.4-3.3 7.4-7.4 0-4.1-3.3-7.4-7.4-7.4zM174 246c4.1-.3 7.2-3.8 6.9-7.9-.3-4.1-3.8-7.2-7.9-6.9-4.1.3-7.2 3.8-6.9 7.9.2 4 3.8 7.1 7.9 6.9zM388.1 369.5c3.7-1.7 5.3-6.2 3.6-9.9-1.7-3.7-6.2-5.3-9.9-3.6-3.7 1.7-5.3 6.2-3.6 9.9 1.8 3.7 6.2 5.3 9.9 3.6zM529.9 297.7c-3 1-5 3.7-5.1 6.7l.3 2.4c0 .1 0 .2.1.3 1.3 3.9 5.5 6 9.4 4.8 3.9-1.3 6-5.5 4.8-9.4-1.4-4-5.6-6.1-9.5-4.8zM516.7 339.9c3.9-1.3 6-5.5 4.8-9.4-1.3-3.9-5.5-6-9.4-4.8-3.9 1.3-6 5.5-4.8 9.4 1.3 3.9 5.5 6 9.4 4.8zM457.6 306.8c-3.9 1.3-6 5.5-4.8 9.4 1.3 3.9 5.5 6 9.4 4.8 3.9-1.3 6-5.5 4.8-9.4-1.3-3.9-5.5-6-9.4-4.8zM445.6 366.3c-3.9 1.3-6 5.5-4.8 9.4 1.3 3.9 5.5 6 9.4 4.8 3.9-1.3 6-5.5 4.8-9.4-1.3-3.9-5.5-6-9.4-4.8zM310.1 251c-4.1 0-7.4 3.3-7.4 7.4 0 4.1 3.3 7.4 7.4 7.4 4.1 0 7.4-3.3 7.4-7.4 0-4.1-3.3-7.4-7.4-7.4zM181.3 294.4c-3.3-2.4-8-1.7-10.4 1.6-2.4 3.3-1.7 8 1.6 10.4 3.3 2.4 8 1.7 10.4-1.6.1-.1.1-.2.1-.2l1-2.2c.9-2.9-.1-6.1-2.7-8zM291.5 234.6c-1.1-2.8-3.8-4.8-6.9-4.8-3 0-5.6 1.8-6.8 4.4 0 .1 0 .1-.1.2s-.1.3-.2.4c0 .1-.1.2-.1.3 0 .1 0 .2-.1.3 0 .2-.1.3-.1.5v.1c0 .2-.1.4-.1.7-.3 4.1 2.8 7.6 6.9 7.9 3 .2 5.8-1.5 7.1-4 0 0 0-.1.1-.1.1-.2.1-.3.2-.5 0-.1.1-.2.1-.3 0-.1.1-.2.1-.4 0-.1.1-.3.1-.4 0-.1 0-.2.1-.2 0-.2.1-.4.1-.6v-.1-.7-.3l-.4-2.4zM205.8 177.2c-4.1-.3-7.6 2.8-7.9 6.9-.3 4.1 2.8 7.6 6.9 7.9 4.1.3 7.6-2.8 7.9-6.9.3-4-2.8-7.6-6.9-7.9zM320.7 381.7c3.3-2.4 4-7.1 1.6-10.4-2.4-3.3-7.1-4-10.4-1.6-3.3 2.4-4 7.1-1.6 10.4 2.4 3.3 7.1 4 10.4 1.6zM146.7 274.1c4.1-.3 7.2-3.8 6.9-7.9-.3-4.1-3.8-7.2-7.9-6.9-4.1.3-7.2 3.8-6.9 7.9.3 4.1 3.8 7.2 7.9 6.9zM172.2 370.4c-3.3-2.4-8-1.7-10.4 1.6-2.4 3.3-1.7 8 1.6 10.4 3.3 2.4 8 1.7 10.4-1.6 2.4-3.3 1.7-8-1.6-10.4zM247.2 325.6c-3.3-2.4-8-1.7-10.4 1.6-2.4 3.3-1.7 8 1.6 10.4 3.3 2.4 8 1.7 10.4-1.6 2.4-3.3 1.7-8-1.6-10.4zM229.7 387.5c-2.4 3.3-1.7 8 1.6 10.4 3.3 2.4 8 1.7 10.4-1.6 2.4-3.3 1.7-8-1.6-10.4-3.4-2.4-8-1.7-10.4 1.6zM189.5 326.6c-3.3-2.4-8-1.7-10.4 1.6-2.4 3.3-1.7 8 1.6 10.4 3.3 2.4 8 1.7 10.4-1.6 2.5-3.3 1.7-8-1.6-10.4z"/><path class="st1" d="M543.1 301.2c-1.9-6-8.4-9.3-14.4-7.3-4.9 1.6-8 6.1-7.9 11l-49.9 5.8c0-.1 0-.2-.1-.3-1.9-6-8.4-9.3-14.4-7.3-1.9.6-3.6 1.7-4.9 3.2l-54.4-27.5c.1-.7.2-1.4.2-2.2 0-6.3-5.1-11.4-11.4-11.4-1 0-2 .1-3 .4l-19.5-33.1c2.5-2.1 4.1-5.3 4.1-8.8 0-6.3-5.1-11.4-11.4-11.4-6.3 0-11.4 5.1-11.4 11.4v.3l-49.3 9.9c-.4-1.1-.9-2.2-1.6-3.2l13.7-9.3c1.9 1.7 4.3 2.8 7 3 6.3.4 11.7-4.4 12.1-10.7.4-6.3-4.4-11.7-10.7-12.1-6.3-.4-11.7 4.4-12.1 10.7-.1 2.2.3 4.2 1.3 6l-14.1 9.6c-1.6-1.1-3.6-1.9-5.7-2-2.6-.2-5 .6-7.1 1.9-.1 0-.1.1-.2.1-.2.2-.5.3-.7.5-.1.1-.2.2-.3.2-.2.2-.4.4-.6.5-.2.2-.3.3-.4.5l-.4.4-59.9-40.8c.5-1.2.8-2.4.9-3.7.1-1 0-2-.2-3l61.9-20.2c1.9 2.8 5 4.7 8.6 4.9 5 .3 9.5-2.7 11.3-7.1l62.7 10.7c.4 3.3 2.3 6.5 5.4 8.4 5.4 3.3 12.4 1.6 15.7-3.8 1-1.6 1.5-3.3 1.6-5.1l23.5-2.2c.2 1.2.7 2.3 1.3 3.4 2.6 4.4 7.7 6.5 12.4 5.4l16.2 47.6c-.1 0-.2.1-.3.1-5.4 3.2-7.3 10.2-4.1 15.6s10.2 7.3 15.6 4.1c3.1-1.8 5-4.8 5.5-8l-.1-4c-.2-1.2-.7-2.5-1.3-3.6-.5-.9-1.1-1.7-1.8-2.4l40.1-51.3c3.1 1.2 6.8 1.1 9.9-.8 5.4-3.2 7.3-10.2 4.1-15.6s-10.2-7.3-15.6-4.1-7.3 10.2-4.1 15.6c.6 1.1 1.4 2 2.3 2.8L447.3 224c-.4-.2-.8-.3-1.2-.5l3.9-35c1.8-.1 3.6-.6 5.2-1.5 5.4-3.2 7.3-10.2 4.1-15.6s-10.2-7.3-15.6-4.1-7.3 10.2-4.1 15.6c1.5 2.6 3.8 4.3 6.4 5.1l-3.9 35c-.4 0-.9.1-1.3.1l-16.4-47.9c5.1-3.3 6.7-10 3.6-15.3-3.2-5.4-10.2-7.3-15.6-4.1-3.1 1.8-5 4.9-5.5 8.2l-23.8 2.2c-.7-2.7-2.5-5.1-5-6.7-5.4-3.3-12.4-1.6-15.7 3.8-.7 1.1-1.1 2.2-1.4 3.3L298.9 156c.2-5.1-3-9.5-7.6-11.2l7-34.7c1.5-.1 3-.4 4.4-1 5.7-2.6 8.2-9.4 5.6-15.2 0-.1-.1-.2-.1-.3L348.8 64c3.3 3.6 8.6 4.9 13.3 2.7 5.7-2.6 8.2-9.4 5.6-15.2-2.6-5.7-9.4-8.2-15.2-5.6-5.5 2.6-8.1 9-5.8 14.6l-40.9 29.8c-.3-.3-.6-.6-1-.8L322 58.8c2.6.8 5.5.7 8.2-.5 5.7-2.6 8.2-9.4 5.6-15.2-2.6-5.7-9.4-8.2-15.2-5.6-5.7 2.6-8.2 9.4-5.6 15.2.8 1.7 2 3.2 3.4 4.2l-16.9 30.9-1.2-.3-3.3-64.7c1.2-.1 2.3-.5 3.5-1 5.7-2.6 8.2-9.4 5.6-15.2-2.6-5.7-9.4-8.2-15.2-5.6-5.7 2.6-8.2 9.4-5.6 15.2 1.5 3.3 4.4 5.5 7.7 6.3l3.3 65c-1 .2-1.9.4-2.9.9-1.2.6-2.3 1.3-3.2 2.2l-2.3 3.2c-1.4 3-1.6 6.5-.1 9.7 1.4 3 3.9 5.1 6.8 6.1l-7 34.7c-5.9.1-10.9 4.7-11.3 10.7-.1 1.2 0 2.4.3 3.6L215 178.7c-.2-.4-.5-.7-.7-1l22.8-26.9c1.5.9 3.3 1.5 5.2 1.6 6.3.4 11.7-4.4 12.1-10.7.4-6.3-4.4-11.7-10.7-12.1-6.3-.4-11.7 4.4-12.1 10.7-.2 3 .8 5.7 2.5 7.9L211.3 175c-.4-.2-.8-.4-1.1-.6l13.2-48.9c6 .1 11.2-4.6 11.6-10.7.4-6.3-4.4-11.7-10.7-12.1-6.3-.4-11.7 4.4-12.1 10.7v.7l-36.7 5c-.4-1.2-1-2.3-1.8-3.4-.6-.8-1.4-1.5-2.2-2.1l32.4-56.4c3.3.8 6.9.1 9.7-2.1 4.9-3.9 5.8-11.1 1.9-16s-11.1-5.8-16.1-1.9c-4.9 3.9-5.8 11.1-1.9 16.1.8 1 1.7 1.8 2.7 2.4l-32.3 56.2-1.2-.3-1.1-35.2c1.8-.3 3.5-1.1 4.9-2.2 4.9-3.9 5.8-11.1 1.9-16s-11.1-5.8-16.1-1.9c-4.9 3.9-5.8 11.1-1.9 16 1.8 2.3 4.4 3.7 7.1 4.2l1.1 35.2c-.4.1-.8.2-1.3.3l-22.9-45.1c4.5-4 5.2-10.9 1.4-15.7-3.9-4.9-11.1-5.8-16.1-1.9-4.9 3.9-5.8 11.1-1.9 16 3.2 4 8.5 5.3 13.1 3.6l22.8 44.8c-.1.1-.2.1-.2.2-4.9 3.9-5.8 11.1-1.9 16.1 3.9 4.9 11.1 5.8 16.1 1.9 2.8-2.2 4.3-5.4 4.3-8.7l36.8-5.1c1.1 3.1 3.5 5.6 6.6 6.8l-13.1 48.5h-.3c-6.3-.4-11.7 4.4-12.1 10.7-.1 1.4.1 2.7.5 4l-94.1 45.4-.9-.9 19-29.7c1.6.7 3.5 1.1 5.3.9 6.3-.4 11.1-5.9 10.6-12.2-.4-6.3-5.9-11.1-12.2-10.6-6.3.4-11.1 5.9-10.6 12.2.2 3 1.5 5.6 3.5 7.5l-19 29.6c-.4-.2-.8-.3-1.2-.5l6.6-50.2c6-.7 10.5-6 10.1-12.1-.4-6.3-5.9-11.1-12.2-10.6-6.3.4-11.1 5.9-10.6 12.2.3 5.1 4 9.2 8.7 10.3l-6.6 49.8h-.3c-3.5.2-6.6 2.1-8.5 4.8l-32.8-20.2c.8-3.3.3-6.9-1.9-9.7-3.8-5-11-6.1-16-2.3s-6.1 11-2.3 16 11 6.1 16 2.3c1-.7 1.8-1.6 2.5-2.6l32.7 20.2c-.3 1.2-.5 2.5-.4 3.8.1.9.3 1.9.5 2.7L21 262c-1.9-2.8-4.9-4.8-8.5-5.1C6.2 256.4.6 261 0 267.3c-.6 6.3 4.1 11.8 10.4 12.4 6.3.6 11.8-4.1 12.4-10.4.1-1.2 0-2.4-.3-3.6l59.9-18.1c2.3 2.8 5.8 4.6 9.7 4.3 3.5-.2 6.6-2.1 8.5-4.7l34.3 17.2c-.2 1-.3 2-.2 3 .4 6.3 5.9 11.1 12.2 10.6 6.3-.4 11.1-5.9 10.6-12.2-.2-2.7-1.3-5.1-3-7l12.3-11c2.1 1.4 4.6 2.2 7.3 2 6.3-.4 11.1-5.9 10.6-12.2-.4-6.3-5.9-11.1-12.2-10.6-6.3.4-11.1 5.9-10.6 12.2.1 2.2.9 4.1 2 5.8l-12.7 11.4c-1.8-.9-3.8-1.4-5.9-1.2-3.8.3-7.1 2.4-9 5.4l-34.1-17.1c.3-1.2.5-2.5.4-3.8-.1-1-.3-2-.6-2.9l94-45.4c1.9 2.6 4.9 4.3 8.4 4.6 3.5.2 6.8-1.2 9-3.6l60.1 41c-.3.9-.5 1.9-.6 2.9v1.2c.2 6.1 5.2 11 11.4 11 3.3 0 6.2-1.4 8.3-3.6l.1-.1c.2-.2.4-.4.5-.6.1-.1.2-.2.2-.3.1-.2.2-.3.3-.5.1-.2.2-.3.3-.5.1-.1.1-.2.2-.3.1-.2.3-.5.4-.7 0 0 0-.1.1-.1.6-1.2.9-2.6 1-4v-.1l49.6-10c.2.4.3.8.5 1.2l-28.3 21c-2-1.8-4.7-3-7.7-3-6.3 0-11.4 5.1-11.4 11.4 0 6.3 5.1 11.4 11.4 11.4 6.3 0 11.4-5.1 11.4-11.4 0-1.9-.5-3.7-1.3-5.3l28.3-21c.3.3.6.5 1 .8L325.1 293c-1.1-.4-2.3-.6-3.6-.6-6.3 0-11.4 5.1-11.4 11.4 0 .9.1 1.8.3 2.7l-58.2 19c-.8-1.3-1.8-2.4-3-3.3-5.1-3.7-12.3-2.6-16 2.5-.1.1-.1.2-.2.2l-45.7-21c1.6-4.6 0-9.9-4.1-12.9-5.1-3.7-12.3-2.6-16 2.5-3.7 5.1-2.6 12.3 2.5 16 4.9 3.6 11.8 2.6 15.6-2.1l46 21.2c-.1.4-.2.9-.3 1.3l-35.2.3c-.6-2.7-2.1-5.2-4.4-6.9-5.1-3.7-12.3-2.6-16 2.5-3.7 5.1-2.6 12.3 2.5 16 5.1 3.7 12.3 2.6 16-2.5 1.1-1.5 1.8-3.3 2.1-5l35.3-.3.3 1.2-55 34.5c-.7-1-1.5-1.8-2.5-2.6-5.1-3.7-12.3-2.6-16 2.5-3.7 5.1-2.6 12.3 2.5 16 5.1 3.7 12.3 2.6 16-2.5 2.1-2.9 2.7-6.5 1.8-9.8l55.2-34.6c.6.8 1.3 1.5 2.2 2.1 1.1.8 2.2 1.3 3.5 1.7l-3.7 37.9c-3.6 0-7.1 1.6-9.4 4.7-1.3 1.7-1.9 4-2.1 5.7-.2 1.6.3 4.1.3 4.1.7 2.4 2.1 4.7 4.3 6.2 5.1 3.7 12.3 2.6 16-2.5 3.7-5.1 2.6-12.3-2.5-16-.8-.6-1.7-1.1-2.6-1.4l3.8-38.2c3-.2 6-1.6 8-4.1l53.7 33.7c-.9 3.2-.4 6.8 1.8 9.8 3.7 5.1 10.9 6.2 16 2.5s6.2-10.9 2.5-16-10.9-6.2-16-2.5c-1 .7-1.8 1.6-2.5 2.6l-53.4-33.5c.7-2 .8-4.1.4-6l58.4-19.1c2.1 3.1 5.5 5.1 9.5 5.1 2.1 0 4.1-.6 5.8-1.6l47 43.9c-1.5 3-1.7 6.7-.1 9.9 2.7 5.7 9.5 8.2 15.2 5.5 5.7-2.7 8.2-9.5 5.5-15.2-2.7-5.7-9.5-8.2-15.2-5.5-1.1.5-2.1 1.2-3 2l-46.4-43.3c1.6-2 2.5-4.5 2.5-7.2 0-3.6-1.7-6.8-4.3-8.9l24.2-60.4c.9.3 1.9.4 3 .4 1.3 0 2.6-.2 3.8-.7l19.3 32.9c-2.9 2.1-4.8 5.5-4.8 9.3 0 2.1.6 4.1 1.6 5.8l-10.5 13.5c-1.7-1-3.7-1.7-5.9-1.7-6.3 0-11.4 5.1-11.4 11.4 0 6.3 5.1 11.4 11.4 11.4 6.3 0 11.4-5.1 11.4-11.4 0-2.7-.9-5.2-2.5-7.1l10.2-13c2 1.6 4.4 2.5 7.1 2.5 4.1 0 7.8-2.2 9.8-5.5l53.7 27.1c-1 2.4-1.2 5.2-.3 7.8 1.1 3.4 3.6 5.9 6.7 7.1l-8.3 37.5c-1 0-2 .2-3 .5-6 1.9-9.3 8.4-7.3 14.4 1.9 6 8.4 9.3 14.4 7.3 2.6-.8 4.6-2.5 6-4.6l13.7 9.3c-.9 2.3-1 5-.2 7.6 1.9 6 8.4 9.3 14.4 7.3 6-1.9 9.3-8.4 7.3-14.4-1.9-6-8.4-9.3-14.4-7.3-2.1.7-3.8 1.9-5.1 3.4l-14.2-9.6c.4-1.9.4-4-.3-6-1.2-3.7-4-6.3-7.5-7.4l8.3-37.2c1.3 0 2.5-.1 3.8-.5 1-.3 1.9-.8 2.7-1.3l2.9-2.7c.3-.3.5-.7.7-1.1l33.4 11.2c-.3 1.8-.2 3.6.4 5.4 1.9 6 8.4 9.3 14.4 7.3 6-1.9 9.3-8.4 7.4-14.4-1.9-6-8.4-9.3-14.4-7.3-2.8.9-5 2.8-6.4 5.2l-33.4-11.2c.1-.4.1-.9.2-1.3l50.3-5.8c2.1 5.6 8.4 8.7 14.2 6.8 6.1-1.9 9.4-8.4 7.5-14.4zm-235.2-88.8c.3-4.1 3.8-7.2 7.9-6.9 4.1.3 7.2 3.8 6.9 7.9s-3.8 7.2-7.9 6.9c-4.1-.3-7.2-3.8-6.9-7.9zM491.2 158c3.5-2.1 8.1-.9 10.2 2.7 2.1 3.5.9 8.1-2.7 10.2-3.5 2.1-8.1.9-10.2-2.7-2-3.6-.8-8.1 2.7-10.2zm-48 23c-2.1-3.5-.9-8.1 2.7-10.2 3.5-2.1 8.1-.9 10.2 2.7 2.1 3.5.9 8.1-2.7 10.2-3.6 2-8.1.8-10.2-2.7zm-4.2 47.1c3.5-2.1 8.1-.9 10.2 2.7 2.1 3.5.9 8.1-2.7 10.2-3.5 2.1-8.1.9-10.2-2.7-2.1-3.6-.9-8.2 2.7-10.2zm-24.3-68.7c3.5-2.1 8.1-.9 10.2 2.7 2.1 3.5.9 8.1-2.7 10.2-.1 0-.2.1-.2.1l-2.2.8c-3 .5-6.1-.8-7.7-3.6-2.2-3.6-.9-8.2 2.6-10.2zm-48.7 6.1c2.1-3.5 6.7-4.6 10.2-2.4 3.5 2.1 4.6 6.7 2.4 10.2-2.1 3.5-6.7 4.6-10.2 2.4-3.4-2.1-4.5-6.7-2.4-10.2zM354.4 49.7c3.7-1.7 8.1-.1 9.9 3.6 1.7 3.7.1 8.1-3.6 9.9-2.9 1.3-6.2.6-8.3-1.5l-1.4-1.9c0-.1-.1-.2-.1-.2-1.8-3.8-.2-8.2 3.5-9.9zm-32.1-8.5c3.7-1.7 8.1-.1 9.9 3.6 1.7 3.7.1 8.1-3.6 9.9-3.7 1.7-8.1.1-9.9-3.6-1.7-3.8-.1-8.2 3.6-9.9zm-33.4-26.7c-1.7-3.7-.1-8.1 3.6-9.9 3.7-1.7 8.1-.1 9.9 3.6 1.7 3.7.1 8.1-3.6 9.9-3.8 1.8-8.2.2-9.9-3.6zm2.6 87.4c-1.7-3.7-.1-8.1 3.6-9.9 3.7-1.7 8.1-.1 9.9 3.6 1.7 3.7.1 8.1-3.6 9.9-3.8 1.7-8.2.1-9.9-3.6zm-11.2 53.3c.3-4.1 3.8-7.2 7.9-6.9 4.1.3 7.2 3.8 6.9 7.9-.3 4.1-3.8 7.2-7.9 6.9-4-.3-7.1-3.8-6.9-7.9zm-44.7-14.7c.3-4.1 3.8-7.2 7.9-6.9 4.1.3 7.2 3.8 6.9 7.9-.3 4.1-3.8 7.2-7.9 6.9-4-.3-7.2-3.8-6.9-7.9zM201.9 40.2c3.2-2.5 7.9-2 10.4 1.2s2 7.9-1.2 10.4-7.9 2-10.4-1.2c-2.6-3.2-2.1-7.8 1.2-10.4zM135.5 64l-.2.2-2.1 1.1c-2.9.9-6.1 0-8.1-2.5-2.5-3.2-2-7.9 1.2-10.4s7.9-2 10.4 1.2 2 7.8-1.2 10.4zm22 5.7c-2.5-3.2-2-7.9 1.2-10.4s7.9-2 10.4 1.2 2 7.9-1.2 10.4c-3.1 2.5-7.8 2-10.4-1.2zm11.7 58.9c-3.2 2.5-7.9 2-10.4-1.2s-2-7.9 1.2-10.4 7.9-2 10.4 1.2c2.6 3.2 2 7.9-1.2 10.4zm46.9-15c.3-4.1 3.8-7.2 7.9-6.9 4.1.3 7.2 3.8 6.9 7.9-.3 4.1-3.8 7.2-7.9 6.9h-.3l-2.3-.6c-2.7-1.3-4.5-4.1-4.3-7.3zm-93.6 71.3c4.1-.3 7.6 2.8 7.9 6.9.3 4.1-2.8 7.6-6.9 7.9-4.1.3-7.6-2.8-7.9-6.9-.3-4.1 2.8-7.6 6.9-7.9zm-29.8-16.2c-.3-4.1 2.8-7.6 6.9-7.9 4.1-.3 7.6 2.8 7.9 6.9.3 4.1-2.8 7.6-6.9 7.9h-.3l-2.4-.3c-2.8-.9-5-3.4-5.2-6.6zm-50 48.1c-3.3 2.5-7.9 1.8-10.4-1.5s-1.8-7.9 1.5-10.4 7.9-1.8 10.4 1.5 1.8 8-1.5 10.4zM18.8 269c-.4 4.1-4 7.1-8.1 6.7-4.1-.4-7.1-4-6.7-8.1.4-4.1 4-7.1 8.1-6.7 4.1.4 7.1 4 6.7 8.1zm73.1-21c-4.1.3-7.6-2.8-7.9-6.9-.3-4.1 2.8-7.6 6.9-7.9 4.1-.3 7.6 2.8 7.9 6.9.3 4.1-2.8 7.6-6.9 7.9zm81.1-16.9c4.1-.3 7.6 2.8 7.9 6.9.3 4.1-2.8 7.6-6.9 7.9-4.1.3-7.6-2.8-7.9-6.9-.3-4 2.8-7.6 6.9-7.9zm-27.3 28.2c4.1-.3 7.6 2.8 7.9 6.9.3 4.1-2.8 7.6-6.9 7.9-4.1.3-7.6-2.8-7.9-6.9-.3-4.1 2.8-7.7 6.9-7.9zm67-74.2c-.3 4.1-3.8 7.2-7.9 6.9-4.1-.3-7.2-3.8-6.9-7.9.3-4.1 3.8-7.2 7.9-6.9 4.1.3 7.2 3.9 6.9 7.9zm79.2 52.8v.1c0 .2-.1.4-.1.6 0 .1 0 .2-.1.2 0 .1-.1.3-.1.4 0 .1-.1.2-.1.4 0 .1-.1.2-.1.3-.1.2-.1.3-.2.5 0 0 0 .1-.1.1-1.3 2.6-4.1 4.2-7.1 4-4.1-.3-7.2-3.8-6.9-7.9 0-.2 0-.5.1-.7v-.1c0-.2.1-.3.1-.5 0-.1 0-.2.1-.3 0-.1.1-.2.1-.3 0-.1.1-.3.2-.4 0-.1 0-.1.1-.2 1.2-2.6 3.8-4.4 6.8-4.4 3.2 0 5.9 2 6.9 4.8l.5 2.3v.3c0 .3-.1.6-.1.8zm18.2 27.9c-4.1 0-7.4-3.3-7.4-7.4 0-4.1 3.3-7.4 7.4-7.4 4.1 0 7.4 3.3 7.4 7.4 0 4.1-3.3 7.4-7.4 7.4zm-126 36.6l-1 2.2c-.1.1-.1.2-.1.2-2.4 3.3-7.1 4-10.4 1.6-3.3-2.4-4-7.1-1.6-10.4 2.4-3.3 7.1-4 10.4-1.6 2.5 1.9 3.5 5.1 2.7 8zm7 34.6c-2.4 3.3-7.1 4-10.4 1.6-3.3-2.4-4-7.1-1.6-10.4 2.4-3.3 7.1-4 10.4-1.6 3.3 2.4 4.1 7.1 1.6 10.4zm-17.3 43.8c-2.4 3.3-7.1 4-10.4 1.6-3.3-2.4-4-7.1-1.6-10.4 2.4-3.3 7.1-4 10.4-1.6 3.3 2.4 4 7.1 1.6 10.4zm66.3 5.1c3.3 2.4 4 7.1 1.6 10.4-2.4 3.3-7.1 4-10.4 1.6-3.3-2.4-4-7.1-1.6-10.4 2.4-3.3 7-4 10.4-1.6zm8.7-49.9c-2.4 3.3-7.1 4-10.4 1.6-3.3-2.4-4-7.1-1.6-10.4 2.4-3.3 7.1-4 10.4-1.6 3.3 2.4 4 7.1 1.6 10.4zm63.1 33.7c3.3-2.4 8-1.7 10.4 1.6 2.4 3.3 1.7 8-1.6 10.4-3.3 2.4-8 1.7-10.4-1.6-2.4-3.4-1.7-8 1.6-10.4zm69.9-13.7c3.7-1.7 8.1-.1 9.9 3.6 1.7 3.7.1 8.1-3.6 9.9-3.7 1.7-8.1.1-9.9-3.6-1.7-3.7-.1-8.1 3.6-9.9zm-52.5-52c0 4.1-3.3 7.4-7.4 7.4-4.1 0-7.4-3.3-7.4-7.4 0-4.1 3.3-7.4 7.4-7.4 4.1 0 7.4 3.3 7.4 7.4zm26.8-73c-4.1 0-7.4-3.3-7.4-7.4s3.3-7.4 7.4-7.4c4.1 0 7.4 3.3 7.4 7.4s-3.3 7.4-7.4 7.4zm3.5 82.1c-4.1 0-7.4-3.3-7.4-7.4 0-4.1 3.3-7.4 7.4-7.4s7.4 3.3 7.4 7.4c.1 4-3.3 7.4-7.4 7.4zm26.3-29.1c-4.1 0-7.4-3.3-7.4-7.4 0-4.1 3.3-7.4 7.4-7.4s7.4 3.3 7.4 7.4c0 4-3.3 7.4-7.4 7.4zm93.7 101.9c3.9-1.3 8.1.9 9.4 4.8 1.3 3.9-.9 8.1-4.8 9.4-3.9 1.3-8.1-.9-9.4-4.8-1.3-3.9.9-8.1 4.8-9.4zM455 371.1c1.3 3.9-.9 8.1-4.8 9.4-3.9 1.3-8.1-.9-9.4-4.8-1.3-3.9.9-8.1 4.8-9.4 3.9-1.2 8.1.9 9.4 4.8zm7.2-50.1c-3.9 1.3-8.1-.9-9.4-4.8-1.3-3.9.9-8.1 4.8-9.4 3.9-1.3 8.1.9 9.4 4.8 1.2 3.9-.9 8.1-4.8 9.4zm49.9 4.7c3.9-1.3 8.1.9 9.4 4.8 1.3 3.9-.9 8.1-4.8 9.4-3.9 1.3-8.1-.9-9.4-4.8-1.2-3.9.9-8.1 4.8-9.4zm22.4-13.9c-3.9 1.3-8.1-.9-9.4-4.8 0-.1 0-.2-.1-.3l-.3-2.4c.1-3 2.1-5.8 5.1-6.7 3.9-1.3 8.1.9 9.4 4.8 1.3 3.9-.8 8.1-4.7 9.4z"/></svg>
