<svg xmlns="http://www.w3.org/2000/svg" width="480" height="54" fill="none"><path fill="#000" fill-rule="evenodd" d="M94.4 36.982c-1.332-.143-3.451-.607-4.157-.91l-.345-.149-.047-1.707c-.026-.939-.056-2.195-.066-2.79l-.02-1.083.207-.1c.114-.053.343-.104.51-.112l.303-.014.258.635c1.007 2.479 2.189 3.815 3.732 4.221.588.156 1.692.157 2.128.003 1.22-.43 1.89-1.355 1.896-2.617.007-1.495-.815-2.213-3.92-3.425-1.924-.752-2.595-1.138-3.394-1.956-.862-.882-1.276-1.886-1.354-3.284-.094-1.69.435-3.114 1.608-4.328 1.18-1.221 2.71-1.883 4.797-2.073 1.837-.168 4.657.221 6.134.847l.27.114.048 1.522c.026.837.054 1.959.061 2.493l.012.972-.362.134c-.572.213-.609.186-.928-.657-.892-2.364-1.93-3.483-3.545-3.824-.984-.208-1.807.016-2.404.655-.467.498-.649.94-.693 1.684-.048.805.096 1.24.589 1.779.606.663 1.6 1.236 3.58 2.063 2.425 1.013 3.582 1.873 4.211 3.13.409.816.524 1.468.483 2.723-.031.942-.061 1.135-.275 1.767-.699 2.062-2.276 3.42-4.713 4.055-.826.216-.943.227-2.585.245-.945.01-1.854.004-2.018-.013Zm-32.225-.214c2.272-.34 3.938-1.12 5.349-2.503 2.04-1.999 3.021-4.82 2.889-8.296-.069-1.79-.361-2.96-1.103-4.41-1.006-1.965-2.725-3.343-4.678-3.75-1.464-.304-3.349-.065-4.781.606-.357.167-.7.304-.76.304-.096 0-.106-.553-.082-4.36L59.037 10l-.3.06c-.165.033-1.847.347-3.74.697-1.89.35-3.512.653-3.602.675-.138.032-.161.084-.147.318.017.26.038.284.314.345.948.208 1.116.283 1.469.646.431.446.626 1.016.754 2.204.102.946.125 17.256.028 19.664l-.058 1.427.77.165c2.917.623 5.824.84 7.65.567Zm20.597-.002c1.732-.281 3.438-1.112 4.665-2.273.671-.636.894-.943.8-1.103-.248-.43-.238-.429-.874-.038-1.014.622-1.521.794-2.712.916-1.39.142-2.673-.09-3.858-.699-.786-.404-1.729-1.334-2.2-2.17-.642-1.14-.99-2.473-1.095-4.186-.043-.72-.034-.898.05-.952.058-.036 2.551-.066 5.581-.067l5.477-.001v-.216c0-.492-.161-1.813-.306-2.506-.582-2.785-2.118-4.772-4.308-5.57-.872-.319-1.696-.453-2.783-.453-2.575 0-4.678.845-6.305 2.532-1.297 1.345-2.067 2.856-2.537 4.98-.141.64-.165.973-.165 2.317 0 1.334.024 1.678.161 2.295.872 3.92 3.452 6.502 7.159 7.163.94.168 2.323.18 3.25.03Zm-53.008-.098c1.326-.31 2.384-.782 3.33-1.488 2.299-1.717 3.559-4.349 3.675-7.68.115-3.282-.876-6.08-2.79-7.885-1.555-1.464-3.515-2.166-6.047-2.166-2.685 0-4.847.831-6.51 2.505-1.782 1.792-2.724 4.293-2.724 7.227 0 3.045.851 5.502 2.503 7.224.91.95 1.796 1.519 3.067 1.97.45.16.78.237 1.982.46.102.02.792.023 1.532.008.998-.02 1.504-.064 1.982-.175ZM15.309 27.95l-.173-.71c-.326-1.334-.953-2.289-1.727-2.631-.358-.158-1.243-.248-2.954-.3l-.804-.024v1.686c0 1.839.101 4.326.23 5.675.181 1.882.662 2.922 1.526 3.298.165.072.687.189 1.16.26.473.07.919.158.99.195.183.095.194 1.07.013 1.139-.141.054-13.336.05-13.47-.004-.063-.026-.094-.212-.094-.557 0-.62-.04-.591 1.159-.813.92-.171 1.248-.345 1.654-.877.787-1.032.957-3.018.959-11.195.001-7.68-.147-9.294-.96-10.481-.362-.527-.97-.813-1.99-.935l-.785-.094-.021-.612L0 10.356l.246-.044c.135-.024 4.888-.034 10.562-.023l10.316.022.048.299c.027.164.07 1.85.097 3.748l.049 3.449-.532.161c-.8.243-.796.246-1.156-.706-.885-2.34-1.899-3.689-3.287-4.37-.958-.47-1.4-.526-4.104-.526H9.886l-.04.393c-.076.735-.197 5.469-.196 7.698l.001 2.223.692-.004c.38-.002 1.13-.03 1.666-.062.807-.048 1.046-.09 1.384-.247.829-.383 1.392-1.227 1.738-2.602l.178-.71 1.22-.043v8.98l-1.22-.043Zm21.647 8.57c-.068-.044-.09-.216-.075-.579l.023-.516.262-.056c.144-.03.453-.092.687-.135.724-.135 1.14-.528 1.374-1.297.19-.627.275-2.633.279-6.66.005-4.924-.097-6.087-.596-6.746-.27-.357-.464-.459-1.119-.585a79.082 79.082 0 0 1-.756-.148c-.15-.03-.168-.08-.168-.446 0-.356.022-.42.168-.48.224-.092 7.63-1.572 7.867-1.572h.185L45.05 18.4c-.02.607-.052 1.49-.071 1.962l-.035.86.269-.484c.858-1.549 1.822-2.51 3.103-3.097.703-.322 1.172-.418 2.04-.418 1.031 0 2.061.336 2.061.672 0 .226-1.815 5.021-1.915 5.06-.049.018-.403-.117-.788-.302-.801-.384-1.553-.572-2.283-.57-.91.002-1.925.336-2.326.766-.172.184-.172.195-.215 2.941-.042 2.72.048 6.037.201 7.37.13 1.137.433 1.697 1.057 1.957.208.087 1.525.267 1.955.268.032 0 .05.26.037.58l-.022.579-5.533.018c-3.01.01-5.523-.01-5.63-.045Zm-8.404-1.023c.53-.157 1.183-.77 1.531-1.436.72-1.374 1.04-3.406 1.048-6.634.01-4.044-.624-6.618-1.963-7.966-.562-.566-.96-.741-1.68-.74-1.595.002-2.607 1.667-3.007 4.945-.184 1.507-.185 5.097-.002 6.415.567 4.077 2.03 6.023 4.073 5.416Zm32.396-.036c.543-.103.965-.32 1.418-.726 1.136-1.02 1.99-3.128 2.325-5.738.137-1.063.118-3.486-.033-4.373-.41-2.4-1.291-3.978-2.576-4.613-.534-.263-.616-.282-1.248-.282-.453 0-.841.048-1.172.146l-.495.146-.037 2.731c-.047 3.5.067 12.26.163 12.512.06.16.128.194.43.218.709.055.83.053 1.225-.021Zm20.847-10.733 1.3-.046-.046-.923c-.166-3.258-.963-5.037-2.256-5.036-1.406.002-2.529 1.808-2.996 4.818-.057.37-.105.809-.106.975l-.001.302 1.402-.023c.77-.012 1.987-.043 2.703-.067Z" clip-rule="evenodd"/><path fill="#000" d="M196.685 36.699c.287-.128.513-.366.628-.661a1.22 1.22 0 0 0-.016-.918L184.201 4.685a1.193 1.193 0 0 0-.653-.636 1.173 1.173 0 0 0-.906.016l-30.02 13.274a1.199 1.199 0 0 0-.627.662c-.115.296-.109.626.016.918l13.095 30.435c.126.291.361.52.653.636.292.116.618.11.906-.016l30.02-13.275Z"/><path fill="#fff" d="M182.074 14.606h-7.441V27.59h-8.925l8.647-12.983h-13.127l-2.423 3.667h7.949l-8.691 12.982h17.719l3.12-4.667v-8.315h2.389c2.744 0 4.682 1.675 4.682 4.657 0 3.247-2.179 4.659-4.726 4.659h-1.887v3.666h2.714c4.551 0 8.342-3.644 8.342-8.325 0-4.682-3.767-8.324-8.342-8.324Z"/><path fill="#000" d="M191.859 14.417h3.692l3.165 6.709c.836 1.786 1.477 3.549 1.81 4.754a81.553 81.553 0 0 1-.262-4.61l-.071-6.853h3.166v16.775h-3.477l-2.832-6.422c-.904-2.1-1.929-4.463-2.239-5.502.121 1.377.146 3.356.168 4.755l.095 7.17h-3.215V14.416Zm22.232 13.492 1.238 1.931c-1.405 1.157-2.881 1.715-4.595 1.715-3.5 0-5.761-2.51-5.761-6.397 0-2.22.451-3.693 1.522-4.9 1.001-1.135 2.216-1.667 3.834-1.667 1.404 0 2.739.484 3.523 1.306 1.118 1.158 1.619 2.823 1.619 5.407v.747h-7.048v.097c0 1.905.931 2.992 2.573 2.992 1.096 0 2.119-.41 3.095-1.231Zm-5.618-4.224h3.691v-.144c0-.917-.096-1.4-.382-1.86-.311-.482-.763-.724-1.405-.724-1.213 0-1.904.965-1.904 2.68v.048Zm15.354-4.874-.808 2.145h-2.048v6.302c0 1.569.285 1.98 1.381 1.98.285 0 .571-.075 1.143-.243l.405 1.93c-.928.388-1.763.557-2.595.557-1.619 0-2.929-.725-3.286-1.81-.19-.532-.214-.774-.214-1.907v-6.809h-1.215v-2.099h1.215c0-1.206 0-2.026.12-2.943l3.236-.822a36.34 36.34 0 0 0-.19 3.718h2.856Z"/><g fill="#000" clip-path="url(#a)"><path d="M272.909 38.642H268V7.317l4.909.318v31.007ZM280.946 38.642h-4.909v-22.34l4.909.277v22.063Zm-2.455-29.139c1.544 0 2.811 1.273 2.811 2.823s-1.267 2.823-2.811 2.823-2.811-1.272-2.811-2.823c0-1.55 1.267-2.823 2.811-2.823M292.664 20.793v4.93h-3.682V38.62h-4.909V14.115c0-3.737 3.088-7.116 6.731-7.116 1.227 0 2.217.358 2.454.517l-.198 4.73h-2.256c-.99 0-1.822.835-1.822 1.869v6.678h3.682ZM299.559 25.087h3.682V22.78c0-1.034-.831-1.868-1.821-1.868-1.03 0-1.861.834-1.861 1.868v2.306Zm-4.909-2.306c0-3.737 3.009-6.798 6.77-6.798 3.721 0 6.73 3.061 6.73 6.798v4.77a2.446 2.446 0 0 1-2.454 2.465h-6.137v2.147c0 1.033.831 1.868 1.861 1.868h4.711l.159 4.174-4.435.676c-4.275.715-7.205-2.982-7.205-6.718V22.78ZM312.348 38.642V7.516h3.168v9.46c.871-.277 2.256-.396 3.206-.396 3.366 0 5.979 3.06 5.979 6.519v15.543h-3.088V23.1c0-1.71-1.386-3.061-3.088-3.061h-3.009v18.604h-3.168ZM336.288 32.64v-5.367h-3.048a3.032 3.032 0 0 0-3.049 3.06v2.307c0 1.709 1.347 3.1 3.049 3.1s3.048-1.391 3.048-3.1Zm0-10.058c0-1.789-.831-3.22-3.088-2.981h.04c-1.267.04-2.89.198-4.236.278-.04-1.153-.079-1.59-.119-2.465 1.069-.397 2.613-.795 3.919-.835 3.959-.079 6.573 3.141 6.573 6.6v9.46c0 3.42-2.732 6.242-6.137 6.242-3.405 0-6.216-2.823-6.216-6.241v-1.948c0-3.42 2.336-6.003 6.216-6.003 1.465 0 2.217.16 3.048.397v-2.504ZM348.246 16.58c3.405 0 6.215 2.782 6.215 6.24v.398c-1.227.04-2.217.04-3.127.08v-.477c0-1.67-1.386-3.061-3.088-3.061-1.663 0-3.009 1.391-3.009 3.06v9.939c0 1.749 1.346 3.06 3.009 3.06 1.663 0 3.048-1.271 3.088-2.941 1.544.12 3.009.199 3.127.199-.158 3.3-2.929 5.923-6.215 5.923-3.405 0-6.176-2.783-6.176-6.241V22.82c0-3.459 2.771-6.242 6.176-6.242M366.94 38.642l-6.018-10.534c-.594-1.034-.594-1.153.119-2.386l5.305-8.824h3.603l-5.978 10.176 6.453 11.568h-3.484Zm-6.809-31.047v31.047h-3.168V7.595h3.168ZM374.259 26.2h6.097v-3.34c0-1.709-1.386-3.1-3.049-3.1-1.702 0-3.048 1.391-3.048 3.1v3.34Zm-3.168-3.34c0-3.458 2.772-6.28 6.216-6.28 3.405 0 6.176 2.822 6.176 6.28v4.89c0 .914-.712 1.59-1.583 1.59h-7.641v3.379c0 1.71 1.346 3.1 3.048 3.1h3.999c.039 1.034.079 1.75.158 2.465l-3.801.597c-3.879.675-6.572-2.703-6.572-6.162V22.86M389.428 38.642h-3.167V23.14c0-3.459 2.692-6.679 6.651-6.6 1.346.04 2.178.359 3.088.796-.039.954-.079 1.749-.118 2.464l-3.445-.079c-1.663 0-3.009 1.789-3.009 3.419v15.503"/></g><g clip-path="url(#b)"><path fill="#000" d="M441.014 2h38.946c-.002 15.333 0 30.667-.001 46h-38.945V2Zm23.262 4.713c-.689.28-1.341.67-1.861 1.198-.64.63-1.054 1.46-1.234 2.326a6.837 6.837 0 0 0-.142 1.646v19.031c-.015.84.102 1.692.428 2.472a4.401 4.401 0 0 0 1.085 1.56c.746.706 1.716 1.137 2.707 1.402 1.066.28 2.173.383 3.274.4 1.06.013 2.13-.052 3.161-.309.812-.2 1.603-.531 2.256-1.052a4.361 4.361 0 0 0 1.379-1.92c.295-.79.393-1.637.392-2.474-.002-2.46.003-4.92-.002-7.38-2.053.003-4.105-.001-6.158.003l-.001 7.454c.006.301.007.612-.117.894-.131.285-.446.447-.756.456-.3.015-.649-.003-.869-.23-.224-.206-.272-.524-.285-.81-.001-6.666.001-13.331-.001-19.997-.001-.24.037-.49.175-.692.155-.247.46-.368.747-.371.314-.024.662.048.875.292.225.267.242.63.231.961v3.832c.005.976-.01 1.953.008 2.93 2.051-.005 4.101 0 6.152-.003.003-2.252 0-4.504.001-6.756-.008-.878-.135-1.769-.493-2.58a4.265 4.265 0 0 0-1.26-1.635c-.633-.513-1.405-.836-2.193-1.043-.982-.252-1.999-.329-3.01-.332-1.52.015-3.07.162-4.489.727Zm-19.01-.502.001 30.407c2.164.007 4.328.003 6.492.002l-.001-10.028c.006-.583-.011-1.166.009-1.749.298.004.595 0 .893.001.717-.006 1.436.025 2.149-.058.745-.08 1.486-.24 2.17-.546a4.256 4.256 0 0 0 1.277-.863c.607-.577.99-1.348 1.192-2.146.211-.8.243-1.631.23-2.453v-6.704c.008-.6-.01-1.204-.115-1.797-.157-.949-.527-1.893-1.214-2.597-.514-.542-1.185-.924-1.897-1.159-1.004-.33-2.073-.416-3.127-.4-2.678-.004-5.356.006-8.033-.006a3.817 3.817 0 0 1-.026.096Zm3.927 32.407c-.331.23-.484.624-.568.998-.122.59-.132 1.196-.132 1.796.011.558.026 1.126.195 1.664.103.31.286.622.598.768.413.2.901.201 1.344.112.058-.112.176-.035.26-.099.344-.166.521-.531.59-.884.077-.419.099-.854.031-1.275-.311.006-.623-.021-.934-.013.03.304.037.611.015.916-.02.188-.031.39-.14.554-.108.173-.352.19-.531.132-.163-.053-.229-.227-.264-.376-.085-.38-.063-.77-.087-1.156.005-.42-.013-.842.013-1.262.01-.377.008-.76.112-1.126a.619.619 0 0 1 .113-.214c.117-.113.312-.128.456-.06.123.048.16.185.198.297.079.367.073.747.042 1.119.323 0 .645-.021.968-.03.044-.49.061-1.014-.147-1.474-.152-.348-.524-.55-.895-.593-.417-.047-.88-.038-1.237.206Zm11.409-.11c-.346.135-.566.464-.676.8-.168.518-.204 1.066-.222 1.606-.008.677-.022 1.367.154 2.027.092.342.263.692.581.883.317.181.703.214 1.062.167.29-.037.493-.269.633-.502.082.13.147.272.238.397.119.054.263.008.391.029a.204.204 0 0 0 .033-.127c-.001-.904-.003-1.809.002-2.713a69.277 69.277 0 0 0-1.463-.002c.003.26-.02.52.012.779.181-.005.362-.002.543-.003-.014.413.055.854-.132 1.24-.114.231-.421.266-.647.197-.12-.037-.177-.157-.213-.266-.081-.26-.09-.533-.106-.802-.019-.562-.012-1.125-.009-1.687.021-.417-.003-.852.147-1.25.095-.285.583-.317.688-.023.14.353.109.743.093 1.113.324.038.652-.019.979-.006.025-.477.035-.987-.198-1.422-.141-.282-.438-.46-.747-.516-.378-.064-.782-.059-1.143.081Zm4.937.04c-.317.154-.508.473-.611.793-.151.472-.178.97-.204 1.46-.005.638-.017 1.281.098 1.911.067.352.184.718.458.97.252.235.609.317.948.326.372.015.784-.024 1.075-.277.346-.285.424-.755.461-1.172.011-.281.034-.57-.022-.847a8.129 8.129 0 0 0-.942-.02c.04.261.021.528.024.792-.011.227-.021.47-.143.669-.125.199-.418.2-.608.1-.19-.145-.203-.4-.234-.615-.047-.457-.032-.918-.035-1.377.002-.538-.011-1.08.058-1.614.027-.172.058-.354.171-.494.176-.165.533-.127.614.118.15.395.091.827.091 1.24.319-.005.638-.02.957-.032.059-.484.056-.996-.132-1.454-.147-.358-.525-.566-.901-.613-.376-.042-.78-.04-1.123.135Zm4.054-.157c-.292.013-.598.075-.829.262-.28.216-.42.557-.506.886-.151.626-.155 1.274-.15 1.914.011.528.038 1.062.187 1.572.09.303.246.611.528.784.281.182.631.204.958.202.341-.006.704-.079.96-.315.278-.263.396-.638.473-.999.088-.487.119-.983.111-1.478a7.382 7.382 0 0 0-.119-1.528c-.079-.37-.214-.756-.513-1.011-.299-.257-.718-.304-1.1-.289Zm-24.322.083c-.015 1.802.006 3.605-.01 5.408.103.047.219.024.328.028.236-.005.473.009.708-.006l.013-.117c-.003-.65.004-1.299-.003-1.948.281-.024.568.017.845-.052.328-.061.632-.26.785-.555.218-.413.232-.895.211-1.35-.03-.4-.149-.828-.473-1.095-.275-.224-.643-.3-.993-.312-.47-.003-.94 0-1.411 0Zm6.732 0c.001 1.81-.003 3.622.002 5.433.232.007.463 0 .694.004.087-.001.178.008.261-.026-.012-.748-.002-1.496-.006-2.245.008-.528-.021-1.056-.001-1.584.023.182.022.367.051.55.155 1.103.371 2.198.547 3.298.296.007.594.014.891-.002.136-.855.298-1.707.434-2.562.075-.45.103-.905.158-1.356-.002 1.308-.011 2.617-.002 3.926.315 0 .63.003.946-.002.006-1.811 0-3.623.002-5.435-.439.007-.879-.007-1.318.006-.058.136-.055.292-.091.436l-.586 3.3a276.964 276.964 0 0 1-.639-3.734c-.447-.015-.895-.002-1.343-.008Zm5.376 0c-.276 1.465-.566 2.927-.852 4.389-.056.35-.154.694-.188 1.047.318.004.637-.007.955.005.102-.323.121-.668.193-1 .274-.003.548-.004.822.001.067.333.114.67.198.998.356-.013.714.006 1.071-.01-.034-.3-.118-.593-.173-.89-.315-1.49-.626-2.982-.943-4.473.002-.114-.134-.081-.209-.086-.291.012-.586-.025-.874.02Zm14.363-.001c-.001 1.813-.005 3.626.003 5.438.316-.017.639.029.952-.024a634.867 634.867 0 0 1-.005-3.904c.023.466.094.927.169 1.387.139.835.288 1.668.431 2.503.031.063.11.03.165.038.241-.013.485.02.724-.018.153-.916.325-1.829.467-2.747.062-.388.071-.782.125-1.17.014.363.005.728-.004 1.091.004.947-.005 1.893.005 2.839.314.008.629.002.945.005.004-1.813.003-3.625 0-5.437h-1.32c-.111.53-.196 1.063-.291 1.595-.026.161-.066.32-.06.485l-.035.038c-.091.541-.191 1.082-.29 1.622-.218-1.245-.425-2.492-.641-3.738-.446-.005-.893.001-1.34-.003Zm-8.473 4.25c-.002.392.002.785-.001 1.178.308.02.618.002.927.01.07-.004.148.013.209-.031-.015-.385-.003-.77-.005-1.156a33.783 33.783 0 0 0-1.13-.002Z"/><path fill="#000" d="M451.763 10.514c.508-.003 1.051.023 1.498.284.288.162.456.467.53.775.079.314.063.64.065.96v6.014c.006.434-.002.9-.244 1.28-.218.354-.643.518-1.043.575-.265.043-.536.059-.805.048-.013-2.32-.002-4.64-.005-6.96.003-.992-.006-1.984.004-2.976ZM469.428 39.154c.099-.107.258-.083.382-.137.064.08.179.101.234.19.089.13.125.287.145.44.075.521.051 1.049.055 1.573-.004.524.021 1.05-.06 1.57-.032.17-.071.369-.228.472a.541.541 0 0 1-.456.01c-.196-.116-.227-.357-.264-.558-.069-.611-.05-1.227-.053-1.84-.002-.383.01-.766.047-1.147.027-.2.053-.419.198-.573ZM446.309 39.199c.216-.041.483-.02.615.177.151.241.155.54.156.814-.013.27-.025.574-.224.784-.146.134-.358.104-.542.107-.01-.628 0-1.255-.005-1.882ZM457.631 42.169c.058-.753.203-1.498.251-2.251.087.75.193 1.499.283 2.249-.179.004-.356.003-.534.002Z"/><path fill="#fff" d="M479.96 2h.025v46h-.026l.001-46ZM464.276 6.713c1.42-.565 2.97-.712 4.489-.727 1.011.003 2.029.08 3.01.332.789.207 1.56.53 2.193 1.043.552.43.98 1.003 1.26 1.635.358.81.485 1.702.494 2.58-.002 2.252.001 4.504-.002 6.756-2.051.003-4.101-.002-6.152.002-.018-.976-.002-1.953-.007-2.93v-3.83c.01-.331-.006-.695-.231-.962-.214-.244-.561-.316-.876-.292-.287.003-.592.124-.746.371-.138.202-.177.453-.176.692.002 6.666 0 13.331.001 19.997.013.286.061.604.285.81.22.227.569.245.869.23.311-.01.625-.171.757-.456.123-.282.122-.593.117-.894v-7.454c2.053-.005 4.105 0 6.158-.003.005 2.46.001 4.92.003 7.38 0 .837-.098 1.684-.392 2.474a4.363 4.363 0 0 1-1.38 1.92c-.653.52-1.443.852-2.255 1.052-1.031.257-2.102.322-3.162.309-1.101-.017-2.208-.12-3.274-.4-.991-.266-1.961-.696-2.707-1.402a4.415 4.415 0 0 1-1.085-1.56c-.326-.78-.443-1.632-.427-2.472V11.882a6.836 6.836 0 0 1 .141-1.645c.18-.867.594-1.697 1.235-2.326.519-.529 1.171-.919 1.86-1.198ZM445.267 6.211l.025-.096c2.678.012 5.355.002 8.033.005 1.054-.015 2.123.07 3.127.401.712.235 1.383.617 1.898 1.159.686.704 1.056 1.648 1.213 2.597.105.593.123 1.197.115 1.797v6.704c.014.822-.018 1.653-.23 2.453-.202.798-.585 1.569-1.191 2.146a4.26 4.26 0 0 1-1.278.863c-.683.306-1.425.467-2.169.546-.714.083-1.433.052-2.149.058-.298 0-.596.003-.893 0-.021.581-.003 1.165-.009 1.748V36.62c-2.164.001-4.328.005-6.492-.002V6.21Zm6.496 4.303c-.01.992-.001 1.984-.004 2.976.004 2.32-.008 4.64.006 6.96.269.01.539-.005.804-.049.401-.056.825-.22 1.044-.573.241-.38.249-.847.243-1.281v-6.013c-.002-.32.014-.647-.065-.96-.074-.31-.242-.614-.529-.776-.448-.261-.991-.287-1.499-.284ZM449.193 38.618c.358-.244.82-.253 1.238-.206.371.042.743.245.895.593.207.46.191.984.147 1.475-.323.008-.646.029-.969.029.031-.372.038-.752-.041-1.119-.039-.112-.075-.249-.199-.297-.144-.068-.338-.053-.455.06a.622.622 0 0 0-.114.214c-.104.366-.102.75-.112 1.126-.026.42-.008.841-.013 1.262.025.385.003.776.087 1.156.035.149.102.324.264.376.18.059.423.041.532-.132.109-.163.12-.366.139-.554a5.29 5.29 0 0 0-.015-.916c.312-.008.623.02.935.013.067.42.046.856-.031 1.275-.07.353-.247.718-.59.884-.085.064-.203-.013-.26.1-.443.088-.932.087-1.345-.113-.311-.146-.495-.459-.598-.768-.168-.538-.183-1.106-.194-1.664 0-.6.01-1.206.131-1.796.085-.374.237-.768.568-.998ZM460.603 38.508c.36-.14.764-.145 1.142-.08.31.054.606.233.748.515.233.434.222.945.197 1.422-.326-.013-.655.044-.979.006.017-.37.047-.76-.093-1.113-.105-.294-.592-.262-.688.023-.15.398-.126.833-.147 1.25-.002.562-.01 1.125.009 1.687.017.27.025.543.106.802.036.109.093.229.213.266.226.07.533.034.648-.197.186-.386.118-.827.132-1.24-.181.001-.363-.002-.543.003-.032-.258-.01-.52-.013-.779.488-.004.976-.005 1.463.002-.005.904-.002 1.809-.001 2.713a.218.218 0 0 1-.033.127c-.129-.021-.273.025-.391-.03-.092-.124-.157-.266-.239-.396-.14.233-.343.465-.633.502-.358.047-.744.014-1.062-.167-.317-.19-.489-.541-.58-.883-.177-.66-.162-1.35-.154-2.027.017-.54.053-1.088.221-1.607.11-.336.33-.664.677-.799ZM465.539 38.547c.343-.175.748-.177 1.123-.135.377.047.754.255.902.613.187.458.19.97.132 1.454-.32.012-.639.027-.958.032.001-.413.059-.845-.091-1.24-.081-.245-.438-.283-.614-.118-.113.14-.144.322-.171.494-.069.535-.056 1.076-.058 1.614.003.459-.011.92.036 1.377.031.215.043.47.234.615.19.1.483.099.607-.1.123-.2.132-.442.143-.669-.003-.264.016-.53-.024-.793.313-.013.631-.002.942.021.056.277.033.566.022.847-.036.417-.115.887-.46 1.172-.291.253-.703.292-1.076.277-.338-.009-.696-.091-.948-.326-.274-.252-.391-.618-.457-.97-.116-.63-.104-1.273-.098-1.91.026-.491.052-.99.203-1.46.103-.321.295-.64.611-.795ZM469.593 38.391c.382-.015.801.032 1.1.289.3.255.435.641.513 1.011.1.503.127 1.017.12 1.528.008.495-.024.991-.112 1.478-.077.36-.195.736-.473.999-.256.236-.619.31-.96.315-.327.002-.677-.02-.958-.202-.281-.173-.437-.481-.528-.784-.149-.51-.176-1.044-.187-1.572-.005-.64-.001-1.288.15-1.914.086-.33.227-.67.507-.886.23-.187.536-.25.828-.262Zm-.164.763c-.145.154-.172.374-.199.573-.037.381-.049.764-.047 1.147.003.613-.016 1.23.054 1.84.036.202.067.442.263.559a.54.54 0 0 0 .456-.01c.157-.104.196-.302.228-.472.081-.52.056-1.047.06-1.57-.004-.525.02-1.052-.054-1.573a1.008 1.008 0 0 0-.146-.44c-.055-.09-.17-.11-.234-.191-.124.054-.283.03-.381.136ZM445.272 38.474c.47.002.94-.002 1.41.001.35.012.718.087.993.312.325.267.444.696.473 1.095.021.455.007.936-.211 1.35-.153.295-.457.494-.785.555-.277.069-.564.028-.845.052.008.649 0 1.299.003 1.948l-.013.117c-.235.015-.471 0-.707.006-.11-.004-.226.019-.329-.028.016-1.803-.004-3.606.011-5.408Zm1.037.725c.005.627-.005 1.254.005 1.881.184-.002.395.028.542-.106.199-.21.211-.514.224-.784-.002-.275-.005-.573-.156-.814-.132-.197-.399-.218-.615-.177ZM452.004 38.473c.447.006.895-.006 1.343.008.206 1.246.415 2.492.638 3.735l.586-3.3c.037-.145.033-.3.092-.437.439-.012.878 0 1.318-.006-.003 1.812.003 3.624-.003 5.435-.315.005-.63.002-.946.002-.009-1.308 0-2.618.002-3.926-.055.451-.083.907-.157 1.356-.136.855-.298 1.707-.435 2.562-.296.016-.594.009-.891.002-.175-1.1-.392-2.195-.547-3.298-.029-.183-.028-.368-.051-.55-.02.528.01 1.056.002 1.584.003.749-.007 1.497.005 2.245-.082.035-.173.025-.26.026-.232-.004-.463.003-.694-.004-.006-1.811-.002-3.622-.002-5.434ZM457.379 38.475c.288-.045.583-.008.874-.02.076.005.211-.029.21.086.317 1.49.627 2.983.942 4.473.055.297.139.59.174.89-.357.016-.715-.004-1.072.01-.084-.329-.131-.665-.197-.998a26.814 26.814 0 0 0-.822 0c-.072.331-.091.676-.194 1-.318-.013-.636-.002-.954-.006.033-.353.131-.697.187-1.047.286-1.462.576-2.924.852-4.388Zm.252 3.694c.178 0 .355.002.534-.002-.09-.75-.196-1.5-.283-2.25-.048.754-.193 1.499-.251 2.252ZM471.743 38.473c.447.004.893-.002 1.34.003.216 1.245.423 2.493.641 3.738.099-.54.198-1.08.29-1.622l.034-.038c-.006-.164.034-.324.061-.485.094-.532.18-1.065.29-1.594l1.32-.001c.003 1.812.005 3.625 0 5.437-.315-.003-.63.003-.945-.005-.01-.946-.001-1.892-.004-2.839.008-.363.017-.728.003-1.091-.054.388-.062.782-.125 1.17-.141.918-.314 1.83-.466 2.747-.239.039-.483.005-.724.018-.056-.008-.135.024-.166-.038-.142-.835-.292-1.668-.43-2.503-.075-.46-.147-.921-.17-1.386 0 1.3-.002 2.602.005 3.903-.312.053-.635.008-.952.024-.008-1.813-.004-3.625-.002-5.438ZM463.27 42.722c.376-.005.752-.006 1.129.002.002.385-.01.77.005 1.156-.061.043-.139.027-.209.03-.309-.007-.618.012-.927-.01.003-.392-.001-.785.002-1.178Z"/></g><defs><clipPath id="a"><path fill="#fff" d="M268 7h128v32H268z"/></clipPath><clipPath id="b"><path fill="#fff" d="M441 2h39v46h-39z"/></clipPath></defs></svg>
