<svg id="Layer_1" xmlns="http://www.w3.org/2000/svg" viewBox="0 0 1000 720" width="1000" height="720"><style>.st0{fill:#E73F30;} .st1{fill:#C33D32;}</style><path class="st0" d="M1000 356V94.7C976.9 53.1 942 21 896.9 0H635.4C579.8 26.6 533 65.7 504.6 92.3 476.3 65.7 429.4 26.6 373.8 0H112.3C60.7 24 22.5 62.5 0 113.2v223.7c37.6 85 107.4 145.8 110.9 148.6L345.8 720h85.3L174.2 463.5c-4-3.3-112.8-98-112.8-211.2 0-138.1 88.5-220.6 236.4-220.6 86.6 0 167.7 65 206.7 101.8C543.7 96.8 624.8 31.8 711.3 31.8c147.9 0 236.4 82.5 236.4 220.6 0 113.1-108.8 207.9-113.3 212.1L578.1 720h85.4l234.1-233.4c3.7-3.4 63.6-55.7 102.4-130.6z"/><path class="st1" d="M834.5 464.5c4.5-4.2 113.3-99 113.3-212.1 0-138.1-88.5-220.6-236.4-220.6-86.5 0-167.7 65-206.7 101.8C465.5 96.8 384.4 31.8 297.8 31.8 150 31.8 61.4 114.3 61.4 252.4c0 113.1 108.8 207.9 112.8 211.2L431.1 720h147.1l256.3-255.5z"/></svg>
