<svg id="Layer_2" xmlns="http://www.w3.org/2000/svg" xmlns:xlink="http://www.w3.org/1999/xlink" viewBox="0 0 548.5 649"><style>.st0{clip-path:url(#SVGID_2_);} .st1{opacity:5.000000e-02;fill:#333333;} .st2{fill:none;} .st3{fill:#E73F30;} .st4{fill:#F36D25;} .st5{opacity:0.2;fill:url(#SVGID_3_);} .st6{opacity:0.2;fill:url(#SVGID_4_);} .st7{fill:#272724;} .st8{fill:url(#SVGID_5_);} .st9{fill:#FFFFFF;} .st10{opacity:0.2;} .st11{fill:url(#SVGID_6_);} .st12{fill:url(#SVGID_7_);} .st13{opacity:0.12;fill:#808080;} .st14{opacity:0.3;fill:#333333;} .st15{fill:url(#SVGID_8_);} .st16{opacity:0.2;fill:#333333;} .st17{opacity:0.1;fill:#F7F9FA;}</style><defs><path id="SVGID_1_" d="M-26.1-19.6h589.6V649H-26.1z"/></defs><clipPath id="SVGID_2_"><use xlink:href="#SVGID_1_" overflow="visible"/></clipPath><g class="st0"><path class="st1" d="M531.6 273.5c3.8 38.5-24.8 73.6-66.1 83.6.1.1.2.2.3.4-4.2.9-8.6 1.4-13.2 1.9h-.2c-29.9 6.6-54.2 23.4-69.4 45.5l-9.2-93.6c25.3-14.6 44.8-37 54.9-63.3 11.2-29.3 9.9-61-3.6-89.1L415 137.8h.1l-12.2-25.4c-3.5-7.4-13-10.6-21.1-7.3-.7.3-1.4.7-2.1 1.1 0-.3.1-.6.1-.9l-57.8-15 2.1-29.4c.1-.6.2-1.1.2-1.7 1.8-25.7-35.8-49.2-84-52.6-48.2-3.4-88.8 14.6-90.6 40.3v1.4l-2.1 30.3L91 84.9c-.1 2.1.1 4.1.8 6.2L57.5 72.8l4.6 46.9.9 8.7.7 7.3 6.1 62L83 331c-25.3 14.6-44.8 37-54.8 63.3-11.2 29.3-9.9 61 3.6 89.1l10.1 21.1h-.1L54.1 530c3.5 7.4 13 10.6 21.1 7.3 8.1-3.4 11.8-12.1 8.2-19.5l-12.2-25.4-.1.1-10.8-22.6c-9.7-20.3-10.6-43.1-2.6-64.3 5.7-15.1 15.8-28.5 28.9-38.9l23.3 235.8 89.7-8.9L213 729.4l-33 3.3c-9 .9-15.6 8.9-14.7 18s8.9 15.6 18 14.7l65.8-6.5-16.6-168.5 45.1-4.5L294 754.4l65.8-6.5c9-.9 15.6-8.9 14.7-18s-8.9-15.6-18-14.7l-33 3.3-13.4-135.8 89.7-8.9-4-40.9 14.9-1.5c64.2-6.3 116.1-36.8 125.2-141.4l-.4-.2c2.4-26.5 1.9-57.8-1.7-94.9l-2.2-21.4z"/><path class="st2" d="M359.3 131.5c-.8-1.8-1.3-3.6-1.3-5.4-4 3.7-9.5 7.1-16.3 10.1L352.2 243l3.9 39.7c13.1-10.4 23.2-23.8 28.9-38.9 8.1-21.2 7.1-44-2.6-64.3l-10.8-22.6-.1.1-12.2-25.5z"/><path class="st3" d="M451.6 364.4c-4.2.9-8.6 1.4-13.2 1.9h-.2c-29.9 6.6-54.2 23.4-69.4 45.5l12.6 128 14.9-1.5c64.2-6.3 116.1-36.8 125.2-141.4l-.4-.2c-.1 1.4-.3 2.8-.4 4.2-27.2-1.7-52-15.4-69.1-36.5z"/><path class="st4" d="M359.7 318.2c25.3-14.6 44.8-37 54.9-63.3 11.2-29.3 9.9-61-3.6-89.1l-10.1-21.1-29.1 12.2 10.8 22.6c9.7 20.3 10.6 43.1 2.6 64.3-5.7 15.1-15.8 28.5-28.9 38.9l-3.9-39.7-145.1 51-31.3 3.1-113.8-25.6-12.7-129 6.1 62L68.8 338C43.5 352.6 24 375 14 401.3c-11.2 29.3-9.9 61 3.6 89.1l10.1 21.1 29.1-12.2L46 476.7c-9.7-20.3-10.6-43.1-2.6-64.3 5.7-15.1 15.8-28.5 28.9-38.9l23.3 235.8 89.7-8.9 13.4 135.8-33 3.3c-9 .9-15.6 8.9-14.7 18 .9 9 8.9 15.6 18 14.7l65.8-6.5L218 597.3l45.1-4.5 16.6 168.5 65.8-6.5c9-.9 15.6-8.9 14.7-18-.9-9-8.9-15.6-18-14.7l-33 3.3-13.4-135.8 89.7-8.9-4-40.9-12.6-128-9.2-93.6z"/><linearGradient id="SVGID_3_" gradientUnits="userSpaceOnUse" x1="-6.827" y1="512.653" x2="430.199" y2="512.653" gradientTransform="matrix(.9952 -.09824 .09824 .9952 -35.188 -43.52)"><stop offset="0" stop-color="#F99D25"/><stop offset="1" stop-color="#F36D25"/></linearGradient><path class="st5" d="M359.7 318.2c25.3-14.6 44.8-37 54.9-63.3 11.2-29.3 9.9-61-3.6-89.1l-10.1-21.1-29.1 12.2 10.8 22.6c9.7 20.3 10.6 43.1 2.6 64.3-5.7 15.1-15.8 28.5-28.9 38.9l-3.9-39.7-145.1 51-31.3 3.1-113.8-25.6-12.7-129 6.1 62L68.8 338C43.5 352.6 24 375 14 401.3c-11.2 29.3-9.9 61 3.6 89.1l10.1 21.1 29.1-12.2L46 476.7c-9.7-20.3-10.6-43.1-2.6-64.3 5.7-15.1 15.8-28.5 28.9-38.9l23.3 235.8 89.7-8.9 13.4 135.8-33 3.3c-9 .9-15.6 8.9-14.7 18 .9 9 8.9 15.6 18 14.7l65.8-6.5L218 597.3l45.1-4.5 16.6 168.5 65.8-6.5c9-.9 15.6-8.9 14.7-18-.9-9-8.9-15.6-18-14.7l-33 3.3-13.4-135.8 89.7-8.9-4-40.9-12.6-128-9.2-93.6z"/><path class="st4" d="M170.5 265.9l38-3.8c6.5-39.2 29.6-82 60.3-111.6-15.9.9-33.1.7-51-.5-73.6-5.2-133-27.8-140.3-52.1L43.3 79.7l4.6 46.9.9 8.7.7 7.3c62.1-6.2 105.5 59.9 121 123.3z"/><linearGradient id="SVGID_4_" gradientUnits="userSpaceOnUse" x1="65.973" y1="229.199" x2="283.412" y2="229.199" gradientTransform="matrix(.9952 -.09824 .09824 .9952 -35.188 -43.52)"><stop offset="0" stop-color="#F99D25"/><stop offset="1" stop-color="#F36D25"/></linearGradient><path class="st6" d="M170.5 265.9l38-3.8c6.5-39.2 29.6-82 60.3-111.6-15.9.9-33.1.7-51-.5-73.6-5.2-133-27.8-140.3-52.1L43.3 79.7l4.6 46.9.9 8.7.7 7.3c62.1-6.2 105.5 59.9 121 123.3z"/><path class="st7" d="M208.4 262.1l-38 3.8c2.6 10.6 4.4 21.1 5.4 31.1l31.3-3.1c-1-10-.5-20.8 1.3-31.8z"/><linearGradient id="SVGID_5_" gradientUnits="userSpaceOnUse" x1="174.252" y1="343.861" x2="212.428" y2="343.861" gradientTransform="matrix(.9952 -.09824 .09824 .9952 -35.188 -43.52)"><stop offset="0" stop-color="#A9ABB4"/><stop offset=".938" stop-color="#838790"/><stop offset="1" stop-color="#84868E"/></linearGradient><path class="st8" d="M208.4 262.1l-38 3.8c2.6 10.6 4.4 21.1 5.4 31.1l31.3-3.1c-1-10-.5-20.8 1.3-31.8z"/><path class="st9" d="M341.7 136.1c-17.3 7.7-42.9 12.8-72.9 14.4-30.7 29.6-53.8 72.3-60.3 111.6-1.8 11-2.3 21.7-1.3 31.8l145.1-51-10.6-106.8zm-52.9 82.3c-4 4.9-11.2 5.6-16.1 1.6-4.9-4-5.6-11.2-1.6-16.1 4-4.9 11.2-5.6 16.1-1.6 4.9 4 5.6 11.2 1.6 16.1z"/><g class="st10"><linearGradient id="SVGID_6_" gradientUnits="userSpaceOnUse" x1="207.975" y1="287.712" x2="357.395" y2="287.712" gradientTransform="matrix(.9952 -.09824 .09824 .9952 -35.188 -43.52)"><stop offset="0" stop-color="#BCBEC4"/><stop offset="1" stop-color="#8C8F99"/></linearGradient><path class="st11" d="M341.7 136.1c-17.3 7.7-42.9 12.8-72.9 14.4-30.7 29.6-53.8 72.3-60.3 111.6-1.8 11-2.3 21.7-1.3 31.8l145.1-51-10.6-106.8zm-52.9 82.3c-4 4.9-11.2 5.6-16.1 1.6-4.9-4-5.6-11.2-1.6-16.1 4-4.9 11.2-5.6 16.1-1.6 4.9 4 5.6 11.2 1.6 16.1z"/></g><path class="st7" d="M271.2 203.9c-4 4.9-3.3 12.1 1.6 16.1 4.9 4 12.1 3.3 16.1-1.6 4-4.9 3.3-12.1-1.6-16.1-4.9-4-12.1-3.3-16.1 1.6z"/><path class="st9" d="M62.2 271.5L175.8 297c-1-10.1-2.8-20.6-5.4-31.1-15.5-63.4-58.8-129.5-121-123.4l12.8 129zm50.3-35.7c-4 4.9-11.2 5.6-16.1 1.6-4.9-4-5.6-11.2-1.6-16.1 4-4.9 11.2-5.6 16.1-1.6 4.8 4 5.6 11.2 1.6 16.1z"/><g class="st10"><linearGradient id="SVGID_7_" gradientUnits="userSpaceOnUse" x1="65.973" y1="276.523" x2="176.554" y2="276.523" gradientTransform="matrix(.9952 -.09824 .09824 .9952 -35.188 -43.52)"><stop offset="0" stop-color="#BCBEC4"/><stop offset="1" stop-color="#8C8F99"/></linearGradient><path class="st12" d="M62.2 271.5L175.8 297c-1-10.1-2.8-20.6-5.4-31.1-15.5-63.4-58.8-129.5-121-123.4l12.8 129zm50.3-35.7c-4 4.9-11.2 5.6-16.1 1.6-4.9-4-5.6-11.2-1.6-16.1 4-4.9 11.2-5.6 16.1-1.6 4.8 4 5.6 11.2 1.6 16.1z"/></g><path class="st13" d="M269.5 150.5c-30.7 29.6-53.8 72.3-60.3 111.6-1.8 11-2.3 21.7-1.3 31.8l2.5-.9c.3-2.6.6-5.3 1.1-8 6.5-39.2 29.6-82 60.3-111.6 30-1.6 55.6-6.8 72.9-14.4l-2.3-22.9c-17.3 7.6-42.9 12.8-72.9 14.4zm-219.3-8.1l2.3 22.9c62.2-6.1 105.5 60 121 123.4.6 2.6 1.2 5.3 1.8 7.9l1.3.3c-1-10.1-2.8-20.6-5.4-31.1-15.5-63.4-58.8-129.5-121-123.4z"/><path class="st7" d="M94.8 221.3c-4 4.9-3.3 12.1 1.6 16.1 4.9 4 12.1 3.3 16.1-1.6 4-4.9 3.3-12.1-1.6-16.1-4.9-4-12.1-3.3-16.1 1.6z"/><path class="st9" d="M27.6 511.5l12.2 25.4c3.5 7.4 13 10.6 21.1 7.3 8.1-3.4 11.8-12.1 8.2-19.5l-12.2-25.4-.1.1-29.2 12.1zm489.8-231.1c3.8 38.5-24.8 73.6-66.1 83.6.1.1.2.2.3.4 17.1 21.1 41.8 34.9 69.2 36.7.1-1.4.3-2.8.4-4.2 2.4-26.5 1.9-57.8-1.7-94.9l-2.1-21.6z"/><path class="st14" d="M518.1 280.4c2.3 23.1-7.1 45-23.9 60.9 0 13.1-.4 25.3-1.5 36.6l.4.2c-.5 5.4-1.1 10.6-1.8 15.7-11.9 85.8-56 115.7-111.2 124.2l2.2 21.8 14.9-1.5c64.2-6.3 116.1-36.8 125.2-141.4l-.4-.2c2.4-26.5 1.9-57.8-1.7-94.9l-2.2-21.4z"/><path class="st7" d="M217.8 150c17.9 1.3 35 1.4 51 .5 30-1.6 55.6-6.8 72.9-14.4 6.8-3 12.3-6.4 16.3-10.1-.2-5.1 2.6-10.2 7.5-13 0-.3.1-.6.1-.9l-57.8-15 2.1-29.4c.1-.6.2-1.1.2-1.7 1.8-25.7-35.8-49.2-84-52.6S137.3 28 135.5 53.6V55l-2.1 30.3-56.5 6.5c-.1 2.1.1 4.1.8 6.2 7.1 24.2 66.5 46.8 140.1 52z"/><linearGradient id="SVGID_8_" gradientUnits="userSpaceOnUse" x1="97.897" y1="151.631" x2="383.555" y2="151.631" gradientTransform="matrix(.9952 -.09824 .09824 .9952 -35.188 -43.52)"><stop offset="0" stop-color="#A9ABB4"/><stop offset=".938" stop-color="#838790"/><stop offset="1" stop-color="#84868E"/></linearGradient><path class="st15" d="M217.8 150c17.9 1.3 35 1.4 51 .5 30-1.6 55.6-6.8 72.9-14.4 6.8-3 12.3-6.4 16.3-10.1-.2-5.1 2.6-10.2 7.5-13 0-.3.1-.6.1-.9l-57.8-15 2.1-29.4c.1-.6.2-1.1.2-1.7 1.8-25.7-35.8-49.2-84-52.6S137.3 28 135.5 53.6V55l-2.1 30.3-56.5 6.5c-.1 2.1.1 4.1.8 6.2 7.1 24.2 66.5 46.8 140.1 52z"/><path class="st9" d="M358 126.1c.1 1.8.5 3.7 1.3 5.4l12.2 25.4.1-.1 29.1-12.2h.1l-12.2-25.4c-3.5-7.4-13-10.6-21.1-7.3-.7.3-1.4.7-2.1 1.1-4.8 2.9-7.6 7.9-7.4 13.1z"/><path class="st16" d="M411.4 164.8l-10.1-21.1-13.8 5.8 8.1 16.9c13.5 28.1 14.8 59.8 3.6 89.1-10 26.3-29.6 48.7-54.9 63.3l9.2 93.6 12.6 128 4 40.9 15.8-1.6-4-40.9-12.6-128-9.2-93.6c25.3-14.6 44.8-37 54.9-63.3 11.2-29.3 9.9-60.9-3.6-89.1zM309.79 724.324l-15.824 1.562-13.4-135.746 15.824-1.56z"/><path class="st17" d="M62.2 271.5l6.6 66.4c-25.3 14.6-44.8 37-54.8 63.3-11.2 29.3-9.9 61 3.6 89.1l10.1 21.1 29.1-12.2L46 476.7c-9.7-20.3-10.6-43.1-2.6-64.3 5.7-15.1 15.8-28.5 28.9-38.9l23.3 235.8 89.7-8.9 13.4 135.8-33 3.3c-9 .9-15.6 8.9-14.7 18 .9 9 8.9 15.6 18 14.7l51.5-5.1L174 296.5l-111.8-25zM77.5 97.9L43.3 79.7l4.6 46.9.9 8.7.7 7.3c62.2-6.1 105.5 60 121 123.4h.4l-12.3-124.3c-44.3-10-75.9-26.5-81.1-43.8z"/><path class="st14" d="M269.2 150.5c-15.9.9-33.1.7-51-.5-73.6-5.2-133-27.8-140.3-52.1-.4-1.4-.7-2.8-.8-4.2l-14.7 1.7c-3.3.4-5.5 3.6-4.6 6.7v.1c7.3 24.3 66.7 46.9 140.3 52.1 17.9 1.3 35 1.4 51 .5 20.4-1.1 38.7-3.8 53.8-7.8-10.3 1.7-21.6 2.9-33.7 3.5z"/></g></svg>