<svg xmlns="http://www.w3.org/2000/svg" xml:space="preserve" x="0" y="0" version="1.1" viewBox="0 0 288 150" width="288" height="150" role="img">
  <title></title>
  <style>
    .st2{fill:none;stroke-linecap:round;stroke-linejoin:round}.st2,.st6,.st8{stroke:#000;stroke-width:1.7815}.st6{fill:#fff;stroke-miterlimit:10}.st8{fill:none;stroke-linecap:round}
  </style>
  <path fill="#fff" stroke="#333336" stroke-width="1.7815" d="M114.4 5.5h50c7.1 0 12.8 5.7 12.8 12.8v115.1c0 7.1-5.7 12.8-12.8 12.8h-50c-7.1 0-12.8-5.7-12.8-12.8V18.3c0-7.1 5.7-12.8 12.8-12.8z"/>
  <path fill="#9059ff" d="M114.1 10.1h50.8c4.1 0 7.5 3.3 7.5 7.5v116.9c0 4.1-3.3 7.5-7.5 7.5h-50.8c-4.1 0-7.5-3.3-7.5-7.5v-117c0-4.1 3.3-7.4 7.5-7.4z"/>
  <path d="M63.7 15.7v8" class="st2 invert-stroke"/>
  <path d="M67.7 19.7h-8" class="st2 invert-stroke"/>
  <path d="M7 121.1v8" class="st2 invert-stroke"/>
  <path d="M11 125.1H3" class="st2 invert-stroke"/>
  <path class="invert-stroke" fill="none" stroke="#000" stroke-miterlimit="10" stroke-width="1.7815" d="M191.6 10.4c2.3 0 4.1-1.9 4.1-4.1s-1.9-4.1-4.1-4.1c-2.3 0-4.1 1.9-4.1 4.1s1.8 4.1 4.1 4.1z"/>
  <path fill="#fff" stroke="#333336" stroke-linecap="round" stroke-linejoin="round" stroke-width="1.7815" d="m12.6 60.5 87.5-28.4c2.5-.8 5.2.6 6.1 3.1l19.7 60.7c.8 2.5-.6 5.2-3.1 6.1l-87.5 28.4c-2.5.8-5.2-.6-6.1-3.1L9.5 66.6c-.8-2.5.5-5.3 3.1-6.1z"/>
  <path fill="none" stroke="#333336" stroke-linejoin="round" stroke-width="1.7815" d="M10 61.7 71.1 91l30.7-59.1"/>
  <path d="m201 59.3 5.7-21.4c1.5-5.4 5-10.1 9.9-12.9 4.9-2.8 10.7-3.6 16.1-2.1 5.4 1.5 10.1 5 12.9 9.9 2.8 4.9 3.6 10.7 2.1 16.1L242 70.3l11.6 3.1 5.5-20.5c2.3-8.5 1.1-17.6-3.3-25.2-4.4-7.6-11.7-13.2-20.2-15.5-8.5-2.3-17.6-1.1-25.3 3.3-7.6 4.4-13.2 11.7-15.5 20.2l-5.5 20.5 11.7 3.1z" class="st6"/>
  <path fill="#6f4ae7" stroke="#231f20" stroke-miterlimit="10" stroke-width="1.7815" d="m261.7 72.4-78.9-21.1c-3.4-.9-6.8 1.1-7.7 4.4L159.7 113c-.9 3.3 1.1 6.8 4.4 7.7l78.9 21.1c3.4.9 6.8-1.1 7.7-4.4l15.4-57.3c1-3.3-1-6.8-4.4-7.7z"/>
  <path d="m267.7 59.9 5.9-6.8" class="st8 invert-stroke"/>
  <path d="m274.4 67.7 9.7-3.9" class="st8 invert-stroke"/>
  <path d="m275.9 79.8 9.8 1.9" class="st8 invert-stroke"/>
  <path d="m274.1 91.5 6.5 6.1" class="st8 invert-stroke"/>
  <path d="M224.2 93.9c-.4 1.7-1.3 3.2-2.5 4.4-1.2 1.2-2.7 2.2-4.3 2.7l-1.9 7c-.4 1.4-1.3 2.6-2.5 3.3-1.2.7-2.7.9-4.1.5-1.4-.4-2.6-1.3-3.3-2.5-.7-1.2-.9-2.7-.5-4.1l1.9-7c-1.2-1.3-2.1-2.9-2.5-4.6-.4-1.7-.3-3.5.2-5.2.5-1.7 1.4-3.2 2.7-4.4 1.3-1.2 2.9-2.1 4.6-2.5 1.7-.4 3.5-.4 5.2.1 1.7.5 3.3 1.4 4.5 2.7 1.2 1.3 2.1 2.8 2.6 4.5.4 1.6.4 3.4-.1 5.1z" class="st6"/>
</svg>
