<svg xmlns="http://www.w3.org/2000/svg" fill="none" viewBox="0 0 257 70" width="257" height="70" role="img">
  <title>Mozilla VPN + Firefox Relay</title>
  <style>
    .invert-fill { fill: #45278d; }
    .invert-stroke { stroke: #45278d; }
    .invert-fill-dark { fill: #fff; }
  </style>
  <path class="invert-fill" d="M5.36745 63.9775H7.7892v-8.8926l4.3785 8.1177 4.3979-8.1177v8.8926h2.4024V50.6676h-2.4024l-4.3979 8.1177-4.3785-8.1177H5.36745v13.3099Zm20.95325.2325c2.9061 0 5.3666-2.4023 5.3666-5.2503 0-2.848-2.4605-5.231-5.3666-5.231s-5.3666 2.383-5.3666 5.231 2.4605 5.2503 5.3666 5.2503Zm0-2.0149c-1.6661 0-3.061-1.4724-3.061-3.2354 0-1.7437 1.3949-3.2161 3.061-3.2161 1.6468 0 3.0418 1.4724 3.0418 3.2161 0 1.763-1.395 3.2354-3.0418 3.2354Zm6.6462 1.7824h8.4665v-2.073h-5.386l5.3279-6.219.0193-1.7243h-8.3114v2.073h5.1922l-5.3085 6.2191v1.7242ZM44.4093 52.45c.7362 0 1.3368-.6393 1.3368-1.3562 0-.7168-.6006-1.3368-1.3368-1.3368-.7556 0-1.3562.62-1.3562 1.3368 0 .7169.6006 1.3562 1.3562 1.3562Zm-1.2012 11.5275h2.3636V53.9612h-2.3636v10.0163Zm4.6124 0h2.3636V50.4351h-2.3636v13.5424Zm4.6124 0h2.3636V50.4351h-2.3636v13.5424Zm8.9715-10.2488c-1.2593 0-2.5767.3487-3.991 1.0462l.8137 1.6468c.8524-.4262 1.763-.7556 2.7123-.7556 1.8212 0 2.4605 1.1237 2.4605 2.2861v.2713c-.9105-.3488-1.8986-.5425-2.8092-.5425-2.2474 0-4.0879 1.3562-4.0879 3.3323 0 1.9374 1.608 3.1967 3.7392 3.1967 1.1624 0 2.4217-.5037 3.1579-1.4336v1.2011h2.3055v-6.0253c0-2.538-1.6468-4.2235-4.301-4.2235Zm-.6393 8.757c-1.1237 0-1.9568-.6006-1.9568-1.5499s.9493-1.608 2.1311-1.608c.8912 0 1.7243.1356 2.4605.3875v1.1237c-.2712 1.0655-1.4918 1.6467-2.6348 1.6467Zm22.4695-11.8181L79.011 60.7615l-4.2235-10.0939h-2.6736l5.5603 13.3099h2.693l5.5603-13.3099h-2.6929Zm4.0911 13.3099h2.4217v-4.4754h3.3711c2.848 0 4.9791-1.8211 4.9791-4.4172 0-2.5961-2.1311-4.4173-4.9791-4.4173h-5.7928v13.3099Zm2.4217-6.7034v-4.3785h3.0998c1.6468 0 2.7899.8331 2.7899 2.1893 0 1.3562-1.1431 2.1892-2.7899 2.1892h-3.0998Zm10.0654 6.7034h2.4222v-9.3576l7.032 9.3576h2.403V50.6676h-2.403v9.3576l-7.032-9.3576h-2.4222v13.3099Zm28.5792-7.4783h-3.545v-3.6036h-2.112v3.6036h-3.546v2.0149h3.546v3.5842h2.112v-3.5842h3.545v-2.0149Zm17.346-3.623v-2.2086h-10.017v13.3099h2.422V58.456h6.878v-2.2087h-6.878v-3.3711h7.595Zm2.871-.4262c.736 0 1.337-.6393 1.337-1.3562 0-.7168-.601-1.3368-1.337-1.3368-.755 0-1.356.62-1.356 1.3368 0 .7169.601 1.3562 1.356 1.3562Zm-1.201 11.5275h2.364V53.9612h-2.364v10.0163Zm7.034-8.0789v-1.9374h-2.363v10.0163h2.363v-5.0566c0-1.8986 1.434-3.1773 3.584-3.1773v-2.0149c-1.646 0-2.945.8331-3.584 2.1699Zm9.641 6.219c-1.434 0-2.48-.9687-2.77-2.3442h7.556c0-3.7004-1.802-6.0447-4.902-6.0447-2.848 0-5.095 2.2086-5.095 5.2116 0 3.0805 2.363 5.2697 5.231 5.2697 1.453 0 3.196-.6199 4.068-1.5499l-1.492-1.5499c-.562.5812-1.666 1.0074-2.596 1.0074Zm-.019-6.2965c1.414 0 2.267.8912 2.538 2.1505h-5.27c.349-1.3174 1.414-2.1505 2.732-2.1505Zm9.512-2.693c0-.6781.426-1.1624.988-1.1624.407 0 .775.155.988.3681l.678-1.5112c-.562-.4843-1.375-.7943-2.131-.7943-1.666 0-2.828 1.2012-2.828 2.8867v1.0462h-1.453v1.9568h1.453v8.0595h2.305V55.918h2.267v-1.9568h-2.267v-.8331Zm8.628 11.0819c2.906 0 5.367-2.4023 5.367-5.2503 0-2.848-2.461-5.231-5.367-5.231s-5.366 2.383-5.366 5.231 2.46 5.2503 5.366 5.2503Zm0-2.0149c-1.666 0-3.061-1.4724-3.061-3.2354 0-1.7437 1.395-3.2161 3.061-3.2161 1.647 0 3.042 1.4724 3.042 3.2161 0 1.763-1.395 3.2354-3.042 3.2354Zm16.237 1.7824-3.759-5.1341 3.584-4.8822h-2.576l-2.287 3.1192-2.286-3.1192h-2.596l3.584 4.9016-3.758 5.1147h2.577l2.46-3.3517 2.441 3.3517h2.616Zm17.402 0-3.333-4.7272c1.919-.6006 3.217-2.1505 3.217-4.1654 0-2.5961-2.132-4.4173-4.98-4.4173h-5.792v13.3099h2.421v-4.4754h2.577l3.139 4.4754h2.751Zm-8.467-11.0819h3.1c1.647 0 2.79.8331 2.79 2.1893 0 1.3562-1.143 2.1892-2.79 2.1892h-3.1v-4.3785Zm14.767 9.222c-1.434 0-2.48-.9687-2.771-2.3442h7.556c0-3.7004-1.802-6.0447-4.901-6.0447-2.848 0-5.096 2.2086-5.096 5.2116 0 3.0805 2.364 5.2697 5.231 5.2697 1.453 0 3.197-.6199 4.069-1.5499l-1.492-1.5499c-.562.5812-1.666 1.0074-2.596 1.0074Zm-.02-6.2965c1.415 0 2.267.8912 2.538 2.1505h-5.269c.348-1.3174 1.414-2.1505 2.731-2.1505Zm6.49 8.1564h2.364V50.4351h-2.364v13.5424Zm8.972-10.2488c-1.259 0-2.577.3487-3.991 1.0462l.814 1.6468c.852-.4262 1.763-.7556 2.712-.7556 1.821 0 2.461 1.1237 2.461 2.2861v.2713c-.911-.3488-1.899-.5425-2.81-.5425-2.247 0-4.088 1.3562-4.088 3.3323 0 1.9374 1.608 3.1967 3.74 3.1967 1.162 0 2.421-.5037 3.158-1.4336v1.2011h2.305v-6.0253c0-2.538-1.647-4.2235-4.301-4.2235Zm-.639 8.757c-1.124 0-1.957-.6006-1.957-1.5499s.949-1.608 2.131-1.608c.891 0 1.724.1356 2.461.3875v1.1237c-.272 1.0655-1.492 1.6467-2.635 1.6467Zm9.17 4.9792c1.511-.0194 2.674-.8912 3.429-2.7899l4.243-10.7138h-2.441l-2.751 7.4783-2.925-7.4783h-2.5l4.243 10.0938-.426.8912c-.291.4844-.717.6588-1.279.6588-.368 0-.852-.1357-1.278-.3682l-.504 1.705c.6.3293 1.434.5231 2.189.5231Z"/>
  <path class="invert-fill" fill-rule="evenodd" d="M94.7907 4.08533c-.6432 0-1.2602.25554-1.7151.71042-.4548.45487-.7104 1.07182-.7104 1.71511 0 .64329.2556 1.26023.7104 1.71511.4549.45487 1.0719.71042 1.7151.71042.6433 0 1.2603-.25555 1.7152-.71042.4548-.45488.7104-1.07182.7104-1.71511 0-.64329-.2556-1.26024-.7104-1.71511-.4549-.45488-1.0719-.71042-1.7152-.71042Zm-5.6595 2.42553c.0002-1.23907.4071-2.44382 1.1582-3.42931.7511-.9855 1.8048-1.69728 2.9995-2.02609 1.1946-.328817 2.4641-.256492 3.6137.20587 1.1496.46236 2.1157 1.28921 2.75 2.35363.6344 1.06441.9014 2.30757.7614 3.53866-.141 1.23109-.6812 2.38207-1.5389 3.27628-.8578.8942-1.9852 1.4822-3.2094 1.6737-1.2242.1916-2.4774-.0239-3.5673-.6133l-2.4356 2.4356c.1849.3386.3345.6984.4467 1.0743h9.3625c.3341-1.1202 1.007-2.1095 1.926-2.8319.919-.7225 2.039-1.1426 3.206-1.2027 1.168-.0602 2.325.2427 3.314.8668.988.6242 1.759 1.5392 2.206 2.6191.448 1.08.55 2.272.292 3.4123-.257 1.1402-.861 2.1728-1.729 2.9559-.868.7831-1.957 1.2782-3.118 1.4173-1.161.1391-2.336-.0846-3.364-.6404l-2.4359 2.4357c.6469 1.1958.8409 2.5845.5479 3.9119-.293 1.3274-1.0543 2.505-2.1443 3.3174-1.09.8124-2.4359 1.2053-3.7918 1.1069-1.3559-.0984-2.631-.6815-3.5923-1.6428-.9612-.9612-1.5444-2.2364-1.6428-3.5922-.0984-1.3559.2945-2.7019 1.1069-3.7919.8124-1.0899 1.99-1.8511 3.3175-2.1442 1.3274-.2932 2.716-.0987 3.9119.5478l2.4356-2.4356c-.1854-.3421-.3347-.7024-.4457-1.0753h-9.3625c-.3341 1.1202-1.0069 2.1095-1.9258 2.8319-.919.7224-2.0392 1.1426-3.2066 1.2027-1.1674.0601-2.3248-.2427-3.3132-.8669s-1.7592-1.5391-2.2066-2.6191c-.4474-1.0799-.5494-2.2719-.292-3.4122.2573-1.1403.8615-2.1729 1.7294-2.9559.8679-.7831 1.957-1.2782 3.1177-1.4173s2.3359.0846 3.3643.6403l2.4346-2.43359c-.4479-.82695-.6817-1.75287-.6801-2.69335Zm3.234 20.21274c0-.6433.2556-1.2602.7104-1.7151.4549-.4549 1.0719-.7104 1.7151-.7104.6433 0 1.2603.2555 1.7152.7104.4548.4549.7104 1.0718.7104 1.7151s-.2556 1.2602-.7104 1.7151c-.4549.4549-1.0719.7104-1.7152.7104-.6432 0-1.2602-.2555-1.7151-.7104-.4548-.4549-.7104-1.0718-.7104-1.7151Zm-7.6808-12.5319c-.3186 0-.634.0627-.9282.1846-.2943.1219-.5617.3006-.7869.5258-.2253.2253-.4039.4926-.5258.7869-.1219.2943-.1847.6097-.1847.9282 0 .3186.0628.634.1847.9282.1219.2943.3005.5617.5258.7869.2252.2253.4926.4039.7869.5258.2942.1219.6096.1847.9282.1847.6433 0 1.2602-.2556 1.7151-.7105.4549-.4548.7104-1.0718.7104-1.7151s-.2555-1.2602-.7104-1.7151c-.4549-.4548-1.0718-.7104-1.7151-.7104Zm17.7876 2.4255c0-.6433.255-1.2602.71-1.7151.455-.4548 1.072-.7104 1.715-.7104s1.26.2556 1.715.7104c.455.4549.711 1.0718.711 1.7151s-.256 1.2603-.711 1.7151c-.455.4549-1.072.7105-1.715.7105s-1.26-.2556-1.715-.7105c-.455-.4548-.71-1.0718-.71-1.7151Z" clip-rule="evenodd"/>
  <path class="invert-fill" d="m162.478 8.15332-10.751-6.13093c-.378-.20759-.801-.31634-1.23-.31634-.43 0-.853.10875-1.231.31634l-10.788 6.13093c-.39.2222-.714.54496-.94.93538-.226.39041-.346.83452-.347 1.2871v12.2235c-.004.4535.114.8996.34 1.2908.227.3913.554.7132.947.9317l10.751 6.0926c.377.2295.809.3489 1.249.3448.439-.0011.87-.1201 1.249-.3448l10.751-6.0926c.39-.2222.714-.545.94-.9354.226-.3904.346-.8346.347-1.2871V10.3758c.011-.45503-.103-.90414-.331-1.29679-.227-.39265-.558-.71324-.956-.92569Z"/>
  <path class="invert-fill-dark" d="m142.983 19.6873-.644.3832c-.115.0646-.216.1517-.298.2564-.081.1046-.141.2246-.176.353-.036.1284-.045.2626-.029.3948.017.1322.059.2598.125.3752.084.1601.21.2942.363.3885.153.0944.328.1455.508.148.17-.0015.338-.0407.492-.115l.643-.3831c.115-.0646.217-.1518.298-.2564.082-.1046.142-.2247.177-.3531.035-.1284.045-.2626.028-.3948-.016-.1322-.059-.2597-.124-.3752-.059-.1217-.141-.23-.243-.3179-.102-.088-.22-.1538-.348-.1933-.128-.0396-.262-.052-.395-.0366-.133.0154-.261.0584-.377.1263Zm3.937-2.2608-1.325.7664c-.115.0646-.216.1517-.298.2564-.082.1046-.142.2246-.177.353s-.045.2626-.028.3948c.016.1322.059.2598.124.3753.085.16.21.2941.363.3885.154.0943.329.1454.508.1479.17-.0015.338-.0407.492-.1149l1.325-.7664c.115-.0646.217-.1518.298-.2564.082-.1046.142-.2246.177-.353s.045-.2627.028-.3949c-.016-.1322-.059-.2597-.124-.3752-.059-.1217-.141-.2299-.243-.3179-.102-.088-.22-.1538-.348-.1933-.128-.0396-.262-.052-.395-.0366-.133.0155-.261.0585-.377.1263Zm4.808-10.03936c.002-.55282-.461-1.03671-1.023-1.03459-.548.00179-1.003.48436-.984 1.03459V25.55c0 .5582.46 1.0346 1.022 1.0346s1.022-.4764 1.022-1.0346c0-6.4696-.037-11.7289-.037-18.16286Zm3.108 5.51786-1.325.7663c-.116.0646-.217.1518-.298.2564-.082.1046-.142.2247-.177.3531-.036.1284-.045.2626-.029.3948.017.1322.059.2597.125.3752.085.16.21.2942.363.3885s.328.1454.508.148c.17-.0015.338-.0408.492-.115l1.325-.7664c.115-.0646.216-.1517.298-.2563.081-.1047.141-.2247.177-.3531.035-.1284.045-.2626.028-.3948-.017-.1322-.059-.2598-.125-.3752-.058-.1218-.141-.23-.242-.318-.102-.0879-.22-.1537-.348-.1933-.128-.0395-.263-.052-.396-.0365-.132.0154-.261.0584-.376.1263Zm3.138.3832c.17-.0015.338-.0407.492-.115l.643-.3832c.115-.065.217-.1525.298-.2572.082-.1048.142-.2248.178-.3532.035-.1284.045-.2627.029-.3951-.015-.1323-.057-.2603-.122-.3764-.065-.1161-.151-.218-.255-.3001-.104-.082-.223-.1424-.35-.1778-.127-.0354-.26-.045-.391-.0283-.13.0166-.256.0593-.371.1255l-.643.3832c-.116.0646-.217.1517-.298.2563-.082.1047-.142.2247-.177.3531-.035.1284-.045.2626-.029.3948.017.1322.059.2598.125.3752.087.1553.214.2838.367.3716.153.0877.328.1315.504.1266Zm1.135 6.7823-.643-.3832c-.231-.1306-.503-.1633-.758-.091-.255.0722-.471.2436-.601.4766s-.163.5087-.093.7667c.07.2581.238.4775.468.6103l.643.3832c.154.0743.322.1135.492.115.18-.0025.355-.0536.508-.148.153-.0943.278-.2285.363-.3885.068-.1118.112-.2366.129-.3665.018-.13.009-.2622-.027-.3883s-.097-.2433-.179-.3442c-.083-.101-.186-.1834-.302-.2421Zm-3.293-1.8776-1.325-.7664c-.114-.0662-.241-.1088-.371-.1255-.131-.0167-.264-.007-.391.0283-.127.0354-.246.0959-.349.1779-.104.082-.191.184-.256.3001-.065.1161-.106.244-.122.3764-.016.1324-.006.2666.03.395.035.1285.096.2485.177.3532.082.1048.183.1922.298.2573l1.325.7663c.154.0743.322.1135.492.115.179-.0025.354-.0536.508-.148.153-.0943.278-.2285.363-.3885.068-.1114.113-.2363.132-.3665.018-.1302.009-.2629-.027-.3893-.036-.1264-.097-.2439-.181-.3447-.083-.1008-.186-.1828-.303-.2406Zm-10.221-3.5253 1.325.7664c.154.0742.322.1135.492.1149.179-.0025.355-.0536.508-.1479.153-.0944.278-.2285.363-.3885.065-.1155.108-.243.124-.3752.017-.1322.007-.2665-.028-.3949-.035-.1284-.095-.2484-.177-.353-.081-.1046-.183-.1918-.298-.2564l-1.325-.7663c-.114-.0666-.24-.1095-.37-.1262-.131-.0168-.264-.007-.391.0286-.126.0357-.245.0966-.348.1791-.104.0825-.19.1851-.254.3016-.126.2408-.158.5214-.088.7848.071.2633.238.4897.467.633Zm-1.628-3.257-.643-.3832c-.115-.0662-.241-.1089-.372-.1255-.13-.0167-.263-.0071-.39.0283s-.246.0958-.35.1778c-.104.0821-.191.184-.255.3001-.065.1161-.107.2441-.123.3764-.015.1324-.005.2667.03.3951.036.1284.096.2484.178.3532.081.1047.182.1922.297.2572l.644.3832c.154.0743.322.1135.492.115.179-.0026.355-.0537.508-.148.153-.0943.278-.2285.363-.3885.064-.1127.105-.2373.121-.3665.016-.1292.006-.2602-.029-.3854-.036-.1252-.096-.2418-.176-.3431-.081-.1012-.181-.1849-.295-.2461Z"/>
  <path class="invert-stroke" stroke-width="1.17105" d="M123.844 3e-8V32.7609"/>
</svg>
