<svg xmlns="http://www.w3.org/2000/svg" xml:space="preserve" x="0" y="0" version="1.1" viewBox="0 0 490 331">
  <style>
    .st1{fill:#fff}.st2{fill:#c2c6ff}.st4{fill:#6f4ae7}.st8{fill:#977657}.invert-dark{fill:#000}
  </style>
  <path class="darken-dark" fill="#c3c5fd" d="M466 160.4c-1-1.6-2.5-2.8-4.2-3.6s-3.6-1-5.5-.7c-1.8.3-3.4 1.1-4.8 2.3-1.1-3.5-3.2-6.6-6-9-2.9-2.4-6.5-3.9-10.2-4.4-3.8-.4-7.6.3-10.9 2s-6.1 4.3-8 7.6h.1v.2l-.2-.1s0-.1.1-.1h-.4c-3.2 0-6.2 1.1-8.6 3.1s-4 4.8-4.6 7.9v.2h64.9v-.2c-.1-1.7-.6-3.6-1.7-5.2z"/>
  <path class="invert-dark" d="M202.5 34.3c-5.4 4.4-9.2 8.8-10.5 12.3l-1.3-.5c1.4-3.9 5.5-8.5 10.9-12.9 5.4-4.5 12.3-8.8 19.3-12s14.1-5.4 20.2-5.4 11.1 2.2 13.5 7.7c2.8 6.4.2 13.2-3.9 19.2-3.1 4.5-7 8.8-10.3 12.3-1.1 1.1-2.1 2.2-2.9 3.2-.5.6-1.1 1.2-1.8 2-2.7 2.9-6.4 6.9-9.3 11.2-1.8 2.7-3.2 5.4-3.8 7.9s-.3 4.7 1.1 6.5c1.9 2.4 5.3 3.3 8.5 3s6.2-1.6 9.3-3.1c2.4-1.1 4.9-2.5 7.4-3.9.3-.2.6-.3.9-.5 2.8-1.6 5.8-3.1 8.8-4.4 6-2.6 12.3-4 18.9-1.7l-.5 1.3c-6.1-2.1-12.1-.9-17.9 1.6-2.9 1.3-5.8 2.8-8.6 4.4-.3.2-.6.3-.9.5-2.5 1.4-5 2.8-7.5 3.9-3 1.4-6.3 2.9-9.8 3.2-3.5.3-7.4-.7-9.7-3.5-1.8-2.2-2.1-4.9-1.4-7.7.6-2.7 2.2-5.6 4-8.4 2.9-4.4 6.8-8.5 9.5-11.4.7-.7 1.3-1.4 1.8-1.9.9-1 1.9-2.1 3-3.3 3.3-3.5 7.1-7.6 10.1-12 4-5.9 6.3-12.1 3.8-17.8-2.1-4.8-6.5-6.8-12.2-6.8s-12.7 2.1-19.6 5.3c-7 3-13.7 7.3-19.1 11.7z"/>
  <path class="invert-dark" d="M155.9 42.9c-8.7.9-15.3 6.9-18.6 13.2-1.7 3.2-2.8 6.5-3.8 9.9-.1.2-.1.5-.2.7-1 3.2-2 6.4-3.5 9.5-3.2 6.7-9.3 13.3-18.5 15-12.6 2.3-21.8-3.5-30.8-9.6-.5-.4-1-.7-1.5-1.1-8.5-5.8-16.8-11.5-27.7-11.3-5 .1-9.9 1.6-13.8 4-4 2.4-7 5.7-8.3 9.2l-1.3-.5c1.5-3.9 4.7-7.4 8.9-9.9s9.3-4.1 14.5-4.2c11.4-.3 20.1 5.7 28.5 11.5.5.4 1.1.7 1.6 1.1 9 6.1 17.8 11.6 29.7 9.4 8.6-1.6 14.4-7.8 17.5-14.2 1.4-3 2.4-6.1 3.4-9.3.1-.2.1-.5.2-.7 1.1-3.4 2.2-6.8 3.9-10.1 3.5-6.6 10.4-13 19.7-13.9l.1 1.3z"/>
  <path class="empty-dark" fill="#fff" d="M347.7 202.9c46.4 0 84-37.6 84-83.9s-37.6-83.9-84-83.9-84 37.6-84 83.9 37.6 83.9 84 83.9z"/>
  <path class="invert-dark" d="M347.7 35.8c-46 0-83.3 37.2-83.3 83.2 0 45.9 37.3 83.2 83.3 83.2S431 165 431 119c-.1-45.9-37.3-83.2-83.3-83.2zM263 119c0-46.7 37.9-84.6 84.7-84.6s84.7 37.9 84.7 84.6-37.9 84.6-84.7 84.6S263 165.7 263 119z"/>
  <path d="M347.7 46.2c-40.3 0-72.9 32.6-72.9 72.8s32.6 72.8 72.9 72.8 72.9-32.6 72.9-72.8-32.7-72.8-72.9-72.8z" class="st2"/>
  <path class="invert-dark" d="M325.9 38.6c-19.7 18.9-32.3 47.9-32.3 80.4s12.6 61.5 32.3 80.4l-1 1c-20-19.2-32.8-48.6-32.8-81.4 0-32.9 12.8-62.2 32.8-81.4l1 1z"/>
  <path class="invert-dark" d="M401.8 119c0-32.5-12.6-61.5-32.3-80.4l1-1c20 19.2 32.8 48.6 32.8 81.4 0 32.9-12.8 62.2-32.8 81.4l-1-1c19.7-18.9 32.3-47.9 32.3-80.4z"/>
  <path class="invert-dark" d="M431.6 119.7H263.7v-1.4h167.9v1.4z"/>
  <path class="invert-dark" d="M347 202.9V35.1h1.4v167.8H347z"/>
  <path fill="#ad79ff" d="M401.9 60.7c5.2 0 9.4-4.2 9.4-9.4s-4.2-9.4-9.4-9.4-9.4 4.2-9.4 9.4 4.2 9.4 9.4 9.4z"/>
  <path d="M401.9 42.6c-4.8 0-8.7 3.9-8.7 8.7s3.9 8.7 8.7 8.7c4.8 0 8.7-3.9 8.7-8.7-.1-4.8-3.9-8.7-8.7-8.7zm-10.1 8.7c0-5.6 4.5-10.1 10.1-10.1S412 45.7 412 51.3s-4.5 10.1-10.1 10.1-10.1-4.5-10.1-10.1z"/>
  <path d="M401.9 128.4c5.2 0 9.4-4.2 9.4-9.4s-4.2-9.4-9.4-9.4-9.4 4.2-9.4 9.4 4.2 9.4 9.4 9.4z" class="st4"/>
  <path d="M401.9 110.3c-4.8 0-8.7 3.9-8.7 8.7 0 4.8 3.9 8.7 8.7 8.7 4.8 0 8.7-3.9 8.7-8.7-.1-4.8-3.9-8.7-8.7-8.7zm-10.1 8.7c0-5.6 4.5-10.1 10.1-10.1S412 113.4 412 119s-4.5 10.1-10.1 10.1-10.1-4.5-10.1-10.1z"/>
  <path d="M330.9 51.3c.1 4.4-1.2 8.8-3.6 12.5l-.2.3-15.6 23.2c-.3.4-.7.8-1.1 1-.5.2-1 .4-1.5.4s-1-.1-1.5-.4c-.5-.2-.8-.6-1.1-1L290.8 64l-.2-.3c-1.9-2.8-3.1-6.1-3.5-9.4s0-6.8 1.1-10 3-6.1 5.5-8.4c2.5-2.4 5.4-4.1 8.7-5.1 3.2-1 6.7-1.2 10-.7 3.4.5 6.5 1.9 9.3 3.8s5 4.6 6.6 7.6c1.7 3 2.5 6.4 2.6 9.8z" class="st4"/>
  <path d="M312.4 30.8c-3.2-.5-6.6-.3-9.7.7s-6 2.7-8.4 4.9c-2.4 2.3-4.2 5.1-5.3 8.2-1.1 3.1-1.5 6.4-1.1 9.7s1.5 6.4 3.3 9.1l.2.3L307 86.8c.2.3.5.6.9.8.3.2.7.3 1.1.3s.8-.1 1.1-.3.6-.5.9-.8l15.7-23.5c2.3-3.5 3.6-7.7 3.5-11.9v-.2c-.1-3.3-.9-6.5-2.4-9.4-1.5-2.9-3.7-5.4-6.4-7.3-2.7-1.9-5.8-3.2-9-3.7zm-10.1-.7c3.4-1 6.9-1.3 10.4-.7 3.5.6 6.7 1.9 9.6 4 2.8 2 5.2 4.7 6.8 7.8 1.6 3.1 2.5 6.4 2.6 9.9v.2c.1 4.6-1.2 9.1-3.7 12.9l-15.7 23.5c-.3.5-.8.9-1.4 1.2-.6.3-1.2.5-1.8.5-.6 0-1.2-.2-1.8-.5-.6-.3-1-.7-1.4-1.2l-15.6-23.2-.2-.3c-1.9-2.9-3.2-6.3-3.6-9.7-.4-3.5 0-7 1.2-10.3s3.1-6.3 5.6-8.7c2.6-2.5 5.6-4.3 9-5.4z"/>
  <path d="M317 53.8c1.1-4.4-1.5-8.9-6-10.1-4.4-1.1-9 1.5-10.1 6-1.1 4.4 1.5 8.9 6 10.1 4.5 1.1 9-1.6 10.1-6z" class="st1"/>
  <path d="M301.6 49.8c-1 4.1 1.4 8.2 5.5 9.2s8.2-1.4 9.2-5.5-1.4-8.2-5.5-9.2c-4-1-8.1 1.5-9.2 5.5zm5.2 10.6c-4.8-1.2-7.7-6.1-6.5-10.9s6.1-7.7 11-6.5 7.7 6.1 6.5 10.9-6.2 7.7-11 6.5z"/>
  <path d="M135.4 229.4c-1.7-2.6-4.1-4.7-7-5.9-2.9-1.3-6-1.6-9.1-1.1-3 .5-5.8 1.8-8 3.8-1.8-5.9-5.3-11.2-10.1-15.1-4.8-4-10.7-6.5-17-7.2-6.2-.7-12.6.5-18.1 3.3-5.6 2.8-10.2 7.3-13.2 12.7h-.7c-5.2 0-10.3 1.8-14.3 5.2s-6.7 8-7.6 13.2v.1l.1.1h107.5c.1 0 .2-.1.2-.1-.1-3.4-1-6.4-2.7-9z" class="st2"/>
  <path class="invert-dark" d="M106.2 237.5c-1.8-2.7-4.3-4.8-7.2-6.1-3-1.3-6.2-1.7-9.4-1.2-2.8.5-5.5 1.7-7.7 3.5-1.9-5.7-5.4-10.8-10-14.6-4.9-4.1-10.9-6.7-17.2-7.4s-12.8.5-18.4 3.4c-5.6 2.8-10.2 7.2-13.3 12.6h-.4c-5.4 0-10.5 1.9-14.6 5.3s-6.9 8.2-7.8 13.5c0 .2 0 .4.2.6.1.2.3.3.5.3h107.4c.3 0 .6-.1.7-.3.1-.1.1-.3.1-.5-.2-3.4-1.1-6.5-2.9-9.1zM1.6 245.8c1-4.6 3.5-8.8 7.2-11.8 3.9-3.2 8.7-5 13.7-5h.8c.3 0 .5-.1.6-.4 3-5.3 7.5-9.6 12.9-12.4 5.4-2.8 11.6-3.9 17.6-3.2 6.1.7 11.8 3.1 16.5 7s8.1 9.1 9.9 15c.1.2.3.4.5.5s.5 0 .7-.2c2.2-2 4.9-3.3 7.8-3.8s5.9-.1 8.6 1.1c2.7 1.2 5 3.1 6.6 5.6 1.5 2.3 2.3 4.9 2.5 7.6H1.6z"/>
  <path fill="#c3c5fb" d="M96.2 151c8.8 0 16-7.1 16-15.9s-7.1-15.9-16-15.9c-8.8 0-16 7.1-16 15.9s7.1 15.9 16 15.9z"/>
  <path fill="#c2c6fb" d="M96.2 119.3c-8.7 0-15.8 7.1-15.8 15.8s7.1 15.8 15.8 15.8 15.8-7.1 15.8-15.8-7.1-15.8-15.8-15.8zm-16.1 15.8c0-8.9 7.2-16.1 16.1-16.1s16.1 7.2 16.1 16.1-7.2 16.1-16.1 16.1c-8.9 0-16.1-7.2-16.1-16.1z"/>
  <path d="m102.5 132.4-5.6-5.6c-.4-.4-1.2-.4-1.6 0l-5.6 5.6c-.4.4-.4 1.2 0 1.6.2.2.5.3.8.3s.6-.1.8-.3l3.7-3.7v12c0 .6.5 1.1 1.1 1.1s1.1-.5 1.1-1.1v-12l3.7 3.7c.2.2.5.3.8.3s.6-.1.8-.3c.5-.4.5-1.1 0-1.6z"/>
  <path class="invert-dark" d="M58.1 179.1c0-.2-.1-.5-.3-.7s-.4-.3-.7-.3h-1.7v-1.8c0-.2-.1-.5-.3-.6-.2-.2-.4-.3-.6-.3-.2 0-.5.1-.6.3-.2.2-.3.4-.3.6v1.8h-1.8c-.2 0-.5.1-.6.3-.2.2-.3.4-.3.6s.1.5.3.6c.2.2.4.3.6.3h1.8v1.8c0 .3.1.5.3.7s.4.3.7.3c.1 0 .3 0 .4-.1.1 0 .2-.1.3-.2.1-.1.2-.2.2-.3s.1-.2.1-.4V180h1.7c.3 0 .5-.1.7-.3 0-.1.1-.3.1-.6z"/>
  <path class="invert-dark" d="M425.2 300.3c0-.2-.1-.5-.3-.7-.2-.2-.4-.3-.7-.3h-1.7v-1.8c0-.2-.1-.5-.3-.6-.2-.2-.4-.3-.6-.3s-.5.1-.6.3c-.2.2-.3.4-.3.6v1.8h-1.8c-.2 0-.5.1-.6.3-.2.2-.3.4-.3.6s.1.5.3.6c.2.2.4.3.6.3h1.8v1.8c0 .3.1.5.3.7.2.2.4.3.7.3.1 0 .3 0 .4-.1.1 0 .2-.1.3-.2.1-.1.2-.2.2-.3 0-.1.1-.2.1-.4v-1.7h1.7c.3 0 .5-.1.7-.3 0-.1.1-.3.1-.6z"/>
  <path class="invert-dark" d="M275 1.4c-1 0-1.9.8-1.9 1.9 0 1 .8 1.9 1.9 1.9 1 0 1.9-.8 1.9-1.9-.1-1.1-.9-1.9-1.9-1.9zm-3.3 1.9c0-1.8 1.5-3.3 3.3-3.3s3.3 1.5 3.3 3.3-1.5 3.3-3.3 3.3-3.3-1.5-3.3-3.3z"/>
  <path d="M473.5 211.2h-81.9c-.8 0-1.5.7-1.5 1.5V275c0 .8.7 1.5 1.5 1.5h81.9c.8 0 1.5-.7 1.5-1.5v-62.4c0-.8-.7-1.4-1.5-1.4z" class="st1"/>
  <path d="M473.5 210.5h-81.9c-1.2 0-2.2 1-2.2 2.2V275c0 1.2 1 2.2 2.2 2.2h81.9c1.2 0 2.2-1 2.2-2.2v-62.4c0-1.1-1-2.1-2.2-2.1zm-81.9 1.4h81.9c.4 0 .8.3.8.8v6.6h-83.5v-6.6c0-.5.3-.8.8-.8zm81.9 63.9h-81.9c-.4 0-.8-.3-.8-.8v-54.3h83.5V275c0 .5-.4.8-.8.8z"/>
  <path d="M394 215.8c0-.4.3-.7.7-.7h3.2c.4 0 .7.3.7.7s-.3.7-.7.7h-3.2c-.4 0-.7-.3-.7-.7z"/>
  <path d="M401.2 215.8c0-.4.3-.7.7-.7h3.2c.4 0 .7.3.7.7s-.3.7-.7.7h-3.2c-.4 0-.7-.3-.7-.7z"/>
  <path d="M408.4 215.8c0-.4.3-.7.7-.7h3.2c.4 0 .7.3.7.7s-.3.7-.7.7h-3.2c-.4 0-.7-.3-.7-.7z"/>
  <path fill="#a67efa" d="M441.7 244.8h-18.4c-1.5 0-2.8 1.2-2.8 2.8v12.8c0 1.5 1.2 2.8 2.8 2.8h18.4c1.5 0 2.8-1.2 2.8-2.8v-12.8c0-1.6-1.2-2.8-2.8-2.8z"/>
  <path d="M423.3 245.5c-1.2 0-2.1.9-2.1 2.1v12.8c0 1.1.9 2.1 2.1 2.1h18.4c1.2 0 2.1-.9 2.1-2.1v-12.8c0-1.1-.9-2.1-2.1-2.1h-18.4zm-3.5 2.1c0-1.9 1.6-3.5 3.5-3.5h18.4c1.9 0 3.5 1.6 3.5 3.5v12.8c0 1.9-1.6 3.5-3.5 3.5h-18.4c-1.9 0-3.5-1.6-3.5-3.5v-12.8z"/>
  <path d="M432.5 232c-2.1 0-4.2.8-5.7 2.3s-2.3 3.5-2.3 5.7v4.8h-1.4V240c0-2.5 1-4.9 2.8-6.7s4.2-2.8 6.7-2.8 4.9 1 6.7 2.8 2.8 4.2 2.8 6.7v4.8h-1.4V240c0-2.1-.8-4.2-2.3-5.7-1.7-1.5-3.7-2.3-5.9-2.3z"/>
  <path d="M435.9 252.4c0-1.9-1.5-3.4-3.4-3.4s-3.4 1.5-3.4 3.4c0 1.6 1.1 3 2.7 3.3v3.6c0 .4.3.7.7.7.4 0 .7-.3.7-.7v-3.6c1.6-.4 2.7-1.7 2.7-3.3zm-3.4 1.9c-1.1 0-2-.9-2-2s.9-2 2-2 2 .9 2 2-.9 2-2 2z"/>
  <g>
    <path d="m471.7 292.8-11-27.8 27.8 11-8.1 3.9 8.9 8.9-5.1 4.3-9.1-9.4-3.4 9.1z" class="st1"/>
    <path d="M460.2 264.5c.2-.2.5-.3.8-.2l27.8 11c.3.1.4.4.4.6 0 .3-.1.5-.4.7l-7.3 3.5 8.2 8.2c.1.1.2.3.2.5s-.1.4-.2.5l-5.1 4.3c-.3.2-.7.2-1 0l-8.3-8.6-3 7.9c-.1.3-.4.5-.7.5-.3 0-.6-.2-.7-.4l-11-27.8c0-.2.1-.5.3-.7zm1.7 1.8 9.8 24.6 2.8-7.3c.1-.2.3-.4.5-.4s.5 0 .7.2l8.6 9 4-3.4-8.4-8.4c-.2-.2-.2-.4-.2-.6s.2-.4.4-.5l6.7-3.2-24.9-10z"/>
  </g>
  <g>
    <path d="M179.9 166.7c-3.6-1.4-12.2-5.2-15.9-6.1-2.1-.5-4.5-.5-6.3.7-5.4 3.4-1.7 10.8 1.4 14.4 5.9 6.8 16.9 13.8 24.7 18.1" class="st8"/>
    <path d="M157.3 160.7c2.1-1.3 4.6-1.3 6.8-.8 1.9.5 5.1 1.7 8.1 2.9l3.6 1.5c1.7.7 3.2 1.3 4.3 1.8l-.5 1.3c-1.1-.4-2.6-1.1-4.4-1.8-1.1-.5-2.3-1-3.5-1.5-3.1-1.2-5.8-2.4-7.9-2.8s-4.1-.3-5.7.6c-.8.4-1.9 1.7-2.2 2.8s-.3 2.3 0 3.6c.6 2.6 2.2 5.2 3.7 7 5.8 6.7 16.7 13.6 24.5 18l-.7 1.2c-7.8-4.4-18.9-11.3-24.9-18.3-1.6-1.9-3.4-4.7-4-7.6-.3-1.4-.4-2.9 0-4.3s1.3-2.6 2.8-3.6"/>
  </g>
  <g>
    <path d="M345.9 324c-.4-5.5-1.3-11.8-3.4-16.6-4.2-9.5-13-13.6-18.7-21.6-1-1.4-1.8-2.9-3-3.9-1.4-1.3-3-1.9-4.6-2.5l-15.6-6c-3.1-1.2-6.2-2.4-9.5-2.4-3.9 0-7.7 1.8-11.3 3.7-3.5 1.9-7.1 4-9.9 7.2l-47.5 9.6s12.2 15.3 38.7 16.9l9.6 9.7.3-1.1c.8 2.5 1.9 4.7 3.7 6.2 3.8 3.3 8.9 1.7 13.4.5 4.7-1.3 10-2.9 14.9-2 4.8.9 9.4 4.1 13.9 6 6.8 2.9 14.9 4.3 22.3 2.9 3.6-.9 7-2.6 6.7-6.6z" class="st8"/>
    <path d="m280.2 278.9.3 1.4-56.8 11.5c.4.4.8.9 1.5 1.4 1.5 1.4 3.8 3.4 7 5.3 6.3 4 15.8 8.2 29 9h.3l9.8 9.9-1 1-9.4-9.5c-13.3-.9-23-5.1-29.4-9.2-3.2-2-5.6-4-7.2-5.5-.8-.7-1.4-1.4-1.8-1.8-.2-.2-.3-.4-.4-.5l-.1-.1.6-.4-.6.4-.7-.9 58.9-12z"/>
  </g>
  <g>
    <path d="m293.2 269.3-27-149.6c-.5-3-2.2-5.6-4.8-7.4-2.5-1.7-5.6-2.4-8.6-1.9l-72.9 13.2c-1.5.3-2.9.8-4.2 1.6-1.3.8-2.4 1.9-3.2 3.1-.9 1.2-1.5 2.6-1.8 4.1s-.3 3-.1 4.5l27 149.6c.3 1.5.8 2.9 1.6 4.2.8 1.3 1.9 2.4 3.1 3.2 1.2.9 2.6 1.5 4.1 1.8s3 .3 4.5.1l72.9-13.2c1.5-.3 2.9-.8 4.2-1.6 1.3-.8 2.4-1.9 3.2-3.1.9-1.2 1.5-2.6 1.8-4.1.4-1.5.4-3 .2-4.5z" class="st1"/>
    <path d="M252.7 109.8c3.2-.6 6.5.1 9.1 2 2.7 1.8 4.5 4.7 5 7.8l27 149.6c.3 1.6.3 3.2-.1 4.8-.3 1.6-1 3-1.9 4.4-.9 1.3-2.1 2.4-3.4 3.3s-2.9 1.5-4.4 1.7l-72.9 13.2c-1.6.3-3.2.3-4.8-.1-1.6-.3-3-1-4.4-1.9-1.3-.9-2.4-2.1-3.3-3.4-.9-1.3-1.5-2.8-1.7-4.4l-27-149.6c-.3-1.6-.3-3.2.1-4.7.3-1.6 1-3 1.9-4.4.9-1.3 2.1-2.4 3.4-3.3 1.3-.9 2.8-1.5 4.4-1.7l73-13.3zm.2 1.4L180 124.3c-1.4.3-2.7.8-3.9 1.5-1.2.8-2.2 1.8-3 2.9-.8 1.2-1.4 2.5-1.7 3.9s-.3 2.8-.1 4.2l27 149.6c.3 1.4.8 2.7 1.5 3.9s1.8 2.2 2.9 3c1.2.8 2.5 1.4 3.9 1.7 1.4.3 2.8.3 4.2.1l72.9-13.2c1.4-.2 2.7-.8 3.9-1.5 1.2-.8 2.2-1.8 3-2.9.8-1.2 1.4-2.5 1.7-3.9.3-1.4.3-2.8.1-4.2l-27-149.6c-.5-2.8-2.1-5.3-4.5-6.9-2.3-1.6-5.2-2.2-8-1.7z"/>
    <path d="M253.5 118.2c-.8-.2-1.5-.2-2.3 0l-6.9 1.2c-.3 0-.5.2-.7.4-.2.2-.3.5-.3.7 0 2.2-.8 4.3-2.2 6-1.4 1.7-3.4 2.8-5.5 3.2l-32.6 5.9c-2.2.4-4.4 0-6.3-1.1-1.9-1.1-3.4-2.8-4.2-4.9-.1-.2-.3-.5-.5-.6s-.5-.2-.8-.1l-8.7 1.6c-.6.1-1.3.3-1.8.7-.5.3-1 .8-1.4 1.3s-.6 1.1-.8 1.8c-.1.6-.1 1.3 0 1.9l27.7 146.6c.3 1.3 1 2.5 2.1 3.3s2.5 1.1 3.8.8l60-11 .3 1.4-60 11c-1.7.3-3.5-.1-4.9-1-1.4-1-2.4-2.5-2.7-4.2l-27.7-146.6c-.2-.8-.2-1.7 0-2.5s.5-1.6 1-2.3 1.1-1.3 1.8-1.7 1.5-.7 2.3-.9l8.7-1.6c.6-.1 1.2 0 1.7.3s.9.8 1.1 1.3c.6 1.8 1.9 3.2 3.5 4.2 1.6.9 3.5 1.3 5.4.9l32.6-5.9c1.8-.3 3.5-1.3 4.7-2.7 1.2-1.4 1.9-3.2 1.9-5.1 0-.6.2-1.2.6-1.6.4-.5.9-.8 1.5-.9l6.9-1.2c.9-.2 1.9-.2 2.9 0 .9.2 1.8.6 2.6 1.1.8.6 1.5 1.3 2 2.1s.9 1.7 1 2.7l5.5 31.2-1.4.2-5.5-31.2c-.1-.8-.4-1.5-.8-2.2s-1-1.2-1.6-1.7c-.5-.4-1.2-.7-2-.8z"/>
  </g>
  <g>
    <path d="M180.6 251.2c1 .2 2 .5 3 .8 5.5 1.6 3.7 1.2 9.2 2.8 6.2 1.8 11.1 10 5.9 15.4-6.3 6.7-13.5 2.8-20.5.4-3.7-1.3-6.8-3.1-8.1-7-1.8-5.5 1.5-12.2 7.6-12.6 1-.1 1.9 0 2.9.2z" class="st8"/>
    <path d="M200.6 260.8c-1.4-3.1-4.4-5.8-7.7-6.7-2.7-.8-3.6-1.1-4.5-1.4-.9-.3-1.9-.6-4.6-1.4l-3-.8c-1-.2-2-.3-3-.2-3.3.2-5.9 2.1-7.3 4.7-1.5 2.6-1.9 5.8-.9 8.8 1.4 4.2 4.8 6.2 8.6 7.5.8.3 1.6.6 2.3.9 2.7 1 5.6 2.1 8.3 2.4 3.6.5 7.2-.3 10.6-3.8 2.6-3.1 2.6-6.9 1.2-10zm-22.2 9.1c-3.6-1.3-6.5-3-7.7-6.6-.8-2.5-.5-5.4.8-7.6 1.3-2.2 3.4-3.9 6.2-4 .9 0 1.8 0 2.7.2 1 .2 1.9.5 2.9.8 2.7.8 3.7 1.1 4.6 1.4.9.3 1.9.6 4.6 1.4 2.9.8 5.5 3.2 6.8 6s1.2 5.8-1.1 8.3c-3 3.1-6.1 3.8-9.4 3.4-2.6-.3-5.2-1.3-7.9-2.3-.8-.4-1.6-.7-2.5-1"/>
  </g>
  <g>
    <path d="M173.3 228.4c1 .2 2 .5 3 .8l16.5 4.8c6.2 1.8 11.1 10 5.9 15.4-6.3 6.7-20.8.8-27.8-1.6-3.7-1.3-6.8-3.1-8.1-7-1.8-5.5 1.5-12.2 7.6-12.6 1-.1 1.9 0 2.9.2z" class="st8"/>
    <path d="M200.6 240c-1.4-3.1-4.4-5.8-7.7-6.7l-16.5-4.8c-1-.3-2-.6-3-.8s-2-.3-3-.2c-3.3.2-5.9 2.1-7.3 4.7-1.5 2.6-1.9 5.8-.9 8.8 1.4 4.2 4.8 6.2 8.6 7.5.5.2 1 .4 1.6.6 3.4 1.2 8.1 2.9 12.7 3.7 5.3.9 10.8.8 14.2-2.8 2.7-3.1 2.8-6.9 1.3-10zm-2.4 8.9c-2.9 3-7.7 3.3-13 2.4-4.5-.8-9-2.4-12.4-3.6-.6-.2-1.1-.4-1.6-.6-3.6-1.2-6.5-3-7.7-6.6-.8-2.5-.5-5.4.8-7.6 1.3-2.2 3.4-3.9 6.2-4 .9 0 2.2.1 2.7.2s1.9.5 2.9.8l16.5 4.8c2.9.8 5.5 3.2 6.8 6 1.2 2.6 1.1 5.7-1.2 8.2z"/>
  </g>
  <g>
    <path d="M173.3 208.2c1 .2 2 .5 3 .8l16.5 4.8c6.2 1.8 11.1 10 5.9 15.4-6.3 6.7-20.8.8-27.8-1.6-3.6-1.3-6.8-3.1-8.1-7-1.8-5.5 1.5-12.2 7.6-12.6 1-.1 2 0 2.9.2z" class="st8"/>
    <path d="M200.6 219.8c-1.4-3.1-4.4-5.8-7.7-6.7l-16.5-4.8c-1-.3-2-.6-3-.8s-2-.3-3-.2c-3.3.2-5.9 2.1-7.3 4.7-1.5 2.6-1.9 5.8-.9 8.8 1.4 4.2 4.8 6.2 8.6 7.5.5.2 1 .4 1.6.6 3.4 1.2 8.1 2.9 12.7 3.7 5.3.9 10.8.8 14.2-2.8 2.7-3.1 2.8-6.8 1.3-10zm-2.4 8.9c-2.9 3-7.7 3.3-13 2.4-4.5-.8-9-2.4-12.4-3.6-.6-.2-1.1-.4-1.6-.6-3.6-1.3-6.5-3-7.7-6.6-.8-2.5-.5-5.4.8-7.6 1.3-2.2 3.4-3.9 6.2-4 .9 0 1.8 0 2.7.2 1 .2 1.9.5 2.9.8l16.5 4.8c2.9.8 5.5 3.2 6.8 6 1.2 2.7 1.1 5.7-1.2 8.2z"/>
  </g>
  <g>
    <path d="m347.3 324-2.2-8.9c-.2-2.2-25.8-64.4-28.6-72-2.8-7.6-22.6-46.8-22.6-46.8-2.9-5.8-4.4-12.2-5.4-18.5 0 0-1.7-12.6-2.3-20.3-.2-3.1-4.6-5.2-7.6-4.2-3.9 1.4-7.1 4.1-8.9 9.5-.7 2.1-.8 4.3-.5 6.5l5.2 66.2c-17.6 43.3 16.2 63.6 16.2 63.6" class="st8"/>
    <path d="m346.7 324.1-2.2-8.9c-.2-1.6-10.4-26.7-17.8-45.1-5.2-12.8-9.7-23.9-10.8-26.9-2.8-7.5-22.4-46.4-22.6-46.8-2.6-5.1-4.3-11-5.4-18.7 0-.1-1.8-12.8-2.3-20.4-.1-1.1-.7-2.1-1.9-2.8-1.5-1-3.5-1.3-4.9-.8-4.3 1.5-7 4.4-8.5 9.1-.6 2-.8 4.1-.5 6.2l5.3 66.3-.1.1c-5 12.2-8.7 30.4 1.5 47.5 6.1 10.2 14.4 15.3 14.5 15.4l-.6 1.1c-.3-.2-34-21.1-16.5-64.2l-5.2-66c-.3-2.2-.1-4.5.5-6.7 1.7-5.1 4.7-8.3 9.3-9.9 1.8-.6 4.2-.3 6 .9 1.5 1 2.3 2.3 2.4 3.8.5 7.6 2.2 20.2 2.3 20.3 1.1 7.5 2.8 13.3 5.3 18.3.8 1.6 19.8 39.3 22.6 46.9 1.1 3 5.6 14 10.7 26.8 10.4 25.7 17.8 44 17.9 45.4l2.2 8.8-1.2.3z"/>
  </g>
  <path d="M239.3 165.6c-.6-.9-1.3-1.5-2.3-1.9s-2-.6-3.1-.4c-.8.1-1.6.5-2.3 1s-1.2 1.2-1.6 2c-.2.5-.4 1.1-.4 1.6l-7.3 1.3c-.2-.4-.4-.8-.7-1.1l2.1-3.1c.9.3 1.8.4 2.7.2.7-.1 1.4-.4 1.9-.8.9-.6 1.6-1.4 2-2.3.4-.9.5-2 .4-3-.1-.7-.4-1.3-.8-1.9-.6-.9-1.4-1.5-2.3-2s-2-.5-3-.4c-.8.1-1.6.5-2.3 1s-1.2 1.2-1.6 2c-.4 1-.6 2-.4 3 .1.7.4 1.4.8 1.9.1.2.2.3.3.4l-2.2 3.1c-.8-.3-1.7-.4-2.6-.2-1.4.2-2.6 1-3.4 2.2-.8 1.1-1.1 2.5-.9 3.9.1.7.4 1.4.8 1.9.6.9 1.3 1.5 2.3 1.9s2 .6 3 .4c.8-.1 1.6-.5 2.3-1s1.2-1.2 1.6-2c.2-.5.4-1.1.4-1.6l7.3-1.3.3.6c.1.2.2.3.3.4l-2.2 3.1c-.8-.3-1.7-.4-2.6-.2-.7.1-1.3.4-1.9.7-.6.4-1.1.8-1.5 1.4-.4.6-.7 1.2-.8 1.9s-.2 1.4 0 2c.1.7.4 1.4.8 1.9.6.9 1.3 1.5 2.3 1.9 1 .5 2.2.6 3.3.3s2.1-.8 2.8-1.7 1.2-1.9 1.3-3.1c.1-1.1-.2-2.3-.8-3.2-.1-.2-.2-.4-.4-.5l2.1-3c.9.3 1.8.4 2.7.2.7-.1 1.4-.4 1.9-.8.9-.6 1.6-1.4 2-2.3.4-.9.5-2 .4-3-.1-.1-.3-.8-.7-1.4zm-16-6c.1-.5.3-.9.7-1.2.3-.3.8-.5 1.2-.6.3-.1.6-.1 1 0 .5.1.9.3 1.2.7s.5.8.6 1.2c.1.3.1.7 0 1-.1.5-.3.9-.7 1.2-.3.3-.8.6-1.3.6-.3.1-.6 0-1 0-.5-.1-.9-.3-1.2-.7-.3-.3-.6-.8-.6-1.3 0-.2 0-.6.1-.9zm-3.3 12.5c-.1.5-.3.9-.7 1.2-.3.3-.8.6-1.3.6-.3.1-.6 0-1 0-.5-.1-.9-.3-1.2-.7-.3-.3-.6-.8-.6-1.3-.1-.4 0-.8.1-1.2s.3-.7.6-1 .6-.5 1-.6.8-.1 1.2 0c.5.1.9.3 1.2.7.3.3.5.8.6 1.2.2.4.2.7.1 1.1zm9.3 8.3c-.1.5-.3.9-.7 1.2-.3.3-.8.6-1.3.6-.4.1-.8 0-1.2-.1s-.7-.3-1-.6c-.4-.4-.6-.9-.7-1.4-.1-.5 0-1 .3-1.5s.7-.8 1.1-1c.5-.2 1-.3 1.5-.1.5.1.9.3 1.2.7.3.3.5.8.6 1.2.2.3.2.7.2 1zm7.9-11.4c-.1.4-.3.8-.6 1.1s-.7.5-1.1.7c-.4.1-.9.1-1.3 0s-.8-.3-1.1-.7c-.3-.3-.5-.6-.6-1s-.1-.8 0-1.2c.1-.5.3-.9.7-1.2.3-.3.8-.6 1.3-.6.3-.1.6 0 1 0 .3.1.6.2.9.4.3.2.5.4.6.7.2.3.3.6.3.9 0 .3 0 .6-.1.9z"/>
  <g>
    <path fill="#84fcbf" d="m243.7 211.3-20.2 3.7c-1 .2-2.1.2-3.1 0s-2-.6-2.8-1.2c-.9-.6-1.6-1.3-2.1-2.2-.6-.9-.9-1.8-1.1-2.9-.2-1-.2-2.1 0-3.1s.6-2 1.2-2.8c.6-.8 1.3-1.6 2.2-2.1.9-.6 1.8-.9 2.9-1.1l20.2-3.7c2.1-.4 4.2.1 5.9 1.3s2.9 3 3.3 5.1c.4 2.1-.1 4.2-1.3 5.9-1.2 1.6-3 2.8-5.1 3.1z"/>
    <path d="m243.7 211.3-.1-.8-20.2 3.7c-1 .2-2.1.1-3-.1-1-.3-1.9-.7-2.7-1.4-1-.9-1.8-2-2.2-3.3s-.5-2.6-.1-3.9c.3-1.3 1-2.5 2-3.4s2.2-1.5 3.5-1.8l20.2-3.7c1-.2 2.1-.1 3 .1 1 .3 1.9.7 2.7 1.4 1.3 1.1 2.2 2.5 2.4 4.2.1.4.1.8.1 1.3 0 1.6-.6 3.2-1.6 4.5-1.1 1.3-2.5 2.1-4.2 2.4l.2.8.2.8c2.3-.4 4.3-1.7 5.6-3.6 1.3-1.9 1.8-4.2 1.4-6.5-.4-2.3-1.7-4.3-3.6-5.6-1.9-1.3-4.2-1.8-6.5-1.4l-20.2 3.7c-2 .4-3.8 1.4-5.1 3s-2 3.5-2 5.6c0 .5 0 1 .1 1.6.4 2 1.4 3.8 3 5.1s3.5 2 5.6 2c.5 0 1 0 1.6-.1l20.2-3.7-.3-.9z"/>
    <path d="M249.9 202.2c.3 1.5.1 3.1-.5 4.5s-1.7 2.6-3 3.5c-1.3.8-2.8 1.3-4.4 1.2s-3.1-.5-4.3-1.4c-1.3-.9-2.3-2.1-2.8-3.6-.6-1.4-.7-3-.4-4.5s1.1-2.9 2.2-4 2.5-1.8 4.1-2.1c1-.2 2.1-.2 3.1.1 1 .2 2 .6 2.8 1.2.9.6 1.6 1.3 2.1 2.2.5.9.9 1.9 1.1 2.9z" class="st1"/>
    <path d="m249.9 202.2-.8.1c.3 1.6 0 3.3-.8 4.8-.8 1.4-2.1 2.5-3.7 3.1-1.6.6-3.3.6-4.8 0-1.6-.6-2.9-1.6-3.7-3.1-.8-1.4-1.1-3.1-.9-4.7.3-1.6 1.1-3.1 2.4-4.2 1.3-1.1 2.9-1.7 4.5-1.7 1.7 0 3.3.6 4.5 1.6 1.3 1.1 2.1 2.5 2.4 4.2l.9-.1.8-.2c-.4-2.1-1.6-4-3.3-5.4-1.7-1.3-3.9-1.9-6-1.7-2.2.2-4.2 1.2-5.6 2.8-1.5 1.6-2.3 3.7-2.3 5.9 0 .5 0 1 .1 1.6.2 1.1.6 2.2 1.2 3.1.6 1 1.4 1.8 2.4 2.4.9.6 2 1.1 3.1 1.3s2.3.3 3.4.1c1.1-.2 2.2-.6 3.2-1.2s1.8-1.4 2.4-2.4c.6-.9 1.1-2 1.3-3.1s.3-2.3.1-3.4l-.8.2z"/>
  </g>
  <g>
    <path d="m190.1 29.3 4.1 22c2.4 12.4.6 25.3-4.9 36.6-5.4 11.2-14.2 20.4-25.1 26.3-.1 0-.2.1-.3.1-12.3-1.6-23.8-7-32.9-15.4-9.3-8.6-15.6-19.9-17.9-32.3l-4.1-22c0-.1 0-.2.1-.4.1-.1.2-.2.3-.2 4.2-1.2 7.8-3.8 10.2-7.4 2.5-3.6 3.6-7.9 3.3-12.2 0-.1 0-.2.1-.3.1-.1.2-.2.3-.2l46-8.6c.1 0 .2 0 .4.1s.2.2.2.3c1.3 4.1 3.9 7.7 7.5 10.2 3.6 2.4 7.9 3.6 12.2 3.2.1 0 .2 0 .3.1.1-.1.1 0 .2.1z" class="st1"/>
    <path class="invert-dark" d="m194.9 51.2-4.1-22-.7.1.7-.2c-.1-.3-.2-.5-.5-.7-.2-.2-.5-.3-.8-.2-4.2.4-8.3-.7-11.8-3.1-3.5-2.3-6-5.8-7.2-9.8-.1-.3-.3-.5-.5-.7-.3-.2-.6-.2-.9-.2l-46 8.6c-.3.1-.5.2-.7.5-.2.2-.2.5-.2.8.3 4.2-.8 8.3-3.2 11.7-2.4 3.4-5.8 5.9-9.8 7.1-.3.1-.5.3-.7.5-.2.3-.2.6-.2.9l4.1 22c2.3 12.6 8.7 24.1 18.1 32.7 9.2 8.5 20.9 14 33.3 15.6.2 0 .5 0 .7-.1 11-6 19.9-15.3 25.4-26.6 5.6-11.3 7.4-24.3 5-36.9zm-85.3-6.8zm79 43.2c-5.3 11-14 20.1-24.8 25.9-12.1-1.6-23.5-6.9-32.5-15.2-9.2-8.5-15.4-19.7-17.7-31.9l-4.1-21.8c4.2-1.3 7.9-4 10.4-7.6 2.5-3.7 3.7-8 3.4-12.5l45.7-8.6c1.3 4.2 4.1 7.9 7.7 10.4 3.7 2.5 8.1 3.7 12.5 3.3l4.1 21.8c2.6 12.3.8 25-4.7 36.2z"/>
    <path d="M183.3 84.3c-4.5 9.2-11.7 16.8-20.7 21.7-.1 0-.2.1-.2 0-10.2-1.3-19.7-5.7-27.2-12.7-7.7-7.1-12.9-16.4-14.8-26.7L117 48.4c0-.1 0-.2.1-.3s.1-.2.2-.2c3.4-1 6.4-3.2 8.4-6.1 2-2.9 3-6.5 2.7-10.1 0-.1 0-.2.1-.3.1-.1.2-.1.3-.2L146 28l20.8-3.9c.1 0 .2 0 .3.1s.2.1.2.2c1 3.4 3.2 6.4 6.2 8.4s6.5 2.9 10.1 2.6c.1 0 .2 0 .3.1s.1.2.2.3l3.4 18.2c1.9 10.3.4 20.9-4.2 30.3z" class="st4"/>
    <path fill="#5d42d1" d="M162.6 106c-.1 0-.2.1-.2 0-10.2-1.3-19.7-5.7-27.2-12.7-7.7-7.1-12.9-16.4-14.8-26.7L117 48.4c0-.1 0-.2.1-.3s.1-.2.2-.2c3.4-1 6.4-3.2 8.4-6.1 2-2.9 3-6.5 2.7-10.1 0-.1 0-.2.1-.3s.2-.1.3-.2L146 28l1.5.2 15.1 77.8z"/>
    <path d="M171.3 52.3c-.1-.6-.4-1.2-.8-1.7s-.8-.9-1.4-1.3c-.5-.3-1.1-.5-1.8-.6-.6-.1-1.3-.1-1.9.1-.6.2-1.2.4-1.7.8s-.9.9-1.2 1.4l-10.9 17-5.1-3.3c-.5-.3-1.1-.6-1.7-.7-.6-.1-1.2-.1-1.9 0-.6.1-1.2.4-1.7.7-.5.4-.9.8-1.3 1.3l-.1.1c-.7 1.1-.9 2.3-.6 3.6.3 1.2 1 2.3 2.1 3l9.1 5.8c.5.3 1.1.6 1.7.7.3 0 .6.1.8.1.3 0 .7 0 1-.1.6-.1 1.2-.4 1.7-.7.5-.4.9-.8 1.3-1.3l11.8-18.4 1.8-2.9c.3-.5.6-1.1.7-1.8.3-.5.2-1.1.1-1.8z" class="st1"/>
  </g>
</svg>
