<svg fill="none" xmlns="http://www.w3.org/2000/svg" viewBox="0 0 16 16">
  <path d="M14 2a2 2 0 0 1 2 2v8a2 2 0 0 1-2 2H2a2 2 0 0 1-2-2V4a2 2 0 0 1 2-2zM2 3.5a.5.5 0 0 0-.5.5v8a.5.5 0 0 0 .5.5h12a.5.5 0 0 0 .5-.5V4a.5.5 0 0 0-.5-.5zm6 1.125a4.87 4.87 0 0 1 4.549 3.153l.084.222-.084.222A4.87 4.87 0 0 1 8 11.375a4.87 4.87 0 0 1-4.549-3.153L3.367 8l.084-.222A4.87 4.87 0 0 1 8 4.625m0 1.25c-1.46 0-2.715.87-3.287 2.125A3.61 3.61 0 0 0 8 10.125c1.46 0 2.715-.87 3.287-2.125A3.61 3.61 0 0 0 8 5.875m.75 2.875h-1.5v-1.5h1.5z" fill="#000"/>
</svg>
