<svg fill="none" xmlns="http://www.w3.org/2000/svg" viewBox="0 0 24 24">
  <path fill-rule="evenodd" clip-rule="evenodd" d="M12 0c6.627 0 12 5.373 12 12s-5.373 12-12 12S0 18.627 0 12 5.373 0 12 0M8.301 13.125A13.44 13.44 0 0 0 12 21.33a13.44 13.44 0 0 0 3.701-8.205zm-5.985 0a9.76 9.76 0 0 0 6.715 8.162 15.67 15.67 0 0 1-2.99-8.162zm15.644 0a15.67 15.67 0 0 1-2.992 8.162 9.76 9.76 0 0 0 6.716-8.162zM11.998 2.669a13.44 13.44 0 0 0-3.697 8.206h7.4a13.44 13.44 0 0 0-3.703-8.206m2.973.042a15.67 15.67 0 0 1 2.99 8.164h3.723a9.76 9.76 0 0 0-6.713-8.164m-5.94 0a9.76 9.76 0 0 0-6.715 8.164H6.04a15.67 15.67 0 0 1 2.99-8.164" fill="#000"/>
</svg>
