<svg fill="none" xmlns="http://www.w3.org/2000/svg" viewBox="0 0 24 24">
  <path d="M2.166 1.726 2.439.453c.129-.603.99-.603 1.12 0l.273 1.273c.048.221.22.393.44.44l1.273.273c.603.129.603.99 0 1.12l-1.272.275a.57.57 0 0 0-.439.44l-.275 1.273c-.129.603-.99.603-1.12 0l-.273-1.274a.57.57 0 0 0-.44-.439L.453 3.559c-.603-.129-.603-.99 0-1.12l1.273-.273a.57.57 0 0 0 .44-.44M2.166 19.727l.273-1.274c.129-.603.99-.603 1.12 0l.273 1.274c.048.22.22.392.44.439l1.273.273c.603.129.603.99 0 1.12l-1.273.273a.57.57 0 0 0-.44.44l-.273 1.274c-.129.602-.99.602-1.12 0l-.273-1.274a.57.57 0 0 0-.44-.44L.453 21.56c-.603-.129-.603-.99 0-1.12l1.273-.273a.57.57 0 0 0 .44-.44" fill="#000"/>
  <path fill-rule="evenodd" clip-rule="evenodd" d="M15.395 2.79c-.679-1.72-3.111-1.72-3.79 0L9.72 7.567a1.16 1.16 0 0 1-.653.653l-4.779 1.884c-1.72.679-1.72 3.111 0 3.79l4.78 1.885c.298.118.534.354.652.652l1.884 4.779c.679 1.72 3.111 1.72 3.79 0l1.884-4.78c.119-.298.355-.534.653-.652l4.779-1.884c1.72-.679 1.72-3.111 0-3.79L17.93 8.22a1.16 1.16 0 0 1-.652-.653zm-3.581 5.604L13.5 4.116l1.687 4.28a3.41 3.41 0 0 0 1.919 1.918L21.384 12l-4.28 1.687a3.41 3.41 0 0 0-1.918 1.919L13.5 19.884l-1.687-4.28a3.41 3.41 0 0 0-1.919-1.918L5.616 12l4.28-1.687a3.41 3.41 0 0 0 1.918-1.919" fill="#000"/>
</svg>
