<svg fill="none" xmlns="http://www.w3.org/2000/svg" viewBox="0 0 16 16">
  <path fill-rule="evenodd" clip-rule="evenodd" d="M8.5 9a3 3 0 0 1 3 3v2a1 1 0 0 1-1 1H1a1 1 0 0 1-1-1v-2a3 3 0 0 1 3-3zM3 10.5c-.827 0-1.5.673-1.5 1.5v1.5H10V12c0-.827-.673-1.5-1.5-1.5z" fill="#000"/>
  <path d="M13 9a3 3 0 0 1 3 3v2a1 1 0 0 1-1 1h-2.212c.135-.307.212-.644.212-1v-.5h1.5V12c0-.827-.673-1.5-1.5-1.5h-.277a4.5 4.5 0 0 0-.894-1.5z" fill="#000"/>
  <path fill-rule="evenodd" clip-rule="evenodd" d="M5.75 1.75a3 3 0 1 1 0 6 3 3 0 0 1 0-6m0 1.5c-.827 0-1.5.673-1.5 1.5s.673 1.5 1.5 1.5 1.5-.673 1.5-1.5-.673-1.5-1.5-1.5" fill="#000"/>
  <path d="M10.25 1.75a3 3 0 1 1 0 6c-.358 0-.697-.074-1.015-.188.322-.398.575-.848.747-1.34q.13.027.268.028c.827 0 1.5-.673 1.5-1.5s-.673-1.5-1.5-1.5q-.137.002-.268.027a4.5 4.5 0 0 0-.747-1.339 3 3 0 0 1 1.015-.188" fill="#000"/>
</svg>
