<svg width="357" height="205" fill="none" xmlns="http://www.w3.org/2000/svg"><path d="M14.809 106v25.618M2 118.809h25.618M24.128 128.129l-18.64-18.64M24.128 109.489l-18.64 18.64" stroke="#333336" stroke-width="2.5" stroke-linecap="round"/><path d="M205.572 42.7c.904.991.082 2.571-1.249 2.402l-34.258-4.362c-9.767-1.244-15.312-11.832-10.771-20.569 4.54-8.736 16.392-10.282 23.022-3.003l23.256 25.531Z" stroke="#333336" stroke-width="2.5"/><path d="M247 110.75a7.25 7.25 0 0 0-7.25 7.25v73a7.25 7.25 0 0 0 7.25 7.25h96a7.25 7.25 0 0 0 7.25-7.25v-73a7.25 7.25 0 0 0-7.25-7.25h-96Z" fill="#80EBFF" stroke="#333336" stroke-width="2.5"/><path d="M199.035 42.7c-.903.991-.082 2.571 1.249 2.402l34.259-4.362c9.767-1.244 15.311-11.832 10.771-20.569-4.541-8.736-16.393-10.282-23.023-3.003l-23.256 25.531ZM303.569 93.683c.5.548.046 1.423-.691 1.33l-26.06-3.32c-7.224-.919-11.324-8.75-7.966-15.21 3.358-6.461 12.123-7.605 17.026-2.222l17.691 19.422Z" stroke="#333336" stroke-width="2.5"/><path d="M299.039 93.683c-.5.548-.046 1.423.691 1.33l26.06-3.32c7.223-.919 11.324-8.75 7.966-15.21-3.358-6.461-12.123-7.605-17.026-2.222l-17.691 19.422Z" stroke="#333336" stroke-width="2.5"/><path d="M111.308 28v18.616M102 37.308h18.616M118.08 44.08l-13.545-13.545M118.08 30.535 104.535 44.08" stroke="#333336" stroke-width="2.5" stroke-linecap="round"/><path fill="#0DF" d="M349 118h-88v20h88z"/><path d="M227 119.25h-1.25V100a7.25 7.25 0 0 1 7.25-7.25h115a7.25 7.25 0 0 1 7.25 7.25v19.25H227Z" fill="#ABF2FF" stroke="#333336" stroke-width="2.5"/><path d="M145 65.75h-1.25V191a7.25 7.25 0 0 0 7.25 7.25h102a7.25 7.25 0 0 0 7.25-7.25V65.75H145Z" fill="#FFB4DC" stroke="#333336" stroke-width="2.5"/><path fill="#FF8AC6" d="M259 66h-45v20h45zM145 66h69v20h-69z"/><path fill="#FFEA80" stroke="#333336" stroke-width="2.5" d="M188.75 64.75h26.5v133.5h-26.5z"/><path fill="#FFD567" d="M190 66h24v20h-24z"/><path d="M139 67.25h-1.25V48a7.25 7.25 0 0 1 7.25-7.25h115a7.25 7.25 0 0 1 7.25 7.25v19.25H139Z" fill="#FFB4DC" stroke="#333336" stroke-width="2.5"/><path d="M280.501 13v29M266 27.5h29M274.342 33.658l12.316-12.316M286.658 33.658l-12.316-12.316" stroke="#333336" stroke-width="2.5" stroke-linecap="round"/><path fill="#FFEA80" stroke="#333336" stroke-width="2.5" d="M188.75 67.25h26.5v-26.5h-26.5z"/><path d="M44 57.217a7.25 7.25 0 0 0-7.25 7.25v126.171a7.25 7.25 0 0 0 7.25 7.25h112a7.25 7.25 0 0 0 7.25-7.25V64.467a7.25 7.25 0 0 0-7.25-7.25H44Z" fill="#fff" stroke="#333336" stroke-width="2.5"/><path d="M75.875 75.062v1.243H73.39v-1.243a1.243 1.243 0 0 1 2.485 0ZM79.603 73.82a1.243 1.243 0 1 1 0 2.485 1.243 1.243 0 0 1 0-2.486ZM87.062 73.82a1.243 1.243 0 1 1 0 2.485 1.243 1.243 0 0 1 0-2.486ZM97.001 73.82a1.243 1.243 0 1 1 0 2.485 1.243 1.243 0 0 1 0-2.486ZM100.729 76.305h2.485v-2.486a2.485 2.485 0 0 0-2.485 2.486ZM105.699 73.82h-2.485v2.485h2.485v-2.486Z" fill="#333336"/><path d="M105.698 73.82v2.485h2.486a2.486 2.486 0 0 0-2.486-2.485ZM113.156 76.305h2.486v-2.486a2.486 2.486 0 0 0-2.486 2.486Z" fill="#333336"/><path d="M118.126 73.82h-2.485v2.485h2.485v-2.486ZM118.128 73.82v2.485h2.486a2.486 2.486 0 0 0-2.486-2.486ZM124.34 73.82a1.243 1.243 0 1 1 0 2.484 1.243 1.243 0 0 1 0-2.485ZM75.875 76.304H73.39v2.486h2.485v-2.486ZM80.848 78.79h2.486v-2.486a2.485 2.485 0 0 0-2.486 2.486Z" fill="#333336"/><path d="M83.332 76.304v2.486h2.486a2.485 2.485 0 0 0-2.486-2.486ZM94.515 76.305a1.243 1.243 0 1 1 0 2.485 1.243 1.243 0 0 1 0-2.485ZM103.214 76.305h-2.485v2.485h2.485v-2.485ZM108.184 76.305h-2.486v2.485h2.486v-2.485ZM115.642 78.79v-2.486h-2.486a2.486 2.486 0 0 0 2.486 2.486Z" fill="#333336"/><path d="M118.126 76.304h-2.485v2.486h2.485v-2.486ZM120.614 76.305h-2.486v2.485a2.486 2.486 0 0 0 2.486-2.485ZM75.875 81.275V78.79H73.39a2.485 2.485 0 0 0 2.485 2.485ZM77.118 81.275h-1.243V78.79h1.243a1.243 1.243 0 0 1 0 2.485ZM83.332 78.79h-2.485v2.485h2.485V78.79Z" fill="#333336"/><path d="M85.814 78.79h-2.485v2.485h2.485V78.79Z" fill="#333336"/><path d="M85.812 78.79v2.486h2.485a2.485 2.485 0 0 0-2.485-2.486ZM92.03 78.79a1.243 1.243 0 1 1 0 2.485 1.243 1.243 0 0 1 0-2.485ZM100.729 80.033V78.79H103.214v1.243a1.242 1.242 0 1 1-2.485 0ZM108.184 78.79h-2.486v2.485h2.486V78.79ZM118.126 78.79h-2.485v2.485h2.485V78.79ZM124.34 78.79a1.243 1.243 0 1 1 0 2.485 1.243 1.243 0 0 1 0-2.485ZM80.847 82.518v-1.243H83.332v1.243a1.243 1.243 0 0 1-2.485 0Z" fill="#333336"/><path d="M88.297 83.76v-2.485h-2.485a2.485 2.485 0 0 0 2.485 2.486ZM88.304 81.275v2.486h2.485a2.485 2.485 0 0 0-2.485-2.486ZM97.001 81.275a1.243 1.243 0 1 1 0 2.486 1.243 1.243 0 0 1 0-2.486ZM104.457 81.275h1.242v2.486h-1.242a1.243 1.243 0 1 1 0-2.486Z" fill="#333336"/><path d="M108.184 81.275h-2.486v2.486h2.486v-2.486ZM109.427 83.76h-1.243V81.276h1.243a1.242 1.242 0 0 1 0 2.486ZM118.126 81.275h-2.485v2.486h2.485v-2.486ZM74.633 83.76h1.242v2.486h-1.242a1.243 1.243 0 0 1 0-2.485ZM78.36 83.76h-2.485v2.486h2.485v-2.485ZM78.36 83.76v2.486h2.486a2.485 2.485 0 0 0-2.486-2.486ZM85.814 85.003v1.243H83.329v-1.243a1.243 1.243 0 0 1 2.485 0ZM88.303 85.003V83.76H90.788v1.243a1.243 1.243 0 0 1-2.485 0ZM99.485 83.76h1.243v2.486h-1.243a1.243 1.243 0 0 1 0-2.486ZM101.972 86.246h-1.243V83.76h1.243a1.242 1.242 0 0 1 0 2.486Z" fill="#333336"/><path d="M118.126 83.76h-2.485v2.486h2.485V83.76ZM118.128 83.76v2.486h2.486a2.486 2.486 0 0 0-2.486-2.486ZM125.583 85.003v1.243H123.098v-1.243a1.242 1.242 0 1 1 2.485 0ZM78.36 88.731v-2.485h-2.485a2.485 2.485 0 0 0 2.485 2.485ZM80.846 86.246h-2.485v2.485h2.485v-2.485ZM83.332 86.246h-2.485v2.485h2.485v-2.485Z" fill="#333336"/><path d="M85.814 86.246h-2.485v2.485h2.485v-2.485ZM87.062 88.731h-1.243V86.246h1.243a1.243 1.243 0 1 1 0 2.485ZM92.03 86.246h1.243V88.731H92.03a1.243 1.243 0 1 1 0-2.485Z" fill="#333336"/><path d="M93.272 86.246v2.485h2.486a2.485 2.485 0 0 0-2.486-2.485ZM108.184 88.731h2.485v-2.485a2.485 2.485 0 0 0-2.485 2.485ZM111.912 88.731h-1.243V86.246h1.243a1.242 1.242 0 0 1 0 2.485ZM118.125 88.731v-2.485h-2.485a2.485 2.485 0 0 0 2.485 2.485ZM120.611 86.246h-2.486v2.485h2.486v-2.485ZM125.583 86.246h-2.485v2.485h2.485v-2.485ZM74.633 88.732a1.243 1.243 0 1 1 0 2.485 1.243 1.243 0 0 1 0-2.485ZM78.36 89.975v-1.243h2.486v1.243a1.243 1.243 0 1 1-2.485 0ZM85.814 88.732h-2.485v2.485h2.485v-2.485ZM90.788 89.975v1.242H88.303v-1.242a1.243 1.243 0 0 1 2.486 0ZM93.272 89.975v-1.243h2.486v1.243a1.243 1.243 0 0 1-2.486 0ZM100.728 89.975v1.242H98.243v-1.242a1.243 1.243 0 1 1 2.485 0ZM105.699 89.975v1.242H103.214v-1.242a1.242 1.242 0 1 1 2.485 0ZM110.669 88.732h-2.485v2.485h2.485v-2.485ZM114.399 88.732a1.243 1.243 0 1 1 0 2.485 1.243 1.243 0 0 1 0-2.485ZM118.125 89.975v-1.243h2.486v1.243a1.243 1.243 0 0 1-2.486 0ZM123.098 89.975v-1.243H125.583v1.243a1.242 1.242 0 1 1-2.485 0ZM77.118 91.216a1.243 1.243 0 1 1 0 2.486 1.243 1.243 0 0 1 0-2.486ZM83.329 92.46v-1.243H85.814v1.243a1.243 1.243 0 0 1-2.485 0ZM90.788 91.217h-2.485v2.486h2.486v-2.486Z" fill="#333336"/><path d="M92.03 93.703h-1.242v-2.486h1.242a1.243 1.243 0 0 1 0 2.486ZM97.001 91.216h1.243v2.486H97a1.243 1.243 0 1 1 0-2.486Z" fill="#333336"/><path d="M100.727 91.216h-2.486v2.486a2.486 2.486 0 0 0 2.486-2.486ZM103.214 92.459v-1.243H105.699v1.243a1.242 1.242 0 1 1-2.485 0ZM110.669 91.217h-2.485v2.486h2.485v-2.486ZM116.884 91.217a1.242 1.242 0 1 1 0 2.485 1.242 1.242 0 0 1 0-2.485ZM55.993 94.944v1.243h-2.486v-1.243a1.243 1.243 0 0 1 2.486 0ZM62.208 93.702h1.242V96.187h-1.242a1.243 1.243 0 0 1 0-2.485ZM65.935 93.702H63.45v2.485h2.485v-2.485ZM68.42 93.702h-2.485v2.485h2.485v-2.485ZM70.904 93.702H68.42v2.485h2.485v-2.485Z" fill="#333336"/><path d="M73.39 93.703h-2.486v2.485h2.485v-2.485ZM74.633 96.187H73.39V93.702h1.243a1.243 1.243 0 1 1 0 2.485ZM79.603 93.702a1.243 1.243 0 1 1 0 2.485 1.243 1.243 0 0 1 0-2.485ZM90.788 93.702h-2.485v2.485h2.486v-2.485ZM101.972 93.702a1.242 1.242 0 1 1 0 2.484 1.242 1.242 0 0 1 0-2.484ZM108.184 94.944v-1.242H110.669v1.242a1.242 1.242 0 1 1-2.485 0ZM118.128 96.187h2.486v-2.485a2.486 2.486 0 0 0-2.486 2.485Z" fill="#333336"/><path d="M120.613 93.703v2.485h2.486a2.486 2.486 0 0 0-2.486-2.485ZM126.824 93.702a1.242 1.242 0 1 1 .001 2.485 1.242 1.242 0 0 1-.001-2.485ZM135.522 94.944v1.243H133.037v-1.243a1.242 1.242 0 1 1 2.485 0ZM138.008 96.187h2.485v-2.485a2.485 2.485 0 0 0-2.485 2.485Z" fill="#333336"/><path d="M142.977 93.702h-2.485v2.485h2.485v-2.485ZM144.223 96.187h-1.243V93.702h1.243a1.242 1.242 0 0 1 0 2.485ZM55.993 98.672v-2.485h-2.486a2.485 2.485 0 0 0 2.486 2.485Z" fill="#333336"/><path d="M57.235 98.673h-1.243v-2.486h1.243a1.243 1.243 0 0 1 0 2.486ZM63.45 97.43v-1.243H65.935v1.243a1.243 1.243 0 0 1-2.485 0ZM83.332 98.672h2.486v-2.485a2.485 2.485 0 0 0-2.486 2.485ZM88.305 96.188h-2.486v2.485h2.486v-2.486Z" fill="#333336"/><path d="M90.788 96.188h-2.485v2.485h2.486v-2.486ZM95.758 97.43v1.243h-2.486V97.43a1.243 1.243 0 1 1 2.486 0ZM99.485 96.188a1.242 1.242 0 1 1 0 2.484 1.242 1.242 0 0 1 0-2.484ZM106.941 96.188a1.243 1.243 0 1 1 0 2.486 1.243 1.243 0 0 1 0-2.487ZM110.669 98.672h2.485v-2.485a2.485 2.485 0 0 0-2.485 2.485ZM115.642 96.188h-2.485v2.485h2.485v-2.486Z" fill="#333336"/><path d="M118.126 96.188h-2.485v2.485h2.485v-2.486Z" fill="#333336"/><path d="M120.611 96.188h-2.486v2.485h2.486v-2.486ZM123.097 96.188h-2.485v2.485h2.485v-2.486ZM130.556 98.673h2.485v-2.486a2.485 2.485 0 0 0-2.485 2.486Z" fill="#333336"/><path d="M135.522 96.188h-2.485v2.485h2.485v-2.486ZM138.008 96.188h-2.486v2.485h2.486v-2.486Z" fill="#333336"/><path d="M140.493 96.188h-2.485v2.485h2.485v-2.486Z" fill="#333336"/><path d="M142.977 96.188h-2.486v2.485a2.486 2.486 0 0 0 2.486-2.486ZM62.208 98.672a1.243 1.243 0 1 1 0 2.486 1.243 1.243 0 0 1 0-2.486ZM69.662 98.672h1.242V101.157h-1.242a1.242 1.242 0 1 1 0-2.485ZM72.147 101.157h-1.243V98.672h1.243a1.243 1.243 0 0 1 0 2.485ZM77.118 98.672a1.243 1.243 0 1 1 0 2.485 1.243 1.243 0 0 1 0-2.485ZM80.848 101.157h2.486v-2.485a2.485 2.485 0 0 0-2.486 2.485Z" fill="#333336"/><path d="M85.818 98.672h-2.486v2.486a2.486 2.486 0 0 0 2.486-2.486ZM90.788 98.672h-2.485v2.486h2.486v-2.486Z" fill="#333336"/><path d="M93.273 98.672h-2.485v2.485h2.485v-2.485Z" fill="#333336"/><path d="M95.758 98.672h-2.486v2.485h2.486v-2.485ZM100.729 101.158h2.485v-2.486a2.485 2.485 0 0 0-2.485 2.486ZM103.214 98.672v2.485h2.485a2.485 2.485 0 0 0-2.485-2.485ZM109.427 98.672h1.242v2.486h-1.242a1.243 1.243 0 1 1 0-2.486Z" fill="#333336"/><path d="M113.154 98.672h-2.485v2.485h2.485v-2.485ZM115.642 98.672h-2.485v2.486h2.485v-2.486ZM123.099 101.157v-2.485h-2.486a2.486 2.486 0 0 0 2.486 2.485Z" fill="#333336"/><path d="M125.583 98.672h-2.485v2.485h2.485v-2.485Z" fill="#333336"/><path d="M128.067 98.672h-2.485v2.485h2.485v-2.485ZM130.553 98.672h-2.486v2.486h2.486v-2.486ZM133.04 98.672h-2.485v2.485h2.485v-2.485Z" fill="#333336"/><path d="M135.522 98.672h-2.485v2.485h2.485v-2.485ZM145.465 99.915v1.243H142.98v-1.243a1.242 1.242 0 1 1 2.485 0ZM54.75 101.158a1.243 1.243 0 1 1-.001 2.486 1.243 1.243 0 0 1 .001-2.486ZM64.692 101.158a1.243 1.243 0 1 1 0 2.486 1.243 1.243 0 0 1 0-2.486ZM83.332 101.158h-2.485v2.486h2.485v-2.486ZM88.303 102.401v-1.243H90.788v1.243a1.243 1.243 0 0 1-2.485 0ZM95.758 103.644v-2.486h-2.486a2.486 2.486 0 0 0 2.486 2.486ZM98.244 101.158h-2.486v2.486h2.486v-2.486Z" fill="#333336"/><path d="M100.728 101.158h-2.485v2.486h2.485v-2.486ZM103.214 101.158h-2.485v2.486h2.485v-2.486ZM105.699 101.158h-2.485v2.486a2.486 2.486 0 0 0 2.485-2.486ZM113.154 101.158h-2.485v2.486h2.485v-2.486ZM115.642 101.158h-2.486v2.486a2.486 2.486 0 0 0 2.486-2.486ZM130.553 101.158h-2.486v2.486h2.486v-2.486ZM133.04 101.158h-2.485v2.486h2.485v-2.486Z" fill="#333336"/><path d="M135.523 101.158h-2.485v2.486a2.486 2.486 0 0 0 2.485-2.486ZM139.25 101.158h1.243v2.486h-1.243a1.243 1.243 0 0 1 0-2.486Z" fill="#333336"/><path d="M142.977 101.158h-2.485v2.486h2.485v-2.486ZM145.465 101.158h-2.485v2.486h2.485v-2.486ZM60.966 104.886v1.242H58.481v-1.242a1.242 1.242 0 1 1 2.485 0ZM67.177 103.643h1.243V106.128h-1.243a1.242 1.242 0 1 1 0-2.485Z" fill="#333336"/><path d="M69.662 106.128h-1.243V103.643h1.243a1.243 1.243 0 1 1 0 2.485ZM74.633 103.643a1.242 1.242 0 1 1 0 2.485 1.242 1.242 0 0 1 0-2.485ZM83.332 103.643h-2.485v2.485h2.485v-2.485Z" fill="#333336"/><path d="M84.571 106.128H83.33V103.643h1.242a1.243 1.243 0 1 1 0 2.485ZM93.273 104.886v1.242H90.788v-1.242a1.243 1.243 0 1 1 2.485 0ZM113.154 103.643h-2.485v2.485h2.485v-2.485ZM123.097 104.886v1.242H120.612v-1.242a1.242 1.242 0 1 1 2.485 0ZM130.554 106.127v-2.485h-2.485a2.485 2.485 0 0 0 2.485 2.485ZM133.041 103.643h-2.485v2.485a2.484 2.484 0 0 0 2.485-2.485ZM138.008 104.886v1.242h-2.486v-1.242a1.243 1.243 0 1 1 2.486 0ZM142.98 104.886v-1.243H145.465v1.243a1.242 1.242 0 1 1-2.485 0ZM60.966 106.128h-2.485v2.486h2.485v-2.486ZM64.692 106.128a1.243 1.243 0 1 1 0 2.486 1.243 1.243 0 0 1 0-2.486Z" fill="#333336"/><path d="M80.847 107.371v-1.243H83.332v1.243a1.243 1.243 0 0 1-2.485 0ZM93.273 106.128h-2.485v2.486h2.485v-2.486Z" fill="#333336"/><path d="M94.515 108.614h-1.243v-2.486h1.243a1.243 1.243 0 0 1 0 2.486ZM100.728 107.371v1.243H98.243v-1.243a1.243 1.243 0 0 1 2.485 0ZM110.669 107.371v-1.243H113.154v1.243a1.243 1.243 0 1 1-2.485 0ZM119.368 106.128h1.243v2.486h-1.243a1.244 1.244 0 0 1 0-2.486ZM123.097 106.128h-2.485v2.486h2.485v-2.486ZM125.583 106.128h-2.485v2.486h2.485v-2.486Z" fill="#333336"/><path d="M126.824 108.614h-1.242v-2.486h1.242a1.244 1.244 0 0 1 0 2.486ZM133.038 108.614h2.485v-2.486a2.485 2.485 0 0 0-2.485 2.486Z" fill="#333336"/><path d="M138.008 106.128h-2.486v2.486h2.486v-2.486ZM54.75 108.615a1.242 1.242 0 1 1 0 2.484 1.242 1.242 0 0 1 0-2.484ZM60.966 111.1v-2.485h-2.485a2.485 2.485 0 0 0 2.485 2.485Z" fill="#333336"/><path d="M62.208 111.1h-1.243V108.615h1.242a1.242 1.242 0 1 1 0 2.485ZM65.935 111.1h2.485v-2.485a2.485 2.485 0 0 0-2.485 2.485ZM70.904 108.614H68.42v2.485h2.485v-2.485Z" fill="#333336"/><path d="M72.147 111.099h-1.243V108.614h1.243a1.242 1.242 0 1 1 0 2.485ZM77.118 108.614a1.242 1.242 0 1 1 0 2.484 1.242 1.242 0 0 1 0-2.484ZM88.305 109.857v1.243h-2.486v-1.243a1.242 1.242 0 0 1 2.486 0ZM90.788 109.857v-1.242H93.273v1.242a1.243 1.243 0 1 1-2.485 0ZM100.727 111.099v-2.485h-2.486a2.486 2.486 0 0 0 2.486 2.485ZM103.214 108.614h-2.485v2.485h2.485v-2.485ZM103.214 108.614v2.485h2.485a2.485 2.485 0 0 0-2.485-2.485ZM110.669 109.857v1.243H108.184v-1.243a1.242 1.242 0 0 1 2.485 0ZM116.884 108.615a1.242 1.242 0 1 1 0 2.484 1.242 1.242 0 0 1 0-2.484ZM120.612 109.857v-1.242H123.097v1.242a1.242 1.242 0 1 1-2.485 0ZM129.31 108.615a1.243 1.243 0 1 1 0 2.486 1.243 1.243 0 0 1 0-2.486ZM135.523 111.1v-2.485h-2.485a2.485 2.485 0 0 0 2.485 2.485Z" fill="#333336"/><path d="M138.008 108.615h-2.486v2.485h2.486v-2.485Z" fill="#333336"/><path d="M140.493 108.615h-2.485v2.485h2.485v-2.485Z" fill="#333336"/><path d="M142.977 108.615h-2.485v2.485h2.485v-2.485ZM142.981 108.615v2.485h2.485a2.484 2.484 0 0 0-2.485-2.485ZM57.235 111.099a1.242 1.242 0 1 1 0 2.485 1.242 1.242 0 0 1 0-2.485ZM63.45 113.584h2.485v-2.485a2.485 2.485 0 0 0-2.485 2.485ZM68.42 111.1h-2.485v2.485a2.485 2.485 0 0 0 2.485-2.485ZM74.633 111.099a1.242 1.242 0 1 1 0 2.485 1.242 1.242 0 0 1 0-2.485ZM82.09 111.099a1.242 1.242 0 1 1 0 2.485 1.242 1.242 0 0 1 0-2.485ZM85.82 112.342v-1.243H88.304v1.243a1.242 1.242 0 0 1-2.486 0ZM94.515 111.099a1.243 1.243 0 1 1 0 2.485 1.243 1.243 0 0 1 0-2.485ZM103.214 112.342v-1.243H105.699v1.243a1.242 1.242 0 1 1-2.485 0ZM110.669 113.584v-2.485h-2.485a2.485 2.485 0 0 0 2.485 2.485ZM111.912 113.584h-1.243V111.099h1.243a1.242 1.242 0 0 1 0 2.485ZM124.34 111.099a1.242 1.242 0 1 1 .001 2.485 1.242 1.242 0 0 1-.001-2.485ZM131.797 111.098a1.243 1.243 0 1 1 0 2.486 1.243 1.243 0 0 1 0-2.486ZM138.008 113.584v-2.485h-2.486a2.485 2.485 0 0 0 2.486 2.485Z" fill="#333336"/><path d="M140.493 111.099h-2.485v2.485h2.485v-2.485ZM145.465 111.099h-2.485v2.485h2.485v-2.485ZM54.75 113.584a1.243 1.243 0 1 1-.001 2.486 1.243 1.243 0 0 1 .001-2.486ZM59.724 113.584a1.243 1.243 0 1 1-.001 2.486 1.243 1.243 0 0 1 0-2.486ZM63.45 114.827v-1.243H65.935v1.243a1.243 1.243 0 0 1-2.485 0ZM69.662 113.584a1.243 1.243 0 1 1-.001 2.486 1.243 1.243 0 0 1 0-2.486ZM79.603 113.584a1.243 1.243 0 1 1 0 2.486 1.243 1.243 0 0 1 0-2.486ZM85.814 114.827v1.243H83.329v-1.243a1.243 1.243 0 0 1 2.485 0ZM97.001 113.584h1.243v2.486H97a1.243 1.243 0 0 1 0-2.486Z" fill="#333336"/><path d="M100.728 113.584h-2.485v2.486h2.485v-2.486ZM101.972 116.07h-1.243v-2.486h1.243a1.243 1.243 0 0 1 0 2.486ZM116.884 113.584a1.243 1.243 0 1 1-.002 2.486 1.243 1.243 0 0 1 .002-2.486ZM123.097 114.827v1.243H120.612v-1.243a1.243 1.243 0 1 1 2.485 0ZM129.31 113.584a1.244 1.244 0 1 1-.001 2.487 1.244 1.244 0 0 1 .001-2.487ZM138.008 114.827v-1.243H140.493v1.243a1.243 1.243 0 1 1-2.485 0ZM142.98 114.827v-1.243H145.465v1.243a1.243 1.243 0 1 1-2.485 0ZM58.477 117.313v1.243H55.992v-1.243a1.243 1.243 0 0 1 2.486 0ZM72.147 116.069h1.242v2.486h-1.242a1.243 1.243 0 0 1 0-2.486ZM73.39 116.07v2.486h2.485a2.486 2.486 0 0 0-2.485-2.486ZM85.814 116.07h-2.485v2.486h2.485v-2.486ZM90.788 117.313v1.243H88.303v-1.243a1.243 1.243 0 0 1 2.486 0ZM115.642 117.313v1.243H113.157v-1.243a1.243 1.243 0 1 1 2.485 0ZM123.097 116.07h-2.485v2.486h2.485v-2.486ZM136.765 116.07a1.244 1.244 0 1 1-.001 2.487 1.244 1.244 0 0 1 .001-2.487Z" fill="#333336"/><path d="M53.507 121.04h2.486v-2.485a2.485 2.485 0 0 0-2.486 2.485Z" fill="#333336"/><path d="M58.477 118.555h-2.485v2.485h2.486v-2.485ZM60.966 118.555h-2.485v2.485h2.485v-2.485Z" fill="#333336"/><path d="M63.45 118.555h-2.485v2.485h2.485v-2.485ZM65.935 118.555H63.45v2.485h2.485v-2.485ZM68.42 118.555h-2.485v2.485h2.485v-2.485Z" fill="#333336"/><path d="M69.662 121.04h-1.243V118.555h1.243a1.243 1.243 0 0 1 0 2.485ZM75.875 118.555H73.39v2.485h2.485v-2.485ZM78.36 118.555h-2.485v2.485h2.485v-2.485ZM80.846 118.555h-2.485v2.485h2.485v-2.485ZM83.332 118.555h-2.485v2.485h2.485v-2.485Z" fill="#333336"/><path d="M85.814 118.555h-2.485v2.485h2.485v-2.485ZM88.305 118.555h-2.486v2.485h2.486v-2.485Z" fill="#333336"/><path d="M90.788 118.555h-2.485v2.485h2.486v-2.485ZM95.758 119.798v1.242h-2.486v-1.242a1.243 1.243 0 0 1 2.486 0ZM103.214 119.798v1.242H100.729v-1.242a1.243 1.243 0 1 1 2.485 0ZM106.941 118.555h1.243V121.04h-1.243a1.242 1.242 0 1 1 0-2.485ZM110.669 118.555h-2.485v2.485h2.485v-2.485ZM113.154 118.555h-2.485v2.485h2.485v-2.485ZM115.642 118.555h-2.485v2.485h2.485v-2.485Z" fill="#333336"/><path d="M115.64 118.555v2.485h2.485a2.485 2.485 0 0 0-2.485-2.485ZM123.097 118.555h-2.485v2.485h2.485v-2.485ZM126.824 118.555h1.243V121.04h-1.243a1.242 1.242 0 1 1 0-2.485ZM128.069 118.555v2.485h2.485a2.486 2.486 0 0 0-2.485-2.485ZM135.522 119.798v1.242H133.037v-1.242a1.243 1.243 0 1 1 2.485 0ZM139.25 118.555a1.243 1.243 0 1 1 0 2.486 1.243 1.243 0 0 1 0-2.486ZM145.465 119.798v1.242H142.98v-1.242a1.243 1.243 0 1 1 2.485 0ZM55.993 121.042h-2.486v2.485h2.486v-2.485Z" fill="#333336"/><path d="M58.477 121.041h-2.485v2.485h2.486v-2.485ZM65.935 121.041H63.45v2.485h2.485v-2.485ZM68.42 121.04h-2.485v2.485h2.485v-2.485ZM70.904 123.526h2.485v-2.485a2.485 2.485 0 0 0-2.485 2.485ZM75.875 121.042H73.39v2.485h2.485v-2.485ZM78.36 122.283v-1.243h2.486v1.243a1.242 1.242 0 0 1-2.485 0ZM85.814 121.042h-2.485v2.485h2.485v-2.485ZM90.788 121.042h-2.485v2.485h2.486v-2.485Z" fill="#333336"/><path d="M93.273 121.041h-2.485v2.485h2.485v-2.485Z" fill="#333336"/><path d="M95.758 121.04h-2.486v2.485h2.486v-2.485ZM103.214 121.042h-2.485v2.485h2.485v-2.485ZM104.457 123.525h-1.243V121.04h1.243a1.242 1.242 0 0 1 0 2.485ZM108.184 122.283v-1.242H110.669v1.242a1.243 1.243 0 1 1-2.485 0ZM115.642 121.041h-2.485v2.485h2.485v-2.485Z" fill="#333336"/><path d="M118.125 121.04h-2.485v2.485a2.484 2.484 0 0 0 2.485-2.485ZM123.097 121.04h-2.485v2.485h2.485v-2.485ZM130.553 121.041h-2.486v2.485h2.486v-2.485ZM135.522 121.04h-2.485v2.485h2.485v-2.485ZM136.765 123.526h-1.243V121.041h1.243a1.243 1.243 0 1 1 0 2.485ZM142.98 122.284v-1.242H145.465v1.242a1.243 1.243 0 1 1-2.485 0ZM55.993 123.525h-2.486v2.486h2.486v-2.486Z" fill="#333336"/><path d="M58.477 123.525h-2.485v2.486h2.486v-2.486ZM60.966 123.525h-2.485v2.486h2.485v-2.486Z" fill="#333336"/><path d="M63.45 123.525h-2.485v2.486h2.485v-2.486ZM65.935 123.525H63.45v2.486h2.485v-2.486ZM68.42 123.525h-2.485v2.486h2.485v-2.486ZM70.904 123.525H68.42v2.486h2.485v-2.486Z" fill="#333336"/><path d="M73.39 123.526h-2.486v2.485h2.485v-2.485ZM75.875 123.525H73.39v2.486h2.485v-2.486ZM83.329 124.768v-1.243H85.814v1.243a1.243 1.243 0 0 1-2.485 0ZM88.303 124.768v-1.243H90.788v1.243a1.243 1.243 0 0 1-2.485 0ZM95.758 126.011v-2.486h-2.486a2.486 2.486 0 0 0 2.486 2.486ZM95.758 123.525v2.486h2.486a2.486 2.486 0 0 0-2.486-2.486ZM103.214 123.525h-2.485v2.486h2.485v-2.486ZM110.669 126.011h2.485v-2.486a2.486 2.486 0 0 0-2.485 2.486ZM115.642 123.525h-2.485v2.486h2.485v-2.486ZM123.097 123.525h-2.485v2.486h2.485v-2.486ZM125.583 123.525h-2.485v2.486h2.485v-2.486Z" fill="#333336"/><path d="M128.067 123.525h-2.485v2.486h2.485v-2.486ZM130.553 123.525h-2.486v2.486h2.486v-2.486ZM133.04 123.525h-2.485v2.486h2.485v-2.486Z" fill="#333336"/><path d="M135.522 123.525h-2.485v2.486h2.485v-2.486ZM53.507 127.254v-1.243h2.486v1.243a1.243 1.243 0 0 1-2.486 0ZM58.481 127.254v-1.243H60.966v1.243a1.243 1.243 0 0 1-2.485 0ZM68.42 126.011h-2.485v2.486h2.485v-2.486ZM73.39 126.011h-2.486v2.486h2.485v-2.486ZM75.875 126.011H73.39v2.486h2.485v-2.486ZM78.36 126.011h-2.485v2.486h2.485v-2.486ZM80.846 126.011h-2.485v2.486h2.485v-2.486ZM80.848 126.011v2.486h2.486a2.486 2.486 0 0 0-2.486-2.486ZM93.273 127.254v1.243l-1.243-.001h-1.242v-1.242a1.243 1.243 0 0 1 2.485 0ZM95.758 127.254v-1.243h2.486v1.243a1.243 1.243 0 0 1-2.486 0ZM100.729 127.254v-1.243H103.214v1.243a1.243 1.243 0 1 1-2.485 0ZM113.154 126.011h-2.485v2.486h2.485v-2.486ZM115.642 126.011h-2.486v2.486a2.486 2.486 0 0 0 2.486-2.486ZM119.368 126.011h1.243v2.486h-1.243a1.244 1.244 0 0 1 0-2.486ZM123.097 126.011h-2.485v2.486h2.485v-2.486ZM128.067 126.011h-2.485v2.486h2.485v-2.486ZM133.037 127.254v-1.243H135.522v1.243a1.243 1.243 0 1 1-2.485 0ZM139.25 126.011h1.243v2.486h-1.243a1.243 1.243 0 0 1 0-2.486Z" fill="#333336"/><path d="M141.734 128.497h-1.242v-2.486h1.242a1.243 1.243 0 1 1 0 2.486ZM58.477 129.739v1.243H55.992v-1.243a1.242 1.242 0 0 1 2.486 0ZM68.42 128.497h-2.485v2.485h2.485v-2.485ZM70.904 128.496H68.42v2.485h2.485v-2.485Z" fill="#333336"/><path d="M73.39 128.497h-2.486v2.485a2.485 2.485 0 0 0 2.485-2.485ZM83.334 130.982v-2.485h-2.486a2.485 2.485 0 0 0 2.486 2.485Z" fill="#333336"/><path d="M84.571 130.981H83.33V128.496h1.242a1.243 1.243 0 1 1 0 2.485ZM93.273 128.497h-2.485v2.485h2.485v-2.485ZM105.699 129.739v1.243H103.214v-1.243a1.242 1.242 0 1 1 2.485 0ZM108.184 130.982h2.485v-2.485a2.485 2.485 0 0 0-2.485 2.485ZM113.154 128.496h-2.485v2.485h2.485v-2.485ZM123.097 128.497h-2.485v2.485h2.485v-2.485ZM128.067 128.496h-2.485v2.485h2.485v-2.485ZM130.553 128.497h-2.486v2.485h2.486v-2.485ZM130.556 128.497v2.485h2.485a2.484 2.484 0 0 0-2.485-2.485ZM138.008 129.739v1.243h-2.486v-1.243a1.243 1.243 0 0 1 2.486 0ZM145.465 129.739v1.242H142.98v-1.242a1.242 1.242 0 1 1 2.485 0ZM55.992 132.224v-1.243H58.477v1.243a1.243 1.243 0 0 1-2.485 0ZM65.935 132.224v-1.243H68.42v1.243a1.243 1.243 0 0 1-2.485 0ZM77.118 130.981h1.242v2.486h-1.242a1.243 1.243 0 0 1 0-2.486ZM78.36 130.981v2.486h2.486a2.486 2.486 0 0 0-2.486-2.486Z" fill="#333336"/><path d="M89.546 130.981h1.242v2.486h-1.242a1.243 1.243 0 0 1 0-2.486Z" fill="#333336"/><path d="M93.273 130.981h-2.485v2.486h2.485v-2.486Z" fill="#333336"/><path d="M94.515 133.467h-1.243v-2.486h1.243a1.243 1.243 0 0 1 0 2.486ZM99.485 130.981h1.243v2.486h-1.243a1.243 1.243 0 0 1 0-2.486ZM103.214 130.981h-2.485v2.486h2.485v-2.486ZM105.699 130.981h-2.485v2.486h2.485v-2.486ZM110.669 130.981h-2.485v2.486h2.485v-2.486ZM113.154 130.981h-2.485v2.486a2.485 2.485 0 0 0 2.485-2.486ZM120.612 132.224v-1.243H123.097v1.243a1.243 1.243 0 1 1-2.485 0ZM125.582 132.224v-1.243H128.067v1.243a1.244 1.244 0 0 1-2.485 0ZM133.04 130.981h-2.485v2.486h2.485v-2.486Z" fill="#333336"/><path d="M135.522 130.981h-2.485v2.486h2.485v-2.486ZM138.008 130.981h-2.486v2.486h2.486v-2.486ZM139.25 133.467h-1.242v-2.486h1.242a1.243 1.243 0 1 1 0 2.486ZM145.465 130.981h-2.485v2.486h2.485v-2.486ZM60.966 135.953h2.485v-2.486a2.486 2.486 0 0 0-2.485 2.486Z" fill="#333336"/><path d="M64.692 135.953H63.45v-2.486h1.242a1.243 1.243 0 0 1 0 2.486ZM69.661 133.467a1.243 1.243 0 1 1 0 2.486 1.243 1.243 0 0 1 0-2.486ZM74.633 133.467a1.243 1.243 0 1 1-.001 2.486 1.243 1.243 0 0 1 0-2.486ZM80.846 133.467h-2.485v2.486h2.485v-2.486ZM88.305 134.71v1.243h-2.486v-1.243a1.243 1.243 0 0 1 2.486 0ZM90.788 134.71v-1.243H93.273v1.243a1.243 1.243 0 0 1-2.485 0ZM98.244 134.71v1.243h-2.486v-1.243a1.243 1.243 0 0 1 2.486 0ZM103.214 133.467h-2.485v2.486h2.485v-2.486ZM105.699 133.467h-2.485v2.486h2.485v-2.486Z" fill="#333336"/><path d="M108.183 133.467h-2.485v2.486h2.485v-2.486ZM110.669 133.467h-2.485v2.486a2.485 2.485 0 0 0 2.485-2.486ZM119.368 133.467a1.244 1.244 0 1 1-.001 2.487 1.244 1.244 0 0 1 .001-2.487ZM129.31 133.467h1.243v2.486h-1.243a1.244 1.244 0 0 1 0-2.486ZM133.041 133.467h-2.485v2.486a2.485 2.485 0 0 0 2.485-2.486ZM141.735 133.467h1.242v2.486h-1.242a1.243 1.243 0 1 1 0-2.486ZM145.466 133.467h-2.485v2.486a2.485 2.485 0 0 0 2.485-2.486ZM55.993 137.195v1.242h-2.486v-1.242a1.243 1.243 0 0 1 2.486 0ZM58.481 138.438h2.485v-2.485a2.485 2.485 0 0 0-2.485 2.485ZM63.451 135.952h-2.485v2.485a2.485 2.485 0 0 0 2.485-2.485ZM73.39 137.195v1.242h-2.486v-1.242a1.243 1.243 0 0 1 2.485 0ZM77.118 135.953h1.242V138.438h-1.242a1.243 1.243 0 0 1 0-2.485ZM80.846 135.953h-2.485v2.485h2.485v-2.485ZM84.571 135.952h1.243V138.437H84.57a1.242 1.242 0 1 1 0-2.485ZM88.305 135.952h-2.486v2.485h2.486v-2.485ZM98.244 138.438v-2.485h-2.486a2.485 2.485 0 0 0 2.486 2.485Z" fill="#333336"/><path d="M100.728 135.952h-2.485v2.485h2.485v-2.485ZM103.214 135.953h-2.485v2.485a2.485 2.485 0 0 0 2.485-2.485ZM111.912 135.951h1.242V138.436h-1.242a1.242 1.242 0 1 1 0-2.485ZM114.399 138.437h-1.242V135.952h1.242a1.243 1.243 0 1 1 0 2.485ZM120.613 138.438h2.486v-2.485a2.485 2.485 0 0 0-2.486 2.485Z" fill="#333336"/><path d="M124.34 138.438h-1.242V135.953h1.242a1.242 1.242 0 1 1 0 2.485ZM135.522 137.195v1.243H133.037v-1.243a1.242 1.242 0 1 1 2.485 0ZM55.993 138.438h-2.486v2.485h2.486v-2.485Z" fill="#333336"/><path d="M58.477 138.438h-2.485v2.485h2.486v-2.485ZM60.966 138.438h-2.485v2.485a2.485 2.485 0 0 0 2.485-2.485ZM69.662 138.438h1.242V140.923h-1.242a1.243 1.243 0 0 1 0-2.485Z" fill="#333336"/><path d="M73.39 138.438h-2.486v2.485a2.485 2.485 0 0 0 2.485-2.485ZM78.36 139.68v-1.242h2.486v1.242a1.243 1.243 0 0 1-2.485 0ZM88.305 138.438h-2.486v2.485h2.486v-2.485ZM92.03 138.438a1.242 1.242 0 1 1 .001 2.484 1.242 1.242 0 0 1 0-2.484ZM100.728 138.438h-2.485v2.485h2.485v-2.485ZM106.941 138.438h1.243V140.923h-1.243a1.243 1.243 0 1 1 0-2.485ZM108.184 138.438v2.485h2.485a2.484 2.484 0 0 0-2.485-2.485ZM118.128 140.923h2.486v-2.485a2.485 2.485 0 0 0-2.486 2.485Z" fill="#333336"/><path d="M123.097 138.438h-2.485v2.485h2.485v-2.485ZM128.069 140.923h2.485v-2.485a2.485 2.485 0 0 0-2.485 2.485ZM133.04 138.438h-2.485v2.485h2.485v-2.485Z" fill="#333336"/><path d="M135.522 138.438h-2.485v2.485h2.485v-2.485ZM141.734 138.438h1.243V140.923h-1.243a1.243 1.243 0 0 1 0-2.485ZM144.223 140.923h-1.243V138.438h1.243a1.242 1.242 0 1 1 0 2.485ZM55.993 140.922h-2.486v2.486h2.486v-2.486ZM63.45 143.408h2.485v-2.486a2.486 2.486 0 0 0-2.485 2.486ZM67.177 143.408h-1.242v-2.486h1.242a1.243 1.243 0 0 1 0 2.486ZM88.305 140.922h-2.486v2.486h2.486v-2.486ZM95.758 142.165v1.243h-2.486v-1.243a1.243 1.243 0 0 1 2.486 0ZM100.728 140.922h-2.485v2.486h2.485v-2.486ZM100.729 140.922v2.486h2.485a2.485 2.485 0 0 0-2.485-2.486ZM110.669 140.922h-2.485v2.486h2.485v-2.486ZM115.642 142.165v1.243H113.157v-1.243a1.243 1.243 0 1 1 2.485 0ZM120.614 143.408v-2.486h-2.486a2.486 2.486 0 0 0 2.486 2.486Z" fill="#333336"/><path d="M123.097 140.922h-2.485v2.486h2.485v-2.486ZM130.553 140.922h-2.486v2.486h2.486v-2.486ZM133.04 140.922h-2.485v2.486h2.485v-2.486Z" fill="#333336"/><path d="M135.522 140.922h-2.485v2.486h2.485v-2.486ZM138.008 140.922h-2.486v2.486h2.486v-2.486ZM138.008 140.922v2.486h2.485a2.486 2.486 0 0 0-2.485-2.486ZM53.507 144.651v-1.243h2.486v1.243a1.243 1.243 0 0 1-2.486 0ZM63.45 144.651v-1.243H65.935v1.243a1.243 1.243 0 0 1-2.485 0ZM69.662 143.408a1.243 1.243 0 1 1-.001 2.486 1.243 1.243 0 0 1 0-2.486ZM82.09 143.408h1.242v2.486h-1.243a1.243 1.243 0 0 1 0-2.486Z" fill="#333336"/><path d="M85.814 143.408h-2.485v2.486h2.485v-2.486ZM88.305 143.408h-2.486v2.486h2.486v-2.486ZM90.788 145.894h2.485v-2.486a2.486 2.486 0 0 0-2.485 2.486Z" fill="#333336"/><path d="M95.758 143.408h-2.486v2.486a2.486 2.486 0 0 0 2.486-2.486ZM100.728 143.408h-2.485v2.486h2.485v-2.486ZM103.214 143.408h-2.485v2.486h2.485v-2.486ZM103.214 143.408v2.486h2.485a2.486 2.486 0 0 0-2.485-2.486ZM108.184 144.651v-1.243H110.669v1.243a1.243 1.243 0 1 1-2.485 0ZM115.642 145.894v-2.486h-2.486a2.486 2.486 0 0 0 2.486 2.486Z" fill="#333336"/><path d="M115.64 143.408v2.486h2.485a2.485 2.485 0 0 0-2.485-2.486ZM123.099 145.894v-2.486h-2.486a2.486 2.486 0 0 0 2.486 2.486Z" fill="#333336"/><path d="M125.583 143.408h-2.485v2.486h2.485v-2.486Z" fill="#333336"/><path d="M128.067 143.408h-2.485v2.486h2.485v-2.486ZM130.553 143.408h-2.486v2.486h2.486v-2.486ZM133.04 143.408h-2.485v2.486h2.485v-2.486Z" fill="#333336"/><path d="M135.522 143.408h-2.485v2.486h2.485v-2.486ZM138.008 143.408h-2.486v2.486h2.486v-2.486Z" fill="#333336"/><path d="M140.493 143.408h-2.485v2.486h2.485v-2.486ZM144.223 143.408a1.243 1.243 0 1 1-.002 2.486 1.243 1.243 0 0 1 .002-2.486ZM73.39 148.378h2.485v-2.485a2.486 2.486 0 0 0-2.485 2.485ZM78.36 145.894h-2.485v2.485h2.485v-2.485ZM79.603 148.379h-1.242V145.894h1.242a1.242 1.242 0 1 1 0 2.485ZM88.305 145.894h-2.486v2.485h2.486v-2.485ZM93.273 145.894h-2.485v2.485h2.485v-2.485ZM95.758 148.378h2.486v-2.485a2.485 2.485 0 0 0-2.486 2.485Z" fill="#333336"/><path d="M100.728 145.894h-2.485v2.485h2.485v-2.485ZM103.214 145.894h-2.485v2.485h2.485v-2.485ZM105.699 145.894h-2.485v2.485h2.485v-2.485Z" fill="#333336"/><path d="M106.941 148.379h-1.243V145.894h1.243a1.243 1.243 0 1 1 0 2.485ZM118.126 145.894h-2.485v2.485h2.485v-2.485ZM125.583 145.894h-2.485v2.485h2.485v-2.485ZM135.522 145.894h-2.485v2.485h2.485v-2.485ZM140.493 148.379v-2.485h-2.485a2.485 2.485 0 0 0 2.485 2.485Z" fill="#333336"/><path d="M141.734 148.379h-1.242V145.894h1.242a1.242 1.242 0 1 1 0 2.485ZM75.875 148.378H73.39v2.486h2.485v-2.486ZM78.36 148.378h-2.485v2.486h2.485v-2.486ZM88.305 148.378h-2.486v2.486h2.486v-2.486Z" fill="#333336"/><path d="M90.788 148.378h-2.485v2.486h2.486v-2.486Z" fill="#333336"/><path d="M93.273 148.378h-2.485v2.486h2.485v-2.486Z" fill="#333336"/><path d="M95.758 148.378h-2.486v2.486h2.486v-2.486ZM98.244 148.378h-2.486v2.486h2.486v-2.486Z" fill="#333336"/><path d="M100.728 148.378h-2.485v2.486h2.485v-2.486ZM103.214 148.378h-2.485v2.486a2.485 2.485 0 0 0 2.485-2.486ZM113.154 149.621v1.243H110.669v-1.243a1.243 1.243 0 1 1 2.485 0ZM118.126 148.378h-2.485v2.486h2.485v-2.486Z" fill="#333336"/><path d="M119.368 150.864h-1.243v-2.486h1.243a1.244 1.244 0 0 1 0 2.486ZM125.583 148.378h-2.485v2.486h2.485v-2.486ZM129.31 148.378a1.244 1.244 0 1 1-.001 2.487 1.244 1.244 0 0 1 .001-2.487ZM135.522 148.378h-2.485v2.486h2.485v-2.486ZM144.223 148.378a1.243 1.243 0 1 1-.002 2.486 1.243 1.243 0 0 1 .002-2.486ZM75.875 150.864H73.39v2.486h2.485v-2.486ZM78.36 150.864h-2.485v2.486h2.485v-2.486ZM80.846 150.864h-2.485v2.486h2.485v-2.486ZM82.09 153.35h-1.243v-2.486h1.242a1.243 1.243 0 0 1 0 2.486ZM88.305 150.864h-2.486v2.486h2.486v-2.486ZM108.184 152.107v1.243h-2.486v-1.243a1.244 1.244 0 0 1 2.486 0ZM113.154 150.864h-2.485v2.486h2.485v-2.486ZM115.641 152.107v-1.243H118.126v1.243a1.243 1.243 0 1 1-2.485 0ZM125.583 150.864h-2.485v2.486h2.485v-2.486ZM135.522 150.864h-2.485v2.486h2.485v-2.486ZM75.875 153.35H73.39v2.485h2.485v-2.485ZM78.36 153.35h-2.485v2.485h2.485v-2.485ZM88.297 155.835v-2.485h-2.485a2.485 2.485 0 0 0 2.485 2.485ZM90.788 153.35h-2.485v2.485h2.486v-2.485Z" fill="#333336"/><path d="M93.273 153.35h-2.485v2.485h2.485v-2.485Z" fill="#333336"/><path d="M94.515 155.835h-1.243V153.35h1.243a1.242 1.242 0 1 1 0 2.485ZM99.485 153.35a1.242 1.242 0 1 1 .002 2.484 1.242 1.242 0 0 1-.002-2.484ZM103.214 155.835h2.485v-2.485a2.485 2.485 0 0 0-2.485 2.485Z" fill="#333336"/><path d="M108.184 153.35h-2.486v2.485a2.486 2.486 0 0 0 2.486-2.485ZM113.154 153.35h-2.485v2.485h2.485v-2.485ZM120.613 155.835h2.486v-2.485a2.485 2.485 0 0 0-2.486 2.485Z" fill="#333336"/><path d="M125.583 153.35h-2.485v2.485h2.485v-2.485Z" fill="#333336"/><path d="M128.067 153.35h-2.485v2.485h2.485v-2.485ZM130.553 153.35h-2.486v2.485h2.486v-2.485ZM133.04 153.35h-2.485v2.485h2.485v-2.485Z" fill="#333336"/><path d="M135.523 153.35h-2.485v2.485a2.486 2.486 0 0 0 2.485-2.485ZM141.734 153.35h1.243V155.835h-1.243a1.243 1.243 0 0 1 0-2.485ZM142.981 153.35v2.485h2.485a2.484 2.484 0 0 0-2.485-2.485ZM75.875 158.319v-2.485H73.39a2.485 2.485 0 0 0 2.485 2.485ZM78.36 155.834h-2.485v2.486h2.485v-2.486ZM80.846 155.834h-2.485v2.486h2.485v-2.486ZM83.332 155.834h-2.485v2.486h2.485v-2.486Z" fill="#333336"/><path d="M84.571 158.32H83.33v-2.486h1.242a1.243 1.243 0 0 1 0 2.486ZM98.244 157.077v1.243h-2.486v-1.243a1.243 1.243 0 0 1 2.486 0ZM103.214 157.077v-1.243H105.699v1.243a1.243 1.243 0 1 1-2.485 0ZM109.427 155.834h1.242v2.486h-1.242a1.243 1.243 0 1 1 0-2.486Z" fill="#333336"/><path d="M113.154 155.834h-2.485v2.486h2.485v-2.486ZM113.156 155.834v2.486h2.486a2.486 2.486 0 0 0-2.486-2.486ZM123.097 155.834h-2.485v2.486h2.485v-2.486ZM128.068 158.319v-2.485h-2.485a2.484 2.484 0 0 0 2.485 2.485ZM130.554 155.834h-2.485v2.485a2.485 2.485 0 0 0 2.485-2.485ZM139.25 155.834a1.243 1.243 0 1 1 0 2.486 1.243 1.243 0 0 1 0-2.486ZM145.465 155.834h-2.485v2.486h2.485v-2.486ZM80.846 160.806v-2.486H78.36a2.486 2.486 0 0 0 2.486 2.486ZM83.334 158.32h-2.486v2.486a2.486 2.486 0 0 0 2.486-2.486ZM87.062 158.32a1.243 1.243 0 1 1-.001 2.486 1.243 1.243 0 0 1 .001-2.486ZM98.244 158.32h-2.486v2.486h2.486v-2.486ZM106.941 158.32a1.244 1.244 0 1 1-.001 2.487 1.244 1.244 0 0 1 .001-2.487ZM113.154 158.32h-2.485v2.486h2.485v-2.486ZM115.642 158.32h-2.485v2.486h2.485v-2.486Z" fill="#333336"/><path d="M118.126 158.32h-2.485v2.486h2.485v-2.486Z" fill="#333336"/><path d="M120.611 158.32h-2.486v2.486h2.486v-2.486ZM123.097 158.32h-2.485v2.486h2.485v-2.486ZM135.522 159.563v1.243H133.037v-1.243a1.243 1.243 0 1 1 2.485 0ZM145.465 158.32h-2.485v2.486h2.485v-2.486ZM88.304 163.291h2.485v-2.485a2.485 2.485 0 0 0-2.485 2.485Z" fill="#333336"/><path d="M92.03 163.29h-1.242V160.805h1.242a1.243 1.243 0 0 1 0 2.485ZM95.758 162.048v-1.242h2.486v1.242a1.243 1.243 0 1 1-2.486 0ZM108.184 163.291h2.485v-2.485a2.485 2.485 0 0 0-2.485 2.485ZM113.154 160.806h-2.485v2.485h2.485v-2.485ZM115.642 160.806h-2.485v2.485h2.485v-2.485ZM120.614 163.291v-2.485h-2.486a2.486 2.486 0 0 0 2.486 2.485Z" fill="#333336"/><path d="M123.099 160.806h-2.486v2.485a2.486 2.486 0 0 0 2.486-2.485ZM135.523 163.29v-2.485h-2.485a2.484 2.484 0 0 0 2.485 2.485Z" fill="#333336"/><path d="M138.008 160.806h-2.486v2.485h2.486v-2.485Z" fill="#333336"/><path d="M140.493 160.806h-2.485v2.485h2.485v-2.485Z" fill="#333336"/><path d="M142.977 160.805h-2.485v2.485h2.485v-2.485ZM145.465 160.806h-2.485v2.485h2.485v-2.485ZM74.633 163.291a1.242 1.242 0 1 1 0 2.484 1.242 1.242 0 0 1 0-2.484ZM82.09 163.291h1.242V165.776h-1.243a1.243 1.243 0 0 1 0-2.485Z" fill="#333336"/><path d="M85.814 163.291h-2.485v2.485h2.485v-2.485ZM88.305 163.291h-2.486v2.485h2.486v-2.485Z" fill="#333336"/><path d="M90.789 163.291h-2.485v2.485a2.485 2.485 0 0 0 2.485-2.485ZM101.972 163.291h1.242V165.776h-1.242a1.243 1.243 0 1 1 0-2.485ZM104.457 165.776h-1.243V163.291h1.243a1.242 1.242 0 1 1 0 2.485ZM108.184 164.533v-1.242H110.669v1.242a1.243 1.243 0 1 1-2.485 0ZM113.157 164.533v-1.242H115.642v1.242a1.243 1.243 0 1 1-2.485 0ZM124.34 163.291a1.242 1.242 0 1 1 .002 2.484 1.242 1.242 0 0 1-.002-2.484ZM131.797 163.291a1.242 1.242 0 1 1 .002 2.484 1.242 1.242 0 0 1-.002-2.484ZM135.522 164.533v-1.242h2.486v1.242a1.244 1.244 0 0 1-2.486 0ZM142.98 164.533v-1.242H145.465v1.242a1.243 1.243 0 1 1-2.485 0ZM64.965 73.821h-5.518c-2.69 0-4.968 1.777-5.696 4.206a5.77 5.77 0 0 0-.244 1.666v5.649c0 3.239 2.666 5.873 5.94 5.873h5.518c3.274 0 5.94-2.634 5.94-5.873v-5.65c0-3.237-2.666-5.87-5.94-5.87Zm3.33 11.52c0 1.8-1.494 3.265-3.33 3.265H59.447c-1.837 0-3.331-1.465-3.331-3.264v-5.65c0-.561.146-1.09.402-1.553a3.309 3.309 0 0 1 1.018-1.117 3.358 3.358 0 0 1 1.91-.591h5.518c1.836 0 3.33 1.463 3.33 3.262v5.649ZM139.526 73.82h-5.518a5.943 5.943 0 0 0-5.696 4.206 5.83 5.83 0 0 0-.243 1.666v5.649c0 3.24 2.665 5.873 5.939 5.873h5.518c3.275 0 5.94-2.634 5.94-5.873v-5.65c0-3.237-2.665-5.87-5.94-5.87Zm3.33 11.52c0 1.8-1.493 3.265-3.33 3.265H134.009c-1.837 0-3.331-1.465-3.331-3.264v-5.65c0-.561.146-1.09.403-1.553a3.308 3.308 0 0 1 1.017-1.117 3.36 3.36 0 0 1 1.91-.591h5.518c1.837 0 3.33 1.463 3.33 3.262v5.649ZM64.965 148.38h-5.518c-2.69 0-4.968 1.777-5.696 4.206a5.756 5.756 0 0 0-.244 1.666v5.649c0 3.239 2.666 5.873 5.94 5.873l2.759.001 2.759-.001c3.274 0 5.94-2.634 5.94-5.873v-5.649c0-3.238-2.666-5.872-5.94-5.872Zm3.33 11.521c0 1.8-1.494 3.264-3.33 3.264h-2.76l-2.757-.001c-1.837 0-3.331-1.464-3.331-3.263v-5.649c0-.562.146-1.091.402-1.554a3.31 3.31 0 0 1 1.018-1.117 3.362 3.362 0 0 1 1.91-.591h5.518c1.836 0 3.33 1.463 3.33 3.262v5.649Z" fill="#333336"/><path d="M60.515 86.245c-1.125 0-2.04-.897-2.04-1.999v-3.46c0-.343.09-.667.246-.95.152-.273.366-.508.623-.685a2.058 2.058 0 0 1 1.17-.362h3.38c1.124 0 2.04.896 2.04 1.998v3.46c0 1.1-.916 1.998-2.04 1.998h-3.379ZM135.077 86.245c-1.125 0-2.04-.897-2.04-1.999v-3.46c0-.343.089-.667.246-.95.151-.273.365-.508.623-.685a2.058 2.058 0 0 1 1.17-.362h3.379c1.124 0 2.04.896 2.04 1.998v3.46c0 1.1-.916 1.998-2.04 1.998h-3.378ZM60.515 160.806c-1.125 0-2.04-.898-2.04-1.999v-3.46c0-.344.09-.668.246-.951.152-.273.366-.507.623-.684a2.058 2.058 0 0 1 1.17-.362h3.38c1.124 0 2.04.896 2.04 1.997v3.46c0 1.101-.916 1.998-2.04 1.998h-3.379v.001Z" fill="#333336"/><path d="M76.736 179.871c-.065-.726-.592-1.159-1.551-1.159-.955 0-1.432.403-1.437.96-.02.606.567.915 1.492 1.114l.875.198c2.008.443 3.107 1.437 3.117 3.063-.01 1.934-1.512 3.082-4.047 3.082-2.56 0-4.216-1.138-4.246-3.52h2.357c.054.98.77 1.487 1.86 1.487.988 0 1.57-.433 1.58-1.054-.01-.572-.512-.875-1.63-1.134l-1.064-.248c-1.76-.403-2.844-1.273-2.84-2.819-.014-1.894 1.661-3.162 3.988-3.162 2.366 0 3.883 1.288 3.903 3.192h-2.357Zm7.303 7.273c-2.416 0-3.858-1.606-3.858-3.937 0-2.342 1.452-3.943 3.853-3.943 2.123 0 3.495 1.223 3.55 3.102h-2.272c-.094-.78-.547-1.252-1.243-1.252-.85 0-1.412.721-1.412 2.068 0 1.357.557 2.078 1.412 2.078.666 0 1.154-.443 1.243-1.253h2.272c-.065 1.889-1.397 3.137-3.545 3.137Zm6.942-.015c-1.462 0-2.51-.736-2.51-2.247 0-1.69 1.292-2.262 2.838-2.391 1.303-.115 1.81-.214 1.81-.681v-.025c0-.512-.378-.801-.975-.801-.641 0-1.044.299-1.148.786l-2.242-.08c.194-1.392 1.357-2.426 3.41-2.426 1.944 0 3.38.93 3.38 2.546V187h-2.286v-1.064h-.06c-.417.781-1.153 1.193-2.217 1.193Zm.75-1.591c.776 0 1.403-.507 1.403-1.252v-.726c-.274.144-.83.243-1.283.308-.691.104-1.079.403-1.079.895 0 .507.398.775.96.775Zm7.731-2.893V187h-2.43v-7.636h2.311v1.402h.085c.338-.93 1.193-1.502 2.321-1.502 1.606 0 2.655 1.149 2.65 2.869V187h-2.431v-4.39c.005-.845-.452-1.352-1.223-1.352-.77 0-1.278.517-1.283 1.387Zm9.45 4.355v-7.636h2.312v1.402h.085c.318-.93 1.113-1.502 2.157-1.502 1.059 0 1.879.587 2.083 1.502h.08c.283-.91 1.173-1.502 2.302-1.502 1.441 0 2.436.98 2.436 2.595V187h-2.431v-4.584c0-.76-.438-1.173-1.054-1.173-.672 0-1.074.467-1.074 1.198V187h-2.337v-4.609c0-.706-.417-1.148-1.049-1.148-.636 0-1.079.482-1.079 1.238V187h-2.431Zm16.531.144c-2.402 0-3.863-1.486-3.863-3.932 0-2.367 1.481-3.948 3.788-3.948 2.168 0 3.699 1.382 3.699 3.898v.606h-5.091v.065c0 .935.577 1.556 1.511 1.556.637 0 1.134-.273 1.323-.78l2.232.064c-.278 1.502-1.596 2.471-3.599 2.471Zm-1.467-4.787h2.829c-.01-.781-.587-1.338-1.387-1.338-.806 0-1.407.577-1.442 1.338Z" fill="#000"/></svg>
