<svg width="135" height="101" fill="none" xmlns="http://www.w3.org/2000/svg"><rect x="49" y="9" width="38.467" height="73.642" rx="7" fill="#fff" stroke="#333336" stroke-width="2"/><path d="M65.475 13.277h6.438" stroke="#333336" stroke-width="2" stroke-linecap="round"/><path d="M111.539 42.218a6.366 6.366 0 0 0-3.457 1.017c-.163.105-.387-.008-.387-.202v-8.554a5.167 5.167 0 0 0-1.518-3.654 5.153 5.153 0 0 0-3.66-1.501h-8.554c-.195 0-.308-.224-.203-.387A6.447 6.447 0 0 0 88.347 19a6.438 6.438 0 0 0-5.764 3.57 6.447 6.447 0 0 0 .351 6.367c.105.163-.008.387-.202.387h-8.56A5.152 5.152 0 0 0 69 34.479v7.579c0 .148.136.26.283.237a6.439 6.439 0 0 1 7.446 6.367 6.446 6.446 0 0 1-7.446 6.367.244.244 0 0 0-.283.237v7.554a5.164 5.164 0 0 0 3.19 4.79c.628.259 1.302.392 1.982.39h7.55c.149 0 .26-.136.237-.283a6.446 6.446 0 0 1 6.364-7.45 6.44 6.44 0 0 1 6.44 6.444c0 .337-.025.673-.077 1.006a.243.243 0 0 0 .238.283h7.549a5.16 5.16 0 0 0 5.222-5.16v-8.552c0-.194.223-.307.386-.202a6.44 6.44 0 0 0 9.588-3.386 6.443 6.443 0 0 0-6.11-8.483h-.02Z" fill="#CB9EFF" stroke="#333336" stroke-width="2"/><path d="M36.968 33.898c-.493 0-.976.121-1.407.35-.171.092-.398-.024-.398-.218v-3.764a2.42 2.42 0 0 0-2.43-2.42h-3.765c-.195 0-.31-.227-.219-.398a3.025 3.025 0 1 0-5.373-2.773 3.026 3.026 0 0 0 .038 2.773c.091.171-.025.398-.219.398h-3.767A2.417 2.417 0 0 0 17 30.266v3.404c0 .15.136.26.284.245a3.023 3.023 0 0 1 3.344 3.008 3.026 3.026 0 0 1-3.344 3.008c-.148-.015-.284.096-.284.244v3.393A2.425 2.425 0 0 0 19.428 46h3.391c.149 0 .26-.136.244-.284a3.026 3.026 0 0 1 3.007-3.346 3.023 3.023 0 0 1 3.006 3.346c-.015.148.096.284.245.284h3.39a2.42 2.42 0 0 0 2.452-2.422v-3.764c0-.194.226-.31.397-.219a3.024 3.024 0 1 0 1.417-5.697h-.01Z" fill="#FFEA80" stroke="#333336" stroke-width="2"/><path d="M55.649 75.636c-.776 0-1.535.21-2.197.604-.167.1-.392-.015-.392-.21v-5.605a3.474 3.474 0 0 0-3.487-3.472h-5.607c-.194 0-.309-.225-.21-.392A4.342 4.342 0 0 0 40.03 60a4.337 4.337 0 0 0-4.32 4.738c.06.646.263 1.269.593 1.823.1.167-.015.392-.21.392h-5.61a3.467 3.467 0 0 0-3.218 2.14A3.475 3.475 0 0 0 27 70.425v5.01c0 .148.136.26.283.24a4.336 4.336 0 0 1 4.922 4.301 4.341 4.341 0 0 1-4.922 4.302.248.248 0 0 0-.283.24v4.993A3.478 3.478 0 0 0 30.483 93h4.991c.149 0 .26-.136.24-.284a4.342 4.342 0 0 1 4.3-4.925 4.337 4.337 0 0 1 4.337 4.34c0 .196-.013.392-.039.585a.247.247 0 0 0 .24.284h4.991a3.472 3.472 0 0 0 3.517-3.476V83.92c0-.194.224-.308.391-.209a4.336 4.336 0 0 0 6.5-4.388 4.342 4.342 0 0 0-4.289-3.686h-.013Z" fill="#80EBFF" stroke="#333336" stroke-width="2"/></svg>
