<svg width="135" height="101" fill="none" xmlns="http://www.w3.org/2000/svg"><path d="M19.796 15a5 5 0 0 1 5-5h79.97a5 5 0 0 1 5 5v59.219h-89.97V15ZM118.964 74.737a5 5 0 0 1-5 5H15.599a5 5 0 0 1-5-5v-.357h108.365v.357Z" fill="#fff" stroke="#333336" stroke-width="2"/><rect x="91.532" y="17.357" width="38.467" height="73.642" rx="7" fill="#fff" stroke="#333336" stroke-width="2"/><path d="M108.007 21.635h6.438" stroke="#333336" stroke-width="2" stroke-linecap="round"/><path d="M57.655 44.788h-15.12M37.36 44.788h-7.315M46.371 55.717H5" stroke="#333336" stroke-width="2" stroke-linecap="round" stroke-linejoin="round"/><circle cx="78.5" cy="44.5" r="21.5" fill="#B3FFE3" stroke="#333336" stroke-width="2"/><path d="M67.96 49.963c-3.31-5.733-1.346-13.065 4.387-16.375a11.956 11.956 0 0 1 9.63-1.04A11.985 11.985 0 0 1 86 34.745" stroke="#333336" stroke-width="2"/><path d="m82.932 29.015 3.013 5.219a.1.1 0 0 1-.037.136l-5.219 3.014" stroke="#333336" stroke-width="2" stroke-linecap="round"/><path d="M73.184 55.157c1.414.65 2.929 1.01 4.454 1.081 3.251.15 6.551-1.015 9.034-3.498a11.982 11.982 0 0 0 3.104-11.579" stroke="#333336" stroke-width="2"/><path d="m77.63 59.898-4.26-4.262a.1.1 0 0 1 0-.141l4.26-4.261" stroke="#333336" stroke-width="2" stroke-linecap="round"/></svg>
