<svg xmlns="http://www.w3.org/2000/svg" xmlns:xlink="http://www.w3.org/1999/xlink" viewBox="0 0 464.82 789.1"><defs><style>.cls-2{fill:#93dad5}.cls-3{fill:#010101}</style></defs><image width="1520" height="3404" transform="translate(-171.4 -1057.7)" xlink:href="../../../../03_Working/07_Figma/_render/HERO%20-%20full%20color.png" style="opacity:.05" id="Placement"/><g id="Layer_3" data-name="Layer 3"><path class="cls-2" d="M255.87 247a24.8 24.8 0 0 0-1.19-5.37c-.71-1.44.94-1.85 3.82-2.47s22.11-1.34 28.33-2.27 21.9-2.06 28.92-2.37 12.37-.62 14.74-1.24 4.44-.93 4.75.93 1 4.69 1.13 6.31"/><path class="cls-2" d="M255.31 239.17a10.85 10.85 0 0 1-2.14-4.64c-.24-2.27-.13-2.27 5.13-3.3s30.32-2.48 39.5-2.79 25.47-2.37 29.7-2 2.27-.11 4.13 0 2.37-1.18 2.68 1.39a22.29 22.29 0 0 1 0 4.94"/><path class="cls-2" d="M254.51 232.06s-.72-2.69-1.41-5.16 3.34-2.79 10.25-3.41 26.92-1.24 33-1.65 21.46-2.06 26.1-2.16 4.33.31 6.6 0 3-1.45 3.3 1.54a25.88 25.88 0 0 0 1 5M197.83 475.58s-1.59-9.26-2.69-13.94 1.38-3.11 8.25-3.66 12.93-.74 22.28-.74 22 1.71 31.08-.24 22-3.34 30-4.16 8.53-2.75 10 3.58 2.51 7.36-1.48 9.61-11.31 2.76-15.44 2.76h-9.33"/><path class="cls-3" d="M298.62 108.9h8.05l33.61-38.86-1.53-1.69-40.13 40.55z"/><path class="cls-3" d="M337.4 70.81s-2.06-.41-4.12-.75-5.09 0-3-3.37a34.72 34.72 0 0 1 8.46-8.6c2-1.24 2.06.55 2.82 2.34a34.25 34.25 0 0 1 1.31 3.82l-2.63 2.92-1.77-2.92-2.26 2.37 2.5 1.73Z"/><path class="cls-3" d="m342.91 67.1 61.81-16.23s1.24-3.71-1.1-4.54-29.69 7.7-34.92 9c-1.95.49-8.84 2.08-11.34 2.77a72.36 72.36 0 0 0-10.26 3.77c-2.89 1.38-5.59 2.38-5.59 2.38l-4.11 5.46 2.88 1.1Z"/><path class="cls-3" d="M312.29 110.3a1.35 1.35 0 0 1-.83-.27 1.39 1.39 0 0 1-.3-2l30.62-41.81a1.4 1.4 0 0 1 .9-.55c.22 0 22.88-3.8 33.08-5.44 8.51-1.36 23.22-5.74 27.92-7.17l-1.55-4.4a1.39 1.39 0 1 1 2.63-.93l1.65 4.63a2.6 2.6 0 0 1-.13 2 2.54 2.54 0 0 1-1.53 1.29c-4.47 1.37-19.71 5.92-28.55 7.34-9.29 1.49-28.93 4.74-32.5 5.34l-30.28 41.34a1.39 1.39 0 0 1-1.13.63Z"/><path class="cls-3" d="M340.28 108.86a1.41 1.41 0 0 1-1.4-1.33l-1-21a1.4 1.4 0 0 1 .39-1 1.41 1.41 0 0 1 1-.43h20.42c6.71 0 24.43-1.29 36.16-2.14 6.71-.49 10.25-.75 11.08-.75a3 3 0 0 0 1.05-.19 2 2 0 0 1 1.85.14c.82.58.84 1.29.95 4.28v.84a59.32 59.32 0 0 0 .59 6.19 18.39 18.39 0 0 1 .23 5.21c-.52 3.33-2.87 3.59-11.64 4.53l-5.06.56c-12.46 1.43-44.74 4.11-45.07 4.13l-9.41 1Zm.45-21 .88 18.09 8-.87c.36 0 32.6-2.7 45-4.13l5.08-.56c7.62-.82 9-1.06 9.17-2.18a15.8 15.8 0 0 0-.24-4.4 60.5 60.5 0 0 1-.6-6.48v-.83c0-.6 0-1.17-.06-1.61a5.83 5.83 0 0 1-1 .08c-.77 0-5.45.34-10.88.74-11.76.86-29.54 2.15-36.36 2.15Z"/><path class="cls-3" d="M339.26 90a1.41 1.41 0 0 1-1.4-1.32l-1-17.82a1.4 1.4 0 0 1 .53-1.18L342 66a1.41 1.41 0 0 1 .87-.3l46.07.14c3.83 0 14.13.17 15.94 0 .29 0 .54-.06.74-.09a2.52 2.52 0 0 1 2 .3c.74.57.83 1.32 1.07 3.16.05.4.11.87.19 1.41.61 4.43 1.74 13.64 1.75 13.73a1.4 1.4 0 1 1-2.78.34c0-.09-1.14-9.28-1.75-13.69-.07-.55-.14-1-.19-1.44s-.09-.72-.13-1c-.19 0-.41.06-.66.08-2.33.21-15.65 0-16.22 0l-45.56-.14-3.73 3 1 17.09a1.41 1.41 0 0 1-1.27 1.41ZM296.36 127.1a1.4 1.4 0 0 1-1.4-1.4V112c0-.72 0-1.2-.08-1.55a2 2 0 0 1 .46-1.79 1.85 1.85 0 0 1 1.72-.37 12.2 12.2 0 0 0 3.66 0c2.81-.36 10-.69 18.24-1.07 8.62-.4 18.39-.86 23.81-1.4a1.4 1.4 0 0 1 .28 2.79c-5.5.55-15.31 1-24 1.41-7.88.36-15.32.71-18 1a17.26 17.26 0 0 1-3.33.14v14.53a1.4 1.4 0 0 1-1.36 1.41Z"/><path class="cls-2" d="M358.35 115.29a72.85 72.85 0 0 0 1.95 7c1 2.89 1 1.86-4.95 2.89s-30.73 6.81-37.54 7-35.28 6-35.28 6-1-4.95-1.44-8.26-.62-2.26 3.71-2.26 43.73-7.64 52.6-9.08"/><path class="cls-3" d="M282.53 139.6a1.41 1.41 0 0 1-1.37-1.12c0-.2-1-5-1.46-8.36l-.08-.65c-.17-1.25-.28-2.07.37-2.76s1.47-.62 2.51-.54c.55 0 1.31.11 2.3.11 2.79 0 22.08-3.55 36.16-6.14 7.14-1.31 13.31-2.45 16.22-2.92 4.37-.71 12.89-2.07 20.92-3.31h.07c7.93-1.23 15.36-2.36 17.84-2.67a30.35 30.35 0 0 1 3.78-.23h.79a2.06 2.06 0 0 0 0-.33 30 30 0 0 0-1.7-6.39 1.4 1.4 0 0 1 2.61-1 32.05 32.05 0 0 1 1.89 7.19 3.24 3.24 0 0 1-.59 2.56c-.71.78-1.7.78-3 .79a28 28 0 0 0-3.45.21c-2.31.29-9 1.29-16.3 2.43.36 1.44.94 3.67 1.56 5.4l.16.44c.38 1 .68 1.87.17 2.69s-1.44 1-2.95 1.13c-.81.1-1.92.22-3.41.48-1.79.31-5.39 1.07-9.56 2-9.84 2.08-23.31 4.94-28.18 5.08-6.61.2-34.75 5.9-35 6a1.27 1.27 0 0 1-.3-.09Zm-.15-10.6v.13l.09.67c.27 2.16.82 5.09 1.15 6.78 5.84-1.17 28.08-5.55 34.14-5.74 4.61-.14 17.94-3 27.68-5 4.2-.88 7.82-1.65 9.66-2 1.57-.27 2.73-.4 3.58-.5h.47l-.17-.46c-.7-2-1.34-4.43-1.7-5.91-7.63 1.19-15.51 2.44-19.65 3.11-2.89.47-9 1.6-16.17 2.91-19 3.51-33.84 6.19-36.66 6.19-1.04-.1-1.8-.18-2.42-.18Zm77-4.91Z"/><path class="cls-3" d="M275.52 149.29a1.39 1.39 0 0 1-1.21-.7c-.1-.17-2.46-4.28-2.46-7.71 0-.87 0-2.91 10.53-4.08a1.4 1.4 0 0 1 .31 2.79c-3.46.38-7 1.14-8 1.7a15.56 15.56 0 0 0 1.63 5.08c5.95-.81 37.51-5.13 44-6.05 8.83-1.27 25.25-3.81 30.77-5.33a25.06 25.06 0 0 0 3.31-1.07l-.06-.13a10 10 0 0 1-.48-1.1 51 51 0 0 1-1.62-6.93 1.4 1.4 0 0 1 2.76-.46 50 50 0 0 0 1.49 6.44 8.68 8.68 0 0 0 .37.84 2.76 2.76 0 0 1 .3 2.47c-.51 1.14-1.84 1.68-5.33 2.64-7 1.92-28.66 5.05-31.11 5.4-7.14 1-44.6 6.14-45 6.19Zm79-15Z"/><path class="cls-3" d="M270.5 167.31a1.4 1.4 0 0 1-1.4-1.33c0-.12-.55-11.94-1.33-15.07a2.83 2.83 0 0 1 .41-2.44c1.29-1.8 4.55-2.08 9.49-2.5 1.94-.17 4.15-.35 6.39-.66 8.45-1.16 57.51-8.43 58-8.5a1.4 1.4 0 0 1 1.32.53c.75 1 4.48 6 3.15 9.35-1 2.46-4.24 3.61-8.35 5.07-1.73.61-3.51 1.24-5.22 2-1.51.68-5.5 1.42-13 2.77-4.9.88-10.45 1.88-16.19 3.08-15.94 3.32-32.75 7.61-32.92 7.65a1.39 1.39 0 0 1-.35.05Zm0-17.22a.64.64 0 0 0 0 .14c.67 2.66 1.15 10.42 1.33 13.91 4.65-1.17 18.31-4.54 31.39-7.26 5.78-1.2 11.35-2.21 16.26-3.09 6-1.07 11.08-2 12.35-2.57 1.82-.82 3.65-1.47 5.43-2.1 3-1.07 6.17-2.19 6.69-3.47s-.95-4-2.29-6c-6.54 1-49.35 7.31-57.2 8.38-2.32.32-4.56.51-6.53.68-2.93.29-7 .64-7.47 1.38Z"/><path class="cls-3" d="M260.61 180.89a1.41 1.41 0 0 1-1.37-1.13c0-.22-1.13-5.64-1.41-8.71-.3-3.3 5.43-5.14 19.24-8.26l3.5-.8a1.4 1.4 0 0 1 .64 2.73l-3.52.8c-5.2 1.18-16 3.61-17.06 5.39.28 2.94 1.35 8.25 1.36 8.3a1.4 1.4 0 0 1-1.1 1.65 1.27 1.27 0 0 1-.28.03ZM332.1 165.83a1.41 1.41 0 0 1-1.3-.87 1.39 1.39 0 0 1 .78-1.82l.78-.3c2.42-.91 3.85-1.61 4.23-2.09-.32-1.39-2-6.17-3.12-9a1.39 1.39 0 0 1 .81-1.8 1.4 1.4 0 0 1 1.81.81c.3.81 3 8 3.3 9.7.42 2.56-3.32 4-6.05 5l-.72.27a1.34 1.34 0 0 1-.52.1Z"/><path class="cls-3" d="M254.55 196.25a1.38 1.38 0 0 1-1.38-1.17 109.08 109.08 0 0 1-1.4-12.87c0-1.53 0-2.74 27-8.11 12.8-2.54 25.76-4.81 25.89-4.83l20.91-4.68c1-.54 4.68-2.38 7.47-1 1 .51 2.36 1.69 2.69 4.37a20.82 20.82 0 0 0 1 4.06c.48 1.5.89 2.79.18 4s-2.68 2.07-5.9 2.83c-8.06 1.9-75.41 17.17-76.09 17.33a1.63 1.63 0 0 1-.37.07Zm0-13.47a100.34 100.34 0 0 0 1.11 10.38c9.94-2.26 67.22-15.25 74.6-17 3.29-.77 4-1.26 4.12-1.48a5.65 5.65 0 0 0-.42-1.81 23.93 23.93 0 0 1-1.07-4.56c-.22-1.75-.92-2.1-1.15-2.21-1.34-.67-4 .4-5 1a1.52 1.52 0 0 1-.4.16L305.19 172c-22.27 3.9-46.92 8.88-50.6 10.78Z"/><path class="cls-3" d="M250.25 211.16a4 4 0 0 1-1.92-.4 2.39 2.39 0 0 1-1.2-1.56 22.58 22.58 0 0 1-.53-4.07 26.25 26.25 0 0 0-.83-5.54 3.88 3.88 0 0 1 .66-3.43c2.06-2.63 7.51-2.71 8.12-2.71a1.4 1.4 0 0 1 0 2.8c-1.93 0-5 .52-5.91 1.63a1.06 1.06 0 0 0-.16 1 29.2 29.2 0 0 1 .92 6.06 19.8 19.8 0 0 0 .41 3.38c1.59.42 8.12-1.92 12.48-3.48a104.65 104.65 0 0 1 12.61-4c4.31-.89 10.9-2.52 17.27-4.09 7.37-1.82 15-3.7 19.13-4.44 2.59-.47 4.13-.7 5.26-.87a21 21 0 0 0 5.44-1.34 11.39 11.39 0 0 0 2.91-1.26 4.92 4.92 0 0 0 .21-1.84c0-.52 0-1.13.07-1.85.23-3.93-.95-5.49-1-5.51a1.4 1.4 0 0 1 .2-1.95 1.36 1.36 0 0 1 1.93.15c.2.22 1.93 2.37 1.63 7.47 0 .69-.06 1.27-.07 1.76-.1 3.7-.72 4.16-5 5.67a23.68 23.68 0 0 1-6 1.54c-1.11.17-2.63.39-5.17.85-4.05.73-11.63 2.6-19 4.41-6.39 1.58-13 3.21-17.38 4.11a104.75 104.75 0 0 0-12.23 3.85c-6.1 2.22-10.25 3.66-12.85 3.66Z"/><path class="cls-2" d="M122.62 708.61s5.82-.05 14.69-.67 40.64-2.89 42.5-3.3 2.47.48 1.44 1.79c0 0-4.33 5 2.48 1.78s4.33-2.13 6.8-3.16 1.86-1.44-1-2.89-2.47-1.24-1.65-6.39 15.06-53 15.06-55.49.21-2.06-2.06-2.48-2.68 4.13-5.78 12.79-13.41 48.68-13.41 48.68-54.25 4.34-58.17 4.13-3.76 2.78-3.76 4 2.86 1.21 2.86 1.21Z"/><path class="cls-3" d="M180.51 710.38a1.66 1.66 0 0 1-1.42-.64c-.68-.9-.23-2.26 1.33-4v-.05l-.4.07c-2.26.5-42.25 3.3-42.66 3.32-8.68.61-14.55.67-14.76.68-.56 0-2.49 0-3.44-1a1.86 1.86 0 0 1-.57-1.34v-.13a5.12 5.12 0 0 1 1.26-3.9 4.76 4.76 0 0 1 3.67-1.1c3 .15 38.29-2.55 57.24-4.06 1.48-5.74 10.36-40 13.24-48 .9-2.52 1.58-4.72 2.13-6.49 1.49-4.83 2.32-7.5 4.89-7l.75.13c2 .3 2.24.89 2.22 2.88v.56c0 1.28-2.41 9.93-7.53 28-3.51 12.41-7.15 25.23-7.54 27.68-.11.65-.2 1.22-.29 1.71a8.55 8.55 0 0 0-.27 2.55 5.29 5.29 0 0 0 1.61 1c2 1 3.23 1.62 3.19 2.83s-1.12 1.61-2.23 2.07-1.19.5-1.72.76-1.63.8-5.05 2.39a10 10 0 0 1-3.65 1.08Zm.13-7a2.14 2.14 0 0 1 2 .92c.23.36.64 1.36-.47 2.76-.23.27-.45.56-.64.83a19 19 0 0 0 1.78-.73c3.39-1.58 4.47-2.11 5-2.37s.56-.28 1.84-.81l.31-.14c-.45-.26-1-.54-1.41-.74-3.09-1.54-3.18-2.11-2.53-5.88.08-.48.18-1 .28-1.68.41-2.58 3.9-14.89 7.6-27.93 3.28-11.6 7.37-26 7.44-27.39v-1.19l-.34-.05-.81-.14c-.66-.11-1.52 2.74-2.38 5.5-.55 1.79-1.24 4-2.15 6.58-3.05 8.51-13.28 48.18-13.38 48.58a1.12 1.12 0 0 1-1 .83c-2.22.18-54.38 4.34-58.31 4.13a2.69 2.69 0 0 0-2 .49 3.09 3.09 0 0 0-.57 2.23 5.5 5.5 0 0 0 1.76.27c.06 0 5.9-.06 14.63-.67 13.12-.91 40.73-2.92 42.33-3.28a4.86 4.86 0 0 1 1.02-.07Zm-59.8 4Z"/><path class="cls-3" d="M180 700.51a1.11 1.11 0 0 1-1.09-.92c-1.1-6.38-15.55-16.64-29.16-20.71-13.39-4-27.79-1.24-27.94-1.21a1.11 1.11 0 1 1-.43-2.17c.61-.13 15.08-2.9 29 1.26 11.35 3.39 24.6 11.45 29.17 18.71l9.85-57.88a1.11 1.11 0 1 1 2.19.37l-10.5 61.63a1.11 1.11 0 0 1-1.09.92Z"/><path class="cls-3" d="M180 700.51a1.12 1.12 0 0 1-.53-.13 141.58 141.58 0 0 0-26.61-10.14c-16-4.45-33-4.5-33.17-4.5a1.11 1.11 0 1 1 0-2.22c.17 0 17.51.05 33.77 4.58a145 145 0 0 1 27.07 10.33 1.11 1.11 0 0 1 .45 1.5 1.12 1.12 0 0 1-.98.58Z"/><path class="cls-3" d="M177.12 700.74a1.15 1.15 0 0 1-.31 0c-.09 0-9.14-2.64-18.48-4.67s-37.72-4.3-38.6-4.31a1.11 1.11 0 1 1 0-2.22c.94 0 29.46 2.27 39.07 4.36 9.41 2 18.54 4.68 18.63 4.71a1.11 1.11 0 0 1-.31 2.17Z"/><path class="cls-3" d="M134.06 700.77h-14.37a1.11 1.11 0 0 1-1.07-1.14 1.09 1.09 0 0 1 1.14-1.07h33.1c-15-1.28-32.92-2.3-33.19-2.31a1.11 1.11 0 0 1-1-1.17 1.1 1.1 0 0 1 1.17-1c1.74.1 42.75 2.43 52 4.54a1.12 1.12 0 0 1 .86 1.21 1.1 1.1 0 0 1-1.1 1c-1.39-.09-22.6-.06-37.54-.06Z"/><path class="cls-2" d="M207.52 687.17c1.86 4.22 4.21 8.06 4.21 10.22s-.09 4.91.74 5.73 18.73 2.6 25.44 1.94c7.15-.7 62.16-2.82 68.76-3.92s8.66.5 10.59-1.51.27-6.68 0-11.08 1.65-4.68-2.75-5.78-19.25-.27-20.63 0-44 1-51.43 1c-5.28 0-20.35-.33-27.23 0s-9.22-.08-7.7 3.4Z"/><path class="cls-3" d="M234.65 706.58c-7.61 0-21.84-1.13-23.17-2.46-1.09-1.09-1.16-3.15-1.15-6.17v-.56c0-1.17-1.12-3.45-2.3-5.87-.6-1.21-1.21-2.46-1.79-3.78-.47-1.07-.92-2.44-.19-3.61 1-1.54 3.08-1.62 7.28-1.77l1.83-.06c4.9-.2 14-.1 20.59 0 2.77 0 5.15.06 6.7.06 7.39 0 49.23-.69 51.2-1 1.54-.31 16.52-1.15 21.2 0 3.28.82 4.24 1.53 3.91 4.36a13.35 13.35 0 0 0-.1 2.69c.07 1.24.27 2.53.46 3.78.5 3.32 1 6.45-.85 8.36-1.51 1.58-3.15 1.55-5.23 1.52a30.21 30.21 0 0 0-6.14.4c-4 .67-24.87 1.67-43.26 2.56-12.2.59-22.75 1.1-25.59 1.38-.83.13-2.05.17-3.4.17ZM213.41 702c2.57.75 18.32 2.26 24.36 1.66 2.92-.29 13.49-.8 25.74-1.39 17.41-.84 39.07-1.88 42.93-2.52a33.36 33.36 0 0 1 6.65-.44c1.94 0 2.52 0 3.16-.65.88-.92.48-3.51.1-6-.2-1.31-.4-2.66-.49-4a16.2 16.2 0 0 1 .12-3.19c0-.25.06-.54.07-.71a9 9 0 0 0-1.88-.6c-4.09-1-18.8-.23-20 0-1.67.33-45.64 1-51.7 1-1.55 0-3.95 0-6.73-.06-6.59-.08-15.62-.18-20.44 0l-1.85.07a21.47 21.47 0 0 0-5 .46 4.11 4.11 0 0 0 .33 1c.56 1.26 1.16 2.49 1.74 3.68 1.45 3 2.59 5.28 2.59 7.1v.59a16.94 16.94 0 0 0 .3 4Zm.07.15Zm-.29-.22Z"/><path class="cls-3" d="M210.23 685.31a1.41 1.41 0 0 1-1.32-.92c0-.1-3.41-9.44-5.25-14.33-1-2.78-1.53-4.94-.5-6.42.88-1.28 2.47-1.45 3.91-1.45H223.6c7.36 0 19.69 0 24 .54s10.94-.3 15.83-.9l1.78-.22c4.73-.57 11.13-.3 16.28-.08l1.68.07c1.57.06 4.16.09 7.15.12 6.77.06 15.2.14 18 .73l.59.12c3.28.68 3.58 1.27 4.21 5.13.15.9.34 2 .62 3.49 1.49 7.67.39 11.56.34 11.73a1.4 1.4 0 0 1-2.69-.79c0-.06.94-3.53-.4-10.41-.29-1.48-.48-2.64-.63-3.57a11.29 11.29 0 0 0-.53-2.45 7.19 7.19 0 0 0-1.48-.38l-.61-.13c-2.57-.54-11.19-.62-17.48-.67-3 0-5.63-.06-7.24-.12l-1.69-.07c-5-.22-11.32-.48-15.83.06l-1.76.22c-5 .62-11.94 1.47-16.53.9-4.17-.53-16.87-.52-23.69-.52h-16.53c-1.4 0-1.61.24-1.61.25s-.37.66.82 3.84c1.84 4.9 5.23 14.26 5.27 14.36a1.41 1.41 0 0 1-.84 1.79 1.34 1.34 0 0 1-.4.08Z"/><path class="cls-2" d="M239 643.17c6.81.2 40-.5 46 0s20.63 1.71 25.58-.16 6.93-2.07 7.59-3.31 0-4.13-1.2-5.78-4.33-1.65-9.9-1-17.33 1.86-23.72 1.86-13.23-1-22.19-.41-14.73 1.23-22.37 1.65-15.47 1-15.05 3.5a8.61 8.61 0 0 0 1.44 3.76"/><path class="cls-3" d="M208.54 665.06a1.4 1.4 0 0 1-1.35-1c-1.51-5.81-4.05-15.38-4.45-16.31a1.91 1.91 0 0 1-.09-1.73c.5-1.12 1.88-1.76 5.92-2.72 2.31-.55 8.23-1 14.42-1.23a13 13 0 0 1-.63-2.34 2.47 2.47 0 0 1 .54-2c1.61-2 6.81-2.65 15.83-3.14 4.4-.24 8.25-.55 12.33-.88 3-.25 6.24-.51 10-.77a115.44 115.44 0 0 1 15.17.13c2.49.14 4.84.28 7.12.28 5.74 0 16-1 23.57-1.85 6.24-.69 9.51-.63 11.17 1.58 1.44 1.92 2.33 5.38 1.31 7.28-.71 1.34-2.08 1.8-4.57 2.64-1 .33-2.24.75-3.76 1.32-5 1.87-18.06.87-25.09.33l-1.09-.09c-3.39-.25-16-.13-27.17 0-8.16.08-15.86.16-18.76.07-7.16-.22-25.79.46-29.75 1.4a25.15 25.15 0 0 0-3.75 1.1c.79 2.35 2.78 9.89 4.43 16.24a1.4 1.4 0 0 1-1 1.71 1.47 1.47 0 0 1-.35-.02Zm-3.33-18.66Zm70.79-4.83c4.22 0 7.57 0 9.13.16l1.08.08c5.84.45 19.51 1.5 23.89-.15 1.57-.59 2.84-1 3.86-1.36 1.56-.52 2.8-.94 3-1.3.3-.56 0-2.84-1.08-4.28-.91-1.22-4.93-.89-8.62-.48-7.66.85-18 1.87-23.88 1.87-2.36 0-4.75-.14-7.28-.28a111.72 111.72 0 0 0-14.81-.14c-3.77.26-7 .52-10 .77-4.1.33-8 .65-12.41.89-8.24.44-12.85 1.12-13.73 2a8.5 8.5 0 0 0 .87 2.54c5.2-.17 10.21-.23 13-.14s10.53 0 18.65-.07c6.33-.04 13-.11 18.33-.11Z"/><path class="cls-3" d="m306.71 663.86-.53-11.86a24.9 24.9 0 0 0-1.62-7.65 1.4 1.4 0 1 1 2.57-1.1 27.44 27.44 0 0 1 1.85 8.63l.53 11.84ZM226.84 638.64a1.39 1.39 0 0 1-1.37-1.13l-1-4.76a28.2 28.2 0 0 1-.53-5.27l-.71-4.3a1.42 1.42 0 0 1 1.16-1.61 1.39 1.39 0 0 1 1.61 1.15l.73 4.42a.89.89 0 0 1 0 .23 24.49 24.49 0 0 0 .48 4.83l1 4.76a1.4 1.4 0 0 1-1.1 1.65Z"/><path class="cls-3" d="M295.4 634.21s-1.66-8.31-2.48-12.65a10.84 10.84 0 0 1-.1-3.3v-.18c-.88-.07-2.75 0-3.63.08-4.08.23-22.91 2-39.53 3.47-13.73 1.25-26.7 2.44-30.58 2.72-5.09.36-5.75.31-6.74.17a20.3 20.3 0 0 0-3.47-.17 14 14 0 0 0-3.5.42 2.83 2.83 0 0 1-2.43-.17c-.88-.62-1-1.54-1.27-4l-.16-1.4c-.42-3.44-.48-4.27-.51-4.72a16.15 16.15 0 0 0-.31-2 6.7 6.7 0 0 0-.39-1.39 1.52 1.52 0 0 1 2-2.12 14.58 14.58 0 0 0 4.74.42c2.55-.07 5.54-.1 8.7-.13 5.37 0 10.93-.09 14.28-.4 2.43-.22 6.21-.73 10.22-1.26 4.69-.63 9.55-1.28 12.49-1.51 2.45-.18 6.65-.28 11.51-.4 5.7-.14 12.16-.29 16.55-.63 2.12-.16 3.59-.25 4.69-.32a29.7 29.7 0 0 0 7.06-1.09 20.63 20.63 0 0 1 2.25-.39c-.36-.75-.84-1.83-1.39-3.34a25.27 25.27 0 0 1-1.55-5.62 2.23 2.23 0 0 0-.07-.37 6.4 6.4 0 0 0-.74-.8 1.41 1.41 0 0 1 0-2 1.39 1.39 0 0 1 2 0c1.16 1.15 1.42 1.52 1.6 2.76A22.53 22.53 0 0 0 296 599a33.78 33.78 0 0 0 1.55 3.62c.45.93.8 1.66.34 2.47s-1.25.85-2 .91a18.15 18.15 0 0 0-2.73.41 32.13 32.13 0 0 1-7.51 1.15c-1.1.07-2.55.16-4.66.32-4.46.35-11 .5-16.7.64-4.61.11-9 .21-11.35.4-2.87.22-7.68.86-12.34 1.48-4 .54-7.84 1-10.33 1.28-3.47.32-9.09.37-14.52.41-3.15 0-6.12.06-8.64.13a23.16 23.16 0 0 1-3.63-.14 18 18 0 0 1 .34 2.26c0 .39.08 1.2.49 4.56l.16 1.42c.08.67.16 1.33.23 1.77h.07a16.67 16.67 0 0 1 4.12-.49 22.81 22.81 0 0 1 3.87.2c.68.09 1.14.16 6.14-.2 3.86-.27 16.81-1.46 30.53-2.71 17.45-1.6 35.49-3.25 39.63-3.47 3.75-.21 5.13-.21 6 .7a2.9 2.9 0 0 1 .54 2.46 7.71 7.71 0 0 0 .06 2.51c.82 4.33 2.47 12.62 2.47 12.62Z"/><path class="cls-3" d="M279.48 618.94a1.41 1.41 0 0 1-1.36-1.07L275.41 607a1.4 1.4 0 1 1 2.72-.68l2.71 10.85a1.43 1.43 0 0 1-1.36 1.74ZM207.5 612h-.06a1.41 1.41 0 0 1-1.34-1.46 34.45 34.45 0 0 0-.39-7.09c-.27-1.11-.55-2.25.15-3.23.85-1.2 2.37-1.35 6.89-1.78h.13l.75-.06a31.75 31.75 0 0 0-1.84-8.1c-.41-1.09-.85-2.7 0-4s2.94-1.7 5.06-1.83c1.71-.11 3.3-.11 5.5-.12s4.91 0 9-.11c8.17-.2 57.56-3.9 62.42-4.32 5.05-.45 5.7.37 6.74 4.72.09.39.19.82.31 1.28.29 1.15.55 2 .75 2.6.36 1.13.6 1.87.18 2.66s-1.16 1-2.12 1.32l-.76.25c-1.81.6-6.35 1.14-11.61 1.77-4.22.5-8.58 1-11.46 1.58-4.52.87-29.13 2.67-47.1 4-5.75.42-10.6.77-13.46 1l-2.08.18H213a35.38 35.38 0 0 0-4.79.63c0 .28.15.72.2.94a36 36 0 0 1 .47 7.88 1.4 1.4 0 0 1-1.38 1.29Zm88.5-29.44c-.66 0-1.49.07-2 .12-4.87.42-54.38 4.13-62.59 4.33-4.11.11-6.85.11-9.06.11s-3.7 0-5.32.11c-2.28.14-2.79.42-2.89.57s-.17.32.28 1.51a34.83 34.83 0 0 1 2 8.85c2.92-.23 7.16-.54 12-.89 16.89-1.24 42.42-3.11 46.77-3.95 3-.58 7.4-1.11 11.67-1.61 4.68-.56 9.52-1.13 11.06-1.65l.8-.26.23-.07-.12-.39c-.21-.64-.49-1.53-.8-2.77-.12-.48-.22-.91-.32-1.31a7.85 7.85 0 0 0-.82-2.56 2.1 2.1 0 0 0-.89-.14Z"/><path class="cls-3" d="M218.42 587.23a1.41 1.41 0 0 1-1.37-1.07l-3-12.8a1.4 1.4 0 1 1 2.73-.65l3 12.8a1.41 1.41 0 0 1-1 1.69ZM290.43 583a1.41 1.41 0 0 1-1.4-1.3c0-.09-.15-2.23-.15-5.74 0-3.31-.07-4.74-1.89-7.11a1.4 1.4 0 1 1 2.22-1.7c2.36 3.06 2.47 5.23 2.47 8.81 0 3.41.15 5.52.15 5.54a1.4 1.4 0 0 1-1.3 1.49Z"/><path class="cls-3" d="M203.18 574.81a2.94 2.94 0 0 1-2.34-.65 2.82 2.82 0 0 1-.58-2.3 20.29 20.29 0 0 0-.11-2.8 21.23 21.23 0 0 1 0-5.19 9.1 9.1 0 0 0 0-2.23c0-.27-.08-.49-.11-.65a1.79 1.79 0 0 1 .35-1.7 1.94 1.94 0 0 1 1.83-.42 23.66 23.66 0 0 0 6.21 0c9.68-1 33.7-3.33 42-3.92l2.6-.19c10.25-.73 29.33-2.1 35-2.29 3.25-.11 5.31-.22 6.53-.3-.25-2.15-.57-4.43-1.06-7.35a29.25 29.25 0 0 0-1.17-4.66c-.42-1.29-.73-2.22-.21-3.17s1.74-1.35 4.27-2c.76-.2 1.44-.36 2-.49a15.26 15.26 0 0 0 2-.55 21.2 21.2 0 0 0-1.19-3.25 33.4 33.4 0 0 1-1.42-4.2c-.6-2.16-.6-2.16-2.56-2.16-.22 0-26.67.82-36.48.82a211.69 211.69 0 0 0-30.25 1.84 71.27 71.27 0 0 0-9.39 2 23.23 23.23 0 0 1-8.66 1.17c-5.72-.4-7.18-.28-13 1.12-1.76.42-3.1.76-4.24 1-2.76.69-4.28 1.07-7.37 1.66-.6.11-1.09.22-1.5.32-3.19.73-3.71-.1-5.19-3.4-.23-.52-.5-1.13-.83-1.83-.63-1.37-1.27-2.46-1.83-3.43-1.1-1.9-1.89-3.27-1.27-4.69s2-1.85 4.07-2.3a95.85 95.85 0 0 1 12.64-1.18 133.75 133.75 0 0 0 14.63-1.31c3.73-.66 11.54-1.62 19.82-2.64 9.78-1.2 19.89-2.45 24.31-3.33h.15c8.26-1.66 12.41-2.48 13.54 2.32.61 2.62 1.76 7.49 2.3 9.76 11.75-.21 28.35-.73 28.56-.73 3.94 0 4.55 1.52 5.3 4.21a29.55 29.55 0 0 0 1.3 3.86c1.17 2.79 1.82 4.32 1.14 5.65s-1.92 1.5-3.91 2l-2 .48a24.71 24.71 0 0 0-2.38.68c.06.25.18.6.28.92a31.35 31.35 0 0 1 1.27 5.06c.58 3.46.93 6 1.19 8.54a1.19 1.19 0 0 1 .11.42 1.35 1.35 0 0 1 0 .45c.24 2.55.39 5.16.6 8.69.23 4.17.23 5.59-.71 6.49a3 3 0 0 1-2.58.53 10.61 10.61 0 0 0-1.58-.09c-1.28 0-4.46.29-8.49.62-6.81.55-16.14 1.3-23.59 1.56-7.06.25-14.73 1-22.16 1.62-5 .46-10.22.94-15.22 1.27-10.38.69-14.23.24-15.37 0a29.76 29.76 0 0 1-4.56.34Zm-.13-2.8h.78a24.07 24.07 0 0 0 4.33-.33 1.42 1.42 0 0 1 .71 0c.09 0 3.07.73 14.78-.06 5-.33 10.15-.8 15.16-1.26 7.46-.67 15.17-1.38 22.31-1.63 7.39-.25 16.68-1 23.46-1.55 4.08-.33 7.29-.6 8.65-.63a14.46 14.46 0 0 1 1.94.1h.3a39.15 39.15 0 0 0-.1-4.1c-.17-3.06-.31-5.42-.51-7.65-1.23.08-3.34.19-6.71.31-5.62.18-24.66 1.55-34.89 2.28l-2.6.19c-8.29.59-32.27 2.94-41.94 3.91a30.28 30.28 0 0 1-5.74.15 11.22 11.22 0 0 1-.08 2.38 18.72 18.72 0 0 0 0 4.6 22.92 22.92 0 0 1 .12 3.16.28.28 0 0 0 .03.12Zm-25.22-49.93a11.84 11.84 0 0 0 1.1 2.16 40.91 40.91 0 0 1 1.94 3.65c.34.71.61 1.33.85 1.86a16.87 16.87 0 0 0 1 2c.22 0 .63-.12 1-.21s1-.22 1.6-.34c3-.58 4.51-1 7.22-1.62l4.27-1.05c6-1.46 7.85-1.62 13.83-1.19a20.28 20.28 0 0 0 7.72-1.08 73.45 73.45 0 0 1 9.72-2.09 214.45 214.45 0 0 1 30.73-1.87h5c-.57-2.45-1.59-6.75-2.16-9.17-.45-1.92-1.6-1.95-10.26-.22h-.15c-4.53.91-14.69 2.16-24.52 3.37-8.24 1-16 2-19.66 2.62a134.7 134.7 0 0 1-15 1.35 94.6 94.6 0 0 0-12.18 1.11 6.11 6.11 0 0 0-2.05.72Z"/><path class="cls-3" d="M210.34 546.58a1.39 1.39 0 0 1-1.37-1.09l-3.52-15.9a1.4 1.4 0 0 1 2.74-.61l3.51 15.9a1.4 1.4 0 0 1-1.06 1.67 1.53 1.53 0 0 1-.3.03Z"/><path class="cls-3" d="M203 561.33a1.4 1.4 0 0 1-1.2-.69 41.26 41.26 0 0 1-3.9-9.11c-.1-.35-.19-.67-.28-1-.51-1.8-.84-3-.14-4s2.24-1.37 5.74-1.82l.54-.07c1.51-.19 3.65-.48 6.17-.82 8.21-1.11 20.63-2.78 27.78-3.37 3.36-.28 8.7-.94 14.34-1.63 10.09-1.24 21.53-2.65 27.48-2.65h14a1.4 1.4 0 1 1 0 2.8h-14c-5.78 0-17.12 1.4-27.14 2.63-5.67.7-11 1.36-14.45 1.64-7.08.58-19.45 2.25-27.64 3.35l-6.18.83-.55.07a26.54 26.54 0 0 0-3.68.6 14.68 14.68 0 0 0 .43 1.72c.09.31.18.64.28 1a39.42 39.42 0 0 0 3.6 8.41 1.4 1.4 0 0 1-.48 1.92 1.45 1.45 0 0 1-.72.19ZM289.31 515.61a11.32 11.32 0 0 1-1.81-.22l-1.06-.18c-2.12-.33-3.49-.48-5.39-.69-1.55-.17-3.44-.37-6.33-.75l-6.74-.88c-6.62-.88-14.86-2-19-2.41a187.24 187.24 0 0 0-22.75-1c-8.54.22-28.84 1.05-33.55 2.15-2.46.58-4.42.34-5.83-.7s-2.11-2.65-2.28-5c-.21-2.88-.83-10.92-.83-10.92 0-.33-.05-.63-.08-.89-.12-1-.23-2 .56-2.7a2.69 2.69 0 0 1 2.46-.36c1.71.38 11.86 1 21.9 1.2 10.38.21 71.76 6.52 76.15 7a22.31 22.31 0 0 0 3.75.08c1.44-.06 2.58-.11 3.4.8s.75 2 .52 3.6a36.65 36.65 0 0 0-.54 5c0 .41 0 .9-.06 1.53v1c-.09 2.06-.13 3.09-1 3.8a2.2 2.2 0 0 1-1.49.54Zm-59.72-9c8.93 0 17.18.81 19.72 1.08 4.14.45 12.4 1.54 19 2.42l6.73.89c2.87.37 4.73.57 6.28.74 1.93.21 3.33.36 5.52.71l1.1.18c.32.06.66.12.92.15 0-.39.06-1 .09-1.56v-1.05c0-.62.05-1.1.07-1.51a36.5 36.5 0 0 1 .56-5.35 7 7 0 0 0 .1-1.21 11.1 11.1 0 0 0-1.13 0 25.93 25.93 0 0 1-4.19-.1c-6.26-.72-65.92-6.81-75.89-7-9.16-.18-19.28-.74-22.07-1.2 0 .28.06.59.09.94 0 .08.62 8.06.82 10.94a3.92 3.92 0 0 0 1.16 3c.71.53 1.9.6 3.52.22 5.47-1.27 28.3-2.07 34.12-2.22 1.21-.05 2.35-.07 3.48-.07Z"/><path class="cls-3" d="M207.71 494.34c-3.46 0-7.12-.1-10.65-.3-16.75-1-17.14-3.28-17.33-4.39l-.1-.65c-.45-2.68-.54-3.23-1.53-7.81a4.24 4.24 0 0 1 .47-3.54c1.17-1.61 3.48-1.84 7.3-2.21l.61-.06a50.58 50.58 0 0 0 7.79-1.49c2-.49 4.2-1 7-1.53a138.37 138.37 0 0 1 14.74-.86c7.38-.21 15.74-.45 21.83-1.34 11.26-1.64 36.71-2.72 37.79-2.77a1.39 1.39 0 0 1 1.45 1.26 93.86 93.86 0 0 0 2.17 11.9c.69 2.77.53 4.73-.51 6.16-1.71 2.36-5.33 2.63-10.34 3-7.51.56-9.31.56-19.28.56a106.3 106.3 0 0 0-18.59 2c-2.92.48-5.94 1-9.39 1.44a109 109 0 0 1-13.43.63ZM182.46 489c2.72 2.2 27 3.44 38.35 1.92 3.4-.46 6.4-1 9.3-1.44a109.6 109.6 0 0 1 19-2 190.32 190.32 0 0 0 19-.55c4.13-.3 7.37-.54 8.31-1.85.51-.7.53-2 .06-3.84a97.42 97.42 0 0 1-2.08-11c-5.43.24-26.52 1.27-36.2 2.68-6.26.91-14.71 1.16-22.16 1.37a140.74 140.74 0 0 0-14.35.82c-2.74.47-4.82 1-6.84 1.49a54.37 54.37 0 0 1-8.19 1.55l-.6.06c-2.51.25-4.88.48-5.32 1.08a2 2 0 0 0 0 1.3c1 4.64 1.1 5.21 1.56 7.94Z"/><path class="cls-3" d="M197.83 476a1.41 1.41 0 0 1-1.37-1.14c0-.08-1.6-8.28-2.68-12.88-.34-1.44-.54-2.93.31-4s2.54-1.22 4.93-1.22c1.15 0 2.59 0 4.26-.15 6.78-.54 12.85-.74 22.39-.74 2.91 0 6.07.16 9.42.33 7.5.38 15.26.77 21.37-.54 9.48-2.05 23.42-3.49 30.13-4.18 1.69-.18 3.05-.41 4.15-.59 4.78-.8 6-.41 7.39 5.23.21.86.4 1.63.58 2.31 1.13 4.38 1.64 6.38-2.73 8.85-4.84 2.73-13.57 2.94-16.13 2.94h-9.35a1.4 1.4 0 1 1 0-2.8h9.35c4.92 0 11.38-.68 14.75-2.58 2.5-1.41 2.48-1.49 1.4-5.71-.18-.7-.38-1.48-.59-2.36s-.73-3-1.23-3.34c-.34-.22-1.56 0-3 .22-1.13.19-2.55.43-4.33.61-6.65.69-20.49 2.12-29.83 4.13-6.47 1.4-14.41 1-22.09.61-3.32-.17-6.44-.33-9.28-.33-9.46 0-15.47.2-22.17.73-1.78.15-3.27.15-4.47.16a11.28 11.28 0 0 0-2.73.17 4.68 4.68 0 0 0 .2 1.62c1.1 4.65 2.69 12.91 2.71 13a1.39 1.39 0 0 1-1.09 1.65 1.24 1.24 0 0 1-.27 0Z"/><path class="cls-3" d="M208.31 459a1.39 1.39 0 0 1-1.39-1.28c0-.09-.82-9.45-1.48-12.91-.09-.51-.19-.88-.25-1.15a1.88 1.88 0 0 1 .26-1.95 1.78 1.78 0 0 1 1.78-.39 12.31 12.31 0 0 0 4.73-.08 80.1 80.1 0 0 1 9.41-.73 91.23 91.23 0 0 0 16.41-1.73c10.28-2.29 40.71-4.45 50.29-4.71 9.83-.26 14.74-1.58 14.79-1.6a1.4 1.4 0 0 1 1.19.22 1.38 1.38 0 0 1 .58 1.07c.26 5.64.72 12 1 12.93a1.4 1.4 0 0 1-.71 2.53 13.77 13.77 0 0 0-3.75 1.52 21.62 21.62 0 0 1-10.88 2.51 1.4 1.4 0 1 1 .25-2.79 19.2 19.2 0 0 0 9.36-2.22c1.13-.57 2.11-1 2.92-1.32-.41-2.25-.75-8-.93-11.38a85.79 85.79 0 0 1-13.77 1.32c-9.82.27-40 2.48-49.75 4.64a93.48 93.48 0 0 1-16.9 1.79 79.49 79.49 0 0 0-9.07.7 17.72 17.72 0 0 1-4.23.27c.68 3.6 1.48 12.8 1.51 13.19a1.4 1.4 0 0 1-1.27 1.52Z"/><path class="cls-3" d="M220.33 443.39a1.39 1.39 0 0 1-1.39-1.28 52.46 52.46 0 0 0-1.21-7.85c-.11-.37-.23-.68-.32-.94a2.38 2.38 0 0 1 0-2.3c.58-.86 1.43-.88 3.49-.95l2.26-.08c3.3-.16 15.44-1.61 27.18-3 8.64-1 16.8-2 21.43-2.48 10.83-1.08 29.71-4.08 29.9-4.11h6.88c2.23 0 2.49 1.07 3.18 3.89l.32 1.3a7.71 7.71 0 0 0 1.29 2.67 2.77 2.77 0 0 1 .7 2.53c-.4 1.17-1.68 1.69-4.3 2.52l-6 1.93a1.41 1.41 0 0 1-1.76-.91 1.39 1.39 0 0 1 .91-1.76l6.05-1.93c1.1-.35 1.77-.59 2.16-.76a10.38 10.38 0 0 1-1.7-3.57l-.32-1.32c-.18-.72-.34-1.38-.46-1.75H302c-1.57.25-19.47 3.07-30 4.12-4.6.46-12.75 1.44-21.38 2.47-11.79 1.41-24 2.87-27.38 3l-2.3.08h-.73c.06.17.12.35.18.56a54.09 54.09 0 0 1 1.32 8.42 1.41 1.41 0 0 1-1.28 1.51Z"/><path class="cls-3" d="M221.72 432.79a1.4 1.4 0 0 1-1.36-1.07c0-.06-1.38-5.63-2.26-8-.78-2.1-1.14-3.75-.31-4.94s2.53-1.3 4.79-1.31c.95 0 2 0 3.25-.09 2-.14 6.6-.76 11.86-1.48 9.95-1.37 23.58-3.24 32.22-3.52 7.11-.22 12.58-.76 17.41-1.24 2.44-.24 4.74-.47 6.88-.61a14.85 14.85 0 0 0 4.16-.89 3.41 3.41 0 0 1 2.9-.15c1.1.61 1.47 2 2 4.19 1.3 5.8 1.56 7 1.56 7a1.4 1.4 0 0 1-2.74.57s-.27-1.27-1.55-7a16.08 16.08 0 0 0-.61-2.22c-.18.05-.42.14-.62.21a17.43 17.43 0 0 1-4.88 1c-2.1.14-4.38.37-6.79.61-4.88.48-10.4 1-17.6 1.25-8.5.27-22 2.13-31.93 3.49-5.53.76-9.9 1.36-12 1.51-1.31.09-2.49.09-3.43.09a12.71 12.71 0 0 0-2.48.14 7.21 7.21 0 0 0 .62 2.34c.94 2.52 2.29 8.07 2.35 8.31a1.41 1.41 0 0 1-1 1.69 1.86 1.86 0 0 1-.44.12Z"/><path class="cls-3" d="M219.33 420.63a1.4 1.4 0 0 1-1.28-.85 35 35 0 0 1-1.82-6.95c-.37-2-.44-3.27.25-4.23s1.77-1.13 3-1.32a20.72 20.72 0 0 0 2.25-.42c1.8-.45 4.54-1 7.72-1.57 4.26-.8 9.1-1.71 13.32-2.77s10.34-1.62 16.38-2.19c5.1-.49 10.38-1 14.22-1.74 7.44-1.45 16.84-1.34 21.36-1.28h1.8c3.45 0 3.69 2.48 3.9 4.68a20.44 20.44 0 0 0 .94 4.94c.54 1.63 1.1 3.92-.34 5.06s-3.32 0-3.69-.2a1.4 1.4 0 1 1 1.45-2.39 2.85 2.85 0 0 0 .35.17 8.84 8.84 0 0 0-.43-1.76 23.33 23.33 0 0 1-1.07-5.55c-.21-2.15-.21-2.15-1.11-2.15h-1.84c-4.42-.06-13.62-.17-20.79 1.23-4 .77-9.31 1.28-14.48 1.78-5.94.56-12.08 1.15-16 2.12-4.29 1.07-9.17 2-13.48 2.8-3.13.59-5.83 1.1-7.56 1.53a25.13 25.13 0 0 1-2.5.48 10.14 10.14 0 0 0-1.16.22 7.66 7.66 0 0 0 .21 2.06 34 34 0 0 0 1.64 6.35 1.4 1.4 0 0 1-.74 1.83 1.3 1.3 0 0 1-.5.12Z"/><path class="cls-3" d="M230.43 408.14a1.4 1.4 0 0 1-1.36-1.1c0-.06-1.33-5.92-2.53-9.52-.18-.56-.37-1-.53-1.4a3.26 3.26 0 0 1-.31-2.85c.61-1.25 1.89-1.59 6.63-2.88h.13c7.66-2.07 31.24-4.54 41.53-5.2 5.69-.37 12.51-.93 18-1.38 3.86-.31 6.91-.56 8.4-.65a8.16 8.16 0 0 0 2.43-.59 3.1 3.1 0 0 1 2.87-.1c.94.59 1.24 1.79 1.39 3.4.29 3.08.93 7.21 1.28 9.4a2.65 2.65 0 0 1-2.12 3l-4.1.8a45.21 45.21 0 0 1-8.68 1 1.4 1.4 0 0 1 0-2.8 45.93 45.93 0 0 0 8.08-1l4-.77c-.36-2.25-1-6.34-1.28-9.45a7.5 7.5 0 0 0-.15-1.06l-.35.12a10.64 10.64 0 0 1-3.24.76c-1.45.09-4.49.34-8.33.65-5.49.46-12.33 1-18 1.38-9.93.64-33.61 3.12-41 5.11h-.13a44.24 44.24 0 0 0-4.69 1.4c.06.17.15.37.22.55.18.43.4.95.61 1.58 1.24 3.74 2.54 9.56 2.6 9.8a1.4 1.4 0 0 1-1.06 1.67 1.15 1.15 0 0 1-.31.13Z"/><path class="cls-2" d="M255.63 380.37c9.37.22 18.24 1.44 27.94 1.85s26.4 1.65 34 3.3 8.67 2.07 11.14 2.48 2.06 0 3.3-3.82 1.65-3.19 2.06-5.26-.61-1.44-3.5-1.85-31.56-6-39.61-6.6-15.1-1.24-25.39-1.86-13 .21-15.66 0-1.44 0-1.44 3.71a43.36 43.36 0 0 0 .62 7.22c.23 1.65 1.91.72 6.54.83Z"/><path class="cls-3" d="M329.83 389.51a8.61 8.61 0 0 1-1.32-.13c-1.31-.22-2.25-.44-3.82-.81s-3.66-.87-7.38-1.68c-7.68-1.66-24.81-2.88-33.8-3.27-4.47-.19-8.8-.55-13-.9-5.09-.43-9.89-.83-14.93-1-1.46 0-2.62 0-3.54.1-1.89.12-4 .26-4.33-2.15 0-.33-.09-.67-.14-1a38.83 38.83 0 0 1-.49-6.38 14.7 14.7 0 0 0-.19-2.34 2.45 2.45 0 0 1 .38-2.23c.65-.7 1.54-.63 2.76-.54a20.64 20.64 0 0 0 3-.06 95.89 95.89 0 0 1 12.65.06c7.92.48 14 1 19.92 1.43l5.5.43c5.95.46 22.68 3.52 32.68 5.36 3.5.64 6.26 1.14 7 1.25s1.21.13 1.7.16c1.09.07 2 .13 2.65 1a2.88 2.88 0 0 1 .33 2.41 6.93 6.93 0 0 1-.83 2.29 16.7 16.7 0 0 0-1.28 3.13c-.2.63-.36 1.17-.5 1.63-.63 2.2-1.15 3.24-3.02 3.24Zm-75-10.55h.79c5.13.12 10.2.54 15.1 1 4.16.35 8.46.71 12.87.9 9.44.4 26.36 1.62 34.27 3.33 3.75.81 5.88 1.31 7.44 1.68s2.42.58 3.63.78c.41.07.66.1.81.11.11-.28.26-.78.41-1.27s.3-1 .52-1.71a19.55 19.55 0 0 1 1.47-3.58 4.31 4.31 0 0 0 .55-1.51h-.42c-.51 0-1.14-.08-1.91-.19s-3.46-.6-7.12-1.27c-9.95-1.82-26.6-4.87-32.4-5.32l-5.5-.43c-5.89-.47-12-.95-19.87-1.42a90.75 90.75 0 0 0-12.27-.06 24.06 24.06 0 0 1-3.36.05h-.1a16.31 16.31 0 0 1 .16 2.32 36 36 0 0 0 .46 6l.12.84c.34 0 .89 0 1.4-.06.76-.15 1.77-.15 2.99-.15Z"/><path class="cls-3" d="M276.22 368.44c-12.35 0-27.8-.27-28.78-.29h-4.72c-4.31 0-5.06-.91-5.39-4-.07-.64-.14-1.36-.31-2.25-.81-4.22-2.23-9.11-2.24-9.16a2.34 2.34 0 0 1 .45-2.3c1.17-1.29 3.5-1 8.17-.21a36.6 36.6 0 0 0 6.73.58c1.22 0 2.6.05 4.44.16 6.16.34 8.77.41 17.45.41 5.12 0 12.93-1.11 19.21-2 4.32-.61 7.74-1.1 9.36-1.1h1.09c2 0 3 0 3.71.79a3.16 3.16 0 0 1 .5 2.62 6.48 6.48 0 0 1-.36 1.73c-.13.37-.33.92-.7 5.65-.52 6.54-1.18 8.21-5.18 8.21h-.4a20.7 20.7 0 0 0-3.55.3c-1.1.16-2.6.38-5.18.63-2.27.16-7.86.23-14.3.23Zm-38.65-16.15c.36 1.25 1.49 5.33 2.2 9 .19 1 .27 1.83.34 2.48a6.74 6.74 0 0 0 .22 1.35 7.47 7.47 0 0 0 2.39.19h4.75c.39 0 36.32.64 42.77 0 2.52-.25 4-.46 5.05-.61a23.33 23.33 0 0 1 3.95-.33h.35c1.84 0 2 0 2.43-5.62.41-5.11.64-5.76.87-6.38a3.66 3.66 0 0 0 .2-1.08 1.89 1.89 0 0 0 0-.31h-2.54c-1.42 0-4.92.5-9 1.07-6.36.9-14.29 2-19.6 2-8.75 0-11.38-.07-17.61-.42-1.78-.1-3.14-.13-4.33-.15a39.16 39.16 0 0 1-7.17-.62 32.2 32.2 0 0 0-5.27-.57Zm-.11-.42-1.34.44 1.34-.39Z"/><path class="cls-3" d="M247.16 353.09a1.39 1.39 0 0 1-1.39-1.25l-1.14-10.72a1.4 1.4 0 0 1 2.79-.3l1.13 10.73a1.41 1.41 0 0 1-1.24 1.54Z"/><path class="cls-3" d="M304.73 351.86a1.4 1.4 0 0 1-.26-2.78c2.06-.39 7.87-1.62 9.84-2.57l.78-.36a7 7 0 0 0 .87-.43 14.67 14.67 0 0 0-.45-2.7c-.39-1.79-.56-2.76-.69-3.47a11.28 11.28 0 0 0-.6-2.35c-.09-.24-.16-.47-.23-.68s-.18-.55-.25-.72a7 7 0 0 0-1.61.24c-2.16.49-13.37 1.46-23.26 2.32-5.13.44-10 .86-12.38 1.11l-4.44.49c-13.33 1.49-26.57 2.9-29.47 2.39a12.93 12.93 0 0 0-1.59-.19c-2.27-.18-2.53-1.06-3.21-3.41-.12-.4-.25-.86-.42-1.4a29.91 29.91 0 0 1-1.26-6.84 2.79 2.79 0 0 1 .88-2.24 2.82 2.82 0 0 1 2.28-.77c4 .45 13.94 1.38 19.63.43 7.22-1.2 30.07-2.93 37.58-3.42a47.93 47.93 0 0 0 6.48-.76 2.72 2.72 0 0 1 3.23 2.16l1.77 7.88c1.75-.19 3-.36 3.57-.48 3.2-.73 4.31-.22 5.14 2.35.06.19.12.39.2.62a13.78 13.78 0 0 1 .72 2.78c.12.69.29 1.63.67 3.36.88 4 .8 5-2 6.28l-.72.34c-2.72 1.3-10.22 2.73-10.54 2.79Zm-63.84-12.52h.31a18.74 18.74 0 0 1 1.87.23c2.74.48 20.25-1.47 28.67-2.41 1.81-.2 3.35-.38 4.46-.49 2.42-.26 7.06-.66 12.43-1.12 5.53-.48 11.87-1 16.51-1.49l-1.7-7.6a45.76 45.76 0 0 1-6.79.83c-7.47.49-30.18 2.2-37.3 3.38-6 1-16.27.05-20.4-.41a24 24 0 0 0 1.09 6.26c.17.55.31 1 .42 1.42.17.58.32 1.12.43 1.4Z"/><path class="cls-3" d="M239.11 330.29a1.39 1.39 0 0 1-1.39-1.22l-1.08-8.33a1.4 1.4 0 0 1 2.78-.36l1.08 8.33a1.4 1.4 0 0 1-1.21 1.57ZM303.24 326.52a1.4 1.4 0 0 1-.24-2.78l.65-.1c3.12-.49 4.24-.93 4.6-1.24-.49-2.12-2.59-8.9-2.61-9a1.4 1.4 0 0 1 2.68-.83c.09.3 2.29 7.41 2.71 9.41a2.36 2.36 0 0 1-.39 1.89c-1.05 1.53-3.81 2.07-6.56 2.5l-.6.1Zm5.05-3.93Z"/><path class="cls-3" d="M225.49 322.4c-3 0-5-.26-6.21-1.49a4.94 4.94 0 0 1-1.27-3.66 4.36 4.36 0 0 0-.44-2.47 9.22 9.22 0 0 1-1-3.79c-.05-.47-.1-.89-.14-1.27-.42-3.53-.15-4.93 4.42-5.62 1.5-.22 3.1-.36 4.79-.51a51.68 51.68 0 0 0 8.87-1.31c3.22-.88 19.07-1.95 36.42-3.06 4.52-.29 8.43-.54 10.45-.7 2.64-.2 6.48-.32 10.54-.45 7.88-.24 17.69-.53 21.8-1.65 4.43-1.2 10.35-.55 14.27-.11 1.1.12 2.32.24 2.83.25a1.47 1.47 0 0 1 1.38 0c1.06.54.93 1.38.53 3.9-.21 1.32-.5 3.14-.75 5.42-.77 6.89-5.18 7.43-10.88 7.43-3.22 0-10.46.66-18.12 1.35-5.74.53-11.68 1.06-16.07 1.33-10.71.66-30.65 2.53-39.46 4.48a73 73 0 0 1-16.89 1.87l-2.46.05c-.93-.01-1.81.01-2.61.01Zm94.41-23.86a21.67 21.67 0 0 0-5.44.58c-4.43 1.2-14 1.5-22.44 1.75-4 .13-7.84.24-10.41.44-2 .17-5.77.4-10.5.71-12.2.78-32.64 2.08-35.86 3a53.17 53.17 0 0 1-9.35 1.39c-1.65.15-3.21.29-4.63.5-1.66.25-2.08.45-2.18.55a9 9 0 0 0 .13 2c0 .39.09.83.14 1.31a6.79 6.79 0 0 0 .71 2.81 7 7 0 0 1 .74 3.73c0 1.25.32 1.56.42 1.66.77.75 3.43.74 6.81.65l2.49-.05a69.76 69.76 0 0 0 16.33-1.81c8.95-2 29.09-3.87 39.89-4.53 4.35-.27 10.26-.8 16-1.32 7.72-.71 15-1.37 18.37-1.37 5.85 0 7.62-.65 8.1-4.94.26-2.34.55-4.2.76-5.55 0-.22.07-.45.11-.66-.61 0-1.38-.13-2.39-.24a72.19 72.19 0 0 0-7.8-.61Zm10.53-1.68Z"/><path class="cls-3" d="M223 306.65a1.4 1.4 0 0 1-1.35-1c-.12-.44-3-10.84-3.38-14.62a4 4 0 0 1 .68-3.22c.93-1 2.3-1 4.2-.95 1 0 2.22 0 3.67-.07 1.24-.09 3.15-.18 6.19-.31l7.49-.28c6.8-.24 14.51-.52 19.29-.85 2.74-.19 6.64-.42 11-.67 9.58-.56 21.51-1.26 27.69-2 4.28-.5 9.07-.57 13.71-.63 4.94-.07 9.62-.14 12.21-.77 4.22-1 8.51-1.7 11.27.13a5.45 5.45 0 0 1 2.35 3.83c.6 3.61.76 4.46 1 5.55l.26 1.44c.55 3-1.22 3.85-3.26 4.86l-1.09.55a13.5 13.5 0 0 1-5.93 1.57 1.41 1.41 0 0 1-1.38-1.43 1.4 1.4 0 0 1 1.4-1.37 10.79 10.79 0 0 0 4.59-1.25l1.15-.58c1.91-.95 1.91-.95 1.75-1.85l-.26-1.43c-.21-1.09-.37-2-1-5.6a2.75 2.75 0 0 0-1.14-2c-1.88-1.24-5.83-.51-9.07.27-2.89.69-7.49.76-12.82.84-4.57.06-9.29.13-13.44.61-6.25.71-18.22 1.41-27.83 2-4.33.26-8.22.48-11 .67-4.83.34-12.56.62-19.38.86l-7.48.28c-3 .12-4.9.22-6.1.31a39.07 39.07 0 0 1-3.93.07 10.35 10.35 0 0 0-2.05.06 3.44 3.44 0 0 0 0 1c.4 3.56 3.27 14.08 3.3 14.19a1.39 1.39 0 0 1-1 1.72 1.57 1.57 0 0 1-.31.07Z"/><path class="cls-3" d="M233 289.25a1.39 1.39 0 0 1-1.23-.74 32.86 32.86 0 0 1-2.38-6.46l-.08-.29c-.57-2.12-1-3.65-.19-5s2.3-1.92 4.57-2.51c3.38-.88 9-1 15.61-1.06 3.12 0 6.34-.09 9.64-.22 11.51-.46 32.16-1.5 41.25-3.28 5.86-1.14 13.71-1.31 20-1.45a93.53 93.53 0 0 0 9.77-.49 39 39 0 0 1 5.39-.43 8.39 8.39 0 0 0 3.74-.63c1.6-.69 2.91-1.16 4-.52s1.39 2 1.61 3.68a19 19 0 0 0 .48 2.71c.12.51.27 1.15.54 2.58l.13.63c.59 3.06 0 3.62-2.77 4.86l-1.24.55a20.23 20.23 0 0 1-7.72 1.94 1.4 1.4 0 0 1 0-2.8 18 18 0 0 0 6.55-1.68L342 278c.53-.24 1.08-.48 1.34-.64 0-.25-.11-.71-.19-1.12l-.13-.65c-.25-1.36-.4-2-.51-2.43a23.06 23.06 0 0 1-.53-3 11.52 11.52 0 0 0-.28-1.52 12.39 12.39 0 0 0-1.49.56 11.05 11.05 0 0 1-4.8.86 35.63 35.63 0 0 0-5 .4 98.46 98.46 0 0 1-10.13.52c-6.2.13-13.91.3-19.53 1.4-9.27 1.82-30.09 2.87-41.68 3.33-3.34.13-6.58.18-9.71.22-6.38.1-11.9.18-15 1-2.09.55-2.7 1-2.85 1.21s.12 1.59.47 2.89l.08.29a31.78 31.78 0 0 0 2.15 5.88 1.4 1.4 0 0 1-.58 1.89 1.43 1.43 0 0 1-.63.16Z"/><path class="cls-3" d="M240 276.22a1.39 1.39 0 0 1-1.37-1.15c-.06-.33-1.49-8.18-2-11.47-.2-1.47-.34-2.45.34-3.23s1.6-.76 3-.74c.82 0 2 0 3.47-.09 2.06-.15 7.68-.32 14.79-.53 12.46-.37 29.52-.87 34-1.53 7.16-1.05 29.82-2.5 34.35-2.69a17.1 17.1 0 0 0 3.36-.54c2.53-.61 4.55-.76 5.6 3.23 1.15 4.31 2.61 10.79 2.63 10.85a1.4 1.4 0 1 1-2.73.62c0-.06-1.47-6.5-2.6-10.75-.35-1.3-.63-1.49-.63-1.49a5.49 5.49 0 0 0-1.61.26 19.41 19.41 0 0 1-3.9.62c-4.5.19-27 1.62-34.06 2.66-4.63.69-21.09 1.17-34.32 1.56-6.8.2-12.67.38-14.67.52-1.63.12-2.83.1-3.7.1h-.64c0 .25.07.54.1.79.46 3.24 1.92 11.28 1.93 11.36a1.4 1.4 0 0 1-1.12 1.63Z"/><path class="cls-3" d="M257.19 261.32a1.39 1.39 0 0 1-1.35-1c-.07-.26-1.7-6.3-2.32-9.62-.29-1.53-.45-2.78.31-3.84.94-1.3 2.72-1.59 6.65-2.14 4.87-.67 14.59-1.32 23.16-1.9l5.6-.38c5.36-.37 14.12-.74 21.85-1.07 5-.21 9.75-.41 12.62-.58a43.35 43.35 0 0 0 8-1 16.81 16.81 0 0 1 2.51-.43c.36 0 .64-.07.87-.11a2.24 2.24 0 0 1 1.85.27c.67.5.76 1.18.92 2.42.07.55.17 1.3.34 2.29a81.61 81.61 0 0 1 1.23 9.63 3.88 3.88 0 0 1-.86 3.06c-1 1.1-2.52 1.11-3.86 1.11h-.85a1.41 1.41 0 0 1-1.46-1.34 1.39 1.39 0 0 1 1.33-1.46h1a4.46 4.46 0 0 0 1.82-.21s.17-.2.12-1a78.51 78.51 0 0 0-1.2-9.36c-.18-1-.28-1.82-.35-2.4v-.21l-.6.06a16.12 16.12 0 0 0-2.15.37 46.19 46.19 0 0 1-8.42 1.08c-2.89.16-7.63.36-12.66.58-7.71.32-16.46.7-21.77 1.07l-5.61.38c-8.1.54-18.19 1.22-23 1.88-1.86.25-4.41.61-4.76 1a5.23 5.23 0 0 0 .17 1.68c.6 3.21 2.25 9.34 2.27 9.41a1.4 1.4 0 0 1-1 1.71 1.12 1.12 0 0 1-.4.05Z"/><path class="cls-3" d="M255.87 248.41a1.4 1.4 0 0 1-1.39-1.23 22.25 22.25 0 0 0-1-4.91 2.41 2.41 0 0 1-.1-2.2c.66-1.37 2.52-1.76 4.88-2.27 1.4-.3 5.55-.57 12.21-1 6.09-.38 13-.82 16.21-1.29 6.51-1 22.51-2.1 29.05-2.39 6-.27 12.09-.58 14.46-1.19 1.87-.49 3.82-.9 5.2 0a2.92 2.92 0 0 1 1.28 2.05c.11.65.27 1.43.44 2.23a31.56 31.56 0 0 1 .71 4.23 1.4 1.4 0 1 1-2.79.16 34.12 34.12 0 0 0-.66-3.81c-.18-.85-.35-1.66-.46-2.35a.47.47 0 0 0-.05-.17c-.12-.08-.67-.23-3 .36s-7.32 1-15 1.29c-7.42.32-22.77 1.46-28.77 2.36-3.33.49-10.3.93-16.45 1.32-5.17.32-10.53.66-11.79.93a19.42 19.42 0 0 0-2.76.72 27.14 27.14 0 0 1 1.22 5.59 1.4 1.4 0 0 1-1.31 1.56Z"/><path class="cls-3" d="M255.31 240.57a1.39 1.39 0 0 1-1.1-.53 12 12 0 0 1-2.43-5.36c-.37-3.53 1-3.8 6.11-4.8h.14c5.46-1.07 30.88-2.51 39.72-2.81 4-.13 9.44-.61 14.67-1.07 6.83-.6 12.74-1.12 15.22-.88a13.41 13.41 0 0 0 2.48.14 3.21 3.21 0 0 1 1.55-.2 3.28 3.28 0 0 0 1-.13 2.36 2.36 0 0 1 2 .22 3.44 3.44 0 0 1 1.07 2.54 23.63 23.63 0 0 1 0 5.28 1.4 1.4 0 1 1-2.78-.36 20.78 20.78 0 0 0 0-4.59 1.93 1.93 0 0 0 0-.27 6.59 6.59 0 0 1-1.29.11 2 2 0 0 0-.48 0c-.54.23-1.05.3-3.74 0-2.23-.22-8.29.31-14.7.88-5.27.46-10.71.94-14.82 1.08-9.08.31-34.17 1.76-39.28 2.76h-.14a26.07 26.07 0 0 0-3.93.92 8.2 8.2 0 0 0 .07.83 9.42 9.42 0 0 0 1.83 3.92 1.41 1.41 0 0 1-.22 2 1.43 1.43 0 0 1-.95.32Z"/><path class="cls-3" d="M254.51 233.46a1.42 1.42 0 0 1-1.35-1s-.72-2.68-1.4-5.15a2.78 2.78 0 0 1 .35-2.44c1.28-1.85 4.63-2.15 10.72-2.7h.4c4.12-.37 12.81-.74 20.48-1.06 5.18-.22 10.08-.43 12.55-.59s6.42-.54 10.63-.93c6.25-.58 12.72-1.18 15.53-1.24a41.39 41.39 0 0 1 4.24.07 8.31 8.31 0 0 0 2.2-.06 9.74 9.74 0 0 0 1.19-.26 2.82 2.82 0 0 1 2.49.14c.81.56 1.06 1.53 1.2 2.91a24.46 24.46 0 0 0 .91 4.68 1.4 1.4 0 1 1-2.66.88 27.11 27.11 0 0 1-1-5.27c0-.29-.06-.5-.09-.66h-.1a11.17 11.17 0 0 1-1.53.32 11.66 11.66 0 0 1-2.76.09 36.71 36.71 0 0 0-4-.07c-2.71.06-9.42.68-15.33 1.23-4.23.39-8.21.76-10.7.93s-7.42.38-12.62.6c-7.64.32-16.3.68-20.35 1h-.4c-3.79.34-8.08.72-8.66 1.48a.31.31 0 0 1 0 .12c.69 2.48 1.42 5.17 1.42 5.17a1.4 1.4 0 0 1-1 1.72 1.57 1.57 0 0 1-.36.09Z"/><path class="cls-3" d="M235.05 232.32A1.92 1.92 0 0 1 234 232a2.78 2.78 0 0 1-1.09-2.21c0-.18-.06-.37-.1-.59a21.81 21.81 0 0 0-1-3.43c-.29-.86-.65-1.91-1.06-3.34-.13-.43-.24-.78-.33-1.06-.31-1-.53-1.67-.05-2.38a2 2 0 0 1 1.69-.75 8.23 8.23 0 0 0 2.09-.38c1.38-.43 3.12-1.12 5-1.85a88.43 88.43 0 0 1 9.2-3.26c2.86-.79 6.63-2.24 10-3.51 2.74-1.06 5.34-2.05 7.14-2.57 2.59-.75 6.83-1.79 10.93-2.8l5.82-1.44a196.14 196.14 0 0 0 19.41-6.34c4.85-2 6.79-1.63 7.27-1.47a1.4 1.4 0 0 1 .81.7 31.1 31.1 0 0 1 2.07 6.94c1 5-1.46 5.76-4.36 6.59-.57.17-1.22.36-1.93.59-1.1.37-2.43.85-3.94 1.39a167.88 167.88 0 0 1-16.9 5.35c-6.3 1.53-27.72 8.93-39.22 12.91-3.88 1.34-6.45 2.23-7.12 2.43l-.41-1.33.41 1.33-.41-1.33.37 1.35a12.77 12.77 0 0 1-3.24.78ZM233.23 221c.06.21.14.44.21.7.41 1.37.74 2.36 1 3.23a24.7 24.7 0 0 1 1.07 3.83c0 .24.08.45.11.65.45-.12 1.09-.32 1.75-.53h.05c.62-.2 3.31-1.12 7-2.41 11.55-4 33-11.41 39.48-13a164.34 164.34 0 0 0 16.61-5.26c1.54-.56 2.89-1 4-1.41.75-.26 1.43-.45 2-.63 2.9-.83 2.9-.83 2.39-3.34a34.59 34.59 0 0 0-1.54-5.53 17.17 17.17 0 0 0-4.8 1.39 199.39 199.39 0 0 1-19.79 6.46c-1.68.43-3.72.93-5.85 1.45-4.07 1-8.28 2-10.81 2.77-1.69.48-4.23 1.46-6.92 2.49-3.39 1.3-7.24 2.78-10.22 3.6a86.31 86.31 0 0 0-8.91 3.16c-1.9.75-3.7 1.46-5.18 1.92a11.75 11.75 0 0 1-1.65.46Z"/></g></svg>
