<svg xmlns="http://www.w3.org/2000/svg" xmlns:xlink="http://www.w3.org/1999/xlink" viewBox="0 0 560.5 361.67"><defs><style>.cls-3{fill:#010101}</style></defs><image width="1520" height="3404" transform="translate(-713.56 -1950.4)" xlink:href="../../../../03_Working/07_Figma/_render/HERO%20-%20full%20color.png" style="opacity:.05" id="Placement"/><g id="Layer_3" data-name="Layer 3"><path d="M92.73 199.51V216h26.19l-.57 6.08 44.39 7.58 27.43-11.47 36.88 7.81s4.55 20.74 35.85 18.48 38.1-15.91 38.1-15.91l48.39-21.63 28.45 4 51.37-21.62 15.28 5.89 12.51-3.64.07-7.68s17.45-4.5 48.18 4.55 33.72 25.33 32 45.25-35.85 72.28-84.8 66-81.38 20.48-268.63 11.38S15 233.67 18.76 218.23C24.45 194.85 39.82 203 58.6 199a76.58 76.58 0 0 1 34.13.54" style="fill:#93dad5"/><path class="cls-3" d="M119.27 217.55h-27a1.5 1.5 0 0 1-1.5-1.54l3.61-140.29a1.49 1.49 0 0 1 1.5-1.46h33.29a1.5 1.5 0 0 1 0 3H97.34l-3.5 137.29h25.43a1.5 1.5 0 0 1 0 3Z"/><path class="cls-3" d="M163.89 231.2a1 1 0 0 1-.25 0l-45-7.39a1.51 1.51 0 0 1-1.25-1.59l10.28-146.57a1.51 1.51 0 0 1 1.33-1.39l29-2.56a1 1 0 0 1 .24 0l37 2.56a1.5 1.5 0 0 1 1.4 1.5v140.29a1.51 1.51 0 0 1-.9 1.37l-31.3 13.66a1.57 1.57 0 0 1-.55.12Zm-43.37-10.15 43.17 7.1 30-13.09V77.16l-35.48-2.46-27.63 2.44ZM106.55 77.26H95.88A1.5 1.5 0 0 1 94.4 76l-3.47-18.62A1.94 1.94 0 0 1 93 55.1l13.29 1.2a1.92 1.92 0 0 1 1.76 1.92v17.54a1.51 1.51 0 0 1-1.5 1.5Zm-9.43-3h7.93V59.2l-10.91-1Z"/><path class="cls-3" d="M129.17 77.26h-16.65a1.5 1.5 0 0 1-1.47-1.26l-1.69-9.1a1.89 1.89 0 0 1 .41-1.58 1.91 1.91 0 0 1 1.48-.7h13a1.91 1.91 0 0 1 1.73 1.08l4.58 9.37a1.51 1.51 0 0 1-1.35 2.16Zm-15.4-3h13l-3.23-6.61h-11ZM133 77.1a1.51 1.51 0 0 1-1.38-.9L121.61 53a1.92 1.92 0 0 1 1.48-2.66l10.13-1.56a1.93 1.93 0 0 1 2.19 1.59c1.23 7.58 2.37 12.61 3 14.27 1.06-.06 2.54 0 3.7 0l-.75-13.91a2 2 0 0 1 .53-1.43 1.91 1.91 0 0 1 1.4-.61h13.37a1.92 1.92 0 0 1 1.92 1.83l1.12 22.65a1.51 1.51 0 0 1-1.35 1.57l-25.2 2.36ZM124.91 53 134 74l22.67-2.17-1-20.2h-11.26l.77 14.43a1.51 1.51 0 0 1-.43 1.14 1.49 1.49 0 0 1-1.14.44 48.39 48.39 0 0 0-5.66 0 1.66 1.66 0 0 1-1.27-.3c-.55-.4-1.7-1.22-4.06-15.48Zm12.55 11.63Zm-13.92-11.38Zm.82-1.48ZM190.21 77.26h-.2a1.5 1.5 0 0 1-1.29-1.68l2.34-17.51h-5.89L183.59 75a1.49 1.49 0 0 1-1.59 1.35l-8.56-.6a1.49 1.49 0 0 1-1.38-1.67l2.41-20.21-7.95-1.87v21.91a1.5 1.5 0 0 1-3 0V50.68a1.93 1.93 0 0 1 .73-1.51 1.92 1.92 0 0 1 1.63-.37l10.21 2.36a1.93 1.93 0 0 1 1.48 2.1l-2.35 19.61 5.52.38 1.54-16.45a1.91 1.91 0 0 1 1.91-1.75h8.09a1.93 1.93 0 0 1 1.91 2.18L191.69 76a1.5 1.5 0 0 1-1.48 1.26ZM216.67 140h-6.83a1.5 1.5 0 0 1-1.48-1.29l-3.28-22.92-10.28-2.73a1.5 1.5 0 0 1 .77-2.9l11.24 3a1.49 1.49 0 0 1 1.1 1.24l3.23 22.6h4v-23.26a1.5 1.5 0 0 1 .61-1.2 1.49 1.49 0 0 1 1.32-.23l14.2 4.27a1.5 1.5 0 1 1-.86 2.87l-12.27-3.69v22.74a1.5 1.5 0 0 1-1.47 1.5ZM228.63 227.5a1.53 1.53 0 0 1-.3 0l-38.46-7.76a1.51 1.51 0 0 1 .6-3l38.45 7.77a1.5 1.5 0 0 1-.29 3Z"/><path class="cls-3" d="M259.52 246c-28.28 0-32.2-15.25-32.36-15.93a1.55 1.55 0 0 1 0-.37l3-158.75a1.49 1.49 0 0 1 .68-1.23c.38-.25 9.64-6.1 37.47-7.6s33.6 5.58 34.17 6.39a1.47 1.47 0 0 1 .28.86V229.7a1.53 1.53 0 0 1-.12.6c-.25.56-6.29 13.82-38.44 15.56-1.67.08-3.2.14-4.68.14Zm-29.39-16.46c.5 1.69 5.38 14.88 33.84 13.34 27.68-1.5 34.74-11.82 35.72-13.52V70c-1.37-1.22-8.34-6.09-31.29-4.85s-32.8 5.47-35.33 6.75Z"/><path class="cls-3" d="M231.59 72.45a1.49 1.49 0 0 1-1.41-1L223 52a2.84 2.84 0 0 1 1.89-3.72l15.33-4.37a2.85 2.85 0 0 1 3.45 1.76l3.84 10.59 5-.94-1.7-11.22a2.9 2.9 0 0 1 .59-2.2 2.87 2.87 0 0 1 2-1.06l20.15-1.49a2.84 2.84 0 0 1 3.06 2.83v12.26L286 55v-9.61a2.85 2.85 0 0 1 3.42-2.78l19.39 4a2.84 2.84 0 0 1 2 3.9l-8.31 19.4a1.51 1.51 0 0 1-2 .79 1.49 1.49 0 0 1-.79-2l8.24-19.23-19-3.94v11a1.51 1.51 0 0 1-.47 1.09 1.57 1.57 0 0 1-1.12.41l-12.37-.7a1.5 1.5 0 0 1-1.42-1.5V42.37l-19.82 1.47 1.89 12.48a1.51 1.51 0 0 1-1.21 1.7l-7.68 1.44a1.5 1.5 0 0 1-1.69-1l-4.22-11.65-15 4.29 7.1 19.3a1.49 1.49 0 0 1-.89 1.92 1.52 1.52 0 0 1-.46.13ZM301.19 231.2a1.5 1.5 0 0 1-.61-2.87l48.24-21.2a1.45 1.45 0 0 1 .8-.11l28.57 3.78 34.09-16.8L401.8 81.59l-22.18-6.86-41.46 7 2.09 56.74a1.5 1.5 0 0 1-1.32 1.54l-37.56 4.69a1.5 1.5 0 0 1-.37-3l36.2-4.53-2.08-56.67a1.5 1.5 0 0 1 1.25-1.5l43.11-7.25a1.47 1.47 0 0 1 .69 0L403.65 79a1.52 1.52 0 0 1 1.05 1.29l10.67 114.4a1.53 1.53 0 0 1-.83 1.48l-35.43 17.5a1.5 1.5 0 0 1-.86.14l-28.61-3.78-47.85 21a1.61 1.61 0 0 1-.6.17Z"/><path class="cls-3" d="M378.45 213.85h-.06a1.51 1.51 0 0 1-1.44-1.56l5.14-137.73L377.7 58l-9.92-.62L359 58v17.76a1.5 1.5 0 0 1-3 0V57.27a2.28 2.28 0 0 1 2.15-2.27l9.52-.64h.2l10.54.66a2.25 2.25 0 0 1 2 1.68L385 74a1.3 1.3 0 0 1 0 .44l-5.15 138a1.5 1.5 0 0 1-1.4 1.41ZM413.87 196.35a1.5 1.5 0 0 1-.57-2.89l14.33-6-7.36-72-12.88 5.21a1.51 1.51 0 0 1-1.13-2.79l14.74-5.95a1.5 1.5 0 0 1 2.06 1.24l7.68 75.12a1.5 1.5 0 0 1-.91 1.54l-15.37 6.4a1.47 1.47 0 0 1-.59.12Z"/><path class="cls-3" d="M443.23 196.69c-8.48 0-14.81-6.91-15.11-7.24a1.5 1.5 0 0 1 .12-2.12 1.48 1.48 0 0 1 2.11.11c.07.08 7.22 7.85 15.63 5.94 5.89-1.34 8.87-2.17 10.25-2.6l-10-99.09c-2.11-.9-9-3.32-19.71-1.65-13.28 2.08-21.33 5.48-21.41 5.52a1.5 1.5 0 1 1-1.18-2.76c.34-.15 8.44-3.58 22.13-5.72 14-2.19 22 2.12 22.3 2.3a1.52 1.52 0 0 1 .77 1.16l10.24 101.12a1.5 1.5 0 0 1-.91 1.54c-.09 0-2.36 1-11.77 3.11a15.78 15.78 0 0 1-3.46.38Z"/><path class="cls-3" d="M408 94.4a1.5 1.5 0 0 1-1.49-1.33l-1.08-9.28a2.13 2.13 0 0 1 1.8-2.35l7.09-1.09a2.1 2.1 0 0 1 1.6.4 2.13 2.13 0 0 1 .84 1.42l1.11 8.11a1.5 1.5 0 0 1-3 .41l-1-7.24-5.39.83 1 8.44a1.51 1.51 0 0 1-1.32 1.67Zm.41-11Zm6.36-.14ZM426.11 90.06a1.5 1.5 0 0 1-1.49-1.33l-.92-8a2.15 2.15 0 0 1 2.13-2.38h9.38a2.14 2.14 0 0 1 2.13 1.91l.82 7.62a1.5 1.5 0 0 1-3 .32l-.73-6.85h-7.63l.8 7a1.5 1.5 0 0 1-1.32 1.66ZM447.59 92.2h-.09a1.49 1.49 0 0 1-1.4-1.59l.49-7.75-3.62-1-.57 6.92a1.5 1.5 0 1 1-3-.24l.65-8a2.13 2.13 0 0 1 2.71-1.88l5.31 1.5a2.15 2.15 0 0 1 1.55 2.19l-.54 8.45a1.5 1.5 0 0 1-1.49 1.4Zm-.33-9.2Zm-.63-.89ZM85.65 254a14.89 14.89 0 0 1-1.61-.09 8.65 8.65 0 0 1-6-3.43c-2.14-2.74-3.07-6.75-3.43-10.53-2.33 4.87-6.22 9.77-12.5 10.08-12.6.62-14.63-10.81-14.65-10.92a1.5 1.5 0 1 1 3-.5c.06.36 1.68 8.93 11.54 8.43 10-.5 12.79-17.35 12.82-17.52a1.5 1.5 0 0 1 3 .43c0 .13-1.68 13.13 2.66 18.69a5.71 5.71 0 0 0 4 2.29C93.84 252 97.85 241 98 240.54a1.5 1.5 0 1 1 2.83 1C99.28 246 94.17 254 85.65 254ZM192.37 278.47a10.13 10.13 0 0 1-7.39-2.94 15.11 15.11 0 0 1-3.55-6 11 11 0 0 1-1.93 2.8 10.31 10.31 0 0 1-8.29 2.93 9.89 9.89 0 0 1-7.12-3.39 17.17 17.17 0 0 1-3.55-7.22A20.34 20.34 0 0 1 146 277.46c-6.62 1.65-11.63 1.27-14.91-1.13a8.52 8.52 0 0 1-3.46-5.93 1.49 1.49 0 0 1 1.41-1.58 1.5 1.5 0 0 1 1.59 1.39 5.42 5.42 0 0 0 2.28 3.73c2.5 1.8 6.77 2 12.36.61 12.23-3.06 14-15 14.2-18.9v-1.36a1.5 1.5 0 0 1 1.5-1.41 1.5 1.5 0 0 1 1.48 1.45s0 .46 0 1.19c0 2.78.28 10.38 3.82 14.33a6.89 6.89 0 0 0 5 2.38 7.28 7.28 0 0 0 6-2c2.34-2.41 2.7-6.41 2.73-8.34v-1.27a1.5 1.5 0 0 1 1.45-1.47 1.46 1.46 0 0 1 1.54 1.37 11.72 11.72 0 0 1 0 1.29c.13 2.49.79 8.42 4 11.6a7.21 7.21 0 0 0 5.63 2.07 1.5 1.5 0 1 1 .1 3ZM218.62 300.14a41.74 41.74 0 0 1-9.57-1.25 1.5 1.5 0 1 1 .7-2.92c8.58 2 15 1.41 19.07-1.9a12.25 12.25 0 0 0 3.68-5.16 16.06 16.06 0 0 1 1.15-5.9 1.5 1.5 0 0 1 2.87.55 17.72 17.72 0 0 1-1 5.85 6.56 6.56 0 0 0 1 3.12c1.34 2.1 4.13 3.25 8.3 3.4a1.5 1.5 0 0 1-.06 3c-5.23-.19-8.84-1.81-10.73-4.8-.15-.24-.29-.49-.42-.74a14.45 14.45 0 0 1-2.78 3c-3.18 2.5-7.23 3.75-12.21 3.75ZM311.93 288.74q-.92 0-1.86-.06a1.5 1.5 0 1 1 .16-3c6.74.38 12.06-1.47 15.81-5.49a22 22 0 0 0 5.39-12.71q-.15-1-.21-1.86c-.06-.92-.18-2.64 1.39-2.79 1-.11 1.62.56 1.79 2a14 14 0 0 1 0 2.49 17.53 17.53 0 0 0 3.87 8.58 9.42 9.42 0 0 0 7.64 3c12.53-.5 12.78-9 12.78-9.33a1.5 1.5 0 0 1 1.5-1.48 1.49 1.49 0 0 1 1.49 1.49c0 4-3.27 11.82-15.67 12.31-6.76.28-10.73-3.74-12.84-8.3a23.32 23.32 0 0 1-5 8.7c-3.96 4.27-9.44 6.45-16.24 6.45ZM364.79 249.42a1.5 1.5 0 0 1 0-3c3.93 0 6.82-1.08 8.57-3.21 2.1-2.56 2.19-6.11 2.05-8a14.46 14.46 0 0 1-.17-1.47 1.5 1.5 0 0 1 3-.38c0 .08.11.57.18 1.34.45 2.41 2.18 7.86 8.68 8.26a6.32 6.32 0 0 0 5.07-1.62c2.62-2.6 2.45-7.56 2.45-7.61a1.5 1.5 0 0 1 3-.36c.14.67 1.59 6.61 9.12 5.91a1.5 1.5 0 1 1 .28 3c-4.9.46-8.08-1.39-10-3.64a11.09 11.09 0 0 1-2.71 4.84 9.18 9.18 0 0 1-7.36 2.48 11.49 11.49 0 0 1-9.09-4.92 11.72 11.72 0 0 1-2.11 4c-2.41 2.96-6.08 4.38-10.96 4.38ZM451.86 271a1.5 1.5 0 0 1-.07-3c10.93-.49 11.09-15.05 11.09-15.67a1.5 1.5 0 0 1 1.41-1.5 1.48 1.48 0 0 1 1.58 1.32c0 .07.88 6.76 4.83 9.6a7.17 7.17 0 0 0 5.91 1.07c2.95-.6 5.06-1.86 6.28-3.76a9.2 9.2 0 0 0 1.09-6.39 1.5 1.5 0 1 1 2.92-.68 12.29 12.29 0 0 1-1.48 8.7c-1.68 2.6-4.44 4.31-8.22 5.07a10.14 10.14 0 0 1-8.26-1.58 13.23 13.23 0 0 1-4-5c-1.58 5.64-5.33 11.49-13 11.84ZM163.88 231.2a1.49 1.49 0 0 1-1.49-1.44L156.7 73.25a1.5 1.5 0 0 1 3-.11l5.69 156.51a1.48 1.48 0 0 1-1.44 1.55ZM349.42 210a1.49 1.49 0 0 1-1.48-1.27l-10.67-70a1.5 1.5 0 1 1 3-.45l10.67 70a1.5 1.5 0 0 1-1.25 1.71ZM287.39 114.82h-5.7a1.5 1.5 0 0 1-1.49-1.42l-1.43-26a1.51 1.51 0 0 1 .47-1.17 1.46 1.46 0 0 1 1.19-.41l6 .65a1.52 1.52 0 0 1 1.34 1.43l1.13 25.35a1.5 1.5 0 0 1-1.49 1.57Zm-4.28-3h2.71l-1-22.5-2.95-.32ZM242.42 159.49h-5.12a1.5 1.5 0 0 1-1.5-1.47l-.51-26.44a1.5 1.5 0 0 1 .68-1.28 1.48 1.48 0 0 1 1.44-.12l5.63 2.55a1.5 1.5 0 0 1 .88 1.37V158a1.5 1.5 0 0 1-1.5 1.49Zm-3.65-3h2.15v-21.42l-2.58-1.17ZM283.83 198.76h-5.55a1.5 1.5 0 0 1-1.5-1.4l-1.54-23.76a1.5 1.5 0 0 1 .91-1.48l7.1-3a1.53 1.53 0 0 1 1.41.13 1.5 1.5 0 0 1 .67 1.25v26.75a1.5 1.5 0 0 1-1.5 1.51Zm-4.15-3h2.65v-23l-4 1.7Z"/></g></svg>
