<svg xmlns="http://www.w3.org/2000/svg" width="770" height="400" style="width:100%;height:100%;transform:translate3d(0,0,0)"><defs><clipPath id="a"><path d="M0 0h770v400H0z"/></clipPath></defs><g clip-path="url(#a)"><g style="display:block"><path stroke-linecap="round" stroke-linejoin="round" stroke="#000" stroke-width="3" d="M447.937 162.389c-1.278-.789-7.535 2.512-6.14 12.559 1.396 10.046 8.936 15.348 10.887 8.092 1.95-7.255 7.184-12.372 1.881-13.488-5.302-1.116-3.465-5.209-6.628-7.163z" fill="none"/><path d="M571.286 214.125s-3.07 6.419 1.952 10.884c5.024 4.466 12.559 3.07 9.488-3.349-3.069-6.419-8.371-9.209-11.44-7.535z"/><path stroke-linecap="round" stroke-linejoin="round" stroke="#000" stroke-width="3" d="M571.286 214.125s-3.07 6.419 1.952 10.884c5.024 4.466 12.559 3.07 9.488-3.349-3.069-6.419-8.371-9.209-11.44-7.535zm78.976 1.287c-1.396-.279-6.978-2.063-12.56 8.457-5.581 10.52-1.672 14.706 3.909 11.356 5.582-3.348 3.07-8.202 8.651-11.356 5.581-3.154 11.721-9.028 5.86-8.743l-5.86.286z" fill="none"/><path fill="#93DAD4" d="m498.331 187.452-16.562 8.97 4-16.129 12.351-8.231.211 15.39zm26.119 46.19-41.91-34.229 16.74-9.061 25.17 43.29zm-.86-51.89-22.27 4.74-.209-15.44c0-.13-.021-.26-.061-.38l12.77-3.58c.041.15.1.3.2.44l9.57 14.22zm17.59-4.25-14.439 3.55-9.571-14.22 12.25.86 11.76 9.81zm-14.439 54.13-24.562-42.25 22.482-4.78 2.08 47.03zm15.459-51.29-12.48 50.83-2.1-47.24 14.58-3.59z"/><path d="m542.2 180.341-14.58 3.591 2.1 47.24-.96 3.919-1.957.54-2.143-51.03-22.481 4.78 24.561 42.25.18 4.03-2.46-2.009-.01-.01-25.17-43.291-16.74 9.06-1.26-1.019.489-1.97 16.561-8.97-.21-15.391 1.49-.989 1.44-.4c.04.12.06.25.06.38l.21 15.44 22.27-4.741-9.571-14.22a1.353 1.353 0 0 1-.199-.44l1.44-.398 1.91.129v.01l9.57 14.22 14.439-3.551 1.42 1.192-.399 1.648z"/></g><g style="display:block"><path stroke-linecap="round" stroke-linejoin="round" stroke="#000" stroke-width="3" d="M-469.119 245.043c54.119 3.96 119.263 58.282 183.158 56.726 61.29-1.493 110.106-68.448 171.414-68.372 84.547.105 156.567 66.222 240.155 70.615 85.393 4.487 136.517-66.637 208.24-62.472 31.902 2.834 37.527 14.958 71.56 30.24 3.577 1.606 18.484 6.477 50.998.321" fill="none"/><path stroke-linecap="round" stroke-linejoin="round" stroke="#000" stroke-width="3" d="M-453.001 137.463c38 1.537 102.307 57.642 158.665 58.464 63.098.92 127.722-59.88 190.597-54.502 74.848 6.403 130.968 80.116 205.777 86.138 69.525 5.596 135.449-51.501 205.899-52.475 39.484-.546 82.062 36.413 103.562 52.375 16.504 12.253 42.676 17.008 48.651 18.523 5.975 1.515 6.553 1.08 12.53 1.989 4.069.619 5.944.369 9.039.479 1.565.055 3.055.333 5.193.074 6.14-.744 26.116.117 9.931 20.768" fill="none"/><path fill="#FFF" d="M526.762 271.122c-2.004 1.504-134.074-12.29-167.894-15.813-4.155-.433-7.803 2.745-7.95 6.921a7.211 7.211 0 0 0 6.677 7.443l167.642 12.365"/><path stroke-linecap="round" stroke-linejoin="round" stroke="#000" stroke-width="3" d="M526.762 271.122c-2.004 1.504-134.074-12.29-167.894-15.813-4.155-.433-7.803 2.745-7.95 6.921a7.211 7.211 0 0 0 6.677 7.443l167.642 12.365" fill="none"/><path stroke-linecap="round" stroke-linejoin="round" stroke="#000" stroke-width="3" d="M525.457 275.766c-.56 16.023 13.03 20.763 60.37 22.416 33.734 1.178 66.372-11.395 66.764-22.597.39-11.203-25.048-18.428-65.347-17.969-33.751.384-61.396 6.948-61.787 18.15z" fill="none"/><path stroke-linecap="round" stroke-linejoin="round" stroke="#000" stroke-width="3" d="M534.096 278.746c1.366 9.756 14.314 10.842 53.325 11.45 28.498.443 54.497-9.313 53.544-16.133-.956-6.822-23.171-10.297-57.001-8.569-28.333 1.447-50.821 6.43-49.868 13.252zm.426 12.274s6.588 18.369 29.592 39.278c23.006 20.908 37.534 25.095 37.534 25.095m-43.665-57.432s17.926 22.416 36.751 35.08c18.826 12.665 20.958 10.901 20.958 10.901m-29.865-45.76s7.109 14.412 21.08 22.16c13.97 7.749 18.801 10.008 18.801 10.008m-12.649-34.054s3.127 6.22 11.04 11.523c7.912 5.302 10.617 6.457 10.617 6.457" fill="none"/><path stroke-linecap="round" stroke-linejoin="round" stroke="#000" stroke-width="3" d="M534.801 311.788s18.999 2.008 42.733-13.945" fill="none"/><path stroke-linecap="round" stroke-linejoin="round" stroke="#000" stroke-width="3" d="M542.972 327.46s24.456 5.745 53.417-8.88c28.962-14.627 51.407-35.413 51.407-35.413-1.287 14.469-22.027 51.796-32.736 62.591-10.71 10.797-23.57 16.212-33.33 15.87-9.763-.34-20.189-9.081-35.414-28.88-15.225-19.8-18.668-46.887-18.668-46.887" fill="none"/><path stroke-linecap="round" stroke-linejoin="round" stroke="#000" stroke-width="3" d="M558.19 346.626s8.78 5.831 32.387-6.47c23.607-12.299 44.14-25.88 44.14-25.88" fill="none"/><path fill="#FFF" d="M431.253 260.05c-12.278-16.558-37.695-19.977-29.545 3.407a.069.069 0 0 0 .003.008 208.472 208.472 0 0 0-5.807-4.902c-13.022-10.605-22.473 2.334-15.813 13.323 7.441 12.278 18.232 25.002 29.023 29.839 10.79 4.838 20.651-.372 14.512-11.906a77.575 77.575 0 0 0-1.897-3.342c1.301.975 2.57 2.192 3.788 3.899 10.048 14.074 27.317 6.029 21.07-6.31 1.666 1.664 3.587 3.37 5.876 5.194 11.906 9.488 27.162 1.303 18.79-12.837s-15.813-21.806-15.813-21.806c-14.14-18.938-34.419-13.394-24.187 5.434z"/><path stroke-linecap="round" stroke-linejoin="round" stroke="#000" stroke-width="3" d="M380.353 271.886c-6.66-10.99 3.793-25.052 15.813-13.323 12.534 12.228 18.605 20.51 27.721 31.256 8.453 9.963-3.72 16.745-14.512 11.907-10.79-4.837-21.58-17.562-29.022-29.84zm51.162-11.836c-12.278-16.558-38.196-19.977-30.046 3.407" fill="none"/><path stroke-linecap="round" stroke-linejoin="round" stroke="#000" stroke-width="3" d="M424.38 290.376c9.718 13.61 27.337 6.537 22.981-5.103-.178-.476-.392-.96-.646-1.451m.846.944a72.595 72.595 0 0 0 5.164 4.493c11.906 9.488 27.162 1.303 18.79-12.837s-15.813-21.805-15.813-21.805c-14.14-18.94-34.419-13.394-24.187 5.434m-1.379-1.903 17.782 27.428" fill="none"/></g><path stroke-linecap="round" stroke-linejoin="round" stroke="#000" stroke-width="22" d="m483.844-127.031 68 28m-1108-12 84 16m476-44-8 644m0-824-184 72-232 144 412 608 424-612-240-140-180-72zm-452 88 44 56M482-277l-76 64m-1020 12 128 60m960-40 100-40m-742.156 29.969-116 176 272 524 296-520-124-176m16-48-20 52-156 40-164-44-28-56m604 136-120 100-292 116-276-108-128-100" fill="none" transform="rotate(17 -103.302 2201.816) scale(.16)" style="display:block"/></g></svg>
