<svg xmlns="http://www.w3.org/2000/svg" xmlns:xlink="http://www.w3.org/1999/xlink" viewBox="0 0 560.5 452.32"><defs><style>.cls-2{fill:#93dad5}.cls-3{fill:#010101}</style></defs><image width="1520" height="3404" transform="translate(-936.78 -632.52)" xlink:href="../../../../../03_Working/07_Figma/_render/HERO%20-%20full%20color.png" style="opacity:.05" id="Placement"/><g id="Layer_3" data-name="Layer 3"><path class="cls-2" d="m193.43 243.87 11.37-14.71 35.58-9.08 9.68 9.08s-15.85 1.51-25.27 3.59-31.36 11.12-31.36 11.12ZM75.46 278.13a4.52 4.52 0 0 0-.47.36 2.05 2.05 0 0 0 .47-.36ZM467.5 57.15c-61.15-35.4-82.61-30-82.61-30l-45.32 110.17s.05.9-.41.81c0 0 29 4 51.37 14.74.27-.88 1.85-6.25 2.81-11.19 1.05-5.41 5-11.34 5-11.34s-15.1 3.13-20.4 2.52-8.32-2.8-7.37-6.2 10.4-9.07 15.34-11.24 20.34-5.23 20.34-5.23a153 153 0 0 1 10.26-12.65c6.43-7.18 25.44 0 25.44 0l3.3 4.16s-7.56 39-17.06 51.31S414 169 414 169a15.78 15.78 0 0 1-3.55-3.76c-.85-1.2-5-3.82-9.35-6.33 22.19 15.25 46.77 53.53 54.72 107.37s19.2-27.8 32.08-51.4 52.57-108.36 52.57-108.36-11.81-13.96-72.97-49.37Z"/><path class="cls-2" d="M76.06 262.48c6.22 1.45 15.76 4.07 28.72 0a178.84 178.84 0 0 0 21.66-8.25l5.65-17.56s-21.84.22-56.89 7.76a124.51 124.51 0 0 0-54.74 27.79 1.26 1.26 0 0 0 .6 2.17c3.29.63 9.81 2.95 20.86 10.95 8.8 6.36 27.52 21 42.92 32.53 7.24 5.44 17.85 10.93 25.26 15l5.09 2.91-5-15.13 17.21-16.82s-25.4 3.71-31.49 3-12.79-6-9.94-12.21c0 0-13.26-.95-13.82-7.54-.45-5.16 1.82-7.73 2.82-8.6-.81.47-2.71.93-5.9-1.92-4.39-3.95-4.33-5.8-2.88-10.3s3.66-5.26 9.87-3.78ZM350.68 298.52c-12.4 11.41-56.27 5-84.17 3.61s-42.91 5-63.65 22.69c-14.8 12.62-34.32 33.54-44.3 44.49s26.42 14.36 40.72 22.23S216.45 403 216.45 403s20.62-40.81 60-53.64l43.4-12.28c42-10.38 78.31-15.67 78.5-15.7a105.79 105.79 0 0 1-11.64-4.21c-10.52-4.51-24.17-11.89-36.03-18.65Z"/><path class="cls-3" d="M414 170.49a1.46 1.46 0 0 1-1-.37 1.49 1.49 0 0 1-.16-2.11c.21-.24 20.54-23.92 24.76-42.41 3.69-16.19 2.79-27.24 2.5-29.84-2.44-1.76-13.84-9.3-21.4-2.11-9 8.59-11 16.8-11 16.88a1.5 1.5 0 0 1-2.92-.65c.08-.37 2.11-9.14 11.87-18.41 8.29-7.88 20.51-1.94 25.81 2.3a1.55 1.55 0 0 1 .55.94c.08.5 1.9 12.42-2.47 31.56S416 169 415.12 170a1.5 1.5 0 0 1-1.12.49ZM390.49 154.51h-.27a1.51 1.51 0 0 1-1.2-1.75c.1-.59 2.69-14.46 8-23.18a1.5 1.5 0 1 1 2.56 1.57c-5 8.24-7.61 22-7.63 22.15a1.5 1.5 0 0 1-1.46 1.21Z"/><path class="cls-3" d="M419.93 326.35c-13.57 0-27.05-4.91-33.84-7.82-23.2-9.94-62.28-34.19-62.67-34.44a1.51 1.51 0 0 1-.69-1.51c.06-.39 1.71-9.78 18.65-23.81C358 245 365.48 245 366.27 245.08a1.8 1.8 0 0 1 .39.08c1 .34 24.52 8.58 45.54 36.76a1.5 1.5 0 0 1-.31 2.1 1.48 1.48 0 0 1-2.09-.31C393.61 262 374.18 251 365.93 248.08c-1.08.07-8.15 1-22.64 13-12.92 10.7-16.45 18.46-17.33 21 6.13 3.78 40.33 24.65 61.31 33.64 7.81 3.35 34.66 13.44 52 2.7 9.38-5.81 14.61-16.87 15.52-32.88 2.31-40.37-22.43-106.42-54.59-125.94-20.57-12.49-43.56-17.27-61.28-20-20.31-3.18-39.83 6.39-56.25 16.16a1.5 1.5 0 0 1-1.54-2.58c16.88-10 37-19.86 58.25-16.55 18 2.82 41.36 7.68 62.37 20.44 13.52 8.21 28.22 27.5 39.33 51.62 12.11 26.28 18 53.65 16.7 77.07-1 17-6.67 28.9-16.93 35.25-6.31 3.92-13.63 5.34-20.92 5.34ZM378.48 134.36c-4.86 0-8.27-1.58-9.19-4.41-.78-2.37-.27-7.33 11.91-13.91 17.87-9.66 37.29-7.09 38.11-7a1.5 1.5 0 1 1-.41 3c-.19 0-19.3-2.54-36.28 6.63-8.7 4.71-11.08 8.51-10.48 10.35.53 1.63 4 2.88 9.56 2.11 3.28-.46 6.19-.82 8.81-1.16 10.48-1.32 16.26-2.06 23.69-5.4a1.5 1.5 0 0 1 1.23 2.74c-7.84 3.52-14.13 4.32-24.54 5.64-2.62.33-5.51.7-8.77 1.15a26.4 26.4 0 0 1-3.64.26ZM404.38 148.08a17.33 17.33 0 0 1-12.12-4.6 1.5 1.5 0 1 1 2.17-2.07c.24.25 5.78 5.78 15.65 2.78 10-3.06 12.49-9.43 12.59-9.7a1.5 1.5 0 0 1 2.82 1c-.11.33-3 8-14.53 11.55a22.34 22.34 0 0 1-6.58 1.04Z"/><path class="cls-3" d="M370.63 220a22.2 22.2 0 0 1-11.43-3.13c-6.54-3.92-5.44-11.67-3.95-15.22a1.5 1.5 0 0 1 2.77 1.16c-.13.32-3.21 7.93 2.73 11.49a19.41 19.41 0 0 0 13.18 2.39 1.5 1.5 0 0 1 .7 2.92 18.61 18.61 0 0 1-4 .39ZM402 273.64a1.49 1.49 0 0 1-1.13-.51C388 258.38 386.52 214.82 386.46 213a1.5 1.5 0 0 1 3-.09c0 .44 1.53 44.33 13.71 58.28a1.49 1.49 0 0 1-.15 2.11 1.46 1.46 0 0 1-1.02.34ZM313.14 197.53a1.41 1.41 0 0 1-.4-.05 1.5 1.5 0 0 1-1.05-1.84c4.74-17.46 20.49-29.4 21.16-29.89a1.5 1.5 0 1 1 1.8 2.4c-.16.11-15.6 11.83-20.06 28.28a1.52 1.52 0 0 1-1.45 1.1ZM362.59 248.8a1.51 1.51 0 0 1-1.49-1.28c0-.15-2.14-14.33-6.75-21.6-4.5-7.11-8.81-9.33-8.85-9.35a1.5 1.5 0 0 1 1.33-2.69c.2.1 5.06 2.54 10.06 10.44s7.09 22.15 7.18 22.76a1.5 1.5 0 0 1-1.26 1.7ZM333.75 246.89a1.52 1.52 0 0 1-1.26-.69c-4.14-6.42-6.79-13.56-8.33-22.49-.82-4.77-.37-8.23 1.35-10.27a5.9 5.9 0 0 1 4.66-2c5.52 0 6.78 4.83 8.11 10a46.48 46.48 0 0 0 2.3 7.15c3.19 7.28 10.65 10.95 10.72 11a1.5 1.5 0 1 1-1.31 2.7c-.34-.17-8.52-4.2-12.16-12.48a49.75 49.75 0 0 1-2.45-7.61c-1.45-5.58-2.28-7.7-5.21-7.7a3 3 0 0 0-2.38 1c-1.08 1.3-1.33 4.08-.68 7.83 1.47 8.52 4 15.31 7.89 21.37a1.51 1.51 0 0 1-1.26 2.32Z"/><path class="cls-3" d="M317.3 246.89a1.5 1.5 0 0 1-1.4-1c-.29-.73-7-18.13-4.2-27.86 1.82-6.25 5.18-7.57 7-7.8 3.08-.38 6.26 1.55 8.33 5a1.5 1.5 0 0 1-2.59 1.53c-1.42-2.41-3.52-3.82-5.36-3.59s-3.53 2.25-4.52 5.66c-2.55 8.74 4.05 25.76 4.11 25.93a1.49 1.49 0 0 1-.84 1.94 1.54 1.54 0 0 1-.53.19Z"/><path class="cls-3" d="M328 276.52h-.07c-1.93-.09-17.9-16-23.86-27.08-4.87-9-5.82-19.85-2.75-31.34 1.08-4 3.95-6.88 7-6.88 1.37 0 4.71.71 6.26 6.91a1.5 1.5 0 1 1-2.91.72c-.72-2.88-2-4.62-3.38-4.63-1.38 0-3.28 1.63-4.09 4.66-2.9 10.88-2.07 20.68 2.5 29.13 6 11.13 20.16 24.34 21.88 25.62a1.74 1.74 0 0 1 .27.14 1.5 1.5 0 0 1 .4 2.08 1.52 1.52 0 0 1-1.25.67Zm-.34-3a1.44 1.44 0 0 0-.88.62 1.49 1.49 0 0 1 .87-.58Z"/><path class="cls-3" d="M152.07 378a1.5 1.5 0 0 1-1.07-.46c-.23-.24-23.09-23.88-34.46-39.14-5.9-7.92-8.49-13.88-7.69-17.71a4.21 4.21 0 0 1 1.49-2.57c2.39-2.32 52.8-51.22 72.3-65.85l1.15-.86c19.53-14.66 36.4-27.33 98.07-23.77a1.5 1.5 0 0 1 1.41 1.58 1.47 1.47 0 0 1-1.58 1.41c-60.58-3.49-77 8.87-96.1 23.18l-1.15.86c-19.72 14.8-71.57 65.18-72.09 65.68-.13.13-.11.15-.24.2-.29.39-2.29 3.8 6.83 16.05 9.82 13.18 28.36 32.74 33.09 37.69 5.58-6.24 31.48-35 49.85-50.63 22.09-18.83 37.81-24.43 64.71-23.05 5.45.28 11.44.74 17.78 1.23 24.86 1.92 55.78 4.3 65.29-4.44a1.5 1.5 0 1 1 2 2.2c-10.46 9.64-40.79 7.3-67.55 5.23-6.32-.48-12.29-.94-17.7-1.22-26.32-1.35-40.95 3.87-62.61 22.33-20.43 17.42-50.33 51.21-50.63 51.55a1.54 1.54 0 0 1-1.09.51Z"/><path class="cls-3" d="M250.06 230.66a1.51 1.51 0 0 1-1-.35c-13.06-10.91-22.94-42.72-23.36-44.07a1.5 1.5 0 0 1 2.87-.88c.1.32 10 32.31 22.41 42.64a1.51 1.51 0 0 1 .2 2.12 1.54 1.54 0 0 1-1.12.54Z"/><path class="cls-3" d="M183.55 255a1.5 1.5 0 0 1-1.15-.52 1.51 1.51 0 0 1 .17-2.12c25.57-21.89 52.84-88.17 53.11-88.83a1.5 1.5 0 0 1 2.78 1.13c-.07.17-7 17-17 36.43-13.51 26.13-25.93 44.14-36.92 53.55a1.45 1.45 0 0 1-.99.36Z"/><path class="cls-3" d="M170.88 264a124.25 124.25 0 0 1-46.6-9.12 1.48 1.48 0 0 1-.78-1.91c5.31-13.59 33.59-77.81 65-121 8.74-12 23.2-26.81 42.45-29.28 11.63-1.5 19.42 2.23 19.74 2.39 18.69 8.44 35.58 56.46 36.29 58.5a1.5 1.5 0 0 1-2.84 1c-.17-.49-17.16-48.85-34.72-56.78-.12 0-7.48-3.54-18.27-2.1-14.33 1.9-28.24 11.6-40.22 28.05-28.32 38.87-56.2 99.17-64.13 118.92a125.42 125.42 0 0 0 45.69 8.3 1.49 1.49 0 0 1 1.5 1.48 1.51 1.51 0 0 1-1.48 1.52ZM118.11 398c-5.66 0-10.09-4.26-14.41-8.41-2.86-2.76-5.83-5.6-9.15-7.22-9.91-4.83-32.33-8.58-39.34-6.58l-.66.19c-5.23 1.51-11.75 3.38-16.51.68-2.45-1.39-4.16-3.84-5.08-7.29s-.39-6.37 1.57-8.71c4-4.77 12.67-5.19 15.39-5a1.5 1.5 0 1 1-.25 3c-2.8-.23-9.93.43-12.84 3.9-1.31 1.57-1.63 3.54-1 6 .72 2.68 1.91 4.46 3.66 5.45 3.67 2.07 9.51.4 14.21-.95l.66-.19c8.23-2.36 31.75 2 41.48 6.76 3.74 1.82 6.88 4.84 9.91 7.76 5.3 5.09 9.88 9.49 16.37 6.65 7.1-3.11 8.11-7 9.28-11.54a23.7 23.7 0 0 1 2.55-6.82 57.63 57.63 0 0 1 7.69-10.2 1.5 1.5 0 1 1 2.1 2.13 56.51 56.51 0 0 0-7.23 9.63 21.48 21.48 0 0 0-2.21 6c-1.19 4.61-2.54 9.84-11 13.54a13.11 13.11 0 0 1-5.19 1.22Z"/><path class="cls-3" d="M38 361.2a1.61 1.61 0 0 1-.6-.12c-5.22-2.27-8-6-7.78-10.24s3.47-7.74 8-9c7.93-2.27 13.29 0 13.52.06a1.5 1.5 0 0 1-1.18 2.76c-.07 0-4.69-1.89-11.52.06-3.22.92-5.61 3.53-5.79 6.34s2 5.55 6 7.29a1.5 1.5 0 0 1-.6 2.87Z"/><path class="cls-3" d="M38 344.76a1.51 1.51 0 0 1-1.15-.53c-5.47-6.47-7.42-11.45-6-15.23 1.17-3 4.44-4.95 9.73-5.66 7.56-1 14.09 8.3 14.36 8.7a1.5 1.5 0 0 1-2.47 1.7c-.06-.08-5.74-8.2-11.49-7.43-2.83.38-6.4 1.35-7.33 3.77-.69 1.8-.31 5.39 5.46 12.21a1.5 1.5 0 0 1-1.11 2.47Z"/><path class="cls-3" d="M95.35 338.68a54.92 54.92 0 0 1-18.17-3.26c-10.46-3.76-10.41-8.4-9.25-14.08.15-.74.3-1.5.4-2.24a9.42 9.42 0 0 0-1.88-7.56c-2.31-2.64-6.6-4-12.72-4a10.24 10.24 0 0 0-8 3.19c-4.38 4.89-3.46 13.82-3.45 13.91a1.5 1.5 0 0 1-3 .33c-.05-.42-1.09-10.33 4.19-16.23a13.1 13.1 0 0 1 10.23-4.2c7 0 12.07 1.69 15 5a12.33 12.33 0 0 1 2.61 9.93c-.12.83-.28 1.65-.44 2.44-.89 4.34-1.52 7.47 7.32 10.66 10 3.59 21.13 4.12 27.67 1.3a11.74 11.74 0 0 0 3.33-2.11 1.5 1.5 0 1 1 2 2.19 14.41 14.41 0 0 1-4.19 2.67 30.15 30.15 0 0 1-11.65 2.06Z"/><path class="cls-3" d="M67.17 324.87c-2.9 0-8-.8-10.82-5.92-3.29-5.92.24-11.39 2.58-13.45a1.5 1.5 0 0 1 2 2.24c-.22.2-4.88 4.49-2 9.76s9.58 4.3 9.86 4.25a1.5 1.5 0 0 1 .53 2.95 12.79 12.79 0 0 1-2.15.17ZM99.67 308.32a44.12 44.12 0 0 1-4.61-.21c-7.62-.77-10.88-5-11.39-8.78-.63-4.57 2.49-9 7.77-11.11 10.37-4.08 15.69-2.61 15.91-2.55a1.5 1.5 0 0 1-.83 2.88s-4.7-1.19-14 2.46c-4 1.58-6.34 4.69-5.9 7.91s3.8 5.71 8.72 6.21c11.8 1.19 30.72-3.06 32.61-3.86a1.5 1.5 0 0 1 1.84 2.35c-1.37 1.38-18.18 4.7-30.12 4.7Zm28.08-6.88Zm.27-.19Z"/><path class="cls-3" d="M85.24 296.13c-6.88 0-11.89-2.44-13.81-6.75-1.75-3.94-.43-8.78 3.55-13 6.83-7.18 20.79-3 21.38-2.83a1.49 1.49 0 0 1 1 1.87 1.52 1.52 0 0 1-1.87 1c-.13 0-12.79-3.81-18.34 2-3.15 3.31-4.24 6.84-3 9.67 1.45 3.27 5.86 5.11 11.78 5a1.47 1.47 0 0 1 1.54 1.46 1.49 1.49 0 0 1-1.47 1.57Z"/><path class="cls-3" d="M74.17 280.33H74a10.5 10.5 0 0 1-7.56-4.4c-2.8-3.67-2.88-9.7-.18-13.18 1.51-1.93 5.1-4.72 12.33-1.65 9.68 4.11 17.75 2.19 31.18-1.54a74.41 74.41 0 0 0 15.91-6.64 1.5 1.5 0 0 1 1.44 2.63 77.3 77.3 0 0 1-16.54 6.9c-12.32 3.42-22 6.13-33.16 1.41-2.82-1.2-6.64-2-8.79.73-1.86 2.4-1.77 6.94.2 9.52a7.6 7.6 0 0 0 5.43 3.23 1.5 1.5 0 0 1-.13 3ZM336.7 367.31c-12.15 0-16.85-6.56-17.05-6.85a1.48 1.48 0 0 1-.14-1.45l11.14-25.47a1.49 1.49 0 0 1 2-.77 1.51 1.51 0 0 1 .78 2l-10.77 24.61c1.43 1.51 6 5.27 15.28 4.93a75 75 0 0 0 17.51-2.69 3.35 3.35 0 0 0 2.32-2.39l8.23-32.9a1.5 1.5 0 1 1 2.91.73l-8.23 32.87a6.37 6.37 0 0 1-4.4 4.56 79 79 0 0 1-18.22 2.8c-.48.02-.93.02-1.36.02Z"/><path class="cls-3" d="M316.21 411.62a145.28 145.28 0 0 1-45.87-7.21c-39.56-13.09-40.34-22-40.1-23.67l3 .43a.6.6 0 0 0 0-.13c0 .08.72 8.17 38.06 20.52 25.52 8.44 53.59 9.32 83.43 2.61 30.4-6.84 50.88-18.93 56.43-22.48C421.6 375 427 368 426.65 361.51c-.24-5.26-4.35-10.21-11.57-13.92-15.26-7.85-49.85-9.5-50.2-9.51a1.51 1.51 0 0 1-1.43-1.57 1.47 1.47 0 0 1 1.57-1.43c1.44.06 35.59 1.69 51.43 9.84 8.22 4.22 12.9 10.07 13.2 16.45.25 5.35-2.48 13.65-16.89 22.85-5.66 3.61-26.52 15.93-57.39 22.88a178.29 178.29 0 0 1-39.16 4.52Z"/><circle class="cls-3" cx="430.23" cy="115.42" r="2"/><path class="cls-3" d="M421.31 159.88s18.77 7.12 29.26 7.12c0 0 21.83-32.43 5.91-64.85-15.51-31.6-57-22.17-69.06-5.64a1.38 1.38 0 0 0 .46 2l19.83 10.43a1.36 1.36 0 0 0 1.56-.21c3-2.77 15.45-17 31.39-7.43 11.14 6.7-19.35 58.58-19.35 58.58ZM302.75 218.49c1.67-6.24 8.14-9 10.39 0 2.73-9.34 9.39-7.88 12.61-2.41a4.34 4.34 0 0 1 4.42-3.16c6.44 0 5.61 8.34 9.06 16.2a20.77 20.77 0 0 0 2.19 3.78l2.67-.15 4.81-40.54a1.29 1.29 0 0 0-.76-1.32l-62.55-26.8s8.1 24.31 11.11 40-.14 25.75 0 28.61c0 .54 1.71.87 4.43 1.06a47.39 47.39 0 0 1 1.62-15.27Z"/><path class="cls-3" d="M296.7 234.25a1.5 1.5 0 0 1-1.5-1.42 23.05 23.05 0 0 1 .36-3.67 70.44 70.44 0 0 0-.33-24.74c-3-15.46-11-39.62-11.06-39.86a1.5 1.5 0 1 1 2.84-.95c.08.24 8.17 24.6 11.16 40.25a73 73 0 0 1 .36 25.73 23.2 23.2 0 0 0-.33 3.08 1.51 1.51 0 0 1-1.42 1.58ZM204.7 228.92a1.5 1.5 0 0 1-.25-3l38.34-6.45a1.5 1.5 0 1 1 .5 3L205 228.9Z"/></g></svg>
