<svg aria-labelledby="save-icon-top-title " fill="currentColor" xmlns="http://www.w3.org/2000/svg" viewBox="0 0 24 24" aria-hidden="true"><path fill-rule="evenodd" d="M2 5a2 2 0 012-2h16a2 2 0 012 2H2zm2 0H2v6c0 5.523 4.477 10 10 10s10-4.477 10-10V5h-2v6a8 8 0 11-16 0V5z" clip-rule="evenodd"></path><path fill-rule="evenodd" d="M7.293 9.293a1 1 0 011.414 0L12 12.586l3.293-3.293a1 1 0 111.414 1.414l-4 4a1 1 0 01-1.414 0l-4-4a1 1 0 010-1.414z" clip-rule="evenodd"></path><title id="save-icon-top-title">save icon</title></svg>