<svg xmlns="http://www.w3.org/2000/svg" xmlns:xlink="http://www.w3.org/1999/xlink" xmlns:a="http://ns.adobe.com/AdobeSVGViewerExtensions/3.0/" version="1.1" x="0px" y="0px" width="245px" height="222px" viewBox="0 0 245 222" overflow="visible" enable-background="new 0 0 245 222" xml:space="preserve">
<defs>
</defs>
<linearGradient id="SVGID_6_" gradientUnits="userSpaceOnUse" x1="-3015.3" y1="936.3" x2="-3015.3" y2="719.8" gradientTransform="matrix(1 0 0 1 3138 -719.7998)">
	<stop offset="0" style="stop-color:#1C75BC"/>
	<stop offset="1" style="stop-color:#27AAE1"/>
</linearGradient>
<polygon fill="url(#SVGID_6_)" points="184.2,0.1 184.2,0 184,0.1 183.9,0 183.9,0.1 122.7,24.6 61.6,0.1 61.6,0 61.4,0.1 61.3,0 61.3,0.1 0,24.6 0,216.5 61.4,193 122.6,216.4 122.6,216.5 122.7,216.5 122.9,216.5 122.9,216.4 184,193 245.5,216.5 245.5,24.6"/>
<linearGradient id="SVGID_7_" gradientUnits="userSpaceOnUse" x1="-3107.2" y1="936.3" x2="-3107.2" y2="719.8" gradientTransform="matrix(1 0 0 1 3138 -719.7998)">
	<stop offset="0" style="stop-color:#014D92"/>
	<stop offset="1" style="stop-color:#0B92C8"/>
</linearGradient>
<polygon fill="url(#SVGID_7_)" points="0,24.6 0,216.5 61.6,193 61.6,0"/>
<linearGradient id="SVGID_8_" gradientUnits="userSpaceOnUse" x1="-3045.9" y1="936.3" x2="-3045.9" y2="719.8" gradientTransform="matrix(1 0 0 1 3138 -719.7998)">
	<stop offset="0" style="stop-color:#00549F"/>
	<stop offset="1" style="stop-color:#00A0DB"/>
</linearGradient>
<polygon fill="url(#SVGID_8_)" points="122.9,24.6 122.9,216.5 61.3,193 61.3,0"/>
<linearGradient id="SVGID_9_" gradientUnits="userSpaceOnUse" x1="-2984.6" y1="936.3" x2="-2984.6" y2="719.8" gradientTransform="matrix(1 0 0 1 3138 -719.7998)">
	<stop offset="0" style="stop-color:#014D92"/>
	<stop offset="1" style="stop-color:#0B92C8"/>
</linearGradient>
<polygon fill="url(#SVGID_9_)" points="122.6,24.6 122.6,216.5 184.2,193 184.2,0"/>
<linearGradient id="SVGID_10_" gradientUnits="userSpaceOnUse" x1="-2923.3" y1="936.3" x2="-2923.3" y2="719.8" gradientTransform="matrix(1 0 0 1 3138 -719.7998)">
	<stop offset="0" style="stop-color:#00549F"/>
	<stop offset="1" style="stop-color:#00A0DB"/>
</linearGradient>
<polygon fill="url(#SVGID_10_)" points="245.5,24.6 245.5,216.5 183.9,193 183.9,0"/>
<g>
	<defs>
		<path id="SVGID_5_" d="M210.739 112.224c-2.154-6.46-1.541-17.484-2.646-19.073c-7.177-9.854-33.362-11.594-45.128-24.572 c2.068-6.386-2.135-11.688-6.429-15.727c-6.451-4.701-15.419-2.626-22.343-0.746c-7.852-1.664-15.12-4.47-22.762-6.711 c-17.026-1.86-33.906 10.16-33.906 10.16C65.38 63.3 46.3 79.3 37.2 88.612c2.233 0.3 4.612-1.361 7.132-1.668 l17.456-4.528c-7.281 6.008-22.583 16.573-27.048 24.956c5.452-1.868 16.911-8.194 22.585-8.673 c-4.988 4.399-15.38 12.735-18.661 18.062c0.389 0.2 0.1 0.7 0.2 0.98c4.277-2.354 14.678-8.516 19.38-8.905 c-4.875 5.053-13.835 14.781-15.832 21.326c4.223-2.759 14.828-8.343 19.458-10.026c-1.072 2.582-3.422 4.486-4.958 7.1 c-2.123 3.567-7.104 7.605-7.327 11.86c3.708-3.447 8.296-6.468 12.905-8.883c-2.081 4.287-5.863 7.818-6.927 12.9 c3.03-2.925 8.736-4.418 12.618-5.753l-0.467 0.451c-0.333 0.275-4.726 3.375-7.715 6.845c2.642-0.149 0.675-0.483 4 0.3 l1.828 0.099c-0.911 0.475-1.907 1-2.959 1.558l0 0c-1.628 0.863-3.384 1.805-5.157 2.774c7.252 9.3 16.3 16.7 26.6 21.7 c13.469 6.6 28.1 8.7 42.8 7.04c-0.176-0.863-0.368-1.722-0.593-2.574l0 0c0-0.003 0-0.008-0.005-0.015 c-0.269-1.041-0.584-2.068-0.953-3.08l0 0c-0.019-0.057-0.035-0.111-0.059-0.165c5.027-9.336 2.385-25.333 15.255-31.749 c8.661-4.415 9.647-6.849 19.6-4.949c5.377 1 17.1 5.1 22.8 3.87c5.126-2.842 7.705-4.145 12.132-7.444 c5.537 1 7.3 0.4 9.368-2.491c-1.845 2.6 3.587-10.016 5.882-14.753L210.739 112.224z"/>
	</defs>
	<clipPath id="SVGID_11_">
		<use xlink:href="#SVGID_5_" overflow="visible"/>
	</clipPath>
	<ellipse clip-path="url(#SVGID_11_)" fill="#FFFFFF" cx="122.6" cy="113.1" rx="114" ry="77.3"/>
</g>
<g>
	<defs>
		<path id="SVGID_4_" d="M210.739 112.224c-2.154-6.46-1.541-17.484-2.646-19.073c-7.177-9.854-33.362-11.594-45.128-24.572 c2.068-6.386-2.135-11.688-6.429-15.727c-6.451-4.701-15.419-2.626-22.343-0.746c-7.852-1.664-15.12-4.47-22.762-6.711 c-17.026-1.86-33.906 10.16-33.906 10.16C65.38 63.3 46.3 79.3 37.2 88.612c2.233 0.3 4.612-1.361 7.132-1.668 l17.456-4.528c-7.281 6.008-22.583 16.573-27.048 24.956c5.452-1.868 16.911-8.194 22.585-8.673 c-4.988 4.399-15.38 12.735-18.661 18.062c0.389 0.2 0.1 0.7 0.2 0.98c4.277-2.354 14.678-8.516 19.38-8.905 c-4.875 5.053-13.835 14.781-15.832 21.326c4.223-2.759 14.828-8.343 19.458-10.026c-1.072 2.582-3.422 4.486-4.958 7.1 c-2.123 3.567-7.104 7.605-7.327 11.86c3.708-3.447 8.296-6.468 12.905-8.883c-2.081 4.287-5.863 7.818-6.927 12.9 c3.03-2.925 8.736-4.418 12.618-5.753l-0.467 0.451c-0.333 0.275-4.726 3.375-7.715 6.845c2.642-0.149 0.675-0.483 4 0.3 l1.828 0.099c-0.911 0.475-1.907 1-2.959 1.558l0 0c-1.628 0.863-3.384 1.805-5.157 2.774c7.252 9.3 16.3 16.7 26.6 21.7 c13.469 6.6 28.1 8.7 42.8 7.04c-0.176-0.863-0.368-1.722-0.593-2.574l0 0c0-0.003 0-0.008-0.005-0.015 c-0.269-1.041-0.584-2.068-0.953-3.08l0 0c-0.019-0.057-0.035-0.111-0.059-0.165c5.027-9.336 2.385-25.333 15.255-31.749 c8.661-4.415 9.647-6.849 19.6-4.949c5.377 1 17.1 5.1 22.8 3.87c5.126-2.842 7.705-4.145 12.132-7.444 c5.537 1 7.3 0.4 9.368-2.491c-1.845 2.6 3.587-10.016 5.882-14.753L210.739 112.224z"/>
	</defs>
	<clipPath id="SVGID_12_">
		<use xlink:href="#SVGID_4_" overflow="visible"/>
	</clipPath>
	<polygon clip-path="url(#SVGID_12_)" fill="#F1F2F2" points="1.6,28.4 1.6,221.9 62.6,198.1 62.6,3.6"/>
</g>
<g>
	<defs>
		<path id="SVGID_3_" d="M210.739 112.224c-2.154-6.46-1.541-17.484-2.646-19.073c-7.177-9.854-33.362-11.594-45.128-24.572 c2.068-6.386-2.135-11.688-6.429-15.727c-6.451-4.701-15.419-2.626-22.343-0.746c-7.852-1.664-15.12-4.47-22.762-6.711 c-17.026-1.86-33.906 10.16-33.906 10.16C65.38 63.3 46.3 79.3 37.2 88.612c2.233 0.3 4.612-1.361 7.132-1.668 l17.456-4.528c-7.281 6.008-22.583 16.573-27.048 24.956c5.452-1.868 16.911-8.194 22.585-8.673 c-4.988 4.399-15.38 12.735-18.661 18.062c0.389 0.2 0.1 0.7 0.2 0.98c4.277-2.354 14.678-8.516 19.38-8.905 c-4.875 5.053-13.835 14.781-15.832 21.326c4.223-2.759 14.828-8.343 19.458-10.026c-1.072 2.582-3.422 4.486-4.958 7.1 c-2.123 3.567-7.104 7.605-7.327 11.86c3.708-3.447 8.296-6.468 12.905-8.883c-2.081 4.287-5.863 7.818-6.927 12.9 c3.03-2.925 8.736-4.418 12.618-5.753l-0.467 0.451c-0.333 0.275-4.726 3.375-7.715 6.845c2.642-0.149 0.675-0.483 4 0.3 l1.828 0.099c-0.911 0.475-1.907 1-2.959 1.558l0 0c-1.628 0.863-3.384 1.805-5.157 2.774c7.252 9.3 16.3 16.7 26.6 21.7 c13.469 6.6 28.1 8.7 42.8 7.04c-0.176-0.863-0.368-1.722-0.593-2.574l0 0c0-0.003 0-0.008-0.005-0.015 c-0.269-1.041-0.584-2.068-0.953-3.08l0 0c-0.019-0.057-0.035-0.111-0.059-0.165c5.027-9.336 2.385-25.333 15.255-31.749 c8.661-4.415 9.647-6.849 19.6-4.949c5.377 1 17.1 5.1 22.8 3.87c5.126-2.842 7.705-4.145 12.132-7.444 c5.537 1 7.3 0.4 9.368-2.491c-1.845 2.6 3.587-10.016 5.882-14.753L210.739 112.224z"/>
	</defs>
	<clipPath id="SVGID_13_">
		<use xlink:href="#SVGID_3_" overflow="visible"/>
	</clipPath>
	<polygon clip-path="url(#SVGID_13_)" fill="#FFFFFF" points="123.2,28.4 123.2,221.9 62.3,198.1 62.3,3.6"/>
</g>
<g>
	<defs>
		<path id="SVGID_2_" d="M210.739 112.224c-2.154-6.46-1.541-17.484-2.646-19.073c-7.177-9.854-33.362-11.594-45.128-24.572 c2.068-6.386-2.135-11.688-6.429-15.727c-6.451-4.701-15.419-2.626-22.343-0.746c-7.852-1.664-15.12-4.47-22.762-6.711 c-17.026-1.86-33.906 10.16-33.906 10.16C65.38 63.3 46.3 79.3 37.2 88.612c2.233 0.3 4.612-1.361 7.132-1.668 l17.456-4.528c-7.281 6.008-22.583 16.573-27.048 24.956c5.452-1.868 16.911-8.194 22.585-8.673 c-4.988 4.399-15.38 12.735-18.661 18.062c0.389 0.2 0.1 0.7 0.2 0.98c4.277-2.354 14.678-8.516 19.38-8.905 c-4.875 5.053-13.835 14.781-15.832 21.326c4.223-2.759 14.828-8.343 19.458-10.026c-1.072 2.582-3.422 4.486-4.958 7.1 c-2.123 3.567-7.104 7.605-7.327 11.86c3.708-3.447 8.296-6.468 12.905-8.883c-2.081 4.287-5.863 7.818-6.927 12.9 c3.03-2.925 8.736-4.418 12.618-5.753l-0.467 0.451c-0.333 0.275-4.726 3.375-7.715 6.845c2.642-0.149 0.675-0.483 4 0.3 l1.828 0.099c-0.911 0.475-1.907 1-2.959 1.558l0 0c-1.628 0.863-3.384 1.805-5.157 2.774c7.252 9.3 16.3 16.7 26.6 21.7 c13.469 6.6 28.1 8.7 42.8 7.04c-0.176-0.863-0.368-1.722-0.593-2.574l0 0c0-0.003 0-0.008-0.005-0.015 c-0.269-1.041-0.584-2.068-0.953-3.08l0 0c-0.019-0.057-0.035-0.111-0.059-0.165c5.027-9.336 2.385-25.333 15.255-31.749 c8.661-4.415 9.647-6.849 19.6-4.949c5.377 1 17.1 5.1 22.8 3.87c5.126-2.842 7.705-4.145 12.132-7.444 c5.537 1 7.3 0.4 9.368-2.491c-1.845 2.6 3.587-10.016 5.882-14.753L210.739 112.224z"/>
	</defs>
	<clipPath id="SVGID_14_">
		<use xlink:href="#SVGID_2_" overflow="visible"/>
	</clipPath>
	<polygon clip-path="url(#SVGID_14_)" fill="#F1F2F2" points="122.9,28.4 122.9,221.9 183.9,198.1 183.9,3.6"/>
</g>
<g>
	<defs>
		<path id="SVGID_1_" d="M210.739 112.224c-2.154-6.46-1.541-17.484-2.646-19.073c-7.177-9.854-33.362-11.594-45.128-24.572 c2.068-6.386-2.135-11.688-6.429-15.727c-6.451-4.701-15.419-2.626-22.343-0.746c-7.852-1.664-15.12-4.47-22.762-6.711 c-17.026-1.86-33.906 10.16-33.906 10.16C65.38 63.3 46.3 79.3 37.2 88.612c2.233 0.3 4.612-1.361 7.132-1.668 l17.456-4.528c-7.281 6.008-22.583 16.573-27.048 24.956c5.452-1.868 16.911-8.194 22.585-8.673 c-4.988 4.399-15.38 12.735-18.661 18.062c0.389 0.2 0.1 0.7 0.2 0.98c4.277-2.354 14.678-8.516 19.38-8.905 c-4.875 5.053-13.835 14.781-15.832 21.326c4.223-2.759 14.828-8.343 19.458-10.026c-1.072 2.582-3.422 4.486-4.958 7.1 c-2.123 3.567-7.104 7.605-7.327 11.86c3.708-3.447 8.296-6.468 12.905-8.883c-2.081 4.287-5.863 7.818-6.927 12.9 c3.03-2.925 8.736-4.418 12.618-5.753l-0.467 0.451c-0.333 0.275-4.726 3.375-7.715 6.845c2.642-0.149 0.675-0.483 4 0.3 l1.828 0.099c-0.911 0.475-1.907 1-2.959 1.558l0 0c-1.628 0.863-3.384 1.805-5.157 2.774c7.252 9.3 16.3 16.7 26.6 21.7 c13.469 6.6 28.1 8.7 42.8 7.04c-0.176-0.863-0.368-1.722-0.593-2.574l0 0c0-0.003 0-0.008-0.005-0.015 c-0.269-1.041-0.584-2.068-0.953-3.08l0 0c-0.019-0.057-0.035-0.111-0.059-0.165c5.027-9.336 2.385-25.333 15.255-31.749 c8.661-4.415 9.647-6.849 19.6-4.949c5.377 1 17.1 5.1 22.8 3.87c5.126-2.842 7.705-4.145 12.132-7.444 c5.537 1 7.3 0.4 9.368-2.491c-1.845 2.6 3.587-10.016 5.882-14.753L210.739 112.224z"/>
	</defs>
	<clipPath id="SVGID_15_">
		<use xlink:href="#SVGID_1_" overflow="visible"/>
	</clipPath>
	<polygon clip-path="url(#SVGID_15_)" fill="#FFFFFF" points="244.6,28.4 244.6,221.9 183.6,198.1 183.6,3.6"/>
</g>
</svg>
