<svg width="468" height="288" viewBox="0 0 468 288" xmlns="http://www.w3.org/2000/svg"><g fill="none" fill-rule="evenodd"><path fill="#FF7139" d="M378 36h36.233V0H378z"/><path fill="#FF2889" d="M432 90h36V54h-36zM324 198h36V54h-36z"/><path d="M414 0c29.824 0 54 24.266 54 54.2h-36c0-9.978-8.059-18.067-18-18.067V0z" fill="#FF7139"/><mask id="a" fill="#fff"><path d="M-1.35 291.242h472.941V-6.229H-1.35z"/></mask><path fill="#FF2889" mask="url(#a)" d="M432 126.166h36V89.765h-36z"/><path fill="#971DB5" mask="url(#a)" d="M54 180h360.166v-36H54z"/><path fill="#FF2889" mask="url(#a)" d="M234 288h72v-36h-72zm234-162c0 29.823-24.176 54-54 54v-36c9.941 0 18-8.059 18-18h36z"/><path d="M378 0c-29.824 0-54 24.177-54 54h36c0-9.941 8.059-18 18-18V0z" fill="#FFA336" mask="url(#a)"/><path fill="#FF7139" mask="url(#a)" d="M53.22 108h109.09V72H53.22z"/><path fill="#FFA336" mask="url(#a)" d="M180 234h36V126h-36zM162 72c29.823 0 54 24.177 54 54h-36c0-9.941-8.059-18-18-18V72z"/><path d="M54 72C24.177 72 0 96.177 0 126h36c0-9.941 8.059-18 18-18V72z" fill="#FF7139" mask="url(#a)"/><path d="M0 126c0 29.823 24.177 54 54 54v-36c-9.941 0-18-8.059-18-18H0z" fill="#FF2889" mask="url(#a)"/><path d="M180 233.789c0 29.94 24.177 54.211 54 54.211v-36.141c-9.941 0-18-8.09-18-18.07h-36z" fill="#FF7139" mask="url(#a)"/><path fill="#FF2889" mask="url(#a)" d="M324 234.278h36v-36.631h-36z"/><path d="M306 288c29.824 0 54-24.176 54-54h-36c0 9.941-8.059 18-18 18v36z" fill="#971DB5" mask="url(#a)"/><path d="M288 162c0 9.941-8.059 18-18 18s-18-8.059-18-18 8.059-18 18-18 18 8.059 18 18m72-58.5c0 9.941-8.059 18-18 18s-18-8.059-18-18 8.059-18 18-18 18 8.059 18 18m0 112.5c0 9.941-8.059 18-18 18s-18-8.059-18-18 8.059-18 18-18 18 8.059 18 18M36 126c0 9.941-8.059 18-18 18s-18-8.059-18-18 8.059-18 18-18 18 8.059 18 18m216 144c0 9.941-8.059 18-18 18s-18-8.059-18-18 8.059-18 18-18 18 8.059 18 18" fill="#4A0863" mask="url(#a)"/></g></svg>