<svg width="36" height="22" xmlns="http://www.w3.org/2000/svg"><defs><linearGradient x1="108.63%" y1="50%" x2="-9.375%" y2="50%" id="a"><stop stop-color="#961EB6" offset="0%"/><stop stop-color="#6272FE" offset="100%"/></linearGradient></defs><path d="M23.25 17c-1.744 0-2.889-.586-5.061-2.16l-.296-.214C16.485 13.61 15.757 13.25 15 13.25c-.828 0-1.603.394-3.318 1.601-.342.242-.421.297-.58.407C9.376 16.451 8.2 17 6.75 17 1.745 17-1.5 12.436-1.5 5.6-1.5.73.518-1 6.15-1c2.326 0 4.035.385 5.945 1.16.26.106 1.055.442 1.082.453.36.15.618.248.856.322.361.113.665.165.967.165.302 0 .606-.052.967-.165a9.86 9.86 0 0 0 .856-.322c.027-.01.821-.347 1.082-.453C19.815-.615 21.525-1 23.85-1 29.482-1 31.5.73 31.5 5.6c0 6.836-3.245 11.4-8.25 11.4zM8.473 3.802h.002-.004.002zm-2.805 4.24a1.22 1.22 0 0 0-.004.007.067.067 0 0 0 .008-.017zm.677-.587a5.174 5.174 0 0 0 1.905.395c.769 0 1.694-.146 2.44-.376a2.023 2.023 0 0 0-.058-.054c-.47-.43-1.124-.668-2.003-.622h-.004c-.934.047-1.697.29-2.28.657zm12.952.033a8.778 8.778 0 0 0 2.453.362c.617 0 1.281-.144 1.875-.383-.567-.377-1.307-.622-2.25-.669h-.004c-.88-.046-1.533.193-2.003.622a2.043 2.043 0 0 0-.07.068zm2.23-3.686h.002-.004.002z" transform="translate(3 3)" stroke="url(#a)" stroke-width="3" fill="none"/></svg>