<svg width="30" height="30" xmlns="http://www.w3.org/2000/svg"><path d="M15 20a5 5 0 1 1 0-10 5 5 0 0 1 0 10zm0-2.5a2.5 2.5 0 1 0 0-5 2.5 2.5 0 0 0 0 5zm11.137-1.25h.113a1.25 1.25 0 0 0 0-2.5h-.217A3.313 3.313 0 0 1 23 11.742a1.25 1.25 0 0 1-.09-.33 3.319 3.319 0 0 1 .768-3.42l.075-.076a1.25 1.25 0 0 0-.885-2.137c-.332 0-.65.132-.885.367l-.085.085a3.308 3.308 0 0 1-3.641.668 3.314 3.314 0 0 1-2.008-3.037V3.75a1.25 1.25 0 0 0-2.5 0v.217A3.313 3.313 0 0 1 11.742 7a1.25 1.25 0 0 1-.33.09 3.319 3.319 0 0 1-3.42-.768l-.076-.075a1.25 1.25 0 0 0-2.137.885c0 .332.132.65.367.885l.085.085c.947.968 1.21 2.415.692 3.58a3.322 3.322 0 0 1-3.06 2.169H3.75a1.25 1.25 0 0 0 0 2.5h.217a3.308 3.308 0 0 1 3.027 1.995 3.317 3.317 0 0 1-.673 3.664l-.075.075a1.25 1.25 0 0 0 .885 2.137c.332 0 .65-.132.885-.367l.085-.085c.968-.947 2.415-1.21 3.58-.692a3.322 3.322 0 0 1 2.169 3.06v.113a1.25 1.25 0 0 0 2.5 0v-.217a3.308 3.308 0 0 1 1.995-3.027 3.317 3.317 0 0 1 3.664.673l.075.075a1.25 1.25 0 0 0 2.137-.885c0-.332-.132-.65-.367-.885l-.085-.085a3.313 3.313 0 0 1-.665-3.648 3.314 3.314 0 0 1 3.034-2.001zm-.764-5.356a.81.81 0 0 0 .665.356h.212a3.75 3.75 0 0 1 0 7.5h-.108a.812.812 0 0 0-.743.492l-.005.013a.808.808 0 0 0 .152.886l.075.075a3.75 3.75 0 0 1-2.652 6.405 3.75 3.75 0 0 1-2.653-1.1l-.065-.065a.817.817 0 0 0-.909-.157.81.81 0 0 0-.492.739v.212a3.75 3.75 0 0 1-7.5 0v-.083c-.007-.334-.218-.629-.605-.773a.808.808 0 0 0-.886.152l-.075.075a3.75 3.75 0 0 1-6.405-2.652c0-.996.396-1.95 1.1-2.653l.065-.065a.817.817 0 0 0 .157-.909.81.81 0 0 0-.738-.492H3.75a3.75 3.75 0 0 1 0-7.5h.083c.334-.007.629-.218.773-.605a.808.808 0 0 0-.152-.886l-.075-.075A3.75 3.75 0 0 1 7.031 3.38c.996 0 1.95.396 2.653 1.1l.065.065a.812.812 0 0 0 .896.162 1.25 1.25 0 0 1 .249-.08.81.81 0 0 0 .356-.664V3.75a3.75 3.75 0 0 1 7.5 0v.108a.818.818 0 0 0 .505.748c.304.135.658.07.886-.152l.075-.075a3.75 3.75 0 0 1 6.405 2.652 3.75 3.75 0 0 1-1.1 2.653l-.065.065a.812.812 0 0 0-.162.896c.035.08.062.164.08.249z" fill="#519BE6"/></svg>