<svg xmlns="http://www.w3.org/2000/svg" xmlns:xlink="http://www.w3.org/1999/xlink" width="78" height="1332"><defs><path d="M55.038 54.61H3.916C2.842 54.61 2 55.346 2 56.2c0 .857.89 1.595 1.916 1.595h51.17c1.075 0 1.914-.738 1.914-1.595 0-.855-.887-1.593-1.962-1.593zM2.046 36.673L2 46.183c0 .536.19 1.072.57 1.463.378.39.85.586 1.372.586l9.184-.048c.52 0 .994-.195 1.373-.585l31.717-32.677c.758-.78.758-2.048 0-2.877l-9.09-9.46c-.758-.78-1.987-.78-2.792 0L27.992 9.17 2.615 35.26c-.33.39-.57.877-.57 1.413zm33.71-29.796l6.39 6.584-3.597 3.706-6.392-6.584 3.597-3.705zM5.975 37.552l23.387-24.09 6.392 6.583-23.387 24.04-6.438.05.046-6.583z" stroke="#fff" stroke-width="2.7" fill="#fff" fill-rule="evenodd" stroke-linecap="round" stroke-linejoin="round" id="a"/><path d="M26.34 5.033A1.842 1.842 0 0 1 28.002 4c.708 0 1.355.397 1.668 1.033l5.972 12.07c.274.544.795.922 1.4 1.012l13.37 1.935a1.85 1.85 0 0 1 1.028 3.16l-9.668 9.394a1.844 1.844 0 0 0-.536 1.637l2.28 13.27a1.86 1.86 0 0 1-.74 1.815 1.866 1.866 0 0 1-1.956.14l-11.953-6.263a1.84 1.84 0 0 0-1.73 0L15.18 49.46a1.858 1.858 0 0 1-1.957-.135 1.869 1.869 0 0 1-.738-1.816l2.28-13.27a1.847 1.847 0 0 0-.53-1.636L4.56 23.21a1.857 1.857 0 0 1-.47-1.9c.218-.67.8-1.16 1.502-1.26l13.365-1.935a1.86 1.86 0 0 0 1.4-1.013l5.982-12.07z" stroke="#fff" stroke-width="7" fill="none" fill-rule="evenodd" stroke-linecap="round" stroke-linejoin="round" id="b"/><path d="M31.875 22.5A1.913 1.913 0 0 1 30 20.625V12.5a2.5 2.5 0 0 0-2.5-2.5h-8.125A1.913 1.913 0 0 1 17.5 8.125C17.5 6.25 20 6.178 20 3.75 20 1.588 17.75 0 15 0s-5 1.588-5 3.75c0 2.428 2.5 2.5 2.5 4.375A1.913 1.913 0 0 1 10.625 10H2.5A2.5 2.5 0 0 0 0 12.5v5.625A1.913 1.913 0 0 0 1.875 20c1.875 0 1.948-2.5 4.375-2.5 2.162 0 3.75 2.25 3.75 5s-1.588 5-3.75 5c-2.427 0-2.5-2.5-4.375-2.5A1.913 1.913 0 0 0 0 26.875V37.5A2.5 2.5 0 0 0 2.5 40h8.125a1.913 1.913 0 0 0 1.875-1.875c0-1.875-2.5-1.947-2.5-4.375 0-2.162 5-3.75 5-3.75s5 1.588 5 3.75c0 2.428-2.5 2.5-2.5 4.375A1.913 1.913 0 0 0 19.375 40H27.5a2.5 2.5 0 0 0 2.5-2.5v-8.125a1.913 1.913 0 0 1 1.875-1.875c1.875 0 1.947 2.5 4.375 2.5 2.162 0 3.75-2.25 3.75-5s-1.588-5-3.75-5c-2.428 0-2.5 2.5-4.375 2.5z" fill="#fff" id="c"/><g stroke-width="3" stroke="#fff" fill="#fff" fill-rule="evenodd" id="d"><path d="M31.926 2.29C18.22 2.29 7.068 13.47 7.072 27.15c-.013.214-.135 3.835.893 7.734l-3.35-1.955a1.734 1.734 0 0 0-2.38.624c-.48.83-.202 1.9.63 2.387l7.842 4.59c.018.007.034.007.05.015.085.047.17.077.262.11.058.022.118.043.18.06.077.016.148.02.223.03.055.003.11.02.165.02.03 0 .054-.012.09-.012.028 0 .053.004.083.004.043-.004.08-.026.123-.03.084-.017.164-.034.245-.06.066-.025.134-.05.197-.08a3.18 3.18 0 0 0 .207-.118c.063-.043.122-.085.177-.132.06-.05.112-.11.167-.168.05-.055.097-.115.14-.178.02-.033.054-.06.075-.093.013-.03.013-.06.026-.085.024-.05.062-.093.084-.144l3.116-7.747a1.746 1.746 0 0 0-.955-2.274 1.744 1.744 0 0 0-2.267.967l-1.6 3.98c-1.07-3.59-.948-7.275-.944-7.377 0-11.825 9.587-21.44 21.374-21.44 11.792 0 21.38 9.615 21.38 21.44 0 11.822-9.588 21.437-21.38 21.437-.96 0-1.74.782-1.74 1.745 0 .963.78 1.745 1.74 1.745 13.708 0 24.86-11.183 24.86-24.927 0-13.748-11.152-24.93-24.86-24.93z"/><path d="M31.25 30.98c.183.077.37.104.564.116.04 0 .077.022.116.022.213 0 .415-.047.606-.116.056-.02.108-.048.16-.073a1.9 1.9 0 0 0 .406-.27c.03-.026.065-.034.096-.06l11.144-11.027c.7-.69.7-1.806 0-2.498a1.802 1.802 0 0 0-2.525 0L31.515 27.263l-9.246-3.828a1.792 1.792 0 0 0-2.337.945c-.38.903.048 1.938.956 2.315L31.24 30.98h.01z"/></g><g stroke-width="3" stroke="#FFF" fill="#FFF" fill-rule="evenodd" id="e"><path d="M20.478 17.8c-2.04-2.04-5.38-2.04-7.422 0s-2.042 5.38 0 7.422c2.04 2.042 5.38 2.042 7.422 0 2.04-2.04 2.04-5.38 0-7.422zm-5.567 5.567c-1.02-1.02-1.02-2.692 0-3.712s2.692-1.02 3.713 0a2.634 2.634 0 0 1 0 3.712 2.634 2.634 0 0 1-3.712 0zm3.869-13.141c.23.695.927 1.113 1.62.883.695-.23 1.528-.322 2.5-.274 2.224.004 4.308.703 6.025 2.142.556.464 1.39.373 1.85-.182.417-.51.37-1.296-.095-1.76l-.092-.092c-2.226-1.764-4.82-2.695-7.692-2.7-1.204-.003-2.27.134-3.24.456-.695.045-1.064.785-.877 1.526z"/><path d="M7.916 35.636c7.82 7.82 20.563 7.874 28.317.12a19.811 19.811 0 0 0 4.127-6.023l26.287.064c1.416.006 2.83-.554 3.77-1.494l5.497-5.498a1.34 1.34 0 0 0-.007-1.888l-5.546-5.545a5.123 5.123 0 0 0-3.78-1.527l-5.003-.02c-.284-.002-.472.092-.66.186l-2.636 1.594-2.65-1.616a1.303 1.303 0 0 0-.66-.192l-2.643-.01c-.283-.002-.52.044-.708.232l-1.224.844-1.23-.854c-.237-.143-.473-.19-.71-.24l-7.928-.033c-.954-2.27-2.426-4.4-4.274-6.248-7.82-7.82-20.563-7.875-28.317-.12-7.754 7.753-7.84 20.448-.02 28.27zM47.902 16.41l1.656 1.092c.473.285 1.04.288 1.51.006l1.553-1.08 1.888.01 3.076 1.853c.426.24.945.288 1.416.007l3.06-1.828 4.72.02a2.408 2.408 0 0 1 1.843.715l4.55 4.55-4.56 4.56c-.47.468-1.175.702-1.883.745l-25.437.034c.93-3.49.96-7.216 0-10.713l6.61.03zm-13.67-7.09a17.348 17.348 0 0 1 4.043 18.328c-.093.188-.14.33-.234.517a17.069 17.069 0 0 1-3.75 5.648c-6.72 6.72-17.764 6.672-24.54-.105-6.78-6.777-6.827-17.82-.106-24.54 6.768-6.674 17.81-6.626 24.59.152z"/></g><path d="M29.47 19c-3.95 0-6.682-4.75-10.47-4.75-3.788 0-6.754 4.75-10.47 4.75C3.66 19 .06 14.384 0 6.478-.034 1.568 1.427.002 7.756.002c6.33 0 8.18 2.59 11.245 2.59C22.066 2.59 23.918 0 30.245 0s7.79 1.567 7.754 6.476C37.94 14.384 34.34 19 29.47 19zM10.185 6.044C6.513 6.204 5 8.394 5 8.936 5 9.476 7.434 11 9.814 11S15 10.128 15 9.35a4.311 4.311 0 0 0-4.814-3.306zm16.63 0a4.31 4.31 0 0 0-4.816 3.305c0 .778 2.804 1.65 5.186 1.65S32 9.476 32 8.936s-1.513-2.732-5.186-2.89h.002z" fill="#fff" id="f"/><g fill="#FFF" fill-rule="evenodd" id="g"><path d="M10.622 38.457v2.657c0 .49.386.886.86.886a.874.874 0 0 0 .862-.886v-2.657a.873.873 0 0 0-.86-.886.875.875 0 0 0-.862.887m7.034-.001v2.657c0 .49.385.886.86.886a.874.874 0 0 0 .862-.886v-2.657a.873.873 0 0 0-.86-.886.875.875 0 0 0-.862.887m-3.589-.028v.856a.86.86 0 0 0 .86.857.86.86 0 0 0 .862-.857v-.857a.861.861 0 0 0-1.722 0M.963 32.227a1.793 1.793 0 0 0 1.853-.122l4.79-3.33c.108.172.2.35.316.52.112.166.215.335.317.504H21.76c.106-.176.214-.352.33-.526.11-.163.2-.332.303-.497l4.79 3.33a1.795 1.795 0 0 0 1.851.119c.595-.308.964-.912.964-1.578V27.12c0-6.21-3.34-9.27-4.462-10.125-.32-5.584-3.054-11.038-8.022-15.167L15.566.205a.886.886 0 0 0-1.133 0l-1.95 1.624C7.52 5.956 4.786 11.41 4.467 16.993 3.346 17.844 0 20.904 0 27.122v3.527c0 .665.37 1.27.963 1.577zm27.272-5.105l-.04 3.547-4.913-3.416a20.192 20.192 0 0 0 1.988-5.83c.11-.625.067-1.407.275-1.993.83.6 1.426 1.958 1.8 2.874.625 1.526.89 3.177.89 4.818zM15 7.888c1.946 0 3.53 1.573 3.53 3.506 0 1.933-1.584 3.506-3.53 3.506-1.947 0-3.53-1.573-3.53-3.506 0-1.933 1.583-3.506 3.53-3.506zm0 10.518c1.946 0 3.53 1.572 3.53 3.506 0 1.932-1.584 3.506-3.53 3.506-1.947 0-3.53-1.574-3.53-3.506 0-1.934 1.583-3.506 3.53-3.506zM1.765 27.122c0-1.64.266-3.292.89-4.818.374-.917.97-2.274 1.8-2.874.184.52.147 1.213.24 1.77a20.203 20.203 0 0 0 2.023 6.049l-4.953 3.4V27.12z"/><path d="M15 23.714c.99 0 1.794-.8 1.794-1.785 0-.986-.804-1.787-1.794-1.787s-1.794.8-1.794 1.786c0 .983.804 1.784 1.794 1.784m0-10.569c.99 0 1.794-.8 1.794-1.786 0-.985-.804-1.786-1.794-1.786s-1.794.802-1.794 1.787c0 .985.804 1.786 1.794 1.786m5.197 22.689v-.978c0-1.183.21-2.325.616-3.426H9.043a9.835 9.835 0 0 1 .614 3.424v.98c0 .486.393.88.878.88h8.783a.88.88 0 0 0 .88-.88"/></g><path d="M11.264 27.95a5.606 5.606 0 0 0-5.38 4.032c0 .028-.04.042-.05.07-1.02 3.18-1.985 5.91-4.953 7.207l-.063.032-.068.034c-.458.24-.746.712-.75 1.227 0 .773.63 1.4 1.408 1.4a19.712 19.712 0 0 0 13.587-4.2c.017-.018.02-.037.037-.054a5.567 5.567 0 0 0 1.505-6.172 5.616 5.616 0 0 0-5.273-3.58zM44.19.8a2.781 2.781 0 0 0-3.767-.13L17.808 20.28a2.744 2.744 0 0 0-.138 4.014l2.906 2.887a2.78 2.78 0 0 0 1.952.803h.093a2.777 2.777 0 0 0 1.99-.938L44.32 4.552a2.738 2.738 0 0 0-.13-3.75z" fill="#fff" id="h"/><path d="M42.188 19.688H36.28a13.9 13.9 0 0 0-2.058-4.93l4.19-4.19a2.813 2.813 0 0 0-3.977-3.978l-4.19 4.19a13.963 13.963 0 0 0-4.933-2.06V2.81a2.812 2.812 0 0 0-5.625.003v5.906c-1.76.36-3.434 1.06-4.93 2.058l-4.19-4.19a2.813 2.813 0 1 0-3.977 3.98l4.19 4.19a13.94 13.94 0 0 0-2.06 4.93H2.81a2.814 2.814 0 0 0 .003 5.626h5.906a13.937 13.937 0 0 0 2.072 4.958c-.04.038-.09.05-.127.085l-4.078 4.078a2.81 2.81 0 1 0 1.243 4.743 2.81 2.81 0 0 0 2.734-.767l4.078-4.078c.036-.036.05-.087.084-.126a14.015 14.015 0 0 0 4.96 2.075l.002 5.907a2.813 2.813 0 1 0 5.625 0v-5.906c1.76-.36 3.434-1.06 4.93-2.058l4.19 4.19a2.812 2.812 0 0 0 3.977-3.977l-4.19-4.19a13.963 13.963 0 0 0 2.06-4.933h5.907a2.813 2.813 0 0 0 0-5.626zM14.06 22.5a8.438 8.438 0 1 1 16.876 0 8.438 8.438 0 0 1-16.876 0z" fill="#fff" id="i"/><g fill="#FFF" fill-rule="evenodd" id="j"><path d="M14.174.112v2.895l11.07 1.77c0 12.024-.46 14.647-3.28 19.04-2.818 4.394-7.79 5.28-7.79 5.28V32l.465-.083c.25-.045 6.18-1.155 9.616-6.512 3.374-5.257 3.74-8.825 3.74-20.627V4.14c0-1.044-.733-1.934-1.728-2.093L14.174.112zM0 4.14v.638c0 11.802.372 15.37 3.788 20.627 3.48 5.357 9.485 6.467 9.74 6.512l.47.083v-2.903s-5.034-.885-7.89-5.28c-2.855-4.393-3.32-7.016-3.32-19.04l11.21-1.77V.112L1.752 2.047C.744 2.207 0 3.097 0 4.14"/><path d="M14 5L4 6.468c.036 10.124.527 12.388 3.172 16.17C9.325 25.716 12.96 26.758 14 27V5z"/></g></defs><use x="9.5" width="59" height="60" xlink:href="#a"/><use x="11" y="160" width="56" height="54" xlink:href="#b"/><use x="19" y="314" width="40" height="40" xlink:href="#c"/><use x="9.5" y="454" width="59" height="54" xlink:href="#d"/><use y="608" width="78" height="44" xlink:href="#e"/><use x="20" y="752" width="38" height="19" xlink:href="#f"/><use x="24" y="871" width="30" height="42" xlink:href="#g"/><use x="16.5" y="1013" width="45" height="42" xlink:href="#h"/><use x="16.5" y="1155" width="45" height="45" xlink:href="#i"/><use x="25" y="1300" width="28" height="32" xlink:href="#j"/></svg>