<svg width="27" height="35" xmlns="http://www.w3.org/2000/svg"><defs><linearGradient x1="0%" y1="42.898%" y2="42.898%" id="a"><stop stop-color="#971DB5" offset="0%"/><stop stop-color="#FE2889" offset="100%"/></linearGradient></defs><path d="M12 30.544V4.09L3 7.63v9.924c0 3.589 2.031 7.052 5.488 10.224A30.615 30.615 0 0 0 12 30.544zM15 4.09v26.454a30.615 30.615 0 0 0 3.512-2.766C21.97 24.606 24 21.143 24 17.554V7.63l-9-3.54zm-.83 30.247a1.46 1.46 0 0 1-1.34 0 25.774 25.774 0 0 1-2-1.183 33.778 33.778 0 0 1-4.318-3.286C2.47 26.222 0 22.089 0 17.5V6.682c0-.644.388-1.221.973-1.447l12-4.637c.34-.13.714-.13 1.054 0l12 4.637c.585.226.973.803.973 1.447V17.5c0 4.59-2.469 8.722-6.512 12.368a33.778 33.778 0 0 1-4.318 3.286c-.887.571-1.584.969-2 1.183z" fill="url(#a)"/></svg>