<svg width="594" height="414" viewBox="0 0 594 414" xmlns="http://www.w3.org/2000/svg" xmlns:xlink="http://www.w3.org/1999/xlink"><defs><path d="M6.48 0h545.04A6.48 6.48 0 0 1 558 6.48v367.47a4.05 4.05 0 0 1-4.05 4.05H4.05A4.05 4.05 0 0 1 0 373.95V6.48A6.48 6.48 0 0 1 6.48 0z" id="b"/><filter x="-4.8%" y="-7.1%" width="109.7%" height="114.3%" filterUnits="objectBoundingBox" id="a"><feMorphology radius="1" operator="dilate" in="SourceAlpha" result="shadowSpreadOuter1"/><feOffset in="shadowSpreadOuter1" result="shadowOffsetOuter1"/><feGaussianBlur stdDeviation="8" in="shadowOffsetOuter1" result="shadowBlurOuter1"/><feColorMatrix values="0 0 0 0 0 0 0 0 0 0 0 0 0 0 0 0 0 0 0.25 0" in="shadowBlurOuter1"/></filter><rect id="d" x="76" y="168" width="95" height="62" rx="2.916"/><filter x="-15.8%" y="-24.2%" width="131.6%" height="148.4%" filterUnits="objectBoundingBox" id="c"><feMorphology radius=".5" operator="dilate" in="SourceAlpha" result="shadowSpreadOuter1"/><feOffset in="shadowSpreadOuter1" result="shadowOffsetOuter1"/><feGaussianBlur stdDeviation="4.5" in="shadowOffsetOuter1" result="shadowBlurOuter1"/><feColorMatrix values="0 0 0 0 0 0 0 0 0 0 0 0 0 0 0 0 0 0 0.07 0" in="shadowBlurOuter1"/></filter><rect id="f" x="76" y="240" width="95" height="62" rx="2.916"/><filter x="-15.8%" y="-24.2%" width="131.6%" height="148.4%" filterUnits="objectBoundingBox" id="e"><feMorphology radius=".5" operator="dilate" in="SourceAlpha" result="shadowSpreadOuter1"/><feOffset in="shadowSpreadOuter1" result="shadowOffsetOuter1"/><feGaussianBlur stdDeviation="4.5" in="shadowOffsetOuter1" result="shadowBlurOuter1"/><feColorMatrix values="0 0 0 0 0 0 0 0 0 0 0 0 0 0 0 0 0 0 0.07 0" in="shadowBlurOuter1"/></filter><rect id="h" x="180" y="168" width="95" height="62" rx="2.916"/><filter x="-15.8%" y="-24.2%" width="131.6%" height="148.4%" filterUnits="objectBoundingBox" id="g"><feMorphology radius=".5" operator="dilate" in="SourceAlpha" result="shadowSpreadOuter1"/><feOffset in="shadowSpreadOuter1" result="shadowOffsetOuter1"/><feGaussianBlur stdDeviation="4.5" in="shadowOffsetOuter1" result="shadowBlurOuter1"/><feColorMatrix values="0 0 0 0 0 0 0 0 0 0 0 0 0 0 0 0 0 0 0.07 0" in="shadowBlurOuter1"/></filter><path id="i" d="M0 0h26.917v25.92H0z"/><rect id="l" x="0" y="0" width="237" height="26" rx="2.916"/><filter x="-6.3%" y="-57.7%" width="112.7%" height="215.4%" filterUnits="objectBoundingBox" id="k"><feMorphology radius=".5" operator="dilate" in="SourceAlpha" result="shadowSpreadOuter1"/><feOffset in="shadowSpreadOuter1" result="shadowOffsetOuter1"/><feGaussianBlur stdDeviation="4.5" in="shadowOffsetOuter1" result="shadowBlurOuter1"/><feColorMatrix values="0 0 0 0 0 0 0 0 0 0 0 0 0 0 0 0 0 0 0.07 0" in="shadowBlurOuter1"/></filter><rect id="n" x="180" y="240" width="95" height="62" rx="2.916"/><filter x="-15.8%" y="-24.2%" width="131.6%" height="148.4%" filterUnits="objectBoundingBox" id="m"><feMorphology radius=".5" operator="dilate" in="SourceAlpha" result="shadowSpreadOuter1"/><feOffset in="shadowSpreadOuter1" result="shadowOffsetOuter1"/><feGaussianBlur stdDeviation="4.5" in="shadowOffsetOuter1" result="shadowBlurOuter1"/><feColorMatrix values="0 0 0 0 0 0 0 0 0 0 0 0 0 0 0 0 0 0 0.07 0" in="shadowBlurOuter1"/></filter><rect id="p" x="284" y="168" width="95" height="62" rx="2.916"/><filter x="-15.8%" y="-24.2%" width="131.6%" height="148.4%" filterUnits="objectBoundingBox" id="o"><feMorphology radius=".5" operator="dilate" in="SourceAlpha" result="shadowSpreadOuter1"/><feOffset in="shadowSpreadOuter1" result="shadowOffsetOuter1"/><feGaussianBlur stdDeviation="4.5" in="shadowOffsetOuter1" result="shadowBlurOuter1"/><feColorMatrix values="0 0 0 0 0 0 0 0 0 0 0 0 0 0 0 0 0 0 0.07 0" in="shadowBlurOuter1"/></filter><rect id="r" x="284" y="240" width="95" height="62" rx="2.916"/><filter x="-15.8%" y="-24.2%" width="131.6%" height="148.4%" filterUnits="objectBoundingBox" id="q"><feMorphology radius=".5" operator="dilate" in="SourceAlpha" result="shadowSpreadOuter1"/><feOffset in="shadowSpreadOuter1" result="shadowOffsetOuter1"/><feGaussianBlur stdDeviation="4.5" in="shadowOffsetOuter1" result="shadowBlurOuter1"/><feColorMatrix values="0 0 0 0 0 0 0 0 0 0 0 0 0 0 0 0 0 0 0.07 0" in="shadowBlurOuter1"/></filter><rect id="t" x="387" y="168" width="95" height="62" rx="2.916"/><filter x="-15.8%" y="-24.2%" width="131.6%" height="148.4%" filterUnits="objectBoundingBox" id="s"><feMorphology radius=".5" operator="dilate" in="SourceAlpha" result="shadowSpreadOuter1"/><feOffset in="shadowSpreadOuter1" result="shadowOffsetOuter1"/><feGaussianBlur stdDeviation="4.5" in="shadowOffsetOuter1" result="shadowBlurOuter1"/><feColorMatrix values="0 0 0 0 0 0 0 0 0 0 0 0 0 0 0 0 0 0 0.07 0" in="shadowBlurOuter1"/></filter><rect id="v" x="387" y="240" width="95" height="62" rx="2.916"/><filter x="-15.8%" y="-24.2%" width="131.6%" height="148.4%" filterUnits="objectBoundingBox" id="u"><feMorphology radius=".5" operator="dilate" in="SourceAlpha" result="shadowSpreadOuter1"/><feOffset in="shadowSpreadOuter1" result="shadowOffsetOuter1"/><feGaussianBlur stdDeviation="4.5" in="shadowOffsetOuter1" result="shadowBlurOuter1"/><feColorMatrix values="0 0 0 0 0 0 0 0 0 0 0 0 0 0 0 0 0 0 0.07 0" in="shadowBlurOuter1"/></filter><path d="M134.62 24h297.76c.895 0 1.62.725 1.62 1.62v41.76a1.62 1.62 0 0 1-1.62 1.62H134.62a1.62 1.62 0 0 1-1.62-1.62V25.62c0-.895.725-1.62 1.62-1.62z" id="w"/></defs><g transform="translate(18 18)" fill="none" fill-rule="evenodd"><use fill="#000" filter="url(#a)" xlink:href="#b"/><use fill="#F9F9FA" xlink:href="#b"/><use fill="#000" filter="url(#c)" xlink:href="#d"/><use fill="#FFF" xlink:href="#d"/><path d="M123.5 212c-7.456 0-13.5-5.82-13.5-13s6.044-13 13.5-13 13.5 5.82 13.5 13-6.044 13-13.5 13zm9.005-13a1.903 1.903 0 0 0-1.23-1.69 2.028 2.028 0 0 0-2.105.39 9.869 9.869 0 0 0-5.197-1.599l.877-4.056 2.889.585c.07.635.61 1.126 1.273 1.16.662.032 1.251-.403 1.39-1.028.138-.625-.216-1.254-.834-1.484a1.376 1.376 0 0 0-1.654.559l-3.307-.637a.432.432 0 0 0-.317.056.403.403 0 0 0-.183.256l-.999 4.511a9.899 9.899 0 0 0-5.265 1.599 2.029 2.029 0 0 0-2.118-.366 1.9 1.9 0 0 0-1.203 1.72 1.894 1.894 0 0 0 1.148 1.753c-.015.19-.015.382 0 .572 0 2.912 3.523 5.278 7.87 5.278 4.347 0 7.871-2.366 7.871-5.278.015-.19.015-.382 0-.572a1.891 1.891 0 0 0 1.093-1.729zm-13.5 1.3c0-.718.604-1.3 1.35-1.3.745 0 1.35.582 1.35 1.3 0 .718-.605 1.3-1.35 1.3-.359 0-.702-.137-.955-.38a1.276 1.276 0 0 1-.396-.92zm7.843 3.575a5.322 5.322 0 0 1-3.334 1.001 5.322 5.322 0 0 1-3.335-1.001.342.342 0 0 1 .024-.47.375.375 0 0 1 .489-.024 4.534 4.534 0 0 0 2.808.819 4.55 4.55 0 0 0 2.822-.793.387.387 0 0 1 .365-.09.37.37 0 0 1 .263.26.354.354 0 0 1-.102.35v-.052zm-.243-2.223c-.746 0-1.35-.582-1.35-1.3 0-.718.604-1.3 1.35-1.3.746 0 1.35.582 1.35 1.3.015.356-.123.702-.38.958a1.376 1.376 0 0 1-.983.394l.013-.052z" fill="#888" fill-rule="nonzero"/><use fill="#000" filter="url(#e)" xlink:href="#f"/><use fill="#FFF" xlink:href="#f"/><path d="M136.9 264.552c-.12 2.7-1.95 6.399-5.49 11.094-3.658 4.902-6.754 7.354-9.286 7.354-1.57 0-2.897-1.493-3.98-4.479l-2.173-8.212c-.805-2.985-1.669-4.48-2.593-4.48-.201 0-.906.437-2.112 1.307L110 265.455a337.46 337.46 0 0 0 3.927-3.611c1.772-1.578 3.103-2.408 3.989-2.491 2.093-.208 3.382 1.268 3.866 4.427.523 3.41.886 5.53 1.089 6.36.604 2.828 1.269 4.24 1.994 4.24.562 0 1.409-.916 2.537-2.752 1.126-1.835 1.73-3.23 1.812-4.19.161-1.583-.443-2.376-1.812-2.376-.644 0-1.309.153-1.992.455 1.323-4.467 3.85-6.636 7.58-6.512 2.765.084 4.07 1.932 3.91 5.547" fill="#888"/><use fill="#000" filter="url(#g)" xlink:href="#h"/><use fill="#FFF" xlink:href="#h"/><g transform="translate(214 186)"><mask id="j" fill="#fff"><use xlink:href="#i"/></mask><path d="M21.42 11.49C17.082 9.009 9.926 8.78 5.784 9.99c-.665.195-1.368-.166-1.57-.807-.201-.64.174-1.317.84-1.512 4.752-1.39 12.656-1.121 17.65 1.734.598.342.794 1.086.44 1.66-.355.577-1.128.767-1.725.425m-.142 3.674c-.304.476-.95.625-1.443.333-3.617-2.14-9.133-2.761-13.412-1.51-.554.161-1.14-.14-1.309-.673-.167-.535.146-1.098.7-1.26 4.888-1.43 10.964-.737 15.119 1.721a.99.99 0 0 1 .345 1.39m-1.647 3.528a.857.857 0 0 1-1.153.27c-3.16-1.861-7.139-2.281-11.824-1.25-.451.1-.901-.173-1.004-.608a.807.807 0 0 1 .63-.967c5.128-1.129 9.525-.643 13.073 1.445a.79.79 0 0 1 .278 1.11M13.459 0C6.026 0 0 5.803 0 12.96c0 7.158 6.026 12.96 13.459 12.96s13.458-5.802 13.458-12.96C26.917 5.803 20.892 0 13.46 0" fill="#888" mask="url(#j)"/></g><g transform="translate(159 107)"><use fill="#000" filter="url(#k)" xlink:href="#l"/><use fill="#FFF" xlink:href="#l"/><rect fill="#BBB" fill-rule="nonzero" x="8.778" y="10.4" width="97.433" height="5.2" rx=".81"/><g transform="translate(212.422 7.8)" stroke="#9B9B9B" stroke-width="1.08"><ellipse cx="4.096" cy="4.044" rx="4.096" ry="4.044"/><path d="M7.022 6.933l3.511 3.467" stroke-linecap="round"/></g></g><use fill="#000" filter="url(#m)" xlink:href="#n"/><use fill="#FFF" xlink:href="#n"/><path d="M220.732 259l7.733 4.875-7.733 4.875-7.732-4.875 7.732-4.875zm15.464 0l7.732 4.875-7.732 4.875-7.731-4.875 7.731-4.875zM213 273.625l7.732-4.875 7.733 4.875-7.733 4.875-7.732-4.875zm23.196-4.875l7.732 4.875-7.732 4.875-7.731-4.875 7.731-4.875zm-15.464 11.375l7.733-4.875 7.731 4.875-7.731 4.875-7.733-4.875z" fill="#888" fill-rule="nonzero"/><use fill="#000" filter="url(#o)" xlink:href="#p"/><use fill="#FFF" xlink:href="#p"/><path d="M331.496 186.051c3.665 0 4.125.015 5.564.079 1.437.063 2.418.282 3.276.602.887.332 1.64.775 2.39 1.496a6.338 6.338 0 0 1 1.557 2.298c.334.825.562 1.767.627 3.148.066 1.383.082 1.825.082 5.348 0 3.522-.016 3.964-.082 5.347-.065 1.38-.293 2.324-.627 3.149a6.337 6.337 0 0 1-1.557 2.297 6.649 6.649 0 0 1-2.39 1.496c-.858.32-1.84.54-3.276.603-1.44.063-1.899.078-5.564.078s-4.125-.015-5.565-.078c-1.436-.063-2.417-.282-3.276-.603a6.65 6.65 0 0 1-2.39-1.496 6.338 6.338 0 0 1-1.556-2.297c-.334-.825-.562-1.768-.628-3.149-.065-1.383-.081-1.825-.081-5.347 0-3.523.016-3.965.081-5.348.066-1.38.294-2.323.628-3.148a6.338 6.338 0 0 1 1.556-2.298 6.648 6.648 0 0 1 2.39-1.496c.859-.32 1.84-.54 3.276-.602 1.44-.064 1.9-.079 5.565-.079zm0 2.337c-3.604 0-4.03.014-5.454.076-1.315.058-2.03.269-2.506.447-.63.235-1.08.516-1.551.97a4.007 4.007 0 0 0-1.01 1.491c-.185.457-.405 1.144-.465 2.409-.065 1.367-.078 1.777-.078 5.24 0 3.464.013 3.874.078 5.242.06 1.264.28 1.951.465 2.408a4.007 4.007 0 0 0 1.01 1.491 4.19 4.19 0 0 0 1.551.97c.476.178 1.19.39 2.506.447 1.423.063 1.85.076 5.454.076 3.604 0 4.03-.013 5.453-.076 1.316-.057 2.03-.269 2.506-.446a4.201 4.201 0 0 0 1.552-.97 4.008 4.008 0 0 0 1.01-1.492c.184-.457.404-1.144.464-2.408.065-1.368.079-1.778.079-5.241 0-3.464-.014-3.874-.079-5.241-.06-1.265-.28-1.952-.465-2.409a4.008 4.008 0 0 0-1.01-1.491 4.202 4.202 0 0 0-1.55-.97c-.476-.178-1.191-.39-2.507-.447-1.423-.062-1.85-.076-5.453-.076zm0 14.957c2.484 0 4.498-1.936 4.498-4.323 0-2.388-2.014-4.324-4.498-4.324-2.485 0-4.499 1.936-4.499 4.324 0 2.387 2.014 4.323 4.499 4.323zm0-10.984c3.827 0 6.93 2.982 6.93 6.66 0 3.68-3.103 6.661-6.93 6.661-3.828 0-6.93-2.982-6.93-6.66 0-3.679 3.102-6.66 6.93-6.66zm8.823-.263c0 .86-.725 1.557-1.62 1.557-.894 0-1.619-.697-1.619-1.557s.725-1.556 1.62-1.556c.894 0 1.62.697 1.62 1.556z" fill="#888"/><use fill="#000" filter="url(#q)" xlink:href="#r"/><use fill="#FFF" xlink:href="#r"/><path d="M344 259.278c0 3.251-2.826 4.963-5.652 4.963v5.304l3.014 2.225v.171l-3.014 2.225v7.016c2.072-1.027 3.768-3.08 4.898-5.305h.377c0 5.647-4.898 11.123-12.435 11.123-6.97 0-13.188-5.134-13.188-11.979 0-5.818 5.087-10.61 10.74-11.978l.188.513c-2.073 1.027-4.145 2.567-4.899 4.792l9.42-3.765v11.807l-7.724 3.423c2.072 2.053 4.521 2.738 7.347 2.738 1.508 0 3.203-.171 4.71-1.027v-7.358l-2.825-2.225v-.17l2.826-2.226v-5.304c-1.508-.171-4.334-.685-6.971-1.37-3.015-.855-5.276-1.54-6.971-1.54-1.884 0-2.638 1.198-2.638 1.883 0 1.027.565 1.369.942 1.711l-.188.342c-.754-.342-2.827-1.197-2.827-3.764 0-2.91 2.638-5.476 6.406-5.476 1.884 0 4.145.684 6.594 1.54 2.073.684 4.899 1.369 6.218 1.369 1.695 0 2.26-1.027 2.26-1.711 0-1.198-1.318-1.712-3.014-1.712V255c2.826 0 6.406.856 6.406 4.278zm-16.391 18.824v-10.61l-3.957 1.54c-.377 1.027-.377 2.396-.377 3.594 0 2.909.754 4.962 2.073 6.502l2.26-1.026z" fill="#888"/><use fill="#000" filter="url(#s)" xlink:href="#t"/><use fill="#FFF" xlink:href="#t"/><path d="M417 182h35v35h-35z"/><path d="M430.442 208.39c8.255 0 12.77-6.84 12.77-12.77 0-.195 0-.388-.014-.58a9.132 9.132 0 0 0 2.24-2.324 8.958 8.958 0 0 1-2.578.706 4.504 4.504 0 0 0 1.973-2.482 8.994 8.994 0 0 1-2.85 1.09 4.492 4.492 0 0 0-7.648 4.093 12.742 12.742 0 0 1-9.25-4.69 4.491 4.491 0 0 0 1.39 5.992 4.455 4.455 0 0 1-2.037-.562v.057a4.49 4.49 0 0 0 3.6 4.4 4.48 4.48 0 0 1-2.026.076 4.493 4.493 0 0 0 4.193 3.117 9.005 9.005 0 0 1-6.642 1.86 12.706 12.706 0 0 0 6.879 2.013" fill="#888" fill-rule="nonzero"/><use fill="#000" filter="url(#u)" xlink:href="#v"/><use fill="#FFF" xlink:href="#v"/><path d="M427.748 275.397c0 1.488-1.263 2.705-2.808 2.705-1.546 0-2.81-1.217-2.81-2.705 0-1.489 1.264-2.705 2.81-2.705h2.808v2.705zm1.416 0c0-1.489 1.263-2.705 2.809-2.705 1.546 0 2.808 1.216 2.808 2.705v6.772c0 1.49-1.262 2.705-2.808 2.705-1.546 0-2.81-1.216-2.81-2.705v-6.772zm2.809-10.862c-1.546 0-2.81-1.216-2.81-2.704 0-1.49 1.264-2.705 2.81-2.705s2.808 1.216 2.808 2.705v2.704h-2.808zm0 1.363c1.546 0 2.808 1.217 2.808 2.705 0 1.489-1.262 2.705-2.808 2.705h-7.033c-1.546 0-2.81-1.216-2.81-2.705 0-1.488 1.264-2.705 2.81-2.705h7.033zm11.279 2.705c0-1.488 1.263-2.705 2.808-2.705 1.546 0 2.81 1.217 2.81 2.705 0 1.489-1.264 2.705-2.81 2.705h-2.808v-2.705zm-1.416 0c0 1.489-1.263 2.705-2.809 2.705-1.546 0-2.808-1.216-2.808-2.705v-6.772c0-1.49 1.262-2.705 2.808-2.705 1.546 0 2.81 1.216 2.81 2.705v6.772zm-2.809 10.862c1.546 0 2.81 1.216 2.81 2.704 0 1.49-1.264 2.705-2.81 2.705s-2.808-1.216-2.808-2.705v-2.704h2.808zm0-1.363c-1.546 0-2.808-1.217-2.808-2.705 0-1.489 1.262-2.705 2.808-2.705h7.033c1.546 0 2.81 1.216 2.81 2.705 0 1.488-1.264 2.705-2.81 2.705h-7.033z" fill="#888" fill-rule="nonzero"/><path d="M4.05 0h549.9A4.05 4.05 0 0 1 558 4.05V20H0V4.05A4.05 4.05 0 0 1 4.05 0z" fill="#2C2831" fill-rule="nonzero"/><path d="M0 361h558v12.95a4.05 4.05 0 0 1-4.05 4.05H4.05A4.05 4.05 0 0 1 0 373.95V361zM33 0h111v20H33zM0 20h558v28H0z" fill="#E1E1E2" fill-rule="nonzero"/><use fill="#FFF" xlink:href="#w"/><rect fill="#BEBEBF" fill-rule="nonzero" x="40" y="30" width="11" height="11" rx="1.62"/><rect fill="#BEBEBF" fill-rule="nonzero" x="540" y="30" width="11" height="11" rx="1.62"/><rect fill="#BEBEBF" fill-rule="nonzero" x="58" y="8" width="49" height="6" rx="1.62"/><rect fill="#BBB" fill-rule="nonzero" x="150" y="33" width="137" height="5" rx=".81"/><rect fill="#BEBEBF" fill-rule="nonzero" x="40" y="3" width="14" height="14" rx="1.62"/><rect fill="#BEBEBF" fill-rule="nonzero" x="57" y="30" width="11" height="11" rx="1.62"/><rect fill="#BEBEBF" fill-rule="nonzero" x="75" y="30" width="11" height="11" rx="1.62"/><circle fill="#BEBEBF" cx="22" cy="36" r="9"/><path d="M9 45h549v.75H9z"/><path d="M42.811 77.88l-.015-.091a5.168 5.168 0 0 1-.435.664c0-2.172-1.552-5.015-2.556-6.595a15.72 15.72 0 0 0-.748-1.092c-.531-.683-.797-1.564-.797-1.564-.22.336-.35.717-.419.975-.048.182-.067.302-.067.302s-.169-.275-.663-.762a11.567 11.567 0 0 0-.665-.603c-1.018-.859-1.35-2.114-1.35-2.114s-.536.551-1.049 1.476a7.99 7.99 0 0 0-.405.841 6.604 6.604 0 0 0-.515 2.506c0 2.796 2.279 4.624 2.279 4.624s1.416.749 1.416 3.891c0 3.143-2.906 5.181-5.65 5.181-2.745 0-3.97-2.026-3.97-2.026 2.403.64 3.232.044 3.97-.44.737-.485 1.136-.397 1.593-.397.457 0 .487-.528-.222-1.16 0 0-.56-.484-1.372-.484-.81 0-1.416.47-2.242.47 0 0-1.345-.068-2.08-1.19-.75-1.143-.03-2.627 1.21-1.467 0 0 .339-.411.206-1.57 0 0 .103-.28.96-.617.855-.338 1.77-.705 1.77-1.733 0 0-.104-.367-1.697-.426-.702-.026-1.106-.493-1.339-1.008 0-.002.488-1.383 1.867-2.165a.022.022 0 0 0-.005-.04c-.317-.078-2.005-.4-3.297 1.07 0 0-.428-.352-1.726-.352-.308 0-.642.03-.988.103a3.625 3.625 0 0 1-.638-.854 3.53 3.53 0 0 1-.427-1.662c0-.02-.023-.03-.037-.017-1.934 1.802-1.64 4.15-1.64 4.15-.82.906-1.551 2.25-2.032 4.21-.003.013.015.02.02.008.11-.203.414-.756.742-1.225 0 0-.783 1.224-.798 4.23 0 .013.019.016.022.003.057-.21.213-.784.339-1.254h.003c-.001.067-.003.133-.003.2 0 6.49 5.288 11.752 11.81 11.752 2.6 0 4.176-.568 5.11-1.154.121-.076.23-.152.33-.227.728-.544.934-1.043.934-1.043a9.359 9.359 0 0 0 1.739-.973c.428-.31.772-.627 1.049-.938.172-.195.318-.388.441-.575.373-.566.54-1.083.614-1.464.077-.397.052-.645.052-.645a8.67 8.67 0 0 0 .669-1.26c1.083-2.512.78-4.974.702-5.47" fill="#4A4A4A"/></g></svg>