<svg width="995" height="709" viewBox="0 0 995 763" xmlns="http://www.w3.org/2000/svg"><defs><linearGradient x1=".327" y1=".985" x2=".496" y2=".885" id="b" gradientTransform="matrix(1.2386 .05829 -.35958 1.04277 .207 -.07)"><stop stop-color="#722291" offset="0"/><stop stop-color="#E8288B" offset=".504"/><stop stop-color="#FF7139" offset="1"/></linearGradient><linearGradient x1=".419" y1=".647" x2=".569" y2=".634" id="c" gradientTransform="matrix(1.0466 -.22471 .07468 .99308 -.048 .29)"><stop offset="0" stop-color="#ff713a"/><stop offset=".184" stop-color="#fd6c40"/><stop stop-color="#F65559" offset=".53"/><stop stop-color="#F95E4F" offset=".673"/><stop stop-color="#9C4966" offset=".926"/><stop stop-color="#363C74" offset="1"/></linearGradient><linearGradient id="d" gradientUnits="userSpaceOnUse" x1="2133.639" y1="2065.661" x2="2133.639" y2="3575.426" gradientTransform="matrix(.42746 .90404 -.24294 .11487 1498.423 960.47)"><stop offset="0" stop-color="#ffc83e"/><stop offset="1" stop-color="#fe8d49"/></linearGradient></defs><g transform="translate(-83)" fill="none" fill-rule="evenodd"><mask id="a" fill="#fff"><path d="M0 0h1078v800H0z"/></mask><g mask="url(#a)"><path d="M1745.037 2902.877c171.889 112.497 220.741 344.125 109.115 517.355-111.626 173.23-341.46 222.465-513.349 109.967-766.195-501.455-983.947-1533.951-486.358-2306.149C1352.013 451.884 2376.512 232.421 3142.7 733.872c171.889 112.497 220.742 344.124 109.115 517.355-111.626 173.23-341.46 222.464-513.349 109.967-422.41-276.457-987.24-155.461-1261.556 270.244-274.339 425.74-154.287 994.98 268.127 1271.44z" fill="url(#b)" fill-rule="nonzero" transform="scale(-1 1) rotate(-29 -5049.002 5632.4)"/><path d="M3290.337 1894.843c144.924-146.056 379.893-146.056 524.818 0 144.924 146.055 144.924 382.857 0 528.913L2532.069 3716.854c-144.923 146.053-379.888 146.055-524.814.004L724.123 2423.76c-144.927-146.052-144.932-382.855-.01-528.913s379.891-146.062 524.818-.009l1020.724 1028.651 1020.682-1028.646z" fill="url(#c)" fill-rule="nonzero" transform="rotate(52 4647.606 29.303)"/><path d="M3053.611 3396.005l-1284.337 208.617c-145.064 23.563-280.835-75.078-303.255-220.323l-198.502-1285.963L3053.611 2942v454.005z" fill="url(#d)" transform="translate(-1274 -2941)"/></g></g></svg>