<svg width="995" height="709" xmlns="http://www.w3.org/2000/svg" xmlns:xlink="http://www.w3.org/1999/xlink"><defs><linearGradient x1="32.7%" y1="98.5%" x2="49.6%" y2="88.5%" id="c"><stop stop-color="#722291" offset="0%"/><stop stop-color="#E8288B" offset="50.4%"/><stop stop-color="#FF7139" offset="100%"/></linearGradient><linearGradient x1="41.9%" y1="64.7%" x2="56.9%" y2="63.4%" id="d"><stop stop-color="#FF713A" offset="0%"/><stop stop-color="#FD6C40" offset="18.4%"/><stop stop-color="#F65559" offset="53%"/><stop stop-color="#F95E4F" offset="67.3%"/><stop stop-color="#9C4966" offset="92.6%"/><stop stop-color="#363C74" offset="100%"/></linearGradient><linearGradient x1="35.895%" y1="62.94%" x2="15.36%" y2="71.148%" id="e"><stop stop-color="#FFC83E" offset="0%"/><stop stop-color="#FE8D49" offset="100%"/></linearGradient><path id="a" d="M0 0h1078v800H0z"/></defs><g transform="matrix(-1 0 0 1 1078 0)" fill="none" fill-rule="evenodd"><mask id="b" fill="#fff"><use xlink:href="#a"/></mask><g mask="url(#b)" fill-rule="nonzero"><path d="M1745.037 2902.877c171.889 112.497 220.74 344.125 109.115 517.355-111.626 173.23-341.46 222.465-513.35 109.967-766.194-501.455-983.946-1533.951-486.357-2306.15C1352.013 451.885 2376.512 232.422 3142.7 733.873c171.889 112.497 220.742 344.124 109.115 517.355-111.626 173.23-341.46 222.464-513.35 109.967-422.41-276.457-987.24-155.461-1261.555 270.244-274.34 425.74-154.287 994.98 268.127 1271.44v-.001z" fill="url(#c)" transform="scale(-1 1) rotate(-29 -5049.002 5632.4)"/><path d="M3290.335 1894.844c144.924-146.056 379.893-146.056 524.818 0 144.924 146.055 144.924 382.857 0 528.913L2532.067 3716.855c-144.923 146.053-379.888 146.055-524.814.004L724.121 2423.761c-144.927-146.052-144.932-382.855-.01-528.913s379.891-146.062 524.818-.009L2269.653 2923.49l1020.682-1028.646z" fill="url(#d)" transform="rotate(52 4647.606 29.306)"/><path d="M3053.611 3396.005l-1284.337 208.617c-145.064 23.563-280.835-75.078-303.255-220.323l-198.502-1285.963L3053.611 2942v454.005z" fill="url(#e)" transform="translate(-1274 -2941)"/></g></g></svg>
