<svg width="483" height="348" viewbox="0 0 483 348" xmlns="http://www.w3.org/2000/svg" xmlns:xlink="http://www.w3.org/1999/xlink"><defs><rect id="a" width="216.994" height="304.387" rx="16.2"/><filter x="-8.5%" y="-4.8%" width="117.1%" height="112.2%" filterUnits="objectBoundingBox" id="b"><feOffset dy="4" in="SourceAlpha" result="shadowOffsetOuter1"/><feGaussianBlur stdDeviation="5.5" in="shadowOffsetOuter1" result="shadowBlurOuter1"/><feColorMatrix values="0 0 0 0 0 0 0 0 0 0 0 0 0 0 0 0 0 0 0.1 0" in="shadowBlurOuter1"/></filter><path id="d" d="M0 0h195.385v261.16H0z"/><path id="f" d="M0 0h372.762v372.829H0z"/><path d="M46.261 233.907c-4.894-2.3-8.283-7.274-8.283-13.04V14.4c0-7.953 6.447-14.4 14.4-14.4h318.428c7.952 0 14.4 6.447 14.4 14.4v206.467c0 5.766-3.39 10.74-8.284 13.04h46.26v5.57c-9.91 5.353-22.204 8.03-36.883 8.03H36.884c-14.68 0-26.974-2.677-36.884-8.03v-5.57h46.261z" id="h"/><filter x="-4.4%" y="-5.9%" width="108.7%" height="114.9%" filterUnits="objectBoundingBox" id="i"><feOffset dy="4" in="SourceAlpha" result="shadowOffsetOuter1"/><feGaussianBlur stdDeviation="5.5" in="shadowOffsetOuter1" result="shadowBlurOuter1"/><feColorMatrix values="0 0 0 0 0 0 0 0 0 0 0 0 0 0 0 0 0 0 0.1 0" in="shadowBlurOuter1"/></filter><path id="k" d="M0 .073h325.941v201.724H0z"/><path id="m" d="M0 0h372.762v372.829H0z"/><rect id="o" width="108.947" height="217.934" rx="16.2"/><filter x="-17%" y="-6.7%" width="134%" height="117%" filterUnits="objectBoundingBox" id="p"><feOffset dy="4" in="SourceAlpha" result="shadowOffsetOuter1"/><feGaussianBlur stdDeviation="5.5" in="shadowOffsetOuter1" result="shadowBlurOuter1"/><feColorMatrix values="0 0 0 0 0 0 0 0 0 0 0 0 0 0 0 0 0 0 0.1 0" in="shadowBlurOuter1"/></filter><rect id="s" width="108.947" height="217.934" rx="16.2"/><filter x="-4.6%" y="-2.3%" width="109.2%" height="104.6%" filterUnits="objectBoundingBox" id="r"><feGaussianBlur stdDeviation="3.5" in="SourceAlpha" result="shadowBlurInner1"/><feOffset dy="-3" in="shadowBlurInner1" result="shadowOffsetInner1"/><feComposite in="shadowOffsetInner1" in2="SourceAlpha" operator="arithmetic" k2="-1" k3="1" result="shadowInnerInner1"/><feColorMatrix values="0 0 0 0 0.17633802 0 0 0 0 0.207332682 0 0 0 0 0.254730017 0 0 0 0.124292346 0" in="shadowInnerInner1"/></filter><path id="t" d="M5.402 21.613h98.143V196.32H5.402z"/><path id="v" d="M0 0h372.762v372.829H0z"/></defs><g fill="none" fill-rule="evenodd"><g transform="translate(255.006 7)"><mask id="c" fill="#fff"><use xlink:href="#a"/></mask><use filter="url(#b)" xlink:href="#a" fill="#000"/><g mask="url(#c)" fill="#000"><path d="M0 0h216.994v304.387H0z"/></g></g><g transform="translate(265.81 28.613)"><mask id="e" fill="#fff"><use xlink:href="#d"/></mask><use fill="#FFAD4A" xlink:href="#d"/><g mask="url(#e)"><path d="M4.502 349.32c-25.858 0-46.82-20.965-46.82-46.828 0-25.863 20.962-46.829 46.82-46.829s46.82 20.966 46.82 46.829S30.36 349.32 4.502 349.32m0-279.17c-25.858 0-46.82-20.967-46.82-46.83 0-25.862 20.962-46.828 46.82-46.828s46.82 20.966 46.82 46.828c0 25.863-20.962 46.83-46.82 46.83" fill="#971DB5"/><path d="M4.502 69.699c-51.468 0-93.19 41.73-93.19 93.207s41.722 93.207 93.19 93.207v93.207c-102.935 0-186.38-83.46-186.38-186.414S-98.434-23.508 4.501-23.508v93.207z" fill="#971DB5"/><path d="M-112.099 116.077c-38.538 0-69.78-31.247-69.78-69.792 0-38.546 31.242-69.793 69.78-69.793 38.539 0 69.78 31.247 69.78 69.793 0 38.545-31.241 69.792-69.78 69.792z" fill="#FF3E96"/><g transform="translate(-181.879 -23.508)"><mask id="g" fill="#fff"><use xlink:href="#f"/></mask><path d="M79.543 359.179c-18.197 18.2-47.699 18.2-65.895 0-18.197-18.2-18.197-47.708 0-65.908L293.219 13.65c18.196-18.2 47.698-18.2 65.895 0 18.197 18.2 18.197 47.707 0 65.907L79.543 359.18z" fill="#FF7139" mask="url(#g)"/></g><path d="M-88.238 302.492c0 25.863-20.963 46.828-46.82 46.828-25.858 0-46.82-20.965-46.82-46.828 0-25.863 20.962-46.829 46.82-46.829 25.857 0 46.82 20.966 46.82 46.829" fill="#FFBD4F"/><path d="M-181.879 162.906c0-25.863 20.963-46.829 46.82-46.829 25.858 0 46.82 20.966 46.82 46.83 0 25.862-20.962 46.828-46.82 46.828-25.857 0-46.82-20.966-46.82-46.829" fill="#971DB5"/><path d="M97.692 162.906c0-51.477-41.722-93.207-93.19-93.207-51.468 0-93.19 41.73-93.19 93.207h-93.19c0-102.954 83.445-186.414 186.38-186.414s186.38 83.46 186.38 186.414h-93.19z" fill="#971DB5"/><path d="M97.242 162.906c0-25.863 20.963-46.829 46.82-46.829 25.858 0 46.82 20.966 46.82 46.83 0 25.862-20.962 46.828-46.82 46.828-25.857 0-46.82-20.966-46.82-46.829l4.052 88.09" fill="#FF3E96"/><path d="M121.436 235.812c12.161 12.164 12.161 31.885 0 44.049-12.162 12.163-31.88 12.163-44.041 0l-88.083-88.098c-12.16-12.164-12.16-31.885 0-44.05 12.162-12.163 31.88-12.163 44.042 0l88.082 88.099z" fill="#971DB5"/><path d="M181.762 296.149c12.161 12.164 12.161 31.885 0 44.049-12.162 12.163-31.88 12.163-44.041 0L49.639 252.1c-12.162-12.164-12.162-31.885 0-44.049 12.161-12.164 31.88-12.164 44.04 0l88.083 88.098z" fill="#FF3E96"/><path d="M137.854 296.282c12.131-12.133 31.8-12.133 43.93 0 12.132 12.134 12.132 31.806 0 43.938-12.13 12.134-31.799 12.134-43.93 0-12.13-12.132-12.13-31.804 0-43.938" fill="#FFBD4F"/></g></g><g transform="translate(11 63.808)"><mask id="j" fill="#fff"><use xlink:href="#h"/></mask><use fill="#000" filter="url(#i)" xlink:href="#h"/><use fill="#2A2A2E" xlink:href="#h"/><g mask="url(#j)" fill="#000"><path d="M0-12.24h423.184v269.266H0z"/></g><g mask="url(#j)"><g transform="translate(48.621 16.137)"><mask id="l" fill="#fff"><use xlink:href="#k"/></mask><use fill="#FFAD4A" xlink:href="#k"/><g mask="url(#l)"><path d="M208.691 300.989c-25.857 0-46.82-20.966-46.82-46.829s20.963-46.829 46.82-46.829c25.858 0 46.82 20.966 46.82 46.83 0 25.862-20.962 46.828-46.82 46.828" fill="#971DB5"/><path d="M208.691 21.367c-51.467 0-93.19 41.73-93.19 93.208 0 51.476 41.723 93.207 93.19 93.207v93.207c-102.935 0-186.38-83.46-186.38-186.414S105.756-71.84 208.69-71.84v93.207z" fill="#971DB5"/><path d="M92.09 67.746c-38.538 0-69.78-31.248-69.78-69.793S53.553-71.84 92.09-71.84c38.54 0 69.781 31.248 69.781 69.793s-31.242 69.793-69.78 69.793z" fill="#FF3E96"/><g transform="translate(22.31 -71.84)"><mask id="n" fill="#fff"><use xlink:href="#m"/></mask><path d="M79.543 359.179c-18.197 18.2-47.699 18.2-65.895 0-18.197-18.2-18.197-47.708 0-65.908L293.219 13.65c18.196-18.2 47.698-18.2 65.895 0 18.197 18.2 18.197 47.707 0 65.907L79.543 359.18z" fill="#FF7139" mask="url(#n)"/></g><path d="M115.951 254.16c0 25.863-20.962 46.829-46.82 46.829s-46.82-20.966-46.82-46.829 20.962-46.829 46.82-46.829 46.82 20.966 46.82 46.83" fill="#FFBD4F"/><path d="M22.31 114.575c0-25.863 20.963-46.83 46.82-46.83 25.859 0 46.821 20.967 46.821 46.83 0 25.862-20.962 46.828-46.82 46.828s-46.82-20.966-46.82-46.828" fill="#971DB5"/><path d="M301.882 114.575c0-51.477-41.723-93.208-93.19-93.208-51.468 0-93.191 41.73-93.191 93.208h-93.19C22.31 11.62 105.756-71.84 208.69-71.84c102.936 0 186.381 83.46 186.381 186.415h-93.19z" fill="#971DB5"/><path d="M301.432 114.575c0-25.863 20.962-46.83 46.82-46.83s46.82 20.967 46.82 46.83c0 25.862-20.962 46.828-46.82 46.828s-46.82-20.966-46.82-46.828l4.051 88.09" fill="#FF3E96"/><path d="M325.625 187.48c12.161 12.164 12.161 31.886 0 44.049-12.162 12.164-31.88 12.164-44.04 0l-88.083-88.098c-12.161-12.163-12.161-31.885 0-44.049 12.161-12.163 31.88-12.163 44.041 0l88.082 88.098z" fill="#971DB5"/><path d="M385.951 247.817c12.162 12.164 12.162 31.886 0 44.05-12.161 12.163-31.88 12.163-44.04 0l-88.083-88.098c-12.161-12.164-12.161-31.886 0-44.05 12.162-12.163 31.88-12.163 44.041 0l88.082 88.098z" fill="#FF3E96"/><path d="M342.043 247.95c12.132-12.133 31.8-12.133 43.931 0 12.131 12.134 12.131 31.806 0 43.939s-31.8 12.133-43.93 0c-12.131-12.133-12.131-31.805 0-43.938" fill="#FFBD4F"/></g></g></g></g><g transform="translate(309.03 115.066)"><mask id="q" fill="#fff"><use xlink:href="#o"/></mask><use filter="url(#p)" xlink:href="#o" fill="#000"/><g mask="url(#q)" fill="#000"><path d="M0 0h108.947v217.934H0z"/></g><use filter="url(#r)" xlink:href="#s" fill="#000"/><mask id="u" fill="#fff"><use xlink:href="#t"/></mask><use fill="#FFAD4A" xlink:href="#t"/><g mask="url(#u)"><path d="M-48.717 272.867c-25.858 0-46.82-20.965-46.82-46.828 0-25.863 20.962-46.83 46.82-46.83s46.82 20.967 46.82 46.83-20.962 46.828-46.82 46.828m0-279.171c-25.858 0-46.82-20.966-46.82-46.829 0-25.862 20.962-46.828 46.82-46.828s46.82 20.966 46.82 46.828c0 25.863-20.962 46.83-46.82 46.83" fill="#971DB5"/><path d="M-48.717-6.754c-51.468 0-93.19 41.73-93.19 93.207s41.722 93.207 93.19 93.207v93.207c-102.935 0-186.38-83.46-186.38-186.414s83.445-186.414 186.38-186.414v93.207z" fill="#971DB5"/><path d="M-165.317 39.624c-38.539 0-69.78-31.247-69.78-69.793 0-38.545 31.241-69.792 69.78-69.792 38.538 0 69.78 31.247 69.78 69.792 0 38.546-31.242 69.793-69.78 69.793z" fill="#FF3E96"/><g transform="translate(-235.098 -99.961)"><mask id="w" fill="#fff"><use xlink:href="#v"/></mask><path d="M79.543 359.179c-18.197 18.2-47.699 18.2-65.895 0-18.197-18.2-18.197-47.708 0-65.908L293.219 13.65c18.196-18.2 47.698-18.2 65.895 0 18.197 18.2 18.197 47.707 0 65.907L79.543 359.18z" fill="#FF7139" mask="url(#w)"/></g><path d="M-141.457 226.039c0 25.863-20.963 46.828-46.82 46.828-25.858 0-46.82-20.965-46.82-46.828 0-25.863 20.962-46.83 46.82-46.83 25.857 0 46.82 20.967 46.82 46.83" fill="#FFBD4F"/><path d="M-235.098 86.453c0-25.863 20.963-46.829 46.82-46.829 25.858 0 46.821 20.966 46.821 46.829s-20.963 46.829-46.82 46.829c-25.858 0-46.82-20.966-46.82-46.829" fill="#971DB5"/><path d="M44.474 86.453c0-51.477-41.723-93.207-93.19-93.207-51.469 0-93.191 41.73-93.191 93.207h-93.19c0-102.954 83.445-186.414 186.38-186.414 102.936 0 186.381 83.46 186.381 186.414h-93.19z" fill="#971DB5"/><path d="M44.023 86.453c0-25.863 20.963-46.829 46.82-46.829 25.859 0 46.821 20.966 46.821 46.829s-20.962 46.829-46.82 46.829-46.82-20.966-46.82-46.829l4.051 88.09" fill="#FF3E96"/><path d="M68.217 159.359c12.161 12.164 12.161 31.885 0 44.048-12.162 12.164-31.88 12.164-44.04 0l-88.083-88.097c-12.162-12.164-12.162-31.885 0-44.05 12.161-12.163 31.88-12.163 44.04 0l88.083 88.099z" fill="#971DB5"/><path d="M128.543 219.696c12.161 12.164 12.161 31.885 0 44.049-12.162 12.163-31.88 12.163-44.041 0L-3.58 175.647c-12.161-12.164-12.161-31.885 0-44.049 12.161-12.164 31.88-12.164 44.041 0l88.082 88.098z" fill="#FF3E96"/><path d="M84.635 219.83c12.131-12.134 31.8-12.134 43.931 0 12.13 12.133 12.13 31.805 0 43.937-12.131 12.134-31.8 12.134-43.93 0-12.132-12.132-12.132-31.804 0-43.938" fill="#FFBD4F"/></g></g></g></svg>
