<svg width="97" height="90" xmlns="http://www.w3.org/2000/svg"><g stroke="#811CA0" fill="none" fill-rule="evenodd"><path d="M4.54 38.83c2.516-3.94 5.49-7.878 8.911-11.567C23.409 16.53 35.122 10 48.498 10c13.38 0 25.091 6.53 35.051 17.263 3.42 3.69 6.392 7.627 8.91 11.567 1.52 2.38 2.567 4.256 3.122 5.382a4.024 4.024 0 0 1 0 3.576c-.555 1.126-1.602 3-3.122 5.382-2.518 3.942-5.49 7.878-8.91 11.565C73.59 75.468 61.88 82 48.5 82c-13.377 0-25.09-6.532-35.048-17.265-3.422-3.687-6.395-7.623-8.911-11.565-1.522-2.381-2.565-4.256-3.122-5.382a4.037 4.037 0 0 1 0-3.576c.557-1.126 1.6-3.003 3.122-5.382zm14.81 20.21c8.56 9.111 18.33 14.49 29.15 14.49S69.09 68.15 77.65 59.04c3.06-3.255 5.736-6.757 8.002-10.258A68.858 68.858 0 0 0 87.363 46a68.849 68.849 0 0 0-1.71-2.783c-2.266-3.498-4.941-7.002-8.002-10.259-8.56-9.111-18.33-14.487-29.152-14.487-10.82 0-20.59 5.376-29.148 14.487-3.063 3.257-5.738 6.76-8.004 10.259A66.8 66.8 0 0 0 9.637 46c.496.855 1.066 1.79 1.71 2.782 2.266 3.501 4.941 7.003 8.004 10.258z" fill="#811CA0"/><path d="M49 61c8.284 0 15-6.716 15-15 0-8.284-6.716-15-15-15-8.284 0-15 6.716-15 15 0 8.284 6.716 15 15 15zM6 87L94 3" stroke-width="5" stroke-linecap="round" stroke-linejoin="round"/></g></svg>