<?xml version="1.0" encoding="UTF-8"?>
<svg width="97px" height="90px" viewBox="0 0 97 90" version="1.1" xmlns="http://www.w3.org/2000/svg" xmlns:xlink="http://www.w3.org/1999/xlink">
    <!-- Generator: Sketch 53.2 (72643) - https://sketchapp.com -->
    <title>Eye</title>
    <desc>Created with Sketch.</desc>
    <g id="/firefox-(Desktop)" stroke="none" stroke-width="1" fill="none" fill-rule="evenodd">
        <g id="/Mobile-1280" transform="translate(-345.000000, -2897.000000)" stroke="#811CA0">
            <g id="Customization" transform="translate(199.000000, 2717.000000)">
                <g id="Extensions">
                    <g id="Extension-phone">
                        <g transform="translate(75.187970, 25.153047)" id="Eye">
                            <g transform="translate(71.812030, 157.846953)">
                                <path d="M3.53966402,35.8301176 C6.05622031,31.8903529 9.02914692,27.9524706 12.4509929,24.2630588 C22.4091794,13.5298824 34.1220631,7 47.4983701,7 C60.8784026,7 72.5894236,13.5298824 82.5494728,24.2630588 C85.969456,27.9524706 88.9405199,31.8903529 91.4589389,35.8301176 C92.9789315,38.2094118 94.0257891,40.0861176 94.5808844,41.2117647 C95.1397052,42.3374118 95.1397052,43.6625882 94.5808844,44.7882353 C94.0257891,45.9138824 92.9789315,47.7887059 91.4589389,50.1698824 C88.9405199,54.1115294 85.969456,58.0475294 82.5494728,61.7350588 C72.5894236,72.4682353 60.8784026,79 47.4983701,79 C34.1220631,79 22.4091794,72.4682353 12.4509929,61.7350588 C9.02914692,58.0475294 6.05622031,54.1115294 3.53966402,50.1698824 C2.01780874,47.7887059 0.974676595,45.9138824 0.417718541,44.7882353 C-0.139239514,43.6625882 -0.139239514,42.3374118 0.417718541,41.2117647 C0.974676595,40.0861176 2.01780874,38.2094118 3.53966402,35.8301176 Z M18.3506497,56.0401503 C26.9093122,65.1512289 36.6792462,70.5294118 47.4990725,70.5294118 C58.3207538,70.5294118 68.0906878,65.1512289 76.6512053,56.0401503 C79.7118453,52.7847395 82.3866592,49.2831834 84.6533878,45.7816273 C85.2951947,44.7896431 85.8665142,43.8550311 86.3636364,43 C85.8665142,42.1431181 85.2951947,41.2103569 84.6533878,40.216522 C82.3866592,36.7186673 79.7118453,33.2152605 76.6512053,29.957999 C68.0906878,20.8469204 58.3207538,15.4705882 47.4990725,15.4705882 C36.6792462,15.4705882 26.9093122,20.8469204 18.3506497,29.957999 C15.2881547,33.2152605 12.6133408,36.7186673 10.3466122,40.216522 C9.70295032,41.2103569 9.13348578,42.1431181 8.63636364,43 C9.13348578,43.8550311 9.70295032,44.7896431 10.3466122,45.7816273 C12.6133408,49.2831834 15.2881547,52.7847395 18.3506497,56.0401503 Z" id="Fill-16" fill="#811CA0"></path>
                                <path d="M48,58 C56.2835294,58 63,51.2835294 63,43 C63,34.7164706 56.2835294,28 48,28 C39.7164706,28 33,34.7164706 33,43 C33,51.2835294 39.7164706,58 48,58 Z" id="Stroke-18" stroke-width="5" stroke-linecap="round" stroke-linejoin="round"></path>
                                <path d="M5,84 L93,0" id="Stroke-20" stroke-width="5" stroke-linecap="round" stroke-linejoin="round"></path>
                            </g>
                        </g>
                    </g>
                </g>
            </g>
        </g>
    </g>
</svg>