<svg width="243.336" height="293" viewBox="0 0 245 293" xmlns="http://www.w3.org/2000/svg"><g fill="none" fill-rule="evenodd"><path d="M287.137 517.556H112.01c-22.676 0-41.23-17.613-41.23-39.138 0 0-27.451-460.186-4.775-460.186l261.736 1.149c22.677 0 .628 459.037.628 459.037 0 21.525-18.554 39.138-41.232 39.138zm-.015-14.877c14.6 0 26.435-11.235 26.435-25.095V58.734c0-13.859-11.835-25.095-26.435-25.095H113.055c-14.6 0-26.434 11.235-26.434 25.095v418.851c0 13.858 11.834 25.094 26.434 25.094h174.067z" mask="url(#mask-1)" fill="#fff" transform="translate(-78 -30)"/><path d="M-78-30h400v323.308H-78z"/><path d="M283.377 527.451H117.138C95.612 527.451 78 509.838 78 488.313V69.14C78 47.614 95.612 30 117.138 30h166.24c21.526 0 39.138 17.614 39.138 39.14v419.173c0 21.525-17.612 39.138-39.139 39.138zm-.014-14.877c13.859 0 25.093-11.235 25.093-25.095V68.629c0-13.859-11.234-25.095-25.093-25.095H118.13c-13.86 0-25.093 11.235-25.093 25.095V487.48c0 13.858 11.233 25.094 25.093 25.094z" fill="#201238" mask="url(#d)" transform="translate(-78 -30)"/><path d="M286.602 135.951H114.838c-3.552 0-6.46-2.906-6.46-6.46V108.42c0-3.552 2.908-6.459 6.46-6.459h171.766c3.552 0 6.46 2.907 6.46 6.46v21.069c0 3.554-2.908 6.46-6.46 6.46" fill="#FFF" mask="url(#d)" transform="translate(-78 -30)"/></g></svg>