<svg width="163" height="331" xmlns="http://www.w3.org/2000/svg"><g fill="none" fill-rule="evenodd"><g transform="translate(0 -.196)"><mask id="a" fill="#fff"><path d="M0 .196h162.603V331H0z"/></mask><path d="M136.577 331H26.027C11.713 331 0 319.288 0 304.973V26.223C0 11.908 11.713.195 26.027.195h110.55c14.315 0 26.026 11.713 26.026 26.028v278.75c0 14.315-11.712 26.027-26.026 26.027" fill="#FFF" mask="url(#a)"/></g><path d="M136.242 321.358H26.362c-9.216 0-16.687-7.472-16.687-16.688V26.134c0-9.216 7.47-16.688 16.688-16.688h109.879c9.217 0 16.688 7.472 16.688 16.688V304.67c0 9.216-7.471 16.688-16.688 16.688" fill="#5F16E4"/><path d="M138.413 69.162H24.19a4.308 4.308 0 0 1-4.296-4.295V50.853a4.308 4.308 0 0 1 4.297-4.295h114.222a4.308 4.308 0 0 1 4.296 4.295v14.014a4.308 4.308 0 0 1-4.296 4.295M84.666 193.37a68.639 68.639 0 0 0 7.876-6.203c7.751-7.113 12.307-14.88 12.307-22.927v-22.255l-20.183-7.94v59.326zm-26.911-29.13c0 8.048 4.556 15.814 12.307 22.928a68.639 68.639 0 0 0 7.876 6.203v-59.325l-20.183 7.94v22.255z" fill="#FFF"/><path d="M104.849 164.24c0 8.048-4.556 15.814-12.307 22.928a68.552 68.552 0 0 1-7.876 6.203v-59.325l20.183 7.94v22.255zm-26.911 29.13a68.726 68.726 0 0 1-7.876-6.202c-7.751-7.114-12.307-14.88-12.307-22.927v-22.255l20.183-7.94v59.325z" fill="#FFF"/></g></svg>