<svg width="163" height="331" xmlns="http://www.w3.org/2000/svg"><g fill="none" fill-rule="evenodd"><g transform="translate(0 -.196)"><mask id="a" fill="#fff"><path d="M0 .196h162.604V331H0z"/></mask><path d="M136.577 331H26.027C11.712 331 0 319.288 0 304.973V26.223C0 11.908 11.712.196 26.027.196h110.55c14.314 0 26.027 11.712 26.027 26.027v278.75c0 14.315-11.713 26.027-26.027 26.027" fill="#FFF" mask="url(#a)"/></g><path d="M136.242 321.358H26.362c-9.217 0-16.687-7.472-16.687-16.688V26.134c0-9.216 7.47-16.688 16.687-16.688h109.88c9.216 0 16.687 7.472 16.687 16.688V304.67c0 9.216-7.47 16.688-16.687 16.688" fill="#901DAE"/><path d="M138.414 68.345H24.19a4.309 4.309 0 0 1-4.296-4.296V50.036a4.309 4.309 0 0 1 4.296-4.295h114.224a4.309 4.309 0 0 1 4.296 4.295V64.05a4.309 4.309 0 0 1-4.296 4.296m-79.848 95.762l4.704-2.963c1.607-1.012 3.533-1.58 5.73-1.69 2.97-.143 4.85.969 5.904 1.936l.2.19 3.363 3.363-4.548 1.393c-1.715.527-3.77.842-5.49.842-1.519 0-3.193-.342-4.717-.965l-5.146-2.106zm40.251 2.136c-1.522.613-3.127.935-4.642.935-1.823 0-3.835-.298-5.52-.818l-4.537-1.4 3.58-3.567c1.057-.972 2.924-2.095 5.906-1.939 2.226.11 4.155.701 5.736 1.755l4.515 3.013-5.038 2.021zm-.635-21.665c-4.578 0-8.177.702-12.412 2.422-.393.16-1.41.588-1.874.784l-.214.091c-.585.244-1.002.404-1.387.525-1.043.324-.94.326-1.984-.001-.386-.12-.803-.28-1.39-.526l-.21-.089c-.465-.196-1.483-.624-1.872-.782-4.239-1.722-7.837-2.424-12.416-2.424-12.233 0-17.452 4.619-17.452 15.448 0 14.716 7.473 24.604 18.596 24.604 3.654 0 6.51-1.465 9.922-3.825l1.133-.794c3.01-2.117 3.995-2.533 4.68-2.533.574 0 1.447.354 3.848 2.086l.557.402c4.36 3.159 7.167 4.664 11.33 4.664 11.123 0 18.595-9.888 18.595-24.604 0-10.829-5.219-15.448-17.45-15.448z" fill="#FFF"/></g></svg>