<svg width="245" height="295" xmlns="http://www.w3.org/2000/svg"><g fill="none" fill-rule="evenodd"><path d="M283.559 512.354H118.325c-13.86 0-25.093-11.236-25.093-25.094V68.409c0-13.86 11.233-25.095 25.093-25.095h165.233c13.859 0 25.093 11.236 25.093 25.095v418.85c0 13.86-11.234 25.095-25.093 25.095" fill="#FFE55B" mask="url(#d)" transform="translate(-78 -29)"/><path d="M238.458 358.411c-14.702 0-28.663-8.678-34.693-23.087-8.018-19.152 1.009-41.177 20.16-49.194l318.7-133.415c19.156-8.017 41.177 1.01 49.192 20.16 8.018 19.151-1.009 41.178-20.16 49.195L252.959 355.485a37.494 37.494 0 0 1-14.501 2.926" fill="#FF7139" mask="url(#h)" transform="translate(-78 -29)"/><path d="M173.987 263.777c-31.368 0-56.8-25.431-56.8-56.801 0-38.954-31.692-70.644-70.644-70.644-38.953 0-70.645 31.69-70.645 70.644 0 31.37-25.431 56.801-56.8 56.801-31.371 0-56.801-25.431-56.801-56.801 0-101.594 82.65-184.247 184.246-184.247 101.594 0 184.246 82.653 184.246 184.247 0 31.37-25.43 56.801-56.802 56.801" fill="#FF2889" mask="url(#j)" transform="translate(-78 -29)"/><path d="M609.375 186.898c-11.276 34.442-48.342 53.224-82.786 41.946l-237.05-77.615c-34.443-11.277-53.224-48.343-41.947-82.785l77.614-237.05c11.278-34.443 48.344-53.225 82.786-41.948 34.444 11.278 53.226 48.344 41.947 82.786L392.744 46.916l174.684 57.197c34.444 11.277 53.224 48.343 41.947 82.786" fill="#971DB5" mask="url(#l)" transform="translate(-78 -29)"/></g></svg>