<svg width="245" height="295" xmlns="http://www.w3.org/2000/svg"><g fill="none" fill-rule="evenodd"><path d="M283.559 512.354H118.325c-13.86 0-25.093-11.236-25.093-25.094V68.409c0-13.86 11.233-25.095 25.093-25.095h165.233c13.859 0 25.093 11.236 25.093 25.095v418.85c0 13.86-11.234 25.095-25.093 25.095" mask="url(#d)" fill="#9059ff" transform="translate(-78 -29)"/><g transform="translate(14.729 13.903)"><mask id="a" fill="#fff"><path d="M25.492.134C11.632.134.398 11.368.398 25.229v418.85c0 13.86 11.234 25.095 25.094 25.095h165.233c13.86 0 25.095-11.234 25.095-25.094V25.229c0-13.86-11.235-25.095-25.095-25.095"/></mask><path d="M145.729 315.508c-14.702 0-28.663-8.678-34.693-23.087-8.018-19.152 1.009-41.177 20.16-49.194l318.7-133.415c19.156-8.017 41.177 1.01 49.192 20.16 8.018 19.151-1.009 41.178-20.16 49.195L160.23 312.582a37.492 37.492 0 0 1-14.501 2.926" mask="url(#a)" fill="#ff4760"/></g><g transform="translate(14.729 13.903)"><mask id="b" fill="#fff"><path d="M25.492.134C11.632.134.398 11.368.398 25.229v418.85c0 13.86 11.234 25.095 25.094 25.095h165.233c13.86 0 25.095-11.234 25.095-25.094V25.229c0-13.86-11.235-25.095-25.095-25.095"/></mask><path d="M81.258 220.874c-31.368 0-56.8-25.431-56.8-56.801 0-38.954-31.692-70.644-70.644-70.644-38.953 0-70.645 31.69-70.645 70.644 0 31.37-25.431 56.801-56.8 56.801-31.371 0-56.801-25.431-56.801-56.801 0-101.594 82.65-184.247 184.246-184.247 101.594 0 184.246 82.653 184.246 184.247 0 31.37-25.43 56.801-56.802 56.801" mask="url(#b)" fill="#592acb"/></g><g transform="translate(14.729 13.903)"><mask id="c" fill="#fff"><path d="M26.492.134c-13.86 0-25.094 11.234-25.094 25.095v418.85c0 13.86 11.234 25.095 25.094 25.095h165.233c13.86 0 25.095-11.234 25.095-25.094V25.229c0-13.86-11.235-25.095-25.095-25.095"/></mask><path d="M516.646 143.995c-11.276 34.442-48.342 53.224-82.786 41.946l-237.05-77.615c-34.443-11.277-53.224-48.343-41.947-82.785l77.614-237.05c11.278-34.443 48.344-53.225 82.786-41.948 34.444 11.278 53.226 48.344 41.947 82.786L300.015 4.013 474.699 61.21c34.444 11.277 53.224 48.343 41.947 82.786" mask="url(#c)" fill="#ff298a"/></g></g></svg>