<?xml version="1.0" encoding="utf-8"?>
<svg width="245" height="295" viewBox="0 0 245 295" xmlns="http://www.w3.org/2000/svg">
  <defs>
    <path id="a" d="M0 0h400v323.308H0z"/>
    <path id="c" d="M0 0h244.516v497.45H0z"/>
    <path d="M26.492.134c-13.86 0-25.094 11.234-25.094 25.095v418.85c0 13.86 11.234 25.095 25.094 25.095h165.233c13.86 0 25.095-11.234 25.095-25.094V25.229c0-13.86-11.235-25.095-25.095-25.095" id="e"/>
    <path d="M25.492.134C11.632.134.398 11.368.398 25.229v418.85c0 13.86 11.234 25.095 25.094 25.095h165.233c13.86 0 25.095-11.234 25.095-25.094V25.229c0-13.86-11.235-25.095-25.095-25.095" id="g"/>
    <path d="M25.492.134C11.632.134.398 11.368.398 25.229v418.85c0 13.86 11.234 25.095 25.094 25.095h165.233c13.86 0 25.095-11.234 25.095-25.094V25.229c0-13.86-11.235-25.095-25.095-25.095" id="i"/>
    <path d="M26.492.134c-13.86 0-25.094 11.234-25.094 25.095v418.85c0 13.86 11.234 25.095 25.094 25.095h165.233c13.86 0 25.095-11.234 25.095-25.094V25.229c0-13.86-11.235-25.095-25.095-25.095" id="k"/>
  </defs>
  <g transform="translate(-78 -29)" fill="none" fill-rule="evenodd">
    <path d="M 283.559 512.354 L 118.325 512.354 C 104.465 512.354 93.232 501.118 93.232 487.26 L 93.232 68.409 C 93.232 54.549 104.465 43.314 118.325 43.314 L 283.558 43.314 C 297.417 43.314 308.651 54.55 308.651 68.409 L 308.651 487.259 C 308.651 501.119 297.417 512.354 283.558 512.354" mask="url(#d)" style="fill: rgb(255, 41, 138);"/>
    <g transform="matrix(1, 0, 0, 1, 92.729004, 42.903)">
      <mask id="h" fill="#fff">
        <path d="M 25.492 0.134 C 11.632 0.134 0.398 11.368 0.398 25.229 L 0.398 444.079 C 0.398 457.939 11.632 469.174 25.492 469.174 L 190.725 469.174 C 204.585 469.174 215.82 457.94 215.82 444.08 L 215.82 25.229 C 215.82 11.369 204.585 0.134 190.725 0.134"/>
      </mask>
      <path d="M145.729 315.508c-14.702 0-28.663-8.678-34.693-23.087-8.018-19.152 1.009-41.177 20.16-49.194l318.7-133.415c19.156-8.017 41.177 1.01 49.192 20.16 8.018 19.151-1.009 41.178-20.16 49.195L160.23 312.582a37.492 37.492 0 0 1-14.501 2.926" mask="url(#h)" style="fill: rgb(151, 29, 181);"/>
    </g>
    <g transform="matrix(1, 0, 0, 1, 92.729004, 42.903)">
      <mask id="j" fill="#fff">
        <path d="M 25.492 0.134 C 11.632 0.134 0.398 11.368 0.398 25.229 L 0.398 444.079 C 0.398 457.939 11.632 469.174 25.492 469.174 L 190.725 469.174 C 204.585 469.174 215.82 457.94 215.82 444.08 L 215.82 25.229 C 215.82 11.369 204.585 0.134 190.725 0.134"/>
      </mask>
      <path d="M81.258 220.874c-31.368 0-56.8-25.431-56.8-56.801 0-38.954-31.692-70.644-70.644-70.644-38.953 0-70.645 31.69-70.645 70.644 0 31.37-25.431 56.801-56.8 56.801-31.371 0-56.801-25.431-56.801-56.801 0-101.594 82.65-184.247 184.246-184.247 101.594 0 184.246 82.653 184.246 184.247 0 31.37-25.43 56.801-56.802 56.801" mask="url(#j)" style="fill: rgb(255, 189, 79);"/>
    </g>
    <g transform="matrix(1, 0, 0, 1, 92.729004, 42.903)">
      <mask id="l" fill="#fff">
        <path d="M 26.492 0.134 C 12.632 0.134 1.398 11.368 1.398 25.229 L 1.398 444.079 C 1.398 457.939 12.632 469.174 26.492 469.174 L 191.725 469.174 C 205.585 469.174 216.82 457.94 216.82 444.08 L 216.82 25.229 C 216.82 11.369 205.585 0.134 191.725 0.134"/>
      </mask>
      <path d="M516.646 143.995c-11.276 34.442-48.342 53.224-82.786 41.946l-237.05-77.615c-34.443-11.277-53.224-48.343-41.947-82.785l77.614-237.05c11.278-34.443 48.344-53.225 82.786-41.948 34.444 11.278 53.226 48.344 41.947 82.786L300.015 4.013 474.699 61.21c34.444 11.277 53.224 48.343 41.947 82.786" mask="url(#l)" style="fill: rgb(144, 89, 255);"/>
    </g>
  </g>
</svg>