<svg xmlns="http://www.w3.org/2000/svg" width="179" height="88" viewBox="0 0 179 88"><path fill="#fff" d="M8.946 35.096c-.34-3.55-.526-11.583-.52-22.216L36.504 8.3v66.385c-3.143-.64-11.56-3.006-17.47-10.66-5.78-7.486-8.608-13.44-10.088-28.93zm61.913-17.7c-1.234.405-2.4.8-3.506 1.184.016-2.403.02-4.98.013-7.715 0-.18-.155-.33-.376-.365L36.506 5.532 6.018 10.5c-.22.036-.375.187-.376.366-.033 11.713.16 20.642.528 24.495 1.535 16.046 4.655 22.558 10.644 30.31 6.937 8.975 17.08 11.32 19.694 11.788 2.31-.414 10.726-2.355 17.45-9.24.73 1.062 1.5 2.162 2.36 3.357.313.408.636.8.958 1.19C47.956 81.768 36.504 83 36.504 83S21.987 81.447 12.34 68.99C5.236 59.82 2.095 51.895.562 35.9.036 30.405-.01 17.912.01 10.913.02 8.02 2.164 5.58 5.09 5.105L36.503-.003 67.92 5.105c2.924.475 5.07 2.916 5.078 5.808.005 1.667.005 3.65-.003 5.77-.648.22-1.355.454-2.136.712z"/><path fill="#fff" d="M176.593 36.244c-.536 8.992 1.608 19.733-10.453 35.22-12.87 16.523-25.65 15.26-28.06 15.51-14.48 1.492-16.386-11.026-24.842-11.026-7.403 0-13.435 12.438-24.31 11.026-2.402-.313-15.19 1.013-28.06-15.51-12.06-15.487-9.916-26.228-10.452-35.22-.536-8.993-2.412-18.734-2.412-18.734s5.812 5.745 13.317 6.245c7.506.5 8.908-2.568 24.743-6.994 17.123-4.785 27.442 14.827 27.442 14.827s11.627-19.322 27.44-14.826c15.814 4.497 16.47 7.494 23.975 6.995 7.505-.5 14.085-6.245 14.085-6.245s-1.876 9.74-2.412 18.734zm-88.53 3.767c-9.358-2.014-13.285 1.43-17.295 2.898-3.5 1.28-6.683 1.68-6.683 1.68s.536 5.244 9.917 9.74c9.38 4.496 28.625 2.176 28.625 2.176s2.043-12.917-14.563-16.493zm68.178 2.898c-4.01-1.47-7.936-4.912-17.296-2.897-16.606 3.577-14.562 16.494-14.562 16.494s19.244 2.32 28.624-2.176c9.382-4.496 9.917-9.74 9.917-9.74s-3.183-.4-6.682-1.68z"/></svg>