<svg xmlns="http://www.w3.org/2000/svg" xmlns:xlink="http://www.w3.org/1999/xlink" width="24" height="24" viewBox="0 0 24 24"><defs><path id="shape-shield-outer" fill="#fff" d="M12 1L3.4 2.4c-.8.1-1.4.7-1.4 1.5 0 1.9 0 5.2.2 6.6.4 4.2 1.3 6.3 3.2 8.8C8 22.6 12 23 12 23s4-.4 6.6-3.7c1.9-2.4 2.8-4.5 3.2-8.8.2-1.4.2-4.8.2-6.6 0-.8-.6-1.4-1.4-1.5L12 1z"/><path id="shape-shield-inner" d="M12 3l7.9 1.2c.1 0 .1 0 .1.1 0 2.9 0 5.2-.1 6.1-.4 4-1.2 5.6-2.8 7.6-1.8 2.3-4.4 2.8-5.1 3-.7-.1-3.3-.7-5.1-3-1.6-1.9-2.4-3.6-2.8-7.6C4 9.5 4 7.3 4 4.3c0 0 0-.1.1-.1L12 3"/><path id="shape-shield-detail" d="M12 20c-.8-.2-2.9-.7-4.4-2.6-1.4-1.8-2.1-3.2-2.5-7C5 9.6 5 7.7 5 5.1L12 4v16z"/><mask id="mask-shield-cutout"><path d="M0 0h24v24H0z"/><use xlink:href="#shape-shield-outer" fill="#fff"/><use xlink:href="#shape-shield-inner"/><use xlink:href="#shape-shield-detail" fill="#fff"/></mask></defs><use xlink:href="#shape-shield-outer" mask="url(#mask-shield-cutout)"/></svg>
