<svg xmlns="http://www.w3.org/2000/svg" width="600" height="450" fill="none" viewBox="0 0 600 450"><rect width="600" height="450" fill="#ECDFFF" rx="15"/><g filter="url(#a)"><g clip-path="url(#b)"><rect width="507.821" height="358.053" x="46" y="46" fill="#fff" rx="5.951"/><path fill="#C9C3D2" d="M40.05 42.033h525.673v28.763H40.05z"/><circle cx="57.364" cy="57.365" r="3.099" fill="#592ACB"/><circle cx="67.696" cy="57.365" r="3.099" fill="#592ACB"/><circle cx="78.028" cy="57.365" r="3.099" fill="#592ACB"/><path fill="#0C0C0D" d="M108.613 226.8H96.096v4.501h11.334v4.369H96.096v4.961h12.517V245h-17.38v-22.569h17.38v4.369Zm9.909 18.594c-2.727 0-5.618-.92-7.655-2.562l2.07-3.318c1.511 1.084 3.416 1.905 5.683 1.905 1.281 0 2.201-.526 2.201-1.281 0-1.051-1.248-1.38-2.989-1.84-3.483-.854-6.176-1.807-6.209-5.158-.033-3.219 2.628-5.519 6.636-5.519 2.431 0 4.829.854 6.702 2.103l-1.939 3.416c-1.544-.952-3.318-1.511-4.763-1.511-1.183 0-2.004.427-2.004 1.019 0 .919.69 1.182 2.989 1.806 2.924.756 6.177 1.742 6.177 5.454 0 3.351-2.727 5.486-6.899 5.486Zm23.563-.394-5.782-16.985h4.698l3.219 10.579 3.351-10.579h3.975l3.351 10.579 3.22-10.579h4.698L157.033 245h-4.304l-3.154-10.677L146.388 245h-4.303Zm25.75-19.317a2.615 2.615 0 0 1-2.628-2.628c0-1.347 1.15-2.563 2.628-2.563 1.413 0 2.562 1.216 2.562 2.563 0 1.445-1.149 2.628-2.562 2.628ZM165.404 245v-16.985h4.796V245h-4.796Zm13.78-13.831c1.117-2.201 3.22-3.548 5.815-3.548v4.041c-3.548 0-5.815 2.037-5.815 5.224V245h-4.796v-16.985h4.796v3.154Zm21.263-9.133h4.796V245h-4.796v-2.431c-1.347 1.774-3.318 2.825-5.716 2.825-4.534 0-7.819-3.679-7.819-8.903 0-5.19 3.285-8.87 7.819-8.87 2.398 0 4.369 1.052 5.716 2.826v-8.411Zm-4.337 19.317c2.53 0 4.337-2.004 4.337-4.862 0-2.825-1.807-4.829-4.337-4.829-2.661 0-4.533 2.004-4.533 4.829 0 2.858 1.872 4.862 4.533 4.862Zm32.342-13.732c3.679 0 6.307 2.727 6.307 6.571V245h-4.632v-9.79c0-2.102-1.314-3.548-3.219-3.548-2.004 0-3.548 1.446-3.548 3.285l-.033-.098V245h-4.797v-16.985h4.797v2.136c1.018-1.544 2.924-2.53 5.125-2.53Zm17.945 0c4.435 0 7.458 2.793 7.458 7.228V245h-4.632v-1.708c-1.216 1.379-3.154 2.102-4.994 2.102-3.614 0-6.406-2.168-6.406-5.42 0-3.351 3.121-5.651 7.063-5.651 1.38 0 2.891.296 4.337.854v-.328c0-1.807-1.117-3.384-3.91-3.384-1.577 0-3.055.526-4.402 1.215l-1.61-3.186c2.399-1.216 4.731-1.873 7.096-1.873Zm-1.084 14.455c1.84 0 3.581-.854 3.91-2.431v-1.577a10.752 10.752 0 0 0-3.647-.624c-1.741 0-3.121 1.018-3.121 2.398 0 1.38 1.216 2.234 2.858 2.234Zm20.896 3.318c-5.026 0-9.264-4.073-9.264-8.903 0-4.829 4.271-8.87 9.297-8.87 2.759 0 5.026 1.117 6.669 2.891l-3.187 2.727c-.854-.953-2.201-1.577-3.515-1.577-2.497 0-4.599 2.201-4.599 4.796 0 2.661 2.102 4.895 4.632 4.895 1.314 0 2.694-.657 3.581-1.642l3.186 2.694c-1.675 1.839-3.975 2.989-6.8 2.989Zm19.509-17.773c3.68 0 6.308 2.727 6.308 6.571V245h-4.632v-9.79c0-2.102-1.314-3.548-3.22-3.548-2.004 0-3.548 1.446-3.548 3.285V245h-4.796v-22.964h4.796v8.049c1.052-1.478 2.924-2.464 5.092-2.464ZM91.431 280v-22.569h8.082c7.589 0 12.976 4.665 12.976 11.268 0 6.603-5.387 11.301-12.976 11.301H91.43Zm4.83-4.402h3.876c4.303 0 7.359-2.858 7.359-6.899 0-4.008-3.056-6.866-7.359-6.866H96.26v13.765Zm27.422-12.977c4.435 0 7.458 2.793 7.458 7.228V280h-4.632v-1.708c-1.216 1.379-3.154 2.102-4.994 2.102-3.614 0-6.406-2.168-6.406-5.42 0-3.351 3.121-5.651 7.063-5.651 1.38 0 2.891.296 4.337.854v-.328c0-1.807-1.117-3.384-3.91-3.384-1.577 0-3.055.526-4.402 1.215l-1.61-3.186c2.398-1.216 4.731-1.873 7.096-1.873Zm-1.084 14.455c1.84 0 3.581-.854 3.91-2.431v-1.577a10.757 10.757 0 0 0-3.647-.624c-1.741 0-3.121 1.018-3.121 2.398 0 1.38 1.216 2.234 2.858 2.234Zm21.52-1.281 1.15 3.121c-.986.887-2.53 1.478-3.909 1.478-2.99 0-5.093-2.135-5.093-5.19v-8.312h-2.332v-3.877h2.332v-4.665h4.6v4.665h3.679v3.877h-3.679v7.556c0 1.117.723 1.905 1.61 1.905.657 0 1.314-.23 1.642-.558Zm12.17.361c1.347 0 2.989-.624 3.909-1.511l3.055 3.121c-1.511 1.577-4.435 2.628-6.931 2.628-5.06 0-9.002-3.712-9.002-8.936 0-5.124 3.778-8.837 8.739-8.837 5.322 0 8.443 4.041 8.443 10.447h-12.254c.558 1.84 2.037 3.088 4.041 3.088Zm-.033-9.297c-1.807 0-3.318 1.051-3.942 2.76h7.589c-.46-1.676-1.709-2.76-3.647-2.76Zm21.313-4.238c3.68 0 6.308 2.727 6.308 6.571V280h-4.632v-9.79c0-2.102-1.314-3.548-3.22-3.548-2.004 0-3.548 1.446-3.548 3.285l-.032-.098V280h-4.797v-16.985h4.797v2.136c1.018-1.544 2.923-2.53 5.124-2.53ZM187.926 280v-22.964h4.797V280h-4.797Zm16.999-3.844c1.347 0 2.99-.624 3.91-1.511l3.055 3.121c-1.511 1.577-4.435 2.628-6.932 2.628-5.059 0-9.001-3.712-9.001-8.936 0-5.124 3.778-8.837 8.738-8.837 5.322 0 8.443 4.041 8.443 10.447h-12.254c.559 1.84 2.037 3.088 4.041 3.088Zm-.033-9.297c-1.806 0-3.318 1.051-3.942 2.76h7.589c-.46-1.676-1.708-2.76-3.647-2.76Zm19.08-4.238c4.435 0 7.457 2.793 7.457 7.228V280h-4.632v-1.708c-1.215 1.379-3.153 2.102-4.993 2.102-3.614 0-6.406-2.168-6.406-5.42 0-3.351 3.121-5.651 7.063-5.651 1.38 0 2.891.296 4.336.854v-.328c0-1.807-1.117-3.384-3.909-3.384-1.577 0-3.055.526-4.402 1.215l-1.61-3.186c2.398-1.216 4.731-1.873 7.096-1.873Zm-1.084 14.455c1.84 0 3.581-.854 3.909-2.431v-1.577a10.746 10.746 0 0 0-3.646-.624c-1.741 0-3.121 1.018-3.121 2.398 0 1.38 1.215 2.234 2.858 2.234Zm29.109-14.061-6.604 7.524 6.538 9.461h-5.519l-4.205-6.373-2.037 2.201V280h-4.796v-22.964h4.796v13.305l6.308-7.326h5.519Zm8.616 17.379c-2.726 0-5.617-.92-7.654-2.562l2.07-3.318c1.511 1.084 3.416 1.905 5.683 1.905 1.281 0 2.201-.526 2.201-1.281 0-1.051-1.248-1.38-2.989-1.84-3.483-.854-6.177-1.807-6.21-5.158-.032-3.219 2.629-5.519 6.637-5.519 2.431 0 4.829.854 6.701 2.103l-1.938 3.416c-1.544-.952-3.318-1.511-4.763-1.511-1.183 0-2.004.427-2.004 1.019 0 .919.69 1.182 2.989 1.806 2.924.756 6.176 1.742 6.176 5.454 0 3.351-2.726 5.486-6.899 5.486Zm31.579-17.379h4.83v15.178c0 4.369-3.778 7.458-9.133 7.458-2.99 0-5.815-.953-7.49-2.267l1.675-3.384c1.117.986 3.088 1.61 5.059 1.61 3.088 0 5.059-1.413 5.059-3.614v-1.873c-1.346 1.643-3.383 2.629-5.617 2.629-4.271 0-7.523-3.351-7.523-8.082 0-4.731 3.252-8.049 7.523-8.049 2.299 0 4.468 1.084 5.617 2.694v-2.3Zm-4.106 11.696c2.398 0 4.106-1.676 4.106-4.041s-1.708-4.008-4.106-4.008c-2.398 0-4.107 1.643-4.107 4.008s1.709 4.041 4.107 4.041Zm21.17 1.445c1.347 0 2.99-.624 3.91-1.511l3.055 3.121c-1.511 1.577-4.435 2.628-6.932 2.628-5.059 0-9.001-3.712-9.001-8.936 0-5.124 3.778-8.837 8.738-8.837 5.322 0 8.443 4.041 8.443 10.447h-12.253c.558 1.84 2.036 3.088 4.04 3.088Zm-.033-9.297c-1.806 0-3.318 1.051-3.942 2.76h7.589c-.46-1.676-1.708-2.76-3.647-2.76Zm17.865 13.535c-2.727 0-5.618-.92-7.655-2.562l2.07-3.318c1.511 1.084 3.416 1.905 5.683 1.905 1.281 0 2.201-.526 2.201-1.281 0-1.051-1.248-1.38-2.989-1.84-3.483-.854-6.177-1.807-6.209-5.158-.033-3.219 2.628-5.519 6.636-5.519 2.431 0 4.829.854 6.702 2.103l-1.939 3.416c-1.544-.952-3.318-1.511-4.763-1.511-1.183 0-2.004.427-2.004 1.019 0 .919.69 1.182 2.989 1.806 2.924.756 6.177 1.742 6.177 5.454 0 3.351-2.727 5.486-6.899 5.486Zm21.385-17.379h4.796V280h-4.796v-2.135c-1.019 1.544-2.924 2.529-5.125 2.529-3.68 0-6.308-2.726-6.308-6.57v-10.809h4.632v9.79c0 2.103 1.314 3.548 3.22 3.548 2.004 0 3.548-1.445 3.548-3.285l.033.099v-10.152Zm17.223 17.379c-5.027 0-9.265-4.073-9.265-8.903 0-4.829 4.271-8.87 9.298-8.87 2.759 0 5.026 1.117 6.669 2.891l-3.187 2.727c-.854-.953-2.201-1.577-3.515-1.577-2.497 0-4.6 2.201-4.6 4.796 0 2.661 2.103 4.895 4.633 4.895 1.314 0 2.693-.657 3.58-1.642l3.187 2.694c-1.675 1.839-3.975 2.989-6.8 2.989Zm19.509-17.773c3.679 0 6.308 2.727 6.308 6.571V280h-4.633v-9.79c0-2.102-1.314-3.548-3.219-3.548-2.004 0-3.548 1.446-3.548 3.285V280h-4.797v-22.964h4.797v8.049c1.051-1.478 2.924-2.464 5.092-2.464Zm19.293 13.174 1.149 3.121c-.985.887-2.529 1.478-3.909 1.478-2.989 0-5.092-2.135-5.092-5.19v-8.312h-2.333v-3.877h2.333v-4.665h4.599v4.665h3.68v3.877h-3.68v7.556c0 1.117.723 1.905 1.61 1.905.657 0 1.314-.23 1.643-.558Zm16.056 4.599a3.05 3.05 0 0 1-3.056-3.055c0-1.544 1.347-2.924 3.056-2.924 1.609 0 2.923 1.38 2.923 2.924 0 1.675-1.314 3.055-2.923 3.055Zm8.541 0a3.05 3.05 0 0 1-3.055-3.055c0-1.544 1.347-2.924 3.055-2.924 1.61 0 2.924 1.38 2.924 2.924 0 1.675-1.314 3.055-2.924 3.055Zm8.542 0a3.05 3.05 0 0 1-3.056-3.055c0-1.544 1.347-2.924 3.056-2.924 1.609 0 2.923 1.38 2.923 2.924 0 1.675-1.314 3.055-2.923 3.055Z"/><rect width="423.385" height="44.63" x="89.424" y="311.895" fill="#EAEAEA" rx="22.315"/><rect width="91.006" height="44.784" x="88.218" y="311.895" fill="url(#c)" rx="22.392"/><path fill="#fff" d="M115.607 331.349c2.844 0 5.195 1.836 5.195 4.882 0 3.157-2.53 5.329-5.889 5.329-4.501 0-6.539-3.224-6.539-7.703 0-4.792 2.799-8.218 7.054-8.218 1.925 0 3.471.65 4.724 1.657l-1.567 2.508c-.94-.784-1.859-1.254-3.135-1.254-1.993 0-3.359 1.657-3.65 4.255.963-.918 2.351-1.456 3.807-1.456Zm-.873 7.412c1.634 0 2.664-1.142 2.664-2.374 0-1.477-1.254-2.351-2.754-2.351-1.276 0-2.306.694-2.754 1.792.291 1.881 1.119 2.933 2.844 2.933Zm11.724-5.128c-2.284 0-3.829-1.724-3.829-3.918 0-2.217 1.545-3.964 3.851-3.964 2.329 0 3.829 1.769 3.829 3.941 0 2.217-1.567 3.941-3.851 3.941Zm-1.814 7.658 10.703-15.383h2.374l-10.704 15.383h-2.373Zm1.836-9.584c.94 0 1.635-.783 1.635-2.015 0-1.187-.695-1.993-1.657-1.993-.941 0-1.613.784-1.613 1.993s.717 2.015 1.635 2.015Zm9.382 9.831c-2.306 0-3.851-1.747-3.851-3.941 0-2.195 1.567-3.941 3.851-3.941 2.307 0 3.829 1.769 3.829 3.941 0 2.216-1.589 3.941-3.829 3.941Zm0-1.949c.963 0 1.635-.783 1.635-1.992 0-1.21-.717-2.016-1.635-2.016-.985 0-1.657.784-1.657 2.016 0 1.186.694 1.992 1.657 1.992Z"/><rect width="27.776" height="27.776" x="164.232" y="131.895" fill="#592ACB" rx="13.888"/><path fill="#fff" d="M175.798 152.738c-.308 0-.603-.122-.82-.34l-3.477-3.477a1.158 1.158 0 0 1 .824-1.964 1.16 1.16 0 0 1 .815.325l2.5 2.5 7.321-10.458a1.158 1.158 0 0 1 2.084.466c.054.3-.012.61-.184.862l-8.114 11.591a1.162 1.162 0 0 1-.849.495.834.834 0 0 1-.1 0Z"/><path fill="#D9BFFF" d="M192.008 144.046h83.328v3.472h-83.328z"/><rect width="27.776" height="27.776" x="275.336" y="131.895" fill="#592ACB" rx="13.888"/><path fill="#fff" d="M286.901 152.738a1.16 1.16 0 0 1-.82-.34l-3.477-3.477a1.158 1.158 0 0 1 .824-1.964c.304-.003.597.114.815.325l2.5 2.5 7.321-10.458a1.16 1.16 0 0 1 1.9 1.328l-8.114 11.591a1.15 1.15 0 0 1-.848.495.85.85 0 0 1-.101 0Z"/><path fill="#D9BFFF" d="M303.111 144.046h41.664v3.472h-41.664zM344.775 144.046h39.06v3.472h-39.06z"/><rect width="31.248" height="31.248" x="382.099" y="130.159" fill="#592ACB" rx="15.624"/><path fill="#fff" d="m404.423 151.257-4.179-4.179a5.215 5.215 0 1 0-1.225 1.226l4.178 4.179a.866.866 0 0 0 1.226-1.226Zm-8.412-3.72a3.465 3.465 0 0 1-3.4-4.143 3.461 3.461 0 0 1 2.723-2.723 3.459 3.459 0 0 1 3.559 1.474 3.464 3.464 0 0 1-.431 4.377 3.467 3.467 0 0 1-2.451 1.015Z"/><rect width="31.248" height="31.248" x="382.099" y="130.159" stroke="#D9BFFF" stroke-width="3.472" rx="15.624"/><path fill="#592ACB" d="M155.418 178.613v-7.575h1.372v6.425h3.337v1.15h-4.709Zm8.319.111c-1.665 0-2.723-1.172-2.723-2.929 0-1.761 1.058-2.937 2.723-2.937 1.664 0 2.722 1.176 2.722 2.937 0 1.757-1.058 2.929-2.722 2.929Zm.007-1.072c.906 0 1.358-.821 1.358-1.861 0-1.039-.452-1.871-1.358-1.871-.921 0-1.372.832-1.372 1.871 0 1.04.451 1.861 1.372 1.861Zm8.342-3.218-1.221.133c-.103-.374-.429-.71-1.046-.71-.559 0-.984.266-.981.651-.003.329.226.529.803.658l.969.207c1.073.233 1.594.729 1.598 1.539-.004 1.076-1.006 1.812-2.426 1.812-1.395 0-2.272-.617-2.438-1.66l1.306-.126c.114.51.514.777 1.128.777.636 0 1.058-.293 1.058-.681 0-.322-.244-.533-.766-.647l-.969-.204c-1.091-.225-1.602-.773-1.598-1.601-.004-1.051.928-1.724 2.297-1.724 1.332 0 2.101.614 2.286 1.576Zm2.565-3.396v7.575h-1.339v-7.575h1.339Zm3.892 7.686c-1.712 0-2.759-1.135-2.759-2.918 0-1.753 1.061-2.948 2.689-2.948 1.398 0 2.596.877 2.596 2.87v.411h-3.957c.011.973.584 1.542 1.45 1.542.577 0 1.021-.251 1.202-.732l1.25.141c-.237.987-1.147 1.634-2.471 1.634Zm-1.428-3.488h2.671c-.007-.773-.525-1.335-1.295-1.335-.799 0-1.335.61-1.376 1.335Zm7.558 5.626c-1.446 0-2.264-.64-2.508-1.435l1.206-.292c.163.333.518.714 1.324.714.762 0 1.317-.344 1.317-1.18v-1.076h-.067c-.207.418-.662.939-1.634.939-1.31 0-2.342-.925-2.342-2.778 0-1.868 1.032-2.896 2.345-2.896 1.003 0 1.428.603 1.631 1.014h.074v-.94h1.321v5.774c0 1.454-1.132 2.156-2.667 2.156Zm.011-3.38c.855 0 1.335-.651 1.335-1.735 0-1.077-.473-1.79-1.335-1.79-.891 0-1.35.758-1.35 1.79 0 1.047.466 1.735 1.35 1.735Zm6.543 1.242c-1.712 0-2.759-1.135-2.759-2.918 0-1.753 1.062-2.948 2.689-2.948 1.398 0 2.597.877 2.597 2.87v.411h-3.958c.011.973.584 1.542 1.45 1.542.577 0 1.021-.251 1.202-.732l1.25.141c-.236.987-1.146 1.634-2.471 1.634Zm-1.427-3.488h2.67c-.007-.773-.525-1.335-1.294-1.335-.799 0-1.336.61-1.376 1.335Zm6.425.048v3.329h-1.339v-5.681h1.28v.965h.067c.259-.632.843-1.039 1.694-1.039 1.172 0 1.949.777 1.946 2.138v3.617h-1.339v-3.41c0-.758-.415-1.213-1.106-1.213-.707 0-1.203.473-1.203 1.294ZM256.249 171.038v7.575h-1.372v-7.575h1.372Zm2.766 4.246v3.329h-1.339v-5.681h1.28v.965h.067c.259-.632.843-1.039 1.694-1.039 1.172 0 1.949.777 1.945 2.138v3.617h-1.339v-3.41c0-.758-.414-1.213-1.106-1.213-.706 0-1.202.473-1.202 1.294Zm7.886-2.352v1.036h-1.18v4.645h-1.339v-4.645h-.839v-1.036h.839v-.536c0-1.147.788-1.713 1.776-1.713.462 0 .843.096 1.017.155l-.27 1.036a1.737 1.737 0 0 0-.5-.081c-.499 0-.684.248-.684.691v.448h1.18Zm3.313 5.792c-1.664 0-2.722-1.172-2.722-2.929 0-1.761 1.058-2.937 2.722-2.937 1.665 0 2.723 1.176 2.723 2.937 0 1.757-1.058 2.929-2.723 2.929Zm.008-1.072c.906 0 1.357-.821 1.357-1.861 0-1.039-.451-1.871-1.357-1.871-.921 0-1.372.832-1.372 1.871 0 1.04.451 1.861 1.372 1.861Zm8.95 1.072c-1.713 0-2.759-1.135-2.759-2.918 0-1.753 1.061-2.948 2.689-2.948 1.398 0 2.596.877 2.596 2.87v.411h-3.957c.011.973.584 1.542 1.45 1.542.577 0 1.02-.251 1.202-.732l1.25.141c-.237.987-1.147 1.634-2.471 1.634Zm-1.428-3.488h2.671c-.008-.773-.525-1.335-1.295-1.335-.799 0-1.335.61-1.376 1.335Zm5.087 3.377v-5.681h1.339v5.681h-1.339Zm.673-6.487c-.429 0-.776-.326-.776-.725 0-.403.347-.729.776-.729.426 0 .773.326.773.729 0 .399-.347.725-.773.725Zm3.382 3.158v3.329h-1.339v-5.681h1.28v.965h.066c.259-.632.844-1.039 1.694-1.039 1.173 0 1.95.777 1.946 2.138v3.617h-1.339v-3.41c0-.758-.414-1.213-1.106-1.213-.706 0-1.202.473-1.202 1.294Zm7.479 5.578c-1.446 0-2.264-.64-2.508-1.435l1.206-.292c.163.333.518.714 1.324.714.762 0 1.317-.344 1.317-1.18v-1.076h-.067c-.207.418-.662.939-1.634.939-1.31 0-2.342-.925-2.342-2.778 0-1.868 1.032-2.896 2.345-2.896 1.003 0 1.428.603 1.631 1.014h.074v-.94h1.321v5.774c0 1.454-1.132 2.156-2.667 2.156Zm.011-3.38c.855 0 1.335-.651 1.335-1.735 0-1.077-.473-1.79-1.335-1.79-.891 0-1.35.758-1.35 1.79 0 1.047.466 1.735 1.35 1.735Zm6.543 1.242c-1.712 0-2.759-1.135-2.759-2.918 0-1.753 1.062-2.948 2.689-2.948 1.398 0 2.597.877 2.597 2.87v.411h-3.958c.011.973.584 1.542 1.45 1.542.577 0 1.021-.251 1.202-.732l1.25.141c-.237.987-1.146 1.634-2.471 1.634Zm-1.427-3.488h2.67c-.007-.773-.525-1.335-1.294-1.335-.799 0-1.336.61-1.376 1.335Zm5.146 3.377v-7.575h1.339v2.834h.055c.204-.411.622-1.014 1.624-1.014 1.313 0 2.345 1.028 2.345 2.922 0 1.872-1.002 2.933-2.341 2.933-.977 0-1.417-.58-1.628-.995h-.078v.895h-1.316Zm1.313-2.84c0 1.102.481 1.842 1.335 1.842.884 0 1.35-.777 1.35-1.842 0-1.058-.459-1.816-1.35-1.816-.862 0-1.335.713-1.335 1.816Zm7.704 2.951c-1.713 0-2.76-1.135-2.76-2.918 0-1.753 1.062-2.948 2.689-2.948 1.398 0 2.597.877 2.597 2.87v.411h-3.958c.011.973.584 1.542 1.45 1.542.577 0 1.021-.251 1.202-.732l1.25.141c-.236.987-1.146 1.634-2.47 1.634Zm-1.428-3.488h2.67c-.007-.773-.525-1.335-1.294-1.335-.799 0-1.336.61-1.376 1.335Zm6.426.048v3.329h-1.339v-5.681h1.279v.965h.067c.259-.632.843-1.039 1.694-1.039 1.173 0 1.949.777 1.946 2.138v3.617h-1.339v-3.41c0-.758-.415-1.213-1.106-1.213-.707 0-1.202.473-1.202 1.294ZM357.021 178.613h-2.567v-7.575h2.619c2.256 0 3.625 1.421 3.625 3.78 0 2.368-1.369 3.795-3.677 3.795Zm-1.195-1.187h1.129c1.579 0 2.382-.865 2.382-2.608 0-1.734-.803-2.592-2.342-2.592h-1.169v5.2Zm7.751 1.302c-1.083 0-1.901-.592-1.901-1.709 0-1.28 1.054-1.609 2.156-1.727 1.003-.107 1.406-.126 1.406-.511v-.022c0-.558-.34-.876-.962-.876-.654 0-1.032.333-1.165.721l-1.25-.178c.296-1.035 1.213-1.568 2.408-1.568 1.084 0 2.308.451 2.308 1.953v3.802h-1.287v-.78h-.045c-.244.477-.776.895-1.668.895Zm.348-.984c.806 0 1.317-.536 1.317-1.169v-.669c-.174.14-.877.229-1.228.277-.599.085-1.047.3-1.047.814 0 .492.399.747.958.747Zm6.835-4.812v1.036h-1.12v2.937c0 .54.27.658.606.658.167 0 .318-.033.392-.052l.226 1.047a2.691 2.691 0 0 1-.788.133c-1.006.03-1.783-.496-1.775-1.565v-3.158h-.807v-1.036h.807v-1.361h1.339v1.361h1.12Zm3.574 5.792c-1.712 0-2.759-1.135-2.759-2.918 0-1.753 1.062-2.948 2.689-2.948 1.398 0 2.597.877 2.597 2.87v.411h-3.958c.011.973.584 1.542 1.45 1.542.577 0 1.021-.251 1.202-.732l1.25.141c-.236.987-1.146 1.634-2.471 1.634Zm-1.427-3.488h2.67c-.007-.773-.525-1.335-1.294-1.335-.799 0-1.336.61-1.376 1.335Zm6.425.048v3.329h-1.338v-5.681h1.279v.965h.067c.259-.632.843-1.039 1.694-1.039 1.172 0 1.949.777 1.946 2.138v3.617h-1.339v-3.41c0-.758-.415-1.213-1.106-1.213-.707 0-1.203.473-1.203 1.294Zm6.348-4.246v7.575h-1.339v-7.575h1.339Zm3.892 7.686c-1.713 0-2.76-1.135-2.76-2.918 0-1.753 1.062-2.948 2.69-2.948 1.398 0 2.596.877 2.596 2.87v.411h-3.958c.011.973.585 1.542 1.45 1.542.577 0 1.021-.251 1.202-.732l1.251.141c-.237.987-1.147 1.634-2.471 1.634Zm-1.428-3.488h2.671c-.008-.773-.526-1.335-1.295-1.335-.799 0-1.335.61-1.376 1.335Zm6.722 3.492c-1.084 0-1.901-.592-1.901-1.709 0-1.28 1.054-1.609 2.156-1.727 1.002-.107 1.406-.126 1.406-.511v-.022c0-.558-.341-.876-.962-.876-.655 0-1.032.333-1.165.721l-1.25-.178c.295-1.035 1.213-1.568 2.407-1.568 1.084 0 2.309.451 2.309 1.953v3.802h-1.288v-.78h-.044c-.244.477-.777.895-1.668.895Zm.347-.984c.807 0 1.317-.536 1.317-1.169v-.669c-.174.14-.876.229-1.228.277-.599.085-1.047.3-1.047.814 0 .492.4.747.958.747Zm3.999.869v-7.575h1.339v4.176h.092l2.042-2.282h1.565l-2.201 2.452 2.33 3.229h-1.601l-1.739-2.43-.488.522v1.908h-1.339Zm10.42-4.179-1.22.133c-.104-.374-.429-.71-1.047-.71-.558 0-.984.266-.98.651-.004.329.226.529.803.658l.969.207c1.072.233 1.594.729 1.598 1.539-.004 1.076-1.007 1.812-2.427 1.812-1.394 0-2.271-.617-2.437-1.66l1.305-.126c.115.51.514.777 1.128.777.637 0 1.058-.293 1.058-.681 0-.322-.244-.533-.765-.647l-.969-.204c-1.092-.225-1.602-.773-1.598-1.601-.004-1.051.928-1.724 2.297-1.724 1.331 0 2.101.614 2.285 1.576Zm6.688-1.502v1.036h-1.18v4.645h-1.339v-4.645h-.84v-1.036h.84v-.536c0-1.147.788-1.713 1.776-1.713.462 0 .843.096 1.017.155l-.27 1.036a1.737 1.737 0 0 0-.5-.081c-.499 0-.684.248-.684.691v.448h1.18Zm1.049 5.681v-5.681h1.339v5.681h-1.339Zm.673-6.487c-.429 0-.777-.326-.777-.725 0-.403.348-.729.777-.729.425 0 .773.326.773.729 0 .399-.348.725-.773.725Zm3.381 3.158v3.329h-1.339v-5.681h1.28v.965h.067c.259-.632.843-1.039 1.694-1.039 1.172 0 1.949.777 1.946 2.138v3.617h-1.339v-3.41c0-.758-.415-1.213-1.106-1.213-.707 0-1.203.473-1.203 1.294Zm7.117 3.429c-1.339 0-2.341-1.061-2.341-2.933 0-1.894 1.032-2.922 2.345-2.922 1.002 0 1.42.603 1.624 1.014h.055v-2.834h1.343v7.575h-1.317v-.895h-.081c-.211.415-.651.995-1.628.995Zm.374-1.098c.854 0 1.335-.74 1.335-1.842 0-1.103-.474-1.816-1.335-1.816-.892 0-1.35.758-1.35 1.816 0 1.065.466 1.842 1.35 1.842Zm6.594 1.109c-1.713 0-2.76-1.135-2.76-2.918 0-1.753 1.062-2.948 2.689-2.948 1.399 0 2.597.877 2.597 2.87v.411h-3.958c.011.973.585 1.542 1.45 1.542.577 0 1.021-.251 1.202-.732l1.251.141c-.237.987-1.147 1.634-2.471 1.634Zm-1.428-3.488h2.671c-.008-.773-.526-1.335-1.295-1.335-.799 0-1.335.61-1.376 1.335Zm6.426.048v3.329h-1.339v-5.681h1.28v.965h.066c.259-.632.844-1.039 1.694-1.039 1.173 0 1.95.777 1.946 2.138v3.617h-1.339v-3.41c0-.758-.414-1.213-1.106-1.213-.707 0-1.202.473-1.202 1.294Z"/></g></g><defs><radialGradient id="c" cx="0" cy="0" r="1" gradientTransform="matrix(-91.00646 44.78467 -35.48405 -72.10675 179.224 311.895)" gradientUnits="userSpaceOnUse"><stop stop-color="#9D62FC"/><stop offset="1" stop-color="#FD3296"/></radialGradient><clipPath id="b"><rect width="507.821" height="358.053" x="46" y="46" fill="#fff" rx="5.951"/></clipPath><filter id="a" width="531.625" height="381.858" x="34.098" y="38.065" color-interpolation-filters="sRGB" filterUnits="userSpaceOnUse"><feFlood flood-opacity="0" result="BackgroundImageFix"/><feColorMatrix in="SourceAlpha" result="hardAlpha" values="0 0 0 0 0 0 0 0 0 0 0 0 0 0 0 0 0 0 127 0"/><feOffset dy="3.967"/><feGaussianBlur stdDeviation="5.951"/><feComposite in2="hardAlpha" operator="out"/><feColorMatrix values="0 0 0 0 0 0 0 0 0 0 0 0 0 0 0 0 0 0 0.08 0"/><feBlend in2="BackgroundImageFix" result="effect1_dropShadow_1092_11202"/><feBlend in="SourceGraphic" in2="effect1_dropShadow_1092_11202" result="shape"/></filter></defs></svg>
