<svg xmlns="http://www.w3.org/2000/svg" width="475" height="621" fill="none" viewBox="0 0 475 621"><mask id="b" fill="#fff"><path d="M463.529 104.926c5.84 0 10.575 4.734 10.575 10.575v70.5c0 5.84-4.735 10.575-10.575 10.575v-91.65Z"/></mask><path fill="url(#a)" d="M463.529 104.926c5.84 0 10.575 4.734 10.575 10.575v70.5c0 5.84-4.735 10.575-10.575 10.575v-91.65Z"/><path fill="#BFBFC7" d="M463.529 196.576h-11.75v11.75h11.75v-11.75Zm0-91.65v-11.75h-11.75v11.75h11.75Zm-1.175 10.575v70.5h23.5v-70.5h-23.5Zm12.925 81.075v-91.65h-23.5v91.65h23.5Zm-12.925-10.575c0-.649.526-1.175 1.175-1.175v23.5c12.329 0 22.325-9.995 22.325-22.325h-23.5Zm1.175-69.325a1.175 1.175 0 0 1-1.175-1.175h23.5c0-12.33-9.996-22.325-22.325-22.325v23.5Z" mask="url(#b)"/><path fill="#F9F9FA" stroke="#BFBFC7" stroke-miterlimit="10" stroke-width="9.4" d="M403.391 5.3H60.761C30.13 5.3 5.3 30.13 5.3 60.76v697.952c0 30.63 24.83 55.461 55.46 55.461h342.631c30.63 0 55.46-24.831 55.46-55.461V60.76c0-30.63-24.83-55.46-55.46-55.46Z"/><path fill="url(#c)" d="m133.244 71.385-4.005-2.294-9.144-5.236-.284-.163a4.889 4.889 0 0 0-4.836 0l-.284.165-12.858 7.364-.284.165a4.805 4.805 0 0 0-2.418 4.158v15.382a4.81 4.81 0 0 0 2.418 4.159l13.146 7.528a2.025 2.025 0 0 0 2.755-.731 1.99 1.99 0 0 0-.738-2.734l-12.858-7.363a1.372 1.372 0 0 1-.692-1.19V75.875c.001-.492.265-.946.692-1.19l2.276-1.303 10.568-6.065a1.394 1.394 0 0 1 1.379 0l12.862 7.366c.425.244.688.697.69 1.188v14.732a1.373 1.373 0 0 1-.693 1.189l-4.351 2.491-2.196-3.31a10.337 10.337 0 0 0 3.483-7.735c0-5.736-4.703-10.403-10.486-10.403s-10.487 4.667-10.487 10.403c0 5.736 4.704 10.403 10.487 10.403a10.502 10.502 0 0 0 3.54-.612l3.335 5.03c.052.076.109.15.17.22l.035.035c.07.076.147.146.229.21.02.015.038.032.06.048.09.065.185.123.284.173l.069.03c.088.04.179.073.273.101l.062.02c.106.027.214.044.323.053h.182c.061 0 .122-.008.182-.013h.084c.115-.016.228-.042.339-.077.029-.009.058-.021.088-.033.088-.032.173-.07.256-.114.018-.01.04-.015.058-.027l6.289-3.594a4.81 4.81 0 0 0 2.418-4.164V75.542a4.803 4.803 0 0 0-2.418-4.157Zm-22.312 11.852a6.454 6.454 0 1 1 6.454 6.4 6.435 6.435 0 0 1-6.454-6.4Z"/><path fill="url(#d)" d="m133.244 71.385-4.005-2.294-9.144-5.236-.284-.163a4.889 4.889 0 0 0-4.836 0l-.284.165-12.858 7.364-.284.165a4.805 4.805 0 0 0-2.418 4.158v15.382a4.81 4.81 0 0 0 2.418 4.159l13.146 7.528a2.025 2.025 0 0 0 2.755-.731 1.99 1.99 0 0 0-.738-2.734l-12.858-7.363a1.372 1.372 0 0 1-.692-1.19V75.875c.001-.492.265-.946.692-1.19l2.276-1.303 10.568-6.065a1.394 1.394 0 0 1 1.379 0l12.862 7.366c.425.244.688.697.69 1.188v14.732a1.373 1.373 0 0 1-.693 1.189l-4.351 2.491-2.196-3.31a10.337 10.337 0 0 0 3.483-7.735c0-5.736-4.703-10.403-10.486-10.403s-10.487 4.667-10.487 10.403c0 5.736 4.704 10.403 10.487 10.403a10.502 10.502 0 0 0 3.54-.612l3.335 5.03c.052.076.109.15.17.22l.035.035c.07.076.147.146.229.21.02.015.038.032.06.048.09.065.185.123.284.173l.069.03c.088.04.179.073.273.101l.062.02c.106.027.214.044.323.053h.182c.061 0 .122-.008.182-.013h.084c.115-.016.228-.042.339-.077.029-.009.058-.021.088-.033.088-.032.173-.07.256-.114.018-.01.04-.015.058-.027l6.289-3.594a4.81 4.81 0 0 0 2.418-4.164V75.542a4.803 4.803 0 0 0-2.418-4.157Zm-22.312 11.852a6.454 6.454 0 1 1 6.454 6.4 6.435 6.435 0 0 1-6.454-6.4Z"/><path fill="url(#e)" d="m133.242 71.386-4.005-2.294-5.587-3.198a4.308 4.308 0 0 0-4.16-.062l-2.795 1.485a1.396 1.396 0 0 1 1.38 0l12.862 7.366c.425.244.688.697.69 1.187v14.732a1.37 1.37 0 0 1-.693 1.19l-4.351 2.491.679 1.085a2.844 2.844 0 0 0 3.827.955l2.153-1.232a4.796 4.796 0 0 0 2.418-4.164V75.543a4.793 4.793 0 0 0-2.418-4.157Z"/><path fill="url(#f)" d="M131.627 75.874v7.148h4.033v-7.479a4.793 4.793 0 0 0-2.418-4.157l-4.005-2.294-5.587-3.198a4.308 4.308 0 0 0-4.16-.062l-2.795 1.485a1.4 1.4 0 0 1 1.38 0l12.862 7.366c.426.245.689.7.69 1.191Z"/><path fill="url(#g)" d="M131.627 84.172v6.43a1.37 1.37 0 0 1-.693 1.189l-4.351 2.492.679 1.085a2.844 2.844 0 0 0 3.827.954l2.154-1.231a4.798 4.798 0 0 0 2.418-4.165v-6.754h-4.034Z" opacity=".9"/><path fill="url(#h)" d="m126.276 93.815-1.887-2.844a10.498 10.498 0 0 1-3.464 2.056l2.007 3.028a88.824 88.824 0 0 0 3.344-2.24Z" opacity=".9"/><path fill="#000" d="M152.438 93.31V73.232h4.296l6.225 11.34 6.196-11.34h4.325V93.31h-4.325V80.8l-6.196 11.34-6.225-11.34V93.31h-4.296Zm32.266.35c-4.501 0-8.271-3.623-8.271-7.92 0-4.296 3.77-7.89 8.271-7.89 4.471 0 8.212 3.594 8.212 7.89 0 4.297-3.741 7.92-8.212 7.92Zm0-3.594c2.25 0 4.15-1.987 4.15-4.326 0-2.337-1.9-4.296-4.15-4.296-2.28 0-4.18 1.959-4.18 4.296 0 2.339 1.9 4.326 4.18 4.326Zm10.218 3.244V90.3l7.599-8.476h-7.394V78.2h12.946v3.01l-7.598 8.476h7.657v3.624h-13.21Zm18.151-17.185a2.326 2.326 0 0 1-2.338-2.338c0-1.198 1.023-2.28 2.338-2.28 1.257 0 2.28 1.082 2.28 2.28 0 1.286-1.023 2.338-2.28 2.338Zm-2.162 17.185V78.2h4.267v15.11h-4.267Zm7.783 0V72.88h4.267V93.31h-4.267Zm7.782 0V72.88h4.267V93.31h-4.267Zm14.534-15.46c3.945 0 6.634 2.484 6.634 6.43v9.03h-4.121v-1.52c-1.081 1.228-2.805 1.87-4.442 1.87-3.215 0-5.699-1.928-5.699-4.822 0-2.98 2.777-5.026 6.284-5.026 1.227 0 2.571.263 3.857.76v-.293c0-1.607-.993-3.01-3.477-3.01-1.403 0-2.718.468-3.917 1.081l-1.432-2.834c2.134-1.082 4.209-1.666 6.313-1.666Zm-.964 12.859c1.636 0 3.185-.76 3.477-2.163v-1.403a9.557 9.557 0 0 0-3.244-.555c-1.549 0-2.776.906-2.776 2.134 0 1.227 1.081 1.987 2.543 1.987Zm19.612 2.6V73.233h2.951l7.044 13.122 7.043-13.122h2.952V93.31h-2.952V79.019l-7.043 13.122-7.044-13.122v14.29h-2.951Zm31.182.352c-4.325 0-7.978-3.624-7.978-7.92 0-4.297 3.653-7.891 7.978-7.891 4.296 0 7.92 3.594 7.92 7.89 0 4.297-3.624 7.92-7.92 7.92Zm0-2.514c2.718 0 5.027-2.455 5.027-5.407 0-2.922-2.309-5.377-5.027-5.377-2.776 0-5.085 2.455-5.085 5.377 0 2.952 2.309 5.407 5.085 5.407Zm18.365-13.297c3.332 0 5.67 2.425 5.67 5.845v9.615h-2.835v-9.118c0-2.25-1.432-3.829-3.478-3.829-2.104 0-3.916 1.374-4.15 3.156v9.79h-2.893V78.2h2.893v2.192c.906-1.49 2.748-2.542 4.793-2.542Zm10.615-2.163a1.758 1.758 0 0 1-1.753-1.754c0-.906.759-1.724 1.753-1.724.935 0 1.724.819 1.724 1.724 0 .936-.789 1.754-1.724 1.754Zm-1.461 17.623V78.2h2.893v15.11h-2.893Zm13.525-2.718 1.052 1.987a4.86 4.86 0 0 1-3.01 1.082c-2.338 0-3.975-1.695-3.975-4.121v-8.885h-2.28V78.2h2.28v-4.15h2.835v4.15h3.565v2.455h-3.565v8.68c0 1.052.701 1.812 1.549 1.812.643 0 1.227-.234 1.549-.555Zm10.535 3.069c-4.326 0-7.979-3.624-7.979-7.92 0-4.297 3.653-7.891 7.979-7.891 4.296 0 7.92 3.594 7.92 7.89 0 4.297-3.624 7.92-7.92 7.92Zm0-2.514c2.718 0 5.027-2.455 5.027-5.407 0-2.922-2.309-5.377-5.027-5.377-2.777 0-5.085 2.455-5.085 5.377 0 2.952 2.308 5.407 5.085 5.407Zm13.718-10.053c.965-1.988 3.01-3.244 5.612-3.244v2.513c-3.128 0-5.349 1.724-5.612 4.355v8.592h-2.893V78.2h2.893v2.894Z"/><path fill="#fff" d="M28.502 142.79a5.65 5.65 0 0 1 5.65-5.649H429.89a5.65 5.65 0 0 1 5.65 5.649v486.072a5.65 5.65 0 0 1-5.65 5.65H34.151a5.65 5.65 0 0 1-5.65-5.65V142.79Z"/><path stroke="#000" stroke-opacity=".1" stroke-width=".706" d="M34.151 136.788a6.002 6.002 0 0 0-6.002 6.002v486.072a6.003 6.003 0 0 0 6.002 6.003h395.74a6.003 6.003 0 0 0 6.003-6.003V142.79a6.003 6.003 0 0 0-6.003-6.002H34.151Z"/><path fill="#6D6D6E" d="M143.968 517.798v-11.887h4.016c.933 0 1.695.169 2.287.505.596.333 1.037.784 1.323 1.353.287.568.43 1.203.43 1.903 0 .701-.143 1.337-.43 1.91-.282.572-.719 1.029-1.311 1.369-.592.337-1.351.505-2.276.505h-2.878v-1.276h2.832c.638 0 1.151-.111 1.538-.331.387-.221.667-.519.842-.894.178-.379.267-.807.267-1.283 0-.476-.089-.901-.267-1.277a1.912 1.912 0 0 0-.848-.882c-.391-.216-.909-.325-1.555-.325h-2.531v10.61h-1.439Zm12.812.209a3.618 3.618 0 0 1-1.538-.32 2.64 2.64 0 0 1-1.097-.934c-.271-.41-.406-.905-.406-1.486 0-.511.1-.925.302-1.242.201-.321.47-.572.806-.754a4.236 4.236 0 0 1 1.115-.407c.41-.092.822-.166 1.236-.22.542-.07.981-.122 1.317-.157.341-.039.589-.102.743-.191.159-.089.238-.244.238-.465v-.046c0-.573-.156-1.018-.47-1.335-.309-.317-.78-.476-1.41-.476-.654 0-1.167.143-1.538.43-.372.286-.633.592-.784.917l-1.3-.465c.232-.541.542-.963.929-1.265a3.473 3.473 0 0 1 1.277-.638 5.292 5.292 0 0 1 1.369-.186c.287 0 .616.035.987.104a3.16 3.16 0 0 1 1.085.412c.352.209.645.525.877.946.232.422.348.987.348 1.695v5.874h-1.37v-1.207h-.069c-.093.193-.248.4-.465.621a2.69 2.69 0 0 1-.864.563c-.36.154-.799.232-1.318.232Zm.209-1.231c.542 0 .998-.106 1.37-.319a2.175 2.175 0 0 0 1.137-1.886v-1.254c-.058.07-.185.134-.383.192a6.612 6.612 0 0 1-.673.145 35.138 35.138 0 0 1-1.312.174 5.24 5.24 0 0 0-.998.226 1.727 1.727 0 0 0-.743.459c-.186.201-.278.476-.278.824 0 .476.176.836.528 1.079.356.24.806.36 1.352.36Zm12.692-5.897-1.231.349a2.265 2.265 0 0 0-.342-.598 1.665 1.665 0 0 0-.604-.488c-.255-.127-.582-.191-.981-.191-.545 0-1 .126-1.364.377-.359.248-.539.563-.539.946 0 .341.123.61.371.807.248.197.635.362 1.161.493l1.323.325c.797.194 1.391.49 1.782.888.391.395.586.904.586 1.527 0 .51-.147.967-.441 1.369-.29.403-.696.72-1.219.952-.522.232-1.13.348-1.822.348-.909 0-1.662-.197-2.258-.592-.596-.394-.973-.971-1.132-1.729l1.3-.325c.124.48.358.84.703 1.079.348.24.803.36 1.364.36.638 0 1.145-.135 1.52-.406.379-.275.569-.604.569-.987 0-.309-.108-.568-.325-.777-.217-.213-.549-.372-.998-.476l-1.486-.349c-.816-.193-1.416-.493-1.799-.899-.379-.41-.569-.923-.569-1.538 0-.503.141-.948.424-1.335a2.877 2.877 0 0 1 1.166-.911c.495-.221 1.057-.331 1.683-.331.883 0 1.575.193 2.078.58.507.387.867.898 1.08 1.532Zm8.539 0-1.231.349a2.265 2.265 0 0 0-.342-.598 1.665 1.665 0 0 0-.604-.488c-.255-.127-.582-.191-.981-.191-.545 0-1 .126-1.364.377-.359.248-.539.563-.539.946 0 .341.123.61.371.807.248.197.635.362 1.161.493l1.323.325c.797.194 1.391.49 1.782.888.391.395.586.904.586 1.527 0 .51-.147.967-.441 1.369-.29.403-.696.72-1.219.952-.522.232-1.13.348-1.822.348-.909 0-1.662-.197-2.258-.592-.596-.394-.973-.971-1.132-1.729l1.3-.325c.124.48.358.84.703 1.079.348.24.803.36 1.364.36.638 0 1.145-.135 1.52-.406.379-.275.569-.604.569-.987 0-.309-.108-.568-.325-.777-.217-.213-.549-.372-.998-.476l-1.486-.349c-.817-.193-1.416-.493-1.799-.899-.379-.41-.569-.923-.569-1.538 0-.503.141-.948.424-1.335a2.877 2.877 0 0 1 1.166-.911c.495-.221 1.056-.331 1.683-.331.883 0 1.575.193 2.078.58.507.387.867.898 1.08 1.532Zm4.244 6.919-2.716-8.915h1.439l1.927 6.825h.093l1.903-6.825h1.463l1.88 6.802h.093l1.927-6.802h1.439l-2.716 8.915h-1.346l-1.95-6.849h-.14l-1.95 6.849h-1.346Zm14.578.185c-.805 0-1.511-.191-2.119-.574-.603-.383-1.075-.919-1.416-1.608-.337-.689-.505-1.493-.505-2.414 0-.929.168-1.739.505-2.432.341-.693.813-1.23 1.416-1.614.608-.383 1.314-.574 2.119-.574.804 0 1.509.191 2.112.574.608.384 1.08.921 1.416 1.614.341.693.511 1.503.511 2.432 0 .921-.17 1.725-.511 2.414-.336.689-.808 1.225-1.416 1.608-.603.383-1.308.574-2.112.574Zm0-1.23c.611 0 1.114-.157 1.509-.47a2.78 2.78 0 0 0 .876-1.236c.19-.511.284-1.064.284-1.66 0-.596-.094-1.151-.284-1.666a2.812 2.812 0 0 0-.876-1.248c-.395-.317-.898-.476-1.509-.476-.612 0-1.115.159-1.509.476a2.806 2.806 0 0 0-.877 1.248 4.798 4.798 0 0 0-.284 1.666c0 .596.095 1.149.284 1.66.19.51.482.923.877 1.236.394.313.897.47 1.509.47Zm-1.672-9.356a.906.906 0 0 1-.65-.278.904.904 0 0 1-.278-.65c0-.267.092-.488.278-.662a.923.923 0 0 1 .65-.267c.267 0 .488.089.662.267a.887.887 0 0 1 .267.662c0 .243-.089.46-.267.65a.87.87 0 0 1-.662.278Zm3.343 0a.906.906 0 0 1-.65-.278.904.904 0 0 1-.278-.65c0-.267.092-.488.278-.662a.923.923 0 0 1 .65-.267c.267 0 .488.089.662.267a.887.887 0 0 1 .267.662c0 .243-.089.46-.267.65a.87.87 0 0 1-.662.278Zm4.459 10.401v-8.915h1.323v1.346h.093c.163-.441.457-.799.882-1.073a2.597 2.597 0 0 1 1.44-.412c.1 0 .226.002.377.005.151.004.265.01.342.018v1.393a3.726 3.726 0 0 0-.319-.052 3.031 3.031 0 0 0-.516-.041c-.434 0-.821.091-1.161.273a1.995 1.995 0 0 0-1.091 1.816v5.642h-1.37Zm10.517-8.915v1.161h-4.62v-1.161h4.62Zm-3.274-2.136h1.37v8.497c0 .387.056.677.168.871a.875.875 0 0 0 .441.383c.182.062.374.093.575.093.151 0 .275-.008.371-.024l.233-.046.278 1.23a2.76 2.76 0 0 1-.389.105 2.9 2.9 0 0 1-.632.058c-.387 0-.766-.083-1.138-.25a2.265 2.265 0 0 1-.917-.76c-.24-.341-.36-.77-.36-1.289v-8.868Zm8.976 11.236c-.859 0-1.6-.189-2.223-.568a3.812 3.812 0 0 1-1.433-1.602c-.333-.689-.5-1.49-.5-2.403s.167-1.718.5-2.414c.336-.701.804-1.246 1.404-1.637.604-.395 1.308-.592 2.113-.592.464 0 .923.077 1.375.232.453.155.865.406 1.236.755.372.344.668.8.888 1.369.221.569.331 1.269.331 2.101v.581h-6.872v-1.184h5.479c0-.503-.1-.952-.301-1.347a2.272 2.272 0 0 0-.848-.934c-.364-.229-.793-.343-1.288-.343-.546 0-1.018.136-1.416.407a2.675 2.675 0 0 0-.912 1.044c-.212.43-.319.89-.319 1.382v.789c0 .673.116 1.244.348 1.712.236.464.563.818.981 1.062.418.24.904.36 1.457.36.36 0 .685-.05.975-.151.294-.104.548-.259.76-.464.213-.209.378-.468.494-.778l1.323.372a2.938 2.938 0 0 1-.702 1.184 3.435 3.435 0 0 1-1.219.789 4.515 4.515 0 0 1-1.631.278Zm5.775-.185v-8.915h1.323v1.346h.093c.163-.441.457-.799.882-1.073a2.597 2.597 0 0 1 1.44-.412c.1 0 .226.002.377.005.151.004.265.01.342.018v1.393a3.802 3.802 0 0 0-.319-.052 3.04 3.04 0 0 0-.516-.041c-.434 0-.821.091-1.161.273a1.995 1.995 0 0 0-1.091 1.816v5.642h-1.37Z"/><rect width="11.236" height="11.236" x="122.099" y="506.128" fill="#9059FF" rx="2.043"/><path fill="#6D6D6E" d="M326.856 516.382v-1.184l5.224-8.265h.859v1.834h-.581l-3.946 6.245v.093h7.034v1.277h-8.59Zm5.595 2.437V506.933h1.37v11.886h-1.37Zm6.215-8.914 2.135 3.644 2.136-3.644h1.579l-2.879 4.457 2.879 4.457h-1.579l-2.136-3.459-2.135 3.459h-1.579l2.832-4.457-2.832-4.457h1.579ZM143.968 547.422v-11.887h1.439v5.897h.14l5.339-5.897h1.881l-4.992 5.363 4.992 6.524h-1.742l-4.132-5.526-1.486 1.672v3.854h-1.439Zm10.476 0v-8.915h1.323v1.346h.093c.163-.441.457-.799.882-1.073a2.597 2.597 0 0 1 1.44-.412c.1 0 .226.002.377.005.151.004.265.01.342.018v1.393a3.726 3.726 0 0 0-.319-.052 3.146 3.146 0 0 0-.516-.041c-.434 0-.821.091-1.161.273a1.995 1.995 0 0 0-1.091 1.816v5.642h-1.37Zm9.547.185c-.859 0-1.6-.189-2.223-.568a3.819 3.819 0 0 1-1.433-1.602c-.333-.689-.499-1.49-.499-2.403s.166-1.718.499-2.414c.337-.701.805-1.246 1.404-1.637.604-.395 1.308-.592 2.113-.592.464 0 .923.077 1.376.232.452.155.864.406 1.236.755.371.344.667.8.888 1.369.22.569.331 1.269.331 2.101v.581h-6.872v-1.184h5.479c0-.503-.101-.952-.302-1.347a2.276 2.276 0 0 0-.847-.934c-.364-.229-.794-.343-1.289-.343-.545 0-1.018.136-1.416.407a2.672 2.672 0 0 0-.911 1.044c-.213.43-.319.89-.319 1.382v.789c0 .673.116 1.244.348 1.712.236.464.563.818.981 1.062.417.24.903.36 1.456.36.36 0 .685-.05.975-.151.294-.104.548-.259.761-.464.213-.209.377-.468.493-.778l1.323.372a2.938 2.938 0 0 1-.702 1.184 3.435 3.435 0 0 1-1.219.789c-.483.186-1.027.278-1.631.278Zm9.142 0c-.743 0-1.399-.187-1.968-.563-.569-.379-1.014-.913-1.335-1.601-.321-.693-.482-1.511-.482-2.455 0-.937.161-1.749.482-2.438.321-.689.768-1.221 1.341-1.596.572-.375 1.234-.563 1.985-.563.58 0 1.039.097 1.375.29.341.19.6.406.778.65.182.24.323.437.424.592h.116v-4.388h1.369v11.887h-1.323v-1.37h-.162a8.603 8.603 0 0 1-.43.615c-.186.244-.451.463-.795.656-.344.19-.803.284-1.375.284Zm.185-1.23c.55 0 1.014-.143 1.393-.429.379-.291.668-.691.865-1.202.197-.514.296-1.108.296-1.782 0-.665-.097-1.247-.29-1.747-.194-.503-.48-.893-.859-1.172-.379-.282-.848-.424-1.405-.424-.58 0-1.064.149-1.451.447-.383.294-.671.695-.865 1.202a4.788 4.788 0 0 0-.284 1.694c0 .635.097 1.211.29 1.73.198.515.488.925.871 1.23.387.302.867.453 1.439.453Zm6.599 1.045v-8.915h1.37v8.915h-1.37Zm.697-10.401a.975.975 0 0 1-.691-.273.872.872 0 0 1-.284-.655c0-.256.094-.474.284-.656a.975.975 0 0 1 .691-.273c.267 0 .495.091.685.273.193.182.29.4.29.656a.867.867 0 0 1-.29.655.954.954 0 0 1-.685.273Zm7.059 1.486v1.161h-4.62v-1.161h4.62Zm-3.274-2.136h1.37v8.497c0 .387.056.677.168.871a.875.875 0 0 0 .441.383c.182.062.374.093.575.093.151 0 .275-.008.371-.024l.233-.046.278 1.23a2.76 2.76 0 0 1-.389.105 2.9 2.9 0 0 1-.632.058c-.387 0-.766-.083-1.138-.25a2.265 2.265 0 0 1-.917-.76c-.24-.341-.36-.77-.36-1.289v-8.868Zm6.802 7.801-.023-1.695h.279l3.9-3.97h1.695l-4.156 4.202h-.116l-1.579 1.463Zm-1.276 3.25v-11.887h1.369v11.887h-1.369Zm5.664 0-3.482-4.411.975-.952 4.248 5.363h-1.741Zm5.849.209a3.621 3.621 0 0 1-1.538-.32 2.64 2.64 0 0 1-1.097-.934c-.271-.41-.406-.905-.406-1.486 0-.51.1-.925.302-1.242.201-.321.47-.572.806-.754a4.236 4.236 0 0 1 1.115-.407c.41-.092.822-.166 1.236-.22.542-.07.981-.122 1.317-.157.341-.039.589-.102.743-.191.159-.089.238-.244.238-.465v-.046c0-.573-.156-1.018-.47-1.335-.309-.317-.779-.476-1.41-.476-.654 0-1.167.143-1.538.43-.372.286-.633.592-.784.917l-1.3-.465c.232-.541.542-.963.929-1.265a3.473 3.473 0 0 1 1.277-.638 5.292 5.292 0 0 1 1.369-.186c.287 0 .616.035.987.104a3.16 3.16 0 0 1 1.085.412c.353.209.645.525.877.946.232.422.348.987.348 1.695v5.874h-1.37v-1.207h-.069c-.093.193-.248.4-.465.621a2.69 2.69 0 0 1-.864.563c-.36.154-.799.232-1.318.232Zm.209-1.231c.542 0 .998-.106 1.37-.319.375-.213.658-.487.847-.824.194-.337.29-.691.29-1.062v-1.254c-.058.07-.185.134-.383.192a6.612 6.612 0 0 1-.673.145 34.229 34.229 0 0 1-1.312.174 5.24 5.24 0 0 0-.998.226 1.727 1.727 0 0 0-.743.459c-.186.201-.278.476-.278.824 0 .476.176.836.528 1.079.356.24.806.36 1.352.36Zm6.377 1.022v-8.915h1.323v1.346h.093c.163-.441.457-.799.882-1.073a2.597 2.597 0 0 1 1.44-.412c.1 0 .226.002.377.005.151.004.265.01.342.018v1.393a3.726 3.726 0 0 0-.319-.052 3.137 3.137 0 0 0-.516-.041c-.434 0-.821.091-1.161.273a2.048 2.048 0 0 0-.801.743c-.193.313-.29.671-.29 1.073v5.642h-1.37Zm10.517-8.915v1.161h-4.62v-1.161h4.62Zm-3.274-2.136h1.37v8.497c0 .387.056.677.168.871a.875.875 0 0 0 .441.383c.182.062.374.093.575.093.151 0 .275-.008.372-.024l.232-.046.278 1.23a2.76 2.76 0 0 1-.389.105 2.9 2.9 0 0 1-.632.058c-.387 0-.766-.083-1.138-.25a2.265 2.265 0 0 1-.917-.76c-.24-.341-.36-.77-.36-1.289v-8.868Zm8.976 11.236c-.859 0-1.6-.189-2.223-.568a3.812 3.812 0 0 1-1.433-1.602c-.333-.689-.5-1.49-.5-2.403s.167-1.718.5-2.414c.336-.701.804-1.246 1.404-1.637.604-.395 1.308-.592 2.113-.592.464 0 .923.077 1.375.232.453.155.865.406 1.237.755.371.344.667.8.888 1.369.22.569.33 1.269.33 2.101v.581h-6.871v-1.184h5.478c0-.503-.1-.952-.301-1.347a2.279 2.279 0 0 0-.848-.934c-.363-.229-.793-.343-1.288-.343-.546 0-1.018.136-1.416.407a2.675 2.675 0 0 0-.912 1.044c-.212.43-.319.89-.319 1.382v.789c0 .673.116 1.244.348 1.712.236.464.563.818.981 1.062.418.24.904.36 1.457.36.36 0 .685-.05.975-.151.294-.104.548-.259.76-.464.213-.209.378-.468.494-.778l1.323.372a2.938 2.938 0 0 1-.702 1.184 3.435 3.435 0 0 1-1.219.789 4.515 4.515 0 0 1-1.631.278Zm7.145-5.548v5.363h-1.37v-8.915h1.323v1.393h.116c.209-.453.527-.817.952-1.091.426-.279.975-.418 1.648-.418.604 0 1.132.124 1.585.371.453.244.805.616 1.056 1.115.252.495.377 1.122.377 1.88v5.665h-1.369v-5.572c0-.7-.182-1.246-.546-1.637-.364-.394-.863-.592-1.497-.592a2.39 2.39 0 0 0-1.173.285c-.34.189-.609.466-.806.83-.198.363-.296.804-.296 1.323Zm9.56 0v5.363h-1.37v-8.915h1.324v1.393h.116c.209-.453.526-.817.952-1.091.425-.279.975-.418 1.648-.418.604 0 1.132.124 1.584.371.453.244.805.616 1.057 1.115.251.495.377 1.122.377 1.88v5.665h-1.37v-5.572c0-.7-.182-1.246-.545-1.637-.364-.394-.863-.592-1.498-.592-.437 0-.828.095-1.172.285-.341.189-.61.466-.807.83-.197.363-.296.804-.296 1.323Zm13.809 1.718v-5.27h1.37v8.915h-1.37v-1.509h-.093a2.936 2.936 0 0 1-.975 1.155c-.441.313-.998.47-1.671.47-.558 0-1.053-.122-1.486-.366-.434-.247-.774-.619-1.022-1.114-.247-.499-.371-1.128-.371-1.886v-5.665h1.37v5.572c0 .65.181 1.168.545 1.555.368.387.836.581 1.405.581.34 0 .687-.088 1.039-.262.356-.174.654-.441.893-.801.244-.359.366-.818.366-1.375Zm3.879 3.645v-8.915h1.323v1.393h.116a2.24 2.24 0 0 1 .899-1.109c.414-.267.912-.4 1.492-.4.588 0 1.078.133 1.468.4.395.263.703.633.923 1.109h.093a2.596 2.596 0 0 1 1.027-1.097c.457-.275 1.005-.412 1.643-.412.797 0 1.449.249 1.956.749.507.495.76 1.267.76 2.315v5.967h-1.37v-5.967c0-.657-.179-1.128-.539-1.41a2.002 2.002 0 0 0-1.271-.424c-.627 0-1.113.19-1.457.569-.345.375-.517.851-.517 1.428v5.804h-1.393v-6.106c0-.507-.164-.915-.493-1.225-.329-.313-.753-.47-1.271-.47-.356 0-.689.095-.998.285a2.132 2.132 0 0 0-.743.789 2.329 2.329 0 0 0-.279 1.155v5.572h-1.369Zm14.205 0v-8.915h1.323v1.393h.116c.186-.476.486-.846.9-1.109.414-.267.911-.4 1.491-.4.588 0 1.078.133 1.469.4.394.263.702.633.922 1.109h.093a2.596 2.596 0 0 1 1.027-1.097c.457-.275 1.005-.412 1.643-.412.797 0 1.449.249 1.956.749.507.495.76 1.267.76 2.315v5.967h-1.37v-5.967c0-.657-.179-1.128-.539-1.41a2.002 2.002 0 0 0-1.271-.424c-.627 0-1.113.19-1.457.569-.344.375-.517.851-.517 1.428v5.804h-1.393v-6.106c0-.507-.164-.915-.493-1.225-.329-.313-.752-.47-1.271-.47-.356 0-.689.095-.998.285a2.132 2.132 0 0 0-.743.789 2.329 2.329 0 0 0-.279 1.155v5.572h-1.369Zm17.942.185c-.859 0-1.6-.189-2.223-.568a3.812 3.812 0 0 1-1.433-1.602c-.333-.689-.499-1.49-.499-2.403s.166-1.718.499-2.414c.336-.701.805-1.246 1.404-1.637.604-.395 1.308-.592 2.113-.592.464 0 .923.077 1.376.232.452.155.864.406 1.236.755.371.344.667.8.888 1.369.22.569.331 1.269.331 2.101v.581h-6.872v-1.184h5.479c0-.503-.101-.952-.302-1.347a2.272 2.272 0 0 0-.848-.934c-.363-.229-.793-.343-1.288-.343-.546 0-1.018.136-1.416.407a2.664 2.664 0 0 0-.911 1.044c-.213.43-.32.89-.32 1.382v.789c0 .673.117 1.244.349 1.712.236.464.563.818.981 1.062.417.24.903.36 1.456.36.36 0 .685-.05.975-.151.294-.104.548-.259.761-.464.212-.209.377-.468.493-.778l1.323.372a2.938 2.938 0 0 1-.702 1.184 3.435 3.435 0 0 1-1.219.789c-.483.186-1.027.278-1.631.278Zm5.775-.185v-8.915h1.323v1.346h.093c.163-.441.457-.799.883-1.073a2.592 2.592 0 0 1 1.439-.412c.1 0 .226.002.377.005.151.004.265.01.343.018v1.393a3.855 3.855 0 0 0-.32-.052 3.137 3.137 0 0 0-.516-.041c-.434 0-.82.091-1.161.273a2.048 2.048 0 0 0-.801.743c-.193.313-.29.671-.29 1.073v5.642h-1.37Zm7.451-5.363v5.363h-1.37v-8.915h1.324v1.393h.116c.209-.453.526-.817.951-1.091.426-.279.975-.418 1.649-.418.603 0 1.131.124 1.584.371.453.244.805.616 1.057 1.115.251.495.377 1.122.377 1.88v5.665h-1.37v-5.572c0-.7-.182-1.246-.546-1.637-.363-.394-.862-.592-1.497-.592-.437 0-.828.095-1.172.285-.341.189-.61.466-.807.83-.197.363-.296.804-.296 1.323Z"/><rect width="11.236" height="11.236" x="122.099" y="535.751" fill="#C689FF" rx="2.043"/><path fill="#6D6D6E" d="M332.151 547.584c-.766 0-1.449-.131-2.049-.394-.596-.264-1.07-.629-1.422-1.097a2.944 2.944 0 0 1-.568-1.643h1.462c.031.383.163.714.395.993.232.274.536.487.911.638.375.151.791.226 1.248.226.511 0 .963-.089 1.358-.267.395-.178.704-.425.929-.743a1.86 1.86 0 0 0 .336-1.102c0-.438-.108-.822-.325-1.155-.217-.337-.534-.6-.952-.79-.418-.189-.928-.284-1.532-.284h-.952v-1.277h.952c.472 0 .886-.085 1.242-.255.36-.17.64-.41.842-.72.205-.309.307-.673.307-1.091 0-.402-.089-.753-.267-1.051a1.827 1.827 0 0 0-.754-.696c-.321-.166-.701-.25-1.138-.25a3 3 0 0 0-1.161.227 2.175 2.175 0 0 0-.882.644 1.677 1.677 0 0 0-.371 1.01h-1.393a2.83 2.83 0 0 1 .563-1.637 3.55 3.55 0 0 1 1.381-1.103 4.468 4.468 0 0 1 1.886-.394c.736 0 1.366.149 1.893.447.526.294.93.683 1.213 1.166.282.484.423 1.006.423 1.567 0 .67-.176 1.24-.528 1.712-.348.473-.822.799-1.422.981v.093c.751.124 1.337.443 1.759.958.421.511.632 1.143.632 1.898 0 .646-.176 1.226-.528 1.741a3.581 3.581 0 0 1-1.428 1.207c-.603.294-1.29.441-2.06.441Zm7.435-9.077 2.136 3.645 2.135-3.645h1.579l-2.879 4.457 2.879 4.458h-1.579l-2.135-3.459-2.136 3.459h-1.579l2.832-4.458-2.832-4.457h1.579ZM143.968 576.023v-11.886h4.156c.828 0 1.51.143 2.048.429.538.283.939.664 1.202 1.144.263.475.394 1.004.394 1.584 0 .511-.091.933-.272 1.265a2.127 2.127 0 0 1-.708.79 3.246 3.246 0 0 1-.947.429v.116c.364.023.73.151 1.097.383.368.232.676.565.923.998.248.434.372.964.372 1.591 0 .596-.136 1.132-.407 1.607-.27.476-.698.854-1.282 1.132-.585.279-1.345.418-2.281.418h-4.295Zm1.439-1.277h2.856c.94 0 1.607-.182 2.002-.545.399-.368.598-.813.598-1.335 0-.403-.103-.774-.308-1.115a2.227 2.227 0 0 0-.876-.824c-.379-.209-.828-.313-1.347-.313h-2.925v4.132Zm0-5.386h2.67c.433 0 .824-.085 1.172-.255.353-.17.631-.41.836-.72.209-.309.314-.673.314-1.091 0-.522-.182-.965-.546-1.329-.364-.368-.94-.551-1.729-.551h-2.717v3.946Zm11.628 6.872a3.62 3.62 0 0 1-1.538-.319 2.642 2.642 0 0 1-1.097-.935c-.27-.41-.406-.905-.406-1.485 0-.511.101-.925.302-1.242.201-.322.47-.573.807-.755a4.228 4.228 0 0 1 1.114-.406c.41-.093.822-.167 1.236-.221.542-.069.981-.122 1.318-.156.34-.039.588-.103.743-.192.158-.089.238-.244.238-.464v-.047c0-.572-.157-1.017-.47-1.335-.31-.317-.78-.476-1.411-.476-.654 0-1.166.144-1.538.43-.371.286-.632.592-.783.917l-1.3-.464c.232-.542.541-.964.928-1.266a3.496 3.496 0 0 1 1.277-.638 5.293 5.293 0 0 1 1.37-.186c.286 0 .615.035.986.105.376.065.737.203 1.086.412.352.209.644.524.876.946.232.422.348.986.348 1.695v5.873h-1.369v-1.207h-.07c-.093.193-.248.4-.464.621-.217.22-.505.408-.865.563-.36.155-.799.232-1.318.232Zm.209-1.23c.542 0 .999-.107 1.37-.32.375-.212.658-.487.847-.824.194-.336.291-.69.291-1.062v-1.254c-.058.07-.186.134-.383.192a6.375 6.375 0 0 1-.674.145 29.004 29.004 0 0 1-1.311.174 5.25 5.25 0 0 0-.999.227c-.305.1-.553.253-.743.458-.185.201-.278.476-.278.824 0 .476.176.836.528 1.08.356.24.807.36 1.352.36Zm7.747-4.342v5.363h-1.37v-8.915h1.324v1.393h.116a2.55 2.55 0 0 1 .952-1.091c.425-.278.975-.418 1.648-.418.603 0 1.132.124 1.584.372.453.243.805.615 1.057 1.114.251.495.377 1.122.377 1.88v5.665h-1.37v-5.572c0-.7-.182-1.246-.545-1.636-.364-.395-.863-.592-1.498-.592-.437 0-.828.094-1.172.284-.341.19-.61.466-.807.83-.197.364-.296.805-.296 1.323Zm9.468 2.113-.024-1.695h.279l3.9-3.97h1.695l-4.156 4.202h-.116l-1.578 1.463Zm-1.277 3.25v-11.886h1.37v11.886h-1.37Zm5.664 0-3.482-4.411.975-.952 4.249 5.363h-1.742Zm4.503-3.25-.023-1.695h.278l3.9-3.97h1.695l-4.155 4.202h-.117l-1.578 1.463Zm-1.277 3.25v-11.886h1.37v11.886h-1.37Zm5.665 0-3.483-4.411.975-.952 4.249 5.363h-1.741Zm6.48.186c-.805 0-1.511-.192-2.119-.575-.603-.383-1.075-.919-1.416-1.607-.337-.689-.505-1.494-.505-2.415 0-.929.168-1.739.505-2.432.341-.692.813-1.23 1.416-1.613.608-.383 1.314-.575 2.119-.575.804 0 1.509.192 2.112.575.608.383 1.08.921 1.416 1.613.341.693.511 1.503.511 2.432 0 .921-.17 1.726-.511 2.415-.336.688-.808 1.224-1.416 1.607-.603.383-1.308.575-2.112.575Zm0-1.231c.611 0 1.114-.156 1.509-.47.394-.313.686-.725.876-1.236.19-.511.284-1.064.284-1.66 0-.596-.094-1.151-.284-1.666a2.814 2.814 0 0 0-.876-1.247c-.395-.318-.898-.476-1.509-.476-.612 0-1.115.158-1.509.476a2.808 2.808 0 0 0-.877 1.247 4.798 4.798 0 0 0-.284 1.666c0 .596.095 1.149.284 1.66.19.511.482.923.877 1.236.394.314.897.47 1.509.47Zm7.5-4.318v5.363h-1.37v-8.915h1.323v1.393h.116c.209-.452.527-.816.952-1.091.426-.278.975-.418 1.648-.418.604 0 1.132.124 1.585.372.453.243.805.615 1.056 1.114.252.495.378 1.122.378 1.88v5.665h-1.37v-5.572c0-.7-.182-1.246-.546-1.636-.363-.395-.863-.592-1.497-.592a2.39 2.39 0 0 0-1.173.284c-.34.19-.609.466-.806.83-.198.364-.296.805-.296 1.323Zm12.067-3.552v1.161h-4.619v-1.161h4.619Zm-3.273-2.136h1.37v8.497c0 .387.056.677.168.871a.87.87 0 0 0 .441.383c.182.062.374.093.575.093.151 0 .274-.008.371-.023l.232-.047.279 1.231a2.972 2.972 0 0 1-.389.104 2.842 2.842 0 0 1-.633.058c-.386 0-.766-.083-1.137-.249a2.261 2.261 0 0 1-.917-.761c-.24-.34-.36-.77-.36-1.288v-8.869Zm8.86 11.237c-.805 0-1.511-.192-2.119-.575-.603-.383-1.075-.919-1.416-1.607-.336-.689-.505-1.494-.505-2.415 0-.929.169-1.739.505-2.432.341-.692.813-1.23 1.416-1.613.608-.383 1.314-.575 2.119-.575.805 0 1.509.192 2.112.575.608.383 1.08.921 1.416 1.613.341.693.511 1.503.511 2.432 0 .921-.17 1.726-.511 2.415-.336.688-.808 1.224-1.416 1.607-.603.383-1.307.575-2.112.575Zm0-1.231c.611 0 1.114-.156 1.509-.47.394-.313.687-.725.876-1.236.19-.511.284-1.064.284-1.66 0-.596-.094-1.151-.284-1.666a2.807 2.807 0 0 0-.876-1.247c-.395-.318-.898-.476-1.509-.476-.612 0-1.115.158-1.509.476a2.808 2.808 0 0 0-.877 1.247 4.798 4.798 0 0 0-.284 1.666c0 .596.095 1.149.284 1.66.19.511.482.923.877 1.236.394.314.897.47 1.509.47Z"/><rect width="11.236" height="11.236" x="122.099" y="564.353" fill="#AB71FF" rx="2.043"/><path fill="#6D6D6E" d="M327.135 576.023v-1.045l3.923-4.295c.461-.503.84-.94 1.138-1.311.298-.376.518-.728.661-1.057.147-.332.221-.681.221-1.044 0-.418-.101-.78-.302-1.086a1.966 1.966 0 0 0-.812-.708 2.644 2.644 0 0 0-1.161-.249c-.457 0-.855.095-1.196.284a1.956 1.956 0 0 0-.783.784c-.182.336-.273.731-.273 1.184h-1.37c0-.697.161-1.308.482-1.834a3.338 3.338 0 0 1 1.312-1.231c.557-.294 1.182-.441 1.874-.441.697 0 1.314.147 1.852.441.537.294.959.691 1.265 1.19.306.499.458 1.054.458 1.666 0 .437-.079.865-.238 1.282-.154.414-.425.877-.812 1.388-.383.506-.915 1.125-1.596 1.857l-2.67 2.855v.093h5.525v1.277h-7.498Zm10.94-8.915 2.136 3.645 2.136-3.645h1.578l-2.878 4.458 2.878 4.457h-1.578l-2.136-3.459-2.136 3.459h-1.579l2.833-4.457-2.833-4.458h1.579ZM150.468 595.71a1.821 1.821 0 0 0-.847-1.37c-.495-.325-1.103-.487-1.822-.487-.527 0-.987.085-1.382.255-.391.17-.696.404-.917.702a1.683 1.683 0 0 0-.325 1.016c0 .317.076.59.226.818.155.225.353.412.592.563.24.147.492.269.755.366.263.093.505.168.725.226l1.208.325c.309.082.654.194 1.033.337.383.143.748.338 1.097.586.352.244.642.557.87.94.229.383.343.853.343 1.411 0 .642-.169 1.222-.505 1.741-.333.518-.82.93-1.463 1.236-.638.306-1.414.459-2.327.459-.851 0-1.588-.138-2.211-.413-.62-.274-1.107-.657-1.463-1.149a3.283 3.283 0 0 1-.598-1.712h1.486c.039.449.19.82.453 1.115.267.29.603.506 1.01.65.41.139.851.209 1.323.209.549 0 1.043-.089 1.48-.267a2.55 2.55 0 0 0 1.039-.755 1.79 1.79 0 0 0 .383-1.138c0-.394-.11-.715-.331-.963a2.431 2.431 0 0 0-.871-.604 9.195 9.195 0 0 0-1.166-.406l-1.463-.418c-.928-.267-1.664-.648-2.205-1.143-.542-.495-.813-1.143-.813-1.944 0-.666.18-1.246.54-1.742a3.577 3.577 0 0 1 1.463-1.16c.615-.279 1.302-.418 2.06-.418.766 0 1.447.137 2.043.412.596.271 1.068.642 1.416 1.114.352.472.538 1.008.557 1.608h-1.393Zm7.358 9.1c-.805 0-1.511-.191-2.118-.574-.604-.383-1.076-.919-1.416-1.608-.337-.689-.505-1.493-.505-2.414 0-.929.168-1.74.505-2.432.34-.693.812-1.231 1.416-1.614.607-.383 1.313-.574 2.118-.574.805 0 1.509.191 2.113.574.607.383 1.079.921 1.416 1.614.34.692.511 1.503.511 2.432 0 .921-.171 1.725-.511 2.414-.337.689-.809 1.225-1.416 1.608-.604.383-1.308.574-2.113.574Zm0-1.23c.612 0 1.115-.157 1.509-.47a2.78 2.78 0 0 0 .877-1.236 4.747 4.747 0 0 0 .284-1.66c0-.596-.095-1.151-.284-1.666a2.806 2.806 0 0 0-.877-1.248c-.394-.317-.897-.476-1.509-.476-.611 0-1.114.159-1.509.476a2.804 2.804 0 0 0-.876 1.248 4.775 4.775 0 0 0-.285 1.666c0 .596.095 1.149.285 1.66.189.51.482.922.876 1.236.395.313.898.47 1.509.47Zm7.5-4.318v5.363h-1.369v-8.915h1.323v1.393h.116c.209-.453.526-.817.952-1.091.425-.279.975-.418 1.648-.418.604 0 1.132.124 1.585.371.452.244.804.615 1.056 1.115.251.495.377 1.122.377 1.88v5.665h-1.37v-5.572c0-.7-.181-1.246-.545-1.637-.364-.394-.863-.592-1.498-.592-.437 0-.828.095-1.172.285-.34.189-.609.466-.807.83-.197.363-.296.804-.296 1.323Zm14.506-1.556-1.231.349a2.265 2.265 0 0 0-.342-.598 1.655 1.655 0 0 0-.604-.488c-.255-.127-.582-.191-.981-.191-.545 0-1 .126-1.364.377-.359.248-.539.563-.539.946 0 .341.123.609.371.807.248.197.635.362 1.161.493l1.323.325c.797.194 1.391.49 1.782.888.391.395.586.904.586 1.527 0 .51-.147.967-.441 1.369-.29.403-.696.72-1.219.952-.522.232-1.13.348-1.822.348-.909 0-1.662-.197-2.258-.592-.596-.394-.973-.971-1.132-1.729l1.3-.325c.124.48.358.839.703 1.079.348.24.803.36 1.364.36.638 0 1.145-.135 1.52-.406.379-.275.569-.604.569-.987 0-.309-.108-.569-.325-.778-.217-.212-.549-.371-.998-.475l-1.486-.349c-.816-.193-1.416-.493-1.799-.899-.379-.41-.569-.923-.569-1.538 0-.503.141-.948.424-1.335a2.877 2.877 0 0 1 1.166-.911c.495-.221 1.057-.331 1.683-.331.883 0 1.575.193 2.078.58.507.387.867.898 1.08 1.532Zm6.101-1.996v1.161h-4.62v-1.161h4.62Zm-3.273-2.136h1.369v8.497c0 .387.056.677.169.871a.875.875 0 0 0 .441.383c.182.061.373.092.574.092.151 0 .275-.007.372-.023l.232-.046.279 1.23a2.8 2.8 0 0 1-.389.105 2.916 2.916 0 0 1-.633.058c-.387 0-.766-.083-1.138-.25a2.265 2.265 0 0 1-.917-.76c-.239-.341-.359-.77-.359-1.289v-8.868Zm5.333 11.051v-8.915h1.37v8.915h-1.37Zm.697-10.401a.975.975 0 0 1-.691-.273.878.878 0 0 1-.284-.656c0-.255.095-.474.284-.655a.975.975 0 0 1 .691-.273c.267 0 .495.091.685.273.193.181.29.4.29.655a.87.87 0 0 1-.29.656.954.954 0 0 1-.685.273Zm6.78 13.929c-.661 0-1.23-.085-1.706-.255a3.607 3.607 0 0 1-1.19-.662 3.628 3.628 0 0 1-.749-.87l1.092-.766c.123.162.28.348.47.557.189.213.448.396.777.551.333.159.768.238 1.306.238.72 0 1.314-.174 1.782-.522.468-.348.702-.894.702-1.637v-1.811h-.116c-.1.163-.244.364-.429.604-.182.236-.445.447-.79.633-.34.181-.801.272-1.381.272-.72 0-1.366-.17-1.938-.51-.569-.341-1.02-.836-1.353-1.486-.329-.65-.493-1.44-.493-2.368 0-.913.161-1.708.482-2.386.321-.681.768-1.207 1.34-1.578.573-.376 1.235-.563 1.985-.563.581 0 1.041.097 1.382.29.344.19.607.406.789.65.186.24.329.437.429.592h.14v-1.416h1.323v9.17c0 .766-.174 1.389-.522 1.869a2.974 2.974 0 0 1-1.393 1.062c-.581.228-1.227.342-1.939.342Zm-.046-4.898c.549 0 1.014-.126 1.393-.377.379-.252.667-.614.865-1.086.197-.472.296-1.037.296-1.694 0-.643-.097-1.21-.291-1.701-.193-.491-.479-.876-.859-1.155-.379-.279-.847-.418-1.404-.418-.581 0-1.064.147-1.451.441a2.692 2.692 0 0 0-.865 1.184 4.574 4.574 0 0 0-.284 1.649c0 .619.096 1.166.29 1.642.197.472.487.844.87 1.114.387.267.867.401 1.44.401Zm10.145 1.555c-.859 0-1.6-.189-2.223-.568a3.812 3.812 0 0 1-1.433-1.602c-.333-.689-.5-1.49-.5-2.403s.167-1.718.5-2.415c.336-.7.804-1.245 1.404-1.636.604-.395 1.308-.592 2.113-.592.464 0 .923.077 1.375.232.453.155.865.406 1.236.754.372.345.668.801.888 1.37.221.569.331 1.269.331 2.101v.581h-6.871v-1.184h5.478c0-.503-.1-.952-.301-1.347a2.272 2.272 0 0 0-.848-.934c-.364-.229-.793-.343-1.288-.343-.546 0-1.018.136-1.416.406a2.678 2.678 0 0 0-.912 1.045c-.212.43-.319.89-.319 1.381v.79c0 .673.116 1.244.348 1.712.236.464.563.818.981 1.062.418.24.904.36 1.457.36.36 0 .685-.05.975-.151.294-.104.548-.259.76-.464.213-.209.378-.468.494-.778l1.323.371a2.925 2.925 0 0 1-.702 1.184c-.329.337-.735.6-1.219.79a4.536 4.536 0 0 1-1.631.278Zm12.09-7.104-1.231.349a2.265 2.265 0 0 0-.342-.598 1.664 1.664 0 0 0-.604-.488c-.255-.127-.582-.191-.981-.191-.545 0-1 .126-1.364.377-.36.248-.539.563-.539.946 0 .341.123.609.371.807.248.197.635.362 1.161.493l1.323.325c.797.194 1.391.49 1.782.888.391.395.586.904.586 1.527 0 .51-.147.967-.441 1.369-.29.403-.697.72-1.219.952-.522.232-1.13.348-1.822.348-.91 0-1.662-.197-2.258-.592-.596-.394-.973-.971-1.132-1.729l1.3-.325c.124.48.358.839.703 1.079.348.24.802.36 1.364.36.638 0 1.145-.135 1.52-.406.379-.275.569-.604.569-.987 0-.309-.108-.569-.325-.778-.217-.212-.55-.371-.998-.475l-1.486-.349c-.817-.193-1.416-.493-1.799-.899-.38-.41-.569-.923-.569-1.538 0-.503.141-.948.424-1.335a2.877 2.877 0 0 1 1.166-.911c.495-.221 1.056-.331 1.683-.331.882 0 1.575.193 2.078.58.507.387.867.898 1.08 1.532Z"/><rect width="11.236" height="11.236" x="122.099" y="592.954" fill="#45278D" rx="2.043"/><path fill="#6D6D6E" d="M332.314 592.738v11.887h-1.44v-10.378h-.069l-2.902 1.927v-1.462l2.971-1.974h1.44Zm4.463 2.972 2.136 3.645 2.135-3.645h1.579l-2.879 4.457 2.879 4.458h-1.579l-2.135-3.46-2.136 3.46h-1.579l2.832-4.458-2.832-4.457h1.579ZM143.968 489.196V477.31h7.174v1.277h-5.735v4.016h5.363v1.277h-5.363v4.039h5.827v1.277h-7.266Zm14.69-6.581v1.277h-5.201v-1.277h5.201Zm2.595-5.305h1.718l4.04 9.867h.139l4.04-9.867h1.718v11.886h-1.347v-9.031h-.116l-3.714 9.031h-1.301l-3.714-9.031h-.116v9.031h-1.347V477.31Zm16.978 12.095a3.62 3.62 0 0 1-1.538-.319 2.647 2.647 0 0 1-1.097-.934c-.271-.41-.406-.906-.406-1.486 0-.511.101-.925.302-1.242a2.13 2.13 0 0 1 .807-.755 4.228 4.228 0 0 1 1.114-.406c.41-.093.822-.166 1.236-.221.542-.069.981-.121 1.318-.156.34-.039.588-.103.742-.192.159-.089.238-.244.238-.464v-.046c0-.573-.156-1.018-.47-1.335-.309-.318-.779-.476-1.41-.476-.654 0-1.167.143-1.538.429-.371.287-.633.592-.784.917l-1.3-.464c.233-.542.542-.964.929-1.265a3.475 3.475 0 0 1 1.277-.639 5.293 5.293 0 0 1 1.37-.186c.286 0 .615.035.986.105.376.066.737.203 1.086.412.352.209.644.524.876.946.232.422.348.987.348 1.695v5.873h-1.37v-1.207h-.069a2.393 2.393 0 0 1-.465.621c-.216.221-.504.408-.864.563-.36.155-.799.232-1.318.232Zm.209-1.23c.542 0 .998-.107 1.37-.319a2.17 2.17 0 0 0 .847-.825c.194-.336.29-.69.29-1.062v-1.253c-.058.069-.185.133-.383.191a6.298 6.298 0 0 1-.673.145 29.004 29.004 0 0 1-1.312.174 5.24 5.24 0 0 0-.998.227c-.305.1-.553.253-.743.458-.185.202-.278.476-.278.824 0 .476.176.836.528 1.08.356.24.807.36 1.352.36Zm6.377 1.021v-8.914h1.37v8.914h-1.37Zm.697-10.4a.973.973 0 0 1-.691-.273.874.874 0 0 1-.284-.656c0-.255.094-.474.284-.656a.973.973 0 0 1 .691-.272c.267 0 .495.09.685.272a.87.87 0 0 1 .29.656.87.87 0 0 1-.29.656.954.954 0 0 1-.685.273Zm4.551-1.486v11.886h-1.369V477.31h1.369Zm7.617 6.152v1.277h-5.201v-1.277h5.201Zm3.083 5.734h-1.509l4.364-11.886h1.486l4.365 11.886h-1.509l-3.552-10.006h-.093l-3.552 10.006Zm.557-4.643h6.083v1.277h-6.083v-1.277Zm13.181 4.829c-.743 0-1.399-.188-1.968-.563-.569-.379-1.014-.913-1.335-1.602-.321-.692-.481-1.511-.481-2.455 0-.936.16-1.749.481-2.437.321-.689.768-1.221 1.341-1.597.573-.375 1.234-.563 1.985-.563.58 0 1.039.097 1.375.291.341.189.6.406.778.65.182.24.323.437.424.592h.116v-4.388h1.37v11.886h-1.324v-1.369h-.162a9.083 9.083 0 0 1-.43.615c-.185.244-.45.462-.795.656-.344.189-.803.284-1.375.284Zm.185-1.23c.55 0 1.014-.144 1.393-.43.38-.29.668-.691.865-1.201.197-.515.296-1.109.296-1.782 0-.666-.097-1.248-.29-1.747-.194-.503-.48-.894-.859-1.172-.379-.283-.847-.424-1.405-.424-.58 0-1.064.149-1.451.447-.383.294-.671.694-.864 1.201a4.768 4.768 0 0 0-.285 1.695c0 .635.097 1.211.29 1.73.198.514.488.924.871 1.23.387.302.867.453 1.439.453Zm6.599 1.044v-8.914h1.324v1.346h.093c.162-.441.456-.799.882-1.074a2.6 2.6 0 0 1 1.439-.412c.101 0 .227.002.377.006.151.004.265.01.343.017v1.393a4.405 4.405 0 0 0-.319-.052 3.161 3.161 0 0 0-.517-.04c-.433 0-.82.09-1.161.272a2.07 2.07 0 0 0-.801.743 2.01 2.01 0 0 0-.29 1.074v5.641h-1.37Zm9.548.186c-.859 0-1.6-.19-2.223-.569a3.82 3.82 0 0 1-1.434-1.602c-.332-.688-.499-1.489-.499-2.402 0-.914.167-1.718.499-2.415.337-.7.805-1.246 1.405-1.637.604-.394 1.308-.592 2.113-.592.464 0 .922.078 1.375.233.453.154.865.406 1.236.754.372.345.668.801.888 1.37.221.569.331 1.269.331 2.101v.58h-6.872v-1.184h5.479c0-.503-.1-.952-.302-1.346a2.272 2.272 0 0 0-.847-.935c-.364-.228-.793-.342-1.288-.342-.546 0-1.018.135-1.417.406a2.676 2.676 0 0 0-.911 1.045c-.213.429-.319.89-.319 1.381v.79c0 .673.116 1.244.348 1.712.236.464.563.818.981 1.062.418.24.904.36 1.457.36.36 0 .685-.051.975-.151.294-.105.547-.259.76-.465.213-.209.377-.468.494-.777l1.323.371a2.936 2.936 0 0 1-.702 1.184c-.329.337-.736.6-1.219.789a4.518 4.518 0 0 1-1.631.279Zm12.089-7.104-1.23.348a2.288 2.288 0 0 0-.342-.597 1.672 1.672 0 0 0-.604-.488c-.255-.128-.582-.192-.981-.192-.546 0-1 .126-1.364.378-.36.247-.54.563-.54.946 0 .34.124.609.372.807.247.197.634.361 1.161.493l1.323.325c.797.193 1.391.489 1.782.888.39.395.586.903.586 1.526 0 .511-.147.968-.441 1.37-.29.402-.697.72-1.219.952-.522.232-1.13.348-1.822.348-.91 0-1.662-.197-2.258-.592-.596-.395-.973-.971-1.132-1.729l1.3-.326c.124.48.358.84.702 1.08.349.24.803.36 1.364.36.639 0 1.146-.136 1.521-.406.379-.275.569-.604.569-.987 0-.31-.109-.569-.325-.778-.217-.213-.55-.371-.999-.476l-1.485-.348c-.817-.193-1.417-.493-1.8-.9-.379-.41-.568-.922-.568-1.538 0-.503.141-.948.423-1.334a2.897 2.897 0 0 1 1.167-.912c.495-.22 1.056-.331 1.683-.331.882 0 1.575.194 2.078.581.507.387.867.898 1.079 1.532Zm8.539 0-1.23.348a2.264 2.264 0 0 0-.343-.597 1.66 1.66 0 0 0-.603-.488c-.255-.128-.582-.192-.981-.192-.546 0-1 .126-1.364.378-.36.247-.54.563-.54.946 0 .34.124.609.372.807.247.197.634.361 1.161.493l1.323.325c.797.193 1.391.489 1.782.888.39.395.586.903.586 1.526 0 .511-.147.968-.441 1.37-.29.402-.697.72-1.219.952-.522.232-1.13.348-1.822.348-.91 0-1.662-.197-2.258-.592-.596-.395-.973-.971-1.132-1.729l1.3-.326c.124.48.358.84.702 1.08.349.24.803.36 1.364.36.639 0 1.146-.136 1.521-.406.379-.275.569-.604.569-.987 0-.31-.109-.569-.325-.778-.217-.213-.55-.371-.999-.476l-1.485-.348c-.817-.193-1.417-.493-1.8-.9-.379-.41-.568-.922-.568-1.538 0-.503.141-.948.423-1.334a2.897 2.897 0 0 1 1.167-.912c.495-.22 1.056-.331 1.683-.331.882 0 1.575.194 2.078.581.507.387.867.898 1.079 1.532Zm5.962 7.104c-.859 0-1.6-.19-2.222-.569a3.814 3.814 0 0 1-1.434-1.602c-.333-.688-.499-1.489-.499-2.402 0-.914.166-1.718.499-2.415.337-.7.805-1.246 1.404-1.637.604-.394 1.308-.592 2.113-.592.464 0 .923.078 1.376.233.452.154.864.406 1.236.754.371.345.667.801.888 1.37.22.569.331 1.269.331 2.101v.58h-6.872v-1.184h5.479c0-.503-.101-.952-.302-1.346a2.279 2.279 0 0 0-.847-.935c-.364-.228-.794-.342-1.289-.342-.545 0-1.018.135-1.416.406a2.668 2.668 0 0 0-.911 1.045c-.213.429-.319.89-.319 1.381v.79c0 .673.116 1.244.348 1.712.236.464.563.818.981 1.062.418.24.903.36 1.456.36.36 0 .685-.051.975-.151a2.08 2.08 0 0 0 .761-.465c.213-.209.377-.468.493-.777l1.323.371a2.925 2.925 0 0 1-.702 1.184c-.329.337-.735.6-1.219.789a4.51 4.51 0 0 1-1.631.279ZM326.856 486.759v-1.184l5.224-8.265h.859v1.834h-.581l-3.946 6.245v.093h7.034v1.277h-8.59Zm5.595 2.437V477.31h1.37v11.886h-1.37Zm6.215-8.914 2.135 3.644 2.136-3.644h1.579l-2.879 4.457 2.879 4.457h-1.579l-2.136-3.459-2.135 3.459h-1.579l2.832-4.457-2.832-4.457h1.579Z"/><rect width="11.236" height="11.236" x="122.099" y="477.526" fill="#592ACB" rx="2.043"/><path fill="#C689FF" d="M265.793 175.159a137.864 137.864 0 0 1 22.32 7.786l-16.923 37.75a96.602 96.602 0 0 0-15.624-5.45l10.227-40.086Z"/><path fill="#AB71FF" d="M288.07 182.925a137.948 137.948 0 0 1 20.666 11.476l-23.11 34.313a96.619 96.619 0 0 0-14.466-8.033l16.91-37.756Z"/><path fill="#45278D" d="M308.104 193.978a137.798 137.798 0 0 1 18.484 14.735l-28.466 30.02a96.49 96.49 0 0 0-12.939-10.315l22.921-34.44Z"/><path fill="#89CFF5" d="M106.557 366.702a137.895 137.895 0 0 1 13.868-139.372l33.384 24.435a96.523 96.523 0 0 0-18.162 47.456 96.524 96.524 0 0 0 8.453 50.105l-37.543 17.376Z"/><path fill="#89CFF5" d="M120.206 227.631A137.887 137.887 0 0 1 177.449 182a137.89 137.89 0 0 1 72.532-9.904l-5.484 41.005a96.522 96.522 0 0 0-90.842 38.875l-33.449-24.345Z"/><path fill="#592ACB" d="M326.588 208.712a137.914 137.914 0 0 1 42.7 109.392 137.886 137.886 0 0 1-57.071 102.63 137.894 137.894 0 0 1-168.929-6.127 137.9 137.9 0 0 1-36.644-47.717l37.517-17.433a96.532 96.532 0 0 0 183.851-34.15 96.527 96.527 0 0 0-29.89-76.574l28.466-30.021Z"/><path fill="#9059FF" d="M106.635 366.872a137.903 137.903 0 0 1 83.308-189.518 137.901 137.901 0 0 1 76.99-1.899l-10.569 39.997a96.523 96.523 0 0 0-53.893 1.33 96.535 96.535 0 0 0-66.47 79.373 96.525 96.525 0 0 0 8.155 53.289l-37.521 17.428Z"/><circle cx="231.703" cy="307.247" r="96.53" fill="#fff"/><path fill="#2A2A2A" d="M221.584 281.881v36.979h-6.699v-30.461h-.217l-8.649 5.525v-6.139l9.191-5.904h6.374Zm8.721 30.118v-5.327l15.692-24.791h8.342v24.611h4.73v5.507h-4.73v6.861h-6.392v-6.861h-17.642Zm17.714-5.507v-17.028h-.289l-10.563 16.739v.289h10.852Z"/><path fill="#5B5B5B" d="M182.958 354.114h-4.944v-15.272h5.101c4.497 0 7.189 2.863 7.189 7.614 0 4.772-2.692 7.658-7.346 7.658Zm-2.64-2.013h2.513c3.483 0 5.206-2.029 5.206-5.645 0-3.602-1.723-5.601-5.064-5.601h-2.655v11.246Zm16.006 2.267c-2.178 0-3.871-1.238-3.871-3.49 0-2.603 2.223-3.17 4.393-3.423 2.058-.239 2.893-.224 2.893-1.037v-.052c0-1.297-.738-2.051-2.177-2.051-1.499 0-2.335.783-2.663 1.596l-2.095-.477c.746-2.088 2.655-2.923 4.728-2.923 1.819 0 4.444.663 4.444 3.997v7.606h-2.177v-1.566h-.09c-.425.858-1.491 1.82-3.385 1.82Zm.484-1.79c1.857 0 2.939-1.238 2.939-2.595v-1.477c-.321.321-2.036.515-2.76.612-1.29.171-2.349.597-2.349 1.79 0 1.103.91 1.67 2.17 1.67Zm13.485-9.918v1.79h-2.349v6.301c0 1.29.649 1.529 1.372 1.529.358 0 .634-.067.783-.097l.403 1.842c-.261.097-.738.231-1.447.239-1.76.037-3.348-.97-3.341-3.051v-6.763h-1.677v-1.79h1.677v-2.744h2.23v2.744h2.349Zm7.281 11.686c-3.379 0-5.452-2.327-5.452-5.884 0-3.52 2.103-5.951 5.295-5.951 2.595 0 5.071 1.618 5.071 5.757v.79h-8.144c.06 2.208 1.343 3.446 3.252 3.446 1.268 0 2.237-.552 2.64-1.634l2.11.381c-.507 1.864-2.274 3.095-4.772 3.095Zm-3.222-6.958h5.951c-.008-1.753-1.141-3.035-2.871-3.035-1.812 0-2.991 1.409-3.08 3.035Zm12.84-.075v6.801h-2.23V342.66h2.14v1.864h.142c.529-1.215 1.655-2.013 3.378-2.013 2.342 0 3.9 1.484 3.9 4.318v7.285h-2.229v-7.017c0-1.663-.918-2.655-2.432-2.655-1.551 0-2.669 1.044-2.669 2.871Zm12.55-8.471v15.272h-2.229v-15.272h2.229Zm7.937 15.504c-3.378 0-5.451-2.327-5.451-5.884 0-3.52 2.103-5.951 5.294-5.951 2.596 0 5.071 1.618 5.071 5.757v.79h-8.143c.06 2.208 1.342 3.446 3.251 3.446 1.268 0 2.238-.552 2.64-1.634l2.111.381c-.507 1.864-2.275 3.095-4.773 3.095Zm-3.222-6.958h5.951c-.007-1.753-1.141-3.035-2.871-3.035-1.812 0-2.99 1.409-3.08 3.035Zm13.944 6.98c-2.178 0-3.871-1.238-3.871-3.49 0-2.603 2.223-3.17 4.393-3.423 2.058-.239 2.893-.224 2.893-1.037v-.052c0-1.297-.738-2.051-2.177-2.051-1.499 0-2.334.783-2.662 1.596l-2.096-.477c.746-2.088 2.655-2.923 4.728-2.923 1.82 0 4.445.663 4.445 3.997v7.606h-2.178v-1.566h-.089c-.426.858-1.492 1.82-3.386 1.82Zm.485-1.79c1.856 0 2.938-1.238 2.938-2.595v-1.477c-.321.321-2.036.515-2.759.612-1.291.171-2.35.597-2.35 1.79 0 1.103.91 1.67 2.171 1.67Zm8.137 1.536v-15.272h2.23v8.665h.194l4.564-4.847h2.67l-4.639 4.914 4.952 6.54h-2.737l-3.893-5.175-1.111 1.111v4.064h-2.23Zm20.273-8.658-2.021.358c-.261-.768-.902-1.536-2.289-1.536-1.268 0-2.222.627-2.215 1.506-.007.776.537 1.201 1.797 1.499l1.82.418c2.103.485 3.132 1.484 3.132 3.102 0 2.073-1.916 3.543-4.683 3.543-2.573 0-4.258-1.141-4.631-3.17l2.155-.328c.268 1.126 1.126 1.7 2.461 1.7 1.462 0 2.409-.693 2.409-1.581 0-.716-.515-1.208-1.619-1.454l-1.938-.425c-2.148-.477-3.133-1.558-3.133-3.184 0-2.029 1.835-3.393 4.423-3.393 2.475 0 3.87 1.163 4.332 2.945Z"/><defs><linearGradient id="a" x1="468.816" x2="468.816" y1="104.926" y2="196.576" gradientUnits="userSpaceOnUse"><stop stop-color="#8060FE"/><stop offset="1" stop-color="#626BFA"/></linearGradient><linearGradient id="c" x1="124.726" x2="106.795" y1="68.129" y2="99.184" gradientUnits="userSpaceOnUse"><stop stop-color="#FF980E"/><stop offset=".21" stop-color="#FF7139"/><stop offset=".36" stop-color="#FF5854"/><stop offset=".46" stop-color="#FF4F5E"/><stop offset=".69" stop-color="#FF3750"/><stop offset=".86" stop-color="#F92261"/><stop offset="1" stop-color="#F5156C"/></linearGradient><linearGradient id="d" x1="124.726" x2="106.795" y1="68.129" y2="99.184" gradientUnits="userSpaceOnUse"><stop stop-color="#FFF44F" stop-opacity=".8"/><stop offset=".09" stop-color="#FFF44F" stop-opacity=".7"/><stop offset=".75" stop-color="#FFF44F" stop-opacity="0"/></linearGradient><linearGradient id="e" x1="126.178" x2="126.178" y1="104.182" y2="65.707" gradientUnits="userSpaceOnUse"><stop stop-color="#3A8EE6"/><stop offset=".24" stop-color="#5C79F0"/><stop offset=".63" stop-color="#9059FF"/><stop offset="1" stop-color="#C139E6"/></linearGradient><linearGradient id="f" x1="119.637" x2="135.627" y1="65.567" y2="81.558" gradientUnits="userSpaceOnUse"><stop stop-color="#6E008B" stop-opacity=".5"/><stop offset=".5" stop-color="#C846CB" stop-opacity="0"/></linearGradient><linearGradient id="g" x1="134.121" x2="126.612" y1="85.348" y2="92.857" gradientUnits="userSpaceOnUse"><stop offset=".14" stop-color="#6A2BEA" stop-opacity="0"/><stop offset=".34" stop-color="#642DE4" stop-opacity=".03"/><stop offset=".55" stop-color="#5131D3" stop-opacity=".12"/><stop offset=".76" stop-color="#3139B7" stop-opacity=".27"/><stop offset=".98" stop-color="#054490" stop-opacity=".48"/><stop offset="1" stop-color="#00458B" stop-opacity=".5"/></linearGradient><linearGradient id="h" x1="122.076" x2="124.253" y1="91.805" y2="94.401" gradientUnits="userSpaceOnUse"><stop stop-color="#960E18" stop-opacity=".6"/><stop offset=".19" stop-color="#AC1624" stop-opacity=".48"/><stop offset=".58" stop-color="#E42C41" stop-opacity=".16"/><stop offset=".75" stop-color="#FF3750" stop-opacity="0"/></linearGradient></defs></svg>
