<svg xmlns="http://www.w3.org/2000/svg" width="620" height="450" fill="none" viewBox="0 0 620 450"><g clip-path="url(#a)"><rect width="620" height="450" fill="#ECDFFF" rx="15"/><mask id="c" fill="#fff"><path d="M531.529 137.926c5.84 0 10.575 4.734 10.575 10.575v70.5c0 5.84-4.735 10.575-10.575 10.575v-91.65Z"/></mask><path fill="url(#b)" d="M531.529 137.926c5.84 0 10.575 4.734 10.575 10.575v70.5c0 5.84-4.735 10.575-10.575 10.575v-91.65Z"/><path fill="#BFBFC7" d="M531.529 229.576h-11.75v11.75h11.75v-11.75Zm0-91.65v-11.75h-11.75v11.75h11.75Zm-1.175 10.575v70.5h23.5v-70.5h-23.5Zm12.925 81.075v-91.65h-23.5v91.65h23.5Zm-12.925-10.575c0-.649.526-1.175 1.175-1.175v23.5c12.329 0 22.325-9.995 22.325-22.325h-23.5Zm1.175-69.325a1.175 1.175 0 0 1-1.175-1.175h23.5c0-12.33-9.996-22.325-22.325-22.325v23.5Z" mask="url(#c)"/><path fill="#F9F9FA" stroke="#BFBFC7" stroke-miterlimit="10" stroke-width="9.4" d="M471.296 38.3H128.664c-30.63 0-55.46 24.83-55.46 55.46v697.952c0 30.63 24.83 55.461 55.46 55.461h342.632c30.629 0 55.46-24.831 55.46-55.461V93.76c0-30.63-24.831-55.46-55.46-55.46Z"/><path fill="url(#d)" d="m201.245 104.384-4.005-2.294-9.144-5.236-.285-.163a4.888 4.888 0 0 0-4.836 0l-.284.165-12.858 7.365-.284.165a4.806 4.806 0 0 0-2.418 4.157v15.382a4.81 4.81 0 0 0 2.418 4.159l13.146 7.528a2.025 2.025 0 0 0 2.755-.731 1.993 1.993 0 0 0-.738-2.734l-12.857-7.363a1.371 1.371 0 0 1-.693-1.189v-14.722a1.37 1.37 0 0 1 .693-1.189l2.275-1.304 10.568-6.065a1.395 1.395 0 0 1 1.379 0l12.862 7.366c.425.245.688.697.69 1.188v14.732a1.372 1.372 0 0 1-.693 1.189l-4.35 2.492-2.196-3.312a10.336 10.336 0 0 0 3.483-7.734c0-5.736-4.704-10.403-10.487-10.403S174.9 110.5 174.9 116.236c0 5.736 4.703 10.403 10.486 10.403a10.49 10.49 0 0 0 3.54-.612l3.336 5.029c.052.077.108.151.169.221l.035.035c.071.076.147.146.229.209l.06.049c.09.065.185.123.285.173l.068.03c.088.04.18.074.273.101l.062.02c.106.027.214.045.323.053h.182c.062 0 .123-.007.182-.013h.084c.115-.016.228-.042.339-.077.03-.008.058-.021.088-.033.088-.032.173-.07.256-.113.019-.01.04-.016.058-.027l6.29-3.595a4.813 4.813 0 0 0 2.418-4.164v-15.384a4.807 4.807 0 0 0-2.418-4.157Zm-22.313 11.852a6.454 6.454 0 1 1 6.454 6.4 6.434 6.434 0 0 1-6.454-6.4Z"/><path fill="url(#e)" d="m201.245 104.384-4.005-2.294-9.144-5.236-.285-.163a4.888 4.888 0 0 0-4.836 0l-.284.165-12.858 7.365-.284.165a4.806 4.806 0 0 0-2.418 4.157v15.382a4.81 4.81 0 0 0 2.418 4.159l13.146 7.528a2.025 2.025 0 0 0 2.755-.731 1.993 1.993 0 0 0-.738-2.734l-12.857-7.363a1.371 1.371 0 0 1-.693-1.189v-14.722a1.37 1.37 0 0 1 .693-1.189l2.275-1.304 10.568-6.065a1.395 1.395 0 0 1 1.379 0l12.862 7.366c.425.245.688.697.69 1.188v14.732a1.372 1.372 0 0 1-.693 1.189l-4.35 2.492-2.196-3.312a10.336 10.336 0 0 0 3.483-7.734c0-5.736-4.704-10.403-10.487-10.403S174.9 110.5 174.9 116.236c0 5.736 4.703 10.403 10.486 10.403a10.49 10.49 0 0 0 3.54-.612l3.336 5.029c.052.077.108.151.169.221l.035.035c.071.076.147.146.229.209l.06.049c.09.065.185.123.285.173l.068.03c.088.04.18.074.273.101l.062.02c.106.027.214.045.323.053h.182c.062 0 .123-.007.182-.013h.084c.115-.016.228-.042.339-.077.03-.008.058-.021.088-.033.088-.032.173-.07.256-.113.019-.01.04-.016.058-.027l6.29-3.595a4.813 4.813 0 0 0 2.418-4.164v-15.384a4.807 4.807 0 0 0-2.418-4.157Zm-22.313 11.852a6.454 6.454 0 1 1 6.454 6.4 6.434 6.434 0 0 1-6.454-6.4Z"/><path fill="url(#f)" d="m201.243 104.384-4.005-2.294-5.587-3.198a4.308 4.308 0 0 0-4.16-.062l-2.795 1.485a1.397 1.397 0 0 1 1.38 0l12.861 7.366c.426.244.688.697.69 1.187v14.733c0 .492-.265.945-.693 1.189l-4.35 2.491.678 1.086a2.844 2.844 0 0 0 3.827.954l2.154-1.232a4.795 4.795 0 0 0 2.418-4.164v-15.384a4.793 4.793 0 0 0-2.418-4.157Z"/><path fill="url(#g)" d="M199.627 108.873v7.147h4.034v-7.479a4.793 4.793 0 0 0-2.418-4.157l-4.005-2.294-5.587-3.198a4.308 4.308 0 0 0-4.16-.062l-2.795 1.485a1.397 1.397 0 0 1 1.38 0l12.861 7.366c.427.245.69.7.69 1.192Z"/><path fill="url(#h)" d="M199.627 117.17v6.431c0 .492-.265.946-.692 1.189l-4.351 2.492.678 1.085a2.846 2.846 0 0 0 3.828.954l2.153-1.232a4.795 4.795 0 0 0 2.418-4.164v-6.755h-4.034Z" opacity=".9"/><path fill="url(#i)" d="m194.276 126.815-1.887-2.845a10.499 10.499 0 0 1-3.464 2.057l2.007 3.028a88.1 88.1 0 0 0 3.344-2.24Z" opacity=".9"/><path fill="#000" d="M220.438 126.31v-20.078h4.296l6.225 11.339 6.196-11.339h4.325v20.078h-4.325v-12.509l-6.196 11.34-6.225-11.34v12.509h-4.296Zm32.266.351c-4.501 0-8.271-3.624-8.271-7.921 0-4.296 3.77-7.89 8.271-7.89 4.471 0 8.212 3.594 8.212 7.89 0 4.297-3.741 7.921-8.212 7.921Zm0-3.595c2.25 0 4.15-1.988 4.15-4.326 0-2.338-1.9-4.296-4.15-4.296-2.28 0-4.179 1.958-4.179 4.296s1.899 4.326 4.179 4.326Zm10.218 3.244v-3.01l7.599-8.476h-7.394V111.2h12.947v3.011l-7.599 8.475h7.657v3.624h-13.21Zm18.152-17.185a2.326 2.326 0 0 1-2.338-2.338c0-1.198 1.023-2.279 2.338-2.279 1.256 0 2.279 1.081 2.279 2.279 0 1.286-1.023 2.338-2.279 2.338Zm-2.163 17.185V111.2h4.267v15.11h-4.267Zm7.783 0v-20.429h4.267v20.429h-4.267Zm7.783 0v-20.429h4.267v20.429h-4.267Zm14.533-15.46c3.946 0 6.634 2.484 6.634 6.429v9.031h-4.12v-1.52c-1.082 1.228-2.806 1.871-4.443 1.871-3.214 0-5.699-1.929-5.699-4.823 0-2.981 2.777-5.026 6.284-5.026 1.227 0 2.572.263 3.858.759v-.292c0-1.607-.994-3.01-3.478-3.01-1.403 0-2.718.468-3.916 1.081l-1.432-2.835c2.133-1.081 4.208-1.665 6.312-1.665Zm-.964 12.859c1.636 0 3.185-.76 3.478-2.163v-1.403a9.578 9.578 0 0 0-3.244-.555c-1.549 0-2.777.906-2.777 2.133 0 1.228 1.082 1.988 2.543 1.988Zm19.612 2.601v-20.078h2.952l7.043 13.122 7.043-13.122h2.952v20.078h-2.952v-14.291l-7.043 13.122-7.043-13.122v14.291h-2.952Zm31.182.351c-4.325 0-7.978-3.624-7.978-7.921 0-4.296 3.653-7.89 7.978-7.89 4.296 0 7.92 3.594 7.92 7.89 0 4.297-3.624 7.921-7.92 7.921Zm0-2.514c2.718 0 5.027-2.455 5.027-5.407 0-2.922-2.309-5.377-5.027-5.377-2.776 0-5.085 2.455-5.085 5.377 0 2.952 2.309 5.407 5.085 5.407Zm18.366-13.297c3.331 0 5.669 2.425 5.669 5.845v9.615h-2.835v-9.118c0-2.251-1.432-3.829-3.477-3.829-2.105 0-3.917 1.374-4.15 3.156v9.791h-2.894V111.2h2.894v2.192c.906-1.49 2.747-2.542 4.793-2.542Zm10.614-2.163a1.758 1.758 0 0 1-1.753-1.754c0-.905.76-1.724 1.753-1.724.936 0 1.725.819 1.725 1.724 0 .936-.789 1.754-1.725 1.754Zm-1.461 17.623V111.2h2.893v15.11h-2.893Zm13.525-2.718 1.052 1.987a4.863 4.863 0 0 1-3.01 1.082c-2.338 0-3.975-1.696-3.975-4.121v-8.885h-2.279V111.2h2.279v-4.15h2.835v4.15h3.566v2.455h-3.566v8.68c0 1.052.702 1.812 1.549 1.812.643 0 1.227-.234 1.549-.555Zm10.535 3.069c-4.325 0-7.978-3.624-7.978-7.921 0-4.296 3.653-7.89 7.978-7.89 4.296 0 7.92 3.594 7.92 7.89 0 4.297-3.624 7.921-7.92 7.921Zm0-2.514c2.718 0 5.027-2.455 5.027-5.407 0-2.922-2.309-5.377-5.027-5.377-2.776 0-5.085 2.455-5.085 5.377 0 2.952 2.309 5.407 5.085 5.407Zm13.719-10.053c.964-1.988 3.01-3.244 5.611-3.244v2.513c-3.127 0-5.348 1.724-5.611 4.355v8.592h-2.894V111.2h2.894v2.894Z"/><path fill="#fff" d="M96.406 175.79a5.65 5.65 0 0 1 5.65-5.649h395.739a5.649 5.649 0 0 1 5.65 5.649v486.072a5.65 5.65 0 0 1-5.65 5.65H102.056a5.65 5.65 0 0 1-5.65-5.65V175.79Z"/><path stroke="#000" stroke-opacity=".1" stroke-width=".706" d="M102.056 169.788a6.002 6.002 0 0 0-6.003 6.002v486.072a6.003 6.003 0 0 0 6.003 6.003h395.739a6.003 6.003 0 0 0 6.003-6.003V175.79a6.002 6.002 0 0 0-6.003-6.002H102.056Z"/><path fill="#000" d="M125.96 319v-19.236h4.144V319h-4.144Zm16.243-14.812c3.136 0 5.376 2.324 5.376 5.6V319h-3.948v-8.344c0-1.792-1.12-3.024-2.744-3.024-1.708 0-3.024 1.232-3.024 2.8V319h-4.088v-19.572h4.088v6.86c.896-1.26 2.492-2.1 4.34-2.1Zm12.915 3.024c.952-1.876 2.744-3.024 4.956-3.024v3.444c-3.024 0-4.956 1.736-4.956 4.452V319h-4.088v-14.476h4.088v2.688Zm25.607-2.688h4.116v12.936c0 3.724-3.22 6.356-7.784 6.356-2.548 0-4.956-.812-6.384-1.932l1.428-2.884c.952.84 2.632 1.372 4.312 1.372 2.632 0 4.312-1.204 4.312-3.08v-1.596c-1.148 1.4-2.884 2.24-4.788 2.24-3.64 0-6.412-2.856-6.412-6.888s2.772-6.86 6.412-6.86c1.96 0 3.808.924 4.788 2.296v-1.96Zm-3.5 9.968c2.044 0 3.5-1.428 3.5-3.444s-1.456-3.416-3.5-3.416-3.5 1.4-3.5 3.416 1.456 3.444 3.5 3.444ZM188.437 319v-19.572h4.088V319h-4.088Zm14.124-14.812c3.78 0 6.356 2.38 6.356 6.16V319h-3.948v-1.456c-1.036 1.176-2.688 1.792-4.256 1.792-3.08 0-5.46-1.848-5.46-4.62 0-2.856 2.66-4.816 6.02-4.816 1.176 0 2.464.252 3.696.728v-.28c0-1.54-.952-2.884-3.332-2.884-1.344 0-2.604.448-3.752 1.036l-1.372-2.716c2.044-1.036 4.032-1.596 6.048-1.596Zm-.924 12.32c1.568 0 3.052-.728 3.332-2.072v-1.344a9.158 9.158 0 0 0-3.108-.532c-1.484 0-2.66.868-2.66 2.044 0 1.176 1.036 1.904 2.436 1.904Zm16.157 2.828c-2.324 0-4.788-.784-6.524-2.184l1.764-2.828c1.288.924 2.912 1.624 4.844 1.624 1.092 0 1.876-.448 1.876-1.092 0-.896-1.064-1.176-2.548-1.568-2.968-.728-5.264-1.54-5.292-4.396-.028-2.744 2.24-4.704 5.656-4.704 2.072 0 4.116.728 5.712 1.792l-1.652 2.912c-1.316-.812-2.828-1.288-4.06-1.288-1.008 0-1.708.364-1.708.868 0 .784.588 1.008 2.548 1.54 2.492.644 5.264 1.484 5.264 4.648 0 2.856-2.324 4.676-5.88 4.676Zm14.055 0c-2.324 0-4.788-.784-6.524-2.184l1.764-2.828c1.288.924 2.912 1.624 4.844 1.624 1.092 0 1.876-.448 1.876-1.092 0-.896-1.064-1.176-2.548-1.568-2.968-.728-5.264-1.54-5.292-4.396-.028-2.744 2.24-4.704 5.656-4.704 2.072 0 4.116.728 5.712 1.792l-1.652 2.912c-1.316-.812-2.828-1.288-4.06-1.288-1.008 0-1.708.364-1.708.868 0 .784.588 1.008 2.548 1.54 2.492.644 5.264 1.484 5.264 4.648 0 2.856-2.324 4.676-5.88 4.676Zm15.455-3.612c1.148 0 2.548-.532 3.332-1.288l2.604 2.66c-1.288 1.344-3.78 2.24-5.908 2.24-4.312 0-7.672-3.164-7.672-7.616 0-4.368 3.22-7.532 7.448-7.532 4.536 0 7.196 3.444 7.196 8.904H243.86c.476 1.568 1.736 2.632 3.444 2.632Zm-.028-7.924c-1.54 0-2.828.896-3.36 2.352h6.468c-.392-1.428-1.456-2.352-3.108-2.352Zm15.225 11.536c-2.324 0-4.788-.784-6.524-2.184l1.764-2.828c1.288.924 2.912 1.624 4.844 1.624 1.092 0 1.876-.448 1.876-1.092 0-.896-1.064-1.176-2.548-1.568-2.968-.728-5.264-1.54-5.292-4.396-.028-2.744 2.24-4.704 5.656-4.704 2.072 0 4.116.728 5.712 1.792l-1.652 2.912c-1.316-.812-2.828-1.288-4.06-1.288-1.008 0-1.708.364-1.708.868 0 .784.588 1.008 2.548 1.54 2.492.644 5.264 1.484 5.264 4.648 0 2.856-2.324 4.676-5.88 4.676Zm19.431-19.908h4.088V319h-4.088v-2.072c-1.148 1.512-2.828 2.408-4.872 2.408-3.864 0-6.664-3.136-6.664-7.588 0-4.424 2.8-7.56 6.664-7.56 2.044 0 3.724.896 4.872 2.408v-7.168Zm-3.696 16.464c2.156 0 3.696-1.708 3.696-4.144 0-2.408-1.54-4.116-3.696-4.116-2.268 0-3.864 1.708-3.864 4.116 0 2.436 1.596 4.144 3.864 4.144Zm18.484 3.444c-4.312 0-7.924-3.472-7.924-7.588s3.612-7.56 7.924-7.56c4.284 0 7.868 3.444 7.868 7.56s-3.584 7.588-7.868 7.588Zm0-3.444c2.156 0 3.976-1.904 3.976-4.144s-1.82-4.116-3.976-4.116c-2.184 0-4.004 1.876-4.004 4.116 0 2.24 1.82 4.144 4.004 4.144Zm18.251-.476.98 2.66c-.84.756-2.157 1.26-3.332 1.26-2.548 0-4.34-1.82-4.34-4.424v-7.084h-1.988v-3.304h1.988v-3.976h3.92v3.976h3.136v3.304h-3.136v6.44c0 .952.616 1.624 1.372 1.624.56 0 1.12-.196 1.4-.476Zm10.624 3.92c-4.284 0-7.896-3.472-7.896-7.588s3.64-7.56 7.924-7.56c2.352 0 4.284.952 5.684 2.464l-2.716 2.324c-.728-.812-1.876-1.344-2.996-1.344-2.128 0-3.92 1.876-3.92 4.088 0 2.268 1.792 4.172 3.948 4.172 1.12 0 2.296-.56 3.052-1.4l2.716 2.296c-1.428 1.568-3.388 2.548-5.796 2.548Zm15.067 0c-4.312 0-7.924-3.472-7.924-7.588s3.612-7.56 7.924-7.56c4.284 0 7.868 3.444 7.868 7.56s-3.584 7.588-7.868 7.588Zm0-3.444c2.156 0 3.976-1.904 3.976-4.144s-1.82-4.116-3.976-4.116c-2.184 0-4.004 1.876-4.004 4.116 0 2.24 1.82 4.144 4.004 4.144Zm27.854-11.704c3.024 0 5.348 2.324 5.348 5.6v9.24h-3.92v-8.54c0-1.68-1.064-2.856-2.576-2.856-1.624 0-2.8 1.092-2.8 2.632v8.764h-3.92v-8.54c0-1.68-1.064-2.856-2.548-2.856-1.652 0-2.8 1.092-2.8 2.632V319h-4.088v-14.476h4.088v1.904c.7-1.372 2.128-2.24 3.92-2.24 1.988 0 3.696 1.008 4.592 2.632.756-1.596 2.548-2.632 4.704-2.632Zm11.108 15.148a2.6 2.6 0 0 1-2.604-2.604c0-1.316 1.148-2.492 2.604-2.492 1.372 0 2.492 1.176 2.492 2.492 0 1.428-1.12 2.604-2.492 2.604Zm12.881 0c-4.284 0-7.896-3.472-7.896-7.588s3.64-7.56 7.924-7.56c2.352 0 4.284.952 5.684 2.464l-2.716 2.324c-.728-.812-1.876-1.344-2.996-1.344-2.128 0-3.92 1.876-3.92 4.088 0 2.268 1.792 4.172 3.948 4.172 1.12 0 2.296-.56 3.052-1.4l2.716 2.296c-1.428 1.568-3.388 2.548-5.796 2.548Zm15.067 0c-4.312 0-7.924-3.472-7.924-7.588s3.612-7.56 7.924-7.56c4.284 0 7.868 3.444 7.868 7.56s-3.584 7.588-7.868 7.588Zm0-3.444c2.156 0 3.976-1.904 3.976-4.144s-1.82-4.116-3.976-4.116c-2.184 0-4.004 1.876-4.004 4.116 0 2.24 1.82 4.144 4.004 4.144Zm27.854-11.704c3.024 0 5.348 2.324 5.348 5.6v9.24h-3.92v-8.54c0-1.68-1.064-2.856-2.576-2.856-1.624 0-2.8 1.092-2.8 2.632v8.764h-3.92v-8.54c0-1.68-1.064-2.856-2.548-2.856-1.652 0-2.8 1.092-2.8 2.632V319h-4.088v-14.476h4.088v1.904c.7-1.372 2.128-2.24 3.92-2.24 1.988 0 3.696 1.008 4.592 2.632.756-1.596 2.548-2.632 4.704-2.632ZM125.904 353v-19.236h8.652c4.172 0 7.252 2.688 7.252 6.496 0 3.808-3.08 6.496-7.252 6.496h-4.536V353h-4.116Zm4.116-10.024h4.088c2.044 0 3.444-1.064 3.444-2.716 0-1.652-1.4-2.716-3.444-2.716h-4.088v5.432Zm20.724-4.788c3.78 0 6.356 2.38 6.356 6.16V353h-3.948v-1.456c-1.036 1.176-2.688 1.792-4.256 1.792-3.08 0-5.46-1.848-5.46-4.62 0-2.856 2.66-4.816 6.02-4.816 1.176 0 2.464.252 3.696.728v-.28c0-1.54-.952-2.884-3.332-2.884-1.344 0-2.604.448-3.752 1.036l-1.372-2.716c2.044-1.036 4.032-1.596 6.048-1.596Zm-.924 12.32c1.568 0 3.052-.728 3.332-2.072v-1.344a9.158 9.158 0 0 0-3.108-.532c-1.484 0-2.66.868-2.66 2.044 0 1.176 1.036 1.904 2.436 1.904Zm16.158 2.828c-2.324 0-4.788-.784-6.524-2.184l1.764-2.828c1.288.924 2.912 1.624 4.844 1.624 1.092 0 1.876-.448 1.876-1.092 0-.896-1.064-1.176-2.548-1.568-2.968-.728-5.264-1.54-5.292-4.396-.028-2.744 2.24-4.704 5.656-4.704 2.072 0 4.116.728 5.712 1.792l-1.652 2.912c-1.316-.812-2.828-1.288-4.06-1.288-1.008 0-1.708.364-1.708.868 0 .784.588 1.008 2.548 1.54 2.492.644 5.264 1.484 5.264 4.648 0 2.856-2.324 4.676-5.88 4.676Zm14.055 0c-2.324 0-4.788-.784-6.524-2.184l1.764-2.828c1.288.924 2.912 1.624 4.844 1.624 1.092 0 1.876-.448 1.876-1.092 0-.896-1.064-1.176-2.548-1.568-2.968-.728-5.264-1.54-5.292-4.396-.028-2.744 2.24-4.704 5.656-4.704 2.072 0 4.116.728 5.712 1.792l-1.652 2.912c-1.316-.812-2.828-1.288-4.06-1.288-1.008 0-1.708.364-1.708.868 0 .784.588 1.008 2.548 1.54 2.492.644 5.264 1.484 5.264 4.648 0 2.856-2.324 4.676-5.88 4.676Zm12.262-.336-4.928-14.476h4.004l2.744 9.016 2.856-9.016h3.388l2.856 9.016 2.744-9.016h4.004L205.035 353h-3.668l-2.688-9.1-2.716 9.1h-3.668Zm26.332.336c-4.312 0-7.924-3.472-7.924-7.588s3.612-7.56 7.924-7.56c4.284 0 7.868 3.444 7.868 7.56s-3.584 7.588-7.868 7.588Zm0-3.444c2.156 0 3.976-1.904 3.976-4.144s-1.82-4.116-3.976-4.116c-2.184 0-4.004 1.876-4.004 4.116 0 2.24 1.82 4.144 4.004 4.144Zm14.722-8.68c.952-1.876 2.744-3.024 4.956-3.024v3.444c-3.024 0-4.956 1.736-4.956 4.452V353h-4.088v-14.476h4.088v2.688Zm14.93 8.204.98 2.66c-.84.756-2.156 1.26-3.332 1.26-2.548 0-4.34-1.82-4.34-4.424v-7.084h-1.988v-3.304h1.988v-3.976h3.92v3.976h3.136v3.304h-3.136v6.44c0 .952.616 1.624 1.372 1.624.56 0 1.12-.196 1.4-.476ZM263.28 353l-4.928-14.476h4.004l2.744 9.016 2.856-9.016h3.388l2.856 9.016 2.744-9.016h4.004L276.02 353h-3.668l-2.688-9.1-2.716 9.1h-3.668Zm29.507-14.476h4.088V353h-4.088v-1.82c-.868 1.316-2.492 2.156-4.368 2.156-3.136 0-5.376-2.324-5.376-5.6v-9.212h3.948v8.344c0 1.792 1.12 3.024 2.744 3.024 1.708 0 3.024-1.232 3.024-2.8l.028.084v-8.652Zm11.683 2.688c.952-1.876 2.744-3.024 4.956-3.024v3.444c-3.024 0-4.956 1.736-4.956 4.452V353h-4.088v-14.476h4.088v2.688Zm18.122-7.784h4.088V353h-4.088v-2.072c-1.148 1.512-2.828 2.408-4.872 2.408-3.864 0-6.664-3.136-6.664-7.588 0-4.424 2.8-7.56 6.664-7.56 2.044 0 3.724.896 4.872 2.408v-7.168Zm-3.696 16.464c2.156 0 3.696-1.708 3.696-4.144 0-2.408-1.54-4.116-3.696-4.116-2.268 0-3.864 1.708-3.864 4.116 0 2.436 1.596 4.144 3.864 4.144Zm18.205-.168c1.148 0 2.548-.532 3.332-1.288l2.604 2.66c-1.288 1.344-3.78 2.24-5.908 2.24-4.312 0-7.672-3.164-7.672-7.616 0-4.368 3.22-7.532 7.448-7.532 4.536 0 7.196 3.444 7.196 8.904h-10.444c.476 1.568 1.736 2.632 3.444 2.632Zm-.028-7.924c-1.54 0-2.828.896-3.36 2.352h6.468c-.392-1.428-1.456-2.352-3.108-2.352Zm28.086-3.276h4.116v12.936c0 3.724-3.22 6.356-7.784 6.356-2.548 0-4.956-.812-6.384-1.932l1.428-2.884c.952.84 2.632 1.372 4.312 1.372 2.632 0 4.312-1.204 4.312-3.08v-1.596c-1.148 1.4-2.884 2.24-4.788 2.24-3.64 0-6.412-2.856-6.412-6.888s2.772-6.86 6.412-6.86c1.96 0 3.808.924 4.788 2.296v-1.96Zm-3.5 9.968c2.044 0 3.5-1.428 3.5-3.444s-1.456-3.416-3.5-3.416-3.5 1.4-3.5 3.416 1.456 3.444 3.5 3.444Zm18.043 1.232c1.148 0 2.548-.532 3.332-1.288l2.604 2.66c-1.288 1.344-3.78 2.24-5.908 2.24-4.312 0-7.672-3.164-7.672-7.616 0-4.368 3.22-7.532 7.448-7.532 4.536 0 7.196 3.444 7.196 8.904h-10.444c.476 1.568 1.736 2.632 3.444 2.632Zm-.028-7.924c-1.54 0-2.828.896-3.36 2.352h6.468c-.392-1.428-1.456-2.352-3.108-2.352Zm9.794 11.2v-19.572h4.088V353h-4.088Zm14.488-3.276c1.148 0 2.548-.532 3.332-1.288l2.604 2.66c-1.288 1.344-3.78 2.24-5.908 2.24-4.312 0-7.672-3.164-7.672-7.616 0-4.368 3.22-7.532 7.448-7.532 4.536 0 7.196 3.444 7.196 8.904h-10.444c.476 1.568 1.736 2.632 3.444 2.632Zm-.028-7.924c-1.54 0-2.828.896-3.36 2.352h6.468c-.392-1.428-1.456-2.352-3.108-2.352Zm16.262-3.612c3.78 0 6.356 2.38 6.356 6.16V353h-3.948v-1.456c-1.036 1.176-2.688 1.792-4.256 1.792-3.08 0-5.46-1.848-5.46-4.62 0-2.856 2.66-4.816 6.02-4.816 1.176 0 2.464.252 3.696.728v-.28c0-1.54-.952-2.884-3.332-2.884-1.344 0-2.604.448-3.752 1.036l-1.372-2.716c2.044-1.036 4.032-1.596 6.048-1.596Zm-.924 12.32c1.568 0 3.052-.728 3.332-2.072v-1.344a9.158 9.158 0 0 0-3.108-.532c-1.484 0-2.66.868-2.66 2.044 0 1.176 1.036 1.904 2.436 1.904Zm24.809-11.984-5.628 6.412 5.572 8.064h-4.704l-3.584-5.432-1.736 1.876V353h-4.088v-19.572h4.088v11.34l5.376-6.244h4.704Zm9.528 10.892.98 2.66c-.84.756-2.156 1.26-3.332 1.26-2.548 0-4.34-1.82-4.34-4.424v-7.084h-1.988v-3.304h1.988v-3.976h3.92v3.976h3.136v3.304h-3.136v6.44c0 .952.616 1.624 1.372 1.624.56 0 1.12-.196 1.4-.476Z"/><rect width="44.138" height="6.621" x="155" y="205" fill="#592ACB" rx="3.31"/><rect width="44.138" height="6.621" x="207.966" y="205" fill="#592ACB" rx="3.31"/><rect width="129.103" height="6.621" x="260.931" y="205" fill="#D9BFFF" rx="3.31"/><path fill="#592ACB" d="M304.914 228.86c-.362-1.142-1.228-1.848-2.507-1.848-1.631 0-2.877 1.284-2.877 3.616 0 2.342 1.236 3.626 2.934 3.626 1.542 0 2.567-.983 2.6-2.535h-2.379v-1.199h3.785v1.096c0 2.431-1.669 3.964-4.006 3.964-2.61 0-4.378-1.895-4.378-4.942 0-3.075 1.82-4.952 4.312-4.952 2.078 0 3.682 1.298 4.006 3.174h-1.49Zm6.4 6.734c-2.13 0-3.437-1.467-3.437-3.71 0-2.219 1.326-3.752 3.339-3.752 1.636 0 3.197 1.02 3.197 3.63v.498h-5.135c.038 1.392.847 2.173 2.051 2.173.799 0 1.41-.348 1.664-1.03l1.331.24c-.32 1.175-1.434 1.951-3.01 1.951Zm-2.031-4.387h3.752c-.004-1.105-.719-1.914-1.81-1.914-1.143 0-1.885.889-1.942 1.914Zm8.096-5.389v9.63h-1.406v-9.63h1.406Zm5.004 9.776c-2.13 0-3.437-1.467-3.437-3.71 0-2.219 1.326-3.752 3.339-3.752 1.636 0 3.197 1.02 3.197 3.63v.498h-5.135c.038 1.392.847 2.173 2.051 2.173.799 0 1.41-.348 1.664-1.03l1.331.24c-.32 1.175-1.434 1.951-3.01 1.951Zm-2.031-4.387h3.752c-.004-1.105-.719-1.914-1.81-1.914-1.143 0-1.885.889-1.942 1.914Zm8.792 4.401c-1.373 0-2.44-.78-2.44-2.201 0-1.641 1.401-1.998 2.769-2.158 1.298-.15 1.825-.141 1.825-.653v-.033c0-.819-.466-1.293-1.373-1.293-.946 0-1.472.493-1.679 1.006l-1.321-.301c.47-1.317 1.674-1.843 2.981-1.843 1.147 0 2.802.418 2.802 2.52v4.796h-1.373v-.987h-.056c-.268.541-.941 1.147-2.135 1.147Zm.306-1.128c1.17 0 1.852-.781 1.852-1.637v-.931c-.202.202-1.283.325-1.739.386-.814.108-1.482.376-1.482 1.128 0 .696.574 1.054 1.369 1.054Zm5.131.968v-9.63h1.406v5.464h.122l2.878-3.056h1.683l-2.925 3.098 3.123 4.124h-1.726l-2.455-3.263-.7.701v2.562h-1.406Zm10.742-7.222v1.128h-1.481v3.974c0 .813.409.963.865.963.226 0 .4-.042.494-.061l.254 1.162a2.685 2.685 0 0 1-.912.15c-1.11.024-2.112-.611-2.107-1.923v-4.265h-1.058v-1.128h1.058v-1.731h1.406v1.731h1.481Zm4.591 7.368c-2.13 0-3.438-1.467-3.438-3.71 0-2.219 1.326-3.752 3.339-3.752 1.636 0 3.197 1.02 3.197 3.63v.498h-5.134c.037 1.392.846 2.173 2.05 2.173.799 0 1.41-.348 1.664-1.03l1.331.24c-.32 1.175-1.434 1.951-3.009 1.951Zm-2.032-4.387h3.753c-.005-1.105-.72-1.914-1.811-1.914-1.142 0-1.885.889-1.942 1.914Zm-68.177 24.241v-9.63h3.432c2.238 0 3.334 1.345 3.334 3.118 0 1.777-1.105 3.127-3.339 3.127h-1.974v3.385h-1.453Zm1.453-4.617h1.843c1.42 0 2.008-.804 2.008-1.895s-.588-1.872-2.027-1.872h-1.824v3.767Zm8.941 4.777c-1.373 0-2.441-.78-2.441-2.201 0-1.641 1.402-1.998 2.77-2.158 1.298-.15 1.824-.141 1.824-.653v-.033c0-.819-.465-1.293-1.373-1.293-.945 0-1.471.493-1.678 1.006l-1.322-.301c.471-1.317 1.674-1.843 2.982-1.843 1.147 0 2.802.418 2.802 2.52v4.796h-1.373v-.987h-.056c-.268.541-.941 1.147-2.135 1.147Zm.305-1.128c1.171 0 1.853-.781 1.853-1.637v-.931c-.202.202-1.284.325-1.74.386-.813.108-1.481.376-1.481 1.128 0 .696.574 1.054 1.368 1.054Zm10.544-4.491-1.274.226c-.165-.485-.569-.969-1.444-.969-.799 0-1.401.395-1.397.95-.004.489.339.757 1.134.945l1.147.263c1.326.306 1.975.936 1.975 1.956 0 1.308-1.209 2.234-2.953 2.234-1.622 0-2.685-.719-2.92-1.998l1.359-.207c.169.71.71 1.072 1.552 1.072.921 0 1.518-.438 1.518-.997 0-.452-.324-.762-1.02-.917l-1.223-.268c-1.354-.301-1.974-.983-1.974-2.008 0-1.279 1.156-2.139 2.788-2.139 1.561 0 2.44.733 2.732 1.857Zm7.099 0-1.274.226c-.165-.485-.569-.969-1.444-.969-.799 0-1.401.395-1.396.95-.005.489.338.757 1.133.945l1.147.263c1.326.306 1.975.936 1.975 1.956 0 1.308-1.208 2.234-2.953 2.234-1.622 0-2.685-.719-2.92-1.998l1.359-.207c.169.71.71 1.072 1.552 1.072.921 0 1.519-.438 1.519-.997 0-.452-.325-.762-1.021-.917l-1.222-.268c-1.355-.301-1.975-.983-1.975-2.008 0-1.279 1.156-2.139 2.788-2.139 1.561 0 2.44.733 2.732 1.857Zm3.253 5.459-2.126-7.222h1.453l1.416 5.304h.07l1.42-5.304h1.453l1.411 5.28h.07l1.406-5.28h1.453l-2.12 7.222h-1.434l-1.468-5.215h-.108l-1.467 5.215H311.3Zm12.183.146c-2.036 0-3.367-1.491-3.367-3.724 0-2.248 1.331-3.738 3.367-3.738s3.367 1.49 3.367 3.738c0 2.233-1.331 3.724-3.367 3.724Zm.005-1.18c1.321 0 1.942-1.162 1.942-2.549 0-1.382-.621-2.558-1.942-2.558-1.331 0-1.952 1.176-1.952 2.558 0 1.387.621 2.549 1.952 2.549Zm-1.387-7.322c-.442 0-.833-.38-.833-.818 0-.465.391-.823.833-.823a.81.81 0 0 1 .827.823.823.823 0 0 1-.827.818Zm2.765 0c-.442 0-.833-.38-.833-.818 0-.465.391-.823.833-.823a.81.81 0 0 1 .827.823.823.823 0 0 1-.827.818Zm3.553 8.356v-7.222h1.359v1.147h.075c.264-.776.988-1.255 1.834-1.255.179 0 .456.014.597.032v1.345a3.317 3.317 0 0 0-.733-.084c-.997 0-1.726.681-1.726 1.627v4.41h-1.406Zm8.88-7.222v1.128h-1.481v3.974c0 .813.409.963.865.963.226 0 .4-.042.494-.061l.254 1.162a2.68 2.68 0 0 1-.912.15c-1.11.024-2.111-.611-2.107-1.923v-4.265h-1.058v-1.128h1.058v-1.731h1.406v1.731h1.481Zm4.591 7.368c-2.13 0-3.437-1.467-3.437-3.71 0-2.219 1.326-3.752 3.338-3.752 1.637 0 3.198 1.02 3.198 3.63v.498h-5.135c.037 1.392.846 2.173 2.05 2.173.799 0 1.411-.348 1.665-1.03l1.33.24c-.319 1.175-1.434 1.951-3.009 1.951Zm-2.031-4.387h3.752c-.005-1.105-.72-1.914-1.81-1.914-1.143 0-1.886.889-1.942 1.914Zm6.69 4.241v-7.222h1.359v1.147h.075c.263-.776.987-1.255 1.834-1.255.178 0 .456.014.597.032v1.345a3.328 3.328 0 0 0-.734-.084c-.997 0-1.725.681-1.725 1.627v4.41h-1.406Zm8.995-4.815c0-2.356.63-4.321 1.824-5.995h1.289c-.927 1.241-1.655 3.762-1.655 5.995 0 2.238.728 4.759 1.655 6h-1.289c-1.194-1.674-1.824-3.639-1.824-6Zm4.576 4.815v-1.053l3.259-3.376c1.034-1.096 1.542-1.707 1.542-2.558 0-.959-.743-1.561-1.721-1.561-1.039 0-1.707.677-1.702 1.711h-1.387c0-1.758 1.317-2.925 3.117-2.925 1.815 0 3.076 1.185 3.076 2.732 0 1.077-.503 1.928-2.267 3.71l-1.914 2.004v.07h4.336v1.246h-6.339Zm10.844-4.81c0 2.356-.631 4.321-1.825 5.995h-1.288c.926-1.241 1.655-3.762 1.655-5.995 0-2.238-.729-4.759-1.655-6h1.288c1.194 1.674 1.825 3.639 1.825 6Z"/><rect width="44.138" height="6.621" x="398.862" y="205" fill="#9E9E9E" rx="3.31"/><rect width="351" height="40" x="124" y="388" fill="#592ACB" rx="4"/><path fill="#fff" d="M250.67 410.29h5.295V412h-7.155v-10.305h1.86v8.595Zm10.369.27c.72 0 1.575-.33 2.01-.78l1.155 1.2c-.675.72-2.025 1.2-3.15 1.2-2.22 0-4.05-1.695-4.05-4.08 0-2.325 1.74-4.035 3.945-4.035 2.4 0 3.795 1.815 3.795 4.68h-5.85c.225 1.065 1.035 1.815 2.145 1.815Zm-.015-4.875c-1.02 0-1.845.645-2.115 1.665h4.08c-.21-.975-.87-1.665-1.965-1.665Zm8.681-1.62c2.055 0 3.33 1.305 3.33 3.27V412h-1.785v-.93c-.57.72-1.545 1.11-2.445 1.11-1.65 0-2.895-.975-2.895-2.475 0-1.53 1.425-2.58 3.165-2.58.705 0 1.47.15 2.175.42v-.21c0-.9-.495-1.77-1.905-1.77-.735 0-1.44.255-2.1.585l-.63-1.275c1.095-.54 2.115-.81 3.09-.81Zm-.495 6.78c.885 0 1.83-.45 2.04-1.275v-.87a5.9 5.9 0 0 0-1.905-.3c-.915 0-1.65.51-1.65 1.245 0 .735.645 1.2 1.515 1.2Zm13.127-6.6-3.195 3.465 3.09 4.29h-2.13l-2.19-3.09-1.095 1.155V412h-1.83v-10.485h1.83v6.405l3.36-3.675h2.16Zm9.926-.18c2.055 0 3.555 1.68 3.555 4.05 0 2.385-1.5 4.065-3.555 4.065-1.155 0-2.085-.525-2.7-1.41V412h-1.83v-10.485h1.83v3.96c.615-.885 1.545-1.41 2.7-1.41Zm-.495 6.555c1.305 0 2.235-1.05 2.235-2.505 0-1.455-.93-2.49-2.235-2.49-1.29 0-2.19 1.035-2.19 2.49 0 1.455.9 2.505 2.19 2.505Zm9.32-.06c.72 0 1.575-.33 2.01-.78l1.155 1.2c-.675.72-2.025 1.2-3.15 1.2-2.22 0-4.05-1.695-4.05-4.08 0-2.325 1.74-4.035 3.945-4.035 2.4 0 3.795 1.815 3.795 4.68h-5.85c.225 1.065 1.035 1.815 2.145 1.815Zm-.015-4.875c-1.02 0-1.845.645-2.115 1.665h4.08c-.21-.975-.87-1.665-1.965-1.665Zm9.536-1.62c1.695 0 2.88 1.245 2.88 3V412h-1.77v-4.575c0-1.05-.675-1.8-1.635-1.8-1.035 0-1.89.75-1.89 1.68V412h-1.83v-10.485h1.83v3.795c.465-.75 1.38-1.245 2.415-1.245Zm8.482 6.495c.72 0 1.575-.33 2.01-.78l1.155 1.2c-.675.72-2.025 1.2-3.15 1.2-2.22 0-4.05-1.695-4.05-4.08 0-2.325 1.74-4.035 3.945-4.035 2.4 0 3.795 1.815 3.795 4.68h-5.85c.225 1.065 1.035 1.815 2.145 1.815Zm-.015-4.875c-1.02 0-1.845.645-2.115 1.665h4.08c-.21-.975-.87-1.665-1.965-1.665Zm9.881-1.62c2.055 0 3.555 1.68 3.555 4.05 0 2.385-1.5 4.065-3.555 4.065-1.155 0-2.085-.525-2.7-1.41V412h-1.83v-10.485h1.83v3.96c.615-.885 1.545-1.41 2.7-1.41Zm-.495 6.555c1.305 0 2.235-1.05 2.235-2.505 0-1.455-.93-2.49-2.235-2.49-1.29 0-2.19 1.035-2.19 2.49 0 1.455.9 2.505 2.19 2.505Zm9.32-.06c.72 0 1.575-.33 2.01-.78l1.155 1.2c-.675.72-2.025 1.2-3.15 1.2-2.22 0-4.05-1.695-4.05-4.08 0-2.325 1.74-4.035 3.945-4.035 2.4 0 3.795 1.815 3.795 4.68h-5.85c.225 1.065 1.035 1.815 2.145 1.815Zm-.015-4.875c-1.02 0-1.845.645-2.115 1.665h4.08c-.21-.975-.87-1.665-1.965-1.665Zm9.536-1.62c1.695 0 2.88 1.245 2.88 3V412h-1.77v-4.575c0-1.05-.675-1.8-1.635-1.8s-1.755.645-1.875 1.47V412h-1.83v-7.755h1.83v1.035c.48-.72 1.38-1.215 2.4-1.215Z"/></g><defs><linearGradient id="b" x1="536.816" x2="536.816" y1="137.926" y2="229.576" gradientUnits="userSpaceOnUse"><stop stop-color="#8060FE"/><stop offset="1" stop-color="#626BFA"/></linearGradient><linearGradient id="d" x1="192.726" x2="174.795" y1="101.129" y2="132.183" gradientUnits="userSpaceOnUse"><stop stop-color="#FF980E"/><stop offset=".21" stop-color="#FF7139"/><stop offset=".36" stop-color="#FF5854"/><stop offset=".46" stop-color="#FF4F5E"/><stop offset=".69" stop-color="#FF3750"/><stop offset=".86" stop-color="#F92261"/><stop offset="1" stop-color="#F5156C"/></linearGradient><linearGradient id="e" x1="192.726" x2="174.795" y1="101.129" y2="132.183" gradientUnits="userSpaceOnUse"><stop stop-color="#FFF44F" stop-opacity=".8"/><stop offset=".09" stop-color="#FFF44F" stop-opacity=".7"/><stop offset=".75" stop-color="#FFF44F" stop-opacity="0"/></linearGradient><linearGradient id="f" x1="194.178" x2="194.178" y1="137.181" y2="98.705" gradientUnits="userSpaceOnUse"><stop stop-color="#3A8EE6"/><stop offset=".24" stop-color="#5C79F0"/><stop offset=".63" stop-color="#9059FF"/><stop offset="1" stop-color="#C139E6"/></linearGradient><linearGradient id="g" x1="187.637" x2="203.628" y1="98.566" y2="114.556" gradientUnits="userSpaceOnUse"><stop stop-color="#6E008B" stop-opacity=".5"/><stop offset=".5" stop-color="#C846CB" stop-opacity="0"/></linearGradient><linearGradient id="h" x1="202.122" x2="194.612" y1="118.347" y2="125.856" gradientUnits="userSpaceOnUse"><stop offset=".14" stop-color="#6A2BEA" stop-opacity="0"/><stop offset=".34" stop-color="#642DE4" stop-opacity=".03"/><stop offset=".55" stop-color="#5131D3" stop-opacity=".12"/><stop offset=".76" stop-color="#3139B7" stop-opacity=".27"/><stop offset=".98" stop-color="#054490" stop-opacity=".48"/><stop offset="1" stop-color="#00458B" stop-opacity=".5"/></linearGradient><linearGradient id="i" x1="190.076" x2="192.253" y1="124.805" y2="127.401" gradientUnits="userSpaceOnUse"><stop stop-color="#960E18" stop-opacity=".6"/><stop offset=".19" stop-color="#AC1624" stop-opacity=".48"/><stop offset=".58" stop-color="#E42C41" stop-opacity=".16"/><stop offset=".75" stop-color="#FF3750" stop-opacity="0"/></linearGradient><clipPath id="a"><rect width="620" height="450" fill="#fff" rx="15"/></clipPath></defs></svg>
