<svg xmlns="http://www.w3.org/2000/svg" xmlns:xlink="http://www.w3.org/1999/xlink" xmlns:a="http://ns.adobe.com/AdobeSVGViewerExtensions/3.0/" version="1.1" x="0px" y="0px" width="24px" height="24px" viewBox="0 0 24 24" overflow="visible" enable-background="new 0 0 24 24" xml:space="preserve"><style>.style0{fill:  #FFFFFF;}.style1{fill:  #E66000;}</style><defs></defs><circle cx="12" cy="12" r="11.4" class="style0"/><path d="M6 1.6C7.84 0.6 9.8 0 12 0s4.16 0.6 6 1.6s3.28 2.6 4.4 4.4c1.04 1.8 1.6 3.8 1.6 6s-0.56 4.16-1.6 6 c-1.04 1.84-2.56 3.28-4.4 4.4c-1.84 1.04-3.84 1.6-6 1.6s-4.16-0.56-6-1.6c-1.84-1.04-3.28-2.56-4.4-4.4C0.56 16.2 0 14.2 0 12 s0.56-4.16 1.6-6C2.72 4.2 4.2 2.7 6 1.6z M13.76 13.92L14 5.2c0-0.08-0.08-0.16-0.16-0.24C13.76 4.8 13.7 4.8 13.5 4.8H10.4 c-0.16 0-0.24 0-0.32 0.08S9.92 5 9.9 5.12l0.24 8.72c0 0.1 0.1 0.2 0.2 0.24c0.08 0.1 0.2 0.1 0.3 0.08h2.64 c0.16 0 0.2 0 0.32-0.08C13.68 14.1 13.8 14 13.8 13.92z M13.84 18.72v-2.64c0-0.16-0.08-0.24-0.16-0.32s-0.16-0.16-0.32-0.16 h-2.72c-0.16 0-0.24 0.08-0.32 0.16c-0.08 0.08-0.16 0.24-0.16 0.32v2.64c0 0.2 0.1 0.2 0.2 0.32c0.08 0.1 0.2 0.2 0.3 0.2 h2.72c0.16 0 0.24-0.08 0.32-0.16S13.84 18.9 13.8 18.72z" class="style1"/></svg>
