<?xml version="1.0" encoding="utf-8"?>
<!-- Generator: Adobe Illustrator 15.0.2, SVG Export Plug-In . SVG Version: 6.00 Build 0)  -->
<!DOCTYPE svg PUBLIC "-//W3C//DTD SVG 1.1//EN" "http://www.w3.org/Graphics/SVG/1.1/DTD/svg11.dtd">
<svg version="1.1" id="Layer_1" xmlns="http://www.w3.org/2000/svg" xmlns:xlink="http://www.w3.org/1999/xlink" x="0px" y="0px"
	 width="65px" height="65px" viewBox="0 0 65 65" enable-background="new 0 0 65 65" xml:space="preserve">
<circle fill="#83CFED" cx="32.5" cy="32.666" r="31.334"/>
<g>
	<g>
		<defs>
			<circle id="SVGID_1_" cx="32.5" cy="32.666" r="31.334"/>
		</defs>
		<clipPath id="SVGID_2_">
			<use xlink:href="#SVGID_1_"  overflow="visible"/>
		</clipPath>
		<g clip-path="url(#SVGID_2_)">
			<circle fill="#B4DDED" cx="30.101" cy="10.932" r="1.467"/>
			<circle fill="#B4DDED" cx="41.967" cy="9.466" r="2.467"/>
			<circle fill="#B4DDED" cx="44.7" cy="13.732" r="1.2"/>
			<circle fill="#B4DDED" cx="54.7" cy="23.932" r="2.467"/>
			<circle fill="#B4DDED" cx="51.034" cy="30.333" r="1.2"/>
			<circle fill="#B4DDED" cx="15.1" cy="39.799" r="2.067"/>
			<circle fill="#B4DDED" cx="9.3" cy="37.466" r="1.333"/>
		</g>
	</g>
</g>
<g>
	<g>
		<defs>
			<circle id="SVGID_3_" cx="32.5" cy="32.666" r="31.334"/>
		</defs>
		<clipPath id="SVGID_4_">
			<use xlink:href="#SVGID_3_"  overflow="visible"/>
		</clipPath>
		<g clip-path="url(#SVGID_4_)">
			<g>
				<g>
					<g>
						<path fill="#FFFFFF" d="M22.633,23.732c-1.333,1.066-3.267,0.8-4.267-0.467c-1.067-1.332-0.8-3.267,0.467-4.267
							c1.333-1.067,3.268-0.8,4.268,0.466C24.167,20.799,23.899,22.666,22.633,23.732z M19.9,20.332
							c-0.533,0.467-0.667,1.2-0.2,1.801c0.466,0.532,1.2,0.666,1.8,0.199c0.532-0.466,0.667-1.199,0.2-1.8S20.5,19.932,19.9,20.332
							z"/>
					</g>
				</g>
				<g>
					<g>
						<polygon fill="#CACED1" points="41.901,26.332 38.034,29.399 37.233,20.399 						"/>
						<g>
							<g>
								<path fill="#FFFFFF" d="M41.967,38.199c-3.133,2.533-7.733,2-10.267-1.199L20.767,23.199l1.733-1.4L33.435,35.6
									c1.731,2.199,4.934,2.6,7.133,0.8s2.6-4.935,0.801-7.134l-3.533-4.533l1.732-1.4l3.6,4.534
									C45.633,31.066,45.101,35.666,41.967,38.199z"/>
							</g>
						</g>
					</g>
					<g>
						<path fill="#DADBDB" d="M32.565,36.266L21.633,22.533L20.767,23.2L31.7,37.001c2.201,2.8,6.533,3.8,9.933,1.466
							c0.201-0.134-0.532-0.267-0.334-0.466C39.233,39.6,34.835,39.199,32.565,36.266z"/>
						<path fill="#C1C4C7" d="M43.167,27.932l-5.934-7.467l1.668,3.867l3.397,4.333c1.603,2.065,2.535,6.601-1.133,9.468
							c-0.935,0.732-0.267,0.934,0.467,0.332C46.435,34.799,44.767,29.999,43.167,27.932z"/>
					</g>
					<g>
						<path fill="#F69CA5" d="M40.501,56.666c-0.666-0.066-1.334-0.267-1.934-0.6c-1.269-0.734-2.199-2-2.601-3.467
							c-0.2-0.733,0.199-1.467,0.935-1.668c0.731-0.199,1.467,0.201,1.666,0.935c0.199,0.8,0.731,1.466,1.334,1.866
							c0.6,0.334,1.332,0.4,2.199,0.134c1.399-0.399,2.467-1.601,2.334-2.667c-0.136-1.4-1.066-1.867-3.334-2.666
							c-1.267-0.467-2.666-0.934-3.867-1.934c-0.865-0.733-1.666-1.867-2.267-3.135c-2.2,0.268-3.467,0.668-3.935,2.467
							c-0.199,0.733-0.932,1.135-1.6,0.935c-0.732-0.2-1.133-0.935-0.933-1.601c0.866-3.267,3.333-4.066,5.733-4.399
							c-0.267-1.8,0-3.601,1.201-5c1.6-1.866,4.133-1.601,5.731-0.467c1.733,1.267,2.2,3.267,1.133,5
							c-1.065,1.733-2.731,2.399-4.397,2.667c0.332,0.533,0.731,1.066,1.199,1.467c0.733,0.666,1.801,1,2.934,1.398
							c2.133,0.733,4.732,1.668,5.066,4.867c0.268,2.601-1.935,4.866-4.267,5.532C42.034,56.666,41.233,56.732,40.501,56.666z
							 M38.567,37.266c-0.4-0.066-0.867,0.065-1.199,0.467c-0.602,0.667-0.734,1.801-0.533,2.934c1.533-0.267,2.533-0.6,3.133-1.533
							c0.4-0.666-0.066-1.199-0.467-1.399C39.299,37.467,38.967,37.266,38.567,37.266z"/>
					</g>
					<path fill="#C890BE" d="M37.835,43.133c0.398,0.666,0.732,1.066,1.199,1.467c0.732,0.666,1.801,1,2.934,1.4l-0.334,0.666
						c0,0-1.533,0.2-2.666-0.533C38.3,45.666,37.167,45,36.435,43.332C36.7,43.332,37.368,43.199,37.835,43.133z"/>
					<g>
						<path fill="#C890BE" d="M29.633,47c-0.065,0-0.133,0-0.2-0.066c-0.267-0.066-0.467-0.2-0.666-0.399
							c2,0.467,0.6-2.467,3.799-3.601c3.133-1.135,6.334-0.668,8.467-2.602c1.066-0.933,0.468-2.6,0.4-3c-0.4-2-3.201-3.332-6-1.398
							c1.6-1.866,4.133-1.602,5.732-0.467c1.734,1.267,2.201,3.267,1.133,5c-1.465,2.399-4.133,2.732-6.465,3
							c-2.668,0.332-4.268,0.601-4.734,2.601C30.899,46.666,30.233,47.066,29.633,47z"/>
					</g>
					<g>
						<path fill="#F7ADB7" d="M44.501,51.332c-0.533-0.066-1-0.266-1.4-0.666c-0.666-0.732-2.399-1.267-3.133-1.533
							c-1.201-0.399-1.801-1.666-1.4-2.801c0.4-1.199,1.666-1.799,2.802-1.398c1.864,0.601,3.731,1.332,5,2.732
							c0.864,0.934,0.799,2.334-0.136,3.133C45.767,51.199,45.167,51.399,44.501,51.332z"/>
					</g>
					<g>
						<path fill="#F69CA5" d="M40.501,56.666c-0.666-0.066-1.334-0.267-1.934-0.6c-1.269-0.734-2.199-2-2.601-3.467
							c-0.2-0.733,0.199-1.467,0.935-1.668c0.731-0.199,1.467,0.201,1.666,0.935c0.199,0.8,0.731,1.466,1.334,1.866
							c0.6,0.334,1.332,0.4,2.199,0.134c1.399-0.399,2.467-1.601,2.334-2.667c-0.066-0.4-0.136-0.666-0.269-0.934
							c-0.399-0.666-0.199-1.467,0.467-1.866s1.468-0.2,1.867,0.467c0.334,0.601,0.601,1.267,0.666,2
							c0.269,2.601-1.935,4.866-4.267,5.533C42.034,56.666,41.233,56.732,40.501,56.666z"/>
					</g>
					<g>
						<path fill="#C890BE" d="M40.501,56.666c-0.666-0.066-1.334-0.267-1.934-0.6c-1.269-0.734-2.199-2-2.601-3.467
							c-0.2-0.733,0.199-1.467,0.935-1.668c0.133,4.533,3.934,4.602,4.865,4.533c2-0.065,6.334-3.267,2.866-7
							c0.666-0.398,1.468-0.199,1.867,0.467c0.334,0.602,0.601,1.268,0.666,2c0.269,2.602-1.935,4.867-4.267,5.533
							C42.034,56.666,41.233,56.732,40.501,56.666z"/>
					</g>
					<g>
						<polygon fill="#FFFFFF" points="41.901,26.332 38.034,29.399 37.233,20.399 						"/>
						<polygon fill="#C1C4C7" points="40.233,27.732 38.034,29.399 39.167,26.467 						"/>
						<g>
							<g>
								<path fill="#FFFFFF" d="M43.167,27.932l-3.6-4.532l-1.732,1.333l3.6,4.533c1.732,2.201,1.4,5.4-0.801,7.134
									c-0.666,0.532-1.4,0.8-2.133,1c-0.066,0.733-0.6,1.532-0.334,2.267c1.334-0.133,2.668-0.6,3.801-1.533
									C45.101,35.666,45.633,31.066,43.167,27.932z"/>
							</g>
						</g>
					</g>
					<g>
						<path fill="#DADBDB" d="M41.299,38c-0.799,0.6-1.933,0.934-3.198,0.934c-0.066,0.267-0.066,0.533,0.065,0.8
							c1.2-0.134,2.399-0.533,3.467-1.267C41.835,38.266,41.101,38.133,41.299,38z"/>
						<path fill="#DADBDB" d="M43.167,27.932l-5.934-7.467l1.668,3.867l3.397,4.333c1.603,2.065,2.535,6.601-1.133,9.468
							c-0.935,0.732-0.267,0.934,0.467,0.332C46.435,34.799,44.767,29.999,43.167,27.932z"/>
					</g>
					
						<ellipse transform="matrix(-0.6647 -0.7471 0.7471 -0.6647 17.526 47.2132)" fill="none" stroke="#D6ECF6" stroke-miterlimit="10" cx="19.357" cy="19.674" rx="1.333" ry="0.867"/>
					<path fill="#FFFFFF" d="M23.101,19.467c-1.068-1.334-3-1.533-4.268-0.467l0,0l1.2,1.333c0.534-0.399,1.333-0.267,1.734,0.2
						c0.467,0.533,0.332,1.333-0.201,1.8c-0.467,0.4-1.132,0.333-1.6-0.065l-0.2,1.933c0.934,0.333,2.067,0.2,2.934-0.466
						C23.899,22.666,24.167,20.799,23.101,19.467z"/>
					<line fill="none" stroke="#D6ECF6" stroke-miterlimit="10" x1="18.367" y1="18.6" x2="-11.9" y2="-18.734"/>
				</g>
			</g>
			<path fill="#C890BE" d="M35.767,40.666l1.067-0.133c0,0-0.136-0.533-0.067-1.201c0.067-0.933,0.399-1.865,1.467-2.133
				c0,0-1.865-0.133-2.332,1.801C35.7,40.066,35.767,40.666,35.767,40.666z"/>
		</g>
	</g>
</g>
</svg>
