<?xml version="1.0" encoding="utf-8"?>
<!-- Generator: Adobe Illustrator 15.0.2, SVG Export Plug-In  -->
<!DOCTYPE svg PUBLIC "-//W3C//DTD SVG 1.1//EN" "http://www.w3.org/Graphics/SVG/1.1/DTD/svg11.dtd" [
	<!ENTITY ns_flows "http://ns.adobe.com/Flows/1.0/">
]>
<svg version="1.1"
	 xmlns="http://www.w3.org/2000/svg" xmlns:xlink="http://www.w3.org/1999/xlink" xmlns:a="http://ns.adobe.com/AdobeSVGViewerExtensions/3.0/"
	 x="0px" y="0px" width="64px" height="64px" viewBox="-0.667 -0.667 64 64"
	 overflow="visible" enable-background="new -0.667 -0.667 64 64" xml:space="preserve">
<defs>
</defs>
<circle fill="#83CFED" cx="31.333" cy="31.334" r="31.334"/>
<g>
	<defs>
		<circle id="SVGID_2_" cx="31.333" cy="31.334" r="31.334"/>
	</defs>
	<clipPath id="SVGID_3_">
		<use xlink:href="#SVGID_2_"  overflow="visible"/>
	</clipPath>
	<g clip-path="url(#SVGID_3_)">
		<g>
			<path fill="none" stroke="#0B84B4" stroke-width="6" stroke-miterlimit="10" d="M12.867,40.267c-1.867-1.867-1.867-5,0-6.867
				c1.867-1.866,5-1.866,6.867,0"/>
			<path fill="none" stroke="#0B84B4" stroke-width="6" stroke-miterlimit="10" d="M6.267,54.333c-1.466-1.467-1.466-3.8,0-5.2
				c1.467-1.466,3.8-1.466,5.2,0"/>
			<path fill="none" stroke="#0B84B4" stroke-width="6" stroke-miterlimit="10" d="M38.6,36.534c2.134,2.134,2.134,5.667,0,7.8
				s-5.667,2.133-7.8,0"/>
			<path fill="none" stroke="#0B84B4" stroke-width="6" stroke-miterlimit="10" d="M20.667,48.067c1.4,1.399,1.4,3.733,0,5.134
				c-1.4,1.399-3.733,1.399-5.133,0"/>
			<path fill="none" stroke="#0B84B4" stroke-width="6" stroke-miterlimit="10" d="M22.8,20.733c-2.667-2.667-2.667-7,0-9.733
				c2.667-2.733,7-2.667,9.733,0"/>
			<line fill="none" stroke="#0B84B4" stroke-width="6" stroke-miterlimit="10" x1="12.8" y1="40.201" x2="20.733" y2="48.133"/>
			<line fill="none" stroke="#0B84B4" stroke-width="6" stroke-miterlimit="10" x1="11.467" y1="49.067" x2="15.6" y2="53.201"/>
			<line fill="none" stroke="#0B84B4" stroke-width="6" stroke-miterlimit="10" x1="22.733" y1="20.733" x2="38.6" y2="36.6"/>
			<line fill="none" stroke="#0B84B4" stroke-width="6" stroke-miterlimit="10" x1="19.733" y1="33.333" x2="30.733" y2="44.4"/>
		</g>
		<path fill="#0B84B4" d="M32.933,9.333l-1.733,2.4l0.333,3l5.6,5.4c0,0,4.934-4.866,4.667-5C41.6,15,36.4,10,36.4,10L32.933,9.333z
			"/>
		<path fill="#026795" d="M39.067,12.534l-4.8,4.866l2.934,2.8c0,0,4.933-4.867,4.666-5C41.8,15.067,40.8,14.2,39.067,12.534z"/>
		<path fill="#045C7D" d="M36.933,18.733l-1.066-1.066c-0.199-0.2-0.199-0.534,0-0.667l2.867-2.933c0.199-0.2,0.533-0.2,0.666,0
			l1.066,1.066c0.201,0.2,0.201,0.534,0,0.667l-2.799,2.867C37.466,18.867,37.133,18.867,36.933,18.733z"/>
		<g>
			<g>
				<path fill="#A74F9E" d="M57.333,30.333c-0.267-1.133-0.8-2.267-1.2-3.333c-0.399-1.066-0.933-2.133-1.6-3.066
					c-1.067-1.4-2.534-2.467-4-3.333c-2.333-1.333-4.534-2.933-6.866-4.4c-1.201-0.8-3.801-1.467-5.201-1.867l-2.333,2.4
					C36,16.934,37.534,19.8,37.667,20c0.466,0.8,1.066,1.667,1.199,2.6c0.2,1.067,0.533,2.067,1,3.067
					c1.133,2.4,2.467,4.733,4.066,6.933c1.334,1.934,3.268,3.333,5.667,3.667c1.467,0.199,2.934,0.066,4.333-0.4
					c1.134-0.4,2.334-1,3-2C57.466,32.867,57.6,31.534,57.333,30.333z"/>
			</g>
			<path fill="#913E8C" d="M53.933,33.201c-2.399-0.067-4.732-0.801-6.6-2.267c-2.666-2.067-4.066-5.267-5.4-8.333
				c-1.133-2.6-2.399-5.333-4.399-7.267c-0.667,0.667-1.4,1.4-1.4,1.467c-0.134,0.2,1.4,3.066,1.534,3.267
				c0.466,0.8,1.066,1.667,1.199,2.6c0.2,1.066,0.533,2.066,1,3.066c1.133,2.4,2.467,4.733,4.066,6.934
				C45.267,34.6,47.201,36,49.6,36.333c1.467,0.2,2.934,0.066,4.333-0.4c1.134-0.399,2.334-1,3-2c0.2-0.333,0.4-0.666,0.467-1.066
				C56.201,33.067,55.067,33.201,53.933,33.201z"/>
			
				<ellipse transform="matrix(0.0068 -1 1 0.0068 17.9265 82.1832)" opacity="0.3" fill="#2F2A2B" enable-background="new    " cx="50.334" cy="32.067" rx="3.6" ry="4.866"/>
			<path fill="#913E8C" d="M45.534,30.067c-1.134-1.8-2.134-3.667-3.067-5.6c0-0.067-0.066-0.067-0.066-0.133l0,0
				c-0.8-1.6-1.666-3.2-2.533-4.667c-1.467,1.133-4,1.6-4,1.6c0.867,0.667,1.667,1.067,2.533,1.267c-1.4,0.667-3,1-3,1
				c1.533,1.133,3.066,1.533,4.334,1.533C38.267,26.133,35.8,26.6,35.8,26.6c2.066,1.6,4.133,1.8,5.733,1.333
				c-1.667,1.133-4.267,1.6-4.267,1.6c3.267,2.466,6.467,1.933,8.4,0.667C45.6,30.2,45.534,30.133,45.534,30.067z"/>
			<ellipse transform="matrix(0.0067 -1 1 0.0067 17.9312 82.1863)" fill="#2F2A2B" cx="50.334" cy="32.067" rx="3.067" ry="4.4"/>
			<g>
				<path fill="#A74F9E" d="M45.534,24.133c2.134-1.267,4.2-4.667,2.267-9.133c0,0-2.066,4.534-4.4,4.733
					C41.067,19.934,45.534,24.133,45.534,24.133z"/>
				<path fill="#A74F9E" d="M48.267,24.2c2.133-1.267,4.199-4.667,2.267-9.133c0,0-2.067,4.533-4.4,4.733
					C43.867,20,48.267,24.2,48.267,24.2z"/>
				<path fill="#A74F9E" d="M51.6,25.6c2.134-1.267,4.2-4.667,2.267-9.133c0,0-2.066,4.533-4.4,4.733
					C47.201,21.4,51.6,25.6,51.6,25.6z"/>
				<path fill="#A74F9E" d="M54.201,29.333c2.467-1.467,4.732-5.267,2.6-10.4c0,0-2.4,5.133-5,5.4S54.201,29.333,54.201,29.333z"/>
			</g>
			<g>
				<g>
					<defs>
						
							<ellipse id="SVGID_1_" transform="matrix(0.0067 -1 1 0.0067 17.9312 82.1863)" cx="50.334" cy="32.067" rx="3.067" ry="4.4"/>
					</defs>
					<clipPath id="SVGID_4_">
						<use xlink:href="#SVGID_1_"  overflow="visible"/>
					</clipPath>
					<g clip-path="url(#SVGID_4_)">
						<g>
							<g>
								<path fill="#FFFFFF" d="M49.667,36.201h-0.334c-0.2,0-0.4-0.201-0.334-0.4l0.067-1.533c0-0.2,0.2-0.4,0.399-0.334H49.8
									c0.199,0,0.4,0.2,0.333,0.4l-0.066,1.533C50.067,36.067,49.867,36.201,49.667,36.201z"/>
								<path fill="#FFFFFF" d="M51.6,36.133l-0.333,0.067c-0.2,0-0.4-0.134-0.4-0.334l-0.199-1.533c0-0.2,0.133-0.4,0.332-0.4
									l0.334-0.066c0.2,0,0.4,0.133,0.4,0.334l0.199,1.533C51.933,35.867,51.8,36.067,51.6,36.133z"/>
							</g>
							<g>
								<path fill="#FFFFFF" d="M52.333,35.6c0-0.066,0.334-1.333-0.8-3.134c1.8,0.4,2.2,2.268,2.2,2.268L52.333,35.6z"/>
								<path fill="#FFFFFF" d="M48.667,35.4c0-0.066-0.601-1.267,0.133-3.267c-1.667,0.733-1.733,2.667-1.733,2.667L48.667,35.4z"
									/>
							</g>
						</g>
						<g>
							<g>
								<path fill="#FFFFFF" d="M51,27.867l0.268,0.067C51.466,28,51.6,28.133,51.6,28.4l-0.267,1.333
									c-0.066,0.2-0.2,0.333-0.467,0.333L50.6,30c-0.2-0.066-0.333-0.2-0.333-0.466l0.267-1.333C50.6,27.934,50.8,27.8,51,27.867z
									"/>
								<path fill="#FFFFFF" d="M48.867,27.934l0.267-0.067c0.2-0.066,0.4,0.067,0.467,0.267L50,29.467
									c0.067,0.2-0.066,0.4-0.266,0.467L49.466,30c-0.199,0.067-0.399-0.066-0.467-0.267L48.6,28.4
									C48.534,28.2,48.667,28,48.867,27.934z"/>
							</g>
							<g>
								<path fill="#FFFFFF" d="M48,28.133c0,0.067-0.332,1.267,0.601,2.934c-1.667-0.467-2-2.2-2-2.2L48,28.133z"/>
								<path fill="#FFFFFF" d="M52.201,27.934c0,0.066,0.333,1.267-0.667,2.933c1.667-0.4,2-2.133,2-2.133L52.201,27.934z"/>
							</g>
						</g>
					</g>
				</g>
				<g>
					<circle fill="#2F2A2B" cx="49.734" cy="25.733" r="2.467"/>
					<circle fill="#F05C93" cx="49.734" cy="25.934" r="1.667"/>
					<circle fill="#2F2A2B" cx="49.8" cy="26.067" r="0.933"/>
					<circle fill="#FFFFFF" cx="49.201" cy="25.4" r="0.533"/>
				</g>
			</g>
			<g>
				
					<line fill="none" stroke="#0B84B4" stroke-linecap="round" stroke-miterlimit="10" x1="31.467" y1="7.6" x2="28.867" y2="11.067"/>
				
					<line fill="none" stroke="#0B84B4" stroke-linecap="round" stroke-miterlimit="10" x1="32.201" y1="8.2" x2="29.667" y2="11.6"/>
				
					<line fill="none" stroke="#0B84B4" stroke-linecap="round" stroke-miterlimit="10" x1="32.933" y1="8.733" x2="30.4" y2="12.133"/>
				
					<line fill="none" stroke="#0B84B4" stroke-linecap="round" stroke-miterlimit="10" x1="33.667" y1="9.267" x2="31.133" y2="12.733"/>
			</g>
		</g>
	</g>
</g>
</svg>
