<svg xmlns="http://www.w3.org/2000/svg" width="652" height="235" fill="none" viewBox="0 0 652 235"><path fill="#333336" d="M624.63 20.374c0-.623.316-1.192.842-1.522l3.183-1.988c.288-.178.615-.273.954-.273h4.717V13h-4.717a5.4 5.4 0 0 0-2.856.819l-3.183 1.99c-.272.17-.502.388-.735.601-.236-.213-.463-.43-.735-.6l-3.186-1.991a5.398 5.398 0 0 0-2.853-.819h-4.717v3.591h4.717c.336 0 .666.095.954.273l3.183 1.988c.528.33.844.899.844 1.522v29.061c0 .624-.316 1.192-.844 1.523l-3.186 1.988a1.804 1.804 0 0 1-.954.273h-4.714v3.59h4.717a5.4 5.4 0 0 0 2.856-.818l3.183-1.988c.275-.172.502-.39.735-.6.233.21.463.428.735.6l3.186 1.99a5.4 5.4 0 0 0 2.856.82h4.714v-3.591h-4.717c-.336 0-.666-.095-.954-.273l-3.183-1.988c-.528-.33-.842-.9-.842-1.523V20.375Z"/><rect width="504.733" height="172" x="73.633" y="53" stroke="#0090ED" stroke-dasharray="11.79 11.79" stroke-width="5.238" rx="3.143"/><path fill="#333336" d="m194.947 189.117-10.393-32.069h8.314l6.474 20.904 7.601-20.904h7.305l7.483 21.023 6.711-21.023h8.314l-10.868 32.069h-7.72l-7.661-20.904-7.721 20.904h-7.839Zm58.317 0v-43.353h27.912v7.958h-19.479v10.037h19.479v7.839h-19.479v17.519h-8.433Zm33.004 0v-32.069h8.374v32.069h-8.374Zm-1.069-41.096c0-3.088 2.197-5.345 5.226-5.345 3.148 0 5.285 2.257 5.285 5.345 0 3.028-2.137 5.226-5.285 5.226-3.088 0-5.226-2.198-5.226-5.226Zm14.89 41.096v-32.069h8.077v4.929c1.544-3.801 4.751-5.523 8.849-5.523 2.138 0 4.038.534 5.404 1.247l-2.969 8.077c-.891-.654-2.435-1.129-4.276-1.129-4.217 0-6.949 2.138-6.949 7.543v16.925h-8.136Zm38.786.653c-10.333 0-16.985-7.304-16.985-16.628s7.245-16.748 16.807-16.748c9.621 0 16.569 6.949 16.569 16.451v3.088h-25.477c1.069 4.157 4.454 6.77 9.205 6.77 3.801 0 6.354-1.663 7.958-4.276l6.711 3.92c-3.207 4.513-7.721 7.423-14.788 7.423Zm-.178-26.427c-4.157 0-7.364 2.435-8.671 6.176h17.104c-1.069-3.979-4.157-6.176-8.433-6.176Zm17.82 1.069v-7.364h5.285v-1.129c0-10.393 3.267-13.6 13.719-13.6h2.138v7.483h-1.366c-5.701 0-6.355.832-6.355 5.702v1.544h7.721v7.364h-7.721v24.705h-8.136v-24.705h-5.285Zm38.881 25.358c-9.621 0-16.925-7.482-16.925-16.688 0-9.264 7.304-16.688 16.925-16.688 9.562 0 16.985 7.424 16.985 16.688 0 9.206-7.304 16.688-16.985 16.688Zm.06-7.779c4.869 0 8.789-3.979 8.789-8.968s-3.92-8.968-8.789-8.968c-4.93 0-8.79 3.979-8.79 8.968s3.86 8.968 8.79 8.968Zm43.312 7.126-9.087-13.243-4.929 5.523v7.72h-8.136v-46.798h8.136v29.635l13.006-14.906h9.799l-12.056 13.659 12.65 18.41h-9.383Zm24.156.653c-7.601 0-12.412-2.85-14.965-7.958l7.898-3.088c1.425 2.851 3.979 4.336 7.364 4.336 3.326 0 5.108-1.604 5.108-3.504 0-2.316-3.445-2.851-7.543-3.682-5.404-1.129-11.402-2.792-11.402-9.562 0-5.404 5.226-10.096 13.125-10.036 6.77 0 10.808 2.553 13.778 6.829l-7.483 3.029c-1.307-2.138-3.326-3.385-6.295-3.385-3.207 0-4.751 1.306-4.751 3.088 0 2.019 2.613 2.554 7.304 3.563 5.345 1.069 11.64 2.91 11.64 9.799 0 4.989-4.454 10.631-13.778 10.571Zm17.814-.653v-32.069h8.374v32.069h-8.374Zm-1.069-41.096c0-3.088 2.197-5.345 5.226-5.345 3.148 0 5.286 2.257 5.286 5.345 0 3.028-2.138 5.226-5.286 5.226-3.088 0-5.226-2.198-5.226-5.226Zm30.75 41.749c-10.334 0-16.985-7.304-16.985-16.628s7.245-16.748 16.807-16.748c9.62 0 16.569 6.949 16.569 16.451v3.088h-25.478c1.069 4.157 4.454 6.77 9.205 6.77 3.801 0 6.355-1.663 7.958-4.276l6.711 3.92c-3.207 4.513-7.72 7.423-14.787 7.423Zm-.178-26.427c-4.158 0-7.365 2.435-8.671 6.176h17.104c-1.069-3.979-4.158-6.176-8.433-6.176ZM107.369 130V86.647h29.16v7.898h-20.786v9.74h20.786v7.899h-20.786v9.858h20.786V130h-29.16Zm48.77.653c-7.899 0-15.441-6.473-15.441-16.688 0-10.214 7.364-16.688 15.559-16.688 4.217 0 7.721 1.782 9.918 4.751V83.143h8.077V130h-8.077v-4.395c-2.257 3.148-5.879 5.048-10.036 5.048Zm1.603-7.72c5.048 0 8.908-4.039 8.908-9.027 0-4.989-3.86-9.027-8.908-9.027-4.929 0-8.908 3.979-8.908 9.027 0 5.048 3.979 9.027 8.908 9.027Zm25.541 19.776c-3.385 0-6.77-1.247-9.146-2.969l4.751-6.652c1.129 1.188 2.495 1.96 4.336 1.96 2.91 0 4.691-1.307 6.295-5.107l.534-1.307-12.887-30.703h8.73l8.315 20.667 7.898-20.668h8.552l-13.837 33.792c-3.326 8.196-6.771 10.987-13.541 10.987Zm29.29-37.533V97.93h5.939v-6.948l8.077-4.75V97.93h8.433v7.246h-8.433v13.184c0 3.385 1.425 4.573 3.504 4.573 1.128 0 2.019-.356 2.969-1.188l3.741 6.414c-2.078 1.544-4.691 2.435-7.661 2.435-6.71 0-10.63-3.207-10.63-11.937v-13.481h-5.939Zm39.034 25.477c-7.898 0-12.471-5.048-12.471-13.481V97.93h8.374v18.114c0 4.513 2.138 7.305 6.532 7.305 3.86 0 6.711-2.792 6.711-7.78V97.93l8.314-.059v32.07l-8.195.059v-4.038c-2.079 2.91-5.345 4.691-9.265 4.691Zm16.574 12.175v-7.661c5.583 0 6.236-.832 6.236-6.117V97.93h8.374v31.239c0 10.333-3.207 13.659-13.481 13.659h-1.129Zm5.167-53.925c0-3.088 2.197-5.344 5.226-5.344 3.148 0 5.286 2.256 5.286 5.344 0 3.03-2.138 5.227-5.286 5.227-3.088 0-5.226-2.198-5.226-5.227Zm45.842 41.75c-4.335 0-7.958-1.603-10.096-4.573v16.748h-8.136V97.93h8.076v4.455c2.138-3.148 5.761-5.108 10.096-5.108 8.077 0 15.441 6.474 15.441 16.688 0 10.215-7.483 16.688-15.381 16.688Zm-1.663-7.72c4.929 0 8.849-3.979 8.849-9.027 0-5.048-3.92-9.027-8.849-9.027-5.048 0-8.908 4.038-8.908 9.027 0 4.988 3.86 9.027 8.908 9.027ZM338.789 130V83.202h8.196V130h-8.196Zm13.532 0V97.93h8.373V130h-8.373Zm-1.069-41.097c0-3.088 2.197-5.344 5.226-5.344 3.147 0 5.285 2.256 5.285 5.344 0 3.03-2.138 5.227-5.285 5.227-3.088 0-5.226-2.198-5.226-5.227ZM388.178 130l-9.087-13.244-4.929 5.524V130h-8.136V83.202h8.136v29.635l13.006-14.907h9.799l-12.056 13.66 12.65 18.41h-9.383Zm11.852 0V97.93h8.374V130h-8.374Zm-1.069-41.097c0-3.088 2.197-5.344 5.226-5.344 3.148 0 5.286 2.256 5.286 5.344 0 3.03-2.138 5.227-5.286 5.227-3.088 0-5.226-2.198-5.226-5.227ZM427.164 130V86.647h17.104c9.74 0 16.272 7.008 16.272 15.738 0 8.611-6.532 15.797-16.331 15.797h-8.612V130h-8.433Zm16.57-35.692h-8.137v16.094h8.137c4.988 0 8.314-3.385 8.314-8.017 0-4.692-3.326-8.077-8.314-8.077ZM466.098 130V86.647h14.015c13.778 0 22.627 9.383 22.627 21.676 0 12.353-9.502 21.677-22.448 21.677h-14.194Zm13.422-35.573h-4.989v27.734h5.226c8.79 0 14.491-6.058 14.491-13.838 0-7.958-5.226-13.896-14.728-13.896ZM508.163 130V86.647h27.913v7.958h-19.48v10.036h19.48v7.84h-19.48V130h-8.433ZM114.003 192.322c.405 0 .81-.071 1.208-.207l11.586-4.024 23.622-24.567c2.464-2.566 2.464-6.744 0-9.31l-3.578-3.722a6.172 6.172 0 0 0-8.95 0l-23.622 24.571-3.864 12.063a4.037 4.037 0 0 0 .918 4.037 3.718 3.718 0 0 0 2.68 1.159Zm26.871-38.723a2.051 2.051 0 0 1 2.981 0l3.58 3.725a2.253 2.253 0 0 1 0 3.1l-3.594 3.742-6.564-6.828 3.597-3.739Zm-22.919 23.838 16.335-16.992 6.561 6.825-16.335 16.995-9.845 3.416 3.284-10.244ZM155.576 194.736l-6.055 1.924a14.212 14.212 0 0 1-7.212.372l-7.027-1.464a18.459 18.459 0 0 0-12.214 1.703c-4.158 2.163-9.173 1.32-12.464-2.106l-.172-.179-2.811 3.286c2.885 2.998 6.723 4.577 10.614 4.577 2.281 0 4.58-.54 6.72-1.657a14.322 14.322 0 0 1 9.5-1.32l7.027 1.464c3.071.639 6.277.467 9.271-.484l6.055-1.924-1.232-4.192Z"/><path stroke="#333336" stroke-width="1.06" d="M548.962 139.117v58.326"/></svg>
