<svg xmlns="http://www.w3.org/2000/svg" width="1376" height="515" fill="none" viewBox="0 0 1376 515"><path fill="#FF9456" d="M510 0h521v515H510z"/><path fill="#330505" d="M559.5 140.5v234H980v-234h-93.5V94h-47V47H700v47h-47v46.5h-93.5Z"/><path fill="linen" d="M559.5 235.1v234H980V235.2h-93.5v-46.6h-47v-47H700v47h-47v46.6h-93.5Z"/><path fill="#330505" d="M559.5 328.1v128.5H980V328.1h-93.5v-46.5h-47v-47H700v47h-47v46.5h-93.5Z"/><path fill="linen" d="M559.5 420.5V467H980v-46.5h-93.5V374h-47v-47H700v47h-47v46.5h-93.5Z"/><path fill="#022611" d="M0 0h513v515H0z"/><path fill="#D6FFCD" d="M186 468.6h-47v-46.5H92.5v-47h-47v-46.5H0v-94h186v234Z"/><path fill="#00D230" d="M45.5 46.747H467V467.5h-47.5V421H373v-47h-46.5v-46.5H279v-47h-46v-46.1h-47V187h-47v-46.5H92.5v-47h-47V46.747Z"/><path fill="#210340" d="M1026 0h513v515h-513z"/><path fill="#FF97E2" d="M1212.91 93.45V46.728h-140.19v420.594h140.19V420.5h-93.47V280.36h93.47v-46.72h-93.47V93.45h93.47ZM1352.62 93.45V46.728h140.18v420.594h-140.18l-.1-46.822h93V280.36h-92.9v-46.72h92.9V93.45h-92.9Z"/><path fill="#FFF1F8" d="M1212.91 93.453h46.73v46.727h-46.73V93.453ZM1212.91 186.908h46.73v46.727h-46.73v-46.727ZM1212.91 280.361h46.73v46.727h-46.73v-46.727ZM1212.91 373.818h46.73v46.727h-46.73v-46.727Z"/><path fill="#FFF1F8" d="M1259.63 140.182h46.21v46.727h-46.21v-46.727ZM1259.63 327.09h46.21v46.727h-46.21V327.09ZM1305.85 93.453h46.73v46.727h-46.73V93.453ZM1305.85 186.908h46.73v46.727h-46.73v-46.727ZM1305.85 280.361h46.73v46.727h-46.73v-46.727ZM1305.85 373.818h46.73v46.727h-46.73v-46.727Z"/></svg>
