<svg height="450" width="675" xmlns="http://www.w3.org/2000/svg" xmlns:xlink="http://www.w3.org/1999/xlink"><linearGradient id="a"><stop offset="0" stop-color="#ff656e"/><stop offset="1" stop-color="#c5c9ff"/></linearGradient><linearGradient id="b" x1="39.511%" x2="41.409%" xlink:href="#a" y1="99.198%" y2="-19.25%"/><radialGradient id="c" cx="51.411%" cy="37.949%" gradientTransform="matrix(0 .52584 -1 0 .894 .11)" r="110.613%"><stop offset="0" stop-color="#fff"/><stop offset=".76599" stop-color="#fafcff"/><stop offset="1" stop-color="#f2f2f2"/></radialGradient><radialGradient id="d" cx="50.001%" cy="43.962%" gradientTransform="matrix(-.73336 0 0 -1 .867 .88)" r="74.856%"><stop offset="0" stop-color="#fff"/><stop offset=".76599" stop-color="#fafcff"/><stop offset="1" stop-color="#e0e0e0"/></radialGradient><linearGradient id="e" x1="25.796%" x2="25.796%" xlink:href="#a" y1="100%" y2="-30.127%"/><mask id="f" fill="#fff"><path d="m14.02 63.578-.142-.08a7.27 7.27 0 1 1 -12.765-6.94l-.075-.04 25.252-56.264 15.797 5.106-28.066 58.218zm192.363 0 .142-.08a7.27 7.27 0 1 0 12.766-6.94l.075-.04-25.252-56.272-15.794 5.107z" fill="none"/></mask><mask id="g" fill="#fff"><path d="m72.595 40.24c1.516-12.304 1.84-24.098.128-35.23a3.973 3.973 0 0 0 -3.931-3.495 486.706 486.706 0 0 0 -63.471-.578 3.96 3.96 0 0 0 -3.928 3.499c-1.756 10.469-1.873 25.604.155 35.834a4.105 4.105 0 0 0 3.572 3.41 317.006 317.006 0 0 0 63.902-.028 3.78 3.78 0 0 0 3.573-3.412z" fill="none"/></mask><mask id="h" fill="#fff"><path d="m72.595 40.24c1.516-12.304 1.84-24.098.128-35.23a3.973 3.973 0 0 0 -3.931-3.495 486.706 486.706 0 0 0 -63.471-.578 3.96 3.96 0 0 0 -3.928 3.499c-1.756 10.469-1.873 25.604.155 35.834a4.105 4.105 0 0 0 3.572 3.41 317.006 317.006 0 0 0 63.902-.028 3.78 3.78 0 0 0 3.573-3.412z" fill="none"/></mask><mask id="i" fill="#fff"><path d="m72.595 40.24c1.516-12.304 1.84-24.098.128-35.23a3.973 3.973 0 0 0 -3.931-3.495 486.706 486.706 0 0 0 -63.471-.578 3.96 3.96 0 0 0 -3.928 3.499c-1.756 10.469-1.873 25.604.155 35.834a4.105 4.105 0 0 0 3.572 3.41 317.006 317.006 0 0 0 63.902-.028 3.78 3.78 0 0 0 3.573-3.412z" fill="none"/></mask><g fill="none" fill-rule="evenodd"><path d="m0 0h675v450h-675z" fill="#fff"/><g transform="translate(227 34)"><path d="m36.058 283.686c5.68-3.086 8.96 1.39 11.646 6.327 2.686 4.936 3.76 8.462-1.92 11.549-5.68 3.086-12.462 1.585-15.146-3.35-2.685-4.937-.26-11.44 5.42-14.526zm151.953-.312c-5.674-3.076-12.45-1.581-15.132 3.34-2.682 4.922-.257 11.404 5.418 14.48 5.674 3.076 12.45 1.581 15.133-3.34 2.682-4.92.256-11.404-5.419-14.48zm-173.991-12.196-.142-.08a7.27 7.27 0 1 1 -12.765-6.94l-.075-.04 25.252-56.264 15.797 5.107-28.066 58.217zm192.363 0 .142-.08a7.27 7.27 0 1 0 12.766-6.94l.075-.04-25.252-56.272-15.794 5.107z" fill="#e5e5e5" fill-rule="nonzero" stroke="#000" stroke-width="2.4"/><path d="m206.54 24.166s-9.092 9.68-22.011 12.913c-12.92 3.233-5.313-24.306-5.313-24.306l25.806-2.279zm-192.786-1.52s11.953 15.36 25.048 15.192c13.094-.168 3.04-14.432 3.04-14.432l-15.94-10.634z" fill="#e5e5e5" fill-rule="nonzero" mask="url(#f)" transform="translate(0 207.6)"/><g stroke-width="2.4"><path d="m4.08 275.018.08-.142a7.28 7.28 0 1 1 6.926-12.792l33.327 15.417 2.64 16.463zm212.24 0-.08-.142a7.288 7.288 0 0 0 -2.204-13.738c-3.39-.48-4.762.87-4.762.87l-56.152 25.305 5.096 15.831z" fill="#fff" fill-rule="nonzero" stroke="#000"/><path d="m146.036 9.614.3-.393-.346-.011-.275.007zm0 0 .42.52c-.22.178-.625.178-.832.02zm-1.088-1.347c.65-.526 1.47-.526 2.132-.02l.457.348 1.036 40.016h-5.35l1.297-39.999zm1.052-7.393a4.152 4.152 0 1 1 -.002 8.304 4.152 4.152 0 0 1 .002-8.304z" stroke="#000007"/><path d="m68.028 180.726s-29.171-1.65-49.355 25.421a53.31 53.31 0 0 0 -4.248 6.741 4.055 4.055 0 0 0 .04 4.217c2.48 4.364 10.16 15.095 29.965 15.83 11.381-48.675 23.598-52.209 23.598-52.209zm89.89-.26s30.08.521 47.456 26.19a53.236 53.236 0 0 1 4.24 6.74 4.058 4.058 0 0 1 -.04 4.217c-2.48 4.364-9.03 14.27-28.808 15.005-7.493-46.244-22.846-52.152-22.846-52.152z" fill="url(#b)" fill-rule="nonzero" stroke="#000"/><g fill-rule="nonzero" stroke="#000"><path d="m163.094 92.73c4.966-.088 11.538 3.97 11.538-33.194 0-37.165-6.572-33.106-11.538-33.194m-150.841 66.388c-4.967-.088-12.198 0-12.198-33.194s7.231-33.106 12.198-33.194" fill="url(#b)" transform="translate(24 48.4)"/><path d="m160.128 73.744c0 7.95-1.271 14.54-3.362 20.003-6.374 16.66-20.369 22.84-29.184 25.133-5.864 1.438-18.508 5.644-47.157 5.644s-42.55-4.497-47.347-5.644c-8.343-1.94-21.361-7.26-27.958-22.585a46.5 46.5 0 0 1 -2.465-7.463c-1.06-4.38-1.665-9.38-1.665-15.09v-27.176c0-4.454.382-8.482 1.07-12.123.57-3.003 1.347-5.744 2.294-8.246 9.88-26.104 38.119-26.12 38.119-26.12h76.172s24.445.014 35.805 21.04c3.438 6.363 5.678 14.652 5.678 25.449zm-10.34 138.472s.174-3.114 3.62-42.662c3.474-39.876-30.484-37.379-30.484-37.379l-43.55-.994-39.485.994s-33.044-3.373-30.48 37.38c2.49 39.62 2.895 42.661 2.895 42.661s1.073 11.566 1.102 15.218c.098 11.977 3.59 52.94 22.34 64.27 24 14.502 66.793 14.851 90.241 0 18.511-11.724 22.24-52.293 22.34-64.27.027-3.652 1.461-15.218 1.461-15.218z" fill="url(#c)" transform="translate(31 48.4)"/></g></g><ellipse cx="140.6" cy="281.287" rx="2.575" ry="2.562" stroke="#000005" stroke-width=".8"/><circle cx="131.362" cy="281.287" fill="#000007" fill-rule="nonzero" r="2.562"/><path d="m120.62 305.766a237.56 237.56 0 0 0 39.977-3.263m-97.419-1.025a365.474 365.474 0 0 0 37.718 3.81" stroke="#000007" stroke-linecap="round" stroke-linejoin="round" stroke-width="2.4"/><path d="m73.262 330.1c-13.166-9.813-15.161-67.98-16.4-93.876-1.779-37.189 24.574-34.111 24.574-34.111h60.52s26.99-2.279 24.575 34.111c-2.49 37.546-3.757 82.135-17.6 93.875-13.203 11.198-62.458 9.847-75.67 0z" stroke="#000007" stroke-width="2.4"/><path d="m204.925 206.82c-1.257 4.314-4.036 7.176-4.336 6.472-6.201-14.572-19.523-25.554-28.589-30.492m-118.72.703c-15.851 4.82-26.551 22.98-29.066 29.789-3.503-.994-6.043-6.472-6.043-6.472" stroke="#000005" stroke-linecap="round" stroke-linejoin="round" stroke-width="2.4"/><path d="m82.687 62.406s-35.237.022-35.237 41.381v8.213c0 29.622 20.786 38.654 26.95 40.431 6.645 1.92 12.065 4.77 37.566 4.77 13.527 0 64.755 1.67 64.755-45.2v-8.214c0-41.36-35.239-41.38-35.239-41.38h-58.795z" fill="url(#d)" fill-rule="nonzero" stroke="#000" stroke-width="2.4"/><path d="m86.513 122.4h49.706s.082 16.31-25.017 16.31c-23.808 0-24.69-16.31-24.69-16.31z" fill="#000007"/><path d="m86.513 122.4h49.706s.082 16.31-25.017 16.31c-23.808 0-24.69-16.31-24.69-16.31z" fill="#000" fill-rule="nonzero"/><path d="m110.88 177.391c15.833 0 25.618-.21 25.618 6.263 0 6.992-9.785 6.262-25.618 6.262s-25.618-.051-25.618-6.262c0-6.17 9.786-6.263 25.618-6.263z" fill="#e5e5e5" fill-rule="nonzero" stroke="#000" stroke-width="2.4"/><path d="m148.188 264.772c-.245 2.45-2.244 4.355-4.644 4.474a318.242 318.242 0 0 1 -64.164.026c-2.349-.276-4.232-2.073-4.61-4.368-1.992-10.054-2.004-25.28-.17-36.207.305-2.598 2.504-4.557 5.053-4.558a487.044 487.044 0 0 1 63.543.576c2.61.009 4.805 1.96 5.113 4.513 1.631 10.604 1.52 22.217-.121 35.544z" stroke="#e5e5e5" stroke-width="2.4"/><path d="m-1.534 15.72c-.5-2.481 1.831-3.722 6.996-3.722 7.747 0 4.774 8.394 22.44 8.394 17.668 0 11.866 7.242 22.965 7.242 11.1 0 6.642-17.234 23.951-17.234 1.527 0 2.292 3.833 2.294 11.5l-2.294 23.032-36.201 4.318-36.823-3.27-3.328-30.26z" fill="url(#e)" fill-rule="nonzero" mask="url(#g)" opacity=".45" transform="translate(74.4 224.4)"/><path d="m-3.2 26.668c1.172-3.248 4.736-4.873 10.692-4.873 8.933 0 10.15 6.975 18.715 6.975 8.567 0 10.429-11.97 20.306-11.97 9.878 0 8.994 7.312 15.606 7.312 6.61 0 7.582-4.87 11.988-4.87 2.937 0 3.701.85 2.294 2.553l-2.294 23.032-36.202 4.318-36.822-3.27z" fill="url(#e)" fill-rule="nonzero" mask="url(#h)" opacity=".7" transform="translate(74.4 224.4)"/><path d="m-2.295 23.375c5.57 9.645 10.471 14.79 14.703 15.435 6.347.969 8.814-5.31 15.208-5.31 6.395 0 8.552 5.31 16.414 5.31 7.86 0 10.921-11.177 20.97-11.177 6.698 0 10.404 1.956 11.117 5.867l-1.662 12.094-36.201 3.352-36.824-2.538-3.726-23.033z" fill="url(#e)" fill-rule="nonzero" mask="url(#i)" transform="translate(74.4 224.4)"/><circle cx="83.175" cy="95.887" fill="#000" r="9.575" stroke="#fff"/><circle cx="83.175" cy="95.887" r="11.975" stroke="#cdcdcd"/><circle cx="87.125" cy="89.6" fill="#fff" fill-rule="nonzero" r="2.8"/><circle cx="136.775" cy="95.887" fill="#000" r="9.575" stroke="#fff"/><circle cx="136.775" cy="95.887" r="11.975" stroke="#cdcdcd"/><circle cx="140.725" cy="89.6" fill="#fff" fill-rule="nonzero" r="2.8"/><ellipse cx="116" cy="371.2" fill="#000" fill-rule="nonzero" opacity=".1" rx="81.6" ry="10"/></g><path d="m.5.5h674v449h-674z" stroke="#979797"/></g></svg>