<?xml version="1.0" encoding="utf-8"?>
<!-- Generator: Adobe Illustrator 16.0.0, SVG Export Plug-In . SVG Version: 6.00 Build 0)  -->
<!DOCTYPE svg PUBLIC "-//W3C//DTD SVG 1.1//EN" "http://www.w3.org/Graphics/SVG/1.1/DTD/svg11.dtd">
<svg version="1.1" id="TC_Download_on_the" xmlns="http://www.w3.org/2000/svg" xmlns:xlink="http://www.w3.org/1999/xlink" x="0px"
	 y="0px" width="135px" height="40px" viewBox="0 0 135 40" enable-background="new 0 0 135 40" xml:space="preserve">
<g>
	<path fill="#A6A6A6" d="M130.197,40H4.729C2.122,40,0,37.872,0,35.267V4.726C0,2.12,2.122,0,4.729,0h125.468
		C132.803,0,135,2.12,135,4.726v30.541C135,37.872,132.803,40,130.197,40L130.197,40z"/>
	<path d="M134.032,35.268c0,2.116-1.714,3.83-3.834,3.83H4.729c-2.119,0-3.839-1.714-3.839-3.83V4.725
		c0-2.115,1.72-3.835,3.839-3.835h125.468c2.121,0,3.834,1.72,3.834,3.835L134.032,35.268L134.032,35.268z"/>
	<g>
		<g>
			<path fill="#FFFFFF" d="M30.128,19.784c-0.029-3.223,2.639-4.791,2.761-4.864c-1.511-2.203-3.853-2.504-4.676-2.528
				c-1.967-0.207-3.875,1.177-4.877,1.177c-1.022,0-2.565-1.157-4.228-1.123c-2.14,0.033-4.142,1.272-5.24,3.196
				c-2.266,3.923-0.576,9.688,1.595,12.859c1.086,1.553,2.355,3.287,4.016,3.226c1.625-0.067,2.232-1.036,4.193-1.036
				c1.943,0,2.513,1.036,4.207,0.997c1.744-0.028,2.842-1.56,3.89-3.127c1.255-1.78,1.759-3.533,1.779-3.623
				C33.507,24.924,30.161,23.647,30.128,19.784z"/>
			<path fill="#FFFFFF" d="M26.928,10.306c0.874-1.093,1.472-2.58,1.306-4.089c-1.265,0.056-2.847,0.875-3.758,1.944
				c-0.806,0.942-1.526,2.486-1.34,3.938C24.557,12.205,26.016,11.382,26.928,10.306z"/>
		</g>
	</g>
	<g>
		<path fill="#FFFFFF" d="M54.006,17.03H52l-1.1-3.455h-3.821l-1.047,3.455h-1.955l3.787-11.761h2.338L54.006,17.03z M50.568,12.127
			l-0.995-3.071c-0.104-0.314-0.302-1.053-0.593-2.216h-0.035c-0.117,0.5-0.303,1.239-0.559,2.216l-0.977,3.071H50.568z"/>
		<path fill="#FFFFFF" d="M63.742,12.685c0,1.443-0.389,2.583-1.168,3.42c-0.699,0.745-1.564,1.117-2.602,1.117
			c-1.115,0-1.918-0.401-2.406-1.204h-0.035v4.467h-1.885v-9.144c0-0.908-0.023-1.838-0.07-2.792h1.658l0.105,1.344h0.034
			c0.629-1.012,1.582-1.519,2.861-1.519c1.002,0,1.836,0.396,2.506,1.187C63.408,10.353,63.742,11.394,63.742,12.685z
			 M61.824,12.755c0-0.826-0.188-1.506-0.559-2.042c-0.408-0.558-0.955-0.837-1.641-0.837c-0.465,0-0.887,0.154-1.266,0.462
			s-0.625,0.712-0.742,1.213c-0.059,0.232-0.086,0.425-0.086,0.576v1.414c0,0.617,0.188,1.137,0.566,1.562
			c0.379,0.425,0.869,0.637,1.475,0.637c0.709,0,1.262-0.273,1.658-0.82C61.625,14.372,61.824,13.651,61.824,12.755z"/>
		<path fill="#FFFFFF" d="M73.497,12.685c0,1.443-0.39,2.583-1.169,3.42c-0.698,0.745-1.564,1.117-2.601,1.117
			c-1.116,0-1.919-0.401-2.407-1.204h-0.035v4.467H65.4v-9.144c0-0.908-0.023-1.838-0.069-2.792h1.657l0.104,1.344h0.035
			c0.628-1.012,1.582-1.519,2.861-1.519c1.001,0,1.835,0.396,2.505,1.187C73.162,10.353,73.497,11.394,73.497,12.685z
			 M71.578,12.755c0-0.826-0.187-1.506-0.559-2.042c-0.407-0.558-0.954-0.837-1.641-0.837c-0.465,0-0.887,0.154-1.265,0.462
			c-0.379,0.308-0.626,0.712-0.742,1.213c-0.059,0.232-0.087,0.425-0.087,0.576v1.414c0,0.617,0.188,1.137,0.567,1.562
			c0.378,0.425,0.869,0.637,1.474,0.637c0.71,0,1.263-0.273,1.658-0.82S71.578,13.651,71.578,12.755z"/>
		<path fill="#FFFFFF" d="M86.759,13.732c0,1-0.349,1.814-1.045,2.443c-0.766,0.687-1.834,1.029-3.203,1.029
			c-1.266,0-2.281-0.244-3.048-0.733l0.436-1.57c0.826,0.5,1.734,0.75,2.724,0.75c0.71,0,1.263-0.16,1.658-0.481
			c0.396-0.32,0.594-0.749,0.594-1.285c0-0.478-0.163-0.879-0.488-1.206c-0.326-0.326-0.867-0.629-1.623-0.909
			c-2.06-0.769-3.089-1.894-3.089-3.374c0-0.967,0.36-1.759,1.082-2.377c0.721-0.618,1.681-0.926,2.879-0.926
			c1.07,0,1.96,0.186,2.67,0.558l-0.471,1.536c-0.663-0.36-1.414-0.541-2.251-0.541c-0.663,0-1.181,0.163-1.554,0.489
			c-0.313,0.291-0.471,0.646-0.471,1.064c0,0.465,0.181,0.849,0.541,1.152c0.314,0.279,0.884,0.582,1.71,0.907
			c1.012,0.407,1.757,0.884,2.233,1.431C86.52,12.238,86.759,12.918,86.759,13.732z"/>
		<path fill="#FFFFFF" d="M92.988,9.963h-2.077v4.118c0,1.047,0.367,1.571,1.1,1.571c0.338,0,0.616-0.029,0.838-0.087l0.053,1.431
			c-0.373,0.139-0.861,0.209-1.466,0.209c-0.745,0-1.326-0.227-1.745-0.68c-0.419-0.454-0.629-1.216-0.629-2.286V9.963h-1.238V8.55
			h1.238V6.997l1.85-0.558V8.55h2.077V9.963z"/>
		<path fill="#FFFFFF" d="M102.358,12.72c0,1.303-0.373,2.373-1.117,3.211c-0.779,0.861-1.814,1.291-3.105,1.291
			c-1.245,0-2.237-0.413-2.976-1.239c-0.739-0.826-1.108-1.867-1.108-3.124c0-1.314,0.381-2.391,1.144-3.229
			c0.762-0.837,1.788-1.256,3.079-1.256c1.245,0,2.245,0.413,3.002,1.239C101.997,10.417,102.358,11.452,102.358,12.72z
			 M100.403,12.781c0-0.782-0.168-1.453-0.506-2.012c-0.396-0.677-0.96-1.015-1.692-1.015c-0.757,0-1.332,0.338-1.728,1.015
			c-0.338,0.56-0.506,1.242-0.506,2.047c0,0.782,0.168,1.453,0.506,2.013c0.407,0.677,0.978,1.015,1.71,1.015
			c0.722,0,1.285-0.344,1.692-1.033C100.229,14.24,100.403,13.563,100.403,12.781z"/>
		<path fill="#FFFFFF" d="M108.482,10.208c-0.186-0.035-0.384-0.052-0.593-0.052c-0.663,0-1.176,0.25-1.536,0.75
			c-0.313,0.442-0.471,1.001-0.471,1.675v4.45h-1.885l0.018-5.811c0-0.978-0.023-1.867-0.07-2.67h1.641l0.07,1.623h0.052
			c0.198-0.558,0.512-1.006,0.942-1.343c0.419-0.303,0.873-0.454,1.361-0.454c0.175,0,0.331,0.012,0.471,0.035V10.208z"/>
		<path fill="#FFFFFF" d="M116.91,12.389c0,0.337-0.023,0.623-0.069,0.855h-5.653c0.022,0.837,0.296,1.478,0.819,1.919
			c0.478,0.396,1.094,0.593,1.85,0.593c0.838,0,1.6-0.133,2.286-0.401l0.297,1.309c-0.803,0.349-1.751,0.523-2.845,0.523
			c-1.314,0-2.347-0.387-3.097-1.161c-0.751-0.773-1.126-1.812-1.126-3.115c0-1.279,0.35-2.344,1.047-3.193
			c0.733-0.907,1.722-1.361,2.967-1.361c1.222,0,2.146,0.454,2.774,1.361C116.66,10.44,116.91,11.33,116.91,12.389z M115.113,11.9
			c0.012-0.558-0.11-1.041-0.366-1.448c-0.326-0.523-0.826-0.785-1.501-0.785c-0.616,0-1.117,0.256-1.501,0.768
			c-0.313,0.408-0.5,0.896-0.558,1.466H115.113z"/>
	</g>
	<g>
		<g>
			<path fill="#FFFFFF" d="M49.143,35.291V24.205h-4.979v-1.096l12.345,0.015l-0.015,1.081h-6.194l-0.015,11.086H49.143z
				 M54.597,31.602c-0.287-0.396-0.591-0.752-0.912-1.068c-0.32-0.315-0.642-0.6-0.963-0.852s-0.635-0.472-0.941-0.66
				c-0.306-0.188-0.588-0.355-0.845-0.504l0.504-0.844c0.475,0.178,0.906,0.391,1.297,0.637c0.391,0.248,0.769,0.523,1.134,0.83
				c0.267,0.228,0.528,0.475,0.785,0.741s0.514,0.548,0.771,0.845L54.597,31.602z"/>
			<path fill="#FFFFFF" d="M68.394,21.927c0,0.228,0.002,0.415,0.007,0.563s0.013,0.307,0.022,0.475l0.667-0.639
				c0.494,0.179,0.928,0.431,1.297,0.756c0.371,0.326,0.715,0.697,1.031,1.112c-0.08,0.128-0.174,0.242-0.283,0.341
				c-0.107,0.099-0.217,0.203-0.326,0.311h1.008v1.053h-3.274c0.078,0.85,0.165,1.65,0.259,2.4c0.094,0.752,0.186,1.492,0.275,2.224
				c0.346-0.622,0.592-1.237,0.74-1.845s0.252-1.297,0.311-2.068l1.053,0.312c-0.068,0.988-0.246,1.904-0.533,2.749
				c-0.287,0.846-0.678,1.628-1.17,2.35c0.127,0.355,0.293,0.711,0.496,1.066c0.201,0.355,0.457,0.662,0.764,0.919
				c0.049,0.03,0.094,0.015,0.133-0.044c0.049-0.148,0.088-0.314,0.119-0.497c0.029-0.183,0.045-0.362,0.051-0.54
				c0.006-0.179,0.008-0.352,0.008-0.52s-0.006-0.311-0.016-0.43l1.082,0.385c-0.029,0.455-0.076,0.9-0.141,1.334
				c-0.064,0.436-0.209,0.825-0.438,1.172c-0.188,0.217-0.439,0.335-0.756,0.355c-0.178-0.01-0.346-0.055-0.504-0.134
				s-0.303-0.178-0.438-0.296c-0.133-0.119-0.254-0.25-0.361-0.393c-0.109-0.144-0.209-0.279-0.297-0.408
				c-0.09-0.139-0.176-0.291-0.259-0.459c-0.084-0.168-0.166-0.321-0.245-0.46c-0.118,0.148-0.271,0.307-0.459,0.474
				c-0.188,0.169-0.388,0.344-0.601,0.527c-0.213,0.183-0.438,0.362-0.674,0.541c-0.237,0.178-0.47,0.346-0.697,0.504l-0.874-0.846
				c0.306-0.178,0.568-0.338,0.785-0.481c0.218-0.144,0.371-0.255,0.46-0.333h-2.683v1.793h-1.171v-1.793h-3.883v-1.008h3.897
				l0.015-0.563h-2.756v-3.823h2.756v-0.489h-3.363v-0.964l3.363-0.014v-0.683h-3.631v-1.067h3.572l-0.015-0.711h-2.994v-0.992
				h2.994l0.015-1.201h1.126v1.201h3.053l0.015,0.992h-3.053l-0.015,0.711h3.468l-0.059-2.919H68.394z M62.792,28.98l-1.689-0.014
				v0.474h1.675L62.792,28.98z M62.777,30.33h-1.675v0.637h1.675V30.33z M67.549,32.642c0.06-0.05,0.158-0.15,0.296-0.304
				c0.139-0.153,0.268-0.309,0.386-0.467c-0.129-0.405-0.237-0.85-0.326-1.334s-0.165-0.985-0.229-1.504
				c-0.064-0.52-0.119-1.043-0.163-1.571c-0.045-0.528-0.087-1.04-0.126-1.534h-3.482v0.668h3.319l0.015,0.963h-3.334v0.504
				l2.756-0.016v3.839h-2.756v0.563h3.631L67.549,32.642z M65.593,28.967h-1.689v0.474h1.689V28.967z M65.593,30.314l-1.689,0.016
				v0.637h1.689V30.314z M70.559,24.846c-0.268-0.404-0.576-0.756-0.928-1.052c-0.35-0.296-0.758-0.543-1.222-0.741
				c0.02,0.346,0.032,0.67,0.037,0.971c0.005,0.302,0.018,0.576,0.037,0.822H70.559z"/>
		</g>
	</g>
</g>
</svg>
