<svg xmlns="http://www.w3.org/2000/svg" width="32" height="32" viewBox="0 0 32 32">
  <linearGradient id="a" x1="20.5504" x2="20.5504" y1="6.4937" y2="30" gradientTransform="matrix(1 0 0 -1 0 34)" gradientUnits="userSpaceOnUse">
    <stop offset="0" stop-color="#3a8ee6"></stop>
    <stop offset=".2359" stop-color="#5c79f0"></stop>
    <stop offset=".6293" stop-color="#9059ff"></stop>
    <stop offset="1" stop-color="#c139e6"></stop>
  </linearGradient>
  <path fill="url(#a)" d="M28.8 6.5C27.3 4.9 25.3 4 23.1 4H23c-2.2 0-4.2.8-5.7 2.3l-6.4 6.4c-.5.5-.8 1.2-.8 1.9s.3 1.4.8 1.9l1.2 1.2c.5.5 1.2.8 1.9.8s1.4-.3 1.9-.8l-3.1-3.1 6.4-6.4c1-1 2.3-1.5 3.7-1.5h.1c1.4 0 2.8.6 3.7 1.6 2 2.1 1.9 5.4-.2 7.5L17.4 25c-.8.8-2.1.8-2.8 0l1.5 1.5.2.2c.9.9 2.3.9 3.2.2l9-9.1c3.2-3.1 3.3-8.2.3-11.3z"></path>
  <linearGradient id="b" x1="28.5539" x2="14.5874" y1="12.29" y2="12.29" gradientTransform="matrix(1 0 0 -1 0 34)" gradientUnits="userSpaceOnUse">
    <stop offset=".136" stop-color="#6a2bea" stop-opacity="0"></stop>
    <stop offset=".2995" stop-color="#662ce6" stop-opacity=".0945975"></stop>
    <stop offset=".4689" stop-color="#592fdb" stop-opacity=".1926"></stop>
    <stop offset=".641" stop-color="#4534c9" stop-opacity=".2923"></stop>
    <stop offset=".815" stop-color="#283baf" stop-opacity=".393"></stop>
    <stop offset=".989" stop-color="#03448d" stop-opacity=".4936"></stop>
    <stop offset="1" stop-color="#00458b" stop-opacity=".5"/>
  </linearGradient>
  <path fill="url(#b)" d="M26.6 15.9l-9.1 9.2c-.8.8-2.1.8-2.8 0l1.5 1.5.2.2c.9.9 2.3.9 3.2.2l9-9.1-2-2z"></path>
  <linearGradient id="c" x1="16.7057" x2="7.0647" y1="26.7803" y2="10.0815" gradientTransform="matrix(1 0 0 -1 0 34)" gradientUnits="userSpaceOnUse">
    <stop offset="0" stop-color="#ff980e"></stop>
    <stop offset=".2725" stop-color="#ff851b"></stop>
    <stop offset=".558" stop-color="#ff7f1f"></stop>
    <stop offset=".7654" stop-color="#ff3750"></stop>
    <stop offset=".8991" stop-color="#f92261"></stop>
    <stop offset="1" stop-color="#f5156c"></stop>
  </linearGradient>
  <path fill="url(#c)" d="M16 17.8c-.5.5-1.2.8-2 .8-.7 0-1.4-.3-1.9-.8l1.9 1.9c.5.5 1.2.8 1.9.8s1.4-.3 1.9-.8l3.1-3.1c1.1-1.1 1.1-2.8 0-3.9l-6.4-6.4C13.1 4.8 11.1 4 9 4h-.1c-2.2 0-4.2.9-5.7 2.5-3 3.1-2.9 8.3.3 11.4l8.9 8.9c2 2 5.1 2 7.2.2-.9.8-2.3.7-3.2-.2l-2-2-8.9-8.9c-2.1-2.1-2.2-5.5-.2-7.5 1-1 2.3-1.6 3.7-1.6h.1c1.4 0 2.7.5 3.7 1.5l6.4 6.4-3.2 3.1z"></path>
  <linearGradient id="d" x1="16.7057" x2="7.0647" y1="26.7803" y2="10.0815" gradientTransform="matrix(1 0 0 -1 0 34)" gradientUnits="userSpaceOnUse">
    <stop offset="0" stop-color="#fff261" stop-opacity=".8"></stop>
    <stop offset=".06" stop-color="#fff261" stop-opacity=".68"></stop>
    <stop offset=".19" stop-color="#fff261" stop-opacity=".48"></stop>
    <stop offset=".31" stop-color="#fff261" stop-opacity=".31"></stop>
    <stop offset=".42" stop-color="#fff261" stop-opacity=".17"></stop>
    <stop offset=".53" stop-color="#fff261" stop-opacity=".08"></stop>
    <stop offset=".63" stop-color="#fff261" stop-opacity=".02"></stop>
    <stop offset=".72" stop-color="#fff261" stop-opacity="0"></stop>
  </linearGradient>
  <path fill="url(#d)" d="M16 17.8c-.5.5-1.2.8-2 .8-.7 0-1.4-.3-1.9-.8l1.9 1.9c.5.5 1.2.8 1.9.8s1.4-.3 1.9-.8l3.1-3.1c1.1-1.1 1.1-2.8 0-3.9l-6.4-6.4C13.1 4.8 11.1 4 9 4h-.1c-2.2 0-4.2.9-5.7 2.5-3 3.1-2.9 8.3.3 11.4l8.9 8.9c2 2 5.1 2 7.2.2-.9.8-2.3.7-3.2-.2l-2-2-8.9-8.9c-2.1-2.1-2.2-5.5-.2-7.5 1-1 2.3-1.6 3.7-1.6h.1c1.4 0 2.7.5 3.7 1.5l6.4 6.4-3.2 3.1z"></path>
  <linearGradient id="e" x1="14.6992" x2="14.6992" y1="15.3378" y2="27.647" gradientTransform="matrix(1 0 0 -1 0 34)" gradientUnits="userSpaceOnUse">
    <stop offset="0" stop-color="#6e008b" stop-opacity=".5"></stop>
    <stop offset=".5" stop-color="#c846cb" stop-opacity="0"></stop>
  </linearGradient>
  <path fill="url(#e)" d="M17.3 6.3l-6.4 6.4c-.5.5-.8 1.2-.8 1.9s.3 1.4.8 1.9l1.2 1.2c.5.5 1.2.8 1.9.8s1.4-.3 1.9-.8l-3.1-3.1 6.4-6.4-1.9-1.9z"></path>
</svg>
