<svg xmlns="http://www.w3.org/2000/svg" xml:space="preserve" width="32" height="32" viewBox="0 0 32 32">
  <path fill="#d0ff63" d="M26.5 11c0-1.8-.5-3.6-1.3-5.1-1-1.6-2.2-2.9-3.8-3.8-1.5-.9-3.3-1.5-5.1-1.5-1.8-.1-3.6.4-5.2 1.2s-2.9 2-3.9 3.5-1.5 3.3-1.7 5c-.1 1.8.3 3.6 1 5.2.8 1.6 2 3 3.5 4 .4.3.8.7 1 1.2.2.5.3 1 .3 1.5V26h9.2v-3.7c0-.5.1-1 .4-1.5.2-.5.6-.9 1-1.2 1.4-1 2.5-2.2 3.3-3.7.8-1.5 1.3-3.2 1.3-4.9z"/>
  <path d="M19.6 28.4h-7.2c-.3 0-.6-.3-.6-.6s.3-.6.6-.6h7.2c.3 0 .6.3.6.6s-.3.6-.6.6z"/>
  <path d="M19.6 30.2h-7.2c-.3 0-.6-.3-.6-.6s.3-.6.6-.6h7.2c.3 0 .6.3.6.6-.1.3-.3.6-.6.6z"/>
  <path d="M18 32h-4c-.3 0-.6-.3-.6-.6s.3-.6.6-.6h4c.3 0 .6.3.6.6s-.3.6-.6.6z"/>
  <path d="M25.6 5.6c-.9-1.7-2.3-3-3.9-4S18.2.1 16.3 0c-1.9-.1-3.8.4-5.5 1.3S7.8 3.4 6.7 5c-1 1.6-1.6 3.4-1.7 5.3-.1 1.9.3 3.8 1.1 5.5.8 1.7 2.1 3.2 3.6 4.2.3.2.6.6.8.9.2.4.3.8.3 1.2V26c0 .3.3.6.6.6h9.2c.3 0 .6-.3.6-.6v-3.8c0-.4.1-.8.3-1.2.2-.4.5-.7.8-.9 1.5-1 2.7-2.4 3.5-3.9.8-1.6 1.3-3.3 1.3-5.1-.1-2-.6-3.8-1.5-5.5zm-.8 10c-.7 1.4-1.8 2.6-3.1 3.5-.5.4-.9.8-1.2 1.4-.3.5-.4 1.1-.4 1.7v3.2h-1.9v-4.9l1.3-2.7c.1-.3 0-.6-.3-.8-.3-.1-.6 0-.8.3l-1.3 2.8c0 .1-.1.2-.1.2v5h-2v-5c0-.1 0-.2-.1-.2l-1.3-2.8c-.1-.3-.5-.4-.8-.3-.3.1-.4.5-.3.8l1.3 2.7v4.9H12v-3.2c0-.6-.1-1.2-.4-1.7-.3-.5-.7-1-1.2-1.4-1.4-1-2.5-2.3-3.3-3.8-.7-1.5-1.1-3.2-1-4.9.1-1.7.6-3.3 1.6-4.8.9-1.4 2.2-2.6 3.7-3.4 1.5-.8 3.2-1.2 4.9-1.1 1.7.1 3.4.5 4.8 1.4 1.5.9 2.7 2.1 3.5 3.6.8 1.5 1.3 3.2 1.3 4.9 0 1.6-.4 3.2-1.1 4.6z"/>
  <path d="M22.2 13.6h-2.8V9.9c0-.6-.1-1-.3-1.2-.2-.2-.5-.4-.8-.4-.5 0-.8.1-1 .4-.2.3-.3.7-.3 1.2v2.3h.9v1.4H15V9.9c0-.6-.1-1-.3-1.2-.2-.2-.5-.4-.8-.4-.5 0-.8.1-1 .4-.2.3-.3.7-.3 1.1v2.3h1.3v1.4H9.8v-1.4h.9V8.4h-.9V7h2.8v1c.4-.8 1.1-1.1 2-1.1.5 0 .9.1 1.3.4.4.2.7.6.8 1.1.4-1 1.1-1.4 2.2-1.4.6 0 1.1.2 1.6.6.5.4.7 1 .7 1.8v3.1h.9v1.1z"/>
</svg>
