<svg width="32" height="32" viewBox="0 0 32 32" fill="none" xmlns="http://www.w3.org/2000/svg">
  <g clip-path="url(#clip0_218_1838)">
  <path d="M0 8.96552V22.9052C0 27.3044 3.58172 30.8707 8 30.8707C10.8278 30.8707 13.3129 29.4098 14.7357 27.2047C15.4545 25.8922 16.3636 25.8922 17.2643 27.2047C18.6871 29.4098 21.1722 30.8707 24 30.8707C28.4183 30.8707 32 27.3044 32 22.9052C32 18.5059 28.4183 14.9397 24 14.9397C21.4946 14.9397 19.2582 16.0864 17.7913 17.8815C17.2533 18.5399 16 19.1035 15.9545 17.3836C15.9545 15.7254 15.9968 9.43934 15.9998 8.9908C16 8.97243 16 8.95619 16 8.93781C15.985 4.55132 12.409 1 8 1C3.58172 1 0 4.56628 0 8.96552Z" fill="url(#paint0_linear_218_1838)"/>
  </g>
  <defs>
  <linearGradient id="paint0_linear_218_1838" x1="5.59091" y1="1" x2="17.2699" y2="42.2119" gradientUnits="userSpaceOnUse">
  <stop stop-color="#6AE1D9"/>
  <stop offset="1" stop-color="#9898FF"/>
  </linearGradient>
  <clipPath id="clip0_218_1838">
  <rect width="32" height="32" fill="white"/>
  </clipPath>
  </defs>
</svg>
