<svg xmlns="http://www.w3.org/2000/svg" width="32" height="32" viewBox="0 0 32 32">
  <path fill="#008787" d="M28.7 20.6h-13c-.1 0-.2 0-.3.1-.1 0-.2.1-.2.1-.1.1-.1.1-.1.2s-.1.2-.1.3v2.1c0 .7.1 1.5.4 2.1.3.7.7 1.3 1.2 1.8s1.1.9 1.8 1.2c.7.3 1.4.4 2.1.4h7.2c.5 0 1.1-.1 1.6-.3.5-.2 1-.5 1.4-.9.4-.4.7-.8.9-1.4s.3-1 .3-1.6v-1.8c0-1-1-2.3-3.2-2.3z"/>
  <linearGradient id="a" x1="28.4022" x2="23.879" y1="5.3974" y2="9.6758" gradientTransform="matrix(1 0 0 -1 0 34)" gradientUnits="userSpaceOnUse">
    <stop offset="0" stop-color="#054096" stop-opacity=".5"></stop>
    <stop offset=".1" stop-color="#173ba1" stop-opacity=".44"></stop>
    <stop offset=".29" stop-color="#3434b3" stop-opacity=".33"></stop>
    <stop offset=".49" stop-color="#482ec1" stop-opacity=".22"></stop>
    <stop offset=".68" stop-color="#552bc8" stop-opacity=".11"></stop>
    <stop offset=".86" stop-color="#592acb" stop-opacity="0"></stop>
  </linearGradient>
  <path fill="url(#a)" d="M28.7 20.6h-13c-.1 0-.2 0-.3.1-.1 0-.2.1-.2.1-.1.1-.1.1-.1.2s-.1.2-.1.3v2.1c0 .7.1 1.5.4 2.1.3.7.7 1.3 1.2 1.8s1.1.9 1.8 1.2c.7.3 1.4.4 2.1.4h7.2c.5 0 1.1-.1 1.6-.3.5-.2 1-.5 1.4-.9.4-.4.7-.8.9-1.4s.3-1 .3-1.6v-1.8c0-1-1-2.3-3.2-2.3z" opacity=".9"></path>
  <linearGradient id="b" x1=".9999" x2="29.1758" y1="18.5248" y2="18.5248" gradientTransform="matrix(1 0 0 -1 0 34)" gradientUnits="userSpaceOnUse">
    <stop offset="0" stop-color="#9059ff"></stop>
    <stop offset="1" stop-color="#f770ff"></stop>
  </linearGradient>
  <path fill="url(#b)" d="M27.8 6.8L16.4.3c-.4-.2-.8-.3-1.3-.3s-.9.1-1.3.3L2.4 6.8c-.4.2-.8.5-1 .9S1 8.6 1 9.1v12.8c0 .5.1.9.4 1.4s.6.7 1 1l11.4 6.4c.4.2.9.4 1.3.4.5 0 .9-.1 1.3-.4l11.4-6.4c.4-.2.8-.6 1-1 .2-.4.4-.9.4-1.3V9.1c0-.5-.1-.9-.4-1.4-.2-.4-.6-.7-1-.9z"></path>
  <path fill="#20133a" d="M7.1 18.8l-.7.4-.3.3c0 .1-.1.2-.1.4v.4c0 .1.1.3.1.4.1.2.2.3.4.4.2.1.3.2.5.2s.4 0 .5-.1l.7-.4.3-.3c.1-.1.2-.2.2-.4v-.4c0-.1-.1-.3-.1-.4-.1-.1-.1-.2-.3-.3-.1-.1-.2-.2-.4-.2-.1 0-.3-.1-.4 0-.1-.1-.2 0-.4 0zm4.2-2.3l-1.4.8-.3.3c-.1.1-.2.2-.2.4v.4c0 .1.1.3.1.4.1.2.2.3.4.4.2.1.3.2.5.2s.4 0 .5-.1l1.4-.8.3-.3c.1-.1.2-.2.2-.4v-.4c0-.1-.1-.3-.1-.4-.1-.1-.1-.2-.3-.3-.1-.1-.2-.2-.4-.2-.1 0-.3-.1-.4 0 0-.2-.2-.1-.3 0zm5.7-2c-.1-.1-.1-.2-.2-.3-.1-.1-.2-.1-.3-.2V5.9c0-.1 0-.3-.1-.4-.1-.1-.1-.3-.2-.4-.2 0-.3-.1-.5-.2-.1-.1-.3-.1-.4-.1-.1 0-.3 0-.4.1-.1.1-.2.1-.3.2-.1.1-.2.2-.2.4-.1.1-.1.3-.1.4V14c-.1 0-.2.1-.3.2-.1.1-.2.2-.2.3-.1.1-.1.3-.1.5s0 .3.1.5c-.1.1-.1.3-.1.5s0 .3.1.5c.1.1.1.2.2.3.1.1.2.1.3.2v8c0 .3.1.6.3.8.2.2.5.3.8.3.3 0 .6-.1.8-.3.2-.2.3-.5.3-.8v-8.1c.1 0 .2-.1.3-.2.1-.1.2-.2.2-.3.1-.1.1-.3.1-.5s0-.3-.1-.5c.1-.3.1-.6 0-.9zm2.7-2.8l-1.4.8-.3.3c-.1.1-.2.2-.2.4v.4c0 .1.1.3.1.4.1.2.2.3.4.4.2.1.3.2.5.2s.4 0 .5-.1l1.4-.8.3-.3c.1-.1.2-.2.2-.4v-.4c0-.1-.1-.3-.1-.4-.1-.1-.1-.2-.3-.3-.1-.1-.2-.2-.4-.2-.1 0-.3-.1-.4 0s-.2 0-.3 0zm3.3.4c.2 0 .4 0 .5-.1l.7-.4.3-.3c.1-.1.2-.2.2-.4v-.4c0-.1-.1-.3-.1-.4l-.3-.3c-.1-.1-.2-.1-.4-.2h-.4c-.1 0-.3.1-.4.1l-.7.4-.3.3c-.1.1-.2.2-.2.4v.4c0 .1.1.3.1.4.1.2.2.3.4.4.3.1.4.1.6.1zm1.2 7.1l-.7-.4c-.2-.1-.5-.2-.8-.1-.3.1-.5.3-.6.5-.1.3-.2.6-.1.8s.3.5.5.6l.7.4c.2.1.3.1.5.1s.4-.1.5-.2c.2-.1.3-.2.4-.4.1-.1.1-.2.1-.4v-.4c0-.1-.1-.3-.2-.4 0 .1-.1 0-.3-.1zm-3.5-1.9l-1.4-.8c-.1-.1-.3-.1-.4-.1h-.4c-.1 0-.3.1-.4.2l-.3.3c-.1.1-.1.3-.1.4v.4c0 .1.1.3.2.4l.3.3 1.4.8c.2.1.3.1.5.1s.4-.1.5-.2c.2-.1.3-.2.4-.4.1-.1.1-.2.1-.4v-.4c0-.1-.1-.3-.2-.4.1-.1 0-.2-.2-.2zM9.9 13.6l1.4.8c.2.1.3.1.5.1s.4-.1.5-.2c.2-.1.3-.2.4-.4.1-.1.1-.3.1-.4v-.4c0-.1-.1-.3-.2-.4l-.3-.3-1.3-.7c-.1-.1-.3-.1-.4-.1h-.4c-.1 0-.3.1-.4.2l-.3.3c-.1.3-.2.5-.1.8.1.3.3.5.5.7zm-1.7-3.4l-.7-.4c-.1-.1-.3-.2-.4-.2h-.4c-.1 0-.3.1-.4.2-.1.1-.2.2-.2.4-.1.1-.1.3-.1.4v.4c0 .1.1.3.2.4l.3.3.6.3c.2.1.3.1.5.1s.4-.1.5-.2c.2-.1.3-.2.4-.4.1-.1.1-.2.1-.4v-.4c0-.1-.1-.3-.2-.4 0 0-.1-.1-.2-.1z"></path>
  <linearGradient id="c" x1="16.0636" x2="32.3867" y1="9.5834" y2="2.6761" gradientTransform="matrix(1 0 0 -1 0 34)" gradientUnits="userSpaceOnUse">
    <stop offset="0" stop-color="#54ffbd"></stop>
    <stop offset="1" stop-color="#0df"></stop>
  </linearGradient>
  <path fill="url(#c)" d="M31.3 23.6h-12c-.7 0-1.3.1-2 .4-.6.3-1.2.6-1.7 1.1-.5.5-.9 1-1.1 1.7-.3.6-.4 1.3-.4 2v2.5c0 .1 0 .2.1.3 0 .1.1.2.1.2.1.1.1.1.2.1s.2.1.3.1h12c.7 0 1.3-.1 2-.4.6-.3 1.2-.6 1.7-1.1.5-.5.9-1 1.1-1.7.3-.6.4-1.3.4-2V23c0 .1 0 .2-.1.3 0 .1-.1.2-.1.2-.1.1-.1.1-.2.1h-.3z"></path>
  <path fill="#20123a" d="M19.5 27.8l.3-.3c.1-.1.1-.3.1-.4 0-.6-.4-1-1.2-1h-1.4v3.5h1.5c.8 0 1.2-.3 1.2-1 0-.2 0-.3-.1-.5-.1-.1-.3-.3-.4-.3zm-1.6-1.1h.8c.4 0 .5.2.5.4s-.2.4-.5.4h-.8v-.8zm.8 2.2h-.8v-.8h.8c.4 0 .6.2.6.4 0 .3-.2.4-.6.4zm1.9.7h2.3V29h-1.7v-.8h1.7v-.6h-1.7v-.8h1.7v-.6h-2.3v3.4zm5.4-3.5h-2.6v.6h1v2.8h.6v-2.8h1v-.6zm1.9 0h-.6L26 29.6h.7l.2-.6h1.4l.2.6h.7l-1.3-3.5zm-.9 2.2l.5-1.4.5 1.4h-1z"></path>
</svg>
