<svg xmlns="http://www.w3.org/2000/svg" width="32" height="32" viewBox="0 0 32 32">
  <path fill="#008787" d="M28.7 20.6H15.6c-.4 0-.7.3-.7.7v2.1c0 3.1 2.5 5.6 5.6 5.6h7.2c2.3 0 4.2-1.9 4.2-4.2V23c0-1.1-1-2.4-3.2-2.4z"></path>
  <linearGradient id="a" x1="26.9067" x2="24.0047" y1="6.7601" y2="9.5076" gradientTransform="matrix(1 0 0 -1 0 34)" gradientUnits="userSpaceOnUse">
    <stop offset="0" stop-color="#054096" stop-opacity=".5"></stop>
    <stop offset=".09995" stop-color="#173ba1" stop-opacity=".442"></stop>
    <stop offset=".2949" stop-color="#3434b3" stop-opacity=".329"></stop>
    <stop offset=".4888" stop-color="#482ec1" stop-opacity=".217"></stop>
    <stop offset=".6797" stop-color="#552bc8" stop-opacity=".107"></stop>
    <stop offset=".864" stop-color="#592acb" stop-opacity="0"></stop>
  </linearGradient>
  <path fill="url(#a)" d="M28.7 20.6H15.6c-.4 0-.7.3-.7.7v2.1c0 3.1 2.5 5.6 5.6 5.6h7.2c2.3 0 4.2-1.9 4.2-4.2V23c0-1.1-1-2.4-3.2-2.4z" opacity=".9"></path>
  <linearGradient id="b" x1="1" x2="29.1696" y1="18.5328" y2="18.5328" gradientTransform="matrix(1 0 0 -1 0 34)" gradientUnits="userSpaceOnUse">
    <stop offset="0" stop-color="#9059ff"></stop>
    <stop offset="1" stop-color="#f770ff"></stop>
  </linearGradient>
  <path fill="url(#b)" d="M27.8 6.7L16.4.3c-.8-.5-1.8-.5-2.6 0L2.4 6.7C1.5 7.2 1 8.1 1 9.1v12.8c0 1 .5 1.9 1.4 2.3l11.4 6.4c.4.2.9.3 1.3.3.5 0 .9-.1 1.3-.3l11.4-6.4c.8-.5 1.4-1.4 1.4-2.3V9.1c0-1-.6-1.9-1.4-2.4z"></path>
  <path fill="#20133a" d="M23.9 9.8l-8.3-4.7c-.3-.2-.7-.2-1 0L6.2 9.8c-.3.2-.5.5-.5.9v9.5c0 .4.2.7.5.9l8.3 4.7c.2.1.3.1.5.1s.4 0 .5-.1l8.3-4.7c.3-.2.5-.5.5-.9v-9.5c.1-.3-.1-.7-.4-.9zm-1.6 8.6l-6.2-3.5V7.8l6.2 3.5v7.1zm-7.2 5.3l-7.3-4.1v-8.3L14 7.8v7.6c0 .4.3.8.6 1l.2.2 6.4 3.6-6.1 3.5z"></path>
  <linearGradient id="c" x1="16.8542" x2="31.3367" y1="9.2472" y2="3.1193" gradientTransform="matrix(1 0 0 -1 0 34)" gradientUnits="userSpaceOnUse">
    <stop offset=".00103" stop-color="#54ffbd"></stop>
    <stop offset="1" stop-color="#0df"></stop>
  </linearGradient>
  <path fill="url(#c)" d="M31.2 23.6h-12c-2.8 0-5.1 2.3-5.1 5.1v2.5c0 .4.3.7.7.7h12c2.8 0 5.1-2.3 5.1-5.1v-3.9c0 .4-.3.7-.7.7z"></path>
  <path fill="#20123a" d="M19.4 27.8c.3-.1.4-.4.4-.7 0-.6-.4-1-1.2-1h-1.4v3.5h1.4c.8 0 1.2-.3 1.2-1 .1-.4-.1-.7-.4-.8zm-1.5-1.1h.8c.4 0 .5.1.5.4 0 .2-.1.4-.5.4h-.8v-.8zm.8 2.3h-.8v-.9h.8c.4 0 .6.2.6.4-.1.3-.3.5-.6.5zm1.8.6h2.3V29h-1.7v-.8h1.7v-.6h-1.7v-.8h1.7v-.6h-2.3v3.4zm5.5-3.5h-2.6v.6h1v2.8h.7v-2.8h1v-.6zm1.8 0h-.7l-1.3 3.5h.7l.2-.6h1.4l.2.6h.7l-1.2-3.5zm-.8 2.2l.5-1.4.5 1.4h-1z"></path>
</svg>
