<svg xmlns="http://www.w3.org/2000/svg" width="32" height="32" viewBox="0 0 32 32">
  <path fill="#42435a" d="M2.7 23.6c0 2.4 2 4.4 4.4 4.4h5.6c1.4 0 2.3.5 3.3 1.5 1-1 2-1.5 3.3-1.5h5.6c2.4 0 4.4-2 4.4-4.4V8.4c0-2.4-2-4.4-4.4-4.4h-5.6C18 4 17 4.2 16 5.2c-1-1-2-1.2-3.3-1.2H7.1C4.6 4 2.7 6 2.7 8.4v15.2zm24 0c0 1-.8 1.7-1.7 1.7h-5.6c-1.3 0-2.3.2-3.3 1.2-1-1-2-1.2-3.3-1.2H7.1c-1 0-1.7-.8-1.7-1.7V8.4c0-1 .8-1.7 1.7-1.7h5.6c1.3 0 2.3.5 3.3 1.5 1-1 2-1.5 3.3-1.5h5.6c1 0 1.7.8 1.7 1.7v15.2zM13.3 10.7H8c-.4 0-.7-.3-.7-.7 0-.4.3-.7.7-.7h5.3c.4 0 .7.3.7.7 0 .4-.3.7-.7.7zm-5.3 4h5.3c.4 0 .7-.3.7-.7s-.3-.7-.7-.7H8c-.4 0-.7.3-.7.7s.3.7.7.7zm5.3 4H8c-.4 0-.7-.3-.7-.7s.3-.7.7-.7h5.3c.4 0 .7.3.7.7s-.3.7-.7.7zm-5.3 4h3.4c.4 0 .7-.3.7-.7s-.3-.7-.7-.7H8c-.4 0-.7.3-.7.7s.3.7.7.7z"/>
</svg>
