<svg xmlns="http://www.w3.org/2000/svg" width="32" height="32" viewBox="0 0 32 32">
  <path fill="#42435a" d="M27.3 7.6c0-1.5-1.1-2.8-2.6-3L16 3.1 7.2 4.6c-1.5.2-2.6 1.5-2.6 3 0 2.4 0 5.5.2 7 .4 4.5 1.3 7 3.5 9.8 1.9 2.4 4.6 4 7.6 4.4h.4c3-.5 5.7-2 7.6-4.4 2.2-2.8 3-5.3 3.5-9.8-.1-1.6-.1-5.1-.1-7zm-2.9 6.7c-.4 4-1.1 6-2.9 8.4-1.4 1.7-3.3 2.9-5.5 3.3-2.2-.4-4.1-1.6-5.5-3.3-1.8-2.4-2.5-4.4-2.9-8.4-.1-1.1-.1-3.5-.1-6.7 0-.1.1-.2.2-.2L16 6l8.3 1.4c.1 0 .2.1.2.2 0 3.2 0 5.7-.1 6.7zm-13.9-.2c0-.4-.1-1.5-.1-4.3l5.6-.9v14.2c-1.3-.3-2.4-1.1-3.2-2.1-1.4-1.8-2-3.1-2.3-6.9z"/>
</svg>
