<svg xmlns="http://www.w3.org/2000/svg" width="32" height="32" viewBox="0 0 32 32">
  <style>.st1{fill:#20133a}</style>
  <linearGradient id="a" x1="1.4286" x2="30.5714" y1="18.94" y2="18.94" gradientTransform="matrix(1 0 0 -1 0 34.94)" gradientUnits="userSpaceOnUse">
    <stop offset="0" stop-color="#9059ff"/>
    <stop offset="1" stop-color="#f770ff"/>
  </linearGradient>
  <path fill="url(#a)" d="M29.2 7L17.4.4c-.8-.5-1.9-.5-2.7 0L2.8 7c-.8.5-1.4 1.4-1.4 2.4v13.2c0 1 .5 1.9 1.4 2.4l11.8 6.6c.8.5 1.9.5 2.7 0L29.2 25c.9-.5 1.4-1.4 1.4-2.4V9.4c0-1-.6-1.9-1.4-2.4z"/>
  <path d="M7.8 19.5l-.8.4c-.5.3-.7 1-.4 1.5.3.5.9.7 1.5.4l.7-.4c.5-.3.7-1 .5-1.5-.3-.5-1-.7-1.5-.4z" class="st1"/>
  <path d="M12.1 17l-1.4.8c-.5.3-.7 1-.4 1.5s1 .7 1.5.4l1.4-.8c.5-.3.7-1 .5-1.5-.3-.5-1-.7-1.6-.4z" class="st1"/>
  <path d="M17.9 15c-.1-.2-.3-.4-.6-.5V6.1c0-.6-.5-1.1-1.1-1.1-.6 0-1.1.5-1.1 1.1v8.4c-.6.2-.9.8-.6 1.4-.2.6 0 1.2.6 1.4v8.4c0 .6.5 1.1 1.1 1.1.6 0 1.1-.5 1.1-1.1v-8.4c.6-.2.9-.8.7-1.4.1-.3.1-.6-.1-.9z" class="st1"/>
  <path d="M20.8 12.1l-1.4.8c-.5.3-.7 1-.4 1.5.3.5.9.7 1.5.4l1.4-.8c.5-.3.7-1 .4-1.5-.4-.5-1-.6-1.5-.4z" class="st1"/>
  <path d="M24.2 12.6c.2 0 .4 0 .5-.1l.7-.4c.5-.3.7-1 .4-1.5-.3-.5-.9-.7-1.5-.4l-.7.4c-.5.3-.7 1-.4 1.5.2.2.6.5 1 .5z" class="st1"/>
  <path d="M25.5 19.9l-.7-.4c-.5-.3-1.2-.1-1.5.5-.3.5-.1 1.2.4 1.5l.7.4c.5.3 1.2.1 1.5-.5.2-.6.1-1.2-.4-1.5z" class="st1"/>
  <path d="M21.9 17.8l-1.5-.8c-.5-.3-1.2-.1-1.5.4-.3.5-.1 1.2.4 1.5h.1l1.4.8c.5.3 1.2.1 1.5-.4.3-.5.1-1.2-.4-1.5z" class="st1"/>
  <path d="M10.6 14l1.4.8c.5.3 1.2.1 1.5-.4.3-.5.1-1.2-.4-1.5H13l-1.4-.8c-.5-.3-1.2-.1-1.5.4-.2.5 0 1.2.5 1.5z" class="st1"/>
  <path d="M8.8 10.5l-.7-.4c-.5-.3-1.2-.1-1.5.4s-.1 1.2.4 1.5l.7.4c.6.3 1.3.1 1.6-.4.3-.5.1-1.2-.5-1.5z" class="st1"/>
</svg>
