<svg xmlns="http://www.w3.org/2000/svg" width="32" height="32" viewBox="0 0 32 32">
  <path fill="#f80073" d="M27 1H5C2.8 1 1 2.8 1 5v22c0 2.2 1.8 4 4 4h22c2.2 0 4-1.8 4-4V5c0-2.2-1.8-4-4-4z"/>
  <path fill="#fff" d="M26 8.8l-1.4-1.4c-.1-.1-.2-.1-.3 0l-1.4 1.4-.1.1v2.8h-2.3V8.9L19 7.4c-.1-.1-.2-.1-.3 0l-1.4 1.4-.1.1v2.8h-2.3V8.9l-1.4-1.4c-.1-.1-.2-.1-.3 0l-1.4 1.4-.1.1v2.8H9.2V8.9L7.8 7.4c-.1-.1-.2-.1-.3 0L6 8.8l-.1.1v15c0 .1.1.2.2.2H9c.1 0 .2-.1.2-.2v-2.8h2.3V24c0 .1.1.2.2.2h2.8c.1 0 .2-.1.2-.2v-2.8H17V24c0 .1.1.2.2.2H20c.1 0 .2-.1.2-.2v-2.8h2.3V24c0 .1.1.2.2.2h2.8c.1 0 .2-.1.2-.2V9c.4-.1.3-.2.3-.2zm-14.7 11H9.2v-6.6h2.3v6.6h-.2zm5.6 0h-2.1v-6.6h2.3v6.6h-.2zm5.7 0h-2.1v-6.6h2.3v6.6h-.2z"/>
</svg>
