<svg xmlns="http://www.w3.org/2000/svg" width="32" height="32" viewBox="0 0 32 32">
  <path fill="#42435a" d="M26 10.4c-2.5 0-4.7 1.7-5.4 4h-9.3c-.1-.4-.3-.7-.4-1.1l2.4-2.4c.8.4 1.7.7 2.7.7 3.1 0 5.6-2.5 5.6-5.6S19.1.4 16 .4 10.4 2.9 10.4 6c0 1 .2 1.9.7 2.7l-2.4 2.4c-.8-.5-1.7-.7-2.7-.7C2.9 10.4.4 12.9.4 16s2.5 5.6 5.6 5.6c2.5 0 4.7-1.7 5.4-4h9.3c.1.4.3.7.4 1.1l-2.4 2.4c-.8-.4-1.7-.7-2.7-.7-3.1 0-5.6 2.5-5.6 5.6s2.5 5.6 5.6 5.6 5.6-2.5 5.6-5.6c0-1-.2-1.9-.7-2.7l2.4-2.4c.8.4 1.7.7 2.7.7 3.1 0 5.6-2.5 5.6-5.6s-2.5-5.6-5.6-5.6zM16 3.6c1.3 0 2.4 1.1 2.4 2.4S17.3 8.4 16 8.4 13.6 7.3 13.6 6s1.1-2.4 2.4-2.4zM6 18.4c-1.3 0-2.4-1.1-2.4-2.4s1.1-2.4 2.4-2.4c1.3 0 2.4 1.1 2.4 2.4S7.3 18.4 6 18.4zm10 10c-.5 0-1-.2-1.3-.4-.3-.2-.5-.4-.6-.6-.3-.4-.4-.8-.4-1.3s.2-1 .4-1.3c.2-.3.4-.5.6-.6.4-.3.8-.4 1.3-.4 1.3 0 2.4 1.1 2.4 2.4s-1.1 2.2-2.4 2.2zm10-10c-1.3 0-2.4-1.1-2.4-2.4s1.1-2.4 2.4-2.4 2.4 1.1 2.4 2.4-1.1 2.4-2.4 2.4z"></path>
</svg>
