<svg xmlns="http://www.w3.org/2000/svg" width="32" height="32" viewBox="0 0 32 32">
  <path fill="#42435a" d="M17.2 27l8.7-4.3c.2-.1.4-.2.5-.4.1-.2.2-.4.2-.6V10.9l-9.3 4.7V27zm-2.4 0V15.6l-9.3-4.7v10.7c0 .4.2.9.6 1l8.7 4.4zM25.1 9l-8.5-4.3c-.2-.1-.3-.1-.5-.1s-.4 0-.5.1L6.9 9l9.1 4.5L25.1 9zm-7.5-6.4l9.3 4.7c.6.3 1.1.7 1.4 1.3.3.6.5 1.2.5 1.8v11.1c0 .7-.2 1.3-.5 1.8-.3.6-.8 1-1.4 1.3l-9.3 4.7c-.5.2-1 .4-1.6.4-.5 0-1.1-.1-1.6-.4l-9.3-4.7c-.6-.2-1.1-.6-1.4-1.2-.3-.6-.5-1.2-.5-1.8V10.4c0-.7.2-1.3.5-1.8.3-.6.8-1 1.4-1.3l9.3-4.7c.5-.2 1-.4 1.6-.4s1.1.2 1.6.4z"></path>
</svg>
