<svg xmlns="http://www.w3.org/2000/svg" xml:space="preserve" viewBox="0 0 204 63" width="204" height="63">
  <path fill="#fc4055" d="M144.6 4.7c.6.1 1.1.1 1.5.1.4 0 .7 0 1 .1.6 0 1.3.1 2.5.2s1.9.2 2.5.3l1 .1 1.5.2c.6.1 1.1.2 1.5.2l1 .2c.6.1 1.2.3 2.4.5 2.4.5 2.3.8 4.7 1.4l1.4.4.9.3.9.3 1.4.4c.6.2 1 .3 1.4.4.4.1.7.2.9.3.8.2 1.5.5 2.3.8 2.2.9 2.2 1 4.3 2 .5.3.9.5 1.2.6.3.1.6.3.9.4.3.1.5.2.9.4.3.2.7.4 1.2.7.5.3.8.5 1.1.7.3.2.6.3.8.5l.4.2c.1.1.3.2.4.3.4.3.7.5 1 .8.2.2.4.3.5.5.1.2.2.3.4.4.1.1.2.3.2.4s.1.2.2.4c.3.6.7 1.2 1.1 1.8.2.2.3.4.4.5.1.1.2.3.4.4.2.2.5.4.7.6.2.2.5.4.6.6.1.1.2.3.3.4l.3.6c0 .1.1.2.1.3l.1.3.2.5c.1.3.1.5.2.8.1.5.2 1 .3 1.9v.6c0 .2 0 .3-.1.5 0 .2-.1.3-.1.4 0 .1-.1.2-.2.4s-.2.5-.3.7c-.1.2-.1.3-.2.5s-.1.4-.2.6c0 .2-.1.4-.1.6 0 .2-.1.3-.1.5-.1.3-.1.5-.1.8 0 .2-.1.5-.2.8 0 .2-.1.3-.2.5l-.3.6c-.2.4-.4.8-.6 1-.2.3-.3.5-.4.7-.2.2-.3.4-.5.7-.2.3-.4.6-.8 1-.2.2-.3.4-.5.5-.1.2-.3.3-.4.4l-.6.6-.6.6c-.3.2-.6.5-1 .9s-.8.6-1.1.8c-.3.2-.5.4-.8.5-.2.2-.5.3-.8.5l-.5.3-.7.4c-.5.3-.9.5-1.2.7-.3.2-.6.3-.8.5-.5.3-1 .6-2.1 1.1-.5.3-.9.5-1.2.6l-.8.5c-.3.1-.5.3-.8.5-.4.2-.9.4-1.3.6-.8.3-1.5.5-2.4.7l-2.4.6c-1.2.4-1.8.5-2.4.7-.6.2-1.2.3-2.4.6s-1.8.5-2.4.7c-.8.3-1.6.5-2.4.7-1.2.3-1.8.4-2.4.5s-1.2.2-2.5.5c-2.5.5-2.5.4-4.9.9-2.5.5-2.4.8-4.9 1.2-2.5.4-2.5.2-5 .6-2.5.4-2.5.5-5 .8-2.5.3-2.5.4-5 .6-2.5.3-2.6 0-5.1.3-2.5.2-2.6 0-5.1.2-2.5.2-2.5.5-5 .7-2.5.2-2.5.2-5.1.3-2.5.1-2.6-.4-5.1-.3-2.5.1-2.5.4-5.1.5-2.5.1-2.5-.4-5.1-.4-2.5 0-2.5.5-5.1.4-2.5 0-2.5-.4-5.1-.4-2.5 0-2.5-.1-5.1-.2-2.5-.1-2.5-.1-5.1-.2s-2.5 0-5.1-.2l-5-.4-5-.4c-.5.2-1.3.2-2.2.2-.8 0-1.7 0-2.5-.2-2.5-.3-2.4-.6-4.9-1-2.5-.4-2.4-.5-4.9-1-.8-.2-1.7-.3-2.5-.3-.8-.1-1.7-.2-2.5-.4-1.2-.3-1.8-.4-2.4-.5-.6-.1-1.2-.2-2.4-.5-.6-.1-1.1-.3-1.4-.3s-.7-.1-1-.2c-.8-.1-1.6-.3-2.4-.6-1.2-.3-1.8-.6-2.3-.8l-2.3-.8c-1.3-.4-2.3-1.2-3.5-1.7-1.1-.4-2.3-.5-3.4-1-.5-.3-.9-.5-1.3-.6l-.8-.5-2-1.2c-.6-.4-1.3-.9-1.8-1.3-.4-.4-.9-.7-1.7-1.4l-.9-.9c-.2-.3-.3-.5-.5-.7-.2-.4-.5-.9-1.1-1.7-.3-.4-.5-.7-.6-1-.1-.3-.2-.5-.3-.7-.3-.6-.5-1.2-.6-1.8-.1-.2-.1-.4-.2-.6 0-.1 0-.2-.1-.3v-.2c-.3-.2-.3-.3-.3-.5 0-.1 0-.2-.1-.4 0-.1 0-.2-.1-.4v-1.6c0-.5.1-.9.1-1.2 0-.3.1-.5.2-.8.1-.5.2-1 .5-1.9.3-1 .4-1.4.6-1.9.1-.2.1-.5.3-.8.2-.4.3-.7.5-1.1l.2-.4.3-.5c.2-.3.3-.5.4-.7.3-.6.7-1.2 1.2-1.7.2-.2.3-.4.5-.5.2-.1.3-.3.5-.4.3-.2.5-.4.8-.5.7-.4 1.3-.8 1.9-1.3.2-.2.4-.3.6-.5l.4-.4c.1-.1.2-.2.3-.4l.3-.3c.4-.6 1-1.1 1.7-1.5.7-.4 1.4-.8 2.1-1.1.5-.3 1.1-.5 2.1-1.1.7-.4 1.5-.6 2.4-.7.3-.1.6-.1 1-.2.5-.1.9-.3 1.4-.5 2.2-.9 2.1-1.2 4.4-1.9 2.3-.8 2.3-.8 4.7-1.5 2.4-.6 2.4-.7 4.8-1.3 2.4-.6 2.5-.4 4.9-.9 2.4-.5 2.4-.5 4.9-.9.8-.1 1.6-.3 2.4-.5.8-.2 1.6-.4 2.5-.5 2.5-.3 2.6 0 5.1-.3 2.5-.3 2.5-.2 5-.4 1.3-.1 1.9-.2 2.5-.3.8-.1 1.7-.2 2.5-.3 2.5-.2 2.5-.1 5.1-.2 1.3-.1 1.9-.1 2.5-.1h2.5c2.5-.1 2.5-.5 5.1-.5 2.5 0 2.5.2 5.1.2 1.3 0 1.9 0 2.5-.1H93c2.5.1 2.5 0 5.1.1 2.5.1 2.5.3 5.1.5.8 0 1.7.1 2.5.3.6.1 1.3.2 2.5.3 2.5.2 2.6-.2 5.1.1 2.5.2 2.5.2 5.1.4.9.1 1.7.3 2.5.5.8.3 1.6.5 2.5.6 2.5.3 2.6 0 5.1.3 2.5.3 2.4.8 4.9 1.2 2.5.4 2.6 0 5.1.4 2.5.4 2.4.8 4.9 1.2 1.2.2 1.8.4 2.5.5l2.5.5c2.4.5 2.5.5 4.9 1 1.2.3 1.8.4 2.5.5.6.1 1.2.2 2.4.5 2.4.6 2.4.6 4.8 1.3l2.4.7c.6.2 1.2.3 2.4.7.8.3 1.6.5 2.4.6l2.4.6c2.3.8 2.2 1.1 4.5 2 2.3.9 2.2 1 4.4 2 2.2.9 2.4.7 4.5 1.8 2.2 1 2.2 1 4.3 2.1.5.3.9.5 1.2.7.3.2.6.3.9.4.3.1.5.3.9.4.3.2.7.4 1.2.7.5.3.8.6 1.1.8l.8.6c.2.2.5.3.7.6.3.2.6.5 1.1.8.4.3.7.6 1 .9.3.2.4.4.6.6.2.2.4.4.6.7s.5.5.9.9 1.3.2 2.1-.3c.2-.2.3-.4.4-.6.2-.3.3-.7.1-1l-1-1c-.2-.3-.4-.5-.6-.7-.2-.3-.4-.5-.7-.7-.3-.3-.7-.7-1.1-1-.5-.4-.8-.7-1.1-.9l-.8-.6c-.2-.2-.5-.4-.8-.6-.3-.2-.7-.5-1.2-.8-.4-.3-.9-.5-1.3-.7-.3-.1-.7-.2-1-.3-.3-.1-.7-.2-1-.3-.5-.2-.9-.4-1.3-.6-2.2-1.2-2.1-1.2-4.4-2.3-2.3-1.1-1.9-1.6-4.2-2.6-2.3-1-2.4-.8-4.8-1.7-2.4-.9-2.6-.5-4.9-1.4l-2.4-.8-2.4-.8-2.4-.8c-.8-.3-1.6-.6-2.4-.8-2.4-.7-2.5-.6-4.9-1.3-1.2-.3-1.8-.5-2.4-.7-.8-.3-1.6-.5-2.5-.7-2.5-.6-2.4-.7-4.9-1.2-1.3-.3-1.9-.4-2.5-.5-.6-.1-1.3-.2-2.5-.5-2.5-.5-2.5-.4-5-.9-2.5-.4-2.5-.5-5-.9s-2.5-.5-5.1-.8c-2.5-.3-2.6.1-5.2-.2-1.3-.2-1.9-.3-2.5-.4-.6-.1-1.3-.2-2.5-.3-2.6-.3-2.6-.2-5.1-.4-2.5-.2-2.5-.6-5.1-.8-.9-.1-1.7-.1-2.6-.1-.6 0-1.3 0-2.6-.1-2.6-.1-2.6-.3-5.1-.5C96 .1 96 .2 93.4.1h-2.6L88 0c-2.6 0-2.6.1-5.2.1s-2.6.3-5.1.4c-.9 0-1.7 0-2.6-.2-.8-.3-1.7-.3-2.6-.3-2.6.1-2.6.3-5.1.5-1.3.1-1.9.1-2.6.2-.6 0-1.3.1-2.6.2-2.6.2-2.5.6-5.1.8-2.6.3-2.5.5-5.1.8-.9.1-1.8.1-2.6 0-.9-.1-1.8-.1-2.6.1-2.5.4-2.5.6-5 1.1-2.5.5-2.4.8-4.9 1.4-2.5.6-2.6.3-5.1 1-2.4.7-2.4.9-4.8 1.7-.3.1-.6.2-.8.3-.2.1-.5.1-.6.2-.4.1-.7.2-1 .2-.9.2-1.7.4-2.5.8-.8.3-1.6.7-2.2 1.3-.6.5-1.3 1-2.1 1.3-1.1.6-1.7.9-2.2 1.2-.5.3-1.1.6-2.1 1.3-.7.5-1.5.8-2.3 1.1-.2.1-.3.1-.5.2s-.3.1-.5.2l-.6.3c-.2.1-.4.3-.7.5-.7.5-1.2 1.1-1.7 1.8l-.3.4c-.1.1-.2.3-.3.4-.1.1-.2.3-.4.5s-.3.4-.5.6c-.5.6-1 1.2-1.4 1.9-.2.2-.3.5-.5.8-.1.2-.2.3-.3.5-.2.2-.3.4-.5.7-.1.3-.3.5-.4.7-.1.2-.2.4-.3.5-.2.3-.4.6-.6.8-.5.6-.9 1.4-1.1 2.1-.2.7-.4 1.5-.4 2.3 0 .3 0 .6-.1.9 0 .4 0 .8-.1 1.4v1.4c0 .2 0 .3.1.5 0 .2.1.3.1.4 0 .1.1.3.1.4s.1.3.1.5.1.4.2.6c.1.2.1.5.2.8.3 1.1.5 1.7.7 2.2.2.2.3.5.5.8.2.4.5.8.7 1.2.7 1 1 1.5 1.3 2 .2.3.3.5.6.8.3.4.7.7 1 1.1.9.8 1.4 1.2 1.9 1.6.7.5 1.3 1 2.1 1.5.7.5 1.5.9 2.3 1.2.3.1.6.3 1 .4l1.4.7c.6.3 1 .5 1.4.6.4.2.7.3 1 .4l1 .4 1.4.5h.1c.7.4 1.5.8 2.3 1.1 1.2.4 1.8.7 2.4.9l2.4.9c.8.3 1.7.4 2.6.4H30c.5.1 1 .1 1.5.3 1.2.3 1.9.5 2.5.6.6.2 1.2.3 2.5.6.9.2 1.7.4 2.4.8.8.4 1.6.6 2.5.8 2.5.4 2.6.2 5.1.6 2.5.4 2.6 0 5.2.3l2.5.3c.6.1 1.3.2 2.6.3 2.6.3 2.5.4 5.1.7 2.6.2 2.6.2 5.1.3 2.6.2 2.6.3 5.1.5 2.6.1 2.6.3 5.1.4 2.6.1 2.6 0 5.1.1 2.6.1 2.6 0 5.1 0 2.6 0 2.6.1 5.1 0 2.6 0 2.6.1 5.1 0 2.6 0 2.6-.5 5.1-.6 2.6-.1 2.6 0 5.1-.1 2.6-.1 2.6-.2 5.1-.3 2.6-.2 2.6.3 5.2.1 2.6-.2 2.5-.4 5.1-.6 2.6-.2 2.6 0 5.1-.3 2.6-.3 2.5-.4 5.1-.7 2.5-.3 2.5-.3 5.1-.7 2.5-.3 2.5-.5 5-.9s2.5-.7 5-1.1c2.5-.4 2.7.1 5.2-.4.8-.2 1.7-.4 2.5-.6.6-.2 1.2-.4 2.5-.7 1.3-.3 1.9-.5 2.5-.6.6-.2 1.2-.3 2.5-.6.8-.2 1.6-.5 2.4-.9.8-.4 1.6-.7 2.4-.9l2.4-.9c.6-.3 1.1-.5 2.3-1 .5-.2 1-.3 1.5-.5.4-.1.7-.1 1.1-.2.4 0 .7-.1 1.1-.2.5-.1 1-.3 1.4-.5.8-.4 1.5-.8 2.2-1.3.3-.2.5-.4.8-.6.3-.2.7-.5 1.3-.8.3-.2.5-.3.7-.5.2-.1.4-.3.5-.4.3-.2.5-.4.8-.7l.7-.7c.3-.3.6-.6 1.1-.9.5-.4.8-.7 1.1-.9.3-.2.6-.4.8-.6.3-.2.5-.4.8-.6.4-.3.7-.7 1-1 .4-.5.7-.8.9-1.1.2-.3.4-.6.5-.8.2-.3.3-.5.5-.8.2-.3.4-.7.7-1.2l.4-.7c.1-.2.2-.4.3-.5.2-.3.3-.6.5-.8.2-.3.3-.5.5-.9.1-.2.1-.4.2-.6.1-.2.2-.5.2-.8.1-.3.1-.5.1-.8v-.6c0-.3-.1-.6-.2-1l-.1-.4c0-.2-.1-.3-.1-.5s-.1-.4-.1-.6c0-.2-.1-.5-.1-.8-.1-.8-.2-1.5-.4-2.2-.1-.3-.2-.5-.3-.9-.1-.2-.1-.4-.2-.6l-.1-.3c0-.1-.1-.2-.2-.4-.1-.3-.2-.5-.3-.7-.1-.2-.1-.4-.2-.6-.1-.4-.2-.6-.2-.9 0-.1-.1-.3-.1-.4 0-.2-.1-.3-.2-.5l-.3-.6c-.1-.2-.3-.4-.5-.7-.5-.7-1.1-1.2-1.8-1.7l-.4-.3c-.1-.1-.3-.2-.4-.3-.2-.1-.3-.3-.5-.4-.2-.1-.4-.3-.6-.5-.4-.3-.7-.6-1.1-.9-.3-.2-.6-.4-.8-.6l-.9-.5c-.3-.2-.7-.5-1.2-.8l-1.2-.9c-.3-.2-.5-.4-.8-.7-.2-.2-.5-.5-.8-.7-.4-.3-.8-.6-1.3-.8-.6-.3-1-.5-1.4-.6-.4-.1-.7-.3-1-.4-.3-.1-.6-.2-1-.4l-1.4-.6c-.8-.3-1.6-.6-2.5-.8-.3-.1-.6-.1-1-.3-.4-.1-.9-.2-1.5-.4s-1.1-.3-1.4-.5l-1-.3c-.3-.1-.6-.2-1-.3-.4-.1-.8-.2-1.5-.4-2.5-.6-2.4-.9-4.9-1.5l-2.5-.5-1-.2c-.4-.1-.9-.2-1.5-.3-.6-.1-1.1-.2-1.5-.2-.4 0-.7 0-1.1-.1-.7 0-1.3-.1-2.6-.2-.9-.1-1.7-.2-2.6-.2-.3 0-.6 0-1.1-.1-.4 0-.9 0-1.5-.1-.7-.1-1.4 1.3-1.4 1.3.4 1.3.8 1.8 1.5 1.9z"/>
</svg>
