<svg xmlns="http://www.w3.org/2000/svg" xml:space="preserve" viewBox="0 0 272 8" width="272" height="8">
  <path fill="#fc4055" d="M270.6 5.7c-2.7-.1-2.7.1-5.4 0s-2.7.2-5.4.1-2.7-.2-5.4-.2c-2.7-.1-2.7-.5-5.4-.6-2.7-.1-2.7-.2-5.4-.3-2.7-.1-2.7.3-5.4.2-2.7-.1-2.7.1-5.4.1-2.7-.1-2.7-.7-5.4-.8s-2.7.2-5.4.1-2.7.5-5.4.4c-2.7 0-2.7-.8-5.4-.9l-5.2-.1c-2.7 0-2.7.7-5.4.7s-2.7-.4-5.4-.5c-2.7 0-2.7.1-5.4.1s-2.7-.4-5.4-.4-2.7.4-5.4.4-2.7.3-5.4.2c-2.7 0-2.7-.9-5.4-.9s-2.7.3-5.4.3-2.7.4-5.4.4H152c-2.7 0-2.7.3-5.4.3s-2.7-.7-5.4-.7-2.7.3-5.4.4c-2.7 0-2.7.2-5.4.2l-5.4.1c-2.7 0-2.7.2-5.4.2s-2.7-.2-5.4-.2-2.7.3-5.4.3-2.7-.4-5.4-.4-2.7.1-5.4.2c-2.7 0-2.7-.1-5.4 0s-2.7.6-5.4.6c-2.7.1-2.7 0-5.4 0l-5.4.1-5.4.2c-2.7.1-2.7.2-5.4.3-2.7.1-2.7-.1-5.4 0s-2.7-.1-5.4 0l-5.4.2c-2.7.1-2.7-.1-5.4 0L39 6c-2.7.1-2.7.6-5.4.7-2.7.1-2.7.4-5.4.5-2.7.1-2.8-.6-5.4-.5-2.7.1-2.7 0-5.4.2-2.7.1-2.6.9-5.3 1.1-2.7.1-2.7-.2-5.4 0S4 7.7 1.3 7.8C.6 7.8 0 6.3 0 6.3c-.1-1 .2-1.9 1-1.9 2.7-.1 2.7.1 5.4 0s2.7 0 5.4-.2 2.7-.4 5.4-.5c2.7-.1 2.7-.2 5.4-.3 2.7-.1 2.7-.4 5.4-.5 2.7-.1 2.7.1 5.4 0 2.6-.2 2.6.2 5.3 0 2.7-.1 2.7-.5 5.4-.6l5.4-.3h5.4c2.7-.1 2.7-.3 5.4-.4l5.4-.2c2.7-.1 2.7 0 5.4-.1s2.7.3 5.4.2c2.7-.1 2.7-.6 5.4-.7 2.7-.1 2.7.5 5.4.4 2.7 0 2.7-.4 5.3-.5 2.7-.1 2.7.6 5.4.5l5.4-.2c2.7 0 2.7-.5 5.4-.5s2.7.2 5.4.2 2.7.2 5.4.2 2.7-.1 5.4-.1 2.7-.3 5.4-.3 2.7.2 5.4.2 2.7-.5 5.4-.5 2.7.1 5.4.1 2.7.1 5.4.1 2.7-.2 5.4-.2 2.7.1 5.4.1 2.7.4 5.4.4 2.7-.3 5.4-.3h5.4c2.7 0 2.7.2 5.4.2h10.8c2.7 0 2.7-.3 5.4-.3s2.7.8 5.4.8 2.7.2 5.4.2 2.7-.7 5.4-.6c2.7 0 2.7.7 5.4.8 2.7 0 2.7-.3 5.4-.2 2.7.1 2.7-.2 5.4-.1s2.7.2 5.4.2c2.7.1 2.7-.1 5.4 0l5.4.2c2.7.1 2.7.5 5.4.6 2.7.1 2.7.2 5.4.3l5.4.2c2.7.1 2.7 0 5.4 0 .7 0 1.2.6 1.2 1.6 0-.3-.7 1.4-1.4 1.4z"/>
</svg>
