<?xml version="1.0" encoding="UTF-8"?>
<svg width="53px" height="53px" viewBox="0 0 53 53" version="1.1" xmlns="http://www.w3.org/2000/svg" xmlns:xlink="http://www.w3.org/1999/xlink">
    <!-- Generator: Sketch 49.3 (51167) - http://www.bohemiancoding.com/sketch -->
    <title>icon_bookmarks</title>
    <desc>Created with Sketch.</desc>
    <defs>
        <path d="M23.1294805,8.72191814 C22.9427522,8.16378847 22.4672949,7.75135039 21.8883867,7.64532439 L15.882668,6.57166814 L13.0538555,0.894949395 C12.7805507,0.346582819 12.2205712,-1.22298005e-16 11.6078711,0 C10.995171,8.15320034e-17 10.4351915,0.346582819 10.1618867,0.894949395 L7.33160549,6.57166814 L1.33763674,7.64238689 C0.753599768,7.7444121 0.272360891,8.15813105 0.0838641944,8.72024966 C-0.104632502,9.28236826 0.0298975117,9.9025746 0.434355491,10.3360744 L4.73338674,14.9582306 L3.83891799,21.3619806 C3.75482642,21.9618295 4.01332244,22.5583226 4.5085231,22.9071295 C5.00372376,23.2559365 5.65242758,23.2984523 6.18891799,23.0172619 L11.6071367,20.1913869 L17.0268242,23.0216681 C17.5633147,23.3028585 18.2120185,23.2603428 18.7072191,22.9115358 C19.2024198,22.5627288 19.4609158,21.9662357 19.3768242,21.3663869 L18.4808867,14.9582306 L22.7784492,10.3375431 C23.1830211,9.90419567 23.3177564,9.28407526 23.1294805,8.72191814 Z" id="path-1"></path>
    </defs>
    <g id="Welcome" stroke="none" stroke-width="1" fill="none" fill-rule="evenodd">
        <g id="FxA" transform="translate(-897.000000, -844.000000)">
            <g id="sync" transform="translate(-23.000000, 810.000000)">
                <g id="copy-block" transform="translate(918.000000, 37.000000)">
                    <g id="icon_bookmarks" transform="translate(5.000000, 0.000000)">
                        <circle id="Oval-5-Copy-2" stroke="#3D3D3D" stroke-width="3" cx="23.5" cy="23.5" r="25"></circle>
                        <g id="icon_bookmark_closed-copy-2" transform="translate(12.000000, 12.000000)">
                            <rect id="bouding-box" x="0" y="0" width="23.5" height="23.5"></rect>
                            <mask id="mask-2" fill="white">
                                <use xlink:href="#path-1"></use>
                            </mask>
                            <use id="Shape" fill="#FFFFFF" fill-rule="nonzero" xlink:href="#path-1"></use>
                            <g id="Color-/-Photon-/-Primary---Grey-90-80%" mask="url(#mask-2)" fill="#0C0C0D" fill-opacity="0.8">
                                <rect id="Rectangle" x="0" y="0" width="24.0685721" height="24.0685721"></rect>
                            </g>
                        </g>
                    </g>
                </g>
            </g>
        </g>
    </g>
</svg>