<svg width="53" height="53" xmlns="http://www.w3.org/2000/svg" xmlns:xlink="http://www.w3.org/1999/xlink"><defs><path d="M19.62 0H6.54C4.734 0 3.27 1.521 3.27 3.398v3.397c0 .939.732 1.7 1.635 1.7s1.635-.761 1.635-1.7V4.247c0-.469.366-.85.817-.85h11.445c.452 0 .818.381.818.85v16.989c0 .469-.366.85-.818.85H7.357c-.451 0-.817-.381-.817-.85v-2.548c0-.939-.732-1.7-1.635-1.7s-1.635.761-1.635 1.7v5.096c0 1.877 1.464 3.398 3.27 3.398h13.08c1.806 0 3.27-1.521 3.27-3.398V3.398C22.89 1.52 21.426 0 19.62 0zm-4.905 25.483h-3.27v-1.699h3.27v1.699zm-6.301-8.246l3.51-3.646H.817c-.451 0-.817-.38-.817-.85 0-.469.366-.849.817-.849h11.107l-3.51-3.65a.873.873 0 0 1 .01-1.19.796.796 0 0 1 1.146-.01l4.905 5.096c.153.16.24.376.24.602a.867.867 0 0 1-.24.601L9.57 18.438a.797.797 0 0 1-.795.231.834.834 0 0 1-.584-.606.872.872 0 0 1 .223-.826z" id="a"/></defs><g transform="translate(3 3)" fill="none" fill-rule="evenodd"><circle stroke="#3D3D3D" stroke-width="3" cx="23.5" cy="23.5" r="25"/><g transform="translate(11 10)"><mask id="b" fill="#fff"><use xlink:href="#a"/></mask><g mask="url(#b)" fill="#0C0C0D" fill-opacity=".8"><path d="M0 0h25.958v26.957H0z"/></g></g></g></svg>
