<svg width="53" height="53" xmlns="http://www.w3.org/2000/svg" xmlns:xlink="http://www.w3.org/1999/xlink"><defs><path d="M18.048 15.552c-.106 0-.208-.012-.312-.016l-1.46 1.87c-.093.1-.308.226-.49.226-.234 0-.234 0-.65-.416l-.832-.832h-.416l-2.496 2.496H9.728v1.645c0 .254-.416.435-.416.435H8.48v.828c0 .42-.416.42-.416.42h-.832v1.257c0 .407-.416.407-.416.407H5.568v1.248c0 .416-.416.416-.416.416H.992c-.416 0-.416-.416-.416-.416v-2.912l9.152-9.152c.034-.037.416-.416 0-.832l-.832-.832c-.208-.193-.193-.625 0-.832l1.706-1.707a7.488 7.488 0 1 1 7.446 6.698zm1.664-10.816a1.664 1.664 0 1 0 0 3.328 1.664 1.664 0 0 0 0-3.328z" id="a"/></defs><g transform="translate(3 3)" fill="none" fill-rule="evenodd"><circle stroke="#3D3D3D" stroke-width="3" cx="23.5" cy="23.5" r="25"/><g transform="translate(10 10)"><path d="M0 0h26.111v26.111H0z"/><mask id="b" fill="#fff"><use xlink:href="#a"/></mask><g mask="url(#b)" fill="#0C0C0D" fill-opacity=".8"><path d="M0 0h26.063v26.063H0z"/></g></g></g></svg>
