<?xml version="1.0" encoding="UTF-8"?>
<svg width="53px" height="53px" viewBox="0 0 53 53" version="1.1" xmlns="http://www.w3.org/2000/svg" xmlns:xlink="http://www.w3.org/1999/xlink">
    <!-- Generator: Sketch 49.3 (51167) - http://www.bohemiancoding.com/sketch -->
    <title>icon_password</title>
    <desc>Created with Sketch.</desc>
    <defs>
        <path d="M18.0475557,15.5515556 C17.9423077,15.5515556 17.8395557,15.5399076 17.7355557,15.5357476 L16.2766437,17.4060837 C16.1834596,17.5063397 15.9675556,17.6315557 15.7857636,17.6315557 C15.5515556,17.6315557 15.5515556,17.6315557 15.1355556,17.2155557 C14.7195556,16.7995557 14.7195556,16.7995557 14.3035556,16.3835557 L13.8875556,16.3835557 L11.3915555,18.8795557 L9.72755546,18.8795557 L9.72755546,20.5252518 C9.72755546,20.7794278 9.31155544,20.9595558 9.31155544,20.9595558 L8.47955542,20.9595558 L8.47955542,21.7882278 C8.47955542,22.2075558 8.06355541,22.2075558 8.06355541,22.2075558 L7.23155538,22.2075558 L7.23155538,23.4651239 C7.23155538,23.8715559 6.81555537,23.8715559 6.81555537,23.8715559 L5.56755533,23.8715559 L5.56755533,25.1195559 C5.56755533,25.5355559 5.15155532,25.5355559 5.15155532,25.5355559 L0.991555196,25.5355559 C0.575555184,25.5355559 0.575555184,25.1195559 0.575555184,25.1195559 L0.575555184,22.2075558 L9.72755546,13.0555556 C9.76166746,13.0185316 10.1435555,12.6395555 9.72755546,12.2235555 L8.89555543,11.3915555 C8.68797143,11.1993635 8.70336343,10.7671395 8.89555543,10.5595555 L10.6019875,8.85312343 C10.5745315,8.59353942 10.5595555,8.33021141 10.5595555,8.06355541 C10.5595555,3.92809928 13.9120996,0.575555184 18.0475557,0.575555184 C22.1830118,0.575555184 25.5355559,3.92809928 25.5355559,8.06355541 C25.5355559,12.1990115 22.1830118,15.5515556 18.0475557,15.5515556 L18.0475557,15.5515556 Z M19.7115558,4.73555531 C18.7926117,4.73555531 18.0475557,5.48061133 18.0475557,6.39955536 C18.0475557,7.31849938 18.7926117,8.06355541 19.7115558,8.06355541 C20.6304998,8.06355541 21.3755558,7.31849938 21.3755558,6.39955536 C21.3755558,5.48061133 20.6304998,4.73555531 19.7115558,4.73555531 L19.7115558,4.73555531 Z" id="path-1"></path>
    </defs>
    <g id="Welcome" stroke="none" stroke-width="1" fill="none" fill-rule="evenodd">
        <g id="FxA" transform="translate(-237.000000, -1483.000000)">
            <g id="Passwords" transform="translate(1.000000, 1298.000000)">
                <g id="copy-block" transform="translate(234.000000, 188.000000)">
                    <g id="icon_password" transform="translate(5.000000, 0.000000)">
                        <circle id="Oval-5-Copy-3" stroke="#3D3D3D" stroke-width="3" cx="23.5" cy="23.5" r="25"></circle>
                        <g id="icon_key" transform="translate(10.000000, 10.000000)">
                            <rect id="bouding-box" x="0" y="0" width="26.1111111" height="26.1111111"></rect>
                            <mask id="mask-2" fill="white">
                                <use xlink:href="#path-1"></use>
                            </mask>
                            <g id="Icon---Key---32"></g>
                            <g id="Color-/-Photon-/-Primary---Grey-90-80%" mask="url(#mask-2)" fill="#0C0C0D" fill-opacity="0.8">
                                <rect id="Rectangle" x="0" y="0" width="26.0626514" height="26.0626514"></rect>
                            </g>
                        </g>
                    </g>
                </g>
            </g>
        </g>
    </g>
</svg>