<svg width="34" height="37" xmlns="http://www.w3.org/2000/svg"><path d="M26.723 15.656l-8.113 9.07c-.417.568-1.073.78-1.55.78a2.108 2.108 0 0 1-1.67-.78l-7.994-9.07c-.835-1.062-.954-2.834 0-3.968.895-.992 2.386-1.134 3.281 0l6.383 7.299 6.501-7.299c.836-1.134 2.327-.992 3.162 0 .835 1.134.835 2.906 0 3.968M30.839.633H3.28C1.49.633 0 2.263 0 4.389v12.118C0 27.49 7.635 36.633 17.06 36.633c9.365 0 16.94-9.142 16.94-20.126V4.389C34 2.263 32.568.633 30.839.633" fill="#EE4155" fill-rule="evenodd"/></svg>