<svg width="53" height="53" xmlns="http://www.w3.org/2000/svg" xmlns:xlink="http://www.w3.org/1999/xlink"><defs><path d="M23.13 8.722a1.616 1.616 0 0 0-1.242-1.077l-6.005-1.073-2.83-5.677a1.616 1.616 0 0 0-2.891 0l-2.83 5.677-5.994 1.07a1.616 1.616 0 0 0-.904 2.694l4.3 4.622-.895 6.404a1.616 1.616 0 0 0 2.35 1.655l5.418-2.826 5.42 2.83a1.616 1.616 0 0 0 2.35-1.655l-.896-6.408 4.297-4.62c.405-.434.54-1.054.351-1.616z" id="a"/></defs><g transform="translate(3 3)" fill="none" fill-rule="evenodd"><circle stroke="#3D3D3D" stroke-width="3" cx="23.5" cy="23.5" r="25"/><g transform="translate(12 12)"><path d="M0 0h23.5v23.5H0z"/><mask id="b" fill="#fff"><use xlink:href="#a"/></mask><use fill="#FFF" fill-rule="nonzero" xlink:href="#a"/><g mask="url(#b)" fill="#0C0C0D" fill-opacity=".8"><path d="M0 0h24.069v24.069H0z"/></g></g></g></svg>
