<svg xmlns="http://www.w3.org/2000/svg" width="330" height="185" viewBox="0 0 330 185" xml:space="preserve">
  <style>
    .st1,.st2{fill:none;stroke:#000;stroke-width:1.7763}.st1{stroke-miterlimit:10}.st2{stroke-linecap:round;stroke-linejoin:round}
  </style>
  <path fill="#cdd0ff" d="M167.6 158c38.7 0 70.1-31.4 70.1-70.1 0-38.7-31.4-70.1-70.1-70.1-38.7 0-70.1 31.4-70.1 70.1 0 38.7 31.4 70.1 70.1 70.1z"/>
  <path d="M223 8.4c1.6 0 3-1.3 3-3s-1.3-3-3-3c-1.6 0-3 1.3-3 3s1.4 3 3 3z" class="st1"/>
  <path d="M119.4 182.5c1.6 0 3-1.3 3-3s-1.3-3-3-3-3 1.3-3 3 1.4 3 3 3z" class="st1"/>
  <path d="M72.6 53.2h7.1" class="st2"/>
  <path d="M76.2 56.7v-7.1" class="st2"/>
  <path d="M97.5 157.6h7.1" class="st2"/>
  <path d="M101.1 161.2v-7.1" class="st2"/>
  <path d="M249.7 25.9h7.1" class="st2"/>
  <path d="M253.3 29.5v-7.1" class="st2"/>
  <path d="M171.5 158c3.2 0 6.3-.2 9.5-.7" class="st2"/>
  <path d="M237.7 91.8c0-36.6-29.7-66.2-66.2-66.2-36.6 0-66.2 29.7-66.2 66.2 0 36.6 29.7 66.2 66.2 66.2" class="st2"/>
  <path d="M250.6 110.9c1.5-6.2 2.3-12.6 2.2-19.1 0-44.9-36.4-81.4-81.4-81.4S90.1 46.8 90.1 91.8c0 44.9 36.4 81.4 81.4 81.4 8.8 0 17.5-1.4 25.8-4.2" class="st2"/>
  <path d="M170.7 114.7c-4.9.1-9.7-1.3-13.8-3.9-4.1-2.7-7.3-6.5-9.2-11-1.9-4.5-2.3-9.5-1.3-14.3 1-4.8 3.4-9.2 7-12.5 3.5-3.4 8-5.6 12.8-6.4 4.8-.8 9.8-.1 14.2 1.9 4.4 2.1 8.1 5.4 10.6 9.6 2.5 4.2 3.7 9.1 3.4 13.9" class="st2"/>
  <path d="M163.1 103.9c-2.4-1.3-4.3-3.1-5.8-5.4-1.4-2.3-2.2-4.9-2.3-7.5-.1-2.7.5-5.3 1.8-7.7 1.3-2.4 3.1-4.3 5.4-5.8 2.3-1.4 4.9-2.2 7.5-2.3 2.7-.1 5.3.5 7.7 1.8 2.4 1.3 4.3 3.1 5.8 5.4 1.4 2.3 2.2 4.9 2.3 7.5" class="st2"/>
  <path fill="#bc94ff" stroke="#000" stroke-linecap="round" stroke-linejoin="round" stroke-width="1.7763" d="M224.6 97.5l-.5.3c-3 2.1-2.9 5.6-.9 8.6l5 7h0l-7.9-11.2c-1-1.4-2.5-2.4-4.3-2.7-1.7-.3-3.5.1-4.9 1.1-3 2.1-4 6.4-1.9 9.4l6.7 9.5v0l-9.9-14c-1-1.4-2.5-2.4-4.3-2.7-1.7-.3-3.5.1-4.9 1.1-3 2.1-4 6.5-1.9 9.5l8.6 12.2h0l-26.1-37c-1-1.4-2.5-2.4-4.3-2.7s-3.5.1-4.9 1.1h0c-1.4 1-2.4 2.5-2.7 4.3-.3 1.7.1 3.5 1.1 4.9l27.6 39.2L203 148l-11.2-8c-1.5-1-3.3-1.4-5-1.1-1.8.3-3.3 1.3-4.4 2.7h0c-1 1.5-1.4 3.3-1.1 5 .3 1.8 1.3 3.3 2.7 4.4 0 0 23.7 17 25.1 17.8 4 2.4 8.6 3.9 13.3 4.4 4.7.5 9.4-.1 13.9-1.7 4.4-1.6 8.5-4.1 11.8-7.4 3.3-3.3 5.9-7.3 7.5-11.8.1-.2.1-.3.2-.5 1.6-4.8 2.1-9.9 1.4-14.9-.7-5-2.6-9.7-5.5-13.9l-12.2-17.4c-6.9-9.4-11.8-9.9-14.9-8.1z"/>
</svg>
