<svg xmlns="http://www.w3.org/2000/svg" width="330" height="185" viewBox="0 0 330 185" xml:space="preserve">
  <style>
    .st0{fill:#c3c5ff}.st1,.st4,.st5{stroke:#000;stroke-width:1.6059}.st1{stroke-miterlimit:10;fill:none}.st4,.st5{fill:#fff;stroke-linejoin:round}.st5{fill:none;stroke-linecap:round}.st7{fill:#6f4ae7}.st8{fill:none;stroke:#000;stroke-width:1.6059;stroke-linecap:round}
  </style>
  <path d="M150.5 97.5H65.6c-1.6 0-2.8 1.3-2.8 2.8v64.8c0 1.6 1.3 2.8 2.8 2.8h84.9c1.6 0 2.8-1.3 2.8-2.8v-64.8c.1-1.5-1.2-2.8-2.8-2.8z" class="st0"/>
  <path d="M123.9 183.5c1.5 0 2.7-1.2 2.7-2.7 0-1.5-1.2-2.7-2.7-2.7-1.5 0-2.7 1.2-2.7 2.7.1 1.5 1.2 2.7 2.7 2.7z" class="st1"/>
  <path d="M49 135.3c1.5 0 2.7-1.2 2.7-2.7 0-1.5-1.2-2.7-2.7-2.7-1.5 0-2.7 1.2-2.7 2.7 0 1.5 1.2 2.7 2.7 2.7z" class="st1"/>
  <path fill="#c2c6ff" d="M65.6 97.7c-1.5 0-2.7 1.2-2.7 2.7v64.8c0 1.5 1.2 2.7 2.7 2.7h84.9c1.5 0 2.7-1.2 2.7-2.7v-64.8c0-1.5-1.2-2.7-2.7-2.7H65.6zm-2.9 2.6c0-1.6 1.3-3 3-3h84.9c1.6 0 3 1.3 3 3v64.8c0 1.6-1.3 3-3 3h-85c-1.6 0-3-1.3-3-3v-64.8z"/>
  <path d="M240.9 28.2H74.5v30h166.4v-30z" class="st0"/>
  <path fill="none" stroke="#c3c5ff" stroke-linejoin="round" stroke-width="1.0706" d="M240.9 28.2H74.5v30h166.4v-30z"/>
  <path d="M240.9 59.1H74.5v98.1h166.4V59.1z" class="st4"/>
  <path d="M88.1 46.5c2.4 0 4.3-1.9 4.3-4.3s-1.9-4.3-4.3-4.3-4.3 1.9-4.3 4.3 1.9 4.3 4.3 4.3z" class="st1"/>
  <path d="M105.2 46.5c2.4 0 4.3-1.9 4.3-4.3s-1.9-4.3-4.3-4.3-4.3 1.9-4.3 4.3 1.9 4.3 4.3 4.3z" class="st1"/>
  <path d="M122.3 46.5c2.4 0 4.3-1.9 4.3-4.3s-1.9-4.3-4.3-4.3-4.3 1.9-4.3 4.3 2 4.3 4.3 4.3z" class="st1"/>
  <path d="M97.7 4.7h6.4" class="st5"/>
  <path d="M100.9 7.9V1.5" class="st5"/>
  <path d="M196.8 122.7v-14.3c0-5.3 2.1-10.3 5.8-14.1 3.7-3.7 8.8-5.8 14-5.8 5.3 0 10.3 2.1 14 5.8 3.7 3.7 5.8 8.8 5.8 14.1v14.3h11.3v-13.4c0-8.3-3.3-16.2-9.1-22-5.8-5.8-13.7-9.1-22-9.1-8.2 0-16.2 3.3-22 9.1-5.8 5.8-9.1 13.8-9.1 22v13.4h11.3z" class="st4"/>
  <path fill="#ad79ff" stroke="#000" stroke-miterlimit="10" stroke-width="1.6059" d="M249.1 121.9h-65c-2.8 0-5 2.2-5 5v47.4c0 2.8 2.2 5 5 5h65c2.8 0 5-2.2 5-5v-47.4c0-2.7-2.2-5-5-5z"/>
  <path d="M224.7 146.2c0 1.4-.3 2.7-1 3.9-.7 1.2-1.6 2.2-2.8 2.9v5.8c0 1.1-.5 2.3-1.3 3.1-.8.8-1.9 1.3-3.1 1.3-1.1 0-2.2-.5-3.1-1.3-.8-.8-1.3-1.9-1.3-3.1V153c-1.2-.8-2.2-1.8-2.8-3.1-.7-1.2-1-2.6-.9-4.1 0-1.4.4-2.8 1.2-4 .7-1.2 1.8-2.2 3-2.9 1.2-.7 2.6-1 4-1s2.8.4 4 1.1c1.2.7 2.2 1.7 2.9 3 .9 1.4 1.2 2.8 1.2 4.2z" class="st4"/>
  <path d="M128.2 96.4c-.5-.8-1.2-1.4-2.1-1.6-.9-.2-1.8-.1-2.6.3l-7.6 4.4v-8.8c0-.9-.4-1.8-1-2.4-.6-.6-1.5-1-2.4-1-.9 0-1.8.4-2.4 1-.6.6-1 1.5-1 2.4v8.8l-7.6-4.4c-.4-.2-.8-.4-1.3-.4-.5-.1-.9 0-1.3.1s-.9.3-1.2.6c-.4.3-.7.6-.9 1-.2.4-.4.8-.4 1.3-.1.5 0 .9.1 1.4.1.4.3.9.6 1.2.3.4.6.7 1 .9l7.6 4.4-7.6 4.4c-.4.2-.7.5-1 .9-.3.4-.5.8-.6 1.2-.1.4-.1.9-.1 1.4.1.5.2.9.4 1.3s.5.7.9 1c.4.3.8.5 1.2.6.4.1.9.1 1.3.1.5-.1.9-.2 1.3-.4l7.6-4.4v8.8c0 .5.1.9.2 1.4.2.4.4.8.7 1.2.3.3.7.6 1.1.8.4.2.9.3 1.3.3.5 0 .9-.1 1.3-.3.4-.2.8-.4 1.1-.8.3-.3.6-.7.7-1.2.2-.4.2-.9.2-1.4v-8.8l7.6 4.4c.8.4 1.7.5 2.6.3.9-.2 1.6-.8 2.1-1.6s.6-1.7.4-2.6c-.2-.9-.8-1.6-1.6-2.1l-7.6-4.4 7.6-4.4c.4-.2.7-.5 1-.9.3-.4.5-.8.6-1.2.1-.4.1-.9.1-1.4.1-.6 0-1-.3-1.4z" class="st7"/>
  <path d="M172.6 96.4c-.5-.8-1.2-1.4-2.1-1.6-.9-.2-1.8-.1-2.6.3l-7.6 4.4v-8.8c0-.9-.4-1.8-1-2.4-.6-.6-1.5-1-2.4-1-.9 0-1.8.4-2.4 1-.6.6-1 1.5-1.1 2.4v8.8l-7.6-4.4c-.4-.2-.8-.4-1.3-.5-.5-.1-.9 0-1.4.1-.4.1-.9.3-1.2.6-.4.3-.7.6-.9 1-.2.4-.4.8-.4 1.3-.1.5 0 .9.1 1.4.1.4.3.9.6 1.2.3.4.6.7 1 .9l7.6 4.4-7.6 4.4c-.8.5-1.3 1.2-1.6 2.1-.2.9-.1 1.8.4 2.6s1.2 1.4 2.1 1.6 1.8.1 2.6-.3l7.6-4.4v8.8c0 .5.1.9.2 1.4.2.4.4.8.7 1.2.3.3.7.6 1.1.8.4.2.9.3 1.4.3.5 0 .9-.1 1.4-.3.4-.2.8-.4 1.1-.8.3-.3.6-.7.7-1.2.2-.4.2-.9.2-1.4v-8.8l7.6 4.4c.8.4 1.7.5 2.6.3.9-.2 1.6-.8 2.1-1.6s.6-1.7.4-2.6c-.2-.9-.8-1.6-1.6-2.1l-7.6-4.4 7.6-4.4c.8-.5 1.4-1.2 1.6-2.1.3-.9.1-1.8-.3-2.6z" class="st7"/>
  <path d="M264.7 104.2l8.5-8.5" class="st8"/>
  <path d="M264.7 144l8.5 8.5" class="st8"/>
  <path d="M272.1 131l11.6 3.1" class="st8"/>
  <path d="M272.1 116.5l11.6-3.2" class="st8"/>
</svg>
