<svg xmlns="http://www.w3.org/2000/svg" xmlns:xlink="http://www.w3.org/1999/xlink" viewBox="0 0 891.9 400"><defs><path id="a" d="M-1.9.2H1135v399.3H-1.9z"/></defs><clipPath id="b"><use xlink:href="#a" overflow="visible"/></clipPath><g clip-path="url(#b)"><defs><path id="c" d="M-298.3-15.4c-30.4 52.6-43.7 149.9-33.4 214.5 23.7 149.6 164.2 251.7 313.8 228l584.3-92.6c149.6-23.7 251.7-164.2 228-313.8-.9-5.9-2.2-30.5-3.5-36.3l-1089.2.2z"/></defs><clipPath id="d"><use xlink:href="#c" overflow="visible"/></clipPath><g clip-path="url(#d)"><defs><path id="e" d="M1240.2 217.1L444.6 352.4C240.9 387.1 47.7 250 13.1 46.3s102.4-396.9 306.1-431.6l795.5-135.3c203.7-34.7 396.9 102.4 431.6 306.1s-102.4 396.9-306.1 431.6z"/></defs><clipPath id="f"><use xlink:href="#e" overflow="visible"/></clipPath><linearGradient id="g" gradientUnits="userSpaceOnUse" x1="-263.006" y1="619.314" x2="-262.838" y2="619.415" gradientTransform="matrix(-2091.0117 -1159.0667 1329.8014 -2399.0254 -1372396.5 1180668.5)"><stop offset="0" stop-color="#722291"/><stop offset=".504" stop-color="#e8288b"/><stop offset="1" stop-color="#ff7139"/></linearGradient><path d="M353.6-294.6C173.9-281.4 37.8-124.4 49.8 56.1c12 180.4 167.4 316 347.2 302.8 801.4-58.9 1407.8-758.7 1354.4-1563C1698-2008.5 1005-2612.8 203.6-2553.9c-179.8 13.2-315.8 170.2-303.8 350.6s167.4 316 347.2 302.8c441.8-32.5 823.9 300.7 853.3 744.1 29.5 443.6-304.8 829.4-746.7 861.8z" clip-path="url(#f)" fill="url(#g)"/><g><defs><path id="h" d="M1125.1 122.1L452.4 236.5C280.2 265.8 116.8 149.9 87.5-22.3s86.6-335.7 258.8-365L1019-501.7c172.2-29.3 335.6 86.6 364.9 258.8s-86.5 335.7-258.8 365z"/></defs><clipPath id="i"><use xlink:href="#h" overflow="visible"/></clipPath><linearGradient id="j" gradientUnits="userSpaceOnUse" x1="-262.489" y1="619.564" x2="-262.202" y2="619.639" gradientTransform="matrix(1787.4529 2287.8354 1411.3746 -1102.6868 -404545.875 1283051.125)"><stop offset="0" stop-color="#ff713a"/><stop offset=".657" stop-color="#64288a"/><stop offset="1" stop-color="#363c74"/></linearGradient><path d="M2038.7-187c179.3 21.3 306.2 183.8 283.5 362.9-22.7 179.1-186.4 307.1-365.7 285.7L369.1 272.9C189.9 251.6 62.9 89.1 85.6-90l200.9-1585.9c22.7-179.1 186.4-307.1 365.7-285.7s306.2 183.8 283.6 362.9l695.5 924.2L2038.7-187z" clip-path="url(#i)" fill="url(#j)"/></g><g><defs><path id="k" d="M1125.1 240.8L452.4 355.2C280.2 384.5 116.8 268.6 87.5 96.4s86.6-335.6 258.8-364.9L1019-383c172.2-29.3 335.6 86.6 364.9 258.8s-86.5 335.7-258.8 365z"/></defs><clipPath id="l"><use xlink:href="#k" overflow="visible"/></clipPath><g transform="rotate(36 1241.328 143.322)" clip-path="url(#l)"><linearGradient id="m" gradientUnits="userSpaceOnUse" x1="-262.455" y1="619.411" x2="-262.074" y2="619.639" gradientTransform="matrix(1567.3868 1138.7732 706.226 -972.0367 -25689.633 900709)"><stop offset="0" stop-color="#fe8d49"/><stop offset=".583" stop-color="#722291"/><stop offset="1" stop-color="#363c73"/></linearGradient><path d="M1588.7 167.8l-1127 183C334.3 371.5 215.2 285 195.5 157.5L21.3-971l1567.4 740.4v398.4z" fill="url(#m)"/></g></g></g></g></svg>