<svg width="275" height="236" viewBox="0 0 275 236" xmlns="http://www.w3.org/2000/svg" xmlns:xlink="http://www.w3.org/1999/xlink"><defs><path id="a" d="M0 235.222h275.36V0H0z"/><path id="c" d="M0 235.222h275.36V0H0z"/><path id="e" d="M0 235.222h275.36V0H0z"/></defs><g fill="none" fill-rule="evenodd"><path d="M43.045 0C36.945 0 32 5.174 32 11.556V26h243V11.556C275 5.174 270.054 0 263.955 0H43.045z" fill="#9059FF" fill-rule="nonzero"/><path d="M275 25H32v138.889C32 170.025 36.946 175 43.045 175h220.91c6.1 0 11.045-4.975 11.045-11.111V25z" fill="#592ACB" fill-rule="nonzero"/><g><mask id="b" fill="#fff"><use xlink:href="#a"/></mask><path fill="#592ACB" fill-rule="nonzero" mask="url(#b)" d="M79.4 36.094h46.92V0H79.4z"/></g><g><mask id="d" fill="#fff"><use xlink:href="#c"/></mask><path d="M143.24 58.905c3.481 0 6.302 2.838 6.302 6.342v98.009c0 18.736-10.014 36.022-26.215 45.256L77.837 234.4a6.265 6.265 0 0 1-6.21-.003l-45.41-25.885C10.013 199.278.002 181.992.002 163.256v-98.01c0-3.503 2.82-6.341 6.301-6.341h136.938z" fill="#D9BFFF" fill-rule="nonzero" mask="url(#d)"/></g><g><mask id="f" fill="#fff"><use xlink:href="#e"/></mask><path d="M143.24 58.905H73.88v176.206c1.346.186 2.734-.017 3.957-.71l45.49-25.889c16.204-9.234 26.215-26.52 26.215-45.256v-98.01c0-3.503-2.818-6.341-6.301-6.341" fill="#9059FF" fill-rule="nonzero" mask="url(#f)"/></g></g></svg>