<svg width="728" height="79" viewBox="0 0 728 79" xmlns="http://www.w3.org/2000/svg" xmlns:xlink="http://www.w3.org/1999/xlink"><defs><path id="a" d="M.272 0h394.42v760H.272z"/></defs><g transform="rotate(-90 39.5 39.5)" fill="none" fill-rule="evenodd"><mask id="b" fill="#fff"><use xlink:href="#a"/></mask><g mask="url(#b)"><path d="M-239.11 276.701C-193.796 86.941 5.867 9.617 66.49-10.656 56.61.027 34.194 76.521 52.04 190.41c11.78 75.17 49.877 264.942-27.932 479.498-58.297 160.743-168.039 263.99-274.415 329.499 130.03-46.597 205.664-142.27 205.664-142.27-141.45 192.432-356.748 277.256-608.622 274.335 0 0 374.136-38.422 422.084-362.004 26.026-175.641-50.384-314.981-7.93-492.767z" fill="#164DC2"/><path d="M-423.854-54.663C-359.397-338.696-9.924-431-9.924-431c-27.72 41.585-25.185 142.268 46.375 409.033 44.064 164.257 63.577 316.41 5.363 535.888-73.658 277.688-319.33 433.962-471.622 525.106-59.172 35.416-122.354 59.763-185.524 76.086 167.305 24.027 223.973-39.216 227.604-43.51-191.751 236.885-712.557 52.155-727.272 46.87 267.424 45.692 726.06-101.967 772.924-470.968 39.83-313.578-146.239-418.133-81.778-702.168z" fill="#2161DA" opacity=".82"/></g></g></svg>
