<svg width="534" height="54" viewBox="0 0 534 54" xmlns="http://www.w3.org/2000/svg" xmlns:xlink="http://www.w3.org/1999/xlink"><defs><path id="a" d="M33 2h505v52H33z"/><linearGradient x1="132.507%" y1="-10.834%" x2="6.988%" y2="91.732%" id="c"><stop stop-color="#2E6CE8" offset="0%"/><stop stop-color="#174EC4" offset="49.962%"/><stop stop-color="#0030A1" offset="100%"/></linearGradient><linearGradient x1="19.254%" y1="-18.302%" x2="97.175%" y2="72.734%" id="d"><stop stop-color="#001F80" offset="0%"/><stop stop-color="#2E7DFF" offset="100%"/></linearGradient></defs><g fill="none" fill-rule="evenodd"><mask id="b" fill="#fff"><use xlink:href="#a"/></mask><g mask="url(#b)"><path d="M378.641 323.848c2.104-85.27 79.474-136.487 103.253-150.667-3.212 5.466-5.813 40.217 11.946 87.3 11.72 31.075 44.841 108.768 31.242 207.596-10.189 74.04-47.262 128.17-86.302 165.854 50.725-31.747-51.682 71.46-158.302 93.107 0 0 154.537-50.44 145.74-193.179-4.774-77.478-49.546-130.121-47.577-210.01z" fill="url(#c)" transform="rotate(-90 237 293.5)"/><path d="M298.784 165.222C326.619 41.147 477.538.826 477.538.826c-11.971 18.166-10.876 62.147 20.027 178.679 19.028 71.753 27.455 138.218 2.315 234.093-31.809 121.303-137.9 189.569-203.667 229.384-25.554 15.47-52.839 26.106-80.118 33.236 72.25 10.496 96.721-17.13 98.29-19.007C231.577 760.691 6.67 679.995.314 677.686c115.486 19.96 313.546-44.542 333.784-205.734 17.2-136.981-63.152-182.654-35.315-306.73z" fill="url(#d)" opacity=".82" transform="rotate(-90 237 293.5)"/></g></g></svg>
