<svg xmlns="http://www.w3.org/2000/svg" viewBox="0 0 300 300"><defs><style>.a{fill:#fff;}.b,.c{fill:none;stroke-width:4px;}.b{stroke:#56565a;stroke-linecap:round;stroke-linejoin:round;}.c{stroke:#c33b32;stroke-miterlimit:10;}</style></defs><title>moz_icon_MOSS-foundation-tech</title><path class="a" d="M0 0h300v300H0z"/><path class="b" d="M275 275H25V25h250zM275 88.6H25"/><path class="b" d="M111.2 65.6H94V48.36h17.2zM137.1 57h17.2M67.9 48.3L50.6 65.6M67.9 65.6L50.6 48.3"/><path class="c" d="M215 133.2c-17.1-15.1-43-14.1-59.2 1.8l-4.8 4.7a1.3 1.3 0 0 1-1.8 0l-4.8-4.7c-16.3-15.9-42.2-16.8-59.2-1.8a41 41 0 0 0-1.6 60.4l6.1 5.9 56.1 53.2a6.4 6.4 0 0 0 8.8 0l56.1-53.2 6.1-5.9a41 41 0 0 0-1.8-60.4z"/></svg>
