<svg xmlns="http://www.w3.org/2000/svg" viewBox="0 0 1365.1 311.5"><defs><style>.a,.d{opacity:0.66;}.b,.c,.d{fill:none;stroke-linecap:round;stroke-linejoin:round;stroke-width:4px;}.b,.d{stroke:#56565a;}.c{stroke:#c33b32;}</style></defs><title>moz_moss-header_mission-partners</title><g class="a"><circle class="b" cx="1035.4" cy="77.6" r="65"/><path class="c" d="M993.1 40.1s-8.7 19.9 1.8 16.2c7.8-2.7 8.5-5.9 8.5-5.9l4.6-8s.7 11.2 1.6 12.8 4.6 6.2 5.9-.2c2.5-11.8 2.9-15.1 7.3-15.1s13.3-3.4 14.2 7.1-.9 4.3-6.6 7.1-7.1 12.3-1.8 13.5a115.2 115.2 0 0 1 12.9 4.3c12.8 4.9 13.1 18.9 13.1 31.4 0 0 .2 14.4 5.5 11s19.7-25.8 16.7-34.3-3.2-9.4 2.3-12.3 9.4-6.6 9.1-10.7M982.3 94s1.6-18.1 5.3-15.2 5.3 2.9 8.5 6.1 16.9 5 12.3 9.1-6.3 3.9-12.6 22.2"/></g><g class="a"><circle class="b" cx="234.5" cy="14" r="11.8"/><circle class="b" cx="277" cy="140.2" r="11.8"/><path class="b" d="M282.1 64l-39.3-41.7M289.4 91.7l-9.5 37"/><circle class="c" cx="222" cy="116.6" r="8.1"/><circle class="b" cx="338.1" cy="101.8" r="8.1"/><circle class="c" cx="328.7" cy="10.1" r="8.1"/><path class="b" d="M325.2 17.4l-24 44M279.2 83.9l-50.1 28.8M331 97.9l-11.3-6.8M319.2 90.8l-11.3-6.9"/><circle class="b" cx="293.4" cy="75.8" r="16.4"/></g><g class="a"><path class="b" d="M1313.1 140.9h-80M1233.1 76.2h130v64.7h-35.7"/><path class="c" d="M1343.4 169.9l-8.2-10.8 7.4-1.5a1.4 1.4 0 0 0 .7-2.4l-29.8-26.8a1.4 1.4 0 0 0-2.3 1.3l6.8 39a1.4 1.4 0 0 0 2.3.7l5.9-5.9 7.4 12.9a1.4 1.4 0 0 0 2 .5l7.6-5.1a1.4 1.4 0 0 0 .2-1.9z"/><path class="b" d="M1327 116.1a1.7 1.7 0 0 0 2.7 0l11.3-14a1.7 1.7 0 0 0-1.4-2.7h-22.7a1.7 1.7 0 0 0-1.2.5 1.7 1.7 0 0 0-.2 2.2zM1293.8 140.9V76.2"/></g><g class="a"><path class="c" d="M52.8 146.2l6 43.1 10-8.7 8.8 16.2 8.2-5.5-11-14.2 12-4.8-34-26.1"/><path class="b" d="M132 218.1H2V97.07h130zM2 132.9h130M60.3 114.7h8.9"/><path class="b" d="M46.8 119.2h-9v-8.97h9zM25 109.4L14.6 120M25 120l-10.4-10.6"/></g><g class="a"><path class="c" d="M394 234.5v-73.7h40.9v73.7"/><path class="b" d="M458 253.5l-30.8-.6-10.1-28.7a2.8 2.8 0 0 0-5.2 0l-10.1 28.7-30.8.6a2.8 2.8 0 0 0-1.6 5l24.5 18.3-8.9 29.1a2.8 2.8 0 0 0 4.2 3.1l25.3-17.4 25.3 17.4a2.8 2.8 0 0 0 4.2-3.1l-8.9-29.1 24.5-18.4a2.8 2.8 0 0 0-1.6-4.9z"/></g><g class="a"><path class="b" d="M1155.9 271.3v-63.6a4.3 4.3 0 0 0-4.3-4.3h-104.8a4.3 4.3 0 0 0-4.3 4.3v63.7M1106.2 280.6v1.7a2.5 2.5 0 0 1-2.5 2.5h-9.1a2.5 2.5 0 0 1-2.5-2.5v-1.7h-58v9a4.5 4.5 0 0 0 4.5 4.5h121a4.5 4.5 0 0 0 4.5-4.5v-9h-58z"/><path class="c" d="M1121.1 255.5c-7.4-2.8-15.6-2.7-16.3-4.9v-3.3c7.4 0 10.3-2.4 10.3-2.4-3.1-1.7-4.1-13.9-4.1-13.9 0-6.3-4.7-12.5-11.9-12.5s-11.9 5.8-11.9 12.5c0 0-1 12.2-4.1 13.9 0 0 2.9 2.4 10.3 2.4v3.3c-.7 2.2-8.9 2.1-16.3 4.9a1.6 1.6 0 0 0-1 1.5v5.8a1.6 1.6 0 0 0 1.6 1.6h42.7a1.6 1.6 0 0 0 1.6-1.6V257a1.6 1.6 0 0 0-.9-1.5z"/></g><path class="d" d="M346.2 70.4H434a8.2 8.2 0 0 1 8.2 8.2v17.8a8.2 8.2 0 0 0 8.2 8.2 8.2 8.2 0 0 0 8.2-8.2V50.2a8.2 8.2 0 0 1 8.2-8.2 8.2 8.2 0 0 1 8.2 8.2v9.5a8.2 8.2 0 0 0 8.2 8.2h60.7M152 203.1h66.5a7.9 7.9 0 0 0 7.9-7.9v-18.7a7.9 7.9 0 0 1 7.9-7.9 7.9 7.9 0 0 1 7.9 7.9v52.4a7.9 7.9 0 0 0 7.9 7.9h.1a7.9 7.9 0 0 0 7.9-7.9v-32.1a7.9 7.9 0 0 1 7.9-7.9h.1a7.9 7.9 0 0 1 7.9 7.9v47.3a7.9 7.9 0 0 0 7.9 7.9h.1a7.9 7.9 0 0 0 7.9-7.9v-26a7.9 7.9 0 0 1 7.9-7.9h69.9M460.7 210.3h43.9a8 8 0 0 1 8 8v19.3a8 8 0 0 0 8 8 8 8 0 0 0 8-8v-31a8 8 0 0 1 8-8 8 8 0 0 1 8 8v67.3a8 8 0 0 0 8 8 8 8 0 0 0 8-8v-17.2a8 8 0 0 1 8-8h51.5M825.1 53h30.2a8 8 0 0 1 8 8v12a8 8 0 0 0 8 8 8 8 0 0 0 8-8V42a8 8 0 0 1 8-8 8 8 0 0 1 8 8v67.3a8 8 0 0 0 8 8 8 8 0 0 0 8-8V92.1a8 8 0 0 1 8-8h31.4M752.6 253.6h132a8 8 0 0 1 8 8v13a8 8 0 0 0 8 8 8 8 0 0 0 8-8v-68.7a8 8 0 0 1 8-8h.1a8 8 0 0 1 8 8v20.9a8 8 0 0 0 8 8h87.8M1120.4 93.8h11.6a7.9 7.9 0 0 0 7.9-7.9V72.5a7.9 7.9 0 0 1 8-7.9 7.9 7.9 0 0 1 7.9 7.9v52.4a7.9 7.9 0 0 0 7.9 7.9h.1a7.9 7.9 0 0 0 7.9-7.9v-19.4a7.9 7.9 0 0 1 7.9-7.9h.1a7.9 7.9 0 0 1 7.9 7.9v45.2a7.9 7.9 0 0 0 7.9 7.9h.1a7.9 7.9 0 0 0 7.9-7.9v-34.2a7.9 7.9 0 0 1 7.9-7.9h11.9"/><path class="c" d="M598.3 205l78.5 74.4a11.8 11.8 0 0 0 16.2 0l78.5-74.4"/><path class="b" d="M730 178.4l-22.5-18.9M709.3 189.8l-18.3-15M609.1 150.2c6.5 18.8 59.1 59.4 59.1 59.4 12.7 10.7 24.1-5.6 13.7-14.5l-8-7.8M674 187.3l21.7 18.9c12.5 10.6 24.7-6.7 14.4-15.4l5.5 4.6c10.9 9.3 25.3-7.8 14.4-17l.8.7c10.9 9.3 25.3-7.8 14.4-17l-53.8-43.9s-10.4 4-14.4 2.8c0 0-15.5 23.8-26.8 15.5s0-43.4 31.9-48.5c0 0 14.3-4.1 49.4 14l13-3.9M563.152 161.8l22.167-78.817 38.073 10.708-22.167 78.817zM744.36 94.962l38.2-10.81 22.358 79.008-38.2 10.81zM623.9 98s1.8-3.4 42.3-4.2M748.8 167.7s10 2.6 15.3-3.4"/><path class="c" d="M805.1 52.5c-31.5-27.9-79.4-26.1-109.6 3.2l-8.9 8.7a2.4 2.4 0 0 1-3.3 0l-8.9-8.7c-30.1-29.4-78-31.2-109.6-3.3"/></svg>
