<svg xmlns="http://www.w3.org/2000/svg" viewBox="0 0 1365.6 294.5"><defs><style>.a,.e{opacity:0.66;}.b,.c,.d,.e,.f{fill:none;}.b,.c,.e{stroke:#56565a;}.b,.c,.d,.e{stroke-linecap:round;stroke-linejoin:round;}.b{stroke-width:5px;}.c,.d,.e,.f{stroke-width:4px;}.d,.f{stroke:#c33b32;}.f{stroke-miterlimit:10;}</style></defs><title>moz_moss-header_secure-open-source</title><g class="a"><path class="b" d="M1099.1 237a61.8 61.8 0 0 1-14.2 53.1M1085.7 240.2v-.4a13.8 13.8 0 1 1 27-5.4 75.4 75.4 0 0 1-11.7 57.7M1086.6 248.8a48.2 48.2 0 0 1-15.3 35.7M1127.1 260.7a89.2 89.2 0 0 1-8.3 27.7"/><path class="b" d="M1127.8 252a89.5 89.5 0 0 0-1.7-20.4 27.5 27.5 0 1 0-53.9 10.9 34.4 34.4 0 0 1-11.9 33.4"/><path class="b" d="M1113.9 198.6a41.2 41.2 0 0 1 25.6 30.3 102.7 102.7 0 0 1-1.4 46.9M1058.9 227.9a41.1 41.1 0 0 1 46.6-31.5M1057.8 236.5a41.3 41.3 0 0 0 .8 8.7 20.7 20.7 0 0 1-6.9 19.9"/><path class="b" d="M1154.1 238.2a55.2 55.2 0 0 0-1.1-12 55 55 0 0 0-86-33.7M1060.3 198.1a54.9 54.9 0 0 0-15.1 49.9l.5 2.3"/></g><g class="a"><path class="c" d="M216.7 59.8h19.2M240.7 38.8l-13.1-12.5v-6.6M240.7 80.3l-13.1 12.5v6.5M326.7 59.8h-19.2M302.7 38.8l13.5-12.5v-6.6M302.7 80.3l13.5 12.5v6.5"/><path class="d" d="M289.1 35.2h.1a18.2 18.2 0 0 0-3.6-15.5c2.9-6.1.8-17.6-8.9-17.6v13.4c-.9-.1-4-2.5-4.9-2.5s-4.3 2.4-5.3 2.5V2c-9.8 0-11.9 11.7-8.8 17.9a18.1 18.1 0 0 0-3.4 15.3h.1a32.3 32.3 0 0 0-10.8 24.5c0 17.2 12.6 31.1 28.2 31.1S300 76.9 300 59.7a32.3 32.3 0 0 0-10.9-24.5z"/></g><g class="a"><path class="c" d="M415 271.3"/><path class="d" d="M391.2 194.1a25.5 25.5 0 0 1 19.4-17.9 25.2 25.2 0 0 1 7.4-.4M415.8 201.3a38.3 38.3 0 0 1-7.7 31.5"/><path class="d" d="M407.2 201.8a8.52 8.52 0 0 1 16.9-2.2 46.8 46.8 0 0 1-6.2 34.1M407.9 210.2a29.9 29.9 0 0 1-8.2 19.2M432.9 217.4a55.7 55.7 0 0 1-3.9 13.5"/><path class="d" d="M433.6 209a55.6 55.6 0 0 0-1.1-11 17.1 17.1 0 0 0-33.5 6.8 21.3 21.3 0 0 1-6 19.5"/><path class="d" d="M426.3 178a25.5 25.5 0 0 1 14.6 18.2 63.9 63.9 0 0 1 0 25.2M390.2 202.5a25.3 25.3 0 0 0 .4 3.9 12.8 12.8 0 0 1-2.8 10.8"/><path class="c" d="M443.5 132h-56.8a13.1 13.1 0 0 0-12.9 13.2v123.6a13.1 13.1 0 0 0 12.9 13.2h56.8a13.1 13.1 0 0 0 12.9-13.2V145.2a13.1 13.1 0 0 0-12.9-13.2zM373.8 152.7h82.6M373.8 261.3h82.6"/></g><g class="a"><path class="d" d="M1256.2 80.1v17.5M1248.6 84.5l15.3 8.7M1248.6 93.2l15.3-8.7M1283.1 80.1v17.5M1275.5 84.5l15.3 8.7M1275.5 93.2l15.3-8.7M1310 80.1v17.5M1302.4 84.5l15.2 8.7M1302.4 93.2l15.2-8.7M1341.4 80.1v17.5M1333.8 84.5l15.2 8.7M1333.8 93.2l15.2-8.7"/><circle class="c" cx="1362.6" cy="164.7" r="22.7" transform="rotate(-45 1305.566 189.917)"/><path class="c" d="M1324.3 140.4l13.8-14.7M1324.3 140.4l-6.4-6.8M1296.3 113.7h-62.7V64.4h130v49.3h-4.6"/></g><g class="a"><path class="d" d="M929.2 92.8h25.1M903.6 92.8l17.9-20.5-17.9-20.5"/><path class="c" d="M901.2 13.4l-9.6 9.7M901.2 23.1l-9.6-9.7M1000 113.7H880V1.98h120zM880 35.1h120"/><path class="c" d="M921.4 22.4h-8.3v-8.28h8.3zM933.8 18.2h8.3"/></g><g class="a"><path class="b" d="M126.5 94.8a38.1 38.1 0 0 1-9.7 1.1c-12.4 0-30.3-4.7-45.4-27a4.8 4.8 0 0 0-7.7 0c-18.2 27-44 29.8-55.1 25.9a4.7 4.7 0 0 0-6 4.6v45.4c0 63.4 63.1 81.8 63.8 82l1.2.2 1.2-.2c.6-.2 63.8-18.6 63.8-82V99.5a4.7 4.7 0 0 0-6.1-4.7z"/><path class="d" d="M68.8 154.8l7-7a14.6 14.6 0 1 0-7.7-8.3l-29.6 29.6 2.2 5.1 8.4-.3 1.9-7.2 8.2-1.6 1.5-10.5zm19.7-22.1a3.4 3.4 0 1 1 0-4.9 3.4 3.4 0 0 1 0 4.9z"/></g><path class="e" d="M346.7 59.8h87.8a8.2 8.2 0 0 1 8.2 8.2v17.8a8.2 8.2 0 0 0 8.2 8.2 8.2 8.2 0 0 0 8.2-8.2V39.6a8.2 8.2 0 0 1 8.2-8.2 8.2 8.2 0 0 1 8.2 8.2v9.5a8.2 8.2 0 0 0 8.2 8.2h134.1M146.7 192.5H219a7.9 7.9 0 0 0 7.9-7.9v-18.7a7.9 7.9 0 0 1 7.9-7.9 7.9 7.9 0 0 1 7.9 7.9v52.4a7.9 7.9 0 0 0 7.9 7.9h.1a7.9 7.9 0 0 0 7.9-7.9v-19.4a7.9 7.9 0 0 1 7.9-7.9h.1a7.9 7.9 0 0 1 7.9 7.9v34.6a7.9 7.9 0 0 0 7.9 7.9h.1a7.9 7.9 0 0 0 7.9-7.9v-18.6a7.9 7.9 0 0 1 7.9-7.9h55.1M476.1 207h31a8 8 0 0 1 8 8v12a8 8 0 0 0 8 8 8 8 0 0 0 8-8v-31a8 8 0 0 1 8-8 8 8 0 0 1 8 8v67.3a8 8 0 0 0 8 8 8 8 0 0 0 8-8v-17.2a8 8 0 0 1 8-8h49.5M753 57.4h31.9a8 8 0 0 1 8 8v12a8 8 0 0 0 8 8 8 8 0 0 0 8-8v-31a8 8 0 0 1 8-8 8 8 0 0 1 8 8v67.3a8 8 0 0 0 8 8 8 8 0 0 0 8-8V96.5a8 8 0 0 1 8-8h11M753.1 243h132a8 8 0 0 1 8 8v13a8 8 0 0 0 8 8 8 8 0 0 0 8-8v-68.7a8 8 0 0 1 8-8h.1a8 8 0 0 1 8 8v20.9a8 8 0 0 0 8 8h87.8M1020.4 88.5h59.3a7.9 7.9 0 0 0 7.9-7.9V61.9a7.9 7.9 0 0 1 7.9-7.9 7.9 7.9 0 0 1 7.9 7.9v52.4a7.9 7.9 0 0 0 7.9 7.9h.1a7.9 7.9 0 0 0 7.9-7.9V94.9a7.9 7.9 0 0 1 7.9-7.9h.1a7.9 7.9 0 0 1 7.9 7.9v34.6a7.9 7.9 0 0 0 7.9 7.9h.1a7.9 7.9 0 0 0 7.9-7.9V95.3a7.9 7.9 0 0 1 7.9-7.9h54"/><path class="c" d="M697.8 202.8H673l-4.6-38.3a16.7 16.7 0 0 1 17-16.5c9.4 0 17 7.2 17 16.4zM637.8 92.8V66.5c0-24.6 22.5-44.5 47.6-44.5S733 41.9 733 66.5v26.3"/><path class="f" d="M773.7 107.3c-23.2-20.5-58.3-19.2-80.5 2.4l-6.6 6.4a1.8 1.8 0 0 1-2.5 0l-6.6-6.4c-22.1-21.6-57.3-22.9-80.5-2.4a55.6 55.6 0 0 0-2.1 82l8.2 8 76.2 72.3a8.6 8.6 0 0 0 11.9 0l76.2-72.3 8.2-8a55.6 55.6 0 0 0-1.9-82z"/></svg>
