<svg xmlns="http://www.w3.org/2000/svg" viewBox="0 0 1364 284.1"><defs><style>.a,.b,.d,.e,.f{fill:none;}.a,.d{stroke:#56565a;}.a,.d,.f{stroke-linecap:round;stroke-linejoin:round;}.a,.b,.d,.f{stroke-width:4px;}.b,.f{stroke:#c33b32;}.b{stroke-miterlimit:10;}.c,.d{opacity:0.66;}</style></defs><title>moz_moss-header_foundational-tech</title><path class="a" d="M807 264.3H557v-250h250zM807 77.9H557"/><path class="a" d="M643.2 55H626V37.76h17.2zM669.1 46.3h17.2M599.9 37.6L582.6 55M599.9 55l-17.3-17.4"/><path class="b" d="M747 122.5c-17.1-15.1-43-14.1-59.2 1.8L683 129a1.3 1.3 0 0 1-1.8 0l-4.8-4.7c-16.3-15.9-42.2-16.8-59.2-1.8a41 41 0 0 0-1.6 60.4l6.1 5.9 56.1 53.2a6.4 6.4 0 0 0 8.8 0l56.1-53.2 6.1-5.9a41 41 0 0 0-1.8-60.4z"/><g class="c"><circle class="a" cx="1302" cy="139.3" r="22.2"/><path class="a" d="M1345.2 149.7l16.3-2.1a59.2 59.2 0 0 0 0-16.6l-16.3-2.1a44.1 44.1 0 0 0-5.3-12.7l10-13a60.3 60.3 0 0 0-11.7-11.7l-13 10a44.1 44.1 0 0 0-12.7-5.3l-2.1-16.3a59.2 59.2 0 0 0-16.6 0l-2.1 16.2a44.1 44.1 0 0 0-12.8 5.3l-13-10a60.9 60.9 0 0 0-11.7 11.7l10 13a44.1 44.1 0 0 0-5.3 12.8l-16.3 2.1a60.8 60.8 0 0 0 0 16.6l16.3 2.1a44.1 44.1 0 0 0 5.3 12.8l-10 13a60.9 60.9 0 0 0 11.7 11.7l13-10a44.1 44.1 0 0 0 12.8 5.3l2.1 16.2a59.2 59.2 0 0 0 16.6 0l2.1-16.3a44.1 44.1 0 0 0 12.7-5.3l13 10a60.3 60.3 0 0 0 11.7-11.7l-10-13a44.1 44.1 0 0 0 5.3-12.7z"/></g><path class="d" d="M215 195.3h23.9s2.7-.6 2.7-2.8-5.7-3.5-5.7-12.5 8.3-14 21.5-14 21.5 5 21.5 14-5.7 10.3-5.7 12.5 2.8 2.8 2.8 2.8h16.4a6.7 6.7 0 0 1 6.7 6.7v17.8s.6 2.7 2.8 2.7 3.5-5.7 12.5-5.7 14 8.3 14 21.5c0 8.4-2 14.8-5.8 18.4a11.5 11.5 0 0 1-8.2 3.1c-9 0-10.3-5.7-12.5-5.7s-2.8 2.7-2.8 2.7v18.5a6.7 6.7 0 0 1-6.7 6.7H267c-2.9-2.9 3.7-8.3 3.7-15.4s-6.7-10-13.4-10-13.4 2.9-13.4 10 6.6 12.5 3.7 15.4H215a6.7 6.7 0 0 1-6.7-6.7v-28c2.9-2.9 8.3 3.7 15.4 3.7s10-6.7 10-13.4-2.9-13.4-10-13.4-12.5 6.6-15.4 3.7V202a6.7 6.7 0 0 1 6.7-6.7z"/><g class="c"><path class="e" d="M1134 62.3l-25-10-25 10 25 10 25-10M1084 32.3h50v10h-50z"/><path class="a" d="M1154 22.3h-20v-20"/><path class="a" d="M1134 2.3h-70v130h90v-110l-20-20M1109 42.3v10"/><path class="a" d="M1134 62.3l-25-10-25 10 25 10 25-10M1109 72.3v10M1094 92.3v-10M1094 82.3h30M1124 82.3v10"/><path class="f" d="M1084 92.3h20v10h-20zM1114 92.3h20v10h-20zM1084 32.3h50v10h-50z"/></g><g class="c"><path class="b" d="M418.8 54.7a38 38 0 0 0 2.2-12.6c0-22-18.7-39.8-42-40.1 11.6.2 21 18.1 21 40.1a70 70 0 0 1-2.4 18.7M378.6 2h-.2c-11.7.1-21.1 18-21.1 40.1a73.5 73.5 0 0 0 1 12.1"/><path class="b" d="M397.6 60.7a70 70 0 0 0 2.4-18.6c0-22-9.4-39.8-21-40.1h-.5v56.6M358.2 54.2a73.5 73.5 0 0 1-1-12.1c0-22.1 9.4-40 21.1-40.1-23.3.1-42.2 18-42.2 40.1a38 38 0 0 0 1.4 9.9M421 40.2h-84.8M415.5 22.7h-73.9"/><path class="a" d="M391.4 80.4l22.8-11.1c8.3-4 13.4 9 5.6 12.8-34.5 16.9-31.8 17-45.5 17-8 0-19.7-1.4-34.8-8.6-4.7-2.3-13.8 1.4-24.8 4.4a6.5 6.5 0 0 1-7.9-5c-.7-2.7-3.4-11.9-3-14.3a6.8 6.8 0 0 1 5.4-5.7c8.7-1.5 35-7.1 49-2.7l29.2 9.2c8.3 2.6 4.6 16.2-3.7 13.6L353 80.3"/></g><g class="c"><path class="f" d="M990.2 217.6v63.9M973 235.3l17.2-17.7 17.2 17.7"/><path class="a" d="M1009.3 251.9h21.7c14.4 0 26.6-11.3 26.6-24.7s-13.2-26.2-29.6-24.6c-3.5-11.5-14.6-20.3-30.4-18.4-21.1-17.8-52.6-5.7-57.2 22.2-23.8 14.7-11.4 45.5 12.5 45.5h18.3"/></g><g class="c"><path class="a" d="M2 70.1h120v138.46H2zM2 85.7h120M12.4 173.4h15.7M22.9 179.1H49M54.2 179.1h26.1M85.5 179.1h5.2"/><path class="f" d="M95.9 179.1l15.7-.5"/><path class="a" d="M22.9 184.8h20.8M49 184.8h10.4M64.6 184.8h20.9"/><path class="f" d="M22.9 190.4H49"/><path class="a" d="M54.2 190.4H75"/><path class="f" d="M22.9 196.1h36.5"/><path class="a" d="M12.4 137.2h15.7M22.9 142.8h15.6M43.7 142.8H75M80.3 142.8h5.2M90.7 142.8h20.9M22.9 148.5h31.3"/><path class="f" d="M59.4 148.5H75M80.3 148.5h5.2"/><path class="a" d="M22.9 154.2h15.6"/><path class="f" d="M43.7 154.2H75"/><path class="a" d="M22.9 159.9h36.5M12.4 100.4h15.7M22.9 106.1h15.6M43.7 106.1H75M80.3 106.1h5.2M90.7 106.1h20.9"/><path class="f" d="M22.9 111.8h31.3"/><path class="a" d="M59.4 111.8H75"/><path class="f" d="M80.3 111.8h5.2"/><path class="a" d="M22.9 117.5h15.6"/><path class="f" d="M43.7 117.5H75"/><path class="a" d="M22.9 123.2h36.5"/></g><path class="d" d="M142.7 111.6h37.1a8.2 8.2 0 0 1 8.2 8.2v17.8a8.2 8.2 0 0 0 8.2 8.2 8.2 8.2 0 0 0 8.2-8.2V48.4a8.2 8.2 0 0 1 8.2-8.2 8.2 8.2 0 0 1 8.2 8.2V75a8.2 8.2 0 0 0 8.2 8.2h55M349.2 238H376a7.9 7.9 0 0 1 7.9 7.9v18.6a7.9 7.9 0 0 0 7.9 7.9 7.9 7.9 0 0 0 7.9-7.9v-52.3a7.9 7.9 0 0 1 7.9-7.9h.1a7.9 7.9 0 0 1 7.9 7.9v19.4a7.9 7.9 0 0 0 7.9 7.9h.1a7.9 7.9 0 0 0 7.9-7.9v-34.7a7.9 7.9 0 0 1 7.9-7.9h.1a7.9 7.9 0 0 1 7.9 7.9v18.6a7.9 7.9 0 0 0 7.9 7.9H537M440.8 88.7h16.7a8 8 0 0 0 8-8v-12a8 8 0 0 1 8-8 8 8 0 0 1 8 8v31a8 8 0 0 0 8 8 8 8 0 0 0 8-8V32.4a8 8 0 0 1 8-8 8 8 0 0 1 8 8v17.2a8 8 0 0 0 8 8H537M823.7 238.3H839a8 8 0 0 0 8-8v-12a8 8 0 0 1 8-8 8 8 0 0 1 8 8v31a8 8 0 0 0 8 8 8 8 0 0 0 8-8V182a8 8 0 0 1 8-8 8 8 0 0 1 8 8v17.2a8 8 0 0 0 8 8h11M827.3 52.1l80.9.6a8 8 0 0 0 8-8v-13a8 8 0 0 1 8-8 8 8 0 0 1 8 8v68.7a8 8 0 0 0 8 8h.1a8 8 0 0 0 8-8v-21a8 8 0 0 1 8-8h87.7M1067.8 207.2h59.3a7.9 7.9 0 0 1 7.9 7.9v18.6a7.9 7.9 0 0 0 7.9 7.9 7.9 7.9 0 0 0 7.9-7.9v-52.3a7.9 7.9 0 0 1 7.9-7.9h.1a7.9 7.9 0 0 1 7.9 7.9v19.4a7.9 7.9 0 0 0 7.9 7.9h.1a7.9 7.9 0 0 0 7.9-7.9v-60.5a7.9 7.9 0 0 1 7.9-7.9h.1a7.9 7.9 0 0 1 7.9 7.9l.2 17.4a7.9 7.9 0 0 0 7.9 7.9h32"/></svg>
