<svg xmlns="http://www.w3.org/2000/svg" viewBox="0 0 300 300"><defs><style>.a{fill:#fff;}.b,.c{fill:none;stroke-linecap:round;stroke-linejoin:round;stroke-width:4px;}.b{stroke:#c33b32;}.c{stroke:#56565a;}</style></defs><title>moz_icon_MOSS-mission-partners</title><path class="a" d="M0 0h300v300H0z"/><path class="b" d="M63.4 199.9l78.5 74.4a11.8 11.8 0 0 0 16.2 0l78.5-74.4"/><path class="c" d="M195.1 173.3l-22.5-18.9M174.4 184.7l-18.3-15M74.2 145.1c6.5 18.8 59.1 59.4 59.1 59.4 12.7 10.7 24.1-5.6 13.7-14.5l-8-7.8M139.1 182.2l21.7 18.9c12.5 10.6 24.7-6.7 14.4-15.4l5.5 4.6c10.9 9.3 25.3-7.8 14.4-17l.9.7c10.9 9.3 25.3-7.8 14.4-17l-53.8-43.9s-10.4 4-14.4 2.8c0 0-15.5 23.8-26.8 15.5s0-43.4 31.9-48.5c0 0 14.3-4.1 49.4 14l13-3.9M29.712 155.544L51.88 76.728l38.073 10.708-22.167 78.816zM209.51 89.7l38.2-10.81 22.356 79.01-38.2 10.81zM89 92.9s1.8-3.4 42.3-4.2M213.9 162.6s10 2.6 15.3-3.4"/><path class="b" d="M270.2 47.4c-31.5-27.9-79.5-26.1-109.6 3.3l-8.9 8.7a2.4 2.4 0 0 1-3.3 0l-8.9-8.7c-30.1-29.4-78-31.2-109.6-3.3"/></svg>
