<svg xmlns="http://www.w3.org/2000/svg" viewBox="0 0 300 300"><defs><style>.a{fill:#fff;}.b,.c{fill:none;stroke-width:4px;}.b{stroke:#56565a;stroke-linecap:round;stroke-linejoin:round;}.c{stroke:#c33b32;stroke-miterlimit:10;}</style></defs><title>moz_icon_MOSS-open-source-security</title><path class="a" d="M0 0h300v300H0z"/><path class="b" d="M162.4 206.4h-24.8l-4.6-38.3a16.7 16.7 0 0 1 17-16.5c9.4 0 17 7.2 17 16.4zM102.4 96.3V70c0-24.5 22.5-44.5 47.6-44.5s47.6 20 47.6 44.5v26.3"/><path class="c" d="M238.3 110.9c-23.2-20.5-58.3-19.2-80.5 2.4l-6.6 6.4a1.8 1.8 0 0 1-2.5 0l-6.6-6.4c-22.1-21.6-57.3-22.9-80.5-2.4a55.6 55.6 0 0 0-2.1 82l8.2 8 76.2 72.3a8.6 8.6 0 0 0 11.9 0l76.2-72.3 8.2-8a55.6 55.6 0 0 0-1.9-82z"/></svg>
