<svg xmlns="http://www.w3.org/2000/svg" width="142" height="52" fill="none" viewBox="0 0 142 52"><path fill="#181818" d="m130.903 19.704 6.235-15.762L11.554 1 8.279 21.303.925 25.16l4.512 23.807L132.44 52l9.443-6.73-1.388-23.966-9.592-1.6Z"/><path fill="#fff" d="M23.783 25.406c-3.97 0-6.598-2.946-6.598-6.616 0-3.758 2.805-6.616 6.598-6.616 2.487 0 4.587 1.27 5.733 3.176l-2.699 1.711c-.582-1.146-1.605-1.87-3.017-1.87-2.046 0-3.475 1.606-3.475 3.6 0 1.957 1.394 3.563 3.44 3.563 1.535 0 2.594-.882 3.123-2.1l2.84 1.518c-1.094 2.134-3.193 3.634-5.945 3.634Zm14.211-.176v-4.958h-4.216v4.958H30.69V12.35h3.088v4.888h4.216V12.35h3.087V25.23h-3.087Zm3.833 0 4.763-12.88h2.964l4.764 12.88h-3.123l-.67-1.924h-4.923l-.67 1.924h-3.105Zm6.245-8.927-1.517 4.322h3.035l-1.518-4.322Zm6.98 8.927V12.35h3.087v9.933h5.61v2.947h-8.697Zm9.967 0V12.35h3.087v9.933h5.61v2.947H65.02Zm9.967 0V12.35h8.892v2.859h-5.822v2.117h5.822v2.858h-5.822v2.188h5.822v2.858h-8.892Zm10.398 0V12.35h3.21l4.852 7.728v-7.727h2.929V25.23h-2.982l-5.063-8.098v8.098h-2.946Zm19.026.176c-4.199 0-6.757-3.052-6.757-6.616 0-3.74 2.752-6.616 6.633-6.616 2.47 0 4.287 1.024 5.505 2.594l-2.576 1.817c-.618-.953-1.606-1.5-2.911-1.5-1.994 0-3.581 1.588-3.581 3.705 0 2.188 1.499 3.687 3.634 3.687 1.482 0 2.523-.74 2.964-2.01h-3.582v-2.859h6.916v1.464c0 3.405-2.523 6.334-6.245 6.334Zm7.558-.176V12.35h8.892v2.859h-5.822v2.117h5.822v2.858h-5.822v2.188h5.822v2.858h-8.892ZM60.088 41.46V28.581h4.569c4.005 0 6.704 2.788 6.704 6.44 0 3.67-2.823 6.439-6.651 6.439h-4.622Zm4.428-10.02h-1.359v7.144h1.412c2.258 0 3.687-1.57 3.687-3.563 0-2.03-1.323-3.582-3.74-3.582Zm8.123 10.02V28.581h8.892v2.858h-5.822v2.117h5.822v2.858h-5.822v2.188h5.822v2.858h-8.892Zm10.398 0V28.581h8.856v2.894h-5.787v2.293h5.787v2.84h-5.787v4.852h-3.07Zm8.38 0 4.763-12.879h2.964l4.764 12.879h-3.123l-.67-1.923h-4.923l-.67 1.923h-3.105Zm6.245-8.927-1.517 4.322h3.035l-1.518-4.322Zm11.357 9.103c-3.176 0-5.205-1.905-5.205-5.24v-7.815h3.123v7.816c0 1.429.811 2.24 2.064 2.24 1.235 0 2.099-.811 2.099-2.24V28.58h3.123v7.816c0 3.334-2.029 5.24-5.204 5.24Zm6.744-.176V28.581h3.088v9.933h5.61v2.946h-8.698Zm10.337 0V31.422h-3.493v-2.84h9.95v2.84h-3.458V41.46H126.1ZM22.407 41.46V31.422h-3.493v-2.84h9.95v2.84h-3.457V41.46h-3Zm15.11 0v-4.957H33.3v4.957h-3.087V28.581H33.3v4.887h4.217v-4.887h3.087V41.46h-3.087Zm4.679 0V28.581h8.891v2.858h-5.822v2.117h5.822v2.858h-5.822v2.188h5.822v2.858h-8.891Z"/></svg>
