<svg viewBox="0 0 64 64" xmlns="http://www.w3.org/2000/svg"><clipPath id="a"><path d="M4.15 26.21h55.7v11.92H4.15z"/></clipPath><g clip-path="url(#a)"><path d="M24.93 38.13h-18a2.83 2.83 0 01-2.79-2.85v-6.22a2.83 2.83 0 012.79-2.85h50.13a2.82 2.82 0 012.79 2.85v6.22a2.82 2.82 0 01-2.79 2.85z" fill="#fdde67"/><path d="M57 26.21H46.88v11.92H57a2.86 2.86 0 002.85-2.85v-6.22A2.86 2.86 0 0057 26.21" fill="#e21587"/><path d="M53.3 32.63a2.3 2.3 0 110-3.25 2.29 2.29 0 010 3.25z" fill="none" stroke="#fff" stroke-miterlimit="10"/></g><path d="M53.58 32.92l2.72 2.71" fill="none" stroke="#fff" stroke-linecap="round" stroke-miterlimit="10"/></svg>
