<svg viewBox="0 0 64 64" xmlns="http://www.w3.org/2000/svg"><clipPath id="a"><path d="M8.95 11.46h46.1v41.09H8.95z"/></clipPath><g clip-path="url(#a)"><path d="M21 35v9.61A2.35 2.35 0 0023.33 47h6.55v4.58a1 1 0 001.72.7l4.7-4.8.47-.48H52.7a2.35 2.35 0 002.35-2.34v-18.9a2.35 2.35 0 00-2.35-2.35H43" fill="#fdde67"/><path d="M40 35H12a3.08 3.08 0 01-3-3.07v-17.4a3.07 3.07 0 013-3.07h28a3.06 3.06 0 013 3.07v17.4A3.07 3.07 0 0140 35" fill="#e21587"/></g><path d="M15 29.22h13.33M15 17.24h22m-22 6.17h22" fill="none" stroke="#fff" stroke-linecap="round" stroke-miterlimit="10"/></svg>
