<svg viewBox="0 0 64 64" xmlns="http://www.w3.org/2000/svg"><clipPath id="a"><path d="M11.12 17.95h41.77v28.44H11.12z"/></clipPath><g clip-path="url(#a)"><path d="M11.12 22.39v-2.77A1.67 1.67 0 0112.79 18h38.42a1.67 1.67 0 011.67 1.67v2.77" fill="#fdde67"/><path d="M27.14 22.39h25.74v22.33a1.67 1.67 0 01-1.67 1.67H12.79a1.67 1.67 0 01-1.67-1.67V22.39h7.11V18h8v4.44z" fill="#e21587"/><path d="M37.58 33a2.33 2.33 0 01-.2.31 6.82 6.82 0 00-1.21-3.11 4.78 4.78 0 00-.35-.52 2.49 2.49 0 01-.37-.74 1.46 1.46 0 00-.2.46v.14a2.14 2.14 0 00-.32-.36 3.09 3.09 0 00-.31-.28 2.17 2.17 0 01-.63-1 3.82 3.82 0 00-.5.7c-.06.12-.13.25-.19.4a3.26 3.26 0 00-.3 1.1 3.1 3.1 0 001.07 2.19s.67.35.67 1.84a2.59 2.59 0 01-2.66 2.45 2.23 2.23 0 01-1.87-1 1.9 1.9 0 001.87-.21 1 1 0 01.75-.19c.22 0 .23-.25-.1-.55a1.12 1.12 0 00-.65-.22c-.38 0-.66.22-1.05.22a1.32 1.32 0 01-1-.57c-.36-.54 0-1.24.57-.69 0 0 .16-.19.09-.74 0 0 .05-.13.45-.29s.86-.34.86-.78c0 0-.05-.18-.8-.2a.74.74 0 01-.63-.48 2.11 2.11 0 01.88-1 1.59 1.59 0 00-1.56.5 1.39 1.39 0 00-.81-.16 2.53 2.53 0 00-.46 0 .3.3 0 01-.08-.08 1.22 1.22 0 01-.22-.32 1.59 1.59 0 01-.2-.78 2.45 2.45 0 00-.77 2 4.5 4.5 0 00-1 2s.2-.35.35-.58a4 4 0 00-.37 2c0-.1.1-.37.16-.6v.1a5.54 5.54 0 005.55 5.55 4.47 4.47 0 002.41-.54c.05 0 .11-.07.15-.11a1.22 1.22 0 00.44-.49 4.13 4.13 0 00.82-.46 3.67 3.67 0 00.49-.44c.08-.1.15-.19.21-.28a2.09 2.09 0 00.29-.69 1.35 1.35 0 000-.3 4.37 4.37 0 00.32-.6 5.1 5.1 0 00.41-2.6" fill="#fff"/></g></svg>
