<?xml version="1.0" encoding="utf-8"?>
<!-- Generator: Adobe Illustrator 16.0.0, SVG Export Plug-In . SVG Version: 6.00 Build 0)  -->
<!DOCTYPE svg PUBLIC "-//W3C//DTD SVG 1.1//EN" "http://www.w3.org/Graphics/SVG/1.1/DTD/svg11.dtd">
<svg version="1.1" id="BG_Download_on_the_App_Store"
	 xmlns="http://www.w3.org/2000/svg" xmlns:xlink="http://www.w3.org/1999/xlink" x="0px" y="0px" width="135px" height="40px"
	 viewBox="0 0 135 40" enable-background="new 0 0 135 40" xml:space="preserve">
<g>
	<path fill="#A6A6A6" d="M130.172,40H4.704C2.096,40,0,37.872,0,35.267V4.726C0,2.12,2.096,0,4.704,0h125.468
		C132.777,0,135,2.12,135,4.726v30.541C135,37.872,132.777,40,130.172,40L130.172,40z"/>
	<path d="M134.032,35.268c0,2.116-1.714,3.83-3.834,3.83H4.729c-2.119,0-3.839-1.714-3.839-3.83V4.725
		c0-2.115,1.72-3.835,3.839-3.835h125.468c2.121,0,3.834,1.72,3.834,3.835L134.032,35.268L134.032,35.268z"/>
	<g>
		<g>
			<path fill="#FFFFFF" d="M30.103,19.784c-0.029-3.223,2.639-4.791,2.761-4.864c-1.511-2.203-3.853-2.504-4.676-2.528
				c-1.967-0.207-3.875,1.177-4.877,1.177c-1.022,0-2.565-1.157-4.228-1.123c-2.14,0.033-4.142,1.272-5.24,3.196
				c-2.266,3.923-0.576,9.688,1.595,12.859c1.086,1.553,2.355,3.287,4.016,3.226c1.625-0.067,2.232-1.036,4.193-1.036
				c1.943,0,2.513,1.036,4.207,0.997c1.744-0.028,2.842-1.56,3.89-3.127c1.255-1.78,1.759-3.533,1.779-3.623
				C33.482,24.924,30.136,23.647,30.103,19.784z"/>
			<path fill="#FFFFFF" d="M26.902,10.306c0.874-1.093,1.472-2.58,1.306-4.089c-1.265,0.056-2.847,0.875-3.758,1.944
				c-0.806,0.942-1.526,2.486-1.34,3.938C24.531,12.205,25.99,11.382,26.902,10.306z"/>
		</g>
	</g>
	<g>
		<path fill="#FFFFFF" d="M53.62,31.504h-2.271l-1.244-3.909h-4.324l-1.185,3.909h-2.211l4.284-13.308h2.646L53.62,31.504z
			 M49.73,25.955l-1.125-3.475c-0.119-0.355-0.342-1.191-0.671-2.507h-0.04c-0.131,0.566-0.342,1.402-0.632,2.507l-1.105,3.475
			H49.73z"/>
		<path fill="#FFFFFF" d="M64.637,26.588c0,1.632-0.441,2.922-1.323,3.869c-0.79,0.843-1.771,1.264-2.942,1.264
			c-1.264,0-2.172-0.454-2.725-1.362h-0.04v5.055h-2.132V25.067c0-1.026-0.027-2.079-0.079-3.159h1.875l0.119,1.521h0.04
			c0.711-1.146,1.79-1.718,3.238-1.718c1.132,0,2.077,0.447,2.833,1.342C64.258,23.949,64.637,25.127,64.637,26.588z M62.465,26.666
			c0-0.934-0.21-1.704-0.632-2.31c-0.461-0.632-1.08-0.948-1.856-0.948c-0.526,0-1.004,0.176-1.431,0.523
			c-0.428,0.35-0.708,0.807-0.839,1.373c-0.066,0.264-0.099,0.48-0.099,0.65v1.6c0,0.698,0.214,1.287,0.642,1.768
			s0.984,0.721,1.668,0.721c0.803,0,1.428-0.31,1.875-0.928C62.241,28.496,62.465,27.68,62.465,26.666z"/>
		<path fill="#FFFFFF" d="M75.674,26.588c0,1.632-0.441,2.922-1.324,3.869c-0.789,0.843-1.77,1.264-2.941,1.264
			c-1.264,0-2.172-0.454-2.724-1.362h-0.039v5.055h-2.132V25.067c0-1.026-0.027-2.079-0.079-3.159h1.875l0.119,1.521h0.04
			c0.71-1.146,1.789-1.718,3.238-1.718c1.131,0,2.076,0.447,2.834,1.342C75.295,23.949,75.674,25.127,75.674,26.588z M73.502,26.666
			c0-0.934-0.211-1.704-0.633-2.31c-0.461-0.632-1.078-0.948-1.855-0.948c-0.527,0-1.004,0.176-1.432,0.523
			c-0.428,0.35-0.707,0.807-0.838,1.373c-0.065,0.264-0.099,0.48-0.099,0.65v1.6c0,0.698,0.214,1.287,0.64,1.768
			c0.428,0.48,0.984,0.721,1.67,0.721c0.803,0,1.428-0.31,1.875-0.928C73.277,28.496,73.502,27.68,73.502,26.666z"/>
		<path fill="#FFFFFF" d="M88.014,27.772c0,1.132-0.393,2.053-1.182,2.764c-0.867,0.777-2.074,1.165-3.625,1.165
			c-1.432,0-2.58-0.276-3.449-0.829l0.494-1.777c0.936,0.566,1.963,0.85,3.082,0.85c0.803,0,1.428-0.182,1.877-0.544
			c0.447-0.362,0.67-0.848,0.67-1.454c0-0.54-0.184-0.995-0.553-1.364c-0.367-0.369-0.98-0.712-1.836-1.029
			c-2.33-0.869-3.494-2.142-3.494-3.816c0-1.094,0.408-1.991,1.225-2.689c0.814-0.699,1.9-1.048,3.258-1.048
			c1.211,0,2.217,0.211,3.02,0.632l-0.533,1.738c-0.75-0.408-1.598-0.612-2.547-0.612c-0.75,0-1.336,0.185-1.756,0.553
			c-0.355,0.329-0.533,0.73-0.533,1.205c0,0.526,0.203,0.961,0.611,1.303c0.355,0.316,1,0.658,1.936,1.027
			c1.145,0.461,1.986,1,2.527,1.618C87.744,26.081,88.014,26.852,88.014,27.772z"/>
		<path fill="#FFFFFF" d="M95.062,23.508h-2.35v4.659c0,1.185,0.414,1.777,1.244,1.777c0.381,0,0.697-0.033,0.947-0.099l0.059,1.619
			c-0.42,0.157-0.973,0.236-1.658,0.236c-0.842,0-1.5-0.257-1.975-0.77c-0.473-0.514-0.711-1.376-0.711-2.587v-4.837h-1.4v-1.6h1.4
			v-1.757l2.094-0.632v2.389h2.35V23.508z"/>
		<path fill="#FFFFFF" d="M105.666,26.627c0,1.475-0.422,2.686-1.264,3.633c-0.883,0.975-2.055,1.461-3.516,1.461
			c-1.408,0-2.529-0.467-3.365-1.401s-1.254-2.113-1.254-3.534c0-1.487,0.43-2.705,1.293-3.652c0.861-0.948,2.023-1.422,3.484-1.422
			c1.408,0,2.541,0.467,3.396,1.402C105.258,24.021,105.666,25.192,105.666,26.627z M103.453,26.696
			c0-0.885-0.189-1.644-0.572-2.277c-0.447-0.766-1.086-1.148-1.914-1.148c-0.857,0-1.508,0.383-1.955,1.148
			c-0.383,0.634-0.572,1.405-0.572,2.317c0,0.885,0.189,1.644,0.572,2.276c0.461,0.766,1.105,1.148,1.936,1.148
			c0.814,0,1.453-0.39,1.914-1.168C103.256,28.347,103.453,27.58,103.453,26.696z"/>
		<path fill="#FFFFFF" d="M112.596,23.783c-0.211-0.039-0.436-0.059-0.672-0.059c-0.75,0-1.33,0.283-1.738,0.85
			c-0.355,0.5-0.533,1.132-0.533,1.895v5.035h-2.131l0.02-6.574c0-1.106-0.027-2.113-0.08-3.021h1.857l0.078,1.836h0.059
			c0.225-0.631,0.58-1.139,1.066-1.52c0.475-0.343,0.988-0.514,1.541-0.514c0.197,0,0.375,0.014,0.533,0.039V23.783z"/>
		<path fill="#FFFFFF" d="M122.131,26.252c0,0.382-0.025,0.704-0.078,0.967h-6.396c0.025,0.948,0.334,1.673,0.928,2.173
			c0.539,0.447,1.236,0.671,2.092,0.671c0.947,0,1.811-0.151,2.588-0.454l0.334,1.48c-0.908,0.396-1.98,0.593-3.217,0.593
			c-1.488,0-2.656-0.438-3.506-1.313c-0.848-0.875-1.273-2.05-1.273-3.524c0-1.447,0.395-2.652,1.186-3.613
			c0.828-1.026,1.947-1.539,3.355-1.539c1.383,0,2.43,0.513,3.141,1.539C121.848,24.047,122.131,25.055,122.131,26.252z
			 M120.098,25.699c0.014-0.632-0.125-1.178-0.414-1.639c-0.369-0.593-0.936-0.889-1.699-0.889c-0.697,0-1.264,0.289-1.697,0.869
			c-0.355,0.461-0.566,1.014-0.631,1.658H120.098z"/>
	</g>
	<g>
		<g>
			<path fill="#FFFFFF" d="M47.98,7.921c-0.359-0.165-0.776-0.252-1.242-0.252c-1.437,0-2.339,0.961-2.339,2.514
				c0,1.543,0.863,2.465,2.31,2.465c0.514,0,0.941-0.078,1.291-0.243l0.184,0.834c-0.388,0.185-0.941,0.282-1.659,0.282
				c-1.999,0-3.231-1.291-3.231-3.29c0-2.057,1.378-3.435,3.406-3.435c0.66,0,1.164,0.097,1.514,0.281L47.98,7.921z"/>
			<path fill="#FFFFFF" d="M49.675,8.755c0.378-0.058,1.009-0.106,1.611-0.106c0.767,0,2.125,0.097,2.125,1.213
				c0,0.573-0.456,0.902-0.941,1.009l0.01,0.029c0.679,0.116,1.154,0.495,1.154,1.145c0,1.33-1.649,1.446-2.571,1.446
				c-0.515,0-1.058-0.029-1.388-0.058V8.755z M50.684,10.638h0.534c0.66,0,1.193-0.155,1.193-0.631c0-0.427-0.35-0.621-1.106-0.621
				c-0.223,0-0.339,0.01-0.621,0.039V10.638z M50.684,12.734c0.263,0.029,0.398,0.039,0.631,0.039c0.583,0,1.252-0.126,1.252-0.737
				c0-0.543-0.523-0.718-1.329-0.718h-0.554V12.734z"/>
			<path fill="#FFFFFF" d="M57.766,13.433l-0.077-0.543H57.66c-0.32,0.437-0.786,0.65-1.378,0.65c-0.845,0-1.446-0.592-1.446-1.388
				c0-1.164,1.009-1.766,2.756-1.766v-0.087c0-0.621-0.33-0.932-0.98-0.932c-0.465,0-0.873,0.117-1.232,0.35l-0.213-0.689
				c0.437-0.272,0.98-0.408,1.62-0.408c1.232,0,1.854,0.65,1.854,1.951v1.737c0,0.476,0.02,0.845,0.068,1.126H57.766z
				 M57.621,11.084c-1.164,0-1.747,0.282-1.747,0.951c0,0.495,0.301,0.737,0.719,0.737c0.533,0,1.028-0.407,1.028-0.96V11.084z"/>
			<path fill="#FFFFFF" d="M64.199,8.717v4.716H63.15V9.571h-1.465v1.067c0,1.242-0.155,2.067-0.68,2.514
				c-0.271,0.233-0.553,0.359-1.058,0.369l-0.116-0.844c0.185-0.049,0.359-0.136,0.476-0.243c0.34-0.32,0.417-0.912,0.417-1.834
				V8.717H64.199z"/>
			<path fill="#FFFFFF" d="M67.019,8.717v1.669c0,0.767-0.028,1.32-0.067,1.99l0.02,0.019c0.242-0.495,0.485-0.951,0.728-1.446
				l1.165-2.232h1.359v4.716h-0.99v-1.669c0-0.699,0.039-1.397,0.078-2.106h-0.049c-0.215,0.572-0.437,0.97-0.661,1.417
				c-0.397,0.767-0.786,1.543-1.223,2.358H66.02V8.717H67.019z"/>
			<path fill="#FFFFFF" d="M76.846,13.54c-1.379,0-2.271-1.029-2.271-2.426c0-1.456,0.912-2.494,2.35-2.494
				c1.357,0,2.27,0.98,2.27,2.417C79.193,12.511,78.252,13.54,76.846,13.54z M76.885,9.386c-0.758,0-1.242,0.708-1.242,1.698
				c0,0.971,0.494,1.679,1.232,1.679c0.736,0,1.232-0.757,1.232-1.699C78.107,10.104,77.621,9.386,76.885,9.386z"/>
			<path fill="#FFFFFF" d="M84.092,8.717v0.854h-1.436v3.862h-1.029V9.571h-1.426V8.717H84.092z"/>
		</g>
	</g>
</g>
</svg>
