<svg width="24" height="24" viewBox="0 0 24 24" fill="none" xmlns="http://www.w3.org/2000/svg">
<path d="M9.25 3C7.86975 3 6.75 4.11975 6.75 5.5H8.5C8.5 5.08625 8.83625 4.75 9.25 4.75H17.25C17.6638 4.75 18 5.08625 18 5.5V15.5C18 15.9138 17.6638 16.25 17.25 16.25V18C18.6302 18 19.75 16.8802 19.75 15.5V5.5C19.75 4.11975 18.6302 3 17.25 3H9.25Z" fill="black"/>
<path fill-rule="evenodd" clip-rule="evenodd" d="M5.25 7C3.86975 7 2.75 8.11975 2.75 9.5V19.5C2.75 20.8802 3.86975 22 5.25 22H13.25C14.6302 22 15.75 20.8802 15.75 19.5V9.5C15.75 8.11975 14.6302 7 13.25 7H5.25ZM4.5 9.5C4.5 9.08625 4.83625 8.75 5.25 8.75H13.25C13.6638 8.75 14 9.08625 14 9.5V19.5C14 19.9137 13.6638 20.25 13.25 20.25H5.25C4.83625 20.25 4.5 19.9137 4.5 19.5V9.5Z" fill="black"/>
</svg>
