<svg width="305" height="214" viewBox="0 0 305 214" fill="none" xmlns="http://www.w3.org/2000/svg">
<path d="M9 200.456V203.519C9.00089 204.424 9.36127 205.292 10.0019 205.933C10.6425 206.572 11.5109 206.931 12.4164 206.931H116.142" stroke="black" stroke-width="1.5" stroke-miterlimit="10"/>
<path d="M265.91 35.4683H200.269C195.436 35.4683 191.517 39.3867 191.517 44.2203V152.162C191.517 156.996 195.436 160.914 200.269 160.914H265.91C270.743 160.914 274.662 156.996 274.662 152.162V44.2203C274.662 39.3867 270.743 35.4683 265.91 35.4683Z" fill="#B3FFE3"/>
<path d="M260.44 30.3629H194.8C189.966 30.3629 186.048 34.2813 186.048 39.115V147.057C186.048 151.891 189.966 155.809 194.8 155.809H260.44C265.274 155.809 269.192 151.891 269.192 147.057V39.115C269.192 34.2813 265.274 30.3629 260.44 30.3629Z" fill="white" stroke="black" stroke-width="1.5" stroke-miterlimit="10"/>
<path d="M269.192 39.115H186.048V147.057H269.192V39.115Z" fill="white" stroke="black" stroke-width="1.5" stroke-miterlimit="10"/>
<path d="M239.515 78.2107C239.179 77.3844 238.612 76.6728 237.881 76.1616C237.13 75.6354 236.238 75.3471 235.322 75.3344C234.706 75.3282 234.095 75.4428 233.523 75.672C232.695 76.0085 231.984 76.5757 231.471 77.3059C231.19 77.7099 230.979 78.1568 230.843 78.6293L224.378 78.5247C224.336 78.335 224.278 78.1497 224.202 77.9711C224.134 77.7967 224.052 77.6284 223.955 77.4681L226.318 75.1961C226.924 75.5566 227.605 75.7732 228.308 75.8291C229.011 75.885 229.718 75.7786 230.372 75.5181C231.027 75.2578 231.613 74.8503 232.087 74.3273C232.56 73.8042 232.904 73.1795 233.097 72.5015C233.291 71.8234 233.326 71.1101 233.199 70.4167C233.073 69.7231 232.788 69.0679 232.368 68.5017C231.949 67.9354 231.404 67.4732 230.778 67.1507C230.15 66.8283 229.458 66.6541 228.753 66.6417C228.148 66.6301 227.548 66.7379 226.985 66.9591C226.423 67.1802 225.91 67.5101 225.475 67.9301C225.04 68.35 224.692 68.8518 224.451 69.4064C224.211 69.9609 224.083 70.5575 224.074 71.162C224.064 71.7784 224.179 72.3905 224.412 72.9613C224.476 73.1098 224.543 73.2584 224.617 73.3934L222.235 75.6991C221.561 75.3124 220.8 75.1044 220.023 75.0948C219.419 75.0832 218.818 75.191 218.256 75.4121C217.693 75.6333 217.18 75.9634 216.745 76.3834C216.312 76.8033 215.965 77.305 215.724 77.8597C215.484 78.4143 215.356 79.0109 215.347 79.615C215.338 80.2315 215.453 80.8435 215.685 81.4143C216.021 82.2407 216.587 82.9523 217.318 83.4635C217.814 83.8113 218.373 84.0577 218.965 84.1887C219.556 84.3196 220.167 84.3324 220.763 84.2264C221.359 84.1203 221.928 83.8974 222.438 83.5708C222.947 83.2441 223.387 82.8198 223.733 82.3224C224.018 81.9232 224.233 81.4779 224.368 81.0059L230.826 81.1105C230.876 81.2984 230.937 81.4833 231.007 81.6642C231.073 81.8094 231.139 81.9579 231.214 82.0929L228.851 84.3986C228.176 84.0126 227.413 83.8047 226.637 83.7943C226.021 83.7885 225.408 83.9032 224.836 84.1319C223.998 84.4712 223.279 85.0496 222.767 85.7953C222.256 86.5408 221.975 87.4206 221.961 88.3246C221.95 88.941 222.065 89.553 222.299 90.124C222.635 90.9492 223.202 91.6603 223.932 92.1731C224.682 92.7003 225.574 92.9888 226.49 93.0006C227.244 93.0137 227.988 92.84 228.659 92.4973C229.329 92.154 229.904 91.6508 230.332 91.0321C230.864 90.283 231.154 89.3909 231.167 88.4732C231.174 87.8591 231.06 87.2496 230.828 86.6806C230.754 86.5085 230.677 86.3431 230.59 86.1743L232.932 83.9056C233.622 84.3175 234.411 84.54 235.215 84.5505C236.434 84.5676 237.612 84.1011 238.488 83.2527C239.365 82.4044 239.87 81.2433 239.892 80.0235C239.89 79.4 239.76 78.7836 239.515 78.2107ZM226.727 70.372C226.894 69.9979 227.165 69.6792 227.507 69.4538C227.863 69.2242 228.279 69.1065 228.702 69.1162C228.985 69.1195 229.265 69.1803 229.523 69.2952C229.904 69.4633 230.228 69.7406 230.453 70.0919C230.677 70.4432 230.792 70.8531 230.785 71.2701C230.78 71.62 230.689 71.9635 230.519 72.2695C230.349 72.5756 230.105 72.8349 229.812 73.0241C229.517 73.2133 229.18 73.3267 228.831 73.3539C228.481 73.3814 228.131 73.3218 227.81 73.1807C227.433 73.0141 227.111 72.7408 226.886 72.3942C226.655 72.0394 226.536 71.6225 226.548 71.1992C226.549 70.9139 226.611 70.6321 226.727 70.372ZM221.873 80.5401C221.707 80.9149 221.436 81.2336 221.094 81.4582C220.796 81.6532 220.455 81.7706 220.102 81.7994C219.748 81.8283 219.393 81.7678 219.068 81.6236C218.689 81.4562 218.367 81.1831 218.14 80.8371C217.91 80.4829 217.792 80.0676 217.801 79.6454C217.807 79.3618 217.867 79.0819 217.98 78.8217C218.151 78.4486 218.421 78.1305 218.764 77.9034C219.06 77.7085 219.402 77.5912 219.756 77.5623C220.109 77.5333 220.465 77.5938 220.79 77.738C221.172 77.9054 221.496 78.1823 221.722 78.5337C221.946 78.8851 222.062 79.2954 222.055 79.7129C222.052 79.9982 221.989 80.2796 221.873 80.5401ZM228.455 89.2394C228.3 89.5872 228.053 89.8866 227.742 90.1063C227.432 90.3261 227.066 90.4581 226.688 90.4884C226.308 90.5188 225.927 90.4465 225.584 90.279C225.242 90.1115 224.951 89.8551 224.742 89.5366C224.548 89.2393 224.432 88.8981 224.404 88.5442C224.376 88.1901 224.438 87.8349 224.583 87.511C224.75 87.1292 225.027 86.8052 225.378 86.5799C225.728 86.3547 226.138 86.2382 226.554 86.2451C226.838 86.2488 227.117 86.3108 227.376 86.4274C227.89 86.6552 228.293 87.0776 228.497 87.6022C228.701 88.1267 228.689 88.7106 228.463 89.226L228.455 89.2394ZM237.186 80.8C237.074 81.0552 236.913 81.2859 236.712 81.4787C236.51 81.6714 236.274 81.8225 236.014 81.9232C235.754 82.024 235.477 82.0723 235.198 82.0655C234.92 82.0587 234.644 81.9968 234.39 81.8836C234.012 81.7171 233.69 81.4437 233.466 81.0971C233.274 80.7989 233.157 80.4578 233.13 80.1043C233.103 79.7508 233.164 79.3958 233.306 79.0716C233.473 78.6964 233.744 78.3767 234.087 78.1499C234.408 77.9384 234.783 77.819 235.167 77.8042C235.552 77.7895 235.934 77.8801 236.271 78.0662C236.609 78.2524 236.888 78.5271 237.082 78.8607C237.274 79.1943 237.371 79.5742 237.365 79.9594C237.362 80.2444 237.301 80.5258 237.186 80.7864V80.8Z" fill="black"/>
<path d="M189.802 175.928C190.44 175.928 191.071 175.803 191.659 175.559C192.248 175.315 192.783 174.957 193.234 174.507C193.684 174.055 194.04 173.52 194.285 172.931C194.529 172.342 194.654 171.712 194.653 171.073V82.0772C194.653 80.7898 194.142 79.5551 193.231 78.6447C192.321 77.7342 191.086 77.2229 189.799 77.2229H41.6373C40.3498 77.2229 39.1151 77.7342 38.2047 78.6447C37.2944 79.5551 36.783 80.7898 36.783 82.0772V171.073C36.783 171.712 36.9085 172.342 37.1525 172.932C37.3964 173.521 37.754 174.056 38.2047 174.507C38.6555 174.957 39.1906 175.315 39.7796 175.559C40.3686 175.803 40.9998 175.928 41.6373 175.928" fill="white"/>
<path d="M189.802 175.928C190.44 175.928 191.071 175.803 191.659 175.559C192.248 175.315 192.783 174.957 193.234 174.507C193.684 174.055 194.04 173.52 194.285 172.931C194.529 172.342 194.654 171.712 194.653 171.073V82.0772C194.653 80.7898 194.142 79.5551 193.231 78.6447C192.321 77.7342 191.086 77.2229 189.799 77.2229H41.6373C40.3498 77.2229 39.1151 77.7342 38.2047 78.6447C37.2944 79.5551 36.783 80.7898 36.783 82.0772V171.073C36.783 171.712 36.9085 172.342 37.1525 172.932C37.3964 173.521 37.754 174.056 38.2047 174.507C38.6555 174.957 39.1906 175.315 39.7796 175.559C40.3686 175.803 40.9998 175.928 41.6373 175.928" stroke="black" stroke-width="1.5" stroke-miterlimit="10"/>
<path d="M112.043 202.664H219.823C220.359 202.665 220.883 202.499 221.323 202.19C221.761 201.881 222.094 201.445 222.276 200.938C222.457 200.433 222.478 199.885 222.336 199.366C222.193 198.848 221.894 198.387 221.479 198.047L195.374 176.522C194.908 176.137 194.322 175.927 193.716 175.928H37.7169C37.1112 175.927 36.5241 176.137 36.0561 176.522L9.95444 198.047C9.53987 198.387 9.24086 198.848 9.09829 199.366C8.95572 199.885 8.97655 200.433 9.15796 200.938C9.33937 201.445 9.67244 201.881 10.1117 202.19C10.551 202.499 11.075 202.665 11.612 202.664H119.392" fill="white"/>
<path d="M112.043 202.664H219.823C220.359 202.665 220.883 202.499 221.323 202.19C221.761 201.881 222.094 201.445 222.276 200.938C222.457 200.433 222.478 199.885 222.336 199.366C222.193 198.848 221.894 198.387 221.479 198.047L195.374 176.522C194.908 176.137 194.322 175.927 193.716 175.928H37.7169C37.1112 175.927 36.5241 176.137 36.0561 176.522L9.95444 198.047C9.53987 198.387 9.24086 198.848 9.09829 199.366C8.95572 199.885 8.97655 200.433 9.15796 200.938C9.33937 201.445 9.67244 201.881 10.1117 202.19C10.551 202.499 11.075 202.665 11.612 202.664H119.392" stroke="black" stroke-width="1.5" stroke-miterlimit="10"/>
<path d="M94.7598 198.313H161.132L150.325 186.221H38.9271L28.1245 198.313H94.7598Z" fill="#B3FFE3"/>
<path d="M222.432 200.456V203.519C222.432 204.424 222.073 205.292 221.432 205.931C220.793 206.572 219.925 206.931 219.02 206.931H115.295" stroke="black" stroke-width="1.5" stroke-miterlimit="10"/>
<path d="M115.862 193.276H189.248L177.302 179.909H54.1315L42.1846 193.276H115.862Z" stroke="black" stroke-width="1.5" stroke-linecap="round" stroke-linejoin="round"/>
<path d="M186.047 83.4377H45.2964V170.355H115.672H186.047V83.4377Z" fill="white" stroke="black" stroke-width="1.5" stroke-linecap="round" stroke-linejoin="round"/>
<path d="M132.259 124.15C131.782 123.021 130.984 122.059 129.963 121.381C128.942 120.705 127.745 120.345 126.52 120.345C125.498 120.34 124.492 120.588 123.589 121.065C122.687 121.543 121.917 122.238 121.348 123.086C120.977 123.64 120.7 124.249 120.528 124.893H111.751C111.69 124.638 111.606 124.389 111.501 124.15C111.409 123.915 111.296 123.689 111.163 123.475L114.292 120.345C115.237 120.887 116.307 121.169 117.395 121.166C118.228 121.169 119.053 121 119.819 120.673C121.146 120.115 122.238 119.115 122.912 117.844C123.585 116.571 123.796 115.105 123.511 113.695C123.225 112.284 122.46 111.016 121.345 110.106C120.23 109.195 118.834 108.7 117.395 108.702C116.576 108.7 115.765 108.859 115.008 109.171C114.251 109.483 113.563 109.943 112.983 110.521C112.404 111.1 111.945 111.788 111.632 112.543C111.319 113.301 111.158 114.111 111.16 114.931C111.158 115.765 111.326 116.593 111.653 117.361C111.737 117.559 111.833 117.752 111.939 117.939L108.766 121.115C107.844 120.607 106.808 120.342 105.755 120.345C104.734 120.34 103.727 120.588 102.824 121.065C101.922 121.543 101.152 122.238 100.583 123.086C99.8924 124.118 99.5223 125.329 99.5198 126.571C99.5172 127.406 99.6848 128.232 100.013 129.001C100.485 130.114 101.269 131.067 102.271 131.743C103.299 132.439 104.513 132.809 105.755 132.805C106.774 132.804 107.778 132.552 108.677 132.073C109.577 131.594 110.346 130.902 110.917 130.057C111.296 129.51 111.577 128.902 111.747 128.258H120.504C120.573 128.512 120.659 128.76 120.764 129.001C120.849 129.2 120.945 129.393 121.051 129.582L117.874 132.754C116.953 132.248 115.918 131.983 114.866 131.986C114.032 131.986 113.206 132.149 112.436 132.469C111.308 132.945 110.346 133.744 109.669 134.765C108.992 135.784 108.631 136.983 108.631 138.207C108.629 139.041 108.797 139.867 109.124 140.634C109.598 141.746 110.38 142.698 111.379 143.378C112.318 144.007 113.41 144.37 114.539 144.428C115.668 144.485 116.791 144.236 117.789 143.705C118.787 143.173 119.622 142.382 120.206 141.414C120.789 140.446 121.098 139.337 121.101 138.207C121.099 137.374 120.931 136.551 120.608 135.783C120.504 135.551 120.392 135.317 120.271 135.108L123.393 131.986C124.339 132.526 125.41 132.808 126.499 132.805C127.331 132.808 128.155 132.641 128.92 132.313C130.049 131.837 131.013 131.038 131.692 130.018C132.37 128.997 132.733 127.799 132.735 126.573C132.738 125.743 132.576 124.918 132.259 124.15ZM114.762 113.814C114.98 113.301 115.341 112.863 115.802 112.55C116.197 112.282 116.654 112.118 117.13 112.071C117.606 112.025 118.085 112.098 118.526 112.284C119.046 112.503 119.491 112.871 119.803 113.342C120.115 113.814 120.282 114.366 120.281 114.931C120.279 115.692 119.976 116.423 119.438 116.962C118.9 117.502 118.17 117.807 117.408 117.81C117.026 117.808 116.647 117.731 116.294 117.584C115.777 117.366 115.335 117.003 115.022 116.537C114.702 116.063 114.534 115.503 114.539 114.931C114.539 114.547 114.616 114.166 114.765 113.814H114.762ZM108.415 127.695C108.214 128.172 107.887 128.586 107.47 128.894C107.052 129.201 106.56 129.389 106.044 129.44C105.528 129.49 105.008 129.398 104.539 129.178C104.07 128.956 103.671 128.611 103.382 128.18C103.061 127.705 102.892 127.144 102.896 126.571C102.894 126.188 102.971 125.808 103.122 125.457C103.339 124.945 103.699 124.507 104.158 124.193C104.554 123.924 105.01 123.759 105.486 123.712C105.962 123.665 106.442 123.738 106.883 123.924C107.404 124.142 107.849 124.511 108.162 124.98C108.475 125.452 108.642 126.005 108.642 126.571C108.644 126.957 108.567 127.339 108.415 127.695ZM117.53 139.334C117.384 139.682 117.17 139.998 116.901 140.263C116.633 140.528 116.315 140.739 115.965 140.881C115.616 141.023 115.242 141.095 114.864 141.092C114.487 141.09 114.114 141.014 113.766 140.867C113.252 140.645 112.812 140.282 112.497 139.821C112.232 139.423 112.069 138.967 112.024 138.491C111.978 138.015 112.051 137.536 112.236 137.096C112.456 136.576 112.824 136.132 113.295 135.818C113.766 135.506 114.318 135.341 114.883 135.341C115.266 135.338 115.646 135.415 115.997 135.566C116.519 135.784 116.964 136.153 117.277 136.624C117.589 137.095 117.755 137.649 117.753 138.214C117.753 138.599 117.675 138.98 117.523 139.334H117.53ZM129.17 127.695C128.969 128.172 128.642 128.586 128.224 128.894C127.807 129.201 127.314 129.389 126.798 129.44C126.282 129.49 125.762 129.398 125.294 129.178C124.825 128.956 124.425 128.611 124.136 128.18C123.873 127.782 123.712 127.326 123.666 126.851C123.621 126.376 123.693 125.897 123.877 125.457C124.094 124.944 124.455 124.505 124.916 124.193C125.388 123.868 125.949 123.695 126.523 123.697C126.907 123.696 127.287 123.773 127.64 123.924C128.161 124.144 128.606 124.512 128.918 124.982C129.23 125.453 129.396 126.005 129.396 126.571C129.396 126.957 129.317 127.339 129.163 127.695H129.17Z" fill="black"/>
<path d="M296.43 200.555V115.147C296.43 113.438 295.751 111.799 294.543 110.59C293.334 109.381 291.695 108.702 289.985 108.702H248.399C246.69 108.703 245.052 109.382 243.843 110.591C242.634 111.8 241.955 113.438 241.954 115.147V200.555C241.954 201.402 242.121 202.239 242.445 203.021C242.768 203.803 243.244 204.514 243.841 205.112C244.441 205.71 245.151 206.185 245.933 206.509C246.715 206.833 247.553 207 248.399 207H289.992C291.701 206.997 293.338 206.319 294.545 205.11C295.751 203.901 296.43 202.264 296.43 200.555Z" fill="white" stroke="black" stroke-width="1.5" stroke-miterlimit="10"/>
<path d="M288.952 113.261H249.43C247.818 113.261 246.512 114.567 246.512 116.179V199.524C246.512 201.135 247.818 202.441 249.43 202.441H288.952C290.564 202.441 291.87 201.135 291.87 199.524V116.179C291.87 114.567 290.564 113.261 288.952 113.261Z" fill="white" stroke="black" stroke-width="1.5" stroke-miterlimit="10"/>
<path d="M281.088 148.898C280.75 148.059 280.172 147.338 279.427 146.827C278.68 146.315 277.8 146.034 276.895 146.019C276.279 146.013 275.668 146.128 275.096 146.357C274.271 146.694 273.56 147.261 273.047 147.991C272.766 148.395 272.555 148.841 272.419 149.314L265.954 149.209C265.91 149.02 265.851 148.834 265.776 148.656C265.71 148.482 265.628 148.314 265.529 148.156L267.893 145.884C268.584 146.293 269.368 146.515 270.171 146.525C270.923 146.536 271.667 146.363 272.337 146.021C273.006 145.679 273.583 145.179 274.016 144.564C274.544 143.811 274.834 142.918 274.85 141.999C274.861 141.246 274.688 140.502 274.345 139.832C274.002 139.162 273.5 138.587 272.882 138.157C272.13 137.632 271.239 137.344 270.324 137.33C269.708 137.324 269.095 137.439 268.524 137.668C267.698 138.004 266.987 138.571 266.474 139.301C265.949 140.053 265.662 140.944 265.648 141.859C265.635 142.477 265.749 143.089 265.984 143.66C266.044 143.807 266.112 143.951 266.188 144.092L263.825 146.393C263.15 146.009 262.389 145.801 261.614 145.79C260.859 145.773 260.113 145.944 259.442 146.286C258.769 146.628 258.192 147.132 257.761 147.751C257.239 148.504 256.952 149.394 256.935 150.31C256.925 150.926 257.039 151.538 257.272 152.109C257.607 152.935 258.175 153.646 258.906 154.158C259.656 154.685 260.549 154.974 261.465 154.986C262.08 154.996 262.689 154.881 263.257 154.648C264.088 154.317 264.8 153.751 265.31 153.017C265.594 152.616 265.808 152.17 265.941 151.697L272.402 151.806C272.449 151.994 272.51 152.176 272.585 152.355C272.645 152.503 272.711 152.648 272.787 152.787L270.407 155.09C269.734 154.704 268.973 154.496 268.196 154.486C267.58 154.479 266.969 154.594 266.397 154.824C265.558 155.162 264.837 155.74 264.325 156.486C263.813 157.231 263.531 158.111 263.517 159.016C263.508 159.632 263.623 160.244 263.855 160.816C264.192 161.642 264.759 162.355 265.488 162.868C266.302 163.437 267.277 163.728 268.268 163.698C269.26 163.668 270.215 163.318 270.991 162.7C271.768 162.082 272.324 161.23 272.576 160.27C272.828 159.311 272.762 158.295 272.389 157.375C272.318 157.201 272.239 157.031 272.15 156.866L274.492 154.601C275.183 155.011 275.969 155.232 276.771 155.246C277.386 155.257 277.997 155.142 278.566 154.907C279.404 154.568 280.125 153.991 280.638 153.246C281.15 152.501 281.432 151.622 281.45 150.718C281.453 150.094 281.33 149.474 281.088 148.898ZM268.3 141.06C268.467 140.685 268.74 140.363 269.084 140.139C269.381 139.943 269.722 139.826 270.076 139.797C270.431 139.768 270.786 139.831 271.11 139.977C271.491 140.144 271.815 140.42 272.039 140.771C272.264 141.122 272.38 141.532 272.372 141.948C272.372 142.233 272.311 142.515 272.193 142.775C272.026 143.152 271.753 143.472 271.407 143.696C271.053 143.926 270.64 144.043 270.218 144.034C269.936 144.026 269.658 143.966 269.398 143.855C269.021 143.686 268.7 143.412 268.473 143.066C268.281 142.767 268.166 142.426 268.138 142.072C268.111 141.718 268.171 141.365 268.315 141.04L268.3 141.06ZM263.449 151.225C263.281 151.606 263.004 151.93 262.653 152.156C262.302 152.38 261.892 152.496 261.475 152.491C261.192 152.483 260.914 152.423 260.654 152.312C260.276 152.145 259.953 151.87 259.73 151.521C259.496 151.169 259.379 150.752 259.392 150.331C259.395 150.047 259.455 149.768 259.571 149.509C259.737 149.135 260.008 148.816 260.351 148.592C260.705 148.359 261.123 148.24 261.546 148.254C261.829 148.256 262.109 148.316 262.366 148.432C262.748 148.601 263.072 148.878 263.297 149.229C263.521 149.58 263.637 149.991 263.629 150.408C263.625 150.689 263.564 150.968 263.449 151.225ZM270.03 159.927C269.802 160.441 269.38 160.843 268.855 161.047C268.332 161.249 267.748 161.238 267.234 161.012C266.858 160.842 266.537 160.569 266.309 160.225C266.099 159.902 265.982 159.527 265.969 159.144C265.956 158.758 266.047 158.377 266.234 158.04C266.42 157.704 266.695 157.424 267.027 157.231C267.362 157.039 267.74 156.94 268.125 156.947C268.409 156.949 268.688 157.01 268.945 157.125C269.328 157.292 269.651 157.571 269.876 157.922C270.101 158.273 270.217 158.683 270.209 159.101C270.201 159.386 270.136 159.668 270.016 159.927H270.03ZM278.76 151.488C278.591 151.87 278.313 152.192 277.962 152.417C277.611 152.641 277.201 152.757 276.784 152.751C276.436 152.746 276.095 152.654 275.791 152.486C275.487 152.317 275.228 152.077 275.039 151.785C274.809 151.43 274.692 151.013 274.701 150.59C274.706 150.307 274.767 150.029 274.881 149.769C275.047 149.394 275.318 149.075 275.664 148.851C276.017 148.62 276.433 148.503 276.855 148.513C277.138 148.516 277.418 148.577 277.676 148.692C278.055 148.859 278.376 149.132 278.6 149.479C278.83 149.832 278.948 150.247 278.938 150.667C278.934 150.947 278.874 151.223 278.76 151.478V151.488Z" fill="black"/>
<path d="M149.706 67.4007L157.311 63.653C161.951 61.38 165.857 57.846 168.581 53.4556C171.306 49.0653 172.739 43.9962 172.716 38.8292L172.634 16.3585L149.459 7.00705L149.085 7L125.927 16.4832L126.008 38.9539C126.045 44.6558 127.826 50.2102 131.112 54.8705C133.775 58.6944 137.397 61.7497 141.616 63.7289L149.332 67.3981L149.706 67.4007Z" fill="#53FFBC" stroke="black" stroke-width="1.5" stroke-miterlimit="10"/>
<path d="M145.201 46.473C144.967 46.4811 144.735 46.4382 144.52 46.3474C144.304 46.2566 144.112 46.1201 143.954 45.9473L137.543 39.6592C137.216 39.32 137.038 38.8651 137.047 38.3942C137.056 37.9234 137.251 37.4754 137.59 37.1488C137.929 36.8222 138.384 36.6436 138.855 36.6524C139.326 36.6612 139.774 36.8568 140.1 37.1958L145.177 42.331L158.361 28.7664C158.684 28.4218 159.13 28.2195 159.602 28.204C160.074 28.1884 160.532 28.3609 160.877 28.6835C161.221 29.006 161.423 29.4521 161.439 29.9238C161.454 30.3954 161.282 30.854 160.959 31.1985L146.491 45.9949C146.325 46.1583 146.128 46.2855 145.91 46.3679C145.692 46.4503 145.459 46.4863 145.227 46.4734L145.201 46.473Z" fill="black"/>
<path d="M32.3229 50V58.643" stroke="black" stroke-width="1.6" stroke-miterlimit="10" stroke-linecap="round"/>
<path d="M27.9999 54.318H36.6501" stroke="black" stroke-width="1.6" stroke-miterlimit="10" stroke-linecap="round"/>
<path d="M23.0573 74.0209C23.5741 71.8266 22.2159 69.6279 20.0223 69.1101C17.8267 68.5921 15.6291 69.951 15.1104 72.1454C14.5916 74.3398 15.9517 76.539 18.1453 77.057C20.3409 77.575 22.5385 76.2153 23.0573 74.0209Z" stroke="black" stroke-width="1.6" stroke-miterlimit="10"/>
<path d="M285.323 19V27.643" stroke="black" stroke-width="1.6" stroke-miterlimit="10" stroke-linecap="round"/>
<path d="M281 23.318H289.65" stroke="black" stroke-width="1.6" stroke-miterlimit="10" stroke-linecap="round"/>
</svg>
