<svg width="126" height="42" viewBox="0 0 126 42" fill="none" xmlns="http://www.w3.org/2000/svg">
<path d="M50.4208 12.5632H61.7311V15.6121H53.6448V19.7647H61.7311V22.761H53.6448V29.3843H50.4208V12.5632ZM65.5893 11.4068C66.6992 11.4068 67.492 12.1953 67.492 13.2992C67.492 14.403 66.7521 15.1915 65.5893 15.1915C64.4266 15.1915 63.6867 14.403 63.6867 13.3517C63.6867 12.3004 64.5323 11.4068 65.5893 11.4068ZM64.0038 16.9788H67.2277V29.4368H64.0038V16.9788ZM76.4768 20.4481C76.1069 20.1327 75.4727 19.8699 74.9441 19.8699C73.6228 19.8699 72.8829 20.7109 72.8829 22.4982V29.3843H69.7118V16.9262H72.7243V18.7134C73.3586 17.2942 74.3628 16.8211 75.7369 16.8211C77.1111 16.8211 77.2696 17.0313 77.851 17.4519L76.4768 20.3955V20.4481ZM77.7981 23.2866C77.7981 19.7122 80.4407 16.7159 84.2461 16.7159C88.0514 16.7159 90.694 19.3442 90.694 23.0764V24.3905H80.9693C81.3392 25.9675 82.5548 27.0188 84.4046 27.0188C86.2545 27.0188 86.8887 26.3355 87.5229 25.179L90.1655 26.756C88.8442 28.7009 86.9415 29.6997 84.2989 29.6997C80.2293 29.6997 77.7981 27.0188 77.7981 23.2866ZM80.9693 21.8674H87.5758C87.2058 20.2904 85.9373 19.3968 84.2461 19.3968C82.5548 19.3968 81.4449 20.2378 81.0221 21.8674H80.9693ZM91.434 16.9788H93.7066V16.348C93.7066 12.9838 95.1336 11.5645 98.3047 11.5645H99.4146V14.2979H98.5161C97.0363 14.2979 96.7192 14.8236 96.7192 16.348V16.9788H99.4146V19.8173H96.772V29.3843H93.7066V19.8173H91.434V16.9788ZM99.996 23.1815C99.996 19.607 102.744 16.7159 106.55 16.7159C110.355 16.7159 113.103 19.607 113.103 23.1815C113.103 26.756 110.196 29.6471 106.55 29.6471C102.903 29.6471 99.996 26.8085 99.996 23.1815ZM109.985 23.1815C109.985 21.184 108.505 19.6596 106.55 19.6596C104.594 19.6596 103.114 21.184 103.114 23.1815C103.114 25.179 104.594 26.7034 106.55 26.7034C108.505 26.7034 109.985 25.179 109.985 23.1815ZM117.384 23.0238L112.839 16.9262H116.591L119.234 20.7635L121.982 16.9262H125.682L121.084 22.9713L125.893 29.3317H122.141L119.128 25.2841L116.222 29.3317H112.469L117.279 22.9713L117.384 23.0238Z" fill="white"/>
<path d="M39.2155 14.0859C38.3264 11.9566 36.5481 9.66361 35.1208 8.93826C36.127 10.8803 36.8289 12.9628 37.1799 15.1154V15.1388C34.8869 9.40623 30.9794 7.0898 27.7972 2.05917C27.6334 1.80179 27.4696 1.54441 27.3292 1.28703C27.2356 1.12324 27.1654 0.98285 27.0952 0.865858C26.9549 0.608477 26.8613 0.327698 26.7911 0.0703169C26.7911 0.0469186 26.7677 0.0235203 26.7443 0.0235203C26.7209 0.0235203 26.7209 0.0235203 26.6975 0.0235203C26.6975 0.0235203 26.6975 0.0235203 26.6741 0.0235203V0.00012207C21.5732 2.9951 19.8418 8.54049 19.678 11.3015C17.6423 11.4419 15.6769 12.1906 14.0858 13.4541C13.922 13.3137 13.7348 13.1733 13.571 13.0564C13.1031 11.4419 13.0797 9.71041 13.5242 8.07253C11.6524 8.98506 9.9677 10.272 8.634 11.863C7.83846 10.8335 7.88526 7.46417 7.93205 6.76222C7.69807 6.85582 7.46409 6.97281 7.2535 7.1132C6.55156 7.62796 5.87301 8.18952 5.26465 8.82127C4.5627 9.52322 3.93095 10.2954 3.36939 11.1143C2.01229 12.9862 1.07636 15.092 0.584996 17.2914L0.561598 17.4318C0.514801 17.619 0.374412 18.5082 0.351013 18.6953C0.351013 18.7187 0.351013 18.7187 0.351013 18.7421C0.163827 19.6781 0.070234 20.614 0.0234375 21.5499V21.6435C0.0234375 32.8981 9.14876 42 20.4033 41.9766C30.3008 41.9766 38.771 34.8401 40.4557 25.0831C40.4791 24.8257 40.5258 24.5683 40.5492 24.2875C40.947 20.848 40.5025 17.3382 39.2155 14.0859ZM15.7471 30.0201C15.8407 30.0669 15.9343 30.1137 16.0279 30.1605H16.0513C15.9577 30.1371 15.8407 30.0669 15.7471 30.0201Z" fill="url(#paint0_linear_1721_1174)"/>
<path d="M39.2155 14.0858C38.3264 11.9565 36.5481 9.66352 35.1208 8.93817C36.1269 10.8802 36.8289 12.9627 37.1799 15.1153V15.1387V15.1621C38.7475 19.6546 38.5136 24.5682 36.5481 28.8969C34.2083 33.9041 28.5693 39.0283 19.7247 38.7944C10.1782 38.5136 1.75487 31.4473 0.187186 22.1582C-0.0935931 20.6841 0.187186 19.9588 0.327576 18.7654C0.14039 19.678 0.0233983 20.6373 0 21.5732V21.6668C0 32.9214 9.12533 42.0233 20.3799 41.9999C30.2774 41.9999 38.7475 34.8635 40.4322 25.1064C40.4556 24.849 40.5024 24.5916 40.5258 24.3108C40.947 20.8479 40.5024 17.3381 39.2155 14.0858Z" fill="url(#paint1_radial_1721_1174)"/>
<path d="M39.2155 14.0858C38.3264 11.9565 36.5481 9.66352 35.1208 8.93817C36.1269 10.8802 36.8289 12.9627 37.1799 15.1153V15.1387V15.1621C38.7475 19.6546 38.5136 24.5682 36.5481 28.8969C34.2083 33.9041 28.5693 39.0283 19.7247 38.7944C10.1782 38.5136 1.75487 31.4473 0.187186 22.1582C-0.0935931 20.6841 0.187186 19.9588 0.327576 18.7654C0.14039 19.678 0.0233983 20.6373 0 21.5732V21.6668C0 32.9214 9.12533 42.0233 20.3799 41.9999C30.2774 41.9999 38.7475 34.8635 40.4322 25.1064C40.4556 24.849 40.5024 24.5916 40.5258 24.3108C40.947 20.8479 40.5024 17.3381 39.2155 14.0858Z" fill="url(#paint2_radial_1721_1174)"/>
<path d="M29.3181 16.4959C29.3649 16.5193 29.4117 16.5661 29.4351 16.5895C28.9203 15.6769 28.2885 14.858 27.5398 14.1326C21.2223 7.8151 25.8785 0.421247 26.6741 0.046875C21.5732 2.99506 19.8418 8.54045 19.678 11.3014C19.912 11.278 20.1459 11.2546 20.4033 11.2546C24.1003 11.278 27.493 13.2669 29.3181 16.4959Z" fill="url(#paint3_radial_1721_1174)"/>
<path d="M20.4267 17.7593C20.4033 18.2741 18.6016 20.0056 17.9698 20.0056C12.1905 20.0056 11.2311 23.5153 11.2311 23.5153C11.4885 26.4635 13.5476 28.8969 16.0278 30.1838C16.1448 30.254 16.2618 30.3008 16.3788 30.3476C16.5893 30.4412 16.7765 30.5114 16.9871 30.5816C17.8295 30.8858 18.742 31.0496 19.6311 31.0964C29.786 31.5643 31.7514 18.9526 24.4278 15.3025C26.1592 15.0685 27.9141 15.5131 29.3414 16.4958C27.5163 13.2903 24.1236 11.3014 20.4267 11.278C20.1927 11.278 19.9587 11.3014 19.7013 11.3248C17.6657 11.4652 15.7002 12.2139 14.1091 13.4775C14.4133 13.7348 14.7643 14.0858 15.513 14.8112C16.8701 16.1683 20.4033 17.5722 20.4267 17.7593Z" fill="url(#paint4_radial_1721_1174)"/>
<path d="M20.4267 17.7593C20.4033 18.2741 18.6016 20.0056 17.9698 20.0056C12.1905 20.0056 11.2311 23.5153 11.2311 23.5153C11.4885 26.4635 13.5476 28.8969 16.0278 30.1838C16.1448 30.254 16.2618 30.3008 16.3788 30.3476C16.5893 30.4412 16.7765 30.5114 16.9871 30.5816C17.8295 30.8858 18.742 31.0496 19.6311 31.0964C29.786 31.5643 31.7514 18.9526 24.4278 15.3025C26.1592 15.0685 27.9141 15.5131 29.3414 16.4958C27.5163 13.2903 24.1236 11.3014 20.4267 11.278C20.1927 11.278 19.9587 11.3014 19.7013 11.3248C17.6657 11.4652 15.7002 12.2139 14.1091 13.4775C14.4133 13.7348 14.7643 14.0858 15.513 14.8112C16.8701 16.1683 20.4033 17.5722 20.4267 17.7593Z" fill="url(#paint5_radial_1721_1174)"/>
<path d="M13.1264 12.7988C13.2902 12.8924 13.4306 12.986 13.5476 13.0796C13.0796 11.4651 13.0562 9.73364 13.5008 8.09576C11.6289 9.0083 9.94424 10.2952 8.61053 11.8863C8.70413 11.8863 11.6523 11.8395 13.1264 12.7988Z" fill="url(#paint6_radial_1721_1174)"/>
<path d="M0.210461 22.1348C1.77815 31.4239 10.2015 38.5136 19.748 38.771C28.5926 39.0284 34.2316 33.8807 36.5714 28.8735C38.5368 24.5448 38.7708 19.6312 37.2031 15.1387V15.1153C37.2031 15.0919 37.2031 15.0919 37.2031 15.0919V15.1153C37.9285 19.8418 35.5185 24.4044 31.7747 27.493V27.5164C24.4745 33.4596 17.4784 31.0964 16.0745 30.137C15.9809 30.0902 15.8873 30.0434 15.7703 29.9966C11.5118 27.961 9.75696 24.0769 10.1313 20.7543C8.07228 20.7777 6.17702 19.5844 5.31129 17.7125C7.58092 16.3086 10.4121 16.215 12.7987 17.4084C15.2088 18.5081 17.9464 18.6017 20.45 17.7125C20.45 17.5487 16.8934 16.1449 15.5129 14.7878C14.7642 14.0624 14.4132 13.7114 14.109 13.4541C13.9452 13.3137 13.7581 13.1733 13.5943 13.0563C13.4773 12.9627 13.3369 12.8925 13.1731 12.7755C11.699 11.8162 8.72743 11.863 8.63384 11.863C7.8383 10.8334 7.88509 7.46409 7.93189 6.76215C7.69791 6.85574 7.46393 6.97273 7.25334 7.11312C6.55139 7.62788 5.87284 8.18944 5.26449 8.82119C4.56254 9.52314 3.93079 10.2953 3.34583 11.0908C2.01213 12.9861 1.0762 15.0919 0.584833 17.2914C0.584833 17.3382 -0.140513 20.4969 0.210461 22.1348Z" fill="url(#paint7_radial_1721_1174)"/>
<path d="M27.5632 14.1091C28.3119 14.8344 28.9437 15.6768 29.4584 16.5893C29.5754 16.6829 29.669 16.7531 29.7626 16.8467C34.3721 21.1052 31.962 27.1185 31.7749 27.5397C35.5186 24.4511 37.9286 19.8885 37.2033 15.162C34.9102 9.42942 31.0027 7.11299 27.8205 2.05897C27.6568 1.80158 27.493 1.5442 27.3526 1.28682C27.259 1.12303 27.1888 0.982645 27.1186 0.865653C26.9782 0.608272 26.8846 0.327493 26.8144 0.070112C26.8144 0.0467137 26.791 0.0233154 26.7676 0.0233154C26.7442 0.0233154 26.7442 0.0233154 26.7208 0.0233154C26.7208 0.0233154 26.7208 0.0233154 26.6974 0.0233154C25.9019 0.397688 21.2222 7.79154 27.5632 14.1091Z" fill="url(#paint8_radial_1721_1174)"/>
<path d="M29.7626 16.8234C29.6691 16.7532 29.5755 16.6596 29.4585 16.5661C29.4117 16.5427 29.3649 16.4959 29.3415 16.4725C27.9142 15.4897 26.1593 15.0452 24.4278 15.2791C31.7515 18.9293 29.786 31.5409 19.6312 31.073C18.7187 31.0262 17.8295 30.8624 16.9872 30.5582C16.7766 30.488 16.5894 30.3944 16.3788 30.3242C16.2618 30.2774 16.1449 30.2306 16.0279 30.1604H16.0513C17.4552 31.1198 24.4512 33.483 31.7515 27.5398V27.5164C31.9621 27.0953 34.3721 21.0819 29.7626 16.8234Z" fill="url(#paint9_radial_1721_1174)"/>
<path d="M11.2311 23.4919C11.2311 23.4919 12.167 19.9821 17.9698 19.9821C18.6015 19.9821 20.3798 18.2272 20.4266 17.7359C17.9464 18.6484 15.1854 18.5314 12.7754 17.4317C10.3888 16.215 7.55757 16.332 5.28793 17.7359C6.15367 19.6077 8.04893 20.8011 10.108 20.7777C9.7336 24.1002 11.4885 27.9843 15.747 30.02C15.8406 30.0668 15.9341 30.1136 16.0277 30.1604C13.5475 28.8735 11.4885 26.44 11.2311 23.4919Z" fill="url(#paint10_radial_1721_1174)"/>
<path d="M39.2155 14.0859C38.3264 11.9566 36.5481 9.66361 35.1208 8.93826C36.127 10.8803 36.8289 12.9628 37.1799 15.1154V15.1388C34.8869 9.40623 30.9794 7.0898 27.7972 2.05917C27.6334 1.80179 27.4696 1.54441 27.3292 1.28703C27.2356 1.12324 27.1654 0.98285 27.0952 0.865858C26.9549 0.608477 26.8613 0.327698 26.7911 0.0703169C26.7911 0.0469186 26.7677 0.0235203 26.7443 0.0235203C26.7209 0.0235203 26.7209 0.0235203 26.6975 0.0235203C26.6975 0.0235203 26.6975 0.0235203 26.6741 0.0235203V0.00012207C21.5732 2.9951 19.8418 8.54049 19.678 11.3015C19.912 11.2781 20.146 11.2547 20.4033 11.2547C24.1003 11.2547 27.493 13.2435 29.3181 16.4725C27.8908 15.4898 26.1359 15.0452 24.4044 15.2792C31.7281 18.9293 29.7626 31.541 19.6078 31.073C18.6953 31.0262 17.8061 30.8624 16.9638 30.5583C16.7532 30.4881 16.566 30.3945 16.3554 30.3243C16.2384 30.2775 16.1215 30.2307 16.0045 30.1605H16.0279C15.9343 30.1137 15.8407 30.0669 15.7237 30.0201C15.8173 30.0669 15.9109 30.1137 16.0045 30.1605C13.5476 28.8736 11.4886 26.4402 11.2312 23.492C11.2312 23.492 12.1671 19.9822 17.9699 19.9822C18.6017 19.9822 20.3799 18.2274 20.4267 17.736C20.4267 17.5722 16.8702 16.1683 15.4897 14.8112C14.741 14.0859 14.39 13.7349 14.0858 13.4775C13.922 13.3371 13.7348 13.1967 13.571 13.0798C13.1031 11.4653 13.0797 9.7338 13.5242 8.09592C11.6524 9.00846 9.9677 10.2954 8.634 11.8864C7.83846 10.8569 7.88526 7.48757 7.93205 6.78562C7.69807 6.87921 7.46409 6.99621 7.2535 7.1366C6.55156 7.65136 5.87301 8.21292 5.26465 8.84467C4.5627 9.54662 3.93095 10.3188 3.36939 11.1377C2.01229 12.9862 1.07636 15.092 0.584996 17.2914L0.561598 17.4318C0.514801 17.619 0.351013 18.5316 0.327615 18.7187C0.327615 18.6953 0.327615 18.7421 0.327615 18.7187C0.163827 19.6547 0.070234 20.614 0.0234375 21.5499V21.6435C0.0234375 32.8981 9.14876 42 20.4033 41.9766C30.3008 41.9766 38.771 34.8401 40.4557 25.0831C40.4791 24.8257 40.5258 24.5683 40.5492 24.2875C40.947 20.848 40.5025 17.3382 39.2155 14.0859Z" fill="url(#paint11_linear_1721_1174)"/>
<defs>
<linearGradient id="paint0_linear_1721_1174" x1="36.5187" y1="6.50475" x2="2.72425" y2="39.11" gradientUnits="userSpaceOnUse">
<stop offset="0.048" stop-color="#FFF44F"/>
<stop offset="0.111" stop-color="#FFE847"/>
<stop offset="0.225" stop-color="#FFC830"/>
<stop offset="0.368" stop-color="#FF980E"/>
<stop offset="0.401" stop-color="#FF8B16"/>
<stop offset="0.462" stop-color="#FF672A"/>
<stop offset="0.534" stop-color="#FF3647"/>
<stop offset="0.705" stop-color="#E31587"/>
</linearGradient>
<radialGradient id="paint1_radial_1721_1174" cx="0" cy="0" r="1" gradientUnits="userSpaceOnUse" gradientTransform="translate(34.9598 4.66165) scale(42.4392 42.4391)">
<stop offset="0.129" stop-color="#FFBD4F"/>
<stop offset="0.186" stop-color="#FFAC31"/>
<stop offset="0.247" stop-color="#FF9D17"/>
<stop offset="0.283" stop-color="#FF980E"/>
<stop offset="0.403" stop-color="#FF563B"/>
<stop offset="0.467" stop-color="#FF3750"/>
<stop offset="0.71" stop-color="#F5156C"/>
<stop offset="0.782" stop-color="#EB0878"/>
<stop offset="0.86" stop-color="#E50080"/>
</radialGradient>
<radialGradient id="paint2_radial_1721_1174" cx="0" cy="0" r="1" gradientUnits="userSpaceOnUse" gradientTransform="translate(19.4522 22.012) scale(42.4392 42.4391)">
<stop offset="0.3" stop-color="#960E18"/>
<stop offset="0.351" stop-color="#B11927" stop-opacity="0.74"/>
<stop offset="0.435" stop-color="#DB293D" stop-opacity="0.343"/>
<stop offset="0.497" stop-color="#F5334B" stop-opacity="0.094"/>
<stop offset="0.53" stop-color="#FF3750" stop-opacity="0"/>
</radialGradient>
<radialGradient id="paint3_radial_1721_1174" cx="0" cy="0" r="1" gradientUnits="userSpaceOnUse" gradientTransform="translate(24.5689 -4.96929) scale(30.7442 30.7442)">
<stop offset="0.132" stop-color="#FFF44F"/>
<stop offset="0.252" stop-color="#FFDC3E"/>
<stop offset="0.506" stop-color="#FF9D12"/>
<stop offset="0.526" stop-color="#FF980E"/>
</radialGradient>
<radialGradient id="paint4_radial_1721_1174" cx="0" cy="0" r="1" gradientUnits="userSpaceOnUse" gradientTransform="translate(14.7579 33.0974) scale(20.2072 20.2071)">
<stop offset="0.353" stop-color="#3A8EE6"/>
<stop offset="0.472" stop-color="#5C79F0"/>
<stop offset="0.669" stop-color="#9059FF"/>
<stop offset="1" stop-color="#C139E6"/>
</radialGradient>
<radialGradient id="paint5_radial_1721_1174" cx="0" cy="0" r="1" gradientUnits="userSpaceOnUse" gradientTransform="translate(21.7711 18.5338) rotate(-13.5916) scale(10.7137 12.5431)">
<stop offset="0.206" stop-color="#9059FF" stop-opacity="0"/>
<stop offset="0.278" stop-color="#8C4FF3" stop-opacity="0.064"/>
<stop offset="0.747" stop-color="#7716A8" stop-opacity="0.45"/>
<stop offset="0.975" stop-color="#6E008B" stop-opacity="0.6"/>
</radialGradient>
<radialGradient id="paint6_radial_1721_1174" cx="0" cy="0" r="1" gradientUnits="userSpaceOnUse" gradientTransform="translate(18.9163 2.92521) scale(14.537 14.537)">
<stop stop-color="#FFE226"/>
<stop offset="0.121" stop-color="#FFDB27"/>
<stop offset="0.295" stop-color="#FFC82A"/>
<stop offset="0.502" stop-color="#FFA930"/>
<stop offset="0.732" stop-color="#FF7E37"/>
<stop offset="0.792" stop-color="#FF7139"/>
</radialGradient>
<radialGradient id="paint7_radial_1721_1174" cx="0" cy="0" r="1" gradientUnits="userSpaceOnUse" gradientTransform="translate(30.3427 -6.29531) scale(62.0228 62.0228)">
<stop offset="0.113" stop-color="#FFF44F"/>
<stop offset="0.456" stop-color="#FF980E"/>
<stop offset="0.622" stop-color="#FF5634"/>
<stop offset="0.716" stop-color="#FF3647"/>
<stop offset="0.904" stop-color="#E31587"/>
</radialGradient>
<radialGradient id="paint8_radial_1721_1174" cx="0" cy="0" r="1" gradientUnits="userSpaceOnUse" gradientTransform="translate(25.1154 -2.84654) rotate(83.976) scale(45.458 29.8337)">
<stop stop-color="#FFF44F"/>
<stop offset="0.06" stop-color="#FFE847"/>
<stop offset="0.168" stop-color="#FFC830"/>
<stop offset="0.304" stop-color="#FF980E"/>
<stop offset="0.356" stop-color="#FF8B16"/>
<stop offset="0.455" stop-color="#FF672A"/>
<stop offset="0.57" stop-color="#FF3647"/>
<stop offset="0.737" stop-color="#E31587"/>
</radialGradient>
<radialGradient id="paint9_radial_1721_1174" cx="0" cy="0" r="1" gradientUnits="userSpaceOnUse" gradientTransform="translate(18.574 8.3099) scale(38.7219)">
<stop offset="0.137" stop-color="#FFF44F"/>
<stop offset="0.48" stop-color="#FF980E"/>
<stop offset="0.592" stop-color="#FF5634"/>
<stop offset="0.655" stop-color="#FF3647"/>
<stop offset="0.904" stop-color="#E31587"/>
</radialGradient>
<radialGradient id="paint10_radial_1721_1174" cx="0" cy="0" r="1" gradientUnits="userSpaceOnUse" gradientTransform="translate(28.7954 10.5759) scale(42.3808 42.3808)">
<stop offset="0.094" stop-color="#FFF44F"/>
<stop offset="0.231" stop-color="#FFE141"/>
<stop offset="0.509" stop-color="#FFAF1E"/>
<stop offset="0.626" stop-color="#FF980E"/>
</radialGradient>
<linearGradient id="paint11_linear_1721_1174" x1="36.1131" y1="6.33085" x2="7.35744" y2="35.086" gradientUnits="userSpaceOnUse">
<stop offset="0.167" stop-color="#FFF44F" stop-opacity="0.8"/>
<stop offset="0.266" stop-color="#FFF44F" stop-opacity="0.634"/>
<stop offset="0.489" stop-color="#FFF44F" stop-opacity="0.217"/>
<stop offset="0.6" stop-color="#FFF44F" stop-opacity="0"/>
</linearGradient>
</defs>
</svg>
