<svg width="416" height="86" viewBox="0 0 416 86" fill="none" xmlns="http://www.w3.org/2000/svg">
<path fill-rule="evenodd" clip-rule="evenodd" d="M43.0345 14.5171C39.9876 14.5171 37.5175 16.9853 37.5175 20.0299C37.5175 23.0746 39.9876 25.5428 43.0345 25.5428C46.0817 25.5428 48.5519 23.0746 48.5519 20.0299C48.5519 16.9853 46.0817 14.5171 43.0345 14.5171ZM30.161 20.0299C30.161 12.9257 35.9248 7.16667 43.0345 7.16667C50.1445 7.16667 55.9082 12.9257 55.9082 20.0299C55.9082 27.1341 50.1445 32.8932 43.0345 32.8932C40.8175 32.8932 38.7314 32.3331 36.91 31.347L31.3721 36.8804C31.7901 37.6512 32.1315 38.4692 32.3864 39.3246H53.6826C55.2652 34.0114 60.1913 30.1368 66.0228 30.1368C73.1328 30.1368 78.8965 35.896 78.8965 43C78.8965 50.1043 73.1328 55.8635 66.0228 55.8635C63.8058 55.8635 61.7197 55.3034 59.8983 54.3172L54.3608 59.8503C55.3477 61.6702 55.9082 63.7547 55.9082 65.9699C55.9082 73.0742 50.1445 78.8333 43.0345 78.8333C35.9248 78.8333 30.161 73.0742 30.161 65.9699C30.161 58.8659 35.9248 53.1068 43.0345 53.1068C45.2515 53.1068 47.3376 53.6669 49.159 54.653L54.6968 49.1196C54.2787 48.3488 53.9373 47.5308 53.6823 46.6751H32.3865C30.8039 51.9888 25.8778 55.8635 20.046 55.8635C12.9361 55.8635 7.17241 50.1043 7.17241 43C7.17241 35.896 12.9361 30.1368 20.046 30.1368C22.263 30.1368 24.349 30.6968 26.1703 31.6829L31.7083 26.1494C30.7214 24.3295 30.161 22.2451 30.161 20.0299ZM37.5175 65.9699C37.5175 62.9255 39.9876 60.4573 43.0345 60.4573C46.0817 60.4573 48.5519 62.9255 48.5519 65.9699C48.5519 69.0146 46.0817 71.4828 43.0345 71.4828C39.9876 71.4828 37.5175 69.0146 37.5175 65.9699ZM20.046 37.4874C16.9989 37.4874 14.5287 39.9556 14.5287 43C14.5287 46.0448 16.9989 48.513 20.046 48.513C23.0931 48.513 25.5632 46.0448 25.5632 43C25.5632 39.9556 23.0931 37.4874 20.046 37.4874ZM60.5058 43C60.5058 39.9556 62.9759 37.4874 66.0228 37.4874C69.07 37.4874 71.5402 39.9556 71.5402 43C71.5402 46.0448 69.07 48.513 66.0228 48.513C62.9759 48.513 60.5058 46.0448 60.5058 43Z" fill="black"/>
<path d="M104.717 57.3333H111.441V32.6621L123.599 55.1833L135.81 32.6621V57.3333H142.48V20.4071H135.81L123.599 42.9283L111.441 20.4071H104.717V57.3333ZM163.905 57.9783C171.974 57.9783 178.805 51.3133 178.805 43.4121C178.805 35.5108 171.974 28.8996 163.905 28.8996C155.836 28.8996 149.004 35.5108 149.004 43.4121C149.004 51.3133 155.836 57.9783 163.905 57.9783ZM163.905 52.3883C159.279 52.3883 155.405 48.3033 155.405 43.4121C155.405 38.5746 159.279 34.4896 163.905 34.4896C168.477 34.4896 172.35 38.5746 172.35 43.4121C172.35 48.3033 168.477 52.3883 163.905 52.3883ZM183.368 57.3333H206.875V51.5821H191.921L206.714 34.3283L206.768 29.5446H183.691V35.2958H198.107L183.368 52.5496V57.3333ZM216.148 25.3521C218.192 25.3521 219.859 23.5783 219.859 21.5896C219.859 19.6008 218.192 17.8808 216.148 17.8808C214.05 17.8808 212.382 19.6008 212.382 21.5896C212.382 23.5783 214.05 25.3521 216.148 25.3521ZM212.812 57.3333H219.375V29.5446H212.812V57.3333ZM226.629 57.3333H233.191V19.7621H226.629V57.3333ZM240.444 57.3333H247.007V19.7621H240.444V57.3333ZM266.364 28.8996C262.867 28.8996 259.209 29.8671 255.282 31.8021L257.542 36.3708C259.909 35.1883 262.437 34.2746 265.073 34.2746C270.129 34.2746 271.904 37.3921 271.904 40.6171V41.3696C269.376 40.4021 266.633 39.8646 264.104 39.8646C257.864 39.8646 252.754 43.6271 252.754 49.1096C252.754 54.4846 257.219 57.9783 263.136 57.9783C266.364 57.9783 269.86 56.5808 271.904 54.0008V57.3333H278.306V40.6171C278.306 33.5758 273.733 28.8996 266.364 28.8996ZM264.589 53.1946C261.469 53.1946 259.155 51.5283 259.155 48.8946C259.155 46.2608 261.791 44.4333 265.073 44.4333C267.547 44.4333 269.86 44.8096 271.904 45.5083V48.6258C271.151 51.5821 267.762 53.1946 264.589 53.1946ZM328.995 20.4071L317.268 48.4108L305.542 20.4071H298.118L313.557 57.3333H321.034L336.473 20.4071H328.995ZM341.364 57.3333H348.088V44.9171H357.448C365.356 44.9171 371.273 39.8646 371.273 32.6621C371.273 25.4596 365.356 20.4071 357.448 20.4071H341.364V57.3333ZM348.088 38.7358V26.5883H356.695C361.267 26.5883 364.441 28.8996 364.441 32.6621C364.441 36.4246 361.267 38.7358 356.695 38.7358H348.088ZM377.047 57.3333H383.771V31.3721L403.298 57.3333H409.968V20.4071H403.298V46.3683L383.771 20.4071H377.047V57.3333Z" fill="black"/>
</svg>
