<svg width="305" height="214" viewBox="0 0 305 214" fill="none" xmlns="http://www.w3.org/2000/svg">
<path d="M152.43 207.156L177.638 194.702C192.964 187.129 205.851 175.401 214.834 160.857C223.815 146.312 228.527 129.536 228.433 112.441L228.07 43.6999C228.06 42.0852 227.571 40.5098 226.662 39.1748C225.754 37.8397 224.468 36.8055 222.97 36.2045L151.365 7.41699H150.33L79.0136 36.9806C77.5222 37.5987 76.2487 38.647 75.3557 39.992C74.4628 41.3368 73.9909 42.9171 74.0001 44.5315L74.3634 113.28C74.4575 130.374 79.3524 147.097 88.4899 161.544C97.6273 175.991 110.64 187.58 126.044 194.991L151.388 207.18L152.43 207.156Z" fill="white"/>
<path d="M153.412 186.757L173.541 176.81C185.778 170.764 196.07 161.399 203.242 149.784C210.413 138.169 214.174 124.774 214.099 111.124L213.784 51.8733L152.939 27.3888C152.69 27.2886 152.424 27.2371 152.155 27.2371C151.88 27.2371 151.606 27.2915 151.352 27.3971L90.7626 52.5201L91.0766 111.776C91.1515 125.428 95.0597 138.782 102.356 150.319C109.652 161.857 120.042 171.113 132.343 177.033L152.581 186.764L153.412 186.757Z" fill="#53FFBC" stroke="black" stroke-width="1.5" stroke-miterlimit="10"/>
<path d="M152.432 64.6798C141.567 64.6798 132.76 73.487 132.76 84.3512V104.595H140.872V84.3512C140.872 77.9774 146.057 72.7918 152.432 72.7918C158.806 72.7918 163.992 77.9774 163.992 84.3512V104.595H172.104V84.3512C172.104 73.6551 163.465 64.6798 152.432 64.6798Z" fill="white" stroke="black" stroke-width="1.5" stroke-miterlimit="10"/>
<path d="M173.889 94.3783H130.969C127.019 94.3783 123.816 97.5809 123.816 101.532V131.039C123.816 134.99 127.019 138.192 130.969 138.192H173.889C177.84 138.192 181.043 134.99 181.043 131.039V101.532C181.043 97.5809 177.84 94.3783 173.889 94.3783Z" fill="white" stroke="black" stroke-width="1.5"/>
<path d="M158.606 112.169C158.605 113.212 158.34 114.237 157.835 115.15C157.33 116.064 156.602 116.833 155.719 117.389V121.762C155.692 122.619 155.333 123.43 154.717 124.025C154.101 124.62 153.279 124.954 152.422 124.954C151.567 124.954 150.744 124.62 150.128 124.025C149.513 123.43 149.154 122.619 149.124 121.762V117.389C148.22 116.814 147.479 116.014 146.976 115.066C146.473 114.119 146.227 113.055 146.26 111.984C146.294 110.91 146.605 109.867 147.166 108.951C147.725 108.037 148.514 107.283 149.455 106.766C150.393 106.249 151.452 105.985 152.525 106.001C153.597 106.017 154.647 106.313 155.571 106.858C156.494 107.403 157.26 108.18 157.792 109.111C158.324 110.043 158.605 111.097 158.606 112.169Z" fill="#53FFBC" stroke="black" stroke-width="1.5" stroke-miterlimit="10"/>
<path d="M249.907 30.8255C250.424 28.6311 249.065 26.4325 246.872 25.9147C244.676 25.3967 242.479 26.7556 241.96 28.95C241.441 31.1443 242.801 33.3436 244.995 33.8616C247.19 34.3796 249.388 33.0199 249.907 30.8255Z" stroke="white" stroke-width="1.6" stroke-miterlimit="10"/>
<path d="M227.323 10V18.643" stroke="white" stroke-width="1.6" stroke-miterlimit="10" stroke-linecap="round"/>
<path d="M223 14.318H231.65" stroke="white" stroke-width="1.6" stroke-miterlimit="10" stroke-linecap="round"/>
</svg>
