<?xml version="1.0" encoding="utf-8"?>
<!-- Generator: Adobe Illustrator 26.3.1, SVG Export Plug-In . SVG Version: 6.00 Build 0)  -->
<svg version="1.1" id="Layer_1" xmlns="http://www.w3.org/2000/svg" xmlns:xlink="http://www.w3.org/1999/xlink" x="0px" y="0px"
	 viewBox="0 0 1650 810" style="enable-background:new 0 0 1650 810;" xml:space="preserve">
<style type="text/css">
	.st0{fill:url(#SVGID_1_);}

		.st1{clip-path:url(#SVGID_00000074413891280977973100000010643246225153259672_);fill:url(#SVGID_00000110432056244726980750000002954205896140058301_);}

		.st2{clip-path:url(#SVGID_00000074413891280977973100000010643246225153259672_);fill:url(#SVGID_00000095309786636785060530000005998015053249046197_);}

		.st3{clip-path:url(#SVGID_00000074413891280977973100000010643246225153259672_);fill:url(#SVGID_00000179613170583592455480000009713234644544293782_);}

		.st4{clip-path:url(#SVGID_00000074413891280977973100000010643246225153259672_);fill:url(#SVGID_00000072254729757436417810000005347794867622866879_);}
</style>
<radialGradient id="SVGID_1_" cx="-133.9254" cy="945.9145" r="1" gradientTransform="matrix(1795.3101 0 0 -1566.8101 242058.9844 1482086.375)" gradientUnits="userSpaceOnUse">
	<stop  offset="2.300000e-04" style="stop-color:#45278D"/>
	<stop  offset="0.8536" style="stop-color:#20123A"/>
</radialGradient>
<path class="st0" d="M1650,0H0v810h1650V0z"/>
<g>
	<defs>
		<path id="SVGID_00000011013715402145556560000014191673115021661113_" d="M1650,0H0v810h1650V0z"/>
	</defs>
	<clipPath id="SVGID_00000001651018361906771970000013740233891267943094_">
		<use xlink:href="#SVGID_00000011013715402145556560000014191673115021661113_"  style="overflow:visible;"/>
	</clipPath>

		<linearGradient id="SVGID_00000106833813447368810670000007774872010339046313_" gradientUnits="userSpaceOnUse" x1="172.1163" y1="620.7347" x2="-275.9096" y2="-6.0662" gradientTransform="matrix(1 0 0 -1 0 812)">
		<stop  offset="0" style="stop-color:#B833E1"/>
		<stop  offset="0.7378" style="stop-color:#7542E5"/>
	</linearGradient>

		<path style="clip-path:url(#SVGID_00000001651018361906771970000013740233891267943094_);fill:url(#SVGID_00000106833813447368810670000007774872010339046313_);" d="
		M-487.4,598.8l431.9-110.6L55,920.3c32.8,128.1,163.1,205.3,291.1,172.5h0c128-32.8,205.2-163.2,172.4-291.3l-169.9-664v0
		C315.8,9.5,185.5-67.8,57.5-35l0,0l-663.6,170c-128,32.8-205.2,163.2-172.4,291.3l0,0C-745.7,554.4-615.4,631.6-487.4,598.8z"/>

		<linearGradient id="SVGID_00000141446170747842653260000011713214498153144212_" gradientUnits="userSpaceOnUse" x1="758.5454" y1="681.9762" x2="1981.8214" y2="334.4232" gradientTransform="matrix(1 0 0 -1 0 812)">
		<stop  offset="0.3281" style="stop-color:#FF2A8A"/>
		<stop  offset="0.6562" style="stop-color:#FF9640"/>
	</linearGradient>

		<path style="clip-path:url(#SVGID_00000001651018361906771970000013740233891267943094_);fill:url(#SVGID_00000141446170747842653260000011713214498153144212_);" d="
		M4200.7-321.1c-88.9,362.3-454.4,583.9-816.5,494.9c-361.5-88.8-727.7,133.2-816.5,494.9c-88.7,361.7,133.1,728.2,494.6,817
		c362,88.9,583.5,454.7,494.6,817c-88.9,362.3-454.4,583.9-816.5,494.9c-265.2-65.2-510-180.6-727.7-343
		c-209.9-156.7-385.4-350.2-521.5-575s-226.2-470-267.8-728.8c-43.1-268.3-31.9-538.9,33.2-804.2
		c65.1-265.4,180.4-510.4,342.8-728.2c156.6-210.1,349.9-385.7,574.6-521.9c224.7-136.2,469.7-226.4,728.3-268
		c268.1-43.1,538.5-32,803.7,33.2C4068.2-1049.2,4289.6-683.4,4200.7-321.1z"/>

		<linearGradient id="SVGID_00000006680858604739448170000007879135219371312812_" gradientUnits="userSpaceOnUse" x1="328.777" y1="1116.511" x2="1232.63" y2="1116.511" gradientTransform="matrix(1 0 0 -1 0 812)">
		<stop  offset="0" style="stop-color:#FFDE67"/>
		<stop  offset="1" style="stop-color:#FF9640"/>
	</linearGradient>

		<path style="clip-path:url(#SVGID_00000001651018361906771970000013740233891267943094_);fill:url(#SVGID_00000006680858604739448170000007879135219371312812_);" d="
		M780.7,147.7c249.6,0,451.9-202.5,451.9-452.2s-202.3-452.2-451.9-452.2c-249.6,0-451.9,202.5-451.9,452.2S531.1,147.7,780.7,147.7
		z"/>

		<linearGradient id="SVGID_00000005253702214741031760000009825116110155391147_" gradientUnits="userSpaceOnUse" x1="97.8815" y1="-36.5638" x2="952.3095" y2="79.5272" gradientTransform="matrix(1 0 0 -1 0 812)">
		<stop  offset="0.4698" style="stop-color:#5D37B5"/>
		<stop  offset="0.9997" style="stop-color:#3F2879"/>
	</linearGradient>

		<path style="clip-path:url(#SVGID_00000001651018361906771970000013740233891267943094_);fill:url(#SVGID_00000005253702214741031760000009825116110155391147_);" d="
		M720.4,523.2L-25.8,640.1C-151.8,659.8-237.9,778-218.1,904c19.7,126,137.8,212.2,263.7,192.5l746.2-116.9
		c125.9-19.7,212-137.9,192.3-263.9C964.4,589.7,846.3,503.5,720.4,523.2z"/>
</g>
</svg>
