<svg width="286" height="360" viewBox="0 0 286 360" fill="none" xmlns="http://www.w3.org/2000/svg">
<g clip-path="url(#clip0_409_409)">
<path d="M252.323 -45.8005C252.369 -45.7883 252.415 -45.776 252.461 -45.7637C262.242 -43.1063 270.566 -36.6635 275.56 -27.8654L373.033 143.729C383.345 161.901 376.943 184.922 358.717 195.141C340.499 205.375 317.359 198.943 307.036 180.769L228.478 42.4586L89.4895 122.673C71.3864 133.12 48.176 126.95 37.6436 108.915C27.1028 90.8651 33.2297 67.7702 51.3297 57.3337L223.479 -42.028C232.19 -47.0563 242.579 -48.4115 252.323 -45.8005Z" stroke="#FFCB0D" stroke-width="3" stroke-miterlimit="10"/>
<path d="M320.913 609.95C310.359 603.856 301.206 594.976 294.698 583.664L100.659 246.647C80.9065 212.348 92.7119 168.51 127.011 148.758C161.329 129.017 205.147 140.811 224.919 175.121L418.949 512.108C438.702 546.407 426.916 590.256 392.586 610.016C369.61 623.242 342.334 622.317 320.913 609.95Z" stroke="#FD3D8A" stroke-width="3" stroke-miterlimit="10"/>
<path d="M150.863 481.87C277.358 574.635 455.722 547.196 548.487 420.701C570.735 390.365 564.166 347.761 533.846 325.526C503.526 303.291 460.906 309.848 438.671 340.168C390.313 406.109 297.338 420.412 231.397 372.054C165.456 323.696 151.153 230.722 199.511 164.78C221.746 134.461 215.189 91.84 184.869 69.6051C154.55 47.3702 111.929 53.9268 89.6942 84.2465C-3.07057 210.741 24.3855 389.118 150.863 481.87Z" stroke="#27AAE1" stroke-width="3" stroke-miterlimit="10"/>
</g>
<defs>
<clipPath id="clip0_409_409">
<rect width="291" height="360" fill="white"/>
</clipPath>
</defs>
</svg>
