<?xml version="1.0" encoding="utf-8"?>
<!-- Generator: Adobe Illustrator 22.1.0, SVG Export Plug-In . SVG Version: 6.00 Build 0)  -->
<svg version="1.1" id="Layer_1" xmlns="http://www.w3.org/2000/svg" xmlns:xlink="http://www.w3.org/1999/xlink" x="0px" y="0px"
	 viewBox="0 0 281 360" style="enable-background:new 0 0 281 360;" xml:space="preserve">
<style type="text/css">
	.st0{clip-path:url(#SVGID_2_);}
	.st1{fill:none;stroke:#27AAE1;stroke-width:3;stroke-miterlimit:10;}
	.st2{fill:none;stroke:#FFCB0D;stroke-width:3;stroke-miterlimit:10;}
	.st3{fill:none;stroke:#FD3D8A;stroke-width:3;stroke-miterlimit:10;}
</style>
<g>
	<defs>
		<rect id="SVGID_1_" x="1" width="280" height="360"/>
	</defs>
	<clipPath id="SVGID_2_">
		<use xlink:href="#SVGID_1_"  style="overflow:visible;"/>
	</clipPath>
	<g class="st0">
		<path class="st1" d="M124.2-24.1c-21.4,79.9,26.2,162.3,106.1,183.7c19.2,5.1,38.8-6.2,44-25.4c5.1-19.2-6.2-38.8-25.4-44
			c-41.6-11.2-66.4-54.1-55.3-95.8c11.2-41.6,54.1-66.5,95.8-55.3c19.1,5.1,38.8-6.2,44-25.4c5.1-19.2-6.2-38.8-25.4-44
			C228-151.5,145.6-103.9,124.2-24.1z"/>
		<path class="st2" d="M254,299.5c0,0,0,0.1,0,0.1c0,10.4-4.2,20.3-11.6,27.6L98,468.9c-15.3,15-39.9,14.8-54.8-0.5
			c-15-15.3-14.8-39.8,0.5-54.8L160,299.3L43.4,183.3c-15.2-15.1-15.2-39.7-0.1-54.8c15.1-15.2,39.7-15.2,54.8-0.1L242.6,272
			C249.9,279.3,254,289.2,254,299.5z"/>
		<path class="st3" d="M-135,353.1c0-13.1,3.3-26.3,10.3-38.4L83.9-45.7c21.2-36.7,68.2-49.2,104.8-28c36.7,21.3,49.2,68.2,28,104.9
			L8.2,391.7c-21.2,36.7-68.2,49.2-104.9,28C-121.3,405.4-135,379.6-135,353.1z"/>
	</g>
</g>
</svg>
