<svg xmlns="http://www.w3.org/2000/svg" width="668" height="360" fill="none" viewBox="0 0 668 360"><path fill="#fff" d="M307.31 126.582v-20.61h3.75l6.78 12.57 6.81-12.57h3.72v20.61h-3.72v-13.77l-6.81 12.57-6.78-12.57v13.77h-3.75Zm32.709.36c-4.5 0-8.31-3.72-8.31-8.13s3.81-8.1 8.31-8.1 8.31 3.69 8.31 8.1-3.81 8.13-8.31 8.13Zm0-3.12c2.55 0 4.71-2.28 4.71-5.01 0-2.7-2.16-4.98-4.71-4.98-2.58 0-4.74 2.28-4.74 4.98 0 2.73 2.16 5.01 4.74 5.01Zm14.934-9.75c.99-2.07 3-3.36 5.55-3.36v3.12c-3.33 0-5.55 1.98-5.55 4.92v7.83h-3.66v-15.51h3.66v3Zm15.192 9.63c1.44 0 3.15-.66 4.02-1.56l2.31 2.4c-1.35 1.44-4.05 2.4-6.3 2.4-4.44 0-8.1-3.39-8.1-8.16 0-4.65 3.48-8.07 7.89-8.07 4.8 0 7.59 3.63 7.59 9.36h-11.7c.45 2.13 2.07 3.63 4.29 3.63Zm-.03-9.75c-2.04 0-3.69 1.29-4.23 3.33h8.16c-.42-1.95-1.74-3.33-3.93-3.33Zm26.248 12.96c-3.54 0-6.54-1.2-8.82-3.33l2.16-2.67c1.89 1.71 4.08 2.79 6.78 2.79 2.55 0 3.87-1.26 3.87-2.73 0-1.71-1.47-2.28-4.77-3.06-4.26-.99-7.23-2.22-7.23-6.09 0-3.6 3.06-6.24 7.41-6.24 3.27 0 5.73 1.11 7.8 2.88l-2.04 2.76c-1.8-1.56-3.87-2.43-5.91-2.43-2.07 0-3.48 1.26-3.48 2.7 0 1.68 1.53 2.28 4.8 3.03 4.29.96 7.17 2.34 7.17 6.09 0 3.69-2.82 6.3-7.74 6.3Zm17.97-3.21c1.44 0 3.15-.66 4.02-1.56l2.31 2.4c-1.35 1.44-4.05 2.4-6.3 2.4-4.44 0-8.1-3.39-8.1-8.16 0-4.65 3.48-8.07 7.89-8.07 4.8 0 7.59 3.63 7.59 9.36h-11.7c.45 2.13 2.07 3.63 4.29 3.63Zm-.03-9.75c-2.04 0-3.69 1.29-4.23 3.33h8.16c-.42-1.95-1.74-3.33-3.93-3.33Zm17.782 12.99c-4.47 0-8.28-3.72-8.28-8.13s3.81-8.1 8.34-8.1c2.34 0 4.41.99 5.88 2.52l-2.46 2.16c-.84-.93-2.13-1.56-3.45-1.56-2.55 0-4.68 2.28-4.68 4.98 0 2.73 2.13 5.01 4.68 5.01 1.35 0 2.67-.63 3.54-1.62l2.46 2.13c-1.5 1.59-3.57 2.61-6.03 2.61Zm19.107-15.87h3.66v15.51h-3.66v-2.07c-.96 1.44-2.76 2.43-4.8 2.43-3.39 0-5.76-2.49-5.76-6v-9.87h3.54v9.15c0 2.1 1.35 3.6 3.27 3.6s3.51-1.29 3.75-2.94v-9.81Zm11.143 3c.99-2.07 3-3.36 5.55-3.36v3.12c-3.33 0-5.55 1.98-5.55 4.92v7.83h-3.66v-15.51h3.66v3Zm9.822-5.34c-1.17 0-2.1-.99-2.1-2.1s.93-2.07 2.1-2.07c1.14 0 2.07.96 2.07 2.07 0 1.11-.93 2.1-2.07 2.1Zm-1.86 17.85v-15.51h3.66v15.51h-3.66Zm15.145-3.33 1.05 2.46c-.87.75-2.13 1.23-3.3 1.23-2.58 0-4.38-1.86-4.38-4.47v-8.37h-2.25v-3.03h2.25v-4.26h3.57v4.26h3.51v3.03h-3.51v7.92c0 1.05.66 1.8 1.53 1.8.63 0 1.2-.24 1.53-.57Zm6.741 8.73c-1.17 0-2.46-.3-3.39-.81l.78-2.64c.66.36 1.41.57 1.98.57.87 0 1.53-.27 1.98-1.02l.66-1.38-6.57-15.63h3.87l4.53 11.58 4.26-11.58h3.78l-6.57 16.59c-1.17 2.94-2.97 4.29-5.31 4.32ZM307.31 211.682v-20.61h3.75l6.78 12.57 6.81-12.57h3.72v20.61h-3.72v-13.77l-6.81 12.57-6.78-12.57v13.77h-3.75Zm32.709.36c-4.5 0-8.31-3.72-8.31-8.13s3.81-8.1 8.31-8.1 8.31 3.69 8.31 8.1-3.81 8.13-8.31 8.13Zm0-3.12c2.55 0 4.71-2.28 4.71-5.01 0-2.7-2.16-4.98-4.71-4.98-2.58 0-4.74 2.28-4.74 4.98 0 2.73 2.16 5.01 4.74 5.01Zm14.934-9.75c.99-2.07 3-3.36 5.55-3.36v3.12c-3.33 0-5.55 1.98-5.55 4.92v7.83h-3.66v-15.51h3.66v3Zm15.192 9.63c1.44 0 3.15-.66 4.02-1.56l2.31 2.4c-1.35 1.44-4.05 2.4-6.3 2.4-4.44 0-8.1-3.39-8.1-8.16 0-4.65 3.48-8.07 7.89-8.07 4.8 0 7.59 3.63 7.59 9.36h-11.7c.45 2.13 2.07 3.63 4.29 3.63Zm-.03-9.75c-2.04 0-3.69 1.29-4.23 3.33h8.16c-.42-1.95-1.74-3.33-3.93-3.33Zm26.248 12.96c-3.54 0-6.54-1.2-8.82-3.33l2.16-2.67c1.89 1.71 4.08 2.79 6.78 2.79 2.55 0 3.87-1.26 3.87-2.73 0-1.71-1.47-2.28-4.77-3.06-4.26-.99-7.23-2.22-7.23-6.09 0-3.6 3.06-6.24 7.41-6.24 3.27 0 5.73 1.11 7.8 2.88l-2.04 2.76c-1.8-1.56-3.87-2.43-5.91-2.43-2.07 0-3.48 1.26-3.48 2.7 0 1.68 1.53 2.28 4.8 3.03 4.29.96 7.17 2.34 7.17 6.09 0 3.69-2.82 6.3-7.74 6.3Zm19.89-16.2c4.11 0 7.11 3.36 7.11 8.1 0 4.77-3 8.13-7.11 8.13-2.31 0-4.17-1.05-5.4-2.82v7.62h-3.66v-20.67h3.66v2.46c1.23-1.77 3.09-2.82 5.4-2.82Zm-.99 13.11c2.61 0 4.47-2.1 4.47-5.01 0-2.91-1.86-4.98-4.47-4.98-2.58 0-4.38 2.07-4.38 4.98 0 2.91 1.8 5.01 4.38 5.01Zm18.34-.12c1.44 0 3.15-.66 4.02-1.56l2.31 2.4c-1.35 1.44-4.05 2.4-6.3 2.4-4.44 0-8.1-3.39-8.1-8.16 0-4.65 3.48-8.07 7.89-8.07 4.8 0 7.59 3.63 7.59 9.36h-11.7c.45 2.13 2.07 3.63 4.29 3.63Zm-.03-9.75c-2.04 0-3.69 1.29-4.23 3.33h8.16c-.42-1.95-1.74-3.33-3.93-3.33Zm17.542 9.75c1.44 0 3.15-.66 4.02-1.56l2.31 2.4c-1.35 1.44-4.05 2.4-6.3 2.4-4.44 0-8.1-3.39-8.1-8.16 0-4.65 3.48-8.07 7.89-8.07 4.8 0 7.59 3.63 7.59 9.36h-11.7c.45 2.13 2.07 3.63 4.29 3.63Zm-.03-9.75c-2.04 0-3.69 1.29-4.23 3.33h8.16c-.42-1.95-1.74-3.33-3.93-3.33Zm22.103-8.34h3.66v20.97h-3.66v-2.4c-1.23 1.74-3.09 2.76-5.37 2.76-4.11 0-7.11-3.36-7.11-8.13 0-4.74 3-8.1 7.11-8.1 2.28 0 4.14 1.02 5.37 2.76v-7.86Zm-4.38 18.21c2.58 0 4.38-2.1 4.38-5.01 0-2.91-1.8-4.98-4.38-4.98-2.61 0-4.47 2.07-4.47 4.98 0 2.91 1.86 5.01 4.47 5.01ZM307.31 298.869v-20.61h3.75l6.78 12.57 6.81-12.57h3.72v20.61h-3.72v-13.77l-6.81 12.57-6.78-12.57v13.77h-3.75Zm32.709.36c-4.5 0-8.31-3.72-8.31-8.13s3.81-8.1 8.31-8.1 8.31 3.69 8.31 8.1-3.81 8.13-8.31 8.13Zm0-3.12c2.55 0 4.71-2.28 4.71-5.01 0-2.7-2.16-4.98-4.71-4.98-2.58 0-4.74 2.28-4.74 4.98 0 2.73 2.16 5.01 4.74 5.01Zm14.934-9.75c.99-2.07 3-3.36 5.55-3.36v3.12c-3.33 0-5.55 1.98-5.55 4.92v7.83h-3.66v-15.51h3.66v3Zm15.192 9.63c1.44 0 3.15-.66 4.02-1.56l2.31 2.4c-1.35 1.44-4.05 2.4-6.3 2.4-4.44 0-8.1-3.39-8.1-8.16 0-4.65 3.48-8.07 7.89-8.07 4.8 0 7.59 3.63 7.59 9.36h-11.7c.45 2.13 2.07 3.63 4.29 3.63Zm-.03-9.75c-2.04 0-3.69 1.29-4.23 3.33h8.16c-.42-1.95-1.74-3.33-3.93-3.33Zm34.138-4.56h-11.76v5.22h10.65v3.42h-10.65v8.55h-3.75v-20.61h15.51v3.42Zm13.35 1.68h3.66v15.51h-3.66v-2.07c-.96 1.44-2.76 2.43-4.8 2.43-3.39 0-5.76-2.49-5.76-6v-9.87h3.54v9.15c0 2.1 1.35 3.6 3.27 3.6s3.51-1.29 3.75-2.94v-9.81Zm15.853-.36c3.39 0 5.76 2.49 5.76 6v9.87h-3.54v-9.15c0-2.1-1.35-3.6-3.27-3.6s-3.51 1.29-3.75 2.94v9.81h-3.66v-15.51h3.66v2.07c.96-1.44 2.76-2.43 4.8-2.43Z"/><path fill="#000" stroke="#333336" stroke-width="3" d="M2.177 14.28C2.177 7.498 7.675 2 14.457 2h639.568c6.782 0 12.28 5.498 12.28 12.28v31.885H2.177V14.28Z"/><ellipse cx="30.226" cy="23.635" stroke="#E7E7E7" stroke-width="3" rx="5.537" ry="5.52"/><ellipse cx="51.257" cy="23.635" stroke="#E7E7E7" stroke-width="3" rx="5.537" ry="5.52"/><ellipse cx="72.308" cy="23.635" stroke="#E7E7E7" stroke-width="3" rx="5.537" ry="5.52"/><path fill="#fff" stroke="#333336" stroke-width="3" d="M2.177 46.166h664.128v299.085c0 6.782-5.498 12.279-12.28 12.279H14.457c-6.782 0-12.28-5.497-12.28-12.279V46.166Z"/><path fill="#333336" d="M349.356 114.66V80.31h7.35l10.65 19.4 10.6-19.4h7.4v34.35h-7.4v-21.4l-10.6 19.4-10.65-19.4v21.4h-7.35Zm48.26 9c-2.15 0-4.75-.65-6.5-1.6l1.55-5c1.25.7 2.55 1.15 3.4 1.15 1.4 0 2.5-.45 3.05-1.4l.9-1.9-10.75-26.1h7.55l6.8 18.15 6.45-18.15h7.45l-10.6 27.15c-1.95 5.05-5.25 7.7-9.3 7.7Zm63.744-36.7h-19.05v7.45h17.25v6.65h-17.25v13.6h-7.4V80.31h26.45v6.65Zm8.189-1.7c-2.25 0-4-1.8-4-4 0-2.05 1.75-3.9 4-3.9 2.15 0 3.9 1.85 3.9 3.9 0 2.2-1.75 4-3.9 4Zm-3.7 29.4V88.81h7.3v25.85h-7.3Zm20.473-21.05c1.7-3.35 4.9-5.4 8.85-5.4v6.15c-5.4 0-8.85 3.1-8.85 7.95v12.35h-7.3V88.81h7.3v4.8Zm24.762 15.2c2.05 0 4.55-.95 5.95-2.3l4.65 4.75c-2.3 2.4-6.75 4-10.55 4-7.7 0-13.7-5.65-13.7-13.6 0-7.8 5.75-13.45 13.3-13.45 8.1 0 12.85 6.15 12.85 15.9h-18.65c.85 2.8 3.1 4.7 6.15 4.7Zm-.05-14.15c-2.75 0-5.05 1.6-6 4.2h11.55c-.7-2.55-2.6-4.2-5.55-4.2Zm25.638-7.25v1.4h5.6v5.9h-5.6v19.95h-7V94.71h-3.55v-5.9h3.55v-2.25c0-4.65 3.2-7.9 7.75-7.9 2.1 0 4.45.9 5.95 2.25l-1.75 4.45c-.5-.5-1.5-.85-2.5-.85-1.35 0-2.45 1.2-2.45 2.9Zm22.496 27.85c-7.7 0-14.15-6.2-14.15-13.55 0-7.35 6.45-13.5 14.15-13.5 7.65 0 14.05 6.15 14.05 13.5s-6.4 13.55-14.05 13.55Zm0-6.15c3.85 0 7.1-3.4 7.1-7.4s-3.25-7.35-7.1-7.35c-3.9 0-7.15 3.35-7.15 7.35 0 4 3.25 7.4 7.15 7.4Zm42.839 5.55h-7.85l-5.6-7.8-5.65 7.8h-7.7l9.5-13.15-9.1-12.7h7.9l5.15 7.2 5.2-7.2h7.7l-9.05 12.55 9.5 13.3Z"/><rect width="25.425" height="18.362" x="347.303" y="221.568" stroke="#000" stroke-linecap="round" stroke-linejoin="round" stroke-width="2.083" rx="2.916"/><path stroke="#000" stroke-linecap="round" stroke-linejoin="round" stroke-width="2.083" d="M352.951 221.569v-2.825a7.063 7.063 0 0 1 14.125 0v2.825"/><path fill="#000" fill-rule="evenodd" d="M360.014 231.278a2.114 2.114 0 1 0 0-4.229 2.114 2.114 0 0 0 0 4.229Z" clip-rule="evenodd"/><path fill="#000" fill-rule="evenodd" d="M360.016 234.449a1.432 1.432 0 0 1-1.33-1.963l1.328-3.322 1.33 3.322a1.431 1.431 0 0 1-1.328 1.963Z" clip-rule="evenodd"/><path fill="#000" d="M386.286 233.025v-12.264h2.231l4.034 7.48 4.053-7.48h2.213v12.264h-2.213v-8.193l-4.053 7.479-4.034-7.479v8.193h-2.231Zm19.463.215c-2.678 0-4.945-2.214-4.945-4.838s2.267-4.82 4.945-4.82c2.677 0 4.945 2.196 4.945 4.82s-2.268 4.838-4.945 4.838Zm0-1.857c1.517 0 2.802-1.357 2.802-2.981 0-1.607-1.285-2.964-2.802-2.964-1.535 0-2.821 1.357-2.821 2.964 0 1.624 1.286 2.981 2.821 2.981Zm8.886-5.802c.59-1.231 1.786-1.999 3.303-1.999v1.856c-1.982 0-3.303 1.179-3.303 2.928v4.659h-2.177v-9.229h2.177v1.785Zm9.04 5.731c.857 0 1.875-.393 2.392-.929l1.375 1.428c-.803.857-2.41 1.429-3.749 1.429-2.642 0-4.82-2.018-4.82-4.856 0-2.767 2.071-4.802 4.695-4.802 2.856 0 4.517 2.16 4.517 5.57h-6.962c.267 1.267 1.231 2.16 2.552 2.16Zm-.018-5.802c-1.213 0-2.195.768-2.517 1.981h4.856c-.25-1.16-1.035-1.981-2.339-1.981Zm15.62 7.712c-2.107 0-3.892-.714-5.249-1.982l1.286-1.589c1.124 1.018 2.428 1.661 4.034 1.661 1.518 0 2.303-.75 2.303-1.625 0-1.017-.875-1.357-2.838-1.821-2.535-.589-4.303-1.321-4.303-3.624 0-2.142 1.821-3.713 4.41-3.713 1.946 0 3.409.661 4.641 1.714l-1.214 1.642c-1.071-.928-2.303-1.446-3.517-1.446-1.231 0-2.07.75-2.07 1.607 0 1 .91 1.357 2.856 1.803 2.553.571 4.266 1.392 4.266 3.624 0 2.196-1.678 3.749-4.605 3.749Zm10.692-1.91c.857 0 1.875-.393 2.393-.929l1.374 1.428c-.803.857-2.41 1.429-3.749 1.429-2.642 0-4.82-2.018-4.82-4.856 0-2.767 2.071-4.802 4.695-4.802 2.857 0 4.517 2.16 4.517 5.57h-6.962c.267 1.267 1.231 2.16 2.552 2.16Zm-.017-5.802c-1.214 0-2.196.768-2.517 1.981h4.855c-.25-1.16-1.035-1.981-2.338-1.981Zm10.581 7.73c-2.66 0-4.927-2.214-4.927-4.838s2.267-4.82 4.963-4.82c1.392 0 2.624.589 3.499 1.499l-1.464 1.286c-.5-.554-1.268-.929-2.053-.929-1.517 0-2.785 1.357-2.785 2.964 0 1.624 1.268 2.981 2.785 2.981.803 0 1.589-.375 2.106-.964l1.464 1.268a4.853 4.853 0 0 1-3.588 1.553Zm11.37-9.444h2.178v9.229h-2.178v-1.231c-.572.857-1.643 1.446-2.857 1.446-2.017 0-3.427-1.482-3.427-3.571v-5.873h2.106v5.445c0 1.249.804 2.142 1.946 2.142 1.143 0 2.089-.768 2.232-1.749v-5.838Zm6.631 1.785c.589-1.231 1.785-1.999 3.302-1.999v1.856c-1.981 0-3.302 1.179-3.302 2.928v4.659h-2.178v-9.229h2.178v1.785Zm5.844-3.177c-.696 0-1.25-.589-1.25-1.25 0-.66.554-1.232 1.25-1.232.678 0 1.232.572 1.232 1.232 0 .661-.554 1.25-1.232 1.25Zm-1.107 10.621v-9.229h2.178v9.229h-2.178Zm9.012-1.981.625 1.464a3.138 3.138 0 0 1-1.964.732c-1.535 0-2.606-1.107-2.606-2.66v-4.981h-1.339v-1.803h1.339v-2.535h2.124v2.535h2.089v1.803h-2.089v4.713c0 .625.393 1.071.911 1.071.375 0 .714-.143.91-.339Zm4.011 5.195c-.696 0-1.463-.179-2.017-.482l.464-1.571c.393.214.839.339 1.179.339.517 0 .91-.161 1.178-.607l.393-.821-3.91-9.301h2.303l2.695 6.891 2.535-6.891h2.25l-3.91 9.872c-.696 1.749-1.767 2.553-3.16 2.571Z"/><g fill="#000" clip-path="url(#a)"><path d="M360.522 192.217c-3.719 0-7.439-.033-11.157.016-1.583.02-3.003-.884-3.39-2.746-1.461-7.061 2.147-14.144 8.843-16.849 5.55-2.244 10.765-1.389 15.392 2.452 2.593 2.152 4.187 4.957 4.872 8.265a14.697 14.697 0 0 1-.101 6.469c-.353 1.474-1.546 2.39-3.082 2.392-3.793.004-7.585.001-11.377.001Zm-.031-1.892h11.284c.851 0 1.232-.314 1.412-1.153.565-2.619.35-5.172-.632-7.664-2.544-6.462-10.014-9.785-16.506-7.341-6.126 2.307-9.565 8.607-8.19 15.001.183.851.563 1.156 1.442 1.156h11.189l.001.001Z"/><path d="M360.515 175.651c1.257.017 2.475.224 3.652.662.64.239.859.971.454 1.482-.273.344-.679.448-1.162.276-1.046-.371-2.122-.52-3.23-.499-4.067.078-7.724 3.258-8.354 7.287-.074.474-.102.956-.127 1.435-.031.595-.429 1.024-.973 1.012-.538-.012-.921-.435-.921-1.019-.005-5.239 3.975-9.808 9.164-10.513.495-.067.997-.083 1.497-.124v.001ZM360.32 189.024c-.936-.047-1.778-.56-2.234-1.592-.454-1.031-.298-2.022.458-2.859.763-.845 1.731-1.089 2.821-.746.203.063.312.037.456-.108 1.612-1.624 3.233-3.242 4.849-4.863.28-.281.601-.408.994-.292.378.113.598.374.667.755.066.362-.086.649-.337.899-1.102 1.1-2.202 2.204-3.302 3.306-.51.51-1.015 1.025-1.531 1.528-.142.138-.187.249-.116.455.591 1.738-.707 3.529-2.724 3.516l-.001.001Z"/></g><path fill="#000" d="M386.789 187.799v-12.264h2.232l4.034 7.48 4.053-7.48h2.213v12.264h-2.213v-8.194l-4.053 7.48-4.034-7.48v8.194h-2.232Zm19.464.214c-2.678 0-4.945-2.214-4.945-4.838s2.267-4.82 4.945-4.82c2.677 0 4.945 2.196 4.945 4.82s-2.268 4.838-4.945 4.838Zm0-1.857c1.517 0 2.802-1.356 2.802-2.981 0-1.606-1.285-2.963-2.802-2.963-1.536 0-2.821 1.357-2.821 2.963 0 1.625 1.285 2.981 2.821 2.981Zm8.886-5.801c.589-1.232 1.786-2 3.303-2v1.857c-1.982 0-3.303 1.178-3.303 2.928v4.659h-2.177v-9.229h2.177v1.785Zm9.04 5.73c.857 0 1.875-.393 2.392-.928l1.375 1.428c-.803.857-2.41 1.428-3.749 1.428-2.642 0-4.82-2.017-4.82-4.856 0-2.767 2.071-4.802 4.695-4.802 2.856 0 4.517 2.16 4.517 5.57h-6.963c.268 1.268 1.232 2.16 2.553 2.16Zm-.018-5.802c-1.214 0-2.195.768-2.517 1.982h4.856c-.25-1.161-1.035-1.982-2.339-1.982Zm15.62 7.712c-2.107 0-3.892-.714-5.249-1.981l1.286-1.589c1.124 1.017 2.427 1.66 4.034 1.66 1.517 0 2.303-.75 2.303-1.624 0-1.018-.875-1.357-2.838-1.821-2.535-.589-4.303-1.321-4.303-3.624 0-2.142 1.821-3.713 4.41-3.713 1.945 0 3.409.66 4.641 1.713l-1.214 1.643c-1.071-.928-2.303-1.446-3.517-1.446-1.231 0-2.07.75-2.07 1.606 0 1 .91 1.357 2.856 1.804 2.553.571 4.266 1.392 4.266 3.623 0 2.196-1.678 3.749-4.605 3.749Zm11.835-9.64c2.445 0 4.231 2 4.231 4.82 0 2.839-1.786 4.838-4.231 4.838-1.375 0-2.482-.625-3.213-1.678v4.534h-2.178V178.57h2.178v1.463c.731-1.053 1.838-1.678 3.213-1.678Zm-.589 7.801c1.553 0 2.66-1.249 2.66-2.981 0-1.731-1.107-2.963-2.66-2.963-1.536 0-2.607 1.232-2.607 2.963 0 1.732 1.071 2.981 2.607 2.981Zm10.913-.071c.857 0 1.875-.393 2.392-.928l1.375 1.428c-.803.857-2.41 1.428-3.749 1.428-2.642 0-4.82-2.017-4.82-4.856 0-2.767 2.071-4.802 4.695-4.802 2.856 0 4.516 2.16 4.516 5.57h-6.962c.268 1.268 1.232 2.16 2.553 2.16Zm-.018-5.802c-1.214 0-2.195.768-2.517 1.982h4.856c-.25-1.161-1.036-1.982-2.339-1.982Zm10.439 5.802c.857 0 1.874-.393 2.392-.928l1.375 1.428c-.804.857-2.41 1.428-3.749 1.428-2.642 0-4.82-2.017-4.82-4.856 0-2.767 2.071-4.802 4.695-4.802 2.856 0 4.516 2.16 4.516 5.57h-6.962c.268 1.268 1.232 2.16 2.553 2.16Zm-.018-5.802c-1.214 0-2.196.768-2.517 1.982h4.856c-.25-1.161-1.036-1.982-2.339-1.982Zm13.152-4.962h2.178v12.478h-2.178v-1.428c-.732 1.035-1.838 1.642-3.195 1.642-2.446 0-4.231-1.999-4.231-4.838 0-2.82 1.785-4.82 4.231-4.82 1.357 0 2.463.607 3.195 1.643v-4.677Zm-2.606 10.835c1.535 0 2.606-1.249 2.606-2.981 0-1.731-1.071-2.963-2.606-2.963-1.553 0-2.66 1.232-2.66 2.963 0 1.732 1.107 2.981 2.66 2.981ZM385.411 280.145v-12.264h2.231l4.034 7.479 4.053-7.479h2.213v12.264h-2.213v-8.194l-4.053 7.479-4.034-7.479v8.194h-2.231Zm19.463.214c-2.678 0-4.945-2.214-4.945-4.838s2.267-4.82 4.945-4.82c2.677 0 4.945 2.196 4.945 4.82s-2.268 4.838-4.945 4.838Zm0-1.857c1.517 0 2.802-1.357 2.802-2.981 0-1.607-1.285-2.963-2.802-2.963-1.535 0-2.821 1.356-2.821 2.963 0 1.624 1.286 2.981 2.821 2.981Zm8.886-5.802c.59-1.231 1.786-1.999 3.303-1.999v1.857c-1.982 0-3.303 1.178-3.303 2.927v4.66h-2.177v-9.23h2.177v1.785Zm9.04 5.731c.857 0 1.875-.393 2.392-.928l1.375 1.428c-.803.857-2.41 1.428-3.749 1.428-2.642 0-4.82-2.017-4.82-4.856 0-2.767 2.071-4.802 4.695-4.802 2.856 0 4.517 2.16 4.517 5.57h-6.962c.267 1.267 1.231 2.16 2.552 2.16Zm-.018-5.802c-1.213 0-2.195.768-2.517 1.982h4.856c-.25-1.161-1.035-1.982-2.339-1.982Zm20.315-2.713h-6.998v3.106h6.337v2.035h-6.337v5.088h-2.232v-12.264h9.23v2.035Zm7.943.999h2.178v9.23h-2.178v-1.232c-.571.857-1.642 1.446-2.856 1.446-2.017 0-3.427-1.482-3.427-3.571v-5.873h2.106v5.445c0 1.25.803 2.142 1.946 2.142 1.142 0 2.088-.767 2.231-1.749v-5.838Zm9.434-.214c2.017 0 3.427 1.482 3.427 3.57v5.874h-2.106V274.7c0-1.25-.803-2.142-1.946-2.142-1.142 0-2.089.767-2.231 1.749v5.838h-2.178v-9.23h2.178v1.232c.571-.857 1.642-1.446 2.856-1.446Z"/><circle cx="360.232" cy="273.871" r="13.587" stroke="#000" stroke-width="1.98"/><path stroke="#000" stroke-linecap="round" stroke-width="1.98" d="M351.768 270.824c.348-.768 1.572-2.142 3.32-1.842 1.6.274 2.176 1.396 2.448 1.842M364.888 279.189c-.591.967-2.663 2.698-5.622 2.32-2.708-.345-3.682-1.759-4.142-2.32M362.928 270.824c.349-.768 1.573-2.142 3.321-1.842 1.6.274 2.175 1.396 2.447 1.842"/><path fill="url(#b)" d="M260.746 163.992c-4.229-10.127-12.686-21.032-19.475-24.482 4.786 9.236 8.124 19.141 9.793 29.379V169c-10.905-27.264-29.49-38.281-44.624-62.207-.779-1.224-1.558-2.448-2.226-3.672-.445-.779-.779-1.447-1.112-2.004-.668-1.224-1.113-2.559-1.447-3.783a.24.24 0 0 0-.223-.223h-.334V97c-24.259 14.244-32.494 40.618-33.273 53.749-9.682.668-19.029 4.229-26.597 10.238a36.316 36.316 0 0 0-2.448-1.891c-2.225-7.679-2.337-15.914-.222-23.704-8.903 4.34-16.915 10.461-23.258 18.028-3.784-4.896-3.561-20.921-3.339-24.259-1.113.445-2.225 1.001-3.227 1.669-3.339 2.448-6.566 5.119-9.46 8.124-3.338 3.338-6.342 7.01-9.013 10.905a79.603 79.603 0 0 0-13.243 29.379l-.11.667c-.223.891-.891 5.119-1.002 6.01v.222c-.89 4.452-1.336 8.903-1.558 13.354v.445c0 53.527 43.4 96.816 96.927 96.705 47.072 0 87.357-33.941 95.369-80.346.111-1.224.334-2.448.445-3.784 1.892-16.358-.223-33.051-6.343-48.519ZM149.13 239.775l1.335.668h.111c-.445-.111-1.001-.445-1.446-.668Z"/><path fill="url(#c)" d="M260.748 163.992c-4.229-10.127-12.686-21.032-19.475-24.482 4.785 9.236 8.124 19.14 9.793 29.378v.223c7.456 21.366 6.343 44.735-3.004 65.323-11.129 23.814-37.948 48.185-80.013 47.072-45.403-1.335-85.465-34.942-92.92-79.122-1.336-7.01 0-10.46.667-16.136-.89 4.34-1.446 8.903-1.558 13.354v.445c0 53.527 43.4 96.816 96.927 96.705 47.073 0 87.357-33.941 95.369-80.346.112-1.224.334-2.448.446-3.784a99.433 99.433 0 0 0-6.232-48.63Z"/><path fill="url(#d)" d="M260.748 163.992c-4.229-10.127-12.686-21.032-19.475-24.482 4.785 9.236 8.124 19.14 9.793 29.378v.223c7.456 21.366 6.343 44.735-3.004 65.323-11.129 23.814-37.948 48.185-80.013 47.072-45.403-1.335-85.465-34.942-92.92-79.122-1.336-7.01 0-10.46.667-16.136-.89 4.34-1.446 8.903-1.558 13.354v.445c0 53.527 43.4 96.816 96.927 96.705 47.073 0 87.357-33.941 95.369-80.346.112-1.224.334-2.448.446-3.784a99.433 99.433 0 0 0-6.232-48.63Z"/><path fill="url(#e)" d="M213.672 175.452c.222.112.445.334.556.445a51.212 51.212 0 0 0-9.014-11.684c-30.046-30.046-7.901-65.212-4.117-66.992-24.26 14.021-32.495 40.395-33.274 53.527 1.113-.112 2.226-.223 3.45-.223a48.982 48.982 0 0 1 42.399 24.927Z"/><path fill="url(#f)" d="M171.394 181.464c-.111 2.448-8.68 10.683-11.684 10.683-27.487 0-32.05 16.692-32.05 16.692 1.224 14.022 11.017 25.595 22.813 31.716.556.334 1.113.556 1.669.779 1.002.445 1.892.779 2.894 1.113 4.006 1.446 8.346 2.225 12.575 2.448 48.296 2.226 57.644-57.756 22.813-75.116 8.234-1.113 16.581 1.002 23.369 5.676a49.109 49.109 0 0 0-42.399-24.816c-1.113 0-2.225.111-3.45.222-9.681.668-19.029 4.229-26.596 10.238 1.447 1.224 3.116 2.894 6.677 6.343 6.454 6.455 23.258 13.132 23.369 14.022Z"/><path fill="url(#g)" d="M171.394 181.464c-.111 2.448-8.68 10.683-11.684 10.683-27.487 0-32.05 16.692-32.05 16.692 1.224 14.022 11.017 25.595 22.813 31.716.556.334 1.113.556 1.669.779 1.002.445 1.892.779 2.894 1.113 4.006 1.446 8.346 2.225 12.575 2.448 48.296 2.226 57.644-57.756 22.813-75.116 8.234-1.113 16.581 1.002 23.369 5.676a49.109 49.109 0 0 0-42.399-24.816c-1.113 0-2.225.111-3.45.222-9.681.668-19.029 4.229-26.596 10.238 1.447 1.224 3.116 2.894 6.677 6.343 6.454 6.455 23.258 13.132 23.369 14.022Z"/><path fill="url(#h)" d="M136.669 157.874c.779.445 1.447.89 2.003 1.335-2.226-7.678-2.337-15.913-.223-23.703-8.902 4.34-16.914 10.46-23.258 18.028.446 0 14.467-.223 21.478 4.34Z"/><path fill="url(#i)" d="M75.243 202.271c7.456 44.179 47.518 77.898 92.921 79.122 42.065 1.224 68.884-23.258 80.012-47.073 9.348-20.587 10.461-43.956 3.005-65.323v-.222.111c3.45 22.479-8.012 44.179-25.818 58.869v.111c-34.72 28.266-67.993 17.026-74.67 12.463-.445-.222-.891-.445-1.447-.667-20.253-9.682-28.6-28.155-26.819-43.957-9.793.111-18.807-5.564-22.924-14.467 10.794-6.677 24.259-7.122 35.61-1.446 11.462 5.23 24.482 5.675 36.39 1.446 0-.779-16.915-7.455-23.481-13.91-3.561-3.45-5.23-5.119-6.677-6.343a36.337 36.337 0 0 0-2.448-1.892c-.557-.445-1.224-.779-2.003-1.335-7.011-4.563-21.144-4.34-21.589-4.34-3.784-4.897-3.561-20.921-3.339-24.26a17.807 17.807 0 0 0-3.227 1.669c-3.338 2.449-6.565 5.119-9.459 8.124-3.338 3.339-6.343 7.011-9.125 10.794-6.343 9.014-10.794 19.03-13.131 29.49 0 .223-3.45 15.246-1.78 23.036Z"/><path fill="url(#j)" d="M205.33 164.101c3.561 3.45 6.565 7.456 9.014 11.796.556.446 1.001.779 1.446 1.225 21.923 20.253 10.461 48.853 9.571 50.856 17.805-14.69 29.267-36.39 25.817-58.869-10.906-27.264-29.49-38.281-44.624-62.318-.779-1.224-1.558-2.448-2.226-3.672-.445-.779-.779-1.447-1.113-2.003-.667-1.225-1.113-2.56-1.446-3.784 0-.111-.112-.223-.223-.223h-.334c-3.783 1.78-26.04 36.946 4.118 66.992Z"/><path fill="url(#k)" d="M215.786 177.013c-.445-.334-.891-.779-1.447-1.224-.223-.111-.445-.334-.556-.445-6.789-4.674-15.135-6.789-23.37-5.676 34.832 17.36 25.484 77.342-22.813 75.116-4.34-.223-8.568-1.002-12.575-2.448-1.001-.334-1.891-.779-2.893-1.113-.556-.223-1.113-.445-1.669-.779h.111c6.677 4.563 39.951 15.802 74.671-12.464v-.111c1.001-2.003 12.463-30.603-9.459-50.856Z"/><path fill="url(#l)" d="M127.654 208.727s4.452-16.693 32.05-16.693c3.004 0 11.462-8.346 11.684-10.683-11.795 4.34-24.927 3.784-36.389-1.446-11.351-5.787-24.816-5.231-35.61 1.446 4.117 8.903 13.131 14.578 22.924 14.467-1.781 15.802 6.566 34.275 26.819 43.957l1.335.667c-11.796-6.12-21.588-17.694-22.813-31.715Z"/><path fill="url(#m)" d="M260.746 163.992c-4.229-10.127-12.686-21.032-19.475-24.482 4.786 9.236 8.124 19.141 9.793 29.379V169c-10.905-27.264-29.49-38.281-44.624-62.207-.779-1.224-1.558-2.448-2.226-3.672-.445-.779-.779-1.447-1.112-2.004-.668-1.224-1.113-2.559-1.447-3.783a.24.24 0 0 0-.223-.223h-.334V97c-24.259 14.244-32.494 40.618-33.273 53.749 1.113-.111 2.226-.222 3.45-.222 17.582 0 33.718 9.459 42.398 24.816-6.788-4.674-15.134-6.788-23.369-5.676 34.831 17.361 25.484 77.342-22.813 75.116-4.34-.222-8.569-1.001-12.575-2.448-1.001-.334-1.892-.779-2.893-1.113-.557-.222-1.113-.445-1.669-.779h.111c-.445-.222-.89-.445-1.447-.668l1.336.668c-11.685-6.12-21.478-17.694-22.702-31.715 0 0 4.451-16.693 32.049-16.693 3.005 0 11.462-8.346 11.685-10.683 0-.779-16.915-7.456-23.481-13.91-3.561-3.45-5.23-5.119-6.677-6.343a36.013 36.013 0 0 0-2.448-1.892c-2.225-7.679-2.337-15.913-.222-23.703-8.903 4.34-16.915 10.46-23.258 18.028-3.784-4.897-3.561-20.922-3.339-24.26-1.113.445-2.225 1.001-3.227 1.669-3.339 2.448-6.566 5.119-9.46 8.124-3.338 3.338-6.342 7.011-9.013 10.905-6.454 8.792-10.906 18.807-13.243 29.268l-.11.667c-.223.891-1.002 5.231-1.114 6.121 0-.111 0 .111 0 0-.779 4.451-1.224 9.014-1.446 13.465v.445c0 53.527 43.4 96.816 96.927 96.705 47.072 0 87.357-33.941 95.369-80.346.111-1.224.334-2.448.445-3.784 1.892-16.358-.223-33.051-6.343-48.519Z"/><defs><radialGradient id="c" cx="0" cy="0" r="1" gradientTransform="translate(240.508 119.171) scale(201.841)" gradientUnits="userSpaceOnUse"><stop offset=".129" stop-color="#FFBD4F"/><stop offset=".186" stop-color="#FFAC31"/><stop offset=".247" stop-color="#FF9D17"/><stop offset=".283" stop-color="#FF980E"/><stop offset=".403" stop-color="#FF563B"/><stop offset=".467" stop-color="#FF3750"/><stop offset=".71" stop-color="#F5156C"/><stop offset=".782" stop-color="#EB0878"/><stop offset=".86" stop-color="#E50080"/></radialGradient><radialGradient id="d" cx="0" cy="0" r="1" gradientTransform="translate(166.753 201.689) scale(201.841)" gradientUnits="userSpaceOnUse"><stop offset=".3" stop-color="#960E18"/><stop offset=".351" stop-color="#B11927" stop-opacity=".74"/><stop offset=".435" stop-color="#DB293D" stop-opacity=".343"/><stop offset=".497" stop-color="#F5334B" stop-opacity=".094"/><stop offset=".53" stop-color="#FF3750" stop-opacity="0"/></radialGradient><radialGradient id="e" cx="0" cy="0" r="1" gradientTransform="translate(191.084 73.364) scale(146.22)" gradientUnits="userSpaceOnUse"><stop offset=".132" stop-color="#FFF44F"/><stop offset=".252" stop-color="#FFDC3E"/><stop offset=".506" stop-color="#FF9D12"/><stop offset=".526" stop-color="#FF980E"/></radialGradient><radialGradient id="f" cx="0" cy="0" r="1" gradientTransform="translate(144.433 254.412) scale(96.1055)" gradientUnits="userSpaceOnUse"><stop offset=".353" stop-color="#3A8EE6"/><stop offset=".472" stop-color="#5C79F0"/><stop offset=".669" stop-color="#9059FF"/><stop offset="1" stop-color="#C139E6"/></radialGradient><radialGradient id="g" cx="0" cy="0" r="1" gradientTransform="matrix(49.52754 -11.97429 14.0189 57.98439 177.789 185.147)" gradientUnits="userSpaceOnUse"><stop offset=".206" stop-color="#9059FF" stop-opacity="0"/><stop offset=".278" stop-color="#8C4FF3" stop-opacity=".064"/><stop offset=".747" stop-color="#7716A8" stop-opacity=".45"/><stop offset=".975" stop-color="#6E008B" stop-opacity=".6"/></radialGradient><radialGradient id="h" cx="0" cy="0" r="1" gradientTransform="translate(164.206 110.915) scale(69.1382)" gradientUnits="userSpaceOnUse"><stop stop-color="#FFE226"/><stop offset=".121" stop-color="#FFDB27"/><stop offset=".295" stop-color="#FFC82A"/><stop offset=".502" stop-color="#FFA930"/><stop offset=".732" stop-color="#FF7E37"/><stop offset=".792" stop-color="#FF7139"/></radialGradient><radialGradient id="i" cx="0" cy="0" r="1" gradientTransform="matrix(294.981 0 0 294.982 218.552 67.057)" gradientUnits="userSpaceOnUse"><stop offset=".113" stop-color="#FFF44F"/><stop offset=".456" stop-color="#FF980E"/><stop offset=".622" stop-color="#FF5634"/><stop offset=".716" stop-color="#FF3647"/><stop offset=".904" stop-color="#E31587"/></radialGradient><radialGradient id="j" cx="0" cy="0" r="1" gradientTransform="matrix(22.68901 215.00515 -141.1055 14.89055 193.688 83.46)" gradientUnits="userSpaceOnUse"><stop stop-color="#FFF44F"/><stop offset=".06" stop-color="#FFE847"/><stop offset=".168" stop-color="#FFC830"/><stop offset=".304" stop-color="#FF980E"/><stop offset=".356" stop-color="#FF8B16"/><stop offset=".455" stop-color="#FF672A"/><stop offset=".57" stop-color="#FF3647"/><stop offset=".737" stop-color="#E31587"/></radialGradient><radialGradient id="k" cx="0" cy="0" r="1" gradientTransform="translate(162.572 136.522) scale(184.162)" gradientUnits="userSpaceOnUse"><stop offset=".137" stop-color="#FFF44F"/><stop offset=".48" stop-color="#FF980E"/><stop offset=".592" stop-color="#FF5634"/><stop offset=".655" stop-color="#FF3647"/><stop offset=".904" stop-color="#E31587"/></radialGradient><radialGradient id="l" cx="0" cy="0" r="1" gradientTransform="translate(211.191 147.298) scale(201.564)" gradientUnits="userSpaceOnUse"><stop offset=".094" stop-color="#FFF44F"/><stop offset=".231" stop-color="#FFE141"/><stop offset=".509" stop-color="#FFAF1E"/><stop offset=".626" stop-color="#FF980E"/></radialGradient><linearGradient id="b" x1="247.92" x2="87.193" y1="127.936" y2="283.007" gradientUnits="userSpaceOnUse"><stop offset=".048" stop-color="#FFF44F"/><stop offset=".111" stop-color="#FFE847"/><stop offset=".225" stop-color="#FFC830"/><stop offset=".368" stop-color="#FF980E"/><stop offset=".401" stop-color="#FF8B16"/><stop offset=".462" stop-color="#FF672A"/><stop offset=".534" stop-color="#FF3647"/><stop offset=".705" stop-color="#E31587"/></linearGradient><linearGradient id="m" x1="245.991" x2="109.228" y1="127.109" y2="263.869" gradientUnits="userSpaceOnUse"><stop offset=".167" stop-color="#FFF44F" stop-opacity=".8"/><stop offset=".266" stop-color="#FFF44F" stop-opacity=".634"/><stop offset=".489" stop-color="#FFF44F" stop-opacity=".217"/><stop offset=".6" stop-color="#FFF44F" stop-opacity="0"/></linearGradient><clipPath id="a"><path fill="#fff" d="M345.654 171.414h29.74v20.818h-29.74z"/></clipPath></defs></svg>
