<svg xmlns="http://www.w3.org/2000/svg" width="48" height="48" fill="none" viewBox="0 0 48 48"><path fill="#333336" d="m24.09 11.6-1.143-.86a1.431 1.431 0 0 0 1.144 2.29V11.6Zm12.78 12.772h-1.43a1.431 1.431 0 0 0 2.289 1.145l-.859-1.145Zm0 9.3.859-1.145a1.431 1.431 0 0 0-2.29 1.145h1.431ZM25.124 46.447l-1.402-.285a1.431 1.431 0 0 0 1.402 1.716v-1.431Zm-11.383 0v1.43a1.431 1.431 0 0 0 1.403-1.715l-1.403.285ZM2.023 34.715l.283-1.403a1.431 1.431 0 0 0-1.714 1.403h1.431Zm0-11.388H.593a1.431 1.431 0 0 0 1.713 1.404l-.283-1.404ZM14.798 11.6v1.43a1.431 1.431 0 0 0 1.145-2.29l-1.145.86Zm10.437.86a7.214 7.214 0 0 0 1.448-4.346h-2.862c0 .988-.325 1.895-.874 2.626l2.288 1.72Zm8.622-2.292h-9.766v2.863h9.766v-2.863Zm4.444 4.445a4.444 4.444 0 0 0-4.444-4.445v2.863c.874 0 1.582.708 1.582 1.582h2.862Zm0 9.76v-9.76H35.44v9.76h2.862Zm2.05-2.59c-1.626 0-3.13.538-4.34 1.444l1.718 2.29a4.352 4.352 0 0 1 2.622-.872v-2.862Zm7.239 7.24a7.239 7.239 0 0 0-7.24-7.24v2.862a4.377 4.377 0 0 1 4.377 4.377h2.863Zm-7.24 7.238a7.239 7.239 0 0 0 7.24-7.239h-2.863a4.377 4.377 0 0 1-4.376 4.377v2.862Zm-4.338-1.444a7.213 7.213 0 0 0 4.339 1.444V33.4a4.35 4.35 0 0 1-2.622-.872l-1.717 2.29Zm2.29 8.616v-9.761h-2.863v9.761h2.862Zm-4.445 4.445a4.444 4.444 0 0 0 4.444-4.445H35.44c0 .874-.708 1.582-1.582 1.582v2.863Zm-8.733 0h8.733v-2.863h-8.733v2.863Zm1.403-1.147c.095-.468.145-.952.145-1.447h-2.863c0 .302-.03.595-.087.878l2.805.57Zm.145-1.447a7.239 7.239 0 0 0-7.24-7.239v2.863a4.377 4.377 0 0 1 4.377 4.376h2.863Zm-7.24-7.239a7.239 7.239 0 0 0-7.238 7.24h2.862a4.377 4.377 0 0 1 4.377-4.377v-2.863Zm-7.238 7.24c0 .494.05.978.145 1.446l2.805-.57a4.404 4.404 0 0 1-.088-.877h-2.862Zm-7.158 2.593h8.705v-2.863H5.036v2.863ZM.592 43.433a4.444 4.444 0 0 0 4.444 4.445v-2.863a1.582 1.582 0 0 1-1.581-1.582H.592Zm0-8.717v8.717h2.863v-8.717H.592Zm2.583-1.317c-.299 0-.59-.03-.87-.086l-.564 2.806c.465.093.944.142 1.434.142V33.4Zm4.377-4.377A4.377 4.377 0 0 1 3.175 33.4v2.862a7.239 7.239 0 0 0 7.239-7.239H7.552Zm-4.377-4.377a4.377 4.377 0 0 1 4.377 4.377h2.862a7.239 7.239 0 0 0-7.239-7.239v2.862Zm-.87.087c.28-.057.571-.087.87-.087v-2.862c-.49 0-.97.049-1.434.142l.565 2.807ZM.593 14.612v8.716h2.863v-8.715H.592Zm4.444-4.444a4.444 4.444 0 0 0-4.444 4.445h2.863c0-.874.708-1.582 1.581-1.582v-2.863Zm9.762 0H5.036v2.863h9.762v-2.863Zm-2.592-2.054c0 1.629.539 3.135 1.448 4.345l2.289-1.719a4.351 4.351 0 0 1-.875-2.626h-2.862ZM19.445.875a7.239 7.239 0 0 0-7.24 7.24h2.863a4.377 4.377 0 0 1 4.377-4.377V.875Zm7.238 7.24a7.239 7.239 0 0 0-7.238-7.24v2.863a4.377 4.377 0 0 1 4.376 4.376h2.862Z"/></svg>
