<svg xmlns="http://www.w3.org/2000/svg" viewBox="0 0 350 350" height="350" width="350"><defs><style>.a{fill:#ffbf00;}</style></defs><path class="a" d="M175 0C78.4 0 .1 78.3 0 175s78.4 175 175 175 174.9-78.3 175-175S271.6 0 175 0zm19.2 165.4a18.3 18.3 0 0 1-14 17.8v72.1a18.2 18.2 0 0 1 9 5.2l61.9-35.9a18.3 18.3 0 1 1 17.8 14 18.2 18.2 0 0 1-13.9-6.4l-61.5 35.7a18.3 18.3 0 1 1-35.1.2l-62-35.2a18.3 18.3 0 1 1 4.2-7.4l62 35.2a18.2 18.2 0 0 1 9.2-5.4v-72.1a18.4 18.4 0 0 1-13.3-22.9L96 124.9a18.3 18.3 0 1 1 .4-25.5l62-35.7a18.3 18.3 0 1 1 4.2 7.4l-62 35.7a18.4 18.4 0 0 1-.2 10.9l62.1 35.3a18.2 18.2 0 0 1 26.6-.1l62-36a18.3 18.3 0 1 1 4.1 7.4l-61.8 35.9a18.4 18.4 0 0 1 .8 5.2z"/></svg>
