<svg xmlns="http://www.w3.org/2000/svg" viewBox="0 0 350 350" height="350" width="350"><defs><style>.a{fill:#adadff;}</style></defs><path class="a" d="M110.5 185.1a4 4 0 0 0 2.2-.7l2 3.9a10.1 10.1 0 0 1-5.5 1.6c-4.5 0-6.7-2.6-6.7-7.4V173h-2.9v-4.2h2.9v-4.4l6.1-.7v5.1h4.7l-.7 4.2h-4v9.4c0 2 .7 2.7 1.9 2.7m15.9-12.3l-.5-3.9h-5.3v20.4h6.1v-10.2c.7-3.1 1.7-4.9 4.2-4.9a7.4 7.4 0 0 1 1.8.3l1-5.9a6.9 6.9 0 0 0-2-.3c-2.3 0-4.3 1.7-5.3 4.5m20.4 12.3a1 1 0 0 1-1-1.3v-23.7l-6.1.7v23.3c0 3.7 2.1 5.8 5.6 5.8a9.8 9.8 0 0 0 3.7-.7l-1.2-4.3-1 .2m-59-.1c-3.5 0-5.9-2.7-5.9-9.1s2.4-9.3 5.8-9.3a7 7 0 0 1 4.8 1.9l3.1-3.7a11.8 11.8 0 0 0-8.2-2.9c-6.8 0-12 5-12 13.9s4.9 14 12.2 14a11.7 11.7 0 0 0 8.3-3.4l-2.9-3.6c-1.5 1.2-3.1 2.2-5.2 2.2M175 0A175 175 0 1 1 0 175 175 175 0 0 1 175 0m-15.2 133.8h17.4V90.5H65.7a1.2 1.2 0 0 0-1.2 1.2v111.5h95.3v-69.4zm125.7 13H172.8v112.7h112.7V146.8zm-69.7 89.7h-16.3l20.1-66.7h19.2l20.1 66.7h-16.8l-3.4-14.3h-19.5zm6.1-25.8H236l-7-29.5z"/></svg>
