<svg xmlns="http://www.w3.org/2000/svg" viewBox="0 0 350 350" height="350" width="350"><defs><style>.a{fill:#ff78c5;}</style></defs><path class="a" d="M175 0a175 175 0 1 0 175 175A175 175 0 0 0 175 0m92.8 228.6L175 282.1l-92.8-53.5V121.4L175 67.9l92.8 53.6v107.1z"/><path class="a" d="M191.8 232.9a18.8 18.8 0 0 1-16.8 10.4 19.2 19.2 0 0 1-16.9-10.4h33.6zM158.2 214.5h33.6v9.71h-33.6zM175 106.7c-20.3 0-40.4 16.8-36.7 36.7 1.9 10 12.8 50 14.6 57.2.7 2.8 2.4 5.3 5.3 5.3h33.6c2.9 0 4.5-2.4 5.3-5.3 1.9-7.2 12.8-47.2 14.6-57.2 3.7-19.9-16.4-36.7-36.7-36.7m-18.3 32.1a5 5 0 1 1 5 5 5 5 0 0 1-5-5m18.3 25a9.9 9.9 0 0 1-9.9-9.9H185a9.9 9.9 0 0 1-9.9 9.9m13.3-20a5 5 0 1 1 5-5 5 5 0 0 1-5 5"/></svg>
