<svg xmlns="http://www.w3.org/2000/svg" viewBox="0 0 350 350" height="350" width="350"><defs><style>.a{fill:#00dc00;}</style></defs><path class="a" d="M184.7 161.6v-22.2l-12.4 1.3v58.5h11l.6-4a13.2 13.2 0 0 0 11 5.4c10.4 0 16.6-9.3 16.6-22.2s-5.4-22.4-15.7-22.4a13.9 13.9 0 0 0-11 5.6m6.6 29.9a7.7 7.7 0 0 1-6.6-4.1V170c1.8-3.1 4.2-4.9 7.2-4.9s6.7 2.5 6.7 13.2-3 13.2-7.2 13.2M130 143.3c-22 0-37.7 15.4-37.7 36.9s14.8 36.6 37.7 36.6a55 55 0 0 0 18.5-3.3l-2.9-8.6a48.8 48.8 0 0 1-15.5 2.7c-17.3 0-26.5-10.6-26.5-27.3s9.5-27.8 26.4-27.8 24 8.4 24 22.1-2.8 16.7-6.5 16.7-3.7-2-3.7-8.6v-19.6a29.1 29.1 0 0 0-13.6-3.5c-11.7 0-18.4 8.4-18.4 21.3 0 10.2 4.4 17.7 14.4 17.7 5.8 0 9.4-3.3 11.3-7.7a10.3 10.3 0 0 0 10.6 8c10.4 0 17.2-10.3 17.2-24.6 0-16.2-12.7-31-35.1-31m3.1 43.6c-.9 1.8-2.5 3.9-5.4 3.9s-4.8-2.6-4.8-9.8c0-10.2 2.6-13.5 6.7-13.5a8.5 8.5 0 0 1 3.5.7V187zm106 13.6c-12.8 0-20.7-8.7-20.7-21.9s8-22.6 20.5-22.6a21 21 0 0 1 14.3 5.1l-5.4 7.4a12.6 12.6 0 0 0-8-3c-5.4 0-8.4 3.6-8.4 13s3.3 12.1 8.3 12.1c3 0 5-.9 8-2.8l5.4 7.7a21.8 21.8 0 0 1-14.1 5M175 0a175 175 0 1 0 175 175A175 175 0 0 0 175 0m111.1 239.2h-71.4a30.4 30.4 0 0 0-30.4 30.4h-18.5a30.4 30.4 0 0 0-30.4-30.4H63.9V103.9h81a30.4 30.4 0 0 1 27.9 18.2h4.6a30.4 30.4 0 0 1 27.9-18.2h81v135.3z"/></svg>
