<svg width="179" height="107" viewBox="0 0 179 107" xmlns="http://www.w3.org/2000/svg"><defs><linearGradient x1="47.099%" y1="-121.144%" x2="52.804%" y2="151.494%" id="a"><stop stop-color="#0080FF" offset="0%"/><stop stop-color="#00FEFF" offset="100%"/></linearGradient><linearGradient x1="50%" y1="-25.212%" x2="50%" y2="140.47%" id="b"><stop stop-color="#0080FF" offset="0%"/><stop stop-color="#00FEFF" offset="100%"/></linearGradient></defs><g fill="none" fill-rule="evenodd"><path fill="#FFF" d="M3.996 4.012h115.87V91.28H3.997z"/><path d="M143.512 107c-7.532 0-13.837-5.368-15.315-12.498H63.374C61.896 101.628 55.594 107 48.064 107c-7.532 0-13.835-5.368-15.316-12.498H3.196C1.432 94.502 0 93.067 0 91.292V3.21C0 1.437 1.432 0 3.196 0H120.61c1.77 0 3.198 1.438 3.198 3.21v28.848h24.534c1.635 0 3.005 1.234 3.18 2.865l2.177 20.25 15.935 3.02c1.51.287 2.604 1.616 2.604 3.155v19.07h3.564c1.764 0 3.196 1.438 3.196 3.21 0 1.77-1.432 3.208-3.196 3.208h-3.566v4.456c0 1.775-1.433 3.21-3.197 3.21h-10.217c-1.48 7.126-7.785 12.498-15.31 12.498zm-.008-24.995c-5.097.004-9.244 4.17-9.244 9.287 0 5.12 4.15 9.288 9.252 9.288 5.002 0 9.09-4.012 9.243-9.002-.008-.095-.012-.19-.012-.286 0-5.118-4.143-9.283-9.24-9.287zM38.82 91.57c.144 4.995 4.234 9.01 9.243 9.01 5.1 0 9.248-4.168 9.248-9.288s-4.142-9.284-9.24-9.29c-5.095.006-9.238 4.17-9.238 9.29 0 .092-.004.186-.012.277zm120.003-3.488h7.02V64.008l-15.66-2.97c-1.38-.263-2.43-1.403-2.582-2.81l-2.127-19.75h-21.665v49.605h4.373c1.48-7.128 7.782-12.498 15.312-12.498h.02c7.526.002 13.832 5.37 15.31 12.498zm-95.43 0h54.023V6.418H6.39v81.665h26.358c1.48-7.128 7.785-12.496 15.315-12.496h.016c7.53 0 13.83 5.368 15.314 12.496z" fill="url(#a)" fill-rule="nonzero"/><path d="M84.676 53.328c1.347-2.716 3.406-8.79 1.64-13.775.026.05.026.098.026.148-.025-.05-.025-.097-.025-.097s-.318.987-.784 2.543c-.024-.198-.073-.42-.098-.617.123-1.878.074-3.063-.416-5.136-.86-3.654-2.795-6.32-4.02-7.16.05.05.122.1.196.148-.147-.097-.22-.17-.22-.17s.048.27.146.764c-1.323-2.098-3.357-3.086-3.357-3.086s.074.346.172 1.086C73.773 24.27 68.307 22 62.307 22c-6.1 0-11.64 2.345-15.83 6.172.22.27.466.592.71.987 0 0 1.594-.298 3.53-.1 3.356-2.395 7.374-3.68 11.59-3.68 5.39 0 10.437 2.124 14.26 5.95.195.198.39.396.587.618-1.127-.692-2.5-1.482-3.528-1.556 2.107 1.555 5.635 6.492 5.243 13.158-.688-1.703-1.57-2.938-2.28-3.555.76 6.937.097 8.418-.368 10.27-.098-.84-.392-1.48-.588-1.876 0 0-.074 2.172-1.47 5.26-1.054 2.343-2.157 3.06-2.622 2.985-.417-.074-.123-.494-.22-.89 0 0-.736.347-1.446 1.112-.686.716-1.3 1.506-1.617 1.284.244-.196.415-.542.61-.863-.27.198-.954.716-2.473.938-.637.1-3.284.593-6.836-1.21.515-.05 1.3-.246 1.887.1-.588-.643-2.01-.52-3.038-.84-.883-.272-2.06-1.53-2.72-2.173 2.72.667 5.635.198 7.3-.962 1.69-1.16 2.696-2.024 3.603-1.826.906.197 1.494-.716.808-1.506-.685-.815-2.4-1.926-4.68-1.31-1.616.42-3.625 2.223-6.69.396-2.62-1.555-2.595-2.84-2.595-3.63 0-.542.343-1.307.956-1.653.344.126.54.224.54.224s-.147-.246-.245-.37c.024 0 .05-.025.073-.025.27.1.906.32 1.224.493.417.222.564.445.564.445s.098-.074 0-.297c-.05-.097-.196-.344-.613-.616h.025c.22.1.465.198.71.346.074-.372.245-.767.123-1.458-.073-.493-.073-.617-.195-.79-.098-.148.024-.222.196-.074l-.146-.37c0-.025.024-.074.073-.124.49-.69 3.748-2.37 3.993-2.567.32-.222.588-.444.81-.815.317-.197.61-1.11.513-1.777-.05-.395-.343-.47-.808-.568-.172-.05-2.23-.148-3.43-.1-1.03.05-1.765-.567-2.157-1.16-.072-.122-.146-.246-.22-.345-.097-.172-.146-.296-.195-.42.44-1.653 1.372-3.06 2.768-4.22.1-.075-.342.05-.244-.026.098-.098.686-.37.81-.444.146-.074-.638-.296-1.324-.148s-.81.222-1.152.395c.147-.15.613-.397.49-.37-.735.17-1.617.664-2.352 1.183 0-.074 0-.124.025-.223-.343.174-1.2.84-1.42 1.335 0-.1 0-.173-.026-.297-.246.223-.466.494-.687.766-2.205-.543-4.067-.42-5.635.098-.515-.42-1.323-1.185-1.912-2.172-.05-.1-.073.197-.122.1-.342-.62-.636-1.606-.71-2.42 0-.075-.024-.15-.024-.223 0 0-.295.173-.59.69-.146.224-.27.544-.39.915-.075.222-.124.345-.173.47-.024.048.025-.396.025-.37-.074.147-.294.394-.368.69-.05.222-.147.345-.17.617v.023c0-.074 0-.32-.026-.272-.17.47-.343 1.038-.49 1.655-.122.445-.196.963-.245 1.555-.05.668-.074 1.433 0 2.322v.395c-.71.89-1.08 1.605-1.226 1.95-.706 1.433-1.466 3.605-2.054 6.987 0 0 .392-1.26 1.176-2.69v.048c-.588 1.827-1.03 4.64-.76 8.814 0-.15.148-1.21.442-2.667.147 2.837.882 6.343 2.99 10.17 3.478 6.295 10.265 10.69 17.1 11.973-1.2-.346-1.96-1.062-1.96-1.062s4.117 1.334 7.13 1.21c-.93-.172-1.126-.616-1.126-.616s8.55.493 13.01-3.06c1.005-.767 1.642-1.63 1.838-2.42 1.323-.692 2.72-1.655 4.165-3.11 2.426-2.396 2.67-4.223 2.94-5.926 0 .048-.024.097-.024.147.1-.642.026-1.235-.243-1.68v.003z" fill="url(#b)" fill-rule="nonzero"/></g></svg>
