<?xml version="1.0" encoding="utf-8"?>
<svg width="468" height="288" viewBox="0 0 468 288" xmlns="http://www.w3.org/2000/svg">
  <defs>
    <path id="a" d="M0 288h468V0H0z"/>
  </defs>
  <g fill="none" fill-rule="evenodd">
    <path fill="#FF7139" d="M 378 36 L 414.233 36 L 414.233 0 L 378 0 Z" style=""/>
    <path fill="#FF2889" d="M432 90h36V54h-36zM324 198h36V54h-36z"/>
    <g>
      <path d="M 414 0 C 443.824 0 468 24.266 468 54.2 L 432 54.2 C 432 44.222 423.941 36.133 414 36.133 L 414 0 Z" fill="#FF7139" style=""/>
      <mask id="b" fill="#fff">
        <path d="M -1.35 291.242 L 471.591 291.242 L 471.591 -6.229 L -1.35 -6.229 Z"/>
      </mask>
      <path fill="#FF2889" mask="url(#b)" d="M 432 126.166 L 468 126.166 L 468 89.765 L 432 89.765 Z" style=""/>
      <path fill="#971DB5" mask="url(#b)" d="M 54 180 L 414.166 180 L 414.166 144 L 54 144 Z" style=""/>
      <path fill="#FF2889" mask="url(#b)" d="M234 288h72v-36h-72zM468 126c0 29.823-24.176 54-54 54v-36c9.941 0 18-8.059 18-18h36z"/>
      <path d="M378 0c-29.824 0-54 24.177-54 54h36c0-9.941 8.059-18 18-18V0z" fill="#FFA336" mask="url(#b)"/>
      <path fill="#FF7139" mask="url(#b)" d="M 53.22 108 L 162.31 108 L 162.31 72 L 53.22 72 Z" style=""/>
      <path fill="#FFA336" mask="url(#b)" d="M180 234h36V126h-36zM162 72c29.823 0 54 24.177 54 54h-36c0-9.941-8.059-18-18-18V72z"/>
      <path d="M54 72C24.177 72 0 96.177 0 126h36c0-9.941 8.059-18 18-18V72z" fill="#FF7139" mask="url(#b)"/>
      <path d="M0 126c0 29.823 24.177 54 54 54v-36c-9.941 0-18-8.059-18-18H0z" fill="#FF2889" mask="url(#b)"/>
      <path d="M 180 233.789 C 180 263.729 204.177 288 234 288 L 234 251.859 C 224.059 251.859 216 243.769 216 233.789 L 180 233.789 Z" fill="#FF7139" mask="url(#b)" style=""/>
      <path fill="#FF2889" mask="url(#b)" d="M 324 234.278 L 360 234.278 L 360 197.647 L 324 197.647 Z" style=""/>
      <path d="M306 288c29.824 0 54-24.176 54-54h-36c0 9.941-8.059 18-18 18v36z" fill="#971DB5" mask="url(#b)"/>
      <path d="M288 162c0 9.941-8.059 18-18 18s-18-8.059-18-18 8.059-18 18-18 18 8.059 18 18M360 103.5c0 9.941-8.059 18-18 18s-18-8.059-18-18 8.059-18 18-18 18 8.059 18 18M360 216c0 9.941-8.059 18-18 18s-18-8.059-18-18 8.059-18 18-18 18 8.059 18 18M36 126c0 9.941-8.059 18-18 18s-18-8.059-18-18 8.059-18 18-18 18 8.059 18 18M252 270c0 9.941-8.059 18-18 18s-18-8.059-18-18 8.059-18 18-18 18 8.059 18 18" fill="#4A0863" mask="url(#b)"/>
    </g>
  </g>
</svg>
