<svg width="30" height="30" xmlns="http://www.w3.org/2000/svg"><path d="M12.143 22.857a5.001 5.001 0 0 1 4.95 4.286H20a1.43 1.43 0 0 0 1.429-1.429v-5c0-1.177 1.344-1.849 2.286-1.142a2.143 2.143 0 1 0 0-3.43c-.942.707-2.286.035-2.286-1.142v-5A1.43 1.43 0 0 0 20 8.571h-5c-1.177 0-1.85-1.344-1.142-2.286a2.143 2.143 0 1 0-3.43 0c.707.942.035 2.286-1.143 2.286h-5A1.43 1.43 0 0 0 2.857 10v2.908a5.001 5.001 0 0 1 0 9.899v2.907c0 .79.64 1.429 1.429 1.429h2.907a5.001 5.001 0 0 1 4.95-4.286zm12.143 2.857A4.286 4.286 0 0 1 20 30h-4.357c-.903 0-1.58-.828-1.4-1.713a2.143 2.143 0 1 0-4.2 0A1.429 1.429 0 0 1 8.643 30H4.286A4.286 4.286 0 0 1 0 25.714v-4.357c0-.903.828-1.58 1.713-1.4a2.143 2.143 0 1 0 0-4.2A1.429 1.429 0 0 1 0 14.357V10a4.286 4.286 0 0 1 4.286-4.286h2.908a5 5 0 1 1 9.898 0H20A4.286 4.286 0 0 1 24.286 10v2.908a5 5 0 1 1 0 9.898v2.908z" fill="#519BE6"/></svg>