<svg xmlns="http://www.w3.org/2000/svg" xmlns:xlink="http://www.w3.org/1999/xlink" width="78" height="1332">
    <defs>
      <g id="icon-auto-fill">
        <g stroke="#fff" stroke-width="2.7" fill="#fff" fill-rule="evenodd" stroke-linecap="round" stroke-linejoin="round">
            <path d="M55.038 54.61H3.916C2.842 54.61 2 55.346 2 56.2c0 .857.89 1.595 1.916 1.595h51.17c1.075 0 1.914-.738 1.914-1.595 0-.855-.887-1.593-1.962-1.593zM2.046 36.673L2 46.183c0 .536.19 1.072.57 1.463.378.39.85.586 1.372.586l9.184-.048c.52 0 .994-.195 1.373-.585l31.717-32.677c.758-.78.758-2.048 0-2.877l-9.09-9.46c-.758-.78-1.987-.78-2.792 0L27.992 9.17 2.615 35.26c-.33.39-.57.877-.57 1.413zm33.71-29.796l6.39 6.584-3.597 3.706-6.392-6.584 3.597-3.705zM5.975 37.552l23.387-24.09 6.392 6.583-23.387 24.04-6.438.05.046-6.583z"/>
        </g>
      </g>

      <g id="icon-bookmarks">
        <path d="M26.34 5.033C26.65 4.397 27.294 4 28.002 4c.708 0 1.355.397 1.668 1.033l5.972 12.07c.274.544.795.922 1.4 1.012l13.37 1.935c.7.1 1.28.59 1.498 1.26.217.67.035 1.407-.47 1.9l-9.668 9.394c-.44.423-.637 1.037-.536 1.637l2.28 13.27c.12.695-.168 1.395-.74 1.815-.57.412-1.328.468-1.956.14l-11.953-6.263c-.54-.288-1.188-.288-1.73 0L15.18 49.46c-.623.333-1.38.277-1.957-.135-.57-.42-.855-1.12-.738-1.816l2.28-13.27c.105-.6-.097-1.213-.53-1.636L4.56 23.21c-.505-.493-.687-1.23-.47-1.9.218-.67.8-1.16 1.502-1.26l13.365-1.935c.606-.09 1.133-.468 1.4-1.013l5.982-12.07z" stroke="#fff" stroke-width="7" fill="none" fill-rule="evenodd" stroke-linecap="round" stroke-linejoin="round"/>
      </g>

      <g id="icon-extensions">
        <path d="M31.875 22.5c-1.027-.02-1.855-.848-1.875-1.875V12.5c0-1.38-1.12-2.5-2.5-2.5h-8.125c-1.027-.02-1.855-.848-1.875-1.875C17.5 6.25 20 6.178 20 3.75 20 1.588 17.75 0 15 0s-5 1.588-5 3.75c0 2.428 2.5 2.5 2.5 4.375-.02 1.027-.848 1.855-1.875 1.875H2.5C1.12 10 0 11.12 0 12.5v5.625C.02 19.152.848 19.98 1.875 20c1.875 0 1.948-2.5 4.375-2.5 2.162 0 3.75 2.25 3.75 5s-1.588 5-3.75 5c-2.427 0-2.5-2.5-4.375-2.5C.848 25.02.02 25.848 0 26.875V37.5C0 38.88 1.12 40 2.5 40h8.125c1.027-.02 1.855-.848 1.875-1.875 0-1.875-2.5-1.947-2.5-4.375 0-2.162 5-3.75 5-3.75s5 1.588 5 3.75c0 2.428-2.5 2.5-2.5 4.375.02 1.027.848 1.855 1.875 1.875H27.5c1.38 0 2.5-1.12 2.5-2.5v-8.125c.02-1.027.848-1.855 1.875-1.875 1.875 0 1.947 2.5 4.375 2.5 2.162 0 3.75-2.25 3.75-5s-1.588-5-3.75-5c-2.428 0-2.5 2.5-4.375 2.5z" fill-rule="nonzero" fill="#fff"/>
      </g>

      <g id="icon-history">
        <g stroke-width="3" stroke="#fff" fill="#fff" fill-rule="evenodd">
          <path d="M31.926 2.29C18.22 2.29 7.068 13.47 7.072 27.15c-.013.214-.135 3.835.893 7.734l-3.35-1.955c-.833-.488-1.89-.21-2.38.624-.48.83-.202 1.9.63 2.387l7.842 4.59c.018.007.034.007.05.015.085.047.17.077.262.11.058.022.118.043.18.06.077.016.148.02.223.03.055.003.11.02.165.02.03 0 .054-.012.09-.012.028 0 .053.004.083.004.043-.004.08-.026.123-.03.084-.017.164-.034.245-.06.066-.025.134-.05.197-.08.072-.038.14-.076.207-.118.063-.043.122-.085.177-.132.06-.05.112-.11.167-.168.05-.055.097-.115.14-.178.02-.033.054-.06.075-.093.013-.03.013-.06.026-.085.024-.05.062-.093.084-.144l3.116-7.747c.363-.896-.067-1.91-.955-2.274-.894-.356-1.905.072-2.267.967l-1.6 3.98c-1.07-3.59-.948-7.275-.944-7.377 0-11.825 9.587-21.44 21.374-21.44 11.792 0 21.38 9.615 21.38 21.44 0 11.822-9.588 21.437-21.38 21.437-.96 0-1.74.782-1.74 1.745 0 .963.78 1.745 1.74 1.745 13.708 0 24.86-11.183 24.86-24.927 0-13.748-11.152-24.93-24.86-24.93z"/><path d="M31.25 30.98c.183.077.37.104.564.116.04 0 .077.022.116.022.213 0 .415-.047.606-.116.056-.02.108-.048.16-.073.146-.073.28-.16.406-.27.03-.026.065-.034.096-.06l11.144-11.027c.7-.69.7-1.806 0-2.498-.696-.688-1.825-.688-2.525 0L31.515 27.263l-9.246-3.828c-.914-.377-1.956.047-2.337.945-.38.903.048 1.938.956 2.315L31.24 30.98h.01z"/>
        </g>
      </g>

      <g id="icon-passwords">
        <g stroke-width="3" stroke="#FFF" fill="#FFF" fill-rule="evenodd">
          <path d="M20.478 17.8c-2.04-2.04-5.38-2.04-7.422 0s-2.042 5.38 0 7.422c2.04 2.042 5.38 2.042 7.422 0 2.04-2.04 2.04-5.38 0-7.422zm-5.567 5.567c-1.02-1.02-1.02-2.692 0-3.712s2.692-1.02 3.713 0c1.02 1.02 1.02 2.69 0 3.712-1.02 1.02-2.692 1.02-3.712 0zM18.78 10.226c.23.695.927 1.113 1.62.883.695-.23 1.528-.322 2.5-.274 2.224.004 4.308.703 6.025 2.142.556.464 1.39.373 1.85-.182.417-.51.37-1.296-.095-1.76l-.092-.092c-2.226-1.764-4.82-2.695-7.692-2.7-1.204-.003-2.27.134-3.24.456-.695.045-1.064.785-.877 1.526z"/>
          <path d="M7.916 35.636c7.82 7.82 20.563 7.874 28.317.12 1.786-1.786 3.145-3.81 4.127-6.023l26.287.064c1.416.006 2.83-.554 3.77-1.494l5.497-5.498c.517-.517.514-1.367-.007-1.888l-5.546-5.545c-1.04-1.043-2.413-1.568-3.78-1.527l-5.003-.02c-.284-.002-.472.092-.66.186l-2.636 1.594-2.65-1.616c-.236-.143-.472-.19-.66-.192l-2.643-.01c-.283-.002-.52.044-.708.232l-1.224.844-1.23-.854c-.237-.143-.473-.19-.71-.24l-7.928-.033c-.954-2.27-2.426-4.4-4.274-6.248-7.82-7.82-20.563-7.875-28.317-.12-7.754 7.753-7.84 20.448-.02 28.27zM47.902 16.41l1.656 1.092c.473.285 1.04.288 1.51.006l1.553-1.08 1.888.01 3.076 1.853c.426.24.945.288 1.416.007l3.06-1.828 4.72.02c.896-.044 1.51.383 1.843.715l4.55 4.55-4.56 4.56c-.47.468-1.175.702-1.883.745l-25.437.034c.93-3.49.96-7.216 0-10.713l6.61.03zm-13.67-7.09c4.977 4.976 6.33 12.155 4.043 18.328-.093.188-.14.33-.234.517-.84 2.073-2.106 4.003-3.75 5.648-6.72 6.72-17.764 6.672-24.54-.105-6.78-6.777-6.827-17.82-.106-24.54 6.768-6.674 17.81-6.626 24.59.152z"/>
        </g>
      </g>

      <g id="icon-private-browsing">
        <path d="M29.47 19c-3.95 0-6.682-4.75-10.47-4.75-3.788 0-6.754 4.75-10.47 4.75C3.66 19 .06 14.384 0 6.478-.034 1.568 1.427.002 7.756.002c6.33 0 8.18 2.59 11.245 2.59C22.066 2.59 23.918 0 30.245 0c6.327 0 7.79 1.567 7.754 6.476C37.94 14.384 34.34 19 29.47 19zM10.185 6.044C6.513 6.204 5 8.394 5 8.936 5 9.476 7.434 11 9.814 11S15 10.128 15 9.35c-.502-2.188-2.595-3.625-4.814-3.306zm16.63 0c-2.22-.32-4.314 1.117-4.816 3.305 0 .778 2.804 1.65 5.186 1.65S32 9.476 32 8.936s-1.513-2.732-5.186-2.89h.002z" fill-rule="nonzero" fill="#fff"/>
      </g>

      <g id="icon-rocket">
        <g fill="#FFF" fill-rule="evenodd">
          <path d="M10.622 38.457v2.657c0 .49.386.886.86.886.477 0 .862-.397.862-.886v-2.657c0-.49-.385-.886-.86-.886-.476 0-.862.398-.862.887M17.656 38.457v2.657c0 .49.385.886.86.886.476 0 .862-.397.862-.886v-2.657c0-.49-.386-.886-.86-.886-.477 0-.862.398-.862.887M14.067 38.43v.856c0 .473.386.857.86.857.477 0 .862-.384.862-.857v-.857c0-.475-.386-.86-.862-.86-.475 0-.86.385-.86.86M.963 32.227c.262.135.545.202.827.202.36 0 .72-.11 1.026-.324l4.79-3.33c.108.172.2.35.316.52.112.166.215.335.317.504H21.76c.106-.176.214-.352.33-.526.11-.163.2-.332.303-.497l4.79 3.33c.306.213.665.322 1.025.322.282 0 .565-.068.826-.203.595-.308.964-.912.964-1.578V27.12c0-6.21-3.34-9.27-4.462-10.125-.32-5.584-3.054-11.038-8.022-15.167L15.566.205c-.327-.273-.805-.273-1.133 0l-1.95 1.624C7.52 5.956 4.786 11.41 4.467 16.993 3.346 17.844 0 20.904 0 27.122v3.527c0 .665.37 1.27.963 1.577zm27.272-5.105l-.04 3.547-4.913-3.416c.638-1.218 1.15-2.502 1.525-3.823.188-.66.343-1.33.463-2.007.11-.625.067-1.407.275-1.993.83.6 1.426 1.958 1.8 2.874.625 1.526.89 3.177.89 4.818zM15 7.888c1.946 0 3.53 1.573 3.53 3.506 0 1.933-1.584 3.506-3.53 3.506-1.947 0-3.53-1.573-3.53-3.506 0-1.933 1.583-3.506 3.53-3.506zm0 10.518c1.946 0 3.53 1.572 3.53 3.506 0 1.932-1.584 3.506-3.53 3.506-1.947 0-3.53-1.574-3.53-3.506 0-1.934 1.583-3.506 3.53-3.506zM1.765 27.122c0-1.64.266-3.292.89-4.818.374-.917.97-2.274 1.8-2.874.184.52.147 1.213.24 1.77.104.63.24 1.255.403 1.873.383 1.445.927 2.85 1.62 4.176l-4.953 3.4V27.12z"/>
          <path d="M15 23.714c.99 0 1.794-.8 1.794-1.785 0-.986-.804-1.787-1.794-1.787s-1.794.8-1.794 1.786c0 .983.804 1.784 1.794 1.784M15 13.143c.99 0 1.794-.8 1.794-1.786 0-.985-.804-1.786-1.794-1.786s-1.794.802-1.794 1.787c0 .985.804 1.786 1.794 1.786M20.197 35.833v-.978c0-1.183.21-2.325.616-3.426H9.043c.404 1.095.614 2.24.614 3.424v.98c0 .486.393.88.878.88h8.783c.485 0 .88-.394.88-.88"/>
        </g>
      </g>

      <g id="icon-themes">
        <path d="M11.264 27.95c-2.496.005-4.688 1.648-5.38 4.032 0 .028-.04.042-.05.07-1.02 3.18-1.985 5.91-4.953 7.207l-.063.032-.068.034c-.458.24-.746.712-.75 1.227 0 .773.63 1.4 1.408 1.4 4.898.338 9.745-1.16 13.587-4.2.017-.018.02-.037.037-.054 1.743-1.546 2.342-4.004 1.505-6.172-.838-2.167-2.938-3.593-5.273-3.58zM44.19.8c-1.028-1.017-2.67-1.074-3.767-.13L17.808 20.28c-.576.5-.918 1.217-.944 1.977-.026.76.266 1.498.806 2.037l2.906 2.887c.518.513 1.22.802 1.952.803h.093c.765-.026 1.485-.365 1.99-.938L44.32 4.552c.954-1.09.898-2.728-.13-3.75z" fill-rule="nonzero" fill="#fff"/>
      </g>

      <g id="icon-toolbar">
        <path d="M42.188 19.688H36.28c-.36-1.76-1.06-3.435-2.058-4.93l4.19-4.19c1.067-1.105 1.052-2.86-.033-3.944-1.086-1.085-2.84-1.1-3.944-.034l-4.19 4.19c-1.497-.998-3.172-1.698-4.933-2.06V2.81C25.313 1.26 24.052 0 22.5 0c-1.553 0-2.813 1.26-2.813 2.813v5.906c-1.76.36-3.434 1.06-4.93 2.058l-4.19-4.19c-1.1-1.1-2.88-1.1-3.98 0-1.097 1.1-1.096 2.88.003 3.98l4.19 4.19c-.998 1.495-1.698 3.17-2.06 4.93H2.81C1.26 19.688 0 20.948 0 22.5c0 1.553 1.26 2.813 2.813 2.813h5.906c.362 1.77 1.066 3.455 2.072 4.958-.04.038-.09.05-.127.085l-4.078 4.078c-.73.707-1.024 1.752-.767 2.736.257.982 1.025 1.75 2.01 2.007.982.258 2.028-.036 2.734-.767l4.078-4.078c.036-.036.05-.087.084-.126 1.504 1.006 3.19 1.71 4.96 2.075l.002 5.907c0 1.554 1.26 2.813 2.812 2.813 1.553 0 2.813-1.26 2.813-2.813v-5.906c1.76-.36 3.434-1.06 4.93-2.058l4.19 4.19c1.104 1.067 2.858 1.052 3.943-.033 1.085-1.086 1.1-2.84.034-3.944l-4.19-4.19c.998-1.497 1.698-3.172 2.06-4.933h5.907c1.554 0 2.813-1.26 2.813-2.813 0-1.553-1.26-2.813-2.813-2.813zM14.06 22.5c0-4.66 3.778-8.438 8.438-8.438s8.438 3.778 8.438 8.438-3.778 8.438-8.438 8.438-8.438-3.778-8.438-8.438z" fill-rule="nonzero" fill="#fff" />
      </g>

      <g id="icon-tracking-protection">
        <g fill="#FFF" fill-rule="evenodd">
          <path d="M14.174.112v2.895l11.07 1.77c0 12.024-.46 14.647-3.28 19.04-2.818 4.394-7.79 5.28-7.79 5.28V32l.465-.083c.25-.045 6.18-1.155 9.616-6.512 3.374-5.257 3.74-8.825 3.74-20.627V4.14c0-1.044-.733-1.934-1.728-2.093L14.174.112zM0 4.14v.638c0 11.802.372 15.37 3.788 20.627 3.48 5.357 9.485 6.467 9.74 6.512l.47.083v-2.903s-5.034-.885-7.89-5.28c-2.855-4.393-3.32-7.016-3.32-19.04l11.21-1.77V.112L1.752 2.047C.744 2.207 0 3.097 0 4.14"/>
          <path d="M14 5L4 6.468c.036 10.124.527 12.388 3.172 16.17C9.325 25.716 12.96 26.758 14 27V5z"/>
        </g>
      </g>

    </defs>

    <use x="9.5" y="0" width="59" height="60" xlink:href="#icon-auto-fill" />
    <use x="11" y="160" width="56" height="54" xlink:href="#icon-bookmarks" />
    <use x="19" y="314" width="40" height="40" xlink:href="#icon-extensions" />
    <use x="9.5" y="454" width="59" height="54" xlink:href="#icon-history" />
    <use x="0" y="608" width="78" height="44" xlink:href="#icon-passwords" />
    <use x="20" y="752" width="38" height="19" xlink:href="#icon-private-browsing" />
    <use x="24" y="871" width="30" height="42" xlink:href="#icon-rocket" />
    <use x="16.5" y="1013" width="45" height="42" xlink:href="#icon-themes" />
    <use x="16.5" y="1155" width="45" height="45" xlink:href="#icon-toolbar" />
    <use x="25" y="1300" width="28" height="32" xlink:href="#icon-tracking-protection" />
</svg>
