<svg width="30" height="30" xmlns="http://www.w3.org/2000/svg"><defs><linearGradient x1="6.042%" y1="33.952%" y2="33.952%" id="a"><stop stop-color="#FF2889" offset="0%"/><stop stop-color="#F9522D" offset="100%"/></linearGradient></defs><path d="M3.249 15.136l6.317 3.157c.142.07.272.164.385.277l1.485 1.483c.113.113.207.243.279.386l3.16 6.32 2.929-.82v-7.061c0-.426.183-.832.503-1.113 4.41-3.881 9.932-13.794 8.833-14.893-1.038-1.037-10.26 4.195-14.963 8.898a1.484 1.484 0 0 1-1.05.434h-7.04l-.838 2.932zm4.775 5.702l-7.204-3.6a1.483 1.483 0 0 1-.763-1.734l1.484-5.19a1.484 1.484 0 0 1 1.427-1.075h7.553C16.569 3.398 26.394-2.068 29.238.775c2.88 2.88-2.944 13.574-8.467 18.758v7.531c0 .665-.443 1.249-1.084 1.428l-5.192 1.453a1.484 1.484 0 0 1-1.727-.765l-3.6-7.2-1.144-1.142zM4.427 25.75c.762-.109 1.858-.397 3.264-.865a1.484 1.484 0 0 1 .939 2.813c-3.64 1.213-5.601 1.493-6.711.384-1.11-1.11-.83-3.07.383-6.708a1.484 1.484 0 0 1 2.815.938c-.469 1.405-.757 2.5-.866 3.262a5.86 5.86 0 0 0-.025.202 7.02 7.02 0 0 0 .201-.026zM20.03 12.204a2.225 2.225 0 1 1 0-4.45 2.225 2.225 0 0 1 0 4.45z" fill="url(#a)"/></svg>