<svg width="29" height="28" xmlns="http://www.w3.org/2000/svg"><path d="M4.901 20.95a2.776 2.776 0 0 1 2.655-2.034 2.77 2.77 0 0 1 2.6 1.804 2.846 2.846 0 0 1-.742 3.111c-.008.009-.01.019-.018.027a9.578 9.578 0 0 1-6.702 2.118A.7.7 0 0 1 2 25.27a.708.708 0 0 1 .37-.618l.033-.017.032-.017c1.464-.654 1.94-2.03 2.443-3.633.004-.015.023-.022.023-.036zM23.528 2.705c.926-.941 1.852-.941 2.778 0 .925.941.925 1.883 0 2.824L15.889 17.533c-1.389.47-2.546.235-3.472-.706-.926-.941-1.158-2.118-.695-3.53l11.806-10.59z" stroke="#519BE6" stroke-width="2.778" fill="none"/></svg>