<svg xmlns="http://www.w3.org/2000/svg" viewBox="0 0 17 20" width="17" height="20">
  <path fill="#D70022" d="M16.9 2.9c-.1.1-.1.2-.2.3-.1.1-.1.2-.2.3v.2c-1 1-2 2.1-3 3.2s-1.9 2.2-2.7 3.3c.6.8 1.2 1.6 1.9 2.4.6.8 1.3 1.6 2 2.4-.2.5-.3.8-.5 1.1s-.4.3-.6.4c-.1.1-.2.2-.2.3-.1.1-.1.3-.1.4v.1c-.1.1-.2.1-.3.3s-.3.2-.4.3c-.1-.1-.3-.1-.4-.2s-.3-.2-.4-.3c-.1.2-.2.3-.4.5-.1.1-.3.3-.5.4l-.3-.1c-.5-.6-1-1.2-1.5-1.9s-.9-1.4-1.4-2.1c-.8 1-1.6 2-2.2 2.9s-1.4 1.8-2 2.6h-.4l-.5-.6.1-.4-.2-.1c-.1 0-.2 0-.2.1s-.3 0-.5.1l-.6-.6c-.2-.2-.3-.5-.4-.7.1-.2.1-.4.2-.5.1-.2.1-.3.1-.3 0-.1-.1-.2-.2-.5s-.2-.4-.2-.6c.7-.8 1.4-1.7 2.1-2.6.8-.9 1.6-1.8 2.4-2.8-.6-1-1.1-2.2-1.6-3.3s-.9-2.4-1.3-3.6c.1-.2.3-.4.4-.5.1-.2.3-.4.5-.5.2.1.3.2.3.3s.1.1.2.2c.1 0 .1-.1.2-.1s.1-.2.2-.2v-.4c0-.1.1-.2.2-.3l.5-.1c.3.2 1 1.1 2 2.6.7 1 1.2 1.8 1.6 2.5l3-3.3c1-1 2.1-2 3.2-3 .2.1.4.2.6.4s.3.3.4.5l-.2.3c.1.2.1.3.2.3s.1.1.2.2h.5l.6.7z"/>
</svg>
