<svg version="1.1" id="Layer_1" xmlns="http://www.w3.org/2000/svg" x="0" y="0" viewBox="0 0 661.5 145.3" style="enable-background:new 0 0 661.5 145.3" xml:space="preserve"><style>.st0{fill:#fff}</style><path d="m49.6 0 21.2 93.7h5L97 0h49.6v143.2h-26.5V22h-5L86.5 143.2H60.1L31.5 22h-5v121.2H0V0h49.6zm165.2 29c33.6 0 52.7 20.6 52.7 58.2s-19.1 58.2-52.7 58.2-52.7-20.6-52.7-58.2S181.2 29 214.8 29zm0 94.9c16.4 0 24.6-9.2 24.6-28.6V79c0-19.3-8.2-28.6-24.6-28.6-16.4 0-24.6 9.2-24.6 28.6v16.4c.1 19.3 8.2 28.5 24.6 28.5zm62.4-.6L334.5 51H278V31.1h88.2V51l-57.3 72.2h58.2v19.9h-89.9v-19.8zm102.9-92.2h38.6v112.1h-26.5V51H380V31.1zM392.3 0h26.5v19.9h-26.5V0zm43.6 0h38.6v143.2H448V19.9h-12.2V0zm55.9 0h38.6v143.2H504V19.9h-12.2V0zM592 29c16.6 0 27.5 8.2 30.7 20.8h5V31.1h33.8V51h-12.2v72.2h12.2v19.9h-17c-10.9 0-16.8-5.9-16.8-16.8v-1.9h-5c-3.2 12.6-14.1 20.8-30.7 20.8-26.2 0-44.7-22.3-44.7-58.2-.1-35.8 18.4-58 44.7-58zm7.1 94.9c16 0 23.7-9.2 23.7-28.6V79c0-19.3-7.8-28.6-23.7-28.6-16 0-23.7 9.2-23.7 28.6v16.4c0 19.3 7.7 28.5 23.7 28.5z"/></svg>
