<svg xmlns="http://www.w3.org/2000/svg" width="120" height="139" fill="none"><path fill="#7BC876" d="M119.244 0H.756A.756.756 0 0 0 0 .756v137.208c0 .417.339.756.756.756h118.488a.757.757 0 0 0 .756-.756V.756a.757.757 0 0 0-.756-.756Z"/><path fill="#272A2F" d="M18.677 15A3.677 3.677 0 0 0 15 18.677v101.488a3.677 3.677 0 0 0 3.677 3.676h37.647a3.677 3.677 0 0 0 3.677-3.676v-11.488A3.678 3.678 0 0 1 63.678 105h37.648a3.676 3.676 0 0 0 3.676-3.677V18.676a3.677 3.677 0 0 0-3.676-3.677h-82.65V15Z"/><path fill="#fff" d="M90 30.608v58.786a.606.606 0 0 1-.606.606H45.606a.606.606 0 0 0-.606.606v17.628a.606.606 0 0 1-.606.606H30.606a.606.606 0 0 1-.606-.606V30.725c0-.334.27-.605.605-.606l58.788-.117c.335 0 .607.27.607.606Z"/><path fill="#272A2F" d="M74.392 45H45.609a.608.608 0 0 0-.609.608v28.783c0 .336.273.609.608.609h28.784A.608.608 0 0 0 75 74.39V45.608a.608.608 0 0 0-.608-.608Z"/></svg>