<svg xmlns="http://www.w3.org/2000/svg" width="776.691" height="763.638" viewBox="0 0 205.499 202.046"><defs><linearGradient y2="42.053" x2="39.679" y1="201.907" x1="199.533" gradientUnits="userSpaceOnUse" id="e"><stop style="stop-color:#130036" offset="0"/><stop style="stop-color:#18023b" offset=".23"/><stop style="stop-color:#26094a" offset=".512"/><stop style="stop-color:#3d1563" offset=".821"/><stop style="stop-color:#4e1d75" offset="1"/></linearGradient><linearGradient y2="95.311" x2="57.704" y1="95.311" x1="10.243" gradientUnits="userSpaceOnUse" id="f"><stop style="stop-color:#3156a8" offset="0"/><stop style="stop-color:#3351a4" offset=".247"/><stop style="stop-color:#3b4397" offset=".536"/><stop style="stop-color:#472c82" offset=".845"/><stop style="stop-color:#4e1d75" offset="1"/></linearGradient><linearGradient y2="57.897" x2="191.515" y1="57.897" x1="44.539" gradientUnits="userSpaceOnUse" id="h"><stop style="stop-color:#2061bd" offset="0"/><stop style="stop-color:#2b51ac" offset=".185"/><stop style="stop-color:#442c84" offset=".683"/><stop style="stop-color:#4e1d75" offset=".941"/></linearGradient><linearGradient y2="111.082" x2="167.264" y1="23.206" x1="66.174" gradientUnits="userSpaceOnUse" id="i"><stop style="stop-color:#48a8e0" offset=".02"/><stop style="stop-color:#2061bd" offset=".388"/><stop style="stop-color:#2b51ac" offset=".497"/><stop style="stop-color:#442c84" offset=".789"/><stop style="stop-color:#4e1d75" offset=".941"/></linearGradient><linearGradient y2="43.631" x2="217.835" y1="337.414" x1="19.676" gradientUnits="userSpaceOnUse" id="j"><stop style="stop-color:#3156a8" offset=".379"/><stop style="stop-color:#4e1d75" offset="1"/></linearGradient><linearGradient y2="32.542" x2="206.317" y1="278.646" x1="96.745" gradientUnits="userSpaceOnUse" id="k"><stop style="stop-color:#29abe2" offset="0"/><stop style="stop-color:#385aa6" offset=".773"/><stop style="stop-color:#414293" offset=".858"/><stop style="stop-color:#4e1d75" offset="1"/></linearGradient><linearGradient y2="95.468" x2="54.241" y1="92.034" x1="48.269" gradientUnits="userSpaceOnUse" id="l"><stop style="stop-color:#b0dcd6" offset="0"/><stop style="stop-color:#53ace0" offset="1"/></linearGradient><linearGradient y2="20.555" x2="164.24" y1="23.085" x1="176.214" gradientUnits="userSpaceOnUse" id="n"><stop style="stop-color:#3092b9" offset="0"/><stop style="stop-color:#258db6" offset=".22"/><stop style="stop-color:#1685b1" offset=".656"/><stop style="stop-color:#1082af" offset="1"/></linearGradient><linearGradient y2="77.544" x2="90.637" y1="38.025" x1="80.784" gradientUnits="userSpaceOnUse" id="o"><stop style="stop-color:#1398d1;stop-opacity:0" offset=".007"/><stop style="stop-color:#1187c2;stop-opacity:.6197" offset=".248"/><stop style="stop-color:#3f6499;stop-opacity:.71" offset=".642"/><stop style="stop-color:#2f4282;stop-opacity:.5" offset="1"/></linearGradient><linearGradient gradientTransform="rotate(1.985 -1624.088 732.523)" y2="11.303" x2="43.199" y1="14.373" x1="48.738" gradientUnits="userSpaceOnUse" id="p"><stop style="stop-color:#f9c21b" offset="0"/><stop style="stop-color:#f3ba1b" offset=".148"/><stop style="stop-color:#e3a41b" offset=".379"/><stop style="stop-color:#c9801c" offset=".663"/><stop style="stop-color:#a44e1c" offset=".988"/><stop style="stop-color:#a34c1c" offset="1"/></linearGradient><linearGradient y2="47.526" x2="169.43" y1="130.139" x1="206.211" gradientUnits="userSpaceOnUse" id="q"><stop style="stop-color:#409ec3" offset="0"/><stop style="stop-color:#2061bd" offset=".62"/></linearGradient><linearGradient y2="21.954" x2="150.407" y1="103.061" x1="176.76" gradientUnits="userSpaceOnUse" id="r"><stop style="stop-color:#14b2da" offset="0"/><stop style="stop-color:#297ccc" offset=".403"/><stop style="stop-color:#256fc5" offset=".508"/><stop style="stop-color:#2164bf" offset=".649"/><stop style="stop-color:#2061bd" offset=".816"/><stop style="stop-color:#2061bd" offset=".984"/></linearGradient><radialGradient gradientUnits="userSpaceOnUse" r="51.967" cy="67.998" cx="154.384" id="b"><stop style="stop-color:#fff" offset=".868"/><stop style="stop-color:#000" offset="1"/></radialGradient><radialGradient gradientUnits="userSpaceOnUse" gradientTransform="matrix(1 0 0 1.45 0 -51.265)" r="85.247" cy="113.923" cx="59.073" id="g"><stop style="stop-color:#14cdda" offset=".165"/><stop style="stop-color:#2061bd" offset=".548"/><stop style="stop-color:#2658ac" offset=".655"/><stop style="stop-color:#373f81" offset=".864"/><stop style="stop-color:#432d62" offset="1"/></radialGradient><filter height="6.629" width="14.927" y="18.355" x="162.68" filterUnits="userSpaceOnUse" id="a"><feColorMatrix values="1 0 0 0 0 0 1 0 0 0 0 0 1 0 0 0 0 0 1 0"/></filter><filter height="6.629" width="14.927" y="18.355" x="162.68" filterUnits="userSpaceOnUse" id="c"><feColorMatrix values="1 0 0 0 0 0 1 0 0 0 0 0 1 0 0 0 0 0 1 0"/></filter><mask id="m" height="6.629" width="14.927" y="18.355" x="162.68" maskUnits="userSpaceOnUse"><g class="st13" style="filter:url(#c)"><radialGradient gradientUnits="userSpaceOnUse" r="51.967" cy="67.998" cx="154.384" id="d"><stop style="stop-color:#fff" offset=".868"/><stop style="stop-color:#000" offset="1"/></radialGradient><path class="st14" style="fill:url(#d)" d="M91.295-7.218H191.31v93.339H91.295z"/></g></mask></defs><g transform="matrix(.83212 0 0 .83212 0 0)"><path d="M188.887 35.492c-14.501-9.472-33.046-12.538-43.281-13.609-10.954-1.145-20.468-.943-28.836.285-.709-.009-1.414-.037-2.127-.037-.544 0-1.08.023-1.627.029.225-.275.381-.445.381-.445s-.44.069-1.304.46c-2.717.044-5.421.138-8.085.32 3.711-4.068 6.751-6.2 6.751-6.2s-3.608.528-10.192 6.496c-3.132.288-6.221.67-9.258 1.145 6.918-9.362 14.155-13.304 14.155-13.304s-8.772-1.786-22.507 12.016a60.522 60.522 0 0 0-3.246 3.572C39.68 35.907 11.03 61.758 11.03 92.139c0 5.958-1.829 12.511.143 19.054-.788 10.453.89 38.975.89 38.975s10.837 58.649 52.51 68.846c.662.158-8.707-14.62-12.851-32.442 8.069 8.208 17.685 14.699 28.478 15.824 1.325.137-6.165-8.64-12.725-19.234l94.698 31.906c49.529-21.274 43.763-19.357 54.397-30.875 23.428-25.36 26.708-39.75 20.806-82.235-3.993-28.679-25.16-57.083-48.489-66.466z" class="st1" style="fill:url(#e)"/><path class="st2" style="fill:#fbfbfb" d="m172.911 219.015 29.028-123.424L22.687 62.276 8.546 142.68l7.841 24.294z"/><path d="M23.128 65.01c.785 1.689.554 2.089.065 2.089-.22 0-.492-.081-.747-.161-.255-.081-.494-.161-.648-.161-.433 0-.189.639 2.263 3.72 3.468 4.406 54.399 81.293 57.182 81.293a.125.125 0 0 0 .04-.006c23.71-8.448 124.543-43.058 124.543-43.058L195.51 93.697 23.128 65.01" class="st3" style="fill:#999"/><path d="M24.607 63.121s.76 3.932 4.281 8.284c3.5 4.392 50.51 75.571 52.869 74.944 30.795-8.176 142.525-51.674 142.525-51.674z" class="st4" style="fill:#f8f8f8"/><path class="st3" style="fill:#999" d="m19.094 171.178 149.882 49.834-1.655-3.851-148.753-49.458z"/><path d="M57.704 59.795s-54.122 15.85-29.288 71.033c0 0-11.387-10.426-18.167-23.757-.305-.597 11.301-41.829 11.301-41.829Z" class="st5" style="fill:url(#f)"/><path d="M28.416 130.828c-4.707-.081-12.269-3.964-14.722-8.665-3.066 51.098 17.782 80.939 50.88 96.853C53.759 217.776 0 189.407 0 121.14 0 63.093 46.06 11.208 118.142 8.831c.442 3.254-35.736 11.414-36.893 15.251-1.796 5.972-5.924 12.473-9.406 17.684-4.718 7.061 6.557 13.099-1.729 15.001-12.468 2.861-29.098 1.277-41.361 17.219-18.434 23.965-6.133 51.379-.337 56.842Z" class="st6" style="fill:url(#g)"/><path d="M137.048 10.699c-46.682-3.582-70.707 15.097-86.13 36.817-5.617 7.906-5.002 15.166-3.068 23.937.831 3.744 1.671 5.538.659 9.355-.558 2.106-.465 4.072-1.158 5.314-.959 1.717-2.18 3.594-2.589 6.677-1.022 7.699 1.703 10.151 3.406 12.741 2.426-2.409 7.165-8.079 15.71-11.466 8.545-3.387 14.167-8.477 24.876-13.941 14.632-7.463 31.782 3.859 64.3-6.796 10.006-3.279 33.002-37.344 38.461-38.652-15.203-16.812-41.067-22.959-54.467-23.986Z" class="st7" style="fill:url(#h)"/><path d="M106.207.032s-8.335 4.026-11.965 11.301c8.381-4.225 13.246-6.533 15.546-6.808 0 0-2.203 1.067-4.935 6.87 4.83-1.547 6.493-2.522 7.819-2.537 0 0-.385.61-.737 6.402-7.417-2.404-21.693.397-29.287 5.153C80.072 6.678 106.207.032 106.207.032Z" class="st8" style="fill:#3f6499"/><path d="M139.379 8.63c-14.309-1.854-26.27-1.489-36.439.47 3.198-3.065 6.898-4.575 6.898-4.575-4.795.424-10.781 3.554-15.917 6.868a71.737 71.737 0 0 0-7.39 2.799c1.43-1.885 3.094-3.899 4.72-5.445C97.29 3.004 106.257.032 106.257.032 98.603-.53 72.989 6.027 57.576 37.245c-2.526 3.077-4.883 6.235-7.129 9.398-5.798 8.164-5.162 15.658-3.162 24.715.852 3.867 1.009 10.04.168 14.029-.168.799-2.363 2.863-2.926 8.428-.602 5.905 1.505 8.804 3.582 11.203 7.38-10.792 14.661-12.931 14.661-12.931 10.33-4.232 14.63-8.752 25.688-14.393 15.108-7.709 67.939 17.45 101.512 6.448 10.332-3.384-3.977-47.359 1.663-48.709-15.699-17.36-38.494-25.02-52.254-26.803Z" class="st9" style="fill:url(#i)"/><path d="M244.176 103.288c-8.276-43.237-48.096-82.572-80.117-84.752-14.211-.968-9.847 6.319-18.739 9.094-38.32 11.959-38.906 18.941-38.906 18.941 81.252 3.819 82.484 84.064 60.724 104.366 6.123-1.428 12.762-8.914 18.859-20.666-.732 4.931-1.36 10.98-2.274 17.729-2.788 20.595.823 63.614-58.356 92.405 0 0 32.372-2.646 48.425-20.717-6.528 15.012-24.441 23.121-24.441 23.121 13.182-1.928 47.81-12.146 69.868-39.732 24.966-31.225 32.474-60.519 24.957-99.789z" class="st10" style="fill:url(#j)"/><path d="M164.993 182.221s26.396-7.38 34.903-21.633c-1.032 16.619-16.107 33.662-16.107 33.662s22.038-4.46 31.436-19.968c-1.224 13.994-18.191 32.907-18.191 32.907 17.346-3.113 60.93-30.645 47.143-103.901-8.142-43.262-48.096-82.572-80.117-84.752-14.211-.968-9.847 6.319-18.739 9.094-38.32 11.959-38.906 18.941-38.906 18.941 81.252 3.819 102.844 46.344 60.724 103.231 6.123-1.429 8.578-4.794 13.178-10.301-.002 0 2.084 21.78-15.324 42.72z" class="st11" style="fill:url(#k)"/><path d="M60.609 85.567s-4.719 3.301-8.136 2.46c-4.045-.993-4.73-4.913-4.73-4.913-.089.803-.192 1.578-.341 2.273-.168.799-2.363 2.863-2.926 8.428-.602 5.905 1.615 9.325 3.692 11.724C55.549 94.747 62.72 92.087 62.72 92.087c-2.809-.982-2.111-6.52-2.111-6.52z" class="st12" style="fill:url(#l)"/><g mask="url(#m)" class="st15"><g class="st16" style="opacity:.6"><g class="st17" style="opacity:.2"><path d="M163.513 18.434c1.106-.287 5.621.204 8.584 1.533 2.964 1.329 8.073 3.679 3.986 4.701-4.088 1.022-6.438-.613-8.482-2.351-2.044-1.738-6.847-3.168-4.088-3.883z" class="st18" style="fill:url(#n)"/></g></g></g><path d="M61.051 84.921s25.888-42.662 49.292-54.175c2.173-1.093-32.405 9.191-46.32 24.55-8.271 9.129-3.891 27.002-2.972 29.625z" class="st19" style="fill:url(#o)"/><path d="m61.051 84.921.075-.045c6.694-4.136 18.166-6.518 21.864-14.015 14.237-28.869 27.354-40.115 27.354-40.115-23.405 11.513-49.293 54.175-49.293 54.175Z" class="st20" style="opacity:.1;fill:#f2f2f2"/><path d="M63.512 77.118s-4.666-7.159 2.053-13.687c3.546-3.44 8.919-1.529 9.54-.91 2.644 2.622.982 8.156-1.398 11.288-1.345 1.764-5.259 4.51-10.195 3.309z" class="st21" style="fill:#2f4282"/><path d="M66.187 76.674s-3.224-4.949 1.422-9.459c2.446-2.376 6.161-1.056 6.592-.63 1.826 1.812.676 5.637-.968 7.8-.929 1.223-3.635 3.119-7.046 2.289z" class="st22" style="fill:url(#p)"/><path d="M72.623 71.393c-.072 1.978-1.746 3.522-3.738 3.454-1.996-.069-3.558-1.726-3.487-3.704.071-1.977 1.744-3.521 3.741-3.453 1.992.069 3.553 1.727 3.484 3.703z"/><circle r="1.136" cy="70.287" cx="66.725" class="st24" style="fill:#fff"/><path d="M228.505 65.01c-17.721-26.976-31.761-33.831-31.761-33.831s.645 19.65 10.484 29.128c1.124 1.083-11.774-8.432-11.774-8.432s-2.758 9.076 3.562 19.51c-1.836-2.439-3.051-3.363-3.051-3.363s-11.908 5.491-15.423 13.109c-1.815-3.426-3.176-5.444-3.176-5.444s-8.236 16.437-7.201 35.495c1.684 30.988-5.803 42.404-5.803 42.404s20.057-7.695 29.676-32.468c3.974 10.533-.121 21.619-.121 21.619s16.206-12.109 19.691-34.18c3.863 6.23 2.727 18.664 2.727 18.664s10.344-14.402 10.596-30.086c4.794 3.343 5.235 16.399 5.235 16.399s15.336-19.606-3.661-48.524z" class="st23" style="fill:url(#q)"/><path d="M211.282 46.158c-4.631-8.63-12.803-14.13-19.986-18.582-17.909-11.105-29.427-12.665-29.427-12.665s-16.528 3.074-13.689 7.672c.146.236.487.535.968.877-14.498-6.678-22.722 8.677-22.722 8.677-8.284-.503-18.371 3.575-21.312 14.499-.305 1.134 3.711.496 5.777.945 12.079 2.626 23.45 8.32 28.675 11.134 12.154 6.548 19.365 17.451 23.528 25.629 5.037 9.894 7.094 27.304 7.094 27.304s13.253-18.205 10.086-27.552c5.249 3.26 6.285 14.891 6.285 14.891s8.835-13.838 6.223-25.891c6.815 4.153 7.042 12.601 7.042 12.601s6.939-9.631 3.803-25.427c6.858 5.453 8.293 12.517 8.293 12.517s5.606-14.993-.638-26.629z" class="st25" style="fill:url(#r)"/></g></svg>
