<svg xmlns="http://www.w3.org/2000/svg" viewBox="0 0 850.1 1417" style="enable-background:new 0 0 850.1 1417" xml:space="preserve"><path d="M324.7 1131.7c0 157.6-127.7 285.3-285.3 285.3H0v-65.1h39.4c121.7 0 220.2-98.5 220.2-220.2v-129.5h-65.1v-69.1h-52V719.7h65.1v213.5h52v56.6h65.1v141.9zm455.1-933.1-43.4-36.4-64.3 76.6 43.4 36.4 64.3-76.6zM559.4 9.7 503.6 0 452 295.4l55.8 9.7L559.4 9.7zM264 666.6l30.1-50.1-50.1-30.1-30 50.1 50 30.1zm212.7-62.7-75.1 12.7L391 606l11.2-94.8L416 390.5l-88.4-53.1-132.1 219.9 48.5 29.1 102-169.8 12.5 7.5-25.2 217.3 30.9 30.8L582.8 638l7.4 12.6-221.1 130 28.7 48.8 271.5-159.6-52.3-88.9-140.3 23zm-99.3 417.5v56.6H518v44.1h56.6v-56.6H518v-31.6h56.6v-56.6H518v-44.1H377.4v56.6H518v31.6H377.4zm472.7-571.7-19.6-53.1-250.9 92.9 19.6 53.1 250.9-92.9zM77.3 604.6v115h65.1v-115H77.3zm300.1 704.6h-63.8v63.8h63.8v44.1h287.5v-56.6H377.4v-51.3z"/></svg>
