<?xml version="1.0" encoding="UTF-8"?>
<svg id="Layer_1" xmlns="http://www.w3.org/2000/svg" version="1.1" viewBox="0 0 1106 147">
  <!-- Generator: Adobe Illustrator 29.8.2, SVG Export Plug-In . SVG Version: 2.1.1 Build 3)  -->
  <defs>
    <style>
      .st0 {
        fill: #fff;
      }
    </style>
  </defs>
  <path class="st0" d="M785.57,0h55.42l34.93,144.31h-31.79l-7.53-32h-47.89l-7.53,32h-30.53L785.57,0ZM831.37,90.98l-15.48-65.46h-6.69l-15.48,65.46h37.65Z"/>
  <path class="st0" d="M881.49,88.47c0-36.18,16.1-57.93,41.41-57.93,15.48,0,25.1,7.53,28.65,22.59h6.69c-1.46-13.18-2.09-19.87-2.09-26.35v-5.23h-12.13V0h42.04v122.77h10.5v21.54h-18.03c-11.92,0-18.4-6.48-18.4-18.61v-3.97h-6.69c-3.97,16.1-14.64,24.68-30.53,24.68-24.89,0-41.41-21.75-41.41-57.93h-.01ZM956.15,96.62v-16.31c0-18.4-6.69-26.56-21.54-26.56s-21.75,8.16-21.75,26.56v16.31c0,18.41,6.69,26.56,21.75,26.56s21.54-8.16,21.54-26.56Z"/>
  <path class="st0" d="M1036.88,108.34v2.3c0,7.53,5.44,13.39,19.66,13.39,12.13,0,18.61-3.56,18.61-10.67,0-5.65-3.56-8.37-12.55-10.67l-23.01-4.81c-21.96-5.02-31.37-14.64-31.37-31.79,0-22.8,16.94-35.55,47.89-35.55s44.76,11.5,48.73,38.06h-29.49v-2.3c0-7.53-5.23-13.39-19.24-13.39-11.71,0-17.99,3.56-17.99,10.67,0,5.65,3.56,8.37,12.13,10.67l23.01,4.81c22.17,5.02,32,14.43,32,31.58,0,23.01-17.15,35.76-48.73,35.76-29.91,0-45.38-11.5-49.36-38.06h29.71Z"/>
  <path class="st0" d="M54.38,0l18.61,91.6h6.69L98.3,0h54.38v144.31h-29.7V25.31h-6.69l-25.93,119h-28.03L36.39,25.31h-6.69v119H0V0h54.38ZM224.83,30.54c34.3,0,54.17,20.5,54.17,57.93s-19.87,57.93-54.17,57.93-54.17-20.5-54.17-57.93,19.87-57.93,54.17-57.93ZM224.83,123.4c15.48,0,22.8-8.37,22.8-26.77v-16.31c0-18.41-7.32-26.77-22.8-26.77s-22.8,8.37-22.8,26.77v16.31c0,18.4,7.32,26.77,22.8,26.77ZM291.13,122.77l56.68-68.6h-55.84v-21.54h91.19v21.54l-56.68,68.6h57.51v21.54h-92.86v-21.54ZM399.46,32.63h41.83v111.68h-29.7V54.17h-12.13v-21.54ZM411.59,0h29.7v21.54h-29.7V0ZM460.95,0h41.83v144.31h-29.7V21.54h-12.13V0ZM522.44,0h41.83v144.31h-29.7V21.54h-12.13V0ZM628.06,30.54c16.52,0,27.4,8.16,30.54,22.38h6.69v-20.29h35.34v21.54h-12.13v68.6h12.13v21.54h-16.94c-11.92,0-18.4-6.48-18.4-18.4v-1.88h-6.69c-3.14,14.22-14.01,22.38-30.54,22.38-26.14,0-44.55-22.17-44.55-57.93s18.4-57.93,44.55-57.93M636.84,123.4c15.06,0,21.96-8.37,21.96-26.77v-16.31c0-18.41-6.9-26.77-21.96-26.77s-21.96,8.37-21.96,26.77v16.31c0,18.4,6.9,26.77,21.96,26.77Z"/>
</svg>