<svg width="3821" height="304" viewBox="0 0 3821 304" xmlns="http://www.w3.org/2000/svg" xmlns:xlink="http://www.w3.org/1999/xlink"><defs><path id="a" d="M0 303.616h3820.568V0H0z"/></defs><g fill="none" fill-rule="evenodd"><mask id="b" fill="#fff"><use xlink:href="#a"/></mask><path d="M0 302.35l3820.568 1.266-302.744-10.008c-74.024 0-181.144-174.995-325.144-128.995-86.847 27.743-305.742 20.962-773.65-47.59-496.48-72.74-549.262 175.796-951.586 174.016-393.64-1.74-471.28-188.804-521.243-237.824C836.56-54.358 641.084 26.21 554.68 76.613c-96 56-34.52 89.03-114 124-100 44-80.51-7.183-162 6-38.928 6.3-48 54-96 62l-96 24.995-72.903 7.005L0 302.35z" fill="#FFF" mask="url(#b)"/></g></svg>
