<svg xmlns="http://www.w3.org/2000/svg" width="3821" height="304" viewBox="0 0 3821 304" enable-background="new 0 0 3821 304"><defs><filter id="a" filterUnits="userSpaceOnUse" x=".2" y="2.7" width="3820.6" height="301.1"><feColorMatrix values="1 0 0 0 0 0 1 0 0 0 0 0 1 0 0 0 0 0 1 0"/></filter></defs><mask maskUnits="userSpaceOnUse" x=".2" y="2.7" width="3820.6" height="301.1" id="b"><path d="M.2 303.8h3820.6V.2H.2v303.6z" fill="#FFF" filter="url(#a)"/></mask><path d="M.2 302.5l3820.6 1.3c-253.3.2-421.8-172.5-627.9-139-180.4 29.3-264.7 19.5-773.6-47.6S1870 293 1467.7 291.2c-297-13.1-377.8-62.4-521.2-237.8-65.3-79.8-284.3-81.3-456.8 112.2-66.6 74.7-162 97.5-288 70.5-94.6-20.3-133 65.4-201.5 66.4z" mask="url(#b)" fill="#FFF"/></svg>
