<?xml version="1.0" encoding="utf-8"?>
<!-- Generator: Adobe Illustrator 26.1.0, SVG Export Plug-In . SVG Version: 6.00 Build 0)  -->
<svg version="1.1" xmlns="http://www.w3.org/2000/svg" xmlns:xlink="http://www.w3.org/1999/xlink" x="0px" y="0px"
	 viewBox="0 0 400 400" style="enable-background:new 0 0 400 400;" xml:space="preserve">
<style type="text/css">
	.st0{fill:#ACD7F3;stroke:#000000;stroke-width:5;stroke-miterlimit:10;}
	.st1{fill:#FFFFFF;stroke:#000000;stroke-width:5;stroke-miterlimit:10;}
	.st2{fill:#FFFFFF;stroke:#000000;stroke-width:5;stroke-linejoin:round;stroke-miterlimit:10;}
	.st3{fill:#00B7AA;stroke:#000000;stroke-width:5;stroke-miterlimit:10;}
	.st4{fill:#84CFC8;stroke:#000000;stroke-width:5;stroke-linejoin:round;stroke-miterlimit:10;}
	.st5{fill:#BFE6EF;stroke:#000000;stroke-width:5;stroke-miterlimit:10;}
	.st6{fill:#D4E9F8;stroke:#D4E9F8;stroke-width:5;stroke-miterlimit:10;}
	.st7{fill:none;stroke:#000000;stroke-width:5;stroke-miterlimit:10;}
	.st8{fill:#54C2B8;stroke:#000000;stroke-width:5;stroke-miterlimit:10;}
	.st9{fill:#D5EDEA;stroke:#000000;stroke-width:5;stroke-miterlimit:10;}
	.st10{fill:#ADDDD8;stroke:#000000;stroke-width:5;stroke-miterlimit:10;}
	.st11{fill:#D4E9F8;}
	.st12{fill:none;stroke:#FFFFFF;stroke-width:5;stroke-miterlimit:10;}
	.st13{stroke:#000000;stroke-width:5;stroke-miterlimit:10;}
	.st14{fill:#84CFC8;stroke:#000000;stroke-width:5;stroke-miterlimit:10;}
	.st15{fill:#82C7EE;stroke:#000000;stroke-width:5;stroke-miterlimit:10;}
	.st16{fill:#B0B4E5;stroke:#000000;stroke-width:5;stroke-miterlimit:10;}
	.st17{fill:#FFFFFF;}
	.st18{fill:none;stroke:#000000;stroke-width:5;stroke-linejoin:round;stroke-miterlimit:10;}
	.st19{fill:#82C7EE;}
	.st20{fill:#88D1F1;}
	.st21{fill:#D4E9F8;stroke:#000000;stroke-width:5;stroke-miterlimit:10;}
	.st22{fill-rule:evenodd;clip-rule:evenodd;fill:#D4E9F8;stroke:#000000;stroke-width:5;stroke-miterlimit:10;}
	.st23{fill-rule:evenodd;clip-rule:evenodd;fill:none;stroke:#000000;stroke-width:5;stroke-miterlimit:10;}
	.st24{fill:#ACD7F3;}
	.st25{fill:#00B7AA;}
	.st26{fill:#84CFC8;}
	.st27{fill:#010101;}
	.st28{fill:#ACD7F3;stroke:#000000;stroke-width:3.7167;stroke-miterlimit:10;}
	.st29{fill:#ADDDD8;}
	.st30{fill:#88D1F1;stroke:#000000;stroke-width:5;stroke-miterlimit:10;}
	.st31{fill:#D0D0D0;stroke:#000000;stroke-width:5;stroke-miterlimit:10;}
	.st32{fill:#9D9D9C;stroke:#000000;stroke-width:5;stroke-miterlimit:10;}
	.st33{fill:#6DC9C3;}
	.st34{stroke:#000000;stroke-width:2;stroke-miterlimit:10;}
</style>
<g id="Create_Invitation">
	<g>
		<ellipse class="st0" cx="200.7" cy="63.7" rx="43.9" ry="18.3"/>
		<ellipse class="st1" cx="200.7" cy="293.5" rx="106" ry="52.2"/>
		<path class="st2" d="M222.9,53.7l-9.2-5.6h-25.9l-9.2,5.6c-1.9,1.1-3,2.4-3,3.8c0,4.5,11.3,8.1,25.2,8.1s25.2-3.6,25.2-8.1
			C225.9,56.2,224.8,54.9,222.9,53.7z"/>
		<g>
			<g>
				<circle class="st1" cx="169.7" cy="202.3" r="10.4"/>
				<path class="st3" d="M189,261.5h-38.7V232c0-10.7,8.7-19.4,19.4-19.4h0c10.7,0,19.4,8.7,19.4,19.4V261.5z"/>
				<g>
					<line class="st1" x1="160" y1="261.5" x2="160" y2="303.6"/>
					<line class="st1" x1="179.4" y1="261.5" x2="179.4" y2="303.6"/>
				</g>
				<polyline class="st0" points="169.7,191.9 150.3,191.9 150.3,239.8 169.7,239.8 169.7,191.9 				"/>
			</g>
			<g>
				<circle class="st1" cx="230.5" cy="202.3" r="10.4"/>
				<path class="st0" d="M240.9,202.3c0-5.7-4.6-10.4-10.4-10.4s-10.4,4.6-10.4,10.4"/>
				<path class="st3" d="M211.2,274.6h38.7V232c0-10.7-8.7-19.4-19.4-19.4h0c-10.7,0-19.4,8.7-19.4,19.4V274.6z"/>
				<g>
					<line class="st1" x1="240.2" y1="274.6" x2="240.2" y2="303.6"/>
					<line class="st1" x1="220.8" y1="274.6" x2="220.8" y2="303.6"/>
				</g>
				<line class="st1" x1="220.1" y1="202.3" x2="251" y2="202.3"/>
			</g>
		</g>
		<line class="st1" x1="230.5" y1="92.1" x2="304.8" y2="283.6"/>
		<line class="st1" x1="170.8" y1="92.1" x2="96.5" y2="283.6"/>
		<path class="st4" d="M200.7,35.7c-8.1,0-14.7,6.6-14.7,14.7c0,2.6,6.6,4.7,14.7,4.7c8.1,0,14.7-2.1,14.7-4.7
			C215.4,42.3,208.8,35.7,200.7,35.7z"/>
	</g>
</g>
<g id="Buoyant">
</g>
<g id="Human">
</g>
<g id="Layer_1">
</g>
</svg>
