<svg xmlns="http://www.w3.org/2000/svg" viewBox="0 0 400 400" style="enable-background:new 0 0 400 400" xml:space="preserve"><style>.st1{fill:#fff}.st1,.st3{stroke:#000;stroke-width:5;stroke-miterlimit:10}.st25,.st3{fill:#00b7aa}.st27{fill:#010101}</style><g id="Layer_1"><path d="M207.3 204.6v48.7H193v12.2h-14.2v12.2h-14.3v12.2h-14.3v12.2H136v12.2h-14.3v-12.2h-14.2v-12.2H93.3v-12.2H79.1v-12.2H64.9v-12.2H50.6v-48.7h14.3v-12.2h14.3v-12.2h28.5v12.2h14.2v12.2h14.3v-12.2h14.2v-12.2h28.5v12.2H193v12.2h14.3z" style="fill:#d4e9f8;stroke:#d4e9f8;stroke-width:5;stroke-miterlimit:10"/><path class="st25" d="M243.1 329.8v9.9h7.4v7.4h9.9v-7.4h7.4v-9.9h-7.4v-7.4h-9.9v7.4h-7.4zM116.7 159.5h9.9v-7.4h7.4v-9.9h-7.4v-7.4h-9.9v7.4h-7.4v9.9h7.4v7.4z"/><path d="M279 87.2h9.9v-7.4h7.4v-9.9h-7.4v-7.4H279v7.4h-7.4v9.9h7.4v7.4z" style="fill:#acd7f3"/><path style="fill:#84cfc8" d="M180 128.3h149.6V299H180z"/><path transform="rotate(90 254.793 213.691)" class="st1" d="M187.4 156.9h134.7v113.7H187.4z"/><path class="st1" d="M273.2 184.1h14M223.6 184.1h42.6M223.6 197.5h63.6M273.2 232.7h14M223.6 232.7h42.6M223.6 246.1h63.6"/><path class="st3" d="M76.9 60.9H121v36H76.9z"/><path class="st27" d="M89.6 70.3h4.5v4.5h-4.5zM103.8 70.3h4.5v4.5h-4.5zM89.6 83h4.5v4.5h-4.5zM103.8 83h4.5v4.5h-4.5z"/><path class="st3" d="M158.6 60.9h44.1v36h-44.1z"/><path class="st27" d="M171.4 70.3h4.5v4.5h-4.5zM185.6 70.3h4.5v4.5h-4.5zM171.4 83h4.5v4.5h-4.5zM185.6 83h4.5v4.5h-4.5z"/><path class="st3" d="M121 60.9h37.6v36H121z"/><path style="fill:none;stroke:#000;stroke-width:5;stroke-miterlimit:10" d="M329.6 237.4V128.3H180V299h108.4"/><path style="fill:#acd7f3;stroke:#000;stroke-width:5;stroke-miterlimit:10" d="M272.8 128.2v-11.6h-35.7v11.6l-21.8 9.3v14.6h79v-14.6z"/></g></svg>
