<?xml version="1.0" encoding="utf-8"?>
<!-- Generator: Adobe Illustrator 26.1.0, SVG Export Plug-In . SVG Version: 6.00 Build 0)  -->
<svg version="1.1" xmlns="http://www.w3.org/2000/svg" xmlns:xlink="http://www.w3.org/1999/xlink" x="0px" y="0px"
	 viewBox="0 0 400 400" style="enable-background:new 0 0 400 400;" xml:space="preserve">
<style type="text/css">
	.st0{fill:#ACD7F3;stroke:#000000;stroke-width:5;stroke-miterlimit:10;}
	.st1{fill:#FFFFFF;stroke:#000000;stroke-width:5;stroke-miterlimit:10;}
	.st2{fill:#FFFFFF;stroke:#000000;stroke-width:5;stroke-linejoin:round;stroke-miterlimit:10;}
	.st3{fill:#00B7AA;stroke:#000000;stroke-width:5;stroke-miterlimit:10;}
	.st4{fill:#84CFC8;stroke:#000000;stroke-width:5;stroke-linejoin:round;stroke-miterlimit:10;}
	.st5{fill:#BFE6EF;stroke:#000000;stroke-width:5;stroke-miterlimit:10;}
	.st6{fill:#D4E9F8;stroke:#D4E9F8;stroke-width:5;stroke-miterlimit:10;}
	.st7{fill:none;stroke:#000000;stroke-width:5;stroke-miterlimit:10;}
	.st8{fill:#54C2B8;stroke:#000000;stroke-width:5;stroke-miterlimit:10;}
	.st9{fill:#D5EDEA;stroke:#000000;stroke-width:5;stroke-miterlimit:10;}
	.st10{fill:#ADDDD8;stroke:#000000;stroke-width:5;stroke-miterlimit:10;}
	.st11{fill:#D4E9F8;}
	.st12{fill:none;stroke:#FFFFFF;stroke-width:5;stroke-miterlimit:10;}
	.st13{stroke:#000000;stroke-width:5;stroke-miterlimit:10;}
	.st14{fill:#84CFC8;stroke:#000000;stroke-width:5;stroke-miterlimit:10;}
	.st15{fill:#82C7EE;stroke:#000000;stroke-width:5;stroke-miterlimit:10;}
	.st16{fill:#B0B4E5;stroke:#000000;stroke-width:5;stroke-miterlimit:10;}
	.st17{fill:#FFFFFF;}
	.st18{fill:none;stroke:#000000;stroke-width:5;stroke-linejoin:round;stroke-miterlimit:10;}
	.st19{fill:#82C7EE;}
	.st20{fill:#88D1F1;}
	.st21{fill:#D4E9F8;stroke:#000000;stroke-width:5;stroke-miterlimit:10;}
	.st22{fill-rule:evenodd;clip-rule:evenodd;fill:#D4E9F8;stroke:#000000;stroke-width:5;stroke-miterlimit:10;}
	.st23{fill-rule:evenodd;clip-rule:evenodd;fill:none;stroke:#000000;stroke-width:5;stroke-miterlimit:10;}
	.st24{fill:#ACD7F3;}
	.st25{fill:#00B7AA;}
	.st26{fill:#84CFC8;}
	.st27{fill:#010101;}
	.st28{fill:#ACD7F3;stroke:#000000;stroke-width:3.7167;stroke-miterlimit:10;}
	.st29{fill:#ADDDD8;}
	.st30{fill:#88D1F1;stroke:#000000;stroke-width:5;stroke-miterlimit:10;}
	.st31{fill:#D0D0D0;stroke:#000000;stroke-width:5;stroke-miterlimit:10;}
	.st32{fill:#9D9D9C;stroke:#000000;stroke-width:5;stroke-miterlimit:10;}
	.st33{fill:#6DC9C3;}
	.st34{stroke:#000000;stroke-width:2;stroke-miterlimit:10;}
</style>
<g id="Create_Invitation">
</g>
<g id="Buoyant">
</g>
<g id="Human">
</g>
<g id="Layer_1">
	<g>
		<rect x="38" y="280.6" class="st27" width="5.4" height="5.4"/>
		<rect x="46.4" y="236.2" class="st20" width="5.4" height="5.4"/>
		<rect x="362" y="98.3" class="st27" width="5.4" height="5.4"/>
		<rect x="323.4" y="59.7" class="st27" width="5.4" height="5.4"/>
		<rect x="352.9" y="116.3" class="st20" width="5.4" height="5.4"/>
		<polyline class="st26" points="101.3,88.1 66.6,88.1 66.6,141 		"/>
		<polyline class="st26" points="66.6,141 66.6,306.3 336.8,306.3 336.8,88.1 101.3,88.1 		"/>
		<polyline class="st7" points="66.6,141 66.6,306.3 336.8,306.3 336.8,88.1 115.3,88.1 		"/>
		<rect x="83" y="103.7" class="st1" width="237.3" height="187.1"/>
		<polyline class="st7" points="124,246.4 277.5,246.4 277.5,128.3 		"/>
		<path class="st1" d="M239.5,127.7C188.8,197.2,123,197.8,123,197.8"/>
		<polyline class="st7" points="224.7,128.1 241.1,128.1 241.1,142.7 		"/>
		<rect x="137.9" y="231.3" class="st9" width="12.3" height="15"/>
		<rect x="159.6" y="221.2" class="st14" width="12.3" height="25.2"/>
		<rect x="181.2" y="209.9" class="st9" width="12.3" height="36.5"/>
		<rect x="202.8" y="200.5" class="st21" width="12.3" height="45.9"/>
		<rect x="224.5" y="182.2" class="st8" width="12.3" height="64.1"/>
		<rect x="246.1" y="158.7" class="st15" width="12.3" height="87.6"/>
		<line class="st1" x1="124" y1="263" x2="140.4" y2="263"/>
		<line class="st1" x1="151.3" y1="263" x2="280.4" y2="263"/>
	</g>
</g>
</svg>
