<?xml version="1.0" encoding="utf-8"?>
<!-- Generator: Adobe Illustrator 26.1.0, SVG Export Plug-In . SVG Version: 6.00 Build 0)  -->
<svg version="1.1" xmlns="http://www.w3.org/2000/svg" xmlns:xlink="http://www.w3.org/1999/xlink" x="0px" y="0px"
	 viewBox="0 0 400 400" style="enable-background:new 0 0 400 400;" xml:space="preserve">
<style type="text/css">
	.st0{fill:#ACD7F3;stroke:#000000;stroke-width:5;stroke-miterlimit:10;}
	.st1{fill:#FFFFFF;stroke:#000000;stroke-width:5;stroke-miterlimit:10;}
	.st2{fill:#FFFFFF;stroke:#000000;stroke-width:5;stroke-linejoin:round;stroke-miterlimit:10;}
	.st3{fill:#00B7AA;stroke:#000000;stroke-width:5;stroke-miterlimit:10;}
	.st4{fill:#84CFC8;stroke:#000000;stroke-width:5;stroke-linejoin:round;stroke-miterlimit:10;}
	.st5{fill:#BFE6EF;stroke:#000000;stroke-width:5;stroke-miterlimit:10;}
	.st6{fill:#D4E9F8;stroke:#D4E9F8;stroke-width:5;stroke-miterlimit:10;}
	.st7{fill:none;stroke:#000000;stroke-width:5;stroke-miterlimit:10;}
	.st8{fill:#54C2B8;stroke:#000000;stroke-width:5;stroke-miterlimit:10;}
	.st9{fill:#D5EDEA;stroke:#000000;stroke-width:5;stroke-miterlimit:10;}
	.st10{fill:#ADDDD8;stroke:#000000;stroke-width:5;stroke-miterlimit:10;}
	.st11{fill:#D4E9F8;}
	.st12{fill:none;stroke:#FFFFFF;stroke-width:5;stroke-miterlimit:10;}
	.st13{stroke:#000000;stroke-width:5;stroke-miterlimit:10;}
	.st14{fill:#84CFC8;stroke:#000000;stroke-width:5;stroke-miterlimit:10;}
	.st15{fill:#82C7EE;stroke:#000000;stroke-width:5;stroke-miterlimit:10;}
	.st16{fill:#B0B4E5;stroke:#000000;stroke-width:5;stroke-miterlimit:10;}
	.st17{fill:#FFFFFF;}
	.st18{fill:none;stroke:#000000;stroke-width:5;stroke-linejoin:round;stroke-miterlimit:10;}
	.st19{fill:#82C7EE;}
	.st20{fill:#88D1F1;}
	.st21{fill:#D4E9F8;stroke:#000000;stroke-width:5;stroke-miterlimit:10;}
	.st22{fill-rule:evenodd;clip-rule:evenodd;fill:#D4E9F8;stroke:#000000;stroke-width:5;stroke-miterlimit:10;}
	.st23{fill-rule:evenodd;clip-rule:evenodd;fill:none;stroke:#000000;stroke-width:5;stroke-miterlimit:10;}
	.st24{fill:#ACD7F3;}
	.st25{fill:#00B7AA;}
	.st26{fill:#84CFC8;}
	.st27{fill:#010101;}
	.st28{fill:#ACD7F3;stroke:#000000;stroke-width:3.7167;stroke-miterlimit:10;}
	.st29{fill:#ADDDD8;}
	.st30{fill:#88D1F1;stroke:#000000;stroke-width:5;stroke-miterlimit:10;}
	.st31{fill:#D0D0D0;stroke:#000000;stroke-width:5;stroke-miterlimit:10;}
	.st32{fill:#9D9D9C;stroke:#000000;stroke-width:5;stroke-miterlimit:10;}
	.st33{fill:#6DC9C3;}
	.st34{stroke:#000000;stroke-width:2;stroke-miterlimit:10;}
</style>
<g id="Create_Invitation">
</g>
<g id="Buoyant">
</g>
<g id="Human">
</g>
<g id="Layer_1">
	<g>
		<g>
			<rect x="173" y="144.1" class="st3" width="188" height="22.8"/>
			<polygon class="st1" points="237.2,165 196.2,165 199,155.1 234.4,155.1 			"/>
			<rect x="173" y="166.9" class="st1" width="188.3" height="102.9"/>
			<rect x="173" y="166.9" class="st1" width="188.3" height="12.9"/>
		</g>
		<rect x="318" y="90.9" class="st29" width="5.7" height="5.7"/>
		<rect x="157.3" y="88" width="5.7" height="5.7"/>
		<rect x="285" y="119.9" width="5.7" height="5.7"/>
		<rect x="60.7" y="108.5" width="5.7" height="5.7"/>
		<rect x="74.8" y="124.9" class="st33" width="5.7" height="5.7"/>
		<rect x="272.6" y="88.9" class="st24" width="5.7" height="5.7"/>
		<g>
			<path class="st0" d="M262.2,126.1c-3.7-1.4-7.7-0.5-10.4,2l0-1.4l0.2-6.5l1-35.6c0.2-5.5-4.2-10.1-9.7-10.3
				c-2.3-0.1-4.5,0.7-6.2,2l-6.8-0.2c-2.3-0.1-4.5,0.7-6.2,2l-4.9-0.1c-5.5-0.2-10.1,4.2-10.3,9.7l-0.1,4.1
				c-5.4,0-13.8,4.4-14.1,15.1l-0.3,11.8l-0.9,31.8l0,45.1l43.8,67.5l50.6-28l-37.6-50.2l17.7-45.8
				C269.9,133.8,267.4,128,262.2,126.1z"/>
			<line class="st14" x1="208.8" y1="91.8" x2="207.9" y2="136.8"/>
			<path class="st0" d="M220.3,135l1.4-49.1c0.2-5.5,4.8-9.9,10.3-9.7l4.6,0.1"/>
			<line class="st14" x1="233.6" y1="134.7" x2="235.2" y2="78.5"/>
			<line class="st14" x1="252.1" y1="128.1" x2="239" y2="162.6"/>
		</g>
		<g>
			<rect x="38.8" y="194" class="st3" width="188" height="22.8"/>
			<polygon class="st1" points="103,214.9 62.1,214.9 64.9,205 100.2,205 			"/>
			<rect x="38.8" y="216.8" class="st1" width="188.3" height="102.9"/>
			<rect x="38.8" y="216.8" class="st1" width="188.3" height="12.9"/>
		</g>
		<g>
			<path class="st14" d="M87.1,147.7c3.7-1.5,7.7-0.6,10.4,1.9l-0.1-1.4l-0.3-6.5l-1.4-35.6c-0.2-5.5,4.1-10.2,9.6-10.4
				c2.3-0.1,4.5,0.7,6.2,1.9l6.8-0.3c2.3-0.1,4.5,0.7,6.2,1.9l4.9-0.2c5.5-0.2,10.2,4.1,10.4,9.6l0.2,4.1c5.4,0,13.8,4.3,14.3,15
				l0.5,11.8l1.2,31.8l0.5,45.1l-60.8,81.2l-43.7-35l47.7-56.3l-18.2-45.6C79.5,155.5,82,149.7,87.1,147.7z"/>
			<line class="st14" x1="140.1" y1="112.8" x2="141.5" y2="157.8"/>
			<path class="st14" d="M129.1,156.1l-1.9-49.1c-0.2-5.5-4.9-9.8-10.4-9.6l-4.6,0.2"/>
			<line class="st14" x1="115.8" y1="156" x2="113.7" y2="99.9"/>
			<line class="st14" x1="97.2" y1="149.6" x2="110.6" y2="184"/>
		</g>
	</g>
</g>
</svg>
