<svg xmlns="http://www.w3.org/2000/svg" viewBox="0 0 400 400" style="enable-background:new 0 0 400 400" xml:space="preserve"><style>.st1,.st3{fill:#fff;stroke:#000;stroke-width:5;stroke-miterlimit:10}.st3{fill:#00b7aa}.st7{fill:none}.st13,.st14,.st7{stroke:#000;stroke-width:5;stroke-miterlimit:10}.st14{fill:#84cfc8}</style><g id="Layer_1"><path class="st1" d="m187.1 121.9-26.7 7.3 12.4-27.9"/><path class="st3" d="m270.7 144.1-17.8 21.4c-4.4 5.3-12.2 6-17.4 1.6l-59.4-49.3c-11.2-9.3-12.7-25.9-3.4-37 9.3-11.2 25.9-12.7 37-3.4l59.4 49.3c5.3 4.3 6 12.1 1.6 17.4z"/><path class="st1" d="m133.9 169 17.8-9.3-4.5 22.1"/><path class="st14" d="M139.3 255.5H114c-6.8 0-12.4-5.5-12.4-12.4V193c0-13.8 11.2-25 25-25h.2c13.8 0 25 11.2 25 25v50.1c-.1 6.9-5.6 12.4-12.5 12.4z"/><path class="st1" d="m192.1 169 17.8-9.3-4.5 22.1"/><path class="st14" d="M197.5 255.5h-25.4c-6.8 0-12.4-5.5-12.4-12.4V193c0-13.8 11.2-25 25-25h.2c13.8 0 25 11.2 25 25v50.1c0 6.9-5.6 12.4-12.4 12.4z"/><path class="st7" d="M64 278.1h260.8M64 309.3h167.3l28.3 29.8M320.2 309.3h-42.6l28.3 29.8M239.8 170.7l-13.4 36.5M257.1 185.9l-7.8 21.3"/><circle class="st13" cx="124.6" cy="183.2" r="2.5"/><circle class="st13" cx="180.2" cy="183.9" r="2.5"/><circle class="st13" cx="188.4" cy="98.9" r="2.5"/><path d="M282 196.7c-30 8.6-41.8 11.4-85 11.4s-64.7-2.8-94.7-11.4c-32-9.2-35.1 17.8-31.8 33.9 4.1 20.1 7.2 47.5 29.3 47.5h184.6c22.1 0 25.3-27.4 29.3-47.5 3.4-16.1.4-43.1-31.7-33.9z" style="fill:#acd7f3;stroke:#000;stroke-width:5;stroke-miterlimit:10"/><path class="st7" d="M71.2 224.6h151M238 224.6h26.5M124.3 240.6h188.3M78.5 256.5h87.2"/><path class="st3" d="M346.1 187.2h-70.5c-28.5 0-51.6-23.7-51.6-52.9V90.6l122.1 96.6z"/></g></svg>