<?xml version="1.0" encoding="utf-8"?>
<!-- Generator: Adobe Illustrator 26.1.0, SVG Export Plug-In . SVG Version: 6.00 Build 0)  -->
<svg version="1.1" xmlns="http://www.w3.org/2000/svg" xmlns:xlink="http://www.w3.org/1999/xlink" x="0px" y="0px"
	 viewBox="0 0 400 400" style="enable-background:new 0 0 400 400;" xml:space="preserve">
<style type="text/css">
	.st0{fill:#ACD7F3;stroke:#000000;stroke-width:5;stroke-miterlimit:10;}
	.st1{fill:#FFFFFF;stroke:#000000;stroke-width:5;stroke-miterlimit:10;}
	.st2{fill:#FFFFFF;stroke:#000000;stroke-width:5;stroke-linejoin:round;stroke-miterlimit:10;}
	.st3{fill:#00B7AA;stroke:#000000;stroke-width:5;stroke-miterlimit:10;}
	.st4{fill:#84CFC8;stroke:#000000;stroke-width:5;stroke-linejoin:round;stroke-miterlimit:10;}
	.st5{fill:#BFE6EF;stroke:#000000;stroke-width:5;stroke-miterlimit:10;}
	.st6{fill:#D4E9F8;stroke:#D4E9F8;stroke-width:5;stroke-miterlimit:10;}
	.st7{fill:none;stroke:#000000;stroke-width:5;stroke-miterlimit:10;}
	.st8{fill:#54C2B8;stroke:#000000;stroke-width:5;stroke-miterlimit:10;}
	.st9{fill:#D5EDEA;stroke:#000000;stroke-width:5;stroke-miterlimit:10;}
	.st10{fill:#ADDDD8;stroke:#000000;stroke-width:5;stroke-miterlimit:10;}
	.st11{fill:#D4E9F8;}
	.st12{fill:none;stroke:#FFFFFF;stroke-width:5;stroke-miterlimit:10;}
	.st13{stroke:#000000;stroke-width:5;stroke-miterlimit:10;}
	.st14{fill:#84CFC8;stroke:#000000;stroke-width:5;stroke-miterlimit:10;}
	.st15{fill:#82C7EE;stroke:#000000;stroke-width:5;stroke-miterlimit:10;}
	.st16{fill:#B0B4E5;stroke:#000000;stroke-width:5;stroke-miterlimit:10;}
	.st17{fill:#FFFFFF;}
	.st18{fill:none;stroke:#000000;stroke-width:5;stroke-linejoin:round;stroke-miterlimit:10;}
	.st19{fill:#82C7EE;}
	.st20{fill:#88D1F1;}
	.st21{fill:#D4E9F8;stroke:#000000;stroke-width:5;stroke-miterlimit:10;}
	.st22{fill-rule:evenodd;clip-rule:evenodd;fill:#D4E9F8;stroke:#000000;stroke-width:5;stroke-miterlimit:10;}
	.st23{fill-rule:evenodd;clip-rule:evenodd;fill:none;stroke:#000000;stroke-width:5;stroke-miterlimit:10;}
	.st24{fill:#ACD7F3;}
	.st25{fill:#00B7AA;}
	.st26{fill:#84CFC8;}
	.st27{fill:#010101;}
	.st28{fill:#ACD7F3;stroke:#000000;stroke-width:3.7167;stroke-miterlimit:10;}
	.st29{fill:#ADDDD8;}
	.st30{fill:#88D1F1;stroke:#000000;stroke-width:5;stroke-miterlimit:10;}
	.st31{fill:#D0D0D0;stroke:#000000;stroke-width:5;stroke-miterlimit:10;}
	.st32{fill:#9D9D9C;stroke:#000000;stroke-width:5;stroke-miterlimit:10;}
	.st33{fill:#6DC9C3;}
	.st34{stroke:#000000;stroke-width:2;stroke-miterlimit:10;}
</style>
<g id="Create_Invitation">
</g>
<g id="Buoyant">
</g>
<g id="Human">
</g>
<g id="Layer_1">
	<g>
		<polyline class="st15" points="148.2,111.5 68.9,250.7 285.5,250.7 244.6,173.7 137.1,133.6 		"/>
		<rect x="274.4" y="161.5" class="st24" width="5.4" height="5.4"/>
		<rect x="89.2" y="129.4" class="st25" width="5.4" height="5.4"/>
		<rect x="247.7" y="105.2" class="st24" width="5.4" height="5.4"/>
		<rect x="282.8" y="96.2" class="st25" width="5.4" height="5.4"/>
		<path class="st7" d="M68.9,250c0,0,66.6-5.7,66.6-117.9"/>
		<path class="st7" d="M203,249.4c0,0-67.5-5.1-67.5-117.3"/>
		<line class="st7" x1="248.3" y1="161.3" x2="215.5" y2="147.7"/>
		<line class="st7" x1="211.1" y1="145.9" x2="202" y2="142.1"/>
		<line class="st7" x1="41.8" y1="295.8" x2="170.2" y2="295.8"/>
		<line class="st7" x1="53.3" y1="318.4" x2="117" y2="318.4"/>
		<line class="st7" x1="63.4" y1="273.1" x2="84.9" y2="273.1"/>
		<line class="st7" x1="91.9" y1="273.1" x2="187.3" y2="273.1"/>
		<line class="st7" x1="124.4" y1="111.3" x2="203.8" y2="250.7"/>
		<g>
			<circle class="st1" cx="234.3" cy="204" r="11.7"/>
			<path class="st3" d="M256.1,270.9h-43.7v-44c0-6.2,5-11.2,11.2-11.2h21.3c6.2,0,11.2,5,11.2,11.2V270.9z"/>
			<g>
				<line class="st1" x1="223.3" y1="270.9" x2="223.3" y2="318.4"/>
				<line class="st1" x1="245.2" y1="270.9" x2="245.2" y2="318.4"/>
			</g>
			<polyline class="st0" points="234.3,192.3 212.4,192.3 212.4,246.4 234.3,246.4 234.3,192.3 			"/>
		</g>
		<path class="st7" d="M327.9,75.6c1.4,4.2,2.2,8.8,2.2,13.5c0,23.4-19,42.4-42.4,42.4c-5.4,0-10.5-1-15.3-2.9
			c6.8,11.7,19.5,19.6,34.1,19.6c21.8,0,39.5-17.7,39.5-39.5C346,94.9,338.8,82.7,327.9,75.6z"/>
		<g>
			<circle class="st1" cx="292.9" cy="204" r="11.7"/>
			<path class="st0" d="M304.7,204c0-6.5-5.2-11.7-11.7-11.7s-11.7,5.2-11.7,11.7"/>
			<path class="st3" d="M271.1,285.7h43.7v-58.8c0-6.2-5-11.2-11.2-11.2h-21.3c-6.2,0-11.2,5-11.2,11.2V285.7z"/>
			<g>
				<line class="st1" x1="303.9" y1="285.7" x2="303.9" y2="318.4"/>
				<line class="st1" x1="282" y1="285.7" x2="282" y2="318.4"/>
			</g>
			<line class="st1" x1="281.2" y1="204" x2="316.1" y2="204"/>
		</g>
	</g>
</g>
</svg>
