<svg xmlns="http://www.w3.org/2000/svg" viewBox="0 0 400 400" style="enable-background:new 0 0 400 400" xml:space="preserve"><style>.st7{fill:none;stroke:#000;stroke-width:5;stroke-miterlimit:10}.st11{fill:#d4e9f8}.st24{fill:#acd7f3}.st25{fill:#00b7aa}</style><g id="Layer_1"><path class="st11" d="M167.9 276.8c-1.9-26.2-23.7-46.8-50.3-46.8-26.6 0-48.4 20.6-50.3 46.8h100.6z"/><path class="st11" d="M86 276.8c-1-14.1-12.7-25.2-27.1-25.2-14.3 0-26.1 11.1-27.1 25.2H86zM181.4 276.8c-.8-11-10-19.7-21.2-19.7s-20.4 8.7-21.2 19.7h42.4zM358.5 168.9c-1.9-26.2-23.7-46.8-50.3-46.8-26.6 0-48.4 20.6-50.3 46.8h100.6z"/><path class="st11" d="M276.7 168.9c-1.2-17.2-15.6-30.8-33.1-30.8s-31.8 13.6-33.1 30.8h66.2z"/><path d="M335.2 263.5c-4.1-61.8-52.3-110.6-111.1-110.6s-107 48.8-111.1 110.6h222.2z" style="fill:#fff"/><path class="st24" d="M69.4 238.2h4.2v4.2h-4.2z"/><path class="st25" d="M333.1 183.2h4.2v4.2h-4.2z"/><path class="st24" d="M260.8 114.5h4.2v4.2h-4.2z"/><path class="st25" d="M78.8 219.4H83v4.2h-4.2z"/><path class="st7" d="M156.3 263.5S167.7 154 223.8 154s68.8 107.5 68.8 107.5M223.2 154v109.5M123.3 218.5h202.3"/><path class="st7" d="M335.2 263.6c0-61.2-49.6-110.7-110.7-110.7-61.2 0-110.7 49.6-110.7 110.7M96.8 245.5c2.7-19.2 9.7-37.1 19.9-52.6M124.2 183.1c3.4-3.6 7-7 10.9-10.1"/><path d="M214.1 155.5c0 7.8-14.1 27.4-14.1 27.4s-14-19.6-14-27.4 6.3-14.1 14.1-14.1 14 6.4 14 14.1z" style="fill:#00b7aa;stroke:#000;stroke-width:5;stroke-miterlimit:10"/><path d="M188.9 223.2c0 7.9-14.4 28-14.4 28s-14.4-20.1-14.4-28c0-7.9 6.4-14.4 14.4-14.4s14.4 6.5 14.4 14.4z" style="fill:#82c7ee;stroke:#000;stroke-width:5;stroke-miterlimit:10"/><path d="M275.4 200.2c0 7.9-14.4 28-14.4 28s-14.4-20.1-14.4-28c0-7.9 6.4-14.4 14.4-14.4s14.4 6.5 14.4 14.4z" style="fill:#84cfc8;stroke:#000;stroke-width:5;stroke-miterlimit:10"/></g></svg>