<?xml version="1.0" encoding="utf-8"?>
<!-- Generator: Adobe Illustrator 26.1.0, SVG Export Plug-In . SVG Version: 6.00 Build 0)  -->
<svg version="1.1" xmlns="http://www.w3.org/2000/svg" xmlns:xlink="http://www.w3.org/1999/xlink" x="0px" y="0px"
	 viewBox="0 0 400 400" style="enable-background:new 0 0 400 400;" xml:space="preserve">
<style type="text/css">
	.st0{fill:#ACD7F3;stroke:#000000;stroke-width:5;stroke-miterlimit:10;}
	.st1{fill:#FFFFFF;stroke:#000000;stroke-width:5;stroke-miterlimit:10;}
	.st2{fill:#FFFFFF;stroke:#000000;stroke-width:5;stroke-linejoin:round;stroke-miterlimit:10;}
	.st3{fill:#00B7AA;stroke:#000000;stroke-width:5;stroke-miterlimit:10;}
	.st4{fill:#84CFC8;stroke:#000000;stroke-width:5;stroke-linejoin:round;stroke-miterlimit:10;}
	.st5{fill:#BFE6EF;stroke:#000000;stroke-width:5;stroke-miterlimit:10;}
	.st6{fill:#D4E9F8;stroke:#D4E9F8;stroke-width:5;stroke-miterlimit:10;}
	.st7{fill:none;stroke:#000000;stroke-width:5;stroke-miterlimit:10;}
	.st8{fill:#54C2B8;stroke:#000000;stroke-width:5;stroke-miterlimit:10;}
	.st9{fill:#D5EDEA;stroke:#000000;stroke-width:5;stroke-miterlimit:10;}
	.st10{fill:#ADDDD8;stroke:#000000;stroke-width:5;stroke-miterlimit:10;}
	.st11{fill:#D4E9F8;}
	.st12{fill:none;stroke:#FFFFFF;stroke-width:5;stroke-miterlimit:10;}
	.st13{stroke:#000000;stroke-width:5;stroke-miterlimit:10;}
	.st14{fill:#84CFC8;stroke:#000000;stroke-width:5;stroke-miterlimit:10;}
	.st15{fill:#82C7EE;stroke:#000000;stroke-width:5;stroke-miterlimit:10;}
	.st16{fill:#B0B4E5;stroke:#000000;stroke-width:5;stroke-miterlimit:10;}
	.st17{fill:#FFFFFF;}
	.st18{fill:none;stroke:#000000;stroke-width:5;stroke-linejoin:round;stroke-miterlimit:10;}
	.st19{fill:#82C7EE;}
	.st20{fill:#88D1F1;}
	.st21{fill:#D4E9F8;stroke:#000000;stroke-width:5;stroke-miterlimit:10;}
	.st22{fill-rule:evenodd;clip-rule:evenodd;fill:#D4E9F8;stroke:#000000;stroke-width:5;stroke-miterlimit:10;}
	.st23{fill-rule:evenodd;clip-rule:evenodd;fill:none;stroke:#000000;stroke-width:5;stroke-miterlimit:10;}
	.st24{fill:#ACD7F3;}
	.st25{fill:#00B7AA;}
	.st26{fill:#84CFC8;}
	.st27{fill:#010101;}
	.st28{fill:#ACD7F3;stroke:#000000;stroke-width:3.7167;stroke-miterlimit:10;}
	.st29{fill:#ADDDD8;}
	.st30{fill:#88D1F1;stroke:#000000;stroke-width:5;stroke-miterlimit:10;}
	.st31{fill:#D0D0D0;stroke:#000000;stroke-width:5;stroke-miterlimit:10;}
	.st32{fill:#9D9D9C;stroke:#000000;stroke-width:5;stroke-miterlimit:10;}
	.st33{fill:#6DC9C3;}
	.st34{stroke:#000000;stroke-width:2;stroke-miterlimit:10;}
</style>
<g id="Create_Invitation">
</g>
<g id="Buoyant">
</g>
<g id="Human">
</g>
<g id="Layer_1">
	<g>
		<path d="M140,136c1-9.6,7.4-17.3,14.9-17.3c7.5,0,13.9,7.7,14.9,17.3h8.9c-1.1-14.2-11.4-25.3-23.8-25.3s-22.7,11.2-23.8,25.3H140
			z"/>
		<g>
			<g>
				<circle class="st8" cx="167" cy="82.4" r="9.5"/>
				<path class="st9" d="M116.3,111.9c-0.3-12,8-22.5,19.7-25.1l5.5-1.2c0.5-3,2.4-5.6,5.3-7c4.3-2,9.2-0.6,11.8,3.2l35.6-7.9
					c9-2.5,18.5,1.9,22.5,10.3l6.9,14.6l-8.4,4c4.4,9.3,0.4,20.3-8.9,24.7l-13.6,6.4l-3.3,1.5c-11.6,5.5-13.4,17.3,3,29.4
					c21.7,16,14.4,40.8,14.4,40.8l-95.6,10.4L81.9,213c-7.1-4.8,1.3-18,1.6-18.1c18-5.8,31.6-19.1,31.6-38.4L116.3,111.9z"/>
				<g>
					<path class="st7" d="M207.1,106.5l-1.9,5.3c-0.6,1.6-2.3,2.4-3.9,1.8l-5.3-1.9l-1.9,5.3c-0.6,1.6-2.3,2.4-3.9,1.8l-5.3-1.9
						l-1.9,5.3c-0.6,1.6-2.3,2.4-3.9,1.8l-5.3-1.9"/>
				</g>
				<path class="st10" d="M209.2,75.9c-0.4,2.9-2.2,5.6-5.1,6.9c-4.5,2.1-9.9,0.2-12-4.3c-0.6-1.3-0.9-2.7-0.9-4.1l2.8-0.6
					C199.4,72.3,204.8,73.2,209.2,75.9z"/>
				<path class="st7" d="M136.7,126.5c-0.6-0.8-1.1-1.6-1.5-2.5l-1.5-3.3"/>
				<path class="st7" d="M154.9,131.1L154.9,131.1c-4.4,2.1-9.3,1.8-13.2-0.3"/>
				<path class="st10" d="M115.5,141.4c0,0,14.2,6,14.1,15.4c-0.1,12.6-16.4,12.6-16.4,12.6c1.7-5.1,1.9-11.1,2.1-17.9
					C115.3,147.2,115.5,141.4,115.5,141.4z"/>
			</g>
			<path class="st7" d="M157.1,94.5c0-2.6-2.1-4.7-4.7-4.7c-2.6,0-4.7,2.1-4.7,4.7"/>
		</g>
		<circle cx="153.1" cy="95.8" r="8.8"/>
		<path class="st17" d="M149,92.4h4.2v4.2H149V92.4z"/>
		<path class="st1" d="M216.5,186.9L216.5,186.9l-7,5.8l-11.3,10.2c-4-3.4-12.9-10.9-16.9-14.2l-16.5,13.7l-16.5-13.7l-16.5,13.7
			l-16.4-13.7l-16.9,14.2c-2-1.8-16.5-14.8-18.2-16C25.6,341.3,271,358.2,216.5,186.9z"/>
		<path d="M182.2,235.8h8.3v8.3h-8.3V235.8z"/>
		<path d="M151.1,275h8.3v8.3h-8.3V275z"/>
		<path d="M88.6,228.5h8.3v8.3h-8.3V228.5z"/>
		<path class="st15" d="M192.5,198.6c-3.2,17.6-18.6,32-37.1,30.9c-28.2-1.7-33.5-32.2-35.7-36.8c-0.1-0.1,0.1-0.2,0.2-0.2l12,10
			l16.5-13.7l16.5,13.7l16.5-13.7c2.6,2.2,7.4,6.1,11.4,9.6L192.5,198.6z"/>
		<path class="st15" d="M221.7,250.7c-3.6,21-14,36.2-27.8,45.9l-0.8,0.6c-3.6-15.4,1.2-36.3,16-43.7c4.1-2,8.3-3.2,12.6-3.6
			L221.7,250.7z"/>
		<path class="st1" d="M304,246.4l-3,0l-9.8,0l-4.4,0l-6.7,14.4l-17.2,0.1l-1.7,3.7l-3.8,8.1l-1.2,2.5l-17.2,0.1l-9,19.2l1.4,1.9
			c18.7,25.6,57.3,32.4,85.9,15.1c28.6-17.3,36.6-52.1,17.9-77.7l-1.4-1.9l-22.9,0.1L304,246.4z"/>
		<path class="st15" d="M137.1,287c0-19.4-15.7-35.2-35.2-35.2c-9,0-23.9,9-23.9,9c7.2,20.6,28.8,38.8,53.2,45.6
			C131.2,306.5,137.1,294.3,137.1,287z"/>
		<path class="st15" d="M238.4,276.6c6.3,3.9,28.1,21.1,49.8,5.7c11.6-8.3,12-23.8,6.6-35.8h-7.9l-6.7,14.4l-17.2,0.1l-6.7,14.4
			l-17.2,0.1L238.4,276.6z"/>
		<path d="M315.4,280.2h8.3v8.3h-8.3V280.2z"/>
		<path class="st7" d="M98.1,307.8c6.9,4.4,14.3,7.8,22,10.4"/>
		<path class="st7" d="M54.6,229.6c1.1,31.6,14.7,55.5,34,71.4"/>
		<polyline class="st7" points="269.4,244 276.8,228.5 294.1,228.5 298.5,213.1 		"/>
	</g>
</g>
</svg>
