<svg xmlns="http://www.w3.org/2000/svg" viewBox="0 0 400 400" style="enable-background:new 0 0 400 400" xml:space="preserve"><style>.st11{fill:#d4e9f8}.st24{fill:#acd7f3}.st25{fill:#00b7aa}</style><g id="Layer_1"><path d="M254.6 80.2c-42.8 0-77.5 34.7-77.5 77.5s34.7 77.5 77.5 77.5 77.5-34.7 77.5-77.5-34.6-77.5-77.5-77.5z" style="fill:#82c7ee"/><path d="M187.4 119.3c13.4-23.2 38.4-38.8 67.1-38.8 42.7 0 77.4 34.7 77.4 77.4s-34.7 77.4-77.4 77.4-77.4-34.7-77.4-77.4c0-2.8.1-5.5.4-8.2" style="fill:none;stroke:#000;stroke-width:5;stroke-miterlimit:10"/><path class="st24" d="M127.8 161.2h5.2v5.2h-5.2z"/><path class="st25" d="M49.1 240.3h5.2v5.2h-5.2z"/><path d="M191.3 177.5c-61.1 0-110.6 49.5-110.6 110.6h27.7c0-45.8 37.1-82.9 82.9-82.9 45.8 0 82.9 37.1 82.9 82.9h27.7c0-61.1-49.5-110.6-110.6-110.6z" style="fill:#00b7aa;stroke:#000;stroke-width:5;stroke-miterlimit:10"/><path d="M191.3 205.2c-45.8 0-82.9 37.1-82.9 82.9h27.7c0-30.5 24.7-55.2 55.2-55.2 30.5 0 55.2 24.7 55.2 55.2h27.7c0-45.8-37.1-82.9-82.9-82.9z" style="fill:#84cfc8;stroke:#000;stroke-width:5;stroke-miterlimit:10"/><path d="M191.3 232.9c-30.5 0-55.2 24.7-55.2 55.2h27.7c0-15.2 12.3-27.5 27.5-27.5s27.5 12.3 27.5 27.5h27.7c0-30.5-24.7-55.2-55.2-55.2z" style="fill:#d4e9f8;stroke:#000;stroke-width:5;stroke-miterlimit:10"/><path class="st11" d="M106.6 271.4c0-13.9-11.2-25.1-25.1-25.1s-25.1 11.2-25.1 25.1h50.2zM56.4 271.4c0-5.7-4.6-10.3-10.3-10.3s-10.3 4.6-10.3 10.3h20.6zM205.6 198.2c0-19.4 15.7-35.1 35.1-35.1s35.1 15.7 35.1 35.1h-70.2z"/><path class="st11" d="M275.7 198.2c0-8 6.5-14.4 14.4-14.4s14.4 6.5 14.4 14.4h-28.8z"/><path class="st24" d="M350.3 208.6h5.2v5.2h-5.2z"/><path class="st11" d="M296.3 171.7h5.2v5.2h-5.2z"/><path class="st25" d="M324.5 258.3h5.2v5.2h-5.2z"/></g></svg>