<?xml version="1.0" encoding="utf-8"?>
<!-- Generator: Adobe Illustrator 26.1.0, SVG Export Plug-In . SVG Version: 6.00 Build 0)  -->
<svg version="1.1" xmlns="http://www.w3.org/2000/svg" xmlns:xlink="http://www.w3.org/1999/xlink" x="0px" y="0px"
	 viewBox="0 0 400 400" style="enable-background:new 0 0 400 400;" xml:space="preserve">
<style type="text/css">
	.st0{fill:#ACD7F3;stroke:#000000;stroke-width:5;stroke-miterlimit:10;}
	.st1{fill:#FFFFFF;stroke:#000000;stroke-width:5;stroke-miterlimit:10;}
	.st2{fill:#FFFFFF;stroke:#000000;stroke-width:5;stroke-linejoin:round;stroke-miterlimit:10;}
	.st3{fill:#00B7AA;stroke:#000000;stroke-width:5;stroke-miterlimit:10;}
	.st4{fill:#84CFC8;stroke:#000000;stroke-width:5;stroke-linejoin:round;stroke-miterlimit:10;}
	.st5{fill:#BFE6EF;stroke:#000000;stroke-width:5;stroke-miterlimit:10;}
	.st6{fill:#D4E9F8;stroke:#D4E9F8;stroke-width:5;stroke-miterlimit:10;}
	.st7{fill:none;stroke:#000000;stroke-width:5;stroke-miterlimit:10;}
	.st8{fill:#54C2B8;stroke:#000000;stroke-width:5;stroke-miterlimit:10;}
	.st9{fill:#D5EDEA;stroke:#000000;stroke-width:5;stroke-miterlimit:10;}
	.st10{fill:#ADDDD8;stroke:#000000;stroke-width:5;stroke-miterlimit:10;}
	.st11{fill:#D4E9F8;}
	.st12{fill:none;stroke:#FFFFFF;stroke-width:5;stroke-miterlimit:10;}
	.st13{stroke:#000000;stroke-width:5;stroke-miterlimit:10;}
	.st14{fill:#84CFC8;stroke:#000000;stroke-width:5;stroke-miterlimit:10;}
	.st15{fill:#82C7EE;stroke:#000000;stroke-width:5;stroke-miterlimit:10;}
	.st16{fill:#B0B4E5;stroke:#000000;stroke-width:5;stroke-miterlimit:10;}
	.st17{fill:#FFFFFF;}
	.st18{fill:none;stroke:#000000;stroke-width:5;stroke-linejoin:round;stroke-miterlimit:10;}
	.st19{fill:#82C7EE;}
	.st20{fill:#88D1F1;}
	.st21{fill:#D4E9F8;stroke:#000000;stroke-width:5;stroke-miterlimit:10;}
	.st22{fill-rule:evenodd;clip-rule:evenodd;fill:#D4E9F8;stroke:#000000;stroke-width:5;stroke-miterlimit:10;}
	.st23{fill-rule:evenodd;clip-rule:evenodd;fill:none;stroke:#000000;stroke-width:5;stroke-miterlimit:10;}
	.st24{fill:#ACD7F3;}
	.st25{fill:#00B7AA;}
	.st26{fill:#84CFC8;}
	.st27{fill:#010101;}
	.st28{fill:#ACD7F3;stroke:#000000;stroke-width:3.7167;stroke-miterlimit:10;}
	.st29{fill:#ADDDD8;}
	.st30{fill:#88D1F1;stroke:#000000;stroke-width:5;stroke-miterlimit:10;}
	.st31{fill:#D0D0D0;stroke:#000000;stroke-width:5;stroke-miterlimit:10;}
	.st32{fill:#9D9D9C;stroke:#000000;stroke-width:5;stroke-miterlimit:10;}
	.st33{fill:#6DC9C3;}
	.st34{stroke:#000000;stroke-width:2;stroke-miterlimit:10;}
</style>
<g id="Create_Invitation">
</g>
<g id="Buoyant">
</g>
<g id="Human">
</g>
<g id="Layer_1">
	<g>
		<rect x="43.2" y="92.8" class="st3" width="312.2" height="21.4"/>
		<polygon class="st1" points="149.6,114.2 81.7,114.2 86.3,101.2 145,101.2 		"/>
		<rect x="43.2" y="114.2" class="st1" width="312.2" height="187"/>
		<path class="st0" d="M286.7,301.2c0-13.4-3.6-20.5,10.7-41.7c18.7-27.8-16.2-25.7-18.3-67.2c-1.5-30.7-27.7-45.5-56.1-32.1
			s-35.3,39.5-76.2,21.8s-60.5,13.8-56.2,33c6,27.3,40.4,34.5,22.3,55.8c-11.4,13.4-12.5,20.4-12.5,30.4H286.7z"/>
		<g>
			<circle class="st1" cx="150.3" cy="207.7" r="9.6"/>
			<path class="st3" d="M168.2,262.4h-35.7v-27.3c0-9.9,8-17.9,17.9-17.9h0c9.9,0,17.9,8,17.9,17.9V262.4z"/>
			<g>
				<line class="st1" x1="141.4" y1="262.4" x2="141.4" y2="301.2"/>
				<line class="st1" x1="159.3" y1="262.4" x2="159.3" y2="301.2"/>
			</g>
			<path class="st7" d="M168.2,235.2v6.4c0,4.4,3.6,8,8,8h0c4.4,0,8-3.6,8-8v-6.4"/>
			<polyline class="st0" points="150.3,198.1 132.5,198.1 132.5,242.4 150.3,242.4 150.3,198.1 			"/>
		</g>
		<g>
			<circle class="st1" cx="238.1" cy="207.7" r="9.6"/>
			<path class="st0" d="M247.7,207.7c0-5.3-4.3-9.6-9.6-9.6s-9.6,4.3-9.6,9.6"/>
			<path class="st3" d="M220.2,274.5H256v-39.3c0-9.9-8-17.9-17.9-17.9h0c-9.9,0-17.9,8-17.9,17.9V274.5z"/>
			<g>
				<line class="st1" x1="247" y1="274.5" x2="247" y2="301.2"/>
				<line class="st1" x1="229.2" y1="274.5" x2="229.2" y2="301.2"/>
			</g>
			<path class="st7" d="M220.2,235.2v6.4c0,4.4-3.6,8-8,8h0c-4.4,0-8-3.6-8-8v-6.4"/>
			<line class="st1" x1="228.5" y1="207.7" x2="257" y2="207.7"/>
		</g>
		<rect x="43.2" y="114.2" class="st1" width="312.2" height="21.4"/>
		<line class="st1" x1="229.5" y1="124.9" x2="246.7" y2="124.9"/>
		<line class="st1" x1="61.8" y1="124.9" x2="224.9" y2="124.9"/>

			<ellipse transform="matrix(0.9426 -0.3339 0.3339 0.9426 -50.1833 112.5697)" class="st0" cx="302.4" cy="202.3" rx="7.9" ry="14.4"/>
	</g>
</g>
</svg>
