<?xml version="1.0" encoding="utf-8"?>
<!-- Generator: Adobe Illustrator 26.1.0, SVG Export Plug-In . SVG Version: 6.00 Build 0)  -->
<svg version="1.1" xmlns="http://www.w3.org/2000/svg" xmlns:xlink="http://www.w3.org/1999/xlink" x="0px" y="0px"
	 viewBox="0 0 400 400" style="enable-background:new 0 0 400 400;" xml:space="preserve">
<style type="text/css">
	.st0{fill:#ACD7F3;stroke:#000000;stroke-width:5;stroke-miterlimit:10;}
	.st1{fill:#FFFFFF;stroke:#000000;stroke-width:5;stroke-miterlimit:10;}
	.st2{fill:#FFFFFF;stroke:#000000;stroke-width:5;stroke-linejoin:round;stroke-miterlimit:10;}
	.st3{fill:#00B7AA;stroke:#000000;stroke-width:5;stroke-miterlimit:10;}
	.st4{fill:#84CFC8;stroke:#000000;stroke-width:5;stroke-linejoin:round;stroke-miterlimit:10;}
	.st5{fill:#BFE6EF;stroke:#000000;stroke-width:5;stroke-miterlimit:10;}
	.st6{fill:#D4E9F8;stroke:#D4E9F8;stroke-width:5;stroke-miterlimit:10;}
	.st7{fill:none;stroke:#000000;stroke-width:5;stroke-miterlimit:10;}
	.st8{fill:#54C2B8;stroke:#000000;stroke-width:5;stroke-miterlimit:10;}
	.st9{fill:#D5EDEA;stroke:#000000;stroke-width:5;stroke-miterlimit:10;}
	.st10{fill:#ADDDD8;stroke:#000000;stroke-width:5;stroke-miterlimit:10;}
	.st11{fill:#D4E9F8;}
	.st12{fill:none;stroke:#FFFFFF;stroke-width:5;stroke-miterlimit:10;}
	.st13{stroke:#000000;stroke-width:5;stroke-miterlimit:10;}
	.st14{fill:#84CFC8;stroke:#000000;stroke-width:5;stroke-miterlimit:10;}
	.st15{fill:#82C7EE;stroke:#000000;stroke-width:5;stroke-miterlimit:10;}
	.st16{fill:#B0B4E5;stroke:#000000;stroke-width:5;stroke-miterlimit:10;}
	.st17{fill:#FFFFFF;}
	.st18{fill:none;stroke:#000000;stroke-width:5;stroke-linejoin:round;stroke-miterlimit:10;}
	.st19{fill:#82C7EE;}
	.st20{fill:#88D1F1;}
	.st21{fill:#D4E9F8;stroke:#000000;stroke-width:5;stroke-miterlimit:10;}
	.st22{fill-rule:evenodd;clip-rule:evenodd;fill:#D4E9F8;stroke:#000000;stroke-width:5;stroke-miterlimit:10;}
	.st23{fill-rule:evenodd;clip-rule:evenodd;fill:none;stroke:#000000;stroke-width:5;stroke-miterlimit:10;}
	.st24{fill:#ACD7F3;}
	.st25{fill:#00B7AA;}
	.st26{fill:#84CFC8;}
	.st27{fill:#010101;}
	.st28{fill:#ACD7F3;stroke:#000000;stroke-width:3.7167;stroke-miterlimit:10;}
	.st29{fill:#ADDDD8;}
	.st30{fill:#88D1F1;stroke:#000000;stroke-width:5;stroke-miterlimit:10;}
	.st31{fill:#D0D0D0;stroke:#000000;stroke-width:5;stroke-miterlimit:10;}
	.st32{fill:#9D9D9C;stroke:#000000;stroke-width:5;stroke-miterlimit:10;}
	.st33{fill:#6DC9C3;}
	.st34{stroke:#000000;stroke-width:2;stroke-miterlimit:10;}
</style>
<g id="Create_Invitation">
</g>
<g id="Buoyant">
</g>
<g id="Human">
</g>
<g id="Layer_1">
	<g>
		<path class="st21" d="M174.7,156.9l62.1-62.1l69.9,69.9l-62.1,62.1L174.7,156.9z"/>
		<path class="st7" d="M296,153.8c11.6-7.9,17.3-22.1,14.5-35.8s-13.8-24.5-27.6-27.1c-13.8-2.6-27.9,3.3-35.6,15.1l0,0"/>
		<g>
			<path class="st22" d="M130.5,188.1C130.5,188.1,130.5,188.1,130.5,188.1C130.5,188.1,130.5,188.1,130.5,188.1z"/>
			<path class="st22" d="M208.7,190.9l-55.7,7.5c-4-6.8-11.4-11.5-19.8-11.5v46c9,0,16.7-5.2,20.5-12.7l87.8,3.5L208.7,190.9z"/>
		</g>
		<path class="st3" d="M95.3,308.2c-8.6,0-15.9-5.5-18.6-13.2h18.6c8.6,0,15.9,5.5,18.6,13.2H95.3z M139,318.9h-18.6
			c2.7-7.7,10-13.2,18.6-13.2h18.6C154.9,313.4,147.6,318.9,139,318.9z"/>
		<path d="M112.8,229h-6.5v6.5h6.5V229z"/>
		<path d="M112.8,242h-6.5v6.5h6.5V242z"/>
		<path d="M112.8,255h-6.5v6.5h6.5V255z"/>
		<path d="M124.8,245.5h-6.5v6.5h6.5V245.5z"/>
		<path d="M124.8,232.5h-6.5v6.5h6.5V232.5z"/>
		<path d="M124.8,219.4h-6.5v6.5h6.5V219.4z"/>
		<line class="st23" x1="289.5" y1="164.9" x2="262.3" y2="137.8"/>
		<line class="st23" x1="255.6" y1="239.7" x2="307.2" y2="188.1"/>
		<line class="st7" x1="116.1" y1="292.5" x2="116.1" y2="337.5"/>
		<g>
			<path class="st14" d="M266.6,98.7c2.2,2.2,5.7,2.2,7.9,0.1c-2.2,2.2-2.2,5.7-0.1,7.9s5.7,2.2,7.9,0.1l-1.2,1.1
				c-2.2,2.2-2.2,5.7-0.1,7.9s5.7,2.2,7.9,0.1l-0.6,0.4c-2.2,2.2-2.2,5.7-0.1,7.9s5.7,2.2,7.9,0.1l2.9-2.7l9.4-9.3l3.4,3.4
				c1.3,1.3,3.4,1.3,4.7,0l6.1-6c3.2-3.2,3.2-8.3,0.1-11.5l0,0l10.5-10.4L302,56l-25.6,25.3l-8.5,8.4l-1.1,1.1
				C264.5,93,264.5,96.5,266.6,98.7z"/>
			<g>
				<line class="st14" x1="299.1" y1="121.4" x2="308.5" y2="112.2"/>
				<line class="st14" x1="285.9" y1="118.8" x2="297.2" y2="108.1"/>
				<line class="st14" x1="282.3" y1="106.7" x2="289.7" y2="99.8"/>
				<line class="st14" x1="274.5" y1="98.8" x2="282.2" y2="91.2"/>
				<line class="st14" x1="267.8" y1="89.7" x2="277.2" y2="80.5"/>
			</g>
		</g>
		<line class="st7" x1="66.7" y1="338.1" x2="319.2" y2="338.1"/>
		<line class="st23" x1="310.2" y1="184.9" x2="317.6" y2="177.6"/>
		<line class="st7" x1="142.8" y1="189.5" x2="142.8" y2="210"/>
		<line class="st7" x1="168" y1="210" x2="230.2" y2="212"/>
	</g>
</g>
</svg>
