<?xml version="1.0" encoding="utf-8"?>
<!-- Generator: Adobe Illustrator 26.1.0, SVG Export Plug-In . SVG Version: 6.00 Build 0)  -->
<svg version="1.1" xmlns="http://www.w3.org/2000/svg" xmlns:xlink="http://www.w3.org/1999/xlink" x="0px" y="0px"
	 viewBox="0 0 400 400" style="enable-background:new 0 0 400 400;" xml:space="preserve">
<style type="text/css">
	.st0{fill:#ACD7F3;stroke:#000000;stroke-width:5;stroke-miterlimit:10;}
	.st1{fill:#FFFFFF;stroke:#000000;stroke-width:5;stroke-miterlimit:10;}
	.st2{fill:#FFFFFF;stroke:#000000;stroke-width:5;stroke-linejoin:round;stroke-miterlimit:10;}
	.st3{fill:#00B7AA;stroke:#000000;stroke-width:5;stroke-miterlimit:10;}
	.st4{fill:#84CFC8;stroke:#000000;stroke-width:5;stroke-linejoin:round;stroke-miterlimit:10;}
	.st5{fill:#BFE6EF;stroke:#000000;stroke-width:5;stroke-miterlimit:10;}
	.st6{fill:#D4E9F8;stroke:#D4E9F8;stroke-width:5;stroke-miterlimit:10;}
	.st7{fill:none;stroke:#000000;stroke-width:5;stroke-miterlimit:10;}
	.st8{fill:#54C2B8;stroke:#000000;stroke-width:5;stroke-miterlimit:10;}
	.st9{fill:#D5EDEA;stroke:#000000;stroke-width:5;stroke-miterlimit:10;}
	.st10{fill:#ADDDD8;stroke:#000000;stroke-width:5;stroke-miterlimit:10;}
	.st11{fill:#D4E9F8;}
	.st12{fill:none;stroke:#FFFFFF;stroke-width:5;stroke-miterlimit:10;}
	.st13{stroke:#000000;stroke-width:5;stroke-miterlimit:10;}
	.st14{fill:#84CFC8;stroke:#000000;stroke-width:5;stroke-miterlimit:10;}
	.st15{fill:#82C7EE;stroke:#000000;stroke-width:5;stroke-miterlimit:10;}
	.st16{fill:#B0B4E5;stroke:#000000;stroke-width:5;stroke-miterlimit:10;}
	.st17{fill:#FFFFFF;}
	.st18{fill:none;stroke:#000000;stroke-width:5;stroke-linejoin:round;stroke-miterlimit:10;}
	.st19{fill:#82C7EE;}
	.st20{fill:#88D1F1;}
	.st21{fill:#D4E9F8;stroke:#000000;stroke-width:5;stroke-miterlimit:10;}
	.st22{fill-rule:evenodd;clip-rule:evenodd;fill:#D4E9F8;stroke:#000000;stroke-width:5;stroke-miterlimit:10;}
	.st23{fill-rule:evenodd;clip-rule:evenodd;fill:none;stroke:#000000;stroke-width:5;stroke-miterlimit:10;}
	.st24{fill:#ACD7F3;}
	.st25{fill:#00B7AA;}
	.st26{fill:#84CFC8;}
	.st27{fill:#010101;}
	.st28{fill:#ACD7F3;stroke:#000000;stroke-width:3.7167;stroke-miterlimit:10;}
	.st29{fill:#ADDDD8;}
	.st30{fill:#88D1F1;stroke:#000000;stroke-width:5;stroke-miterlimit:10;}
	.st31{fill:#D0D0D0;stroke:#000000;stroke-width:5;stroke-miterlimit:10;}
	.st32{fill:#9D9D9C;stroke:#000000;stroke-width:5;stroke-miterlimit:10;}
	.st33{fill:#6DC9C3;}
	.st34{stroke:#000000;stroke-width:2;stroke-miterlimit:10;}
</style>
<g id="Create_Invitation">
</g>
<g id="Buoyant">
</g>
<g id="Human">
	<g>
		<path class="st14" d="M221.9,177.4c8.3-3.8,23.1,1.6,42.8,28.7h0c6.2,0.4,10.8-5.5,8.8-11.4v0c-2.5-7.5-6.4-14.4-11.8-20.3
			c-16.7-18.3-32.3-22.6-39.4-19.4"/>
		<g>
			<circle class="st1" cx="322.1" cy="232.2" r="8.3"/>
			<path class="st15" d="M330,234.8c1.5-4.3-0.9-9-5.2-10.5c-4.3-1.5-9,0.9-10.5,5.2"/>
			<path class="st3" d="M305.6,291.3h30.9v-34.1c0-8.5-6.9-15.5-15.5-15.5h0c-8.5,0-15.5,6.9-15.5,15.5V291.3z"/>
			<g>
				<line class="st1" x1="328.8" y1="291.3" x2="328.8" y2="314.4"/>
				<line class="st1" x1="313.4" y1="291.3" x2="313.4" y2="314.4"/>
			</g>
			<line class="st1" x1="314.2" y1="229.5" x2="337.7" y2="237.4"/>
		</g>
		<circle class="st15" cx="279.2" cy="88.8" r="11.2"/>
		<path class="st14" d="M223.6,302.5h-16.8l-13-32.6c2.3,0.4,4.7,0.5,7.1,0.5c25.9,0,46.9-21,46.9-46.9c0-25.9-21-46.9-46.9-46.9
			s-46.9,21-46.9,46.9c0,7.7,1.9,15,5.2,21.4c-6.2,2.3-9.8,9.4-7.1,16.1l21.3,53.4h5.6h32.6h24C235.5,307.9,230.2,302.5,223.6,302.5
			z"/>
		<path class="st9" d="M309.9,102.6l-37.9-21.1c0.7-5.4-2.6-10.6-8-12.1c-3.7-1.1-7.4-0.2-10.2,2l-5.8-3.2
			c-12.5-6.9-28.1-4.1-37.3,6.8l-11.5,13.5l-29.1,34.3c-29.4,35-65.1,72.5-129.9,38.7c-7.7-4-15.9,4.4-11.6,12
			c20.5,36.7,58.1,96.4,125.4,96.4c63.3,0,75.8-40.2,75.8-83.6c0-24.6,12.7-37.1,27.3-32.7l4.1,1.2l17.1,5
			c11.7,3.4,23.9-3.2,27.3-14.9l10.6,3.1l5.4-18.4C324.9,118.8,319.9,107.5,309.9,102.6z"/>
		<g>
			<path class="st7" d="M295.6,141.8l-5.8,3.2c-1.8,1-3.9,0.3-4.9-1.4l-3.2-5.8l-5.8,3.2c-1.8,1-3.9,0.3-4.9-1.4l-3.2-5.8l-5.8,3.2
				c-1.8,1-3.9,0.3-4.9-1.4l-3.2-5.8"/>
		</g>
		<path class="st8" d="M321.6,116.3c-2.7,2.3-6.4,3.2-10,2.2c-5.7-1.7-8.9-7.6-7.2-13.3c0.5-1.7,1.4-3.1,2.5-4.3l3,1.7
			C315.7,105.4,319.8,110.5,321.6,116.3z"/>
		<path class="st7" d="M217.3,104c0.1-1.1,0.3-2.3,0.6-3.4l1.2-4.1"/>
		<path class="st7" d="M229.9,122.5L229.9,122.5c-5.5-1.6-9.6-5.7-11.5-10.7"/>
		<path class="st15" d="M194.8,93.8c6.2,5.9,6.6,15.6,0.9,22.1c-5.6,6.2-14.9,7.1-21.5,2.1L194.8,93.8z"/>
		<path class="st7" d="M260.7,91.7c2-2.3,1.8-5.8-0.5-7.8c-2.3-2-5.8-1.8-7.8,0.5"/>
		<path class="st9" d="M187.5,302.5h-16.8l-13-32.6c2.3,0.4,4.7,0.5,7.1,0.5c25.9,0,46.9-21,46.9-46.9c0-25.9-21-46.9-46.9-46.9
			c-25.9,0-46.9,21-46.9,46.9c0,7.7,1.9,15,5.2,21.4c-6.2,2.3-9.8,9.4-7.1,16.1l21.3,53.4h5.6h32.6h24
			C199.4,307.9,194.1,302.5,187.5,302.5z"/>
		<path class="st7" d="M117.8,223.6c0-25.9,21-46.9,46.9-46.9s46.9,21,46.9,46.9s-21,46.9-46.9,46.9c-8.1,0-15.7-2-22.3-5.7"/>
		<line class="st1" x1="43.9" y1="314.4" x2="367.5" y2="314.4"/>
		<g>
			<polygon class="st15" points="272.1,183.2 249.2,196.5 249.2,222.7 272.2,236.1 295.1,222.7 295.1,196.5 			"/>
			<g>
				<polyline class="st7" points="295.1,196.5 272.2,209.8 249.2,196.5 				"/>
			</g>
			<line class="st16" x1="272.2" y1="209.8" x2="272.2" y2="236.1"/>
		</g>
		<path class="st9" d="M227,166.1c-2.7,8.7,4.4,22.8,33.7,39v0c1.2,6.1-4.2,11.4-10.2,10.2h0c-7.7-1.6-15.1-4.6-21.5-9.2
			c-20.2-14.3-26.4-29.3-24.1-36.7"/>
	</g>
</g>
<g id="Layer_1">
</g>
</svg>
