<?xml version="1.0" encoding="utf-8"?>
<!-- Generator: Adobe Illustrator 26.1.0, SVG Export Plug-In . SVG Version: 6.00 Build 0)  -->
<svg version="1.1" xmlns="http://www.w3.org/2000/svg" xmlns:xlink="http://www.w3.org/1999/xlink" x="0px" y="0px"
	 viewBox="0 0 400 400" style="enable-background:new 0 0 400 400;" xml:space="preserve">
<style type="text/css">
	.st0{fill:#ACD7F3;stroke:#000000;stroke-width:5;stroke-miterlimit:10;}
	.st1{fill:#FFFFFF;stroke:#000000;stroke-width:5;stroke-miterlimit:10;}
	.st2{fill:#FFFFFF;stroke:#000000;stroke-width:5;stroke-linejoin:round;stroke-miterlimit:10;}
	.st3{fill:#00B7AA;stroke:#000000;stroke-width:5;stroke-miterlimit:10;}
	.st4{fill:#84CFC8;stroke:#000000;stroke-width:5;stroke-linejoin:round;stroke-miterlimit:10;}
	.st5{fill:#BFE6EF;stroke:#000000;stroke-width:5;stroke-miterlimit:10;}
	.st6{fill:#D4E9F8;stroke:#D4E9F8;stroke-width:5;stroke-miterlimit:10;}
	.st7{fill:none;stroke:#000000;stroke-width:5;stroke-miterlimit:10;}
	.st8{fill:#54C2B8;stroke:#000000;stroke-width:5;stroke-miterlimit:10;}
	.st9{fill:#D5EDEA;stroke:#000000;stroke-width:5;stroke-miterlimit:10;}
	.st10{fill:#ADDDD8;stroke:#000000;stroke-width:5;stroke-miterlimit:10;}
	.st11{fill:#D4E9F8;}
	.st12{fill:none;stroke:#FFFFFF;stroke-width:5;stroke-miterlimit:10;}
	.st13{stroke:#000000;stroke-width:5;stroke-miterlimit:10;}
	.st14{fill:#84CFC8;stroke:#000000;stroke-width:5;stroke-miterlimit:10;}
	.st15{fill:#82C7EE;stroke:#000000;stroke-width:5;stroke-miterlimit:10;}
	.st16{fill:#B0B4E5;stroke:#000000;stroke-width:5;stroke-miterlimit:10;}
	.st17{fill:#FFFFFF;}
	.st18{fill:none;stroke:#000000;stroke-width:5;stroke-linejoin:round;stroke-miterlimit:10;}
	.st19{fill:#82C7EE;}
	.st20{fill:#88D1F1;}
	.st21{fill:#D4E9F8;stroke:#000000;stroke-width:5;stroke-miterlimit:10;}
	.st22{fill-rule:evenodd;clip-rule:evenodd;fill:#D4E9F8;stroke:#000000;stroke-width:5;stroke-miterlimit:10;}
	.st23{fill-rule:evenodd;clip-rule:evenodd;fill:none;stroke:#000000;stroke-width:5;stroke-miterlimit:10;}
	.st24{fill:#ACD7F3;}
	.st25{fill:#00B7AA;}
	.st26{fill:#84CFC8;}
	.st27{fill:#010101;}
	.st28{fill:#ACD7F3;stroke:#000000;stroke-width:3.7167;stroke-miterlimit:10;}
	.st29{fill:#ADDDD8;}
	.st30{fill:#88D1F1;stroke:#000000;stroke-width:5;stroke-miterlimit:10;}
	.st31{fill:#D0D0D0;stroke:#000000;stroke-width:5;stroke-miterlimit:10;}
	.st32{fill:#9D9D9C;stroke:#000000;stroke-width:5;stroke-miterlimit:10;}
	.st33{fill:#6DC9C3;}
	.st34{stroke:#000000;stroke-width:2;stroke-miterlimit:10;}
</style>
<g id="Create_Invitation">
</g>
<g id="Buoyant">
</g>
<g id="Human">
</g>
<g id="Layer_1">
	
		<rect x="85.2" y="133.8" transform="matrix(0.9979 -6.494750e-02 6.494750e-02 0.9979 -13.6997 14.2293)" class="st6" width="253.7" height="168.1"/>
	<rect x="208.9" y="275" class="st17" width="59" height="38.4"/>
	<path class="st0" d="M29.1,225.2l4.5-1.3l-1.3-6.8c-0.7-3.4,2.6-6.3,6.6-5.8l8,0.9l0.8-6.8c0.4-3.4,4.4-5.4,8.2-4.1l7.5,2.7
		l2.8-6.4c1.4-3.2,6-4.2,9.2-2.1l6.5,4.2l4.7-5.5c2.3-2.7,7.1-2.7,9.6,0l5.1,5.5l6.2-4.2c3.1-2.1,7.7-1,9.4,2.2l3.3,6.4l7.3-2.6
		c3.6-1.3,7.8,0.7,8.5,4.1l1.3,6.8l7.9-0.9c3.9-0.4,7.4,2.5,7,5.8l-0.8,6.8l8,0.9c4,0.4,6.5,4,5.1,7.1l-2.9,6.3l4.1,2.3
		c4.3,2.4,3.7,7.9-1.1,9.2l-5-2.8l1.3,6.8c0.7,3.4-2.6,6.3-6.6,5.8l-8-0.9l-0.2,10.9c-0.4,3.4-4.4,5.4-8.2,4.1l-3.5-1.3
		c1.7,6.1,4.3,10.3,8.3,15.2c1.2,1.4,0,3.5-1.8,3.3c-6.7-0.8-18.9-3.9-28.4-15.3l-0.7-0.7l-4.6,5.8c-2.3,2.7-7.1,2.7-9.6,0l-5.1-5.5
		l-6.2,4.2c-3.1,2.1-7.7,1-9.4-2.2l-3.3-6.4l-7.3,2.6c-3.6,1.3-7.8-0.7-8.5-4.1l-1.3-6.8l-7.9,0.9c-3.9,0.4-7.4-2.5-7-5.8l0.8-6.8
		l-8-0.9c-4-0.4-6.5-4-5.1-7.1l2.9-6.3l-4.1-2.3C24.1,232.2,24.8,226.4,29.1,225.2z"/>
	<path class="st3" d="M271,153.7l-130.7-1.5c-11.5,0-20.8,11.1-20.8,24.9v37.4c0,13.7,9.3,24.9,20.8,24.9h17.4v25.5
		c0,1.6,1.7,2.4,2.6,1.2l20.6-26.7l90,1.5c11.5,0,20.8-11.1,20.8-24.9v-37.4C291.8,164.9,282.4,153.7,271,153.7z"/>
	<g>
		<line class="st1" x1="214.9" y1="313.4" x2="208.9" y2="313.4"/>
		<path class="st1" d="M210.9,289.4v-50.2c0-5.9,4.8-10.8,10.8-10.8h125.5c5.9,0,10.8,4.8,10.8,10.8v74.1H223.8"/>
		<rect x="210.9" y="228.5" class="st21" width="147" height="20.5"/>
	</g>
	<path class="st14" d="M319,105.7c-1.2,0-2.4,0.1-3.6,0.3c-1.3-9.5-9.5-16.9-19.4-16.9c-3.2,0-6.2,0.8-8.8,2.1
		c-1.7-9.1-9.6-16.1-19.3-16.1c-9.6,0-17.6,6.9-19.3,16.1c-2.7-1.3-5.7-2.1-8.8-2.1c-9.9,0-18.1,7.4-19.4,16.9
		c-1.2-0.2-2.4-0.3-3.6-0.3c-10.8,0-19.6,8.8-19.6,19.6c0,10.8,8.8,19.6,19.6,19.6c1.2,0,2.4-0.1,3.6-0.3
		c1.3,9.5,9.5,16.9,19.4,16.9c3.2,0,6.2-0.8,8.8-2.1c1.7,9.1,9.6,16.1,19.3,16.1c9.6,0,17.6-6.9,19.3-16.1c2.7,1.4,5.7,2.1,8.8,2.1
		c9.9,0,18.1-7.4,19.4-16.9c1.2,0.2,2.4,0.3,3.6,0.3c10.8,0,19.6-8.8,19.6-19.6C338.6,114.4,329.8,105.7,319,105.7z"/>
	<path class="st1" d="M126.3,174.1c-0.1,0-0.2,0-0.3,0c-9.1-0.7-18-4.5-24.9-11.5c-15.5-15.5-15.5-40.6,0-56.1s40.6-15.5,56.1,0
		c15.5,15.5,13.8,38.9-1.7,54.4l1.7,1.7l10.7,10.7c0.9,0.9,0.2,2.5-1.1,2.5l-39.4-1.6c-0.2,0-0.3,0-0.5,0L126.3,174.1z"/>
	<circle class="st14" cx="317" cy="171" r="8.9"/>
	<circle class="st14" cx="335.1" cy="189.8" r="5.9"/>
	<circle class="st14" cx="352.5" cy="201.7" r="4.3"/>
	<rect x="218.1" y="235.9" width="5.6" height="5.6"/>
	<rect x="229.4" y="235.9" width="5.6" height="5.6"/>
	<rect x="240.6" y="235.9" width="5.6" height="5.6"/>
	<rect x="174" y="110.6" class="st29" width="5.6" height="5.6"/>
	<rect x="200.8" y="89.2" width="5.6" height="5.6"/>
	<rect x="183" y="269.4" class="st17" width="5.6" height="5.6"/>
	<rect x="307.6" y="210.1" class="st25" width="5.6" height="5.6"/>
	<rect x="61.2" y="176" class="st29" width="5.6" height="5.6"/>
	<g>
		<line class="st7" x1="231.7" y1="272.5" x2="249.7" y2="272.5"/>
		<line class="st7" x1="255.5" y1="272.5" x2="335.2" y2="272.5"/>
		<line class="st7" x1="232" y1="289.4" x2="335.2" y2="289.4"/>
	</g>
</g>
</svg>
