<?xml version="1.0" encoding="utf-8"?>
<!-- Generator: Adobe Illustrator 26.1.0, SVG Export Plug-In . SVG Version: 6.00 Build 0)  -->
<svg version="1.1" xmlns="http://www.w3.org/2000/svg" xmlns:xlink="http://www.w3.org/1999/xlink" x="0px" y="0px"
	 viewBox="0 0 400 400" style="enable-background:new 0 0 400 400;" xml:space="preserve">
<style type="text/css">
	.st0{fill:#ACD7F3;stroke:#000000;stroke-width:5;stroke-miterlimit:10;}
	.st1{fill:#FFFFFF;stroke:#000000;stroke-width:5;stroke-miterlimit:10;}
	.st2{fill:#FFFFFF;stroke:#000000;stroke-width:5;stroke-linejoin:round;stroke-miterlimit:10;}
	.st3{fill:#00B7AA;stroke:#000000;stroke-width:5;stroke-miterlimit:10;}
	.st4{fill:#84CFC8;stroke:#000000;stroke-width:5;stroke-linejoin:round;stroke-miterlimit:10;}
	.st5{fill:#BFE6EF;stroke:#000000;stroke-width:5;stroke-miterlimit:10;}
	.st6{fill:#D4E9F8;stroke:#D4E9F8;stroke-width:5;stroke-miterlimit:10;}
	.st7{fill:none;stroke:#000000;stroke-width:5;stroke-miterlimit:10;}
	.st8{fill:#54C2B8;stroke:#000000;stroke-width:5;stroke-miterlimit:10;}
	.st9{fill:#D5EDEA;stroke:#000000;stroke-width:5;stroke-miterlimit:10;}
	.st10{fill:#ADDDD8;stroke:#000000;stroke-width:5;stroke-miterlimit:10;}
	.st11{fill:#D4E9F8;}
	.st12{fill:none;stroke:#FFFFFF;stroke-width:5;stroke-miterlimit:10;}
	.st13{stroke:#000000;stroke-width:5;stroke-miterlimit:10;}
	.st14{fill:#84CFC8;stroke:#000000;stroke-width:5;stroke-miterlimit:10;}
	.st15{fill:#82C7EE;stroke:#000000;stroke-width:5;stroke-miterlimit:10;}
	.st16{fill:#B0B4E5;stroke:#000000;stroke-width:5;stroke-miterlimit:10;}
	.st17{fill:#FFFFFF;}
	.st18{fill:none;stroke:#000000;stroke-width:5;stroke-linejoin:round;stroke-miterlimit:10;}
	.st19{fill:#82C7EE;}
	.st20{fill:#88D1F1;}
	.st21{fill:#D4E9F8;stroke:#000000;stroke-width:5;stroke-miterlimit:10;}
	.st22{fill-rule:evenodd;clip-rule:evenodd;fill:#D4E9F8;stroke:#000000;stroke-width:5;stroke-miterlimit:10;}
	.st23{fill-rule:evenodd;clip-rule:evenodd;fill:none;stroke:#000000;stroke-width:5;stroke-miterlimit:10;}
	.st24{fill:#ACD7F3;}
	.st25{fill:#00B7AA;}
	.st26{fill:#84CFC8;}
	.st27{fill:#010101;}
	.st28{fill:#ACD7F3;stroke:#000000;stroke-width:3.7167;stroke-miterlimit:10;}
	.st29{fill:#ADDDD8;}
	.st30{fill:#88D1F1;stroke:#000000;stroke-width:5;stroke-miterlimit:10;}
	.st31{fill:#D0D0D0;stroke:#000000;stroke-width:5;stroke-miterlimit:10;}
	.st32{fill:#9D9D9C;stroke:#000000;stroke-width:5;stroke-miterlimit:10;}
	.st33{fill:#6DC9C3;}
	.st34{stroke:#000000;stroke-width:2;stroke-miterlimit:10;}
</style>
<g id="Create_Invitation">
</g>
<g id="Buoyant">
</g>
<g id="Human">
</g>
<g id="Layer_1">
	<g>
		<polygon class="st6" points="200,95.8 225.8,117.5 259.5,117.5 265.4,150.7 291.2,172.4 274.4,201.6 280.2,234.8 248.5,246.3 
			231.7,275.5 200,264 168.3,275.5 151.5,246.3 119.8,234.8 125.6,201.6 108.8,172.4 134.6,150.7 140.5,117.5 174.2,117.5 		"/>
		<path class="st20" d="M102.1,262.2l-9-13.8L327.6,95.3c2.2-1.4,5.1-0.8,6.5,1.4l3.8,5.9c1.4,2.2,0.8,5.1-1.4,6.5L102.1,262.2z"/>
		<path class="st7" d="M210.6,171.7l114.1-74.5c3.8-2.5,8.9-1.4,11.4,2.4l0,0c2.5,3.8,1.4,8.9-2.4,11.4l-105.5,68.8"/>
		<polyline class="st7" points="191.2,204 102.1,262.2 93,248.4 174.5,195.2 		"/>
		<line class="st30" x1="90.1" y1="243.9" x2="105" y2="266.7"/>
		
			<rect x="85.5" y="253.2" transform="matrix(0.5466 0.8374 -0.8374 0.5466 258.3939 38.4328)" class="st31" width="16.5" height="9.2"/>
		
			<rect x="65.4" y="263" transform="matrix(0.5466 0.8374 -0.8374 0.5466 260.2652 61.1982)" class="st31" width="16.5" height="15.9"/>
		
			<rect x="21.1" y="291.3" transform="matrix(0.5466 0.8374 -0.8374 0.5466 264.3941 111.4288)" class="st31" width="16.5" height="17.1"/>
		
			<rect x="40" y="267" transform="matrix(0.5466 0.8374 -0.8374 0.5466 262.3077 86.0468)" class="st1" width="23.4" height="36.4"/>
		
			<rect x="80.2" y="257.7" transform="matrix(0.5466 0.8374 -0.8374 0.5466 259.198 48.2151)" class="st32" width="9.7" height="11.4"/>
		<path class="st3" d="M297.9,262.2l9-13.8L75.4,97.3c-3.8-2.5-8.9-1.4-11.4,2.4l0,0c-2.5,3.8-1.4,8.9,2.4,11.4L297.9,262.2z"/>
		<line class="st30" x1="309.9" y1="243.9" x2="295" y2="266.7"/>
		
			<rect x="298" y="253.2" transform="matrix(-0.5466 0.8374 -0.8374 -0.5466 689.6127 142.2572)" class="st31" width="16.5" height="9.2"/>
		
			<rect x="318.1" y="263" transform="matrix(-0.5466 0.8374 -0.8374 -0.5466 731.6574 145.7132)" class="st31" width="16.5" height="15.9"/>
		
			<rect x="362.5" y="291.3" transform="matrix(-0.5466 0.8374 -0.8374 -0.5466 824.4267 153.3388)" class="st31" width="16.5" height="17.1"/>
		
			<rect x="336.6" y="267" transform="matrix(-0.5466 0.8374 -0.8374 -0.5466 777.5494 149.4855)" class="st1" width="23.4" height="36.4"/>
		
			<rect x="310.1" y="257.7" transform="matrix(-0.5466 0.8374 -0.8374 -0.5466 707.6793 143.7422)" class="st32" width="9.7" height="11.4"/>
		<rect x="233.1" y="98.9" width="5.6" height="5.6"/>
		<rect x="136.5" y="257.8" width="5.6" height="5.6"/>
		<rect x="288.4" y="203.7" width="5.6" height="5.6"/>
		<rect x="145.1" y="182.9" class="st20" width="5.6" height="5.6"/>
		<rect x="257.5" y="177.1" class="st20" width="5.6" height="5.6"/>
		<rect x="260.3" y="257.8" class="st20" width="5.6" height="5.6"/>
	</g>
</g>
</svg>
