<svg xmlns="http://www.w3.org/2000/svg" viewBox="0 0 400 400" style="enable-background:new 0 0 400 400" xml:space="preserve"><style>.st14,.st21,.st7{fill:none;stroke:#000;stroke-width:5;stroke-miterlimit:10}.st14,.st21{fill:#84cfc8}.st21{fill:#d4e9f8}.st29{fill:#adddd8}</style><g id="Layer_1"><path class="st7" d="M237.7 111H90.9c-13.4 0-24.2 13-24.2 28.9v43.5c0 16 10.8 28.9 24.2 28.9h15.4V242c0 1.9 2 2.8 3.1 1.4l24-31.1h104.4c13.4 0 24.2-13 24.2-28.9v-43.5c-.1-16-10.9-28.9-24.3-28.9z"/><path class="st21" d="M71.8 264.6h57.6c3.2 0 6.1 2.2 6.7 5.3.9 4.3-2.4 8-6.5 8h-17.9c4.1 0 7.3 3.6 6.5 7.8-.6 3.2-3.6 5.5-6.9 5.5h-6.8c3.7 0 6.6 3 6.6 6.6 0 3.7-3 6.6-6.6 6.6 4.1 0 7.3 3.6 6.5 7.8-.6 3.2-3.6 5.5-6.9 5.5H45.3v-53.2h13l21.1-20c2.8-2.8 7.4-2.8 10.2 0 2.7 2.7 2.7 7.2 0 9.9l-11.3 10.2M111.7 277.9H98.9M104.6 291.2H94.1M104.6 304.5H91.7M102.7 317.8H86.9"/><path class="st14" d="M324 95.5h-57.6c-3.2 0-6.1 2.2-6.7 5.3-.9 4.3 2.4 8 6.5 8h17.9c-4.1 0-7.3 3.6-6.5 7.8.6 3.2 3.6 5.5 6.9 5.5h6.8c-3.7 0-6.6 3-6.6 6.6 0 3.7 3 6.6 6.6 6.6-4.1 0-7.3 3.6-6.5 7.8.6 3.2 3.6 5.5 6.9 5.5h58.8V95.5h-13l-21.1-20c-2.8-2.8-7.4-2.8-10.2 0-2.7 2.7-2.7 7.2 0 9.9l11.3 10.2M284.1 108.8H297M291.3 122h10.5M291.3 135.3h12.9M293.2 148.6h15.7"/><path style="fill:#d4e9f8" d="M240.7 274.9h6v6h-6z"/><path class="st29" d="M352 160h6v6h-6z"/><path d="M235.4 90.5h6v6h-6zM71.8 226.5h6v6h-6z"/><path class="st29" d="M266.4 70.3h6v6h-6zM260.4 291.1h6v6h-6z"/><path class="st7" d="M109.3 152.7h19.1M134.6 152.7h84.7M109.6 170.6h109.7"/><path d="M170.1 162.9H317c13.4 0 24.2 13 24.2 28.9v43.5c0 16-10.8 28.9-24.2 28.9h-15.4v29.6c0 1.9-2 2.8-3.1 1.4l-24-31.1H170.1c-13.4 0-24.2-13-24.2-28.9v-43.5c0-15.8 10.8-28.8 24.2-28.8z" style="fill:#00b7aa;stroke:#000;stroke-width:5;stroke-miterlimit:10"/><path class="st7" d="M188.6 207.1h19M213.8 207.1h84.7M188.9 225.1h109.6"/></g></svg>