<svg width="456" height="117" viewBox="0 0 456 117" fill="none" xmlns="http://www.w3.org/2000/svg">
<path fill-rule="evenodd" clip-rule="evenodd" d="M434.664 78.3432C434.664 78.3432 429.028 74.6575 424.228 69.5C421.017 66.0497 419.285 60.2834 415.772 60.6602C411.156 61.1552 410.33 66.0332 411.442 69.6452C412.595 73.3932 417.849 79.8882 427.212 79.1422L434.664 78.3432Z" stroke="#959595" stroke-width="4"/>
<path fill-rule="evenodd" clip-rule="evenodd" d="M435.17 78.6212C435.17 78.6212 417.5 66.9102 419.2 58.2602C420.096 53.7052 425.028 53.3072 428.53 54.7302C432.162 56.2052 438.174 62.0052 436.615 71.2672L435.168 78.6212H435.17ZM435.188 85.0412C435.188 85.0412 435.632 91.0132 439.376 91.8652C439.376 91.8652 437.758 98.3812 430.327 100.885C419.416 104.563 416.101 100.117 415.589 97.3252C414.374 90.7022 421.964 85.4052 426.313 84.6642C432.747 83.5682 435.188 85.0402 435.188 85.0402V85.0412ZM446.97 88.9602C443.397 88.9602 440.5 85.8542 440.5 82.0242C440.5 78.1932 443.397 75.0882 446.97 75.0882C450.544 75.0882 453.441 78.1932 453.441 82.0242C453.441 85.8542 450.544 88.9602 446.971 88.9602H446.97Z" stroke="#959595" stroke-width="4"/>
<path d="M436.281 95.0942L443.426 99.0862L445.201 105.597M430.056 99.9972L435.751 105.686L435.424 112.283M423.189 102.35L424.241 109.877L419.68 114.728" stroke="#959595" stroke-width="4"/>
<path d="M5.70365 25.9765C5.70365 25.9765 56.1167 -6.55832 120.863 13.545C185.61 33.6484 181.518 77.469 240.244 97.6492C298.97 117.829 346.742 80.0959 402.041 92.0145" stroke="#C4C4C4" stroke-width="3" stroke-dasharray="12 12"/>
</svg>
