<svg xmlns="http://www.w3.org/2000/svg" width="40" height="40" fill="none" viewBox="0 0 40 40">
  <path stroke="#fff" stroke-linecap="round" stroke-linejoin="round" stroke-width="3.25" d="M19.9997 36.6666c9.2047 0 16.6666-7.4619 16.6666-16.6667 0-9.2047-7.4619-16.66665-16.6666-16.66665-9.2048 0-16.66669 7.46195-16.66669 16.66665 0 9.2048 7.46189 16.6667 16.66669 16.6667z"/>
  <path stroke="#fff" stroke-linecap="round" stroke-linejoin="round" stroke-width="3.25" d="M15.1494 15.0002c.3919-1.1139 1.1653-2.0531 2.1833-2.6514s2.2149-.817 3.3787-.6174c1.1638.1996 2.2194.8047 2.9798 1.708.7604.9034 1.1766 2.0467 1.1749 3.2275 0 3.3333-5 5-5 5"/>
  <path stroke="#fff" stroke-linecap="round" stroke-linejoin="round" stroke-width="3.25" d="M20 28.3333h.0163"/>
</svg>
