<svg xmlns="http://www.w3.org/2000/svg" viewBox="0 0 87 198" width="87" height="198">
  <path fill="#959595" d="M62 76.6c0-.5-.1-1.1-.3-1.9-.3-1.5-.9-3.6-2.1-5.7-2.2-4-6.5-7.9-14.2-8.4V0H42v60.5c-3.5.2-6.3 1.2-8.6 2.6-2.6 1.6-4.3 3.8-5.4 5.9-1.1 2.1-1.7 4.2-1.9 5.7-.1.8-.2 1.4-.2 1.9v2.5h36.2l-.1-2.5zm3 28.4l.4 1.4c1.1 4.3 2.9 8.7 5.7 12.7 1.1 1.6 2.2 3.1 3.2 4.6 3.2 4.6 6.2 8.7 8.3 13.3 2.8 6.3 4.2 13.4 3.4 24.1-1 10.7-5.3 20-12.7 26.5-7.4 6.5-17.6 10.3-30.2 10.3-12.6 0-22.8-3.7-30.2-10.3-7-6.2-11.2-14.8-12.5-24.8H.3l-.1-1.7c-.8-10.7.6-17.9 3.5-24.1 2.1-4.7 5.1-8.8 8.4-13.4 1-1.4 2.1-2.9 3.2-4.5 2.8-4 4.6-8.4 5.7-12.7l.4-1.4H65zm3 16.2c-2.8-4-4.6-8.3-5.9-12.5h-38c-1.2 4.1-3.1 8.5-5.9 12.5-1.2 1.7-2.3 3.3-3.4 4.8-3.2 4.5-5.9 8.3-7.9 12.6-2.5 5.6-3.9 12.1-3.1 22.3.9 9.9 4.9 18.2 11.5 24.1 6.6 5.8 15.9 9.3 27.7 9.3 11.8 0 21.1-3.5 27.7-9.3 6.6-5.8 10.5-14.1 11.5-24.1.7-10.2-.6-16.7-3.1-22.3-1.9-4.3-4.6-8-7.8-12.5-.9-1.5-2.1-3.1-3.3-4.9zm-1 36.2c-.3-.4-.5-.7-.8-2.7l-14.4-44c-.8.1-1 .2-1.1.2h-1.5c-.7.2-.5 1.1-.2 1.8L62.6 154c-3.3-1.6-7.4-2.3-10.8-1.3-.7.2-1.4.6-2 .9l-5.7-1.8c-2.5 0-4.9.8-6.7 2.2-1.1-.6-2.2-.9-3.5-1.3-3.9-.9-7.2-.7-10.1.7l13.3-40.7c.2-.7.5-1.9.4-1.9-3-.1-3 .1-2.9.9L20 156.5c-.1.1-.2.2-.4.5-.5.6-.4 1.4.2 1.9.6.5 1.4.4 1.9-.2 2.7-3.4 6.5-4.4 11.5-3.2.6.1 1.4.4 2.2.8-.8 1.3-1.3 2.8-1.2 4.2.1 3 1.2 5.2 2.8 6 .9.5 2 .5 2.9-.1 1.4-.9 2.1-3.2 1.9-6-.1-1.8-.9-3.3-2.2-4.6 2.2-1.4 5.6-1.5 8.1-.2-.9 1.3-1.4 2.9-1.5 4.8-.1 2.7.7 4.8 2.2 5.7.9.6 2.1.6 3.2.1 1.5-.9 2.5-3 2.3-5.7 0-1.8-.7-3.5-1.9-4.9.1-.1.2-.1.3-.1.1 0 .2-.1.3-.1 4.1-1.3 10.1 1.1 12.3 3.7.5.6 1.3.7 1.9.2.6-.5.7-1.3.2-1.9zM38.4 164h-.1c-.4-.2-1.2-1.3-1.3-3.6 0-.9.2-1.9.7-2.7.8.7 1.3 1.6 1.4 2.8.2 2.1-.2 3.3-.7 3.5zm11.8-.2h-.1s-.1 0-.2-.1c-.4-.2-1.1-1.2-.9-3.3.1-1.3.4-2.3.9-3.3.8.9 1.3 2 1.3 3.2-.1 2.3-.6 3.3-1 3.5zM24.4 81.3h38.9v9.8H24.4v-9.8zm3.4 3.4v3h32.1v-3H27.8zm-5 8.4h41.6v9.8H22.8v-9.8zm3.4 3.4v3H61v-3H26.2zm32.3-20.8H29.4c0-.1 0-.3.1-.4.2-1.3.7-3 1.6-4.7.9-1.7 2.2-3.4 4.2-4.6 2-1.2 4.7-2.1 8.5-2.1 7.5 0 11.1 3.4 12.9 6.7.9 1.7 1.5 3.4 1.7 4.7 0 .2.1.3.1.4z"/>
</svg>
