<svg width="40" height="40" viewBox="0 0 40 40" fill="none" xmlns="http://www.w3.org/2000/svg">
<path d="M19.9997 36.6666C29.2044 36.6666 36.6663 29.2047 36.6663 19.9999C36.6663 10.7952 29.2044 3.33325 19.9997 3.33325C10.7949 3.33325 3.33301 10.7952 3.33301 19.9999C3.33301 29.2047 10.7949 36.6666 19.9997 36.6666Z" stroke="white" stroke-width="3.25" stroke-linecap="round" stroke-linejoin="round"/>
<path d="M15.1494 15.0002C15.5413 13.8863 16.3147 12.9471 17.3327 12.3488C18.3507 11.7505 19.5476 11.5318 20.7114 11.7314C21.8752 11.931 22.9308 12.5361 23.6912 13.4394C24.4516 14.3428 24.8678 15.4861 24.8661 16.6669C24.8661 20.0002 19.8661 21.6669 19.8661 21.6669" stroke="white" stroke-width="3.25" stroke-linecap="round" stroke-linejoin="round"/>
<path d="M20 28.3333H20.0163" stroke="white" stroke-width="3.25" stroke-linecap="round" stroke-linejoin="round"/>
</svg>
