<svg xmlns="http://www.w3.org/2000/svg" width="456" height="117" fill="none" viewBox="0 0 456 117">
  <path stroke="#959595" stroke-width="4" d="M434.664 78.3432s-5.636-3.6857-10.436-8.8432c-3.211-3.4503-4.943-9.2166-8.456-8.8398-4.616.495-5.442 5.373-4.33 8.985 1.153 3.748 6.407 10.243 15.77 9.497l7.452-.799z" clip-rule="evenodd"/>
  <path stroke="#959595" stroke-width="4" d="M435.17 78.6212s-17.67-11.711-15.97-20.361c.896-4.555 5.828-4.953 9.33-3.53 3.632 1.475 9.644 7.275 8.085 16.537l-1.447 7.354h.002zm.018 6.42s.444 5.972 4.188 6.824c0 0-1.618 6.516-9.049 9.0198-10.911 3.678-14.226-.768-14.738-3.5598-1.215-6.623 6.375-11.92 10.724-12.661 6.434-1.096 8.875.376 8.875.376v.001zm11.782 3.919c-3.573 0-6.47-3.106-6.47-6.936 0-3.831 2.897-6.936 6.47-6.936 3.574 0 6.471 3.105 6.471 6.936 0 3.83-2.897 6.936-6.47 6.936h-.001z" clip-rule="evenodd"/>
  <path stroke="#959595" stroke-width="4" d="M436.281 95.0942l7.145 3.992 1.775 6.5108m-15.145-5.5998l5.695 5.6888-.327 6.597m-12.235-9.933l1.052 7.527-4.561 4.851"/>
  <path stroke="#C4C4C4" stroke-dasharray="12 12" stroke-width="3" d="M5.70365 25.9765S56.1167-6.55832 120.863 13.545c64.747 20.1034 60.655 63.924 119.381 84.1042 58.726 20.1798 106.498-17.5533 161.797-5.6347"/>
</svg>
