<svg width="1999" height="1606" viewBox="0 0 1999 1606" fill="none" xmlns="http://www.w3.org/2000/svg"><path fill="#45278D" d="M59.066 59.191h1939.87v1546.22H59.066z"/><path fill="#fff" stroke="#333336" stroke-width="16.832" d="M8.592 8.715h1923.03v1529.39H8.592z"/><path d="M851.527 822.223H466.243c-39.991 0-72.411 32.449-72.411 72.478V1140c0 40.03 32.42 72.48 72.411 72.48h385.284c39.991 0 72.411-32.45 72.411-72.48V894.701c0-40.029-32.42-72.478-72.411-72.478Z" fill="#FFEA80" stroke="#333336" stroke-width="16.834"/><path d="M1471.91 822.223h-385.29c-39.99 0-72.41 32.449-72.41 72.478V1140c0 40.03 32.42 72.48 72.41 72.48h385.29c39.99 0 72.41-32.45 72.41-72.48V894.701c0-40.029-32.42-72.478-72.41-72.478Z" fill="#FF7139" stroke="#333336" stroke-width="16.834"/><path d="M857.824 334.107H472.54c-39.992 0-72.411 32.45-72.411 72.479v245.301c0 40.029 32.419 72.479 72.411 72.479h385.284c39.991 0 72.411-32.45 72.411-72.479V406.586c0-40.029-32.42-72.479-72.411-72.479Z" fill="#9059FF" stroke="#333336" stroke-width="16.834"/><path d="M1473.48 334.107H1088.2c-39.99 0-72.41 32.45-72.41 72.479v245.301c0 40.029 32.42 72.479 72.41 72.479h385.28c40 0 72.41-32.45 72.41-72.479V406.586c0-40.029-32.41-72.479-72.41-72.479Z" fill="#0090ED" stroke="#333336" stroke-width="16.834"/><path d="M665.133 634.424c57.658 0 104.399-46.784 104.399-104.496 0-57.712-46.741-104.496-104.399-104.496s-104.399 46.784-104.399 104.496c0 57.712 46.741 104.496 104.399 104.496Z" fill="#fff" stroke="#333336" stroke-width="16.834" stroke-linecap="round" stroke-linejoin="round"/><path d="m726.455 565.369-6.209-3.483 6.209 3.483Zm-115.034-4.542h53.675v-14.24h-53.675v14.24Zm53.675 33.244c-29.649 0-46.966-17.584-55.151-32.185l-12.416 6.966c9.883 17.611 31.264 39.458 67.567 39.458v-14.239Zm0 14.239c36.275 0 57.684-21.847 67.567-39.458l-12.417-6.966c-8.184 14.601-25.501 32.185-55.15 32.185v14.239Zm53.675-61.75h-53.675v14.239h53.675V546.56Zm13.864 22.292c2.951-5.267 2.339-11.09-.612-15.41-2.868-4.207-7.768-6.882-13.28-6.882v14.239c.863 0 1.336.39 1.503.641l.056.111v.056s-.028.112-.111.251l12.416 6.966.028.028ZM611.393 546.56c-5.484 0-10.412 2.675-13.28 6.882-2.951 4.32-3.563 10.143-.612 15.41l12.417-6.966s-.084-.223-.112-.251v-.056s.028-.056.084-.111c.167-.251.64-.641 1.503-.641V546.56Z" fill="#333336"/><path d="M665.125 525.18c15.729 0 28.48-12.763 28.48-28.506 0-15.744-12.751-28.507-28.48-28.507-15.73 0-28.48 12.763-28.48 28.507 0 15.743 12.75 28.506 28.48 28.506Z" stroke="#333336" stroke-width="16.834"/><path d="M1354.08 497.51h-147.21c-11.61 0-21.02 9.42-21.02 21.039v94.743c0 11.619 9.41 21.039 21.02 21.039h147.21c11.61 0 21.02-9.42 21.02-21.039v-94.743c0-11.619-9.41-21.039-21.02-21.039Z" fill="#fff" stroke="#333336" stroke-width="16.834" stroke-linecap="round" stroke-linejoin="round"/><path d="M1227.86 497.506v-21.039c0-29.064 23.53-52.61 52.57-52.61 29.03 0 52.56 23.546 52.56 52.61v21.039h-105.15.02Z" stroke="#333336" stroke-width="16.834"/><path fill-rule="evenodd" clip-rule="evenodd" d="M1280.48 571.184c11.61 0 21.02-9.418 21.02-21.038 0-11.62-9.41-21.039-21.02-21.039s-21.02 9.419-21.02 21.039c0 11.62 9.41 21.038 21.02 21.038Z" fill="#333336"/><path fill-rule="evenodd" clip-rule="evenodd" d="M1267.2 602.753c-3.73 0-6.26-3.762-4.87-7.217l18.15-45.393 18.16 45.393c1.39 3.455-1.17 7.217-4.88 7.217H1267.2Z" fill="#333336"/><path d="M574.91 943.544v73.676c0 42.11 63.085 105.25 84.104 105.25s84.104-63.14 84.104-105.25v-73.676l-84.104-31.571-84.104 31.571Z" fill="#fff" stroke="#333336" stroke-width="16.834"/><path d="M659.047 911.973v210.467-210.467Z" fill="#fff"/><path d="M659.047 911.973v210.467" stroke="#333336" stroke-width="16.834"/><path d="M1350.74 1045.95c-2.62 5.91-1.36 12.79 3.15 17.42l.58.58a19.18 19.18 0 0 1 0 27.09c-3.59 3.59-8.46 5.6-13.53 5.6-5.07 0-9.94-2.01-13.53-5.6l-.58-.59a15.74 15.74 0 0 0-17.4-3.15 15.75 15.75 0 0 0-9.55 14.44v1.61c0 10.57-8.55 19.15-19.13 19.15-10.58 0-19.13-8.56-19.13-19.15v-.86c-.13-6.49-4.23-12.2-10.32-14.43a15.74 15.74 0 0 0-17.4 3.14l-.59.59c-3.59 3.59-8.46 5.6-13.53 5.6-5.07 0-9.94-2.01-13.53-5.6a19.148 19.148 0 0 1-5.59-13.54c0-5.07 2-9.95 5.59-13.55l.59-.58c4.51-4.6 5.76-11.51 3.14-17.42a15.749 15.749 0 0 0-14.42-9.55h-1.61c-10.56 0-19.13-8.56-19.13-19.15 0-10.59 8.55-19.142 19.13-19.142h.86a15.695 15.695 0 0 0 14.42-10.338c2.62-5.908 1.36-12.791-3.15-17.416l-.58-.586a19.168 19.168 0 0 1-5.6-13.542 19.17 19.17 0 0 1 5.6-13.543 19.114 19.114 0 0 1 13.53-5.601c5.07 0 9.94 2.006 13.53 5.601l.58.585a15.734 15.734 0 0 0 17.4 3.149h.76c5.79-2.48 9.52-8.165 9.55-14.434v-1.617c0-10.561 8.54-19.143 19.12-19.143 10.58 0 19.13 8.554 19.13 19.143v.864c0 6.298 3.78 11.982 9.55 14.435 5.9 2.619 12.77 1.365 17.4-3.149l.58-.585a19.114 19.114 0 0 1 13.53-5.601c5.07 0 9.94 2.006 13.53 5.601a19.168 19.168 0 0 1 5.6 13.542 19.17 19.17 0 0 1-5.6 13.543l-.58.585a15.763 15.763 0 0 0-3.15 17.416v.753a15.76 15.76 0 0 0 14.42 9.558h1.62c10.55 0 19.12 8.552 19.12 19.142s-8.55 19.14-19.12 19.14h-.87c-6.29 0-11.97 3.79-14.42 9.56l.03.03Z" fill="#fff" stroke="#333336" stroke-width="16.834" stroke-linecap="round" stroke-linejoin="round"/><path d="M1280.01 1045.95c15.85 0 28.68-12.84 28.68-28.7 0-15.85-12.83-28.699-28.68-28.699-15.84 0-28.67 12.849-28.67 28.699 0 15.86 12.83 28.7 28.67 28.7Z" stroke="#333336" stroke-width="16.834"/></svg>
