<svg xmlns="http://www.w3.org/2000/svg" width="95" height="64" viewBox="0 0 95 64" overflow="visible"><path opacity=".5" fill="#FFF" d="M92.834 0H49.34c-.69 0-1.215.526-1.215 1.213v26.095L43.033 32.4l-3.69-3.69c-2.023-2.024-4.558-1.973-6.794-1.934-.32.006-.638.012-.958.012H15.868l-.57-.005c-1.753-.016-3.753-.045-5.645 1.846L1.81 36.47c-1.257 1.26-1.894 2.9-1.8 4.63-.035 1.725.62 3.383 1.8 4.566l9.64 9.637v2.782c0 2.3 1.874 4.174 4.176 4.174h18.797c2.34 0 4.175-1.976 4.175-4.5V45.43c1.23 1.132 2.78 1.714 4.424 1.637 1.75.034 3.384-.618 4.568-1.802l8.437-8.44h36.808c.688 0 1.214-.524 1.214-1.21V1.252C94.046.566 93.52 0 92.832 0zm-47.89 42.618c-.476.473-1.16.737-1.886.705l-.097-.004-.095.005c-.676.048-1.312-.198-1.823-.708l-2.95-2.95c-.466-.467-1.11-.603-1.708-.475l-.06.012c-.133.032-.258.07-.38.13-.17.08-.323.184-.46.307-.012.013-.028.015-.04.026-.003.004-.004.01-.008.014-.355.34-.58.818-.58 1.35v16.735c0 .44-.182.758-.432.758H20.977c.494-.273.97-.592 1.388-1.01.932-.934 1.507-2.125 1.7-3.418l7.487-7.486c.445-.447.445-1.175 0-1.66l-6.792-6.79c-.444-.445-1.213-.445-1.657 0l-5.702 5.7-2.764-2.753.048-.048c.73-.73.73-1.917 0-2.647s-1.915-.73-2.646 0l-2.7 2.7 10.38 10.336c.448.447.695 1.053.695 1.707 0 .653-.247 1.26-.695 1.707-.926.927-2.49.927-3.417 0L4.46 43.022c-.473-.475-.73-1.162-.706-1.89l.004-.095-.007-.097c-.05-.68.197-1.31.707-1.822l7.842-7.84c.745-.747 1.404-.764 2.952-.75l16.34.004c.343 0 .686-.006 1.026-.013 1.967-.04 3.222-.02 4.078.837l6.336 6.334L53.37 27.357c.896-.896 2.518-.898 3.416 0 .448.45.697 1.055.697 1.708s-.25 1.26-.697 1.708L44.943 42.618zM75.56 10.742l-15.2 15.202c-.26-.442-.558-.864-.928-1.235-.543-.545-1.18-.963-1.866-1.265l15.35-15.35c.73-.732 1.915-.732 2.646 0 .732.73.732 1.915 0 2.646z"/><path opacity=".5" fill="#FFF" d="M24.114 26.732c-5.89 0-10.683-4.703-10.683-10.482 0-5.78 4.794-10.482 10.685-10.482 5.89 0 10.684 4.702 10.684 10.482.022 2.736-1.04 5.336-2.995 7.307-2.03 2.047-4.76 3.175-7.69 3.175zm0-17.22c-3.827 0-6.94 3.022-6.94 6.738 0 3.716 3.114 6.74 6.94 6.74 1.923 0 3.71-.735 5.032-2.068 1.246-1.257 1.924-2.91 1.91-4.656 0-3.732-3.115-6.755-6.942-6.755z"/></svg>
