<svg xmlns="http://www.w3.org/2000/svg" xmlns:xlink="http://www.w3.org/1999/xlink" viewBox="0 0 189 86"><path fill="#FFF" d="M126.7 25.2c0 .1-.1.2-.1.2-.1.1-.1.1-.2.1s-.2.1-.3.1c-.1 0-.2 0-.3-.1-.1 0-.2-.1-.2-.1-.1-.1-.1-.1-.1-.2s-.1-.2-.1-.3c0-.1 0-.2.1-.3 0-.1.1-.2.1-.2.1-.1.1-.1.2-.1s.2-.1.3-.1c.1 0 .2 0 .3.1.1 0 .2.1.2.1.1.1.1.1.1.2s.1.2.1.3c-.1.1-.1.2-.1.3zm-.2-.5c0-.1-.1-.1-.1-.2s-.1-.1-.2-.1h-.4c-.1 0-.1.1-.2.1-.1.1-.1.1-.1.2v.4c0 .1.1.1.1.2.1.1.1.1.2.1h.4c.1 0 .1-.1.2-.1 0-.1.1-.1.1-.2v-.2c.1 0 .1-.1 0-.2zm-.4.5s0-.1-.1-.1c0 0 0-.1-.1-.1v.3h-.1v-.8h.4v.2c0 .1 0 .1-.1.2l-.1.1.1.2h-.2.2zm0-.5h-.2v.2h.2s.1-.1 0-.2c.1 0 0 0 0 0zM83.9 22.5h-4.5v3.6H83v1.8h-3.7v6h-2.2V20.7h7l-.2 1.8zM85 21.5c0-.8.6-1.4 1.4-1.4.7 0 1.4.6 1.4 1.4 0 .8-.6 1.4-1.4 1.4-.8-.1-1.4-.7-1.4-1.4zM85.3 33.9v-9.5l2.1-.4v9.9M93.9 26.1c-.2-.1-.3-.1-.6-.1-.9 0-1.6.6-1.8 1.4v6.5h-2.1v-6.8c0-1.2-.1-2-.3-2.6L91 24c.2.4.4 1 .4 1.5.8-1 1.5-1.5 2.5-1.5.3 0 .5 0 .7.2l-.7 1.9zM96.6 29.7v.2c0 1.3.5 2.7 2.4 2.7.9 0 1.7-.3 2.4-1l.8 1.3c-1 .9-2.2 1.3-3.5 1.3-2.7 0-4.4-2-4.4-5 0-1.7.4-2.8 1.2-3.8.8-.9 1.7-1.3 2.9-1.3 1 0 1.8.2 2.6 1s1.3 1.9 1.3 4.2v.4h-5.7zm1.8-4.1c-1.2 0-1.8.9-1.8 2.5h3.6c0-1.6-.7-2.5-1.8-2.5zM108.3 21.8c-.5-.2-.8-.3-1.2-.3-.7 0-1.2.5-1.2 1.4v1.5h2.5l-.5 1.4h-2V34h-2.1v-8.2h-.8v-1.4h.9s-.1-.5-.1-1.4c0-2 1.2-2.9 2.9-2.9.8 0 1.5.2 2.2.6l-.6 1.1zM116.7 29.1c0 3.1-1.7 5-4.3 5-2.6 0-4.2-2-4.2-5 0-3.1 1.7-5.1 4.2-5.1 2.7 0 4.3 2.1 4.3 5.1zm-6.2-.1c0 2.8.7 3.6 2 3.6 1.2 0 1.9-1 1.9-3.4 0-2.7-.8-3.5-2-3.5-1.4-.1-1.9.9-1.9 3.3zM122.9 33.9c-.3-.6-1.9-3.3-2.1-3.6-.4.7-1.7 3.1-2.1 3.6h-2.6l3.6-5.2-2.8-4.1 2.3-.5c.4.7 1.3 2.2 1.8 3.1.3-.6 1.2-2.5 1.5-2.9h2.4l-2.8 4.4 3.5 5.2h-2.7z"/><g fill="#FFF"><path d="M94.3 44.3h-10L83 53.4h8.6l-.4 2.9h-8.6L81.1 68h-3.6l3.7-26.6h14l-.9 2.9zM106.5 47.4l-1 3.4c-.6-.2-1-.2-1.7-.2-2.6 0-4.4 2.4-5.8 6.5L96.4 68h-3.5l2.9-20.4h3l-.2 4.2c1.5-3.2 3.7-4.6 5.9-4.6.7-.1 1.4.1 2 .2zM109.6 68H106l2.9-20.4h3.6L109.6 68zm4.5-27.5c-.2 1.3-1.2 2.2-2.6 2.2-1.5 0-2.4-1.2-2.2-2.6.2-1.3 1.2-2.2 2.6-2.2 1.6-.1 2.4 1.1 2.2 2.6zM130.5 52.3c0 5.7-6.1 7.3-13.2 8.1.1 3.7 1.8 5.1 4.4 5.1 1.9 0 3.6-.6 5.4-1.9l1.5 2.4c-2.2 1.6-4.6 2.5-7.3 2.5-5 0-7.8-3.1-7.8-8.3 0-5.6 2.7-13 10.5-13 4.4-.1 6.5 2.4 6.5 5.1zm-3.7.1c0-1-.6-2.5-2.8-2.5-4.2 0-6 4-6.5 7.7 5.8-.6 9.3-1.7 9.3-5.2zM148.3 53.5l-2 14.5h-3.5l2-14.2c.4-3.1-.7-3.6-2.5-3.6-2.2 0-4.5 2.7-6.1 5.6L134.4 68h-3.5l2.9-20.4h3l-.3 4c1.9-2.7 4.4-4.4 7.1-4.4 3.3-.1 5.2 2.4 4.7 6.3zM169.8 39.4l-4 28.5h-3.1v-3.4c-1.4 2.4-3.5 3.8-6.1 3.8-4.2 0-6.4-3.2-6.4-8.1 0-5.3 2.5-13.2 9.5-13.2 2.4 0 4.1 1.1 5.2 2.5l1.5-10.7 3.4.6zm-15.9 21.2c0 3.4 1.3 5 3.4 5 2.5 0 4.2-1.9 5.9-4.7l1.2-8.5c-1-1.6-2.3-2.5-4.2-2.5-4.8.1-6.3 6.7-6.3 10.7zM185.4 49.7l-1.7 2.2c-1.4-1.3-3.2-1.9-4.8-1.9-2.6 0-4.2 1-4.2 2.7 0 1.6 1.4 2.3 4.1 3.1 3.8 1.2 5.8 2.8 5.8 6.2 0 4.4-4.2 6.4-8.5 6.4-3.6 0-5.9-1.4-7.5-2.9l2.2-2.2c1.4 1.4 3.4 2.3 5.5 2.3 3.6 0 4.6-2.1 4.6-3.3 0-2-1.1-2.7-4.3-3.7-3.8-1.3-5.4-2.8-5.4-5.6 0-2.7 2.4-5.8 7.8-5.8 2.5-.1 4.7.9 6.4 2.5z"/></g><g><path fill="#57565A" d="M51.5 72c-7.8 2.3-11.2 2.2-15.9 7.4-.4.6-.9.8-1.3.8-.5 0-1-.5-1.4-1-4.7-5-8.1-5-15.8-7.2-5.6-1.6-9.8-3.3-11.6-8.6 1.1 7.9 5.6 9.8 12.1 11.7 7.5 2.2 10.8 2.1 15.4 7 .4.5.9 1 1.3 1s.8-.2 1.3-.8c4.6-5 7.9-5 15.5-7.2 6.5-1.9 11-3.8 12.1-11.7-1.9 5.4-6.1 7-11.7 8.6"/><path fill="#FFF" d="M64.2 54.2c-.5-13.2 1.2-40.5.9-43.2-.2-2.4-2.9-2.5-3.5-2.5H59.9c-17.7 0-25-5.3-25.6-5.7-.5.4-7.8 5.7-25.6 5.7H7.1 7c-.6 0-3.3.1-3.5 2.5-.2 2.7 1.5 30 1 43.2-.2 4 .2 7 1 9.3 1.9 5.3 6.1 6.9 11.6 8.6 7.7 2.3 11.1 2.2 15.8 7.2.4.5.9 1 1.4 1 .4 0 .9-.2 1.3-.8 4.7-5.2 8.1-5.1 15.9-7.4 5.6-1.6 9.8-3.2 11.6-8.6.9-2.3 1.3-5.3 1.1-9.3"/><defs><path id="a" d="M34.2 6.5c-3.4 1.8-11.3 5.1-25.4 5.1H7c-.2 0-.5 0-.7.1 0 1.2.1 6 .3 10.7.4 10.1 1 23.9.6 32.2-.3 7.1 1.2 9.7 2.4 11 1.6 1.8 4.1 2.8 8.2 4 1.5.4 2.8.8 4 1.1 4.8 1.3 8.4 2.2 12.4 6.2 4-4 7.4-4.9 12.4-6.2 1.2-.3 2.5-.7 4-1.1 4.1-1.2 6.6-2.2 8.2-4 1.2-1.3 2.7-3.9 2.4-11-.2-8.4.4-22.2.8-32.3.2-4.6.4-9.4.3-10.7-.2-.1-.4-.1-.7-.1h-1.8c-14.1 0-22-3.2-25.4-5.1h-.2z"/></defs><linearGradient id="b" gradientUnits="userSpaceOnUse" x1="64.445" y1="57.26" x2="2.757" y2="17.199"><stop offset="0" stop-color="#E45625"/><stop offset="1" stop-color="#F26D24"/></linearGradient><use xlink:href="#a" overflow="visible" fill="url(#b)"/><clipPath id="c"><use xlink:href="#a" overflow="visible"/></clipPath><linearGradient id="d" gradientUnits="userSpaceOnUse" x1="-3005.576" y1="-1954.429" x2="-3007.066" y2="-1953.462" gradientTransform="matrix(48.07 0 0 -48.07 144548.781 -93884.852)"><stop offset="0" stop-color="#E45625"/><stop offset="1" stop-color="#F26D24"/></linearGradient><path clip-path="url(#c)" fill="url(#d)" d="M6.3 6.5h56.1v70.4H6.3z"/><path fill="#FFF" d="M39.7 40.9c-.1.1-.1.1-.2.1s-.2 0-.2-.1l-3.2-3.1-.1-.1-.3-.3c-.1-.2-.2-.3-.3-.5l-.3-.6c-.1-.3-.1-.6-.1-.8 0-.7.2-1.3.6-1.8.4-.4 1-.6 1.8-.6.2 0 .4 0 .6.1l.6.3c.2.1.4.2.5.3.1.1.3.2.4.3.1-.1.3-.2.4-.3.1-.1.3-.2.5-.3l.6-.3c.2-.1.4-.1.6-.1.8 0 1.4.2 1.8.6.4.4.6 1 .6 1.8s-.4 1.5-1.2 2.3l-3.1 3.1z"/><path fill="#FFF" d="M46.8 55.7c.2-.1.3-.2.5-.2-.2.5-.6 1-1.2 1.5l-.2.2c-3.8 3-11.1 2.6-11.1 2.6s.2.4 1 .5h-.9c-1.6-.1-3.4-.5-4.4-.8-.5-.1-.8-.2-.8-.2s.4.3 1 .6c.2.1.5.2.7.3C22 58.1 18.2 52.4 16.8 50c-1.4-2.4-2.1-4.6-2.4-6.6 0-.2-.1-.4-.1-.6 0-.4-.1-.7-.1-1v-.3c-.1.4-.2.8-.2 1.1-.1.6-.2 1.1-.2 1.1-.2-3.6.2-6 .7-7.6-.7 1.2-1 2.3-1 2.3.4-2.3.9-3.9 1.4-5.1.1-.3.3-.6.4-.8.1-.3.5-.9 1-1.6v-.2-.2c-.1-1.4.1-2.5.2-3.3.1-.5.3-1 .4-1.4v.2c0-.2.1-.3.1-.5v-.1c0-.1.1-.2.2-.3 0-.1.1-.1.1-.2v.3c0-.1.1-.2.1-.4 0-.1 0-.1.1-.2.1-.3.2-.5.3-.6.3-.4.5-.6.5-.6 0 .2 0 .4.1.6.1.6.3 1.2.5 1.7 0 .1 0-.2.1-.1.8 1.2 1.3 1.6 1.6 1.8.1 0 .2-.1.4-.1.9-.2 1.9-.3 3-.2.5 0 .9.1 1.4.3v-.1c.2-.2.3-.4.5-.6v.2c.2-.4.9-1 1.2-1.1v.2c.6-.4 1.4-.9 2-1 .1 0-.3.2-.4.3.3-.2.4-.2 1-.3.3-.1.6 0 .8 0 .2 0 .3.1.3.1-.1.1-.6.3-.7.4-.1.1.3 0 .2 0-.8.7-1.4 1.4-1.9 2.3-.2.4-.4.8-.5 1.3 0 .1.1.2.2.4.1.1.1.2.2.3.3.5.9 1 1.8 1h.1c1.1 0 1.8 0 2.3.1.9.1 1 .3 1 .5 0 .3 0 .6-.1.8 0 .2-.1.3-.2.4-.2.4-.5.8-.8 1-.2.1-2.3 1.3-3.1 1.9l-.1.1-.1.1c-.1.1-.1.1-.1.2.1.1.1.2.1.3-.1-.1-.2-.1-.2.1.1.1.1.3.2.7v1.2l-.6-.3c.2.1.3.3.4.4.1.1.1.1.1.2.1.2 0 .2 0 .2s-.1-.2-.5-.4c-.1-.1-.3-.1-.4-.2-.2-.1-.5-.2-.6-.2h-.1c.1.1.1.2.2.2v.1h-.1c-.1 0-.2-.1-.4-.2-.3.1-.5.4-.6.6-.1.3-.2.5-.2.8 0 .6-.1 1.5 1.9 2.7 0 0-.3-.1-.3 0 .2.1.9.5 1.3.6.1.1-.4-.1-.3 0 .1.1.3.1.4.2.5.2 1 .3 1.5.3 1.3 0 2.3-.8 3.4-1 .6-.2 1.2-.2 1.7-.1 1.1.2 1.9.7 2.3 1.2.1.2.2.3.2.5.1.4-.2.8-.6.8H37.5c-.8-.2-1.6.6-3.1 1.5-1.1.7-2.7 1.1-4.5 1.1-.2 0-.5 0-.7-.1-.1 0-.3 0-.4-.1-.2 0-.4-.1-.6-.1.6.5 1.6 1.6 2.3 1.8.8.2 1.9.2 2.4.6.1 0 .1.1.2.1-.1-.1-.2-.1-.3-.1-.4-.1-.9 0-1.3 0 1.7.8 3.1 1.1 4.1 1.1.9 0 1.5-.1 1.7-.1 1.3-.2 1.9-.6 2.1-.8 0 .2-.1.3-.2.5l-.3.3c.2.1.5-.2.9-.6l.5-.5c.2-.2.3-.3.5-.4 0 0-.3.4-.2.4.2-.1.3-.3.4-.4.2-.3.6-.5.6-.5v.7s.1.1.2.1.2 0 .4-.1c.5-.2 1.2-.9 1.9-2.4.4-.9.7-1.6.8-2.3.4-1.3.4-2.2.4-2.2 0 .1.1.1.1.2.1.2.2.5.3.9 0 .2.1.3.1.5.1-.2.1-.5.2-.7 0-.1.1-.2.1-.4.3-1.3.5-3.1 0-7.7l.3.3c.1.1.2.3.3.5.5.7 1 1.6 1.3 2.2V37v-.1c0-5.4-2.8-9-4.5-10.3.2 0 .4.1.7.1.1 0 .2.1.3.1 1.1.4 2.3 1.2 3.1 2-.1-.3-.3-.5-.4-.8-.1-.1-.1-.2-.2-.3-1-1.6-2.5-3.4-5.6-5.5l.9.3c.1 0 .3.1.4.1 2 .7 3.7 1.8 5.1 3 1 .8 1.9 1.8 2.6 2.7-.1-.3-.1-.6-.1-.8-.8-.9-1.7-1.8-2.7-2.6-.2-.6-.4-1.1-.4-1.1s1.7.8 2.9 2.6c-.1-.4-.1-.6-.1-.6l.1.1-.1-.1.2.2-.2-.2c.4.3.9.8 1.3 1.4.1.2.3.4.4.6 0 .1.1.1.1.2.4.7.8 1.5 1.2 2.4.3.7.5 1.5.6 2.2.3 1.5.3 3 .1 4.6-.1.8-.2 1.5-.4 2.3-.1.5-.3 1-.4 1.5v.2c-.1.2-.1.4-.2.6.2-.1.5-.3.8-.6.3-.3.5-.6.8-1 .2-.3.3-.7.4-1.1-.2.6-.6 1.1-1.1 1.5.3-1.2.5-2.9.5-4.6.3-.9.4-1.4.4-1.4v0c.2.6.4 1.3.5 1.9 0 .3.1.5.1.8.1.8.1 1.5 0 2.3-.1.8-.2 1.6-.4 2.3-.4 1.7-.9 3.1-1.5 4.2 0 .1-.1.1-.1.2-.1.2-.2.3-.2.5-.5.9-1.3 1.7-2.1 2.7-.3.4-.6.9-.9 1.3l-.1.1s0-.1.1-.1c-.2.3-.4.6-.5.9.3-.2.6-.3.8-.5 1.5-.9 2.8-1.9 3.2-3.4v-.2c-.1.4-.1.8-.2 1.2-.1.2-.1.5-.2.7-.3.9-.9 1.9-2.1 3.1-1.2 1.2-2.5 2-3.6 2.6-.1 0-.2.1-.2.1-1.3.7-2.5 1-3.4 1.4-.6.3-1.2.5-1.6.9h.6c.6-.1 1.3-.2 1.9-.4.9-.4 1.6-.9 2.2-1.5zm6.7-8.2v-.7c-.6 1.1-1.6 2-2.5 3.3 1.1-.8 2.1-1.6 2.5-2.6z"/></g></svg>