<svg height="249" width="360" xmlns="http://www.w3.org/2000/svg"><g fill="none" fill-rule="evenodd"><g fill-rule="nonzero"><rect fill="#ededf0" height="42" rx="8" width="42" x="18" y="177"/><rect fill="#fff" height="249" rx="4" width="360"/><rect fill="#e8eaed" height="27" rx="4" width="360"/><rect fill="#fff" height="27" rx="4" width="63" x="14" y="10"/><g fill="#0060df"><path d="m41 148h22v41h-22z"/><path d="m24 179h56l-28 28z"/></g></g><path d="m325.5 11.5h5v5h-5z" stroke="#979797"/><path d="m307.5 13.5h6v1h-6zm35.879 2.121-.707-.707 4.242-4.242.707.707z" fill="#d8d8d8" stroke="#979797"/><path d="m343.379 11.379.707-.707 4.242 4.242-.707.707z" fill="#d8d8d8" stroke="#979797"/><path d="m0 216h360v1h-360zm116 6h-1v22h1z" fill="#d8d8d8"/><rect fill="#e8eaed" height="16" rx="8" width="230" x="77" y="37"/><rect fill="#c0c9d6" height="15" rx="3" width="72" x="32" y="226"/><rect fill="#c0c9d6" height="15" rx="3" width="15" x="9" y="226"/></g></svg>