<svg xmlns="http://www.w3.org/2000/svg" width="620" height="235" fill="none" viewBox="0 0 620 235"><path fill="#333336" d="M590.373 20.374c0-.623.316-1.192.842-1.522l3.183-1.988c.287-.178.615-.273.954-.273h4.717V13h-4.717a5.4 5.4 0 0 0-2.856.819l-3.183 1.99c-.273.17-.503.388-.735.601-.236-.213-.463-.43-.736-.6l-3.186-1.991a5.395 5.395 0 0 0-2.852-.819h-4.717v3.591h4.717c.336 0 .666.095.954.273l3.183 1.988c.528.33.844.899.844 1.522v29.061c0 .624-.316 1.192-.844 1.523l-3.186 1.988a1.806 1.806 0 0 1-.954.273h-4.714v3.59h4.717a5.397 5.397 0 0 0 2.855-.818l3.183-1.988c.276-.172.503-.39.736-.6.232.21.462.428.735.6l3.186 1.99a5.398 5.398 0 0 0 2.856.82h4.714v-3.591h-4.717c-.336 0-.667-.095-.954-.273l-3.183-1.988c-.529-.33-.842-.9-.842-1.523V20.375Z"/><rect width="489.862" height="172" x="65.069" y="56" stroke="#0090ED" stroke-dasharray="11.79 11.79" stroke-width="5.238" rx="3.143"/><path fill="#333336" d="M164.111 189.118v-32.069h8.374v32.069h-8.374Zm-1.069-41.096c0-3.088 2.198-5.345 5.226-5.345 3.148 0 5.286 2.257 5.286 5.345 0 3.028-2.138 5.226-5.286 5.226-3.088 0-5.226-2.198-5.226-5.226Zm14.89 41.096v-32.069h8.196v4.038c2.079-2.91 5.404-4.692 9.383-4.692 7.602 0 12.412 4.989 12.412 13.363v19.36h-8.373v-18.113c0-4.573-2.198-7.424-6.533-7.424-3.86 0-6.83 2.851-6.83 7.84v17.697h-8.255Zm48.651 0v-43.353h27.913v7.958h-19.479v10.036h19.479v7.84h-19.479v17.519h-8.434Zm33.004 0v-32.069h8.374v32.069h-8.374Zm-1.068-41.096c0-3.088 2.197-5.345 5.226-5.345 3.147 0 5.285 2.257 5.285 5.345 0 3.028-2.138 5.226-5.285 5.226-3.089 0-5.226-2.198-5.226-5.226Zm14.89 41.096v-32.069h8.077v4.929c1.544-3.801 4.751-5.523 8.848-5.523 2.138 0 4.039.534 5.405 1.247l-2.97 8.077c-.891-.654-2.435-1.129-4.276-1.129-4.216 0-6.948 2.138-6.948 7.543v16.925h-8.136Zm38.786.653c-10.334 0-16.985-7.304-16.985-16.628s7.245-16.748 16.807-16.748c9.62 0 16.569 6.949 16.569 16.451v3.088h-25.478c1.069 4.157 4.455 6.77 9.206 6.77 3.8 0 6.354-1.663 7.958-4.276l6.71 3.92c-3.207 4.513-7.72 7.423-14.787 7.423Zm-.178-26.427c-4.158 0-7.364 2.435-8.671 6.176h17.104c-1.069-3.979-4.157-6.176-8.433-6.176Zm17.819 1.069v-7.364h5.286v-1.129c0-10.393 3.266-13.6 13.719-13.6h2.137v7.483h-1.365c-5.702 0-6.355.832-6.355 5.702v1.544h7.72v7.364h-7.72v24.705h-8.136v-24.705h-5.286Zm38.882 25.358c-9.621 0-16.926-7.482-16.926-16.688 0-9.264 7.305-16.688 16.926-16.688 9.561 0 16.985 7.424 16.985 16.688 0 9.206-7.305 16.688-16.985 16.688Zm.059-7.779c4.87 0 8.79-3.979 8.79-8.968s-3.92-8.968-8.79-8.968c-4.929 0-8.789 3.979-8.789 8.968s3.86 8.968 8.789 8.968Zm16.116 7.126 11.996-16.45-11.343-15.619h9.74l6.711 9.502 6.77-9.502h9.621l-11.403 15.678 12.234 16.391h-9.918l-7.364-10.036-7.186 10.036h-9.858ZM93.87 130V86.647h17.935c9.621 0 15.025 4.335 15.025 12.115 0 3.979-1.782 6.948-4.989 8.789 3.623 1.841 5.642 5.108 5.642 9.621 0 8.552-5.939 12.828-15.559 12.828H93.87Zm17.816-18.351h-9.561v10.809h9.917c4.573 0 6.949-2.079 6.949-5.464 0-3.385-2.019-5.345-7.305-5.345Zm.297-17.579h-9.858v10.037h9.977c4.454 0 6.354-2.198 6.354-5.167 0-3.029-2.078-4.87-6.473-4.87Zm36.144 36.583c-10.334 0-16.985-7.304-16.985-16.628s7.245-16.748 16.807-16.748c9.62 0 16.569 6.949 16.569 16.451v3.088H139.04c1.069 4.157 4.454 6.77 9.206 6.77 3.8 0 6.354-1.663 7.958-4.276l6.71 3.92c-3.207 4.513-7.72 7.423-14.787 7.423Zm-.178-26.427c-4.158 0-7.365 2.435-8.671 6.176h17.104c-1.069-3.979-4.157-6.176-8.433-6.176Zm30.331 26.427c-7.008 0-11.165-3.919-11.165-9.561 0-6.652 5.523-10.749 14.431-10.749h8.433v-.416c0-3.445-2.316-5.82-6.948-5.82-3.623 0-6.058 1.544-7.543 4.216l-7.542-3.741c3.267-4.276 7.958-7.305 15.144-7.305 9.443 0 14.847 4.929 14.847 13.006V130h-7.898v-4.929c-2.317 3.326-6.711 5.582-11.759 5.582Zm2.375-6.77c3.92 0 7.78-2.375 9.384-5.82v-1.722h-7.543c-4.87 0-6.829 1.544-6.829 4.038 0 2.316 1.603 3.504 4.988 3.504Zm22.52 6.117V97.93h8.077v4.93c1.544-3.801 4.751-5.523 8.849-5.523 2.138 0 4.038.534 5.404 1.247l-2.97 8.077c-.89-.654-2.434-1.129-4.275-1.129-4.217 0-6.949 2.138-6.949 7.542V130h-8.136Zm43.595.653c-4.276 0-8.018-1.9-10.156-5.107V130h-8.077V83.143h8.137v19.182c2.138-3.088 5.701-5.048 10.036-5.048 8.077 0 15.441 6.474 15.441 16.688 0 10.215-7.483 16.688-15.381 16.688Zm-1.663-7.72c4.929 0 8.849-3.979 8.849-9.027 0-5.048-3.92-9.027-8.849-9.027-5.048 0-8.908 4.038-8.908 9.027 0 4.988 3.86 9.027 8.908 9.027Zm37.353 7.72c-10.333 0-16.985-7.304-16.985-16.628s7.246-16.748 16.807-16.748c9.621 0 16.57 6.949 16.57 16.451v3.088h-25.478c1.069 4.157 4.454 6.77 9.205 6.77 3.801 0 6.355-1.663 7.958-4.276l6.711 3.92c-3.207 4.513-7.72 7.423-14.788 7.423Zm-.178-26.427c-4.157 0-7.364 2.435-8.67 6.176h17.103c-1.069-3.979-4.157-6.176-8.433-6.176ZM303.157 130V97.93h8.374V130h-8.374Zm-1.069-41.097c0-3.088 2.197-5.344 5.226-5.344 3.148 0 5.285 2.256 5.285 5.344 0 3.03-2.137 5.227-5.285 5.227-3.088 0-5.226-2.198-5.226-5.227Zm12.934 16.273V97.93h5.939v-6.948l8.077-4.75V97.93h8.433v7.246h-8.433v13.184c0 3.385 1.425 4.573 3.504 4.573 1.128 0 2.019-.356 2.969-1.188l3.742 6.414c-2.079 1.544-4.692 2.435-7.661 2.435-6.711 0-10.631-3.207-10.631-11.937v-13.481h-5.939Zm41.206 25.477c-10.333 0-16.985-7.304-16.985-16.628s7.245-16.748 16.807-16.748c9.621 0 16.569 6.949 16.569 16.451v3.088h-25.477c1.069 4.157 4.454 6.77 9.205 6.77 3.801 0 6.354-1.663 7.958-4.276l6.711 3.92c-3.207 4.513-7.721 7.423-14.788 7.423Zm-.178-26.427c-4.157 0-7.364 2.435-8.671 6.176h17.104c-1.069-3.979-4.157-6.176-8.433-6.176ZM390.354 130V86.647h17.103c9.74 0 16.273 7.008 16.273 15.738 0 8.611-6.533 15.797-16.332 15.797h-8.611V130h-8.433Zm16.569-35.692h-8.136v16.094h8.136c4.988 0 8.314-3.385 8.314-8.017 0-4.692-3.326-8.077-8.314-8.077ZM429.287 130V86.647h14.016c13.778 0 22.627 9.383 22.627 21.676 0 12.353-9.502 21.677-22.449 21.677h-14.194Zm13.422-35.573h-4.989v27.734h5.226c8.79 0 14.491-6.058 14.491-13.838 0-7.958-5.226-13.896-14.728-13.896ZM471.353 130V86.647h27.912v7.958h-19.479v10.036h19.479v7.84h-19.479V130h-8.433Zm45.54.653c-7.602 0-12.412-2.85-14.966-7.958l7.899-3.088c1.425 2.851 3.979 4.335 7.364 4.335 3.326 0 5.107-1.603 5.107-3.503 0-2.317-3.444-2.851-7.542-3.683-5.404-1.128-11.402-2.791-11.402-9.561 0-5.404 5.226-10.096 13.124-10.037 6.771 0 10.809 2.554 13.778 6.83l-7.483 3.029c-1.306-2.138-3.325-3.385-6.295-3.385-3.207 0-4.751 1.306-4.751 3.088 0 2.019 2.613 2.554 7.305 3.563 5.345 1.069 11.64 2.91 11.64 9.799 0 4.989-4.454 10.631-13.778 10.571ZM100.503 192.323c.405 0 .81-.071 1.208-.208l11.587-4.023 23.621-24.567c2.464-2.566 2.464-6.744 0-9.31l-3.577-3.722a6.173 6.173 0 0 0-8.951 0l-23.621 24.571-3.865 12.063a4.038 4.038 0 0 0 .918 4.037 3.718 3.718 0 0 0 2.68 1.159Zm26.872-38.723a2.05 2.05 0 0 1 2.98 0l3.581 3.725a2.255 2.255 0 0 1 0 3.1l-3.595 3.742-6.564-6.828 3.598-3.739Zm-22.92 23.838 16.335-16.992 6.561 6.825-16.335 16.995-9.845 3.416 3.284-10.244ZM142.076 194.741l-6.054 1.924c-2.336.74-4.833.874-7.213.372l-7.027-1.464a18.459 18.459 0 0 0-12.214 1.702c-4.158 2.163-9.173 1.32-12.463-2.106l-.173-.179-2.811 3.286c2.886 2.998 6.723 4.578 10.614 4.578 2.282 0 4.58-.541 6.72-1.657a14.312 14.312 0 0 1 9.501-1.32l7.026 1.464c3.072.639 6.278.467 9.271-.485l6.055-1.924-1.232-4.191Z"/><path stroke="#333336" stroke-width="1.06" d="M429.134 139.118v58.326"/></svg>
