<svg xmlns="http://www.w3.org/2000/svg" width="480" height="198" fill="none" viewBox="0 0 480 198">
  <path stroke="#4F4F4F" stroke-width="1.5" d="M24.6274-327-67.7722 93.4658"/>
  <path stroke="#4F4F4F" stroke-width="1.5" d="M63.7934-327-11.8003 93.4658"/>
  <path stroke="#4F4F4F" stroke-width="1.5" d="M102.962-327 44.1738 93.4658"/>
  <path stroke="#4F4F4F" stroke-width="1.5" d="M142.128-327 100.146 93.4658"/>
  <path stroke="#4F4F4F" stroke-width="1.5" d="M181.29-327 156.111 93.4658"/>
  <path stroke="#4F4F4F" stroke-width="1.5" d="m220.458-327-8.372 420.4658"/>
  <path stroke="#4F4F4F" stroke-width="1.5" d="M-1405.43-.105469H265.989"/>
  <path stroke="#4F4F4F" stroke-width="1.5" d="M-1442.85 29.626H266.585"/>
  <path stroke="#4F4F4F" stroke-width="1.5" d="M-1482.03 60.762H267.203"/>
  <path stroke="#4F4F4F" stroke-width="1.5" d="m259.766-326.939 8.495 420.5279"/>
  <path stroke="#4F4F4F" stroke-width="1.5" d="m298.938-326.939 25.303 420.5279"/>
  <path stroke="#4F4F4F" stroke-width="1.5" d="m338.103-326.939 42.111 420.5279"/>
  <path stroke="#4F4F4F" stroke-width="1.5" d="m377.274-326.939 58.919 420.5279"/>
  <path stroke="#4F4F4F" stroke-width="1.5" d="m416.441-326.939 75.727 420.5279"/>
  <path stroke="#4F4F4F" stroke-width="1.5" d="m455.612-326.939 92.534 420.5279"/>
  <path stroke="#4F4F4F" stroke-width="1.5" d="M213.946.00524902H1885.5"/>
  <path stroke="#4F4F4F" stroke-width="1.5" d="M213.356 29.7378H1922.94"/>
  <path stroke="#4F4F4F" stroke-width="1.5" d="M212.734 60.8837H1962.12"/>
  <path stroke="#4F4F4F" stroke-width="1.5" d="M48.7488 60.762-89.1848 1047.3"/>
  <path stroke="#4F4F4F" stroke-width="1.5" d="M103.415 60.762 4.9126 1047.3"/>
  <path stroke="#4F4F4F" stroke-width="1.5" d="M158.07 60.762 98.9949 1047.3"/>
  <path stroke="#4F4F4F" stroke-width="1.5" d="M212.736 60.762 193.092 1047.3"/>
  <path stroke="#4F4F4F" stroke-width="1.5" d="M-1522.93 93.2456H267.849"/>
  <path stroke="#4F4F4F" stroke-width="1.5" d="M-1565.97 127.427H268.531"/>
  <path stroke="#4F4F4F" stroke-width="1.5" d="M-1611.16 163.324H269.243"/>
  <path stroke="#4F4F4F" stroke-width="1.5" d="m267.601 60.8837 19.933 986.7663"/>
  <path stroke="#4F4F4F" stroke-width="1.5" d="m322.269 60.8837 59.374 986.7663"/>
  <path stroke="#4F4F4F" stroke-width="1.5" d="m376.938 60.8837 98.813 986.7663"/>
  <path stroke="#4F4F4F" stroke-width="1.5" d="M431.608 60.8837 569.861 1047.65"/>
  <path stroke="#4F4F4F" stroke-width="1.5" d="M212.088 93.3635H2003.02"/>
  <path stroke="#4F4F4F" stroke-width="1.5" d="M211.409 127.557H2046.07"/>
  <path stroke="#4F4F4F" stroke-width="1.5" d="M210.693 163.457H2091.27"/>
</svg>
