<svg xmlns="http://www.w3.org/2000/svg" width="1366" height="96" fill="none" viewBox="0 0 1366 96">
  <path stroke="#4F4F4F" stroke-width="1.5" d="M1.28455-195-229.61 177.75"/>
  <path stroke="#4F4F4F" stroke-width="1.5" d="M36.0099-195-179.986 177.75"/>
  <path stroke="#4F4F4F" stroke-width="1.5" d="M70.7275-195-130.372 177.75"/>
  <path stroke="#4F4F4F" stroke-width="1.5" d="M105.451-195-80.7501 177.75"/>
  <path stroke="#4F4F4F" stroke-width="1.5" d="M140.172-195-31.1302 177.75"/>
  <path stroke="#4F4F4F" stroke-width="1.5" d="M174.896-195 18.4922 177.75"/>
  <path stroke="#4F4F4F" stroke-width="1.5" d="M209.613-195 68.1062 177.75"/>
  <path stroke="#4F4F4F" stroke-width="1.5" d="M244.334-195 117.727 177.75"/>
  <path stroke="#4F4F4F" stroke-width="1.5" d="M279.058-195 167.349 177.75"/>
  <path stroke="#4F4F4F" stroke-width="1.5" d="m313.781-195-96.81 372.75"/>
  <path stroke="#4F4F4F" stroke-width="1.5" d="m348.499-195-81.914 372.75"/>
  <path stroke="#4F4F4F" stroke-width="1.5" d="m383.22-195-67.015 372.75"/>
  <path stroke="#4F4F4F" stroke-width="1.5" d="m417.944-195-52.117 372.75"/>
  <path stroke="#4F4F4F" stroke-width="1.5" d="m452.665-195-37.217 372.75"/>
  <path stroke="#4F4F4F" stroke-width="1.5" d="m487.383-195-22.321 372.75"/>
  <path stroke="#4F4F4F" stroke-width="1.5" d="m522.106-195-7.422 372.75"/>
  <path stroke="#4F4F4F" stroke-width="1.5" d="M-800.075.134033H560.588"/>
  <path stroke="#4F4F4F" stroke-width="1.5" d="M-828.006 22.3239H561.031"/>
  <path stroke="#4F4F4F" stroke-width="1.5" d="M-857.13 45.4492H561.49"/>
  <path stroke="#4F4F4F" stroke-width="1.5" d="M-887.521 69.5912H561.971"/>
  <path stroke="#4F4F4F" stroke-width="1.5" d="M-919.266 94.7975H562.47"/>
  <path stroke="#4F4F4F" stroke-width="1.5" d="m556.953-194.946 7.531 372.805"/>
  <path stroke="#4F4F4F" stroke-width="1.5" d="m591.68-194.946 22.432 372.805"/>
  <path stroke="#4F4F4F" stroke-width="1.5" d="m626.401-194.946 37.332 372.805"/>
  <path stroke="#4F4F4F" stroke-width="1.5" d="m661.126-194.946 52.232 372.805"/>
  <path stroke="#4F4F4F" stroke-width="1.5" d="m695.848-194.946 67.133 372.805"/>
  <path stroke="#4F4F4F" stroke-width="1.5" d="m730.574-194.946 82.033 372.805"/>
  <path stroke="#4F4F4F" stroke-width="1.5" d="m765.296-194.946 96.934 372.805"/>
  <path stroke="#4F4F4F" stroke-width="1.5" d="m800.019-194.946 111.834 372.805"/>
  <path stroke="#4F4F4F" stroke-width="1.5" d="m834.741-194.946 126.735 372.805"/>
  <path stroke="#4F4F4F" stroke-width="1.5" d="M869.468-194.946 1011.1 177.859"/>
  <path stroke="#4F4F4F" stroke-width="1.5" d="m904.191-194.946 156.539 372.805"/>
  <path stroke="#4F4F4F" stroke-width="1.5" d="m938.913-194.946 171.437 372.805"/>
  <path stroke="#4F4F4F" stroke-width="1.5" d="m973.637-194.946 186.333 372.805"/>
  <path stroke="#4F4F4F" stroke-width="1.5" d="m1008.36-194.946 201.23 372.805"/>
  <path stroke="#4F4F4F" stroke-width="1.5" d="m1043.08-194.946 216.14 372.805"/>
  <path stroke="#4F4F4F" stroke-width="1.5" d="m1077.81-194.946 231.04 372.805"/>
  <path stroke="#4F4F4F" stroke-width="1.5" d="m1112.53-194.946 245.94 372.805"/>
  <path stroke="#4F4F4F" stroke-width="1.5" d="m1147.25-194.946 260.84 372.805"/>
  <path stroke="#4F4F4F" stroke-width="1.5" d="m1181.98-194.946 275.74 372.805"/>
  <path stroke="#4F4F4F" stroke-width="1.5" d="m1216.7-194.946 290.64 372.805"/>
  <path stroke="#4F4F4F" stroke-width="1.5" d="m1251.43-194.946 305.54 372.805"/>
  <path stroke="#4F4F4F" stroke-width="1.5" d="m1286.15-194.946 320.44 372.805"/>
  <path stroke="#4F4F4F" stroke-width="1.5" d="m1320.87-194.946 335.34 372.805"/>
  <path stroke="#4F4F4F" stroke-width="1.5" d="m1355.6-194.946 350.24 372.805"/>
  <path stroke="#4F4F4F" stroke-width="1.5" d="M518.219.21521H1878.98"/>
  <path stroke="#4F4F4F" stroke-width="1.5" d="M517.777 22.403H1906.92"/>
  <path stroke="#4F4F4F" stroke-width="1.5" d="M517.317 45.5397H1936.05"/>
  <path stroke="#4F4F4F" stroke-width="1.5" d="M516.836 69.6802H1966.44"/>
  <path stroke="#4F4F4F" stroke-width="1.5" d="M516.333 94.8958H1998.19"/>
</svg>
