<svg xmlns="http://www.w3.org/2000/svg" width="61" height="71" fill="none" viewBox="0 0 61 71">
  <path fill="#fff" fill-rule="evenodd" stroke="#fff" stroke-width="7.78707" d="M35.4492 8.61628c-4.7291-.58752-9.039 2.76982-9.6265 7.49892l-1.2057 9.7044-4.5667-.5674 1.2056-9.7044c.9009-7.2512 7.5094-12.39916 14.7607-11.49829 7.2512.90088 12.3991 7.50949 11.4982 14.76069l-1.2056 9.7043-4.5668-.5673 1.2057-9.7044c.5875-4.7291-2.7699-9.03899-7.4989-9.62652Z" clip-rule="evenodd"/>
  <path fill="#fff" stroke="#fff" stroke-miterlimit="10" stroke-width="7.78707" d="M53.6594 29.8878 11.7977 24.687c-1.7792-.2211-3.39938 1.0383-3.61987 2.8131l-3.7788 30.4158c-.22049 1.7747 1.04374 3.3924 2.82151 3.6133L49.0822 66.73c1.7793.2211 3.3994-1.0383 3.6199-2.813l3.7788-30.4159c.2205-1.7747-1.0437-3.3924-2.8215-3.6133Z"/>
  <path fill="#CDCDD4" fill-rule="evenodd" stroke="#333336" stroke-width="1.4" d="M35.4492 8.61628c-4.729-.58752-9.039 2.76982-9.6265 7.49892l-1.4749 11.8717-4.5668-.5674 1.4749-11.8717c.9009-7.2512 7.5095-12.39916 14.7607-11.49829 7.2512.90088 12.3991 7.50949 11.4983 14.76069l-1.475 11.8716-4.5667-.5673 1.4749-11.8717c.5875-4.7291-2.7699-9.03899-7.4989-9.62652Z" clip-rule="evenodd"/>
  <path fill="url(#a)" stroke="#333336" stroke-miterlimit="10" stroke-width="1.4" d="M53.6594 29.8878 11.7977 24.687c-1.7792-.2211-3.39938 1.0383-3.61987 2.8131l-3.7788 30.4158c-.22049 1.7747 1.04374 3.3924 2.82151 3.6133L49.0822 66.73c1.7793.2211 3.3994-1.0383 3.6199-2.813l3.7788-30.4159c.2205-1.7747-1.0437-3.3924-2.8215-3.6133Z"/>
  <path fill="#F8F6F4" fill-rule="evenodd" stroke="#333336" stroke-linecap="round" stroke-linejoin="round" stroke-width="1.4" d="M30.9976 38.9817c-1.7377-2.6556-5.0529-3.7238-7.8775-1.8407-2.8245 1.8832-3.6407 5.517-1.9605 8.368 1.397 2.3704 5.8713 7.5595 7.3401 9.2416.1643.1882.2465.2823.3503.3282.0905.04.1935.0528.2911.0361.1118-.019.2145-.0902.4199-.2324 1.8357-1.2716 7.4438-5.2081 9.3784-7.1646 2.3267-2.3532 2.4713-6.0939.1467-8.5933-2.3247-2.4993-5.7538-2.2926-8.0885-.1429Z" clip-rule="evenodd"/>
  <defs>
    <linearGradient id="a" x1="5.14509" x2="55.1365" y1="51.9117" y2="43.3518" gradientUnits="userSpaceOnUse">
      <stop stop-color="#0290FF"/>
      <stop offset="1" stop-color="#9059FF"/>
    </linearGradient>
  </defs>
</svg>
