<svg xmlns="http://www.w3.org/2000/svg" width="25" height="175" viewBox="0 0 25 175">
  <g id="email2">
    <path fill="#D2F4FC" d="M20.5 169.5H4.6c-1.1 0-2-.9-2-2v-12.4c0-1.1.9-2 2-2h15.9c1.1 0 2 .9 2 2v12.4c0 1.1-.9 2-2 2z"/>
    <path fill="#00A7E0" d="M20.9 153.1H4.2c-.9 0-1.7.7-1.7 1.7v13c0 .9.7 1.7 1.7 1.7h16.6c.9 0 1.7-.7 1.7-1.7v-13c0-.9-.7-1.7-1.6-1.7zm0 1.7v3.5l-8.4 3.4-8.3-3.4v-3.4h16.7v-.1zm-16.7 13v-7.3l8.3 3.4 8.4-3.4v7.3H4.2z"/>
  </g>
  <g id="outlook" fill="#0072C6">
    <path d="M14.9 131.9v3.7l1.3.8h.1l5.6-3.8c0-.4-.4-.8-.7-.8h-6.3v.1zm0 5.2l1.2.8c.2.1.4 0 .4 0-.2.1 5.5-3.7 5.5-3.7v6.9c0 .7-.5 1.1-1 1.1h-6.1v-5.1zm-6.2-1.8c-.4 0-.7.2-1 .6-.2.4-.4.9-.4 1.5s.1 1.1.4 1.5c.2.4.6.6.9.6.4 0 .7-.2 1-.5.2-.4.4-.9.4-1.5 0-.7-.1-1.2-.3-1.6-.2-.4-.6-.6-1-.6z"/>
    <path d="M3.1 130v14.6l11.1 2.3v-19.1L3.1 130zm7.4 9.8c-.5.6-1.1.9-1.8.9s-1.3-.3-1.8-.9c-.5-.6-.7-1.4-.7-2.3 0-1 .2-1.8.7-2.5.5-.6 1.1-.9 1.9-.9.7 0 1.3.3 1.8.9.5.6.7 1.4.7 2.4-.1 1-.3 1.8-.8 2.4z"/>
  </g>
  <g id="yahoo">
    <path fill="#6B0094" d="M9.9 102.8c4.2 0 7.4 3.1 7.4 7.2s-3.2 7.2-7.4 7.2-7.4-3.1-7.4-7.2 3.2-7.2 7.4-7.2z"/>
    <path fill="#FFF" d="M9.6 107.5c0-.2 0-.5.1-.7H4.1v.7c.6 0 1.1.1 1.7.1 1.1 1.3 2.1 2.6 3.2 3.9v2c-.6.1-1.2.1-1.8.1v.7h5.6v-.7c-.6 0-1.2-.1-1.8-.1 0-.7 0-1.4.1-2.1 1-.9 2.1-1.8 3.1-2.8.5 0 1.1-.1 1.6-.1v-.9c-1.6 0-3.1 0-4.7.1v.7c.6 0 1.2.1 1.8.1-.8.7-1.5 1.3-2.3 1.9-.8-1-1.6-1.9-2.3-2.9.3.1.8.1 1.3 0z"/>
    <path fill="#6B0094" d="M22.5 103.5c-1.4-.1-2.8-.1-4.3-.2-.1 3.4-.1 6.8-.2 10.2.7.1 1.4.1 2 .2.8-3.4 1.6-6.8 2.5-10.2zm-4.7 13.7h2.4v-2c-.9-.1-1.8-.1-2.7-.2.1.7.2 1.4.3 2.2z"/>
  </g>
  <g id="gmail">
    <path fill="#E3E3E3" d="M21.2 92.9H3.8c-.7 0-1.2-.6-1.2-1.2V79c0-.7.6-1.2 1.2-1.2h17.4c.7 0 1.2.6 1.2 1.2v12.6c0 .7-.5 1.3-1.2 1.3z"/>
    <path fill="#231F20" d="M5 92.9l7.5-6 .1-.3L4.8 81v11.6l.2.3z" opacity=".1"/>
    <path fill="#D54B3D" d="M3.8 92.9c-.7 0-1.2-.6-1.2-1.2V79c0-.7.6-.8 1.2-.8s1.2.1 1.2.8v13.9H3.8z"/>
    <path fill="#D72B27" d="M3.8 78.4c.9 0 1.1.3 1.1.6v13.7H3.8c-.6 0-1.1-.5-1.1-1.1V79c0-.4.2-.6 1.1-.6zm0-.2c-.7 0-1.2.1-1.2.8v12.6c0 .7.6 1.2 1.2 1.2H5V79c0-.7-.5-.8-1.2-.8z"/>
    <path fill="#D54B3D" d="M21.2 92.9H20V79c0-.7.6-.8 1.2-.8.7 0 1.2.1 1.2.8v12.7c0 .6-.5 1.2-1.2 1.2z"/>
    <path fill="#D72B27" d="M21.2 78.4c.8 0 1.1.2 1.1.6v12.7c0 .6-.5 1.1-1.1 1.1h-1.1V79c0-.5.3-.6 1.1-.6zm0-.2c-.7 0-1.2.1-1.2.8v13.9h1.2c.7 0 1.2-.6 1.2-1.2V79c0-.7-.5-.8-1.2-.8z"/>
    <linearGradient id="gradient1" x1="-598.124" x2="-598.045" y1="-70.911" y2="-70.911" gradientUnits="userSpaceOnUse" gradientTransform="matrix(253.1598 0 0 174.8345 151423.547 12483.617)">
      <stop offset="0" stop-opacity=".1"/>
      <stop offset="1" stop-opacity=".2"/>
    </linearGradient>
    <path fill="url(#gradient1)" d="M15.9 92.9L2.6 79.5l.7.3 9.2 6.6 9.9-7.3v12.5c0 .7-.6 1.2-1.2 1.2h-5.3v.1z"/>
    <path fill="#D54B3D" d="M12.5 86.9L3.1 80c-.6-.4-.7-1.2-.3-1.7s1.2-.7 1.7-.3l7.9 5.8 8-5.8c.6-.4 1.3-.3 1.7.3.4.6.3 1.3-.3 1.7l-9.3 6.9z"/>
    <path fill="#D72B27" d="M21.2 77.9c.3 0 .7.2.9.4.3.5.2 1.1-.2 1.5l-9.4 6.8-9.3-6.8c-.5-.4-.6-1-.3-1.5.2-.2.5-.3.9-.3.2 0 .5 0 .6.2l7.9 5.8.1.1.1-.1 8-5.8c.3-.2.5-.3.7-.3zm0-.2c-.2 0-.5.1-.7.2l-8 5.8-8-5.7c-.2-.2-.5-.2-.7-.2-.4 0-.8.2-1 .5-.4.6-.2 1.3.3 1.7l9.4 6.8 9.5-6.9c.6-.4.7-1.2.3-1.7-.3-.3-.7-.5-1.1-.5z"/>
  </g>
  <g id="email" fill="#FFF">
    <path d="M22.5 57.3v-2.7c0-1.1-.9-2-2-2H4.6c-1.1 0-2 .9-2 2v2.7l9.9 4 10-4z"/>
    <path d="M12.5 63.4l-9.9-4V67c0 1.1.9 2 2 2h15.9c1.1 0 2-.9 2-2v-7.6l-10 4z"/>
  </g>
  <g id="facebook">
    <path fill="#FFF" d="M9.6 44.1V35h3l.4-3.2H9.6v-1.6c0-.8.1-1.3 1.5-1.3H13v-3.2h-3c-3.6 0-4.9 1.5-4.9 4.1v1.9H2.9V35h2.3v9.1h4.4z"/>
  </g>
  <g id="twitter">
    <path fill="#FFF" d="M8.5 18.4c7.1 0 11-5.9 11-11v-.5c.8-.5 1.4-1.2 1.9-2-.7.3-1.4.5-2.2.6.8-.5 1.4-1.3 1.7-2.2-.7.4-1.6.8-2.5.9-.7-.7-1.7-1.2-2.8-1.2-2.1 0-3.9 1.7-3.9 3.9 0 .3 0 .6.1.9-3.2-.2-6.1-1.7-8-4.1-.3.6-.5 1.2-.5 2C3.3 7 4 8.2 5 8.9c-.6 0-1.2-.2-1.8-.5v.1c0 1.9 1.3 3.4 3.1 3.8-.3.1-.7.1-1 .1-.2 0-.5 0-.7-.1.5 1.6 2 2.7 3.7 2.7-1.3 1-3 1.7-4.8 1.7-.3 0-.6 0-.9-.1 1.6 1.1 3.7 1.8 5.9 1.8"/>
  </g>
</svg>
