<svg height="80" viewBox="0 0 80 80" baseProfile="tiny-ps" width="80" xmlns="http://www.w3.org/2000/svg"><title>Mozilla</title><path d="m0 0h80v80h-80z"/><path d="m68.118 50.118h4.588v7.53h-14.47v-19.53c0-6-2-8.236-5.883-8.236-4.706 0-6.588 3.412-6.588 8.118v12h4.588v7.53h-14.47v-19.413c0-6-2-8.236-5.883-8.236-4.706 0-6.588 3.412-6.588 8.118v12h6.588v7.53h-21.176v-7.529h4.588v-19.412h-4.588v-7.53h14.47v5.177c2.118-3.647 5.647-5.882 10.47-5.882 4.942 0 9.53 2.353 11.177 7.412 1.883-4.589 5.765-7.412 11.177-7.412 6.235 0 11.882 3.765 11.882 11.882v15.883z" fill="#fff"/></svg>
