<svg width="64" height="64" fill="none" xmlns="http://www.w3.org/2000/svg"><path d="M-.001 15.012h48.988V64H-.001V15.012Z" fill="#000"/><path d="M36.187 1.738H62.26v26.074H36.186V1.738Z" fill="#fff"/><path fill-rule="evenodd" clip-rule="evenodd" d="M34.45 0H64v29.55H34.45V0Zm1.737 1.738v26.074h26.075V1.738H36.187Z" fill="#000"/><path d="M42.076 52.448h-7.914V41.812c0-1.62-.28-2.778-.838-3.476-.53-.698-1.326-1.047-2.387-1.047-1.284 0-2.22.419-2.806 1.256-.558.838-.837 1.913-.837 3.225v6.616h2.512v4.062h-7.914V41.812c0-1.62-.28-2.778-.838-3.476-.53-.698-1.326-1.047-2.387-1.047-1.312 0-2.247.419-2.805 1.256-.559.838-.838 1.913-.838 3.225v6.616h3.601v4.062H7.11v-4.062h2.513v-10.72h-2.47v-4.104h7.872v2.848c1.2-2.15 3.113-3.225 5.737-3.225 1.368 0 2.624.335 3.769 1.005 1.145.67 1.94 1.69 2.387 3.057 1.117-2.708 3.169-4.062 6.156-4.062 1.703 0 3.21.53 4.523 1.591 1.312 1.061 1.968 2.708 1.968 4.942v8.668h2.512v4.062Z" fill="#fff"/><path d="M59.958 18.345c-.101.898-.492 1.767-1.173 2.607-.666.84-1.789 1.26-3.368 1.26-1.42 0-2.593-.413-3.52-1.238-.912-.826-1.369-2.064-1.369-3.716 0-1.738.5-3.049 1.5-3.933 1-.883 2.209-1.325 3.628-1.325.536 0 1.108.072 1.717.217.623.13 1.231.355 1.825.674l.434 2.977-2.237.239-.326-1.608c-.565-.189-1.058-.283-1.478-.283-.594 0-1.1.232-1.521.696-.42.449-.63 1.187-.63 2.216 0 1.912.746 2.868 2.238 2.868 1.1 0 1.745-.695 1.934-2.086l2.346.435ZM50.254 14.303h-1l-3.497 7.692h-2.021l-3.694-7.692h-1.043v-2.108h4.998v2.108h-.935l1.912 4.107h.13l1.456-4.107h-.782v-2.108h4.476v2.108Z" fill="#000"/></svg>
