<svg width="30" height="30" fill="none" xmlns="http://www.w3.org/2000/svg"><path d="M0 7.59h22.41V30H0V7.59Z" fill="#000"/><path d="M14.82.947h14.23v14.23H14.82V.948Z" fill="#fff"/><path fill-rule="evenodd" clip-rule="evenodd" d="M13.868 0h16.128v16.128H13.868V0Zm.949.949v14.23h14.23V.949h-14.23Z" fill="#000"/><path d="M19.02 24.716h-3.323v-4.467c0-.68-.117-1.166-.352-1.46-.223-.293-.557-.44-1.002-.44-.54 0-.932.177-1.178.528-.235.352-.352.803-.352 1.354v2.779h1.055v1.706h-3.324v-4.467c0-.68-.117-1.166-.351-1.46-.223-.293-.557-.44-1.003-.44-.55 0-.943.177-1.178.528-.234.352-.352.803-.352 1.354v2.779h1.513v1.706H4.337V23.01h1.055v-4.502H4.354v-1.723H7.66v1.195c.505-.902 1.308-1.354 2.41-1.354.574 0 1.102.141 1.582.422.481.282.815.71 1.003 1.284.469-1.137 1.33-1.706 2.585-1.706.715 0 1.348.223 1.899.669.55.445.826 1.137.826 2.075v3.64h1.055v1.706Z" fill="#fff"/><path d="M27.906 10.099c-.058.508-.28 1-.665 1.476-.377.476-1.013.714-1.907.714-.804 0-1.468-.234-1.993-.701-.517-.468-.776-1.17-.776-2.104 0-.985.283-1.727.85-2.228.566-.5 1.25-.75 2.054-.75.304 0 .628.04.972.123.353.074.698.2 1.034.381l.246 1.686-1.267.135-.185-.91a2.703 2.703 0 0 0-.837-.16c-.336 0-.623.131-.86.394-.239.254-.358.672-.358 1.255 0 1.082.423 1.624 1.268 1.624.623 0 .988-.394 1.095-1.181l1.329.246ZM22.41 7.81h-.566l-1.981 4.355h-1.145L16.627 7.81h-.59V6.616h2.83v1.193h-.53l1.083 2.326h.074l.824-2.326h-.443V6.616h2.535v1.193Z" fill="#000"/></svg>
