<svg width="65" height="64" fill="none" xmlns="http://www.w3.org/2000/svg"><path d="M.333 15.012h48.988V64H.333V15.012Z" fill="#000"/><path d="M36.52 1.738h26.075v26.074H36.52V1.738Z" fill="#fff"/><path fill-rule="evenodd" clip-rule="evenodd" d="M34.783 0h29.55v29.55h-29.55V0Zm1.739 1.738v26.074h26.074V1.738H36.522Z" fill="#000"/><path d="M42.41 52.448h-7.914V41.812c0-1.62-.28-2.778-.838-3.476-.53-.698-1.326-1.047-2.387-1.047-1.284 0-2.22.419-2.806 1.256-.558.838-.837 1.913-.837 3.225v6.616h2.512v4.062h-7.914V41.812c0-1.62-.28-2.778-.838-3.476-.53-.698-1.326-1.047-2.387-1.047-1.312 0-2.247.419-2.805 1.256-.559.838-.838 1.913-.838 3.225v6.616h3.601v4.062H7.443v-4.062h2.513v-10.72h-2.47v-4.104h7.872v2.848c1.2-2.15 3.113-3.225 5.737-3.225 1.368 0 2.624.335 3.769 1.005 1.145.67 1.94 1.69 2.387 3.057 1.117-2.708 3.169-4.062 6.156-4.062 1.703 0 3.21.53 4.523 1.591 1.312 1.061 1.968 2.708 1.968 4.942v8.668h2.512v4.062Z" fill="#fff"/><path d="M53.6 10.73V7.82h2.803v2.91H53.6Zm4.215 11.539h-5.41V20.16h1.303V14.6h-1.412v-2.13h4.215v7.692h1.304v2.108ZM41.76 13.164c.855-.347 1.564-.58 2.13-.695.579-.13 1.267-.195 2.064-.195 1.057 0 1.97.275 2.737.825.768.55 1.152 1.384 1.152 2.499v4.259c0 .507.224.76.673.76.13 0 .269-.021.413-.065l.022 1.477a3.665 3.665 0 0 1-1.76.457c-1.29 0-2.006-.645-2.151-1.934v-.022c-.275.493-.674.942-1.195 1.347-.507.406-1.159.609-1.956.609-.71 0-1.39-.21-2.042-.63-.652-.42-.978-1.145-.978-2.173 0-1.202.478-2 1.434-2.39a8.29 8.29 0 0 1 3.13-.587c.622 0 1.158.03 1.607.087v-.326c0-.507-.072-1-.217-1.477-.13-.479-.594-.717-1.39-.717-.29 0-.559.021-.805.065a2.147 2.147 0 0 0-.695.217l-.37 1.39-2.238-.238.435-2.543Zm5.28 5.106v-.13a94.9 94.9 0 0 0-.717-.087 5.596 5.596 0 0 0-.695-.043c-.493 0-.927.094-1.304.282-.377.174-.565.529-.565 1.065 0 .319.087.587.26.804.175.217.471.326.892.326.492 0 .948-.174 1.368-.522.435-.362.689-.927.761-1.695Z" fill="#000"/></svg>
