<svg width="30" height="30" fill="none" xmlns="http://www.w3.org/2000/svg"><path d="M0 7.59h22.41V30H0V7.59Z" fill="#000"/><path d="M14.82.947h14.23v14.23H14.82V.948Z" fill="#fff"/><path fill-rule="evenodd" clip-rule="evenodd" d="M13.868 0h16.128v16.128H13.868V0Zm.949.949v14.23h14.23V.949h-14.23Z" fill="#000"/><path d="M19.02 24.716h-3.323v-4.467c0-.68-.117-1.166-.352-1.46-.223-.293-.557-.44-1.002-.44-.54 0-.932.177-1.178.528-.235.352-.352.803-.352 1.354v2.779h1.055v1.706h-3.324v-4.467c0-.68-.117-1.166-.351-1.46-.223-.293-.557-.44-1.003-.44-.55 0-.943.177-1.178.528-.234.352-.352.803-.352 1.354v2.779h1.513v1.706H4.337V23.01h1.055v-4.502H4.354v-1.723H7.66v1.195c.505-.902 1.308-1.354 2.41-1.354.574 0 1.102.141 1.582.422.481.282.815.71 1.003 1.284.469-1.137 1.33-1.706 2.585-1.706.715 0 1.348.223 1.899.669.55.445.826 1.137.826 2.075v3.64h1.055v1.706Z" fill="#fff"/><path d="M24.135 5.856v-1.59h1.53v1.59h-1.53Zm2.3 6.297h-2.952v-1.15h.712V7.966h-.771V6.805h2.3v4.197h.712v1.15ZM17.674 7.182c.466-.19.854-.316 1.162-.379a5.192 5.192 0 0 1 1.126-.107c.578 0 1.076.15 1.495.45.419.301.628.756.628 1.365v2.324c0 .277.123.415.368.415a.785.785 0 0 0 .225-.036l.012.807a2 2 0 0 1-.96.249c-.704 0-1.096-.352-1.175-1.056v-.011a2.46 2.46 0 0 1-.652.735c-.277.221-.632.332-1.067.332-.387 0-.76-.115-1.115-.344-.356-.23-.534-.625-.534-1.186 0-.656.261-1.09.783-1.304a4.525 4.525 0 0 1 1.708-.32c.34 0 .632.015.877.047v-.178c0-.277-.04-.545-.118-.806-.071-.261-.324-.392-.76-.392a2.53 2.53 0 0 0-.438.036 1.171 1.171 0 0 0-.38.118l-.201.76-1.222-.131.238-1.388Zm2.881 2.787V9.9a53.786 53.786 0 0 0-.391-.048 3.057 3.057 0 0 0-.38-.024 1.57 1.57 0 0 0-.711.154c-.206.095-.308.289-.308.581 0 .174.047.32.142.439.095.119.257.178.486.178.269 0 .518-.095.747-.285.238-.197.376-.506.415-.925Z" fill="#000"/></svg>
