<svg id="Desktop_Firefox_Picto" data-name="Desktop Firefox Picto" xmlns="http://www.w3.org/2000/svg" viewBox="0 0 1202.78 1154.58"><defs><style>.cls-1{fill:none;}.cls-2{clip-path:url(#clip-path);}.cls-3{fill:#42a5f5;}.cls-4{fill:#1976d2;}.cls-5{fill:#464748;}.cls-6{fill:#70c4ea;}.cls-7{fill:#d3d7d9;}.cls-8{fill:#828586;}.cls-9{opacity:0.1;}.cls-10{fill:#ebf0f2;}.cls-11{fill:#0095dd;}.cls-12{fill:#e60;}.cls-13{clip-path:url(#clip-path-2);}.cls-14{fill:#fa6737;}.cls-15{fill:#f8f6c8;}.cls-16{clip-path:url(#clip-path-3);}.cls-17{fill:url(#linear-gradient);}.cls-18{fill:#fff;fill-rule:evenodd;}</style><clipPath id="clip-path" transform="translate(1.39 -42.13)"><circle class="cls-1" cx="600" cy="600" r="558"/></clipPath><clipPath id="clip-path-2" transform="translate(1.39 -42.13)"><circle class="cls-1" cx="600" cy="564.72" r="157"/></clipPath><clipPath id="clip-path-3" transform="translate(1.39 -42.13)"><path class="cls-1" d="M596.82 500.39c-.17-3.11-2.22-5.34-28-5.13-10.61.09-15.55-9.14-17.18-13-2.74 10-3.24 20.25-1.15 32.37 1.36 7.95 7 14.74 10.2 19.52.74.74.76 1.16 1 .7 1.15-2.51 24.16-15.6 26-17s9.63-7.98 9.13-17.46z"/></clipPath><linearGradient id="linear-gradient" x1="603.3" y1="570.39" x2="622.62" y2="600.14" gradientTransform="matrix(1 0 0 -1 -22.54 1086.54)" gradientUnits="userSpaceOnUse"><stop offset="0" stop-color="#37373a"/><stop offset=".65" stop-color="#7b3f3c"/><stop offset="1" stop-color="#dc5a26"/></linearGradient></defs><title>firefox_picto_ffx-desktop-hello</title><g class="cls-2"><path class="cls-3" d="M0 0h1202.78v1115.66H0z"/><path class="cls-4" d="M1.39 800.58h1200v354H1.39z"/></g><path class="cls-5" d="M905.14 282.5h-607.5a50.57 50.57 0 0 0-50.62 50.55v429.63h708.75V333.04a50.57 50.57 0 0 0-50.63-50.54z"/><path class="cls-6" d="M297.64 333.04h607.5v379.09h-607.5z"/><path class="cls-7" d="M196.39 762.68q0 75.82 75.94 75.82h658.12q75.94 0 75.94-75.82h-810z"/><path class="cls-8" d="M664.67 787.95H538.11l-12.66-25.27h151.88l-12.66 25.27z"/><path class="cls-9 cls-10" d="M652.02 282.5H297.64a50.57 50.57 0 0 0-50.62 50.55v429.63h253.12z"/><g id="_Flat_Firefox_Icon_" data-name="&lt;Flat Firefox Icon&gt;"><g id="_Earth_" data-name="&lt;Earth&gt;"><circle class="cls-11" cx="601.39" cy="522.59" r="157"/><path class="cls-12" d="M741.5 451.7a222.62 222.62 0 0 1 1.54 26.17c0 102.93-70.29 186.38-157 186.38-53.74 0-101.17-32.05-129.47-80.93A157 157 0 1 0 741.5 451.7z"/></g><g id="_Fox_" data-name="&lt;Fox&gt;"><g class="cls-13"><path class="cls-14" d="M720.22 615.05c9-16.94 21.22-26.86 27.83-38.58 8.77-15.59 25.36-59.41 12.86-94.76 5.73 22.13 3.94 44.62-14.34 55.91 5.91-15.59 9.61-49.8 3.52-80.62-4-20-16.49-38-24.67-43.57 7.52 5.64 13.57 23.92 13.4 33.19-15.74-26.5-41.42-49.92-80.24-60.62 30.15 19.88 41.41 36.77 48.54 51.8-8.06-8.24-21.86-16.85-31.18-17.56 14 10.39 37.36 41.23 34.88 87.95-3.58-7.52-10.15-19.3-14.8-23.43 5 45.88.62 55.74-2.42 67.92a39.87 39.87 0 0 0-3.85-12.37s-.54 14.34-9.85 34.77c-7.06 15.47-14.34 20.25-17.56 19.71a2.1 2.1 0 0 1-1.34-.47c.23-2 .44-4.1-.1-5.44a11.18 11.18 0 0 0-4.9 3.73 14.52 14.52 0 0 1-3.09 3.15c-.23.17 2.13-3 1.95-2.87a41.24 41.24 0 0 0-3.64 3.34c-4.57 4.75-8.69 10-10.83 8.52 2-.61 3.59-3.15 4-5.65-1.8 1.26-6.35 4.66-16.57 6.18-4.18.62-22 3.86-45.61-8 3.45-.39 8.61-1.61 12.54.72-3.93-4.29-13.44-3.4-20.25-5.55-5.94-1.88-13.68-10.21-18.14-14.42 18.2 4.46 37.53 1.24 48.71-6.4s18-13.37 24-12 10-4.68 5.32-10-15.95-12.57-31.3-8.76c-11.75 2.94-21.78 12.38-38.29 5.82q-1.5-.6-3.09-1.38c-1.05-.52 3.45.63 2.34 0a74.25 74.25 0 0 1-10.38-4.82c-.23-.17 2.39.48 2.12.31-15.67-9.27-14.65-16.69-14.65-21.28a13.31 13.31 0 0 1 6.42-11 31.22 31.22 0 0 1 3.66 1.54s-1-1.6-1.7-2.38c.15-.06.31-.1.47-.14a82.19 82.19 0 0 1 8.1 3.22 10.08 10.08 0 0 1 3.81 2.89s.67-.42 0-1.88a10.12 10.12 0 0 0-4.11-4.09h.13a38 38 0 0 1 4.78 2.31c.54-2.51 1.62-5.12.89-9.68-.51-3.21-.45-4-1.25-5.2-.69-1 .19-1.44 1.25-.54a14.29 14.29 0 0 0-1-2.38c.88-4 24.45-16.31 26.21-17.61a22 22 0 0 0 6.48-7.8 16.79 16.79 0 0 0 1.72-9.17c-.16-3-2-4.89-27.1-4.68-6.87.05-11.34-3.95-14-7.76-.55-.83-1-1.62-1.47-2.33a23.28 23.28 0 0 1-1.3-2.76 54 54 0 0 1 18.41-28c.57-.48-2.24.32-1.7-.18a59.7 59.7 0 0 1 5.35-2.91c1-.54-4.33-2-8.85-1a22.51 22.51 0 0 0-7.76 2.69c.95-1 4-2.54 3.27-2.37-4.93 1.1-10.73 4.35-15.68 7.84a6.25 6.25 0 0 1 .1-1.52c-2.34 1.21-8 5.55-9.41 8.87a13.83 13.83 0 0 0-.09-1.88 34.09 34.09 0 0 0-4.54 5.14l-.06.07c-14.69-3.65-27.16-2.77-37.59.58-2.5-1.81-6.49-4.59-12.8-14.32-.37-.59-.41 1.33-.75.72a45.17 45.17 0 0 1-4.8-17.48s-4 2.35-6.7 10.7c-.47 1.48-.79 2.35-1.13 3.16-.11.26.2-2.68.08-2.44-.51 1-1.95 2.69-2.41 4.57a26.52 26.52 0 0 0-1.15 4 .54.54 0 0 1 0 .11c0-.45-.07-2-.2-1.73a76.06 76.06 0 0 0-3.14 10.63 93.62 93.62 0 0 0-1.81 25.91c0 .89.13 1.75.1 2.55a75.15 75.15 0 0 0-7.54 12.44c-4.82 9.41-9.76 23.87-13.75 46.33a108.54 108.54 0 0 1 8-18.05c-3.95 12.08-7 30.86-5.22 59a168.1 168.1 0 0 1 3-17.64 145 145 0 0 0 20.03 66.73c11.11 19 40.41 63.28 113.93 79.84a35.16 35.16 0 0 1-13.08-7s27.46 8.82 47.5 8.07c-6.28-1.08-7.53-4.12-7.53-4.12s71.25 4 95.88-29.58c-8.42 9.85-29.75 12.63-37.81 12.72 12.28-11.28 39.42-11 68.82-40 16.13-15.88 17.87-28 19.63-39.25-2.75 14.83-16.82 23.7-31.51 31.77z"/><path class="cls-12" d="M598.21 458.08c-.17-3.12-2.22-5.36-28-5.15-10.61.09-15.55-9.18-17.18-13.11-2.74 10-3.24 20.35-1.15 32.54 1.36 8 7 14.81 10.2 19.62.74.74.76 1.16 1 .71 1.15-2.52 24.16-15.68 26-17s9.63-8.08 9.13-17.61z"/><path class="cls-14" d="M598.21 458.08c-.17-3.12-2.22-5.36-28-5.15-10.61.09-15.55-9.18-17.18-13.11-2.74 10-3.24 20.35-1.15 32.54 1.36 8 7 14.81 10.2 19.62.74.74.76 1.16 1 .71 1.15-2.52 24.16-15.68 26-17s9.63-8.08 9.13-17.61z"/><path class="cls-15" d="M589.8 473.61c1.33-1 5.85-5.17 7-10.12-.82.33-.9-.61-1.87-.2a60.15 60.15 0 0 1-10.57 9.06c1.34-1.25 3.58-3 4.21-3.95-5.21 3.59-11.61 6.13-16.67 5.56a11.85 11.85 0 0 0 7.58-2.62c-3.85 1.74-10.32 1.61-11 1.36s6.38-.89 5.77-1.11a14.21 14.21 0 0 0-8.44.12 16 16 0 0 0-4.85 3.58 27.44 27.44 0 0 0 1.83-3.17 43.21 43.21 0 0 1-6.22 5c.35-.7 5.86-4.94 4.82-4.55-.63.62-2.93 1.95-4.54 3.12-.46.25 3.26-3 2.88-2.83-6.21 1.61-5.57 5-5.73 5.13.14.2.14.68.27.87.76 2.27 3.43 6 6 9.68 1.85 2.21 2.38 4.7 2.55 3.9.84-3.96 25.21-17.52 26.98-18.83z"/><g class="cls-16"><path class="cls-15" d="M590.14 473.51c1.36-1 6-5.29 7.14-10.36-.84.34-.92-.62-1.91-.2a61.57 61.57 0 0 1-10.82 9.28c1.37-1.28 3.67-3 4.31-4-5.33 3.67-11.89 6.28-17.06 5.69a12.14 12.14 0 0 0 7.76-2.68c-3.94 1.78-10.56 1.65-11.26 1.39s6.53-.91 5.91-1.13a14.55 14.55 0 0 0-8.64.12 16.41 16.41 0 0 0-5 3.67 28.09 28.09 0 0 0 1.87-3.25 44.23 44.23 0 0 1-6.37 5.08c.36-.71 6-5.06 4.93-4.65-.65.64-3 2-4.65 3.19-.47.25 3.34-3.12 3-2.89-6.36 1.65-5.71 5.14-5.87 5.25.14.2.14.7.27.9.78 2.33 3.51 6.19 6.13 9.91 1.9 2.26 2.44 4.81 2.61 4 .9-4.1 25.84-17.96 27.65-19.32z"/><path class="cls-15" d="M564.32 481.86l-5.49 7.37 3.49 5.92 26.42-12.25 7.29-11.34v-4.58l-3.4 1.05-4.76 6.8-23.55 7.03z"/></g><path class="cls-17" d="M597.69 465.44c1.17-2.86 2.5-9.6-1.34-11a37.74 37.74 0 0 0-11.14-1.21c1.72.43 6.66 1.4 7.94 3.71 2.45 4.41.46 13-.38 15.24a14.09 14.09 0 0 0 4.92-6.74z"/></g><path class="cls-14" d="M482.53 413.03c-.4-.64-.44 1.42-.81.76a48 48 0 0 1-5.12-18.66s-4.32 2.53-7.15 11.42c-.5 1.58-.87 2.51-1.22 3.37-.12.27.22-2.86.1-2.6-.54 1.1-2.08 2.87-2.58 4.88-.39 1.56-1 2.46-1.25 4.48-.06.57-.06-2.34-.23-1.91-6.94 17.49-6.12 43-5.27 41.85 16.48-21.41 37.23-28.28 37.23-28.28-2.52-1.61-7.84-5.89-13.7-15.31z"/></g></g><path class="cls-3" d="M986.55 57.5c-94.76 0-171.86 67.67-171.86 150.85 0 40.08 17.71 77.83 49.87 106.29l.46.4-.17.58a191.7 191.7 0 0 1-36.7 69.51 6.44 6.44 0 0 0 2.17.27c13.59 0 62.39-18.48 100.93-34l.31-.13.32.09a194.16 194.16 0 0 0 54.66 7.81c94.77 0 171.88-67.68 171.88-150.87s-77.1-150.8-171.87-150.8z"/><path class="cls-18" d="M986.55 56.54c-95.44 0-172.82 68-172.82 151.81 0 41.74 19.18 79.56 50.2 107a189.83 189.83 0 0 1-37.13 69.91c3.61 6.39 63-16.1 104.83-32.93a195 195 0 0 0 54.93 7.85c95.45 0 172.84-68 172.84-151.84S1082 56.54 986.55 56.54zm51.71 91a22.85 22.85 0 1 1-22.87 22.86 22.85 22.85 0 0 1 22.86-22.83zm-104.29 0a22.85 22.85 0 1 1-22.88 22.83 22.87 22.87 0 0 1 22.88-22.8zm52.8 166.44h-1.38c-46.19 0-97.74-29.95-109.6-80.4 31.16 14.41 74.74 20.71 110.28 20.71s79.13-6.3 110.28-20.71C1084.5 284.06 1032.93 314 986.77 314z"/></svg>