<svg width="41" height="47" viewBox="0 0 41 47" xmlns="http://www.w3.org/2000/svg">
  <g fill="#0A84FF" fill-rule="evenodd">
    <path d="M20.26.164v4.252l16.605 2.602c0 17.66-.688 21.51-4.917 27.964-4.23 6.454-11.687 7.754-11.687 7.754V47l.7-.122c.376-.065 9.27-1.696 14.426-9.565 5.06-7.72 5.612-12.96 5.612-30.295v-.936c0-1.535-1.1-2.84-2.594-3.075L20.264.164z"/>
    <path d="M0 6.082v.936c0 17.334.558 22.574 5.682 30.295 5.222 7.87 14.228 9.5 14.61 9.565l.706.122v-4.264s-7.553-1.3-11.835-7.753C4.88 28.53 4.183 24.677 4.183 7.018l16.815-2.602V.166L2.626 3.006C1.116 3.24 0 4.546 0 6.082"/>
    <path d="M20 7L6 9.202c.05 15.185.738 18.582 4.44 24.255 3.014 4.617 8.103 6.18 9.56 6.543V7z"/>
  </g>
</svg>
