<svg width="45" height="45" viewBox="0 0 45 45" xmlns="http://www.w3.org/2000/svg">
  <path d="M22.52 10.005l3.028 5.967 1.28 2.52 2.782.477 6.47 1.104-4.71 5.14-1.826 1.988.408 2.672 1.037 6.783-5.884-3.125-2.648-1.407-2.64 1.42-5.715 3.07 1.035-6.738.413-2.688-1.847-1.995-4.738-5.112 6.584-1.108 2.856-.48 1.264-2.613 2.846-5.874.004-.005zM22.456 0c-1.026.138-1.886.847-2.22 1.828L14.62 13.42 2.607 15.445c-2.75.45-3.435 2.428-1.522 4.397l8.505 9.176-1.983 12.908C7.307 43.864 8.102 45 9.5 45c.64-.024 1.264-.2 1.824-.51l11.156-5.994 11.287 5.993c.56.31 1.185.484 1.825.51 1.395 0 2.188-1.137 1.893-3.077L35.51 29.016l8.405-9.167c1.913-1.97 1.23-3.958-1.522-4.407L30.558 13.42 24.676 1.83C24.343.848 23.484.138 22.46 0h-.004z" fill="#FFF" fill-rule="evenodd"/>
</svg>
