<svg width="50" height="47" viewBox="0 0 50 47" xmlns="http://www.w3.org/2000/svg">
  <path d="M12.515 31.277c-2.773.006-5.208 1.845-5.98 4.513 0 .03-.043.047-.052.078C5.35 39.425 4.277 42.48.98 43.932l-.073.038-.075.038c-.508.27-.828.796-.832 1.372 0 .866.7 1.568 1.564 1.568 5.442.378 10.828-1.3 15.097-4.702.02-.02.025-.04.044-.06 1.937-1.728 2.603-4.478 1.672-6.904-.93-2.426-3.264-4.02-5.86-4.005zM49.1.897c-1.14-1.137-2.967-1.2-4.185-.144l-25.127 21.94c-.64.56-1.02 1.36-1.05 2.21-.028.852.296 1.678.896 2.28l3.23 3.232c.575.575 1.355.898 2.168.9h.104c.85-.03 1.65-.41 2.21-1.05l21.9-25.17c1.06-1.22.998-3.054-.143-4.198z" fill="#0A84FF"/>
</svg>
