<svg width="50" height="50" viewBox="0 0 50 50" xmlns="http://www.w3.org/2000/svg">
  <path d="M39.844 28.125c-1.284-.025-2.32-1.06-2.344-2.344V15.63c0-1.726-1.4-3.125-3.125-3.125H24.22c-1.285-.024-2.32-1.06-2.345-2.343C21.875 7.814 25 7.724 25 4.69c0-2.7-2.813-4.686-6.25-4.686-3.438 0-6.25 1.984-6.25 4.688 0 3.034 3.125 3.125 3.125 5.468-.025 1.284-1.06 2.32-2.344 2.344H3.13C1.4 12.5 0 13.9 0 15.624v7.03C.025 23.94 1.06 24.974 2.344 25c2.344 0 2.434-3.125 5.47-3.125 2.702 0 4.686 2.813 4.686 6.25 0 3.438-1.984 6.25-4.688 6.25-3.034 0-3.125-3.125-5.468-3.125C1.06 31.275.024 32.31 0 33.594v13.28C0 48.602 1.4 50 3.125 50H13.28c1.285-.025 2.32-1.06 2.345-2.344 0-2.343-3.125-2.434-3.125-5.468 0-2.704 2.813-4.688 6.25-4.688 3.438 0 6.25 1.984 6.25 4.688 0 3.034-3.125 3.124-3.125 5.468.025 1.284 1.06 2.32 2.344 2.344h10.15c1.726 0 3.125-1.4 3.125-3.125V36.72c.024-1.285 1.06-2.32 2.343-2.345 2.344 0 2.435 3.125 5.47 3.125 2.704 0 4.69-2.813 4.69-6.25 0-3.438-1.986-6.25-4.69-6.25-3.034 0-3.124 3.125-5.468 3.125z" fill="#0A84FF"/>
</svg>
