<svg width="201" height="138" viewBox="0 0 201 138" xmlns="http://www.w3.org/2000/svg">
  <g fill="#FFF" fill-rule="evenodd">
    <path d="M150.95 25.027c.525-.815 1.338-1.377 2.287-1.58.256-.055.512-.082.764-.082 1.68 0 3.19 1.17 3.56 2.872.21.95.03 1.92-.5 2.736-.52.815-1.34 1.376-2.28 1.58-1.96.42-3.89-.83-4.31-2.79-.2-.95-.02-1.92.5-2.736M154 34c.484 0 .976-.05 1.47-.157 1.827-.392 3.392-1.473 4.406-3.043 1.015-1.57 1.358-3.442.966-5.27-.81-3.773-4.54-6.183-8.31-5.373-1.83.392-3.394 1.473-4.41 3.043-1.013 1.57-1.356 3.44-.964 5.27.705 3.28 3.614 5.53 6.84 5.53m-44.458 5H53.46c-.806 0-1.46.672-1.46 1.5s.654 1.5 1.46 1.5h56.08c.806 0 1.46-.672 1.46-1.5s-.654-1.5-1.46-1.5m0 12H53.46c-.806 0-1.46.672-1.46 1.5 0 .83.654 1.5 1.46 1.5h56.08c.806 0 1.46-.67 1.46-1.5 0-.828-.654-1.5-1.46-1.5m0 10H53.46c-.806 0-1.46.67-1.46 1.5s.654 1.5 1.46 1.5h56.08c.806 0 1.46-.67 1.46-1.5s-.654-1.5-1.46-1.5M89.563 72H69.436c-.794 0-1.437.67-1.437 1.5s.64 1.5 1.43 1.5h20.13c.79 0 1.43-.67 1.43-1.5s-.64-1.5-1.44-1.5m109.97-5h-14.06c-.81 0-1.47.67-1.47 1.5s.652 1.5 1.462 1.5h14.07c.81 0 1.46-.67 1.46-1.5s-.66-1.5-1.47-1.5"/>
    <path d="M80.152 89.723L35.8 59.263v-33.43h52.03c.79 0 1.43-.642 1.43-1.435 0-.794-.64-1.437-1.43-1.437H51.513l28.52-19.75 28.756 19.75h-9.4c-.79 0-1.43.65-1.43 1.44 0 .79.64 1.44 1.43 1.44h24.29v32.25c0 .06.01.12.01.17L80.15 89.73zm-17.096-7.575L17.04 112.414V49.896l46.64 32.03c-.217.026-.43.095-.624.222zM32.943 35.862v7.992H22.537l10.406-7.992zM18.207 47.18l.485-.373c.12-.022.24-.036.366-.036h13.885V57.3L18.207 47.18zm120.868-3.337h-12.538v-8.365l12.538 8.365zm-12.538 2.94h13.045l-13.045 9.425v-9.425zm45.094 36.87c.8 0 1.45-.65 1.45-1.45 0-.803-.64-1.454-1.44-1.454H146.8v-9.88h30.613c.8 0 1.445-.65 1.445-1.46 0-.8-.646-1.45-1.444-1.45H146.8V48.83c0-1.376-.56-2.623-1.463-3.526-.003-.467-.23-.924-.646-1.202l-18.15-12.11V24.4c0-.795-.64-1.438-1.43-1.438h-11.77c-.09-.306-.28-.585-.56-.78L80.85.252c-.497-.34-1.147-.336-1.64.004L46.7 22.766c-.084.06-.16.125-.227.197h-12.1c-.79 0-1.43.643-1.43 1.436v7.82c-.048.03-.097.05-.143.09L17.382 44.15c-1.89.698-3.244 2.527-3.244 4.675v76.91c0 2.743 2.207 4.975 4.92 4.975h19.97v-2.91H19.06c-1.112 0-2.018-.925-2.018-2.06v-10.135c.27 0 .543-.077.785-.237l46.813-30.79c.533-.35.753-.993.6-1.58l14.12 9.698c.246.17.53.253.815.253.297 0 .592-.1.844-.28l12.44-8.99c.11.23.28.45.51.6l15.89 10.45c.24.16.52.23.79.23.47 0 .93-.23 1.21-.66.43-.67.25-1.57-.42-2.01L95.78 82l47.654-34.43c.27.347.435.78.435 1.256v19.14h-5.76c-.8 0-1.45.65-1.45 1.45 0 .8.64 1.45 1.44 1.45h5.76v9.877h-17.89c-.8 0-1.45.65-1.45 1.452 0 .8.64 1.45 1.44 1.45h17.894v30.205l-22.59-14.86c-.668-.44-1.564-.25-2 .42-.438.673-.25 1.573.417 2.01l23.403 15.4c.24.158.505.234.77.237v8.683c0 1.13-.925 2.047-2.06 2.047H53.3v2.94h88.513c2.75 0 4.985-2.237 4.985-4.987v-19.72h6.628c.8 0 1.445-.65 1.445-1.453 0-.8-.64-1.452-1.44-1.452h-6.63v-6.68h24.84c.8 0 1.45-.65 1.45-1.453 0-.802-.64-1.452-1.44-1.452H146.8v-9.876h24.833zM187.48 80h-7.944c-.844 0-1.53.67-1.53 1.5s.686 1.5 1.53 1.5h7.944c.844 0 1.528-.67 1.528-1.5s-.682-1.5-1.526-1.5m-27.625 39.294c.05-.01.1-.017.152-.017.14 0 .27.04.39.117.16.104.27.266.31.455.08.38-.17.77-.56.85-.19.04-.39 0-.55-.1-.16-.11-.277-.27-.317-.46-.08-.39.167-.78.556-.86m-.935 2.38c.33.21.7.32 1.082.32.14 0 .28-.02.422-.05 1.08-.237 1.77-1.3 1.54-2.38-.11-.52-.42-.97-.87-1.26-.448-.29-.98-.387-1.505-.274-1.077.23-1.766 1.3-1.534 2.377.11.523.42.97.87 1.26M14.91 18.84c-.09-.423-.01-.858.225-1.222.236-.365.6-.616 1.024-.707.11-.02.23-.03.34-.03.31 0 .61.09.88.26.36.24.61.6.7 1.03.09.43.01.86-.23 1.23-.24.37-.6.62-1.03.71-.43.09-.86.01-1.23-.22-.365-.236-.616-.6-.707-1.024m2.54 4.05c1.177-.25 2.184-.945 2.836-1.954.652-1.01.872-2.21.62-3.385s-.947-2.18-1.956-2.833c-1.01-.65-2.21-.87-3.39-.62-1.176.25-2.18.95-2.835 1.958-.653 1.01-.873 2.212-.62 3.386.25 1.174.946 2.18 1.955 2.83.736.48 1.575.725 2.432.725.32 0 .64-.034.954-.102m143.52 110.56h-1.425v-1.426c0-.58-.46-1.04-1.035-1.04s-1.035.46-1.035 1.034v1.422h-1.43c-.577 0-1.04.463-1.04 1.036s.463 1.037 1.04 1.037h1.42v1.426c0 .57.467 1.04 1.04 1.04s1.036-.467 1.036-1.04v-1.428h1.427c.573 0 1.037-.466 1.037-1.04s-.467-1.04-1.04-1.04m-155-103H4.53v-1.42c0-.575-.462-1.04-1.035-1.04s-1.038.465-1.038 1.04v1.425h-1.42C.464 30.46 0 30.925 0 31.5s.464 1.037 1.037 1.037h1.426v1.426c0 .573.464 1.037 1.037 1.037s1.037-.464 1.037-1.037v-1.426h1.426C6.536 32.537 7 32.073 7 31.5s-.464-1.037-1.037-1.037M160 40c0 .387.314.7.7.7h1.6v1.6c0 .387.313.7.7.7.386 0 .7-.313.7-.7v-1.6h1.6c.386 0 .7-.313.7-.7 0-.387-.314-.7-.7-.7h-1.6v-1.6c0-.387-.314-.7-.7-.7-.387 0-.7.313-.7.7v1.6h-1.6c-.386 0-.7.313-.7.7"/>
  </g>
</svg>
