<svg data-name="Layer 1" xmlns="http://www.w3.org/2000/svg" viewBox="0 0 1332.98 1300.05">
  <path d="M873.08 1299.35L713.56 860.61c9.7-2.89 19.42-5 28.54-8.63 32.16-12.78 57.83-34.34 80.1-60.41 22.73-26.61 36.84-57.25 41.85-91.7 7.65-52.62-1.44-102.22-31.22-146.78-28-41.84-67.09-68.57-116-80.67-43.8-10.83-86.88-8-128.6 8.94-45.42 18.47-79.23 50-101.08 94-16.5 33.3-22.76 68.65-20.49 105.49 2.11 34.17 12.81 65.33 34.37 92.38 32.11 40.27 71.18 70.6 121.28 85.26 1.1.32 2.14.84 3.78 1.5l-160 440.05c-16.47-6-32.84-11.25-48.72-17.75-52.49-21.48-102.4-47.58-147.77-82Q139.76 1101.7 67.51 955.76a659.45 659.45 0 0 1-56.37-169.48 658.76 658.76 0 0 1 17.72-313.56 664.71 664.71 0 0 1 82-173.24 674.62 674.62 0 0 1 237.05-218 654 654 0 0 1 147.48-59.13 691.5 691.5 0 0 1 88.86-17.23A632 632 0 0 1 692.41.59c23.39 1 46.78 3.47 70 6.59 55 7.39 108.06 22.57 159.29 44a664.22 664.22 0 0 1 134.84 75.9 672.8 672.8 0 0 1 236.2 312.27 658.75 658.75 0 0 1 32.46 126.05 640.26 640.26 0 0 1 7 130c-6.79 140.12-51.9 266.53-137.5 378-52.87 68.85-117.51 124.35-192.73 167.85a720.3 720.3 0 0 1-128.89 58.1zm73.14-179.67c197.42-118.7 295.87-355.17 236.57-586.63-60.74-237.14-289.93-424.23-569.17-397.4-115.6 11.1-217.12 56.62-303.23 134.53-100.82 91.31-159.79 205.17-174.35 340.51-12.16 113.1 9.64 220.12 65.89 319.4 44.81 79.09 106.67 141.86 184.53 189.84l12.38-32.58q29.69-78.18 59.44-156.32c1.34-3.52 1-5.51-2.18-7.86-6-4.45-11.72-9.34-17.31-14.33a307.77 307.77 0 0 1-88.1-134c-14.36-42.91-19.57-87-16.51-132.22a332.26 332.26 0 0 1 19.55-93.27c24.14-65.3 64.79-118.07 122.1-157.68 52.91-36.57 112-55.44 176-58 19.53-.79 39.26.87 58.77 2.74 30.79 2.94 60.28 11.39 88.64 23.6q104.07 44.82 159.15 143.93c25.54 46 38.82 95.61 40.69 148 .71 19.87-1 39.91-2.79 59.77-2.12 23.9-8.26 47.05-16.42 69.58Q949 866.5 877.55 922.4c-3.91 3-4.28 5.33-2.56 9.82 17.4 45.24 34.4 90.59 51.61 135.89 6.45 17.04 12.97 34.05 19.63 51.52z"/>
</svg>
