<svg width="124" height="38" viewBox="0 0 124 38" xmlns="http://www.w3.org/2000/svg">
  <g fill="none" fill-rule="evenodd">
    <path d="M119.167 35H4.833C3.82 35 3 34.186 3 33.18V4.82C3 3.813 3.82 3 4.833 3h114.334C120.18 3 121 3.814 121 4.82v28.36c0 1.006-.82 1.82-1.833 1.82z" stroke="#FFF" stroke-width="5" stroke-linecap="round" stroke-linejoin="round"/>
    <path fill="#FFF" d="M16.792 24l.45-3.71-2.97 2.32-1.22-2.092 3.342-1.57L13 17.483l1.22-2.092 3.01 2.21-.44-3.6h2.416l-.36 3.547 2.93-2.207L23 17.43l-3.393 1.52L23 20.57l-1.22 2.08-2.932-2.285.36 3.635m9.584 0l.45-3.71-2.97 2.32-1.22-2.092 3.342-1.57L25 17.483l1.22-2.092 3.01 2.21-.44-3.6h2.417l-.362 3.547 2.93-2.207L35 17.43l-3.393 1.52L35 20.57l-1.22 2.08-2.932-2.285.36 3.635m10.584 0l.45-3.71-2.97 2.32-1.22-2.092 3.34-1.57L38 17.483l1.22-2.092 3.01 2.21-.44-3.6h2.416l-.36 3.547 2.93-2.207L48 17.43l-3.394 1.52L48 20.57l-1.22 2.08-2.932-2.285.36 3.635m10.584 0l.45-3.71-2.97 2.32-1.22-2.092 3.34-1.57L51 17.483l1.22-2.092 3.01 2.21-.44-3.6h2.416l-.36 3.547 2.93-2.207L61 17.43l-3.394 1.52L61 20.57l-1.22 2.08-2.932-2.285.36 3.635m9.584 0l.45-3.71-2.97 2.32-1.22-2.092 3.342-1.57L63 17.483l1.22-2.092 3.01 2.21-.44-3.6h2.416l-.36 3.547 2.93-2.207L73 17.43l-3.393 1.52L73 20.57l-1.22 2.08-2.932-2.285.36 3.635m10.584 0l.45-3.71-2.97 2.32-1.22-2.092 3.342-1.57L76 17.483l1.22-2.092 3.01 2.21-.44-3.6h2.416l-.36 3.547 2.93-2.207L86 17.43l-3.393 1.52L86 20.57l-1.22 2.08-2.932-2.285.36 3.635m9.584 0l.45-3.71-2.97 2.32-1.22-2.092 3.342-1.57L88 17.483l1.22-2.092 3.01 2.21-.44-3.6h2.417l-.362 3.547 2.93-2.207L98 17.43l-3.393 1.52L98 20.57l-1.22 2.08-2.932-2.285.36 3.635m10.584 0l.45-3.71-2.97 2.32-1.22-2.092 3.34-1.57L101 17.483l1.22-2.092 3.01 2.21-.44-3.6h2.416l-.36 3.548 2.93-2.207L111 17.43l-3.394 1.52L111 20.57l-1.22 2.08-2.932-2.285.36 3.635"/>
  </g>
</svg>
