<svg width="35" height="42" viewBox="0 0 35 42" xmlns="http://www.w3.org/2000/svg" xmlns:xlink="http://www.w3.org/1999/xlink">
  <defs>
    <path id="a" d="M0 42V0h34.997v42z"/>
  </defs>
  <g fill="none" fill-rule="evenodd">
    <path d="M17.872 1.474C12.368 4.534 6.862 6.23 1.49 6.564v17.58c0 11.905 16.382 17.12 16.382 17.12s16.383-5.215 16.383-17.12V6.564c-5.374-.334-10.878-2.03-16.383-5.09" fill="#0C0C0D"/>
    <mask id="b" fill="#fff">
      <use xlink:href="#a"/>
    </mask>
    <path d="M22.23 17.393c0-2.577-2.12-4.667-4.73-4.667-2.613 0-4.73 2.09-4.73 4.667 0 1.828 1.065 3.41 2.616 4.175-.373 2.653-.94 5.306-1.198 7.958h6.622c-.256-2.652-.824-5.305-1.198-7.958 1.55-.766 2.617-2.347 2.617-4.175" fill="#FFF" mask="url(#b)"/>
    <path d="M33.106 23.8c0 4.643-2.634 8.796-7.83 12.343-3.365 2.296-6.78 3.586-7.777 3.937-1-.35-4.38-1.626-7.74-3.912-5.22-3.553-7.87-7.714-7.87-12.368V6.932c5.16-.456 10.4-2.112 15.61-4.93 5.2 2.818 10.44 4.474 15.6 4.93V23.8zM34.11 5.135C28.8 4.807 23.37 3.12 17.964.12c-.288-.16-.64-.16-.928 0-5.406 3-10.84 4.687-16.15 5.015-.5.03-.886.44-.886.932V23.8c0 2.934.928 5.727 2.758 8.3 1.438 2.02 3.432 3.906 5.927 5.604 4.205 2.86 8.35 4.196 8.524 4.25.09.03.19.046.29.046.09 0 .19-.015.29-.045.17-.055 4.31-1.39 8.52-4.25 2.49-1.7 4.49-3.584 5.93-5.605 1.83-2.573 2.75-5.366 2.75-8.3V6.067c0-.493-.39-.9-.89-.932z" fill="#0C0C0D" mask="url(#b)"/>
    <path d="M18.658 21.562c.142 1.018.316 2.047.483 3.042.21 1.238.43 2.508.58 3.765h-4.44c.16-1.26.37-2.53.58-3.77.17-1 .34-2.03.49-3.04.06-.39-.15-.78-.5-.95-1.27-.63-2.06-1.9-2.06-3.3 0-2.03 1.67-3.69 3.728-3.69s3.724 1.65 3.724 3.68c0 1.404-.79 2.667-2.06 3.296-.357.18-.56.56-.505.95zm2.32 2.74c-.132-.783-.267-1.586-.387-2.383 1.56-1.02 2.5-2.73 2.5-4.61 0-3.05-2.5-5.53-5.58-5.53s-5.58 2.48-5.58 5.52c0 1.874.94 3.583 2.498 4.6-.12.796-.256 1.6-.39 2.38-.27 1.602-.55 3.26-.706 4.902-.025.26.06.513.238.705.18.19.43.3.69.3h6.517c.264 0 .514-.11.69-.3.177-.194.26-.45.24-.71-.16-1.643-.44-3.3-.71-4.9z" fill="#0C0C0D"/>
    <path d="M17.068 4.524C12.905 6.62 8.684 8.017 4.522 8.678c-.46.074-.8.465-.8.925V24.05c0 3.976 2.336 7.6 6.942 10.772 2.538 1.748 5.15 2.897 6.48 3.426.115.045.235.068.356.068.12 0 .24-.023.355-.068.7-.278 1.793-.743 3.034-1.38.46-.238.64-.803.4-1.262-.25-.46-.82-.638-1.28-.4-.98.504-1.87.893-2.51 1.16-1.33-.548-3.58-1.58-5.75-3.08-4.07-2.8-6.13-5.908-6.13-9.235V10.4c3.95-.71 7.94-2.05 11.87-3.985C21.42 8.35 25.41 9.69 29.37 10.4v13.66c0 2.464-1.14 4.824-3.386 7.012-.375.363-.378.955-.01 1.323.37.368.97.37 1.344.008 2.62-2.55 3.95-5.36 3.95-8.343V9.603c0-.46-.34-.85-.8-.924-4.16-.66-8.38-2.06-12.545-4.16-.27-.14-.59-.14-.86 0" fill="#FFF"/>
  </g>
</svg>
