<svg width="60" height="30" viewBox="0 0 60 30" xmlns="http://www.w3.org/2000/svg">
  <path d="M46.53 30c-6.237 0-10.55-7.5-16.53-7.5S19.335 30 13.47 30C5.777 30 .096 22.71 0 10.23-.054 2.474 2.25.003 12.245.003S25.16 4.09 30 4.09 37.766 0 47.756 0 60.056 2.475 60 10.225C59.904 22.71 54.223 30 46.53 30zM17.144 9.546c-6.07.263-8.572 3.88-8.572 4.773 0 .89 4.024 3.406 7.957 3.406S25.1 16.286 25.1 15c-.83-3.61-4.29-5.982-7.958-5.455zm25.713 0c-3.67-.53-7.13 1.843-7.96 5.456 0 1.286 4.634 2.726 8.572 2.726 3.935 0 7.955-2.516 7.955-3.41 0-.89-2.5-4.51-8.572-4.772h.003z" fill="#0A84FF"/>
</svg>
