<svg width="45" height="45" viewBox="0 0 45 45" xmlns="http://www.w3.org/2000/svg">
  <path d="M44.172 12.14c1.105 1.11 1.104 2.905-.003 4.012L32.83 27.497c-.71.737-1.765 1.033-2.756.773-.99-.26-1.765-1.034-2.024-2.026-.26-.99.036-2.046.772-2.758l6.498-6.503h-4.49c-7.822.01-14.16 6.353-14.17 14.18C16.667 32.73 15.4 34 13.832 34 12.27 34 11 32.73 11 31.164c.012-10.96 8.885-19.84 19.835-19.854h4.49L28.83 4.807c-1.072-1.113-1.056-2.882.037-3.976C29.96-.26 31.727-.28 32.84.8l11.33 11.34zm-7.958 18.63c1.54 0 2.786 1.273 2.786 2.845v2.847C39 41.177 35.258 45 30.643 45H8.357C3.742 45 0 41.177 0 36.462V16.538C0 11.823 3.742 8 8.357 8h2.786c1.538 0 2.786 1.274 2.786 2.846s-1.25 2.846-2.79 2.846H8.356c-1.538 0-2.786 1.275-2.786 2.846v19.924c0 1.57 1.25 2.846 2.79 2.846h22.286c1.538 0 2.786-1.275 2.786-2.846v-2.847c0-1.572 1.247-2.846 2.785-2.846z" fill="#FFF"/>
</svg>
