<svg width="45" height="45" viewBox="0 0 45 45" xmlns="http://www.w3.org/2000/svg">
  <path d="M41.814 0c-1.76 0-3.187 1.43-3.187 3.196v3.662C33.035.994 24.7-1.344 16.885.76c-7.813 2.104-13.86 8.315-15.77 16.2-.307 1.117.015 2.314.84 3.126.825.81 2.024 1.11 3.133.783 1.11-.33 1.953-1.235 2.207-2.366 1.746-7.108 8.1-12.106 15.4-12.114 4.988-.007 9.68 2.366 12.64 6.39H29.07c-1.76 0-3.186 1.43-3.186 3.197 0 1.765 1.426 3.196 3.186 3.196h12.746c1.76 0 3.186-1.43 3.186-3.196V3.197C45 1.43 43.572 0 41.814 0zm-.227 24.096c-.82-.207-1.69-.077-2.414.36-.725.44-1.248 1.15-1.453 1.974-1.747 7.133-8.103 12.148-15.406 12.156-4.99.008-9.685-2.373-12.646-6.413h6.27c1.76 0 3.188-1.435 3.188-3.206 0-1.77-1.427-3.207-3.187-3.207H3.185C1.426 25.76 0 27.196 0 28.967v12.826C0 43.563 1.427 45 3.188 45c1.76 0 3.187-1.436 3.187-3.207v-3.675c5.594 5.884 13.934 8.23 21.75 6.12 7.818-2.112 13.868-8.344 15.78-16.256.425-1.716-.612-3.456-2.318-3.886z" fill="#0A84FF"/>
</svg>
