<svg xmlns="http://www.w3.org/2000/svg" width="480" height="222" fill="none" viewBox="0 0 480 222"><rect width="376.329" height="172" x="52.316" y="40" stroke="#0090ED" stroke-dasharray="11.79 11.79" stroke-width="5.238" rx="3.143"/><path fill="#333" d="M461.602 7.374c0-.623.316-1.192.842-1.522l3.183-1.988c.287-.178.615-.273.954-.273h4.717V0h-4.717a5.4 5.4 0 0 0-2.856.819l-3.183 1.99c-.273.17-.502.388-.735.601-.236-.213-.463-.43-.736-.6L455.886.819A5.398 5.398 0 0 0 453.033 0h-4.717v3.591h4.717c.336 0 .666.095.954.273l3.183 1.988c.528.33.844.899.844 1.522v29.061c0 .624-.316 1.192-.844 1.523l-3.186 1.988a1.806 1.806 0 0 1-.954.273h-4.714v3.59h4.717a5.397 5.397 0 0 0 2.855-.818l3.183-1.988c.276-.172.503-.39.736-.6.233.21.462.428.735.6l3.186 1.99a5.4 5.4 0 0 0 2.856.82h4.714v-3.591h-4.717c-.336 0-.667-.095-.954-.273l-3.183-1.988c-.529-.33-.842-.9-.842-1.523V7.375ZM136.523 176.118v-32.069h8.373v32.069h-8.373Zm-1.069-41.096c0-3.088 2.197-5.345 5.226-5.345 3.147 0 5.285 2.257 5.285 5.345 0 3.028-2.138 5.226-5.285 5.226-3.088 0-5.226-2.198-5.226-5.226Zm14.89 41.096v-32.069h8.196v4.038c2.078-2.91 5.404-4.692 9.383-4.692 7.602 0 12.412 4.989 12.412 13.363v19.36h-8.374v-18.113c0-4.573-2.197-7.424-6.532-7.424-3.861 0-6.83 2.851-6.83 7.84v17.697h-8.255Zm48.651 0v-43.353h27.912v7.958h-19.479v10.036h19.479v7.84h-19.479v17.519h-8.433Zm33.004 0v-32.069h8.374v32.069h-8.374Zm-1.069-41.096c0-3.088 2.197-5.345 5.226-5.345 3.148 0 5.286 2.257 5.286 5.345 0 3.028-2.138 5.226-5.286 5.226-3.088 0-5.226-2.198-5.226-5.226Zm14.89 41.096v-32.069h8.077v4.929c1.544-3.801 4.751-5.523 8.849-5.523 2.138 0 4.038.534 5.404 1.247l-2.969 8.077c-.891-.654-2.435-1.129-4.276-1.129-4.217 0-6.948 2.138-6.948 7.543v16.925h-8.137Zm38.786.653c-10.333 0-16.985-7.304-16.985-16.628s7.246-16.748 16.807-16.748c9.621 0 16.569 6.949 16.569 16.451v3.088H275.52c1.069 4.157 4.454 6.77 9.205 6.77 3.801 0 6.355-1.663 7.958-4.276l6.711 3.92c-3.207 4.513-7.72 7.423-14.788 7.423Zm-.178-26.427c-4.157 0-7.364 2.435-8.67 6.176h17.103c-1.069-3.979-4.157-6.176-8.433-6.176Zm17.82 1.069v-7.364h5.286v-1.129c0-10.393 3.266-13.6 13.718-13.6h2.138v7.483h-1.366c-5.701 0-6.354.832-6.354 5.702v1.544h7.72v7.364h-7.72v24.705h-8.136v-24.705h-5.286Zm38.882 25.358c-9.621 0-16.926-7.482-16.926-16.688 0-9.264 7.305-16.688 16.926-16.688 9.561 0 16.985 7.424 16.985 16.688 0 9.206-7.305 16.688-16.985 16.688Zm.059-7.779c4.87 0 8.789-3.979 8.789-8.968s-3.919-8.968-8.789-8.968c-4.929 0-8.789 3.979-8.789 8.968s3.86 8.968 8.789 8.968Zm16.116 7.126 11.996-16.45-11.343-15.619h9.739l6.711 9.502 6.771-9.502h9.62l-11.402 15.678 12.234 16.391h-9.918l-7.364-10.036-7.186 10.036h-9.858ZM79.117 117V73.647h29.159v7.898H87.49v9.74h20.786v7.899H87.49v9.858h20.786V117h-29.16Zm48.769.653c-7.899 0-15.441-6.473-15.441-16.688s7.364-16.688 15.56-16.688c4.216 0 7.72 1.782 9.917 4.751V70.143h8.077V117h-8.077v-4.395c-2.256 3.148-5.879 5.048-10.036 5.048Zm1.603-7.72c5.048 0 8.909-4.039 8.909-9.027 0-4.989-3.861-9.027-8.909-9.027-4.929 0-8.908 3.979-8.908 9.027 0 5.048 3.979 9.027 8.908 9.027ZM151.344 117V84.93h8.374V117h-8.374Zm-1.069-41.097c0-3.088 2.198-5.344 5.226-5.344 3.148 0 5.286 2.256 5.286 5.344 0 3.03-2.138 5.227-5.286 5.227-3.088 0-5.226-2.198-5.226-5.227Zm12.935 16.273V84.93h5.939v-6.948l8.076-4.75V84.93h8.434v7.246h-8.434v13.184c0 3.385 1.426 4.573 3.504 4.573 1.129 0 2.02-.356 2.97-1.188l3.741 6.414c-2.078 1.544-4.691 2.435-7.661 2.435-6.711 0-10.63-3.207-10.63-11.937V92.176h-5.939ZM203.435 117V73.647h17.104c9.74 0 16.272 7.008 16.272 15.738 0 8.61-6.532 15.797-16.331 15.797h-8.612V117h-8.433Zm16.569-35.692h-8.136v16.094h8.136c4.989 0 8.315-3.385 8.315-8.017 0-4.692-3.326-8.077-8.315-8.077ZM242.369 117V73.647h14.015c13.778 0 22.627 9.383 22.627 21.676 0 12.353-9.502 21.677-22.448 21.677h-14.194Zm13.421-35.573h-4.988v27.734h5.226c8.789 0 14.491-6.058 14.491-13.838 0-7.958-5.226-13.896-14.729-13.896ZM284.434 117V73.647h27.912v7.958h-19.479V91.64h19.479v7.84h-19.479V117h-8.433Zm45.541.653c-7.602 0-12.412-2.85-14.966-7.958l7.898-3.088c1.426 2.851 3.979 4.335 7.365 4.335 3.325 0 5.107-1.603 5.107-3.503 0-2.317-3.445-2.851-7.542-3.683-5.405-1.128-11.403-2.791-11.403-9.561 0-5.404 5.226-10.096 13.125-10.037 6.77 0 10.809 2.554 13.778 6.83l-7.483 3.029c-1.306-2.138-3.326-3.385-6.295-3.385-3.207 0-4.751 1.306-4.751 3.088 0 2.02 2.613 2.554 7.305 3.563 5.345 1.07 11.64 2.91 11.64 9.799 0 4.989-4.454 10.631-13.778 10.571Z"/><g fill="#333" clip-path="url(#a)"><path d="M85.06 172.555c.323 0 .647-.057.965-.166l9.264-3.217 18.887-19.643c1.97-2.052 1.97-5.392 0-7.444l-2.86-2.975a4.935 4.935 0 0 0-7.157 0l-18.886 19.646-3.09 9.644a3.229 3.229 0 0 0 .734 3.228 2.972 2.972 0 0 0 2.142.927Zm21.485-30.961a1.637 1.637 0 0 1 2.382 0l2.864 2.978a1.803 1.803 0 0 1 0 2.479l-2.874 2.992-5.249-5.459 2.877-2.99Zm-18.326 19.059 13.061-13.585 5.246 5.456-13.06 13.589-7.872 2.731 2.625-8.191ZM118.299 174.49l-4.841 1.538a11.363 11.363 0 0 1-5.767.298l-5.618-1.171a14.758 14.758 0 0 0-9.766 1.362c-3.324 1.729-7.334 1.055-9.965-1.684l-.138-.143-2.248 2.627c2.307 2.397 5.376 3.66 8.487 3.66a11.58 11.58 0 0 0 5.373-1.325 11.451 11.451 0 0 1 7.596-1.055l5.618 1.17c2.456.511 5.019.374 7.413-.387l4.841-1.538-.985-3.352Z"/></g><path stroke="#333" stroke-width="1.06" d="M401.846 126.118v58.326"/><defs><clipPath id="a"><path fill="#fff" d="M78.316 137.118h43.176v44.911H78.316z"/></clipPath></defs></svg>
