<svg xmlns="http://www.w3.org/2000/svg" viewBox="0 0 600 100" enable-background="new 0 0 600 100"><g fill-rule="evenodd" clip-rule="evenodd"><path fill="#00A9DC" d="M51.6 0C23.1 0 0 20.3 0 45.3c0 12.5 5.7 23.8 15 32-1.6 5.7-4.8 13.4-11.1 20.9 1.1 1.9 18.8-4.8 31.3-9.8 5.2 1.5 10.7 2.3 16.4 2.3 28.5 0 51.6-20.3 51.6-45.3C103.2 20.3 80.1 0 51.6 0zM67 27.2c3.8 0 6.8 3.1 6.8 6.8 0 3.8-3.1 6.8-6.8 6.8-3.8 0-6.8-3.1-6.8-6.8 0-3.8 3.1-6.8 6.8-6.8zm-31.1 0c3.8 0 6.8 3.1 6.8 6.8 0 3.8-3.1 6.8-6.8 6.8-3.8 0-6.8-3.1-6.8-6.8 0-3.8 3-6.8 6.8-6.8zm15.8 49.7h-.4c-13.8 0-29.2-8.9-32.7-24 9.3 4.3 22.3 6.2 32.9 6.2 10.6 0 23.6-1.9 32.9-6.2-3.5 15-18.9 24-32.7 24z"/><path fill="#fff" d="M67 27.2c3.8 0 6.8 3.1 6.8 6.8 0 3.8-3.1 6.8-6.8 6.8-3.8 0-6.8-3.1-6.8-6.8 0-3.8 3.1-6.8 6.8-6.8zM35.9 27.2c3.8 0 6.8 3.1 6.8 6.8 0 3.8-3.1 6.8-6.8 6.8-3.8 0-6.8-3.1-6.8-6.8 0-3.8 3-6.8 6.8-6.8zM51.7 76.9h-.4c-13.8 0-29.2-8.9-32.7-24 9.3 4.3 22.3 6.2 32.9 6.2 10.6 0 23.6-1.9 32.9-6.2-3.5 15-18.9 24-32.7 24z"/></g><path fill="#5D5F64" d="M395.9 39.5c-.2.4-.5.8-.8 1.2-.3.3-.7.6-1.2.8-.5.2-.9.3-1.4.3-.5 0-1-.1-1.4-.3-.5-.2-.8-.4-1.2-.8-.3-.3-.6-.7-.8-1.2-.2-.4-.3-.9-.3-1.4 0-.5.1-1 .3-1.4.2-.4.4-.8.8-1.2.3-.3.7-.6 1.2-.8.4-.2.9-.3 1.4-.3.5 0 1 .1 1.4.3.4.2.8.4 1.2.8.3.3.6.7.8 1.2.2.5.3.9.3 1.4 0 .5-.1 1-.3 1.4zm-.6-2.6c-.2-.4-.4-.7-.6-1-.2-.3-.6-.5-.9-.7-.4-.2-.7-.2-1.1-.2-.4 0-.8.1-1.1.2-.4.2-.7.4-.9.7-.3.3-.5.6-.6 1-.2.4-.2.8-.2 1.2 0 .4.1.8.2 1.2.2.4.4.7.6 1 .3.3.6.5.9.7.3.2.7.2 1.1.2.4 0 .8-.1 1.1-.2.4-.2.7-.4.9-.7.3-.3.5-.6.6-1 .1-.4.2-.8.2-1.2 0-.5-.1-.9-.2-1.2zm-2.3 2.6c-.1-.3-.3-.5-.4-.6-.1-.1-.2-.3-.3-.4l-.1-.1h-.2v1.8h-.7V36h1.3c.2 0 .4 0 .6.1.2.1.3.1.4.2.1.1.2.2.2.4 0 .1.1.3.1.5 0 .3-.1.6-.3.8-.2.2-.4.3-.8.3l.1.1.2.2c.1.1.1.2.2.2.1.1.1.2.2.3l.6 1h-.8l-.3-.6zm.1-2.8c-.1-.1-.3-.2-.6-.2h-.5v1.3h.8c.1 0 .2-.1.2-.1.1-.1.2-.3.2-.5s0-.4-.1-.5zM168.2 25.1h-24v19h19.5v9.4h-19.5v32.1h-11.6v-70h37.1l-1.5 9.5zM174.2 19.5c0-4.1 3.2-7.5 7.4-7.5 3.9 0 7.3 3.2 7.3 7.5 0 4.1-3.3 7.4-7.5 7.4-4 0-7.2-3.4-7.2-7.4zm1.6 66.2V35.3l11.2-2v52.4h-11.2zM221.7 44.2c-1.1-.4-1.9-.7-3.1-.7-4.7 0-8.6 3.4-9.6 7.6v34.6h-11.1V49.5c0-6.5-.7-10.6-1.8-13.8l10.2-2.6c1.2 2.3 1.9 5.3 1.9 8.1 4-5.6 8.1-8.2 13.1-8.2 1.6 0 2.6.2 3.9.8l-3.5 10.4zM235.8 63.1v.8c0 7.1 2.6 14.6 12.7 14.6 4.8 0 8.9-1.7 12.7-5.1l4.4 6.8c-5.4 4.6-11.5 6.8-18.4 6.8-14.5 0-23.6-10.4-23.6-26.8 0-9 1.9-15 6.4-20 4.2-4.8 9.2-6.9 15.7-6.9 5.1 0 9.7 1.3 14.1 5.3 4.5 4 6.7 10.3 6.7 22.3v2.3h-30.7zm9.8-21.5c-6.3 0-9.7 5-9.7 13.3h18.9c0-8.3-3.6-13.3-9.2-13.3zM298.1 21.3c-2.5-1.2-4-1.8-6.2-1.8-3.8 0-6.3 2.6-6.3 7.2v7.8H299l-2.8 7.7h-10.4v43.5h-11V42.2H270v-7.7h5s-.3-2.8-.3-7.6c0-10.6 6.5-15.6 15.6-15.6 4.4 0 8 .9 11.5 2.9l-3.7 7.1zM342.7 60.3c0 16.5-8.8 26.7-22.7 26.7-13.9 0-22.6-10.4-22.6-26.8s8.8-26.9 22.4-26.9c14.6-.1 22.9 10.8 22.9 27zm-32.9-.8c0 14.9 3.7 19.2 10.4 19.2 6.6 0 10.2-5.4 10.2-18.2 0-14.5-4-18.8-10.5-18.8-7.1-.1-10.1 5.3-10.1 17.8zM376.1 85.7c-1.8-2.9-10.1-17.3-11.1-19.1-1.9 3.8-9.2 16.3-11.1 19.1h-14.1l19-27.8L344 36l12-2.4c2.3 3.8 6.9 11.8 9.3 16.6 1.4-3.3 6.6-13.6 8.1-15.7h13l-15.1 23.3L390 85.7h-13.9z"/><g fill="#5D5F64"><path d="M413.1 15.8h8.2v29.3h29.5V15.8h8.4v70.1h-8.4V52h-29.5v33.9h-8.2V15.8zM504 75.6l3.1 5.1c-4.5 4.1-10.6 6.3-17.2 6.3-14.1 0-22.6-10.2-22.6-27.1 0-8.6 1.8-14.1 6.1-19.2 4.1-4.8 9.1-7.1 15.2-7.1 5.5 0 10.3 1.9 13.8 5.5 4.4 4.5 5.6 9.3 5.8 21.5v1.1h-31.8V63c0 4.8.6 8.5 2.3 11.1 2.9 4.4 7.6 6.2 12.7 6.2 5 .1 9-1.5 12.6-4.7zm-27.5-19.9h23.3c-.1-5.5-.8-8.9-2.3-11.3-1.7-2.8-5.3-4.5-9.2-4.5-7.3 0-11.4 5.3-11.8 15.8zM526 75.7c0 4 .6 5.1 2.9 5.1.3 0 1-.2 1-.2l1.6 5.2c-2 .9-3 1.1-5.1 1.1-2.5 0-4.5-.7-6-2.1-1.6-1.4-2.5-3.6-2.5-7.3v-54c0-6.6-1.2-10.4-1.2-10.4l8-1.5s1.3 4.3 1.3 12.1v52zM546.4 75.7c0 4 .6 5.1 2.9 5.1.3 0 1-.2 1-.2l1.6 5.2c-2 .9-3 1.1-5.1 1.1-2.5 0-4.5-.7-6-2.1-1.6-1.4-2.5-3.6-2.5-7.3v-54c0-6.6-1.2-10.4-1.2-10.4l8-1.5s1.3 4.3 1.3 12.1v52zM577.8 33.5c8.5 0 14 3.9 17.5 8.9C598.5 47 600 53 600 61.3c0 17-9.1 26-21.9 26-14 0-22-10.3-22-27.1 0-16.6 8.3-26.7 21.7-26.7zm-.1 6.5c-4.5 0-8.7 2.1-10.4 5.5-1.6 3.2-2.5 7.3-2.5 13.3 0 7.2 1.2 13.5 3.2 16.7 1.8 3.1 5.9 5.1 10.3 5.1 5.3 0 9.3-2.8 11-7.7 1.1-3.2 1.5-6 1.5-11 0-7.2-.7-12-2.4-15.3-2-4.6-6.5-6.6-10.7-6.6z"/></g></svg>