<svg xmlns="http://www.w3.org/2000/svg" xmlns:xlink="http://www.w3.org/1999/xlink" viewBox="0 0 16 16" enable-background="new 0 0 16 16"><g enable-background="new"><defs><path id="a" d="M-563-349h22v22h-22z"/></defs><clipPath id="b"><use xlink:href="#a" overflow="visible"/></clipPath><g clip-path="url(#b)"><defs><path id="c" d="M-1198-648h2545V632h-2545z"/></defs><clipPath><use xlink:href="#c" overflow="visible"/></clipPath></g><g clip-path="url(#b)"><defs><path id="d" d="M-1198-648h2545V632h-2545z"/></defs><clipPath><use xlink:href="#d" overflow="visible"/></clipPath></g></g><path fill-rule="evenodd" clip-rule="evenodd" fill="#4b4c51" d="M12.2 3.915v-.4C12.2 2.678 11.55 2 10.746 2H2.452C1.65 2 1 2.678 1 3.515v6.242c0 .837.65 1.515 1.452 1.515h.514v-5.84c0-.838.65-1.516 1.452-1.516h7.78zm1.348.812H5.253c-.802 0-1.452.678-1.452 1.515v6.242C3.8 13.32 4.45 14 5.254 14h8.294C14.35 14 15 13.32 15 12.484V6.242c0-.836-.65-1.515-1.452-1.515z"/></svg>
