<svg xmlns="http://www.w3.org/2000/svg" width="16px" height="16px" viewBox="0 0 80.1 114.2" style="enable-background:new 0 0 80.1 114.2" xml:space="preserve"><path d="M480.6 694.4H0c0-66.9 53.6-120.8 120.2-120.8h360.4c66.4 0 119.9 54.2 119.9 120.8v496.8c0 2.3-2 4.5-4.2 4.5H484.9c-2.3 0-4.2-2-4.2-4.5V694.4zm0 725.9c66.4 0 119.9-54.2 119.9-121.1H119.9V802.4c0-2.3-2-4.5-4.5-4.5H4c-2.3 0-4.5 2-4.5 4.5v496.8c0 66.9 53.6 121.1 120.2 121.1h360.9" style="fill-rule:evenodd;clip-rule:evenodd" transform="matrix(.13333 0 0 -.13333 0 190.667)"/></svg>
