<svg xmlns="http://www.w3.org/2000/svg" xml:space="preserve" width="290" height="80" viewBox="0 0 290 80">
  <style>
    .st1{fill:#9f2600}
  </style>
  <path id="Path" fill="#f2deff" d="M0 0h129.6v80H0V0z"/>
  <path id="path1" d="M36.1 40H0V0l36.1 40z" class="st1"/>
  <path id="path2" d="M72.1 40h-36V0l36 40z" class="st1"/>
  <path id="path3" d="M72.1 80H36V40l36.1 40z" class="st1"/>
  <path id="path4" d="M108.2 80H72.1V40l36.1 40z" class="st1"/>
  <g>
    <path fill="#00256d" d="M129.4 0h80.3v80h-80.3z"/>
    <path fill="#ffd25e" d="M147 0h-17.6v62.4c18.6 0 33.7-15.1 33.7-33.7 0-12.1-6.4-22.8-16.1-28.7z"/>
  </g>
  <g>
    <path fill="#ff8a00" d="M209.7 0H290v80h-80.3z"/>
    <path d="M221.2 0h11.5v80h-11.5z" class="st1"/>
    <path d="M244.2 0h11.5v80h-11.5z" class="st1"/>
    <path d="M267.3 0h11.5v80h-11.5z" class="st1"/>
  </g>
</svg>
