<svg xmlns="http://www.w3.org/2000/svg" width="113" height="30" fill="none" viewBox="0 0 113 30">
  <path fill="#00256D" fill-rule="evenodd" d="M31.365 20.691c-3.1322 0-5.7474-2.6443-5.7474-5.866 0-3.2522 2.6152-5.95724 5.7474-5.95724 3.193 0 5.7474 2.70504 5.7474 5.95724 0 3.2217-2.5544 5.866-5.7474 5.866Zm.105-13.67288c-2.3379 0-4.406 1.32592-5.8747 3.10388l-.0599-2.10944c-.03-.75336-.3897-1.11498-.9292-1.11498-.5695 0-.9591.45202-.9591 1.08485V28.5342c0 .6027.4196 1.0246.9891 1.0246.5994 0 .9591-.452.9591-1.0547V19.524c1.4687 1.7478 3.5368 2.9532 5.8747 2.9532 4.2561 0 7.613-3.4354 7.613-7.6844 0-4.2489-3.3569-7.77468-7.613-7.77468Z" clip-rule="evenodd"/>
  <path fill="#00256D" fill-rule="evenodd" d="m80.3152 14.0475 5.7547-5.12403c.5255-.4584.5873-1.13071.1855-1.55855-.4328-.4584-1.0819-.33616-1.5456.09168L76.8893 14.71V1.16127C76.8893.458398 76.5802 0 75.9311 0c-.711 0-1.051.458398-1.051 1.16127V21.4836c0 .6723.4019 1.1307 1.051 1.1307.5873 0 .9582-.4584.9582-1.1307v-4.3857l2.0033-1.7837 6.3118 6.9334c.4018.4278 1.0819.5806 1.5146.1833.4946-.4584.34-1.0696-.0309-1.4974l-6.3729-6.886Z" clip-rule="evenodd"/>
  <path fill="#00256D" fill-rule="evenodd" d="M48.7716 20.691c-3.1322 0-5.7474-2.6443-5.7474-5.866 0-3.2522 2.6152-5.95724 5.7474-5.95724 3.193 0 5.7474 2.70504 5.7474 5.95724 0 3.2217-2.5544 5.866-5.7474 5.866Zm.0454-13.79342c-4.3801 0-7.7633 3.59542-7.7633 7.92822 0 4.3329 3.3832 7.8361 7.7633 7.8361 4.1082 0 7.6726-3.5032 7.6726-7.8361 0-4.3328-3.5946-7.92822-7.6726-7.92822Z" clip-rule="evenodd"/>
  <path fill="#00256D" fill-rule="evenodd" d="M111.458 19.6877c-.308 0-.616.1839-.801.3371-.431.3678-.954.7355-1.693.7355-1.262 0-1.971-.7661-1.971-2.513V8.80835l3.911.0613c.554 0 .923-.33711.923-.85809 0-.55163-.369-.88874-.923-.88874l-3.911.03065V3.99692c0-.61292-.431-1.04196-.954-1.04196-.554 0-1.016.42904-1.016 1.04196v3.15655l-1.663-.03065c-.523 0-.893.33711-.893.88874 0 .49033.401.88873.893.85809l1.663-.0613v9.50025c0 2.9727 1.817 4.3518 3.91 4.3518 1.293 0 2.279-.4904 2.956-1.1952.216-.2452.431-.521.431-.8888 0-.5209-.339-.8887-.862-.8887Z" clip-rule="evenodd"/>
  <path fill="#00256D" fill-rule="evenodd" d="M89.6611 13.7941c.4381-3.2317 2.7497-4.92634 5.3513-4.92634 2.7727 0 4.7106 2.40164 4.8299 4.92634H89.6611Zm5.3836-6.89652c-4.3996 0-7.6839 3.59542-7.6839 7.92822 0 4.3329 3.3462 7.8361 7.7149 7.8361 2.1688 0 4.2757-.799 5.6703-2.1511.309-.3073.557-.6453.557-.9833 0-.4917-.309-.8912-.898-.8912-.31 0-.6198.1229-.8677.3381-1.3013 1.1369-2.6336 1.7823-4.4616 1.7823-2.8443 0-5.383-2.1472-5.6469-5.347h11.0692c1.053 0 1.642-.5531 1.642-1.4443 0-3.4417-3.0365-7.06782-7.0953-7.06782Z" clip-rule="evenodd"/>
  <path fill="#00256D" fill-rule="evenodd" d="M71.3386 17.7777c-.2745 0-.5795.2164-.7625.4637-.854 1.1436-2.6841 2.5037-4.7277 2.5037-3.0502 0-5.6733-2.4419-5.6733-5.9657 0-3.7711 2.6231-6.02756 5.6733-6.02756 2.2266 0 3.4466 1.08187 4.4837 2.34916.183.2164.4575.4328.793.4328.4576 0 .9151-.34.9151-.8037 0-.34-.2135-.68-.3965-.95821-1.2506-1.82372-3.3552-2.87467-5.7953-2.87467-4.2398 0-7.7169 3.52378-7.7169 7.88218 0 4.2965 3.4771 7.8821 7.7169 7.8821 2.6231 0 4.8802-1.5455 6.0698-3.1528.2135-.2782.3355-.5564.3355-.8037 0-.5564-.3965-.9273-.9151-.9273Z" clip-rule="evenodd"/>
  <path fill="#00256D" fill-rule="evenodd" d="M13.5183 13.5306 9.37114 17.403c-.21345.242-.54888.3328-.79283.3328-.30494 0-.60988-.0908-.85383-.3328l-4.08616-3.8724c-.42691-.4538-.4879-1.2101 0-1.6942.45741-.4235 1.21975-.484 1.67716 0l3.26283 3.1161 3.32379-3.1161c.4269-.484 1.1893-.4235 1.6162 0 .4269.4841.4269 1.2404 0 1.6942Zm2.3207-6.63265H1.68489c-.919099 0-1.68501207.71374-1.68501207 1.6447v5.30645c0 4.81 3.92147207 8.8132 8.76204207 8.8132 4.80988 0 8.70078-4.0032 8.70078-8.8132V8.54265c0-.93096-.7353-1.6447-1.6237-1.6447Z" clip-rule="evenodd"/>
</svg>
