<svg xmlns="http://www.w3.org/2000/svg" width="640" height="360" fill="none" viewBox="0 0 640 360">
  <path fill="#333336" d="M0 0h640v360H0z"/>
  <path fill="#0290FF" stroke="#333336" stroke-width="1.8" d="M94 64c0-3.3137 2.6863-6 6-6h261.333c3.314 0 6 2.6863 6 6v14H94V64Z"/>
  <ellipse cx="107.706" cy="67.7974" fill="#333336" rx="2.70555" ry="2.66651"/>
  <ellipse cx="117.982" cy="67.7974" fill="#333336" rx="2.70555" ry="2.66651"/>
  <ellipse cx="128.269" cy="67.7974" fill="#333336" rx="2.70555" ry="2.66651"/>
  <path fill="#F8F6F4" stroke="#333336" stroke-width="1.8" d="M94.0002 78H367.334v158c0 3.314-2.687 6-6 6H100c-3.3135 0-5.9998-2.686-5.9998-6V78Z"/>
  <path fill="#FF7139" stroke="#333336" stroke-width="1.8" d="M272.667 124.333c0-3.314 2.686-6 6-6H540c3.314 0 6 2.686 6 6v14H272.667v-14Z"/>
  <ellipse cx="286.372" cy="128.13" fill="#333336" rx="2.70554" ry="2.66648"/>
  <ellipse cx="296.648" cy="128.13" fill="#333336" rx="2.70554" ry="2.66648"/>
  <ellipse cx="306.935" cy="128.13" fill="#333336" rx="2.70554" ry="2.66648"/>
  <path fill="#F8F6F4" stroke="#333336" stroke-width="1.8" d="M272.667 138.333H546v158c0 3.314-2.686 6-6 6H278.667c-3.314 0-6-2.686-6-6v-158Z"/>
  <rect width="53.3333" height="53.3333" x="125.667" y="219" fill="#0290FF" stroke="#333336" stroke-width="1.8" rx="6.4"/>
  <path fill="#fff" fill-rule="evenodd" d="m154.342 228.333-17.775 21.331h15.998l-1.778 14.22 17.776-21.331h-15.998l1.777-14.22Z" clip-rule="evenodd"/>
  <path fill="#FBF0BA" stroke="#333336" stroke-width="1.8" d="M315.667 162.666h128v32h-128z"/>
  <path fill="#333336" d="M396.393 182.783c-1.837 0-2.96-.725-3.767-1.755l1.439-1.147c.561.89 1.322 1.346 2.34 1.346.924 0 1.404-.445 1.404-1.065 0-.795-.819-.959-2.001-1.228-1.275-.269-2.703-.679-2.703-2.41 0-1.404 1.252-2.528 3.031-2.528 1.509 0 2.457.527 3.322 1.486l-1.345 1.053c-.445-.655-1.018-1.064-2.001-1.064-.924 0-1.322.456-1.322 1.017 0 .691.854.819 1.919 1.065 1.31.281 2.82.702 2.82 2.551 0 1.462-1.229 2.679-3.136 2.679Zm3.731-.117v-1.439l3.521-3.475h-3.451v-1.404h5.44v1.439l-3.51 3.463h3.557v1.416h-5.557Zm7.201 2.504c-.667 0-1.334-.246-1.802-.585l.936-1.311c.223.234.492.387.854.387.574 0 .925-.258 1.241-1.007l.105-.257-2.539-6.049h1.72l1.638 4.072 1.556-4.072h1.685l-2.726 6.657c-.655 1.615-1.334 2.165-2.668 2.165Zm9.509-2.375c-.842 0-1.579-.375-2.001-1.006v.877h-1.591v-9.231h1.603v3.779c.421-.609 1.123-.995 1.977-.995 1.592 0 3.042 1.276 3.042 3.288 0 2.012-1.474 3.288-3.03 3.288Zm-.327-1.521c.971 0 1.743-.784 1.743-1.779 0-.994-.772-1.778-1.743-1.778-.995 0-1.755.796-1.755 1.778 0 .983.76 1.779 1.755 1.779Zm8.565 1.392-1.79-2.609-.971 1.088v1.521h-1.603v-9.22h1.603v5.839l2.562-2.937h1.931l-2.375 2.691 2.492 3.627h-1.849Zm4.821.129c-1.895 0-3.335-1.474-3.335-3.288 0-1.825 1.44-3.288 3.335-3.288 1.884 0 3.346 1.463 3.346 3.288 0 1.814-1.439 3.288-3.346 3.288Zm.012-1.533c.959 0 1.731-.784 1.731-1.767 0-.982-.772-1.766-1.731-1.766-.971 0-1.732.784-1.732 1.766 0 .983.761 1.767 1.732 1.767Z"/>
  <path fill="#333336" d="M316.415 210.666v-8.541h3.37c1.919 0 3.206 1.381 3.206 3.101 0 1.696-1.287 3.112-3.218 3.112h-1.696v2.328h-1.662Zm3.265-7.032h-1.603v3.171h1.603c.982 0 1.638-.667 1.638-1.579 0-.925-.656-1.592-1.638-1.592Zm7.106 7.161c-1.896 0-3.335-1.474-3.335-3.288 0-1.825 1.439-3.288 3.335-3.288 1.883 0 3.346 1.463 3.346 3.288 0 1.814-1.439 3.288-3.346 3.288Zm.011-1.533c.96 0 1.732-.784 1.732-1.767 0-.982-.772-1.766-1.732-1.766-.971 0-1.731.784-1.731 1.766 0 .983.76 1.767 1.731 1.767Zm7.329 1.533c-1.896 0-3.323-1.451-3.323-3.288 0-1.86 1.439-3.288 3.311-3.288 1.462 0 2.586.808 3.077 2.001l-1.486.597c-.257-.679-.842-1.088-1.568-1.088-.971 0-1.731.795-1.731 1.778 0 .959.772 1.755 1.743 1.755.749 0 1.31-.456 1.568-1.1l1.509.62c-.538 1.17-1.591 2.013-3.1 2.013Zm3.584-.129v-1.439l3.522-3.475h-3.452v-1.404h5.441v1.439l-3.51 3.463h3.556v1.416h-5.557Zm11.45 2.738c-1.006 0-1.638-.597-1.65-1.357-.011-.585.316-1.065.878-1.533v-.819c-.456.655-1.322 1.1-2.317 1.1-1.38 0-2.199-.772-2.199-1.884 0-1.31 1.088-2.118 2.843-2.118h1.661v-.082c0-.678-.456-1.146-1.369-1.146-.713 0-1.193.304-1.486.831l-1.486-.738c.644-.842 1.568-1.439 2.984-1.439 1.86 0 2.925.971 2.925 2.563v3.884c-.854.608-1.147 1.018-1.147 1.287 0 .246.176.386.41.386.257 0 .456-.175.608-.351l.971.679c-.409.421-.947.737-1.626.737Zm-2.621-3.943c.772 0 1.533-.468 1.849-1.147v-.339h-1.486c-.959 0-1.346.304-1.346.796 0 .456.316.69.983.69Zm3.882-3.686v-1.427h1.17v-1.369l1.591-.936v2.305h1.661v1.427h-1.661v2.598c0 .667.281.901.69.901.222 0 .398-.07.585-.234l.737 1.263c-.409.305-.924.48-1.509.48-1.322 0-2.094-.632-2.094-2.352v-2.656h-1.17Zm8.13 5.02c-2.036 0-3.346-1.439-3.346-3.276 0-1.837 1.427-3.3 3.311-3.3 1.895 0 3.264 1.369 3.264 3.241v.609h-5.019c.211.819.878 1.333 1.814 1.333.748 0 1.251-.327 1.567-.842l1.322.772c-.631.889-1.521 1.463-2.913 1.463Zm-.035-5.207c-.819 0-1.451.48-1.708 1.217h3.369c-.21-.784-.819-1.217-1.661-1.217Zm8.489 5.078-1.79-2.609-.971 1.088v1.521h-1.603v-9.22h1.603v5.839l2.562-2.937h1.931l-2.375 2.691 2.492 3.627h-1.849Zm4.945 0v-1.381c0-1.544 1.264-2.398 2.399-3.088.948-.585 1.755-1.053 1.755-1.744 0-.596-.433-1.018-1.217-1.018s-1.345.515-1.626 1.206l-1.463-.714c.574-1.158 1.662-1.919 3.112-1.919 1.802 0 2.855 1.076 2.855 2.457 0 1.381-1.158 2.118-2.246 2.773-.936.573-1.802 1.076-1.849 1.86h4.06v1.568h-5.78Zm9.956-1.462c1.041 0 1.685-.597 1.685-2.68v-.351c0-2.071-.679-2.597-1.674-2.597-1.017 0-1.696.585-1.696 2.597v.351c0 2.106.643 2.68 1.685 2.68Zm0 1.579c-1.978 0-3.335-1.135-3.335-4.235v-.398c0-2.96 1.463-4.142 3.335-4.142 1.907 0 3.346 1.217 3.346 4.142v.398c0 3.135-1.392 4.235-3.346 4.235Zm4.085-.117v-1.381c0-1.544 1.264-2.398 2.398-3.088.948-.585 1.755-1.053 1.755-1.744 0-.596-.432-1.018-1.216-1.018s-1.346.515-1.627 1.206l-1.462-.714c.573-1.158 1.661-1.919 3.112-1.919 1.802 0 2.855 1.076 2.855 2.457 0 1.381-1.158 2.118-2.247 2.773-.936.573-1.801 1.076-1.848 1.86h4.06v1.568h-5.78Zm9.46.117c-1.509 0-2.445-.48-3.182-1.462l1.38-1.018c.422.69 1.018.982 1.802.982.843 0 1.439-.444 1.439-1.158 0-.678-.596-1.088-1.486-1.088h-.947v-1.486h.877c.901 0 1.369-.48 1.369-1.111 0-.562-.421-1.03-1.299-1.03-.772 0-1.275.339-1.602.936l-1.369-.819c.62-.948 1.649-1.521 2.96-1.521 1.837 0 2.948.959 2.948 2.387 0 .784-.386 1.416-1.006 1.825.749.386 1.217 1.03 1.217 1.942 0 1.486-1.17 2.621-3.101 2.621Z"/>
  <path fill="#FBB397" stroke="#333336" stroke-width="1.8" d="M315.667 228.666h187v32h-187z"/>
  <path fill="#333336" d="M401.391 248.783c-1.322 0-2.27-.702-2.609-1.743l1.579-.644c.153.503.48.854 1.007.854.585 0 .889-.433.889-1.053v-6.072h1.661v5.967c0 1.673-.866 2.691-2.527 2.691Zm6.779.012c-2.036 0-3.346-1.439-3.346-3.276 0-1.837 1.427-3.3 3.311-3.3 1.895 0 3.264 1.369 3.264 3.241v.609h-5.019c.21.819.877 1.333 1.813 1.333.749 0 1.252-.327 1.568-.842l1.322.772c-.632.889-1.521 1.463-2.913 1.463Zm-.035-5.207c-.819 0-1.451.48-1.708 1.217h3.369c-.21-.784-.819-1.217-1.661-1.217Zm6.641 5.207c-1.498 0-2.446-.562-2.949-1.568l1.556-.608c.281.561.784.854 1.451.854.655 0 1.006-.316 1.006-.691 0-.456-.678-.561-1.486-.725-1.064-.222-2.246-.55-2.246-1.884 0-1.064 1.03-1.989 2.586-1.977 1.333 0 2.129.503 2.714 1.345l-1.474.597c-.258-.421-.655-.667-1.24-.667-.632 0-.936.258-.936.609 0 .397.514.503 1.439.702 1.053.21 2.293.573 2.293 1.93 0 .983-.878 2.094-2.714 2.083Zm3.37-.129v-1.439l3.521-3.475h-3.451v-1.404h5.44v1.439l-3.51 3.463h3.557v1.416h-5.557Zm9.291.129c-1.896 0-3.323-1.451-3.323-3.288 0-1.86 1.439-3.288 3.311-3.288 1.462 0 2.586.808 3.077 2.001l-1.486.597c-.257-.679-.842-1.088-1.568-1.088-.971 0-1.731.795-1.731 1.778 0 .959.772 1.755 1.743 1.755.749 0 1.31-.456 1.568-1.1l1.509.62c-.538 1.17-1.591 2.013-3.1 2.013Zm3.584-.129v-1.439l3.522-3.475h-3.452v-1.404h5.441v1.439l-3.51 3.463h3.556v1.416h-5.557Zm9.314.129c-2.036 0-3.346-1.439-3.346-3.276 0-1.837 1.427-3.3 3.311-3.3 1.895 0 3.264 1.369 3.264 3.241v.609h-5.019c.211.819.878 1.333 1.814 1.333.748 0 1.251-.327 1.567-.842l1.322.772c-.631.889-1.521 1.463-2.913 1.463Zm-.035-5.207c-.819 0-1.451.48-1.708 1.217h3.369c-.21-.784-.819-1.217-1.661-1.217Zm9.182 5.207c-1.497 0-2.445-.562-2.948-1.568l1.556-.608c.281.561.784.854 1.451.854.655 0 1.006-.316 1.006-.691 0-.456-.679-.561-1.486-.725-1.065-.222-2.246-.55-2.246-1.884 0-1.064 1.029-1.989 2.585-1.977 1.334 0 2.13.503 2.715 1.345l-1.474.597c-.258-.421-.656-.667-1.241-.667-.631 0-.936.258-.936.609 0 .397.515.503 1.439.702 1.053.21 2.294.573 2.294 1.93 0 .983-.878 2.094-2.715 2.083Zm3.37-.129v-1.439l3.522-3.475h-3.451v-1.404h5.44v1.439l-3.51 3.463h3.557v1.416h-5.558Zm7.202 2.504c-.667 0-1.334-.246-1.802-.585l.936-1.311c.223.234.492.387.854.387.574 0 .925-.258 1.241-1.007l.105-.257-2.539-6.049h1.72l1.638 4.072 1.556-4.072h1.685l-2.726 6.657c-.656 1.615-1.334 2.165-2.668 2.165Zm9.509-2.375c-.842 0-1.58-.375-2.001-1.006v.877h-1.591v-9.231h1.603v3.779c.421-.609 1.123-.995 1.977-.995 1.591 0 3.042 1.276 3.042 3.288 0 2.012-1.474 3.288-3.03 3.288Zm-.328-1.521c.971 0 1.744-.784 1.744-1.779 0-.994-.773-1.778-1.744-1.778-.994 0-1.755.796-1.755 1.778 0 .983.761 1.779 1.755 1.779Zm7.349 1.521c-1.896 0-3.323-1.451-3.323-3.288 0-1.86 1.439-3.288 3.311-3.288 1.463 0 2.586.808 3.077 2.001l-1.486.597c-.257-.679-.842-1.088-1.568-1.088-.971 0-1.731.795-1.731 1.778 0 .959.772 1.755 1.743 1.755.749 0 1.311-.456 1.568-1.1l1.509.62c-.538 1.17-1.591 2.013-3.1 2.013Zm3.85-.129v-6.318h1.65v6.318h-1.65Zm-.21-8.096c0-.609.433-1.053 1.029-1.053.621 0 1.042.444 1.042 1.053 0 .596-.421 1.029-1.042 1.029-.608 0-1.029-.433-1.029-1.029Zm6.071 8.225c-2.036 0-3.347-1.439-3.347-3.276 0-1.837 1.428-3.3 3.312-3.3 1.895 0 3.264 1.369 3.264 3.241v.609h-5.019c.21.819.877 1.333 1.813 1.333.749 0 1.252-.327 1.568-.842l1.322.772c-.632.889-1.521 1.463-2.913 1.463Zm-.035-5.207c-.819 0-1.451.48-1.709 1.217h3.37c-.211-.784-.819-1.217-1.661-1.217Zm2.896 7.605v-1.509c1.1 0 1.229-.164 1.229-1.205v-6.131h1.649v6.154c0 2.036-.631 2.691-2.655 2.691h-.223Zm1.018-10.623c0-.609.433-1.053 1.03-1.053.62 0 1.041.444 1.041 1.053 0 .596-.421 1.029-1.041 1.029-.609 0-1.03-.433-1.03-1.029Z"/>
  <path fill="#333336" d="M316.415 276.666v-8.541h2.761c2.715 0 4.458 1.849 4.458 4.271 0 2.433-1.872 4.27-4.422 4.27h-2.797Zm2.644-7.008h-.982v5.464h1.029c1.732 0 2.855-1.194 2.855-2.726 0-1.568-1.03-2.738-2.902-2.738Zm5.239 7.008v-1.439l3.521-3.475h-3.451v-1.404h5.44v1.439l-3.51 3.463h3.557v1.416h-5.557Zm6.464 0v-6.318h1.649v6.318h-1.649Zm-.211-8.096c0-.609.433-1.053 1.03-1.053.62 0 1.041.444 1.041 1.053 0 .596-.421 1.029-1.041 1.029-.609 0-1.03-.433-1.03-1.029Zm5.439 8.225c-1.498 0-2.445-.562-2.948-1.568l1.556-.608c.281.561.784.854 1.451.854.655 0 1.006-.316 1.006-.691 0-.456-.679-.561-1.486-.725-1.065-.222-2.247-.55-2.247-1.884 0-1.064 1.03-1.989 2.586-1.977 1.334 0 2.13.503 2.715 1.345l-1.475.597c-.257-.421-.655-.667-1.24-.667-.632 0-.936.258-.936.609 0 .397.515.503 1.439.702 1.053.21 2.293.573 2.293 1.93 0 .983-.877 2.094-2.714 2.083Zm-.854-7.231 1.334-2.001h1.649l-1.766 2.001h-1.217Z"/>
  <path fill="#333336" d="M133.884 128.582c-3.909 0-6.3-1.544-8.018-3.735l3.063-2.44c1.195 1.892 2.814 2.863 4.98 2.863 1.967 0 2.988-.946 2.988-2.266 0-1.693-1.743-2.041-4.258-2.614-2.714-.573-5.752-1.444-5.752-5.129 0-2.988 2.664-5.379 6.449-5.379 3.212 0 5.229 1.121 7.072 3.162l-2.864 2.241c-.946-1.394-2.166-2.265-4.258-2.265-1.967 0-2.813.971-2.813 2.166 0 1.469 1.817 1.743 4.083 2.266 2.789.597 6.001 1.494 6.001 5.428 0 3.112-2.614 5.702-6.673 5.702Zm8.117-.249v-3.063l7.495-7.395h-7.345v-2.988h11.578v3.063l-7.47 7.37h7.57v3.013h-11.828Zm15.505 5.329c-1.419 0-2.838-.523-3.834-1.245l1.992-2.789c.473.498 1.046.822 1.817.822 1.221 0 1.968-.548 2.64-2.142l.224-.548-5.403-12.873h3.66l3.486 8.665 3.312-8.665h3.585l-5.801 14.168c-1.395 3.436-2.839 4.607-5.678 4.607Zm20.416-5.055c-1.793 0-3.362-.797-4.258-2.141v1.867h-3.387v-19.646h3.412v8.043c.896-1.295 2.39-2.117 4.208-2.117 3.386 0 6.474 2.714 6.474 6.997 0 4.283-3.138 6.997-6.449 6.997Zm-.698-3.237c2.067 0 3.71-1.668 3.71-3.785 0-2.116-1.643-3.785-3.71-3.785-2.116 0-3.735 1.694-3.735 3.785 0 2.092 1.619 3.785 3.735 3.785Zm18.408 2.963-3.809-5.553-2.067 2.316v3.237h-3.411v-19.621h3.411v12.425l5.453-6.25h4.108l-5.054 5.727 5.303 7.719h-3.934Zm10.438.274c-4.034 0-7.097-3.137-7.097-6.997 0-3.884 3.063-6.997 7.097-6.997 4.009 0 7.121 3.113 7.121 6.997 0 3.86-3.062 6.997-7.121 6.997Zm.025-3.262c2.042 0 3.685-1.668 3.685-3.76 0-2.091-1.643-3.76-3.685-3.76-2.067 0-3.685 1.669-3.685 3.76 0 2.092 1.618 3.76 3.685 3.76Zm14.309 3.262c-3.187 0-5.204-1.195-6.275-3.337l3.312-1.294c.598 1.195 1.668 1.817 3.088 1.817 1.394 0 2.141-.672 2.141-1.469 0-.971-1.444-1.195-3.162-1.544-2.266-.473-4.781-1.17-4.781-4.009 0-2.265 2.191-4.233 5.503-4.208 2.838 0 4.532 1.071 5.777 2.864l-3.138 1.27c-.548-.897-1.394-1.42-2.639-1.42-1.345 0-1.992.548-1.992 1.295 0 .847 1.095 1.071 3.063 1.494 2.241.448 4.88 1.22 4.88 4.109 0 2.091-1.868 4.457-5.777 4.432Zm-1.818-15.388 2.839-4.258h3.511l-3.76 4.258h-2.59Zm16.116 15.388c-4.033 0-7.071-3.088-7.071-6.997 0-3.959 3.062-6.997 7.046-6.997 3.113 0 5.503 1.718 6.549 4.258l-3.162 1.27c-.548-1.444-1.793-2.316-3.337-2.316-2.066 0-3.685 1.693-3.685 3.785 0 2.042 1.643 3.735 3.71 3.735 1.594 0 2.789-.971 3.337-2.341l3.212 1.32c-1.146 2.49-3.387 4.283-6.599 4.283Zm-1.668-15.388 2.839-4.258h3.511l-3.76 4.258h-2.59Zm-106.446 34.445-.622-1.743 2.465-.772v-9.437h3.436v8.366l1.892-.597.623 1.768-2.515.796v9.288h-3.436v-8.242l-1.843.573Zm13.015 7.943c-2.938 0-4.681-1.643-4.681-4.009 0-2.789 2.316-4.507 6.051-4.507h3.535v-.174c0-1.444-.971-2.44-2.913-2.44-1.519 0-2.54.647-3.162 1.768l-3.163-1.569c1.37-1.793 3.337-3.063 6.35-3.063 3.959 0 6.225 2.067 6.225 5.453v8.267h-3.312v-2.067c-.971 1.395-2.813 2.341-4.93 2.341Zm.996-2.839c1.643 0 3.262-.996 3.934-2.44v-.722h-3.162c-2.042 0-2.864.647-2.864 1.693 0 .971.673 1.469 2.092 1.469Zm15.698 2.839c-3.312 0-6.474-2.714-6.474-6.997 0-4.283 3.088-6.997 6.524-6.997 1.768 0 3.237.747 4.158 1.992v-7.918h3.387v19.646h-3.387v-1.843c-.946 1.32-2.465 2.117-4.208 2.117Zm.672-3.237c2.117 0 3.735-1.693 3.735-3.785 0-2.091-1.618-3.785-3.735-3.785-2.066 0-3.735 1.669-3.735 3.785 0 2.117 1.669 3.785 3.735 3.785Zm16.018 3.237c-4.034 0-7.097-3.137-7.097-6.997 0-3.884 3.063-6.997 7.097-6.997 4.009 0 7.121 3.113 7.121 6.997 0 3.86-3.062 6.997-7.121 6.997Zm.025-3.262c2.042 0 3.685-1.668 3.685-3.76 0-2.091-1.643-3.76-3.685-3.76-2.067 0-3.685 1.669-3.685 3.76 0 2.092 1.618 3.76 3.685 3.76Zm11.857 2.988-4.357-13.446h3.486l2.714 8.765 3.187-8.765h3.063l3.137 8.815 2.814-8.815h3.486l-4.557 13.446h-3.237l-3.212-8.765-3.237 8.765h-3.287Zm22.456.274c-2.938 0-4.681-1.643-4.681-4.009 0-2.789 2.316-4.507 6.051-4.507h3.535v-.174c0-1.444-.971-2.44-2.913-2.44-1.519 0-2.54.647-3.162 1.768l-3.162-1.569c1.369-1.793 3.336-3.063 6.349-3.063 3.959 0 6.225 2.067 6.225 5.453v8.267h-3.312v-2.067c-.971 1.395-2.813 2.341-4.93 2.341Zm.996-2.839c1.644 0 3.262-.996 3.934-2.44v-.722h-3.162c-2.042 0-2.863.647-2.863 1.693 0 .971.672 1.469 2.091 1.469Zm9.648 2.565v-13.446h3.436v1.693c.871-1.22 2.266-1.967 3.934-1.967 3.187 0 5.204 2.092 5.204 5.603v8.117h-3.511v-7.594c0-1.918-.921-3.113-2.739-3.113-1.618 0-2.863 1.195-2.863 3.287v7.42h-3.461Zm14.973 0v-13.446h3.511v13.446h-3.511Zm-.449-17.231c0-1.295.922-2.241 2.192-2.241 1.319 0 2.216.946 2.216 2.241 0 1.27-.897 2.191-2.216 2.191-1.295 0-2.192-.921-2.192-2.191Zm10.584 17.505c-2.938 0-4.681-1.643-4.681-4.009 0-2.789 2.316-4.507 6.051-4.507h3.535v-.174c0-1.444-.971-2.44-2.913-2.44-1.519 0-2.54.647-3.162 1.768l-3.162-1.569c1.369-1.793 3.336-3.063 6.349-3.063 3.959 0 6.225 2.067 6.225 5.453v8.267h-3.312v-2.067c-.971 1.395-2.813 2.341-4.93 2.341Zm.996-2.839c1.644 0 3.262-.996 3.934-2.44v-.722h-3.162c-2.042 0-2.863.647-2.863 1.693 0 .971.672 1.469 2.091 1.469Zm-111.708 29.839c-3.187 0-5.204-1.195-6.275-3.337l3.312-1.294c.598 1.195 1.668 1.817 3.088 1.817 1.394 0 2.141-.672 2.141-1.469 0-.971-1.444-1.195-3.162-1.544-2.266-.473-4.781-1.17-4.781-4.009 0-2.265 2.191-4.233 5.503-4.208 2.838 0 4.532 1.071 5.777 2.864l-3.138 1.27c-.548-.897-1.394-1.42-2.639-1.42-1.345 0-1.992.548-1.992 1.295 0 .847 1.095 1.071 3.062 1.494 2.241.448 4.881 1.22 4.881 4.109 0 2.091-1.868 4.457-5.777 4.432Zm6.538-10.682v-3.038h2.49v-2.913l3.387-1.992v4.905h3.535v3.038h-3.535v5.528c0 1.419.597 1.917 1.469 1.917.473 0 .846-.149 1.245-.498l1.568 2.689c-.871.648-1.967 1.021-3.212 1.021-2.813 0-4.457-1.345-4.457-5.005v-5.652h-2.49Zm11.441 10.408v-13.446h3.386v2.067c.647-1.594 1.992-2.316 3.71-2.316.897 0 1.693.224 2.266.523l-1.245 3.386c-.373-.274-1.021-.473-1.793-.473-1.768 0-2.913.897-2.913 3.163v7.096h-3.411Zm16.442.274c-4.034 0-7.096-3.137-7.096-6.997 0-3.884 3.062-6.997 7.096-6.997 4.009 0 7.122 3.113 7.122 6.997 0 3.86-3.063 6.997-7.122 6.997Zm.025-3.262c2.042 0 3.685-1.668 3.685-3.76 0-2.091-1.643-3.76-3.685-3.76-2.067 0-3.685 1.669-3.685 3.76 0 2.092 1.618 3.76 3.685 3.76Zm9.102 2.988v-13.446h3.436v1.693c.872-1.22 2.266-1.967 3.934-1.967 3.187 0 5.204 2.092 5.204 5.603v8.117h-3.511v-7.594c0-1.918-.921-3.113-2.739-3.113-1.618 0-2.863 1.195-2.863 3.287v7.42h-3.461Zm15.838 5.329c-1.42 0-2.839-.523-3.835-1.245l1.992-2.789c.473.498 1.046.822 1.818.822 1.22 0 1.967-.548 2.639-2.142l.224-.548-5.403-12.873h3.66l3.486 8.665 3.312-8.665h3.586l-5.802 14.168c-1.395 3.436-2.839 4.607-5.677 4.607Z"/>
</svg>
