<svg width="120" height="80" xmlns="http://www.w3.org/2000/svg"><path d="M82.84 38.227a8.32 8.32 0 0 0-5.025 1.684V28.12a6.734 6.734 0 0 0-6.764-6.732H59.255a8.417 8.417 0 1 0-13.44 0H34.014a6.733 6.733 0 0 0-6.759 6.733v10.272a8.57 8.57 0 0 1 1.684-.167 8.416 8.416 0 1 1 0 16.832 8.578 8.578 0 0 1-1.684-.166v10.24a6.739 6.739 0 0 0 6.759 6.765h10.24a8.578 8.578 0 0 1-.167-1.683 8.416 8.416 0 1 1 16.832 0 8.57 8.57 0 0 1-.166 1.683h10.24a6.74 6.74 0 0 0 6.822-6.74V53.377a8.416 8.416 0 1 0 5.05-15.149h-.026Zm0 14.272a5.76 5.76 0 0 1-3.514-1.17 2.56 2.56 0 0 0-4.07 2.047V65.16a4.185 4.185 0 0 1-4.18 4.179H63.48a10.976 10.976 0 0 0-21.888 0h-7.577a4.187 4.187 0 0 1-4.199-4.18v-7.57a10.976 10.976 0 0 0 0-21.889v-7.577a4.18 4.18 0 0 1 4.173-4.173h11.827a2.56 2.56 0 0 0 2.042-4.096 5.863 5.863 0 1 1 9.376 0 2.56 2.56 0 0 0 2.048 4.096h11.77a4.184 4.184 0 0 1 4.204 4.173V39.91a2.561 2.561 0 0 0 1.415 2.285c.354.182.747.276 1.145.276a2.56 2.56 0 0 0 1.536-.519A5.855 5.855 0 1 1 82.865 52.5h-.026Z"/></svg>