<svg width="120" height="80" xmlns="http://www.w3.org/2000/svg"><path d="M91.326 70.253c-2.208-7.744-5.612-13.376-10.105-16.749a1.28 1.28 0 0 0-1.536 2.048c4.038 3.008 7.13 8.211 9.184 15.405a1.28 1.28 0 0 0 1.229.928c.118 0 .237-.014.352-.045a1.28 1.28 0 0 0 .876-1.587ZM73.618 37.35a1.279 1.279 0 0 0-.206 2.395 1.279 1.279 0 0 0 1.012.03c6.982-2.322 10.521-7.04 10.521-14.08s-3.539-11.743-10.521-14.073a1.28 1.28 0 0 0-1.241 2.185c.127.11.275.194.434.247 5.901 1.965 8.768 5.76 8.768 11.648s-2.867 9.677-8.767 11.648ZM51.512 50.035c-12.403 0-20.39 6.816-23.75 20.263a1.282 1.282 0 0 0 2.483.64c3.104-12.378 10.041-18.343 21.267-18.343 11.225 0 18.182 5.965 21.267 18.324a1.28 1.28 0 0 0 2.483-.621c-3.36-13.447-11.353-20.263-23.75-20.263Zm0-11.469a12.864 12.864 0 1 0 0-25.728 12.864 12.864 0 0 0 0 25.728Zm0-23.168a10.304 10.304 0 1 1-10.304 10.304 10.317 10.317 0 0 1 10.304-10.304Z"/></svg>