<svg width="90" height="85" viewBox="0 0 90 85" fill="none" xmlns="http://www.w3.org/2000/svg">
<path d="M41.7821 0H24.4346V85H41.7821V0Z" fill="#EF3A58"/>
<path d="M67.8075 0H50.46V85H67.8075V0Z" fill="#F9BFD1"/>
<path d="M76.4839 5.35706H67.8066V84.9999H76.4839V5.35706Z" fill="#82ECB7"/>
<path d="M24.4351 5.35706H11.0166V84.9999H24.4351V5.35706Z" fill="#FBB54A"/>
<path d="M90.0005 26.0924H76.582V85H90.0005V26.0924Z" fill="#18AFA1"/>
<path d="M11.0166 32.563H0V84.9999H11.0166V32.563Z" fill="#18AFA1"/>
<path d="M50.4594 16.6807H41.7822V85H50.4594V16.6807Z" fill="#95D5D2"/>
<path d="M27.1492 64.5321L26.0693 65.6215L37.5013 77.1539L38.5812 76.0646L27.1492 64.5321Z" fill="#221F1F"/>
<path d="M37.5277 64.5053L26.0957 76.0378L27.1756 77.1271L38.6075 65.5947L37.5277 64.5053Z" fill="#221F1F"/>
<path d="M65.7667 15.9103H52.501V17.451H65.7667V15.9103Z" fill="#221F1F"/>
<path d="M65.7667 19.2367H52.501V20.7773H65.7667V19.2367Z" fill="#221F1F"/>
<path d="M81.5799 77.2828H80.0527C80.0527 74.6988 81.5036 73.3893 82.7878 72.2338C83.9818 71.1554 85.0092 70.224 85.0092 68.3333C85.0092 66.4425 83.9818 65.5111 82.7878 64.4327C81.5036 63.2773 80.0527 61.9677 80.0527 59.3837C80.0527 56.8067 81.5036 55.4971 82.7878 54.3417C83.9818 53.2632 85.0092 52.3389 85.0092 50.4481C85.0092 48.5574 83.9818 47.626 82.7878 46.5476C81.5036 45.3921 80.0527 44.0826 80.0527 41.4986C80.0527 38.9215 81.5036 37.612 82.7878 36.4566C83.9818 35.3781 85.0092 34.4537 85.0092 32.563H86.5364C86.5364 35.14 85.0855 36.4495 83.8013 37.605C82.6073 38.6834 81.5799 39.6078 81.5799 41.4986C81.5799 43.3893 82.6073 44.3207 83.8013 45.3991C85.0855 46.5546 86.5364 47.8641 86.5364 50.4481C86.5364 53.0252 85.0855 54.3347 83.8013 55.4901C82.6073 56.5686 81.5799 57.4929 81.5799 59.3837C81.5799 61.2745 82.6073 62.2058 83.8013 63.2843C85.0855 64.4397 86.5364 65.7492 86.5364 68.3333C86.5364 70.9173 85.0855 72.2268 83.8013 73.3823C82.6073 74.4607 81.5799 75.3921 81.5799 77.2828Z" fill="#221F1F"/>
</svg>
