<svg xmlns="http://www.w3.org/2000/svg" width="475" height="621" fill="none" viewBox="0 0 475 621"><mask id="b" fill="#fff"><path d="M463.529 104.926c5.84 0 10.575 4.734 10.575 10.575v70.5c0 5.84-4.735 10.575-10.575 10.575v-91.65Z"/></mask><path fill="url(#a)" d="M463.529 104.926c5.84 0 10.575 4.734 10.575 10.575v70.5c0 5.84-4.735 10.575-10.575 10.575v-91.65Z"/><path fill="#BFBFC7" d="M463.529 196.576h-11.75v11.75h11.75v-11.75Zm0-91.65v-11.75h-11.75v11.75h11.75Zm-1.175 10.575v70.5h23.5v-70.5h-23.5Zm12.925 81.075v-91.65h-23.5v91.65h23.5Zm-12.925-10.575c0-.649.526-1.175 1.175-1.175v23.5c12.329 0 22.325-9.995 22.325-22.325h-23.5Zm1.175-69.325a1.175 1.175 0 0 1-1.175-1.175h23.5c0-12.33-9.996-22.325-22.325-22.325v23.5Z" mask="url(#b)"/><path fill="#F9F9FA" stroke="#BFBFC7" stroke-miterlimit="10" stroke-width="9.4" d="M403.391 5.3H60.761C30.13 5.3 5.3 30.13 5.3 60.76v697.952c0 30.63 24.83 55.461 55.46 55.461h342.631c30.63 0 55.46-24.831 55.46-55.461V60.76c0-30.63-24.83-55.46-55.46-55.46Z"/><path fill="url(#c)" d="m133.245 71.383-4.005-2.294-9.144-5.235-.285-.164a4.889 4.889 0 0 0-4.836 0l-.284.165-12.858 7.365-.284.165a4.807 4.807 0 0 0-2.418 4.157v15.382a4.81 4.81 0 0 0 2.418 4.159l13.146 7.528a2.025 2.025 0 0 0 2.755-.731 1.993 1.993 0 0 0-.738-2.734l-12.857-7.363a1.37 1.37 0 0 1-.693-1.189V75.872a1.37 1.37 0 0 1 .693-1.189l2.275-1.304 10.568-6.065a1.394 1.394 0 0 1 1.379 0l12.862 7.366c.425.245.688.697.69 1.188V90.6a1.37 1.37 0 0 1-.693 1.189l-4.35 2.492-2.196-3.311a10.337 10.337 0 0 0 3.483-7.735c0-5.736-4.704-10.402-10.487-10.402S106.9 77.499 106.9 83.235c0 5.736 4.703 10.403 10.486 10.403a10.497 10.497 0 0 0 3.54-.612l3.336 5.03c.052.076.108.15.169.22l.035.035c.071.076.147.146.229.21l.06.048c.09.065.185.123.285.174l.068.03c.088.039.18.073.273.1l.062.02c.106.027.214.045.323.053h.182c.062 0 .123-.007.182-.013h.084c.115-.016.228-.041.339-.077.03-.008.058-.021.088-.032.088-.032.173-.07.256-.114.019-.01.04-.016.058-.027l6.29-3.594a4.814 4.814 0 0 0 2.418-4.165V75.541a4.807 4.807 0 0 0-2.418-4.158Zm-22.313 11.852a6.455 6.455 0 1 1 6.454 6.4 6.435 6.435 0 0 1-6.454-6.4Z"/><path fill="url(#d)" d="m133.245 71.383-4.005-2.294-9.144-5.235-.285-.164a4.889 4.889 0 0 0-4.836 0l-.284.165-12.858 7.365-.284.165a4.807 4.807 0 0 0-2.418 4.157v15.382a4.81 4.81 0 0 0 2.418 4.159l13.146 7.528a2.025 2.025 0 0 0 2.755-.731 1.993 1.993 0 0 0-.738-2.734l-12.857-7.363a1.37 1.37 0 0 1-.693-1.189V75.872a1.37 1.37 0 0 1 .693-1.189l2.275-1.304 10.568-6.065a1.394 1.394 0 0 1 1.379 0l12.862 7.366c.425.245.688.697.69 1.188V90.6a1.37 1.37 0 0 1-.693 1.189l-4.35 2.492-2.196-3.311a10.337 10.337 0 0 0 3.483-7.735c0-5.736-4.704-10.402-10.487-10.402S106.9 77.499 106.9 83.235c0 5.736 4.703 10.403 10.486 10.403a10.497 10.497 0 0 0 3.54-.612l3.336 5.03c.052.076.108.15.169.22l.035.035c.071.076.147.146.229.21l.06.048c.09.065.185.123.285.174l.068.03c.088.039.18.073.273.1l.062.02c.106.027.214.045.323.053h.182c.062 0 .123-.007.182-.013h.084c.115-.016.228-.041.339-.077.03-.008.058-.021.088-.032.088-.032.173-.07.256-.114.019-.01.04-.016.058-.027l6.29-3.594a4.814 4.814 0 0 0 2.418-4.165V75.541a4.807 4.807 0 0 0-2.418-4.158Zm-22.313 11.852a6.455 6.455 0 1 1 6.454 6.4 6.435 6.435 0 0 1-6.454-6.4Z"/><path fill="url(#e)" d="m133.243 71.383-4.005-2.294-5.587-3.197a4.308 4.308 0 0 0-4.16-.063l-2.795 1.485a1.396 1.396 0 0 1 1.38 0l12.861 7.366c.426.245.688.697.69 1.188V90.6c0 .492-.265.946-.693 1.189l-4.35 2.492.678 1.085a2.844 2.844 0 0 0 3.827.954l2.154-1.231a4.796 4.796 0 0 0 2.418-4.165V75.541a4.793 4.793 0 0 0-2.418-4.158Z"/><path fill="url(#f)" d="M131.627 75.872v7.147h4.034v-7.478a4.793 4.793 0 0 0-2.418-4.158l-4.005-2.294-5.587-3.197a4.308 4.308 0 0 0-4.16-.063l-2.795 1.485a1.4 1.4 0 0 1 1.38 0l12.861 7.366c.427.245.69.7.69 1.192Z"/><path fill="url(#g)" d="M131.627 84.17v6.43c0 .492-.265.946-.692 1.189l-4.351 2.492.678 1.085a2.846 2.846 0 0 0 3.828.954l2.153-1.231a4.796 4.796 0 0 0 2.418-4.165V84.17h-4.034Z" opacity=".9"/><path fill="url(#h)" d="m126.276 93.814-1.887-2.844a10.496 10.496 0 0 1-3.464 2.056l2.007 3.028a88.824 88.824 0 0 0 3.344-2.24Z" opacity=".9"/><path fill="#000" d="M152.438 93.309V73.231h4.296l6.225 11.34 6.196-11.34h4.325V93.31h-4.325V80.801l-6.196 11.339-6.225-11.34V93.31h-4.296Zm32.266.35c-4.501 0-8.271-3.623-8.271-7.92 0-4.296 3.77-7.89 8.271-7.89 4.471 0 8.212 3.594 8.212 7.89 0 4.297-3.741 7.92-8.212 7.92Zm0-3.594c2.25 0 4.15-1.987 4.15-4.325s-1.9-4.296-4.15-4.296c-2.28 0-4.179 1.958-4.179 4.296s1.899 4.325 4.179 4.325Zm10.218 3.244v-3.01l7.599-8.476h-7.394V78.2h12.947v3.01l-7.599 8.475h7.657v3.624h-13.21Zm18.152-17.184a2.326 2.326 0 0 1-2.338-2.338c0-1.199 1.023-2.28 2.338-2.28 1.256 0 2.279 1.081 2.279 2.28 0 1.285-1.023 2.337-2.279 2.337Zm-2.163 17.184v-15.11h4.267v15.11h-4.267Zm7.783 0V72.881h4.267v20.428h-4.267Zm7.783 0V72.881h4.267v20.428h-4.267Zm14.533-15.46c3.946 0 6.634 2.484 6.634 6.43v9.03h-4.12v-1.52c-1.082 1.228-2.806 1.87-4.443 1.87-3.214 0-5.699-1.928-5.699-4.822 0-2.98 2.777-5.026 6.284-5.026 1.227 0 2.572.263 3.858.76v-.293c0-1.607-.994-3.01-3.478-3.01-1.403 0-2.718.468-3.916 1.082l-1.432-2.835c2.133-1.082 4.208-1.666 6.312-1.666Zm-.964 12.859c1.636 0 3.185-.76 3.478-2.163v-1.403a9.56 9.56 0 0 0-3.244-.555c-1.549 0-2.777.906-2.777 2.134 0 1.227 1.082 1.987 2.543 1.987Zm19.612 2.601V73.231h2.952l7.043 13.122 7.043-13.122h2.952V93.31h-2.952V79.018l-7.043 13.122-7.043-13.122v14.291h-2.952Zm31.182.35c-4.325 0-7.978-3.623-7.978-7.92 0-4.296 3.653-7.89 7.978-7.89 4.296 0 7.92 3.594 7.92 7.89 0 4.297-3.624 7.92-7.92 7.92Zm0-2.513c2.718 0 5.027-2.455 5.027-5.406 0-2.923-2.309-5.378-5.027-5.378-2.776 0-5.085 2.455-5.085 5.378 0 2.951 2.309 5.406 5.085 5.406Zm18.366-13.297c3.331 0 5.669 2.425 5.669 5.845v9.615h-2.835v-9.118c0-2.25-1.432-3.829-3.477-3.829-2.105 0-3.917 1.374-4.15 3.157v9.79h-2.894v-15.11h2.894v2.192c.906-1.49 2.747-2.542 4.793-2.542Zm10.614-2.163a1.759 1.759 0 0 1-1.753-1.753c0-.906.76-1.725 1.753-1.725.936 0 1.725.819 1.725 1.725 0 .935-.789 1.753-1.725 1.753Zm-1.461 17.623v-15.11h2.893v15.11h-2.893Zm13.525-2.718 1.052 1.987a4.861 4.861 0 0 1-3.01 1.082c-2.338 0-3.975-1.695-3.975-4.121v-8.885h-2.279V78.2h2.279v-4.15h2.835v4.15h3.566v2.454h-3.566v8.68c0 1.052.702 1.812 1.549 1.812.643 0 1.227-.234 1.549-.555Zm10.535 3.069c-4.325 0-7.978-3.624-7.978-7.92 0-4.296 3.653-7.891 7.978-7.891 4.296 0 7.92 3.594 7.92 7.89 0 4.297-3.624 7.92-7.92 7.92Zm0-2.514c2.718 0 5.027-2.455 5.027-5.406 0-2.923-2.309-5.378-5.027-5.378-2.776 0-5.085 2.455-5.085 5.378 0 2.951 2.309 5.406 5.085 5.406Zm13.719-10.053c.964-1.987 3.01-3.244 5.611-3.244v2.513c-3.127 0-5.348 1.725-5.611 4.355v8.592h-2.894v-15.11h2.894v2.894Z"/><path fill="#fff" d="M28.502 142.79a5.65 5.65 0 0 1 5.65-5.649H429.89a5.65 5.65 0 0 1 5.65 5.649v486.072a5.65 5.65 0 0 1-5.65 5.65H34.151a5.65 5.65 0 0 1-5.65-5.65V142.79Z"/><path stroke="#000" stroke-opacity=".1" stroke-width=".706" d="M34.151 136.788a6.002 6.002 0 0 0-6.002 6.002v486.072a6.003 6.003 0 0 0 6.002 6.003h395.74a6.003 6.003 0 0 0 6.003-6.003V142.79a6.003 6.003 0 0 0-6.003-6.002H34.151Z"/><path fill="#6D6D6E" d="M128.369 508.883a1.821 1.821 0 0 0-.847-1.37c-.495-.325-1.103-.487-1.822-.487-.527 0-.987.085-1.382.255a2.21 2.21 0 0 0-.917.702 1.69 1.69 0 0 0-.325 1.016c0 .317.076.59.227.818.154.225.352.412.592.563.24.147.491.269.754.366.263.093.505.168.726.226l1.207.325c.309.082.654.194 1.033.337.383.143.749.339 1.097.586.352.244.642.557.87.94.229.383.343.854.343 1.411 0 .642-.168 1.222-.505 1.741-.333.518-.82.93-1.463 1.236-.638.306-1.414.459-2.327.459-.851 0-1.588-.138-2.211-.412-.619-.275-1.107-.658-1.463-1.15a3.283 3.283 0 0 1-.598-1.712h1.486c.039.449.19.821.453 1.115.267.29.603.506 1.01.65.41.139.851.209 1.323.209.549 0 1.043-.089 1.48-.267a2.55 2.55 0 0 0 1.039-.755 1.79 1.79 0 0 0 .383-1.137c0-.395-.11-.716-.331-.964a2.427 2.427 0 0 0-.87-.604 9.266 9.266 0 0 0-1.167-.406l-1.463-.418c-.928-.267-1.663-.648-2.205-1.143s-.813-1.143-.813-1.944c0-.666.18-1.246.54-1.742a3.577 3.577 0 0 1 1.463-1.16c.615-.279 1.302-.418 2.06-.418.766 0 1.447.137 2.043.412.596.271 1.068.642 1.416 1.114.352.472.538 1.008.557 1.608h-1.393Zm7.474 9.1c-.859 0-1.6-.189-2.223-.568a3.819 3.819 0 0 1-1.433-1.602c-.333-.689-.499-1.49-.499-2.403s.166-1.718.499-2.414c.337-.701.805-1.246 1.404-1.637.604-.395 1.308-.592 2.113-.592.464 0 .923.077 1.376.232.452.155.864.406 1.236.755.371.344.667.8.888 1.369.22.569.331 1.269.331 2.101v.581h-6.872v-1.184h5.479c0-.503-.101-.952-.302-1.347a2.27 2.27 0 0 0-.847-.934c-.364-.229-.794-.343-1.289-.343-.545 0-1.018.136-1.416.407a2.672 2.672 0 0 0-.911 1.044c-.213.43-.319.89-.319 1.382v.789c0 .673.116 1.244.348 1.712.236.464.563.818.981 1.062.417.24.903.36 1.456.36.36 0 .685-.05.975-.151.295-.104.548-.259.761-.464.213-.209.377-.468.493-.778l1.323.372a2.938 2.938 0 0 1-.702 1.184 3.435 3.435 0 0 1-1.219.789c-.483.186-1.027.278-1.631.278Zm7.145-5.548v5.363h-1.37v-8.915h1.324v1.393h.116c.209-.453.526-.817.951-1.091.426-.279.976-.418 1.649-.418.603 0 1.132.124 1.584.371.453.244.805.616 1.057 1.115.251.495.377 1.122.377 1.88v5.665h-1.37v-5.572c0-.7-.182-1.246-.545-1.637-.364-.394-.863-.592-1.498-.592-.437 0-.828.095-1.172.285-.341.189-.61.466-.807.83-.197.363-.296.804-.296 1.323Zm9.56 0v5.363h-1.369v-11.887h1.369v4.365h.117a2.51 2.51 0 0 1 .94-1.097c.422-.275.983-.412 1.683-.412.607 0 1.139.122 1.596.366.457.239.811.609 1.062 1.108.255.495.383 1.126.383 1.892v5.665h-1.37v-5.572c0-.708-.183-1.256-.551-1.643-.364-.39-.869-.586-1.515-.586-.449 0-.851.095-1.207.285a2.074 2.074 0 0 0-.836.83c-.201.363-.302.804-.302 1.323Zm10.91 5.572a3.621 3.621 0 0 1-1.538-.32 2.64 2.64 0 0 1-1.097-.934c-.27-.41-.406-.905-.406-1.486 0-.511.101-.925.302-1.242.201-.321.47-.572.807-.754a4.229 4.229 0 0 1 1.114-.407c.41-.092.822-.166 1.236-.22.542-.07.981-.122 1.318-.157.34-.039.588-.102.743-.191.158-.089.238-.244.238-.465v-.046c0-.573-.157-1.018-.471-1.335-.309-.317-.779-.476-1.41-.476-.654 0-1.166.143-1.538.43-.371.286-.633.592-.783.917l-1.301-.465c.233-.541.542-.963.929-1.265a3.473 3.473 0 0 1 1.277-.638 5.293 5.293 0 0 1 1.37-.186c.286 0 .615.035.986.104.376.066.737.203 1.086.412.352.209.644.525.876.946.232.422.348.987.348 1.695v5.874h-1.369v-1.207h-.07c-.093.193-.248.4-.464.621-.217.22-.505.408-.865.563-.36.154-.799.232-1.318.232Zm.209-1.231c.542 0 .999-.106 1.37-.319.375-.213.658-.487.847-.824.194-.337.291-.691.291-1.062v-1.254c-.058.07-.186.134-.384.192a6.554 6.554 0 0 1-.673.145 34.229 34.229 0 0 1-1.311.174 5.25 5.25 0 0 0-.999.226 1.733 1.733 0 0 0-.743.459c-.185.201-.278.476-.278.824 0 .476.176.836.528 1.079.356.24.807.36 1.352.36Zm12.692-5.897-1.23.349a2.297 2.297 0 0 0-.343-.598 1.665 1.665 0 0 0-.604-.488c-.255-.127-.582-.191-.98-.191-.546 0-1.001.126-1.364.377-.36.248-.54.563-.54.946 0 .341.124.61.371.807.248.197.635.362 1.161.493l1.323.325c.798.194 1.391.49 1.782.888.391.395.586.904.586 1.527 0 .51-.147.967-.441 1.369-.29.403-.696.72-1.218.952-.523.232-1.13.348-1.823.348-.909 0-1.662-.197-2.258-.592-.595-.394-.973-.971-1.131-1.729l1.3-.325c.124.48.358.84.702 1.079.348.24.803.36 1.364.36.638 0 1.145-.135 1.521-.406.379-.275.568-.604.568-.987 0-.309-.108-.568-.325-.777-.216-.213-.549-.372-.998-.476l-1.486-.349c-.816-.193-1.416-.493-1.799-.899-.379-.41-.569-.923-.569-1.538 0-.503.141-.948.424-1.335a2.877 2.877 0 0 1 1.166-.911c.496-.221 1.057-.331 1.684-.331.882 0 1.574.193 2.077.58.507.387.867.898 1.08 1.532Z"/><rect width="11.236" height="11.236" x="100" y="506.128" fill="#9059FF" rx="2.043"/><path fill="#6D6D6E" d="M355.856 516.382v-1.184l5.224-8.265h.859v1.834h-.581l-3.946 6.245v.093h7.034v1.277h-8.59Zm5.595 2.437V506.933h1.37v11.886h-1.37Zm6.215-8.914 2.135 3.644 2.136-3.644h1.579l-2.879 4.457 2.879 4.457h-1.579l-2.136-3.459-2.135 3.459h-1.579l2.832-4.457-2.832-4.457h1.579ZM131.295 535.535v11.887h-1.393l-6.478-9.333h-.116v9.333h-1.439v-11.887h1.393l6.5 9.356h.116v-9.356h1.417Zm8.312 8.242v-5.27h1.37v8.915h-1.37v-1.509h-.093a2.936 2.936 0 0 1-.975 1.155c-.441.313-.998.47-1.671.47-.557 0-1.053-.122-1.486-.366-.433-.247-.774-.619-1.022-1.114-.247-.499-.371-1.128-.371-1.886v-5.665h1.37v5.572c0 .65.182 1.168.545 1.555.368.387.836.581 1.405.581.34 0 .687-.088 1.039-.262.356-.174.654-.441.894-.801.243-.359.365-.818.365-1.375Zm-2.739-6.477 1.416-2.693h1.602l-1.811 2.693h-1.207Zm6.618 10.122v-8.915h1.323v1.393h.116c.186-.476.486-.846.9-1.109.414-.267.911-.4 1.491-.4.588 0 1.078.133 1.469.4.394.263.702.633.922 1.109h.093a2.598 2.598 0 0 1 1.028-1.097c.456-.275 1.004-.412 1.642-.412.797 0 1.449.249 1.956.749.507.495.76 1.267.76 2.315v5.967h-1.369v-5.967c0-.657-.18-1.128-.54-1.41a2.002 2.002 0 0 0-1.271-.424c-.627 0-1.113.19-1.457.569-.344.375-.517.851-.517 1.428v5.804h-1.392v-6.106c0-.507-.165-.915-.494-1.225-.329-.313-.752-.47-1.271-.47-.356 0-.689.095-.998.285a2.14 2.14 0 0 0-.743.789 2.329 2.329 0 0 0-.279 1.155v5.572h-1.369Zm17.942.185c-.859 0-1.6-.189-2.222-.568a3.814 3.814 0 0 1-1.434-1.602c-.333-.689-.499-1.49-.499-2.403s.166-1.718.499-2.414c.337-.701.805-1.246 1.405-1.637.603-.395 1.307-.592 2.112-.592.464 0 .923.077 1.376.232.452.155.864.406 1.236.755.371.344.667.8.888 1.369.22.569.331 1.269.331 2.101v.581h-6.872v-1.184h5.479c0-.503-.101-.952-.302-1.347a2.276 2.276 0 0 0-.847-.934c-.364-.229-.794-.343-1.289-.343-.545 0-1.017.136-1.416.407a2.672 2.672 0 0 0-.911 1.044c-.213.43-.319.89-.319 1.382v.789c0 .673.116 1.244.348 1.712.236.464.563.818.981 1.062.418.24.903.36 1.456.36.36 0 .685-.05.975-.151.295-.104.548-.259.761-.464.213-.209.377-.468.493-.778l1.323.372a2.938 2.938 0 0 1-.702 1.184 3.435 3.435 0 0 1-1.219.789c-.483.186-1.027.278-1.631.278Zm5.775-.185v-8.915h1.324v1.346h.092c.163-.441.457-.799.883-1.073a2.592 2.592 0 0 1 1.439-.412c.101 0 .226.002.377.005.151.004.265.01.343.018v1.393a3.855 3.855 0 0 0-.32-.052 3.137 3.137 0 0 0-.516-.041c-.433 0-.82.091-1.161.273a2.062 2.062 0 0 0-.801.743c-.193.313-.29.671-.29 1.073v5.642h-1.37Zm9.432.185c-.805 0-1.511-.191-2.119-.574-.603-.383-1.075-.919-1.416-1.608-.337-.689-.505-1.493-.505-2.414 0-.929.168-1.739.505-2.432.341-.693.813-1.23 1.416-1.614.608-.383 1.314-.574 2.119-.574.804 0 1.509.191 2.112.574.608.384 1.08.921 1.416 1.614.341.693.511 1.503.511 2.432 0 .921-.17 1.725-.511 2.414-.336.689-.808 1.225-1.416 1.608-.603.383-1.308.574-2.112.574Zm0-1.23c.611 0 1.114-.157 1.509-.47a2.78 2.78 0 0 0 .876-1.236c.19-.511.284-1.064.284-1.66 0-.596-.094-1.151-.284-1.666a2.817 2.817 0 0 0-.876-1.248c-.395-.317-.898-.476-1.509-.476-.612 0-1.115.159-1.509.476a2.811 2.811 0 0 0-.877 1.248 4.798 4.798 0 0 0-.284 1.666c0 .596.095 1.149.284 1.66.19.51.482.923.877 1.236.394.313.897.47 1.509.47Zm14.093 1.23c-.743 0-1.399-.187-1.968-.563-.568-.379-1.013-.913-1.334-1.601-.322-.693-.482-1.511-.482-2.455 0-.937.16-1.749.482-2.438.321-.689.768-1.221 1.34-1.596.573-.375 1.235-.563 1.985-.563.581 0 1.039.097 1.376.29.34.19.599.406.777.65.182.24.323.437.424.592h.116v-4.388h1.37v11.887h-1.323v-1.37h-.163a8.876 8.876 0 0 1-.429.615c-.186.244-.451.463-.796.656-.344.19-.802.284-1.375.284Zm.186-1.23c.549 0 1.013-.143 1.393-.429.379-.291.667-.691.864-1.202.198-.514.296-1.108.296-1.782 0-.665-.096-1.247-.29-1.747-.193-.503-.48-.893-.859-1.172-.379-.282-.847-.424-1.404-.424-.581 0-1.064.149-1.451.447-.383.294-.672.695-.865 1.202-.19.503-.284 1.068-.284 1.694 0 .635.096 1.211.29 1.73.197.515.487.925.87 1.23.387.302.867.453 1.44.453Zm10.336 1.23c-.859 0-1.6-.189-2.222-.568a3.814 3.814 0 0 1-1.434-1.602c-.333-.689-.499-1.49-.499-2.403s.166-1.718.499-2.414c.337-.701.805-1.246 1.404-1.637.604-.395 1.308-.592 2.113-.592.464 0 .923.077 1.376.232.452.155.864.406 1.236.755.371.344.667.8.888 1.369.22.569.331 1.269.331 2.101v.581h-6.872v-1.184h5.479c0-.503-.101-.952-.302-1.347a2.276 2.276 0 0 0-.847-.934c-.364-.229-.794-.343-1.289-.343-.545 0-1.018.136-1.416.407a2.672 2.672 0 0 0-.911 1.044c-.213.43-.319.89-.319 1.382v.789c0 .673.116 1.244.348 1.712.236.464.563.818.981 1.062.418.24.903.36 1.456.36.36 0 .685-.05.975-.151.295-.104.548-.259.761-.464.213-.209.377-.468.493-.778l1.323.372a2.938 2.938 0 0 1-.702 1.184 3.435 3.435 0 0 1-1.219.789c-.483.186-1.027.278-1.631.278Zm13.994 0c-.836 0-1.556-.197-2.159-.592a3.852 3.852 0 0 1-1.393-1.63c-.325-.693-.488-1.484-.488-2.374 0-.906.166-1.705.499-2.397.337-.697.805-1.24 1.405-1.631.603-.395 1.308-.592 2.112-.592.627 0 1.192.116 1.695.348a3.24 3.24 0 0 1 1.236.975c.321.418.521.906.598 1.463h-1.37c-.104-.407-.336-.766-.696-1.08-.356-.317-.836-.476-1.439-.476-.534 0-1.003.14-1.405.418-.398.275-.71.664-.934 1.167-.221.499-.331 1.085-.331 1.758 0 .689.108 1.289.325 1.8.22.51.53.907.928 1.189.403.283.875.424 1.417.424.356 0 .679-.062.969-.186a1.98 1.98 0 0 0 1.166-1.369h1.37c-.077.526-.269 1-.574 1.422-.302.417-.703.75-1.202.998-.495.244-1.072.365-1.729.365Zm8.131.024a3.618 3.618 0 0 1-1.538-.32 2.633 2.633 0 0 1-1.097-.934c-.271-.41-.406-.905-.406-1.486 0-.51.1-.925.301-1.242.202-.321.471-.572.807-.754a4.236 4.236 0 0 1 1.115-.407c.41-.092.822-.166 1.236-.22.541-.07.981-.122 1.317-.157.341-.039.588-.102.743-.191.159-.089.238-.244.238-.465v-.046c0-.573-.157-1.018-.47-1.335-.31-.317-.78-.476-1.41-.476-.654 0-1.167.143-1.538.43-.372.286-.633.592-.784.917l-1.3-.465c.232-.541.542-.963.929-1.265.39-.306.816-.518 1.276-.638a5.299 5.299 0 0 1 1.37-.186c.287 0 .615.035.987.104a3.16 3.16 0 0 1 1.085.412c.352.209.644.525.877.946.232.422.348.987.348 1.695v5.874h-1.37v-1.207h-.07c-.092.193-.247.4-.464.621-.217.22-.505.408-.865.563-.36.154-.799.232-1.317.232Zm.209-1.231c.541 0 .998-.106 1.37-.319a2.175 2.175 0 0 0 1.137-1.886v-1.254c-.058.07-.186.134-.383.192a6.612 6.612 0 0 1-.673.145 35.138 35.138 0 0 1-1.312.174 5.223 5.223 0 0 0-.998.226 1.727 1.727 0 0 0-.743.459c-.186.201-.279.476-.279.824 0 .476.176.836.528 1.079.356.24.807.36 1.353.36Zm6.377 1.022v-8.915h1.323v1.346h.093c.162-.441.457-.799.882-1.073a2.597 2.597 0 0 1 1.44-.412c.1 0 .226.002.377.005.151.004.265.01.342.018v1.393a3.802 3.802 0 0 0-.319-.052 3.158 3.158 0 0 0-.517-.041c-.433 0-.82.091-1.16.273a1.995 1.995 0 0 0-1.091 1.816v5.642h-1.37Zm10.516-8.915v1.161h-4.619v-1.161h4.619Zm-3.273-2.136h1.37v8.497c0 .387.056.677.168.871a.875.875 0 0 0 .441.383c.182.062.374.093.575.093.151 0 .275-.008.371-.024l.232-.046.279 1.23a2.76 2.76 0 0 1-.389.105 2.9 2.9 0 0 1-.632.058c-.387 0-.767-.083-1.138-.25a2.259 2.259 0 0 1-.917-.76c-.24-.341-.36-.77-.36-1.289v-8.868Zm7.957 11.26a3.621 3.621 0 0 1-1.538-.32 2.64 2.64 0 0 1-1.097-.934c-.271-.41-.406-.905-.406-1.486 0-.51.101-.925.302-1.242.201-.321.47-.572.807-.754a4.229 4.229 0 0 1 1.114-.407c.41-.092.822-.166 1.236-.22.542-.07.981-.122 1.318-.157.34-.039.588-.102.742-.191.159-.089.238-.244.238-.465v-.046c0-.573-.156-1.018-.47-1.335-.309-.317-.779-.476-1.41-.476-.654 0-1.167.143-1.538.43-.371.286-.633.592-.784.917l-1.3-.465c.233-.541.542-.963.929-1.265a3.473 3.473 0 0 1 1.277-.638 5.293 5.293 0 0 1 1.37-.186c.286 0 .615.035.986.104.376.066.737.203 1.086.412.352.209.644.525.876.946.232.422.348.987.348 1.695v5.874h-1.37v-1.207h-.069c-.093.193-.248.4-.465.621-.216.22-.504.408-.864.563-.36.154-.799.232-1.318.232Zm.209-1.231c.542 0 .998-.106 1.37-.319.375-.213.658-.487.847-.824.194-.337.29-.691.29-1.062v-1.254c-.058.07-.185.134-.383.192a6.554 6.554 0 0 1-.673.145 34.229 34.229 0 0 1-1.312.174 5.24 5.24 0 0 0-.998.226 1.733 1.733 0 0 0-.743.459c-.185.201-.278.476-.278.824 0 .476.176.836.528 1.079.356.24.807.36 1.352.36Zm-1.114-8.961-1.068-.046c0-.592.168-1.076.505-1.451.34-.38.76-.569 1.259-.569.221 0 .416.039.586.116.171.073.333.159.488.255.155.097.313.184.476.261.166.074.354.111.563.111.22 0 .406-.085.557-.256a.91.91 0 0 0 .232-.626l1.045.092c0 .604-.17 1.084-.511 1.44a1.653 1.653 0 0 1-1.253.534c-.267 0-.488-.037-.662-.111a2.588 2.588 0 0 1-.464-.261 3.042 3.042 0 0 0-.43-.255 1.218 1.218 0 0 0-.557-.116.691.691 0 0 0-.551.261.928.928 0 0 0-.215.621Zm11.113 10.168c-.805 0-1.511-.191-2.119-.574-.603-.383-1.075-.919-1.416-1.608-.336-.689-.505-1.493-.505-2.414 0-.929.169-1.739.505-2.432.341-.693.813-1.23 1.416-1.614.608-.383 1.314-.574 2.119-.574.805 0 1.509.191 2.112.574.608.384 1.08.921 1.417 1.614.34.693.51 1.503.51 2.432 0 .921-.17 1.725-.51 2.414-.337.689-.809 1.225-1.417 1.608-.603.383-1.307.574-2.112.574Zm0-1.23c.611 0 1.114-.157 1.509-.47.395-.313.687-.726.876-1.236.19-.511.285-1.064.285-1.66 0-.596-.095-1.151-.285-1.666a2.802 2.802 0 0 0-.876-1.248c-.395-.317-.898-.476-1.509-.476-.612 0-1.115.159-1.509.476a2.811 2.811 0 0 0-.877 1.248 4.798 4.798 0 0 0-.284 1.666c0 .596.095 1.149.284 1.66.19.51.482.923.877 1.236.394.313.897.47 1.509.47Zm14.093 1.23c-.743 0-1.399-.187-1.967-.563-.569-.379-1.014-.913-1.335-1.601-.321-.693-.482-1.511-.482-2.455 0-.937.161-1.749.482-2.438.321-.689.768-1.221 1.34-1.596.573-.375 1.235-.563 1.985-.563.581 0 1.039.097 1.376.29.34.19.6.406.778.65.181.24.323.437.423.592h.116v-4.388h1.37v11.887h-1.323v-1.37h-.163c-.1.163-.243.368-.429.615-.186.244-.451.463-.795.656-.345.19-.803.284-1.376.284Zm.186-1.23c.549 0 1.014-.143 1.393-.429.379-.291.667-.691.865-1.202.197-.514.296-1.108.296-1.782 0-.665-.097-1.247-.291-1.747-.193-.503-.479-.893-.859-1.172-.379-.282-.847-.424-1.404-.424-.581 0-1.064.149-1.451.447-.383.294-.671.695-.865 1.202a4.788 4.788 0 0 0-.284 1.694c0 .635.096 1.211.29 1.73.197.515.487.925.87 1.23.387.302.867.453 1.44.453Zm10.337 1.23c-.859 0-1.6-.189-2.223-.568a3.82 3.82 0 0 1-1.434-1.602c-.333-.689-.499-1.49-.499-2.403s.166-1.718.499-2.414c.337-.701.805-1.246 1.405-1.637.603-.395 1.308-.592 2.112-.592.465 0 .923.077 1.376.232.453.155.865.406 1.236.755.372.344.668.8.888 1.369.221.569.331 1.269.331 2.101v.581h-6.872v-1.184h5.479c0-.503-.101-.952-.302-1.347a2.276 2.276 0 0 0-.847-.934c-.364-.229-.793-.343-1.289-.343-.545 0-1.017.136-1.416.407a2.672 2.672 0 0 0-.911 1.044c-.213.43-.319.89-.319 1.382v.789c0 .673.116 1.244.348 1.712.236.464.563.818.981 1.062.418.24.903.36 1.457.36.359 0 .684-.05.975-.151.294-.104.547-.259.76-.464.213-.209.377-.468.493-.778l1.324.372c-.14.448-.374.843-.703 1.184a3.44 3.44 0 0 1-1.218.789 4.519 4.519 0 0 1-1.631.278Zm13.993 0c-.836 0-1.556-.197-2.159-.592a3.852 3.852 0 0 1-1.393-1.63c-.325-.693-.488-1.484-.488-2.374 0-.906.167-1.705.499-2.397.337-.697.805-1.24 1.405-1.631.604-.395 1.308-.592 2.113-.592a4 4 0 0 1 1.694.348c.503.232.915.557 1.237.975.321.418.52.906.597 1.463h-1.369c-.105-.407-.337-.766-.697-1.08-.356-.317-.836-.476-1.439-.476-.534 0-1.002.14-1.405.418-.398.275-.71.664-.934 1.167-.221.499-.331 1.085-.331 1.758 0 .689.108 1.289.325 1.8.221.51.53.907.929 1.189.402.283.874.424 1.416.424.356 0 .679-.062.969-.186a1.98 1.98 0 0 0 .737-.534c.201-.232.345-.51.43-.835h1.369c-.077.526-.269 1-.574 1.422-.302.417-.702.75-1.202.998-.495.244-1.071.365-1.729.365Zm5.508-.185v-8.915h1.323v1.346h.093c.162-.441.456-.799.882-1.073a2.594 2.594 0 0 1 1.439-.412c.101 0 .227.002.378.005.151.004.265.01.342.018v1.393a3.802 3.802 0 0 0-.319-.052 3.158 3.158 0 0 0-.517-.041c-.433 0-.82.091-1.16.273a1.995 1.995 0 0 0-1.092 1.816v5.642h-1.369Zm9.547.185c-.859 0-1.6-.189-2.223-.568a3.812 3.812 0 0 1-1.433-1.602c-.333-.689-.499-1.49-.499-2.403s.166-1.718.499-2.414c.336-.701.804-1.246 1.404-1.637.604-.395 1.308-.592 2.113-.592.464 0 .923.077 1.375.232.453.155.865.406 1.237.755.371.344.667.8.888 1.369.22.569.33 1.269.33 2.101v.581h-6.871v-1.184h5.478c0-.503-.1-.952-.301-1.347a2.279 2.279 0 0 0-.848-.934c-.363-.229-.793-.343-1.288-.343-.546 0-1.018.136-1.416.407a2.675 2.675 0 0 0-.912 1.044c-.212.43-.319.89-.319 1.382v.789c0 .673.116 1.244.348 1.712.237.464.563.818.981 1.062.418.24.904.36 1.457.36.36 0 .685-.05.975-.151.294-.104.548-.259.76-.464.213-.209.378-.468.494-.778l1.323.372a2.938 2.938 0 0 1-.702 1.184 3.435 3.435 0 0 1-1.219.789 4.515 4.515 0 0 1-1.631.278Zm-.836-10.307 1.417-2.693h1.601l-1.81 2.693h-1.208Zm9.977 10.307c-.743 0-1.398-.187-1.967-.563-.569-.379-1.014-.913-1.335-1.601-.321-.693-.482-1.511-.482-2.455 0-.937.161-1.749.482-2.438.321-.689.768-1.221 1.341-1.596.572-.375 1.234-.563 1.984-.563.581 0 1.039.097 1.376.29.34.19.6.406.778.65.182.24.323.437.423.592h.116v-4.388h1.37v11.887h-1.323v-1.37h-.163c-.1.163-.243.368-.429.615-.186.244-.451.463-.795.656-.345.19-.803.284-1.376.284Zm.186-1.23c.549 0 1.014-.143 1.393-.429.379-.291.667-.691.865-1.202.197-.514.296-1.108.296-1.782 0-.665-.097-1.247-.291-1.747-.193-.503-.479-.893-.858-1.172-.38-.282-.848-.424-1.405-.424-.58 0-1.064.149-1.451.447-.383.294-.671.695-.865 1.202a4.788 4.788 0 0 0-.284 1.694c0 .635.097 1.211.29 1.73.197.515.488.925.871 1.23.387.302.866.453 1.439.453Zm6.599 1.045v-8.915h1.37v8.915h-1.37Zm.696-10.401a.971.971 0 0 1-.69-.273.873.873 0 0 1-.285-.655c0-.256.095-.474.285-.656a.971.971 0 0 1 .69-.273c.267 0 .496.091.685.273.194.182.291.4.291.656a.865.865 0 0 1-.291.655.953.953 0 0 1-.685.273Zm7.059 1.486v1.161h-4.619v-1.161h4.619Zm-3.273-2.136h1.37v8.497c0 .387.056.677.168.871a.875.875 0 0 0 .441.383c.182.062.374.093.575.093.151 0 .274-.008.371-.024l.232-.046.279 1.23a2.8 2.8 0 0 1-.389.105 2.903 2.903 0 0 1-.633.058c-.386 0-.766-.083-1.137-.25a2.259 2.259 0 0 1-.917-.76c-.24-.341-.36-.77-.36-1.289v-8.868Zm8.86 11.236c-.805 0-1.511-.191-2.119-.574-.603-.383-1.075-.919-1.416-1.608-.336-.689-.505-1.493-.505-2.414 0-.929.169-1.739.505-2.432.341-.693.813-1.23 1.416-1.614.608-.383 1.314-.574 2.119-.574.805 0 1.509.191 2.112.574.608.384 1.08.921 1.416 1.614.341.693.511 1.503.511 2.432 0 .921-.17 1.725-.511 2.414-.336.689-.808 1.225-1.416 1.608-.603.383-1.307.574-2.112.574Zm0-1.23c.611 0 1.114-.157 1.509-.47.394-.313.687-.726.876-1.236.19-.511.285-1.064.285-1.66 0-.596-.095-1.151-.285-1.666a2.81 2.81 0 0 0-.876-1.248c-.395-.317-.898-.476-1.509-.476-.612 0-1.115.159-1.509.476a2.811 2.811 0 0 0-.877 1.248 4.798 4.798 0 0 0-.284 1.666c0 .596.095 1.149.284 1.66.19.51.482.923.877 1.236.394.313.897.47 1.509.47Z"/><rect width="11.236" height="11.236" x="100" y="535.751" fill="#C689FF" rx="2.043"/><path fill="#6D6D6E" d="M361.151 547.584c-.766 0-1.449-.131-2.049-.394-.596-.264-1.07-.629-1.422-1.097a2.944 2.944 0 0 1-.568-1.643h1.462c.031.383.163.714.395.993.232.274.536.487.911.638.375.151.791.226 1.248.226.511 0 .963-.089 1.358-.267.395-.178.704-.425.929-.743a1.86 1.86 0 0 0 .336-1.102c0-.438-.108-.822-.325-1.155-.217-.337-.534-.6-.952-.79-.418-.189-.928-.284-1.532-.284h-.952v-1.277h.952c.472 0 .886-.085 1.242-.255.36-.17.64-.41.842-.72.205-.309.307-.673.307-1.091 0-.402-.089-.753-.267-1.051a1.827 1.827 0 0 0-.754-.696c-.321-.166-.701-.25-1.138-.25a3 3 0 0 0-1.161.227 2.175 2.175 0 0 0-.882.644 1.677 1.677 0 0 0-.371 1.01h-1.393a2.83 2.83 0 0 1 .563-1.637 3.55 3.55 0 0 1 1.381-1.103 4.468 4.468 0 0 1 1.886-.394c.736 0 1.366.149 1.893.447.526.294.93.683 1.213 1.166.282.484.423 1.006.423 1.567 0 .67-.176 1.24-.528 1.712-.348.473-.822.799-1.422.981v.093c.751.124 1.337.443 1.759.958.421.511.632 1.143.632 1.898 0 .646-.176 1.226-.528 1.741a3.581 3.581 0 0 1-1.428 1.207c-.603.294-1.29.441-2.06.441Zm7.435-9.077 2.136 3.645 2.135-3.645h1.579l-2.879 4.457 2.879 4.458h-1.579l-2.135-3.459-2.136 3.459h-1.579l2.832-4.458-2.832-4.457h1.579ZM131.434 567.851h-1.439a2.985 2.985 0 0 0-1.214-1.88 3.244 3.244 0 0 0-.992-.488 3.978 3.978 0 0 0-1.138-.162 3.63 3.63 0 0 0-1.955.545c-.581.364-1.043.9-1.388 1.608-.34.708-.51 1.577-.51 2.606s.17 1.898.51 2.606c.345.708.807 1.244 1.388 1.608a3.63 3.63 0 0 0 1.955.545c.395 0 .774-.054 1.138-.162.364-.109.695-.269.992-.482a3.07 3.07 0 0 0 .767-.795c.212-.318.361-.681.447-1.091h1.439a4.787 4.787 0 0 1-.592 1.63 4.45 4.45 0 0 1-1.068 1.225 4.676 4.676 0 0 1-1.434.76 5.317 5.317 0 0 1-1.689.262c-1.013 0-1.915-.248-2.704-.743-.789-.496-1.41-1.2-1.863-2.113-.453-.913-.679-1.996-.679-3.25s.226-2.337.679-3.25c.453-.913 1.074-1.618 1.863-2.113.789-.495 1.691-.743 2.704-.743.6 0 1.163.087 1.689.261.53.174 1.008.43 1.434.766.426.333.782.74 1.068 1.219a4.74 4.74 0 0 1 .592 1.631Zm5.762 8.358c-.805 0-1.511-.192-2.119-.575-.603-.383-1.075-.919-1.416-1.607-.337-.689-.505-1.494-.505-2.415 0-.929.168-1.739.505-2.432.341-.692.813-1.23 1.416-1.613.608-.383 1.314-.575 2.119-.575.805 0 1.509.192 2.112.575.608.383 1.08.921 1.416 1.613.341.693.511 1.503.511 2.432 0 .921-.17 1.726-.511 2.415-.336.688-.808 1.224-1.416 1.607-.603.383-1.307.575-2.112.575Zm0-1.231c.611 0 1.114-.156 1.509-.47.394-.313.687-.725.876-1.236.19-.511.284-1.064.284-1.66 0-.596-.094-1.151-.284-1.666a2.807 2.807 0 0 0-.876-1.247c-.395-.318-.898-.476-1.509-.476-.612 0-1.115.158-1.509.476a2.808 2.808 0 0 0-.877 1.247 4.798 4.798 0 0 0-.284 1.666c0 .596.095 1.149.284 1.66.19.511.482.923.877 1.236.394.314.897.47 1.509.47Zm7.5-4.318v5.363h-1.37v-8.915h1.323v1.393h.116c.209-.452.527-.816.952-1.091.426-.278.975-.418 1.649-.418.603 0 1.131.124 1.584.372.453.243.805.615 1.056 1.114.252.495.378 1.122.378 1.88v5.665h-1.37v-5.572c0-.7-.182-1.246-.546-1.636-.363-.395-.863-.592-1.497-.592-.437 0-.828.094-1.172.284-.341.19-.61.466-.807.83-.198.364-.296.805-.296 1.323Zm12.068-3.552v1.161h-4.62v-1.161h4.62Zm-3.274-2.136h1.37v8.497c0 .387.056.677.168.871a.87.87 0 0 0 .441.383c.182.062.374.093.575.093.151 0 .275-.008.371-.023l.232-.047.279 1.231a2.929 2.929 0 0 1-.389.104 2.839 2.839 0 0 1-.632.058c-.387 0-.767-.083-1.138-.249a2.261 2.261 0 0 1-.917-.761c-.24-.34-.36-.77-.36-1.288v-8.869Zm7.957 11.26a3.62 3.62 0 0 1-1.538-.319 2.642 2.642 0 0 1-1.097-.935c-.271-.41-.406-.905-.406-1.485 0-.511.101-.925.302-1.242.201-.322.47-.573.807-.755a4.228 4.228 0 0 1 1.114-.406c.41-.093.822-.167 1.236-.221.542-.069.981-.122 1.318-.156.34-.039.588-.103.743-.192.158-.089.237-.244.237-.464v-.047c0-.572-.156-1.017-.47-1.335-.309-.317-.779-.476-1.41-.476-.654 0-1.167.144-1.538.43-.371.286-.633.592-.784.917l-1.3-.464c.233-.542.542-.964.929-1.266a3.488 3.488 0 0 1 1.277-.638 5.293 5.293 0 0 1 1.37-.186c.286 0 .615.035.986.105.376.065.737.203 1.086.412.352.209.644.524.876.946.232.422.348.986.348 1.695v5.873h-1.37v-1.207h-.069c-.093.193-.248.4-.464.621-.217.22-.505.408-.865.563-.36.155-.799.232-1.318.232Zm.209-1.23c.542 0 .998-.107 1.37-.32.375-.212.658-.487.847-.824.194-.336.29-.69.29-1.062v-1.254c-.058.07-.185.134-.383.192a6.298 6.298 0 0 1-.673.145 29.004 29.004 0 0 1-1.311.174 5.25 5.25 0 0 0-.999.227c-.305.1-.553.253-.743.458-.185.201-.278.476-.278.824 0 .476.176.836.528 1.08.356.24.807.36 1.352.36Zm14.34 1.207c-.743 0-1.399-.188-1.967-.563-.569-.379-1.014-.913-1.335-1.602-.321-.693-.482-1.511-.482-2.455 0-.936.161-1.749.482-2.438.321-.688.768-1.22 1.34-1.596.573-.375 1.235-.563 1.985-.563.581 0 1.039.097 1.376.29.34.19.6.407.778.65.182.24.323.438.423.592h.116v-4.387h1.37v11.886h-1.323v-1.37h-.163c-.1.163-.243.368-.429.616-.186.243-.451.462-.795.655-.345.19-.803.285-1.376.285Zm.186-1.231c.549 0 1.014-.143 1.393-.429.379-.29.667-.691.865-1.202.197-.514.296-1.108.296-1.781 0-.666-.097-1.248-.291-1.747-.193-.503-.479-.894-.859-1.173-.379-.282-.847-.423-1.404-.423-.58 0-1.064.149-1.451.447-.383.294-.671.694-.865 1.201a4.79 4.79 0 0 0-.284 1.695c0 .634.097 1.211.29 1.729.197.515.487.925.871 1.231.386.301.866.452 1.439.452Zm10.337 1.231c-.859 0-1.6-.19-2.223-.569a3.82 3.82 0 0 1-1.434-1.602c-.333-.689-.499-1.49-.499-2.403s.166-1.718.499-2.414c.337-.7.805-1.246 1.405-1.637.603-.394 1.308-.592 2.112-.592.465 0 .923.078 1.376.232.453.155.865.407 1.236.755.372.344.668.801.888 1.37.221.568.331 1.269.331 2.101v.58h-6.872v-1.184h5.479c0-.503-.101-.952-.302-1.347a2.276 2.276 0 0 0-.847-.934c-.364-.228-.793-.342-1.289-.342-.545 0-1.017.135-1.416.406a2.676 2.676 0 0 0-.911 1.045c-.213.429-.319.89-.319 1.381v.789c0 .674.116 1.244.348 1.712.236.465.563.819.981 1.063.418.239.903.359 1.457.359.359 0 .685-.05.975-.151.294-.104.547-.259.76-.464.213-.209.377-.468.493-.778l1.324.372c-.14.449-.374.843-.703 1.184-.329.337-.735.6-1.218.789a4.518 4.518 0 0 1-1.631.279Zm10.557-.186v-11.886h1.37v4.387h.116c.1-.154.24-.352.418-.592.181-.243.441-.46.777-.65.341-.193.801-.29 1.382-.29.75 0 1.412.188 1.985.563.572.376 1.019.908 1.34 1.596.321.689.482 1.502.482 2.438 0 .944-.161 1.762-.482 2.455-.321.689-.766 1.223-1.335 1.602-.568.375-1.224.563-1.967.563-.573 0-1.031-.095-1.376-.285-.344-.193-.609-.412-.795-.655a8.75 8.75 0 0 1-.429-.616h-.163v1.37h-1.323Zm1.346-4.457c0 .673.099 1.267.296 1.781.198.511.486.912.865 1.202.379.286.844.429 1.393.429.573 0 1.051-.151 1.434-.452.387-.306.677-.716.87-1.231a4.811 4.811 0 0 0 .296-1.729c0-.627-.096-1.192-.29-1.695-.189-.507-.478-.907-.865-1.201-.383-.298-.864-.447-1.445-.447-.557 0-1.025.141-1.404.423-.38.279-.666.67-.859 1.173-.194.499-.291 1.081-.291 1.747Zm11.243 4.666a3.618 3.618 0 0 1-1.538-.319 2.63 2.63 0 0 1-1.097-.935c-.271-.41-.407-.905-.407-1.485 0-.511.101-.925.302-1.242.201-.322.47-.573.807-.755a4.24 4.24 0 0 1 1.114-.406c.41-.093.822-.167 1.236-.221.542-.069.981-.122 1.318-.156.34-.039.588-.103.743-.192.159-.089.238-.244.238-.464v-.047c0-.572-.157-1.017-.47-1.335-.31-.317-.78-.476-1.411-.476-.654 0-1.166.144-1.538.43-.371.286-.632.592-.783.917l-1.3-.464c.232-.542.541-.964.928-1.266a3.496 3.496 0 0 1 1.277-.638 5.299 5.299 0 0 1 1.37-.186c.286 0 .615.035.987.105a3.14 3.14 0 0 1 1.085.412c.352.209.644.524.876.946.232.422.349.986.349 1.695v5.873h-1.37v-1.207h-.07a2.42 2.42 0 0 1-.464.621c-.217.22-.505.408-.865.563-.36.155-.799.232-1.317.232Zm.209-1.23c.541 0 .998-.107 1.369-.32.376-.212.658-.487.848-.824.193-.336.29-.69.29-1.062v-1.254c-.058.07-.186.134-.383.192a6.407 6.407 0 0 1-.673.145 29.727 29.727 0 0 1-1.312.174 5.223 5.223 0 0 0-.998.227 1.71 1.71 0 0 0-.743.458c-.186.201-.279.476-.279.824 0 .476.176.836.528 1.08.356.24.807.36 1.353.36Zm7.746-4.342v5.363h-1.369v-8.915h1.323v1.393h.116a2.55 2.55 0 0 1 .952-1.091c.425-.278.975-.418 1.648-.418.604 0 1.132.124 1.585.372.452.243.804.615 1.056 1.114.251.495.377 1.122.377 1.88v5.665h-1.37v-5.572c0-.7-.181-1.246-.545-1.636-.364-.395-.863-.592-1.498-.592-.437 0-.828.094-1.172.284-.34.19-.609.466-.807.83-.197.364-.296.805-.296 1.323Zm11.813 5.549c-.836 0-1.556-.198-2.159-.592a3.855 3.855 0 0 1-1.393-1.631c-.325-.693-.488-1.484-.488-2.374 0-.905.167-1.704.499-2.397.337-.696.805-1.24 1.405-1.631.603-.394 1.308-.592 2.112-.592.627 0 1.192.116 1.695.348a3.26 3.26 0 0 1 1.236.975c.322.418.521.906.598 1.463h-1.369c-.105-.406-.337-.766-.697-1.079-.356-.318-.836-.476-1.439-.476-.534 0-1.002.139-1.405.418-.398.274-.71.663-.934 1.166-.221.499-.331 1.085-.331 1.759 0 .688.108 1.288.325 1.799.22.511.53.907.929 1.19.402.282.874.423 1.416.423.356 0 .679-.062.969-.185.29-.124.536-.302.737-.534a2.06 2.06 0 0 0 .43-.836h1.369c-.077.526-.269 1-.574 1.422a3.208 3.208 0 0 1-1.202.998c-.495.244-1.072.366-1.729.366Zm9.129 0c-.805 0-1.511-.192-2.118-.575-.604-.383-1.076-.919-1.416-1.607-.337-.689-.505-1.494-.505-2.415 0-.929.168-1.739.505-2.432.34-.692.812-1.23 1.416-1.613.607-.383 1.313-.575 2.118-.575.805 0 1.509.192 2.113.575.607.383 1.079.921 1.416 1.613.34.693.511 1.503.511 2.432 0 .921-.171 1.726-.511 2.415-.337.688-.809 1.224-1.416 1.607-.604.383-1.308.575-2.113.575Zm0-1.231c.612 0 1.115-.156 1.509-.47.395-.313.687-.725.877-1.236a4.747 4.747 0 0 0 .284-1.66c0-.596-.095-1.151-.284-1.666a2.808 2.808 0 0 0-.877-1.247c-.394-.318-.897-.476-1.509-.476-.611 0-1.114.158-1.509.476a2.807 2.807 0 0 0-.876 1.247 4.775 4.775 0 0 0-.285 1.666c0 .596.095 1.149.285 1.66.189.511.482.923.876 1.236.395.314.898.47 1.509.47Z"/><rect width="11.236" height="11.236" x="100" y="564.353" fill="#AB71FF" rx="2.043"/><path fill="#6D6D6E" d="M356.135 576.023v-1.045l3.923-4.295c.461-.503.84-.94 1.138-1.311.298-.376.518-.728.661-1.057.147-.332.221-.681.221-1.044 0-.418-.101-.78-.302-1.086a1.966 1.966 0 0 0-.812-.708 2.644 2.644 0 0 0-1.161-.249c-.457 0-.855.095-1.196.284a1.956 1.956 0 0 0-.783.784c-.182.336-.273.731-.273 1.184h-1.37c0-.697.161-1.308.482-1.834a3.338 3.338 0 0 1 1.312-1.231c.557-.294 1.182-.441 1.874-.441.697 0 1.314.147 1.852.441.537.294.959.691 1.265 1.19.306.499.458 1.054.458 1.666 0 .437-.079.865-.238 1.282-.154.414-.425.877-.812 1.388-.383.506-.915 1.125-1.596 1.857l-2.67 2.855v.093h5.525v1.277h-7.498Zm10.94-8.915 2.136 3.645 2.136-3.645h1.578l-2.878 4.458 2.878 4.457h-1.578l-2.136-3.459-2.136 3.459h-1.579l2.833-4.457-2.833-4.458h1.579ZM131.898 598.681c0 1.254-.226 2.337-.679 3.251-.453.913-1.074 1.617-1.863 2.112-.789.496-1.691.743-2.705.743-1.013 0-1.915-.247-2.704-.743-.789-.495-1.41-1.199-1.863-2.112-.453-.914-.679-1.997-.679-3.251 0-1.253.226-2.337.679-3.25.453-.913 1.074-1.617 1.863-2.112.789-.496 1.691-.743 2.704-.743 1.014 0 1.916.247 2.705.743.789.495 1.41 1.199 1.863 2.112.453.913.679 1.997.679 3.25Zm-1.393 0c0-1.029-.172-1.897-.516-2.606-.341-.708-.803-1.243-1.387-1.607a3.598 3.598 0 0 0-1.951-.546c-.719 0-1.371.182-1.955.546-.581.364-1.043.899-1.388 1.607-.34.709-.51 1.577-.51 2.606 0 1.03.17 1.898.51 2.606.345.708.807 1.244 1.388 1.608a3.622 3.622 0 0 0 1.955.546c.72 0 1.37-.182 1.951-.546.584-.364 1.046-.9 1.387-1.608.344-.708.516-1.576.516-2.606Zm9.246 2.299v-5.27h1.37v8.915h-1.37v-1.509h-.093a2.936 2.936 0 0 1-.975 1.155c-.441.313-.998.47-1.672.47-.557 0-1.052-.122-1.485-.366-.434-.248-.774-.619-1.022-1.114-.247-.499-.371-1.128-.371-1.887v-5.664h1.369v5.572c0 .65.182 1.168.546 1.555.368.387.836.58 1.405.58.34 0 .686-.087 1.038-.261.356-.174.654-.441.894-.801.244-.36.366-.818.366-1.375Zm7.755-5.27v1.161h-4.62v-1.161h4.62Zm-3.273-2.136h1.37v8.497c0 .387.056.677.168.871a.875.875 0 0 0 .441.383c.182.061.373.092.575.092.151 0 .274-.007.371-.023l.232-.046.279 1.23a2.8 2.8 0 0 1-.389.105 2.903 2.903 0 0 1-.633.058c-.387 0-.766-.083-1.137-.25a2.259 2.259 0 0 1-.917-.76c-.24-.341-.36-.77-.36-1.289v-8.868Zm5.334 11.051v-8.915h1.323v1.346h.093c.162-.441.456-.799.882-1.073a2.594 2.594 0 0 1 1.439-.412c.101 0 .227.001.378.005s.265.01.342.018v1.393a4.107 4.107 0 0 0-.319-.053 3.161 3.161 0 0 0-.517-.04c-.433 0-.82.091-1.16.273a1.995 1.995 0 0 0-1.092 1.816v5.642h-1.369Zm9.431.185c-.805 0-1.511-.191-2.118-.574-.604-.383-1.076-.919-1.417-1.608-.336-.689-.504-1.493-.504-2.414 0-.929.168-1.74.504-2.432.341-.693.813-1.231 1.417-1.614.607-.383 1.313-.574 2.118-.574.805 0 1.509.191 2.113.574.607.383 1.079.921 1.416 1.614.34.692.511 1.503.511 2.432 0 .921-.171 1.725-.511 2.414-.337.689-.809 1.225-1.416 1.608-.604.383-1.308.574-2.113.574Zm0-1.23c.611 0 1.114-.157 1.509-.47a2.77 2.77 0 0 0 .876-1.236c.19-.511.285-1.064.285-1.66 0-.596-.095-1.151-.285-1.666a2.796 2.796 0 0 0-.876-1.248c-.395-.317-.898-.476-1.509-.476-.611 0-1.114.159-1.509.476a2.796 2.796 0 0 0-.876 1.248 4.775 4.775 0 0 0-.285 1.666c0 .596.095 1.149.285 1.66.189.51.481.922.876 1.236.395.313.898.47 1.509.47Zm12.445-5.874-1.23.349a2.297 2.297 0 0 0-.343-.598 1.66 1.66 0 0 0-.603-.488c-.256-.127-.583-.191-.981-.191-.546 0-1 .126-1.364.377-.36.248-.54.563-.54.946 0 .341.124.609.371.807.248.197.635.362 1.161.493l1.324.325c.797.194 1.391.49 1.781.888.391.395.587.904.587 1.527 0 .51-.147.967-.442 1.369-.29.403-.696.72-1.218.952-.523.232-1.13.348-1.823.348-.909 0-1.662-.197-2.258-.592-.595-.394-.973-.971-1.131-1.729l1.3-.325c.124.48.358.839.702 1.079.348.24.803.36 1.364.36.638 0 1.145-.135 1.521-.406.379-.275.568-.604.568-.987 0-.309-.108-.569-.325-.778-.216-.212-.549-.371-.998-.475l-1.486-.349c-.816-.193-1.416-.493-1.799-.899-.379-.41-.569-.923-.569-1.538 0-.503.142-.948.424-1.335a2.873 2.873 0 0 1 1.167-.911c.495-.221 1.056-.331 1.683-.331.882 0 1.575.193 2.078.58.506.387.866.898 1.079 1.532Z"/><rect width="11.236" height="11.236" x="100" y="592.954" fill="#45278D" rx="2.043"/><path fill="#6D6D6E" d="M361.314 592.738v11.887h-1.44v-10.378h-.069l-2.902 1.927v-1.462l2.971-1.974h1.44Zm4.463 2.972 2.136 3.645 2.135-3.645h1.579l-2.879 4.457 2.879 4.458h-1.579l-2.135-3.46-2.136 3.46h-1.579l2.832-4.458-2.832-4.457h1.579ZM121.869 489.196V477.31h7.174v1.277h-5.735v4.016h5.363v1.277h-5.363v4.039h5.828v1.277h-7.267Zm14.69-5.734v1.277h-5.201v-1.277h5.201Zm2.41 5.734v-8.914h1.323v1.392h.116c.186-.475.486-.845.9-1.108.414-.267.911-.401 1.491-.401.588 0 1.078.134 1.469.401.394.263.702.633.923 1.108h.092c.229-.46.571-.826 1.028-1.096.456-.275 1.004-.413 1.642-.413.797 0 1.449.25 1.956.749.507.495.76 1.267.76 2.316v5.966H149.3v-5.966c0-.658-.18-1.128-.54-1.41a1.996 1.996 0 0 0-1.271-.424c-.627 0-1.113.19-1.457.569-.344.375-.516.851-.516 1.427v5.804h-1.393v-6.105c0-.507-.165-.915-.494-1.225-.329-.313-.752-.47-1.271-.47-.356 0-.688.095-.998.284a2.15 2.15 0 0 0-.743.79 2.323 2.323 0 0 0-.278 1.155v5.571h-1.37Zm16.828.209a3.62 3.62 0 0 1-1.538-.319 2.647 2.647 0 0 1-1.097-.934c-.271-.41-.406-.906-.406-1.486 0-.511.101-.925.302-1.242.201-.321.47-.573.806-.755a4.248 4.248 0 0 1 1.115-.406c.41-.093.822-.166 1.236-.221.542-.069.981-.121 1.318-.156.34-.039.588-.103.742-.192.159-.089.238-.244.238-.464v-.046c0-.573-.156-1.018-.47-1.335-.309-.318-.779-.476-1.41-.476-.654 0-1.167.143-1.538.429-.372.287-.633.592-.784.917l-1.3-.464c.232-.542.542-.964.929-1.265a3.475 3.475 0 0 1 1.277-.639 5.293 5.293 0 0 1 1.37-.186c.286 0 .615.035.986.105.375.066.737.203 1.086.412.352.209.644.524.876.946.232.422.348.987.348 1.695v5.873h-1.37v-1.207h-.069a2.393 2.393 0 0 1-.465.621c-.216.221-.504.408-.864.563-.36.155-.799.232-1.318.232Zm.209-1.23c.542 0 .998-.107 1.37-.319a2.17 2.17 0 0 0 .847-.825c.194-.336.29-.69.29-1.062v-1.253c-.058.069-.185.133-.383.191a6.352 6.352 0 0 1-.673.145 29.004 29.004 0 0 1-1.312.174 5.24 5.24 0 0 0-.998.227c-.306.1-.553.253-.743.458-.185.202-.278.476-.278.824 0 .476.176.836.528 1.08.356.24.807.36 1.352.36Zm6.377 1.021v-8.914h1.37v8.914h-1.37Zm.697-10.4a.973.973 0 0 1-.691-.273.874.874 0 0 1-.284-.656c0-.255.094-.474.284-.656a.973.973 0 0 1 .691-.272.95.95 0 0 1 .684.272.868.868 0 0 1 .291.656.867.867 0 0 1-.291.656.95.95 0 0 1-.684.273Zm4.551-1.486v11.886h-1.369V477.31h1.369ZM355.856 486.759v-1.184l5.224-8.265h.859v1.834h-.581l-3.946 6.245v.093h7.034v1.277h-8.59Zm5.595 2.437V477.31h1.37v11.886h-1.37Zm6.215-8.914 2.135 3.644 2.136-3.644h1.579l-2.879 4.457 2.879 4.457h-1.579l-2.136-3.459-2.135 3.459h-1.579l2.832-4.457-2.832-4.457h1.579Z"/><rect width="11.236" height="11.236" x="100" y="477.526" fill="#592ACB" rx="2.043"/><path fill="#C689FF" d="M265.793 175.159a137.864 137.864 0 0 1 22.32 7.786l-16.923 37.75a96.602 96.602 0 0 0-15.624-5.45l10.227-40.086Z"/><path fill="#AB71FF" d="M288.07 182.925a137.948 137.948 0 0 1 20.666 11.476l-23.11 34.313a96.619 96.619 0 0 0-14.466-8.033l16.91-37.756Z"/><path fill="#45278D" d="M308.104 193.978a137.798 137.798 0 0 1 18.484 14.735l-28.466 30.02a96.49 96.49 0 0 0-12.939-10.315l22.921-34.44Z"/><path fill="#89CFF5" d="M106.557 366.702a137.895 137.895 0 0 1 13.868-139.372l33.384 24.435a96.523 96.523 0 0 0-18.162 47.456 96.524 96.524 0 0 0 8.453 50.105l-37.543 17.376Z"/><path fill="#89CFF5" d="M120.206 227.631A137.887 137.887 0 0 1 177.449 182a137.89 137.89 0 0 1 72.532-9.904l-5.484 41.005a96.522 96.522 0 0 0-90.842 38.875l-33.449-24.345Z"/><path fill="#592ACB" d="M326.588 208.712a137.914 137.914 0 0 1 42.7 109.392 137.886 137.886 0 0 1-57.071 102.63 137.894 137.894 0 0 1-168.929-6.127 137.9 137.9 0 0 1-36.644-47.717l37.517-17.433a96.532 96.532 0 0 0 183.851-34.15 96.527 96.527 0 0 0-29.89-76.574l28.466-30.021Z"/><path fill="#9059FF" d="M106.635 366.872a137.903 137.903 0 0 1 83.308-189.518 137.901 137.901 0 0 1 76.99-1.899l-10.569 39.997a96.523 96.523 0 0 0-53.893 1.33 96.535 96.535 0 0 0-66.47 79.373 96.525 96.525 0 0 0 8.155 53.289l-37.521 17.428Z"/><circle cx="231.703" cy="307.247" r="96.53" fill="#fff"/><path fill="#2A2A2A" d="M221.584 281.881v36.979h-6.699v-30.461h-.217l-8.649 5.525v-6.139l9.191-5.904h6.374Zm8.721 30.118v-5.327l15.692-24.791h8.342v24.611h4.73v5.507h-4.73v6.861h-6.392v-6.861h-17.642Zm17.714-5.507v-17.028h-.289l-10.563 16.739v.289h10.852Z"/><path fill="#5B5B5B" d="M176.845 354.114v-15.272h9.575v1.983h-7.271v4.654h6.772v1.976h-6.772v4.676h7.361v1.983h-9.665Zm14.234-11.454 2.528 4.459 2.551-4.459h2.438l-3.572 5.727 3.602 5.727h-2.438l-2.581-4.28-2.572 4.28h-2.446l3.564-5.727-3.52-5.727h2.446Zm9.807 15.75v-15.75h2.177v1.857h.187c.395-.709 1.163-2.006 3.288-2.006 2.767 0 4.81 2.185 4.81 5.898 0 3.707-2.013 5.929-4.787 5.929-2.088 0-2.909-1.275-3.311-2.006h-.134v6.078h-2.23Zm2.185-10.023c0 2.409 1.074 4.049 2.99 4.049 1.991 0 3.035-1.752 3.035-4.049 0-2.274-1.014-3.982-3.035-3.982-1.946 0-2.99 1.588-2.99 3.982Zm15.601 5.959c-3.229 0-5.34-2.364-5.34-5.907 0-3.564 2.111-5.928 5.34-5.928 3.229 0 5.339 2.364 5.339 5.928 0 3.543-2.11 5.907-5.339 5.907Zm.007-1.872c2.096 0 3.08-1.842 3.08-4.042 0-2.193-.984-4.057-3.08-4.057-2.11 0-3.095 1.864-3.095 4.057 0 2.2.985 4.042 3.095 4.042Zm16.404-7.018-2.02.358c-.261-.768-.903-1.536-2.29-1.536-1.268 0-2.222.627-2.215 1.506-.007.776.537 1.201 1.798 1.499l1.819.418c2.103.485 3.132 1.484 3.132 3.102 0 2.073-1.916 3.543-4.683 3.543-2.573 0-4.258-1.141-4.631-3.17l2.155-.328c.269 1.126 1.126 1.7 2.461 1.7 1.462 0 2.409-.693 2.409-1.581 0-.716-.515-1.208-1.618-1.454l-1.939-.425c-2.148-.477-3.132-1.558-3.132-3.184 0-2.029 1.834-3.393 4.422-3.393 2.476 0 3.87 1.163 4.332 2.945Zm2.676 8.658V342.66h2.23v11.454h-2.23Zm1.126-13.222c-.776 0-1.41-.596-1.41-1.327s.634-1.335 1.41-1.335c.768 0 1.409.604 1.409 1.335s-.641 1.327-1.409 1.327Zm9.532 13.424-.067.35c.858.134 1.618.656 1.618 1.783.008 1.349-1.193 2.259-3.4 2.259l-.045-1.245c1.029 0 1.738-.284 1.745-.947.008-.664-.47-.88-1.566-.985l.261-1.245c-2.819-.38-4.489-2.7-4.489-5.847 0-3.497 2.088-5.928 5.317-5.928 2.602 0 4.489 1.536 4.728 3.848h-2.17c-.239-1.074-1.104-1.969-2.521-1.969-1.864 0-3.102 1.544-3.102 3.997 0 2.498 1.215 4.072 3.102 4.072 1.275 0 2.237-.731 2.521-1.969h2.17c-.224 2.058-1.738 3.602-4.102 3.826Zm11.311.03c-3.229 0-5.339-2.364-5.339-5.907 0-3.564 2.11-5.928 5.339-5.928 3.229 0 5.34 2.364 5.34 5.928 0 3.543-2.111 5.907-5.34 5.907Zm.008-1.872c2.095 0 3.08-1.842 3.08-4.042 0-2.193-.985-4.057-3.08-4.057-2.111 0-3.095 1.864-3.095 4.057 0 2.2.984 4.042 3.095 4.042Zm-2.252-11.201-1.499-.045c0-1.648 1.006-2.714 2.319-2.714 1.215 0 1.723 1.006 2.722 1.006.574 0 .969-.492.977-1.141l1.469.097c0 1.663-1.014 2.67-2.319 2.677-1.41 0-1.663-1.014-2.722-1.014-.552 0-.947.485-.947 1.134Zm15.009 13.073c-3.378 0-5.451-2.327-5.451-5.884 0-3.52 2.103-5.951 5.295-5.951 2.595 0 5.071 1.618 5.071 5.757v.79h-8.144c.06 2.208 1.343 3.446 3.252 3.446 1.268 0 2.237-.552 2.64-1.634l2.11.381c-.507 1.864-2.274 3.095-4.773 3.095Zm-3.221-6.958h5.951c-.008-1.753-1.141-3.035-2.871-3.035-1.812 0-2.991 1.409-3.08 3.035Zm19.193-1.932-2.021.358c-.261-.768-.902-1.536-2.289-1.536-1.268 0-2.222.627-2.215 1.506-.007.776.537 1.201 1.797 1.499l1.82.418c2.103.485 3.132 1.484 3.132 3.102 0 2.073-1.917 3.543-4.683 3.543-2.573 0-4.258-1.141-4.631-3.17l2.155-.328c.268 1.126 1.126 1.7 2.461 1.7 1.462 0 2.409-.693 2.409-1.581 0-.716-.515-1.208-1.619-1.454l-1.939-.425c-2.147-.477-3.132-1.558-3.132-3.184 0-2.029 1.835-3.393 4.423-3.393 2.475 0 3.87 1.163 4.332 2.945Z"/><defs><linearGradient id="a" x1="468.816" x2="468.816" y1="104.926" y2="196.576" gradientUnits="userSpaceOnUse"><stop stop-color="#8060FE"/><stop offset="1" stop-color="#626BFA"/></linearGradient><linearGradient id="c" x1="124.726" x2="106.795" y1="68.128" y2="99.183" gradientUnits="userSpaceOnUse"><stop stop-color="#FF980E"/><stop offset=".21" stop-color="#FF7139"/><stop offset=".36" stop-color="#FF5854"/><stop offset=".46" stop-color="#FF4F5E"/><stop offset=".69" stop-color="#FF3750"/><stop offset=".86" stop-color="#F92261"/><stop offset="1" stop-color="#F5156C"/></linearGradient><linearGradient id="d" x1="124.726" x2="106.795" y1="68.128" y2="99.183" gradientUnits="userSpaceOnUse"><stop stop-color="#FFF44F" stop-opacity=".8"/><stop offset=".09" stop-color="#FFF44F" stop-opacity=".7"/><stop offset=".75" stop-color="#FFF44F" stop-opacity="0"/></linearGradient><linearGradient id="e" x1="126.178" x2="126.178" y1="104.18" y2="65.704" gradientUnits="userSpaceOnUse"><stop stop-color="#3A8EE6"/><stop offset=".24" stop-color="#5C79F0"/><stop offset=".63" stop-color="#9059FF"/><stop offset="1" stop-color="#C139E6"/></linearGradient><linearGradient id="f" x1="119.637" x2="135.628" y1="65.565" y2="81.555" gradientUnits="userSpaceOnUse"><stop stop-color="#6E008B" stop-opacity=".5"/><stop offset=".5" stop-color="#C846CB" stop-opacity="0"/></linearGradient><linearGradient id="g" x1="134.122" x2="126.612" y1="85.346" y2="92.855" gradientUnits="userSpaceOnUse"><stop offset=".14" stop-color="#6A2BEA" stop-opacity="0"/><stop offset=".34" stop-color="#642DE4" stop-opacity=".03"/><stop offset=".55" stop-color="#5131D3" stop-opacity=".12"/><stop offset=".76" stop-color="#3139B7" stop-opacity=".27"/><stop offset=".98" stop-color="#054490" stop-opacity=".48"/><stop offset="1" stop-color="#00458B" stop-opacity=".5"/></linearGradient><linearGradient id="h" x1="122.076" x2="124.253" y1="91.805" y2="94.4" gradientUnits="userSpaceOnUse"><stop stop-color="#960E18" stop-opacity=".6"/><stop offset=".19" stop-color="#AC1624" stop-opacity=".48"/><stop offset=".58" stop-color="#E42C41" stop-opacity=".16"/><stop offset=".75" stop-color="#FF3750" stop-opacity="0"/></linearGradient></defs></svg>
