<svg width="16" height="16" viewBox="0 0 16 16" fill="none" xmlns="http://www.w3.org/2000/svg">
<g clip-path="url(#clip0_222_6220)">
<path d="M14.8005 8.25C15.5705 7.48 16.0005 6.45 16.0005 5.35C16.0005 4.25 15.5705 3.23 14.8005 2.45C14.0305 1.68 13.0005 1.25 11.9005 1.25C10.8005 1.25 9.78047 1.68 9.00047 2.45L7.99047 3.46L6.98047 2.45C6.21047 1.68 5.18047 1.25 4.08047 1.25C2.98047 1.25 1.96047 1.68 1.18047 2.45C0.410469 3.22 -0.0195313 4.25 -0.0195313 5.35C-0.0195313 6.45 0.410469 7.47 1.18047 8.25L7.98047 15.05L14.7805 8.25H14.8005Z" fill="#FF8A50"/>
</g>
<defs>
<clipPath id="clip0_222_6220">
<rect width="16" height="16" fill="white"/>
</clipPath>
</defs>
</svg>
