<svg width="12" height="12" viewBox="0 0 12 12" fill="none" xmlns="http://www.w3.org/2000/svg">
<g clip-path="url(#clip0_173_1697)">
<path d="M2.865 5.6925C2.7375 5.7825 2.61 5.88 2.4675 5.9625L1.305 6.69L1.8975 7.6425L3.06 6.915C3.3 6.765 3.525 6.6075 3.7425 6.4425C3.96 6.6075 4.185 6.765 4.425 6.915L5.5875 7.6425L6.18 6.69L5.0175 5.9625C4.875 5.8725 4.755 5.7825 4.62 5.6925C5.6475 4.6875 6.2625 3.525 6.405 2.3025H7.485V1.1775L4.2975 1.1775V0L3.1725 0V1.1775L0 1.1775L0 2.3025H1.08C1.2225 3.5325 1.8375 4.6875 2.865 5.6925ZM3.75 4.9875C2.8875 4.1775 2.3625 3.2625 2.2125 2.3025H5.295C5.145 3.2625 4.62 4.1775 3.7575 4.9875H3.75Z" fill="#333336"/>
<path d="M6 12H7.29L7.7325 10.5225H10.215L10.6575 12H12L9.81 5.25L8.175 5.25L6 12ZM9.0525 6.6675L9.8925 9.465H8.04L8.8725 6.6675H9.0525Z" fill="#333336"/>
</g>
<defs>
<clipPath id="clip0_173_1697">
<rect width="12" height="12" fill="white"/>
</clipPath>
</defs>
</svg>
