<?xml version="1.0" encoding="utf-8"?>
<svg xmlns="http://www.w3.org/2000/svg" viewBox="0 0 39 39">
  <path d="M 14.102 35.002 C 13.98 35.123 13.82 35.197 13.648 35.212 L 3.672 25.23 C 3.686 25.058 3.761 24.897 3.882 24.775 L 20.409 8.25 C 20.694 7.966 21.155 7.966 21.439 8.25 L 30.632 17.444 C 30.916 17.729 30.916 18.189 30.632 18.474 L 14.107 34.997 L 14.102 35.001 L 14.102 35.002 Z" stroke="#231f20" stroke-linecap="round" stroke-linejoin="round" fill="none" stroke-width="2.5"/>
  <path d="M 26.997 1.659 C 27.852 0.805 29.236 0.805 30.09 1.659 L 37.22 8.789 C 38.074 9.643 38.074 11.029 37.22 11.882 L 31.141 17.962 L 20.918 7.738 L 26.998 1.658 L 26.997 1.659 Z" fill="none" stroke="#231f20" stroke-width="2.5"/>
  <path d="M 23.27 15.609 L 13.36 25.519" fill="none" stroke="#231f20" stroke-linecap="round" stroke-linejoin="round" stroke-width="2.5"/>
  <path d="M 13.648 35.215 L 1.936 37.738 C 1.486 37.776 1.109 37.398 1.15 36.948 L 3.673 25.232" fill="none" stroke-width="2.5"/>
  <path d="M 13.648 35.215 L 1.936 37.738 C 1.486 37.776 1.109 37.398 1.15 36.948 L 3.673 25.232" fill="none" stroke="#231f20" stroke-width="2.5"/>
  <path d="M 6.194 36.811 L 2.994 37.982 L 1.14 37.738 L 1.14 35.46 L 2.062 32.684 L 6.194 36.815 L 6.194 36.811 Z" fill="#231f20" stroke-width="1"/>
  <path d="M 13.916 35.186 L 3.693 24.962 L 13.916 35.186 Z" stroke-width="1"/>
  <path d="M 13.916 35.186 L 3.693 24.962" fill="none" stroke="#231f20" stroke-width="1"/>
</svg>
