<?xml version="1.0" encoding="utf-8"?>
<svg width="108px" height="82px" viewBox="0 0 108 82" fill="none" xmlns="http://www.w3.org/2000/svg">
  <path d="M1 6.74504C1 3.56942 3.58537 1 6.78069 1H101.337C104.526 1 107.118 3.56942 107.118 6.74504V22.2236H1V6.74504Z" stroke="#333336"/>
  <path d="M1 22.2236H107.118V75.099C107.118 78.2989 104.532 80.9006 101.337 80.9006H6.78069C3.5923 80.9006 1 78.3058 1 75.099V22.2236Z" stroke="#333336"/>
  <path d="M61.8075 10.1074L57.8514 19.1074C57.2704 20.4292 58.2385 21.9122 59.6823 21.9122H88.5547C89.9985 21.9122 90.9666 20.4292 90.3857 19.1074L86.4296 10.1074C86.1104 9.38115 85.392 8.91223 84.5987 8.91223H63.6384C62.845 8.91223 62.1267 9.38115 61.8075 10.1074Z" fill="#FFB279" stroke="#333336"/>
  <path d="M3.61853 21.9122L8.64558 10.1275C8.95997 9.39047 9.68391 8.91223 10.4852 8.91223H37.6185" stroke="#333336"/>
  <path d="M20.6185 21.9122L25.8019 10.1081C26.121 9.38147 26.8396 8.91223 27.6332 8.91223H55.6185" stroke="#333336"/>
  <path d="M38.6185 21.9122L43.8019 10.1081C44.121 9.38147 44.8396 8.91223 45.6332 8.91223H73.6185" stroke="#333336"/>
  <path fill-rule="evenodd" clip-rule="evenodd" d="M97.2773 8.91223V16.2334V8.91223Z" fill="#FFB279"/>
  <path d="M97.2773 8.91223V16.2334" stroke="#333336" stroke-linecap="round" stroke-linejoin="round"/>
  <path fill-rule="evenodd" clip-rule="evenodd" d="M93.6185 12.5721H100.94H93.6185Z" fill="#FFB279"/>
  <path d="M93.6185 12.5721H100.94" stroke="#333336" stroke-linecap="round" stroke-linejoin="round"/>
</svg>