<svg width="63" height="82" viewBox="0 0 63 82" fill="none" xmlns="http://www.w3.org/2000/svg">
<path d="M53.6661 53.6578V7.58116C53.6661 3.94736 50.7231 1 47.085 1H7.5897C3.95164 1 1 3.94736 1 7.58116V66.8201C1 70.4539 3.95593 73.4013 7.5897 73.4013H33.9099L53.6618 53.6535L53.6661 53.6578Z" fill="#F8F6F4" stroke="#333336" stroke-linecap="round" stroke-linejoin="round"/>
<path d="M53.6653 53.658H33.9133V73.4057" stroke="#333336" stroke-linecap="round" stroke-linejoin="round"/>
<path d="M61.8921 61.2494V15.1727C61.8921 11.5389 58.9491 8.59155 55.311 8.59155H15.82C12.1819 8.59155 9.23029 11.5389 9.23029 15.1727V74.4117C9.23029 78.0455 12.1862 80.9928 15.82 80.9928H42.1402L61.8921 61.2451V61.2494Z" fill="#F8F6F4" stroke="#333336" stroke-linecap="round" stroke-linejoin="round"/>
<path d="M61.8917 61.2529H42.1398V81.0007" stroke="#333336" stroke-linecap="round" stroke-linejoin="round"/>
<path d="M31.6473 55.7988C31.5229 55.9189 31.3642 55.9961 31.1926 56.009L19.4804 58.5316C19.0299 58.5702 18.6567 58.1927 18.6953 57.7422L21.2179 46.0257C21.2308 45.8541 21.308 45.6911 21.4282 45.5709L37.9539 29.0451C38.237 28.762 38.7004 28.762 38.9835 29.0451L48.1774 38.239C48.4605 38.5222 48.4605 38.9855 48.1774 39.2687L31.6516 55.7945L31.6473 55.7988Z" fill="#FFD567" stroke="#333336" stroke-linecap="round" stroke-linejoin="round"/>
<path d="M44.5421 22.455C45.3959 21.6013 46.7816 21.6013 47.6353 22.455L54.7656 29.5853C55.6193 30.4391 55.6193 31.8248 54.7656 32.6785L48.6864 38.7577L38.463 28.5342L44.5421 22.455Z" fill="#F8F6F4" stroke="#333336"/>
<path d="M40.815 36.4052L30.9047 46.3155" stroke="#333336" stroke-linecap="round" stroke-linejoin="round"/>
<path d="M31.1926 56.0115L19.4804 58.5341C19.0299 58.5727 18.6567 58.1952 18.6953 57.7447L21.2179 46.0282" fill="#F8F6F4"/>
<path d="M31.1926 56.0115L19.4804 58.5341C19.0299 58.5727 18.6567 58.1952 18.6953 57.7447L21.2179 46.0282" stroke="#333336"/>
<path d="M23.7386 57.6074L20.5382 58.7786L18.6848 58.5341V56.256L19.6072 53.4802L23.7386 57.6117V57.6074Z" fill="#333336"/>
<path d="M31.4612 55.9823L21.2377 45.7588Z" fill="#F8F6F4"/>
<path d="M31.4612 55.9823L21.2377 45.7588" stroke="#333336"/>
</svg>
