<svg width="108" height="82" viewBox="0 0 108 82" fill="none" xmlns="http://www.w3.org/2000/svg">
<path d="M1 6.74504C1 3.56942 3.58537 1 6.78069 1H101.337C104.526 1 107.118 3.56942 107.118 6.74504V22.2236H1V6.74504Z" stroke="#F8F6F4"/>
<path d="M1 22.2236H107.118V75.099C107.118 78.2989 104.532 80.9006 101.337 80.9006H6.78069C3.5923 80.9006 1 78.3058 1 75.099V22.2236Z" stroke="#F8F6F4"/>
<path d="M47.3872 10.2757L44.3656 19.2757C43.9306 20.5715 44.8947 21.9122 46.2616 21.9122H67.4317C68.7986 21.9122 69.7627 20.5715 69.3277 19.2757L66.3061 10.2757C66.0326 9.4611 65.2694 8.91223 64.4101 8.91223H49.2832C48.4239 8.91223 47.6607 9.4611 47.3872 10.2757Z" fill="#FFD567" stroke="#F8F6F4"/>
<path d="M3 21.9122L6.78575 10.2927C7.05398 9.4694 7.82151 8.91223 8.68737 8.91223H28.9686" stroke="#F8F6F4"/>
<path d="M15.9844 21.9122L19.887 10.2763C20.1603 9.46138 20.9237 8.91223 21.7832 8.91223H42.7167" stroke="#F8F6F4"/>
<path d="M29.7324 21.9122L33.635 10.2763C33.9083 9.46138 34.6717 8.91223 35.5312 8.91223H56.4648" stroke="#F8F6F4"/>
<path fill-rule="evenodd" clip-rule="evenodd" d="M74.5348 8.91223V16.2334Z" fill="#FFEA80"/>
<path d="M74.5348 8.91223V16.2334" stroke="#F8F6F4" stroke-linecap="round" stroke-linejoin="round"/>
<path fill-rule="evenodd" clip-rule="evenodd" d="M71.7402 12.5721H77.332Z" fill="#FFEA80"/>
<path d="M71.7402 12.5721H77.332" stroke="#F8F6F4" stroke-linecap="round" stroke-linejoin="round"/>
</svg>
