<svg width="141" height="96" viewBox="0 0 141 96" fill="none" xmlns="http://www.w3.org/2000/svg">
<rect x="1" y="1.17065" width="138.938" height="93.6588" rx="4.30964" stroke="#333336" stroke-linecap="round" stroke-linejoin="round"/>
<path d="M8.34085 10.2477C9.4711 10.2477 10.3873 9.3314 10.3873 8.20116C10.3873 7.07091 9.4711 6.15466 8.34085 6.15466C7.2106 6.15466 6.29436 7.07091 6.29436 8.20116C6.29436 9.3314 7.2106 10.2477 8.34085 10.2477Z" stroke="#333336" stroke-linecap="round" stroke-linejoin="round"/>
<path d="M15.8242 10.2477C16.9544 10.2477 17.8707 9.3314 17.8707 8.20116C17.8707 7.07091 16.9544 6.15466 15.8242 6.15466C14.6939 6.15466 13.7777 7.07091 13.7777 8.20116C13.7777 9.3314 14.6939 10.2477 15.8242 10.2477Z" stroke="#333336" stroke-linecap="round" stroke-linejoin="round"/>
<path d="M23.3075 10.2477C24.4378 10.2477 25.354 9.3314 25.354 8.20116C25.354 7.07091 24.4378 6.15466 23.3075 6.15466C22.1773 6.15466 21.261 7.07091 21.261 8.20116C21.261 9.3314 22.1773 10.2477 23.3075 10.2477Z" stroke="#333336" stroke-linecap="round" stroke-linejoin="round"/>
<path d="M1 15.1746H139.938" stroke="#333336" stroke-linecap="round" stroke-linejoin="round"/>
<path d="M40.1782 15.1746L40.1782 94.5899" stroke="#333336" stroke-linecap="round" stroke-linejoin="round"/>
<rect x="5.23548" y="20.469" width="30.7073" height="7.25982" rx="0.861928" fill="#CCEDFE" stroke="#333336" stroke-width="0.861928" stroke-linecap="round" stroke-linejoin="round"/>
<rect x="5.23548" y="57.4091" width="30.7073" height="7.25982" rx="0.861928" fill="#CCEDFE" stroke="#333336" stroke-width="0.861928" stroke-linecap="round" stroke-linejoin="round"/>
<rect x="5.23548" y="32.7823" width="30.7073" height="7.25982" rx="0.861928" fill="#CCEDFE" stroke="#333336" stroke-width="0.861928" stroke-linecap="round" stroke-linejoin="round"/>
<rect x="5.23548" y="69.7224" width="30.7073" height="7.25981" rx="0.861928" fill="#CCEDFE" stroke="#333336" stroke-width="0.861928" stroke-linecap="round" stroke-linejoin="round"/>
<rect x="5.23548" y="45.0957" width="30.7073" height="7.25981" rx="0.861928" fill="#CCEDFE" stroke="#333336" stroke-width="0.861928" stroke-linecap="round" stroke-linejoin="round"/>
<rect x="5.23548" y="82.0359" width="30.7073" height="7.25981" rx="0.861928" fill="#CCEDFE" stroke="#333336" stroke-width="0.861928" stroke-linecap="round" stroke-linejoin="round"/>
</svg>
