<svg width="209" height="70" fill="none" xmlns="http://www.w3.org/2000/svg"><path d="M65.436 23.746c-1.463-3.522-4.432-7.324-6.757-8.526a34.998 34.998 0 0 1 3.411 10.224l.006.057C58.288 16.006 51.83 12.177 46.555 3.84a41.128 41.128 0 0 1-.794-1.29 10.674 10.674 0 0 1-.371-.696A6.128 6.128 0 0 1 44.888.52a.087.087 0 0 0-.077-.087.12.12 0 0 0-.063 0c-.005 0-.012.008-.017.01-.005.002-.016.01-.024.013l.013-.023C36.259 5.388 33.388 14.56 33.124 19.147a16.85 16.85 0 0 0-9.27 3.573 10.07 10.07 0 0 0-.87-.66 15.612 15.612 0 0 1-.094-8.232 24.948 24.948 0 0 0-8.108 6.266h-.015c-1.335-1.692-1.242-7.272-1.165-8.438a6.027 6.027 0 0 0-1.125.598 24.535 24.535 0 0 0-3.292 2.82 29.423 29.423 0 0 0-3.149 3.778v.005-.006a28.45 28.45 0 0 0-4.52 10.206l-.044.223a53.82 53.82 0 0 0-.332 2.103c0 .025-.005.049-.007.074A32.103 32.103 0 0 0 .586 36.1v.173a33.686 33.686 0 0 0 66.882 5.697c.057-.435.103-.865.153-1.304a34.64 34.64 0 0 0-2.185-16.921ZM26.613 50.113c.157.076.305.158.466.23l.024.015c-.164-.079-.327-.16-.49-.245ZM62.099 25.51v-.033l.006.036-.006-.003Z" fill="url(#a)"/><path d="M65.436 23.747c-1.463-3.521-4.432-7.324-6.757-8.526a34.998 34.998 0 0 1 3.411 10.224v.033l.006.035a30.506 30.506 0 0 1-1.048 22.735c-3.86 8.283-13.205 16.774-27.833 16.361C17.41 64.161 3.491 52.434.89 37.073c-.473-2.423 0-3.65.238-5.62a25.096 25.096 0 0 0-.541 4.649v.174a33.686 33.686 0 0 0 66.882 5.696c.057-.435.103-.865.153-1.304a34.64 34.64 0 0 0-2.185-16.92Z" fill="url(#b)"/><path d="M65.436 23.747c-1.463-3.521-4.432-7.324-6.757-8.526a34.998 34.998 0 0 1 3.411 10.224v.033l.006.035a30.506 30.506 0 0 1-1.048 22.735c-3.86 8.283-13.205 16.774-27.833 16.361C17.41 64.161 3.491 52.434.89 37.073c-.473-2.423 0-3.65.238-5.62a25.096 25.096 0 0 0-.541 4.649v.174a33.686 33.686 0 0 0 66.882 5.696c.057-.435.103-.865.153-1.304a34.64 34.64 0 0 0-2.185-16.92Z" fill="url(#c)"/><path d="M49.064 27.701c.073.052.141.103.21.154-.846-1.5-1.9-2.874-3.13-4.08C35.676 13.304 43.402 1.07 44.705.449l.013-.019C36.256 5.384 33.385 14.555 33.12 19.142c.393-.027.782-.06 1.184-.06a17 17 0 0 1 14.76 8.62Z" fill="url(#d)"/><path d="M34.33 29.797c-.055.838-3.015 3.728-4.05 3.728-9.579 0-11.134 5.794-11.134 5.794.425 4.88 3.825 8.898 7.935 11.024.187.095.376.186.568.271.33.146.66.281.99.405 1.41.5 2.887.784 4.382.846 16.789.787 20.041-20.077 7.926-26.131 2.858-.372 5.752.33 8.122 1.972a17 17 0 0 0-14.76-8.62c-.4 0-.79.034-1.184.06a16.85 16.85 0 0 0-9.27 3.574c.514.434 1.094 1.015 2.315 2.219 2.286 2.251 8.148 4.584 8.16 4.858Z" fill="url(#e)"/><path d="M34.33 29.797c-.055.838-3.015 3.728-4.05 3.728-9.579 0-11.134 5.794-11.134 5.794.425 4.88 3.825 8.898 7.935 11.024.187.095.376.186.568.271.33.146.66.281.99.405 1.41.5 2.887.784 4.382.846 16.789.787 20.041-20.077 7.926-26.131 2.858-.372 5.752.33 8.122 1.972a17 17 0 0 0-14.76-8.62c-.4 0-.79.034-1.184.06a16.85 16.85 0 0 0-9.27 3.574c.514.434 1.094 1.015 2.315 2.219 2.286 2.251 8.148 4.584 8.16 4.858Z" fill="url(#f)"/><path d="M22.28 21.601c.236.15.467.303.696.462a15.63 15.63 0 0 1-.095-8.234 24.95 24.95 0 0 0-8.108 6.267c.165-.005 5.05-.092 7.508 1.505Z" fill="url(#g)"/><path d="M.894 37.072c2.6 15.36 16.521 27.088 32.326 27.536 14.627.414 23.972-8.078 27.833-16.361A30.506 30.506 0 0 0 62.1 25.512v-.032c0-.025-.005-.04 0-.032l.006.056c1.195 7.803-2.773 15.361-8.977 20.473l-.02.043c-12.087 9.845-23.655 5.94-25.997 4.346-.163-.078-.326-.16-.49-.245-7.047-3.368-9.959-9.79-9.335-15.296a8.65 8.65 0 0 1-7.98-5.02 12.704 12.704 0 0 1 12.385-.496 16.774 16.774 0 0 0 12.647.497c-.013-.274-5.875-2.608-8.16-4.859-1.222-1.203-1.802-1.783-2.315-2.218a10.05 10.05 0 0 0-.87-.66 46.39 46.39 0 0 0-.695-.46c-2.457-1.598-7.343-1.51-7.505-1.506h-.015c-1.335-1.692-1.241-7.272-1.165-8.438a6.021 6.021 0 0 0-1.124.598 24.534 24.534 0 0 0-3.293 2.82 29.415 29.415 0 0 0-3.162 3.77v.005-.007a28.449 28.449 0 0 0-4.519 10.207c-.016.068-1.213 5.3-.623 8.014Z" fill="url(#h)"/><path d="M46.147 23.779a18.339 18.339 0 0 1 3.129 4.085c.174.13.343.268.505.414 7.637 7.04 3.635 16.99 3.337 17.7 6.204-5.112 10.169-12.67 8.977-20.473-3.81-9.5-10.268-13.328-15.543-21.664a40.94 40.94 0 0 1-.794-1.29 10.674 10.674 0 0 1-.37-.696 6.128 6.128 0 0 1-.503-1.334.087.087 0 0 0-.077-.087.12.12 0 0 0-.063 0c-.004 0-.011.008-.017.01-.005.002-.016.01-.024.013-1.303.618-9.028 12.85 1.443 23.322Z" fill="url(#i)"/><path d="M49.782 28.276a6.995 6.995 0 0 0-.505-.413 5.958 5.958 0 0 0-.209-.154 11.63 11.63 0 0 0-8.122-1.972c12.116 6.058 8.865 26.918-7.925 26.13a14.98 14.98 0 0 1-4.384-.845c-.33-.123-.659-.258-.989-.405a12.526 12.526 0 0 1-.568-.27l.024.014c2.341 1.598 13.906 5.503 25.997-4.346l.019-.043c.301-.704 4.303-10.658-3.338-17.696Z" fill="url(#j)"/><path d="M19.144 39.321s1.555-5.794 11.134-5.794c1.035 0 3.997-2.89 4.05-3.728a16.774 16.774 0 0 1-12.647-.497 12.706 12.706 0 0 0-12.384.497 8.651 8.651 0 0 0 7.98 5.019c-.625 5.508 2.287 11.929 9.334 15.297.158.075.306.157.467.229-4.113-2.125-7.51-6.144-7.934-11.023Z" fill="url(#k)"/><path d="M65.436 23.746c-1.463-3.522-4.432-7.324-6.757-8.526a34.998 34.998 0 0 1 3.411 10.224l.006.057C58.288 16.006 51.83 12.177 46.555 3.84a41.128 41.128 0 0 1-.794-1.29 10.674 10.674 0 0 1-.371-.696A6.128 6.128 0 0 1 44.888.52a.087.087 0 0 0-.077-.087.12.12 0 0 0-.063 0c-.005 0-.012.008-.017.01-.005.002-.016.01-.024.013l.013-.023C36.259 5.388 33.388 14.56 33.124 19.147c.393-.027.782-.06 1.184-.06a17 17 0 0 1 14.76 8.619 11.63 11.63 0 0 0-8.123-1.972c12.116 6.057 8.865 26.918-7.925 26.13a14.98 14.98 0 0 1-4.383-.845c-.33-.123-.66-.258-.99-.405a12.526 12.526 0 0 1-.568-.271l.024.015c-.164-.079-.327-.16-.49-.245.157.076.305.158.466.23-4.113-2.126-7.51-6.145-7.934-11.024 0 0 1.555-5.794 11.134-5.794 1.035 0 3.998-2.89 4.05-3.728-.013-.274-5.875-2.608-8.16-4.858-1.222-1.204-1.801-1.784-2.315-2.22a10.07 10.07 0 0 0-.87-.658c-.767-2.687-.8-5.53-.094-8.233a24.948 24.948 0 0 0-8.108 6.266h-.015c-1.335-1.692-1.242-7.272-1.165-8.438a6.027 6.027 0 0 0-1.125.598 24.535 24.535 0 0 0-3.292 2.82 29.423 29.423 0 0 0-3.149 3.778v.005-.006a28.45 28.45 0 0 0-4.52 10.206l-.044.223a57.487 57.487 0 0 0-.389 2.125c0 .024 0-.026 0 0A39.193 39.193 0 0 0 .586 36.1v.173a33.686 33.686 0 0 0 66.882 5.697c.057-.435.103-.865.153-1.304a34.64 34.64 0 0 0-2.185-16.921Zm-3.342 1.73.007.036-.007-.036Z" fill="url(#l)"/><path d="M83.766 21.286h18.615v5.032H89.106v6.824h13.275v4.994H89.106v10.98h-5.34v-27.83Zm24.948-1.944a2.988 2.988 0 0 1 2.229.888 2.997 2.997 0 0 1 .86 2.24 3.104 3.104 0 0 1-3.07 3.148 3.111 3.111 0 0 1-3.147-3.07 3.094 3.094 0 0 1 .876-2.274 3.093 3.093 0 0 1 2.252-.93v-.002Zm-2.632 9.187h5.264v20.587h-5.264V28.53Zm20.523 5.718a4.262 4.262 0 0 0-2.556-.915c-2.136 0-3.357 1.372-3.357 4.384v11.4h-5.226V28.531h4.997v2.973a4.91 4.91 0 0 1 4.921-3.164 6.252 6.252 0 0 1 3.51 1.067l-2.289 4.84Zm2.172 4.693a10.542 10.542 0 0 1 6.482-10.017 10.54 10.54 0 0 1 4.122-.81c6.179 0 10.566 4.385 10.566 10.484v2.173h-16.018c.572 2.592 2.594 4.308 5.684 4.308a5.524 5.524 0 0 0 5.112-3.05l4.386 2.63c-2.172 3.203-5.264 4.88-9.647 4.88-6.68-.006-10.685-4.462-10.685-10.6l-.002.002Zm5.226-2.325h10.836c-.572-2.63-2.708-4.08-5.493-4.08a5.29 5.29 0 0 0-5.341 4.077l-.002.003Zm17.243-8.083h3.701v-1.03c0-5.605 2.365-7.93 7.552-7.93h1.834v4.537h-1.488c-2.441 0-2.975.838-2.975 3.39v1.03h4.463v4.726h-4.345v15.861h-5.041V33.257h-3.701v-4.725Zm14.08 10.292a10.544 10.544 0 0 1 10.758-10.712 10.71 10.71 0 0 1 0 21.424 10.385 10.385 0 0 1-10.76-10.713l.002.001Zm16.404 0a5.656 5.656 0 0 0-3.439-5.398 5.648 5.648 0 0 0-7.853 5.398 5.656 5.656 0 0 0 1.582 4.122 5.64 5.64 0 0 0 4.064 1.725 5.648 5.648 0 0 0 5.646-5.847Zm12.206-.229-7.44-10.064h6.179l4.388 6.328 4.501-6.328h6.065l-7.553 10.025 7.935 10.56h-6.142l-4.921-6.71-4.768 6.71h-6.142l7.898-10.52Z" fill="#fff"/><defs><radialGradient id="b" cx="0" cy="0" r="1" gradientUnits="userSpaceOnUse" gradientTransform="matrix(68.901 0 0 70.0305 47.561 8.276)"><stop offset=".13" stop-color="#FFBD4F"/><stop offset=".28" stop-color="#FF980E"/><stop offset=".47" stop-color="#FF3750"/><stop offset=".78" stop-color="#EB0878"/><stop offset=".86" stop-color="#E50080"/></radialGradient><radialGradient id="c" cx="0" cy="0" r="1" gradientUnits="userSpaceOnUse" gradientTransform="matrix(70.6235 0 0 70.0305 27.495 37.106)"><stop offset=".3" stop-color="#960E18"/><stop offset=".35" stop-color="#B11927" stop-opacity=".74"/><stop offset=".43" stop-color="#DB293D" stop-opacity=".34"/><stop offset=".5" stop-color="#F5334B" stop-opacity=".09"/><stop offset=".53" stop-color="#FF3750" stop-opacity="0"/></radialGradient><radialGradient id="d" cx="0" cy="0" r="1" gradientUnits="userSpaceOnUse" gradientTransform="matrix(22.6137 0 0 38.3952 40.874 -2.86)"><stop offset=".13" stop-color="#FFF44F"/><stop offset=".53" stop-color="#FF980E"/></radialGradient><radialGradient id="e" cx="0" cy="0" r="1" gradientUnits="userSpaceOnUse" gradientTransform="matrix(29.9221 0 0 32.7997 25.957 55.203)"><stop offset=".35" stop-color="#3A8EE6"/><stop offset=".67" stop-color="#9059FF"/><stop offset="1" stop-color="#C139E6"/></radialGradient><radialGradient id="f" cx="0" cy="0" r="1" gradientUnits="userSpaceOnUse" gradientTransform="matrix(15.8886 0 0 19.3518 31.181 29.91)"><stop offset=".21" stop-color="#9059FF" stop-opacity="0"/><stop offset=".97" stop-color="#6E008B" stop-opacity=".6"/></radialGradient><radialGradient id="g" cx="0" cy="0" r="1" gradientUnits="userSpaceOnUse" gradientTransform="matrix(23.788 0 0 23.8762 32 5.596)"><stop offset=".1" stop-color="#FFE226"/><stop offset=".79" stop-color="#FF7139"/></radialGradient><radialGradient id="h" cx="0" cy="0" r="1" gradientUnits="userSpaceOnUse" gradientTransform="matrix(113.541 0 0 95.3227 53.716 -10.047)"><stop offset=".11" stop-color="#FFF44F"/><stop offset=".46" stop-color="#FF980E"/><stop offset=".72" stop-color="#FF3647"/><stop offset=".9" stop-color="#E31587"/></radialGradient><radialGradient id="i" cx="0" cy="0" r="1" gradientUnits="userSpaceOnUse" gradientTransform="matrix(7.86338 35.16433 -152.13562 34.02028 12.513 20.71)"><stop stop-color="#FFF44F"/><stop offset=".3" stop-color="#FF980E"/><stop offset=".57" stop-color="#FF3647"/><stop offset=".74" stop-color="#E31587"/></radialGradient><radialGradient id="j" cx="0" cy="0" r="1" gradientUnits="userSpaceOnUse" gradientTransform="matrix(65.2128 0 0 63.993 32.25 14.232)"><stop offset=".14" stop-color="#FFF44F"/><stop offset=".48" stop-color="#FF980E"/><stop offset=".66" stop-color="#FF3647"/><stop offset=".9" stop-color="#E31587"/></radialGradient><radialGradient id="k" cx="0" cy="0" r="1" gradientUnits="userSpaceOnUse" gradientTransform="matrix(78.3738 0 0 70.1862 49.172 17.903)"><stop offset=".09" stop-color="#FFF44F"/><stop offset=".63" stop-color="#FF980E"/></radialGradient><linearGradient id="a" x1="59.293" y1="11.203" x2="5.22" y2="63.384" gradientUnits="userSpaceOnUse"><stop offset=".05" stop-color="#FFF44F"/><stop offset=".37" stop-color="#FF980E"/><stop offset=".53" stop-color="#FF3647"/><stop offset=".7" stop-color="#E31587"/></linearGradient><linearGradient id="l" x1="54.415" y1="10.16" x2="11.178" y2="57.421" gradientUnits="userSpaceOnUse"><stop offset=".17" stop-color="#FFF44F" stop-opacity=".8"/><stop offset=".6" stop-color="#FFF44F" stop-opacity="0"/></linearGradient></defs></svg>
