<svg xmlns="http://www.w3.org/2000/svg" xml:space="preserve" x="0" y="0" enable-background="new 0 0 1600 1024" version="1.1" viewBox="0 0 1600 1024" width="1600" height="1024">
  <style>
    .st1{fill:none;stroke:#f8f6f4;stroke-width:5}.st2,.st4{fill:#f8f6f4}.st4{fill-rule:evenodd;clip-rule:evenodd}.st5{stroke-linejoin:round}.st5,.st6{fill:none;stroke:#ffea7f;stroke-width:45;stroke-linecap:round}.st16{fill:none;stroke:#f8f6f4;stroke-width:5.6868}
  </style>
  <path fill="#9059ff" stroke="#f8f6f4" stroke-width="5" d="M1422.2 83.4h2.5V16.1c0-7.4-6-13.5-13.5-13.5H227.4c-7.4 0-13.5 6-13.5 13.5v67.2h1208.3z"/>
  <path d="M381.1 23.8h158.6c1.7 0 3 1.3 3 3v27.9c0 1.7-1.3 3-3 3H381.1c-1.7 0-3-1.3-3-3V26.8c0-1.6 1.4-3 3-3z" class="st1"/>
  <path d="M565.2 23.8h158.6c1.7 0 3 1.3 3 3v27.9c0 1.7-1.3 3-3 3H565.2c-1.7 0-3-1.3-3-3V26.8c0-1.6 1.4-3 3-3z" class="st1"/>
  <path d="M749.2 23.8h158.6c1.7 0 3 1.3 3 3v27.9c0 1.7-1.3 3-3 3H749.2c-1.7 0-3-1.3-3-3V26.8c0-1.6 1.4-3 3-3z" class="st1"/>
  <ellipse cx="263.3" cy="40.2" class="st2" rx="8.6" ry="8.4"/>
  <ellipse cx="295.9" cy="40.2" class="st2" rx="8.6" ry="8.4"/>
  <ellipse cx="328.5" cy="40.2" class="st2" rx="8.6" ry="8.4"/>
  <path fill="#333336" stroke="#f8f6f4" stroke-width="5" d="M216.4 78.3h-2.5v722.1c0 5.6 4.5 10.2 10.2 10.2h1190.4c5.6 0 10.1-4.5 10.1-10.1V78.3H216.4z"/>
  <path d="M1010.8 646.5c-1.9 15.1-15.7 25.8-30.9 23.9-15.2-1.9-26-15.7-24.1-30.7 15.5-123.4 123.7-216.9 249.2-216.9 79.2 0 154.8 40.7 194 92.3v-64.7c0-15.2 12.4-27.5 27.7-27.5 15.3 0 27.7 12.3 27.7 27.5V588c0 15.2-12.4 27.5-27.7 27.5h-138.5c-15.3 0-27.7-12.3-27.7-27.5s12.4-27.5 27.7-27.5h75.1c-22.3-40.7-88.2-82.6-158.3-82.6-97.7-.1-182.2 73-194.2 168.6zm.2 179.7V891c0 15.2-12.4 27.5-27.7 27.5-15.3 0-27.7-12.3-27.7-27.5V753.2c0-15.2 12.4-27.5 27.7-27.5h138.5c15.3 0 27.7 12.3 27.7 27.5s-12.4 27.5-27.7 27.5h-75.1c22.3 40.7 88.2 82.6 158.3 82.6 97.6 0 182.2-73 194.2-168.7 1.9-15.1 15.8-25.8 30.9-23.9 15.2 1.9 26 15.7 24.1 30.7-15.5 123.4-123.8 216.9-249.2 216.9-79.2.2-154.9-40.5-194-92.1z" class="st4"/>
  <path d="M1288.1 588h138.6V450.3" class="st5"/>
  <path d="M1121.8 753.3H983.3V891" class="st5"/>
  <path d="M983.3 643.1c13.9-110.2 110.8-192.8 221.7-192.8 110.8 0 194 82.6 194 137.7" class="st6"/>
  <path d="M1011 753.3c0 55.1 83.1 137.7 194 137.7 110.8 0 207.8-82.6 221.7-192.8" class="st6"/>
  <path fill="#9059ff" stroke="#fff" stroke-width="5.8865" d="M1260.9 231.2c-30 0-54.4 24.4-54.4 54.4v680.9c0 30 24.4 54.4 54.4 54.4H1540c30 0 54.4-24.4 54.4-54.4V285.6c0-30-24.3-54.4-54.4-54.4h-279.1z"/>
  <defs>
    <filter id="Adobe_OpacityMaskFilter" width="644.5" height="745.5" x="942.6" y="252.7" filterUnits="userSpaceOnUse">
      <feColorMatrix values="1 0 0 0 0 0 1 0 0 0 0 0 1 0 0 0 0 0 1 0"/>
    </filter>
  </defs>
  <mask id="mask0_614_24879_00000018938727700759468800000009390761567153839771_" width="644.5" height="745.5" x="942.6" y="252.7" maskUnits="userSpaceOnUse">
    <path fill="#fff" fill-rule="evenodd" d="M1227.9 625.3V313.6c0-7.8-.1-15.6.9-23.4 1.2-9.7 4.5-18.5 11.7-25.6 6.2-6 13.7-9.2 22.1-10.7 4.3-.7 8.6-1.1 13-1.1 8.7-.1 17.3-.2 26-.1 3.4 0 5.5 2.4 5.6 5.4.1 2.5.2 4.9.7 7.4 1.7 7.9 8.4 14.2 16.8 15.1 2.5.2 4.9.4 7.4.4h136.3c3.5 0 6.9 0 10.3-1 8.3-2.2 13.8-9.6 14.2-18.2.1-1.6.1-3.2.4-4.8.4-2.4 2.1-3.9 4.4-4.2 1-.1 1.9-.2 2.9-.2 9.4 0 18.8-.2 28.2.3 7.5.4 14.8 1.5 21.6 5 11 5.6 17.5 14.6 20.2 26.5 1.4 6 1.7 12.1 1.8 18.2.1 3.8.1 7.6.1 11.4v624.7c0 7.3 0 14.5-.9 21.8-1.2 9.7-4.5 18.5-11.7 25.6-5.8 5.6-12.8 8.8-20.5 10.4-6.7 1.3-13.5 1.6-20.4 1.6h-233.9c-7 0-14-.1-20.9-1.1-10.8-1.6-20.2-5.8-27-14.7-4.2-5.4-6.6-11.7-7.8-18.4-1.4-7.7-1.4-15.5-1.4-23.3V812.7c-.1-62.4-.1-124.9-.1-187.4z" clip-rule="evenodd" filter="url(#Adobe_OpacityMaskFilter)"/>
  </mask>
  <g mask="url(#mask0_614_24879_00000018938727700759468800000009390761567153839771_)">
    <path fill="#333336" d="M1218.8 252.7H1587v745.5h-368.2z"/>
    <path d="M997.8 646.5c-1.9 15.1-15.7 25.8-30.9 23.9-15.2-1.9-26-15.7-24.1-30.7 15.5-123.4 123.7-216.9 249.2-216.9 79.2 0 154.8 40.7 194 92.3v-64.7c0-15.2 12.4-27.5 27.7-27.5 15.3 0 27.7 12.3 27.7 27.5V588c0 15.2-12.4 27.5-27.7 27.5h-138.5c-15.3 0-27.7-12.3-27.7-27.5s12.4-27.5 27.7-27.5h75.1c-22.3-40.7-88.2-82.6-158.3-82.6-97.7-.1-182.2 73-194.2 168.6zm.2 179.7V891c0 15.2-12.4 27.5-27.7 27.5-15.3 0-27.7-12.3-27.7-27.5V753.2c0-15.2 12.4-27.5 27.7-27.5h138.5c15.3 0 27.7 12.3 27.7 27.5s-12.4 27.5-27.7 27.5h-75.1c22.3 40.7 88.2 82.6 158.3 82.6 97.6 0 182.2-73 194.2-168.7 1.9-15.1 15.8-25.8 30.9-23.9 15.2 1.9 26 15.7 24.1 30.7-15.5 123.4-123.8 216.9-249.2 216.9-79.2.2-154.9-40.5-194-92.1z" class="st4"/>
    <path d="M1275.1 588h138.6V450.3" class="st5"/>
    <path d="M970.3 643.1c13.9-110.2 110.8-192.8 221.7-192.8 110.8 0 194 82.6 194 137.7" class="st6"/>
    <path d="M998 753.3c0 55.1 83.1 137.7 194 137.7 110.8 0 207.8-82.6 221.7-192.8" class="st6"/>
  </g>
  <path fill="#ff7139" d="M800.3 311.6zm-16.7-8.4c.1 0 0 0 0 0zm99.9 12.9c-3-7.3-9.1-15.1-13.9-17.6 3.9 7.7 6.2 15.4 7 21.1v.1c-7.8-19.6-21.1-27.5-32-44.8-.5-.9-1.1-1.7-1.6-2.7-.3-.5-.5-1-.8-1.4-.4-.9-.8-1.8-1-2.8v-.1l-.1-.1h-.2c-15.4 9.1-21.8 24.9-23.4 35-4.8.3-9.4 1.5-13.7 3.5-.4.2-.7.5-.9.9-.2.4-.2.9 0 1.3.1.2.2.4.4.6.2.2.4.3.6.4.2.1.5.1.7.1.2 0 .5-.1.7-.2 3.8-1.8 7.8-2.8 12-3.1h.4c.6 0 1.1-.1 1.7-.1 3.4 0 6.7.4 9.9 1.4.2.1.4.1.6.2.5.2 1.1.3 1.6.5.4.1.8.3 1.2.5.3.1.6.3.9.4.5.2.9.4 1.4.7l.6.3c.5.2.9.5 1.3.7.3.2.6.3.9.5 5 3.1 9.2 7.4 12.1 12.6-3.7-2.6-10.3-5.2-16.7-4.1 24.9 12.5 18.2 55.6-16.3 54-3.1-.1-6.1-.7-9-1.7-.7-.3-1.4-.5-2-.8l-1.2-.6c-8.5-4.4-15.5-12.7-16.3-22.8 0 0 3.2-12 22.9-12 2.1 0 8.2-6 8.3-7.7 0-.6-12.1-5.4-16.8-10-2.5-2.5-3.7-3.7-4.8-4.6-.6-.5-1.2-.9-1.8-1.4-1.6-5.6-1.6-11.4-.2-17-7.1 3.3-12.7 8.4-16.7 12.9-2.7-3.5-2.6-15-2.4-17.4 0-.1-2 1.1-2.3 1.2-2.4 1.7-4.7 3.7-6.8 5.8-2.4 2.4-4.5 5-6.5 7.8-4.5 6.3-7.6 13.5-9.3 21.1 0 .1-.7 2.9-1.1 6.4-.1.5-.2 1.1-.2 1.6-.2 1.1-.3 2.2-.4 4v.2c-.1.8-.1 1.5-.1 2.3v.4c0 38.4 31 69.6 69.3 69.6 34.3 0 62.7-25 68.3-57.8l.3-2.7c1.2-11.5-.3-24.1-4.6-34.6z"/>
  <path fill="#333336" stroke="#f8f6f4" stroke-width="5.6868" d="M26.6 414h573.2c11.6 0 21 9.4 21 21v135.3c0 11.6-9.4 21-21 21H26.6c-11.6 0-21-9.4-21-21V435c-.1-11.6 9.3-21 21-21z"/>
  <path fill="#b3ffe3" stroke="#f8f6f4" stroke-width="5.6868" d="M6.7 435c0-11.6 9.4-21 21-21h186v177.4h-186c-11.6 0-21-9.4-21-21V435z"/>
  <path fill="none" stroke="#333336" stroke-width="8.6013" d="M98 531.4c22.2 0 40.1-18 40.1-40.1 0-22.2-18-40.1-40.1-40.1-22.2 0-40.1 18-40.1 40.1s17.9 40.1 40.1 40.1z"/>
  <path fill="none" stroke="#333336" stroke-linecap="round" stroke-width="8.6013" d="m126.7 519.9 34.4 34.4"/>
  <path d="M277.9 442.4h26.2" class="st16"/>
  <path d="M277.9 558.4h26.2" class="st16"/>
  <path d="M291 445.3v113.9" class="st16"/>
</svg>
