<svg xmlns="http://www.w3.org/2000/svg" xmlns:xlink="http://www.w3.org/1999/xlink" xml:space="preserve" id="Layer_1" x="0" y="0" version="1.1" viewBox="0 0 1586.4 1000">
  <style>
    .st1{fill:none;stroke:#f8f6f4;stroke-width:5}.st2{fill:#f8f6f4}.st13,.st14,.st4{fill:#f8f6f4;stroke:#333336;stroke-width:5}.st13,.st14{fill:none;stroke-width:3;stroke-linecap:round;stroke-miterlimit:10}.st14{stroke-linejoin:round}.st18{fill:#333336}
  </style>
  <path fill="#9059ff" stroke="#f8f6f4" stroke-width="5" d="M1339.1 84.3h2.5V17c0-7.4-6-13.5-13.5-13.5H144.3c-7.4 0-13.5 6-13.5 13.5v67.2h1208.3z"/>
  <path d="M298 24.7h158.6c1.7 0 3 1.3 3 3v27.9c0 1.7-1.3 3-3 3H298c-1.7 0-3-1.3-3-3V27.7c0-1.6 1.4-3 3-3z" class="st1"/>
  <path d="M482.1 24.7h158.6c1.7 0 3 1.3 3 3v27.9c0 1.7-1.3 3-3 3H482.1c-1.7 0-3-1.3-3-3V27.7c0-1.6 1.4-3 3-3z" class="st1"/>
  <path d="M666.1 24.7h158.6c1.7 0 3 1.3 3 3v27.9c0 1.7-1.3 3-3 3H666.1c-1.7 0-3-1.3-3-3V27.7c0-1.6 1.4-3 3-3z" class="st1"/>
  <ellipse cx="180.2" cy="41.1" class="st2" rx="8.6" ry="8.4"/>
  <ellipse cx="212.8" cy="41.1" class="st2" rx="8.6" ry="8.4"/>
  <ellipse cx="245.4" cy="41.1" class="st2" rx="8.6" ry="8.4"/>
  <path fill="#333336" stroke="#f8f6f4" stroke-width="5" d="M133.3 79.2h-2.5v722.1c0 5.6 4.5 10.2 10.2 10.2h1190.4c5.6 0 10.1-4.5 10.1-10.1V79.2H133.3z"/>
  <path d="M932.9 832.9v-20.3h-20.3v-20.3h-20.3V772H872v-20.3h-20.3v-20.3h-20.3v-20.3h-20.3V691H791v-20.3h-20.3v-20.3h-20.3v-20.3h-19.1V611H711v342.9h40.5v-20.3h20.3v-20.3h20.3V893h20.3v40.5h20.3V974H853v20.3h40.5V974h20.3v-40.5h-20.3V893h-20.3v-20.3h80.5v-40.5h-20.3l-.5.7z" class="st4"/>
  <path d="M731.3 611H711v342.9h20.3V611z" class="st4"/>
  <path d="M751.5 631.3h-20.3v20.3h20.3v-20.3z" class="st4"/>
  <path d="M771.8 651h-20.3v20.3h20.3V651z" class="st4"/>
  <path d="M791.5 671.3h-20.3v20.3h20.3v-20.3z" class="st4"/>
  <path d="M811.8 691.5h-20.3v20.3h20.3v-20.3z" class="st4"/>
  <path d="M832.1 711.8h-20.3v20.3h20.3v-20.3z" class="st4"/>
  <path d="M852.3 732.1H832v20.3h20.3v-20.3z" class="st4"/>
  <path d="M872.6 751.8h-20.3v20.3h20.3v-20.3z" class="st4"/>
  <path d="M892.3 772.1H872v20.3h20.3v-20.3z" class="st4"/>
  <path d="M912.6 792.3h-20.3v20.3h20.3v-20.3z" class="st4"/>
  <path d="M932.8 812.6h-20.3v20.3h20.3v-20.3z" class="st4"/>
  <path d="M953.1 832.9h-20.3v20.3h20.3v-20.3z" class="st4"/>
  <path d="M953.1 852.6H852.3v20.3h100.8v-20.3z" class="st4"/>
  <path d="M872.6 872.9h-20.3v20.3h20.3v-20.3z" class="st4"/>
  <path d="M811.8 872.9h-20.3v20.3h20.3v-20.3z" class="st4"/>
  <path d="M832.1 893.1h-20.3v40.5h20.3v-40.5z" class="st4"/>
  <path d="M852.3 933.7H832v40.5h20.3v-40.5z" class="st4"/>
  <path d="M892.9 973.6h-40.5v20.3h40.5v-20.3z" class="st4"/>
  <path d="M892.3 893.1H872v40.5h20.3v-40.5z" class="st4"/>
  <path d="M912.6 933.7h-20.3v40.5h20.3v-40.5z" class="st4"/>
  <path d="M791.5 893.1h-20.3v20.3h20.3v-20.3z" class="st4"/>
  <path d="M771.8 913.4h-20.3v20.3h20.3v-20.3z" class="st4"/>
  <path d="M751.5 933.7h-20.3V954h20.3v-20.3z" class="st4"/>
  <circle cx="741.5" cy="445.3" r="54.4" class="st2"/>
  <circle cx="741" cy="445.3" r="44.9" fill="#9059ff"/>
  <circle cx="468.9" cy="445.3" r="44.9" fill="#ff7139"/>
  <circle cx="605" cy="445.3" r="44.9" fill="#ffea7f"/>
  <circle cx="877.1" cy="445.3" r="44.9" fill="#0290ee"/>
  <circle cx="1013.1" cy="445.3" r="44.9" fill="#b3ffe3" transform="matrix(.3827 -.9239 .9239 .3827 213.9955 1210.875)"/>
  <path d="M1296.8 33.9c-5.4-7.1-15.9-8-22.5-1.9l-3.7 3.4h-3.6l-3.7-3.4c-6.6-6-17.1-5.1-22.5 1.9-.7 2.8.4 12.9 1 14.5 1.2 6.5 6.5 11.3 12.8 11.3 3.2 0 6-1.3 8.3-3.3l1.4-1.2c1.2-1.1 2.8-1.7 4.4-1.7 1.6 0 3.2.6 4.4 1.6l2.1 1.7c2.2 1.8 4.8 2.8 7.8 2.8 6.3 0 11.6-4.9 12.8-11.3.7-1.4 1.8-11.6 1-14.4zm-34.2 10.5c-1.5 1.7-3.8 2.8-6.5 2.8-2.6 0-5-1.1-6.5-2.8-.4-.4-.6-1-.6-1.6s.2-1.2.6-1.6c1.5-1.7 3.8-2.8 6.5-2.8 2.6 0 4.9 1.1 6.5 2.8.4.4.6 1 .6 1.6s-.2 1.2-.6 1.6zm25.4 0c-1.5 1.7-3.8 2.8-6.5 2.8-2.6 0-5-1.1-6.5-2.8-.4-.4-.6-1-.6-1.6s.2-1.2.6-1.6c1.5-1.7 3.8-2.8 6.5-2.8 2.6 0 5 1.1 6.5 2.8.4.4.6 1 .6 1.6s-.2 1.2-.6 1.6z" class="st2"/>
  <path fill="#b3ffe3" stroke="#333336" stroke-width="5" d="M23.7 572.5h460.9c6.7 0 12.1 5.4 12.1 12.1v104.9c0 6.7-5.4 12.1-12.1 12.1H23.7c-6.7 0-12.1-5.4-12.1-12.1V584.7c0-6.7 5.4-12.2 12.1-12.2z"/>
  <path fill="none" stroke="#333336" stroke-width="3" d="M170.2 659.4h279.6"/>
  <defs>
    <path id="SVGID_1_" d="M52.5 597.1h71.6v71.6H52.5z"/>
  </defs>
  <clipPath id="SVGID_00000032607010902207072190000004303509680078654391_">
    <use xlink:href="#SVGID_1_" overflow="visible"/>
  </clipPath>
  <path fill="#333336" d="M63.7 653.6c.5 0 1.1-.1 1.6-.3l15.4-5.1 31.3-31.3c3.3-3.3 3.3-8.6 0-11.9l-4.7-4.7c-3.3-3.3-8.6-3.3-11.9 0l-31.3 31.3-5.2 15.4c-.6 1.8-.1 3.8 1.2 5.1 1 1 2.3 1.5 3.6 1.5zm35.6-49.4c1.1-1.1 2.9-1.1 4 0l4.7 4.7c1.1 1.1 1.1 2.9 0 4l-4.8 4.8-8.7-8.7 4.8-4.8zM69 634.6 90.6 613l8.7 8.7-21.7 21.7-13.1 4.4 4.5-13.2z" clip-path="url(#SVGID_00000032607010902207072190000004303509680078654391_)"/>
  <path fill="#333336" d="m118.8 656.7-8 2.5c-3.1.9-6.4 1.1-9.6.5l-9.3-1.9c-5.5-1.1-11.2-.3-16.2 2.2-5.5 2.8-12.2 1.7-16.5-2.7l-.2-.3-3.7 4.2c3.8 3.8 8.9 5.8 14.1 5.8 3 0 6.1-.7 8.9-2.1 3.9-1.9 8.3-2.5 12.6-1.7l9.3 1.9c4.1.8 8.3.6 12.3-.6l8-2.5-1.7-5.3z" clip-path="url(#SVGID_00000032607010902207072190000004303509680078654391_)"/>
  <path d="m150.6 650.6 9.7 9.7" class="st13"/>
  <path d="m160.3 650.6-9.7 9.7" class="st13"/>
  <path d="M334.8 597.9c9.7 1.5-20.6-13.7-56.7 23.8-27.5 28.6-2.9 31.4 8.6 28.6 23.3-5.6 57.4-33.1 54.7-44.9-3.4-14.9-74.3 38.2-45.6 46.1 14 3.8 47.1-26.4 46.3-28.3 0 0-26.5 21.5-16.5 21.9 8.2.3 14.5-3.8 17.4-6.2.6-.5 1.8-.1 1.6.6-4.3 16 63.5 4.2 59.3 10" class="st14"/>
  <path d="M171.3 639.9c.8-4.8 67.7-41.6 70.3-30.6 2.6 11.1-48.7 77.5-65.7 77.5-11.8 0 8-29.6 16.4-34.7 24.2-14.6 66.6-10.1 57.3-7" class="st14"/>
  <path fill="#9059ff" stroke="#fff" stroke-width="5" d="M1222.8 295.5c-25.5 0-46.2 20.7-46.2 46.2v578.4c0 25.5 20.7 46.2 46.2 46.2h237.1c25.5 0 46.2-20.7 46.2-46.2V341.7c0-25.5-20.7-46.2-46.2-46.2h-237.1z"/>
  <path fill="#333336" fill-rule="evenodd" d="M1194.8 630.3V365.6c0-6.6-.1-13.3.8-19.8 1-8.3 3.9-15.7 9.9-21.7 5.2-5.1 11.7-7.8 18.8-9.1 3.6-.6 7.3-.9 11-1 7.4-.1 14.7-.2 22.1 0 2.9 0 4.7 2 4.8 4.6.1 2.1.2 4.2.6 6.3 1.4 6.7 7.2 12.1 14.3 12.8 2.1.2 4.2.3 6.3.3h115.8c2.9 0 5.9 0 8.7-.8 7-1.9 11.7-8.1 12-15.4.1-1.4.1-2.7.3-4 .3-2 1.7-3.3 3.8-3.6.8-.1 1.7-.2 2.5-.2 8 0 15.9-.2 23.9.2 6.3.3 12.6 1.3 18.3 4.2 9.3 4.7 14.8 12.4 17.2 22.5 1.2 5.1 1.4 10.3 1.5 15.5.1 3.2.1 6.5.1 9.7v530.6c0 6.2 0 12.3-.8 18.5-1 8.3-3.8 15.7-9.9 21.7-4.9 4.8-10.8 7.5-17.5 8.8-5.7 1.1-11.5 1.3-17.3 1.3h-198.6c-6 0-11.9-.1-17.8-.9-9.2-1.3-17.1-5-23-12.5-3.6-4.6-5.6-9.9-6.6-15.6-1.2-6.6-1.2-13.2-1.2-19.8V630.3z" clip-rule="evenodd"/>
  <path d="M1335.6 487.2zm-12.3-6.2zm73.6 9.6c-2.2-5.4-6.7-11.2-10.2-13 2.9 5.7 4.5 11.3 5.2 15.6v.1c-5.8-14.5-15.6-20.3-23.6-33-.4-.6-.8-1.3-1.2-2-.2-.3-.4-.7-.6-1.1-.3-.6-.6-1.3-.8-2v-.1h-.2c-11.4 6.7-16.1 18.4-17.3 25.8-3.5.2-6.9 1.1-10.1 2.6-.3.1-.5.4-.6.7-.1.3-.1.6 0 .9.1.2.2.3.3.5.1.1.3.2.4.3.2.1.3.1.5.1s.3 0 .5-.1c2.8-1.3 5.8-2.1 8.8-2.3h1.6c2.5 0 5 .3 7.3 1 .1 0 .3.1.4.1.4.1.8.3 1.2.4.3.1.6.2.8.3.2.1.5.2.7.3.3.2.7.3 1 .5.2.1.3.2.5.2.3.2.7.4 1 .6.2.1.4.2.6.4 3.7 2.3 6.8 5.5 8.9 9.3-2.7-1.9-7.6-3.8-12.3-3 18.4 9.2 13.4 41-12 39.8-2.3-.1-4.5-.5-6.7-1.3l-1.5-.6c-.3-.1-.6-.3-.9-.4-6.2-3.2-11.4-9.4-12.1-16.8 0 0 2.4-8.8 16.9-8.8 1.6 0 6.1-4.4 6.2-5.7 0-.4-8.9-4-12.4-7.4-1.8-1.8-2.7-2.7-3.5-3.4-.4-.4-.9-.7-1.3-1-1.2-4.1-1.2-8.4-.2-12.5-5.2 2.4-9.3 6.2-12.3 9.5-2-2.6-1.9-11.1-1.8-12.9 0-.1-1.5.8-1.7.9-1.8 1.3-3.5 2.7-5 4.3-1.8 1.8-3.3 3.7-4.8 5.8-3.3 4.7-5.6 10-6.9 15.6 0 .1-.5 2.1-.8 4.7-.1.4-.1.8-.2 1.2-.1.8-.2 1.6-.3 2.9v.2c0 .6-.1 1.1-.1 1.7v.3c0 28.4 22.9 51.3 51.1 51.3 25.3 0 46.3-18.4 50.4-42.7.1-.7.2-1.3.2-2 1.3-8.8.1-18.1-3.1-25.8z" class="st2"/>
  <path fill="#feeb8c" stroke="#333336" stroke-width="5" d="M1157.6 640.9h363.2c29.8 0 54 24.2 54 54v.1c0 29.8-24.2 54-54 54h-363.2c-29.8 0-54-24.2-54-54v-.1c0-29.8 24.2-54 54-54z"/>
  <path d="m1290 676.4-13.1 17.2v.3l20.8-2.8v9.4l-20.8-2.5v.3l13.2 16.5-8.7 5-8.3-19.3h-.3l-9 19.4-7.9-5 13.1-16.8v-.3l-20.4 2.6V691l20.2 2.6v-.3l-13-16.8 8.4-4.8 8.5 19.1h.3l8.4-19.3 8.6 4.9z" class="st18"/>
  <path d="m1347.2 676.4-13.1 17.2v.3l20.8-2.8v9.4l-20.8-2.5v.3l13.2 16.5-8.7 5-8.3-19.3h-.3l-8.9 19.4-7.8-5 13.1-16.8v-.3l-20.4 2.6V691l20.2 2.6v-.3l-12.9-16.8 8.4-4.8 8.5 19.1h.3l8.4-19.3 8.3 4.9z" class="st18"/>
  <path d="m1404.3 676.4-13.1 17.2v.3l20.8-2.8v9.4l-20.8-2.5v.3l13.2 16.5-8.7 5-8.3-19.3h-.3l-9 19.4-7.9-5 13.1-16.8v-.3l-20.4 2.6V691l20.2 2.6v-.3l-13-16.8 8.4-4.8 8.5 19.1h.3l8.4-19.3 8.6 4.9z" class="st18"/>
  <path d="m1461.5 676.4-13.1 17.2v.3l20.8-2.8v9.4l-20.8-2.5v.3l13.2 16.5-8.7 5-8.3-19.3h-.3l-9 19.4-7.8-5 13.1-16.8v-.3l-20.4 2.6V691l20.2 2.6v-.3l-12.9-16.8 8.4-4.8 8.5 19.1h.3l8.4-19.3 8.4 4.9z" class="st18"/>
  <path d="m1518.7 676.4-13.1 17.2v.3l20.8-2.8v9.4l-20.8-2.5v.3l13.2 16.5-8.7 5-8.3-19.3h-.3l-9 19.4-7.8-5 13.1-16.8v-.3l-20.4 2.6V691l20.2 2.6v-.3l-12.9-16.8 8.4-4.8 8.5 19.1h.3l8.4-19.3 8.4 4.9z" class="st18"/>
  <path d="M1199.8 691.4h-1.8v-14.2c0-9.8-7.9-17.8-17.8-17.8-9.8 0-17.8 8-17.8 17.8v14.2h-1.8c-4.9 0-8.9 4-8.9 8.9v21.3c0 4.9 4 8.9 8.9 8.9h39.1c4.9 0 8.9-4 8.9-8.9v-21.3c.1-4.9-3.8-8.9-8.8-8.9zm-31.9-14.2c0-6.9 5.6-12.4 12.4-12.4 6.9 0 12.4 5.6 12.4 12.4v14.2h-24.9v-14.2z" class="st18"/>
</svg>
