<svg xmlns="http://www.w3.org/2000/svg" viewBox="0 0 1000 215" width="220" height="50"><defs><style>.cls-1{fill:#e2231a;}.cls-2,.cls-3{fill:#474c55;}.cls-3{font-size:64.66px;font-family:MuseoSans-700Italic, Museo Sans;font-style:italic;letter-spacing:0.06em;}.cls-4{letter-spacing:0.04em;}.cls-5{letter-spacing:0.05em;}</style></defs><path class="cls-1" d="M26.68 162.46A54.79 54.79 0 0 1 23 142.68a55.45 55.45 0 0 1 55.4-55.32 54.85 54.85 0 0 1 7.84.56L80 94.18h-1.71a48.59 48.59 0 0 0-48.53 48.53 49.45 49.45 0 0 0 1.82 13.2h42.5l-17.74 33.42L99.27 146H40.9l65.56-65.56A68.31 68.31 0 0 0 42.7 201l20.4-38.48z"/><path class="cls-1" d="M113.95 84.39l-20.4 38.48H130A55.27 55.27 0 0 1 78.33 198a55.83 55.83 0 0 1-8.09-.59l6.18-6.24h1.91a48.59 48.59 0 0 0 48.54-48.53 54.09 54.09 0 0 0-1.82-13.2H82.57L100.31 96l-43.59 43.38h58.53l-65.06 65.56a68.31 68.31 0 0 0 63.76-120.55z"/><path class="cls-2" d="M180.51 184.87l5.88-8.59a2.94 2.94 0 0 1 4.67-.6c3.77 3.16 9.5 7.84 18.69 7.84 6.78 0 13.41-5.28 13.41-12.81 0-6.63-4.52-11-13-16.58-9.95-6.48-21.7-15.07-21.7-30.14s10.4-31.35 34.06-31.35c14 0 24.26 7.23 26.83 9.8a4.28 4.28 0 0 1 .45 6l-5.8 8.31c-1.21 1.81-3.16 2-5.28.3-4.67-3.77-9.34-6.63-17-6.63s-12.81 5.88-12.81 11.75c0 6 4.07 9 13.11 15.07 9.95 6.63 23.21 14.92 23.21 31.5 0 17.63-13.71 32.4-36 32.4-14.17 0-24-7.39-28.63-11.76-1-.9-1.75-2.25-.09-4.51zM254.66 195.72l56.67-101.43a2.78 2.78 0 0 1 2.56-1.66h1.36a2.26 2.26 0 0 1 2.11 1.66l27.73 101.43a3 3 0 0 1-2.86 3.92h-13.12c-2.26 0-3.47-.75-3.92-3l-3.77-16.73H283.9l-8.74 16.73a5.37 5.37 0 0 1-4.82 3h-13.87c-2.11 0-2.86-1.96-1.81-3.92zm61.94-32.1l-7.08-32.86h-.3l-16.43 32.86zM374 97a3.35 3.35 0 0 1 3-2.86h15a2.4 2.4 0 0 1 2.23 2.86l-9 63.45a26.77 26.77 0 0 0-.3 4.82c0 9.95 5.12 16 15.37 16 12.36 0 19.29-8 21.1-20.65l9-63.6a3.22 3.22 0 0 1 3-2.86h14.92A2.49 2.49 0 0 1 450.6 97l-9.19 64.5c-3.17 22.91-19.14 39.64-42.65 39.64-20.2 0-34.36-13.87-34.36-33.61a42.21 42.21 0 0 1 .45-6zM523.25 92.63a40.51 40.51 0 0 1 31.35 14.32 3.12 3.12 0 0 1-.6 4.22l-8.15 7.83a3.41 3.41 0 0 1-5 0 27.12 27.12 0 0 0-18.69-7.54c-18.08 0-33.76 18.69-33.76 40.24 0 16 8.59 29.69 23.06 29.69 8.74 0 15.52-4.37 20.65-8.89 2-1.66 3.62-1.36 4.82.15l7.84 9.8c.75 1.06.3 3-.75 4.07-10.55 10.1-22 14.62-34.06 14.62-26.07 0-43-20.95-43-46.87.04-35.41 25.09-61.64 56.29-61.64zM582.94 97a3.21 3.21 0 0 1 2.86-2.86h55.76a2.4 2.4 0 0 1 2.26 2.86L642 109.36a3.22 3.22 0 0 1-3 2.86h-38.58L597 136.94h32a2.49 2.49 0 0 1 2.26 2.86l-1.81 12.51a3.34 3.34 0 0 1-3 2.86h-32l-3.77 26.37h38.73c1.51 0 2.26 1.36 2.11 2.86l-1.66 12.36a3.23 3.23 0 0 1-3 2.86H571a2.24 2.24 0 0 1-2.11-2.86z"/><path class="cls-1" d="M679.7 97a3.35 3.35 0 0 1 3-2.86h6.48a2.49 2.49 0 0 1 2.28 2.86l-13.11 92.54h38.43a2.39 2.39 0 0 1 2.11 2.86l-.6 4.37a3.36 3.36 0 0 1-3 2.86h-47.34a2.4 2.4 0 0 1-2.26-2.86zM731.26 195.72l55.61-101.43a2.87 2.87 0 0 1 2.56-1.66h1.36a2.26 2.26 0 0 1 2.11 1.66l26.83 101.43a3.11 3.11 0 0 1-2.86 3.92h-6.33a2.2 2.2 0 0 1-2.26-1.66l-6-24.87h-47L742.41 198a3.27 3.27 0 0 1-2.86 1.66h-6.48c-2.07-.02-2.87-1.98-1.81-3.94zm68.12-32l-11.91-49.43h-.9l-25.77 49.43zM892.67 146.59c5.88 3.16 12.81 9.49 12.81 20.5 0 18.54-13.11 32.55-33.91 32.55h-31.2a2.4 2.4 0 0 1-2.26-2.86l14-99.77a3.35 3.35 0 0 1 3-2.86h30c14.92 0 24.26 10.85 24.26 24 0 14.62-8 23.51-16.73 28zm-19 43c10.4 0 19.14-9.65 19.14-21.4a15.81 15.81 0 0 0-16.13-16.28H855.6l-5.27 37.68zm4.52-48.08c11.15 0 18.39-8.89 18.39-22.15 0-8.74-4.52-14.77-13.26-14.77h-20.8l-5.28 36.92zM924 183.81l2.41-2.56c1.81-1.81 3-2.41 4.82-.75 4.52 4.07 9.65 10.55 22.3 10.55 9.95 0 19-6.63 19-18.24 0-9.49-7.08-15.07-19.59-22.3-12.06-6.93-20.2-13.56-20.2-27.43 0-12.66 8-30.44 32.7-30.44a38.64 38.64 0 0 1 23.36 7.69c.75.6 2.11 2.26.15 5.13l-1.66 2.41c-1.51 2.11-3 2.71-5 1.36-5-3.46-10.7-6.48-17.94-6.48-13 0-20.2 10.25-20.2 19 0 8.44 5.73 14 15.22 19.14 14.47 7.84 25.47 15.22 25.47 30.75 0 16.73-12.06 29.54-33 29.54-15.07 0-23.81-8.59-28.18-13-.99-1.05-1.59-2.41.34-4.37z"/><text class="cls-3" transform="translate(208.13 51.83)">P<tspan class="cls-4" x="43.65" y="0">O</tspan><tspan x="98.93" y="0">WERED </tspan><tspan class="cls-5" x="364.89" y="0">B</tspan><tspan x="409.77" y="0">Y</tspan></text></svg>
