<svg xmlns="http://www.w3.org/2000/svg" xmlns:xlink="http://www.w3.org/1999/xlink" width="86" height="68"><defs><path id="a" d="M.007 67.2h85.4V0H.007z"/></defs><g fill="none" fill-rule="evenodd"><path fill="#9B51FF" d="M85.407 8.4h-77V3.36C8.407 1.504 9.874 0 11.683 0H82.13c1.81 0 3.277 1.504 3.277 3.36V8.4z"/><mask id="b" fill="#fff"><use xlink:href="#a"/></mask><path fill="#621ED3" mask="url(#b)" d="M21.007 8.4h15.4V0h-15.4zM82.13 52.5H11.683a3.272 3.272 0 0 1-3.276-3.267V8.4h77v40.833A3.272 3.272 0 0 1 82.13 52.5"/><path fill="#D283FF" d="M21.357 16.1H1.647c-.906 0-1.64.738-1.64 1.647V45.59c0 5.89 3.133 11.33 8.217 14.27l12.313 7.12a1.636 1.636 0 0 0 1.64 0l12.312-7.12a16.481 16.481 0 0 0 8.218-14.27V17.748c0-.91-.735-1.648-1.642-1.648H21.357z" mask="url(#b)"/><path fill="#9B51FF" d="M41.037 16.1h-20.03v51.1c.287 0 .575-.073.832-.22l12.512-7.119c5.17-2.941 8.356-8.382 8.356-14.272V17.748c0-.91-.748-1.648-1.67-1.648" mask="url(#b)"/></g></svg>