<svg width="693" height="615" fill="none" xmlns="http://www.w3.org/2000/svg"><path d="M191 587c-23.6-9.2 3-161.333 6-234-26-161-430.501-311 206.5-213C429.691 144.03 640 292 566 429c-24.973 46.234-345.5 169.5-375 158Z" fill="#FFFBE3"/><path d="M505.068 554.727c-2.86-1.78-124.619 17.892-153.184 3.773-23.27-11.502 49.785-55.381 18-70.325-71.075-33.417-153.849-70.112-205.434-86.262C11.884 354.148-8.268 280.965 2.384 225.5c10.652-55.465 44.13-19.428 86.613-57.759 42.482-38.33 177.917-119.053 296.994-114.738 119.077 4.316 177.41 6.981 182.609 52.039 5.2 45.057-26.376 72.218-94.348 59.526-67.971-12.692-153.189-24.496-140.254-40.361 12.935-15.992 15.44-21.323 37.886-19.165 9.708.933-12.721 10.289 2.116 4.958 14.837-5.331-9.435-13.858-22.116-15-12.681-1.015 22.116 6.317-44.384 29.207-69.874 35.03-112.488 45.438-121.999 88.084-9.511 42.646 54.149 125.653 140.381 169.949 86.232 44.296 211.142 108.772 205.689 119.561-5.326 10.788-26.503 52.926-26.503 52.926Z" fill="#F9BFD1"/><path d="M526.245 512.589c.508-.888-293.824-119.561-391.596-152.434C36.877 327.282-2.453 261.054 12.384 208c14.837-53.054 50.743-83.412 164.494-126.566 113.75-43.153 311.958-59.78 354.567-23.354 42.609 36.427 89.022 90.623 37.156 111.819 0 0-176.523-1.904-199.603-15.865-23.08-13.835-55.549-30.515-42.614-40.034 12.935-9.519 86.111 12.365 135.568 15.538 49.456 3.173 87.754-13.454 27.264-31.223-60.489-17.77-128.334-16.754-182.863 0-40.834 12.565-76.214 35.411-114.385 59.907-38.17 24.496-75.326 51.911-68.986 97.603 6.341 45.692 119.584 45.819 190.853 72.473 71.268 26.654 231.686 145.961 231.686 145.961l-19.276 38.33Z" fill="#EF4056"/><path d="M532.84 487.712c-5.327-6.98-163.461-97.73-321.723-141.391C52.855 302.787-5.993 257.983 20.384 178.403c19.656-59.273 4.826-4.189 50.479-39.219C116.515 104.153 211.37 17.846 366.462 24.446c155.091 6.6 217.102 18.023 236.251 48.865 19.149 30.842 43.497 75.392 0 83.896-43.497 8.504-135.182 15.103-186.541 4.188-59.475-12.565-125.397-42.58-117.788-46.895 0 0 111.403 21.275 133.259 24.638 21.857 3.362 104.113 13.753 117.936-7.443 13.822-21.196-22.319-52.038-82.809-58.384-60.489-6.346-132.645-17.261-222.682 20.942-57.826 24.369-100.942 58.638-138.098 84.15-45.78 31.476-41.468 79.326 16.992 77.422 58.461-1.903 248.045 84.15 293.317 97.984 45.272 13.835 141.269 88.592 141.269 88.592l-24.728 45.311Z" fill="#FCB643"/><path d="M544.76 449.509s-139.367-96.842-242.338-118.038C199.45 310.275 48.67 296.567 26.478 228.156c-23.714-73.107 26.504-28.557 26.504-28.557 7.736-4.189 0-29.446 57.446-75.646C170.41 75.723 240.537 46.53 347.06 44.5c106.522-2.031 190.091 4.188 223.316 31.857 25.616 21.323 46.667 78.692-33.986 81.865-80.652 3.173-195.749-26.387-222.506-40.222-26.884-13.835-35.5 13 83.393 55.072 60.617 14.85 194.53 33 224.204-3.173 29.674-36.173 61.504-113.722-63.786-140.25-125.291-26.526-284.313-34.014-380.437 0-96.124 34.016-132.9 93.542-137.084 137.077-4.185 43.534 30.054 85.926 66.069 92.78 36.142 6.854 202.646 8.123 249.44 21.958 46.794 13.834 152.682 95.318 168.407 116.007 15.724 20.688 33.478 44.93 33.478 44.93l-12.808 7.108Z" fill="#1CB0A8"/><path d="M517.124 374.107c-32.718-33.127-94.095-112.58-204.168-142.915-108.044-29.699-182.102-22.211-213.171-23.353-130.744-5.077-94.73-77.804-77.483-102.046C39.55 81.551 111.578 13.267 327.032 1.717c216.596-11.677 371.56 37.188 365.22 116.642-6.341 79.453-150.78 106.487-242.085 86.307C312.956 174.339 266.793 124.361 272.5 117c5.58-7.488 35.5 8.5 79.5 30s271.266 69.343 286.103-15.695C652.94 46.267 506.472 25.071 375.982 22.913c-120.218-1.904-237.9 46.707-297.375 90.369-26.123 19.165-101.957 131.364 59.475 159.414 161.432 28.05 211.396 5.331 292.936 59.527 81.541 54.195 119.527 106.575 122.755 102.426 3.227-4.149-3.932-27.415-36.649-60.542Z" fill="#95D2FF"/><path d="m528.147 380.971-54.783 119.053H419.85l-9.892 62.826 95.11-7.996 63.659-126.541-40.58-47.342Zm-97.391 160.81-10.906 3.046 5.453-31.222h9.003l-3.55 28.176Zm8.242 5.839 3.297-37.062 30.689-1.903 12.301 31.857-46.287 7.108Zm59.349-11.931-16.993-34.269 46.667-103.949 26.377 32.111-56.051 106.107Z" fill="#fff" stroke="#fff" stroke-width="3" stroke-miterlimit="10" stroke-linecap="round" stroke-linejoin="round"/><path d="m443.091 520.942 32.615-2.667M451.699 512.333l3.153 31.039M461.521 511l6.789 32.009M442 535.734l37.101-3.88" stroke="#fff" stroke-width="3" stroke-miterlimit="10" stroke-linecap="round" stroke-linejoin="round"/><path d="M409.958 437.07s-2.536 10.916 7.736 18.023c5.453 3.808 2.029 9.139-4.819 6.346-11.793-4.823-9.638-14.215-9.638-14.215" fill="#fff"/><path d="M409.958 437.07s-2.536 10.916 7.736 18.023c5.453 3.808 2.029 9.139-4.819 6.346-11.793-4.823-9.638-14.215-9.638-14.215" stroke="#fff" stroke-width="3" stroke-miterlimit="10"/><path d="M382.821 375.005c-19.783-5.33-32.591 5.966-45.272 33.635-6.087 13.073-6.848 27.415-1.649 37.315 5.707 10.915 19.402 19.673 24.982 23.48 10.652 7.108 38.932-2.665 46.667-24.622 7.862-22.085 12.047-59.908-24.728-69.808Z" fill="#fff" stroke="#fff" stroke-width="3" stroke-miterlimit="10"/><path d="M370.013 347.59c11.286-2.792 26.25-1.396 31.195 7.108 4.946 8.503-2.789 25.511-21.938 30.461-19.149 4.95-28.533-5.711-28.279-19.419.127-10.027 19.022-18.15 19.022-18.15ZM400.955 442.401a1.903 1.903 0 1 0-.002-3.806 1.903 1.903 0 0 0 .002 3.806Z" fill="#010101"/><path d="M382.821 375.005c-24.729-3.046-32.591 5.966-45.272 33.635-6.087 13.073-6.848 27.415-1.649 37.315 2.029 3.935 5.199 7.615 8.497 10.788 6.34-.38 12.3-3.553 14.329-4.696 3.805-2.157 3.551-6.346 3.298-11.55-.254-5.203 1.394-9.265 4.184-12.946 2.79-3.681 8.497-5.204 15.091-.888 6.594 4.188 13.188 7.107 22.699 4.442 2.917-.761 5.58-2.538 8.116-4.569 2.917-20.562-.761-48.104-29.293-51.531Z" fill="#010101" stroke="#000" stroke-width="3" stroke-miterlimit="10"/><path d="M382.947 442.401s-4.818 16.246 2.156 25.638" stroke="#010101" stroke-width="3" stroke-miterlimit="10" stroke-linecap="round"/><path d="m412.875 486.189-1.648.127c-.254-2.031-.634-4.061-1.268-5.965-2.029-5.966-6.595-1.904-6.595-1.904a208.96 208.96 0 0 0-2.409-8.885c-2.663-9.519-6.721-9.392-7.609-2.157-.253 2.538 0 6.727.507 11.169-.76-.254-1.268-.254-1.268-.254s-5.706.762-6.594 10.408c-.888 9.773 4.185 17.007 4.185 17.007l2.409 35.538 20.163-2.157c6.595-10.789 6.975-24.242 6.975-33.508 0-9.265-6.848-19.419-6.848-19.419Z" fill="#fff" stroke="#fff" stroke-width="3" stroke-miterlimit="10"/><path d="M390.303 506.37s-5.073-7.235-4.185-17.008c.887-9.773 6.594-10.407 6.594-10.407" stroke="#fff" stroke-width="3" stroke-miterlimit="10" stroke-linecap="round" stroke-linejoin="round"/><path d="M396.77 496.089s-4.185-21.323-3.424-28.684c.634-5.204 2.79-6.727 4.946-3.808.887 1.142 1.775 3.173 2.536 5.965a209.364 209.364 0 0 1 2.409 8.885c1.142 4.569 1.903 8.123 2.41 12.438" stroke="#010101" stroke-width="3" stroke-miterlimit="10" stroke-linecap="round" stroke-linejoin="round"/><path d="M412.875 485.428s6.975 11.677 6.975 20.942-.381 22.719-6.975 33.507" stroke="#010101" stroke-width="3" stroke-miterlimit="10" stroke-linecap="round"/><path d="m409.958 562.723 95.11-7.996 63.659-126.541-40.58-47.215" stroke="#000" stroke-width="3" stroke-miterlimit="10" stroke-linecap="round" stroke-linejoin="round"/><path d="M184.359 508.401s93.842-52.038 121.74-57.115c27.899-5.077 33.352 1.65 46.54 11.93 33.606 26.273 27.772 39.346 29.294 74.123l8.496-26.781c.381-1.142 1.776-1.777 2.79-1.142 5.326 2.792 27.519 11.677 29.548 18.785 0 0 41.213 92.272-51.994 85.545-44.384-3.173-54.402-36.807-54.402-36.807s-53.768 31.73-101.957 27.923c-48.189-3.808-30.055-96.461-30.055-96.461Z" fill="#00CB77"/><path d="M359.741 487.712s15.978 21.069 13.569 67.015" stroke="#010101" stroke-width="3" stroke-miterlimit="10" stroke-linecap="round"/><path d="M390.302 510.558s-18.895 42.773-21.177 61.177M305.846 483.905s-6.848 72.599 16.866 103.568" stroke="#010101" stroke-width="3" stroke-miterlimit="10" stroke-linecap="round"/><path d="M403.237 474.132s4.566-.127 6.721 5.838c2.156 5.965 1.776 13.835 1.776 13.835" stroke="#010101" stroke-width="3" stroke-miterlimit="10" stroke-linecap="round" stroke-linejoin="round"/><path d="M359.741 380.971c-15.344 6.473-27.265-14.596-27.265-14.596" stroke="#010101" stroke-width="3" stroke-miterlimit="10" stroke-linecap="round"/><path d="M344.397 364.598s14.837 30.334 29.166 30.842" stroke="#010101" stroke-width="3" stroke-miterlimit="10" stroke-linecap="round"/><path d="M411.607 402.167c-8.243-3.681-12.174 29.573-12.174 29.573s25.87 2.031 26.124 0c1.268-7.743.253-23.354-13.95-29.573Z" fill="#010101" stroke="#000" stroke-width="3" stroke-miterlimit="10" stroke-linecap="round" stroke-linejoin="round"/><path d="M93.031 103.837S-41.616 180 202.39 213.618c48.823 21.196-86.785 52.522-113.543 45.16-25.362-6.98-90.036-55.053-84.076-100.111 9.384-72.218 88.261-54.83 88.261-54.83Z" fill="#A5CFEE"/><path d="M350.884 115.5c-33.6 2-88.333 27.167-111.5 39.5 0-5.5 3.2-19.1 16-29.5 16-13 50-34.5 95.5-33.5s42 21 0 23.5Z" fill="#FFC0D1"/></svg>