<svg xmlns="http://www.w3.org/2000/svg" viewBox="0 0 54.2 64" width="54" height="64">
  <style>.dark {fill: #000}</style>
  <path class="dark" d="M4 20.7c-1.1 0-2 .4-2.8 1.2-.8.8-1.2 1.7-1.2 2.8v16.5c0 1.1.4 2 1.2 2.8.8.8 1.7 1.2 2.8 1.2 1.1 0 2-.4 2.8-1.2.8-.8 1.1-1.7 1.1-2.8V24.7c0-1.1-.4-2-1.2-2.8C6 21.1 5 20.7 4 20.7z"/>
  <path class="dark" d="M35.8 5.9l2.7-5c.2-.3.1-.6-.2-.8-.3-.2-.5-.1-.7.2l-2.8 5.1c-2.4-1.1-5-1.6-7.7-1.6s-5.3.5-7.7 1.6L16.6.3c-.2-.3-.4-.4-.8-.2-.3.2-.4.4-.2.8l2.7 5c-2.8 1.4-5 3.4-6.6 5.9-1.6 2.5-2.5 5.3-2.5 8.3h35.6c0-3-.8-5.8-2.5-8.3-1.6-2.5-3.7-4.5-6.5-5.9zM20 13.2c-.3.3-.6.4-1.1.4-.4 0-.8-.1-1-.4-.3-.3-.4-.6-.4-1.1 0-.4.1-.8.4-1.1.3-.3.6-.4 1-.4s.8.1 1.1.4c.3.3.4.6.4 1.1.1.5-.1.8-.4 1.1zm16.2 0c-.3.3-.6.4-1 .4s-.8-.1-1.1-.4c-.3-.3-.4-.6-.4-1.1 0-.4.1-.8.4-1.1.3-.3.6-.4 1.1-.4.4 0 .8.1 1 .4.3.3.4.6.4 1.1.1.5-.1.8-.4 1.1z"/>
  <path class="dark" d="M9.4 47.1c0 1.2.4 2.2 1.2 3 .8.8 1.8 1.2 3 1.2h2.8V60c0 1.1.4 2 1.2 2.8.8.8 1.7 1.2 2.8 1.2 1.1 0 2-.4 2.8-1.2.8-.8 1.2-1.7 1.2-2.8v-8.7h5.3V60c0 1.1.4 2 1.2 2.8.8.8 1.7 1.2 2.8 1.2 1.1 0 2-.4 2.8-1.2.8-.8 1.2-1.7 1.2-2.8v-8.7h2.9c1.2 0 2.1-.4 3-1.2.8-.8 1.2-1.8 1.2-3V21.5H9.4v25.6z"/>
  <path class="dark" d="M50.2 20.7c-1.1 0-2 .4-2.8 1.1-.8.8-1.2 1.7-1.2 2.8v16.5c0 1.1.4 2 1.2 2.8.8.8 1.7 1.2 2.8 1.2 1.1 0 2-.4 2.8-1.2.8-.8 1.2-1.7 1.2-2.8V24.7c0-1.1-.4-2-1.2-2.8-.8-.8-1.7-1.2-2.8-1.2z"/>
</svg>
