<svg width="481" height="222" fill="none" xmlns="http://www.w3.org/2000/svg"><rect x="8" y="41" width="436" height="168" rx="3.143" stroke="#0090ED" stroke-width="5.238" stroke-dasharray="11.79 11.79"/><path d="M469.287 7.374c0-.623.316-1.192.841-1.522l3.183-1.988c.288-.178.615-.273.954-.273h4.717V0h-4.717a5.395 5.395 0 0 0-2.855.819l-3.184 1.99c-.272.17-.502.388-.735.601-.235-.213-.462-.43-.735-.6L463.57.819A5.398 5.398 0 0 0 460.717 0H456v3.591h4.717c.336 0 .667.095.954.273l3.183 1.988c.528.33.844.899.844 1.522v29.061c0 .624-.316 1.192-.844 1.523l-3.186 1.988a1.804 1.804 0 0 1-.954.273H456v3.59h4.717a5.4 5.4 0 0 0 2.856-.818l3.183-1.988c.275-.172.502-.39.735-.6.233.21.463.428.735.6l3.186 1.99a5.4 5.4 0 0 0 2.856.82h4.714v-3.591h-4.717c-.336 0-.666-.095-.954-.273l-3.183-1.988c-.528-.33-.841-.9-.841-1.523V7.375ZM90.207 176h8.374v-32.07h-8.374V176Zm-1.069-41.096c0 3.028 2.138 5.226 5.226 5.226 3.148 0 5.286-2.198 5.286-5.226 0-3.089-2.138-5.345-5.286-5.345-3.029 0-5.226 2.256-5.226 5.345ZM104.028 176h8.255v-17.816c0-5.167 2.435-7.721 6.295-7.721 3.979 0 5.761 2.494 5.761 6.77V176h8.374v-17.995c0-5.048 2.435-7.542 6.117-7.542 4.157 0 5.938 2.673 5.938 7.008V176h8.433v-19.717c0-8.017-4.097-13.006-12.233-13.006-4.395 0-8.018 2.079-10.037 5.405-1.722-3.445-4.989-5.405-9.799-5.405-3.86 0-6.948 1.663-8.908 4.454v-3.801h-8.196V176Zm72.593.653c7.898 0 15.381-6.473 15.381-16.688 0-10.214-7.364-16.688-15.441-16.688-4.335 0-7.958 1.96-10.095 5.108v-4.455h-8.077v44.898h8.136V172.08c2.138 2.97 5.761 4.573 10.096 4.573Zm-1.663-7.72c-5.048 0-8.908-4.039-8.908-9.027 0-4.989 3.86-9.027 8.908-9.027 4.929 0 8.849 3.979 8.849 9.027 0 5.048-3.92 9.027-8.849 9.027Zm21.32 7.067h8.137v-16.926c0-5.404 2.731-7.542 6.948-7.542 1.841 0 3.385.475 4.276 1.129l2.969-8.077c-1.366-.713-3.266-1.247-5.404-1.247-4.098 0-7.305 1.722-8.849 5.523v-4.93h-8.077V176Zm25.479 0h8.374v-32.07h-8.374V176Zm-1.069-41.096c0 3.028 2.138 5.226 5.226 5.226 3.148 0 5.286-2.198 5.286-5.226 0-3.089-2.138-5.345-5.286-5.345-3.029 0-5.226 2.256-5.226 5.345ZM235.578 176h8.255v-17.816c0-5.167 2.435-7.721 6.295-7.721 3.979 0 5.761 2.494 5.761 6.77V176h8.374v-17.995c0-5.048 2.434-7.542 6.116-7.542 4.158 0 5.939 2.673 5.939 7.008V176h8.433v-19.717c0-8.017-4.097-13.006-12.234-13.006-4.394 0-8.017 2.079-10.036 5.405-1.722-3.445-4.989-5.405-9.799-5.405-3.86 0-6.949 1.663-8.908 4.454v-3.801h-8.196V176Zm64.281.653c5.048 0 9.443-2.256 11.759-5.582V176h7.899v-19.717c0-8.077-5.405-13.006-14.847-13.006-7.186 0-11.878 3.029-15.144 7.305l7.542 3.741c1.485-2.672 3.92-4.216 7.542-4.216 4.633 0 6.949 2.375 6.949 5.82v.416h-8.433c-8.909 0-14.432 4.097-14.432 10.749 0 5.642 4.157 9.561 11.165 9.561Zm2.376-6.77c-3.385 0-4.989-1.188-4.989-3.504 0-2.494 1.96-4.038 6.83-4.038h7.542v1.722c-1.603 3.445-5.464 5.82-9.383 5.82ZM324.754 176h8.255v-17.698c0-4.988 2.97-7.839 6.83-7.839 4.335 0 6.533 2.851 6.533 7.424V176h8.373v-19.36c0-8.374-4.81-13.363-12.412-13.363-3.979 0-7.304 1.782-9.383 4.692v-4.039h-8.196V176Zm32.397-24.824h5.939v13.481c0 8.73 3.919 11.937 10.63 11.937 2.969 0 5.582-.891 7.661-2.435l-3.741-6.414c-.951.832-1.841 1.188-2.97 1.188-2.078 0-3.504-1.188-3.504-4.573v-13.184h8.433v-7.246h-8.433v-11.699l-8.076 4.751v6.948h-5.939v7.246Zm41.205 25.477c7.068 0 11.581-2.91 14.788-7.423l-6.711-3.92c-1.603 2.613-4.157 4.276-7.958 4.276-4.751 0-8.136-2.613-9.205-6.77h25.477v-3.088c0-9.502-6.948-16.451-16.569-16.451-9.561 0-16.807 7.424-16.807 16.748 0 9.324 6.652 16.628 16.985 16.628Zm-.178-26.427c4.276 0 7.364 2.197 8.433 6.176h-17.103c1.306-3.741 4.513-6.176 8.67-6.176ZM29.8 113h28.448v-8.136H38.234V69.647H29.8V113Zm47.762.653c7.067 0 11.581-2.91 14.788-7.423l-6.71-3.92c-1.604 2.613-4.158 4.276-7.959 4.276-4.75 0-8.136-2.613-9.205-6.77h25.477v-3.088c0-9.502-6.948-16.45-16.569-16.45-9.561 0-16.807 7.423-16.807 16.747s6.652 16.628 16.985 16.628Zm-.178-26.427c4.276 0 7.364 2.197 8.433 6.176H68.714c1.306-3.742 4.513-6.176 8.67-6.176Zm17.817.95h5.939v13.481c0 8.73 3.92 11.937 10.63 11.937 2.97 0 5.583-.891 7.661-2.435l-3.741-6.414c-.95.832-1.841 1.188-2.969 1.188-2.079 0-3.504-1.188-3.504-4.573V88.176h8.433V80.93h-8.433V69.231l-8.077 4.751v6.948h-5.939v7.246Zm25.131 0h5.938v13.481c0 8.73 3.92 11.937 10.631 11.937 2.969 0 5.582-.891 7.661-2.435l-3.742-6.414c-.95.832-1.841 1.188-2.969 1.188-2.078 0-3.504-1.188-3.504-4.573V88.176h8.433V80.93h-8.433V69.231l-8.077 4.751v6.948h-5.938v7.246ZM147.128 113h8.136V96.074c0-5.404 2.732-7.542 6.948-7.542 1.841 0 3.385.475 4.276 1.129l2.97-8.077c-1.366-.713-3.267-1.247-5.405-1.247-4.097 0-7.304 1.722-8.848 5.523v-4.93h-8.077V113Zm38.786.653c7.067 0 11.58-2.91 14.787-7.423l-6.71-3.92c-1.604 2.613-4.158 4.276-7.958 4.276-4.751 0-8.137-2.613-9.206-6.77h25.478v-3.088c0-9.502-6.949-16.45-16.569-16.45-9.562 0-16.807 7.423-16.807 16.747s6.651 16.628 16.985 16.628Zm-.178-26.427c4.276 0 7.364 2.197 8.433 6.176h-17.104c1.307-3.742 4.513-6.176 8.671-6.176Zm43.746 26.427c5.048 0 9.443-2.256 11.759-5.582V113h7.898V93.283c0-8.077-5.404-13.006-14.846-13.006-7.186 0-11.878 3.029-15.144 7.305l7.542 3.741c1.485-2.672 3.919-4.216 7.542-4.216 4.632 0 6.949 2.375 6.949 5.82v.416h-8.434c-8.908 0-14.431 4.097-14.431 10.749 0 5.642 4.157 9.561 11.165 9.561Zm2.376-6.77c-3.386 0-4.989-1.188-4.989-3.504 0-2.494 1.96-4.038 6.83-4.038h7.542v1.722c-1.604 3.445-5.464 5.82-9.383 5.82Zm1.484-29.931h6.117l-6.77-10.156h-8.374l9.027 10.155ZM277.071 113h8.136l12.59-32.07h-8.492l-7.958 21.618-7.899-21.618h-8.67L277.071 113Zm37.568.653c9.68 0 16.985-7.483 16.985-16.688 0-9.264-7.424-16.688-16.985-16.688-9.621 0-16.926 7.424-16.926 16.688 0 9.205 7.305 16.688 16.926 16.688Zm.059-7.78c-4.929 0-8.789-3.979-8.789-8.967 0-4.989 3.86-8.968 8.789-8.968 4.87 0 8.79 3.98 8.79 8.968 0 4.988-3.92 8.967-8.79 8.967Zm17.929-17.697h5.939v13.481c0 8.73 3.919 11.937 10.63 11.937 2.97 0 5.583-.891 7.661-2.435l-3.741-6.414c-.95.832-1.841 1.188-2.97 1.188-2.078 0-3.504-1.188-3.504-4.573V88.176h8.434V80.93h-8.434V69.231l-8.076 4.751v6.948h-5.939v7.246ZM359.423 113h8.136V96.074c0-5.404 2.732-7.542 6.949-7.542 1.841 0 3.385.475 4.276 1.129l2.969-8.077c-1.366-.713-3.266-1.247-5.404-1.247-4.098 0-7.305 1.722-8.849 5.523v-4.93h-8.077V113Zm38.786.653c7.067 0 11.581-2.91 14.788-7.423l-6.711-3.92c-1.604 2.613-4.157 4.276-7.958 4.276-4.751 0-8.136-2.613-9.205-6.77H414.6v-3.088c0-9.502-6.948-16.45-16.569-16.45-9.562 0-16.807 7.423-16.807 16.747s6.652 16.628 16.985 16.628Zm-.178-26.427c4.276 0 7.364 2.197 8.433 6.176H389.36c1.307-3.742 4.514-6.176 8.671-6.176ZM32.744 170.438c.324 0 .647-.057.966-.166l9.264-3.217 18.886-19.643c1.97-2.052 1.97-5.392 0-7.444L59 136.993a4.934 4.934 0 0 0-7.157 0l-18.886 19.646-3.09 9.644a3.229 3.229 0 0 0 .734 3.228 2.972 2.972 0 0 0 2.143.927Zm21.485-30.961a1.638 1.638 0 0 1 2.383 0l2.863 2.978a1.803 1.803 0 0 1 0 2.479l-2.874 2.992-5.249-5.46 2.877-2.989Zm-18.325 19.059 13.06-13.585 5.246 5.456-13.06 13.589-7.872 2.731 2.626-8.191ZM65.984 172.371l-4.841 1.538a11.362 11.362 0 0 1-5.767.298l-5.618-1.171a14.758 14.758 0 0 0-9.766 1.362c-3.325 1.729-7.334 1.055-9.965-1.684l-.138-.143-2.248 2.627c2.307 2.397 5.376 3.66 8.487 3.66a11.58 11.58 0 0 0 5.373-1.325 11.451 11.451 0 0 1 7.596-1.055l5.618 1.17a14.66 14.66 0 0 0 7.413-.387l4.84-1.538-.984-3.352Z" fill="#F8F6F4"/><path stroke="#FFFFF2" stroke-width="1.06" d="M427.53 127v58.326"/></svg>
