<?xml version="1.0" encoding="utf-8"?>
<!-- Generator: Adobe Illustrator 16.0.0, SVG Export Plug-In . SVG Version: 6.00 Build 0)  -->
<!DOCTYPE svg PUBLIC "-//W3C//DTD SVG 1.1//EN" "http://www.w3.org/Graphics/SVG/1.1/DTD/svg11.dtd">
<svg version="1.1" id="DE_Download_on_the" xmlns="http://www.w3.org/2000/svg" xmlns:xlink="http://www.w3.org/1999/xlink" x="0px"
	 y="0px" width="135px" height="40px" viewBox="0 0 135 40" enable-background="new 0 0 135 40" xml:space="preserve">
<g>
	<path fill="#A6A6A6" d="M130.197,40H4.729C2.122,40,0,37.872,0,35.267V4.726C0,2.12,2.122,0,4.729,0h125.468
		C132.803,0,135,2.12,135,4.726v30.541C135,37.872,132.803,40,130.197,40L130.197,40z"/>
	<path d="M134.032,35.268c0,2.116-1.714,3.83-3.834,3.83H4.729c-2.119,0-3.839-1.714-3.839-3.83V4.725
		c0-2.115,1.72-3.835,3.839-3.835h125.468c2.121,0,3.834,1.72,3.834,3.835L134.032,35.268L134.032,35.268z"/>
	<g>
		<g>
			<path fill="#FFFFFF" d="M30.129,19.783c-0.029-3.223,2.639-4.791,2.761-4.864c-1.511-2.203-3.853-2.504-4.676-2.528
				c-1.967-0.207-3.875,1.177-4.877,1.177c-1.022,0-2.565-1.157-4.228-1.123c-2.14,0.033-4.142,1.272-5.24,3.196
				c-2.266,3.923-0.576,9.688,1.595,12.859c1.086,1.553,2.355,3.287,4.016,3.225c1.625-0.066,2.232-1.035,4.193-1.035
				c1.943,0,2.513,1.035,4.207,0.996c1.744-0.027,2.842-1.559,3.89-3.127c1.255-1.779,1.759-3.533,1.779-3.623
				C33.508,24.923,30.162,23.647,30.129,19.783z"/>
			<path fill="#FFFFFF" d="M26.929,10.306c0.874-1.093,1.472-2.58,1.306-4.089c-1.265,0.056-2.847,0.875-3.758,1.944
				c-0.806,0.942-1.526,2.486-1.34,3.938C24.558,12.204,26.017,11.382,26.929,10.306z"/>
		</g>
	</g>
	<g>
		<path fill="#FFFFFF" d="M53.681,31.502h-2.271l-1.244-3.908h-4.324l-1.185,3.908h-2.211l4.284-13.307h2.646L53.681,31.502z
			 M49.792,25.954l-1.125-3.475c-0.119-0.355-0.342-1.191-0.671-2.508h-0.04c-0.131,0.566-0.342,1.401-0.632,2.508l-1.105,3.475
			H49.792z"/>
		<path fill="#FFFFFF" d="M64.698,26.586c0,1.633-0.441,2.922-1.323,3.869c-0.79,0.844-1.771,1.264-2.942,1.264
			c-1.264,0-2.172-0.453-2.725-1.361h-0.04v5.055h-2.132V25.066c0-1.027-0.027-2.08-0.079-3.16h1.875l0.119,1.521h0.04
			c0.711-1.146,1.79-1.719,3.238-1.719c1.132,0,2.077,0.447,2.833,1.343S64.698,25.125,64.698,26.586z M62.526,26.665
			c0-0.935-0.21-1.704-0.632-2.31c-0.461-0.633-1.08-0.948-1.856-0.948c-0.526,0-1.004,0.175-1.431,0.523
			c-0.428,0.349-0.708,0.806-0.839,1.372c-0.066,0.264-0.099,0.48-0.099,0.651v1.6c0,0.698,0.214,1.286,0.642,1.767
			s0.984,0.721,1.668,0.721c0.803,0,1.428-0.309,1.875-0.928S62.526,27.679,62.526,26.665z"/>
		<path fill="#FFFFFF" d="M75.736,26.586c0,1.633-0.441,2.922-1.324,3.869c-0.789,0.844-1.77,1.264-2.941,1.264
			c-1.264,0-2.172-0.453-2.725-1.361h-0.039v5.055h-2.132V25.066c0-1.027-0.027-2.08-0.079-3.16h1.875l0.119,1.521h0.04
			c0.711-1.146,1.79-1.719,3.239-1.719c1.131,0,2.076,0.447,2.834,1.343C75.357,23.947,75.736,25.125,75.736,26.586z M73.564,26.665
			c0-0.935-0.211-1.704-0.633-2.31c-0.461-0.633-1.078-0.948-1.855-0.948c-0.527,0-1.004,0.175-1.432,0.523
			s-0.708,0.806-0.839,1.372c-0.065,0.264-0.099,0.48-0.099,0.651v1.6c0,0.698,0.214,1.286,0.641,1.767
			c0.428,0.48,0.984,0.721,1.67,0.721c0.803,0,1.428-0.309,1.875-0.928S73.564,27.679,73.564,26.665z"/>
		<path fill="#FFFFFF" d="M88.076,27.771c0,1.131-0.395,2.053-1.182,2.764c-0.867,0.777-2.076,1.164-3.625,1.164
			c-1.432,0-2.582-0.275-3.449-0.828l0.494-1.777c0.934,0.566,1.961,0.85,3.08,0.85c0.805,0,1.43-0.182,1.877-0.545
			c0.447-0.361,0.672-0.848,0.672-1.453c0-0.541-0.186-0.996-0.553-1.365c-0.369-0.369-0.98-0.711-1.836-1.028
			c-2.33-0.87-3.496-2.142-3.496-3.816c0-1.094,0.408-1.991,1.225-2.69s1.902-1.048,3.258-1.048c1.211,0,2.219,0.211,3.021,0.632
			l-0.533,1.738c-0.75-0.408-1.6-0.612-2.547-0.612c-0.75,0-1.336,0.185-1.758,0.553c-0.355,0.329-0.533,0.73-0.533,1.204
			c0,0.527,0.205,0.961,0.613,1.303c0.355,0.316,1,0.658,1.934,1.027c1.146,0.461,1.988,1,2.527,1.619
			C87.807,26.08,88.076,26.85,88.076,27.771z"/>
		<path fill="#FFFFFF" d="M95.123,23.506h-2.35v4.66c0,1.184,0.416,1.777,1.244,1.777c0.383,0,0.697-0.033,0.949-0.1l0.059,1.619
			c-0.422,0.158-0.975,0.236-1.658,0.236c-0.844,0-1.502-0.256-1.975-0.77c-0.475-0.514-0.711-1.375-0.711-2.586v-4.838h-1.402v-1.6
			h1.402v-1.757l2.092-0.632v2.389h2.35V23.506z"/>
		<path fill="#FFFFFF" d="M105.727,26.625c0,1.475-0.422,2.686-1.264,3.633c-0.881,0.975-2.053,1.461-3.514,1.461
			c-1.41,0-2.531-0.467-3.367-1.4c-0.836-0.936-1.254-2.113-1.254-3.535c0-1.486,0.432-2.705,1.293-3.652
			c0.863-0.947,2.025-1.422,3.486-1.422c1.408,0,2.539,0.468,3.395,1.402C105.318,24.02,105.727,25.191,105.727,26.625z
			 M103.516,26.695c0-0.885-0.191-1.645-0.572-2.277c-0.447-0.766-1.086-1.148-1.916-1.148c-0.855,0-1.508,0.383-1.955,1.148
			c-0.381,0.633-0.572,1.405-0.572,2.316c0,0.885,0.191,1.645,0.572,2.277c0.461,0.766,1.105,1.148,1.936,1.148
			c0.816,0,1.455-0.391,1.916-1.168C103.318,28.346,103.516,27.579,103.516,26.695z"/>
		<path fill="#FFFFFF" d="M112.656,23.782c-0.211-0.04-0.434-0.06-0.67-0.06c-0.752,0-1.33,0.283-1.738,0.85
			c-0.355,0.5-0.533,1.133-0.533,1.896v5.034h-2.133l0.02-6.574c0-1.105-0.025-2.113-0.078-3.021h1.855l0.08,1.836h0.059
			c0.223-0.631,0.578-1.138,1.066-1.52c0.473-0.342,0.986-0.514,1.539-0.514c0.197,0,0.375,0.014,0.533,0.039V23.782z"/>
		<path fill="#FFFFFF" d="M122.193,26.25c0,0.383-0.027,0.705-0.08,0.968h-6.396c0.025,0.948,0.336,1.673,0.928,2.173
			c0.539,0.447,1.238,0.67,2.094,0.67c0.947,0,1.809-0.15,2.586-0.453l0.336,1.48c-0.908,0.395-1.982,0.592-3.219,0.592
			c-1.488,0-2.656-0.438-3.504-1.312c-0.85-0.875-1.273-2.051-1.273-3.524c0-1.448,0.395-2.652,1.184-3.613
			c0.83-1.026,1.949-1.54,3.357-1.54c1.381,0,2.428,0.514,3.139,1.54C121.91,24.046,122.193,25.053,122.193,26.25z M120.16,25.697
			c0.012-0.631-0.127-1.178-0.416-1.639c-0.367-0.592-0.934-0.889-1.697-0.889c-0.697,0-1.264,0.29-1.697,0.869
			c-0.355,0.461-0.566,1.014-0.633,1.658H120.16z"/>
	</g>
	<g>
		<g>
			<path fill="#FFFFFF" d="M47.427,13.432h-3.715V6.894h1.048v5.655h2.667V13.432z"/>
			<path fill="#FFFFFF" d="M52.365,13.432h-0.941l-0.077-0.543h-0.029c-0.323,0.433-0.782,0.65-1.377,0.65
				c-0.446,0-0.806-0.143-1.077-0.427c-0.246-0.258-0.368-0.579-0.368-0.96c0-0.576,0.24-1.015,0.723-1.319
				c0.481-0.304,1.159-0.453,2.032-0.446v-0.087c0-0.621-0.326-0.931-0.978-0.931c-0.465,0-0.875,0.117-1.229,0.349L48.83,9.028
				c0.438-0.271,0.979-0.407,1.617-0.407c1.233,0,1.85,0.65,1.85,1.95v1.736C52.296,12.778,52.32,13.154,52.365,13.432z
				 M51.278,11.812v-0.727c-1.157-0.02-1.735,0.297-1.735,0.95c0,0.246,0.067,0.43,0.202,0.553c0.135,0.123,0.306,0.184,0.511,0.184
				c0.231,0,0.445-0.073,0.642-0.218s0.317-0.331,0.362-0.558C51.272,11.944,51.278,11.883,51.278,11.812z"/>
			<path fill="#FFFFFF" d="M58.32,13.432h-0.931l-0.049-0.757h-0.029c-0.297,0.576-0.802,0.864-1.513,0.864
				c-0.569,0-1.041-0.223-1.416-0.669s-0.562-1.025-0.562-1.736c0-0.763,0.203-1.381,0.61-1.853c0.395-0.44,0.88-0.66,1.455-0.66
				c0.634,0,1.077,0.213,1.329,0.64h0.02V6.554h1.048v5.607C58.282,12.62,58.294,13.043,58.32,13.432z M57.234,11.443v-0.786
				c0-0.136-0.01-0.246-0.029-0.33c-0.059-0.252-0.186-0.464-0.38-0.635c-0.195-0.171-0.429-0.257-0.701-0.257
				c-0.39,0-0.696,0.155-0.921,0.466c-0.224,0.311-0.336,0.708-0.336,1.193c0,0.466,0.107,0.844,0.322,1.135
				c0.227,0.31,0.532,0.465,0.915,0.465c0.344,0,0.62-0.129,0.828-0.388C57.133,12.067,57.234,11.779,57.234,11.443z"/>
			<path fill="#FFFFFF" d="M64.025,10.852c0,0.188-0.014,0.346-0.039,0.475h-3.143c0.013,0.466,0.164,0.821,0.455,1.067
				c0.266,0.22,0.608,0.33,1.028,0.33c0.466,0,0.89-0.074,1.271-0.223l0.164,0.728c-0.446,0.194-0.973,0.291-1.581,0.291
				c-0.73,0-1.305-0.215-1.722-0.645s-0.625-1.007-0.625-1.731c0-0.711,0.193-1.303,0.582-1.775
				c0.407-0.504,0.956-0.756,1.648-0.756c0.679,0,1.193,0.252,1.542,0.756C63.885,9.769,64.025,10.263,64.025,10.852z M63.025,10.58
				c0.007-0.311-0.062-0.579-0.203-0.805c-0.182-0.291-0.459-0.437-0.834-0.437c-0.343,0-0.621,0.142-0.835,0.427
				c-0.174,0.227-0.277,0.498-0.31,0.815H63.025z"/>
			<path fill="#FFFFFF" d="M69.641,13.432h-1.048v-2.7c0-0.832-0.316-1.248-0.95-1.248c-0.311,0-0.562,0.114-0.757,0.343
				c-0.193,0.229-0.291,0.499-0.291,0.808v2.796h-1.048v-3.366c0-0.414-0.013-0.863-0.038-1.349h0.921l0.049,0.737h0.029
				c0.122-0.229,0.304-0.418,0.543-0.569c0.284-0.176,0.602-0.265,0.95-0.265c0.44,0,0.806,0.142,1.097,0.427
				c0.361,0.349,0.543,0.87,0.543,1.562V13.432z"/>
			<path fill="#FFFFFF" d="M75.479,7.311c0,0.188-0.061,0.339-0.184,0.456c-0.123,0.117-0.281,0.175-0.475,0.175
				c-0.176,0-0.322-0.06-0.441-0.179c-0.121-0.12-0.18-0.27-0.18-0.451s0.061-0.33,0.184-0.446S74.658,6.69,74.84,6.69
				c0.18,0,0.332,0.059,0.455,0.175S75.479,7.13,75.479,7.311z M75.363,13.432h-1.049V8.717h1.049V13.432z"/>
			<path fill="#FFFFFF" d="M83.977,13.432h-1.027V10.79c0-0.871-0.299-1.306-0.893-1.306c-0.285,0-0.514,0.108-0.684,0.324
				c-0.172,0.216-0.258,0.469-0.258,0.759v2.864h-1.027v-2.777c0-0.355-0.074-0.639-0.219-0.852
				c-0.146-0.213-0.361-0.319-0.645-0.319c-0.285,0-0.518,0.116-0.699,0.348c-0.182,0.232-0.271,0.497-0.271,0.793v2.806h-1.029
				v-3.366c0-0.414-0.012-0.863-0.037-1.349h0.9l0.049,0.717h0.029c0.324-0.542,0.803-0.814,1.436-0.814
				c0.641,0,1.074,0.294,1.301,0.882h0.02c0.148-0.246,0.332-0.443,0.553-0.591c0.277-0.194,0.598-0.291,0.959-0.291
				c0.422,0,0.768,0.142,1.039,0.427c0.336,0.355,0.504,0.886,0.504,1.591V13.432z"/>
		</g>
	</g>
</g>
</svg>
