<svg xmlns="http://www.w3.org/2000/svg" width="32" height="32" fill="none" viewBox="0 0 32 32">
  <circle cx="16" cy="16" r="14.5" stroke="#005e5e" stroke-width="3"/>
  <path stroke="#005e5e" stroke-width="3" d="M16 30.5c-.4702 0-1.0364-.2115-1.6821-.8358-.653-.6312-1.3095-1.6171-1.8934-2.9517C11.2586 24.0477 10.5 20.2614 10.5 16s.7586-8.0477 1.9245-10.71248c.5839-1.33462 1.2404-2.32048 1.8934-2.95174C14.9636 1.7115 15.5298 1.5 16 1.5c.4702 0 1.0364.2115 1.6821.83578.653.63126 1.3095 1.61712 1.8934 2.95174C20.7414 7.9523 21.5 11.7386 21.5 16c0 4.2614-.7586 8.0477-1.9245 10.7125-.5839 1.3346-1.2404 2.3205-1.8934 2.9517-.6457.6243-1.2119.8358-1.6821.8358Z"/>
  <path stroke="#005e5e" stroke-width="3" d="M2 11.5h28"/>
  <path stroke="#005e5e" stroke-width="3" d="M2 20.5h28"/>
</svg>
