<svg xmlns="http://www.w3.org/2000/svg" width="32" height="32" viewBox="0 0 32 32">
  <path fill="#005e5e" d="m16 5.7 3 5c.3.5.6.9 1.1 1.2.4.3.9.5 1.5.7l5.7 1.3-3.9 4.4c-.4.4-.6.9-.8 1.4-.2.5-.2 1.1-.2 1.6l.6 5.9-5.4-2.3c-.5-.2-1-.3-1.6-.3-.5 0-1.1.1-1.6.3L9 27.1l.5-5.8c.1-.5 0-1.1-.2-1.6s-.4-1-.8-1.4l-3.8-4.4 5.7-1.3c.5-.1 1-.3 1.5-.7.4-.3.8-.7 1.1-1.2l3-5zm0-5c-.2 0-.3 0-.5.1-.1.1-.3.2-.4.4l-4.7 8-.3.3c-.1.1-.2.1-.4.2l-9 2c-.2 0-.3.1-.4.2-.1.1-.2.3-.3.4v.5c0 .2.1.3.2.4l6.1 7c.1.1.2.2.2.3 0 .1.1.3 0 .4l-.9 9.2v.4c0 .1.1.3.2.4.1.1.2.2.3.2.1.1.3.1.4.1h.4l8.5-3.7c.1-.1.2-.1.4-.1.1 0 .3 0 .4.1l8.6 3.6h.4c.1 0 .3 0 .4-.1.1-.1.2-.1.3-.2.1-.1.2-.2.2-.4 0-.1.1-.3 0-.4l-.9-9.2v-.4c0-.1.1-.2.2-.3l6.1-7c.1-.1.2-.3.2-.4v-.5c-.1-.2-.1-.3-.3-.4-.1-.1-.3-.2-.4-.2l-9-2c-.1 0-.3-.1-.4-.2l-.3-.3-4.8-7.9c-.1-.1-.2-.3-.4-.4.2 0 .1-.1-.1-.1z"/>
</svg>
