<svg xmlns="http://www.w3.org/2000/svg" width="33" height="32" viewBox="0 0 33 32">
  <path fill="#005e5e" d="M30.4 13.2c-1.6-2.2-3.7-4-6.1-5.3S19.2 6 16.5 6s-5.4.6-7.8 1.9c-2.4 1.2-4.5 3-6.1 5.3C1.7 14.3 1 15.6.5 17c.5 1.4 1.2 2.6 2 3.8 1.6 2.2 3.7 4 6.1 5.3 2.4 1.2 5.1 1.9 7.8 1.9s5.4-.6 7.8-1.9c2.4-1.2 4.5-3 6.1-5.3.8-1.2 1.5-2.5 2-3.8-.4-1.4-1.1-2.7-1.9-3.8zM16.5 24.9c-2.6 0-5.2-.8-7.5-2.2-2.2-1.4-4-3.4-5.2-5.8 1.2-2.4 3-4.4 5.2-5.8C11.2 9.7 13.8 9 16.5 9s5.2.7 7.5 2.1c2.2 1.4 4 3.4 5.2 5.8-1.2 2.4-3 4.4-5.2 5.8-2.3 1.5-4.9 2.2-7.5 2.2z" />
  <path fill="#005e5e" d="M16.5 10.9c-1.2 0-2.4.4-3.4 1-1 .7-1.8 1.6-2.2 2.7s-.6 2.3-.3 3.5c.2 1.2.8 2.3 1.7 3.1.8.8 1.9 1.4 3.1 1.7 1.2.2 2.4.1 3.5-.3 1.1-.5 2.1-1.2 2.7-2.2.7-1 1-2.2 1-3.4 0-1.6-.6-3.1-1.8-4.3-1.2-1.2-2.7-1.8-4.3-1.8zm0 9.1c-.6 0-1.2-.2-1.7-.5s-.9-.8-1.1-1.4c-.2-.6-.3-1.2-.2-1.8.1-.6.4-1.1.8-1.6.4-.4 1-.7 1.6-.8.6-.1 1.2-.1 1.8.2.6.2 1 .6 1.4 1.1.3.5.5 1.1.5 1.7 0 .8-.3 1.6-.9 2.1-.6.7-1.4 1-2.2 1z" />
</svg>
