<svg xmlns="http://www.w3.org/2000/svg" xml:space="preserve" width="142" height="184" viewBox="0 0 142 184">
  <path fill="#41bfae" d="M0 77v88.3c0 9.8 7.9 17.7 17.7 17.7h106c9.8 0 17.7-7.9 17.7-17.7V77H0z"/>
  <path fill="#161616" d="M79.1 131.6c5.5-3 9.3-8.8 9.3-15.5 0-9.8-7.9-17.7-17.7-17.7S53 106.3 53 116c0 6.7 3.7 12.6 9.3 15.5l-4.7 25.2h26.3l-4.8-25.1z"/>
  <path fill="#161616" fill-rule="evenodd" d="M23.6 48.1C23.6 22.1 44.7 1 70.7 1s47.1 21.1 47.1 47.1v29H94.2v-29c0-13-10.5-23.6-23.6-23.6S47.1 35 47.1 48.1v29H23.6v-29z" clip-rule="evenodd"/>
</svg>
