<svg width="50" height="50" fill="none" xmlns="http://www.w3.org/2000/svg"><path d="M39.41 14.9c-2.563.031-5.113.38-7.59 1.04-2.74.75-5.08 2.275-6.82 2.275-1.74 0-4.055-1.5-6.82-2.275a31.163 31.163 0 0 0-7.585-1.04c-5 0-10.595 1.65-10.595 9 0 15.905 7.955 18.18 12.5 18.18s9.09-5.685 12.5-5.685 7.955 5.685 12.5 5.685S50 39.805 50 23.895c0-7.345-5.575-8.995-10.59-8.995ZM37.5 40.08c-1.83 0-3.96-1.43-6-2.81-2.205-1.5-4.29-2.875-6.5-2.875s-4.275 1.395-6.5 2.875c-2.06 1.38-4.19 2.81-6 2.81C7.71 40.08 2 37.27 2 23.895c0-3 .89-7 8.595-7 2.383.035 4.752.363 7.055.975A24.75 24.75 0 0 1 20.675 19c1.5.63 2.915 1.225 4.325 1.225 1.41 0 2.825-.6 4.33-1.23a24.68 24.68 0 0 1 3-1.115 29.419 29.419 0 0 1 7.08-.98c2.605 0 4.65.5 6.075 1.415 1.69 1.115 2.5 2.94 2.5 5.58C48 37.27 42.29 40.08 37.5 40.08Z" fill="#231F20"/><path d="M16 24.17c-2.1 0-4.195.915-6.23 2.72a1 1 0 0 0 .075 1.555A10.366 10.366 0 0 0 16 30.68c2.2 0 3.88-.83 5-2.5a1 1 0 0 0 0-1.03 5.5 5.5 0 0 0-5-2.98Zm0 4.5a7.781 7.781 0 0 1-3.865-1.12A6.72 6.72 0 0 1 16 26.17a3.43 3.43 0 0 1 2.945 1.405A3.866 3.866 0 0 1 16 28.68v-.01ZM34.63 24.17a5.53 5.53 0 0 0-5.045 3 1 1 0 0 0 .045 1.05c1.12 1.65 2.805 2.5 5 2.5a10.38 10.38 0 0 0 6.16-2.235 1 1 0 0 0 .07-1.555c-2.035-1.845-4.13-2.76-6.23-2.76Zm0 4.5a3.866 3.866 0 0 1-2.945-1.105 3.43 3.43 0 0 1 2.945-1.405 6.7 6.7 0 0 1 3.87 1.4 7.75 7.75 0 0 1-3.87 1.12v-.01Z" fill="#231F20"/></svg>
