<svg width="50" height="50" fill="none" xmlns="http://www.w3.org/2000/svg"><path d="M47.775 47.5 32.58 22.24v-.035l-3.17-5.41-2.97-5h16.59c.225 0 .455 0 .225-.225a.223.223 0 0 0 .225-.13.225.225 0 0 0 .02-.09c0-.455 0-.68-.23-.91l-4.315-4.315 4.315-4.32c.23-.225.455-.68.23-.91 0-.225-.455-.455-.68-.455H24.85a1 1 0 0 0-.685.91v9.6a1.75 1.75 0 0 0-.5.425L18.23 20.92l-.095.19L2.095 47.5a1.445 1.445 0 0 0 1.365 2.045h43.18c1.135.015 1.82-1.125 1.135-2.045ZM26.165 2.44h13.63l-2.27 2.27a2 2 0 0 0 0 2.825l2.27 2.27h-13.63V2.44Zm-1.12 11.15 5.265 8.755-1.2 2.5-2.215-3.05a2 2 0 0 0-3.235 0l-2.215 3.05L20 21.87l5.045-8.28ZM4.405 47.56l14.37-23.65 1.955 4.06a.695.695 0 0 0 .91 0l3.635-5 3.635 5a.664.664 0 0 0 .455.17.655.655 0 0 0 .455-.17l1.72-3.575L45.47 47.56H4.405Z" fill="#231F20"/></svg>
