<svg xmlns="http://www.w3.org/2000/svg" xml:space="preserve" viewBox="0 0 135 135" width="135" height="135">
  <circle cx="67.4" cy="91.4" r="12.7" fill="#d1f3fd"/>
  <path fill="#1abbab" d="M135 67.5c0-17.9-7.1-35.1-19.8-47.7C102.6 7.1 85.4 0 67.5 0S32.4 7.1 19.8 19.8C7.1 32.4 0 49.6 0 67.5h135z"/>
  <path fill="none" stroke="#1ac5f4" stroke-width="30.8639" d="M67.4 52c18.7 0 33.8 15.1 33.8 33.8 0 18.7-15.1 33.8-33.8 33.8-18.7 0-33.8-15.1-33.8-33.8C33.6 67.1 48.7 52 67.4 52z"/>
  <path fill="#0081a0" d="M67.4 67.4c.7 0 1.4 0 2 .1h43.7c-7.3-18.1-25-31-45.7-31-20.7 0-38.4 12.8-45.7 31h43.7c.6-.1 1.3-.1 2-.1z"/>
</svg>
