<svg xmlns="http://www.w3.org/2000/svg" xml:space="preserve" viewBox="0 0 135 135" width="135" height="135">
  <path fill="#1abbab" fill-rule="evenodd" d="M101.1 0 0 67.4l101.1 67.4v-32.7l-48-34.7 48-34.7V0z" clip-rule="evenodd"/>
  <path fill="#1ac5f4" d="M135 67.4c0 24.6-19.9 44.5-44.5 44.5S46 92 46 67.4C46 42.9 65.9 23 90.5 23S135 42.9 135 67.4z"/>
  <path fill="#0390a4" d="m53.1 67.4 48-34.7v-8.5c-3.4-.8-6.9-1.3-10.6-1.3C65.9 23 46 42.9 46 67.4s19.9 44.5 44.5 44.5c3.7 0 7.2-.4 10.6-1.3v-8.5l-48-34.7z"/>
</svg>
