<svg xmlns="http://www.w3.org/2000/svg" xml:space="preserve" viewBox="0 0 135 135" width="135" height="135">
  <path fill="#d1f3fd" d="M135 67.5c0-17.9-7.1-35.1-19.8-47.7C102.6 7.1 85.4 0 67.5 0S32.4 7.1 19.8 19.8C7.1 32.4 0 49.6 0 67.5h135z"/>
  <path fill="#1abbab" d="M0 67.5c0 8.9 1.7 17.6 5.1 25.8 3.4 8.2 8.4 15.6 14.6 21.9 6.3 6.3 13.7 11.2 21.9 14.6 8.2 3.4 17 5.1 25.8 5.1V67.5H0z"/>
  <path fill="#1ac5f4" d="M67.5 108.1c-22.4 0-40.6-18.2-40.6-40.6 0-22.4 18.2-40.6 40.6-40.6 22.4 0 40.6 18.2 40.6 40.6 0 22.4-18.2 40.6-40.6 40.6z"/>
  <path fill="#0390a4" d="M26.9 67.5c0 22.4 18.2 40.6 40.6 40.6V67.5H26.9z"/>
</svg>
