<svg xmlns="http://www.w3.org/2000/svg" width="76" height="75" fill="none" viewBox="0 0 76 75">
  <path stroke="#000" stroke-linecap="round" stroke-linejoin="round" stroke-width="2.05336" d="M14.6332 1.43921h46.5852"/>
  <path stroke="#000" stroke-linecap="round" stroke-linejoin="round" stroke-width="2.05336" d="M74.003 59.9993c0 2.1207-1.7193 3.84-3.8401 3.84"/>
  <path stroke="#000" stroke-linecap="round" stroke-linejoin="round" stroke-width="2.05336" d="M2 59.9993V20.1758c0-2.1208 1.71927-3.84 3.84011-3.84H70.1619c2.1208 0 3.8401 1.7192 3.8401 3.84v39.8235"/>
  <path stroke="#000" stroke-linecap="round" stroke-linejoin="round" stroke-width="2.05336" d="M5.8401 63.8393C3.71927 63.8393 2 62.12 2 59.9993"/>
  <path stroke="#000" stroke-linecap="round" stroke-linejoin="round" stroke-width="2.05336" d="M7.33398 8.88745H69.0322"/>
  <path fill="#C688FF" stroke="#000" stroke-linecap="round" stroke-linejoin="round" stroke-width="2.05336" d="M50.0504 27.4418H26.3258c-.8765 0-1.6864.4675-2.1246 1.2266L12.3389 49.2139c-.4382.759-.4382 1.6942 0 2.4532l11.8623 20.5455c.4382.759 1.2481 1.2266 2.1246 1.2266h23.7246c.8764 0 1.6863-.4676 2.1246-1.2266l11.8622-20.5455c.4383-.759.4383-1.6942 0-2.4532L52.175 28.6684c-.4383-.7591-1.2482-1.2266-2.1246-1.2266Z"/>
  <path fill="#fff" stroke="#000" stroke-linecap="round" stroke-linejoin="round" stroke-width="2.05336" d="M48.2542 53.1064 46.5806 54.78c-.6496.6496-1.7604.1895-1.7604-.7292v-14.974c0-1.142-.88-2.138-2.0216-2.1724-1.1812-.0355-2.1501.9116-2.1501 2.0848v-3.4163c0-1.2257-.9445-2.2945-2.1696-2.3313-1.2677-.038-2.3073.9783-2.3073 2.2373v3.5103c0-1.1731-.9687-2.1202-2.1499-2.0848-1.1416.0343-2.0218 1.0302-2.0218 2.1723v3.0159c0-1.2592-1.0395-2.2755-2.3072-2.2375-1.2252.0368-2.1697 1.1056-2.1697 2.3312v16.5231c0 4.927 3.9943 8.9212 8.9214 8.9212 2.3661 0 4.6353-.9399 6.3084-2.613l8.7065-8.7062c.885-.885.885-2.3199 0-3.205-.885-.885-2.32-.885-3.2051 0Z"/>
  <path stroke="#000" stroke-linecap="round" stroke-linejoin="round" stroke-width="2.05336" d="M31.9907 42.0924v6.8677"/>
  <path stroke="#000" stroke-linecap="round" stroke-linejoin="round" stroke-width="2.05336" d="M36.1697 38.9891v9.9711"/>
  <path stroke="#000" stroke-linecap="round" stroke-linejoin="round" stroke-width="2.05336" d="M40.6454 38.9891v9.9711"/>
</svg>
