<svg xmlns="http://www.w3.org/2000/svg" width="143" height="118" fill="none"><path stroke="#000" stroke-linecap="round" stroke-linejoin="round" stroke-width="2" d="M96.271 85.017H79.046v1.849A2.644 2.644 0 0 1 76.4 89.51h-9.794a2.647 2.647 0 0 1-2.648-2.647v-1.846H1.5v9.232a5.383 5.383 0 0 0 5.383 5.382H96.27"/><path stroke="#000" stroke-linecap="round" stroke-linejoin="round" stroke-width="2" d="M136.116 29.923h-34.462a5.385 5.385 0 0 0-5.385 5.384v75.385a5.385 5.385 0 0 0 5.385 5.384h34.462a5.385 5.385 0 0 0 5.385-5.384V35.307a5.385 5.385 0 0 0-5.385-5.384Z"/><path stroke="#000" stroke-linecap="round" stroke-linejoin="round" stroke-width="2" d="M129.658 19.154V7.312a5.39 5.39 0 0 0-5.39-5.39H18.738a5.39 5.39 0 0 0-5.39 5.39v66.935"/><path fill="#49FFBA" stroke="#000" stroke-miterlimit="10" stroke-width="2" d="m82.2 57.78-21.533-.115c-5.54-.022-9.98-4.153-9.956-9.22.025-5.066 4.541-9.128 10.08-9.105l21.534.114c5.54.022 9.981 4.153 9.956 9.22-.025 5.066-4.541 9.128-10.08 9.105Z"/><path fill="#fff" stroke="#000" stroke-miterlimit="10" stroke-width="2" d="M92.28 48.541a9.154 9.154 0 0 0-9.15-9.153 9.146 9.146 0 0 0-9.15 9.146 9.154 9.154 0 0 0 9.15 9.154 9.146 9.146 0 0 0 9.15-9.147Z"/><path fill="#49FFBA" stroke="#000" stroke-miterlimit="10" stroke-width="2" d="m125.727 78.89-13.76-.073c-3.539-.015-6.377-2.654-6.361-5.891.015-3.238 2.901-5.834 6.441-5.819l13.76.073c3.539.014 6.377 2.654 6.361 5.891-.016 3.238-2.902 5.834-6.441 5.819Z"/><path fill="#fff" stroke="#000" stroke-miterlimit="10" stroke-width="2" d="M132.166 72.988a5.85 5.85 0 0 0-5.847-5.848 5.843 5.843 0 0 0-5.846 5.844 5.849 5.849 0 0 0 5.846 5.849 5.844 5.844 0 0 0 5.847-5.845Z"/></svg>
