<svg xmlns="http://www.w3.org/2000/svg" xml:space="preserve" width="120" height="120" viewBox="0 0 120 120">
  <style>
    .st0,.st1,.st2{stroke:#000;stroke-width:1.6857}.st0{fill:none;stroke-linecap:round;stroke-linejoin:round}.st1,.st2{fill:#49ffba;stroke-miterlimit:10}.st2{fill:#fff}
  </style>
  <path d="M80.9 81.9H66.4v1.6c0 1.2-1 2.2-2.2 2.2 0 0 0 0 0 0h-8.3c-1.2 0-2.2-1-2.2-2.2 0 0 0 0 0 0v-1.6H1v7.8c0 2.5 2 4.5 4.5 4.5h75.3" class="st0"/>
  <path d="M114.5 35.5h-29c-2.5 0-4.5 2-4.5 4.5v63.5c0 2.5 2 4.5 4.5 4.5h29c2.5 0 4.5-2 4.5-4.5V40c0-2.5-2-4.5-4.5-4.5z" class="st0"/>
  <path d="M109 26.4v-10c0-2.5-2-4.5-4.5-4.5h-89c-2.5 0-4.5 2-4.5 4.5v56.4" class="st0"/>
  <path d="m69 59-18.1-.1c-4.7 0-8.4-3.5-8.4-7.8s3.8-7.7 8.5-7.7l18.1.1c4.7 0 8.4 3.5 8.4 7.8S73.7 59 69 59z" class="st1"/>
  <path d="M77.5 51.2c0-4.3-3.5-7.7-7.7-7.7-4.3 0-7.7 3.4-7.7 7.7 0 4.3 3.5 7.7 7.7 7.7 4.3 0 7.7-3.5 7.7-7.7z" class="st2"/>
  <path d="m105.7 76.8-11.6-.1c-3 0-5.4-2.2-5.4-5 0-2.7 2.4-4.9 5.4-4.9l11.6.1c3 0 5.4 2.2 5.4 5 0 2.7-2.4 4.9-5.4 4.9z" class="st1"/>
  <path d="M111.1 71.8c0-2.7-2.2-4.9-4.9-4.9s-4.9 2.2-4.9 4.9 2.2 4.9 4.9 4.9 4.9-2.2 4.9-4.9z" class="st2"/>
</svg>
