<svg xmlns="http://www.w3.org/2000/svg" width="75" height="75" fill="none" viewBox="0 0 75 75">
  <path fill="#C688FF" stroke="#000" stroke-miterlimit="10" stroke-width="2" d="M11.58 21.6008c5.567 0 10.08-4.513 10.08-10.08 0-5.56704-4.513-10.08-10.08-10.08-5.56703 0-10.08 4.51296-10.08 10.08 0 5.567 4.51297 10.08 10.08 10.08Z"/>
  <path fill="#C688FF" stroke="#000" stroke-miterlimit="10" stroke-width="2" d="M63.42 73.4407c5.567 0 10.08-4.5129 10.08-10.08 0-5.567-4.513-10.0799-10.08-10.0799s-10.08 4.5129-10.08 10.0799c0 5.5671 4.513 10.08 10.08 10.08Z"/>
  <path stroke="#000" stroke-miterlimit="10" stroke-width="2" d="M21.66 11.5208h38.88c7.1576 0 12.96 5.8023 12.96 12.9599 0 7.1577-5.8024 12.9601-12.96 12.9601H14.46c-7.15761 0-12.96 5.8023-12.96 12.96 0 7.1576 5.80239 12.96 12.96 12.96h38.88"/>
</svg>
