<svg xmlns="http://www.w3.org/2000/svg" width="75" height="58" fill="none"><path fill="#00FFB3" d="M42.498 39.695c7.41 0 13.419-6.008 13.419-13.42 0-7.411-6.008-13.419-13.42-13.419-7.41 0-13.419 6.008-13.419 13.42 0 7.41 6.008 13.419 13.42 13.419Z"/><path stroke="#000" stroke-linecap="round" stroke-linejoin="round" stroke-width="2" d="M51.783 28.889c-.205-7.712-6.52-13.901-14.282-13.901-1.145 0-2.258.135-3.325.39M23.219 29.656c.202 7.714 6.519 13.905 14.282 13.905 1.145 0 2.259-.134 3.326-.389"/><path stroke="#000" stroke-linecap="round" stroke-linejoin="round" stroke-width="2" d="M8.297 18.21a36.066 36.066 0 0 0-5.48 11.065C7.244 44.247 21.092 55.174 37.5 55.174c5.23 0 10.198-1.11 14.685-3.106M66.705 40.34a36.065 36.065 0 0 0 5.481-11.065c-4.429-14.972-18.277-25.9-34.685-25.9a36.025 36.025 0 0 0-14.833 3.173M1.5 1.65l72 55.248"/></svg>
