<svg xmlns="http://www.w3.org/2000/svg" width="74" height="58" fill="none" viewBox="0 0 74 58">
  <path fill="#FF8AC6" d="M37 42.1338c7.4113 0 13.4193-6.0081 13.4193-13.4194S44.4113 15.295 37 15.295s-13.4194 6.0081-13.4194 13.4194S29.5887 42.1338 37 42.1338Z"/>
  <path stroke="#000" stroke-linecap="round" stroke-linejoin="round" stroke-width="2" d="M51.2816 28.3286C51.0771 20.6167 44.7613 14.4277 37 14.4277c-1.145 0-2.2585.1347-3.3256.3891"/>
  <path stroke="#000" stroke-linecap="round" stroke-linejoin="round" stroke-width="2" d="M22.7183 29.0959c.2023 7.714 6.519 13.9052 14.2817 13.9052 1.1454 0 2.2593-.1348 3.3267-.3894"/>
  <path stroke="#000" stroke-linecap="round" stroke-linejoin="round" stroke-width="2" d="M7.79598 17.6495c-2.41897 3.3068-4.29041 7.0396-5.48104 11.0648C6.74365 43.6864 20.5918 54.6137 37 54.6137c5.2289 0 10.1978-1.1097 14.6847-3.1064"/>
  <path stroke="#000" stroke-linecap="round" stroke-linejoin="round" stroke-width="2" d="M66.204 39.7791c2.419-3.3068 4.2904-7.0396 5.4811-11.0647C67.2563 13.7422 53.408 2.81494 37 2.81494c-5.2865 0-10.3074 1.13432-14.833 3.17278"/>
  <path stroke="#000" stroke-linecap="round" stroke-linejoin="round" stroke-width="2" d="M1 1.09058 73 56.3382"/>
</svg>
