<svg xmlns="http://www.w3.org/2000/svg" width="55" height="67" fill="none"><path stroke="#000" stroke-linecap="round" stroke-linejoin="round" stroke-width="2.062" d="M43.085 51.855v13.42L27.6 59.062l-15.484 6.213v-13.42"/><path stroke="#000" stroke-linecap="round" stroke-linejoin="round" stroke-width="2.062" d="m53.05 26.233-3.51-3.518 1.897-4.595a1.19 1.19 0 0 0-.649-1.56l-4.591-1.908V9.679c0-.661-.536-1.198-1.198-1.198h-4.975L38.12 3.888a1.201 1.201 0 0 0-1.57-.65l-4.59 1.904-3.514-3.516a1.196 1.196 0 0 0-1.693 0L23.24 5.142l-4.59-1.904a1.201 1.201 0 0 0-1.57.65L15.174 8.48H10.2c-.662 0-1.198.537-1.198 1.198v4.971l-4.593 1.907c-.614.253-.9.955-.647 1.563l1.897 4.592-3.511 3.521a1.183 1.183 0 0 0 .001 1.692l3.51 3.517-1.898 4.589a1.203 1.203 0 0 0 .65 1.57l4.591 1.905v4.974c0 .662.536 1.198 1.198 1.198h4.975l1.903 4.591c.254.612.956.903 1.569.65l4.592-1.898 3.515 3.51a1.182 1.182 0 0 0 1.69 0l3.516-3.51 4.594 1.899a1.2 1.2 0 0 0 1.566-.65l1.904-4.592h4.975c.662 0 1.198-.536 1.198-1.198v-4.974l4.588-1.904c.614-.254.905-.958.651-1.571l-1.897-4.59 3.512-3.516a1.183 1.183 0 0 0-.001-1.692Z"/><path fill="#00FFB3" d="M32.501 38.5c7.412 0 13.42-6.008 13.42-13.419 0-7.411-6.008-13.42-13.42-13.42-7.41 0-13.419 6.009-13.419 13.42s6.008 13.42 13.42 13.42Z"/><path stroke="#000" stroke-linecap="round" stroke-linejoin="round" stroke-width="2.062" d="M27.599 40.5c7.411 0 13.42-6.008 13.42-13.419 0-7.411-6.009-13.42-13.42-13.42s-13.42 6.009-13.42 13.42 6.009 13.42 13.42 13.42Z"/></svg>
