<svg xmlns="http://www.w3.org/2000/svg" width="54" height="67" fill="none" viewBox="0 0 54 67">
  <path stroke="#000" stroke-linecap="round" stroke-linejoin="round" stroke-width="2.06249" d="M42.4817 52.2949v13.4194l-15.4839-6.2125-15.4839 6.2125V52.2949"/>
  <path stroke="#000" stroke-linecap="round" stroke-linejoin="round" stroke-width="2.06249" d="m52.448 26.6729-3.5101-3.5184 1.8974-4.5951c.2536-.608-.0326-1.3105-.6488-1.5609l-4.5912-1.9072v-4.9727c0-.66153-.5363-1.19787-1.1978-1.19787h-4.9753l-1.9034-4.59375c-.254-.61296-.9569-.9039-1.5697-.64973l-4.5909 1.90387-3.5141-3.51608c-.4673-.46758-1.2252-.46758-1.6925 0l-3.514 3.51608-4.5909-1.90387c-.6129-.25417-1.3158.03675-1.5697.64973l-1.9034 4.59375H9.59828c-.66155 0-1.19786.53634-1.19786 1.19787v4.971l-4.59288 1.9073c-.61447.252-.90067.9545-.64712 1.5625l1.89739 4.5917-3.51174 3.5218c-.47316.4635-.47316 1.2244.00165 1.6911l3.51009 3.517-1.89845 4.5889c-.2538.6136.03737 1.3167.65061 1.5711l4.59045 1.9046v4.9742c0 .6616.53631 1.1979 1.19786 1.1979h4.97532l1.9034 4.5907c.2538.6124.9558.9033 1.5684.6502l4.5922-1.8978 3.5149 3.5104c.4681.4747 1.2226.4747 1.6908 0l3.5149-3.5104 4.5941 1.8985c.6119.2529 1.3129-.0377 1.5665-.6494l1.9034-4.5922h4.9752c.6616 0 1.1979-.5364 1.1979-1.198v-4.9741l4.5883-1.9037c.6136-.2545.905-.958.6513-1.572l-1.897-4.5889 3.5117-3.517c.4732-.465.4732-1.2261-.0016-1.6911Z"/>
  <path fill="#FF8AC6" d="M27 40.9402c7.4113 0 13.4193-6.0081 13.4193-13.4194S34.4113 14.1014 27 14.1014s-13.4194 6.0081-13.4194 13.4194S19.5887 40.9402 27 40.9402Z"/>
  <path stroke="#000" stroke-linecap="round" stroke-linejoin="round" stroke-width="2.06249" d="M26.9975 40.9398c7.4113 0 13.4193-6.0081 13.4193-13.4194s-6.008-13.4193-13.4193-13.4193-13.4194 6.008-13.4194 13.4193 6.0081 13.4194 13.4194 13.4194Z"/>
</svg>
