<svg xmlns="http://www.w3.org/2000/svg" width="74" height="75" fill="none" viewBox="0 0 74 75">
  <path stroke="#000" stroke-miterlimit="10" stroke-width="2" d="M37 73.4407c19.8823 0 36-16.1178 36-36C73 17.5584 56.8823 1.44067 37 1.44067S1 17.5584 1 37.4407c0 19.8822 16.1177 36 36 36Z"/>
  <path stroke="#000" stroke-miterlimit="10" stroke-width="2" d="M27.4333 72.1689c-8.514-8.1876-13.9567-20.7011-13.9567-34.7257 0-14.0247 5.4427-26.5401 13.9567-34.72775"/>
  <path stroke="#000" stroke-miterlimit="10" stroke-width="2" d="M46.5625 2.7124c8.514 8.1876 13.9567 20.7012 13.9567 34.7258s-5.4427 26.5401-13.9567 34.7277"/>
  <path stroke="#000" stroke-miterlimit="10" stroke-width="2" d="M1 37.4407h72"/>
  <path stroke="#000" stroke-miterlimit="10" stroke-width="2" d="M37 1.44067V73.4407"/>
  <path fill="#C688FF" stroke="#000" stroke-linecap="round" stroke-linejoin="round" stroke-width="2" d="M50.3572 25.7046c-.0096.0027-.8787.2516-2.2117.2516-2.8191 0-6.9014-1.0543-10.3415-6.0777-.3999-.5838-1.3568-.5838-1.7563 0-4.1534 6.0644-10.0084 6.7015-12.5493 5.8274-.6801-.205-1.3734.3109-1.3734 1.0401v10.2153c0 14.2583 14.3737 18.4001 14.5186 18.4411.092.0255.1867.0383.2814.0383.0948 0 .1895-.0128.2814-.0383.1462-.041 14.5201-4.1828 14.5201-18.4411V26.746c0-.7068-.6728-1.2424-1.3693-1.0414Z"/>
</svg>
