<svg xmlns="http://www.w3.org/2000/svg" width="70" height="65" fill="none" viewBox="0 0 70 65">
  <path fill="#FF8AC6" d="M33.9379 48.3298 16.5804 30.9724c-4.4925-4.4925-4.4925-11.7762 0-16.2687 5.1331-5.13319 13.6793-4.287 17.7061 1.7532L35 17.5272l.7136-1.0703c4.0268-6.0402 12.5729-6.88639 17.706-1.7532 4.4925 4.4925 4.4925 11.7762 0 16.2687L36.0622 48.3298c-.5866.5867-1.5377.5867-2.1243 0Z"/>
  <path stroke="#000" stroke-linecap="round" stroke-linejoin="round" stroke-width="2" d="M66.6722 30.0522c3.2017-7.5449 1.7298-16.6341-4.4156-22.75905l-.2202-.21945c-8.0808-8.053997-21.304-8.053997-29.3848 0L19.6528 20.032c-.8425.8397-1.257 1.8245-1.3061 2.8351-.1244 2.5662 2.2863 4.534 4.8358 4.2154 1.9247-.2405 4.6396-1.2021 7.9536-4.0161l4.3617-4.3056c2.0987-2.0934 5.5013-2.0934 7.6 0"/>
  <path stroke="#000" stroke-linecap="round" stroke-linejoin="round" stroke-width="2" d="M34.9667 5.0796C26.8482-.901912 15.3033-.244599 7.96053 7.07379l-.22022.2195c-8.080829 8.05401-8.080829 21.23321 0 29.28731L33.1741 61.9638c1.8809 1.8763 4.9589 1.8763 6.8399 0 1.8809-1.8762 1.8809-4.9465 0-6.8227l-8.385-7.9855"/>
  <path stroke="#000" stroke-linecap="round" stroke-linejoin="round" stroke-width="2" d="m38.6149 40.5219 8.3849 7.9855c1.881 1.8762 1.881 4.9465 0 6.8227-1.8809 1.8763-4.9589 1.8763-6.8399 0"/>
  <path stroke="#000" stroke-linecap="round" stroke-linejoin="round" stroke-width="2" d="m45.5792 33.8007 8.385 7.9855c1.881 1.8762 1.881 4.9465 0 6.8227-1.881 1.8762-4.959 1.8763-6.84 0"/>
  <path stroke="#000" stroke-linecap="round" stroke-linejoin="round" stroke-width="2" d="m52.1953 26.7633 8.3849 7.9855c1.881 1.8763 1.881 4.9465 0 6.8227-1.8809 1.8763-4.9589 1.8763-6.8399.0001"/>
</svg>
