<svg xmlns="http://www.w3.org/2000/svg" width="69" height="65" fill="none"><path fill="#00FFB3" d="M33.438 48.403 16.08 31.045c-4.492-4.492-4.492-11.776 0-16.268 5.133-5.133 13.68-4.287 17.706 1.753l.714 1.07.714-1.07c4.026-6.04 12.572-6.886 17.706-1.753 4.492 4.492 4.492 11.776 0 16.268L35.562 48.403a1.502 1.502 0 0 1-2.124 0Z"/><path stroke="#000" stroke-linecap="round" stroke-linejoin="round" stroke-width="2" d="M66.174 30.125c3.201-7.545 1.73-16.634-4.416-22.759l-.22-.22c-8.08-8.053-21.304-8.053-29.385 0L19.154 20.106c-.842.84-1.257 1.825-1.306 2.835-.124 2.566 2.287 4.534 4.836 4.215 1.925-.24 4.64-1.202 7.954-4.016l4.361-4.305a5.383 5.383 0 0 1 7.6 0"/><path stroke="#000" stroke-linecap="round" stroke-linejoin="round" stroke-width="2" d="M34.467 5.153C26.348-.83 14.803-.172 7.46 7.147l-.22.22c-8.082 8.053-8.082 21.232 0 29.287l25.433 25.383c1.881 1.876 4.959 1.876 6.84 0a4.83 4.83 0 0 0 0-6.823l-8.385-7.985"/><path stroke="#000" stroke-linecap="round" stroke-linejoin="round" stroke-width="2" d="m38.113 40.595 8.385 7.985a4.83 4.83 0 0 1 0 6.823c-1.88 1.876-4.959 1.876-6.84 0M45.078 33.874l8.385 7.985a4.83 4.83 0 0 1 0 6.823c-1.88 1.876-4.959 1.876-6.84 0"/><path stroke="#000" stroke-linecap="round" stroke-linejoin="round" stroke-width="2" d="m51.695 26.836 8.385 7.986a4.83 4.83 0 0 1 0 6.822c-1.88 1.877-4.959 1.877-6.84 0"/></svg>
