<svg xmlns="http://www.w3.org/2000/svg" width="121" height="120" fill="none"><path fill="#49FFBA" stroke="#000" stroke-linecap="round" stroke-linejoin="round" stroke-width="2" d="M87.573 38.913h0c10.495 13.457 9.57 32.989-2.801 45.36C72.4 96.645 52.868 97.57 39.41 87.075a34.44 34.44 0 0 1-3.186-2.803m51.348-45.36L36.932 83.565m50.641-44.651a34.488 34.488 0 0 0-2.819-3.201 34.461 34.461 0 0 0-3.17-2.789h0c-13.457-10.494-32.988-9.568-45.36 2.804h0c-12.37 12.371-13.297 31.902-2.803 45.359m54.152-42.173L34.21 80.47m2.015 3.8.707-.707m-.707.708s0 0 0 0l.707-.708m-.707.708a34.437 34.437 0 0 1-2.804-3.186m3.511 2.478a33.435 33.435 0 0 1-2.722-3.093m-.789.615s0 0 0 0l.789-.615m-.789.615.789-.615m9.245-37.515h0c4.543-4.543 10.592-7.044 17.043-7.044 4.705 0 9.192 1.336 13.039 3.818L40.23 73.037c-6.004-9.33-4.93-21.925 3.225-30.08Zm4.003 37.313 33.307-33.307c6.005 9.33 4.932 21.926-3.223 30.082-4.543 4.542-10.59 7.043-17.04 7.043H60.5s0 0 0 0c-4.706 0-9.194-1.336-13.042-3.818Z"/><path stroke="#000" stroke-linecap="round" stroke-linejoin="round" stroke-width="2" d="M17.07 86.194a2.639 2.639 0 0 1-.573 2.876l-2.656 2.657a2.64 2.64 0 0 0 0 3.732l11.198 11.198a2.64 2.64 0 0 0 3.733 0l2.656-2.656a2.639 2.639 0 0 1 2.876-.572l14.008 5.802a2.637 2.637 0 0 1 1.629 2.438v3.756a2.64 2.64 0 0 0 2.64 2.64h15.835a2.64 2.64 0 0 0 2.64-2.64v-3.756c0-1.068.642-2.03 1.629-2.438l14.007-5.802a2.638 2.638 0 0 1 2.877.572l2.656 2.656a2.64 2.64 0 0 0 3.732 0l11.198-11.198a2.64 2.64 0 0 0 0-3.733l-2.656-2.655a2.639 2.639 0 0 1-.572-2.877l5.802-14.008a2.639 2.639 0 0 1 2.438-1.629h3.756a2.64 2.64 0 0 0 2.64-2.639V52.082a2.64 2.64 0 0 0-2.64-2.64h-3.756a2.639 2.639 0 0 1-2.438-1.628l-5.802-14.008a2.639 2.639 0 0 1 .572-2.877l2.656-2.656a2.64 2.64 0 0 0 0-3.732L95.957 13.343a2.64 2.64 0 0 0-3.732 0L89.569 16a2.64 2.64 0 0 1-2.877.572L72.685 10.77a2.639 2.639 0 0 1-1.63-2.438V4.575a2.64 2.64 0 0 0-2.639-2.64H52.58a2.639 2.639 0 0 0-2.639 2.64V8.33a2.64 2.64 0 0 1-1.63 2.439l-14.007 5.802A2.64 2.64 0 0 1 31.428 16l-2.656-2.656a2.64 2.64 0 0 0-3.733 0L13.842 24.54a2.639 2.639 0 0 0 0 3.733l2.655 2.656c.755.754.981 1.89.573 2.876l-5.802 14.008a2.64 2.64 0 0 1-2.439 1.629H5.073a2.639 2.639 0 0 0-2.64 2.64v15.835a2.64 2.64 0 0 0 2.64 2.64h3.756a2.64 2.64 0 0 1 2.439 1.628l5.802 14.008a2.639 2.639 0 0 1-.573 2.876l-2.656 2.657a2.64 2.64 0 0 0 0 3.732l11.198 11.198a2.64 2.64 0 0 0 3.733 0l2.656-2.656a2.639 2.639 0 0 1 2.876-.572"/></svg>
