<svg xmlns="http://www.w3.org/2000/svg" xml:space="preserve" viewBox="0 0 120 120">
  <path fill="none" stroke="#000" stroke-linecap="round" stroke-linejoin="round" stroke-width="2" d="M16.6 86.2c.4 1 .2 2.1-.6 2.9l-2.7 2.7c-1 1-1 2.7 0 3.7l11.2 11.2c1 1 2.7 1 3.7 0l2.7-2.7c.8-.8 1.9-1 2.9-.6l14 5.8c1 .4 1.6 1.4 1.6 2.4v3.8c0 1.5 1.2 2.6 2.6 2.6h15.8c1.5 0 2.6-1.2 2.6-2.6v-3.8c0-1.1.6-2 1.6-2.4l14-5.8c1-.4 2.1-.2 2.9.6l2.7 2.7c1 1 2.7 1 3.7 0l11.2-11.2c1-1 1-2.7 0-3.7l-2.7-2.7c-.8-.8-1-1.9-.6-2.9l5.8-14c.4-1 1.4-1.6 2.4-1.6h3.8c1.5 0 2.6-1.2 2.6-2.6V52.1c0-1.5-1.2-2.6-2.6-2.6h-3.8c-1.1 0-2-.6-2.4-1.6l-5.8-14c-.4-1-.2-2.1.6-2.9l2.7-2.7c1-1 1-2.7 0-3.7l-11-11.3c-1-1-2.7-1-3.7 0L89.1 16c-.8.8-1.9 1-2.9.6l-14-5.8c-1-.4-1.6-1.4-1.6-2.4V4.6C70.6 3.1 69.4 2 68 2H52.1c-1.5 0-2.6 1.2-2.6 2.6v3.8c0 1.1-.6 2-1.6 2.4l-14 5.8c-1 .4-2.1.2-2.9-.6l-2.7-2.7c-1-1-2.7-1-3.7 0L13.3 24.5c-1 1-1 2.7 0 3.7l2.7 2.7c.8.8 1 1.9.6 2.9l-5.8 14c-.4 1-1.4 1.6-2.4 1.6H4.6C3.1 49.4 2 50.6 2 52v15.8c0 1.5 1.2 2.6 2.6 2.6h3.8c1.1 0 2 .6 2.4 1.6l5.8 14.2c.4 1 .2 2.1-.6 2.9l-2.7 2.7c-1 1-1 2.7 0 3.7l11.2 11.2c1 1 2.7 1 3.7 0l2.7-2.7c.8-.8 1.9-1 2.9-.6"/>
  <path fill="#49ffba" stroke="#000" stroke-linecap="round" stroke-linejoin="round" stroke-width="2" d="M60 25.7C41 25.7 25.7 41 25.7 60S41 94.3 60 94.3 94.3 79 94.3 60 79 25.7 60 25.7zm0 10.2c4.8 0 9.2 1.4 13 3.8L39.7 73c-2.4-3.7-3.8-8.2-3.8-13 0-13.3 10.8-24.1 24.1-24.1zm0 48.2c-4.8 0-9.2-1.4-13-3.8L80.3 47c2.4 3.7 3.8 8.2 3.8 13 0 13.3-10.8 24.1-24.1 24.1z"/>
</svg>
