<svg xmlns="http://www.w3.org/2000/svg" width="49" height="67" fill="none"><path stroke="#000" stroke-linecap="round" stroke-linejoin="round" stroke-width="2" d="M36.297 1.055v11.041h11.042"/><path stroke="#000" stroke-linecap="round" stroke-linejoin="round" stroke-width="2" d="M47.338 61.055c0 2.2-1.8 4-3.999 4H4.964A3.964 3.964 0 0 1 1 61.09V5.02a3.976 3.976 0 0 1 3.964-3.965h31c.59 0 1.159.233 1.58.648l9.143 9.023c.417.411.651.972.651 1.557v48.772Z"/><path fill="#00FFB3" d="M24.17 49.1c8.86 0 16.044-7.184 16.044-16.045S33.03 17.011 24.169 17.011c-8.86 0-16.044 7.183-16.044 16.044S15.308 49.1 24.169 49.1Z"/><path stroke="#000" stroke-linecap="round" stroke-linejoin="round" stroke-width="2" d="m14.5 33.722 7.204 6.951 12.133-13.018"/></svg>
