<svg xmlns="http://www.w3.org/2000/svg" width="61" height="67" fill="none"><path fill="#00FFB3" d="M21.18 38.942V25.189c0-.827.442-1.59 1.16-2.004l11.95-6.875a2.328 2.328 0 0 1 2.322 0l11.95 6.875a2.312 2.312 0 0 1 1.16 2.004v13.753c0 .827-.443 1.59-1.16 2.004l-11.95 6.874a2.328 2.328 0 0 1-2.32 0L22.34 40.946a2.312 2.312 0 0 1-1.161-2.004Z"/><path stroke="#000" stroke-linejoin="round" stroke-width="2" d="m36.676 48.364 8.446-4.86V26.626l-14.668-8.44-14.668 8.44v16.88l8.446 4.859v16.91L1.09 51.96V18.17L30.454 1.275 59.817 18.17v33.79l-23.14 13.315V48.364Z"/><path stroke="#000" stroke-width="2" d="M23.926 38.21v-6.29c0-.378.202-.728.53-.917l5.467-3.145c.329-.189.733-.189 1.062 0l5.465 3.145c.329.19.531.539.531.917v6.29c0 .379-.202.728-.53.917l-5.466 3.144c-.329.19-.733.19-1.062 0l-5.466-3.144a1.058 1.058 0 0 1-.531-.916Z"/></svg>
