<svg width="62" height="67" viewBox="0 0 62 67" fill="none" xmlns="http://www.w3.org/2000/svg">
<path d="M16.7288 42.3816V28.6285C16.7288 27.802 17.1713 27.0382 17.8897 26.6249L29.84 19.7492C30.5584 19.3359 31.4434 19.3359 32.1617 19.7492L44.1105 26.6249C44.8287 27.0382 45.2712 27.8019 45.2712 28.6285V42.3817C45.2712 43.2083 44.8286 43.9721 44.1103 44.3854L32.1615 51.2596C31.4433 51.6728 30.5584 51.6728 29.8402 51.2597L17.8898 44.3854C17.1714 43.9721 16.7288 43.2083 16.7288 42.3816Z" fill="#FF8AC6"/>
<path d="M37.2232 48.8033L45.6685 43.9441V27.0647L31.0008 18.6252L16.3325 27.0647V43.9441L24.7784 48.8035V65.7144L1.63672 52.3994V18.6094L31.0005 1.71436L60.3643 18.6094V52.3994L37.2232 65.7144V48.8033Z" stroke="black" stroke-width="2" stroke-linejoin="round"/>
<path d="M24.4721 38.6501V32.3593C24.4721 31.9812 24.6745 31.6318 25.0031 31.4428L30.4693 28.2978C30.7979 28.1087 31.2027 28.1087 31.5313 28.2978L36.9967 31.4428C37.3253 31.6318 37.5276 31.9812 37.5276 32.3593V38.6501C37.5276 39.0282 37.3252 39.3776 36.9966 39.5666L31.5312 42.711C31.2026 42.9 30.7979 42.9 30.4694 42.711L25.0032 39.5666C24.6746 39.3776 24.4721 39.0282 24.4721 38.6501Z" stroke="black" stroke-width="2"/>
</svg>
