<svg xmlns="http://www.w3.org/2000/svg" width="119" height="120" fill="none"><path stroke="#000" stroke-width="2" d="M1.205 60c0-32.596 26.113-59 58.3-59s58.3 26.404 58.3 59c0 32.596-26.113 59-58.3 59s-58.3-26.404-58.3-59Z"/><path stroke="#000" stroke-linecap="round" stroke-miterlimit="10" stroke-width="2" d="m13.543 58.263.053-1.127c.706-12.182 6.08-23.605 14.981-31.84 8.901-8.234 20.625-12.631 32.68-12.255 12.055.377 23.49 5.497 31.871 14.27 8.382 8.775 13.05 20.511 13.012 32.714"/><path stroke="#000" stroke-linecap="round" stroke-linejoin="round" stroke-width="2" d="M59.832 20.395v-7.237M20.7 58.424h-7.154M31.922 32.742l-5.057-5.126M87.044 31.846l5.058-5.117"/><path fill="#49FFBA" stroke="#000" stroke-linecap="round" stroke-linejoin="round" stroke-width="2" d="M94.754 45.726c-18.195 8.555-39.44 18.872-42.598 21.396a9.686 9.686 0 0 0-3.852 6.569 9.749 9.749 0 0 0 .29 3.88 9.876 9.876 0 0 0 1.787 3.478 10.025 10.025 0 0 0 6.752 3.704 9.954 9.954 0 0 0 3.903-.354 9.824 9.824 0 0 0 3.446-1.832l.168-.133c3.16-2.524 17.827-20.9 30.068-36.699l.036-.009Z"/><path stroke="#000" stroke-linecap="round" stroke-linejoin="round" stroke-width="2" d="M106.207 59.853h-6.808"/></svg>
