<svg xmlns="http://www.w3.org/2000/svg" width="153" height="113"><g fill="none"><circle cx="115.317" cy="68.2" r="37.042" fill="#D9BFFF"/><path fill="#7542E5" d="M112.365 50.342l-33.595 57.42a3.447 3.447 0 002.97 5.187h67.166a3.448 3.448 0 002.977-5.186l-33.589-57.42a3.44 3.44 0 00-5.929 0z"/><path fill="#7542E5" d="M151.883 107.807l-24.917-42.66-5.434 5.434-6.19-6.196-6.195 6.196-5.435-5.435-24.936 42.661A3.447 3.447 0 0081.747 113h67.16a3.447 3.447 0 002.976-5.193z"/><path fill="#9059FF" d="M115.323 64.385l5.219 5.218a1.378 1.378 0 001.949 0l4.444-4.444-8.64-14.823a3.44 3.44 0 00-5.943 0l-8.659 14.81 4.444 4.444a1.378 1.378 0 001.95 0l5.236-5.205z"/><path fill="#AB71FF" d="M54.596 18.188L.489 107.782a3.44 3.44 0 003.06 5.18h108.226a3.44 3.44 0 003.053-5.18L60.715 18.188a3.6 3.6 0 00-6.12 0z"/><path fill="#D9BFFF" d="M74.942 41.74L60.715 18.188a3.6 3.6 0 00-6.113 0L40.375 41.74l-1.27 2.101L46.502 54a1.371 1.371 0 002.222 0l8.888-12.259L66.531 54a1.371 1.371 0 002.221 0l7.428-10.196-1.238-2.063z"/><path fill="#7542E5" d="M57.662 1.505v19.171c0 .831.673 1.505 1.504 1.505h35.265c.61.004 1.16-.363 1.39-.927a1.517 1.517 0 00-.323-1.644l-8.526-8.52 8.5-8.519c.429-.433.556-1.08.324-1.644A1.51 1.51 0 0094.431 0H59.166c-.83 0-1.504.674-1.504 1.505z"/></g></svg>