<svg fill="#1a1a1a" viewBox="0 0 24 24" xmlns="http://www.w3.org/2000/svg" aria-hidden="true"><path fill-rule="evenodd" clip-rule="evenodd" d="M12 1a1 1 0 0 1 .897.557l2.706 5.484 6.051.88a1 1 0 0 1 .555 1.705l-4.38 4.268 1.034 6.027a1 1 0 0 1-1.45 1.054L12 18.13l-5.413 2.845a1 1 0 0 1-1.45-1.054l1.033-6.027-4.379-4.268a1 1 0 0 1 .555-1.706l6.051-.88 2.706-5.483A1 1 0 0 1 12 1Zm0 3.26L9.958 8.397a1 1 0 0 1-.753.548l-4.567.663 3.305 3.221a1 1 0 0 1 .287.885l-.78 4.548 4.085-2.147a1 1 0 0 1 .93 0l4.085 2.147-.78-4.548a1 1 0 0 1 .287-.885l3.305-3.22-4.567-.664a1 1 0 0 1-.753-.548L12 4.26Z"/></svg>
