<svg width="65" height="65" viewBox="0 0 65 65" xmlns="http://www.w3.org/2000/svg"><defs><linearGradient x1="79.913%" y1="9.712%" x2="21.854%" y2="77.379%" id="a" gradientTransform="matrix(1.26521 -.19192 -.39226 1.31315 .027 .026)"><stop offset="0" stop-color="#9059ff"/><stop offset="1" stop-color="#20123a"/></linearGradient></defs><path d="M816.5 628c17.95 0 32.5-14.55 32.5-32.5S834.45 563 816.5 563 784 577.55 784 595.5s14.55 32.5 32.5 32.5zm0-2.826c16.388 0 29.674-13.286 29.674-29.674 0-16.388-13.286-29.674-29.674-29.674-16.388 0-29.674 13.286-29.674 29.674 0 16.388 13.286 29.674 29.674 29.674zm11.304-33.913c2.403 0 4.24 1.837 4.24 4.239v12.717c0 2.403-1.837 4.24-4.24 4.24h-12.717c-2.402 0-4.24-1.837-4.24-4.24V595.5c0-2.402 1.838-4.24 4.24-4.24h12.717zm1.413 16.956V595.5c0-.848-.565-1.413-1.413-1.413h-12.717c-.848 0-1.413.565-1.413 1.413v12.717c0 .848.565 1.413 1.413 1.413h12.717c.848 0 1.413-.565 1.413-1.413zm-21.195-7.065c0 .848-.565 1.413-1.413 1.413h-1.413c-2.403 0-4.24-1.837-4.24-4.239V585.61c0-2.402 1.837-4.24 4.24-4.24h12.717c2.402 0 4.24 1.838 4.24 4.24v1.413c0 .848-.566 1.413-1.414 1.413s-1.413-.565-1.413-1.413v-1.413c0-.848-.565-1.413-1.413-1.413h-12.717c-.848 0-1.413.565-1.413 1.413v12.717c0 .848.565 1.413 1.413 1.413h1.413c.848 0 1.413.565 1.413 1.413z" transform="translate(-784 -563)" fill-rule="evenodd" fill="url(#a)"/></svg>