<svg width="65" height="65" viewBox="0 0 65 65" xmlns="http://www.w3.org/2000/svg"><defs><linearGradient x1="79.913%" y1="9.712%" x2="21.854%" y2="77.379%" id="a" gradientTransform="matrix(1.261 -.18778 -.39587 1.3167 .03 .022)"><stop offset="0" stop-color="#9059ff"/><stop offset="1" stop-color="#20123a"/></linearGradient></defs><path d="M821.5 606c-17.95 0-32.5-14.55-32.5-32.5s14.55-32.5 32.5-32.5c10.61 0 20.033 5.084 25.964 12.949A32.355 32.355 0 0 1 854 573.5c0 17.95-14.55 32.5-32.5 32.5zm0-2.826c16.388 0 29.674-13.286 29.674-29.674 0-16.388-13.286-29.674-29.674-29.674-16.388 0-29.674 13.286-29.674 29.674 0 16.388 13.286 29.674 29.674 29.674zm-12.64-28.261c.584 5.28 4.4 9.586 9.427 10.895a23.074 23.074 0 0 1-3.778-10.895h-5.649zm0-2.826h5.646a23.04 23.04 0 0 1 3.78-10.895c-5.026 1.309-8.842 5.615-9.426 10.895zm25.28 0c-.584-5.28-4.4-9.586-9.427-10.895a23.074 23.074 0 0 1 3.778 10.895h5.649zm0 2.826h-5.646a23.04 23.04 0 0 1-3.78 10.895c5.026-1.309 8.842-5.615 9.426-10.895zm-16.802-2.826h8.32a20.21 20.21 0 0 0-4.158-10.526 20.183 20.183 0 0 0-4.162 10.526zm8.324 2.826h-8.32a20.21 20.21 0 0 0 4.158 10.526 20.183 20.183 0 0 0 4.162-10.526zm-4.162 14.13c-8.584 0-15.543-6.959-15.543-15.543s6.959-15.543 15.543-15.543 15.543 6.959 15.543 15.543-6.959 15.543-15.543 15.543z" transform="translate(-789 -541)" fill="url(#a)" fill-rule="evenodd"/></svg>