<svg xmlns="http://www.w3.org/2000/svg" width="578" height="222" fill="none"><rect width="535" height="172" x="11" y="40" stroke="#0090ED" stroke-dasharray="11.79 11.79" stroke-width="5.238" rx="3.143"/><path fill="#F8F6F4" d="M563.89 7.406c0-.626.259-1.197.69-1.53l2.609-1.996c.235-.178.504-.274.782-.274h3.866V0h-3.866c-.829 0-1.637.286-2.341.822l-2.609 2c-.223.17-.412.39-.602.603-.194-.214-.38-.433-.603-.603l-2.612-2C558.5.286 557.693 0 556.866 0H553v3.606h3.866c.276 0 .547.096.782.274l2.609 1.997c.433.332.692.903.692 1.529V36.59c0 .626-.259 1.197-.692 1.53l-2.611 1.996a1.287 1.287 0 0 1-.782.274H553v3.606h3.866c.829 0 1.637-.285 2.341-.822l2.609-1.997c.226-.173.412-.392.603-.603.19.211.379.43.602.603l2.612 2c.704.536 1.511.822 2.34.822h3.864v-3.606h-3.866c-.276 0-.547-.096-.782-.274l-2.609-1.997c-.433-.332-.69-.903-.69-1.529V7.406ZM103.975 176.771c9.324.06 13.778-5.582 13.778-10.571 0-6.889-6.295-8.73-11.64-9.799-4.691-1.009-7.304-1.544-7.304-3.563 0-1.782 1.544-3.088 4.751-3.088 2.969 0 4.988 1.247 6.295 3.385l7.483-3.029c-2.97-4.276-7.008-6.829-13.778-6.829-7.899-.06-13.125 4.632-13.125 10.036 0 6.77 5.998 8.433 11.402 9.562 4.098.831 7.543 1.366 7.543 3.682 0 1.9-1.782 3.504-5.108 3.504-3.385 0-5.939-1.485-7.364-4.336l-7.898 3.088c2.553 5.108 7.364 7.958 14.965 7.958Zm17.814-.653h8.374v-32.069h-8.374v32.069Zm-1.069-41.096c0 3.028 2.138 5.226 5.226 5.226 3.148 0 5.286-2.198 5.286-5.226 0-3.088-2.138-5.345-5.286-5.345-3.029 0-5.226 2.257-5.226 5.345Zm14.89 41.096h8.255v-17.697c0-4.989 2.97-7.84 6.83-7.84 4.335 0 6.533 2.851 6.533 7.424v18.113h8.373v-19.36c0-8.374-4.81-13.363-12.412-13.363-3.979 0-7.305 1.782-9.383 4.692v-4.038h-8.196v32.069Zm48.058 0h8.373v-32.069h-8.373v32.069Zm-1.069-41.096c0 3.028 2.137 5.226 5.226 5.226 3.147 0 5.285-2.198 5.285-5.226 0-3.088-2.138-5.345-5.285-5.345-3.029 0-5.226 2.257-5.226 5.345Zm14.89 41.096h8.255v-17.816c0-5.167 2.435-7.721 6.295-7.721 3.979 0 5.76 2.495 5.76 6.771v18.766h8.374v-17.994c0-5.048 2.435-7.543 6.117-7.543 4.157 0 5.939 2.673 5.939 7.008v18.529h8.433v-19.717c0-8.017-4.098-13.006-12.234-13.006-4.395 0-8.017 2.079-10.036 5.405-1.723-3.445-4.989-5.405-9.799-5.405-3.861 0-6.949 1.663-8.909 4.454v-3.8h-8.195v32.069Zm72.592.653c7.899 0 15.382-6.473 15.382-16.688 0-10.214-7.364-16.688-15.441-16.688-4.335 0-7.958 1.96-10.096 5.108v-4.454h-8.077v44.897h8.136v-16.747c2.138 2.969 5.761 4.572 10.096 4.572Zm-1.662-7.72c-5.048 0-8.909-4.038-8.909-9.027 0-4.989 3.861-9.027 8.909-9.027 4.929 0 8.848 3.979 8.848 9.027 0 5.048-3.919 9.027-8.848 9.027Zm21.32 7.067h8.136v-16.925c0-5.405 2.732-7.543 6.948-7.543 1.842 0 3.386.475 4.276 1.129l2.97-8.077c-1.366-.713-3.267-1.247-5.404-1.247-4.098 0-7.305 1.722-8.849 5.523v-4.929h-8.077v32.069Zm38.786.653c7.067 0 11.581-2.91 14.788-7.423l-6.711-3.92c-1.604 2.613-4.157 4.276-7.958 4.276-4.751 0-8.136-2.613-9.205-6.77h25.477v-3.088c0-9.502-6.948-16.451-16.569-16.451-9.562 0-16.807 7.424-16.807 16.748 0 9.324 6.651 16.628 16.985 16.628Zm-.178-26.427c4.276 0 7.364 2.197 8.433 6.176h-17.104c1.307-3.741 4.514-6.176 8.671-6.176Zm33.643 26.427c9.324.06 13.778-5.582 13.778-10.571 0-6.889-6.295-8.73-11.64-9.799-4.692-1.009-7.305-1.544-7.305-3.563 0-1.782 1.544-3.088 4.751-3.088 2.969 0 4.989 1.247 6.295 3.385l7.483-3.029c-2.969-4.276-7.008-6.829-13.778-6.829-7.899-.06-13.125 4.632-13.125 10.036 0 6.77 5.998 8.433 11.403 9.562 4.098.831 7.542 1.366 7.542 3.682 0 1.9-1.782 3.504-5.107 3.504-3.385 0-5.939-1.485-7.364-4.336l-7.899 3.088c2.554 5.108 7.364 7.958 14.966 7.958Zm17.813-.653h8.374v-32.069h-8.374v32.069Zm-1.069-41.096c0 3.028 2.138 5.226 5.227 5.226 3.147 0 5.285-2.198 5.285-5.226 0-3.088-2.138-5.345-5.285-5.345-3.029 0-5.227 2.257-5.227 5.345Zm30.691 41.749c9.68 0 16.985-7.482 16.985-16.688 0-9.264-7.424-16.688-16.985-16.688-9.621 0-16.926 7.424-16.926 16.688 0 9.206 7.305 16.688 16.926 16.688Zm.059-7.779c-4.929 0-8.789-3.979-8.789-8.968s3.86-8.968 8.789-8.968c4.87 0 8.79 3.979 8.79 8.968s-3.92 8.968-8.79 8.968Zm21.218 7.126h8.255v-17.697c0-4.989 2.97-7.84 6.83-7.84 4.335 0 6.533 2.851 6.533 7.424v18.113h8.373v-19.36c0-8.374-4.81-13.363-12.412-13.363-3.979 0-7.304 1.782-9.383 4.692v-4.038h-8.196v32.069Zm51.198.653c7.067 0 11.58-2.91 14.787-7.423l-6.711-3.92c-1.603 2.613-4.157 4.276-7.958 4.276-4.751 0-8.136-2.613-9.205-6.77h25.478v-3.088c0-9.502-6.949-16.451-16.57-16.451-9.561 0-16.806 7.424-16.806 16.748 0 9.324 6.651 16.628 16.985 16.628Zm-.179-26.427c4.276 0 7.365 2.197 8.434 6.176h-17.104c1.306-3.741 4.513-6.176 8.67-6.176Zm33.643 26.427c9.324.06 13.778-5.582 13.778-10.571 0-6.889-6.295-8.73-11.64-9.799-4.691-1.009-7.304-1.544-7.304-3.563 0-1.782 1.544-3.088 4.751-3.088 2.969 0 4.988 1.247 6.295 3.385l7.483-3.029c-2.97-4.276-7.008-6.829-13.778-6.829-7.899-.06-13.125 4.632-13.125 10.036 0 6.77 5.998 8.433 11.402 9.562 4.098.831 7.543 1.366 7.543 3.682 0 1.9-1.782 3.504-5.108 3.504-3.385 0-5.938-1.485-7.364-4.336l-7.898 3.088c2.553 5.108 7.364 7.958 14.965 7.958ZM35.91 117h29.338v-7.958H44.64c.238-3.979 4.632-6.533 9.383-9.443 5.523-3.325 11.403-7.067 11.403-14.075 0-7.007-5.345-12.471-14.49-12.471-7.365 0-12.888 3.86-15.798 9.74l7.424 3.622c1.425-3.504 4.275-6.117 8.254-6.117 3.98 0 6.177 2.138 6.177 5.167 0 3.504-4.098 5.88-8.909 8.849-5.76 3.504-12.174 7.839-12.174 15.678V117Zm50.468-7.423c-5.285 0-8.552-2.911-8.552-13.6v-1.782c0-10.215 3.445-13.184 8.612-13.184 5.048 0 8.492 2.672 8.492 13.184v1.782c0 10.571-3.266 13.6-8.552 13.6Zm0 8.017c9.918 0 16.985-5.583 16.985-21.499v-2.019c0-14.847-7.305-21.023-16.985-21.023-9.502 0-16.925 5.998-16.925 21.023v2.02c0 15.737 6.889 21.498 16.925 21.498ZM107.05 117h29.337v-7.958H115.78c.237-3.979 4.632-6.533 9.383-9.443 5.523-3.325 11.402-7.067 11.402-14.075 0-7.007-5.344-12.471-14.49-12.471-7.364 0-12.887 3.86-15.797 9.74l7.423 3.622c1.425-3.504 4.276-6.117 8.255-6.117 3.979 0 6.176 2.138 6.176 5.167 0 3.504-4.097 5.88-8.908 8.849-5.76 3.504-12.174 7.839-12.174 15.678V117Zm47.954.594c9.799 0 15.738-5.761 15.738-13.303 0-4.632-2.376-7.899-6.176-9.858 3.147-2.079 5.107-5.286 5.107-9.265 0-7.245-5.642-12.115-14.966-12.115-6.651 0-11.877 2.91-15.025 7.72l6.948 4.157c1.663-3.028 4.217-4.75 8.137-4.75 4.454 0 6.592 2.375 6.592 5.226 0 3.206-2.376 5.641-6.949 5.641h-4.454v7.543h4.811c4.513 0 7.542 2.078 7.542 5.523 0 3.622-3.029 5.879-7.305 5.879-3.979 0-7.008-1.484-9.146-4.988l-7.007 5.166c3.741 4.989 8.492 7.424 16.153 7.424Zm46.07.059c9.324.06 13.778-5.582 13.778-10.571 0-6.889-6.295-8.73-11.64-9.799-4.692-1.01-7.305-1.544-7.305-3.563 0-1.782 1.544-3.088 4.751-3.088 2.97 0 4.989 1.247 6.296 3.385l7.482-3.029c-2.969-4.276-7.007-6.83-13.778-6.83-7.898-.059-13.124 4.633-13.124 10.037 0 6.77 5.998 8.433 11.402 9.561 4.098.832 7.542 1.366 7.542 3.683 0 1.9-1.781 3.503-5.107 3.503-3.385 0-5.939-1.484-7.364-4.335l-7.899 3.088c2.554 5.108 7.364 7.958 14.966 7.958Zm33.731 0c7.067 0 11.581-2.91 14.788-7.423l-6.711-3.92c-1.604 2.613-4.157 4.276-7.958 4.276-4.751 0-8.136-2.613-9.205-6.77h25.477v-3.088c0-9.502-6.948-16.45-16.569-16.45-9.561 0-16.807 7.423-16.807 16.747s6.652 16.628 16.985 16.628Zm-.178-26.427c4.276 0 7.364 2.197 8.433 6.176h-17.104c1.307-3.742 4.514-6.176 8.671-6.176ZM255.444 117h8.136v-16.926c0-5.404 2.732-7.542 6.948-7.542 1.841 0 3.385.475 4.276 1.129l2.969-8.077c-1.366-.713-3.266-1.247-5.404-1.247-4.098 0-7.305 1.722-8.849 5.523v-4.93h-8.076V117Zm33.601.653c5.048 0 9.442-2.256 11.759-5.582V117h7.898V97.283c0-8.077-5.404-13.006-14.847-13.006-7.186 0-11.877 3.029-15.144 7.305l7.542 3.741c1.485-2.672 3.92-4.216 7.543-4.216 4.632 0 6.948 2.375 6.948 5.82v.416h-8.433c-8.908 0-14.431 4.097-14.431 10.749 0 5.642 4.157 9.561 11.165 9.561Zm2.375-6.77c-3.385 0-4.988-1.188-4.988-3.504 0-2.494 1.959-4.038 6.829-4.038h7.543v1.722c-1.604 3.445-5.464 5.82-9.384 5.82Zm-1.306-29.931h6.176l8.968-10.156h-8.374l-6.77 10.155Zm49.073 36.701c3.92 0 7.186-1.781 9.265-4.691V117l8.195-.059v-32.07l-8.314.06v17.638c0 4.988-2.85 7.78-6.711 7.78-4.394 0-6.532-2.792-6.532-7.305V84.93h-8.374v19.242c0 8.433 4.573 13.481 12.471 13.481Zm22.926-.653h8.255V99.302c0-4.988 2.969-7.839 6.83-7.839 4.335 0 6.532 2.85 6.532 7.424V117h8.374V97.64c0-8.374-4.81-13.363-12.412-13.363-3.979 0-7.305 1.782-9.383 4.692V84.93h-8.196V117Zm58.094.653c5.048 0 9.443-2.256 11.759-5.582V117h7.898V97.283c0-8.077-5.404-13.006-14.847-13.006-7.186 0-11.877 3.029-15.144 7.305l7.543 3.741c1.484-2.672 3.919-4.216 7.542-4.216 4.632 0 6.948 2.375 6.948 5.82v.416h-8.433c-8.908 0-14.431 4.097-14.431 10.749 0 5.642 4.157 9.561 11.165 9.561Zm2.375-6.77c-3.385 0-4.988-1.188-4.988-3.504 0-2.494 1.96-4.038 6.829-4.038h7.543v1.722c-1.604 3.445-5.464 5.82-9.384 5.82Zm22.52 6.117h8.255V99.302c0-4.988 2.969-7.839 6.83-7.839 4.335 0 6.532 2.85 6.532 7.424V117h8.374V97.64c0-8.374-4.81-13.363-12.412-13.363-3.979 0-7.305 1.782-9.383 4.692V84.93h-8.196V117Zm5.286-35.99h4.869c0-1.78.535-2.493 1.604-2.493 1.01 0 1.782.475 2.732 1.069 1.247.772 2.732 1.662 4.988 1.662 4.336 0 6.296-3.207 6.296-8.195h-4.989c0 1.722-.535 2.554-1.604 2.554-1.009 0-1.959-.713-3.088-1.366-1.247-.713-2.613-1.426-4.573-1.426-3.919 0-6.235 3.03-6.235 8.196Zm45.852 36.643c9.68 0 16.985-7.483 16.985-16.688 0-9.264-7.424-16.688-16.985-16.688-9.621 0-16.926 7.424-16.926 16.688 0 9.205 7.305 16.688 16.926 16.688Zm.059-7.78c-4.929 0-8.789-3.979-8.789-8.967 0-4.989 3.86-8.968 8.789-8.968 4.87 0 8.79 3.98 8.79 8.968 0 4.988-3.92 8.967-8.79 8.967Z"/><g fill="#F8F6F4" clip-path="url(#a)"><path d="M39.742 172.556c.324 0 .648-.056.967-.166l9.263-3.217 18.887-19.642c1.97-2.052 1.97-5.393 0-7.444l-2.86-2.976a4.934 4.934 0 0 0-7.157 0l-18.886 19.646-3.09 9.645a3.23 3.23 0 0 0 .734 3.228 2.974 2.974 0 0 0 2.142.926Zm21.486-30.961a1.638 1.638 0 0 1 2.383 0l2.863 2.979a1.801 1.801 0 0 1 0 2.478l-2.874 2.992-5.249-5.459 2.877-2.99Zm-18.326 19.059 13.061-13.585 5.246 5.457-13.06 13.588-7.872 2.731 2.625-8.191ZM72.982 174.49l-4.84 1.538a11.362 11.362 0 0 1-5.767.297l-5.619-1.17c-3.29-.682-6.762-.2-9.765 1.361-3.325 1.729-7.335 1.056-9.966-1.684l-.137-.143-2.248 2.627c2.307 2.397 5.375 3.66 8.486 3.66a11.58 11.58 0 0 0 5.373-1.325 11.452 11.452 0 0 1 7.596-1.055l5.619 1.171c2.455.51 5.019.373 7.412-.388l4.841-1.538-.985-3.351Z"/></g><path stroke="#FFFFF2" stroke-width="1.06" d="M536.53 126.118v58.326"/><defs><clipPath id="a"><path fill="#fff" d="M33 137.118h43.176v44.911H33z"/></clipPath></defs></svg>
