<svg xmlns="http://www.w3.org/2000/svg" width="1027" height="580" fill="none"><path fill="#333336" stroke="url(#a)" stroke-width="6" d="M3.61 28c0-13.807 11.193-25 25-25H998.39c13.811 0 25.001 11.193 25.001 25v524c0 13.807-11.19 25-25.001 25H28.61c-13.807 0-25-11.193-25-25z"/><path fill="#5B5B5E" d="M665.391 521.833c0-5.523 4.477-10 10-10h241.614c5.523 0 10 4.477 10 10v51.572H665.391zM382.263 521.833c0-5.523 4.477-10 10-10h241.614c5.523 0 10 4.477 10 10v51.572H382.263zM99.134 521.833c0-5.523 4.477-10 10-10h241.614c5.523 0 10 4.477 10 10v51.572H99.134z"/><rect width="71.305" height="71.206" x="267.571" y="381.599" fill="#5B5B5E" rx="9.521"/><rect width="71.305" height="71.206" x="374.033" y="381.599" fill="#5B5B5E" rx="9.521"/><rect width="71.305" height="71.206" x="480.494" y="381.599" fill="#5B5B5E" rx="9.521"/><rect width="71.305" height="71.206" x="586.957" y="381.599" fill="#5B5B5E" rx="9.521"/><rect width="71.305" height="71.206" x="693.418" y="381.599" fill="#5B5B5E" rx="9.521"/><rect width="499.413" height="47.471" x="264.783" y="277.523" fill="#5B5B5E" rx="9.521"/><path fill="#F8F6F4" d="M430.858 178.908c.011.001.022.002 0 0m-8.376-4.2c.011 0 .022.001 0 0m50.11 6.486c-1.512-3.648-4.574-7.586-6.978-8.83 1.957 3.847 3.089 7.708 3.522 10.589l.007.058c-3.933-9.834-10.602-13.8-16.049-22.433-.275-.437-.551-.874-.819-1.336a10 10 0 0 1-.383-.721 6.4 6.4 0 0 1-.519-1.38.1.1 0 0 0-.021-.062.1.1 0 0 0-.058-.031.1.1 0 0 0-.065 0l-.018.009-.025.014.014-.019c-7.734 4.544-10.939 12.499-11.764 17.562-2.389.136-4.73.736-6.892 1.765a.894.894 0 0 0-.44 1.107.87.87 0 0 0 .48.519.87.87 0 0 0 .705-.007 16.8 16.8 0 0 1 6.004-1.572l.203-.014q.429-.027.859-.031c1.688-.012 3.37.222 4.992.694q.14.044.281.089.405.124.802.268.29.108.578.227.233.094.464.193.358.16.709.335.161.08.321.162.343.18.676.376.216.124.428.258a17.8 17.8 0 0 1 6.082 6.312c-1.857-1.309-5.182-2.602-8.386-2.043 12.51 6.274 9.152 27.879-8.184 27.063a15.4 15.4 0 0 1-4.526-.875q-.517-.195-1.022-.419c-.196-.09-.392-.181-.586-.281-4.248-2.202-7.755-6.364-8.193-11.418 0 0 1.605-6.001 11.496-6.001 1.069 0 4.126-2.993 4.183-3.861-.013-.283-6.067-2.699-8.427-5.031-1.261-1.247-1.86-1.847-2.39-2.298a10 10 0 0 0-.901-.683 16.2 16.2 0 0 1-.098-8.527c-3.573 1.633-6.352 4.212-8.372 6.49h-.016c-1.379-1.752-1.282-7.531-1.203-8.738-.017-.075-1.029.527-1.162.618a25.4 25.4 0 0 0-3.399 2.921 30.7 30.7 0 0 0-3.248 3.907l-.001.006.001-.006a29.5 29.5 0 0 0-4.667 10.571c-.008.038-.331 1.46-.567 3.215q-.06.41-.111.821a23 23 0 0 0-.206 1.998l-.007.104q-.039.58-.069 1.161c0 .059-.004.118-.004.178 0 19.267 15.573 34.886 34.782 34.886 17.204 0 31.488-12.528 34.285-28.983.058-.447.106-.896.158-1.346.691-5.983-.077-12.272-2.256-17.53M491.801 178.584h19.418v5.227h-13.883v7.12h13.883v5.137h-13.883v11.356h-5.535zm26.042-1.983c1.906 0 3.267 1.352 3.267 3.245 0 1.892-1.27 3.244-3.267 3.244s-3.266-1.352-3.266-3.154c0-1.803 1.452-3.335 3.266-3.335m-2.722 9.553h5.535v21.36h-5.535zm21.415 5.949c-.635-.541-1.724-.992-2.632-.992-2.268 0-3.538 1.442-3.538 4.507v11.806h-5.445v-21.36h5.172v3.065c1.089-2.434 2.813-3.245 5.173-3.245s2.631.361 3.629 1.082l-2.359 5.047zm2.268 4.866c0-6.128 4.537-11.265 11.071-11.265s11.07 4.506 11.07 10.905v2.253h-16.696c.635 2.704 2.722 4.506 5.898 4.506s4.265-1.171 5.354-3.154l4.537 2.704c-2.269 3.334-5.535 5.047-10.073 5.047-6.987 0-11.161-4.597-11.161-10.996m5.445-2.433h11.342c-.635-2.704-2.813-4.236-5.716-4.236s-4.809 1.442-5.535 4.236zm17.966-8.382h3.902v-1.081c0-5.768 2.45-8.201 7.895-8.201h1.905v4.686h-1.542c-2.541 0-3.085.901-3.085 3.515v1.081h4.627v4.867h-4.537v16.403h-5.263v-16.403h-3.902zm14.7 10.635c0-6.128 4.719-11.085 11.252-11.085s11.252 4.957 11.252 11.085-4.991 11.085-11.252 11.085-11.252-4.866-11.252-11.085m17.15 0c0-3.425-2.54-6.038-5.898-6.038s-5.898 2.613-5.898 6.038 2.541 6.038 5.898 6.038c3.358 0 5.898-2.613 5.898-6.038m12.704-.27-7.804-10.455h6.443l4.537 6.579 4.719-6.579h6.351l-7.894 10.365 8.257 10.905h-6.442l-5.172-6.94-4.991 6.94h-6.443l8.258-10.905z"/><path stroke="url(#b)" stroke-width="6" d="M4.471 109.293H1023.39"/><path fill="#333336" stroke="#905AFF" stroke-linecap="round" stroke-linejoin="round" stroke-width="6" d="M69.338 69.626c8.646 0 15.655-7.01 15.655-15.655 0-8.646-7.009-15.655-15.655-15.655s-15.654 7.009-15.654 15.655 7.009 15.655 15.654 15.655M134.936 69.625c8.646 0 15.655-7.008 15.655-15.654s-7.009-15.655-15.655-15.655-15.655 7.009-15.655 15.655 7.009 15.654 15.655 15.654M200.626 69.626c8.646 0 15.655-7.01 15.655-15.655 0-8.646-7.009-15.655-15.655-15.655s-15.654 7.009-15.654 15.655 7.009 15.655 15.654 15.655"/><path fill="url(#c)" d="m947.944 53.635-1.201 1.599a2 2 0 0 0 3.201-1.6zm16.421-16.423v2a2.001 2.001 0 0 0 1.6-3.201zm11.945 0-1.599-1.201a2 2 0 0 0 1.599 3.201zm16.423 1.125h2zm0 13.954-.399 1.96a2 2 0 0 0 2.399-1.96zm0 14.63h2a2 2 0 0 0-2.399-1.96zm0 13.954h-2zm-15.08 1.126-1.96-.398a2 2 0 0 0 1.96 2.398zm-14.631 0v2a2 2 0 0 0 1.96-2.398zm-15.078-1.126h-2zm0-15.297h2a2 2 0 0 0-3.201-1.599zm1.201-13.542a9.43 9.43 0 0 0-5.68-1.894v4c1.232 0 2.365.406 3.278 1.092zm-3.201-13.699v15.298h4V38.337zm3.125-3.125a3.125 3.125 0 0 0-3.125 3.125h4a.875.875 0 0 1-.875.875zm15.296 0h-15.296v4h15.296zm-3.492-2.479c0 2.129.705 4.098 1.893 5.68l3.199-2.402a5.43 5.43 0 0 1-1.092-3.278zm9.465-9.465a9.464 9.464 0 0 0-9.465 9.465h4a5.465 5.465 0 0 1 5.465-5.465zm9.464 9.465c0-5.227-4.237-9.465-9.464-9.465v4a5.464 5.464 0 0 1 5.464 5.465zm-1.893 5.68a9.43 9.43 0 0 0 1.893-5.68h-4a5.43 5.43 0 0 1-1.091 3.278zm13.699-3.2H976.31v4h15.298zm3.125 3.124c0-1.726-1.4-3.125-3.125-3.125v4a.875.875 0 0 1-.875-.875zm0 13.954V38.337h-4v13.954zm-1.602-1.96a9.5 9.5 0 0 0-1.892-.19v4q.566.001 1.095.11zm-1.892-.19a9.465 9.465 0 0 0-9.465 9.465h4a5.465 5.465 0 0 1 5.465-5.464zm-9.465 9.465a9.465 9.465 0 0 0 9.465 9.465v-4a5.465 5.465 0 0 1-5.465-5.465zm9.465 9.465a9.5 9.5 0 0 0 1.892-.19l-.797-3.92q-.529.109-1.095.11zm3.494 11.805V66.922h-4v13.954zM991.608 84c1.725 0 3.125-1.399 3.125-3.124h-4c0-.484.391-.876.875-.876zm-13.955 0h13.955v-4h-13.955zm-1.85-3.493q-.001.566-.11 1.096l3.92.795c.125-.612.19-1.245.19-1.89zm-5.465-5.464a5.465 5.465 0 0 1 5.465 5.464h4a9.465 9.465 0 0 0-9.465-9.464zm-5.465 5.464a5.465 5.465 0 0 1 5.465-5.464v-4a9.465 9.465 0 0 0-9.465 9.464zm.109 1.096a5.5 5.5 0 0 1-.109-1.096h-4q.002.971.189 1.891zM949.069 84h13.953v-4h-13.953zm-3.125-3.126a3.125 3.125 0 0 0 3.125 3.126v-4c.483 0 .875.391.875.874zm0-15.297v15.298h4V65.578zm-2.479 3.493a9.43 9.43 0 0 0 5.68-1.894l-2.402-3.198a5.43 5.43 0 0 1-3.278 1.092zM934 59.606a9.465 9.465 0 0 0 9.465 9.465v-4A5.465 5.465 0 0 1 938 59.606zm9.465-9.464A9.465 9.465 0 0 0 934 59.606h4a5.465 5.465 0 0 1 5.465-5.464z"/><defs><linearGradient id="a" x1="1023.39" x2="161.962" y1="577" y2="-124.081" gradientUnits="userSpaceOnUse"><stop stop-color="#0290EE"/><stop offset=".487" stop-color="#9059FF"/></linearGradient><linearGradient id="b" x1="4.471" x2="1023.39" y1="112.793" y2="112.793" gradientUnits="userSpaceOnUse"><stop stop-color="#905AFF"/><stop offset="1" stop-color="#5371F8"/></linearGradient><linearGradient id="c" x1="936" x2="993" y1="60.5" y2="60.5" gradientUnits="userSpaceOnUse"><stop stop-color="#7464FB"/><stop offset="1" stop-color="#596FF8"/></linearGradient></defs></svg>
