<svg xmlns="http://www.w3.org/2000/svg" width="463" height="577" fill="none"><path fill="url(#a)" stroke="#333336" stroke-linejoin="round" stroke-width="4" d="m167.159 8.183 25.03 42.73 35.722-34.296 7.904 48.887 45.7-19.076-10.291 48.44 49.505-1.279-27.094 41.452 46.624 16.691-40.238 28.865 37.446 32.406-47.949 12.381 23.211 43.745-49.183-5.777 5.841 49.176-43.775-23.154-12.317 47.965-32.455-37.404-28.813 40.277-16.752-46.602-41.416 27.148 1.214-49.506-48.427 10.354 19.016-45.725-48.898-7.84 34.25-35.767L8.251 167.3l44.857-20.98-30.854-38.735 49.408-3.359-14.778-47.265 47.284 14.716 3.294-49.412 38.776 30.803z"/><path fill="#F8F6F4" stroke="#333336" stroke-miterlimit="10" stroke-width="4" d="m395.428 402.58-270.803-.208c-18.079-.01-32.742 14.598-32.763 32.726l-.036 41.729c-.01 18.079 14.598 32.743 32.677 32.752l270.803.209c18.079.009 32.742-14.599 32.764-32.727l.036-41.729c.009-18.079-14.599-32.742-32.678-32.752Z"/><path fill="#F8F6F4" stroke="#333336" stroke-miterlimit="10" stroke-width="4" d="m369.243 110.987-218.03-.162c-20.317-.019-36.815 16.395-36.796 36.774l-.162 218.029c-.019 20.318 16.456 36.778 36.774 36.797l218.03.162c20.317.018 36.777-16.457 36.845-36.762l.162-218.03c.019-20.318-16.456-36.778-36.774-36.796z"/><path fill="#F8F6F4" stroke="#333336" stroke-width="4" d="m181.686 471.646-51.938-.057c-8.646-.016-15.632-7.038-15.628-15.635.016-8.646 6.988-15.644 15.634-15.628l51.938.057c8.646.016 15.632 7.038 15.628 15.634s-7.038 15.633-15.634 15.629ZM228.573 440.439c-8.646-.016-15.618 6.982-15.634 15.628s6.982 15.619 15.628 15.635 15.619-6.983 15.635-15.629-6.983-15.618-15.629-15.634Z"/><path fill="#333336" d="m361.432 139.448-202.35-.172c-8.934-.016-16.139 7.215-16.143 16.098l-.184 202.401c-.017 8.934 7.215 16.138 16.148 16.155l202.351.172c8.933.016 16.138-7.215 16.142-16.098l.184-202.401c.017-8.934-7.214-16.139-16.148-16.155"/><path fill="url(#b)" d="M242.348 227.055c.022.001.045.002 0 0m-16.424-8.261c.023.001.045.002 0 0m98.255 12.755c-2.964-7.173-8.967-14.917-13.681-17.365 3.836 7.566 6.057 15.159 6.906 20.824 0 .012.004.039.013.114-7.712-19.338-20.789-27.137-31.468-44.115-.539-.859-1.08-1.719-1.607-2.627a22 22 0 0 1-.751-1.419 12.6 12.6 0 0 1-1.017-2.713.18.18 0 0 0-.155-.184.23.23 0 0 0-.128 0c-.009.004-.024.015-.034.019-.015.006-.034.02-.05.027l.029-.038c-15.165 8.936-21.451 24.58-23.067 34.538a36.2 36.2 0 0 0-13.515 3.47 1.754 1.754 0 0 0-.863 2.179 1.73 1.73 0 0 0 .941 1.019 1.697 1.697 0 0 0 1.384-.013 32.8 32.8 0 0 1 11.771-3.091q.2-.013.399-.029a34 34 0 0 1 1.684-.06 34 34 0 0 1 9.788 1.364c.185.055.367.118.552.176q.792.243 1.572.526.57.213 1.133.446c.305.124.609.248.91.38q.703.314 1.39.659.317.157.629.319a34 34 0 0 1 2.165 1.246 35 35 0 0 1 11.927 12.413c-3.642-2.574-10.163-5.116-16.445-4.017 24.531 12.339 17.945 54.827-16.047 53.223a30.2 30.2 0 0 1-8.874-1.722 38 38 0 0 1-2.003-.824c-.385-.177-.77-.355-1.15-.553-8.329-4.331-15.206-12.515-16.065-22.454 0 0 3.148-11.801 22.542-11.801 2.096 0 8.09-5.886 8.201-7.593-.025-.558-11.895-5.308-16.523-9.895-2.473-2.451-3.647-3.632-4.686-4.519a20 20 0 0 0-1.767-1.342 32 32 0 0 1-.191-16.769c-7.006 3.21-12.456 8.283-16.417 12.762h-.032c-2.704-3.445-2.513-14.81-2.359-17.183-.032-.147-2.016 1.036-2.277 1.215a50 50 0 0 0-6.665 5.744 60 60 0 0 0-6.369 7.684q0 .005-.003.011 0-.006.003-.011a58.1 58.1 0 0 0-9.15 20.788c-.017.076-.65 2.871-1.113 6.323a79 79 0 0 0-.218 1.614c-.158 1.038-.281 2.17-.403 3.931l-.013.203q-.077 1.14-.137 2.282c0 .118-.007.233-.007.351 0 37.89 30.535 68.606 68.201 68.606 33.732 0 61.74-24.636 67.224-56.997.116-.878.208-1.761.31-2.647 1.356-11.766-.15-24.133-4.424-34.475"/><defs><linearGradient id="a" x1="203.697" x2="39.522" y1="28.994" y2="263.942" gradientUnits="userSpaceOnUse"><stop stop-color="#0290EE"/><stop offset="1" stop-color="#9059FF"/></linearGradient><linearGradient id="b" x1="329.086" x2="192.868" y1="316.196" y2="193.527" gradientUnits="userSpaceOnUse"><stop stop-color="#FF7139"/><stop offset="1" stop-color="#FFEA80"/></linearGradient></defs></svg>
