<svg width="24" height="25" fill="none" xmlns="http://www.w3.org/2000/svg"><g clip-path="url(#a)"><path d="M19.032 12.188a7.031 7.031 0 1 1-14.063 0 7.031 7.031 0 0 1 14.063 0Zm-3.969-4.572c.508 1.07.82 2.394.904 3.808h1.485a5.512 5.512 0 0 0-2.389-3.808Zm-8.514 3.808h1.485c.083-1.414.395-2.737.903-3.808a5.512 5.512 0 0 0-2.388 3.808Zm2.388 5.336c-.508-1.071-.82-2.395-.903-3.81H6.549a5.513 5.513 0 0 0 2.388 3.81Zm4.665-.49c.463-.899.752-2.057.836-3.32h-1.675v-1.526h1.675c-.084-1.262-.373-2.42-.836-3.32-.252-.49-.54-.867-.839-1.11v4.43h-1.526v-4.43c-.299.243-.587.62-.84 1.11-.462.9-.751 2.058-.834 3.32h1.674v1.527H9.563c.083 1.262.372 2.42.835 3.32.252.49.54.867.839 1.11v-4.43h1.526v4.43c.3-.243.587-.62.84-1.11Zm3.85-3.32h-1.485c-.083 1.415-.396 2.739-.904 3.81a5.512 5.512 0 0 0 2.389-3.81Z" fill="#fff"/></g><defs><clipPath id="a"><path fill="#fff" d="M0 .188h24v24H0z"/></clipPath></defs></svg>
