<svg width="470" height="28" fill="none" xmlns="http://www.w3.org/2000/svg"><path d="M1.199 19h1.645v-3.835h2.238c2.53 0 3.782-1.529 3.782-3.542 0-2.009-1.241-3.532-3.777-3.532H1.199V19Zm1.645-5.23V9.501h2.067c1.63 0 2.296.885 2.296 2.12 0 1.236-.666 2.147-2.274 2.147H2.844Zm11.165 5.395c2.307 0 3.814-1.688 3.814-4.219 0-2.546-1.507-4.234-3.814-4.234-2.306 0-3.814 1.688-3.814 4.234 0 2.53 1.508 4.22 3.814 4.22Zm.006-1.337c-1.508 0-2.211-1.316-2.211-2.887 0-1.566.703-2.898 2.21-2.898 1.497 0 2.2 1.332 2.2 2.898 0 1.571-.703 2.887-2.2 2.887ZM21.125 19h1.62l1.662-5.907h.122L26.191 19h1.625l2.402-8.182h-1.646L26.98 16.8h-.08l-1.598-5.982h-1.646l-1.609 6.009h-.08l-1.603-6.009h-1.646L21.126 19Zm13.882.165c1.785 0 3.047-.879 3.41-2.21l-1.508-.272c-.288.772-.98 1.166-1.886 1.166-1.364 0-2.28-.884-2.322-2.46h5.816v-.565c0-2.957-1.768-4.112-3.622-4.112-2.28 0-3.782 1.736-3.782 4.25 0 2.541 1.481 4.203 3.894 4.203Zm-2.301-4.97c.064-1.16.905-2.168 2.2-2.168 1.236 0 2.045.917 2.05 2.168h-4.25ZM40.284 19h1.593v-4.996c0-1.071.826-1.843 1.955-1.843.33 0 .703.058.831.095v-1.523a6.444 6.444 0 0 0-.676-.037c-.96 0-1.78.543-2.078 1.422h-.085v-1.3h-1.54V19Zm8.99.165c1.785 0 3.048-.879 3.41-2.21l-1.508-.272c-.287.772-.98 1.166-1.885 1.166-1.364 0-2.28-.884-2.323-2.46h5.817v-.565c0-2.957-1.768-4.112-3.622-4.112-2.28 0-3.782 1.736-3.782 4.25 0 2.541 1.48 4.203 3.894 4.203Zm-2.3-4.97c.064-1.16.905-2.168 2.2-2.168 1.235 0 2.045.917 2.05 2.168h-4.25Zm10.641 4.965c1.491 0 2.077-.911 2.365-1.433h.133V19h1.556V8.09h-1.593v4.055h-.096c-.288-.506-.83-1.433-2.354-1.433-1.977 0-3.43 1.56-3.43 4.213 0 2.647 1.432 4.235 3.419 4.235Zm.352-1.358c-1.423 0-2.163-1.252-2.163-2.893 0-1.625.724-2.844 2.163-2.844 1.39 0 2.136 1.134 2.136 2.844 0 1.72-.762 2.893-2.136 2.893ZM68.038 19h1.556v-1.273h.133c.288.522.874 1.433 2.365 1.433 1.981 0 3.42-1.588 3.42-4.235 0-2.653-1.46-4.213-3.436-4.213-1.518 0-2.067.927-2.35 1.433h-.095V8.09h-1.593V19Zm1.561-4.09c0-1.71.746-2.845 2.136-2.845 1.444 0 2.168 1.22 2.168 2.844 0 1.64-.746 2.893-2.168 2.893-1.369 0-2.136-1.172-2.136-2.893Zm8.415 7.158c1.316 0 2.147-.687 2.62-1.976l3.372-9.274h-1.71l-2.072 6.35h-.085l-2.072-6.35h-1.704l2.993 8.289-.197.543c-.405 1.087-.975 1.177-1.848.937l-.384 1.305c.192.086.608.176 1.087.176ZM166.199 19h1.645v-3.835h2.238c2.53 0 3.782-1.529 3.782-3.542 0-2.009-1.241-3.532-3.777-3.532h-3.888V19Zm1.645-5.23V9.501h2.067c1.63 0 2.296.885 2.296 2.12 0 1.236-.666 2.147-2.274 2.147h-2.089Zm13.004 1.837c.006 1.39-1.028 2.05-1.923 2.05-.985 0-1.667-.713-1.667-1.826v-5.013h-1.593v5.204c0 2.03 1.114 3.085 2.685 3.085 1.231 0 2.067-.65 2.445-1.524h.085V19h1.566v-8.182h-1.598v4.789Zm7.558-4.789h-1.678v-1.96h-1.593v1.96h-1.199v1.279h1.199v4.83c-.005 1.487 1.129 2.206 2.386 2.18a3.058 3.058 0 0 0 1.034-.17l-.288-1.317c-.106.022-.304.07-.559.07-.517 0-.98-.17-.98-1.092v-4.501h1.678v-1.279Zm5.581 0h-1.678v-1.96h-1.593v1.96h-1.199v1.279h1.199v4.83c-.005 1.487 1.129 2.206 2.386 2.18a3.058 3.058 0 0 0 1.034-.17l-.288-1.317c-.106.022-.304.07-.559.07-.517 0-.98-.17-.98-1.092v-4.501h1.678v-1.279ZM195.748 19h1.593v-8.182h-1.593V19Zm.805-9.444c.548 0 1.006-.426 1.006-.948s-.458-.954-1.006-.954c-.554 0-1.007.432-1.007.954s.453.948 1.007.948Zm4.523 4.586c0-1.305.799-2.05 1.907-2.05 1.082 0 1.737.708 1.737 1.896V19h1.593v-5.204c0-2.024-1.114-3.084-2.786-3.084-1.231 0-2.035.57-2.413 1.438h-.101v-1.332h-1.529V19h1.592v-4.858Zm10.803 8.097c2.083 0 3.691-.954 3.691-3.058v-8.363h-1.56v1.327h-.118c-.282-.506-.846-1.433-2.37-1.433-1.976 0-3.43 1.56-3.43 4.165 0 2.61 1.486 4 3.419 4 1.503 0 2.083-.846 2.371-1.368h.101v1.608c0 1.284-.879 1.838-2.088 1.838-1.326 0-1.843-.666-2.125-1.135l-1.369.565c.431 1.001 1.523 1.854 3.478 1.854Zm-.016-4.683c-1.422 0-2.163-1.091-2.163-2.7 0-1.572.725-2.791 2.163-2.791 1.39 0 2.136 1.134 2.136 2.79 0 1.69-.762 2.701-2.136 2.701Zm9.813 4.512h1.593v-4.341h.096c.287.522.873 1.433 2.365 1.433 1.981 0 3.42-1.588 3.42-4.235 0-2.653-1.46-4.213-3.436-4.213-1.518 0-2.067.927-2.349 1.433h-.133v-1.327h-1.556v11.25Zm1.561-7.159c0-1.71.746-2.844 2.136-2.844 1.443 0 2.168 1.22 2.168 2.844 0 1.64-.746 2.893-2.168 2.893-1.369 0-2.136-1.172-2.136-2.893Zm11.223 4.256c1.785 0 3.047-.879 3.409-2.21l-1.507-.272c-.288.772-.98 1.166-1.886 1.166-1.363 0-2.28-.884-2.322-2.46h5.817v-.565c0-2.957-1.769-4.112-3.623-4.112-2.279 0-3.782 1.736-3.782 4.25 0 2.541 1.481 4.203 3.894 4.203Zm-2.301-4.97c.064-1.16.906-2.168 2.2-2.168 1.236 0 2.045.917 2.051 2.168h-4.251Zm11.025 4.97c2.307 0 3.814-1.688 3.814-4.219 0-2.546-1.507-4.234-3.814-4.234-2.306 0-3.814 1.688-3.814 4.234 0 2.53 1.508 4.22 3.814 4.22Zm.005-1.337c-1.507 0-2.21-1.316-2.21-2.887 0-1.566.703-2.898 2.21-2.898 1.497 0 2.2 1.332 2.2 2.898 0 1.571-.703 2.887-2.2 2.887Zm5.587 4.24h1.592v-4.341h.096c.288.522.874 1.433 2.365 1.433 1.982 0 3.42-1.588 3.42-4.235 0-2.653-1.459-4.213-3.436-4.213-1.518 0-2.066.927-2.349 1.433h-.133v-1.327h-1.555v11.25Zm1.56-7.159c0-1.71.746-2.844 2.136-2.844 1.444 0 2.168 1.22 2.168 2.844 0 1.64-.745 2.893-2.168 2.893-1.368 0-2.136-1.172-2.136-2.893Zm9.29-6.818h-1.592V19h1.592V8.09Zm5.669 11.074c1.785 0 3.047-.879 3.409-2.21l-1.507-.272c-.288.772-.98 1.166-1.886 1.166-1.363 0-2.28-.884-2.322-2.46h5.816v-.565c0-2.957-1.768-4.112-3.622-4.112-2.28 0-3.782 1.736-3.782 4.25 0 2.541 1.481 4.203 3.894 4.203Zm-2.301-4.97c.064-1.16.906-2.168 2.2-2.168 1.236 0 2.045.917 2.051 2.168h-4.251ZM274.67 19h1.556v-1.273h.133c.287.522.873 1.433 2.365 1.433 1.981 0 3.42-1.588 3.42-4.235 0-2.653-1.46-4.213-3.436-4.213-1.518 0-2.067.927-2.349 1.433h-.096V8.09h-1.593V19Zm1.561-4.09c0-1.71.746-2.845 2.136-2.845 1.443 0 2.168 1.22 2.168 2.844 0 1.64-.746 2.893-2.168 2.893-1.369 0-2.136-1.172-2.136-2.893Zm11.227 4.255c1.785 0 3.047-.879 3.409-2.21l-1.507-.272c-.288.772-.98 1.166-1.886 1.166-1.363 0-2.28-.884-2.322-2.46h5.817v-.565c0-2.957-1.769-4.112-3.623-4.112-2.279 0-3.782 1.736-3.782 4.25 0 2.541 1.481 4.203 3.894 4.203Zm-2.301-4.97c.064-1.16.906-2.168 2.2-2.168 1.236 0 2.046.917 2.051 2.168h-4.251Zm11.473-3.377h-1.764v-.735c0-.724.299-1.119 1.076-1.119.331 0 .565.075.714.123l.373-1.29a3.822 3.822 0 0 0-1.332-.217c-1.294 0-2.429.756-2.429 2.29v.948h-1.262v1.279h1.262V19h1.598v-6.903h1.764v-1.279Zm4.767 8.347c2.306 0 3.814-1.688 3.814-4.219 0-2.546-1.508-4.234-3.814-4.234-2.307 0-3.814 1.688-3.814 4.234 0 2.53 1.507 4.22 3.814 4.22Zm.005-1.337c-1.507 0-2.21-1.316-2.21-2.887 0-1.566.703-2.898 2.21-2.898 1.497 0 2.2 1.332 2.2 2.898 0 1.571-.703 2.887-2.2 2.887ZM306.989 19h1.592v-4.996c0-1.071.826-1.843 1.955-1.843.33 0 .703.058.831.095v-1.523a6.443 6.443 0 0 0-.676-.037c-.959 0-1.779.543-2.078 1.422h-.085v-1.3h-1.539V19Zm8.99.165c1.784 0 3.047-.879 3.409-2.21l-1.508-.272c-.287.772-.98 1.166-1.885 1.166-1.364 0-2.28-.884-2.323-2.46h5.817v-.565c0-2.957-1.768-4.112-3.622-4.112-2.28 0-3.782 1.736-3.782 4.25 0 2.541 1.481 4.203 3.894 4.203Zm-2.301-4.97c.064-1.16.905-2.168 2.2-2.168 1.235 0 2.045.917 2.05 2.168h-4.25Zm11.548 7.873h1.593v-4.341h.096c.287.522.873 1.433 2.365 1.433 1.981 0 3.419-1.588 3.419-4.235 0-2.653-1.459-4.213-3.435-4.213-1.519 0-2.067.927-2.349 1.433h-.134v-1.327h-1.555v11.25Zm1.561-7.159c0-1.71.745-2.844 2.136-2.844 1.443 0 2.168 1.22 2.168 2.844 0 1.64-.746 2.893-2.168 2.893-1.369 0-2.136-1.172-2.136-2.893ZM334.484 19h1.592v-4.996c0-1.071.826-1.843 1.955-1.843.331 0 .703.058.831.095v-1.523a6.428 6.428 0 0 0-.676-.037c-.959 0-1.779.543-2.078 1.422h-.085v-1.3h-1.539V19Zm8.91.165c2.306 0 3.814-1.688 3.814-4.219 0-2.546-1.508-4.234-3.814-4.234s-3.814 1.688-3.814 4.234c0 2.53 1.508 4.22 3.814 4.22Zm.005-1.337c-1.507 0-2.21-1.316-2.21-2.887 0-1.566.703-2.898 2.21-2.898 1.497 0 2.2 1.332 2.2 2.898 0 1.571-.703 2.887-2.2 2.887Zm9.481-7.01h-1.764v-.735c0-.724.299-1.119 1.076-1.119.331 0 .565.075.714.123l.373-1.29a3.822 3.822 0 0 0-1.332-.217c-1.294 0-2.429.756-2.429 2.29v.948h-1.262v1.279h1.262V19h1.598v-6.903h1.764v-1.279ZM354.523 19h1.593v-8.182h-1.593V19Zm.804-9.444c.549 0 1.007-.426 1.007-.948s-.458-.954-1.007-.954c-.554 0-1.007.432-1.007.954s.453.948 1.007.948Zm6.75 1.262H360.4v-1.96h-1.593v1.96h-1.199v1.279h1.199v4.83c-.006 1.487 1.129 2.206 2.386 2.18a3.058 3.058 0 0 0 1.034-.17l-.288-1.317c-.107.022-.304.07-.559.07-.517 0-.98-.17-.98-1.092v-4.501h1.677v-1.279Zm7.761 1.998c-.33-1.273-1.326-2.104-3.094-2.104-1.849 0-3.159.974-3.159 2.423 0 1.162.703 1.934 2.237 2.275l1.385.303c.788.176 1.156.528 1.156 1.04 0 .633-.677 1.128-1.721 1.128-.953 0-1.566-.41-1.757-1.214l-1.54.234c.267 1.45 1.47 2.264 3.308 2.264 1.976 0 3.345-1.05 3.345-2.53 0-1.156-.735-1.87-2.237-2.216l-1.3-.298c-.9-.213-1.289-.517-1.283-1.07-.006-.63.676-1.077 1.582-1.077.99 0 1.448.549 1.635 1.097l1.443-.255Zm12.012 0c-.33-1.273-1.326-2.104-3.095-2.104-1.848 0-3.158.974-3.158 2.423 0 1.162.703 1.934 2.237 2.275l1.385.303c.788.176 1.156.528 1.156 1.04 0 .633-.677 1.128-1.721 1.128-.953 0-1.566-.41-1.758-1.214l-1.539.234c.266 1.45 1.47 2.264 3.308 2.264 1.976 0 3.345-1.05 3.345-2.53 0-1.156-.735-1.87-2.237-2.216l-1.3-.298c-.9-.213-1.289-.517-1.284-1.07-.005-.63.677-1.077 1.582-1.077.991 0 1.449.549 1.636 1.097l1.443-.255ZM383.761 19h1.593v-8.182h-1.593V19Zm.804-9.444c.549 0 1.007-.426 1.007-.948s-.458-.954-1.007-.954c-.554 0-1.006.432-1.006.954s.452.948 1.006.948Zm4.524 4.586c0-1.305.799-2.05 1.907-2.05 1.081 0 1.737.708 1.737 1.896V19h1.592v-5.204c0-2.024-1.113-3.084-2.786-3.084-1.23 0-2.034.57-2.413 1.438h-.101v-1.332h-1.529V19h1.593v-4.858Zm10.819 5.023c1.933 0 3.185-1.161 3.361-2.754h-1.55c-.203.884-.89 1.406-1.801 1.406-1.347 0-2.216-1.123-2.216-2.908 0-1.752.885-2.855 2.216-2.855 1.012 0 1.63.64 1.801 1.406h1.55c-.171-1.651-1.518-2.748-3.377-2.748-2.307 0-3.798 1.736-3.798 4.234 0 2.467 1.438 4.22 3.814 4.22Zm8.59 0c1.785 0 3.047-.879 3.409-2.21l-1.507-.272c-.288.772-.98 1.166-1.886 1.166-1.363 0-2.28-.884-2.322-2.46h5.817v-.565c0-2.957-1.769-4.112-3.623-4.112-2.279 0-3.782 1.736-3.782 4.25 0 2.541 1.481 4.203 3.894 4.203Zm-2.301-4.97c.064-1.16.906-2.168 2.2-2.168 1.236 0 2.046.917 2.051 2.168h-4.251Zm15.666-6.104h-1.603l-2.722 1.779v1.577l2.61-1.705h.064V19h1.651V8.09Zm6.578-.15c-2.29-.02-3.787 1.625-3.787 3.692.006 2.083 1.513 3.585 3.404 3.585 1.156 0 2.147-.565 2.706-1.48h.085c-.005 2.508-.948 3.973-2.546 3.973-1.044 0-1.715-.64-1.928-1.571h-1.625c.24 1.763 1.603 3.01 3.553 3.01 2.536 0 4.123-2.18 4.123-5.999-.005-3.984-2.04-5.193-3.985-5.21Zm.006 1.386c1.262 0 2.194 1.07 2.194 2.269.006 1.214-.98 2.28-2.226 2.28-1.252 0-2.157-1.002-2.163-2.264 0-1.268.943-2.285 2.195-2.285Zm9.531-1.385c-2.291-.022-3.788 1.624-3.788 3.691.006 2.083 1.513 3.585 3.404 3.585 1.156 0 2.147-.565 2.706-1.48h.085c-.005 2.508-.948 3.973-2.546 3.973-1.044 0-1.715-.64-1.928-1.571h-1.625c.24 1.763 1.604 3.01 3.553 3.01 2.536 0 4.123-2.18 4.123-5.999-.005-3.984-2.04-5.193-3.984-5.21Zm.005 1.385c1.262 0 2.195 1.07 2.195 2.269.005 1.214-.981 2.28-2.227 2.28-1.252 0-2.157-1.002-2.163-2.264 0-1.268.943-2.285 2.195-2.285Zm9.589 9.822c2.27 0 3.873-1.289 3.884-3.057-.011-1.375-.975-2.53-2.195-2.749v-.064c1.06-.256 1.779-1.252 1.79-2.429-.011-1.667-1.481-2.908-3.479-2.908-2.018 0-3.489 1.24-3.478 2.908-.011 1.172.708 2.173 1.79 2.43v.063c-1.241.218-2.205 1.374-2.195 2.749-.01 1.768 1.593 3.057 3.883 3.057Zm0-1.348c-1.363 0-2.226-.724-2.216-1.816-.01-1.134.927-1.944 2.216-1.944 1.268 0 2.206.81 2.216 1.944-.01 1.092-.868 1.817-2.216 1.817Zm0-5.076c-1.102 0-1.885-.698-1.875-1.736-.01-1.023.746-1.7 1.875-1.7 1.108 0 1.865.677 1.875 1.7-.01 1.038-.788 1.736-1.875 1.736Z" fill="#fff"/><path fill-rule="evenodd" clip-rule="evenodd" d="M156.56 3.013H88.604v19.65h67.956V3.013ZM108.512 16.87h-1.09v-3.967c0-2.071-1.391-3.02-2.914-3.02-1.335 0-2.294.716-2.764 1.878-.414-1.278-1.542-1.878-2.764-1.878-1.185 0-2.069.562-2.576 1.49v-1.316H92.85v1.897h1.128v4.936H92.85v1.896h5.152V16.89h-1.617v-3.04c0-1.218.47-2.07 1.636-2.07.959 0 1.447.58 1.447 2.09v4.916h3.554V16.89h-1.128v-3.04c0-1.218.47-2.07 1.636-2.07.959 0 1.448.58 1.448 2.09v4.897h3.534V16.87Zm3.549-2.497c0 1.51.677 2.67 1.994 2.67 1.259 0 2.087-1.025 2.087-2.709 0-1.761-.922-2.555-2.069-2.555-1.241 0-2.012.949-2.012 2.594Zm-2.496.175c0-2.555 1.505-4.665 4.551-4.665 3.046 0 4.531 2.11 4.531 4.549 0 2.787-1.955 4.548-4.663 4.548-2.614 0-4.419-1.645-4.419-4.432Zm18.596 1.182-1.918-.194-.395 1.355h-2.745l4.701-5.516-.188-1.316h-7.427l-.301 3.058 1.748.194.376-1.355h2.651l-4.662 5.516.244 1.316h7.389l.527-3.058Zm4.324 3.056h-2.538v-3.135h2.538v3.135Zm0-5.592h-2.538V10.06h2.538v3.135Zm3.948 5.573L140.1 5.471h-2.388l-3.667 13.296h2.388Zm4.928 0 3.666-13.296h-2.388l-3.666 13.296h2.388Zm5.922-2.593c0 .561.263 1.007.997 1.007.864 0 1.786-.64 1.842-2.09-.395-.059-.827-.117-1.222-.117-.865 0-1.617.252-1.617 1.2Zm5.829 1.122c.113 0 .225-.02.357-.058l.056 1.335a3.2 3.2 0 0 1-1.522.407c-1.128 0-1.749-.678-1.862-1.742-.489.89-1.354 1.742-2.726 1.742-1.222 0-2.614-.678-2.614-2.497 0-2.148 2.012-2.651 3.949-2.651.47 0 .959.019 1.391.077v-.29c0-.89-.019-1.955-1.391-1.955-.508 0-.903.039-1.298.252l-.282.987-1.936-.213.3-2.013c1.486-.62 2.238-.794 3.629-.794 1.824 0 3.366.968 3.366 2.962v3.774c0 .503.188.677.583.677Z" fill="#fff"/></svg>