<svg width="26" height="28" viewBox="0 0 26 28" fill="none" xmlns="http://www.w3.org/2000/svg">
<g id="Group 9638">
<path id="Vector" d="M23.9585 6.1084L13.7726 0.299712C13.4148 0.103027 13.0141 0 12.607 0C12.1998 0 11.7991 0.103027 11.4413 0.299712L1.21952 6.1084C0.850505 6.31893 0.543234 6.62473 0.329016 6.99462C0.114799 7.36452 0.00129501 7.78529 7.15483e-05 8.21405V19.7951C-0.00323856 20.2248 0.108362 20.6474 0.323045 21.0181C0.537729 21.3888 0.847496 21.6938 1.21952 21.9008L11.4055 27.6732C11.7626 27.8907 12.1723 28.0037 12.589 27.9999C13.0052 27.9989 13.4136 27.8861 13.7726 27.6732L23.9585 21.9008C24.3276 21.6903 24.6348 21.3845 24.849 21.0146C25.0633 20.6447 25.1768 20.2239 25.178 19.7951V8.21405C25.1885 7.78296 25.08 7.35746 24.8645 6.98545C24.6491 6.61343 24.3353 6.30969 23.9585 6.1084Z" fill="#B933E1"/>
<path id="Vector_2" d="M5.48762 17.0363L4.8779 17.3993C4.7688 17.4605 4.67282 17.5431 4.59558 17.6422C4.51833 17.7413 4.46135 17.855 4.42797 17.9767C4.39458 18.0983 4.38546 18.2255 4.40113 18.3508C4.4168 18.476 4.45695 18.5969 4.51924 18.7063C4.59933 18.8579 4.7181 18.985 4.86317 19.0743C5.00825 19.1637 5.17433 19.2121 5.34416 19.2145C5.50557 19.2131 5.66472 19.176 5.81041 19.1056L6.42014 18.7426C6.52924 18.6814 6.62521 18.5988 6.70246 18.4997C6.77971 18.4005 6.83668 18.2868 6.87007 18.1652C6.90345 18.0435 6.91258 17.9164 6.8969 17.7911C6.88123 17.6658 6.84108 17.545 6.7788 17.4356C6.72341 17.3203 6.64512 17.2177 6.54884 17.1344C6.45254 17.051 6.34032 16.9887 6.21915 16.9512C6.09799 16.9137 5.9705 16.902 5.84463 16.9166C5.71877 16.9312 5.59724 16.972 5.48762 17.0363ZM9.21769 14.8943L7.96238 15.6204C7.85327 15.6816 7.7573 15.7642 7.68005 15.8633C7.6028 15.9624 7.54583 16.0761 7.51244 16.1978C7.47906 16.3194 7.46994 16.4466 7.48561 16.5719C7.50128 16.6971 7.54143 16.818 7.60371 16.9273C7.68381 17.0789 7.80257 17.206 7.94765 17.2954C8.09272 17.3848 8.25881 17.4332 8.42863 17.4356C8.59005 17.4342 8.7492 17.397 8.89489 17.3267L10.1502 16.6006C10.2593 16.5394 10.3553 16.4568 10.4325 16.3577C10.5098 16.2586 10.5667 16.1449 10.6001 16.0232C10.6335 15.9016 10.6426 15.7744 10.627 15.6491C10.6113 15.5239 10.5711 15.403 10.5089 15.2936C10.4535 15.1783 10.3752 15.0758 10.2789 14.9924C10.1826 14.9091 10.0704 14.8467 9.94922 14.8093C9.82806 14.7718 9.70056 14.76 9.5747 14.7746C9.44883 14.7893 9.3273 14.83 9.21769 14.8943ZM13.7727 5.38257C13.7746 4.85881 13.3366 4.40034 12.8043 4.40235C12.2846 4.40405 11.854 4.86125 11.8718 5.38257C11.8718 11.6109 11.8718 16.409 11.8718 22.5908C11.8718 23.1197 12.3077 23.571 12.8402 23.571C13.3726 23.571 13.8085 23.1197 13.8085 22.5908C13.8085 16.4613 13.7727 11.4784 13.7727 5.38257ZM16.7173 10.6104L15.462 11.3365C15.3529 11.3977 15.2569 11.4802 15.1796 11.5794C15.1024 11.6785 15.0454 11.7922 15.012 11.9139C14.9786 12.0355 14.9695 12.1627 14.9852 12.2879C15.0009 12.4132 15.041 12.534 15.1033 12.6434C15.1834 12.795 15.3022 12.9221 15.4472 13.0115C15.5923 13.1009 15.7584 13.1493 15.9282 13.1517C16.0896 13.1503 16.2488 13.1131 16.3945 13.0428L17.6498 12.3167C17.7589 12.2555 17.8549 12.1729 17.9321 12.0738C18.0094 11.9747 18.0663 11.861 18.0997 11.7393C18.1331 11.6177 18.1422 11.4905 18.1265 11.3652C18.1109 11.24 18.0707 11.1191 18.0084 11.0097C17.9531 10.8944 17.8748 10.7919 17.7785 10.7085C17.6822 10.6252 17.57 10.5628 17.4488 10.5254C17.3276 10.4879 17.2001 10.4761 17.0743 10.4907C16.9484 10.5054 16.8269 10.5461 16.7173 10.6104ZM19.6906 10.9734C19.852 10.972 20.0111 10.9349 20.1568 10.8645L20.7665 10.5015C20.8755 10.4398 20.9714 10.357 21.0486 10.2578C21.1259 10.1585 21.183 10.0448 21.2167 9.92314C21.2504 9.80148 21.26 9.67429 21.245 9.54885C21.23 9.42342 21.1906 9.30222 21.1292 9.19223C21.0678 9.08223 20.9855 8.98561 20.8871 8.9079C20.7887 8.83019 20.676 8.77292 20.5557 8.7394C20.4353 8.70588 20.3096 8.69676 20.1858 8.71256C20.0619 8.72836 19.9424 8.76878 19.834 8.83148L19.2243 9.19452C19.1152 9.25572 19.0192 9.33829 18.942 9.43742C18.8647 9.53656 18.8078 9.65026 18.7744 9.77191C18.741 9.89357 18.7319 10.0207 18.7475 10.146C18.7632 10.2712 18.8034 10.3921 18.8656 10.5015C18.9478 10.6486 19.068 10.7703 19.2133 10.8535C19.3587 10.9367 19.5237 10.9781 19.6906 10.9734ZM20.7665 17.3993L20.1568 17.0363C19.9381 16.9126 19.6799 16.8815 19.4387 16.95C19.1975 17.0185 18.9929 17.1808 18.8696 17.4016C18.7464 17.6223 18.7145 17.8835 18.7809 18.128C18.8474 18.3725 19.0068 18.5804 19.2243 18.7063L19.834 19.0693C19.9797 19.1397 20.1389 19.1768 20.3003 19.1782C20.4701 19.1758 20.6362 19.1274 20.7813 19.038C20.9263 18.9486 21.0451 18.8215 21.1252 18.67C21.1894 18.564 21.2311 18.4458 21.2477 18.3227C21.2644 18.1996 21.2555 18.0743 21.2218 17.9548C21.1881 17.8354 21.1302 17.7243 21.0518 17.6286C20.9735 17.533 20.8763 17.4549 20.7665 17.3993ZM17.6462 15.6204L16.3909 14.8943C16.2825 14.8316 16.163 14.7912 16.0391 14.7754C15.9153 14.7596 15.7896 14.7687 15.6692 14.8022C15.5489 14.8357 15.4363 14.893 15.3378 14.9707C15.2394 15.0484 15.1571 15.1451 15.0957 15.2551C15.0343 15.365 14.9949 15.4862 14.9799 15.6117C14.9649 15.7371 14.9745 15.8643 15.0082 15.986C15.0419 16.1076 15.0991 16.2213 15.1763 16.3206C15.2535 16.4198 15.3494 16.5027 15.4584 16.5643L16.7137 17.2904C16.8594 17.3607 17.0185 17.3979 17.1799 17.3993C17.3498 17.3969 17.5158 17.3485 17.6609 17.2591C17.806 17.1697 17.9248 17.0426 18.0049 16.891C18.0701 16.7854 18.1128 16.6671 18.13 16.5437C18.1472 16.4204 18.1386 16.2947 18.1048 16.1749C18.071 16.0551 18.0127 15.9439 17.9337 15.8484C17.8547 15.7528 17.7567 15.6752 17.6462 15.6204ZM7.96238 12.2804L9.21769 13.0065C9.36338 13.0768 9.52253 13.114 9.68394 13.1154C9.85376 13.113 10.0199 13.0646 10.1649 12.9752C10.31 12.8858 10.4288 12.7587 10.5089 12.6071C10.5711 12.4977 10.6113 12.3769 10.627 12.2516C10.6426 12.1264 10.6335 11.9992 10.6001 11.8776C10.5667 11.7559 10.5098 11.6422 10.4325 11.5431C10.3553 11.4439 10.2593 11.3614 10.1502 11.3002L8.89489 10.5741C8.78682 10.511 8.66744 10.4704 8.54369 10.4545C8.41995 10.4387 8.29432 10.4479 8.17414 10.4817C8.05395 10.5155 7.94162 10.5732 7.84368 10.6514C7.74575 10.7295 7.66417 10.8267 7.60371 10.9371C7.48357 11.1652 7.45378 11.4311 7.52041 11.6806C7.58703 11.9301 7.74507 12.1446 7.96238 12.2804ZM6.42014 9.19452L5.81041 8.83148C5.70205 8.76878 5.58251 8.72836 5.45866 8.71256C5.33482 8.69676 5.20911 8.70588 5.08876 8.7394C4.96841 8.77292 4.85578 8.83019 4.75736 8.9079C4.65894 8.98561 4.57665 9.08223 4.51523 9.19223C4.45381 9.30222 4.41446 9.42342 4.39945 9.54885C4.38444 9.67429 4.39407 9.80148 4.42777 9.92314C4.46146 10.0448 4.51858 10.1585 4.59583 10.2578C4.67308 10.357 4.76893 10.4398 4.8779 10.5015L5.48762 10.8645C5.63331 10.9349 5.79246 10.972 5.95388 10.9734C6.1237 10.971 6.28979 10.9226 6.43486 10.8333C6.57994 10.7439 6.6987 10.6168 6.7788 10.4652C6.83982 10.3584 6.87899 10.2403 6.89395 10.118C6.90892 9.99556 6.89938 9.87137 6.86591 9.75279C6.83244 9.63421 6.77572 9.52367 6.69913 9.42775C6.62255 9.33184 6.52766 9.25252 6.42014 9.19452Z" fill="#F0F0F4"/>
</g>
</svg>
