<svg width="26" height="29" viewBox="0 0 26 29" fill="none" xmlns="http://www.w3.org/2000/svg">
<g id="Group 9638">
<path id="Vector" d="M23.9585 6.49317L13.7726 0.684477C13.4148 0.487793 13.0141 0.384766 12.607 0.384766C12.1998 0.384766 11.7991 0.487793 11.4413 0.684477L1.21952 6.49317C0.850505 6.7037 0.543234 7.00949 0.329016 7.37939C0.114799 7.74928 0.00129501 8.17005 7.15483e-05 8.59882V20.1799C-0.00323856 20.6096 0.108362 21.0322 0.323045 21.4029C0.537729 21.7736 0.847496 22.0786 1.21952 22.2855L11.4055 28.0579C11.7626 28.2754 12.1723 28.3885 12.589 28.3847C13.0052 28.3836 13.4136 28.2709 13.7726 28.0579L23.9585 22.2855C24.3276 22.075 24.6348 21.7692 24.849 21.3993C25.0633 21.0294 25.1768 20.6087 25.178 20.1799V8.59882C25.1885 8.16773 25.08 7.74223 24.8645 7.37021C24.6491 6.9982 24.3353 6.69445 23.9585 6.49317Z" fill="white"/>
<path id="Vector_2" d="M5.48762 17.421L4.8779 17.7841C4.7688 17.8453 4.67282 17.9278 4.59558 18.027C4.51833 18.1261 4.46135 18.2398 4.42797 18.3615C4.39458 18.4831 4.38546 18.6103 4.40113 18.7355C4.4168 18.8608 4.45695 18.9816 4.51924 19.091C4.59933 19.2426 4.7181 19.3697 4.86317 19.4591C5.00825 19.5485 5.17433 19.5969 5.34416 19.5993C5.50557 19.5979 5.66472 19.5607 5.81041 19.4904L6.42014 19.1273C6.52924 19.0661 6.62521 18.9836 6.70246 18.8844C6.77971 18.7853 6.83668 18.6716 6.87007 18.5499C6.90345 18.4283 6.91258 18.3011 6.8969 18.1759C6.88123 18.0506 6.84108 17.9298 6.7788 17.8204C6.72341 17.705 6.64512 17.6025 6.54884 17.5192C6.45254 17.4358 6.34032 17.3735 6.21915 17.336C6.09799 17.2985 5.9705 17.2867 5.84463 17.3014C5.71877 17.316 5.59724 17.3567 5.48762 17.421ZM9.21769 15.2791L7.96238 16.0052C7.85327 16.0664 7.7573 16.1489 7.68005 16.2481C7.6028 16.3472 7.54583 16.4609 7.51244 16.5825C7.47906 16.7042 7.46994 16.8314 7.48561 16.9566C7.50128 17.0819 7.54143 17.2027 7.60371 17.3121C7.68381 17.4637 7.80257 17.5908 7.94765 17.6802C8.09272 17.7696 8.25881 17.818 8.42863 17.8204C8.59005 17.819 8.7492 17.7818 8.89489 17.7115L10.1502 16.9854C10.2593 16.9242 10.3553 16.8416 10.4325 16.7425C10.5098 16.6433 10.5667 16.5296 10.6001 16.408C10.6335 16.2863 10.6426 16.1592 10.627 16.0339C10.6113 15.9086 10.5711 15.7878 10.5089 15.6784C10.4535 15.5631 10.3752 15.4605 10.2789 15.3772C10.1826 15.2939 10.0704 15.2315 9.94922 15.194C9.82806 15.1566 9.70056 15.1448 9.5747 15.1594C9.44883 15.174 9.3273 15.2148 9.21769 15.2791ZM13.7727 5.76733C13.7746 5.24357 13.3366 4.78511 12.8043 4.78712C12.2846 4.78882 11.854 5.24602 11.8718 5.76733C11.8718 11.9957 11.8718 16.7938 11.8718 22.9756C11.8718 23.5045 12.3077 23.9558 12.8402 23.9558C13.3726 23.9558 13.8085 23.5045 13.8085 22.9756C13.8085 16.846 13.7727 11.8632 13.7727 5.76733ZM16.7173 10.9952L15.462 11.7212C15.3529 11.7824 15.2569 11.865 15.1796 11.9641C15.1024 12.0633 15.0454 12.177 15.012 12.2986C14.9786 12.4203 14.9695 12.5474 14.9852 12.6727C15.0009 12.798 15.041 12.9188 15.1033 13.0282C15.1834 13.1798 15.3022 13.3069 15.4472 13.3963C15.5923 13.4857 15.7584 13.5341 15.9282 13.5365C16.0896 13.5351 16.2488 13.4979 16.3945 13.4275L17.6498 12.7015C17.7589 12.6403 17.8549 12.5577 17.9321 12.4586C18.0094 12.3594 18.0663 12.2457 18.0997 12.1241C18.1331 12.0024 18.1422 11.8753 18.1265 11.75C18.1109 11.6247 18.0707 11.5039 18.0084 11.3945C17.9531 11.2792 17.8748 11.1766 17.7785 11.0933C17.6822 11.0099 17.57 10.9476 17.4488 10.9101C17.3276 10.8726 17.2001 10.8609 17.0743 10.8755C16.9484 10.8901 16.8269 10.9309 16.7173 10.9952ZM19.6906 11.3582C19.852 11.3568 20.0111 11.3196 20.1568 11.2493L20.7665 10.8862C20.8755 10.8246 20.9714 10.7418 21.0486 10.6425C21.1259 10.5433 21.183 10.4296 21.2167 10.3079C21.2504 10.1863 21.26 10.0591 21.245 9.93362C21.23 9.80819 21.1906 9.68699 21.1292 9.57699C21.0678 9.467 20.9855 9.37037 20.8871 9.29266C20.7887 9.21495 20.676 9.15769 20.5557 9.12417C20.4353 9.09065 20.3096 9.08153 20.1858 9.09733C20.0619 9.11313 19.9424 9.15354 19.834 9.21624L19.2243 9.57929C19.1152 9.64049 19.0192 9.72306 18.942 9.82219C18.8647 9.92132 18.8078 10.035 18.7744 10.1567C18.741 10.2783 18.7319 10.4055 18.7475 10.5308C18.7632 10.656 18.8034 10.7769 18.8656 10.8862C18.9478 11.0334 19.068 11.1551 19.2133 11.2383C19.3587 11.3214 19.5237 11.3629 19.6906 11.3582ZM20.7665 17.7841L20.1568 17.421C19.9381 17.2973 19.6799 17.2663 19.4387 17.3348C19.1975 17.4032 18.9929 17.5656 18.8696 17.7863C18.7464 18.0071 18.7145 18.2683 18.7809 18.5128C18.8474 18.7573 19.0068 18.9652 19.2243 19.091L19.834 19.4541C19.9797 19.5244 20.1389 19.5616 20.3003 19.563C20.4701 19.5606 20.6362 19.5122 20.7813 19.4228C20.9263 19.3334 21.0451 19.2063 21.1252 19.0547C21.1894 18.9488 21.2311 18.8305 21.2477 18.7074C21.2644 18.5843 21.2555 18.4591 21.2218 18.3396C21.1881 18.2201 21.1302 18.109 21.0518 18.0134C20.9735 17.9178 20.8763 17.8397 20.7665 17.7841ZM17.6462 16.0052L16.3909 15.2791C16.2825 15.2164 16.163 15.176 16.0391 15.1601C15.9153 15.1443 15.7896 15.1535 15.6692 15.187C15.5489 15.2205 15.4363 15.2778 15.3378 15.3555C15.2394 15.4332 15.1571 15.5298 15.0957 15.6398C15.0343 15.7498 14.9949 15.871 14.9799 15.9964C14.9649 16.1219 14.9745 16.2491 15.0082 16.3707C15.0419 16.4924 15.0991 16.6061 15.1763 16.7054C15.2535 16.8046 15.3494 16.8874 15.4584 16.9491L16.7137 17.6752C16.8594 17.7455 17.0185 17.7827 17.1799 17.7841C17.3498 17.7817 17.5158 17.7333 17.6609 17.6439C17.806 17.5545 17.9248 17.4274 18.0049 17.2758C18.0701 17.1702 18.1128 17.0519 18.13 16.9285C18.1472 16.8051 18.1386 16.6795 18.1048 16.5597C18.071 16.4399 18.0127 16.3286 17.9337 16.2331C17.8547 16.1376 17.7567 16.0599 17.6462 16.0052ZM7.96238 12.6652L9.21769 13.3912C9.36338 13.4616 9.52253 13.4988 9.68394 13.5002C9.85376 13.4978 10.0199 13.4494 10.1649 13.36C10.31 13.2706 10.4288 13.1435 10.5089 12.9919C10.5711 12.8825 10.6113 12.7617 10.627 12.6364C10.6426 12.5111 10.6335 12.384 10.6001 12.2623C10.5667 12.1407 10.5098 12.027 10.4325 11.9278C10.3553 11.8287 10.2593 11.7461 10.1502 11.6849L8.89489 10.9589C8.78682 10.8958 8.66744 10.8552 8.54369 10.8393C8.41995 10.8234 8.29432 10.8327 8.17414 10.8665C8.05395 10.9003 7.94162 10.9579 7.84368 11.0361C7.74575 11.1143 7.66417 11.2115 7.60371 11.3219C7.48357 11.55 7.45378 11.8158 7.52041 12.0654C7.58703 12.3149 7.74507 12.5294 7.96238 12.6652ZM6.42014 9.57929L5.81041 9.21624C5.70205 9.15354 5.58251 9.11313 5.45866 9.09733C5.33482 9.08153 5.20911 9.09065 5.08876 9.12417C4.96841 9.15769 4.85578 9.21495 4.75736 9.29266C4.65894 9.37037 4.57665 9.467 4.51523 9.57699C4.45381 9.68699 4.41446 9.80819 4.39945 9.93362C4.38444 10.0591 4.39407 10.1863 4.42777 10.3079C4.46146 10.4296 4.51858 10.5433 4.59583 10.6425C4.67308 10.7418 4.76893 10.8246 4.8779 10.8862L5.48762 11.2493C5.63331 11.3196 5.79246 11.3568 5.95388 11.3582C6.1237 11.3558 6.28979 11.3074 6.43486 11.218C6.57994 11.1286 6.6987 11.0015 6.7788 10.8499C6.83982 10.7432 6.87899 10.6251 6.89395 10.5027C6.90892 10.3803 6.89938 10.2561 6.86591 10.1376C6.83244 10.019 6.77572 9.90843 6.69913 9.81252C6.62255 9.7166 6.52766 9.63728 6.42014 9.57929Z" fill="#B933E1"/>
</g>
</svg>
