<svg xmlns="http://www.w3.org/2000/svg" width="600" height="450" fill="none" viewBox="0 0 600 450"><rect width="600" height="450" fill="#ECDFFF" rx="15"/><g filter="url(#a)"><g clip-path="url(#b)"><rect width="507.821" height="358.053" x="46" y="46" fill="#fff" rx="5.951"/><path fill="#C9C3D2" d="M40.05 42.033h525.673v28.763H40.05z"/><circle cx="57.364" cy="57.365" r="3.099" fill="#592ACB"/><circle cx="67.696" cy="57.365" r="3.099" fill="#592ACB"/><circle cx="78.028" cy="57.365" r="3.099" fill="#592ACB"/><path fill="#0C0C0D" d="M99.775 247.394c-3.909 0-7.391-1.314-10.02-3.745l2.793-3.318c2.135 1.84 4.567 2.957 7.425 2.957 2.431 0 3.679-1.117 3.679-2.53 0-1.61-1.314-2.102-4.764-2.891-4.763-1.084-8.147-2.431-8.147-6.8 0-4.172 3.417-7.031 8.345-7.031 3.679 0 6.537 1.15 8.837 3.121l-2.53 3.483c-2.004-1.61-4.271-2.497-6.439-2.497-2.07 0-3.318 1.084-3.318 2.431 0 1.643 1.347 2.168 4.829 2.957 4.862 1.084 8.082 2.529 8.082 6.701 0 4.304-3.252 7.162-8.772 7.162Zm20.428 0c-5.026 0-9.264-4.073-9.264-8.903 0-4.829 4.271-8.87 9.297-8.87 2.76 0 5.027 1.117 6.669 2.891l-3.187 2.727c-.854-.953-2.201-1.577-3.515-1.577-2.496 0-4.599 2.201-4.599 4.796 0 2.661 2.103 4.895 4.632 4.895 1.314 0 2.694-.657 3.581-1.642l3.187 2.694c-1.676 1.839-3.975 2.989-6.801 2.989Zm17.276-17.773c4.435 0 7.457 2.793 7.457 7.228V247h-4.632v-1.708c-1.216 1.379-3.154 2.102-4.994 2.102-3.613 0-6.406-2.168-6.406-5.42 0-3.351 3.121-5.651 7.063-5.651 1.38 0 2.891.296 4.337.854v-.328c0-1.807-1.117-3.384-3.909-3.384-1.577 0-3.056.526-4.403 1.215l-1.609-3.186c2.398-1.216 4.73-1.873 7.096-1.873Zm-1.084 14.455c1.839 0 3.58-.854 3.909-2.431v-1.577a10.752 10.752 0 0 0-3.647-.624c-1.741 0-3.121 1.018-3.121 2.398 0 1.38 1.216 2.234 2.859 2.234Zm22.406-14.455c3.68 0 6.308 2.727 6.308 6.571V247h-4.632v-9.79c0-2.102-1.314-3.548-3.22-3.548-2.004 0-3.548 1.446-3.548 3.285l-.032-.098V247h-4.797v-16.985h4.797v2.136c1.018-1.544 2.923-2.53 5.124-2.53Zm16.731 17.773c-2.727 0-5.618-.92-7.655-2.562l2.07-3.318c1.511 1.084 3.416 1.905 5.683 1.905 1.281 0 2.201-.526 2.201-1.281 0-1.051-1.248-1.38-2.989-1.84-3.483-.854-6.176-1.807-6.209-5.158-.033-3.219 2.628-5.519 6.636-5.519 2.431 0 4.829.854 6.702 2.103l-1.939 3.416c-1.544-.952-3.318-1.511-4.763-1.511-1.183 0-2.004.427-2.004 1.019 0 .919.69 1.182 2.989 1.806 2.924.756 6.177 1.742 6.177 5.454 0 3.351-2.727 5.486-6.899 5.486Zm12.515-19.711a2.615 2.615 0 0 1-2.628-2.628c0-1.347 1.149-2.563 2.628-2.563 1.412 0 2.562 1.216 2.562 2.563 0 1.445-1.15 2.628-2.562 2.628ZM185.616 247v-16.985h4.796V247h-4.796Zm17.328.394c-5.059 0-9.297-4.073-9.297-8.903 0-4.829 4.238-8.87 9.297-8.87 5.026 0 9.231 4.041 9.231 8.87 0 4.83-4.205 8.903-9.231 8.903Zm0-4.041c2.529 0 4.665-2.234 4.665-4.862s-2.136-4.829-4.665-4.829c-2.563 0-4.698 2.201-4.698 4.829 0 2.628 2.135 4.862 4.698 4.862Zm22.3-13.732c3.679 0 6.307 2.727 6.307 6.571V247h-4.632v-9.79c0-2.102-1.314-3.548-3.22-3.548-2.004 0-3.548 1.446-3.548 3.285l-.032-.098V247h-4.797v-16.985h4.797v2.136c1.018-1.544 2.923-2.53 5.125-2.53Zm18.372 13.535c1.347 0 2.99-.624 3.91-1.511l3.055 3.121c-1.511 1.577-4.435 2.628-6.932 2.628-5.059 0-9.001-3.712-9.001-8.936 0-5.124 3.778-8.837 8.738-8.837 5.322 0 8.443 4.041 8.443 10.447h-12.253c.558 1.84 2.036 3.088 4.04 3.088Zm-.033-9.297c-1.806 0-3.318 1.051-3.942 2.76h7.589c-.46-1.676-1.708-2.76-3.647-2.76ZM96.786 282l-7.359-16.985h5.026l4.567 11.466 4.468-11.466h4.993L101.221 282h-4.435Zm25.508-16.985h4.796V282h-4.796v-2.135c-1.019 1.544-2.924 2.529-5.125 2.529-3.68 0-6.308-2.726-6.308-6.57v-10.809h4.632v9.79c0 2.103 1.314 3.548 3.22 3.548 2.004 0 3.548-1.445 3.548-3.285l.033.099v-10.152ZM131.205 282v-22.964h4.797V282h-4.797Zm18.806-17.379c3.679 0 6.308 2.727 6.308 6.571V282h-4.633v-9.79c0-2.102-1.314-3.548-3.219-3.548-2.004 0-3.548 1.446-3.548 3.285l-.033-.098V282h-4.796v-16.985h4.796v2.136c1.018-1.544 2.924-2.53 5.125-2.53Zm18.373 13.535c1.347 0 2.989-.624 3.909-1.511l3.055 3.121c-1.511 1.577-4.435 2.628-6.931 2.628-5.06 0-9.002-3.712-9.002-8.936 0-5.124 3.778-8.837 8.739-8.837 5.322 0 8.443 4.041 8.443 10.447h-12.254c.558 1.84 2.037 3.088 4.041 3.088Zm-.033-9.297c-1.807 0-3.318 1.051-3.942 2.76h7.588c-.459-1.676-1.708-2.76-3.646-2.76Zm16.287-.69c1.117-2.201 3.22-3.548 5.815-3.548v4.041c-3.548 0-5.815 2.037-5.815 5.224V282h-4.796v-16.985h4.796v3.154Zm16.171-3.548c4.435 0 7.457 2.793 7.457 7.228V282h-4.632v-1.708c-1.215 1.379-3.154 2.102-4.993 2.102-3.614 0-6.407-2.168-6.407-5.42 0-3.351 3.121-5.651 7.064-5.651 1.379 0 2.891.296 4.336.854v-.328c0-1.807-1.117-3.384-3.909-3.384-1.577 0-3.056.526-4.403 1.215l-1.609-3.186c2.398-1.216 4.73-1.873 7.096-1.873Zm-1.084 14.455c1.839 0 3.581-.854 3.909-2.431v-1.577a10.748 10.748 0 0 0-3.647-.624c-1.741 0-3.12 1.018-3.12 2.398 0 1.38 1.215 2.234 2.858 2.234Zm23.064-14.455c4.533 0 7.818 3.68 7.818 8.87 0 5.224-3.285 8.903-7.818 8.903-2.366 0-4.337-1.018-5.684-2.792V282h-4.796v-22.964h4.796v8.345c1.347-1.741 3.318-2.76 5.684-2.76Zm-1.38 13.732c2.661 0 4.533-2.004 4.533-4.862 0-2.825-1.872-4.829-4.533-4.829-2.333 0-4.041 1.708-4.304 4.172v1.314c.263 2.497 1.971 4.205 4.304 4.205Zm14.985-15.67a2.615 2.615 0 0 1-2.628-2.628c0-1.347 1.15-2.563 2.628-2.563 1.413 0 2.563 1.216 2.563 2.563 0 1.445-1.15 2.628-2.563 2.628ZM233.963 282v-16.985h4.797V282h-4.797Zm8.984 0v-22.964h4.797V282h-4.797Zm11.381-19.317a2.615 2.615 0 0 1-2.628-2.628c0-1.347 1.15-2.563 2.628-2.563 1.413 0 2.563 1.216 2.563 2.563 0 1.445-1.15 2.628-2.563 2.628ZM251.897 282v-16.985h4.797V282h-4.797Zm17.92-4.205 1.15 3.121c-.986.887-2.53 1.478-3.91 1.478-2.989 0-5.092-2.135-5.092-5.19v-8.312h-2.332v-3.877h2.332v-4.665h4.6v4.665h3.679v3.877h-3.679v7.556c0 1.117.722 1.905 1.609 1.905.657 0 1.314-.23 1.643-.558Zm14.995-14.685h-3.253l-4.862-4.336 4.304-.789 3.811 5.125Zm-3.253 1.511c4.435 0 7.458 2.793 7.458 7.228V282h-4.632v-1.708c-1.216 1.379-3.154 2.102-4.994 2.102-3.614 0-6.406-2.168-6.406-5.42 0-3.351 3.121-5.651 7.063-5.651 1.38 0 2.891.296 4.337.854v-.328c0-1.807-1.117-3.384-3.91-3.384-1.577 0-3.055.526-4.402 1.215l-1.61-3.186c2.399-1.216 4.731-1.873 7.096-1.873Zm-1.084 14.455c1.84 0 3.581-.854 3.91-2.431v-1.577a10.752 10.752 0 0 0-3.647-.624c-1.741 0-3.121 1.018-3.121 2.398 0 1.38 1.216 2.234 2.858 2.234Zm24.158-16.393a2.615 2.615 0 0 1-2.628-2.628c0-1.347 1.15-2.563 2.628-2.563 1.413 0 2.563 1.216 2.563 2.563 0 1.445-1.15 2.628-2.563 2.628ZM302.202 282v-16.985h4.797V282h-4.797Zm18.807-17.379c3.679 0 6.307 2.727 6.307 6.571V282h-4.632v-9.79c0-2.102-1.314-3.548-3.219-3.548-2.004 0-3.548 1.446-3.548 3.285l-.033-.098V282h-4.797v-16.985h4.797v2.136c1.018-1.544 2.924-2.53 5.125-2.53Zm27.844 17.773c-5.027 0-9.265-4.073-9.265-8.903 0-4.829 4.271-8.87 9.297-8.87 2.76 0 5.027 1.117 6.669 2.891l-3.186 2.727c-.854-.953-2.201-1.577-3.515-1.577-2.497 0-4.6 2.201-4.6 4.796 0 2.661 2.103 4.895 4.632 4.895 1.315 0 2.694-.657 3.581-1.642l3.187 2.694c-1.675 1.839-3.975 2.989-6.8 2.989Zm17.678 0c-5.06 0-9.298-4.073-9.298-8.903 0-4.829 4.238-8.87 9.298-8.87 5.026 0 9.231 4.041 9.231 8.87 0 4.83-4.205 8.903-9.231 8.903Zm0-4.041c2.529 0 4.665-2.234 4.665-4.862s-2.136-4.829-4.665-4.829c-2.563 0-4.698 2.201-4.698 4.829 0 2.628 2.135 4.862 4.698 4.862Zm17.273-10.184c1.117-2.201 3.219-3.548 5.815-3.548v4.041c-3.548 0-5.815 2.037-5.815 5.224V282h-4.797v-16.985h4.797v3.154Zm14.955 14.225c-2.727 0-5.618-.92-7.655-2.562l2.07-3.318c1.511 1.084 3.417 1.905 5.684 1.905 1.281 0 2.201-.526 2.201-1.281 0-1.051-1.249-1.38-2.99-1.84-3.482-.854-6.176-1.807-6.209-5.158-.033-3.219 2.628-5.519 6.636-5.519 2.431 0 4.829.854 6.702 2.103l-1.938 3.416c-1.544-.952-3.318-1.511-4.764-1.511-1.182 0-2.004.427-2.004 1.019 0 .919.69 1.182 2.99 1.806 2.924.756 6.176 1.742 6.176 5.454 0 3.351-2.727 5.486-6.899 5.486Zm18.461 0c-5.059 0-9.297-4.073-9.297-8.903 0-4.829 4.238-8.87 9.297-8.87 5.027 0 9.232 4.041 9.232 8.87 0 4.83-4.205 8.903-9.232 8.903Zm0-4.041c2.53 0 4.665-2.234 4.665-4.862s-2.135-4.829-4.665-4.829c-2.562 0-4.698 2.201-4.698 4.829 0 2.628 2.136 4.862 4.698 4.862Zm15.204 4.041a3.05 3.05 0 0 1-3.055-3.055c0-1.544 1.347-2.924 3.055-2.924 1.61 0 2.924 1.38 2.924 2.924 0 1.675-1.314 3.055-2.924 3.055Zm9.528 0a3.05 3.05 0 0 1-3.055-3.055c0-1.544 1.347-2.924 3.055-2.924 1.61 0 2.924 1.38 2.924 2.924 0 1.675-1.314 3.055-2.924 3.055Zm9.529 0a3.05 3.05 0 0 1-3.056-3.055c0-1.544 1.347-2.924 3.056-2.924 1.609 0 2.924 1.38 2.924 2.924 0 1.675-1.315 3.055-2.924 3.055Z"/><rect width="423.385" height="44.63" x="89.424" y="320.895" fill="#EAEAEA" rx="22.315"/><rect width="91.006" height="44.784" x="88.218" y="320.895" fill="url(#c)" rx="22.392"/><path fill="#fff" d="M115.607 340.349c2.844 0 5.195 1.836 5.195 4.882 0 3.157-2.53 5.329-5.889 5.329-4.501 0-6.539-3.224-6.539-7.703 0-4.792 2.799-8.218 7.054-8.218 1.926 0 3.471.65 4.725 1.657l-1.568 2.508c-.94-.784-1.858-1.254-3.135-1.254-1.993 0-3.358 1.657-3.65 4.255.963-.918 2.352-1.456 3.807-1.456Zm-.873 7.412c1.634 0 2.665-1.142 2.665-2.374 0-1.477-1.254-2.351-2.755-2.351-1.276 0-2.306.694-2.754 1.792.291 1.881 1.12 2.933 2.844 2.933Zm11.724-5.128c-2.284 0-3.829-1.724-3.829-3.918 0-2.217 1.545-3.964 3.851-3.964 2.329 0 3.829 1.769 3.829 3.941 0 2.217-1.567 3.941-3.851 3.941Zm-1.814 7.658 10.704-15.383h2.373l-10.703 15.383h-2.374Zm1.836-9.584c.941 0 1.635-.783 1.635-2.015 0-1.187-.694-1.993-1.657-1.993-.941 0-1.612.784-1.612 1.993s.716 2.015 1.634 2.015Zm9.383 9.831c-2.307 0-3.852-1.747-3.852-3.941 0-2.195 1.568-3.941 3.852-3.941 2.306 0 3.829 1.769 3.829 3.941 0 2.216-1.59 3.941-3.829 3.941Zm0-1.949c.962 0 1.634-.783 1.634-1.992 0-1.21-.716-2.016-1.634-2.016-.986 0-1.657.784-1.657 2.016 0 1.186.694 1.992 1.657 1.992Z"/><rect width="27.776" height="27.776" x="164.232" y="131.895" fill="#592ACB" rx="13.888"/><path fill="#fff" d="M175.798 152.738c-.308 0-.603-.122-.82-.34l-3.477-3.477a1.158 1.158 0 0 1 .824-1.964 1.16 1.16 0 0 1 .815.325l2.5 2.5 7.321-10.458a1.158 1.158 0 0 1 2.084.466c.054.3-.012.61-.184.862l-8.114 11.591a1.162 1.162 0 0 1-.849.495.834.834 0 0 1-.1 0Z"/><path fill="#D9BFFF" d="M192.008 144.046h83.328v3.472h-83.328z"/><rect width="27.776" height="27.776" x="275.336" y="131.895" fill="#592ACB" rx="13.888"/><path fill="#fff" d="M286.901 152.738a1.16 1.16 0 0 1-.82-.34l-3.477-3.477a1.158 1.158 0 0 1 .824-1.964c.304-.003.597.114.815.325l2.5 2.5 7.321-10.458a1.16 1.16 0 0 1 1.9 1.328l-8.114 11.591a1.15 1.15 0 0 1-.848.495.85.85 0 0 1-.101 0Z"/><path fill="#D9BFFF" d="M303.111 144.046h41.664v3.472h-41.664zM344.775 144.046h39.06v3.472h-39.06z"/><rect width="31.248" height="31.248" x="382.099" y="130.159" fill="#592ACB" rx="15.624"/><path fill="#fff" d="m404.423 151.257-4.179-4.179a5.215 5.215 0 1 0-1.225 1.226l4.178 4.179a.866.866 0 0 0 1.226-1.226Zm-8.412-3.72a3.465 3.465 0 0 1-3.4-4.143 3.461 3.461 0 0 1 2.723-2.723 3.459 3.459 0 0 1 3.559 1.474 3.464 3.464 0 0 1-.431 4.377 3.467 3.467 0 0 1-2.451 1.015Z"/><rect width="31.248" height="31.248" x="382.099" y="130.159" stroke="#D9BFFF" stroke-width="3.472" rx="15.624"/><path fill="#592ACB" d="M166.994 174.425V182h-1.372v-7.575h1.372Zm2.766 4.246V182h-1.339v-5.681h1.28v.965h.066c.259-.633.844-1.039 1.694-1.039 1.173 0 1.95.776 1.946 2.138V182h-1.339v-3.41c0-.759-.414-1.214-1.106-1.214-.706 0-1.202.474-1.202 1.295Zm5.008 3.329v-5.681h1.339V182h-1.339Zm.673-6.488c-.429 0-.776-.325-.776-.725 0-.403.347-.728.776-.728.426 0 .773.325.773.728 0 .4-.347.725-.773.725ZM177.41 182v-.851l2.929-3.673v-.048h-2.833v-1.109h4.472v.913l-2.789 3.61v.048h2.885V182h-4.664Zm5.923 0v-5.681h1.339V182h-1.339Zm.673-6.488c-.429 0-.777-.325-.777-.725 0-.403.348-.728.777-.728.425 0 .773.325.773.728 0 .4-.348.725-.773.725Zm3.678 6.603c-1.084 0-1.902-.592-1.902-1.709 0-1.28 1.054-1.609 2.157-1.728 1.002-.107 1.405-.125 1.405-.51v-.022c0-.559-.34-.877-.961-.877-.655 0-1.032.333-1.166.721l-1.25-.177c.296-1.036 1.213-1.568 2.408-1.568 1.084 0 2.308.451 2.308 1.953V182h-1.287v-.78h-.044c-.244.477-.777.895-1.668.895Zm.347-.984c.807 0 1.317-.537 1.317-1.169v-.67c-.174.141-.877.23-1.228.278-.599.085-1.047.299-1.047.814 0 .492.4.747.958.747ZM258.579 174.425V182h-1.373v-7.575h1.373Zm2.765 4.246V182h-1.339v-5.681h1.28v.965h.067c.259-.633.843-1.039 1.694-1.039 1.172 0 1.949.776 1.945 2.138V182h-1.338v-3.41c0-.759-.415-1.214-1.106-1.214-.707 0-1.203.474-1.203 1.295Zm9.499-.851-1.221.133c-.103-.373-.429-.71-1.046-.71-.559 0-.984.267-.981.651-.003.329.226.529.803.659l.969.207c1.073.233 1.594.728 1.598 1.539-.004 1.076-1.006 1.812-2.426 1.812-1.395 0-2.271-.618-2.438-1.661l1.306-.126c.115.511.514.777 1.128.777.636 0 1.058-.292 1.058-.68 0-.322-.244-.533-.766-.648l-.969-.203c-1.091-.226-1.602-.773-1.598-1.602-.004-1.05.929-1.723 2.297-1.723 1.332 0 2.101.614 2.286 1.575Zm3.741 4.291c-1.712 0-2.759-1.136-2.759-2.918 0-1.754 1.062-2.948 2.689-2.948 1.398 0 2.597.876 2.597 2.87v.41h-3.958c.011.973.584 1.543 1.45 1.543.577 0 1.021-.252 1.202-.732l1.25.14c-.236.988-1.146 1.635-2.471 1.635Zm-1.427-3.488h2.67c-.007-.773-.525-1.335-1.294-1.335-.799 0-1.336.61-1.376 1.335Zm5.087 3.377v-5.681h1.298v.946h.059c.207-.658.751-1.028 1.402-1.028.148 0 .359.015.481.037v1.232a2.561 2.561 0 0 0-.622-.078c-.736 0-1.279.511-1.279 1.232V182h-1.339Zm4.129 0v-5.681h1.339V182h-1.339Zm.673-6.488c-.429 0-.776-.325-.776-.725 0-.403.347-.728.776-.728.426 0 .774.325.774.728 0 .4-.348.725-.774.725Zm6.534 2.308-1.221.133c-.104-.373-.429-.71-1.047-.71-.558 0-.984.267-.98.651-.004.329.226.529.803.659l.969.207c1.072.233 1.594.728 1.598 1.539-.004 1.076-1.006 1.812-2.427 1.812-1.394 0-2.271-.618-2.437-1.661l1.305-.126c.115.511.514.777 1.128.777.637 0 1.058-.292 1.058-.68 0-.322-.244-.533-.765-.648l-.969-.203c-1.092-.226-1.602-.773-1.598-1.602-.004-1.05.928-1.723 2.297-1.723 1.331 0 2.101.614 2.286 1.575Zm3.704 4.291c-1.698 0-2.722-1.21-2.722-2.93 0-1.734 1.05-2.936 2.715-2.936 1.387 0 2.348.81 2.441 2.041h-1.28c-.104-.547-.499-.961-1.143-.961-.825 0-1.376.688-1.376 1.834 0 1.162.54 1.861 1.376 1.861.588 0 1.028-.352 1.143-.962h1.28c-.096 1.206-1.006 2.053-2.434 2.053Zm3.533-.111v-5.681h1.339V182h-1.339Zm.673-6.488c-.429 0-.776-.325-.776-.725 0-.403.347-.728.776-.728.426 0 .774.325.774.728 0 .4-.348.725-.774.725Zm6.735 6.588c-1.339 0-2.341-1.062-2.341-2.933 0-1.894 1.032-2.922 2.345-2.922 1.002 0 1.42.603 1.624 1.013h.055v-2.833h1.343V182h-1.317v-.895h-.081c-.211.414-.651.995-1.628.995Zm.374-1.099c.854 0 1.335-.739 1.335-1.842 0-1.102-.473-1.816-1.335-1.816-.892 0-1.35.758-1.35 1.816 0 1.066.466 1.842 1.35 1.842Zm5.713 1.114c-1.083 0-1.901-.592-1.901-1.709 0-1.28 1.054-1.609 2.157-1.728 1.002-.107 1.405-.125 1.405-.51v-.022c0-.559-.34-.877-.961-.877-.655 0-1.032.333-1.166.721l-1.25-.177c.296-1.036 1.213-1.568 2.408-1.568 1.084 0 2.308.451 2.308 1.953V182h-1.287v-.78h-.044c-.244.477-.777.895-1.669.895Zm.348-.984c.807 0 1.317-.537 1.317-1.169v-.67c-.174.141-.877.23-1.228.278-.599.085-1.047.299-1.047.814 0 .492.4.747.958.747Zm6.836-4.812v1.035h-1.121v2.937c0 .54.27.659.606.659a1.7 1.7 0 0 0 .393-.052l.225 1.047a2.691 2.691 0 0 1-.788.133c-1.006.029-1.782-.496-1.775-1.565v-3.159h-.806v-1.035h.806v-1.362h1.339v1.362h1.121Zm1.119 5.681v-5.681h1.339V182h-1.339Zm.674-6.488c-.429 0-.777-.325-.777-.725 0-.403.348-.728.777-.728.425 0 .773.325.773.728 0 .4-.348.725-.773.725ZM380.105 175.575v-1.15h6.044v1.15h-2.342V182h-1.361v-6.425h-2.341Zm6.56 6.425v-5.681h1.298v.946h.059c.207-.658.751-1.028 1.402-1.028.148 0 .359.015.481.037v1.232a2.561 2.561 0 0 0-.622-.078c-.736 0-1.279.511-1.279 1.232V182h-1.339Zm6.374.111c-1.665 0-2.723-1.173-2.723-2.93 0-1.76 1.058-2.936 2.723-2.936 1.664 0 2.722 1.176 2.722 2.936 0 1.757-1.058 2.93-2.722 2.93Zm.007-1.073c.906 0 1.357-.821 1.357-1.86 0-1.04-.451-1.872-1.357-1.872-.921 0-1.372.832-1.372 1.872 0 1.039.451 1.86 1.372 1.86Zm8.733-4.719L399.756 182h-1.48l-2.023-5.681h1.428l1.305 4.22h.06l1.309-4.22h1.424Zm2.399 5.796c-1.084 0-1.902-.592-1.902-1.709 0-1.28 1.055-1.609 2.157-1.728 1.002-.107 1.405-.125 1.405-.51v-.022c0-.559-.34-.877-.961-.877-.655 0-1.032.333-1.165.721l-1.251-.177c.296-1.036 1.214-1.568 2.408-1.568 1.084 0 2.308.451 2.308 1.953V182h-1.287v-.78h-.044c-.244.477-.777.895-1.668.895Zm.347-.984c.807 0 1.317-.537 1.317-1.169v-.67c-.174.141-.876.23-1.228.278-.599.085-1.047.299-1.047.814 0 .492.4.747.958.747Zm7.921-6.706V182h-1.339v-7.575h1.339Zm3.893 7.686c-1.713 0-2.76-1.136-2.76-2.918 0-1.754 1.062-2.948 2.689-2.948 1.398 0 2.597.876 2.597 2.87v.41h-3.958c.011.973.584 1.543 1.45 1.543.577 0 1.021-.252 1.202-.732l1.25.14c-.236.988-1.146 1.635-2.47 1.635Zm-1.428-3.488h2.67c-.007-.773-.525-1.335-1.294-1.335-.799 0-1.336.61-1.376 1.335Zm-40.759 11.696L372.129 196h-1.48l-2.023-5.681h1.428l1.306 4.22h.059l1.309-4.22h1.424Zm4.548 3.292v-3.292h1.339V196h-1.298v-1.01h-.059c-.259.636-.859 1.084-1.709 1.084-1.117 0-1.894-.773-1.894-2.138v-3.617h1.339v3.41c0 .721.429 1.176 1.073 1.176.591 0 1.209-.429 1.209-1.294Zm4.055-5.186V196h-1.339v-7.575h1.339Zm2.716 4.246V196h-1.339v-5.681h1.28v.965h.066c.259-.633.843-1.039 1.694-1.039 1.173 0 1.95.776 1.946 2.138V196h-1.339v-3.41c0-.759-.414-1.214-1.106-1.214-.707 0-1.202.474-1.202 1.295Zm7.523 3.44c-1.712 0-2.759-1.136-2.759-2.918 0-1.754 1.061-2.948 2.689-2.948 1.398 0 2.597.876 2.597 2.87v.41h-3.958c.011.973.584 1.543 1.45 1.543.577 0 1.021-.252 1.202-.732l1.25.14c-.237.988-1.147 1.635-2.471 1.635Zm-1.428-3.488h2.671c-.007-.773-.525-1.335-1.295-1.335-.799 0-1.335.61-1.376 1.335Zm5.087 3.377v-5.681h1.299v.946h.059c.207-.658.751-1.028 1.402-1.028.148 0 .358.015.48.037v1.232a2.545 2.545 0 0 0-.621-.078c-.736 0-1.28.511-1.28 1.232V196h-1.339Zm5.653.115c-1.084 0-1.901-.592-1.901-1.709 0-1.28 1.054-1.609 2.156-1.728 1.003-.107 1.406-.125 1.406-.51v-.022c0-.559-.34-.877-.962-.877-.655 0-1.032.333-1.165.721l-1.25-.177c.296-1.036 1.213-1.568 2.408-1.568 1.083 0 2.308.451 2.308 1.953V196h-1.287v-.78h-.045c-.244.477-.777.895-1.668.895Zm.348-.984c.806 0 1.317-.537 1.317-1.169v-.67c-.174.141-.877.23-1.229.278-.599.085-1.046.299-1.046.814 0 .492.399.747.958.747Zm4.057.869v-7.575h1.339v2.833h.056c.203-.41.621-1.013 1.624-1.013 1.313 0 2.345 1.028 2.345 2.922 0 1.871-1.003 2.933-2.342 2.933-.976 0-1.416-.581-1.627-.995h-.078V196h-1.317Zm1.313-2.841c0 1.103.481 1.842 1.336 1.842.884 0 1.35-.776 1.35-1.842 0-1.058-.459-1.816-1.35-1.816-.862 0-1.336.714-1.336 1.816Zm5.189 2.841v-5.681h1.339V196h-1.339Zm.673-6.488c-.429 0-.777-.325-.777-.725 0-.403.348-.728.777-.728.426 0 .773.325.773.728 0 .4-.347.725-.773.725Zm3.382-1.087V196h-1.339v-7.575h1.339Zm1.377 7.575v-5.681h1.339V196h-1.339Zm.673-6.488c-.429 0-.777-.325-.777-.725 0-.403.348-.728.777-.728.425 0 .773.325.773.728 0 .4-.348.725-.773.725Zm4.88.807v1.035h-1.121v2.937c0 .54.27.659.606.659a1.7 1.7 0 0 0 .393-.052l.225 1.047a2.691 2.691 0 0 1-.788.133c-1.006.029-1.782-.496-1.775-1.565v-3.159h-.806v-1.035h.806v-1.362h1.339v1.362h1.121Zm2.754 5.796c-1.083 0-1.901-.592-1.901-1.709 0-1.28 1.054-1.609 2.157-1.728 1.002-.107 1.405-.125 1.405-.51v-.022c0-.559-.34-.877-.962-.877-.654 0-1.032.333-1.165.721l-1.25-.177c.296-1.036 1.213-1.568 2.408-1.568 1.084 0 2.308.451 2.308 1.953V196h-1.287v-.78h-.044c-.245.477-.777.895-1.669.895Zm.348-.984c.806 0 1.317-.537 1.317-1.169v-.67c-.174.141-.877.23-1.228.278-.599.085-1.047.299-1.047.814 0 .492.4.747.958.747Zm-.085-5.56-1.136-1.69h1.314l.824 1.69h-1.002Z"/></g></g><defs><radialGradient id="c" cx="0" cy="0" r="1" gradientTransform="matrix(-91.00646 44.78467 -35.48405 -72.10675 179.224 320.895)" gradientUnits="userSpaceOnUse"><stop stop-color="#9D62FC"/><stop offset="1" stop-color="#FD3296"/></radialGradient><clipPath id="b"><rect width="507.821" height="358.053" x="46" y="46" fill="#fff" rx="5.951"/></clipPath><filter id="a" width="531.625" height="381.858" x="34.098" y="38.065" color-interpolation-filters="sRGB" filterUnits="userSpaceOnUse"><feFlood flood-opacity="0" result="BackgroundImageFix"/><feColorMatrix in="SourceAlpha" result="hardAlpha" values="0 0 0 0 0 0 0 0 0 0 0 0 0 0 0 0 0 0 127 0"/><feOffset dy="3.967"/><feGaussianBlur stdDeviation="5.951"/><feComposite in2="hardAlpha" operator="out"/><feColorMatrix values="0 0 0 0 0 0 0 0 0 0 0 0 0 0 0 0 0 0 0.08 0"/><feBlend in2="BackgroundImageFix" result="effect1_dropShadow_1092_12175"/><feBlend in="SourceGraphic" in2="effect1_dropShadow_1092_12175" result="shape"/></filter></defs></svg>
