<svg xmlns="http://www.w3.org/2000/svg" width="620" height="450" fill="none" viewBox="0 0 620 450"><g clip-path="url(#a)"><rect width="620" height="450" fill="#ECDFFF" rx="15"/><mask id="c" fill="#fff"><path d="M531.529 137.926c5.84 0 10.575 4.734 10.575 10.575v70.5c0 5.84-4.735 10.575-10.575 10.575v-91.65Z"/></mask><path fill="url(#b)" d="M531.529 137.926c5.84 0 10.575 4.734 10.575 10.575v70.5c0 5.84-4.735 10.575-10.575 10.575v-91.65Z"/><path fill="#BFBFC7" d="M531.529 229.576h-11.75v11.75h11.75v-11.75Zm0-91.65v-11.75h-11.75v11.75h11.75Zm-1.175 10.575v70.5h23.5v-70.5h-23.5Zm12.925 81.075v-91.65h-23.5v91.65h23.5Zm-12.925-10.575c0-.649.526-1.175 1.175-1.175v23.5c12.329 0 22.325-9.995 22.325-22.325h-23.5Zm1.175-69.325a1.175 1.175 0 0 1-1.175-1.175h23.5c0-12.33-9.996-22.325-22.325-22.325v23.5Z" mask="url(#c)"/><path fill="#F9F9FA" stroke="#BFBFC7" stroke-miterlimit="10" stroke-width="9.4" d="M471.296 38.3H128.664c-30.63 0-55.46 24.83-55.46 55.46v697.952c0 30.63 24.83 55.461 55.46 55.461h342.632c30.629 0 55.46-24.831 55.46-55.461V93.76c0-30.63-24.831-55.46-55.46-55.46Z"/><path fill="url(#d)" d="m201.245 94.384-4.005-2.294-9.144-5.236-.285-.163a4.888 4.888 0 0 0-4.836 0l-.284.165-12.858 7.365-.284.164a4.807 4.807 0 0 0-2.418 4.158v15.382a4.81 4.81 0 0 0 2.418 4.159l13.146 7.528a2.025 2.025 0 0 0 2.755-.731 1.993 1.993 0 0 0-.738-2.734l-12.857-7.363a1.371 1.371 0 0 1-.693-1.189V98.873a1.37 1.37 0 0 1 .693-1.19l2.275-1.303 10.568-6.065a1.394 1.394 0 0 1 1.379 0l12.862 7.366c.425.245.688.697.69 1.188V113.6a1.372 1.372 0 0 1-.693 1.189l-4.35 2.492-2.196-3.312a10.336 10.336 0 0 0 3.483-7.734c0-5.736-4.704-10.403-10.487-10.403S174.9 100.5 174.9 106.236c0 5.736 4.703 10.403 10.486 10.403a10.49 10.49 0 0 0 3.54-.612l3.336 5.029c.052.077.108.151.169.221l.035.035c.071.076.147.146.229.209l.06.049c.09.065.185.123.285.173l.068.03c.088.04.18.074.273.101l.062.02c.106.027.214.045.323.053h.182c.062 0 .123-.007.182-.013h.084c.115-.016.228-.042.339-.077.03-.008.058-.021.088-.033.088-.032.173-.07.256-.113.019-.01.04-.016.058-.027l6.29-3.595a4.813 4.813 0 0 0 2.418-4.164V98.542a4.807 4.807 0 0 0-2.418-4.158Zm-22.313 11.852a6.454 6.454 0 1 1 6.454 6.4 6.434 6.434 0 0 1-6.454-6.4Z"/><path fill="url(#e)" d="m201.245 94.384-4.005-2.294-9.144-5.236-.285-.163a4.888 4.888 0 0 0-4.836 0l-.284.165-12.858 7.365-.284.164a4.807 4.807 0 0 0-2.418 4.158v15.382a4.81 4.81 0 0 0 2.418 4.159l13.146 7.528a2.025 2.025 0 0 0 2.755-.731 1.993 1.993 0 0 0-.738-2.734l-12.857-7.363a1.371 1.371 0 0 1-.693-1.189V98.873a1.37 1.37 0 0 1 .693-1.19l2.275-1.303 10.568-6.065a1.394 1.394 0 0 1 1.379 0l12.862 7.366c.425.245.688.697.69 1.188V113.6a1.372 1.372 0 0 1-.693 1.189l-4.35 2.492-2.196-3.312a10.336 10.336 0 0 0 3.483-7.734c0-5.736-4.704-10.403-10.487-10.403S174.9 100.5 174.9 106.236c0 5.736 4.703 10.403 10.486 10.403a10.49 10.49 0 0 0 3.54-.612l3.336 5.029c.052.077.108.151.169.221l.035.035c.071.076.147.146.229.209l.06.049c.09.065.185.123.285.173l.068.03c.088.04.18.074.273.101l.062.02c.106.027.214.045.323.053h.182c.062 0 .123-.007.182-.013h.084c.115-.016.228-.042.339-.077.03-.008.058-.021.088-.033.088-.032.173-.07.256-.113.019-.01.04-.016.058-.027l6.29-3.595a4.813 4.813 0 0 0 2.418-4.164V98.542a4.807 4.807 0 0 0-2.418-4.158Zm-22.313 11.852a6.454 6.454 0 1 1 6.454 6.4 6.434 6.434 0 0 1-6.454-6.4Z"/><path fill="url(#f)" d="m201.243 94.384-4.005-2.294-5.587-3.198a4.308 4.308 0 0 0-4.16-.062l-2.795 1.485a1.394 1.394 0 0 1 1.379 0l12.862 7.366c.425.244.688.697.69 1.188V113.6a1.371 1.371 0 0 1-.693 1.189l-4.35 2.491.678 1.086a2.844 2.844 0 0 0 3.827.954l2.154-1.232a4.795 4.795 0 0 0 2.418-4.164V98.541a4.793 4.793 0 0 0-2.418-4.157Z"/><path fill="url(#g)" d="M199.627 98.873v7.147h4.034v-7.479a4.793 4.793 0 0 0-2.418-4.157l-4.005-2.294-5.587-3.198a4.308 4.308 0 0 0-4.16-.062l-2.795 1.485a1.398 1.398 0 0 1 1.379 0l12.862 7.366c.427.245.69.7.69 1.192Z"/><path fill="url(#h)" d="M199.627 107.17v6.431c0 .492-.265.946-.692 1.189l-4.351 2.492.678 1.085a2.846 2.846 0 0 0 3.828.954l2.153-1.232a4.795 4.795 0 0 0 2.418-4.164v-6.755h-4.034Z" opacity=".9"/><path fill="url(#i)" d="m194.276 116.815-1.887-2.845a10.499 10.499 0 0 1-3.464 2.057l2.007 3.028a88.1 88.1 0 0 0 3.344-2.24Z" opacity=".9"/><path fill="#000" d="M220.438 116.31V96.232h4.296l6.225 11.339 6.196-11.339h4.325v20.078h-4.325v-12.509l-6.196 11.34-6.225-11.34v12.509h-4.296Zm32.266.351c-4.501 0-8.271-3.624-8.271-7.921 0-4.296 3.77-7.89 8.271-7.89 4.471 0 8.212 3.594 8.212 7.89 0 4.297-3.741 7.921-8.212 7.921Zm0-3.595c2.25 0 4.15-1.988 4.15-4.326 0-2.338-1.9-4.296-4.15-4.296-2.28 0-4.179 1.958-4.179 4.296s1.899 4.326 4.179 4.326Zm10.218 3.244v-3.01l7.599-8.476h-7.394V101.2h12.947v3.011l-7.599 8.475h7.657v3.624h-13.21Zm18.152-17.185a2.326 2.326 0 0 1-2.338-2.338c0-1.198 1.022-2.28 2.338-2.28 1.256 0 2.279 1.082 2.279 2.28 0 1.286-1.023 2.338-2.279 2.338Zm-2.163 17.185V101.2h4.267v15.11h-4.267Zm7.783 0V95.881h4.267v20.429h-4.267Zm7.783 0V95.881h4.266v20.429h-4.266Zm14.533-15.46c3.946 0 6.634 2.484 6.634 6.429v9.031h-4.121v-1.52c-1.081 1.228-2.805 1.871-4.442 1.871-3.215 0-5.699-1.929-5.699-4.823 0-2.981 2.777-5.026 6.284-5.026 1.227 0 2.572.263 3.857.759v-.292c0-1.607-.993-3.01-3.477-3.01-1.403 0-2.718.468-3.916 1.081l-1.433-2.835c2.134-1.081 4.209-1.665 6.313-1.665Zm-.964 12.859c1.636 0 3.185-.76 3.477-2.163v-1.403a9.57 9.57 0 0 0-3.244-.555c-1.548 0-2.776.906-2.776 2.133 0 1.228 1.081 1.988 2.543 1.988Zm19.612 2.601V96.232h2.951l7.044 13.122 7.043-13.122h2.952v20.078h-2.952v-14.291l-7.043 13.122-7.044-13.122v14.291h-2.951Zm31.182.351c-4.325 0-7.978-3.624-7.978-7.921 0-4.296 3.653-7.89 7.978-7.89 4.296 0 7.92 3.594 7.92 7.89 0 4.297-3.624 7.921-7.92 7.921Zm0-2.514c2.718 0 5.027-2.455 5.027-5.407 0-2.922-2.309-5.377-5.027-5.377-2.776 0-5.085 2.455-5.085 5.377 0 2.952 2.309 5.407 5.085 5.407Zm18.365-13.297c3.332 0 5.67 2.425 5.67 5.845v9.615h-2.835v-9.118c0-2.251-1.432-3.829-3.477-3.829-2.105 0-3.917 1.374-4.15 3.156v9.791h-2.894V101.2h2.894v2.192c.906-1.49 2.747-2.542 4.792-2.542Zm10.615-2.163a1.758 1.758 0 0 1-1.753-1.754c0-.906.76-1.724 1.753-1.724.935 0 1.724.819 1.724 1.724 0 .936-.789 1.754-1.724 1.754Zm-1.461 17.623V101.2h2.893v15.11h-2.893Zm13.525-2.718 1.052 1.987a4.863 4.863 0 0 1-3.01 1.082c-2.338 0-3.975-1.696-3.975-4.121v-8.885h-2.279V101.2h2.279v-4.15h2.835v4.15h3.565v2.455h-3.565v8.68c0 1.052.701 1.812 1.549 1.812.643 0 1.227-.234 1.549-.555Zm10.535 3.069c-4.325 0-7.979-3.624-7.979-7.921 0-4.296 3.654-7.89 7.979-7.89 4.296 0 7.92 3.594 7.92 7.89 0 4.297-3.624 7.921-7.92 7.921Zm0-2.514c2.718 0 5.027-2.455 5.027-5.407 0-2.922-2.309-5.377-5.027-5.377-2.777 0-5.085 2.455-5.085 5.377 0 2.952 2.308 5.407 5.085 5.407Zm13.718-10.053c.965-1.988 3.011-3.244 5.612-3.244v2.513c-3.127 0-5.349 1.724-5.612 4.355v8.592h-2.893V101.2h2.893v2.894Z"/><path fill="#fff" d="M96.406 165.79a5.65 5.65 0 0 1 5.65-5.649h395.739a5.649 5.649 0 0 1 5.65 5.649v486.072a5.65 5.65 0 0 1-5.65 5.65H102.056a5.65 5.65 0 0 1-5.65-5.65V165.79Z"/><path stroke="#000" stroke-opacity=".1" stroke-width=".706" d="M102.056 159.788a6.002 6.002 0 0 0-6.003 6.002v486.072a6.003 6.003 0 0 0 6.003 6.003h395.739a6.003 6.003 0 0 0 6.003-6.003V165.79a6.002 6.002 0 0 0-6.003-6.002H102.056Z"/><path fill="#000" d="M130.541 290.877h10.602V295h-15.19v-21.297h4.588v17.174Zm20.586-12.276c4.185 0 7.037 2.635 7.037 6.82V295h-4.371v-1.612c-1.147 1.302-2.976 1.984-4.712 1.984-3.41 0-6.045-2.046-6.045-5.115 0-3.162 2.945-5.332 6.665-5.332 1.302 0 2.728.279 4.092.806v-.31c0-1.705-1.054-3.193-3.689-3.193-1.488 0-2.883.496-4.154 1.147l-1.519-3.007c2.263-1.147 4.464-1.767 6.696-1.767Zm-1.023 13.64c1.736 0 3.379-.806 3.689-2.294v-1.488a10.139 10.139 0 0 0-3.441-.589c-1.643 0-2.945.961-2.945 2.263s1.147 2.108 2.697 2.108Zm28.965-1.209 1.085 2.945c-.93.837-2.387 1.395-3.689 1.395-2.821 0-4.805-2.015-4.805-4.898v-7.843h-2.201v-3.658h2.201v-4.402H176v4.402h3.472v3.658H176v7.13c0 1.054.682 1.798 1.519 1.798.62 0 1.24-.217 1.55-.527Zm14.553-12.059h4.526V295h-4.526v-2.015c-.961 1.457-2.759 2.387-4.836 2.387-3.472 0-5.952-2.573-5.952-6.2v-10.199h4.371v9.238c0 1.984 1.24 3.348 3.038 3.348 1.891 0 3.348-1.364 3.348-3.1l.031.093v-9.579Zm15.57-.372c4.185 0 7.037 2.635 7.037 6.82V295h-4.371v-1.612c-1.147 1.302-2.976 1.984-4.712 1.984-3.41 0-6.045-2.046-6.045-5.115 0-3.162 2.945-5.332 6.665-5.332 1.302 0 2.728.279 4.092.806v-.31c0-1.705-1.054-3.193-3.689-3.193-1.488 0-2.883.496-4.154 1.147l-1.519-3.007c2.263-1.147 4.464-1.767 6.696-1.767Zm-1.023 13.64c1.736 0 3.379-.806 3.689-2.294v-1.488a10.139 10.139 0 0 0-3.441-.589c-1.643 0-2.945.961-2.945 2.263s1.147 2.108 2.697 2.108Zm30.422-13.64c4.278 0 7.378 3.472 7.378 8.37 0 4.929-3.1 8.401-7.378 8.401-2.232 0-4.092-.961-5.363-2.635v7.595h-4.526v-21.359h4.526v2.232c1.271-1.643 3.131-2.604 5.363-2.604Zm-1.302 12.958c2.511 0 4.278-1.891 4.278-4.588 0-2.666-1.767-4.557-4.278-4.557-2.201 0-3.813 1.612-4.061 3.937v1.24c.248 2.356 1.86 3.968 4.061 3.968Zm19.039-12.958c4.185 0 7.037 2.635 7.037 6.82V295h-4.371v-1.612c-1.147 1.302-2.976 1.984-4.712 1.984-3.41 0-6.045-2.046-6.045-5.115 0-3.162 2.945-5.332 6.665-5.332 1.302 0 2.728.279 4.092.806v-.31c0-1.705-1.054-3.193-3.689-3.193-1.488 0-2.883.496-4.154 1.147l-1.519-3.007c2.263-1.147 4.464-1.767 6.696-1.767Zm-1.023 13.64c1.736 0 3.379-.806 3.689-2.294v-1.488a10.139 10.139 0 0 0-3.441-.589c-1.643 0-2.945.961-2.945 2.263s1.147 2.108 2.697 2.108Zm17.888 3.131c-2.573 0-5.301-.868-7.223-2.418l1.953-3.131c1.426 1.023 3.224 1.798 5.363 1.798 1.209 0 2.077-.496 2.077-1.209 0-.992-1.178-1.302-2.821-1.736-3.286-.806-5.828-1.705-5.859-4.867-.031-3.038 2.48-5.208 6.262-5.208 2.294 0 4.557.806 6.324 1.984l-1.829 3.224c-1.457-.899-3.131-1.426-4.495-1.426-1.116 0-1.891.403-1.891.961 0 .868.651 1.116 2.821 1.705 2.759.713 5.828 1.643 5.828 5.146 0 3.162-2.573 5.177-6.51 5.177Zm15.561 0c-2.573 0-5.301-.868-7.223-2.418l1.953-3.131c1.426 1.023 3.224 1.798 5.363 1.798 1.209 0 2.077-.496 2.077-1.209 0-.992-1.178-1.302-2.821-1.736-3.286-.806-5.828-1.705-5.859-4.867-.031-3.038 2.48-5.208 6.262-5.208 2.294 0 4.557.806 6.324 1.984l-1.829 3.224c-1.457-.899-3.131-1.426-4.495-1.426-1.116 0-1.891.403-1.891.961 0 .868.651 1.116 2.821 1.705 2.759.713 5.828 1.643 5.828 5.146 0 3.162-2.573 5.177-6.51 5.177ZM302.33 295l-5.456-16.027h4.433l3.038 9.982 3.162-9.982h3.751l3.162 9.982 3.038-9.982h4.433L316.435 295h-4.061l-2.976-10.075L306.391 295h-4.061Zm29.153.372c-4.774 0-8.773-3.844-8.773-8.401s3.999-8.37 8.773-8.37c4.743 0 8.711 3.813 8.711 8.37 0 4.557-3.968 8.401-8.711 8.401Zm0-3.813c2.387 0 4.402-2.108 4.402-4.588s-2.015-4.557-4.402-4.557c-2.418 0-4.433 2.077-4.433 4.557 0 2.48 2.015 4.588 4.433 4.588Zm16.299-9.61c1.054-2.077 3.038-3.348 5.487-3.348v3.813c-3.348 0-5.487 1.922-5.487 4.929V295h-4.526v-16.027h4.526v2.976Zm20.064-8.618h4.526V295h-4.526v-2.294c-1.271 1.674-3.131 2.666-5.394 2.666-4.278 0-7.378-3.472-7.378-8.401 0-4.898 3.1-8.37 7.378-8.37 2.263 0 4.123.992 5.394 2.666v-7.936Zm-4.092 18.228c2.387 0 4.092-1.891 4.092-4.588 0-2.666-1.705-4.557-4.092-4.557-2.511 0-4.278 1.891-4.278 4.557 0 2.697 1.767 4.588 4.278 4.588Zm33.216-18.228h4.526V295h-4.526v-2.294c-1.271 1.674-3.131 2.666-5.394 2.666-4.278 0-7.378-3.472-7.378-8.401 0-4.898 3.1-8.37 7.378-8.37 2.263 0 4.123.992 5.394 2.666v-7.936Zm-4.092 18.228c2.387 0 4.092-1.891 4.092-4.588 0-2.666-1.705-4.557-4.092-4.557-2.511 0-4.278 1.891-4.278 4.557 0 2.697 1.767 4.588 4.278 4.588Zm14.853-14.787a2.467 2.467 0 0 1-2.48-2.48c0-1.271 1.085-2.418 2.48-2.418 1.333 0 2.418 1.147 2.418 2.418 0 1.364-1.085 2.48-2.418 2.48ZM405.437 295v-16.027h4.526V295h-4.526Zm-267.859 17.973h4.557v14.322c0 4.123-3.565 7.037-8.618 7.037-2.821 0-5.487-.899-7.068-2.139L128.03 329c1.054.93 2.914 1.519 4.774 1.519 2.914 0 4.774-1.333 4.774-3.41v-1.767c-1.271 1.55-3.193 2.48-5.301 2.48-4.03 0-7.099-3.162-7.099-7.626s3.069-7.595 7.099-7.595c2.17 0 4.216 1.023 5.301 2.542v-2.17Zm-3.875 11.036c2.263 0 3.875-1.581 3.875-3.813s-1.612-3.782-3.875-3.782-3.875 1.55-3.875 3.782 1.612 3.813 3.875 3.813ZM146.116 329v-21.669h4.526V329h-4.526Zm15.637-16.399c4.185 0 7.037 2.635 7.037 6.82V329h-4.371v-1.612c-1.147 1.302-2.976 1.984-4.712 1.984-3.41 0-6.045-2.046-6.045-5.115 0-3.162 2.945-5.332 6.665-5.332 1.302 0 2.728.279 4.092.806v-.31c0-1.705-1.054-3.193-3.689-3.193-1.488 0-2.883.496-4.154 1.147l-1.519-3.007c2.263-1.147 4.464-1.767 6.696-1.767Zm-1.023 13.64c1.736 0 3.379-.806 3.689-2.294v-1.488a10.139 10.139 0 0 0-3.441-.589c-1.643 0-2.945.961-2.945 2.263s1.147 2.108 2.697 2.108Zm17.889 3.131c-2.573 0-5.301-.868-7.223-2.418l1.953-3.131c1.426 1.023 3.224 1.798 5.363 1.798 1.209 0 2.077-.496 2.077-1.209 0-.992-1.178-1.302-2.821-1.736-3.286-.806-5.828-1.705-5.859-4.867-.031-3.038 2.48-5.208 6.262-5.208 2.294 0 4.557.806 6.324 1.984l-1.829 3.224c-1.457-.899-3.131-1.426-4.495-1.426-1.116 0-1.891.403-1.891.961 0 .868.651 1.116 2.821 1.705 2.759.713 5.828 1.643 5.828 5.146 0 3.162-2.573 5.177-6.51 5.177Zm15.561 0c-2.573 0-5.301-.868-7.223-2.418l1.953-3.131c1.426 1.023 3.224 1.798 5.363 1.798 1.209 0 2.077-.496 2.077-1.209 0-.992-1.178-1.302-2.821-1.736-3.286-.806-5.828-1.705-5.859-4.867-.031-3.038 2.48-5.208 6.262-5.208 2.294 0 4.557.806 6.324 1.984l-1.829 3.224c-1.457-.899-3.131-1.426-4.495-1.426-1.116 0-1.891.403-1.891.961 0 .868.651 1.116 2.821 1.705 2.759.713 5.828 1.643 5.828 5.146 0 3.162-2.573 5.177-6.51 5.177Zm17.11-3.999c1.271 0 2.821-.589 3.689-1.426l2.883 2.945c-1.426 1.488-4.185 2.48-6.541 2.48-4.774 0-8.494-3.503-8.494-8.432 0-4.836 3.565-8.339 8.246-8.339 5.022 0 7.967 3.813 7.967 9.858h-11.563c.527 1.736 1.922 2.914 3.813 2.914Zm-.031-8.773c-1.705 0-3.131.992-3.72 2.604h7.161c-.434-1.581-1.612-2.604-3.441-2.604Zm16.857 12.772c-2.573 0-5.301-.868-7.223-2.418l1.953-3.131c1.426 1.023 3.224 1.798 5.363 1.798 1.209 0 2.077-.496 2.077-1.209 0-.992-1.178-1.302-2.821-1.736-3.286-.806-5.828-1.705-5.859-4.867-.031-3.038 2.48-5.208 6.262-5.208 2.294 0 4.557.806 6.324 1.984l-1.829 3.224c-1.457-.899-3.131-1.426-4.495-1.426-1.116 0-1.891.403-1.891.961 0 .868.651 1.116 2.821 1.705 2.759.713 5.828 1.643 5.828 5.146 0 3.162-2.573 5.177-6.51 5.177Zm21.513-22.041h4.526V329h-4.526v-2.294c-1.271 1.674-3.131 2.666-5.394 2.666-4.278 0-7.378-3.472-7.378-8.401 0-4.898 3.1-8.37 7.378-8.37 2.263 0 4.123.992 5.394 2.666v-7.936Zm-4.092 18.228c2.387 0 4.092-1.891 4.092-4.588 0-2.666-1.705-4.557-4.092-4.557-2.511 0-4.278 1.891-4.278 4.557 0 2.697 1.767 4.588 4.278 4.588Zm20.465 3.813c-4.774 0-8.773-3.844-8.773-8.401s3.999-8.37 8.773-8.37c4.743 0 8.711 3.813 8.711 8.37 0 4.557-3.968 8.401-8.711 8.401Zm0-3.813c2.387 0 4.402-2.108 4.402-4.588s-2.015-4.557-4.402-4.557c-2.418 0-4.433 2.077-4.433 4.557 0 2.48 2.015 4.588 4.433 4.588Zm20.205-.527 1.085 2.945c-.93.837-2.387 1.395-3.689 1.395-2.821 0-4.805-2.015-4.805-4.898v-7.843h-2.201v-3.658h2.201v-4.402h4.34v4.402h3.472v3.658h-3.472v7.13c0 1.054.682 1.798 1.519 1.798.62 0 1.24-.217 1.55-.527Zm11.763 4.34c-4.743 0-8.742-3.844-8.742-8.401s4.03-8.37 8.773-8.37c2.604 0 4.743 1.054 6.293 2.728l-3.007 2.573c-.806-.899-2.077-1.488-3.317-1.488-2.356 0-4.34 2.077-4.34 4.526 0 2.511 1.984 4.619 4.371 4.619 1.24 0 2.542-.62 3.379-1.55l3.007 2.542c-1.581 1.736-3.751 2.821-6.417 2.821Zm16.681 0c-4.774 0-8.773-3.844-8.773-8.401s3.999-8.37 8.773-8.37c4.743 0 8.711 3.813 8.711 8.37 0 4.557-3.968 8.401-8.711 8.401Zm0-3.813c2.387 0 4.402-2.108 4.402-4.588s-2.015-4.557-4.402-4.557c-2.418 0-4.433 2.077-4.433 4.557 0 2.48 2.015 4.588 4.433 4.588Zm30.838-12.958c3.348 0 5.921 2.573 5.921 6.2v10.23h-4.34v-9.455c0-1.86-1.178-3.162-2.852-3.162-1.798 0-3.1 1.209-3.1 2.914v9.703h-4.34v-9.455c0-1.86-1.178-3.162-2.821-3.162-1.829 0-3.1 1.209-3.1 2.914V329h-4.526v-16.027h4.526v2.108c.775-1.519 2.356-2.48 4.34-2.48 2.201 0 4.092 1.116 5.084 2.914.837-1.767 2.821-2.914 5.208-2.914Zm12.298 16.771a2.878 2.878 0 0 1-2.883-2.883c0-1.457 1.271-2.759 2.883-2.759 1.519 0 2.759 1.302 2.759 2.759 0 1.581-1.24 2.883-2.759 2.883Zm14.262 0c-4.743 0-8.742-3.844-8.742-8.401s4.03-8.37 8.773-8.37c2.604 0 4.743 1.054 6.293 2.728l-3.007 2.573c-.806-.899-2.077-1.488-3.317-1.488-2.356 0-4.34 2.077-4.34 4.526 0 2.511 1.984 4.619 4.371 4.619 1.24 0 2.542-.62 3.379-1.55l3.007 2.542c-1.581 1.736-3.751 2.821-6.417 2.821Zm16.681 0c-4.774 0-8.773-3.844-8.773-8.401s3.999-8.37 8.773-8.37c4.743 0 8.711 3.813 8.711 8.37 0 4.557-3.968 8.401-8.711 8.401Zm0-3.813c2.387 0 4.402-2.108 4.402-4.588s-2.015-4.557-4.402-4.557c-2.418 0-4.433 2.077-4.433 4.557 0 2.48 2.015 4.588 4.433 4.588Zm30.839-12.958c3.348 0 5.921 2.573 5.921 6.2v10.23h-4.34v-9.455c0-1.86-1.178-3.162-2.852-3.162-1.798 0-3.1 1.209-3.1 2.914v9.703h-4.34v-9.455c0-1.86-1.178-3.162-2.821-3.162-1.829 0-3.1 1.209-3.1 2.914V329h-4.526v-16.027h4.526v2.108c.775-1.519 2.356-2.48 4.34-2.48 2.201 0 4.092 1.116 5.084 2.914.837-1.767 2.821-2.914 5.208-2.914Zm19.986-1.426h-3.069l-4.588-4.092 4.061-.744 3.596 4.836Zm-2.697 14.198c1.271 0 2.821-.589 3.689-1.426l2.883 2.945c-1.426 1.488-4.185 2.48-6.541 2.48-4.774 0-8.494-3.503-8.494-8.432 0-4.836 3.565-8.339 8.246-8.339 5.022 0 7.967 3.813 7.967 9.858h-11.563c.527 1.736 1.922 2.914 3.813 2.914Zm-.031-8.773c-1.705 0-3.131.992-3.72 2.604h7.161c-.434-1.581-1.612-2.604-3.441-2.604Zm-304.829 46.772c-2.573 0-5.301-.868-7.223-2.418l1.953-3.131c1.426 1.023 3.224 1.798 5.363 1.798 1.209 0 2.077-.496 2.077-1.209 0-.992-1.178-1.302-2.821-1.736-3.286-.806-5.828-1.705-5.859-4.867-.031-3.038 2.48-5.208 6.262-5.208 2.294 0 4.557.806 6.324 1.984l-1.829 3.224c-1.457-.899-3.131-1.426-4.495-1.426-1.116 0-1.891.403-1.891.961 0 .868.651 1.116 2.821 1.705 2.759.713 5.828 1.643 5.828 5.146 0 3.162-2.573 5.177-6.51 5.177Zm17.979-4.34 1.085 2.945c-.93.837-2.387 1.395-3.689 1.395-2.821 0-4.805-2.015-4.805-4.898v-7.843h-2.201v-3.658h2.201v-4.402h4.34v4.402h3.472v3.658h-3.472v7.13c0 1.054.682 1.798 1.519 1.798.62 0 1.24-.217 1.55-.527Zm11.08-12.431c4.185 0 7.037 2.635 7.037 6.82V363h-4.371v-1.612c-1.147 1.302-2.976 1.984-4.712 1.984-3.41 0-6.045-2.046-6.045-5.115 0-3.162 2.945-5.332 6.665-5.332 1.302 0 2.728.279 4.092.806v-.31c0-1.705-1.054-3.193-3.689-3.193-1.488 0-2.883.496-4.154 1.147l-1.519-3.007c2.263-1.147 4.464-1.767 6.696-1.767Zm-1.023 13.64c1.736 0 3.379-.806 3.689-2.294v-1.488a10.139 10.139 0 0 0-3.441-.589c-1.643 0-2.945.961-2.945 2.263s1.147 2.108 2.697 2.108Zm20.307-1.209 1.085 2.945c-.93.837-2.387 1.395-3.689 1.395-2.821 0-4.805-2.015-4.805-4.898v-7.843h-2.201v-3.658h2.201v-4.402h4.34v4.402h3.472v3.658h-3.472v7.13c0 1.054.682 1.798 1.519 1.798.62 0 1.24-.217 1.55-.527Zm11.08-12.431c4.185 0 7.037 2.635 7.037 6.82V363h-4.371v-1.612c-1.147 1.302-2.976 1.984-4.712 1.984-3.41 0-6.045-2.046-6.045-5.115 0-3.162 2.945-5.332 6.665-5.332 1.302 0 2.728.279 4.092.806v-.31c0-1.705-1.054-3.193-3.689-3.193-1.488 0-2.883.496-4.154 1.147l-1.519-3.007c2.263-1.147 4.464-1.767 6.696-1.767Zm-1.023 13.64c1.736 0 3.379-.806 3.689-2.294v-1.488a10.139 10.139 0 0 0-3.441-.589c-1.643 0-2.945.961-2.945 2.263s1.147 2.108 2.697 2.108Zm28.376 3.131c-4.743 0-8.742-3.844-8.742-8.401s4.03-8.37 8.773-8.37c2.604 0 4.743 1.054 6.293 2.728l-3.007 2.573c-.806-.899-2.077-1.488-3.317-1.488-2.356 0-4.34 2.077-4.34 4.526 0 2.511 1.984 4.619 4.371 4.619 1.24 0 2.542-.62 3.379-1.55l3.007 2.542c-1.581 1.736-3.751 2.821-6.417 2.821Zm16.682 0c-4.774 0-8.773-3.844-8.773-8.401s3.999-8.37 8.773-8.37c4.743 0 8.711 3.813 8.711 8.37 0 4.557-3.968 8.401-8.711 8.401Zm0-3.813c2.387 0 4.402-2.108 4.402-4.588s-2.015-4.557-4.402-4.557c-2.418 0-4.433 2.077-4.433 4.557 0 2.48 2.015 4.588 4.433 4.588Zm30.838-12.958c3.348 0 5.921 2.573 5.921 6.2v10.23h-4.34v-9.455c0-1.86-1.178-3.162-2.852-3.162-1.798 0-3.1 1.209-3.1 2.914v9.703h-4.34v-9.455c0-1.86-1.178-3.162-2.821-3.162-1.829 0-3.1 1.209-3.1 2.914V363h-4.526v-16.027h4.526v2.108c.775-1.519 2.356-2.48 4.34-2.48 2.201 0 4.092 1.116 5.084 2.914.837-1.767 2.821-2.914 5.208-2.914Zm19.614 0c4.278 0 7.378 3.472 7.378 8.37 0 4.929-3.1 8.401-7.378 8.401-2.232 0-4.092-.961-5.363-2.635v7.595h-4.526v-21.359h4.526v2.232c1.271-1.643 3.131-2.604 5.363-2.604Zm-1.302 12.958c2.511 0 4.278-1.891 4.278-4.588 0-2.666-1.767-4.557-4.278-4.557-2.201 0-3.813 1.612-4.061 3.937v1.24c.248 2.356 1.86 3.968 4.061 3.968Zm16.404-9.61c1.054-2.077 3.038-3.348 5.487-3.348v3.813c-3.348 0-5.487 1.922-5.487 4.929V363h-4.526v-16.027h4.526v2.976Zm15.609 13.423c-4.774 0-8.773-3.844-8.773-8.401s3.999-8.37 8.773-8.37c4.743 0 8.711 3.813 8.711 8.37 0 4.557-3.968 8.401-8.711 8.401Zm0-3.813c2.387 0 4.402-2.108 4.402-4.588s-2.015-4.557-4.402-4.557c-2.418 0-4.433 2.077-4.433 4.557 0 2.48 2.015 4.588 4.433 4.588Zm30.838-12.958c3.348 0 5.921 2.573 5.921 6.2v10.23h-4.34v-9.455c0-1.86-1.178-3.162-2.852-3.162-1.798 0-3.1 1.209-3.1 2.914v9.703h-4.34v-9.455c0-1.86-1.178-3.162-2.821-3.162-1.829 0-3.1 1.209-3.1 2.914V363h-4.526v-16.027h4.526v2.108c.775-1.519 2.356-2.48 4.34-2.48 2.201 0 4.092 1.116 5.084 2.914.837-1.767 2.821-2.914 5.208-2.914Zm17.289 12.772c1.271 0 2.821-.589 3.689-1.426l2.883 2.945c-1.426 1.488-4.185 2.48-6.541 2.48-4.774 0-8.494-3.503-8.494-8.432 0-4.836 3.565-8.339 8.246-8.339 5.022 0 7.967 3.813 7.967 9.858h-11.563c.527 1.736 1.922 2.914 3.813 2.914Zm-.031-8.773c-1.705 0-3.131.992-3.72 2.604h7.161c-.434-1.581-1.612-2.604-3.441-2.604Zm16.857 12.772c-2.573 0-5.301-.868-7.223-2.418l1.953-3.131c1.426 1.023 3.224 1.798 5.363 1.798 1.209 0 2.077-.496 2.077-1.209 0-.992-1.178-1.302-2.821-1.736-3.286-.806-5.828-1.705-5.859-4.867-.031-3.038 2.48-5.208 6.262-5.208 2.294 0 4.557.806 6.324 1.984l-1.829 3.224c-1.457-.899-3.131-1.426-4.495-1.426-1.116 0-1.891.403-1.891.961 0 .868.651 1.116 2.821 1.705 2.759.713 5.828 1.643 5.828 5.146 0 3.162-2.573 5.177-6.51 5.177Zm15.561 0c-2.573 0-5.301-.868-7.223-2.418l1.953-3.131c1.426 1.023 3.224 1.798 5.363 1.798 1.209 0 2.077-.496 2.077-1.209 0-.992-1.178-1.302-2.821-1.736-3.286-.806-5.828-1.705-5.859-4.867-.031-3.038 2.48-5.208 6.262-5.208 2.294 0 4.557.806 6.324 1.984l-1.829 3.224c-1.457-.899-3.131-1.426-4.495-1.426-1.116 0-1.891.403-1.891.961 0 .868.651 1.116 2.821 1.705 2.759.713 5.828 1.643 5.828 5.146 0 3.162-2.573 5.177-6.51 5.177Zm16.707-16.771c4.185 0 7.037 2.635 7.037 6.82V363h-4.371v-1.612c-1.147 1.302-2.976 1.984-4.712 1.984-3.41 0-6.045-2.046-6.045-5.115 0-3.162 2.945-5.332 6.665-5.332 1.302 0 2.728.279 4.092.806v-.31c0-1.705-1.054-3.193-3.689-3.193-1.488 0-2.883.496-4.154 1.147l-1.519-3.007c2.263-1.147 4.464-1.767 6.696-1.767Zm-1.023 13.64c1.736 0 3.379-.806 3.689-2.294v-1.488a10.139 10.139 0 0 0-3.441-.589c-1.643 0-2.945.961-2.945 2.263s1.147 2.108 2.697 2.108Z"/><rect width="44.138" height="6.621" x="155" y="195" fill="#592ACB" rx="3.31"/><rect width="44.138" height="6.621" x="207.966" y="195" fill="#592ACB" rx="3.31"/><rect width="129.103" height="6.621" x="260.931" y="195" fill="#D9BFFF" rx="3.31"/><path fill="#592ACB" d="M295.571 225.448v-9.63h3.433c2.238 0 3.334 1.345 3.334 3.118 0 1.777-1.105 3.127-3.339 3.127h-1.975v3.385h-1.453Zm1.453-4.617h1.843c1.42 0 2.008-.804 2.008-1.895s-.588-1.872-2.026-1.872h-1.825v3.767Zm8.941 4.777c-1.373 0-2.44-.78-2.44-2.201 0-1.641 1.401-1.998 2.769-2.158 1.298-.15 1.825-.141 1.825-.653v-.033c0-.819-.466-1.293-1.373-1.293-.945 0-1.472.493-1.679 1.006l-1.321-.301c.47-1.317 1.674-1.843 2.981-1.843 1.147 0 2.803.418 2.803 2.52v4.796h-1.373v-.987h-.057c-.268.541-.94 1.147-2.135 1.147Zm.306-1.128c1.171 0 1.853-.781 1.853-1.637v-.931c-.203.202-1.284.325-1.74.386-.814.108-1.481.376-1.481 1.128 0 .696.573 1.054 1.368 1.054Zm10.543-4.491-1.274.226c-.164-.485-.569-.969-1.443-.969-.8 0-1.402.395-1.397.95-.005.489.339.757 1.133.945l1.148.263c1.326.306 1.974.936 1.974 1.956 0 1.308-1.208 2.234-2.952 2.234-1.623 0-2.685-.719-2.921-1.998l1.359-.207c.17.71.71 1.072 1.552 1.072.922 0 1.519-.438 1.519-.997 0-.451-.325-.762-1.02-.917l-1.223-.268c-1.354-.301-1.975-.983-1.975-2.008 0-1.279 1.157-2.139 2.788-2.139 1.562 0 2.441.733 2.732 1.857Zm7.1 0-1.275.226c-.164-.485-.569-.969-1.443-.969-.8 0-1.402.395-1.397.95-.005.489.339.757 1.133.945l1.148.263c1.326.306 1.975.936 1.975 1.956 0 1.308-1.209 2.234-2.953 2.234-1.623 0-2.685-.719-2.92-1.998l1.359-.207c.169.71.71 1.072 1.551 1.072.922 0 1.519-.438 1.519-.997 0-.451-.324-.762-1.02-.917l-1.223-.268c-1.354-.301-1.975-.983-1.975-2.008 0-1.279 1.157-2.139 2.789-2.139 1.561 0 2.44.733 2.732 1.857Zm3.252 5.459-2.125-7.222h1.453l1.415 5.304h.071l1.42-5.304h1.453l1.41 5.28h.071l1.406-5.28h1.453l-2.121 7.222h-1.434l-1.467-5.214h-.108l-1.467 5.214h-1.43Zm12.184.146c-2.036 0-3.367-1.491-3.367-3.724 0-2.248 1.331-3.738 3.367-3.738s3.366 1.49 3.366 3.738c0 2.233-1.33 3.724-3.366 3.724Zm.004-1.18c1.322 0 1.942-1.162 1.942-2.549 0-1.382-.62-2.558-1.942-2.558-1.33 0-1.951 1.176-1.951 2.558 0 1.387.621 2.549 1.951 2.549Zm4.932 1.034v-7.222h1.359v1.147h.075c.263-.776.987-1.255 1.834-1.255.179 0 .456.014.597.032v1.345a3.328 3.328 0 0 0-.734-.084c-.996 0-1.725.681-1.725 1.627v4.41h-1.406Zm7.527.141c-1.754 0-3.019-1.401-3.019-3.738 0-2.342 1.284-3.719 3.028-3.719 1.345 0 1.825.818 2.079 1.265h.084v-3.579h1.406v9.63h-1.373v-1.124h-.117c-.254.461-.772 1.265-2.088 1.265Zm.31-1.199c1.213 0 1.886-1.034 1.886-2.553 0-1.509-.659-2.511-1.886-2.511-1.269 0-1.909 1.077-1.909 2.511 0 1.448.654 2.553 1.909 2.553Zm-78.275 21.204c-2.098 0-3.367-1.547-3.367-3.724 0-2.205 1.316-3.738 3.352-3.738 1.641 0 2.831.968 2.982 2.426h-1.369c-.15-.677-.696-1.241-1.589-1.241-1.176 0-1.956.973-1.956 2.52 0 1.575.766 2.567 1.956 2.567.804 0 1.411-.46 1.589-1.241h1.369c-.156 1.406-1.261 2.431-2.967 2.431Zm7.512 0c-2.036 0-3.366-1.491-3.366-3.724 0-2.248 1.33-3.738 3.366-3.738 2.037 0 3.367 1.49 3.367 3.738 0 2.233-1.33 3.724-3.367 3.724Zm.005-1.18c1.321 0 1.942-1.162 1.942-2.549 0-1.382-.621-2.558-1.942-2.558-1.331 0-1.951 1.176-1.951 2.558 0 1.387.62 2.549 1.951 2.549Zm4.932 1.034v-7.222h1.349v1.175h.089c.301-.794 1.011-1.269 1.966-1.269.964 0 1.627.479 1.942 1.269h.075c.348-.771 1.129-1.269 2.168-1.269 1.307 0 2.229.823 2.229 2.473v4.843h-1.406v-4.711c0-.978-.611-1.392-1.354-1.392-.917 0-1.449.63-1.449 1.5v4.603h-1.401v-4.801c0-.785-.541-1.302-1.321-1.302-.8 0-1.481.677-1.481 1.65v4.453h-1.406Zm11.702 2.709v-9.931h1.373v1.171h.118c.249-.447.733-1.265 2.073-1.265 1.745 0 3.033 1.377 3.033 3.719 0 2.337-1.269 3.738-3.018 3.738-1.317 0-1.834-.804-2.088-1.265h-.085v3.833h-1.406Zm1.378-6.32c0 1.519.677 2.553 1.885 2.553 1.256 0 1.914-1.105 1.914-2.553 0-1.434-.639-2.511-1.914-2.511-1.227 0-1.885 1.002-1.885 2.511Zm6.795 3.611v-7.222h1.359v1.147h.075c.263-.776.987-1.255 1.834-1.255.178 0 .456.014.597.032v1.345a3.328 3.328 0 0 0-.734-.084c-.997 0-1.725.681-1.725 1.627v4.41h-1.406Zm7.865.146c-2.036 0-3.367-1.491-3.367-3.724 0-2.248 1.331-3.738 3.367-3.738s3.367 1.49 3.367 3.738c0 2.233-1.331 3.724-3.367 3.724Zm.005-1.18c1.321 0 1.942-1.162 1.942-2.549 0-1.382-.621-2.558-1.942-2.558-1.331 0-1.952 1.176-1.952 2.558 0 1.387.621 2.549 1.952 2.549Zm4.931 1.034v-7.222h1.35v1.175h.089c.301-.794 1.011-1.269 1.966-1.269.964 0 1.627.479 1.942 1.269h.075c.348-.771 1.128-1.269 2.168-1.269 1.307 0 2.228.823 2.228 2.473v4.843h-1.405v-4.711c0-.978-.612-1.392-1.355-1.392-.917 0-1.448.63-1.448 1.5v4.603h-1.401v-4.801c0-.785-.541-1.302-1.322-1.302-.799 0-1.481.677-1.481 1.65v4.453h-1.406Zm14.816.146c-2.13 0-3.438-1.467-3.438-3.71 0-2.219 1.326-3.752 3.339-3.752 1.636 0 3.197 1.02 3.197 3.63v.498h-5.134c.037 1.392.846 2.173 2.05 2.173.799 0 1.411-.348 1.664-1.03l1.331.24c-.32 1.175-1.434 1.951-3.009 1.951Zm-2.032-4.387h3.753c-.005-1.105-.72-1.914-1.811-1.914-1.142 0-1.885.889-1.942 1.914Zm12.103-1.218-1.275.226c-.164-.485-.569-.969-1.443-.969-.8 0-1.401.395-1.397.95-.004.489.339.757 1.133.945l1.148.263c1.326.306 1.975.936 1.975 1.956 0 1.308-1.209 2.234-2.953 2.234-1.622 0-2.685-.719-2.92-1.998l1.359-.207c.169.71.71 1.072 1.551 1.072.922 0 1.519-.438 1.519-.997 0-.451-.324-.762-1.02-.917l-1.223-.268c-1.354-.301-1.975-.983-1.975-2.008 0-1.279 1.157-2.139 2.789-2.139 1.561 0 2.44.733 2.732 1.857Zm7.099 0-1.274.226c-.165-.485-.569-.969-1.444-.969-.799 0-1.401.395-1.397.95-.004.489.339.757 1.134.945l1.147.263c1.326.306 1.975.936 1.975 1.956 0 1.308-1.209 2.234-2.953 2.234-1.622 0-2.685-.719-2.92-1.998l1.359-.207c.169.71.71 1.072 1.551 1.072.922 0 1.519-.438 1.519-.997 0-.451-.324-.762-1.02-.917l-1.223-.268c-1.354-.301-1.975-.983-1.975-2.008 0-1.279 1.157-2.139 2.789-2.139 1.561 0 2.44.733 2.732 1.857Zm4.8 5.605c-2.131 0-3.438-1.467-3.438-3.71 0-2.219 1.326-3.752 3.339-3.752 1.636 0 3.197 1.02 3.197 3.63v.498h-5.134c.037 1.392.846 2.173 2.05 2.173.799 0 1.41-.348 1.664-1.03l1.331.24c-.32 1.175-1.434 1.951-3.009 1.951Zm-2.032-4.387h3.753c-.005-1.105-.72-1.914-1.811-1.914-1.142 0-1.885.889-1.942 1.914Zm10.604-.574c0-2.356.63-4.321 1.824-5.995h1.289c-.927 1.241-1.656 3.762-1.656 5.995 0 2.238.729 4.759 1.656 6h-1.289c-1.194-1.674-1.824-3.639-1.824-6Zm4.576 4.815v-1.053l3.259-3.376c1.034-1.096 1.542-1.707 1.542-2.558 0-.959-.743-1.561-1.721-1.561-1.039 0-1.707.677-1.702 1.711h-1.387c0-1.758 1.316-2.925 3.117-2.925 1.815 0 3.075 1.185 3.075 2.732 0 1.077-.503 1.928-2.266 3.71l-1.914 2.004v.07h4.336v1.246h-6.339Zm10.843-4.81c0 2.356-.63 4.321-1.824 5.995h-1.289c.927-1.241 1.656-3.762 1.656-5.995 0-2.238-.729-4.759-1.656-6h1.289c1.194 1.674 1.824 3.639 1.824 6Z"/><rect width="44.138" height="6.621" x="398.862" y="195" fill="#9E9E9E" rx="3.31"/><rect width="351" height="40" x="124" y="388" fill="#592ACB" rx="4"/><path fill="#fff" d="M226.143 412h-2.13l-2.43-3.465h-1.995V412h-1.875v-10.305h4.485c2.205 0 3.855 1.41 3.855 3.42 0 1.56-1.005 2.76-2.49 3.225l2.58 3.66Zm-6.555-8.58v3.39h2.4c1.275 0 2.16-.645 2.16-1.695s-.885-1.695-2.16-1.695h-2.4Zm9.03-.345c-.585 0-1.05-.495-1.05-1.05a1.05 1.05 0 0 1 1.05-1.035c.57 0 1.035.48 1.035 1.035 0 .555-.465 1.05-1.035 1.05Zm-.93 8.925v-7.755h1.83V412h-1.83Zm6.717.18c-1.185 0-2.46-.42-3.39-1.17l.825-1.275c.75.54 1.62.9 2.595.9.735 0 1.245-.315 1.245-.795 0-.6-.675-.795-1.56-1.035-1.68-.435-2.745-.915-2.76-2.295 0-1.455 1.2-2.445 2.925-2.445 1.065 0 2.13.375 2.97.93l-.765 1.335c-.735-.465-1.53-.705-2.205-.705-.645 0-1.14.255-1.14.69 0 .495.405.645 1.59.99 1.305.36 2.715.81 2.715 2.43 0 1.485-1.23 2.445-3.045 2.445Zm8.385 0c-2.25 0-4.155-1.86-4.155-4.065s1.905-4.05 4.155-4.05 4.155 1.845 4.155 4.05-1.905 4.065-4.155 4.065Zm0-1.56c1.275 0 2.355-1.14 2.355-2.505 0-1.35-1.08-2.49-2.355-2.49-1.29 0-2.37 1.14-2.37 2.49 0 1.365 1.08 2.505 2.37 2.505Zm5.742 1.38v-10.485h1.83V412h-1.83Zm6.448 0-3.33-7.755h1.935l2.25 5.64 2.205-5.64h1.95L256.705 412h-1.725Zm7.212-8.925c-.585 0-1.05-.495-1.05-1.05a1.05 1.05 0 0 1 1.05-1.035c.57 0 1.035.48 1.035 1.035 0 .555-.465 1.05-1.035 1.05Zm-.93 8.925v-7.755h1.83V412h-1.83Zm7.227-7.935c2.055 0 3.33 1.305 3.33 3.27V412h-1.785v-.93c-.57.72-1.545 1.11-2.445 1.11-1.65 0-2.895-.975-2.895-2.475 0-1.53 1.425-2.58 3.165-2.58.705 0 1.47.15 2.175.42v-.21c0-.9-.495-1.77-1.905-1.77-.735 0-1.44.255-2.1.585l-.63-1.275c1.095-.54 2.115-.81 3.09-.81Zm-.495 6.78c.885 0 1.83-.45 2.04-1.275v-.87a5.9 5.9 0 0 0-1.905-.3c-.915 0-1.65.51-1.65 1.245 0 .735.645 1.2 1.515 1.2Zm14.762-6.78c1.62 0 2.835 1.245 2.835 3V412h-1.785v-4.635c0-1.02-.615-1.74-1.5-1.74-1.005 0-1.695.675-1.695 1.62V412h-1.785v-4.635c0-1.02-.615-1.74-1.515-1.74-.99 0-1.695.675-1.695 1.62V412h-1.83v-7.755h1.83v1.05c.39-.75 1.185-1.23 2.16-1.23 1.095 0 1.995.555 2.475 1.47.375-.9 1.35-1.47 2.505-1.47Zm8.564 8.115c-2.25 0-4.155-1.86-4.155-4.065s1.905-4.05 4.155-4.05 4.155 1.845 4.155 4.05-1.905 4.065-4.155 4.065Zm0-1.56c1.275 0 2.355-1.14 2.355-2.505 0-1.35-1.08-2.49-2.355-2.49-1.29 0-2.37 1.14-2.37 2.49 0 1.365 1.08 2.505 2.37 2.505Zm10.921-7.545c-.585 0-1.05-.495-1.05-1.05a1.05 1.05 0 0 1 1.05-1.035c.57 0 1.035.48 1.035 1.035 0 .555-.465 1.05-1.035 1.05Zm-.93 8.925v-7.755h1.83V412h-1.83Zm3.852 0v-10.485h1.83V412h-1.83Zm12.676-7.935c2.055 0 3.555 1.68 3.555 4.05 0 2.385-1.5 4.065-3.555 4.065-1.155 0-2.085-.525-2.7-1.41v3.81h-1.83v-10.335h1.83v1.23c.615-.885 1.545-1.41 2.7-1.41Zm-.495 6.555c1.305 0 2.235-1.05 2.235-2.505 0-1.455-.93-2.49-2.235-2.49-1.29 0-2.19 1.035-2.19 2.49 0 1.455.9 2.505 2.19 2.505Zm7.58-4.875c.495-1.035 1.5-1.68 2.775-1.68v1.56c-1.665 0-2.775.99-2.775 2.46V412h-1.83v-7.755h1.83v1.5Zm7.69 6.435c-2.25 0-4.155-1.86-4.155-4.065s1.905-4.05 4.155-4.05 4.155 1.845 4.155 4.05-1.905 4.065-4.155 4.065Zm0-1.56c1.275 0 2.355-1.14 2.355-2.505 0-1.35-1.08-2.49-2.355-2.49-1.29 0-2.37 1.14-2.37 2.49 0 1.365 1.08 2.505 2.37 2.505Zm10.318-6.555c2.055 0 3.555 1.68 3.555 4.05 0 2.385-1.5 4.065-3.555 4.065-1.155 0-2.085-.525-2.7-1.41V412h-1.83v-10.485h1.83v3.96c.615-.885 1.545-1.41 2.7-1.41Zm-.495 6.555c1.305 0 2.235-1.05 2.235-2.505 0-1.455-.93-2.49-2.235-2.49-1.29 0-2.19 1.035-2.19 2.49 0 1.455.9 2.505 2.19 2.505Zm5.705 1.38v-10.485h1.83V412h-1.83Zm7.467-1.44c.72 0 1.575-.33 2.01-.78l1.155 1.2c-.675.72-2.025 1.2-3.15 1.2-2.22 0-4.05-1.695-4.05-4.08 0-2.325 1.74-4.035 3.945-4.035 2.4 0 3.795 1.815 3.795 4.68h-5.85c.225 1.065 1.035 1.815 2.145 1.815Zm-.015-4.875c-1.02 0-1.845.645-2.115 1.665h4.08c-.21-.975-.87-1.665-1.965-1.665Zm14.262-1.62c1.62 0 2.835 1.245 2.835 3V412h-1.785v-4.635c0-1.02-.615-1.74-1.5-1.74-1.005 0-1.695.675-1.695 1.62V412h-1.785v-4.635c0-1.02-.615-1.74-1.515-1.74-.99 0-1.695.675-1.695 1.62V412h-1.83v-7.755h1.83v1.05c.39-.75 1.185-1.23 2.16-1.23 1.095 0 1.995.555 2.475 1.47.375-.9 1.35-1.47 2.505-1.47Zm8.189 0c2.055 0 3.33 1.305 3.33 3.27V412h-1.785v-.93c-.57.72-1.545 1.11-2.445 1.11-1.65 0-2.895-.975-2.895-2.475 0-1.53 1.425-2.58 3.165-2.58.705 0 1.47.15 2.175.42v-.21c0-.9-.495-1.77-1.905-1.77-.735 0-1.44.255-2.1.585l-.63-1.275c1.095-.54 2.115-.81 3.09-.81Zm-.495 6.78c.885 0 1.83-.45 2.04-1.275v-.87a5.9 5.9 0 0 0-1.905-.3c-.915 0-1.65.51-1.65 1.245 0 .735.645 1.2 1.515 1.2Z"/></g><defs><linearGradient id="b" x1="536.816" x2="536.816" y1="137.926" y2="229.576" gradientUnits="userSpaceOnUse"><stop stop-color="#8060FE"/><stop offset="1" stop-color="#626BFA"/></linearGradient><linearGradient id="d" x1="192.726" x2="174.795" y1="91.129" y2="122.183" gradientUnits="userSpaceOnUse"><stop stop-color="#FF980E"/><stop offset=".21" stop-color="#FF7139"/><stop offset=".36" stop-color="#FF5854"/><stop offset=".46" stop-color="#FF4F5E"/><stop offset=".69" stop-color="#FF3750"/><stop offset=".86" stop-color="#F92261"/><stop offset="1" stop-color="#F5156C"/></linearGradient><linearGradient id="e" x1="192.726" x2="174.795" y1="91.129" y2="122.183" gradientUnits="userSpaceOnUse"><stop stop-color="#FFF44F" stop-opacity=".8"/><stop offset=".09" stop-color="#FFF44F" stop-opacity=".7"/><stop offset=".75" stop-color="#FFF44F" stop-opacity="0"/></linearGradient><linearGradient id="f" x1="194.178" x2="194.178" y1="127.181" y2="88.705" gradientUnits="userSpaceOnUse"><stop stop-color="#3A8EE6"/><stop offset=".24" stop-color="#5C79F0"/><stop offset=".63" stop-color="#9059FF"/><stop offset="1" stop-color="#C139E6"/></linearGradient><linearGradient id="g" x1="187.637" x2="203.628" y1="88.566" y2="104.556" gradientUnits="userSpaceOnUse"><stop stop-color="#6E008B" stop-opacity=".5"/><stop offset=".5" stop-color="#C846CB" stop-opacity="0"/></linearGradient><linearGradient id="h" x1="202.122" x2="194.612" y1="108.347" y2="115.856" gradientUnits="userSpaceOnUse"><stop offset=".14" stop-color="#6A2BEA" stop-opacity="0"/><stop offset=".34" stop-color="#642DE4" stop-opacity=".03"/><stop offset=".55" stop-color="#5131D3" stop-opacity=".12"/><stop offset=".76" stop-color="#3139B7" stop-opacity=".27"/><stop offset=".98" stop-color="#054490" stop-opacity=".48"/><stop offset="1" stop-color="#00458B" stop-opacity=".5"/></linearGradient><linearGradient id="i" x1="190.076" x2="192.253" y1="114.805" y2="117.401" gradientUnits="userSpaceOnUse"><stop stop-color="#960E18" stop-opacity=".6"/><stop offset=".19" stop-color="#AC1624" stop-opacity=".48"/><stop offset=".58" stop-color="#E42C41" stop-opacity=".16"/><stop offset=".75" stop-color="#FF3750" stop-opacity="0"/></linearGradient><clipPath id="a"><rect width="620" height="450" fill="#fff" rx="15"/></clipPath></defs></svg>
