<svg width="738" height="302" viewBox="0 0 738 302" xmlns="http://www.w3.org/2000/svg"><g stroke="#561BB6" stroke-width="2" fill="none" fill-rule="evenodd"><path d="M595.777 103.176c29.146-11.67 62.15 2.887 73.527 32.654 11.244 29.26-2.998 62.308-31.804 73.836l-157.754 63.117c-29.483 11.81-62.784-3.266-73.809-33.34L346.581 78.28c-10.905-29.4 3.817-62.247 32.765-73.432 29.288-11.324 62.25 3.892 73.133 33.624l39.097 106.297 104.2-41.594z"/><path d="M737 114.469c0 55.92-44.827 101.25-100.125 101.25s-100.125-45.33-100.125-101.25 44.827-101.25 100.125-101.25S737 58.549 737 114.469zM287.809 125.37c13.78 29.128 1.783 64.634-27.046 79.457L87.26 293.735c-29.267 15.011-64.636 3.269-79.192-26.172-14.552-29.44-2.582-65.322 26.683-80.334L208.254 98.32c28.983-14.76 64.017-3.52 78.825 25.293l.365.878.365.878z"/></g></svg>
