<svg xmlns="http://www.w3.org/2000/svg" width="600" height="450" fill="none" viewBox="0 0 600 450"><rect width="600" height="450" fill="#ECDFFF" rx="15"/><g filter="url(#a)"><g clip-path="url(#b)"><rect width="507.821" height="358.053" x="46" y="46" fill="#fff" rx="5.951"/><path fill="#C9C3D2" d="M40.05 42.033h525.673v28.763H40.05z"/><circle cx="57.364" cy="57.365" r="3.099" fill="#592ACB"/><circle cx="67.696" cy="57.365" r="3.099" fill="#592ACB"/><circle cx="78.028" cy="57.365" r="3.099" fill="#592ACB"/><path fill="#0C0C0D" d="M99.29 246.289c-3.91 0-7.393-1.314-10.02-3.745l2.792-3.318c2.135 1.84 4.566 2.956 7.424 2.956 2.431 0 3.68-1.116 3.68-2.529 0-1.61-1.314-2.103-4.764-2.891-4.763-1.084-8.147-2.431-8.147-6.8 0-4.173 3.416-7.031 8.344-7.031 3.68 0 6.538 1.15 8.837 3.121l-2.529 3.482c-2.004-1.609-4.271-2.496-6.44-2.496-2.069 0-3.317 1.084-3.317 2.431 0 1.642 1.347 2.168 4.83 2.956 4.861 1.085 8.081 2.53 8.081 6.702 0 4.304-3.253 7.162-8.772 7.162Zm20.427 0c-5.026 0-9.264-4.074-9.264-8.903 0-4.829 4.27-8.87 9.297-8.87 2.759 0 5.026 1.117 6.669 2.891l-3.187 2.727c-.854-.953-2.201-1.577-3.515-1.577-2.497 0-4.599 2.201-4.599 4.796 0 2.661 2.102 4.895 4.632 4.895 1.314 0 2.694-.657 3.581-1.642l3.186 2.693c-1.675 1.84-3.975 2.99-6.8 2.99Zm17.275-17.773c4.435 0 7.458 2.792 7.458 7.227v10.152h-4.632v-1.709c-1.216 1.38-3.154 2.103-4.994 2.103-3.614 0-6.406-2.168-6.406-5.421 0-3.351 3.121-5.65 7.063-5.65 1.38 0 2.891.296 4.337.854v-.329c0-1.806-1.117-3.383-3.91-3.383-1.577 0-3.055.525-4.402 1.215l-1.61-3.186c2.398-1.216 4.731-1.873 7.096-1.873Zm-1.084 14.455c1.84 0 3.581-.854 3.91-2.431v-1.577a10.757 10.757 0 0 0-3.647-.624c-1.741 0-3.121 1.018-3.121 2.398 0 1.38 1.216 2.234 2.858 2.234Zm22.407-14.455c3.68 0 6.308 2.727 6.308 6.57v10.809h-4.632v-9.79c0-2.103-1.315-3.548-3.22-3.548-2.004 0-3.548 1.445-3.548 3.285l-.033-.099v10.152h-4.796V228.91h4.796v2.136c1.019-1.544 2.924-2.53 5.125-2.53Zm20.18 0c3.679 0 6.307 2.727 6.307 6.57v10.809h-4.632v-9.79c0-2.103-1.314-3.548-3.219-3.548-2.004 0-3.548 1.445-3.548 3.285l-.033-.099v10.152h-4.797V228.91h4.797v2.136c1.018-1.544 2.924-2.53 5.125-2.53Zm12.755-1.938a2.615 2.615 0 0 1-2.628-2.628c0-1.347 1.15-2.563 2.628-2.563 1.412 0 2.562 1.216 2.562 2.563 0 1.445-1.15 2.628-2.562 2.628Zm-2.431 19.317V228.91h4.796v16.985h-4.796Zm18.806-17.379c3.68 0 6.308 2.727 6.308 6.57v10.809h-4.632v-9.79c0-2.103-1.314-3.548-3.22-3.548-2.004 0-3.548 1.445-3.548 3.285l-.033-.099v10.152h-4.796V228.91h4.796v2.136c1.019-1.544 2.924-2.53 5.125-2.53Zm22.644.394h4.829v15.178c0 4.369-3.778 7.457-9.133 7.457-2.989 0-5.815-.952-7.49-2.266l1.675-3.384c1.117.985 3.089 1.61 5.06 1.61 3.088 0 5.059-1.413 5.059-3.614v-1.873c-1.347 1.643-3.384 2.628-5.618 2.628-4.271 0-7.523-3.351-7.523-8.081 0-4.731 3.252-8.049 7.523-8.049 2.3 0 4.468 1.084 5.618 2.694v-2.3Zm-4.107 11.696c2.399 0 4.107-1.676 4.107-4.041 0-2.366-1.708-4.008-4.107-4.008-2.398 0-4.106 1.642-4.106 4.008 0 2.365 1.708 4.041 4.106 4.041Zm28.014-12.616v.92h3.679v3.877h-3.679v13.108h-4.6v-13.108h-2.332v-3.877h2.332v-1.478c0-3.055 2.103-5.191 5.092-5.191 1.38 0 2.924.592 3.91 1.479l-1.15 2.923c-.328-.328-.985-.558-1.643-.558-.887 0-1.609.788-1.609 1.905Zm15.109 18.299c-5.06 0-9.298-4.074-9.298-8.903 0-4.829 4.238-8.87 9.298-8.87 5.026 0 9.231 4.041 9.231 8.87 0 4.829-4.205 8.903-9.231 8.903Zm0-4.041c2.529 0 4.665-2.234 4.665-4.862s-2.136-4.829-4.665-4.829c-2.563 0-4.698 2.201-4.698 4.829 0 2.628 2.135 4.862 4.698 4.862Zm17.273-10.184c1.117-2.201 3.219-3.548 5.815-3.548v4.041c-3.548 0-5.815 2.037-5.815 5.223v8.115h-4.797V228.91h4.797v3.154Zm25.773 9.987c1.347 0 2.99-.624 3.91-1.511l3.055 3.121c-1.511 1.577-4.435 2.628-6.932 2.628-5.059 0-9.002-3.712-9.002-8.936 0-5.125 3.778-8.837 8.739-8.837 5.322 0 8.443 4.041 8.443 10.447H308.29c.559 1.84 2.037 3.088 4.041 3.088Zm-.033-9.297c-1.807 0-3.318 1.051-3.942 2.76h7.589c-.46-1.676-1.708-2.76-3.647-2.76Zm27.49 13.141h-5.158l-3.679-5.125-3.712 5.125h-5.06l6.242-8.64-5.979-8.345h5.191l3.384 4.731 3.416-4.731h5.059l-5.946 8.246 6.242 8.739Zm13.088-17.379c4.534 0 7.819 3.679 7.819 8.87 0 5.224-3.285 8.903-7.819 8.903-2.365 0-4.336-1.018-5.683-2.792v8.048h-4.796V228.91h4.796v2.366c1.347-1.742 3.318-2.76 5.683-2.76Zm-1.379 13.732c2.661 0 4.533-2.004 4.533-4.862 0-2.825-1.872-4.829-4.533-4.829-2.333 0-4.041 1.708-4.304 4.172v1.314c.263 2.497 1.971 4.205 4.304 4.205Zm20.932 4.041c-5.06 0-9.298-4.074-9.298-8.903 0-4.829 4.238-8.87 9.298-8.87 5.026 0 9.231 4.041 9.231 8.87 0 4.829-4.205 8.903-9.231 8.903Zm0-4.041c2.529 0 4.665-2.234 4.665-4.862s-2.136-4.829-4.665-4.829c-2.563 0-4.698 2.201-4.698 4.829 0 2.628 2.135 4.862 4.698 4.862Zm18.85 4.041c-2.727 0-5.618-.92-7.655-2.562l2.07-3.319c1.511 1.085 3.417 1.906 5.683 1.906 1.282 0 2.201-.526 2.201-1.281 0-1.052-1.248-1.38-2.989-1.84-3.482-.854-6.176-1.807-6.209-5.158-.033-3.219 2.628-5.519 6.636-5.519 2.431 0 4.829.854 6.702 2.103l-1.938 3.416c-1.545-.953-3.319-1.511-4.764-1.511-1.183 0-2.004.427-2.004 1.018 0 .92.69 1.183 2.99 1.807 2.923.756 6.176 1.741 6.176 5.454 0 3.351-2.727 5.486-6.899 5.486Zm21.385-17.379h4.796v16.985h-4.796v-2.136c-1.018 1.544-2.924 2.53-5.125 2.53-3.679 0-6.308-2.727-6.308-6.57V228.91h4.633v9.79c0 2.103 1.314 3.548 3.219 3.548 2.004 0 3.548-1.445 3.548-3.285l.033.099V228.91Zm13.708 3.154c1.117-2.201 3.219-3.548 5.815-3.548v4.041c-3.548 0-5.815 2.037-5.815 5.223v8.115h-4.797V228.91h4.797v3.154Zm16.597 9.987c1.347 0 2.99-.624 3.91-1.511l3.055 3.121c-1.511 1.577-4.435 2.628-6.932 2.628-5.059 0-9.001-3.712-9.001-8.936 0-5.125 3.778-8.837 8.739-8.837 5.322 0 8.443 4.041 8.443 10.447h-12.254c.558 1.84 2.037 3.088 4.04 3.088Zm-.032-9.297c-1.807 0-3.318 1.051-3.943 2.76h7.589c-.46-1.676-1.708-2.76-3.646-2.76Zm17.864 13.535c-2.727 0-5.618-.92-7.655-2.562l2.07-3.319c1.511 1.085 3.416 1.906 5.683 1.906 1.282 0 2.201-.526 2.201-1.281 0-1.052-1.248-1.38-2.989-1.84-3.482-.854-6.176-1.807-6.209-5.158-.033-3.219 2.628-5.519 6.636-5.519 2.431 0 4.829.854 6.702 2.103l-1.939 3.416c-1.544-.953-3.318-1.511-4.763-1.511-1.183 0-2.004.427-2.004 1.018 0 .92.69 1.183 2.989 1.807 2.924.756 6.177 1.741 6.177 5.454 0 3.351-2.727 5.486-6.899 5.486Zm12.843 0a3.05 3.05 0 0 1-3.055-3.055c0-1.544 1.347-2.924 3.055-2.924 1.61 0 2.924 1.38 2.924 2.924 0 1.675-1.314 3.055-2.924 3.055Zm9.529 0a3.049 3.049 0 0 1-3.055-3.055c0-1.544 1.346-2.924 3.055-2.924 1.61 0 2.924 1.38 2.924 2.924 0 1.675-1.314 3.055-2.924 3.055Zm9.528 0a3.05 3.05 0 0 1-3.055-3.055c0-1.544 1.347-2.924 3.055-2.924 1.61 0 2.924 1.38 2.924 2.924 0 1.675-1.314 3.055-2.924 3.055Z"/><rect width="423.385" height="44.63" x="89.424" y="295.895" fill="#EAEAEA" rx="22.315"/><rect width="91.006" height="44.784" x="88.218" y="295.895" fill="url(#c)" rx="22.392"/><path fill="#fff" d="M115.607 315.349c2.844 0 5.195 1.836 5.195 4.882 0 3.157-2.53 5.329-5.889 5.329-4.501 0-6.539-3.224-6.539-7.703 0-4.792 2.799-8.218 7.054-8.218 1.926 0 3.471.65 4.725 1.657l-1.568 2.508c-.94-.784-1.858-1.254-3.135-1.254-1.993 0-3.358 1.657-3.65 4.255.963-.918 2.352-1.456 3.807-1.456Zm-.873 7.412c1.634 0 2.665-1.142 2.665-2.374 0-1.477-1.254-2.351-2.755-2.351-1.276 0-2.306.694-2.754 1.792.291 1.881 1.12 2.933 2.844 2.933Zm11.724-5.128c-2.284 0-3.829-1.724-3.829-3.918 0-2.217 1.545-3.964 3.851-3.964 2.329 0 3.829 1.769 3.829 3.941 0 2.217-1.567 3.941-3.851 3.941Zm-1.814 7.658 10.704-15.383h2.373l-10.703 15.383h-2.374Zm1.836-9.584c.941 0 1.635-.783 1.635-2.015 0-1.187-.694-1.993-1.657-1.993-.941 0-1.612.784-1.612 1.993s.716 2.015 1.634 2.015Zm9.383 9.831c-2.307 0-3.852-1.747-3.852-3.941 0-2.195 1.568-3.941 3.852-3.941 2.306 0 3.829 1.769 3.829 3.941 0 2.216-1.59 3.941-3.829 3.941Zm0-1.949c.962 0 1.634-.783 1.634-1.992 0-1.21-.716-2.016-1.634-2.016-.986 0-1.657.784-1.657 2.016 0 1.186.694 1.992 1.657 1.992Z"/><rect width="27.776" height="27.776" x="164.232" y="131.895" fill="#592ACB" rx="13.888"/><path fill="#fff" d="M175.798 152.738c-.308 0-.603-.122-.82-.34l-3.477-3.477a1.158 1.158 0 0 1 .824-1.964 1.16 1.16 0 0 1 .815.325l2.5 2.5 7.321-10.458a1.158 1.158 0 0 1 2.084.466c.054.3-.012.61-.184.862l-8.114 11.591a1.162 1.162 0 0 1-.849.495.834.834 0 0 1-.1 0Z"/><path fill="#D9BFFF" d="M192.008 144.046h83.328v3.472h-83.328z"/><rect width="27.776" height="27.776" x="275.336" y="131.895" fill="#592ACB" rx="13.888"/><path fill="#fff" d="M286.901 152.738a1.16 1.16 0 0 1-.82-.34l-3.477-3.477a1.158 1.158 0 0 1 .824-1.964c.304-.003.597.114.815.325l2.5 2.5 7.321-10.458a1.16 1.16 0 0 1 1.9 1.328l-8.114 11.591a1.15 1.15 0 0 1-.848.495.85.85 0 0 1-.101 0Z"/><path fill="#D9BFFF" d="M303.111 144.046h41.664v3.472h-41.664zM344.775 144.046h39.06v3.472h-39.06z"/><rect width="31.248" height="31.248" x="382.099" y="130.159" fill="#592ACB" rx="15.624"/><path fill="#fff" d="m404.423 151.257-4.179-4.179a5.215 5.215 0 1 0-1.225 1.226l4.178 4.179a.866.866 0 0 0 1.226-1.226Zm-8.412-3.72a3.465 3.465 0 0 1-3.4-4.143 3.461 3.461 0 0 1 2.723-2.723 3.459 3.459 0 0 1 3.559 1.474 3.464 3.464 0 0 1-.431 4.377 3.467 3.467 0 0 1-2.451 1.015Z"/><rect width="31.248" height="31.248" x="382.099" y="130.159" stroke="#D9BFFF" stroke-width="3.472" rx="15.624"/><path fill="#592ACB" d="M154.781 173.457c-.244-.802-.865-1.291-1.779-1.291-1.224 0-2.108.947-2.108 2.652 0 1.717.869 2.667 2.138 2.667 1.139 0 1.86-.684 1.883-1.764h-1.746v-1.073h3.074v.91c0 1.953-1.343 3.159-3.218 3.159-2.09 0-3.511-1.487-3.511-3.884 0-2.441 1.487-3.898 3.47-3.898 1.675 0 2.963 1.035 3.196 2.522h-1.399Zm5.244 5.267c-1.712 0-2.759-1.135-2.759-2.918 0-1.753 1.062-2.948 2.689-2.948 1.398 0 2.597.877 2.597 2.87v.411h-3.958c.011.973.584 1.542 1.45 1.542.577 0 1.021-.251 1.202-.732l1.25.141c-.236.987-1.146 1.634-2.471 1.634Zm-1.427-3.488h2.67c-.007-.773-.525-1.335-1.294-1.335-.799 0-1.336.61-1.376 1.335Zm7.924-2.304v1.036h-1.121v2.937c0 .54.27.658.606.658.167 0 .319-.033.393-.052l.225 1.047a2.691 2.691 0 0 1-.788.133c-1.006.03-1.783-.496-1.775-1.565v-3.158h-.806v-1.036h.806v-1.361h1.339v1.361h1.121Zm8.193 1.502-1.22.133c-.104-.374-.429-.71-1.047-.71-.558 0-.984.266-.98.651-.004.329.225.529.803.658l.969.207c1.072.233 1.594.729 1.598 1.539-.004 1.076-1.007 1.812-2.427 1.812-1.394 0-2.271-.617-2.437-1.66l1.305-.126c.115.51.514.777 1.128.777.637 0 1.058-.293 1.058-.681 0-.322-.244-.533-.765-.647l-.97-.204c-1.091-.225-1.601-.773-1.597-1.601-.004-1.051.928-1.724 2.297-1.724 1.331 0 2.101.614 2.285 1.576Zm4.064-1.502v1.036h-1.121v2.937c0 .54.27.658.606.658.167 0 .319-.033.393-.052l.225 1.047a2.691 2.691 0 0 1-.788.133c-1.006.03-1.783-.496-1.775-1.565v-3.158h-.806v-1.036h.806v-1.361h1.339v1.361h1.121Zm2.754 5.796c-1.083 0-1.901-.592-1.901-1.709 0-1.28 1.054-1.609 2.157-1.727 1.002-.107 1.405-.126 1.405-.511v-.022c0-.558-.34-.876-.962-.876-.654 0-1.032.333-1.165.721l-1.25-.178c.296-1.035 1.213-1.568 2.408-1.568 1.084 0 2.308.451 2.308 1.953v3.802h-1.287v-.78h-.044c-.245.477-.777.895-1.669.895Zm.348-.984c.806 0 1.317-.536 1.317-1.169v-.669c-.174.14-.877.229-1.228.277-.599.085-1.047.3-1.047.814 0 .492.399.747.958.747Zm3.998.869v-5.681h1.299v.947h.059c.207-.658.751-1.028 1.402-1.028.148 0 .359.014.481.037v1.231a2.568 2.568 0 0 0-.622-.077c-.736 0-1.28.51-1.28 1.231v3.34h-1.339Zm7.272-5.681v1.036h-1.12v2.937c0 .54.27.658.606.658.167 0 .318-.033.392-.052l.226 1.047a2.691 2.691 0 0 1-.788.133c-1.006.03-1.783-.496-1.775-1.565v-3.158h-.807v-1.036h.807v-1.361h1.339v1.361h1.12Zm3.574 5.792c-1.712 0-2.759-1.135-2.759-2.918 0-1.753 1.062-2.948 2.689-2.948 1.398 0 2.597.877 2.597 2.87v.411h-3.958c.011.973.584 1.542 1.45 1.542.577 0 1.021-.251 1.202-.732l1.25.141c-.236.987-1.146 1.634-2.471 1.634Zm-1.427-3.488h2.67c-.007-.773-.525-1.335-1.294-1.335-.799 0-1.336.61-1.376 1.335Zm7.195 3.477c-1.339 0-2.342-1.061-2.342-2.933 0-1.894 1.032-2.922 2.346-2.922 1.002 0 1.42.603 1.623 1.014h.056v-2.834h1.342v7.575h-1.316v-.895h-.082c-.211.415-.651.995-1.627.995Zm.373-1.098c.855 0 1.336-.74 1.336-1.842 0-1.103-.474-1.816-1.336-1.816-.891 0-1.35.758-1.35 1.816 0 1.065.466 1.842 1.35 1.842ZM265.013 178.613v-7.575h4.927v1.151h-3.554v2.056h3.299v1.15h-3.299v2.068h3.584v1.15h-4.957Zm7.607-3.329v3.329h-1.339v-5.681h1.28v.965h.067c.258-.632.843-1.039 1.694-1.039 1.172 0 1.949.777 1.945 2.138v3.617h-1.339v-3.41c0-.758-.414-1.213-1.106-1.213-.706 0-1.202.473-1.202 1.294Zm7.845-2.352v1.036h-1.12v2.937c0 .54.27.658.606.658.167 0 .318-.033.392-.052l.226 1.047a2.691 2.691 0 0 1-.788.133c-1.006.03-1.783-.496-1.775-1.565v-3.158h-.807v-1.036h.807v-1.361h1.339v1.361h1.12Zm3.574 5.792c-1.712 0-2.759-1.135-2.759-2.918 0-1.753 1.062-2.948 2.689-2.948 1.398 0 2.597.877 2.597 2.87v.411h-3.958c.011.973.584 1.542 1.45 1.542.577 0 1.021-.251 1.202-.732l1.25.141c-.237.987-1.146 1.634-2.471 1.634Zm-1.427-3.488h2.67c-.007-.773-.525-1.335-1.294-1.335-.799 0-1.336.61-1.376 1.335Zm5.086 3.377v-5.681h1.299v.947h.059c.207-.658.751-1.028 1.402-1.028.148 0 .359.014.481.037v1.231a2.568 2.568 0 0 0-.622-.077c-.736 0-1.28.51-1.28 1.231v3.34h-1.339Zm6.714 0v-5.681h1.339v5.681h-1.339Zm.673-6.487c-.429 0-.777-.326-.777-.725 0-.403.348-.729.777-.729.425 0 .773.326.773.729 0 .399-.348.725-.773.725Zm3.382 3.158v3.329h-1.339v-5.681h1.28v.965h.066c.259-.632.843-1.039 1.694-1.039 1.173 0 1.949.777 1.946 2.138v3.617h-1.339v-3.41c0-.758-.414-1.213-1.106-1.213-.707 0-1.202.473-1.202 1.294Zm7.886-2.352v1.036h-1.18v4.645h-1.339v-4.645h-.84v-1.036h.84v-.536c0-1.147.788-1.713 1.775-1.713.463 0 .844.096 1.017.155l-.27 1.036a1.729 1.729 0 0 0-.499-.081c-.499 0-.684.248-.684.691v.448h1.18Zm3.313 5.792c-1.665 0-2.722-1.172-2.722-2.929 0-1.761 1.057-2.937 2.722-2.937 1.664 0 2.722 1.176 2.722 2.937 0 1.757-1.058 2.929-2.722 2.929Zm.007-1.072c.907 0 1.358-.821 1.358-1.861 0-1.039-.451-1.871-1.358-1.871-.921 0-1.372.832-1.372 1.871 0 1.04.451 1.861 1.372 1.861ZM362.054 178.613v-7.575h4.853v1.151h-3.481v2.056h3.148v1.15h-3.148v3.218h-1.372Zm6.044 0v-5.681h1.339v5.681h-1.339Zm.673-6.487c-.429 0-.777-.326-.777-.725 0-.403.348-.729.777-.729.426 0 .773.326.773.729 0 .399-.347.725-.773.725Zm3.382 3.158v3.329h-1.339v-5.681h1.28v.965h.066c.259-.632.844-1.039 1.694-1.039 1.173 0 1.95.777 1.946 2.138v3.617h-1.339v-3.41c0-.758-.414-1.213-1.106-1.213-.706 0-1.202.473-1.202 1.294Zm7.116 3.429c-1.339 0-2.341-1.061-2.341-2.933 0-1.894 1.032-2.922 2.345-2.922 1.003 0 1.421.603 1.624 1.014h.055v-2.834h1.343v7.575h-1.317v-.895h-.081c-.211.415-.651.995-1.628.995Zm.374-1.098c.854 0 1.335-.74 1.335-1.842 0-1.103-.473-1.816-1.335-1.816-.891 0-1.35.758-1.35 1.816 0 1.065.466 1.842 1.35 1.842Zm9.178 1.109c-1.713 0-2.76-1.135-2.76-2.918 0-1.753 1.062-2.948 2.69-2.948 1.398 0 2.596.877 2.596 2.87v.411h-3.958c.011.973.585 1.542 1.45 1.542.577 0 1.021-.251 1.202-.732l1.251.141c-.237.987-1.147 1.634-2.471 1.634Zm-1.428-3.488h2.671c-.008-.773-.526-1.335-1.295-1.335-.799 0-1.335.61-1.376 1.335Zm6.07-2.304 1.146 2.097 1.166-2.097h1.416l-1.712 2.841 1.742 2.84h-1.409l-1.203-2.045-1.191 2.045h-1.42l1.731-2.84-1.687-2.841h1.421Zm4.764 7.812v-7.812h1.317v.94h.077c.204-.411.622-1.014 1.624-1.014 1.313 0 2.345 1.028 2.345 2.922 0 1.872-1.002 2.933-2.341 2.933-.977 0-1.417-.58-1.628-.995h-.055v3.026h-1.339Zm1.313-4.971c0 1.102.481 1.842 1.335 1.842.884 0 1.35-.777 1.35-1.842 0-1.058-.458-1.816-1.35-1.816-.862 0-1.335.713-1.335 1.816Zm7.675 2.951c-1.664 0-2.722-1.172-2.722-2.929 0-1.761 1.058-2.937 2.722-2.937 1.665 0 2.722 1.176 2.722 2.937 0 1.757-1.057 2.929-2.722 2.929Zm.008-1.072c.906 0 1.357-.821 1.357-1.861 0-1.039-.451-1.871-1.357-1.871-.921 0-1.373.832-1.373 1.871 0 1.04.452 1.861 1.373 1.861Zm8.341-3.218-1.22.133c-.104-.374-.429-.71-1.047-.71-.559 0-.984.266-.98.651-.004.329.225.529.802.658l.97.207c1.072.233 1.594.729 1.597 1.539-.003 1.076-1.006 1.812-2.426 1.812-1.394 0-2.271-.617-2.438-1.66l1.306-.126c.115.51.514.777 1.128.777.636 0 1.058-.293 1.058-.681 0-.322-.244-.533-.766-.647l-.969-.204c-1.091-.225-1.601-.773-1.598-1.601-.003-1.051.929-1.724 2.297-1.724 1.332 0 2.101.614 2.286 1.576Zm4.848 1.79v-3.292h1.339v5.681h-1.299v-1.009h-.059c-.259.636-.858 1.083-1.709 1.083-1.117 0-1.893-.773-1.893-2.138v-3.617h1.339v3.41c0 .722.429 1.177 1.072 1.177.592 0 1.21-.429 1.21-1.295Zm2.716 2.389v-5.681h1.298v.947h.059c.207-.658.751-1.028 1.402-1.028.148 0 .359.014.481.037v1.231a2.568 2.568 0 0 0-.622-.077c-.736 0-1.279.51-1.279 1.231v3.34h-1.339Zm6.411.111c-1.713 0-2.76-1.135-2.76-2.918 0-1.753 1.062-2.948 2.689-2.948 1.398 0 2.597.877 2.597 2.87v.411h-3.958c.011.973.585 1.542 1.45 1.542.577 0 1.021-.251 1.202-.732l1.25.141c-.236.987-1.146 1.634-2.47 1.634Zm-1.428-3.488h2.67c-.007-.773-.525-1.335-1.294-1.335-.799 0-1.335.61-1.376 1.335Zm9.577-.802-1.221.133c-.103-.374-.429-.71-1.046-.71-.559 0-.984.266-.981.651-.003.329.226.529.803.658l.969.207c1.073.233 1.594.729 1.598 1.539-.004 1.076-1.006 1.812-2.426 1.812-1.395 0-2.271-.617-2.438-1.66l1.306-.126c.114.51.514.777 1.128.777.636 0 1.058-.293 1.058-.681 0-.322-.244-.533-.766-.647l-.969-.204c-1.091-.225-1.602-.773-1.598-1.601-.004-1.051.929-1.724 2.297-1.724 1.332 0 2.101.614 2.286 1.576Z"/></g></g><defs><radialGradient id="c" cx="0" cy="0" r="1" gradientTransform="matrix(-91.00646 44.78467 -35.48405 -72.10675 179.224 295.895)" gradientUnits="userSpaceOnUse"><stop stop-color="#9D62FC"/><stop offset="1" stop-color="#FD3296"/></radialGradient><clipPath id="b"><rect width="507.821" height="358.053" x="46" y="46" fill="#fff" rx="5.951"/></clipPath><filter id="a" width="531.625" height="381.858" x="34.098" y="38.065" color-interpolation-filters="sRGB" filterUnits="userSpaceOnUse"><feFlood flood-opacity="0" result="BackgroundImageFix"/><feColorMatrix in="SourceAlpha" result="hardAlpha" values="0 0 0 0 0 0 0 0 0 0 0 0 0 0 0 0 0 0 127 0"/><feOffset dy="3.967"/><feGaussianBlur stdDeviation="5.951"/><feComposite in2="hardAlpha" operator="out"/><feColorMatrix values="0 0 0 0 0 0 0 0 0 0 0 0 0 0 0 0 0 0 0.08 0"/><feBlend in2="BackgroundImageFix" result="effect1_dropShadow_1092_10821"/><feBlend in="SourceGraphic" in2="effect1_dropShadow_1092_10821" result="shape"/></filter></defs></svg>
