<svg xmlns="http://www.w3.org/2000/svg" width="286" height="40" fill="none" viewBox="0 0 286 40">
  <path fill="#fff" d="M285.38 5.05263h-15.388l.839-2.38596s.14-.2807.14-.70176c0-.982453-.7-1.96491-1.819-1.96491h-15.528c-.14 0-.14 5.3e-7-.28.140351L242.153 39.5789c0 .1404 0 .2807.28.2807h3.217c.14 0 .14 0 .28-.1403L250.407 24h11.611c1.119 0 1.958.8421 2.098 1.8246 0 1.1228-.839 1.9649-1.818 2.1052h-2.658c-1.12 0-1.959.8421-1.959 1.9649v.4211c.28.8421 1.119 1.5438 1.959 1.5438h18.325c.14 0 .28-.1403.28-.2807l7.414-25.96486c.14-.28071 0-.56141-.279-.56141Z"/>
  <path fill="#fff" d="m164.093 31.5789-5.315-10.1052h-3.358v5.4736h2.658v4.6316h-11.191v-4.6316h2.518V9.68419h-2.518V5.05261h12.03c6.575 0 10.213 2.66667 10.213 7.99999 0 3.6491-2.099 6.0351-5.037 7.2983l3.638 6.5964h3.217v4.6316h-6.855Zm-6.155-21.89471h-2.518v7.43861h2.378c4.197 0 5.456-1.4035 5.456-3.9298 0-2.6667-1.399-3.50881-5.316-3.50881Z"/>
  <path fill="#fff" d="M182.839 10.5263c4.476 0 8.253 2.2456 8.253 7.0175v8.1404c0 1.2632.42 1.4035 1.399 1.4035h.84v4.4912h-3.777c-2.798 0-4.197-1.1228-4.477-3.6491C183.818 30.0351 181.72 32 178.502 32c-2.938 0-6.295-1.5439-6.295-5.8947 0-5.0527 4.896-6.3158 9.653-6.3158 1.119 0 2.378 0 3.357.1403v-.7017c0-2.1053 0-4.6316-3.357-4.6316-1.259 0-2.239.1403-3.218.5614l-.839 2.9474-4.757-.5615.98-5.3333c3.637-1.2631 5.455-1.6842 8.813-1.6842Zm2.378 12.3509c-.979-.1404-1.959-.2807-2.938-.2807-2.098 0-3.917.5614-3.917 2.807 0 1.2632.7 2.386 2.378 2.386 2.099 0 4.197-1.4035 4.477-4.6316v-.2807Z"/>
  <path fill="#fff" d="M193.051 31.5789v-4.4912h2.798V4.49123h-2.938V0h8.813v27.0877h2.798v4.4912h-11.471Z"/>
  <path fill="#fff" d="M204.382 31.5789v-4.4912h2.798V4.49123h-2.938V0h8.814v27.0877h2.797v4.4912h-11.471Z"/>
  <path fill="#fff" d="m236.837 15.579-6.575 16.1403-1.399 3.6491h2.658V40H220.19v-4.6316h3.218l1.119-3.228-7.135-16.4211h-2.098v-4.4912h10.492v4.4912h-2.099l4.197 9.5439h.28l3.078-9.5439h-1.819v-4.4912h9.373v4.4912h-1.959v-.1403Z"/>
  <path fill="#fff" d="M51.76 17.6842c-2.5181 0-4.0569 1.8246-4.0569 5.193 0 3.0877 1.3989 5.3333 4.0569 5.3333 2.5181 0 4.3366-1.9649 4.3366-5.3333 0-3.3684-1.9584-5.193-4.3366-5.193Z"/>
  <path fill="#fff" d="M119.748 26.3859v.4211c.139.9824.979 1.6842 1.958 1.5438h.14c2.098-.1403 3.777-1.9649 3.637-4.2105-.839-.1403-1.679-.1403-2.518-.2807-1.679.1404-3.217.7018-3.217 2.5263Z"/>
  <path fill="#fff" d="M0 0v39.7193h138.633V0H0Zm40.2889 31.5789h-7.2744v-9.8245c0-2.9474-.9792-4.2105-2.9377-4.2105-2.3782 0-3.2175 1.6842-3.2175 4.0701v6.0351h2.2382v3.7895h-7.2743V21.614c0-2.9473-.9793-4.2105-2.9378-4.2105-2.3781 0-3.2175 1.6842-3.2175 4.0702v6.0351h3.2175v3.7894H8.25363v-3.7894h2.37817v-9.8246H8.25363v-3.7895H15.528v2.6667c1.1191-1.9649 3.0776-3.0877 5.3159-2.9474 2.5181-.1403 4.7563 1.4035 5.5957 3.7895.8393-2.386 3.2175-3.7895 5.5957-3.7895 3.0776-.1403 5.7355 2.1053 6.0153 5.193v8.7018h2.2383v4.0701Zm20.8439-8.7017c0 5.614-4.1968 9.1228-9.5127 9.1228-5.3159 0-9.0929-3.2281-9.0929-8.8421v-1.1228c.2797-4.7719 4.4765-8.4211 9.2328-8.1404h1.2591c4.7563.2807 8.3935 4.3509 8.1137 8.9825Zm18.3258 8.7017H64.3503l-.5596-2.5263 9.5127-10.9473h-5.3159l-.6995 2.6666-3.6371-.421.5595-6.1755h15.2482l.4197 2.6667-9.6525 10.9474h5.5956l.8394-2.6667 3.917.4211-1.1192 6.035Zm9.9324 0h-5.176v-6.3157h5.176v6.3157Zm0-11.228h-5.176v-6.3158h5.176v6.3158Zm3.2175 11.228 7.5545-26.52627h4.896L97.5047 31.5789h-4.8962Zm10.0725 0 7.554-26.52627h4.896l-7.554 26.52627h-4.896ZM129.26 32h-.14c-1.958 0-3.637-1.5439-3.637-3.5088C124.364 30.5965 122.266 32 119.887 32h-.419c-2.658 0-4.896-2.2456-4.896-4.9123 0-4.3509 4.056-5.3333 8.113-5.3333.98 0 1.959 0 2.798.1403v-.5614c0-1.8245 0-3.9298-2.798-3.9298-.979 0-1.818.1404-2.658.5614l-.559 1.9649-3.917-.421.699-4.0702c2.378-1.1228 4.896-1.6842 7.415-1.6842 3.777 0 6.854 1.9649 6.854 5.8947v7.579c0 .9824.42 1.4035 1.259 1.4035.28 0 .42 0 .7-.1404v2.5263c-.98.7018-2.099.9825-3.218.9825Z"/>
</svg>
