<svg xmlns="http://www.w3.org/2000/svg" width="286" height="40" fill="none" viewBox="0 0 286 40">
  <path fill="#000" d="M285.38 5.05263h-15.388l.839-2.38596s.14-.2807.14-.70176c0-.982453-.7-1.96491-1.819-1.96491h-15.528c-.14 0-.14 5.3e-7-.28.140351L242.153 39.5789c0 .1404 0 .2807.28.2807h3.217c.14 0 .14 0 .28-.1403L250.407 24h11.611c1.119 0 1.958.8421 2.098 1.8246 0 1.1228-.839 1.9649-1.819 2.1052h-2.657c-1.12 0-1.959.8421-1.959 1.9649v.4211c.28.8421 1.119 1.5438 1.959 1.5438h18.325c.14 0 .28-.1403.28-.2807l7.414-25.96486c.14-.28071 0-.56141-.279-.56141Z"/>
  <path fill="#000" d="m164.093 31.5789-5.316-10.1052h-3.357v5.4736h2.658v4.6316h-11.191v-4.6316h2.518V9.68419h-2.518V5.05261h12.03c6.575 0 10.212 2.66667 10.212 7.99999 0 3.6491-2.098 6.0351-5.036 7.2983l3.637 6.5964h3.218v4.6316h-6.855Zm-6.155-21.89471h-2.518v7.43861h2.378c4.197 0 5.456-1.4035 5.456-3.9298 0-2.6667-1.399-3.50881-5.316-3.50881Z"/>
  <path fill="#000" d="M182.839 10.5263c4.476 0 8.253 2.2456 8.253 7.0176v8.1403c0 1.2632.42 1.4035 1.399 1.4035h.84v4.4912h-3.777c-2.798 0-4.197-1.1228-4.477-3.6491C183.818 30.0351 181.72 32 178.502 32c-2.938 0-6.295-1.5439-6.295-5.8947 0-5.0527 4.896-6.3158 9.653-6.3158 1.119 0 2.378 0 3.357.1403v-.7017c0-2.1053 0-4.6316-3.357-4.6316-1.259 0-2.239.1403-3.218.5614l-.839 2.9474-4.757-.5614.98-5.3334c3.637-1.2631 5.455-1.6842 8.813-1.6842Zm2.378 12.3509c-.979-.1404-1.959-.2807-2.938-.2807-2.098 0-3.917.5614-3.917 2.807 0 1.2632.7 2.386 2.378 2.386 2.099 0 4.197-1.4035 4.477-4.6316v-.2807Z"/>
  <path fill="#000" d="M193.051 31.5789v-4.4912h2.798V4.49123h-2.938V0h8.813v27.0877h2.798v4.4912h-11.471Z"/>
  <path fill="#000" d="M204.382 31.5789v-4.4912h2.798V4.49123h-2.938V0h8.813v27.0877h2.798v4.4912h-11.471Z"/>
  <path fill="#000" d="m236.837 15.579-6.575 16.1403-1.399 3.6491h2.658V40H220.19v-4.6316h3.217l1.12-3.228-7.135-16.4211h-2.098v-4.4912h10.492v4.4912h-2.099l4.197 9.5439h.28l3.077-9.5439h-1.818v-4.4912h9.373v4.4912h-1.959v-.1403Z"/>
  <path fill="#000" d="M138.633 0H0v39.7193h138.633V0Z"/>
  <path fill="#fff" d="M132.338 28.6316c-.28.1403-.42.1403-.7.1403-.839 0-1.259-.421-1.259-1.4035v-7.5789c0-3.9299-3.217-5.8948-6.854-5.8948-2.518 0-5.176.5614-7.415 1.6842l-.699 4.0702 3.917.4211.559-1.965c.84-.421 1.679-.5614 2.658-.5614 2.798 0 2.798 2.1053 2.798 3.9299v.5614c-.979-.1404-1.958-.1404-2.798-.1404-3.917 0-8.113.9825-8.113 5.3334 0 2.6666 2.238 4.9122 4.896 4.9122h.42c2.378 0 4.476-1.4035 5.595-3.5087 0 1.9649 1.679 3.5087 3.637 3.5087h.14c1.119 0 2.099-.2807 3.078-.8421l.14-2.6666Zm-10.632-.1404c-.979.1404-1.958-.5614-1.958-1.5439v-.421c0-1.8246 1.538-2.386 3.217-2.386.839 0 1.679.1404 2.518.2807.14 2.1053-1.399 4.0702-3.637 4.2106 0-.1404 0-.1404-.14-.1404Zm-6.575-23.43859-7.554 26.52629h-4.896l7.554-26.52629h4.896Zm-10.072 0L97.5047 31.5789h-4.8962l7.5545-26.52629h4.896ZM84.215 14.1754h5.176v6.3158h-5.176v-6.3158Zm0 11.0877h5.176v6.3158h-5.176v-6.3158Zm-7.5542-.1403 3.917.421-1.1192 6.0351H64.3503l-.5596-2.5263 9.5127-10.9474h-5.3159l-.6995 2.6667-3.6372-.421.5596-6.1755h15.2482l.4197 2.6667-9.6525 10.9474h5.5956l.8394-2.6667ZM51.76 13.8947c-4.7563-.2807-8.9531 3.3684-9.2329 8.1404v1.1228c0 5.614 3.6372 8.8421 9.093 8.8421s9.5127-3.5088 9.5127-9.1228c.2798-4.772-3.3574-8.8421-8.1138-9.1228-.4196.1403-.8393.1403-1.259.1403Zm-.1399 14.3158c-2.6579 0-4.0568-2.2456-4.0568-5.3333 0-3.2281 1.6787-5.193 4.0568-5.193 2.5181 0 4.1968 1.6842 4.1968 5.0526 0 3.3684-1.5388 5.4737-4.1968 5.4737Zm-13.5695-.421h2.2383v3.7894h-7.2744v-9.8245c0-2.9474-.9793-4.2106-2.9377-4.2106-2.3782 0-3.2176 1.6843-3.2176 4.0702v6.0351h2.2383v3.7895h-7.2744V21.614c0-2.9474-.9792-4.2105-2.9377-4.2105-2.3782 0-3.2175 1.6842-3.2175 4.0702v6.0351h3.2175v3.7894H8.2536v-3.7894h2.3782v-9.8246H8.2536v-3.7895h7.2744v2.6667c1.1191-1.9649 3.0776-3.0877 5.3159-2.9474 2.518-.1403 4.7563 1.4035 5.5957 3.7895.8393-2.386 3.2175-3.7895 5.5956-3.7895 3.0777-.1403 5.7356 2.1053 6.0154 5.193v8.9825Z"/>
</svg>
