<svg width="167" height="121" xmlns="http://www.w3.org/2000/svg"><g transform="translate(.26 .04)" fill="none" fill-rule="evenodd"><path fill="#9E9EAC" d="M21.844 106.617L.52 111.947v7.997h165.256v-7.996l-23.988-5.331z"/><path d="M157.78 7.996v95.956c0 4.398-3.598 7.996-7.996 7.996H16.513c-4.398 0-7.996-3.598-7.996-7.996V7.996C8.517 3.598 12.115 0 16.513 0h133.271c4.398 0 7.996 3.598 7.996 7.996" fill="#9E9EAC"/><path d="M99.14 13.127H16.514V98.53c0 1.515 1.2 2.755 2.665 2.755h127.94c1.467 0 2.666-1.24 2.666-2.755V13.127H99.141z" fill="#F2F2F2"/><path fill="#F2F2F2" d="M16.513 15.992v66.59l66.59-66.59zM149.784 15.992v-5.33c0-1.466-1.2-2.666-2.666-2.666H19.178a2.673 2.673 0 00-2.665 2.666v5.33"/><path d="M148.451 109.282H17.846a1.332 1.332 0 110-2.665H148.45a1.332 1.332 0 110 2.665" fill="#8F8F9D"/><path stroke="#80808E" stroke-width="2.665" stroke-linecap="round" stroke-linejoin="round" d="M73.422 114.416H92.08"/><circle fill="#3FE1B0" cx="83" cy="54.227" r="27.5"/><path stroke="#FFF" stroke-width="4.714" stroke-linecap="round" d="M71.676 54.732l7.794 7.794 15.198-15.198"/></g></svg>