<svg width="1187" height="818" xmlns="http://www.w3.org/2000/svg" xmlns:xlink="http://www.w3.org/1999/xlink"><defs><path id="a" d="M0 0h1187v818H0z"/><linearGradient x1="9.006%" y1="53.356%" x2="27.729%" y2="47.699%" id="c"><stop stop-color="#FF4F5E" offset="0%"/><stop stop-color="#FFAC49" offset="61.587%"/><stop stop-color="#FF7139" offset="100%"/></linearGradient><linearGradient x1="22.591%" y1="76.958%" x2="23.739%" y2="90.182%" id="d"><stop stop-color="#9059FF" offset="0%"/><stop stop-color="#FF4F5E" offset="100%"/></linearGradient></defs><g fill="none" fill-rule="evenodd"><path d="M-1 0h1188v818H-1z"/><g><mask id="b" fill="#fff"><use xlink:href="#a"/></mask><g fill-rule="nonzero" mask="url(#b)"><path d="M5043.34 6243.763c-330.632 26.368-617.387-257.665-640.486-634.407-23.099-376.74 226.205-703.526 556.837-729.894l2993.307-238.72c330.632-26.368 617.387 257.665 640.486 634.406 23.099 376.742-226.206 703.526-556.837 729.895l-2993.307 238.72z" fill="url(#c)" transform="rotate(75 6219.026 144.72)"/><path d="M4787.742 5871.93c327.5 57.888 550.791 402.178 498.733 768.993-52.057 366.815-359.75 617.249-687.25 559.36l-2964.96-524.082c-327.5-57.888-550.79-402.178-498.732-768.993l471.294-3320.885c52.058-366.814 359.75-617.249 687.25-559.36 327.501 57.889 550.792 402.179 498.734 768.993l-377.036 2656.708 2371.967 419.266z" fill="url(#d)" transform="rotate(-144 -45.038 3650.147)"/><path d="M-844.996 823.565c179.544 301.5 540.327 415.284 805.83 254.142 265.504-161.142 335.187-536.188 155.642-837.688-359.089-603.001-219.722-1353.092 311.285-1675.376 531.006-322.284 1252.572-94.717 1611.661 508.284 179.545 301.5 540.328 415.283 805.831 254.142 265.504-161.142 335.187-536.188 155.642-837.688-718.178-1206.002-2161.31-1661.135-3223.323-1016.568-1062.014 644.567-1340.747 2144.75-622.568 3350.752z" fill="#20123A"/></g></g></g></svg>