<svg width="120" height="102" xmlns="http://www.w3.org/2000/svg" xmlns:xlink="http://www.w3.org/1999/xlink"><defs><path id="a" d="M0 101.664h119.722V0H0z"/></defs><g fill="none" fill-rule="evenodd"><path d="M18.922 0a4.8 4.8 0 0 0-4.8 4.8v6h105.6v-6a4.8 4.8 0 0 0-4.8-4.8h-96z" fill="#9059FF"/><path d="M119.722 10.8h-105.6v60a4.8 4.8 0 0 0 4.8 4.8h96a4.8 4.8 0 0 0 4.8-4.8v-60z" fill="#592ACB"/><mask id="b" fill="#fff"><use xlink:href="#a"/></mask><path fill="#592ACB" mask="url(#b)" d="M34.522 15.6h20.4V0h-20.4z"/><path d="M62.279 25.459a2.74 2.74 0 0 1 2.74 2.74v42.36A22.48 22.48 0 0 1 53.62 90.12l-19.779 11.19a2.738 2.738 0 0 1-2.7-.002L11.4 90.12A22.478 22.478 0 0 1 0 70.56V28.2a2.74 2.74 0 0 1 2.74-2.741h59.538z" fill="#D9BFFF" mask="url(#b)"/><path d="M62.279 25.459H32.12v76.157c.586.08 1.19-.007 1.721-.307l19.779-11.19a22.478 22.478 0 0 0 11.397-19.56V28.2a2.739 2.739 0 0 0-2.74-2.74" fill="#9059FF" mask="url(#b)"/></g></svg>