<svg height="90" width="140" xmlns="http://www.w3.org/2000/svg" xmlns:xlink="http://www.w3.org/1999/xlink"><mask id="a" fill="#fff"><path d="m0 .799h131.624v80.223h-131.624z" fill="#fff" fill-rule="evenodd"/></mask><mask id="b" fill="#fff"><path d="m0 90.202h140v-89.004h-140z" fill="#fff" fill-rule="evenodd"/></mask><g fill="none" fill-rule="evenodd" transform="translate(0 -1)"><path d="m128.034 73.838h-13.162a4.788 4.788 0 0 0 4.786-4.79v-63.46a4.788 4.788 0 0 0 -4.786-4.79h-96.923a4.788 4.788 0 0 0 -4.787 4.79v63.46a4.788 4.788 0 0 0 4.787 4.79h-14.36a3.591 3.591 0 0 0 0 7.184h124.445a3.591 3.591 0 0 0 0-7.184" fill="#9059ff" mask="url(#a)" transform="translate(0 .4)"/><path d="m20.342 67.053h90.94v-57.474h-90.94z" fill="#7542e5" mask="url(#b)"/><path d="m65.626 26.342c-8.065 0-14.602 6.541-14.602 14.613v14.07c0 8.07 6.537 14.612 14.602 14.612 8.064 0 14.602-6.543 14.602-14.612v-14.07c0-8.072-6.538-14.613-14.602-14.613m0 6.495c4.473 0 8.112 3.64 8.112 8.118v14.07c0 4.476-3.639 8.117-8.112 8.117s-8.111-3.641-8.111-8.117v-14.07c0-4.477 3.638-8.118 8.111-8.118" fill="#d9bfff" mask="url(#b)"/><path d="m104.103 81.421h35.897v-46.697h-35.897z" fill="#592acb" mask="url(#b)"/><path d="m108.889 26.342a4.788 4.788 0 0 0 -4.786 4.79v3.592h35.897v-3.592a4.788 4.788 0 0 0 -4.786-4.79zm26.325 63.461a4.788 4.788 0 0 0 4.786-4.79v-3.592h-35.897v3.592a4.788 4.788 0 0 0 4.786 4.79z" fill="#45278d" mask="url(#b)"/><path d="m85.823 90.202h-40.022a4.34 4.34 0 0 1 -4.327-4.33v-30.306a4.34 4.34 0 0 1 4.327-4.329h40.022a4.34 4.34 0 0 1 4.326 4.329v30.306a4.34 4.34 0 0 1 -4.326 4.33" fill="#d9bfff" mask="url(#b)"/><g fill="#592acb"><path d="m62.381 66.39a3.246 3.246 0 1 0 6.49 0 3.246 3.246 0 1 0 -6.49 0" mask="url(#b)"/><path d="m65.626 66.39-2.823 10.356c-.213.78.375 1.55 1.183 1.55h3.28c.808 0 1.395-.77 1.182-1.55z" mask="url(#b)"/></g></g></svg>