<svg height="96" width="152" xmlns="http://www.w3.org/2000/svg" xmlns:xlink="http://www.w3.org/1999/xlink"><mask id="a" fill="#fff"><path d="m0 96h152v-96h-152z" fill="#fff" fill-rule="evenodd"/></mask><g fill="none" fill-rule="evenodd"><path d="m15.56 72h111.306v-61.2h-111.306z" fill="#e7dfff"/><path d="m20.346 0a4.794 4.794 0 0 0 -4.787 4.8v6h111.307v-6c0-2.65-2.143-4.8-4.787-4.8h-101.733z" fill="#d9bfff"/><path d="m122.079 79.2a4.794 4.794 0 0 0 4.787-4.8v-6h-111.306v6c0 2.65 2.144 4.8 4.787 4.8h101.733z" fill="#e7dfff"/><path d="m111.307 86.4h40.693v-55.2h-40.693z" fill="#7542e5" mask="url(#a)"/><path d="m116.094 20.4a4.794 4.794 0 0 0 -4.787 4.8v6h40.693v-6c0-2.65-2.144-4.8-4.787-4.8zm31.119 75.6a4.794 4.794 0 0 0 4.787-4.8v-6h-40.693v6c0 2.65 2.144 4.8 4.787 4.8z" fill="#45278d" mask="url(#a)"/><path d="m34.709 10.8h20.346v-10.8h-20.345z" fill="#e7dfff" mask="url(#a)"/><path d="m76 67.2h50.268c4.958 0 8.976-4.03 8.976-9s-4.018-9-8.976-9h-50.268c-4.959 0-8.976 4.03-8.976 9s4.017 9 8.976 9" fill="#c689ff" mask="url(#a)"/><path d="m34.11 85.2h50.268c4.959 0 8.976-4.03 8.976-9s-4.017-9-8.976-9h-50.268c-4.958 0-8.976 4.03-8.976 9s4.018 9 8.976 9" fill="#d9bfff" mask="url(#a)"/><path d="m8.976 49.2h83.78c4.958 0 8.976-4.03 8.976-9s-4.018-9-8.976-9h-83.78c-4.958 0-8.976 4.03-8.976 9s4.018 9 8.976 9" fill="#592acb" mask="url(#a)"/><path d="m35.364 73.88-.079 1.71 1.416-.895.717 1.213-1.513.798 1.498.83-.717 1.198-1.4-.91.062 1.613h-1.433l.096-1.597-1.354.863-.717-1.214 1.434-.798-1.48-.814.73-1.214 1.387.878-.08-1.66zm7.056 0-.079 1.71 1.416-.895.717 1.213-1.513.798 1.498.83-.717 1.198-1.4-.91.062 1.613h-1.434l.096-1.597-1.355.863-.716-1.214 1.434-.798-1.482-.814.733-1.214 1.386.878-.08-1.66zm7.058 0-.08 1.71 1.416-.895.717 1.213-1.512.798 1.497.83-.717 1.198-1.4-.91.062 1.613h-1.433l.096-1.597-1.355.863-.716-1.214 1.434-.798-1.482-.814.733-1.214 1.386.878-.08-1.66zm7.056 0-.08 1.71 1.417-.895.717 1.213-1.513.798 1.497.83-.717 1.198-1.4-.91.062 1.613h-1.433l.096-1.597-1.354.863-.716-1.214 1.433-.798-1.48-.814.731-1.214 1.386.878-.079-1.66zm7.056 0-.078 1.71 1.416-.895.717 1.213-1.513.798 1.497.83-.717 1.198-1.4-.91.062 1.613h-1.433l.096-1.597-1.353.863-.717-1.214 1.433-.798-1.48-.814.731-1.214 1.386.878-.079-1.66zm7.057 0-.08 1.71 1.417-.895.717 1.213-1.513.798 1.497.83-.717 1.198-1.4-.91.062 1.613h-1.433l.096-1.597-1.355.863-.715-1.214 1.433-.798-1.481-.814.732-1.214 1.386.878-.08-1.66zm7.056 0-.079 1.71 1.416-.895.717 1.213-1.513.798 1.497.83-.717 1.198-1.4-.91.062 1.613h-1.432l.095-1.597-1.353.863-.717-1.214 1.434-.798-1.48-.814.73-1.214 1.386.878-.079-1.66zm7.057 0-.079 1.71 1.416-.895.717 1.213-1.513.798 1.497.83-.717 1.198-1.4-.91.062 1.613h-1.432l.095-1.597-1.353.863-.717-1.214 1.434-.798-1.48-.814.73-1.214 1.386.878-.079-1.66z" fill="#c689ff" mask="url(#a)"/><path d="m77.254 55.88-.079 1.71 1.416-.895.717 1.213-1.513.798 1.497.83-.716 1.198-1.4-.91.061 1.613h-1.432l.096-1.597-1.354.863-.717-1.214 1.434-.798-1.48-.814.73-1.214 1.387.878-.08-1.66zm7.056 0-.079 1.71 1.416-.895.717 1.213-1.513.798 1.497.83-.716 1.198-1.4-.91.061 1.613h-1.432l.096-1.597-1.355.863-.716-1.214 1.434-.798-1.482-.814.733-1.214 1.386.878-.08-1.66zm7.057 0-.079 1.71 1.416-.895.717 1.213-1.513.798 1.498.83-.717 1.198-1.4-.91.062 1.613h-1.433l.096-1.597-1.355.863-.716-1.214 1.434-.798-1.482-.814.733-1.214 1.386.878-.08-1.66zm7.056 0-.079 1.71 1.416-.895.717 1.213-1.513.798 1.498.83-.717 1.198-1.4-.91.062 1.613h-1.433l.096-1.597-1.354.863-.716-1.213 1.434-.798-1.48-.814.73-1.214 1.387.878-.08-1.66zm7.057 0-.078 1.71 1.415-.895.717 1.213-1.512.798 1.497.83-.717 1.198-1.4-.91.062 1.613h-1.433l.096-1.597-1.354.863-.717-1.214 1.434-.798-1.48-.814.731-1.214 1.386.878-.079-1.66zm7.057 0-.08 1.71 1.416-.895.717 1.213-1.512.798 1.497.83-.717 1.198-1.4-.91.062 1.613h-1.433l.096-1.597-1.355.863-.716-1.214 1.434-.798-1.481-.814.732-1.214 1.386.878-.08-1.66zm7.056 0-.08 1.71 1.417-.895.717 1.213-1.513.798 1.497.83-.717 1.198-1.4-.91.062 1.613h-1.433l.096-1.597-1.354.863-.716-1.214 1.433-.798-1.48-.814.731-1.214 1.386.878-.079-1.66zm7.057 0-.08 1.71 1.417-.895.717 1.213-1.513.798 1.497.83-.717 1.198-1.4-.91.062 1.613h-1.433l.096-1.597-1.353.863-.717-1.214 1.434-.798-1.481-.814.731-1.214 1.386.878-.079-1.66z" fill="#592acb" mask="url(#a)"/><path d="m11.536 37.139-.079 1.709 1.416-.894.717 1.213-1.513.798 1.497.83-.717 1.198-1.4-.91.062 1.613h-1.432l.095-1.597-1.353.863-.717-1.215 1.434-.798-1.48-.813.73-1.215 1.386.879-.079-1.661zm7.056 0-.079 1.709 1.416-.894.717 1.213-1.513.798 1.497.83-.717 1.198-1.4-.91.062 1.613h-1.432l.095-1.597-1.354.863-.716-1.215 1.434-.798-1.482-.813.733-1.215 1.385.879-.08-1.661zm7.058 0-.08 1.709 1.416-.894.717 1.213-1.513.798 1.498.83-.717 1.198-1.4-.91.062 1.613h-1.433l.096-1.597-1.355.863-.716-1.215 1.434-.798-1.482-.813.733-1.215 1.386.879-.08-1.661zm7.055 0-.079 1.709 1.416-.894.717 1.213-1.513.798 1.498.83-.717 1.198-1.4-.91.062 1.613h-1.433l.096-1.597-1.354.863-.717-1.215 1.434-.798-1.48-.813.73-1.215 1.387.879-.08-1.661zm7.058 0-.08 1.709 1.416-.894.717 1.213-1.512.798 1.497.83-.717 1.198-1.4-.91.062 1.613h-1.433l.096-1.597-1.354.863-.717-1.215 1.434-.798-1.48-.813.731-1.215 1.386.879-.079-1.661zm7.056 0-.08 1.709 1.417-.894.716 1.213-1.512.798 1.497.83-.717 1.198-1.4-.91.062 1.613h-1.433l.096-1.597-1.355.863-.716-1.215 1.434-.798-1.481-.813.732-1.215 1.386.879-.08-1.661zm7.056 0-.08 1.709 1.417-.894.716 1.213-1.512.798 1.497.83-.717 1.198-1.4-.91.062 1.613h-1.433l.096-1.597-1.354.863-.717-1.215 1.434-.798-1.48-.813.731-1.215 1.386.879-.079-1.661zm7.057 0-.08 1.709 1.417-.894.717 1.213-1.513.798 1.497.83-.717 1.198-1.4-.91.062 1.613h-1.432l.095-1.597-1.353.863-.717-1.215 1.434-.798-1.481-.813.731-1.215 1.386.879-.079-1.661zm7.056 0-.08 1.709 1.417-.894.717 1.213-1.513.798 1.497.83-.717 1.198-1.4-.91.062 1.613h-1.431l.095-1.597-1.355.863-.715-1.215 1.434-.798-1.482-.813.732-1.215 1.386.879-.08-1.661zm7.057 0-.079 1.709 1.416-.894.717 1.213-1.513.798 1.497.83-.717 1.198-1.4-.91.062 1.613h-1.432l.095-1.597-1.354.863-.716-1.215 1.434-.798-1.482-.813.732-1.215 1.386.879-.08-1.661zm7.056 0-.079 1.709 1.416-.894.717 1.213-1.513.798 1.497.83-.716 1.198-1.4-.91.061 1.613h-1.432l.096-1.597-1.354.863-.717-1.215 1.434-.798-1.48-.813.73-1.215 1.387.879-.08-1.661zm7.056 0-.079 1.709 1.416-.894.717 1.213-1.513.798 1.497.83-.716 1.198-1.4-.91.061 1.613h-1.432l.096-1.597-1.355.863-.716-1.215 1.434-.798-1.482-.813.733-1.215 1.386.879-.08-1.661z" fill="#c689ff" mask="url(#a)"/></g></svg>