<svg height="83" width="113" xmlns="http://www.w3.org/2000/svg" xmlns:xlink="http://www.w3.org/1999/xlink"><mask id="a" fill="#fff"><path d="m0 83h113v-83h-113z" fill="#fff" fill-rule="evenodd"/></mask><g fill="none" fill-rule="evenodd"><path d="m4.809 0a4.81 4.81 0 0 0 -4.809 4.812v6.014h113v-6.014a4.81 4.81 0 0 0 -4.809-4.812h-103.381z" fill="#45278d"/><path d="m113 10.826h-113v67.362a4.81 4.81 0 0 0 4.809 4.812h103.381a4.81 4.81 0 0 0 4.81-4.812z" fill="#9059ff"/><path d="m20.436 15.638h20.436v-15.638h-20.436z" fill="#9059ff" mask="url(#a)"/><path d="m70.927 40.574a7.994 7.994 0 0 0 -8.932 6.125c0 1.443 5.2 3.061 9.617 3.061 4.418 0 8.928-2.825 8.928-3.827s-2.806-5.065-9.617-5.36h.004zm-28.85 0c-6.811.294-9.617 4.357-9.617 5.359s4.514 3.827 8.928 3.827c4.413 0 9.617-1.618 9.617-3.061a7.994 7.994 0 0 0 -8.928-6.125zm32.97 22.966c-6.998 0-11.837-8.42-18.547-8.42s-11.966 8.42-18.546 8.42c-8.633 0-15.007-8.185-15.112-22.2-.064-8.707 2.524-11.48 13.736-11.48 11.213 0 14.49 4.589 19.922 4.589s8.713-4.594 19.922-4.594c11.208 0 13.8 2.778 13.736 11.48-.105 14.02-6.48 22.205-15.112 22.205z" fill="#fff" mask="url(#a)"/></g></svg>