<svg height="113" width="149" xmlns="http://www.w3.org/2000/svg" xmlns:xlink="http://www.w3.org/1999/xlink"><mask id="a" fill="#fff"><path d="m.648 1.114h60.08v59.896h-60.08z" fill="#fff" fill-rule="evenodd"/></mask><g fill="none" fill-rule="evenodd"><path d="m29.667 30.23 44.46 53.905 44.46-53.906" stroke="#d9bfff" stroke-width="4.8"/><path d="m60.08 30.146c0 16.54-13.449 29.948-30.04 29.948-16.592 0-30.04-13.409-30.04-29.948 0-16.54 13.448-29.948 30.04-29.948 16.591 0 30.04 13.408 30.04 29.948m44.125 52.792c0 16.54-13.449 29.947-30.04 29.947s-30.04-13.408-30.04-29.947c0-16.54 13.449-29.948 30.04-29.948s30.04 13.408 30.04 29.948" fill="#d9bfff"/><path d="m60.728 31.062c0 16.54-13.448 29.948-30.04 29.948-16.59 0-30.04-13.408-30.04-29.948s13.45-29.948 30.04-29.948c16.592 0 30.04 13.409 30.04 29.948" fill="#d9bfff" mask="url(#a)" transform="translate(87.718 -.917)"/><g fill="#592acb"><path d="m23.82 30.404c0-3.391 2.79-6.151 6.22-6.151s6.221 2.76 6.221 6.151c0 3.393-2.79 6.151-6.22 6.151s-6.221-2.758-6.221-6.15m21.504-11.39-3.862-2.204-8.81-5.03h-.003l-.276-.159a4.723 4.723 0 0 0 -4.666 0l-.276.158-.001.001-12.395 7.076-.278.159a4.619 4.619 0 0 0 -2.332 3.996v14.786c0 1.642.894 3.173 2.332 3.995l12.673 7.235c.306.175.64.258.97.258.671 0 1.325-.345 1.685-.962a1.91 1.91 0 0 0 -.711-2.625l-12.394-7.076a1.32 1.32 0 0 1 -.668-1.143v-14.15c0-.47.256-.909.668-1.144l2.194-1.253 10.203-5.825a1.35 1.35 0 0 1 1.33.001l12.396 7.079c.411.234.666.672.666 1.141v14.151c0 .47-.256.908-.668 1.143l-4.194 2.393-2.116-3.18c2.06-1.83 3.358-4.484 3.358-7.432 0-5.512-4.535-9.995-10.108-9.995-5.575 0-10.108 4.483-10.108 9.995s4.533 9.996 10.107 9.996c1.196 0 2.345-.209 3.412-.587l3.213 4.832c.05.075.106.145.164.21l.035.036c.068.073.143.14.22.2.02.016.038.032.058.046.087.064.178.119.274.167l.066.03c.086.038.174.07.264.097l.06.018a1.947 1.947 0 0 0 .397.056c.03.002.06.006.09.006.058 0 .117-.007.175-.012.027-.002.053-.002.08-.006.11-.014.219-.04.327-.073l.085-.032c.083-.03.165-.067.247-.11.018-.01.037-.015.055-.025l6.061-3.46a4.617 4.617 0 0 0 2.332-3.995v-14.786a4.619 4.619 0 0 0 -2.332-3.996m57.837 9.049c1.027-7.29 7.473-12.927 15.245-12.927 7.773 0 14.219 5.637 15.248 12.927h-30.494zm15.245-17.015c-10.746 0-19.489 8.55-19.489 19.06 0 1.128.917 2.044 2.05 2.044h15.39v10.109l-4.767-4.754c-.8-.797-2.1-.797-2.9 0a2.038 2.038 0 0 0 0 2.891l8.266 8.242c.048.046.098.092.15.136l.027.018c.044.035.088.07.135.1l.03.019c.046.03.094.058.142.085l.023.01c.052.027.105.053.159.075.006.002.01.005.016.006.057.023.115.044.171.062l.02.005c.058.017.116.031.176.044l.05.007a2.027 2.027 0 0 0 .557.022c.05-.005.1-.013.149-.022l.049-.007a2.465 2.465 0 0 0 .369-.111l.014-.006c.056-.023.108-.048.161-.076l.02-.01c.05-.026.098-.055.146-.087l.027-.015a1.99 1.99 0 0 0 .139-.103l.022-.016c.052-.044.103-.09.151-.138l8.266-8.24c.8-.798.8-2.093 0-2.89-.8-.798-2.1-.798-2.9 0l-4.766 4.753v-10.11h15.387c1.134 0 2.05-.915 2.05-2.043 0-10.51-8.741-19.06-19.49-19.06zm-44.241 92.139c-1.824 0-3.51-.6-4.746-1.687a149.222 149.222 0 0 1 -12.71-12.67l-.007-.008c-1.09-1.232-1.69-2.913-1.69-4.731 0-1.819.6-3.5 1.69-4.732l.006-.006a149.412 149.412 0 0 1 12.704-12.666l.007-.006c1.236-1.086 2.922-1.685 4.746-1.685 1.826 0 3.51.599 4.747 1.685l.007.006a149.412 149.412 0 0 1 12.703 12.666c.003.001.004.004.006.006 1.091 1.233 1.691 2.913 1.691 4.732 0 1.818-.6 3.499-1.69 4.731l-.007.008c-.787.881-1.3 1.45-2.088 2.296a1.924 1.924 0 0 1 -2.712.1 1.91 1.91 0 0 1 -.101-2.703c.764-.82 1.264-1.375 2.032-2.233.98-1.112.98-3.286.001-4.396a145.937 145.937 0 0 0 -12.383-12.346c-1.115-.976-3.294-.976-4.408 0-4.53 4.021-8.35 7.83-12.384 12.346-.98 1.11-.98 3.286 0 4.396a145.923 145.923 0 0 0 12.382 12.345c1.112.974 3.287.975 4.404.003 1.562-1.411 3.077-2.74 4.574-4.178l-4.868-5.094a3.616 3.616 0 0 1 -1.036-2.707 3.614 3.614 0 0 1 1.281-2.58l.06-.05a3.883 3.883 0 0 0 1.19-4.208c-.597-1.765-2.148-2.394-3.402-2.394-1.253 0-2.804.629-3.401 2.394a3.89 3.89 0 0 0 1.19 4.207l.023.018a3.62 3.62 0 0 1 1.276 2.571 3.612 3.612 0 0 1 -1.009 2.687l-1.868 1.918c-.737.76-1.95.783-2.714.049a1.908 1.908 0 0 1 -.05-2.705l1.47-1.506a.337.337 0 0 0 -.009-.475 7.67 7.67 0 0 1 -1.945-7.986c1.026-3.036 3.788-4.998 7.037-4.998 3.25 0 6.012 1.962 7.038 4.998a7.675 7.675 0 0 1 -1.981 8.02.337.337 0 0 0 -.011.476l5.335 5.555c.49.49.757 1.14.755 1.831a2.56 2.56 0 0 1 -.77 1.828c-1.802 1.783-3.687 3.448-5.6 5.174a.24.24 0 0 1 -.02.017c-1.236 1.088-2.92 1.687-4.746 1.687"/><path d="m74.164 103.189c-1.824 0-3.51-.6-4.746-1.687a149.222 149.222 0 0 1 -12.71-12.67l-.007-.008c-1.09-1.232-1.69-2.913-1.69-4.731 0-1.819.6-3.5 1.69-4.732l.006-.006a149.412 149.412 0 0 1 12.704-12.666l.007-.006c1.236-1.086 2.922-1.685 4.746-1.685 1.826 0 3.51.599 4.747 1.685l.007.006a149.412 149.412 0 0 1 12.703 12.666c.003.001.004.004.006.006 1.091 1.233 1.691 2.913 1.691 4.732 0 1.818-.6 3.499-1.69 4.731l-.007.008c-.787.881-1.3 1.45-2.088 2.296a1.924 1.924 0 0 1 -2.712.1 1.91 1.91 0 0 1 -.101-2.703c.764-.82 1.264-1.375 2.032-2.233.98-1.112.98-3.286.001-4.396a145.937 145.937 0 0 0 -12.383-12.346c-1.115-.976-3.294-.976-4.408 0-4.53 4.021-8.35 7.83-12.384 12.346-.98 1.11-.98 3.286 0 4.396a145.923 145.923 0 0 0 12.382 12.345c1.112.974 3.287.975 4.404.003 1.562-1.411 3.077-2.74 4.574-4.178l-4.868-5.094a3.616 3.616 0 0 1 -1.036-2.707 3.614 3.614 0 0 1 1.281-2.58l.06-.05a3.883 3.883 0 0 0 1.19-4.208c-.597-1.765-2.148-2.394-3.402-2.394-1.253 0-2.804.629-3.401 2.394a3.89 3.89 0 0 0 1.19 4.207l.023.018a3.62 3.62 0 0 1 1.276 2.571 3.612 3.612 0 0 1 -1.009 2.687l-1.868 1.918c-.737.76-1.95.783-2.714.049a1.908 1.908 0 0 1 -.05-2.705l1.47-1.506a.337.337 0 0 0 -.009-.475 7.67 7.67 0 0 1 -1.945-7.986c1.026-3.036 3.788-4.998 7.037-4.998 3.25 0 6.012 1.962 7.038 4.998a7.675 7.675 0 0 1 -1.981 8.02.337.337 0 0 0 -.011.476l5.335 5.555c.49.49.757 1.14.755 1.831a2.56 2.56 0 0 1 -.77 1.828c-1.802 1.783-3.687 3.448-5.6 5.174a.24.24 0 0 1 -.02.017c-1.236 1.088-2.92 1.687-4.746 1.687"/><path d="m59.77 81.68 6.252-6.578a148.547 148.547 0 0 0 -6.252 6.579m21.164 12.785c-1.496 1.437-3.009 2.765-4.57 4.174-1.115.971-3.29.97-4.404-.004a145.732 145.732 0 0 1 -12.382-12.344c-.98-1.11-.98-3.286 0-4.397.063-.073.127-.142.192-.214l-2.416 2.526a3.86 3.86 0 0 0 -.077 5.254l.78.865a148.865 148.865 0 0 0 11.36 11.177c1.237 1.086 2.924 1.685 4.747 1.685 1.825 0 3.51-.599 4.747-1.685l.019-.018c.929-.839 1.851-1.663 2.762-2.494a2.517 2.517 0 0 0 .125-3.595zm10.043-10.3c-1.24-1.279-2.438-2.509-2.224-2.27.978 1.111.978 3.285-.001 4.396-.767.859-1.268 1.412-2.032 2.233a1.91 1.91 0 0 0 .1 2.703 1.924 1.924 0 0 0 2.713-.1 117.6 117.6 0 0 0 1.414-1.543l.148-.167a3.86 3.86 0 0 0 -.118-5.251z"/><path d="m90.979 84.167c-1.241-1.28-2.44-2.51-2.227-2.271.98 1.11.98 3.285-.001 4.395-.767.859-1.266 1.414-2.03 2.234a1.909 1.909 0 0 0 .1 2.704c.778.719 1.99.673 2.712-.1.542-.583.954-1.033 1.415-1.545l.147-.165a3.862 3.862 0 0 0 -.116-5.252m-26.896 6.964a156.304 156.304 0 0 1 -4.506-4.84c-.979-1.11-.979-3.285 0-4.396l.193-.214-2.417 2.526a3.858 3.858 0 0 0 -.077 5.254c.364.404.66.73.781.866 2 2.185 3.972 4.223 6.026 6.222zm17.735 4.265-.883-.93c-1.496 1.436-3.01 2.764-4.57 4.174-.498.433-1.205.672-1.935.72v3.823c1.72-.055 3.305-.646 4.481-1.68a.24.24 0 0 0 .02-.018c.928-.838 1.85-1.664 2.762-2.495a2.516 2.516 0 0 0 .125-3.594"/></g></g></svg>