<svg height="104" width="104" xmlns="http://www.w3.org/2000/svg"><g fill="none" fill-rule="evenodd"><path d="m103.632 51.816c0 6.436-9.643 10.908-11.965 16.505-2.405 5.803 1.161 15.763-3.21 20.134-4.375 4.373-14.335.807-20.136 3.212-5.597 2.322-10.069 11.965-16.505 11.965s-10.908-9.643-16.505-11.965c-5.802-2.405-15.762 1.161-20.134-3.212-4.373-4.371-.807-14.333-3.213-20.134-2.32-5.597-11.964-10.069-11.964-16.505s9.644-10.908 11.964-16.505c2.406-5.802-1.16-15.762 3.213-20.135 4.372-4.372 14.333-.806 20.135-3.21 5.596-2.323 10.068-11.966 16.504-11.966s10.908 9.644 16.505 11.965c5.801 2.405 15.763-1.16 20.135 3.212s.806 14.333 3.211 20.134c2.322 5.597 11.965 10.07 11.965 16.505" fill="#d9bfff"/><path d="m51.817 65.134-13.907 10.15c-1.495 1.09-3.51-.374-2.934-2.132l5.354-16.362-13.95-10.089c-1.5-1.084-.73-3.454 1.121-3.45l17.216.037 5.284-16.384c.568-1.762 3.06-1.762 3.63 0l5.282 16.384 17.217-.038c1.85-.003 2.62 2.367 1.12 3.451l-13.95 10.09 5.356 16.36c.575 1.76-1.44 3.224-2.934 2.134l-13.906-10.15z" fill="#592acb"/><path d="m95.692 52.346c0 5.384-8.067 9.125-10.009 13.807-2.012 4.854.971 13.186-2.686 16.843-3.659 3.658-11.99.675-16.844 2.687-4.682 1.942-8.423 10.01-13.807 10.01s-9.125-8.068-13.807-10.01c-4.854-2.012-13.186.971-16.843-2.687-3.658-3.657-.675-11.99-2.688-16.843-1.94-4.682-10.008-8.423-10.008-13.807s8.067-9.125 10.008-13.807c2.013-4.854-.97-13.186 2.688-16.844 3.657-3.657 11.99-.674 16.844-2.686 4.681-1.942 8.422-10.009 13.806-10.009s9.125 8.067 13.807 10.01c4.853 2.011 13.186-.972 16.844 2.686 3.657 3.657.674 11.99 2.686 16.843 1.942 4.682 10.01 8.423 10.01 13.807" fill="#9059ff"/><path d="m52.346 62.38-10.571 7.717c-1.137.83-2.67-.283-2.232-1.621l4.072-12.44-10.606-7.67c-1.141-.825-.555-2.627.853-2.623l13.089.029 4.016-12.457c.433-1.34 2.327-1.34 2.759 0l4.017 12.457 13.089-.03c1.408-.002 1.993 1.8.853 2.625l-10.607 7.67 4.073 12.438c.437 1.339-1.095 2.452-2.232 1.623l-10.572-7.718z" fill="#fff"/></g></svg>