<svg height="101" width="113" xmlns="http://www.w3.org/2000/svg" xmlns:xlink="http://www.w3.org/1999/xlink"><mask id="a" fill="#fff"><path d="m.14.976h31.213v27.768h-31.213z" fill="#fff" fill-rule="evenodd"/></mask><mask id="b" fill="#fff"><path d="m0 .976h84.149v57.488h-84.149z" fill="#fff" fill-rule="evenodd"/></mask><g fill="none" fill-rule="evenodd"><path d="m28.851 82.66c0 2.082 1.473 3.77 3.287 3.77h77.575c1.814 0 3.287-1.688 3.287-3.77v-49.947c0-2.082-1.473-3.77-3.287-3.77h-77.575c-1.814 0-3.287 1.688-3.287 3.77z" fill="#d9bfff"/><path d="m.14.976v25.375c0 2.128 2.58 3.193 4.09 1.69l27.124-27.023z" fill="#d9bfff" mask="url(#a)" transform="translate(50.49 72.28)"/><path d="m84.149 54.695c0 2.082-1.473 3.77-3.287 3.77h-77.575c-1.814-.001-3.287-1.689-3.287-3.771v-49.948c0-2.081 1.473-3.77 3.287-3.77h77.575c1.814 0 3.287 1.689 3.287 3.77v49.95z" fill="#592acb" mask="url(#b)" transform="translate(0 -.779)"/><path d="m62.371 44.512v25.375c0 2.127-2.581 3.193-4.09 1.688l-27.123-27.02z" fill="#592acb"/><path d="m15.628 28.942h54.095m-54.095-14.372h54.095m-54.095 28.744h32.457" stroke="#c689ff" stroke-linecap="round" stroke-linejoin="round" stroke-width="7.2"/></g></svg>