<?xml version="1.0" encoding="utf-8"?>
<!-- Generator: Adobe Illustrator 16.0.0, SVG Export Plug-In . SVG Version: 6.00 Build 0)  -->
<!DOCTYPE svg PUBLIC "-//W3C//DTD SVG 1.1//EN" "http://www.w3.org/Graphics/SVG/1.1/DTD/svg11.dtd">
<svg version="1.1" id="LV_Download_on_the_App_Store"
	 xmlns="http://www.w3.org/2000/svg" xmlns:xlink="http://www.w3.org/1999/xlink" x="0px" y="0px" width="135px" height="40px"
	 viewBox="0 0 135 40" enable-background="new 0 0 135 40" xml:space="preserve">
<g>
	<path fill="#A6A6A6" d="M130.197,40H4.729C2.122,40,0,37.872,0,35.267V4.726C0,2.12,2.122,0,4.729,0h125.468
		C132.803,0,135,2.12,135,4.726v30.541C135,37.872,132.803,40,130.197,40L130.197,40z"/>
	<path d="M134.032,35.268c0,2.116-1.714,3.83-3.834,3.83H4.729c-2.119,0-3.839-1.714-3.839-3.83V4.725
		c0-2.115,1.72-3.835,3.839-3.835h125.468c2.121,0,3.834,1.72,3.834,3.835L134.032,35.268L134.032,35.268z"/>
	<g>
		<g>
			<path fill="#FFFFFF" d="M30.128,19.784c-0.029-3.223,2.639-4.791,2.761-4.864c-1.511-2.203-3.853-2.504-4.676-2.528
				c-1.967-0.207-3.875,1.177-4.877,1.177c-1.022,0-2.565-1.157-4.228-1.123c-2.14,0.033-4.142,1.272-5.24,3.196
				c-2.266,3.923-0.576,9.688,1.595,12.859c1.086,1.553,2.355,3.287,4.016,3.226c1.625-0.067,2.232-1.036,4.193-1.036
				c1.943,0,2.513,1.036,4.207,0.997c1.744-0.028,2.842-1.56,3.89-3.127c1.255-1.78,1.759-3.533,1.779-3.623
				C33.507,24.924,30.161,23.647,30.128,19.784z"/>
			<path fill="#FFFFFF" d="M26.928,10.306c0.874-1.093,1.472-2.58,1.306-4.089c-1.265,0.056-2.847,0.875-3.758,1.944
				c-0.806,0.942-1.526,2.486-1.34,3.938C24.557,12.205,26.016,11.382,26.928,10.306z"/>
		</g>
	</g>
	<g>
		<path fill="#FFFFFF" d="M53.645,31.504h-2.271l-1.244-3.909h-4.324l-1.185,3.909h-2.211l4.284-13.308h2.646L53.645,31.504z
			 M49.755,25.955L48.63,22.48c-0.119-0.355-0.342-1.191-0.671-2.507h-0.04c-0.131,0.566-0.342,1.402-0.632,2.507l-1.105,3.475
			H49.755z"/>
		<path fill="#FFFFFF" d="M64.662,26.588c0,1.632-0.441,2.922-1.323,3.869c-0.79,0.843-1.771,1.264-2.942,1.264
			c-1.264,0-2.172-0.454-2.725-1.362h-0.04v5.055h-2.132V25.067c0-1.026-0.027-2.079-0.079-3.159h1.875l0.119,1.521h0.04
			c0.711-1.146,1.79-1.718,3.238-1.718c1.132,0,2.077,0.447,2.833,1.342C64.284,23.949,64.662,25.127,64.662,26.588z M62.49,26.666
			c0-0.934-0.21-1.704-0.632-2.31c-0.461-0.632-1.08-0.948-1.856-0.948c-0.526,0-1.004,0.176-1.431,0.523
			c-0.428,0.35-0.708,0.807-0.839,1.373c-0.066,0.264-0.099,0.48-0.099,0.65v1.6c0,0.698,0.214,1.287,0.642,1.768
			s0.984,0.721,1.668,0.721c0.803,0,1.428-0.31,1.875-0.928C62.266,28.496,62.49,27.68,62.49,26.666z"/>
		<path fill="#FFFFFF" d="M75.699,26.588c0,1.632-0.441,2.922-1.324,3.869c-0.789,0.843-1.77,1.264-2.941,1.264
			c-1.264,0-2.172-0.454-2.724-1.362H68.67v5.055h-2.132V25.067c0-1.026-0.027-2.079-0.079-3.159h1.875l0.119,1.521h0.04
			c0.71-1.146,1.789-1.718,3.238-1.718c1.131,0,2.076,0.447,2.834,1.342C75.32,23.949,75.699,25.127,75.699,26.588z M73.527,26.666
			c0-0.934-0.211-1.704-0.633-2.31c-0.461-0.632-1.078-0.948-1.855-0.948c-0.527,0-1.004,0.176-1.432,0.523
			c-0.428,0.35-0.707,0.807-0.838,1.373c-0.065,0.264-0.099,0.48-0.099,0.65v1.6c0,0.698,0.214,1.287,0.64,1.768
			c0.428,0.48,0.984,0.721,1.67,0.721c0.803,0,1.428-0.31,1.875-0.928C73.303,28.496,73.527,27.68,73.527,26.666z"/>
		<path fill="#FFFFFF" d="M88.039,27.772c0,1.132-0.393,2.053-1.182,2.764c-0.867,0.777-2.074,1.165-3.625,1.165
			c-1.432,0-2.58-0.276-3.449-0.829l0.494-1.777c0.936,0.566,1.963,0.85,3.082,0.85c0.803,0,1.428-0.182,1.877-0.544
			c0.447-0.362,0.67-0.848,0.67-1.454c0-0.54-0.184-0.995-0.553-1.364c-0.367-0.369-0.98-0.712-1.836-1.029
			c-2.33-0.869-3.494-2.142-3.494-3.816c0-1.094,0.408-1.991,1.225-2.689c0.814-0.699,1.9-1.048,3.258-1.048
			c1.211,0,2.217,0.211,3.02,0.632l-0.533,1.738c-0.75-0.408-1.598-0.612-2.547-0.612c-0.75,0-1.336,0.185-1.756,0.553
			c-0.355,0.329-0.533,0.73-0.533,1.205c0,0.526,0.203,0.961,0.611,1.303c0.355,0.316,1,0.658,1.936,1.027
			c1.145,0.461,1.986,1,2.527,1.618C87.77,26.081,88.039,26.852,88.039,27.772z"/>
		<path fill="#FFFFFF" d="M95.088,23.508h-2.35v4.659c0,1.185,0.414,1.777,1.244,1.777c0.381,0,0.697-0.033,0.947-0.099l0.059,1.619
			c-0.42,0.157-0.973,0.236-1.658,0.236c-0.842,0-1.5-0.257-1.975-0.77c-0.473-0.514-0.711-1.376-0.711-2.587v-4.837h-1.4v-1.6h1.4
			v-1.757l2.094-0.632v2.389h2.35V23.508z"/>
		<path fill="#FFFFFF" d="M105.691,26.627c0,1.475-0.422,2.686-1.264,3.633c-0.883,0.975-2.055,1.461-3.516,1.461
			c-1.408,0-2.529-0.467-3.365-1.401s-1.254-2.113-1.254-3.534c0-1.487,0.43-2.705,1.293-3.652c0.861-0.948,2.023-1.422,3.484-1.422
			c1.408,0,2.541,0.467,3.396,1.402C105.283,24.021,105.691,25.192,105.691,26.627z M103.479,26.696
			c0-0.885-0.189-1.644-0.572-2.277c-0.447-0.766-1.086-1.148-1.914-1.148c-0.857,0-1.508,0.383-1.955,1.148
			c-0.383,0.634-0.572,1.405-0.572,2.317c0,0.885,0.189,1.644,0.572,2.276c0.461,0.766,1.105,1.148,1.936,1.148
			c0.814,0,1.453-0.39,1.914-1.168C103.281,28.347,103.479,27.58,103.479,26.696z"/>
		<path fill="#FFFFFF" d="M112.621,23.783c-0.211-0.039-0.436-0.059-0.672-0.059c-0.75,0-1.33,0.283-1.738,0.85
			c-0.355,0.5-0.533,1.132-0.533,1.895v5.035h-2.131l0.02-6.574c0-1.106-0.027-2.113-0.08-3.021h1.857l0.078,1.836h0.059
			c0.225-0.631,0.58-1.139,1.066-1.52c0.475-0.343,0.988-0.514,1.541-0.514c0.197,0,0.375,0.014,0.533,0.039V23.783z"/>
		<path fill="#FFFFFF" d="M122.156,26.252c0,0.382-0.025,0.704-0.078,0.967h-6.396c0.025,0.948,0.334,1.673,0.928,2.173
			c0.539,0.447,1.236,0.671,2.092,0.671c0.947,0,1.811-0.151,2.588-0.454l0.334,1.48c-0.908,0.396-1.98,0.593-3.217,0.593
			c-1.488,0-2.656-0.438-3.506-1.313c-0.848-0.875-1.273-2.05-1.273-3.524c0-1.447,0.395-2.652,1.186-3.613
			c0.828-1.026,1.947-1.539,3.355-1.539c1.383,0,2.43,0.513,3.141,1.539C121.873,24.047,122.156,25.055,122.156,26.252z
			 M120.123,25.699c0.014-0.632-0.125-1.178-0.414-1.639c-0.369-0.593-0.936-0.889-1.699-0.889c-0.697,0-1.264,0.289-1.697,0.869
			c-0.355,0.461-0.566,1.014-0.631,1.658H120.123z"/>
	</g>
	<g>
		<g>
			<path fill="#FFFFFF" d="M47.391,13.433h-3.715V6.896h1.048v5.655h2.667V13.433z"/>
			<path fill="#FFFFFF" d="M52.678,10.853c0,0.188-0.014,0.346-0.039,0.475h-3.143c0.013,0.466,0.164,0.821,0.455,1.067
				c0.266,0.22,0.608,0.33,1.028,0.33c0.466,0,0.89-0.074,1.271-0.223l0.164,0.728c-0.446,0.194-0.973,0.291-1.581,0.291
				c-0.73,0-1.305-0.215-1.722-0.645s-0.625-1.007-0.625-1.731c0-0.711,0.193-1.303,0.582-1.775
				c0.407-0.504,0.956-0.756,1.648-0.756c0.679,0,1.193,0.252,1.542,0.756C52.539,9.77,52.678,10.265,52.678,10.853z M51.678,10.582
				c0.007-0.311-0.062-0.579-0.203-0.805c-0.182-0.291-0.459-0.437-0.834-0.437c-0.343,0-0.621,0.142-0.835,0.427
				c-0.174,0.227-0.277,0.498-0.31,0.815H51.678z"/>
			<path fill="#FFFFFF" d="M55.374,12.977c0,0.925-0.197,1.581-0.592,1.969c-0.355,0.355-0.873,0.537-1.552,0.543l-0.106-0.825
				c0.42-0.032,0.718-0.149,0.893-0.349c0.207-0.227,0.311-0.783,0.311-1.668V8.719h1.047V12.977z M55.49,7.312
				c0,0.188-0.062,0.339-0.184,0.456c-0.123,0.117-0.278,0.175-0.466,0.175c-0.181,0-0.331-0.06-0.451-0.179
				c-0.119-0.12-0.18-0.27-0.18-0.451s0.062-0.33,0.185-0.446s0.278-0.175,0.466-0.175c0.181,0,0.331,0.059,0.451,0.175
				C55.43,6.982,55.49,7.131,55.49,7.312z"/>
			<path fill="#FFFFFF" d="M61.292,13.433h-0.921l-0.059-0.718h-0.02c-0.33,0.55-0.828,0.825-1.494,0.825
				c-0.465,0-0.837-0.146-1.115-0.437c-0.33-0.356-0.494-0.893-0.494-1.61V8.719h1.047v2.6c0,0.906,0.311,1.358,0.932,1.358
				c0.466,0,0.789-0.226,0.97-0.679c0.045-0.116,0.068-0.249,0.068-0.398V8.719h1.047v3.356
				C61.252,12.521,61.266,12.974,61.292,13.433z"/>
			<path fill="#FFFFFF" d="M67.616,11.018c0,0.802-0.217,1.436-0.649,1.901c-0.389,0.414-0.87,0.621-1.445,0.621
				c-0.621,0-1.067-0.223-1.339-0.669h-0.02v2.483h-1.048v-5.083c0-0.504-0.013-1.022-0.038-1.552h0.921l0.059,0.747h0.02
				c0.349-0.562,0.879-0.844,1.591-0.844c0.556,0,1.02,0.22,1.392,0.66C67.43,9.721,67.616,10.3,67.616,11.018z M66.549,11.057
				c0-0.459-0.104-0.837-0.311-1.135c-0.227-0.311-0.53-0.466-0.912-0.466c-0.259,0-0.493,0.086-0.703,0.257
				s-0.348,0.396-0.412,0.674c-0.032,0.129-0.049,0.236-0.049,0.32v0.786c0,0.343,0.105,0.632,0.315,0.868s0.483,0.354,0.819,0.354
				c0.395,0,0.702-0.152,0.922-0.456C66.439,11.956,66.549,11.555,66.549,11.057z"/>
			<path fill="#FFFFFF" d="M70.332,7.312c0,0.188-0.062,0.339-0.184,0.456c-0.123,0.117-0.281,0.175-0.477,0.175
				c-0.174,0-0.322-0.06-0.441-0.179s-0.18-0.27-0.18-0.451s0.062-0.33,0.186-0.446s0.273-0.175,0.455-0.175
				s0.334,0.059,0.457,0.175C70.27,6.982,70.332,7.131,70.332,7.312z M70.215,13.433h-1.047V8.719h1.047V13.433z"/>
			<path fill="#FFFFFF" d="M75.957,10.853c0,0.188-0.014,0.346-0.039,0.475h-3.143c0.014,0.466,0.164,0.821,0.455,1.067
				c0.266,0.22,0.609,0.33,1.029,0.33c0.465,0,0.889-0.074,1.271-0.223l0.164,0.728c-0.447,0.194-0.973,0.291-1.582,0.291
				c-0.73,0-1.305-0.215-1.721-0.645c-0.418-0.43-0.625-1.007-0.625-1.731c0-0.711,0.193-1.303,0.582-1.775
				c0.406-0.504,0.955-0.756,1.648-0.756c0.678,0,1.193,0.252,1.541,0.756C75.818,9.77,75.957,10.265,75.957,10.853z M74.957,10.582
				c0.008-0.311-0.061-0.579-0.203-0.805C74.572,9.485,74.295,9.34,73.92,9.34c-0.342,0-0.621,0.142-0.834,0.427
				c-0.174,0.227-0.277,0.498-0.311,0.815H74.957z"/>
			<path fill="#FFFFFF" d="M78.527,13.433H77.48V6.556h1.047V13.433z"/>
			<path fill="#FFFFFF" d="M83.92,13.433h-0.941l-0.076-0.543h-0.029c-0.324,0.433-0.783,0.65-1.377,0.65
				c-0.447,0-0.807-0.143-1.078-0.427c-0.246-0.258-0.367-0.579-0.367-0.96c0-0.576,0.24-1.015,0.723-1.319
				c0.48-0.304,1.158-0.453,2.031-0.446V10.3c0-0.621-0.326-0.931-0.977-0.931c-0.465,0-0.875,0.117-1.23,0.349l-0.213-0.688
				c0.439-0.271,0.979-0.407,1.617-0.407c1.234,0,1.85,0.65,1.85,1.95v1.736C83.852,12.78,83.875,13.155,83.92,13.433z
				 M83.252,7.128v0.631H80.99V7.128H83.252z M82.834,11.813v-0.727c-1.158-0.02-1.736,0.297-1.736,0.95
				c0,0.246,0.068,0.43,0.203,0.553c0.135,0.123,0.305,0.184,0.51,0.184c0.232,0,0.445-0.073,0.643-0.218
				c0.195-0.146,0.316-0.331,0.361-0.558C82.828,11.946,82.834,11.884,82.834,11.813z"/>
			<path fill="#FFFFFF" d="M89.875,13.433h-0.93l-0.049-0.757h-0.029c-0.297,0.576-0.803,0.864-1.514,0.864
				c-0.568,0-1.041-0.223-1.416-0.669s-0.562-1.025-0.562-1.736c0-0.763,0.203-1.381,0.611-1.853c0.395-0.44,0.879-0.66,1.455-0.66
				c0.633,0,1.076,0.213,1.328,0.64h0.02V6.556h1.049v5.607C89.838,12.622,89.85,13.045,89.875,13.433z M88.789,11.445v-0.786
				c0-0.136-0.01-0.246-0.029-0.33c-0.059-0.252-0.186-0.464-0.379-0.635c-0.195-0.171-0.43-0.257-0.701-0.257
				c-0.391,0-0.697,0.155-0.922,0.466c-0.223,0.311-0.336,0.708-0.336,1.193c0,0.466,0.107,0.844,0.322,1.135
				c0.227,0.31,0.533,0.465,0.916,0.465c0.344,0,0.619-0.129,0.828-0.388C88.689,12.069,88.789,11.781,88.789,11.445z"/>
			<path fill="#FFFFFF" d="M95.58,10.853c0,0.188-0.014,0.346-0.039,0.475h-3.143c0.012,0.466,0.164,0.821,0.455,1.067
				c0.266,0.22,0.607,0.33,1.027,0.33c0.467,0,0.891-0.074,1.271-0.223l0.164,0.728c-0.445,0.194-0.973,0.291-1.58,0.291
				c-0.73,0-1.305-0.215-1.723-0.645c-0.416-0.43-0.625-1.007-0.625-1.731c0-0.711,0.193-1.303,0.582-1.775
				c0.408-0.504,0.957-0.756,1.648-0.756c0.68,0,1.193,0.252,1.543,0.756C95.439,9.77,95.58,10.265,95.58,10.853z M94.58,10.582
				c0.006-0.311-0.062-0.579-0.203-0.805c-0.182-0.291-0.459-0.437-0.834-0.437c-0.344,0-0.621,0.142-0.836,0.427
				c-0.174,0.227-0.277,0.498-0.309,0.815H94.58z M94.734,7.128v0.631h-2.26V7.128H94.734z"/>
			<path fill="#FFFFFF" d="M99.479,9.504h-1.154v2.29c0,0.582,0.205,0.873,0.611,0.873c0.188,0,0.344-0.016,0.467-0.049l0.027,0.795
				c-0.207,0.078-0.479,0.117-0.814,0.117c-0.414,0-0.736-0.126-0.969-0.378c-0.234-0.252-0.35-0.676-0.35-1.271V9.504h-0.689V8.719
				h0.689V7.855l1.027-0.31v1.173h1.154V9.504z"/>
			<path fill="#FFFFFF" d="M107.859,13.433h-1.049v-2.7c0-0.832-0.316-1.248-0.949-1.248c-0.311,0-0.562,0.114-0.758,0.343
				c-0.193,0.229-0.291,0.499-0.291,0.808v2.796h-1.047v-3.366c0-0.414-0.014-0.863-0.039-1.349h0.922l0.049,0.737h0.029
				c0.121-0.229,0.303-0.418,0.543-0.569c0.283-0.176,0.602-0.265,0.949-0.265c0.441,0,0.807,0.142,1.098,0.427
				c0.361,0.349,0.543,0.87,0.543,1.562V13.433z"/>
			<path fill="#FFFFFF" d="M114.01,11.037c0,0.725-0.207,1.319-0.621,1.785c-0.434,0.479-1.01,0.718-1.727,0.718
				c-0.693,0-1.244-0.229-1.654-0.689c-0.41-0.459-0.615-1.038-0.615-1.736c0-0.73,0.211-1.329,0.635-1.794s0.994-0.698,1.711-0.698
				c0.693,0,1.248,0.229,1.67,0.688C113.809,9.757,114.01,10.333,114.01,11.037z M112.922,11.071c0-0.435-0.094-0.808-0.281-1.119
				c-0.219-0.376-0.533-0.564-0.939-0.564c-0.422,0-0.742,0.188-0.961,0.564c-0.188,0.311-0.281,0.69-0.281,1.138
				c0,0.435,0.094,0.808,0.281,1.119c0.227,0.376,0.543,0.564,0.951,0.564c0.4,0,0.713-0.191,0.939-0.574
				C112.826,11.882,112.922,11.506,112.922,11.071z"/>
		</g>
	</g>
</g>
</svg>
