<svg xmlns="http://www.w3.org/2000/svg" width="458.05" height="463.86" viewBox="0 0 458.05 463.86"><defs><style>.cls-1{fill:#f4642f;}.cls-2{fill:#fb571d;}.cls-3{fill:#e6e6e6;}.cls-4{fill:#fff;}</style></defs><path class="cls-1" d="M355.77 301.49c-.88-20.7 1.62-41.49-.38-62.11-4.93-50.66-39.19-97.4-86-117.32-30.86-13.13-65.15-15-98.59-17.5-25-1.9-50.51-4.49-74-12.51l-36.63 5.81 10.65 33.48-36.54-6.08s-.91 14.62-1.62 29.13c-.29 6-.55 11.89-.7 16.79 26.67 33.74 66.88 56.62 109.33 65 50.58 10 108.83 3.14 147.74 37 27.09 23.57 36.82 60.73 53.43 92.57a221.79 221.79 0 0 0 93.67 93.54c6.84 3.56 15.44 6.64 21.92 2.68-58.87-30.65-99.45-94.08-102.28-160.48z"/><path class="cls-2" d="M428.41 446.49c-15.33-8.43-28.07-21.68-39.43-34.78a333.29 333.29 0 0 1-35.5-49c-9.46-16.06-15.73-33.41-23.65-50.23-9.22-19.58-20.49-38.67-36.44-53.55-17.27-16.1-39-24.08-62.07-27.28s-46.7-2.12-69.87-5.26c-31.59-4.28-62.23-16.57-88.48-34.55a187.72 187.72 0 0 1-40.31-37.48c-.29 6-.55 11.89-.7 16.79 26.67 33.74 66.88 56.62 109.33 65 50.58 10 108.83 3.14 147.74 37 27.09 23.57 36.82 60.73 53.43 92.57a221.89 221.89 0 0 0 89.94 91.55 4.85 4.85 0 0 0 .75-1.54c1-3.43-1.79-7.62-4.74-9.24z"/><path class="cls-3" d="M16.98 148.46a154 154 0 0 0 15 22.72c.15-4.9.41-10.84.7-16.79a202.36 202.36 0 0 1-31.4-55.23 144.8 144.8 0 0 0 15.7 49.3z"/><path class="cls-4" d="M25.91 0C4.46 27.79-3.34 64.23 1.28 99.16a202.36 202.36 0 0 0 31.38 55.23c.71-14.51 1.62-29.13 1.62-29.13l36.49 6.09-10.64-33.49 36.63-5.81a138.78 138.78 0 0 1-23.14-10.2C44.36 65.46 21.42 33.25 25.91 0z"/></svg>
