<svg xmlns="http://www.w3.org/2000/svg" width="556" height="278" fill="none" viewBox="0 0 556 278"><g clip-path="url(#a)"><path fill="#20123A" d="M0 0h556v278H0z"/><g clip-path="url(#b)"><path fill="#9B5400" d="m112.942 318.622 2.06 29.076h14.751a25.42 25.42 0 0 0 .343-4.989c-.318-11.135-7.544-21.067-17.154-24.087Zm15.932-78.063h-21.461l3.03 42.458c10.538-7.529 17.936-22.986 18.431-42.458Zm-23.4-24.056h19.643a74.295 74.295 0 0 0-1.889-5.02H105.07l.404 5.02Zm38.377 72.791c-.101 13.937 4.681 25.632 11.993 32.954l2.798-72.008c-9.029 9.882-14.675 24.137-14.791 39.054Zm16.235-72.791.217-5.02h-31.449a79.766 79.766 0 0 1 1.616 5.02h29.616Z"/><path fill="#9B5400" d="M139.63 289.294c-.051-18.416 7.438-36.085 19.335-47.3l.055-1.434H133.6c-.691 22.955-9.917 40.796-22.723 48.608l1.737 24.546c11.937 3.201 20.941 15.396 21.209 28.99a30.175 30.175 0 0 1-.324 4.989h21.396l.767-19.759c-9.513-7.817-15.987-21.699-16.032-38.64Z"/><path fill="#BC5E00" d="M130.47 216.503a91.519 91.519 0 0 0-1.616-5.02h-5.641a93.203 93.203 0 0 1 1.889 5.02h5.368Zm3.13 24.056h-4.726c-.505 19.467-7.893 34.909-18.452 42.458l.435 6.15c12.826-7.812 22.051-25.652 22.743-48.608Zm10.251 48.735c.111-14.922 5.757-29.172 14.785-39.049l.319-8.252c-11.897 11.211-19.386 28.884-19.336 47.301.046 16.936 6.52 30.802 16.008 38.64l.222-5.686c-7.312-7.322-12.094-19.017-11.998-32.954Zm-31.257 24.425.348 4.903c9.594 3.03 16.836 12.952 17.169 24.087a25.42 25.42 0 0 1-.343 4.989h3.716c.246-1.651.354-3.32.323-4.989-.272-13.594-9.276-25.814-21.213-28.99Z"/><path fill="#844500" d="M162.55 211.231h-2.247l-.217 5.02h-54.617l1.944 24.829h51.607l-4.575 106.704 11.327-.086 2.055-26.172 6.388-81.456 2.262-28.839H162.55Z"/><path fill="#F25F00" d="M139.064 98.34H75.439v.092A37.215 37.215 0 0 0 40 135.612v11.615h99.064V98.341Zm37.413 48.851v-11.579a37.247 37.247 0 0 1 37.246-37.246h-62.181v48.85h24.935v-.025Z"/><path fill="#954533" d="M183.865 215.175v-70.22l16.118-.435h43.932v-8.907a30.178 30.178 0 1 0-60.358 0v82.062h.318v-2.495l-.01-.005Z"/><path fill="#FF9100" d="M220.556 217.674h-37.014v-82.062a30.174 30.174 0 0 1 18.63-27.882 30.19 30.19 0 0 1 23.098 0 30.19 30.19 0 0 1 16.333 16.333 30.193 30.193 0 0 1 2.297 11.549v8.933h7.07v-8.933a37.247 37.247 0 0 0-74.493 0v89.132h44.084v-7.07h-.005Z"/><path fill="#EA5B00" d="M115.311 167.138a18.113 18.113 0 0 1 18.113-18.113c1.922.032 3.826.373 5.64 1.01l-.505-9.928L40 147.192v35.11h83.521a18.089 18.089 0 0 1-8.21-15.164Zm36.231 0a18.099 18.099 0 0 1-8.211 15.149h33.146v-44.149l-24.945 1.944.01 27.056Z"/><path fill="#E35800" d="m176.477 173.232-33.131 3.156c-2.848 1.864-6.246 8.868-9.907 8.868-3.661 0-12.119-6.035-14.957-7.898l-78.467 4.949v35.11h136.462v-44.185Z"/><path fill="#A74231" d="M139.064 150.009a17.922 17.922 0 0 0-5.64-1.01 18.112 18.112 0 1 0 18.113 18.113V57.01l-.035.065a1.576 1.576 0 0 1-.581 1.116h-37.787l2.823 11.776a9.09 9.09 0 0 0 7.251 6.817l12.321 2.161 3.535 71.064Zm-6.251 8.989a8.345 8.345 0 0 1 8.186 9.975 8.348 8.348 0 0 1-15.127 3.009 8.347 8.347 0 0 1 6.941-12.984Z"/><path fill="#F0705A" d="M148.856 58.191h2.671V57.01a3.033 3.033 0 0 0-3.126-3.03l-33.065 1.389a2.261 2.261 0 0 0-1.782.863 2.268 2.268 0 0 0-.425 1.934h35.722l.005.025Z"/><path fill="#fff" d="M132.818 175.686a8.347 8.347 0 1 0 0-16.694 8.347 8.347 0 0 0 0 16.694Z"/><path fill="#E3C692" d="m243.905 142.37-44.896 2.151.702 9.998h65.908l-.071-11.225v-.505a1.373 1.373 0 0 0-.43-1.015 1.373 1.373 0 0 0-1.034-.379l-13.099.641-7.08.334Z"/><path fill="#A74231" d="M176.477 217.412 40 214.321v10.423h136.477v-7.332Z"/><path fill="#FFEBC5" d="M199.983 158.487v13.432h31.505v3.03h-31.505v8.852h23.567v3.03h-23.567v7.125h3.03v3.03h-3.03v18.113h70.741v-56.612h-70.741Zm9.418 35.52h18.179v3.029h-18.179v-3.029Z"/><path fill="#FFF6DE" d="M183.865 156.503v1.984-3.969 1.985Zm15.841-1.985.277 3.969h76.927v-2.525a1.467 1.467 0 0 0-1.465-1.464H199.7l.006.02Z"/><path fill="#969AA2" d="M189.864 174.974h41.624v-3.055h-41.624v3.055Zm0 11.907h33.686v-3.055h-33.686v3.055Zm0 10.18h13.129v-3.055h-13.129v3.055Zm19.542-3.055h18.199v3.055h-18.199v-3.055Z"/><path fill="#EA5B00" d="M250.278 217.675h-29.717v7.069h29.717v-7.069Z"/><path fill="#F25F00" d="M304.157 220.593a1.565 1.565 0 0 0-1.313-2.399l-52.572-.505v7.07h49.639a2.979 2.979 0 0 0 2.524-1.394l1.722-2.772Z"/><path fill="#FFF6DE" d="m276.91 158.487-2.656 57.157a2.799 2.799 0 0 1-2.818 2.667h-2.611v-59.824h8.085Z"/><path fill="#DE4112" d="m260.65 164.754-17.548 1.358a1.595 1.595 0 0 0-1.355 1.177 1.599 1.599 0 0 0-.034.631l1.884 18.457a1.512 1.512 0 0 0 1.485 1.353h14.179a1.519 1.519 0 0 0 1.515-1.394l1.515-19.805a1.572 1.572 0 0 0-.967-1.662 1.573 1.573 0 0 0-.674-.115Z"/><path fill="#CBB183" d="m199.008 144.521-15.462.434v9.564h16.159l-.697-9.998Z"/><path fill="#CDC2A8" d="M199.705 154.519h-16.159v3.969h16.442l-.283-3.969Z"/><path fill="#ECD7B4" d="m203.917 214.518-3.929-56.031h-16.442v59.187h16.119l69.165.611v-3.767h-64.913Z"/><path fill="#CDC2A8" d="M268.83 214.518v3.767h2.611a2.768 2.768 0 0 0 2.792-2.595l.076-1.192h-5.479v.02Z"/><path fill="#969AA2" d="m188.854 175.914.192-4.419 42.796-2.019v7.069l-42.988-.631Zm-.187 5.807v6.943l34.716-.378.505-4.671-35.221-1.894Zm20.325 12.245v6.565l18.684-1.641v-4.924h-18.684Zm-5.807 0v7.07l-14.331-2.399-.187-4.671h14.518Z"/><path fill="#FF9100" d="M286.59 224.744v6.741a1.805 1.805 0 0 0 1.687 1.909h4.655c1.697 0 3.131-1.424 3.353-3.328l.616-5.322H286.59Z"/></g><g clip-path="url(#c)"><path fill="#F4642F" d="M509.108 277.223c-.403-9.49.743-19.022-.174-28.475-2.26-23.226-17.967-44.655-39.428-53.787-14.148-6.02-29.869-6.877-45.2-8.023-11.462-.872-23.157-2.059-33.927-5.736l-16.793 2.664 4.882 15.349-16.752-2.787s-.417 6.703-.743 13.355a459.989 459.989 0 0 0-.321 7.697c12.228 15.469 30.662 25.959 50.124 29.801 23.19 4.584 49.895 1.439 67.734 16.963 12.42 10.806 16.881 27.843 24.496 42.44a101.683 101.683 0 0 0 42.944 42.885c3.136 1.632 7.079 3.044 10.05 1.229-26.99-14.052-45.595-43.133-46.892-73.575Z"/><path fill="#FB571D" d="M542.411 343.701c-7.028-3.865-12.869-9.94-18.077-15.945a152.88 152.88 0 0 1-16.276-22.465c-4.337-7.363-7.212-15.318-10.843-23.029-4.227-8.977-9.394-17.729-16.706-24.551-7.918-7.381-17.88-11.04-28.457-12.507-10.577-1.467-21.41-.972-32.033-2.411-14.483-1.962-28.53-7.597-40.565-15.84a86.104 86.104 0 0 1-18.481-17.183c-.133 2.75-.252 5.451-.321 7.697 12.228 15.469 30.662 25.958 50.124 29.8 23.19 4.585 49.895 1.44 67.734 16.964 12.42 10.806 16.881 27.842 24.496 42.44a101.721 101.721 0 0 0 41.234 41.972c.156-.213.272-.452.344-.706.458-1.572-.821-3.493-2.173-4.236Z"/><path fill="#E6E6E6" d="M353.785 207.064a70.535 70.535 0 0 0 6.877 10.417c.069-2.247.188-4.97.321-7.698a92.76 92.76 0 0 1-14.396-25.321 66.384 66.384 0 0 0 7.198 22.602Z"/><path fill="#fff" d="M357.879 139c-9.834 12.741-13.41 29.447-11.292 45.461a92.769 92.769 0 0 0 14.386 25.321c.326-6.652.743-13.355.743-13.355l16.73 2.792-4.878-15.354 16.793-2.663a63.63 63.63 0 0 1-10.609-4.677c-13.414-7.514-23.932-22.281-21.873-37.525Z"/></g></g><defs><clipPath id="a"><path fill="#fff" d="M0 0h556v278H0z"/></clipPath><clipPath id="b"><path fill="#fff" d="M40 54h264.4v293.784H40z"/></clipPath><clipPath id="c"><path fill="#fff" d="M346 139h210v212.664H346z"/></clipPath></defs></svg>
