<svg xmlns="http://www.w3.org/2000/svg" width="523.6" height="581.79" viewBox="0 0 523.6 581.79"><defs><style>.cls-1{fill:#9b5400;}.cls-2{fill:#bc5e00;}.cls-3{fill:#844500;}.cls-4{fill:#f25f00;}.cls-5{fill:#954533;}.cls-6{fill:#ff9100;}.cls-7{fill:#ea5b00;}.cls-8{fill:#e35800;}.cls-9{fill:#a74231;}.cls-10{fill:#f0705a;}.cls-11{fill:#fff;}.cls-12{fill:#e3c692;}.cls-13{fill:#ffebc5;}.cls-14{fill:#fff6de;}.cls-15{fill:#969aa2;}.cls-16{fill:#de4112;}.cls-17{fill:#cbb183;}.cls-18{fill:#cdc2a8;}.cls-19{fill:#ecd7b4;}</style></defs><path class="cls-1" d="M144.45 524.04l4.08 57.58h29.21a50.36 50.36 0 0 0 .68-9.88c-.63-22.05-14.94-41.72-33.97-47.7zM176 369.45h-42.5l6 84.08c20.87-14.91 35.52-45.52 36.5-84.08zM129.66 321.81h38.9q-1.7-5.06-3.74-9.94h-35.96zM205.66 465.96c-.2 27.6 9.27 50.76 23.75 65.26l5.54-142.6c-17.88 19.57-29.06 47.8-29.29 77.34zM237.81 321.81l.43-9.94h-62.28q1.76 4.9 3.2 9.94h58.65z"/><path class="cls-1" d="M197.3 465.96c-.1-36.47 14.73-71.46 38.29-93.67l.11-2.84h-50.34c-1.37 45.46-19.64 80.79-45 96.26l3.44 48.61c23.64 6.34 41.47 30.49 42 57.41a59.62 59.62 0 0 1-.64 9.88h42.37l1.52-39.13c-18.84-15.48-31.66-42.97-31.75-76.52z"/><path class="cls-2" d="M179.16 321.81q-1.45-5-3.2-9.94h-11.17q2 4.88 3.74 9.94h10.63zM185.36 369.45H176c-1 38.55-15.63 69.13-36.54 84.08l.86 12.18c25.4-15.47 43.67-50.8 45.04-96.26zM205.66 465.96c.22-29.55 11.4-57.77 29.28-77.33l.63-16.34c-23.56 22.2-38.39 57.2-38.29 93.67.09 33.54 12.91 61 31.7 76.52l.44-11.26c-14.48-14.5-23.95-37.66-23.76-65.26zM143.76 514.33l.69 9.71c19 6 33.34 25.65 34 47.7a50.36 50.36 0 0 1-.68 9.88h7.36a59.62 59.62 0 0 0 .64-9.88c-.54-26.92-18.37-51.12-42.01-57.41z"/><path class="cls-3" d="M242.69 311.37h-4.45l-.43 9.94H129.65l3.85 49.17h102.2l-9.06 211.31 22.43-.17 4.07-51.83 12.65-161.31 4.48-57.11h-27.58z"/><path class="cls-4" d="M196.18 87.81h-126v.18A73.7 73.7 0 0 0 0 161.62v23h196.18V87.81zM270.27 184.55v-22.93a73.76 73.76 0 0 1 73.76-73.76H220.89v96.74h49.38z"/><rect class="cls-4" x="270.27" y="338.12" width="73.76"/><path class="cls-5" d="M284.9 319.18V180.12l31.92-.86h87v-17.64a59.765 59.765 0 1 0-119.53 0v162.51h.63v-4.94z"/><path class="cls-6" d="M357.56 324.13h-73.3V161.62a59.765 59.765 0 1 1 119.53 0v17.69h14v-17.69a73.76 73.76 0 0 0-73.76-73.76 73.76 73.76 0 0 0-73.76 73.76v176.51h87.3v-14z"/><path class="cls-7" d="M149.14 224.05a35.87 35.87 0 0 1 35.87-35.87 35.49 35.49 0 0 1 11.17 2l-1-19.66L0 184.55v69.53h165.4a35.84 35.84 0 0 1-16.26-30.03zM220.89 224.05a35.84 35.84 0 0 1-16.26 30h65.64v-87.43l-49.4 3.85z"/><path class="cls-8" d="M270.27 236.12l-65.61 6.25c-5.64 3.69-12.37 17.56-19.62 17.56s-24-11.95-29.62-15.64L.03 254.09v69.53h270.24v-87.5z"/><path class="cls-9" d="M196.18 190.13a35.49 35.49 0 0 0-11.17-2A35.87 35.87 0 1 0 220.88 224V5.96l-.07.13a3.11 3.11 0 0 1-1.15 2.21h-74.83l5.59 23.32a18 18 0 0 0 14.36 13.5l24.4 4.28zm-12.38 17.8a16.53 16.53 0 1 1-16.53 16.53 16.53 16.53 0 0 1 16.53-16.53z"/><path class="cls-10" d="M215.57 8.3h5.29V5.96a6 6 0 0 0-6.19-6l-65.48 2.75a4.49 4.49 0 0 0-4.37 5.54h70.74z"/><circle class="cls-11" cx="183.81" cy="224.45" r="16.53"/><path class="cls-12" d="M403.8 175l-88.91 4.26 1.39 19.8H446.8l-.14-22.23v-1a2.74 2.74 0 0 0-2.9-2.76l-25.94 1.27z"/><path class="cls-9" d="M270.27 323.61L0 317.49v20.64H270.27v-14.52z"/><path class="cls-13" d="M284.9 319.18V206.92v112.26zM316.82 206.92v26.6h62.39v6h-62.39v17.53h46.67v6h-46.67v14.11h6v6h-6v35.87h140.09V206.92H316.82zm18.65 70.34h36v6h-36v-6z"/><path class="cls-14" d="M284.9 202.99v3.93-7.86 3.93zM316.27 199.06l.55 7.86h152.34v-5a2.9 2.9 0 0 0-2.9-2.9h-150z"/><path class="cls-15" d="M296.78 239.57h82.43v-6.05h-82.43v6.05zM296.78 263.15h66.71v-6.05h-66.71v6.05zM296.78 283.31h26v-6.05h-26v6.05zM335.48 277.26h36.04v6.05h-36.04z"/><path class="cls-7" d="M416.42 324.13h-58.85v14h58.85v-14z"/><path class="cls-4" d="M523.12 329.91a3.1 3.1 0 0 0-2.6-4.75l-104.11-1v14h98.3a5.89 5.89 0 0 0 5-2.76z"/><path class="cls-14" d="M469.16 206.92l-5.26 113.19a5.54 5.54 0 0 1-5.58 5.28h-5.17V206.92h16z"/><path class="cls-16" d="M436.96 219.33l-34.75 2.69a3.14 3.14 0 0 0-2.75 3.58l3.73 36.55a3 3 0 0 0 2.94 2.68h28.08a3 3 0 0 0 3-2.76l3-39.22a3.12 3.12 0 0 0-3.25-3.52z"/><path class="cls-17" d="M314.89 179.26l-30.62.86V199.06h32l-1.38-19.8z"/><path class="cls-18" d="M316.27 199.06h-32v7.86h32.56l-.56-7.86z"/><path class="cls-19" d="M324.61 317.88l-7.78-110.96h-32.56v117.21h31.92l136.97 1.21v-7.46H324.61z"/><path class="cls-18" d="M453.16 317.88v7.46h5.17a5.49 5.49 0 0 0 5.53-5.14l.15-2.36h-10.85z"/><path class="cls-15" d="M294.78 241.43l.38-8.75 84.75-4v14l-85.13-1.25zM294.41 252.93v13.75l68.75-.75 1-9.25-69.75-3.75zM334.66 277.18v13l37-3.25v-9.75h-37zM323.16 277.18v14l-28.38-4.75-.37-9.25h28.75z"/><path class="cls-6" d="M488.33 338.13v13.35a3.58 3.58 0 0 0 3.34 3.78h9.22c3.36 0 6.2-2.82 6.64-6.59l1.22-10.54h-20.42z"/></svg>
