<svg width="522" height="254" viewBox="0 0 522 254" xmlns="http://www.w3.org/2000/svg"><title>Group 3</title><g fill="none" fill-rule="evenodd"><path fill="#2F263C" d="M498.344 199.155h17.348l6.308 2.35V254h-5.52l-14.152-.392-8.715-52.103"/><path fill="#30283E" d="M458.918 195.13l17.348 1.285 12.287 14.72 5.06 36.99-10.12 5.483-13.01-5.484-11.565-42.226"/><path fill="#322941" d="M434.202 195.13l15.745 1.448 15.654 51.154-17.993-1.654-8.567-5.45-8.96-41.835"/><path fill="#332B43" d="M404.574 186.606l16.453 1.858 10.94 54.726-5.814 1.052-20.762-2.345-5.174-6.8 1.467-44.033"/><path fill="#352C45" d="M376.55 180.737l19.464 4.366-3.49 56.43-20.74-1.37-6.585-7.178 6.888-46.132"/><path fill="#372D47" d="M343.784 176.904l-10.978 54.49 7.953 6.936 15.35-1.245 8.946-43.533-1.364-16.804-16.08-3.28"/><path fill="#382F49" d="M321.376 172.65l-25.63 48.905 1.636 6.738 7.026 2.045 14.308 1.763 6.087-6.256 12.524-48.734-2.178-5.62-8.792-2.107"/><path fill="#3A304C" d="M299.27 166.363l-52.504 44.645-.253 5.48 32.19 3.81 9.775-6.614 26.38-40.694 2.082-6.627-10.463-3.25"/><path fill="#3B324E" d="M200.284 201.505l70.178-45.443 11.04 2.35 11.04 3.918-66.237 48.577-21.29-3.917"/><path fill="#3D3350" d="M167.166 183.485l69.39-39.176 11.04.783 9.46 4.7-4.73 10.97-68.6 38.392-15.77-4.7M129.298 175.588l75.75-39.863 12.613 1.583 8.666 7.063-75.75 40.647-16.558-.804M100.763 162.083l58.912-31.066 16.335-4.136 18.68 8.28-76.578 39.21-11.212-2.457M62.293 150.577l83.583-32.907 10.25.784 5.52 7.05-76.486 37.61-13.405-2.35M48.1 145.876l82.794-27.422-.788-5.485-14.982-3.918-88.314 28.206v5.484M80.43 102l-8.675 2.35-60.743 17.14-3.127.88L0 125.507l.788 7.835 14.194 2.35 85.16-27.422-2.366-4.7"/><g fill="#F8C083"><path d="M131.582 179.762l-2.284-4.174 75.75-39.863 7.71.968-7.77-.335-74.57 39.424M104.637 168.29l-3.874-6.207 58.912-31.066 16.334-4.136 5.145 2.282-5.71-.653-15.507 4.29-56.905 29.53M68.24 156.978l-5.947-6.4 83.583-32.908 8.407.643-8.195.906-80.518 31.406M26.81 142.742v-5.484l88.314-28.206 9.43 2.465-9.582-1.068-86.25 27.663M80.43 102L7.884 122.37 0 125.507l.805 7.295.868-6.212 6.6-3.543 21.012-5.177 13.72-4.314 24.138-6.464 11.71-3.673 11.93-.482"/></g><g><path d="M162.935 131.423c-9.8-2.488-17.97-3.694-24.9-4.275-7.958-.666-14.73-.547-16.852 1.49-2.356 2.137.605 6.32-4.312 7.41-3.17.68-9.33.07-12.69.62-10.87-4.037-18.405-9.796-28.65-13.984-4.23-1.73-8.297-4.906-12.393-5.898 2.897 1.715 7.936 5.605 11.997 7.253 6.99 2.835 9.548 5.46 15.37 8.514.69.363 2.502 1.577 3.188 1.94 1.84 1.438 5.847 4.387 4.565 5.215-.254.14-3.444-.81-5.97-1.517-1.318-.465-2.645-.925-4.013-1.377-5.566-1.836-11.45-3.736-16.816-5.75-6.47-2.426-21.3-7.73-27.505-10.203-1.392-.11-1.06.62.195 1.388 1.255.77 11.764 5.39 13.58 6.13 15.042 6.132 30.422 11.35 46.392 17.634 14.99 6.225 31.472 12.935 47.783 19.016-7.243-1.748-14.718-3.823-22.134-6.15-6.36-1.994-16.75-5.666-22.96-7.402-1.684-.47-2.103-.053.035.925 19.264 7.195 39.97 13.806 60.352 19.264 2.128.573 4.342 1.147 6.118 1.407 15.877 5.812 31.495 11.06 46.24 15.788 6.685 2.146 13.998 4.382 18.56 4.89 4.595.234-11.294-5.386-17.856-7.858.575-1.202 1.13-2.412 1.662-3.63 6.3 1.716 12.46 3.276 18.39 4.656 2.71.632 5.808 1.166 4.856.236-.813-.794-3.964-2.008-6.56-2.947-19.748-7.143-39.13-14.15-58.15-20.923-1.31-.843-3.168-1.747-4.984-2.608-6.858-3.257-13.945-6.447-21.163-9.532 6.566 1.248 12.877 2.32 17.396 2.42 6.76.137 8.52-2.16 4.606-6.027-2.987-2.936-8.99-6.766-8.84-8.73.136-2.994 14.045-.165 27.23 3.688-10.05-4.575-21.875-8.555-31.767-11.075M118.64 50.904c-5.452-.31-9.883-4.357-14.875-6.594-6.59-2.953-14.537-2.617-20.84.882-4.195 2.33-7.523 5.854-10.627 9.573-1.218-4.61-2.847-9.148-4.88-13.557-.536-1.16-1.146-2.355-2.132-3.26.463-11.29.652-22.597.838-33.893.025-1.47-.15-3.267-1.493-3.868-1.573-.704-3.185.866-4.154 2.29-2.122 3.127-3.986 6.426-5.566 9.855l-11.46-.45c-.204-3.78.288-12.712-3.62-10.617-3.128 2.172-4.302 6.168-5.098 9.88-1.77 8.268-3.005 17.244-2.963 26.707-1.05.914-1.68 2.153-2.236 3.356-5.36 11.623-7.925 24.138-7.486 36.53.533 1.477 2.077 1.467 2.468.44 1.435-3.77 1.76-10.357 2.646-14.24 1.03-4.49 2.797-8.87 5.22-12.976.344 10.187 2.217 20.926 4.252 30.944 1.232 10.746 2.7 21.462 4.434 32.135.212 1.305.456 2.672 1.297 3.696.84 1.025 2.488 1.534 3.564.73-.568-4.45-.94-8.923-1.116-13.407-.145-3.69.523-7.57 1.053-11.23.13-.896.196-1.773.236-2.645.58-1.592 1.164-3.62 1.794-3.692 3.505-.33 6.172 3.373 8.24 4.9.307.502.616 1.004.913 1.51 2.512 4.278 4.213 9.048 4.98 13.96.45 2.878.655 5.99 2.434 8.278 1.36-2.676.943-5.924.436-8.923-1.213-7.183-2.745-14.388-2.934-21.637 4.81-1.58 9.238-5.055 14.204-6.523 7.8-2.305 16.186.523 24.285-.212 7.608-.69 14.614-4.507 20.666-9.182 5.267-4.068 10.072-8.948 13.018-14.936 2.947-5.988 3.863-13.206 1.41-19.43-2.596 7.868-8.675 16.077-16.91 15.607zm-54.03.125c1.587 2.698 2.885 5.517 3.88 8.407-1.575 1.922-3.216 3.828-4.987 5.568.447-4.652.81-9.312 1.106-13.976z" fill="#2D253A"/><path d="M62.476 2.465c.584-.86 1.404-1.763 2.307-2.198-.053-.03-.095-.068-.152-.094-1.573-.704-3.185.866-4.154 2.292-2.106 3.102-3.956 6.376-5.53 9.777.656.026 1.31.05 1.964.077 1.58-3.43 3.444-6.73 5.566-9.855zM59.05 93.89c-.296-.506-.606-1.008-.913-1.51-2.068-1.527-4.736-5.23-8.24-4.9-.092.01-.183.074-.273.16 2.672.72 4.8 3.474 6.512 4.74.307.502.617 1.004.914 1.51 2.512 4.28 4.214 9.05 4.98 13.96.45 2.88.654 5.99 2.434 8.278.38-.747.61-1.54.75-2.36-.67-1.855-.874-3.94-1.183-5.917-.766-4.91-2.468-9.68-4.98-13.96zM31.535 41.195c.555-1.202 1.186-2.442 2.235-3.356-.043-9.464 1.19-18.44 2.962-26.708.793-3.7 1.964-7.677 5.067-9.853-.486-.416-1.125-.48-1.97-.027-3.128 2.172-4.303 6.167-5.098 9.88-1.77 8.267-3.005 17.243-2.963 26.706-1.05.913-1.68 2.153-2.236 3.355-5.36 11.624-7.926 24.138-7.486 36.53.497 1.38 1.863 1.45 2.363.62-.14-.17-.27-.365-.362-.62-.44-12.392 2.125-24.906 7.486-36.53zm11.534 72.834c-1.734-10.674-3.202-21.39-4.433-32.136-2.036-10.018-3.91-20.757-4.25-30.945l-.35-1.317s-.654.032-1.65 1.33l.05 1.32.043.835.04.71.04.528c.59 9.153 2.267 18.63 4.077 27.538 1.23 10.745 2.7 21.462 4.433 32.135.212 1.303.456 2.67 1.297 3.694.764.93 2.19 1.425 3.253.906-.485-.196-.93-.512-1.253-.906-.84-1.024-1.085-2.39-1.297-3.695zm21.54-63l1.765 3.308c.808 1.664 1.523 3.36 2.118 5.087-.9 1.1-1.828 2.19-2.785 3.252l-2.202 2.328.102-.012c2.392-1.746 5.31-3.646 6.886-5.568-.995-2.89-3.607-6.158-5.768-8.41l-.113.014zm71.82-12.837c-.22-.986-.507-1.96-.88-2.91-2.417 7.326-7.854 14.937-15.236 15.575.11.01.217.027.327.033 7.218.413 12.78-5.845 15.79-12.697zM73.797 53.007l-1.498 1.758 2-.012c1.567-1.878 3.19-3.706 4.955-5.356 1.73-1.618 3.595-3.065 5.673-4.218 3.13-1.74 6.667-2.694 10.24-2.856-4.24-.16-8.526.793-12.24 2.855-3.53 1.96-6.445 4.77-9.13 7.827z" fill="#F8C083"/></g></g></svg>
