<svg width="1770" height="483" viewBox="0 0 1770 483" xmlns="http://www.w3.org/2000/svg"><title>Group 2</title><g fill="none" fill-rule="evenodd"><path fill="#B0708F" d="M125.14 0l-15.015 28.257-28.79 18.655-41.79 15.716L0 88v395h1770V89.11l-74.057-16.5-48.78-41.996-82.464-5.997-66.01 18.002-75.05-7.492-54.042 12.015-24.018-11.968-54.055 10.56-28.528 4.626-15.016 7.75L1236.398 81h-15.444l-15.267 7-15.43 4.11L1178 92l-3 9.11-11.56 3.003-8.64 10.503-22.483 10.507-31.514 1.516-12.003 10.53-27.024 3.062-27.027 12.125-22.524 9.143-18.103-8.5h-41.96l-46.55-1.446L886 162h-70.485l-43.643-15h-20.927l-21.022-8.946L660.746 132H644.33l-10.614-10H615.8l-7.508-15.445-31.535-7.946L555.627 84h-17.912L531.6 74h-11.904L491.25 52.778l-70.49-27.223L350.35 1h-22.864l-10.51 9.67L299.337 1h-37.922l-74.08 7.73"/><path fill="#9E6280" d="M125.07 94l-32.018 12.656L68.038 121l-33.018-4L0 125v358h1770V170h-27.468l-7.504 4.052-12.006 5.553-30.066-2.605H1681l-15.008 2.552-10.505 4.053-18.01 3-13.506-4.5-13.506-2.998-15.008-2.998-13.506 7.503-42.022 6.007-40.52-19.484-57.03 18.03-61.533-8.936-48.025-25.374-57.03 21.25L1236.7 174h-43.452l-19.51-9.446-39.02 16.052-27.013 1.5-21.01-7.497-33.018 3.003-52.527-1.493-22.512 10.516-24.012 12.03-22.512-5.937-25.513 3.124-24.01-5.75L857.483 185H824.06l-9.006-8.135-22.512-11.134-22.51-4.374-27.015-4.25L731.413 144H667.98l-10.07 8.99-31.08 11.99-18.883 2.375-9.005 1.75-8.61 4.895H573.43l-13.507-7.822-15.374-4.61-8.64 3.038L524.296 168h-12.398l-11.883-4.445-13.63-8.198-16.51-5.75L456.258 152h-13.394l-10.506-5.193-13.507-12.692-15.008-1.492-12.006 7.515-16.508 7.53-9.005-5.936-18.01-4.375-15.007-5.75-9.123-8.607h-11.888l-25.513 2.68-10.506-6.322-15.007-2.75L249.14 113h-11.883l-24.138 6.804-9.13-6.695-12.257-13.5"/><path fill="#81476D" d="M1358.102 51l-21.023 9-7.51-3-16.518-4.498-10.51 1.503-6.007 1.505-7.508 4.51-7.51 9.022-6.004 12.043-7.51 12.086-7.507 15.174-4.504 12.348-4.506 11.196h-7.508l-7.508-8.196-7.508-8.196-7.508-3-7.51-1.5-4.503-3-6.006-1.5-4.504 1.5-6.007 4.5-9.01 10.5-7.508 6-7.507 3-7.51 4.5-6.006 6-6.006 7.5-7.508 7.502L1129.855 168l-7.508 1.51-12.013 4.515-15.016 9.03-6.006-1.437-27.03 12.124-16.518 19.75-5.59.396h-10.928l-12.013 2.552-24.025 2.55-12.013-6-16.518-3-24.027 3-19.52-4.498-16.518-19.5-25.528-10.5-9.01-13.498-27.03-7.5-19.52 4.5-16.517 4.5-10.512 9-6.007 10.5-19.52 4.5-24.026-3.002-12.014-3-7.507 6-10.51-4.5-10.512-3-6.007-3-9.01 6-6.006-3-10.51-6-6.006 4.5-15.017-12-13.513-10.498-10.512-10.5-9.01-12-21.022-13.5-10.51-1.498-13.517 7.5-24.025-7.5-12.012-9-12.014 9-7.507-4.5-6.007 3-6.007 3-15.015 7.5-16.52 4.5L466.14 126l-10.51-7.496-21.024-8.992-16.518-1.484-9.01 9.03-16.517 9.062-19.522-4.375-16.518-10.25-30.15-5.607h-47.935l-13.514-11.693L240.898 105l-16.516-8.997-12.008-7.495-13.507-2.24-7.492 3.772-23.994-3.708-23.964-3.665-17.893 7.67-24.41 30.55-34.037 9.107-41.046 11.894L0 129.994V483h1770V89.997l-17.496-4.493-9.987-7.492-6.006-5.986-19.52 3.027-10.512 6.056-46.55 1.61-13.515-4.277-9.01-2.555h-7.508l-10.51 5h-12.015l-10.51-11.194L1589.35 63l-10.512-1.502-7.508 4.5-13.515 13.5-19.52-4.5-30.034-7.5L1485.74 93l-60.065-12-16.52-4.5-15.014-15"/><g><path d="M558 187.688c-1-3.157-2.788-6.33-4.432-9.52-1.652 1.853-3.06 3.736-4.718 5.647-2.308-3.025-4.493-6.062-6.804-9.112-1.67 2.282-3.28 4.594-4.955 6.935-1.663-2.158-3.297-4.32-4.963-6.49-1.676 1.318-3.34 2.656-5.02 4.015-1.666-2.857-3.326-5.723-4.995-8.598-2.015 1.998-4.03 4.027-6.05 6.086-1.343-2.074-2.683-4.154-4.026-6.237-1.36 1.5-2.718 3.012-4.08 4.538-1.35-1.352-2.698-2.707-4.048-4.06-1.692.75-3.384 1.514-5.078 2.29l-5.053-5.306c-1.698 1.156-3.397 2.328-5.097 3.514-1.688-1.386-3.378-2.77-5.068-4.152-1.7.833-3.402 1.68-5.104 2.54l-4.063-7.297c-2.043 1.93-4.086 3.886-6.13 5.86-2.02-4.006-4.042-8.02-6.066-12.037-1.718 3.537-3.436 7.093-5.153 10.67-2.363-3.28-4.73-6.56-7.096-9.836-2.05 2.813-4.104 5.647-6.156 8.5-2.035-2.84-4.07-5.675-6.108-8.508-2.052 2.496-4.104 5.01-6.155 7.542-1.7-3.933-3.4-7.865-5.104-11.796-1.38 3.736-2.762 7.482-4.143 11.238-1.032-1.968-2.065-3.935-3.098-5.9l-2.108 5.65c-1.704-4.29-3.41-8.58-5.12-12.864-1.716 4.157-3.432 8.326-5.147 12.506-1.708-2.733-3.417-5.46-5.127-8.18-1.713 2.658-3.426 5.326-5.137 8.002-1.71-3.86-3.422-7.712-5.135-11.556-1.713 3.845-3.425 7.697-5.137 11.556-1.713-1.907-3.426-3.806-5.14-5.696-1.71 1.952-3.422 3.91-5.132 5.876-1.714-3.795-3.43-7.58-5.148-11.353-1.708 3.9-3.414 7.805-5.12 11.713-1.376-1.857-2.753-3.706-4.13-5.55-1.372 1.988-2.74 3.977-4.11 5.968-1.377-1.833-2.754-3.658-4.132-5.476-1.705 2.024-3.41 4.052-5.113 6.083-2.056-4.042-4.112-8.062-6.17-12.06-2.368 4.396-4.734 8.793-7.098 13.188-1.72-3.622-3.436-7.227-5.154-10.814l-5.072 11.89c-1.712-2.063-3.423-4.113-5.134-6.147-1.693 2.467-3.385 4.936-5.076 7.403-1.714-3.515-3.428-7.008-5.14-10.478-1.35 3.93-2.7 7.85-4.046 11.763-1.704-1.604-3.408-3.194-5.11-4.767-1.69 2.123-3.375 4.245-5.06 6.365-1.37-1.982-2.737-3.95-4.104-5.904-1.68 2.503-3.362 5.002-5.042 7.497-2.038-3.64-4.075-7.245-6.11-10.812-2 4.4-4 8.785-6 13.152-1.704-4.69-3.406-9.343-5.106-13.956-1.66 5.394-3.32 10.764-4.98 16.108-1.688-2.467-3.374-4.908-5.058-7.32-1.664 3.228-3.328 6.446-4.992 9.65-1.68-2.047-3.358-4.07-5.033-6.067-1.662 2.87-3.323 5.73-4.985 8.578-1.676-3.705-3.35-7.37-5.02-10.995-1.652 4.588-3.306 9.15-4.96 13.684-1.65-2.594-3.794-5.156-5.436-7.683-1.637 3.528-3.412 7.036-5.412 10.524V363h335V187.688zM1297 228l-4.87-5.833-4.054 4.877-2.508-4.877-4.718 4.648s-3.493-5.062-5.804-8.112c-1.67 2.282-4.28 4.594-5.955 6.935-1.663-2.158-3.297-4.32-4.963-6.49-1.676 1.318-3.34 2.656-5.02 4.015-1.666-2.857-3.326-5.723-4.995-8.598-2.015 1.998-4.03 4.027-6.05 6.086-1.343-2.074-2.683-4.154-4.026-6.237-1.36 1.5-2.718 3.012-4.08 4.538-1.35-1.352-2.698-2.707-4.048-4.06-1.692.75-3.384 1.514-5.078 2.29l-5.053-5.306c-1.698 1.156-3.397 2.328-5.097 3.514-1.688-1.386-3.378-2.77-5.068-4.152-1.7.833-3.402 1.68-5.104 2.54l-4.063-7.297c-2.043 1.93-4.086 3.886-6.13 5.86-2.02-4.006-4.042-8.02-6.066-12.037-1.718 3.537-3.436 7.093-5.153 10.67-2.363-3.28-4.73-6.56-7.096-9.836-2.05 2.813-4.104 5.647-6.156 8.5-2.035-2.84-4.07-5.675-6.108-8.508-2.052 2.496-4.104 5.01-6.155 7.542-1.7-3.933-3.4-7.865-5.104-11.796-1.38 3.736-2.762 7.482-4.143 11.238-1.032-1.968-2.065-3.935-3.098-5.9l-2.108 5.65c-1.704-4.29-3.41-8.58-5.12-12.864-1.716 4.157-3.432 8.326-5.147 12.506-1.708-2.733-3.417-5.46-5.127-8.18-1.713 2.658-3.426 5.326-5.137 8.002-1.71-3.86-3.422-7.712-5.135-11.556-1.713 3.845-3.425 7.697-5.137 11.556-1.713-1.907-3.426-3.806-5.14-5.696-1.71 1.952-3.422 3.91-5.132 5.876-1.714-3.795-3.43-7.58-5.148-11.353-1.708 3.9-3.414 7.805-5.12 11.713-1.376-1.857-2.753-3.706-4.13-5.55-1.372 1.988-2.74 3.977-4.11 5.968-1.377-1.833-2.754-3.658-4.132-5.476-1.705 2.024-3.41 4.052-5.113 6.083-2.056-4.042-4.112-8.062-6.17-12.06-2.368 4.396-4.734 8.793-7.098 13.188-1.72-3.622-3.436-7.227-5.154-10.814l-5.072 11.89c-1.712-2.063-3.423-4.113-5.134-6.147-1.693 2.467-3.385 4.936-5.076 7.403-1.714-3.515-3.428-7.008-5.14-10.478-1.35 3.93-2.7 7.85-4.046 11.763-1.704-1.604-3.408-3.194-5.11-4.767-1.69 2.123-3.375 4.245-5.06 6.365-1.37-1.982-2.737-3.95-4.104-5.904-1.68 2.503-3.362 5.002-5.042 7.497-2.038-3.64-4.075-7.245-6.11-10.812-2 4.4-4 8.785-6 13.152-1.704-4.69-3.406-9.343-5.106-13.956-1.66 5.394-3.32 10.764-4.98 16.108-1.688-2.467-3.374-4.908-5.058-7.32-1.664 3.228-3.328 6.446-4.992 9.65-1.68-2.047-3.358-4.07-5.033-6.067-1.662 2.87-3.323 5.73-4.985 8.578-1.676-3.705-3.35-7.37-5.02-10.995-1.652 4.588-3.306 9.15-4.96 13.684-1.65-2.594-3.794-5.156-5.436-7.683-1.637 3.528-3.412 7.036-5.412 10.524l-5.25-5.53-2.99 8.49-2.51-2.96L941 238v155h356V228z" fill="#683D66"/><path fill="#593656" d="M203.288 161l-12.465 17.033-14.195-14.843-11.505 17.007-14.22-14.844-11.567 17.008L125 168.017l-14 16.06-12-14.59-6 14.59-16-19.615-7 19.615-12-19.614-11 19.615-13-19.614-8 25.026-14-19L0 192.75V483h1770V169.486l-6.24 17.303-6.785-15.626-5.178 16.29-6.963-15.625-5.27 16.29-7.172-15.615-6.012 16.594-8.782-15.252-5.88 16.583-8.783-15.25-5.882 16.583-7.69-15.276-9.13 14.512-12.476-17.058-10.193 14.394-4.472-17.057-10.194 14.392-5.968-17.185-10.944 17.42-13.99-14.36-10.013 17.357-21.985-14.36-5.013 17.356-9.824-14.21-12.72 24.3-6.798-12.5-9.637 12.492-3.523-17.048-7.48 11.717-6.517-17.042-8.48 11.718-4.692-13.74-7.504 12.206-8.13-15.637-6.873 16.302-8.128-15.637-4.87 16.303-9.95-15.562-11.93 18.738-10.878-12.66-11.455 18.654-13.874-12.662-11.455 18.654-14.162-15.593-11.187 21.76-11.855-12.003-10.816 18.662-11.85-12.003-10.816 18.662-11.75-12.033-9.778 18.08-11.127-11.78-8.876 17.107-11.124-11.78-8.874 17.108-8.136-12.776-9.152 17.426-7.547-13.42-7.12 17.415-10.544-17.417-4.122 21.413-10.903-8.575-5.52 11.64-9.53-9.067-6.14 10.735-8.526-11.066-7.14 12.728-8.185-10.096-9.56 8.996-3.377-17.276-10.963 13.778-3.365-17.273-10.96 13.78-4.318-17.446-8.45 15.926-7.505-15.982-7.498 15.982-7.5-15.982-7.498 15.982-6.952-15.963-10.54 14.778-7.02-11.988-10.983 9.74-7.016-10.99-3.98 8.743-7.17-16.83-8.416 12.864-7.35-17.046-7.654 12.464-7.342-17.04-7.652 12.464-3.394-10.664-2.687 10.78-7.695-8.817-4.977 13.314-6.685-8.82-5.975 13.313-7.443-21.137-7.57 23.844-6.005-11.986-6 11.986-5.995-12.985-6 12.984L916 222.93l-7.337 21.974-8.337-16.982-6.33 16.982-7.335-20.976-7.33 20.976-9.337-15.92-5.354 14.024-6.29-21.808-7.715 16.73-6.282-16.812-6.713 13.733-4.585-20.163-3.224 20.262-8.177-21.167-5.495 24.08-6.167-11.178-7.49 14.09-8.424-22.34-8.475 22.162-5.717-13.116-7.287 9.952-6.708-14.112-6.285 10.95-10.773-27.28-8.5 25.928-8.672-15.984-8.664 15.984-8.668-15.984-8.664 15.984-11.686-15.923-7.64 13.208-8.69-18.175-11.313 16.094-11.685-21.172-10.312 16.095-10.9-20.965-11.427 9.888-11.536-19.76-11.135 11.622-10.53-20.757-13.135 13.62-11.75-28.34-9.193 22.94-12.983-13.675-9.022 17.9-13.976-13.677-9.02 17.904-12.46-15.74-9.944 17.947-8.354-23.44-6.17 12.21-6.146-4.75-11.665 15.98-7.667-22.974-9.664 22.975L428 185.97l-9.67 15.98-9.673-15.98-9.664 15.98-9.668-15.98-9.664 15.98-8.895-15.945-13.347 13.822-8.352-17.73-13.985 13.734-8.345-17.73-13.985 13.736-8.566-17.767-18.885 13.663-14.61-18.014-18.73 13.684-14.604-18.014-18.725 13.685"/><path fill="#482B47" d="M976.673 265l-7.382 28.192-7.097-14.396-6.24 17.064-9.088-14.398-7.24 17.063-6.87-14.53-10.627 15.323-13.77-16.65-10.232 15.316-14.764-23.65-14.23 22.317-13.463-16.63-11.14 14.558-7.073-17.173-11.594 14.507-11.072-17.173-7.592 14.505-12.933-24.218-9.518 29.234-12.01-13.03-9.324 20.03-10.004-17.033-8.326 21.033-7.3-14.175-7.315 18.727-12.957-17.138-9.047 18.805-10.955-29.14-12.05 30.805-12.75-20.148-11.53 21.162-9.057-15.833-8.8 16.166L633.08 298l-10.13 16.826L612 301v182h648V283l-10.84 14.993-15.83-22-8.834 22-14.836-15-10.832 15-10.036-18.997-8.5 19.472-13.598-21.45-8.074 22.45-7.587-13.45-5.073 14.45-9.22-10.472-6.744 10.997-11.004-21-6.998 21-10-16-8 16-10.623-15.99-8.112 15.122-9.528-24.766-8.474 23.098-10.525-16.765-7.472 15.098-10.6-17.77-6.41 16.285-11.01-16.625-8.325 15.29-11.007-19.624-6.324 18.292"/></g><g fill="#EDBA8C"><path d="M931.96 357.26l-5.858-1.336-5.653-1.413-11.315-2.932-.527-.298-2.666-2.597-2.285-2.406-4.873-2.508-3.587-1.903-6.138-3.07-5.06-2.748 5.49 1.736 6.465 2.3 3.807 1.69 5.273 2.534 2.667 2.6 2.605 2.633 10.713 2.85 5.617 1.682 5.523 1.938 16.2 3.25M774.813 298.98l.652 7.27 6.54 3.343 7.573-.248 23.358 4.638 7.504 3.667 6.93 3.577 7.253-.073 7.38-.13 5.13 3.566 5.067.977 6.143 2.204 7.122 1.518 7.234 1.583 11.303 5.155-11.58-4.222-7.218-1.14-7.305-1.205-6.196-1.975-5.357-.894-5.096-3.19-6.627.254-7.253.026-8.03-3.798-7.468-3.714-22.5-4.902-7.76-.142-6.762-3.745-.334-.503-.513-7.82.257-.418 9.743-3.615M886.03 268.576l-10.667.13-5.378-.08-5.325-.268-10.642-.665-4.415 1.387-4.865 1.394-4.873 1.37-4.886 1.323-3.607 1.708-3.77 1.743-7.606 3.354 7.12-4.292 3.594-2.08 3.61-2.054 4.95-1.67 4.814-1.562 4.822-1.538 5.246-1.546 10.665.725 5.315.426 5.276.3 10.652.61 9.937.94M901.716 265.91l2.546-.998 1.817-.847 1.043-5.386-2.298-1.918-2.807-2.495-1.996-1.034-2.18-1.2-4.77-.402v-.505l4.995-.165 2.583.855 2.336.85 3.275 2.284 2.995 2.258.453 1.197-1.503 6.928-.743.758-2.654.637-2.674.572-5.428.873"/><path d="M891.926 245.082l-2.776.136-2.113 1.628.323 3.18 2.992.737 2.663.312v.552l-2.743.133-3.874-1.315-.382-3.76 2.563-2.2 5.215-.24.213.837"/><g><path d="M911.12 235.09l-4.375 2.368-.945-.046.476-.817 4.368-2.38.948.052M937.273 214.14l-3.47 1.595-3.546 1.377-3.613 1.178-3.85 4.906-4.783 4.59 3.474-5.565 3.828-5.75 4.137-1.708 3.64-1.096 4.51-1.355 2.963.66M807.8 183.865l8.616-.58 8.618-.532 11.103 5.993 8.005 2.07 8.257 2.223 15.334 10.934 8.352-1.702 8.8-1.54 4.845.973 4.436.906 8.98 1.636 16.882 3.77-17.083-2.5-9.047-1.21-4.534-.765-4.49-.817-8.374 1.756-8.766 1.724-.898-.187-15.468-10.778-7.86-2.1-8.494-2.43-10.422-6.133-8.105.347-8.633.17-16.842.928"/></g><path d="M885.998 162l5.742.325 5.73.418 11.434 1.078 11.4 1.345 11.267 1.755 6.104.225 6.103.095 6.103-.03 6.103-.147 12.123 7.07.33 1.355-6.045 6.26-5.918 6.017-1.04.364-10.555-1.486-10.063-1.697-7.19 1.348-7.2 1.295-7.214 1.233-7.2 1.22 6.987-2.232 7.097-1.783 7.11-1.722 7.123-1.67L945.263 184l10.492 1.584 4.993-5.498 5.28-5.11-10.346-6.878-5.802-.06-6.103-.03-6.103-.006-6.187.22-11.444-.94-11.393-1.36-11.36-1.67-5.667-.956"/></g></g></svg>
