<svg width="1180" height="345" viewBox="0 0 1180 345" xmlns="http://www.w3.org/2000/svg"><title>Group</title><defs><linearGradient x1="0%" y1="0%" y2="100%" id="a"><stop stop-color="#FFF" stop-opacity=".1" offset="0%"/><stop stop-color="#FFF" stop-opacity="0" offset="100%"/></linearGradient><linearGradient x1="0%" y1="100%" y2="0%" id="b"><stop stop-color="#FFF" stop-opacity=".1" offset="0%"/><stop stop-color="#FFF" stop-opacity="0" offset="100%"/></linearGradient><linearGradient x1="100%" y1="0%" x2="12.939%" y2="91.191%" id="c"><stop stop-color="#FFF" stop-opacity=".1" offset="0%"/><stop stop-color="#FFF" stop-opacity="0" offset="100%"/></linearGradient><linearGradient x1="119.967%" y1="-19.849%" x2="11.964%" y2="90.184%" id="d"><stop stop-color="#FFF" stop-opacity=".1" offset="0%"/><stop stop-color="#FFF" stop-opacity="0" offset="100%"/></linearGradient><linearGradient x1="0%" y1="100%" y2="8.797%" id="e"><stop stop-color="#FFF" stop-opacity=".1" offset="0%"/><stop stop-color="#FFF" stop-opacity="0" offset="100%"/></linearGradient><linearGradient x1="0%" y1="0%" x2="85.032%" y2="84.076%" id="f"><stop stop-color="#FFF" stop-opacity=".1" offset="0%"/><stop stop-color="#FFF" stop-opacity="0" offset="100%"/></linearGradient><linearGradient x1="64.285%" y1="0%" x2="0%" y2="0%" id="g"><stop stop-color="#FFF" stop-opacity=".1" offset="0%"/><stop stop-color="#FFF" stop-opacity="0" offset="100%"/></linearGradient><linearGradient x1="20.049%" y1="15.699%" x2="79.496%" y2="77.038%" id="h"><stop stop-color="#FFF" stop-opacity=".1" offset="0%"/><stop stop-color="#FFF" stop-opacity="0" offset="100%"/></linearGradient></defs><g fill="none" fill-rule="evenodd"><path d="M176.97 120.97c8.25-.457 16.533-.733 24.748-1.625.235-.025.247-.374 0-.375-8.25-.038-16.508.547-24.748.948-8.243.4-16.544.652-24.748 1.58-.287.033-.304.458 0 .46 8.246.077 16.518-.534 24.748-.99z" fill-opacity=".1" fill="#FFF"/><path d="M99.572 158.993c14.642 13.253 29.402 26.438 44.505 39.165.267.224.654-.153.387-.387-14.86-13.03-29.78-25.974-44.473-39.196-14.69-13.22-28.965-26.902-43.663-40.11 13.832 14.08 28.616 27.286 43.245 40.53z" fill="url(#a)" transform="translate(152)"/><path d="M51.205 123.79c.045-.136-.16-.184-.21-.057-2.293 5.638-4.53 11.24-6.256 17.09-.032.106.138.184.185.077 2.463-5.586 4.385-11.316 6.28-17.11z" fill="url(#b)" transform="translate(152)"/><path d="M177.317 175.793c8.31-6.817 16.77-13.492 24.86-20.57.145-.127-.052-.39-.207-.27-8.283 6.362-16.255 13.144-24.332 19.764-8.322 6.82-16.714 13.527-24.795 20.636-.065.058.024.177.095.123 8.308-6.345 16.3-13.054 24.38-19.683z" fill="url(#c)" transform="translate(152)"/><path d="M116.15 227.252c-9.362 7.153-18.913 14.04-28.492 20.898-.45.323-.03 1.075.442.756 9.873-6.7 19.482-13.794 28.944-21.06 9.216-7.078 18.545-14.203 27.12-22.054.234-.214-.085-.648-.345-.448-9.328 7.167-18.322 14.762-27.67 21.908z" fill="url(#d)" transform="translate(152)"/><path d="M63.147 74.417c.058-.41-.53-.603-.64-.177-3.074 11.815-4.845 24.012-7.004 36.015-.028.156.206.225.24.066 2.63-11.9 5.686-23.826 7.404-35.903z" fill="url(#e)" transform="translate(152)"/><path d="M241.484 198.544c.214.26.68-.094.472-.364-9.962-12.91-20.875-25.18-32.39-36.72-.05-.05-.126.026-.078.078 11.064 12.01 21.656 24.37 31.996 37.006z" fill="url(#f)" transform="translate(152)"/><path d="M678.794 40.92c.294-.16.037-.566-.255-.44-8.822 3.843-17.635 8.228-25.993 12.985-.05.027-.016.115.038.092 8.886-3.71 17.767-8 26.21-12.637z" fill-opacity=".1" fill="#FFF"/><path d="M430.157 55.477c19.98.257 40.027.672 60-.026.397-.014.4-.608 0-.617-19.99-.472-40.005-.18-60-.416-19.973-.233-40.017-1.23-59.987-.922-.23.004-.223.335 0 .352 19.896 1.506 40.042 1.375 59.987 1.63z" fill="url(#g)" transform="translate(152)"/><path d="M754.135 40.155c22.15.96 44.282 2.27 66.39 3.916 12.54.935 25.064 2.024 37.59 3.093.74.063.728-1.076 0-1.148-44.104-4.374-88.453-6.84-132.748-8.155-12.558-.373-25.15-.84-37.713-.475-.4.01-.396.596 0 .617 22.132 1.183 44.334 1.192 66.48 2.153zM895.094 72.548c5.78 6.537 11.64 13.006 17.572 19.407 11.965 12.907 24.19 25.625 36.854 37.852.373.36.937-.203.57-.57-12.38-12.312-24.644-24.71-36.55-37.482-5.844-6.266-11.614-12.6-17.312-18.998-5.87-6.59-11.367-13.758-17.628-19.972-.094-.093-.272.032-.19.147 4.92 6.937 11.054 13.25 16.684 19.616zM843.708 217.154c8.736-6.418 17.44-12.882 26.11-19.39 17.25-12.948 34.372-26.065 51.354-39.363 9.677-7.577 19.387-15.138 28.886-22.94.55-.45-.23-1.198-.774-.773-34.37 26.918-68.63 53.894-103.784 79.793-9.654 7.114-19.576 13.945-28.94 21.436-.22.174.064.536.297.387 9.23-5.945 18.006-12.65 26.85-19.15zM715.522 93.754c.107.183.383.02.284-.166-8.886-16.752-18.494-33.09-27.78-49.62-.03-.053-.11-.006-.08.047 9.172 16.596 18.007 33.366 27.576 49.74z" fill-opacity=".1" fill="#FFF"/><path d="M628.06 24.238c-.167-.18-.413.08-.266.265 6.215 7.776 12.706 15.337 18.79 23.218.04.056.135.005.093-.053-5.885-8.05-11.878-16.06-18.617-23.43z" fill="#FFF" opacity=".1"/><path d="M896.28 18.97c.137-.128-.065-.322-.206-.204-6.387 5.372-12.564 10.966-18.737 16.582-.094.085.043.22.138.138 6.347-5.422 12.672-10.85 18.804-16.516z" fill-opacity=".1" fill="#FFF"/><path d="M819.994 155.686c.428.46 1.096-.22.684-.685-5.686-6.426-11.332-13.212-17.62-19.058-.215-.2-.625.074-.428.33 5.25 6.835 11.48 13.123 17.364 19.414z" fill="url(#h)" transform="translate(152)"/><path d="M783.182 180.912c-.153-.24-.53-.024-.384.225 9.624 16.56 19.376 33.06 29.2 49.502.04.068.147.007.108-.064-9.254-16.755-18.636-33.515-28.924-49.664zM830.613 92.84c-.31.47.423.876.742.435 8.795-12.133 18.314-23.38 28.96-33.935.126-.125-.063-.308-.194-.193-11.172 9.8-21.31 21.286-29.507 33.694zM737.432.614c.247-.168.02-.57-.236-.405-16.784 10.846-33.37 21.955-49.815 33.294-.093.065-.006.218.092.155 16.812-10.773 33.47-21.77 49.96-33.046z" fill-opacity=".1" fill="#FFF"/><g transform="translate(0 29)" fill="#FFF"><circle cx="684.5" cy="9.5" r="1.5"/><circle cx="651.5" cy="25.5" r="1.5"/><path d="M953.5 105c.828 0 1.5-.672 1.5-1.5s-.672-1.5-1.5-1.5-1.5.672-1.5 1.5.672 1.5 1.5 1.5z"/><circle fill-opacity=".3" cx="195.5" cy="114.5" r="1.5"/><circle fill-opacity=".3" cx="115.5" cy="195.5" r="1.5"/><circle cx="206.5" cy="88.5" r="1.5"/><circle fill-opacity=".3" cx="1171.5" cy="28.5" r="1.5"/><circle fill-opacity=".3" cx="956.5" cy="217.5" r="1.5"/><circle fill-opacity=".3" cx="981.5" cy="195.5" r="1.5"/><circle fill-opacity=".3" cx="1030.5" cy="239.5" r="1.5"/><circle fill-opacity=".05" cx="870" cy="16" r="16"/><circle fill-opacity=".15" cx="870.5" cy="16.5" r="10.5"/><circle cx="870.5" cy="16.5" r="2.5"/><circle cx="2.5" cy="194.5" r="2.5"/><circle cx="1097.5" cy="184.5" r="2.5"/><circle cx="1177.5" cy="114.5" r="2.5"/><circle fill-opacity=".3" cx="1034.5" cy="62.5" r="2.5"/><circle fill-opacity=".3" cx="39.5" cy="76.5" r="2.5"/><circle cx="151.5" cy="92.5" r="2.5"/><circle fill-opacity=".3" cx="298.5" cy="313.5" r="2.5"/></g></g></svg>
