<svg width="322" height="318" viewBox="0 0 322 318" xmlns="http://www.w3.org/2000/svg"><title>SUN</title><g fill="none" fill-rule="evenodd"><path d="M298.73 239.86c-13.885 24.002-33.64 45.084-57.642 58.97-23.264 13.46-51.074 18.704-79.885 18.704-28.81 0-55.855-6.567-79.12-20.027-24-13.886-43.373-34.31-57.26-58.31C11.363 215.932 0 189.273 0 160.462c0-28.81 8.646-57.042 22.106-80.307 13.887-24 37.054-40.988 61.056-54.875C106.426 11.82 132.392 0 161.202 0c28.81 0 56.51 8.83 79.773 22.29 24 13.885 43.618 34.917 57.505 58.918 13.46 23.265 23.53 50.443 23.53 79.254 0 28.81-9.82 56.135-23.28 79.4z" fill-opacity=".08" fill="#FFEDDD"/><path d="M279.47 228.74c-12.107 20.926-27.558 40.484-48.485 52.592-20.284 11.735-44.663 16.392-69.783 16.392-25.12 0-49.625-4.438-69.91-16.174-20.925-12.108-39.724-29.874-51.83-50.8-11.737-20.285-17.086-45.168-17.086-70.288 0-25.12 8.51-48.174 20.247-68.458C54.73 71.077 71.093 52.737 92.02 40.63c20.283-11.737 44.063-18.67 69.182-18.67 25.12 0 48.558 7.523 68.842 19.26 20.927 12.106 40.072 28.445 52.18 49.372 11.735 20.284 17.3 44.75 17.3 69.87 0 25.12-8.318 47.993-20.054 68.277z" fill-opacity=".22" fill="#FFEDDD"/><path d="M267.57 221.87c-10.944 18.917-24.777 36.203-43.694 47.148-18.337 10.61-39.965 14.246-62.673 14.246s-45.213-2.123-63.55-12.732c-18.916-10.945-32.89-29.158-43.834-48.075-10.61-18.337-15.27-39.287-15.27-61.995s6.213-42.76 16.822-61.096c10.945-18.917 24.74-35.654 43.656-46.6 18.336-10.608 39.467-19.193 62.175-19.193s43.49 9.184 61.828 19.793c18.918 10.945 36.25 25.236 47.195 44.153 10.61 18.336 15.86 40.234 15.86 62.942s-7.905 43.07-18.514 61.407z" fill-opacity=".4" fill="#FFEDDD"/><path d="M248.036 222.32c-16.07 22.558-39.338 40.497-68.81 45.447-29.47 4.95-57.325-4.4-79.882-20.47-22.557-16.07-41.994-39.09-46.944-68.56-4.95-29.47 5.07-58.166 21.14-80.724C89.61 75.456 114.093 60.4 143.564 55.45c29.472-4.95 56.627 2.55 79.184 18.62 22.557 16.068 40.427 38.962 45.377 68.433 4.95 29.47-4.02 57.26-20.09 79.817z" fill-opacity=".85" fill="#FFEDDD"/><path d="M233.852 233.11c-18.287 18.288-44.744 29.92-72.65 29.92-27.904 0-53.638-12.355-71.925-30.642s-27.68-44.02-27.68-71.926c0-27.905 8.986-54.046 27.273-72.333 18.287-18.288 44.428-28.17 72.333-28.17s54.38 9.547 72.668 27.834c18.288 18.287 27.728 44.763 27.728 72.668 0 27.905-9.46 54.362-27.746 72.65z" fill="#FFEDDD"/><path d="M231.703 230.982c-17.743 17.743-43.413 29.03-70.49 29.03-27.074 0-52.043-11.988-69.786-29.732-17.743-17.743-26.856-42.712-26.856-69.787 0-27.075 8.72-52.44 26.462-70.182 17.744-17.742 43.107-27.33 70.182-27.33 27.076 0 52.764 9.263 70.508 27.006 17.743 17.743 26.902 43.432 26.902 70.507 0 27.075-9.178 52.746-26.92 70.49z" fill="#FFF"/></g></svg>
