<svg width="909" height="602" viewBox="0 0 909 602" xmlns="http://www.w3.org/2000/svg"><title>LEFT</title><g fill="none" fill-rule="evenodd"><path fill="#2D253A" d="M376.44 36l-14.303 16.953-16.86 25.99-8.1 21.043 10.856 1.99-11.595 16.785-11.82 31.336 9.75 2.126-18.46 26.683-13.057 26.914 12.023 1.848L294 236.85l-23.763 46.245 25.986 2.636L280.29 314.8l-10.192 30.108 18.914 2.85-13.66 24.92-10.655 31.478 15.384 2.318-15.422 29.36L253 472.515l80.277 11.06 35.298-8.123v55.33h23.583l1.593-54.31 39.61 6.09 107.45-15.932-23.457-27.21-20.917-35.04 16.24-2.2-19.748-23.695-17.825-31.107 32.19-4.36-18.89-22.664-22.388-39.07-1.456-2.246 25.672-4.128-25.288-44.114-18.983-21.61 8.73-.81-16.878-34.098-19.066-20.028 8.826-1.053-4.254-15.905-12.558-20.906-6.718-12.49 14.45-1.266-21.167-39.492"/><path fill="#F8C083" d="M433.962 211.185l20.73-2.81-16.88-34.1-13.595-14.28 10.776 16.412L446.72 202.8l-1.698 4.165M423.32 137.29l-16.385-28.385 13.556 29.052 2.42 9.822-1.86 3.534-11.48 3.284 9.177-.35 8.826-1.053M376.44 36l19.413 29.353 15.06 30.928-1.96 4.66-12.68 4.072 22.218-2.384-21.165-39.492"/><path fill="#2D253A" d="M517.44 4l-14.303 16.953-16.86 25.99-8.1 21.043 10.856 1.99-11.595 16.785-11.82 31.336 9.75 2.126-18.46 26.683-13.057 26.914 12.023 1.848L435 204.85l-23.763 46.245 25.986 2.636L421.29 282.8l-10.192 30.108 18.914 2.85-13.66 24.92-10.655 31.478 15.384 2.318-15.422 29.36L394 440.515l80.277 11.06 35.298-8.123v55.33h23.583l1.593-54.31 39.61 6.09 107.45-15.932-23.457-27.21-20.917-35.04 16.24-2.2-19.748-23.695-17.825-31.107 32.19-4.36-18.89-22.664-22.388-39.07-1.456-2.246 25.672-4.128-25.288-44.114-18.983-21.61 8.73-.81-16.878-34.098-19.066-20.028 8.826-1.053-4.254-15.905-12.558-20.906-6.718-12.49 14.45-1.266-21.167-39.492"/><path fill="#F8C083" d="M655.544 409.733l15.177 18.55-2.082 5.247-17.322 5.48 11.258-1.69 19.237-2.692-23.456-27.21-16.794-28.134M633.176 372.954l20.565-2.82-19.78-23.673-15.38-27.025 13.202 27.89 13.794 17.908-2 3.546M612.153 315.91l36.14-4.894-18.89-22.664-20.85-36.39 19.143 40.13 10.138 12.64-1.936 4.73M598.246 248.212l32.987-5.304-25.288-44.114-12.872-14.652 10.805 18.02 17.605 33.73-2.53 4.942M574.96 179.185l20.73-2.81-16.878-34.1-13.595-14.28 10.776 16.412L587.72 170.8l-1.697 4.165M564.32 105.29l-16.385-28.385 13.556 29.052 2.42 9.822-1.86 3.534-11.48 3.284 9.177-.35 8.826-1.053M517.44 4l19.413 29.353 15.06 30.928-1.96 4.66-12.68 4.072 22.218-2.384-21.165-39.492"/><g><path fill="#2D253A" d="M744.44 4l-14.303 16.953-16.86 25.99-8.1 21.043 10.856 1.99-11.595 16.785-11.82 31.336 9.75 2.126-18.46 26.683-13.057 26.914 12.023 1.848L662 204.85l-23.763 46.245 25.986 2.636L648.29 282.8l-10.192 30.108 18.914 2.85-13.66 24.92-10.655 31.478 15.384 2.318-15.422 29.36L621 440.515l80.277 11.06 35.298-8.123v55.33h23.583l1.593-54.31 39.61 6.09 107.45-15.932-23.457-27.21-20.917-35.04 16.24-2.2-19.748-23.695-17.825-31.107 32.19-4.36-18.89-22.664-22.388-39.07-1.456-2.246 25.672-4.128-25.288-44.114-18.983-21.61 8.73-.81-16.878-34.098-19.066-20.028 8.826-1.053-4.254-15.905-12.558-20.906-6.718-12.49 14.45-1.266-21.167-39.492"/><path fill="#F8C083" d="M882.544 409.733l15.177 18.55-2.082 5.247-17.322 5.48 11.258-1.69 19.237-2.692-23.456-27.21-16.794-28.134M860.176 372.954l20.565-2.82-19.78-23.673-15.38-27.025 13.202 27.89 13.794 17.908-2 3.546M839.153 315.91l36.14-4.894-18.89-22.664-20.85-36.39 19.143 40.13 10.138 12.64-1.936 4.73M825.246 248.212l32.987-5.304-25.288-44.114-12.872-14.652 10.805 18.02 17.605 33.73-2.53 4.942M801.96 179.185l20.73-2.81-16.878-34.1-13.595-14.28 10.776 16.412L814.72 170.8l-1.697 4.165M791.32 105.29l-16.385-28.385 13.556 29.052 2.42 9.822-1.86 3.534-11.48 3.284 9.177-.35 8.826-1.053M744.44 4l19.413 29.353 15.06 30.928-1.96 4.66-12.68 4.072 22.218-2.384-21.165-39.492"/></g><g fill="#2D253A"><path d="M318.44 107l-14.303 16.953-16.86 25.99-8.1 21.043 10.856 1.99-11.595 16.785-11.82 31.336 9.75 2.126-18.46 26.683-13.057 26.914 12.023 1.848L236 307.85l-23.763 46.245 25.986 2.636L222.29 385.8l-10.192 30.108 18.914 2.85-13.66 24.92-10.655 31.478 15.384 2.318-15.422 29.36L195 543.515l80.277 11.06 35.298-8.123v55.33h23.583l1.593-54.31 39.61 6.09 107.45-15.932-23.457-27.21-20.917-35.04 16.24-2.2-19.748-23.695-17.825-31.107 32.19-4.36-18.89-22.664-22.388-39.07-1.456-2.246 25.672-4.128-25.288-44.114-18.983-21.61 8.73-.81-16.878-34.098-19.066-20.028 8.826-1.053-4.254-15.905-12.558-20.906-6.718-12.49 14.45-1.266-21.167-39.492"/></g><g fill="#2D253A"><path d="M238.44 0l-14.303 16.953-16.86 25.99-8.1 21.043 10.856 1.99-11.595 16.785-11.82 31.336 9.75 2.126-18.46 26.683-13.057 26.914 12.023 1.848L156 200.85l-23.763 46.245 25.986 2.636L142.29 278.8l-10.192 30.108 18.914 2.85-13.66 24.92-10.655 31.478 15.384 2.318-15.422 29.36L115 436.515l80.277 11.06 35.298-8.123v55.33h23.583l1.593-54.31 39.61 6.09 107.45-15.932-23.457-27.21-20.917-35.04 16.24-2.2-19.748-23.695-17.825-31.107 32.19-4.36-18.89-22.664-22.388-39.07-1.456-2.246 25.672-4.128-25.288-44.114-18.983-21.61 8.73-.81-16.878-34.098-19.066-20.028 8.826-1.053-4.254-15.905-12.558-20.906-6.718-12.49 14.45-1.266-21.167-39.492"/></g><g fill="#2D253A"><path d="M77.057 154l-8.93 10.583-10.524 16.224-5.056 13.136 6.777 1.242-7.238 10.478-7.38 19.56 6.088 1.328L39.27 243.21l-8.15 16.8 7.504 1.155-13.03 18.216-14.834 28.867 16.222 1.646-9.947 18.145-6.36 18.794 11.805 1.78-8.527 15.556-6.65 19.65 9.602 1.447-9.627 18.328L0 426.49l50.113 6.906 22.034-5.072v34.538H86.87l.993-33.902 24.726 3.802 67.073-9.945-14.642-16.987-13.057-21.873 10.138-1.373-12.327-14.79-11.127-19.42 20.095-2.72-11.79-14.15-13.977-24.388-.91-1.402 16.028-2.577-15.785-27.538-11.85-13.49 5.45-.506-10.537-21.286-11.902-12.502 5.51-.658-2.656-9.928-7.84-13.05-4.193-7.797 9.02-.79-13.213-24.653"/></g><g fill="#2D253A"><path d="M123.588 197l-7.484 8.87-8.822 13.6-4.238 11.01 5.68 1.04-6.066 8.783-6.185 16.396 5.102 1.11-9.66 13.963-6.83 14.082 6.29.967-10.922 15.27-12.434 24.196 13.596 1.38-8.337 15.208-5.334 15.754 9.897 1.492-7.148 13.038-5.575 16.47 8.05 1.213-8.07 15.363-6.1 19.192 42.004 5.788 18.47-4.25v28.95h12.338l.834-28.418 20.725 3.187 56.222-8.336-12.274-14.24-10.944-18.333 8.497-1.15-10.332-12.4-9.326-16.275 16.843-2.28-9.884-11.86-11.713-20.442-.762-1.176 13.433-2.16-13.232-23.08-9.932-11.308 4.567-.424-8.83-17.84-9.976-10.48 4.618-.552-2.226-8.322-6.57-10.938-3.516-6.535 7.56-.663-11.074-20.663"/></g></g></svg>
