<svg width="922" height="550" viewBox="0 0 922 550" xmlns="http://www.w3.org/2000/svg"><title>RIGHT</title><g fill="none" fill-rule="evenodd"><path fill="#2D253A" d="M376.56 55l14.303 16.953 16.86 25.99 8.1 21.043-10.856 1.99 11.595 16.785 11.82 31.336-9.75 2.126 18.46 26.683 13.057 26.914-12.023 1.848L459 255.85l23.763 46.245-25.986 2.636L472.71 333.8l10.192 30.108-18.914 2.85 13.66 24.92 10.655 31.478-15.384 2.318 15.422 29.36L500 491.515l-80.277 11.06-35.298-8.123v55.33h-23.583l-1.593-54.31-39.61 6.09-107.45-15.932 23.457-27.21 20.917-35.04-16.24-2.2 19.748-23.695 17.825-31.107-32.19-4.36 18.89-22.664 22.388-39.07 1.456-2.246-25.672-4.128 25.288-44.114 18.983-21.61-8.73-.81 16.878-34.098 19.066-20.028-8.826-1.053 4.254-15.905 12.558-20.906 6.718-12.49-14.45-1.266 21.167-39.492"/><path fill="#F8C083" d="M329.68 156.29l16.385-28.385-13.556 29.052-2.42 9.822 1.86 3.534 11.48 3.284-9.177-.35-8.826-1.053M376.56 55l-19.413 29.353-15.06 30.928 1.96 4.66 12.68 4.072-22.218-2.384 21.165-39.492"/><path fill="#2D253A" d="M252.56 0l14.303 16.953 16.86 25.99 8.1 21.043-10.856 1.99 11.595 16.785 11.82 31.336-9.75 2.126 18.46 26.683 13.057 26.914-12.023 1.848L335 200.85l23.763 46.245-25.986 2.636L348.71 278.8l10.192 30.108-18.914 2.85 13.66 24.92 10.655 31.478-15.384 2.318 15.422 29.36L376 436.515l-80.277 11.06-35.298-8.123v55.33h-23.583l-1.593-54.31-39.61 6.09-107.45-15.932 23.457-27.21 20.917-35.04-16.24-2.2 19.748-23.695 17.825-31.107-32.19-4.36 18.89-22.664 22.388-39.07 1.456-2.246-25.672-4.128 25.288-44.114 18.983-21.61-8.73-.81 16.878-34.098 19.066-20.028-8.826-1.053 4.254-15.905 12.558-20.906 6.718-12.49-14.45-1.266 21.167-39.492"/><path fill="#F8C083" d="M171.754 244.212l-32.987-5.304 25.288-44.114 12.87-14.652-10.804 18.02-17.603 33.73 2.53 4.942M195.04 175.185l-20.73-2.81 16.877-34.1 13.595-14.28-10.776 16.412L182.28 166.8l1.697 4.165M205.68 101.29l16.385-28.385-13.556 29.052-2.42 9.822 1.86 3.534 11.48 3.284-9.177-.35-8.826-1.053M252.56 0l-19.413 29.353-15.06 30.928 1.96 4.66 12.68 4.072-22.218-2.384 21.165-39.492"/><g><path fill="#2D253A" d="M123.73 116l10.693 12.672 12.603 19.427 6.054 15.728-8.115 1.488 8.667 12.546 8.836 23.422-7.29 1.59 13.8 19.944 9.76 20.118-8.987 1.382 15.603 21.813 17.762 34.568-19.423 1.97 11.91 21.727 7.617 22.505-14.138 2.13 10.21 18.628 7.964 23.528-11.5 1.733 11.53 21.945L216 442.283l-60.005 8.268-26.385-6.07v41.355h-17.627l-1.19-40.594-29.61 4.553L.87 437.883l17.533-20.34 15.634-26.19-12.14-1.644 14.763-17.712 13.323-23.252-24.062-3.26 14.12-16.94 16.736-29.204 1.09-1.678-19.19-3.086 18.9-32.974 14.19-16.153-6.525-.604 12.617-25.488 14.252-14.97-6.598-.787 3.18-11.888 9.386-15.627 5.022-9.335-10.8-.947 15.82-29.52"/><path fill="#F8C083" d="M20.503 419.275L9.158 433.14l1.557 3.923 12.948 4.095-8.415-1.263-14.38-2.01 17.534-20.34 12.553-21.03M37.222 391.784l-15.372-2.108 14.785-17.695 11.498-20.2-9.87 20.847-10.31 13.386 1.495 2.65M52.936 349.146l-27.014-3.66 14.12-16.94 15.585-27.2-14.31 29.995-7.577 9.45 1.447 3.535M63.33 298.542l-24.656-3.964 18.903-32.974 9.62-10.952-8.076 13.47-13.158 25.212 1.892 3.693M80.736 246.946l-15.495-2.1 12.617-25.488 10.162-10.675-8.056 12.268L71.2 240.68l1.268 3.114M88.69 191.712l12.248-21.217-10.133 21.715-1.808 7.342 1.39 2.642 8.58 2.455-6.86-.262-6.596-.788M123.73 116l-14.51 21.94-11.256 23.12 1.465 3.48 9.476 3.045-16.607-1.782 15.82-29.52"/></g><g fill="#2D253A"><path d="M479.46 134l9.68 11.474 11.41 17.59 5.48 14.24-7.346 1.347 7.848 11.36 8 21.207-6.6 1.44 12.494 18.057 8.836 18.214-8.136 1.252 14.126 19.75 16.082 31.296-17.586 1.784 10.783 19.672 6.898 20.376-12.8 1.93 9.245 16.864 7.21 21.303-10.41 1.57 10.437 19.87 7.89 24.824-54.33 7.485-23.888-5.498v37.444h-15.96l-1.078-36.754-26.807 4.122-72.718-10.783 15.874-18.415 14.156-23.714-10.99-1.488 13.364-16.036 12.064-21.053-21.786-2.95 12.784-15.34L418.838 300l.985-1.52-17.374-2.795 17.113-29.854 12.847-14.624-5.908-.548 11.423-23.077 12.903-13.553-5.973-.713 2.88-10.764 8.498-14.148 4.546-8.453-9.78-.858 14.325-26.727"/></g><g fill="#2D253A"><path d="M597.09 21l-13.726 16.268-16.18 24.94-7.77 20.193 10.416 1.91-11.126 16.108-11.344 30.068 9.358 2.04-17.716 25.605-12.528 25.828 11.536 1.774-20.03 28.003-22.803 44.377 24.936 2.53-15.29 27.892-9.78 28.89 18.15 2.737-13.108 23.914-10.224 30.205 14.764 2.224-14.8 28.175-11.187 35.197 77.033 10.615 33.872-7.796v53.092h22.63l1.53-52.114 38.008 5.844 103.108-15.29-22.51-26.11-20.07-33.625 15.583-2.11-18.95-22.737-17.104-29.85 30.89-4.184-18.127-21.75-21.485-37.49-1.397-2.155 24.636-3.96-24.267-42.333-18.216-20.737 8.38-.776-16.198-32.72-18.296-19.22 8.47-1.01-4.083-15.262-12.05-20.06-6.447-11.986 13.865-1.216-20.31-37.896"/></g><g fill="#2D253A"><path d="M696.475 122l10.373 12.295 12.228 18.85 5.874 15.26-7.873 1.445 8.41 12.173 8.572 22.726-7.073 1.54 13.39 19.353 9.468 19.52-8.72 1.34 15.14 21.164 17.234 33.54-18.848 1.91 11.556 21.082 7.39 21.835-13.716 2.068 9.908 18.073 7.726 22.83-11.157 1.68 11.185 21.294L786 438.583l-58.22 8.022-25.6-5.892v40.127h-17.105l-1.155-39.388-28.728 4.417-77.927-11.556 17.012-19.735 15.17-25.413-11.778-1.595 14.32-17.185 12.93-22.56-23.348-3.163 13.7-16.437 16.238-28.335 1.056-1.63-18.62-2.993 18.34-31.995 13.768-15.673-6.33-.586 12.24-24.73 13.828-14.526-6.4-.764 3.084-11.535 9.108-15.16 4.872-9.06-10.48-.918 15.352-28.64"/></g><g fill="#2D253A"><path d="M847.437 143l8.64 10.24 10.184 15.7 4.893 12.71-6.557 1.202 7.004 10.14 7.14 18.927-5.89 1.283L884 229.32l7.888 16.258-7.262 1.117 12.608 17.627 14.354 27.934-15.697 1.592 9.626 17.557 6.156 18.187-11.425 1.722 8.252 15.053 6.434 19.013-9.292 1.4 9.316 17.736L922 406.672l-48.49 6.682-21.322-4.908v33.42h-14.245l-.963-32.804-23.926 3.68-64.903-9.625 14.17-16.437 12.635-21.165-9.81-1.328 11.93-14.313 10.766-18.79-19.444-2.634 11.41-13.69 13.524-23.6.88-1.356-15.508-2.494 15.275-26.646 11.467-13.054-5.274-.488 10.196-20.597 11.516-12.098-5.33-.636 2.57-9.607 7.584-12.628 4.058-7.543-8.727-.766 12.785-23.855"/></g></g></svg>
