<svg xmlns="http://www.w3.org/2000/svg" width="222" height="122" viewBox="0 0 222 122">
  <path fill="none" stroke="#0E59E1" stroke-width="5" d="M153.8 34.4v56.1c0 4.3-3.7 7.9-8.3 7.9H53.8c-4.6 0-8.3-3.5-8.3-7.9V34.4"/>
  <path fill="#0E59E1" d="M151.5 19.5H47.7c-1.2 0-2.3 1-2.3 2.3v11.1h108.3V21.7c.1-1.2-1-2.2-2.2-2.2"/>
  <path fill="none" stroke="#0E59E1" stroke-width="5" d="M151.5 19.5H47.7c-1.2 0-2.3 1-2.3 2.3v11.1h108.3V21.7c.1-1.2-1-2.2-2.2-2.2z"/>
  <path fill="#1D2142" d="M53.9 27c0 1.7-1.3 3-3 3-1.6 0-3-1.4-3-3s1.3-3 3-3c1.7-.1 3 1.3 3 3M63.8 27c0 1.7-1.3 3-3 3s-3-1.4-3-3 1.3-3 3-3 3 1.3 3 3M73.4 27c0 1.7-1.3 3-3 3-1.6 0-3-1.4-3-3s1.3-3 3-3c1.7-.1 3 1.3 3 3"/>
  <path fill="#1C2142" d="M124.8 103.6H174.7c1.8-4.2 2.9-8.9 2.9-13.7 0-19-15.5-34.5-34.6-34.5h-.2c-19.1 0-34.6 15.4-34.6 34.5 0 4.9 1 9.5 2.9 13.7h13.7z"/>
  <path fill="none" stroke="#00C7D8" stroke-width="5" stroke-linecap="round" d="M124.8 103.6H174.7c1.8-4.2 2.9-8.9 2.9-13.7 0-19-15.5-34.5-34.6-34.5h-.2c-19.1 0-34.6 15.4-34.6 34.5 0 4.9 1 9.5 2.9 13.7h13.7z"/>
  <path fill="none" stroke="#FEFEFE" stroke-width="3" stroke-linecap="round" d="M142.5 66v6.5M125 74.4l4.3 4.3M120.1 91.3h6"/>
  <path fill="#00C7D8" d="M151.2 87.8c0 4.6-3.7 8.2-8.3 8.2s-8.3-3.7-8.3-8.2c0-4.6 3.7-8.2 8.3-8.2s8.3 3.6 8.3 8.2"/>
  <path fill="#005482" d="M142.9 87.8l17.4-17.3"/>
  <path fill="none" stroke="#137EFF" stroke-width="3" stroke-linecap="round" d="M142.9 87.8l17.4-17.3"/>
</svg>
