<svg xmlns="http://www.w3.org/2000/svg" width="222" height="122" viewBox="0 0 222 122">
  <path fill="none" stroke="#0022A9" stroke-width="5" stroke-linecap="round" d="M146 101.9H76.4c-4.9 0-9-3.2-9-7.1V81.9c0-3.9 4-7.1 9-7.1H146c4.9 0 9 3.2 9 7.1v12.9c0 3.9-4 7.1-9 7.1z"/>
  <path fill="none" stroke="#137EFF" stroke-width="4" stroke-linecap="round" d="M146 73.7H76.4c-4.9 0-9-3.2-9-7.1V53.7c0-3.9 4-7.1 9-7.1H146c4.9 0 9 3.2 9 7.1v12.9c0 3.9-4 7.1-9 7.1z"/>
  <path fill="none" stroke="#00C7D8" stroke-width="3" stroke-linecap="round" d="M146 46.6H76.4c-4.9 0-9-3.2-9-7.1v-13c0-3.9 4-7.1 9-7.1H146c4.9 0 9 3.2 9 7.1v12.9c0 3.9-4 7.2-9 7.2z"/>
  <path fill="#FEFEFE" d="M81.7 36.9c-2.1 0-3.8-1.7-3.8-3.8 0-2.1 1.7-3.8 3.8-3.8 2.1 0 3.8 1.7 3.8 3.8 0 2.1-1.7 3.8-3.8 3.8zM85.5 60.2c0 2.1-1.7 3.8-3.8 3.8-2.1 0-3.8-1.7-3.8-3.8 0-2.1 1.7-3.8 3.8-3.8 2.1 0 3.8 1.7 3.8 3.8M85.5 88.1c0 2.1-1.7 3.8-3.8 3.8-2.1 0-3.8-1.7-3.8-3.8 0-2.1 1.7-3.8 3.8-3.8 2.1 0 3.8 1.7 3.8 3.8"/>
</svg>
