<svg xmlns="http://www.w3.org/2000/svg" width="222" height="122" viewBox="0 0 222 122">
  <path fill="none" stroke="#005CE2" stroke-width="3" stroke-linecap="round" d="M76.3 77.2l76.8-33.5"/>
  <path fill="none" stroke="#FEFEFE" stroke-width="3" stroke-linecap="round" d="M120.5 26.7h-15.8M103.2 27.5c0-4.1-3.3-7.4-7.4-7.4-4.1 0-7.4 3.3-7.4 7.4s3.3 7.4 7.4 7.4c4.1 0 7.4-3.3 7.4-7.4zM110.2 91.5H126M127.5 92.4c0-4.1 3.3-7.4 7.4-7.4 4.1 0 7.4 3.3 7.4 7.4 0 4.1-3.3 7.4-7.4 7.4-4.1 0-7.4-3.3-7.4-7.4z"/>
  <path fill="none" stroke="#00C7D8" stroke-width="5" stroke-linecap="round" d="M72.7 93.4c18.1 4.2 36.3-7.2 40.5-25.5l.9-3.9 2-8.6c4.2-18.3 17.2-30.2 35.3-26"/>
  <ellipse fill="#00C7D8" cx="72.2" cy="93.6" rx="6.2" ry="6.1"/>
  <ellipse fill="#00C7D8" cx="151.2" cy="27.6" rx="6.2" ry="6.1"/>
</svg>
