<svg xmlns="http://www.w3.org/2000/svg" width="222" height="122" viewBox="0 0 222 122">
  <path fill="none" stroke="#FEFEFE" stroke-width="3" stroke-linecap="round" d="M154.4 41.2v-3.9c0-3 2.4-5.4 5.4-5.4h10.5"/>
  <path fill="none" stroke="#FEFEFE" stroke-width="3" stroke-linecap="round" d="M164.8 25.5l6.3 6.3-6.3 6.4M142.6 51h7.7M157.4 51h7.7M97.9 51h8.8M114.8 51h8.8M101.2 23h4.5c3.4 0 6.2 2.8 6.2 6.2v12"/>
  <path fill="none" stroke="#FEFEFE" stroke-width="3" stroke-linecap="round" d="M119 34.9l-7.2 7.2-7.2-7.2"/>
  <path fill="none" stroke="#FEFEFE" stroke-width="3" stroke-linecap="round" d="M101.2 23h4.5c3.4 0 6.2 2.8 6.2 6.2v12"/>
  <path fill="none" stroke="#FEFEFE" stroke-width="3" stroke-linecap="round" d="M119 34.9l-7.2 7.2-7.2-7.2M57.8 51h3.4M54.1 38.9l2.7-4.1c2-3.1 6.2-4 9.4-2l11 7.2"/>
  <path fill="none" stroke="#FEFEFE" stroke-width="3" stroke-linecap="round" d="M75.6 29.7l2.3 10.9L67 42.9"/>
  <path fill="none" stroke="#FEFEFE" stroke-width="3" stroke-linecap="round" d="M54.1 38.9l2.7-4.1c2-3.1 6.2-4 9.4-2l11 7.2"/>
  <path fill="none" stroke="#FEFEFE" stroke-width="3" stroke-linecap="round" d="M75.6 29.7l2.3 10.9L67 42.9"/>
  <path fill="#00C7D8" d="M53 69h117c1.7 0 3 1.3 3 3s-1.3 3-3 3H53c-1.7 0-3-1.3-3-3s1.3-3 3-3z"/>
  <path fill="#137EFF" d="M53 85h22c1.7 0 3 1.3 3 3s-1.3 3-3 3H53c-1.7 0-3-1.3-3-3s1.3-3 3-3z"/>
  <path fill="#0022A9" d="M87 85h39c1.7 0 3 1.3 3 3s-1.3 3-3 3H87c-1.7 0-3-1.3-3-3s1.3-3 3-3z"/>
</svg>
