<svg xmlns="http://www.w3.org/2000/svg" width="222" height="122" viewBox="0 0 222 122">
  <path fill="none" stroke="#0E59E1" stroke-width="5" d="M161.1 31.2v55.6c0 4.3-3.6 7.8-8.1 7.8H62.6c-4.5 0-8.1-3.5-8.1-7.8V31.2"/>
  <path fill="#0E59E1" d="M158.8 16.5H56.7c-1.2 0-2.2 1-2.2 2.2v11h106.6v-11c0-1.2-1-2.2-2.3-2.2"/>
  <path fill="none" stroke="#0E59E1" stroke-width="5" d="M158.8 16.5H56.7c-1.2 0-2.2 1-2.2 2.2v11h106.6v-11c0-1.2-1-2.2-2.3-2.2z"/>
  <path fill="#1D2142" d="M62.8 23.9c0 1.7-1.3 3-2.9 3s-2.9-1.4-2.9-3c0-1.7 1.3-3 2.9-3s2.9 1.3 2.9 3M72.5 23.9c0 1.7-1.3 3-2.9 3-1.6 0-2.9-1.4-2.9-3 0-1.7 1.3-3 2.9-3 1.6 0 2.9 1.3 2.9 3M82 23.9c0 1.7-1.3 3-2.9 3-1.6 0-2.9-1.4-2.9-3 0-1.7 1.3-3 2.9-3 1.6 0 2.9 1.3 2.9 3M169.3 77.6c0 15.6-12.6 28.3-28.1 28.3-15.5 0-28.1-12.7-28.1-28.3 0-15.6 12.6-28.3 28.1-28.3 15.5 0 28.1 12.7 28.1 28.3z"/>
  <path fill="none" stroke="#00C7D8" stroke-width="5" stroke-linecap="round" d="M169.3 77.6c0 15.6-12.6 28.3-28.1 28.3-15.5 0-28.1-12.7-28.1-28.3 0-15.6 12.6-28.3 28.1-28.3 15.5 0 28.1 12.7 28.1 28.3z"/>
  <path fill="none" stroke="#FEFEFE" stroke-width="3" stroke-linecap="round" d="M125 71.2c3.3 0 3.3 14.8 6.6 14.8s3.3-14.8 6.6-14.8 3.3 14.8 6.6 14.8 3.3-14.8 6.6-14.8S154.7 86 158 86"/>
</svg>
