<svg xmlns="http://www.w3.org/2000/svg" width="222" height="122" viewBox="0 0 222 122">
  <path fill="none" stroke="#FFF" stroke-width="3" stroke-linecap="round" d="M166 36v-5.2M130 36v-5.2"/>
  <path fill="none" stroke="#FFF" stroke-width="2" stroke-linecap="round" d="M50.5 33.7h121.6"/>
  <path fill="none" stroke="#FFF" stroke-width="3" stroke-linecap="round" d="M93 36v-5.2M59 36v-5.2"/>
  <path fill="#0E59E1" d="M51.5 54h49.1c1.9 0 3.5 1.6 3.5 3.5s-1.6 3.5-3.5 3.5H51.5c-1.9 0-3.5-1.6-3.5-3.5s1.6-3.5 3.5-3.5z"/>
  <path fill="#137EFF" d="M135.8 86.7h26.1c1.9 0 3.5 1.6 3.5 3.5s-1.6 3.5-3.5 3.5h-26.1c-1.9 0-3.5-1.6-3.5-3.5s1.6-3.5 3.5-3.5z"/>
  <path fill="#FFF" d="M117.1 54h26.1c1.9 0 3.5 1.6 3.5 3.5s-1.6 3.5-3.5 3.5h-26.1c-1.9 0-3.5-1.6-3.5-3.5s1.6-3.5 3.5-3.5z"/>
  <path fill="#00C7D8" d="M88.2 74.4c0-1.9 1.6-3.5 3.5-3.5h80.8c1.9 0 3.5 1.6 3.5 3.5s-1.6 3.5-3.5 3.5H91.7c-1.9 0-3.5-1.6-3.5-3.5z"/>
</svg>
