<svg xmlns="http://www.w3.org/2000/svg" width="222" height="122" viewBox="0 0 222 122">
  <path fill="none" stroke="#0080FF" stroke-width="5" stroke-linecap="round" d="M71.4 100.5c0 2.7 2.2 4.9 4.9 4.9h71.8c2.7 0 4.9-2.2 4.9-4.9V66.2c-3.9-2-6.6-5.1-6.6-9.7s2.7-7.8 6.6-9.7V22.3c0-2.7-2.2-4.9-4.9-4.9H76.3c-2.7 0-4.9 2.2-4.9 4.9"/>
  <path fill="none" stroke="#0080FF" stroke-width="5" stroke-linecap="round" d="M71.4 23.1v22.5c3.9 2 6.6 5.1 6.6 9.7s-2.7 7.8-6.6 9.7v36.2"/>
  <path fill="none" stroke="#00C7D8" stroke-width="3" stroke-linecap="round" d="M118 85.9v5.2m11-5.2v5.2m-22-5.2v5.2m-11-5.2v5.2"/>
  <path fill="none" stroke="#FFF" stroke-width="3" stroke-linecap="round" d="M125.9 37.9H99.8c-2.1 0-3.8 1.7-3.8 3.7v23.8c0 2.1 1.7 3.7 3.8 3.7H126c2.1 0 3.8-1.7 3.8-3.7V41.7c-.1-2.1-1.8-3.8-3.9-3.8zm4.4 6.3h4.6m-4.6 8.4h4.6m-4.6 9.3h4.6M91 44.2h4.6M91 52.6h4.6M91 61.9h4.6m7.6-24.8v-4.6m9.3 4.6v-4.6m8.5 4.6v-4.6m-17.8 41.8v-4.6m8.9 4.6v-4.6m8.9 4.6v-4.6"/>
</svg>
