<svg xmlns="http://www.w3.org/2000/svg" width="222" height="122" viewBox="0 0 222 122">
  <path fill="#00C7D8" d="M56.5 52h60c.8 0 1.5.7 1.5 1.5s-.7 1.5-1.5 1.5h-60c-.8 0-1.5-.7-1.5-1.5s.7-1.5 1.5-1.5zM56.5 65h55c.8 0 1.5.7 1.5 1.5s-.7 1.5-1.5 1.5h-55c-.8 0-1.5-.7-1.5-1.5s.7-1.5 1.5-1.5zM56.5 40h38c.8 0 1.5.7 1.5 1.5s-.7 1.5-1.5 1.5h-38c-.8 0-1.5-.7-1.5-1.5s.7-1.5 1.5-1.5zM56.5 77h38c.8 0 1.5.7 1.5 1.5s-.7 1.5-1.5 1.5h-38c-.8 0-1.5-.7-1.5-1.5s.7-1.5 1.5-1.5z"/>
  <path fill="none" stroke="#0080FF" stroke-width="5" d="M153.5 28.7v59.2c0 4.2-3.5 7.5-7.9 7.5H51.4c-4.4 0-7.9-3.4-7.9-7.5V28.7"/>
  <path fill="#0080FF" d="M151.4 14.5H45.6c-1.2 0-2.2 1-2.2 2.2v10.6h110.1V16.6c0-1.2-.9-2.1-2.1-2.1"/>
  <path fill="none" stroke="#0080FF" stroke-width="5" d="M151.4 14.5H45.6c-1.2 0-2.2 1-2.2 2.2v10.6h110.1V16.6c0-1.2-.9-2.1-2.1-2.1z"/>
  <path fill="#1C2142" d="M51.6 21.6c0 1.6-1.3 2.9-2.8 2.9-1.6 0-2.8-1.3-2.8-2.9 0-1.6 1.3-2.9 2.8-2.9 1.5 0 2.8 1.3 2.8 2.9M61 21.6c0 1.6-1.3 2.9-2.8 2.9-1.6 0-2.8-1.3-2.8-2.9 0-1.6 1.3-2.9 2.8-2.9 1.5 0 2.8 1.3 2.8 2.9M70.2 21.6c0 1.6-1.3 2.9-2.8 2.9-1.6 0-2.8-1.3-2.8-2.9 0-1.6 1.3-2.9 2.8-2.9 1.5 0 2.8 1.3 2.8 2.9M129.1 26.6h51v82.5h-51z"/>
  <path fill="#00C7D8" d="M138.5 48h32.2c.8 0 1.5.7 1.5 1.5s-.7 1.5-1.5 1.5h-32.2c-.8 0-1.5-.7-1.5-1.5s.7-1.5 1.5-1.5zM138.5 57h27.3c.8 0 1.5.7 1.5 1.5s-.7 1.5-1.5 1.5h-27.3c-.8 0-1.5-.7-1.5-1.5s.7-1.5 1.5-1.5zM138.5 38h23c.8 0 1.5.7 1.5 1.5s-.7 1.5-1.5 1.5h-23c-.8 0-1.5-.7-1.5-1.5s.7-1.5 1.5-1.5zM138.5 67h19c.8 0 1.5.7 1.5 1.5s-.7 1.5-1.5 1.5h-19c-.8 0-1.5-.7-1.5-1.5s.7-1.5 1.5-1.5z"/>
  <path fill="none" stroke="#0E59E1" stroke-width="5" stroke-linecap="round" d="M171.4 107.7h-34.5c-5.1 0-9.3-4.2-9.3-9.2V34.4c0-5.1 4.2-9.2 9.3-9.2h34.5c5.1 0 9.3 4.2 9.3 9.2v64.1c-.1 5-4.3 9.2-9.3 9.2z"/>
  <path fill="none" stroke="#0E59E1" stroke-width="4" stroke-linecap="round" d="M180.6 82.7h-53"/>
  <path fill="#FFF" d="M153.6 98.4c-2.2 0-3.9-1.8-3.9-3.9 0-2.2 1.8-3.9 3.9-3.9s3.9 1.8 3.9 3.9c.1 2.1-1.7 3.9-3.9 3.9z"/>
</svg>
