<svg xmlns="http://www.w3.org/2000/svg" width="222" height="122" viewBox="0 0 222 122">
  <path fill="none" stroke="#0E59E1" stroke-width="5" d="M169.3 35.1v58.8c0 4.6-4 8.2-8.9 8.2h-99c-4.9 0-8.9-3.7-8.9-8.2V35.1"/>
  <path fill="#0E59E1" d="M166.9 20.5h-112c-1.3 0-2.4 1.1-2.4 2.4v11.6h116.8V22.9c0-1.3-1.1-2.4-2.4-2.4"/>
  <path fill="none" stroke="#0E59E1" stroke-width="5" d="M166.9 19.5h-112c-1.3 0-2.4 1.1-2.4 2.4v11.6h116.8V21.9c0-1.3-1.1-2.4-2.4-2.4z"/>
  <path fill="#102436" d="M61.6 27.4c0 1.8-1.4 3.2-3.2 3.2s-3.2-1.4-3.2-3.2c0-1.8 1.4-3.2 3.2-3.2s3.2 1.4 3.2 3.2M72.2 27.4c0 1.8-1.4 3.2-3.2 3.2-1.8 0-3.2-1.4-3.2-3.2 0-1.8 1.4-3.2 3.2-3.2 1.8 0 3.2 1.4 3.2 3.2M82.6 27.4c0 1.8-1.4 3.2-3.2 3.2s-3.2-1.4-3.2-3.2c0-1.8 1.4-3.2 3.2-3.2s3.2 1.4 3.2 3.2"/>
  <path fill="none" stroke="#FEFEFE" stroke-width="3" stroke-linecap="round" d="M66.4 72.8l6.1 6.2-6.1 6.1M78.1 86.5h12.6"/>
  <path fill="#00C7D8" d="M114 45.5h43c.8 0 1.5.7 1.5 1.5s-.7 1.5-1.5 1.5h-43c-.8 0-1.5-.7-1.5-1.5s.7-1.5 1.5-1.5zM66 45.5h37c.8 0 1.5.7 1.5 1.5s-.7 1.5-1.5 1.5H66c-.8 0-1.5-.7-1.5-1.5s.7-1.5 1.5-1.5z"/>
  <path fill="#137EFF" d="M122 57.5h23c.8 0 1.5.7 1.5 1.5s-.7 1.5-1.5 1.5h-23c-.8 0-1.5-.7-1.5-1.5s.7-1.5 1.5-1.5zM66 57.5h47c.8 0 1.5.7 1.5 1.5s-.7 1.5-1.5 1.5H66c-.8 0-1.5-.7-1.5-1.5s.7-1.5 1.5-1.5z"/>
</svg>
