<svg xmlns="http://www.w3.org/2000/svg" width="222" height="122" viewBox="0 0 222 122" enable-background="new 0 0 222 122">
  <path fill="#00C7D8" d="M123.5 70.4H71.1c-4 0-7.2-3.3-7.2-7.3V43.5c0-4 3.2-7.3 7.2-7.3h52.5c4 0 7.2 3.3 7.2 7.3v19.6c0 4-3.3 7.3-7.3 7.3"/>
  <path fill="none" stroke="#137EFF" stroke-width="4" stroke-linecap="round" d="M54 14.5v78.8m86-78.8v78.8M156.5 25h-118m118 56h-118"/>
  <defs>
    <filter id="a" filterUnits="userSpaceOnUse" x="101.4" y="52.3" width="83.8" height="55.2">
      <feColorMatrix values="1 0 0 0 0 0 1 0 0 0 0 0 1 0 0 0 0 0 1 0"/>
    </filter>
  </defs>
  <mask maskUnits="userSpaceOnUse" x="101.4" y="52.3" width="83.8" height="55.2" id="b">
    <path fill="#FFF" d="M185.3 79.9v27.6h-83.9V52.3h83.9v27.6z" filter="url(#a)"/>
  </mask>
  <path mask="url(#b)" fill="#FEFEFE" d="M169.7 107.5H117c-8.6 0-15.6-7-15.6-15.6V52.3h68.2c8.6 0 15.6 7 15.6 15.6v24c.1 8.6-6.9 15.6-15.5 15.6"/>
  <path fill="#137EFF" d="M161.5 66h13c.8 0 1.5.7 1.5 1.5s-.7 1.5-1.5 1.5h-13c-.8 0-1.5-.7-1.5-1.5s.7-1.5 1.5-1.5z"/>
  <path fill="#0022A9" d="M110.5 91h13c.8 0 1.5.7 1.5 1.5s-.7 1.5-1.5 1.5h-13c-.8 0-1.5-.7-1.5-1.5s.7-1.5 1.5-1.5zM131.5 91h13c.8 0 1.5.7 1.5 1.5s-.7 1.5-1.5 1.5h-13c-.8 0-1.5-.7-1.5-1.5s.7-1.5 1.5-1.5z"/>
  <path fill="#137EFF" d="M110.5 66h42c.8 0 1.5.7 1.5 1.5s-.7 1.5-1.5 1.5h-42c-.8 0-1.5-.7-1.5-1.5s.7-1.5 1.5-1.5z"/>
  <path fill="#0E59E1" d="M110.5 79h64c.8 0 1.5.7 1.5 1.5s-.7 1.5-1.5 1.5h-64c-.8 0-1.5-.7-1.5-1.5s.7-1.5 1.5-1.5z"/>
</svg>
