<svg id="logo-ember" xmlns="http://www.w3.org/2000/svg" viewBox="0 0 146 56" width="146px" height="56px">
  <path fill="#ffffff" class="st0" d="M100.5 42s-.7-2.4 1.8-7 4.5-2.1 4.5-2.1 2.1 2.3-.3 5.9-6 3.2-6 3.2m-19.3 3.3c-2.9 7.6-9.8 4.5-9.8 4.5s-.8-2.7 1.5-10.3c2.3-7.6 7.6-4.6 7.6-4.6s3.6 2.8.7 10.4m-5.1-31.7s4.3-11.4 5.4-5.9c1 5.5-9.1 22.1-9.1 22.1.1-3.7 3.7-16.2 3.7-16.2M14.1 42c.2-7.3 4.9-10.5 6.6-8.9s1 5.1-2.1 7.2c-3.1 2.1-4.5 1.7-4.5 1.7m131.3-1.2c-.2-2.5-2.4-1.5-2.4-1.5s-3.5 2.8-6.7 2.5c-3.1-.3-2.1-7.3-2.1-7.3s.7-6.4-1.2-7c-1.8-.5-4.1 1.7-4.1 1.7s-2.8 3.1-4.2 7.1l-.4.1s.4-7-.1-8.6c-.4-.8-3.7-.7-4.3.7-.5 1.4-3.2 11.3-3.4 15.4 0 0-5.3 4.5-9.8 5.2s-5.7-2.2-5.7-2.2 12.5-3.5 12-13.6-10-6.3-11.1-5.5c-1.1.8-6.7 4.2-8.3 13.7-.1.3-.2 1.7-.2 1.7s-4.8 3.3-7.5 4.1c0 0 7.5-12.8-1.6-18.5-4.2-2.5-7.5 2.8-7.5 2.8s12.4-13.9 9.6-25.7C85.1.3 82.3-.3 79.8.6c-3.9 1.5-5.3 3.8-5.3 3.8s-5 7.3-6.2 18.2c-1.2 10.9-2.9 24.1-2.9 24.1S63 49 60.8 49.2c-2.2.1-1.2-6.6-1.2-6.6s1.7-10.2 1.6-12-.2-2.6-2.3-3.3-4.2 2-4.2 2-5.8 8.9-6.3 10.2l-.3.6-.1-.3s4.1-12.1.2-12.3c-3.9-.2-6.5 4.3-6.5 4.3s-4.5 7.5-4.6 8.4l-.3-.4s1.8-8.7 1.5-10.9-2.4-1.7-2.4-1.7-2.6-.3-3.2 1.4c-.7 1.7-3.1 12.7-3.4 16.2 0 0-6.4 4.6-10.6 4.7s-3.8-2.7-3.8-2.7S30.3 41.4 26 30.9c-1.9-2.7-4.1-3.6-7.2-3.5s-6.9 2-9.4 7.6c-1.2 2.7-1.5 5.3-1.8 7.2 0 0-2.8.6-4.3-.7-1.5-1.2-2.3 0-2.3 0s-2.5 3.2 0 4.2 6.4 1.4 6.4 1.4c.4 1.7 1.4 4.7 4.5 7 4.6 3.5 13.4-.3 13.4-.3l3.6-2s.1 3.3 2.7 3.8 3.7 0 8.3-11.2c2.7-5.7 2.9-5.4 2.9-5.4l.3-.1s-2.1 11-1.3 13.9c.8 3 4.3 2.6 4.3 2.6s1.9.3 3.4-5.1C51.1 45 54 39 54 39h.4s-1.3 11.3.7 14.8c2 3.6 7 1.2 7 1.2s3.5-1.8 4.1-2.3c0 0 4.2 3.6 10.1 3 13.3-2.6 18-6.2 18-6.2s2.3 5.8 9.3 6.4c8.1.6 12.5-4.5 12.5-4.5s-.1 3.3 2.7 4.5c2.8 1.2 4.7-5.5 4.7-5.5l4.7-13.1h.4s.2 8.5 4.9 9.9c4.6 1.4 10.7-3.1 10.7-3.1s1.5-.9 1.2-3.3"/>
</svg>
