<svg id="logo-react" xmlns="http://www.w3.org/2000/svg" viewBox="0 0 86 76" width="86px" height="76px">
  <path fill="#ffffff" class="st0" d="M42.7 30.2c-4.2 0-7.6 3.4-7.6 7.6s3.4 7.6 7.6 7.6 7.6-3.4 7.6-7.6-3.4-7.6-7.6-7.6"/>
  <path fill="#ffffff" class="st0" d="M68.1 48.2c-.5.2-.9.3-1.4.5-1.1-3.4-2.5-7-4.3-10.8 1.7-3.7 3.1-7.3 4.2-10.7.9.3 1.7.5 2.5.8 4 1.4 7.3 3.1 9.6 5 2 1.7 3.1 3.4 3.1 4.8-.1 2.9-4.4 7.3-13.7 10.4m-3.5 7c1.9 9.4.1 15.1-2.4 16.5-2.4 1.4-7.8.1-14.6-5.8-.7-.6-1.4-1.3-2.2-2 2.4-2.6 4.8-5.7 7.2-9.1 4.1-.4 8-1 11.6-1.8.1.8.2 1.5.4 2.2m-39.2 17c-.9 0-1.7-.2-2.3-.5-2.3-1.4-4-6.7-2.3-15.6.2-.9.4-1.9.6-2.8 3.5.8 7.3 1.3 11.5 1.7 2.4 3.3 4.8 6.4 7.3 9.1-.5.5-1.1 1-1.6 1.5-5.4 4.7-10.2 6.6-13.2 6.6m-8.6-24c-9-3.1-13.1-7.5-13.1-10.4 0-2.7 3.8-6.8 12.4-9.8.9-.3 1.9-.6 2.9-.9 1.1 3.5 2.5 7.1 4.2 10.8-1.7 3.7-3.1 7.4-4.2 10.9-.8-.1-1.5-.4-2.2-.6m4.1-28.1c-.8-4.1-1-7.9-.5-10.9.4-2.6 1.4-4.4 2.6-5.1 2.4-1.4 8.4.1 15.8 6.6.4.4.9.8 1.3 1.2-2.5 2.7-4.9 5.7-7.3 9-4 .4-7.9 1-11.4 1.8-.1-.8-.3-1.7-.5-2.6m36.8 9.1c-.8-1.5-1.7-2.9-2.6-4.3 2.7.3 5.3.8 7.8 1.4-.7 2.4-1.7 4.8-2.7 7.4-.8-1.5-1.6-3-2.5-4.5m-15-14.6c1.7 1.8 3.4 3.8 5 6-1.7-.1-3.4-.1-5.1-.1-1.7 0-3.3 0-5 .1 1.7-2.1 3.4-4.1 5.1-6M27.6 29.2c-.8 1.5-1.7 2.9-2.4 4.4-1.1-2.5-2-5-2.7-7.4 2.4-.5 5-1 7.7-1.3-.8 1.5-1.7 2.9-2.6 4.3M30.3 51c-2.8-.3-5.4-.7-7.9-1.3.8-2.4 1.7-5 2.8-7.5.8 1.5 1.6 2.9 2.4 4.4.9 1.5 1.8 3 2.7 4.4m12.5 10.4c-1.7-1.9-3.5-3.9-5.1-6.1 1.6.1 3.3.1 5 .1 1.7 0 3.5 0 5.2-.1-1.7 2.2-3.4 4.2-5.1 6.1m17.4-19.3c1.1 2.6 2.1 5.1 2.9 7.5-2.5.6-5.1 1-8 1.4.9-1.4 1.8-2.8 2.6-4.3.9-1.6 1.8-3.1 2.5-4.6m-5.6 2.7c-1.3 2.3-2.7 4.5-4.1 6.6-2.5.2-5.2.3-7.8.3-2.7 0-5.3-.1-7.7-.2-1.5-2.1-2.9-4.3-4.2-6.6-1.3-2.3-2.5-4.6-3.6-6.9 1.1-2.3 2.3-4.6 3.6-6.9 1.3-2.3 2.7-4.5 4.1-6.6 2.5-.2 5.2-.3 7.8-.3 2.6 0 5.2.1 7.8.3 1.4 2.1 2.8 4.3 4.1 6.6 1.3 2.3 2.6 4.6 3.7 6.8-1.1 2.3-2.4 4.6-3.7 6.9m1.8-40.4c2.4-.9 4.5-1 5.7-.3 2.4 1.4 4.2 7.3 2.2 17-.1.6-.2 1.1-.4 1.7-3.6-.8-7.4-1.4-11.4-1.8-2.3-3.3-4.8-6.4-7.2-9 .7-.6 1.3-1.2 2-1.8 3.1-2.7 6.3-4.8 9.1-5.8M81 30.3c-2.6-2.2-6.4-4.2-10.8-5.7l-2.7-.9c.2-.6.3-1.3.4-1.9 2.1-10.2.6-18.2-4-20.8-2.2-1.3-5.3-1.3-8.8 0-3.1 1.2-6.7 3.4-10.2 6.5-.7.6-1.4 1.3-2.1 2-.5-.5-1-.9-1.4-1.3-7.8-7-15.5-9.7-20.1-7C19 2.4 17.5 5 16.9 8.7c-.6 3.4-.4 7.6.5 12.2.2.9.4 1.9.6 2.8-1.1.3-2.2.6-3.2 1C5.5 27.9 0 32.8 0 37.9c0 2.6 1.5 5.3 4.5 7.8 2.7 2.4 6.6 4.4 11.2 6 .7.3 1.5.5 2.3.7-.3 1-.5 2-.7 3-1.8 9.6-.3 16.9 4 19.4 1.2.7 2.5 1 4.1 1 1.5 0 3.2-.3 4.9-1 3.4-1.2 7.1-3.5 10.7-6.7.6-.5 1.2-1.1 1.8-1.6.8.7 1.5 1.4 2.3 2.1 5.5 4.7 10.7 7.2 14.8 7.2 1.5 0 2.9-.3 4-1 2.3-1.3 3.9-4 4.6-7.8.7-3.6.5-7.9-.4-12.6-.1-.7-.3-1.5-.5-2.3.5-.2 1.1-.3 1.6-.5 10-3.3 16.1-8.6 16.1-13.8 0-2.5-1.5-5.1-4.3-7.5"/>
</svg>
