<svg id="logo-angular" xmlns="http://www.w3.org/2000/svg" viewBox="0 0 79 87">
  <path class="st0" fill="#ffffff" d="M64.4 63.3C56 44.8 47.7 26.3 39.3 7.7c-8.4 18.6-16.7 37.1-25.1 55.6.4 0 .6.1.8.1h7.7c.6 0 .9-.2 1.1-.8 1.4-3.8 2.8-7.5 4.2-11.3.2-.6.5-.8 1.2-.8h20.1c.7 0 .9.2 1.1.8 1.4 3.8 2.8 7.5 4.3 11.3.1.3.5.7.7.7 3 .1 5.9 0 9 0m14.2-48.4c-.7 6.2-1.3 12.3-2 18.5-.9 8.3-1.8 16.6-2.7 25-.3 2.8-.6 5.7-.9 8.5-.1.6-.3.9-.8 1.2-10.8 6-21.5 12.2-32.2 18.3-.5.3-.8.2-1.3 0C27.9 80.2 17.2 74.1 6.5 68c-.6-.3-.7-.7-.7-1.3-.8-6.6-1.5-13.3-2.3-19.9C2.4 36.9 1.4 26.9.3 17c-.1-.7-.1-1.4-.2-2-.1-.5.1-.7.6-.9C13.3 9.4 26 4.8 38.8.3c.3-.1.8-.1 1.2 0C52.7 4.9 65.3 9.4 78 14c.4.2.8.3.6.9"/>
  <path fill="#ffffff" class="st0" d="M46.8 43h-15c2.5-5.9 4.9-11.7 7.5-17.8 2.6 6.1 5 11.9 7.5 17.8"/>
</svg>
