<svg xmlns="http://www.w3.org/2000/svg" width="123.674" height="96.206" viewBox="7.326 0.797 123.674 96.206"><g opacity=".5" fill="#FFF"><path d="M86.655 79.633H29.498c-1.293 0-2.463-1.17-2.463-2.463V13.115c0-1.293 1.17-2.463 2.463-2.463h73.91c1.293 0 2.463 1.17 2.463 2.463v12.688h9.855V13.115c0-6.775-5.542-12.318-12.317-12.318H19.644C12.87.797 7.326 6.34 7.326 13.115V77.17c0 6.773 5.543 12.318 12.318 12.318h67.01v-9.855zM17.18 50.068c-2.71 0-4.927-2.215-4.927-4.926 0-2.71 2.217-4.928 4.927-4.928 2.71 0 4.928 2.22 4.928 4.928 0 2.712-2.218 4.926-4.928 4.926z"/><path d="M77.54 50.316c.985-2.03 2.463-6.53 1.17-10.225v.062s-.247.74-.557 1.91c0-.123-.06-.31-.06-.432.123-1.416.06-2.28-.308-3.818-.615-2.71-2.033-4.68-2.957-5.295.06.06.06.06.124.12-.124-.06-.186-.12-.186-.12s.062.184.122.553c-.984-1.54-2.464-2.28-2.464-2.28s.062.248.125.802c-3.02-2.77-7.023-4.434-11.397-4.434-4.434 0-8.5 1.724-11.518 4.62.185.185.37.43.494.74 0 0 1.168-.186 2.586-.062 2.462-1.786 5.357-2.772 8.437-2.772 3.94 0 7.638 1.602 10.41 4.435.122.122.308.308.432.43-.803-.49-1.85-1.108-2.588-1.17 1.54 1.17 4.126 4.866 3.82 9.794-.494-1.293-1.173-2.156-1.664-2.648.554 5.174.06 6.28-.247 7.637-.06-.615-.308-1.107-.432-1.416 0 0-.06 1.6-1.048 3.88-.8 1.726-1.54 2.278-1.908 2.218-.308-.062-.123-.37-.185-.678 0 0-.555.246-1.046.8-.494.554-.925 1.108-1.172.985.185-.12.31-.432.432-.615-.185.123-.68.555-1.786.678-.43.06-2.4.432-4.988-.924.37-.06.924-.185 1.354.062-.43-.492-1.478-.37-2.216-.615-.678-.184-1.48-1.17-1.97-1.602 1.97.494 4.125.125 5.295-.738 1.232-.863 1.97-1.48 2.65-1.355.676.123 1.107-.553.553-1.11-.493-.614-1.726-1.413-3.45-.983-1.17.308-2.648 1.66-4.864.308-1.786-1.17-1.786-2.096-1.786-2.71 0-.43.245-.987.677-1.23.247.06.37.183.37.183s-.123-.183-.186-.245h.06c.186.062.68.246.863.37.307.183.432.308.432.308s.06-.062 0-.186c-.062-.06-.125-.246-.432-.43.185.06.307.12.492.244.062-.306.185-.552.124-1.106-.063-.37-.063-.432-.125-.555-.06-.124 0-.185.124-.063 0-.06-.063-.184-.125-.246 0 0 0-.06.062-.122.37-.492 2.71-1.785 2.895-1.91.247-.184.432-.307.616-.613.246-.125.43-.803.37-1.295-.062-.307-.248-.37-.555-.432-.123 0-1.603-.123-2.525-.06-.738.06-1.294-.433-1.602-.864-.062-.06-.124-.184-.185-.246-.06-.123-.123-.246-.123-.31.31-1.23.987-2.276 2.033-3.14.062-.06-.247.063-.185 0 .062-.06.493-.307.554-.307.123-.06-.493-.245-.986-.122-.492.123-.614.185-.86.307.12-.123.43-.307.368-.246-.554.123-1.17.493-1.726.862v-.186c-.245.123-.86.615-1.046.986v-.186c-.185.186-.37.37-.493.555-1.602-.43-2.956-.308-4.126.062-.37-.307-.985-.86-1.416-1.6-.062-.062-.062.12-.062.06-.247-.43-.43-1.17-.493-1.786v-.185s-.186.124-.433.494c-.123.185-.185.37-.307.678-.062.185-.062.246-.124.37v-.248c-.062.123-.184.308-.246.493s-.123.246-.123.43v-.185c-.124.37-.247.74-.37 1.232-.062.31-.124.738-.185 1.17-.062.492-.062 1.047 0 1.725v.308c-.432.615-.678 1.17-.8 1.416-.555 1.047-1.048 2.71-1.48 5.174 0 0 .308-.924.862-2.033v.062c-.43 1.355-.74 3.45-.554 6.592 0-.126.124-.927.31-1.972.122 2.092.614 4.742 2.154 7.574 2.525 4.682 7.514 7.945 12.44 8.93-.86-.246-1.416-.8-1.416-.8s3.02.985 5.174.923c-.678-.123-.8-.492-.8-.492s6.22.37 9.484-2.277c.74-.555 1.23-1.232 1.354-1.787.986-.495 1.97-1.233 3.02-2.28 1.785-1.785 1.97-3.14 2.154-4.436v.125c.132-.685.07-1.114-.115-1.484z"/><g><path d="M114.925 90.23c0 2.34-1.91 4.245-4.25 4.245-2.342 0-4.25-1.906-4.25-4.246 0-2.343 1.908-4.253 4.25-4.253 2.34 0 4.25 1.91 4.25 4.252zm11.023-8.44c0 .923-.8 1.724-1.724 1.724h-27.1c-.924 0-1.724-.8-1.724-1.725V44.524c0-.924.8-1.723 1.724-1.723h27.1c.925 0 1.724.8 1.724 1.723V81.79zm-10.16-44.9c0 .49-.372.862-.863.862h-8.5c-.493 0-.862-.37-.862-.863s.37-.862.86-.862h8.502c.49 0 .862.368.862.86zM131 36.026c0-3.695-3.08-6.775-6.775-6.775h-27.1c-3.695 0-6.774 3.08-6.774 6.775v54.2c0 3.694 3.08 6.774 6.775 6.774h27.1C127.92 97 131 93.92 131 90.23v-54.2z"/><path d="M118.68 65.467c.495-.984 1.233-3.264.617-5.11v.06-.06l-.31.923c0-.062 0-.125-.06-.248.06-.676 0-1.105-.122-1.908-.31-1.355-.987-2.338-1.48-2.648l.063.062-.062-.062s0 .125.062.31c-.493-.804-1.232-1.17-1.232-1.17s0 .122.062.43c-1.48-1.354-3.51-2.216-5.668-2.216-2.218 0-4.188.86-5.728 2.277.062.123.186.248.246.37 0 0 .556-.122 1.294-.063 1.23-.86 2.65-1.354 4.188-1.354 1.972 0 3.758.8 5.174 2.217.062.062.123.125.186.248-.432-.248-.924-.555-1.292-.555.738.555 2.03 2.4 1.907 4.865-.246-.617-.554-1.11-.8-1.293.246 2.586.06 3.078-.124 3.818-.06-.31-.122-.555-.185-.678 0 0 0 .8-.552 1.908-.37.863-.803 1.11-.926 1.11-.184 0-.06-.187-.06-.31 0 0-.247.123-.556.432-.246.246-.49.555-.614.492.06-.06.124-.186.246-.307-.122.06-.37.246-.925.37-.246.06-1.17.183-2.464-.433.186 0 .494-.06.678.062-.183-.248-.738-.186-1.106-.307-.31-.126-.74-.558-.986-.806.986.248 2.033.064 2.648-.367.616-.43.985-.738 1.295-.678.31.06.555-.247.31-.556-.25-.31-.864-.738-1.728-.492-.614.184-1.293.8-2.4.123-.925-.555-.925-1.047-.925-1.355 0-.186.124-.492.37-.617.123.062.184.062.184.062l-.12-.123c.12.06.306.123.43.186.186.062.186.186.186.186s.062 0 0-.123c0-.06-.063-.124-.247-.247.06.06.183.06.246.123 0-.123.062-.307.062-.555 0-.183 0-.245-.062-.308-.063-.06 0-.06.062 0 0-.06-.062-.06-.062-.123v-.062c.185-.248 1.354-.86 1.416-.922.123-.064.185-.186.307-.31.123-.06.247-.43.185-.677 0-.124-.122-.187-.308-.187-.062 0-.8-.06-1.232-.06-.368 0-.615-.187-.8-.433 0-.062-.062-.062-.062-.123-.06-.062-.06-.123-.06-.186.184-.616.49-1.106.984-1.538h-.122c.06-.062.245-.125.308-.184.06 0-.248-.125-.494-.064-.246.064-.31.064-.433.123.062-.06.246-.123.187-.123-.247.064-.556.248-.863.432v-.056c-.122.06-.43.31-.49.492v-.123c-.063.06-.187.183-.247.308-.8-.186-1.48-.186-2.033.062-.185-.188-.493-.432-.676-.8 0-.063 0 .06-.063.06-.122-.248-.245-.615-.245-.86v-.063s-.122.062-.246.244c-.063.065-.124.19-.124.374 0 .06-.062.12-.062.184v-.125c0 .062-.123.125-.123.248 0 .062-.06.126-.06.247v-.12c-.063.183-.125.366-.187.614-.062.185-.062.368-.122.554v.986c-.186.307-.368.555-.368.678-.248.555-.557 1.354-.74 2.586 0 0 .124-.492.432-.986-.186.678-.37 1.725-.248 3.266 0-.062.062-.432.186-.986.062 1.047.31 2.342 1.11 3.758 1.23 2.34 3.694 3.94 6.158 4.434-.432-.123-.74-.37-.74-.37s1.48.493 2.587.433c-.37-.062-.432-.248-.432-.248s3.08.186 4.683-1.107c.368-.31.615-.615.676-.924.493-.246.987-.615 1.542-1.17.86-.86.983-1.54 1.047-2.217v.06c.183-.31.183-.495.058-.68z"/></g></g></svg>