<svg width="195" height="164" xmlns="http://www.w3.org/2000/svg" xmlns:xlink="http://www.w3.org/1999/xlink"><defs><path d="M8.964.08A8.906 8.906 0 00.082 8.961v8.055a8.905 8.905 0 008.882 8.881H60.89a8.906 8.906 0 008.882-8.881V8.962A8.906 8.906 0 0060.89.079H8.964z" id="prefix__a"/><path d="M50.79 8.667a.492.492 0 00-.116.396l.37 2.998-2.467-1.838a.518.518 0 00-.408-.087.496.496 0 00-.333.235l-1.073 1.826a.521.521 0 000 .42.435.435 0 00.273.296l2.812 1.233-2.812 1.172a.497.497 0 00-.273.295.467.467 0 000 .408l1.05 1.863c.068.127.19.217.331.247a.473.473 0 00.395-.098l2.468-1.838-.37 3.034a.509.509 0 00.492.568h2.16a.498.498 0 00.493-.568l-.37-3.01 2.256 1.814a.537.537 0 00.41.098.486.486 0 00.332-.235l1.098-1.862a.497.497 0 00.049-.412.49.49 0 00-.283-.304l-2.69-1.073 2.8-1.233a.477.477 0 00.284-.297.463.463 0 000-.406l-1.048-1.863a.536.536 0 00-.335-.247.54.54 0 00-.404.098l-2.469 1.813.396-3.047a.495.495 0 00-.116-.396.498.498 0 00-.372-.171H51.16a.492.492 0 00-.37.17zm-13.612-.121h-2.145a.5.5 0 00-.374.173.501.501 0 00-.122.393l.372 2.998-2.432-1.887a.5.5 0 00-.394-.087.495.495 0 00-.345.235l-1.075 1.826a.514.514 0 000 .42.477.477 0 00.272.296l2.813 1.233-2.8 1.172a.488.488 0 00-.285.295.474.474 0 000 .408l1.048 1.863a.498.498 0 00.742.149l2.467-1.838-.37 3.034a.509.509 0 00.493.568h2.208a.51.51 0 00.382-.173.563.563 0 00.124-.395l-.382-3.01 2.307 1.814a.49.49 0 00.729-.137l1.11-1.862a.474.474 0 000-.408.44.44 0 00-.284-.308l-2.702-1.073 2.8-1.233a.486.486 0 00.284-.297.463.463 0 000-.406l-1.049-1.863a.488.488 0 00-.334-.247.508.508 0 00-.394.098l-2.467 1.813.308-2.998a.57.57 0 00-.122-.394.51.51 0 00-.38-.172h-.003zm-18.197 0a.51.51 0 00-.493.567l.383 2.997-2.48-1.887a.498.498 0 00-.395-.087.474.474 0 00-.334.235l-1.073 1.826a.506.506 0 000 .42.5.5 0 00.271.296l2.813 1.233-2.8 1.172a.485.485 0 00-.284.295.52.52 0 000 .408l1.049 1.863a.56.56 0 00.332.247.497.497 0 00.407-.098l2.468-1.838-.382 3.034a.509.509 0 00.124.395c.093.106.229.169.369.173h2.208a.513.513 0 00.37-.173.5.5 0 00.124-.395l-.382-3.01 2.367 1.814a.514.514 0 00.396.098.443.443 0 00.333-.235l1.111-1.862a.529.529 0 000-.408.505.505 0 00-.285-.308l-2.813-1.073 2.813-1.233c.13-.054.23-.161.272-.297a.47.47 0 000-.406l-1.036-1.863a.546.546 0 00-.334-.247.51.51 0 00-.405.098l-2.47 1.813.408-2.998a.499.499 0 00-.123-.394.497.497 0 00-.37-.172h-2.16z" id="prefix__c"/><path d="M8.964.08A8.906 8.906 0 00.082 8.961v8.055a8.905 8.905 0 008.882 8.881H60.89a8.906 8.906 0 008.882-8.881V8.962A8.906 8.906 0 0060.89.079H8.964z" id="prefix__e"/><path d="M36.723.387a.492.492 0 00-.115.396l.37 2.999-2.467-1.838a.518.518 0 00-.408-.087.496.496 0 00-.333.235l-1.073 1.826a.521.521 0 000 .419.435.435 0 00.273.297l2.812 1.233-2.812 1.172a.497.497 0 00-.273.295.467.467 0 000 .408l1.05 1.862c.068.127.19.218.331.247a.473.473 0 00.395-.098l2.468-1.838-.37 3.035a.509.509 0 00.492.568h2.16a.498.498 0 00.493-.568l-.37-3.01 2.256 1.813a.537.537 0 00.41.098.486.486 0 00.332-.235l1.098-1.862a.497.497 0 00.049-.412.49.49 0 00-.283-.303l-2.69-1.074 2.8-1.233a.477.477 0 00.284-.297.463.463 0 000-.406l-1.048-1.863a.536.536 0 00-.335-.247.54.54 0 00-.404.099L39.346 3.83l.396-3.048a.495.495 0 00-.116-.396.498.498 0 00-.372-.17H37.094a.492.492 0 00-.37.17zM23.112.267h-2.145a.5.5 0 00-.374.173.501.501 0 00-.122.393l.372 2.998-2.432-1.887a.5.5 0 00-.394-.087.495.495 0 00-.345.235l-1.075 1.826a.514.514 0 000 .419.477.477 0 00.272.297l2.813 1.233-2.8 1.172a.488.488 0 00-.285.295.474.474 0 000 .408l1.048 1.862a.498.498 0 00.742.149l2.467-1.838-.37 3.035a.509.509 0 00.493.568h2.208a.51.51 0 00.382-.173.563.563 0 00.124-.395l-.382-3.01 2.307 1.813a.49.49 0 00.729-.137l1.11-1.862a.474.474 0 000-.408.44.44 0 00-.284-.307l-2.702-1.074 2.8-1.233a.486.486 0 00.284-.297.463.463 0 000-.406l-1.049-1.863a.488.488 0 00-.334-.247.508.508 0 00-.394.099L23.309 3.83l.308-2.998a.57.57 0 00-.122-.394.51.51 0 00-.38-.173h-.003zm-18.197 0a.51.51 0 00-.493.567V.832l.383 2.998-2.48-1.887a.498.498 0 00-.395-.087.474.474 0 00-.334.235L.523 3.918a.506.506 0 000 .419.5.5 0 00.271.297l2.813 1.233-2.8 1.172a.485.485 0 00-.284.295.52.52 0 000 .408l1.049 1.862a.56.56 0 00.332.247.497.497 0 00.407-.098L4.78 7.915l-.382 3.035a.509.509 0 00.124.395c.093.106.229.169.369.173h2.208a.513.513 0 00.37-.173.5.5 0 00.124-.395L7.21 7.94l2.367 1.813a.514.514 0 00.396.098.443.443 0 00.333-.235l1.111-1.862a.529.529 0 000-.408.505.505 0 00-.285-.307L8.32 5.965l2.813-1.233c.13-.053.23-.16.272-.297a.47.47 0 000-.406l-1.036-1.863a.546.546 0 00-.334-.247.51.51 0 00-.405.099L7.16 3.83 7.568.833a.499.499 0 00-.123-.394.497.497 0 00-.37-.173h-2.16z" id="prefix__g"/><path d="M8.964.08A8.906 8.906 0 00.082 8.961v8.055a8.905 8.905 0 008.882 8.881H60.89a8.906 8.906 0 008.882-8.881V8.962A8.906 8.906 0 0060.89.079H8.964z" id="prefix__i"/><path d="M36.723.387a.492.492 0 00-.115.396l.37 2.999-2.467-1.838a.518.518 0 00-.408-.087.496.496 0 00-.333.235l-1.073 1.826a.521.521 0 000 .419.435.435 0 00.273.297l2.812 1.233-2.812 1.172a.497.497 0 00-.273.295.467.467 0 000 .408l1.05 1.862c.068.127.19.218.331.247a.473.473 0 00.395-.098l2.468-1.838-.37 3.035a.509.509 0 00.492.568h2.16a.498.498 0 00.493-.568l-.37-3.01 2.256 1.813a.537.537 0 00.41.098.486.486 0 00.332-.235l1.098-1.862a.497.497 0 00.049-.412.49.49 0 00-.283-.303l-2.69-1.074 2.8-1.233a.477.477 0 00.284-.297.463.463 0 000-.406l-1.048-1.863a.536.536 0 00-.335-.247.54.54 0 00-.404.099L39.346 3.83l.396-3.048a.495.495 0 00-.116-.396.498.498 0 00-.372-.17H37.094a.492.492 0 00-.37.17zM23.112.267h-2.145a.5.5 0 00-.374.173.501.501 0 00-.122.393l.372 2.998-2.432-1.887a.5.5 0 00-.394-.087.495.495 0 00-.345.235l-1.075 1.826a.514.514 0 000 .419.477.477 0 00.272.297l2.813 1.233-2.8 1.172a.488.488 0 00-.285.295.474.474 0 000 .408l1.048 1.862a.498.498 0 00.742.149l2.467-1.838-.37 3.035a.509.509 0 00.493.568h2.208a.51.51 0 00.382-.173.563.563 0 00.124-.395l-.382-3.01 2.307 1.813a.49.49 0 00.729-.137l1.11-1.862a.474.474 0 000-.408.44.44 0 00-.284-.307l-2.702-1.074 2.8-1.233a.486.486 0 00.284-.297.463.463 0 000-.406l-1.049-1.863a.488.488 0 00-.334-.247.508.508 0 00-.394.099L23.309 3.83l.308-2.998a.57.57 0 00-.122-.394.51.51 0 00-.38-.173h-.003zm-18.197 0a.51.51 0 00-.493.567V.832l.383 2.998-2.48-1.887a.498.498 0 00-.395-.087.474.474 0 00-.334.235L.523 3.918a.506.506 0 000 .419.5.5 0 00.271.297l2.813 1.233-2.8 1.172a.485.485 0 00-.284.295.52.52 0 000 .408l1.049 1.862a.56.56 0 00.332.247.497.497 0 00.407-.098L4.78 7.915l-.382 3.035a.509.509 0 00.124.395c.093.106.229.169.369.173h2.208a.513.513 0 00.37-.173.5.5 0 00.124-.395L7.21 7.94l2.367 1.813a.514.514 0 00.396.098.443.443 0 00.333-.235l1.111-1.862a.529.529 0 000-.408.505.505 0 00-.285-.307L8.32 5.965l2.813-1.233c.13-.053.23-.16.272-.297a.47.47 0 000-.406l-1.036-1.863a.546.546 0 00-.334-.247.51.51 0 00-.405.099L7.16 3.83 7.568.833a.499.499 0 00-.123-.394.497.497 0 00-.37-.173h-2.16z" id="prefix__k"/></defs><g transform="translate(0 .267)" fill="none" fill-rule="evenodd"><circle fill="#F2F2F2" cx="96.924" cy="81.5" r="81.5"/><g transform="translate(0 54.519)"><g transform="translate(1.158 1.164)"><mask id="prefix__b" fill="#fff"><use xlink:href="#prefix__a"/></mask><path fill="#008EF0" mask="url(#prefix__b)" d="M-3.972 29.952h77.798V-3.977H-3.972z"/></g><path d="M62.048 1.242V.05H10.12A10.098 10.098 0 00.05 10.122v8.062c.015 5.556 4.513 10.054 10.07 10.07h51.952-.021c5.557-.016 10.055-4.514 10.07-10.07v-8.062A10.098 10.098 0 0062.052.05h-.003v1.192l-.004 1.193a7.713 7.713 0 017.694 7.694v-.004 8.055-.003a7.714 7.714 0 01-7.694 7.693h-51.92.003a7.714 7.714 0 01-7.693-7.693v.003-8.055.003a7.714 7.714 0 017.693-7.693h51.921-.004l.004-1.193z" fill="#00B2F7"/><mask id="prefix__d" fill="#fff"><use xlink:href="#prefix__c"/></mask><path fill="#7BEBFF" mask="url(#prefix__d)" d="M10.49 23.85h51.28V4.441H10.49z"/></g><g fill-rule="nonzero"><path d="M139.698 56.578c0-4.3-.126-9.177-.126-14.672a4.708 4.708 0 00-3.907-4.624l-37.412-6.479a4.99 4.99 0 00-.801 0 5.144 5.144 0 00-.801.07l-37.398 6.409a4.68 4.68 0 00-3.907 4.694c0 5.495 0 10.372-.127 14.672-.098 7.758-.168 13.366.141 16.865 2.038 22.374 6.802 32.592 14.799 43.596a43.863 43.863 0 0026.38 16.991c.305.056.616.085.927.085.306 0 .612-.028.913-.085a44.467 44.467 0 0026.38-16.991c8.025-11.004 12.761-21.222 14.785-43.666.323-3.5.253-9.107.154-16.865z" fill="#7638E9"/><path d="M96.665 30.873l-37.412 6.48a4.708 4.708 0 00-3.893 4.623c0 5.51-.084 10.386-.14 14.686-.085 7.8-.17 13.422.154 16.851 2.024 22.445 6.788 32.676 14.785 43.68a43.849 43.849 0 0026.393 16.978c.302.056.607.084.914.084V30.803a5.144 5.144 0 00-.801.07z" fill="#7638E9"/><path d="M96.777 37.999L65.41 43.38c-1.89.348-3.258 2-3.247 3.921 0 4.61 0 8.7-.098 12.312-.085 6.507-.14 11.243.126 14.138 1.659 18.819 5.594 27.406 12.368 36.64a36.794 36.794 0 0022.135 14.236c.253.02.506.02.759 0V37.942a3.656 3.656 0 00-.675.057z" fill="#7638E9"/><path d="M132.882 59.614c0-3.612-.098-7.702-.112-12.312a3.935 3.935 0 00-3.26-3.92l-31.384-5.383a3.64 3.64 0 00-.674 0v86.7c.257.02.516.02.773 0a37.271 37.271 0 0022.12-14.322c6.747-9.22 10.682-17.806 12.41-36.625.268-2.923.211-7.631.127-14.138z" fill="#DABDFF"/><path d="M139.698 56.578c0-4.3-.126-9.177-.126-14.672a4.708 4.708 0 00-3.907-4.624l-37.412-6.479a4.99 4.99 0 00-.801 0 5.144 5.144 0 00-.801.07l-37.398 6.409a4.68 4.68 0 00-3.907 4.694c0 5.495 0 10.372-.127 14.672-.098 7.758-.168 13.366.141 16.865 2.038 22.374 6.802 32.592 14.799 43.596a43.863 43.863 0 0026.38 16.991c.305.056.616.085.927.085.306 0 .612-.028.913-.085a44.467 44.467 0 0026.38-16.991c8.025-11.004 12.761-21.222 14.785-43.666.323-3.5.253-9.107.154-16.865z" fill="#8F59FF"/><path d="M96.665 30.873l-37.412 6.48a4.708 4.708 0 00-3.893 4.623c0 5.51-.084 10.386-.14 14.686-.085 7.8-.17 13.422.154 16.851 2.024 22.445 6.788 32.676 14.785 43.68a43.849 43.849 0 0026.393 16.978c.302.056.607.084.914.084V30.803a5.144 5.144 0 00-.801.07z" fill="#592ACA"/><path d="M96.777 37.999L65.41 43.38c-1.89.348-3.258 2-3.247 3.921 0 4.61 0 8.7-.098 12.312-.085 6.507-.14 11.243.126 14.138 1.659 18.819 5.594 27.406 12.368 36.64a36.794 36.794 0 0022.135 14.236c.253.02.506.02.759 0V37.942a3.656 3.656 0 00-.675.057z" fill="#7542E4"/><path d="M132.882 59.614c0-3.612-.098-7.702-.112-12.312a3.935 3.935 0 00-3.26-3.92l-31.384-5.383a3.64 3.64 0 00-.674 0v86.7c.257.02.516.02.773 0a37.271 37.271 0 0022.12-14.322c6.747-9.22 10.682-17.806 12.41-36.625.268-2.923.211-7.631.127-14.138z" fill="#AA71FF"/></g><g transform="translate(123.615 76.368)"><mask id="prefix__f" fill="#fff"><use xlink:href="#prefix__e"/></mask><path fill="#FF45A2" mask="url(#prefix__f)" d="M-3.972 29.952h77.798V-3.977H-3.972z"/></g><path d="M184.505 76.446v-1.192H132.576a10.098 10.098 0 00-10.07 10.071V93.388c.015 5.556 4.514 10.054 10.07 10.07h51.953-.021c5.557-.016 10.055-4.514 10.07-10.07V85.325a10.098 10.098 0 00-10.07-10.071h-.003v1.192l-.004 1.193a7.713 7.713 0 017.694 7.693v-.004 8.056-.003a7.714 7.714 0 01-7.694 7.693h-51.92.002a7.714 7.714 0 01-7.692-7.693v.003-8.056.003a7.714 7.714 0 017.692-7.692h51.922-.004l.004-1.193z" fill="#E60087"/><g transform="translate(136.523 83.483)"><mask id="prefix__h" fill="#fff"><use xlink:href="#prefix__g"/></mask><path fill="#FFB2DB" mask="url(#prefix__h)" d="M-3.576 15.571h51.28v-19.41h-51.28z"/></g><g><g transform="translate(13.57 111.119)"><mask id="prefix__j" fill="#fff"><use xlink:href="#prefix__i"/></mask><path fill="#FE7139" mask="url(#prefix__j)" d="M-3.972 29.952h77.798V-3.977H-3.972z"/></g><path d="M74.46 111.197v-1.192H22.53a10.098 10.098 0 00-10.07 10.072v8.062c.015 5.556 4.514 10.054 10.07 10.071h51.952-.02c5.556-.017 10.054-4.515 10.07-10.07v-8.063a10.098 10.098 0 00-10.07-10.072h-.004v1.192l-.004 1.193a7.713 7.713 0 017.694 7.694v-.004 8.055-.003a7.714 7.714 0 01-7.694 7.693h-51.92.003a7.714 7.714 0 01-7.693-7.693v.003-8.055.003a7.714 7.714 0 017.693-7.693h51.921-.004l.004-1.193z" fill="#E0570C"/><g transform="translate(26.477 118.235)"><mask id="prefix__l" fill="#fff"><use xlink:href="#prefix__k"/></mask><path fill="#FED4B1" mask="url(#prefix__l)" d="M-3.576 15.571h51.28v-19.41h-51.28z"/></g></g></g></svg>
