<svg xmlns="http://www.w3.org/2000/svg" viewBox="0 0 152 134" width="152" height="134">
  <style>
    .st5{fill:#bebec8}.st8{fill:#f3d55b}.st9{fill:#ffac3a}.st12{opacity:.99;fill:none;stroke:#d0d0d0;stroke-width:2.1192;stroke-linecap:round;stroke-linejoin:round;enable-background:new}
  </style>
  <path fill="#80808e" d="M142.3 1.3H3.4c-.9 0-1.7.7-1.7 1.6v105.6c0 .9.7 1.7 1.7 1.7h138.9c.9 0 1.7-.7 1.7-1.7V2.9c0-.9-.8-1.6-1.7-1.6z"/>
  <path fill="#eeeef1" d="M1.7 25.2v83.3c0 .9.7 1.7 1.7 1.7h138.9c.9 0 1.7-.7 1.7-1.7V25.2H1.7z"/>
  <path fill="#9f9fad" d="M37.8 9.6V3.5H15.1v6.1H1.7v15.6h142.2V9.6z"/>
  <path fill="#d8d8d8" d="M26.5 13.9h109.4v6.7H26.5z"/>
  <path fill="#028fed" d="M70.5 64.7H150c.9 0 1.7.7 1.7 1.7v50c0 .9-.7 1.7-1.7 1.7H70.5c-.9 0-1.7-.7-1.7-1.7v-50c.1-1 .8-1.7 1.7-1.7z"/>
  <path d="M82.3 76.1h56.5v5.6H82.3z" class="st5"/>
  <path fill="#ecf0f1" d="M84.4 81.7h52.4v40.7H84.4z"/>
  <path fill="#dfdfe5" d="M84.4 81.7h52.4v3.5H84.4z"/>
  <path d="M90 105.6h5.6v10.3H90z" class="st8"/>
  <path d="M99.1 102.7h5.6v13.2h-5.6z" class="st9"/>
  <path d="M107.8 95.8h5.6v20h-5.6z" class="st9"/>
  <path d="M115.9 101h5.6v15h-5.6z" class="st8"/>
  <path d="M125.1 88.3h5.6v27.6h-5.6z" class="st9"/>
  <path fill="#7542e5" d="M98.6 89.6c0-.2-.1-.3-.2-.5V89h-.1c-.1-.1-.3-.2-.5-.2h-.1-4.8c-.5 0-.9.3-.9.8 0 .4.4.8.9.8h2.8l-5.5 5.5c-.4.4-.4 1 0 1.4.2.2.4.3.7.3s.5-.1.7-.3l5.5-5.5v2.8c0 .5.3.9.8.9.4 0 .8-.4.8-.9v-4.7c-.1-.2-.1-.2-.1-.3z"/>
  <path d="M138.4 123.4H82.3c-.5 0-1-.3-1-.8s.4-.8 1-.8h56.1c.5 0 1 .3 1 .8s-.5.8-1 .8z" class="st5"/>
  <path fill="#ceced7" d="M110.6 126.5c-.4 0-.8-.5-.8-1v-3.1c0-.6.3-1 .8-1 .4 0 .8.5.8 1v3.1c-.1.5-.4 1-.8 1z"/>
  <path d="M110.3 133.1c-2.2 0-4.1-1.8-4.1-4.1s1.8-4.1 4.1-4.1c2.2 0 4.1 1.8 4.1 4.1s-1.8 4.1-4.1 4.1zm0-6.1c-1.1 0-2 .9-2 2s.9 2 2 2 2-.9 2-2-.9-2-2-2z" class="st5"/>
  <path d="M17.3 50.6h109.6" class="st12"/>
  <path fill="none" stroke="#d0d0d0" stroke-linecap="round" stroke-linejoin="round" stroke-width="2.1192" d="M17.3 43.3h109.6"/>
  <path d="M17.3 36h109.6" class="st12"/>
  <path d="M17.3 57.9h57" class="st12"/>
</svg>
