<svg width="50" height="50" xmlns="http://www.w3.org/2000/svg"><path d="M39.844 28.125a2.39 2.39 0 0 1-2.344-2.344V15.63c0-1.726-1.4-3.125-3.125-3.125H24.22a2.39 2.39 0 0 1-2.345-2.343C21.875 7.814 25 7.724 25 4.69c0-2.7-2.813-4.686-6.25-4.686-3.438 0-6.25 1.984-6.25 4.688 0 3.034 3.125 3.125 3.125 5.468a2.39 2.39 0 0 1-2.344 2.344H3.13A3.121 3.121 0 0 0 0 15.624v7.03A2.392 2.392 0 0 0 2.344 25c2.344 0 2.434-3.125 5.47-3.125 2.702 0 4.686 2.813 4.686 6.25 0 3.438-1.984 6.25-4.688 6.25-3.034 0-3.125-3.125-5.468-3.125A2.39 2.39 0 0 0 0 33.594v13.28C0 48.602 1.4 50 3.125 50H13.28a2.391 2.391 0 0 0 2.345-2.344c0-2.343-3.125-2.434-3.125-5.468 0-2.704 2.813-4.688 6.25-4.688 3.438 0 6.25 1.984 6.25 4.688 0 3.034-3.125 3.124-3.125 5.468A2.39 2.39 0 0 0 24.219 50h10.15c1.726 0 3.125-1.4 3.125-3.125V36.72a2.39 2.39 0 0 1 2.343-2.345c2.344 0 2.435 3.125 5.47 3.125 2.704 0 4.69-2.813 4.69-6.25 0-3.438-1.986-6.25-4.69-6.25-3.034 0-3.124 3.125-5.468 3.125z"/></svg>