<svg xmlns="http://www.w3.org/2000/svg" id="Layer_1" x="0" y="0" version="1.1" viewBox="0 0 200 200" xml:space="preserve">
  <style>
    .st0{fill:#fff}
  </style>
  <circle cx="100" cy="100" r="100" class="st0"/>
  <path d="M146.1 93.2c-2.8-6.6-9.2-10.9-16.4-10.9-5.9 0-11.5 2.9-14.8 7.8-1.1 1.6-1.8 3.3-2.3 5.2h-25c-.2-.7-.4-1.4-.7-2.1-.3-.7-.6-1.3-1-1.9l8.9-8.9c2.7 1.5 5.8 2.4 8.9 2.3 2.4 0 4.7-.5 6.9-1.4 6.6-2.8 10.9-9.2 10.9-16.4 0-5.9-2.9-11.5-7.8-14.8-2.9-2-6.4-3-9.9-3-2.4 0-4.7.5-6.9 1.4C90.3 53.2 86 59.7 86 66.8c-.1 2.4.4 4.8 1.3 7 .2.6.5 1.1.8 1.7l-9.1 9c-2.6-1.4-5.6-2.2-8.6-2.2-5.9 0-11.5 2.9-14.8 7.8-2 2.9-3 6.4-3 9.9 0 2.4.5 4.7 1.4 6.9 1.3 3.2 3.6 5.9 6.4 7.8 2.9 2 6.4 3 9.9 3 5.9 0 11.5-2.9 14.8-7.8 1.1-1.6 1.9-3.3 2.5-5.1h25c.2.7.4 1.4.7 2.1.2.6.5 1.1.8 1.7l-9.1 9.1c-2.6-1.4-5.6-2.2-8.6-2.2-5.9 0-11.5 2.9-14.8 7.8-2 2.9-3 6.4-3 9.9 0 2.4.5 4.7 1.4 6.9 1.4 3.2 3.6 5.9 6.4 7.8 8.2 5.5 19.2 3.3 24.7-4.9 2-2.9 3-6.4 3-9.9 0-2.4-.5-4.7-1.4-6.9-.3-.7-.6-1.3-1-1.9l8.9-8.9c2.7 1.5 5.8 2.4 8.9 2.3 9.8 0 17.8-8 17.8-17.8.1-2.3-.3-4.6-1.2-6.7zM96.2 63.7c.6-1.5 1.6-2.7 3-3.6 2.3-1.6 5.3-1.9 7.9-.8 3 1.3 5 4.3 4.9 7.6 0 4.5-3.7 8.2-8.2 8.2-2.7 0-5.3-1.4-6.8-3.6-1.6-2.3-1.9-5.2-.8-7.8zM78 103.4c-1.8 4.2-6.6 6.1-10.7 4.4-1.5-.6-2.7-1.7-3.6-3-1.5-2.3-1.8-5.2-.7-7.8.6-1.5 1.6-2.7 3-3.6 1.4-.9 3-1.4 4.6-1.4 1.1 0 2.2.2 3.2.6 3 1.3 5 4.3 4.9 7.6-.1 1.1-.2 2.2-.7 3.2zm26 33.1c-1.8 4.2-6.6 6.1-10.7 4.4-1.4-.6-2.7-1.6-3.6-2.9-2.5-3.8-1.5-8.9 2.3-11.4 1.3-.9 2.9-1.4 4.5-1.4 1.1 0 2.2.2 3.2.6 3 1.3 5 4.3 4.9 7.6.1 1.1-.2 2.1-.6 3.1zm33.2-33.1c-1.8 4.2-6.6 6.1-10.7 4.4-1.5-.6-2.7-1.7-3.6-3-1.5-2.3-1.8-5.2-.7-7.8.6-1.5 1.6-2.7 3-3.6 1.4-.9 3-1.4 4.6-1.4 1.1 0 2.2.2 3.2.6 3 1.3 5 4.3 4.9 7.6-.1 1.1-.2 2.2-.7 3.2z"/>
</svg>
