<svg width="249" height="66" viewBox="0 0 249 66" fill="none" xmlns="http://www.w3.org/2000/svg">
<path d="M187.965 23.9027L195.933 3.76172L35.4543 0L31.2695 25.9457L21.873 30.8754L27.6378 61.2972L189.929 65.1706L201.996 56.5724L200.223 25.9457L187.965 23.9027Z" fill="#1A1A1A"/>
<path d="M51.0727 31.3036C54.5896 31.3036 57.2723 29.3873 58.67 26.6595L55.0404 24.7207C54.3641 26.2763 53.0115 27.4035 51.0502 27.4035C48.4351 27.4035 46.6541 25.352 46.6541 22.8496C46.6541 20.3021 48.4802 18.2506 51.0952 18.2506C52.8988 18.2506 54.2063 19.1749 54.9503 20.6403L58.3995 18.4535C56.9341 16.0188 54.2514 14.3956 51.0727 14.3956C46.2258 14.3956 42.6413 18.0477 42.6413 22.8496C42.6413 27.5387 46.0003 31.3036 51.0727 31.3036ZM69.2325 31.0781H73.1777V14.6211H69.2325V20.8657H63.8445V14.6211H59.8993V31.0781H63.8445V24.7433H69.2325V31.0781ZM74.1305 31.0781H78.0983L78.9549 28.6208H85.2447L86.1014 31.0781H90.0916L84.0048 14.6211H80.2174L74.1305 31.0781ZM82.1111 19.6709L84.0499 25.1942H80.1723L82.1111 19.6709ZM91.0302 31.0781H102.144V27.3133H94.9754V14.6211H91.0302V31.0781ZM103.767 31.0781H114.881V27.3133H107.712V14.6211H103.767V31.0781ZM116.503 31.0781H127.865V27.426H120.426V24.6306H127.865V20.9785H120.426V18.2732H127.865V14.6211H116.503V31.0781ZM129.79 31.0781H133.555V20.7305L140.025 31.0781H143.835V14.6211H140.092V24.4953L133.893 14.6211H129.79V31.0781ZM154.102 31.3036C158.859 31.3036 162.083 27.5613 162.083 23.2103V21.3392H153.246V24.9913H157.822C157.258 26.6144 155.928 27.5613 154.035 27.5613C151.307 27.5613 149.391 25.645 149.391 22.8496C149.391 20.1443 151.419 18.1154 153.967 18.1154C155.635 18.1154 156.898 18.8142 157.687 20.0316L160.978 17.7096C159.423 15.7032 157.101 14.3956 153.944 14.3956C148.985 14.3956 145.468 18.0703 145.468 22.8496C145.468 27.4035 148.737 31.3036 154.102 31.3036ZM163.761 31.0781H175.123V27.426H167.683V24.6306H175.123V20.9785H167.683V18.2732H175.123V14.6211H163.761V31.0781Z" fill="white"/>
<path d="M97.4596 51.8145H103.366C108.258 51.8145 111.865 48.2751 111.865 43.5859C111.865 38.9193 108.416 35.3574 103.298 35.3574H97.4596V51.8145ZM103.118 39.0095C106.207 39.0095 107.897 40.9934 107.897 43.5859C107.897 46.1334 106.071 48.1398 103.186 48.1398H101.382V39.0095H103.118ZM113.498 51.8145H124.86V48.1623H117.421V45.3669H124.86V41.7148H117.421V39.0095H124.86V35.3574H113.498V51.8145ZM126.785 51.8145H130.708V45.6149H138.102V41.9853H130.708V39.0546H138.102V35.3574H126.785V51.8145ZM137.494 51.8145H141.462L142.318 49.3572H148.608L149.465 51.8145H153.455L147.368 35.3574H143.581L137.494 51.8145ZM145.474 40.4072L147.413 45.9305H143.536L145.474 40.4072ZM159.986 52.0399C164.044 52.0399 166.637 49.6052 166.637 45.3444V35.3574H162.646V45.3444C162.646 47.1704 161.542 48.2074 159.964 48.2074C158.363 48.2074 157.326 47.1704 157.326 45.3444V35.3574H153.336V45.3444C153.336 49.6052 155.928 52.0399 159.986 52.0399ZM168.605 51.8145H179.719V48.0496H172.55V35.3574H168.605V51.8145ZM181.814 51.8145H185.646V38.987H190.065V35.3574H177.35V38.987H181.814V51.8145Z" fill="white"/>
<path d="M49.307 51.8145H53.1395V38.987H57.5581V35.3574H44.8433V38.987H49.307V51.8145ZM68.6145 51.8145H72.5597V35.3574H68.6145V41.6021H63.2265V35.3574H59.2813V51.8145H63.2265V45.4796H68.6145V51.8145ZM74.5935 51.8145H85.9557V48.1623H78.5162V45.3669H85.9557V41.7148H78.5162V39.0095H85.9557V35.3574H74.5935V51.8145Z" fill="white"/>
</svg>
