<svg id="elBstU1fviJ1" xmlns="http://www.w3.org/2000/svg" xmlns:xlink="http://www.w3.org/1999/xlink" viewBox="-17 -17 230 230" shape-rendering="geometricPrecision" text-rendering="geometricPrecision">
<g id="elBstU1fviJ2_to" transform="translate(98.00007,96.099044)"><g transform="translate(-98.00007,-98.000055)"><g id="elBstU1fviJ3_tr" transform="translate(97.999979,98) rotate(14.346138)"><g transform="translate(-98.000017,-97.833804)"><g transform="matrix(.99505-.099378 0.099378 0.99505-9.072467 10.206868)"><rect width="181.107" height="181.107" rx="20.0966" ry="20.0966" transform="matrix(.997642-.068631 0.068631 0.997642 1.279533 13.708624)" fill="#2ac3a2" stroke="#000" stroke-width="2.4"/><line x1="17.6598" y1="56.5235" x2="170.985" y2="45.9758" transform="translate(.000003 0.000024)" fill="none" stroke="#000" stroke-width="2.4"/><line x1="23.9645" y1="148.158" x2="177.289" y2="137.611" transform="translate(.259053-.035321)" fill="none" stroke="#000" stroke-width="2.4"/><line x1="174.282" y1="93.8886" x2="20.9568" y2="104.436" transform="translate(.000003 0.000024)" fill="none" stroke="#000" stroke-width="2.4"/><g id="elBstU1fviJ9_to" transform="translate(-84.259661,12.676931)"><circle r="21.9131" transform="rotate(-3.93538) translate(126.743,141.99)" fill="#d1ffee" stroke="#000" stroke-width="2.4"/></g><g id="elBstU1fviJ10_to" transform="translate(127.223245,195.169663)"><circle r="21.9131" transform="rotate(176.065003) translate(71.5074,100.055)" fill="#d1ffee" stroke="#000" stroke-width="2.4"/></g><g id="elBstU1fviJ11_to" transform="translate(46.506363,54.640314)"><g transform="translate(-120.438008,-50.353203)"><circle r="21.9131" transform="matrix(.997642-.068631 0.068631 0.997642 120.438 50.3532)" fill="#d1ffee" stroke="#000" stroke-width="2.4"/><g id="elBstU1fviJ13_tr" transform="translate(104.782829,144.81797) rotate(33.095676)"><g id="elBstU1fviJ13" transform="translate(-119.898091,-51.813541)" opacity="0"><g><circle r="1.80102" transform="matrix(.997642-.068631 0.068631 0.997642 115.0115 45.704278)"/><circle r="1.80102" transform="matrix(.997642-.068631 0.068631 0.997642 124.5935 45.046078)"/><path d="M133.644,45.5344c.524,7.6079-5.219,14.1995-12.827,14.7229s-14.2-5.2197-14.723-12.8276" transform="translate(.0125 0.091678)" fill="none" stroke="#000" stroke-width="2.4"/></g></g></g><g id="elBstU1fviJ18_tr" transform="translate(60.739709,104.407171) rotate(33.095676)"><g id="elBstU1fviJ18" transform="translate(-119.898091,-51.813541)" opacity="0"><g><circle r="1.80102" transform="matrix(.997642-.068631 0.068631 0.997642 115.0115 45.704278)"/><circle r="1.80102" transform="matrix(.997642-.068631 0.068631 0.997642 124.5935 45.046078)"/><path d="M133.644,45.5344c.524,7.6079-5.219,14.1995-12.827,14.7229s-14.2-5.2197-14.723-12.8276" transform="translate(.0125 0.091678)" fill="none" stroke="#000" stroke-width="2.4"/></g></g></g><g id="elBstU1fviJ23_tr" transform="translate(119.898091,51.813541) rotate(33.095676)"><g id="elBstU1fviJ23" transform="translate(-119.898091,-51.813541)" opacity="0"><g><circle r="1.80102" transform="matrix(.997642-.068631 0.068631 0.997642 115.0115 45.704278)"/><circle r="1.80102" transform="matrix(.997642-.068631 0.068631 0.997642 124.5935 45.046078)"/><path d="M133.644,45.5344c.524,7.6079-5.219,14.1995-12.827,14.7229s-14.2-5.2197-14.723-12.8276" transform="translate(.0125 0.091678)" fill="none" stroke="#000" stroke-width="2.4"/></g></g></g></g></g></g></g></g></g></g></svg>
