<svg width="104" height="81" fill="none" xmlns="http://www.w3.org/2000/svg"><path d="M36.021 35.105H25.267v3.11h9.766v4.447h-9.766v3.516h10.754v4.447H20.298V30.658H36.02v4.447Zm1.99 15.52v-3.43l7.092-7.469h-6.888V35.6h13.31l-.028 3.43-7.12 7.469h7.207v4.127H38.011Zm19.824 5.231c-1.366 0-3.08-.436-4.214-1.075l1.017-3.255c.785.436 1.599.756 2.064.756.726 0 1.366-.233 1.627-.64l.407-.843-6.161-15.2h5.057l3.517 9.91 3.313-9.91h4.999l-5.9 15.462c-1.192 3.08-3.255 4.795-5.726 4.795Z" fill="#181818"/><path stroke="#181818" stroke-width="2" d="M8.918 19.916h87.168v40.127H8.918z"/><circle cx="7.915" cy="18.915" r="3.915" fill="#2AC3A2" stroke="#181818" stroke-width="2"/><circle cx="7.915" cy="61.042" r="3.915" fill="#2AC3A2" stroke="#181818" stroke-width="2"/><circle cx="97.087" cy="18.915" r="3.915" fill="#2AC3A2" stroke="#181818" stroke-width="2"/><circle cx="97.087" cy="61.042" r="3.915" fill="#2AC3A2" stroke="#181818" stroke-width="2"/><path stroke="#181818" stroke-width="2" d="M74.34 25.936V54.02"/></svg>
