<svg width="109" height="58" viewBox="0 0 109 58" fill="none" xmlns="http://www.w3.org/2000/svg">
<path d="M36.36 22.912H24.52V26.336H35.272V31.232H24.52V35.104H36.36V40H19.048V18.016H36.36V22.912ZM38.5515 40V36.224L46.3595 28H38.7755V23.456H53.4315L53.3995 27.232L45.5595 35.456H53.4955V40H38.5515ZM60.3783 45.76C58.8743 45.76 56.9863 45.28 55.7383 44.576L56.8583 40.992C57.7223 41.472 58.6183 41.824 59.1303 41.824C59.9303 41.824 60.6343 41.568 60.9223 41.12L61.3703 40.192L54.5863 23.456H60.1543L64.0263 34.368L67.6743 23.456H73.1783L66.6823 40.48C65.3703 43.872 63.0983 45.76 60.3783 45.76Z" fill="black"/>
<rect x="6.41406" y="6.41211" width="96.1773" height="44.383" stroke="#181818" stroke-width="2"/>
<circle cx="5.41135" cy="5.41135" r="4.41135" fill="#2AC3A2" stroke="#181818" stroke-width="2"/>
<circle cx="5.41135" cy="51.7944" r="4.41135" fill="#2AC3A2" stroke="#181818" stroke-width="2"/>
<circle cx="103.591" cy="5.41135" r="4.41135" fill="#2AC3A2" stroke="#181818" stroke-width="2"/>
<circle cx="103.591" cy="51.7942" r="4.41135" fill="#2AC3A2" stroke="#181818" stroke-width="2"/>
<line x1="78.4453" y1="13.1406" x2="78.4453" y2="44.0626" stroke="black" stroke-width="2"/>
</svg>
