<svg width="263" height="96" xmlns="http://www.w3.org/2000/svg"><path fill="#181818" d="m242.492 35.412 11.621-29.377L20.051.55l-6.104 37.84L.242 45.581 8.65 89.954l236.707 5.65 17.6-12.542-2.587-44.67-17.878-2.98Z"/><path fill="#fff" d="M42.843 46.948c5.129 0 9.042-2.795 11.08-6.773l-5.293-2.828c-.987 2.269-2.96 3.912-5.82 3.912-3.815 0-6.412-2.992-6.412-6.641 0-3.716 2.663-6.708 6.478-6.708 2.63 0 4.537 1.348 5.622 3.485l5.03-3.19c-2.136-3.55-6.05-5.918-10.685-5.918-7.07 0-12.298 5.327-12.298 12.33 0 6.84 4.9 12.331 12.298 12.331Zm26.486-.329h5.754V22.616h-5.754v9.108h-7.858v-9.108h-5.755v24.003h5.755v-9.24h7.858v9.24Zm7.144 0h5.787l1.25-3.584h9.173l1.25 3.584h5.82l-8.878-24.003h-5.524l-8.878 24.003Zm11.64-16.638 2.828 8.056h-5.656l2.828-8.056Zm13.009 16.638h16.21v-5.491h-10.456V22.616h-5.754v24.003Zm18.576 0h16.211v-5.491h-10.457V22.616h-5.754v24.003Zm18.577 0h16.572v-5.327h-10.851v-4.077h10.851V31.89h-10.851v-3.946h10.851v-5.327h-16.572V46.62Zm19.379 0h5.491V31.527l9.437 15.092h5.557V22.616h-5.459v14.402l-9.042-14.402h-5.984v24.003Zm35.46.329c6.938 0 11.64-5.458 11.64-11.804v-2.73h-12.889v5.327h6.675c-.822 2.368-2.762 3.749-5.524 3.749-3.979 0-6.774-2.795-6.774-6.872 0-3.946 2.959-6.905 6.675-6.905 2.433 0 4.274 1.019 5.425 2.794l4.801-3.386c-2.269-2.927-5.656-4.834-10.259-4.834-7.234 0-12.363 5.36-12.363 12.33 0 6.642 4.768 12.331 12.593 12.331Zm14.087-.329h16.572v-5.327h-10.85v-4.077h10.85V31.89h-10.85v-3.946h10.85v-5.327h-16.572V46.62ZM110.51 76.87h8.615c7.135 0 12.396-5.163 12.396-12.002 0-6.807-5.031-12.002-12.495-12.002h-8.516v24.003Zm8.253-18.677c4.505 0 6.971 2.893 6.971 6.675 0 3.715-2.664 6.641-6.872 6.641h-2.631V58.193h2.532Zm15.14 18.676h16.572v-5.327h-10.851v-4.077h10.851v-5.327h-10.851v-3.945h10.851v-5.327h-16.572v24.003Zm19.379 0h5.721v-9.042h10.785v-5.294h-10.785v-4.275h10.785v-5.392h-16.506v24.003Zm15.619 0h5.787l1.25-3.584h9.173l1.25 3.584h5.82l-8.878-24.003h-5.524l-8.878 24.003Zm11.64-16.638 2.828 8.056h-5.656l2.828-8.056Zm21.166 16.967c5.918 0 9.7-3.551 9.7-9.766V52.866h-5.82v14.566c0 2.664-1.611 4.176-3.913 4.176-2.335 0-3.847-1.512-3.847-4.176V52.866h-5.82v14.566c0 6.215 3.781 9.766 9.7 9.766Zm12.571-.329h16.21v-5.491h-10.456V52.866h-5.754v24.003Zm19.265 0h5.59V58.16h6.445v-5.293h-18.545v5.294h6.51v18.71Zm-193.265.001h5.59V58.16h6.445v-5.294H33.768v5.294h6.51v18.71Zm28.161 0h5.754V52.865h-5.754v9.108H60.58v-9.108h-5.754v24.003h5.754v-9.24h7.859v9.24Zm8.72 0h16.572v-5.328h-10.85v-4.077h10.85v-5.327h-10.85v-3.945h10.85v-5.327H77.159v24.003Z"/></svg>
