<svg xmlns="http://www.w3.org/2000/svg" width="390" height="148" fill="none" viewBox="0 0 390 148">
  <path fill="#181818" d="m358.264 53.9511 12.909-44.53027L28.9882.952515 21.9468 59.3612-.00195312 70.4591 14.6312 138.944l344.0458 8.72 30.631-19.356-4.501-68.9468-26.543-5.4101Z"/>
  <path fill="#fff" d="M93.927 69.6749 83.5418 31.9578h9.1452l5.9417 23.2503 6.5103-23.2503h8.628l6.51 23.3019 5.942-23.3019h9.042l-10.54 37.7171h-8.68l-6.614-23.767-6.51 23.767h-8.99Zm54.298 0V53.8647l-12.348-21.9069h9.765l7.233 13.5368 7.079-13.5368h9.713l-12.4 22.0619v15.6552h-9.042Zm23.196 0V31.9578h14.932c9.093 0 13.744 3.72 13.744 10.7984 0 3.4101-1.395 5.8384-3.824 7.3885 2.894 1.6533 4.547 4.2884 4.547 8.1117 0 7.8535-5.425 11.4185-14.467 11.4185h-14.932Zm14.984-15.2418h-6.2v7.3367h6.355c3.513 0 5.063-1.3433 5.063-3.72 0-2.3767-1.292-3.6167-5.218-3.6167Zm.31-14.6219h-6.51v6.7168h6.561c3.204 0 4.392-1.4467 4.392-3.4618 0-2.0667-1.292-3.255-4.443-3.255Zm17.987 29.8637V31.9578h9.093v37.7171h-9.093Zm13.847 0V31.9578h26.041v8.3701h-17.05v6.2001h17.05v8.3701h-17.05v6.4067h17.05v8.3701h-26.041Zm30.452 0V31.9578h16.223c9.094 0 14.157 5.8384 14.157 12.9685 0 4.805-2.325 8.8867-6.096 11.1084l7.026 13.6402h-9.92l-5.322-11.3151h-7.078v11.3151h-8.99Zm15.552-29.502h-6.562v10.0234h6.562c3.823 0 5.631-2.2733 5.631-5.0634 0-3.1-1.86-4.96-5.631-4.96Zm18.225 29.502v-8.3184l16.585-21.132h-16.069v-8.2667h26.661v8.0601l-16.689 21.2869h16.895v8.3701h-27.383Z"/>
  <path fill="#fff" d="M30.0342 116.308V78.5912H45.121c8.8352 0 14.5702 6.3551 14.5702 14.0535 0 7.5953-5.6834 14.2083-14.6218 14.2083H39.076v9.455h-9.0418ZM44.656 86.7546h-5.58v11.7285h5.58c3.3584 0 5.8901-2.3767 5.8901-5.8384s-2.5317-5.8901-5.8901-5.8901Zm37.3527 30.0704c-10.7468 0-19.2719-8.628-19.2719-19.3752 0-10.6952 8.5251-19.3753 19.2719-19.3753 10.7468 0 19.3233 8.6801 19.3233 19.3753 0 10.7472-8.4731 19.3752-19.3233 19.3752Zm0-8.887c5.9418 0 10.2818-4.753 10.2818-10.4882 0-5.7868-4.4434-10.5402-10.2818-10.5402-5.8384 0-10.1785 4.7534-10.1785 10.5402 0 5.7352 4.2884 10.4882 10.1785 10.4882Zm47.5753 8.887c-8.37 0-13.278-3.255-16.843-7.543l7.75-6.2c2.221 3.358 5.167 5.321 9.403 5.321 3.049 0 4.702-1.446 4.702-3.513 0-2.532-2.48-3.049-7.802-4.34-5.477-1.2402-11.883-3.2552-11.883-11.0053 0-6.5618 5.735-11.5735 13.795-11.5735 6.923 0 11.005 2.3767 15.035 6.7167l-7.233 5.6318c-1.757-2.7901-4.237-4.4434-8.009-4.4434-3.048 0-4.495 1.6533-4.495 3.3584 0 2.325 3.1 2.79 7.647 3.875 5.632 1.2917 12.297 3.2551 12.297 11.3673 0 7.13-6.045 12.348-14.364 12.348Zm25.04-.517-10.385-37.7168h9.145l5.942 23.2498 6.51-23.2498h8.628l6.51 23.3018 5.942-23.3018h9.042l-10.54 37.7168h-8.68l-6.614-23.7666-6.51 23.7666h-8.99Zm60.594.517c-10.747 0-19.272-8.628-19.272-19.3752 0-10.6952 8.525-19.3753 19.272-19.3753 10.746 0 19.323 8.6801 19.323 19.3753 0 10.7472-8.473 19.3752-19.323 19.3752Zm0-8.887c5.941 0 10.281-4.753 10.281-10.4882 0-5.7868-4.443-10.5402-10.281-10.5402-5.839 0-10.179 4.7534-10.179 10.5402 0 5.7352 4.289 10.4882 10.179 10.4882Zm31.074 8.887c-6.406 0-10.798-3.307-12.348-8.318l8.628-3.41c.517 2.118 1.602 3.461 3.669 3.461 2.066 0 3.048-1.55 3.048-3.668V78.5912h9.093v25.7818c0 7.647-3.823 12.452-12.09 12.452Zm16.631-.517V78.5912h26.04v8.3701h-17.05v6.2001h17.05v8.3696h-17.05v6.407h17.05v8.37h-26.04Zm30.451 0V78.5912h8.577l10.178 14.1052 10.489-14.1052h8.215v37.7168h-8.783V92.3864l-9.972 13.3816-9.869-13.33v23.87h-8.835Zm57.195.517c-9.3 0-15.242-5.58-15.242-15.345V78.5912h9.145V101.48c0 4.185 2.377 6.562 6.045 6.562 3.617 0 6.149-2.377 6.149-6.562V78.5912h9.145V101.48c0 9.765-5.942 15.345-15.242 15.345Z"/>
</svg>
