<svg width="25" height="26" viewBox="0 0 25 26" fill="none" xmlns="http://www.w3.org/2000/svg">
<path d="M24.0708 8.50707C23.5369 7.22229 22.4538 5.8351 21.6056 5.39658C22.2106 6.56821 22.6304 7.82648 22.8501 9.12663L22.8523 9.14724C21.4629 5.68322 19.1067 4.28651 17.1824 1.24514C17.083 1.0901 16.9865 0.933225 16.8929 0.774608C16.8447 0.691756 16.7995 0.607146 16.7576 0.520949C16.6777 0.366393 16.6162 0.203053 16.5743 0.0342421C16.5743 0.0264523 16.5715 0.0189144 16.5664 0.0130664C16.5612 0.00721832 16.5541 0.00346942 16.5464 0.00253482C16.5388 0.000457144 16.5308 0.000457144 16.5232 0.00253482C16.5216 0.00253482 16.5191 0.00538848 16.5172 0.00602262C16.5153 0.00665677 16.5112 0.00951043 16.5083 0.0107787L16.5131 0.00253482C13.4264 1.80985 12.3791 5.15561 12.2827 6.82912C11.05 6.91385 9.87147 7.3681 8.90079 8.13261C8.79952 8.04683 8.69367 7.96659 8.58372 7.89227C8.30371 6.91217 8.29177 5.87491 8.54916 4.88863C7.4156 5.43778 6.40837 6.21623 5.59118 7.17473H5.58548C5.09845 6.55739 5.13269 4.52178 5.1606 4.09658C5.01652 4.15449 4.87899 4.22751 4.7503 4.31441C4.32037 4.62126 3.91844 4.96558 3.54923 5.34332C3.12851 5.76988 2.74425 6.23093 2.40048 6.72163V6.72353V6.72132C1.61041 7.84139 1.05003 9.10688 0.751695 10.4447L0.735207 10.5259C0.68988 10.7808 0.649604 11.0366 0.614402 11.2932C0.614402 11.3024 0.6125 11.3109 0.611548 11.3201C0.503977 11.8793 0.437321 12.4455 0.412109 13.0143V13.0777C0.414804 16.1546 1.57165 19.1187 3.65403 21.3839C5.7364 23.6492 8.59278 25.0509 11.6587 25.312C14.7245 25.5731 17.7768 24.6747 20.2123 22.7942C22.6477 20.9137 24.2892 18.188 24.8122 15.1558C24.8328 14.9972 24.8496 14.8403 24.868 14.6802C25.1211 12.5882 24.8471 10.4661 24.0708 8.50707V8.50707ZM9.90718 18.1264C9.96457 18.154 10.0185 18.1838 10.0775 18.2101L10.086 18.2155C10.0264 18.187 9.96679 18.1573 9.90718 18.1264V18.1264ZM22.8533 9.1501V9.13836L22.8555 9.15136L22.8533 9.1501Z" fill="url(#paint0_linear_4043_40695)"/>
<path d="M24.0708 8.50795C23.5369 7.22317 22.4538 5.83597 21.6056 5.39746C22.2106 6.56908 22.6304 7.82735 22.8501 9.12751V9.13924L22.8523 9.15224C23.7995 11.8627 23.6625 14.8344 22.4699 17.4462C21.0615 20.4683 17.6523 23.5658 12.316 23.4151C6.55001 23.2519 1.47209 18.9733 0.522768 13.3693C0.349963 12.4856 0.522768 12.0376 0.609646 11.3194C0.491133 11.8773 0.425 12.445 0.412109 13.0151V13.0786C0.414804 16.1555 1.57165 19.1195 3.65403 21.3848C5.7364 23.6501 8.59278 25.0518 11.6587 25.3129C14.7245 25.574 17.7768 24.6755 20.2123 22.795C22.6477 20.9145 24.2892 18.1889 24.8122 15.1567C24.8328 14.9981 24.8496 14.8412 24.868 14.681C25.1211 12.5891 24.8471 10.467 24.0708 8.50795V8.50795Z" fill="url(#paint1_radial_4043_40695)"/>
<path d="M24.0708 8.50795C23.5369 7.22317 22.4538 5.83597 21.6056 5.39746C22.2106 6.56908 22.6304 7.82735 22.8501 9.12751V9.13924L22.8523 9.15224C23.7995 11.8627 23.6625 14.8344 22.4699 17.4462C21.0615 20.4683 17.6523 23.5658 12.316 23.4151C6.55001 23.2519 1.47209 18.9733 0.522768 13.3693C0.349963 12.4856 0.522768 12.0376 0.609646 11.3194C0.491133 11.8773 0.425 12.445 0.412109 13.0151V13.0786C0.414804 16.1555 1.57165 19.1195 3.65403 21.3848C5.7364 23.6501 8.59278 25.0518 11.6587 25.3129C14.7245 25.574 17.7768 24.6755 20.2123 22.795C22.6477 20.9145 24.2892 18.1889 24.8122 15.1567C24.8328 14.9981 24.8496 14.8412 24.868 14.681C25.1211 12.5891 24.8471 10.467 24.0708 8.50795V8.50795Z" fill="url(#paint2_radial_4043_40695)"/>
<path d="M18.0991 9.95205C18.1257 9.97076 18.1505 9.98947 18.1755 10.0082C17.8668 9.46081 17.4826 8.95966 17.0341 8.51952C13.2146 4.69942 16.0331 0.236613 16.5083 0.0099053L16.5131 0.00292969C13.4264 1.81025 12.3791 5.156 12.2827 6.82952C12.426 6.81969 12.5681 6.80764 12.7146 6.80764C13.8098 6.80964 14.885 7.10165 15.8307 7.65395C16.7765 8.20626 17.5592 8.99917 18.0991 9.95205V9.95205Z" fill="url(#paint3_radial_4043_40695)"/>
<path d="M12.7224 10.7149C12.7022 11.0206 11.6222 12.0748 11.2446 12.0748C7.75011 12.0748 7.18286 14.1888 7.18286 14.1888C7.33759 15.9688 8.57798 17.435 10.0774 18.2105C10.1456 18.2454 10.2148 18.2783 10.2848 18.3094C10.4051 18.3627 10.5253 18.412 10.6456 18.4572C11.1602 18.6393 11.6992 18.7433 12.2446 18.7657C18.3695 19.053 19.556 11.4413 15.136 9.23259C16.1787 9.09692 17.2347 9.35331 18.0991 9.95203C17.5591 8.99915 16.7765 8.20624 15.8307 7.65393C14.8849 7.10163 13.8097 6.80962 12.7145 6.80762C12.5687 6.80762 12.426 6.81967 12.2827 6.8295C11.05 6.91423 9.87144 7.36847 8.90076 8.13298C9.08815 8.29152 9.29964 8.50332 9.74513 8.94247C10.579 9.76401 12.7177 10.615 12.7224 10.7149Z" fill="url(#paint4_radial_4043_40695)"/>
<path d="M12.7224 10.7149C12.7022 11.0206 11.6222 12.0748 11.2446 12.0748C7.75011 12.0748 7.18286 14.1888 7.18286 14.1888C7.33759 15.9688 8.57798 17.435 10.0774 18.2105C10.1456 18.2454 10.2148 18.2783 10.2848 18.3094C10.4051 18.3627 10.5253 18.412 10.6456 18.4572C11.1602 18.6393 11.6992 18.7433 12.2446 18.7657C18.3695 19.053 19.556 11.4413 15.136 9.23259C16.1787 9.09692 17.2347 9.35331 18.0991 9.95203C17.5591 8.99915 16.7765 8.20624 15.8307 7.65393C14.8849 7.10163 13.8097 6.80962 12.7145 6.80762C12.5687 6.80762 12.426 6.81967 12.2827 6.8295C11.05 6.91423 9.87144 7.36847 8.90076 8.13298C9.08815 8.29152 9.29964 8.50332 9.74513 8.94247C10.579 9.76401 12.7177 10.615 12.7224 10.7149Z" fill="url(#paint5_radial_4043_40695)"/>
<path d="M8.32774 7.72394C8.41337 7.77842 8.49794 7.83456 8.5814 7.89231C8.30139 6.91221 8.28946 5.87495 8.54684 4.88867C7.41329 5.43782 6.40605 6.21627 5.58887 7.17477C5.64879 7.17318 7.43138 7.14116 8.32774 7.72394V7.72394Z" fill="url(#paint6_radial_4043_40695)"/>
<path d="M0.524459 13.3693C1.47282 18.9732 6.5517 23.2518 12.3177 23.4151C17.654 23.566 21.0632 20.4682 22.4716 17.4462C23.6642 14.8344 23.8012 11.8627 22.854 9.1522V9.14046C22.854 9.13127 22.8521 9.12588 22.854 9.12873L22.8562 9.14934C23.2922 11.9957 21.8445 14.7533 19.5812 16.618L19.5742 16.6339C15.1644 20.2253 10.9441 18.8007 10.0899 18.2192C10.0303 18.1907 9.9707 18.161 9.91109 18.1301C7.33995 16.9011 6.27775 14.5586 6.50541 12.5496C5.89508 12.5586 5.29523 12.3905 4.77855 12.0655C4.26187 11.7405 3.85052 11.2726 3.59436 10.7185C4.26929 10.3051 5.03886 10.0713 5.82973 10.0396C6.62061 10.0078 7.40644 10.1791 8.11234 10.5372C9.56766 11.1978 11.2237 11.2629 12.7264 10.7185C12.7216 10.6187 10.583 9.76732 9.74907 8.9461C9.30358 8.50695 9.09209 8.29546 8.9047 8.13661C8.80343 8.05083 8.69758 7.9706 8.58763 7.89627C8.50357 7.8394 8.41902 7.78328 8.33397 7.7279C7.4376 7.14512 5.65502 7.17715 5.59604 7.17873H5.59034C5.10331 6.56139 5.13756 4.52578 5.16546 4.10059C5.02138 4.15849 4.88385 4.23151 4.75517 4.31842C4.32523 4.62527 3.9233 4.96958 3.55409 5.34732C3.13186 5.77268 2.74601 6.23267 2.40058 6.72246V6.72437V6.72215C1.61051 7.84223 1.05013 9.10771 0.7518 10.4455C0.745776 10.4706 0.309166 12.3794 0.524459 13.3693V13.3693Z" fill="url(#paint7_radial_4043_40695)"/>
<path d="M17.0344 8.51912C17.4831 8.95976 17.8673 9.46144 18.1759 10.0094C18.2396 10.0568 18.3011 10.1072 18.3601 10.1603C21.1462 12.7286 19.6864 16.3591 19.5777 16.6175C21.8409 14.7528 23.2874 11.9952 22.8527 9.14883C21.4627 5.68322 19.1065 4.28651 17.1822 1.24514C17.0828 1.0901 16.9863 0.933225 16.8927 0.774608C16.8444 0.691757 16.7993 0.607146 16.7573 0.520949C16.6775 0.366393 16.616 0.203053 16.574 0.0342421C16.5741 0.0264523 16.5713 0.0189144 16.5661 0.0130664C16.561 0.00721832 16.5539 0.00346942 16.5461 0.00253482C16.5386 0.000457144 16.5306 0.000457144 16.523 0.00253482C16.5214 0.00253482 16.5189 0.00538848 16.517 0.00602262C16.5151 0.00665677 16.5109 0.00951043 16.5081 0.0107787C16.0328 0.236218 13.2143 4.69902 17.0344 8.51912Z" fill="url(#paint8_radial_4043_40695)"/>
<path d="M18.3584 10.1592C18.2994 10.1061 18.2379 10.0557 18.1742 10.0083C18.1492 9.98959 18.1244 9.97089 18.0978 9.95218C17.2334 9.35345 16.1775 9.09707 15.1348 9.23274C19.5548 11.4427 18.3689 19.0531 12.2434 18.7659C11.6979 18.7435 11.159 18.6395 10.6444 18.4573C10.5241 18.4123 10.4038 18.3631 10.2835 18.3096C10.2136 18.2784 10.1445 18.2454 10.0762 18.2107L10.0847 18.2161C10.9389 18.7992 15.1579 20.2238 19.569 16.6307L19.576 16.6148C19.686 16.358 21.1458 12.7266 18.3584 10.1592V10.1592Z" fill="url(#paint9_radial_4043_40695)"/>
<path d="M7.18277 14.1888C7.18277 14.1888 7.75001 12.0749 11.2445 12.0749C11.6221 12.0749 12.703 11.0206 12.7224 10.7149C11.2197 11.2593 9.56363 11.1942 8.10831 10.5336C7.40241 10.1755 6.61658 10.0042 5.8257 10.036C5.03483 10.0677 4.26526 10.3015 3.59033 10.7149C3.84649 11.269 4.25784 11.7369 4.77452 12.0619C5.2912 12.3869 5.89105 12.555 6.50138 12.546C6.27372 14.5553 7.33592 16.8979 9.90706 18.1265C9.96445 18.1541 10.0184 18.1839 10.0773 18.2102C8.57662 17.435 7.3375 15.9688 7.18277 14.1888V14.1888Z" fill="url(#paint10_radial_4043_40695)"/>
<path d="M24.0708 8.50707C23.5369 7.22229 22.4538 5.8351 21.6056 5.39658C22.2106 6.56821 22.6304 7.82648 22.8501 9.12663L22.8523 9.14724C21.4629 5.68322 19.1067 4.28651 17.1824 1.24514C17.083 1.0901 16.9865 0.933225 16.8929 0.774608C16.8447 0.691756 16.7995 0.607146 16.7576 0.520949C16.6777 0.366393 16.6162 0.203053 16.5743 0.0342421C16.5743 0.0264523 16.5715 0.0189144 16.5664 0.0130664C16.5612 0.00721832 16.5541 0.00346942 16.5464 0.00253482C16.5388 0.000457144 16.5308 0.000457144 16.5232 0.00253482C16.5216 0.00253482 16.5191 0.00538848 16.5172 0.00602262C16.5153 0.00665677 16.5112 0.00951043 16.5083 0.0107787L16.5131 0.00253482C13.4264 1.80985 12.3791 5.15561 12.2827 6.82912C12.426 6.81929 12.5681 6.80724 12.7145 6.80724C13.8098 6.80925 14.8849 7.10125 15.8307 7.65356C16.7765 8.20586 17.5591 8.99877 18.0991 9.95166C17.2347 9.35293 16.1787 9.09654 15.136 9.23222C19.556 11.4422 18.3702 19.0526 12.2446 18.7653C11.6992 18.7429 11.1602 18.6389 10.6456 18.4568C10.5254 18.4118 10.4051 18.3626 10.2848 18.3091C10.2149 18.2778 10.1457 18.2448 10.0775 18.2101L10.086 18.2155C10.0264 18.187 9.96679 18.1573 9.90718 18.1264C9.96457 18.154 10.0185 18.1838 10.0775 18.2101C8.57674 17.4346 7.33762 15.9684 7.18289 14.1884C7.18289 14.1884 7.75013 12.0745 11.2446 12.0745C11.6222 12.0745 12.7031 11.0202 12.7225 10.7145C12.7177 10.6147 10.5791 9.76331 9.74516 8.9421C9.29967 8.50295 9.08818 8.29146 8.90079 8.13261C8.79952 8.04683 8.69367 7.96659 8.58372 7.89227C8.30371 6.91217 8.29177 5.87491 8.54916 4.88863C7.4156 5.43778 6.40837 6.21623 5.59118 7.17473H5.58548C5.09845 6.55739 5.13269 4.52178 5.1606 4.09658C5.01652 4.15449 4.87899 4.22751 4.7503 4.31441C4.32037 4.62126 3.91844 4.96558 3.54923 5.34332C3.12851 5.76988 2.74425 6.23093 2.40048 6.72163V6.72353V6.72132C1.61041 7.84139 1.05003 9.10688 0.751695 10.4447L0.735207 10.5259C0.712061 10.634 0.608378 11.1832 0.593475 11.3011C0.593475 11.31 0.593475 11.2919 0.593475 11.3011C0.498642 11.868 0.438077 12.4401 0.412109 13.0143V13.0777C0.414804 16.1546 1.57165 19.1187 3.65403 21.3839C5.7364 23.6492 8.59278 25.0509 11.6587 25.312C14.7245 25.5731 17.7768 24.6747 20.2123 22.7942C22.6477 20.9137 24.2892 18.188 24.8122 15.1558C24.8328 14.9972 24.8496 14.8403 24.868 14.6802C25.1211 12.5882 24.8471 10.4661 24.0708 8.50707V8.50707ZM22.8517 9.13836L22.8539 9.15136L22.8517 9.13836Z" fill="url(#paint11_linear_4043_40695)"/>
<defs>
<linearGradient id="paint0_linear_4043_40695" x1="21.8297" y1="3.93106" x2="2.10289" y2="22.9678" gradientUnits="userSpaceOnUse">
<stop offset="0.05" stop-color="#FFF44F"/>
<stop offset="0.37" stop-color="#FF980E"/>
<stop offset="0.53" stop-color="#FF3647"/>
<stop offset="0.7" stop-color="#E31587"/>
</linearGradient>
<radialGradient id="paint1_radial_4043_40695" cx="0" cy="0" r="1" gradientUnits="userSpaceOnUse" gradientTransform="translate(17.5496 2.86355) scale(25.1365 25.5485)">
<stop offset="0.13" stop-color="#FFBD4F"/>
<stop offset="0.28" stop-color="#FF980E"/>
<stop offset="0.47" stop-color="#FF3750"/>
<stop offset="0.78" stop-color="#EB0878"/>
<stop offset="0.86" stop-color="#E50080"/>
</radialGradient>
<radialGradient id="paint2_radial_4043_40695" cx="0" cy="0" r="1" gradientUnits="userSpaceOnUse" gradientTransform="translate(10.229 13.3814) scale(25.7649 25.5485)">
<stop offset="0.3" stop-color="#960E18"/>
<stop offset="0.35" stop-color="#B11927" stop-opacity="0.74"/>
<stop offset="0.43" stop-color="#DB293D" stop-opacity="0.34"/>
<stop offset="0.5" stop-color="#F5334B" stop-opacity="0.09"/>
<stop offset="0.53" stop-color="#FF3750" stop-opacity="0"/>
</radialGradient>
<radialGradient id="paint3_radial_4043_40695" cx="0" cy="0" r="1" gradientUnits="userSpaceOnUse" gradientTransform="translate(15.1113 -1.1977) scale(8.24993 14.0073)">
<stop offset="0.13" stop-color="#FFF44F"/>
<stop offset="0.53" stop-color="#FF980E"/>
</radialGradient>
<radialGradient id="paint4_radial_4043_40695" cx="0" cy="0" r="1" gradientUnits="userSpaceOnUse" gradientTransform="translate(9.66739 19.9834) scale(10.9162 11.966)">
<stop offset="0.35" stop-color="#3A8EE6"/>
<stop offset="0.67" stop-color="#9059FF"/>
<stop offset="1" stop-color="#C139E6"/>
</radialGradient>
<radialGradient id="paint5_radial_4043_40695" cx="0" cy="0" r="1" gradientUnits="userSpaceOnUse" gradientTransform="translate(11.5733 10.7564) scale(5.7965 7.05995)">
<stop offset="0.21" stop-color="#9059FF" stop-opacity="0"/>
<stop offset="0.97" stop-color="#6E008B" stop-opacity="0.6"/>
</radialGradient>
<radialGradient id="paint6_radial_4043_40695" cx="0" cy="0" r="1" gradientUnits="userSpaceOnUse" gradientTransform="translate(11.8732 1.88504) scale(8.67835 8.71054)">
<stop offset="0.1" stop-color="#FFE226"/>
<stop offset="0.79" stop-color="#FF7139"/>
</radialGradient>
<radialGradient id="paint7_radial_4043_40695" cx="0" cy="0" r="1" gradientUnits="userSpaceOnUse" gradientTransform="translate(19.7951 -3.82053) scale(41.422 34.7757)">
<stop offset="0.11" stop-color="#FFF44F"/>
<stop offset="0.46" stop-color="#FF980E"/>
<stop offset="0.72" stop-color="#FF3647"/>
<stop offset="0.9" stop-color="#E31587"/>
</radialGradient>
<radialGradient id="paint8_radial_4043_40695" cx="0" cy="0" r="1" gradientUnits="userSpaceOnUse" gradientTransform="translate(4.76442 7.39924) rotate(77.3946) scale(13.1455 56.8729)">
<stop stop-color="#FFF44F"/>
<stop offset="0.3" stop-color="#FF980E"/>
<stop offset="0.57" stop-color="#FF3647"/>
<stop offset="0.74" stop-color="#E31587"/>
</radialGradient>
<radialGradient id="paint9_radial_4043_40695" cx="0" cy="0" r="1" gradientUnits="userSpaceOnUse" gradientTransform="translate(11.9623 5.03534) scale(23.791 23.3459)">
<stop offset="0.14" stop-color="#FFF44F"/>
<stop offset="0.48" stop-color="#FF980E"/>
<stop offset="0.66" stop-color="#FF3647"/>
<stop offset="0.9" stop-color="#E31587"/>
</radialGradient>
<radialGradient id="paint10_radial_4043_40695" cx="0" cy="0" r="1" gradientUnits="userSpaceOnUse" gradientTransform="translate(18.1376 6.37502) scale(28.5924 25.6053)">
<stop offset="0.09" stop-color="#FFF44F"/>
<stop offset="0.63" stop-color="#FF980E"/>
</radialGradient>
<linearGradient id="paint11_linear_4043_40695" x1="20.05" y1="3.55073" x2="4.2762" y2="20.7923" gradientUnits="userSpaceOnUse">
<stop offset="0.17" stop-color="#FFF44F" stop-opacity="0.8"/>
<stop offset="0.6" stop-color="#FFF44F" stop-opacity="0"/>
</linearGradient>
</defs>
</svg>
