<?xml version="1.0" encoding="UTF-8"?>
<!-- Generated by Pixelmator Pro 3.3.5 -->
<svg width="263" height="96" viewBox="0 0 263 96" xmlns="http://www.w3.org/2000/svg">
    <path id="Path" fill="#181818" stroke="none" d="M 242.492004 35.411598 L 254.113007 6.035408 L 20.0509 0.548828 L 13.947201 38.3913 L 0.242199 45.581501 L 8.6502 89.952599 L 245.356995 95.602097 L 262.957001 83.061302 L 260.369995 38.3913 L 242.492004 35.411598 Z"/>
    <path id="path1" fill="#ffffff" stroke="none" d="M 42.842598 46.948002 C 47.972 46.948002 51.884903 44.153099 53.9235 40.1745 L 48.629601 37.346699 C 47.643204 39.615501 45.670403 41.259499 42.8097 41.259499 C 38.995499 41.259499 36.397903 38.267399 36.397903 34.617599 C 36.397903 30.902 39.061302 27.909897 42.875504 27.909897 C 45.505997 27.909897 47.413002 29.257996 48.4981 31.395302 L 53.5289 28.205795 C 51.391602 24.654701 47.478798 22.287201 42.842598 22.287201 C 35.773201 22.287201 30.545101 27.613998 30.545101 34.617599 C 30.545101 41.456799 35.444397 46.948002 42.842598 46.948002 Z M 69.329002 46.619099 L 75.083 46.619099 L 75.083 22.615997 L 69.329002 22.615997 L 69.329002 31.724098 L 61.470703 31.724098 L 61.470703 22.615997 L 55.716499 22.615997 L 55.716499 46.619099 L 61.470703 46.619099 L 61.470703 37.379601 L 69.329002 37.379601 L 69.329002 46.619099 Z M 76.473 46.619099 L 82.260002 46.619099 L 83.510002 43.035099 L 92.682999 43.035099 L 93.932999 46.619099 L 99.753006 46.619099 L 90.875 22.615997 L 85.350998 22.615997 L 76.473 46.619099 Z M 88.112999 29.9814 L 90.941002 38.037201 L 85.285004 38.037201 L 88.112999 29.9814 Z M 101.121994 46.619099 L 117.332001 46.619099 L 117.332001 41.127998 L 106.876007 41.127998 L 106.876007 22.615997 L 101.121994 22.615997 L 101.121994 46.619099 Z M 119.697998 46.619099 L 135.908997 46.619099 L 135.908997 41.127998 L 125.451996 41.127998 L 125.451996 22.615997 L 119.697998 22.615997 L 119.697998 46.619099 Z M 138.274994 46.619099 L 154.847 46.619099 L 154.847 41.2924 L 143.996002 41.2924 L 143.996002 37.215199 L 154.847 37.215199 L 154.847 31.888504 L 143.996002 31.888504 L 143.996002 27.942802 L 154.847 27.942802 L 154.847 22.615997 L 138.274994 22.615997 L 138.274994 46.619099 Z M 157.654007 46.619099 L 163.145004 46.619099 L 163.145004 31.526802 L 172.582001 46.619099 L 178.139008 46.619099 L 178.139008 22.615997 L 172.679993 22.615997 L 172.679993 37.017899 L 163.638 22.615997 L 157.654007 22.615997 L 157.654007 46.619099 Z M 193.113998 46.948002 C 200.052002 46.948002 204.753998 41.4897 204.753998 35.1437 L 204.753998 32.4146 L 191.865005 32.4146 L 191.865005 37.741299 L 198.539993 37.741299 C 197.718002 40.1087 195.778 41.4897 193.016006 41.4897 C 189.037003 41.4897 186.242004 38.694801 186.242004 34.617599 C 186.242004 30.671898 189.201004 27.712601 192.917007 27.712601 C 195.350006 27.712601 197.190994 28.731903 198.341995 30.5075 L 203.143005 27.120697 C 200.873993 24.194298 197.487 22.287201 192.884003 22.287201 C 185.649994 22.287201 180.520996 27.646797 180.520996 34.617599 C 180.520996 41.259499 185.289001 46.948002 193.113998 46.948002 Z M 207.201004 46.619099 L 223.772995 46.619099 L 223.772995 41.2924 L 212.923004 41.2924 L 212.923004 37.215199 L 223.772995 37.215199 L 223.772995 31.888504 L 212.923004 31.888504 L 212.923004 27.942802 L 223.772995 27.942802 L 223.772995 22.615997 L 207.201004 22.615997 L 207.201004 46.619099 Z"/>
    <path id="path2" fill="#ffffff" stroke="none" d="M 110.509995 76.869102 L 119.125 76.869102 C 126.259995 76.869102 131.520996 71.706802 131.520996 64.867599 C 131.520996 58.061199 126.490005 52.866001 119.026001 52.866001 L 110.509995 52.866001 L 110.509995 76.869102 Z M 118.763 58.192799 C 123.268005 58.192799 125.733994 61.0863 125.733994 64.867599 C 125.733994 68.583099 123.070007 71.509499 118.862 71.509499 L 116.231003 71.509499 L 116.231003 58.192799 L 118.763 58.192799 Z M 133.903 76.869102 L 150.475006 76.869102 L 150.475006 71.542397 L 139.623993 71.542397 L 139.623993 67.465202 L 150.475006 67.465202 L 150.475006 62.1385 L 139.623993 62.1385 L 139.623993 58.192799 L 150.475006 58.192799 L 150.475006 52.866001 L 133.903 52.866001 L 133.903 76.869102 Z M 153.281998 76.869102 L 159.003006 76.869102 L 159.003006 67.826897 L 169.787994 67.826897 L 169.787994 62.533001 L 159.003006 62.533001 L 159.003006 58.258499 L 169.787994 58.258499 L 169.787994 52.866001 L 153.281998 52.866001 L 153.281998 76.869102 Z M 168.901001 76.869102 L 174.688004 76.869102 L 175.938004 73.285103 L 185.110992 73.285103 L 186.360992 76.869102 L 192.181 76.869102 L 183.302994 52.866001 L 177.779007 52.866001 L 168.901001 76.869102 Z M 180.541 60.2314 L 183.369003 68.287201 L 177.712997 68.287201 L 180.541 60.2314 Z M 201.707001 77.197998 C 207.625 77.197998 211.406998 73.646797 211.406998 67.432297 L 211.406998 52.866001 L 205.587006 52.866001 L 205.587006 67.432297 C 205.587006 70.095703 203.975998 71.6082 201.673996 71.6082 C 199.339005 71.6082 197.826996 70.095703 197.826996 67.432297 L 197.826996 52.866001 L 192.007004 52.866001 L 192.007004 67.432297 C 192.007004 73.646797 195.787994 77.197998 201.707001 77.197998 Z M 214.278 76.869102 L 230.488007 76.869102 L 230.488007 71.377998 L 220.031998 71.377998 L 220.031998 52.866001 L 214.278 52.866001 L 214.278 76.869102 Z M 233.542999 76.869102 L 239.132996 76.869102 L 239.132996 58.159901 L 245.578003 58.159901 L 245.578003 52.866001 L 227.03299 52.866001 L 227.03299 58.159901 L 233.542999 58.159901 L 233.542999 76.869102 Z"/>
    <path id="path3" fill="#ffffff" stroke="none" d="M 40.278099 76.869102 L 45.867897 76.869102 L 45.867897 58.159901 L 52.312599 58.159901 L 52.312599 52.866001 L 33.7677 52.866001 L 33.7677 58.159901 L 40.278099 58.159901 L 40.278099 76.869102 Z M 68.439003 76.869102 L 74.193001 76.869102 L 74.193001 52.866001 L 68.439003 52.866001 L 68.439003 61.974098 L 60.580101 61.974098 L 60.580101 52.866001 L 54.825897 52.866001 L 54.825897 76.869102 L 60.580101 76.869102 L 60.580101 67.629601 L 68.439003 67.629601 L 68.439003 76.869102 Z M 77.158997 76.869102 L 93.731003 76.869102 L 93.731003 71.542397 L 82.880997 71.542397 L 82.880997 67.465202 L 93.731003 67.465202 L 93.731003 62.1385 L 82.880997 62.1385 L 82.880997 58.192799 L 93.731003 58.192799 L 93.731003 52.866001 L 77.158997 52.866001 L 77.158997 76.869102 Z"/>
</svg>
