<svg xmlns="http://www.w3.org/2000/svg" width="310" height="130" fill="none" viewBox="0 0 310 130">
  <path fill="#181818" d="m284.64 46.8394 10.257-39.35512L23.0318.00012207 17.4374 51.6208-.0008545 61.4289 11.6252 121.955l273.3438 7.706 24.336-17.106-3.576-60.9342-21.089-4.7814Z"/>
  <path fill="#fff" d="M77.3892 61.521c-10.0866 0-16.7662-7.4864-16.7662-16.8109 0-9.5487 7.1279-16.811 16.7662-16.811 6.3209 0 11.6556 3.2277 14.5695 8.0692l-6.8589 4.3485c-1.4793-2.9139-4.0794-4.7519-7.6658-4.7519-5.2002 0-8.8314 4.0794-8.8314 9.1452 0 4.976 3.5416 9.0555 8.7418 9.0555 3.9001 0 6.5899-2.2415 7.9348-5.3347l7.2175 3.8553c-2.7794 5.4244-8.1141 9.2348-15.1075 9.2348Zm14.5706-.4482 12.1042-32.7254h7.531l12.104 32.7254h-7.935l-1.703-4.8864h-12.508l-1.7033 4.8864h-7.8899Zm15.8692-22.6837-3.855 10.9832h7.711l-3.856-10.9832Zm17.736 22.6837V28.3474h7.442l8.831 12.2384 9.101-12.2384h7.128v32.7254h-7.621v-20.756l-8.652 11.6108-8.563-11.566v20.7112h-7.666Zm36.534 0V28.3474h12.956c7.89 0 11.925 3.2277 11.925 9.3693 0 2.9587-1.211 5.0657-3.318 6.4106 2.511 1.4345 3.945 3.7208 3.945 7.0382 0 6.814-4.707 9.9073-12.552 9.9073h-12.956ZM175.1 47.8481h-5.38v6.3658h5.514c3.049 0 4.394-1.1656 4.394-3.2277 0-2.0622-1.121-3.1381-4.528-3.1381Zm.269-12.6867h-5.649v5.8278h5.694c2.779 0 3.81-1.2552 3.81-3.0035 0-1.7932-1.121-2.8243-3.855-2.8243Zm15.606 25.9114V28.3474h7.89v32.7254h-7.89Zm9.866 0 12.104-32.7254h7.531l12.104 32.7254h-7.935l-1.703-4.8864h-12.508l-1.703 4.8864h-7.89Zm15.869-22.6837-3.855 10.9832h7.711l-3.856-10.9832Z"/>
  <path fill="#fff" d="M43.8562 103.251V70.5253h7.8451v25.2389h14.2558v7.4868H43.8562Zm23.4836 0 12.1039-32.7257h7.5313l12.1039 32.7257h-7.9348l-1.7035-4.8867H76.9332l-1.7035 4.8867h-7.8899Zm15.8695-22.6839L79.354 91.5503h7.7107l-3.8554-10.9832Zm26.9957 22.6839V70.5253h8.159l12.328 19.6353V70.5253h7.442v32.7257h-7.576l-12.866-20.5769v20.5769h-7.487Zm47.898.448c-9.324 0-16.721-7.4865-16.721-16.811 0-9.2796 7.397-16.811 16.721-16.811 9.325 0 16.766 7.5314 16.766 16.811 0 9.3245-7.352 16.811-16.766 16.811Zm0-7.7106c5.155 0 8.921-4.1243 8.921-9.1004 0-5.0209-3.855-9.1451-8.921-9.1451-5.066 0-8.831 4.1242-8.831 9.1451 0 4.9761 3.72 9.1004 8.831 9.1004Zm20.005 7.2626V70.5253h14.076c7.89 0 12.283 5.0657 12.283 11.2522 0 4.1691-2.017 7.7106-5.289 9.6383l6.096 11.8352h-8.607l-4.617-9.8179h-6.142v9.8179h-7.8Zm13.493-25.5978h-5.693v8.6969h5.693c3.318 0 4.887-1.9725 4.887-4.3933 0-2.6898-1.614-4.3036-4.887-4.3036Zm15.993 25.5978V70.5253h7.441l8.832 12.2384 9.1-12.2384h7.128v32.7257h-7.621V82.4948l-8.652 11.6108-8.563-11.566v20.7114h-7.665Zm34.384 0 12.104-32.7257h7.531l12.104 32.7257h-7.935l-1.703-4.8867h-12.508l-1.703 4.8867h-7.89Zm15.87-22.6839-3.856 10.9832h7.711l-3.855-10.9832Z"/>
</svg>
