<svg xmlns="http://www.w3.org/2000/svg" width="310" height="130" fill="none" viewBox="0 0 310 130">
  <path fill="#181818" d="m284.64 46.8394 10.257-39.35512L23.0317.00012207 17.4373 51.6208-.00097656 61.4289 11.6251 121.955l273.3439 7.706 24.336-17.106-3.576-60.9342-21.089-4.7814Z"/>
  <path fill="#fff" d="M62.0151 61.521c-7.2623 0-11.5211-2.8242-14.6143-6.545l6.7244-5.3796c1.9276 2.914 4.4829 4.6175 8.1589 4.6175 2.6449 0 4.0795-1.2553 4.0795-3.0484 0-2.1967-2.1518-2.645-6.7692-3.7657-4.752-1.0759-10.3108-2.8242-10.3108-9.5486 0-5.6934 4.9761-10.0418 11.9694-10.0418 6.0072 0 9.5487 2.0622 13.0454 5.8278l-6.2761 4.8864c-1.5242-2.4208-3.676-3.8553-6.9486-3.8553-2.6449 0-3.9001 1.4345-3.9001 2.9139 0 2.0173 2.6897 2.4208 6.6347 3.3622 4.8864 1.1207 10.6694 2.8242 10.6694 9.8624 0 6.1865-5.245 10.7142-12.4626 10.7142Zm15.5453-.4482V28.3474h22.5046v7.352H85.3607v5.8278h14.7043v7.2175H85.3607v12.3281h-7.8003Zm26.4246 0V28.3474h7.89v32.7254h-7.89Zm12.015 0V28.3474h11.611c10.176 0 17.035 7.083 17.035 16.3627 0 9.3245-7.173 16.3627-16.901 16.3627H116Zm11.252-25.4631H123.8v18.1559h3.586c5.739 0 9.37-3.9898 9.37-9.0555 0-5.1554-3.362-9.1004-9.504-9.1004Zm16.347 25.4631 12.103-32.7254h7.532l12.104 32.7254h-7.935l-1.704-4.8864h-12.507l-1.704 4.8864h-7.889Zm15.869-22.6837-3.855 10.9832h7.71l-3.855-10.9832Zm26.996 22.6837V28.3474h7.845v25.2389h14.256v7.4865h-22.101Zm39.317.4482c-9.324 0-16.721-7.4864-16.721-16.8109 0-9.2797 7.397-16.811 16.721-16.811 9.325 0 16.766 7.5313 16.766 16.811 0 9.3245-7.352 16.8109-16.766 16.8109Zm0-7.7106c5.156 0 8.921-4.1243 8.921-9.1003 0-5.0209-3.855-9.1452-8.921-9.1452-5.066 0-8.831 4.1243-8.831 9.1452 0 4.976 3.721 9.1003 8.831 9.1003Z"/>
  <path fill="#fff" d="M55.8706 103.699c-7.2624 0-11.5211-2.824-14.6144-6.5451l6.7244-5.3795c1.9277 2.9139 4.483 4.6174 8.159 4.6174 2.6449 0 4.0794-1.2552 4.0794-3.0483 0-2.1967-2.1518-2.645-6.7692-3.7657-4.7519-1.0759-10.3107-2.8243-10.3107-9.5487 0-5.6933 4.976-10.0417 11.9694-10.0417 6.0071 0 9.5486 2.0621 13.0453 5.8278l-6.2761 4.8864c-1.5242-2.4208-3.676-3.8553-6.9485-3.8553-2.645 0-3.9002 1.4345-3.9002 2.9139 0 2.0173 2.6898 2.4208 6.6348 3.3622 4.8864 1.1207 10.6693 2.8242 10.6693 9.8624 0 6.1865-5.245 10.7142-12.4625 10.7142Zm22.5264-.448V77.7429h-8.8762v-7.2176h25.2837v7.2176h-8.7866v25.5081H78.397Zm12.2559 0 12.1041-32.7257h7.531l12.104 32.7257h-7.935l-1.703-4.8867h-12.508l-1.7032 4.8867h-7.8899Zm15.8691-22.6839-3.855 10.9832h7.711l-3.856-10.9832Zm17.736 22.6839V70.5253h8.159l12.328 19.6353V70.5253h7.442v32.7257h-7.576l-12.866-20.5769v20.5769h-7.487Zm31.982 0V70.5253h11.61c10.177 0 17.035 7.0831 17.035 16.3627 0 9.3245-7.172 16.363-16.9 16.363H156.24Zm11.252-25.4633h-3.452v18.1559h3.586c5.738 0 9.37-3.9899 9.37-9.0556 0-5.1553-3.363-9.1003-9.504-9.1003Zm16.346 25.4633 12.104-32.7257h7.532l12.103 32.7257h-7.934l-1.704-4.8867h-12.507l-1.704 4.8867h-7.89Zm15.87-22.6839-3.855 10.9832h7.71l-3.855-10.9832Zm17.736 22.6839V70.5253h14.076c7.89 0 12.283 5.0657 12.283 11.2522 0 4.1691-2.017 7.7106-5.289 9.6383l6.096 11.8352h-8.607l-4.617-9.8179h-6.142v9.8179h-7.8Zm13.493-25.5978h-5.693v8.6969h5.693c3.318 0 4.887-1.9725 4.887-4.3933 0-2.6898-1.614-4.3036-4.887-4.3036Zm15.993 25.5978V70.5253h11.61c10.177 0 17.036 7.0831 17.036 16.3627 0 9.3245-7.173 16.363-16.901 16.363H246.93Zm11.252-25.4633h-3.452v18.1559h3.586c5.738 0 9.37-3.9899 9.37-9.0556 0-5.1553-3.363-9.1003-9.504-9.1003Z"/>
</svg>
