<svg xmlns="http://www.w3.org/2000/svg" width="310" height="130" fill="none" viewBox="0 0 310 130">
  <path fill="#181818" d="m285.3 47 10.3-39.4L23.1 0l-5.6 51.7L0 61.6l11.7 60.7 274 7.7 24.4-17.1-3.6-61.1-21.2-4.8z"/>
  <path fill="#fff" d="M55.1 61.4c-10.1 0-16.8-7.5-16.8-16.8 0-9.6 7.1-16.8 16.8-16.8 6.3 0 11.7 3.2 14.6 8.1l-6.9 4.4c-1.5-2.9-4.1-4.8-7.7-4.8-5.2 0-8.9 4.1-8.9 9.2 0 5 3.5 9.1 8.8 9.1 3.9 0 6.6-2.2 8-5.3l7.2 3.9c-2.7 5.2-8.1 9-15.1 9zm36.2-.4V48.4H80.6V61h-7.9V28.2h7.9v12.4h10.7V28.2h7.9V61h-7.9zm9.8 0 12.1-32.8h7.5L132.9 61h-8l-1.7-4.9h-12.5L109 61h-7.9zM117 38.3l-3.9 11h7.7l-3.8-11zM134.8 61V28.2h8.2l12.4 19.7V28.2h7.5V61h-7.6l-12.9-20.6V61h-7.6zm48.4.4c-10.7 0-17.2-7.8-17.2-16.8 0-9.5 7-16.8 16.9-16.8 6.3 0 10.9 2.6 14 6.6l-6.6 4.6c-1.6-2.4-4.1-3.8-7.4-3.8-5.1 0-9.1 4-9.1 9.4 0 5.6 3.8 9.4 9.3 9.4 3.8 0 6.4-1.9 7.5-5.1h-9.1v-7.3h17.6v3.7c0 8.7-6.4 16.1-15.9 16.1zm19.3-.4V28.2h22.6v7.3h-14.8v5.4h14.8v7.3h-14.8v5.6h14.8V61h-22.6zm26.1 0v-7.2L243 35.4h-14v-7.2h23.2v7l-14.5 18.5h14.7V61h-23.8z"/>
  <path fill="#fff" d="M53.2 103.3V70.5h7.9v25.3h14.3v7.5H53.2zm23.6 0 12.1-32.8h7.5l12.1 32.8h-8l-1.7-4.9H86.4l-1.7 4.9h-7.9zm15.9-22.8-3.9 11h7.7l-3.8-11zm27 22.8V70.5h11.6c10.2 0 17.1 7.1 17.1 16.4 0 9.3-7.2 16.4-16.9 16.4h-11.8zM131 77.7h-3.5v18.2h3.6c5.8 0 9.4-4 9.4-9.1s-3.3-9.1-9.5-9.1zm37 26c-9.3 0-16.8-7.5-16.8-16.8s7.4-16.8 16.8-16.8 16.8 7.5 16.8 16.8-7.4 16.8-16.8 16.8zm0-7.7c5.2 0 8.9-4.1 8.9-9.1s-3.9-9.2-8.9-9.2-8.9 4.1-8.9 9.2c0 4.9 3.7 9.1 8.9 9.1zm20 7.3V70.5h8.2l12.4 19.7V70.5h7.5v32.8h-7.6l-12.9-20.6v20.6H188zm32.1 0V70.5h8.2l12.4 19.7V70.5h7.5v32.8h-7.6l-12.9-20.6v20.6h-7.6zm32 0V70.5h22.6v7.3h-14.8v5.4h14.8v7.3h-14.8V96h14.8v7.3h-22.6z"/>
</svg>
