<svg xmlns="http://www.w3.org/2000/svg" width="658" height="276" fill="none" viewBox="0 0 658 276">
  <path fill="#181818" d="m605.448 99.9261 21.801-83.6535L49.3714.364258 37.4799 110.089.413086 130.938 25.1254 259.593l581.0216 16.38 51.728-36.362-7.602-129.522-44.825-10.1629Z"/>
  <path fill="#fff" d="M117.341 130.612c-21.4398 0-35.6379-15.914-35.6379-35.7338 0-20.2967 15.151-35.7336 35.6379-35.7336 13.436 0 24.776 6.8609 30.969 17.1521l-14.579 9.2431c-3.144-6.1938-8.671-10.1007-16.294-10.1007-11.054 0-18.7724 8.6714-18.7724 19.4391 0 10.5768 7.5274 19.2488 18.5814 19.2488 8.29 0 14.008-4.765 16.866-11.34l15.342 8.195c-5.908 11.53-17.247 19.63-32.113 19.63Zm76.759-.953v-26.777h-22.774v26.777H154.65V60.0975h16.676v26.3952H194.1V60.0975h16.676v69.5615H194.1Zm20.703 0 25.728-69.5615h16.009l25.728 69.5615h-16.866l-3.621-10.387h-26.586l-3.621 10.387h-16.771Zm33.733-48.2166-8.195 23.3456h16.389l-8.194-23.3456Zm37.699 48.2166V60.0975h17.343l26.204 41.7365V60.0975H345.6v69.5615h-16.103l-27.349-43.738v43.738h-15.913Zm102.765.953c-22.679 0-36.496-16.485-36.496-35.7338 0-20.2014 14.865-35.7336 35.829-35.7336 13.34 0 23.155 5.5268 29.73 14.0076l-13.912 9.8148c-3.336-5.1456-8.672-8.0996-15.723-8.0996-10.768 0-19.344 8.576-19.344 20.0108 0 11.8158 8.1 19.9158 19.63 19.9158 8.004 0 13.626-4.002 16.008-10.863h-19.343V88.4938h37.353v7.909c0 18.3912-13.626 34.2092-33.732 34.2092Zm40.824-.953V60.0975h48.026v15.4369h-31.445v11.4348h31.445v15.4368h-31.445v11.816h31.445v15.437h-48.026Zm55.501 0v-15.342l30.588-38.9732h-29.635V60.0975h49.17v14.8652l-30.779 39.2593h31.16v15.437h-50.504Z"/>
  <path fill="#fff" d="M113.32 219.313v-69.562h16.676v53.648h30.302v15.914H113.32Zm49.917 0 25.728-69.562h16.009l25.728 69.562h-16.866l-3.621-10.387h-26.586l-3.621 10.387h-16.771Zm33.732-48.217-8.195 23.346h16.39l-8.195-23.346Zm57.383 48.217v-69.562h24.68c21.631 0 36.21 15.056 36.21 34.781 0 19.82-15.246 34.781-35.924 34.781h-24.966Zm23.918-54.125h-7.338v38.593h7.624c12.197 0 19.915-8.481 19.915-19.249 0-10.958-7.147-19.344-20.201-19.344Zm78.359 55.078c-19.82 0-35.543-15.914-35.543-35.734 0-19.725 15.723-35.733 35.543-35.733s35.638 16.008 35.638 35.733c0 19.82-15.627 35.734-35.638 35.734Zm0-16.39c10.958 0 18.963-8.767 18.963-19.344 0-10.672-8.195-19.439-18.963-19.439s-18.772 8.767-18.772 19.439c0 10.577 7.909 19.344 18.772 19.344Zm42.522 15.437v-69.562h17.343l26.204 41.737v-41.737h15.818v69.562h-16.103l-27.349-43.738v43.738h-15.913Zm67.979 0v-69.562h17.343l26.205 41.737v-41.737h15.818v69.562h-16.104l-27.348-43.738v43.738H467.13Zm67.98 0v-69.562h48.026v15.437H551.69v11.435h31.446v15.437H551.69v11.816h31.446v15.437H535.11Z"/>
</svg>
