<svg width="102" height="60" viewBox="0 0 102 60" fill="none" xmlns="http://www.w3.org/2000/svg">
<rect width="102" height="60" fill="#C8C8C8"/>
<g clip-path="url(#clip0_1258_16105)" filter="url(#filter0_d_1258_16105)">
<rect width="1440" height="5703" transform="translate(-756 -1237)" fill="white"/>
<path d="M713 -335L224 -348L-493 -336L-771 -342.519V411L713 346.961V-335Z" fill="white"/>
<rect x="97.1463" y="42.3551" width="39.0202" height="39.0202" rx="19.5101" transform="rotate(171.095 97.1463 42.3551)" fill="white" stroke="#181818" stroke-width="2"/>
<rect x="103.732" y="46.1852" width="99.2572" height="48.6286" rx="24.3143" transform="rotate(171.095 103.732 46.1852)" fill="white" stroke="#181818" stroke-width="2"/>
<circle cx="74.601" cy="26.0626" r="19.5575" transform="rotate(-13.441 74.601 26.0626)" fill="#2AC3A2" stroke="#181818" stroke-width="2"/>
<circle cx="69.1335" cy="22.7023" r="1.60188" transform="rotate(-13.441 69.1335 22.7023)" fill="#181818"/>
<circle cx="77.446" cy="20.7179" r="1.60188" transform="rotate(-13.441 77.446 20.7179)" fill="#181818"/>
<path d="M85.4831 19.8952C87.0597 26.492 82.99 33.1179 76.3931 34.6945C69.7962 36.2711 63.1703 32.2014 61.5938 25.6045" stroke="#181818" stroke-width="2"/>
</g>
<defs>
<filter id="filter0_d_1258_16105" x="-800" y="-1267" width="1528" height="5791" filterUnits="userSpaceOnUse" color-interpolation-filters="sRGB">
<feFlood flood-opacity="0" result="BackgroundImageFix"/>
<feColorMatrix in="SourceAlpha" type="matrix" values="0 0 0 0 0 0 0 0 0 0 0 0 0 0 0 0 0 0 127 0" result="hardAlpha"/>
<feOffset dy="14"/>
<feGaussianBlur stdDeviation="22"/>
<feComposite in2="hardAlpha" operator="out"/>
<feColorMatrix type="matrix" values="0 0 0 0 0 0 0 0 0 0 0 0 0 0 0 0 0 0 0.18 0"/>
<feBlend mode="normal" in2="BackgroundImageFix" result="effect1_dropShadow_1258_16105"/>
<feBlend mode="normal" in="SourceGraphic" in2="effect1_dropShadow_1258_16105" result="shape"/>
</filter>
<clipPath id="clip0_1258_16105">
<rect width="1440" height="5703" fill="white" transform="translate(-756 -1237)"/>
</clipPath>
</defs>
</svg>
