<svg xmlns="http://www.w3.org/2000/svg" width="64" height="64" viewBox="0 0 64 64">
  <path fill="#ffb547" d="M59.4 0c-2.5 0-4.6 2-4.6 4.6v5.2C42.7-2.9 22.6-3.3 9.9 8.8 5.6 13 2.5 18.4 1 24.3c-.7 2.4.8 4.9 3.2 5.6s4.9-.8 5.6-3.2v-.2C12.4 16.3 21.5 9.2 32 9.1c7.2 0 13.9 3.4 18.1 9.1h-9c-2.5 0-4.6 2-4.6 4.6s2 4.6 4.6 4.6h18.3c2.5 0 4.6-2 4.6-4.6V4.6C64 2 62 0 59.4 0zm.2 34.2c-2.4-.6-4.9.9-5.5 3.3C51.6 47.7 42.5 54.8 32 54.9c-7.2 0-13.9-3.4-18.1-9.1h9c2.5 0 4.6-2 4.6-4.6 0-2.5-2-4.6-4.6-4.6H4.6c-2.5 0-4.6 2-4.6 4.6v18.3C0 62 2 64 4.6 64s4.6-2 4.6-4.6v-5.2c12.1 12.7 32.2 13.1 44.9 1 4.4-4.2 7.5-9.6 8.9-15.5.6-2.4-.9-4.9-3.4-5.5z"/>
</svg>
