<svg width="37" height="37" xmlns="http://www.w3.org/2000/svg"><path d="M33.8 0a2.6 2.6 0 00-2.6 2.6v2.98A18.065 18.065 0 00.59 13.798a2.6 2.6 0 105.044 1.259A12.956 12.956 0 0118.2 5.2a12.79 12.79 0 0110.314 5.2H23.4a2.6 2.6 0 000 5.2h10.4a2.6 2.6 0 002.6-2.6V2.6A2.6 2.6 0 0033.8 0zm.12 19.45a2.6 2.6 0 00-3.154 1.893A12.956 12.956 0 0118.2 31.2 12.79 12.79 0 017.886 26H13a2.6 2.6 0 000-5.2H2.6A2.6 2.6 0 000 23.4v10.4a2.6 2.6 0 005.2 0v-2.98a18.065 18.065 0 0030.61-8.218 2.6 2.6 0 00-1.89-3.151z" fill="#FFB547" fill-rule="nonzero"/></svg>