<svg xmlns="http://www.w3.org/2000/svg" width="64" height="64" viewBox="0 0 64 64" xml:space="preserve">
  <path fill="#4983f4" d="M33.1 0C16.6 0 3.3 13.4 3.3 29.8c0 2.4 1.9 4.3 4.3 4.3 2.3 0 4.3-1.9 4.3-4.3 0-11.8 9.5-21.3 21.3-21.3S54.5 18 54.5 29.8c.1 6.4-1.6 12.7-4.9 18.2-2.2 3.5-3.4 7.5-3.7 11.6 0 2.4 1.9 4.3 4.3 4.3 2.3 0 4.3-1.9 4.3-4.3.3-2.7 1.2-5.3 2.7-7.6C61 45.3 63 37.6 63 29.8 63 13.4 49.6 0 33.1 0z"/>
  <path fill="#4983f4" d="M33.1 12.8c-9.4 0-17.1 7.6-17.1 17.1 0 4.7-3.8 8.5-8.5 8.5-2.4 0-4.3 1.9-4.3 4.3C3.2 45 5.1 47 7.5 47c9.4 0 17.1-7.6 17.1-17.1 0-4.7 3.8-8.5 8.5-8.5s8.5 3.8 8.5 8.5c.2 7.5-2.4 14.8-7.4 20.5-1.9 2.3-3.5 4.8-4.9 7.5-1.1 2.1-.2 4.6 1.9 5.7.6.3 1.2.5 1.9.5 1.6 0 3.1-.9 3.8-2.3 1.2-2.2 2.7-4.2 4.3-6.1 6.1-7.1 9.3-16.3 9-25.6 0-9.7-7.7-17.3-17.1-17.3z"/>
  <path fill="#4983f4" d="M33.1 25.6c-2.4 0-4.3 1.9-4.3 4.3 0 18-22.4 25.6-22.7 25.8-2.2.7-3.4 3.2-2.7 5.4.7 1.7 2.3 2.9 4.1 2.9h1.4c1.2-.6 28.5-10 28.5-34.1 0-2.4-1.9-4.3-4.3-4.3z" />
</svg>
