<svg width="37" height="39" xmlns="http://www.w3.org/2000/svg"><g fill="#4983F4" fill-rule="nonzero"><path d="M18.5 0C8.448 0 .3 8.148.3 18.2a2.6 2.6 0 005.2 0c0-7.18 5.82-13 13-13s13 5.82 13 13a21.424 21.424 0 01-2.964 11.128A14.95 14.95 0 0026.3 36.4a2.6 2.6 0 005.2 0c.156-1.662.718-3.26 1.638-4.654A26.468 26.468 0 0036.7 18.2C36.7 8.148 28.552 0 18.5 0z"/><path d="M18.5 7.8c-5.744 0-10.4 4.656-10.4 10.4a5.2 5.2 0 01-5.2 5.2 2.6 2.6 0 000 5.2c5.744 0 10.4-4.656 10.4-10.4a5.2 5.2 0 1110.4 0 17.888 17.888 0 01-4.524 12.48 28.6 28.6 0 00-2.99 4.55 2.6 2.6 0 001.144 3.484c.36.192.762.29 1.17.286a2.6 2.6 0 002.314-1.43 25.324 25.324 0 012.6-3.744A22.984 22.984 0 0028.9 18.2c0-5.744-4.656-10.4-10.4-10.4z"/><path d="M18.5 15.6a2.6 2.6 0 00-2.6 2.6c0 10.946-13.676 15.6-13.832 15.73A2.6 2.6 0 00.43 37.232 2.6 2.6 0 002.9 39c.276.036.556.036.832 0 .702-.364 17.368-6.084 17.368-20.8a2.6 2.6 0 00-2.6-2.6z"/></g></svg>