<svg width="49" height="31" xmlns="http://www.w3.org/2000/svg"><g fill-rule="nonzero" fill="none"><path d="M16.115 12.89c-3.9.195-5.655 2.535-5.655 3.12s2.535 2.145 5.265 2.145c2.535 0 5.655-.975 5.655-1.755 0-.975-1.56-3.705-5.265-3.51zM32.885 12.89c-3.705-.195-5.265 2.535-5.265 3.51 0 .78 2.925 1.755 5.655 1.755 2.73 0 5.265-1.56 5.265-2.145-.195-.585-1.755-2.925-5.655-3.12z" fill="#9564F5"/><path d="M35.225 27.65c-2.424 0-3.985-.8-6.903-2.913-.194-.14-.283-.206-.383-.277-1.74-1.255-2.607-1.685-3.439-1.685-.92 0-1.862.479-3.996 1.982-.447.314-.55.387-.759.53-2.33 1.611-3.94 2.363-5.97 2.363C6.917 27.65 2.5 21.439 2.5 12.28c0-6.655 2.887-9.13 10.495-9.13 3.1 0 5.391.516 7.936 1.548.343.14 1.379.579 1.41.592.454.189.776.31 1.066.4.42.131.76.19 1.093.19.334 0 .674-.059 1.093-.19.29-.09.612-.211 1.066-.4.031-.013 1.067-.452 1.41-.592 2.545-1.032 4.836-1.548 7.936-1.548 7.608 0 10.495 2.475 10.495 9.13 0 9.159-4.417 15.37-11.275 15.37z" stroke="#9564F5" stroke-width="5"/></g></svg>