<svg width="40" height="39" viewBox="0 0 40 39" xmlns="http://www.w3.org/2000/svg" xmlns:xlink="http://www.w3.org/1999/xlink"><defs><path id="a" d="M0 39V0h39.728v39z"/></defs><g fill="none" fill-rule="evenodd"><path d="M17.098 25.528L8.581 17.86a1.732 1.732 0 0 1-.091-2.501 1.866 1.866 0 0 1 2.58-.089l7.105 6.43 15.63-17.106a1.87 1.87 0 0 1 2.582-.145c.755.652.822 1.773.15 2.504L19.66 25.41a1.848 1.848 0 0 1-1.278.59c-.52-.002-.953-.172-1.284-.472z" fill="#33F70C"/><g><mask id="b" fill="#fff"><use xlink:href="#a"/></mask><path d="M0 19.5C0 8.73 8.892 0 19.861 0c3.002-.008 5.966.66 8.666 1.95a1.786 1.786 0 0 1 .85 2.406c-.443.895-1.54 1.268-2.451.834A16.286 16.286 0 0 0 19.86 3.6c-8.937.005-16.178 7.121-16.174 15.896.005 8.775 7.254 15.885 16.19 15.88 8.938-.005 16.18-7.121 16.175-15.896a15.645 15.645 0 0 0-1.457-6.58 1.788 1.788 0 0 1 .904-2.388c.922-.414 2.011-.017 2.433.888 4.553 9.802.15 21.371-9.833 25.841A20.173 20.173 0 0 1 19.86 39C8.892 39 0 30.27 0 19.5z" fill="#33F70C" mask="url(#b)"/></g></g></svg>
