<svg xmlns="http://www.w3.org/2000/svg" xml:space="preserve" id="Layer_1" x="0" y="0" version="1.1" viewBox="0 0 217 322">
  <style>
    .st3{fill:#ec7522}.st6{fill:#feeee2}.st7{fill:#e0af70}
  </style>
  <path fill="#fff" stroke="#000" stroke-width="3" d="M11 109.2h194c4.1 0 7.5 3.4 7.5 7.5v194c0 4.1-3.4 7.5-7.5 7.5H11c-4.1 0-7.5-3.4-7.5-7.5v-194c0-4.1 3.4-7.5 7.5-7.5z"/>
  <path fill="#82ebe4" d="M151.4 19.8c3.3-3.4 6.7 2.5 8.2 4.8 2.7 4.2 21.2 33.7 22.9 38.1 1.4 3.7-17.7 35.9-30.7 35.6-1.5 0-24-15.4-23.9-16.9.2-1.3 20.9-58.9 23.5-61.6z"/>
  <path fill="#fe9f48" d="M111.3 4.8h.3c3.5 5.3 6.3 10.9 9.2 16.5.6 1.2 1.2 3.1 2.4 3.7 1.1.6 3.2.3 4.5.4 2.8.2 6.6 1.5 8.6-.7 3.8-4.2 6.5-9.4 10.4-13.6 1.1-1.2 3-4.4 4.7-2.6 1.3 1.4 1.1 6 1.4 7.9.1.7 0 2.4.6 2.8.5.3 1.8-.7 2.7-.3 1.8 1 1 4.6 1 6.1 0 1.3-.4 3.1-.1 4.3.3 1 1.2 1.6 1.5 2.6.6 1.9-.7 3.9-1.8 5.3-1.5 2-1.8 2.2-.4 4.6 1.5 2.4 3 4.9 4.3 7.3 1.2 2.1 2.4 3.3.6 5.2-1.8 1.9-4.2 3.4-6.2 5-2.4 1.8-4.7 3.7-7.1 5.5-1.7 1.3-5.4 3.1-6.5 5-1 1.7.7 4.7 1.1 6.6.5 2.3.7 4.7 1.3 7 3.5-5.1 5.7-11.4 9.5-16.3s11.4-4.5 17-4.5c4.2 0 15.5-1.8 13.2 5.3-2.1 6.6-6 12.4-8.7 18.8-1.1 2.6 1.2 2.1 2.5 4.3 1.4 2.2 1.9 4.9 1.6 7.5-.3 2.6-1.4 5.3-3 7.4-1.8 2.3-3.4 1.8-6.2 1.8-13.4.1-26.8 0-40.3 0H57.9c-3.1 0-5.8.3-8.5-1.3C40.9 101.2 34 90.8 34 80.7c0-5.5 1.5-11.4 4.7-16 1.5-2.2 3.5-4.4 5.7-5.9 2-1.3 4-1.3 5.8-3 3.9-3.7 7.7-7 12.7-9.3 2.6-1.2 5-2 7.9-2.4 2.3-.3 4.4.2 6.6.1 1.1-.1.7-1 2.1-.5 1.1.4 1.2.8 1.5 1.8.6 2.4-.4 5.6-.5 8-.3 6.5-.4 13.1-.1 19.6.1 0 .2 0 .3.1.4-1.7 1.5-2.9 2.7-4.1 1.6-1.6 1.9-2.4 3-.2 1.7 3.7 3.8 6.9 6.1 10.2 1.5 2.1 1.8 2.9 3.8 1 1.9-1.8 3.6-3.7 5.4-5.6 1.6-1.7 3.3-3.4 4.9-5.1 1.9-2 2-1.9 0-3.6-3.5-2.9-7-6-10.4-9-1.4-1.2-2.8-1.9-2.8-3.8 0-2 1.3-4.3 1.9-6.1 1.3-3.7 4.1-8.3 3.5-12.2-.3-1.5-1.6-4.2-.3-5.5 1.3-1.4 2.4-.3 3.6.6.1-.1.2-.1.3-.2-1.4-4-3.3-8.1-2.6-12.5.8-5.5 4.1-2.4 6.8 0 1.2-3.8 2-9.1 4.7-12.3z"/>
  <path d="M97.3 42.5c1.3-3.6 2.2-5.8 1.4-9.6-.3-1.4-1.2-3.6.5-4.4 1.5-.7 2.1.8 3.4 1.1-1.3-4.1-3.2-8-2.6-12.4.7-5.7 4.1-2.7 6.8-.1 1.3-4.2 2.5-8.4 4.6-12.3h.3c3.7 5.5 7.1 11.4 9.9 17.4 1.5 3.4 2.4 2.9 6.2 3.2 3.1.2 6.7 1.6 8.8-1 2.1-2.5 3.8-5.4 5.8-8.1 1-1.4 2.1-2.7 3.3-4 .9-1 2.4-3.3 3.6-3.9 3.4-1.6 3 3.9 3.3 6.2.5 3.1.1 4.6-1.7 7.2-3.5 4.9-8.5 5.5-14 6.4-6.8 1-13.5 2.1-19.8 4.8-6.2 2.6-10 6.2-13.4 11.9-3.6 6.2-3.1 10.8-.8 17.4-1.8-1.4-3.5-3-5.2-4.5L93 53.3l4.3-10.8z" class="st3"/>
  <path d="M57.9 62.6c-.7 4.8-1.7 9.3-1.3 14.2.3 4.2 1.2 8.3 2.4 12.2 2 6.2 6 14.8 12.2 18 .8.4 1.7.6 2.6.7l50.7.1c.5 0 .9-.3 1.2-.7 1.1-1.9 2.7-4.9 3.6-6.5 2-3.6 3.9-7.1 5.9-10.7 1.3-2.4 4.4-6.5.4-7.8-2.9-.9-25.8-14.2-25.8-14.2-3.3.4-15.8 13.9-17.8 16L57.9 62.6z" class="st3"/>
  <path d="M158.3 92.7c6.9-10.6 18-3.4 18.9-2.1 1.7 2.4 2.3 5.9 1.6 8.8-.4 1.9-3.2 6.5-4.7 7.8-.5.4-1 .8-1.6.8h-11.3c0-.1-8.5-3.9-2.9-15.3z" class="st3"/>
  <path fill="#fea902" d="M125.6 107.5c3-5.7 6.1-11.4 9.1-17.1.9-1.6 3.2-4.6 2.7-6.5-.8-3.1-4.4-2-6.4-1.2-2.5 1-4.9 1.8-7.3 3.1-1 .5-2 1.2-3 1.7-1.4.8-1 1-2.2.1-1.6-1.2-2.8-4.5-3.6-6.3-1.2-2.7-2.1-5.5-2.5-8.4-.2-1.5.1-4-.9-5.2-.2-.2-1.6-.9-2-1.2-1-.7-1.9-1.5-2.9-2.3-4-3-5.9-7-5.4-12.1.5-5.2 4.2-10.5 7.8-14.1 4-4 9.6-6 14.9-7.5 6.3-1.9 12.8-2 19.1-3.7 2.7-.7 5.1-1.5 7-3.6.4-.5 3-4.9 3.3-4.7 1.7 1 1.7 21.2 1.7 21.2.7 1.3 7.5 11.5 7.2 13-.3 1.5-1.4 2.2-2.7 3.2-3.3 2.8-6.7 5.4-10.1 8-1.7 1.4-3.5 2.7-5.3 4-2.1 1.5-2.9 1.6-2.3 4.1.4 1.8 1 3.5 1.4 5.4.4 1.9.4 3.8 1.3 5.5-3.5 8.6-9.7 16-13.2 24.6h-5.7z"/>
  <path fill="#f1ecf0" d="M44.9 58.6c1.7-.9 7.7-5.3 9.2-6.6 3.1-2.8 6.5-4.9 10.5-6.3 3.7-1.3 19.6-4.7 16.5.7.5 8.8-17.6 40.4-19.4 37.4-2.4-4.1-6.4-13.3-7-14.7-6.2 7.4-6.9 13.5-7.1 20.6-4-4.5-4.6-8.1-5.1-10.1-1.9 3.8-3.2 13.1 2.7 23-2.8-1.4-5.3-5.7-6.9-8.3-7-9.5-5.2-27.7 6.6-35.7z"/>
  <path d="M161.9 54.1c-6.2 5.1-12.5 10.7-19.5 14.8-1 .6-3 .4-3.6 1.5-.6 1.1.9 11.1.2 12.1-2.3 0-4.3-.4-5.6-.4-1.4 0-3.2.8-4.6 1.1-3.4.9-6 2.8-8.8 5-3.1 2.4-5.9 5-8.5 7.9-2.6 2.9-4.7 6.5-7.6 9-.9-2.8.2-7.2.7-10.1.5-3.4 1.1-6.9 2-10.2.8-3.1 1.6-6.3 2.6-9.4.5-1.5 1.1-3 1.7-4.4.8-1.9 1.3-.9-.4-2.2-5.1-4.1-11.1-8.4-15.7-13.1-1.4-1.4-1.4-1.4.1-2.7 1.2-1 2.6-1.7 3.9-2.5 2.5-1.4 5.2-2.5 8-3.3 2.8-.8 5.1-1.1 7.9-.9 1.9.2 6.5 1.7 6.5 1.7 1.7-3.1 1.8-3.1 2.3-3.7.8-1.1 2-2.1 3.1-2.9 2.5-1.8 5.8-2.4 8.9-1.5 2.1.6 5.7 2.6 7 4.5 1.5 2.1 1.3 4.4 2.9 3.7 1.4-.3 2.9-.7 4.4-.6 1.3.1 2.9.9 4.2 1.4 2.8 1.2 5.5 2.9 7.8 4.9v.3h.1z" class="st6"/>
  <path d="m153.5 33.5-.3-7.5c-.1-1.5-.9-5.2.2-6.4 3.5-3.7 4.2 3.8 4.2 5.4.1 1.7-.6 4.1 0 5.4.8 1.8 1.4 2.8.4 4.9-.3.7-2.3 4-3.2 4-1.3 0-1.4-5-1.5-5.8h.2z" class="st6"/>
  <path d="M81.3 73c.4-1.7 1.5-2.9 2.7-4.1 1.5-1.5 1.9-2.1 3-.1 1 1.7 1.8 3.4 2.7 5.1 1 1.9 2.6 3.4 3.7 5.3 1.2 2.1.4 2.4-1.2 4-.5.5-3.1 3-3.4 3.7-.2.6-5-4-6.7-6.5.2 2.3 1.3 5.5 2 7.5-2.5-.3-10-5.3-12.8-11-1.7 3.3-1.7 12.7-1.7 16-8-5.2-12.1-16.5-13.2-19.6.2-3.1.8-7.9 1.7-10.9-1.7.8-4.3 3.2-8 8.3 1-11.9 16.3-25.5 30.8-26.5 1.5-.1.2 5.8.1 7.2-.4 7.1-.4 14.2-.4 21.3.4.2.6.3.7.3z" class="st7"/>
  <path d="M103.2 106.1c.5-7 1.3-14.1 3.1-20.9.9-3.2 1.6-6.5 2.7-9.7.5-1.5 3.5-5.6 1.4-6.7 1.7.4 1.2 1.5 1.2 2.9-.1 2 .1 3.9.7 5.8 1.1 4 3.6 7.2 5.3 11 .8 1.9.6 1.6-1.1 3-1.6 1.4-3.1 2.9-4.5 4.4-3 3.3-5.8 6.8-8.6 10.2h-.2z" class="st7"/>
  <path d="M103.1 29.4c-1-3-2.3-5.9-2.6-9-.2-1.5-.6-6.1 1.4-6.8 2.1-.7 4.6 4.3 5.4 5.7 1.4 2.4 3.1 4.3 2.4 7.2-.8 3-2.3 5.9-3.4 8.8-.6 1.6-1.7 4.7-2.8 4.9-.5.1-4.2-6.4-4.6-8.2-.3-1.4-.8-2.9-.2-3.5.7-.7 2.7-.2 4.1 1l.3-.1z" class="st7"/>
  <path d="M103.5 62c-1.6-1.2-3.1-2.4-4.6-3.7-1-.9-3.9-2.6-4.3-3.8-.6-1.4.9-1.8 2.2-2.6 1.5-.9 3.2-2.4 4.9-2.8-.1 2.1-.5 4.2-.4 6.3.1 2.3 1.3 4.4 2.2 6.6z" class="st7"/>
  <path fill="#634fce" d="M160.8 107.8h-30c-.8 0 18.6-34.5 22.3-39.8 3.3-4.9 9.7-4.9 15-5.1 3.1-.1 14.6-1.8 15.6 2.1.6 2.6-1.3 5.9-2.3 8.1-.7 1.7-7.4 14.1-7.2 15 .2 1-2.5-.4-5.1-.7-3.2-.4-7.5.8-9.6 3.1-1.8 1.9-3.4 7.5-3.1 10 .6 5.5 4.5 7.3 4.4 7.3z"/>
  <path fill="#b4fee3" d="M131 107.7c3.7-8.2 8.3-16 12.8-23.8 2.3-3.9 4.6-7.9 6.9-11.8 1.4-2.4 4-8.9 7.8-8.1-.8 3.5-3.7 7.2-5.4 10.3l-6 11.1c-4 7.4-8.1 14.9-12.1 22.3h-4z"/>
  <path fill="#2e2c7e" d="M178.4 70.3c-.6 1.1-1.2 3.6-2.7 3.9-2.2.5-2.2-1.2-1.9-2.5.5-2.6 3.7-5.8 4.3-1.5.1 0 .2.1.3.1z"/>
  <path d="M183 62.8c-.5-.2-.8-.6-1.4-1.1-.9.1-2 .2-3.1.2-4.5.1-9.1 0-13.6.1-2.2 0-4.5.1-6.7.5s-4 1.7-5.5 3.4c0 0 0 .1-.1.1-2.2 3.7-4.3 7.5-6.5 11.2-.5.9-1 1.7-1.5 2.8-1.2-3.3-1.3-6.8-2.7-9.8.1-.1.2-.3.3-.4 2.5-1.8 5.1-3.6 7.6-5.4 2.5-1.8 4.9-3.7 7.4-5.5 2.2-1.7 4.5-3.3 6.3-5.6-.2-.8-.2-1.6-.6-2.2-1.2-2.1-2.5-4.1-3.8-6.2-1-1.6-2-3.3-2.9-4.8.9-1.4 1.7-2.7 2.4-4 1.1-2.1.7-4.8-.9-6.5.4-2.6.8-5.3.2-8-.5-2.6-1.5-3.7-4-4.1-.1-.3-.2-.5-.2-.8-.3-1.8-.5-3.6-.8-5.3-.3-1.9-.6-3.9-2.8-5-.4.3-1 .5-1.4.9-.8.8-1.5 1.7-2.3 2.5-3.6 3.4-6.5 7.5-9.6 11.3-.9 1.1-1.8 2.2-2.6 3.4-3.8-.1-7.5-1.1-11.3-.3-1.2-2.8-2.5-5.5-3.7-8.3-1.5-3.5-3.6-6.7-5.8-9.9-.6-.9-1.5-1.6-2.7-1.9-.2.3-.5.5-.7.9-1.1 2.4-2.2 4.9-3.3 7.3-.4.8-.6 1.6-.9 2.4-.7-.6-1.3-1.2-1.9-1.5-2.1-1.2-3.9-.4-4.5 1.6-.3.9-.4 1.8-.4 2.7-.1 2.8.5 5.6 1.4 8.3.2.4.3.9.4 1.4-1.9-.4-2.9.1-3.2 1.6-.2 1-.3 2-.2 3 .1 1.1.5 2.1.8 3.2.3.8.3 1.5-.1 2.3-1.4 3.5-2.8 7.1-4.2 10.7-.7 1.9-1.4 3.9-2.2 5.9 5.2 4.6 10.3 9.2 15.4 13.7-4.2 4-8.5 8.1-12.9 12.2l-.4-.4c-1.7-2.5-3.3-5-5-7.5-.9-1.4-1.8-2.9-2.2-4.6-.2-.6-.9-1.1-1.4-1.7-1.9 1.2-2.7 3-4.1 4.6v-6.4c0-4.5.2-9.1.7-13.6.2-2.1.3-4.2.5-6.2-1-.7-2.3-1-4.1-1.2-6.3-.4-12.2.8-17.7 3.9-4.5 2.6-8.8 5.5-12.1 9.3-1.7.8-3.3 1.3-4.7 2.3-1.7 1.2-3.4 2.6-4.7 4.3-1.8 2.5-3.5 5-4.4 8-1.8 5.4-2.1 10.9-.8 16.4 1.5 6.2 4.5 11.7 9.3 16 2 1.8 4.3 3.2 6.4 4.8h3.8c-3.8-2.4-7.6-4.9-10.6-8.3-3.4-3.8-5.6-8.3-6.9-13.1-1-3.9-.9-7.8-.1-11.7 1.1-5.3 3.4-9.8 7.5-13.4.4-.4.8-.8 1.3-1.2.2-.2.5-.4.7-.6l.2.2c-1.8 2.1-2.8 4.6-3.3 7.3.4-.1.7-.2.9-.4.4-.5.8-1.1 1.2-1.6 3.4-5 7.2-9.7 12.3-13.2 4.7-3.2 9.5-5.9 15.3-6.6 2.2-.2 4.4-.3 6.6-.4.6 0 1.2.2 1.8.4 0 .6-.1 1.1-.1 1.6-.3 3.3-.8 6.7-.9 10-.2 4.1-.2 8.2-.2 12.3 0 2 .1 4.1.7 6.1.2.7.4 1.5 1.5 1.6.2-.5.3-1 .4-1.5.5-2.4 1.4-4.7 3.4-6.6 2 4.7 4.8 8.8 7.8 12.7-2 2.3-4 4.7-6 7.2-2.3 2.9-4.5 5.8-6.8 8.7-1.3 1.7-2.8 3.3-4.1 4.9-.3.4-.8.8-.2 1.6C86.4 91.6 96.9 79.4 109 68.7c.7.5 1.3 1 1.9 1.4-.7 1.6-1.5 3.1-2.1 4.7-.6 1.6-1.2 3.2-1.6 4.8-2.1 7.8-3.5 15.7-4.3 23.7-.1 1.1-.4 2.1-.6 3.2-.1.3.1.7.2 1.1.1 0 .2 0 .3.1.2-.3.5-.5.7-.8.7-.9 1.4-1.9 2.1-2.8 4.4-5.6 9.1-10.8 14.7-15.3 3.2-2.6 6.7-4.7 10.8-5.5 1.4-.3 2.8-.6 4.2-.5 3.8.1 5.8 2.1 6.3 4.6-.3.5-.7 1.1-1 1.7-2.5-3-8-4.2-9.2-2h1.3c.7 0 1.4-.1 2.2-.1 2.4.1 4.4 1.5 5 3.4-1.4 2.4-2.8 4.9-4.2 7.4-1.9 3.4-3.7 6.8-5.5 10.2h1.3c1.2-2.3 2.3-4.7 3.5-6.9 2.4-4.3 4.9-8.5 7.3-12.7 1.7-3 3.4-6 5.1-9.1 2-3.6 4-7.3 6.1-10.9 1-1.8 1.1-1.9 4.2-3.5-.1.4-.2.6-.3.8-2.1 3.6-4.2 7.3-6.3 10.9-2.1 3.6-4 7.3-6.1 10.9l-9.6 17.4c-.5.9-.8 2-1.2 3h1c.9-1.8 1.8-3.7 2.8-5.5 4-7.2 8-14.3 12-21.5 2.8-5 5.7-10 8.4-15.1.6-1 1.4-1.4 2.5-1.4l18-.3c.7 0 1.4-.1 2.3-.2.9.5 1.3 1.7 1.7 2.7-1.7 3.6-3.4 7.2-5 10.8-1.6 3.6-4 6.7-5.2 10.6-.3-.1-.6-.3-.9-.4-3.4-1.3-6.7-1.3-9.9.4-1.1.6-2.1 1.5-2.8 2.5-2 2.7-3.3 5.7-3.4 9.1-.1 2.6.7 5 2.8 6.8.6.5 1.1 1 1.6 1.5h1.8c-.5-.4-1-.8-1.6-1.2-2.6-2.1-4-4.7-3.4-8.3 1.7.3 3.4.6 5.2 1l1.5.3c.6.1 1 0 1.3-.6-2.5-1-5.2-1-7.7-1.7.3-1.7 1-3.2 1.8-4.6.1-.2.3-.4.4-.6.8-1.6 1.4-2.2 4-1.5 1.4.4 2.8 1 3.9 2 .5.4 1.1.9 1.8.1-1.9-1.9-4.1-3-6.8-3.6.6-.3 1.1-.6 1.7-.8 3.5-.9 6.7-.5 9.8 1.5 2.3 1.5 3.1 3.7 3.5 6.2.4 3.3-.2 6.4-2 9.2-.6 1-1.5 1.8-2.3 2.6h3.1c3.2-4 4.2-8.6 3.2-13.6-.3-1.6-.8-3.1-2-4.3-.6-.6-1.3-1.1-2.1-1.8.1-.4.2-.7.4-1 1.1-2.3 2.3-4.6 3.4-6.9l4.2-9c.6-1.3 1.5-2.4 1.7-3.9.1-.5.3-1 .5-1.7-.3-1.1-1.1-2.2-2.4-2.9zm-28.6-43.2c1.7.9 2.1 2.6 2.3 4.2.1 1.5-.2 3.1-.4 4.6-.1.6-.5 1.2-.8 2 .4.4 1 .7 1.4 1.2.5.6.9 1.4.6 2.3-.4 1.5-1 2.9-2.1 4-.8-.1-.9-.6-.9-1.1-.1-2.5-.2-5-.3-7.4-.1-2.1-.4-4.2-.5-6.3 0-.5-.1-1.1-.1-1.6-.3-.8 0-1.4.8-1.9zm-55.3 9.5c2.3.2 3.1 2.3 4.6 3.5.2-.1.4-.3.7-.5-.6-1.8-1.2-3.6-1.9-5.3-1.1-2.7-1.7-5.5-1.9-8.3-.1-1.3 0-2.6.9-3.7 1.1 0 2 .5 2.6 1.3.8 1.1 1.6 2.2 2.4 3.4 1 1.6 2 3.3 3 4.9-1.4 5.3-3.3 10.4-6.1 15.3-2.5-3.3-5-6.2-4.3-10.6zm38.1 52.7c-4.4-.7-8.5.5-12.3 2.5-5.7 3.1-10.1 7.7-14.5 12.3-2.1 2.3-4.1 4.7-6.1 7.1-.1.1-.3.3-.5.4 1.5-11.3 2.8-22.7 7.8-33.3 1.9.8 3 2.7 5.3 2.6.1-.2.3-.5.5-1-8.4-5.4-15.7-12-23-18.7 4.7-4.1 14.5-9.2 26.4-5.4-.1.6-.2 1.1-.2 1.7-.3 4.1 1 6.7 4.9 8.9 3.3 1.8 6.7 2.4 10.4 1.7.7-.1 1.4-.1 2-.3.6-.2 1.1-.6 1.7-.8l-.1-.3c-.3 0-.6 0-.9.1-1.7.2-3.3.6-5 .7-3.4.2-6.3-.9-9.1-2.8-2-1.4-2.8-3.3-2.9-5.5-.1-1.3 0-2.6 0-4-9.5-3.3-18.4-1.5-26.6 4.5 1.4-5 3.1-9.7 5.3-14.4 1.2 1.1 1.7 2.9 3.6 3.1 1.2-1.7 2.2-3.5 3-5.5 1-2.4 1.9-4.9 2.8-7.4.3-.8.6-1.7.7-2.5.1-.6 0-1.4-.3-1.9-.6-1.3-1.5-2.4-2.2-3.7-.3-.5-.5-1-.8-1.6 1.3-3.7 2.5-7.6 4.4-11.2 2.1 2.9 4 5.7 5.4 8.8 1.2 2.8 2.5 5.7 3.8 8.5.3.7.8 1.3 1.4 2.1h3c3.6-.1 7.2.2 10.8.7 1.2.2 2.4.1 3.6.2.4 0 .8-.1 1.4-.2-.9-1.8-2.5-1.7-4.2-2 2.2-2.8 4.3-5.5 6.5-8.1 2.2-2.6 4.5-5.2 7-8 .3 1.1.6 2 .8 2.9.6 3.8 1.2 7.6 1.6 11.5.4 4.5.6 9.1.7 13.7.1 1.7.5 3.2 1.4 4.7 2 3 3.8 6.1 5.7 9.2.4.6.7 1.2 1.1 2.1-1.9-1.3-3.6-2.4-5.3-3.5-1.3-.8-2.7-1.4-4.1-2-2.2-1-4.4-.5-6.6.1l-.9.3c-.8-2.3-2-4.4-3.9-5.9.5-2.3.3-3.5-1-3.8-.6-.1-1.2.2-1.4.7-.2.3-.3.7-.5 1.1-4.1-1.4-8.1-1.4-12 1.5.2-1.1.3-2.1 0-3-.2-.5-.7-.9-1.2-.8-.7 0-1 .4-1.3 1-.7 1.8-.5 2.8.9 3.9-.9 1.3-2 2.4-2.3 3.9l.3.2c.3-.4.7-.8 1-1.2 1.5-2.1 3.5-3.6 5.9-4.6 2.3-.9 4.6-.9 6.9-.2 4 1.4 6.7 4.1 7.8 8.2.5 1.8.2 3.6-.1 5.4-.1.4-.1.8-.1 1.2 1.7-1.9 1.3-4.2 1.4-6.6 1.8-.7 3.6-1.3 5.6-.8 3.8 1 7 3.3 10.3 5.8-4.5 3.4-8.8 6.6-13.1 9.9-4.3 3.3-8.9 6-13.5 8.8 1.4.4 2.4-.7 3.8-1 .2 3.6.4 7.1.6 10.8-.5-.6-1-.7-1.5-.8zm5.5 3.8c-1.1-1.1-2.1-2.2-3.2-3.3.2-1.1-.1-2.4-.1-3.7 0-1.3-.1-2.6-.2-3.9-.1-1.3-.1-2.7-.2-4.1.2-.1.5-.2.7-.4.1.2.2.3.3.5l2.1 8.4c.3 1 .4 2.1.7 3.2.2.5.6.8 1.1 1.4-.5.7-.9 1.4-1.2 1.9z"/>
  <path d="M175.5 74.9c.7-.5 1.6-1 2-1.6 1-1.4 1.3-3.1 1.1-4.8-1.5-1.3-3-1.2-4.1.2-.5.7-.9 1.5-1.1 2.4-.2.8-.3 1.6-.3 2.5 0 1.1 1.5 1.8 2.4 1.3zm.6-6.5c1.4.3 1.6.6 1.3 2-.2 1.1-.5 2.1-1.3 2.9-.5.5-1.1.9-2.1.4-.2-2.1.7-3.8 2.1-5.3z"/>
  <path d="M140.6 49.2c-1.3 1.1-2.7 1.5-4.2 1.6-3.5.1-6.4-1-8.7-3.7-.4-.4-.8-.8-1.6-.4.4.6.8 1.2 1.3 1.7 2.8 2.7 6.2 3.5 10 3.2 1-.1 2-.2 2.8-.9.4-.3.8-.7.4-1.5z"/>
  <path d="M133.8 45.3c.7.6 1.5.7 2.3.1.8-.5 1.5-1.1 1.1-2.4-1.7-.5-3.4-1.4-5.2 0 .2 1.2 1.1 1.7 1.8 2.3z"/>
</svg>
