<svg width="237" height="342" fill="none" xmlns="http://www.w3.org/2000/svg"><path d="M17 129.2H211C215.1 129.2 218.5 132.6 218.5 136.7V330.7C218.5 334.8 215.1 338.2 211 338.2H17C12.9 338.2 9.5 334.8 9.5 330.7V136.7C9.5 132.6 12.9 129.2 17 129.2Z" fill="#fff" stroke="#000" stroke-width="3"/><path d="M157.4 39.8C160.7 36.4 164.1 42.3 165.6 44.6C168.3 48.8 186.8 78.3 188.5 82.7C189.9 86.4 170.8 118.6 157.8 118.3C156.3 118.3 133.8 102.9 133.9 101.4C134.1 100.1 154.8 42.5 157.4 39.8Z" fill="#82EBE4"/><path d="M117.3 24.8H117.6C121.1 30.1 123.9 35.7 126.8 41.3C127.4 42.5 128 44.4 129.2 45C130.3 45.6 132.4 45.3 133.7 45.4C136.5 45.6 140.3 46.9 142.3 44.7C146.1 40.5 148.8 35.3 152.7 31.1C153.8 29.9 155.7 26.7 157.4 28.5C158.7 29.9 158.5 34.5 158.8 36.4C158.9 37.1 158.8 38.8 159.4 39.2C159.9 39.5 161.2 38.5 162.1 38.9C163.9 39.9 163.1 43.5 163.1 45C163.1 46.3 162.7 48.1 163 49.3C163.3 50.3 164.2 50.9 164.5 51.9C165.1 53.8 163.8 55.8 162.7 57.2C161.2 59.2 160.9 59.4 162.3 61.8C163.8 64.2 165.3 66.7 166.6 69.1C167.8 71.2 169 72.4 167.2 74.3C165.4 76.2 163 77.7 161 79.3C158.6 81.1 156.3 83 153.9 84.8C152.2 86.1 148.5 87.9 147.4 89.8C146.4 91.5 148.1 94.5 148.5 96.4C149 98.7 149.2 101.1 149.8 103.4C153.3 98.3 155.5 92 159.3 87.1C163.1 82.2 170.7 82.6 176.3 82.6C180.5 82.6 191.8 80.8 189.5 87.9C187.4 94.5 183.5 100.3 180.8 106.7C179.7 109.3 182 108.8 183.3 111C184.7 113.2 185.2 115.9 184.9 118.5C184.6 121.1 183.5 123.8 181.9 125.9C180.1 128.2 178.5 127.7 175.7 127.7C162.3 127.8 148.9 127.7 135.4 127.7H63.9C60.8 127.7 58.1 128 55.4 126.4C46.9 121.2 40 110.8 40 100.7C40 95.2 41.5 89.3 44.7 84.7C46.2 82.5 48.2 80.3 50.4 78.8C52.4 77.5 54.4 77.5 56.2 75.8C60.1 72.1 63.9 68.8 68.9 66.5C71.5 65.3 73.9 64.5 76.8 64.1C79.1 63.8 81.2 64.3 83.4 64.2C84.5 64.1 84.1 63.2 85.5 63.7C86.6 64.1 86.7 64.5 87 65.5C87.6 67.9 86.6 71.1 86.5 73.5C86.2 80 86.1 86.6 86.4 93.1C86.5 93.1 86.6 93.1 86.7 93.2C87.1 91.5 88.2 90.3 89.4 89.1C91 87.5 91.3 86.7 92.4 88.9C94.1 92.6 96.2 95.8 98.5 99.1C100 101.2 100.3 102 102.3 100.1C104.2 98.3 105.9 96.4 107.7 94.5C109.3 92.8 111 91.1 112.6 89.4C114.5 87.4 114.6 87.5 112.6 85.8C109.1 82.9 105.6 79.8 102.2 76.8C100.8 75.6 99.4 74.9 99.4 73C99.4 71 100.7 68.7 101.3 66.9C102.6 63.2 105.4 58.6 104.8 54.7C104.5 53.2 103.2 50.5 104.5 49.2C105.8 47.8 106.9 48.9 108.1 49.8C108.2 49.7 108.3 49.7 108.4 49.6C107 45.6 105.1 41.5 105.8 37.1C106.6 31.6 109.9 34.7 112.6 37.1C113.8 33.3 114.6 28 117.3 24.8Z" fill="#FE9F48"/><path d="M103.3 62.5C104.6 58.9 105.5 56.7 104.7 52.9 104.4 51.5 103.5 49.3 105.2 48.5 106.7 47.8 107.3 49.3 108.6 49.6 107.3 45.5 105.4 41.6 106 37.2 106.7 31.5 110.1 34.5 112.8 37.1 114.1 32.9 115.3 28.7 117.4 24.8H117.7C121.4 30.3 124.8 36.2 127.6 42.2 129.1 45.6 130 45.1 133.8 45.4 136.9 45.6 140.5 47 142.6 44.4 144.7 41.9 146.4 39 148.4 36.3 149.4 34.9 150.5 33.6 151.7 32.3 152.6 31.3 154.1 29 155.3 28.4 158.7 26.8 158.3 32.3 158.6 34.6 159.1 37.7 158.7 39.2 156.9 41.8 153.4 46.7 148.4 47.3 142.9 48.2 136.1 49.2 129.4 50.3 123.1 53 116.9 55.6 113.1 59.2 109.7 64.9 106.1 71.1 106.6 75.7 108.9 82.3 107.1 80.9 105.4 79.3 103.7 77.8L99 73.3 103.3 62.5ZM63.9 82.6C63.2 87.4 62.2 91.9 62.6 96.8 62.9 101 63.8 105.1 65 109 67 115.2 71 123.8 77.2 127 78 127.4 78.9 127.6 79.8 127.7L130.5 127.8C131 127.8 131.4 127.5 131.7 127.1 132.8 125.2 134.4 122.2 135.3 120.6 137.3 117 139.2 113.5 141.2 109.9 142.5 107.5 145.6 103.4 141.6 102.1 138.7 101.2 115.8 87.9 115.8 87.9 112.5 88.3 100 101.8 98 103.9L63.9 82.6ZM164.3 112.7C171.2 102.1 182.3 109.3 183.2 110.6 184.9 113 185.5 116.5 184.8 119.4 184.4 121.3 181.6 125.9 180.1 127.2 179.6 127.6 179.1 128 178.5 128H167.2C167.2 127.9 158.7 124.1 164.3 112.7Z" fill="#EC7522"/><path d="M131.6 127.5C134.6 121.8 137.7 116.1 140.7 110.4C141.6 108.8 143.9 105.8 143.4 103.9C142.6 100.8 139 101.9 137 102.7C134.5 103.7 132.1 104.5 129.7 105.8C128.7 106.3 127.7 107 126.7 107.5C125.3 108.3 125.7 108.5 124.5 107.6C122.9 106.4 121.7 103.1 120.9 101.3C119.7 98.6 118.8 95.8 118.4 92.9C118.2 91.4 118.5 88.9 117.5 87.7C117.3 87.5 115.9 86.8 115.5 86.5C114.5 85.8 113.6 85 112.6 84.2C108.6 81.2 106.7 77.2 107.2 72.1C107.7 66.9 111.4 61.6 115 58C119 54 124.6 52 129.9 50.5C136.2 48.6 142.7 48.5 149 46.8C151.7 46.1 154.1 45.3 156 43.2C156.4 42.7 159 38.3 159.3 38.5C161 39.5 161 59.7 161 59.7C161.7 61 168.5 71.2 168.2 72.7C167.9 74.2 166.8 74.9 165.5 75.9C162.2 78.7 158.8 81.3 155.4 83.9C153.7 85.3 151.9 86.6 150.1 87.9C148 89.4 147.2 89.5 147.8 92C148.2 93.8 148.8 95.5 149.2 97.4C149.6 99.3 149.6 101.2 150.5 102.9C147 111.5 140.8 118.9 137.3 127.5H131.6Z" fill="#FEA902"/><path d="M50.9 78.6C52.6 77.7 58.6 73.3 60.1 72C63.2 69.2 66.6 67.1 70.6 65.7C74.3 64.4 90.2 61 87.1 66.4C87.6 75.2 69.5 106.8 67.7 103.8C65.3 99.7 61.3 90.5 60.7 89.1C54.5 96.5 53.8 102.6 53.6 109.7C49.6 105.2 49 101.6 48.5 99.6C46.6 103.4 45.3 112.7 51.2 122.6C48.4 121.2 45.9 116.9 44.3 114.3C37.3 104.8 39.1 86.6 50.9 78.6Z" fill="#F1ECF0"/><path d="M167.9 74.1C161.7 79.2 155.4 84.8 148.4 88.9 147.4 89.5 145.4 89.3 144.8 90.4 144.2 91.5 145.7 101.5 145 102.5 142.7 102.5 140.7 102.1 139.4 102.1 138 102.1 136.2 102.9 134.8 103.2 131.4 104.1 128.8 106 126 108.2 122.9 110.6 120.1 113.2 117.5 116.1 114.9 119 112.8 122.6 109.9 125.1 109 122.3 110.1 117.9 110.6 115 111.1 111.6 111.7 108.1 112.6 104.8 113.4 101.7 114.2 98.5 115.2 95.4 115.7 93.9 116.3 92.4 116.9 91 117.7 89.1 118.2 90.1 116.5 88.8 111.4 84.7 105.4 80.4 100.8 75.7 99.4 74.3 99.4 74.3 100.9 73 102.1 72 103.5 71.3 104.8 70.5 107.3 69.1 110 68 112.8 67.2 115.6 66.4 117.9 66.1 120.7 66.3 122.6 66.5 127.2 68 127.2 68 128.9 64.9 129 64.9 129.5 64.3 130.3 63.2 131.5 62.2 132.6 61.4 135.1 59.6 138.4 59 141.5 59.9 143.6 60.5 147.2 62.5 148.5 64.4 150 66.5 149.8 68.8 151.4 68.1 152.8 67.8 154.3 67.4 155.8 67.5 157.1 67.6 158.7 68.4 160 68.9 162.8 70.1 165.5 71.8 167.8 73.8V74.1H167.9ZM159.5 53.5 159.2 46C159.1 44.5 158.3 40.8 159.4 39.6 162.9 35.9 163.6 43.4 163.6 45 163.7 46.7 163 49.1 163.6 50.4 164.4 52.2 165 53.2 164 55.3 163.7 56 161.7 59.3 160.8 59.3 159.5 59.3 159.4 54.3 159.3 53.5H159.5Z" fill="#FEEEE2"/><path d="M87.3 93C87.7 91.3 88.8 90.1 90 88.9 91.5 87.4 91.9 86.8 93 88.8 94 90.5 94.8 92.2 95.7 93.9 96.7 95.8 98.3 97.3 99.4 99.2 100.6 101.3 99.8 101.6 98.2 103.2 97.7 103.7 95.1 106.2 94.8 106.9 94.6 107.5 89.8 102.9 88.1 100.4 88.3 102.7 89.4 105.9 90.1 107.9 87.6 107.6 80.1 102.6 77.3 96.9 75.6 100.2 75.6 109.6 75.6 112.9 67.6 107.7 63.5 96.4 62.4 93.3 62.6 90.2 63.2 85.4 64.1 82.4 62.4 83.2 59.8 85.6 56.1 90.7 57.1 78.8 72.4 65.2 86.9 64.2 88.4 64.1 87.1 70 87 71.4 86.6 78.5 86.6 85.6 86.6 92.7 87 92.9 87.2 93 87.3 93ZM109.2 126.1C109.7 119.1 110.5 112 112.3 105.2 113.2 102 113.9 98.7 115 95.5 115.5 94 118.5 89.9 116.4 88.8 118.1 89.2 117.6 90.3 117.6 91.7 117.5 93.7 117.7 95.6 118.3 97.5 119.4 101.5 121.9 104.7 123.6 108.5 124.4 110.4 124.2 110.1 122.5 111.5 120.9 112.9 119.4 114.4 118 115.9 115 119.2 112.2 122.7 109.4 126.1H109.2ZM109.1 49.4C108.1 46.4 106.8 43.5 106.5 40.4 106.3 38.9 105.9 34.3 107.9 33.6 110 32.9 112.5 37.9 113.3 39.3 114.7 41.7 116.4 43.6 115.7 46.5 114.9 49.5 113.4 52.4 112.3 55.3 111.7 56.9 110.6 60 109.5 60.2 109 60.3 105.3 53.8 104.9 52 104.6 50.6 104.1 49.1 104.7 48.5 105.4 47.8 107.4 48.3 108.8 49.5L109.1 49.4ZM109.5 82C107.9 80.8 106.4 79.6 104.9 78.3 103.9 77.4 101 75.7 100.6 74.5 100 73.1 101.5 72.7 102.8 71.9 104.3 71 106 69.5 107.7 69.1 107.6 71.2 107.2 73.3 107.3 75.4 107.4 77.7 108.6 79.8 109.5 82Z" fill="#E0AF70"/><path d="M166.8 127.8H136.8C136 127.8 155.4 93.3 159.1 88C162.4 83.1 168.8 83.1 174.1 82.9C177.2 82.8 188.7 81.1 189.7 85C190.3 87.6 188.4 90.9 187.4 93.1C186.7 94.8 180 107.2 180.2 108.1C180.4 109.1 177.7 107.7 175.1 107.4C171.9 107 167.6 108.2 165.5 110.5C163.7 112.4 162.1 118 162.4 120.5C163 126 166.9 127.8 166.8 127.8Z" fill="#634FCE"/><path d="M137 127.7C140.7 119.5 145.3 111.7 149.8 103.9C152.1 100 154.4 96 156.7 92.1C158.1 89.7 160.7 83.2 164.5 84C163.7 87.5 160.8 91.2 159.1 94.3L153.1 105.4C149.1 112.8 145 120.3 141 127.7H137Z" fill="#B4FEE3"/><path d="M184.4 90.3C183.8 91.4 183.2 93.9 181.7 94.2C179.5 94.7 179.5 93 179.8 91.7C180.3 89.1 183.5 85.9 184.1 90.2C184.2 90.2 184.3 90.3 184.4 90.3Z" fill="#2E2C7E"/><path d="M189 82.8C188.5 82.6 188.2 82.2 187.6 81.7C186.7 81.8 185.6 81.9 184.5 81.9C180 82 175.4 81.9 170.9 82C168.7 82 166.4 82.1 164.2 82.5C162 82.9 160.2 84.2 158.7 85.9C158.7 85.9 158.7 86 158.6 86C156.4 89.7 154.3 93.5 152.1 97.2C151.6 98.1 151.1 98.9 150.6 100C149.4 96.7 149.3 93.2 147.9 90.2C148 90.1 148.1 89.9 148.2 89.8C150.7 88 153.3 86.2 155.8 84.4C158.3 82.6 160.7 80.7 163.2 78.9C165.4 77.2 167.7 75.6 169.5 73.3C169.3 72.5 169.3 71.7 168.9 71.1C167.7 69 166.4 67 165.1 64.9C164.1 63.3 163.1 61.6 162.2 60.1C163.1 58.7 163.9 57.4 164.6 56.1C165.7 54 165.3 51.3 163.7 49.6C164.1 47 164.5 44.3 163.9 41.6C163.4 39 162.4 37.9 159.9 37.5C159.8 37.2 159.7 37 159.7 36.7C159.4 34.9 159.2 33.1 158.9 31.4C158.6 29.5 158.3 27.5 156.1 26.4C155.7 26.7 155.1 26.9 154.7 27.3C153.9 28.1 153.2 29 152.4 29.8C148.8 33.2 145.9 37.3 142.8 41.1C141.9 42.2 141 43.3 140.2 44.5C136.4 44.4 132.7 43.4 128.9 44.2C127.7 41.4 126.4 38.7 125.2 35.9C123.7 32.4 121.6 29.2 119.4 26C118.8 25.1 117.9 24.4 116.7 24.1C116.5 24.4 116.2 24.6 116 25C114.9 27.4 113.8 29.9 112.7 32.3C112.3 33.1 112.1 33.9 111.8 34.7C111.1 34.1 110.5 33.5 109.9 33.2C107.8 32 106 32.8 105.4 34.8C105.1 35.7 105 36.6 105 37.5C104.9 40.3 105.5 43.1 106.4 45.8C106.6 46.2 106.7 46.7 106.8 47.2C104.9 46.8 103.9 47.3 103.6 48.8C103.4 49.8 103.3 50.8 103.4 51.8C103.5 52.9 103.9 53.9 104.2 55C104.5 55.8 104.5 56.5 104.1 57.3C102.7 60.8 101.3 64.4 99.9 68C99.2 69.9 98.5 71.9 97.7 73.9C102.9 78.5 108 83.1 113.1 87.6C108.9 91.6 104.6 95.7 100.2 99.8L99.8 99.4C98.1 96.9 96.5 94.4 94.8 91.9C93.9 90.5 93 89 92.6 87.3C92.4 86.7 91.7 86.2 91.2 85.6C89.3 86.8 88.5 88.6 87.1 90.2V83.8C87.1 79.3 87.3 74.7 87.8 70.2C88 68.1 88.1 66 88.3 64C87.3 63.3 86 63 84.2 62.8C77.9 62.4 72 63.6 66.5 66.7C62 69.3 57.7 72.2 54.4 76C52.7 76.8 51.1 77.3 49.7 78.3C48 79.5 46.3 80.9 45 82.6C43.2 85.1 41.5 87.6 40.6 90.6C38.8 96 38.5 101.5 39.8 107C41.3 113.2 44.3 118.7 49.1 123C51.1 124.8 53.4 126.2 55.5 127.8H59.3C55.5 125.4 51.7 122.9 48.7 119.5C45.3 115.7 43.1 111.2 41.8 106.4C40.8 102.5 40.9 98.6 41.7 94.7C42.8 89.4 45.1 84.9 49.2 81.3C49.6 80.9 50 80.5 50.5 80.1C50.7 79.9 51 79.7 51.2 79.5L51.4 79.7C49.6 81.8 48.6 84.3 48.1 87C48.5 86.9 48.8 86.8 49 86.6C49.4 86.1 49.8 85.5 50.2 85C53.6 80 57.4 75.3 62.5 71.8C67.2 68.6 72 65.9 77.8 65.2C80 65 82.2 64.9 84.4 64.8C85 64.8 85.6 65 86.2 65.2C86.2 65.8 86.1 66.3 86.1 66.8C85.8 70.1 85.3 73.5 85.2 76.8C85 80.9 85 85 85 89.1C85 91.1 85.1 93.2 85.7 95.2C85.9 95.9 86.1 96.7 87.2 96.8C87.4 96.3 87.5 95.8 87.6 95.3C88.1 92.9 89 90.6 91 88.7C93 93.4 95.8 97.5 98.8 101.4C96.8 103.7 94.8 106.1 92.8 108.6C90.5 111.5 88.3 114.4 86 117.3C84.7 119 83.2 120.6 81.9 122.2C81.6 122.6 81.1 123 81.7 123.8C92.4 111.6 102.9 99.4 115 88.7C115.7 89.2 116.3 89.7 116.9 90.1C116.2 91.7 115.4 93.2 114.8 94.8C114.2 96.4 113.6 98 113.2 99.6C111.1 107.4 109.7 115.3 108.9 123.3C108.8 124.4 108.5 125.4 108.3 126.5C108.2 126.8 108.4 127.2 108.5 127.6C108.6 127.6 108.7 127.6 108.8 127.7C109 127.4 109.3 127.2 109.5 126.9C110.2 126 110.9 125 111.6 124.1C116 118.5 120.7 113.3 126.3 108.8C129.5 106.2 133 104.1 137.1 103.3C138.5 103 139.9 102.7 141.3 102.8C145.1 102.9 147.1 104.9 147.6 107.4C147.3 107.9 146.9 108.5 146.6 109.1C144.1 106.1 138.6 104.9 137.4 107.1H138.7C139.4 107.1 140.1 107 140.9 107C143.3 107.1 145.3 108.5 145.9 110.4C144.5 112.8 143.1 115.3 141.7 117.8C139.8 121.2 138 124.6 136.2 128H137.5C138.7 125.7 139.8 123.3 141 121.1C143.4 116.8 145.9 112.6 148.3 108.4C150 105.4 151.7 102.4 153.4 99.3C155.4 95.7 157.4 92 159.5 88.4C160.5 86.6 160.6 86.5 163.7 84.9C163.6 85.3 163.5 85.5 163.4 85.7C161.3 89.3 159.2 93 157.1 96.6C155 100.2 153.1 103.9 151 107.5L141.4 124.9C140.9 125.8 140.6 126.9 140.2 127.9H141.2C142.1 126.1 143 124.2 144 122.4C148 115.2 152 108.1 156 100.9C158.8 95.9 161.7 90.9 164.4 85.8C165 84.8 165.8 84.4 166.9 84.4L184.9 84.1C185.6 84.1 186.3 84 187.2 83.9C188.1 84.4 188.5 85.6 188.9 86.6C187.2 90.2 185.5 93.8 183.9 97.4C182.3 101 179.9 104.1 178.7 108C178.4 107.9 178.1 107.7 177.8 107.6C174.4 106.3 171.1 106.3 167.9 108C166.8 108.6 165.8 109.5 165.1 110.5C163.1 113.2 161.8 116.2 161.7 119.6C161.6 122.2 162.4 124.6 164.5 126.4C165.1 126.9 165.6 127.4 166.1 127.9H167.9C167.4 127.5 166.9 127.1 166.3 126.7C163.7 124.6 162.3 122 162.9 118.4C164.6 118.7 166.3 119 168.1 119.4L169.6 119.7C170.2 119.8 170.6 119.7 170.9 119.1C168.4 118.1 165.7 118.1 163.2 117.4C163.5 115.7 164.2 114.2 165 112.8C165.1 112.6 165.3 112.4 165.4 112.2C166.2 110.6 166.8 110 169.4 110.7C170.8 111.1 172.2 111.7 173.3 112.7C173.8 113.1 174.4 113.6 175.1 112.8C173.2 110.9 171 109.8 168.3 109.2C168.9 108.9 169.4 108.6 170 108.4C173.5 107.5 176.7 107.9 179.8 109.9C182.1 111.4 182.9 113.6 183.3 116.1C183.7 119.4 183.1 122.5 181.3 125.3C180.7 126.3 179.8 127.1 179 127.9H182.1C185.3 123.9 186.3 119.3 185.3 114.3C185 112.7 184.5 111.2 183.3 110C182.7 109.4 182 108.9 181.2 108.2C181.3 107.8 181.4 107.5 181.6 107.2C182.7 104.9 183.9 102.6 185 100.3L189.2 91.3C189.8 90 190.7 88.9 190.9 87.4C191 86.9 191.2 86.4 191.4 85.7C191.1 84.6 190.3 83.5 189 82.8ZM160.4 39.6C162.1 40.5 162.5 42.2 162.7 43.8C162.8 45.3 162.5 46.9 162.3 48.4C162.2 49 161.8 49.6 161.5 50.4C161.9 50.8 162.5 51.1 162.9 51.6C163.4 52.2 163.8 53 163.5 53.9C163.1 55.4 162.5 56.8 161.4 57.9C160.6 57.8 160.5 57.3 160.5 56.8C160.4 54.3 160.3 51.8 160.2 49.4C160.1 47.3 159.8 45.2 159.7 43.1C159.7 42.6 159.6 42 159.6 41.5C159.3 40.7 159.6 40.1 160.4 39.6ZM105.1 49.1C107.4 49.3 108.2 51.4 109.7 52.6C109.9 52.5 110.1 52.3 110.4 52.1C109.8 50.3 109.2 48.5 108.5 46.8C107.4 44.1 106.8 41.3 106.6 38.5C106.5 37.2 106.6 35.9 107.5 34.8C108.6 34.8 109.5 35.3 110.1 36.1C110.9 37.2 111.7 38.3 112.5 39.5C113.5 41.1 114.5 42.8 115.5 44.4C114.1 49.7 112.2 54.8 109.4 59.7C106.9 56.4 104.4 53.5 105.1 49.1ZM143.2 101.8C138.8 101.1 134.7 102.3 130.9 104.3C125.2 107.4 120.8 112 116.4 116.6C114.3 118.9 112.3 121.3 110.3 123.7C110.2 123.8 110 124 109.8 124.1C111.3 112.8 112.6 101.4 117.6 90.8C119.5 91.6 120.6 93.5 122.9 93.4C123 93.2 123.2 92.9 123.4 92.4C115 87 107.7 80.4 100.4 73.7C105.1 69.6 114.9 64.5 126.8 68.3C126.7 68.9 126.6 69.4 126.6 70C126.3 74.1 127.6 76.7 131.5 78.9C134.8 80.7 138.2 81.3 141.9 80.6C142.6 80.5 143.3 80.5 143.9 80.3C144.5 80.1 145 79.7 145.6 79.5L145.5 79.2C145.2 79.2 144.9 79.2 144.6 79.3C142.9 79.5 141.3 79.9 139.6 80C136.2 80.2 133.3 79.1 130.5 77.2C128.5 75.8 127.7 73.9 127.6 71.7C127.5 70.4 127.6 69.1 127.6 67.7C118.1 64.4 109.2 66.2 101 72.2C102.4 67.2 104.1 62.5 106.3 57.8C107.5 58.9 108 60.7 109.9 60.9C111.1 59.2 112.1 57.4 112.9 55.4C113.9 53 114.8 50.5 115.7 48C116 47.2 116.3 46.3 116.4 45.5C116.5 44.9 116.4 44.1 116.1 43.6C115.5 42.3 114.6 41.2 113.9 39.9C113.6 39.4 113.4 38.9 113.1 38.3C114.4 34.6 115.6 30.7 117.5 27.1C119.6 30 121.5 32.8 122.9 35.9C124.1 38.7 125.4 41.6 126.7 44.4C127 45.1 127.5 45.7 128.1 46.5H131.1C134.7 46.4 138.3 46.7 141.9 47.2C143.1 47.4 144.3 47.3 145.5 47.4C145.9 47.4 146.3 47.3 146.9 47.2C146 45.4 144.4 45.5 142.7 45.2C144.9 42.4 147 39.7 149.2 37.1C151.4 34.5 153.7 31.9 156.2 29.1C156.5 30.2 156.8 31.1 157 32C157.6 35.8 158.2 39.6 158.6 43.5C159 48 159.2 52.6 159.3 57.2C159.4 58.9 159.8 60.4 160.7 61.9C162.7 64.9 164.5 68 166.4 71.1C166.8 71.7 167.1 72.3 167.5 73.2C165.6 71.9 163.9 70.8 162.2 69.7C160.9 68.9 159.5 68.3 158.1 67.7C155.9 66.7 153.7 67.2 151.5 67.8L150.6 68.1C149.8 65.8 148.6 63.7 146.7 62.2C147.2 59.9 147 58.7 145.7 58.4C145.1 58.3 144.5 58.6 144.3 59.1C144.1 59.4 144 59.8 143.8 60.2C139.7 58.8 135.7 58.8 131.8 61.7C132 60.6 132.1 59.6 131.8 58.7C131.6 58.2 131.1 57.8 130.6 57.9C129.9 57.9 129.6 58.3 129.3 58.9C128.6 60.7 128.8 61.7 130.2 62.8C129.3 64.1 128.2 65.2 127.9 66.7L128.2 66.9C128.5 66.5 128.9 66.1 129.2 65.7C130.7 63.6 132.7 62.1 135.1 61.1C137.4 60.2 139.7 60.2 142 60.9C146 62.3 148.7 65 149.8 69.1C150.3 70.9 150 72.7 149.7 74.5C149.6 74.9 149.6 75.3 149.6 75.7C151.3 73.8 150.9 71.5 151 69.1C152.8 68.4 154.6 67.8 156.6 68.3C160.4 69.3 163.6 71.6 166.9 74.1C162.4 77.5 158.1 80.7 153.8 84C149.5 87.3 144.9 90 140.3 92.8C141.7 93.2 142.7 92.1 144.1 91.8C144.3 95.4 144.5 98.9 144.7 102.6C144.2 102 143.7 101.9 143.2 101.8ZM148.7 105.6C147.6 104.5 146.6 103.4 145.5 102.3C145.7 101.2 145.4 99.9 145.4 98.6C145.4 97.3 145.3 96 145.2 94.7C145.1 93.4 145.1 92 145 90.6C145.2 90.5 145.5 90.4 145.7 90.2C145.8 90.4 145.9 90.5 146 90.7L148.1 99.1C148.4 100.1 148.5 101.2 148.8 102.3C149 102.8 149.4 103.1 149.9 103.7C149.4 104.4 149 105.1 148.7 105.6Z" fill="#000"/><path d="M181.5 94.9C182.2 94.4 183.1 93.9 183.5 93.3 184.5 91.9 184.8 90.2 184.6 88.5 183.1 87.2 181.6 87.3 180.5 88.7 180 89.4 179.6 90.2 179.4 91.1 179.2 91.9 179.1 92.7 179.1 93.6 179.1 94.7 180.6 95.4 181.5 94.9ZM182.1 88.4C183.5 88.7 183.7 89 183.4 90.4 183.2 91.5 182.9 92.5 182.1 93.3 181.6 93.8 181 94.2 180 93.7 179.8 91.6 180.7 89.9 182.1 88.4ZM146.6 69.2C145.3 70.3 143.9 70.7 142.4 70.8 138.9 70.9 136 69.8 133.7 67.1 133.3 66.7 132.9 66.3 132.1 66.7 132.5 67.3 132.9 67.9 133.4 68.4 136.2 71.1 139.6 71.9 143.4 71.6 144.4 71.5 145.4 71.4 146.2 70.7 146.6 70.4 147 70 146.6 69.2ZM139.8 65.3C140.5 65.9 141.3 66 142.1 65.4 142.9 64.9 143.6 64.3 143.2 63 141.5 62.5 139.8 61.6 138 63 138.2 64.2 139.1 64.7 139.8 65.3Z" fill="#000"/><mask id="a" style="mask-type:luminance" maskUnits="userSpaceOnUse" x="1" y="0" width="236" height="130"><path d="M237 0H1V130H237V0Z" fill="#fff"/></mask><g mask="url(#a)"><path opacity=".98" d="M55.6804-.0922546C55.9894.160377 56.6075.658622 56.9096.911254 55.8911 2.98845 56.1791 6.08319 53.9877 7.31126 53.798 4.70073 55.0834 2.3709 55.6804-.0922546ZM28.7791 5.05161C31.3428 6.70073 33.3025 9.17792 35.5641 11.22 34.9882 11.206 33.8292 11.185 33.2533 11.1779 31.4903 9.50072 29.5166 7.90775 28.4209 5.67617L28.7791 5.05161ZM32.8738 23.6551C32.621 14.4692 43.831 8.39897 51.8311 12.0692 56.7899 13.9428 60.639 18.4621 61.3765 23.7534 62.6337 30.3358 58.5037 37.2832 52.2034 39.5078 51.9786 40.5744 51.7538 41.6411 51.515 42.7078 53.6924 43.0797 56.1648 43.7113 57.106 45.9569 57.8786 46.7709 57.5344 47.8657 56.5722 48.2797 52.7582 50.9323 47.961 49.4516 43.7959 48.7078 41.2462 51.3113 37.1092 51.9078 33.8221 50.4692 32.4946 49.9499 31.434 48.9183 30.1065 48.4411 26.5946 51.3744 21.2354 51.8657 17.3723 49.3043 14.5557 47.2341 11.4372 49.9639 8.38182 49.4025 5.47396 49.4797 2.35539 47.7674 1.61789 44.806 1.08408 43.0095 2.72765 41.592 3.67586 40.2657 4.70134 38.799 6.58372 38.7007 8.1992 38.5043 9.02801 36.4832 10.1167 34.4481 11.9288 33.1429 14.2116 31.9639 16.8877 32.8411 18.9667 34.0411 19.1844 33.6481 19.634 32.8481 19.8517 32.4551 21.5444 31.8165 23.3496 31.7744 25.1196 32.0271 24.9861 27.8095 28.484 23.5779 32.8738 23.6551ZM38.823 15.0446C36.3998 17.0165 33.8572 20.1534 34.6438 23.4657 34.7071 23.4937 34.8194 23.5428 34.8756 23.5639 37.1232 24.5253 39.4271 25.9499 40.586 28.1814 41.3937 30.4481 41.7379 33.0025 40.895 35.3113 43.234 33.2621 46.6475 33.1148 49.4571 34.1464 51.1709 34.6376 51.3745 37.213 53.278 37.22 59.6837 34.5464 61.6925 25.9078 58.5599 20.0621 55.3571 12.8411 45.0953 10.1323 38.823 15.0446ZM29.6499 25.9499C27.7886 27.6902 26.3557 30.006 26.5735 32.6446 27.0933 33.199 27.606 33.7534 28.1117 34.3148 27.5077 34.3499 26.2925 34.413 25.6885 34.4481 24.1222 33.0797 22.1485 32.6376 20.2942 33.7744 20.3082 34.2165 20.3363 35.0867 20.3504 35.5218 20.5681 35.8797 21.0036 36.5955 21.2213 36.9534 19.4162 36.7288 17.9061 35.8306 16.8104 34.392 15.2722 34.1674 13.7129 34.0832 12.1817 34.399 11.1913 36.0621 9.74444 37.5639 9.68825 39.62 10.489 40.42 11.2616 41.2411 12.0272 42.0832 11.5004 42.0902 10.4468 42.1043 9.92003 42.1113 9.31598 41.3674 8.71896 40.6306 8.12194 39.8937 6.40813 39.8025 4.91205 40.6306 4.08324 42.1253 3.63372 42.799 3.17717 43.4657 2.70658 44.1253 3.28955 45.6762 4.44146 46.806 5.81813 47.6762 9.3792 48.5885 12.7366 47.1639 16.2415 46.8341 20.0062 50.0832 26.2715 50.4481 29.7131 46.5464 32.7896 48.2236 35.9643 50.6586 39.701 49.5639 40.0592 49.3744 40.7686 49.0025 41.1198 48.813 42.1874 47.9639 43.2761 46.2727 44.8424 47.0516 48.1998 48.3078 51.9294 48.8692 55.35 47.4937 55.35 47.1007 55.35 46.3148 55.35 45.9288L55.3009 45.9358C53.9804 44.3288 51.501 43.6692 49.6818 44.799 50.4193 42.2446 50.8829 39.5148 50.4193 36.8621 49.1129 34.4902 46.0786 35.1358 43.845 35.0867 42.061 36.0692 40.4596 37.4235 39.8415 39.4446 38.233 37.6692 38.9213 35.4867 39.8836 33.606 39.3287 31.4797 39.4271 29.0727 37.9029 27.3253 35.9432 24.8551 32.3751 25.3674 29.6499 25.9499ZM65.2324 20.4411C67.4168 19.1078 69.8822 18.3358 72.3616 17.7744 72.172 19.5569 70.1421 19.7604 68.8216 20.3639 67.6627 20.9042 66.3843 21.1709 65.2324 20.4411ZM218.962 21.5709C220.444 20.7218 220.47 19.933 222.282 19.7365 222.61 20.2617 222.603 20.1874 222.882 20.6727 224.764 23.9498 224.806 27.992 224.567 31.6691 224.385 35.4095 221.667 38.413 218.555 40.1955 221.02 41.2972 223.324 43.1007 224.553 45.5639 221.119 47.5288 216.694 48.7148 213.013 46.6867 213.217 49.3885 211.644 51.5428 209.677 53.1849 209.459 53.0025 209.031 52.6446 208.813 52.4691 208.033 50.2516 207.507 47.9288 207.738 45.5709 204.866 46.9744 201.642 45.8586 198.895 44.7007 195.053 42.7639 193.304 38.5814 190.979 35.206 193.185 33.0235 196.549 33.2551 199.359 33.8165 203.004 35.2902 205.687 38.3148 208.672 40.7569 208.349 39.9288 208.314 38.9113 207.591 38.2867 205.006 35.8657 203.173 32.7148 201.845 29.4727L202.765 28.9604C204.739 31.4095 205.554 34.6797 208.047 36.7639 207.879 35.7253 207.282 34.8691 206.685 34.0411 206.242 31.6341 205.013 29.0586 205.898 26.6376 206.13 26.6656 206.593 26.7218 206.825 26.7499 207.169 29.1709 207.492 31.599 208.118 33.9709 210.541 28.9884 214.186 24.4691 218.962 21.5709ZM218.632 23.5849 218.336 23.972C217.598 24.405 216.872 25.2072 216.399 25.8095 216.09 26.0551 215.464 26.5393 215.148 26.7849 213.147 28.2656 211.924 30.4691 210.794 32.6306 209.206 33.8867 209.038 36.1253 209.431 37.9709 209.649 39.5078 210.997 41.3323 209.206 42.4481 205.175 40.8762 202.871 36.5604 198.706 35.199 196.725 34.8341 194.702 35.0376 192.714 35.1779 193.122 35.8376 193.571 36.4692 194.049 37.0867 194.772 38.4692 195.587 39.8165 196.599 41.0095L196.577 41.206C198.46 43.0306 200.827 44.0551 203.327 44.7288 204.226 44.7779 205.132 44.82 206.046 44.8481 207.443 43.9569 208.96 43.1358 210.688 43.4586 208.82 45.1499 208.448 48.7007 210.204 50.5464 213.069 49.0586 209.684 44.7218 212.493 43.6341 212.866 45.1358 214.404 45.7464 215.717 46.1885 218.302 46.9042 220.662 45.0867 223.261 45.3534 221.976 44.3499 220.753 43.2621 219.559 42.1464 217.052 41.185 214.453 41.6692 212.17 42.9744 211.714 42.9183 210.808 42.813 210.351 42.7639 212.613 40.2376 216.413 40.3709 218.955 38.1744L219.237 37.9709C219.903 37.9709 219.864 37.6178 220.609 36.7639L221.02 36.4621C221.589 35.7885 221.947 35.0446 222.088 34.2376 223.71 31.4797 223.682 27.606 222.741 24.7288 222.671 23.5428 222.587 22.2165 221.322 21.7393 220.381 22.3007 219.51 22.9534 218.632 23.5849ZM63.8906 36.3218C64.4244 35.992 64.9653 35.6621 65.5061 35.3323 66.6721 37.4516 69.7625 37.7183 70.4087 40.1814 67.8099 39.7674 65.8151 37.9639 63.8906 36.3218ZM222.201 50.392C223.037 51.5639 223.76 52.8271 224.189 54.2165 222.341 54.2235 220.199 51.8376 222.201 50.392ZM226.12 57.3393C226.668 57.0446 227.216 56.7569 227.771 56.4551 228.227 57.9288 229.021 59.2551 229.815 60.5674 227.869 60.5393 227.082 58.6867 226.12 57.3393ZM230.62 63.2446C232.278 63.9113 232.243 65.813 232.552 67.2797 231.077 66.4657 230.641 64.8306 230.62 63.2446Z" fill="#020202"/><path d="M215.431 107.411C215.101 107.362 213.935 106.575 213.598 106.533C209.162 112.959 209.162 124.617 209.162 127.233C213.624 127.589 216.542 125.769 219 124.958C224.145 122.191 225.276 114.793 225.629 114.191C219.739 110.229 215.431 116.143 211.778 120.75C212.797 117.886 212.525 119.962 213.2 117.849C214.063 115.407 213.598 109.319 215.431 107.411Z" fill="#6BCC5E"/><path opacity=".98" d="M215.1 83.7113C217.347 82.8551 220.311 82.8621 221.976 84.8481 223.823 86.9323 223.549 89.9148 223.683 92.4972 226.043 90.3148 228.529 88.1253 231.718 87.2832 233.944 88.2165 236.656 89.6902 236.178 92.5814 236.634 95.4797 234.001 97.192 231.584 97.8657 233.748 98.2235 235.237 99.8446 236.754 101.276 237.92 104.006 236.311 107.577 233.214 107.928 229.793 109.198 226.176 107.627 223.95 104.96 223.17 106.272 222.278 107.514 221.28 108.672 219.152 108.946 216.919 109.921 214.889 108.742 214.341 111.388 214.376 114.132 213.463 116.707 216.378 113.135 221.112 112.279 225.382 111.472 226.787 116.069 225.045 121.332 221.4 124.42 217.502 127.339 212.536 129.416 207.598 128.293 207.809 125.753 207.76 123.205 207.591 120.665 205.041 121.03 202.52 121.767 200.469 123.374 200.251 123.29 199.802 123.128 199.584 123.044 200.209 120.876 200.876 118.721 201.593 116.581 197.638 117.234 194.759 120.104 191.577 122.258 191.661 119.879 192.413 117.62 193.199 115.402 190.334 116.609 187.861 118.504 185.312 120.237L185.326 118.904 185.34 118.581C188.76 116.048 192.399 113.128 196.824 112.834 195.243 114.567 194.485 116.805 193.557 118.911 195.847 116.813 198.783 115.781 201.572 114.553 202.702 114.188 202.956 114.275 204.019 114.069 202.829 116.016 202.344 118.42 201.874 120.805 204.156 119.676 206.643 119.044 209.185 118.806 209.635 112.216 210.611 105.339 214.285 99.6832 211.911 99.6341 209.277 100.139 207.177 98.7428 206.257 97.999 205.617 96.9814 204.873 96.0762 204.894 94.9113 204.859 93.7464 204.992 92.5885 205.554 91.6762 206.58 91.213 207.422 90.6025 208.511 90.3849 209.6 90.1464 210.689 89.8937 211.602 90.2025 212.522 90.5113 213.442 90.8341 212.234 88.4551 212.796 85.199 215.1 83.7113ZM215.844 84.9744C215.078 85.62 214.699 86.5814 214.158 87.3955 214.404 90.0972 216.111 92.2025 217.705 94.2656L217.733 94.5253C218.597 95.3744 219.995 95.9499 220.438 97.1007 219.827 97.606 219.18 98.0481 218.611 98.5955 217.052 99.213 215.718 100.314 214.84 101.753 213.92 102.981 214.608 104.581 214.587 105.977 214.847 106.279 215.366 106.869 215.626 107.17 216.097 107.36 217.038 107.732 217.509 107.921 218.647 107.648 219.798 107.423 220.957 107.227 221.87 105.563 223.268 103.598 221.828 101.795 221.618 100.37 221.035 98.9885 221.07 97.5499 221.4 95.7744 221.941 94.0411 222.243 92.2586 222.081 89.6832 222.046 86.9814 220.269 84.9113 218.794 84.8411 217.298 84.6656 215.844 84.9744ZM230.229 89.6341C226.633 90.6235 225.122 94.1183 222.945 96.7148 222.657 97.4095 222.369 98.1113 222.095 98.813 222.671 99.6551 223.219 100.518 223.69 101.423 224.216 102.405 224.764 103.374 225.333 104.335L225.628 104.104C226.668 104.988 227.532 106.286 228.915 106.651 231.549 106.995 234.949 106.532 235.869 103.598 234.577 99.3814 229.73 98.8621 225.993 98.9253 225.375 98.9955 224.139 99.1358 223.521 99.206 223.535 98.5674 223.556 97.9288 223.584 97.2902 224.68 97.3463 225.797 97.3955 226.907 97.4797 229.175 96.792 231.858 97.0727 233.621 95.213 234.956 94.3358 234.555 92.5534 234.562 91.206 233.923 89.6972 231.704 88.6025 230.229 89.6341ZM206.58 92.9042C206.58 93.9078 206.587 94.9113 206.587 95.9218 207.725 96.9464 208.855 98.4341 210.59 98.2376 212.634 98.1183 214.889 98.5955 216.75 97.5499 217.207 97.4656 218.12 97.3042 218.576 97.22 217.249 95.8095 215.935 94.392 214.713 92.8902 212.171 91.6972 209.045 91.3042 206.58 92.9042ZM211.932 110.546C211.257 116.062 209.171 121.416 209.326 127.016 211.384 127.086 213.456 126.932 215.409 126.23 216.574 125.318 218.002 124.933 219.56 124.104 222.678 121.577 224.308 117.711 224.371 113.746 220.655 113.227 217.396 115.5 214.713 117.774 213.617 119.437 212.894 121.395 211.222 122.623 211.075 121.037 211.791 119.683 212.725 118.483 211.37 114.784 213.498 110.883 213.351 107.072 212.571 108.083 211.981 109.241 211.932 110.546ZM17.611 93.22C18.3555 92.5253 19.0017 91.6481 19.978 91.2691 22.8016 94.2376 23.4126 98.5674 23.7217 102.476 23.1738 105.332 22.647 108.483 20.3713 110.532 20.4907 110.672 20.7295 110.967 20.8489 111.114 18.8893 115.255 21.453 119.648 22.6892 123.62 23.0755 123.486 23.8481 123.213 24.2344 123.072 25.7726 123.325 27.3319 123.465 28.8842 123.542 27.5426 122.005 26.1379 120.511 25.0632 118.77 28.7929 118.988 32.4382 120.048 36.0695 120.911 36.1608 118.055 34.2644 115.928 32.9369 113.605 35.6551 112.827 38.4366 114.349 40.5718 115.942 42.2645 117.346 45.261 118.139 46.7079 119.858 41.4103 119.858 39.2935 116.532 35.9431 114.925 36.7298 116.96 37.4251 119.037 38.0292 121.142 35.0932 122.581 31.9676 121.297 28.9263 121.156 30.0431 122.244 31.181 123.311 32.3188 124.377 29.6919 125.135 26.9456 125.248 24.2274 125.163 24.5716 125.318 25.2599 125.627 25.6041 125.788 26.3486 126.686 27.1282 127.556 27.95 128.391 27.1142 128.42 26.1379 128.714 25.4636 128.041 25.2739 127.907 24.9017 127.627 24.712 127.493 20.287 123.809 18.4679 117.725 18.8331 112.132 18.496 112.174 17.8287 112.265 17.4986 112.314 17.5618 114.855 17.3441 117.479 18.208 119.921 18.8823 122.034 20.2028 123.851 21.4179 125.683 20.87 125.711 19.7673 125.774 19.2194 125.802 17.5969 124.658 16.2975 123.121 14.661 121.998 12.4625 120.588 9.90584 119.886 7.37727 119.332 8.76096 122.09 10.0182 125.17 12.7575 126.883 14.8787 128.567 17.6953 128.279 20.2098 128.658 20.5188 128.862 21.1369 129.276 21.446 129.479 18.6224 130.251 15.6373 130.041 12.9191 129.002 8.44489 126.658 6.14811 121.844 5.41763 117.037 9.73727 117.942 14.1482 119.507 17.611 122.321 16.2343 119.311 15.9674 115.991 16.2273 112.728 8.8312 114.209 2.48168 106.216 3.2543 99.2832 4.19549 99.227 5.94441 100.258 6.28858 98.8411 6.75215 97.62 7.07525 96.3569 7.41239 95.1007 8.5081 94.1884 9.7162 93.4306 11.0226 92.8621 13.8111 93.4516 15.2229 95.7674 16.6768 97.9499 17.1123 96.399 17.4354 94.82 17.611 93.22ZM19.086 93.0516C18.0816 98.5253 17.625 104.23 19.0649 109.676 21.5583 107.598 22.1343 104.027 22.1203 100.96 21.4741 98.3077 21.6426 94.7077 19.086 93.0516ZM8.28335 96.3709C8.4168 97.3604 8.19204 98.4481 8.66263 99.3604 9.79347 100.279 11.2193 100.7 12.5398 101.269 13.9867 102.672 15.6092 103.914 16.8173 105.549 16.733 103.788 16.74 102.027 16.74 100.265 16.7681 99.6902 16.8173 98.5393 16.8454 97.9639 14.1482 99.2621 14.0148 95.2832 11.8304 94.792 10.3554 94.2446 9.34394 95.6341 8.28335 96.3709ZM4.81358 101.121C5.05239 103.984 6.39394 106.672 8.57132 108.553L8.50108 108.672C9.25965 109.29 10.0112 109.921 10.7557 110.56L10.2992 110.567C11.437 110.925 12.5819 111.262 13.7408 111.535 14.3238 111.156 14.9349 110.834 15.5741 110.56L16.4591 111.465C17.8708 111.255 19.6127 109.5 17.5829 108.791 17.3441 108.167 17.1052 107.542 16.8664 106.925 14.9349 106.356 14.1061 104.307 12.5047 103.248 10.4045 101.339 7.56692 100.763 4.81358 101.121Z" fill="#020202"/><path d="M38.8239 15.0446C45.0962 10.1323 55.3579 12.8411 58.5608 20.0621 61.6934 25.9077 59.6846 34.5463 53.2789 37.22 51.3754 37.213 51.1717 34.6376 49.4579 34.1463 46.6484 33.1148 43.2348 33.2621 40.8959 35.3113 41.7388 33.0025 41.3946 30.4481 40.5869 28.1814 39.4279 25.9498 37.1241 24.5253 34.8765 23.5639 34.8203 23.5428 34.7079 23.4937 34.6447 23.4656 33.858 20.1534 36.4007 17.0165 38.8239 15.0446ZM12.1826 98.2727C13.6365 99.0656 15.1607 99.7393 16.7411 100.265 16.7411 102.027 16.734 103.788 16.8183 105.549 15.6102 103.914 13.9877 102.672 12.5408 101.269 12.4004 100.272 12.295 99.2691 12.1826 98.2727ZM8.57219 108.553C9.19029 107.556 9.76624 106.279 11.1008 106.146 13.2992 106.939 15.3502 108.097 17.5837 108.791 19.6136 109.5 17.8717 111.255 16.4599 111.465L15.5749 110.56C13.9665 110.497 12.358 110.525 10.7566 110.56 10.0121 109.921 9.26052 109.29 8.50195 108.672L8.57219 108.553Z" fill="#FFF72C"/><path d="M218.633 23.5849C219.511 22.9534 220.382 22.3007 221.323 21.7393 222.587 22.2165 222.672 23.5428 222.742 24.7288 222.742 24.8621 222.919 25.1358 222.919 25.2692 223.444 25.8095 223.896 31.6057 222.215 34.3656 222.075 35.1726 221.59 35.7885 221.021 36.4621L220.648 37.0301C219.825 37.9709 219.943 37.657 219.551 37.9709L218.956 38.1744C216.413 40.3709 212.614 40.2376 210.352 42.7639 210.064 42.6797 209.495 42.5253 209.207 42.4481 210.998 41.3323 209.65 39.5077 209.432 37.9709 209.038 36.1253 209.207 33.8867 210.794 32.6306 212.916 31.2481 214.271 29.1148 215.149 26.7849 215.465 26.5393 216.09 26.0551 216.399 25.8095 217.134 24.7288 217.182 24.5711 218.298 23.9466L218.633 23.5849ZM212.171 42.9744C214.454 41.6692 217.052 41.1849 219.56 42.1463 220.754 43.2621 221.976 44.3499 223.262 45.3534 220.663 45.0867 218.303 46.9042 215.718 46.1885 214.404 45.7463 212.866 45.1358 212.494 43.6341 212.41 43.4656 212.255 43.1358 212.171 42.9744ZM2.70703 44.1253C3.17763 43.4656 3.63417 42.799 4.0837 42.1253 6.8862 42.4691 7.75013 46.0762 10.6158 46.0621 12.8424 45.9007 14.8793 44.813 17.0918 44.5393 19.1147 44.5884 21.0041 45.7183 23.062 45.4235 25.6679 45.1639 28.2667 44.4551 30.9006 44.8411 32.9375 45.0656 34.8129 45.9218 36.7514 46.5253 39.8841 47.8376 42.8832 44.9253 46.065 45.8656 49.1133 46.5113 52.246 46.6446 55.3013 45.9358L55.3505 45.9288C55.3505 46.3148 55.3505 47.1007 55.3505 47.4937 51.9299 48.8691 48.2002 48.3077 44.8429 47.0516 43.2766 46.2727 42.1879 47.9639 41.1202 48.813 40.7691 49.0025 40.0597 49.3744 39.7014 49.5639 35.9648 50.6586 32.79 48.2235 29.7136 46.5463 26.2719 50.4481 20.0067 50.0832 16.2419 46.8341 12.737 47.1639 9.37965 48.5884 5.81858 47.6762 4.44191 46.806 3.29001 45.6762 2.70703 44.1253Z" fill="#D4F2F7"/><path d="M210.794 32.6306C211.925 30.4692 213.147 28.2656 215.149 26.7849 214.271 29.1148 212.915 31.2481 210.794 32.6306ZM192.715 35.1779C194.703 35.0376 196.725 34.8341 198.706 35.199 202.871 36.5604 205.175 40.8762 209.207 42.4481 209.495 42.5253 210.064 42.6797 210.352 42.7639 210.808 42.813 211.714 42.9183 212.171 42.9744 212.255 43.1358 212.41 43.4656 212.494 43.6341 209.684 44.7218 213.07 49.0586 210.204 50.5463 208.448 48.7007 208.82 45.1498 210.689 43.4586 208.961 43.1358 207.444 43.9569 206.046 44.8481 205.133 44.82 204.227 44.7779 203.328 44.7288 200.827 44.0551 198.46 43.0305 196.578 41.206L196.599 41.0095C196.641 40.6727 196.119 40.6741 195.727 39.9688 194.63 38.5974 194.63 38.3231 194.049 37.0867 193.572 36.4691 193.122 35.8376 192.715 35.1779Z" fill="#BCE2E7"/><path d="M29.6506 25.9499C32.3759 25.3674 35.944 24.8551 37.9036 27.3253C39.4278 29.0727 39.3295 31.4797 39.8843 33.606C38.9221 35.4867 38.2338 37.6692 39.8422 39.4446C40.4603 37.4235 42.0617 36.0692 43.8458 35.0867C46.0793 35.1358 49.1136 34.4902 50.4201 36.8621C50.8836 39.5148 50.4201 42.2446 49.6826 44.799C51.5017 43.6691 53.9811 44.3288 55.3016 45.9358C52.2463 46.6446 49.1136 46.5113 46.0653 45.8656C42.8835 44.9253 39.8843 47.8376 36.7517 46.5253C34.8132 45.9218 32.9378 45.0656 30.9009 44.8411C28.267 44.4551 25.6682 45.1639 23.0623 45.4235C21.0043 45.7183 19.1149 44.5884 17.0921 44.5393C14.8796 44.813 12.8427 45.9007 10.6161 46.0621C7.75042 46.0762 6.88648 42.4692 4.08398 42.1253C4.91279 40.6306 6.40887 39.8025 8.12268 39.8937C8.7197 40.6306 9.31672 41.3674 9.92077 42.1113C10.4475 42.1042 11.5011 42.0902 12.0279 42.0832C11.2623 41.2411 10.4897 40.42 9.68899 39.62C9.74518 37.5639 11.1921 36.0621 12.1824 34.399C13.7136 34.0832 15.2729 34.1674 16.8111 34.392C17.9068 35.8306 19.417 36.7288 21.2221 36.9534C21.0043 36.5955 20.5689 35.8797 20.3511 35.5218C20.3371 35.0867 20.309 34.2165 20.2949 33.7744C22.1492 32.6376 24.1229 33.0797 25.6892 34.4481C26.2933 34.413 27.5084 34.3499 28.1124 34.3148C27.6067 33.7534 27.094 33.199 26.5742 32.6446C26.3565 30.006 27.7893 27.6902 29.6506 25.9499Z" fill="#fff"/><path opacity=".98" d="M215.845 84.9744C217.299 84.6657 218.795 84.8411 220.27 84.9113 222.047 86.9814 222.082 89.6832 222.244 92.2586 221.654 91.3534 221.071 90.4411 220.488 89.5288 219.371 89.5709 218.261 89.606 217.151 89.6481 217.341 91.185 217.531 92.7218 217.706 94.2657 216.112 92.2025 214.405 90.0972 214.159 87.3955 214.7 86.5814 215.079 85.62 215.845 84.9744ZM230.229 89.6341C231.704 88.6025 233.924 89.6972 234.563 91.206 234.556 92.5534 234.956 94.3358 233.622 95.213 231.859 97.0727 229.176 96.792 226.907 97.4797 228.445 96.2095 230.005 94.9744 231.536 93.6902 229.59 93.7393 227.666 93.9078 225.741 94.1534 226.844 92.785 228.235 91.7183 229.604 90.6376 229.759 90.385 230.075 89.8867 230.229 89.6341ZM206.58 92.9043C209.045 91.3043 212.171 91.6972 214.714 92.8902 215.936 94.392 217.249 95.8095 218.577 97.22 218.12 97.3042 217.207 97.4657 216.751 97.5499 214.889 98.5955 212.635 98.1183 210.591 98.2376 208.856 98.4341 207.725 96.9464 206.587 95.9218 206.587 94.9113 206.58 93.9078 206.58 92.9043ZM214.84 101.753C215.718 100.314 217.052 99.213 218.612 98.5955 217.986 100.391 217.46 102.223 216.933 104.048 218.928 104.132 220.979 103.879 221.829 101.795 223.268 103.598 221.871 105.563 220.958 107.227 219.799 107.423 218.647 107.648 217.509 107.921 217.038 107.732 216.097 107.36 215.626 107.17 215.367 106.869 214.847 106.279 214.587 105.977 214.608 104.581 213.92 102.981 214.84 101.753ZM225.994 98.9253C229.731 98.8621 234.577 99.3814 235.87 103.598 234.95 106.532 231.55 106.995 228.916 106.651 227.532 106.286 226.668 104.988 225.629 104.104 225.805 103.977 226.142 103.739 226.317 103.62 228.08 103.753 229.836 103.907 231.613 103.935 229.78 102.223 227.862 100.595 225.994 98.9253Z" fill="#FAC4E8"/><path d="M217.151 89.6481C218.261 89.606 219.371 89.5709 220.488 89.5288 221.071 90.4411 221.654 91.3534 222.244 92.2586 221.942 94.0411 221.401 95.7744 221.071 97.5499 221.036 98.9885 221.618 100.37 221.829 101.795 220.979 103.879 218.928 104.132 216.934 104.048 217.46 102.223 217.987 100.391 218.612 98.5955 219.181 98.0481 219.827 97.606 220.438 97.1007 219.996 95.9499 218.598 95.3744 217.734 94.5253L217.706 94.2656C217.531 92.7218 217.341 91.1849 217.151 89.6481ZM222.946 96.7148C225.123 94.1183 226.633 90.6235 230.229 89.6341 230.075 89.8867 229.759 90.3849 229.604 90.6376 228.235 91.7183 226.844 92.7849 225.741 94.1534 227.666 93.9077 229.59 93.7393 231.536 93.6902 230.005 94.9744 228.445 96.2095 226.907 97.4797 225.797 97.3955 224.68 97.3463 223.585 97.2902 223.557 97.9288 223.536 98.5674 223.522 99.206 224.14 99.1358 225.376 98.9955 225.994 98.9253 227.862 100.595 229.78 102.223 231.613 103.935 229.836 103.907 228.08 103.753 226.317 103.62 226.141 103.739 225.804 103.977 225.629 104.104L225.334 104.335C224.765 103.374 224.217 102.405 223.69 101.423 223.22 100.518 222.672 99.6551 222.096 98.813 222.37 98.1113 222.658 97.4095 222.946 96.7148Z" fill="#FC89D6"/><path d="M19.0871 93.0516C21.6438 94.7078 21.4752 98.3078 22.1214 100.96 22.1354 104.027 21.5595 107.598 19.066 109.676 17.6262 104.23 18.0827 98.5253 19.0871 93.0516ZM8.28418 96.3709C9.34477 95.6341 10.3562 94.2446 11.8312 94.792 14.0156 95.2832 14.1491 99.2621 16.8462 97.9639 16.8181 98.5393 16.7689 99.6902 16.7408 100.265 15.1605 99.7393 13.6363 99.0656 12.1824 98.2726 12.2948 99.2691 12.4001 100.272 12.5406 101.269 11.2201 100.7 9.7943 100.279 8.66347 99.3604 8.19287 98.4481 8.41763 97.3604 8.28418 96.3709ZM4.81445 101.121C7.56779 100.763 10.4054 101.339 12.5055 103.248 14.107 104.307 14.9358 106.356 16.8673 106.925 17.1061 107.542 17.3449 108.167 17.5837 108.791 15.3502 108.097 13.2992 106.939 11.1008 106.146 9.76624 106.279 9.19029 107.556 8.57219 108.553 6.39481 106.672 5.05326 103.984 4.81445 101.121ZM10.7564 110.56C12.3578 110.525 13.9662 110.497 15.5747 110.56 14.9355 110.834 14.3244 111.156 13.7415 111.535 12.5825 111.262 11.4377 110.925 10.2998 110.567L10.7564 110.56Z" fill="#FDAD04"/><path d="M17.499 112.314C17.8291 112.265 18.4964 112.174 18.8335 112.132 18.4683 117.725 20.8339 124.341 25.2589 128.025 20.7967 128.381 16.6995 128.835 14.2412 128.025 9.09637 125.258 7.65395 119.696 7.30078 119.094 10.8922 118.706 15.2119 122.201 20.1141 125.695 19.0948 122.832 18.8827 122.034 18.2084 119.921 17.3445 117.479 17.5622 114.855 17.499 112.314ZM35.9432 114.925C39.2936 116.532 41.9908 119.746 46.0294 119.57H46.6618C47.9472 120.841 48.9052 121.676 49.8605 123.227 51.202 123.037 52.2073 124.176 52.2705 125.032 53.914 125.573 55.0489 126.974 56.5661 127.823 54.5713 128.798 51.3184 128.3 49.1902 128.181 45.896 128.279 42.7377 128.49 39.4294 128.181 36.5216 127.886 33.5271 128.02 30.6051 127.823 29.7272 128.048 28.8492 128.265 27.9502 128.391 27.1284 127.556 26.3487 126.686 25.6042 125.788 25.26 125.627 24.5717 125.318 24.2275 125.163 26.9458 125.248 29.6921 125.135 32.319 124.377 31.1811 123.311 30.0432 122.244 28.9265 121.156 31.9678 121.297 35.0934 122.581 38.0293 121.142 37.4253 119.037 36.7299 116.96 35.9432 114.925ZM185.312 120.237C187.861 118.504 190.334 116.609 193.199 115.402 192.413 117.62 191.661 119.879 191.577 122.258 194.759 120.104 197.638 117.234 201.593 116.581 200.876 118.721 200.209 120.876 199.584 123.044 199.802 123.128 200.251 123.29 200.469 123.374 202.52 121.767 205.041 121.03 207.591 120.665 207.76 123.206 207.992 125.274 207.781 127.814L207.76 128.102C206.342 128.257 205.493 127.744 204.117 128.102 203.676 127.949 202.849 127.949 202.133 127.949 200.56 127.634 200.176 128.462 198.551 128.462 194.969 127.956 191.584 128.693 187.995 128.462 185.931 128.462 184.26 128.639 182 127.949 182.422 127.373 182.207 127.591 182.657 127.037 182.741 124.09 184.834 121.76 185.326 118.904L185.312 120.237Z" fill="#6BCC5E"/></g></svg>