<?xml version="1.0" encoding="utf-8"?>
<!-- Generator: Adobe Illustrator 16.0.0, SVG Export Plug-In . SVG Version: 6.00 Build 0)  -->
<!DOCTYPE svg PUBLIC "-//W3C//DTD SVG 1.1//EN" "http://www.w3.org/Graphics/SVG/1.1/DTD/svg11.dtd">
<svg version="1.1" id="TH_Download_on_the" xmlns="http://www.w3.org/2000/svg" xmlns:xlink="http://www.w3.org/1999/xlink" x="0px"
	 y="0px" width="135px" height="40px" viewBox="0 0 135 40" enable-background="new 0 0 135 40" xml:space="preserve">
<g>
	<path fill="#A6A6A6" d="M130.197,40H4.729C2.122,40,0,37.872,0,35.267V4.726C0,2.12,2.122,0,4.729,0h125.468
		C132.803,0,135,2.12,135,4.726v30.541C135,37.872,132.803,40,130.197,40L130.197,40z"/>
	<path d="M134.032,35.268c0,2.116-1.714,3.83-3.834,3.83H4.729c-2.119,0-3.839-1.714-3.839-3.83V4.725
		c0-2.115,1.72-3.835,3.839-3.835h125.468c2.121,0,3.834,1.72,3.834,3.835L134.032,35.268L134.032,35.268z"/>
	<g>
		<g>
			<path fill="#FFFFFF" d="M30.128,19.784c-0.029-3.223,2.639-4.791,2.761-4.864c-1.511-2.203-3.853-2.504-4.676-2.528
				c-1.967-0.207-3.875,1.177-4.877,1.177c-1.022,0-2.565-1.157-4.228-1.123c-2.14,0.033-4.142,1.272-5.24,3.196
				c-2.266,3.923-0.576,9.688,1.595,12.859c1.086,1.553,2.355,3.287,4.016,3.226c1.625-0.067,2.232-1.036,4.193-1.036
				c1.943,0,2.513,1.036,4.207,0.997c1.744-0.028,2.842-1.56,3.89-3.127c1.255-1.78,1.759-3.533,1.779-3.623
				C33.507,24.924,30.161,23.647,30.128,19.784z"/>
			<path fill="#FFFFFF" d="M26.928,10.306c0.874-1.093,1.472-2.58,1.306-4.089c-1.265,0.056-2.847,0.875-3.758,1.944
				c-0.806,0.942-1.526,2.486-1.34,3.938C24.557,12.205,26.016,11.382,26.928,10.306z"/>
		</g>
	</g>
	<g>
		<path fill="#FFFFFF" d="M53.645,31.504h-2.271l-1.244-3.909h-4.324l-1.185,3.909h-2.211l4.284-13.308h2.646L53.645,31.504z
			 M49.755,25.955L48.63,22.48c-0.119-0.355-0.342-1.191-0.671-2.507h-0.04c-0.131,0.566-0.342,1.402-0.632,2.507l-1.105,3.475
			H49.755z"/>
		<path fill="#FFFFFF" d="M64.662,26.588c0,1.632-0.441,2.922-1.323,3.869c-0.79,0.843-1.771,1.264-2.942,1.264
			c-1.264,0-2.172-0.454-2.725-1.362h-0.04v5.055h-2.132V25.067c0-1.026-0.027-2.079-0.079-3.159h1.875l0.119,1.521h0.04
			c0.711-1.146,1.79-1.718,3.238-1.718c1.132,0,2.077,0.447,2.833,1.342C64.284,23.949,64.662,25.127,64.662,26.588z M62.49,26.666
			c0-0.934-0.21-1.704-0.632-2.31c-0.461-0.632-1.08-0.948-1.856-0.948c-0.526,0-1.004,0.176-1.431,0.523
			c-0.428,0.35-0.708,0.807-0.839,1.373c-0.066,0.264-0.099,0.48-0.099,0.65v1.6c0,0.698,0.214,1.287,0.642,1.768
			s0.984,0.721,1.668,0.721c0.803,0,1.428-0.31,1.875-0.928C62.266,28.496,62.49,27.68,62.49,26.666z"/>
		<path fill="#FFFFFF" d="M75.699,26.588c0,1.632-0.441,2.922-1.324,3.869c-0.789,0.843-1.77,1.264-2.941,1.264
			c-1.264,0-2.172-0.454-2.724-1.362H68.67v5.055h-2.132V25.067c0-1.026-0.027-2.079-0.079-3.159h1.875l0.119,1.521h0.04
			c0.71-1.146,1.789-1.718,3.238-1.718c1.131,0,2.076,0.447,2.834,1.342C75.32,23.949,75.699,25.127,75.699,26.588z M73.527,26.666
			c0-0.934-0.211-1.704-0.633-2.31c-0.461-0.632-1.078-0.948-1.855-0.948c-0.527,0-1.004,0.176-1.432,0.523
			c-0.428,0.35-0.707,0.807-0.838,1.373c-0.065,0.264-0.099,0.48-0.099,0.65v1.6c0,0.698,0.214,1.287,0.64,1.768
			c0.428,0.48,0.984,0.721,1.67,0.721c0.803,0,1.428-0.31,1.875-0.928C73.303,28.496,73.527,27.68,73.527,26.666z"/>
		<path fill="#FFFFFF" d="M88.039,27.772c0,1.132-0.393,2.053-1.182,2.764c-0.867,0.777-2.074,1.165-3.625,1.165
			c-1.432,0-2.58-0.276-3.449-0.829l0.494-1.777c0.936,0.566,1.963,0.85,3.082,0.85c0.803,0,1.428-0.182,1.877-0.544
			c0.447-0.362,0.67-0.848,0.67-1.454c0-0.54-0.184-0.995-0.553-1.364c-0.367-0.369-0.98-0.712-1.836-1.029
			c-2.33-0.869-3.494-2.142-3.494-3.816c0-1.094,0.408-1.991,1.225-2.689c0.814-0.699,1.9-1.048,3.258-1.048
			c1.211,0,2.217,0.211,3.02,0.632l-0.533,1.738c-0.75-0.408-1.598-0.612-2.547-0.612c-0.75,0-1.336,0.185-1.756,0.553
			c-0.355,0.329-0.533,0.73-0.533,1.205c0,0.526,0.203,0.961,0.611,1.303c0.355,0.316,1,0.658,1.936,1.027
			c1.145,0.461,1.986,1,2.527,1.618C87.77,26.081,88.039,26.852,88.039,27.772z"/>
		<path fill="#FFFFFF" d="M95.088,23.508h-2.35v4.659c0,1.185,0.414,1.777,1.244,1.777c0.381,0,0.697-0.033,0.947-0.099l0.059,1.619
			c-0.42,0.157-0.973,0.236-1.658,0.236c-0.842,0-1.5-0.257-1.975-0.77c-0.473-0.514-0.711-1.376-0.711-2.587v-4.837h-1.4v-1.6h1.4
			v-1.757l2.094-0.632v2.389h2.35V23.508z"/>
		<path fill="#FFFFFF" d="M105.691,26.627c0,1.475-0.422,2.686-1.264,3.633c-0.883,0.975-2.055,1.461-3.516,1.461
			c-1.408,0-2.529-0.467-3.365-1.401s-1.254-2.113-1.254-3.534c0-1.487,0.43-2.705,1.293-3.652c0.861-0.948,2.023-1.422,3.484-1.422
			c1.408,0,2.541,0.467,3.396,1.402C105.283,24.021,105.691,25.192,105.691,26.627z M103.479,26.696
			c0-0.885-0.189-1.644-0.572-2.277c-0.447-0.766-1.086-1.148-1.914-1.148c-0.857,0-1.508,0.383-1.955,1.148
			c-0.383,0.634-0.572,1.405-0.572,2.317c0,0.885,0.189,1.644,0.572,2.276c0.461,0.766,1.105,1.148,1.936,1.148
			c0.814,0,1.453-0.39,1.914-1.168C103.281,28.347,103.479,27.58,103.479,26.696z"/>
		<path fill="#FFFFFF" d="M112.621,23.783c-0.211-0.039-0.436-0.059-0.672-0.059c-0.75,0-1.33,0.283-1.738,0.85
			c-0.355,0.5-0.533,1.132-0.533,1.895v5.035h-2.131l0.02-6.574c0-1.106-0.027-2.113-0.08-3.021h1.857l0.078,1.836h0.059
			c0.225-0.631,0.58-1.139,1.066-1.52c0.475-0.343,0.988-0.514,1.541-0.514c0.197,0,0.375,0.014,0.533,0.039V23.783z"/>
		<path fill="#FFFFFF" d="M122.156,26.252c0,0.382-0.025,0.704-0.078,0.967h-6.396c0.025,0.948,0.334,1.673,0.928,2.173
			c0.539,0.447,1.236,0.671,2.092,0.671c0.947,0,1.811-0.151,2.588-0.454l0.334,1.48c-0.908,0.396-1.98,0.593-3.217,0.593
			c-1.488,0-2.656-0.438-3.506-1.313c-0.848-0.875-1.273-2.05-1.273-3.524c0-1.447,0.395-2.652,1.186-3.613
			c0.828-1.026,1.947-1.539,3.355-1.539c1.383,0,2.43,0.513,3.141,1.539C121.873,24.047,122.156,25.055,122.156,26.252z
			 M120.123,25.699c0.014-0.632-0.125-1.178-0.414-1.639c-0.369-0.593-0.936-0.889-1.699-0.889c-0.697,0-1.264,0.289-1.697,0.869
			c-0.355,0.461-0.566,1.014-0.631,1.658H120.123z"/>
	</g>
	<g>
		<g>
			<path fill="#FFFFFF" d="M47.549,13.438v-3.03c0-0.212-0.026-0.41-0.077-0.591c-0.052-0.182-0.133-0.338-0.241-0.469
				c-0.109-0.13-0.248-0.233-0.414-0.31c-0.167-0.076-0.366-0.114-0.597-0.114c-0.54,0-0.951,0.178-1.232,0.532
				c-0.282,0.355-0.424,0.851-0.424,1.488c0,0.352,0.041,0.647,0.123,0.887s0.188,0.432,0.318,0.578
				c0.131,0.146,0.274,0.25,0.433,0.314c0.157,0.063,0.315,0.096,0.473,0.096c0.128,0,0.238-0.009,0.333-0.027
				c0.094-0.018,0.189-0.045,0.286-0.082l0.146,0.619c-0.104,0.049-0.225,0.088-0.364,0.119s-0.285,0.045-0.437,0.045
				c-0.272,0-0.537-0.052-0.792-0.155c-0.254-0.103-0.478-0.259-0.668-0.469c-0.191-0.209-0.345-0.473-0.46-0.792
				s-0.173-0.696-0.173-1.133c0-0.382,0.05-0.737,0.15-1.065c0.1-0.328,0.25-0.611,0.45-0.851c0.2-0.239,0.452-0.429,0.755-0.568
				c0.304-0.14,0.658-0.209,1.065-0.209c0.369,0,0.688,0.058,0.955,0.173s0.487,0.273,0.66,0.473s0.302,0.431,0.387,0.692
				s0.127,0.537,0.127,0.828v3.021H47.549z"/>
			<path fill="#FFFFFF" d="M52.126,13.438v-3.285c0-0.819-0.361-1.229-1.083-1.229c-0.291,0-0.564,0.053-0.819,0.159
				c-0.255,0.106-0.47,0.232-0.646,0.378l-0.21-0.592c0.091-0.079,0.202-0.156,0.332-0.232c0.131-0.076,0.273-0.143,0.428-0.2
				c0.155-0.058,0.315-0.103,0.482-0.136c0.167-0.034,0.335-0.05,0.505-0.05c0.595,0,1.042,0.168,1.343,0.505
				c0.3,0.337,0.45,0.814,0.45,1.434v3.249H52.126z"/>
			<path fill="#FFFFFF" d="M54.101,12.401c0.219,0.134,0.451,0.243,0.696,0.328c0.246,0.085,0.515,0.127,0.806,0.127
				c0.461,0,0.829-0.158,1.105-0.473s0.414-0.801,0.414-1.456c0-0.691-0.132-1.198-0.396-1.52s-0.639-0.482-1.124-0.482
				c-0.321,0-0.598,0.041-0.828,0.123c-0.23,0.082-0.461,0.199-0.691,0.35L53.9,8.77c0.243-0.158,0.518-0.283,0.824-0.377
				c0.306-0.094,0.62-0.141,0.941-0.141c0.734,0,1.291,0.229,1.67,0.687s0.569,1.097,0.569,1.916c0,0.874-0.202,1.538-0.605,1.993
				c-0.403,0.455-0.976,0.682-1.716,0.682c-0.346,0-0.652-0.042-0.919-0.127c-0.267-0.084-0.519-0.206-0.755-0.364L54.101,12.401z"
				/>
			<path fill="#FFFFFF" d="M59.924,11.619c0,0.431,0.085,0.745,0.255,0.942c0.17,0.197,0.446,0.295,0.828,0.295
				c0.151,0,0.302-0.027,0.45-0.082c0.149-0.055,0.29-0.131,0.424-0.228c0.133-0.097,0.251-0.208,0.354-0.333
				c0.104-0.124,0.188-0.256,0.255-0.396V8.342h0.782v5.096h-0.736l-0.046-0.746c-0.176,0.255-0.395,0.458-0.655,0.609
				c-0.261,0.152-0.598,0.228-1.01,0.228c-0.559,0-0.979-0.162-1.261-0.487c-0.282-0.324-0.423-0.796-0.423-1.415V8.342h0.782
				V11.619z"/>
			<path fill="#FFFFFF" d="M63.182,7.105c-0.133,0-0.233,0.028-0.3,0.083c-0.066,0.056-0.101,0.151-0.101,0.287v0.194h-0.864v-0.3
				c0-0.291,0.084-0.517,0.25-0.678c0.167-0.161,0.421-0.241,0.76-0.241h0.883v0.655H63.182z"/>
			<path fill="#FFFFFF" d="M65.32,13.438v-5.59c0-0.279-0.044-0.521-0.132-0.728s-0.189-0.38-0.305-0.522s-0.229-0.251-0.342-0.327
				S64.35,6.148,64.301,6.13l-0.018-0.164c0.097-0.17,0.22-0.32,0.368-0.45c0.148-0.13,0.315-0.24,0.501-0.328
				c0.185-0.088,0.385-0.153,0.601-0.195c0.215-0.042,0.438-0.063,0.669-0.063c0.369,0,0.667,0.022,0.892,0.067
				s0.428,0.103,0.609,0.175l-0.118,0.686c-0.176-0.097-0.381-0.167-0.614-0.209s-0.466-0.064-0.696-0.064
				c-0.291,0-0.557,0.034-0.796,0.1c-0.24,0.067-0.414,0.17-0.523,0.31c0.304,0.164,0.534,0.42,0.691,0.769
				c0.158,0.349,0.236,0.732,0.236,1.151v5.524H65.32z"/>
			<path fill="#FFFFFF" d="M71.018,13.438l-0.674-2.312c-0.17-0.558-0.479-0.843-0.928-0.855l-1.138,0.938v2.229h-0.782V8.342h0.782
				v2.002l2.421-2.002h1.056l-1.784,1.475c0.328,0.048,0.581,0.185,0.76,0.409c0.179,0.225,0.32,0.504,0.424,0.837l0.7,2.375H71.018
				z"/>
			<path fill="#FFFFFF" d="M76.067,13.438v-2.457h-1.273c-0.432,0-0.771,0.083-1.02,0.25c-0.249,0.167-0.373,0.423-0.373,0.769
				c0,0.297,0.088,0.518,0.264,0.66s0.397,0.214,0.664,0.214c0.128,0,0.263-0.014,0.405-0.041s0.269-0.065,0.378-0.114l0.127,0.646
				c-0.134,0.048-0.288,0.088-0.464,0.118s-0.352,0.045-0.528,0.045c-0.23,0-0.444-0.032-0.641-0.095
				c-0.197-0.064-0.369-0.158-0.515-0.282s-0.261-0.282-0.346-0.473c-0.085-0.191-0.128-0.414-0.128-0.669
				c0-0.534,0.188-0.951,0.564-1.251s0.943-0.45,1.702-0.45h1.183V10.19c0-0.4-0.094-0.714-0.282-0.942
				c-0.188-0.228-0.521-0.341-1.001-0.341c-0.346,0-0.667,0.052-0.965,0.155c-0.297,0.103-0.555,0.23-0.773,0.382l-0.254-0.555
				c0.091-0.079,0.207-0.156,0.35-0.232c0.143-0.076,0.304-0.144,0.482-0.205s0.372-0.109,0.578-0.146
				c0.206-0.037,0.422-0.055,0.646-0.055c0.655,0,1.153,0.174,1.493,0.523c0.34,0.349,0.51,0.817,0.51,1.406v3.258H76.067z"/>
			<path fill="#FFFFFF" d="M81.855,13.438v-3.03c0-0.212-0.026-0.41-0.077-0.591c-0.052-0.182-0.133-0.338-0.241-0.469
				c-0.109-0.13-0.248-0.233-0.414-0.31c-0.167-0.076-0.366-0.114-0.597-0.114c-0.54,0-0.951,0.178-1.232,0.532
				c-0.282,0.355-0.424,0.851-0.424,1.488c0,0.352,0.041,0.647,0.123,0.887s0.188,0.432,0.318,0.578
				c0.131,0.146,0.274,0.25,0.433,0.314c0.157,0.063,0.315,0.096,0.473,0.096c0.128,0,0.238-0.009,0.333-0.027
				c0.094-0.018,0.189-0.045,0.286-0.082l0.146,0.619c-0.104,0.049-0.225,0.088-0.364,0.119s-0.285,0.045-0.437,0.045
				c-0.272,0-0.537-0.052-0.792-0.155c-0.254-0.103-0.478-0.259-0.668-0.469c-0.191-0.209-0.345-0.473-0.46-0.792
				s-0.173-0.696-0.173-1.133c0-0.382,0.05-0.737,0.15-1.065c0.1-0.328,0.25-0.611,0.45-0.851c0.2-0.239,0.452-0.429,0.755-0.568
				c0.304-0.14,0.658-0.209,1.065-0.209c0.369,0,0.688,0.058,0.955,0.173s0.487,0.273,0.66,0.473s0.302,0.431,0.387,0.692
				s0.127,0.537,0.127,0.828v3.021H81.855z"/>
			<path fill="#FFFFFF" d="M84.385,13.438v-6.07c0-0.37,0.062-0.691,0.187-0.964s0.296-0.507,0.515-0.701h-2.248V5.048h3.249v0.546
				c-0.292,0.134-0.518,0.333-0.679,0.597c-0.16,0.264-0.241,0.597-0.241,0.998v6.25H84.385z"/>
			<path fill="#FFFFFF" d="M90.218,13.438v-3.03c0-0.212-0.026-0.41-0.077-0.591c-0.052-0.182-0.133-0.338-0.241-0.469
				c-0.109-0.13-0.248-0.233-0.414-0.31c-0.167-0.076-0.366-0.114-0.597-0.114c-0.54,0-0.951,0.178-1.232,0.532
				c-0.282,0.355-0.424,0.851-0.424,1.488c0,0.352,0.041,0.647,0.123,0.887s0.188,0.432,0.318,0.578
				c0.131,0.146,0.274,0.25,0.433,0.314c0.157,0.063,0.315,0.096,0.473,0.096c0.128,0,0.238-0.009,0.333-0.027
				c0.094-0.018,0.189-0.045,0.286-0.082l0.146,0.619c-0.104,0.049-0.225,0.088-0.364,0.119s-0.285,0.045-0.437,0.045
				c-0.272,0-0.537-0.052-0.792-0.155c-0.254-0.103-0.478-0.259-0.668-0.469c-0.191-0.209-0.345-0.473-0.46-0.792
				s-0.173-0.696-0.173-1.133c0-0.382,0.05-0.737,0.15-1.065c0.1-0.328,0.25-0.611,0.45-0.851c0.2-0.239,0.452-0.429,0.755-0.568
				c0.304-0.14,0.658-0.209,1.065-0.209c0.369,0,0.688,0.058,0.955,0.173s0.487,0.273,0.66,0.473s0.302,0.431,0.387,0.692
				S91,10.126,91,10.417v3.021H90.218z"/>
			<path fill="#FFFFFF" d="M89.672,7.651c-0.103,0-0.194-0.037-0.272-0.109C89.32,7.469,89.28,7.372,89.28,7.25V6.996
				c0-0.066-0.009-0.114-0.026-0.141c-0.019-0.027-0.064-0.041-0.137-0.041h-0.482V6.177h0.746c0.17,0,0.305,0.036,0.405,0.109
				c0.1,0.073,0.149,0.188,0.149,0.346v0.228c0,0.048,0.011,0.086,0.032,0.114C89.989,7,90.033,7.014,90.1,7.014h1.229v0.637H89.672
				z"/>
			<path fill="#FFFFFF" d="M95.878,10.171c0-0.437-0.082-0.753-0.245-0.951c-0.164-0.197-0.38-0.296-0.646-0.296
				c-0.194,0-0.378,0.029-0.551,0.086s-0.335,0.134-0.486,0.228c-0.152,0.094-0.288,0.205-0.41,0.332
				c-0.121,0.127-0.221,0.258-0.3,0.392v3.476h-0.782V8.342h0.736l0.046,0.747c0.091-0.104,0.198-0.205,0.323-0.305
				c0.124-0.1,0.262-0.189,0.414-0.269c0.151-0.079,0.315-0.142,0.491-0.191c0.176-0.048,0.36-0.073,0.555-0.073
				c0.268,0,0.502,0.045,0.705,0.137c0.204,0.091,0.375,0.221,0.515,0.391s0.244,0.372,0.313,0.605
				c0.07,0.234,0.105,0.496,0.105,0.787v3.267h-0.783V10.171z"/>
			<path fill="#FFFFFF" d="M93.103,7.651V7.014h3.166V6.177h0.737v1.474H93.103z"/>
			<path fill="#FFFFFF" d="M96.614,5.731v-1.22h0.737v1.22H96.614z"/>
		</g>
	</g>
</g>
</svg>
