<svg fill="#fff" xmlns="http://www.w3.org/2000/svg" viewBox="0 0 24 24" aria-hidden="true"><path fill-rule="evenodd" clip-rule="evenodd" d="M10.052 2.13h-2.59c-.921 0-1.667.896-1.667 2v12c0 .204.025.401.073.587l-.023.09c-.32 1.269.215 2.579 1.239 3.298-1.663-.225-2.956-1.919-2.956-3.975v-12c0-2.209 1.492-4 3.333-4h8.334c1.606 0 2.948 1.365 3.263 3.18l-2.087-.596c-.3-.36-.717-.584-1.176-.584h-.865l-2.146-.614a2.888 2.888 0 0 0-2.732.614z"/><path fill-rule="evenodd" clip-rule="evenodd" d="m9.94 19.75-2.934.786c-.889.239-1.841-.433-2.127-1.5L1.773 7.445c-.286-1.067.203-2.125 1.092-2.363l2.263-.607V3.13c0-.271.054-.53.152-.766l-2.932.786C.57 3.626-.41 5.742.163 7.876L3.27 19.467c.572 2.134 2.477 3.478 4.255 3.001l6.278-1.682L9.94 19.75zm2.115-18.703a2.893 2.893 0 0 0-1.658-.054l-.512.137h1.994c.057-.03.116-.057.176-.083z"/><path fill-rule="evenodd" clip-rule="evenodd" d="m20.386 5.382-7.66-2.444c-.847-.27-1.779.388-2.083 1.47L7.342 16.17c-.304 1.083.136 2.179.982 2.449l7.66 2.444c.846.27 1.778-.388 2.082-1.47L21.368 7.83c.303-1.083-.136-2.179-.982-2.449zM13.276.978c-1.692-.54-3.557.777-4.165 2.942L5.81 15.68c-.608 2.165.271 4.358 1.963 4.898l7.66 2.444c1.693.54 3.557-.777 4.165-2.942L22.9 8.32c.607-2.165-.272-4.358-1.964-4.898L13.276.978z"/><path fill-rule="evenodd" clip-rule="evenodd" d="M11.625 6.858c.152-.541.618-.87 1.041-.736l6.128 1.956c.423.135.643.683.491 1.224-.152.541-.618.87-1.04.736l-6.129-1.956c-.423-.135-.643-.683-.49-1.224zm-1.1 3.92c.152-.541.618-.87 1.04-.736l6.129 1.956c.423.135.643.683.49 1.224-.151.541-.617.87-1.04.736l-6.128-1.956c-.424-.135-.643-.683-.491-1.224zm-1.101 3.92c.152-.541.618-.87 1.041-.736l3.064.978c.423.135.643.683.491 1.225-.152.54-.618.87-1.04.735l-3.065-.978c-.423-.135-.643-.683-.49-1.224z"/></svg>