<?xml version="1.0" encoding="utf-8"?>
<!-- Generator: Adobe Illustrator 16.0.0, SVG Export Plug-In . SVG Version: 6.00 Build 0)  -->
<!DOCTYPE svg PUBLIC "-//W3C//DTD SVG 1.1//EN" "http://www.w3.org/Graphics/SVG/1.1/DTD/svg11.dtd">
<svg version="1.1" id="FI_Download_on_the_App_Store"
	 xmlns="http://www.w3.org/2000/svg" xmlns:xlink="http://www.w3.org/1999/xlink" x="0px" y="0px" width="135px" height="40px"
	 viewBox="0 0 135 40" enable-background="new 0 0 135 40" xml:space="preserve">
<g>
	<path fill="#A6A6A6" d="M130.197,40H4.729C2.122,40,0,37.872,0,35.267V4.726C0,2.12,2.122,0,4.729,0h125.468
		C132.803,0,135,2.12,135,4.726v30.541C135,37.872,132.803,40,130.197,40L130.197,40z"/>
	<path d="M134.032,35.268c0,2.116-1.714,3.83-3.834,3.83H4.729c-2.119,0-3.839-1.714-3.839-3.83V4.725
		c0-2.115,1.72-3.835,3.839-3.835h125.468c2.121,0,3.834,1.72,3.834,3.835L134.032,35.268L134.032,35.268z"/>
	<g>
		<g>
			<path fill="#FFFFFF" d="M30.128,19.784c-0.029-3.223,2.639-4.791,2.761-4.864c-1.511-2.203-3.853-2.504-4.676-2.528
				c-1.967-0.207-3.875,1.177-4.877,1.177c-1.022,0-2.565-1.157-4.228-1.123c-2.14,0.033-4.142,1.272-5.24,3.196
				c-2.266,3.923-0.576,9.688,1.595,12.859c1.086,1.553,2.355,3.287,4.016,3.226c1.625-0.067,2.232-1.036,4.193-1.036
				c1.943,0,2.513,1.036,4.207,0.997c1.744-0.028,2.842-1.56,3.89-3.127c1.255-1.78,1.759-3.533,1.779-3.623
				C33.507,24.924,30.161,23.647,30.128,19.784z"/>
			<path fill="#FFFFFF" d="M26.928,10.306c0.874-1.093,1.472-2.58,1.306-4.089c-1.265,0.056-2.847,0.875-3.758,1.944
				c-0.806,0.942-1.526,2.486-1.34,3.938C24.557,12.205,26.016,11.382,26.928,10.306z"/>
		</g>
	</g>
	<g>
		<path fill="#FFFFFF" d="M51.143,31.516h-1.748l-0.958-3.01h-3.329l-0.912,3.01h-1.702l3.298-10.246h2.037L51.143,31.516z
			 M48.148,27.244l-0.866-2.676c-0.091-0.273-0.264-0.916-0.517-1.93h-0.03c-0.102,0.436-0.264,1.078-0.486,1.93l-0.851,2.676
			H48.148z"/>
		<path fill="#FFFFFF" d="M59.608,27.73c0,1.256-0.341,2.25-1.024,2.979c-0.612,0.648-1.371,0.973-2.278,0.973
			c-0.979,0-1.682-0.35-2.109-1.049v3.877h-1.642v-7.953c0-0.789-0.021-1.6-0.061-2.428h1.444l0.091,1.17h0.031
			c0.547-0.883,1.378-1.322,2.493-1.322c0.871,0,1.598,0.344,2.181,1.033C59.317,25.699,59.608,26.605,59.608,27.73z M57.937,27.791
			c0-0.719-0.163-1.312-0.486-1.777c-0.355-0.488-0.831-0.73-1.429-0.73c-0.405,0-0.772,0.135-1.102,0.402
			c-0.329,0.27-0.544,0.621-0.646,1.057c-0.051,0.203-0.076,0.371-0.076,0.502v1.23c0,0.537,0.165,0.99,0.494,1.361
			c0.329,0.369,0.757,0.555,1.284,0.555c0.618,0,1.1-0.238,1.444-0.715C57.764,29.199,57.937,28.572,57.937,27.791z"/>
		<path fill="#FFFFFF" d="M68.105,27.73c0,1.256-0.341,2.25-1.024,2.979c-0.612,0.648-1.371,0.973-2.278,0.973
			c-0.979,0-1.682-0.35-2.109-1.049v3.877h-1.642v-7.953c0-0.789-0.021-1.6-0.061-2.428h1.444l0.091,1.17h0.031
			c0.547-0.883,1.378-1.322,2.493-1.322c0.871,0,1.598,0.344,2.181,1.033C67.813,25.699,68.105,26.605,68.105,27.73z M66.433,27.791
			c0-0.719-0.163-1.312-0.486-1.777c-0.355-0.488-0.831-0.73-1.429-0.73c-0.405,0-0.772,0.135-1.102,0.402
			c-0.329,0.27-0.544,0.621-0.646,1.057c-0.051,0.203-0.076,0.371-0.076,0.502v1.23c0,0.537,0.165,0.99,0.494,1.361
			c0.329,0.369,0.757,0.555,1.284,0.555c0.618,0,1.1-0.238,1.444-0.715C66.261,29.199,66.433,28.572,66.433,27.791z"/>
		<path fill="#FFFFFF" d="M77.605,28.643c0,0.871-0.304,1.58-0.91,2.127c-0.667,0.6-1.598,0.898-2.79,0.898
			c-1.103,0-1.986-0.213-2.653-0.639l0.38-1.369c0.719,0.426,1.51,0.639,2.371,0.639c0.618,0,1.1-0.139,1.443-0.418
			c0.345-0.277,0.518-0.65,0.518-1.117c0-0.416-0.143-0.766-0.426-1.049c-0.284-0.283-0.755-0.547-1.414-0.791
			c-1.793-0.668-2.69-1.646-2.69-2.934c0-0.84,0.317-1.529,0.95-2.066c0.634-0.537,1.472-0.805,2.516-0.805
			c0.933,0,1.708,0.162,2.326,0.486l-0.412,1.336c-0.58-0.312-1.236-0.471-1.969-0.471c-0.579,0-1.032,0.143-1.357,0.426
			c-0.274,0.254-0.412,0.562-0.412,0.928c0,0.404,0.157,0.74,0.472,1.002c0.273,0.244,0.77,0.508,1.489,0.791
			c0.882,0.355,1.53,0.771,1.946,1.246C77.397,27.34,77.605,27.934,77.605,28.643z"/>
		<path fill="#FFFFFF" d="M83.046,25.359h-1.809v3.588c0,0.91,0.319,1.367,0.958,1.367c0.294,0,0.537-0.025,0.729-0.076l0.046,1.246
			c-0.325,0.121-0.751,0.184-1.277,0.184c-0.648,0-1.155-0.199-1.52-0.594c-0.365-0.395-0.548-1.059-0.548-1.99v-3.725h-1.079v-1.23
			h1.079v-1.354l1.611-0.486v1.84h1.809V25.359z"/>
		<path fill="#FFFFFF" d="M91.193,27.76c0,1.137-0.324,2.068-0.973,2.797c-0.679,0.75-1.581,1.125-2.706,1.125
			c-1.084,0-1.947-0.359-2.591-1.078c-0.644-0.721-0.966-1.627-0.966-2.721c0-1.145,0.332-2.082,0.996-2.812
			c0.663-0.73,1.558-1.094,2.683-1.094c1.084,0,1.956,0.359,2.614,1.078C90.879,25.754,91.193,26.656,91.193,27.76z M89.491,27.799
			c0-0.678-0.147-1.258-0.44-1.742c-0.345-0.586-0.837-0.881-1.475-0.881c-0.659,0-1.161,0.295-1.505,0.881
			c-0.294,0.484-0.441,1.076-0.441,1.773c0,0.676,0.147,1.258,0.441,1.742c0.354,0.586,0.851,0.879,1.489,0.879
			c0.628,0,1.12-0.299,1.475-0.895C89.339,29.062,89.491,28.477,89.491,27.799z"/>
		<path fill="#FFFFFF" d="M96.529,25.572c-0.163-0.031-0.335-0.047-0.518-0.047c-0.577,0-1.023,0.219-1.337,0.654
			c-0.274,0.385-0.411,0.871-0.411,1.459v3.877h-1.642v-5.062c0-0.852-0.015-1.627-0.045-2.324h1.429l0.061,1.412h0.046
			c0.172-0.486,0.445-0.875,0.82-1.17c0.365-0.264,0.76-0.395,1.186-0.395c0.152,0,0.289,0.01,0.411,0.029V25.572z"/>
		<path fill="#FFFFFF" d="M103.869,27.473c0,0.293-0.021,0.541-0.061,0.744h-4.925c0.021,0.73,0.259,1.287,0.715,1.672
			c0.415,0.344,0.952,0.518,1.61,0.518c0.73,0,1.394-0.117,1.991-0.35l0.259,1.139c-0.699,0.305-1.525,0.457-2.478,0.457
			c-1.146,0-2.044-0.338-2.698-1.012c-0.653-0.674-0.98-1.578-0.98-2.713c0-1.115,0.305-2.041,0.912-2.781
			c0.639-0.791,1.5-1.186,2.584-1.186c1.064,0,1.87,0.395,2.417,1.186C103.651,25.775,103.869,26.551,103.869,27.473z
			 M102.304,27.047c0.01-0.486-0.097-0.908-0.319-1.262c-0.283-0.457-0.72-0.684-1.307-0.684c-0.537,0-0.973,0.223-1.308,0.668
			c-0.273,0.355-0.436,0.781-0.486,1.277H102.304z"/>
		<path fill="#FFFFFF" d="M110.057,29.387c0,0.689-0.253,1.242-0.76,1.656c-0.507,0.416-1.206,0.625-2.098,0.625
			c-0.841,0-1.556-0.168-2.144-0.502l0.35-1.217c0.567,0.346,1.171,0.518,1.81,0.518c0.841,0,1.261-0.309,1.261-0.928
			c0-0.273-0.091-0.498-0.273-0.676s-0.507-0.352-0.973-0.525c-1.317-0.486-1.976-1.195-1.976-2.127
			c0-0.639,0.243-1.172,0.729-1.596c0.486-0.426,1.13-0.639,1.931-0.639c0.729,0,1.353,0.146,1.869,0.439l-0.35,1.172
			c-0.477-0.285-0.979-0.426-1.505-0.426c-0.345,0-0.613,0.08-0.806,0.242s-0.289,0.371-0.289,0.623
			c0,0.254,0.102,0.461,0.305,0.623c0.172,0.152,0.506,0.32,1.003,0.502C109.418,27.639,110.057,28.385,110.057,29.387z"/>
		<path fill="#FFFFFF" d="M115.619,25.359h-1.809v3.588c0,0.91,0.319,1.367,0.958,1.367c0.294,0,0.537-0.025,0.729-0.076
			l0.046,1.246c-0.325,0.121-0.751,0.184-1.277,0.184c-0.648,0-1.155-0.199-1.52-0.594c-0.365-0.395-0.548-1.059-0.548-1.99v-3.725
			h-1.079v-1.23h1.079v-1.354l1.611-0.486v1.84h1.809V25.359z"/>
		<path fill="#FFFFFF" d="M122.81,31.516h-1.475l-0.122-0.852h-0.045c-0.507,0.68-1.227,1.018-2.159,1.018
			c-0.699,0-1.262-0.223-1.687-0.668c-0.386-0.406-0.578-0.906-0.578-1.506c0-0.9,0.378-1.59,1.133-2.066s1.816-0.709,3.185-0.699
			v-0.137c0-0.973-0.512-1.459-1.535-1.459c-0.73,0-1.374,0.182-1.931,0.547l-0.335-1.078c0.689-0.426,1.535-0.639,2.539-0.639
			c1.936,0,2.903,1.018,2.903,3.055v2.721C122.703,30.492,122.738,31.08,122.81,31.516z M121.106,28.977v-1.141
			c-1.813-0.029-2.721,0.467-2.721,1.49c0,0.385,0.105,0.674,0.317,0.867c0.212,0.191,0.479,0.289,0.802,0.289
			c0.362,0,0.697-0.115,1.005-0.344c0.308-0.227,0.496-0.518,0.566-0.873C121.097,29.184,121.106,29.088,121.106,28.977z"/>
	</g>
	<g>
		<g>
			<path fill="#FFFFFF" d="M47.394,16.216h-3.717V9.675h1.048v5.658h2.669V16.216z"/>
			<path fill="#FFFFFF" d="M51.389,16.216l-0.077-0.543h-0.029c-0.32,0.437-0.786,0.65-1.378,0.65c-0.845,0-1.446-0.592-1.446-1.388
				c0-1.164,1.009-1.766,2.756-1.766v-0.087c0-0.621-0.33-0.932-0.98-0.932c-0.465,0-0.873,0.117-1.232,0.35l-0.213-0.689
				c0.437-0.272,0.98-0.408,1.62-0.408c1.232,0,1.854,0.65,1.854,1.951v1.737c0,0.476,0.02,0.845,0.068,1.126H51.389z
				 M51.244,13.868c-1.164,0-1.747,0.282-1.747,0.951c0,0.495,0.301,0.737,0.719,0.737c0.533,0,1.028-0.407,1.028-0.96V13.868z"/>
			<path fill="#FFFFFF" d="M56.471,12.286h-1.154v2.29c0,0.583,0.204,0.874,0.611,0.874c0.185,0,0.34-0.02,0.466-0.049l0.029,0.796
				c-0.204,0.078-0.476,0.117-0.815,0.117c-0.825,0-1.319-0.456-1.319-1.65v-2.377h-0.689V11.5h0.689v-0.864l1.028-0.311V11.5h1.154
				V12.286z"/>
			<path fill="#FFFFFF" d="M60.517,16.216l-0.077-0.543h-0.029c-0.32,0.437-0.786,0.65-1.378,0.65c-0.845,0-1.446-0.592-1.446-1.388
				c0-1.164,1.009-1.766,2.756-1.766v-0.087c0-0.621-0.33-0.932-0.979-0.932c-0.467,0-0.874,0.117-1.233,0.35l-0.213-0.689
				c0.437-0.272,0.979-0.408,1.62-0.408c1.232,0,1.854,0.65,1.854,1.951v1.737c0,0.476,0.02,0.845,0.068,1.126H60.517z
				 M60.372,13.868c-1.165,0-1.747,0.282-1.747,0.951c0,0.495,0.301,0.737,0.719,0.737c0.533,0,1.028-0.407,1.028-0.96V13.868z"/>
			<path fill="#FFFFFF" d="M65.813,16.216l-0.077-0.543h-0.029c-0.32,0.437-0.786,0.65-1.378,0.65c-0.845,0-1.446-0.592-1.446-1.388
				c0-1.164,1.009-1.766,2.756-1.766v-0.087c0-0.621-0.33-0.932-0.98-0.932c-0.465,0-0.873,0.117-1.232,0.35l-0.213-0.689
				c0.437-0.272,0.98-0.408,1.62-0.408c1.232,0,1.854,0.65,1.854,1.951v1.737c0,0.476,0.02,0.845,0.068,1.126H65.813z
				 M65.667,13.868c-1.164,0-1.747,0.282-1.747,0.951c0,0.495,0.301,0.737,0.719,0.737c0.533,0,1.028-0.407,1.028-0.96V13.868z"/>
		</g>
	</g>
</g>
</svg>
