<svg xmlns="http://www.w3.org/2000/svg" width="640" height="360" fill="none" viewBox="0 0 640 360">
  <path fill="#333336" d="M0 0h640v360H0z"/>
  <path fill="#0290FF" stroke="#333336" stroke-width="1.8" d="M93 64c0-3.3137 2.6863-6 6-6h261.333c3.314 0 6 2.6863 6 6v14H93V64Z"/>
  <ellipse cx="106.706" cy="67.7974" fill="#333336" rx="2.70555" ry="2.66651"/>
  <ellipse cx="116.982" cy="67.7974" fill="#333336" rx="2.70555" ry="2.66651"/>
  <ellipse cx="127.269" cy="67.7974" fill="#333336" rx="2.70555" ry="2.66651"/>
  <path fill="#F8F6F4" stroke="#333336" stroke-width="1.8" d="M93 78h273.333v158c0 3.314-2.686 6-6 6H99c-3.3137 0-6-2.686-6-6V78Z"/>
  <path fill="#FF7139" stroke="#333336" stroke-width="1.8" d="M272.667 124.333c0-3.314 2.686-6 6-6H540c3.314 0 6 2.686 6 6v14H272.667v-14Z"/>
  <ellipse cx="286.372" cy="128.13" fill="#333336" rx="2.70554" ry="2.66648"/>
  <ellipse cx="296.648" cy="128.13" fill="#333336" rx="2.70554" ry="2.66648"/>
  <ellipse cx="306.935" cy="128.13" fill="#333336" rx="2.70554" ry="2.66648"/>
  <path fill="#F8F6F4" stroke="#333336" stroke-width="1.8" d="M272.667 138.333H546v158c0 3.314-2.686 6-6 6H278.667c-3.314 0-6-2.686-6-6v-158Z"/>
  <rect width="53.3333" height="53.3333" x="124.667" y="219" fill="#0290FF" stroke="#333336" stroke-width="1.8" rx="6.4"/>
  <path fill="#fff" fill-rule="evenodd" d="m153.342 228.333-17.775 21.331h15.998l-1.778 14.22 17.776-21.331h-15.998l1.777-14.22Z" clip-rule="evenodd"/>
  <path fill="#FBF0BA" stroke="#333336" stroke-width="1.8" d="M315.667 162.666h128v32h-128z"/>
  <path fill="#333336" d="M394.915 182.666v-8.541h3.463c1.966 0 3.136 1.264 3.136 2.89 0 1.076-.55 2.047-1.498 2.527l1.685 3.124h-1.849l-1.369-2.691h-1.919v2.691h-1.649Zm3.334-7.02h-1.685v2.82h1.685c1.088 0 1.591-.679 1.591-1.439 0-.843-.538-1.381-1.591-1.381Zm5.935 7.149c-1.381 0-2.2-.772-2.2-1.884 0-1.31 1.088-2.118 2.843-2.118h1.662v-.082c0-.678-.457-1.146-1.369-1.146-.714 0-1.194.304-1.486.831l-1.486-.738c.644-.842 1.568-1.439 2.984-1.439 1.86 0 2.925.971 2.925 2.563v3.884H406.5v-.971c-.456.655-1.322 1.1-2.316 1.1Zm.468-1.334c.772 0 1.533-.468 1.848-1.147v-.339h-1.485c-.96 0-1.346.304-1.346.796 0 .456.316.69.983.69Zm-.258-5.897 1.334-2.001h1.65l-1.767 2.001h-1.217Zm8.299 7.231c-.854 0-1.568-.316-1.989-.901v3.299h-1.603v-8.845h1.591v.878c.422-.621 1.135-1.007 1.989-1.007 1.592 0 3.042 1.276 3.042 3.288 0 2.012-1.474 3.288-3.03 3.288Zm-.328-1.521c.972 0 1.744-.784 1.744-1.779 0-.994-.772-1.778-1.744-1.778-.994 0-1.755.796-1.755 1.778 0 .983.761 1.779 1.755 1.779Zm4.214 1.392v-6.318h1.649v6.318h-1.649Zm-.211-8.096c0-.609.433-1.053 1.03-1.053.62 0 1.041.444 1.041 1.053 0 .596-.421 1.029-1.041 1.029-.609 0-1.03-.433-1.03-1.029Zm5.766 8.225c-1.556 0-3.042-1.276-3.042-3.288 0-2.012 1.451-3.288 3.066-3.288.831 0 1.521.351 1.954.936v-3.72h1.591v9.231h-1.591v-.866c-.445.62-1.159.995-1.978.995Zm.316-1.521c.995 0 1.755-.796 1.755-1.779 0-.982-.76-1.778-1.755-1.778-.971 0-1.755.784-1.755 1.778 0 .995.784 1.779 1.755 1.779Zm7.443 1.521c-1.895 0-3.335-1.474-3.335-3.288 0-1.825 1.44-3.288 3.335-3.288 1.884 0 3.346 1.463 3.346 3.288 0 1.814-1.439 3.288-3.346 3.288Zm.012-1.533c.959 0 1.731-.784 1.731-1.767 0-.982-.772-1.766-1.731-1.766-.971 0-1.732.784-1.732 1.766 0 .983.761 1.767 1.732 1.767Z"/>
  <path fill="#333336" d="M316.415 210.666v-8.541h3.37c1.919 0 3.206 1.381 3.206 3.101 0 1.696-1.287 3.112-3.218 3.112h-1.696v2.328h-1.662Zm3.265-7.032h-1.603v3.171h1.603c.982 0 1.638-.667 1.638-1.579 0-.925-.656-1.592-1.638-1.592Zm4.221 7.032v-6.318h1.592v.971c.304-.749.936-1.088 1.743-1.088.421 0 .795.105 1.065.246l-.585 1.591c-.176-.129-.48-.222-.843-.222-.831 0-1.369.421-1.369 1.486v3.334h-1.603Zm5.033 0v-6.318h1.649v6.318h-1.649Zm-.211-8.096c0-.609.433-1.053 1.03-1.053.62 0 1.041.444 1.041 1.053 0 .596-.421 1.029-1.041 1.029-.609 0-1.03-.433-1.03-1.029Zm2.946 8.096v-6.318h1.615v.796c.409-.574 1.065-.925 1.848-.925 1.498 0 2.446.983 2.446 2.633v3.814h-1.65v-3.568c0-.901-.433-1.463-1.287-1.463-.76 0-1.345.562-1.345 1.544v3.487h-1.627Zm10.076.129c-1.895 0-3.323-1.451-3.323-3.288 0-1.86 1.439-3.288 3.311-3.288 1.463 0 2.586.808 3.077 2.001l-1.486.597c-.257-.679-.842-1.088-1.567-1.088-.971 0-1.732.795-1.732 1.778 0 .959.772 1.755 1.743 1.755.749 0 1.311-.456 1.568-1.1l1.509.62c-.538 1.17-1.591 2.013-3.1 2.013Zm3.851-.129v-6.318h1.649v6.318h-1.649Zm-.211-8.096c0-.609.433-1.053 1.03-1.053.62 0 1.041.444 1.041 1.053 0 .596-.421 1.029-1.041 1.029-.609 0-1.03-.433-1.03-1.029Zm6.515 8.225c-.854 0-1.567-.316-1.989-.901v3.299h-1.602v-8.845h1.591v.878c.421-.621 1.135-1.007 1.989-1.007 1.591 0 3.042 1.276 3.042 3.288 0 2.012-1.475 3.288-3.031 3.288Zm-.327-1.521c.971 0 1.743-.784 1.743-1.779 0-.994-.772-1.778-1.743-1.778-.995 0-1.755.796-1.755 1.778 0 .983.76 1.779 1.755 1.779Zm4.213 1.392v-6.318h1.65v6.318h-1.65Zm-.211-8.096c0-.609.433-1.053 1.03-1.053.62 0 1.041.444 1.041 1.053 0 .596-.421 1.029-1.041 1.029-.609 0-1.03-.433-1.03-1.029Zm6.059 8.225c-1.895 0-3.334-1.474-3.334-3.288 0-1.825 1.439-3.288 3.334-3.288 1.884 0 3.346 1.463 3.346 3.288 0 1.814-1.439 3.288-3.346 3.288Zm.012-1.533c.959 0 1.732-.784 1.732-1.767 0-.982-.773-1.766-1.732-1.766-.971 0-1.732.784-1.732 1.766 0 .983.761 1.767 1.732 1.767Zm6.676 1.404v-1.381c0-1.544 1.263-2.398 2.398-3.088.948-.585 1.755-1.053 1.755-1.744 0-.596-.433-1.018-1.216-1.018-.784 0-1.346.515-1.627 1.206l-1.462-.714c.573-1.158 1.661-1.919 3.112-1.919 1.802 0 2.855 1.076 2.855 2.457 0 1.381-1.159 2.118-2.247 2.773-.936.573-1.801 1.076-1.848 1.86h4.06v1.568h-5.78Zm9.955-1.462c1.042 0 1.685-.597 1.685-2.68v-.351c0-2.071-.678-2.597-1.673-2.597-1.018 0-1.696.585-1.696 2.597v.351c0 2.106.643 2.68 1.684 2.68Zm0 1.579c-1.977 0-3.334-1.135-3.334-4.235v-.398c0-2.96 1.462-4.142 3.334-4.142 1.907 0 3.347 1.217 3.347 4.142v.398c0 3.135-1.393 4.235-3.347 4.235Zm4.086-.117v-1.381c0-1.544 1.263-2.398 2.398-3.088.948-.585 1.755-1.053 1.755-1.744 0-.596-.433-1.018-1.217-1.018s-1.345.515-1.626 1.206l-1.463-.714c.574-1.158 1.662-1.919 3.113-1.919 1.801 0 2.854 1.076 2.854 2.457 0 1.381-1.158 2.118-2.246 2.773-.936.573-1.802 1.076-1.849 1.86h4.06v1.568h-5.779Zm9.46.117c-1.51 0-2.446-.48-3.183-1.462l1.381-1.018c.421.69 1.018.982 1.802.982.842 0 1.439-.444 1.439-1.158 0-.678-.597-1.088-1.486-1.088h-.948v-1.486h.878c.901 0 1.369-.48 1.369-1.111 0-.562-.422-1.03-1.299-1.03-.772 0-1.275.339-1.603.936l-1.369-.819c.62-.948 1.65-1.521 2.96-1.521 1.837 0 2.949.959 2.949 2.387 0 .784-.386 1.416-1.007 1.825.749.386 1.217 1.03 1.217 1.942 0 1.486-1.17 2.621-3.1 2.621Z"/>
  <path fill="#FBB397" stroke="#333336" stroke-width="1.8" d="M315.667 228.666h187v32h-187z"/>
  <path fill="#333336" d="m405.611 248.666 3.229-8.541h1.626l3.23 8.541h-1.697l-.561-1.556h-3.569l-.561 1.556h-1.697Zm4.048-6.447-1.24 3.393h2.469l-1.229-3.393Zm6.731 6.576c-1.556 0-2.457-.995-2.457-2.656v-3.791h1.65v3.569c0 .889.421 1.439 1.287 1.439.76 0 1.322-.55 1.322-1.533v-3.475l1.638-.012v6.318l-1.615.012v-.796c-.409.574-1.053.925-1.825.925Zm-.293-7.032 1.334-2.001h1.65l-1.767 2.001h-1.217Zm4.822 6.903v-6.318h1.615v.796c.409-.574 1.064-.925 1.848-.925 1.498 0 2.446.983 2.446 2.633v3.814h-1.65v-3.568c0-.901-.433-1.463-1.287-1.463-.761 0-1.346.562-1.346 1.544v3.487h-1.626Zm9.493 0v-6.318h1.615v.749c.386-.55.995-.878 1.755-.878.948 0 1.591.386 1.93 1.065.398-.655 1.112-1.065 1.978-1.065 1.603 0 2.41.983 2.41 2.563v3.884h-1.661v-3.65c0-.854-.351-1.381-1.17-1.381-.726 0-1.206.491-1.206 1.486v3.545h-1.649v-3.697c0-.843-.351-1.334-1.135-1.334-.761 0-1.24.503-1.24 1.521v3.51h-1.627Zm12.677.129c-1.38 0-2.199-.772-2.199-1.884 0-1.31 1.088-2.118 2.843-2.118h1.661v-.082c0-.678-.456-1.146-1.369-1.146-.714 0-1.193.304-1.486.831l-1.486-.738c.644-.842 1.568-1.439 2.984-1.439 1.86 0 2.925.971 2.925 2.563v3.884h-1.556v-.971c-.457.655-1.322 1.1-2.317 1.1Zm.468-1.334c.772 0 1.533-.468 1.849-1.147v-.339h-1.486c-.96 0-1.346.304-1.346.796 0 .456.316.69.983.69Zm-.257-5.897 1.334-2.001h1.649l-1.766 2.001H443.3Zm7.188 7.231c-1.498 0-2.446-.562-2.949-1.568l1.556-.608c.281.561.784.854 1.451.854.655 0 1.006-.316 1.006-.691 0-.456-.678-.561-1.486-.725-1.064-.222-2.246-.55-2.246-1.884 0-1.064 1.03-1.989 2.586-1.977 1.334 0 2.129.503 2.714 1.345l-1.474.597c-.257-.421-.655-.667-1.24-.667-.632 0-.936.258-.936.609 0 .397.515.503 1.439.702 1.053.21 2.293.573 2.293 1.93 0 .983-.877 2.094-2.714 2.083Zm6.063-.129v-6.318h1.592v.971c.304-.749.936-1.088 1.743-1.088.421 0 .795.105 1.065.246l-.585 1.591c-.176-.129-.48-.222-.843-.222-.831 0-1.369.421-1.369 1.486v3.334h-1.603Zm6.633.129c-1.381 0-2.2-.772-2.2-1.884 0-1.31 1.088-2.118 2.843-2.118h1.662v-.082c0-.678-.457-1.146-1.369-1.146-.714 0-1.194.304-1.486.831l-1.486-.738c.644-.842 1.568-1.439 2.984-1.439 1.86 0 2.925.971 2.925 2.563v3.884H465.5v-.971c-.456.655-1.322 1.1-2.316 1.1Zm.468-1.334c.772 0 1.533-.468 1.848-1.147v-.339h-1.485c-.96 0-1.346.304-1.346.796 0 .456.316.69.983.69Zm-.258-5.897 1.334-2.001h1.65l-1.767 2.001h-1.217Zm8.299 7.231c-.854 0-1.568-.316-1.989-.901v3.299h-1.603v-8.845h1.591v.878c.422-.621 1.135-1.007 1.989-1.007 1.592 0 3.042 1.276 3.042 3.288 0 2.012-1.474 3.288-3.03 3.288Zm-.328-1.521c.972 0 1.744-.784 1.744-1.779 0-.994-.772-1.778-1.744-1.778-.994 0-1.754.796-1.754 1.778 0 .983.76 1.779 1.754 1.779Zm4.214 1.392v-6.318h1.649v6.318h-1.649Zm-.211-8.096c0-.609.433-1.053 1.03-1.053.62 0 1.041.444 1.041 1.053 0 .596-.421 1.029-1.041 1.029-.609 0-1.03-.433-1.03-1.029Zm5.766 8.225c-1.556 0-3.042-1.276-3.042-3.288 0-2.012 1.451-3.288 3.066-3.288.831 0 1.521.351 1.954.936v-3.72h1.591v9.231h-1.591v-.866c-.445.62-1.159.995-1.978.995Zm.316-1.521c.995 0 1.755-.796 1.755-1.779 0-.982-.76-1.778-1.755-1.778-.971 0-1.755.784-1.755 1.778 0 .995.784 1.779 1.755 1.779Zm7.443 1.521c-1.895 0-3.335-1.474-3.335-3.288 0-1.825 1.44-3.288 3.335-3.288 1.884 0 3.346 1.463 3.346 3.288 0 1.814-1.439 3.288-3.346 3.288Zm.012-1.533c.959 0 1.731-.784 1.731-1.767 0-.982-.772-1.766-1.731-1.766-.971 0-1.732.784-1.732 1.766 0 .983.761 1.767 1.732 1.767Z"/>
  <path fill="#333336" d="M321.528 276.666v-3.487h-3.451v3.487h-1.662v-8.541h1.662v3.44h3.451v-3.44h1.65v8.541h-1.65Zm5.863.129c-1.895 0-3.334-1.474-3.334-3.288 0-1.825 1.439-3.288 3.334-3.288 1.884 0 3.346 1.463 3.346 3.288 0 1.814-1.439 3.288-3.346 3.288Zm.012-1.533c.959 0 1.731-.784 1.731-1.767 0-.982-.772-1.766-1.731-1.766-.971 0-1.732.784-1.732 1.766 0 .983.761 1.767 1.732 1.767Zm4.519 3.908c-.667 0-1.334-.246-1.802-.585l.936-1.311c.223.234.492.387.854.387.574 0 .925-.258 1.241-1.007l.105-.257-2.539-6.049h1.72l1.638 4.072 1.556-4.072h1.685l-2.726 6.657c-.656 1.615-1.334 2.165-2.668 2.165Z"/>
  <path fill="#333336" d="m131.913 128.333-6.873-18.177h3.711l4.88 13.496 4.93-13.496h3.685l-6.872 18.177h-3.461Zm16.207.274c-4.332 0-7.121-3.063-7.121-6.972 0-3.909 3.038-7.022 7.047-7.022 4.034 0 6.947 2.913 6.947 6.897v1.295h-10.682c.448 1.743 1.867 2.839 3.859 2.839 1.594 0 2.665-.697 3.337-1.793l2.814 1.643c-1.345 1.893-3.237 3.113-6.201 3.113Zm-.074-11.081c-1.743 0-3.088 1.021-3.636 2.59h7.172c-.449-1.668-1.743-2.59-3.536-2.59Zm8.957 10.807v-19.621h3.437v19.621h-3.437Zm12.528.274c-4.034 0-7.097-3.137-7.097-6.997 0-3.884 3.063-6.997 7.097-6.997 4.009 0 7.121 3.113 7.121 6.997 0 3.86-3.062 6.997-7.121 6.997Zm.025-3.262c2.042 0 3.685-1.668 3.685-3.76 0-2.091-1.643-3.76-3.685-3.76-2.067 0-3.685 1.669-3.685 3.76 0 2.092 1.618 3.76 3.685 3.76Zm15.774 3.262c-4.034 0-7.071-3.088-7.071-6.997 0-3.959 3.062-6.997 7.046-6.997 3.113 0 5.503 1.718 6.549 4.258l-3.162 1.27c-.548-1.444-1.793-2.316-3.337-2.316-2.067 0-3.685 1.693-3.685 3.785 0 2.042 1.643 3.735 3.71 3.735 1.594 0 2.789-.971 3.337-2.341l3.212 1.32c-1.146 2.49-3.387 4.283-6.599 4.283Zm8.374-.274v-13.446h3.511v13.446h-3.511Zm-.449-17.231c0-1.295.922-2.241 2.192-2.241 1.319 0 2.216.946 2.216 2.241 0 1.27-.897 2.191-2.216 2.191-1.295 0-2.192-.921-2.192-2.191Zm12.451 17.505c-3.312 0-6.474-2.714-6.474-6.997 0-4.283 3.088-6.997 6.524-6.997 1.768 0 3.237.747 4.158 1.992v-7.918h3.386v19.646h-3.386v-1.843c-.946 1.32-2.465 2.117-4.208 2.117Zm.672-3.237c2.117 0 3.735-1.693 3.735-3.785 0-2.091-1.618-3.785-3.735-3.785-2.066 0-3.735 1.669-3.735 3.785 0 2.117 1.669 3.785 3.735 3.785Zm13.553 3.237c-2.939 0-4.682-1.643-4.682-4.009 0-2.789 2.316-4.507 6.051-4.507h3.536v-.174c0-1.444-.971-2.44-2.913-2.44-1.519 0-2.54.647-3.163 1.768l-3.162-1.569c1.37-1.793 3.337-3.063 6.35-3.063 3.959 0 6.225 2.067 6.225 5.453v8.267h-3.312v-2.067c-.971 1.395-2.814 2.341-4.93 2.341Zm.996-2.839c1.643 0 3.262-.996 3.934-2.44v-.722h-3.162c-2.042 0-2.864.647-2.864 1.693 0 .971.672 1.469 2.092 1.469Zm15.698 2.839c-3.312 0-6.474-2.714-6.474-6.997 0-4.283 3.087-6.997 6.524-6.997 1.767 0 3.237.747 4.158 1.992v-7.918h3.386v19.646h-3.386v-1.843c-.946 1.32-2.465 2.117-4.208 2.117Zm.672-3.237c2.117 0 3.735-1.693 3.735-3.785 0-2.091-1.618-3.785-3.735-3.785-2.067 0-3.735 1.669-3.735 3.785 0 2.117 1.668 3.785 3.735 3.785Zm-105.235 30.237c-3.311 0-6.474-2.714-6.474-6.997 0-4.283 3.088-6.997 6.524-6.997 1.768 0 3.237.747 4.158 1.992v-7.918h3.387v19.646h-3.387v-1.843c-.946 1.32-2.465 2.117-4.208 2.117Zm.673-3.237c2.116 0 3.735-1.693 3.735-3.785 0-2.091-1.619-3.785-3.735-3.785-2.067 0-3.735 1.669-3.735 3.785 0 2.117 1.668 3.785 3.735 3.785Zm16.042 3.237c-4.333 0-7.121-3.063-7.121-6.972 0-3.909 3.037-7.022 7.046-7.022 4.034 0 6.947 2.913 6.947 6.897v1.295h-10.682c.449 1.743 1.868 2.839 3.86 2.839 1.593 0 2.664-.697 3.336-1.793l2.814 1.643c-1.344 1.893-3.237 3.113-6.2 3.113Zm-.075-11.081c-1.743 0-3.087 1.021-3.635 2.59h7.171c-.448-1.668-1.743-2.59-3.536-2.59Zm21.193 11.081c-4.034 0-7.071-3.088-7.071-6.997 0-3.959 3.062-6.997 7.046-6.997 3.113 0 5.503 1.718 6.549 4.258l-3.162 1.27c-.548-1.444-1.793-2.316-3.337-2.316-2.067 0-3.685 1.693-3.685 3.785 0 2.042 1.643 3.735 3.71 3.735 1.594 0 2.789-.971 3.337-2.341l3.212 1.32c-1.146 2.49-3.387 4.283-6.599 4.283Zm12.484 0c-2.938 0-4.681-1.643-4.681-4.009 0-2.789 2.316-4.507 6.051-4.507h3.536v-.174c0-1.444-.971-2.44-2.914-2.44-1.519 0-2.539.647-3.162 1.768l-3.162-1.569c1.369-1.793 3.336-3.063 6.349-3.063 3.959 0 6.225 2.067 6.225 5.453v8.267h-3.311v-2.067c-.972 1.395-2.814 2.341-4.931 2.341Zm.996-2.839c1.644 0 3.262-.996 3.935-2.44v-.722h-3.163c-2.042 0-2.863.647-2.863 1.693 0 .971.672 1.469 2.091 1.469Zm9.648 2.565v-13.446h3.386v2.067c.648-1.594 1.992-2.316 3.71-2.316.897 0 1.693.224 2.266.523l-1.245 3.386c-.373-.274-1.021-.473-1.793-.473-1.768 0-2.913.897-2.913 3.163v7.096h-3.411Zm15.941.199c-3.311 0-6.474-2.689-6.474-6.947s3.088-6.972 6.524-6.972c1.793 0 3.287.797 4.183 2.042v-1.768h3.437v12.45c0 3.909-2.914 6.748-7.047 6.748-3.063 0-5.08-.896-6.599-2.664l2.839-2.216c.896 1.17 1.892 1.817 3.66 1.817 2.167 0 3.71-1.469 3.71-3.585v-1.021c-.946 1.319-2.49 2.116-4.233 2.116Zm.673-3.187c2.116 0 3.735-1.668 3.735-3.785 0-2.116-1.619-3.785-3.735-3.785-2.067 0-3.735 1.644-3.735 3.785 0 2.117 1.668 3.785 3.735 3.785Zm13.503 3.262c-2.938 0-4.681-1.643-4.681-4.009 0-2.789 2.316-4.507 6.051-4.507h3.536v-.174c0-1.444-.971-2.44-2.914-2.44-1.518 0-2.539.647-3.162 1.768l-3.162-1.569c1.369-1.793 3.336-3.063 6.349-3.063 3.959 0 6.225 2.067 6.225 5.453v8.267h-3.311v-2.067c-.971 1.395-2.814 2.341-4.931 2.341Zm.996-2.839c1.644 0 3.262-.996 3.935-2.44v-.722h-3.163c-2.041 0-2.863.647-2.863 1.693 0 .971.672 1.469 2.091 1.469Zm-92.074 29.839c-3.311 0-6.474-2.714-6.474-6.997 0-4.283 3.088-6.997 6.524-6.997 1.768 0 3.237.747 4.158 1.992v-7.918h3.387v19.646h-3.387v-1.843c-.946 1.32-2.465 2.117-4.208 2.117Zm.673-3.237c2.116 0 3.735-1.693 3.735-3.785 0-2.091-1.619-3.785-3.735-3.785-2.067 0-3.735 1.669-3.735 3.785 0 2.117 1.668 3.785 3.735 3.785Zm16.042 3.237c-4.333 0-7.121-3.063-7.121-6.972 0-3.909 3.037-7.022 7.046-7.022 4.034 0 6.947 2.913 6.947 6.897v1.295h-10.682c.449 1.743 1.868 2.839 3.86 2.839 1.593 0 2.664-.697 3.336-1.793l2.814 1.643c-1.344 1.893-3.237 3.113-6.2 3.113Zm-.075-11.081c-1.743 0-3.087 1.021-3.635 2.59h7.171c-.448-1.668-1.743-2.59-3.536-2.59Zm22.189 11.081c-1.818 0-3.336-.672-4.233-1.917v7.021h-3.411v-18.824h3.386v1.868c.897-1.32 2.416-2.142 4.233-2.142 3.387 0 6.474 2.714 6.474 6.997 0 4.283-3.137 6.997-6.449 6.997Zm-.697-3.237c2.067 0 3.71-1.668 3.71-3.785 0-2.116-1.643-3.785-3.71-3.785-2.117 0-3.735 1.694-3.735 3.785 0 2.092 1.618 3.785 3.735 3.785Zm13.182 3.237c-2.938 0-4.681-1.643-4.681-4.009 0-2.789 2.316-4.507 6.051-4.507h3.536v-.174c0-1.444-.971-2.44-2.914-2.44-1.519 0-2.539.647-3.162 1.768l-3.162-1.569c1.369-1.793 3.336-3.063 6.349-3.063 3.959 0 6.225 2.067 6.225 5.453v8.267h-3.311v-2.067c-.972 1.395-2.814 2.341-4.931 2.341Zm.996-2.839c1.644 0 3.262-.996 3.935-2.44v-.722h-3.163c-2.042 0-2.863.647-2.863 1.693 0 .971.672 1.469 2.091 1.469Zm-.547-12.549 2.838-4.258h3.511l-3.76 4.258h-2.589Zm16.245 15.313c-3.311 0-6.474-2.689-6.474-6.947s3.088-6.972 6.524-6.972c1.793 0 3.287.797 4.183 2.042v-1.768h3.437v12.45c0 3.909-2.914 6.748-7.047 6.748-3.063 0-5.08-.896-6.599-2.664l2.839-2.216c.896 1.17 1.892 1.817 3.66 1.817 2.167 0 3.71-1.469 3.71-3.585v-1.021c-.946 1.319-2.49 2.116-4.233 2.116Zm.673-3.187c2.116 0 3.735-1.668 3.735-3.785 0-2.116-1.619-3.785-3.735-3.785-2.067 0-3.735 1.644-3.735 3.785 0 2.117 1.668 3.785 3.735 3.785Zm9.441 2.988v-13.446h3.511v13.446h-3.511Zm-.448-17.231c0-1.295.921-2.241 2.191-2.241 1.32 0 2.216.946 2.216 2.241 0 1.27-.896 2.191-2.216 2.191-1.295 0-2.191-.921-2.191-2.191Zm6.449 17.231v-13.446h3.436v1.693c.871-1.22 2.266-1.967 3.934-1.967 3.187 0 5.204 2.092 5.204 5.603v8.117h-3.511v-7.594c0-1.918-.921-3.113-2.739-3.113-1.618 0-2.863 1.195-2.863 3.287v7.42h-3.461Zm19.132.274c-2.938 0-4.681-1.643-4.681-4.009 0-2.789 2.316-4.507 6.051-4.507h3.535v-.174c0-1.444-.971-2.44-2.913-2.44-1.519 0-2.54.647-3.162 1.768l-3.162-1.569c1.369-1.793 3.336-3.063 6.349-3.063 3.959 0 6.225 2.067 6.225 5.453v8.267h-3.312v-2.067c-.971 1.395-2.813 2.341-4.93 2.341Zm.996-2.839c1.644 0 3.262-.996 3.934-2.44v-.722h-3.162c-2.042 0-2.863.647-2.863 1.693 0 .971.672 1.469 2.091 1.469Z"/>
</svg>
