<svg width="24" height="24" fill="none" xmlns="http://www.w3.org/2000/svg"><path d="M12.05 13.171c-.216-.145-.36-.217-.578-.361-.796-.507-1.52-.941-2.316-1.447-.506-.29-.58-.29-.796.216a4.877 4.877 0 0 1-.65 1.013c-.218.361-.146.506.216.724 1.375.796 2.749 1.592 4.052 2.387.434.29.651.217.94-.144a234.196 234.196 0 0 0 3.836-5.065l2.388-3.258c.217-.216.145-.434-.072-.724a9.422 9.422 0 0 0-2.533-2.241A8.95 8.95 0 0 0 4.67 6.73C1.704 10.855 2.79 16.861 7.13 19.54a8.938 8.938 0 0 0 10.13-.29 8.9 8.9 0 0 0 3.475-9.406c-.072-.435-.29-.869-.435-1.375-.13.055-.251.128-.361.216l-1.302 1.738a.438.438 0 0 0-.072.29c0 .506.072.94.072 1.447-.074 2.676-1.883 5.208-4.415 6.076-2.75.94-5.644.145-7.38-1.953a6.64 6.64 0 0 1 .434-8.829c2.46-2.531 6.223-2.749 9.044-.578.217.145.29.29.072.58-.506.65-1.013 1.374-1.52 2.025-.94 1.158-1.809 2.388-2.822 3.69" fill="#fff"/></svg>
