<svg width="24" height="24" fill="none" xmlns="http://www.w3.org/2000/svg"><path d="M5.5 3A2.5 2.5 0 0 0 3 5.5V9h1.75V5.5a.75.75 0 0 1 .75-.75H9V3H5.5ZM11 10.25a.75.75 0 0 1-.75.75h-2.5a.75.75 0 0 1-.75-.75v-2.5A.75.75 0 0 1 7.75 7h2.5a.75.75 0 0 1 .75.75v2.5ZM17 15h-2v-2h2v-2h-2V9h2V7h-2v2h-2v2h2v2h-2v2h-2v-2H9v2H7v2h2v-2h2v2h2v-2h2v2h2v-2ZM3 18.5V15h1.75v3.5c0 .414.336.75.75.75H9V21H5.5A2.5 2.5 0 0 1 3 18.5ZM15 3h3.5A2.5 2.5 0 0 1 21 5.5V9h-1.75V5.5a.75.75 0 0 0-.75-.75H15V3ZM21 18.5V15h-1.75v3.5a.75.75 0 0 1-.75.75H15V21h3.5a2.5 2.5 0 0 0 2.5-2.5Z" fill="#fff"/></svg>
