<svg width="24" height="24" fill="none" xmlns="http://www.w3.org/2000/svg"><path fill-rule="evenodd" clip-rule="evenodd" d="M0 4.75a2.5 2.5 0 0 1 2.5-2.5h8a2.5 2.5 0 0 1 2.5 2.5v4.5a2.5 2.5 0 0 1-2.5 2.5h-8A2.5 2.5 0 0 1 0 9.25v-4.5ZM2.5 4a.75.75 0 0 0-.75.75v4.5c0 .414.336.75.75.75h7.75V4H2.5Z" fill="#fff"/><path d="M20.275 7.75H14.75V6h5.525a2.5 2.5 0 0 1 2.5 2.5v9.75c0 .818-.393 1.544-1 2H24V22H2v-1.75h3.25a2.497 2.497 0 0 1-1-2V13.5H6v4.75c0 .414.336.75.75.75h13.525a.75.75 0 0 0 .75-.75V8.5a.75.75 0 0 0-.75-.75Z" fill="#fff"/></svg>
