<?xml version="1.0" encoding="UTF-8"?>
<svg id="Layer_1" data-name="Layer 1" xmlns="http://www.w3.org/2000/svg" viewBox="0 0 512 512">
  <defs>
    <style>
      .cls-1 {
        fill: #010101;
      }

      .cls-2 {
        fill: #7644e4;
      }

      .cls-3 {
        fill: #e22a51;
      }

      .cls-4, .cls-5 {
        fill: #fff;
      }

      .cls-6 {
        fill: #ab71ff;
      }

      .cls-7 {
        fill: #ff4f5e;
      }

      .cls-5 {
        isolation: isolate;
        opacity: .6;
      }
    </style>
  </defs>
  <path class="cls-5" d="M368.02,199.23l-98.92,94.66c-8.77,6.24-18.12,6.69-27.34,1.03l-97.02-95.34c2.77-4.45,5.88-8.67,9.31-12.64l10.18,9.53c25.48,23.88,46.08,43.17,75.11,67.95,13.1,11.18,17.17,10.97,30.03,0,33.21-28.36,57.51-49.81,89.09-78.02,3.52,4.02,6.71,8.31,9.55,12.83h0s0,0,0,0Z"/>
  <path class="cls-4" d="M274.06,92.42c13.39-4.22,12.22-17.47,12.22-17.47,0,0-6.7-7.89-19.97-3.52-12.42,4.09-14.35,12.94-14.35,12.94,0,0,6.79,12.87,22.1,8.05h0Z"/>
  <path class="cls-7" d="M406.28,442.38c-20.52,12.07-40.98,24.24-61.58,36.18-13.3,7.71-26.34,16.1-40.3,22.39-35.94,16.21-71.82,14.55-106.16-4.69-41-22.98-81.61-46.66-122.15-70.45-20.44-12-31.11-30.33-31.21-54.22-.16-38.83-.04-77.67-.04-116.5,0-1.72,0-3.44,0-6.52,2.76,1.41,4.77,2.31,6.66,3.41,83.87,48.39,167.72,96.8,251.61,145.14,4.29,2.47,8.95,4.31,13.97,7.15,1.35.92,2.16,1.13,2.97,1.34,0,0-.15-.03,0,.34,4.5,3.13,8.76,6.02,13.19,8.63,12.46,7.32,24.91,14.65,37.5,21.72,11.06,6.21,23.1,7.45,35.53,6.08Z"/>
  <path class="cls-6" d="M106.01,69.52c14.68-8.75,29.3-17.58,44.04-26.22,15.14-8.88,30.33-17.69,45.61-26.33,38.74-21.88,78.24-22.87,117.11-1.45,41.94,23.11,83.19,47.48,124.45,71.81,18.92,11.16,29.17,28.75,29.57,50.52.76,40.99.24,82.01.24,123.02,0,.62-.2,1.23-.47,2.73-8.33-4.73-16.37-9.24-24.36-13.85-78.08-45.07-156.13-90.18-234.25-135.2-4.28-2.47-9.02-4.15-14.04-6.87-.93-.96-1.36-1.23-1.8-1.51,0,0,.09-.02-.13-.37-9.71-5.99-19.19-11.64-28.69-17.27-17.72-10.5-35.05-22.16-57.3-19.01Z"/>
  <path class="cls-1" d="M324.35,295.37c-12.93,19.62-34.24,24.98-54.09,13.65-22.72-12.96-45.37-26.06-67.96-39.24-19.29-11.26-25.75-34.92-14.77-53.35,11.26-18.89,34.26-24.65,53.69-13.44,22.47,12.97,45.04,25.77,67.38,38.96,20.11,11.87,25.98,31.92,15.75,53.42Z"/>
  <path class="cls-3" d="M406.63,442.1c-12.77,1.66-24.81.41-35.88-5.79-12.6-7.07-25.05-14.41-37.5-21.72-4.43-2.6-8.7-5.49-13.17-8.7,14.83,3.15,29.77,4.24,44.7-.67,39.19-12.86,59.66-54.62,45.8-93.48-.55-1.54-1.13-3.06-1.84-4.97,22.5,7.47,41.99,36.23,42.77,62.3.97,32.46-17.09,61.96-44.87,73.03Z"/>
  <path class="cls-2" d="M105.75,69.6c22.5-3.24,39.83,8.43,57.55,18.93,9.5,5.63,18.98,11.28,28.68,17.31-7.02-.51-14.23-2.11-21.47-2.2-52.08-.69-86.88,47.44-70.13,96.69.47,1.37.93,2.75,1.87,5.55-24.19-13.12-38.65-31.79-41.45-57.86-3.75-34.85,11.36-60.24,42.55-77.06,1.2-.29,1.51-.57,1.7-.99,0,0,.45-.27.7-.36Z"/>
</svg>