<svg xmlns="http://www.w3.org/2000/svg" xml:space="preserve" viewBox="0 0 24 24"><path fill="#fff" d="M23.2 7.9c0-5.2-3.4-6.7-3.4-6.7C18.1.4 15.1 0 12 0 8.9 0 6 .4 4.3 1.1c0 0-3.4 1.5-3.4 6.7v4.1c.1 5.2.9 10.2 5.6 11.5 2.2.6 4 .7 5.5.6 2.7-.2 4.2-1 4.2-1l-.1-2s-1.9.6-4.1.5c-2.2-.1-4.4-.2-4.8-2.9v-.7s2.1.5 4.8.6c1.6.1 3.2-.1 4.8-.3 3-.4 5.6-2.2 6-3.9.4-2.6.4-6.4.4-6.4zm-4 6.7h-2.5V8.5c0-1.3-.5-1.9-1.6-1.9-1.2 0-1.8.8-1.8 2.3v3.3h-2.5V8.8c0-1.5-.6-2.3-1.8-2.3-1.1 0-1.6.7-1.6 1.9v6.1H4.8V8.3c0-1.3.3-2.3 1-3.1.7-.8 1.6-1.1 2.7-1.1 1.3 0 2.2.5 2.9 1.5l.6 1 .6-1c.6-1 1.6-1.5 2.9-1.5 1.1 0 2 .4 2.7 1.1.7.8 1 1.8 1 3.1v6.3z"/></svg>
