<svg width="79" height="421" fill="none" xmlns="http://www.w3.org/2000/svg"><path fill-rule="evenodd" clip-rule="evenodd" d="M7.067 376.172c-.08.371-.088.751-.025 1.12v34.868c0 4.864 3.986 8.84 8.863 8.84h47.231c4.878 0 8.864-3.976 8.864-8.84v-35.325l-.001-.121C71.93 371.907 67.97 368 63.136 368h-47.23c-4.653 0-8.494 3.617-8.839 8.172Zm59.024 6.286L41.194 399.84a2.962 2.962 0 0 1-3.388 0L12.95 382.488v29.672c0 1.61 1.34 2.946 2.954 2.946h47.231c1.614 0 2.955-1.336 2.955-2.946v-29.702Zm-.332-6.962L39.5 393.829l-26.228-18.311a2.978 2.978 0 0 1 2.633-1.624h47.231c1.131 0 2.127.656 2.623 1.602Z" fill="#000"/><path d="M54.166 3.188h7.82L44.9 23.3 65 50.67H49.262l-12.326-16.6-14.104 16.6h-7.825l18.274-21.514L14 3.187h16.137L41.28 18.36 54.165 3.188Zm-2.745 42.66h4.333L27.783 7.757h-4.65L51.42 45.849ZM33.436 333v-28.744H23.75v-11.182h9.686v-8.269c0-9.568 5.828-14.805 14.372-14.805 4.095 0 7.6.315 8.623.433v10.001h-5.906c-4.646 0-5.552 2.205-5.552 5.434v7.166h11.104l-1.457 11.222h-9.647V333H33.436ZM72.333 197.1s-.655-4.619-2.67-6.648c-2.552-2.669-5.404-2.682-6.713-2.839-9.37-.681-23.437-.681-23.437-.681h-.026s-14.068 0-23.437.681c-1.309.157-4.161.17-6.713 2.839-2.015 2.029-2.657 6.648-2.657 6.648S6 202.531 6 207.948v5.078c0 5.417.667 10.848.667 10.848s.655 4.619 2.657 6.648c2.552 2.669 5.902 2.578 7.393 2.865 5.366.511 22.783.668 22.783.668s14.08-.026 23.45-.694c1.309-.157 4.161-.17 6.713-2.839 2.015-2.029 2.67-6.648 2.67-6.648s.667-5.418.667-10.848v-5.078c0-5.417-.667-10.848-.667-10.848Zm-39.755 22.089v-18.83l18.097 9.448-18.097 9.382Z" fill="#000"/><g clip-path="url(#a)" fill="#000"><path d="M39.5 93.033c8.95 0 10.01.039 13.53.196 3.272.144 5.039.694 6.217 1.151 1.557.602 2.682 1.335 3.847 2.5 1.178 1.178 1.897 2.29 2.5 3.847.457 1.178 1.007 2.958 1.15 6.216.158 3.533.197 4.593.197 13.531 0 8.951-.039 10.011-.196 13.531-.144 3.271-.694 5.038-1.152 6.216-.602 1.557-1.334 2.682-2.5 3.847-1.177 1.178-2.29 1.897-3.846 2.499-1.178.458-2.958 1.008-6.216 1.152-3.533.157-4.593.196-13.531.196-8.95 0-10.01-.039-13.53-.196-3.272-.144-5.039-.694-6.217-1.152-1.557-.602-2.682-1.335-3.847-2.499-1.178-1.178-1.897-2.29-2.5-3.847-.457-1.178-1.007-2.958-1.15-6.216-.158-3.534-.197-4.593-.197-13.531 0-8.951.039-10.011.196-13.531.144-3.272.694-5.038 1.152-6.216.602-1.557 1.334-2.683 2.5-3.847 1.177-1.178 2.29-1.898 3.846-2.5 1.178-.457 2.958-1.007 6.216-1.151 3.52-.157 4.58-.196 13.531-.196Zm0-6.033c-9.095 0-10.233.04-13.806.196-3.559.157-6.006.733-8.126 1.558-2.212.863-4.083 2.002-5.941 3.873-1.871 1.858-3.01 3.73-3.873 5.928-.825 2.133-1.4 4.567-1.558 8.126C6.04 110.267 6 111.405 6 120.5s.04 10.233.196 13.806c.157 3.559.733 6.006 1.558 8.126.863 2.212 2.002 4.083 3.873 5.941 1.858 1.858 3.73 3.01 5.928 3.86 2.133.825 4.567 1.401 8.126 1.558 3.573.157 4.711.196 13.806.196 9.095 0 10.233-.039 13.806-.196 3.559-.157 6.006-.733 8.126-1.558 2.198-.85 4.07-2.002 5.928-3.86 1.858-1.858 3.01-3.729 3.86-5.928.825-2.133 1.4-4.567 1.558-8.126.156-3.573.196-4.711.196-13.806 0-9.095-.04-10.233-.197-13.806-.157-3.559-.732-6.006-1.557-8.126-.824-2.225-1.963-4.096-3.834-5.954-1.858-1.858-3.73-3.01-5.928-3.86-2.133-.825-4.567-1.4-8.126-1.558C49.733 87.04 48.595 87 39.5 87Z"/><path d="M39.5 103.292c-9.5 0-17.208 7.708-17.208 17.208 0 9.5 7.708 17.208 17.208 17.208 9.5 0 17.208-7.708 17.208-17.208 0-9.5-7.708-17.208-17.208-17.208Zm0 28.37c-6.163 0-11.162-4.999-11.162-11.162 0-6.163 4.998-11.162 11.162-11.162 6.163 0 11.162 4.999 11.162 11.162 0 6.163-4.998 11.162-11.162 11.162ZM61.406 102.611a4.019 4.019 0 0 1-8.035 0 4.018 4.018 0 0 1 4.017-4.017 4.027 4.027 0 0 1 4.018 4.017Z"/></g><defs><clipPath id="a"><path fill="#fff" transform="translate(6 87)" d="M0 0h67v67H0z"/></clipPath></defs></svg>
