<?xml version="1.0" encoding="utf-8"?>
<!-- Generator: Adobe Illustrator 26.3.1, SVG Export Plug-In . SVG Version: 6.00 Build 0)  -->
<svg version="1.1" id="Layer_1" xmlns="http://www.w3.org/2000/svg" xmlns:xlink="http://www.w3.org/1999/xlink" x="0px" y="0px"
	 viewBox="0 0 288 150" style="enable-background:new 0 0 288 150;" xml:space="preserve">
<style type="text/css">
	.st0{fill:#FFFFFF;stroke:#333336;stroke-width:1.7815;}
	.st1{fill:#9059FF;}
	.st2{fill:none;stroke:#000000;stroke-width:1.7815;stroke-linecap:round;stroke-linejoin:round;}
	.st3{fill:none;stroke:#000000;stroke-width:1.7815;stroke-miterlimit:10;}
	.st4{fill:#FFFFFF;stroke:#333336;stroke-width:1.7815;stroke-linecap:round;stroke-linejoin:round;stroke-miterlimit:4;}
	.st5{fill:none;stroke:#333336;stroke-width:1.7815;stroke-linejoin:round;}
	.st6{fill:#FFFFFF;stroke:#000000;stroke-width:1.7815;stroke-miterlimit:10;}
	.st7{fill:#6F4AE7;stroke:#231F20;stroke-width:1.7815;stroke-miterlimit:10;}
	.st8{fill:none;stroke:#000000;stroke-width:1.7815;stroke-linecap:round;}
</style>
<path class="st0" d="M114.4,5.5h50c7.1,0,12.8,5.7,12.8,12.8v115.1c0,7.1-5.7,12.8-12.8,12.8h-50c-7.1,0-12.8-5.7-12.8-12.8V18.3
	C101.6,11.2,107.3,5.5,114.4,5.5z"/>
<path class="st1" d="M114.1,10.1h50.8c4.1,0,7.5,3.3,7.5,7.5v116.9c0,4.1-3.3,7.5-7.5,7.5h-50.8c-4.1,0-7.5-3.3-7.5-7.5V17.5
	C106.6,13.4,109.9,10.1,114.1,10.1z"/>
<path id="invert-stroke_00000150065929527733113680000000055146706297307271_" class="st2" d="M63.7,15.7v8"/>
<path id="invert-stroke" class="st2" d="M67.7,19.7h-8"/>
<path id="invert-stroke_00000083778662193228008640000008060023000794033086_" class="st2" d="M7,121.1v8"/>
<path id="invert-stroke_00000063623443731461672750000015012811960263253395_" class="st2" d="M11,125.1H3"/>
<path id="invert-stroke_00000062870496166986595020000011393399812828711837_" class="st3" d="M191.6,10.4c2.3,0,4.1-1.9,4.1-4.1
	s-1.9-4.1-4.1-4.1c-2.3,0-4.1,1.9-4.1,4.1S189.3,10.4,191.6,10.4z"/>
<path class="st4" d="M12.6,60.5l87.5-28.4c2.5-0.8,5.2,0.6,6.1,3.1l19.7,60.7c0.8,2.5-0.6,5.2-3.1,6.1l-87.5,28.4
	c-2.5,0.8-5.2-0.6-6.1-3.1L9.5,66.6C8.7,64.1,10,61.3,12.6,60.5z"/>
<path class="st5" d="M10,61.7l61.1,29.3l30.7-59.1"/>
<path class="st6" d="M201,59.3l5.7-21.4c1.5-5.4,5-10.1,9.9-12.9c4.9-2.8,10.7-3.6,16.1-2.1c5.4,1.5,10.1,5,12.9,9.9
	c2.8,4.9,3.6,10.7,2.1,16.1L242,70.3l11.6,3.1l5.5-20.5c2.3-8.5,1.1-17.6-3.3-25.2c-4.4-7.6-11.7-13.2-20.2-15.5
	c-8.5-2.3-17.6-1.1-25.3,3.3c-7.6,4.4-13.2,11.7-15.5,20.2l-5.5,20.5L201,59.3z"/>
<path class="st7" d="M261.7,72.4l-78.9-21.1c-3.4-0.9-6.8,1.1-7.7,4.4l-15.4,57.3c-0.9,3.3,1.1,6.8,4.4,7.7l78.9,21.1
	c3.4,0.9,6.8-1.1,7.7-4.4l15.4-57.3C267.1,76.8,265.1,73.3,261.7,72.4z"/>
<line id="invert-stroke_00000144305686309308587890000007241125108130759592_" class="st8" x1="267.7" y1="59.9" x2="273.6" y2="53.1"/>
<line id="invert-stroke_00000160180728895745121490000005860892286829653681_" class="st8" x1="274.4" y1="67.7" x2="284.1" y2="63.8"/>
<line id="invert-stroke_00000115481141643652198040000010933620397816417945_" class="st8" x1="275.9" y1="79.8" x2="285.7" y2="81.7"/>
<line id="invert-stroke_00000005224957066597344590000008899547396420870554_" class="st8" x1="274.1" y1="91.5" x2="280.6" y2="97.6"/>
<path class="st6" d="M224.2,93.9c-0.4,1.7-1.3,3.2-2.5,4.4c-1.2,1.2-2.7,2.2-4.3,2.7l-1.9,7c-0.4,1.4-1.3,2.6-2.5,3.3
	c-1.2,0.7-2.7,0.9-4.1,0.5c-1.4-0.4-2.6-1.3-3.3-2.5c-0.7-1.2-0.9-2.7-0.5-4.1l1.9-7c-1.2-1.3-2.1-2.9-2.5-4.6
	c-0.4-1.7-0.3-3.5,0.2-5.2c0.5-1.7,1.4-3.2,2.7-4.4c1.3-1.2,2.9-2.1,4.6-2.5c1.7-0.4,3.5-0.4,5.2,0.1c1.7,0.5,3.3,1.4,4.5,2.7
	c1.2,1.3,2.1,2.8,2.6,4.5C224.7,90.4,224.7,92.2,224.2,93.9L224.2,93.9z"/>
</svg>
