<svg width="257" height="70" viewBox="0 0 257 70" fill="none" xmlns="http://www.w3.org/2000/svg">
<path d="M5.36745 63.9775H7.7892V55.0849L12.1677 63.2026L16.5656 55.0849V63.9775H18.968V50.6676H16.5656L12.1677 58.7853L7.7892 50.6676H5.36745V63.9775ZM26.3207 64.21C29.2268 64.21 31.6873 61.8077 31.6873 58.9597C31.6873 56.1117 29.2268 53.7287 26.3207 53.7287C23.4146 53.7287 20.9541 56.1117 20.9541 58.9597C20.9541 61.8077 23.4146 64.21 26.3207 64.21ZM26.3207 62.1951C24.6546 62.1951 23.2597 60.7227 23.2597 58.9597C23.2597 57.216 24.6546 55.7436 26.3207 55.7436C27.9675 55.7436 29.3625 57.216 29.3625 58.9597C29.3625 60.7227 27.9675 62.1951 26.3207 62.1951ZM32.9669 63.9775H41.4334V61.9045H36.0474L41.3753 55.6855L41.3946 53.9612H33.0832V56.0342H38.2754L32.9669 62.2533V63.9775ZM44.4093 52.45C45.1455 52.45 45.7461 51.8107 45.7461 51.0938C45.7461 50.377 45.1455 49.757 44.4093 49.757C43.6537 49.757 43.0531 50.377 43.0531 51.0938C43.0531 51.8107 43.6537 52.45 44.4093 52.45ZM43.2081 63.9775H45.5717V53.9612H43.2081V63.9775ZM47.8205 63.9775H50.1841V50.4351H47.8205V63.9775ZM52.4329 63.9775H54.7965V50.4351H52.4329V63.9775ZM61.4044 53.7287C60.1451 53.7287 58.8277 54.0774 57.4134 54.7749L58.2271 56.4217C59.0795 55.9955 59.9901 55.6661 60.9394 55.6661C62.7606 55.6661 63.3999 56.7898 63.3999 57.9522V58.2235C62.4894 57.8747 61.5013 57.681 60.5907 57.681C58.3433 57.681 56.5028 59.0372 56.5028 61.0133C56.5028 62.9507 58.1108 64.21 60.242 64.21C61.4044 64.21 62.6637 63.7063 63.3999 62.7764V63.9775H65.7054V57.9522C65.7054 55.4142 64.0586 53.7287 61.4044 53.7287ZM60.7651 62.4857C59.6414 62.4857 58.8083 61.8851 58.8083 60.9358C58.8083 59.9865 59.7576 59.3278 60.9394 59.3278C61.8306 59.3278 62.6637 59.4634 63.3999 59.7153V60.839C63.1287 61.9045 61.9081 62.4857 60.7651 62.4857ZM83.2346 50.6676L79.011 60.7615L74.7875 50.6676H72.1139L77.6742 63.9775H80.3672L85.9275 50.6676H83.2346ZM87.3257 63.9775H89.7474V59.5021H93.1185C95.9665 59.5021 98.0976 57.681 98.0976 55.0849C98.0976 52.4888 95.9665 50.6676 93.1185 50.6676H87.3257V63.9775ZM89.7474 57.2741V52.8956H92.8472C94.494 52.8956 95.6371 53.7287 95.6371 55.0849C95.6371 56.4411 94.494 57.2741 92.8472 57.2741H89.7474ZM99.8128 63.9775H102.235V54.6199L109.267 63.9775H111.67V50.6676H109.267V60.0252L102.235 50.6676H99.8128V63.9775ZM128.392 56.4992H124.847V52.8956H122.735V56.4992H119.189V58.5141H122.735V62.0983H124.847V58.5141H128.392V56.4992ZM145.738 52.8762V50.6676H135.721V63.9775H138.143V58.456H145.021V56.2473H138.143V52.8762H145.738ZM148.609 52.45C149.345 52.45 149.946 51.8107 149.946 51.0938C149.946 50.377 149.345 49.757 148.609 49.757C147.854 49.757 147.253 50.377 147.253 51.0938C147.253 51.8107 147.854 52.45 148.609 52.45ZM147.408 63.9775H149.772V53.9612H147.408V63.9775ZM154.442 55.8986V53.9612H152.079V63.9775H154.442V58.9209C154.442 57.0223 155.876 55.7436 158.026 55.7436V53.7287C156.38 53.7287 155.081 54.5618 154.442 55.8986ZM164.083 62.1176C162.649 62.1176 161.603 61.1489 161.313 59.7734H168.869C168.869 56.073 167.067 53.7287 163.967 53.7287C161.119 53.7287 158.872 55.9373 158.872 58.9403C158.872 62.0208 161.235 64.21 164.103 64.21C165.556 64.21 167.299 63.5901 168.171 62.6601L166.679 61.1102C166.117 61.6914 165.013 62.1176 164.083 62.1176ZM164.064 55.8211C165.478 55.8211 166.331 56.7123 166.602 57.9716H161.332C161.681 56.6542 162.746 55.8211 164.064 55.8211ZM173.576 53.1281C173.576 52.45 174.002 51.9657 174.564 51.9657C174.971 51.9657 175.339 52.1207 175.552 52.3338L176.23 50.8226C175.668 50.3383 174.855 50.0283 174.099 50.0283C172.433 50.0283 171.271 51.2295 171.271 52.915V53.9612H169.818V55.918H171.271V63.9775H173.576V55.918H175.843V53.9612H173.576V53.1281ZM182.204 64.21C185.11 64.21 187.571 61.8077 187.571 58.9597C187.571 56.1117 185.11 53.7287 182.204 53.7287C179.298 53.7287 176.838 56.1117 176.838 58.9597C176.838 61.8077 179.298 64.21 182.204 64.21ZM182.204 62.1951C180.538 62.1951 179.143 60.7227 179.143 58.9597C179.143 57.216 180.538 55.7436 182.204 55.7436C183.851 55.7436 185.246 57.216 185.246 58.9597C185.246 60.7227 183.851 62.1951 182.204 62.1951ZM198.441 63.9775L194.682 58.8434L198.266 53.9612H195.69L193.403 57.0804L191.117 53.9612H188.521L192.105 58.8628L188.347 63.9775H190.924L193.384 60.6258L195.825 63.9775H198.441ZM215.843 63.9775L212.51 59.2503C214.429 58.6497 215.727 57.0998 215.727 55.0849C215.727 52.4888 213.595 50.6676 210.747 50.6676H204.955V63.9775H207.376V59.5021H209.953L213.092 63.9775H215.843ZM207.376 52.8956H210.476C212.123 52.8956 213.266 53.7287 213.266 55.0849C213.266 56.4411 212.123 57.2741 210.476 57.2741H207.376V52.8956ZM222.143 62.1176C220.709 62.1176 219.663 61.1489 219.372 59.7734H226.928C226.928 56.073 225.126 53.7287 222.027 53.7287C219.179 53.7287 216.931 55.9373 216.931 58.9403C216.931 62.0208 219.295 64.21 222.162 64.21C223.615 64.21 225.359 63.5901 226.231 62.6601L224.739 61.1102C224.177 61.6914 223.073 62.1176 222.143 62.1176ZM222.123 55.8211C223.538 55.8211 224.39 56.7123 224.661 57.9716H219.392C219.74 56.6542 220.806 55.8211 222.123 55.8211ZM228.613 63.9775H230.977V50.4351H228.613V63.9775ZM237.585 53.7287C236.326 53.7287 235.008 54.0774 233.594 54.7749L234.408 56.4217C235.26 55.9955 236.171 55.6661 237.12 55.6661C238.941 55.6661 239.581 56.7898 239.581 57.9522V58.2235C238.67 57.8747 237.682 57.681 236.771 57.681C234.524 57.681 232.683 59.0372 232.683 61.0133C232.683 62.9507 234.291 64.21 236.423 64.21C237.585 64.21 238.844 63.7063 239.581 62.7764V63.9775H241.886V57.9522C241.886 55.4142 240.239 53.7287 237.585 53.7287ZM236.946 62.4857C235.822 62.4857 234.989 61.8851 234.989 60.9358C234.989 59.9865 235.938 59.3278 237.12 59.3278C238.011 59.3278 238.844 59.4634 239.581 59.7153V60.839C239.309 61.9045 238.089 62.4857 236.946 62.4857ZM246.116 67.4649C247.627 67.4455 248.79 66.5737 249.545 64.675L253.788 53.9612H251.347L248.596 61.4395L245.671 53.9612H243.171L247.414 64.055L246.988 64.9462C246.697 65.4306 246.271 65.605 245.709 65.605C245.341 65.605 244.857 65.4693 244.431 65.2368L243.927 66.9418C244.527 67.2711 245.361 67.4649 246.116 67.4649Z" fill="#45278D"/>
<path fill-rule="evenodd" clip-rule="evenodd" d="M94.7907 4.08533C94.1475 4.08533 93.5305 4.34087 93.0756 4.79575C92.6208 5.25062 92.3652 5.86757 92.3652 6.51086C92.3652 7.15415 92.6208 7.77109 93.0756 8.22597C93.5305 8.68084 94.1475 8.93639 94.7907 8.93639C95.434 8.93639 96.051 8.68084 96.5059 8.22597C96.9607 7.77109 97.2163 7.15415 97.2163 6.51086C97.2163 5.86757 96.9607 5.25062 96.5059 4.79575C96.051 4.34087 95.434 4.08533 94.7907 4.08533ZM89.1312 6.51086C89.1314 5.27179 89.5383 4.06704 90.2894 3.08155C91.0405 2.09605 92.0942 1.38427 93.2889 1.05546C94.4835 0.726643 95.753 0.798968 96.9026 1.26133C98.0522 1.72369 99.0183 2.55054 99.6526 3.61496C100.287 4.67937 100.554 5.92253 100.414 7.15362C100.273 8.38471 99.7328 9.53569 98.8751 10.4299C98.0173 11.3241 96.8899 11.9121 95.6657 12.1036C94.4415 12.2952 93.1883 12.0797 92.0984 11.4903L89.6628 13.9259C89.8477 14.2645 89.9973 14.6243 90.1095 15.0002H99.472C99.8061 13.88 100.479 12.8907 101.398 12.1683C102.317 11.4458 103.437 11.0257 104.604 10.9656C105.772 10.9054 106.929 11.2083 107.918 11.8324C108.906 12.4566 109.677 13.3716 110.124 14.4515C110.572 15.5315 110.674 16.7235 110.416 17.8638C110.159 19.004 109.555 20.0366 108.687 20.8197C107.819 21.6028 106.73 22.0979 105.569 22.237C104.408 22.3761 103.233 22.1524 102.205 21.5966L99.7691 24.0323C100.416 25.2281 100.61 26.6168 100.317 27.9442C100.024 29.2716 99.2627 30.4492 98.1727 31.2616C97.0827 32.074 95.7368 32.4669 94.3809 32.3685C93.025 32.2701 91.7499 31.687 90.7886 30.7257C89.8274 29.7645 89.2442 28.4893 89.1458 27.1335C89.0474 25.7776 89.4403 24.4316 90.2527 23.3416C91.0651 22.2517 92.2427 21.4905 93.5702 21.1974C94.8976 20.9042 96.2862 21.0987 97.4821 21.7452L99.9177 19.3096C99.7323 18.9675 99.583 18.6072 99.472 18.2343H90.1095C89.7754 19.3545 89.1026 20.3438 88.1837 21.0662C87.2647 21.7886 86.1445 22.2088 84.9771 22.2689C83.8097 22.329 82.6523 22.0262 81.6639 21.402C80.6755 20.7778 79.9047 19.8629 79.4573 18.7829C79.0099 17.703 78.9079 16.511 79.1653 15.3707C79.4226 14.2304 80.0268 13.1978 80.8947 12.4148C81.7626 11.6317 82.8517 11.1366 84.0124 10.9975C85.1731 10.8584 86.3483 11.0821 87.3767 11.6378L89.8113 9.20421C89.3634 8.37726 89.1296 7.45134 89.1312 6.51086ZM92.3652 26.7236C92.3652 26.0803 92.6208 25.4634 93.0756 25.0085C93.5305 24.5536 94.1475 24.2981 94.7907 24.2981C95.434 24.2981 96.051 24.5536 96.5059 25.0085C96.9607 25.4634 97.2163 26.0803 97.2163 26.7236C97.2163 27.3669 96.9607 27.9838 96.5059 28.4387C96.051 28.8936 95.434 29.1491 94.7907 29.1491C94.1475 29.1491 93.5305 28.8936 93.0756 28.4387C92.6208 27.9838 92.3652 27.3669 92.3652 26.7236ZM84.6844 14.1917C84.3658 14.1917 84.0504 14.2544 83.7562 14.3763C83.4619 14.4982 83.1945 14.6769 82.9693 14.9021C82.744 15.1274 82.5654 15.3947 82.4435 15.689C82.3216 15.9833 82.2588 16.2987 82.2588 16.6172C82.2588 16.9358 82.3216 17.2512 82.4435 17.5454C82.5654 17.8397 82.744 18.1071 82.9693 18.3323C83.1945 18.5576 83.4619 18.7362 83.7562 18.8581C84.0504 18.98 84.3658 19.0428 84.6844 19.0428C85.3277 19.0428 85.9446 18.7872 86.3995 18.3323C86.8544 17.8775 87.1099 17.2605 87.1099 16.6172C87.1099 15.9739 86.8544 15.357 86.3995 14.9021C85.9446 14.4473 85.3277 14.1917 84.6844 14.1917ZM102.472 16.6172C102.472 15.9739 102.727 15.357 103.182 14.9021C103.637 14.4473 104.254 14.1917 104.897 14.1917C105.54 14.1917 106.157 14.4473 106.612 14.9021C107.067 15.357 107.323 15.9739 107.323 16.6172C107.323 17.2605 107.067 17.8775 106.612 18.3323C106.157 18.7872 105.54 19.0428 104.897 19.0428C104.254 19.0428 103.637 18.7872 103.182 18.3323C102.727 17.8775 102.472 17.2605 102.472 16.6172Z" fill="#45278D"/>
<path d="M162.478 8.15332L151.727 2.02239C151.349 1.8148 150.926 1.70605 150.497 1.70605C150.067 1.70605 149.644 1.8148 149.266 2.02239L138.478 8.15332C138.088 8.37552 137.764 8.69828 137.538 9.0887C137.312 9.47911 137.192 9.92322 137.191 10.3758V22.5993C137.187 23.0528 137.305 23.4989 137.531 23.8901C137.758 24.2814 138.085 24.6033 138.478 24.8218L149.229 30.9144C149.606 31.1439 150.038 31.2633 150.478 31.2592C150.917 31.2581 151.348 31.1391 151.727 30.9144L162.478 24.8218C162.868 24.5996 163.192 24.2768 163.418 23.8864C163.644 23.496 163.764 23.0518 163.765 22.5993V10.3758C163.776 9.92077 163.662 9.47166 163.434 9.07901C163.207 8.68636 162.876 8.36577 162.478 8.15332Z" fill="#45278D"/>
<path d="M142.983 19.6873L142.339 20.0705C142.224 20.1351 142.123 20.2222 142.041 20.3269C141.96 20.4315 141.9 20.5515 141.865 20.6799C141.829 20.8083 141.82 20.9425 141.836 21.0747C141.853 21.2069 141.895 21.3345 141.961 21.4499C142.045 21.61 142.171 21.7441 142.324 21.8384C142.477 21.9328 142.652 21.9839 142.832 21.9864C143.002 21.9849 143.17 21.9457 143.324 21.8714L143.967 21.4883C144.082 21.4237 144.184 21.3365 144.265 21.2319C144.347 21.1273 144.407 21.0072 144.442 20.8788C144.477 20.7504 144.487 20.6162 144.47 20.484C144.454 20.3518 144.411 20.2243 144.346 20.1088C144.287 19.9871 144.205 19.8788 144.103 19.7909C144.001 19.7029 143.883 19.6371 143.755 19.5976C143.627 19.558 143.493 19.5456 143.36 19.561C143.227 19.5764 143.099 19.6194 142.983 19.6873ZM146.92 17.4265L145.595 18.1929C145.48 18.2575 145.379 18.3446 145.297 18.4493C145.215 18.5539 145.155 18.6739 145.12 18.8023C145.085 18.9307 145.075 19.0649 145.092 19.1971C145.108 19.3293 145.151 19.4569 145.216 19.5724C145.301 19.7324 145.426 19.8665 145.579 19.9609C145.733 20.0552 145.908 20.1063 146.087 20.1088C146.257 20.1073 146.425 20.0681 146.579 19.9939L147.904 19.2275C148.019 19.1629 148.121 19.0757 148.202 18.9711C148.284 18.8665 148.344 18.7465 148.379 18.6181C148.414 18.4897 148.424 18.3554 148.407 18.2232C148.391 18.091 148.348 17.9635 148.283 17.848C148.224 17.7263 148.142 17.6181 148.04 17.5301C147.938 17.4421 147.82 17.3763 147.692 17.3368C147.564 17.2972 147.43 17.2848 147.297 17.3002C147.164 17.3157 147.036 17.3587 146.92 17.4265ZM151.728 7.38714C151.73 6.83432 151.267 6.35043 150.705 6.35255C150.157 6.35434 149.702 6.83691 149.721 7.38714C149.721 13.961 149.721 19.0253 149.721 25.55C149.721 26.1082 150.181 26.5846 150.743 26.5846C151.305 26.5846 151.765 26.1082 151.765 25.55C151.765 19.0804 151.728 13.8211 151.728 7.38714ZM154.836 12.905L153.511 13.6713C153.395 13.7359 153.294 13.8231 153.213 13.9277C153.131 14.0323 153.071 14.1524 153.036 14.2808C153 14.4092 152.991 14.5434 153.007 14.6756C153.024 14.8078 153.066 14.9353 153.132 15.0508C153.217 15.2108 153.342 15.345 153.495 15.4393C153.648 15.5336 153.823 15.5847 154.003 15.5873C154.173 15.5858 154.341 15.5465 154.495 15.4723L155.82 14.7059C155.935 14.6413 156.036 14.5542 156.118 14.4496C156.199 14.3449 156.259 14.2249 156.295 14.0965C156.33 13.9681 156.34 13.8339 156.323 13.7017C156.306 13.5695 156.264 13.4419 156.198 13.3265C156.14 13.2047 156.057 13.0965 155.956 13.0085C155.854 12.9206 155.736 12.8548 155.608 12.8152C155.48 12.7757 155.345 12.7632 155.212 12.7787C155.08 12.7941 154.951 12.8371 154.836 12.905ZM157.974 13.2882C158.144 13.2867 158.312 13.2475 158.466 13.1732L159.109 12.79C159.224 12.725 159.326 12.6375 159.407 12.5328C159.489 12.428 159.549 12.308 159.585 12.1796C159.62 12.0512 159.63 11.9169 159.614 11.7845C159.599 11.6522 159.557 11.5242 159.492 11.4081C159.427 11.292 159.341 11.1901 159.237 11.108C159.133 11.026 159.014 10.9656 158.887 10.9302C158.76 10.8948 158.627 10.8852 158.496 10.9019C158.366 10.9185 158.24 10.9612 158.125 11.0274L157.482 11.4106C157.366 11.4752 157.265 11.5623 157.184 11.6669C157.102 11.7716 157.042 11.8916 157.007 12.02C156.972 12.1484 156.962 12.2826 156.978 12.4148C156.995 12.547 157.037 12.6746 157.103 12.79C157.19 12.9453 157.317 13.0738 157.47 13.1616C157.623 13.2493 157.798 13.2931 157.974 13.2882ZM159.109 20.0705L158.466 19.6873C158.235 19.5567 157.963 19.524 157.708 19.5963C157.453 19.6685 157.237 19.8399 157.107 20.0729C156.977 20.3059 156.944 20.5816 157.014 20.8396C157.084 21.0977 157.252 21.3171 157.482 21.4499L158.125 21.8331C158.279 21.9074 158.447 21.9466 158.617 21.9481C158.797 21.9456 158.972 21.8945 159.125 21.8001C159.278 21.7058 159.403 21.5716 159.488 21.4116C159.556 21.2998 159.6 21.175 159.617 21.0451C159.635 20.9151 159.626 20.7829 159.59 20.6568C159.554 20.5307 159.493 20.4135 159.411 20.3126C159.328 20.2116 159.225 20.1292 159.109 20.0705ZM155.816 18.1929L154.491 17.4265C154.377 17.3603 154.25 17.3177 154.12 17.301C153.989 17.2843 153.856 17.294 153.729 17.3293C153.602 17.3647 153.483 17.4252 153.38 17.5072C153.276 17.5892 153.189 17.6912 153.124 17.8073C153.059 17.9234 153.018 18.0513 153.002 18.1837C152.986 18.3161 152.996 18.4503 153.032 18.5787C153.067 18.7072 153.128 18.8272 153.209 18.9319C153.291 19.0367 153.392 19.1241 153.507 19.1892L154.832 19.9555C154.986 20.0298 155.154 20.069 155.324 20.0705C155.503 20.068 155.678 20.0169 155.832 19.9225C155.985 19.8282 156.11 19.694 156.195 19.534C156.263 19.4226 156.308 19.2977 156.327 19.1675C156.345 19.0373 156.336 18.9046 156.3 18.7782C156.264 18.6518 156.203 18.5343 156.119 18.4335C156.036 18.3327 155.933 18.2507 155.816 18.1929ZM145.595 14.6676L146.92 15.434C147.074 15.5082 147.242 15.5475 147.412 15.5489C147.591 15.5464 147.767 15.4953 147.92 15.401C148.073 15.3066 148.198 15.1725 148.283 15.0125C148.348 14.897 148.391 14.7695 148.407 14.6373C148.424 14.5051 148.414 14.3708 148.379 14.2424C148.344 14.114 148.284 13.994 148.202 13.8894C148.121 13.7848 148.019 13.6976 147.904 13.633L146.579 12.8667C146.465 12.8001 146.339 12.7572 146.209 12.7405C146.078 12.7237 145.945 12.7335 145.818 12.7691C145.692 12.8048 145.573 12.8657 145.47 12.9482C145.366 13.0307 145.28 13.1333 145.216 13.2498C145.09 13.4906 145.058 13.7712 145.128 14.0346C145.199 14.2979 145.366 14.5243 145.595 14.6676ZM143.967 11.4106L143.324 11.0274C143.209 10.9612 143.083 10.9185 142.952 10.9019C142.822 10.8852 142.689 10.8948 142.562 10.9302C142.435 10.9656 142.316 11.026 142.212 11.108C142.108 11.1901 142.021 11.292 141.957 11.4081C141.892 11.5242 141.85 11.6522 141.834 11.7845C141.819 11.9169 141.829 12.0512 141.864 12.1796C141.9 12.308 141.96 12.428 142.042 12.5328C142.123 12.6375 142.224 12.725 142.339 12.79L142.983 13.1732C143.137 13.2475 143.305 13.2867 143.475 13.2882C143.654 13.2856 143.83 13.2345 143.983 13.1402C144.136 13.0459 144.261 12.9117 144.346 12.7517C144.41 12.639 144.451 12.5144 144.467 12.3852C144.483 12.256 144.473 12.125 144.438 11.9998C144.402 11.8746 144.342 11.758 144.262 11.6567C144.181 11.5555 144.081 11.4718 143.967 11.4106Z" fill="white"/>
<line x1="123.844" y1="2.61956e-08" x2="123.844" y2="32.7609" stroke="#45278D" stroke-width="1.17105"/>
</svg>
