<svg xmlns="http://www.w3.org/2000/svg" xml:space="preserve" x="0" y="0" version="1.1" viewBox="0 0 78 17" width="78" height="17">
  <style>
    .st0{fill:none;stroke:#00b3f4;stroke-width:2.5;stroke-linecap:round;stroke-linejoin:round}
  </style>
  <path d="M8.5 15.8c4 0 7.3-3.3 7.3-7.3s-3.2-7.3-7.3-7.3-7.3 3.3-7.3 7.3c0 4.1 3.3 7.3 7.3 7.3z" class="st0"/>
  <path d="M38.9 15.8c4 0 7.3-3.3 7.3-7.3S43 1.2 38.9 1.2s-7.3 3.3-7.3 7.3c.1 4.1 3.3 7.3 7.3 7.3z" class="st0"/>
  <path d="M69.4 15.8c4 0 7.3-3.3 7.3-7.3s-3.2-7.3-7.3-7.3-7.3 3.3-7.3 7.3c0 4.1 3.3 7.3 7.3 7.3z" class="st0"/>
</svg>
