<svg width="45" height="52" fill="none" xmlns="http://www.w3.org/2000/svg"><path d="M43.69 40.253a28.021 28.021 0 0 1-2.798 4.993c-1.47 2.082-2.675 3.523-3.603 4.323-1.439 1.313-2.98 1.986-4.631 2.024-1.185 0-2.614-.334-4.278-1.013-1.67-.676-3.203-1.011-4.606-1.011-1.47 0-3.048.335-4.736 1.01-1.69.68-3.05 1.034-4.092 1.069-1.583.067-3.16-.625-4.736-2.079-1.005-.87-2.262-2.363-3.769-4.476-1.616-2.258-2.944-4.875-3.985-7.86C1.34 34.01.782 30.89.782 27.867c0-3.462.754-6.447 2.263-8.95 1.186-2.009 2.764-3.594 4.739-4.758a12.817 12.817 0 0 1 6.406-1.794c1.258 0 2.906.386 4.955 1.144 2.044.762 3.356 1.148 3.93 1.148.43 0 1.888-.451 4.359-1.351 2.336-.835 4.308-1.18 5.924-1.045 4.377.351 7.666 2.064 9.853 5.15-3.915 2.355-5.851 5.653-5.813 9.885.035 3.296 1.24 6.038 3.607 8.216a11.862 11.862 0 0 0 3.603 2.346 38.43 38.43 0 0 1-.918 2.395ZM33.65 1.033c0 2.584-.95 4.995-2.845 7.228-2.287 2.654-5.053 4.187-8.052 3.945a7.967 7.967 0 0 1-.06-.978c0-2.48 1.087-5.134 3.018-7.304.964-1.099 2.19-2.012 3.677-2.741C30.872.465 32.276.068 33.596 0c.038.345.054.69.054 1.033Z" fill="#000"/></svg>