<svg width="52" height="52" fill="none" xmlns="http://www.w3.org/2000/svg"><path d="M50.62 7.224c-.485-1.275-1.647-3.067-3.294-4.342-.968-.726-2.066-1.437-3.615-1.889C42.032.51 39.966.348 37.448.348H14.204c-2.534 0-4.584.161-6.246.662a10.938 10.938 0 0 0-3.632 1.888c-1.647 1.26-2.809 3.067-3.31 4.342C.017 9.807 0 12.712 0 14.552v23.244c0 1.84.016 4.745 1.017 7.328.5 1.275 1.662 3.067 3.309 4.342.952.726 2.082 1.436 3.632 1.888 1.662.485 3.712.646 6.246.646h23.244c2.534 0 4.584-.161 6.246-.662a10.937 10.937 0 0 0 3.632-1.888c1.647-1.26 2.809-3.067 3.31-4.342 1.016-2.567 1.016-5.488 1.016-7.328V14.535c0-1.84-.016-4.746-1.017-7.328l-.016.016ZM10.233 35.859H8.313V24.382h1.92V35.86ZM9.28 22.445a1.202 1.202 0 0 1-1.194-1.194c0-.662.532-1.195 1.194-1.195.662 0 1.21.533 1.21 1.195a1.216 1.216 0 0 1-1.21 1.194ZM20.822 36.15c-5.068 0-8.264-3.616-8.264-9.378 0-5.762 3.196-9.394 8.264-9.394 5.069 0 8.265 3.632 8.265 9.394 0 5.762-3.196 9.378-8.265 9.378Zm16.723 0c-3.81 0-6.49-2.098-6.667-5.23h1.727c.194 2.18 2.244 3.665 5.101 3.665 2.728 0 4.681-1.486 4.681-3.536 0-1.694-1.178-2.711-3.874-3.39l-2.26-.58c-3.373-.856-4.874-2.276-4.874-4.681 0-2.938 2.647-5.036 6.23-5.036 3.551 0 6.134 2.098 6.247 4.987h-1.727c-.162-2.05-1.986-3.422-4.568-3.422-2.518 0-4.39 1.405-4.39 3.406 0 1.566 1.13 2.486 3.809 3.164l1.969.5c3.664.92 5.198 2.325 5.198 4.859 0 3.196-2.567 5.294-6.602 5.294Zm-10.218-9.378c0 4.762-2.518 7.78-6.505 7.78s-6.488-3.018-6.488-7.78c0-4.778 2.501-7.796 6.488-7.796 3.987 0 6.505 3.018 6.505 7.796Z" fill="#000"/></svg>