<svg width="45" height="53" fill="none" xmlns="http://www.w3.org/2000/svg"><path d="M21.797 13.38c0 .171-.171.171-.171.171h-.172c-.172 0-.172-.171-.344-.343 0 0-.172-.172-.172-.344s0-.172.172-.172l.344.172c.172.172.343.344.343.515Zm-3.094-1.72c0-.86-.344-1.375-.86-1.375 0 0 0 .172-.171.172v.344h.515c0 .344.172.515.172.86h.344Zm6.017-.86c.344 0 .516.345.688.86h.343c-.171-.172-.171-.344-.171-.515 0-.172 0-.344-.172-.516-.172-.172-.344-.344-.516-.344 0 0-.172.172-.344.172 0 .172.172.172.172.344Zm-5.157 2.751c-.172 0-.172 0-.172-.171 0-.172 0-.344.172-.516.344 0 .515-.172.515-.172.172 0 .172.172.172.172 0 .172-.172.344-.515.687h-.172Zm-1.891-.171c-.688-.344-.86-.86-.86-1.72 0-.515 0-.86.344-1.203a.945.945 0 0 1 .86-.516c.343 0 .515.172.859.516.172.516.344 1.031.344 1.547v.344h.172v-.172c.172 0 .172-.344.172-1.031 0-.516 0-1.032-.344-1.548-.344-.515-.688-.86-1.376-.86-.515 0-1.031.345-1.203.86-.344.688-.413 1.204-.413 2.063 0 .688.241 1.376.929 2.063.172-.172.344-.172.516-.344ZM39.16 37.62c.172 0 .172-.07.172-.224 0-.378-.172-.825-.688-1.324-.516-.516-1.375-.842-2.407-.98-.172-.017-.344-.017-.344-.017-.172-.034-.172-.034-.343-.034a9.382 9.382 0 0 1-.688-.086 13.67 13.67 0 0 0 .688-4.247c0-1.719-.344-2.922-1.032-3.954-.688-1.031-1.375-1.547-2.235-1.719-.172.172-.172.172-.172.344a4.302 4.302 0 0 1 2.235 2.063c.516 1.203.688 2.235.688 3.438 0 .963-.172 2.39-.86 4.212-.687.275-1.375.911-1.89 1.908 0 .155 0 .241.171.241 0 0 .172-.155.344-.447.344-.292.516-.584.86-.877.515-.292.86-.447 1.375-.447.86 0 1.719.12 2.235.361.687.224 1.031.465 1.203.74.172.258.344.498.516.722 0 .223.172.326.172.326ZM23.345 12.691c-.172-.172-.172-.516-.172-.86 0-.687 0-1.031.344-1.547.343-.344.687-.516 1.031-.516.516 0 .86.344 1.204.688.171.516.343.86.343 1.375 0 .86-.343 1.376-1.031 1.547 0 0 .172.172.344.172.343 0 .515.172.86.344.171-1.031.343-1.719.343-2.579 0-1.031-.172-1.719-.516-2.234-.515-.516-1.031-.688-1.719-.688-.516 0-1.031.172-1.547.516-.344.515-.516.86-.516 1.375 0 .86.172 1.547.516 2.235.172 0 .344.172.516.172Zm2.063 2.75c-2.235 1.548-3.954 2.235-5.33 2.235-1.203 0-2.406-.515-3.438-1.375.172.344.344.688.516.86l1.031 1.031c.688.688 1.548 1.031 2.407 1.031 1.203 0 2.579-.687 4.298-1.89l1.547-1.032c.344-.344.688-.688.688-1.203 0-.172 0-.344-.172-.344-.172-.344-1.032-.86-2.75-1.376-1.548-.687-2.751-1.031-3.439-1.031-.516 0-1.375.344-2.579 1.031-1.031.688-1.719 1.376-1.719 2.063 0 0 .172.172.344.516 1.031.86 2.063 1.376 3.095 1.376 1.375 0 3.094-.688 5.329-2.407v.344c.172 0 .172.171.172.171Zm3.954 34.727c.687 1.293 1.89 1.943 3.266 1.943.344 0 .688-.052 1.032-.155.343-.069.687-.19.86-.327.171-.12.343-.24.515-.378.344-.12.344-.206.516-.292l2.922-2.527c.688-.549 1.375-1.028 2.235-1.444.688-.413 1.375-.688 1.72-.843.515-.137.859-.344 1.203-.619.172-.258.343-.584.343-.997 0-.498-.343-.877-.687-1.152a3.497 3.497 0 0 0-1.032-.584c-.344-.12-.687-.395-1.203-.86a4.636 4.636 0 0 1-.86-1.873l-.172-.998c-.172-.464-.172-.808-.344-.997 0-.051 0-.069-.171-.069-.172 0-.516.155-.688.447a17.56 17.56 0 0 0-1.032.963c-.171.344-.687.654-1.031.946-.516.292-1.032.447-1.375.447-1.376 0-2.063-.378-2.579-1.118-.344-.55-.516-1.186-.688-1.908-.344-.292-.515-.447-.86-.447-.859 0-1.203.894-1.203 2.7v5.346c0 .154-.171.498-.171 1.031-.172.533-.172 1.138-.172 1.822l-.344 1.909v.034Zm-24.928-.915c1.599.234 3.439.735 5.519 1.498 2.08.756 3.352 1.152 3.816 1.152 1.204 0 2.2-.533 3.026-1.563.172-.334.172-.726.172-1.176 0-1.625-.98-3.679-2.94-6.172l-1.169-1.564c-.24-.327-.533-.825-.911-1.496A14.713 14.713 0 0 0 11 38.386c-.223-.395-.584-.79-1.048-1.186a3.532 3.532 0 0 0-1.53-.791c-.722.138-1.221.378-1.462.705-.24.327-.378.688-.412 1.066-.052.36-.155.601-.327.722-.172.103-.464.189-.86.275-.085 0-.24 0-.464.017h-.464c-.91 0-1.53.103-1.856.275-.43.499-.654 1.066-.654 1.668 0 .275.07.739.207 1.392.137.636.206 1.152.206 1.513 0 .705-.206 1.41-.636 2.114-.43.74-.653 1.29-.653 1.682.171.667 1.306 1.136 3.386 1.411v.005Zm5.725-15.632c0-1.186.31-2.492.945-4.04.62-1.547 1.238-2.578 1.84-3.266-.034-.172-.12-.172-.258-.172l-.172-.172c-.498.516-1.1 1.72-1.822 3.438-.722 1.548-1.1 2.975-1.1 4.023 0 .774.189 1.444.533 2.029.378.567 1.289 1.392 2.733 2.441l1.822 1.186c1.943 1.685 2.974 2.854 2.974 3.542 0 .36-.171.722-.687 1.117-.344.413-.808.619-1.204.619-.034 0-.051.034-.051.12 0 .017.172.361.533 1.032.722.98 2.269 1.461 4.332 1.461 3.782 0 6.705-1.547 8.94-4.642 0-.86 0-1.392-.172-1.616v-.636c0-1.117.171-1.96.515-2.51.344-.55.688-.808 1.204-.808.343 0 .687.12 1.031.379.172-1.324.172-2.476.172-3.508 0-1.564 0-2.853-.344-4.057a9.063 9.063 0 0 0-.86-2.578l-1.03-1.548c-.345-.515-.517-1.031-.86-1.547-.172-.688-.344-1.203-.344-2.063-.516-.86-.86-1.719-1.376-2.579-.343-.859-.687-1.719-1.031-2.406l-1.547 1.203c-1.72 1.203-3.095 1.72-4.298 1.72-1.032 0-1.891-.173-2.407-.86l-1.031-.86c0 .516-.172 1.203-.516 1.891l-1.083 2.063c-.481 1.203-.74 1.891-.79 2.407-.07.344-.121.688-.156.688l-1.289 2.578c-1.393 2.579-2.097 4.969-2.097 6.946 0 .395.034.808.103 1.22-.774-.533-1.152-1.272-1.152-2.235Zm12.309 16.263c-2.235 0-3.954.303-5.157.903v-.052c-.86 1.032-1.823 1.565-3.164 1.565-.842 0-2.166-.327-3.954-.98-1.805-.62-3.404-1.093-4.796-1.406-.138-.04-.447-.098-.946-.178a35.94 35.94 0 0 1-1.323-.235 9.992 9.992 0 0 1-1.22-.352c-.43-.136-.774-.313-1.032-.528-.238-.217-.355-.46-.355-.734 0-.275.059-.57.176-.882.11-.19.23-.378.35-.55.12-.19.224-.361.293-.533.103-.155.172-.31.24-.482.07-.154.138-.31.172-.498.035-.172.07-.344.07-.516 0-.172-.07-.688-.207-1.599-.138-.894-.206-1.461-.206-1.702 0-.756.171-1.358.55-1.788.378-.43.739-.653 1.117-.653h1.977c.155 0 .396-.086.757-.292.12-.275.223-.499.292-.705.086-.206.12-.36.155-.43.034-.103.068-.206.103-.292.068-.12.154-.258.275-.395-.138-.172-.207-.396-.207-.67 0-.19 0-.362.035-.465 0-.619.292-1.496.911-2.648l.602-1.082c.498-.929.876-1.616 1.151-2.304.293-.688.602-1.72.946-3.095.275-1.203.928-2.406 1.96-3.61l1.29-1.547c.893-1.031 1.478-1.891 1.804-2.579a5.54 5.54 0 0 0 .499-2.235c0-.343-.086-1.375-.275-3.094a50.994 50.994 0 0 1-.258-4.986c0-1.203.103-2.063.326-2.922.224-.86.62-1.72 1.204-2.407.516-.688 1.203-1.375 2.235-1.719 1.031-.344 2.235-.516 3.61-.516.516 0 1.032 0 1.547.172.516 0 1.204.172 2.063.516.688.344 1.375.688 1.891 1.203.688.516 1.204 1.376 1.72 2.235.343 1.032.687 2.063.859 3.438.172.86.172 1.72.344 2.923 0 1.031.172 1.72.172 2.235.172.516.172 1.203.343 2.063.172.688.344 1.375.688 1.89.344.688.688 1.376 1.203 2.064.516.86 1.204 1.719 1.892 2.75 1.547 1.72 2.75 3.61 3.438 5.502.86 1.719 1.375 3.954 1.375 6.343 0 1.186-.172 2.338-.516 3.456.344 0 .516.137.688.378.172.24.344.756.516 1.564l.172 1.273c.172.378.344.739.86 1.048.343.31.687.568 1.203.774.343.172.86.412 1.203.722.344.344.516.705.516 1.083 0 .584-.172 1.014-.516 1.324-.344.343-.688.584-1.203.739-.344.172-1.032.516-2.063 1a18.73 18.73 0 0 0-2.579 1.857l-1.72 1.463a9.526 9.526 0 0 1-1.89 1.444c-.516.31-1.203.464-1.891.464l-1.204-.137c-1.375-.361-2.235-1.049-2.75-2.098-2.75-.333-4.986-.498-6.361-.498" fill="#000"/></svg>