<!DOCTYPE svg PUBLIC "-//W3C//DTD SVG 1.1//EN" "http://www.w3.org/Graphics/SVG/1.1/DTD/svg11.dtd" [
	<!ENTITY ns_flows "http://ns.adobe.com/Flows/1.0/">
]><svg xmlns="http://www.w3.org/2000/svg" width="205" height="75" viewBox="0 -0.993 205 75" overflow="visible"><path opacity=".5" fill="#FFF" d="M31.32 31.34l-9.456 19.113h-4.652L7.805 31.34v22.018H0V18.383h10.556l9.008 19.212 9.055-19.212h10.505v34.975H31.32v-22.02zM70.87 22.96c3.333 3.052 5 7.3 5 12.73 0 5.44-1.625 9.744-4.878 12.91-3.25 3.17-8.21 4.757-14.88 4.757H44.15V18.383H56.51c6.238 0 11.024 1.524 14.36 4.578zM65.14 43.75c1.92-1.8 2.875-4.416 2.875-7.854 0-3.434-.957-6.08-2.875-7.928-1.922-1.852-4.864-2.778-8.832-2.778h-4.355v21.264h4.956c3.57 0 6.31-.9 8.232-2.704zM104.875 18.383h7.805v34.975h-7.805l-16.66-21.916v21.916h-7.806V18.383h7.3l17.165 22.512V18.383zM140.466 72.926h-1.217v-2.803l-2.643-4.296h1.31l1.94 3.23 1.94-3.23h1.31l-2.642 4.296v2.803zM156.512 65.828v1.127h-3.787v1.88h3.4V69.9h-3.4V71.8h3.91v1.128h-5.11v-7.1h4.987zM166.688 71.312l-.712 1.614h-1.278l3.127-7.1h1.28l3.128 7.1h-1.28l-.71-1.614h-3.555zm3.065-1.107l-1.288-2.926-1.29 2.925h2.578zM186.396 68.133c0 1.17-.51 1.91-1.532 2.214l1.858 2.58H185.2l-1.697-2.388h-1.573v2.386h-1.2v-7.1h2.642c1.083 0 1.858.184 2.325.55.467.366.7.952.7 1.757zm-1.593 1.005c.243-.21.365-.547.365-1.01 0-.464-.124-.783-.375-.955-.25-.172-.696-.258-1.34-.258h-1.523v2.537h1.493c.676 0 1.136-.104 1.38-.314zM197.786 66.762c-.35 0-.636.07-.858.213-.223.143-.335.357-.335.646 0 .288.112.51.335.66.223.152.698.317 1.43.492.727.177 1.272.425 1.644.742.37.318.553.787.553 1.406s-.233 1.122-.7 1.508c-.468.386-1.08.58-1.84.58-1.11 0-2.094-.383-2.954-1.148l.753-.904c.718.625 1.462.936 2.232.936.387 0 .692-.083.92-.25.227-.166.34-.386.34-.66s-.105-.486-.318-.64c-.213-.152-.582-.29-1.103-.416s-.917-.24-1.188-.345c-.272-.103-.51-.24-.722-.412-.42-.317-.63-.805-.63-1.46 0-.658.24-1.164.716-1.52.478-.355 1.067-.533 1.77-.533.455 0 .904.075 1.353.224.447.148.832.357 1.157.63l-.64.903c-.21-.19-.494-.346-.853-.468-.36-.12-.712-.183-1.06-.183zM145.543 24.233l-5.928 1.54c-.857.102-1.662.675-2.422.565 2.738-2.8 8.105-7.364 12.164-10.197V0h-9.967c-.688.394-4.56 2.43-10.45 6.787v11.167c2.13-1.486 4.896-3.25 7.667-4.925v19.26c1.774-2.774 6.584-6.114 8.936-8.057zM144.168 46.978c.6-.332 1.195-.65 1.75-.945.356-.19.696-.367 1.004-.53l-.62-.03c-1.147-.262-.48-.15-1.378-.1 1.016-1.178 2.51-2.23 2.62-2.324l.16-.153c-1.32.452-3.256.958-4.283 1.952.36-1.735 1.646-2.935 2.354-4.393-1.567.82-3.126 1.848-4.385 3.018.074-1.445 1.767-2.816 2.486-4.028.52-.877 1.322-1.522 1.683-2.4-1.573.573-5.177 2.47-6.608 3.406.68-2.224 3.724-5.526 5.38-7.244-1.6.132-5.134 2.224-6.585 3.023-.018-.112.074-.268-.058-.333 1.11-1.807 4.643-4.64 6.34-6.135-1.85.158-5.486 2.13-7.422 2.856v26.796h12.75v-7.384c-1.933-1.42-3.675-3.12-5.19-5.054zM197.966 8.088C194.022 2.698 188.083 0 180.146 0c-7.94 0-13.88 2.697-17.82 8.088-.81 1.105-1.528 2.29-2.17 3.547.742-.06 1.498-.06 2.255.024 2.602.76 5.066 1.714 7.733 2.28 2.352-.64 5.398-1.345 7.59.252 1.458 1.372 2.886 3.173 2.182 5.342 4 4.408 12.893 5 15.33 8.346.375.542.166 4.287.897 6.48l-.06.872c-.782 1.61-2.627 5.88-2 5.013-.693.995-1.303 1.186-3.183.844-1.502 1.12-2.38 1.564-4.122 2.53-1.917.41-5.905-.97-7.73-1.316-3.382-.644-3.718.182-6.658 1.68-4.373 2.18-3.474 7.617-5.184 10.786l.023.055c.12.346.228.692.32 1.048v.004c.03.116.054.234.08.35 3.395 2.097 7.565 3.145 12.515 3.145 7.937 0 13.876-2.695 17.82-8.088 3.94-5.392 5.91-12.592 5.91-21.597s-1.97-16.206-5.91-21.6z"/></svg>