<svg xmlns="http://www.w3.org/2000/svg" width="640" height="360" fill="none" viewBox="0 0 640 360">
  <path fill="#333336" d="M0 0h640v360H0z"/>
  <path fill="#0290FF" stroke="#333336" stroke-width="1.8" d="M81 59c0-3.3137 2.6863-6 6-6h261.333c3.314 0 6 2.6863 6 6v14H81V59Z"/>
  <ellipse cx="94.7056" cy="62.7974" fill="#333336" rx="2.70555" ry="2.66651"/>
  <ellipse cx="104.982" cy="62.7974" fill="#333336" rx="2.70555" ry="2.66651"/>
  <ellipse cx="115.269" cy="62.7974" fill="#333336" rx="2.70555" ry="2.66651"/>
  <path fill="#F8F6F4" stroke="#333336" stroke-width="1.8" d="M81 73h273.333v158c0 3.314-2.686 6-6 6H87c-3.3137 0-6-2.686-6-6V73Z"/>
  <path fill="#FF7139" stroke="#333336" stroke-width="1.8" d="M285.667 129.333c0-3.314 2.686-6 6-6H553c3.314 0 6 2.686 6 6v14H285.667v-14Z"/>
  <ellipse cx="299.372" cy="133.13" fill="#333336" rx="2.70554" ry="2.66648"/>
  <ellipse cx="309.648" cy="133.13" fill="#333336" rx="2.70554" ry="2.66648"/>
  <ellipse cx="319.935" cy="133.13" fill="#333336" rx="2.70554" ry="2.66648"/>
  <path fill="#F8F6F4" stroke="#333336" stroke-width="1.8" d="M285.667 143.333H559v158c0 3.314-2.686 6-6 6H291.667c-3.314 0-6-2.686-6-6v-158Z"/>
  <rect width="53.3333" height="53.3333" x="112.667" y="214" fill="#0290FF" stroke="#333336" stroke-width="1.8" rx="6.4"/>
  <path fill="#fff" fill-rule="evenodd" d="m141.342 223.333-17.775 21.331h15.998l-1.778 14.22 17.776-21.331h-15.998l1.777-14.22Z" clip-rule="evenodd"/>
  <path fill="#FBF0BA" stroke="#333336" stroke-width="1.8" d="M328.667 167.666h128v32h-128z"/>
  <path fill="#333336" d="m411.348 187.666-3.23-8.541h1.744l2.293 6.341 2.316-6.341h1.732l-3.229 8.541h-1.626Zm7.531.129c-2.035 0-3.346-1.439-3.346-3.276 0-1.837 1.428-3.3 3.311-3.3 1.896 0 3.265 1.369 3.265 3.241v.609h-5.02c.211.819.878 1.333 1.814 1.333.749 0 1.252-.327 1.568-.842l1.322.772c-.632.889-1.521 1.463-2.914 1.463Zm-.035-5.207c-.819 0-1.45.48-1.708 1.217h3.37c-.211-.784-.819-1.217-1.662-1.217Zm4.126 5.078v-9.22h1.614v9.22h-1.614Zm5.802.129c-1.895 0-3.334-1.474-3.334-3.288 0-1.825 1.439-3.288 3.334-3.288 1.884 0 3.346 1.463 3.346 3.288 0 1.814-1.439 3.288-3.346 3.288Zm.012-1.533c.959 0 1.732-.784 1.732-1.767 0-.982-.773-1.766-1.732-1.766-.971 0-1.732.784-1.732 1.766 0 .983.761 1.767 1.732 1.767Zm7.328 1.533c-1.895 0-3.323-1.451-3.323-3.288 0-1.86 1.44-3.288 3.312-3.288 1.462 0 2.585.808 3.077 2.001l-1.486.597c-.258-.679-.843-1.088-1.568-1.088-.971 0-1.732.795-1.732 1.778 0 .959.773 1.755 1.744 1.755.748 0 1.31-.456 1.567-1.1l1.51.62c-.538 1.17-1.591 2.013-3.101 2.013Zm6.895 0c-2.035 0-3.346-1.439-3.346-3.276 0-1.837 1.428-3.3 3.311-3.3 1.896 0 3.265 1.369 3.265 3.241v.609h-5.02c.211.819.878 1.333 1.814 1.333.749 0 1.252-.327 1.568-.842l1.322.772c-.632.889-1.521 1.463-2.914 1.463Zm-.035-5.207c-.819 0-1.45.48-1.708 1.217h3.37c-.211-.784-.819-1.217-1.662-1.217Z"/>
  <path fill="#333336" d="M329.474 215.666v-8.541h1.673v8.541h-1.673Zm2.857 0v-6.318h1.615v.796c.409-.574 1.064-.925 1.848-.925 1.498 0 2.446.983 2.446 2.633v3.814h-1.65v-3.568c0-.901-.433-1.463-1.287-1.463-.761 0-1.346.562-1.346 1.544v3.487h-1.626Zm6.952 0v-6.318h1.65v6.318h-1.65Zm-.211-8.096c0-.609.433-1.053 1.03-1.053.62 0 1.041.444 1.041 1.053 0 .596-.421 1.029-1.041 1.029-.609 0-1.03-.433-1.03-1.029Zm2.772 8.096v-1.439l3.521-3.475h-3.451v-1.404h5.44v1.439l-3.51 3.463h3.557v1.416h-5.557Zm6.464 0v-6.318h1.649v6.318h-1.649Zm-.211-8.096c0-.609.433-1.053 1.03-1.053.62 0 1.041.444 1.041 1.053 0 .596-.421 1.029-1.041 1.029-.609 0-1.03-.433-1.03-1.029Zm6.059 8.225c-1.895 0-3.334-1.474-3.334-3.288 0-1.825 1.439-3.288 3.334-3.288 1.884 0 3.346 1.463 3.346 3.288 0 1.814-1.439 3.288-3.346 3.288Zm.012-1.533c.959 0 1.731-.784 1.731-1.767 0-.982-.772-1.766-1.731-1.766-.971 0-1.732.784-1.732 1.766 0 .983.761 1.767 1.732 1.767Zm9.577 1.533c-1.556 0-3.042-1.276-3.042-3.288 0-2.012 1.451-3.288 3.066-3.288.83 0 1.521.351 1.953.936v-3.72h1.592v9.231h-1.592v-.866c-.444.62-1.158.995-1.977.995Zm.316-1.521c.995 0 1.755-.796 1.755-1.779 0-.982-.76-1.778-1.755-1.778-.971 0-1.755.784-1.755 1.778 0 .995.784 1.779 1.755 1.779Zm7.454 1.521c-2.035 0-3.346-1.439-3.346-3.276 0-1.837 1.428-3.3 3.311-3.3 1.896 0 3.265 1.369 3.265 3.241v.609h-5.02c.211.819.878 1.333 1.814 1.333.749 0 1.252-.327 1.568-.842l1.322.772c-.632.889-1.521 1.463-2.914 1.463Zm-.035-5.207c-.819 0-1.451.48-1.708 1.217h3.37c-.211-.784-.819-1.217-1.662-1.217Zm4.125 5.078v-9.22h1.615v9.22h-1.615Zm5.162 0v-1.381c0-1.544 1.264-2.398 2.398-3.088.948-.585 1.755-1.053 1.755-1.744 0-.596-.432-1.018-1.216-1.018s-1.346.515-1.627 1.206l-1.462-.714c.573-1.158 1.661-1.919 3.112-1.919 1.802 0 2.855 1.076 2.855 2.457 0 1.381-1.158 2.118-2.247 2.773-.936.573-1.801 1.076-1.848 1.86h4.06v1.568h-5.78Zm9.955-1.462c1.042 0 1.685-.597 1.685-2.68v-.351c0-2.071-.678-2.597-1.673-2.597-1.018 0-1.696.585-1.696 2.597v.351c0 2.106.643 2.68 1.684 2.68Zm0 1.579c-1.977 0-3.334-1.135-3.334-4.235v-.398c0-2.96 1.462-4.142 3.334-4.142 1.908 0 3.347 1.217 3.347 4.142v.398c0 3.135-1.393 4.235-3.347 4.235Zm4.086-.117v-1.381c0-1.544 1.263-2.398 2.398-3.088.948-.585 1.755-1.053 1.755-1.744 0-.596-.433-1.018-1.217-1.018s-1.345.515-1.626 1.206l-1.462-.714c.573-1.158 1.661-1.919 3.112-1.919 1.801 0 2.854 1.076 2.854 2.457 0 1.381-1.158 2.118-2.246 2.773-.936.573-1.802 1.076-1.848 1.86h4.059v1.568h-5.779Zm9.46.117c-1.509 0-2.445-.48-3.183-1.462l1.381-1.018c.421.69 1.018.982 1.802.982.842 0 1.439-.444 1.439-1.158 0-.678-.597-1.088-1.486-1.088h-.948v-1.486h.878c.901 0 1.369-.48 1.369-1.111 0-.562-.421-1.03-1.299-1.03-.772 0-1.275.339-1.603.936l-1.369-.819c.62-.948 1.65-1.521 2.96-1.521 1.837 0 2.949.959 2.949 2.387 0 .784-.386 1.416-1.006 1.825.748.386 1.216 1.03 1.216 1.942 0 1.486-1.17 2.621-3.1 2.621Z"/>
  <path fill="#FBB397" stroke="#333336" stroke-width="1.8" d="M328.667 233.666h187v32h-187z"/>
  <path fill="#333336" d="m404.874 253.666 3.229-8.541h1.626l3.23 8.541h-1.697l-.562-1.556h-3.568l-.562 1.556h-1.696Zm4.048-6.447-1.24 3.393h2.469l-1.229-3.393Zm4.651 6.447v-6.318h1.615v.796c.409-.574 1.064-.925 1.848-.925 1.498 0 2.446.983 2.446 2.633v3.814h-1.65v-3.568c0-.901-.433-1.463-1.287-1.463-.761 0-1.346.562-1.346 1.544v3.487h-1.626Zm10.076.129c-1.896 0-3.323-1.451-3.323-3.288 0-1.86 1.439-3.288 3.311-3.288 1.463 0 2.586.808 3.077 2.001l-1.486.597c-.257-.679-.842-1.088-1.568-1.088-.971 0-1.731.795-1.731 1.778 0 .959.772 1.755 1.743 1.755.749 0 1.311-.456 1.568-1.1l1.509.62c-.538 1.17-1.591 2.013-3.1 2.013Zm6.883 0c-1.895 0-3.334-1.474-3.334-3.288 0-1.825 1.439-3.288 3.334-3.288 1.884 0 3.346 1.463 3.346 3.288 0 1.814-1.439 3.288-3.346 3.288Zm.012-1.533c.959 0 1.732-.784 1.732-1.767 0-.982-.773-1.766-1.732-1.766-.971 0-1.732.784-1.732 1.766 0 .983.761 1.767 1.732 1.767Zm4.193 1.404v-6.318h1.591v.971c.304-.749.936-1.088 1.743-1.088.422 0 .796.105 1.065.246l-.585 1.591c-.175-.129-.48-.222-.842-.222-.831 0-1.369.421-1.369 1.486v3.334h-1.603Zm6.632.129c-1.38 0-2.199-.772-2.199-1.884 0-1.31 1.088-2.118 2.843-2.118h1.661v-.082c0-.678-.456-1.146-1.369-1.146-.713 0-1.193.304-1.485.831l-1.486-.738c.643-.842 1.567-1.439 2.983-1.439 1.86 0 2.925.971 2.925 2.563v3.884h-1.556v-.971c-.456.655-1.322 1.1-2.317 1.1Zm.468-1.334c.773 0 1.533-.468 1.849-1.147v-.339H442.2c-.959 0-1.345.304-1.345.796 0 .456.316.69.982.69Zm10.583 1.334c-.854 0-1.568-.316-1.989-.901v3.299h-1.603v-8.845h1.591v.878c.422-.621 1.135-1.007 1.989-1.007 1.592 0 3.042 1.276 3.042 3.288 0 2.012-1.474 3.288-3.03 3.288Zm-.328-1.521c.972 0 1.744-.784 1.744-1.779 0-.994-.772-1.778-1.744-1.778-.994 0-1.754.796-1.754 1.778 0 .983.76 1.779 1.754 1.779Zm4.214 1.392v-6.318h1.649v6.318h-1.649Zm-.211-8.096c0-.609.433-1.053 1.03-1.053.62 0 1.041.444 1.041 1.053 0 .596-.421 1.029-1.041 1.029-.609 0-1.03-.433-1.03-1.029Zm5.369 8.225c-1.556 0-2.457-.995-2.457-2.656v-3.791h1.649v3.569c0 .889.422 1.439 1.287 1.439.761 0 1.322-.55 1.322-1.533v-3.475l1.638-.012v6.318l-1.614.012v-.796c-.41.574-1.053.925-1.825.925Zm.269-7.032-1.779-2.001h1.65l1.334 2.001h-1.205Zm8.721 6.903-2.422-6.318h1.708l1.556 4.259 1.568-4.259h1.673l-2.48 6.318h-1.603Zm7.425.129c-2.035 0-3.346-1.439-3.346-3.276 0-1.837 1.428-3.3 3.311-3.3 1.896 0 3.265 1.369 3.265 3.241v.609h-5.02c.211.819.878 1.333 1.814 1.333.749 0 1.252-.327 1.568-.842l1.322.772c-.632.889-1.521 1.463-2.914 1.463Zm-.035-5.207c-.819 0-1.45.48-1.708 1.217h3.37c-.211-.784-.819-1.217-1.662-1.217Zm4.126 5.078v-9.22h1.614v9.22h-1.614Zm5.802.129c-1.895 0-3.334-1.474-3.334-3.288 0-1.825 1.439-3.288 3.334-3.288 1.884 0 3.346 1.463 3.346 3.288 0 1.814-1.439 3.288-3.346 3.288Zm.012-1.533c.959 0 1.732-.784 1.732-1.767 0-.982-.773-1.766-1.732-1.766-.971 0-1.732.784-1.732 1.766 0 .983.761 1.767 1.732 1.767Zm7.328 1.533c-1.895 0-3.323-1.451-3.323-3.288 0-1.86 1.44-3.288 3.312-3.288 1.462 0 2.585.808 3.077 2.001l-1.486.597c-.258-.679-.843-1.088-1.568-1.088-.971 0-1.732.795-1.732 1.778 0 .959.773 1.755 1.744 1.755.748 0 1.31-.456 1.567-1.1l1.51.62c-.538 1.17-1.591 2.013-3.101 2.013Zm6.895 0c-2.035 0-3.346-1.439-3.346-3.276 0-1.837 1.428-3.3 3.311-3.3 1.896 0 3.265 1.369 3.265 3.241v.609h-5.02c.211.819.878 1.333 1.814 1.333.749 0 1.252-.327 1.568-.842l1.322.772c-.632.889-1.521 1.463-2.914 1.463Zm-.035-5.207c-.819 0-1.45.48-1.708 1.217h3.37c-.211-.784-.819-1.217-1.662-1.217Z"/>
  <path fill="#333336" d="M333.569 281.783c-2.422 0-4.364-1.966-4.364-4.387 0-2.422 1.942-4.388 4.364-4.388 2.433 0 4.387 1.966 4.387 4.388 0 2.421-1.942 4.387-4.387 4.387Zm0-1.626c1.556 0 2.726-1.252 2.726-2.761 0-1.521-1.182-2.773-2.726-2.773-1.533 0-2.703 1.252-2.703 2.773 0 1.509 1.17 2.761 2.703 2.761Zm8.198 1.603c-1.556 0-3.042-1.264-3.042-3.265 0-2 1.451-3.276 3.065-3.276.843 0 1.545.375 1.966.96v-.831h1.614v5.85c0 1.837-1.369 3.171-3.311 3.171-1.439 0-2.387-.421-3.1-1.252l1.334-1.041c.421.549.889.854 1.719.854 1.018 0 1.744-.691 1.744-1.685v-.48c-.445.62-1.17.995-1.989.995Zm.316-1.498c.994 0 1.755-.784 1.755-1.778 0-.995-.761-1.779-1.755-1.779-.971 0-1.755.772-1.755 1.779 0 .994.784 1.778 1.755 1.778Zm7.195 1.498c-1.556 0-3.042-1.264-3.042-3.265 0-2 1.451-3.276 3.066-3.276.842 0 1.544.375 1.965.96v-.831h1.615v5.85c0 1.837-1.369 3.171-3.311 3.171-1.439 0-2.387-.421-3.101-1.252l1.334-1.041c.421.549.889.854 1.72.854 1.018 0 1.743-.691 1.743-1.685v-.48c-.444.62-1.17.995-1.989.995Zm.316-1.498c.995 0 1.755-.784 1.755-1.778 0-.995-.76-1.779-1.755-1.779-.971 0-1.755.772-1.755 1.779 0 .994.784 1.778 1.755 1.778Zm4.353 1.404v-6.318h1.65v6.318h-1.65Zm-.211-8.096c0-.609.433-1.053 1.03-1.053.62 0 1.041.444 1.041 1.053 0 .596-.421 1.029-1.041 1.029-.608 0-1.03-.433-1.03-1.029Z"/>
  <path fill="#333336" d="m119.913 123.333-6.873-18.177h3.711l4.88 13.496 4.93-13.496h3.685l-6.872 18.177h-3.461Zm16.207.274c-4.332 0-7.121-3.063-7.121-6.972 0-3.909 3.038-7.022 7.047-7.022 4.034 0 6.947 2.913 6.947 6.897v1.295h-10.682c.448 1.743 1.867 2.839 3.859 2.839 1.594 0 2.665-.697 3.337-1.793l2.814 1.643c-1.345 1.893-3.237 3.113-6.201 3.113Zm-.074-11.081c-1.743 0-3.088 1.021-3.636 2.59h7.172c-.449-1.668-1.743-2.59-3.536-2.59Zm8.957 10.807v-19.621h3.437v19.621h-3.437Zm12.528.274c-4.034 0-7.097-3.137-7.097-6.997 0-3.884 3.063-6.997 7.097-6.997 4.009 0 7.121 3.113 7.121 6.997 0 3.86-3.062 6.997-7.121 6.997Zm.025-3.262c2.042 0 3.685-1.668 3.685-3.76 0-2.091-1.643-3.76-3.685-3.76-2.067 0-3.685 1.669-3.685 3.76 0 2.092 1.618 3.76 3.685 3.76Zm15.774 3.262c-4.034 0-7.071-3.088-7.071-6.997 0-3.959 3.062-6.997 7.046-6.997 3.113 0 5.503 1.718 6.549 4.258l-3.162 1.27c-.548-1.444-1.793-2.316-3.337-2.316-2.067 0-3.685 1.693-3.685 3.785 0 2.042 1.643 3.735 3.71 3.735 1.594 0 2.789-.971 3.337-2.341l3.212 1.32c-1.146 2.49-3.387 4.283-6.599 4.283Zm8.374-.274v-13.446h3.511v13.446h-3.511Zm-.449-17.231c0-1.295.922-2.241 2.192-2.241 1.319 0 2.216.946 2.216 2.241 0 1.27-.897 2.191-2.216 2.191-1.295 0-2.192-.921-2.192-2.191Zm5.629 6.823v-3.038h2.49v-2.913l3.386-1.992v4.905h3.536v3.038h-3.536v5.528c0 1.419.598 1.917 1.469 1.917.474 0 .847-.149 1.245-.498l1.569 2.689c-.871.648-1.967 1.021-3.212 1.021-2.814 0-4.457-1.345-4.457-5.005v-5.652h-2.49Zm15.551 10.682c-2.938 0-4.681-1.643-4.681-4.009 0-2.789 2.316-4.507 6.051-4.507h3.535v-.174c0-1.444-.971-2.44-2.913-2.44-1.519 0-2.54.647-3.162 1.768l-3.162-1.569c1.369-1.793 3.336-3.063 6.349-3.063 3.959 0 6.225 2.067 6.225 5.453v8.267h-3.312v-2.067c-.971 1.395-2.813 2.341-4.93 2.341Zm.996-2.839c1.644 0 3.262-.996 3.934-2.44v-.722h-3.162c-2.042 0-2.863.647-2.863 1.693 0 .971.672 1.469 2.091 1.469Zm.623-12.549-3.785-4.258h3.511l2.838 4.258h-2.564Zm20.662 15.388c-3.311 0-6.474-2.714-6.474-6.997 0-4.283 3.088-6.997 6.524-6.997 1.768 0 3.237.747 4.158 1.992v-7.918h3.387v19.646h-3.387v-1.843c-.946 1.32-2.465 2.117-4.208 2.117Zm.673-3.237c2.116 0 3.735-1.693 3.735-3.785 0-2.091-1.619-3.785-3.735-3.785-2.067 0-3.735 1.669-3.735 3.785 0 2.117 1.668 3.785 3.735 3.785Zm9.368 2.963v-13.446h3.511v13.446h-3.511Zm-.448-17.231c0-1.295.921-2.241 2.191-2.241 1.32 0 2.216.946 2.216 2.241 0 1.27-.896 2.191-2.216 2.191-1.295 0-2.191-.921-2.191-2.191ZM120.66 150.607c-4.034 0-7.072-3.088-7.072-6.997 0-3.959 3.063-6.997 7.047-6.997 3.112 0 5.503 1.718 6.549 4.258l-3.163 1.27c-.547-1.444-1.792-2.316-3.336-2.316-2.067 0-3.685 1.693-3.685 3.785 0 2.042 1.643 3.735 3.71 3.735 1.593 0 2.788-.971 3.336-2.341l3.212 1.32c-1.145 2.49-3.386 4.283-6.598 4.283Zm12.484 0c-2.938 0-4.681-1.643-4.681-4.009 0-2.789 2.316-4.507 6.051-4.507h3.535v-.174c0-1.444-.971-2.44-2.913-2.44-1.519 0-2.54.647-3.162 1.768l-3.162-1.569c1.369-1.793 3.336-3.063 6.349-3.063 3.959 0 6.225 2.067 6.225 5.453v8.267h-3.312v-2.067c-.971 1.395-2.813 2.341-4.93 2.341Zm.996-2.839c1.644 0 3.262-.996 3.934-2.44v-.722h-3.162c-2.042 0-2.863.647-2.863 1.693 0 .971.672 1.469 2.091 1.469Zm9.648 2.565v-13.446h3.386v2.067c.647-1.594 1.992-2.316 3.71-2.316.896 0 1.693.224 2.266.523l-1.245 3.386c-.374-.274-1.021-.473-1.793-.473-1.768 0-2.913.897-2.913 3.163v7.096h-3.411Zm10.887 0v-13.446h3.511v13.446h-3.511Zm-.448-17.231c0-1.295.922-2.241 2.191-2.241 1.32 0 2.217.946 2.217 2.241 0 1.27-.897 2.191-2.217 2.191-1.294 0-2.191-.921-2.191-2.191Zm13.048 17.505c-4.033 0-7.071-3.088-7.071-6.997 0-3.959 3.063-6.997 7.047-6.997 3.112 0 5.502 1.718 6.548 4.258l-3.162 1.27c-.548-1.444-1.793-2.316-3.337-2.316-2.066 0-3.685 1.693-3.685 3.785 0 2.042 1.644 3.735 3.71 3.735 1.594 0 2.789-.971 3.337-2.341l3.212 1.32c-1.145 2.49-3.386 4.283-6.599 4.283Zm12.485 0c-2.939 0-4.682-1.643-4.682-4.009 0-2.789 2.316-4.507 6.051-4.507h3.536v-.174c0-1.444-.971-2.44-2.913-2.44-1.519 0-2.54.647-3.163 1.768l-3.162-1.569c1.37-1.793 3.337-3.063 6.35-3.063 3.959 0 6.225 2.067 6.225 5.453v8.267h-3.312v-2.067c-.971 1.395-2.814 2.341-4.93 2.341Zm.996-2.839c1.643 0 3.262-.996 3.934-2.44v-.722h-3.162c-2.042 0-2.864.647-2.864 1.693 0 .971.672 1.469 2.092 1.469Zm9.647 2.565v-13.446h3.436v1.594c.822-1.171 2.117-1.868 3.735-1.868 2.017 0 3.387.822 4.109 2.266.846-1.394 2.365-2.266 4.208-2.266 3.411 0 5.129 2.092 5.129 5.453v8.267h-3.536v-7.769c0-1.817-.747-2.938-2.49-2.938-1.543 0-2.564 1.046-2.564 3.162v7.545h-3.511v-7.868c0-1.793-.747-2.839-2.415-2.839-1.619 0-2.64 1.071-2.64 3.237v7.47h-3.461Zm29.696.274c-4.333 0-7.122-3.063-7.122-6.972 0-3.909 3.038-7.022 7.047-7.022 4.034 0 6.947 2.913 6.947 6.897v1.295h-10.682c.448 1.743 1.867 2.839 3.859 2.839 1.594 0 2.665-.697 3.337-1.793l2.814 1.643c-1.345 1.893-3.237 3.113-6.2 3.113Zm-.075-11.081c-1.743 0-3.088 1.021-3.635 2.59h7.171c-.448-1.668-1.743-2.59-3.536-2.59Zm8.933 10.807v-13.446h3.436v1.693c.872-1.22 2.266-1.967 3.935-1.967 3.187 0 5.204 2.092 5.204 5.603v8.117h-3.511v-7.594c0-1.918-.922-3.113-2.739-3.113-1.619 0-2.864 1.195-2.864 3.287v7.42h-3.461Zm13.789-10.408v-3.038h2.49v-2.913l3.386-1.992v4.905h3.536v3.038h-3.536v5.528c0 1.419.598 1.917 1.469 1.917.473 0 .847-.149 1.245-.498l1.569 2.689c-.872.648-1.967 1.021-3.212 1.021-2.814 0-4.457-1.345-4.457-5.005v-5.652h-2.49Zm17.457 10.682c-4.034 0-7.097-3.137-7.097-6.997 0-3.884 3.063-6.997 7.097-6.997 4.008 0 7.121 3.113 7.121 6.997 0 3.86-3.063 6.997-7.121 6.997Zm.024-3.262c2.042 0 3.686-1.668 3.686-3.76 0-2.091-1.644-3.76-3.686-3.76-2.066 0-3.685 1.669-3.685 3.76 0 2.092 1.619 3.76 3.685 3.76Z"/>
</svg>
