<svg width="720" height="405" viewBox="0 0 720 405" fill="none" xmlns="http://www.w3.org/2000/svg">
<g clip-path="url(#clip0_1289_39616)">
<rect width="720" height="405" fill="#9871EF"/>
<rect x="192.442" width="385.991" height="75.2074" fill="#C5A5F8"/>
<rect width="192.442" height="75.2074" fill="#FCB644"/>
<rect x="471.152" width="248.848" height="75.2074" fill="#00266C"/>
<rect x="-2.25049" y="75.373" width="722.25" height="259.125" fill="#9871EF"/>
<path d="M719.947 75.2801H0V334.48H719.947V75.2801Z" fill="#9871EF"/>
<rect x="-2.21191" y="329.585" width="265.438" height="92.9032" fill="#FF6582"/>
<rect x="263.226" y="329.585" width="338.433" height="76.3134" fill="#81ECB6"/>
<path d="M18.6221 29.345H23.3315C25.9745 29.345 27.3521 28.2398 27.3521 26.1414V26.0773C27.3521 24.5395 26.5512 23.6905 25.0615 23.3862C26.3429 23.0178 26.9196 22.1368 26.9196 20.9354V20.8713C26.9196 18.9171 25.6221 17.8919 23.1232 17.8919H18.6221V29.345ZM21.153 22.6013V19.6699H22.6908C23.9081 19.6699 24.4528 20.1024 24.4528 21.0635V21.1276C24.4528 22.1528 23.9562 22.6013 22.7068 22.6013H21.153ZM21.153 27.551V24.2672H22.8029C24.2125 24.2672 24.7892 24.8118 24.7892 25.869V25.9331C24.7892 26.9743 24.2125 27.551 22.931 27.551H21.153ZM32.8333 29.5212C35.1239 29.5212 36.5655 28.5121 36.8379 26.702H34.6433C34.4992 27.4068 33.9706 27.8713 32.8973 27.8713C31.6319 27.8713 30.879 27.0704 30.8149 25.6768H36.8539V25.0361C36.8539 22.0407 34.9317 20.7752 32.7692 20.7752C30.3344 20.7752 28.4602 22.4892 28.4602 25.1322V25.2603C28.4602 27.9354 30.3024 29.5212 32.8333 29.5212ZM30.847 24.2512C31.0232 23.0658 31.728 22.377 32.7692 22.377C33.8745 22.377 34.5152 22.9857 34.5953 24.2512H30.847ZM41.4959 29.5212C43.7065 29.5212 45.02 28.5761 45.02 26.7661C45.02 24.972 43.8667 24.4434 41.7683 24.1391C40.5509 23.9629 40.1504 23.7546 40.1504 23.226C40.1504 22.7134 40.5829 22.361 41.3358 22.361C42.1367 22.361 42.5211 22.6814 42.6493 23.3702H44.7797C44.5715 21.448 43.1779 20.7752 41.3197 20.7752C39.6058 20.7752 38.0039 21.6402 38.0039 23.3862C38.0039 25.0201 38.8689 25.6608 41.0955 25.9972C42.2969 26.1734 42.7934 26.4137 42.7934 26.9903C42.7934 27.567 42.377 27.9034 41.4799 27.9034C40.4708 27.9034 40.1024 27.4709 40.0062 26.718H37.8438C37.9239 28.5281 39.2374 29.5212 41.4959 29.5212ZM49.5524 29.5052C50.1772 29.5052 50.6417 29.3931 50.9621 29.281V27.4869C50.6897 27.599 50.4335 27.6471 50.081 27.6471C49.4884 27.6471 49.152 27.3267 49.152 26.6539V22.6173H50.914V20.9674H49.152V19.1573H46.8453V20.9674H45.7721V22.6173H46.8453V26.8622C46.8453 28.6082 47.7904 29.5052 49.5524 29.5052ZM59.9745 29.5212C62.4894 29.5212 64.3956 27.8393 64.3956 25.1963V25.0681C64.3956 22.4571 62.5054 20.7752 59.9905 20.7752C57.4757 20.7752 55.5695 22.4892 55.5695 25.1162V25.2443C55.5695 27.8553 57.4757 29.5212 59.9745 29.5212ZM59.9905 27.7592C58.677 27.7592 57.9402 26.7981 57.9402 25.1963V25.0681C57.9402 23.4663 58.7091 22.5372 59.9905 22.5372C61.288 22.5372 62.0409 23.4983 62.0409 25.1002V25.2123C62.0409 26.7981 61.288 27.7592 59.9905 27.7592ZM66.3372 29.345H68.6438V22.6173H70.4699V20.9674H68.6438V19.9422C68.6438 19.3015 68.9482 18.837 69.685 18.837C70.0214 18.837 70.3098 18.9011 70.534 18.9811V17.2351C70.1656 17.123 69.8292 17.075 69.3326 17.075C67.4745 17.075 66.3372 18.0521 66.3372 20.0063V20.9674H65.2319V22.6173H66.3372V29.345ZM75.6563 29.345H78.2352V25.1803H79.6929C82.3039 25.1803 83.9858 24.0269 83.9858 21.6082V21.5441C83.9858 19.1253 82.4 17.8919 79.6128 17.8919H75.6563V29.345ZM78.2352 23.3702V19.8622H79.5487C80.7821 19.8622 81.4869 20.3427 81.4869 21.5601V21.6242C81.4869 22.7615 80.8142 23.3702 79.5487 23.3702H78.2352ZM89.133 29.5212C91.6478 29.5212 93.554 27.8393 93.554 25.1963V25.0681C93.554 22.4571 91.6639 20.7752 89.149 20.7752C86.6341 20.7752 84.7279 22.4892 84.7279 25.1162V25.2443C84.7279 27.8553 86.6341 29.5212 89.133 29.5212ZM89.149 27.7592C87.8355 27.7592 87.0986 26.7981 87.0986 25.1963V25.0681C87.0986 23.4663 87.8675 22.5372 89.149 22.5372C90.4465 22.5372 91.1993 23.4983 91.1993 25.1002V25.2123C91.1993 26.7981 90.4465 27.7592 89.149 27.7592ZM98.9076 29.5212C101.342 29.5212 102.784 28.1437 102.912 26.1574H100.814C100.702 27.2306 99.9487 27.7752 99.0197 27.7752C97.7222 27.7752 96.9693 26.9102 96.9693 25.2283V25.1002C96.9693 23.4983 97.7702 22.6013 98.9716 22.6013C99.9167 22.6013 100.509 23.0498 100.67 24.0269H102.864C102.656 21.6242 100.862 20.7752 98.9236 20.7752C96.5368 20.7752 94.5986 22.4251 94.5986 25.1322V25.2603C94.5986 27.9995 96.4567 29.5212 98.9076 29.5212ZM104.372 29.345H106.694V25.3885L109.466 29.345H112.093L108.809 24.7798L111.852 20.9674H109.386L106.694 24.5075V17.1711H104.372V29.345ZM116.711 29.5212C119.001 29.5212 120.443 28.5121 120.715 26.702H118.521C118.377 27.4068 117.848 27.8713 116.775 27.8713C115.509 27.8713 114.756 27.0704 114.692 25.6768H120.731V25.0361C120.731 22.0407 118.809 20.7752 116.647 20.7752C114.212 20.7752 112.338 22.4892 112.338 25.1322V25.2603C112.338 27.9354 114.18 29.5212 116.711 29.5212ZM114.724 24.2512C114.901 23.0658 115.605 22.377 116.647 22.377C117.752 22.377 118.393 22.9857 118.473 24.2512H114.724ZM125.311 29.5052C125.936 29.5052 126.4 29.3931 126.721 29.281V27.4869C126.449 27.599 126.192 27.6471 125.84 27.6471C125.247 27.6471 124.911 27.3267 124.911 26.6539V22.6173H126.673V20.9674H124.911V19.1573H122.604V20.9674H121.531V22.6173H122.604V26.8622C122.604 28.6082 123.549 29.5052 125.311 29.5052Z" fill="white"/>
<path d="M219.809 27.7915C223.285 27.7915 225.576 25.2766 225.576 21.9287V21.8006C225.576 18.4367 223.221 16.018 219.809 16.018C216.414 16.018 214.011 18.5008 214.011 21.8487V21.9768C214.011 25.2766 216.301 27.7915 219.809 27.7915ZM219.841 26.0775C217.759 26.0775 216.237 24.4596 216.237 21.9608V21.8326C216.237 19.3658 217.567 17.7159 219.809 17.7159C222.052 17.7159 223.366 19.4619 223.366 21.8166V21.9448C223.366 24.4276 222.004 26.0775 219.841 26.0775ZM230.277 27.7915C231.638 27.7915 232.519 27.1347 232.936 26.3178V27.6313H234.874V19.2537H232.936V24.2354C232.936 25.5649 232.023 26.2377 230.981 26.2377C229.86 26.2377 229.332 25.661 229.332 24.3956V19.2537H227.393V24.6198C227.393 26.8464 228.627 27.7915 230.277 27.7915ZM237.172 27.6313H239.11V23.2743C239.11 21.4962 240.135 20.9516 241.833 20.9356V19.1255C240.424 19.1415 239.639 19.7663 239.11 20.8235V19.2537H237.172V27.6313ZM249.55 27.6313H251.809L254.836 19.2537H252.93L250.768 25.645L248.573 19.2537H246.491L249.55 27.6313ZM259.643 27.7915C261.79 27.7915 263.216 26.8304 263.488 25.0683H261.614C261.47 25.8853 260.861 26.3498 259.692 26.3498C258.25 26.3498 257.449 25.4528 257.385 23.867H263.52V23.3063C263.52 20.3109 261.646 19.0775 259.563 19.0775C257.177 19.0775 255.399 20.8075 255.399 23.4024V23.5306C255.399 26.1736 257.177 27.7915 259.643 27.7915ZM257.417 22.5695C257.609 21.272 258.394 20.4871 259.563 20.4871C260.765 20.4871 261.502 21.1278 261.598 22.5695H257.417ZM265.251 27.6313H267.189V23.2743C267.189 21.4962 268.215 20.9516 269.913 20.9356V19.1255C268.503 19.1415 267.718 19.7663 267.189 20.8235V19.2537H265.251V27.6313ZM272.625 30.4986H274.531L279.097 19.2537H277.206L275.156 24.6519L272.929 19.2537H270.831L274.147 26.7823L272.625 30.4986ZM289.044 27.7915C291.207 27.7915 292.76 26.1576 292.76 23.4665V23.3384C292.76 20.6313 291.143 19.0775 289.044 19.0775C287.811 19.0775 286.77 19.7983 286.305 20.5992V15.3772H284.367V27.6313H286.305V26.2857C286.754 27.1347 287.715 27.7915 289.044 27.7915ZM288.564 26.2537C287.154 26.2537 286.241 25.3727 286.241 23.4985V23.3704C286.241 21.5123 287.202 20.5992 288.548 20.5992C289.813 20.5992 290.774 21.5123 290.774 23.3704V23.4985C290.774 25.2926 289.989 26.2537 288.564 26.2537ZM298.188 27.7915C300.334 27.7915 301.76 26.8304 302.032 25.0683H300.158C300.014 25.8853 299.405 26.3498 298.236 26.3498C296.794 26.3498 295.993 25.4528 295.929 23.867H302.064V23.3063C302.064 20.3109 300.19 19.0775 298.108 19.0775C295.721 19.0775 293.943 20.8075 293.943 23.4024V23.5306C293.943 26.1736 295.721 27.7915 298.188 27.7915ZM295.961 22.5695C296.153 21.272 296.938 20.4871 298.108 20.4871C299.309 20.4871 300.046 21.1278 300.142 22.5695H295.961ZM306.741 27.7915C308.887 27.7915 310.089 26.8143 310.089 25.1164C310.089 23.3384 308.919 22.8578 306.949 22.5535C305.62 22.3292 305.219 22.0889 305.219 21.4802C305.219 20.8876 305.716 20.4871 306.549 20.4871C307.446 20.4871 307.878 20.8395 308.038 21.6084H309.832C309.624 19.7182 308.263 19.0775 306.549 19.0775C304.979 19.0775 303.409 19.9104 303.409 21.5924C303.409 23.1622 304.226 23.7869 306.437 24.1393C307.67 24.3475 308.231 24.6038 308.231 25.2926C308.231 25.9974 307.766 26.3658 306.725 26.3658C305.588 26.3658 305.155 25.8693 305.059 25.0203H303.233C303.313 26.7983 304.578 27.7915 306.741 27.7915ZM314.64 27.7755C315.233 27.7755 315.649 27.6793 315.954 27.5672V26.0294C315.681 26.1416 315.393 26.1896 315.009 26.1896C314.4 26.1896 314.048 25.8532 314.048 25.1164V20.7113H315.89V19.2537H314.048V17.4116H312.109V19.2537H310.988V20.7113H312.109V25.2926C312.109 26.8784 312.974 27.7755 314.64 27.7755ZM214.427 46.6313H216.365V42.2743C216.365 40.4962 217.391 39.9516 219.089 39.9356V38.1255C217.679 38.1415 216.894 38.7663 216.365 39.8235V38.2537H214.427V46.6313ZM224.322 46.7915C226.468 46.7915 227.894 45.8304 228.166 44.0683H226.292C226.148 44.8853 225.539 45.3498 224.37 45.3498C222.928 45.3498 222.127 44.4528 222.063 42.867H228.198V42.3063C228.198 39.3109 226.324 38.0775 224.242 38.0775C221.855 38.0775 220.077 39.8075 220.077 42.4024V42.5306C220.077 45.1736 221.855 46.7915 224.322 46.7915ZM222.095 41.5695C222.287 40.272 223.072 39.4871 224.242 39.4871C225.443 39.4871 226.18 40.1278 226.276 41.5695H222.095ZM232.667 45.3979C231.706 45.3979 231.321 44.9333 231.321 44.2285C231.321 43.2034 232.266 42.867 233.74 42.867H234.733V43.6999C234.733 44.7732 233.852 45.3979 232.667 45.3979ZM232.202 46.7915C233.484 46.7915 234.22 46.3269 234.765 45.6061V46.6313H236.671V41.137C236.671 38.8464 235.198 38.0775 233.323 38.0775C231.449 38.0775 229.895 38.8944 229.735 40.8487H231.609C231.706 40.0157 232.202 39.5351 233.211 39.5351C234.349 39.5351 234.733 40.0958 234.733 41.2171V41.6496H233.692C231.289 41.6496 229.399 42.3544 229.399 44.3086C229.399 46.0546 230.664 46.7915 232.202 46.7915ZM242.513 45.2537C241.264 45.2537 240.334 44.3727 240.334 42.5306V42.4024C240.334 40.5924 241.167 39.5992 242.593 39.5992C244.003 39.5992 244.852 40.5123 244.852 42.3544V42.4825C244.852 44.3567 243.859 45.2537 242.513 45.2537ZM242.032 46.7915C243.266 46.7915 244.339 46.0546 244.788 45.2217V46.6313H246.726V34.3772H244.788V39.5351C244.323 38.7022 243.474 38.0775 242.113 38.0775C239.934 38.0775 238.348 39.7754 238.348 42.4505V42.5786C238.348 45.3018 239.934 46.7915 242.032 46.7915ZM251.897 46.7915C254.043 46.7915 255.245 45.8143 255.245 44.1164C255.245 42.3384 254.075 41.8578 252.105 41.5535C250.775 41.3292 250.375 41.0889 250.375 40.4802C250.375 39.8876 250.872 39.4871 251.705 39.4871C252.602 39.4871 253.034 39.8395 253.194 40.6084H254.988C254.78 38.7182 253.418 38.0775 251.705 38.0775C250.135 38.0775 248.565 38.9104 248.565 40.5924C248.565 42.1622 249.382 42.7869 251.592 43.1393C252.826 43.3475 253.386 43.6038 253.386 44.2926C253.386 44.9974 252.922 45.3658 251.881 45.3658C250.743 45.3658 250.311 44.8693 250.215 44.0203H248.389C248.469 45.7983 249.734 46.7915 251.897 46.7915ZM264.494 46.7915C266.961 46.7915 268.803 45.0935 268.803 42.4825V42.3544C268.803 39.7914 266.961 38.0775 264.51 38.0775C262.043 38.0775 260.201 39.8075 260.201 42.4024V42.5306C260.201 45.0775 262.027 46.7915 264.494 46.7915ZM264.51 45.2857C263.036 45.2857 262.187 44.2125 262.187 42.4985V42.3704C262.187 40.6404 263.068 39.5992 264.51 39.5992C265.952 39.5992 266.817 40.6564 266.817 42.3864V42.4985C266.817 44.2125 265.952 45.2857 264.51 45.2857ZM270.891 46.6313H272.829V39.7113H274.735V38.2537H272.829V37.0523C272.829 36.3315 273.149 35.8189 273.934 35.8189C274.286 35.8189 274.591 35.883 274.815 35.963V34.4573C274.463 34.3452 274.174 34.2971 273.71 34.2971C271.916 34.2971 270.891 35.2903 270.891 37.1324V38.2537H269.753V39.7113H270.891V46.6313ZM283.026 46.7755C283.618 46.7755 284.035 46.6793 284.339 46.5672V45.0294C284.067 45.1416 283.779 45.1896 283.394 45.1896C282.786 45.1896 282.433 44.8532 282.433 44.1164V39.7113H284.275V38.2537H282.433V36.4116H280.495V38.2537H279.374V39.7113H280.495V44.2926C280.495 45.8784 281.36 46.7755 283.026 46.7755ZM286.088 46.6313H288.026V41.6976C288.026 40.3681 288.907 39.6953 289.996 39.6953C291.149 39.6953 291.662 40.272 291.662 41.5374V46.6313H293.6V41.3612C293.6 39.0546 292.415 38.0775 290.733 38.0775C289.355 38.0775 288.426 38.7663 288.026 39.5832V34.3772H286.088V46.6313ZM299.517 46.7915C301.664 46.7915 303.089 45.8304 303.362 44.0683H301.488C301.343 44.8853 300.735 45.3498 299.565 45.3498C298.124 45.3498 297.323 44.4528 297.259 42.867H303.394V42.3063C303.394 39.3109 301.52 38.0775 299.437 38.0775C297.051 38.0775 295.272 39.8075 295.272 42.4024V42.5306C295.272 45.1736 297.051 46.7915 299.517 46.7915ZM297.291 41.5695C297.483 40.272 298.268 39.4871 299.437 39.4871C300.639 39.4871 301.375 40.1278 301.472 41.5695H297.291ZM309.871 49.4986H311.777L316.342 38.2537H314.452L312.402 43.6519L310.175 38.2537H308.077L311.393 45.7823L309.871 49.4986ZM321.167 46.7915C323.314 46.7915 324.739 45.8304 325.012 44.0683H323.137C322.993 44.8853 322.385 45.3498 321.215 45.3498C319.774 45.3498 318.973 44.4528 318.909 42.867H325.044V42.3063C325.044 39.3109 323.169 38.0775 321.087 38.0775C318.7 38.0775 316.922 39.8075 316.922 42.4024V42.5306C316.922 45.1736 318.7 46.7915 321.167 46.7915ZM318.941 41.5695C319.133 40.272 319.918 39.4871 321.087 39.4871C322.288 39.4871 323.025 40.1278 323.121 41.5695H318.941ZM329.512 45.3979C328.551 45.3979 328.167 44.9333 328.167 44.2285C328.167 43.2034 329.112 42.867 330.585 42.867H331.579V43.6999C331.579 44.7732 330.697 45.3979 329.512 45.3979ZM329.048 46.7915C330.329 46.7915 331.066 46.3269 331.611 45.6061V46.6313H333.517V41.137C333.517 38.8464 332.043 38.0775 330.169 38.0775C328.295 38.0775 326.741 38.8944 326.581 40.8487H328.455C328.551 40.0157 329.048 39.5351 330.057 39.5351C331.194 39.5351 331.579 40.0958 331.579 41.2171V41.6496H330.537C328.135 41.6496 326.244 42.3544 326.244 44.3086C326.244 46.0546 327.51 46.7915 329.048 46.7915ZM335.738 46.6313H337.676V42.2743C337.676 40.4962 338.702 39.9516 340.4 39.9356V38.1255C338.99 38.1415 338.205 38.7663 337.676 39.8235V38.2537H335.738V46.6313Z" fill="white"/>
<path d="M605.329 23.1864H593.152C592.365 23.1864 591.705 23.7827 591.705 24.5732V29.0247C591.705 33.0602 595.076 36.4162 599.248 36.4162C603.391 36.4162 606.734 33.0602 606.734 29.0247V24.5732C606.72 23.7827 606.088 23.1864 605.329 23.1864ZM603.517 28.7058L599.936 32.034C599.753 32.242 599.458 32.3252 599.248 32.3252C598.981 32.3252 598.714 32.242 598.503 32.034L594.978 28.7058C594.613 28.3175 594.556 27.6657 594.978 27.2497C595.371 26.8891 596.031 26.8336 596.424 27.2497L599.248 29.9261L602.127 27.2497C602.492 26.8336 603.152 26.8891 603.517 27.2497C603.883 27.6657 603.883 28.3175 603.517 28.7058Z" fill="#FF3355"/>
<path d="M599.936 32.0339L603.517 28.7057C603.883 28.3174 603.883 27.6656 603.517 27.2495C603.152 26.889 602.492 26.8335 602.127 27.2495L599.248 29.926L596.424 27.2495C596.031 26.8335 595.371 26.889 594.978 27.2495C594.556 27.6656 594.613 28.3174 594.978 28.7057L598.503 32.0339C598.714 32.2419 598.981 32.3251 599.248 32.3251C599.458 32.3251 599.753 32.2419 599.936 32.0339Z" fill="white"/>
<path d="M618.953 23.0617C616.903 23.0617 615.077 24.2127 613.785 25.7381L613.728 23.9215C613.7 23.2697 613.391 22.9646 612.914 22.9646C612.408 22.9646 612.071 23.3529 612.071 23.9076V41.6583C612.071 42.1853 612.436 42.5459 612.942 42.5459C613.476 42.5459 613.785 42.1576 613.785 41.6306V33.8785C615.077 35.3901 616.889 36.4302 618.953 36.4302C622.689 36.4302 625.653 33.4625 625.653 29.8014C625.653 26.1403 622.704 23.0617 618.953 23.0617ZM618.925 34.7938C616.214 34.7938 613.939 32.5333 613.939 29.7737C613.939 26.9862 616.2 24.6703 618.925 24.6703C621.692 24.6703 623.911 26.9862 623.911 29.7737C623.911 32.5333 621.692 34.7938 618.925 34.7938Z" fill="white"/>
<path d="M661.273 29.1079L666.174 24.7396C666.624 24.3513 666.68 23.7827 666.329 23.4083C665.964 23.02 665.402 23.1171 665.009 23.4915L658.337 29.6626V18.1385C658.337 17.5422 658.07 17.1539 657.522 17.1539C656.918 17.1539 656.624 17.5422 656.624 18.1385V35.4455C656.624 36.0141 656.961 36.4024 657.522 36.4024C658.028 36.4024 658.337 36.0141 658.337 35.4455V31.7151L660.051 30.1896L665.43 36.0973C665.767 36.4578 666.357 36.5965 666.722 36.2498C667.144 35.8615 667.017 35.3345 666.694 34.974L661.273 29.1079Z" fill="white"/>
<path d="M633.926 23.0616C630.106 23.0616 627.156 26.1125 627.156 29.7736C627.156 33.4347 630.106 36.4024 633.926 36.4024C637.508 36.4024 640.626 33.4347 640.626 29.7736C640.626 26.1125 637.479 23.0616 633.926 23.0616ZM633.87 34.7937C631.159 34.7937 628.884 32.5333 628.884 29.7736C628.884 26.9862 631.145 24.6702 633.87 24.6702C636.637 24.6702 638.856 26.9862 638.856 29.7736C638.856 32.5333 636.637 34.7937 633.87 34.7937Z" fill="white"/>
<path d="M688.268 33.8784C688.001 33.8784 687.734 34.031 687.58 34.1697C687.215 34.4886 686.765 34.7937 686.133 34.7937C685.052 34.7937 684.448 34.1419 684.448 32.6581V24.6425L687.791 24.698C688.268 24.698 688.577 24.4068 688.577 23.963C688.577 23.4915 688.254 23.2141 687.791 23.2141L684.448 23.2419V20.5654C684.448 20.0384 684.083 19.6779 683.633 19.6779C683.156 19.6779 682.762 20.0384 682.762 20.5654V23.2419L681.344 23.2141C680.894 23.2141 680.585 23.5054 680.585 23.963C680.585 24.379 680.922 24.7118 681.344 24.698L682.762 24.6425V32.7135C682.762 35.2375 684.321 36.4024 686.105 36.4024C687.215 36.4024 688.057 35.9863 688.633 35.39C688.816 35.182 688.998 34.9462 688.998 34.6412C688.998 34.1974 688.718 33.8784 688.268 33.8784Z" fill="white"/>
<path d="M674.012 23.0616C670.276 23.0616 667.481 26.1125 667.481 29.7736C667.481 33.4347 670.332 36.4024 674.04 36.4024C675.88 36.4024 677.678 35.7228 678.858 34.5857C679.124 34.3222 679.335 34.0448 679.335 33.7536C679.335 33.3376 679.068 33.0048 678.577 33.0048C678.31 33.0048 678.043 33.1157 677.832 33.296C676.723 34.2529 675.599 34.8076 674.04 34.8076C671.624 34.8076 669.461 32.9909 669.236 30.2867H678.647C679.546 30.2867 680.037 29.8152 680.037 29.0663C680.037 26.1264 677.453 23.0616 674.012 23.0616ZM669.279 28.8306C669.672 26.0986 671.708 24.6702 674.012 24.6702C676.456 24.6702 678.169 26.6949 678.282 28.8306H669.279Z" fill="white"/>
<path d="M653.534 32.2975C653.295 32.2975 653.028 32.4778 652.874 32.6858C652.129 33.6427 650.556 34.7937 648.786 34.7937C646.146 34.7937 643.884 32.7413 643.884 29.7736C643.884 26.5978 646.146 24.698 648.786 24.698C650.711 24.698 651.764 25.6132 652.663 26.6811C652.817 26.8613 653.056 27.0416 653.351 27.0416C653.744 27.0416 654.138 26.7504 654.138 26.3621C654.138 26.0709 653.955 25.7935 653.801 25.5578C652.719 24.0184 650.907 23.1448 648.8 23.1448C645.134 23.1448 642.129 26.1125 642.129 29.7736C642.129 33.393 645.134 36.4023 648.8 36.4023C651.062 36.4023 653.014 35.0988 654.039 33.7536C654.222 33.5178 654.334 33.2821 654.334 33.0741C654.32 32.6164 653.983 32.2975 653.534 32.2975Z" fill="white"/>
<path d="M231.141 162.769H254.948C268.309 162.769 275.273 157.181 275.273 146.574V146.25C275.273 138.476 271.224 134.184 263.694 132.646C270.172 130.783 273.087 126.33 273.087 120.257V119.933C273.087 110.054 266.528 104.871 253.896 104.871H231.141V162.769ZM243.936 128.678V113.86H251.709C257.863 113.86 260.617 116.046 260.617 120.904V121.228C260.617 126.411 258.106 128.678 251.79 128.678H243.936ZM243.936 153.699V137.1H252.276C259.402 137.1 262.317 139.853 262.317 145.197V145.521C262.317 150.784 259.402 153.699 252.924 153.699H243.936ZM302.981 163.659C314.561 163.659 321.849 158.558 323.225 149.408H312.131C311.403 152.971 308.731 155.319 303.305 155.319C296.908 155.319 293.102 151.27 292.778 144.225H323.306V140.986C323.306 125.844 313.589 119.447 302.657 119.447C290.349 119.447 280.875 128.111 280.875 141.472V142.12C280.875 155.643 290.187 163.659 302.981 163.659ZM292.94 137.019C293.831 131.026 297.394 127.544 302.657 127.544C308.245 127.544 311.484 130.621 311.889 137.019H292.94ZM346.773 163.659C357.947 163.659 364.587 158.882 364.587 149.732C364.587 140.662 358.757 137.99 348.149 136.452C341.995 135.561 339.971 134.508 339.971 131.836C339.971 129.245 342.157 127.463 345.963 127.463C350.012 127.463 351.955 129.083 352.603 132.565H363.372C362.32 122.848 355.275 119.447 345.882 119.447C337.217 119.447 329.12 123.82 329.12 132.646C329.12 140.905 333.493 144.144 344.748 145.845C350.821 146.736 353.332 147.95 353.332 150.865C353.332 153.78 351.226 155.481 346.692 155.481C341.59 155.481 339.728 153.295 339.242 149.489H328.31C328.715 158.639 335.355 163.659 346.773 163.659ZM387.499 163.578C390.657 163.578 393.006 163.012 394.625 162.445V153.376C393.249 153.942 391.953 154.185 390.172 154.185C387.175 154.185 385.475 152.566 385.475 149.165V128.759H394.382V120.419H385.475V111.268H373.815V120.419H368.389V128.759H373.815V150.218C373.815 159.044 378.592 163.578 387.499 163.578ZM440.185 163.659C452.898 163.659 462.534 155.157 462.534 141.796V141.148C462.534 127.949 452.979 119.447 440.266 119.447C427.552 119.447 417.916 128.111 417.916 141.391V142.039C417.916 155.238 427.552 163.659 440.185 163.659ZM440.266 154.752C433.626 154.752 429.901 149.894 429.901 141.796V141.148C429.901 133.051 433.788 128.354 440.266 128.354C446.825 128.354 450.63 133.213 450.63 141.31V141.877C450.63 149.894 446.825 154.752 440.266 154.752ZM472.349 162.769H484.009V128.759H493.241V120.419H484.009V115.236C484.009 111.997 485.548 109.649 489.273 109.649C490.973 109.649 492.431 109.973 493.564 110.378V101.551C491.702 100.984 490.002 100.742 487.491 100.742C478.098 100.742 472.349 105.681 472.349 115.56V120.419H466.762V128.759H472.349V162.769Z" fill="white"/>
<path d="M159.247 301.933H257.17V274.144H220.614L234.178 261.076C247.246 248.505 256.178 236.76 256.178 220.054C256.178 197.889 240.464 181.844 210.359 181.844C180.75 181.844 162.059 197.062 161.066 227.828H194.81C196.299 214.761 200.93 209.964 208.539 209.964C215.983 209.964 219.291 214.926 219.291 221.708C219.291 231.467 211.351 241.392 199.442 254.129L159.247 296.805V301.933ZM321.366 304.083C355.937 304.083 378.102 282.249 378.102 244.204V239.738C378.102 200.535 353.455 181.844 322.027 181.844C290.434 181.844 266.118 202.686 266.118 240.565V245.196C266.118 282.91 287.291 304.083 321.366 304.083ZM322.523 275.136C308.794 275.136 303.336 265.708 303.336 245.031V240.4C303.336 219.888 308.794 210.295 322.193 210.295C335.426 210.295 340.884 219.888 340.884 240.565V244.866C340.884 265.377 335.756 275.136 322.523 275.136ZM384.588 301.933H482.511V274.144H445.955L459.519 261.076C472.587 248.505 481.519 236.76 481.519 220.054C481.519 197.889 465.805 181.844 435.7 181.844C406.091 181.844 387.4 197.062 386.407 227.828H420.151C421.64 214.761 426.271 209.964 433.88 209.964C441.324 209.964 444.632 214.926 444.632 221.708C444.632 231.467 436.692 241.392 424.783 254.129L384.588 296.805V301.933ZM513.128 301.933H550.677V183.663H518.421L491.294 202.52V233.618L513.128 220.55V301.933Z" fill="white"/>
<rect x="601.659" y="329.585" width="119.447" height="79.6313" fill="#FC7F6E"/>
</g>
<defs>
<clipPath id="clip0_1289_39616">
<rect width="720" height="405" fill="white"/>
</clipPath>
</defs>
</svg>
