<svg width="43" height="44" viewbox="0 0 43 44" xmlns="http://www.w3.org/2000/svg" xmlns:xlink="http://www.w3.org/1999/xlink"><defs><linearGradient x1="50.153%" y1="-9.416%" x2="49.806%" y2="125.776%" id="b"><stop stop-color="#FF953F" offset="0%"/><stop stop-color="#FF2A89" offset="100%"/></linearGradient><path d="M38.069 2.187V8.33l-1.723-1.807A21.013 21.013 0 0021.137.004c-1.818 0-3.651.237-5.455.722C8.253 2.726 2.509 8.627.69 16.128a2.204 2.204 0 00.569 2.163c.563.55 1.38.754 2.135.532A2.191 2.191 0 004.9 17.207C6.756 9.644 13.46 4.371 21.207 4.365h.021c5.254 0 10.25 2.528 13.37 6.767l1.172 1.593h-8.217a2.183 2.183 0 00-2.174 2.186 2.18 2.18 0 002.174 2.18h12.689a2.178 2.178 0 002.171-2.182V2.182A2.178 2.178 0 0040.242 0a2.187 2.187 0 00-2.173 2.187m.431 21.836a2.162 2.162 0 00-.988 1.341 16.79 16.79 0 01-16.304 12.823h-.026a16.645 16.645 0 01-13.366-6.77l-1.17-1.593h8.216a2.18 2.18 0 002.173-2.182 2.18 2.18 0 00-2.173-2.183H2.173A2.18 2.18 0 000 27.642V40.37a2.18 2.18 0 002.173 2.182 2.18 2.18 0 002.172-2.182v-6.145l1.724 1.807a21.005 21.005 0 0015.058 6.522h.301a20.99 20.99 0 005.303-.722A21.08 21.08 0 0041.722 26.43a2.185 2.185 0 00-1.577-2.649 2.153 2.153 0 00-1.645.243" id="a"/></defs><g transform="translate(0 .5)" fill="none" fill-rule="evenodd"><mask id="c" fill="#fff"><use xlink:href="#a"/></mask><path d="M38.069 2.187V8.33l-1.723-1.807A21.013 21.013 0 0021.137.004c-1.818 0-3.651.237-5.455.722C8.253 2.726 2.509 8.627.69 16.128a2.204 2.204 0 00.569 2.163c.563.55 1.38.754 2.135.532A2.191 2.191 0 004.9 17.207C6.756 9.644 13.46 4.371 21.207 4.365h.021c5.254 0 10.25 2.528 13.37 6.767l1.172 1.593h-8.217a2.183 2.183 0 00-2.174 2.186 2.18 2.18 0 002.174 2.18h12.689a2.178 2.178 0 002.171-2.182V2.182A2.178 2.178 0 0040.242 0a2.187 2.187 0 00-2.173 2.187m.431 21.836a2.162 2.162 0 00-.988 1.341 16.79 16.79 0 01-16.304 12.823h-.026a16.645 16.645 0 01-13.366-6.77l-1.17-1.593h8.216a2.18 2.18 0 002.173-2.182 2.18 2.18 0 00-2.173-2.183H2.173A2.18 2.18 0 000 27.642V40.37a2.18 2.18 0 002.173 2.182 2.18 2.18 0 002.172-2.182v-6.145l1.724 1.807a21.005 21.005 0 0015.058 6.522h.301a20.99 20.99 0 005.303-.722A21.08 21.08 0 0041.722 26.43a2.185 2.185 0 00-1.577-2.649 2.153 2.153 0 00-1.645.243" fill="url(#b)" mask="url(#c)"/></g></svg>
