<svg xmlns="http://www.w3.org/2000/svg" viewBox="0 0 48 43" width="48" height="43">
  <style>
    .st0{fill:#ff8ac5}.st1{fill:#ff298a}.st2{fill:#e31587}
  </style>
  <path d="M30.3 29c-.6 0-1.1-.5-1.1-1.1s.5-1.1 1.1-1.1c2.7-.2 4.7-2.5 4.5-5.1-.2-2.4-2.1-4.3-4.5-4.5-.6 0-1.1-.5-1.1-1.1 0-.6.5-1.1 1.1-1.1 3.9 0 7 3.1 7 7s-3.1 7-7 7z" class="st0"/>
  <path d="M32.4 33.5c-.5 0-.8-.4-.8-.8 0-.5.4-.8.8-.8 4.2 0 7.6-4.5 7.6-10s-3.4-10-7.6-10c-.5 0-.8-.4-.8-.8 0-.5.4-.8.8-.8 5.1 0 9.3 5.2 9.3 11.7s-4.1 11.5-9.3 11.5z" class="st1"/>
  <path d="M34.3 38.6c-.3 0-.6-.2-.6-.6 0-.3.3-.5.6-.6 6.5 0 11.7-6.8 11.7-15.2S40.6 7.1 34.3 7.1c-.3 0-.6-.2-.6-.6s.2-.5.6-.5c7 0 12.7 7.3 12.7 16.3s-5.7 16.3-12.7 16.3z" class="st0"/>
  <path d="M1 21v3.4c-.1 4.3 3.3 7.9 7.7 8h4.6V29H8.7C4.3 28.9.9 25.3 1 21z" class="st2"/>
  <path d="M8.7 10.4c-4.3.1-7.8 3.7-7.7 8V21c-.1 4.3 3.3 7.9 7.7 8h4.6V10.4H8.7z" class="st1"/>
  <path d="M24.4 32.2l-11.1-10v10.1l11.1 10c.3.2.7.2 1-.2.1-.1.1-.3.1-.4v-10c0 .4-.3.7-.7.7-.1 0-.3-.1-.4-.2z" class="st2"/>
  <path d="M24.1.7l-10.8 9.8v11.8l11.1 10c.3.2.7.2 1-.2.1-.1.1-.3.1-.4V1.4c0-.5-.4-.9-.9-.9-.2 0-.3.1-.5.2z" class="st1"/>
</svg>
