<svg xmlns="http://www.w3.org/2000/svg" x="0" y="0" version="1.1" viewBox="0 0 40 43" width="40" height="43" xml:space="preserve">
  <style>
    .st3{fill:none;stroke:#ff298a;stroke-width:.8772;stroke-linecap:round}
  </style>
  <path fill="#ff8ac5" d="M36.9 1.1H3.1C1.6 1.1.5 2.3.5 3.7v35.9c0 1.5 1.2 2.6 2.6 2.6h33.7c1.5 0 2.6-1.2 2.6-2.6V3.8c.1-1.5-1.1-2.7-2.5-2.7z"/>
  <path fill="#ff298a" d="M36.9.7H3.1C1.6.7.5 1.9.5 3.3v5.4h39V3.4c0-1.5-1.2-2.7-2.6-2.7z"/>
  <path fill="#e10980" d="M3.4 11.7h9.1v25.9H3.4z"/>
  <g>
    <path d="M16.2 16.6h19.5" class="st3"/>
    <path d="M16.2 18.6h19.5" class="st3"/>
    <path d="M16.2 20.6h19.5" class="st3"/>
    <path d="M16.2 14.5h19.5" class="st3"/>
    <path d="M16.4 22.6h9.7" class="st3"/>
    <path d="M16.2 28.8h19.5" class="st3"/>
    <path d="M16.2 30.8h19.5" class="st3"/>
    <path d="M16.2 32.8h19.5" class="st3"/>
    <path d="M16.2 26.8h19.5" class="st3"/>
    <path d="M16.4 34.8h9.7" class="st3"/>
  </g>
</svg>
