<svg xmlns="http://www.w3.org/2000/svg" viewBox="0 0 38.41 41.33" width="38" height="41">
<path fill="#ffffff" d="M37.84,17.86a7.2,7.2,0,0,0-6.64-4.4,7.16,7.16,0,0,0-6,3.17,7.08,7.08,0,0,0-.95,2.09H14.14a5.12,5.12,0,0,0-.29-.86,4.79,4.79,0,0,0-.4-.78l3.62-3.62h0a7.18,7.18,0,0,0,3.59.95,7.08,7.08,0,0,0,2.8-.57A7.21,7.21,0,0,0,27.88,7.2a7.21,7.21,0,0,0-3.18-6,7.18,7.18,0,0,0-4-1.23,7.34,7.34,0,0,0-2.81.56,7.2,7.2,0,0,0-4.4,6.64A7.13,7.13,0,0,0,14,10a7,7,0,0,0,.33.67l-3.67,3.67a7.2,7.2,0,0,0-3.48-.89,7.16,7.16,0,0,0-6,3.17,7.26,7.26,0,0,0-1.23,4,7.13,7.13,0,0,0,.57,2.81,7.23,7.23,0,0,0,2.61,3.17,7.16,7.16,0,0,0,4,1.23,7.21,7.21,0,0,0,6-3.18,6.69,6.69,0,0,0,1-2.08H24.26a6.24,6.24,0,0,0,.3.86,7,7,0,0,0,.33.67l-3.67,3.67a7.17,7.17,0,0,0-3.48-.89,7.16,7.16,0,0,0-6,3.17,7.26,7.26,0,0,0-1.23,4,7.13,7.13,0,0,0,.57,2.81,7.29,7.29,0,0,0,2.61,3.17,7.22,7.22,0,0,0,11.24-6,7.26,7.26,0,0,0-.57-2.8c-.12-.27-.25-.54-.39-.79l3.61-3.61h0a7.18,7.18,0,0,0,3.59.95,7.23,7.23,0,0,0,7.21-7.21A7.26,7.26,0,0,0,37.84,17.86ZM17.61,5.91a3.35,3.35,0,0,1,1.2-1.46A3.32,3.32,0,0,1,22,4.14,3.31,3.31,0,0,1,24,7.2a3.33,3.33,0,0,1-3.32,3.33,3.32,3.32,0,0,1-2.76-1.47,3.35,3.35,0,0,1-.3-3.15ZM10.27,22a3.32,3.32,0,0,1-5.82.56,3.35,3.35,0,0,1-.3-3.15,3.35,3.35,0,0,1,1.2-1.46,3.27,3.27,0,0,1,1.86-.57,3.23,3.23,0,0,1,1.29.26,3.31,3.31,0,0,1,2,3.06A3.28,3.28,0,0,1,10.27,22ZM20.8,35.42a3.32,3.32,0,0,1-4.35,1.77A3.41,3.41,0,0,1,15,36a3.33,3.33,0,0,1,2.76-5.18,3.23,3.23,0,0,1,1.29.26,3.31,3.31,0,0,1,2,3.06A3.28,3.28,0,0,1,20.8,35.42ZM34.26,22a3.32,3.32,0,0,1-5.82.56,3.35,3.35,0,0,1-.3-3.15,3.35,3.35,0,0,1,1.2-1.46,3.27,3.27,0,0,1,1.86-.57,3.23,3.23,0,0,1,1.29.26,3.31,3.31,0,0,1,2,3.06A3.28,3.28,0,0,1,34.26,22Z"/></svg>
