<svg width="49" height="47" xmlns="http://www.w3.org/2000/svg"><g transform="translate(0 -.5)" fill-rule="nonzero" fill="none"><path d="M30.419 13.607a4.423 4.423 0 004.361 2.573 4.623 4.623 0 001.803 4.839 4.369 4.369 0 005.047 0 4.477 4.477 0 003.914 3.267c.628.05 1.26-.04 1.849-.262.33.465.57.988.709 1.54a4.5 4.5 0 00.262-1.155 4.623 4.623 0 00-.848-3.082c-.59.22-1.22.31-1.849.262a4.484 4.484 0 01-3.914-3.274 4.353 4.353 0 01-5.047 0 4.623 4.623 0 01-1.803-4.84 4.43 4.43 0 01-4.36-2.603 4.87 4.87 0 01-.293-.856 4.677 4.677 0 00.169 3.59z" fill="#FF45A2"/><path d="M47.285 29.587a4.685 4.685 0 00-.308-2.142 4.623 4.623 0 001.125-1.803 4.623 4.623 0 00-.709-1.541 4.269 4.269 0 01-1.85.262 4.477 4.477 0 01-3.936-3.298 4.369 4.369 0 01-5.047 0 4.623 4.623 0 01-1.78-4.885 4.423 4.423 0 01-4.361-2.604 4.677 4.677 0 01-.17-3.498 4.754 4.754 0 010-2.258 4.623 4.623 0 01-1.54-3.852c.032-.39.118-.773.254-1.14a4.53 4.53 0 01-.131-1.071 4.3 4.3 0 00-5.47-.07 4.292 4.292 0 00-3.152-.577 4.407 4.407 0 00-2.728 1.718 4.322 4.322 0 00-3.182.254 4.515 4.515 0 00-2.203 2.373 4.369 4.369 0 00-3.013 1.086 4.569 4.569 0 00-1.54 2.89A4.43 4.43 0 004.9 11.28a4.67 4.67 0 00-.77 3.198 4.477 4.477 0 00-2.034 2.473c.051.223.118.441.2.655a3.799 3.799 0 00-.431.5c-.066.729.04 1.462.308 2.143a4.623 4.623 0 00-1.125 1.802c.14.602.402 1.169.77 1.665a4.477 4.477 0 00-.608 1.803c.131.296.294.578.485.84-.16.27-.292.557-.393.855.23.999.792 1.89 1.595 2.527a4.623 4.623 0 00.239 3.275 4.461 4.461 0 002.311 2.265 4.623 4.623 0 001.056 3.082 4.423 4.423 0 002.812 1.54 4.554 4.554 0 001.803 2.713 4.322 4.322 0 003.082.77 4.469 4.469 0 002.42 2.142 4.338 4.338 0 003.236-.069 4.346 4.346 0 005.94.493 4.33 4.33 0 003.144.609 4.407 4.407 0 002.72-1.718 4.346 4.346 0 003.19-.247 4.546 4.546 0 002.203-2.38 4.369 4.369 0 003.013-1.064 4.569 4.569 0 001.54-2.89 4.453 4.453 0 002.643-1.849 4.67 4.67 0 00.77-3.197 4.561 4.561 0 002.073-2.473 4.623 4.623 0 00-.2-.655c.145-.156.276-.323.393-.501z" fill="#E30185"/><ellipse fill="#FFB2DB" cx="24.702" cy="23.908" rx="3.344" ry="3.436"/><ellipse fill="#FFB2DB" cx="10.548" cy="23.908" rx="3.344" ry="3.436"/><ellipse fill="#FFB2DB" cx="18.268" cy="11.758" rx="3.344" ry="3.436"/><ellipse fill="#FFB2DB" cx="31.136" cy="35.812" rx="3.344" ry="3.436"/><ellipse fill="#FFB2DB" cx="18.268" cy="35.812" rx="3.344" ry="3.436"/><path d="M28.955 2.859c.092-.241.2-.476.324-.702a3.76 3.76 0 00-.416-.37c-.012.36.019.72.092 1.072z" fill="#FF2089"/><path d="M1.048 22.051a4.5 4.5 0 00-.278 1.156 4.577 4.577 0 00.424 2.312 4.477 4.477 0 01.609-1.803 4.507 4.507 0 01-.755-1.665zM2.096 16.95a4.53 4.53 0 00-.224 1.141c.132-.174.28-.336.44-.485a4.931 4.931 0 01-.216-.655zM1.21 25.519c-.07.48-.066.97.015 1.448 0 .093.054.177.077.27.1-.298.233-.585.393-.855a4.569 4.569 0 01-.485-.863zM1.865 18.107a4.5 4.5 0 00-.817 3.944c.23-.68.615-1.297 1.125-1.802a4.685 4.685 0 01-.308-2.142zM47.285 29.587c.55-.71.882-1.563.955-2.458.037-.5-.01-1.002-.138-1.487A4.623 4.623 0 0147 27.445c.26.682.358 1.415.285 2.142zM47.285 29.587c-.129.179-.273.347-.431.5.082.214.15.433.2.656a4.53 4.53 0 00.231-1.156z" fill="#E30185"/><path d="M36.568 20.95a3.46 3.46 0 00-1.303 2.704 3.344 3.344 0 106.68 0 3.46 3.46 0 00-.878-2.311 4.346 4.346 0 01-4.5-.401v.008z" fill="#FFB2DB"/></g></svg>