<svg width="60" height="50" xmlns="http://www.w3.org/2000/svg"><g fill-rule="nonzero" fill="none"><path d="M34 8.8h-4.8c-.7 0-1.3-.6-1.3-1.3V2.2c.1-.6.6-1.2 1.3-1.2H34c.7 0 1.3.6 1.3 1.3v5.3c0 .7-.6 1.2-1.3 1.2zM34 49h-4.8c-.7 0-1.2-.6-1.2-1.2V16.1c0-.7.6-1.2 1.2-1.2H34c.7 0 1.2.6 1.2 1.2v31.7c.1.6-.5 1.2-1.2 1.2z" fill="#9059FF"/><path fill="#592ACB" d="M28 12h7.2v7.8H28z"/><path d="M48 15.8V4.9c0-.5-.4-.9-.9-1-2.7-.2-11.4-.6-21.1 1.6-8.4 1.9-16 6.8-19.7 9.4-.8.6-.4 1.8.6 1.8H47c.6 0 1-.4 1-.9z" fill="#AB71FF"/><path d="M31.6 10.3c-10.4.7-21 4-25.7 5.6.1.4.4.8 1 .8H47c.5 0 1-.4 1-1v-6s-6.6-.1-16.4.6z" fill="#7641E5"/></g></svg>