<svg xmlns="http://www.w3.org/2000/svg" width="55" height="48" viewBox="0 0 55 48">
  <defs>
    <linearGradient id="a" x1="-27.123%" x2="96.902%" y1="127.801%" y2="3.696%">
      <stop offset="0%" stop-color="#1D8BF0"/>
      <stop offset="50%" stop-color="#4084F4"/>
      <stop offset="100%" stop-color="#AB71FF"/>
    </linearGradient>
    <linearGradient id="b" x1="120.64%" x2="-22.989%" y1="39.068%" y2="-108.676%">
      <stop offset="0%" stop-color="#FF7139"/>
      <stop offset="22%" stop-color="#FF624A"/>
      <stop offset="66%" stop-color="#FF3C75"/>
      <stop offset="86%" stop-color="#FF298A"/>
    </linearGradient>
  </defs>
  <g fill="none" fill-rule="nonzero">
    <path fill="url(#a)" d="M27.582 11.102v10.391c0 3.503.685 4.587 2.205 4.587 2.249 0 3.769-2.249 3.769-8.969 0-7.422-4.276-12.098-13.174-12.098-9.19 0-14.489 6.223-14.489 15.023 0 8.968 5.085 14.808 14.534 14.808a25.876 25.876 0 008.257-1.457l1.485 4.169a28.658 28.658 0 01-9.778 1.777C8.32 39.333.356 31.823.356 20.098.356 8.836 8.702.613 20.39.613c11.991 0 18.667 7.85 18.667 16.445 0 7.386-3.387 12.889-9.067 12.889a5.422 5.422 0 01-5.547-4.25 6.453 6.453 0 01-6.106 4.08c-5.165 0-7.627-3.92-7.627-9.297 0-6.969 3.645-11.182 9.707-11.182 2.5.006 4.96.625 7.164 1.804zm-5.12 12.356V13.52a5.378 5.378 0 00-2.204-.453c-2.542 0-4.071 2.044-4.071 7.386 0 3.92.933 5.503 2.924 5.503a3.671 3.671 0 003.351-2.498z" transform="translate(.579 -.5)"/>
    <path fill="url(#b)" d="M53.022 41.778l-10.07-20.17a4.071 4.071 0 00-7.28 0L25.6 41.779a4.062 4.062 0 001.778 5.449 4.107 4.107 0 001.83.435h20.188a4.071 4.071 0 004.062-4.062 4.169 4.169 0 00-.436-1.822zM37.28 27.324a2.036 2.036 0 114.062-.266c.01.088.01.178 0 .266v8.134a2.036 2.036 0 11-4.062.266 1.333 1.333 0 010-.266v-8.134zm2.027 16.783a2.542 2.542 0 110-5.085 2.542 2.542 0 010 5.085z" transform="translate(.579 -.5)"/>
  </g>
</svg>
