<svg width="60" height="50" xmlns="http://www.w3.org/2000/svg"><g fill="none" fill-rule="evenodd"><path d="M29.984 32.893l7.895-9.416a2.09 2.09 0 012.871-.316v-5.348a2.563 2.563 0 00-2.563-2.563H29.86c-1.062 0-1.922-.92-1.922-1.921 0-1.922 2.563-1.998 2.563-4.485C30.5 6.628 28.205 5 25.375 5S20.25 6.628 20.25 8.844c0 2.487 2.562 2.563 2.562 4.485 0 1.002-.86 1.92-1.922 1.92h-8.328A2.562 2.562 0 0010 17.814v5.766c0 1.06.92 1.92 1.922 1.92 1.921 0 1.997-2.561 4.484-2.561 2.216 0 3.844 2.294 3.844 5.125 0 .829-.154 1.6-.408 2.294l7.76 3.13a2.088 2.088 0 002.382-.594M49.818 34.35c.734-.935 1.182-2.252 1.182-3.725 0-2.83-1.628-5.125-3.844-5.125-1.583 0-2.19 1.035-2.918 1.79l5.174 6.246c.197.238.33.518.406.814M11.922 30.625c-1.002 0-1.922.86-1.922 1.922v4.122l4.904-3.899c-1.141-.726-1.55-2.145-2.982-2.145" fill="#AC6CFF"/><path d="M12.563 46h8.327c1.063 0 1.922-.919 1.922-1.922 0-1.922-2.563-1.997-2.563-4.484 0-2.216 2.296-3.844 5.127-3.844 2.83 0 5.123 1.628 5.123 3.844 0 2.487-2.561 2.562-2.561 4.484 0 1.003.86 1.922 1.922 1.922h8.328a2.562 2.562 0 002.561-2.563v-8.328c0-1.061.92-1.922 1.922-1.922 1.922 0 1.998 2.563 4.486 2.563 1.063 0 1.984-.538 2.662-1.4a2.092 2.092 0 00-.407-.815L44.24 27.29c-.415.431-.868.773-1.567.773-1.002 0-1.922-.861-1.922-1.922v-2.98a2.088 2.088 0 00-2.871.316l-7.894 9.416a2.088 2.088 0 01-2.383.594l-7.76-3.13c-.61 1.672-1.87 2.83-3.435 2.83-.636 0-1.111-.168-1.502-.417L10 36.669v6.768A2.563 2.563 0 0012.563 46" fill="#7638E9"/></g></svg>
