<svg xmlns="http://www.w3.org/2000/svg" enable-background="new 0 0 45 47" viewBox="0 0 45 47" width="45" height="47">
  <path fill="#1877f2" d="M3.3.1h38.5c1.7 0 3 1.3 3 3V44c0 1.7-1.3 3-3 3H3.3c-1.7 0-3-1.3-3-3V3.1c0-1.7 1.3-3 3-3z"/>
  <defs>
    <filter id="a" width="27.5" height="27.3" x="8.7" y="9.9" filterUnits="userSpaceOnUse">
      <feColorMatrix values="1 0 0 0 0 0 1 0 0 0 0 0 1 0 0 0 0 0 1 0"/>
    </filter>
  </defs>
  <mask id="b" width="27.5" height="27.3" x="8.7" y="9.9" maskUnits="userSpaceOnUse">
    <g filter="url(#a)">
      <path fill="#fff" d="M3.3.1h38.5c1.7 0 3 1.3 3 3V44c0 1.7-1.3 3-3 3H3.3c-1.7 0-3-1.3-3-3V3.1c0-1.7 1.3-3 3-3z"/>
    </g>
  </mask>
  <path fill="#fffffe" d="M36.2 23.6C36.2 16 30 9.9 22.4 9.9S8.7 16 8.7 23.6c0 6.9 5 12.5 11.6 13.6v-9.6h-3.5v-4h3.5v-3c0-3.4 2-5.3 5.2-5.3 1.5 0 3.1.3 3.1.3V19h-1.7c-1.7 0-2.2 1.1-2.2 2.1v2.6h3.8l-.6 4h-3.2v9.6c6.4-1.1 11.5-6.8 11.5-13.7" mask="url(#b)"/>
</svg>
