<svg width="60" height="50" viewBox="0 0 60 50" xmlns="http://www.w3.org/2000/svg"><g fill="none" fill-rule="nonzero"><path d="M23.42 16.876l11.11 11.11 2.72 2.73 4.58 4.58c-.57.37-1.16.73-1.77 1.06a20.7 20.7 0 01-1.89.93 20 20 0 01-8.16 1.75c-10.19 0-17.17-7.84-19.82-11.57-.52-.74-.87-1.32-1-1.64a27.25 27.25 0 0110.02-7.49c.65-.29 1.33-.56 2-.8a19.46 19.46 0 012-.6.83.83 0 01.21-.06zm-2.59-2.59l2.5 2.51.08.08a.83.83 0 00-.21.06 19.46 19.46 0 00-2 .6c-.7.24-1.38.51-2 .8a27.25 27.25 0 00-10.07 7.49 1.49 1.49 0 01-.13-.29 28.72 28.72 0 018.28-9.12 20 20 0 011.73-1.13 18.84 18.84 0 011.82-1zM49.88 27.466a32.14 32.14 0 01-6.1 6.44l-5.1-5.09-2.91-2.91-7.66-7.62-2-2-3.01-3.01a20 20 0 016.91-1.24c13.19 0 21 13.11 21 13.5a1.49 1.49 0 01-.13.29 15.76 15.76 0 01-1 1.64z" fill="#FFD5B2"/><path d="M34.52 27.986l2.73 2.73a10.5 10.5 0 01-1.51 1.32 9.79 9.79 0 01-5.73 1.83 9.84 9.84 0 01-9.85-9.83 9.7 9.7 0 01.85-3.94 9.43 9.43 0 011-1.8 8.67 8.67 0 011.19-1.37l.13-.14.08.08 2.6 2.6 8.51 8.52zM39.87 24.036a9.78 9.78 0 01-1.24 4.78l-2.91-2.91-7.61-7.62-2-2-.9-.9a9.86 9.86 0 0114.62 8.61l.04.04z" fill="#FFA266"/><path d="M36.01 24.006c0 .646-.105 1.288-.31 1.9l-7.59-7.62a5.83 5.83 0 011.88-.3 6 6 0 016.02 6.02zM25.41 20.096a6.017 6.017 0 108.5 8.52l-8.5-8.52z" fill="#E25920"/><path d="M44.12 40.416a2 2 0 01-2.82 0l-3.13-3.13-4.23-4.19-3.09-3.09-6.84-6.86-3-3-1.8-1.81-1.92-1.92-3-3a2.001 2.001 0 012.83-2.83l6.19 6.19.08.08 2.6 2.6 8.51 8.51 2.73 2.73 6.87 6.87a2 2 0 01.02 2.85z" fill="#E25920"/></g></svg>
