<svg xmlns="http://www.w3.org/2000/svg" viewBox="0 0 45 45" width="45" height="45" xml:space="preserve">
  <style>
    .st1{fill:#ffb3dc}.st2{fill:#ff68bb}
  </style>
  <path fill="#e31587" d="M22.5 44.5c-12.2 0-22-9.8-22-22s9.8-22 22-22 22 9.8 22 22c0 12.1-9.9 22-22 22z"/>
  <path d="M22.5 25.2c-.3 0-.5-.2-.5-.5v-14c0-.3.2-.5.5-.5s.5.2.5.5v14c0 .2-.2.5-.5.5z" class="st1"/>
  <path d="M31.6 24.1h-9.7c-.6 0-1.1-.5-1.1-1.1s.5-1.1 1.1-1.1h9.7c.6 0 1.1.5 1.1 1.1s-.5 1.1-1.1 1.1z" class="st1"/>
  <g>
    <path d="M37.5 22h2.2c.3 0 .5.2.5.5v.1c0 .3-.2.5-.5.5h-2.2c-.3 0-.5-.2-.5-.5v-.1c0-.3.2-.5.5-.5z" class="st2"/>
    <path d="M5.3 22h2.2c.3 0 .5.2.5.5v.1c0 .2-.2.4-.5.4H5.3c-.3 0-.5-.2-.5-.5v-.1c0-.2.2-.4.5-.4z" class="st2"/>
    <path d="M22.5 37c.3 0 .6.2.6.5v2.2c0 .3-.2.5-.5.5h-.1c-.3 0-.5-.2-.5-.5v-2.2c0-.3.2-.5.5-.5z" class="st2"/>
    <path d="M29.6 35.3c.3-.2.6-.1.8.1l1.2 1.9c.1.2.1.5-.2.7h-.1c-.2.1-.5.1-.7-.2L29.5 36c-.2-.3-.1-.6.1-.7z" class="st2"/>
    <path d="M35.2 29.8c.2-.3.5-.4.7-.2l1.9 1.1c.2.1.3.4.2.7v.1c-.1.2-.4.3-.7.2l-1.9-1.1c-.3-.3-.4-.6-.2-.8z" class="st2"/>
    <path d="M7.1 30.6L9 29.4c.2-.1.5-.1.7.2v.1c.1.2.1.5-.2.7l-1.9 1.2c-.2.1-.5.1-.7-.2v-.1c-.1-.2 0-.5.2-.7z" class="st2"/>
    <path d="M13.4 37.3l1.1-1.9c.1-.2.4-.3.7-.2h.1c.2.1.3.4.2.7l-1.1 1.9c-.1.2-.4.3-.7.2h-.1c-.2-.2-.3-.5-.2-.7z" class="st2"/>
    <path d="M22.5 4.8c.3 0 .6.2.6.5v2.2c-.1.3-.3.5-.6.5s-.5-.2-.5-.5V5.3c0-.3.2-.5.5-.5z" class="st2"/>
    <path d="M13.5 7c.3-.2.6-.1.8.1L15.5 9c.1.2.1.5-.2.7h-.1c-.2.1-.5.1-.7-.2l-1.2-1.9c-.1-.1 0-.4.2-.6z" class="st2"/>
    <path d="M7 13.7c.2-.3.5-.4.7-.2l1.9 1.1c.2.1.3.4.2.7v.1c-.1.2-.4.3-.7.2l-1.9-1.1c-.3-.3-.4-.6-.2-.8z" class="st2"/>
    <path d="M35.3 14.5l1.9-1.2c.2-.1.5-.1.7.2.1.2.1.5-.2.7l-1.9 1.2c-.2.1-.5.1-.7-.2-.1-.2 0-.5.2-.7z" class="st2"/>
    <path d="M29.5 9.1l1.1-1.9c.1-.2.4-.3.7-.2h.1c.2.1.3.4.2.7l-1.1 1.9c-.1.2-.4.3-.7.2h-.1c-.2-.2-.3-.5-.2-.7z" class="st2"/>
  </g>
</svg>
