<svg width="25" height="25" viewBox="0 0 25 25" fill="none" xmlns="http://www.w3.org/2000/svg">
<rect width="25" height="25" fill="url(#paint0_linear_4403_4671)"/>
<path d="M8.816 17.64C7.472 17.64 6.45933 17.234 5.778 16.422C5.106 15.6007 4.77 14.35 4.77 12.67C4.77 10.99 5.106 9.744 5.778 8.932C6.45933 8.11067 7.472 7.7 8.816 7.7C10.16 7.7 11.168 8.11067 11.84 8.932C12.512 9.75333 12.848 10.9993 12.848 12.67C12.848 14.3407 12.512 15.5867 11.84 16.408C11.168 17.2293 10.16 17.64 8.816 17.64ZM6.324 13.538C6.324 14.3407 6.45467 14.9707 6.716 15.428L10.216 9.184C9.84267 8.97867 9.376 8.876 8.816 8.876C7.96667 8.876 7.33667 9.114 6.926 9.59C6.52467 10.0567 6.324 10.7893 6.324 11.788V13.538ZM7.43 16.142C7.78467 16.3473 8.24667 16.45 8.816 16.45C9.66533 16.45 10.2907 16.2167 10.692 15.75C11.0933 15.274 11.294 14.5367 11.294 13.538V11.788C11.294 10.9947 11.168 10.3693 10.916 9.912L7.43 16.142ZM14.2973 16.296H16.4253V9.282L14.3393 10.36V9.198L16.9573 7.84H17.9233V16.296H20.0653V17.5H14.2973V16.296Z" fill="#161616"/>
<defs>
<linearGradient id="paint0_linear_4403_4671" x1="25" y1="31" x2="3.90832" y2="-7.46662" gradientUnits="userSpaceOnUse">
<stop offset="0.151941" stop-color="#D6FFCD" stop-opacity="0"/>
<stop offset="0.552841" stop-color="#00D230"/>
<stop offset="0.718504" stop-color="#74FFFF"/>
</linearGradient>
</defs>
</svg>

