<svg xmlns="http://www.w3.org/2000/svg" viewBox="0 0 52 45" width="52" height="45">
  <path fill="#e25920" d="M5.2 23h4.1v6H5.2z"/>
  <path fill="#ffb675" d="M41.3 12c-4.6 0-8.7 2.9-10.2 7.3H3.7c-2 0-3.7 1.6-3.7 3.7h33.7v-.5c0-4.2 3.4-7.6 7.6-7.6s7.7 3.4 7.7 7.6v.5h3v-.5C52 16.7 47.2 12 41.3 12z"/>
  <path fill="#ff7139" d="M49.1 23v-.4c0-4.3-3.5-7.7-7.7-7.7-4.3 0-7.7 3.5-7.7 7.7v.4H0c0 1.8 1.4 3.3 3.2 3.6V31c0 .6.4 1 1 1s1-.4 1-1v-4.4h4.1V31c0 .6.4 1 1 1s1-.4 1-1v-4.4h20.2c1.7 3.9 5.6 6.4 9.8 6.4 5.7.1 10.4-4.3 10.7-10h-2.9zm-7.7 5.6c-3.4 0-6.1-2.7-6.1-6.1s2.7-6.1 6.1-6.1c3.4 0 6.1 2.7 6.1 6.1s-2.7 6.1-6.1 6.1z"/>
</svg>
