<svg xmlns="http://www.w3.org/2000/svg" width="48" height="48" viewbox="0 0 48 48">
    <g fill="none" fill-rule="evenodd">
        <path d="M23.995 48c-2.282 0-4.394-.757-5.951-2.123 0 0-.01 0-.01-.01A186.705 186.705 0 0 1 2.121 29.952s0-.01-.01-.01C.757 28.394 0 26.281 0 24c0-2.283.757-4.395 2.122-5.952 0 0 0-.01.01-.01A186.705 186.705 0 0 1 18.045 2.122s.01 0 .01-.011C19.602.757 21.714 0 23.995 0c2.283 0 4.394.757 5.951 2.123 0 0 .011 0 .011.01a186.705 186.705 0 0 1 15.911 15.915s0 .01.01.01C47.244 19.606 48 21.719 48 24.012s-.757 4.394-2.122 5.952c0 0 0 .01-.01.01a176.889 176.889 0 0 1-2.614 2.891 2.408 2.408 0 0 1-3.53-3.275c.96-1.034 1.59-1.728 2.55-2.805 1.226-1.397 1.226-4.128 0-5.525-5.056-5.696-9.844-10.486-15.517-15.542-1.397-1.226-4.127-1.226-5.524 0a183.68 183.68 0 0 0-15.517 15.52c-1.226 1.398-1.226 4.128 0 5.526 5.055 5.674 9.833 10.464 15.517 15.52 1.397 1.226 4.116 1.226 5.513 0 1.962-1.771 3.85-3.446 5.727-5.248l-6.1-6.4-.022-.022a4.535 4.535 0 0 1-1.28-3.381 4.6 4.6 0 0 1 1.6-3.243l.075-.064a4.872 4.872 0 0 0 1.738-3.946 4.82 4.82 0 0 0-.245-1.344c-.746-2.219-2.687-3.008-4.266-3.008-1.567 0-3.508.789-4.265 3.008-.15.437-.235.885-.246 1.344a4.904 4.904 0 0 0 1.739 3.946l.032.022a4.536 4.536 0 0 1 .33 6.613l-2.346 2.41a2.407 2.407 0 0 1-3.402.065 2.408 2.408 0 0 1-.064-3.403l1.834-1.888a.422.422 0 0 0-.01-.597 9.684 9.684 0 0 1-2.933-7.339 9.715 9.715 0 0 1 .49-2.699c1.291-3.818 4.746-6.282 8.82-6.282s7.529 2.464 8.82 6.282a9.34 9.34 0 0 1 .49 2.699 9.65 9.65 0 0 1-2.975 7.381.422.422 0 0 0-.011.598l6.686 6.976c.608.618.95 1.429.95 2.304 0 .874-.342 1.685-.96 2.293-2.261 2.24-4.618 4.33-7.017 6.507l-.022.021C28.388 47.243 26.277 48 23.995 48z" fill="#7542E5" fill-rule="nonzero"/>
        <path d="M6 21l7-8a172.562 172.562 0 0 0-7 8z"/>
    </g>
</svg>
