<svg width="48" height="42" xmlns="http://www.w3.org/2000/svg" xmlns:xlink="http://www.w3.org/1999/xlink"><defs><linearGradient x1="153.432%" y1="26.403%" x2="12.562%" y2="52.442%" id="a"><stop stop-color="#FF624A" offset="0%"/><stop stop-color="#FF298A" offset="100%"/></linearGradient><linearGradient x1="76.019%" y1="21.294%" x2="29.915%" y2="76.179%" id="b"><stop stop-color="#FF7139" offset="0%"/><stop stop-color="#FF298A" offset="100%"/></linearGradient><linearGradient x1="72.435%" y1="0%" x2="33.684%" y2="100%" id="d"><stop stop-color="#05C8E5" offset="0%"/><stop stop-color="#008BFF" offset="100%"/></linearGradient><path id="c" d="M0 .759h18.917V29H0z"/></defs><g fill="none" fill-rule="evenodd"><path d="M33.824 28.26H21.508v3.06h12.316a1.53 1.53 0 100-3.06" fill="url(#a)" transform="translate(0 .814)"/><path d="M47.493 32.241l-2.386-7.159a3.564 3.564 0 00-.8-1.319 3.539 3.539 0 00.414-1.632V3.734A3.57 3.57 0 0041.15.164H11.514a3.57 3.57 0 00-3.571 3.57V10.3h3.06V3.734a.51.51 0 01.51-.51H41.15c.28 0 .51.228.51.51v18.397a.51.51 0 01-.51.51H20.805v3.06H41.72a.51.51 0 01.484.35l2.386 7.158a.507.507 0 01-.323.644.487.487 0 01-.161.028H20.805v3.06h23.3a3.57 3.57 0 003.387-4.699" fill="url(#b)" transform="translate(0 .814)"/><g transform="translate(0 12.486)"><mask id="e" fill="#fff"><use xlink:href="#c"/></mask><path d="M15.883 26.4H3.034a.434.434 0 01-.433-.434v-1.628h13.716v1.628a.435.435 0 01-.434.434zM2.601 21.738h13.716V8.022H2.601v13.716zM3.034 3.36h12.85c.238 0 .433.194.433.434V5.42H2.601V3.794c0-.24.194-.434.433-.434zM15.884.759H3.033A3.036 3.036 0 000 3.794v22.172A3.036 3.036 0 003.034 29h12.85a3.034 3.034 0 003.033-3.035V3.794A3.034 3.034 0 0015.883.759z" fill="url(#d)" mask="url(#e)"/></g></g></svg>