<svg xmlns="http://www.w3.org/2000/svg" x="0" y="0" version="1.1" viewBox="0 0 40 40" width="40" height="40" xml:space="preserve">
  <style>.st0{fill:#007a73}</style>
  <path d="M3.3 20c0 9.2 7.5 16.7 16.7 16.7S36.7 29.2 36.7 20 29.2 3.3 20 3.3 3.3 10.8 3.3 20zM0 20C0 9 9 0 20 0s20 9 20 20-9 20-20 20S0 31 0 20z" class="st0"/>
  <path d="M30 29.6l-3.3-13.3c-.1-.5-.5-.9-.9-1.1L11.6 8.5c-.8-.4-1.8-.1-2.2.7-.3.4-.3.8-.2 1.3l4.1 14.2c.1.5.5.9.9 1.1l13.3 5.8c.2.1.5.1.7.1.4 0 .8-.1 1.1-.4.6-.4.8-1.1.7-1.7zm-13.3-6.7l7-5.2h.1L26 27l-9.3-4.1z" class="st0"/>
</svg>
