<svg xmlns="http://www.w3.org/2000/svg" width="64" height="64" viewBox="0 0 64 64" xml:space="preserve">
  <style>
    .st0{fill:#e31587}.st1{fill:#c60084}.st2{fill:#ffb4db}
  </style>
  <path d="M39 17.5H6.3C3.2 17.5.7 20 .7 23.1v5.1c0 3.1 2.5 5.6 5.6 5.6H39c3.1 0 5.6-2.5 5.6-5.6v-5.1c0-3.1-2.5-5.6-5.6-5.6z" class="st0"/>
  <path d="M39 17.5v-.8H6.3C2.8 16.7 0 19.6 0 23v5.1c0 3.5 2.8 6.3 6.3 6.3H39c3.5 0 6.3-2.8 6.4-6.3V23c0-3.5-2.9-6.3-6.4-6.3v1.5c2.7 0 4.9 2.2 4.9 4.8v5.1c0 2.7-2.2 4.9-4.9 4.9H6.3c-2.7 0-4.9-2.2-4.9-4.9V23c0-2.7 2.2-4.8 4.9-4.8H39v-.7z" class="st1"/>
  <path d="M36 26.4c.1 0 .1.1.2.2v.3l-.7 1.2c0 .1-.1.1-.2.1s-.2 0-.3-.1L33.6 27l.2 1.9c0 .1 0 .2-.1.3-.1.1-.1.1-.2.1h-1.4c-.1 0-.2 0-.2-.1-.1-.1-.1-.2-.1-.2l.2-2-1.5 1.2c-.1.1-.2.1-.3.1-.1 0-.2-.1-.2-.2l-.7-1.2v-.3c0-.1.1-.2.2-.2l1.7-.7-1.8-.8c-.1 0-.2-.1-.2-.2v-.3l.7-1.1c0-.1.1-.1.2-.2.1 0 .2 0 .3.1l1.6 1.2-.2-1.9c0-.1 0-.2.1-.3.1-.1.1-.1.2-.1h1.4c.1 0 .2 0 .2.1.1.1.1.2.1.2l-.3 2 1.6-1.1c.1-.1.2-.1.3-.1.1 0 .2.1.2.2l.7 1.2v.3c0 .1-.1.2-.2.2l-1.8.8 1.7.5z" class="st2"/>
  <path d="M25.9 26.4c.1 0 .2.1.2.2v.3l-.6 1.1c0 .1-.1.1-.2.1s-.2 0-.3-.1l-1.5-1.1.2 1.9c0 .1 0 .2-.1.2-.1.1-.1.1-.2.1H22c-.1 0-.2 0-.2-.1-.1-.1-.1-.2-.1-.2l.2-2-1.6 1.2c-.1.1-.2.1-.3.1-.1 0-.2-.1-.2-.2l-.7-1.2v-.3c0-.1.1-.2.2-.2l1.8-.7-1.8-.8c-.1 0-.1-.1-.2-.2v-.3l.7-1.1c0-.1.1-.1.2-.2.1 0 .2 0 .2.1l1.5 1.2-.2-1.9c0-.1 0-.2.1-.3.1-.1.1-.1.2-.1h1.4c.1 0 .2 0 .2.1.1.1.1.2.1.3l-.2 1.9 1.6-1.1c.1-.1.2-.1.2-.1.1 0 .2.1.2.2l.7 1.2v.3c0 .1-.1.2-.2.2l-1.8.8 1.9.7z" class="st2"/>
  <path d="M15.8 26.4c.1 0 .1.1.2.2v.3l-.7 1.2c0 .1-.1.1-.2.1s-.2 0-.2-.1L13.4 27l.2 1.9c0 .1 0 .2-.1.2-.1.1-.1.1-.2.1h-1.4c-.1 0-.2 0-.2-.1-.1-.1-.1-.2-.1-.2l.2-2-1.6 1.2c-.1.1-.2.1-.3.1-.1 0-.2-.1-.2-.2L9 26.8v-.3c0-.1.1-.2.2-.2l1.8-.7-1.8-.8c-.1 0-.1-.1-.2-.2v-.3l.7-1.1c0-.1.1-.1.2-.2.1 0 .2 0 .3.1l1.6 1.2-.2-1.9c0-.1 0-.2.1-.3.1-.1.1-.1.2-.1h1.4c.1 0 .2 0 .2.1.1.1.1.2.1.3l-.3 1.9 1.6-1.1c.1-.1.2-.1.3-.1.1 0 .2.1.2.2l.6 1.2v.3c0 .1-.1.2-.2.2l-1.8.8 1.8.6z" class="st2"/>
  <path d="M57.6 30.2H24.9c-3.1 0-5.6 2.5-5.6 5.6v5.1c0 3.1 2.5 5.6 5.6 5.6h32.7c3.1 0 5.6-2.5 5.6-5.6v-5.1c0-3.1-2.5-5.6-5.6-5.6z" class="st0"/>
  <path d="M57.6 30.2v-.8H24.9c-3.5 0-6.3 2.9-6.3 6.3v5.1c0 3.5 2.8 6.3 6.3 6.3h32.7c3.5 0 6.3-2.8 6.4-6.3v-5.1c0-3.5-2.9-6.3-6.4-6.3V31c2.7 0 4.9 2.2 4.9 4.8v5.1c0 2.7-2.2 4.9-4.9 4.9H24.9c-2.7 0-4.9-2.2-4.9-4.9v-5.1c0-2.7 2.2-4.8 4.9-4.8h32.7v-.8z" class="st1"/>
  <path d="M54.6 39.2c.1 0 .1.1.2.2v.3l-.7 1.2c0 .1-.1.1-.2.1s-.2 0-.3-.1l-1.4-1.1.2 1.9c0 .1 0 .2-.1.3-.1.1-.1.1-.2.1h-1.4c-.1 0-.2 0-.2-.1-.1-.1-.1-.2-.1-.2l.2-2-1.5 1.2c-.1.1-.2.1-.3.1-.1 0-.2-.1-.2-.2l-.6-1.4v-.3c0-.1.1-.2.2-.2l1.7-.7-1.8-.8c-.1 0-.2-.1-.2-.2V37l.7-1.1c0-.1.1-.1.2-.2.1 0 .2 0 .3.1l1.6 1.2-.2-1.9c0-.1 0-.2.1-.3.1-.1.1-.1.2-.1h1.4c.1 0 .2 0 .2.1.1.1.1.2.1.2l-.3 2 1.6-1.1c.1-.1.2-.1.3-.1.1 0 .2.1.2.2l.7 1.2v.3c0 .1-.1.2-.2.2l-1.8.8 1.6.7z" class="st2"/>
  <path d="M44.5 39.2c.1 0 .2.1.2.2v.3l-.7 1.1c0 .1-.1.1-.2.1s-.2 0-.3-.1L42 39.7l.2 1.9c0 .1 0 .2-.1.2-.1.1-.1.1-.2.1h-1.4c-.1 0-.2 0-.2-.1-.1-.1-.1-.2-.1-.2l.2-2-1.4 1.2c-.1.1-.2.1-.3.1-.1 0-.2-.1-.2-.2l-.7-1.2v-.3c0-.1.1-.2.2-.2l1.8-.7-1.8-.7c-.1 0-.1-.1-.2-.2v-.3l.7-1.1c0-.1.1-.1.2-.2.1 0 .2 0 .2.1l1.5 1.2-.2-1.9c0-.1 0-.2.1-.3.1-.1.1-.1.2-.1H42c.1 0 .2 0 .2.1.1.1.1.2.1.3l-.2 1.9 1.6-1.1c.1-.1.2-.1.2-.1.1 0 .2.1.2.2l.7 1.2v.3c0 .1-.1.2-.2.2l-1.8.8 1.7.6z" class="st2"/>
  <path d="M34.4 39.2c.1 0 .1.1.2.2v.3l-.7 1.2c0 .1-.1.1-.2.1s-.2 0-.2-.1L32 39.7l.2 1.9c0 .1 0 .2-.1.2 0 .1-.1.2-.2.2h-1.4c-.1 0-.2 0-.2-.1-.1-.1-.1-.2-.1-.2l.2-2-1.6 1.2c-.1.1-.2.1-.3.1-.1 0-.2-.1-.2-.2l-.7-1.2v-.3c0-.1.1-.2.2-.2l1.8-.7-1.8-.8c-.1 0-.1-.1-.2-.2v-.3l.7-1.1c0-.1.1-.1.2-.2.1 0 .2 0 .3.1l1.6 1.2-.2-1.9c0-.1 0-.2.1-.3.1-.1.1-.1.2-.1h1.4c.1 0 .2 0 .2.1.1.1.1.2.1.3l-.3 1.9 1.6-1.1c.1-.1.2-.1.3-.1.1 0 .2.1.2.2l.6 1.2v.3c0 .1-.1.2-.2.2l-1.8.8 1.8.6z" class="st2"/>
</svg>
