<svg width="16" height="16" viewBox="0 0 16 16" fill="none" xmlns="http://www.w3.org/2000/svg">
<g clip-path="url(#clip0_4403_5838)">
<path fill-rule="evenodd" clip-rule="evenodd" d="M0 0.75C0 0.335786 0.335786 0 0.75 0H7.467C7.66589 0 7.85664 0.0790016 7.99729 0.219629L14.4153 6.63663C15.1962 7.41752 15.1962 8.68444 14.4153 9.46533L9.46533 14.4153C8.68444 15.1962 7.41756 15.1962 6.63667 14.4153L0.21967 7.99833C0.0790176 7.85768 0 7.66691 0 7.468V0.75ZM1.5 1.5V7.15734L7.69733 13.3547C7.89244 13.5498 8.20956 13.5498 8.40467 13.3547L13.3547 8.40467C13.5498 8.20957 13.5498 7.89247 13.3547 7.69736L7.15637 1.5H1.5Z" fill="white"/>
<path d="M4.58037 5.46997L5.64102 4.40932L4.58037 3.34867L3.51972 4.40932L4.58037 5.46997Z" fill="white"/>
</g>
<defs>
<clipPath id="clip0_4403_5838">
<rect width="16" height="16" fill="white"/>
</clipPath>
</defs>
</svg>
