<svg width="51" height="33" xmlns="http://www.w3.org/2000/svg"><defs><linearGradient x1="20.606%" y1="85.367%" x2="88.227%" y2="30.01%" id="a"><stop stop-color="#591DCE" offset="0%"/><stop stop-color="#C785FF" offset="100%"/><stop stop-color="#C785FF" offset="100%"/></linearGradient><linearGradient x1="-42.659%" y1="110.868%" x2="100%" y2="-19.498%" id="b"><stop stop-color="#591DCE" offset="0%"/><stop stop-color="#C785FF" offset="100%"/><stop stop-color="#C785FF" offset="100%"/></linearGradient><linearGradient x1="-102.135%" y1="163.294%" x2="129.449%" y2="-56.189%" id="c"><stop stop-color="#591DCE" offset="0%"/><stop stop-color="#C785FF" offset="100%"/><stop stop-color="#C785FF" offset="100%"/></linearGradient></defs><g fill="none" fill-rule="evenodd"><path d="M46.459 12.295a3.55 3.55 0 010 5.163c-4.047 3.824-12.563 10.549-22.413 10.549S5.682 21.282 1.634 17.458a3.552 3.552 0 010-5.163C5.682 8.471 14.196 1.747 24.046 1.747s18.366 6.724 22.413 10.548z" stroke="url(#a)" stroke-width="3" transform="translate(1 1.5)"/><path stroke="url(#b)" stroke-width="3" stroke-linecap="round" stroke-linejoin="round" d="M38.089.522L9.37 29.241" transform="translate(1 1.5)"/><path d="M31.39 14.877a7.342 7.342 0 01-7.344 7.342 7.342 7.342 0 01-7.342-7.342 7.342 7.342 0 1114.685 0z" stroke="url(#c)" stroke-width="2.557" transform="translate(1 1.5)"/></g></svg>
