<svg xmlns="http://www.w3.org/2000/svg" width="48" height="36" viewBox="0 0 48 36">
  <g fill="none" fill-rule="evenodd">
    <path fill="#D9BFFF" fill-rule="nonzero" d="M16.0975694 8.44190035l.0786893.07868923-.2360677.06744792a22.58380504 22.58380504 0 00-2.1920573.67447917 22.97725048 22.97725048 0 00-2.2482639.91054687C7.12210115 12.0541848 3.24537546 14.9338181.17986111 18.5815705c-.06745724-.099253-.11692383-.2096015-.14613715-.3259983 2.32482927-4.0466597 5.49592879-7.5436884 9.29657118-10.25208331.60703125-.43841146 1.24778646-.87682292 1.92226566-1.2702691a20.98754316 20.98754316 0 012.0346788-1.12413194l2.8328125 2.8328125h-.0224827z"/>
    <path fill="#D9BFFF" fill-rule="nonzero" d="M47.2135417 18.2555722a1.4051659 1.4051659 0 01-.1461372.3259983c-4.1341024-4.8610948-9.651292-8.34708026-15.8165364-9.993533-2.4931887-.66575553-5.0635671-.99839273-7.6440973-.98923611a28.4742621 28.4742621 0 00-4.3503906.32599826l-1.0004774-1.00047743-2.428125-2.428125c2.490354-.92030497 5.1240313-1.39223558 7.778993-1.39392361 14.8160591 0 23.6067709 14.72612849 23.6067709 15.15329859z"/>
    <path fill="#D9BFFF" fill-rule="nonzero" d="M31.7342448 24.0785757L36.8827691 29.2271c-.6295139.4159288-1.2927517.8206163-1.9784722 1.2028212-.6857205.3822048-1.3939236.7194444-2.1246094 1.0454427-2.8866373 1.2906572-6.0109116 1.9645203-9.1729167 1.9784722-11.4661458 0-19.31258677-8.8019531-22.28029511-13.0062066a17.7163221 17.7163221 0 01-1.12413194-1.8435764c3.04703398-3.6489098 6.90403718-6.5358882 11.26380205-8.43098956a22.97726056 22.97726056 0 012.2482639-.91054687 22.58381358 22.58381358 0 012.1920573-.67447917l.2360677-.06744792 2.9227431 2.92274302 9.5551215 9.5551216 3.0576389 3.0576389.0562066.0224826z"/>
    <path fill="#D9BFFF" fill-rule="nonzero" d="M47.0674045 18.5815705c-.2023437.3597222-.5957899 1.0117187-1.1241319 1.8435764-1.9424455 2.719884-4.2498078 5.159636-6.8572049 7.250651l-5.7443142-5.7443142-3.2599827-3.2599827-8.5658854-8.56588537-2.2482639-2.24826389a28.47426176 28.47426176 0 014.3391493-.25855035c2.5815313-.00182526 5.1519267.33837414 7.6440973 1.01171875 6.1624434 1.64031628 11.6793039 5.11825176 15.8165364 9.97105036z"/>
    <path fill="#AB71FF" fill-rule="nonzero" d="M28.6766059 21.0096955l3.0576389 3.0576389c-1.0478982 1.1242611-2.3139617 2.0231279-3.7208767 2.64171-3.4174114 1.4745255-7.3464901 1.1373249-10.4626861-.8979265-3.116196-2.0352514-5.0043179-5.4973835-5.0278521-9.219261.0068301-1.5315766.3362338-3.0445351.9667534-4.4403211a10.6005636 10.6005636 0 011.124132-2.02343754 10.85911395 10.85911395 0 011.337717-1.54006076l.1573785-.14613715.0786892.07868923 2.9227431 2.92274302 9.5551215 9.5551216.0112413.0112413z"/>
    <path fill="#AB71FF" fill-rule="nonzero" d="M34.6795565 16.5918569c.0026481 1.8773135-.4773603 3.7237971-1.3940096 5.3621094l-3.2599827-3.2599826-8.5658854-8.56588544-2.2482639-2.24826388-1.0004774-1.00047744c3.4359954-1.91751315 7.6315022-1.86749645 11.0208084.13138446 3.3893061 1.99888092 5.4631981 5.6463116 5.4478106 9.5811155z"/>
    <path fill="#592ACB" fill-rule="nonzero" d="M19.1102431 11.454574l9.5551215 9.5551215c-.4049388.46962-.8787056.8751644-1.4051649 1.2028212l-.3484809.213585-.1686198.0899306a4.49652565 4.49652565 0 01-.5283421.247309 4.64264232 4.64264232 0 01-.5058593.1911024 2.96770595 2.96770595 0 01-.4496528.1348959 2.61922896 2.61922896 0 01-.4271701.0899305 1.31523432 1.31523432 0 01-.2922744 0h-.9667534c-3.7250456 0-6.7447917-3.019746-6.7447917-6.7447916a5.755559 5.755559 0 010-.6295139 3.27123828 3.27123828 0 010-.3484809 4.33914871 4.33914871 0 01.1011719-.5508247c0-.1461371.0674479-.2922743.1124132-.4384114a.98922914.98922914 0 010-.1686198 4.06937002 4.06937002 0 01.1461371-.3934462.79813654.79813654 0 01.0899306-.2023438 2.74288745 2.74288745 0 01.2360677-.4833767.75316358.75316358 0 01.0674479-.1348958 2.1583305 2.1583305 0 01.2023438-.3484809l.0899305-.1348959c.1011719-.1461371.2135851-.3035156.3259983-.4384114l.1236545-.1348959c.2363853-.2243463.5008927-.4170589.7868924-.5733072z"/>
    <path fill="#592ACB" fill-rule="nonzero" d="M30.3516477 16.5918569c-.0015025.7214175-.1152794 1.4382123-.3373248 2.1246094l-8.5658854-8.5658854c.6812192-.22745081 1.3951924-.34138271 2.1133681-.33723958 1.8024684-.01203946 3.5347636.69789391 4.8103852 1.97140358 1.2756216 1.2735096 1.9884245 3.0046262 1.9794569 4.807112z"/>
    <path fill="#592ACB" fill-rule="nonzero" d="M18.4357639 12.0953292c-1.7108742 1.706858-2.3811892 4.1968004-1.7584439 6.53189.6227454 2.3350896 2.4439412 4.1605706 4.7775608 4.7888021 2.3336195.6282315 4.8251304-.0362299 6.5360046-1.743088l-9.5551215-9.5776041z"/>
    <path fill="#D9BFFF" fill-rule="nonzero" d="M.14613715 18.5815705a19.90837354 19.90837354 0 001.12413195 1.8435764C.78563794 19.948913.35923342 19.4168507 0 18.8401208a1.27026764 1.27026764 0 01.14613715-.2585503z"/>
    <path d="M27.9908854 21.695416l-9.5663628-9.5663629"/>
    <path d="M7.54292535 3.05730833L37.8832465 33.3976295"/>
    <path fill="#592ACB" fill-rule="nonzero" d="M39.4682726 34.9826556c-.421703.4221723-.9939367.6593858-1.5906467.6593858-.5967101 0-1.1689438-.2372135-1.5906467-.6593858l-3.5072917-3.5072917-4.7663194-4.7663195-3.4735678-3.4623263-7.6778211-7.6778212-3.3723959-3.3723959-4.14804684-4.14804683-3.37239583-3.37239584c-.56828334-.56828333-.79022324-1.39657433-.58221711-2.1728638.20800614-.77628947.81435724-1.38264057 1.59064671-1.5906467.77628946-.20800614 1.60458047.01393377 2.1728638.5822171L39.5019965 31.8463274c.8402731.8819441.8253192 2.2726563-.0337239 3.1363282z"/>
  </g>
</svg>
