<svg xmlns="http://www.w3.org/2000/svg" width="146" height="113"><g fill="none" fill-rule="evenodd"><path fill="#C689FF" fill-rule="nonzero" d="M4.933 0H122.61c2.574 0 4.661 2.149 4.661 4.8V12h-127V4.8c0-2.651 2.087-4.8 4.66-4.8z"/><path fill="#DFBDFF" fill-rule="nonzero" d="M22.272 0h24v12h-24zM.272 12h127v68.365c0 2.56-2.087 4.635-4.66 4.635H4.931c-2.573 0-4.66-2.075-4.66-4.635V12z"/><path stroke="#C689FF" stroke-linecap="round" stroke-linejoin="round" stroke-width="10.23" d="M20.272 40.5h87m-87-15h87m-87 28h52m-52 15.24l83-.48"/><path fill="#AB71FF" fill-rule="nonzero" d="M107.939 18h32.666c2.578 0 4.667 2.189 4.667 4.889V29h-42v-6.111c0-2.7 2.09-4.889 4.667-4.889z"/><path fill="#9B51FF" fill-rule="nonzero" d="M140.605 97H107.94c-2.578 0-4.667-2.189-4.667-4.889V86h42v6.111c0 2.7-2.09 4.889-4.667 4.889z"/><path fill="#C689FF" fill-rule="nonzero" d="M103.272 29h42v57h-42z"/><path stroke="#AB71FF" stroke-linecap="round" stroke-linejoin="round" stroke-width="8" d="M112.272 51.5h24m-24-11h24m-24 22h24m-24 12.24l24-.48"/><path fill="#621ED3" fill-rule="nonzero" d="M79.272 34H48.808a2.54 2.54 0 00-2.536 2.544v43.027c-.008 9.107 4.836 17.525 12.702 22.071l19.105 11.036c.738.43 1.648.43 2.386 0l19.105-11.036c7.866-4.546 12.71-12.964 12.702-22.071V36.55A2.552 2.552 0 00109.73 34H79.272z"/><circle cx="78.772" cy="62.5" r="14.5" fill="#DFBDFF" fill-rule="nonzero"/><path fill="#DFBDFF" fill-rule="nonzero" d="M93.165 77c-3.886 0-9.934 4.272-14.393 4.314C74.313 81.355 68.253 77 64.379 77c-2.04 0-6.107 1.243-6.107 5.55 0 4.87 9.07 13.45 20.5 13.45s20.5-8.58 20.5-13.45c0-4.32-4.067-5.55-6.107-5.55z"/></g></svg>