<svg width="60" height="50" viewBox="0 0 60 50" xmlns="http://www.w3.org/2000/svg"><g fill="none" fill-rule="nonzero"><path d="M41.84 15c-6.48 0-8.51 2.58-11.58 2.71l5.22 14.81c1.73 1.25 3.48 2.48 5.54 2.48 5.13 0 8.92-4.86 9-13.18.02-5.17-1.52-6.82-8.18-6.82zM40.7 26.82c-2.63 0-5.72-1-5.72-1.82 0-.82 1.49-3.8 5.31-3.64 4.05.18 5.71 2.59 5.71 3.19 0 .6-2.68 2.27-5.3 2.27z" fill="#E31587"/><path d="M30 17.73V30c2 0 3.73 1.27 5.48 2.52l-5.22-14.81-.26.02z" fill="#FF8AC5"/><path d="M18.17 15c-6.66 0-8.2 1.65-8.17 6.82.07 8.32 3.85 13.18 9 13.18 2 0 3.78-1.29 5.58-2.56l5.19-14.73c-3.1-.13-5.12-2.71-11.6-2.71zm1.14 11.82c-2.62 0-5.31-1.68-5.31-2.27 0-.59 1.67-3 5.72-3.19 3.84-.16 5.3 2.64 5.3 3.64s-3.09 1.82-5.71 1.82z" fill="#E31587"/><path d="M30 17.73h-.25l-5.19 14.71C26.29 31.21 28.04 30 30 30V17.73z" fill="#FF4AA2"/></g></svg>
