<svg width="60" height="50" xmlns="http://www.w3.org/2000/svg"><g fill="none" fill-rule="evenodd"><path d="M30 17.727V30c2.006 0 3.73 1.266 5.479 2.523l-5.227-14.809c-.084.004-.166.013-.252.013" fill="#C785FF"/><path d="M40.694 26.818c-2.623 0-5.714-.96-5.714-1.818 0-.956 1.486-3.802 5.306-3.637C44.333 21.54 46 23.951 46 24.545c0 .595-2.683 2.273-5.306 2.273M41.837 15c-6.482 0-8.506 2.576-11.585 2.714l5.227 14.81C37.205 33.764 38.954 35 41.019 35c5.13 0 8.919-4.858 8.98-13.182C50.039 16.65 48.496 15 41.838 15" fill="#9151FF"/><path d="M19.306 26.818c-2.623 0-5.306-1.678-5.306-2.273 0-.594 1.667-3.006 5.714-3.182 3.82-.165 5.306 2.681 5.306 3.637 0 .857-3.09 1.818-5.714 1.818M18.163 15c-6.658 0-8.2 1.65-8.163 6.818C10.062 30.142 13.85 35 18.98 35c1.988 0 3.773-1.293 5.572-2.564l5.196-14.722C26.67 17.576 24.645 15 18.163 15" fill="#7638E9"/><path d="M30 17.727c-.086 0-.168-.009-.252-.013l-5.196 14.722C26.29 31.208 28.041 30 30 30V17.727z" fill="#9151FF"/></g></svg>
