<svg xmlns="http://www.w3.org/2000/svg" width="64" height="64" viewBox="0 0 64 64" xml:space="preserve">
  <style>
    .st0{fill:#d9bfff}.st1{fill:#ab71ff}.st2{fill:#592acb}
  </style>
  <path d="M43 39.9l-4.2-4.2-13-13-4-4-.1-.1-3.7-3.7c-.9.5-1.9 1-2.8 1.5-.9.5-1.8 1.1-2.6 1.7C7.5 21.8 3.2 26.5 0 32l.2.4c.5.9 1 1.7 1.6 2.5 4 5.7 14.7 17.6 30.2 17.6 4.3 0 8.5-.9 12.4-2.7 1-.4 2-.9 2.9-1.4.9-.5 1.8-1.1 2.7-1.6l-7-6.9z" class="st0"/>
  <path d="M32 11.5c-3.6 0-7.2.6-10.6 1.9l3.3 3.3 1.4 1.4h.1l3 3 11.6 11.6 4.4 4.4 7.8 7.8c3.5-2.8 6.7-6.1 9.3-9.8.7-1.1 1.3-2 1.5-2.5.1-.1.2-.3.2-.4 0-.8-11.9-20.7-32-20.7z" class="st0"/>
  <path id="Path_4_" d="M38.9 35.8l4.1 4.1c-1.4 1.5-3.1 2.7-5 3.6-4.6 2-10 1.5-14.2-1.2-4.2-2.8-6.8-7.5-6.8-12.5 0-2.1.5-4.1 1.3-6 .4-1 .9-1.9 1.5-2.7.5-.8 1.1-1.5 1.8-2.1l.2-.2.1.1 4 4 13 12.9z" class="st1"/>
  <path id="Path_5_" d="M47 29.8c0 2.5-.6 5.1-1.9 7.3l-4.4-4.4L29.1 21l-3-3-1.4-1.4c4.7-2.6 10.4-2.5 14.9.2s7.4 7.6 7.4 13z" class="st1"/>
  <path id="Path_7_" d="M41.1 29.8c0 1-.2 2-.5 2.9L29 21c.9-.3 1.9-.5 2.9-.5 2.4 0 4.8.9 6.5 2.7s2.7 4.1 2.7 6.6z" class="st2"/>
  <path id="Path_8_" d="M25 23.7c-2.3 2.3-3.2 5.7-2.4 8.9.8 3.2 3.3 5.6 6.5 6.5 3.2.9 6.5 0 8.9-2.4l-13-13z" class="st2"/>
  <path id="Path_12_" d="M53.5 54.7c-.6.6-1.3.9-2.2.9s-1.6-.3-2.2-.9L44.4 50 38 43.5l-4.7-4.7-10.5-10.4-4.6-4.6-5.6-5.6L8 13.6c-.8-.8-1.1-1.9-.8-2.9.3-1.1 1.1-1.9 2.2-2.2s2.2 0 2.9.8l41.2 41.2c1.2 1.2 1.2 3 0 4.2z" class="st2"/>
</svg>
