<svg xmlns="http://www.w3.org/2000/svg" width="44" height="23" viewBox="0 0 44 23">
  <defs>
    <linearGradient id="a" x1="-19.877%" x2="115.232%" y1="62.502%" y2="37.498%">
      <stop offset="0%" stop-color="#0090ED"/>
      <stop offset="100%" stop-color="#AB71FF"/>
    </linearGradient>
  </defs>
  <path fill="url(#a)" fill-rule="nonzero" d="M34.204 22.16c-4.536 0-7.672-5.455-12.022-5.455-4.35 0-7.757 5.455-12.022 5.455-5.596 0-9.728-5.302-9.796-14.38C.323 2.14 2 .341 9.268.341s9.393 2.973 12.914 2.973c3.52 0 5.648-2.976 12.913-2.976 7.266 0 8.946 1.8 8.905 7.437-.068 9.082-4.2 14.384-9.796 14.384zM12.833 7.283c-4.416.19-6.235 2.822-6.235 3.472 0 .649 2.927 2.479 5.787 2.479 2.861 0 6.235-1.048 6.235-1.983a5.182 5.182 0 0 0-5.787-3.968zm18.7 0a5.182 5.182 0 0 0-5.79 3.968c0 .935 3.372 1.983 6.235 1.983 2.864 0 5.787-1.83 5.787-2.48 0-.649-1.819-3.28-6.234-3.471h.003z"/>
</svg>
