<svg width="60" height="50" viewBox="0 0 60 50" xmlns="http://www.w3.org/2000/svg"><g fill="none" fill-rule="nonzero"><path d="M52 43.5H8.1c-.9 0-1.6-.7-1.6-1.6V8c0-.8.7-1.5 1.5-1.5s1.5.7 1.5 1.5v32.5H52c.8 0 1.5.7 1.5 1.5s-.7 1.5-1.5 1.5z" fill="#FFA060"/><path d="M19.2 38h-7.1s-.1 0-.1-.1v-16c0-.6.5-1.1 1.1-1.1h5c.6 0 1.1.5 1.1 1.1V38z" fill="#FFB675"/><path d="M29.5 38h-7.1V10.4c0-.7.6-1.3 1.3-1.3h4.6c.7 0 1.3.6 1.3 1.3L29.5 38z" fill="#FF7139"/><path d="M39.7 38h-7.1V13.7c0-.7.6-1.3 1.3-1.3h4.6c.7 0 1.3.6 1.3 1.3L39.7 38z" fill="#FFB675"/><path d="M49.9 38h-7.1V17c0-.7.6-1.3 1.3-1.3h4.6c.7 0 1.3.6 1.3 1.3l-.1 21z" fill="#FF7139"/></g></svg>
