<svg width="16" height="16" viewBox="0 0 16 16" fill="none" xmlns="http://www.w3.org/2000/svg">
<path d="M8 12.6406L14.3252 9.09766L15.0586 10.4062L8.36621 14.1543C8.13865 14.2817 7.8614 14.2816 7.63379 14.1543L0.90332 10.3857L1.63672 9.07617L8 12.6406ZM7.63379 2.3457C7.8614 2.21838 8.13865 2.21827 8.36621 2.3457L14.6162 5.8457C14.8531 5.97834 15 6.22854 15 6.5C15 6.77146 14.8531 7.02166 14.6162 7.1543L8.36621 10.6543C8.13865 10.7817 7.8614 10.7816 7.63379 10.6543L1.38379 7.1543C1.14693 7.02166 1 6.77147 1 6.5C1 6.22853 1.14693 5.97834 1.38379 5.8457L7.63379 2.3457ZM3.28516 6.5L8 9.14062L12.7148 6.5L8 3.85938L3.28516 6.5Z" fill="black"/>
</svg>
