<svg xmlns="http://www.w3.org/2000/svg" width="48" height="47" viewbox="0 0 48 47">
    <path d="M23.994 0C10.764 0 0 10.52 0 23.45a2.515 2.515 0 0 0 2.52 2.512h18.944v12.446l-5.87-5.848a2.534 2.534 0 0 0-3.57 0 2.514 2.514 0 0 0 0 3.557l10.18 10.145c.055.055.122.11.188.165.01.011.022.011.033.022.055.044.11.088.166.121.01.011.022.011.033.022.055.033.11.078.177.11.01 0 .022.012.033.012.066.033.133.066.199.088.011 0 .011 0 .022.01.066.034.144.056.21.078.011 0 .011 0 .022.01.066.023.144.045.21.056.022 0 .044.011.066.011a.977.977 0 0 0 .188.022c.089.011.166.011.255.011.088 0 .165 0 .254-.011.066-.011.121-.022.188-.022.022 0 .044 0 .066-.011.077-.011.144-.033.21-.055.011 0 .022 0 .022-.011.077-.022.144-.044.21-.077.011 0 .011 0 .022-.011.066-.033.133-.055.2-.088.01 0 .021-.011.021-.011a.955.955 0 0 0 .177-.11c.011-.012.022-.012.033-.023.055-.044.11-.077.177-.12.011-.012.022-.012.022-.023.066-.055.133-.11.188-.165l10.18-10.145a2.514 2.514 0 0 0 0-3.557 2.534 2.534 0 0 0-3.57 0l-5.87 5.848V25.962H45.48A2.515 2.515 0 0 0 48 23.45C47.989 10.52 37.224 0 23.994 0zM5.228 20.94c1.27-8.978 9.195-15.906 18.766-15.906 9.572 0 17.496 6.939 18.767 15.905H5.228z" fill="#7542E5" fill-rule="nonzero"/>
</svg>
