<svg xmlns="http://www.w3.org/2000/svg" viewBox="0 0 45 45" width="45" height="45" xml:space="preserve">
  <style>
    .st2{fill:#9158ff}
  </style>
  <path fill="#c689ff" d="M35.5.5h-21c-1.7 0-3 1.3-3 3v38c0 1.7 1.3 3 3 3h21c1.7 0 3-1.3 3-3v-38c0-1.7-1.3-3-3-3z"/>
  <path fill="#7641e5" d="M34.5 3.5h-19c-.6 0-1 .4-1 1v35c0 .6.4 1 1 1h19c.6 0 1-.4 1-1v-35c0-.6-.4-1-1-1z"/>
  <circle cx="20" cy="36" r="1.5" class="st2"/>
  <circle cx="25" cy="36" r="1.5" class="st2"/>
  <circle cx="30" cy="36" r="1.5" class="st2"/>
  <path fill="none" stroke="#9158ff" stroke-linecap="round" stroke-linejoin="round" d="M23.7 42.5h2.8"/>
  <path fill="#d9bdff" d="M27.7 21.9v-.1c0-.1 0-.2-.1-.3-.1-.1-.1-.2-.2-.3L19 12.8c-.4-.4-1-.4-1.4 0s-.4 1 0 1.4l6.7 6.7H7.2c-.6 0-1 .4-1 1s.4 1 1 1h17.1l-6.7 6.6c-.4.4-.4 1 0 1.4.2.2.5.3.7.3.3 0 .5-.1.7-.3l8.4-8.3c.1-.1.2-.2.2-.3.1-.1.1-.2.1-.4z"/>
</svg>
