<svg xmlns="http://www.w3.org/2000/svg" width="64" height="64" viewBox="0 0 64 64">
    <style>
        .st1{fill:#dabdff}
    </style>
    <path d="M32 6C19.8 6 8.7 12.9 3.3 23.9s-4.1 24 3.4 33.7h50.6c7.5-9.6 8.8-22.7 3.4-33.7S44.2 6 32 6z" fill="#7542e4"/>
    <path class="st1" d="M53.9 37.2H57c.4 0 .8.3.8.8 0 .4-.3.8-.8.8h-3.1c-.4 0-.8-.3-.8-.8 0-.4.3-.8.8-.8z"/>
    <path class="st1" d="M10.1 38.8H7c-.4 0-.8-.3-.8-.8 0-.4.3-.8.8-.8h3.1c.4 0 .8.3.8.8 0 .4-.3.8-.8.8z"/>
    <path class="st1" d="M31.2 16.1V13c0-.4.3-.8.8-.8.4 0 .8.3.8.8v3.1c0 .4-.3.8-.8.8-.4 0-.8-.3-.8-.8z"/>
    <path class="st1" d="M20.4 19.2l-1.7-2.6c-.2-.4-.1-.8.2-1.1.4-.2.8-.1 1.1.2l1.7 2.6c.2.4.1.8-.2 1.1-.4.3-.9.2-1.1-.2z"/>
    <path class="st1" d="M12.5 27.8l-2.7-1.6c-.4-.2-.5-.7-.3-1.1.2-.4.7-.5 1.1-.3l2.7 1.6c.4.2.5.7.3 1.1-.1.2-.3.3-.5.4s-.5 0-.6-.1z"/>
    <path class="st1" d="M50.8 26.5l2.6-1.7c.4-.2.8-.1 1.1.2.1.2.2.4.1.6 0 .2-.2.4-.3.5l-2.6 1.7c-.4.2-.9.1-1.1-.2-.3-.4-.2-.8.2-1.1z"/>
    <path class="st1" d="M42.3 18.5l1.6-2.7c.2-.4.7-.5 1.1-.3.4.2.5.7.3 1.1l-1.6 2.7c-.2.4-.7.5-1.1.3-.2-.1-.3-.3-.4-.5-.1-.2 0-.5.1-.6z"/>
    <circle cx="32" cy="41.1" r="8.6" fill="#8f59ff"/>
    <circle class="st1" cx="32" cy="41" r="5.5"/>
    <path class="st1" d="M32.8 40.9c-.5 0-1.1-.3-1.3-.8s-.3-1.1 0-1.5l11.8-22.4c.3-.5.8-.8 1.3-.8.6 0 1.1.3 1.4.7.3.5.3 1.1.1 1.6L34.2 40.1c-.3.5-.8.8-1.4.8z"/>
</svg>
