<svg width="60" height="50" viewBox="0 0 60 50" xmlns="http://www.w3.org/2000/svg"><g fill="none" fill-rule="nonzero"><path d="M47.79 9.84v11.64c.002.39-.124.77-.36 1.08a1.86 1.86 0 01-1.51.76h-11.3a1.85 1.85 0 01-1.87-1.84v-1.84a1.85 1.85 0 011.87-1.83h5.29a13.06 13.06 0 00-9.88-4.29c-6.1 0-11.24 3.77-12.23 9l-.17.9a1.88 1.88 0 01-2.19 1.48l-1.21-.22-.63-.12a1.85 1.85 0 01-1.57-2.17l.17-.91C13.71 13.67 21.18 8 30.03 8a19.15 19.15 0 0112.18 4.28V9.84A1.86 1.86 0 0144.03 8h1.87a1.85 1.85 0 011.89 1.84z" fill="#FFB587"/><path d="M47.43 22.56a1.86 1.86 0 01-1.51.76h-11.3a1.85 1.85 0 01-1.87-1.84v-1.84a1.85 1.85 0 011.87-1.83h5.29a13.06 13.06 0 00-9.88-4.29c-6.1 0-11.24 3.77-12.23 9l-.17.9a1.88 1.88 0 01-2.19 1.48l-1.21-.22-.63-.12a1.85 1.85 0 01-1.57-2.17l.17-.91c4.17-11.43 17.83-10.77 17.83-10.77 11.56 0 17.4 11.85 17.4 11.85zM12.27 41.16V29.52a1.78 1.78 0 01.36-1.08 1.86 1.86 0 011.51-.76h11.3a1.85 1.85 0 011.87 1.84v1.84a1.85 1.85 0 01-1.87 1.83h-5.29a13.06 13.06 0 009.88 4.29c6.1 0 11.24-3.77 12.23-9l.17-.9a1.88 1.88 0 012.19-1.48l1.21.22.63.12a1.85 1.85 0 011.57 2.17l-.17.91C46.35 37.33 38.88 43 30.03 43a19.15 19.15 0 01-12.18-4.28v2.44A1.86 1.86 0 0116.03 43h-1.89a1.85 1.85 0 01-1.87-1.84z" fill="#FF7139"/><path d="M12.63 28.44a1.86 1.86 0 011.51-.76h11.3a1.85 1.85 0 011.87 1.84v1.84a1.85 1.85 0 01-1.87 1.83h-5.29a13.06 13.06 0 009.88 4.29c6.1 0 11.24-3.77 12.23-9l.17-.9a1.88 1.88 0 012.19-1.48l1.21.22.63.12a1.85 1.85 0 011.57 2.17l-.17.91C43.69 41 30.03 40.29 30.03 40.29c-11.56 0-17.4-11.85-17.4-11.85z" fill="#FFB587"/></g></svg>
