<svg xmlns="http://www.w3.org/2000/svg" width="40" height="48" viewBox="0 0 40 48">
  <g fill="#7542E5" fill-rule="nonzero">
    <path d="M39.113 8.274a4.779 4.779 0 0 0-3.957-4.733L19.558.862 3.96 3.54A4.782 4.782 0 0 0 .002 8.272c-.01 3.61.012 10.1.276 13.012.755 8.266 2.279 12.784 6.044 17.902A20.267 20.267 0 0 0 19.353 47.1l.2.022.198-.022a20.267 20.267 0 0 0 13.031-7.914c3.77-5.118 5.293-9.636 6.045-17.902.272-2.912.295-9.401.286-13.01zm-3.817 12.688c-.695 7.621-2 11.538-5.37 16.115a17 17 0 0 1-10.368 6.459A17.01 17.01 0 0 1 9.19 37.077c-3.377-4.577-4.675-8.494-5.37-16.115-.264-2.871-.264-9.824-.264-12.68a1.245 1.245 0 0 1 1.001-1.244l15-2.567 14.997 2.574c.593.114 1.017.64 1 1.245.003 2.848.003 9.799-.26 12.672h.001z"/>
    <path d="M9.154 19.705c.827 9.067 2.375 11.753 4.828 15.086a11.483 11.483 0 0 0 5.576 4.03V9.333L8.89 11.164c.037 4.025.13 7.074.263 8.54z"/>
  </g>
</svg>
