<svg xmlns="http://www.w3.org/2000/svg" viewBox="0 0 45 45" width="45" height="45">
  <path fill="#7641e5" d="M40.5 11.5V5.3c0-1-.7-1.8-1.7-2L22.8.5h-.7L6.2 3.3c-1 .2-1.7 1-1.7 2 0 2.3 0 4.4-.1 6.2 0 3.3-.1 5.7.1 7.2.9 9.5 2.9 13.8 6.3 18.5 2.7 3.7 6.7 6.3 11.2 7.2.1 0 .3.1.4.1h.4c4.5-1 8.5-3.5 11.2-7.2 3.4-4.8 5.4-9.1 6.3-18.6.2-1.5.2-3.9.2-7.2z"/>
  <path fill="#9158ff" d="M37.6 12.8V7.6c0-.8-.6-1.5-1.4-1.6L22.8 3.6c-.1 0-.2-.1-.3-.1v36.9h.3c3.8-.8 7.1-3 9.4-6.1 2.9-3.9 4.5-7.6 5.3-15.6.1-1.2.1-3.2.1-5.9z"/>
</svg>
