<svg width="60" height="50" xmlns="http://www.w3.org/2000/svg"><g fill="none" fill-rule="evenodd"><path d="M47.964 13.994c-.023-1.83-.05-3.904-.054-6.244a2 2 0 00-1.66-1.967L30.34 3.029a2.057 2.057 0 00-.681 0l-15.91 2.754a1.999 1.999 0 00-1.66 1.967c-.003 2.34-.03 4.414-.053 6.244-.042 3.3-.072 5.685.062 7.17.862 9.547 2.876 13.893 6.292 18.575 3.834 5.257 9.124 6.802 11.22 7.222a1.992 1.992 0 00.785 0c1.632-.325 7.267-1.808 11.215-7.222 3.416-4.682 5.43-9.028 6.292-18.574.135-1.486.104-3.871.062-7.171" fill="#9151FF"/><path d="M29.662 3.062l-15.91 2.753a2.002 2.002 0 00-1.66 1.968c-.003 2.34-.03 4.414-.053 6.244-.042 3.3-.072 5.684.062 7.17.862 9.547 2.876 13.893 6.292 18.575 3.834 5.257 9.124 6.8 11.22 7.222.13.026.26.038.39.038v-44c-.114 0-.228.01-.341.03" fill="#591DCE"/><path d="M29.714 6.089L16.37 8.399a1.678 1.678 0 00-1.391 1.649c-.003 1.963-.026 3.703-.045 5.237-.035 2.768-.061 4.767.052 6.014.723 8.006 2.412 11.652 5.277 15.578 3.216 4.409 7.653 5.705 9.41 6.057.108.022.218.032.327.032V6.065c-.096 0-.191.007-.286.024" fill="#7539E9"/><path d="M45.066 15.285c-.02-1.535-.042-3.274-.045-5.237a1.679 1.679 0 00-1.392-1.65l-13.343-2.31A1.625 1.625 0 0030 6.065v36.902h.003c.11 0 .22-.01.328-.032 1.37-.273 6.095-1.517 9.406-6.057 2.865-3.926 4.554-7.572 5.277-15.578.113-1.247.087-3.246.052-6.014" fill="#AC6CFF"/></g></svg>
