<svg xmlns="http://www.w3.org/2000/svg" width="46" height="46" viewBox="0 0 46 46">
  <path fill="#008ef0" d="M42.9 35L28.3 5.7c-1-2-3-3.3-5.3-3.3-2.2 0-4.3 1.3-5.3 3.3L3.1 35c-1.5 2.9-.3 6.4 2.6 7.9.8.4 1.7.6 2.7.6h29.3c3.2 0 5.9-2.6 5.9-5.9-.1-.9-.3-1.8-.7-2.6z"/>
  <path fill="#005ce3" d="M37.6 45H8.4c-1.1 0-2.3-.3-3.3-.8-3.6-1.8-5.1-6.3-3.2-9.9L16.4 5.1C17.7 2.6 20.2 1 23 1s5.3 1.6 6.6 4.1l14.6 29.2c.5 1 .8 2.2.8 3.3 0 4.1-3.3 7.4-7.4 7.4zM23 4c-1.7 0-3.2.9-3.9 2.4L4.5 35.6c-1.1 2.2-.2 4.8 1.9 5.9.6.4 1.3.5 2 .5h29.3c2.4 0 4.4-2 4.4-4.4 0-.7-.2-1.4-.5-2L26.9 6.4C26.2 4.9 24.7 4 23 4z"/>
  <path fill="#7bebff" d="M25.8 25.8c0 1.6-1.3 2.8-2.8 2.8s-2.8-1.3-2.8-2.8V14.4c0-1.6 1.3-2.8 2.8-2.8s2.8 1.3 2.8 2.8v11.4z"/>
  <circle fill="#7bebff" cx="23" cy="34.2" r="3.5"/>
</svg>
