<svg id="Layer_1" xmlns="http://www.w3.org/2000/svg" viewBox="0 0 110 110"><style>.st0{opacity:0.5;} .st1{fill:#FFFFFF;}</style><g class="st0"><path class="st1" d="M105.7 48.5l-5.4-.9c-.5-3.1-1.3-6-2.4-8.9l4.2-3.4 3.3-2.7-2.9-5-2.9-5-9.1 3.4c-1.9-2.4-4.1-4.5-6.5-6.5l3.4-9.1-5-2.9-5-2.9-2.7 3.3-3.4 4.1c-2.8-1.1-5.8-1.9-8.9-2.4l-.9-5.4-.7-4.2H49.2l-1.6 9.6c-3.1.5-6 1.3-8.9 2.4l-3.4-4.2-2.7-3.3-5 2.9-5 2.9 1.5 4 1.9 5.1c-2.4 1.9-4.5 4.1-6.5 6.5l-9.1-3.4-2.9 5-2.9 5 3.3 2.7 4.2 3.4c-1.1 2.8-1.9 5.8-2.4 8.9L0 49.2v11.6l4.3.7 5.4.9c.5 3.1 1.3 6 2.4 8.9l-4.2 3.4-3.3 2.7 2.9 5 2.9 5 4-1.5 5.1-1.9c1.9 2.4 4.1 4.5 6.5 6.5l-3.4 9.1 5 2.9 5 2.9 2.7-3.3 3.4-4.2c2.8 1.1 5.8 1.9 8.9 2.4l.9 5.4.7 4.3h11.6l1.6-9.6c3.1-.5 6-1.3 8.9-2.4l3.4 4.2 2.7 3.3 5-2.9 5-2.9-3.4-9.1c2.4-1.9 4.5-4.1 6.5-6.5l9.1 3.4 2.9-5 2.9-5-3.3-2.7-4.1-3.5c1.1-2.8 1.9-5.8 2.4-8.9l9.6-1.6V49.2l-4.3-.7zM55 92.2c-20.5 0-37.2-16.6-37.2-37.2S34.5 17.8 55 17.8c20.5 0 37.2 16.6 37.2 37.2S75.5 92.2 55 92.2z"/><path class="st1" d="M61.8 58.2s-.1 0 0 0l-1.2 1.2h-.7c-.9 0-1.6.3-2.2.9-.6.6-1 1.5-.9 2.4v.5l-1 1 12.5 12.5c1.7 1.7 4.4 1.7 6 0 1.7-1.7 1.6-4.4 0-6L61.8 58.2zM46.2 54.6l2.1 2.1 1-1h.7c.9 0 1.6-.3 2.2-.9.6-.6 1-1.5.9-2.4v-.5l1.1-1.1.1-.1-2.1-2.1c2-3.8 1.9-8.1-1.5-11.5-3.4-3.4-6.6-6.6-12.6-2.6l7.5 7.5c1.1 1.1 1.1 2.9 0 4l-2 2c-1.1 1.1-2.9 1.1-4 0L32 40.4c-4 6-.5 9.5 2.9 12.9 3.4 3.3 7.6 3.4 11.3 1.3z"/><path class="st1" d="M74.8 35.3l-17 17-.8-.8c-.6-.6-1.4-.6-2 0l-.8.8v.2c0 1.1-.4 2.2-1.2 3-.9.9-2.1 1.3-3.2 1.2L35 71.5c-.6.6-.6 1.4 0 2l4 4c.6.6 1.4.6 2 0l14.8-14.8c-.1-1.2.3-2.3 1.2-3.2.9-.9 2.1-1.3 3.2-1.2l.8-.8c.6-.6.6-1.4 0-2l-.8-.8 17-17 2.7-3.8-1.3-1.3-3.8 2.7z"/></g></svg>