<svg xmlns="http://www.w3.org/2000/svg" width="285" height="47" fill="none"><path fill="#000" d="M24.2 18.426H17.34v15.63c0 2.669 1.525 3.24 4.002 3.24.953 0 1.906-.19 2.86-.19v8.196c-2.097 0-4.194.38-6.1.38-9.53 0-12.008-2.858-12.008-12.198V18.426H.375v-7.433h5.718V.7H17.34v10.293H24.2v7.433Zm9.912 12.58c.19 4.766 2.859 7.815 7.624 7.815 2.669 0 5.337-1.334 6.48-3.812H58.7c-1.906 8.005-9.34 11.436-16.964 11.436-11.246 0-18.87-6.67-18.87-18.298 0-10.483 8.387-18.107 18.489-18.107 12.39 0 18.489 9.34 17.917 20.966h-25.16Zm13.914-6.29c-.19-3.812-2.86-7.052-6.671-7.052-4.003 0-6.671 2.86-7.243 7.052h13.914Zm36.024-1.143c0-2.86-2.668-4.956-5.527-4.956-6.29 0-7.243 5.337-7.243 10.102 0 4.384 1.906 8.959 6.67 8.959 4.004 0 5.91-2.288 6.481-5.91h10.865c-.953 9.34-8.006 14.677-17.155 14.677-10.292 0-18.107-7.052-18.107-17.535 0-10.865 6.862-18.68 18.107-18.68 8.578 0 16.202 4.575 16.964 13.533H84.05v-.19ZM95.677.7h11.246v15.058h.19c1.716-3.43 6.29-5.718 10.483-5.718 11.437 0 12.39 8.386 12.39 13.342v22.11H118.74V28.91c0-4.765.572-9.53-5.718-9.53-4.193 0-6.099 3.621-6.099 7.433v18.68H95.677V.7Zm35.262 10.293h10.864v6.1h.191c1.715-4.385 5.527-6.672 10.292-6.672.953 0 1.716 0 2.669.19v10.293c-1.525-.38-2.859-.572-4.384-.572-5.528 0-8.387 3.813-8.387 8.197v16.963h-11.245v-34.5Zm24.016 10.674c.19-4.575 2.287-7.434 5.337-9.15 3.049-1.715 7.052-2.477 10.864-2.477 8.196 0 16.011 1.715 16.011 11.436v15.058c0 2.859 0 6.1 1.334 8.768h-11.245c-.382-1.144-.572-2.097-.572-3.24-3.05 3.24-7.243 4.383-11.437 4.383-6.48 0-11.817-3.24-11.817-10.483 0-11.246 12.199-10.293 20.013-12.008 1.907-.381 3.05-1.144 3.05-3.24 0-2.669-3.05-3.622-5.527-3.622-3.05 0-5.147 1.334-5.719 4.384h-10.292v.19Zm14.486 17.917c5.337 0 7.243-3.05 6.862-10.103-1.525.954-4.575 1.144-6.862 1.907-2.478.571-4.575 1.715-4.575 4.384 0 2.668 2.097 3.812 4.575 3.812Zm54.131 5.908h-10.674V41.49h-.19c-2.097 3.24-5.528 4.955-9.34 4.955-10.864 0-15.439-9.34-15.439-18.87 0-8.958 4.765-17.345 14.486-17.345 4.194 0 7.434 1.525 9.721 4.766h.191V.7h11.245v44.792Zm-24.397-17.535c0 4.765 1.715 9.911 6.862 9.911 5.527 0 6.671-5.146 6.671-9.53 0-4.956-1.716-9.53-6.671-9.53-5.147-.19-6.862 4.765-6.862 9.149Zm26.113-6.29c.19-4.575 2.287-7.434 5.337-9.15 3.049-1.715 7.052-2.477 10.864-2.477 8.196 0 16.011 1.715 16.011 11.436v15.058c0 2.859 0 6.1 1.334 8.768h-11.246c-.381-1.144-.571-2.097-.571-3.24-3.05 3.24-7.434 4.383-11.437 4.383-6.48 0-11.817-3.24-11.817-10.483 0-11.246 12.199-10.293 20.013-12.008 1.906-.381 3.05-1.144 3.05-3.24 0-2.669-3.05-3.622-5.528-3.622-3.049 0-5.146 1.334-5.718 4.384h-10.292v.19Zm14.486 17.917c5.337 0 7.243-3.05 6.861-10.103-1.524.954-4.574 1.144-6.861 1.907-2.478.571-4.575 1.715-4.575 4.384-.19 2.668 2.097 3.812 4.575 3.812Zm19.441-28.591h10.865v6.1h.19c1.716-4.385 5.528-6.672 10.293-6.672.953 0 2.859 0 3.812.19v10.293c-1.525-.38-3.812-.572-5.337-.572-5.527 0-8.386 3.813-8.386 8.197v16.963h-11.246v-34.5h-.191Z"/></svg>
