<svg xmlns="http://www.w3.org/2000/svg" width="289" height="66" fill="none"><path fill="#000" d="m216.597 17.164-.279 8.483c-9.907-.68-12.725 1.858-12.725 10.187v1.083h-8.483V17.69h8.483v5.48c2.539-4.458 5.976-6.501 13.004-6.006ZM14.576 51.654h8.483V18.868h-8.483v32.788Zm42.045-34.428c-5.944 0-9.567 2.663-11.486 5.604V4.749H.427v7.926h36.782v24.242h8.08c0-6.966 4.025-11.858 8.948-11.858 4.242 0 6.161 2.105 6.161 9.598v17.029h8.484V31.623c.03-9.63-4.892-14.397-12.26-14.397Zm33.376 27.927c-5.14 0-8.483-3.096-9.04-8.267h-7.988c.805 9.04 6.75 15.45 16.966 15.45 7.926 0 12.385-3.56 14.707-8.948l-7.183-3.158c-1.053 3.22-3.034 4.923-7.462 4.923Zm-.34-27.741c-3.035-.062-6.038.619-8.7 2.043l4.086 5.759c1.517-.774 3.158-1.177 4.923-1.115 4.768 0 7.183 3.096 7.524 7.183h-8.205v5.666h16.193c.124-.836.154-1.64.154-2.477.062-12.384-8.111-17.06-15.975-17.06Zm84.028 27.74c-5.14 0-8.483-3.095-9.041-8.266h-7.988c.805 9.04 6.75 15.45 16.967 15.45 7.926 0 12.384-3.56 14.706-8.948l-7.182-3.158c-1.115 3.22-3.097 4.923-7.462 4.923Zm-.279-27.74c-3.034-.062-6.037.619-8.731 2.043l4.087 5.759c1.517-.774 3.158-1.177 4.923-1.115 4.737 0 7.183 3.096 7.523 7.183h-8.204v5.666h16.192c.124-.836.155-1.64.155-2.477.062-12.384-8.081-17.06-15.945-17.06Zm99.478 27.74c-5.139 0-8.483-3.095-9.04-8.266h-7.988c.805 9.04 6.749 15.45 16.966 15.45 7.926 0 12.385-3.56 14.707-8.948l-7.183-3.158c-1.115 3.22-3.096 4.923-7.462 4.923Zm-.464-27.74c-3.034-.062-6.038.619-8.7 2.043l4.087 5.759c1.517-.774 3.158-1.177 4.922-1.115 4.737 0 7.183 3.096 7.524 7.183h-8.205v5.666h16.193c.124-.836.186-1.64.186-2.477.031-12.384-8.143-17.06-16.007-17.06ZM109.967.724l15.264 36.193h9.288L122.878 8.154h15.047V.786L109.967.724Zm45.296.062L137.77 45.06l-2.601 6.626h8.886l20.992-50.9h-9.784Zm78.022 50.095c3.622 0 6.626-1.022 8.7-2.787l-3.406-5.356c-1.083.464-2.26.62-3.467.62-4.644 0-7.307-2.787-8.205-6.44h-8.329c1.177 7.863 6.843 13.963 14.707 13.963Zm10.465-28.454c-1.92-3.065-5.821-5.263-11.27-5.263-5.325-.062-10.248 2.817-12.849 7.523l7.059 4.52c1.301-2.724 3.839-4.52 7.741-4.52 5.542 0 9.288 4.304 9.288 9.382 0 .96-.124 1.92-.403 2.817h8.917V17.752h-8.483v4.675Zm-8.205 36.132c-5.48 0-7.523-2.663-7.926-5.759h-8.081c.155 5.945 4.118 12.447 16.193 12.447 8.143 0 13.468-4.056 15.666-10.187l-7.647-2.662c-1.084 3.963-4.025 6.161-8.205 6.161Z"/></svg>
