<svg xmlns="http://www.w3.org/2000/svg" width="285" height="45" fill="none"><path fill="#231F20" d="M16.684 14.21v15.394c2.08-1.123 3.536-3.079 4.243-5.284l.167.084c-.458 5.491-4.202 10.982-10.027 10.982C5.202 35.386.876 31.02.876 24.03c0-5.242 3.41-8.53 7.78-11.483a7.632 7.632 0 0 0-1.956-.25c-2.996 0-4.743 2.039-4.743 4.12h-.25c-.041-.292-.041-.583-.041-.874 0-3.703 1.955-8.197 6.698-8.197 3.037 0 5.367 2.788 8.903 2.788 1.415 0 3.162-.666 3.869-2.205h.125c-.041 2.705-.873 5.492-4.576 6.283Zm2.246 15.768c-2.08 2.205-4.326 4.078-7.239 4.078-5.408 0-9.568-4.244-9.568-10.402 0-3.619 1.498-5.574 3.162-7.863h-.167c-1.04 1.04-3.785 3.661-3.785 8.113 0 6.823 4.284 11.025 9.901 11.025 3.91 0 6.573-2.704 7.78-4.909l-.084-.042Zm1.664-20.177c-.707 1.33-2.205 3.036-5.242 3.036s-5.824-2.08-8.279-2.08c-2.247 0-3.786 1.498-4.368 2.621l.042.084c.79-.79 1.996-1.581 3.952-1.581 3.245 0 5.325 1.997 8.612 1.997 3.495 0 5.075-2.289 5.367-4.035l-.084-.042ZM9.028 12.67c-2.121 2.205-4.077 4.618-4.077 9.32 0 2.579.874 5.241 2.83 6.905l1.205-.624v-11.15l-1.123.583-.208-.416 5.825-3.163c-1.58-.332-2.995-1.039-4.452-1.455Zm7.198 1.623c-.291.04-.582.04-.915.04a7.258 7.258 0 0 1-1.665-.166v12.148l-5.45 2.955c1.124.832 2.497 1.331 4.244 1.331a9.186 9.186 0 0 0 3.785-.79l.001-15.518Zm-5.99 2.122-.792.457v11.15l.791-.416V16.416Zm23.921 1.58v14.395c0 3.994-3.536 6.699-7.488 7.489l-.083-.167c1.955-.957 3.078-2.912 3.078-4.992V19.827l-2.246-2.038-.874.956v11.608l1.248 1.123v.084l-3.37 3.66-3.868-3.536v-.166l1.498-1.581V11.548l4.41-4.7.082.04v11.15l3.62-3.91 3.786 3.412.707-.75.333.292-.833.914ZM22.508 31.601v-.083l.874-.874V10.84l-.874.917v18.471l-1.331 1.332v.083l3.245 2.912.582-.666-2.496-2.288Zm8.487-12.44-2.704-2.33-.582.624 2.413 2.164v14.978c0 .998-.208 2.038-.582 2.62l.041.042c1.04-.75 1.415-1.873 1.415-3.328V19.16Zm9.777 7.198v2.121l4.035 3.162 2.33-2.496.334.333-5.408 5.782-5.492-4.41-.832.874-.333-.333.957-.998V19.868l7.863-5.741 4.119 6.657-7.573 5.575Zm-3.079 3.661V19.452l-.873.625v10.36l5.159 4.201.666-.707-4.952-3.91Zm3.163-12.814-.084.042v8.528l3.703-2.704-3.62-5.866Zm1.081-.832-.749.54 3.662 5.867.749-.541-3.662-5.866ZM75.463 35.22l-5.783-4.993-4.41 4.993-5.99-5.16v-8.153h-1.166c-1.04 0-1.58.666-1.83 1.456h-.125a6.612 6.612 0 0 1-.208-1.58c0-1.083.291-3.911 3.328-3.911v-7.156c0-1.373-1.622-1.914-1.622-3.745 0-2.37 2.246-4.7 6.365-6.158l.167.125C62.69 1.812 61.9 2.644 61.9 4.433c0 2.746 2.662 2.039 2.662 6.366v1.664l4.868-5.118 5.117 5.034 4.826-5.034 4.66 4.577v15.393l-8.57 7.905Zm-14.852-5.824v-8.778h-2.33c-1.207 0-1.747.79-1.83 1.497l.04.042c.416-.457.833-.707 1.79-.707h1.455v8.404l5.492 4.743.624-.75-5.241-4.451Zm0-19.097c0-1.705-1.498-2.288-1.498-3.37 0-1.497.583-2.745 1.498-3.91l-.083-.04c-1.248.956-2.413 2.496-2.413 3.993 0 1.498 1.622 2.205 1.622 3.536v7.364h.874V10.3Zm8.778 4.161-3.161-3.079-1.665 1.706v14.727l3.786 3.204 1.04-1.165V14.46Zm1.331 14.853V13.878l-3.536-3.495-.666.666 3.329 3.203V29.77l5.616 4.868.666-.625-5.409-4.7Zm8.072-15.394-2.621-2.496-1.498 1.539v14.811l4.077 3.578.042-.042V13.92Zm1.33-.582-3.036-2.954-.624.666 2.787 2.662v17.39l.874-.832V13.337ZM97.8 35.22l-3.952-3.578-3.536 3.578-4.327-3.828-.583.624-.332-.332.749-.79v-11.15l7.821-5.658 4.494 3.495.79-.833.333.334-.915.956v11.525l2.205 2.038.707-.749.333.291L97.8 35.22Zm-10.65-4.618V19.37l-.874.624V31.02l3.995 3.578.665-.666-3.786-3.329Zm6.698-10.941-3.411-2.663-.125.084v12.106l2.829 2.454.707-.707V19.661Zm1.332 11.316v-11.94l-3.537-2.871-.831.582 3.494 2.746v11.898l3.495 3.162.624-.666-3.245-2.911Zm14.727-9.32h4.285v8.904l-6.615 4.659c-.873-.998-2.122-1.705-3.661-1.705-1.248 0-2.247.416-3.578 1.539l-.208-.084 5.659-8.237h-3.495v-7.738l6.948-4.826c.832.666 1.456 1.04 2.538 1.04.832 0 2.038-.167 2.954-.915l.166.083-4.993 7.28Zm-4.659 10.65c-1.207 0-2.164.417-2.996 1v.083c.666-.292 1.332-.375 1.956-.375.956 0 2.454.458 3.453 1.623l.957-.707c-.791-.916-1.748-1.623-3.37-1.623Zm4.451-6.989h-2.33l-4.868 7.032.042.083c1.206-.873 2.371-1.456 3.786-1.456 1.248 0 2.537.583 3.328 1.581l.042-.041v-7.199Zm-6.074 0v-6.697l-.874.624v6.99h3.37l.666-.916h-3.162Zm8.695-8.154c-.873.625-1.373.957-2.829.957-.832 0-1.831-.374-2.621-1.207l-.083.042v6.074h1.581l3.994-5.825-.042-.041Zm-1.997-.374c-.748 0-1.705-.374-2.33-1.207l-1.04.707c.791.958 1.54 1.373 2.704 1.373.749 0 1.831-.208 2.954-1.165l.041-.125c-.706.292-1.58.417-2.329.417Zm.707 7.156h-2.704l-.624.874h2.455v8.07l.873-.623v-8.32Zm17.515-5.95v14.395c0 3.994-3.536 6.699-7.488 7.489l-.083-.167c1.955-.957 3.079-2.912 3.079-4.992V19.827l-2.247-2.038-.873.956v11.608l1.248 1.123v.084l-3.37 3.66-3.869-3.536v-.166l1.498-1.581V11.548l4.41-4.7.083.04v11.15l3.619-3.91 3.786 3.412.707-.75.333.292-.833.914Zm-11.648 13.605v-.083l.873-.874V10.84l-.873.916v18.471l-1.332 1.332v.083l3.245 2.912.582-.666-2.495-2.287Zm8.487-12.44-2.705-2.33-.582.624 2.413 2.164v14.978c0 .998-.208 2.038-.582 2.62l.042.042c1.04-.75 1.414-1.873 1.414-3.328V19.16Zm10.733 16.059-3.578-3.287-.832.874-.333-.333.957-1.04V19.411l-1.747-1.664-.666.75-.333-.334 3.744-4.077 3.328 2.996.833-.916.374.292-1.04 1.123v12.148l1.997 1.872.916-.957.332.333-3.952 4.243Zm-2.454-4.077V18.745l-2.164-1.997-.582.666 1.872 1.79V31.56l3.328 2.995.624-.666-3.078-2.746Zm1.248-17.39-3.412-3.12 3.121-3.328 3.411 3.12-3.12 3.328Zm-2.122-3.786-.624.624 2.704 2.538.624-.707-2.704-2.455Zm20.92 25.253-3.62-3.287V19.785l-2.205-1.996-1.165 1.248v11.232l1.29 1.206v.167l-3.411 3.578-3.87-3.536v-.125l1.498-1.58V19.493l-1.955-1.789-.791.874-.332-.333 3.785-4.119 3.786 3.37v.832l3.953-4.202 3.702 3.328.832-.873.375.332-.999 1.04v11.899l1.872 1.747.916-.998.332.332-3.993 4.286Zm-10.983-3.62v-.082c0 .083.832-.833.832-.833V18.87l-2.372-2.163-.583.624 2.081 1.914v10.983l-1.29 1.331v.083l3.204 2.913.665-.708-2.537-2.245Zm8.694-.332v-12.19l-2.579-2.33-.665.707 2.371 2.122v12.107l3.12 2.912.666-.708-2.913-2.62Zm14.021 11.44c-1.372-1.497-2.329-2.121-3.619-2.121-1.373 0-2.954.54-4.577 1.414l-.124-.124 5.741-6.656-4.077-3.245-.791.832-.332-.291.914-.999V19.744l7.905-5.658 4.41 3.495.749-.833.333.334-.874.956v14.23c0 2.163 1.207 2.08 1.207 3.701 0 1.872-2.705 3.62-6.865 6.74Zm-5.533-11.523V19.41l-.874.625V31.56l4.119 3.328.624-.75-3.869-2.953Zm2.912 8.32c-1.373 0-2.621.417-3.786 1.207v.083c.749-.291 1.581-.666 2.996-.666 1.289 0 2.371.708 3.453 1.956l.832-.666c-1.041-1.206-2.289-1.913-3.495-1.913Zm5.076-3.994c-1.04-.666-1.29-1.373-1.29-3.161v-.75l-6.906 7.988.041.041c1.331-.79 2.538-1.372 4.494-1.372 1.664 0 2.787.665 4.077 1.747.791-.666 1.331-1.33 1.331-2.371 0-.832-.708-1.456-1.747-2.122Zm-1.29-15.85-3.453-2.704-.084.083v12.772l2.663 2.08.874-.998V19.66Zm2.538 15.268c-1.082-.832-1.207-1.54-1.207-3.328V18.954l-3.495-2.83-.79.541 3.411 2.704v12.814c0 1.789.084 2.289 1.207 3.037.999.666 1.789 1.373 1.789 2.33 0 .249-.042.665-.042.665l.042.042c.208-.209.458-.541.458-1.082 0-.915-.458-1.539-1.373-2.246Zm9.985.29-3.828-2.994-.79.873-.333-.333.915-.998V17.206h-2.413l-.084-.083 1.457-2.164h1.039v-2.787l4.411-4.701.083.083v7.405h3.328l.084.084-1.457 2.163h-1.955v12.606l2.288 1.748.874-.957.333.333-3.952 4.284Zm-2.704-23.755-.874.958v2.537h.874v-3.495Zm0 19.887V17.206h-.874V31.85l3.536 2.747.624-.666-3.286-2.58Zm20.26-12.938V30.06l-7.031 5.2-5.284-3.993-.624.707-.333-.333.749-.832V19.411l7.364-5.284 4.909 3.828.79-.832.334.332-.874.958Zm-11.191 11.982V19.037l-.874.624v11.191l4.993 3.828.79-.583-4.909-3.702Zm6.698-10.61-3.495-2.746-.041.042v12.398l3.536 2.662V19.785Zm1.332-.748-3.87-2.996-.79.582 3.786 2.912v12.94l.874-.666V19.037Zm19.054 16.183-3.62-3.287V19.785l-2.205-1.996-1.165 1.248v11.232l1.29 1.206v.167l-3.411 3.578-3.87-3.536v-.125l1.498-1.58V19.493l-1.955-1.789-.791.874-.332-.333 3.785-4.119 3.786 3.37v.832l3.953-4.202 3.702 3.328.832-.873.375.332-.999 1.04v11.899l1.872 1.747.916-.998.332.332-3.993 4.286Zm-10.984-3.62v-.082c0 .083.832-.833.832-.833V18.87l-2.371-2.163-.582.624 2.08 1.914v10.983l-1.289 1.331v.083l3.203 2.913.666-.708-2.539-2.245Zm8.695-.332v-12.19l-2.579-2.33-.665.707 2.371 2.122v12.107l3.12 2.912.666-.708-2.913-2.62Zm27.99 3.952c-1.165-1.248-1.58-1.664-2.954-2.039v8.155l-.083.04-1.664-1.497-4.826 4.451-.084-.04V33.097c-1.456.333-2.995 1.082-4.493 2.58l-.083-.042c.291-3.204 1.872-5.575 4.575-6.49v-8.113h-.873c-1.206 0-1.872.624-2.454 1.748h-.125c-.125-.374-.209-.958-.209-1.914 0-1.747 1.29-3.578 3.412-3.578h.249v-4.493l-1.705-1.54-.832.833-.292-.291 4.202-4.452 3.911 3.578v3.786l.915-.999V8.927h.458v4.368l5.533-5.95 4.701 4.286v18.098l-7.279 5.49Zm-9.61-3.661c-1.705.332-2.911 1.373-3.702 2.745l.041.084c1.166-.998 2.247-1.456 3.661-1.789v-1.04Zm1.332-11.94h-2.288c-1.582 0-2.206.999-2.247 2.164l.041.041c.5-.832.999-1.123 1.997-1.247h1.623V43.25l.874-.832V19.619Zm0-7.489-2.081-1.913-.665.707 1.872 1.664v4.7h.874V12.13Zm4.868 2.371-.916.958v24.088l.916.833V14.5Zm5.45-.956-2.455-2.246-2.538 2.746v14.644c2.163.208 3.661.832 4.951 2.246l.042-.041v-17.35Zm-4.993 18.014v1.082c1.415.333 1.997.749 2.995 1.913l.957-.749c-.999-1.248-1.997-1.996-3.952-2.246Zm6.324-18.68-2.83-2.62-.665.706 2.621 2.413v19.346l.874-.666V12.88Zm18.43 5.534V30.06l-7.032 5.2-5.283-3.993-.625.707-.332-.333.748-.832V19.411l7.365-5.284 4.909 3.828.79-.832.333.332-.873.958Zm-11.191 11.982V19.037l-.875.624v11.191l4.993 3.828.791-.583-4.909-3.702Zm6.698-10.61-3.495-2.746-.042.042v12.398l3.537 2.662V19.785Zm1.331-.748-3.869-2.996-.79.582 3.786 2.912v12.94l.873-.666V19.037Zm12.813 2.62h4.286v8.904l-6.615 4.659c-.874-.998-2.122-1.705-3.661-1.705-1.248 0-2.246.416-3.578 1.539l-.208-.084 5.658-8.237h-3.495v-7.738l6.948-4.826c.832.666 1.456 1.04 2.538 1.04.832 0 2.038-.167 2.954-.915l.166.083-4.993 7.28Zm-4.659 10.65c-1.206 0-2.163.417-2.995 1v.083c.666-.292 1.331-.375 1.955-.375.958 0 2.454.458 3.453 1.623l.957-.707c-.79-.916-1.747-1.623-3.37-1.623Zm4.452-6.989h-2.33l-4.867 7.032.041.083c1.206-.873 2.371-1.456 3.786-1.456 1.248 0 2.538.583 3.328 1.581l.041-.041.001-7.199Zm-6.074 0v-6.697l-.874.624v6.99h3.369l.666-.916h-3.161Zm8.695-8.154c-.874.625-1.373.957-2.83.957-.832 0-1.831-.374-2.621-1.207l-.083.042v6.074h1.58l3.994-5.825-.04-.041Zm-1.998-.374c-.748 0-1.705-.374-2.329-1.207l-1.04.707c.79.958 1.539 1.373 2.704 1.373.749 0 1.831-.208 2.954-1.165l.041-.125c-.707.292-1.58.417-2.33.417Zm.708 7.156h-2.704l-.624.874h2.454v8.07l.874-.623v-8.32Zm10.068 11.274-3.827-2.995-.791.873-.333-.333.915-.998V17.206h-2.413l-.083-.083 1.456-2.164h1.04v-2.787l4.41-4.701.084.083v7.405h3.327l.084.084-1.456 2.163h-1.955v12.606l2.288 1.748.873-.957.333.333-3.952 4.284Zm-2.704-23.756-.874.958v2.537h.874v-3.495Zm0 19.887V17.206h-.874V31.85l3.536 2.747.624-.666-3.286-2.58Z"/></svg>
