<svg id="Layer_1" xmlns="http://www.w3.org/2000/svg" viewBox="0 0 135 130"><style>.st0{fill:none;} .st1{fill:#EF5195;} .st2{fill:#FAC3C7;}</style><path class="st0" d="M-57 0h250v130H-57z"/><path class="st1" d="M68.4 109.6c-8.4-7-16.8-13.6-24.7-20.8-6.4-5.8-9.9-13.3-8.1-22.2 1.5-7.6 6-12.9 13.7-15 7.2-2 13.2.4 18 5.9.4.5.8 1.1 1.1 1.6.5-.6 1.2-1.3 1.5-1.6 7.3-7.7 14.8-8.7 22.7-4.2 7.9 4.6 11.5 14.1 8.7 23.4-2.1 6.9-6.6 12-11.9 16.4-6.7 5.5-13.7 10.7-21 16.5z"/><path class="st2" d="M31.2 27.6c-1 .7-1.3 2.1-.6 3.1l7.5 11.5c.7 1.1 2.1 1.4 3.1.7s1.3-2.1.6-3.1l-7.5-11.5c-.7-1-2.1-1.3-3.1-.7zM68.4 20.4c-1.2 0-2.2.9-2.2 2.2v13.6c0 1.3 1 2.3 2.2 2.3s2.2-.9 2.2-2.2V22.7c0-1.2-1-2.2-2.2-2.3zM8.6 54.5c.4-1.2 1.6-1.8 2.8-1.3l12.8 4.5c1.2.4 1.8 1.7 1.5 2.9-.4 1.2-1.6 1.8-2.8 1.3l-12.8-4.5c-1.2-.5-1.8-1.8-1.5-2.9zM9.9 86.6c-.2-1.2.6-2.3 1.9-2.5L25 82.6c1.2-.1 2.4.7 2.6 2 .2 1.2-.6 2.3-1.9 2.5l-13.3 1.5c-1.2.1-2.4-.8-2.5-2zM104.2 29.1c1 .6 1.3 2 .7 3.1l-7.2 11.7c-.7 1.1-2 1.4-3.1.8s-1.3-2-.7-3.1l7.2-11.7c.7-1.1 2.1-1.5 3.1-.8z"/><g><path class="st2" d="M127.1 54.8c-.4-1.2-1.7-1.7-2.8-1.3l-12.7 4.8c-1.2.4-1.8 1.7-1.4 2.9.4 1.2 1.7 1.7 2.8 1.3l12.7-4.8c1.1-.5 1.8-1.8 1.4-2.9zM127.4 86.6c.2-1.2-.6-2.3-1.9-2.5l-13.3-1.5c-1.2-.1-2.4.7-2.6 2-.2 1.2.6 2.3 1.9 2.5l13.3 1.5c1.3.1 2.5-.8 2.6-2z"/></g></svg>