<svg id="Layer_1" xmlns="http://www.w3.org/2000/svg" viewBox="0 0 1090 233.5"><style>.st0{opacity:0.7;fill:#FFCE07;} .st1{fill:#5BC1A4;} .st2{fill:#EF5195;}</style><path class="st0" d="M1090 233.5c-12.1 0-88-222-129-222s-51.7 70.1-98.5 70.1-49.2 38.9-90.3 38.9S691 35.4 650 35.4c-32 0-75.2 62.4-97 62.4-21.8 0-51.4-47.6-72.7-47.6-21.3 0-46.3 51.3-71.3 51.3s-35.9-36-60.5-36c-24.5 0-30.5 31-60.5 31s-53-65.7-84-65.7-49.6 70.7-73 70.7-16.4-11-43-11c-27.4 0-75.1 143-88 143"/><path class="st1" d="M0 233.5c12.1 0 101.6-172 134.7-172s46 38 92.7 38 55.4 33 96.5 33 65-61.1 95-61.1 69 99.1 110 99.1c52 0 65-50 92-50s38 37 76 37 58-19 82-19c21 0 26 12 58 12s29.2 29 56.6 29c27.4 0 31 20 54.4 20s34.4-32 61-32c27.4 0 68.1 66 81 66"/><path class="st2" d="M0 233.5c10.2 0 85.1-57.4 112.8-57.4s38.5 19.5 77.7 19.5 41.2 9.3 75.7 9.3 53-17.3 89-17.3 46.1 28 80.4 28c43.6 0 65-10.5 75.1-10.5s27.7 8.7 48.6 8.7 38.5-15.7 50-15.7c6 0 15.6 6.8 25.6 6.8 9 0 17.7-7.4 28.5-7.4s34.9 20.4 47.7 20.4c12.8 0 26.1-12.8 37.3-12.8s25 19 44.6 19 36.5-9.3 58.8-9.3c23 0 50.4 18.7 61.2 18.7"/></svg>