<svg id="Layer_1" xmlns="http://www.w3.org/2000/svg" viewBox="0 0 130 130"><style>.st0{fill:none;} .st1{fill:#5BC1A4;} .st2{fill:#D2E7C0;}</style><path class="st0" d="M-60 0h250v130H-60z"/><path class="st1" d="M22.5 50h85v59.1h-85z"/><path class="st1" d="M65 89.5L22.5 50 65 15.5 107.5 50z"/><path class="st1" d="M87.3 27h12.2v23.9H87.3z"/><g><path class="st2" d="M12.1 82.2h11.7v32.7H12.1z"/><path class="st2" d="M18 87.6l-5.9-5.4 5.9-5.4 5.8 5.4zM30.9 82.2h11.7v32.7H30.9z"/><path class="st2" d="M36.8 87.6l-5.9-5.4 5.9-5.4 5.8 5.4zM49.7 82.2h11.7v32.7H49.7z"/><path class="st2" d="M55.6 87.6l-5.9-5.4 5.9-5.4 5.8 5.4z"/><g><path class="st2" d="M68.5 82.2h11.7v32.7H68.5z"/><path class="st2" d="M74.4 87.6l-5.9-5.4 5.9-5.4 5.8 5.4z"/></g><g><path class="st2" d="M87.3 82.2H99v32.7H87.3z"/><path class="st2" d="M93.2 87.6l-5.9-5.4 5.9-5.4 5.8 5.4z"/></g><g><path class="st2" d="M106.2 82.2h11.7v32.7h-11.7z"/><path class="st2" d="M112 87.6l-5.8-5.4 5.8-5.4 5.9 5.4z"/></g></g></svg>