<svg xmlns="http://www.w3.org/2000/svg" width="541" height="222" fill="none"><rect width="504" height="172" x="11" y="40" stroke="#0090ED" stroke-dasharray="11.79 11.79" stroke-width="5.238" rx="3.143"/><path fill="#333336" d="M103.975 176.771c9.324.06 13.778-5.582 13.778-10.571 0-6.889-6.295-8.73-11.64-9.799-4.691-1.009-7.304-1.544-7.304-3.563 0-1.782 1.544-3.088 4.751-3.088 2.969 0 4.988 1.247 6.295 3.385l7.483-3.029c-2.97-4.276-7.008-6.829-13.778-6.829-7.899-.06-13.125 4.632-13.125 10.036 0 6.77 5.998 8.433 11.402 9.562 4.098.831 7.543 1.366 7.543 3.682 0 1.9-1.782 3.504-5.108 3.504-3.385 0-5.939-1.485-7.364-4.336l-7.898 3.088c2.553 5.108 7.364 7.958 14.965 7.958Zm33.731 0c7.068 0 11.581-2.91 14.788-7.423l-6.711-3.92c-1.603 2.613-4.157 4.276-7.958 4.276-4.751 0-8.136-2.613-9.205-6.77h25.478v-3.088c0-9.502-6.949-16.451-16.57-16.451-9.561 0-16.807 7.424-16.807 16.748 0 9.324 6.652 16.628 16.985 16.628Zm-.178-26.427c4.276 0 7.364 2.197 8.433 6.176h-17.103c1.306-3.741 4.513-6.176 8.67-6.176Zm20.817 25.774h8.255v-17.697c0-4.989 2.969-7.84 6.829-7.84 4.336 0 6.533 2.851 6.533 7.424v18.113h8.374v-19.36c0-8.374-4.811-13.363-12.412-13.363-3.979 0-7.305 1.782-9.384 4.692v-4.038h-8.195v32.069Zm34.45 0h28.209v-7.186H202.95l17.816-17.579v-7.304h-27.615v7.126h17.519l-17.875 17.638v7.305Zm42.376.653c5.048 0 9.443-2.256 11.759-5.582v4.929h7.899v-19.717c0-8.076-5.405-13.006-14.847-13.006-7.186 0-11.878 3.029-15.144 7.305l7.542 3.742c1.485-2.673 3.92-4.217 7.542-4.217 4.633 0 6.949 2.376 6.949 5.82v.416h-8.433c-8.909 0-14.432 4.098-14.432 10.749 0 5.642 4.157 9.561 11.165 9.561Zm2.376-6.77c-3.385 0-4.989-1.188-4.989-3.504 0-2.494 1.96-4.038 6.83-4.038h7.542v1.722c-1.603 3.445-5.464 5.82-9.383 5.82Zm48.123 6.77c9.324.06 13.778-5.582 13.778-10.571 0-6.889-6.295-8.73-11.64-9.799-4.691-1.009-7.304-1.544-7.304-3.563 0-1.782 1.544-3.088 4.751-3.088 2.969 0 4.988 1.247 6.295 3.385l7.483-3.029c-2.97-4.276-7.008-6.829-13.778-6.829-7.899-.06-13.125 4.632-13.125 10.036 0 6.77 5.998 8.433 11.402 9.562 4.098.831 7.543 1.366 7.543 3.682 0 1.9-1.782 3.504-5.108 3.504-3.385 0-5.939-1.485-7.364-4.336l-7.898 3.088c2.553 5.108 7.364 7.958 14.965 7.958Zm15.104-25.477h5.939v13.481c0 8.73 3.92 11.937 10.631 11.937 2.969 0 5.582-.891 7.661-2.435l-3.742-6.414c-.95.832-1.841 1.188-2.969 1.188-2.079 0-3.504-1.188-3.504-4.573v-13.184h8.433v-7.245h-8.433v-11.7l-8.077 4.751v6.949h-5.939v7.245Zm36.601 25.477c5.048 0 9.443-2.256 11.759-5.582v4.929h7.899v-19.717c0-8.076-5.405-13.006-14.847-13.006-7.186 0-11.878 3.029-15.144 7.305l7.542 3.742c1.485-2.673 3.92-4.217 7.542-4.217 4.632 0 6.949 2.376 6.949 5.82v.416h-8.434c-8.908 0-14.431 4.098-14.431 10.749 0 5.642 4.157 9.561 11.165 9.561Zm2.376-6.77c-3.385 0-4.989-1.188-4.989-3.504 0-2.494 1.96-4.038 6.83-4.038h7.542v1.722c-1.603 3.445-5.464 5.82-9.383 5.82Zm22.519 6.117h8.255v-17.816c0-5.167 2.435-7.721 6.295-7.721 3.979 0 5.761 2.495 5.761 6.771v18.766h8.374v-17.994c0-5.048 2.435-7.543 6.117-7.543 4.157 0 5.939 2.673 5.939 7.008v18.529h8.433v-19.717c0-8.017-4.098-13.006-12.234-13.006-4.395 0-8.018 2.079-10.037 5.405-1.722-3.445-4.988-5.405-9.799-5.405-3.86 0-6.948 1.663-8.908 4.454v-3.8h-8.196v32.069Zm72.593.653c7.899 0 15.382-6.473 15.382-16.688 0-10.214-7.365-16.688-15.441-16.688-4.336 0-7.958 1.96-10.096 5.108v-4.454h-8.077v44.897h8.136v-16.747c2.138 2.969 5.761 4.572 10.096 4.572Zm-1.663-7.72c-5.048 0-8.908-4.038-8.908-9.027 0-4.989 3.86-9.027 8.908-9.027 4.929 0 8.849 3.979 8.849 9.027 0 5.048-3.92 9.027-8.849 9.027Zm37.354 7.72c7.067 0 11.581-2.91 14.788-7.423l-6.711-3.92c-1.604 2.613-4.157 4.276-7.958 4.276-4.751 0-8.136-2.613-9.205-6.77h25.477v-3.088c0-9.502-6.948-16.451-16.569-16.451-9.562 0-16.807 7.424-16.807 16.748 0 9.324 6.651 16.628 16.985 16.628Zm-.178-26.427c4.276 0 7.364 2.197 8.433 6.176h-17.104c1.307-3.741 4.514-6.176 8.671-6.176ZM37.098 117h8.492V73.647h-8.492V117Zm14.554 0h8.196V70.202h-8.196V117Zm26.07 0h29.337v-7.958H86.452c.237-3.979 4.632-6.533 9.383-9.443 5.523-3.325 11.403-7.067 11.403-14.075 0-7.007-5.345-12.471-14.491-12.471-7.364 0-12.887 3.86-15.797 9.74l7.423 3.622c1.426-3.504 4.276-6.117 8.255-6.117 3.98 0 6.177 2.138 6.177 5.167 0 3.504-4.098 5.88-8.909 8.849-5.76 3.504-12.174 7.839-12.174 15.678V117Zm50.468-7.423c-5.285 0-8.552-2.911-8.552-13.6v-1.782c0-10.215 3.445-13.184 8.611-13.184 5.048 0 8.493 2.672 8.493 13.184v1.782c0 10.571-3.266 13.6-8.552 13.6Zm0 8.017c9.918 0 16.985-5.583 16.985-21.499v-2.019c0-14.847-7.305-21.023-16.985-21.023-9.502 0-16.925 5.998-16.925 21.023v2.02c0 15.737 6.889 21.498 16.925 21.498Zm20.671-.594h29.338v-7.958h-20.608c.238-3.979 4.633-6.533 9.384-9.443 5.523-3.325 11.402-7.067 11.402-14.075 0-7.007-5.345-12.471-14.49-12.471-7.365 0-12.888 3.86-15.798 9.74l7.424 3.622c1.425-3.504 4.276-6.117 8.255-6.117 3.979 0 6.176 2.138 6.176 5.167 0 3.504-4.098 5.88-8.908 8.849-5.761 3.504-12.175 7.839-12.175 15.678V117Zm47.955.594c9.799 0 15.738-5.761 15.738-13.303 0-4.632-2.376-7.899-6.177-9.858 3.148-2.079 5.108-5.286 5.108-9.265 0-7.245-5.642-12.115-14.966-12.115-6.652 0-11.878 2.91-15.025 7.72l6.948 4.157c1.663-3.028 4.217-4.75 8.136-4.75 4.454 0 6.592 2.375 6.592 5.226 0 3.206-2.375 5.641-6.948 5.641h-4.454v7.543h4.81c4.514 0 7.543 2.078 7.543 5.523 0 3.622-3.029 5.879-7.305 5.879-3.979 0-7.008-1.484-9.146-4.988l-7.008 5.166c3.742 4.989 8.493 7.424 16.154 7.424Zm46.07.059c9.324.06 13.778-5.582 13.778-10.571 0-6.889-6.295-8.73-11.64-9.799-4.692-1.01-7.305-1.544-7.305-3.563 0-1.782 1.544-3.088 4.751-3.088 2.97 0 4.989 1.247 6.295 3.385l7.483-3.029c-2.969-4.276-7.008-6.83-13.778-6.83-7.898-.059-13.125 4.633-13.125 10.037 0 6.77 5.999 8.433 11.403 9.561 4.098.832 7.542 1.366 7.542 3.683 0 1.9-1.781 3.503-5.107 3.503-3.385 0-5.939-1.484-7.364-4.335l-7.899 3.088c2.554 5.108 7.364 7.958 14.966 7.958Zm27.908 0c5.048 0 9.443-2.256 11.759-5.582V117h7.899V97.283c0-8.077-5.405-13.006-14.847-13.006-7.186 0-11.878 3.029-15.144 7.305l7.542 3.741c1.485-2.672 3.92-4.216 7.542-4.216 4.632 0 6.949 2.375 6.949 5.82v.416h-8.434c-8.908 0-14.431 4.097-14.431 10.749 0 5.642 4.157 9.561 11.165 9.561Zm2.376-6.77c-3.385 0-4.989-1.188-4.989-3.504 0-2.494 1.96-4.038 6.83-4.038h7.542v1.722c-1.604 3.445-5.464 5.82-9.383 5.82ZM295.689 117h8.137v-16.926c0-5.404 2.731-7.542 6.948-7.542 1.841 0 3.385.475 4.276 1.129l2.969-8.077c-1.366-.713-3.266-1.247-5.404-1.247-4.098 0-7.305 1.722-8.849 5.523v-4.93h-8.077V117Zm33.602.653c5.048 0 9.442-2.256 11.758-5.582V117h7.899V97.283c0-8.077-5.404-13.006-14.847-13.006-7.186 0-11.878 3.029-15.144 7.305l7.542 3.741c1.485-2.672 3.92-4.216 7.543-4.216 4.632 0 6.948 2.375 6.948 5.82v.416h-8.433c-8.908 0-14.431 4.097-14.431 10.749 0 5.642 4.157 9.561 11.165 9.561Zm2.375-6.77c-3.385 0-4.988-1.188-4.988-3.504 0-2.494 1.959-4.038 6.829-4.038h7.542v1.722c-1.603 3.445-5.463 5.82-9.383 5.82Zm1.485-29.931h6.117l-6.77-10.156h-8.374l9.027 10.155Z"/><g fill="#333336" clip-path="url(#a)"><path d="M39.742 172.555c.324 0 .648-.056.967-.166l9.263-3.216L68.86 149.53c1.97-2.052 1.97-5.392 0-7.444l-2.86-2.975a4.932 4.932 0 0 0-7.157 0l-18.886 19.645-3.09 9.645a3.23 3.23 0 0 0 .734 3.228 2.974 2.974 0 0 0 2.142.926Zm21.486-30.96a1.638 1.638 0 0 1 2.383 0l2.863 2.978a1.801 1.801 0 0 1 0 2.478l-2.874 2.993-5.249-5.46 2.877-2.989Zm-18.326 19.059 13.061-13.586 5.246 5.457-13.06 13.588-7.872 2.731 2.625-8.19ZM72.982 174.49l-4.84 1.538a11.362 11.362 0 0 1-5.767.297l-5.619-1.17c-3.29-.682-6.762-.2-9.765 1.361-3.325 1.729-7.335 1.056-9.966-1.684l-.137-.143-2.248 2.627c2.307 2.397 5.375 3.66 8.486 3.66a11.58 11.58 0 0 0 5.373-1.325 11.452 11.452 0 0 1 7.596-1.055l5.619 1.171c2.455.51 5.019.373 7.412-.388l4.841-1.538-.985-3.351Z"/></g><path stroke="#333336" stroke-width="1.06" d="M499.53 126.118v58.326"/><path fill="#333336" d="M532.141 7.406c0-.626.288-1.197.769-1.53l2.908-1.996c.263-.178.562-.274.872-.274H541V0h-4.31c-.924 0-1.825.286-2.609.822l-2.909 2c-.249.17-.459.39-.672.603-.215-.214-.423-.433-.672-.603l-2.911-2A4.608 4.608 0 0 0 524.31 0H520v3.606h4.31c.307 0 .609.096.872.274l2.908 1.997c.483.332.772.903.772 1.529V36.59c0 .626-.289 1.197-.772 1.53l-2.911 1.996a1.539 1.539 0 0 1-.871.274H520v3.606h4.31c.924 0 1.825-.285 2.61-.822l2.908-1.997c.252-.173.459-.392.672-.603.213.211.423.43.672.603l2.911 2a4.61 4.61 0 0 0 2.609.822H541v-3.606h-4.31a1.55 1.55 0 0 1-.872-.274l-2.908-1.997c-.483-.332-.769-.903-.769-1.529V7.406Z"/><defs><clipPath id="a"><path fill="#fff" d="M33 137.118h43.176v44.911H33z"/></clipPath></defs></svg>
