<svg xmlns="http://www.w3.org/2000/svg" width="27" height="28" fill="none" viewBox="0 0 27 28">
  <path fill="#fff" d="M13.5942 10.4301c2.8836-3.16148 5.2112-6.07976 8.0079-8.58115.8859-.79905 2.762-.48637 4.1864-.69482-.2432 1.32018 0 3.05725-.7991 3.85631-2.5708 2.69246-5.4891 5.05486-9.5539 8.68536 3.8737 3.2657 7.0526 5.6976 9.884 8.4943.7643.7469.5037 2.5535.7121 3.891-1.4244-.1563-3.3177.2085-4.2037-.5732-2.8835-2.5535-5.3849-5.5413-8.9285-9.3107L3.71029 27.9919c-4.047386-2.2234-4.81168-3.8215-2.15396-6.2882 2.65772-2.4666 5.38493-5.2112 8.68537-8.3032-3.2657-3.0399-6.23616-5.55863-8.85914-8.39006C.987353 4.46943.730166 3.84014.633298 3.1772.53643 2.51426.602902 1.8377.82679 1.20624 2.11222-.982472 3.65814.216111 4.97832 1.5884c2.53612 2.74458 5.14178 5.36755 8.61588 8.8417Z"/>
</svg>
