<svg xmlns="http://www.w3.org/2000/svg" xml:space="preserve" viewBox="0 0 138 4.66" width="138" height="5">
  <path d="M137.29 3.31c-1.36-.05-1.37.06-2.73 0-1.37-.06-1.37.11-2.74.06-1.37-.06-1.37-.09-2.73-.14-1.37-.05-1.35-.28-2.71-.33-1.38-.06-1.38-.14-2.74-.19-1.37-.05-1.37.15-2.74.11-1.37-.04-1.37.08-2.74.04s-1.35-.41-2.72-.45c-1.37-.04-1.37.09-2.74.06-1.37-.04-1.37.28-2.74.26-1.37-.03-1.35-.49-2.72-.51l-2.73-.04c-1.37 0-1.37.41-2.74.39s-1.37-.25-2.73-.27c-1.37-.02-1.37.07-2.73.06-1.37-.01-1.37-.21-2.73-.21-1.37-.01-1.37.21-2.74.2-1.37-.01-1.37.15-2.73.14s-1.37-.51-2.73-.51c-1.38-.01-1.38.14-2.75.14s-1.37.24-2.74.24h-2.73c-1.37 0-1.37.15-2.73.16-1.37.01-1.37-.43-2.73-.42-1.37.01-1.37.19-2.73.21-1.37.01-1.37.09-2.73.11l-2.74.04c-1.37 0-1.37.1-2.73.11-1.37.01-1.37-.11-2.73-.09-1.37.02-1.37.17-2.73.2-1.37.03-1.37-.26-2.74-.24-1.37.02-1.37.07-2.73.1-1.37.03-1.37-.06-2.74 0s-1.35.33-2.72.37c-1.37.04-1.37 0-2.74 0l-2.74.05-2.73.13c-1.37.04-1.36.1-2.72.15-1.37.05-1.37-.05-2.74 0s-1.37-.07-2.74 0-1.37.09-2.72.14c-1.36.06-1.37-.06-2.74 0l-2.73.11c-1.37.06-1.35.35-2.72.41s-1.35.22-2.72.29c-1.37.07-1.4-.35-2.76-.28-1.36.07-1.37 0-2.74.09-1.36.1-1.32.56-2.69.64-1.37.08-1.37-.07-2.74 0-1.36.07-1.38-.17-2.75-.09-.38 0-.65-.9-.65-.9-.05-.58.11-1.1.49-1.12 1.37-.08 1.37.07 2.74 0s1.37 0 2.74-.11c1.36-.1 1.35-.24 2.72-.31s1.37-.12 2.73-.19c1.37-.07 1.35-.24 2.72-.31s1.37.05 2.74 0 1.38.16 2.75.1 1.36-.27 2.72-.33l2.74-.15 2.73-.09c1.37-.06 1.37-.15 2.73-.21L33.3.79c1.37-.06 1.37 0 2.74-.06s1.38.19 2.75.14c1.37-.04 1.36-.36 2.72-.41 1.37-.05 1.38.28 2.75.24 1.37-.04 1.37-.26 2.73-.3 1.37-.04 1.38.35 2.76.31C51.12.67 51.12.62 52.48.6c1.37-.03 1.37-.27 2.73-.3 1.37-.03 1.37.12 2.74.09s1.37.13 2.75.11c1.37-.02 1.37-.06 2.73-.09C64.8.39 64.8.26 66.17.24c1.37-.02 1.37.11 2.74.1 1.37-.01 1.37-.28 2.74-.3s1.37.05 2.74.04c1.37-.01 1.37.05 2.74.04 1.39 0 1.38-.12 2.76-.12s1.37.05 2.74.05 1.37.22 2.74.22 1.37-.19 2.74-.19h2.74c1.37 0 1.37.1 2.74.11h5.48c1.37 0 1.37-.2 2.74-.18 1.37.02 1.37.46 2.73.49s1.37.1 2.74.13 1.38-.41 2.75-.38c1.37.03 1.36.41 2.73.44 1.37.03 1.37-.15 2.74-.11 1.37.04 1.37-.12 2.75-.09 1.37.04 1.37.1 2.73.14s1.37-.06 2.75 0l2.73.11c1.37.05 1.36.28 2.73.33 1.37.04 1.37.12 2.73.17l2.74.14c1.37.05 1.37 0 2.74 0 .38 0 .62.38.59.96 0 0-.32.98-.7.97z"/>
</svg>
