<svg xmlns="http://www.w3.org/2000/svg" viewBox="0 0 346 64" width="346" height="64">
  <path fill="#000" d="M0 9.1l26-3.6v25.1H0M29.1 5l34.4-5v30.4H29.1M0 33.3h26v25.2L0 54.9m29.1-21.3h34.4v30.1l-34.4-4.9M83 12.4h4.9l7.6 27.7c.5 1.9.9 3.9 1.2 5.9 2.7-11.4 6.3-22.4 9.4-33.6h4.3l6.6 24c.8 3.2 1.9 6.3 2.2 9.6 2.4-11.4 5.8-22.4 8.6-33.6h4.9L121.9 51h-5.2l-7.8-27.7c-.4-1.5-.6-3-.8-4.6-.2 1.3-.4 2.7-.7 4L99.5 51h-5.2L83 12.4m52.5.3c.2-1.6 1.7-2.7 3.3-2.5 1.6.2 2.7 1.7 2.5 3.3-.2 1.6-1.7 2.7-3.3 2.5-1.3-.2-2.4-1.2-2.5-2.5m.6 9.8h4.4V51h-4.4m16.1-23.2c2.5-4.4 8.3-6.5 13-4.4 3.7 1.5 5.1 5.8 5.2 9.5.2 6.1 0 12.1.1 18.2h-4.4c-.1-5.8.1-11.7-.1-17.5-.1-2.9-1.3-6.4-4.5-7.1-4.6-1.4-9.2 2.7-9.3 7.3-.1 5.8 0 11.5-.1 17.3h-4.4V23.3h4.4l.1 4.5m44.4-17.6h4.4V51h-4.4l-.1-4.4c-3.2 5.7-11.6 6.9-16.4 2.7-3.4-3-4.5-7.8-4.3-12.2 0-4.4 1.5-9.1 5-12 4.6-3.8 12.7-3.6 15.9 2l-.1-16.9m-9.3 16.1c-3.5.6-5.9 3.7-6.5 7-.9 4-.7 8.6 1.8 11.9 2.7 3.6 8.7 3.7 11.6.3 2-2.1 2.5-5 2.5-7.7 0-2.9.3-6.2-1.7-8.6-1.7-2.4-4.8-3.5-7.7-2.9m30.4-3.6c3.9-.3 8.2.3 11.1 3.1 3.3 3.1 4.3 7.8 4.1 12.1-.1 3.9-1.5 7.9-4.3 10.6-6 5.4-17 4.2-20.8-3.2-3-6.2-2.4-14.9 3.1-19.6 1.9-1.8 4.4-2.5 6.8-3m-.8 3.9c-6.4 2-7.5 10.3-5.5 15.9 1.6 4.9 7.8 7.1 12.3 4.8 3-1.4 4.4-4.8 4.7-7.9.3-3.6 0-7.8-2.5-10.6-2.2-2.6-5.9-3.1-9-2.2m18.3-3.3h4.6l5.4 19.8c.4 1.2.5 2.5.6 3.8 2.1-7.9 4.7-15.7 7-23.6h4c2 7.9 4.5 15.6 6.2 23.6 1.7-7.9 4.2-15.7 6-23.4 1.5-.1 2.9-.1 4.4-.1L265.2 51h-4.5c-2-7.5-4.5-14.9-6.1-22.4-1.9 7.6-4.5 14.9-6.7 22.4h-4.4l-8.3-27.7m48.8-.7c2.7-.2 5.5.1 8.1 1.1.7 1.4.2 3.1.3 4.7-3.1-1.9-7.3-3.1-10.6-1.2-2.3 1.2-2.4 4.9-.2 6.3 3.2 2.1 7.2 2.6 10 5.2 3.1 3 2.4 8.7-1.3 11-4.4 2.8-10.3 2.5-14.9.4v-4.9c3.3 2.5 7.9 3.9 11.9 2.1 2.3-1.2 2.4-4.7.4-6.2-3.2-2.3-7.6-2.7-10.3-5.6-2.8-2.8-2.3-8 .8-10.3 1.6-1.6 3.8-2 5.8-2.6m30.6-10.8l1.5-.2V51h-4.3l.1-32.8c-2.7 1.9-5.7 3.5-9 4.4l.1-4.4c4.2-1.4 8-3.8 11.6-6.4m17.5-.1c3.8-.6 8 .8 10.3 4 3.2 4.5 3.5 10.3 3.7 15.7-.1 5.6-.7 11.7-4.3 16.3-3.3 4.3-10.1 5.4-14.6 2.2-3.6-2.6-5-7.1-5.7-11.4-.7-6.2-.7-12.8 1.5-18.7 1.3-4.1 4.7-7.5 9.1-8.1m-.7 4c-3.9 1.6-5 6.2-5.5 9.9-.6 5.2-.7 10.6.5 15.7.6 2.5 1.9 5.2 4.4 6.3 2.8 1.4 6.6.2 8.1-2.6 2.4-4.1 2.4-9 2.5-13.7-.1-4.5-.3-9.3-2.8-13.3-1.5-2.4-4.7-3.4-7.2-2.3"/>
</svg>
