<svg fill="none" height="40px" viewBox="0 0 60 40" width="60px" xmlns="http://www.w3.org/2000/svg" aria-role="presentation">
  <path d="M 38.263 0.766 C 37.201 1.807 37.201 3.537 38.243 4.599 L 50.914 17.286 L 2.688 17.286 C 1.209 17.286 0 18.494 0 19.994 C 0 21.494 1.209 22.702 2.688 22.702 L 50.893 22.702 L 38.222 35.388 C 37.18 36.451 37.201 38.159 38.243 39.222 C 39.305 40.263 40.994 40.263 42.057 39.201 L 59.229 21.91 C 59.458 21.66 59.646 21.389 59.792 21.056 C 59.938 20.723 60 20.369 60 20.015 C 60 19.306 59.729 18.64 59.229 18.119 L 42.057 0.828 C 41.035 -0.255 39.326 -0.276 38.263 0.766 L 38.263 0.766 Z" fill="currentcolor"/>
</svg>
