<svg width="50" height="57" viewBox="0 0 50 57" fill="none" xmlns="http://www.w3.org/2000/svg" id="arrow-there" aria-hidden="true">
  <mask id="path-1-inside-1_3397_390" fill="white">
  <path d="M49.7112 56.521H2.95337V9.76319H42.9347C46.6772 9.76319 49.7112 12.7971 49.7112 16.5397V56.521Z"/>
  </mask>
  <path d="M49.7112 56.521H2.95337H49.7112ZM2.95337 6.37494H42.9347C48.5485 6.37494 53.0994 10.9258 53.0994 16.5397H46.3229C46.3229 14.6684 44.806 13.1514 42.9347 13.1514H2.95337V6.37494ZM42.9347 6.37494C48.5485 6.37494 53.0994 10.9258 53.0994 16.5397V56.521H46.3229V16.5397C46.3229 14.6684 44.806 13.1514 42.9347 13.1514L42.9347 6.37494ZM2.95337 56.521V9.76319V56.521Z" fill="#FFFFF2" mask="url(#path-1-inside-1_3397_390)"/>
  <path d="M12.4403 20.6057L2.95322 11.4574L12.4403 2.30918" stroke="#FFFFF2" stroke-width="3.38825" stroke-linecap="round"/>
</svg>
