<svg id="translate-icon" width="28" height="28" viewBox="0 0 28 28" fill="none" xmlns="http://www.w3.org/2000/svg" aria-hidden="true">
<rect width="28" height="28" rx="4" fill="#2B2A33"/>
<path d="M21.37 21H23L19.374 12.457C19.256 12.18 18.984 12 18.684 12H17.855C17.554 12 17.282 12.18 17.165 12.457L15.317 16.81C15.313 16.808 15.312 16.801 15.307 16.8C14.108 16.282 13.005 15.539 12.044 14.6C13.152 13.39 14.033 11.961 14.583 10.415L15.085 9H16V7.5H11.75V6H10.25V7.5H6V9H13.493L13.168 9.913C12.703 11.221 11.966 12.432 11.043 13.471C10.349 12.571 9.788 11.566 9.407 10.5H7.813L7.985 10.983C8.44 12.262 9.115 13.469 9.963 14.536C9.067 15.293 8.07 15.892 7 16.321V17.901C8.442 17.405 9.781 16.645 10.963 15.642C12.071 16.731 13.346 17.589 14.733 18.185L13.538 21H15.168L16.229 18.5H20.309L21.37 21ZM16.866 17L18.269 13.694L19.672 17H16.866Z" fill="#00DDFF"/>
</svg>
