<svg xmlns="http://www.w3.org/2000/svg" width="435" height="222" fill="none" viewBox="0 0 435 222">
  <rect width="385" height="172" x="11" y="40" stroke="#0090ED" stroke-dasharray="11.79 11.79" stroke-width="5.23791" rx="3.14274"/>
  <path fill="#333336" d="M420.287 7.37439c0-.62339.316-1.19219.841-1.52256l3.183-1.98796c.288-.17811.615-.27291.954-.27291h4.717V0h-4.717c-1.011 0-1.997.284404-2.855.818739l-3.184 1.990831c-.272.16949-.502.38782-.735.60041-.235-.21259-.462-.43092-.735-.60041L414.57.818739C413.711.284404 412.725 0 411.717 0H407v3.59096h4.717c.336 0 .667.0948.954.27291l3.183 1.98796c.528.33037.844.89917.844 1.52256V36.4353c0 .6234-.316 1.1922-.844 1.5226l-3.186 1.9879c-.287.1781-.615.273-.954.273H407v3.5909h4.717c1.011 0 1.997-.2844 2.856-.8187l3.183-1.988c.275-.1723.502-.3907.735-.6004.233.2097.463.4281.735.6004l3.186 1.9908c.859.5344 1.845.8188 2.856.8188h4.714v-3.591h-4.717c-.336 0-.666-.0948-.954-.2729l-3.183-1.9879c-.528-.3304-.841-.8992-.841-1.5226V7.37439Z"/>
  <path fill="#333336" d="M95.207 176.118h8.374v-32.069h-8.374v32.069Zm-1.069-41.096c0 3.028 2.1379 5.226 5.2261 5.226 3.1479 0 5.2859-2.198 5.2859-5.226 0-3.088-2.138-5.345-5.2859-5.345-3.0288 0-5.2261 2.257-5.2261 5.345Zm14.89 41.096h8.255v-17.697c0-4.989 2.97-7.84 6.83-7.84 4.335 0 6.532 2.851 6.532 7.424v18.113h8.374v-19.36c0-8.374-4.81-13.363-12.412-13.363-3.979 0-7.305 1.782-9.383 4.692v-4.038h-8.196v32.069Zm48.651 0h8.433v-17.519h19.48v-7.84h-19.48v-10.036h19.48v-7.958h-27.913v43.353Zm33.004 0h8.374v-32.069h-8.374v32.069Zm-1.069-41.096c0 3.028 2.138 5.226 5.226 5.226 3.148 0 5.286-2.198 5.286-5.226 0-3.088-2.138-5.345-5.286-5.345-3.028 0-5.226 2.257-5.226 5.345Zm14.891 41.096h8.136v-16.925c0-5.405 2.732-7.543 6.948-7.543 1.841 0 3.385.475 4.276 1.129l2.969-8.077c-1.365-.713-3.266-1.247-5.404-1.247-4.098 0-7.305 1.722-8.849 5.523v-4.929h-8.076v32.069Zm38.786.653c7.067 0 11.58-2.91 14.787-7.423l-6.711-3.92c-1.603 2.613-4.157 4.276-7.958 4.276-4.751 0-8.136-2.613-9.205-6.77h25.478v-3.088c0-9.502-6.949-16.451-16.57-16.451-9.561 0-16.806 7.424-16.806 16.748 0 9.324 6.651 16.628 16.985 16.628Zm-.179-26.427c4.276 0 7.365 2.197 8.434 6.176h-17.104c1.306-3.741 4.513-6.176 8.67-6.176Zm17.82 1.069h5.286v24.705h8.136v-24.705h7.72v-7.364h-7.72v-1.544c0-4.87.653-5.702 6.354-5.702h1.366v-7.483h-2.138c-10.452 0-13.718 3.207-13.718 13.6v1.129h-5.286v7.364Zm38.882 25.358c9.68 0 16.985-7.482 16.985-16.688 0-9.264-7.424-16.688-16.985-16.688-9.621 0-16.926 7.424-16.926 16.688 0 9.206 7.305 16.688 16.926 16.688Zm.059-7.779c-4.929 0-8.789-3.979-8.789-8.968s3.86-8.968 8.789-8.968c4.87 0 8.79 3.979 8.79 8.968s-3.92 8.968-8.79 8.968Zm16.116 7.126h9.858l7.186-10.036 7.364 10.036h9.918l-12.234-16.391 11.403-15.678h-9.621l-6.77 9.502-6.711-9.502h-9.74l11.343 15.619-11.996 16.45Z"/>
  <path fill="#333336" d="M37.8008 117h29.1595v-7.958H46.1745v-9.8584h20.7858V91.285H46.1745v-9.7396h20.7858v-7.8986H37.8008V117Zm48.7693.653c4.1571 0 7.7798-1.9 10.0365-5.048V117h8.0764V70.1429h-8.0764v18.8854c-2.1973-2.9694-5.7012-4.7511-9.9178-4.7511-8.1955 0-15.5596 6.4733-15.5596 16.6878 0 10.215 7.5423 16.688 15.4409 16.688Zm1.6034-7.72c-4.9292 0-8.9082-3.979-8.9082-9.027 0-5.0481 3.979-9.0271 8.9082-9.0271 5.048 0 8.9082 4.0384 8.9082 9.0271 0 4.988-3.8602 9.027-8.9082 9.027ZM110.028 117h8.374V84.9305h-8.374V117Zm-1.069-41.0965c0 3.0288 2.138 5.2262 5.227 5.2262 3.147 0 5.285-2.1974 5.285-5.2262 0-3.0882-2.138-5.3449-5.285-5.3449-3.029 0-5.227 2.2567-5.227 5.3449Zm12.935 16.2723h5.939v13.4812c0 8.73 3.919 11.937 10.63 11.937 2.97 0 5.583-.891 7.661-2.435l-3.741-6.414c-.95.832-1.841 1.188-2.969 1.188-2.079 0-3.504-1.188-3.504-4.573V92.1758h8.433v-7.2453h-8.433V73.2311l-8.077 4.751v6.9484h-5.939v7.2453ZM162.119 117h8.434v-11.818h8.611c9.799 0 16.331-7.1862 16.331-15.7974 0-8.73-6.532-15.7378-16.272-15.7378h-17.104V117Zm16.57-35.6922c4.988 0 8.314 3.3851 8.314 8.0768 0 4.6323-3.326 8.0174-8.314 8.0174h-8.136V81.3078h8.136ZM201.053 117h14.194c12.946 0 22.448-9.324 22.448-21.6766 0-12.2933-8.848-21.6766-22.626-21.6766h-14.016V117Zm13.422-35.5734c9.502 0 14.728 5.9388 14.728 13.8968 0 7.7796-5.701 13.8376-14.491 13.8376h-5.226V81.4266h4.989ZM243.118 117h8.433V99.4805h19.48v-7.8392h-19.48V81.6048h19.48v-7.958h-27.913V117Zm45.541.653c9.324.06 13.778-5.582 13.778-10.571 0-6.889-6.295-8.7298-11.64-9.7988-4.692-1.0096-7.305-1.5441-7.305-3.5633 0-1.7816 1.544-3.0882 4.751-3.0882 2.97 0 4.989 1.2472 6.295 3.3852l7.483-3.0288c-2.969-4.276-7.008-6.8297-13.778-6.8297-7.898-.0593-13.125 4.6323-13.125 10.0366 0 6.77 5.999 8.433 11.403 9.561 4.098.832 7.542 1.366 7.542 3.683 0 1.9-1.781 3.503-5.107 3.503-3.385 0-5.939-1.484-7.364-4.335l-7.899 3.088c2.554 5.108 7.364 7.958 14.966 7.958Z"/>
  <g fill="#333336" clip-path="url(#a)">
    <path d="M43.7436 172.556c.3239 0 .6477-.056.9661-.166l9.2639-3.217 18.8866-19.643c1.9699-2.051 1.9699-5.392 0-7.444l-2.8604-2.975c-1.9753-2.049-5.181-2.049-7.1563 0l-18.8867 19.646-3.0897 9.644c-.3643 1.14-.0837 2.381.7339 3.228.5829.604 1.352.927 2.1426.927Zm21.4853-30.961c.6531-.685 1.7297-.685 2.3828 0l2.8631 2.978c.6584.682.6584 1.797 0 2.479l-2.8739 2.992-5.2486-5.459 2.8766-2.99Zm-18.3253 19.059 13.0606-13.585 5.2458 5.456-13.0606 13.589-7.8715 2.731 2.6257-8.191Z"/>
    <path d="m76.9838 174.489-4.8411 1.539c-1.8673.592-3.8642.699-5.7666.297l-5.6183-1.17c-3.2894-.682-6.7623-.2-9.7658 1.361-3.3245 1.729-7.3344 1.055-9.9654-1.684l-.1377-.143-2.2478 2.627c2.3072 2.397 5.3754 3.66 8.4867 3.66 1.8242 0 3.6619-.432 5.3727-1.325 2.3342-1.212 5.0327-1.591 7.5962-1.055l5.6182 1.17c2.4557.511 5.0192.374 7.4128-.387l4.841-1.538-.9849-3.352Z"/>
  </g>
  <path stroke="#333336" stroke-width="1.06048" d="M360.53 126.118v58.326"/>
  <defs>
    <clipPath id="a">
      <path fill="#fff" d="M37 137.118h43.1757v44.9108H37z"/>
    </clipPath>
  </defs>
</svg>
