<svg width="232" height="192" viewBox="0 0 232 192" fill="none" xmlns="http://www.w3.org/2000/svg">
<path d="M33.0225 129.159C33.0225 129.159 35.3971 129.159 45.4913 114.612C55.5855 100.064 83.4903 56.128 115.256 50.4869C147.021 44.8457 179.38 59.3929 191.551 84.9231C203.723 110.453 206.989 133.016 192.146 134.204C177.302 135.393 174.037 131.236 174.037 131.236L103.085 119.657C103.085 119.657 97.1473 106.594 99.5219 92.0486C99.5219 92.0486 84.0844 111.049 80.8194 117.579C77.5545 124.109 76.6626 125.595 76.6626 126.781C76.6626 127.969 72.5058 130.64 67.1625 132.124C61.8191 133.609 37.1793 135.69 33.0225 129.159Z" fill="#82ECB7"/>
<path d="M100.761 92.3788C100.71 92.1106 100.685 91.8409 100.651 91.5711C100.593 91.1127 100.679 92.1387 100.646 91.5119C100.637 91.3201 100.624 91.1268 100.616 90.935C100.598 90.4906 100.587 90.0462 100.585 89.6019C100.584 89.3945 100.587 89.1887 100.591 88.9813C100.594 88.8519 100.593 88.7209 100.601 88.5915C100.546 89.4631 100.61 88.3109 100.615 88.052C100.621 87.7698 100.624 87.4861 100.632 87.2038C100.635 87.0573 100.637 86.9091 100.643 86.7626C100.608 87.4502 100.638 86.9138 100.643 86.7735C100.666 86.1389 100.69 85.5059 100.713 84.8713C100.766 83.4696 100.839 82.0679 100.927 80.6677C101.115 77.6507 101.374 74.6383 101.698 71.6338C101.865 70.0886 102.049 68.5466 102.25 67.0061C102.347 66.2608 102.45 65.5171 102.561 64.7749C102.587 64.594 102.615 64.4116 102.642 64.2307C102.557 64.803 102.607 64.4568 102.626 64.3321C102.692 63.922 102.757 63.5135 102.826 63.1034C103.069 61.6596 103.342 60.219 103.672 58.7907C103.811 58.1951 103.956 57.5995 104.118 57.0101C104.152 56.8838 104.19 56.7575 104.224 56.6313C104.389 56.0388 104.115 56.9415 104.237 56.5814C104.379 56.1619 104.496 55.7425 104.588 55.3106C104.798 54.3252 104.779 53.1013 104.336 52.172C104.095 51.6668 103.39 51.0338 102.975 51.7993C102.35 52.9562 102.048 54.266 101.742 55.5398C101.435 56.823 101.188 58.1218 100.966 59.4222C100.426 62.5733 100.01 65.7478 99.6994 68.9301C99.1023 75.05 98.6875 81.2384 98.7733 87.3909C98.8029 89.5535 98.8419 91.8175 99.3299 93.9333C99.4297 94.3652 99.8304 95.2305 100.35 94.716C100.867 94.2093 100.883 93.0165 100.761 92.3788Z" fill="#1CB0A8"/>
<path d="M102.111 71.0214C109.994 70.3899 118.055 70.2792 125.935 70.9762C130.179 71.3519 134.313 72.2641 138.413 73.396C143.446 74.7853 148.386 76.4957 153.226 78.454C156.063 79.6016 158.862 80.8396 161.636 82.1337C163.067 82.8011 164.488 83.4918 165.896 84.2043C167.275 84.9029 168.623 85.7245 170.054 86.3077C171.024 86.7022 171.074 82.9227 170.31 82.3957C168.05 80.8381 165.387 79.7123 162.911 78.5382C160.401 77.347 157.852 76.2416 155.276 75.2C150.386 73.223 145.398 71.458 140.333 69.9892C136.167 68.7824 131.922 67.7112 127.602 67.2575C123.182 66.7929 118.718 66.7305 114.275 66.7866C110.189 66.8381 106.093 66.9893 102.02 67.3526C101.097 67.4368 101.266 71.09 102.111 71.0214Z" fill="#1CB0A8"/>
<path d="M101.581 91.7912C103.995 89.7393 107.274 89.3526 110.33 89.2513C114.055 89.1281 117.802 89.2139 121.522 89.4025C129.089 89.7861 136.626 90.7621 144.041 92.3198C148.265 93.207 152.414 94.3327 156.558 95.5286C157.229 95.7219 157.633 91.7055 156.456 91.3344C149.112 89.0174 141.469 87.4691 133.841 86.4525C126.312 85.45 118.679 84.9963 111.085 85.2489C107.586 85.3658 103.855 85.7837 101.157 88.2487C100.621 88.7399 100.691 89.8765 100.771 90.5251C100.802 90.7668 101.07 92.2262 101.581 91.7912Z" fill="#1CB0A8"/>
<path d="M99.9943 110.204C102.693 109.05 105.632 108.464 108.526 108.04C111.796 107.56 115.114 107.337 118.418 107.315C121.656 107.295 124.899 107.468 128.111 107.878C131.538 108.314 134.862 109.166 138.218 109.967C143.019 111.116 147.821 112.265 152.622 113.414C153.359 113.591 153.721 109.521 152.519 109.236C148.217 108.211 143.917 107.187 139.615 106.164C136.114 105.332 132.627 104.377 129.059 103.871C122.574 102.951 115.795 102.899 109.321 103.919C105.968 104.447 102.651 105.305 99.5717 106.76C98.7703 107.139 99.0744 110.597 99.9943 110.204Z" fill="#1CB0A8"/>
<path d="M109.531 53.0019C110.903 52.9582 112.276 53.0814 113.65 53.0658C114.972 53.0517 116.294 53.0533 117.617 53.0907C120.316 53.1656 123.004 53.3745 125.685 53.6661C130.174 54.1541 134.63 54.9711 139.041 55.9285C148.05 57.8821 156.918 60.6388 165.331 64.4229C170.743 66.8568 175.963 69.6852 180.985 72.8441C181.663 73.2698 181.819 71.5765 181.841 71.2506C181.883 70.6098 181.952 68.9181 181.266 68.4955C172.651 63.1756 163.369 58.9439 153.749 55.799C145.355 53.0549 136.625 51.0451 127.859 49.9349C124.834 49.5514 121.791 49.3487 118.741 49.2941C117.216 49.266 115.691 49.2769 114.166 49.3253C112.573 49.3752 111.029 49.6434 109.45 49.8164C108.664 49.9022 108.774 53.0268 109.531 53.0019Z" fill="#1CB0A8"/>
<path d="M181.938 69.3019C180.129 70.5944 178.651 72.2456 177.245 73.9529C175.639 75.9019 174.059 77.8774 172.506 79.87C169.315 83.9629 166.198 88.1119 163.165 92.3233C162.626 93.0717 162.76 94.4796 162.961 95.3185C163.087 95.8424 163.494 96.8449 164.038 96.0763C166.976 91.9273 169.984 87.8282 173.078 83.7961C174.608 81.8034 176.139 79.8124 177.706 77.8509C179.105 76.0984 180.575 74.4004 182.382 73.0564C182.97 72.6183 182.862 71.2696 182.788 70.6459C182.752 70.345 182.513 68.8918 181.938 69.3019Z" fill="#1CB0A8"/>
<path d="M196.105 92.9822C195.3 92.6361 194.385 92.4739 193.534 92.2962C191.893 91.95 190.244 91.6397 188.586 91.3809C186.898 91.1159 185.184 90.9038 183.474 90.8399C181.338 90.7604 179.225 91.1283 177.19 91.7692C175.98 92.1512 174.795 92.6236 173.648 93.1646C173.055 93.4437 172.474 93.7415 171.902 94.0596C171.323 94.3808 170.618 94.6973 170.193 95.2103C169.698 95.8059 169.673 96.7149 169.733 97.4509C169.759 97.7798 169.896 99.2907 170.483 99.194C170.993 99.1098 171.417 98.7419 171.85 98.4799C172.332 98.1883 172.821 97.9124 173.32 97.6504C174.36 97.1031 175.432 96.6151 176.535 96.2113C178.606 95.4535 180.8 94.9359 183.012 94.9218C186.337 94.9016 189.717 95.4707 192.986 96.018C193.975 96.1832 195.07 96.2534 196.025 96.5621C196.638 96.757 196.909 93.3268 196.105 92.9822Z" fill="#1CB0A8"/>
<path d="M199.608 130.985C200.489 125.776 199.892 120.293 197.775 115.441C196.094 111.589 193.556 108.4 190.514 105.534C189.873 104.931 189.213 104.334 188.501 103.814C188.109 103.529 187.554 103.094 187.04 103.122C186.234 103.166 186.22 104.995 186.241 105.517C186.263 106.047 186.332 107.832 187.157 107.87C187.227 107.873 187.429 107.949 187.227 107.867C187.339 107.912 187.445 107.963 187.551 108.02C187.844 108.177 188.119 108.373 188.387 108.572C189.143 109.13 189.849 109.756 190.535 110.396C191.943 111.709 193.315 113.109 194.443 114.674C197.443 118.843 199.17 124.11 198.467 129.26C198.373 129.946 198.264 131.047 198.754 131.624C199.223 132.182 199.533 131.429 199.608 130.985Z" fill="#1CB0A8"/>
<path d="M180.55 129.36C180.23 124.319 179.582 119.303 178.529 114.362C178.026 111.996 177.435 109.643 176.741 107.326C176.379 106.119 175.999 104.918 175.582 103.729C175.205 102.656 174.885 101.215 174.182 100.313C173.752 99.759 173.378 100.174 173.197 100.693C172.901 101.543 172.929 102.586 173.136 103.45C173.423 104.638 174.001 105.765 174.432 106.909C174.809 107.912 175.161 108.922 175.492 109.941C176.194 112.1 176.767 114.297 177.263 116.511C178.247 120.913 178.9 125.378 179.253 129.873C179.279 130.215 179.479 131.311 180.015 131.153C180.548 130.997 180.573 129.739 180.55 129.36Z" fill="#1CB0A8"/>
<path d="M43.5675 119.352C48.2716 121.388 53.2641 122.49 58.3097 123.299C60.7592 123.692 63.2476 124.188 65.7283 124.305C68.131 124.419 70.384 123.77 72.6667 123.106C75.1895 122.372 77.575 121.84 80.1882 122.403C81.1237 122.604 81.2672 118.404 80.0807 118.004C77.9773 117.297 75.6603 117.805 73.5882 118.377C71.3523 118.996 69.1305 119.805 66.7886 119.889C64.311 119.978 61.8023 119.44 59.3621 119.066C56.8971 118.687 54.432 118.29 51.9918 117.777C49.1697 117.183 46.4131 116.386 43.6658 115.518C42.9314 115.284 42.6804 118.968 43.5675 119.352Z" fill="#1CB0A8"/>
<path d="M57.9105 97.7803C61.0617 101.694 64.5589 105.456 68.7204 108.324C71.9199 110.528 75.8209 111.56 79.4445 112.858C80.3925 113.198 81.342 113.537 82.2838 113.891C82.6112 114.015 82.9355 114.144 83.2614 114.272C83.4111 114.33 83.5592 114.386 83.712 114.436C83.7416 114.445 83.7713 114.451 83.8009 114.461C83.4376 114.344 84.0924 114.699 83.7167 114.434C84.3793 114.902 84.5976 113.227 84.621 112.915C84.674 112.217 84.699 110.773 84.0223 110.294C83.0462 109.605 81.6632 109.304 80.55 108.904C78.6212 108.208 76.6863 107.53 74.7529 106.845C73.1345 106.272 71.5379 105.72 70.0597 104.829C67.8348 103.488 65.8343 101.777 63.9259 100.024C62.058 98.3073 60.1729 96.5033 58.4984 94.5964C57.9947 94.0227 57.7 94.8038 57.6096 95.2763C57.4802 95.9639 57.4303 97.1847 57.9105 97.7803Z" fill="#1CB0A8"/>
<path d="M72.11 81.2639C75.0148 88.5048 78.1644 95.5679 82.4584 102.112C84.0472 104.533 85.7374 106.888 87.4837 109.198C88.0668 109.97 88.4691 108.882 88.5689 108.361C88.7326 107.497 88.7809 106.036 88.204 105.279C85.3554 101.544 82.6626 97.6822 80.2833 93.6299C78.47 90.5395 76.8936 87.3354 75.4093 84.0767C74.5798 82.2556 73.7846 80.4188 72.9863 78.5837C72.7135 77.9584 72.2769 77.9319 72.0461 78.6071C71.7764 79.3929 71.7998 80.489 72.11 81.2639Z" fill="#1CB0A8"/>
<path d="M87.9078 64.0065C88.3256 70.237 89.4373 76.3584 90.549 82.4969C91.0683 85.358 91.575 88.2207 91.9773 91.1021C92.3967 94.1082 92.6259 97.1985 92.8177 99.9162C92.8566 100.46 92.9003 102.277 93.7438 102.299C94.5468 102.319 94.5562 100.272 94.553 99.8741C94.4844 93.6326 93.1856 87.3553 92.0131 81.248C90.8827 75.3652 89.6728 69.4823 89.0585 63.5169C89.0226 63.1692 88.8885 62.1947 88.3787 62.2867C87.8969 62.374 87.8891 63.7258 87.9078 64.0065Z" fill="#1CB0A8"/>
<path d="M138.077 14.4071C138.077 14.4071 148.341 3.41011 161.538 1.2101C174.735 -0.989921 184.633 -0.623512 179.134 5.97498C179.134 5.97498 188.299 7.80859 189.398 11.8406C190.497 15.8727 182.799 15.5063 182.799 15.5063C182.799 15.5063 188.665 16.9719 188.665 21.0056C188.665 25.0376 183.532 27.2376 180.601 26.5048C180.601 26.5048 183.534 28.7048 181.7 32.3705C179.867 36.0362 166.671 33.4697 166.671 33.4697L138.077 14.4071Z" fill="black"/>
<path d="M157.88 41.9328C168.145 38.2759 173.908 28.1319 170.753 19.2755C167.598 10.4191 156.719 6.20409 146.454 9.86098C136.19 13.5179 130.426 23.6619 133.582 32.5182C136.737 41.3746 147.616 45.5896 157.88 41.9328Z" fill="#9E001F"/>
<path d="M141.264 18.6951C144.099 18.6951 146.397 16.3971 146.397 13.5623C146.397 10.7275 144.099 8.42944 141.264 8.42944C138.43 8.42944 136.132 10.7275 136.132 13.5623C136.132 16.3971 138.43 18.6951 141.264 18.6951Z" fill="#9E001F"/>
<path d="M163.626 44.3561C166.461 44.3561 168.759 42.058 168.759 39.2232C168.759 36.3885 166.461 34.0904 163.626 34.0904C160.791 34.0904 158.493 36.3885 158.493 39.2232C158.493 42.058 160.791 44.3561 163.626 44.3561Z" fill="#9E001F"/>
<path d="M148.58 15.559C148.58 15.559 142.836 20.0853 144.576 21.3031C146.316 22.5224 151.539 20.433 152.757 17.8214" stroke="black" stroke-width="1.5" stroke-miterlimit="10" stroke-linecap="round"/>
<path d="M161.114 25.8299C161.114 25.8299 157.458 29.1369 158.33 30.7039C159.2 32.2709 164.596 31.574 165.988 29.1369" stroke="black" stroke-width="1.5" stroke-miterlimit="10" stroke-linecap="round"/>
<path d="M143.162 166.565C143.162 166.565 95.3651 168.94 87.6471 158.847C79.9291 148.754 82.006 125.597 94.1786 122.629C106.351 119.66 174.333 131.239 182.645 135.098C190.957 138.957 191.848 144.004 191.552 150.831C191.255 157.659 190.363 162.112 183.239 163.002C176.114 163.893 143.162 166.565 143.162 166.565Z" fill="#1649AC"/>
<path d="M71.6154 130.643C71.6154 130.643 75.1781 133.612 73.396 141.628C71.6154 149.643 55.88 156.767 44.303 156.767C32.7261 156.767 25.8968 158.252 25.3028 152.314C25.3028 152.314 9.86523 150.83 4.81813 147.565C-0.228964 144.3 -2.60361 136.58 4.22408 133.018C11.0518 129.455 19.9579 132.127 25.8953 131.237C31.8326 130.347 31.8326 130.347 31.8326 130.347" fill="#9E001F"/>
<path d="M187.692 138.065C187.692 138.065 202.832 136.284 212.332 136.58C221.832 136.877 230.44 141.628 231.034 148.159C231.628 154.69 229.846 162.112 222.722 163.003C215.598 163.893 192.441 161.222 189.176 158.253C185.911 155.285 187.692 138.065 187.692 138.065Z" fill="#1CB0A8"/>
<path d="M219.458 164.191C221.238 156.175 218.27 137.769 218.27 137.769L218.39 137.393C225.228 139.05 230.572 143.062 231.035 148.159C231.629 154.691 229.847 162.112 222.723 163.003C221.885 163.107 220.828 163.163 219.607 163.174L219.458 164.191Z" fill="#FFFBE3"/>
<path d="M185.318 106.004C185.318 104.815 178.193 101.847 171.069 101.847" stroke="black" stroke-width="1.5" stroke-miterlimit="10" stroke-linecap="round"/>
<path d="M53.5069 144.892C53.2106 143.408 38.9596 143.408 33.6163 144.298C28.2729 145.189 24.7102 145.783 25.3043 152.314" stroke="black" stroke-width="1.5" stroke-miterlimit="10" stroke-linecap="round"/>
<path d="M35.1011 134.206C35.1011 134.206 23.2263 133.612 13.4299 135.987C5.14282 137.997 3.6538 143.192 5.72752 147.082" stroke="black" stroke-width="1.5" stroke-miterlimit="10" stroke-linecap="round"/>
<path d="M207.846 155.276C208.787 155.276 209.55 154.794 209.55 154.199C209.55 153.604 208.787 153.122 207.846 153.122C206.905 153.122 206.142 153.604 206.142 154.199C206.142 154.794 206.905 155.276 207.846 155.276Z" fill="black"/>
<path d="M192.605 149.999C192.605 149.999 210.551 151.435 216.653 150.178" stroke="black" stroke-width="1.5" stroke-miterlimit="10" stroke-linecap="round"/>
<path d="M176.262 174.278C176.262 174.278 183.511 183.388 190.947 184.891C198.382 186.394 207.979 180.549 211.213 176.283C214.447 172.017 215.108 164.874 210.734 160.423C206.361 155.972 190.452 152.696 190.452 152.696L176.262 174.278Z" fill="#1CB0A8"/>
<path d="M183.774 181.254C183.774 181.254 195.58 184.947 203.989 171.959C212.398 158.971 207.57 158.514 207.57 158.514L210.374 160.079C210.502 160.193 210.622 160.307 210.736 160.422C215.109 164.874 214.448 172.018 211.214 176.282C207.981 180.547 198.384 186.394 190.948 184.89C190.095 184.717 189.245 184.446 188.41 184.098L183.774 181.254Z" fill="#FFFBE3"/>
<path d="M176.262 174.278C176.262 174.278 183.511 183.388 190.947 184.891C198.382 186.394 207.979 180.549 211.213 176.283C214.447 172.017 215.108 164.874 210.734 160.423C206.361 155.972 190.452 152.696 190.452 152.696L176.262 174.278Z" stroke="black" stroke-width="1.5" stroke-miterlimit="10" stroke-linecap="round"/>
<path d="M192.644 181.136C192.906 180.115 191.852 172.649 196.497 167.426C201.142 162.203 208.439 160.24 208.439 160.24C208.439 160.24 211.036 161.852 203.972 171.976C197.723 180.933 192.644 181.136 192.644 181.136Z" fill="#FFFBE3"/>
<path d="M192.615 181.038C196.243 179.976 200.421 177.467 203.987 171.959C212.396 158.971 207.569 158.514 207.569 158.514" stroke="black" stroke-width="1.5" stroke-miterlimit="10" stroke-linecap="round"/>
<path d="M210.734 160.422C206.36 155.971 190.452 152.695 190.452 152.695" stroke="black" stroke-width="1.5" stroke-miterlimit="10" stroke-linecap="round"/>
<path d="M134.77 55.0161C134.77 55.0161 129.675 66.8176 132.357 77.2782" stroke="black" stroke-width="1.5" stroke-miterlimit="10" stroke-linecap="round"/>
<path d="M127.26 64.9404C128.074 64.9404 128.735 64.28 128.735 63.4654C128.735 62.6508 128.074 61.9904 127.26 61.9904C126.445 61.9904 125.785 62.6508 125.785 63.4654C125.785 64.28 126.445 64.9404 127.26 64.9404Z" fill="black"/>
<path d="M126.187 73.5237C127.002 73.5237 127.662 72.8633 127.662 72.0487C127.662 71.2341 127.002 70.5737 126.187 70.5737C125.372 70.5737 124.712 71.2341 124.712 72.0487C124.712 72.8633 125.372 73.5237 126.187 73.5237Z" fill="black"/>
<path d="M169.667 178.825C169.667 178.825 161.216 172.169 148.459 163.845C135.701 155.518 114.445 147.049 108.743 127.5C103.041 107.951 116.124 104.588 121.014 104.327C132.082 103.739 174.352 121.18 186.917 137.819C192.864 145.694 194.204 146.913 192.35 152.274C190.496 157.634 182.057 178.228 169.667 178.825Z" fill="#396AFF"/>
<path d="M148.458 163.845C135.701 155.519 114.445 147.049 108.743 127.5C106.242 118.923 107.704 113.166 110.55 109.385" stroke="black" stroke-width="1.5" stroke-miterlimit="10" stroke-linecap="round"/>
<path d="M177.005 123.816C177.005 123.816 174.333 99.7699 161.866 91.16C149.397 82.5502 139.897 86.707 140.195 89.9719C140.491 93.2369 142.273 100.066 150.289 99.1743C150.289 99.1743 142.867 99.7683 146.726 106.002C150.585 112.236 154.444 112.236 154.444 112.236C154.444 112.236 151.631 114.433 155.632 119.063C161.27 125.596 177.005 123.816 177.005 123.816Z" fill="#9E001F"/>
<path d="M159.49 100.956C159.49 100.956 157.115 99.1755 150.287 99.1755" stroke="black" stroke-width="1.5" stroke-miterlimit="10" stroke-linecap="round"/>
<path d="M167.802 110.752C167.802 110.752 158.6 107.784 154.443 112.237" stroke="black" stroke-width="1.5" stroke-miterlimit="10" stroke-linecap="round"/>
<path d="M151.941 6.06543C151.941 6.06543 157.375 7.76339 161.449 12.8573C165.524 17.9511 168.241 25.7611 172.995 27.4591C177.749 29.157 175.711 13.8754 174.693 12.8573C173.673 11.8375 151.941 6.06543 151.941 6.06543Z" fill="black"/>
<path d="M74.3296 153.968C73.3115 154.308 26.7899 166.192 26.7899 166.192L73.6514 192L98.4409 168.23L74.3296 153.968Z" fill="black"/>
<path d="M77.1876 155.658L38.5758 166.456L73.4455 183.546L95.0076 166.2L77.1876 155.658Z" fill="#FFFBE3"/>
<path d="M54.4578 167.664L72.0657 178.022" stroke="black" stroke-width="1.5" stroke-miterlimit="10" stroke-linecap="round"/>
<path d="M64.9873 165.076L77.2441 172.844" stroke="black" stroke-width="1.5" stroke-miterlimit="10" stroke-linecap="round"/>
<path d="M74.8271 162.83L81.3866 167.492" stroke="black" stroke-width="1.5" stroke-miterlimit="10" stroke-linecap="round"/>
<path d="M187.693 138.065C187.693 138.065 202.832 136.284 212.332 136.58C221.833 136.877 230.441 141.628 231.035 148.159" stroke="black" stroke-width="1.5" stroke-miterlimit="10" stroke-linecap="round"/>
</svg>
