<svg width="218" height="252" fill="none" xmlns="http://www.w3.org/2000/svg"><path d="M129.528 138.449s2.495-2.495 3.28-9.34c.784-6.774-1.783-20.607-10.125-27.809-8.343-7.201-17.684-9.126-25.456-6.987-7.772 2.139-11.836 4.492-25.455 19.038-13.619 14.546-17.113 24.457-28.949 28.735-10.41 3.779-19.965 2.282-24.172 1.069-.499-.142-.855.428-.57.785 2.21 2.994 8.271 10.624 15.83 14.474 7.985 4.065 11.051 4.849 16.542 4.492 5.49-.356 64.671.428 79.075-24.457z" fill="#FCB643"/><path d="M180.491 61.614l16.654-1.983-.588-43.87s-6.275.099-15.194 2.627c-8.919 2.529-40.373 13.707-40.373 13.707l7.078 36.447" fill="#fff"/><path d="M185.736 55.444l-26.116 5.695 3.173 9.844 4.556 6.752 6.265 3.824c2.603-4.04 8.282-12.87 10.169-15.864 1.888-2.994 1.573-8.271 1.953-10.251z" fill="#fff"/><path d="M195.74 25.247l.26-9.303c-2.097-.039-7.003.095-9.853.94-2.85.846-34.217 11.072-45.271 14.697l1.825 6.98 53.039-13.314z" fill="#1CB0A8"/><path d="M185.736 60.57l11.351-1.522-.53-43.287s-6.275.099-15.194 2.627c-8.919 2.529-40.402 14.01-40.402 14.01l6.781 35.819 29.126-6.427M190.862 26.414L142 38.79" stroke="#000" stroke-width="1.5" stroke-linecap="round" stroke-linejoin="round"/><path d="M173.4 37.728c-3.809 1.95-15.517 4.957-19.692 5.514-.816.109-2.903.484-3.708.703M171.258 45.422c-1.344.817-18.258 4.18-19.846 4.377M168.561 53.117c-2.24 0-11.978 2.572-14.135 3.117" stroke="#000" stroke-width="1.5" stroke-linecap="round" stroke-linejoin="round"/><circle r="1.19" transform="matrix(-.84214 .53927 .53926 .84214 148.707 33.224)" fill="#000"/><circle r="1.19" transform="matrix(-.84214 .53927 .53926 .84214 145.217 34.335)" fill="#000"/><path d="M185.644 61.208l-9.255.598c.075-2.097.622-2.227 1.611-6.003 1.236-4.72 2.472-9.889 5.731-9.551 3.259.337 3.111 3.874 3.111 6.571-1.124 5.62-1.198 6.588-1.198 8.385z" fill="#fff"/><path d="M176.705 63.986c1.236-4.72 2.842-16.542 7.19-17.724 3.162-.86 4.146 1.78 2.948 7.77-.719 3.593-2.396 14.971-8.983 20.36" stroke="#000" stroke-width="1.5" stroke-linecap="round" stroke-linejoin="round"/><path d="M166.108 76.312c-1.428-1.19-4.997-6.98-6.108-10.312" stroke="#000" stroke-width="1.5" stroke-linecap="round"/><path d="M139.795 194.993s5.277.57 12.407 1.354c7.202.785 14.189.999 21.391 3.708 7.202 2.71 10.909 5.063 12.05 10.696s2.496 10.909-4.635 14.973c-7.201 4.065-21.39 10.125-26.239 11.48-4.849 1.355-9.127 1.925-11.836 1.925-2.71 0-10.482 1.783-15.544 3.28-5.063 1.498-9.912 2.924-13.049 1.925-3.137-.998-5.419-.356-1.569-5.989 3.851-5.633-20.82-1.355-25.027-1.783-4.278-.356-39.217-6.987-44.28-8.913-5.062-1.925-20.82-10.695-24.313-15.758-3.494-5.062-4.635-9.483 1.354-11.836 5.99-2.353 15.188-5.062 26.24-4.635 11.052.428 93.05-.427 93.05-.427z" fill="#1CAFA1"/><path d="M51.237 208.754s30.518 3.85 40.215 6.417c9.697 2.567 22.745 8.343 22.745 8.343M164.68 211.892s-5.989 1.14-12.264 2.923c-6.203 1.783-16.685 6.417-20.607 7.772-3.85 1.355-11.052 4.492-11.052 4.492" stroke="#000" stroke-width="1.5" stroke-miterlimit="10" stroke-linecap="round" stroke-linejoin="round"/><path d="M116.479 241.981c-.356 0 5.847-7.772 7.416-11.48 1.568-3.707 3.137-6.417 3.137-6.417" stroke="#000" stroke-width="1.5" stroke-miterlimit="10" stroke-linecap="round" stroke-linejoin="round"/><path d="M120.757 227.079s-1.14-2.496-4.492-2.139c-3.28.356-7.986 3.28-13.191 5.419-5.276 2.139-17.469 7.415-19.822 8.913-2.353 1.497-4.849 5.989.57 6.203 5.42.214 22.603-2.923 27.167-5.276 2.424-1.141 9.768-13.12 9.768-13.12z" fill="#000"/><path d="M127.032 224.155s-1.141-4.848-4.635-4.634c-3.494.214-5.847.784-7.558 3.708-1.782 2.923 3.494 4.848 3.494 4.848l8.699-3.922z" fill="#000"/><path d="M100.008 238.487s.143 2.71-.071 4.493M104.286 236.776l-.713 5.704M108.636 234.708c.285.072-.784 3.78-.998 6.774" stroke="#fff" stroke-width="1.5" stroke-miterlimit="10" stroke-linecap="round"/><path d="M130.526 207.043s7.202-3.137 16.542-17.755c9.341-14.617 23.031-36.364 28.379-52.693 5.348-16.399 6.988-13.547 4.635-52.265-.428-6.63 0-9.697-4.279-9.697-4.92 0-9.697.998-9.697.998s-.356 3.922-1.925 10.41c-1.569 6.49-3.636 17.113-5.205 23.602-1.569 6.488-2.924 11.48-8.628 16.899-5.704 5.419-12.834 5.847-19.608 8.128-6.774 2.282-14.189 4.635-18.254 5.063-4.064.356-22.175-3.138-27.166-2.71-4.991.428-14.831 1.212-24.172 6.703-5.419 3.208-11.052 16.685-13.405 22.318-2.353 5.633-4.278 17.469-5.847 20.963-1.569 3.494 4.849 10.909 16.115 15.758 11.266 4.848 12.05 7.201 18.253 6.987 9.769-.285 54.262-2.709 54.262-2.709z" fill="#F35"/><path d="M60.364 203.763c.57-.214 13.619-11.48 13.619-11.48M165.464 79.197h14.332M163.325 88.894h16.899M160.83 99.803l20.178.357M159.047 108.36s6.774 1.782 11.48 2.495c4.706.713 10.482.357 10.482.357M156.694 116.702s7.772 4.492 12.264 5.989c4.492 1.569 10.268 2.924 10.268 2.924M75.551 209.966l3.066-7.201M153.058 123.333s7.201 8.699 11.266 11.765c4.064 3.137 9.697 6.774 9.697 6.774M145.428 131.462s1.355 9.34 4.278 19.251c2.639 9.056 6.418 17.47 8.129 20.964M135.375 133.244s-15.331 14.903-31.089 18.396c-15.758 3.494-38.432 3.138-49.555.428" stroke="#FFC0D1" stroke-width="1.5" stroke-miterlimit="10"/><path d="M50.096 161.195s30.09 4.278 55.545-4.635c25.455-8.913 33.798-16.542 37.292-21.177 3.494-4.634 5.633-7.558 5.633-7.558s6.773 11.48 9.697 15.544c2.923 4.064 10.125 10.268 10.125 10.268M46.745 168.967s8.128-.214 12.407.214c4.278.428 12.62 1.782 12.62 1.782M44.25 179.092s11.836-.356 16.328-.356c4.492 0 9.34 1.14 9.34 1.14M44.035 193.638s16.543-5.99 26.24-7.986" stroke="#FFC0D1" stroke-width="1.5" stroke-miterlimit="10"/><path d="M146.783 141.943s-6.774 11.052-21.961 17.897c-15.188 6.774-29.948 10.696-51.695 9.626M150.99 154.778s-9.483 8.77-22.888 16.542M154.769 164.689s-2.923 4.278-10.909 12.05c-7.986 7.772-13.405 11.266-13.405 11.266" stroke="#FFC0D1" stroke-width="1.5" stroke-miterlimit="10"/><path d="M74.767 165.758l-4.136 8.486" stroke="#000" stroke-width="1.5" stroke-miterlimit="10" stroke-linecap="round" stroke-linejoin="round"/><path d="M82.681 132.246s5.063 10.695 13.62 11.622c8.556.999 16.542-3.28 18.467-7.986 1.069-2.567 1.355-4.135 1.426-4.991 0-.428.356-.713.784-.713.285 0 .499-.214.927-.285 1.783-.214 3.565-2.71 2.71-6.774 0 0-6.774-1.925-11.837-5.847-5.062-3.85-8.128-12.264-8.128-12.264s-6.417 3.494-9.483 12.05c-3.993 10.838-8.486 15.188-8.486 15.188z" fill="#fff"/><path d="M100.864 135.669s-.785-1.355-2.353-1.284c-1.569.071-2.353 2.71-1.925 4.207.356 1.283.713 2.353 2.852 2.496 2.139.214 4.349-1.926 3.993-4.065-.357-2.139-2.567-1.354-2.567-1.354z" fill="#F35"/><path d="M92.593 131.818s2.067 6.204 12.692 6.988M96.514 127.397s0 3.138 1.569 3.851c1.569.713 1.782-.785 2.567-.499.784.285 0 2.067 1.569 2.353 1.568.285 2.495-3.138 2.495-3.138" stroke="#000" stroke-width="1.5" stroke-miterlimit="10" stroke-linecap="round" stroke-linejoin="round"/><path d="M109.491 123.904a1.213 1.213 0 100-2.426 1.213 1.213 0 000 2.426zM90.168 123.904a1.213 1.213 0 100-2.425 1.213 1.213 0 000 2.425z" fill="#000"/><path d="M130.098 206.615l11.694-35.509c.713-2.282-1.07-4.563-3.423-4.349l-69.734 6.132c-1.783.142-2.852 1.996-2.068 3.565l14.831 32.371a3.602 3.602 0 003.28 2.139l37.648.999c3.494.285 6.703-1.925 7.772-5.348z" fill="#fff"/><path d="M104.5 194.066c2.639 0 4.778-1.852 4.778-4.136s-2.139-4.135-4.778-4.135c-2.638 0-4.777 1.851-4.777 4.135s2.139 4.136 4.777 4.136z" stroke="#000" stroke-width="1.5" stroke-miterlimit="10" stroke-linecap="round" stroke-linejoin="round"/><path d="M47.386 155.134s11.48-2.353 17.113-6.203c5.633-3.851 17.256-15.33 18.254-16.685.998-1.355-8.556 1.355-9.127 1.569-.57.214-19.252 12.62-19.252 12.62l-6.988 8.699z" fill="#FCB643"/><path d="M42.68 156.132c.57 0 16.543-2.923 26.026-10.481s17.47-16.685 19.822-22.532c2.353-5.847 5.277-12.621 7.558-14.974 2.282-2.353 4.493-3.137 4.493-3.137M106.212 101.586s4.492-.571 6.773 2.139c2.282 2.709 5.277 8.913 6.418 12.05 1.14 3.137 2.923 6.631 7.415 7.772" stroke="#000" stroke-width="1.5" stroke-miterlimit="10" stroke-linecap="round" stroke-linejoin="round"/><path d="M96.728 103.511s-4.492.998-9.126 6.417c-3.138 3.708-12.407 20.036-20.037 25.812-7.63 5.775-13.619 9.911-18.824 11.266-5.276 1.354-13.048 0-13.048 0" stroke="#000" stroke-width="1.5" stroke-miterlimit="10" stroke-linecap="round" stroke-linejoin="round"/></svg>