<svg width="232" height="192" viewBox="0 0 232 192" fill="none" xmlns="http://www.w3.org/2000/svg"><path d="M33.023 129.159s2.374 0 12.468-14.547c10.095-14.548 38-58.484 69.765-64.125 31.765-5.641 64.124 8.906 76.295 34.436 12.172 25.53 15.438 48.093.595 49.281-14.844 1.189-18.109-2.968-18.109-2.968l-70.952-11.579s-5.938-13.063-3.563-27.608c0 0-15.438 19-18.703 25.53-3.264 6.53-4.156 8.016-4.156 9.202 0 1.188-4.157 3.859-9.5 5.343-5.344 1.485-29.984 3.566-34.14-2.965z" fill="#82ECB7"/><path d="M100.761 92.379c-.051-.268-.076-.538-.11-.808-.058-.458.028.568-.005-.06-.009-.19-.022-.384-.03-.576a37.062 37.062 0 01-.031-1.333 25.68 25.68 0 01.006-.62c.003-.13.002-.261.01-.39-.055.871.009-.281.014-.54.006-.282.009-.566.017-.848.003-.147.005-.295.011-.441-.035.687-.005.15 0 .01l.07-1.902c.053-1.401.126-2.803.214-4.203.188-3.017.447-6.03.771-9.034.167-1.545.351-3.087.552-4.628.097-.745.2-1.489.311-2.231l.081-.544c-.085.572-.035.226-.016.101.066-.41.131-.818.2-1.229.243-1.443.516-2.884.846-4.312.139-.596.284-1.191.446-1.78.034-.127.072-.254.106-.38.165-.592-.109.31.013-.05.142-.42.259-.839.351-1.27.21-.986.191-2.21-.252-3.139-.241-.505-.946-1.138-1.361-.373-.625 1.157-.927 2.467-1.233 3.74a60.267 60.267 0 00-.776 3.883c-.54 3.151-.956 6.326-1.267 9.508-.597 6.12-1.011 12.308-.926 18.46.03 2.163.069 4.427.557 6.543.1.432.5 1.297 1.02.783.517-.507.533-1.7.411-2.337z" fill="#1CB0A8"/><path d="M102.111 71.021c7.883-.631 15.944-.742 23.824-.045 4.244.376 8.378 1.288 12.478 2.42 5.033 1.39 9.973 3.1 14.813 5.058a176.174 176.174 0 0112.67 5.75c1.379.699 2.727 1.52 4.158 2.104.97.394 1.02-3.385.256-3.912-2.26-1.558-4.923-2.684-7.399-3.858a141.584 141.584 0 00-7.635-3.338c-4.89-1.977-9.878-3.742-14.943-5.21-4.166-1.208-8.411-2.279-12.731-2.733-4.42-.464-8.884-.526-13.327-.47-4.086.051-8.182.202-12.255.566-.923.084-.754 3.737.091 3.668zM101.581 91.791c2.414-2.052 5.693-2.438 8.749-2.54 3.725-.123 7.472-.037 11.192.151 7.567.384 15.104 1.36 22.519 2.918 4.224.887 8.373 2.013 12.517 3.209.671.193 1.075-3.823-.102-4.195-7.344-2.317-14.987-3.865-22.615-4.882-7.529-1.002-15.162-1.456-22.756-1.203-3.499.117-7.23.535-9.928 3-.536.49-.466 1.627-.386 2.276.031.242.299 1.701.81 1.266zM99.994 110.204c2.699-1.154 5.638-1.74 8.532-2.164 3.27-.48 6.588-.703 9.892-.725 3.238-.02 6.481.153 9.693.563 3.427.436 6.751 1.288 10.107 2.089l14.404 3.447c.737.177 1.099-3.893-.103-4.178-4.302-1.025-8.602-2.049-12.904-3.072-3.501-.832-6.988-1.787-10.556-2.293-6.485-.92-13.264-.972-19.738.048-3.353.528-6.67 1.386-9.75 2.841-.8.379-.497 3.837.423 3.444zM109.531 53.002c1.372-.044 2.745.08 4.119.064 1.322-.014 2.644-.013 3.967.025 2.699.075 5.387.283 8.068.575 4.489.488 8.945 1.305 13.356 2.263 9.009 1.953 17.877 4.71 26.29 8.494 5.412 2.434 10.632 5.262 15.654 8.421.678.426.834-1.267.856-1.593.042-.641.111-2.333-.575-2.755-8.615-5.32-17.897-9.552-27.517-12.697-8.394-2.744-17.124-4.754-25.89-5.864a84.494 84.494 0 00-9.118-.64 91.222 91.222 0 00-4.575.03c-1.593.05-3.137.318-4.716.491-.786.086-.676 3.21.081 3.186z" fill="#1CB0A8"/><path d="M181.938 69.302c-1.809 1.292-3.287 2.944-4.693 4.65a279.17 279.17 0 00-4.739 5.918 409.048 409.048 0 00-9.341 12.453c-.539.749-.405 2.157-.204 2.996.126.523.533 1.526 1.077.757a397.652 397.652 0 019.04-12.28 391.253 391.253 0 014.628-5.945c1.399-1.753 2.869-3.45 4.676-4.795.588-.438.48-1.786.406-2.41-.036-.301-.275-1.754-.85-1.344zM196.105 92.982c-.805-.346-1.72-.508-2.571-.686a94.814 94.814 0 00-4.948-.915c-1.688-.265-3.402-.477-5.112-.541-2.136-.08-4.249.288-6.284.93a28.28 28.28 0 00-3.542 1.395c-.593.279-1.174.576-1.746.895-.579.32-1.284.637-1.709 1.15-.495.596-.52 1.505-.46 2.24.026.33.163 1.84.75 1.744.51-.084.934-.452 1.367-.714.482-.292.971-.568 1.47-.83a26.42 26.42 0 013.215-1.439c2.071-.757 4.265-1.275 6.477-1.29 3.325-.02 6.705.55 9.974 1.097.989.165 2.084.235 3.039.544.613.195.884-3.235.08-3.58zM199.608 130.985c.881-5.209.284-10.692-1.833-15.544-1.681-3.852-4.219-7.041-7.261-9.907-.641-.603-1.301-1.2-2.013-1.72-.392-.285-.947-.72-1.461-.692-.806.044-.82 1.873-.799 2.395.022.53.091 2.315.916 2.353.07.003.272.079.07-.003.112.045.218.096.324.153.293.157.568.353.836.552.756.558 1.462 1.184 2.148 1.824 1.408 1.313 2.78 2.713 3.908 4.278 3 4.169 4.727 9.436 4.024 14.586-.094.686-.203 1.787.287 2.364.469.558.779-.195.854-.639zM180.55 129.36c-.32-5.041-.968-10.057-2.021-14.998a89.128 89.128 0 00-1.788-7.036 82.274 82.274 0 00-1.159-3.597c-.377-1.073-.697-2.514-1.4-3.416-.43-.554-.804-.139-.985.38-.296.85-.268 1.893-.061 2.757.287 1.188.865 2.315 1.296 3.459a70.618 70.618 0 011.06 3.032c.702 2.159 1.275 4.356 1.771 6.57a95.499 95.499 0 011.99 13.362c.026.342.226 1.438.762 1.28.533-.156.558-1.414.535-1.793zM43.568 119.352c4.704 2.036 9.696 3.138 14.742 3.947 2.45.393 4.938.889 7.418 1.006 2.403.114 4.656-.535 6.939-1.199 2.522-.734 4.908-1.266 7.521-.703.936.201 1.08-3.999-.107-4.399-2.104-.707-4.42-.199-6.493.373-2.236.619-4.457 1.428-6.8 1.512-2.477.089-4.986-.449-7.426-.823-2.465-.379-4.93-.776-7.37-1.289-2.822-.594-5.579-1.391-8.326-2.259-.735-.234-.986 3.45-.098 3.834zM57.91 97.78c3.152 3.914 6.649 7.676 10.81 10.544 3.2 2.204 7.1 3.236 10.725 4.534.948.34 1.897.679 2.839 1.033.327.124.651.253.977.381.15.058.298.114.451.164.03.009.06.015.089.025-.363-.117.291.238-.084-.027.662.468.88-1.207.904-1.519.053-.698.078-2.142-.599-2.621-.976-.689-2.359-.99-3.472-1.39-1.929-.696-3.864-1.374-5.797-2.059-1.618-.573-3.215-1.125-4.693-2.016-2.225-1.341-4.226-3.052-6.134-4.805-1.868-1.717-3.753-3.52-5.428-5.428-.503-.573-.798.208-.888.68-.13.688-.18 1.909.3 2.504zM72.11 81.264c2.905 7.24 6.054 14.304 10.348 20.848a130.587 130.587 0 005.026 7.086c.583.772.985-.316 1.085-.837.164-.864.212-2.325-.365-3.082-2.849-3.735-5.541-7.597-7.92-11.65-1.814-3.09-3.39-6.294-4.875-9.552-.83-1.821-1.624-3.658-2.423-5.493-.273-.626-.71-.652-.94.023-.27.786-.246 1.882.064 2.657zM87.908 64.007c.418 6.23 1.53 12.351 2.641 18.49.52 2.861 1.026 5.724 1.428 8.605.42 3.006.649 6.096.84 8.814.04.544.083 2.361.927 2.383.803.02.812-2.027.809-2.425-.069-6.241-1.367-12.519-2.54-18.626-1.13-5.883-2.34-11.766-2.955-17.731-.035-.348-.17-1.322-.68-1.23-.481.087-.489 1.439-.47 1.72z" fill="#1CB0A8"/><path d="M138.077 14.407S148.341 3.41 161.538 1.21c13.197-2.2 23.095-1.834 17.596 4.765 0 0 9.165 1.834 10.264 5.866 1.099 4.032-6.599 3.665-6.599 3.665s5.866 1.466 5.866 5.5c0 4.032-5.133 6.232-8.064 5.499 0 0 2.933 2.2 1.099 5.866-1.833 3.665-15.029 1.099-15.029 1.099l-28.594-19.063z" fill="#000"/><path d="M157.88 41.933c10.265-3.657 16.028-13.801 12.873-22.657-3.155-8.857-14.034-13.072-24.299-9.415-10.264 3.657-16.028 13.8-12.872 22.657 3.155 8.857 14.034 13.072 24.298 9.415z" fill="#9E001F"/><path d="M141.264 18.695a5.133 5.133 0 100-10.266 5.133 5.133 0 000 10.266zM163.626 44.356a5.133 5.133 0 100-10.266 5.133 5.133 0 000 10.266z" fill="#9E001F"/><path d="M148.58 15.559s-5.744 4.526-4.004 5.744c1.74 1.22 6.963-.87 8.181-3.482M161.114 25.83s-3.656 3.307-2.784 4.874c.87 1.567 6.266.87 7.658-1.567" stroke="#000" stroke-width="1.5" stroke-miterlimit="10" stroke-linecap="round"/><path d="M143.162 166.565s-47.797 2.375-55.515-7.718c-7.718-10.093-5.641-33.25 6.532-36.218 12.172-2.969 80.154 8.61 88.466 12.469 8.312 3.859 9.203 8.906 8.907 15.733-.297 6.828-1.189 11.281-8.313 12.171-7.125.891-40.077 3.563-40.077 3.563z" fill="#1649AC"/><path d="M71.615 130.643s3.563 2.969 1.781 10.985c-1.78 8.015-17.516 15.139-29.093 15.139-11.577 0-18.406 1.485-19-4.453 0 0-15.438-1.484-20.485-4.749-5.047-3.265-7.422-10.985-.594-14.547 6.828-3.563 15.734-.891 21.671-1.781l5.938-.89" fill="#9E001F"/><path d="M187.692 138.065s15.14-1.781 24.64-1.485c9.5.297 18.108 5.048 18.702 11.579.594 6.531-1.188 13.953-8.312 14.844-7.124.89-30.281-1.781-33.546-4.75-3.265-2.968-1.484-20.188-1.484-20.188z" fill="#1CB0A8"/><path d="M219.458 164.191c1.78-8.016-1.188-26.422-1.188-26.422l.12-.376c6.838 1.657 12.182 5.669 12.645 10.766.594 6.532-1.188 13.953-8.312 14.844-.838.104-1.895.16-3.116.171l-.149 1.017z" fill="#FFFBE3"/><path d="M185.318 106.004c0-1.189-7.125-4.157-14.249-4.157M53.507 144.892c-.296-1.484-14.547-1.484-19.89-.594-5.344.891-8.907 1.485-8.313 8.016M35.101 134.206s-11.875-.594-21.671 1.781c-8.287 2.01-9.776 7.205-7.702 11.095" stroke="#000" stroke-width="1.5" stroke-miterlimit="10" stroke-linecap="round"/><path d="M207.846 155.276c.941 0 1.704-.482 1.704-1.077s-.763-1.077-1.704-1.077-1.704.482-1.704 1.077.763 1.077 1.704 1.077z" fill="#000"/><path d="M192.605 149.999s17.946 1.436 24.048.179" stroke="#000" stroke-width="1.5" stroke-miterlimit="10" stroke-linecap="round"/><path d="M176.262 174.278s7.249 9.11 14.685 10.613c7.435 1.503 17.032-4.342 20.266-8.608 3.234-4.266 3.895-11.409-.479-15.86-4.373-4.451-20.282-7.727-20.282-7.727l-14.19 21.582z" fill="#1CB0A8"/><path d="M183.774 181.254s11.806 3.693 20.215-9.295 3.581-13.445 3.581-13.445l2.804 1.565c.128.114.248.228.362.343 4.373 4.452 3.712 11.596.478 15.86-3.233 4.265-12.83 10.112-20.266 8.608a13.697 13.697 0 01-2.538-.792l-4.636-2.844z" fill="#FFFBE3"/><path d="M176.262 174.278s7.249 9.11 14.685 10.613c7.435 1.503 17.032-4.342 20.266-8.608 3.234-4.266 3.895-11.409-.479-15.86-4.373-4.451-20.282-7.727-20.282-7.727l-14.19 21.582z" stroke="#000" stroke-width="1.5" stroke-miterlimit="10" stroke-linecap="round"/><path d="M192.644 181.136c.262-1.021-.792-8.487 3.853-13.71 4.645-5.223 11.942-7.186 11.942-7.186s2.597 1.612-4.467 11.736c-6.249 8.957-11.328 9.16-11.328 9.16z" fill="#FFFBE3"/><path d="M192.615 181.038c3.628-1.062 7.806-3.571 11.372-9.079 8.409-12.988 3.582-13.445 3.582-13.445M210.734 160.422c-4.374-4.451-20.282-7.727-20.282-7.727M134.77 55.016s-5.095 11.802-2.413 22.262" stroke="#000" stroke-width="1.5" stroke-miterlimit="10" stroke-linecap="round"/><path d="M127.26 64.94a1.475 1.475 0 100-2.95 1.475 1.475 0 000 2.95zM126.187 73.524a1.475 1.475 0 100-2.95 1.475 1.475 0 000 2.95z" fill="#000"/><path d="M169.667 178.825s-8.451-6.656-21.208-14.98c-12.758-8.327-34.014-16.796-39.716-36.345-5.702-19.549 7.381-22.912 12.271-23.173 11.068-.588 53.338 16.853 65.903 33.492 5.947 7.875 7.287 9.094 5.433 14.455-1.854 5.36-10.293 25.954-22.683 26.551z" fill="#396AFF"/><path d="M148.458 163.845c-12.757-8.326-34.013-16.796-39.715-36.345-2.501-8.577-1.039-14.334 1.807-18.115" stroke="#000" stroke-width="1.5" stroke-miterlimit="10" stroke-linecap="round"/><path d="M177.005 123.816s-2.672-24.046-15.139-32.656c-12.469-8.61-21.969-4.453-21.671-1.188.296 3.265 2.078 10.094 10.094 9.202 0 0-7.422.594-3.563 6.828 3.859 6.234 7.718 6.234 7.718 6.234s-2.813 2.197 1.188 6.827c5.638 6.533 21.373 4.753 21.373 4.753z" fill="#9E001F"/><path d="M159.49 100.956s-2.375-1.78-9.203-1.78M167.802 110.752s-9.202-2.968-13.359 1.485" stroke="#000" stroke-width="1.5" stroke-miterlimit="10" stroke-linecap="round"/><path d="M151.941 6.065s5.434 1.698 9.508 6.792c4.075 5.094 6.792 12.904 11.546 14.602 4.754 1.698 2.716-13.584 1.698-14.602-1.02-1.02-22.752-6.792-22.752-6.792z" fill="#000"/><path class="paper-outer" d="M74.33 153.968c-1.019.34-47.54 12.224-47.54 12.224L73.65 192l24.79-23.77-24.111-14.262z" fill="#000"/><path class="paper-inner" d="M77.188 155.658l-38.612 10.798 34.87 17.09L95.007 166.2l-17.82-10.542z" fill="#FFFBE3"/><path class="paper-outer-stroke" d="M54.458 167.664l17.608 10.358M64.987 165.076l12.257 7.768M74.827 162.83l6.56 4.662" stroke="#153456" stroke-width="1.5" stroke-miterlimit="10" stroke-linecap="round"/><path d="M187.693 138.065s15.139-1.781 24.639-1.485c9.501.297 18.109 5.048 18.703 11.579" stroke="#153456" stroke-width="1.5" stroke-miterlimit="10" stroke-linecap="round"/></svg>