<svg width="127" height="115" viewBox="0 0 127 115" xmlns="http://www.w3.org/2000/svg"><g data-name="Layer 2"><g data-name="Layer 1"><path d="M100.45 47.87L69.79 76.62a8 8 0 01-5.86 2.47 8.68 8.68 0 01-6.32-2.47L27.4 47.87a9 9 0 010-12.57c3.38-3.15 9-3.6 12.4 0l24.13 23.13L88.5 35.3c3.16-3.6 8.8-3.15 12 0a9.52 9.52 0 01-.05 12.57zM114.78 0H12.21A12 12 0 000 11.91v38.41c0 34.82 28.42 63.8 63.5 63.8 34.85 0 63.05-29 63.05-63.8V11.91A11.78 11.78 0 00114.78 0z" fill="#ef4156" fill-rule="evenodd"/><path d="M57.61 76.62a8.68 8.68 0 006.32 2.47 8 8 0 005.86-2.47l30.66-28.75a9.52 9.52 0 000-12.57c-3.15-3.15-8.79-3.6-12 0L63.93 58.43 39.8 35.3c-3.38-3.6-9-3.15-12.4 0a9 9 0 000 12.57z" fill="#fff"/></g></g></svg>