<svg width="127" height="115" viewBox="0 0 127 115" xmlns="http://www.w3.org/2000/svg">
  <defs><style>.switch{fill:#fff;}.main{fill:#ef4156;fill-rule:evenodd;}</style></defs>
  <g id="Layer_2" data-name="Layer 2"><g id="Layer_1-2" data-name="Layer 1">
    <path class="main" d="M100.45,47.87,69.79,76.62a8,8,0,0,1-5.86,2.47,8.68,8.68,0,0,1-6.32-2.47L27.4,47.87a9,9,0,0,1,0-12.57c3.38-3.15,9-3.6,12.4,0L63.93,58.43,88.5,35.3c3.16-3.6,8.8-3.15,12,0A9.52,9.52,0,0,1,100.45,47.87ZM114.78,0H12.21A12,12,0,0,0,0,11.91V50.32c0,34.82,28.42,63.8,63.5,63.8,34.85,0,63.05-29,63.05-63.8V11.91A11.78,11.78,0,0,0,114.78,0Z"/>
    <path class="switch" d="M57.61,76.62a8.68,8.68,0,0,0,6.32,2.47,8,8,0,0,0,5.86-2.47l30.66-28.75a9.52,9.52,0,0,0,0-12.57c-3.15-3.15-8.79-3.6-12,0L63.93,58.43,39.8,35.3c-3.38-3.6-9-3.15-12.4,0a9,9,0,0,0,0,12.57Z"/></g></g></svg>
