<svg width="14" height="16" viewBox="0 0 14 16" fill="none" xmlns="http://www.w3.org/2000/svg">
<path fill-rule="evenodd" clip-rule="evenodd" d="M6.18504 0.820655C6.46444 0.541247 6.91745 0.541247 7.19686 0.820655L10.0587 3.68252C10.3381 3.96193 10.3381 4.41494 10.0587 4.69435C9.77932 4.97376 9.32631 4.97376 9.04691 4.69435L7.40641 3.05386V9.19671C7.40641 9.59185 7.08609 9.91218 6.69095 9.91218C6.29581 9.91218 5.97548 9.59185 5.97548 9.19671V3.05386L4.33499 4.69435C4.05558 4.97376 3.60257 4.97376 3.32317 4.69435C3.04376 4.41494 3.04376 3.96193 3.32317 3.68252L6.18504 0.820655Z" fill="#42425a"/>
<path fill-rule="evenodd" clip-rule="evenodd" d="M0.967207 7.05031C1.36235 7.05031 1.68267 7.37063 1.68267 7.76577V12.774C1.68267 13.5643 2.32333 14.205 3.11361 14.205H10.2683C11.0586 14.205 11.6992 13.5643 11.6992 12.774V7.76577C11.6992 7.37063 12.0195 7.05031 12.4147 7.05031C12.8098 7.05031 13.1302 7.37063 13.1302 7.76577V12.774C13.1302 14.3546 11.8489 15.6359 10.2683 15.6359H3.11361C1.53304 15.6359 0.25174 14.3546 0.25174 12.774V7.76577C0.25174 7.37063 0.572065 7.05031 0.967207 7.05031Z" fill="#42425a"/>
</svg>
