<svg width="609" height="246" fill="none" xmlns="http://www.w3.org/2000/svg"><path fill="#fff" d="M0 0h609v246H0z"/><path d="M537.932 78.614v-1.16l5.113-8.09h.841v1.795h-.568l-3.863 6.114v.09h6.886v1.25h-8.409ZM543.409 81V69.364h1.341V81h-1.341Zm5.061 0v-1.023l3.841-4.204c.451-.493.822-.92 1.114-1.284.291-.368.507-.713.647-1.035.144-.325.216-.666.216-1.022 0-.41-.098-.763-.295-1.063a1.914 1.914 0 0 0-.796-.693 2.576 2.576 0 0 0-1.136-.244c-.447 0-.837.093-1.17.278-.33.182-.586.438-.767.767-.178.33-.267.716-.267 1.16h-1.341c0-.683.157-1.28.471-1.796a3.285 3.285 0 0 1 1.284-1.205 3.875 3.875 0 0 1 1.836-.431c.681 0 1.286.144 1.812.431a3.25 3.25 0 0 1 1.239 1.165c.299.489.449 1.032.449 1.63 0 .429-.078.847-.233 1.257-.152.405-.417.858-.796 1.358-.375.496-.896 1.102-1.562 1.818l-2.614 2.795v.091h5.409V81h-7.341Zm10.688.09a.985.985 0 0 1-.722-.3.983.983 0 0 1-.301-.722c0-.28.1-.52.301-.721a.984.984 0 0 1 .722-.301c.28 0 .521.1.721.3a.985.985 0 0 1 .301.722.96.96 0 0 1-.142.511c-.091.156-.214.28-.369.376a.972.972 0 0 1-.511.136Zm7.001-11.886c.477.004.955.095 1.432.273.477.178.913.474 1.307.887.394.409.71.967.949 1.676.238.708.358 1.596.358 2.664 0 1.035-.099 1.953-.296 2.756-.193.8-.473 1.474-.841 2.023a3.72 3.72 0 0 1-1.329 1.25c-.519.284-1.106.426-1.762.426-.651 0-1.233-.129-1.744-.386a3.422 3.422 0 0 1-1.25-1.085 3.78 3.78 0 0 1-.619-1.62h1.386c.125.534.373.976.744 1.324.375.345.87.517 1.483.517.898 0 1.606-.392 2.125-1.176.523-.784.784-1.892.784-3.324h-.091a3.577 3.577 0 0 1-.755.824 3.337 3.337 0 0 1-2.108.721 3.533 3.533 0 0 1-1.835-.494 3.749 3.749 0 0 1-1.33-1.37c-.329-.582-.494-1.25-.494-2 0-.711.159-1.363.477-1.954a3.695 3.695 0 0 1 1.352-1.42c.584-.352 1.269-.523 2.057-.511Zm0 1.25c-.477 0-.907.12-1.29.359-.378.234-.68.552-.903.954-.22.398-.33.84-.33 1.324 0 .485.106.926.319 1.324.215.394.509.708.88.943.375.231.801.346 1.279.346.359 0 .695-.07 1.005-.21.311-.144.582-.339.813-.585.235-.25.418-.532.551-.847.133-.318.199-.65.199-.994a2.6 2.6 0 0 0-.33-1.278 2.619 2.619 0 0 0-.897-.966 2.326 2.326 0 0 0-1.296-.37Zm12.212 8.364v-.614c0-.424.087-.812.261-1.164.178-.356.436-.64.773-.853.341-.215.754-.323 1.238-.323.493 0 .906.108 1.239.323.333.213.585.497.756.853.17.352.255.74.255 1.164v.614c0 .424-.087.815-.261 1.17a2.06 2.06 0 0 1-.761.853c-.334.212-.743.318-1.228.318-.492 0-.907-.106-1.244-.318a2.103 2.103 0 0 1-.767-.852 2.63 2.63 0 0 1-.261-1.17Zm1.159-.614v.614c0 .353.083.669.25.949.166.277.454.415.863.415.398 0 .678-.138.841-.415.167-.28.25-.596.25-.949v-.614c0-.352-.079-.666-.238-.943-.159-.28-.443-.42-.853-.42-.397 0-.683.14-.857.42a1.758 1.758 0 0 0-.256.944Zm-6.955-6.045v-.614c0-.424.087-.812.262-1.164.178-.356.435-.64.772-.853.341-.216.754-.324 1.239-.324.492 0 .905.109 1.239.324.333.212.585.497.755.853.171.352.256.74.256 1.165v.613c0 .424-.087.814-.261 1.17a2.07 2.07 0 0 1-.762.853c-.333.212-.742.318-1.227.318-.492 0-.907-.106-1.244-.318a2.103 2.103 0 0 1-.767-.853 2.617 2.617 0 0 1-.262-1.17Zm1.159-.614v.614c0 .352.084.669.25.949.167.276.455.415.864.415.398 0 .678-.138.841-.415.167-.28.25-.597.25-.949v-.614c0-.352-.08-.666-.239-.943-.159-.28-.443-.42-.852-.42-.398 0-.684.14-.858.42-.17.277-.256.591-.256.944ZM573.007 81l8-11.636h1.296l-8 11.636h-1.296Zm-137.802 60v-1.023l3.84-4.204c.451-.493.822-.921 1.114-1.284a4.75 4.75 0 0 0 .648-1.034c.144-.326.216-.667.216-1.023 0-.409-.099-.763-.296-1.063a1.917 1.917 0 0 0-.795-.693 2.578 2.578 0 0 0-1.137-.244c-.447 0-.837.093-1.17.278a1.92 1.92 0 0 0-.767.767c-.178.33-.267.716-.267 1.159h-1.341c0-.681.157-1.28.472-1.795a3.275 3.275 0 0 1 1.284-1.205c.545-.288 1.157-.431 1.835-.431.682 0 1.286.143 1.812.431.527.288.94.676 1.239 1.165.299.489.449 1.032.449 1.631 0 .428-.078.846-.233 1.256-.152.405-.417.857-.796 1.357-.374.497-.895 1.103-1.562 1.819l-2.614 2.795v.091h5.409V141h-7.34Zm13.414.159c-.78 0-1.469-.138-2.068-.415-.595-.28-1.059-.664-1.392-1.153a2.9 2.9 0 0 1-.494-1.682 3.094 3.094 0 0 1 1.096-2.415c.345-.284.73-.464 1.154-.539v-.069c-.557-.144-1-.456-1.33-.937a2.843 2.843 0 0 1-.488-1.654 2.808 2.808 0 0 1 .448-1.585c.303-.466.72-.833 1.25-1.102.535-.269 1.143-.403 1.824-.403.675 0 1.277.134 1.807.403s.947.636 1.25 1.102c.307.466.462.995.466 1.585a2.88 2.88 0 0 1-.506 1.654 2.242 2.242 0 0 1-1.312.937v.069c.42.075.799.255 1.136.539.337.281.606.631.807 1.051.201.417.303.872.307 1.364a2.936 2.936 0 0 1-.512 1.682c-.333.489-.797.873-1.392 1.153-.59.277-1.274.415-2.051.415Zm0-1.25c.527 0 .981-.085 1.364-.256.383-.17.678-.411.886-.721.209-.311.315-.674.319-1.091a2.1 2.1 0 0 0-.341-1.165 2.318 2.318 0 0 0-.915-.795 2.864 2.864 0 0 0-1.313-.29c-.496 0-.939.096-1.329.29a2.304 2.304 0 0 0-.915.795 2.05 2.05 0 0 0-.324 1.165c-.004.417.097.78.301 1.091.209.31.506.551.892.721.387.171.845.256 1.375.256Zm0-5.523c.417 0 .786-.083 1.108-.25.326-.166.582-.399.767-.698.186-.3.281-.65.284-1.052a1.93 1.93 0 0 0-.278-1.028 1.804 1.804 0 0 0-.756-.682c-.322-.163-.697-.244-1.125-.244-.435 0-.816.081-1.142.244a1.76 1.76 0 0 0-.755.682 1.896 1.896 0 0 0-.262 1.028c-.004.402.085.752.267 1.052.186.299.442.532.767.698.326.167.701.25 1.125.25Zm6.773 6.705c-.28 0-.521-.1-.722-.301a.989.989 0 0 1-.301-.722c0-.28.101-.521.301-.721a.986.986 0 0 1 .722-.302c.28 0 .521.101.722.302.2.2.301.441.301.721a.973.973 0 0 1-.142.512c-.091.155-.214.28-.37.375a.981.981 0 0 1-.511.136Zm6.864.068a4.318 4.318 0 0 1-1.432-.273 3.426 3.426 0 0 1-1.307-.88c-.394-.417-.71-.979-.949-1.688-.238-.712-.358-1.606-.358-2.682 0-1.03.097-1.943.29-2.738.193-.8.473-1.472.841-2.017.367-.55.811-.966 1.329-1.25.523-.284 1.112-.426 1.768-.426.651 0 1.231.13 1.738.392.512.257.928.617 1.25 1.079.322.462.53.994.625 1.597h-1.386a2.569 2.569 0 0 0-.75-1.301c-.371-.345-.864-.517-1.477-.517-.902 0-1.612.392-2.131 1.176-.515.784-.775 1.884-.779 3.301h.091a3.407 3.407 0 0 1 2.864-1.546c.667 0 1.276.167 1.829.5.554.33.997.786 1.33 1.37.333.579.5 1.244.5 1.994 0 .72-.161 1.379-.483 1.977a3.685 3.685 0 0 1-1.358 1.421c-.579.348-1.261.519-2.045.511Zm0-1.25c.477 0 .905-.119 1.284-.358.382-.239.683-.559.903-.96.224-.402.335-.849.335-1.341a2.69 2.69 0 0 0-.323-1.312 2.47 2.47 0 0 0-.881-.949 2.33 2.33 0 0 0-1.273-.353c-.36 0-.695.072-1.006.216-.31.14-.583.334-.818.58a2.785 2.785 0 0 0-.545.846 2.69 2.69 0 0 0 1.023 3.262c.382.246.816.369 1.301.369Zm12.052-1.091v-.613c0-.425.087-.813.262-1.165.178-.356.435-.64.772-.852.341-.216.754-.324 1.239-.324.492 0 .905.108 1.239.324.333.212.585.496.755.852.171.352.256.74.256 1.165v.613c0 .424-.087.815-.261 1.171a2.071 2.071 0 0 1-.762.852c-.333.212-.742.318-1.227.318-.492 0-.907-.106-1.244-.318a2.105 2.105 0 0 1-.767-.852 2.62 2.62 0 0 1-.262-1.171Zm1.159-.613v.613c0 .352.084.669.25.949.167.277.455.415.864.415.398 0 .678-.138.841-.415.167-.28.25-.597.25-.949v-.613c0-.353-.08-.667-.239-.944-.159-.28-.443-.42-.852-.42-.398 0-.684.14-.858.42-.17.277-.256.591-.256.944Zm-6.954-6.046v-.614c0-.424.087-.812.261-1.164.178-.356.436-.64.773-.853.341-.216.754-.323 1.239-.323.492 0 .905.107 1.238.323.333.213.585.497.756.853.17.352.256.74.256 1.164v.614c0 .424-.088.814-.262 1.171-.17.352-.424.636-.761.852-.334.212-.743.318-1.227.318-.493 0-.908-.106-1.245-.318a2.105 2.105 0 0 1-.767-.852 2.636 2.636 0 0 1-.261-1.171Zm1.159-.614v.614c0 .352.083.669.25.949.167.276.454.415.864.415.397 0 .678-.139.84-.415.167-.28.25-.597.25-.949v-.614c0-.352-.079-.666-.238-.943-.159-.28-.443-.42-.852-.42-.398 0-.684.14-.858.42a1.757 1.757 0 0 0-.256.943Zm-.727 9.455 8-11.636h1.295l-8 11.636h-1.295Z" fill="#7542E5"/><path d="M357.159 37V25.364h1.409v5.181h6.205v-5.181h1.409V37h-1.409v-5.204h-6.205V37h-1.409Zm11.662 0v-8.727h1.341V37h-1.341Zm.682-10.182a.951.951 0 0 1-.676-.267.857.857 0 0 1-.279-.642c0-.25.093-.464.279-.642a.951.951 0 0 1 .676-.267c.261 0 .485.089.67.267.19.178.284.392.284.642s-.094.464-.284.642a.932.932 0 0 1-.67.267ZM372.618 37v-8.727h1.295v1.318h.091c.159-.432.447-.782.864-1.051a2.541 2.541 0 0 1 1.409-.404c.098 0 .222.002.369.006.148.004.26.01.336.017v1.364a4.073 4.073 0 0 0-.313-.051 3.08 3.08 0 0 0-.506-.04c-.424 0-.803.089-1.136.267a2.01 2.01 0 0 0-.784.727 1.964 1.964 0 0 0-.284 1.051V37h-1.341Zm5.953 0v-8.727h1.341V37h-1.341Zm.682-10.182a.951.951 0 0 1-.676-.267.857.857 0 0 1-.279-.642c0-.25.093-.464.279-.642a.951.951 0 0 1 .676-.267c.261 0 .485.089.67.267.19.178.284.392.284.642s-.094.464-.284.642a.932.932 0 0 1-.67.267Zm4.456 4.932V37h-1.341v-8.727h1.295v1.363h.114c.205-.443.515-.799.932-1.068.416-.273.954-.409 1.613-.409.591 0 1.108.121 1.552.364.443.238.787.602 1.034 1.09.246.486.369 1.1.369 1.841V37h-1.341v-5.454c0-.686-.178-1.22-.534-1.603-.356-.386-.845-.58-1.466-.58a2.34 2.34 0 0 0-1.148.279 1.992 1.992 0 0 0-.789.813c-.194.356-.29.787-.29 1.295Zm11.541 8.705c-.648 0-1.205-.084-1.67-.25a3.536 3.536 0 0 1-1.165-.648 3.542 3.542 0 0 1-.733-.852l1.068-.75c.121.159.275.34.46.545.186.208.44.388.762.54.325.155.751.233 1.278.233.705 0 1.286-.17 1.744-.512.459-.34.688-.875.688-1.602v-1.773h-.114c-.098.16-.238.356-.42.591-.178.231-.436.438-.773.62-.333.178-.784.267-1.352.267a3.646 3.646 0 0 1-1.898-.5c-.557-.334-.998-.819-1.324-1.455-.322-.636-.483-1.409-.483-2.318 0-.894.157-1.672.472-2.335.314-.667.752-1.182 1.312-1.546.561-.367 1.209-.55 1.943-.55.569 0 1.019.094 1.353.283.337.186.594.398.772.636.182.235.322.429.421.58h.136v-1.386h1.296v8.977c0 .75-.171 1.36-.512 1.83a2.91 2.91 0 0 1-1.363 1.04 5.155 5.155 0 0 1-1.898.335Zm-.045-4.796c.537 0 .992-.123 1.363-.37.371-.245.654-.6.847-1.062.193-.462.29-1.015.29-1.659 0-.629-.095-1.183-.285-1.665-.189-.48-.469-.857-.84-1.13-.372-.273-.83-.41-1.375-.41-.569 0-1.042.145-1.421.433a2.625 2.625 0 0 0-.846 1.159 4.473 4.473 0 0 0-.279 1.613c0 .606.095 1.142.284 1.608.193.462.477.826.852 1.091.379.261.849.392 1.41.392Z" fill="#000"/><path d="M337.295 189.364V201h-1.409v-10.159h-.068l-2.841 1.886v-1.432l2.909-1.931h1.409Zm3.074 9.25v-1.159l5.114-8.091h.841v1.795h-.568l-3.864 6.114v.091h6.886v1.25h-8.409Zm5.478 2.386v-11.636h1.341V201h-1.341Zm5.514.091a.983.983 0 0 1-.722-.301.985.985 0 0 1-.301-.722c0-.28.1-.521.301-.721a.984.984 0 0 1 .722-.302c.28 0 .521.101.721.302.201.2.302.441.302.721a.965.965 0 0 1-.143.512 1.06 1.06 0 0 1-.369.375.981.981 0 0 1-.511.136Zm6.9.068c-.75 0-1.418-.129-2.005-.386-.584-.258-1.048-.616-1.392-1.074a2.883 2.883 0 0 1-.557-1.608h1.432c.03.375.159.699.386.971.227.269.525.478.892.626.367.147.775.221 1.222.221.5 0 .943-.087 1.329-.261.387-.175.69-.417.909-.728.22-.31.33-.67.33-1.079 0-.428-.106-.805-.318-1.131-.212-.329-.523-.587-.932-.772-.409-.186-.909-.279-1.5-.279h-.932v-1.25h.932c.462 0 .867-.083 1.216-.25.352-.167.627-.401.824-.704.2-.303.301-.66.301-1.069a1.96 1.96 0 0 0-.262-1.028 1.785 1.785 0 0 0-.738-.682c-.315-.163-.686-.244-1.114-.244-.401 0-.78.074-1.136.221-.353.144-.64.355-.864.631a1.646 1.646 0 0 0-.364.989h-1.363c.023-.61.206-1.144.551-1.603a3.464 3.464 0 0 1 1.352-1.079 4.364 4.364 0 0 1 1.847-.386c.72 0 1.337.145 1.852.437a3.09 3.09 0 0 1 1.188 1.142c.276.474.414.985.414 1.534 0 .655-.172 1.214-.517 1.676a2.623 2.623 0 0 1-1.392.961v.09c.735.122 1.309.434 1.722.938.413.5.619 1.119.619 1.858 0 .632-.172 1.201-.517 1.704-.341.5-.807.894-1.398 1.182-.59.288-1.263.432-2.017.432Zm12.188-2.341v-.613c0-.425.087-.813.261-1.165.178-.356.436-.64.773-.852.341-.216.754-.324 1.239-.324.492 0 .905.108 1.238.324.334.212.585.496.756.852.17.352.256.74.256 1.165v.613c0 .424-.088.815-.262 1.171-.17.352-.424.636-.761.852-.333.212-.743.318-1.227.318-.493 0-.908-.106-1.245-.318a2.105 2.105 0 0 1-.767-.852 2.633 2.633 0 0 1-.261-1.171Zm1.159-.613v.613c0 .352.083.669.25.949.167.277.455.415.864.415.397 0 .678-.138.84-.415.167-.28.25-.597.25-.949v-.613a1.86 1.86 0 0 0-.238-.944c-.159-.28-.443-.42-.852-.42-.398 0-.684.14-.858.42a1.758 1.758 0 0 0-.256.944Zm-6.955-6.046v-.614c0-.424.088-.812.262-1.164.178-.356.435-.64.773-.853.34-.216.753-.323 1.238-.323.493 0 .905.107 1.239.323.333.213.585.497.755.853.171.352.256.74.256 1.164v.614c0 .424-.087.814-.261 1.171a2.065 2.065 0 0 1-.762.852c-.333.212-.742.318-1.227.318-.492 0-.907-.106-1.244-.318a2.105 2.105 0 0 1-.767-.852 2.636 2.636 0 0 1-.262-1.171Zm1.159-.614v.614c0 .352.084.669.25.949.167.276.455.415.864.415.398 0 .678-.139.841-.415.167-.28.25-.597.25-.949v-.614a1.85 1.85 0 0 0-.239-.943c-.159-.28-.443-.42-.852-.42-.398 0-.684.14-.858.42-.17.277-.256.591-.256.943Zm-.727 9.455 8-11.636h1.296l-8 11.636h-1.296ZM224 48h307v53H224zm0 60h204v53H224zm0 60h102v53H224z" fill="#7542E5"/><path d="M224 48v173" stroke="#CCD6EB"/><path d="m176.054 81-3.182-11.636h1.432l2.432 9.477h.113l2.478-9.477h1.591l2.477 9.477h.114l2.431-9.477h1.432L184.19 81h-1.454l-2.568-9.273h-.091L177.509 81h-1.455Zm14.233-5.25V81h-1.341V69.364h1.341v4.272h.114c.204-.45.511-.808.92-1.073.413-.27.962-.404 1.648-.404.594 0 1.115.12 1.562.358a2.41 2.41 0 0 1 1.04 1.085c.25.485.375 1.102.375 1.852V81h-1.341v-5.454c0-.694-.18-1.23-.54-1.609-.356-.382-.85-.573-1.483-.573-.439 0-.833.092-1.181.278a2.037 2.037 0 0 0-.819.813c-.197.356-.295.787-.295 1.295Zm8.112 5.25v-8.727h1.341V81h-1.341Zm.682-10.182a.953.953 0 0 1-.676-.267.857.857 0 0 1-.279-.642c0-.25.093-.464.279-.642a.953.953 0 0 1 .676-.267c.261 0 .485.089.67.267.19.178.285.392.285.642s-.095.464-.285.642a.932.932 0 0 1-.67.267Zm6.91 1.455v1.136h-4.522v-1.136h4.522Zm-3.204-2.091h1.341V78.5c0 .379.055.663.165.852a.85.85 0 0 0 .431.375c.178.06.366.091.563.091.148 0 .269-.007.364-.022l.227-.046.273 1.204a2.733 2.733 0 0 1-.381.103 2.8 2.8 0 0 1-.619.057 2.7 2.7 0 0 1-1.114-.245 2.215 2.215 0 0 1-.898-.744c-.235-.333-.352-.754-.352-1.261v-8.682Zm8.787 11c-.841 0-1.566-.186-2.176-.557a3.742 3.742 0 0 1-1.404-1.568c-.325-.674-.488-1.459-.488-2.353 0-.893.163-1.681.488-2.363.33-.686.788-1.22 1.375-1.602.591-.387 1.281-.58 2.069-.58.454 0 .903.076 1.346.227.443.152.847.398 1.21.739.364.337.654.784.87 1.34.216.558.324 1.243.324 2.058v.568h-6.728v-1.16h5.364c0-.492-.099-.931-.296-1.317a2.223 2.223 0 0 0-.829-.915c-.356-.224-.777-.335-1.261-.335-.535 0-.997.132-1.387.397a2.615 2.615 0 0 0-.892 1.023c-.208.42-.312.871-.312 1.352v.773c0 .66.113 1.218.341 1.676.231.455.551.801.96 1.04.409.235.884.352 1.426.352.352 0 .67-.049.954-.148.288-.102.536-.253.745-.454.208-.204.369-.458.483-.761l1.295.363a2.87 2.87 0 0 1-.687 1.16 3.35 3.35 0 0 1-1.194.772 4.42 4.42 0 0 1-1.596.273ZM176.543 201h-1.478l4.273-11.636h1.455L185.065 201h-1.477l-3.477-9.795h-.091L176.543 201Zm.545-4.545h5.955v1.25h-5.955v-1.25Zm15.79-2.228-1.205.341a2.197 2.197 0 0 0-.335-.585 1.63 1.63 0 0 0-.591-.477c-.25-.125-.57-.188-.96-.188-.534 0-.979.123-1.335.37-.353.242-.529.551-.529.926 0 .333.122.596.364.789.242.194.621.355 1.136.483l1.296.319c.78.189 1.361.479 1.744.869.383.386.574.884.574 1.494 0 .5-.144.947-.432 1.341-.284.394-.682.705-1.193.932-.511.227-1.106.341-1.784.341-.89 0-1.627-.193-2.21-.58-.584-.386-.953-.95-1.108-1.693l1.272-.318c.122.47.351.822.688 1.057.341.235.786.352 1.335.352.625 0 1.121-.133 1.489-.398.371-.269.557-.591.557-.966 0-.303-.106-.556-.319-.761-.212-.208-.537-.364-.977-.466l-1.454-.341c-.8-.189-1.387-.483-1.762-.88-.371-.402-.557-.904-.557-1.506 0-.493.139-.928.415-1.307a2.82 2.82 0 0 1 1.142-.892c.485-.216 1.034-.324 1.648-.324.864 0 1.542.189 2.034.568.496.379.849.879 1.057 1.5Zm2.177 6.773v-8.727h1.341V201h-1.341Zm.682-10.182a.953.953 0 0 1-.676-.267.856.856 0 0 1-.278-.642c0-.25.092-.464.278-.642a.953.953 0 0 1 .676-.267c.262 0 .485.089.671.267a.851.851 0 0 1 .284.642c0 .25-.095.464-.284.642a.935.935 0 0 1-.671.267Zm5.683 10.387a3.55 3.55 0 0 1-1.505-.313 2.58 2.58 0 0 1-1.074-.915c-.265-.401-.398-.886-.398-1.454 0-.5.099-.906.296-1.216.197-.315.46-.561.789-.739a4.2 4.2 0 0 1 1.091-.398c.402-.09.805-.162 1.211-.215.53-.069.96-.12 1.289-.154.334-.038.576-.1.728-.187.155-.087.233-.239.233-.455v-.045c0-.561-.154-.997-.461-1.307-.303-.311-.763-.466-1.38-.466-.641 0-1.142.14-1.506.42-.364.281-.619.58-.767.898l-1.273-.454c.227-.531.53-.944.909-1.239.383-.299.8-.508 1.25-.625a5.205 5.205 0 0 1 1.341-.182c.28 0 .602.034.966.102.368.065.722.199 1.063.404.344.204.63.513.858.926.227.413.34.966.34 1.659V201h-1.34v-1.182h-.069c-.091.19-.242.392-.454.608-.212.216-.494.4-.847.551-.352.152-.782.228-1.29.228Zm.205-1.205c.53 0 .977-.104 1.341-.312a2.133 2.133 0 0 0 1.114-1.847v-1.227c-.057.068-.182.13-.375.187-.19.053-.41.101-.66.142a27.7 27.7 0 0 1-.721.102c-.231.027-.419.05-.563.069a5.114 5.114 0 0 0-.977.221 1.684 1.684 0 0 0-.727.449c-.182.197-.273.466-.273.807 0 .466.172.818.517 1.057.349.235.79.352 1.324.352Zm7.584-4.25V201h-1.341v-8.727h1.295v1.363h.114c.205-.443.515-.799.932-1.068.416-.273.954-.409 1.613-.409.591 0 1.108.121 1.552.364.443.238.787.602 1.034 1.091.246.484.369 1.098.369 1.841V201h-1.341v-5.455c0-.685-.178-1.219-.534-1.602-.356-.386-.845-.579-1.466-.579-.428 0-.811.092-1.148.278a1.99 1.99 0 0 0-.789.813c-.194.356-.29.787-.29 1.295ZM22.815 141v-11.636h4.069c.81 0 1.479.14 2.005.42.527.277.919.65 1.176 1.119.258.466.387.983.387 1.552 0 .5-.09.912-.267 1.238a2.074 2.074 0 0 1-.694.773 3.166 3.166 0 0 1-.926.42V135c.356.023.714.148 1.074.375.36.227.661.553.904.977.242.425.363.943.363 1.557 0 .583-.132 1.108-.397 1.574-.266.466-.684.835-1.256 1.108-.572.273-1.316.409-2.233.409h-4.205Zm1.41-1.25h2.795c.92 0 1.574-.178 1.96-.534.39-.36.585-.796.585-1.307 0-.394-.1-.757-.3-1.091a2.182 2.182 0 0 0-.859-.807c-.371-.204-.81-.306-1.318-.306h-2.864v4.045Zm0-5.273h2.613c.424 0 .807-.083 1.148-.25a2 2 0 0 0 .818-.704 1.86 1.86 0 0 0 .307-1.068c0-.512-.178-.946-.534-1.302-.356-.359-.92-.539-1.694-.539h-2.659v3.863Zm10.156-5.113V141H33.04v-11.636h1.34Zm5.024 11.841a3.552 3.552 0 0 1-1.506-.313 2.581 2.581 0 0 1-1.074-.915c-.265-.401-.397-.886-.397-1.454 0-.5.098-.906.295-1.216.197-.315.46-.561.79-.739.33-.178.693-.31 1.09-.398.402-.09.806-.162 1.21-.215.531-.069.961-.12 1.29-.154.334-.038.576-.1.728-.187.155-.087.233-.239.233-.455v-.045c0-.561-.154-.997-.46-1.307-.303-.311-.764-.466-1.381-.466-.64 0-1.142.14-1.506.42-.363.281-.619.58-.767.898l-1.272-.454c.227-.531.53-.944.909-1.239a3.398 3.398 0 0 1 1.25-.625 5.2 5.2 0 0 1 1.34-.182c.28 0 .603.034.967.102.367.065.721.199 1.062.404.345.204.63.513.858.926.227.413.34.966.34 1.659V141h-1.34v-1.182h-.068a2.36 2.36 0 0 1-.455.608c-.212.216-.494.4-.846.551-.353.152-.783.228-1.29.228Zm.204-1.205c.53 0 .978-.104 1.341-.312.368-.209.644-.478.83-.807.19-.33.284-.676.284-1.04v-1.227c-.057.068-.182.13-.375.187-.19.053-.41.101-.66.142-.245.038-.486.072-.72.102-.232.027-.42.05-.563.069a5.109 5.109 0 0 0-.977.221c-.3.099-.542.248-.728.449-.182.197-.272.466-.272.807 0 .466.172.818.517 1.057.348.235.79.352 1.323.352Zm9.789 1.182c-.819 0-1.523-.193-2.114-.58a3.773 3.773 0 0 1-1.364-1.596c-.318-.678-.477-1.453-.477-2.324 0-.887.163-1.669.489-2.347.33-.682.788-1.214 1.375-1.596.59-.387 1.28-.58 2.068-.58.614 0 1.167.114 1.66.341.492.227.895.545 1.21.955.314.409.509.886.585 1.431h-1.341c-.103-.397-.33-.75-.682-1.056-.349-.311-.818-.466-1.41-.466-.522 0-.98.136-1.374.409-.39.269-.695.649-.915 1.142-.216.488-.324 1.062-.324 1.721 0 .675.106 1.262.318 1.762.216.5.52.888.91 1.164.393.277.855.415 1.386.415.348 0 .664-.06.949-.182.284-.121.524-.295.721-.522.197-.228.337-.5.42-.818h1.342a3.106 3.106 0 0 1-.563 1.392 3.149 3.149 0 0 1-1.176.977c-.485.238-1.05.358-1.693.358Zm6.642-3.364-.023-1.659h.273l3.818-3.886h1.659l-4.068 4.113h-.114l-1.545 1.432ZM54.79 141v-11.636h1.34V141h-1.34Zm5.545 0-3.409-4.318.955-.932L62.04 141h-1.705Zm11.203.182c-.787 0-1.479-.188-2.073-.563-.591-.375-1.053-.899-1.387-1.574-.33-.674-.494-1.462-.494-2.363 0-.909.165-1.703.494-2.381.334-.678.796-1.204 1.386-1.579.595-.375 1.287-.563 2.074-.563.788 0 1.478.188 2.069.563.594.375 1.056.901 1.386 1.579.333.678.5 1.472.5 2.381 0 .901-.167 1.689-.5 2.363a3.765 3.765 0 0 1-1.386 1.574c-.591.375-1.28.563-2.069.563Zm0-1.205c.599 0 1.091-.153 1.478-.46a2.72 2.72 0 0 0 .858-1.21c.185-.5.278-1.042.278-1.625a4.68 4.68 0 0 0-.278-1.631 2.742 2.742 0 0 0-.858-1.221c-.387-.311-.88-.466-1.478-.466s-1.09.155-1.477.466c-.386.31-.672.717-.858 1.221a4.68 4.68 0 0 0-.278 1.631c0 .583.093 1.125.278 1.625.186.5.472.903.858 1.21.386.307.879.46 1.477.46ZM77.54 141v-8.727h1.295v1.318h.091c.16-.432.447-.782.864-1.051a2.542 2.542 0 0 1 1.409-.404c.098 0 .222.002.37.006.147.004.259.01.334.017v1.364a3.406 3.406 0 0 0-.312-.051 3.022 3.022 0 0 0-.506-.04c-.424 0-.803.089-1.136.267-.33.174-.591.417-.784.727a1.96 1.96 0 0 0-.284 1.051V141H77.54Zm11.112 0h-1.477l4.272-11.636h1.455L97.175 141h-1.478l-3.477-9.795h-.09L88.651 141Zm.545-4.545h5.955v1.25h-5.955v-1.25Zm13.495-4.182v1.136h-4.705v-1.136h4.705ZM99.396 141v-9.932c0-.5.118-.916.353-1.25a2.18 2.18 0 0 1 .914-.75c.375-.166.771-.25 1.188-.25.329 0 .598.027.807.08.208.053.363.102.466.147l-.387 1.16a5.962 5.962 0 0 0-.284-.086 1.726 1.726 0 0 0-.466-.051c-.443 0-.763.112-.96.335-.193.224-.29.552-.29.983V141h-1.34Zm5.175 0v-8.727h1.295v1.318h.091c.159-.432.447-.782.864-1.051a2.542 2.542 0 0 1 1.409-.404c.099 0 .222.002.369.006.148.004.26.01.336.017v1.364a3.462 3.462 0 0 0-.313-.051 3.017 3.017 0 0 0-.506-.04c-.424 0-.803.089-1.136.267a2.019 2.019 0 0 0-.784.727 1.963 1.963 0 0 0-.284 1.051V141h-1.341Zm5.953 0v-8.727h1.341V141h-1.341Zm.682-10.182a.953.953 0 0 1-.676-.267.857.857 0 0 1-.279-.642c0-.25.093-.464.279-.642a.953.953 0 0 1 .676-.267c.261 0 .485.089.67.267.19.178.285.392.285.642s-.095.464-.285.642a.932.932 0 0 1-.67.267Zm6.66 10.364c-.818 0-1.522-.193-2.113-.58a3.772 3.772 0 0 1-1.364-1.596c-.318-.678-.477-1.453-.477-2.324 0-.887.163-1.669.489-2.347.329-.682.787-1.214 1.375-1.596.59-.387 1.28-.58 2.068-.58.613 0 1.166.114 1.659.341.492.227.896.545 1.21.955.314.409.51.886.585 1.431h-1.341c-.102-.397-.329-.75-.681-1.056-.349-.311-.819-.466-1.41-.466-.522 0-.981.136-1.375.409-.39.269-.695.649-.914 1.142-.216.488-.324 1.062-.324 1.721 0 .675.106 1.262.318 1.762.216.5.519.888.909 1.164.394.277.856.415 1.386.415.349 0 .665-.06.949-.182.284-.121.525-.295.722-.522.197-.228.337-.5.42-.818h1.341a3.1 3.1 0 0 1-.562 1.392 3.158 3.158 0 0 1-1.176.977c-.485.238-1.05.358-1.694.358Zm7.961.023a3.554 3.554 0 0 1-1.506-.313 2.58 2.58 0 0 1-1.074-.915c-.265-.401-.398-.886-.398-1.454 0-.5.099-.906.296-1.216.197-.315.46-.561.79-.739.329-.178.693-.31 1.091-.398.401-.09.804-.162 1.21-.215.53-.069.96-.12 1.29-.154.333-.038.575-.1.727-.187.155-.087.233-.239.233-.455v-.045c0-.561-.154-.997-.46-1.307-.303-.311-.764-.466-1.381-.466-.64 0-1.142.14-1.506.42-.363.281-.619.58-.767.898l-1.273-.454c.228-.531.531-.944.91-1.239a3.398 3.398 0 0 1 1.25-.625 5.192 5.192 0 0 1 1.34-.182c.281 0 .603.034.966.102.368.065.722.199 1.063.404.345.204.631.513.858.926.227.413.341.966.341 1.659V141h-1.341v-1.182h-.068a2.36 2.36 0 0 1-.455.608c-.212.216-.494.4-.847.551-.352.152-.782.228-1.289.228Zm.204-1.205c.531 0 .978-.104 1.341-.312.368-.209.644-.478.83-.807.189-.33.284-.676.284-1.04v-1.227c-.057.068-.182.13-.375.187-.19.053-.409.101-.659.142-.247.038-.487.072-.722.102-.231.027-.418.05-.562.069a5.107 5.107 0 0 0-.978.221 1.69 1.69 0 0 0-.727.449c-.182.197-.273.466-.273.807 0 .466.173.818.517 1.057.349.235.79.352 1.324.352Zm7.584-4.25V141h-1.341v-8.727h1.296v1.363h.113c.205-.443.515-.799.932-1.068.417-.273.955-.409 1.614-.409.591 0 1.108.121 1.551.364.443.238.788.602 1.034 1.091.246.484.369 1.098.369 1.841V141h-1.341v-5.455c0-.685-.178-1.219-.534-1.602-.356-.386-.844-.579-1.466-.579-.428 0-.81.092-1.147.278a1.985 1.985 0 0 0-.79.813c-.193.356-.29.787-.29 1.295Zm13.178 5.25h-1.478l4.273-11.636h1.455L155.315 141h-1.477l-3.477-9.795h-.091L146.793 141Zm.545-4.545h5.955v1.25h-5.955v-1.25Zm9.608 4.545v-8.727h1.295v1.363h.114c.182-.466.475-.827.881-1.085.405-.261.892-.392 1.46-.392.576 0 1.055.131 1.438.392.386.258.687.619.903 1.085h.091a2.55 2.55 0 0 1 1.006-1.074c.446-.268.982-.403 1.607-.403.781 0 1.419.244 1.915.733.496.485.745 1.241.745 2.267V141h-1.341v-5.841c0-.644-.176-1.104-.529-1.381a1.957 1.957 0 0 0-1.244-.414c-.614 0-1.089.185-1.426.556-.337.368-.506.834-.506 1.398V141h-1.364v-5.977c0-.496-.161-.896-.482-1.199-.322-.307-.737-.46-1.245-.46-.348 0-.674.092-.977.278a2.1 2.1 0 0 0-.727.773 2.277 2.277 0 0 0-.273 1.13V141h-1.341Zm17.565.182c-.841 0-1.566-.186-2.176-.557a3.736 3.736 0 0 1-1.403-1.568c-.326-.674-.489-1.459-.489-2.352 0-.894.163-1.682.489-2.364.329-.686.788-1.22 1.375-1.602.591-.387 1.28-.58 2.068-.58.455 0 .903.076 1.347.227.443.152.846.398 1.21.739.363.337.653.784.869 1.341.216.557.324 1.242.324 2.057v.568h-6.727v-1.159h5.363c0-.493-.098-.932-.295-1.318a2.219 2.219 0 0 0-.83-.915c-.356-.224-.776-.335-1.261-.335-.534 0-.996.132-1.386.397a2.617 2.617 0 0 0-.892 1.023 2.997 2.997 0 0 0-.313 1.352v.773c0 .659.114 1.218.341 1.676.231.455.551.801.96 1.04.409.235.885.352 1.426.352.353 0 .671-.049.955-.147.288-.103.536-.254.744-.455.209-.205.37-.458.483-.761l1.296.363c-.137.44-.366.826-.688 1.159-.322.33-.72.587-1.193.773a4.425 4.425 0 0 1-1.597.273Zm5.654-.182v-8.727h1.295v1.318h.091c.159-.432.447-.782.864-1.051a2.54 2.54 0 0 1 1.409-.404c.098 0 .221.002.369.006s.26.01.335.017v1.364a3.351 3.351 0 0 0-.312-.051 3.026 3.026 0 0 0-.506-.04c-.424 0-.803.089-1.136.267a1.954 1.954 0 0 0-1.068 1.778V141h-1.341Zm5.953 0v-8.727h1.341V141h-1.341Zm.682-10.182a.951.951 0 0 1-.676-.267.857.857 0 0 1-.279-.642c0-.25.093-.464.279-.642a.951.951 0 0 1 .676-.267c.261 0 .485.089.67.267.19.178.284.392.284.642s-.094.464-.284.642a.932.932 0 0 1-.67.267Zm6.66 10.364c-.818 0-1.522-.193-2.113-.58a3.772 3.772 0 0 1-1.364-1.596c-.318-.678-.477-1.453-.477-2.324 0-.887.163-1.669.488-2.347.33-.682.788-1.214 1.375-1.596.591-.387 1.281-.58 2.069-.58.613 0 1.166.114 1.659.341.492.227.895.545 1.21.955.314.409.509.886.585 1.431h-1.341c-.102-.397-.329-.75-.682-1.056-.348-.311-.818-.466-1.409-.466-.522 0-.981.136-1.375.409-.39.269-.695.649-.915 1.142-.215.488-.323 1.062-.323 1.721 0 .675.106 1.262.318 1.762.216.5.519.888.909 1.164.394.277.856.415 1.386.415.349 0 .665-.06.949-.182.284-.121.525-.295.722-.522.197-.228.337-.5.42-.818h1.341a3.112 3.112 0 0 1-.562 1.392 3.153 3.153 0 0 1-1.177.977c-.484.238-1.049.358-1.693.358Zm7.96.023a3.55 3.55 0 0 1-1.505-.313 2.58 2.58 0 0 1-1.074-.915c-.265-.401-.398-.886-.398-1.454 0-.5.099-.906.296-1.216.197-.315.46-.561.789-.739a4.2 4.2 0 0 1 1.091-.398c.402-.09.805-.162 1.211-.215.53-.069.96-.12 1.289-.154.334-.038.576-.1.728-.187.155-.087.233-.239.233-.455v-.045c0-.561-.154-.997-.461-1.307-.303-.311-.763-.466-1.38-.466-.641 0-1.142.14-1.506.42-.364.281-.619.58-.767.898l-1.273-.454c.227-.531.53-.944.909-1.239.383-.299.8-.508 1.25-.625a5.205 5.205 0 0 1 1.341-.182c.28 0 .602.034.966.102.368.065.722.199 1.063.404.344.204.63.513.858.926.227.413.34.966.34 1.659V141h-1.34v-1.182h-.069c-.091.19-.242.392-.454.608-.212.216-.494.4-.847.551-.352.152-.782.228-1.29.228Zm.205-1.205c.53 0 .977-.104 1.341-.312a2.133 2.133 0 0 0 1.114-1.847v-1.227c-.057.068-.182.13-.375.187-.19.053-.41.101-.66.142a27.7 27.7 0 0 1-.721.102c-.231.027-.419.05-.563.069a5.114 5.114 0 0 0-.977.221 1.684 1.684 0 0 0-.727.449c-.182.197-.273.466-.273.807 0 .466.172.818.517 1.057.349.235.79.352 1.324.352Zm7.584-4.25V141h-1.341v-8.727h1.295v1.363h.114c.205-.443.515-.799.932-1.068.416-.273.954-.409 1.613-.409.591 0 1.108.121 1.552.364.443.238.787.602 1.034 1.091.246.484.369 1.098.369 1.841V141h-1.341v-5.455c0-.685-.178-1.219-.534-1.602-.356-.386-.845-.579-1.466-.579-.428 0-.811.092-1.148.278a1.99 1.99 0 0 0-.789.813c-.194.356-.29.787-.29 1.295Z" fill="#000"/></svg>
