<svg width="609" height="251" fill="none" xmlns="http://www.w3.org/2000/svg"><path fill="#fff" d="M0 0h609v251H0z"/><path d="M542.841 84.16c-.667 0-1.267-.133-1.801-.399a3.346 3.346 0 0 1-1.284-1.09 2.979 2.979 0 0 1-.529-1.58h1.364c.053.526.292.962.716 1.307.428.34.939.511 1.534.511.477 0 .901-.112 1.273-.335.375-.224.668-.53.88-.92a2.73 2.73 0 0 0 .324-1.336c0-.507-.112-.96-.335-1.358a2.464 2.464 0 0 0-.909-.949 2.568 2.568 0 0 0-1.324-.352 3.637 3.637 0 0 0-1.097.165c-.375.11-.683.252-.926.426l-1.318-.16.705-5.726h6.045v1.25h-4.864l-.409 3.431h.069a3.02 3.02 0 0 1 .897-.471c.36-.125.735-.188 1.125-.188.712 0 1.347.17 1.904.512.56.337 1 .799 1.318 1.386.322.587.483 1.258.483 2.011 0 .743-.167 1.406-.5 1.99a3.656 3.656 0 0 1-1.364 1.374c-.579.333-1.238.5-1.977.5Zm6.462-.16 5.204-10.296v-.09h-6v-1.25h7.455v1.318L550.78 84h-1.477Zm7.777.09a.985.985 0 0 1-.722-.3.983.983 0 0 1-.301-.722c0-.28.1-.52.301-.721a.984.984 0 0 1 .722-.301c.28 0 .52.1.721.3a.985.985 0 0 1 .301.722.96.96 0 0 1-.142.511c-.091.156-.214.28-.369.376a.975.975 0 0 1-.511.136Zm6.106-11.726V84h-1.409V73.84h-.068l-2.841 1.887v-1.431l2.909-1.932h1.409Zm9.278 9.454v-.614c0-.424.088-.812.262-1.164a2.09 2.09 0 0 1 .773-.853c.34-.215.753-.323 1.238-.323.493 0 .906.108 1.239.323.333.213.585.497.756.853.17.352.255.74.255 1.164v.614c0 .424-.087.815-.261 1.17a2.063 2.063 0 0 1-.762.853c-.333.212-.742.318-1.227.318-.492 0-.907-.106-1.244-.318a2.103 2.103 0 0 1-.767-.852 2.63 2.63 0 0 1-.262-1.17Zm1.16-.614v.614c0 .353.083.669.25.949.166.277.454.415.863.415.398 0 .678-.138.841-.415.167-.28.25-.596.25-.949v-.614a1.85 1.85 0 0 0-.239-.943c-.159-.28-.443-.42-.852-.42-.398 0-.683.14-.858.42-.17.277-.255.591-.255.944Zm-6.955-6.045v-.614c0-.424.087-.812.261-1.164.178-.356.436-.64.773-.853.341-.216.754-.324 1.239-.324.492 0 .905.109 1.238.324.334.212.586.497.756.853.171.352.256.74.256 1.165v.613c0 .424-.087.814-.262 1.17a2.06 2.06 0 0 1-.761.853c-.333.212-.742.318-1.227.318-.493 0-.907-.106-1.245-.318a2.11 2.11 0 0 1-.767-.853 2.63 2.63 0 0 1-.261-1.17Zm1.159-.614v.614c0 .352.083.669.25.949.167.276.455.415.864.415.397 0 .678-.138.841-.415.166-.28.25-.597.25-.949v-.614c0-.352-.08-.666-.239-.943-.159-.28-.443-.42-.852-.42-.398 0-.684.14-.858.42a1.758 1.758 0 0 0-.256.944ZM567.101 84l8-11.636h1.295l-8 11.636h-1.295Z" fill="#7542E5"/><path d="M349.808 40h-1.477l4.273-11.636h1.454L358.331 40h-1.477l-3.478-9.796h-.09L349.808 40Zm.546-4.545h5.954v1.25h-5.954v-1.25Zm12.856-4.182v1.136h-4.522v-1.136h4.522Zm-3.204-2.091h1.341V37.5c0 .379.055.663.164.852.114.186.258.31.432.375.178.06.366.091.563.091.147 0 .269-.007.363-.023l.228-.045.272 1.205a2.713 2.713 0 0 1-.38.102c-.163.038-.37.057-.62.057-.378 0-.75-.082-1.113-.245a2.215 2.215 0 0 1-.898-.744c-.235-.333-.352-.754-.352-1.261v-8.682Zm9.017 2.09v1.137H364.5v-1.136h4.523Zm-3.205-2.09h1.341V37.5c0 .379.055.663.165.852.114.186.257.31.432.375.178.06.365.091.562.091.148 0 .269-.007.364-.023l.227-.045.273 1.205a2.733 2.733 0 0 1-.381.102 2.8 2.8 0 0 1-.619.057 2.7 2.7 0 0 1-1.114-.245 2.215 2.215 0 0 1-.898-.744c-.234-.333-.352-.754-.352-1.261v-8.682ZM371.04 40v-8.727h1.295v1.318h.091c.159-.432.447-.782.864-1.051a2.54 2.54 0 0 1 1.409-.404c.098 0 .221.002.369.006s.26.01.335.017v1.364a3.926 3.926 0 0 0-.312-.051 3.08 3.08 0 0 0-.506-.04c-.424 0-.803.089-1.136.267a1.955 1.955 0 0 0-1.068 1.778V40h-1.341Zm5.953 0v-8.727h1.341V40h-1.341Zm.682-10.182a.951.951 0 0 1-.676-.267.857.857 0 0 1-.279-.642c0-.25.093-.464.279-.642a.951.951 0 0 1 .676-.267c.261 0 .485.089.67.267.19.178.284.392.284.642s-.094.464-.284.642a.932.932 0 0 1-.67.267Zm6.91 1.455v1.136h-4.523v-1.136h4.523Zm-3.204-2.091h1.341V37.5c0 .379.055.663.164.852.114.186.258.31.432.375.178.06.366.091.563.091.147 0 .269-.007.363-.023l.228-.045.272 1.205a2.713 2.713 0 0 1-.38.102c-.163.038-.37.057-.62.057-.378 0-.75-.082-1.113-.245a2.215 2.215 0 0 1-.898-.744c-.235-.333-.352-.754-.352-1.261v-8.682ZM386.602 40v-8.727h1.341V40h-1.341Zm.682-10.182a.953.953 0 0 1-.676-.267.856.856 0 0 1-.278-.642c0-.25.092-.464.278-.642a.953.953 0 0 1 .676-.267c.261 0 .485.089.671.267a.851.851 0 0 1 .284.642c0 .25-.095.464-.284.642a.936.936 0 0 1-.671.267Zm6.661 10.364c-.788 0-1.48-.188-2.074-.563-.591-.375-1.053-.9-1.387-1.574-.329-.674-.494-1.462-.494-2.363 0-.91.165-1.703.494-2.38.334-.679.796-1.205 1.387-1.58.594-.375 1.286-.563 2.074-.563.787 0 1.477.188 2.068.563.594.375 1.057.901 1.386 1.58.333.677.5 1.47.5 2.38 0 .901-.167 1.69-.5 2.363a3.77 3.77 0 0 1-1.386 1.574c-.591.375-1.281.563-2.068.563Zm0-1.205c.598 0 1.091-.153 1.477-.46a2.72 2.72 0 0 0 .858-1.21c.185-.5.278-1.042.278-1.625 0-.584-.093-1.127-.278-1.63a2.755 2.755 0 0 0-.858-1.222c-.386-.311-.879-.466-1.477-.466-.599 0-1.091.155-1.478.466-.386.31-.672.717-.858 1.221a4.695 4.695 0 0 0-.278 1.63c0 .584.093 1.126.278 1.626.186.5.472.903.858 1.21.387.307.879.46 1.478.46Zm7.342-4.227V40h-1.341v-8.727h1.295v1.363h.114c.205-.443.515-.799.932-1.068.417-.273.954-.409 1.614-.409.59 0 1.108.121 1.551.364a2.45 2.45 0 0 1 1.034 1.09c.246.486.369 1.1.369 1.842V40h-1.341v-5.455c0-.685-.178-1.22-.534-1.602-.356-.386-.845-.58-1.466-.58-.428 0-.81.093-1.148.279a1.992 1.992 0 0 0-.789.813c-.193.356-.29.787-.29 1.295Z" fill="#000"/><path d="M311.295 133.364V145h-1.409v-10.159h-.068l-2.841 1.886v-1.432l2.909-1.931h1.409Zm3.074 9.25v-1.159l5.114-8.091h.841v1.795h-.568l-3.864 6.114v.091h6.886v1.25h-8.409Zm5.478 2.386v-11.636h1.341V145h-1.341Zm5.514.091a.983.983 0 0 1-.722-.301.985.985 0 0 1-.301-.722c0-.28.1-.521.301-.721a.984.984 0 0 1 .722-.302c.28 0 .521.101.721.302.201.2.302.441.302.721a.965.965 0 0 1-.143.512 1.06 1.06 0 0 1-.369.375.981.981 0 0 1-.511.136Zm6.9.068c-.75 0-1.418-.129-2.005-.386-.584-.258-1.048-.616-1.392-1.074a2.883 2.883 0 0 1-.557-1.608h1.432c.03.375.159.699.386.971.227.269.525.478.892.626.367.147.775.221 1.222.221.5 0 .943-.087 1.329-.261.387-.175.69-.417.909-.728.22-.31.33-.67.33-1.079 0-.428-.106-.805-.318-1.131-.212-.329-.523-.587-.932-.772-.409-.186-.909-.279-1.5-.279h-.932v-1.25h.932c.462 0 .867-.083 1.216-.25.352-.167.627-.401.824-.704.2-.303.301-.66.301-1.069a1.96 1.96 0 0 0-.262-1.028 1.785 1.785 0 0 0-.738-.682c-.315-.163-.686-.244-1.114-.244-.401 0-.78.074-1.136.221-.353.144-.64.355-.864.631a1.646 1.646 0 0 0-.364.989h-1.363c.023-.61.206-1.144.551-1.603a3.464 3.464 0 0 1 1.352-1.079 4.364 4.364 0 0 1 1.847-.386c.72 0 1.337.145 1.852.437a3.09 3.09 0 0 1 1.188 1.142c.276.474.414.985.414 1.534 0 .655-.172 1.214-.517 1.676a2.623 2.623 0 0 1-1.392.961v.09c.735.122 1.309.434 1.722.938.413.5.619 1.119.619 1.858 0 .632-.172 1.201-.517 1.704-.341.5-.807.894-1.398 1.182-.59.288-1.263.432-2.017.432Zm12.188-2.341v-.613c0-.425.087-.813.261-1.165.178-.356.436-.64.773-.852.341-.216.754-.324 1.239-.324.492 0 .905.108 1.238.324.334.212.585.496.756.852.17.352.256.74.256 1.165v.613c0 .424-.088.815-.262 1.171-.17.352-.424.636-.761.852-.333.212-.743.318-1.227.318-.493 0-.908-.106-1.245-.318a2.105 2.105 0 0 1-.767-.852 2.633 2.633 0 0 1-.261-1.171Zm1.159-.613v.613c0 .352.083.669.25.949.167.277.455.415.864.415.397 0 .678-.138.84-.415.167-.28.25-.597.25-.949v-.613a1.86 1.86 0 0 0-.238-.944c-.159-.28-.443-.42-.852-.42-.398 0-.684.14-.858.42a1.758 1.758 0 0 0-.256.944Zm-6.955-6.046v-.614c0-.424.088-.812.262-1.164.178-.356.435-.64.773-.853.34-.216.753-.323 1.238-.323.493 0 .905.107 1.239.323.333.213.585.497.755.853.171.352.256.74.256 1.164v.614c0 .424-.087.814-.261 1.171a2.065 2.065 0 0 1-.762.852c-.333.212-.742.318-1.227.318-.492 0-.907-.106-1.244-.318a2.105 2.105 0 0 1-.767-.852 2.636 2.636 0 0 1-.262-1.171Zm1.159-.614v.614c0 .352.084.669.25.949.167.276.455.415.864.415.398 0 .678-.139.841-.415.167-.28.25-.597.25-.949v-.614a1.85 1.85 0 0 0-.239-.943c-.159-.28-.443-.42-.852-.42-.398 0-.684.14-.858.42-.17.277-.256.591-.256.943Zm-.727 9.455 8-11.636h1.296l-8 11.636h-1.296Zm-27.79 49.364V206h-1.409v-10.159h-.068l-2.841 1.886v-1.432l2.909-1.931h1.409Zm3.074 9.25v-1.159l5.114-8.091h.841v1.795h-.568l-3.864 6.114v.091h6.886v1.25h-8.409Zm5.478 2.386v-11.636h1.341V206h-1.341Zm5.514.091a.983.983 0 0 1-.722-.301.985.985 0 0 1-.301-.722c0-.28.1-.521.301-.721a.984.984 0 0 1 .722-.302c.28 0 .521.101.721.302.201.2.302.441.302.721a.965.965 0 0 1-.143.512 1.06 1.06 0 0 1-.369.375.981.981 0 0 1-.511.136Zm6.9.068c-.75 0-1.418-.129-2.005-.386-.584-.258-1.048-.616-1.392-1.074a2.883 2.883 0 0 1-.557-1.608h1.432c.03.375.159.699.386.971.227.269.525.478.892.626.367.147.775.221 1.222.221.5 0 .943-.087 1.329-.261.387-.175.69-.417.909-.728.22-.31.33-.67.33-1.079 0-.428-.106-.805-.318-1.131-.212-.329-.523-.587-.932-.772-.409-.186-.909-.279-1.5-.279h-.932v-1.25h.932c.462 0 .867-.083 1.216-.25.352-.167.627-.401.824-.704.2-.303.301-.66.301-1.069a1.96 1.96 0 0 0-.262-1.028 1.785 1.785 0 0 0-.738-.682c-.315-.163-.686-.244-1.114-.244-.401 0-.78.074-1.136.221-.353.144-.64.355-.864.631a1.646 1.646 0 0 0-.364.989h-1.363c.023-.61.206-1.144.551-1.603a3.464 3.464 0 0 1 1.352-1.079 4.364 4.364 0 0 1 1.847-.386c.72 0 1.337.145 1.852.437a3.09 3.09 0 0 1 1.188 1.142c.276.474.414.985.414 1.534 0 .655-.172 1.214-.517 1.676a2.623 2.623 0 0 1-1.392.961v.09c.735.122 1.309.434 1.722.938.413.5.619 1.119.619 1.858 0 .632-.172 1.201-.517 1.704-.341.5-.807.894-1.398 1.182-.59.288-1.263.432-2.017.432Zm12.188-2.341v-.613c0-.425.087-.813.261-1.165.178-.356.436-.64.773-.852.341-.216.754-.324 1.239-.324.492 0 .905.108 1.238.324.334.212.585.496.756.852.17.352.256.74.256 1.165v.613c0 .424-.088.815-.262 1.171-.17.352-.424.636-.761.852-.333.212-.743.318-1.227.318-.493 0-.908-.106-1.245-.318a2.105 2.105 0 0 1-.767-.852 2.633 2.633 0 0 1-.261-1.171Zm1.159-.613v.613c0 .352.083.669.25.949.167.277.455.415.864.415.397 0 .678-.138.84-.415.167-.28.25-.597.25-.949v-.613a1.86 1.86 0 0 0-.238-.944c-.159-.28-.443-.42-.852-.42-.398 0-.684.14-.858.42a1.758 1.758 0 0 0-.256.944Zm-6.955-6.046v-.614c0-.424.088-.812.262-1.164.178-.356.435-.64.773-.853.34-.216.753-.323 1.238-.323.493 0 .905.107 1.239.323.333.213.585.497.755.853.171.352.256.74.256 1.164v.614c0 .424-.087.814-.261 1.171a2.065 2.065 0 0 1-.762.852c-.333.212-.742.318-1.227.318-.492 0-.907-.106-1.244-.318a2.105 2.105 0 0 1-.767-.852 2.636 2.636 0 0 1-.262-1.171Zm1.159-.614v.614c0 .352.084.669.25.949.167.276.455.415.864.415.398 0 .678-.139.841-.415.167-.28.25-.597.25-.949v-.614a1.85 1.85 0 0 0-.239-.943c-.159-.28-.443-.42-.852-.42-.398 0-.684.14-.858.42-.17.277-.256.591-.256.943Zm-.727 9.455 8-11.636h1.296l-8 11.636h-1.296ZM224 51h308v53H224zm0 61h76v53h-76zm0 61h76v53h-76z" fill="#7542E5"/><path d="M224 51v175" stroke="#CCD6EB"/><path d="m176.054 84-3.182-11.636h1.432l2.432 9.477h.113l2.478-9.477h1.591l2.477 9.477h.114l2.431-9.477h1.432L184.19 84h-1.454l-2.568-9.273h-.091L177.509 84h-1.455Zm14.233-5.25V84h-1.341V72.364h1.341v4.272h.114c.204-.45.511-.808.92-1.073.413-.27.962-.404 1.648-.404.594 0 1.115.12 1.562.358a2.41 2.41 0 0 1 1.04 1.085c.25.485.375 1.102.375 1.852V84h-1.341v-5.454c0-.694-.18-1.23-.54-1.609-.356-.382-.85-.573-1.483-.573-.439 0-.833.092-1.181.278a2.037 2.037 0 0 0-.819.813c-.197.356-.295.787-.295 1.295Zm8.112 5.25v-8.727h1.341V84h-1.341Zm.682-10.182a.953.953 0 0 1-.676-.267.857.857 0 0 1-.279-.642c0-.25.093-.464.279-.642a.953.953 0 0 1 .676-.267c.261 0 .485.089.67.267.19.178.285.392.285.642s-.095.464-.285.642a.932.932 0 0 1-.67.267Zm6.91 1.455v1.136h-4.522v-1.136h4.522Zm-3.204-2.091h1.341V81.5c0 .379.055.663.165.852a.85.85 0 0 0 .431.375c.178.06.366.091.563.091.148 0 .269-.007.364-.022l.227-.046.273 1.204a2.733 2.733 0 0 1-.381.103 2.8 2.8 0 0 1-.619.057 2.7 2.7 0 0 1-1.114-.245 2.215 2.215 0 0 1-.898-.744c-.235-.333-.352-.754-.352-1.261v-8.682Zm8.787 11c-.841 0-1.566-.186-2.176-.557a3.742 3.742 0 0 1-1.404-1.568c-.325-.674-.488-1.459-.488-2.353 0-.893.163-1.681.488-2.363.33-.686.788-1.22 1.375-1.602.591-.387 1.281-.58 2.069-.58.454 0 .903.076 1.346.227.443.152.847.398 1.21.739.364.337.654.784.87 1.34.216.558.324 1.243.324 2.058v.568h-6.728v-1.16h5.364c0-.492-.099-.931-.296-1.317a2.223 2.223 0 0 0-.829-.915c-.356-.224-.777-.335-1.261-.335-.535 0-.997.132-1.387.397a2.615 2.615 0 0 0-.892 1.023c-.208.42-.312.871-.312 1.352v.773c0 .66.113 1.218.341 1.676.231.455.551.801.96 1.04.409.235.884.352 1.426.352.352 0 .67-.049.954-.148.288-.102.536-.253.745-.454.208-.204.369-.458.483-.761l1.295.363a2.87 2.87 0 0 1-.687 1.16 3.35 3.35 0 0 1-1.194.772 4.42 4.42 0 0 1-1.596.273ZM82.425 145v-11.636h1.409v5.181h6.204v-5.181h1.41V145h-1.41v-5.205h-6.204V145h-1.41Zm11.662 0v-8.727h1.34V145h-1.34Zm.681-10.182a.954.954 0 0 1-.676-.267.858.858 0 0 1-.278-.642.86.86 0 0 1 .278-.642.954.954 0 0 1 .677-.267c.26 0 .484.089.67.267a.85.85 0 0 1 .284.642.85.85 0 0 1-.284.642.934.934 0 0 1-.67.267Zm9.297 3.409-1.204.341a2.253 2.253 0 0 0-.335-.585 1.63 1.63 0 0 0-.591-.477c-.25-.125-.57-.188-.961-.188-.534 0-.979.123-1.335.37-.352.242-.528.551-.528.926 0 .333.121.596.363.789.243.194.622.355 1.137.483l1.295.319c.781.189 1.362.479 1.745.869.382.386.573.884.573 1.494 0 .5-.144.947-.431 1.341-.284.394-.682.705-1.194.932-.511.227-1.106.341-1.784.341-.89 0-1.627-.193-2.21-.58-.583-.386-.953-.95-1.108-1.693l1.273-.318c.121.47.35.822.687 1.057.341.235.786.352 1.336.352.625 0 1.121-.133 1.488-.398.371-.269.557-.591.557-.966 0-.303-.106-.556-.318-.761-.212-.208-.538-.364-.977-.466l-1.455-.341c-.8-.189-1.386-.483-1.761-.88-.371-.402-.557-.904-.557-1.506 0-.493.138-.928.415-1.307.28-.379.66-.676 1.142-.892.485-.216 1.034-.324 1.647-.324.864 0 1.542.189 2.035.568.496.379.848.879 1.056 1.5Zm2.178 10.046v-12h1.295v1.386h.159c.099-.151.235-.345.41-.579.178-.239.431-.451.761-.637.333-.189.784-.284 1.352-.284.735 0 1.383.184 1.943.551.561.368.998.888 1.313 1.563.314.674.471 1.469.471 2.386 0 .924-.157 1.725-.471 2.403-.315.675-.75 1.197-1.307 1.569-.557.367-1.199.551-1.926.551-.561 0-1.01-.093-1.347-.279-.337-.189-.596-.403-.778-.642a8.677 8.677 0 0 1-.421-.602h-.113v4.614h-1.341Zm1.318-7.637c0 .659.097 1.241.29 1.745.193.5.475.892.846 1.176.372.28.826.42 1.364.42.561 0 1.028-.147 1.403-.443.379-.299.663-.701.853-1.204.193-.508.29-1.072.29-1.694 0-.613-.095-1.166-.285-1.659-.185-.496-.467-.888-.846-1.176-.375-.292-.847-.437-1.415-.437-.545 0-1.004.138-1.375.414-.371.273-.651.656-.841 1.148-.189.489-.284 1.059-.284 1.71Zm11 4.569a3.554 3.554 0 0 1-1.506-.313 2.583 2.583 0 0 1-1.073-.915c-.266-.401-.398-.886-.398-1.454 0-.5.098-.906.295-1.216.197-.315.46-.561.79-.739.33-.178.693-.31 1.091-.398.401-.09.805-.162 1.21-.215.53-.069.96-.12 1.29-.154.333-.038.576-.1.727-.187.156-.087.233-.239.233-.455v-.045c0-.561-.153-.997-.46-1.307-.303-.311-.763-.466-1.381-.466-.64 0-1.142.14-1.505.42-.364.281-.62.58-.767.898l-1.273-.454c.227-.531.53-.944.909-1.239a3.398 3.398 0 0 1 1.25-.625 5.193 5.193 0 0 1 1.341-.182c.28 0 .602.034.966.102.367.065.721.199 1.062.404.345.204.631.513.858.926.227.413.341.966.341 1.659V145h-1.341v-1.182h-.068c-.091.19-.242.392-.455.608-.212.216-.494.4-.846.551-.352.152-.782.228-1.29.228Zm.205-1.205c.53 0 .977-.104 1.341-.312a2.14 2.14 0 0 0 .829-.807c.189-.33.284-.676.284-1.04v-1.227c-.057.068-.182.13-.375.187a6.143 6.143 0 0 1-.659.142c-.246.038-.487.072-.722.102-.231.027-.418.05-.562.069a5.114 5.114 0 0 0-.977.221c-.3.099-.542.248-.728.449-.181.197-.272.466-.272.807 0 .466.172.818.517 1.057.348.235.79.352 1.324.352Zm7.583-4.25V145h-1.34v-8.727h1.295v1.363h.114c.204-.443.515-.799.931-1.068.417-.273.955-.409 1.614-.409.591 0 1.108.121 1.551.364.443.238.788.602 1.034 1.091.247.484.37 1.098.37 1.841V145h-1.341v-5.455c0-.685-.178-1.219-.534-1.602-.356-.386-.845-.579-1.466-.579-.428 0-.811.092-1.148.278a1.992 1.992 0 0 0-.79.813c-.193.356-.29.787-.29 1.295Zm8.019 5.25v-8.727h1.341V145h-1.341Zm.682-10.182a.951.951 0 0 1-.676-.267.857.857 0 0 1-.279-.642c0-.25.093-.464.279-.642a.951.951 0 0 1 .676-.267c.261 0 .485.089.67.267.19.178.284.392.284.642s-.094.464-.284.642a.932.932 0 0 1-.67.267Zm6.66 10.364c-.818 0-1.522-.193-2.113-.58a3.772 3.772 0 0 1-1.364-1.596c-.318-.678-.477-1.453-.477-2.324 0-.887.163-1.669.488-2.347.33-.682.788-1.214 1.375-1.596.591-.387 1.281-.58 2.069-.58.613 0 1.166.114 1.659.341.492.227.895.545 1.21.955.314.409.509.886.585 1.431h-1.341c-.102-.397-.329-.75-.682-1.056-.348-.311-.818-.466-1.409-.466-.522 0-.981.136-1.375.409-.39.269-.695.649-.915 1.142-.215.488-.323 1.062-.323 1.721 0 .675.106 1.262.318 1.762.216.5.519.888.909 1.164.394.277.856.415 1.386.415.349 0 .665-.06.949-.182.284-.121.525-.295.722-.522.197-.228.337-.5.42-.818h1.341a3.112 3.112 0 0 1-.562 1.392 3.153 3.153 0 0 1-1.177.977c-.484.238-1.049.358-1.693.358Zm13.438 0c-.788 0-1.479-.188-2.074-.563-.591-.375-1.053-.899-1.386-1.574-.33-.674-.495-1.462-.495-2.363 0-.909.165-1.703.495-2.381.333-.678.795-1.204 1.386-1.579.595-.375 1.286-.563 2.074-.563.788 0 1.477.188 2.068.563.595.375 1.057.901 1.386 1.579.334.678.5 1.472.5 2.381 0 .901-.166 1.689-.5 2.363a3.758 3.758 0 0 1-1.386 1.574c-.591.375-1.28.563-2.068.563Zm0-1.205c.598 0 1.091-.153 1.477-.46a2.72 2.72 0 0 0 .858-1.21c.186-.5.278-1.042.278-1.625 0-.584-.092-1.127-.278-1.631a2.748 2.748 0 0 0-.858-1.221c-.386-.311-.879-.466-1.477-.466-.599 0-1.091.155-1.478.466-.386.31-.672.717-.858 1.221a4.695 4.695 0 0 0-.278 1.631c0 .583.093 1.125.278 1.625.186.5.472.903.858 1.21.387.307.879.46 1.478.46Zm6.001 1.023v-8.727h1.296v1.318h.091c.159-.432.446-.782.863-1.051a2.544 2.544 0 0 1 1.409-.404c.099 0 .222.002.37.006.147.004.259.01.335.017v1.364a3.462 3.462 0 0 0-.313-.051 3.014 3.014 0 0 0-.505-.04c-.425 0-.803.089-1.137.267a2.019 2.019 0 0 0-.784.727 1.963 1.963 0 0 0-.284 1.051V145h-1.341Zm10.635 0v-11.636h1.409v10.386h5.409V145h-6.818Zm11.386.205a3.55 3.55 0 0 1-1.505-.313 2.58 2.58 0 0 1-1.074-.915c-.265-.401-.398-.886-.398-1.454 0-.5.099-.906.296-1.216.197-.315.46-.561.789-.739a4.2 4.2 0 0 1 1.091-.398c.402-.09.805-.162 1.211-.215.53-.069.96-.12 1.289-.154.334-.038.576-.1.728-.187.155-.087.233-.239.233-.455v-.045c0-.561-.154-.997-.461-1.307-.303-.311-.763-.466-1.38-.466-.641 0-1.142.14-1.506.42-.364.281-.619.58-.767.898l-1.273-.454c.227-.531.53-.944.909-1.239.383-.299.8-.508 1.25-.625a5.205 5.205 0 0 1 1.341-.182c.28 0 .602.034.966.102.368.065.722.199 1.063.404.344.204.63.513.858.926.227.413.34.966.34 1.659V145h-1.34v-1.182h-.069c-.091.19-.242.392-.454.608-.212.216-.494.4-.847.551-.352.152-.782.228-1.29.228Zm.205-1.205c.53 0 .977-.104 1.341-.312a2.133 2.133 0 0 0 1.114-1.847v-1.227c-.057.068-.182.13-.375.187-.19.053-.41.101-.66.142a27.7 27.7 0 0 1-.721.102c-.231.027-.419.05-.563.069a5.114 5.114 0 0 0-.977.221 1.684 1.684 0 0 0-.727.449c-.182.197-.273.466-.273.807 0 .466.172.818.517 1.057.349.235.79.352 1.324.352Zm10.038-7.727v1.136h-4.522v-1.136h4.522Zm-3.204-2.091h1.341v8.318c0 .379.055.663.164.852a.853.853 0 0 0 .432.375c.178.061.366.091.563.091.148 0 .269-.007.363-.023l.228-.045.272 1.205c-.09.034-.217.068-.38.102-.163.038-.37.057-.62.057-.378 0-.75-.082-1.113-.245a2.217 2.217 0 0 1-.898-.744c-.235-.333-.352-.754-.352-1.261v-8.682ZM195.43 145v-8.727h1.341V145h-1.341Zm.682-10.182a.953.953 0 0 1-.676-.267.856.856 0 0 1-.278-.642c0-.25.092-.464.278-.642a.953.953 0 0 1 .676-.267c.262 0 .485.089.671.267a.851.851 0 0 1 .284.642c0 .25-.095.464-.284.642a.935.935 0 0 1-.671.267Zm4.456 4.932V145h-1.341v-8.727h1.296v1.363h.113c.205-.443.516-.799.932-1.068.417-.273.955-.409 1.614-.409.591 0 1.108.121 1.551.364.443.238.788.602 1.034 1.091.246.484.369 1.098.369 1.841V145h-1.341v-5.455c0-.685-.178-1.219-.534-1.602-.356-.386-.844-.579-1.466-.579-.428 0-.81.092-1.147.278a1.985 1.985 0 0 0-.79.813c-.193.356-.29.787-.29 1.295Zm9.019-3.477 2.091 3.568 2.09-3.568h1.546l-2.818 4.363 2.818 4.364h-1.546l-2.09-3.386-2.091 3.386h-1.546l2.773-4.364-2.773-4.363h1.546ZM22.815 206v-11.636h4.069c.81 0 1.479.14 2.005.42.527.277.919.65 1.176 1.119.258.466.387.983.387 1.552 0 .5-.09.912-.267 1.238a2.074 2.074 0 0 1-.694.773 3.166 3.166 0 0 1-.926.42V200c.356.023.714.148 1.074.375.36.227.661.553.904.977.242.425.363.943.363 1.557 0 .583-.132 1.108-.397 1.574-.266.466-.684.835-1.256 1.108-.572.273-1.316.409-2.233.409h-4.205Zm1.41-1.25h2.795c.92 0 1.574-.178 1.96-.534.39-.36.585-.796.585-1.307 0-.394-.1-.757-.3-1.091a2.182 2.182 0 0 0-.859-.807c-.371-.204-.81-.306-1.318-.306h-2.864v4.045Zm0-5.273h2.613c.424 0 .807-.083 1.148-.25a2 2 0 0 0 .818-.704 1.86 1.86 0 0 0 .307-1.068c0-.512-.178-.946-.534-1.302-.356-.359-.92-.539-1.694-.539h-2.659v3.863Zm10.156-5.113V206H33.04v-11.636h1.34Zm5.024 11.841a3.552 3.552 0 0 1-1.506-.313 2.581 2.581 0 0 1-1.074-.915c-.265-.401-.397-.886-.397-1.454 0-.5.098-.906.295-1.216.197-.315.46-.561.79-.739.33-.178.693-.31 1.09-.398.402-.09.806-.162 1.21-.215.531-.069.961-.12 1.29-.154.334-.038.576-.1.728-.187.155-.087.233-.239.233-.455v-.045c0-.561-.154-.997-.46-1.307-.303-.311-.764-.466-1.381-.466-.64 0-1.142.14-1.506.42-.363.281-.619.58-.767.898l-1.272-.454c.227-.531.53-.944.909-1.239a3.398 3.398 0 0 1 1.25-.625 5.2 5.2 0 0 1 1.34-.182c.28 0 .603.034.967.102.367.065.721.199 1.062.404.345.204.63.513.858.926.227.413.34.966.34 1.659V206h-1.34v-1.182h-.068a2.36 2.36 0 0 1-.455.608c-.212.216-.494.4-.846.551-.353.152-.783.228-1.29.228Zm.204-1.205c.53 0 .978-.104 1.341-.312.368-.209.644-.478.83-.807.19-.33.284-.676.284-1.04v-1.227c-.057.068-.182.13-.375.187-.19.053-.41.101-.66.142-.245.038-.486.072-.72.102-.232.027-.42.05-.563.069a5.109 5.109 0 0 0-.977.221c-.3.099-.542.248-.728.449-.182.197-.272.466-.272.807 0 .466.172.818.517 1.057.348.235.79.352 1.323.352Zm9.789 1.182c-.819 0-1.523-.193-2.114-.58a3.773 3.773 0 0 1-1.364-1.596c-.318-.678-.477-1.453-.477-2.324 0-.887.163-1.669.489-2.347.33-.682.788-1.214 1.375-1.596.59-.387 1.28-.58 2.068-.58.614 0 1.167.114 1.66.341.492.227.895.545 1.21.955.314.409.509.886.585 1.431h-1.341c-.103-.397-.33-.75-.682-1.056-.349-.311-.818-.466-1.41-.466-.522 0-.98.136-1.374.409-.39.269-.695.649-.915 1.142-.216.488-.324 1.062-.324 1.721 0 .675.106 1.262.318 1.762.216.5.52.888.91 1.164.393.277.855.415 1.386.415.348 0 .664-.06.949-.182.284-.121.524-.295.721-.522.197-.228.337-.5.42-.818h1.342a3.106 3.106 0 0 1-.563 1.392 3.149 3.149 0 0 1-1.176.977c-.485.238-1.05.358-1.693.358Zm6.642-3.364-.023-1.659h.273l3.818-3.886h1.659l-4.068 4.113h-.114l-1.545 1.432ZM54.79 206v-11.636h1.34V206h-1.34Zm5.545 0-3.409-4.318.955-.932L62.04 206h-1.705Zm11.203.182c-.787 0-1.479-.188-2.073-.563-.591-.375-1.053-.899-1.387-1.574-.33-.674-.494-1.462-.494-2.363 0-.909.165-1.703.494-2.381.334-.678.796-1.204 1.386-1.579.595-.375 1.287-.563 2.074-.563.788 0 1.478.188 2.069.563.594.375 1.056.901 1.386 1.579.333.678.5 1.472.5 2.381 0 .901-.167 1.689-.5 2.363a3.765 3.765 0 0 1-1.386 1.574c-.591.375-1.28.563-2.069.563Zm0-1.205c.599 0 1.091-.153 1.478-.46a2.72 2.72 0 0 0 .858-1.21c.185-.5.278-1.042.278-1.625a4.68 4.68 0 0 0-.278-1.631 2.742 2.742 0 0 0-.858-1.221c-.387-.311-.88-.466-1.478-.466s-1.09.155-1.477.466c-.386.31-.672.717-.858 1.221a4.68 4.68 0 0 0-.278 1.631c0 .583.093 1.125.278 1.625.186.5.472.903.858 1.21.386.307.879.46 1.477.46ZM77.54 206v-8.727h1.295v1.318h.091c.16-.432.447-.782.864-1.051a2.542 2.542 0 0 1 1.409-.404c.098 0 .222.002.37.006.147.004.259.01.334.017v1.364a3.406 3.406 0 0 0-.312-.051 3.022 3.022 0 0 0-.506-.04c-.424 0-.803.089-1.136.267-.33.174-.591.417-.784.727a1.96 1.96 0 0 0-.284 1.051V206H77.54Zm11.112 0h-1.477l4.272-11.636h1.455L97.175 206h-1.478l-3.477-9.795h-.09L88.651 206Zm.545-4.545h5.955v1.25h-5.955v-1.25Zm13.495-4.182v1.136h-4.705v-1.136h4.705ZM99.396 206v-9.932c0-.5.118-.916.353-1.25a2.18 2.18 0 0 1 .914-.75c.375-.166.771-.25 1.188-.25.329 0 .598.027.807.08.208.053.363.102.466.147l-.387 1.16a5.962 5.962 0 0 0-.284-.086 1.726 1.726 0 0 0-.466-.051c-.443 0-.763.112-.96.335-.193.224-.29.552-.29.983V206h-1.34Zm5.175 0v-8.727h1.295v1.318h.091c.159-.432.447-.782.864-1.051a2.542 2.542 0 0 1 1.409-.404c.099 0 .222.002.369.006.148.004.26.01.336.017v1.364a3.462 3.462 0 0 0-.313-.051 3.017 3.017 0 0 0-.506-.04c-.424 0-.803.089-1.136.267a2.019 2.019 0 0 0-.784.727 1.963 1.963 0 0 0-.284 1.051V206h-1.341Zm5.953 0v-8.727h1.341V206h-1.341Zm.682-10.182a.953.953 0 0 1-.676-.267.857.857 0 0 1-.279-.642c0-.25.093-.464.279-.642a.953.953 0 0 1 .676-.267c.261 0 .485.089.67.267.19.178.285.392.285.642s-.095.464-.285.642a.932.932 0 0 1-.67.267Zm6.66 10.364c-.818 0-1.522-.193-2.113-.58a3.772 3.772 0 0 1-1.364-1.596c-.318-.678-.477-1.453-.477-2.324 0-.887.163-1.669.489-2.347.329-.682.787-1.214 1.375-1.596.59-.387 1.28-.58 2.068-.58.613 0 1.166.114 1.659.341.492.227.896.545 1.21.955.314.409.51.886.585 1.431h-1.341c-.102-.397-.329-.75-.681-1.056-.349-.311-.819-.466-1.41-.466-.522 0-.981.136-1.375.409-.39.269-.695.649-.914 1.142-.216.488-.324 1.062-.324 1.721 0 .675.106 1.262.318 1.762.216.5.519.888.909 1.164.394.277.856.415 1.386.415.349 0 .665-.06.949-.182.284-.121.525-.295.722-.522.197-.228.337-.5.42-.818h1.341a3.1 3.1 0 0 1-.562 1.392 3.158 3.158 0 0 1-1.176.977c-.485.238-1.05.358-1.694.358Zm7.961.023a3.554 3.554 0 0 1-1.506-.313 2.58 2.58 0 0 1-1.074-.915c-.265-.401-.398-.886-.398-1.454 0-.5.099-.906.296-1.216.197-.315.46-.561.79-.739.329-.178.693-.31 1.091-.398.401-.09.804-.162 1.21-.215.53-.069.96-.12 1.29-.154.333-.038.575-.1.727-.187.155-.087.233-.239.233-.455v-.045c0-.561-.154-.997-.46-1.307-.303-.311-.764-.466-1.381-.466-.64 0-1.142.14-1.506.42-.363.281-.619.58-.767.898l-1.273-.454c.228-.531.531-.944.91-1.239a3.398 3.398 0 0 1 1.25-.625 5.192 5.192 0 0 1 1.34-.182c.281 0 .603.034.966.102.368.065.722.199 1.063.404.345.204.631.513.858.926.227.413.341.966.341 1.659V206h-1.341v-1.182h-.068a2.36 2.36 0 0 1-.455.608c-.212.216-.494.4-.847.551-.352.152-.782.228-1.289.228Zm.204-1.205c.531 0 .978-.104 1.341-.312.368-.209.644-.478.83-.807.189-.33.284-.676.284-1.04v-1.227c-.057.068-.182.13-.375.187-.19.053-.409.101-.659.142-.247.038-.487.072-.722.102-.231.027-.418.05-.562.069a5.107 5.107 0 0 0-.978.221 1.69 1.69 0 0 0-.727.449c-.182.197-.273.466-.273.807 0 .466.173.818.517 1.057.349.235.79.352 1.324.352Zm7.584-4.25V206h-1.341v-8.727h1.296v1.363h.113c.205-.443.515-.799.932-1.068.417-.273.955-.409 1.614-.409.591 0 1.108.121 1.551.364.443.238.788.602 1.034 1.091.246.484.369 1.098.369 1.841V206h-1.341v-5.455c0-.685-.178-1.219-.534-1.602-.356-.386-.844-.579-1.466-.579-.428 0-.81.092-1.147.278a1.985 1.985 0 0 0-.79.813c-.193.356-.29.787-.29 1.295Zm13.178 5.25h-1.478l4.273-11.636h1.455L155.315 206h-1.477l-3.477-9.795h-.091L146.793 206Zm.545-4.545h5.955v1.25h-5.955v-1.25Zm9.608 4.545v-8.727h1.295v1.363h.114c.182-.466.475-.827.881-1.085.405-.261.892-.392 1.46-.392.576 0 1.055.131 1.438.392.386.258.687.619.903 1.085h.091a2.55 2.55 0 0 1 1.006-1.074c.446-.268.982-.403 1.607-.403.781 0 1.419.244 1.915.733.496.485.745 1.241.745 2.267V206h-1.341v-5.841c0-.644-.176-1.104-.529-1.381a1.957 1.957 0 0 0-1.244-.414c-.614 0-1.089.185-1.426.556-.337.368-.506.834-.506 1.398V206h-1.364v-5.977c0-.496-.161-.896-.482-1.199-.322-.307-.737-.46-1.245-.46-.348 0-.674.092-.977.278a2.1 2.1 0 0 0-.727.773 2.277 2.277 0 0 0-.273 1.13V206h-1.341Zm17.565.182c-.841 0-1.566-.186-2.176-.557a3.736 3.736 0 0 1-1.403-1.568c-.326-.674-.489-1.459-.489-2.352 0-.894.163-1.682.489-2.364.329-.686.788-1.22 1.375-1.602.591-.387 1.28-.58 2.068-.58.455 0 .903.076 1.347.227.443.152.846.398 1.21.739.363.337.653.784.869 1.341.216.557.324 1.242.324 2.057v.568h-6.727v-1.159h5.363c0-.493-.098-.932-.295-1.318a2.219 2.219 0 0 0-.83-.915c-.356-.224-.776-.335-1.261-.335-.534 0-.996.132-1.386.397a2.617 2.617 0 0 0-.892 1.023 2.997 2.997 0 0 0-.313 1.352v.773c0 .659.114 1.218.341 1.676.231.455.551.801.96 1.04.409.235.885.352 1.426.352.353 0 .671-.049.955-.147.288-.103.536-.254.744-.455.209-.205.37-.458.483-.761l1.296.363c-.137.44-.366.826-.688 1.159-.322.33-.72.587-1.193.773a4.425 4.425 0 0 1-1.597.273Zm5.654-.182v-8.727h1.295v1.318h.091c.159-.432.447-.782.864-1.051a2.54 2.54 0 0 1 1.409-.404c.098 0 .221.002.369.006s.26.01.335.017v1.364a3.351 3.351 0 0 0-.312-.051 3.026 3.026 0 0 0-.506-.04c-.424 0-.803.089-1.136.267a1.954 1.954 0 0 0-1.068 1.778V206h-1.341Zm5.953 0v-8.727h1.341V206h-1.341Zm.682-10.182a.951.951 0 0 1-.676-.267.857.857 0 0 1-.279-.642c0-.25.093-.464.279-.642a.951.951 0 0 1 .676-.267c.261 0 .485.089.67.267.19.178.284.392.284.642s-.094.464-.284.642a.932.932 0 0 1-.67.267Zm6.66 10.364c-.818 0-1.522-.193-2.113-.58a3.772 3.772 0 0 1-1.364-1.596c-.318-.678-.477-1.453-.477-2.324 0-.887.163-1.669.488-2.347.33-.682.788-1.214 1.375-1.596.591-.387 1.281-.58 2.069-.58.613 0 1.166.114 1.659.341.492.227.895.545 1.21.955.314.409.509.886.585 1.431h-1.341c-.102-.397-.329-.75-.682-1.056-.348-.311-.818-.466-1.409-.466-.522 0-.981.136-1.375.409-.39.269-.695.649-.915 1.142-.215.488-.323 1.062-.323 1.721 0 .675.106 1.262.318 1.762.216.5.519.888.909 1.164.394.277.856.415 1.386.415.349 0 .665-.06.949-.182.284-.121.525-.295.722-.522.197-.228.337-.5.42-.818h1.341a3.112 3.112 0 0 1-.562 1.392 3.153 3.153 0 0 1-1.177.977c-.484.238-1.049.358-1.693.358Zm7.96.023a3.55 3.55 0 0 1-1.505-.313 2.58 2.58 0 0 1-1.074-.915c-.265-.401-.398-.886-.398-1.454 0-.5.099-.906.296-1.216.197-.315.46-.561.789-.739a4.2 4.2 0 0 1 1.091-.398c.402-.09.805-.162 1.211-.215.53-.069.96-.12 1.289-.154.334-.038.576-.1.728-.187.155-.087.233-.239.233-.455v-.045c0-.561-.154-.997-.461-1.307-.303-.311-.763-.466-1.38-.466-.641 0-1.142.14-1.506.42-.364.281-.619.58-.767.898l-1.273-.454c.227-.531.53-.944.909-1.239.383-.299.8-.508 1.25-.625a5.205 5.205 0 0 1 1.341-.182c.28 0 .602.034.966.102.368.065.722.199 1.063.404.344.204.63.513.858.926.227.413.34.966.34 1.659V206h-1.34v-1.182h-.069c-.091.19-.242.392-.454.608-.212.216-.494.4-.847.551-.352.152-.782.228-1.29.228Zm.205-1.205c.53 0 .977-.104 1.341-.312a2.133 2.133 0 0 0 1.114-1.847v-1.227c-.057.068-.182.13-.375.187-.19.053-.41.101-.66.142a27.7 27.7 0 0 1-.721.102c-.231.027-.419.05-.563.069a5.114 5.114 0 0 0-.977.221 1.684 1.684 0 0 0-.727.449c-.182.197-.273.466-.273.807 0 .466.172.818.517 1.057.349.235.79.352 1.324.352Zm7.584-4.25V206h-1.341v-8.727h1.295v1.363h.114c.205-.443.515-.799.932-1.068.416-.273.954-.409 1.613-.409.591 0 1.108.121 1.552.364.443.238.787.602 1.034 1.091.246.484.369 1.098.369 1.841V206h-1.341v-5.455c0-.685-.178-1.219-.534-1.602-.356-.386-.845-.579-1.466-.579-.428 0-.811.092-1.148.278a1.99 1.99 0 0 0-.789.813c-.194.356-.29.787-.29 1.295Z" fill="#000"/></svg>
