<svg width="816" height="299" fill="none" xmlns="http://www.w3.org/2000/svg"><path fill="#fff" d="M0 0h816v299H0z"/><path d="m294.054 45-3.182-11.636h1.432l2.432 9.477h.113l2.478-9.477h1.591l2.477 9.477h.114l2.431-9.477h1.432L302.19 45h-1.454l-2.568-9.273h-.091L295.509 45h-1.455Zm14.233-5.25V45h-1.341V33.364h1.341v4.272h.114c.204-.45.511-.808.92-1.074.413-.268.962-.403 1.648-.403.594 0 1.115.12 1.562.358.447.235.794.597 1.04 1.085.25.485.375 1.103.375 1.853V45h-1.341v-5.455c0-.693-.18-1.229-.54-1.608-.356-.382-.85-.573-1.483-.573-.439 0-.833.092-1.181.278a2.037 2.037 0 0 0-.819.813c-.197.356-.295.787-.295 1.295Zm8.112 5.25v-8.727h1.341V45h-1.341Zm.682-10.182a.953.953 0 0 1-.676-.267.857.857 0 0 1-.279-.642c0-.25.093-.464.279-.642a.953.953 0 0 1 .676-.267c.261 0 .485.089.67.267.19.178.285.392.285.642s-.095.464-.285.642a.932.932 0 0 1-.67.267Zm6.91 1.455v1.136h-4.522v-1.136h4.522Zm-3.204-2.091h1.341V42.5c0 .379.055.663.165.852a.85.85 0 0 0 .431.375c.178.06.366.091.563.091.148 0 .269-.007.364-.023l.227-.045.273 1.205a2.733 2.733 0 0 1-.381.102 2.8 2.8 0 0 1-.619.057 2.7 2.7 0 0 1-1.114-.245 2.215 2.215 0 0 1-.898-.744c-.235-.333-.352-.754-.352-1.261v-8.682Zm8.787 11c-.841 0-1.566-.186-2.176-.557a3.742 3.742 0 0 1-1.404-1.568c-.325-.674-.488-1.459-.488-2.352 0-.894.163-1.682.488-2.364.33-.686.788-1.22 1.375-1.602.591-.387 1.281-.58 2.069-.58.454 0 .903.076 1.346.227.443.152.847.398 1.21.739.364.337.654.784.87 1.34.216.558.324 1.243.324 2.058v.568h-6.728v-1.16h5.364c0-.492-.099-.931-.296-1.317a2.223 2.223 0 0 0-.829-.915c-.356-.224-.777-.335-1.261-.335-.535 0-.997.132-1.387.397a2.615 2.615 0 0 0-.892 1.023c-.208.42-.312.871-.312 1.352v.773c0 .66.113 1.218.341 1.676.231.455.551.801.96 1.04.409.235.884.352 1.426.352.352 0 .67-.049.954-.147.288-.103.536-.254.745-.455.208-.205.369-.458.483-.761l1.295.363c-.136.44-.365.826-.687 1.16a3.35 3.35 0 0 1-1.194.772 4.42 4.42 0 0 1-1.596.273ZM294.543 141h-1.478l4.273-11.636h1.455L303.065 141h-1.477l-3.477-9.795h-.091L294.543 141Zm.545-4.545h5.955v1.25h-5.955v-1.25Zm15.79-2.228-1.205.341a2.197 2.197 0 0 0-.335-.585 1.63 1.63 0 0 0-.591-.477c-.25-.125-.57-.188-.96-.188-.534 0-.979.123-1.335.37-.353.242-.529.551-.529.926 0 .333.122.596.364.789.242.194.621.355 1.136.483l1.296.319c.78.189 1.361.479 1.744.869.383.386.574.884.574 1.494 0 .5-.144.947-.432 1.341-.284.394-.682.705-1.193.932-.511.227-1.106.341-1.784.341-.89 0-1.627-.193-2.21-.58-.584-.386-.953-.95-1.108-1.693l1.272-.318c.122.47.351.822.688 1.057.341.235.786.352 1.335.352.625 0 1.121-.133 1.489-.398.371-.269.557-.591.557-.966 0-.303-.106-.556-.319-.761-.212-.208-.537-.364-.977-.466l-1.454-.341c-.8-.189-1.387-.483-1.762-.88-.371-.402-.557-.904-.557-1.506 0-.493.139-.928.415-1.307a2.82 2.82 0 0 1 1.142-.892c.485-.216 1.034-.324 1.648-.324.864 0 1.542.189 2.034.568.496.379.849.879 1.057 1.5Zm2.177 6.773v-8.727h1.341V141h-1.341Zm.682-10.182a.953.953 0 0 1-.676-.267.856.856 0 0 1-.278-.642c0-.25.092-.464.278-.642a.953.953 0 0 1 .676-.267c.262 0 .485.089.671.267a.851.851 0 0 1 .284.642c0 .25-.095.464-.284.642a.935.935 0 0 1-.671.267Zm5.683 10.387a3.55 3.55 0 0 1-1.505-.313 2.58 2.58 0 0 1-1.074-.915c-.265-.401-.398-.886-.398-1.454 0-.5.099-.906.296-1.216.197-.315.46-.561.789-.739a4.2 4.2 0 0 1 1.091-.398c.402-.09.805-.162 1.211-.215.53-.069.96-.12 1.289-.154.334-.038.576-.1.728-.187.155-.087.233-.239.233-.455v-.045c0-.561-.154-.997-.461-1.307-.303-.311-.763-.466-1.38-.466-.641 0-1.142.14-1.506.42-.364.281-.619.58-.767.898l-1.273-.454c.227-.531.53-.944.909-1.239.383-.299.8-.508 1.25-.625a5.205 5.205 0 0 1 1.341-.182c.28 0 .602.034.966.102.368.065.722.199 1.063.404.344.204.63.513.858.926.227.413.34.966.34 1.659V141h-1.34v-1.182h-.069c-.091.19-.242.392-.454.608-.212.216-.494.4-.847.551-.352.152-.782.228-1.29.228Zm.205-1.205c.53 0 .977-.104 1.341-.312a2.133 2.133 0 0 0 1.114-1.847v-1.227c-.057.068-.182.13-.375.187-.19.053-.41.101-.66.142a27.7 27.7 0 0 1-.721.102c-.231.027-.419.05-.563.069a5.114 5.114 0 0 0-.977.221 1.684 1.684 0 0 0-.727.449c-.182.197-.273.466-.273.807 0 .466.172.818.517 1.057.349.235.79.352 1.324.352Zm7.584-4.25V141h-1.341v-8.727h1.295v1.363h.114c.205-.443.515-.799.932-1.068.416-.273.954-.409 1.613-.409.591 0 1.108.121 1.552.364.443.238.787.602 1.034 1.091.246.484.369 1.098.369 1.841V141h-1.341v-5.455c0-.685-.178-1.219-.534-1.602-.356-.386-.845-.579-1.466-.579-.428 0-.811.092-1.148.278a1.99 1.99 0 0 0-.789.813c-.194.356-.29.787-.29 1.295ZM140.815 93V81.364h4.069c.81 0 1.479.14 2.005.42.527.277.919.65 1.176 1.12.258.465.387.982.387 1.55 0 .5-.089.913-.267 1.24a2.085 2.085 0 0 1-.694.772c-.284.19-.592.33-.926.42V87c.356.023.714.148 1.074.375.36.227.661.553.904.977.242.424.363.944.363 1.557 0 .583-.132 1.108-.397 1.574-.266.466-.684.835-1.256 1.108-.572.273-1.316.409-2.233.409h-4.205Zm1.409-1.25h2.796c.92 0 1.574-.178 1.96-.534.39-.36.585-.795.585-1.307 0-.394-.1-.758-.301-1.09a2.182 2.182 0 0 0-.858-.808c-.371-.204-.81-.306-1.318-.306h-2.864v4.045Zm0-5.273h2.614c.424 0 .807-.083 1.148-.25.344-.166.617-.401.818-.704a1.86 1.86 0 0 0 .307-1.069 1.77 1.77 0 0 0-.534-1.3c-.356-.36-.921-.54-1.693-.54h-2.66v3.863Zm10.157-5.113V93h-1.341V81.364h1.341Zm5.024 11.84a3.548 3.548 0 0 1-1.506-.312 2.582 2.582 0 0 1-1.074-.915c-.265-.401-.397-.886-.397-1.454 0-.5.098-.906.295-1.216.197-.315.46-.56.79-.739a4.14 4.14 0 0 1 1.091-.397c.401-.092.805-.163 1.21-.217.53-.068.96-.119 1.29-.153.333-.038.575-.1.727-.187.155-.088.233-.239.233-.455v-.045c0-.561-.153-.997-.46-1.307-.303-.31-.764-.466-1.381-.466-.64 0-1.142.14-1.506.42-.363.28-.619.58-.767.898l-1.272-.455c.227-.53.53-.943.909-1.238.382-.3.799-.508 1.25-.625a5.184 5.184 0 0 1 1.341-.182c.28 0 .602.034.965.102.368.065.722.2 1.063.404.345.204.631.513.858.926.227.413.341.966.341 1.659V93h-1.341v-1.182h-.068c-.091.19-.243.392-.455.608-.212.216-.494.4-.846.551-.353.152-.783.227-1.29.227Zm.204-1.204c.531 0 .978-.104 1.341-.313a2.128 2.128 0 0 0 1.114-1.846v-1.227c-.057.068-.182.13-.375.187a6.29 6.29 0 0 1-.659.142 29.629 29.629 0 0 1-1.284.17 5.13 5.13 0 0 0-.978.222 1.687 1.687 0 0 0-.727.45c-.182.196-.273.465-.273.806 0 .466.173.818.518 1.057.348.235.789.352 1.323.352Zm9.789 1.182c-.818 0-1.523-.193-2.114-.58a3.783 3.783 0 0 1-1.364-1.596c-.318-.678-.477-1.453-.477-2.324 0-.886.163-1.669.489-2.347.329-.682.788-1.214 1.375-1.596.591-.387 1.28-.58 2.068-.58a3.91 3.91 0 0 1 1.659.341 3.17 3.17 0 0 1 1.21.954c.315.41.51.887.586 1.432h-1.341c-.103-.397-.33-.75-.682-1.056-.349-.311-.818-.466-1.409-.466-.523 0-.981.136-1.375.409-.39.269-.695.65-.915 1.142-.216.488-.324 1.062-.324 1.721 0 .675.106 1.262.318 1.762.216.5.519.888.909 1.165.394.276.856.414 1.387.414a2.4 2.4 0 0 0 .949-.181c.284-.122.524-.296.721-.523.197-.227.337-.5.421-.819h1.341c-.076.516-.264.98-.563 1.393-.295.409-.687.734-1.176.977-.485.239-1.049.358-1.693.358Zm6.642-3.364-.023-1.659h.273l3.818-3.886h1.659l-4.068 4.113h-.114l-1.545 1.432ZM172.79 93V81.364h1.341V93h-1.341Zm5.545 0-3.409-4.318.955-.932L180.04 93h-1.705Zm11.203.182c-.788 0-1.479-.188-2.074-.563-.59-.375-1.053-.9-1.386-1.573-.329-.675-.494-1.463-.494-2.364 0-.91.165-1.703.494-2.38.333-.679.796-1.205 1.386-1.58.595-.375 1.286-.563 2.074-.563.788 0 1.478.188 2.069.563.594.375 1.056.901 1.386 1.58.333.677.5 1.47.5 2.38 0 .901-.167 1.69-.5 2.364-.33.674-.792 1.198-1.386 1.573-.591.375-1.281.563-2.069.563Zm0-1.205c.599 0 1.091-.153 1.478-.46.386-.307.672-.71.858-1.21.185-.5.278-1.042.278-1.625 0-.584-.093-1.127-.278-1.63a2.755 2.755 0 0 0-.858-1.223c-.387-.31-.879-.465-1.478-.465-.598 0-1.091.155-1.477.465-.386.311-.672.718-.858 1.222a4.695 4.695 0 0 0-.278 1.63c0 .584.093 1.126.278 1.626.186.5.472.903.858 1.21.386.307.879.46 1.477.46ZM195.54 93v-8.727h1.295v1.318h.091c.159-.432.447-.782.864-1.051a2.54 2.54 0 0 1 1.409-.404c.098 0 .221.002.369.006s.26.01.335.017v1.364a3.926 3.926 0 0 0-.312-.051 3.08 3.08 0 0 0-.506-.04c-.424 0-.803.089-1.136.267a1.955 1.955 0 0 0-1.068 1.778V93h-1.341Zm11.112 0h-1.477l4.272-11.636h1.455L215.175 93h-1.478l-3.477-9.796h-.091L206.652 93Zm.545-4.546h5.955v1.25h-5.955v-1.25Zm13.495-4.181v1.136h-4.705v-1.136h4.705ZM217.396 93v-9.932c0-.5.118-.916.353-1.25.234-.333.539-.583.914-.75.375-.166.771-.25 1.188-.25.329 0 .598.027.807.08.208.053.363.102.466.148l-.387 1.158a6.673 6.673 0 0 0-.284-.085 1.722 1.722 0 0 0-.466-.05c-.443 0-.763.11-.96.334-.193.224-.29.551-.29.983V93h-1.341Zm5.175 0v-8.727h1.295v1.318h.091c.159-.432.447-.782.864-1.051a2.541 2.541 0 0 1 1.409-.404c.099 0 .222.002.369.006.148.004.26.01.336.017v1.364a4.073 4.073 0 0 0-.313-.051 3.071 3.071 0 0 0-.506-.04c-.424 0-.803.089-1.136.267a2.016 2.016 0 0 0-.784.727 1.964 1.964 0 0 0-.284 1.051V93h-1.341Zm5.953 0v-8.727h1.341V93h-1.341Zm.682-10.182a.953.953 0 0 1-.676-.267.857.857 0 0 1-.279-.642c0-.25.093-.464.279-.642a.953.953 0 0 1 .676-.267c.261 0 .485.089.67.267.19.178.285.392.285.642s-.095.464-.285.642a.932.932 0 0 1-.67.267Zm6.66 10.364c-.818 0-1.522-.193-2.113-.58a3.776 3.776 0 0 1-1.364-1.596c-.318-.678-.477-1.453-.477-2.324 0-.886.163-1.669.489-2.347.329-.682.787-1.214 1.375-1.596.59-.387 1.28-.58 2.068-.58.613 0 1.166.114 1.659.341.492.227.896.546 1.21.954.314.41.51.887.585 1.432h-1.341c-.102-.397-.329-.75-.681-1.056-.349-.311-.819-.466-1.41-.466-.522 0-.981.136-1.375.409-.39.269-.695.65-.914 1.142-.216.488-.324 1.062-.324 1.721 0 .675.106 1.262.318 1.762.216.5.519.888.909 1.165.394.276.856.414 1.386.414.349 0 .665-.06.949-.181a1.96 1.96 0 0 0 .722-.523c.197-.227.337-.5.42-.819h1.341a3.1 3.1 0 0 1-.562 1.393c-.296.409-.688.734-1.176.977-.485.239-1.05.358-1.694.358Zm7.961.022a3.548 3.548 0 0 1-1.506-.312 2.582 2.582 0 0 1-1.074-.915c-.265-.401-.398-.886-.398-1.454 0-.5.099-.906.296-1.216.197-.315.46-.56.79-.739a4.14 4.14 0 0 1 1.091-.397c.401-.092.804-.163 1.21-.217.53-.068.96-.119 1.29-.153.333-.038.575-.1.727-.187.155-.088.233-.239.233-.455v-.045c0-.561-.154-.997-.46-1.307-.303-.31-.764-.466-1.381-.466-.64 0-1.142.14-1.506.42-.363.28-.619.58-.767.898l-1.273-.455c.228-.53.531-.943.91-1.238.382-.3.799-.508 1.25-.625a5.183 5.183 0 0 1 1.34-.182 5.3 5.3 0 0 1 .966.102c.368.065.722.2 1.063.404.345.204.631.513.858.926.227.413.341.966.341 1.659V93h-1.341v-1.182h-.068c-.091.19-.243.392-.455.608-.212.216-.494.4-.847.551-.352.152-.782.227-1.289.227Zm.204-1.204c.531 0 .978-.104 1.341-.313a2.128 2.128 0 0 0 1.114-1.846v-1.227c-.057.068-.182.13-.375.187-.19.053-.409.1-.659.142a30.34 30.34 0 0 1-1.284.17 5.13 5.13 0 0 0-.978.222 1.687 1.687 0 0 0-.727.45c-.182.196-.273.465-.273.806 0 .466.173.818.517 1.057.349.235.79.352 1.324.352Zm7.584-4.25V93h-1.341v-8.727h1.296v1.363h.113c.205-.443.515-.799.932-1.068.417-.272.955-.409 1.614-.409.591 0 1.108.121 1.551.364a2.45 2.45 0 0 1 1.034 1.09c.246.486.369 1.1.369 1.841V93h-1.341v-5.454c0-.686-.178-1.22-.534-1.603-.356-.386-.844-.58-1.466-.58-.428 0-.81.093-1.147.279a1.988 1.988 0 0 0-.79.813c-.193.356-.29.787-.29 1.295ZM264.793 93h-1.478l4.273-11.636h1.455L273.315 93h-1.477l-3.477-9.796h-.091L264.793 93Zm.545-4.546h5.955v1.25h-5.955v-1.25ZM274.946 93v-8.727h1.295v1.363h.114c.182-.465.475-.827.881-1.085.405-.261.892-.392 1.46-.392.576 0 1.055.13 1.438.392.386.258.687.62.903 1.085h.091a2.54 2.54 0 0 1 1.006-1.073c.446-.27.982-.404 1.607-.404.781 0 1.419.244 1.915.733.496.485.745 1.24.745 2.267V93h-1.341v-5.84c0-.645-.176-1.105-.529-1.382a1.955 1.955 0 0 0-1.244-.414c-.614 0-1.089.185-1.426.556-.337.368-.506.834-.506 1.398V93h-1.364v-5.977c0-.496-.161-.896-.482-1.2-.322-.306-.737-.46-1.245-.46-.348 0-.674.093-.977.279a2.1 2.1 0 0 0-.727.773 2.28 2.28 0 0 0-.273 1.13V93h-1.341Zm17.565.182c-.841 0-1.566-.186-2.176-.557a3.733 3.733 0 0 1-1.403-1.568c-.326-.674-.489-1.459-.489-2.353 0-.893.163-1.681.489-2.363.329-.686.788-1.22 1.375-1.602.591-.387 1.28-.58 2.068-.58.455 0 .903.076 1.347.227a3.34 3.34 0 0 1 1.21.739c.363.337.653.784.869 1.34.216.558.324 1.243.324 2.058v.568h-6.727v-1.16h5.363c0-.492-.098-.931-.295-1.317a2.225 2.225 0 0 0-.83-.915c-.356-.224-.776-.335-1.261-.335-.534 0-.996.132-1.386.397a2.608 2.608 0 0 0-.892 1.023c-.209.42-.313.871-.313 1.352v.773c0 .66.114 1.218.341 1.676.231.455.551.801.96 1.04.409.235.885.352 1.426.352a2.9 2.9 0 0 0 .955-.148c.288-.102.536-.253.744-.454.209-.204.37-.458.483-.761l1.296.363a2.88 2.88 0 0 1-.688 1.16c-.322.329-.72.587-1.193.772a4.43 4.43 0 0 1-1.597.273Zm5.654-.182v-8.727h1.295v1.318h.091c.159-.432.447-.782.864-1.051a2.54 2.54 0 0 1 1.409-.404c.098 0 .221.002.369.006s.26.01.335.017v1.364a3.926 3.926 0 0 0-.312-.051 3.08 3.08 0 0 0-.506-.04c-.424 0-.803.089-1.136.267a1.955 1.955 0 0 0-1.068 1.778V93h-1.341Zm5.953 0v-8.727h1.341V93h-1.341Zm.682-10.182a.951.951 0 0 1-.676-.267.857.857 0 0 1-.279-.642c0-.25.093-.464.279-.642A.951.951 0 0 1 304.8 81c.261 0 .485.089.67.267.19.178.284.392.284.642s-.094.464-.284.642a.932.932 0 0 1-.67.267Zm6.66 10.364c-.818 0-1.522-.193-2.113-.58a3.776 3.776 0 0 1-1.364-1.596c-.318-.678-.477-1.453-.477-2.324 0-.886.163-1.669.488-2.347.33-.682.788-1.214 1.375-1.596.591-.387 1.281-.58 2.069-.58.613 0 1.166.114 1.659.341.492.227.895.546 1.21.954.314.41.509.887.585 1.432h-1.341c-.102-.397-.329-.75-.682-1.056-.348-.311-.818-.466-1.409-.466-.522 0-.981.136-1.375.409-.39.269-.695.65-.915 1.142-.215.488-.323 1.062-.323 1.721 0 .675.106 1.262.318 1.762.216.5.519.888.909 1.165.394.276.856.414 1.386.414.349 0 .665-.06.949-.181a1.96 1.96 0 0 0 .722-.523c.197-.227.337-.5.42-.819h1.341c-.076.516-.263.98-.562 1.393-.296.409-.688.734-1.177.977-.484.239-1.049.358-1.693.358Zm7.96.022a3.543 3.543 0 0 1-1.505-.312 2.582 2.582 0 0 1-1.074-.915c-.265-.401-.398-.886-.398-1.454 0-.5.099-.906.296-1.216.197-.315.46-.56.789-.739.33-.178.694-.31 1.091-.397.402-.092.805-.163 1.211-.217.53-.068.96-.119 1.289-.153.334-.038.576-.1.728-.187.155-.088.233-.239.233-.455v-.045c0-.561-.154-.997-.461-1.307-.303-.31-.763-.466-1.38-.466-.641 0-1.142.14-1.506.42-.364.28-.619.58-.767.898l-1.273-.455c.227-.53.53-.943.909-1.238.383-.3.8-.508 1.25-.625a5.196 5.196 0 0 1 1.341-.182c.28 0 .602.034.966.102.368.065.722.2 1.063.404.344.204.63.513.858.926.227.413.34.966.34 1.659V93h-1.34v-1.182h-.069c-.091.19-.242.392-.454.608-.212.216-.494.4-.847.551-.352.152-.782.227-1.29.227Zm.205-1.204c.53 0 .977-.104 1.341-.313.367-.208.644-.477.829-.806.19-.33.285-.677.285-1.04v-1.227c-.057.068-.182.13-.375.187-.19.053-.41.1-.66.142a29.56 29.56 0 0 1-1.284.17c-.348.046-.674.12-.977.222a1.681 1.681 0 0 0-.727.45c-.182.196-.273.465-.273.806 0 .466.172.818.517 1.057.349.235.79.352 1.324.352Zm7.584-4.25V93h-1.341v-8.727h1.295v1.363h.114c.205-.443.515-.799.932-1.068.416-.272.954-.409 1.613-.409.591 0 1.108.121 1.552.364.443.238.787.602 1.034 1.09.246.486.369 1.1.369 1.841V93h-1.341v-5.454c0-.686-.178-1.22-.534-1.603-.356-.386-.845-.58-1.466-.58a2.34 2.34 0 0 0-1.148.279 1.992 1.992 0 0 0-.789.813c-.194.356-.29.787-.29 1.295ZM200.425 232v-11.636h1.409v5.181h6.204v-5.181h1.409V232h-1.409v-5.205h-6.204V232h-1.409Zm11.662 0v-8.727h1.341V232h-1.341Zm.681-10.182a.955.955 0 0 1-.676-.267.86.86 0 0 1-.278-.642.86.86 0 0 1 .278-.642.955.955 0 0 1 .676-.267c.262 0 .485.089.671.267a.851.851 0 0 1 .284.642c0 .25-.095.464-.284.642a.935.935 0 0 1-.671.267Zm9.297 3.409-1.204.341a2.253 2.253 0 0 0-.335-.585 1.63 1.63 0 0 0-.591-.477c-.25-.125-.57-.188-.961-.188-.534 0-.979.123-1.335.37-.352.242-.528.551-.528.926 0 .333.121.596.363.789.243.194.622.355 1.137.483l1.295.319c.781.189 1.362.479 1.745.869.382.386.573.884.573 1.494 0 .5-.144.947-.431 1.341-.284.394-.682.705-1.194.932-.511.227-1.106.341-1.784.341-.89 0-1.627-.193-2.21-.58-.583-.386-.953-.95-1.108-1.693l1.273-.318c.121.47.35.822.687 1.057.341.235.786.352 1.336.352.625 0 1.121-.133 1.488-.398.371-.269.557-.591.557-.966 0-.303-.106-.556-.318-.761-.212-.208-.538-.364-.977-.466l-1.455-.341c-.799-.189-1.386-.483-1.761-.88-.372-.402-.557-.904-.557-1.506 0-.493.138-.928.415-1.307a2.82 2.82 0 0 1 1.142-.892c.485-.216 1.034-.324 1.647-.324.864 0 1.542.189 2.035.568.496.379.848.879 1.056 1.5Zm2.178 10.046v-12h1.295v1.386h.159c.099-.151.235-.345.41-.579.178-.239.431-.451.761-.637.333-.189.784-.284 1.352-.284.735 0 1.383.184 1.943.551.561.368.998.888 1.313 1.563.314.674.471 1.469.471 2.386 0 .924-.157 1.725-.471 2.403-.315.675-.75 1.197-1.307 1.569-.557.367-1.199.551-1.926.551-.561 0-1.01-.093-1.347-.279-.337-.189-.596-.403-.778-.642a8.677 8.677 0 0 1-.421-.602h-.113v4.614h-1.341Zm1.318-7.637c0 .659.097 1.241.29 1.745.193.5.475.892.846 1.176.372.28.826.42 1.364.42.561 0 1.028-.147 1.403-.443.379-.299.663-.701.853-1.204.193-.508.29-1.072.29-1.694 0-.613-.095-1.166-.285-1.659-.185-.496-.467-.888-.846-1.176-.375-.292-.847-.437-1.415-.437-.545 0-1.004.138-1.375.414-.371.273-.651.656-.841 1.148-.189.489-.284 1.059-.284 1.71Zm11 4.569a3.554 3.554 0 0 1-1.506-.313 2.583 2.583 0 0 1-1.073-.915c-.266-.401-.398-.886-.398-1.454 0-.5.098-.906.295-1.216.197-.315.46-.561.79-.739.33-.178.693-.31 1.091-.398.401-.09.805-.162 1.21-.215.53-.069.96-.12 1.29-.154.333-.038.576-.1.727-.187.156-.087.233-.239.233-.455v-.045c0-.561-.153-.997-.46-1.307-.303-.311-.763-.466-1.381-.466-.64 0-1.142.14-1.505.42-.364.281-.62.58-.767.898l-1.273-.454c.227-.531.53-.944.909-1.239a3.398 3.398 0 0 1 1.25-.625 5.193 5.193 0 0 1 1.341-.182c.28 0 .602.034.966.102.367.065.721.199 1.062.404.345.204.631.513.858.926.227.413.341.966.341 1.659V232h-1.341v-1.182h-.068c-.091.19-.242.392-.455.608-.212.216-.494.4-.846.551-.352.152-.782.228-1.29.228Zm.205-1.205c.53 0 .977-.104 1.341-.312a2.14 2.14 0 0 0 .829-.807c.189-.33.284-.676.284-1.04v-1.227c-.057.068-.182.13-.375.187a6.143 6.143 0 0 1-.659.142c-.246.038-.487.072-.722.102-.231.027-.418.05-.562.069a5.114 5.114 0 0 0-.977.221c-.3.099-.542.248-.728.449-.181.197-.272.466-.272.807 0 .466.172.818.517 1.057.348.235.79.352 1.324.352Zm7.583-4.25V232h-1.34v-8.727h1.295v1.363h.114c.204-.443.515-.799.931-1.068.417-.273.955-.409 1.614-.409.591 0 1.108.121 1.551.364.443.238.788.602 1.034 1.091.247.484.37 1.098.37 1.841V232h-1.341v-5.455c0-.685-.178-1.219-.534-1.602-.356-.386-.845-.579-1.466-.579-.428 0-.811.092-1.148.278a1.992 1.992 0 0 0-.79.813c-.193.356-.29.787-.29 1.295Zm8.019 5.25v-8.727h1.341V232h-1.341Zm.682-10.182a.951.951 0 0 1-.676-.267.857.857 0 0 1-.279-.642c0-.25.093-.464.279-.642a.951.951 0 0 1 .676-.267c.261 0 .485.089.67.267.19.178.284.392.284.642s-.094.464-.284.642a.932.932 0 0 1-.67.267Zm6.66 10.364c-.818 0-1.522-.193-2.113-.58a3.772 3.772 0 0 1-1.364-1.596c-.318-.678-.477-1.453-.477-2.324 0-.887.163-1.669.488-2.347.33-.682.788-1.214 1.375-1.596.591-.387 1.281-.58 2.069-.58.613 0 1.166.114 1.659.341.492.227.895.545 1.21.955.314.409.509.886.585 1.431h-1.341c-.102-.397-.329-.75-.682-1.056-.348-.311-.818-.466-1.409-.466-.522 0-.981.136-1.375.409-.39.269-.695.649-.915 1.142-.215.488-.323 1.062-.323 1.721 0 .675.106 1.262.318 1.762.216.5.519.888.909 1.164.394.277.856.415 1.386.415.349 0 .665-.06.949-.182.284-.121.525-.295.722-.522.197-.228.337-.5.42-.818h1.341a3.112 3.112 0 0 1-.562 1.392 3.153 3.153 0 0 1-1.177.977c-.484.238-1.049.358-1.693.358Zm13.438 0c-.788 0-1.479-.188-2.074-.563-.591-.375-1.053-.899-1.386-1.574-.33-.674-.495-1.462-.495-2.363 0-.909.165-1.703.495-2.381.333-.678.795-1.204 1.386-1.579.595-.375 1.286-.563 2.074-.563.788 0 1.477.188 2.068.563.595.375 1.057.901 1.386 1.579.334.678.5 1.472.5 2.381 0 .901-.166 1.689-.5 2.363a3.758 3.758 0 0 1-1.386 1.574c-.591.375-1.28.563-2.068.563Zm0-1.205c.598 0 1.091-.153 1.477-.46a2.72 2.72 0 0 0 .858-1.21c.186-.5.278-1.042.278-1.625 0-.584-.092-1.127-.278-1.631a2.748 2.748 0 0 0-.858-1.221c-.386-.311-.879-.466-1.477-.466-.599 0-1.091.155-1.478.466-.386.31-.672.717-.858 1.221a4.695 4.695 0 0 0-.278 1.631c0 .583.093 1.125.278 1.625.186.5.472.903.858 1.21.387.307.879.46 1.478.46Zm6.001 1.023v-8.727h1.296v1.318h.091c.159-.432.446-.782.863-1.051a2.544 2.544 0 0 1 1.409-.404c.099 0 .222.002.37.006.147.004.259.01.335.017v1.364a3.462 3.462 0 0 0-.313-.051 3.014 3.014 0 0 0-.505-.04c-.425 0-.803.089-1.137.267a2.019 2.019 0 0 0-.784.727 1.963 1.963 0 0 0-.284 1.051V232h-1.341Zm10.635 0v-11.636h1.409v10.386h5.409V232h-6.818Zm11.386.205a3.55 3.55 0 0 1-1.505-.313 2.58 2.58 0 0 1-1.074-.915c-.265-.401-.398-.886-.398-1.454 0-.5.099-.906.296-1.216.197-.315.46-.561.789-.739a4.2 4.2 0 0 1 1.091-.398c.402-.09.805-.162 1.211-.215.53-.069.96-.12 1.289-.154.334-.038.576-.1.728-.187.155-.087.233-.239.233-.455v-.045c0-.561-.154-.997-.461-1.307-.303-.311-.763-.466-1.38-.466-.641 0-1.142.14-1.506.42-.364.281-.619.58-.767.898l-1.273-.454c.227-.531.53-.944.909-1.239.383-.299.8-.508 1.25-.625a5.205 5.205 0 0 1 1.341-.182c.28 0 .602.034.966.102.368.065.722.199 1.063.404.344.204.63.513.858.926.227.413.34.966.34 1.659V232h-1.34v-1.182h-.069c-.091.19-.242.392-.454.608-.212.216-.494.4-.847.551-.352.152-.782.228-1.29.228Zm.205-1.205c.53 0 .977-.104 1.341-.312a2.133 2.133 0 0 0 1.114-1.847v-1.227c-.057.068-.182.13-.375.187-.19.053-.41.101-.66.142a27.7 27.7 0 0 1-.721.102c-.231.027-.419.05-.563.069a5.114 5.114 0 0 0-.977.221 1.684 1.684 0 0 0-.727.449c-.182.197-.273.466-.273.807 0 .466.172.818.517 1.057.349.235.79.352 1.324.352Zm10.038-7.727v1.136h-4.522v-1.136h4.522Zm-3.204-2.091h1.341v8.318c0 .379.055.663.164.852a.853.853 0 0 0 .432.375c.178.061.366.091.563.091.148 0 .269-.007.363-.023l.228-.045.272 1.205c-.09.034-.217.068-.38.102-.163.038-.37.057-.62.057-.378 0-.75-.082-1.113-.245a2.217 2.217 0 0 1-.898-.744c-.235-.333-.352-.754-.352-1.261v-8.682ZM313.43 232v-8.727h1.341V232h-1.341Zm.682-10.182a.953.953 0 0 1-.676-.267.856.856 0 0 1-.278-.642c0-.25.092-.464.278-.642a.953.953 0 0 1 .676-.267c.262 0 .485.089.671.267a.851.851 0 0 1 .284.642c0 .25-.095.464-.284.642a.935.935 0 0 1-.671.267Zm4.456 4.932V232h-1.341v-8.727h1.296v1.363h.113c.205-.443.516-.799.932-1.068.417-.273.955-.409 1.614-.409.591 0 1.108.121 1.551.364.443.238.788.602 1.034 1.091.246.484.369 1.098.369 1.841V232h-1.341v-5.455c0-.685-.178-1.219-.534-1.602-.356-.386-.844-.579-1.466-.579-.428 0-.81.092-1.147.278a1.985 1.985 0 0 0-.79.813c-.193.356-.29.787-.29 1.295Zm9.019-3.477 2.091 3.568 2.09-3.568h1.546l-2.818 4.363 2.818 4.364h-1.546l-2.09-3.386-2.091 3.386h-1.546l2.773-4.364-2.773-4.363h1.546ZM189.616 178.614v-1.25h8.728v1.25h-3.659V189h-1.409v-10.386h-3.66ZM201.314 189l-2.659-8.727h1.409l1.886 6.682h.091l1.864-6.682h1.432l1.841 6.659h.09l1.887-6.659h1.409L207.905 189h-1.318l-1.909-6.705h-.137L202.632 189h-1.318Zm14.271.182c-.788 0-1.479-.188-2.074-.563-.591-.375-1.053-.899-1.386-1.574-.33-.674-.494-1.462-.494-2.363 0-.909.164-1.703.494-2.381.333-.678.795-1.204 1.386-1.579.595-.375 1.286-.563 2.074-.563.788 0 1.478.188 2.068.563.595.375 1.057.901 1.387 1.579.333.678.5 1.472.5 2.381 0 .901-.167 1.689-.5 2.363-.33.675-.792 1.199-1.387 1.574-.59.375-1.28.563-2.068.563Zm0-1.205c.599 0 1.091-.153 1.477-.46.387-.307.673-.71.858-1.21.186-.5.279-1.042.279-1.625 0-.584-.093-1.127-.279-1.631a2.732 2.732 0 0 0-.858-1.221c-.386-.311-.878-.466-1.477-.466-.598 0-1.091.155-1.477.466-.386.31-.672.717-.858 1.221a4.671 4.671 0 0 0-.278 1.631c0 .583.092 1.125.278 1.625.186.5.472.903.858 1.21.386.307.879.46 1.477.46Zm14.047 1.205c-.788 0-1.479-.188-2.074-.563-.591-.375-1.053-.899-1.386-1.574-.33-.674-.494-1.462-.494-2.363 0-.909.164-1.703.494-2.381.333-.678.795-1.204 1.386-1.579.595-.375 1.286-.563 2.074-.563.788 0 1.477.188 2.068.563.595.375 1.057.901 1.387 1.579.333.678.5 1.472.5 2.381 0 .901-.167 1.689-.5 2.363-.33.675-.792 1.199-1.387 1.574-.591.375-1.28.563-2.068.563Zm0-1.205c.599 0 1.091-.153 1.477-.46.387-.307.673-.71.858-1.21.186-.5.279-1.042.279-1.625 0-.584-.093-1.127-.279-1.631a2.732 2.732 0 0 0-.858-1.221c-.386-.311-.878-.466-1.477-.466-.598 0-1.091.155-1.477.466-.387.31-.673.717-.858 1.221a4.672 4.672 0 0 0-.279 1.631c0 .583.093 1.125.279 1.625.185.5.471.903.858 1.21.386.307.879.46 1.477.46Zm6.002 1.023v-8.727h1.295v1.318h.091c.159-.432.447-.782.864-1.051a2.54 2.54 0 0 1 1.409-.404c.098 0 .221.002.369.006a5.5 5.5 0 0 1 .335.017v1.364a3.351 3.351 0 0 0-.312-.051 3.026 3.026 0 0 0-.506-.04c-.424 0-.803.089-1.136.267a1.955 1.955 0 0 0-1.069 1.778V189h-1.34Zm10.634-11.636h1.682l3.955 9.659h.136l3.955-9.659h1.682V189h-1.319v-8.841h-.113L252.609 189h-1.272l-3.637-8.841h-.113V189h-1.319v-11.636Zm17.598 11.818c-.787 0-1.479-.188-2.073-.563-.591-.375-1.053-.899-1.387-1.574-.329-.674-.494-1.462-.494-2.363 0-.909.165-1.703.494-2.381.334-.678.796-1.204 1.387-1.579.594-.375 1.286-.563 2.073-.563.788 0 1.478.188 2.069.563.594.375 1.056.901 1.386 1.579.333.678.5 1.472.5 2.381 0 .901-.167 1.689-.5 2.363a3.772 3.772 0 0 1-1.386 1.574c-.591.375-1.281.563-2.069.563Zm0-1.205c.599 0 1.091-.153 1.478-.46a2.72 2.72 0 0 0 .858-1.21c.185-.5.278-1.042.278-1.625 0-.584-.093-1.127-.278-1.631a2.748 2.748 0 0 0-.858-1.221c-.387-.311-.879-.466-1.478-.466-.598 0-1.09.155-1.477.466-.386.31-.672.717-.858 1.221a4.695 4.695 0 0 0-.278 1.631c0 .583.093 1.125.278 1.625.186.5.472.903.858 1.21.387.307.879.46 1.477.46Zm6.002 1.023v-8.727h1.295v1.318h.091c.159-.432.447-.782.864-1.051a2.542 2.542 0 0 1 1.409-.404c.098 0 .222.002.369.006.148.004.26.01.336.017v1.364a3.462 3.462 0 0 0-.313-.051 3.026 3.026 0 0 0-.506-.04c-.424 0-.803.089-1.136.267-.33.174-.591.417-.784.727a1.963 1.963 0 0 0-.284 1.051V189h-1.341Zm9.346.182c-.84 0-1.566-.186-2.176-.557a3.736 3.736 0 0 1-1.403-1.568c-.326-.674-.489-1.459-.489-2.352 0-.894.163-1.682.489-2.364.329-.686.788-1.22 1.375-1.602.591-.387 1.28-.58 2.068-.58.455 0 .904.076 1.347.227.443.152.846.398 1.21.739.364.337.653.784.869 1.341.216.557.324 1.242.324 2.057v.568h-6.727v-1.159h5.363c0-.493-.098-.932-.295-1.318a2.219 2.219 0 0 0-.83-.915c-.356-.224-.776-.335-1.261-.335-.534 0-.996.132-1.386.397a2.617 2.617 0 0 0-.892 1.023 2.997 2.997 0 0 0-.313 1.352v.773c0 .659.114 1.218.341 1.676.231.455.551.801.96 1.04.409.235.885.352 1.426.352.353 0 .671-.049.955-.147.288-.103.536-.254.744-.455.209-.205.37-.458.483-.761l1.296.363c-.137.44-.366.826-.688 1.159-.322.33-.719.587-1.193.773a4.421 4.421 0 0 1-1.597.273ZM289.55 189v-11.636h3.932c.909 0 1.655.155 2.238.466.584.306 1.015.729 1.296 1.267.28.537.42 1.149.42 1.835 0 .685-.14 1.293-.42 1.824-.281.53-.711.947-1.29 1.25-.58.299-1.32.449-2.222.449h-3.182v-1.273h3.137c.621 0 1.121-.091 1.5-.273.382-.182.659-.439.829-.773.175-.337.262-.738.262-1.204 0-.466-.087-.873-.262-1.222a1.784 1.784 0 0 0-.835-.807c-.382-.193-.888-.289-1.517-.289h-2.477V189h-1.409Zm5.477-5.227 2.864 5.227h-1.637l-2.818-5.227h1.591Zm7.143 5.432a3.55 3.55 0 0 1-1.505-.313 2.58 2.58 0 0 1-1.074-.915c-.265-.401-.398-.886-.398-1.454 0-.5.099-.906.296-1.216.197-.315.46-.561.789-.739a4.2 4.2 0 0 1 1.091-.398c.402-.09.805-.162 1.211-.215.53-.069.96-.12 1.289-.154.334-.038.576-.1.728-.187.155-.087.233-.239.233-.455v-.045c0-.561-.154-.997-.461-1.307-.303-.311-.763-.466-1.38-.466-.641 0-1.142.14-1.506.42-.364.281-.619.58-.767.898l-1.273-.454c.227-.531.53-.944.909-1.239.383-.299.8-.508 1.25-.625a5.205 5.205 0 0 1 1.341-.182c.28 0 .602.034.966.102.368.065.722.199 1.063.404.344.204.63.513.858.926.227.413.34.966.34 1.659V189h-1.34v-1.182h-.069c-.091.19-.242.392-.454.608-.212.216-.494.4-.847.551-.352.152-.782.228-1.29.228Zm.205-1.205c.53 0 .977-.104 1.341-.312a2.133 2.133 0 0 0 1.114-1.847v-1.227c-.057.068-.182.13-.375.187-.19.053-.41.101-.66.142a27.7 27.7 0 0 1-.721.102c-.231.027-.419.05-.563.069a5.114 5.114 0 0 0-.977.221 1.684 1.684 0 0 0-.727.449c-.182.197-.273.466-.273.807 0 .466.172.818.517 1.057.349.235.79.352 1.324.352Zm9.788 1.182c-.818 0-1.522-.193-2.113-.58a3.772 3.772 0 0 1-1.364-1.596c-.318-.678-.477-1.453-.477-2.324 0-.887.163-1.669.488-2.347.33-.682.788-1.214 1.375-1.596.591-.387 1.281-.58 2.069-.58.613 0 1.166.114 1.659.341.492.227.896.545 1.21.955.314.409.509.886.585 1.431h-1.341c-.102-.397-.329-.75-.682-1.056-.348-.311-.818-.466-1.409-.466-.522 0-.981.136-1.375.409-.39.269-.695.649-.914 1.142-.216.488-.324 1.062-.324 1.721 0 .675.106 1.262.318 1.762.216.5.519.888.909 1.164.394.277.856.415 1.386.415.349 0 .665-.06.949-.182.284-.121.525-.295.722-.522.197-.228.337-.5.42-.818h1.341a3.112 3.112 0 0 1-.562 1.392 3.158 3.158 0 0 1-1.176.977c-.485.238-1.05.358-1.694.358Zm9.051 0c-.84 0-1.566-.186-2.176-.557a3.736 3.736 0 0 1-1.403-1.568c-.326-.674-.489-1.459-.489-2.352 0-.894.163-1.682.489-2.364.329-.686.788-1.22 1.375-1.602.591-.387 1.28-.58 2.068-.58.455 0 .904.076 1.347.227.443.152.846.398 1.21.739.364.337.653.784.869 1.341.216.557.324 1.242.324 2.057v.568h-6.727v-1.159h5.363c0-.493-.098-.932-.295-1.318a2.219 2.219 0 0 0-.83-.915c-.356-.224-.776-.335-1.261-.335-.534 0-.996.132-1.386.397a2.617 2.617 0 0 0-.892 1.023 2.997 2.997 0 0 0-.313 1.352v.773c0 .659.114 1.218.341 1.676.231.455.551.801.96 1.04.409.235.885.352 1.426.352.353 0 .671-.049.955-.147.288-.103.536-.254.744-.455.209-.205.37-.458.483-.761l1.296.363c-.137.44-.366.826-.688 1.159-.322.33-.719.587-1.193.773a4.421 4.421 0 0 1-1.597.273Zm11.836-6.955-1.205.341a2.224 2.224 0 0 0-.335-.585 1.63 1.63 0 0 0-.591-.477c-.25-.125-.57-.188-.96-.188-.534 0-.979.123-1.335.37-.353.242-.529.551-.529.926 0 .333.121.596.364.789.242.194.621.355 1.136.483l1.296.319c.78.189 1.361.479 1.744.869.383.386.574.884.574 1.494 0 .5-.144.947-.432 1.341-.284.394-.682.705-1.193.932-.512.227-1.106.341-1.784.341-.89 0-1.627-.193-2.211-.58-.583-.386-.952-.95-1.107-1.693l1.272-.318c.121.47.351.822.688 1.057.341.235.786.352 1.335.352.625 0 1.121-.133 1.489-.398.371-.269.556-.591.556-.966 0-.303-.106-.556-.318-.761-.212-.208-.538-.364-.977-.466l-1.455-.341c-.799-.189-1.386-.483-1.761-.88-.371-.402-.557-.904-.557-1.506 0-.493.139-.928.415-1.307a2.82 2.82 0 0 1 1.142-.892c.485-.216 1.034-.324 1.648-.324.863 0 1.541.189 2.034.568a3.07 3.07 0 0 1 1.057 1.5Z" fill="#000"/><path d="M750.841 45.16c-.667 0-1.267-.133-1.801-.399a3.346 3.346 0 0 1-1.284-1.09 2.979 2.979 0 0 1-.529-1.58h1.364c.053.526.292.962.716 1.307.428.34.939.511 1.534.511.477 0 .901-.112 1.273-.335.375-.224.668-.53.88-.92a2.73 2.73 0 0 0 .324-1.336c0-.507-.112-.96-.335-1.358a2.464 2.464 0 0 0-.909-.949 2.568 2.568 0 0 0-1.324-.352 3.637 3.637 0 0 0-1.097.165c-.375.11-.683.252-.926.426l-1.318-.16.705-5.726h6.045v1.25h-4.864l-.409 3.431h.069a3.02 3.02 0 0 1 .897-.471c.36-.125.735-.188 1.125-.188.712 0 1.347.17 1.904.512.56.337 1 .799 1.318 1.386.322.587.483 1.258.483 2.011 0 .743-.167 1.406-.5 1.99a3.656 3.656 0 0 1-1.364 1.374c-.579.333-1.238.5-1.977.5Zm9.962 0a4.353 4.353 0 0 1-1.432-.274 3.425 3.425 0 0 1-1.307-.88c-.394-.417-.71-.98-.949-1.688-.239-.712-.358-1.606-.358-2.682 0-1.03.097-1.943.29-2.738.193-.8.473-1.472.841-2.017.367-.55.81-.966 1.329-1.25.523-.284 1.112-.426 1.767-.426.652 0 1.231.13 1.739.392a3.32 3.32 0 0 1 1.25 1.08c.322.461.53.993.625 1.596h-1.386a2.573 2.573 0 0 0-.75-1.301c-.372-.345-.864-.517-1.478-.517-.901 0-1.611.392-2.13 1.176-.515.784-.775 1.884-.779 3.3h.091a3.41 3.41 0 0 1 2.864-1.545c.666 0 1.276.167 1.829.5.553.33.997.786 1.33 1.37.333.58.5 1.244.5 1.994 0 .72-.161 1.379-.483 1.977a3.68 3.68 0 0 1-1.358 1.42c-.58.35-1.261.52-2.045.512Zm0-1.25c.477 0 .905-.12 1.284-.359.382-.239.683-.559.903-.96.224-.402.335-.849.335-1.341 0-.481-.108-.919-.324-1.313a2.468 2.468 0 0 0-.88-.948 2.331 2.331 0 0 0-1.273-.353c-.36 0-.695.072-1.006.216-.31.14-.583.334-.818.58a2.788 2.788 0 0 0-.545.846 2.525 2.525 0 0 0-.199.995 2.693 2.693 0 0 0 1.221 2.267c.383.246.817.37 1.302.37Zm6.573 1.18c-.28 0-.52-.1-.721-.3a.983.983 0 0 1-.301-.722c0-.28.1-.52.301-.721a.984.984 0 0 1 .721-.302c.281 0 .521.1.722.302.201.2.301.44.301.721a.96.96 0 0 1-.142.512c-.091.155-.214.28-.369.375a.976.976 0 0 1-.512.136Zm3.134-2.476v-1.16l5.114-8.09h.84v1.795h-.568l-3.863 6.114v.09h6.886v1.25h-8.409ZM775.987 45V33.364h1.341V45h-1.341Zm10.993-2.182v-.613c0-.425.087-.813.261-1.165.179-.356.436-.64.773-.852.341-.216.754-.324 1.239-.324.492 0 .905.108 1.238.324.334.212.586.496.756.852.171.352.256.74.256 1.165v.613c0 .424-.087.815-.262 1.17a2.06 2.06 0 0 1-.761.853c-.333.212-.742.318-1.227.318-.493 0-.907-.106-1.244-.318a2.105 2.105 0 0 1-.768-.852 2.63 2.63 0 0 1-.261-1.17Zm1.159-.613v.613c0 .352.084.669.25.949.167.277.455.415.864.415.398 0 .678-.138.841-.415.166-.28.25-.597.25-.949v-.613c0-.353-.08-.667-.239-.944-.159-.28-.443-.42-.852-.42-.398 0-.684.14-.858.42-.171.277-.256.591-.256.944Zm-6.954-6.046v-.614c0-.424.087-.812.261-1.164.178-.356.436-.64.773-.853.341-.215.754-.323 1.238-.323.493 0 .906.108 1.239.323.333.212.585.497.756.853.17.352.255.74.255 1.164v.614c0 .424-.087.815-.261 1.17a2.06 2.06 0 0 1-.761.853c-.334.212-.743.318-1.228.318-.492 0-.907-.106-1.244-.318a2.103 2.103 0 0 1-.767-.852 2.63 2.63 0 0 1-.261-1.17Zm1.159-.614v.614c0 .352.083.669.25.949.166.277.454.415.863.415.398 0 .678-.139.841-.415.167-.28.25-.597.25-.949v-.614c0-.352-.079-.666-.238-.943-.159-.28-.444-.42-.853-.42-.397 0-.683.14-.858.42-.17.277-.255.591-.255.944ZM781.616 45l8-11.636h1.296l-8 11.636h-1.296ZM479.295 81.364V93h-1.409V82.84h-.068l-2.841 1.887v-1.431l2.909-1.932h1.409Zm6.983 11.795c-.666 0-1.267-.133-1.801-.398a3.346 3.346 0 0 1-1.284-1.09 2.97 2.97 0 0 1-.528-1.58h1.363c.053.526.292.962.716 1.307.428.34.94.511 1.534.511.478 0 .902-.112 1.273-.335.375-.224.669-.53.881-.92a2.73 2.73 0 0 0 .324-1.336c0-.507-.112-.96-.336-1.358a2.45 2.45 0 0 0-.909-.949 2.565 2.565 0 0 0-1.323-.352 3.633 3.633 0 0 0-1.097.165c-.375.11-.684.252-.926.426l-1.318-.16.704-5.726h6.046v1.25h-4.864l-.409 3.431h.068c.239-.189.538-.346.898-.471s.735-.188 1.125-.188c.712 0 1.346.17 1.903.512.561.337 1 .799 1.318 1.386.322.587.483 1.258.483 2.011 0 .743-.166 1.406-.5 1.99a3.654 3.654 0 0 1-1.363 1.374c-.58.333-1.239.5-1.978.5Zm6.661-.068c-.28 0-.521-.1-.722-.301a.987.987 0 0 1-.301-.722c0-.28.101-.52.301-.721a.986.986 0 0 1 .722-.301c.28 0 .521.1.722.3.2.201.301.442.301.722a1.058 1.058 0 0 1-.512.886.972.972 0 0 1-.511.137Zm3.133-2.477v-1.16l5.114-8.09h.841v1.795h-.568l-3.864 6.114v.09h6.887v1.25h-8.41ZM501.55 93V81.364h1.341V93h-1.341Zm10.993-2.182v-.614c0-.424.087-.812.261-1.164.178-.356.436-.64.773-.853.341-.215.753-.323 1.238-.323.493 0 .906.108 1.239.323.333.213.585.497.756.853.17.352.255.74.255 1.164v.614c0 .424-.087.815-.261 1.17a2.06 2.06 0 0 1-.761.853c-.334.212-.743.318-1.228.318-.492 0-.907-.106-1.244-.318a2.103 2.103 0 0 1-.767-.852 2.63 2.63 0 0 1-.261-1.17Zm1.159-.614v.614c0 .353.083.669.25.949.166.277.454.415.863.415.398 0 .678-.138.841-.415.167-.28.25-.596.25-.949v-.614c0-.352-.079-.666-.238-.943-.159-.28-.444-.42-.853-.42-.397 0-.683.14-.858.42-.17.277-.255.591-.255.944Zm-6.955-6.045v-.614c0-.424.087-.812.262-1.164.178-.356.435-.64.772-.853.341-.216.754-.324 1.239-.324.492 0 .905.109 1.239.324.333.212.585.497.755.853.171.352.256.74.256 1.165v.613c0 .424-.087.814-.261 1.17a2.07 2.07 0 0 1-.762.853c-.333.212-.742.318-1.227.318-.493 0-.907-.106-1.244-.318a2.096 2.096 0 0 1-.767-.853 2.617 2.617 0 0 1-.262-1.17Zm1.159-.614v.614c0 .352.084.669.25.949.167.276.455.415.864.415.398 0 .678-.138.841-.415.166-.28.25-.597.25-.949v-.614c0-.352-.08-.666-.239-.943-.159-.28-.443-.42-.852-.42-.398 0-.684.14-.858.42-.171.277-.256.591-.256.944ZM507.179 93l8-11.636h1.295l-8 11.636h-1.295ZM445.295 129.364V141h-1.409v-10.159h-.068l-2.841 1.886v-1.432l2.909-1.931h1.409Zm7.143 11.795c-.857 0-1.586-.233-2.188-.699-.602-.469-1.062-1.149-1.381-2.04-.318-.893-.477-1.973-.477-3.238 0-1.258.159-2.332.477-3.222.322-.894.784-1.576 1.387-2.045.606-.474 1.333-.71 2.182-.71.848 0 1.573.236 2.176.71.606.469 1.068 1.151 1.386 2.045.322.89.483 1.964.483 3.222 0 1.265-.159 2.345-.477 3.238-.318.891-.779 1.571-1.381 2.04-.602.466-1.331.699-2.187.699Zm0-1.25c.848 0 1.507-.409 1.977-1.227.469-.818.704-1.985.704-3.5 0-1.008-.108-1.866-.324-2.574-.212-.708-.518-1.248-.92-1.619a2.029 2.029 0 0 0-1.437-.557c-.841 0-1.499.415-1.972 1.244-.474.826-.71 1.994-.71 3.506 0 1.007.106 1.863.318 2.568.212.705.517 1.241.915 1.608.401.367.884.551 1.449.551Zm6.798 1.182a.983.983 0 0 1-.722-.301.985.985 0 0 1-.301-.722c0-.28.1-.521.301-.721a.984.984 0 0 1 .722-.302c.28 0 .521.101.721.302.201.2.302.441.302.721a.965.965 0 0 1-.143.512 1.06 1.06 0 0 1-.369.375.981.981 0 0 1-.511.136Zm6.9.068c-.75 0-1.418-.129-2.005-.386-.584-.258-1.048-.616-1.392-1.074a2.883 2.883 0 0 1-.557-1.608h1.432c.03.375.159.699.386.971.227.269.525.478.892.626.367.147.775.221 1.222.221.5 0 .943-.087 1.329-.261.387-.175.69-.417.909-.728.22-.31.33-.67.33-1.079 0-.428-.106-.805-.318-1.131-.212-.329-.523-.587-.932-.772-.409-.186-.909-.279-1.5-.279H465v-1.25h.932c.462 0 .867-.083 1.216-.25.352-.167.627-.401.824-.704.2-.303.301-.66.301-1.069a1.96 1.96 0 0 0-.262-1.028 1.785 1.785 0 0 0-.738-.682c-.315-.163-.686-.244-1.114-.244-.401 0-.78.074-1.136.221-.353.144-.64.355-.864.631a1.646 1.646 0 0 0-.364.989h-1.363c.023-.61.206-1.144.551-1.603a3.464 3.464 0 0 1 1.352-1.079 4.364 4.364 0 0 1 1.847-.386c.72 0 1.337.145 1.852.437a3.09 3.09 0 0 1 1.188 1.142c.276.474.414.985.414 1.534 0 .655-.172 1.214-.517 1.676a2.623 2.623 0 0 1-1.392.961v.09c.735.122 1.309.434 1.722.938.413.5.619 1.119.619 1.858 0 .632-.172 1.201-.517 1.704-.341.5-.807.894-1.398 1.182-.59.288-1.263.432-2.017.432Zm12.188-2.341v-.613c0-.425.087-.813.261-1.165.178-.356.436-.64.773-.852.341-.216.754-.324 1.239-.324.492 0 .905.108 1.238.324.334.212.585.496.756.852.17.352.256.74.256 1.165v.613c0 .424-.088.815-.262 1.171-.17.352-.424.636-.761.852-.333.212-.743.318-1.227.318-.493 0-.908-.106-1.245-.318a2.105 2.105 0 0 1-.767-.852 2.633 2.633 0 0 1-.261-1.171Zm1.159-.613v.613c0 .352.083.669.25.949.167.277.455.415.864.415.397 0 .678-.138.841-.415.166-.28.25-.597.25-.949v-.613c0-.353-.08-.667-.239-.944-.159-.28-.443-.42-.852-.42-.398 0-.684.14-.858.42a1.758 1.758 0 0 0-.256.944Zm-6.955-6.046v-.614c0-.424.088-.812.262-1.164.178-.356.435-.64.772-.853.341-.216.754-.323 1.239-.323.493 0 .905.107 1.239.323.333.213.585.497.755.853.171.352.256.74.256 1.164v.614c0 .424-.087.814-.261 1.171a2.065 2.065 0 0 1-.762.852c-.333.212-.742.318-1.227.318-.492 0-.907-.106-1.244-.318a2.105 2.105 0 0 1-.767-.852 2.636 2.636 0 0 1-.262-1.171Zm1.16-.614v.614c0 .352.083.669.25.949.166.276.454.415.863.415.398 0 .678-.139.841-.415.167-.28.25-.597.25-.949v-.614c0-.352-.08-.666-.239-.943-.159-.28-.443-.42-.852-.42-.398 0-.684.14-.858.42-.17.277-.255.591-.255.943ZM472.96 141l8-11.636h1.296l-8 11.636h-1.296ZM391.205 189v-1.023l3.84-4.204c.451-.493.822-.921 1.114-1.284a4.75 4.75 0 0 0 .648-1.034c.144-.326.216-.667.216-1.023 0-.409-.099-.763-.296-1.063a1.917 1.917 0 0 0-.795-.693 2.578 2.578 0 0 0-1.137-.244c-.447 0-.837.093-1.17.278a1.92 1.92 0 0 0-.767.767c-.178.33-.267.716-.267 1.159h-1.341c0-.681.157-1.28.472-1.795a3.275 3.275 0 0 1 1.284-1.205c.545-.288 1.157-.431 1.835-.431.682 0 1.286.143 1.812.431.527.288.94.676 1.239 1.165.299.489.449 1.032.449 1.631 0 .428-.078.846-.233 1.256-.152.405-.417.857-.796 1.357-.374.497-.895 1.103-1.562 1.819l-2.614 2.795v.091h5.409V189h-7.34Zm10.687.091c-.28 0-.521-.1-.722-.301a.989.989 0 0 1-.301-.722c0-.28.101-.521.301-.721a.986.986 0 0 1 .722-.302c.28 0 .521.101.722.302.2.2.301.441.301.721a.973.973 0 0 1-.142.512c-.091.155-.214.28-.37.375a.981.981 0 0 1-.511.136Zm6.864.068a4.318 4.318 0 0 1-1.432-.273 3.426 3.426 0 0 1-1.307-.88c-.394-.417-.71-.979-.949-1.688-.238-.712-.358-1.606-.358-2.682 0-1.03.097-1.943.29-2.738.193-.8.473-1.472.841-2.017.367-.55.811-.966 1.329-1.25.523-.284 1.112-.426 1.768-.426.651 0 1.231.13 1.738.392.512.257.928.617 1.25 1.079.322.462.53.994.625 1.597h-1.386a2.569 2.569 0 0 0-.75-1.301c-.371-.345-.864-.517-1.477-.517-.902 0-1.612.392-2.131 1.176-.515.784-.775 1.884-.779 3.301h.091a3.407 3.407 0 0 1 2.864-1.546c.667 0 1.276.167 1.829.5.554.33.997.786 1.33 1.37.333.579.5 1.244.5 1.994 0 .72-.161 1.379-.483 1.977a3.685 3.685 0 0 1-1.358 1.421c-.579.348-1.261.519-2.045.511Zm0-1.25c.477 0 .905-.119 1.284-.358.382-.239.683-.559.903-.96.224-.402.335-.849.335-1.341a2.69 2.69 0 0 0-.323-1.312 2.47 2.47 0 0 0-.881-.949 2.33 2.33 0 0 0-1.273-.353c-.36 0-.695.072-1.006.216-.31.14-.583.334-.818.58a2.785 2.785 0 0 0-.545.846 2.69 2.69 0 0 0 1.023 3.262c.382.246.816.369 1.301.369Zm12.052-1.091v-.613c0-.425.087-.813.262-1.165.178-.356.435-.64.772-.852.341-.216.754-.324 1.239-.324.492 0 .905.108 1.239.324.333.212.585.496.755.852.171.352.256.74.256 1.165v.613c0 .424-.087.815-.261 1.171a2.071 2.071 0 0 1-.762.852c-.333.212-.742.318-1.227.318-.492 0-.907-.106-1.244-.318a2.105 2.105 0 0 1-.767-.852 2.62 2.62 0 0 1-.262-1.171Zm1.159-.613v.613c0 .352.084.669.25.949.167.277.455.415.864.415.398 0 .678-.138.841-.415.167-.28.25-.597.25-.949v-.613c0-.353-.08-.667-.239-.944-.159-.28-.443-.42-.852-.42-.398 0-.684.14-.858.42-.17.277-.256.591-.256.944Zm-6.954-6.046v-.614c0-.424.087-.812.261-1.164.178-.356.436-.64.773-.853.341-.216.754-.323 1.239-.323.492 0 .905.107 1.238.323.333.213.585.497.756.853.17.352.256.74.256 1.164v.614c0 .424-.088.814-.262 1.171-.17.352-.424.636-.761.852-.334.212-.743.318-1.227.318-.493 0-.908-.106-1.245-.318a2.105 2.105 0 0 1-.767-.852 2.636 2.636 0 0 1-.261-1.171Zm1.159-.614v.614c0 .352.083.669.25.949.167.276.454.415.864.415.397 0 .678-.139.84-.415.167-.28.25-.597.25-.949v-.614c0-.352-.079-.666-.238-.943-.159-.28-.443-.42-.852-.42-.398 0-.684.14-.858.42a1.757 1.757 0 0 0-.256.943Zm-.727 9.455 8-11.636h1.295l-8 11.636h-1.295ZM411.841 235.159c-.667 0-1.267-.132-1.801-.398a3.337 3.337 0 0 1-1.284-1.091 2.976 2.976 0 0 1-.529-1.579h1.364c.053.526.292.962.716 1.307.428.341.939.511 1.534.511.477 0 .901-.112 1.273-.335.375-.224.668-.53.88-.921a2.73 2.73 0 0 0 .324-1.335c0-.507-.112-.96-.335-1.358a2.468 2.468 0 0 0-.909-.949 2.571 2.571 0 0 0-1.324-.352 3.622 3.622 0 0 0-1.097.165c-.375.11-.683.252-.926.426l-1.318-.159.705-5.727h6.045v1.25h-4.864l-.409 3.431h.069c.238-.189.537-.346.897-.471s.735-.188 1.125-.188c.712 0 1.347.171 1.904.512.56.337 1 .799 1.318 1.386.322.587.483 1.258.483 2.011 0 .743-.167 1.406-.5 1.989a3.652 3.652 0 0 1-1.364 1.375c-.579.333-1.238.5-1.977.5Zm6.66-.068c-.28 0-.52-.1-.721-.301a.985.985 0 0 1-.301-.722c0-.28.1-.521.301-.721a.984.984 0 0 1 .721-.302c.281 0 .521.101.722.302.201.2.301.441.301.721a.964.964 0 0 1-.142.512c-.091.155-.214.28-.369.375a.985.985 0 0 1-.512.136Zm6.107-11.727V235h-1.409v-10.159h-.068l-2.841 1.886v-1.432l2.909-1.931h1.409Zm9.278 9.454v-.613c0-.425.087-.813.262-1.165.178-.356.435-.64.772-.852.341-.216.754-.324 1.239-.324.493 0 .905.108 1.239.324.333.212.585.496.755.852.171.352.256.74.256 1.165v.613c0 .424-.087.815-.261 1.171a2.071 2.071 0 0 1-.762.852c-.333.212-.742.318-1.227.318-.492 0-.907-.106-1.244-.318a2.105 2.105 0 0 1-.767-.852 2.62 2.62 0 0 1-.262-1.171Zm1.159-.613v.613c0 .352.084.669.25.949.167.277.455.415.864.415.398 0 .678-.138.841-.415.167-.28.25-.597.25-.949v-.613c0-.353-.08-.667-.239-.944-.159-.28-.443-.42-.852-.42-.398 0-.684.14-.858.42-.17.277-.256.591-.256.944Zm-6.954-6.046v-.614c0-.424.087-.812.261-1.164.178-.356.436-.64.773-.853.341-.216.754-.323 1.239-.323.492 0 .905.107 1.238.323.334.213.586.497.756.853.17.352.256.74.256 1.164v.614c0 .424-.087.814-.262 1.171-.17.352-.424.636-.761.852-.333.212-.743.318-1.227.318-.493 0-.908-.106-1.245-.318a2.112 2.112 0 0 1-.767-.852 2.636 2.636 0 0 1-.261-1.171Zm1.159-.614v.614c0 .352.083.669.25.949.167.276.455.415.864.415.397 0 .678-.139.841-.415.166-.28.25-.597.25-.949v-.614c0-.352-.08-.666-.239-.943-.159-.28-.443-.42-.852-.42-.398 0-.684.14-.858.42a1.757 1.757 0 0 0-.256.943Zm-.727 9.455 8-11.636h1.295l-8 11.636h-1.295ZM358.841 235.159c-.667 0-1.267-.132-1.801-.398a3.337 3.337 0 0 1-1.284-1.091 2.976 2.976 0 0 1-.529-1.579h1.364c.053.526.292.962.716 1.307.428.341.939.511 1.534.511.477 0 .901-.112 1.273-.335.375-.224.668-.53.88-.921a2.73 2.73 0 0 0 .324-1.335c0-.507-.112-.96-.335-1.358a2.468 2.468 0 0 0-.909-.949 2.571 2.571 0 0 0-1.324-.352 3.622 3.622 0 0 0-1.097.165c-.375.11-.683.252-.926.426l-1.318-.159.705-5.727h6.045v1.25h-4.864l-.409 3.431h.069c.238-.189.537-.346.897-.471s.735-.188 1.125-.188c.712 0 1.347.171 1.904.512.56.337 1 .799 1.318 1.386.322.587.483 1.258.483 2.011 0 .743-.167 1.406-.5 1.989a3.652 3.652 0 0 1-1.364 1.375c-.579.333-1.238.5-1.977.5Zm6.66-.068c-.28 0-.52-.1-.721-.301a.985.985 0 0 1-.301-.722c0-.28.1-.521.301-.721a.984.984 0 0 1 .721-.302c.281 0 .521.101.722.302.201.2.301.441.301.721a.964.964 0 0 1-.142.512c-.091.155-.214.28-.369.375a.985.985 0 0 1-.512.136Zm6.107-11.727V235h-1.409v-10.159h-.068l-2.841 1.886v-1.432l2.909-1.931h1.409Zm9.278 9.454v-.613c0-.425.087-.813.262-1.165.178-.356.435-.64.772-.852.341-.216.754-.324 1.239-.324.493 0 .905.108 1.239.324.333.212.585.496.755.852.171.352.256.74.256 1.165v.613c0 .424-.087.815-.261 1.171a2.071 2.071 0 0 1-.762.852c-.333.212-.742.318-1.227.318-.492 0-.907-.106-1.244-.318a2.105 2.105 0 0 1-.767-.852 2.62 2.62 0 0 1-.262-1.171Zm1.159-.613v.613c0 .352.084.669.25.949.167.277.455.415.864.415.398 0 .678-.138.841-.415.167-.28.25-.597.25-.949v-.613c0-.353-.08-.667-.239-.944-.159-.28-.443-.42-.852-.42-.398 0-.684.14-.858.42-.17.277-.256.591-.256.944Zm-6.954-6.046v-.614c0-.424.087-.812.261-1.164.178-.356.436-.64.773-.853.341-.216.754-.323 1.239-.323.492 0 .905.107 1.238.323.334.213.586.497.756.853.17.352.256.74.256 1.164v.614c0 .424-.087.814-.262 1.171-.17.352-.424.636-.761.852-.333.212-.743.318-1.227.318-.493 0-.908-.106-1.245-.318a2.112 2.112 0 0 1-.767-.852 2.636 2.636 0 0 1-.261-1.171Zm1.159-.614v.614c0 .352.083.669.25.949.167.276.455.415.864.415.397 0 .678-.139.841-.415.166-.28.25-.597.25-.949v-.614c0-.352-.08-.666-.239-.943-.159-.28-.443-.42-.852-.42-.398 0-.684.14-.858.42a1.757 1.757 0 0 0-.256.943Zm-.727 9.455 8-11.636h1.295l-8 11.636h-1.295ZM354 20h287v38H354zM354 68h83v38h-83z" fill="#7542E5"/><path fill="#7542E5" d="M354 68h83v38h-83z"/><path fill="#20123A" d="M437 68h17v38h-17zM354 164h16v38h-16zM354 212h33v38h-33zM370 116h50v38h-50zM641 20h85v38h-85z"/><path fill="#7542E5" d="M354 116h16v38h-16z"/><path d="M462.409 264.364h1.682l3.954 9.659h.137l3.954-9.659h1.682V276H472.5v-8.841h-.114L468.75 276h-1.273l-3.636-8.841h-.114V276h-1.318v-11.636Zm17.712 11.818c-.841 0-1.567-.186-2.176-.557a3.744 3.744 0 0 1-1.404-1.568c-.326-.674-.488-1.459-.488-2.352 0-.894.162-1.682.488-2.364.33-.686.788-1.22 1.375-1.602.591-.387 1.28-.58 2.068-.58.455 0 .904.076 1.347.227.443.152.847.398 1.21.739.364.337.654.784.87 1.341.215.557.323 1.242.323 2.057v.568h-6.727v-1.159h5.364c0-.493-.099-.932-.296-1.318a2.217 2.217 0 0 0-.829-.915c-.356-.224-.777-.335-1.262-.335-.534 0-.996.132-1.386.397a2.625 2.625 0 0 0-.892 1.023 3.01 3.01 0 0 0-.313 1.352v.773c0 .659.114 1.218.341 1.676.231.455.552.801.961 1.04.409.235.884.352 1.426.352.352 0 .67-.049.954-.147.288-.103.536-.254.745-.455.208-.205.369-.458.483-.761l1.295.363c-.136.44-.366.826-.687 1.159a3.35 3.35 0 0 1-1.194.773 4.416 4.416 0 0 1-1.596.273Zm6.994-5.432V276h-1.341v-8.727h1.296v1.363h.113c.205-.443.515-.799.932-1.068.417-.273.955-.409 1.614-.409.591 0 1.108.121 1.551.364.443.238.788.602 1.034 1.091.246.484.369 1.098.369 1.841V276h-1.341v-5.455c0-.685-.178-1.219-.534-1.602-.356-.386-.844-.579-1.466-.579-.428 0-.81.092-1.147.278a1.985 1.985 0 0 0-.79.813c-.193.356-.29.787-.29 1.295ZM349.523 275l-3.182-11.636h1.432l2.432 9.477h.113l2.477-9.477h1.591l2.478 9.477h.113l2.432-9.477h1.432L357.659 275h-1.454l-2.569-9.273h-.091L350.977 275h-1.454Zm15.625.182c-.788 0-1.479-.188-2.074-.563-.591-.375-1.053-.899-1.386-1.574-.33-.674-.495-1.462-.495-2.363 0-.909.165-1.703.495-2.381.333-.678.795-1.204 1.386-1.579.595-.375 1.286-.563 2.074-.563.788 0 1.477.188 2.068.563.595.375 1.057.901 1.386 1.579.334.678.5 1.472.5 2.381 0 .901-.166 1.689-.5 2.363a3.758 3.758 0 0 1-1.386 1.574c-.591.375-1.28.563-2.068.563Zm0-1.205c.598 0 1.091-.153 1.477-.46a2.72 2.72 0 0 0 .858-1.21c.186-.5.278-1.042.278-1.625 0-.584-.092-1.127-.278-1.631a2.748 2.748 0 0 0-.858-1.221c-.386-.311-.879-.466-1.477-.466-.599 0-1.091.155-1.478.466-.386.31-.672.717-.858 1.221a4.695 4.695 0 0 0-.278 1.631c0 .583.093 1.125.278 1.625.186.5.472.903.858 1.21.387.307.879.46 1.478.46Zm6.001 1.023v-8.727h1.296v1.363h.113c.182-.466.476-.827.881-1.085.405-.261.892-.392 1.46-.392.576 0 1.055.131 1.438.392.386.258.687.619.903 1.085h.091a2.55 2.55 0 0 1 1.006-1.074c.447-.268.983-.403 1.608-.403.78 0 1.418.244 1.914.733.497.485.745 1.241.745 2.267V275h-1.341v-5.841c0-.644-.176-1.104-.529-1.381a1.957 1.957 0 0 0-1.244-.414c-.614 0-1.089.185-1.426.556-.337.368-.506.834-.506 1.398V275h-1.363v-5.977c0-.496-.161-.896-.483-1.199-.322-.307-.737-.46-1.245-.46-.348 0-.674.092-.977.278a2.1 2.1 0 0 0-.727.773 2.277 2.277 0 0 0-.273 1.13V275h-1.341Zm17.565.182c-.84 0-1.566-.186-2.176-.557a3.736 3.736 0 0 1-1.403-1.568c-.326-.674-.489-1.459-.489-2.352 0-.894.163-1.682.489-2.364.329-.686.788-1.22 1.375-1.602.591-.387 1.28-.58 2.068-.58.455 0 .904.076 1.347.227.443.152.846.398 1.21.739.364.337.653.784.869 1.341.216.557.324 1.242.324 2.057v.568h-6.727v-1.159h5.363c0-.493-.098-.932-.295-1.318a2.219 2.219 0 0 0-.83-.915c-.356-.224-.776-.335-1.261-.335-.534 0-.996.132-1.386.397a2.617 2.617 0 0 0-.892 1.023 2.997 2.997 0 0 0-.313 1.352v.773c0 .659.114 1.218.341 1.676.231.455.551.801.96 1.04.409.235.885.352 1.426.352.353 0 .671-.049.955-.147.288-.103.536-.254.744-.455.209-.205.37-.458.483-.761l1.296.363c-.137.44-.366.826-.688 1.159-.322.33-.719.587-1.193.773a4.421 4.421 0 0 1-1.597.273Zm6.995-5.432V275h-1.341v-8.727h1.295v1.363h.114c.205-.443.515-.799.932-1.068.416-.273.954-.409 1.613-.409.591 0 1.108.121 1.552.364.443.238.787.602 1.034 1.091.246.484.369 1.098.369 1.841V275h-1.341v-5.455c0-.685-.178-1.219-.534-1.602-.356-.386-.845-.579-1.466-.579-.428 0-.811.092-1.148.278a1.99 1.99 0 0 0-.789.813c-.194.356-.29.787-.29 1.295Z" fill="gray"/><circle cx="328" cy="270" r="8" fill="#7542E5"/><circle cx="444" cy="270" r="8" fill="#20123A"/><path d="M474.893 42.614v-1.16l5.113-8.09h.841v1.795h-.568l-3.864 6.114v.09h6.887v1.25h-8.409ZM480.37 45V33.364h1.341V45h-1.341Zm8.993.16c-.75 0-1.419-.13-2.006-.387-.583-.258-1.047-.616-1.392-1.074a2.892 2.892 0 0 1-.557-1.608h1.432c.031.375.159.699.387.971.227.27.524.478.892.626.367.147.774.221 1.221.221.5 0 .943-.087 1.33-.261.386-.175.689-.417.909-.728.22-.31.329-.67.329-1.08 0-.427-.106-.804-.318-1.13-.212-.33-.523-.587-.932-.773-.409-.185-.909-.278-1.5-.278h-.931v-1.25h.931c.463 0 .868-.083 1.216-.25.353-.167.627-.401.824-.704.201-.303.301-.66.301-1.069a1.97 1.97 0 0 0-.261-1.028 1.788 1.788 0 0 0-.739-.682c-.314-.163-.685-.244-1.113-.244-.402 0-.781.074-1.137.221-.352.144-.64.355-.863.631a1.64 1.64 0 0 0-.364.989h-1.364c.023-.61.207-1.144.552-1.603a3.462 3.462 0 0 1 1.352-1.08 4.366 4.366 0 0 1 1.846-.386c.72 0 1.338.146 1.853.438.515.288.911.669 1.187 1.142.277.474.415.985.415 1.534 0 .656-.172 1.214-.517 1.676-.341.462-.805.782-1.392.96v.091c.735.122 1.309.434 1.721.938.413.5.62 1.12.62 1.858 0 .633-.173 1.2-.517 1.704-.341.5-.807.894-1.398 1.182-.591.288-1.263.432-2.017.432Zm6.896-.07c-.28 0-.521-.1-.721-.3a.983.983 0 0 1-.301-.722c0-.28.1-.52.301-.721.2-.201.441-.302.721-.302.281 0 .521.1.722.302.201.2.301.44.301.721a.96.96 0 0 1-.142.512c-.091.155-.214.28-.369.375a.976.976 0 0 1-.512.136Zm6.864.07a4.358 4.358 0 0 1-1.432-.274 3.432 3.432 0 0 1-1.307-.88c-.394-.417-.71-.98-.949-1.688-.238-.712-.358-1.606-.358-2.682 0-1.03.097-1.943.29-2.738.193-.8.474-1.472.841-2.017.368-.55.811-.966 1.33-1.25.522-.284 1.111-.426 1.767-.426.651 0 1.231.13 1.738.392.512.257.928.617 1.25 1.08.322.461.531.993.625 1.596h-1.386a2.573 2.573 0 0 0-.75-1.301c-.371-.345-.864-.517-1.477-.517-.902 0-1.612.392-2.131 1.176-.515.784-.775 1.884-.778 3.3h.091a3.426 3.426 0 0 1 1.732-1.357 3.393 3.393 0 0 1 1.131-.188c.667 0 1.277.167 1.83.5.553.33.996.786 1.329 1.37.334.58.5 1.244.5 1.994 0 .72-.161 1.379-.483 1.977a3.673 3.673 0 0 1-1.358 1.42c-.579.35-1.261.52-2.045.512Zm0-1.25c.477 0 .905-.12 1.284-.359a2.55 2.55 0 0 0 .903-.96c.224-.402.336-.849.336-1.341 0-.481-.108-.919-.324-1.313a2.47 2.47 0 0 0-.881-.948 2.329 2.329 0 0 0-1.273-.353c-.36 0-.695.072-1.005.216-.311.14-.584.334-.819.58a2.807 2.807 0 0 0-.545.846 2.525 2.525 0 0 0-.199.995c0 .462.108.894.324 1.295.22.402.519.726.898.972.382.246.816.37 1.301.37Zm12.052-1.092v-.613c0-.425.088-.813.262-1.165a2.09 2.09 0 0 1 .773-.852c.34-.216.753-.324 1.238-.324.493 0 .905.108 1.239.324.333.212.585.496.755.852.171.352.256.74.256 1.165v.613c0 .424-.087.815-.261 1.17a2.063 2.063 0 0 1-.762.853c-.333.212-.742.318-1.227.318-.492 0-.907-.106-1.244-.318a2.103 2.103 0 0 1-.767-.852 2.63 2.63 0 0 1-.262-1.17Zm1.16-.613v.613c0 .352.083.669.25.949.166.277.454.415.863.415.398 0 .678-.138.841-.415.167-.28.25-.597.25-.949v-.613c0-.353-.079-.667-.239-.944-.159-.28-.443-.42-.852-.42-.398 0-.684.14-.858.42-.17.277-.255.591-.255.944Zm-6.955-6.046v-.614c0-.424.087-.812.261-1.164.178-.356.436-.64.773-.853.341-.215.754-.323 1.239-.323.492 0 .905.108 1.238.323.334.212.586.497.756.853.17.352.256.74.256 1.164v.614c0 .424-.087.815-.262 1.17a2.06 2.06 0 0 1-.761.853c-.333.212-.742.318-1.227.318-.493 0-.907-.106-1.245-.318a2.11 2.11 0 0 1-.767-.852 2.63 2.63 0 0 1-.261-1.17Zm1.159-.614v.614c0 .352.083.669.25.949.167.277.455.415.864.415.397 0 .678-.139.841-.415.166-.28.25-.597.25-.949v-.614c0-.352-.08-.666-.239-.943-.159-.28-.443-.42-.852-.42-.398 0-.684.14-.858.42-.171.277-.256.591-.256.944ZM509.812 45l8-11.636h1.295l-8 11.636h-1.295ZM378.78 81.364V93h-1.409V82.84h-.068l-2.841 1.887v-1.431l2.909-1.932h1.409ZM382.126 93v-1.023l3.841-4.204c.451-.493.822-.92 1.114-1.284.292-.368.508-.713.648-1.035.144-.325.216-.666.216-1.022 0-.41-.099-.763-.296-1.063-.193-.299-.458-.53-.795-.693a2.58 2.58 0 0 0-1.137-.244c-.447 0-.837.093-1.17.278-.33.182-.585.438-.767.767-.178.33-.267.716-.267 1.16h-1.341c0-.683.157-1.28.471-1.796a3.28 3.28 0 0 1 1.285-1.205c.545-.287 1.157-.431 1.835-.431.682 0 1.286.144 1.812.431.527.288.94.677 1.239 1.165.299.489.449 1.032.449 1.63 0 .429-.078.847-.233 1.257-.152.405-.417.858-.796 1.358a24.164 24.164 0 0 1-1.562 1.818l-2.614 2.795v.091h5.409V93h-7.341Zm10.688.09c-.28 0-.521-.1-.722-.3a.987.987 0 0 1-.301-.722c0-.28.101-.52.301-.721a.986.986 0 0 1 .722-.301c.28 0 .521.1.722.3.2.201.301.442.301.722a1.058 1.058 0 0 1-.512.886.972.972 0 0 1-.511.137Zm6.774.07c-.78 0-1.47-.14-2.068-.416-.595-.28-1.059-.665-1.392-1.153a2.898 2.898 0 0 1-.494-1.682 3.089 3.089 0 0 1 .289-1.364c.197-.42.466-.77.807-1.05a2.472 2.472 0 0 1 1.154-.54v-.069c-.557-.144-1-.456-1.33-.937a2.843 2.843 0 0 1-.489-1.653 2.815 2.815 0 0 1 .449-1.586c.303-.466.72-.833 1.25-1.102.534-.269 1.142-.404 1.824-.404.674 0 1.277.135 1.807.404s.947.636 1.25 1.102c.307.466.462.995.466 1.586a2.886 2.886 0 0 1-.506 1.653 2.243 2.243 0 0 1-1.312.937v.069c.42.075.799.255 1.136.54.337.28.606.63.807 1.05.201.417.303.872.307 1.364a2.942 2.942 0 0 1-.512 1.682c-.333.489-.797.873-1.392 1.153-.591.277-1.274.415-2.051.415Zm0-1.25c.527 0 .981-.086 1.364-.257a2.03 2.03 0 0 0 .886-.721c.208-.31.314-.674.318-1.091a2.091 2.091 0 0 0-.341-1.165 2.31 2.31 0 0 0-.914-.795 2.877 2.877 0 0 0-1.313-.29c-.496 0-.939.097-1.329.29a2.306 2.306 0 0 0-.915.795c-.22.337-.328.725-.324 1.165a1.9 1.9 0 0 0 .301 1.09c.208.311.506.552.892.722.386.17.845.256 1.375.256Zm0-5.524c.417 0 .786-.083 1.108-.25.326-.166.581-.4.767-.698.186-.3.28-.65.284-1.052a1.94 1.94 0 0 0-.278-1.028 1.808 1.808 0 0 0-.756-.682 2.462 2.462 0 0 0-1.125-.244c-.436 0-.816.081-1.142.244-.326.16-.578.386-.756.682a1.896 1.896 0 0 0-.261 1.028c-.004.402.085.752.267 1.052.186.299.441.532.767.698.326.167.701.25 1.125.25Zm12.064 4.432v-.614c0-.424.087-.812.261-1.164.178-.356.436-.64.773-.853.341-.215.754-.323 1.239-.323.492 0 .905.108 1.238.323.334.213.586.497.756.853.17.352.256.74.256 1.164v.614c0 .424-.087.815-.262 1.17a2.06 2.06 0 0 1-.761.853c-.333.212-.742.318-1.227.318-.493 0-.907-.106-1.245-.318a2.11 2.11 0 0 1-.767-.852 2.63 2.63 0 0 1-.261-1.17Zm1.159-.614v.614c0 .353.083.669.25.949.167.277.455.415.864.415.397 0 .678-.138.841-.415.166-.28.25-.596.25-.949v-.614c0-.352-.08-.666-.239-.943-.159-.28-.443-.42-.852-.42-.398 0-.684.14-.858.42-.171.277-.256.591-.256.944Zm-6.954-6.045v-.614c0-.424.087-.812.261-1.164.178-.356.436-.64.773-.853.341-.216.753-.324 1.238-.324.493 0 .906.109 1.239.324.333.212.585.497.756.853.17.352.255.74.255 1.165v.613c0 .424-.087.814-.261 1.17a2.067 2.067 0 0 1-.761.853c-.334.212-.743.318-1.228.318-.492 0-.907-.106-1.244-.318a2.103 2.103 0 0 1-.767-.853 2.63 2.63 0 0 1-.261-1.17Zm1.159-.614v.614c0 .352.083.669.25.949.166.276.454.415.863.415.398 0 .678-.138.841-.415.167-.28.25-.597.25-.949v-.614c0-.352-.079-.666-.238-.943-.16-.28-.444-.42-.853-.42-.397 0-.683.14-.858.42-.17.277-.255.591-.255.944ZM406.288 93l8-11.636h1.296l-8 11.636h-1.296ZM666.78 33.364V45h-1.409V34.84h-.068l-2.841 1.887v-1.431l2.909-1.932h1.409ZM670.126 45v-1.023l3.841-4.204c.451-.493.822-.92 1.114-1.284.292-.368.508-.712.648-1.034.144-.326.216-.667.216-1.023 0-.41-.099-.763-.296-1.063-.193-.299-.458-.53-.795-.693a2.58 2.58 0 0 0-1.137-.244c-.447 0-.837.093-1.17.278-.33.182-.585.438-.767.767-.178.33-.267.716-.267 1.16h-1.341c0-.682.157-1.28.471-1.796a3.28 3.28 0 0 1 1.285-1.205c.545-.288 1.157-.431 1.835-.431.682 0 1.286.144 1.812.431.527.288.94.676 1.239 1.165.299.489.449 1.032.449 1.63 0 .429-.078.847-.233 1.257-.152.405-.417.857-.796 1.357a24.164 24.164 0 0 1-1.562 1.819l-2.614 2.795v.091h5.409V45h-7.341Zm10.688.09c-.28 0-.521-.1-.722-.3a.987.987 0 0 1-.301-.722c0-.28.101-.52.301-.721a.986.986 0 0 1 .722-.302c.28 0 .521.1.722.302.2.2.301.44.301.721a1.058 1.058 0 0 1-.512.886.972.972 0 0 1-.511.137Zm6.774.07c-.78 0-1.47-.14-2.068-.416-.595-.28-1.059-.664-1.392-1.153a2.898 2.898 0 0 1-.494-1.682 3.089 3.089 0 0 1 .289-1.364c.197-.42.466-.77.807-1.05a2.472 2.472 0 0 1 1.154-.54v-.069c-.557-.144-1-.456-1.33-.937a2.843 2.843 0 0 1-.489-1.654 2.815 2.815 0 0 1 .449-1.585c.303-.466.72-.833 1.25-1.102.534-.269 1.142-.403 1.824-.403.674 0 1.277.134 1.807.403s.947.636 1.25 1.102c.307.466.462.995.466 1.585a2.886 2.886 0 0 1-.506 1.654 2.243 2.243 0 0 1-1.312.937v.069c.42.075.799.255 1.136.54.337.28.606.63.807 1.05.201.417.303.872.307 1.364a2.942 2.942 0 0 1-.512 1.682c-.333.489-.797.873-1.392 1.153-.591.277-1.274.415-2.051.415Zm0-1.25c.527 0 .981-.086 1.364-.257a2.03 2.03 0 0 0 .886-.721c.208-.31.314-.674.318-1.091a2.091 2.091 0 0 0-.341-1.165 2.31 2.31 0 0 0-.914-.795 2.877 2.877 0 0 0-1.313-.29c-.496 0-.939.096-1.329.29a2.306 2.306 0 0 0-.915.795c-.22.337-.328.725-.324 1.165a1.9 1.9 0 0 0 .301 1.09c.208.311.506.552.892.722.386.17.845.256 1.375.256Zm0-5.524c.417 0 .786-.083 1.108-.25.326-.166.581-.4.767-.699.186-.299.28-.65.284-1.05a1.94 1.94 0 0 0-.278-1.029 1.808 1.808 0 0 0-.756-.682 2.462 2.462 0 0 0-1.125-.244c-.436 0-.816.081-1.142.244-.326.16-.578.386-.756.682a1.896 1.896 0 0 0-.261 1.028c-.004.402.085.752.267 1.051.186.3.441.533.767.7.326.166.701.25 1.125.25Zm12.064 4.432v-.613c0-.425.087-.813.261-1.165.178-.356.436-.64.773-.852.341-.216.754-.324 1.239-.324.492 0 .905.108 1.238.324.334.212.586.496.756.852.17.352.256.74.256 1.165v.613c0 .424-.087.815-.262 1.17a2.06 2.06 0 0 1-.761.853c-.333.212-.742.318-1.227.318-.493 0-.907-.106-1.245-.318a2.11 2.11 0 0 1-.767-.852 2.63 2.63 0 0 1-.261-1.17Zm1.159-.613v.613c0 .352.083.669.25.949.167.277.455.415.864.415.397 0 .678-.138.841-.415.166-.28.25-.597.25-.949v-.613c0-.353-.08-.667-.239-.944-.159-.28-.443-.42-.852-.42-.398 0-.684.14-.858.42-.171.277-.256.591-.256.944Zm-6.954-6.046v-.614c0-.424.087-.812.261-1.164.178-.356.436-.64.773-.853.341-.215.753-.323 1.238-.323.493 0 .906.108 1.239.323.333.212.585.497.756.853.17.352.255.74.255 1.164v.614c0 .424-.087.815-.261 1.17a2.067 2.067 0 0 1-.761.853c-.334.212-.743.318-1.228.318-.492 0-.907-.106-1.244-.318a2.103 2.103 0 0 1-.767-.852 2.63 2.63 0 0 1-.261-1.17Zm1.159-.614v.614c0 .352.083.669.25.949.166.277.454.415.863.415.398 0 .678-.139.841-.415.167-.28.25-.597.25-.949v-.614c0-.352-.079-.666-.238-.943-.16-.28-.444-.42-.853-.42-.397 0-.683.14-.858.42-.17.277-.255.591-.255.944ZM694.288 45l8-11.636h1.296l-8 11.636h-1.296ZM379.842 141l5.204-10.295v-.091h-6v-1.25h7.455v1.318L381.319 141h-1.477Zm7.777.091a.983.983 0 0 1-.722-.301.985.985 0 0 1-.301-.722c0-.28.1-.521.301-.721a.984.984 0 0 1 .722-.302c.28 0 .52.101.721.302.201.2.301.441.301.721a.964.964 0 0 1-.142.512c-.091.155-.214.28-.369.375a.984.984 0 0 1-.511.136Zm3.535-.091 5.205-10.295v-.091h-6v-1.25h7.454v1.318L392.631 141h-1.477Zm14.709-2.182v-.613c0-.425.087-.813.261-1.165.178-.356.436-.64.773-.852.341-.216.754-.324 1.239-.324.492 0 .905.108 1.238.324.334.212.586.496.756.852.17.352.256.74.256 1.165v.613c0 .424-.087.815-.262 1.171-.17.352-.424.636-.761.852-.333.212-.742.318-1.227.318-.493 0-.908-.106-1.245-.318a2.112 2.112 0 0 1-.767-.852 2.633 2.633 0 0 1-.261-1.171Zm1.159-.613v.613c0 .352.083.669.25.949.167.277.455.415.864.415.397 0 .678-.138.841-.415.166-.28.25-.597.25-.949v-.613c0-.353-.08-.667-.239-.944-.159-.28-.443-.42-.852-.42-.398 0-.684.14-.858.42a1.758 1.758 0 0 0-.256.944Zm-6.955-6.046v-.614c0-.424.088-.812.262-1.164.178-.356.435-.64.773-.853.34-.216.753-.323 1.238-.323.493 0 .906.107 1.239.323.333.213.585.497.756.853.17.352.255.74.255 1.164v.614c0 .424-.087.814-.261 1.171a2.065 2.065 0 0 1-.762.852c-.333.212-.742.318-1.227.318-.492 0-.907-.106-1.244-.318a2.105 2.105 0 0 1-.767-.852 2.636 2.636 0 0 1-.262-1.171Zm1.16-.614v.614c0 .352.083.669.25.949.166.276.454.415.863.415.398 0 .678-.139.841-.415.167-.28.25-.597.25-.949v-.614a1.85 1.85 0 0 0-.239-.943c-.159-.28-.443-.42-.852-.42-.398 0-.684.14-.858.42-.17.277-.255.591-.255.943Zm-.728 9.455 8-11.636h1.296l-8 11.636h-1.296Z" fill="#fff"/><path d="M354 20v230M354 20v230" stroke="#CCD6EB"/></svg>
