<svg width="458" height="533" viewBox="0 0 458 533" fill="none" xmlns="http://www.w3.org/2000/svg"><path fill="#FFD25E" d="M0 266.212h228.999v266.403H0z"/><path fill="#00B269" d="M229 457.044v75.57H.001v-75.57z"/><path d="m0 457.045 108.574-74.807 120.426.029-107.101 74.778H0Z" fill="#00256D"/><path d="m228.999 382.268.001-1.257c0-63.402-51.349-114.799-114.69-114.799C50.968 266.212 0 317.609 0 381.011v1.227l228.999.03Z" fill="#4ABEFF"/><path fill="#1CB0A8" d="M228.995 266.212h228.999v266.403H228.995z"/><path fill="#DAB5FF" d="M457.995 457.044v75.57H228.996v-75.57z"/><path d="m228.995 457.045 108.574-74.807 120.426.029-107.101 74.778H228.995Z" fill="#00256D"/><path d="m457.994 382.268.001-1.257c0-63.402-51.348-114.799-114.69-114.799s-114.309 51.397-114.309 114.799c0 .219-.002 1.009 0 1.227l228.998.03ZM.003 0h228.999v266.403H.003z" fill="#9AE2DE"/><path fill="#8546D0" d="M229 190.833v75.57H.001v-75.57z"/><path d="m0 190.833 108.574-74.806 120.426.028-107.101 74.778H0Z" fill="#00256D"/><path d="M228.999 116.056 229 114.8C229 51.398 177.651 0 114.31 0 50.968 0 0 51.398 0 114.8v1.226l228.999.03Z" fill="#1CB0A8"/><path d="M229 0h229v266.403H229V0Z" fill="#DAB5FF"/><path d="M229 115.547C229 51.917 280.178 0 343.309 0S458 51.916 458 115.547v34.066H229v-34.066Z" fill="#F67D6D"/><path d="M458 150.835c0 63.588-51.56 115.568-114.691 115.568S229 214.423 229 150.835v-34.808h229v34.808Z" fill="#007069"/></svg>