<svg width="380" height="215" viewBox="0 0 380 215" fill="none" xmlns="http://www.w3.org/2000/svg">
<g clip-path="url(#clip0)">
<rect width="380" height="215" fill="#6E56E3"/>
<path d="M56.9827 110.328L56.5623 110.175L56.296 110.535L50.2475 118.698L49.98 119.059L50.2511 119.417C50.9118 120.291 51.4828 121.239 51.9558 122.25L52.1454 122.655L52.5876 122.589L79.9033 118.524L80.3456 118.458L80.4089 118.015C80.8797 114.725 82.3578 111.661 84.6403 109.244C86.9228 106.827 89.8975 105.177 93.156 104.519C96.4144 103.861 99.7966 104.228 102.838 105.57C105.879 106.912 108.43 109.163 110.141 112.013C111.851 114.863 112.637 118.173 112.39 121.487C112.144 124.802 110.877 127.959 108.763 130.525C106.65 133.091 103.794 134.939 100.587 135.816C97.381 136.693 93.9817 136.556 90.8565 135.424L90.4361 135.271L90.17 135.63L84.1214 143.794L83.8551 144.153L84.1234 144.511C86.4424 147.603 87.5706 151.428 87.3018 155.284C87.0329 159.14 85.3849 162.77 82.6592 165.512C79.9335 168.253 76.3121 169.921 72.4573 170.212C68.6025 170.503 64.7718 169.397 61.6657 167.095C58.5596 164.794 56.3857 161.452 55.5414 157.68C54.6971 153.908 55.2388 149.958 57.0676 146.552C58.8964 143.146 61.8899 140.513 65.501 139.133C69.112 137.752 73.0991 137.718 76.7333 139.036L77.1537 139.188L77.4199 138.829L83.4685 130.666L83.735 130.306L83.4661 129.948C82.8017 129.064 82.2308 128.113 81.7628 127.111L81.5734 126.706L81.1308 126.771L53.8151 130.837L53.3728 130.903L53.3095 131.345C52.8387 134.636 51.3606 137.7 49.0781 140.116C46.7957 142.533 43.8209 144.183 40.5625 144.841C37.304 145.499 33.9219 145.132 30.8806 143.79C27.8394 142.448 25.2883 140.198 23.5779 137.348C21.8674 134.497 21.0815 131.188 21.3282 127.873C21.5748 124.558 22.8418 121.401 24.9553 118.835C27.0687 116.27 29.9248 114.421 33.1311 113.544C36.3375 112.667 39.7367 112.804 42.8619 113.937L43.2822 114.089L43.5484 113.73L49.5949 105.573L49.8615 105.213L49.5926 104.855C47.9868 102.718 46.9417 100.212 46.5527 97.5664L45.9591 97.6537L46.5526 97.5655C46.0347 94.0805 46.6749 90.5218 48.3749 87.4357C50.0749 84.3496 52.7408 81.9066 55.9633 80.4817C59.1859 79.0569 62.787 78.7288 66.2139 79.548C69.6409 80.3672 72.7042 82.2883 74.9338 85.0164C77.1634 87.7446 78.436 91.129 78.5563 94.6502C78.6766 98.1715 77.6379 101.635 75.5996 104.509C73.5614 107.383 70.6362 109.509 67.2732 110.56C63.9101 111.611 60.295 111.53 56.9827 110.328ZM61.3297 87.5266C59.2955 87.8294 57.4648 88.9277 56.2405 90.5802C55.0161 92.2326 54.4984 94.3036 54.8011 96.3377C55.1038 98.3719 56.2023 100.202 57.8548 101.427C59.5072 102.651 61.5784 103.169 63.6126 102.866C65.6468 102.563 67.4775 101.465 68.7019 99.8123C69.9262 98.1599 70.444 96.0888 70.1412 94.0547C69.8385 92.0206 68.7401 90.19 67.0876 88.9658C65.4351 87.7415 63.3639 87.2239 61.3297 87.5266ZM65.0166 149.548C63.7922 151.2 63.2745 153.272 63.5772 155.306C63.8799 157.34 64.9784 159.17 66.6309 160.395C68.2833 161.619 70.3545 162.136 72.3887 161.834C74.4229 161.531 76.2536 160.433 77.4779 158.78C78.7023 157.128 79.2201 155.057 78.9173 153.023C78.6146 150.988 77.5162 149.158 75.8637 147.934C74.2112 146.709 72.14 146.192 70.1058 146.494C68.0716 146.797 66.2409 147.896 65.0166 149.548ZM36.2319 121.399C35.2246 121.549 34.2568 121.896 33.3836 122.42C32.5103 122.943 31.7489 123.634 31.1426 124.452C30.5364 125.271 30.0973 126.2 29.8503 127.188C29.6033 128.176 29.5533 129.203 29.7032 130.21C29.8531 131.217 30.2 132.185 30.7239 133.058C31.2479 133.931 31.9387 134.693 32.7569 135.299C33.5751 135.905 34.5048 136.344 35.4927 136.591C36.4806 136.838 37.5075 136.888 38.5148 136.738C40.549 136.435 42.3797 135.337 43.604 133.685C44.8284 132.032 45.3461 129.961 45.0434 127.927C44.7407 125.893 43.6422 124.062 41.9897 122.838C40.3373 121.614 38.2661 121.096 36.2319 121.399ZM90.1144 115.676C88.8901 117.328 88.3723 119.399 88.675 121.433C88.9778 123.467 90.0762 125.298 91.7287 126.522C93.3812 127.746 95.4524 128.264 97.4866 127.961C99.5208 127.659 101.351 126.56 102.576 124.908C103.8 123.255 104.318 121.184 104.015 119.15C103.712 117.116 102.614 115.286 100.962 114.061C99.309 112.837 97.2379 112.319 95.2037 112.622C93.1694 112.925 91.3388 114.023 90.1144 115.676Z" stroke="white" stroke-opacity="0.7" stroke-width="1.2"/>
<path d="M-21.1515 74.4389L-21.572 74.2864L-21.8382 74.6458L-27.8868 82.809L-28.1543 83.17L-27.8832 83.5282C-27.2224 84.4015 -26.6515 85.35 -26.1784 86.3607L-25.9889 86.7656L-25.5467 86.6998L1.76904 82.6345L2.21134 82.5686L2.27467 82.126C2.74541 78.8356 4.22356 75.7716 6.50602 73.355C8.78848 70.9384 11.7633 69.2879 15.0217 68.63C18.2801 67.9722 21.6623 68.3395 24.7035 69.6813C27.7448 71.0231 30.2958 73.2736 32.0063 76.1237C33.7167 78.9738 34.5026 82.2836 34.256 85.5983C34.0094 88.9131 32.7423 92.0702 30.6289 94.6359C28.5155 97.2016 25.6594 99.05 22.4531 99.9271C19.2467 100.804 15.8474 100.667 12.7222 99.5345L12.3019 99.3821L12.0357 99.7414L5.98712 107.905L5.72087 108.264L5.98916 108.622C8.30813 111.714 9.43633 115.538 9.16747 119.395C8.89862 123.251 7.25066 126.881 4.52494 129.622C1.79921 132.364 -1.82215 134.032 -5.67697 134.323C-9.53179 134.614 -13.3625 133.508 -16.4686 131.206C-19.5747 128.905 -21.7486 125.563 -22.5929 121.791C-23.4372 118.019 -22.8954 114.069 -21.0667 110.663C-19.2379 107.257 -16.2443 104.624 -12.6333 103.244C-9.02232 101.863 -5.03519 101.829 -1.40099 103.147L-0.980602 103.299L-0.714384 102.94L5.3342 94.7766L5.60073 94.4169L5.33179 94.059C4.66739 93.1748 4.09657 92.224 3.62852 91.222L3.43915 90.8165L2.99657 90.8824L-24.3192 94.9478L-24.7615 95.0136L-24.8248 95.4563C-25.2955 98.7467 -26.7737 101.811 -29.0561 104.227C-31.3386 106.644 -34.3134 108.294 -37.5718 108.952C-40.8302 109.61 -44.2124 109.243 -47.2536 107.901C-50.2949 106.559 -52.846 104.309 -54.5564 101.459C-56.2669 98.6085 -57.0528 95.2987 -56.8061 91.9839C-56.5595 88.6691 -55.2924 85.512 -53.179 82.9464C-51.0656 80.3807 -48.2095 78.5323 -45.0032 77.6551C-41.7968 76.778 -38.3975 76.9152 -35.2723 78.0478L-34.8521 78.2001L-34.5859 77.841L-28.5394 69.6841L-28.2728 69.3244L-28.5416 68.9664C-30.1475 66.8285 -31.1926 64.3227 -31.5816 61.6774L-32.1752 61.7647L-31.5817 61.6765C-32.0996 58.1915 -31.4594 54.6328 -29.7594 51.5467C-28.0594 48.4606 -25.3935 46.0176 -22.171 44.5927C-18.9484 43.1678 -15.3473 42.8398 -11.9204 43.659C-8.49341 44.4781 -5.43004 46.3993 -3.20045 49.1274C-0.970861 51.8556 0.301736 55.24 0.422006 58.7612C0.542277 62.2824 -0.49642 65.7458 -2.53466 68.6198C-4.57291 71.4938 -7.49806 73.6196 -10.8611 74.6708C-14.2242 75.722 -17.8393 75.6405 -21.1515 74.4389ZM-16.8046 51.6376C-18.8388 51.9403 -20.6694 53.0387 -21.8938 54.6911C-23.1181 56.3435 -23.6359 58.4146 -23.3332 60.4487C-23.0304 62.4828 -21.932 64.3134 -20.2795 65.5376C-18.627 66.7619 -16.5559 67.2795 -14.5216 66.9768C-12.4874 66.674 -10.6568 65.5757 -9.43243 63.9233C-8.20806 62.2708 -7.69029 60.1998 -7.99303 58.1657C-8.29576 56.1315 -9.3942 54.301 -11.0467 53.0768C-12.6992 51.8525 -14.7703 51.3348 -16.8046 51.6376ZM-13.1177 113.659C-14.3421 115.311 -14.8598 117.382 -14.5571 119.417C-14.2544 121.451 -13.1559 123.281 -11.5034 124.505C-9.85094 125.73 -7.77977 126.247 -5.74555 125.945C-3.71133 125.642 -1.88069 124.544 -0.656332 122.891C0.56803 121.239 1.0858 119.168 0.783066 117.134C0.480331 115.099 -0.618108 113.269 -2.2706 112.045C-3.92308 110.82 -5.99424 110.303 -8.02846 110.605C-10.0627 110.908 -11.8933 112.007 -13.1177 113.659ZM-41.9024 85.5099C-42.9096 85.6598 -43.8775 86.0066 -44.7507 86.5305C-45.6239 87.0544 -46.3854 87.7452 -46.9916 88.5634C-47.5979 89.3816 -48.037 90.3112 -48.284 91.299C-48.531 92.2869 -48.5809 93.3138 -48.431 94.321C-48.2811 95.3282 -47.9343 96.296 -47.4104 97.1691C-46.8864 98.0423 -46.1956 98.8037 -45.3774 99.4099C-44.5591 100.016 -43.6295 100.455 -42.6416 100.702C-41.6536 100.949 -40.6267 100.999 -39.6195 100.849C-37.5853 100.546 -35.7546 99.4479 -34.5303 97.7955C-33.3059 96.1431 -32.7881 94.0721 -33.0909 92.0379C-33.3936 90.0038 -34.492 88.1733 -36.1445 86.949C-37.797 85.7248 -39.8682 85.2071 -41.9024 85.5099ZM11.9802 79.7867C10.7558 81.4391 10.238 83.5102 10.5408 85.5443C10.8435 87.5784 11.9419 89.409 13.5944 90.6332C15.2469 91.8575 17.3181 92.3751 19.3523 92.0724C21.3865 91.7696 23.2172 90.6713 24.4415 89.0189C25.6659 87.3664 26.1836 85.2954 25.8809 83.2613C25.5782 81.2271 24.4797 79.3966 22.8273 78.1724C21.1748 76.9481 19.1036 76.4304 17.0694 76.7332C15.0352 77.0359 13.2045 78.1343 11.9802 79.7867Z" stroke="white" stroke-opacity="0.7" stroke-width="1.2"/>
<path d="M200.403 88.983L199.983 88.8305L199.716 89.1898L193.668 97.3531L193.4 97.714L193.671 98.0723C194.332 98.9456 194.903 99.8941 195.376 100.905L195.566 101.31L196.008 101.244L223.324 97.1785L223.766 97.1127L223.829 96.6701C224.3 93.3796 225.778 90.3156 228.061 87.8991C230.343 85.4825 233.318 83.8319 236.576 83.1741C239.835 82.5163 243.217 82.8835 246.258 84.2253C249.299 85.5671 251.851 87.8177 253.561 90.6678C255.271 93.5179 256.057 96.8276 255.811 100.142C255.564 103.457 254.297 106.614 252.184 109.18C250.07 111.746 247.214 113.594 244.008 114.471C240.801 115.348 237.402 115.211 234.277 114.079L233.857 113.926L233.59 114.285L227.542 122.449L227.276 122.808L227.544 123.166C229.863 126.259 230.991 130.083 230.722 133.939C230.453 137.795 228.805 141.425 226.08 144.167C223.354 146.908 219.733 148.576 215.878 148.867C212.023 149.158 208.192 148.052 205.086 145.75C201.98 143.449 199.806 140.107 198.962 136.335C198.117 132.563 198.659 128.613 200.488 125.207C202.317 121.801 205.31 119.168 208.921 117.788C212.532 116.407 216.519 116.373 220.154 117.691L220.574 117.843L220.84 117.484L226.889 109.321L227.155 108.961L226.886 108.603C226.222 107.719 225.651 106.768 225.183 105.766L224.994 105.361L224.551 105.426L197.236 109.492L196.793 109.558L196.73 110C196.259 113.291 194.781 116.355 192.499 118.771C190.216 121.188 187.241 122.838 183.983 123.496C180.724 124.154 177.342 123.787 174.301 122.445C171.26 121.103 168.709 118.853 166.998 116.003C165.288 113.153 164.502 109.843 164.749 106.528C164.995 103.213 166.262 100.056 168.376 97.4904C170.489 94.9247 173.345 93.0763 176.552 92.1992C179.758 91.3221 183.157 91.4592 186.282 92.5918L186.703 92.7441L186.969 92.385L193.015 84.2282L193.282 83.8685L193.013 83.5105C191.407 81.3726 190.362 78.8667 189.973 76.2214L189.379 76.3087L189.973 76.2205C189.455 72.7355 190.095 69.1769 191.795 66.0908C193.495 63.0047 196.161 60.5617 199.384 59.1368C202.606 57.7119 206.207 57.3839 209.634 58.203C213.061 59.0222 216.125 60.9433 218.354 63.6715C220.584 66.3996 221.856 69.7841 221.977 73.3053C222.097 76.8265 221.058 80.2899 219.02 83.1639C216.982 86.0379 214.057 88.1636 210.694 89.2148C207.331 90.266 203.715 90.1846 200.403 88.983ZM204.75 66.1816C202.716 66.4844 200.885 67.5828 199.661 69.2352C198.437 70.8876 197.919 72.9587 198.222 74.9928C198.524 77.0269 199.623 78.8574 201.275 80.0817C202.928 81.3059 204.999 81.8236 207.033 81.5209C209.067 81.2181 210.898 80.1197 212.122 78.4673C213.347 76.8149 213.864 74.7438 213.562 72.7097C213.259 70.6756 212.16 68.8451 210.508 67.6208C208.856 66.3966 206.784 65.8789 204.75 66.1816ZM208.437 128.203C207.213 129.855 206.695 131.927 206.998 133.961C207.3 135.995 208.399 137.825 210.051 139.05C211.704 140.274 213.775 140.791 215.809 140.489C217.843 140.186 219.674 139.088 220.898 137.435C222.123 135.783 222.64 133.712 222.338 131.678C222.035 129.643 220.937 127.813 219.284 126.589C217.632 125.364 215.56 124.847 213.526 125.15C211.492 125.452 209.661 126.551 208.437 128.203ZM179.652 100.054C178.645 100.204 177.677 100.551 176.804 101.075C175.931 101.598 175.169 102.289 174.563 103.107C173.957 103.926 173.518 104.855 173.271 105.843C173.024 106.831 172.974 107.858 173.124 108.865C173.274 109.872 173.62 110.84 174.144 111.713C174.668 112.586 175.359 113.348 176.177 113.954C176.996 114.56 177.925 114.999 178.913 115.246C179.901 115.493 180.928 115.543 181.935 115.393C183.969 115.09 185.8 113.992 187.024 112.34C188.249 110.687 188.767 108.616 188.464 106.582C188.161 104.548 187.063 102.717 185.41 101.493C183.758 100.269 181.686 99.7512 179.652 100.054ZM233.535 94.3308C232.31 95.9832 231.793 98.0543 232.095 100.088C232.398 102.122 233.497 103.953 235.149 105.177C236.802 106.402 238.873 106.919 240.907 106.616C242.941 106.314 244.772 105.215 245.996 103.563C247.221 101.911 247.738 99.8394 247.436 97.8053C247.133 95.7712 246.034 93.9407 244.382 92.7164C242.729 91.4922 240.658 90.9745 238.624 91.2772C236.59 91.58 234.759 92.6784 233.535 94.3308Z" stroke="white" stroke-opacity="0.7" stroke-width="1.2"/>
<path d="M343.824 67.638L343.403 67.4855L343.137 67.8449L337.088 76.0081L336.821 76.3691L337.092 76.7273C337.753 77.6006 338.324 78.5491 338.797 79.5598L338.986 79.9647L339.428 79.8989L366.744 75.8336L367.186 75.7677L367.25 75.3251C367.721 72.0347 369.199 68.9707 371.481 66.5541C373.764 64.1375 376.738 62.487 379.997 61.8291C383.255 61.1713 386.637 61.5386 389.679 62.8804C392.72 64.2222 395.271 66.4727 396.981 69.3228C398.692 72.1729 399.478 75.4827 399.231 78.7974C398.984 82.1122 397.717 85.2693 395.604 87.835C393.491 90.4007 390.634 92.2491 387.428 93.1262C384.222 94.0033 380.823 93.8662 377.697 92.7336L377.277 92.5812L377.011 92.9405L370.962 101.104L370.696 101.463L370.964 101.821C373.283 104.914 374.411 108.738 374.143 112.594C373.874 116.45 372.226 120.08 369.5 122.822C366.774 125.563 363.153 127.231 359.298 127.522C355.443 127.813 351.613 126.707 348.507 124.405C345.4 122.104 343.226 118.762 342.382 114.99C341.538 111.218 342.08 107.268 343.908 103.862C345.737 100.456 348.731 97.8227 352.342 96.4426C355.953 95.0625 359.94 95.0281 363.574 96.3458L363.994 96.4982L364.261 96.139L370.309 87.9757L370.576 87.616L370.307 87.2581C369.642 86.3739 369.072 85.4231 368.604 84.4211L368.414 84.0156L367.972 84.0815L340.656 88.1469L340.214 88.2127L340.15 88.6554C339.68 91.9458 338.201 95.0098 335.919 97.4263C333.637 99.8429 330.662 101.493 327.403 102.151C324.145 102.809 320.763 102.442 317.721 101.1C314.68 99.7583 312.129 97.5077 310.419 94.6576C308.708 91.8076 307.922 88.4978 308.169 85.183C308.416 81.8682 309.683 78.7111 311.796 76.1454C313.91 73.5798 316.766 71.7314 319.972 70.8542C323.178 69.9771 326.578 70.1143 329.703 71.2469L330.123 71.3992L330.389 71.0401L336.436 62.8832L336.702 62.5235L336.433 62.1655C334.828 60.0276 333.783 57.5218 333.394 54.8764L332.8 54.9638L333.393 54.8756C332.875 51.3906 333.516 47.8319 335.216 44.7458C336.916 41.6597 339.582 39.2167 342.804 37.7918C346.027 36.3669 349.628 36.0389 353.055 36.8581C356.482 37.6772 359.545 39.5984 361.775 42.3265C364.004 45.0547 365.277 48.4391 365.397 51.9603C365.517 55.4815 364.479 58.9449 362.44 61.8189C360.402 64.6929 357.477 66.8187 354.114 67.8699C350.751 68.9211 347.136 68.8396 343.824 67.638ZM348.171 44.8367C346.136 45.1394 344.306 46.2378 343.081 47.8902C341.857 49.5426 341.339 51.6137 341.642 53.6478C341.945 55.6819 343.043 57.5125 344.696 58.7367C346.348 59.961 348.419 60.4786 350.453 60.1759C352.488 59.8731 354.318 58.7748 355.543 57.1223C356.767 55.4699 357.285 53.3989 356.982 51.3648C356.679 49.3306 355.581 47.5001 353.928 46.2759C352.276 45.0516 350.205 44.5339 348.171 44.8367ZM351.857 106.858C350.633 108.51 350.115 110.582 350.418 112.616C350.721 114.65 351.819 116.48 353.472 117.705C355.124 118.929 357.195 119.447 359.23 119.144C361.264 118.841 363.094 117.743 364.319 116.09C365.543 114.438 366.061 112.367 365.758 110.333C365.455 108.299 364.357 106.468 362.704 105.244C361.052 104.019 358.981 103.502 356.947 103.805C354.912 104.107 353.082 105.206 351.857 106.858ZM323.073 78.709C322.065 78.8589 321.098 79.2057 320.224 79.7296C319.351 80.2535 318.59 80.9443 317.983 81.7625C317.377 82.5807 316.938 83.5103 316.691 84.4981C316.444 85.486 316.394 86.5129 316.544 87.5201C316.694 88.5273 317.041 89.4951 317.565 90.3682C318.089 91.2414 318.78 92.0028 319.598 92.609C320.416 93.2152 321.346 93.6543 322.334 93.9012C323.321 94.1481 324.348 94.1981 325.356 94.0482C327.39 93.7454 329.22 92.647 330.445 90.9946C331.669 89.3422 332.187 87.2712 331.884 85.237C331.581 83.2029 330.483 81.3724 328.831 80.1481C327.178 78.9239 325.107 78.4062 323.073 78.709ZM376.955 72.9858C375.731 74.6382 375.213 76.7093 375.516 78.7434C375.819 80.7775 376.917 82.6081 378.57 83.8323C380.222 85.0566 382.293 85.5742 384.327 85.2715C386.362 84.9687 388.192 83.8704 389.417 82.2179C390.641 80.5655 391.159 78.4945 390.856 76.4604C390.553 74.4262 389.455 72.5957 387.802 71.3715C386.15 70.1472 384.079 69.6295 382.044 69.9323C380.01 70.235 378.18 71.3334 376.955 72.9858Z" stroke="white" stroke-opacity="0.7" stroke-width="1.2"/>
<path d="M138.02 158.928L137.599 158.776L137.333 159.135L131.285 167.298L131.017 167.659L131.288 168.017C131.949 168.891 132.52 169.839 132.993 170.85L133.182 171.255L133.625 171.189L160.94 167.124L161.383 167.058L161.446 166.615C161.917 163.325 163.395 160.261 165.677 157.844C167.96 155.428 170.935 153.777 174.193 153.119C177.452 152.461 180.834 152.829 183.875 154.171C186.916 155.512 189.467 157.763 191.178 160.613C192.888 163.463 193.674 166.773 193.427 170.088C193.181 173.402 191.914 176.559 189.8 179.125C187.687 181.691 184.831 183.539 181.624 184.416C178.418 185.294 175.019 185.156 171.894 184.024L171.473 183.871L171.207 184.231L165.159 192.394L164.892 192.753L165.161 193.111C167.48 196.204 168.608 200.028 168.339 203.884C168.07 207.74 166.422 211.371 163.696 214.112C160.971 216.853 157.349 218.521 153.494 218.812C149.64 219.103 145.809 217.997 142.703 215.696C139.597 213.394 137.423 210.052 136.578 206.28C135.734 202.508 136.276 198.558 138.105 195.152C139.933 191.747 142.927 189.113 146.538 187.733C150.149 186.353 154.136 186.318 157.77 187.636L158.191 187.788L158.457 187.429L164.506 179.266L164.772 178.906L164.503 178.548C163.839 177.664 163.268 176.713 162.8 175.711L162.611 175.306L162.168 175.372L134.852 179.437L134.41 179.503L134.347 179.946C133.876 183.236 132.398 186.3 130.115 188.716C127.833 191.133 124.858 192.784 121.6 193.441C118.341 194.099 114.959 193.732 111.918 192.39C108.877 191.048 106.325 188.798 104.615 185.948C102.905 183.098 102.119 179.788 102.365 176.473C102.612 173.158 103.879 170.001 105.992 167.436C108.106 164.87 110.962 163.022 114.168 162.144C117.375 161.267 120.774 161.404 123.899 162.537L124.319 162.689L124.585 162.33L130.632 154.173L130.899 153.814L130.63 153.456C129.024 151.318 127.979 148.812 127.59 146.167L126.996 146.254L127.59 146.166C127.072 142.681 127.712 139.122 129.412 136.036C131.112 132.95 133.778 130.507 137 129.082C140.223 127.657 143.824 127.329 147.251 128.148C150.678 128.967 153.741 130.889 155.971 133.617C158.201 136.345 159.473 139.729 159.593 143.25C159.714 146.772 158.675 150.235 156.637 153.109C154.598 155.983 151.673 158.109 148.31 159.16C144.947 160.211 141.332 160.13 138.02 158.928ZM142.367 136.127C140.333 136.43 138.502 137.528 137.278 139.18C136.053 140.833 135.535 142.904 135.838 144.938C136.141 146.972 137.239 148.803 138.892 150.027C140.544 151.251 142.616 151.769 144.65 151.466C146.684 151.163 148.515 150.065 149.739 148.413C150.963 146.76 151.481 144.689 151.178 142.655C150.876 140.621 149.777 138.79 148.125 137.566C146.472 136.342 144.401 135.824 142.367 136.127ZM146.054 198.148C144.829 199.801 144.312 201.872 144.614 203.906C144.917 205.94 146.015 207.77 147.668 208.995C149.32 210.219 151.392 210.737 153.426 210.434C155.46 210.131 157.291 209.033 158.515 207.38C159.739 205.728 160.257 203.657 159.954 201.623C159.652 199.589 158.553 197.758 156.901 196.534C155.248 195.31 153.177 194.792 151.143 195.095C149.109 195.397 147.278 196.496 146.054 198.148ZM117.269 169.999C116.262 170.149 115.294 170.496 114.421 171.02C113.547 171.544 112.786 172.234 112.18 173.053C111.574 173.871 111.134 174.8 110.887 175.788C110.64 176.776 110.59 177.803 110.74 178.81C110.89 179.817 111.237 180.785 111.761 181.658C112.285 182.532 112.976 183.293 113.794 183.899C114.612 184.505 115.542 184.944 116.53 185.191C117.518 185.438 118.545 185.488 119.552 185.338C121.586 185.036 123.417 183.937 124.641 182.285C125.865 180.632 126.383 178.561 126.081 176.527C125.778 174.493 124.679 172.663 123.027 171.438C121.374 170.214 119.303 169.696 117.269 169.999ZM171.152 164.276C169.927 165.928 169.409 167.999 169.712 170.034C170.015 172.068 171.113 173.898 172.766 175.122C174.418 176.347 176.489 176.864 178.524 176.562C180.558 176.259 182.389 175.161 183.613 173.508C184.837 171.856 185.355 169.785 185.052 167.751C184.75 165.716 183.651 163.886 181.999 162.662C180.346 161.437 178.275 160.92 176.241 161.222C174.207 161.525 172.376 162.624 171.152 164.276Z" stroke="white" stroke-opacity="0.7" stroke-width="1.2"/>
<path d="M281.44 137.583L281.02 137.431L280.754 137.79L274.705 145.953L274.438 146.314L274.709 146.673C275.369 147.546 275.94 148.494 276.413 149.505L276.603 149.91L277.045 149.844L304.361 145.779L304.803 145.713L304.866 145.27C305.337 141.98 306.815 138.916 309.098 136.499C311.38 134.083 314.355 132.432 317.613 131.774C320.872 131.117 324.254 131.484 327.295 132.826C330.337 134.167 332.888 136.418 334.598 139.268C336.309 142.118 337.094 145.428 336.848 148.743C336.601 152.057 335.334 155.214 333.221 157.78C331.107 160.346 328.251 162.194 325.045 163.071C321.838 163.949 318.439 163.811 315.314 162.679L314.894 162.526L314.627 162.886L308.579 171.049L308.313 171.408L308.581 171.766C310.9 174.859 312.028 178.683 311.759 182.539C311.49 186.395 309.842 190.026 307.117 192.767C304.391 195.508 300.77 197.176 296.915 197.467C293.06 197.758 289.229 196.652 286.123 194.351C283.017 192.049 280.843 188.707 279.999 184.935C279.155 181.163 279.696 177.213 281.525 173.807C283.354 170.402 286.347 167.768 289.958 166.388C293.569 165.008 297.557 164.973 301.191 166.291L301.611 166.443L301.877 166.084L307.926 157.921L308.193 157.561L307.924 157.203C307.259 156.319 306.688 155.368 306.22 154.366L306.031 153.961L305.588 154.027L278.273 158.092L277.83 158.158L277.767 158.601C277.296 161.891 275.818 164.955 273.536 167.372C271.253 169.788 268.278 171.439 265.02 172.096C261.762 172.754 258.379 172.387 255.338 171.045C252.297 169.703 249.746 167.453 248.035 164.603C246.325 161.753 245.539 158.443 245.786 155.128C246.032 151.813 247.299 148.656 249.413 146.091C251.526 143.525 254.382 141.677 257.589 140.799C260.795 139.922 264.194 140.059 267.319 141.192L267.74 141.344L268.006 140.985L274.052 132.828L274.319 132.469L274.05 132.111C272.444 129.973 271.399 127.467 271.01 124.822L270.417 124.909L271.01 124.821C270.492 121.336 271.132 117.777 272.832 114.691C274.532 111.605 277.198 109.162 280.421 107.737C283.643 106.312 287.245 105.984 290.671 106.803C294.098 107.622 297.162 109.544 299.391 112.272C301.621 115 302.894 118.384 303.014 121.905C303.134 125.427 302.095 128.89 300.057 131.764C298.019 134.638 295.094 136.764 291.731 137.815C288.368 138.866 284.753 138.785 281.44 137.583ZM285.787 114.782C283.753 115.085 281.922 116.183 280.698 117.835C279.474 119.488 278.956 121.559 279.259 123.593C279.561 125.627 280.66 127.458 282.312 128.682C283.965 129.906 286.036 130.424 288.07 130.121C290.104 129.818 291.935 128.72 293.159 127.068C294.384 125.415 294.902 123.344 294.599 121.31C294.296 119.276 293.198 117.445 291.545 116.221C289.893 114.997 287.821 114.479 285.787 114.782ZM289.474 176.803C288.25 178.456 287.732 180.527 288.035 182.561C288.337 184.595 289.436 186.426 291.088 187.65C292.741 188.874 294.812 189.392 296.846 189.089C298.88 188.786 300.711 187.688 301.935 186.035C303.16 184.383 303.678 182.312 303.375 180.278C303.072 178.244 301.974 176.413 300.321 175.189C298.669 173.965 296.598 173.447 294.563 173.75C292.529 174.052 290.698 175.151 289.474 176.803ZM260.689 148.654C259.682 148.804 258.714 149.151 257.841 149.675C256.968 150.199 256.206 150.889 255.6 151.708C254.994 152.526 254.555 153.455 254.308 154.443C254.061 155.431 254.011 156.458 254.161 157.465C254.311 158.472 254.657 159.44 255.181 160.313C255.705 161.187 256.396 161.948 257.214 162.554C258.033 163.16 258.962 163.599 259.95 163.846C260.938 164.093 261.965 164.143 262.972 163.993C265.007 163.691 266.837 162.592 268.062 160.94C269.286 159.287 269.804 157.216 269.501 155.182C269.198 153.148 268.1 151.318 266.447 150.093C264.795 148.869 262.724 148.351 260.689 148.654ZM314.572 142.931C313.348 144.583 312.83 146.654 313.133 148.689C313.435 150.723 314.534 152.553 316.186 153.777C317.839 155.002 319.91 155.519 321.944 155.217C323.978 154.914 325.809 153.816 327.033 152.163C328.258 150.511 328.775 148.44 328.473 146.406C328.17 144.371 327.072 142.541 325.419 141.317C323.767 140.092 321.695 139.575 319.661 139.877C317.627 140.18 315.796 141.279 314.572 142.931Z" stroke="white" stroke-opacity="0.7" stroke-width="1.2"/>
<path d="M41.2318 4.49375L40.8113 4.34123L40.5451 4.70058L34.4965 12.8638L34.229 13.2248L34.5001 13.583C35.1609 14.4563 35.7318 15.4048 36.2049 16.4155L36.3944 16.8205L36.8366 16.7546L64.1523 12.6893L64.5946 12.6235L64.658 12.1808C65.1287 8.89037 66.6069 5.82639 68.8893 3.40982C71.1718 0.993259 74.1466 -0.657321 77.405 -1.31514C80.6634 -1.97296 84.0456 -1.60574 87.0868 -0.263932C90.1281 1.07787 92.6791 3.32842 94.3896 6.17851C96.1 9.0286 96.8859 12.3384 96.6393 15.6531C96.3927 18.9679 95.1256 22.125 93.0122 24.6907C90.8988 27.2564 88.0427 29.1048 84.8364 29.9819C81.63 30.8591 78.2307 30.7219 75.1055 29.5893L74.6852 29.4369L74.419 29.7962L68.3704 37.9594L68.1042 38.3187L68.3725 38.6765C70.6914 41.7693 71.8196 45.5933 71.5508 49.4494C71.2819 53.3056 69.634 56.9362 66.9082 59.6773C64.1825 62.4184 60.5611 64.087 56.7063 64.3778C52.8515 64.6686 49.0208 63.5623 45.9147 61.2612C42.8086 58.96 40.6347 55.6178 39.7904 51.8456C38.9461 48.0735 39.4879 44.1234 41.3166 40.7178C43.1454 37.3121 46.139 34.6785 49.75 33.2983C53.361 31.9182 57.3481 31.8838 60.9823 33.2015L61.4027 33.354L61.6689 32.9947L67.7175 24.8315L67.984 24.4717L67.7151 24.1138C67.0507 23.2296 66.4799 22.2788 66.0118 21.2768L65.8225 20.8714L65.3799 20.9372L38.0641 25.0026L37.6218 25.0684L37.5585 25.5111C37.0878 28.8015 35.6096 31.8655 33.3272 34.282C31.0447 36.6986 28.0699 38.3492 24.8115 39.007C21.5531 39.6648 18.1709 39.2976 15.1297 37.9558C12.0884 36.614 9.53734 34.3634 7.82689 31.5134C6.11643 28.6633 5.33054 25.3535 5.57718 22.0387C5.82381 18.724 7.09087 15.5669 9.20429 13.0012C11.3177 10.4355 14.1738 8.58708 17.3801 7.70995C20.5865 6.83281 23.9858 6.96997 27.111 8.10258L27.5312 8.25488L27.7974 7.89579L33.8439 -0.2611L34.1105 -0.620769L33.8417 -0.978747C32.2358 -3.11666 31.1907 -5.62251 30.8017 -8.26784L30.2081 -8.18054L30.8016 -8.26873C30.2837 -11.7537 30.9239 -15.3124 32.6239 -18.3985C34.3239 -21.4846 36.9898 -23.9276 40.2123 -25.3525C43.4349 -26.7774 47.036 -27.1054 50.463 -26.2862C53.8899 -25.467 56.9533 -23.5459 59.1829 -20.8178C61.4124 -18.0896 62.685 -14.7052 62.8053 -11.184C62.9256 -7.66277 61.8869 -4.19936 59.8486 -1.32536C57.8104 1.54863 54.8852 3.67437 51.5222 4.72557C48.1591 5.77677 44.544 5.69533 41.2318 4.49375ZM45.5787 -18.3076C43.5445 -18.0049 41.7139 -16.9065 40.4895 -15.2541C39.2652 -13.6017 38.7474 -11.5306 39.0501 -9.49648C39.3529 -7.46236 40.4513 -5.63183 42.1038 -4.40758C43.7563 -3.18333 45.8274 -2.66565 47.8617 -2.9684C49.8959 -3.27115 51.7265 -4.36953 52.9509 -6.02194C54.1752 -7.67434 54.693 -9.74541 54.3903 -11.7795C54.0875 -13.8137 52.9891 -15.6442 51.3366 -16.8684C49.6841 -18.0927 47.613 -18.6104 45.5787 -18.3076ZM49.2656 43.7138C48.0412 45.3662 47.5235 47.4373 47.8262 49.4714C48.1289 51.5055 49.2274 53.336 50.8799 54.5603C52.5324 55.7845 54.6035 56.3022 56.6377 55.9995C58.672 55.6967 60.5026 54.5983 61.727 52.9459C62.9513 51.2935 63.4691 49.2225 63.1664 47.1883C62.8636 45.1542 61.7652 43.3237 60.1127 42.0994C58.4602 40.8752 56.3891 40.3575 54.3548 40.6603C52.3206 40.963 50.49 42.0614 49.2656 43.7138ZM20.4809 15.5647C19.4737 15.7146 18.5058 16.0614 17.6326 16.5853C16.7594 17.1092 15.9979 17.8 15.3917 18.6182C14.7854 19.4364 14.3463 20.366 14.0993 21.3539C13.8523 22.3417 13.8024 23.3686 13.9523 24.3758C14.1022 25.383 14.449 26.3508 14.9729 27.2239C15.4969 28.0971 16.1877 28.8585 17.0059 29.4647C17.8242 30.0709 18.7538 30.51 19.7417 30.7569C20.7297 31.0038 21.7566 31.0538 22.7638 30.9039C24.798 30.6011 26.6287 29.5027 27.853 27.8503C29.0774 26.1979 29.5952 24.1269 29.2924 22.0927C28.9897 20.0586 27.8913 18.2281 26.2388 17.0038C24.5863 15.7796 22.5151 15.2619 20.4809 15.5647ZM74.3635 9.84153C73.1391 11.4939 72.6213 13.565 72.9241 15.5991C73.2268 17.6332 74.3252 19.4638 75.9777 20.688C77.6302 21.9123 79.7014 22.4299 81.7356 22.1272C83.7698 21.8245 85.6005 20.7261 86.8248 19.0737C88.0492 17.4213 88.5669 15.3502 88.2642 13.3161C87.9615 11.2819 86.863 9.45142 85.2106 8.22717C83.5581 7.00292 81.4869 6.48524 79.4527 6.78799C77.4185 7.09074 75.5878 8.18912 74.3635 9.84153Z" stroke="white" stroke-opacity="0.7" stroke-width="1.2"/>
<path d="M-21.6259 -53.4402L-14.4416 -60.6241L-21.6259 -53.4402ZM-21.6259 -53.4402C-21.0804 -52.4416 -20.6392 -51.3804 -20.3083 -50.2715L-21.6259 -53.4402ZM-14.2037 -61.0639L-14.5316 -61.2412L-14.7951 -60.9777L-21.9795 -53.7938L-22.2442 -53.529L-22.0647 -53.2005C-21.5363 -52.2332 -21.1085 -51.2045 -20.7874 -50.1286L-20.6809 -49.7715H-20.3083H7.30829H7.68093L7.78744 -50.1286C8.74333 -53.3337 10.6683 -56.1642 13.2979 -58.2312C15.9274 -60.2982 19.1326 -61.5003 22.473 -61.6724C25.8134 -61.8444 29.1251 -60.978 31.9531 -59.1921C34.7812 -57.4062 36.9868 -54.7884 38.267 -51.6985C39.5471 -48.6086 39.839 -45.1981 39.1026 -41.9356C38.3661 -38.6731 36.6374 -35.7187 34.154 -33.4782C31.6706 -31.2378 28.5543 -29.8212 25.2333 -29.4232C21.9122 -29.0251 18.5494 -29.6652 15.6068 -31.2553L15.279 -31.4324L15.0156 -31.169L7.83119 -23.9851L7.56765 -23.7216L7.7449 -23.3937C9.59476 -19.9722 10.1512 -15.9992 9.31242 -12.2012C8.47366 -8.40318 6.29576 -5.03394 3.17696 -2.70956C0.0581474 -0.38517 -3.79316 0.739037 -7.67275 0.457497C-11.5523 0.175964 -15.201 -1.4925 -17.9515 -4.24281C-20.7019 -6.99312 -22.3705 -10.6415 -22.6521 -14.5208C-22.9336 -18.4001 -21.8093 -22.2511 -19.4848 -25.3697C-17.1603 -28.4883 -13.7908 -30.6661 -9.99253 -31.5048C-6.19424 -32.3435 -2.22096 -31.7871 1.2008 -29.9374L1.52861 -29.7602L1.79212 -30.0237L8.97649 -37.2076L9.2403 -37.4714L9.06253 -37.7994C8.53224 -38.7778 8.10495 -39.8087 7.78753 -40.8754L7.68118 -41.2328H7.30829H-20.3083H-20.6809L-20.7874 -40.8757C-21.7433 -37.6706 -23.6683 -34.8401 -26.2979 -32.7731C-28.9274 -30.7061 -32.1326 -29.504 -35.473 -29.3319C-38.8134 -29.1599 -42.1251 -30.0263 -44.9531 -31.8122C-47.7812 -33.5981 -49.9868 -36.2159 -51.267 -39.3058C-52.5471 -42.3957 -52.839 -45.8062 -52.1026 -49.0687C-51.3661 -52.3312 -49.6375 -55.2856 -47.154 -57.5261C-44.6706 -59.7665 -41.5543 -61.1831 -38.2333 -61.5811C-34.9122 -61.9792 -31.5494 -61.3391 -28.6068 -59.749L-28.2791 -59.5719L-28.0156 -59.8352L-20.8342 -67.0132L-20.5704 -67.2769L-20.7481 -67.605C-22.0296 -69.9707 -22.6986 -72.6195 -22.694 -75.31L-23.1933 -75.3108L-22.694 -75.3107C-22.6932 -78.8559 -21.5289 -82.3028 -19.3799 -85.1225C-17.2308 -87.9421 -14.2157 -89.9786 -10.7974 -90.9194C-7.37912 -91.8602 -3.74651 -91.6533 -0.45718 -90.3304C2.83215 -89.0075 5.59641 -86.6418 7.41132 -83.5963C9.22622 -80.5509 9.99147 -76.994 9.5896 -73.4717C9.18773 -69.9494 7.64096 -66.6563 5.18669 -64.0978C2.73243 -61.5394 -0.493706 -59.857 -3.9965 -59.3089C-7.4993 -58.7609 -11.0852 -59.3774 -14.2037 -61.0639ZM-6.5 -82.9649C-8.53011 -82.9649 -10.4771 -82.1585 -11.9126 -80.7231C-13.3481 -79.2877 -14.1546 -77.3408 -14.1546 -75.3108C-14.1546 -73.2808 -13.3481 -71.334 -11.9126 -69.8986C-10.4771 -68.4632 -8.53011 -67.6567 -6.5 -67.6567C-4.46989 -67.6567 -2.52294 -68.4632 -1.08743 -69.8986C0.348083 -71.334 1.15455 -73.2808 1.15455 -75.3108C1.15455 -77.3408 0.348083 -79.2877 -1.08743 -80.7231C-2.52294 -82.1585 -4.46989 -82.9649 -6.5 -82.9649ZM-11.9126 -21.1057C-13.3481 -19.6703 -14.1546 -17.7235 -14.1546 -15.6935C-14.1546 -13.6635 -13.3481 -11.7166 -11.9126 -10.2812C-10.4771 -8.84579 -8.53011 -8.03938 -6.5 -8.03938C-4.46989 -8.03938 -2.52294 -8.84579 -1.08743 -10.2812C0.348083 -11.7166 1.15455 -13.6635 1.15455 -15.6935C1.15455 -17.7235 0.348083 -19.6703 -1.08743 -21.1057C-2.52294 -22.5411 -4.46989 -23.3475 -6.5 -23.3475C-8.53011 -23.3475 -10.4771 -22.5411 -11.9126 -21.1057ZM-36.3107 -53.1562C-37.3159 -53.1562 -38.3112 -52.9583 -39.2399 -52.5736C-40.1686 -52.189 -41.0124 -51.6252 -41.7232 -50.9144C-42.434 -50.2037 -42.9979 -49.3599 -43.3825 -48.4312C-43.7672 -47.5026 -43.9652 -46.5073 -43.9652 -45.5021C-43.9652 -44.497 -43.7672 -43.5017 -43.3825 -42.573C-42.9979 -41.6444 -42.434 -40.8006 -41.7232 -40.0899C-41.0124 -39.3791 -40.1686 -38.8153 -39.2399 -38.4307C-38.3112 -38.046 -37.3159 -37.8481 -36.3107 -37.8481C-34.2806 -37.8481 -32.3336 -38.6545 -30.8981 -40.0899C-29.4626 -41.5253 -28.6561 -43.4721 -28.6561 -45.5021C-28.6561 -47.5321 -29.4626 -49.479 -30.8981 -50.9144C-32.3336 -52.3498 -34.2806 -53.1562 -36.3107 -53.1562ZM17.8981 -50.9144C16.4626 -49.479 15.6561 -47.5322 15.6561 -45.5021C15.6561 -43.4721 16.4626 -41.5253 17.8981 -40.0899C19.3336 -38.6545 21.2806 -37.8481 23.3107 -37.8481C25.3408 -37.8481 27.2877 -38.6545 28.7232 -40.0899C30.1587 -41.5253 30.9652 -43.4721 30.9652 -45.5021C30.9652 -47.5322 30.1587 -49.479 28.7232 -50.9144C27.2877 -52.3498 25.3408 -53.1562 23.3107 -53.1562C21.2806 -53.1562 19.3336 -52.3498 17.8981 -50.9144Z" stroke="white" stroke-opacity="0.7"/>
<path d="M184.652 -16.8512L184.232 -17.0037L183.965 -16.6444L177.917 -8.48117L177.649 -8.1202L177.921 -7.76194C178.581 -6.88865 179.152 -5.94016 179.625 -4.92946L179.815 -4.52451L180.257 -4.59033L207.573 -8.65568L208.015 -8.72151L208.078 -9.16417C208.549 -12.4546 210.027 -15.5186 212.31 -17.9351C214.592 -20.3517 217.567 -22.0023 220.825 -22.6601C224.084 -23.3179 227.466 -22.9507 230.507 -21.6089C233.548 -20.2671 236.1 -18.0166 237.81 -15.1665C239.52 -12.3164 240.306 -9.00659 240.06 -5.69183C239.813 -2.37706 238.546 0.780042 236.433 3.34573C234.319 5.91142 231.463 7.75981 228.257 8.63695C225.05 9.51408 221.651 9.37692 218.526 8.24431L218.106 8.09198L217.839 8.45121L211.791 16.6144L211.525 16.9738L211.793 17.3316C214.112 20.4243 215.24 24.2483 214.971 28.1045C214.702 31.9606 213.054 35.5912 210.329 38.3323C207.603 41.0735 203.982 42.742 200.127 43.0328C196.272 43.3237 192.441 42.2173 189.335 39.9162C186.229 37.615 184.055 34.2728 183.211 30.5006C182.367 26.7285 182.908 22.7785 184.737 19.3728C186.566 15.9672 189.559 13.3335 193.17 11.9534C196.781 10.5732 200.769 10.5389 204.403 11.8566L204.823 12.009L205.089 11.6497L211.138 3.48648L211.404 3.12676L211.135 2.76885C210.471 1.88464 209.9 0.933863 209.432 -0.0682077L209.243 -0.473616L208.8 -0.407747L181.485 3.65761L181.042 3.72344L180.979 4.1661C180.508 7.45653 179.03 10.5205 176.748 12.9371C174.465 15.3536 171.49 17.0042 168.232 17.662C164.973 18.3199 161.591 17.9526 158.55 16.6108C155.509 15.269 152.958 13.0185 151.247 10.1684C149.537 7.3183 148.751 4.00851 148.998 0.693747C149.244 -2.62102 150.511 -5.77812 152.625 -8.34381C154.738 -10.9095 157.594 -12.7579 160.801 -13.635C164.007 -14.5122 167.406 -14.375 170.531 -13.2424L170.952 -13.0901L171.218 -13.4492L177.264 -21.6061L177.531 -21.9657L177.262 -22.3237C175.656 -24.4616 174.611 -26.9675 174.222 -29.6128L173.629 -29.5255L174.222 -29.6137C173.704 -33.0987 174.344 -36.6574 176.044 -39.7435C177.744 -42.8296 180.41 -45.2726 183.633 -46.6975C186.855 -48.1223 190.456 -48.4504 193.883 -47.6312C197.31 -46.812 200.374 -44.8909 202.603 -42.1628C204.833 -39.4346 206.105 -36.0502 206.226 -32.529C206.346 -29.0077 205.307 -25.5443 203.269 -22.6703C201.231 -19.7963 198.306 -17.6706 194.943 -16.6194C191.58 -15.5682 187.964 -15.6496 184.652 -16.8512ZM188.999 -39.6526C186.965 -39.3498 185.134 -38.2514 183.91 -36.599C182.686 -34.9466 182.168 -32.8756 182.471 -30.8415C182.773 -28.8073 183.872 -26.9768 185.524 -25.7526C187.177 -24.5283 189.248 -24.0106 191.282 -24.3134C193.316 -24.6161 195.147 -25.7145 196.371 -27.3669C197.596 -29.0193 198.113 -31.0904 197.811 -33.1245C197.508 -35.1586 196.41 -36.9892 194.757 -38.2134C193.105 -39.4376 191.033 -39.9553 188.999 -39.6526ZM192.686 22.3688C191.462 24.0212 190.944 26.0923 191.247 28.1264C191.549 30.1605 192.648 31.9911 194.3 33.2153C195.953 34.4396 198.024 34.9573 200.058 34.6545C202.092 34.3518 203.923 33.2534 205.147 31.601C206.372 29.9486 206.89 27.8775 206.587 25.8434C206.284 23.8093 205.186 21.9787 203.533 20.7545C201.881 19.5302 199.809 19.0125 197.775 19.3153C195.741 19.618 193.91 20.7164 192.686 22.3688ZM163.901 -5.78031C162.894 -5.6304 161.926 -5.28358 161.053 -4.75966C160.18 -4.23573 159.418 -3.54496 158.812 -2.72677C158.206 -1.90858 157.767 -0.979001 157.52 0.00888624C157.273 0.996778 157.223 2.02363 157.373 3.03083C157.523 4.03802 157.869 5.00582 158.393 5.87897C158.917 6.75213 159.608 7.51354 160.426 8.11972C161.245 8.72591 162.174 9.165 163.162 9.41194C164.15 9.65887 165.177 9.70881 166.184 9.55891C168.218 9.25616 170.049 8.15777 171.273 6.50537C172.498 4.85296 173.016 2.78189 172.713 0.747775C172.41 -1.28635 171.312 -3.11687 169.659 -4.34112C168.007 -5.56537 165.936 -6.08306 163.901 -5.78031ZM217.784 -11.5034C216.56 -9.85104 216.042 -7.77997 216.344 -5.74585C216.647 -3.71173 217.746 -1.8812 219.398 -0.656952C221.051 0.567293 223.122 1.08498 225.156 0.782231C227.19 0.479481 229.021 -0.618906 230.245 -2.27131C231.47 -3.92371 231.987 -5.99478 231.685 -8.0289C231.382 -10.063 230.283 -11.8935 228.631 -13.1178C226.978 -14.342 224.907 -14.8597 222.873 -14.557C220.839 -14.2542 219.008 -13.1558 217.784 -11.5034Z" stroke="white" stroke-opacity="0.7" stroke-width="1.2"/>
<path d="M328.072 -38.1962L327.652 -38.3487L327.385 -37.9894L321.337 -29.8262L321.069 -29.4652L321.34 -29.1069C322.001 -28.2337 322.572 -27.2852 323.045 -26.2745L323.235 -25.8695L323.677 -25.9353L350.993 -30.0007L351.435 -30.0665L351.498 -30.5092C351.969 -33.7996 353.447 -36.8636 355.73 -39.2801C358.012 -41.6967 360.987 -43.3473 364.245 -44.0051C367.504 -44.6629 370.886 -44.2957 373.927 -42.9539C376.968 -41.6121 379.519 -39.3616 381.23 -36.5115C382.94 -33.6614 383.726 -30.3516 383.48 -27.0368C383.233 -23.7221 381.966 -20.565 379.853 -17.9993C377.739 -15.4336 374.883 -13.5852 371.677 -12.7081C368.47 -11.8309 365.071 -11.9681 361.946 -13.1007L361.526 -13.253L361.259 -12.8938L355.211 -4.73057L354.945 -4.37124L355.213 -4.01343C357.532 -0.920712 358.66 2.90333 358.391 6.75947C358.122 10.6156 356.474 14.2462 353.749 16.9873C351.023 19.7285 347.401 21.397 343.547 21.6878C339.692 21.9787 335.861 20.8723 332.755 18.5712C329.649 16.27 327.475 12.9278 326.631 9.15565C325.786 5.38349 326.328 1.43345 328.157 -1.97219C329.986 -5.37784 332.979 -8.01152 336.59 -9.39165C340.201 -10.7718 344.188 -10.8061 347.823 -9.48844L348.243 -9.33601L348.509 -9.6953L354.558 -17.8585L354.824 -18.2182L354.555 -18.5762C353.891 -19.4604 353.32 -20.4111 352.852 -21.4132L352.663 -21.8186L352.22 -21.7527L324.904 -17.6874L324.462 -17.6216L324.399 -17.1789C323.928 -13.8885 322.45 -10.8245 320.168 -8.40793C317.885 -5.99137 314.91 -4.34079 311.652 -3.68297C308.393 -3.02515 305.011 -3.39237 301.97 -4.73418C298.929 -6.07598 296.378 -8.32653 294.667 -11.1766C292.957 -14.0267 292.171 -17.3365 292.418 -20.6513C292.664 -23.966 293.931 -27.1231 296.045 -29.6888C298.158 -32.2545 301.014 -34.1029 304.22 -34.98C307.427 -35.8572 310.826 -35.72 313.951 -34.5874L314.372 -34.4351L314.638 -34.7942L320.684 -42.9511L320.951 -43.3107L320.682 -43.6687C319.076 -45.8066 318.031 -48.3125 317.642 -50.9578L317.048 -50.8705L317.642 -50.9587C317.124 -54.4437 317.764 -58.0024 319.464 -61.0885C321.164 -64.1746 323.83 -66.6176 327.053 -68.0425C330.275 -69.4673 333.876 -69.7954 337.303 -68.9762C340.73 -68.157 343.794 -66.2359 346.023 -63.5078C348.253 -60.7796 349.525 -57.3952 349.646 -53.874C349.766 -50.3527 348.727 -46.8893 346.689 -44.0153C344.651 -41.1413 341.726 -39.0156 338.363 -37.9644C334.999 -36.9132 331.384 -36.9946 328.072 -38.1962ZM332.419 -60.9976C330.385 -60.6948 328.554 -59.5965 327.33 -57.944C326.105 -56.2916 325.588 -54.2206 325.89 -52.1865C326.193 -50.1523 327.292 -48.3218 328.944 -47.0976C330.597 -45.8733 332.668 -45.3556 334.702 -45.6584C336.736 -45.9611 338.567 -47.0595 339.791 -48.7119C341.016 -50.3643 341.533 -52.4354 341.231 -54.4695C340.928 -56.5036 339.829 -58.3342 338.177 -59.5584C336.524 -60.7827 334.453 -61.3003 332.419 -60.9976ZM336.106 1.02383C334.882 2.67624 334.364 4.7473 334.667 6.78142C334.969 8.81554 336.068 10.6461 337.72 11.8703C339.373 13.0946 341.444 13.6123 343.478 13.3095C345.512 13.0068 347.343 11.9084 348.567 10.256C349.792 8.60356 350.309 6.53249 350.007 4.49837C349.704 2.46425 348.606 0.633724 346.953 -0.590526C345.301 -1.81477 343.229 -2.33246 341.195 -2.02971C339.161 -1.72696 337.33 -0.628568 336.106 1.02383ZM307.321 -27.1253C306.314 -26.9754 305.346 -26.6286 304.473 -26.1047C303.6 -25.5807 302.838 -24.89 302.232 -24.0718C301.626 -23.2536 301.187 -22.324 300.94 -21.3361C300.693 -20.3482 300.643 -19.3214 300.793 -18.3142C300.943 -17.307 301.289 -16.3392 301.813 -15.466C302.337 -14.5929 303.028 -13.8315 303.846 -13.2253C304.664 -12.6191 305.594 -12.18 306.582 -11.9331C307.57 -11.6861 308.597 -11.6362 309.604 -11.7861C311.638 -12.0888 313.469 -13.1872 314.693 -14.8396C315.918 -16.492 316.435 -18.5631 316.133 -20.5972C315.83 -22.6313 314.732 -24.4619 313.079 -25.6861C311.427 -26.9104 309.355 -27.4281 307.321 -27.1253ZM361.204 -32.8484C359.979 -31.196 359.462 -29.125 359.764 -27.0909C360.067 -25.0567 361.166 -23.2262 362.818 -22.002C364.471 -20.7777 366.542 -20.26 368.576 -20.5628C370.61 -20.8655 372.441 -21.9639 373.665 -23.6163C374.89 -25.2687 375.407 -27.3398 375.105 -29.3739C374.802 -31.408 373.703 -33.2386 372.051 -34.4628C370.398 -35.687 368.327 -36.2047 366.293 -35.902C364.259 -35.5992 362.428 -34.5008 361.204 -32.8484Z" stroke="white" stroke-opacity="0.7" stroke-width="1.2"/>
<path d="M122.269 53.094L121.848 52.9414L121.582 53.3008L115.534 61.464L115.266 61.825L115.537 62.1833C116.198 63.0565 116.769 64.005 117.242 65.0157L117.431 65.4207L117.874 65.3549L145.189 61.2895L145.632 61.2237L145.695 60.781C146.166 57.4906 147.644 54.4266 149.926 52.01C152.209 49.5935 155.184 47.9429 158.442 47.2851C161.701 46.6273 165.083 46.9945 168.124 48.3363C171.165 49.6781 173.716 51.9286 175.427 54.7787C177.137 57.6288 177.923 60.9386 177.676 64.2534C177.43 67.5681 176.163 70.7252 174.049 73.2909C171.936 75.8566 169.08 77.705 165.873 78.5821C162.667 79.4593 159.268 79.3221 156.143 78.1895L155.722 78.0372L155.456 78.3964L149.408 86.5596L149.141 86.919L149.41 87.2768C151.729 90.3695 152.857 94.1935 152.588 98.0497C152.319 101.906 150.671 105.536 147.945 108.278C145.22 111.019 141.598 112.687 137.743 112.978C133.889 113.269 130.058 112.163 126.952 109.861C123.846 107.56 121.672 104.218 120.828 100.446C119.983 96.6737 120.525 92.7236 122.354 89.318C124.182 85.9124 127.176 83.2787 130.787 81.8985C134.398 80.5184 138.385 80.4841 142.019 81.8018L142.44 81.9542L142.706 81.5949L148.755 73.4317L149.021 73.072L148.752 72.714C148.088 71.8298 147.517 70.8791 147.049 69.877L146.86 69.4716L146.417 69.5374L119.101 73.6028L118.659 73.6686L118.596 74.1113C118.125 77.4017 116.647 80.4657 114.364 82.8823C112.082 85.2988 109.107 86.9494 105.849 87.6072C102.59 88.265 99.208 87.8978 96.1668 86.556C93.1255 85.2142 90.5744 82.9637 88.864 80.1136C87.1535 77.2635 86.3677 73.9537 86.6143 70.6389C86.8609 67.3242 88.128 64.1671 90.2414 61.6014C92.3548 59.0357 95.2109 57.1873 98.4172 56.3102C101.624 55.433 105.023 55.5702 108.148 56.7028L108.568 56.8551L108.835 56.496L114.881 48.3391L115.148 47.9795L114.879 47.6215C113.273 45.4836 112.228 42.9777 111.839 40.3324L111.245 40.4197L111.839 40.3315C111.321 36.8465 111.961 33.2878 113.661 30.2017C115.361 27.1156 118.027 24.6726 121.249 23.2477C124.472 21.8229 128.073 21.4948 131.5 22.314C134.927 23.1332 137.99 25.0543 140.22 27.7824C142.45 30.5106 143.722 33.895 143.842 37.4162C143.963 40.9374 142.924 44.4009 140.886 47.2749C138.847 50.1488 135.922 52.2746 132.559 53.3258C129.196 54.377 125.581 54.2955 122.269 53.094ZM126.616 30.2926C124.582 30.5954 122.751 31.6937 121.527 33.3461C120.302 34.9986 119.784 37.0696 120.087 39.1037C120.39 41.1379 121.488 42.9684 123.141 44.1926C124.793 45.4169 126.865 45.9346 128.899 45.6318C130.933 45.3291 132.764 44.2307 133.988 42.5783C135.212 40.9259 135.73 38.8548 135.427 36.8207C135.125 34.7866 134.026 32.956 132.374 31.7318C130.721 30.5075 128.65 29.9899 126.616 30.2926ZM130.303 92.314C129.078 93.9664 128.561 96.0375 128.863 98.0716C129.166 100.106 130.264 101.936 131.917 103.161C133.569 104.385 135.641 104.902 137.675 104.6C139.709 104.297 141.54 103.199 142.764 101.546C143.988 99.8938 144.506 97.8227 144.203 95.7886C143.901 93.7544 142.802 91.9239 141.15 90.6997C139.497 89.4754 137.426 88.9577 135.392 89.2605C133.358 89.5632 131.527 90.6616 130.303 92.314ZM101.518 64.1649C100.511 64.3148 99.5429 64.6616 98.6697 65.1855C97.7965 65.7095 97.035 66.4002 96.4288 67.2184C95.8225 68.0366 95.3834 68.9662 95.1364 69.9541C94.8894 70.942 94.8395 71.9688 94.9894 72.976C95.1393 73.9832 95.4861 74.951 96.0101 75.8242C96.534 76.6973 97.2248 77.4587 98.043 78.0649C98.8613 78.6711 99.7909 79.1102 100.779 79.3571C101.767 79.6041 102.794 79.654 103.801 79.5041C105.835 79.2013 107.666 78.103 108.89 76.4506C110.115 74.7982 110.632 72.7271 110.33 70.693C110.027 68.6588 108.928 66.8283 107.276 65.6041C105.623 64.3798 103.552 63.8621 101.518 64.1649ZM155.401 58.4417C154.176 60.0942 153.658 62.1652 153.961 64.1993C154.264 66.2335 155.362 68.064 157.015 69.2882C158.667 70.5125 160.738 71.0302 162.773 70.7274C164.807 70.4247 166.638 69.3263 167.862 67.6739C169.086 66.0215 169.604 63.9504 169.301 61.9163C168.999 59.8822 167.9 58.0516 166.248 56.8274C164.595 55.6031 162.524 55.0855 160.49 55.3882C158.456 55.691 156.625 56.7893 155.401 58.4417Z" stroke="white" stroke-opacity="0.7" stroke-width="1.2"/>
<path d="M265.689 31.749L265.269 31.5965L265.003 31.9558L258.954 40.119L258.687 40.48L258.958 40.8383C259.618 41.7116 260.189 42.6601 260.662 43.6708L260.852 44.0757L261.294 44.0099L288.61 39.9445L289.052 39.8787L289.115 39.436C289.586 36.1456 291.064 33.0816 293.347 30.6651C295.629 28.2485 298.604 26.5979 301.863 25.9401C305.121 25.2823 308.503 25.6495 311.544 26.9913C314.586 28.3331 317.137 30.5837 318.847 33.4338C320.558 36.2838 321.343 39.5936 321.097 42.9084C320.85 46.2232 319.583 49.3803 317.47 51.946C315.356 54.5116 312.5 56.36 309.294 57.2372C306.088 58.1143 302.688 57.9771 299.563 56.8445L299.143 56.6922L298.877 57.0514L292.828 65.2146L292.562 65.574L292.83 65.9318C295.149 69.0245 296.277 72.8486 296.008 76.7047C295.739 80.5608 294.091 84.1914 291.366 86.9325C288.64 89.6737 285.019 91.3422 281.164 91.6331C277.309 91.9239 273.478 90.8176 270.372 88.5164C267.266 86.2153 265.092 82.873 264.248 79.1009C263.404 75.3287 263.945 71.3787 265.774 67.973C267.603 64.5674 270.596 61.9337 274.207 60.5536C277.818 59.1734 281.806 59.1391 285.44 60.4568L285.86 60.6092L286.126 60.2499L292.175 52.0867L292.442 51.727L292.173 51.3691C291.508 50.4849 290.937 49.5341 290.469 48.532L290.28 48.1266L289.837 48.1925L262.522 52.2578L262.079 52.3237L262.016 52.7663C261.545 56.0567 260.067 59.1207 257.785 61.5373C255.502 63.9539 252.527 65.6044 249.269 66.2623C246.011 66.9201 242.628 66.5528 239.587 65.211C236.546 63.8692 233.995 61.6187 232.284 58.7686C230.574 55.9185 229.788 52.6087 230.035 49.294C230.281 45.9792 231.548 42.8221 233.662 40.2564C235.775 37.6907 238.631 35.8423 241.838 34.9652C245.044 34.0881 248.443 34.2252 251.568 35.3578L251.989 35.5101L252.255 35.151L258.301 26.9941L258.568 26.6345L258.299 26.2765C256.693 24.1386 255.648 21.6327 255.259 18.9874L254.666 19.0747L255.259 18.9865C254.741 15.5015 255.381 11.9429 257.081 8.85675C258.781 5.77064 261.447 3.32765 264.67 1.90277C267.892 0.477883 271.494 0.149854 274.92 0.969031C278.347 1.78821 281.411 3.70931 283.64 6.43747C285.87 9.16562 287.143 12.55 287.263 16.0713C287.383 19.5925 286.344 23.0559 284.306 25.9299C282.268 28.8039 279.343 30.9296 275.98 31.9808C272.617 33.032 269.002 32.9506 265.689 31.749ZM270.036 8.94763C268.002 9.25038 266.171 10.3488 264.947 12.0012C263.723 13.6536 263.205 15.7246 263.508 17.7588C263.81 19.7929 264.909 21.6234 266.561 22.8477C268.214 24.0719 270.285 24.5896 272.319 24.2868C274.353 23.9841 276.184 22.8857 277.408 21.2333C278.633 19.5809 279.151 17.5098 278.848 15.4757C278.545 13.4416 277.447 11.6111 275.794 10.3868C274.142 9.16257 272.07 8.64488 270.036 8.94763ZM273.723 70.9691C272.499 72.6215 271.981 74.6925 272.284 76.7266C272.586 78.7608 273.685 80.5913 275.337 81.8155C276.99 83.0398 279.061 83.5575 281.095 83.2547C283.129 82.952 284.96 81.8536 286.184 80.2012C287.409 78.5488 287.927 76.4777 287.624 74.4436C287.321 72.4095 286.223 70.5789 284.57 69.3547C282.918 68.1305 280.847 67.6128 278.812 67.9155C276.778 68.2183 274.947 69.3167 273.723 70.9691ZM244.938 42.8199C243.931 42.9698 242.963 43.3166 242.09 43.8406C241.217 44.3645 240.455 45.0553 239.849 45.8734C239.243 46.6916 238.804 47.6212 238.557 48.6091C238.31 49.597 238.26 50.6239 238.41 51.631C238.56 52.6382 238.907 53.606 239.43 54.4792C239.954 55.3523 240.645 56.1138 241.463 56.7199C242.282 57.3261 243.211 57.7652 244.199 58.0122C245.187 58.2591 246.214 58.309 247.221 58.1591C249.256 57.8564 251.086 56.758 252.311 55.1056C253.535 53.4532 254.053 51.3821 253.75 49.348C253.447 47.3139 252.349 45.4833 250.696 44.2591C249.044 43.0348 246.973 42.5172 244.938 42.8199ZM298.821 37.0968C297.597 38.7492 297.079 40.8202 297.382 42.8544C297.684 44.8885 298.783 46.719 300.435 47.9433C302.088 49.1675 304.159 49.6852 306.193 49.3825C308.227 49.0797 310.058 47.9813 311.282 46.3289C312.507 44.6765 313.024 42.6054 312.722 40.5713C312.419 38.5372 311.321 36.7067 309.668 35.4824C308.016 34.2582 305.944 33.7405 303.91 34.0432C301.876 34.346 300.045 35.4444 298.821 37.0968Z" stroke="white" stroke-opacity="0.7" stroke-width="1.2"/>
<path d="M72.7337 216.162L72.3133 216.01L72.047 216.369L65.9984 224.532L65.731 224.893L66.002 225.252C66.6628 226.125 67.2338 227.074 67.7068 228.084L67.8963 228.489L68.3386 228.423L95.6543 224.358L96.0966 224.292L96.1599 223.849C96.6307 220.559 98.1088 217.495 100.391 215.079C102.674 212.662 105.649 211.011 108.907 210.354C112.165 209.696 115.548 210.063 118.589 211.405C121.63 212.747 124.181 214.997 125.892 217.847C127.602 220.697 128.388 224.007 128.141 227.322C127.895 230.637 126.628 233.794 124.514 236.359C122.401 238.925 119.545 240.773 116.338 241.651C113.132 242.528 109.733 242.391 106.607 241.258L106.187 241.106L105.921 241.465L99.8724 249.628L99.6061 249.987L99.8744 250.345C102.193 253.438 103.322 257.262 103.053 261.118C102.784 264.974 101.136 268.605 98.4102 271.346C95.6845 274.087 92.0631 275.756 88.2083 276.047C84.3535 276.337 80.5228 275.231 77.4167 272.93C74.3106 270.629 72.1367 267.286 71.2923 263.514C70.448 259.742 70.9898 255.792 72.8186 252.386C74.6473 248.981 77.6409 246.347 81.2519 244.967C84.8629 243.587 88.8501 243.553 92.4843 244.87L92.9047 245.023L93.1709 244.663L99.2195 236.5L99.486 236.14L99.217 235.783C98.5526 234.898 97.9818 233.948 97.5138 232.945L97.3244 232.54L96.8818 232.606L69.5661 236.671L69.1238 236.737L69.0605 237.18C68.5897 240.47 67.1116 243.534 64.8291 245.951C62.5467 248.367 59.5719 250.018 56.3134 250.676C53.055 251.334 49.6729 250.966 46.6316 249.624C43.5904 248.283 41.0393 246.032 39.3288 243.182C37.6184 240.332 36.8325 237.022 37.0791 233.707C37.3258 230.393 38.5928 227.236 40.7062 224.67C42.8197 222.104 45.6757 220.256 48.8821 219.379C52.0884 218.502 55.4877 218.639 58.6129 219.771L59.0332 219.924L59.2994 219.564L65.3459 211.408L65.6125 211.048L65.3436 210.69C63.7378 208.552 62.6927 206.046 62.3037 203.401L61.71 203.488L62.3035 203.4C61.7857 199.915 62.4259 196.356 64.1259 193.27C65.8259 190.184 68.4917 187.741 71.7143 186.316C74.9368 184.891 78.538 184.563 81.9649 185.382C85.3918 186.202 88.4552 188.123 90.6848 190.851C92.9144 193.579 94.187 196.963 94.3073 200.485C94.4275 204.006 93.3888 207.469 91.3506 210.343C89.3123 213.217 86.3872 215.343 83.0241 216.394C79.6611 217.445 76.046 217.364 72.7337 216.162ZM77.0807 193.361C75.0465 193.664 73.2158 194.762 71.9915 196.415C70.7671 198.067 70.2493 200.138 70.5521 202.172C70.8548 204.206 71.9532 206.037 73.6057 207.261C75.2582 208.485 77.3294 209.003 79.3636 208.7C81.3978 208.398 83.2285 207.299 84.4528 205.647C85.6772 203.994 86.195 201.923 85.8922 199.889C85.5895 197.855 84.4911 196.025 82.8386 194.8C81.1861 193.576 79.1149 193.058 77.0807 193.361ZM80.7676 255.383C79.5432 257.035 79.0254 259.106 79.3282 261.14C79.6309 263.174 80.7293 265.005 82.3818 266.229C84.0343 267.453 86.1055 267.971 88.1397 267.668C90.1739 267.365 92.0046 266.267 93.2289 264.615C94.4533 262.962 94.9711 260.891 94.6683 258.857C94.3656 256.823 93.2671 254.992 91.6147 253.768C89.9622 252.544 87.891 252.026 85.8568 252.329C83.8226 252.632 81.9919 253.73 80.7676 255.383ZM51.9828 227.233C50.9756 227.383 50.0077 227.73 49.1345 228.254C48.2613 228.778 47.4999 229.469 46.8936 230.287C46.2874 231.105 45.8482 232.035 45.6013 233.023C45.3543 234.01 45.3043 235.037 45.4542 236.044C45.6041 237.052 45.9509 238.019 46.4749 238.893C46.9988 239.766 47.6897 240.527 48.5079 241.133C49.3261 241.74 50.2557 242.179 51.2437 242.426C52.2316 242.673 53.2585 242.722 54.2658 242.573C56.3 242.27 58.1306 241.171 59.355 239.519C60.5793 237.867 61.0971 235.796 60.7944 233.761C60.4916 231.727 59.3932 229.897 57.7407 228.673C56.0882 227.448 54.0171 226.931 51.9828 227.233ZM105.865 221.51C104.641 223.163 104.123 225.234 104.426 227.268C104.729 229.302 105.827 231.132 107.48 232.357C109.132 233.581 111.203 234.099 113.238 233.796C115.272 233.493 117.102 232.395 118.327 230.742C119.551 229.09 120.069 227.019 119.766 224.985C119.463 222.951 118.365 221.12 116.713 219.896C115.06 218.672 112.989 218.154 110.955 218.457C108.92 218.759 107.09 219.858 105.865 221.51Z" stroke="white" stroke-opacity="0.7" stroke-width="1.2"/>
<path d="M-5.40057 180.273L-5.821 180.121L-6.08726 180.48L-12.1358 188.643L-12.4033 189.004L-12.1322 189.363C-11.4715 190.236 -10.9005 191.184 -10.4275 192.195L-10.2379 192.6L-9.79571 192.534L17.52 188.469L17.9623 188.403L18.0256 187.96C18.4964 184.67 19.9745 181.606 22.257 179.189C24.5395 176.773 27.5142 175.122 30.7727 174.464C34.0311 173.807 37.4133 174.174 40.4545 175.516C43.4957 176.857 46.0468 179.108 47.7573 181.958C49.4677 184.808 50.2536 188.118 50.007 191.433C49.7604 194.747 48.4933 197.904 46.3799 200.47C44.2664 203.036 41.4104 204.884 38.204 205.761C34.9977 206.639 31.5984 206.501 28.4732 205.369L28.0528 205.216L27.7867 205.576L21.7381 213.739L21.4718 214.098L21.7401 214.456C24.0591 217.549 25.1873 221.373 24.9185 225.229C24.6496 229.085 23.0016 232.716 20.2759 235.457C17.5502 238.198 13.9288 239.866 10.074 240.157C6.21919 240.448 2.3885 239.342 -0.717588 237.041C-3.82368 234.739 -5.99763 231.397 -6.84193 227.625C-7.68623 223.853 -7.14447 219.903 -5.3157 216.497C-3.48693 213.092 -0.493354 210.458 3.11765 209.078C6.72865 207.698 10.7158 207.663 14.35 208.981L14.7704 209.133L15.0366 208.774L21.0852 200.611L21.3517 200.251L21.0828 199.893C20.4184 199.009 19.8475 198.058 19.3795 197.056L19.1901 196.651L18.7475 196.717L-8.56818 200.782L-9.01048 200.848L-9.07381 201.291C-9.54455 204.581 -11.0227 207.645 -13.3052 210.062C-15.5876 212.478 -18.5624 214.129 -21.8208 214.786C-25.0793 215.444 -28.4614 215.077 -31.5027 213.735C-34.5439 212.393 -37.095 210.143 -38.8054 207.293C-40.5159 204.443 -41.3018 201.133 -41.0551 197.818C-40.8085 194.503 -39.5415 191.346 -37.428 188.781C-35.3146 186.215 -32.4585 184.367 -29.2522 183.489C-26.0458 182.612 -22.6466 182.749 -19.5214 183.882L-19.1011 184.034L-18.8349 183.675L-12.7884 175.518L-12.5218 175.159L-12.7907 174.801C-14.3965 172.663 -15.4416 170.157 -15.8306 167.512L-16.4242 167.599L-15.8307 167.511C-16.3486 164.026 -15.7084 160.467 -14.0084 157.381C-12.3084 154.295 -9.64254 151.852 -6.41999 150.427C-3.19744 149.002 0.403683 148.674 3.83063 149.493C7.25757 150.312 10.3209 152.234 12.5505 154.962C14.7801 157.69 16.0527 161.074 16.173 164.595C16.2933 168.117 15.2546 171.58 13.2163 174.454C11.1781 177.328 8.25292 179.454 4.88986 180.505C1.52679 181.556 -2.08831 181.475 -5.40057 180.273ZM-1.05358 157.472C-3.0878 157.775 -4.91845 158.873 -6.14281 160.525C-7.36717 162.178 -7.88494 164.249 -7.5822 166.283C-7.27947 168.317 -6.18103 170.148 -4.52854 171.372C-2.87606 172.596 -0.804891 173.114 1.22933 172.811C3.26354 172.508 5.0942 171.41 6.31855 169.758C7.54291 168.105 8.06068 166.034 7.75795 164C7.45521 161.966 6.35677 160.135 4.70428 158.911C3.0518 157.687 0.980637 157.169 -1.05358 157.472ZM2.63328 219.493C1.40893 221.146 0.891155 223.217 1.19389 225.251C1.49663 227.285 2.59506 229.116 4.24755 230.34C5.90004 231.564 7.9712 232.082 10.0054 231.779C12.0396 231.476 13.8703 230.378 15.0946 228.725C16.319 227.073 16.8368 225.002 16.534 222.968C16.2313 220.934 15.1329 219.103 13.4804 217.879C11.8279 216.655 9.75673 216.137 7.72251 216.44C5.68829 216.742 3.85764 217.841 2.63328 219.493ZM-26.1514 191.344C-27.1587 191.494 -28.1265 191.841 -28.9997 192.365C-29.873 192.889 -30.6344 193.579 -31.2407 194.398C-31.8469 195.216 -32.286 196.145 -32.533 197.133C-32.78 198.121 -32.83 199.148 -32.6801 200.155C-32.5302 201.162 -32.1833 202.13 -31.6594 203.003C-31.1354 203.877 -30.4446 204.638 -29.6264 205.244C-28.8082 205.85 -27.8785 206.289 -26.8906 206.536C-25.9027 206.783 -24.8758 206.833 -23.8685 206.683C-21.8343 206.381 -20.0036 205.282 -18.7793 203.63C-17.5549 201.977 -17.0372 199.906 -17.3399 197.872C-17.6426 195.838 -18.7411 194.008 -20.3936 192.783C-22.046 191.559 -24.1172 191.041 -26.1514 191.344ZM27.7311 185.621C26.5068 187.273 25.989 189.344 26.2917 191.379C26.5945 193.413 27.6929 195.243 29.3454 196.467C30.9979 197.692 33.0691 198.209 35.1033 197.907C37.1375 197.604 38.9681 196.506 40.1925 194.853C41.4169 193.201 41.9346 191.13 41.6319 189.096C41.3292 187.061 40.2307 185.231 38.5782 184.007C36.9257 182.782 34.8546 182.265 32.8204 182.567C30.7861 182.87 28.9555 183.969 27.7311 185.621Z" stroke="white" stroke-opacity="0.7" stroke-width="1.2"/>
<path d="M216.154 194.817L215.734 194.665L215.467 195.024L209.419 203.187L209.151 203.548L209.422 203.907C210.083 204.78 210.654 205.728 211.127 206.739L211.317 207.144L211.759 207.078L239.075 203.013L239.517 202.947L239.58 202.504C240.051 199.214 241.529 196.15 243.812 193.733C246.094 191.317 249.069 189.666 252.327 189.008C255.586 188.351 258.968 188.718 262.009 190.06C265.05 191.401 267.602 193.652 269.312 196.502C271.022 199.352 271.808 202.662 271.562 205.977C271.315 209.291 270.048 212.448 267.935 215.014C265.821 217.58 262.965 219.428 259.759 220.305C256.552 221.183 253.153 221.045 250.028 219.913L249.608 219.76L249.341 220.12L243.293 228.283L243.027 228.642L243.295 229C245.614 232.093 246.742 235.917 246.473 239.773C246.204 243.629 244.556 247.26 241.831 250.001C239.105 252.742 235.484 254.41 231.629 254.701C227.774 254.992 223.943 253.886 220.837 251.585C217.731 249.283 215.557 245.941 214.713 242.169C213.868 238.397 214.41 234.447 216.239 231.041C218.068 227.636 221.061 225.002 224.672 223.622C228.283 222.242 232.27 222.207 235.905 223.525L236.325 223.677L236.591 223.318L242.64 215.155L242.906 214.795L242.637 214.437C241.973 213.553 241.402 212.602 240.934 211.6L240.745 211.195L240.302 211.261L212.987 215.326L212.544 215.392L212.481 215.835C212.01 219.125 210.532 222.189 208.25 224.606C205.967 227.022 202.992 228.673 199.734 229.33C196.475 229.988 193.093 229.621 190.052 228.279C187.011 226.937 184.46 224.687 182.749 221.837C181.039 218.987 180.253 215.677 180.5 212.362C180.746 209.047 182.013 205.89 184.127 203.325C186.24 200.759 189.096 198.911 192.302 198.033C195.509 197.156 198.908 197.293 202.033 198.426L202.454 198.578L202.72 198.219L208.766 190.062L209.033 189.703L208.764 189.345C207.158 187.207 206.113 184.701 205.724 182.056L205.13 182.143L205.724 182.055C205.206 178.57 205.846 175.011 207.546 171.925C209.246 168.839 211.912 166.396 215.135 164.971C218.357 163.546 221.958 163.218 225.385 164.037C228.812 164.856 231.876 166.778 234.105 169.506C236.335 172.234 237.607 175.618 237.728 179.139C237.848 182.661 236.809 186.124 234.771 188.998C232.733 191.872 229.808 193.998 226.445 195.049C223.081 196.1 219.466 196.019 216.154 194.817ZM220.501 172.016C218.467 172.319 216.636 173.417 215.412 175.069C214.188 176.722 213.67 178.793 213.972 180.827C214.275 182.861 215.374 184.692 217.026 185.916C218.679 187.14 220.75 187.658 222.784 187.355C224.818 187.052 226.649 185.954 227.873 184.302C229.098 182.649 229.615 180.578 229.313 178.544C229.01 176.51 227.911 174.679 226.259 173.455C224.606 172.231 222.535 171.713 220.501 172.016ZM224.188 234.037C222.964 235.69 222.446 237.761 222.749 239.795C223.051 241.829 224.15 243.66 225.802 244.884C227.455 246.108 229.526 246.626 231.56 246.323C233.594 246.02 235.425 244.922 236.649 243.269C237.874 241.617 238.391 239.546 238.089 237.512C237.786 235.478 236.688 233.647 235.035 232.423C233.383 231.199 231.311 230.681 229.277 230.984C227.243 231.286 225.412 232.385 224.188 234.037ZM195.403 205.888C194.396 206.038 193.428 206.385 192.555 206.909C191.682 207.433 190.92 208.123 190.314 208.942C189.708 209.76 189.269 210.689 189.022 211.677C188.775 212.665 188.725 213.692 188.875 214.699C189.025 215.706 189.371 216.674 189.895 217.547C190.419 218.421 191.11 219.182 191.928 219.788C192.747 220.394 193.676 220.833 194.664 221.08C195.652 221.327 196.679 221.377 197.686 221.227C199.72 220.925 201.551 219.826 202.775 218.174C204 216.521 204.518 214.45 204.215 212.416C203.912 210.382 202.814 208.552 201.161 207.327C199.509 206.103 197.437 205.585 195.403 205.888ZM249.286 200.165C248.061 201.817 247.544 203.888 247.846 205.923C248.149 207.957 249.248 209.787 250.9 211.012C252.553 212.236 254.624 212.753 256.658 212.451C258.692 212.148 260.523 211.05 261.747 209.397C262.972 207.745 263.489 205.674 263.187 203.64C262.884 201.605 261.785 199.775 260.133 198.551C258.48 197.326 256.409 196.809 254.375 197.111C252.341 197.414 250.51 198.513 249.286 200.165Z" stroke="white" stroke-opacity="0.7" stroke-width="1.2"/>
<path d="M359.575 173.472L359.154 173.32L358.888 173.679L352.839 181.842L352.572 182.203L352.843 182.562C353.504 183.435 354.075 184.383 354.548 185.394L354.737 185.799L355.179 185.733L382.495 181.668L382.937 181.602L383.001 181.159C383.471 177.869 384.95 174.805 387.232 172.388C389.515 169.972 392.489 168.321 395.748 167.663C399.006 167.006 402.388 167.373 405.43 168.715C408.471 170.056 411.022 172.307 412.732 175.157C414.443 178.007 415.229 181.317 414.982 184.632C414.735 187.946 413.468 191.104 411.355 193.669C409.242 196.235 406.385 198.083 403.179 198.96C399.973 199.838 396.573 199.7 393.448 198.568L393.028 198.415L392.762 198.775L386.713 206.938L386.447 207.297L386.715 207.655C389.034 210.748 390.162 214.572 389.894 218.428C389.625 222.284 387.977 225.915 385.251 228.656C382.525 231.397 378.904 233.065 375.049 233.356C371.194 233.647 367.364 232.541 364.258 230.24C361.151 227.939 358.977 224.596 358.133 220.824C357.289 217.052 357.831 213.102 359.659 209.696C361.488 206.291 364.482 203.657 368.093 202.277C371.704 200.897 375.691 200.862 379.325 202.18L379.745 202.332L380.012 201.973L386.06 193.81L386.327 193.45L386.058 193.092C385.393 192.208 384.823 191.257 384.355 190.255L384.165 189.85L383.723 189.916L356.407 193.981L355.965 194.047L355.901 194.49C355.431 197.78 353.952 200.844 351.67 203.261C349.387 205.677 346.413 207.328 343.154 207.986C339.896 208.643 336.514 208.276 333.472 206.934C330.431 205.593 327.88 203.342 326.17 200.492C324.459 197.642 323.673 194.332 323.92 191.017C324.167 187.702 325.434 184.545 327.547 181.98C329.66 179.414 332.517 177.566 335.723 176.688C338.929 175.811 342.329 175.948 345.454 177.081L345.874 177.233L346.14 176.874L352.187 168.717L352.453 168.358L352.184 168C350.579 165.862 349.534 163.356 349.144 160.711L348.551 160.798L349.144 160.71C348.626 157.225 349.267 153.666 350.967 150.58C352.667 147.494 355.333 145.051 358.555 143.626C361.778 142.201 365.379 141.873 368.806 142.692C372.233 143.511 375.296 145.433 377.526 148.161C379.755 150.889 381.028 154.273 381.148 157.795C381.268 161.316 380.23 164.779 378.191 167.653C376.153 170.527 373.228 172.653 369.865 173.704C366.502 174.755 362.887 174.674 359.575 173.472ZM363.922 150.671C361.887 150.974 360.057 152.072 358.832 153.724C357.608 155.377 357.09 157.448 357.393 159.482C357.696 161.516 358.794 163.347 360.447 164.571C362.099 165.795 364.17 166.313 366.204 166.01C368.239 165.707 370.069 164.609 371.294 162.957C372.518 161.304 373.036 159.233 372.733 157.199C372.43 155.165 371.332 153.334 369.679 152.11C368.027 150.886 365.956 150.368 363.922 150.671ZM367.608 212.692C366.384 214.345 365.866 216.416 366.169 218.45C366.472 220.484 367.57 222.315 369.223 223.539C370.875 224.763 372.946 225.281 374.981 224.978C377.015 224.675 378.845 223.577 380.07 221.924C381.294 220.272 381.812 218.201 381.509 216.167C381.206 214.133 380.108 212.302 378.455 211.078C376.803 209.854 374.732 209.336 372.698 209.639C370.663 209.942 368.833 211.04 367.608 212.692ZM338.824 184.543C337.816 184.693 336.849 185.04 335.975 185.564C335.102 186.088 334.341 186.779 333.734 187.597C333.128 188.415 332.689 189.344 332.442 190.332C332.195 191.32 332.145 192.347 332.295 193.354C332.445 194.362 332.792 195.329 333.316 196.202C333.84 197.076 334.53 197.837 335.349 198.443C336.167 199.049 337.097 199.488 338.084 199.735C339.072 199.982 340.099 200.032 341.107 199.882C343.141 199.58 344.971 198.481 346.196 196.829C347.42 195.176 347.938 193.105 347.635 191.071C347.332 189.037 346.234 187.207 344.582 185.982C342.929 184.758 340.858 184.24 338.824 184.543ZM392.706 178.82C391.482 180.472 390.964 182.544 391.267 184.578C391.57 186.612 392.668 188.442 394.32 189.667C395.973 190.891 398.044 191.408 400.078 191.106C402.113 190.803 403.943 189.705 405.168 188.052C406.392 186.4 406.91 184.329 406.607 182.295C406.304 180.26 405.206 178.43 403.553 177.206C401.901 175.981 399.83 175.464 397.795 175.767C395.761 176.069 393.931 177.168 392.706 178.82Z" stroke="white" stroke-opacity="0.7" stroke-width="1.2"/>
</g>
<defs>
<clipPath id="clip0">
<rect width="380" height="215" fill="white"/>
</clipPath>
</defs>
</svg>
