<svg width="380" height="215" fill="none" xmlns="http://www.w3.org/2000/svg"><g clip-path="url(#a)"><path fill="#C3C5FF" d="M0 0h380v215H0z"/><path d="m68.182 56.996-.393-.213-.317.316-16.377 16.377-.317.317.215.394a36.704 36.704 0 0 1 2.955 7.108l.128.428H117.924l.128-.429a37.453 37.453 0 0 1 55.893-20.962 37.453 37.453 0 0 1-37.808 64.615l-.393-.213-.316.316-16.377 16.376-.317.317.213.393a37.448 37.448 0 0 1-10.565 47.841 37.46 37.46 0 0 1-48.868-3.547 37.45 37.45 0 0 1 18.408-63.054 37.457 37.457 0 0 1 25.889 3.625l.394.213.316-.316 16.377-16.376.317-.317-.214-.394a37.198 37.198 0 0 1-2.949-7.115l-.128-.429H54.076l-.128.429a37.453 37.453 0 0 1-33.966 26.699 37.459 37.459 0 0 1-38.463-45.649 37.452 37.452 0 0 1 32.079-28.94c7.68-.92 15.459.56 22.265 4.238l.393.212.316-.316 16.37-16.363.317-.316-.213-.394a37.282 37.282 0 0 1-4.501-17.822h-.599.599A37.45 37.45 0 0 1 76.06-12.058 37.458 37.458 0 0 1 118.175 4.88 37.452 37.452 0 0 1 91.79 61.054a37.456 37.456 0 0 1-23.608-4.058ZM86 7.136A16.91 16.91 0 0 0 74.043 36a16.91 16.91 0 0 0 23.914-23.912A16.91 16.91 0 0 0 86 7.136ZM74.043 147.99a16.909 16.909 0 1 0 23.912 23.913 16.909 16.909 0 0 0-23.912-23.913ZM18.044 75.087A16.91 16.91 0 0 0 2.422 98.466a16.907 16.907 0 0 0 15.622 10.437 16.91 16.91 0 1 0 0-33.816ZM142 80.039a16.908 16.908 0 1 0 23.91 23.914A16.908 16.908 0 0 0 142 80.039ZM230.182 148.996l-.393-.213-.317.316-16.377 16.376-.318.318.216.394a36.67 36.67 0 0 1 2.955 7.108l.128.428H279.924l.128-.429a37.452 37.452 0 0 1 33.966-26.699 37.455 37.455 0 0 1 38.463 45.649 37.456 37.456 0 0 1-54.344 24.703l-.393-.213-.316.316-16.377 16.376-.317.317.213.393a37.448 37.448 0 0 1-10.565 47.841 37.458 37.458 0 0 1-48.868-3.547 37.447 37.447 0 0 1-3.547-48.864 37.459 37.459 0 0 1 47.844-10.565l.394.213.316-.316 16.377-16.376.317-.317-.214-.394a37.198 37.198 0 0 1-2.949-7.115l-.128-.429H216.076l-.128.429a37.452 37.452 0 0 1-33.966 26.699 37.459 37.459 0 0 1-38.463-45.649 37.456 37.456 0 0 1 54.344-24.702l.393.212.316-.316 16.37-16.363.317-.316-.213-.394a37.282 37.282 0 0 1-4.501-17.822l-.599-.001h.599a37.456 37.456 0 1 1 74.669 4.254 37.454 37.454 0 0 1-55.032 28.698ZM248 99.136a16.91 16.91 0 1 0-.002 33.818A16.91 16.91 0 0 0 248 99.136ZM236.043 239.99a16.908 16.908 0 1 0 23.913 23.911 16.908 16.908 0 0 0-23.913-23.911Zm-55.998-72.903a16.902 16.902 0 0 0-11.957 4.952 16.911 16.911 0 0 0-3.666 18.427 16.918 16.918 0 0 0 9.152 9.15 16.908 16.908 0 1 0 6.471-32.529Zm123.954 4.952a16.91 16.91 0 0 0 0 23.912 16.908 16.908 0 1 0 0-23.912ZM204.182-75.004l-.393-.213-.317.316-16.377 16.376-.318.318.216.394a36.678 36.678 0 0 1 2.955 7.108l.128.428H253.924l.128-.429a37.453 37.453 0 0 1 55.893-20.962 37.453 37.453 0 0 1-37.808 64.615l-.393-.213-.316.316-16.377 16.376-.317.317.213.393a37.448 37.448 0 0 1-10.565 47.84 37.457 37.457 0 0 1-59.74-27.318 37.454 37.454 0 0 1 55.169-35.657l.394.213.316-.316 16.377-16.377.317-.316-.214-.394a37.224 37.224 0 0 1-2.949-7.115l-.128-.429H190.076l-.128.429a37.453 37.453 0 0 1-33.966 26.7 37.458 37.458 0 0 1-36.53-23.07 37.452 37.452 0 0 1 52.411-47.283l.393.213.316-.316 16.37-16.363.317-.316-.213-.394a37.283 37.283 0 0 1-4.501-17.822l-.599-.001h.599a37.454 37.454 0 0 1 51.431-34.739 37.463 37.463 0 0 1 18.2 15.575 37.452 37.452 0 0 1-26.386 56.175 37.457 37.457 0 0 1-23.608-4.06ZM222-124.864a16.91 16.91 0 1 0-.002 33.818 16.91 16.91 0 0 0 .002-33.818ZM210.043 15.99a16.908 16.908 0 1 0 23.914 23.912A16.908 16.908 0 0 0 222 11.038a16.91 16.91 0 0 0-11.957 4.952Zm-55.998-72.903a16.907 16.907 0 1 0 11.956 28.864 16.908 16.908 0 0 0-11.956-28.864Zm123.954 4.952a16.908 16.908 0 1 0 23.91 23.914A16.908 16.908 0 0 0 278-51.961ZM372.182 20.996l-.393-.213-.317.316-16.377 16.376-.318.318.216.394a36.678 36.678 0 0 1 2.955 7.108l.128.428H421.924l.128-.429a37.453 37.453 0 0 1 55.893-20.962 37.453 37.453 0 0 1-37.808 64.615l-.393-.213-.316.316-16.377 16.376-.317.317.213.393a37.448 37.448 0 0 1-10.565 47.841 37.458 37.458 0 0 1-48.868-3.547 37.447 37.447 0 0 1-3.547-48.864 37.458 37.458 0 0 1 47.844-10.565l.394.213.316-.316 16.377-16.376.317-.317-.214-.394a37.224 37.224 0 0 1-2.949-7.115l-.128-.429H358.076l-.128.429a37.453 37.453 0 0 1-55.893 20.963 37.453 37.453 0 0 1 37.808-64.616l.393.213.316-.316 16.37-16.363.317-.316-.213-.394a37.281 37.281 0 0 1-4.501-17.822h-.599.599a37.456 37.456 0 1 1 74.669 4.253 37.452 37.452 0 0 1-31.424 32.757 37.457 37.457 0 0 1-23.608-4.06ZM390-28.864A16.91 16.91 0 0 0 378.043 0a16.91 16.91 0 0 0 23.914-23.912A16.91 16.91 0 0 0 390-28.864ZM378.043 111.99a16.908 16.908 0 1 0 23.913 23.911 16.908 16.908 0 0 0-23.913-23.911Zm-55.998-72.903a16.907 16.907 0 1 0 11.956 28.864 16.908 16.908 0 0 0-11.956-28.864Zm123.954 4.952a16.908 16.908 0 1 0 23.91 23.914A16.908 16.908 0 0 0 446 44.039ZM-7.818 246.996l-.393-.213-.317.316-16.377 16.376-.317.318.215.394a36.696 36.696 0 0 1 2.955 7.108l.128.428H41.924l.128-.429a37.453 37.453 0 0 1 33.966-26.699 37.454 37.454 0 0 1 27.017 65.21 37.453 37.453 0 0 1-42.898 5.142l-.393-.213-.316.316-16.377 16.376-.317.317.213.393a37.45 37.45 0 0 1-10.565 47.841 37.458 37.458 0 0 1-48.868-3.547 37.45 37.45 0 0 1 18.408-63.054 37.458 37.458 0 0 1 25.89 3.625l.393.213.316-.316 16.377-16.376.317-.317-.214-.394a37.18 37.18 0 0 1-2.949-7.115l-.128-.429H-21.924l-.128.429a37.453 37.453 0 0 1-33.966 26.699 37.459 37.459 0 0 1-38.463-45.649 37.45 37.45 0 0 1 32.079-28.94c7.68-.921 15.459.56 22.265 4.238l.393.212.316-.316 16.37-16.363.317-.316-.213-.394a37.282 37.282 0 0 1-4.501-17.822l-.599-.001h.599A37.449 37.449 0 0 1 .06 177.943a37.455 37.455 0 0 1 47.154 40.355 37.453 37.453 0 0 1-55.032 28.698ZM10 197.136a16.91 16.91 0 1 0-.001 33.818A16.91 16.91 0 0 0 10 197.136ZM-1.957 337.99a16.909 16.909 0 1 0 23.912 23.913A16.909 16.909 0 0 0-1.957 337.99Zm-55.998-72.903a16.905 16.905 0 0 0-15.623 10.438 16.906 16.906 0 0 0 15.623 23.378 16.91 16.91 0 1 0 0-33.816Zm123.954 4.952a16.909 16.909 0 1 0 23.912 23.913 16.909 16.909 0 0 0-23.912-23.913Z" stroke="#fff" stroke-opacity=".7" stroke-width="1.2"/></g><defs><clipPath id="a"><path fill="#fff" d="M0 0h380v215H0z"/></clipPath></defs></svg>
