<svg width="1148" height="286" fill="none" xmlns="http://www.w3.org/2000/svg"><path d="M382.194 285.395H181.109c3.39-19.363 20.339-34.128 40.677-34.128h1.574c10.169-18.152 29.661-30.375 51.936-30.375 26.997 0 49.757 17.91 57.02 42.477 5.327-4.84 12.349-7.866 20.218-7.866 16.343.121 29.66 13.433 29.66 29.892Z" fill="#C2C4FF" stroke="#C0C5FF" stroke-miterlimit="10"/><path d="M0 174.057h145.154c-2.421-13.917-14.649-24.567-29.418-24.567h-1.09c-7.385-12.949-21.428-21.783-37.408-21.783-19.491 0-35.835 12.949-41.161 30.618-3.874-3.51-8.959-5.688-14.528-5.688C9.564 152.637 0 162.319 0 174.057ZM1130 63H946c3.12-16.58 18.632-29.15 37.264-29.15h1.426C994.05 18.43 1011.79 8 1032.21 8c24.69 0 45.46 15.332 52.15 36.28 4.81-4.19 11.32-6.685 18.45-6.685 15.07 0 27.19 11.32 27.19 25.405Z" fill="#E9E9E9"/><path d="M1146.91 239H995.906c2.546-14.709 15.274-25.925 30.544-25.925h1.18c7.64-13.79 22.28-23.075 39-23.075 20.28 0 37.37 13.606 42.82 32.268 4-3.677 9.27-5.975 15.18-5.975 12.28.092 22.28 10.204 22.28 22.707Z" fill="#C2C4FF" stroke="#C0C5FF" stroke-miterlimit="10"/><g clip-path="url(#a)"><path d="M123.2 82.8h-1.5c0 1.1-.4 2-1.1 2.7-.7.7-1.7 1.1-2.7 1.1-1.1 0-2-.4-2.7-1.1-.8-.7-1.3-1.6-1.3-2.7s.4-2 1.1-2.7c.7-.7 1.7-1.1 2.7-1.1 1.1 0 2 .4 2.7 1.1.7.7 1.1 1.7 1.1 2.7h3.2c0-3.8-3-6.8-6.8-6.8-3.9 0-6.9 3-6.9 6.8s3 6.8 6.8 6.8 6.8-3 6.8-6.8h-1.4Z" fill="#000"/></g><g clip-path="url(#b)" fill="#000"><path d="M953.6 14.4c-.7 0-1.2-.6-1.2-1.2V2c0-.7.6-1.2 1.2-1.2.7 0 1.2.6 1.2 1.2v11.2c0 .7-.5 1.2-1.2 1.2Z"/><path d="M960.4 7.6c0 .7-.6 1.2-1.2 1.2H948c-.7 0-1.2-.6-1.2-1.2s.5-1.3 1.2-1.3h11.2c.7 0 1.2.6 1.2 1.3Z"/><path d="M953.6 14.4v-.7c-.3 0-.5-.2-.5-.5V2c0-.3.2-.5.5-.5s.5.2.5.5v11.2c0 .3-.2.5-.5.5v1.4c1.1 0 2-.9 2-2V2c0-1.1-.9-2-2-2s-2 .9-2 2v11.2c0 1.1.9 2 2 2v-.8Z"/><path d="M960.4 7.6h-.7c0 .3-.2.5-.5.5H948c-.3 0-.5-.2-.5-.5s.2-.5.5-.5h11.2c.3 0 .5.2.5.5h1.4c0-1.1-.9-2-2-2H948c-1.1 0-2 .9-2 2s.9 2 2 2h11.2c1.1 0 2-.9 2-2h-.8Z"/></g><defs><clipPath id="a"><path fill="#fff" transform="translate(111 76)" d="M0 0h13.6v13.6H0z"/></clipPath><clipPath id="b"><path fill="#fff" transform="translate(946)" d="M0 0h15.1v15.1H0z"/></clipPath></defs></svg>
