<svg width="391" height="335" fill="none" xmlns="http://www.w3.org/2000/svg"><g clip-path="url(#a)"><path fill-rule="evenodd" clip-rule="evenodd" d="m0 335.946.007-277.24C.007 26.285 22.619 0 50.513 0h289.44c27.893 0 50.506 26.285 50.506 58.706l-.006 277.24" fill="#F0F0F4"/><path d="M234.156 25.902h-77.634a3.972 3.972 0 0 0-3.971 3.973v.688a3.972 3.972 0 0 0 3.971 3.973h77.634a3.972 3.972 0 0 0 3.969-3.973v-.688a3.972 3.972 0 0 0-3.969-3.973Z" fill="#D1D1D7" fill-opacity=".6"/><path fill-rule="evenodd" clip-rule="evenodd" d="M361.68 57.561c2.364 0 4.281 2.556 4.281 5.71l-.496 277.265H27.016l.498-277.264c0-3.154 1.916-5.71 4.281-5.71H361.68Z" fill="#fff"/><path fill-rule="evenodd" clip-rule="evenodd" d="M361.682 57.561c2.364 0 4.282 2.338 4.282 5.222v15.491H27.515V62.783c0-2.884 1.917-5.222 4.282-5.222h329.885Z" fill="#D1D1D7"/><g filter="url(#b)"><path d="M323.141 96.311H67.063c-5.524 0-10.003 4.479-10.003 10.003v241.045c0 5.525 4.479 10.004 10.003 10.004h256.078c5.525 0 10.003-4.479 10.003-10.004V106.314c0-5.524-4.478-10.003-10.003-10.003Z" fill="#321C64"/><path d="M323.142 96.311H67.063c-5.524 0-10.003 4.479-10.003 10.003v241.045c0 5.525 4.479 10.004 10.003 10.004h256.079c5.524 0 10.002-4.479 10.002-10.004V106.314c0-5.524-4.478-10.003-10.002-10.003Z" stroke="#E7E7E7" stroke-width="1.867"/></g><path d="M223.291 156.234c0-7.275-5.897-13.173-13.171-13.173-7.274 0-13.171 5.898-13.171 13.173v.014c0 7.275 5.897 13.172 13.171 13.172 7.274 0 13.171-5.897 13.171-13.172v-.014Z" fill="#3FE1B0"/><path fill-rule="evenodd" clip-rule="evenodd" d="M193.243 159.988h-8.798c2.073-6.879 5.833-11.574 10.037-11.574.074 0 .146.002.219.005a17.38 17.38 0 0 1 6.615-7.067c-2.225-.5-4.516-.76-6.834-.763a31.269 31.269 0 0 0-17.378 5.275 31.291 31.291 0 0 0-11.522 14.048 31.32 31.32 0 0 0 6.781 34.111 31.26 31.26 0 0 0 34.089 6.785 31.274 31.274 0 0 0 14.039-11.528 31.31 31.31 0 0 0 5.272-17.389 31.351 31.351 0 0 0-.762-6.84 17.374 17.374 0 0 1-7.06 6.62 23.344 23.344 0 0 1-1.307 7.88h-7.121a48.31 48.31 0 0 0 .582-6.014 17.275 17.275 0 0 1-3.899-.449 43.41 43.41 0 0 1-.664 6.463h-22.1a43.385 43.385 0 0 1 0-15.322h11.355a17.172 17.172 0 0 1-1.544-4.241Zm-8.798 23.804c2.073 6.879 5.833 11.574 10.037 11.574 4.204 0 7.966-4.695 10.041-11.574h-20.078Zm-12.113-19.563a23.375 23.375 0 0 0-1.311 7.662 23.372 23.372 0 0 0 1.311 7.66h7.12a48.373 48.373 0 0 1 0-15.322h-7.12Zm8.03-4.241a30.179 30.179 0 0 1 4.11-9.296 23.573 23.573 0 0 0-10.177 9.296h6.067Zm0 23.804h-6.067a23.582 23.582 0 0 0 10.177 9.297 30.174 30.174 0 0 1-4.11-9.297Zm24.147 9.288a23.58 23.58 0 0 0 10.173-9.288h-6.069a30.145 30.145 0 0 1-4.104 9.288Z" fill="url(#c)"/><path fill-rule="evenodd" clip-rule="evenodd" d="m210.12 162.024-.091-.01a5.139 5.139 0 0 1-3.303-1.999 7.635 7.635 0 0 1-1.482-4.354c-.062-.692-.062-2.208-.062-3.053a1.519 1.519 0 0 1 1.256-1.5l3.682-.633 3.681.633c.729.126 1.261.76 1.259 1.5 0 .843 0 2.361-.066 3.053a7.62 7.62 0 0 1-1.482 4.354 5.14 5.14 0 0 1-3.302 1.999l-.09.01Zm-3.292-9.313c0 .509-.006.959-.011 1.347-.007.631-.014 1.095.011 1.371a6.246 6.246 0 0 0 1.224 3.61 3.483 3.483 0 0 0 2.068 1.322 3.471 3.471 0 0 0 2.068-1.322 6.234 6.234 0 0 0 1.226-3.61c.025-.276.018-.74.011-1.371-.005-.388-.011-.838-.011-1.347l-3.294-.564-3.292.564Zm1.234 1.042 2.058-.353v5.684h-.006a2.195 2.195 0 0 1-1.07-.776 4.747 4.747 0 0 1-.93-2.907c-.027-.284-.044-.872-.052-1.648Z" fill="#fff"/><path opacity=".6" d="M215.16 253.84h-41.357c-6.532 0-11.827 5.295-11.827 11.827s5.295 11.828 11.827 11.828h41.357c6.532 0 11.827-5.296 11.827-11.828 0-6.532-5.295-11.827-11.827-11.827Z" fill="#3FE1B0"/><g filter="url(#d)"><path fill-rule="evenodd" clip-rule="evenodd" d="M209.256 283.409c9.792 0 17.731-7.943 17.731-17.741 0-9.799-7.939-17.742-17.731-17.742-9.792 0-17.731 7.943-17.731 17.742 0 9.798 7.939 17.741 17.731 17.741Z" fill="#54FFBD"/><path d="M234.505 256.546c0 9.625-7.799 17.428-17.418 17.428-9.62 0-17.418-7.803-17.418-17.428 0-9.627 7.798-17.43 17.418-17.43 9.619 0 17.418 7.803 17.418 17.43Z" stroke="url(#e)" stroke-width=".934"/><path d="M234.505 256.546c0 9.625-7.799 17.428-17.418 17.428-9.62 0-17.418-7.803-17.418-17.428 0-9.627 7.798-17.43 17.418-17.43 9.619 0 17.418 7.803 17.418 17.43Z" stroke="url(#f)" stroke-width=".934"/></g><path d="m168.83 217.51-4.291 9.756-4.309-9.756h-1.403l5.001 11.34h1.403l5.001-11.34h-1.402Zm3.233 11.34h1.286v-4.078h3.319c2.343 0 4.174-1.502 4.174-3.631 0-2.129-1.831-3.631-4.174-3.631h-4.605v11.34Zm1.286-5.299v-4.82h3.087c1.848 0 3.104.892 3.104 2.41 0 1.519-1.256 2.41-3.104 2.41h-3.087Zm9.583 5.299h1.288v-9.227l7.03 9.227h1.288v-11.34h-1.288v9.227l-7.03-9.227h-1.288v11.34Zm17.802-10.086a.825.825 0 0 0 .809-.825.822.822 0 0 0-.809-.809.825.825 0 0 0-.826.809c0 .446.363.825.826.825Zm-.628 10.086h1.238v-8.534h-1.238v8.534Zm6.744.197c1.767 0 3.12-1.006 3.12-2.574 0-1.618-1.42-2.08-2.79-2.51-1.584-.511-2.212-.743-2.212-1.485 0-.826.793-1.254 1.751-1.254.759 0 1.6.263 2.459.809l.594-.958c-.908-.594-1.998-.957-3.053-.957-1.701 0-2.988.957-2.988 2.508 0 1.222.792 1.832 2.855 2.428 1.156.33 2.146.626 2.146 1.551 0 .808-.759 1.337-1.882 1.337-.94 0-1.914-.364-2.888-1.073l-.644.908c1.024.825 2.344 1.27 3.532 1.27Zm13.916 0c2.393 0 4.407-2.047 4.407-4.472 0-2.427-2.014-4.457-4.407-4.457-2.393 0-4.424 2.03-4.424 4.457 0 2.425 2.031 4.472 4.424 4.472Zm0-1.105c-1.7 0-3.12-1.536-3.12-3.367 0-1.816 1.42-3.351 3.12-3.351 1.684 0 3.103 1.535 3.103 3.351 0 1.831-1.419 3.367-3.103 3.367Zm10.511-7.824c-1.205 0-2.31.66-2.805 1.568v-1.37h-1.238v8.534h1.238v-5.431c0-1.189 1.205-2.195 2.64-2.195 1.254 0 2.129.974 2.129 2.36v5.266h1.238v-5.431c0-1.932-1.32-3.301-3.202-3.301Z" fill="#fff"/></g><defs><linearGradient id="e" x1="199.53" y1="238.803" x2="199.53" y2="273.939" gradientUnits="userSpaceOnUse"><stop stop-opacity="0"/><stop offset=".8" stop-opacity=".02"/><stop offset="1" stop-opacity=".04"/></linearGradient><linearGradient id="f" x1="199.356" y1="238.803" x2="199.356" y2="274.287" gradientUnits="userSpaceOnUse"><stop stop-color="#fff" stop-opacity=".12"/><stop offset=".2" stop-color="#fff" stop-opacity=".06"/><stop offset="1" stop-color="#fff" stop-opacity="0"/></linearGradient><filter id="b" x="48.658" y="89.776" width="292.888" height="277.856" filterUnits="userSpaceOnUse" color-interpolation-filters="sRGB"><feFlood flood-opacity="0" result="BackgroundImageFix"/><feColorMatrix in="SourceAlpha" values="0 0 0 0 0 0 0 0 0 0 0 0 0 0 0 0 0 0 127 0" result="hardAlpha"/><feOffset dy="1.867"/><feGaussianBlur stdDeviation="3.734"/><feColorMatrix values="0 0 0 0 0.0470588 0 0 0 0 0.0470588 0 0 0 0 0.0509804 0 0 0 0.1 0"/><feBlend in2="BackgroundImageFix" result="effect1_dropShadow"/><feBlend in="SourceGraphic" in2="effect1_dropShadow" result="shape"/></filter><filter id="d" x="187.791" y="234.915" width="50.915" height="55.963" filterUnits="userSpaceOnUse" color-interpolation-filters="sRGB"><feFlood flood-opacity="0" result="BackgroundImageFix"/><feColorMatrix in="SourceAlpha" values="0 0 0 0 0 0 0 0 0 0 0 0 0 0 0 0 0 0 127 0" result="hardAlpha"/><feOffset dy="3.734"/><feGaussianBlur stdDeviation="1.867"/><feColorMatrix values="0 0 0 0 0 0 0 0 0 0 0 0 0 0 0 0 0 0 0.24 0"/><feBlend in2="BackgroundImageFix" result="effect1_dropShadow"/><feColorMatrix in="SourceAlpha" values="0 0 0 0 0 0 0 0 0 0 0 0 0 0 0 0 0 0 127 0" result="hardAlpha"/><feOffset/><feGaussianBlur stdDeviation="1.867"/><feColorMatrix values="0 0 0 0 0 0 0 0 0 0 0 0 0 0 0 0 0 0 0.12 0"/><feBlend in2="effect1_dropShadow" result="effect2_dropShadow"/><feBlend in="SourceGraphic" in2="effect2_dropShadow" result="shape"/></filter><radialGradient id="c" cx="0" cy="0" r="1" gradientUnits="userSpaceOnUse" gradientTransform="rotate(-45.019 282.512 -202.103) scale(88.5041)"><stop stop-color="#B833E1"/><stop offset=".371" stop-color="#9059FF"/><stop offset=".614" stop-color="#5B6DF8"/><stop offset="1" stop-color="#0090ED"/></radialGradient><clipPath id="a"><path fill="#fff" d="M0 0h390.46v335H0z"/></clipPath></defs></svg>
