<svg width="42" height="38" viewBox="0 0 42 38" fill="none" xmlns="http://www.w3.org/2000/svg">
<path d="M5.46009 24.0244H3.27605C1.46767 24.0244 0 22.5567 0 20.7483V3.27605C0 1.46767 1.46767 0 3.27605 0H5.46009C7.26847 0 8.73615 1.46767 8.73615 3.27605V20.7483C8.73615 22.5567 7.26847 24.0244 5.46009 24.0244Z" fill="#959595"/>
<path d="M36.62 26.3767C40.2892 26.3767 42.8816 22.7817 41.7197 19.3004L37.2403 5.85982C36.5086 3.66486 34.4556 2.18408 32.1406 2.18408H13.1045V21.8906L17.8089 29.0652L20.0738 35.8619C20.3271 36.6176 21.0347 37.1287 21.8341 37.1287H21.8406C24.0684 37.1287 25.8724 35.3225 25.8724 33.0969V27.1826L26.6783 26.3767H36.62V26.3767Z" fill="#959595"/>
</svg>
