<svg xmlns="http://www.w3.org/2000/svg" xmlns:xlink="http://www.w3.org/1999/xlink" width="410" height="259" viewBox="0 0 410 259"><defs><path id="b" d="M272.482 61.116H2.887c-1.493 0-2.703-1.347-2.703-3.009V3.008C.184 1.346 1.394 0 2.887 0h269.595c1.492 0 2.702 1.346 2.702 3.008v55.099c0 1.662-1.21 3.009-2.702 3.009"/><filter id="a" width="109.5%" height="142.5%" x="-4.7%" y="-18%" filterUnits="objectBoundingBox"><feOffset dy="2" in="SourceAlpha" result="shadowOffsetOuter1"/><feGaussianBlur in="shadowOffsetOuter1" result="shadowBlurOuter1" stdDeviation="4"/><feColorMatrix in="shadowBlurOuter1" values="0 0 0 0 0.125490196 0 0 0 0 0.0705882353 0 0 0 0 0.22745098 0 0 0 0.24 0"/></filter><path id="c" d="M0 .881h275v61H0z"/><filter id="d" width="109.5%" height="142.6%" x="-4.7%" y="-18%" filterUnits="objectBoundingBox"><feOffset dy="2" in="SourceAlpha" result="shadowOffsetOuter1"/><feGaussianBlur in="shadowOffsetOuter1" result="shadowBlurOuter1" stdDeviation="4"/><feColorMatrix in="shadowBlurOuter1" values="0 0 0 0 0.125490196 0 0 0 0 0.0705882353 0 0 0 0 0.22745098 0 0 0 0.24 0"/></filter></defs><g fill="none" fill-rule="evenodd" transform="translate(-1)"><path fill="#F0F0F4" d="M.995 241L1 42.114C1 18.856 19.822 0 43.04 0h240.925c23.218 0 42.04 18.856 42.04 42.114L326 241"/><rect width="71.231" height="6.194" x="127.977" y="18.582" fill="#D1D1D7" fill-opacity=".6" rx="2.85"/><path fill="#FFF" d="M302.05 41.293c1.968 0 3.564 1.834 3.564 4.096l-.414 198.904H23.482l.414-198.904c0-2.262 1.596-4.096 3.564-4.096h274.59z"/><path fill="#D1D1D7" d="M302.05 41.293c1.968 0 3.564 1.677 3.564 3.746v11.113H23.896V45.039c0-2.07 1.596-3.746 3.564-3.746h274.59z"/><text fill="#F0F0F4" font-family="Inter-Regular, Inter" font-size="10.8" transform="translate(45.1 112.393)"><tspan x="0" y="13">username</tspan></text><text fill="#F0F0F4" font-family="Inter-Regular, Inter" font-size="10.8" transform="translate(45.1 112.393)"><tspan x="0" y="53.5">pasword</tspan></text><path stroke="#F0F0F4" stroke-linecap="square" stroke-width=".9" d="M45.55 134.443h239.4m-239.4 40.5h239.4"/><path fill="#F0F0F4" d="M157.378 97c12.453 0 19.264-10.004 19.264-18.679 0-.284 0-.567-.02-.849A13.551 13.551 0 0 0 180 74.074c-1.236.531-2.547.88-3.889 1.033a6.628 6.628 0 0 0 2.977-3.63 13.829 13.829 0 0 1-4.3 1.593c-2.098-2.164-5.433-2.694-8.134-1.292-2.7 1.401-4.096 4.386-3.404 7.279-5.443-.265-10.515-2.758-13.953-6.859-1.797 3-.88 6.837 2.096 8.763a6.882 6.882 0 0 1-3.073-.821v.083c0 3.125 2.273 5.817 5.432 6.435a6.965 6.965 0 0 1-3.057.113c.887 2.674 3.428 4.506 6.325 4.559a13.859 13.859 0 0 1-8.408 2.816A14.208 14.208 0 0 1 147 94.05a19.608 19.608 0 0 0 10.378 2.944"/><g transform="translate(128 114.008)"><use fill="#000" filter="url(#a)" xlink:href="#b"/><use fill="#FFF" xlink:href="#b"/><path fill="#000" d="M253.977 37.348v-7.2h2.057v2.571c0 .284.23.515.514.515h2.572v4.114h-5.143zm-2.058-7.2v2.056h-3.086v-7.199h2.058v2.572c0 .284.23.513.514.513h2.572a2.058 2.058 0 0 0-2.058 2.058zm1.632-3.086h-1.632v-1.63l1.632 1.63zm5.143 5.142h-1.632v-1.63l1.632 1.63zm2.18-.726l-3.084-3.086a1.03 1.03 0 0 0-.728-.302h-1.028v-1.028c0-.273-.11-.534-.301-.728l-3.086-3.085a1.03 1.03 0 0 0-.728-.3h-3.086a2.057 2.057 0 0 0-2.056 2.056v7.2c0 1.136.92 2.057 2.056 2.057h3.086v3.086c0 1.136.92 2.057 2.058 2.057h5.143a2.057 2.057 0 0 0 2.056-2.057v-5.144c0-.272-.108-.534-.301-.726z"/><path fill="#20123A" d="M84.167 35.397h1.277v1.382c.105-.269.362-.597.77-.983.408-.385.88-.579 1.412-.579l.073.004.36.033v1.42a2.25 2.25 0 0 0-.44-.037c-.679 0-1.198.218-1.562.654a2.276 2.276 0 0 0-.545 1.505v4.602h-1.345v-8zm-3.07 3.361c-.055-.582-.183-1.048-.382-1.396-.368-.648-.984-.972-1.845-.972-.617 0-1.136.223-1.554.67-.419.444-.64 1.011-.665 1.698h4.446zm-2.145-3.54c.568 0 1.118.133 1.652.4.532.265.938.61 1.217 1.034.224.336.386.72.486 1.148l.051.264c.08.368.121.956.121 1.763h-5.865c.025.812.216 1.463.575 1.954.36.49.915.735 1.666.735.703 0 1.262-.23 1.681-.694.24-.27.408-.58.508-.934h1.322c-.035.293-.15.621-.347.982a3.478 3.478 0 0 1-.662.885c-.408.4-.913.667-1.516.807-.323.08-.69.12-1.098.12-.996 0-1.84-.362-2.532-1.087s-1.039-1.74-1.039-3.045c0-1.285.35-2.328 1.046-3.13.697-.8 1.608-1.203 2.734-1.203zm-6.693 8.18h1.345V32.423H72.26v10.975zm-8.285-1.06l4.743-5.739h-4.392v-1.202h6.2v1.098l-4.714 5.7h4.856v1.203h-6.693v-1.06zm-3.385-9.175h1.36v2.234h1.278v1.098H61.95v5.222c0 .28.094.466.284.56.104.056.28.083.523.083l.21-.004c.074-.003.161-.009.261-.019v1.061a3.003 3.003 0 0 1-.482.097c-.167.02-.348.03-.542.03-.628 0-1.054-.16-1.278-.482-.224-.32-.336-.739-.336-1.25v-5.298h-1.083v-1.098h1.083v-2.234zm-5.55 2.003c1.03 0 1.902.343 2.614 1.03s1.07 1.698 1.07 3.033c0 1.29-.315 2.356-.943 3.197-.627.842-1.6 1.263-2.92 1.263-1.102 0-1.976-.372-2.623-1.116-.648-.745-.97-1.745-.97-3 0-1.345.34-2.415 1.022-3.212.683-.797 1.6-1.195 2.75-1.195zm-.053 7.366c.892 0 1.503-.338 1.834-1.013.331-.675.497-1.426.497-2.253 0-.747-.119-1.354-.358-1.822-.379-.737-1.03-1.106-1.958-1.106-.822 0-1.419.314-1.793.942-.374.627-.56 1.384-.56 2.27 0 .852.186 1.562.56 2.13.374.568.966.852 1.778.852zm-8.808-7.278c.613 0 1.126.13 1.54.39.238.15.51.41.814.783v-4.04h1.292v11.011h-1.21v-1.113c-.314.493-.685.85-1.114 1.068-.428.22-.918.33-1.47.33-.893 0-1.665-.376-2.317-1.126-.652-.749-.979-1.747-.979-2.992 0-1.165.298-2.175.893-3.029.595-.854 1.446-1.282 2.551-1.282zm-2.024 4.237c0 .856.181 1.574.545 2.151.364.578.947.867 1.748.867.623 0 1.135-.268 1.535-.803.401-.536.602-1.304.602-2.305 0-1.01-.207-1.759-.62-2.245-.414-.486-.924-.729-1.532-.729-.677 0-1.226.26-1.647.778-.42.517-.63 1.28-.63 2.286zm-5.073-.942c.31-.04.516-.169.62-.388.06-.119.09-.29.09-.516 0-.458-.163-.79-.49-.997-.326-.207-.793-.31-1.4-.31-.703 0-1.2.19-1.494.568-.165.21-.272.52-.322.933H34.83c.025-.985.345-1.67.96-2.057s1.33-.579 2.141-.579c.941 0 1.705.178 2.293.538.583.358.874.916.874 1.673v4.61c0 .14.03.251.086.336.057.084.178.127.362.127.06 0 .127-.004.202-.012.075-.008.154-.018.24-.033v.993l-.228.062a2.438 2.438 0 0 1-.25.05c-.11.015-.26.023-.449.023-.463 0-.8-.164-1.009-.493-.109-.175-.186-.42-.23-.74-.275.36-.669.67-1.182.934a3.65 3.65 0 0 1-1.696.396c-.742 0-1.348-.225-1.819-.676-.47-.45-.706-1.015-.706-1.693 0-.742.232-1.317.695-1.725.463-.408 1.071-.66 1.823-.755l2.144-.269zm-3.257 2.72c0 .388.142.694.426.92.284.223.62.335 1.008.335a3.06 3.06 0 0 0 1.375-.329c.747-.363 1.12-.958 1.12-1.785v-1.083a2.298 2.298 0 0 1-.634.26c-.26.071-.514.121-.763.15l-.814.105c-.488.065-.854.166-1.098.306-.413.234-.62.607-.62 1.121zm-7.882-.38c.04.447.152.79.336 1.03.34.433.927.65 1.764.65.498 0 .936-.109 1.314-.325.38-.217.568-.552.568-1.005a.857.857 0 0 0-.456-.784c-.17-.096-.485-.205-.944-.329l-1.274-.322c-.683-.169-1.186-.358-1.509-.567-.578-.363-.867-.867-.867-1.509 0-.758.272-1.37.818-1.838.545-.469 1.28-.702 2.2-.702 1.205 0 2.074.354 2.608 1.061.333.448.495.931.485 1.45h-1.27a1.557 1.557 0 0 0-.32-.83c-.31-.354-.846-.53-1.607-.53-.509 0-.893.096-1.155.29a.917.917 0 0 0-.392.77c0 .35.172.628.515.837.2.124.494.233.882.328l.89.217c.965.234 1.613.461 1.942.68.523.343.784.884.784 1.621 0 .712-.27 1.328-.81 1.845-.54.518-1.364.778-2.47.778-1.19 0-2.033-.27-2.529-.81-.495-.542-.76-1.21-.795-2.007h1.292zm-5.02-2.34c.31-.04.516-.169.62-.388.06-.119.09-.29.09-.516 0-.458-.163-.79-.489-.997-.327-.207-.794-.31-1.4-.31-.703 0-1.2.19-1.495.568-.165.21-.272.52-.322.933h-1.255c.025-.985.345-1.67.96-2.057s1.328-.579 2.14-.579c.942 0 1.706.178 2.294.538.582.358.874.916.874 1.673v4.61c0 .14.03.251.086.336.057.084.178.127.362.127.06 0 .127-.004.202-.012.075-.008.154-.018.24-.033v.993l-.228.062a2.438 2.438 0 0 1-.25.05c-.11.015-.26.023-.449.023-.464 0-.799-.164-1.009-.493-.109-.175-.186-.42-.23-.74-.275.36-.669.67-1.182.934a3.65 3.65 0 0 1-1.696.396c-.742 0-1.348-.225-1.819-.676-.47-.45-.706-1.015-.706-1.693 0-.742.232-1.317.695-1.725.463-.408 1.071-.66 1.823-.755l2.144-.269zm-3.257 2.72c0 .388.142.694.425.92.285.223.62.335 1.01.335a3.06 3.06 0 0 0 1.374-.329c.747-.363 1.12-.958 1.12-1.785v-1.083a2.293 2.293 0 0 1-.635.26 5.124 5.124 0 0 1-.762.15l-.814.105c-.488.065-.854.166-1.098.306-.413.234-.62.607-.62 1.121z"/><path fill="#5B5B66" d="M68.792 21.4h-3.399c.02-.525.19-.959.508-1.3.32-.34.716-.51 1.188-.51.66 0 1.13.247 1.411.742.153.266.25.623.292 1.068zm-1.64-2.708c.434 0 .855.103 1.263.306.407.204.718.467.931.792.165.246.285.526.362.84l.05.24c.06.281.091.73.091 1.347h-4.485c.02.621.166 1.12.44 1.495s.7.562 1.274.562c.537 0 .965-.178 1.285-.53.183-.207.313-.446.39-.715h1.01a2.139 2.139 0 0 1-.265.751 2.676 2.676 0 0 1-.506.677c-.312.304-.699.51-1.16.617-.248.06-.527.091-.84.091a2.575 2.575 0 0 1-1.936-.83c-.53-.555-.794-1.33-.794-2.33 0-.982.266-1.78.8-2.393.533-.613 1.23-.92 2.09-.92zm-12.114.138h1.017v.868c.244-.3.465-.52.663-.657a1.987 1.987 0 0 1 1.154-.349c.487 0 .88.12 1.177.36.167.137.32.34.457.606.228-.327.497-.57.805-.729a2.25 2.25 0 0 1 1.04-.237c.823 0 1.382.298 1.68.892.16.32.24.75.24 1.291v4.073h-1.069v-4.25c0-.408-.102-.688-.306-.84a1.21 1.21 0 0 0-.745-.229c-.403 0-.75.135-1.043.406-.29.27-.437.721-.437 1.354v3.56h-1.045v-3.994c0-.415-.049-.718-.148-.909-.157-.286-.448-.428-.874-.428-.389 0-.742.15-1.06.451-.318.301-.478.846-.478 1.634v3.245h-1.028V18.83zm-3.048 2.41c.237-.03.395-.129.475-.297a.914.914 0 0 0 .068-.394c0-.35-.124-.605-.374-.762-.249-.158-.607-.238-1.07-.238-.538 0-.919.145-1.144.434-.126.16-.207.398-.245.715h-.96c.02-.754.263-1.279.734-1.574.47-.295 1.016-.443 1.637-.443.72 0 1.304.137 1.754.411.445.275.668.701.668 1.28v3.525a.45.45 0 0 0 .066.257c.044.064.136.097.276.097l.155-.008a2.39 2.39 0 0 0 .183-.027v.76l-.212.056a1.927 1.927 0 0 1-.154.03 2.549 2.549 0 0 1-.343.018c-.354 0-.61-.126-.77-.377-.085-.134-.144-.323-.178-.567-.209.275-.51.513-.903.715a2.8 2.8 0 0 1-1.297.303c-.567 0-1.03-.173-1.39-.518-.36-.344-.54-.775-.54-1.294 0-.567.177-1.006.531-1.319.354-.312.82-.505 1.394-.577l1.64-.206zm-2.49 2.08c0 .297.108.531.325.702.217.172.474.258.772.258.362 0 .712-.084 1.05-.252.572-.277.857-.732.857-1.365v-.828c-.125.08-.287.146-.485.2a4.359 4.359 0 0 1-.582.114l-.624.08c-.373.05-.652.127-.839.233-.316.18-.474.465-.474.858zm-7.116-4.49h.977v.868c.29-.359.596-.615.92-.772a2.454 2.454 0 0 1 1.08-.234c.868 0 1.454.303 1.76.91.167.33.251.804.251 1.421v3.925h-1.046v-3.857c0-.373-.055-.673-.165-.902-.183-.38-.515-.57-.994-.57a2.02 2.02 0 0 0-.6.073 1.55 1.55 0 0 0-.743.503c-.172.202-.283.41-.334.625-.052.216-.077.523-.077.923v3.205h-1.029V18.83zm-3.687 0h.976v1.056c.08-.206.277-.456.59-.75a1.522 1.522 0 0 1 1.08-.444l.19.015.14.014v1.085a1.673 1.673 0 0 0-.169-.022l-.168-.006c-.518 0-.916.166-1.194.5a1.744 1.744 0 0 0-.417 1.151v3.52h-1.028V18.83zM36.53 21.4c-.042-.445-.139-.802-.292-1.068-.28-.495-.752-.743-1.41-.743-.473 0-.869.17-1.189.511-.32.341-.49.775-.509 1.3h3.4zm-1.64-2.708c.434 0 .855.103 1.262.306.408.204.72.467.932.792.206.307.343.668.411 1.08.061.281.091.73.091 1.347h-4.484c.02.621.166 1.12.44 1.495s.7.562 1.274.562c.537 0 .965-.178 1.285-.53.183-.207.313-.446.39-.715h1.01a2.123 2.123 0 0 1-.266.751c-.15.276-.319.502-.505.677-.312.304-.699.51-1.16.617-.248.06-.527.091-.84.091a2.578 2.578 0 0 1-1.937-.83c-.529-.555-.793-1.33-.793-2.33 0-.982.266-1.78.8-2.393.533-.613 1.23-.92 2.09-.92zm-7.607 4.337c.031.343.116.605.258.788.258.331.708.497 1.348.497.381 0 .716-.083 1.005-.249.29-.165.434-.422.434-.769a.658.658 0 0 0-.348-.599c-.148-.084-.442-.18-.88-.29l-.817-.207c-.522-.129-.907-.275-1.154-.434-.44-.278-.663-.663-.663-1.154 0-.579.21-1.048.626-1.405.417-.359.978-.537 1.682-.537.922 0 1.587.27 1.994.811.255.343.38.712.372 1.108h-.972a1.194 1.194 0 0 0-.245-.634c-.236-.27-.646-.406-1.229-.406-.388 0-.682.075-.882.223a.7.7 0 0 0-.3.59c0 .266.131.478.394.64.153.093.377.177.674.25l.68.166c.74.178 1.234.352 1.486.52.4.262.6.675.6 1.24 0 .543-.207 1.014-.62 1.41-.414.396-1.043.594-1.889.594-.91 0-1.555-.207-1.934-.62-.379-.413-.58-.924-.608-1.533h.988zm-7.509-6.474v5.188c0 .61.114 1.116.343 1.52.34.61.91.913 1.714.913.963 0 1.618-.329 1.965-.988.186-.357.28-.84.28-1.445v-5.188h1.154v4.714c0 1.032-.139 1.826-.417 2.382-.51 1.014-1.474 1.52-2.89 1.52-1.418 0-2.38-.506-2.886-1.52-.278-.556-.417-1.35-.417-2.382v-4.714h1.154z"/></g><g transform="translate(128.278 187.119)"><mask id="e" fill="#fff"><use xlink:href="#c"/></mask><use fill="#000" filter="url(#d)" xlink:href="#c"/><path fill="#FFF" d="M272.298 61.881H2.703C1.21 61.881 0 60.537 0 58.879V3.883C0 2.224 1.21.881 2.703.881h269.595C273.79.881 275 2.224 275 3.883V58.88c0 1.658-1.21 3.002-2.702 3.002" mask="url(#e)"/><path fill="#20123A" d="M78.768 38.403c0 .45-.146.822-.439 1.118-.293.295-.665.443-1.115.443-.45 0-.82-.148-1.114-.443-.293-.296-.439-.668-.439-1.118 0-.45.146-.82.44-1.11.292-.29.663-.437 1.113-.437.45 0 .822.146 1.115.436.293.291.44.661.44 1.111m-4.883 0c0 .45-.146.822-.439 1.118-.293.295-.664.443-1.115.443-.45 0-.82-.148-1.114-.443-.293-.296-.439-.668-.439-1.118 0-.45.146-.82.44-1.11.292-.29.663-.437 1.113-.437.451 0 .822.146 1.115.436.293.291.44.661.44 1.111m-4.882 0c0 .45-.146.822-.439 1.118-.293.295-.665.443-1.115.443-.45 0-.82-.148-1.114-.443-.293-.296-.44-.668-.44-1.118 0-.45.147-.82.44-1.11.293-.29.664-.437 1.114-.437.45 0 .822.146 1.115.436.293.291.44.661.44 1.111m-4.882 0c0 .45-.147.822-.439 1.118-.293.295-.665.443-1.115.443-.45 0-.822-.148-1.114-.443-.293-.296-.44-.668-.44-1.118 0-.45.147-.82.44-1.11.292-.29.664-.437 1.114-.437.45 0 .822.146 1.115.436.292.291.44.661.44 1.111m-4.882 0c0 .45-.147.822-.44 1.118-.293.295-.664.443-1.115.443-.449 0-.82-.148-1.114-.443-.293-.296-.439-.668-.439-1.118 0-.45.146-.82.44-1.11.292-.29.664-.437 1.113-.437.451 0 .822.146 1.115.436.293.291.44.661.44 1.111m-4.882 0c0 .45-.147.822-.44 1.118-.293.295-.664.443-1.114.443-.45 0-.82-.148-1.114-.443-.293-.296-.44-.668-.44-1.118 0-.45.147-.82.44-1.11.293-.29.664-.437 1.114-.437.45 0 .821.146 1.114.436.293.291.44.661.44 1.111m-4.882 0c0 .45-.146.822-.439 1.118-.293.295-.664.443-1.114.443-.45 0-.822-.148-1.115-.443-.293-.296-.439-.668-.439-1.118 0-.45.146-.82.44-1.11.292-.29.664-.437 1.114-.437.45 0 .821.146 1.114.436.293.291.44.661.44 1.111m-4.882 0c0 .45-.146.822-.439 1.118-.293.295-.665.443-1.115.443-.45 0-.82-.148-1.114-.443-.293-.296-.44-.668-.44-1.118 0-.45.147-.82.44-1.11.293-.29.664-.437 1.114-.437.45 0 .822.146 1.115.436.293.291.44.661.44 1.111m-4.882 0c0 .45-.147.822-.44 1.118-.293.295-.664.443-1.114.443-.45 0-.822-.148-1.115-.443-.293-.296-.439-.668-.439-1.118 0-.45.146-.82.44-1.11.292-.29.664-.437 1.114-.437.45 0 .821.146 1.114.436.293.291.44.661.44 1.111m-4.882 0c0 .45-.146.822-.439 1.118-.293.295-.665.443-1.114.443-.45 0-.822-.148-1.115-.443-.293-.296-.44-.668-.44-1.118 0-.45.147-.82.44-1.11.293-.29.664-.437 1.115-.437.45 0 .821.146 1.114.436.293.291.44.661.44 1.111m-4.882 0c0 .45-.146.822-.439 1.118-.293.295-.665.443-1.115.443-.45 0-.82-.148-1.114-.443-.293-.296-.44-.668-.44-1.118 0-.45.147-.82.44-1.11.293-.29.664-.437 1.114-.437.45 0 .822.146 1.115.436.293.291.44.661.44 1.111m-4.882 0c0 .45-.147.822-.44 1.118-.293.295-.664.443-1.115.443-.449 0-.82-.148-1.114-.443-.293-.296-.439-.668-.439-1.118 0-.45.146-.82.44-1.11.292-.29.664-.437 1.113-.437.451 0 .822.146 1.115.436.293.291.44.661.44 1.111m-4.882 0c0 .45-.146.822-.439 1.118-.293.295-.665.443-1.115.443-.45 0-.82-.148-1.114-.443-.293-.296-.44-.668-.44-1.118 0-.45.147-.82.44-1.11.293-.29.664-.437 1.114-.437.45 0 .822.146 1.115.436.293.291.44.661.44 1.111"/><path fill="#000" d="M252.365 39.414v-7.2h2.057v2.571c0 .284.23.515.514.515h2.572v4.114h-5.143zm-2.058-7.2v2.057h-3.086v-7.2h2.058v2.572c0 .284.23.514.514.514h2.572a2.057 2.057 0 0 0-2.058 2.057zm1.632-3.086h-1.632v-1.63l1.632 1.63zm5.143 5.143h-1.632v-1.63l1.632 1.63zm2.18-.727l-3.084-3.086a1.034 1.034 0 0 0-.728-.3h-1.028v-1.03c0-.273-.11-.534-.302-.727l-3.085-3.086a1.03 1.03 0 0 0-.728-.3h-3.086a2.057 2.057 0 0 0-2.056 2.056v7.2c0 1.136.92 2.057 2.056 2.057h3.086v3.086c0 1.136.92 2.058 2.058 2.058h5.143a2.058 2.058 0 0 0 2.056-2.058v-5.143c0-.273-.108-.534-.301-.727z"/><path fill="#5B5B66" d="M62.593 20.787c.468 0 .86.1 1.177.297.182.114.39.314.622.6v-3.09h.989v8.42h-.926v-.85c-.24.376-.524.648-.851.815a2.427 2.427 0 0 1-1.125.252c-.682 0-1.272-.287-1.771-.86-.5-.573-.75-1.336-.75-2.288 0-.89.229-1.663.684-2.317.455-.653 1.105-.979 1.95-.979zm-1.548 3.24c0 .655.139 1.202.417 1.645.278.441.723.662 1.337.662.476 0 .867-.204 1.173-.614.307-.41.46-.996.46-1.762 0-.774-.158-1.346-.474-1.717-.316-.372-.706-.558-1.171-.558-.518 0-.938.2-1.26.595-.321.396-.482.98-.482 1.748zm-4.34-3.132h.978v1.057c.079-.205.276-.456.588-.75a1.525 1.525 0 0 1 1.08-.443l.055.002.276.026v1.085a1.715 1.715 0 0 0-.168-.023l-.17-.005c-.517 0-.915.167-1.193.5a1.743 1.743 0 0 0-.417 1.151v3.52h-1.028v-6.12zm-3.887-.176c.789 0 1.455.262 2 .788.545.525.817 1.3.817 2.32 0 .985-.24 1.801-.72 2.444-.48.644-1.225.966-2.234.966-.841 0-1.51-.285-2.005-.854-.495-.57-.743-1.334-.743-2.294 0-1.029.26-1.847.783-2.456.522-.61 1.222-.914 2.102-.914zm-.04 5.632c.682 0 1.149-.257 1.403-.774a3.86 3.86 0 0 0 .38-1.723c0-.57-.092-1.035-.275-1.393-.29-.564-.788-.846-1.496-.846-.63 0-1.086.24-1.371.72-.286.48-.43 1.058-.43 1.737 0 .652.144 1.194.43 1.628.285.434.738.651 1.359.651zm-10.223-5.456l1.177 4.822 1.194-4.822h1.154l1.2 4.793 1.25-4.793h1.029l-1.777 6.12h-1.068l-1.246-4.737-1.205 4.736h-1.068l-1.766-6.119h1.126zm-5.533 4.2c.03.342.116.605.257.788.259.331.709.497 1.349.497.38 0 .715-.083 1.005-.248.29-.166.434-.422.434-.769a.656.656 0 0 0-.35-.6c-.147-.083-.44-.18-.878-.29l-.817-.207c-.522-.129-.907-.274-1.154-.434-.442-.278-.663-.663-.663-1.154 0-.579.209-1.047.626-1.406.417-.357.978-.537 1.682-.537.922 0 1.586.271 1.994.812.255.343.379.712.37 1.108h-.97a1.193 1.193 0 0 0-.246-.635c-.235-.269-.645-.405-1.228-.405-.388 0-.682.074-.882.223-.2.148-.3.345-.3.59 0 .265.13.478.394.638.152.096.377.18.674.251l.68.166c.739.18 1.234.353 1.485.52.4.263.6.677.6 1.24 0 .545-.207 1.015-.62 1.411-.413.396-1.042.594-1.888.594-.91 0-1.555-.206-1.934-.619-.38-.414-.582-.925-.608-1.534h.988zm-5.67 0c.03.342.116.605.257.788.259.331.709.497 1.348.497.38 0 .717-.083 1.006-.248.289-.166.434-.422.434-.769a.657.657 0 0 0-.348-.6c-.15-.083-.442-.18-.88-.29l-.817-.207c-.522-.129-.906-.274-1.154-.434-.442-.278-.663-.663-.663-1.154 0-.579.209-1.047.626-1.406.417-.357.977-.537 1.682-.537.922 0 1.586.271 1.994.812.255.343.379.712.37 1.108h-.97a1.193 1.193 0 0 0-.246-.635c-.235-.269-.645-.405-1.228-.405-.388 0-.683.074-.882.223a.696.696 0 0 0-.3.59c0 .265.13.478.394.638.152.096.377.18.674.251l.68.166c.739.18 1.234.353 1.485.52.4.263.6.677.6 1.24 0 .545-.207 1.015-.62 1.411-.413.396-1.042.594-1.888.594-.91 0-1.555-.206-1.934-.619-.38-.414-.582-.925-.608-1.534h.988zm-3.66-1.788c.237-.03.395-.13.475-.297a.906.906 0 0 0 .069-.395c0-.35-.125-.604-.374-.763-.25-.158-.607-.237-1.072-.237-.536 0-.917.145-1.142.435-.126.16-.208.397-.246.714h-.96c.02-.754.264-1.279.734-1.575.47-.295 1.017-.442 1.637-.442.72 0 1.305.137 1.754.411.446.275.669.701.669 1.28v3.525a.46.46 0 0 0 .065.257c.044.065.136.097.277.097l.155-.009c.057-.005.118-.014.182-.025v.76l-.211.056c-.061.013-.112.024-.154.03a2.577 2.577 0 0 1-.343.016c-.354 0-.611-.126-.771-.377-.084-.133-.143-.322-.177-.565-.21.273-.511.512-.903.714a2.791 2.791 0 0 1-1.297.303c-.567 0-1.031-.172-1.391-.517a1.718 1.718 0 0 1-.54-1.294c0-.568.177-1.008.53-1.32.356-.313.82-.505 1.395-.577l1.64-.205zm-2.49 2.08c0 .296.109.53.326.702.217.171.474.257.77.257a2.35 2.35 0 0 0 1.052-.25c.572-.28.857-.735.857-1.368V23.9c-.125.08-.287.147-.486.2a4.334 4.334 0 0 1-.582.115l-.623.08c-.373.05-.653.127-.84.234-.316.18-.474.464-.474.857zm-3.047-4.355c0-.616-.23-1.035-.686-1.257-.251-.117-.596-.176-1.034-.176h-2.262v2.908h2.262c.51 0 .925-.109 1.242-.326.318-.217.478-.6.478-1.149zm-5.12-2.41h3.777c.746 0 1.348.21 1.805.631.457.421.686 1.013.686 1.774 0 .655-.204 1.225-.611 1.711-.408.486-1.035.73-1.88.73h-2.64v3.546h-1.136v-8.392z"/></g><g><path fill="#7542E5" d="M297.21 172.59c0-1.152-.438-2.017-1.167-2.737-.876-.865-1.752-1.153-2.774-1.153h-37.656c-1.17 0-2.045.432-2.775 1.153-.874.864-1.168 1.729-1.168 2.738v28.098c0 1.153.438 2.018 1.168 2.738.73.865 1.752 1.153 2.775 1.153h37.656c1.168 0 2.044-.432 2.774-1.153.875-.72 1.167-1.729 1.167-2.738v-28.098z"/><path stroke="#7542E5" stroke-width="6.053" d="M284.79 169.7v-9.253c0-3.136-.992-5.802-2.978-8.153-1.984-2.197-4.537-3.294-7.37-3.294-2.836 0-5.246 1.097-7.373 3.294-1.985 2.195-2.979 5.017-2.979 8.153v9.253"/><path fill="#CB9EFF" d="M277.747 192.235l-2.3-6.863c.575-.15 1.004-.448 1.437-.895.719-.746 1.006-1.492 1.006-2.536 0-1.045-.287-1.94-1.006-2.537-.719-.746-1.437-1.044-2.444-1.044-1.006 0-1.868.298-2.445 1.044-.717.746-1.005 1.492-1.005 2.537 0 1.044.288 1.939 1.005 2.536.433.447.862.746 1.439.895l-2.302 6.863c-.142.596-.142 1.193.29 1.79.43.597.862.895 1.58.895h3.163c.719 0 1.149-.298 1.582-.895a3.77 3.77 0 0 0 0-1.79"/></g></g></svg>
