<svg xmlns="http://www.w3.org/2000/svg" width="416" height="308" fill="none" viewBox="0 0 416 308">
  <g clip-path="url(#clip0)">
    <path fill="#fff" stroke="#F0F0F4" stroke-width="4" d="M463 2H6C3.79086 2 2 3.79086 2 6v303c0 2.209 1.79086 4 4 4h457c2.209 0 4-1.791 4-4V6c0-2.20914-1.791-4-4-4z"/>
    <path fill="#F0F0F4" fill-rule="evenodd" d="M0 30h469v33H0V30z" clip-rule="evenodd"/>
    <path fill="#fff" d="M359 39H56c-1.1046 0-2 .8954-2 2v11c0 1.1046.8954 2 2 2h303c1.105 0 2-.8954 2-2V41c0-1.1046-.895-2-2-2z"/>
    <path fill="#DFDFE6" fill-rule="evenodd" d="M4 0h461c1.061 0 2.078.421427 2.828 1.17157C468.579 1.92172 469 2.93913 469 4v26H0V4c0-1.06087.421427-2.07828 1.17157-2.82843C1.92172.421427 2.93913 0 4 0z" clip-rule="evenodd"/>
    <path fill="#F0F0F4" fill-rule="evenodd" d="M53 7c0-1.10457.8954-2 2-2h88c1.105 0 2 .89543 2 2v16c0 1.1046-.895 2-2 2H55c-1.1046 0-2-.8954-2-2V7z" clip-rule="evenodd"/>
    <g filter="url(#filter0_d)">
      <path fill="#000" d="M404 108H75c-2.2091 0-4 1.791-4 4v182c0 2.209 1.7909 4 4 4h329c2.209 0 4-1.791 4-4V112c0-2.209-1.791-4-4-4z"/>
    </g>
    <path fill="#fff" d="M404 108H75c-2.2091 0-4 1.791-4 4v182c0 2.209 1.7909 4 4 4h329c2.209 0 4-1.791 4-4V112c0-2.209-1.791-4-4-4z"/>
    <path fill="#fff" stroke="#FF4F5E" stroke-width="1.6" d="M375.044 137.8H102.441c-3.5346 0-6.4 2.865-6.4 6.4v44.6c0 3.535 2.8654 6.4 6.4 6.4h272.603c3.535 0 6.4-2.865 6.4-6.4v-44.6c0-3.535-2.865-6.4-6.4-6.4z"/>
    <path fill="#20123A" d="M154.949 172v-8.426h.108l3.432 8.409h1.386l3.432-8.403h.108V172h1.67v-11.636h-2.13l-3.705 9.045h-.136l-3.705-9.045h-2.13V172h1.67zm13.858 3.392c1.409 0 2.324-.761 2.818-2.12l3.636-10h-1.824l-2.21 6.773h-.09l-2.21-6.772h-1.82l3.194 8.84-.25.688c-.426 1.136-1.034 1.233-1.971.983l-.41 1.41c.182.084.608.198 1.137.198zM178.75 172v-5.074h4.943v-1.506h-4.942v-3.545h5.46v-1.511h-7.216V172h1.756-.001zm8.34-10.074c.586 0 1.075-.454 1.075-1.011 0-.557-.489-1.017-1.074-1.017-.591 0-1.074.46-1.074 1.017 0 .557.483 1.011 1.074 1.011h-.001zm.843 10.074v-8.727h-1.7V172h1.7zm5.415.114c.54-.006.903-.108 1.102-.182l-.307-1.404-.145.03c-.116.022-.27.044-.452.044-.55 0-1.045-.182-1.045-1.164v-4.802h1.79v-1.363h-1.79v-2.091h-1.7v2.09h-1.278v1.364h1.278v5.154c-.006 1.585 1.205 2.352 2.546 2.324h.001zm4.517-.114v-5.182c0-1.392.852-2.187 2.034-2.187 1.153 0 1.852.755 1.852 2.022V172h1.699v-5.551c0-2.16-1.188-3.29-2.972-3.29-1.312 0-2.17.608-2.574 1.534h-.108v-1.42h-1.63V172h1.699zm11.619.176c1.903 0 3.25-.937 3.636-2.358l-1.608-.29c-.307.824-1.045 1.245-2.011 1.245-1.455 0-2.432-.943-2.477-2.625h6.204v-.603c0-3.153-1.886-4.386-3.863-4.386-2.432 0-4.034 1.852-4.034 4.534 0 2.71 1.579 4.483 4.153 4.483zm2.08-5.301h-4.535c.069-1.239.966-2.312 2.347-2.312 1.318 0 2.182.977 2.187 2.312h.001zm6.698 5.301c2.108 0 3.568-1.12 3.568-2.699 0-1.233-.784-1.994-2.386-2.363l-1.386-.319c-.96-.227-1.375-.55-1.37-1.142-.005-.67.722-1.147 1.688-1.147 1.057 0 1.545.585 1.744 1.17l1.54-.273c-.352-1.358-1.415-2.244-3.301-2.244-1.972 0-3.37 1.04-3.37 2.585 0 1.239.75 2.063 2.387 2.426l1.477.324c.841.188 1.233.563 1.233 1.108 0 .676-.721 1.205-1.835 1.205-1.017 0-1.67-.438-1.875-1.296l-1.642.25c.284 1.546 1.568 2.415 3.528 2.415zm8.574 0c2.108 0 3.568-1.12 3.568-2.699 0-1.233-.784-1.994-2.386-2.363l-1.386-.319c-.96-.227-1.375-.55-1.37-1.142-.005-.67.722-1.147 1.688-1.147 1.057 0 1.545.585 1.744 1.17l1.54-.273c-.352-1.358-1.415-2.244-3.301-2.244-1.972 0-3.37 1.04-3.37 2.585 0 1.239.75 2.063 2.387 2.426l1.477.324c.841.188 1.233.563 1.233 1.108 0 .676-.722 1.205-1.835 1.205-1.017 0-1.67-.438-1.875-1.296l-1.642.25c.284 1.546 1.568 2.415 3.528 2.415zm7.324-.176v-4.09h2.386c2.7 0 4.034-1.632 4.034-3.78 0-2.141-1.323-3.766-4.028-3.766h-4.148V172h1.756zm2.227-5.58h-2.227v-4.55h2.205c1.738 0 2.448.943 2.448 2.26 0 1.319-.71 2.29-2.426 2.29zm8.648 5.773c1.443 0 2.256-.733 2.58-1.386h.068V172h1.659v-5.795c0-2.54-2-3.046-3.387-3.046-1.579 0-3.034.636-3.602 2.227l1.597.364c.25-.62.886-1.216 2.028-1.216 1.097 0 1.66.574 1.66 1.563v.04c0 .619-.637.607-2.205.79-1.654.192-3.347.624-3.347 2.607 0 1.716 1.29 2.66 2.949 2.66v-.001zm.37-1.363c-.96 0-1.654-.432-1.654-1.273 0-.91.807-1.233 1.79-1.364.55-.074 1.858-.221 2.102-.466v1.125c0 1.034-.824 1.978-2.239 1.978h.001zm7.896 1.17v-11.636h-1.699V172h1.7-.001z"/>
    <path fill="#0072C6" fill-rule="evenodd" d="M135.633 165c3.177-1.473 5.25-3.683 5.364-6.136 0 0-.838-.682-3.546-1.73-2.378-.922-4.19-1.134-4.19-1.134l.008 5.466c0 .817-.312 1.652-.9 2.39-1.918-.48-3.888-.721-5.865-.716h-.001c-2.085 0-4.072.259-5.87.718-.59-.739-.902-1.574-.902-2.392l.006-5.466s-1.813.212-4.191 1.134c-2.708 1.048-3.546 1.73-3.546 1.73.113 2.454 2.19 4.665 5.369 6.137-3.178 1.473-5.252 3.684-5.364 6.136 0 0 .837.681 3.544 1.73 2.38.923 4.192 1.133 4.192 1.133l-.008-5.465c0-.817.312-1.652.9-2.39 1.798.457 3.781.715 5.865.716h.001c2.086-.001 4.072-.26 5.871-.718.59.739.902 1.574.902 2.392l-.009 5.465s1.814-.21 4.192-1.132c2.708-1.05 3.545-1.731 3.545-1.731-.112-2.454-2.189-4.665-5.367-6.137zM131 165c-1.1.604-2.6 1-4.443 1h-.118c-1.84 0-3.34-.396-4.439-.999 1.1-.604 2.6-1 4.443-1h.118c1.84 0 3.34.395 4.44.998" clip-rule="evenodd"/>
    <path fill="#FF4F5E" d="M361.828 177.506l-12.367-22.503c-.734-1.337-2.71-1.337-3.447 0l-12.365 22.503c-.693 1.262.25 2.788 1.724 2.788h24.733c1.472 0 2.415-1.526 1.722-2.788z"/>
    <path fill="#fff" fill-rule="evenodd" d="M347.739 176.504c-1.078 0-1.953-.849-1.953-1.895s.875-1.895 1.953-1.895c1.077 0 1.952.849 1.952 1.895s-.875 1.895-1.952 1.895zm1.952-5.685h-3.905v-7.58h3.905v7.58z" clip-rule="evenodd"/>
    <path fill="#fff" stroke="#FF4F5E" stroke-width="1.6" d="M376.041 212.8h-273.6c-3.5346 0-6.4 2.865-6.4 6.4v44.6c0 3.535 2.8654 6.4 6.4 6.4h273.6c3.535 0 6.4-2.865 6.4-6.4v-44.6c0-3.535-2.865-6.4-6.4-6.4z"/>
    <path fill="#1877F2" d="M137.857 241.059c.002-2.303-.622-4.558-1.798-6.499-1.177-1.941-2.856-3.485-4.84-4.451-1.983-.965-4.188-1.311-6.352-.996-2.165.315-4.198 1.277-5.86 2.772-1.661 1.496-2.881 3.462-3.515 5.666-.634 2.204-.656 4.553-.062 6.77.594 2.216 1.778 4.207 3.412 5.735 1.634 1.529 3.649 2.532 5.808 2.891v-8.403h-2.904v-3.538h2.904v-2.653c-.061-.619.008-1.245.202-1.833.193-.588.507-1.124.918-1.571.411-.447.909-.793 1.461-1.015.552-.222 1.143-.314 1.732-.269.856.031 1.709.132 2.55.301v2.954h-1.443c-.248-.038-.501-.016-.74.062-.239.079-.458.213-.642.393-.183.18-.326.401-.418.647-.092.245-.131.509-.113.773v2.264h3.172l-.52 3.538h-2.652V253c2.707-.433 5.176-1.877 6.956-4.069 1.781-2.192 2.755-4.986 2.744-7.872z"/>
    <path fill="#F79E1B" fill-rule="evenodd" d="M145.571 247.26v-.408h-.104l-.122.291-.123-.291h-.093v.407h.076v-.305l.114.265h.078l.113-.265v.308l.061-.003v.001zm-.672 0v-.338h.137v-.07h-.346v.07h.148v.337h.061v.001z" clip-rule="evenodd"/>
    <path fill="#FF4F5E" d="M362.754 250.506l-12.41-22.503c-.737-1.337-2.72-1.337-3.459 0l-12.408 22.503c-.696 1.262.25 2.788 1.73 2.788h24.819c1.477 0 2.423-1.526 1.728-2.788z"/>
    <path fill="#fff" fill-rule="evenodd" d="M348.615 249.504c-1.081 0-1.959-.849-1.959-1.895s.878-1.895 1.96-1.895c1.08 0 1.959.849 1.959 1.895s-.878 1.895-1.96 1.895zm1.96-5.685h-3.919v-7.58h3.919v7.58z" clip-rule="evenodd"/>
    <path fill="#20123A" d="M153.278 247h1.756v-5.074h4.943v-1.506h-4.943v-3.545h5.46v-1.511h-7.216V247zm11.748.193c1.443 0 2.255-.733 2.579-1.386h.068V247h1.659v-5.796c0-2.539-2-3.045-3.386-3.045-1.58 0-3.034.636-3.602 2.227l1.596.364c.25-.619.887-1.216 2.029-1.216 1.096 0 1.659.574 1.659 1.563v.039c0 .62-.637.608-2.205.79-1.653.193-3.346.625-3.346 2.608 0 1.716 1.289 2.659 2.949 2.659zm.369-1.364c-.96 0-1.654-.431-1.654-1.272 0-.909.807-1.233 1.79-1.364.551-.074 1.858-.221 2.103-.466v1.125c0 1.034-.824 1.977-2.239 1.977zm9.876 1.347c2.063 0 3.398-1.239 3.586-2.937h-1.654c-.216.943-.949 1.5-1.92 1.5-1.438 0-2.364-1.199-2.364-3.103 0-1.869.943-3.045 2.364-3.045 1.079 0 1.738.682 1.92 1.5h1.654c-.182-1.762-1.62-2.932-3.603-2.932-2.46 0-4.051 1.852-4.051 4.517 0 2.631 1.534 4.5 4.068 4.5zm9.164 0c1.903 0 3.25-.937 3.636-2.358l-1.608-.29c-.307.824-1.045 1.245-2.011 1.245-1.455 0-2.432-.944-2.478-2.625h6.205v-.603c0-3.153-1.886-4.386-3.864-4.386-2.431 0-4.034 1.852-4.034 4.534 0 2.71 1.58 4.483 4.154 4.483zm-2.455-5.301c.068-1.239.966-2.313 2.347-2.313 1.318 0 2.182.978 2.187 2.313h-4.534zM190.2 247h1.659v-1.358h.142c.307.557.932 1.528 2.523 1.528 2.114 0 3.648-1.693 3.648-4.517 0-2.829-1.557-4.494-3.665-4.494-1.619 0-2.204.989-2.506 1.528h-.102v-4.323H190.2V247zm1.665-4.364c0-1.824.796-3.034 2.278-3.034 1.54 0 2.313 1.301 2.313 3.034 0 1.75-.795 3.086-2.313 3.086-1.46 0-2.278-1.25-2.278-3.086zm11.891 4.54c2.46 0 4.068-1.801 4.068-4.5 0-2.716-1.608-4.517-4.068-4.517-2.461 0-4.068 1.801-4.068 4.517 0 2.699 1.607 4.5 4.068 4.5zm.005-1.426c-1.608 0-2.358-1.403-2.358-3.08 0-1.67.75-3.091 2.358-3.091 1.597 0 2.347 1.421 2.347 3.091 0 1.677-.75 3.08-2.347 3.08zm9.635 1.426c2.461 0 4.068-1.801 4.068-4.5 0-2.716-1.607-4.517-4.068-4.517-2.46 0-4.068 1.801-4.068 4.517 0 2.699 1.608 4.5 4.068 4.5zm.006-1.426c-1.608 0-2.358-1.403-2.358-3.08 0-1.67.75-3.091 2.358-3.091 1.597 0 2.347 1.421 2.347 3.091 0 1.677-.75 3.08-2.347 3.08zm5.959 1.25h1.699v-3.097l.846-.846 2.966 3.943h2.085l-3.772-4.983 3.534-3.744h-2.034l-3.478 3.693h-.147v-6.602h-1.699V247z"/>
    <path fill="#7542E5" fill-rule="evenodd" d="M272.622 128.484c.896 0 1.755-.356 2.388-.989.634-.634.99-1.493.99-2.389V89.658c0-.8959-.356-1.7551-.99-2.3886-.633-.6335-1.492-.9894-2.388-.9894H206.81c-.896 0-1.755.3559-2.389.9894-.633.6335-.989 1.4927-.989 2.3886v35.448c0 .896.356 1.755.989 2.389.634.633 1.493.989 2.389.989h65.812z" clip-rule="evenodd"/>
    <path fill="#9059FF" fill-rule="evenodd" d="M276 123.196v-31.5l-25.433 15.75L276 123.196zm-47.135-15.75l-25.433-15.75v31.5l25.433-15.75z" clip-rule="evenodd"/>
    <mask id="a" width="73" height="28" x="203" y="86" maskUnits="userSpaceOnUse">
      <path fill="#fff" d="M276 113.57h-72.568V86.28H276v27.29z"/>
    </mask>
    <g mask="url(#a)">
      <path fill="#A97EFF" fill-rule="evenodd" d="M228.865 107.446l9.073 5.618c.534.331 1.15.506 1.778.506.628 0 1.244-.175 1.778-.506l9.073-5.618L276 91.696V89.66c0-.8964-.356-1.7561-.99-2.39-.634-.6339-1.494-.99-2.39-.99h-65.807c-.896 0-1.756.3561-2.39.99-.634.6339-.99 1.4936-.99 2.39v2.036l25.431 15.75h.001z" clip-rule="evenodd"/>
    </g>
  </g>
  <defs>
    <clipPath id="clip0">
      <path fill="#fff" d="M0 0h416v308H0z"/>
    </clipPath>
    <filter id="filter0_d" width="353" height="206" x="63" y="102" color-interpolation-filters="sRGB" filterUnits="userSpaceOnUse">
      <feFlood flood-opacity="0" result="BackgroundImageFix"/>
      <feColorMatrix in="SourceAlpha" values="0 0 0 0 0 0 0 0 0 0 0 0 0 0 0 0 0 0 127 0"/>
      <feOffset dy="2"/>
      <feGaussianBlur stdDeviation="4"/>
      <feColorMatrix values="0 0 0 0 0.12549 0 0 0 0 0.0705882 0 0 0 0 0.227451 0 0 0 0.24 0"/>
      <feBlend in2="BackgroundImageFix" result="effect1_dropShadow"/>
      <feBlend in="SourceGraphic" in2="effect1_dropShadow" result="shape"/>
    </filter>
  </defs>
</svg>
