<svg width="409" height="295" viewBox="0 0 409 295" fill="none" xmlns="http://www.w3.org/2000/svg">
<g clip-path="url(#clip0)">
<path d="M505.384 19.8H38.6518C37.0767 19.8 35.7998 21.0769 35.7998 22.652V333.074C35.7998 334.649 37.0767 335.926 38.6518 335.926H505.384C506.959 335.926 508.236 334.649 508.236 333.074V22.652C508.236 21.0769 506.959 19.8 505.384 19.8Z" fill="white" stroke="#F0F0F4" stroke-width="3.6"/>
<path fill-rule="evenodd" clip-rule="evenodd" d="M34 48.45H510.036V81.945H34V48.45Z" fill="#F0F0F4"/>
<path d="M377.719 58H100.281C99.5737 58 99 58.629 99 59.4049V71.5951C99 72.371 99.5737 73 100.281 73H377.719C378.426 73 379 72.371 379 71.5951V59.4049C379 58.629 378.426 58 377.719 58Z" fill="white"/>
<path fill-rule="evenodd" clip-rule="evenodd" d="M36.852 18H507.184C507.94 18 508.666 18.3005 509.201 18.8353C509.736 19.3702 510.036 20.0956 510.036 20.852V48.45H34V20.852C34 20.0956 34.3005 19.3702 34.8353 18.8353C35.3702 18.3005 36.0956 18 36.852 18V18Z" fill="#DFDFE6"/>
<path fill-rule="evenodd" clip-rule="evenodd" d="M75 25C75 23.8954 75.8954 23 77 23H167C168.105 23 169 23.8954 169 25V41C169 42.1046 168.105 43 167 43H77C75.8954 43 75 42.1046 75 41V25Z" fill="#F0F0F4"/>
<g opacity="0.8">
<g opacity="0.8">
<path opacity="0.8" fill-rule="evenodd" clip-rule="evenodd" d="M206.677 151.463H325.403V229.091H206.677V151.463ZM206.677 242.791H325.403V256.49H206.677V242.791ZM206.677 270.189H325.403V277.039H206.677V270.189ZM206.677 290.737H325.403V297.587H206.677V290.737Z" fill="#F0F0F4"/>
</g>
<g opacity="0.8">
<path opacity="0.8" fill-rule="evenodd" clip-rule="evenodd" d="M62.8369 151.463H183.846V229.091H62.8369V151.463ZM62.8369 242.791H183.846V256.49H62.8369V242.791ZM62.8369 270.189H183.846V277.039H62.8369V270.189ZM62.8369 290.738H183.846V297.588H62.8369V290.738Z" fill="#F0F0F4"/>
</g>
<g opacity="0.8">
<path opacity="0.8" fill-rule="evenodd" clip-rule="evenodd" d="M348.235 151.463H469.244V229.091H348.235V151.463ZM348.235 242.791H469.244V256.49H348.235V242.791ZM348.235 270.189H469.244V277.039H348.235V270.189ZM348.235 290.738H469.244V297.588H348.235V290.738Z" fill="#F0F0F4"/>
</g>
<path opacity="0.8" d="M245.679 93.018C243.146 93.183 241.612 94.629 241.612 97.201V112.604C241.612 125.115 254.055 134.947 264.819 134.869C276.922 134.782 288.103 124.562 288.103 112.604V97.201C288.103 94.62 286.473 93.164 283.92 93.018H245.679ZM255.482 105.548L264.819 114.419L274.166 105.549C278.349 103.792 280.173 108.567 278.456 109.964L266.284 121.582C265.887 121.961 263.761 121.961 263.363 121.582L251.192 109.964C249.552 108.421 251.687 103.568 255.482 105.548Z" fill="#DFDFE6"/>
</g>
<path fill-rule="evenodd" clip-rule="evenodd" d="M261 356.67L261.427 165.978C261.427 156.05 269.462 148 279.374 148H382.22C392.132 148 400.167 156.05 400.167 165.978L399.74 356.67" fill="#DFDFE6"/>
<path d="M344.718 155.932H316.954C316.224 155.932 315.632 156.524 315.632 157.254C315.632 157.984 316.224 158.576 316.954 158.576H344.718C345.448 158.576 346.04 157.984 346.04 157.254C346.04 156.524 345.448 155.932 344.718 155.932Z" fill="#D1D1D7"/>
<path fill-rule="evenodd" clip-rule="evenodd" d="M389.942 165.627C390.782 165.627 391.463 167.35 391.463 169.475L391.287 356.308H271.024L271.201 169.475C271.201 167.35 271.882 165.627 272.722 165.627H389.942Z" fill="white"/>
<path fill-rule="evenodd" clip-rule="evenodd" d="M389.942 165.627C390.782 165.627 391.463 166.343 391.463 167.227V171.971H271.201V167.227C271.201 166.343 271.882 165.627 272.722 165.627H389.942Z" fill="#D1D1D7"/>
<g opacity="0.8">
<path opacity="0.8" fill-rule="evenodd" clip-rule="evenodd" d="M284.026 215.291H379.366V262.062H284.026V215.291ZM284.026 272.855H379.366V283.648H284.026V272.855ZM284.026 292.643H379.366V298.04H284.026V292.643Z" fill="#F0F0F4"/>
</g>
<path d="M320.038 181.324C318.541 181.421 317.635 182.276 317.635 183.796V192.897C317.635 200.29 324.988 206.1 331.348 206.054C338.5 206.002 345.108 199.964 345.108 192.897V183.796C345.108 182.27 344.144 181.41 342.635 181.324H320.038ZM325.831 188.728L331.348 193.97L336.871 188.728C339.343 187.69 340.421 190.512 339.406 191.338L332.214 198.203C331.979 198.426 330.724 198.426 330.488 198.203L323.296 191.337C322.326 190.425 323.588 187.557 325.831 188.727V188.728Z" fill="#DFDFE6"/>
<g filter="url(#filter0_d)">
<path d="M99.3877 28H10.7147C8.87777 28 7.38867 29.4891 7.38867 31.326V119.999C7.38867 121.836 8.87777 123.325 10.7147 123.325H99.3877C101.225 123.325 102.714 121.836 102.714 119.999V31.326C102.714 29.4891 101.225 28 99.3877 28Z" fill="black"/>
</g>
<path d="M99.3877 28H10.7147C8.87777 28 7.38867 29.4891 7.38867 31.326V119.999C7.38867 121.836 8.87777 123.325 10.7147 123.325H99.3877C101.225 123.325 102.714 121.836 102.714 119.999V31.326C102.714 29.4891 101.225 28 99.3877 28Z" fill="white"/>
<path fill-rule="evenodd" clip-rule="evenodd" d="M16.6133 65.157V70.952H22.8343V87.767H29.6693V70.952H35.8883V65.157H16.6133ZM36.9503 65.157V87.767H55.6653V81.972H43.7903V79.154H55.6613V73.769H43.7903V70.952H55.6613V65.157H36.9503Z" fill="#FF2B06"/>
<mask id="mask0" mask-type="alpha" maskUnits="userSpaceOnUse" x="56" y="65" width="23" height="23">
<path d="M56.8135 65.157H78.0495V87.767H56.8135V65.157Z" fill="white"/>
</mask>
<g mask="url(#mask0)">
<path fill-rule="evenodd" clip-rule="evenodd" d="M63.6525 81.972H66.3265C70.5865 81.972 71.2105 78.456 71.2105 76.332C71.2105 74.91 70.7725 70.952 65.8285 70.952H63.6525V81.972ZM56.8125 65.158H68.0365C75.4345 65.158 78.0495 70.732 78.0495 76.43C78.0495 83.367 74.4425 87.768 66.7015 87.768H56.8125V65.158Z" fill="#FF2B06"/>
</g>
<mask id="mask1" mask-type="alpha" maskUnits="userSpaceOnUse" x="78" y="65" width="15" height="15">
<path d="M78.7451 65.114H92.8901V79.054H78.7451V65.114Z" fill="white"/>
</mask>
<g mask="url(#mask1)">
<path fill-rule="evenodd" clip-rule="evenodd" d="M87.8771 79.054L85.7911 75.53L83.7561 79.054H78.7451L83.5021 71.929L78.9221 65.113H83.9341L85.7911 68.482L87.7001 65.113H92.7121L88.1321 71.929L92.8901 79.054H87.8771Z" fill="#FF2B06"/>
</g>
<g filter="url(#filter1_d)">
<path d="M157.674 143.076H56.326C54.4891 143.076 53 144.565 53 146.402V247.75C53 249.587 54.4891 251.076 56.326 251.076H157.674C159.511 251.076 161 249.587 161 247.75V146.402C161 144.565 159.511 143.076 157.674 143.076Z" fill="black"/>
</g>
<path d="M157.674 143.076H56.326C54.4891 143.076 53 144.565 53 146.402V247.75C53 249.587 54.4891 251.076 56.326 251.076H157.674C159.511 251.076 161 249.587 161 247.75V146.402C161 144.565 159.511 143.076 157.674 143.076Z" fill="black"/>
<path fill-rule="evenodd" clip-rule="evenodd" d="M121.086 166.094C122.72 166.238 125.284 167.042 127.216 168.735C129.268 170.728 129.736 173.752 129.017 176.501C128.377 178.95 127.661 180.223 125.162 181.916C122.636 183.62 119.582 183.476 119.582 183.476V194.087L124.744 198.265L119.581 202.43L119.582 216.885C119.582 216.885 124.754 213.92 127.962 207.281C127.962 207.281 128.094 206.92 128.396 206.236C128.681 208.014 128.518 211.615 126.506 216.236C124.99 219.717 122.233 223.066 118.775 224.975C112.647 228.373 108.052 228.697 103.125 227.676C97.3565 226.488 92.1175 223.246 88.5415 217.592C86.0285 213.619 84.9035 208.986 85.0065 204.003C85.2085 194.219 92.4865 185.781 100.887 182.635C101.91 182.252 102.317 182 103.768 181.867C103.099 182.324 102.326 182.912 101.377 183.536C98.6725 185.313 96.3545 188.854 95.3655 191.579L111.671 184.304V207.102L98.5215 213.691C100.02 215.768 104.572 218.914 108.466 219.357C115.091 220.09 118.978 217.197 118.978 217.197L118.977 202.43L113.843 198.265L118.98 194.1V183.476C116.18 183.152 112.778 182.228 110.789 181.735C107.865 181.015 98.1145 178.278 96.5815 178.05C95.0505 177.822 93.1605 177.894 92.0175 178.915C90.8735 179.947 90.1655 181.759 90.6525 183.392C90.9275 184.316 91.5635 184.856 92.0445 185.384C92.0445 185.384 91.4815 185.336 90.4615 184.724C88.6205 183.62 87.2205 181.459 87.0515 178.794C86.8355 175.301 88.2735 172.156 91.1545 170.044C93.6575 168.435 96.4885 167.402 99.7805 167.871C104.582 168.555 111.039 171.268 116.79 172.648C119.018 173.189 120.743 173.369 122.309 172.456C123.039 171.928 124.322 170.571 123.273 168.771C122.049 166.658 119.702 166.706 117.714 166.334C119.425 165.974 119.8 165.974 121.086 166.094ZM101.697 211.422V189.406L95.0765 192.359C95.0745 192.359 93.3885 196.14 93.6835 201.626C93.9165 205.912 96.3125 211.039 98.1535 213.187L101.697 211.422Z" fill="white"/>
<g filter="url(#filter2_d)">
<path d="M392.674 7H319.326C317.489 7 316 8.4891 316 10.326V83.674C316 85.5109 317.489 87 319.326 87H392.674C394.511 87 396 85.5109 396 83.674V10.326C396 8.4891 394.511 7 392.674 7Z" fill="black"/>
</g>
<path d="M392.674 7H319.326C317.489 7 316 8.4891 316 10.326V83.674C316 85.5109 317.489 87 319.326 87H392.674C394.511 87 396 85.5109 396 83.674V10.326C396 8.4891 394.511 7 392.674 7Z" fill="#4C9FEA"/>
<path fill-rule="evenodd" clip-rule="evenodd" d="M347.208 66C363.058 66 371.726 52.533 371.726 40.855C371.726 40.473 371.726 40.092 371.701 39.713C373.394 38.4549 374.85 36.9058 376 35.138C374.431 35.8516 372.761 36.3203 371.05 36.528C372.861 35.409 374.207 33.6735 374.84 31.641C373.154 32.6682 371.302 33.394 369.367 33.786C366.697 30.873 362.452 30.16 359.014 32.047C355.577 33.934 353.801 37.951 354.682 41.846C347.754 41.49 341.299 38.134 336.923 32.613C334.636 36.651 335.804 41.816 339.591 44.41C338.216 44.3674 336.873 43.9876 335.68 43.304V43.416C335.681 47.622 338.573 51.246 342.593 52.079C341.326 52.4334 339.994 52.4851 338.703 52.23C339.831 55.83 343.066 58.296 346.753 58.367C343.725 60.8181 339.947 62.1559 336.051 62.157C335.365 62.1558 334.681 62.1134 334 62.03C337.919 64.6171 342.512 65.9952 347.208 65.993" fill="white"/>
<g filter="url(#filter3_d)">
<path d="M308.862 182H246.326C244.489 182 243 183.489 243 185.326V247.862C243 249.699 244.489 251.188 246.326 251.188H308.862C310.699 251.188 312.188 249.699 312.188 247.862V185.326C312.188 183.489 310.699 182 308.862 182Z" fill="black"/>
</g>
<path d="M308.862 182H246.326C244.489 182 243 183.489 243 185.326V247.862C243 249.699 244.489 251.188 246.326 251.188H308.862C310.699 251.188 312.188 249.699 312.188 247.862V185.326C312.188 183.489 310.699 182 308.862 182Z" fill="#EA3423"/>
<path fill-rule="evenodd" clip-rule="evenodd" d="M266.063 200.45V234.275L295.275 217.363L266.063 200.45Z" fill="#FEFEFE"/>
</g>
<defs>
<filter id="filter0_d" x="-0.611328" y="21" width="111.325" height="111.325" filterUnits="userSpaceOnUse" color-interpolation-filters="sRGB">
<feFlood flood-opacity="0" result="BackgroundImageFix"/>
<feColorMatrix in="SourceAlpha" type="matrix" values="0 0 0 0 0 0 0 0 0 0 0 0 0 0 0 0 0 0 127 0"/>
<feOffset dy="1"/>
<feGaussianBlur stdDeviation="4"/>
<feColorMatrix type="matrix" values="0 0 0 0 0.12549 0 0 0 0 0.0705882 0 0 0 0 0.227451 0 0 0 0.24 0"/>
<feBlend mode="normal" in2="BackgroundImageFix" result="effect1_dropShadow"/>
<feBlend mode="normal" in="SourceGraphic" in2="effect1_dropShadow" result="shape"/>
</filter>
<filter id="filter1_d" x="45" y="136.076" width="124" height="124" filterUnits="userSpaceOnUse" color-interpolation-filters="sRGB">
<feFlood flood-opacity="0" result="BackgroundImageFix"/>
<feColorMatrix in="SourceAlpha" type="matrix" values="0 0 0 0 0 0 0 0 0 0 0 0 0 0 0 0 0 0 127 0"/>
<feOffset dy="1"/>
<feGaussianBlur stdDeviation="4"/>
<feColorMatrix type="matrix" values="0 0 0 0 0.12549 0 0 0 0 0.0705882 0 0 0 0 0.227451 0 0 0 0.24 0"/>
<feBlend mode="normal" in2="BackgroundImageFix" result="effect1_dropShadow"/>
<feBlend mode="normal" in="SourceGraphic" in2="effect1_dropShadow" result="shape"/>
</filter>
<filter id="filter2_d" x="308" y="0" width="96" height="96" filterUnits="userSpaceOnUse" color-interpolation-filters="sRGB">
<feFlood flood-opacity="0" result="BackgroundImageFix"/>
<feColorMatrix in="SourceAlpha" type="matrix" values="0 0 0 0 0 0 0 0 0 0 0 0 0 0 0 0 0 0 127 0"/>
<feOffset dy="1"/>
<feGaussianBlur stdDeviation="4"/>
<feColorMatrix type="matrix" values="0 0 0 0 0.12549 0 0 0 0 0.0705882 0 0 0 0 0.227451 0 0 0 0.24 0"/>
<feBlend mode="normal" in2="BackgroundImageFix" result="effect1_dropShadow"/>
<feBlend mode="normal" in="SourceGraphic" in2="effect1_dropShadow" result="shape"/>
</filter>
<filter id="filter3_d" x="235" y="175" width="85.188" height="85.188" filterUnits="userSpaceOnUse" color-interpolation-filters="sRGB">
<feFlood flood-opacity="0" result="BackgroundImageFix"/>
<feColorMatrix in="SourceAlpha" type="matrix" values="0 0 0 0 0 0 0 0 0 0 0 0 0 0 0 0 0 0 127 0"/>
<feOffset dy="1"/>
<feGaussianBlur stdDeviation="4"/>
<feColorMatrix type="matrix" values="0 0 0 0 0.12549 0 0 0 0 0.0705882 0 0 0 0 0.227451 0 0 0 0.24 0"/>
<feBlend mode="normal" in2="BackgroundImageFix" result="effect1_dropShadow"/>
<feBlend mode="normal" in="SourceGraphic" in2="effect1_dropShadow" result="shape"/>
</filter>
<clipPath id="clip0">
<rect width="409" height="295" fill="white"/>
</clipPath>
</defs>
</svg>
