<svg xmlns="http://www.w3.org/2000/svg" xmlns:xlink="http://www.w3.org/1999/xlink" width="409" height="295" viewBox="0 0 409 295"><defs><rect id="b" width="95.325" height="95.325" x="0" y="0" rx="3.326"/><filter id="a" width="126.2%" height="126.2%" x="-13.1%" y="-12.1%" filterUnits="objectBoundingBox"><feOffset dy="1" in="SourceAlpha" result="shadowOffsetOuter1"/><feGaussianBlur in="shadowOffsetOuter1" result="shadowBlurOuter1" stdDeviation="4"/><feColorMatrix in="shadowBlurOuter1" values="0 0 0 0 0.125490196 0 0 0 0 0.0705882353 0 0 0 0 0.22745098 0 0 0 0.24 0"/></filter><path id="c" d="M.131.039h21.236v22.61H.131z"/><path id="e" d="M.035.21H14.18v13.94H.035z"/><rect id="h" width="108" height="108" x="0" y=".076" rx="3.326"/><filter id="g" width="123.1%" height="123.1%" x="-11.6%" y="-10.6%" filterUnits="objectBoundingBox"><feOffset dy="1" in="SourceAlpha" result="shadowOffsetOuter1"/><feGaussianBlur in="shadowOffsetOuter1" result="shadowBlurOuter1" stdDeviation="4"/><feColorMatrix in="shadowBlurOuter1" values="0 0 0 0 0.125490196 0 0 0 0 0.0705882353 0 0 0 0 0.22745098 0 0 0 0.24 0"/></filter><rect id="j" width="80" height="80" x="0" y="0" rx="3.326"/><filter id="i" width="131.2%" height="131.2%" x="-15.6%" y="-14.4%" filterUnits="objectBoundingBox"><feOffset dy="1" in="SourceAlpha" result="shadowOffsetOuter1"/><feGaussianBlur in="shadowOffsetOuter1" result="shadowBlurOuter1" stdDeviation="4"/><feColorMatrix in="shadowBlurOuter1" values="0 0 0 0 0.125490196 0 0 0 0 0.0705882353 0 0 0 0 0.22745098 0 0 0 0.24 0"/></filter><rect id="l" width="69.188" height="69.188" x="0" y="0" rx="3.326"/><filter id="k" width="136.1%" height="136.1%" x="-18.1%" y="-16.6%" filterUnits="objectBoundingBox"><feOffset dy="1" in="SourceAlpha" result="shadowOffsetOuter1"/><feGaussianBlur in="shadowOffsetOuter1" result="shadowBlurOuter1" stdDeviation="4"/><feColorMatrix in="shadowBlurOuter1" values="0 0 0 0 0.125490196 0 0 0 0 0.0705882353 0 0 0 0 0.22745098 0 0 0 0.24 0"/></filter></defs><g fill="none" fill-rule="evenodd"><g transform="translate(34 18)"><rect width="472.436" height="316.126" x="1.8" y="1.8" fill="#FFF" stroke="#F0F0F4" stroke-width="3.6" rx="2.852"/><path fill="#F0F0F4" d="M0 30.45h476.036v33.495H0z"/><rect width="311.606" height="15.225" x="82.215" y="39.585" fill="#FFF" rx="1.426"/><path fill="#DFDFE6" d="M2.852 0h470.332a2.852 2.852 0 0 1 2.852 2.852V30.45H0V2.852A2.852 2.852 0 0 1 2.852 0z"/><path fill="#F0F0F4" d="M40.6 5.075h93.38V32.48H40.6z"/><path fill="#D1D1D7" d="M40.6 5.075h93.38v5.075H40.6z"/><g opacity=".8"><g fill="#F0F0F4"><path d="M172.677 133.463h118.726v77.628H172.677zM172.677 224.791h118.726v13.699H172.677zM172.677 252.189h118.726v6.85H172.677zM172.677 272.737h118.726v6.85H172.677z"/></g><g fill="#F0F0F4"><path d="M28.837 133.463h121.009v77.628H28.837zM28.837 224.791h121.009v13.699H28.837zM28.837 252.189h121.009v6.85H28.837zM28.837 272.738h121.009v6.85H28.837z"/></g><g fill="#F0F0F4"><path d="M314.235 133.463h121.009v77.628H314.235zM314.235 224.791h121.009v13.699H314.235zM314.235 252.189h121.009v6.85H314.235zM314.235 272.738h121.009v6.85H314.235z"/></g><path fill="#DFDFE6" fill-rule="nonzero" d="M211.679 75.018c-2.533.165-4.067 1.611-4.067 4.183v15.403c0 12.511 12.443 22.343 23.207 22.265 12.103-.087 23.284-10.307 23.284-22.265V79.201c0-2.581-1.63-4.037-4.183-4.183h-38.241zm9.803 12.53l9.337 8.871 9.347-8.87c4.183-1.757 6.007 3.018 4.29 4.415l-12.172 11.618c-.397.379-2.523.379-2.921 0l-12.171-11.618c-1.64-1.543.495-6.396 4.29-4.416z"/></g></g><g transform="translate(261 148)"><path fill="#DFDFE6" d="M0 208.67L.427 17.978C.427 8.05 8.462 0 18.374 0H121.22c9.912 0 17.947 8.05 17.947 17.978l-.427 190.692"/><rect width="30.408" height="2.644" x="54.632" y="7.932" fill="#D1D1D7" rx="1.322"/><path fill="#FFF" d="M128.942 17.627c.84 0 1.521 1.723 1.521 3.848l-.176 186.833H10.024l.177-186.833c0-2.125.681-3.848 1.521-3.848h117.22z"/><path fill="#D1D1D7" d="M128.942 17.627c.84 0 1.521.716 1.521 1.6v4.744H10.201v-4.744c0-.884.681-1.6 1.521-1.6h117.22z"/><g fill="#F0F0F4" opacity=".8"><path d="M23.026 67.291h95.34v46.771h-95.34zM23.026 124.855h95.34v10.793h-95.34zM23.026 144.643h95.34v5.397h-95.34z"/></g><path fill="#DFDFE6" fill-rule="nonzero" d="M59.038 33.324c-1.497.097-2.403.952-2.403 2.472v9.101c0 7.393 7.353 13.203 13.713 13.157 7.152-.052 13.76-6.09 13.76-13.157v-9.101c0-1.526-.964-2.386-2.473-2.472H59.038zm5.793 7.404l5.517 5.242 5.523-5.242c2.472-1.038 3.55 1.784 2.535 2.61l-7.192 6.865c-.235.223-1.49.223-1.726 0l-7.192-6.866c-.97-.912.292-3.78 2.535-2.61z"/></g><g transform="translate(7.389 28)"><use fill="#000" filter="url(#a)" xlink:href="#b"/><use fill="#FFF" xlink:href="#b"/><path fill="#FF2B06" d="M9.225 37.157v5.795h6.221v16.815h6.835V42.952H28.5v-5.795zM29.562 37.157v22.61h18.715v-5.795H36.402v-2.818h11.871v-5.385H36.402v-2.817h11.871v-5.795z"/><g transform="translate(49.294 37.118)"><mask id="d" fill="#fff"><use xlink:href="#c"/></mask><path fill="#FF2B06" d="M6.97 16.854h2.674c4.26 0 4.884-3.516 4.884-5.64 0-1.422-.438-5.38-5.382-5.38H6.97v11.02zM.13.04h11.224c7.398 0 10.013 5.574 10.013 11.272 0 6.937-3.607 11.338-11.348 11.338H.13V.04z" mask="url(#d)"/></g><g transform="translate(71.321 36.904)"><mask id="f" fill="#fff"><use xlink:href="#e"/></mask><path fill="#FF2B06" mask="url(#f)" d="M9.167 14.15l-2.086-3.524-2.035 3.524H.035l4.757-7.125L.212.209h5.012l1.857 3.369L8.99.209h5.012l-4.58 6.816 4.758 7.125z"/></g></g><g transform="translate(53 143)"><use fill="#000" filter="url(#g)" xlink:href="#h"/><use fill="#000" xlink:href="#h"/><path fill="#FFF" d="M68.086 23.094c1.634.144 4.198.948 6.13 2.641 2.052 1.993 2.52 5.017 1.801 7.766-.64 2.449-1.356 3.722-3.855 5.415-2.526 1.704-5.58 1.56-5.58 1.56v10.611l5.162 4.178-5.163 4.165.001 14.455s5.172-2.965 8.38-9.604c0 0 .132-.361.434-1.045.285 1.778.122 5.379-1.89 10-1.516 3.481-4.273 6.83-7.731 8.739-6.128 3.398-10.723 3.722-15.65 2.701-5.769-1.188-11.008-4.43-14.584-10.084-2.513-3.973-3.638-8.606-3.535-13.589.202-9.784 7.48-18.222 15.881-21.368 1.023-.383 1.43-.635 2.881-.768-.669.457-1.442 1.045-2.391 1.669-2.705 1.777-5.023 5.318-6.012 8.043l16.306-7.275v22.798l-13.15 6.589c1.499 2.077 6.051 5.223 9.945 5.666 6.625.733 10.512-2.16 10.512-2.16l-.001-14.767-5.134-4.165L65.98 51.1V40.476c-2.8-.324-6.202-1.248-8.191-1.741-2.924-.72-12.675-3.457-14.208-3.685-1.531-.228-3.421-.156-4.564.865-1.144 1.032-1.852 2.844-1.365 4.477.275.924.911 1.464 1.392 1.992 0 0-.563-.048-1.583-.66-1.841-1.104-3.241-3.265-3.41-5.93-.216-3.493 1.222-6.638 4.103-8.75 2.503-1.609 5.334-2.642 8.626-2.173 4.802.684 11.259 3.397 17.01 4.777 2.228.541 3.953.721 5.519-.192.73-.528 2.013-1.885.964-3.685-1.224-2.113-3.571-2.065-5.559-2.437 1.711-.36 2.086-.36 3.372-.24zM48.697 68.422V46.406l-6.621 2.953c-.002 0-1.688 3.781-1.393 9.267.233 4.286 2.629 9.413 4.47 11.561l3.544-1.765z"/></g><g transform="translate(316 7)"><use fill="#000" filter="url(#i)" xlink:href="#j"/><use fill="#4C9FEA" xlink:href="#j"/><path fill="#FFF" d="M31.208 59c15.85 0 24.518-13.467 24.518-25.145 0-.382 0-.763-.025-1.142A17.788 17.788 0 0 0 60 28.138a16.866 16.866 0 0 1-4.95 1.39 8.832 8.832 0 0 0 3.79-4.887 17.01 17.01 0 0 1-5.473 2.145c-2.67-2.913-6.915-3.626-10.353-1.739-3.437 1.887-5.213 5.904-4.332 9.799-6.928-.356-13.383-3.712-17.759-9.233-2.287 4.038-1.119 9.203 2.668 11.797a8.39 8.39 0 0 1-3.911-1.106v.112c.001 4.206 2.893 7.83 6.913 8.663a8.395 8.395 0 0 1-3.89.151c1.128 3.6 4.363 6.066 8.05 6.137a17.018 17.018 0 0 1-10.702 3.79A17.11 17.11 0 0 1 18 55.03a23.954 23.954 0 0 0 13.208 3.963"/></g><g transform="translate(243 182)"><use fill="#000" filter="url(#k)" xlink:href="#l"/><use fill="#EA3423" xlink:href="#l"/><path fill="#FEFEFE" d="M23.063 18.45v33.825l29.212-16.912z"/></g></g></svg>