<svg xmlns="http://www.w3.org/2000/svg" xmlns:xlink="http://www.w3.org/1999/xlink" width="415" height="328" viewBox="0 0 415 328">
  <defs>
    <rect id="img-send-c" width="369.699" height="312" x="0" y="0" rx="4"/>
    <filter id="img-send-b" width="107%" height="108.3%" x="-3.5%" y="-3.5%" filterUnits="objectBoundingBox">
      <feOffset dy="2" in="SourceAlpha" result="shadowOffsetOuter1"/>
      <feGaussianBlur in="shadowOffsetOuter1" result="shadowBlurOuter1" stdDeviation="4"/>
      <feColorMatrix in="shadowBlurOuter1" values="0 0 0 0 0.125490196   0 0 0 0 0.0705882353   0 0 0 0 0.22745098  0 0 0 0.24 0"/>
    </filter>
    <rect id="img-send-a" width="336.575" height="277.808" x="17.096" y="17.096" rx="4"/>
    <mask id="img-send-d" width="336.575" height="277.808" x="0" y="0" fill="#fff" maskContentUnits="userSpaceOnUse" maskUnits="objectBoundingBox">
      <use xlink:href="#img-send-a"/>
    </mask>
  </defs>
  <g fill="none" fill-rule="evenodd" transform="translate(0 6)">
    <g transform="translate(37.397)">
      <use fill="#000" filter="url(#img-send-b)" xlink:href="#img-send-c"/>
      <use fill="#FFF" xlink:href="#img-send-c"/>
      <use stroke="#D0D0D1" stroke-dasharray="4" stroke-width="4" mask="url(#img-send-d)" xlink:href="#img-send-a"/>
      <g stroke="#0060DF" stroke-width="4" transform="translate(147.452 118.603)">
        <circle cx="37.397" cy="37.397" r="37.397"/>
        <path d="M37.9315068,18.1643836 L37.9315068,56.3797089"/>
        <path d="M37.9315068,18.1643836 L37.9315068,56.3797089" transform="rotate(-90 37.932 37.272)"/>
      </g>
    </g>
    <g transform="translate(0 113.26)">
      <path fill="#91C7FF" d="M36.328,0 L36.3287671,21.9178082 C36.3287671,26.3360862 39.9104891,29.9178082 44.3287671,29.9178082 L44.3287671,29.9178082 L66.246,29.917 L66.2465753,77.4794521 C66.2465753,81.8977301 62.6648533,85.4794521 58.2465753,85.4794521 L8,85.4794521 C3.581722,85.4794521 5.41083001e-16,81.8977301 0,77.4794521 L0,8 C-5.41083001e-16,3.581722 3.581722,8.11624501e-16 8,0 L36.328,0 Z"/>
      <rect width="12.822" height="4.274" x="14.959" y="25.644" fill="#0060DF" rx="2"/>
      <rect width="36.329" height="4.274" x="14.959" y="42.74" fill="#0060DF" rx="2"/>
      <rect width="36.329" height="4.274" x="14.959" y="59.836" fill="#0060DF" rx="2"/>
      <path fill="#91C7FF" d="M40.6533471,0 L40.6533471,21.6438356 C40.6533471,23.8529746 42.4442081,25.6438356 44.6533471,25.6438356 L66.2465753,25.6438356 L66.2465753,25.6438356 L40.6533471,0 Z"/>
    </g>
    <path fill="#FFF" d="M0,121.260274 L0,190.739726 C5.41083001e-16,195.158004 3.581722,198.739726 8,198.739726 L58.2465753,198.739726 C62.6648533,198.739726 66.2465753,195.158004 66.2465753,190.739726 L66.2465753,138.90411 L66.2465753,138.90411 L40.6027397,113.260274 L8,113.260274 C3.581722,113.260274 -5.41083001e-16,116.841996 0,121.260274 Z" opacity=".715"/>
    <g transform="translate(36.329 113.26)">
      <path fill="#91C7FF" d="M36.328,0 L36.3287671,21.9178082 C36.3287671,26.3360862 39.9104891,29.9178082 44.3287671,29.9178082 L44.3287671,29.9178082 L66.246,29.917 L66.2465753,77.4794521 C66.2465753,81.8977301 62.6648533,85.4794521 58.2465753,85.4794521 L8,85.4794521 C3.581722,85.4794521 5.41083001e-16,81.8977301 0,77.4794521 L0,8 C-5.41083001e-16,3.581722 3.581722,8.11624501e-16 8,0 L36.328,0 Z"/>
      <rect width="12.822" height="4.274" x="14.959" y="25.644" fill="#0060DF" rx="2"/>
      <rect width="36.329" height="4.274" x="14.959" y="42.74" fill="#0060DF" rx="2"/>
      <rect width="36.329" height="4.274" x="14.959" y="59.836" fill="#0060DF" rx="2"/>
      <path fill="#91C7FF" d="M40.6533471,0 L40.6533471,21.6438356 C40.6533471,23.8529746 42.4442081,25.6438356 44.6533471,25.6438356 L66.2465753,25.6438356 L66.2465753,25.6438356 L40.6533471,0 Z"/>
    </g>
    <path fill="#FFF" d="M36.3287671,121.260274 L36.3287671,190.739726 C36.3287671,195.158004 39.9104891,198.739726 44.3287671,198.739726 L94.5753425,198.739726 C98.9936205,198.739726 102.575342,195.158004 102.575342,190.739726 L102.575342,138.90411 L102.575342,138.90411 L76.9315068,113.260274 L44.3287671,113.260274 C39.9104891,113.260274 36.3287671,116.841996 36.3287671,121.260274 Z" opacity=".468"/>
    <g transform="translate(72.658 113.26)">
      <path fill="#91C7FF" d="M36.328,0 L36.3287671,21.9178082 C36.3287671,26.3360862 39.9104891,29.9178082 44.3287671,29.9178082 L44.3287671,29.9178082 L66.246,29.917 L66.2465753,77.4794521 C66.2465753,81.8977301 62.6648533,85.4794521 58.2465753,85.4794521 L8,85.4794521 C3.581722,85.4794521 5.41083001e-16,81.8977301 0,77.4794521 L0,8 C-5.41083001e-16,3.581722 3.581722,8.11624501e-16 8,0 L36.328,0 Z"/>
      <rect width="12.822" height="4.274" x="14.959" y="25.644" fill="#0060DF" rx="2"/>
      <rect width="36.329" height="4.274" x="14.959" y="42.74" fill="#0060DF" rx="2"/>
      <rect width="36.329" height="4.274" x="14.959" y="59.836" fill="#0060DF" rx="2"/>
      <path fill="#91C7FF" d="M40.6533471,0 L40.6533471,21.6438356 C40.6533471,23.8529746 42.4442081,25.6438356 44.6533471,25.6438356 L66.2465753,25.6438356 L66.2465753,25.6438356 L40.6533471,0 Z"/>
    </g>
  </g>
</svg>
