<svg xmlns="http://www.w3.org/2000/svg" xmlns:xlink="http://www.w3.org/1999/xlink" width="365" height="309" viewBox="0 0 365 309"><defs><path id="d" d="M330.862 301H36.055c-2.234 0-4.055-2.013-4.055-4.483V187.543 79.483C32 77.013 33.82 75 36.055 75h294.89c2.234 0 4.055 2.013 4.055 4.483v217.125c-.083 2.379-1.904 4.392-4.138 4.392z"/><filter id="c" width="108.6%" height="111.5%" x="-4.3%" y="-4.9%" filterUnits="objectBoundingBox"><feOffset dy="2" in="SourceAlpha" result="shadowOffsetOuter1"/><feGaussianBlur in="shadowOffsetOuter1" result="shadowBlurOuter1" stdDeviation="4"/><feColorMatrix in="shadowBlurOuter1" values="0 0 0 0 0.125490196 0 0 0 0 0.0705882353 0 0 0 0 0.22745098 0 0 0 0.24 0"/></filter><rect id="a" width="281" height="75" x="0" y="0" rx="4"/><mask id="e" width="281" height="75" x="0" y="0" fill="#fff" maskContentUnits="userSpaceOnUse" maskUnits="objectBoundingBox"><use xlink:href="#a"/></mask><rect id="b" width="281" height="75" x="0" y="0" rx="4"/><mask id="f" width="281" height="75" x="0" y="0" fill="#fff" maskContentUnits="userSpaceOnUse" maskUnits="objectBoundingBox"><use xlink:href="#b"/></mask></defs><g fill="none" fill-rule="evenodd"><g><rect width="465" height="311" x="2" y="2" fill="#FFF" stroke="#F0F0F4" stroke-width="4" rx="4"/><path fill="#F0F0F4" d="M0 30h469v33H0z"/><rect width="307" height="15" x="81" y="39" fill="#FFF" rx="2"/><path fill="#DFDFE6" d="M4 0h461a4 4 0 0 1 4 4v26H0V4a4 4 0 0 1 4-4z"/><path fill="#F0F0F4" d="M40 5h92v27H40z"/><path fill="#D1D1D7" d="M40 5h92v5H40z"/></g><g fill-rule="nonzero" transform="translate(-2 -2)"><use fill="#000" filter="url(#c)" xlink:href="#d"/><use fill="#FFF" xlink:href="#d"/></g><g transform="translate(41 84)"><path fill="#91C7FF" fill-rule="nonzero" d="M40.517 13.173H18.053c-.691 0-1.267.23-1.786.749-.518.518-.749 1.094-.749 1.785V59.31c0 .692.23 1.268.75 1.786.518.518 1.094.749 1.785.749h32.659c.691 0 1.267-.23 1.786-.749.518-.518.748-1.094.748-1.786V26.766l-12.73-13.593z"/><path stroke="#0060DF" stroke-linecap="round" stroke-linejoin="round" stroke-width="2.88" d="M34.296 28.264h-9.792m19.7 10.368h-19.7m19.7 11.52h-19.7"/><path fill="#589AD6" fill-rule="nonzero" d="M37.752 13.173v9.273c0 .692.23 1.268.749 1.786.518.518 1.094.749 1.785.749h11.232L40.517 13.173h-2.765z"/><path fill="#CAE6FF" fill-rule="nonzero" d="M40.46 24.232c0 .691.23 1.267.748 1.786.518.518 1.094.748 1.786.748h10.252L40.46 13.116v11.116z"/><text fill="#23103C" font-family="Metropolis-Bold, Metropolis" font-size="21" font-weight="bold"><tspan x="70" y="45">2.1MB</tspan></text><use stroke="#D0D0D1" stroke-dasharray="4" stroke-width="4" mask="url(#e)" xlink:href="#a"/></g><g transform="translate(41 167)"><path fill="#91C7FF" fill-rule="nonzero" d="M40.517 13.173H18.053c-.691 0-1.267.23-1.786.749-.518.518-.749 1.094-.749 1.785V59.31c0 .692.23 1.268.75 1.786.518.518 1.094.749 1.785.749h32.659c.691 0 1.267-.23 1.786-.749.518-.518.748-1.094.748-1.786V26.766l-12.73-13.593z"/><path stroke="#0060DF" stroke-linecap="round" stroke-linejoin="round" stroke-width="2.88" d="M34.296 28.264h-9.792m19.7 10.368h-19.7m19.7 11.52h-19.7"/><path fill="#589AD6" fill-rule="nonzero" d="M37.752 13.173v9.273c0 .692.23 1.268.749 1.786.518.518 1.094.749 1.785.749h11.232L40.517 13.173h-2.765z"/><path fill="#CAE6FF" fill-rule="nonzero" d="M40.46 24.232c0 .691.23 1.267.748 1.786.518.518 1.094.748 1.786.748h10.252L40.46 13.116v11.116z"/><text fill="#23103C" font-family="Metropolis-Bold, Metropolis" font-size="21" font-weight="bold"><tspan x="70" y="45">14.9MB</tspan></text><text fill="#5E5E5E" font-family="Metropolis-Bold, Metropolis" font-size="16" font-weight="bold"><tspan x="155.544" y="112">17.0MB / 2.5GB</tspan></text><use stroke="#D0D0D1" stroke-dasharray="4" stroke-width="4" mask="url(#f)" xlink:href="#b"/></g><g stroke="#0060DF" stroke-width="2.628" transform="translate(58 255)"><circle cx="16.156" cy="16.156" r="16.156"/><path d="M16.386 7.847v16.509M8.131 16.102H24.64"/></g></g></svg>
