<svg xmlns="http://www.w3.org/2000/svg" xmlns:xlink="http://www.w3.org/1999/xlink" width="415" height="328" viewBox="0 0 415 328"><defs><rect id="c" width="369.699" height="312" x="0" y="0" rx="4"/><filter id="b" width="107%" height="108.3%" x="-3.5%" y="-3.5%" filterUnits="objectBoundingBox"><feOffset dy="2" in="SourceAlpha" result="shadowOffsetOuter1"/><feGaussianBlur in="shadowOffsetOuter1" result="shadowBlurOuter1" stdDeviation="4"/><feColorMatrix in="shadowBlurOuter1" values="0 0 0 0 0.125490196 0 0 0 0 0.0705882353 0 0 0 0 0.22745098 0 0 0 0.24 0"/></filter><rect id="a" width="336.575" height="277.808" x="17.096" y="17.096" rx="4"/><mask id="d" width="336.575" height="277.808" x="0" y="0" fill="#fff" maskContentUnits="userSpaceOnUse" maskUnits="objectBoundingBox"><use xlink:href="#a"/></mask></defs><g fill="none" fill-rule="evenodd"><g transform="translate(37.397 6)"><use fill="#000" filter="url(#b)" xlink:href="#c"/><use fill="#FFF" xlink:href="#c"/><use stroke="#D0D0D1" stroke-dasharray="4" stroke-width="4" mask="url(#d)" xlink:href="#a"/><g stroke="#0060DF" stroke-width="4" transform="translate(147.452 118.603)"><circle cx="37.397" cy="37.397" r="37.397"/><path d="M37.932 18.164V56.38M18.824 37.272H57.04"/></g></g><g transform="translate(0 119.26)"><path fill="#91C7FF" d="M36.328 0v21.918a8 8 0 0 0 8 8l21.918-.001v47.562a8 8 0 0 1-8 8H8a8 8 0 0 1-8-8V8a8 8 0 0 1 8-8h28.328z"/><rect width="12.822" height="4.274" x="14.959" y="25.644" fill="#0060DF" rx="2"/><rect width="36.329" height="4.274" x="14.959" y="42.74" fill="#0060DF" rx="2"/><rect width="36.329" height="4.274" x="14.959" y="59.836" fill="#0060DF" rx="2"/><path fill="#91C7FF" d="M40.653 0v21.644a4 4 0 0 0 4 4h21.594L40.653 0z"/></g><path fill="#FFF" d="M0 127.26v69.48a8 8 0 0 0 8 8h50.247a8 8 0 0 0 8-8v-51.836L40.603 119.26H8a8 8 0 0 0-8 8z" opacity=".715"/><g transform="translate(36.329 119.26)"><path fill="#91C7FF" d="M36.328 0v21.918a8 8 0 0 0 8 8l21.918-.001v47.562a8 8 0 0 1-8 8H8a8 8 0 0 1-8-8V8a8 8 0 0 1 8-8h28.328z"/><rect width="12.822" height="4.274" x="14.959" y="25.644" fill="#0060DF" rx="2"/><rect width="36.329" height="4.274" x="14.959" y="42.74" fill="#0060DF" rx="2"/><rect width="36.329" height="4.274" x="14.959" y="59.836" fill="#0060DF" rx="2"/><path fill="#91C7FF" d="M40.653 0v21.644a4 4 0 0 0 4 4h21.594L40.653 0z"/></g><path fill="#FFF" d="M36.329 127.26v69.48a8 8 0 0 0 8 8h50.246a8 8 0 0 0 8-8v-51.836L76.932 119.26H44.329a8 8 0 0 0-8 8z" opacity=".468"/><g transform="translate(72.658 119.26)"><path fill="#91C7FF" d="M36.328 0v21.918a8 8 0 0 0 8 8l21.918-.001v47.562a8 8 0 0 1-8 8H8a8 8 0 0 1-8-8V8a8 8 0 0 1 8-8h28.328z"/><rect width="12.822" height="4.274" x="14.959" y="25.644" fill="#0060DF" rx="2"/><rect width="36.329" height="4.274" x="14.959" y="42.74" fill="#0060DF" rx="2"/><rect width="36.329" height="4.274" x="14.959" y="59.836" fill="#0060DF" rx="2"/><path fill="#91C7FF" d="M40.653 0v21.644a4 4 0 0 0 4 4h21.594L40.653 0z"/></g></g></svg>