<svg xmlns="http://www.w3.org/2000/svg" width="370" height="266" fill="none" viewBox="0 0 370 266">
  <g clip-path="url(#clip0)">
    <path fill="#F0F0F4" fill-rule="evenodd" d="M1.12598 316.218l.00614-260.9593C1.13212 24.7413 22.443 0 48.7316 0H321.513c26.289 0 47.6 24.7413 47.6 55.2587l-.007 260.9593" clip-rule="evenodd"/>
    <path fill="#D1D1D7" fill-opacity=".6" d="M221.806 24.3813h-73.165c-2.067 0-3.742 1.6743-3.742 3.7396v.6477c0 2.0652 1.675 3.7395 3.742 3.7395h73.165c2.067 0 3.742-1.6743 3.742-3.7395v-.6477c0-2.0653-1.675-3.7396-3.742-3.7396z"/>
    <path fill="#fff" fill-rule="evenodd" d="M341.989 54.1807c2.229 0 4.036 2.406 4.036 5.3751l-.469 260.9832H26.5869l.4688-260.9832c0-2.9691 1.8067-5.3751 4.0352-5.3751H341.989z" clip-rule="evenodd"/>
    <path fill="#D1D1D7" fill-rule="evenodd" d="M341.99 54.1807c2.228 0 4.035 2.2 4.035 4.9148v14.5818H27.0557V59.0955c0-2.7148 1.8067-4.9148 4.0352-4.9148H341.99z" clip-rule="evenodd"/>
    <g filter="url(#filter0_d)">
      <rect width="260.194" height="245.722" x="54.9033" y="90.6548" fill="#321C64" rx="8"/>
      <rect width="260.194" height="245.722" x="54.9033" y="90.6548" stroke="#E7E7E7" rx="8"/>
    </g>
    <rect width="24.8258" height="24.8108" x="187.328" y="114.809" fill="#3FE1B0" rx="12.4054"/>
    <path fill="url(#paint0_radial)" fill-rule="evenodd" d="M183.832 130.743h-8.291c1.953-6.474 5.498-10.894 9.459-10.894.069 0 .138.001.206.004 1.405-2.765 3.577-5.075 6.236-6.651-2.098-.472-4.257-.716-6.442-.719-5.831 0-11.53 1.728-16.378 4.966-4.848 3.237-8.627 7.839-10.858 13.222-2.232 5.384-2.816 11.308-1.678 17.023s3.945 10.965 8.068 15.085c4.123 4.121 9.376 6.927 15.095 8.064 5.718 1.137 11.646.553 17.033-1.677 5.387-2.23 9.991-6.006 13.23-10.851 3.24-4.845 4.969-10.542 4.969-16.369-.003-2.183-.247-4.341-.719-6.437-1.577 2.656-3.888 4.826-6.653 6.23.001.069.002.138.002.207-.006 2.456-.423 4.893-1.235 7.211h-6.71c.301-1.874.484-3.764.548-5.66-1.263-.002-2.493-.148-3.674-.422-.057 2.039-.266 4.073-.626 6.082h-20.828c-.856-4.769-.856-9.653 0-14.422h10.702c-.65-1.245-1.144-2.584-1.456-3.992zm-8.291 22.406c1.953 6.475 5.498 10.894 9.459 10.894 3.962 0 7.507-4.419 9.463-10.894h-18.922zm-11.417-18.414c-.812 2.318-1.229 4.755-1.234 7.211.005 2.456.422 4.893 1.234 7.211h6.711c-.767-4.777-.767-9.645 0-14.422h-6.711zm7.569-3.992c.786-3.115 2.096-6.074 3.873-8.75-3.998 1.897-7.338 4.944-9.592 8.75h5.719zm0 22.406h-5.719c2.254 3.807 5.594 6.854 9.592 8.751-1.777-2.677-3.087-5.636-3.873-8.751zm22.757 8.743c3.995-1.896 7.333-4.94 9.587-8.743h-5.719c-.785 3.112-2.093 6.069-3.868 8.743z" clip-rule="evenodd"/>
    <path fill="#fff" fill-rule="evenodd" d="M199.74 132.658l-.087-.009c-1.242-.199-2.359-.874-3.112-1.882-.877-1.19-1.364-2.621-1.397-4.098-.059-.651-.059-2.079-.059-2.874-.001-.696.499-1.292 1.185-1.412l3.47-.596 3.469.596c.687.119 1.188.716 1.186 1.413 0 .793 0 2.222-.062 2.873-.032 1.477-.52 2.908-1.396 4.098-.754 1.008-1.87 1.683-3.113 1.882l-.084.009zm-3.113-7.498c-.008.594-.013 1.031.01 1.291.02 1.225.424 2.413 1.154 3.398.477.637 1.17 1.08 1.949 1.244.78-.164 1.473-.607 1.949-1.244.73-.985 1.134-2.173 1.155-3.398.023-.26.017-.697.01-1.291-.005-.365-.01-.789-.01-1.268l-3.104-.531-3.103.531c0 .479-.005.903-.01 1.268zm1.174-.287l1.939-.332v5.351h-.006c-.403-.135-.755-.39-1.008-.731-.586-.791-.894-1.753-.877-2.737-.025-.268-.041-.82-.048-1.551z" clip-rule="evenodd"/>
    <rect width="61.2688" height="22.2661" x="154.366" y="219.082" fill="#3FE1B0" opacity=".6" rx="11.133"/>
    <g filter="url(#filter1_dd)">
      <path fill="#54FFBD" fill-rule="evenodd" d="M198.925 246.915c9.228 0 16.709-7.477 16.709-16.7 0-9.223-7.481-16.699-16.709-16.699-9.229 0-16.71 7.476-16.71 16.699 0 9.223 7.481 16.7 16.71 16.7z" clip-rule="evenodd"/>
      <path stroke="url(#paint1_linear)" stroke-width=".5" d="M215.384 230.215c0 9.085-7.369 16.45-16.459 16.45-9.091 0-16.46-7.365-16.46-16.45 0-9.085 7.369-16.449 16.46-16.449 9.09 0 16.459 7.364 16.459 16.449z"/>
      <path stroke="url(#paint2_linear)" stroke-width=".5" d="M215.384 230.215c0 9.085-7.369 16.45-16.459 16.45-9.091 0-16.46-7.365-16.46-16.45 0-9.085 7.369-16.449 16.46-16.449 9.09 0 16.459 7.364 16.459 16.449z"/>
    </g>
    <path fill="#fff" d="M164.844 185.191l-3.432 7.802-3.445-7.802h-1.123l4 9.069h1.122l4-9.069h-1.122zm2.586 9.069h1.03v-3.261h2.653c1.874 0 3.34-1.201 3.34-2.904 0-1.703-1.466-2.904-3.34-2.904h-3.683v9.069zm1.03-4.238v-3.854h2.468c1.479 0 2.482.713 2.482 1.927 0 1.215-1.003 1.927-2.482 1.927h-2.468zm7.663 4.238h1.03v-7.379l5.623 7.379h1.03v-9.069h-1.03v7.379l-5.623-7.379h-1.03v9.069zm14.238-8.066c.356 0 .647-.303.647-.66 0-.343-.291-.647-.647-.647-.37 0-.66.304-.66.647 0 .357.29.66.66.66zm-.502 8.066h.99v-6.825h-.99v6.825zm5.394.158c1.413 0 2.495-.805 2.495-2.059 0-1.294-1.135-1.663-2.231-2.007-1.267-.409-1.769-.594-1.769-1.188 0-.66.634-1.003 1.4-1.003.607 0 1.28.211 1.967.647l.475-.766c-.726-.475-1.597-.765-2.442-.765-1.36 0-2.39.765-2.39 2.006 0 .977.634 1.465 2.284 1.941.924.264 1.716.501 1.716 1.24 0 .647-.607 1.07-1.505 1.07-.752 0-1.531-.291-2.31-.858l-.515.726c.819.66 1.875 1.016 2.825 1.016zm11.13 0c1.914 0 3.525-1.637 3.525-3.577 0-1.941-1.611-3.564-3.525-3.564s-3.538 1.623-3.538 3.564c0 1.94 1.624 3.577 3.538 3.577zm0-.884c-1.359 0-2.495-1.228-2.495-2.693 0-1.452 1.136-2.68 2.495-2.68 1.347 0 2.482 1.228 2.482 2.68 0 1.465-1.135 2.693-2.482 2.693zm8.407-6.257c-.963 0-1.848.528-2.244 1.254v-1.096h-.99v6.825h.99v-4.343c0-.951.964-1.756 2.112-1.756 1.003 0 1.703.779 1.703 1.888v4.211h.99v-4.343c0-1.545-1.056-2.64-2.561-2.64z"/>
  </g>
  <defs>
    <linearGradient id="paint1_linear" x1="182.378" x2="182.378" y1="213.516" y2="246.588" gradientUnits="userSpaceOnUse">
      <stop stop-opacity="0"/>
      <stop offset=".8" stop-opacity=".02"/>
      <stop offset="1" stop-opacity=".04"/>
    </linearGradient>
    <linearGradient id="paint2_linear" x1="182.215" x2="182.215" y1="213.516" y2="246.915" gradientUnits="userSpaceOnUse">
      <stop stop-color="#fff" stop-opacity=".12"/>
      <stop offset=".2" stop-color="#fff" stop-opacity=".06"/>
      <stop offset="1" stop-color="#fff" stop-opacity="0"/>
    </linearGradient>
    <filter id="filter0_d" width="268.194" height="253.722" x="50.9033" y="87.6548" color-interpolation-filters="sRGB" filterUnits="userSpaceOnUse">
      <feFlood flood-opacity="0" result="BackgroundImageFix"/>
      <feColorMatrix in="SourceAlpha" values="0 0 0 0 0 0 0 0 0 0 0 0 0 0 0 0 0 0 127 0"/>
      <feOffset dy="1"/>
      <feGaussianBlur stdDeviation="2"/>
      <feColorMatrix values="0 0 0 0 0.0470588 0 0 0 0 0.0470588 0 0 0 0 0.0509804 0 0 0 0.1 0"/>
      <feBlend in2="BackgroundImageFix" result="effect1_dropShadow"/>
      <feBlend in="SourceGraphic" in2="effect1_dropShadow" result="shape"/>
    </filter>
    <filter id="filter1_dd" width="37.4194" height="39.3991" x="180.215" y="211.516" color-interpolation-filters="sRGB" filterUnits="userSpaceOnUse">
      <feFlood flood-opacity="0" result="BackgroundImageFix"/>
      <feColorMatrix in="SourceAlpha" values="0 0 0 0 0 0 0 0 0 0 0 0 0 0 0 0 0 0 127 0"/>
      <feOffset dy="2"/>
      <feGaussianBlur stdDeviation="1"/>
      <feColorMatrix values="0 0 0 0 0 0 0 0 0 0 0 0 0 0 0 0 0 0 0.24 0"/>
      <feBlend in2="BackgroundImageFix" result="effect1_dropShadow"/>
      <feColorMatrix in="SourceAlpha" values="0 0 0 0 0 0 0 0 0 0 0 0 0 0 0 0 0 0 127 0"/>
      <feOffset/>
      <feGaussianBlur stdDeviation="1"/>
      <feColorMatrix values="0 0 0 0 0 0 0 0 0 0 0 0 0 0 0 0 0 0 0.12 0"/>
      <feBlend in2="effect1_dropShadow" result="effect2_dropShadow"/>
      <feBlend in="SourceGraphic" in2="effect2_dropShadow" result="shape"/>
    </filter>
    <radialGradient id="paint0_radial" cx="0" cy="0" r="1" gradientTransform="rotate(-44.983 243.07782764 -202.77120298) scale(83.3586)" gradientUnits="userSpaceOnUse">
      <stop stop-color="#B833E1"/>
      <stop offset=".371" stop-color="#9059FF"/>
      <stop offset=".614" stop-color="#5B6DF8"/>
      <stop offset="1" stop-color="#0090ED"/>
    </radialGradient>
    <clipPath id="clip0">
      <path fill="#fff" d="M0 0h370v266H0z"/>
    </clipPath>
  </defs>
</svg>
