<svg width="159" height="9" viewBox="0 0 159 9" xmlns="http://www.w3.org/2000/svg"><defs><filter x="-4.4%" y="-10.1%" width="108.7%" height="120.1%" filterUnits="objectBoundingBox" id="b"><feOffset dy="2" in="SourceAlpha" result="shadowOffsetOuter1"/><feGaussianBlur stdDeviation="8" in="shadowOffsetOuter1" result="shadowBlurOuter1"/><feColorMatrix values="0 0 0 0 0.125490196 0 0 0 0 0.0705882353 0 0 0 0 0.22745098 0 0 0 0.24 0" in="shadowBlurOuter1" result="shadowMatrixOuter1"/><feMerge><feMergeNode in="shadowMatrixOuter1"/><feMergeNode in="SourceGraphic"/></feMerge></filter><linearGradient x1="1" y1=".5" x2="0" y2=".503" id="a"><stop stop-color="#FF9100" offset="0"/><stop stop-color="#F10366" offset=".5"/><stop stop-color="#6173FF" offset="1"/></linearGradient></defs><g transform="matrix(1.0343 0 0 .79891 -711.622 -1801.28)" stroke="url(#a)" stroke-width="3" fill="none" fill-rule="evenodd" stroke-linecap="round"><path vector-effect="non-scaling-stroke" d="M688.657 2264.211c7.242-1.177 14.478-4.676 21.725-3.532 2.712.429 3.32 5.594 11.031 4.032 16.339-3.309 6.765.754 23.006-3.015 16.24-3.768 12.357 4.952 20.355 3.454 13.997-2.622 7.673-2.764 21.655-5.463 14.96-2.889 27.905-5.713 28.548 1.707.059.676.931 1.216 1.606 1.243 7.157.277 17.827-4.531 23.074-6.312"/></g></svg>
