<svg xmlns="http://www.w3.org/2000/svg" xml:space="preserve" version="1.1" viewBox="0 0 260 150" width="260" height="150">
  <style>
    .st0,.st1{stroke-width:1.71;stroke-linejoin:round}.st0{fill:#fffff2;stroke:#333336;stroke-linecap:round;stroke-miterlimit:4}.st1{fill:none}.st1,.st3,.st4{stroke:#333336}.st3{fill:none;stroke-width:1.4431;stroke-linecap:round}.st4{fill:#b3ffe3;stroke-width:1.71}.st5{fill-rule:evenodd;clip-rule:evenodd;fill:#333336}
  </style>
  <path d="m95.5 30.3 29.2 7.8c1.1.3 1.7 1.4 1.4 2.5l-5.4 20c-.3 1.1-1.4 1.7-2.5 1.4L89 54.2c-1.1-.3-1.7-1.4-1.4-2.5l5.4-20c.3-1.1 1.4-1.7 2.5-1.4z" class="st0"/>
  <path d="m93.4 29.8 11.9 19.5 19.6-11.1" class="st1"/>
  <circle cx="126.4" cy="38.2" r="5.6" fill="#fffff2" stroke="#333336" stroke-width="1.6753"/>
  <path d="m124.9 35.6 3 5.1" class="st3"/>
  <path d="m123.8 39.6 5.1-3" class="st3"/>
  <path d="M161.4 69.1 173 88.2V91.6c0 1.9 0 4.6-.1 8v10.6H91.1V88.3l9.7-18.7c1.4-2.7 4.5-4.6 7.9-4.6h44.9c3.3 0 6.2 1.6 7.8 4.1z" class="st4"/>
  <path d="M100.8 119.3h-.9c-4.9 0-8.8-3.6-8.8-8V89h24.6c.5 8 7.8 14.2 16.4 14.2 8.6 0 15.9-6.2 16.4-14.2h24.4l-.2 22.4c0 4.3-3.9 7.9-8.8 7.9h-63.1z" class="st4"/>
  <path d="m119.2 56.2 34.9-6.2c1.3-.2 2.5.6 2.7 1.9l4.2 23.9c.2 1.3-.6 2.5-1.9 2.7l-34.9 6.2c-1.3.2-2.5-.6-2.7-1.9L117.3 59c-.2-1.3.6-2.5 1.9-2.8z" class="st0"/>
  <path d="m116.8 56.8 22.3 14.8 15.3-21.4" class="st1"/>
  <circle cx="154" cy="50.5" r="11" class="st4" transform="rotate(-10.003 154.04228925 50.4841175)"/>
  <path d="M150.5 49c.8-.1 1.3-.9 1.2-1.7-.1-.8-.9-1.3-1.7-1.2s-1.3.9-1.2 1.7c.2.9.9 1.4 1.7 1.2z" class="st5"/>
  <path d="M156.7 47.9c.8-.1 1.3-.9 1.2-1.7-.1-.8-.9-1.3-1.7-1.2-.8.1-1.3.9-1.2 1.7.2.9.9 1.4 1.7 1.2z" class="st5"/>
  <path fill="none" stroke="#333336" stroke-linecap="round" stroke-width="1.71" d="M148 51.6c.6 3.4 3.8 5.6 7.2 5 3.4-.6 5.6-3.8 5-7.2"/>
</svg>
