<?xml version="1.0" encoding="utf-8"?>
<!-- Generator: Adobe Illustrator 26.3.1, SVG Export Plug-In . SVG Version: 6.00 Build 0)  -->
<svg version="1.1" id="Layer_1" xmlns="http://www.w3.org/2000/svg" xmlns:xlink="http://www.w3.org/1999/xlink" x="0px" y="0px"
	 viewBox="0 0 209 74" style="enable-background:new 0 0 209 74;" xml:space="preserve">
<style type="text/css">
	.st0{fill:#F8F6F4;stroke:#333336;stroke-width:2.2566;}
	.st1{fill:#C688FF;stroke:#333336;stroke-width:1.6925;stroke-miterlimit:10;}
	.st2{fill:#333336;}
	.st3{fill:#87FFD1;stroke:#333336;stroke-width:1.6925;stroke-miterlimit:10;}
	.st4{fill:#FF6BBA;stroke:#333336;stroke-width:1.6925;}
</style>
<path class="st0" d="M37.2,2h135c19.4,0,35.2,15.7,35.2,35.2l0,0c0,19.4-15.7,35.2-35.2,35.2h-135C17.7,72.3,2,56.6,2,37.2l0,0
	C2,17.7,17.7,2,37.2,2z"/>
<g id="lock">
	<path class="st1" d="M156.1,36.3V29c0-1.9,0.7-3.7,2.1-5c1.3-1.3,3.1-2.1,5-2.1c1.9,0,3.7,0.7,5,2.1c1.3,1.3,2.1,3.1,2.1,5v7.3h4
		v-7c0-2.9-1.2-5.7-3.2-7.8c-2.1-2.1-4.9-3.2-7.8-3.2c-2.9,0-5.7,1.2-7.8,3.2c-2.1,2.1-3.2,4.9-3.2,7.8v7H156.1z"/>
	<path class="st1" d="M177,34.7h-27.4c-1.2,0-2.1,0.9-2.1,2v19c0,1.1,0.9,2,2.1,2H177c1.2,0,2.1-0.9,2.1-2v-19
		C179.1,35.6,178.2,34.7,177,34.7z"/>
	<path class="st2" d="M167,44.7c0,0.6-0.1,1.1-0.4,1.6s-0.7,0.9-1.2,1.2V50c0,0.5-0.2,0.9-0.5,1.3c-0.3,0.3-0.8,0.5-1.3,0.5
		c-0.5,0-0.9-0.2-1.3-0.5c-0.3-0.3-0.5-0.8-0.5-1.3v-2.4c-0.5-0.3-0.9-0.7-1.2-1.3c-0.3-0.5-0.4-1.1-0.4-1.7c0-0.6,0.2-1.2,0.5-1.7
		c0.3-0.5,0.7-0.9,1.3-1.2s1.1-0.4,1.7-0.4c0.6,0,1.2,0.2,1.7,0.5c0.5,0.3,0.9,0.7,1.2,1.2C166.8,43.6,167,44.2,167,44.7L167,44.7z"
		/>
</g>
<path id="puzzle" class="st3" d="M123.2,36.5c-1.2,0-2.3,0.4-3.3,1.1v-7.7c0-0.6-0.1-1.1-0.3-1.7c-0.2-0.5-0.5-1-1-1.4
	c-0.4-0.4-0.9-0.7-1.4-0.9c-0.5-0.2-1.1-0.3-1.7-0.3h-7.7c0.6-0.8,1-1.8,1.1-2.8c0.1-1-0.1-2-0.6-2.9c-0.5-0.9-1.2-1.7-2-2.2
	c-0.9-0.5-1.9-0.8-2.9-0.8c-1,0-2,0.3-2.9,0.8c-0.9,0.5-1.6,1.3-2,2.2c-0.5,0.9-0.6,1.9-0.6,2.9c0.1,1,0.5,2,1.1,2.8h-7.7
	c-0.6,0-1.1,0.1-1.7,0.3c-0.5,0.2-1,0.5-1.4,0.9c-0.4,0.4-0.7,0.9-1,1.4c-0.2,0.5-0.3,1.1-0.3,1.7v6.7c0.4-0.1,0.7-0.1,1.1-0.1
	c1.5,0,2.8,0.6,3.9,1.6c1,1,1.6,2.4,1.6,3.9c0,1.5-0.6,2.8-1.6,3.9c-1,1-2.4,1.6-3.9,1.6c-0.4,0-0.7,0-1.1-0.1v6.7
	c0,0.6,0.1,1.1,0.3,1.7c0.2,0.5,0.5,1,1,1.4c0.4,0.4,0.9,0.7,1.4,1c0.5,0.2,1.1,0.3,1.7,0.3h6.7C98,58,98,57.6,98,57.2
	c0-1.5,0.6-2.8,1.6-3.9c1-1,2.4-1.6,3.9-1.6c1.4,0,2.8,0.6,3.9,1.6c1,1,1.6,2.4,1.6,3.9c0,0.4,0,0.7-0.1,1.1h6.7
	c0.6,0,1.2-0.1,1.7-0.3c0.5-0.2,1-0.5,1.4-0.9c0.4-0.4,0.7-0.9,1-1.4c0.2-0.5,0.3-1.1,0.3-1.7v-7.7c0.7,0.5,1.5,0.9,2.4,1
	c0.9,0.1,1.7,0.1,2.6-0.2c0.8-0.3,1.6-0.7,2.2-1.3c0.6-0.6,1.1-1.4,1.4-2.2c0.3-0.8,0.3-1.7,0.2-2.6c-0.1-0.9-0.5-1.7-1-2.4
	c-0.5-0.7-1.2-1.3-1.9-1.7C124.9,36.7,124.1,36.5,123.2,36.5L123.2,36.5z"/>
<path id="heart" class="st4" d="M58.7,19c-2.9,0-5.7,1.2-7.7,3.2l-2.1,2.1l-2.1-2.1c-2.1-2-4.8-3.1-7.7-3.1c-2.9,0-5.6,1.2-7.7,3.2
	s-3.2,4.8-3.2,7.7c0,2.9,1.1,5.7,3.1,7.7l2.1,2.1l15.5,15.5l15.5-15.5l2.1-2.1c1.5-1.5,2.6-3.5,3-5.6c0.4-2.1,0.2-4.3-0.6-6.3
	s-2.2-3.7-4-4.9S60.8,19,58.7,19z"/>
</svg>
