<svg xmlns="http://www.w3.org/2000/svg" xml:space="preserve" version="1.1" viewBox="0 0 260 150" width="260" height="150">
  <style>
    .st0,.st1,.st2{fill:#fffff2;stroke:#333336;stroke-width:2}.st1,.st2{fill:#d9bfff;stroke-linecap:round;stroke-linejoin:round}.st2{fill:none}
  </style>
  <path d="M128 56h105.3c3.3 0 6 2.7 6 6v45.6c0 3.3-2.7 6-6 6H128c-3.3 0-6-2.7-6-6V62c0-3.3 2.7-6 6-6z" class="st0"/>
  <path d="M198.3 75h-34c-1.8 0-3.3 1.5-3.3 3.3v19.4c0 1.8 1.5 3.3 3.3 3.3h34c1.8 0 3.3-1.5 3.3-3.3V78.3c-.1-1.8-1.5-3.3-3.3-3.3h0z" class="st1"/>
  <path d="M173.6 74.6v-4.2c0-.6.3-1.2.7-1.7.5-.4 1.1-.7 1.7-.7h9.7c.6 0 1.3.3 1.7.7.5.4.7 1.1.7 1.7v4.2" class="st2"/>
  <path d="M171.1 75.7v24.6" class="st2"/>
  <path d="M191.4 75.7v24.6" class="st2"/>
  <path d="M32 40h105.3c3.3 0 6 2.7 6 6v45.6c0 3.3-2.7 6-6 6H32c-3.3 0-6-2.7-6-6V46c0-3.3 2.7-6 6-6z" class="st0"/>
  <path fill="#d9bfff" fill-rule="evenodd" stroke="#333336" stroke-linecap="round" stroke-linejoin="round" stroke-width="2" d="M97.9 85.5c-.1-3.5-1.5-6.9-4-9.4s-5.9-3.9-9.4-3.9-6.9 1.4-9.4 3.9-4 5.8-4 9.4h26.8z" clip-rule="evenodd"/>
  <path d="M84.1 68.5c4.6 0 8.3-3.7 8.3-8.3S88.6 52 84.1 52c-4.6 0-8.3 3.7-8.3 8.3 0 4.5 3.7 8.2 8.3 8.2z" class="st1"/>
</svg>
