<svg xmlns="http://www.w3.org/2000/svg" xml:space="preserve" version="1.1" viewBox="0 0 260 150" width="260" height="150">
  <style>
    .st1{fill:#333336}
  </style>
  <path fill="#fffff2" stroke="#333336" stroke-linecap="round" stroke-linejoin="round" stroke-width="1.71" d="M183.6 62.1H67.2c-9 0-16.2 7.3-16.2 16.2 0 9 7.3 16.2 16.2 16.2h116.4c9 0 16.2-7.3 16.2-16.2s-7.2-16.2-16.2-16.2z"/>
  <path d="m82.8 72.6-3.8 5v.1l6.1-.8v2.7l-6.1-.7v.1l3.9 4.8-2.5 1.4-2.4-5.6h-.1l-2.6 5.7-2.3-1.4 3.8-4.9v-.1l-6 .8V77l5.9.8v-.1l-3.8-4.9 2.5-1.4 2.5 5.6h.1l2.5-5.6 2.3 1.2z" class="st1"/>
  <path d="m101.8 72.6-3.8 5v.1l6.1-.8v2.7l-6.1-.7v.1l3.9 4.8-2.5 1.4-2.4-5.6h-.1l-2.6 5.7-2.3-1.4 3.8-4.9v-.1l-6 .8V77l5.9.8v-.1l-3.8-4.9 2.5-1.4 2.5 5.6h.1l2.5-5.6 2.3 1.2z" class="st1"/>
  <path d="m120.7 72.6-3.8 5v.1l6.1-.8v2.7l-6.1-.7v.1l3.9 4.8-2.5 1.4-2.4-5.6h-.1l-2.6 5.7-2.3-1.4 3.8-4.9v-.1l-6 .8V77l5.9.8v-.1l-3.8-4.9 2.5-1.4 2.5 5.6h.1l2.5-5.6 2.3 1.2z" class="st1"/>
  <path d="M136.6 74.5c0 .6-.2 1.2-.5 1.6-.3.4-.9.9-1.6 1.3.9.4 1.5.9 2 1.5.4.6.7 1.3.7 2s-.2 1.3-.6 1.9c-.4.6-.9 1.1-1.6 1.4-.7.3-1.6.5-2.6.5s-1.9-.2-2.6-.5c-.7-.3-1.2-.8-1.6-1.4-.4-.6-.5-1.2-.5-1.9 0-.8.2-1.4.7-2 .5-.6 1.1-1 1.8-1.3-.7-.4-1.2-.8-1.5-1.3-.3-.5-.5-1-.5-1.8 0-.6.1-1.1.3-1.5.2-.4.5-.8.9-1.1.4-.3.9-.5 1.4-.7.5-.2 1-.2 1.6-.2.6 0 1.1.1 1.6.2s1 .4 1.3.7.7.6.9 1.1c.3.5.4.9.4 1.5zm-2 6.4c0-.5-.1-.9-.3-1.2-.2-.3-.5-.6-1-.8-.4-.2-.9-.4-1.6-.6-.3.2-.6.4-.8.6-.2.2-.4.5-.6.8-.1.3-.2.7-.2 1.1 0 .6.2 1.1.6 1.5.4.4.9.6 1.7.6.7 0 1.3-.2 1.7-.6.3-.3.5-.8.5-1.4zm-4-6.3c0 .4.1.7.3.9.2.2.4.5.8.6.3.2.8.4 1.2.5.5-.3.8-.7 1-1 .2-.3.3-.7.3-1.2s-.2-1-.5-1.3c-.3-.3-.8-.5-1.3-.5-.6 0-1 .2-1.3.5-.3.5-.5 1-.5 1.5zm19.3-.1c0 .6-.2 1.2-.5 1.6-.3.4-.9.9-1.6 1.3.9.4 1.5.9 2 1.5.4.6.7 1.3.7 2s-.2 1.3-.6 1.9c-.4.6-.9 1.1-1.6 1.4-.7.3-1.6.5-2.6.5s-1.9-.2-2.6-.5c-.7-.3-1.2-.8-1.6-1.4-.4-.6-.5-1.2-.5-1.9 0-.8.2-1.4.7-2 .5-.6 1.1-1 1.8-1.3-.7-.4-1.2-.8-1.5-1.3-.3-.5-.5-1-.5-1.8 0-.6.1-1.1.3-1.5.2-.4.5-.8.9-1.1.4-.3.9-.5 1.4-.7.5-.2 1-.2 1.6-.2.6 0 1.1.1 1.6.2s1 .4 1.3.7.7.6.9 1.1c.3.5.4.9.4 1.5zm-2 6.4c0-.5-.1-.9-.3-1.2-.2-.3-.5-.6-1-.8-.4-.2-.9-.4-1.6-.6-.3.2-.6.4-.8.6-.2.2-.4.5-.5.8-.1.3-.2.7-.2 1.1 0 .6.2 1.1.6 1.5.4.4.9.6 1.7.6.7 0 1.3-.2 1.7-.6.2-.3.4-.8.4-1.4zm-4-6.3c0 .4.1.7.3.9.2.2.4.5.8.6.3.2.8.4 1.2.5.5-.3.8-.7 1-1 .2-.3.3-.7.3-1.2s-.2-1-.5-1.3c-.3-.3-.8-.5-1.3-.5-.6 0-1 .2-1.3.5-.4.5-.5 1-.5 1.5zm14.5-3.5c.9 0 1.7.2 2.3.5.6.3 1.1.7 1.5 1.2.3.5.5 1.1.5 1.7 0 .5-.1 1-.3 1.5-.2.4-.5.8-.9 1-.4.3-.8.5-1.4.6.6.1 1.1.2 1.5.5.5.2.8.6 1.1 1 .3.4.4 1 .4 1.7s-.2 1.4-.6 2c-.4.6-1 1.1-1.7 1.5-.7.4-1.6.5-2.6.5-.9 0-1.7-.2-2.5-.5s-1.4-.8-1.9-1.4l1.5-1.3c.4.4.8.8 1.3 1 .5.2 1 .3 1.5.3.7 0 1.3-.2 1.8-.6.4-.4.7-.9.7-1.6 0-.5-.1-.9-.3-1.2-.2-.3-.5-.5-.8-.7-.4-.1-.8-.2-1.3-.2H157l.3-1.8h.8c.4 0 .8-.1 1.1-.2.3-.1.6-.4.8-.6.2-.3.3-.6.3-1.1 0-.6-.2-1-.6-1.3-.4-.3-.9-.5-1.5-.5-.5 0-1 .1-1.5.3-.4.2-.8.5-1.2.9l-1.3-1.4c.6-.6 1.2-1 1.9-1.3.7-.4 1.5-.5 2.3-.5zm14.7 0c.6 0 1.1.1 1.5.2.5.1.9.3 1.2.6l-1 1.6c-.3-.2-.6-.3-.9-.4-.3-.1-.6-.1-.9-.1-.6 0-1.1.2-1.5.6-.4.4-.8.9-1 1.6-.2.7-.4 1.5-.4 2.5v.8c0 1.5.1 2.7.5 3.4.3.7.9 1.1 1.7 1.1.7 0 1.1-.3 1.5-.8.3-.5.5-1.2.5-2 0-.6-.1-1.2-.2-1.5-.1-.4-.3-.7-.6-.8-.3-.2-.6-.3-.9-.3-.5 0-1 .1-1.4.4-.4.3-.8.7-1.1 1.1v-1.7c.4-.6.9-1 1.4-1.3s1.1-.4 1.7-.4c.7 0 1.3.2 1.9.5.6.3 1 .8 1.3 1.4.3.6.5 1.4.5 2.3 0 .9-.2 1.7-.6 2.4-.4.7-.9 1.3-1.6 1.7-.7.4-1.4.6-2.3.6-.8 0-1.6-.2-2.2-.5-.6-.3-1.1-.8-1.5-1.3-.4-.6-.6-1.2-.8-2-.2-.8-.3-1.6-.3-2.5 0-1.5.2-2.8.6-3.9.4-1.1 1-2 1.9-2.6.9-.4 1.9-.7 3-.7z" class="st1"/>
  <path fill="#ffd567" stroke="#333336" stroke-linejoin="round" stroke-width="1.71" d="M200.3 50.6c-.2-.3-.4-.4-.7-.4-.3 0-.6.2-.7.4L184 76.3c-.2.3-.2.6 0 .9.2.3.4.4.7.4h29.7c.3 0 .6-.2.7-.4.2-.3.2-.6 0-.9l-14.8-25.7z"/>
  <path d="m198.2 69.2-.9-8.5h4.4l-.9 8.5h-2.6zm1.4 5.9c-1.4 0-2.4-1.1-2.4-2.4 0-1.2 1-2.3 2.4-2.3 1.3 0 2.3 1.1 2.3 2.3 0 1.3-1.1 2.4-2.3 2.4z" class="st1"/>
</svg>
