<svg xmlns="http://www.w3.org/2000/svg" width="129" height="20" fill="none" viewBox="0 0 129 20">
  <path fill="#000" d="M37.7727 7h-1.4091c-.0833-.4053-.2291-.76136-.4375-1.06818-.2045-.30682-.4545-.5644-.75-.77273-.2916-.21212-.6155-.37121-.9716-.47727-.356-.10606-.7272-.15909-1.1136-.15909-.7045 0-1.3428.17803-1.9148.53409-.5681.35606-1.0208.88068-1.3579 1.57386-.3334.69318-.5 1.54356-.5 2.55114 0 1.00758.1666 1.85798.5 2.55118.3371.6931.7898 1.2178 1.3579 1.5738.572.3561 1.2103.5341 1.9148.5341.3864 0 .7576-.053 1.1136-.1591.3561-.106.68-.2632.9716-.4716.2955-.2121.5455-.4716.75-.7784.2084-.3106.3542-.6666.4375-1.0682h1.4091c-.106.5947-.2992 1.1269-.5795 1.5966s-.6288.8693-1.0455 1.1989c-.4166.3257-.8844.5739-1.4034.7443-.5151.1705-1.0663.2557-1.6534.2557-.9924 0-1.875-.2424-2.6477-.7273-.7727-.4848-1.3807-1.1742-1.8239-2.0682-.4432-.8939-.6648-1.9545-.6648-3.18178 0-1.22727.2216-2.28788.6648-3.18182.4432-.89394 1.0512-1.58333 1.8239-2.06818.7727-.48485 1.6553-.72727 2.6477-.72727.5871 0 1.1383.08522 1.6534.25568.519.17045.9868.42045 1.4034.75.4167.32575.7652.72348 1.0455 1.19318.2803.46591.4735.9981.5795 1.59659Zm5.6407 8.1818c-.7879 0-1.4792-.1875-2.0739-.5625-.5909-.375-1.053-.8996-1.3864-1.5738-.3295-.6743-.4943-1.4622-.4943-2.3637 0-.90907.1648-1.70263.4943-2.38066.3334-.67803.7955-1.20455 1.3864-1.57955.5947-.375 1.286-.5625 2.0739-.5625.7878 0 1.4772.1875 2.0681.5625.5947.375 1.0569.90152 1.3864 1.57955.3333.67803.5 1.47159.5 2.38066 0 .9015-.1667 1.6894-.5 2.3637-.3295.6742-.7917 1.1988-1.3864 1.5738-.5909.375-1.2803.5625-2.0681.5625Zm0-1.2045c.5984 0 1.0909-.1534 1.4772-.4603.3864-.3068.6724-.7102.858-1.2102.1856-.5.2784-1.0416.2784-1.625 0-.5833-.0928-1.12688-.2784-1.63066-.1856-.50379-.4716-.91099-.858-1.22159-.3863-.31061-.8788-.46591-1.4772-.46591-.5985 0-1.091.1553-1.4773.46591-.3864.3106-.6724.7178-.858 1.22159-.1856.50378-.2784 1.04736-.2784 1.63066 0 .5834.0928 1.125.2784 1.625s.4716.9034.858 1.2102c.3863.3069.8788.4603 1.4773.4603ZM50.7557 9.75V15h-1.3409V6.27273h1.2954v1.36363h.1137c.2045-.44318.5151-.79924.9318-1.06818.4166-.27273.9545-.40909 1.6136-.40909.5909 0 1.108.12121 1.5512.36364.4431.23863.7878.60227 1.034 1.09091.2463.48484.3694 1.09848.3694 1.84091V15H54.983V9.54545c0-.6856-.1781-1.21969-.5341-1.60227-.3561-.38636-.8447-.57954-1.4659-.57954-.4281 0-.8107.0928-1.1478.27841-.3333.1856-.5966.45643-.7897.8125-.1932.35606-.2898.78787-.2898 1.29545Zm11.8139-3.47727v1.13636h-4.5227V6.27273h4.5227Zm-3.2045-2.09091h1.3409V12.5c0 .3788.0549.6629.1647.8523.1137.1856.2576.3106.4319.375.178.0606.3655.0909.5625.0909.1477 0 .2689-.0076.3636-.0227.0947-.019.1704-.0341.2273-.0455l.2727 1.2045c-.0909.0341-.2178.0682-.3807.1023-.1629.0379-.3693.0568-.6193.0568-.3788 0-.75-.0814-1.1136-.2443-.3599-.1629-.6591-.411-.8978-.7443-.2348-.3333-.3522-.7538-.3522-1.2614V4.18182Zm7.7897 11.02268c-.553 0-1.0549-.1041-1.5057-.3125-.4507-.2121-.8087-.517-1.0738-.9147-.2652-.4015-.3977-.8864-.3977-1.4546 0-.5.0984-.9053.2954-1.2159.197-.3144.4602-.5606.7898-.7386.3295-.178.6932-.3106 1.0909-.3977.4015-.091.8049-.1629 1.2102-.21595.5303-.06819.9602-.11932 1.2898-.15341.3333-.03788.5758-.10038.7273-.1875.1553-.08712.2329-.23864.2329-.45455v-.04545c0-.56061-.1534-.99622-.4602-1.30682-.303-.31061-.7633-.46591-1.3807-.46591-.6401 0-1.142.14015-1.5057.42045-.3636.28031-.6193.57955-.767.89773l-1.2727-.45454c.2272-.53031.5303-.94319.909-1.23864.3826-.29924.7993-.50758 1.25-.625.4546-.12121.9016-.18182 1.341-.18182.2803 0 .6022.03409.9659.10227.3674.0644.7216.19887 1.0625.40341.3447.20455.6306.51326.8579.92614.2273.41288.3409.96591.3409 1.65909V15h-1.3409v-1.1818h-.0682c-.0909.1894-.2424.392-.4545.6079-.2121.2159-.4943.3997-.8466.5512-.3523.1515-.7822.2272-1.2898.2272ZM67.3594 14c.5303 0 .9772-.1042 1.3409-.3125.3674-.2083.6439-.4773.8295-.8068.1894-.3296.2841-.6762.2841-1.0398v-1.2273c-.0568.0682-.1818.1307-.375.1875-.1894.0531-.4091.1004-.6591.1421-.2462.0379-.4867.072-.7216.1023-.231.0265-.4185.0492-.5625.0681-.3484.0455-.6742.1194-.9772.2216-.2993.0985-.5417.2481-.7273.4489-.1818.197-.2727.4659-.2727.8068 0 .4659.1723.8182.517 1.0568.3485.2349.7898.3523 1.3239.3523Zm6.2429 1V6.27273h1.3409V15h-1.3409Zm.6818-10.18182c-.2614 0-.4868-.08901-.6761-.26704-.1857-.17803-.2785-.39205-.2785-.64205s.0928-.46401.2785-.64204C73.7973 3.08902 74.0227 3 74.2841 3s.4848.08902.6704.26705c.1894.17803.2841.39204.2841.64204 0 .25-.0947.46402-.2841.64205-.1856.17803-.409.26704-.6704.26704ZM78.7401 9.75V15h-1.341V6.27273h1.2955v1.36363h.1136c.2046-.44318.5152-.79924.9319-1.06818.4166-.27273.9545-.40909 1.6136-.40909.5909 0 1.1079.12121 1.5511.36364.4432.23863.7879.60227 1.0341 1.09091.2462.48484.3693 1.09848.3693 1.84091V15h-1.3409V9.54545c0-.6856-.178-1.21969-.5341-1.60227-.356-.38636-.8447-.57954-1.4659-.57954-.428 0-.8106.0928-1.1477.27841-.3333.1856-.5966.45643-.7898.8125-.1932.35606-.2897.78787-.2897 1.29545Zm11.6775 5.4318c-.8409 0-1.5663-.1856-2.1761-.5568-.6061-.375-1.0739-.8977-1.4034-1.5682-.3258-.6742-.4887-1.4583-.4887-2.3523 0-.89389.1629-1.68177.4887-2.36359.3295-.68561.7878-1.2197 1.375-1.60227.5909-.38637 1.2803-.57955 2.0681-.57955.4546 0 .9035.07576 1.3466.22727.4432.15152.8466.39773 1.2103.73864.3636.33712.6534.78409.8693 1.34091.2159.55682.3238 1.24242.3238 2.05679v.5682H87.304V9.93182h5.3636c0-.49243-.0985-.93182-.2954-1.31818-.1932-.38637-.4697-.69129-.8296-.91478-.356-.22348-.7765-.33522-1.2614-.33522-.534 0-.9962.13257-1.3863.39772-.3864.26137-.6837.60228-.8921 1.02273-.2083.42046-.3125.87121-.3125 1.35231v.7727c0 .6591.1137 1.2178.3409 1.6761.2311.4546.5512.8012.9603 1.0398.4091.2348.8844.3523 1.4261.3523.3523 0 .6705-.0493.9546-.1478.2878-.1022.5359-.2537.7443-.4545.2083-.2045.3693-.4583.4829-.7614l1.2955.3637c-.1364.4394-.3655.8257-.6875 1.1591-.322.3295-.7197.5871-1.1932.7727-.4735.1818-1.0057.2727-1.5966.2727ZM96.071 15V6.27273h1.2955v1.31818h.0909c.1591-.43182.447-.7822.8636-1.05114.4167-.26894.8864-.40341 1.4091-.40341.0985 0 .2216.0019.3689.00569.148.00378.26.00947.336.01704v1.36364c-.046-.01137-.15-.02841-.313-.05114-.1589-.02651-.3275-.03977-.5055-.03977-.4243 0-.8031.08901-1.1364.26704-.3295.17425-.5909.41667-.7841.72728-.1894.30681-.2841.65719-.2841 1.05113V15H96.071Zm12.135-6.77273-1.205.34091c-.075-.20076-.187-.39583-.335-.58523-.144-.19318-.341-.35227-.591-.47727-.25-.125-.57-.1875-.96-.1875-.534 0-.979.12311-1.335.36932-.352.24242-.529.55114-.529.92614 0 .33333.122.59659.364.78977.242.19318.621.35417 1.136.48295l1.296.31814c.78.1894 1.362.4792 1.744.8694.383.3863.574.8844.574 1.4943 0 .5-.144.947-.432 1.3409-.284.3939-.682.7045-1.193.9318-.511.2273-1.106.3409-1.784.3409-.89 0-1.627-.1932-2.21-.5795-.584-.3864-.953-.9508-1.108-1.6932l1.273-.3182c.121.4697.35.822.687 1.0568.341.2349.786.3523 1.335.3523.625 0 1.121-.1326 1.489-.3977.371-.269.557-.5909.557-.9659 0-.3031-.106-.5569-.318-.7614-.213-.2083-.538-.3636-.978-.4659l-1.454-.3409c-.8-.1894-1.387-.483-1.762-.8807-.371-.40152-.556-.90341-.556-1.50568 0-.49243.138-.92803.414-1.30682.281-.37879.661-.67614 1.142-.89205.485-.2159 1.034-.32386 1.648-.32386.864 0 1.542.18939 2.034.56818.496.37879.849.87879 1.057 1.5Z"/>
  <path fill="#80808F" stroke="#80808F" stroke-width=".0892082" d="M.0446041.0446041h8.83985v8.83985h-8.83985z"/>
  <path fill="#80808F" stroke="#80808F" stroke-width=".0892082" d="M.0446651 11.0651h8.83985v8.83985h-8.83985z"/>
  <path fill="#80808F" stroke="#80808F" stroke-width=".0892082" d="M11.0652 11.0651h8.83985v8.83985H11.0652z"/>
  <path stroke="#80808F" stroke-width="2.04654" d="M15.5103 0v8.97943"/>
  <path stroke="#80808F" stroke-width="2.04654" d="M11.0207 4.49023h8.9794"/>
</svg>
