<svg xmlns="http://www.w3.org/2000/svg" width="128" height="23" fill="none" viewBox="0 0 128 23">
  <path fill="#000" d="M27.4091 4.36364h1.6818l3.9546 9.65906h.1363l3.9546-9.65906h1.6818V16H37.5V7.15909h-.1136L33.75 16h-1.2727l-3.6364-8.84091h-.1136V16h-1.3182V4.36364Zm17.598 11.81816c-.7879 0-1.4792-.1875-2.0739-.5625-.5909-.375-1.053-.8996-1.3863-1.5738-.3296-.6743-.4943-1.4622-.4943-2.3637 0-.9091.1647-1.70263.4943-2.38066.3333-.67803.7954-1.20455 1.3863-1.57955.5947-.375 1.286-.5625 2.0739-.5625s1.4773.1875 2.0682.5625c.5947.375 1.0568.90152 1.3863 1.57955.3334.67803.5 1.47156.5 2.38066 0 .9015-.1666 1.6894-.5 2.3637-.3295.6742-.7916 1.1988-1.3863 1.5738-.5909.375-1.2803.5625-2.0682.5625Zm0-1.2045c.5985 0 1.0909-.1534 1.4773-.4603.3863-.3068.6723-.7102.8579-1.2102.1856-.5.2784-1.0416.2784-1.625 0-.5833-.0928-1.1269-.2784-1.6307-.1856-.50375-.4716-.91095-.8579-1.22155-.3864-.31061-.8788-.46591-1.4773-.46591s-1.0909.1553-1.4773.46591c-.3863.3106-.6723.7178-.8579 1.22155-.1856.5038-.2784 1.0474-.2784 1.6307 0 .5834.0928 1.125.2784 1.625s.4716.9034.8579 1.2102c.3864.3069.8788.4603 1.4773.4603Zm7.3423-4.2273V16h-1.3409V7.27273h1.2955v1.36363h.1136c.2046-.44318.5152-.79924.9318-1.06818.4167-.27273.9546-.40909 1.6137-.40909.5909 0 1.1079.12121 1.5511.36364.4432.23863.7879.60227 1.0341 1.09091.2462.48484.3693 1.09848.3693 1.84086V16h-1.3409v-5.4545c0-.68565-.178-1.21974-.5341-1.60232-.356-.38636-.8447-.57954-1.4659-.57954-.428 0-.8106.0928-1.1477.27841-.3334.1856-.5966.45643-.7898.8125-.1932.35606-.2898.78785-.2898 1.29545ZM60.3679 16V7.27273h1.3409V16h-1.3409Zm.6818-10.18182c-.2613 0-.4867-.08901-.6761-.26704-.1856-.17803-.2784-.39205-.2784-.64205s.0928-.46401.2784-.64204C60.563 4.08902 60.7884 4 61.0497 4c.2614 0 .4849.08902.6705.26705.1894.17803.2841.39204.2841.64204 0 .25-.0947.46402-.2841.64205-.1856.17803-.4091.26704-.6705.26704Zm6.9105 1.45455v1.13636h-4.5227V7.27273h4.5227Zm-3.2045-2.09091h1.3409V13.5c0 .3788.0549.6629.1648.8523.1136.1856.2575.3106.4318.375.178.0606.3655.0909.5625.0909.1477 0 .2689-.0076.3636-.0227.0947-.019.1705-.0341.2273-.0455l.2727 1.2045c-.0909.0341-.2178.0682-.3807.1023-.1628.0379-.3693.0568-.6193.0568-.3788 0-.75-.0814-1.1136-.2443-.3599-.1629-.6591-.411-.8977-.7443-.2349-.3333-.3523-.7538-.3523-1.2614V5.18182ZM73.429 16.1818c-.7879 0-1.4792-.1875-2.0739-.5625-.5909-.375-1.053-.8996-1.3863-1.5738-.3296-.6743-.4944-1.4622-.4944-2.3637 0-.9091.1648-1.70263.4944-2.38066.3333-.67803.7954-1.20455 1.3863-1.57955.5947-.375 1.286-.5625 2.0739-.5625s1.4773.1875 2.0682.5625c.5947.375 1.0568.90152 1.3863 1.57955.3334.67803.5 1.47156.5 2.38066 0 .9015-.1666 1.6894-.5 2.3637-.3295.6742-.7916 1.1988-1.3863 1.5738-.5909.375-1.2803.5625-2.0682.5625Zm0-1.2045c.5985 0 1.0909-.1534 1.4772-.4603.3864-.3068.6724-.7102.858-1.2102.1856-.5.2784-1.0416.2784-1.625 0-.5833-.0928-1.1269-.2784-1.6307-.1856-.50375-.4716-.91095-.858-1.22155-.3863-.31061-.8787-.46591-1.4772-.46591s-1.0909.1553-1.4773.46591c-.3864.3106-.6723.7178-.8579 1.22155-.1857.5038-.2785 1.0474-.2785 1.6307 0 .5834.0928 1.125.2785 1.625.1856.5.4715.9034.8579 1.2102.3864.3069.8788.4603 1.4773.4603ZM79.4304 16V7.27273h1.2955v1.31818h.0909c.1591-.43182.4469-.7822.8636-1.05114.4167-.26894.8864-.40341 1.4091-.40341.0985 0 .2216.0019.3693.00569.1477.00378.2595.00947.3352.01704v1.36364c-.0454-.01137-.1496-.02841-.3125-.05114-.1591-.02651-.3276-.03977-.5056-.03977-.4243 0-.8031.08901-1.1364.26704-.3296.17425-.5909.41667-.7841.72728-.1894.30681-.2841.65716-.2841 1.05116V16h-1.3409Z"/>
  <path fill="url(#a)" d="M18.5121 4.91809 16.338 3.67271 11.3742.830657l-.1544-.08879c-.8138-.463114-1.81135-.463114-2.6251 0l-.15442.089562L1.46062 4.8293l-.15442.08956C.496676 5.38237-.00376799 6.24284-.00634766 7.17567v8.35013c.00278191.933.50313366 1.7936 1.31254766 2.2576L8.44259 21.87c.52299.3003 1.19022.1232 1.49554-.3968.14527-.2496.18467-.5469.10937-.8256-.07526-.2788-.25894-.5159-.51009-.6584l-6.97966-3.9971c-.23193-.1322-.37537-.3785-.376-.6454V7.35479c.00063-.26698.14407-.51322.376-.64546l1.23534-.70801 5.7366-3.29218c.23218-.13205.51671-.13205.74891 0l6.982 3.99864c.2309.13274.3735.37839.3745.6447v7.99732c-.0007.2669-.1441.5132-.376.6454l-2.3619 1.3527-1.1921-1.7974c1.202-1.0646 1.8903-2.593 1.8909-4.1986 0-3.11384-2.5533-5.64706-5.69262-5.64706-3.1393 0-5.69259 2.53322-5.69259 5.64706 0 3.1138 2.55329 5.647 5.69259 5.647.65492.0006 1.30502-.1117 1.92172-.332l1.8105 2.7301c.0283.0417.059.0816.0919.1197l.0193.0193c.0382.0412.0798.0792.1243.1135.0108.0085.0209.0178.0325.0263.0489.0353.1006.0668.1544.0942l.037.0162c.0482.0215.0977.0398.1483.0548l.034.0108c.0574.0146.1161.0241.1752.0286h.0988c.0332 0 .0664-.0039.0989-.007h.0455c.0624-.0086.1238-.0225.1838-.0417.0162-.0046.0316-.0116.0478-.0177.0477-.0174.0942-.0381.139-.0618.0101-.0054.0216-.0085.0317-.0147l3.4141-1.951c.8103-.4647 1.3108-1.3267 1.3126-2.2607V7.1749c-.0026-.93283-.503-1.7933-1.3126-2.25681ZM6.39965 11.3519c-.01189-1.41975.83419-2.70631 2.14246-3.25788 1.30827-.55157 2.82009-.25909 3.82819.74062 1.0082.99971 1.3134 2.50896.7728 3.82186-.5405 1.3129-1.8199 2.1698-3.23972 2.1698-1.92591.0055-3.49309-1.5485-3.50373-3.4744Z"/>
  <path fill="url(#b)" d="M18.5121 4.91809 16.338 3.67271 11.3742.830657l-.1544-.08879c-.8138-.463114-1.81135-.463114-2.6251 0l-.15442.089562L1.46062 4.8293l-.15442.08956C.496676 5.38237-.00376799 6.24284-.00634766 7.17567v8.35013c.00278191.933.50313366 1.7936 1.31254766 2.2576L8.44259 21.87c.52299.3003 1.19022.1232 1.49554-.3968.14527-.2496.18467-.5469.10937-.8256-.07526-.2788-.25894-.5159-.51009-.6584l-6.97966-3.9971c-.23193-.1322-.37537-.3785-.376-.6454V7.35479c.00063-.26698.14407-.51322.376-.64546l1.23534-.70801 5.7366-3.29218c.23218-.13205.51671-.13205.74891 0l6.982 3.99864c.2309.13274.3735.37839.3745.6447v7.99732c-.0007.2669-.1441.5132-.376.6454l-2.3619 1.3527-1.1921-1.7974c1.202-1.0646 1.8903-2.593 1.8909-4.1986 0-3.11384-2.5533-5.64706-5.69262-5.64706-3.1393 0-5.69259 2.53322-5.69259 5.64706 0 3.1138 2.55329 5.647 5.69259 5.647.65492.0006 1.30502-.1117 1.92172-.332l1.8105 2.7301c.0283.0417.059.0816.0919.1197l.0193.0193c.0382.0412.0798.0792.1243.1135.0108.0085.0209.0178.0325.0263.0489.0353.1006.0668.1544.0942l.037.0162c.0482.0215.0977.0398.1483.0548l.034.0108c.0574.0146.1161.0241.1752.0286h.0988c.0332 0 .0664-.0039.0989-.007h.0455c.0624-.0086.1238-.0225.1838-.0417.0162-.0046.0316-.0116.0478-.0177.0477-.0174.0942-.0381.139-.0618.0101-.0054.0216-.0085.0317-.0147l3.4141-1.951c.8103-.4647 1.3108-1.3267 1.3126-2.2607V7.1749c-.0026-.93283-.503-1.7933-1.3126-2.25681ZM6.39965 11.3519c-.01189-1.41975.83419-2.70631 2.14246-3.25788 1.30827-.55157 2.82009-.25909 3.82819.74062 1.0082.99971 1.3134 2.50896.7728 3.82186-.5405 1.3129-1.8199 2.1698-3.23972 2.1698-1.92591.0055-3.49309-1.5485-3.50373-3.4744Z"/>
  <path fill="url(#c)" d="m18.5121 4.91789-2.1742-1.24538-3.0327-1.73565c-.6971-.39818-1.5497-.411-2.2584-.03397l-1.51714.80606c.23218-.13206.51674-.13206.74894 0l6.982 3.99864c.2308.13273.3735.37839.3744.64469v7.99732c-.0003.267-.1438.5134-.376.6454l-2.3618 1.3527.3683.5891c.4409.7028 1.3584.9316 2.0777.5181l1.1689-.6686c.8116-.4634 1.3126-1.3262 1.3126-2.2607V7.1747c-.0012-.93322-.502-1.79436-1.3126-2.25681Z"/>
  <path fill="url(#d)" d="M17.635 7.35459v3.87971h2.1897V7.1747c-.0012-.93322-.502-1.79436-1.3126-2.25681l-2.1742-1.24538-3.0327-1.73565c-.6971-.39818-1.5497-.411-2.2584-.03397l-1.51714.80606c.2323-.1316.51664-.1316.74894 0l6.982 3.99863c.2315.13315.3743.37988.3744.64701Z"/>
  <path fill="url(#e)" d="M17.6349 11.8584v3.4906c-.0003.2671-.1438.5135-.376.6455l-2.3618 1.3527.3683.5891c.4409.7028 1.3584.9316 2.0777.518l1.1689-.6686c.8115-.4634 1.3125-1.3261 1.3126-2.2607v-3.6666h-2.1897Z" opacity=".9"/>
  <path fill="url(#f)" d="m14.7287 17.095-1.0245-1.5442c-.5488.49-1.1872.8691-1.88 1.1164l1.0894 1.6438c.6151-.3922 1.2201-.7976 1.8151-1.216Z" opacity=".9"/>
  <defs>
    <linearGradient id="a" x1="13.8877" x2="4.1541" y1="3.15078" y2="20.0089" gradientUnits="userSpaceOnUse">
      <stop stop-color="#FF980E"/>
      <stop offset=".21" stop-color="#FF7139"/>
      <stop offset=".36" stop-color="#FF5854"/>
      <stop offset=".46" stop-color="#FF4F5E"/>
      <stop offset=".69" stop-color="#FF3750"/>
      <stop offset=".86" stop-color="#F92261"/>
      <stop offset="1" stop-color="#F5156C"/>
    </linearGradient>
    <linearGradient id="b" x1="13.8877" x2="4.1541" y1="3.15078" y2="20.0089" gradientUnits="userSpaceOnUse">
      <stop stop-color="#FFF44F" stop-opacity=".8"/>
      <stop offset=".09" stop-color="#FFF44F" stop-opacity=".7"/>
      <stop offset=".75" stop-color="#FFF44F" stop-opacity="0"/>
    </linearGradient>
    <linearGradient id="c" x1="14.6772" x2="14.6772" y1="22.7214" y2="1.83495" gradientUnits="userSpaceOnUse">
      <stop stop-color="#3A8EE6"/>
      <stop offset=".24" stop-color="#5C79F0"/>
      <stop offset=".63" stop-color="#9059FF"/>
      <stop offset="1" stop-color="#C139E6"/>
    </linearGradient>
    <linearGradient id="d" x1="11.1263" x2="19.8067" y1="1.75934" y2="10.4397" gradientUnits="userSpaceOnUse">
      <stop stop-color="#6E008B" stop-opacity=".5"/>
      <stop offset=".5" stop-color="#C846CB" stop-opacity="0"/>
    </linearGradient>
    <linearGradient id="e" x1="18.989" x2="14.9126" y1="12.4969" y2="16.5733" gradientUnits="userSpaceOnUse">
      <stop offset=".14" stop-color="#6A2BEA" stop-opacity="0"/>
      <stop offset=".34" stop-color="#642DE4" stop-opacity=".03"/>
      <stop offset=".55" stop-color="#5131D3" stop-opacity=".12"/>
      <stop offset=".76" stop-color="#3139B7" stop-opacity=".27"/>
      <stop offset=".98" stop-color="#054490" stop-opacity=".48"/>
      <stop offset="1" stop-color="#00458B" stop-opacity=".5"/>
    </linearGradient>
    <linearGradient id="f" x1="12.4488" x2="13.6306" y1="16.0039" y2="17.4129" gradientUnits="userSpaceOnUse">
      <stop stop-color="#960E18" stop-opacity=".6"/>
      <stop offset=".19" stop-color="#AC1624" stop-opacity=".48"/>
      <stop offset=".58" stop-color="#E42C41" stop-opacity=".16"/>
      <stop offset=".75" stop-color="#FF3750" stop-opacity="0"/>
    </linearGradient>
  </defs>
</svg>
