<svg xmlns="http://www.w3.org/2000/svg" width="129" height="22" fill="none" viewBox="0 0 129 22">
  <path fill="url(#a)" d="M19.0308 4.75981 10.9399.233542C10.6557.0802811 10.3374 0 10.014 0c-.32342 0-.6417.0802811-.9259.233542L.968688 4.75981c-.293113.16405-.537185.40233-.707343.69057-.1701574.28823-.26031634.6161-.26128817.9502v9.02422c-.00262929.3349.08601767.6641.25654517.953.170528.2889.416583.5265.712086.6878l8.090922 4.498c.28368.1695.60909.2576.94014.2546.33055-.0008.65495-.0887.94015-.2546l8.0909-4.498c.2931-.164.5372-.4023.7074-.6906.1701-.2882.2603-.6161.2612-.9502V6.40058c.0084-.33591-.0778-.66747-.249-.95735-.1711-.28989-.4203-.52657-.7196-.68342Z"/>
  <path fill="#20133A" d="m4.49197 13.5231-.47662.2841c-.08528.0479-.1603.1125-.22068.1901-.06039.0776-.10492.1665-.13102.2617-.0261.0952-.03323.1947-.02098.2928.01225.098.04364.1925.09232.2781.06261.1187.15545.2181.26885.2881.11341.0699.24323.1078.37598.1097.12618-.0011.25058-.0302.36447-.0853l.47661-.284c.08528-.0479.1603-.1126.22069-.1901.06038-.0776.10492-.1666.13102-.2618.02609-.0952.03322-.1947.02097-.2927s-.04363-.1926-.09232-.2782c-.0433-.0902-.10449-.1705-.17976-.2357-.07527-.0652-.16299-.114-.25771-.1433-.09471-.0293-.19437-.0386-.29275-.0271-.09839.0114-.19339.0433-.27907.0936ZM7.4077 11.847l-.98125.5682c-.08529.0479-.16031.1125-.22069.19-.06038.0776-.10492.1666-.13102.2618-.02609.0952-.03323.1947-.02098.2927.01225.098.04364.1926.09233.2782.06261.1186.15544.2181.26885.288.1134.07.24323.1079.37597.1097.12618-.0011.25059-.0302.36447-.0852l.98126-.5682c.08528-.0479.1603-.1125.22069-.1901.06038-.0775.10492-.1665.13102-.2617.02609-.0952.03322-.1947.02097-.2927-.01225-.0981-.04363-.1926-.09232-.2782-.0433-.0903-.10449-.1705-.17976-.2357-.07527-.0652-.163-.114-.25771-.1434-.09471-.0293-.19437-.0385-.29275-.0271-.09839.0115-.19339.0434-.27908.0937Zm3.9531-1.3892c-.0395-.0806-.0946-.1524-.1621-.2109-.0674-.0586-.1458-.1028-.2304-.13V4.40377c.0003-.10083-.019-.20075-.0569-.29398-.0379-.09323-.0936-.17794-.164-.24924s-.154-.12779-.246-.1662c-.092-.03842-.1906-.058-.2901-.05763-.098.00033-.195.0206-.28511.05962-.09014.03902-.17162.09599-.23961.16754-.06799.07154-.1211.1562-.15618.24894-.03508.09275-.05142.19169-.04803.29095v5.73863c-.08466.0272-.16304.0715-.23047.13-.06744.0586-.12254.1303-.16204.2109-.05267.0999-.08254.2104-.08739.3235-.00485.1131.01543.2259.05936.3299-.04393.1041-.06421.2169-.05936.33s.03472.2236.08739.3235c.0395.0806.0946.1523.16204.2109.06743.0585.14581.1027.23047.13v5.7386c0 .2035.07975.3986.22171.5424.14196.1439.33452.2247.53522.2247.2008 0 .3933-.0808.5353-.2247.142-.1438.2217-.3389.2217-.5424v-5.767c.0847-.0273.163-.0715.2305-.13.0674-.0586.1225-.1303.162-.2109.0527-.0999.0825-.2104.0874-.3235.0049-.1131-.0154-.2259-.0594-.33.0649-.216.0448-.4491-.056-.6505ZM13.27 8.49469l-.9812.56819c-.0853.04789-.1603.1125-.2207.19008-.0604.07757-.1049.16655-.131.26174-.0261.0952-.0333.19471-.021.29273.0122.09801.0436.19257.0923.27817.0626.1186.1555.2181.2689.288.1134.07.2432.1079.3759.1097.1262-.001.2506-.0301.3645-.0852l.9813-.56817c.0852-.04789.1603-.11251.2206-.19008.0604-.07758.105-.16655.1311-.26175.0261-.0952.0332-.1947.0209-.29272-.0122-.09802-.0436-.19259-.0923-.27818-.0433-.09026-.1045-.1705-.1797-.23571-.0753-.06522-.163-.11402-.2577-.14334-.0948-.02932-.1944-.03855-.2928-.0271-.0984.01145-.1934.04333-.2791.09364Zm2.3242.2841c.1262-.00109.2506-.03018.3645-.08523l.4766-.28409c.0852-.04824.1601-.11305.2205-.19071.0604-.07767.105-.16666.1313-.26186.0264-.0952.0339-.19473.0222-.29289-.0118-.09815-.0425-.19299-.0905-.27907-.048-.08607-.1124-.16169-.1893-.2225s-.165-.10562-.259-.13185c-.0941-.02623-.1924-.03337-.2892-.021-.0968.01236-.1902.04399-.275.09305l-.4766.2841c-.0852.04789-.1603.1125-.2207.19007-.0603.07758-.1049.16656-.131.26175-.0261.0952-.0332.19471-.0209.29272.0122.09802.0436.19259.0923.27819.0642.11515.1581.21038.2717.27546.1137.06507.2426.09752.3731.09386Zm.8411 5.02841-.4766-.2841c-.171-.0968-.3728-.1211-.5613-.0675-.1886.0536-.3485.1806-.4449.3534-.0964.1727-.1213.3771-.0693.5685.0519.1913.1765.354.3465.4524l.4766.2841c.1139.0551.2383.0842.3645.0853.1328-.0019.2626-.0398.376-.1097.1134-.07.2062-.1694.2688-.2881.0502-.0829.0828-.1754.0958-.2717.013-.0964.0061-.1944-.0202-.2879-.0264-.0935-.0716-.1804-.1329-.2552-.0613-.0749-.1372-.136-.223-.1795Zm-2.4391-1.392-.9813-.5682c-.0847-.0491-.1782-.0807-.275-.0931-.0968-.0123-.195-.0052-.2891.021-.0941.0263-.1821.0711-.2591.1319-.0769.0608-.1412.1364-.1892.2225-.048.0861-.0788.1809-.0905.279-.0118.0982-.0042.1977.0221.2929s.071.1842.1314.2619c.0604.0777.1353.1425.2205.1907l.9812.5682c.1139.055.2383.0841.3645.0852.1327-.0019.2626-.0397.376-.1097.1134-.0699.2062-.1694.2688-.288.051-.0827.0844-.1753.0978-.2718.0135-.0965.0068-.1948-.0196-.2886-.0265-.0937-.072-.1808-.1338-.2556-.0618-.0747-.1383-.1355-.2247-.1783ZM6.42645 9.80152l.98125.56818c.11389.0551.2383.0841.36447.0852.13275-.0018.26258-.0397.37598-.1097.1134-.0699.20624-.1694.26885-.288.04869-.0856.08007-.18017.09232-.27818.01225-.09802.00512-.19753-.02097-.29273-.0261-.09519-.07064-.18417-.13102-.26174-.06039-.07758-.13541-.14219-.22069-.19008l-.98126-.56818c-.08447-.04934-.1778-.08115-.27453-.09356-.09673-.01241-.19493-.00518-.28887.02126-.09395.02644-.18176.07157-.25831.13276-.07656.06119-.14032.13721-.18758.22363-.09392.17848-.11721.38652-.06513.58179.05209.19527.17562.3631.34549.46935ZM5.2209 7.38674l-.47661-.2841c-.08471-.04906-.17815-.08069-.27496-.09305-.09681-.01237-.19507-.00523-.28915.021-.09408.02623-.18211.07104-.25905.13185-.07694.06081-.14126.13643-.18927.2225-.04801.08608-.07877.18092-.0905.27907-.01173.09816-.00421.19769.02213.29289.02634.0952.07099.18419.13137.26186.06039.07766.13532.14247.22049.19071l.47662.28409c.11388.05505.23829.08414.36446.08523.13275-.00187.26258-.03975.37598-.1097.11341-.06994.20624-.1694.26885-.28803.0477-.08353.07832-.17594.09002-.27171.01169-.09578.00424-.19296-.02192-.28575-.02617-.0928-.07051-.1793-.13037-.25435-.05987-.07506-.13404-.13713-.21809-.18251Z"/>
  <path fill="#000" d="M28.4091 16V4.36364h3.9318c.9091 0 1.6553.1553 2.2386.46591.5834.30681 1.0152.72916 1.2955 1.26704.2803.53788.4205 1.14962.4205 1.83523 0 .6856-.1402 1.29356-.4205 1.82386-.2803.53032-.7102.94702-1.2898 1.25002-.5795.2992-1.32.4488-2.2216.4488h-3.1818v-1.2727h3.1364c.6212 0 1.1212-.0909 1.5-.27271.3826-.18182.6591-.43939.8295-.77273.1743-.33712.2614-.73863.2614-1.20454 0-.46591-.0871-.87311-.2614-1.22159-.1742-.34849-.4526-.61743-.8352-.80682-.3826-.19318-.8883-.28977-1.517-.28977h-2.4773V16h-1.4091Zm5.4773-5.2273L36.75 16h-1.6364l-2.8181-5.2273h1.5909Zm8.1406 5.4091c-.8409 0-1.5663-.1856-2.1761-.5568-.6061-.375-1.0739-.8977-1.4035-1.5682-.3257-.6742-.4886-1.4583-.4886-2.3523 0-.8939.1629-1.6818.4886-2.36359.3296-.68561.7879-1.2197 1.375-1.60227.591-.38637 1.2803-.57955 2.0682-.57955.4546 0 .9034.07576 1.3466.22727.4432.15152.8466.39773 1.2102.73864.3637.33712.6535.78409.8694 1.34091.2159.55679.3238 1.24239.3238 2.05679v.5682h-6.7272v-1.1591h5.3636c0-.4924-.0985-.9318-.2955-1.31816-.1931-.38637-.4697-.69129-.8295-.91478-.3561-.22348-.7765-.33522-1.2614-.33522-.5341 0-.9962.13257-1.3863.39772-.3864.26137-.6838.60228-.8921 1.02273-.2083.42041-.3125.87121-.3125 1.35231v.7727c0 .6591.1137 1.2178.3409 1.6761.2311.4546.5512.8012.9603 1.0398.409.2348.8844.3523 1.4261.3523.3523 0 .6704-.0493.9545-.1478.2879-.1022.536-.2537.7444-.4545.2083-.2045.3693-.4583.4829-.7614l1.2955.3637c-.1364.4394-.3656.8257-.6875 1.1591-.322.3295-.7197.5871-1.1932.7727-.4735.1818-1.0057.2727-1.5966.2727Zm6.9943-11.81816V16h-1.3409V4.36364h1.3409Zm5.0242 11.84086c-.5531 0-1.055-.1041-1.5057-.3125-.4508-.2121-.8087-.517-1.0739-.9147-.2651-.4015-.3977-.8864-.3977-1.4546 0-.5.0985-.9053.2954-1.2159.197-.3144.4603-.5606.7898-.7386.3296-.178.6932-.3106 1.0909-.3977.4015-.091.8049-.1629 1.2102-.216.5303-.0681.9603-.1193 1.2898-.1534.3334-.0378.5758-.1003.7273-.1875.1553-.0871.2329-.2386.2329-.4545v-.0455c0-.56057-.1534-.99618-.4602-1.30678-.303-.31061-.7632-.46591-1.3807-.46591-.6401 0-1.142.14015-1.5056.42045-.3637.28031-.6194.57955-.7671.89773l-1.2727-.45454c.2273-.53031.5303-.94319.9091-1.23864.3825-.29924.7992-.50758 1.25-.625.4545-.12121.9015-.18182 1.3409-.18182.2803 0 .6023.03409.9659.10227.3674.0644.7216.19887 1.0625.40341.3447.20455.6307.51326.8579.92614.2273.41288.341.96591.341 1.65909V16h-1.341v-1.1818h-.0681c-.0909.1894-.2425.392-.4546.6079-.2121.2159-.4943.3997-.8466.5512-.3522.1515-.7822.2272-1.2897.2272ZM54.25 15c.5303 0 .9773-.1042 1.3409-.3125.3674-.2083.6439-.4773.8296-.8068.1893-.3296.284-.6762.284-1.0398v-1.2273c-.0568.0682-.1818.1307-.375.1875-.1893.0531-.409.1004-.659.1421-.2463.0379-.4868.072-.7216.1023-.2311.0265-.4186.0492-.5625.0681-.3485.0455-.6743.1194-.9773.2216-.2993.0985-.5417.2481-.7273.4489-.1818.197-.2727.4659-.2727.8068 0 .4659.1723.8182.517 1.0568.3485.2349.7898.3523 1.3239.3523Zm6.794 4.2727c-.2272 0-.4299-.0189-.6079-.0568-.1781-.0341-.3012-.0682-.3693-.1023l.3409-1.1818c.3257.0834.6136.1137.8636.0909.25-.0227.4716-.1344.6648-.3352.1969-.197.3769-.517.5398-.9602l.25-.6818-3.2273-8.77277h1.4545l2.4091 6.95457h.0909l2.4091-6.95457h1.4546l-3.7046 9.99997c-.1667.4508-.3731.8239-.6193 1.1193-.2462.2993-.5322.5209-.858.6648-.3219.144-.6856.2159-1.0909.2159Z"/>
  <defs>
    <linearGradient id="a" x1=".00005683" x2="20.0023" y1="10.9099" y2="10.9099" gradientUnits="userSpaceOnUse">
      <stop stop-color="#9059FF"/>
      <stop offset="1" stop-color="#F770FF"/>
    </linearGradient>
  </defs>
</svg>
